<svg xmlns="http://www.w3.org/2000/svg" xmlns:amcharts="http://amcharts.com/ammap" id="Layer_1" viewBox="0 0 512 512"><g id="_x3C_defs"><amcharts:ammap bottomLatitude="39.645" leftLongitude="19.266" projection="mercator" rightLongitude="21.057" topLatitude="42.66"/></g><g><path id="AL-01" d="m212.9 307.2.2 2.1 1 .3h2.6l-2.3 1.4 1.7.9.4 2.8 3.2-5.8 5-.8 4.3-2.6 5.4.3 1.6-1.7 2.9-.4 1.3 11.9 3.4-2.4.2 2 1.3 1.3 2.6-.4 4 8.8 3 2.3-.2 2.1 3.7.5 3.4-1.4 4.3 3.9 8.3-1.5 2 2.8 4.6 11.2 2.9 2.3.7 4.4 1.6 1.2 2.9-.5 3.5.8-.4 3.1-2.5 4.8 2 3 1.9 12.5-5.7 1.1-3.2-.8-1.5 3.1 1 5-3.3-.6-5.8 1-1.2 1 1.3 1.9-4.1 2.8-6.2-7.3-.9-2.9-4.4-.4-.2-3-2.8-4.5-2.9-3.1-4.2-2.5-3.1.5-.8 3.3-2.7-3.5-2.5 1-4.8-1-3.4 1.6-7.7-2.4-.3-4-1.9-2.6h-2V359l-1.7-1.7-.8-3.8-2.8-4.3h-.9l2.4-3.8-.9-5.8-5.8-7.7-1.7-7.9-2.6-4.4v-4.1l1.1.6 1.1-1.1-1.1-.9 1.4-1.6-1.2-.8 1.1-.9v-1.2c-.1 0 2.2-.4 2.2-.4l1.1 1.4 2-3.1Z"/><path id="AL-09" d="m263.6 138.7 2 1 2.6-.9 6.6-3.9.2-2 1-.2 3.9 3.3-.6 7.3 2.5 3.7 1.6.6 6.4-2 .3-4 11.1.3 3.8-1-1-2.5 2.2.8v7.3l1.5 5.9h-3.1l-.2 1.4-1.6.6.3 1.3-1.8 3-.8 4.4 1.8 6.1-1.7 4.6 1.3 1.7v2.4c-.1 0 2.1 2.4 2.1 2.4l1.2 3.1.5 3.6-4.3 2.8-7.5 1.2 1.2 1.3v1.4l-2.2 2.9v1.5l2.8 1.1v1.3l2.2 1.6 2.2 6.7-.4 1.6 3.9 1.2-.2 1.3 2.3 1.9.4 1.5-1.9 4 .8 1.6-3 3.6-.2 1.6-1.2 1.2-2.3-1.7-.9 2.4 2.4 7.3-9.9 1-2.6-3.2-4.2 2.4-2.8.3 1.4-2.3.4-5.1-4.7-3.6.4-3.4-2.6-2.2-4.2.3-6 4.9-2.4.7-1.3-2.8h-4.8l-6.4-8.4-1.6.3-3.4 4.2-.4-2.6-1.8-2.4-5.5-2.6-1.9-5.2-2.7-3.8-5.2-4-2.7-.3-8.7-11-.9-6.2-2.5-3.5v-5.2l-4-4.9 3.1-1.6 2.7-2.9 2.9 3.3 4.1.3 3.4-1.4 6.3 2.5 1.2-2.6 3.6-2.1 1.7.6 1.5 2.3 1.5.2 1.4-.9.2-1.8 2.1-1.9 1.9-3.7 13.2-1.4-.7-6.2-2-1.2.3-5 1.7-.9 1-3.5 3.6-.7Z"/><path id="AL-02" d="m170 188.6 4.5.9 5.6-1.2 14.3 4.8 3.9.4 11.9-2.7 5.9-3.3 8.7 11v2.4c-.1 0-6.1 8.3-6.1 8.3l-2.1-.8-1.6 1.3-4.1.6-7.2 5.8-3.3.2-2.5-1.9-.3-7.5-1.8.9.3 1.8-2.5 1.2-2.1-1.1-1.8 1.2-1-.3-.9 1.5.3 7.9 2.4 4.1-.8 4.8.9 5.3-5.1 7.8-2.4-2-4.4.9-3.4-.7-1.1-3.2-3-4-4.1-.9-.3 1.9-3.9-3.7.3-9.3-4-5.4 3 2.5 3.6-.5 1.7-3.2-.2-2.1h-1.1l.6 2.7-1.3-3.3 5-2.3 3.7-5.3.8-2.4-.4-6.1-6.3-3.8-2.2-5.2 4.1 2.1Z"/><path id="AL-03" d="m262.6 226.2 2.4-.7 6-4.9 4.2-.3 2.6 2.2-.4 3.4 4.7 3.6-.4 5.1-1.4 2.3 2.8-.3 4.2-2.4 2.6 3.2 9.9-1 .2 4.2 1.2 2.9-.9 2.4 2.5 5.5 2.9 1.1 4.3 8.8.3 1.7-1.6 2.9 2.2 3.3 1.5 4.4-1.6 9.4-1.4-2.5-6.1-.5-5.3 1.3-5.4 3.5-3.4.6-.9 1.3-1.2 7.1-2.4 3 1.6 4.2 3.3 3.9 5.3 9.3-.8 6.6-1.9 3.9-1.9 1.2-1 2.4-3.6-1.2-6.1-.4-2.2 2.7-4.4-.5.8 1.9-8.3 1.5-4.3-3.9-3.4 1.4-3.7-.5.2-2.1-3-2.3-4-8.8-2.6.4-1.3-1.3-.2-2-3.4 2.4-1.3-11.9-2.9.4-1.6 1.7-5.4-.3-4.3 2.6-5 .8-3.2 5.8-.4-2.8-1.7-.9 2.3-1.5h-2.6l-1-.3-.2-2.1.9-.8-.5-2.9-2.8-2.5 1.3-6-1.6-7.7 1.4-3.6-8.8-2.2-3.7.3-4.4-6.2 3.7-2.2 1.3-4 4.1-3.4.6-2.8 1.1-1 1.4-.2 2.5 1.9 2.9-1.3 1.7.3 2.4-2.3 1.7.2.9-2.5 2.6-2.5 6.2-2.5 6.8-5.3 5.2-8.9 1.9-.5 3 1.9 2.8.2 6-4-.4-3.8.7-1.6 8.4-3.9.8-1.3Z"/><path id="AL-04" d="m164.9 284.3 3-.8-1-3.4 1.3-1.3-.2-1.1 1.6.9-1.1-2.1 1.9-.8 2.5 3.4.5-2.7.9 1.2 1.3-1.2 4.7 1.2.2-2.4 2.2-.2.4-1.5 2.5-.7 1.2 1.3 1.4-1.3.6.2-.4 1.3 1.4-1 .6 1.6 2.4-1.3 2.1 2.1 4.4 6.2 3.7-.3 8.8 2.2-1.4 3.6 1.6 7.7-1.3 6 2.8 2.5.5 2.9-.9.8-2 3.1-1.1-1.4-2.3.4v1.2c.1 0-.9.9-.9.9l1.2.8-1.4 1.6 1.1.9-1.1 1.1-1-.6v4.1l2.6 4.4 1.7 7.9 5.8 7.7.9 5.8-2.4 3.7h.9l2.8 4.4.8 3.8 1.7 1.7v1.1h2.1l1.9 2.6.3 4-3.1.2-7.1 7.4-2.3 4.4-3.6 2-2.2-2.3-.2-1.5-3-1.4 1.3-4.3-.2-3-3.3.7-.8-.7 1.9-5.2h-4.9l-8.7-5.6h-1.1l-1.2 1.3-1.7-1.9-.8.9-1.2-.3-.2-2.3-1.1-.6 1.1-1.3-1.6-.8-2.5 1.7-.6-3.6-2.6-.4-.5-1.8h-4.1l1.1-2.5-2.8-1.4-1.2.3-.8-1.3.2-2.3-3.7 1.6-.6 2-1.8-.8-1.4-2.5-4.7-1.6-1.9.4-2.1 2.2-1.7-.4-.7-1.2 1.3-1.4 1.3-.3 3.1-3.4 2.2-4.6v-7.2c.1 0 .4-1.4.4-1.4h1c0 .1.2-1.5.2-1.5l-1-1.9 1.1-4.2.5.7 1-.6.9-.6-.8-1-2.2.9 3.4-7 1.9-.3-1.6-4.2-.3 2.7-.4-5.5 2.3 1-.3-.8-.7-.6h-.9l.4-1 1.5-1.4 4.9.2-.2-1.2.8.5-.9-1.5 2.2-3-2.1 1 2.5-2.4.3-3.2-.7-1.5-1.9-1.7H166c0-.1 1.2.7 1.2.7h-.6l-1.5-1Z"/><path id="AL-05" d="m224.4 366.5 7.7 2.4 3.4-1.6 4.8 1 2.5-1 2.7 3.5.8-3.3 3.1-.5 4.2 2.5 2.9 3.1 2.8 4.5.2 3 4.4.4.9 2.9 6.2 7.3 4.1-2.8-1.3-1.9 1.2-1 5.8-1 3.3.6-1-5 1.5-3.1 3.2.8 5.7-1.1-1.1 7.4 1.5 2.8 2.9 2.6-2.7 6.3 2 3.1.3 5.9 4.2 11.9 4.3 5.6-.2 3.3 3.4 3.7 1.8 5.2 2.3 2.3-1.1 1.2-5.9.9-5-3.1-2.9 3.2-3.3-1.8h-1.4c0 .1-3.9 2.2-3.9 2.2l-1.2 1.7.4 2.1-2.1 3.6-.5 3.4-2.8 1.1-7.4-.3 4.1 7.2-.9 3.7 3.1 2.3 1.1 2.7 1.2.7.9 3.4 3.4 4.6-.7 4.8-3.7 4.1-3.8-2.9-5.9-2.2-1.6-3.5-2.2-.8-2.6-7.2-3.2-3.6.2-5.5-4.7-1.5-2.8-3.1-4-2-3.5-3.6-.8-2.2-7.9-8-1.8 1.3-3.9-2.6-3 2.3-1.5-.3-5.2-11.1-5.8-4.4-2.2-7.1-3.2-5-.3-3.1-1.4-2.7 1.2-2.1-1.8-.7-.8-2.4-6.5-7.2 7.2-7.5-2.2-2-1.3-2.8 3.6-2 2.3-4.4 7.1-7.4z"/><path id="AL-06" d="m312.5 269.4 7.6.9 7.6 28.7 9.5 2.1 1.9-1 3.1-5.6 7 3.4 5.2-.9 2.5 2 2.1 3 .4 16.2-.8 2-2.7 2 3.3 1.4v4.1c.1 0 5.1 4.6 5.1 4.6l4.2 7.2v7.2l-1.3 1.5-.6 3.5.2 5.6-4.5.8-1.1 3.2-3.6 2.3v4.9c-.1 0-2.1 2.6-2.1 2.6l.5.8-3.7 1.3-2.5-2.2-4.4.8-3.6-1.5-2.8 6.6h-1.3c0-.1-3.3 2.2-3.3 2.2l.8 2.2-.7 2 .4 6.3-1.7 1 .2 1.4-2.4 2 .7 2.4-1.3 1.3-2.2.4-3.3 5.7v2.6l1.5 1.2v6c-.1 0-1.9 2.9-1.9 2.9l-3.5 1.7-.4 3.9 2.3 2.1-2.2 4.1.3 5-6.6.9-2.2 2.3-2.3-2.3-1.8-5.2-3.4-3.7.2-3.3-4.3-5.6-4.2-11.9-.3-5.9-2-3.1 2.7-6.3-2.9-2.6-1.5-2.8 1.1-7.4-1.9-12.5-2-3 2.5-4.8.4-3.1-3.5-.8-2.9.5-1.6-1.2-.7-4.4-2.9-2.3-4.6-11.2-2-2.8-.8-1.9 4.4.5 2.2-2.7 6.1.4 3.6 1.2 1-2.4 1.9-1.2 1.9-3.9.8-6.6-5.3-9.3-3.3-3.9-1.6-4.2 2.4-3 1.2-7.1.9-1.3 3.4-.6 5.4-3.5 5.3-1.3 6.1.5 1.4 2.5 1.6-9.4-1.5-4.4 1.4.2Z"/><path id="AL-07" d="m250.1 27.9 6.5 3.6v1.6l3.9 5.7-.6 1.8 3.4 3 .9 3-2.3 2.8 3.9 3.5.7 1.8-.2 2.8-1 .8 1.3 2.2-.2 1.8 1.7 1 4.1-.9 1.9 1.5 2.7-2.1 2.3.5 1 2.6 5.1 1.8 1.4 2.2 6.8 2.4 8.1 9.9 2.4 8.8 1.8 2.3 1.2 4.1-.8 2.4.6 1.8-1.4 2.6 2 3.8 3 2.9.4 3.7 3.6 9.7-.9 3.9-5.3 4 2.2 6.5-4.2 1.4-2.2-.8 1 2.5-3.8 1-11.1-.3-.3 4-6.4 2-1.6-.6-2.5-3.7.6-7.3-3.9-3.3-1 .2-.2 2-6.6 3.9-2.6.9-2-1 1-8.2 5.9-6.3-1.2-5.9.8-2.9-2.7-3.3-3.2-1-.7-2.8-2.8-4.5-2.9 2.9-3-.7 3.5-3.4-.6-4.3 1.4-3 1.8-2.5 4.5-3.3.9-3.4h-1.7l-4.9-2.3-.9-1.7-4.8-.3-2.6-2.7-3.6-.4-5.1-3.8H240l-1.8-2.7-8 1.4-4.3-1.2-2.8 3.4-2.5.5-1.1 1.2-3.5-3-.3-1.6 1.5-5.4-1.5-3.3-.7-5.3-2-3.8 1.2-4.8-2.4-5.9 2.1-5.9 1.1-2.1 3.8-.6 1.2-2.4 2.5 1.8 1.1-3.5 3.3-1.6 9 1 1.4-5.4 4.1-1.4 1-1.5 3.9 1.2 1.5 3 1.9 1.1Z"/><path id="AL-08" d="m267.4 112 2.7 3.3-.8 2.9 1.2 5.9-5.9 6.3-1 8.2-3.6.7-1 3.5-1.7.9-.3 5 2 1.2.7 6.2-13.2 1.4-1.9 3.7-2.1 1.9-.2 1.8-1.4.9-1.5-.2-1.5-2.3-1.7-.6-3.6 2.1-1.2 2.6-6.3-2.5-3.4 1.4-4.1-.3-2.9-3.3-2.7 2.9-3.1 1.6 4 4.9v5.2l2.5 3.5.9 6.2-5.9 3.3-11.9 2.7-3.9-.4-14.3-4.8 1.5-1.7v-2.2h1.8l.9-3.6 1.5 3 .5-3.3-.4-2.4-1-.8-1.4-.7-1.8.7-.7-1.1 2.3-9.7-2.1-8 1.2-2.1h2.8l.3-5.6-1.1-2.2-2 .3-5.1-3.9-5.5-2.5 1.1-3.5-.7-3.6-4.8-4.4-.3-1.9 3.4-.8 7.9 6.1 2.8 1.1 1.3-1.4-1.1-3.3.8-1.4-.5-3.7 1.9-1.3 5.7 1.7.2 3.4 7.8-.2 3 1.4 2.8 3.3 3-2.9.9-4.1 2.4-.7 1.2-1.6h1.1l2.1 2h1.7c0 .1 3-1.1 3-1.1l.7-1.8 1.7-1.1 3.4.6 2.8-2.1 4.4 14.8 3-1.1 4.1 2.1 4.4-8.3 4.7-3.3 1.4-5.1 18.3-8.6Z"/><path id="AL-10" d="m204.3 10.7.4 2.3 2.7 3.4.3 1.9-3 .4-.5 1.3.7 1.7-1.3 3.6 1.9 3.6.6 3.3 1.9 1 1.6 2.4 4.6 2.6-2.1 5.9 2.4 5.9-1.2 4.8 2 3.8.7 5.3 1.5 3.3-1.5 5.4.3 1.6 3.5 3 1.1-1.2 2.5-.5 2.8-3.4 4.3 1.2 8-1.4 1.8 2.7h2.6l5.1 3.9 3.6.4 2.6 2.7 4.8.3.9 1.7 4.9 2.4h1.7l-.9 3.3-4.5 3.3-1.8 2.5-1.4 3 .6 4.3-3.5 3.4 3 .7 2.9-2.9 2.8 4.5.7 2.8 3.2 1-18.3 8.6-1.4 5.1-4.7 3.3-4.4 8.3-4.1-2.1-3 1.1-4.4-14.8-2.8 2.1-3.4-.6-1.7 1.1-.7 1.8-3 1.2H214c0-.1-2.1-2.1-2.1-2.1h-1.1l-1.2 1.6-2.4.7-.9 4.1-3 2.9-2.8-3.3-3-1.4-7.8.2-.2-3.4-5.7-1.7-1.9 1.3.5 3.7-.8 1.4 1.1 3.3-1.3 1.4-2.8-1.1-7.9-6.1-3.4.8.3 1.9 4.8 4.4.7 3.6-1.1 3.5-9.6-2.3-1.6.4-2 2.3-2-.6 1.3-5.8-4.9-3.9 3.7-2.4-2.6-3v-2.6l4.7-1.6-1.4-1.6.7-2.2-1.2-3.1-.3-5.5 1.3-6 2.7-5-15.2-12.9 8.5-10.2 1-2.7 3.2-3.9.3-2.5 4.7-5.5-1-3.9 1.1-.8.4-2.8 1.5-1.8 4.2-1.8 3.3-6.6 2.5-1.8 2.4-4.1 2.7-4.9.5-3.1 6.7-4.7-.6-5.9 6.1-8.4 2.7-.4 2.8-4.4 2.3-1 1.2.5 1.2 2.6 1.8.7-.8 1.6Z"/><path id="AL-11" d="m224.8 198.5 2.7.3 5.2 4 2.7 3.8 1.9 5.2 5.5 2.6 1.8 2.4.4 2.6 3.4-4.2 1.6-.3 6.4 8.4h4.8l1.3 2.8-.8 1.3-8.4 3.9-.7 1.6.4 3.8-6 4-2.8-.2-3-1.9-1.9.5-5.2 8.9-6.8 5.3-6.2 2.5-2.6 2.5-.9 2.5-1.7-.2-2.4 2.3-1.7-.3-2.9 1.3-2.5-1.9-1.4.2-1.1 1-.6 2.8-4.1 3.4-1.3 4-3.7 2.2-2.1-2.1-2.4 1.3-.6-1.6-1.4 1 .4-1.3-.6-.2-1.4 1.3-1.2-1.3-2.5.7-.4 1.5-2.2.2-.2 2.4-4.7-1.2-1.3 1.2-.9-1.2-.5 2.7-2.5-3.4-1.9.8 1.1 2.1-1.6-.9.2 1.1-1.3 1.3 1 3.4-3 .8 2.5-14.1-.3-5-2.2-5.4 2.7-.3 1.5-1.8 1.5-6.7 3.1-3.6 1.2-3 .3-4.5 3.4.7 4.4-.9 2.4 2 5.1-7.8-.9-5.3.8-4.8-2.4-4.1-.3-7.9.9-1.5 1 .3 1.8-1.2 2.1 1.1 2.5-1.2-.3-1.8 1.8-.9.3 7.5 2.5 1.9 3.3-.2 7.2-5.8 4.1-.6 1.6-1.3 2.1.8 6-8.3v-2.4Z"/><path id="AL-12" d="m145.4 366.4 1.6 1.6-.9 3.2-2.3-3.4-.2-3 1.9 1.6ZM149 342l1.7.4 2.1-2.2 1.9-.4 4.7 1.6 1.4 2.5 1.8.8.6-2 3.7-1.6-.2 2.3.8 1.3 1.2-.3 2.8 1.4-1.1 2.5h4.1l.5 1.8 2.6.4.6 3.6 2.5-1.7 1.6.8-1.1 1.3 1.1.6.2 2.3 1.2.3.8-.9 1.7 1.9 1.2-1.4h1.1l8.7 5.5h4.9l-1.9 5.2.8.7 3.3-.7.2 3-1.3 4.3 3 1.4.2 1.5 2.2 2.3 1.3 2.8 2.2 2-7.2 7.5 6.5 7.2.8 2.4 1.8.7-1.2 2.1 1.4 2.7.3 3.1 3.2 5 2.2 7.1 5.8 4.4 5.2 11.1 1.5.3 3-2.3 3.9 2.6 1.8-1.3 7.9 8 .8 2.2 3.5 3.6 4 2 2.8 3.1 4.7 1.5-.2 5.6 3.2 3.6 2.6 7.2 2.2.8 1.6 3.5-1.9 2 2.2 3.6-1.9 2.8 3.8 5.7-4.9 3.1-2.1 2.6-.2 4-2.4-2-1.9-.2-1.5 3 1.2 2.3-.6.7-4.2.2-7.7-1.6-4.7-4.3-1.8.2-1.4-1.4-3.5-.4-.8-1.4-3.3 1.2-.4 1.3-.8-.5H234l-.2-3 1.8-3.4-.4-2.7.9-1.3-.7-.4-.6 1.4-.4.8-1.2-.4-.5-1.6 1.4-2.6 1.4.5 1.4-2.4-.5-2-1.2-.2v-.7l1-.4 1.4-2.9-.4-2.9 1.5-1.4-.2-2.6-.9-2-1.4.8-1.7-1-.6.6-.3-1-2.8-1.1-.4-2.1-2.2.3-.6-1.3-2.4.3-.6-1.7 1.2.4.7-2.3 1.9-.8-.3-2.5-9.3-15.4-3.5-2.4-4.9.8-.4-1.1 1.3-.3-1.6-1.1v-1l-1.7-.6v2.3c-.1 0-1.2-3.7-1.2-3.7h-2.3l.3-2.9-2.2-.3-2.4-2.1h-1.8l-.1-1.4-5.2-.8-2.2-2.5-6.2-3.4-1.7-1.9-5.6-2-8.1-5-11.3-13.6-1-1.5.8-1.2-1.8-6-5.1-7.5-4.3-3.9 4-2.9 4.7 2.7 5.9 7.4.3 5.8 1.8 3.3 4.2-.9 3.5-3.1-.6-5 .8-1.6-.8-2 1.9-5.5v-2.6l-4.1-2.2-4.4-5.8-3-1.1-1.8-3.1.3-1-1.3-.9v-5.6l-5.1-9.6-3.7-4.4Z"/></g></svg>