<?xml version="1.0" encoding="UTF-8"?>
<svg id="Layer_1" xmlns="http://www.w3.org/2000/svg" xmlns:amcharts="http://amcharts.com/ammap" version="1.1" viewBox="0 0 512 512">
  <!-- Generator: Adobe Illustrator 29.1.0, SVG Export Plug-In . SVG Version: 2.1.0 Build 142)  -->
  <g id="_x3C_defs">
    <amcharts:ammap bottomLatitude="42.426982" leftLongitude="1.409457" projection="mercator" rightLongitude="1.786852" topLatitude="42.654913"/>
  </g>
  <g>
    <path id="AD-02" d="M315.7,101.4l12.8,2.1,2,6.6,1.9,1.9,1.5,1.3,8,3.3,1.8-.8,2.8-3.3,1.5-.3,3.9,1,2.2-.2,2.6-1,1.5-1.3,2.8-.3,3-3.2,4-.8h1.7c0,.1,11,4.3,11,4.3l8.5-.3,4.2,3.7,4.9,1.4,10.6,8.3,9-.3,3.1-1.5,3.6-.4,3.7,1.2h3.2c0,.1,7.3-2.4,7.3-2.4l1.4,1.6,1.5,7.3-7.6,7.9-3.2,8.8-4.9,4.1-2.1,7.9.3,11,.6,1.1,2,1.4,6.8-.5,13.3,1.3,15,7.7,16.2,4.5,15.4-2.3,3.2-1.3h3.4c0,.1,2.7,6.4,2.7,6.4l1.4,1.5,2.8,6.7-3,3.5-4.8,4.3-4,2-5.9,4.2-6.4,2.7-4.8-.7-13.4.2-7.8,1.3-6.7,5.5-8.3,9.6h0l-16.4.3-28.3-3.4h-5.2l-4.1-1.1-10.3-.2-3.3.9-1.4,2.1-2.1,1.7-2.4-1.1-1.7-3-1.7-.6-3.3.2-2.8,3.6-6.5,4.7-11.2,11.3-7.3,3.2-6.5-1-4.8-4-6.3-.3-7.1-7.2-1.6-.3-1.8.4-1.9,1.3-9.8,2.1-5.1,4.3-2.7,4.3-2.2.3-1.1-.6-4.3,1.1-3.1,3.2-1.7.8-2.8-.2-2.5-.9-2.4-3.3-4.2-2.3-56.6,2.2h0l7.5-4.7,2.5-1,1.5-2.6,2.5-9.6v-4l-1.1-4.2-1.7-3.3-2.3-1.6-.9-1.5-1-7.6-1.9-4.1.9-14.7-1.1-6.4-1-.7.5-2.5,1.5-1.3,1.9-.5,3-3.2,4.3-2.9,2.3-4.4.4-2.1-.4-2.9,1.4-8.5,4.5-5.3,9.1-2.5,1.5-1.8,2.1-1.4,1.4-2.3,3.5-3.4,1.4-2.8,3-2.9,10.1-2.6h3.7c0-.1,1-4,1-4l-.4-2.1-1.5-1.9-.2-2.1,1.2-5.2-2.8-4.7-.6-2.5h0l2.3-.8,4.7-4.4,2.4.4,1.9,2.8h5.8c0-.1,3.3,1.2,3.3,1.2l8.3-1.7h4.6c0,.1,4.6-1,4.6-1l2.4-2.7,5.1-2,4.6,3.7,4.6,1Z"/>
    <path id="AD-03" d="M205.4,246.7l56.6-2.2,4.2,2.3,2.4,3.3,2.5.9,2.8.2,1.7-.8,3.1-3.2,4.3-1.1,1.1.6,2.2-.3,2.7-4.3,5.1-4.3,9.8-2.1,1.9-1.3,1.8-.4,1.6.3,7.1,7.2,6.3.3,4.8,4,6.5,1,7.3-3.2,11.2-11.3,6.5-4.7,2.8-3.6,3.3-.2,1.7.6,1.7,3,2.4,1.1,2.1-1.7,1.4-2.1,3.3-.9,10.3.2,4.1,1.1h5.2l28.3,3.4,16.4-.3h0l-.9,1.7-.8,4.4-3.7,4.9-.5,2.4.8,4.2-1.4,11.6,1.1,12.3-2.6,5.6-2.5,2.7-1.4,5-3.7,4.5-4.2,6.4-1.8,1.3v5c0,0,5.4,3.2,5.4,3.2l1,21.9-1.1,2.3-8,4.3-5.3,8.6-5.2,6.7-5,3.5-2.7.9-2.3-.2-14.1-11.5-3.2-1.4-2.6-.3-5.3,1.4-7.5.6-7.5,1.8-6.1.3-4.8-.7-3.1,1.4-.7,1.6h0l-7.5-1.2-12.3-3.4-5.1-.7-13-3.9-6.7-.9-4.4-1.6-7.5-4.3h-3.7l-3.4,3.2-5.3,1.3-8.9-2.4-3.7-3.7-12-6.7-13.8-12.9-5-3.3-10.9-9.1h-1.8c0-.1-4,2.1-4,2.1l-3.3-1.6-3.1.4-2,1.6-2.9,4.5-3,1.6-3.3.3-3.1-.6-2.9-2.5-2.4-3.1-1.1-3.4-1.1-8.1h0l2.4-3.4.2-2.4-.9-5.4.8-2.7,3.3-4.2,4.7-4.3,4.6-6.7,1.4-7.1,1.5-3.8h0l2.4.6Z"/>
    <path id="AD-04" d="M83.9,138.2l4.1,5.5,6.1,1.4,2.1,2.4,2.8.5,7.4,2.9,1.2,2.3,2.2,1.1,3.9-.9,3.6,1.8,2.1,5-.4,6.2,1.5,6.4-.4,7.5.8,6.9,1.4,2.9,2,2.2,2.4,5.9,4.1,6.5,4.7,4.3,5.5,2,1.4,2.2,2.3,6.2,3.1,1.4,1.8,2.8.4,2.8-.8,1.7v5.9l1.7,2.5.4,2.6,1.2,1.9,7.2-1.1,1.1.7,3.4.4,6.5,2.2,4.5,2.5,3.4.9,3.8-1.2h4c0-.1,2.3-1.7,2.3-1.7l3.6-.9,7.7,1.6,2.9,1.9h0l-1.5,3.8-1.4,7.1-4.6,6.7-4.7,4.3-3.3,4.2-.8,2.7.9,5.4-.2,2.4-2.4,3.4h0l-.8-1-1.4.3-1.7,1.6-8.5,1.6-4.4-.9-4.4-2.1-6.9.5-2.2,2h0l-2.7-1.4-3,.7-2.8,4.4-2.3,2-10,1.1-2.1,2.8-2.7,2.1-4.1.2-2.6.8-2,2.4-1.6.9h-5.5l-3.6-.7-6.5.6-7.6,2.9-4.8,1.1-5.3,3.3-4.5,1h0l.5-.8-.7-3.3-6.6-15.6-4-6.8-4.7-5.1-2-3.4-1.6-4.3-.7-3.3.2-2.7,1.5-3.4v-3.3s-1.1-1.4-1.1-1.4l-9.3-5.4-2.3-.9-4.8-.5-2.1.4-13.1,7.1-3.5.6-2.1,1.1-6.9,5.4-3.3.4-2.4-.7-.5-2.7.3-3.1,2.9-3.3,2.9-4.9,1.5-1.5-.2-8.4,6.5-14.2,4.7-5.4,14.6-6.5,2.3-1.4,4.3-4.9.4-4-1.7-4.9-1.3-.9-6-1.1-4.7-2.5-9.2-13.7-.5-1.8,2-7.7,4.9-2,4.9-5,3.3-2.2,2.8-2.9,1.7-7.6,1.7-3.8.4-5.4h7.2s3.7,1.1,3.7,1.1l5.9.6,2.1-.6,1.4-1.1,1.8-4.5,4.1-.2,1.7-1.4h6Z"/>
    <path id="AD-05" d="M261.1,104.9l.6,2.5,2.8,4.7-1.2,5.2.2,2.1,1.5,1.9.4,2.1-1,3.9h-3.7c0,.1-10.1,2.7-10.1,2.7l-3,2.9-1.4,2.8-3.5,3.4-1.4,2.3-2.1,1.4-1.5,1.8-9.1,2.5-4.5,5.3-1.4,8.5.4,2.9-.4,2.1-2.3,4.4-4.3,2.9-3,3.2-1.9.5-1.5,1.3-.5,2.5,1,.7,1.1,6.4-.9,14.7,1.9,4.1,1,7.6.9,1.5,2.3,1.6,1.7,3.3,1.1,4.2v4l-2.5,9.6-1.5,2.6-2.5,1-7.5,4.7h0l-2.4-.6h0l-2.9-1.9-7.7-1.6-3.6.9-2.3,1.6h-4c0,.1-3.8,1.3-3.8,1.3l-3.4-.9-4.5-2.5-6.5-2.2-3.4-.4-1.1-.7-7.2,1.1-1.2-1.9-.4-2.6-1.7-2.5v-5.9l.8-1.7-.4-2.8-1.8-2.8-3.1-1.4-2.3-6.2-1.4-2.2-5.5-2-4.7-4.3-4.1-6.5-2.4-5.9-2-2.2-1.4-2.9-.8-6.9.4-7.5-1.5-6.4.4-6.2-2.1-5-3.6-1.8-3.9.9-2.2-1.1-1.2-2.3-7.4-2.9-2.8-.5-2.1-2.4-6.1-1.4-4.1-5.5h0l1.7-3.1,8.5-11-3.5-7.8-1-6-1.9-3.6-2.6-1.7.9-5.5-1-2.9-2-2-.4-2.4,1.5-3.5.5-3.4,2.9-3.5,2.1-.4,4.3-5.3.2-9.3,1.6-1.4v-7.7c.1,0,1-1.2,1-1.2l13.1-.3,1-1.7,2.4-.8,3.1.3,3.1,4.3,4.4,8.1,1.9,1.4,5.6.5,11.6-1.3,7.7,1.4,1.9-2.4,1.5-3.3,7.3-4.6,2.8-.6,5.2,3.4,2.7-.7,3.9-4.1,2.2-.5,11.2-4.9h2.4c0-.1,8.8,6.1,8.8,6.1h2.4c0-.1,2.9-3,2.9-3h3.6c0-.1,3,5.7,3,5.7l2.4,3,2.4,2,6.4-.6,2.1,4.9v4.7l1,1.2,2.7-.2.5,1.5v5.1c0,0,2.8,4.7,2.8,4.7l5.3,4.5,9.3.6,2.7,1.8,8.4,11.9h2.8Z"/>
    <path id="AD-06" d="M59.5,334.5l5.8,4.9,12.3,8.1,6.3,4.9,11.7,7.2,12.8,11.1,4,2,3.5.6,4.6-1.8,2.7-1.2,6.5-4.9,6.2.9,11.5,4.5,19.6.9,11.7,1.5,5.2-.3h0l.3,4.7,1,3.6,1.6,2.5,7.5,1.1,1,.8.9,7.1,8.5,9.9,2,3.7h0l-1.5,2-.7,4.3,1.3,6.3-.5,5.5,1,6.3-.4,2.4-4.6.8-2.2,1.6-.8,17.6-1.4,1.1-4,.5-3-1.3-4,1.1h-4l-1.8-.8h-2l-1.4,1.6-5.5-.6-2.1.5h-6.9l-2.4,2.4-5.1,1.1-5.1,2.4-12.1-1.6-4.2-2.4-.7-1.1-6.8-3.3-5.3-1.3-15.3.9-5.5-1.4-6-2.4-8.3-1.3-1.2-1-16.9-.6-2.3-1.2-4.2-.3-1.6-.7-2.4-1.3-4.9-5.8-2.1-3.4v-.5l.7-.2,2.9.2-1-5.7-.8-1.1-1-3.9-2.1-2.1-.4-8.7,6.9-7.7-.4-1.8-6.8-5.2-1.5-2.5-.7-13.3,1.2-4.4-.9-1.7-10.4-11-11.7-.2-4.1-1-3.2.9-1.3-.5-1.8-3-3.8.2-1.6.9-1.1-.2-1.5-1.8-.8-2.7,1-1.9,4.9-3.7,3.7-4.4,3.6-1.9h4.2c0,0,4.9-1.3,4.9-1.3l13.6.2,4.3-.8,2.3-2.2,4.7-.9,3.1-1.4,4.4-3.3Z"/>
    <path id="AD-07" d="M154.6,288.1l1.1,4,2.8,6.1,4,.9,4.2,6.1,1.3,5.1,3.3,7,1.7,5.8-.3,2.1-2.8,1.5-1.1,1.8,1.7,6.2,1.4,1.5,4.3,9.9,2.1.7,1.9,6,4.5,6,3.3,6.1v1.8l-4.2,6.1h0l-5.2.3-11.7-1.5-19.6-.9-11.5-4.5-6.2-.9-6.5,4.9-2.7,1.2-4.6,1.8-3.5-.6-4-2-12.8-11.1-11.7-7.2-6.3-4.9-12.3-8.1-5.8-4.9h0l1.1-1.3.8-3.8,6-5.9,4.8-2.7,8.7-8.5h0l4.5-1,5.3-3.3,4.8-1.1,7.6-2.9,6.5-.6,3.6.7h5.5l1.6-.9,2-2.4,2.6-.8,4.1-.2,2.7-2.1,2.1-2.8,10-1.1,2.3-2,2.8-4.4,3-.7,2.7,1.4Z"/>
    <path id="AD-08" d="M154.6,288.1l2.2-2,6.9-.5,4.4,2.1,4.4.9,8.5-1.6,1.7-1.6,1.4-.3.8,1h0l1.1,8.1,1.1,3.4,2.4,3.1,2.9,2.5,3.1.6,3.3-.3,3-1.6,2.9-4.5,2-1.6,3.1-.4,3.3,1.6,4-2.3h1.8c0,.1,10.9,9.2,10.9,9.2l5,3.3,13.8,12.9,12,6.7,3.7,3.7,8.9,2.4,5.3-1.3,3.4-3.2h3.7l7.5,4.3,4.4,1.6,6.7.9,13,3.9,5.1.7,12.3,3.4,7.5,1.2h0l-.9,2.9v18c-.1,0-1.4,5.2-1.4,5.2v1.3c.1,0,1.7,3,1.7,3l1.9,2.5v2l-4.2,3.3-3.8,7.1-2.1,1.1-6.3.4-5.2-2-6.7,4-3.6-.8-1.7-2.6-2.3-.3-5.8,4.9-.7,2.3-1.7.6-2.1-.2-.8-.9-7.9-3.3-3,2.1-6-.7-3.1.2-6,1.4-6.7-1.8-4-3.1-4.9.5-.9,1-7.6,2.4-2.3,2.3-5.1,8.5-3.8,12.7-1.3,2.5-1.7,1.1-2.6-.5-6.2-6.7-4.4-5.9-1.2-2.8-1.5-1.5-3.5-.2-2.1,2-4-.3h0l-2-3.7-8.5-9.9-.9-7.1-1-.8-7.5-1.1-1.6-2.5-1-3.6-.3-4.7h0l4.2-6.1v-1.8l-3.3-6.1-4.5-6-1.9-6-2.1-.7-4.3-9.9-1.4-1.5-1.7-6.2,1.1-1.8,2.8-1.5.3-2.1-1.7-5.8-3.3-7-1.3-5.1-4.2-6.1-4-.9-2.8-6.1-1.1-4Z"/>
  </g>
</svg>