<svg xmlns="http://www.w3.org/2000/svg" xmlns:amcharts="http://amcharts.com/ammap" id="Layer_1" viewBox="0 0 512 512"><g id="_x3C_defs"><amcharts:ammap bottomLatitude="46.371" leftLongitude="9.501" projection="mercator" rightLongitude="17.163" topLatitude="49.015"/></g><g><path id="AT-1" d="M499.9 216.8v8.1l5.9 2.4-4.3 3.6-.6 9.2-4.9 1.6 4.1 4.9 1.1 9.7-13.5 1.9-1.1-3.1-2.5 3.7H479c0 .1-1.9-4.8-1.9-4.8l-7.3-2.7-12 9.2 14.9 4.1 4.1 8-4.1 3.8.6 4.2-5.5 4.7h-8.5l-.8 5.2 3.6 6.9-4.8 7.2 2.5 6 4.9 1.5-4.4 3.1 3.8 3.5-5.3 2.6 4.8 2.6-14.4-1.1-1.2 4.9-9.2 8.3-8.8 3.9 10.3-15-4.4-8.2 1.7-6.5-5.5-22.4 9-4.1 7.3-3.1 3.8-5.8-1.6-4.8 3.9-7.5-4.3-4.2-.3-9.4-2.3-.8 1.1-1.8 2.6 2.2 4.1-5.2-2.5-2.2 4.1-1.5 2.3-5.2 4.6-.8 4 5.5 7.8-7.7.6-4.5 7.9-1.5 4-4.6 5.8 5 2.3-4.9-2.6-3 4 1.8 2.1-3.2.3.3Z"/><path id="AT-2" d="m211.3 314.5 5.4-2.8.3 2.7 11.9 2.1 9 6.1 12.4-2.9 1.8-4.4 5.7-.3 2.3 2.7 19.2 2.8 5.9 9.1 4.3 3.2 5.3-1.1 5.5-7.9 12.3-6.7 2 4.5 8.7.3 2.2 4.2 5-4.1 9 2.5 14.9-5 12 13.3-3.4 11.7 3.5 1.6-.4 9.1 2.9 2-5.8 4.6-1.5-2.4-5.7 2.4-3.2 8.9-6.7.7-.9 3.6-7.4 3.3-1.5 5.3-2.7-4.9-5 .2-1-2.3-17.7 1.1-2.6-4-13.4-4.2-7.6 1.5-27.5-6.8-8.7 2.6-4.7-3.5-20.9-1.8-10.1-4.9 1.6-7.7 14.1-2.4 2.3-2.8-14.3-16-1.5-3.3 3.2-4.3-3.6-.4-4.4-5.4Z"/><path id="AT-3" d="m367 128.4 8 2.1.3 5 6.6-1.1 1.1-4.1 12.4 4.3 14.5 9.5 9.7-2.2 16.6 12.9 18.6 1.7 4.6-7 6-1.4 8 3.2 1.2 5.2 14.3 1 3.3 16.9-6.6 9.4-1.1 6.8 8.1 11.4 1.1 9 6 5.2-2.1 3.2-4-1.8 2.6 3-2.3 4.9-5.8-5-4 4.6-7.9 1.4-.6 4.5-7.8 7.7-4-5.5-4.6.8-2.3 5.2-4.1 1.5 2.5 2.2-4.1 5.2-2.6-2.1-1.1 1.8 2.3.8.3 9.4 4.3 4.2-3.8 7.5 1.6 4.8-3.8 5.8-7.3 3.1-3.8-9.5-3.6 3.3-9-4.3-1.8-3.9-2.7.4.7-5.1-7.5-1-1.6-7.5-2.8 1-4.3-5-6.5.4-6.6-3.7-.4-2.9-6.9-.5-.7 2.8-4.7-.4-1.2 4-14.8.8-2.9 3.2-12.3-3.6-1.9-9.9 3.6-2.2-.3-2.8-2.1-3.2-14.7-5.7-3-4.6 2.1-17.3 5.7-.8 7.6 6.7 9.2-3.3 3.2-4.1 6.1 3.1.8-5.6-.4-6-2.8-.4 1.4-6.5h-3.1l1.6-3.2-4.8-5.8 3.6-2.4-15-7.8 7.7-19.1 11.1.7v-20.6l1.1-3.5h2.5Zm84.6 72-5 4.1-3.3-2-1.5 8.9 2.5 4.6 14 .4 5.1-3.8 3.6 2.1-1.5-12.2-9.5-5.4-.5-.2-2.6 3.5-.4-.6-1 .6Z"/><path id="AT-4" d="m289.6 152.6 13.8 9.4-3.2 3.4 3.7 4.3 13.4 1.4 4.1 2.9 3.4-4 2.8.5 2.6-5.9 2.1 3.1 3.8 1.2 3.3-2.4 5.2 4.3 15 7.8-3.6 2.4 4.8 5.8-1.6 3.3h3.1l-1.4 6.4 2.8.4.4 6-.8 5.6-6.1-3.1-3.2 4.1-9.2 3.3-7.6-6.7-5.7.8-2.1 17.3 2.9 4.6 14.8 5.7 2.1 3.2.3 2.8-3.6 2.2 1.9 9.9-2.9-1.6-10.9 5.2-.5 2.9-13.5 7.1-3.7-.6-1.5-3.7-11.9 3.2.3-4.9-3-3.2-15.1-1.5-5.4 8.5v4.3c-.1 0 3.9 3 3.9 3l-2.1 8.7-9-1.1-7.1-6 3-7.9-2.5-2.3 4-7-7-2.3 1.7-4.7 3.4 1.3.7-2.5-8.9.4-6.8-3.4-.5-11.6 5.1 1 .8-3.6-4.6-3.4-9.8 4-6.5-7.2-7.5.8-4.8 3.7-6.7-7.8v-4.8l17.2-12.7 20.4-6.7 6.8-10.3v-12.5l4.6-3.1 14.5 7.4 6-9.8.9-8.3-2.8-1.7 3.5-5.4Z"/><path id="AT-6" d="m347.8 252.4 12.3 3.6 2.9-3.2 14.8-.8 1.2-4 4.7.4.7-2.8 6.9.5.4 2.9 6.6 3.7 6.5-.4 4.3 5 2.8-1 1.6 7.5 7.5 1-.7 5.1 2.7-.4 1.8 3.9 9 4.3 3.6-3.3 3.8 9.5-9 4.1 5.5 22.4-1.7 6.5 4.4 8.2-10.3 15-.8 9 3.1 8-12.6-6.4-16 3.1-6.1 7.1-5.8-3.9-22.7.3-2.9-2 .4-9.1-3.5-1.6 3.4-11.7-12-13.3-14.9 5-9-2.5-5 4.1-2.2-4.2-8.7-.3-2-4.5-12.3 6.7-5.5 7.9-5.3 1.1-4.3-3.2 8.1-11.6-1.8-4 7.5-3.1-6.3-4.1-4.9-10.6-7.3 3.3-6.8-2.4-2.8-13.2 1.4-5 9 1.1 2.1-8.7-4-3v-4.3c.1 0 5.6-8.5 5.6-8.5l15.1 1.5 3 3.2-.3 4.9 11.9-3.2 1.5 3.7 3.7.6 13.5-7.1.5-2.9 10.9-5.2 2.9 1.6Z"/><path id="AT-5" d="m225.2 228.2 4.8-3.7 7.5-.8 6.5 7.2 9.8-4 4.6 3.4-.8 3.6-5.1-1 .5 11.6 6.8 3.4 8.9-.4-.7 2.5-3.4-1.3-1.7 4.7 7 2.3-4 7 2.5 2.3-3 7.9 7.1 6-1.4 5 2.8 13.2 6.8 2.4 7.3-3.3 4.9 10.6 6.3 4.1-7.5 3.1 1.8 4-8.1 11.6-5.9-9.1-19.2-2.8-2.3-2.7-5.7.3-1.8 4.4-12.4 2.9-9-6.1-11.9-2.1-.3-2.7-5.4 2.8-10-5.2-6.2.4-10.6 8-6.6-1.2-3.5-10.9 1.9-10.4 23.5-1.9 2.3-6.7h4.7c0 .1 3.7-7 3.7-7l4.3-1.1-4.4-6.7 2.3-2.9-5.9-2.5v-2.9l2-3.9h11.6l-1.6 2.1 4.3 3.7-2.9 3 1.1 2.5 13.4 8.9 2.9-2.8 2.2-18.7-4.1-3.5h-7.1l6.2-12.2-9.4-14.4Z"/><path id="AT-7" d="m184.5 317.7 10.6-8 6.2-.4 10 5.2 4.4 5.4 3.6.4-3.2 4.3 1.5 3.3 14.3 16-2.3 2.8-14.1 2.4-1.6 7.7-8.2.5-9.7-4.6-3.9-7.1-4.6-.9 1.5-5.3-2-4.1-4 .8-4.7-3.5 1.7-2.4-3.1-6.8zm.7-61.7.8 3.2 11.8-1.6 3.8 6.7 5-.7v2.9l5.9 2.5-2.3 2.8 4.4 6.7-4.3 1.1-3.7 7.1h-4.7c0-.1-2.3 6.6-2.3 6.6l-23.5 1.9-1.9 10.4 3.5 10.9-25.3 10.7-8.4-4.2-5.3 2.8-3.7-2.7-4.9 4.5-5.5-2.6-10.1 2.5-4.5 5-.8 8.7-4.1 5.2-19-2 2.2-3.4-6.3-4.9-7.8 3.6-4.9-1.8 1.2-8-6.6-5.9-4.7 7.2-4.9-.5-.7 6.2-5.6 1.5-3.3-7.1 4.1-5.5-1.7-9.4 5.1-6.4.6-10-2.6-1.7L60 295l6.9-7.3 2.6-4.9-2.4-14.5h2.8l-1.7 2.8 4.4 2h3.2c0 .1 1.7-3.2 1.7-3.2l11.7 5.2 7.1-2.2 2 2.3-3.2 3h4.3c0 .1 2.7 8.1 2.7 8.1l9.1.2 5.9-3.6 3.1.6-1.9 3.2 2.9-.2 4.5-5 5.5.4-2.4-2.7 3.2-3.9 9.1-.2 4.2-7.6 13.6 1.2 10.7-4.2 12.6 1.8-2.6-9 6-4.1-.6 3.1Z"/><path id="AT-8" d="m25.8 267.2.9 4.5 3.8 1.8 6.2-1.7 2 6.1 5.8 2.3.6 9.9 5.5-3.6 3.5 1-3.7 10.7 2.6 1.7-.6 10-5.1 6.4 1.7 9.4-4.1 5.5 3.3 7.1-2.6.9-5.6-5.7-9.2-3.2v-8.2c.1 0-17.6-3.8-17.6-3.8l1.5-6.6-4.1-4.1-2.5-9.3 9.3-11.5-1-6.1-4.1-1-6.2-9.2 15 2.6 4.6-5.8Z"/><path id="AT-9" d="M455.8 197h.3l9.5 5.5 1.5 12.2-3.6-2.1-5.1 3.8-14-.4-2.5-4.6 1.5-8.9 3.3 2 5-4.1h1.4l2.6-3.4h.2Z"/></g></svg>