<svg xmlns="http://www.w3.org/2000/svg" xmlns:amcharts="http://amcharts.com/ammap" id="Layer_1" viewBox="0 0 512 512"><g id="_x3C_defs"><amcharts:ammap bottomLatitude="49.498" leftLongitude="2.544" projection="mercator" rightLongitude="6.409" topLatitude="51.5"/></g><g><path id="BE-VAN" d="m296 52.1 7.4 4 .9 12.1-9.6 1.6 14.9-.6 4.2 4.9 14.1-19 6.5 3.1 3.4 8.1-4.2 8 8.2 16.3 13.7 2.3-.4 9-3 8.4 6.2 14.4-32.4 15.5-4.1 8.3-21.3 4.8-3.4-5.7-12.3 8.2-1.7-5.4-13.1 7-24.4-.9-1.9-7.2-18.2-1.4-6.4-.7-2-12.5 18.1-5.1 2.2-6.1-5.5-20.4 4.2-6.2-11-14.3-2.7-4.4 28 2.1-6.9-17.1 12.3-6.5 8.5-.9L264 68h13.5l18.8-16Z"/><path id="BE-WBR" d="m207.1 215.9 7.1-4.9 12 8.5 11.4-9.3 5 3.6 15.7-8 4.1 5.7 9.2-7.4 5.1 4.4 1.1-11.6 15.3-1.5 21.4 13 7.4-5.5 4.9 4.1-4.8 22.2-25.1 10.7-16.5-3.3.6 8.2-8.9-.6-3 5.6-14.4 2.7.4-6.2-7.5-1.3-10.4 4.3-19.6-24.1-9.8 6-.8-15.1Z"/><path id="BE-BRU" d="m249.6 176.5.5.4 7.7 21.4-13.7 5.6-18.1-11 6.9-13.2 10.5-3.1 5.8-.9.4.9Z"/><path id="BE-WHT" d="m123.9 203.4 22.2 9.6 6.2-10.5 10.6-1.8 2.1 6.9 15.7 3.2 2.1 8.5 24.3-3.3.8 15.1 9.8-6 19.6 24.1 10.4-4.3 7.5 1.3-.4 6.2 14.4-2.7-.9 20.4 6 3.4-3 19.7-24.7 3.1-15 11.3 14.7 4.7-4.9 12.9 9.1 45.7-37.7-7.5 2.4-13.9 9.1-4.3-3.9-12.9h-9.3c0-.1 10.4-28.2 10.4-28.2l-6-3.5-3.2 6.3-14.7-20.5-15.9 6.5-20.1-4.9-5.1 9.4-6.5-13.1.2-17.6-6.8-8-14 1.8 2.4-7.4-5.7-2-12.8 8.6-11-6.8-6.8-27.2 2.8-8.9-10.8-11.2h16.7c0 .1 7 9.5 7 9.5l13-11.9Zm-77.5 12.3-2.7-8.9 15.5-4.8-3.1-4.1 8.3-3.5 2.4 7.7-10.3 5.9-3.9 10.5-6.2-2.9Z"/><path id="BE-WLG" d="m414.2 194.2-1.3 11 26 10 1.3-9.5h16.7l2.5 7.6 10-.7 7.8 19.6h11.9l-11.8 17.2 6.2 9.5 16.2 1.3 3.3 10.7-4.6 11.4 8.6 9.1-6 6.3-7-3-3.5 10.5-13.4 6.4 1.9 10.6-5.8 1.5-.8 9.2-3.4-7.4-6.8 2.6-4.7-6.1-5.9-29.8-15.2-3.5-2.3 13.5 4.7.3-9.6 5.1-10.9-1.4-.3-19.5-24.1-7-3.2-6.6-5.7 3.6-6.2-4.5-3.5 10.3-12.5 2.9-8.1-7.8-4.8-15.4-4.5 2.1-2.8-9-13.8-4.2-6.7-22.3 4.8-22.2 10.5 8.4 8.4 2.7 1.2-5.8 16.9 1.6 10.7-6.4 4 5.9 7.6-1 27.3-18h.7Z"/><path id="BE-VLI" d="m426 203.1 14.1 2.7-1.3 9.5-26-10zM393.6 98.2l3.4 11.5 38 16.1-17.4 37.5 4.8 2.5-14.6 16.1 5.6 12.2-27.3 18-7.6 1-4-5.9-10.7 6.4-16.9-1.6-1.2 5.8-8.4-2.7 11.1-39.8-12.3-1.1-6.3-6.9 9.6-16.1 5.4-.7-5.2-5.3-7.8 7.2-10-4.1 4.1-8.3 32.4-15.5-6.2-14.4 3-8.4 23.3-.4 8.9-7.9 6.4 4.7Z"/><path id="BE-WLX" d="m375.3 282.7 3.5-10.3 6.2 4.5 5.7-3.6 3.2 6.6 24.1 7 .3 19.5 10.9 1.4 9.6-5.1-4.7-.3 2.3-13.5 15.2 3.5 5.9 29.8-16.6 14.4-10.1 20.1 2.3 6.4-7.9 4.1-5.2 12.4 6.3 4.1-5.7 8.6 1.8 9.1 4.4-.9 4.9 14.6 7.6 2.7-2.7 6.5 5.9 2.5-9 22.1-24.8.3-5 8.8-7.1-4.5-10.9 6.4-5.6-19.6-10.5-7-4.5 3.9 2.3-8.6-7.2-7.7-14.3-.2-9.4-13.9-16.3-7.8 2.7-10.3 17-14-19.1-21.3 9-4.9 3.1-14 1.3 6 25.1-4.1-3.5-4.1 5-5.2-9.6-11.5 24.3-14.6-.7-5.6-6 .3 6.7-4.3v-8.8Z"/><path id="BE-WNA" d="m269.3 249.7 3-5.6 8.9.6-.6-8.2 16.5 3.3 25.1-10.7 6.7 22.3 13.8 4.2 2.8 9 4.5-2.1 4.8 15.4 8.1 7.8 12.5-2.9v8.8l-6.7 4.3 6-.3.7 5.6-24.3 14.6 9.6 11.5-5 5.2 3.5 4.1-25.1 4.1-1.3-6-3.1 14-9 4.9 19.1 21.3-17 14-2.7 10.3-15.2 1.7-.6-14.8 5.3-8.6-12.8-11.9 6.7-14-2.7-5.4 9.9-14.5-9-6.4-17.3 16.8v18c-.1 0-33.7 10.8-33.7 10.8l-9.1-45.7 4.9-12.9-14.7-4.7 15-11.3 24.7-3.1 3-19.7-6-3.4.9-20.4Z"/><path id="BE-VOV" d="m224.9 82.6 11 14.3-4.2 6.2 5.5 20.4-2.2 6.1-18.1 5.1 2 12.5 6.4.7-.9 7.3-11.4 6.9 2.4 7.4h-8.8l-7 19.3 2.7 10-14.7 2.8.4 9h-7.3l-15.7-3.2-2.1-6.9-10.6 1.8-6.2 10.5-22.2-9.6 8.1-7.9-8.9-12.7 3.4-6.1-8.1-1.5 5.8-7.9-6.1-2.9 4.2-18.6-14.9-10.6 10.3-12.7-6.6-6.5 2.8-17.1 6.1 6.2 12.8-.2-1.5-8.5 9.8-3.9 24.2 8.8 1.8 10 12.5-1.8v4.7l22.6-9L225 82.5Z"/><path id="BE-VBR" d="m321.7 148.5 10 4.1 7.8-7.2 5.2 5.3-5.4.7-9.6 16.1 6.3 6.9 12.3 1.1-11.1 39.8-10.5-8.4-4.9-4.1-7.4 5.5-21.4-13-15.3 1.5-1.1 11.6-5.1-4.4-9.2 7.4-4.1-5.7-15.7 8-5-3.6-11.4 9.3-12-8.4-7.1 4.9-24.3 3.3-2.1-8.5h7.3l-.4-9 14.7-2.8-2.7-10 7-19.3h8.8l-2.4-7.3 11.4-6.9.9-7.3 18.2 1.4 1.9 7.2 24.4.9 13.1-7 1.7 5.4 12.3-8.2 3.4 5.7 21.3-4.9Zm-72.5 27.1-14 2-9 15.6 18 10.8 13.7-5.6-7.7-21.4-.9-1.3Z"/><path id="BE-VWV" d="m112.1 79.5 1.7 19.3-2.8 17.1 6.6 6.5-10.3 12.7 14.9 10.6-4.2 18.6 6.1 2.9-5.8 7.9 8.1 1.5-3.4 6.1 8.9 12.7-8.1 7.9-13 11.9-7-9.4H87.1c0-.1-3.5-7.1-3.5-7.1l-17 3.4-2.4-7.7-8.3 3.5L59 202l-15.5 4.8 2.7 8.9-9.5-4-8.6-17.2-11.4-.4-4.6-7.6-1.2-14.4 5.4-5.7-11.4-29.2 83-50.1.3-6.8 1.6 7.1v-7.3l3.9 4.8 18.3-5.5Z"/></g></svg>