<?xml version="1.0" encoding="UTF-8"?>
<svg id="Layer_1" xmlns="http://www.w3.org/2000/svg" xmlns:amcharts="http://amcharts.com/ammap" version="1.1" viewBox="0 0 512 512">
  <!-- Generator: Adobe Illustrator 29.1.0, SVG Export Plug-In . SVG Version: 2.1.0 Build 142)  -->
  <g id="_x3C_defs">
    <amcharts:ammap bottomLatitude="49.497691" leftLongitude="2.543698" projection="mercator" rightLongitude="6.408540" topLatitude="51.499939"/>
  </g>
  <g>
    <path id="BE-VAN" d="M296,52.1l7.4,4,.9,12.1-9.6,1.6,14.9-.6,4.2,4.9,14.1-19,6.5,3.1,3.4,8.1-4.2,8,8.2,16.3,13.7,2.3-.4,9h0l-3,8.4,6.2,14.4-32.4,15.5-4.1,8.3h0l-21.3,4.8-3.4-5.7-12.3,8.2-1.7-5.4-13.1,7-24.4-.9-1.9-7.2-18.2-1.4h0l-6.4-.7-2-12.5,18.1-5.1,2.2-6.1-5.5-20.4,4.2-6.2-11-14.3h0l-2.7-4.4,28,2.1-6.9-17.1,12.3-6.5,8.5-.9-.3,12.2h13.5c0,0,18.8-16,18.8-16Z"/>
    <path id="BE-WBR" d="M207.1,215.9l7.1-4.9,12,8.5,11.4-9.3,5,3.6,15.7-8,4.1,5.7,9.2-7.4,5.1,4.4,1.1-11.6,15.3-1.5,21.4,13,7.4-5.5,4.9,4.1h0l-4.8,22.2h0l-25.1,10.7-16.5-3.3.6,8.2-8.9-.6-3,5.6h0l-14.4,2.7.4-6.2-7.5-1.3-10.4,4.3-19.6-24.1-9.8,6-.8-15.1Z"/>
    <path id="BE-BRU" d="M249.6,176.5l.5.4h0l7.7,21.4-13.7,5.6-18.1-11,6.9-13.2,10.5-3.1h0l5.8-.9h0l.4.9Z"/>
    <path id="BE-WHT" d="M123.9,203.4l22.2,9.6,6.2-10.5,10.6-1.8,2.1,6.9,15.7,3.2h0l2.1,8.5,24.3-3.3h0l.8,15.1,9.8-6,19.6,24.1,10.4-4.3,7.5,1.3-.4,6.2,14.4-2.7h0l-.9,20.4,6,3.4-3,19.7-24.7,3.1-15,11.3,14.7,4.7-4.9,12.9,9.1,45.7h0l-37.7-7.5,2.4-13.9,9.1-4.3-3.9-12.9h-9.3c0-.1,10.4-28.2,10.4-28.2l-6-3.5-3.2,6.3-14.7-20.5-15.9,6.5-20.1-4.9-5.1,9.4-6.5-13.1.2-17.6-6.8-8-14,1.8,2.4-7.4-5.7-2-12.8,8.6-11-6.8-6.8-27.2,2.8-8.9-10.8-11.2h16.7c0,.1,7,9.5,7,9.5l13-11.9ZM46.4,215.7l-2.7-8.9,15.5-4.8-3.1-4.1,8.3-3.5,2.4,7.7h0l-10.3,5.9-3.9,10.5-6.2-2.9Z"/>
    <path id="BE-WLG" d="M414.2,194.2l-1.3,11h0l26,10,1.3-9.5h16.7c0,0,2.5,7.6,2.5,7.6l10-.7,7.8,19.6h11.9s-11.8,17.2-11.8,17.2l6.2,9.5,16.2,1.3,3.3,10.7-4.6,11.4,8.6,9.1-6,6.3-7-3-3.5,10.5-13.4,6.4,1.9,10.6-5.8,1.5-.8,9.2-3.4-7.4-6.8,2.6-4.7-6.1h0l-5.9-29.8-15.2-3.5-2.3,13.5,4.7.3-9.6,5.1-10.9-1.4-.3-19.5-24.1-7-3.2-6.6-5.7,3.6-6.2-4.5-3.5,10.3h0l-12.5,2.9-8.1-7.8-4.8-15.4-4.5,2.1-2.8-9-13.8-4.2-6.7-22.3h0l4.8-22.2h0l10.5,8.4h0l8.4,2.7,1.2-5.8,16.9,1.6,10.7-6.4,4,5.9,7.6-1,27.3-18h.7Z"/>
    <path id="BE-VLI" d="M426,203.1l14.1,2.7h0l-1.3,9.5-26-10h0l13.2-2.2ZM393.6,98.2l3.4,11.5,38,16.1-17.4,37.5,4.8,2.5-14.6,16.1,5.6,12.2h0l-27.3,18-7.6,1-4-5.9-10.7,6.4-16.9-1.6-1.2,5.8-8.4-2.7h0l11.1-39.8-12.3-1.1-6.3-6.9,9.6-16.1,5.4-.7-5.2-5.3-7.8,7.2-10-4.1h0l4.1-8.3,32.4-15.5-6.2-14.4,3-8.4h0l23.3-.4,8.9-7.9,6.4,4.7Z"/>
    <path id="BE-WLX" d="M375.3,282.7l3.5-10.3,6.2,4.5,5.7-3.6,3.2,6.6,24.1,7,.3,19.5,10.9,1.4,9.6-5.1-4.7-.3,2.3-13.5,15.2,3.5,5.9,29.8h0l-16.6,14.4-10.1,20.1,2.3,6.4-7.9,4.1-5.2,12.4,6.3,4.1-5.7,8.6,1.8,9.1,4.4-.9,4.9,14.6,7.6,2.7-2.7,6.5,5.9,2.5-9,22.1-24.8.3-5,8.8-7.1-4.5-10.9,6.4-5.6-19.6-10.5-7-4.5,3.9,2.3-8.6-7.2-7.7-14.3-.2-9.4-13.9-16.3-7.8h0l2.7-10.3,17-14-19.1-21.3,9-4.9,3.1-14,1.3,6,25.1-4.1-3.5-4.1,5-5.2-9.6-11.5,24.3-14.6-.7-5.6-6,.3,6.7-4.3v-8.8Z"/>
    <path id="BE-WNA" d="M269.3,249.7l3-5.6,8.9.6-.6-8.2,16.5,3.3,25.1-10.7h0l6.7,22.3,13.8,4.2,2.8,9,4.5-2.1,4.8,15.4,8.1,7.8,12.5-2.9h0v8.8c0,0-6.7,4.3-6.7,4.3l6-.3.7,5.6-24.3,14.6,9.6,11.5-5,5.2,3.5,4.1-25.1,4.1-1.3-6-3.1,14-9,4.9,19.1,21.3-17,14-2.7,10.3h0l-15.2,1.7-.6-14.8,5.3-8.6-12.8-11.9,6.7-14-2.7-5.4,9.9-14.5-9-6.4-17.3,16.8v18c-.1,0-33.7,10.8-33.7,10.8h0l-9.1-45.7,4.9-12.9-14.7-4.7,15-11.3,24.7-3.1,3-19.7-6-3.4.9-20.4Z"/>
    <path id="BE-VOV" d="M224.9,82.6l11,14.3-4.2,6.2,5.5,20.4-2.2,6.1-18.1,5.1,2,12.5,6.4.7h0l-.9,7.3-11.4,6.9,2.4,7.4h-8.8c0,0-7,19.3-7,19.3l2.7,10-14.7,2.8.4,9h-7.3l-15.7-3.2-2.1-6.9-10.6,1.8-6.2,10.5-22.2-9.6h0l8.1-7.9-8.9-12.7,3.4-6.1-8.1-1.5,5.8-7.9-6.1-2.9,4.2-18.6-14.9-10.6,10.3-12.7-6.6-6.5,2.8-17.1h0l6.1,6.2,12.8-.2-1.5-8.5,9.8-3.9,24.2,8.8,1.8,10,12.5-1.8v4.7c0,0,22.6-9,22.6-9l22.8-22.5Z"/>
    <path id="BE-VBR" d="M321.7,148.5l10,4.1,7.8-7.2,5.2,5.3-5.4.7-9.6,16.1,6.3,6.9,12.3,1.1-11.1,39.8h0l-10.5-8.4h0l-4.9-4.1-7.4,5.5-21.4-13-15.3,1.5-1.1,11.6-5.1-4.4-9.2,7.4-4.1-5.7-15.7,8-5-3.6-11.4,9.3-12-8.4-7.1,4.9h0l-24.3,3.3-2.1-8.5h7.3l-.4-9,14.7-2.8-2.7-10,7-19.3h8.8c0,0-2.4-7.3-2.4-7.3l11.4-6.9.9-7.3h0l18.2,1.4,1.9,7.2,24.4.9,13.1-7,1.7,5.4,12.3-8.2,3.4,5.7,21.3-4.9ZM249.2,175.6h0l-14,2-9,15.6,18,10.8,13.7-5.6-7.7-21.4-.9-1.3Z"/>
    <path id="BE-VWV" d="M112.1,79.5l1.7,19.3h0l-2.8,17.1,6.6,6.5-10.3,12.7,14.9,10.6-4.2,18.6,6.1,2.9-5.8,7.9,8.1,1.5-3.4,6.1,8.9,12.7-8.1,7.9h0l-13,11.9-7-9.4h-16.7c0-.1-3.5-7.1-3.5-7.1l-17,3.4h0l-2.4-7.7-8.3,3.5,3.1,4.1-15.5,4.8,2.7,8.9h0l-9.5-4-8.6-17.2-11.4-.4-4.6-7.6-1.2-14.4,5.4-5.7-11.4-29.2,83-50.1.3-6.8,1.6,7.1v-7.3s3.9,4.8,3.9,4.8l18.3-5.5Z"/>
  </g>
</svg>