<?xml version="1.0" encoding="UTF-8"?>
<svg id="Layer_1" xmlns="http://www.w3.org/2000/svg" xmlns:amcharts="http://amcharts.com/ammap" version="1.1" viewBox="0 0 512 512">
  <!-- Generator: Adobe Illustrator 29.1.0, SVG Export Plug-In . SVG Version: 2.1.0 Build 142)  -->
  <g id="_x3C_defs">
    <amcharts:ammap bottomLatitude="42.560878" leftLongitude="15.714400" projection="mercator" rightLongitude="19.625600" topLatitude="45.275910"/>
  </g>
  <g>
    <path id="BA-BIH" d="M379.5,49.7l-2.9,3.3,6.5,1.2-.2-4.8,2.6-1.8,1.5,2.9-2.4,2.6,8.7,8.2-1,4,8.5.2-1.1,5-2.7.3h0l-7.3,2.7h0l-3.5-1.3h0l-17.8-10.5h0l-7.1-8.5,4.6.4,1.1,2.9,2.2-5.2-2.1-3.5,5.1,4.8-.3-5,4.9,2.4,2.6-2.6v2.4ZM335,43.8l2.8-.3,2.3,2.6,12.2-1.5,6.4,7.9h0l-6.8,3.5.3,3.5-4.3-1.9-1.1,2.7-4-1.1h0l-2.4,4.3-3.8.8,1.1-4.6-10-5.9h0l-3.5-3.7h0l2.8-3.3-1.5-3.2,2-3,5.1-1.4,2.5,4.5ZM31.8,23.1l1.1,4.4,4.7-3.6,5.8,2.9.9,3.1-1.7,2.9,4,.3,5.3,13.4,8.5,4,9.2,8.9,1,3.5,4.6-.2h0l.9,2.9-13.2,3,8.9,21,4.6-1.1,4.9,7.8,3.5.8,6.5-9.4,11.1,4.3,7.6-1.6,3.2,1.9,3.2-1.6,3.8,6.7,10-.8,4.6,2.7,6.2,14.6-1.6,6.7,7,3.2v7.6l4.3,5.4-1.9,5.7,2.7,3-1.1,3.2-5.9,3.5-39.9-3.2-10,2.7-.3,5.1,2.8,6.6,11.4,8.6,5.1,7.8,7.6,5.1,8.4,2.2,10,10,7.3,4.3,3.8-.3,2.2,2.2-1.6,1.9,5.1,6.7,14,10.8,4.3,7.8,8.4,4,13.5-1.1,7.4-8.1-.5-17-4.3-4.3-4.3-15.9-4.3-4v-4l5.4-4.3-1.3-10,1.6-1.9,7.8,3,5.1-1.6,1.1-2.7,10.2,5.4,3.8,4,.5,4.3,7.6,2.2,1.6,3.5,16.2.8,5.9-5.1,3,.3,9.2-6.2,1.1-3.2,11.6-2.2,10.2-7.3,1.3-7.6-1.6-7-8.6-17,8.1-11.6,1.6,1.9,8.9-1.1,6.7,3-.3,6.7,2.4,4.6-1.3,1.1,3,2.4-.3,8.4,7.3-4,10.2-.5,7,3.2,13.8-2.2,3.8-4.3-4.6-4-4.3.3-4-3.8-1.1-4-9.7-4.3-4.6.3-4-3.5-2.2,1.3-1.3-8.1,12.1-4.6,8.6.5,5.9-7.3-1.3-2.4,1.3-5.4,6.7-8.9-1.1-2.2,9.7,1.1,5.9,9.2,1.1,5.7,6,.4h-.4c0,.1-3.8,2.8-3.8,2.8l-4-.3-.3,2.7,3.5,1.9-1.6,2.2,3,1.9-.3,2.7,4,4.9,7.6-.8,2.2,2.4,4.6-.3,4.6-4.9,7.3-1.3.8,3,3-2.4h0l.3-.3h0l1.6,7.6-7.6,3.2-4,8.4,2.2,6.2,6.5,4,.3,4.9,5.7,1.1,4.3,3.5,6.2-2.2,2.2-8.4,4-5.1,6.7.5,1.9,1.3-1.9,4.3.9,5-3.3,5.2,1.8,1.5-1.4,4.9-2.4-.5v4.8l-3.5.7-4.4,10.3-4.1-1.4-3.3,1.4-1,4.4-14.6,12.1,1.6,12.8,2.4,6.4,3.5,3-1.6,2,1.1,5.4-4.9,3.7.3,1.6-7.5,1.9-2.4,3.8-11.6,7.5-1,4.2-8.2,9.9-6.9,15.2,1,4.1-4.5,6.9-7.1-3.4-2.7,1.4-6,7.9.4,3,4.2,1.8.7,4.4,5.2,5,19.3-.3,2.2,4.2,6.7,3.9,3.4-2,4.5,1.4,7.9-14,4.8-2.7,9.9,1.1,4.6-2,2.4,1.4.3,5.6,3.3,1.4,3.7,7.6,1.9-.7,3,4.1-13.1,9.7-1.8,3.9-14.2,4.8-17.3-9.3-4.6-.7-5.3,2.4-6.9-7.3-2.1,1.2-8-5.7-6.7,8.3-1,7.1-5.7,6.5,1.9,2.3-1.6,10.1-2.4-1.2-4.6,2.6-5.7-2.3-5.2,1.8-4.2-3.2-1.9,2.7-17.3-1.8-5.4,5,1.4,5.4-4.2,6.5,1.1,4.9,6.4,3.5-.8,11.3-3.3,7.5-7.2,4.9-3.3,4.9,5.2,6.9v5c-.1,0,4.8-.3,4.8-.3l3.7,6.9-8.4,7.9-2,9.1,6.8,12.5,1.2,8.7,3.5.5,6.5,6.9,6.4,6.9,1,4.4,7.3,2.4,6.1,10.9,9.1,8.6h0l-6.4,3.2-9.1-10.8-3.5.4-1.5-4.1-5.3-1.5v-4.2c.1,0-8.1-6.2-8.1-6.2l-4.3-.9-1.6-3.8-5.8-3.6-7.5-2,.7-4.1-3-1-2.7-10.3-4.5-3.8-3.6,5-7.5-5.3-4.4-.8-5.4,6.6-12.7-8,9.2,3.4-5.8-4.5,17.2-6.1-9.3-20.1-26.7-16.2.4-4-6.2-7.8-6.7-1.2-1-5.6-9.9-18.6,3.4-7-.6-7.4-6.5-6-10.4.4-9.6-9.2-3.9.3-31.3-38.1-7.8-3.5-3.4-5.5-1.1-7.4-20.8-17.3-5.2-12.4-8-.9-1.6-9.1-7.4.2-5.7-10.2-7.1-6.1-4.6-7.5-3-25.7-10.9-3.8-.6-3.1,6.2-.9-4-9,1.6-5-2.1-6-12.5-6.7-2.8-5.7,4-1-.3-3.3,2.4-.3-3.1-7.5-7.3-3.6-2.5-7-4.4-1.9-3.2-4.5-10.4,4.5-13.2-17.4,9-5.2-4.3-4.1-1.5-9.1,1.6-8.4,4.5-1.1-.2-5.8-5-10.6,4.7-9.1-2.7-9.6,10.2-10.7,6.8,1.3v-2s4.2.1,4.2.1Z"/>
    <path id="BA-SRP" d="M454.6,83.1l5.3-2.9,3.3,1.7,3.2-.9,7.8,3.4,2.7,4.6-2.1,2.7-2.3-.6,1.3,2.5-2.3,3h-3.3c0,0-.2,4.6-.2,4.6l-2.7,1.6,4.2,1.9-3.5,1.5,3.2,4.8-1,1.7-2.3-.8,1.3,6.8-4.4,2.2-3.2,9.8-4,3.7.3,2.9-4.1,2-1.4,3,1.9,2.7-3,4.8-5.7.4-1.3,3.8,3.7,8.4v6.7s-4.9,4-4.9,4l-.8,4.4,1.8,1-.3,4.1,2.5.9-.5,3.9,4.1,5.4,6.1-.7,3.6,5.2,5.4-2.6,5.7.9,4.7,15.7,6.1,2.5,1.4,4.4,3.3,2,4-2.9-.6,5.2,2.7.7,2.2,5.6,5.7,2.3,2.5,4.1,2-4.1,2.1,3.5,2.5.2-.4,6.1-7.2,3,.3,2.5-5.5,5.2-17.4-.7-4.7-3.9-15.3-5.7,3,9.7,8.7,8.1.5,4.3,7.9,8.5,1.5,8.9,6.8,3.6,1.1,3.7,5.7,4.8,2.5,15.2-1.8,1.7-1.6-1.9-1.5,1.2,1.5,2.9-1.1,3.3,2,1.6-11.9,3.6-5.5-6.8-4.8,2.2-7.8-1.6-2.6,1.5-.9,11.1-10.2-2.2-5.2,3.9-9.5-7.3-5.2,1.1-1.2-1.5-3.2,4.9-4.5,1.5.4,3.9,3.4-2,.7,10.2,2.8,2.9,1.7-.7,3.4,12.2,6.9,10.3-.2,6.4-5.8,1.2-4.5,5.6-3.5-3.3v-3c0,0-3.8-1.8-3.8-1.8l.5-7-6.3-5.4-8.9,2.1,2,5-8,2.3-12.9,8.8,3.2,5.7-7.8,10.9-1.4,6.5,6.7,18.7-6.4,2-12.7-2-8.5,14.6,3.3,8.4-3.8,7.4,1.3,7.9-3.1,1.5.9,6,5.5,6.1,5.3-.5,1.7,2.1-1.4,3.4,1.3,8-9.5,3.4,5.7,6.4-5,.7-2.8,3.9-5.4.7-9.7-10.5-7.8.9h0l-9.1-8.6-6.1-10.9-7.3-2.4-1-4.4-6.4-6.9-6.5-6.9-3.5-.5-1.2-8.7-6.8-12.5,2-9.1,8.4-7.9-3.7-6.9-4.9.3v-5c.1,0-5-6.9-5-6.9l3.3-4.9,7.2-4.9,3.3-7.5.8-11.3-6.4-3.5-1.1-4.9,4.2-6.5-1.4-5.4,5.4-5,17.3,1.8,1.9-2.7,4.2,3.2,5.2-1.8,5.7,2.3,4.6-2.6,2.4,1.2,1.6-10.1-1.9-2.3,5.7-6.5,1-7.1,6.7-8.3,8,5.7,2.1-1.2,6.9,7.3,5.3-2.4,4.6.7,17.3,9.3,14.2-4.8,1.8-3.9,13.1-9.7-3-4.1-1.9.7-3.7-7.6-3.3-1.4-.3-5.6-2.4-1.4-4.6,2-9.9-1.1-4.8,2.7-7.9,14-4.5-1.4-3.4,2-6.7-3.9-2.2-4.2-19.3.3-5.2-5-.7-4.4-4.2-1.8-.4-3,6-7.9,2.7-1.4,7.1,3.4,4.5-6.9-1-4.1,6.9-15.2,8.2-9.9,1-4.2,11.6-7.5,2.4-3.8,7.5-1.9-.3-1.6,4.9-3.7-1.1-5.4,1.6-2-3.5-3-2.4-6.4-1.6-12.8,14.6-12.1,1-4.4,3.3-1.4,4.1,1.4,4.4-10.3,3.5-.7v-4.8l2.4.5,1.4-4.9-1.8-1.5,3.3-5.2-.9-5,1.9-4.3-1.9-1.3-6.7-.5-4,5.1-2.2,8.4-6.2,2.2-4.3-3.5-5.7-1.1-.3-4.9-6.5-4-2.2-6.2,4-8.4,7.6-3.2-1.6-7.6h0l1.1-1.3h0v-2.7l2.4-.5,8.6,1.9,3-1.9,2.7-7.8,3.5-1.6,2.4,3.2,2.4-3.2-3-1.3v-2.8h-.1l10-1.7,14.3-10.8,2.7.5,1.9,4ZM162,22.5l4.8.9-.6-4.3,2.9,5.3,1.6-3.1,2,.4-1.4,3.8,3.3-1.9,1.9,4.3,16.5,9.9h8.7c0,0,3.4-7.6,3.4-7.6l1.6,2.3,3-.4.2,2.2h2.2c0-.1,0,2.5,0,2.5l4.3,2.6,7,.6,4.1-4.6.4,6,5.3-1.6-1.1,4.9h5.9s2.3-3.8,2.3-3.8l.7,3.8,2.8-1.2,2.8,1.6,9.2-5.1,23,16.3,11.4-6.7-.5-4.9,4.2-1.4,4.9-6.5,4,4.8,1.6-3h2.8s2.1,3.9,2.1,3.9l-1.9,2.3,5.3,4.6,11.1.6h0l3.5,3.7h0l10,5.9-1.1,4.6,3.8-.8,2.4-4.3h0l4,1.1,1.1-2.7,4.3,1.9-.3-3.5,6.8-3.5h0l9.6,9.2h0l17.8,10.5h0l3.1,1.2h0l-2,4.7-8.1,5.9-4.3,10.2h0l-2.6,1h0l-6-.4-1.1-5.7-5.9-9.2-9.7-1.1,1.1,2.2-6.7,8.9-1.3,5.4,1.3,2.4-5.9,7.3-8.6-.5-12.1,4.6,1.3,8.1,2.2-1.3,4,3.5,4.6-.3,9.7,4.3,1.1,4,4,3.8,4.3-.3,4.6,4-3.8,4.3-13.8,2.2-7-3.2-10.2.5-7.3,4,.3-8.4-3-2.4,1.3-1.1-2.4-4.6.3-6.7-6.7-3-8.9,1.1-1.6-1.9-8.1,11.6,8.6,17,1.6,7-1.3,7.6-10.2,7.3-11.6,2.2-1.1,3.2-9.2,6.2-3-.3-5.9,5.1-16.2-.8-1.6-3.5-7.6-2.2-.5-4.3-3.8-4-10.2-5.4-1.1,2.7-5.1,1.6-7.8-3-1.6,1.9,1.3,10-5.4,4.3v4l4.3,4,4.3,15.9,4.3,4.3.5,17-7.4,8.1-13.5,1.1-8.4-4-4.3-7.8-14-10.8-5.1-6.7,1.6-1.9-2.2-2.2-3.8.3-7.3-4.3-10-10-8.4-2.2-7.6-5.1-5.1-7.8-11.4-8.6-2.8-6.6.3-5.1,10-2.7,39.9,3.2,5.9-3.5,1.1-3.2-2.7-3,1.9-5.7-4.3-5.4v-7.6l-7-3.2,1.6-6.7-6.2-14.6-4.6-2.7-10,.8-3.8-6.7-3.2,1.6-3.2-1.9-7.6,1.6-11.1-4.3-6.5,9.4-3.5-.8-4.9-7.8-4.6,1.1-8.9-21,13.2-3-.9-2.9h0l1.8,1.9,9.9-.4.3-5.2,6-10.8-1-4,8.7-5.5,1.4-7.2,4.9-7.2,11.2-1.5,12.2,6.2,4.7-1.9,10.7,4.1,3.7-1.7-.2-6.7,4.8-.2,6.8-8.1,2.8,3.5-2.2,4.5Z"/>
    <path id="BA-BRC" d="M425.6,91.2v2.8c.1,0,3.1,1.3,3.1,1.3l-2.4,3.2-2.4-3.2-3.5,1.6-2.7,7.8-3,1.9-8.6-1.9-2.4.5v2.7h0l-1.3,1.6h0l-3,2.4-.8-3-7.3,1.3-4.6,4.9-4.6.3-2.2-2.4-7.6.8-4.1-4.9.3-2.7-3-1.9,1.6-2.2-3.5-1.9.3-2.7,4.1.3,3.8-2.7h0l3-1.1h0l4.3-10.2,8.1-5.9,2-4.7h0l.4.2h0l7.3-2.7h0l2.7-.3,2.6,4.2-1.8,1.5-5.1-1.2,2.6,3.7-1.1,2.7,10.2,8.8,18.6.9Z"/>
  </g>
</svg>