<?xml version="1.0" encoding="UTF-8"?>
<svg id="Layer_1" xmlns="http://www.w3.org/2000/svg" xmlns:amcharts="http://amcharts.com/ammap" version="1.1" viewBox="0 0 512 512">
  <!-- Generator: Adobe Illustrator 29.1.0, SVG Export Plug-In . SVG Version: 2.1.0 Build 142)  -->
  <g id="_x3C_defs">
    <amcharts:ammap bottomLatitude="41.235569" leftLongitude="22.356421" projection="mercator" rightLongitude="28.610539" topLatitude="44.212643"/>
  </g>
  <g>
    <path id="BG-01" d="M95.9,327.1l4.8-.2,2.1-1.7,3.2-9.5h5.4l1.6,3.1,2.8,1.3,2.1-.6-.7-3.1h2.2l-.6,4.1,1.8,1.1.9,9.3,1.9,1.5-3.2,1.9-2.9,3.8,2,14.1,1.9,2.2,4.9,1.7,8.5,5.5,10.9,10h0l.9,1.9-2.6,3.6-1.6,10h0l.9,6.2-1.9,1.5h-1.9c0-.1-.7-1.6-.7-1.6l-3.6,3.1-4.8-4.5-1.7,3.2-7.3,1.4-2.8,4.3-7.4-1.5-2.4,3.3-2.3.4-3-1.6-2.4.3-1.8-1.9-7.1-.2-2.7.5-4.9,3.9-1.6-3.7h-3.1c0,0-4.1,2.6-4.1,2.6v2.8c-.1,0-2.1,2.6-2.1,2.6l-5.4,1.2h-4.3c0-.1-4.5-2.3-4.5-2.3l-7.1-.5,2-1.7v-4.2c.1,0-1-2.5-1-2.5l2.1-3-1.6-5.1,1.1-7.1-1.6-2.8-.3-4.9.9-1.4h2.1c0-.1.7-2.8.7-2.8l3.2-4.1-1.9-6-3.6-.8-2.2-7.8-1.7-3.1h-1.1c0,0-.6-4.3-.6-4.3l-1.6-2.2-.5-8.4h0l3.2-1.5,1.7-7.9,1.5-1.1,2,4.9h3.1c0-.1,1.8,2.3,1.8,2.3l7.8-1.9,5-3.8,12.8,3.6,2.5,1.8,5.5-1.5,2.5-2.3Z"/>
    <path id="BG-02" d="M385.8,235.2l4.9-2.7,8.1.8,11.8,8.1,4.6-.6,1.9,1.3,3.6-2.4,12,1.1,1.9.6-.2,2.1,4,2.4,3.4.8,6.5-1.1h0l1.4,7.1-.9,2.3.7,5.5-13.6-.8-1.3,3.6,2.4,1.7h-1.7c0,.1-.7,1.5-.7,1.5l-1.5-.6-1.2,1.6-2.3-.2-1.1,1.7v4.9s1.3,2.5,1.3,2.5l-2.7-1.1h-2.7c0,.1-1.9,1.5-1.9,1.5l-3.3-.5-2.2,3-.6,4.7-2.1-.4-.7,2.7,1.4,1.4.2,2.6.9-3.9,2.9,3.5,1.9-3,3.2,1.2.5-1.9,1.9,2,1.3-.3v-1.3c.1,0,.9,1.2.9,1.2l1.1-.3-.5,3,1.2,1.3,1.2.2,1.9-1.9.5,1.8h2c0,0-1.7,1.3-1.7,1.3l1.2,2.1-.9,1.7,2.1,3.7,3.8-.8-1,1.7,1.7,1.5-3.1,2.2.8,2.4-1,.3v1.6s6.9,6,6.9,6l1.6,2.1-.5.8,3.4,2.5,1.5,3.4,2.6.8,1.8,4.5h1.8c0,0,3.5,8.3,3.5,8.3l-2.1.6-2.5-1.2-1.4,1.4-2.1-.9-1.8,1.3-1-2.1-3.2-1.4-.3,1.5-.4-1.2-.5,1.3-1.1-.8-1,1.3,1.3,4.1-1.7-.7v1.3s-.9-1.1-.9-1.1h-2l.6-1.2-3.4-.4-.4-1.2-3.1.2.4.7h-1.4s-1.1,1.6-1.1,1.6l-4-.4.6.9-1.2,1.1-.8-.8-1.3,1.7-1.2-.6v1.9c.1,0-.9.5-.9.5l.8,1-.9.2-4.1-5.9h-3.2s-3.1-3.4-3.1-3.4l-3.2-1.5-2.1-5.5-2.5-.3-.8-2.3-2.7-1.8-4.2-.8-1.4.7-1.9,2.1.2,2.1-1.6-1.1-4,.3-1.8-2.1-3.3-.7-2.4,1.1h0l-8.2-7.9-.3-1.7,2.3-2.7-2-5.1,1.3-4.1-6.4-7.2-.8-3.5,1-1.2,5.9-1,1.6-3.9-5.8-.5-10.4-20.1-6.7-7.7h0l.3-3-2.4-4.5-4.4-1.4-2.2-2.7.9-4.9-1.3-7.9h-2.5s5.1-.2,5.1-.2l.4,3.2h6.2c0,0,5.2-3.7,5.2-3.7l6.6-.3,3.2,1.3,4.5-.9,4.1,3.1,5.9-3.2,4-.5Z"/>
    <path id="BG-03" d="M411.6,163.3l4.6,4.5,1.4,5.4h2s4.7-3.9,4.7-3.9l1.7-.2,1.5,1.4v4.2s4.3,2.1,4.3,2.1l4.3-.2,10,13,4.7-4.6,3.4.2,7.8,9h0l-4,9.7-5,1-1.7,2.6-1.3-.8.9.3v2c-.1,0,2.4.6,2.4.6l-2.7,11.6-1.9,2.6,1.3,11.9-.3,8.1-1.6,2h0l-6.5,1.1-3.4-.8-4-2.4.2-2.1-1.9-.6-12-1.1-3.6,2.4-1.9-1.3-4.6.6-11.8-8.1-8.1-.8-4.9,2.7h0l.2-3.2-4.1-4.6,2.2-2.1,11.1-2.4-1.3-7.2-2-2.2.8-3.1,7.4-4.3-2.9-11.5.4-1,2.3.7,1.6-1.4-.8-8.9,4.2-6.3-.4-1.4-1.5-.3,1.6-4.1-2.2-1v-2.9s7.8-2.5,7.8-2.5l1.6-2.3Z"/>
    <path id="BG-04" d="M248,160.1l5-1.1h0l1.9,1.6,2.1-1,.3,2-1.6,3.1,3,7.5,4.2,4-1.2,5.1,8.1,4.4,3.7-2.1,6,4.3,3.7-.2,4.7,1.9,3.8-1.5,1.5,3.7,4.1.9h0l5.4,5.2-.8,2.4,4.3,5.7v1.4s-2.6,1.8-2.6,1.8l-1.6,5,.4,8.3,3.5,3.7-3,3.9,9.1,3.2h0l-2.2,3.3-9.4,5,.3,4.6-5.6,4.4-4.6-1.2-4.8,1.2-4.3-.8h0l-5.4-.4-7.7,3.6h0l-2.4-1.9-1.8-5.1,3.2-2.9.3-1.7-1.7-.8v-3c0,0-3.5-.4-3.5-.4l-1.6-1.8v-3.9c0,0,3.4-3.2,3.4-3.2l-.5-2.3-5.4-2.7-5.1-1.1-2.7.6-2-1.7-5.7.3-.6-1.7,1.1-3.5-.8-1-6.3,1.9-5.1-1.3-5-4.9-.4-3.2h0l2.8-.5v-3.1c0,0,2.4-3.4,2.4-3.4l.2-2.8h0l5.9-6,.9-2.9-.6-1.7-3.2-.6.9-5.4-5.7.6-1.1-1.7.9-1.5,5.4-2.5,1.1-6.8-2-3.3,1.4-5.2-1-3.3,4.7-3.9h0l6.6,5.6,3,.9Z"/>
    <path id="BG-05" d="M31.3,94.2l5.3,1.6,5,4.7,9.1,5.7,8.4,1.5,1.2,1.1.3,3.1-2.8,4.7-6.4,1.1-4,2.6-3.2,10.7,1.2,3.8,1.7,1.6,14.2,4.3h0l-1.5,1.8-6.6.9.3,2.3,6.9,2.7.9,2.8-10.5,4.7-3.3,8.7-2.9,2.9-2.5,5.8-3.5,2.3-.4,5.1-3,4.3h0l-4.1-.2-1.6-3.6-4.9-1-1.8-2.9-3.3-.9-3.7-10.2.4-4.1-1.1-2.3.9-1.9-6.7-6.4-1.1-3.6.5-3.2-3.5-5.8,2.3-6.4.2-6.3,1.6-1.5.2-7.2,2.8-1.4,6.8-.4,1.2-1.5-.8-1.9,7-1.4-.8-4.9,1.4-5.6-1.2-.9,1.7-1.1-.6-1,1-.2.4-2.6,2.8-.4Z"/>
    <path id="BG-06" d="M131.1,146.1l3.9.2,16.1,6.8,13.7-1.7h0l-1.7,7.8-1.4-.9-.3,1.7-1.5-2.1h-1.4c0,0-4.7,6-4.7,6l-2.6-1.1-1.1.7,1.4,10.6,5.7,2.4-1.3,5.6-8.5,1.1-1.5,4.3-9,.8-1.9,1.4-1.5,12.5,1.7,1.6,3.3-1,1.6,2h0l.8,10.3h-4.4s0,5.4,0,5.4h0l-.8,3.3-3.9-2-7.8-.2-2.1-1.5-7.7,3.5-4.1-2-8,7.1-2.2-1.4-4.8-7.4-.7-4.2,2.9-5.4-7.1-1.2h0l-.9-4.3,1.1-1.4h3s.2-2.8.2-2.8l-2.7-1.8-5.6-1.2-2-2.6,4.3-4.4,3.1-6.1-.5-5.6,3.2-5.1,1.5-.7,6.8,1.4,2.2-3.4h3.8l-.5-2.7-3.9-3.9,5.2-9.4-.6-14.1h0l7.4-1.2,9.5,5,6,1.4Z"/>
    <path id="BG-07" d="M225.4,207.8l.4,3.2,5,4.9,5.1,1.3,6.3-1.9.8,1-1.1,3.5.6,1.7,5.7-.3,2,1.7,2.7-.6,5.1,1.1,5.4,2.7.5,2.3-3.3,3.2v3.9c0,0,1.6,1.8,1.6,1.8l3.5.4v3c0,0,1.7.8,1.7.8l-.3,1.7-3.2,2.9,1.8,5.1,2.4,1.9h0l-.2,1.4-1.9.8-2.6-2.3-3.9,2-2.9-.7-2.4-2.4-2.6-.2.4,3-.9.8-9.8-2.7-3,.5-5.1-3.1-8.7,4.1-5.9-.7h0l.4-3.3-2.3-4.6-3.7-5-4-2-1.4-8,2.4-5.2,3.7-1.3-.8-8,3.1-3.4-.2-7.3,9.4,2.4Z"/>
    <path id="BG-08" d="M453.6,122.4l3.5,12.8,9.4,4.9,10,4.5,8.9.7,8,2.1,10.7-.6v3.7s-1.2,1.8-1.2,1.8l1.2,5.4-.8,4.2,3.3,6.6-4.3,10.1-4.7,4.2-2.5,5.4-1.5-2.3-9-3.8-10.9,2.1-3.4-.9-5.2,3.5-2.8,7.2h0l-7.8-9-3.4-.2-4.7,4.6-10-13-4.3.2-4.2-2.1v-4.2s-1.5-1.4-1.5-1.4l-1.7.2-4.7,3.9h-2s-1.4-5.3-1.4-5.3l-4.6-4.5h0l-2.1-3.9-5.7,3.3-1.2-.5-3.5-4.9-3.7-.5-2-2.4h0l1.6-.9-.9-5,5.7-6.5,4.7-1,7.9-7.5,2.6,1.7,1.6-.3,4.1-7,2,2.2,2.5.3v-2.3s3.1-4.4,3.1-4.4l5.7-2.8h0l2.5,1.9,8.7-1.4,5.8-4.6,2.2,2.7.5,2.8Z"/>
    <path id="BG-09" d="M240.1,342.9l-1.1,3.6,2.5,10.1,4.5-4.2,1.9,4.6,6,3.4,6.9,2.1,4.8-1.4,1.8,2.3,2.4,8.2-1.1,3.7.8,2.1,2-1.3,3.1,1.4,4.5-4.1,4.8.6,1.4,4.4-3.4,2.7-1.5,7.1,4.2,3.4-.5,5.5,6.9,6.6,1.2,4.9h0l-4.2,1.6-1.1-.9.2-1.6-3.8-2-3.6,2.7-4.7.4-1,2.8-4-2.4-3.6,1-4.2-1.4-2.4,4.2-4.4-1.1-3.8,2.4-4.8.5-2.5,2-3-.4-1,1.1-4.2-1.3-.9-3.5-4.2-3.5h0l.3-1.9-1.7-.9-1-4.7,3.1-3.9-2.5-1.1,1.1-3.8-.6-2-3.1-2.1-4.5,2.2-4.1-1.5-1.5-6.7.7-2.6,5.9-2.1,1.7-2,.8-8.9-2-8.3h0l4.7-3.8,4.4-7.8,7.6-4.5Z"/>
    <path id="BG-10" d="M14.9,262.9l3.3,2.7,4.9,1.6,3,7.8,4.6,2.4.3,5.2,3.4,5.4,1,3.7,4.7.8,1.7,2.6h2.3l.4,2.2,2.4-1.4,3.4,2,1-3,2.7-.9,1.8-2.3,5.6,3.5,2.6-.4,2.5-3.2.9,3.6,4.7,2.7,2.5.4,2.4-1.9h0l6.9,1.3,1.9,5.8,5.4,4.3v1.1l-4,1.5-2,4.9,1.5,1.3,5.4-1.8,1.4,4.6,5.8,2.5-.2,2-3.2,3h0l-2.5,2.3-5.5,1.5-2.5-1.8-12.8-3.6-5,3.8-7.8,1.9-1.8-2.4h-3.1c0,.1-2-4.8-2-4.8l-1.5,1.1-1.7,7.9-3.2,1.5h0l-1.3-1.1-2.2.4-2-2.5-1.9.8-3.4-.9-1.6-2.3-3.2.3-8.7-5.6-4.4-3.8-.8-4.5-2.6-.9-1.7-4.4-7-7.6,3.5-2,2.2.9,1.6-1.1,2-6.5,3.3-.6,3.1-8.8-3-5.1-4.1-3.7-2.5-.6,2.9-12.1Z"/>
    <path id="BG-11" d="M140.1,204.8l5.7-1.1,5.3-2.8,5.2,1.4,5-.5,4.8-1.5,2.8-2.9.9,1.8,2.3.5,2.8,2.7,14.3,1.8.9-5.8,2.6,2.8,2-3.6,6.9-4.4,3.7.2,6,2.9,4.1-1.4,3-2.9,2-4.5,1.2.4,2.5,6.3,6.4,3.8h0l-.2,2.8-2.3,3.4v3.1c0,0-2.9.5-2.9.5h0l-9.4-2.4.2,7.3-3.1,3.4.8,8-3.7,1.3-2.4,5.2,1.4,8,4,2,3.7,5,2.3,4.6-.4,3.3h0l-7.9,3.5-5.1-1.5-7.5,1.2-2.2-.6-1.9-3.6-3.5-2.7-10.5-1.2-3,3.7h-7.6c0,.1-8.1-2.2-8.1-2.2l-10.1-.7,3.3-5.6-2.1-1.6-.3-3.9-2.6-1.8,2.6-2.6-5.6-3-.7-5.1-4-2-.5-2.9-5-.3h0v-5.5c0,0,4.4,0,4.4,0l-.8-10.3Z"/>
    <path id="BG-12" d="M91.3,134.6l7,1.8,5.5,4.2,4.4.4h0l.6,14.1-5.2,9.4,3.9,3.9.5,2.7h-3.8l-2.2,3.4-6.8-1.4-1.5.7-3.2,5.1.5,5.6-3.1,6.1-4.3,4.4,2,2.6,5.6,1.2,2.7,1.8-.2,2.8h-3s-1.1,1.4-1.1,1.4l.9,4.3h0l-5.2-.3-3.6,3.9-15.9,1.1-9.7-9.3-3.7,1.1h0l-3.4-2.4-2.3-4.5-1.6-.9-1.8-6-7.7-6.8h0l3-4.3.4-5.1,3.5-2.3,2.5-5.8,2.9-2.9,3.3-8.7,10.5-4.7-.9-2.8-6.9-2.7-.3-2.3,6.6-.9,1.5-1.8h0l7.2-1.3,10.3-4.3,12.4-.5Z"/>
    <path id="BG-13" d="M119.4,316.4l6.4-4.9,4.2-5.6,1.8,2.2,2.6-1.4-1.2-3.8,1.6-5.1,5.9-2.5,3-6.3-1.2-2.6-4.1,1.8-2.9-.9-3.1-4.9-.7-7.5,4.7-1,5.2,2.4,4.9-5.4h3.9c0,0,.9-4,.9-4l7.2-1.9,5,2,2.6,7.9,2.4-1.4,2.1,1.9h0l-.5,3.8-2.6,2.8-.5,2.2,3.4,10.7,3.7,4,.2,3.3-1.5,1.3,1.4,8.9,4.3,7.5-.6,1-4.2.8-1.3,7.1.5,8.1-2.1,6.5h0l-1.1,5.7-4.8,2.9-2,2.6.2,7-4.8,3.2-4.8-1.2-7.3,1-1,6.5h0l-10.9-10-8.5-5.5-4.9-1.7-1.9-2.2-2-14.1,2.9-3.8,3.2-1.9-1.9-1.5-.9-9.3-1.8-1.1.6-4.1Z"/>
    <path id="BG-14" d="M26.8,239.6l4.6,2.9,1.3-1.8h3.5c0-.1,1-1.2,1-1.2h0l1.5,3.7,3.3-.2,2.6,4.3,9.8,3.4,1.6,2.6,4.4,1.9,1.1,1.7h0l5.2,6.1,3.3,2,1,5.3-.8,1.8,3.7.6,3.1,4.6,2.1-.4.2,1.3h0l-3.2,7.5.9,10.9h0l-2.4,1.9-2.5-.4-4.7-2.7-.9-3.6-2.5,3.2-2.6.4-5.6-3.5-1.8,2.3-2.7.9-1,3-3.4-2-2.4,1.4-.4-2.2h-2.3l-1.7-2.6-4.7-.8-1-3.7-3.4-5.4-.3-5.2-4.6-2.4-3-7.8-4.9-1.6-3.3-2.7h0l-1.1-1.1,3-3.7.2-2-3.2-4-1.6-5,5.2-2.9,2.2-3.3,3.2,1.8.8-3,3.1-.2Z"/>
    <path id="BG-15" d="M196,153l5.8-2.9,6.4.4,6-2.6,3.1.3,4.6,3.8,3.5.9,6.6-1.6,6.3,2.2h0l-4.7,3.9,1,3.3-1.4,5.2,2,3.3-1.1,6.8-5.4,2.5-.9,1.5,1.1,1.7,5.7-.6-.9,5.4,3.2.6.6,1.7-.9,2.9-5.9,6h0l-6.4-3.8-2.5-6.3-1.2-.4-2,4.5-3,2.9-4.1,1.4-6-2.9-3.7-.2-6.9,4.4-2,3.6-2.6-2.8-.9,5.8-14.3-1.8-2.8-2.7-2.3-.5-.9-1.8-2.8,2.9-4.8,1.5-5,.5-5.2-1.4-5.3,2.8-5.7,1.1h0l-1.6-2-3.3,1-1.7-1.6,1.5-12.5,1.9-1.4,9-.8,1.5-4.3,8.5-1.1,1.3-5.6-5.7-2.4-1.4-10.6,1.1-.7,2.6,1.1,4.7-5.9h1.4c0,0,1.5,2,1.5,2l.3-1.7,1.4.9,1.7-7.8h0l4.9-4.2,8.4-3,9.5,2.3,4.9,4.7,3.5,1.7Z"/>
    <path id="BG-16" d="M169.7,252.3h7.6c0-.1,3-3.9,3-3.9l10.5,1.2,3.5,2.7,1.9,3.6,2.2.6,7.5-1.2,5.1,1.5,7.9-3.5h0l-.8,1.9.4,9.6-2.6,5.8,1.4,6.1,2.4,4.3,2.8,1.1,8.5-2.9,1.9,2.9-.3,2.1-3.4,3.4,2.3,5.2-3.4-.8-.6,1.3v10s3.8,2.8,3.8,2.8l-8.1,3.5-.5,7,5.8,3.2,7.7-1.3,3.1-2,5.7,6.6h0l-3.3,8.5.3,8.6-2.1,2.6h0l-7.6,4.5-4.4,7.8-4.7,3.8h0l-4.8-4.8-1.5,1.4-.2,5.4-3.1,3.6-5.6-.2-5,5.7-2.5-5.4,1.1-4.1-1.1-1.9-1.3,1.1-1.1-2,2-5.7-1.7-3.4-8.5-1.3-9.3,2.6-3.9-5-2.2.2-3.5-1.5h0l2.1-6.5-.5-8.1,1.3-7.1,4.2-.8.6-1-4.3-7.5-1.4-8.9,1.5-1.3-.2-3.3-3.7-4-3.4-10.7.5-2.2,2.6-2.8.5-3.8h0l4.7-.8,1.9-5-4.2-4.1-6.4-3.5-.3-2.6,3.2-7.4Z"/>
    <path id="BG-17" d="M326.8,124.7l7.5.5,1.9,3.1,5.5-.7,2,2.7.6,3.5,10.4,3.1,2.2-.5,1,1.8,3.5-2.8,3.1,3.8,3.6,1.1,2.3,4.4,2.9.3,1.1,3.3,3.4,3.2h0l.8,3.8-1.2,1.8-3.5,1.7-2.6,3.3-4.7-1.3-.8,3.5-4.7,4,.3,5-5.3,5.2.3,2.9,4,3.4-3.5,3.6h0l-4.3.3-1.6-1.4-1.8,3.6-4.6-.4-4.4-1.9-3.9,1.8-2.4-.4.3,1.7-3.3,4.4v2.1c-.1,0-3.5,1.6-3.5,1.6l-1-1.6,1.1-2.2-1.1-1.7-2.6-.9-.6-2,8-6.4.5-5.2-4.3-1-2-5.2-3.3-.7-5.4-5.3-2.7.5-1.9,2.6h-5.9c0,0-1.4-.9-1.4-.9h0l-2.9-5.7.3-2.7,5.4-1.4,3.5-4.3,3,.7,5.7,4.4,7-2.3,4.5,1,4.8-.6,2.7-4.1v-5.6s-2.9-4.7-2.9-4.7l-3.3-.6-3-2.7-2.6,1.3-.6-1-3.6.6-4.1-1.4v-2.4c0,0,3.1-2.4,3.1-2.4l2.4-7.2,2.7-3.8Z"/>
    <path id="BG-18" d="M324.1,114.4l.9,3.7,3.4,3.3-1.6,3.4h0l-2.7,3.8-2.4,7.2-3,2.4v2.4c0,0,4,1.4,4,1.4l3.6-.6.6,1,2.6-1.3,3,2.7,3.3.6,2.9,4.7v5.6s-2.7,4.1-2.7,4.1l-4.8.6-4.5-1-7,2.3-5.7-4.4-3-.7-3.5,4.3-5.4,1.4-.3,2.7,2.9,5.7h0l-5.2,2.5-1.4,7-4.7,6,4.1,3.5-.4,4h0l-4.1-.9-1.5-3.7-3.8,1.5-4.7-1.9-3.7.2-6-4.3-3.7,2.1-8.1-4.4,1.2-5.1-4.2-4-3-7.5,1.6-3.1-.3-2-2.1,1-1.9-1.6h0l3.1-1.6h6c0-.1,8.1-5,8.1-5l5.7-.2,4.2-2.2,2.3-4,5.4-3.6,6-9.2,8.3-5.1,4.1-6.6,3.3-2h4.2s10.5-5.1,10.5-5.1Z"/>
    <path id="BG-19" d="M385.1,102.8l2.7-.2,6,2.5,5.4-.9,1.7,5.8,5.3,1.9,3.5,5,5.8-1.1,11.2,1.1,2.6-4,2.4,2,2.4,6.1h0l-5.7,2.8-3.1,4.4v2.3s-2.5-.3-2.5-.3l-2-2.2-4.1,7-1.6.3-2.6-1.7-7.9,7.5-4.7,1-5.7,6.5.9,5-1.6.9h-3.5c0,.1-4.5-5.4-4.5-5.4l-7.3,2.5h0l-3.4-3.2-1.1-3.3-2.9-.3-2.3-4.4-3.6-1.1-3.1-3.8-3.5,2.8-1-1.8-2.2.5-10.4-3.1-.6-3.5-2-2.7-5.5.7-1.9-3.1-7.5-.5h0l1.6-3.4-3.4-3.3-.9-3.7h0l4-1.1,4.8.9,7.4-2.1,5.1.3,7.5-2.6,5.2-.2,12-6.2,6.7-.2,5.8-1.7,2.5,1.3Z"/>
    <path id="BG-20" d="M311.9,233.3l4.1-3.5,1.6-4.8,4.2-.8.9,4,2.1-2,3.9,2.4,8.1-1.7,8.3,1.3h0l-5.3,4.6-.5,2.3,1,1.2h2.5s1.3,7.9,1.3,7.9l-.9,4.9,2.2,2.7,4.4,1.4,2.4,4.5-.3,3h0l-2.1-.9,1.5,3.7v3.3s-2.4,3-2.4,3l-1.7-1.9-2.3,3.7-4,.4-7.2,4.5-4.5-.7-3.2,2.7,1.6,1.1.3,1.8-3.7,4-3.4.4-1.2,1.6-5.5-1.5-1.1.7.2,4.9-3.4-1.3,1.8,4,3.4-2.9.7,1.4-.5,6.6-4.7,10.6h0l-8.4-5-3,2v-1.6s-6.9-4.5-6.9-4.5l-2.3-7.9-3.1-3.7,2-4.8-2.9-6.8,2.5-5.3-2.5-4.2-1-5.8-3.3-6.6-.3-5.6h0l4.3.8,4.8-1.2,4.6,1.2,5.6-4.4-.3-4.6,9.4-5,2.2-3.3Z"/>
    <path id="BG-21" d="M171,343.8l3.5,1.5,2.2-.2,3.9,5,9.3-2.6,8.5,1.3,1.7,3.4-2,5.7,1.1,2,1.3-1.1,1.1,1.9-1.1,4.1,2.5,5.4,5-5.7,5.6.2,3.1-3.6.2-5.4,1.5-1.4,4.8,4.8h0l2,8.3-.8,8.9-1.7,2-5.9,2.1-.7,2.6,1.5,6.7,4.1,1.5,4.5-2.2,3.1,2.1.6,2-1.1,3.8,2.5,1.1-3.1,3.9,1,4.7,1.7.9-.3,1.9h0l-4.3-2.8h-3c0-.1-1.9-2.6-1.9-2.6l-9-2.3-2.3-2.3-3.2,1.8-4.4-1-.2,4.9-1.1.9-4.5-3.7-1.4-3.7-3.7-1-2,.8-.3-1.9-3.5.9-1.1-4-1.9-1.2-1-2.9-.5-5.1-2.1-1.9-4.2,1.7-1.9,3.2-3.7-1.9-1.7.3-1.5,2.1-2.2-1-2.9,1.6v-2.8c0,0-3.3-3.7-3.3-3.7l-2.6,2.6-1.6-.2-1.9,3.8-2.2-2.3-2,.2-2.5-1.7-3.3,2.7h0l1.6-10,2.6-3.6-.9-1.9h0l1-6.5,7.3-1,4.8,1.2,4.8-3.2-.2-7,2-2.6,4.8-2.9,1.1-5.7Z"/>
    <path id="BG-22" d="M52.1,205.6l3.7-1.1,9.7,9.3,15.9-1.1,3.6-3.9,5.2.3h0l7.1,1.2-2.9,5.4.7,4.2,4.8,7.4,2.2,1.4,8-7.1,4.1,2,7.7-3.5,2.1,1.5,7.8.2,3.9,2,.8-3.3h0l5,.3.5,2.9,4,2,.7,5.1,5.6,3-2.6,2.6,2.6,1.8.3,3.9,2.1,1.6-3.3,5.6,10.1.7,8.1,2.3h0l-3.2,7.4.3,2.6,6.4,3.5,4.2,4.1-1.9,5-4.7.8h0l-2.1-1.9-2.4,1.4-2.6-7.9-5-2-7.2,1.9-.9,4h-3.9c0,0-4.9,5.3-4.9,5.3l-5.2-2.4-4.7,1,.7,7.5,3.1,4.9,2.9.9,4.1-1.8,1.2,2.6-3,6.3-5.9,2.5-1.6,5.1,1.2,3.8-2.6,1.4-1.8-2.2-4.2,5.6-6.4,4.9h-2.2l.7,3.1-2.1.6-2.8-1.3-1.6-3.1h-5.4l-3.2,9.5-2.1,1.7-4.8.2h0l3.2-3,.2-2-5.8-2.5-1.4-4.6-5.4,1.8-1.5-1.3,2-4.9,4-1.5v-1.1l-5.4-4.3-1.9-5.8-6.9-1.3h0l-.9-10.9,3.2-7.5h0l4.3,1.7,7.5,8.1,1.4-.8,1.9-7.3,2.2.3,3,5.7.6,7,1.5-.6,3.7,1.4,4.9-1.8-3.7-10.9-3.7-4.8-.3-8.9-3.7-2.1.5-2,1.8-.7.9-3.2,4-2,2.3-8.7-1-4-4.6,1.8-6.4-4.2-10.8,2.1-2.5-4.5-2.4-1.7-5.7,14.5,1.2,1.9-.6,1.9-2.3-.7-1.9,1.1-9.6.2h0l-1.1-1.7-4.4-1.9-1.6-2.6-9.8-3.4-2.6-4.3-3.3.2-1.5-3.7h0l2.1-4-.8-1.8,1.1-3.7,5.1-2.3,3.9-3.4,1.9-5.1,5-3.2,1.2-5-.9-1,1.6-2.8-2.4-1.4h-2.9Z"/>
    <path id="BG-23" d="M61.5,256.7l9.6-.2,1.9-1.1,2.3.7.6-1.9-1.2-1.9,5.7-14.5,2.4,1.7,2.5,4.5,10.8-2.1,6.4,4.2,4.6-1.8,1,4-2.3,8.7-4,2-.9,3.2-1.8.7-.5,2,3.7,2.1.3,8.9,3.7,4.8,3.7,10.9-4.9,1.8-3.7-1.4-1.5.6-.6-7-3-5.7-2.2-.3-1.9,7.3-1.4.8-7.5-8.1-4.3-1.7h0l-.2-1.3-2.1.4-3.1-4.6-3.7-.6.8-1.8-1-5.3-3.3-2-5.2-6.1Z"/>
    <path id="BG-24" d="M268.3,253l7.7-3.6,5.4.4h0l.3,5.6,3.3,6.6,1,5.8,2.5,4.2-2.5,5.3,2.9,6.8-2,4.8,3.1,3.7,2.3,7.9,6.9,4.5v1.6s3-2,3-2l8.4,5h0l2.9,1.8h0l-6.6,6.5,2.8,12.6-4.9.4-2.7,2.8-1.7-.5-3.4-7-3.5-.4-1.9-1.9h-2.8c0,0-2.3-1.8-2.3-1.8l-1.1.7-1.3,4.7-7.9,2.9-4.9-10.3-5.4,2.9v-7.2c-.1,0-1.1-2-1.1-2l-5.8,5,1.5.5-.8,1.5-4.6-1.5-.3,2.7-2.8,3.7-7-2.6h0l-5.7-6.6-3.1,2-7.7,1.3-5.8-3.2.5-7,8.1-3.5-3.8-2.8v-10s.6-1.3.6-1.3l3.4.8-2.3-5.2,3.4-3.4.3-2.1-1.9-2.9-8.5,2.9-2.8-1.1-2.4-4.3-1.4-6.1,2.6-5.8-.4-9.6.8-1.9h0l5.9.7,8.7-4.1,5.1,3.1,3-.5,9.8,2.7.9-.8-.4-3,2.6.2,2.4,2.4,2.9.7,3.9-2,2.6,2.3,1.9-.8.2-1.4Z"/>
    <path id="BG-25" d="M304.7,169.8l1.4,1h5.9c0,0,1.9-2.7,1.9-2.7l2.7-.5,5.4,5.3,3.3.7,2,5.2,4.3,1-.5,5.2-8,6.4.6,2,2.6.9,1.1,1.7-1.1,2.2,1,1.6,3.4-1.6v-2.1c.1,0,3.4-4.4,3.4-4.4l-.3-1.7,2.4.4,3.9-1.8,4.4,1.9,4.6.4,1.8-3.6,1.6,1.4,4.3-.3h0l-1,1.3.5,6.4,2.7,2.4.4,2.1-4.8,5-1.8,5-3.3.2,2.2,7.9-4.3,4.4v3.7s-2.6,1.3-2.6,1.3h0l-8.3-1.3-8.1,1.7-3.9-2.4-2.1,2-.9-4-4.2.8-1.6,4.8-4.1,3.5h0l-9.1-3.2,3-3.9-3.5-3.7-.4-8.3,1.6-5,2.5-1.8v-1.4s-4.3-5.7-4.3-5.7l.8-2.4-5.4-5.2h0l.4-4-4.1-3.5,4.7-6,1.4-7,5.2-2.5Z"/>
    <path id="BG-26" d="M313.6,311.5l6,2.5,2.7,2.4,4.9,1.3,2-1.2,2.1,1.6,3.2-.8,1.3,2.3,3-.3-.4,11.3-2,1.9v2.3c0,0,6.1,9.2,6.1,9.2h0l1.7,2.4-1.3,1.9,1,1.4-3.3,5.2-13.9.7-2.9,7.1v1.5s2.3,2.6,2.3,2.6h-5.9s-4.4-3.1-4.4-3.1l-2.4.6-2.2-1.6-3.9,2-.9,1.9-3.4.4-.7,2.2.9,4.4,1.9,2.2,3.3-.6,1.3,2.9-.5,5.3,2.4.3.6,3.7-2.5,4.1,3.8,4.8-2.5.4-.9,1.2v3.1c0,0-2.2,3.9-2.2,3.9l-7.6.6-2.3.8-.7,1.9-4.9.5h0l-1.2-4.9-6.9-6.6.5-5.5-4.2-3.4,1.5-7.1,3.4-2.7-1.4-4.4-4.8-.6-4.5,4.1-3.1-1.4-2,1.3-.8-2.1,1.1-3.7-2.4-8.2-1.8-2.3-4.8,1.4-6.9-2.1-6-3.4-1.9-4.6-4.5,4.2-2.5-10.1,1.1-3.6h0l2.1-2.6-.3-8.6,3.3-8.5h0l7,2.6,2.8-3.7.3-2.7,4.6,1.5.8-1.5-1.5-.5,5.8-5,1,2v7.2c.1,0,5.6-2.9,5.6-2.9l4.9,10.3,7.9-2.9,1.3-4.7,1.1-.7,2.3,1.7h2.8c0,0,1.9,1.9,1.9,1.9l3.5.4,3.4,7,1.7.5,2.7-2.8,4.9-.4-2.8-12.6,6.6-6.5Z"/>
    <path id="BG-28" d="M352,260.8l6.7,7.7,10.4,20,5.8.5-1.6,3.9-5.9,1-1,1.2.8,3.5,6.4,7.2-1.3,4.1,2,5.1-2.3,2.7.3,1.7,8.2,7.9h0l-1.2.2.4,2.2-1.6,2.3-2.1.2.2,1.9-1.8,2.5-7.4.8-2.2,2.3-4.3-2.2-2.9,3.4-7-.8-3.3-1.5-5.1,5.7h0l-6.1-9.2v-2.3c0,0,2.1-1.9,2.1-1.9l.4-11.3-3,.3-1.3-2.3-3.2.8-2.1-1.6-2,1.2-4.9-1.3-2.7-2.4-6-2.5h0l-2.9-1.8h0l4.7-10.6.5-6.6-.7-1.4-3.4,2.9-1.8-4,3.4,1.3-.2-4.9,1.1-.7,5.5,1.5,1.2-1.6,3.4-.4,3.7-4-.3-1.8-1.6-1.1,3.2-2.7,4.5.7,7.2-4.5,4-.4,2.3-3.7,1.7,1.9,2.4-3v-3.3s-1.5-3.7-1.5-3.7l2.1.9Z"/>
    <path id="BG-27" d="M378,151.6l7.3-2.5,4.5,5.6h3.5c0-.1,2,2.3,2,2.3l3.7.5,3.5,4.9,1.2.5,5.7-3.3,2.1,3.9h0l-1.6,2.3-7.8,2.5v2.9s2.2,1,2.2,1l-1.6,4.1,1.5.3.4,1.4-4.2,6.3.8,8.9-1.6,1.4-2.3-.7-.4,1,2.9,11.5-7.4,4.3-.8,3.1,2,2.2,1.3,7.2-11.1,2.4-2.2,2.1,4.1,4.6-.2,3.2h0l-4.1.5-5.9,3.2-4.1-3.1-4.5.9-3.2-1.3-6.6.3-5.2,3.7h-6.2s-.4-3.2-.4-3.2l-5.1.2h0l-1-1.2.5-2.3,5.3-4.6h0l2.6-1.3v-3.7s4.3-4.4,4.3-4.4l-2.2-7.9,3.3-.2,1.8-5,4.8-5-.4-2.1-2.7-2.4-.5-6.4,1-1.3h0l3.5-3.6-4-3.4-.3-2.9,5.3-5.2-.3-5,4.7-4,.8-3.5,4.7,1.3,2.6-3.3,3.5-1.7,1.2-1.8-.8-3.8Z"/>
  </g>
</svg>