<svg xmlns="http://www.w3.org/2000/svg" xmlns:amcharts="http://amcharts.com/ammap" id="Layer_1" viewBox="0 0 512 512"><g id="_x3C_defs"><amcharts:ammap bottomLatitude="42.404" leftLongitude="13.492" projection="mercator" rightLongitude="19.4" topLatitude="46.543"/></g><g><path id="HR-01" d="m239.9 70 1.9 5.5 1.5 1.2 3.4-1.7 5.6 3.2 1.8-.6 1.3 1 .3 1.7 1.8.9.4 3.6 2.9-1.7.7 1.1 2.4-.3 4.5 4.7 1.2-.9 1.9 1.2 2.6-1.3 3.1.7.5 6.3-1.4 3.2.5 1.8-1.5-1.2-2.2.6-.5-1.4-.6 1.6-2.8 1.4.3 3.1-2.3-1.4-5.9.6.6 1.7-1.1 1 1.8 1.3-1.6 4 3.3 2.5h2.6l1.2 3 1.2-.5 1.9 2.5-2.3 5.5-3.9.9-6 6.3-1.5-3.2-3.5-1-1.9-3.7-3.6.9-.8-3-3.7 1.8-1 1.7-1.2-.7-2.6 3.1-8.7-4.6-6.3 8.3 3.2 3.2v8.7l-2.1 1.7-3.1-4.1-2-.6-2.6 2.2-4.5-.3h-.2l-1.2-1.5.4-3.4-1.6-1.9h-2.7c0 .1-.2-1.8-.2-1.8l-2.4-.2-3.8 3.2-4.1-4.9.4-4.3-1.7 1.4-9.4-4.2-6.9 5.8-.7-1.3 1.1-2.5h-2.5l.5-3.9-4.6-2.6-1.5-3.8-2.8-.3-1.3-3.2-5-2.3.8-4.2 5.5-2.7 5.2-.3-.6-2.6 2.1-1.5.9 1.2 2-.2 1.1-3 1.8 1.2 1-1.7 5.9 4 2-2.5 3.3-.4-1.7-2.1-.4-4.9 2.3-2.4v-5.8h4.6l.7 1 1.1-2.7h2.8l7.2 3.6 3.5 3.3.3 2.7-9.5 6.2-1.4 2.7 1.4 4.9-1.7 2.1 4.4 2.9-.6 2.5-1.4 1.1-4-2.6-2.5 3.4.7 3.1 7.5 3.6 3 3-.3 2.7h3l1.7-1.4 2.9-6.2.7-4.8 2-.4 1-3.3 8.7-5.4.9-1.9 4.5 1.3.4-4 2.5-1.3-2.6-6-2.1-.9v-4.8c-.1 0-2-3.9-2-3.9v-2.5c.1 0 2.8-2 2.8-2l-.4-1.5 2.8-.5-1.5-3.8 1.8.2 3-2.2Z"/><path id="HR-02" d="m207 45.1 1.2 5.1 3.8 1.3 1.3 2.4 3.4.8 3.5 1.1 5.6-1.2 1.7.2.7 1.7h2.7c0 .1 1.7-2.3 1.7-2.3l2.8-1 .7.8-1.1 1.2 4.5.5-1.4 1.9 1.8 2.3-1 7.2 1.1 3.1-3 2.2-1.8-.2 1.5 3.8-2.8.5.4 1.5-2.7 2v2.5h-3.3l-.6 1.5-2.9.3-10.7 5.7-.3-2.7-3.5-3.3-7.2-3.6h-2.8l-1.1 2.7-.7-1H194l-.6-3.6 2.6-5.3-1.4-1.8-4.7-1.3-1-2-2.2-.2-1.4-3.2.6-2.6-1.2-1.1 1.4-.8-.8-1.3 3.4-3 .3-3.6 2.6-1.3 4.1 1.4 1.8-.6v1.3l1.4.2 2.9-3.6-.7-2.1 5.9-2.1Z"/><path id="HR-03" d="m204.9 171.2-3.7-3.4.9-3.2 1.7-1.2-3.4-6.8.5-1.9 4.6-2.5-1-5.3 1.4-3.4-1.5-.8 1.6-1.9 3.2-1.3 2.8 2.5.7-.7h.2l4.5.3 2.6-2.2 2 .6 3.1 4.1 2.1-1.7v-8.7l-3.2-3.2 6.3-8.3 8.7 4.6 2.6-3.1 1.2.7 1-1.7 3.7-1.8.8 3 3.6-.9 1.9 3.7 3.5 1 1.5 3.2 6-6.3 3.9-.9 2.3-5.5h.1l3.1-.6.5 1.7 4.4 1 1.3 2.7 5.4.4 1.6 6.3 3.3 2.1 1.3 2.8-1.2 2-1.8-.5-.5.9 2 1.8 1.4-.8 3.5 3.9 2.1-1.7 1.8 3h3.3l1.7 1.3 1.1 3.5 1.8-1.4-.2-1.8 1.1.2.6 1.8-1.6 3.2 5.4 2.5 1.8 3.4 3.6-.6v6.6l-5.3 5.2-3.4 1.4-.7 1.9 3.6 2.8 2.8 5.4-8-4.7-1.2-2.9-2.2 1.2 1-2.4-1.3-.3-1 2-1.4-.8-3 .2-.3-2.1 1.4-1.5-1.7-2.3-4.6 5.3-.9-.5-2.8 2.5.7 2.5-2 1.2-7.5-2.6-3.1 1.3-7.9-4-4 1.1-1.8-.7-3.4 2.1-2.5 8.1-5.6 3.5.7 2.6-3.9 7.1-.2 3.4-3.8.4-7-1.3-.7-2.3-6.1-5.8-5.6-2.6-3.5-8.8-2.6-.2 1.1-1.9-.6-2-3.8-1.9-3.1 2.3-1.1-3.2-2.5.3v1.3c.1 0-4.3-.8-4.3-.8Z"/><path id="HR-04" d="m163.3 105.6-.8 4.2 5 2.3 1.3 3.2 2.8.3 1.5 3.8 4.6 2.6-.5 3.9h2.5l-1.1 2.6.7 1.3 6.9-5.8 9.4 4.2 1.7-1.4-.4 4.3 4.1 4.9 3.8-3.2 2.4.2.2 2h2.7c0-.1 1.6 1.8 1.6 1.8l-.4 3.4 1.2 1.5-.7.7-2.8-2.5-3.2 1.3-1.6 1.9 1.5.8-1.4 3.4 1 5.3-4.6 2.5-.5 1.9 3.4 6.8-1.7 1.2-.9 3.2 3.7 3.4-6.6 7 1.8 6.3-3.1 6 3.3 7v3.8c.1 0-2.7.5-2.7.5l-1.2 4.7-2.3 1.8-4.3-2.9-4.3 1.7-3.6-3.9-3.1 4.1 3 3.7-.6 1.2-3.4-4.2-6.4-1.3-6.5-9.5-5.3-1.9-1.3-2.3-6.7-4.9-1-2.9-3 1.1-1.9 2.8-4-1.3-2-2.8-4.7-2-3.4-5.1 1.4-4.3v-5.8l-2-2.4 1.7-1.1.9-3.6 2.1-.8 1.6 2.5 3.7.3.3 1.6 1.4.4 1.9-2.6 4.6-1.2-.4-2.1 4.6-8-.4-3.8 1.7-3.2 2.4-1.5 4.9 1.5 4.7-4.2-7.2-5.9-.2-5.6-1.8-2.5 2.6-1.1-.4-2.1 4.1-.7-.3-1.2 3.4 1.1 1.7-1.3-3.2-5.1-1.7 2.1 1.2-2.8-.5-2.3h-1.5l-1.6 2.1.2 2.7-1-2.9-1.1 1.3-1.3-2.7-3.7-1.4 8.9-5.9Z"/><path id="HR-05" d="m234.1 31.6 2.2.9 4.1-1.3 1.1 2 1.5-.3 3.4 1.8L249 39h3.1l1 1.1 3-1.6.5 1.5 4.7 1v-.9c.1 0 2.5.1 2.5.1l1.5-2.1 3.7 2.8 6.5-1.7 1.8 1.7 2.8-2.1-.5 2.3 3.3.6-.4 5.5-6.6 6.9-4 .3-2.4-1.1-5.8 3.1.5 1.9-9.5.5-.6 1.8-4 2.8-3.5 11.4-3.4 1.7-1.5-1.2-1.9-5.5-1.1-3.1 1-7.2-1.8-2.3 1.4-1.9-4.5-.5 1.1-1.2-.7-.8-2.8 1-1.7 2.4H228c0-.1-.7-1.8-.7-1.8l-1.7-.2-5.6 1.2-3.5-1.1-3.4-.8-1.3-2.4-3.8-1.3-1.2-5.1 3-2.3h3.9l3-2.6h2.9l2-2.9 3-.3-1.5-5.8 4.8.5 2.7-2.8 3.4 2.8Z"/><path id="HR-06" d="m291 36.2 1.4 1.4.5 7.2 5.7 4.3 1.7-.3.3 2.2 3 .5 6.2 4.2 1.6-.2 2 2.3 2.8-.2V59l1.9.9-.5 5.2 3-.7-.2 1.8h1.9l-1.1 2.1 1.4.4-.3 2.3 3.3.4-1.4 3.2 3.5.4-3.1 1.6 2 1.5h2c0-.1-.8 2-.8 2l-7 .2-7.6 12.6-4.8-3.1L307 86l-5.5.7.8-3.1-2.7-2.9-6-.4 2.6-4.4h-1.8l-2.6-4.5.3-2-3.2-2-1 5-3.8 1.4.6-1.5-1.1-.5-4.5 2.8-1.4 4.4-.5 9.3-3.1-.7-2.6 1.3-1.9-1.2-1.2.9-4.5-4.7-2.4.3-.7-1.1-2.9 1.7-.4-3.6-1.8-.9-.3-1.7-1.3-1-1.8.6-5.6-3.2 3.5-11.4 4-2.8.6-1.8 9.5-.5-.5-1.9 5.8-3.1 2.4 1.1 4-.3 6.6-6.9.4-5.5 1.5-.8.4 1.1 1.2-1.6.4 3.1 2-.3 2-8.1.6.9Z"/><path id="HR-07" d="m277.1 88.1.5-9.3 1.4-4.4 4.5-2.8 1.1.5-.6 1.5 3.8-1.4 1-5 3.2 2-.3 2 2.6 4.5h1.8l-2.6 4.4 6 .4 2.7 2.9-.8 3.1 5.5-.7 1.4 3.8 4.8 3.1 5.1 2.6 1.3 2.9 3.8 2.8 2.7.5.9 3.9 2.4.5.2 2.1 1.4.6.8-2 1.5 1.3-.8 5 2-1.6 1.1 3.2 4.5-3 .8 1.7 3.9 1.9-4.2 7.4v3.1l-1.9 1.1v2.6l1.5-.5.7 1.1-1.1 4.7-2.5 2.1-3.9-.7-.3-1.1-5.3.7-.9 1.1h-5c0-.1-3.6-3.2-3.6-3.2l-1.8 2.1-3.3-1-3.4 2.2-2.2-1.9-3.1 1.8-4.3-1.3-.6-3.4-2.5 4.2.4 4-2.1 1.7-3.5-3.9-1.4.8-2-1.8.5-.9 1.8.5 1.2-2-1.3-2.8-3.3-2.1-1.6-6.3-5.4-.4-1.3-2.7-4.4-1-.5-1.7-3.1.6h-.2l-1.9-2.5-1.2.5-1.2-3h-2.6l-3.3-2.5 1.6-4-1.8-1.3 1.1-1-.6-1.7 5.9-.6 2.3 1.4-.3-3.1 2.8-1.4.6-1.6.5 1.4 2.2-.6 1.5 1.2-.5-1.8 1.4-3.2-.5-6.3Z"/><path id="HR-08" d="m96.3 261.9 2.6 2.2-3.3-.2-.9-1.4 1.1-1.2.5.7Zm-18.7-6-2 1.6-1.6-2.7 3.6 1Zm-4.3-20.5.6 2.8-2.2-.7 1.8 7.4-3.9-2.8 1.3-.7-.7-3 3.2-2.9Zm5.4-3.1 4.4 2.3.4 8.7 4.1 7.3 7.8 7-.7 2.4-6.7-5.6-.3-.7-.5-2-.7-2.2-.6.6-1.1-1.6-1.4 2.4-2.1-.8.3-3.2 1.7-1.7-3.6-4.9-.9-7.9Zm42.1 3-6.3-6.6 4.8 4 1.5 2.7Zm-14-13.2 6.8 5.6-6.5-1.8-2-2.7 1.6-1.1Zm13.4-6.5-.6 3.1-2.3-3.1zm-9 .1h2.1c0-.1 1 1.1 1 1.1l-1.9 2.8 7.5 7.2 3.3 6.1-2.6.5-4.8-5.6-6-4.1-.9-3 2.4.8-4.1-5 3.8 1.2.3-2Zm3.1-2.9 1.6 2.1-2.8-.2-1.3-1.8.8-1.3 1.7 1.1Zm1.2-6.8 3.2 2.1 1.7 3.8-5.7-3.5-.3-2.5h1Zm-20.7-5.6 1.7 2.9H95c0 .1-4.3-3.1-4.3-3.1l3.2-.8zm-17.4-22.8 2.7 1.1 1.1 2.1-1.5 3.6 3.9 12.3 2.9 3.8 3-.3 1.4 3.3-2.2.3-1.2 9.1 1.9 10.2-1.4-.7-.4 1.1 2.7 4.9-1.3 2.1 1.2 3.9 3 3.7-.8 2.9 1.2-.5.3 1.4H96l-4 3.5-3.4-2.6-5.7-8.2.5-5.9-2.3-1.3-.3-5.6-1.1-1.8-1.4.4-.2-4.7-2.4-7-.2-2.8 1.1-1.9 4 5.8 2.4.2 1-1.2-1.5-3.6.6-1.6 2.1 1.1-.6-1.5h-1.4l-1.2-3.7-2.3-1.4.8-2.9-1-3.1-3.6-2-1.2-3.5-1.2-.6-.4-2 2.4-5 2.1-1.1Zm20-8.4 2.3.4.9 1.5-1.6-.3 4.2 7.4-2.1-.6-.8 2.3 3.3-1.2 2.6 1.7 1 1.7-1.4 5 .9 1.7 2.5 1.5 1.2-.8 2.4 2.1-.2 2.1 6.5 6.7-1 1.9-4.6-.7.5 3.5-2.1.5-3.8-1.7-1-1.8H105c0 .1-2.7-1.5-2.7-1.5l.4-7.3-1.4 1.5 1 1.6-3.5-1.5-1.4 1.6-3-.3-3.1-1.3-4.5-5V187l2.9-.8.5-3.5 2.5 1.4 1.9-1-.4-3.1 2-2-.9-3.9 1.4-.9-1.2-3.4 2.3-.7Zm1.2-51.2 3.2.8-1.5 4.4 8.1 6v6c-.1 0 2.1-.9 2.1-.9l6.6 3.8 1.7 5.1 7.7-2 .5-5 1.5-1.2 4.3 3.7 8.7 1.9v2l6.1 5 1.9.2 1-1.6 2.4 1.1.3 3.8-4.6 8 .4 2.1-4.6 1.2-1.9 2.6-1.4-.4-.3-1.6-3.7-.3-1.6-2.5-2 .8-.9 3.6-1.7 1.1 2 2.4v5.8l-1.4 4.3 3.4 5.1 1.2 4.4-1.7 2.8-5.1.6-.8-2-1.8 2.3-1.9.3-.8 2.6-3.2-7.5.4-2.4-1.2.9v-.9l-1.7.1-8.5-4.3-5-6.2-6.8-5.5-.8-4h1.4c0 .1-.9-1.2-.9-1.2l-2.8-1.8 1.9 2.8-1.4.6-3.8-2-1.4-2.4-12.8-4.8-3.9 6.1-4.7 18.3-2.1-1.4.6-5.6-1.3-5.4.5-5.4 1.7-2-2.6-6.9 1.6-2.7-6.4-4.1-1.4-2.5v-3.5l7.3.9 1.5-3.6 1.9-.6 1.5 2.4 1.9-.8 3.4 2.7 7.5-4.3 1.3.3 4.7-3.7 1.3-8.1 2.8-.9 3.8-6.8Z"/><path id="HR-09" d="m125.4 262.4 6.3 6.3-6.2-4.3-1.1-1.8 1-.3Zm-7.9-22.2 7.2 8.6-1.3-4.1 3.2-.7v1.1c-.1 0 4.1 2.9 4.1 2.9l2.2 5.2 5.7 2.2 2.2 4.6-2.6-1.3v-1.1h-3l-.6-1.9-7.4-4.1v1.2l1.5.4 9.1 10.8.8-1.1-.9-3.3 6 4.4 2.1 3.6 3.1 1.6.9 2.4h1.3c0-.1 3.9 3.2 3.9 3.2l.8 3.2-7.3-5.1 5.5 5.5h-2l1 1.9-7.4-3.4 3.5 5.1-5.5-3.3-1.6-2.4 1.1-1.2-1.5-1.5 2.4-2-2.9-2.3h-1.3v1.1l-2.2-.5-.2-2-3.6-4.4-3.3-1.8.2-1-1.4.7-2.6-2.2-.7-1.4 1.8-.4-4.2-5.6.9-1.2-7.9-8.4-4.8-8.8 5.9 6.9Zm17.5-56.9 4.7 2 2 2.8 4 1.3 1.9-2.8 3-1.1 1 2.9 6.7 4.9 1.3 2.3 5.3 1.9 6.5 9.5 6.4 1.3 3.4 4.2.6-1.2-3-3.7 3.1-4.1 3.6 3.9 4.3-1.7 4.3 2.9 2.3-1.8 1 6.9 2.8 2.8-2.4 2.1h-2.9l-.5 1.4 5.2 8.2 3.4 3.1 6.8-3 2.1 2.9 2.9 1.2 1.6 4.6 4.7 2.3 2.1 5-1.6.2.2 2.2-2.6.6 1.8 3.7 8 4 1.6 4.2-.5 3.6-3.8 1.3-2.7-1.4-.2 3.7-1.6-1.5.2-2.5-2.7-3.4-5.2-1.3-4.4 3.9h-1.8l-.5 1.8-9.5 5.6 2.7.7.8 1.5-2.1 2.5.8 1.6h2.9l1 1.5-1.4 6.8-1.5 1-7.2.2-4.7-2.2h-4.3l-2.5-1.1-2-4.2-3.4-2.6-15.4-7.2-2.9 5.9-8.8-9.9-4.2-3-3-4.9-9.3-7.2-2.3-6.7-5.5-7.8-1.2-17.5 3.8-12.7-.7-2.6-1.9-1.5-1.2-5.6.8-2.6 1.9-.3 1.8-2.3.8 2 5.1-.6 1.7-2.8-1.2-4.4Z"/><path id="HR-10" d="m332.4 81.4-.7 3.8 3.2-.6.7 2 1.6-1 .2 1.1 1.8.3v-2.7c.1 0 8 1.9 8 1.9l3.2-.3 4.7 4 3.6 8 6.3.9 1.6 2.2 1.8-.6 2.9 1.5.9-.7 3.2 5.4 2.6-2.7h2l1.8 6.7 5.4 2 2.5 9.6 1.6.3-4.6 7.4.2 2.3-2.3 1-2.7 5.3-4.2 2-.5-.2-7.9 1 1.2-1.1-1.8-1.5-12.6-2.1-3.1-4.1-2-.2-3.3-3h-1.6l-1.1 2-3.4-2.7-1.2.7-1.5.5v-2.6l1.9-1.1V123l4.1-7.4-3.9-1.9-.8-1.7-4.5 3-1.1-3.2-2 1.6.8-5-1.5-1.3-.8 2-1.4-.6-.2-2.1-2.4-.5-.9-3.9-2.7-.5-3.8-2.8-1.3-2.9-5.1-2.6 7.6-12.6 7-.2 2.2-.6-1.2 2.3 1.6.3.5-3.5 1.7 2.7Z"/><path id="HR-11" d="m377 140.3.9 3.7 3.8.6 6.7 5.6 3.8-.2 3.3 1.7.3 3.6-2 1.4 1.9 1.4 1.4 4-3.5 3.9-7.5-2-7.6.2-2.3 3 .6 1.5-3.3 4.2-3-.9-1.7 2.5.8.8-3.3.4-3.9-1.5 1.6-2.1-1.7-6.1-10.4-1.1-6.1-4.3-1.4-3.7-2.3-.6-4.9-5-5.1.5-.4 1.7-1.7.6-6.4-3-5.7 4.3-3.6.6-1.8-3.4-5.4-2.5 1.6-3.2-.6-1.8-1.1-.2.2 1.8-1.8 1.4-1.1-3.5-1.7-1.4h-3.3l-1.8-3-.4-4 2.5-4.2.6 3.4 4.3 1.3 3.1-1.8 2.2 1.9 3.4-2.2 3.3 1 1.8-2.1 3.6 3.1h5c0 .1.9-.9.9-.9l5.3-.7.3 1.1 3.9.7 2.5-2.1 1.1-4.7-.7-1.1 1.2-.7 3.4 2.7 1.1-2h1.6l3.3 3 2 .2 3.1 4.1 12.6 2.1 1.8 1.5-1.2 1.1 7.9-1Z"/><path id="HR-12" d="m318 155.6 5.7-4.3 6.4 3 1.7-.6.4-1.7 5.1-.5 4.9 5 2.3.6 1.4 3.7 6.1 4.3 10.4 1.1 1.7 6.1-1.6 2.1 3.9 1.5 3.3-.4-.8-.8 1.7-2.5 3 .9 3.3-4.2-.6-1.5 2.3-3 7.6-.2 7.5 2 2.7 1.8 2.5-.3.9 1.5 3.5.3 2.4 2.3 4.3-.7 2.6-2.1 5.2-.5 6.4 3.6 6.6 1.1 2.7 2-4.5 8 1.6 3.3 1.7.5 1.3 2.3-1.6 3.5-.6-1.9-4.5-.5-4.1-5.2-8.7.8-1.1-1.7h-2.1c0 .1-.6-2.1-.6-2.1l-1.6-.7-3.7 1.9.8 3.1-1.5 1.9h-7c0 .1-4.1-3.1-4.1-3.1l1.2-1.5-1.4-2.5h-1.8l-1.1 2-2.3-3.2-1.8.8-1.8 3.6-2.7.8.3 3.2-7.5 4.4-15.1-10.7-6 3.3-1.8-1-1.8.8-.5-2.5-1.5 2.5h-3.9l.7-3.3-3.5 1.1-.2-3.9-2.7 3-4.6-.4-2.9-1.7v-1.7H329v-1.5l-2.1.3-1-1.5-2.5 5.1-5.6-.2-2.7-1.8-2.8-5.4-3.6-2.8.7-1.9 3.4-1.4 5.3-5.2v-6.6Z"/><path id="HR-13" d="m176.9 332.6.9 1-1.6.2-1.2-1.8zm-20.1-18.5 4.7 2.4 2.9 3.3 1.4-.2 1.2 3.5 5.5 4.8-.3 1.2-5.6-3.3v.9l-2.1-.5-.7-2.5-3.7-2.5-4.7-6.8zm-17.9-3 2.4 3.9-2.7-1.8zm1.7-4.7 5.9 6.2 1.7 3.7-7.6-6.7zm1.8-6.6 7.4 5.1 1.3 3.2 4.4 3.4-.5 2.8-2.6-3.9-1.6 1.7-7-8.8-4.2-2.9-.2-3.3 3 2.6Zm-14.6-3 1.8 2.2-4.8-3.5zm-5.2-.9 4 3.3 1 2.3 2 .5v1.9c.1 0 4.3 2.7 4.3 2.7v-1l1 .5-.7 1.1 1.9 1.3 3.1 7.3 3.1 2.7v-1.4l2 1.4-.4 1.1 4.5 3.6.4 1.6 4.2 2.5-1.1 1.9-3.7-1.7-2.2-2.8-.8.5 5.9 5v1.6l-8.1-7.2-9.3-15-8.9-8.6-1.1-.6v1.3l-4.1-2.6-.5-1.3 1.1-.9.2 2.2 2.2 1.2-1.3-1.6.9-.2 2 1.3-1.9-4.2.4.6Zm7-3.4 6.8 6.2.3 2.2-4.9-3.6-2.4-3.4v-1.5Zm-11.8-7.4 6.2 5.3.5-1.5 1.3.9-.7.5 1.5.9-1.4 1.7-6.8-4.5 2.4 3.7-1.1.4-3.5-6.7zm-8.9-3.1 2.4 1.8h-1.7l-1.7-1.6zm7.2 1.3 1.2 1.1-1.2.8-1.8-1.2.3 2-2.7-2.8 2 .3-.7-1.9 2.8 1.8Zm21-5.4 5.3 1.4 2.9 2.9-1.2.6v-1.2l-2.1-.8-3.7 1.7-2.7-3.9.2-1 1.3.2Zm-34.7-1.2 4.1 3.8-6.1-3.7-1.3-2 .7-.6 2.5 2.6Zm5.6-9.1 1.6 1.8-.3 3.1 1.6.8.6 2-2.5-1.1-1.1-3.6-2-.7.2-1.7 2-.5Zm9-.6 1.3 2-1.4 2 2.3 3.4-.5 1.5-5.9-3.1 2.7-1.3-1.4-4.4h3Zm105.5-1.7.9 1 .2-3.7 2.7 1.4 3.8-1.3.3 3.2 1.9 2.5-4 .6.4 2 7.1 2.5.7 1.4-.2 7.6 1.6 8.1-4.6 1.5h-2.1l-1 2.3v5.6l-1.9 1.5-1.9 1.1-8-3.7-1.7-3.7h-1.6c0-.1-3.5 5.8-3.5 5.8l-3.6 3.7-1.9.4-1 2.4-4.1-.4 1 1.4 4.5 2.1v1.8h.1l-1.5 2.1.8 1.8-2.4 2.2-2.1.6 2.2 3.1-2.2.7-1.8 1 1.1 1.2-1.5 2.5-2 1v2.8l-.2 1.5-2.8-1.6-2.5-1-3.6 1.7-1.7-.5-2.8-2.5-3 1.8-2.2-3-5.7-2.9-1-2.8-3-2.1-5.4-7.4-3.8-1.8.9-.9-2.2-1.1-1.5-3.8-3.4-2.1-.3-2-1.5-.4.5-1.7-5.6-5.7 1.5-1 .7-2.9-4.8-3.6 1.2-2.2h1.7l3 4.4 2.7-2-1.9-3 1.9.2-.4-1.4 6.4 5.5 1.4-.5-1.6-3.6 1.5.3.6-1.1-3.8-3.8 1.2-1.5 4.3 3.3v1.4c.1 0 6.3 3.9 6.3 3.9l3.6-.5 5.1 1.4.7 4.8-3.3 1.3 3.7 3.4 4.7-1.1 2.3 2.9.9 3.8 1.3-.4-1.4-6.2-6.9-5.3.7-4.2-2.7-1.5-2.3.6-5-5.1-10.9-5.9 2.9-5.9 15.4 7.2 3.4 2.6 2 4.2 2.5 1.2h4.3l4.7 2.2 7.2-.2 1.5-1 1.4-6.8-1-1.6h-2.9l-.8-1.5 2.1-2.5-.8-1.5-2.7-.7 9.5-5.6.5-1.8h1.8l4.4-3.9 5.2 1.3 2.7 3.4-.2 2.5.7.5Z"/><path id="HR-14" d="M446.8 88.8 454 93l1.2-.2.4-3.6.9.7.6 3.7 2.3 1.8-.5 6.6 2.9 3.2 2 8.3 4.9 3.5-2.3 6.4-3 .9 1 1.8-1.6 4.4 5.1 3.6 2.8-.9.7-1.7h1.9l1 2.6 5.7 2.5-1.5 3.3-7.1-.8-.9 4.9.8 1.6-4.2.4-2.9-3.9-5.1-1.8-.4 1.1-4.5 1.2 1.6 5.2h-1.6v1.7l-2.2.5-1.6-1.5-8.8 2.9v4.2l-2.2 1.2.6 3.3-3.4.3-1.4 2.2-2.4-.4-2.3 1.4v5.4l5.2 2-.7 3.6-1.7.6-2.7-2-6.6-1.1-6.4-3.6-5.2.5-2.6 2.1-4.3.7-2.4-2.3-3.5-.3-.9-1.5-2.5.3-2.7-1.8 3.5-3.9-1.4-4-1.9-1.4 2-1.4-.3-3.6-3.3-1.7-3.8.2-6.7-5.6-3.8-.6-.9-3.7.5.2 4.2-2 2.7-5.3 2.3-1-.2-2.3 4.6-7.4-1.6-.3-2.5-9.6-5.4-2-1.8-6.8 7-.9 7.1 3.5 1.8-.5 1.6-2.5 3.9 1.6 1.5-1.4 3.6 1 1.2 2 4.5.2 3.4 1.7 2.2-3.2 3.6 3.9 3.4.4v-2.9c-.1 0 2.9-.5 2.9-.5l.8-3.4 2.6 1.3 3.1-2.4 1.3.3v-1.7l4.1-3 .7-4.4.7 1.1 1.3-1-1-1.5 2.5-2.8 3.2-.2Z"/><path id="HR-15" d="m185.7 353.8 4.4 1 1.9 2.6 3.8 1.7-6.1-1.1-2.6-2.9-1.8-.3-.4-1.4.7.4Zm11.8-2.8 1.9 2.1-2.5-1v-2.2c-.1 0 .6 1.2.6 1.2Zm8.8.1 1.1 4.2-4.1-4.3h1.3c0 .1.3-1.2.3-1.2zm-15.3-2.4 4.6 3.2-.6 2.3-2-1.1-.2-.9 1.3.2-3.1-3.8Zm7.3-1.2 1.7 1.4h-1c0-.1.5 1.1.5 1.1l-2.1-2.3.8-.2Zm4 .4-1.2.6-.9-2.7zm-17-11.9v1.4c-.1 0 1.9 2.5 1.9 2.5l1.3-.5 1.9 3.9-3.4-1.1-5.1-6.8 2.1 1.2.6-1.5.8 1Zm-31.2-5.6 2.3.7-.7 1.3 10.9 9.9-4.6-1.6-2.3-1.6V338c.1 0-3.6-2-3.6-2l-3.3-4.9 1.4-.7Zm2.6-2.1 2.5.9-1 .2 1 1.1 1.6.2v-1.6l4.8 7.7-7.9-6.6-1.6-.2-.6-.8 1.2-1Zm90.1-25.7 2.3 3.4h4.9c0-.1 1.3 6.1 1.3 6.1l5 .4 3.3 7.9-3.6-.2-4.1 2.8-3.3.4.8 2.5-5.2-.7-1.4 4.4 8.3 7.9-7.6 5.9 1 2.3-1.6 1.8 1.7 2.2-2.5 2.8-6.5-.5-1.5 2.2-3.8-.3-1 2.7h-3.6c0 .1-2.6 4.2-2.6 4.2l-2.4.5-2.5 2.7 1.1 2.7 2.3.4.5 3-3.7.9-.5 2-2 .9-1.4 1.6v-1.4l-2.7.6-1.6-1.6 3.3-1.2-.8-2.1-1.5.3-.2-.7-2.9-1.5 1.7-.6V366h-2.3l1.2-1.8-1.2-.6.8-2.4-1.1-1.8 4.9-.5-5.8-1.8 2.2-.8 1.9 1.6-.3-2.2-4.3-4.7-1.1.5-8.4-7.3-3.2.6-1.3-1.4h-3l-.9-2.2-3.8-2-2.1-2.6 1.4 1.5 1.9-.7 2.3 2.3v-2.3l-4.8-3.2-2.9-.5-1.3-2.2-1.3.9-.2-1.2 2.1-2.2 2.8 2.5 1.7.5 3.6-1.7 2.5 1 2.8 1.6.2-1.5v-2.8l1.9-1 1.5-2.5-1.1-1.2 1.8-1 2.2-.7-2.2-3.1 2.1-.6 2.4-2.2-.8-1.8 1.5-2.1v-1.8c-.1 0-4.6-2.1-4.6-2.1l-1-1.4 4.1.4 1-2.4 1.9-.4 3.6-3.7 3.5-5.9h1.6c0 .1 1.7 3.8 1.7 3.8l8 3.7 1.9-1.1 1.9-1.5v-5.6l1.1-2.2h2.1l4.6-1.6 3.1 4.9 4.6 3.8 1.4 3.2Z"/><path id="HR-16" d="m433.2 175.2 1.7-.6.7-3.6-5.3-2v-5.4l2.3-1.4 2.4.4 1.4-2.2 3.4-.3-.6-3.3 2.2-1.2v-4.2l8.8-2.9 1.6 1.5 2.2-.5v-1.6l1.7-.1-1.6-5.2 4.5-1.2.4-1.1 5.1 1.8 2.9 3.9 4.2-.4 2 1.7v1.5l-4 4.3 4.2 3.8 5.8 1.3 1.6 4.7 11.7 6.1 12.5 1.3v7.2c-.1 0-3.5.5-3.5.5l-3.3-3.8-2 .2-.6 3.2h-1.9l-7.2-3.6.6 3.6-3.4 5h-4.5c0 .1 2 9.4 2 9.4l-1.5 1.5-.2 4.9-3.5 2.2 5 .8 2.4-1.2 1 3-1 1.4-3.3 1.4-2.1 2.5-5.8.8 1.2 5.5h-14.6c0 .1-7.4-6-7.4-6l.7-1.8-1.7-2.5 3 .8 1.5-.8-1.7-3 .8-3-5.7-.3.7-2.6-5.7-5.4 1.6-1.7-.8-1.8-1.8.9-.2 3.4-4.1-1 2.4-2.5-.3-1.1-1.8 1.7-3.2-1.6.3 3.3-.9-1.8-2.5-1.3-1.7-.5-1.6-3.3 4.5-8Z"/><path id="HR-17" d="m234.1 422.3 1.1.8-1.1 1.6.8.4 2-1.8 1.9 1 1.2-.9v2.5l-2.1 2.5-9.9 2.7h-3.7l1.9-1.9v-1.7l-.7-1.1-1.5.8-1.1-1.7 3.8-2.1 7.3-.8Zm42.8-2.1 4.1 1.4-2.3.9-4.3-.8zm-28.7-8.7 2.5 1.4 1.6-.5.2 1.3-3 .3-2.9-1.4 1.7-1.1ZM266 405h.9l-.5 1.4 1.1 1.5 2.2-1.4 5.1.7-.2 1.7 2.9 2.3-2.2-.4 4.5 2.9 1.9-1 7.9 1 3-.7 1.8 1.2 17.4 2.1 3.4-.8 4.3 1.8-7 1.3-14.9.2-13.7-1.8-9.3.7-10.3-2.2-5.3-2.6-1.2.7-8.5-4.3h4.4c0 .1 4.6-1.8 4.6-1.8l4.6.8 3.4 2.8 2.5-.6-1.7-.6-1.7-3.4-1.5.9-1.6-1.6 3.6-.8Zm-10-18.4h8.8c0 .1 19.4 3.7 19.4 3.7l.2 1 1.3-.6 1.7.9.2.7.9.9.8-1.1 5 3.7-1.1.4.7 1-1.1.4v1.5l-1.5-.4-.7 1.7-5.4 1.1-13.2.8-8.9-1.7-6.5-3.4-.8-.6-2.9-1.5-.2-2 1.4 1.3 1.9-.4-1.2-2.2 2.4-.9-2.6-3.6 1.3-.8Zm-16.9-2.7 4.4 1.2.4 1.2 2.3-.2 5.9 7.7-1.5.3-6.3-3.2.2-.8-8.7-2.9-.4-2.9 3.6-.3Zm-13-4.7.7 1-.9 1.2-2.8-1.3 3.1-.9Zm4.3-.4 2.1.2.2 2.7-5 .4zm11.8-6.4 9.4 3.2-6.5.6-3.6-1.2-2.3 1.5-3.4-1.8h4.3l.2-1.6-1.5-.6 3.4-.2Zm-22.2 1.5 2-.9.5-2 3.7-.9-.5-3-2.3-.4-1.1-2.7 2.5-2.7 2.4-.5 2.6-4.1h3.6c0-.1 1-2.8 1-2.8l3.8.3 1.5-2.2 6.5.5 2.5-2.8-1.7-2.2 1.6-1.8-1-2.3 7.6-5.9-8.3-7.9 1.4-4.4 5.2.7-.8-2.5 3.3-.4 4.1-2.8 3.6.2 13.7 11.6.7 4.8 2.2 3.6 5.1 2.3 2.3 4.1 6.6 5.8 11.6 15.1 2.6-.2 6.3 6.1 6.8-.3 2.7 1.8 2.2 4.7-2.4 7.1 6.4 12 .7 3.6 4.4.8 2.2 1.7 1.9 3.4-.4 2.5 1.2.3-2.9 2.7-4.3-1.1-1.8.9v1.6c.1 0 3 .9 3 .9v2.3l-2.2 2.4-1.2-2.1-3.9-1.8-2.5-2.8-7.2-2.6-5.2-4-.5-2.1-2.3-.7-2.3-4.2-13.7-15.1-13.8-1.5-2.9-3.5-4 .6-9.9-6.8-11.7-1.3 4.3-2.3 3.1.2-.5-1.1-9.9-1.8-4.9 3-7 1.7-6.6-1.1-1.3.9 4.8 1.2.2 1-5.3 2.5-4-1.6-.7 1.1-1.8-.4.4-1.4-2.4.5.2-1.9Z"/><path id="HR-18" d="m28.8 206.8 2.8 2.2h-2.1c0 .1-.3-1.1-.3-1.1l-1.7-.9 1.2-.2Zm22.6-69.9 4.3 3.3 3.9.4v3.5l1.4 2.5 6.4 4.1-1.6 2.7 2.6 6.9-1.7 2-.5 5.4 1.3 5.4-.6 5.6 2.1 1.4-4.1 8.4-1 1.1-1-.8-.6 1.4 1.1 1.1-.3 3.7 1.4 5-1.9 3.4-3.5-1.5-3.6 3 .7-3 1.8-.8-1.5-3.4h-2c0 .1-.7-4.5-.7-4.5l-.7 5 2.6.7.6 1.9h-1l-1 3.6-.2 1.2-1.9 3.9-1.9 1.4-2.1-1.1v1.1l2 1-2.1 5.3 2 4.4h-4.5l-3.3-3.2-.7 1.5 2 1.7-.3 3.2-1.2.9-.3-4.8-4-.8-.7-1 1.1-1.1h-2.3l.3-2-3.3-1.5V213l3.3 1.4 1-2.3-2.5.8-1.9-1.6 1.6-2.8-4.3-8.4h-2.3l-2.1-2.8.2-1.6H24v-3.4l-5.3-2.3 1-.2.3-3.1-2.9-2.2-.8-3.1 1.2-2.1-1.9-2.1 1.3-.5-2-2.2 1.7-5.4-2.3-2.5.8-1.5h1.8l-3-2.6 1.9.2 2-2h-4.6c0-.1.3-1 .3-1l-2-.8v-2.7c-.1 0 1.3-.8 1.3-.8l-1.1-.3-.5-4.8-1.7-1.7.7-2.6-1.1-.5v-3.8l-1.6-2 1.1-1.8 2 .4 12.5 7 6.3-3.4 3.8 1.5 1 3 5.4 1 2.7-3.3 3.5-.6 1.8 1.1 1.3-1.1.3-3.2-2.6-2.5.6-1.1 2.6.5.6-1.4 1.5 1Z"/><path id="HR-19" d="m388.3 468.5.3 1.8-2.9-1.6 2.5-.2Zm-4.3-.9.9 1-2.2.4-2.1-1.7 1.2.3.8-1.3 1.3 1.3Zm-13.4-7.2 3.1 1.3v1.2l-2.9-2.1-.2-.3Zm2.3-.8h1.8l5.1 3.8-.3 2.7zm-81.2-1.7h5.6c0 .1.3 2.1.3 2.1l-2.8 2.9-1.5.4-1.6-1.6-2.2 1.6-2.4-2.9 1 .3.8-3.6 2.9.7Zm42.4-3.4h2.2l-2.2 1 .6.6h5.2l13.2 4.7.2 1h3.6c0-.1.6.8.6.8l1.6-.8.2 1.2 6.4 1.8.4 2.3-8.9-3.2-11.5-1.8-4.3-2.4-1.2 1-2.9-2.1-1.7-.5v1.2l-4.9-2.1.3-1.3 3.1-1.7Zm-56.9-21.9 13 4 5-1.6 11.7-1.1-.2.8 5.5 1.7 2.2-.5 2.1 4.1 3.6 1.3-7.1 1.2-6.1-1.9-6.2-.4-9.3 4-1.4-.5.4-1-6.6.3-8.7-2.9-.6 1.5-2-2.4 2.5-.7-.5-1.2 4-.4-4.7-3.2-.8 1.3-1.5-1.3 5.7-.9Zm26.4-6.3 5.2 2.5 8.2-.2 11.2 2.6 12 5.9.5 2.7 3.4 2.1 3.3.8-1.1-2.4h.9l10.2 6h2.6c0 .1 4.4 4.3 4.4 4.3h1.1c0-.1-3.8-3.9-3.8-3.9l-4-2.1.8-1.3 2.7-3 2.9.5 5.3 3.5 2.1-3.3 3 2.5 1.8 6.7 2 .6-.4 2.7 4.9 1.3 3.8 2.4 1 2.5 2.8.6 5.4 4.1v2.8l3.4 1 1 2.7 2.3-.3 5.9 7.1 6-2.8 3.7.5 5.8 5.9 1.5 6.6-.7 3.3 5.7 6.5-.7 2-4.7-5.5h-1.9c0-.1-16.3-12-16.3-12l-1-1.9.6-2.8-1.8-2.6-2.3.9-4.6-2.9-5.5-1.2 1-2.1-16.4-10.7.9-2.8-1.8 1.3-2-3.1-4-.5-1.1 2.3-3.3-2.6 2.2 3.6-.8 2-1.8-3.6-2.6-.4-2.6-2.3-1.7.5-17.6-6.3-1.5-.9 1.8-2-2.8-2.1-4.7-.3-12.2-7.8-7 .8-5.5-1.2-4.5-2.5 1.6-2-1.6-.4-.6-2.1Zm39.5-13.1 13.7 8.4 6.1 13.4-8.3 3.6h-6.5l-5.5-5.5.8-1.6-1.8-2.6-2.3 1.1-.7-6-1.2 3.1-5.1-6 2.2-2.4v-2.3l-2.9-.9v-1.6c-.1 0 1.6-.9 1.6-.9l4.3 1.1 2.9-2.7 2.7 2.1Z"/><path id="HR-20" d="m252.5 13.8 7.4 2.7 2.7 3.4 11.1 2.1 5.3 8.5 1.4-.9 2.1 2.5 3.2-.7 4.7 4-2 8.1-2 .3-.4-3.1-1.2 1.6-.4-1.1-1.5.8-3.3-.6.5-2.3-2.8 2.1-1.8-1.7-6.5 1.7-3.7-2.8-1.5 2.1h-2.4c0-.1-.1.7-.1.7l-4.7-1-.5-1.5-3 1.6-1-1.1H249l-2.6-4.3-3.4-1.8 1.5-3.1-3.1-3.8-1.7-7.5 1.5-2.8 6-1.5.5-1.5 1.7-.2.8 1.4 1.6-1.6.9 1.5Z"/><path id="HR-21" d="m231.4 82.2 1.9 3.9v4.8c.1 0 2.2.9 2.2.9l2.6 6-2.5 1.3-.4 4-4.5-1.3-.9 1.9-8.7 5.4-1 3.3-2 .4-.7 4.8-2.9 6.2-1.7 1.4h-3l.3-2.7-3-3-7.5-3.6-.7-3.1 2.5-3.4 4 2.6 1.4-1.1.6-2.5-4.4-2.9 1.7-2.1-1.4-4.9 1.4-2.7 9.5-6.2 10.7-5.7 2.9-.3.6-1.5h3.2Z"/></g></svg>