<?xml version="1.0" encoding="UTF-8"?>
<svg id="Layer_1" xmlns="http://www.w3.org/2000/svg" xmlns:amcharts="http://amcharts.com/ammap" version="1.1" viewBox="0 0 512 512">
  <!-- Generator: Adobe Illustrator 29.1.0, SVG Export Plug-In . SVG Version: 2.1.0 Build 142)  -->
  <g id="_x3C_defs">
    <amcharts:ammap bottomLatitude="48.551226" leftLongitude="12.090946" projection="mercator" rightLongitude="18.859518" topLatitude="51.055243"/>
  </g>
  <g>
    <path id="CZ-JC" d="M129.5,290.9l7.9-1.2,4.4,2.7,4.8-2,3.1-4.7,2.5.4v3.2c0,0,3.8.1,3.8.1l6.3-.5,1.3-3.5,3.5-.4,4.2,4.5,6.1-1.2-.5-2.4,4.3,3.1.9-1.6,6.1,1.6,2.1-1.4-.5,2.9h3.8c0-.1.9,1.7.9,1.7l2.7-4,3.9-1.2-.5-5.5,2.8-2.8,5.8,5.2,2.3-1.3,1,3.8,3,.4h0l.8,2.9-3.1,1.1,2.4,3.6-3.3,12.1,3.3,2.4-2.2,2.6,5.5,6.6,3.8-2.4,5.5,3.1-.3,2.3-1.9-.5,3.6.6,1.2,2.9,3.8-1.7,4.5,3.5,6.6-1.3-.4,5.7,6.5,5.5,1.3-1.7,2,1.5,7.3-1.1,2.2,6.1-3.2-.2-1.4,5.8-3.4,3.1,7.3,5.5h0l-3.3,4.6h0l-5.3-4.9-14-4.8-1.3,4.6-7.5,1.3-.3-5.7-11.9-2.5-.9,19.4-2.3,5,1.7,3.3-12.3-1.2v5.1c0,0-6.1,5.2-6.1,5.2l-1.9,11.7h-2.7c0,0-3.9-5.2-3.9-5.2l-3.7,2.7-4.3-1.4-2.4-3.5-1.9.6-1,6.1-3.2-.5v2.3c.1,0-2.2-.3-2.2-.3l-1.8,2.5-4.6-3.3-15.1-1.6-4.2-4.9,3.6-3.9-13.7-10.4-4.5-.8-5.5-12.5-4.9.7-3.1-7.7-1.6,1.2-2.1-3.7-2.2.3h0l-.5-5.8,4.4-4.1-1.2-10.2,3.1,1.1,4.7-3.1-.2-2.7,2-.9-2-3.3,2.7-3.8-2.1-2.5,2,.2-.3-3.7,3.7-1.6,1.3-4.5-2.3-3.9,2.1-4-2.8-5.9,1.2-3.1Z"/>
    <path id="CZ-JM" d="M416.8,365.6l-7.5,4.3-7-3.3-6.6,3.6-3.2-3.5-9.3-3.5-11.2,12.3-7.6,16.5-1.7-.7-1.2-10.6-7.5,1.3-5.6-3.6-3.2,1.1-1.3-5.9h-5.2c0-.1-3.9-3.7-3.9-3.7l-6.7,1.6-5.2,7.9-2.8-2-.7,1.7-16.9-1.5-8.1-3.7-3.2-3,.5-2-4.7-1.3-4-4.8-4.5.3-2,2.6-4.4-.4-5.5-4.6-5.7-1.3h0l3.4-4.6h0l1.9-1.1,2.7,2.3.9-2.9,3.3-.4,1.7,2.4,6.5-7.2,4.2.2.7-3.4,2.4,1.1,3.2-3,2.6,3.3,2.7-2.4,3.9,1.9,12-7.8,1.6-3.3-.7-1.7-1.8.9-.7-3.1,3.6-4-2.7-1.3,1.1-4.5,2.6-.6-2.1-3.8,2.2-3.8,7.2-3.9-1.6-9.5,1.8-3.7-2.6-2.7,2.4.7,2.4-3.5-3.4-3.2,1.3-3.4h0l1.1,1,2.7-3,7.3,1.1,1.1-4.6,18.4,3.6h0l-.7,2.9-3.7-.9-.7,4.4,7.1,1.3-3.4,2.5.7,6,2.3,2.4-2.4,2.7,4.7,3.5,3.8-5.9-2.3-5.2,4.4-1,4.4,10.8,3.1.9.8-2.1-1.4,4.7,8,4.3,1.4,5.7h0l-2.2,3.3,2.7,6.2-1.5,1.7h4.2c0,.1-6.7,11-6.7,11l7.7-1.7.6,6.7,10.2,3-.5,3.1,3-.5,2.9,3.6,4.8-2,3.8,2.4-.7,2.8,4.6,1.4,3.4,6.4Z"/>
    <path id="CZ-KA" d="M64.9,185.7l4.2,3.1h0l11.1,2.6,1.3,4.1,6.9-1.6,2,2.9-1.2,10.7,2.5,1.8-1.6,2.2,2.1.3,1.9,4.3-1.6,1.2,1.3,2.3-3.9.4,3.3.7,2.1,3.3h-1.5s0,5.4,0,5.4l-3.6.3v6s-10-4.4-10-4.4l-10.2,7,.4,3.5-2.8,2.6-10.3-2.2-6.3,1.6-1.7,4-2.5-2.9-3.8,2.6-3.2-1.4h0l-5.9-4.4,1.4-4.3-2.2-1.6-2.1,1.2v-2c0,0-7.7-3.5-7.7-3.5l-.8-2.3-4.2-.6,1-2.1-5.6-3.8,1.2-6.8-4.9-7.7-4.3-1.6,3.6-3-2.9-4.9,6.2-.5,1.2,5.8,4,.2.8,2.3-2,.5,4,2.9-.3,5.1,3.5.5-.4-8h2.2s2.9-9.3,2.9-9.3l6.7-3.2,1.7-5.5,11.9-2.3,2.5,2.3,2.1-4.1,4.4-2,1.1,2.1.7-3.3,5.4,3.3Z"/>
    <path id="CZ-KR" d="M262.3,145.5l10.7,4.7,8.1-2.1,3.4,9.4,9.5-1.1,2.3,6.3-2.6,1.9,2.7,1.7,5.9-7.5,6.2,4.1,2.3-.8,1.2-4.3,8,1.1,7.5,9.7-2.9,1.2-.3,4.7-3,3.1-3.5-.6-8.6,8.6,6.2,7.6,1.9-1.8,4.2.4,1.6,5.8,3.9.9,9.1,11.5,1.8,9h0l-6.9-2.6-1.3,3.3-9.5,5,.9,1.8-3.3,1.9,1.6,2.4-6.2-.2v-1.5c0,0-3.8,1.9-3.8,1.9l-9-5.5-.8-2.9h-3.9s-1.4-5.2-1.4-5.2l-5.4-1.6-6.1,4.6-4.5-5.1-6.4,5.7-3-1.7-4.6.8-1.3-1.9-3.4,1.7v2.1s-5.9,1.3-5.9,1.3h0l-2-3.9-5-.7,3.6-5.7-1.4-10.3-2-1.8-3.3,2.2-7.4-1.6.7-2.7-6.3-3-2.1-3.7,4-3.6-3.2-10.9,2.3-2.3h0l5.8,3.3,3.2-3.7,7.6,3.6.8-1.5.9,3.3,3.7-1-.4-3.8,3-2.9,4.3,3.8,7.1-1.1-4.5-6.8,2.3-3.9-2.7-2.7.6-11.5-3-5.1h0l2,.3Z"/>
    <path id="CZ-LI" d="M222.3,116.6l6.3,1.5v2.5s2.7-.3,2.7-.3l2-3.3,1.5,4.7,3.8-2.1,3.8,5.2-1.8,2.6.7,4.9,6.7,6.4.4,6.7,4.8-3.5,7.1,3.3h0l3,5.1-.6,11.5,2.7,2.7-2.3,3.9,4.5,6.8-7.1,1.1-4.3-3.8-3,2.9.4,3.8-3.7,1-.9-3.3-.8,1.5-7.6-3.6-3.2,3.7-5.8-3.3h0l-3.3-1.1-2.7-4.5-1.9.7-2.5-4.6-2.8,1.5-3.2-3.1-10.2,12.6-4.5-1-2.6,4.4-7.4.8-.9-4.3-2.2,1.7-2.7-1.6-.7,2-1.3-1.5h0l-7.7-11-2.3-8.8,2.2-1.8v-3.4s3.8-1.8,3.8-1.8l-.2-3.5,2.2-1.7-1-3.6,8,1.6,1.2-4.7,3.8-2.4h0l11.1,4.6,2.2-.3,2.5-6,12.6.8-.9-6.6,2.4-5.2-4-2.7,3.8-4Z"/>
    <path id="CZ-MO" d="M423.4,200.7l-1,5.1,2.9,2.4-.5,3.4-12.2,5.4,4.2,5.6,3.5-.6,2.4,2.2,3.5,9,3.7,1,3.1,4.4,3.7-.6,6.3-4.6,3,1.5v-3.6s-3-.3-3-.3l2.2-3.1,4.1,2.5,2,5.6,2.8,1.4,3.9-1.8.6,3,4.6.9,3.1,5.7,2.5-2.2-1.4-1.6,7.1,1.2,4.4,3.9,6.2-2-.5,4.7,2.9,2.1-2.6,3.8,4.1,12,6.2,2.1,2.4,3.2,5.1.3,3.6,14.1-1.3,3.3-6.3,3.5-14.1-2-6.7,11.2-5.2,1.5h0l-2.9-1v-3c0,0-5-6.7-5-6.7h-7.2c0,.1-5.5-3.4-5.5-3.4l-9.6,1.9-1.8-3.9h-4.3c0,0-.8-3-.8-3l-3.7,1.5.7-3.4-8.7-10.9h-3.9s.3-6.7.3-6.7l-4.7-1.9-2.8,2.1-4.5-3.1-1.1,2.4-2.7-2.1-4,.3-5.3-6.4-2.5,1.6-5.4-3.2-2.6.9.6-4.7-2.9,1.6-2.8-3.8,3.9-9.2-3.3-2.9,6-9.1.5-9.3,5.1-5.1,2.2.4,2.8-4.4,2.9,1.5,1-5.2h0l4.7-2.4,8.9,1,5.4-4v-3.1s3.7,3.1,3.7,3.1Z"/>
    <path id="CZ-OL" d="M362.6,184.1l4.2,3,10,1.5,2.5,2.8,4.5-.6-.2,2.5,3.5,3.7,3.2,1.7,4.3-1.2v7.3s3.1-2,3.1-2l3,3.3h0l-1,5.2-2.9-1.5-2.8,4.4-2.2-.4-5.1,5.1-.5,9.3-6,9.1,3.3,2.9-3.9,9.2,2.8,3.8,2.9-1.6-.6,4.7,2.6-.9,5.4,3.2,2.5-1.6,5.3,6.4,4-.3,2.7,2.1,1.1-2.4,4.5,3.1,2.8-2.1,4.7,1.9-.3,6.7h3.9s8.7,10.9,8.7,10.9l-.7,3.4,3.7-1.5.8,3h0l-1.1,3.1-4.3-1.3-4.8,7.3h0l-.4,2.4h-3.8s-2.1-2.9-2.1-2.9l-2.1,2.7-1.2-1.4h0l-1.9.3,2,3.8h0l-1.6,1.8-9.3-.3.9,2.1-3.1,3.2-1.9-2.7-5.5-.2-.4-3.9-2.7,3.5,1.7,4.5-4.6,4.7-7.4.6-1.2,3.2-1.4-.8h0l-1.4-5.7-8-4.3,1.5-4.7-.8,2.1-3.1-.9-4.4-10.8-4.3,1,2.3,5.2-3.8,6-4.7-3.5,2.3-2.7-2.3-2.4-.7-6,3.3-2.5-7.1-1.3.7-4.4,3.7.9.7-2.9h0v-6.4c0,0,3.1-2.9,3.1-2.9v-4c0,0-4.2-1.2-4.2-1.2l1.1-4.7-5-7,2.3-5.3-4.1-14.2,2.7.5,4.7-4.2-.5-8.8,4.5-10.4h0l8.2-5.3,1.7,3.3,2.2-1.6-1.8-8.3-4.1-1.5-2.8-8.5-3.7-2.1,1.7-4.1,2.6-.2Z"/>
    <path id="CZ-PA" d="M358.7,212.5h.1s-4.5,10.4-4.5,10.4l.5,8.8-4.7,4.2-2.7-.5,4.1,14.2-2.3,5.3,5,7-1.1,4.7,4.3,1.2v4c0,0-3.3,2.9-3.3,2.9v6.4h0l-18.4-3.6-1.1,4.6-7.3-1.1-2.7,3-1.1-1h0l-14.5-11.1-6.7-.5-7.6-6.3-2.9,5.5-3.1.6-5.3-3.8,1.2-3-6.6-1.3.5-2.8-3.3.2-5.3-4.2-5.4.9-7.1-6.1h0l2.5-11.6-12-8.7,2.5-1-1.6-1.5,2.4-.3-.8-2.8h1.8c0-.1-1.5-2-1.5-2h2.6c0,0,5.9-1.4,5.9-1.4v-2.1s3.4-1.7,3.4-1.7l1.3,1.9,4.6-.8,3,1.7,6.4-5.7,4.5,5.1,6.1-4.6,5.4,1.6,1.4,5.2h3.9s.8,2.9.8,2.9l9,5.5,3.8-1.9v1.5c0,0,6.3.2,6.3.2l-1.6-2.4,3.3-1.9-.9-1.8,9.5-5,1.3-3.3,6.9,2.6h0l9.2,5.3,5.8-5.6,2.2-5.4,3.7-.8Z"/>
    <path id="CZ-ZL" d="M469.8,303.2v-3c0,0-5-6.7-5-6.7h-7.2c0,.1-5.5-3.4-5.5-3.4l-9.6,1.9-1.8-3.9h-4.3c0,0-1.1,3-1.1,3l-4.3-1.3-4.8,7.3h0l-.4,2.4h-3.8s-2.1-2.9-2.1-2.9l-2.1,2.7-1.2-1.4h0l-1.8.2,1.9,3.9h0l-1.6,1.8-9.3-.3.9,2.1-3.1,3.2-1.9-2.7-5.5-.2-.4-3.9-2.7,3.5,1.7,4.5-4.6,4.7-7.4.6-1.2,3.2-1.4-.8h0l-2.2,3.3,2.7,6.2-1.5,1.7h4.2c0,.1-6.8,11-6.8,11l7.7-1.7.6,6.7,10.2,3-.5,3.1,3-.5,2.9,3.6,4.8-2,3.8,2.4-.7,2.8,4.6,1.4,3.4,6.5h0l4.1-.7,5.8-7.2,7.4-.4,3.5-10.6,10.3-1.8,3.4-6.4,2.3-17.3,2.8-4.5,13.4-4.3,2.8-3v-5.2c0,0-2.9-1-2.9-1Z"/>
    <path id="CZ-PL" d="M95.2,224l2.4,1.4,1.6-1.7,1.2,2.7,2.8-1.3h0l1.5,3.1-2.3,3.5,8.5-1.1,1.6,1.2-2.5.5,5,3.7,7.3-.3,2.4,3.7h3.5c0,0-.3,2.8-.3,2.8l6.5,1.5.2,6.8h-1.9s-1.9,12.2-1.9,12.2l2.7.8-10.8,6.6.6,2.3,3.5-.3-3,1.9,2.2,1.9-.7,1.9,3.4.9-1.2,8.6h2s.1,3.6.1,3.6h0l-1.2,3.1,2.8,5.9-2.1,4,2.3,3.9-1.3,4.5-3.7,1.6.3,3.7-2-.2,2.1,2.5-2.7,3.8,2,3.3-2,.9.2,2.7-4.7,3.1-3.1-1.1,1.2,10.2-4.4,4.1.5,5.8h0l-3.2-.2-.9,3.1-6.8-5.1-.7-7.5-7.7-7.3-4,.5-4.2-2.6-.5-4-10.2-10.4-.4-4.5-4.2-3.4-14.1-1.4-1.8-5.4-7.4-4.5-1-10.1-4-1.6-2.2-9.3-2.4.2-.5-7.8-5.9-2-2.8-4.5v-2.1c-.1,0,5.1-2.9,5.1-2.9l.2-5.6,5.7-8h0l3.2,1.4,3.8-2.6,2.5,2.9,1.7-4,6.3-1.6,10.3,2.2,2.8-2.6-.4-3.5,10.2-7,10.1,4.4v-6s3.6-.3,3.6-.3v-5.4s1.5,0,1.5,0Z"/>
    <path id="CZ-PR" d="M186.2,215.8v.3h.1l2.2,1.3-1.2,1.2,3.4-.9.5,2.8,7.7,4.3-.4,2.3-4.4,1.8,1.5,1.3h0l.6,3.1h0l-2,2.9-4.3-2.6-4,.6-5,4.4-4.5.3-.4,3.2-5.3-2,1.4-3.7-2.6-.6-.3-3.9-4.1-3.4,3.4-2-5.3-2.8,6.1-3.1.5,1.7,3.7-.2.4-3.7,12.1-2.7h0v.2Z"/>
    <path id="CZ-ST" d="M182.6,177l1.3,1.5.7-2,2.7,1.6,2.2-1.7.9,4.3,7.4-.8,2.6-4.4,4.5,1,10.2-12.6,3.2,3.1,2.8-1.5,2.5,4.6,1.9-.7,2.7,4.5,3.3,1.1h0l-2.3,2.3,3.2,10.9-4,3.6,2.1,3.7,6.3,3-.7,2.7,7.4,1.6,3.3-2.2,2,1.8,1.4,10.3-3.6,5.7,5,.7,2,3.9h-2.6c0,0,1.5,2,1.5,2h-1.8c0,.1.7,2.9.7,2.9l-2.4.3,1.6,1.5-2.5,1,12,8.7-2.5,11.6h0l-5.7,3.3v4.6c0,0-2.8-.8-2.8-.8l-2.6,3.5-9.3,1.9-3.2,7.4.6,2.3,3.6.4.6,4.7-5.3,1-.7,2.8-3.3-2.4-4.6,1.9-5.6-1.4.5,2.9h-3.4c0,0-.5,3.4-.5,3.4h0l-3-.4-1-3.8-2.3,1.3-5.8-5.2-2.8,2.8.5,5.5-3.9,1.2-2.7,4-.9-1.8h-3.8c0,.1.5-2.8.5-2.8l-2.1,1.4-6.1-1.6-.9,1.6-4.3-3.1.5,2.4-6.1,1.2-4.3-4.5-3.5.4-1.3,3.5-6.3.5h-3.9c0-.1,0-3.3,0-3.3l-2.5-.4-3.1,4.7-4.8,2-4.4-2.7-7.9,1.2h0v-3.6c-.1,0-2.1,0-2.1,0l1.2-8.6-3.4-.9.7-1.9-2.2-1.9,3-1.9-3.5.3-.6-2.3,10.8-6.6-2.7-.8,1.9-12.2h1.9s-.2-6.8-.2-6.8l-6.5-1.5.3-2.9h-3.5c0,.1-2.4-3.6-2.4-3.6l-7.3.3-5-3.7,2.5-.5-1.6-1.2-8.5,1.1,2.3-3.5-1.5-3.1h0l1.2-2.2,2.7.3.6-3,1.5.6-.2-4.5,4.3-2.9h4.5c0,0,4.6-4.8,4.6-4.8l5.9,1.1,4.7-4.5,3.9,2.3.9-3.1,5.8-2.5-.3-1.8,2.9.4-.7-3.5,1.9-1.5,17.8,2,2-3,6.7.3-.5-9,4.6.8v-3.6c.1,0,3.8.4,3.8.4l-1.2-5.5,2-1ZM195.6,230.2h0l-1.5-1.3,4.4-1.8.4-2.3-7.7-4.3-.5-2.8-3.4.9,1.2-1.2-2.2-1.3h0l-.2-.4h0l-12.1,2.7-.4,3.7-3.7.2-.5-1.7-6.1,3.1,5.3,2.8-3.4,2,4.1,3.4.3,3.9,2.6.5-1.4,3.7,5.3,2,.3-3.2,4.5-.3,5-4.4,4-.6,4.3,2.6,2-2.9-.6-3.1Z"/>
    <path id="CZ-US" d="M171.7,114.7l2-.6,4.1,3.1,2.7-2,2.8,1.5.6-2.7v2.9c-.1,0,4.7,1.5,4.7,1.5l2.7,3.5-2.6,7.2,6.2-1.5-2.2,8.6h0l-3.8,2.4-1.2,4.7-8-1.6,1,3.6-2.2,1.7.2,3.5-3.9,1.8v3.4s-2.1,1.8-2.1,1.8l2.3,8.8,7.7,11h0l-2.1,1,1.2,5.5-3.7-.4v3.6c-.1,0-4.7-.8-4.7-.8l.5,9-6.7-.4-2,3-17.8-2-1.9,1.5.7,3.5-2.9-.4.3,1.8-5.8,2.5-.9,3.1-3.9-2.3-4.7,4.5-5.9-1.1-4.6,4.8h-4.5c0,0-4.3,3-4.3,3l.2,4.5-1.5-.6-.6,3-2.8-.3-1.2,2.2h0l-2.8,1.3-1.2-2.7-1.6,1.7-2.4-1.4h0l-2.1-3.3-3.3-.7,3.9-.4-1.3-2.3,1.6-1.2-1.9-4.3-2.1-.3,1.6-2.2-2.5-1.8,1.2-10.7-2-2.9-6.9,1.6-1.3-4.1-11.1-2.6h0l5.4-5.1.8-7.1,4,1.2,3.4-2.2,4.7,1.8,3.8-10.3,5.6,1.4.2-3.2,3.8-2.3-.3-2.6,7,5.4,4.3-4.2v-7.7c.1,0,10.4-3,10.4-3l3.2,1.7,1.4-1.9,9.6.7,3.1-2v-5.7c.1,0,2.9.3,2.9.3l3.9-3.4,3,1.8,3.5-.9,10.9-5.6.7-3.2,2.5-.9,2.7,1.3,6.2-1.7.8-4.4-6.4-2.2,1.1-3.5-4.9-.4,1-6,3-1.9,1.5,1.8Z"/>
    <path id="CZ-VY" d="M257.6,251.3l7.1,6.1,5.4-.9,5.3,4.2,3.3-.2-.5,2.8,6.6,1.3-1.2,3,5.3,3.8,3.1-.6,2.9-5.5,7.6,6.3,6.7.5,14.5,11.1h0l-1.3,3.4,3.4,3.2-2.4,3.5-2.4-.7,2.6,2.7-1.8,3.7,1.6,9.5-7.2,3.9-2.2,3.8,2.1,3.8-2.6.6-1.1,4.5,2.7,1.3-3.6,4,.7,3.1,1.8-.9.7,1.7-1.6,3.3-12,7.8-3.9-1.9-2.7,2.4-2.6-3.3-3.2,3-2.4-1.1-.7,3.4-4.2-.2-6.5,7.2-1.7-2.4-3.3.4-.9,2.9-2.7-2.3-1.9,1.1h0l-7.3-5.5,3.4-3.1,1.4-5.8,3.2.2-2.2-6.1-7.3,1.1-2-1.5-1.3,1.7-6.5-5.5.4-5.7-6.6,1.3-4.5-3.5-3.8,1.7-1.2-2.9-3.6-.6,1.9.5.3-2.3-5.5-3.1-3.8,2.4-5.5-6.6,2.2-2.6-3.3-2.4,3.3-12.1-2.4-3.6,3.1-1.1-.8-2.9h0l.5-3.3h3.4c0,0-.5-3-.5-3l5.6,1.4,4.6-1.9,3.3,2.5.7-2.8,5.3-1-.6-4.7-3.6-.4-.6-2.3,3.2-7.4,9.3-1.9,2.6-3.5,2.9.8v-4.6c0,0,5.6-3.3,5.6-3.3Z"/>
  </g>
</svg>