<svg xmlns="http://www.w3.org/2000/svg" xmlns:amcharts="http://amcharts.com/ammap" id="Layer_1" viewBox="0 0 512 512"><g id="_x3C_defs"><amcharts:ammap bottomLatitude="54.559" leftLongitude="8.075" projection="mercator" rightLongitude="15.158" topLatitude="57.752"/></g><g><path id="DK-84" d="M477.6 367v.7l1.9 1.6 1.3 3 3.5 1.9.6 1.1 2.6 1.1 1 1 .6.2 1.8-.7 1.4 2.6 2.2 2.1 1.5.6 3.3 2.6 2.1.9h1.3l.6 1.1h.6v1.4l-.9 1.2 1 3.7-1.4 1.8v1.4h-.7l-.3 1.2-1 .9.8 1.5v1.5l-2.7 3.2-8.3-1.9-2-1.4h-.7l-2.7-2-2.9-1.3-.8.2-2.6-1.6-1.3.2-2.2-1.4-1.4-1.9-2.3-1.4.5-.5-.3-.5.4-.9v-1.8l.5-1.1-.5-6.5.8-4.8 2.9-5.6.3-1.1-.4-1.2 1.5-1.5zm-142.9-41.1-.4-1.3.4-.2.2-2.9 1.8-1.1.7 1.5.3 4.7.5.3-.3.6.7.7-2.1.5-.7-1.8-.8.2-.3-1.1Zm-7.5-7.7.2.3-1.1.8.7 1.2-.4-1.2.7-.6.3.6h.4c0 .1.3.6.3.6l-.7.9-.6-.3v.8c.1 0 1.9 3.3 1.9 3.3l-.2.5 1.5.2.4.5v1.9l-.8 1.1.4 1.3.5.2-1.3 1.3-2.2.7-2.8 2.7-2-.7-.5-1.8-1.1.2-.9-.5-1.1-2.2-.2-1.8 3-4 1.1-2.6 2.6-2.8.3-1.6h1.2l.2.4.3.4Zm-45.4-27.7 1.3-.2 1.4 1 .2.9-1.8 2.3-.2 2.3.3.6 2 .9.6 4.5 1 .7-.8.4v.9l.2.4 1-.2-.4 1.6 1 2.2-.8 1.2.6.5v2.8l-1.1-.4-2.8 1.3v-1.5l-.8.3-.4-1.1-.7 1.3-3.4-1.9-1.9 1.7-2.1-.8-1.3.2v-2l-.4.2-.3-.6h.5l.4-.8.4-4.2 1-.6v-1.6l2.4-.8.6.5 1.4-.6 1.3-3.7-1.1-2.4-.8-.4-.2-2.2-2-3.3.3-2.4 4.1 1 1.4 2Zm22.8-26.5 2.7.7 2.5 2.3 3.5 1 4.4.2 2.9 1.4 4.7 4.5 1.3.6-.7.2v.7l-1.2 2.4-2.3 2.2-3.3 9.2 3.9 9.2.3 4.5 1.3 2.9-.2 1.7.6 1.9-1.5 3.4.5.6-.2 1.4.4.4.8-1.6 1.5 1v.4c-.1 0-.8.6-.8.6l-1.1-.4.4.7h-.7c0 .1.6 2 .6 2l-.5 1.5-2.2 2-.7 1.9-.5 1-1 .9v-.8l-1.7.3-.9 2 .7.6-.9 1.8-3-.5-.3-1-.2-.4h-2.8c0-.1-.5.1-.5.1l-.3.5.7.5-2.6 1.5-.6-.5-1.3-1.2-4.3-1.8-2.3 1-.6-.9-1.4.4-.4 1.6-3.5-1 .5-2.6h-.7l-.5-4.6 2.5-2.1h1.9c0 .1 2.7-2.5 2.7-2.5l-2.5-2.3.9-1.7-1.3-1.3-2.9.5-5.4-4.2-1.1-.7.3-1.6-.7-1.2-.4-2.5h-.4l-.5-1.7-.6-.2.3-1.7 1.2-.3.2-2.2-1.4-2.8v-1.8c.1 0-2-5.6-2-5.6l-2.9-.9-3.1 2.1-3 1-1.4-.4-.4.4-.9-.5-.7-2.6.8-1.2 10.7-6.8 3.8-3.5 8.2-6.1 7.5-2.6h1.6v.5Z"/><path id="DK-82" d="m165.8 308.4-.4 2.8-1 .7-1.9-.8-2.4.2-.9-.6 1-1.2 1.8.3 1.8-.5-.2-.8 1-3 1.2 3Zm-16.8-7.5.9.6-1.3 1-1.3-.6-.4-1 1.2-.5 1 .6Zm25.6-14.8-1.1.6-.6-.2-1.9-1.9 4.2 1zM12 279.4l1.6 5.7 1 .8-.2 2.7.5.4v1.6l-.3 1.2.9 2.4-.3 1.1 1.2 1.2-1.6 2.4v2.4c.1 0 1.1 1 1.1 1l-1.3.2-2.2-17.5-1.6-5.4 1.2-.4Zm171.6 7 1.6 2.1 3.3 1.6-.6.7-1-.4-1.4.8.6 2 .9.3-.3.5.5.9.8.5 2.3-1.2v1.6c.1 0-1.3 1.4-1.3 1.4l-1.2 2.8v5c.1 0-1.4 4-1.4 4l-2.9-.7h-2c0 .1-1-1-1-1l-.7-2.1v-7.1c.1 0 1.4-1.5 1.4-1.5l2-.2.5-.5 1.2-4.7-.4-1.5-1.1-1.4-1.5-1-1.5.2-.5-.8-.5-4.5 2.8-2.9.7 5.3.8 1.8Zm-135-80-.4.6h-.8l.8.9-1.3 2.2.2 3.6-1.2 1.3.7-1.3-1.2-3.7 1.9-3.4h1.2Zm-5.1-13.6.6 1.1-.7.7-.8 2.6 1 1.6.8.3.2-1.4-.9-.4.5-1.2h1.4c0-.1 1.3.5 1.3.5l.7-.4-.9 1.9.5.8-.4 1.4.6 1.1-2-1.9h-1.1c0-.1-.6 4.4-.6 4.4h-2.6l-1.4 1v.8l1.4.5.2.6-1.7-.4-1-1.1-2.2-5.7-4-3.8-1.6-.8v-.7l1.4.7 1.3-1.2 1.8-.6.5.3.5 1.4 1.6.6 2.3-2.1h.9l.4-.6 1.2.4.4-.8.3.3Zm214.9-6.3.9.2-3.2 2.3-2.9 3.6h-2.5l-2.2-3.5 1.7-1.2 2.2.4 6-1.9Zm-181-8.3 3.2 2.2-.4.9.3 1.2 1.4 3.7 3.1 4.1-2.8 2.3-1 1.6-.2 1.4h-1.4c0-.1.6 3 .6 3h-1.5l-2 2.1-.8 4.3.9 2.9v.9c.1 0-.3.2-.3.2l.5.6h1.3l1.1-1.6.2-4.3 1.4-.6.6.9.8.2 1.1-1.3v-1.1l-1.8.4-1.1-.5 1.9-1.7 1-2.7.3 1.2-.4 1.3 1.4 1.8h1l1.7-1.1 3.7.2-.4.2.3.5.7-.3.9.4.8 1.6h-.3v.9l-2.3 1.2-.8 2.4.7.3.4 2 1 1.4 1.5 1.3h.9l-.6 1.7 2.6-2.6 2.3.7-.3-2.1.6-1.9H98l-1.3 1.1-2.1.7-.9-.2-.7-1.4.7-4-.4-1.3 1.3-1.4v-2.3l1-2.3-.4-2.5h2.4c0 .1.8 1.2.8 1.2l2.1-.3v1.5l2.4 1.8 1.7.3 1.5-4.8h1.1l.2-1 2.1.2-.2 1.1h.7l.6 1-.9.9.2.7 2.6.3-.3 1.7 2.3.8 2-.4 3.1.4.4 1.8-2.2.8v3.6l2.3-1.3 2.5.6 2.6 3.8 3.2-.8 2.6 1.4 3.2-.7.7-2.3 4.2-.9.7-2 1.4.7 4.4-1.4 3.2-2.2 2-.6.5-2.9 2.5-.7v-1.6c-.1 0 2.7-1.8 2.7-1.8l-.2-.8.8.3 3.3-2.1 2.3.6 1.8-1h2l1 1 .7 4-.9.5.6 2.4-1.1 2-3.2 1.8-1.1 2.3-1.3.4-1.3 1.3-.8 2.5-1 .5-.4 1.5.9 5-1 3.4-5.9 2.3-.7-.2-.2-.7-2-.2-3.7 1.5v.2l3.8-1.2 3 1 3.8-1.7 2.3-.7 2.1.9 3.1-.2-3.9-.6-.4-.7-.2-5.1.8-3.5.8-.4v-1l1.4-2.2 2.1-1.9v-2h.6l.5.7 1.7.7.7 3.5 3.7 4.5 1.5 1 5.6 1.5 3.7-.2 7.8-1.9 4.9-.4 1.8-.7 4.9.9 1.7 1.7 1.1 3.9 3.4 2.2 1.7 1.7.6 1.4-.2 1-1.4.6-.7 1.5.2 1.6-.5.4-.4 3.2v4.4l-3.6 5.5-2.2 1.8-1.4 3.6-1.4 1.6-1.7.5-1.1 1.1-.8 1.5-.4 1.6.4 3.3-1.8 4.8h-1.8l-.6-.5-.2-1.1-2.3-1.8-.5-1.2v-1l1.2.5 1-.8.6-1.8-.9-2.3-.6-.5-2.9-.3-2 1.1-.6 2.1-2.4 2.7-.7 2.2 1.3 2.1.3 4.3-.8 1.4-2.3.9-2.2-5.7.7-.8h1.8c0 .1.8-2.7.8-2.7l-.6-.6-1.1.6-3.7-1.7-1.1.5-1.3 1.9H170l-1.1-.8-.4-2.2-1.8-1 .2-.9.8.3 3.3-1.1.2-1.3 1.2-.4.9.2-1 1.3.7 1 2.2.3 1-1-.9-1.7.2-.6-.9-.6-.7.7v-.5c-.1 0 1.8-2.1 1.8-2.1l.7-2 1.6-.2v-1.7c-.1 0-1.9-1-1.9-1l-.4.3-1.4-.3v-1.5l-.6.5-1.2-.6-.8.7-1.8-.4-.5.4.5 1.4-.9 1.1-1-.3-1.1 1.1.5 1.9-.7.6-.3-.3v1.4c-.1 0-2.3 1.1-2.3 1.1l-1.8 3.2-2.7 1.7-1.1 2.3.4.4-1.2.8v.9l.9-.7-.6 2 1.6-.9.3-1.2.3.5v.6l-2.9 1.7 2.7 5.3 1.6 6.6-.3 2-.8.4v-.6l-.8.2-1.2 1.5-.9.4h1.7l.9-1.5 1.7-.3.5.4-2 3.4v1.7l.9 2.7-.6 5.9-1.4.4-2.1 2.6h-1.1c0 .1.1 2 .1 2l.7 1.4-.9.9.4 1.4-.4.5-2.3-1.1-1.2-1.4.2-2-.8-1-1 1.3v1.4l-1-.2-1.6 1.6-3 .8v-1.1c-.1 0 1.4-2.2 1.4-2.2l3.9.7.3-.9-.5-1.4-2.7-.2-2.5 1-4.4-.5h-.4c0 .1-.5 1.6-.5 1.6l.3 1-2.4-.3-1.2.5-1.7-1.5v-.6h.7l-.2-.3-3.1-.3v.5c.1 0 1.3.3 1.3.3l1.2-.3.3 1.3-1 .3-.4.7.2 1.1 1 .6 7.5 2.1 1.4-1.2-.2 1 .4.2-.5.9 1.2-.8 1.6.2.9 1.7-3.2 3.4-.2 1.9.5.9 3.6.7.4.9h-2l-1.2 1.4-2.5.8v1.1c-.1 0 1.3.4 1.3.4l.7 2.3-1.2-.6-2.6.8-3.8.3-2.8.8-2.5 1.6-1.9.6-.8-1.1-1.7-.4h-2.6c0 .1-2.2-2.6-2.2-2.6h-1.1l-1.9-1.2.9-2.9-.2-1.7-2.1-1.3-.3.7-1.6-.5-1.6.8-1.2-1.5.8-1.1-.8-1-.4.8-2.8.2V306c.1 0-1.3-.3-1.3-.3l-1.2-5.1h-1.5v-.7l-2.5-.2.6-1.9-1.1-.5 1.4-1-5.2-7.1v-.8l-2.6-1.7-.3.3-.3.2-.3.3-1.9-.8-.4.3-1.6-.2-1.7-1.9-2.6-.2-1.7 3v1.7l-3.2 4.1-2.3 1.8-1.4-1-1.9 4.1-.8-.8-.9 1.8-1.1-.5-1.4 1.2-3.6-1.9.5-4.9-5.9-1.4h-1.1l-.7 1.9-1.1-.2-1.2 4.3-2 1.2 2.3 2.3-4.7 1.7-2.6-1-1-3-2.2-1.3-5.8 1.7-1.6-1.6-2.6.8 1 2.3-.7 1.2-1.7.3v2.8l-1.3 1.3h-3.2l-.6-1.4-1.8-.9.6-.4-3.1-.3-2-2.6-2 2.7h-2.6l-.9.5-3.3-2.6v-1.1L15 300l.4-2.5.8-.2.8-1.3v-1.1l-1-.8 1.2-.3-.5-.9.4-1.2 1.5.3v.6H18l1.4 1.8.3-.7.7-.2 1.5.7-1.3 1.5-.2 2.4.8.6.4-.9 3.6-2.5 3.9-4.5-1-1.6.5-.6v-2.9l-4.4-6.3-.7-5.3v-2.5c.1 0-5-4.3-5-4.3l-4.9-1.5-2.4-1.7 1.4 2.4-1 1.8-.5 5.9.7 3.6.7.2-1.1.5-.6-.2-.5.8-1.1-5.6.4-7.7 1.7-13.2v-5c.1 0-1-15.4-1-15.4h1.1l.2.3c0 .1.4.6.4.6l-.8 2 .2 2.6 2.4-1.1.2 1.7 1.6-.5 1.1.8 2.1-.2-.2.9.6 1.6-.7.4.7 1.1.5.2 1.8-1.2 1.7-2.8v-.4l-.7.7-3-1.6.7-.6-.5-1.5-1.1-1.4-3.5-2.7-1.7-4.2.5-.5-.4-2.4-1.2.4-1.1-.9v.7c-.1 0-.5-.1-.5-.1l.5 1.6-.6.6.5 1.6v.6l.3 1.2h-.8c0-.1.5.5.5.5l-.7.7.6.2v.5l-1.1.2.7-12.8-.7-6.5.6-4.3 3.2-12.9 2.4-5.4.7-.8.6.2v2.3l.6.8-1.8 2.2.9 1.3-.8.4-.7-.4-.6 3 .8-.2 2.2 1.1v2.4l.9.6 4 .9.3 1-1.6.4 1.1 2.5-.2 1.5.8.3v-2.6l1.4-.8 1.6.3 2.5-.5 7 3.4 1.9 1.4 1.3-.7 1.5-1.9.8-2.4v2.4l.7 1-.2 1.4.8.6 1.3 2.5-1.5 2.3-.3-.5h-2c0 .1-.6 2.2-.6 2.2l.4.4.6-1.9 2.9.7.9-1v1.9l.7 1.4 2.5.9L53 218l.4-2.3-.7-4 1.9-2.7-.7-1.6-3.7-3-.6-2.3-1.1-.5.4-1.9 3.2.3 2.1-2.1 1.2-1.9.7-2.5 2-2.5h.6l1.1.9 1.1-.8 1.2.3v-.8l.8-.5.8 1.2 1.9-.8-.2-1.1-.9-.4-.9.4-.3-1.2-.6 1.5-.9-.9-.8.6h-1.8l2-4.6 1.2-1.3-.6-1.3h1.5l5.6-4.8 4.8 2.2.6-.7-1.1-1.3 2.9-.4Zm-2-5.6 2.6.4-1.1.9.2.8 1.1.2-1.6 1.4-.6-.4-1.2.2-.5 2-.9.2v.7l-2.2-2-1-2.2-.9-.6.4-.6 5.8-1.2Z"/><path id="DK-81" d="m79.2 168.1-1.7-1.4 1-1.5 1.4 1.9-.3 1.1-.4-.2Zm-12.7-9.4-.2 1.2 1.1 3.6-1 1.3-1.2 5.4-.5.6v-2.6c.1 0-1 .2-1 .2l-.8-.9-1.1.2-1.1 2 .9 4.7.7 1.8 1.5 1.7-.2 1.5-1.1.3v.6l.7.7-1.7 1.5v2.6l-.7.4v1l-2.1 1.6-2.2 2.9.5 1.2-3.2 1.8-1.8-.3-4.3 1.8-.8-1.8.3-1.2-1.6-1.7v-1.1h-.7l-.6-.3.3-.7-.4-1h-.9v1.1h.9c0 .1-.7.7-.7.7l.6 1.1-1.9.7-.5-2.3 1.1-.4-2.1-2.1-2.6 2.3.5-3.1 3.4-1.5-1.3-3.7.8-.5.8.7.8-1.2h.8c0-.1 2.4.4 2.4.4l3.1-1.8-.2-1.5-3.7-.6.9-1.5 1.3.4.5-.3v-.8h-1.1l1.2-2-.2-3.1-.5-.7 2.3-.7 1.3.4 2.7-.5.7.3 1.4-1.2 4.2-.7.9-3.5 1.4-1.7.6-1.5.6.7h2.1l1.5-1.8.2-1.4h.4l-.1 1.2-1 1.2Zm66.3-12.8-1 .2-1.3-.6-.7-1.7 3.1-.2 1.2 1.1-1.2 1.2Zm11.7-2.7.9 2 2 1.6 1.9 1.7 3.1 3.4 3.8 2.8 2.8 1.1 4.9-.5-.2 2.2h-.6l-.5.9.6.6-1.4 2.2-.7 5.7 1 11.5 1.5 6.2 2.5 4v1.9l-.6.5-1.7-.9-3.3-.2-1.8-.9-1.6 1-.3.8-1.1.3-1.3-.7-.2-1.4h-1.3c0-.1-2.7 1.2-2.7 1.2l-.3 1.2-1.3.8-1.5-1-2.6 1-.8 1v.7c.1 0-1.9.3-1.9.3l-1.6 1.7h-1v.7l-2.2 1.1-6.6.6-1.5 1 3.3.2.9-.9h4.6c0-.1 1-.7 1-.7l.6.3 1.4-1 1 .3.7-1.6h.6l.6-.8 1.5-.2 1.3-2.3h.6c0-.1 1.2 1.1 1.2 1.1h.7l1.8-1.8.7-1.5 2.2.5.8-.2 2.1 2.8.2.8-2.8 1.8v1.6c.1 0-2.3.7-2.3.7l-.5 2.9-2 .6-3.2 2.2-4.4 1.4-1.4-.7-.7 2-4.2.9-.7 2.3-3.2.7-2.6-1.4-3.2.8-2.6-3.8-2.5-.6-2.4 1.3v-3.6l2.3-.8-.4-1.8-3.1-.4-2 .4-2.3-.8.3-1.7-2.6-.3-.2-.7.9-.9-.6-1h-.7l.2-1.2-2.1-.2-.2.9h-1.1l-1.5 4.9-1.7-.3-2.5-1.8v-1.5l-2.1.3-.8-1.1h-2.4c0-.1-1-2.7-1-2.7l-1.6-.8-2.1 1.2h-1.1l-3.8 3h-.4c0 .1-1.1-1.5-1.1-1.5v-.6l1.1-.5 1.2-1.8 1.9-1.7 1.2-2.1.5-1.9-.8-2-2.3-.8h-1c0 .1.2-2.5.2-2.5l-1.4-2.5 2.8-4.6.2-2.5-.8-1.6-2.2-1.5-.2-.9.9-3.2 1.3-1.5v-.8c.1 0 2.2-1.8 2.2-1.8l1-2.2 2.4-.8 1.3-3.3 9.2-2.4 5.8.5 5.1 3.2-1.3 2.3.5 1.3-.5.6-.6-1.3h-.5l-.8 1.2 2.1 3.9.7-3 .3-1 2.7-1.6.8-2.3.7-.2 2.1-2.8.2-2.4 1.7-1.5 5.6-1.4 4.6 1.2 1.8-1.4 1.8-.5h1l1.5 1.1h1l1-.5 1.1-2 1.6-1.2 1.8.2Zm70.8-17.6v1.1l-2.6.6-.3-.4.8-1.2 2.1-.2Zm11.5-13.9-.5 2.8-.7-.4-.8.4H221l-2.7 1.3-.2 1 1.2.2-.6 3.2-1.4 1.5v.2l-.5.8-3.8 2.1-1-.3-.9.5-.7-2.3-1.4-.3-.4-1.1-1.3-.3-.8.4-2.7-1.7v-1l2.4-1.9 1.1-1.9 1.8-1.1 4.4-.5 1.4-1.6 6.3-.2 1.9-1.1 3.6.6v.4Zm-41.7-52.1-.6.5-.5-.4-.4.4-.4.2-1.8 1.6-4.4 5.4-3.2 5.5-1.3 5.4 1.6 5.7 6.1 8.5.8 2.4 1 .4-.4 1h-.9l-.3.5-.9 1 .2 1.5-.9 4.4.5 5 .9 1.6-.5 1 1.3 6.6v5.9c.1 0-2.3 2.3-2.3 2.3l-1.3.5-3.6 4.5-2.8 6.5-1.8 9.2-1.6 4.8-1.5 2.9-2.1-.7-2.9 1-2.5-.4-2.9-2.2-5-5.1-2.2-1.1-4.3-4.1-1-.3-1.6.7-1.8 1.8v1.6l-1.4.5-4.3-2.1-2.5-2.7-4.2-2.2.2 1-1.5 3.7-1 .7-3 .5-2.5-1.5-1.1.4v-1.4l1.3-.3.8-1v-.4h-1l-2 .9-1.9 1.7.8.8h1.3l-1.3.9-.9 1.5H114l-.9 1.1-2.1-.5-3.4.4-.6-.5-4.1 1.1-8.5 3.2-3.6 2.6-2.4-.4-.9-.6-5.4-5.1-5 2.2-1.3 1.9h-.7v-1.4l-.5-.5-1.8.2-1.2.5-1.3 1.8-1.5-.4-1.3.7-1 2.5h-1l-.6-1.2-1.7-.5h-.9l-1.6.2v.9l1.2.9v.9l-3.8 1.7-.4 1-1.7.7-3.9-.8-2.7.3-.7 2.1.4 1.3-1.6 1.5v1.6l-1 1.4.4 1.5-.5 1.1.6.4-1.6 2.9-2.5 3-2.8.2v1.5h-1l-2.2 1.4-1.3 1.9 2.2 3.4-.8 1-.7 3.1-1.4 1.3 1.7-.5 2.3.3.3.6-.7 1.4.9-.5.4.3-1.1 1.3v1.4c.1 0-4.2-2.3-4.2-2.3l-1.9 1-.6 1h-1c0-.1-.3.7-.3.7h.4v.7l-3.4-.9-.5-2-2.2-2.9-1.2-5.4-1.2-1.4-1.8-1.1-.6 9.8h-.6v-1.5l-.8-1.4h-.5l1.2-10.4 2.5-6.9 6.3-12.8 1.3-.8 2.1-2.6 4-6.9.6-.7 1.9-.3 2-2.4 4.1-7.3.6.3 1.6-.9 8.3 3.5h1.1l7.6-2.3 8.2-5.2 1.6.3 1.8-.4 5.1 2 5.8.7 4.7-.5 4.7-1.6 3.2-.3 2.3-.9 9.8-8 7-10.5 5.4-9.5 5.5-12.6 4.8-5.1 5-8.8 1.3-1.1 1.6-.7 1.8.7 5.9.3 5.2-.6 6-2.3 5.5-3.3 16.4-13.9 3.7-1.2 2.6 1-3.1 3.1Z"/><path id="DK-85" d="m248.3 413.7-1.4.5 2.3 2.7-.8-.4-1.9.5-.3-1.5 1-.3-1.2-1.6h2.3Zm-17-5.3 2.1 1.4 1.8 2.6 2.9.9v2.3c.1 0 1.7 1.7 1.7 1.7l3.3 1.6-.3.8.4.3 1-.6 1.2.3.4.5v2.4l1.7.2v.8l4.4.3.7.7 1.7-.4.2-.5-1.2-.4-1-1.4.2-.8 1.4-.6 1.8 1.1 3-1.2-.6-1.4.4-2.3-.8-1.9 1.6.3 3.7 3.2h2.1l.4.3-.7 1.5.9 2.5 2.8.9-.6 1.4v1.7l1.3 1.5 1.5.5 2.5 2.5.5 3.9-1.3 1.2h-.9l-1.3-1v1.4l.5.5-1.1.5.6 1.3 3.1 1.5-.8 3.1-2.2.8 1.2.9-1.2.6-.9.2-5.3-1.1.4-.5-.6-1-.4.3.2.9-.9.5-.5-1-1.1-.5-1.3.3-.8.6-1.2-.6-2.3.3-1.2-.7-.6.3.4.6-1.4.7h-1.3l-.5 1.5-3.3.6-2.5 2.9 3.4 1.8 1.2-.3v.5h-1.9l-10.9-7.2-3.2-3.7-2.4-2-10.5-4.4-4.2-1.3-3.5-1.9-2.8-4.8v-.2l1 1.2 1.5-.2 1.1-1.2-2-1.6 3.7 1.3.5 1.4h1.8l.7-.9-.9-.9v-1c.1 0 1.2 1.3 1.2 1.3h.6c0-.1.4-1.3.4-1.3l.9-.4-.2-.8h1.3l-.2-.4-2.3.5-.9-.4v-1.6h-.7v-1c-.1 0-.9-.6-.9-.6l-.7-.8-1-.4-.9-1.2v-1c-.1 0 .7-3 .7-3l3.9-3.5 1.7.2.3-.7.4-.3.9-.3.9.3 2.7-1.4 5.7.4Zm10.3-1.5 1.1.7 1.7-.2 1.5 2v.6c-.1 0-2.6-.2-2.6-.2l-2.3 2.8-2-1.7-.6-2.7h-.6l-.3-1.3 1.1.5.3 1.8.7-.8 1.7 1 .5-.6v-1.9Zm30 1.1 2.7 2-.3.6 1 .9v1.2l1.1.6h1.1l.4-2.8.6.5 2.3-.4 1 .7.3 3.5 1.3 1 3.8.9 1-.6 3.3.8.5 2.4 2 2.4.7 1.6-.4.7-1.7.7-1.3 2.7-2.5 1.4-2.8 3.8-1.7 4.2-2 1.7-1.1 2.1-.7 4.9.9 9-.2 1.9-3.7-1.8.4-.6-.2-1.8-3.8-7.5.9-3.9 2.3-3.3-2.9-1.3.4-1.8.7-.7-1.2-1.5-.4-1.7-1.8-1.6-.4-1.2-1.3-.3-1.1-1.1 1.3-2.5-.7-1 .2-.8-1.6-1.3-2-.2.2-.7-.6-1.2.5-1.3-.7-.5-.5-1.3 1-2.8-.7-1.2-2.8-.3 1.1-1.5 1.1.3.2-.6-.7-.4.9-1.3h1.6l1.1.7 1.2 2.2 1.5-.9.5-1.8-.4-1 1.1 1Zm18.6-.2-.6.8-.3.2-1.1.6-1.1-.6zm-41.1-3.7 2.2.4 1.3 1.9-2.1 3.1-1.6-3-1.2-1.1 1.4-1.4Zm43 .4-1.1 2.2-.6-.2-.2.6v-.6c-.1 0 .8-1 .8-1l-.3-.5zm7.4-8.5-1.3 3.1-2.2-.9-.5-.7 1.2-.2 1.4-1.3zm3 1.8.7 1 1.9.9 10.2.6 4.2 1.8 1.8 3.3.4 1.9-.8 2.3-2.2.3-6.3-2.3-4.1-.3-3 1.3-2.3 1.9-5.3 6.8-1.9.4-2.7-.4-1.2-2.2 1.2.4.4-.6-2.8-.2-7.4-2.4-.6-1.4.2-1-.9-.9.7-.9 1.1 2.8.8.2.8-.7h2.6l1.3 1.5-.9 2 2 .6 1.3-.5-.9-1 .7-1.9 1.9-1.3-1.1-.5-.6-1.4 2.9-1.6 1.3.5-1-2.3 2.1.7.7 1.7 4.9-2.1.5.4-1.2 2.1.5.2 1.2-.5 1.5-1.7 2.8-.7-3.6-.4-1 .8-.4-.4-.6-1.7.8-2-1.5-2.4-.6-.5-1.2.3-.3-.6.2-.8 1.9-1.5 1.2 2.2Zm-38.7-11.5-.8 1.7-.3-1.5.5-1.4zm-38.6-4 .2.5-1.2 1-.9 2.2-1.2-2.4 3.2-2.1v.7Zm35.2-1.2.2 2.5-1.5-.5-1-1.6 1.2.2 1.1-.7Zm2.9-.5-.4 1.4-.7-.3-1.1.3.9-3.7 2.1.8-.8 1.4Zm-37.1-6.9-.5.4-.3-.3v1l1.1 1.1.9 3-.7.5-1.6-.6v-5.3l-.4-.8.3-.3.8.5zm81.7-43.9.5.4-.6.4.2-.8ZM234 308.4l.3.5-1-.6-.9-1.9.3-1.3.7.7-.3.7 1 1.1-.2.8Zm38.1-1.6-.7 3.2-1.5.8-.9-.9h-.7l-1.2-3.1 1.1-.4.6-.8 1.3 1.2.7-3.3 1 1.5zm-47.6-13 1.7 2 1.6.9.2 1.2-.8-.8-4.3-1.8-2-2.6-2.2-1-.4-1.8 2.6.9.5 1.1 3 2Zm12.8-11.4 2.3 1.4 2.6.7 4.4.2 2.8 1.1 4.9-1.3 1.2 2 1.6.8 4.8-1.1 5.4-3.6 1.1 3.5-.9-.6-1.7 1.6-.4 2 .2 2.4-1.3.8-1.6-.6-.3-1.1h-1.3c0 .1-.6-.3-.6-.3l-.9 2.5.2 1.7 1.6.9 1.2 1.6 1.6 3.1.2 1.9-1.3 1.8-.3-.5-3.3-1-1 1.2.5.6-.6.3v.9l-2.5 1.2v.6l1.4 1 1.4-.2 5.7-2.9.8.9.4 1.9.8 1.1-.5.3-.2-1-.6.9.5.8 1.5.7v.8l-3.4 1.1-4.1.2-.7.4.4.7-.3.5.8.2v.5l3.5-.8 4 .2.4-.7-.8-.7h.6c0 .1 1.5 2.4 1.5 2.4v1.6l.7.2.3 1.3-1.2.7v1.3l-.9.3-.4 1.3 2-.6.3.3.7-1.7 1.7-1.2.3-2.9 1.2-3.1 1.3-.8 2.1.8 1.9-1.7 3.4 1.9v1.7l-3.6 6.8.2 1.8.6-1.7.8-.4v-1.5l3.1-.3-.5-1.5-.7-.4.8-.6v-1.1l.2.5.9-.3-.6 1.5.4.2.6-.6.4.4.8-.2.9.6-.2.7.8.4-.2.4-.9-.6-.9.2-1.8-1.1v.5h.5l.5 1.5-.3.7 2-.4.5.4.2-.5h.9c0-.1-.2 1.9-.2 1.9l1.7.9.7-2.5h-.6l-.8-1.2.6-1.1h.4c0-.1.5.5.5.5l.2-1-.9.2v-.4l1.2-.2.7-.9.3-.8-.8-.2v-1.1l1.2-1.2-.7-.5-.9-1.3.4-1.5-1.1-1.2.3-1.9 5.4 4.2 2.9-.5 1.3 1.3-.9 1.7 2.5 2.3-2.7 2.6h-1.9c0-.1-2.5 2-2.5 2l.5 4.6h.7l-.5 2.6 3.5 1 .4-1.6 1.4-.4.6.9 2.3-1 4.3 1.8 1.3 1.2-.2.9-3.9 2-3.9 4-3.3 9.1.4 1.4-.3.8.4 1.2 1.9 2.2 5.3 2.8 4.4.4 3.6 3.4 2 2.6.2 1.6.5.5-.7 2 .7 2.6-.2 1.1-2.7 3-1.3.8h-1.8l-1.1 2.2-5.7-.7-5.6 2.2-1.8 1.5-.4-.2-3.7 4.8.3 4.2-1 .8h-.9l-.6-.5.4-3 .8-1.5-.3-.3-2.1.2-2.2 1.1-1.3 2.2.5.6 1.2.3.3.8-.3 1.4.8-.4.6.7.8-1.2h1.3v.9h1.1l.2-.5.7.3 1.2-.9 2.4.9 1.1 1.2-.8 3.3-1.1 1.4-1.3-.8-.8.5-.2-.7-1.4-.8.2.8h.9v1.1l.7.2-.8.7h.5l.6 1.5-.2 1 1.1.2-.3.9 2.2 4.2v1.2c-.1 0-3.5-.1-3.5-.1l-3.1 3-1.8 1h-1.9l-3.3-1.7-1.7-2.4-2.9-1-.3.2.7.3v.7h-1.4l-4.8-3.6-1.4-1.7-5.6-2.1-3.5-2.1-3.8-1-.4-.4 8.9 2.3 5.5 2.8.5-.6-1.7-3.1-2.4-1.8-.5.4.8 1h-1.3c0-.1-.9-1.4-.9-1.4h.6l.4-.8h-1.4c0 .1-1.6-2.3-1.6-2.3l.3-1.9.5.4-.2.7 2.2.2 1.3-1.7 2 .5.7-.8-.5-1.8-1-.5-1.1.9-.6-.4v-.8h-2.1l-.5.5-1.2-.5v-1.6c-.1 0 1.8-1.4 1.8-1.4l-.3-.5-.8.4-.2-.3 1.5-1.7h-.6l-1.6-1.4-1.9.3-2.2 2.3v.8l-1.1.6-3-1.7-1.2.2-5.4-1.4-.7.3-.3-.9h-1.5v-.6l-.8-.8-.6.3-1.2-.7-1.1 1.6.2.4.7-.4 1.2.2.8 2-1.5.3-3.3-.4.6-.8 1.9.7-.6-2-1.1-.3-2 1.3-1.1-1.4-1.1 1.2-.5-1.1h-1l-.3 1.1.3.6-1.5.4-1-.9h-1.7c0-.1-.9-.9-.9-.9l-.5-1.3 1-.5-1.2-2.6.4-.3.5.7 2.4.6 1.8-3.9-.3-1.4-1 .7-.2 2.1.5.4-1.2.8-.5 1-.6-1-1.3-.3.4-1.6-.7-2.9-4.2-2.4-1.7-1.8-1.4-.7v-.8l.4-.3 1.3.9 2.4.2.2-.6 1-.6v-1.1l-1.7-1.1h-1.1l-.6.5.5 1.5-1.5.4-2.3-1.7-1.2.2 1.5-2.9.4.7 2.2-.3 1.9-1.5 1.7-.4.9-1.8-1.4-2.5.7-3.2-1.9-3.9-.3-2.6-2.3-2.3-1.3-2.1-.5.5.2.7h.4c0-.1-.8 1.2-.8 1.2l-1.3.2-1-.5 1.1-2.6h3.1l1.2-2.6-.5-3.5-1.4-3.4-1.3-1.4-5-3.2-6.7-1.2-.7-.6v-.8l.5-.4 1.7.7h2.4c0-.1 4.1.8 4.1.8l1.9-.5.2.5 1-.6v-.4c.1 0-.9-.2-.9-.2l.9-.7-2.1-.5-.7-.3-2.6-1.9-2.1-3.2-.7-.4-5.3-.2-2.8-1.8 5.4-1 2.9.6 4.2 1.8 2.4-.4 3.3-2.1h2.3c0 .1 1.3-.3 1.3-.3v.9l1.3 1.9h1.1l.5-1-.3-.6.5-.4 2.4 2.2 2-1.2.4-1.7h.4l.5 1.3.4-1.4 2.8-.4 1.5-1.3.8-2.6-.5-1.1-.2-4.4-.6-1h-.7c0 .1.2-.2.2-.2l.4-.2 2.2 1.9 3.8-2.1h3.1l1.7-2.2.6-2.3v-4.1l-.6-1.9-3.9-2.2-5.9-.5-2.9-2-2.7-.7-1.4-4.4 1.8 2.7 3.1 1.3Z"/><path id="DK-83" d="m186.6 414.9-.2.9-1.1.6-1-2.9 1.8-.5.6 1.9Zm-9.5-1.8.2.5-1.2-.3.5-.9.6.8Zm.9-2.1.6.9h-.9l-.2-.8.4-.5v.4Zm11.4-3.1 2.3.4.3 1h-.8zm-11.8-.7-.9 1-.6-1zm-20.4-.7 1.2.3.2 1.1 2 2.1 2 .4 2.9 3 .8 1.8 1.9.6.5 1.2.9-.2 1.6-2-1.1-.9.3-.4 1.3 1.4-.6.7 1 2.4 1.1 1.3.8.5.9-1.6 1.4 1.4.3-.2-1.8-2.4h.7c0-.1 3.5 3.4 3.5 3.4v1.6l-4.5.7-1 .6-.6 1.4-1 .7-3.4-2.5-3.7-4.8-2.3-1.5-2.9-3.7-.5-2.8-1.9-2-.4-1.7Zm15.2-1.5 1.3 1.7-1 .9-2.7-1.8-1.1.8-.8-.7 1.5-.6.3.5 2.5.5v-1.2Zm3-3.4 1.8 1.2-1.1-.2-.6.6h-.9c0-.1-.2-.9-.2-.9l.7-1v.4Zm-13.4-1.3 1.8.4 1.2.9 1.4-.6.2 1.3-.7.2-2.4-1.7h-2.7l-1.5-1.6.2-.8.9-.3 1.5 2Zm25-4 .8 1.2-.3 1.1 1.3.4.2 1.1-.7.6-.7 2.7-.3.5-.4-.3-.4.8.8 1.1 1.5.3.8-.8.2-1.1 1.5-.3-.2 2.8-2.5.3-2.3 2.9-2.5-.9h-.5l.9 1-1.2-.2-1.2.7.7-1h-1v-1.3l-1.4-1.2-.4-2.5.3-.5-.9-.4v-1h1.1l.8-1.2 3.7-2.4 2-1.9.4-.3Zm4.9 0 .5.3.7 2.9-1.1-.5-2.4.4.2-.9-1.4-.2-.2-1.2.4-.4 1.2.2 2.1-.7Zm-37.9.7 1 .3.4.7-.7.7-1.6.5-1.5-1.6v-1.1l1-.8v1l1.4.4Zm7.4-.7-1.8-.9-.3-1zm-29.8.8 4 3.6 2 .2 1.6.7 3.3 3.5 3.3 6.4.4 2.7 1.2 1.9.4 2-.5.4h-3c0 .1-2.3 2.5-2.3 2.5l-3.2-.2-2.3-1.3h-1.3l-1.5-1.9 2.2-2 1.2 1.5 2.4 1.2.2.7h1.2l1.3 1.5.5-.5-1.3-2.3-4.9-3.3-1.2-.3-.8 1.1h-.6c0-.1-2.8 1.2-2.8 1.2l-2.5-1-.9-1.1v-1.1c-.1 0-1-.4-1-.4l-.7-6.4-.6-.8.6-.6 1 1.5 1.4.4 2.6 3.6 1.7-.5-1.3-.8 1.5-.6-1.7-.5.7-1.1h.9l-2.3-1.6-2.7-.4v-1.1l-.3-.2-.2-.8 1.1-.4v-.8c.1 0-6.4.4-6.4.4l-2.7-1.8v-.9l1.7-.5.8-.7.6.2v.6h.9l-.6-.9h-.8l.6-.7h-.7l-.7.8v.2c.1 0-.5.2-.5.2l-2.5-.5-.4-.7v-.8l2-1.8 2.3-1.4 3.1-.8 1.7.4 3.4 2 1.7 1.8Zm-18.8-7.8-1.3.3-.5-1.7.3-.7h.9c0 .1.7 1.1.7 1.1v1Zm96.9-4.1-1.4 7.8-2.9 10.7-2.6 3.3-1.9 4.3-.3 1.9-.6 1-.2 2.8-2.7 6.9-2.8 10.4-1.3 2-1.6.7-1.9-2.2v-1.1l.6-1.1-1.1-2.6v-2.1c-.1 0-1.7-2.5-1.7-2.5l-2.3-1.5-.5-1 3.6 1 .9-1.9.7-.2-.5-.4.6-3.7h.8c0-.1.2.9.2.9l1.1.5.3-.8h1.5c0-.1-1.4-2.5-1.4-2.5v-1.2l-.7 1.2-.8-.5-.4.3-.3-1.5.7-1.6 4.9-6.4.9-.9h1.3c0 .1 1.5-1.4 1.5-1.4l1.3-3.2 1.4-1.7 2.1-8.3 1.6-2.9.2-1.6 2.7-3.2.9.7.2 1.5Zm-84-15.4.3 2 .6-.6-.5-.6 1.1-.5-.2.9-1.2 1.6h-1.4l-1-1.1.5-.4-.4-1 1.4-.5.7.2Zm4.5-6.7.7 2-.2 1.2-2 .7-.6-2.5.4-1.2.7.3zm-7.5-3.5-1 .5-.9-.7.7-.8h.8c0-.1.8.8.8.8l-.5.3Zm-95.9-12.7.4.6.3-1 1.2-.9h1.6c0 .1 1 .6 1 .6l-.3 3.7.4.7.7.5 1.4-1.6 1 .7.8 3.2-1.3 1.4 1.4 2.1.4 2.7h.7l-.8 1.6.2.4-1.6-.2-1.8-1.4-3.5-7.8-3.1-3.1-.2-2.1 2.1-1.5zm95.1-2-.9-.2-.9-1.9.3-1.1.9.3.8 1.4h.8v1zm64-16.8.2-1.1.5.6 4.1 7.5 1.6 1.9-.2 1.4.7 2.1 1.8 1.9.7 1.6-.8.9-1.7-.2-2.8 1.4-.5 1.6-.9.5-1.3-.7v.7c.1 0-.5.1-.5.1l-1.4-1.3-1.8-.7v.4l-1.9.6.3.6-.2.5h-.8v.5l2.2 2.4.5-.7-.6-2.8.9-.8 3.6 2.4 2-1.5 6.7 7.6 2 3.6 1.9 6 1.5 1.3.2.3.5 1-1.7.5.4-.5-.3-.9-.5-.4-.3.4-1.2-1.2h-.8l.2.9v3.2l1.9 5.1-.6 6.2-1.1 2.1-1.4 6.6.3 1.1-1.3.6-.9 3.4-2.7 1.5v-.5l-1.1-.3-.4.7-2.9.4-.4-.6-1.5-.3v1l-1.2.8-5.7 2.5-1.9-.6-1.3-1.4-3.9.3-2-1.2.2-.6-1-1.4-1.4 1.8-2.4-.4v-1l-1.6-.5-1-1.7-3.2-1.6-.7-1-1.4.9 1 .7.4 1.3-1.1 1.4h-.8l-1.2-1.6h-1.7c0-.1-2.1-1.4-2.1-1.4l-3.9 1.8-.3-1.3.9-2.5h1.5l.9-1.2 2-.5.8-.2 1.2-.8-.8-.5-1.3-2.6h-.6l-.1-1.6-1.4-2.8h-.4l-.5.8-.4-.2-.6 1h-2.6c0-.1-2-.7-2-.7V379l-1.8-.8-.3.4.9 1.1-.5.8-.5-.3-.2 1.3.7-.5.2 1.7 1 .7 2.2 3.3-1.4 1.6-3.2-1.5.9-1.8-.6-2.4.2-4.9-1.4-1.4h-2.6l-1.4-2.2-1.1-1 .5-.9-1.3-1.8.6-.4.2-4.5-1.1-3.3v-.9l1.2.5.3-.6-1.2-.5-.4-1.7-.9.7H132l-3.7-1.6.2-1.4 2.1-.2 1.5-1v-.9l-1.1-1.4-2.5-1 .7-.6 1.8.3v-1.2l-2.3-1.1-3.3-.3.2-1.3-2.1-2.8.4-.6.4.9 3.9 3.3 2 .9.9-.3-1.3-1.1-.2-.8h-.6c0 .1-1.3-.9-1.3-.9l.2-.6 1.1.5-.5-.8h-.5l-.4-.6-1.3.3-1.2-.8-.9-2.4-1.9-.2-1.4-1.5-.2-1.1 1.4-.3 1.8 1.2 1.6.2 1.7-3-.9-1.5h1.9l1.6-1.1 2-.3 1 .5v3.2l1.2 1.4 3.6.5 1.6-.3 5.9-4.2.9-1.3 2.6-.6 2.2-1.6 2.3-.3 2.8-1.5h1.1l.6-.3.6-1.1 5.1-1-.2.4.4 1.3-.4 1.4h2.4c0-.1.2-.6.2-.6l-.9-.8v-1.8l-.8-1.4 1.4-.2 7.3 4.1 2.5 2.5 6.2 4.6 1.6 1.9-.5.3-2.1-2.8-2-1.4-.3.3.4.8h-.6c0 .1-.4.6-.4.6l-.8.4v.6l.9.7v1.1l1.4 1.5-.8.5-.6-.3-.4.7.7.9-2.2-.5-.2 1.3-.8-.2-.4 1.2v.6c-.1 0-.2 1.6-.2 1.6l-.8 1.7 1.3.2.9-.9 1.1.7 1.8-1.8-.5-1-.6-1.5 2.8.9 1.2-1.3 1.3.6v-.4l1.1-.2.4-.7 1.2-.2 1 .7.9-1.1-.3-2.1-3.7-1.9v-.5l1.5-1 1.8 1.8 1-.3-.7-1.3.2-1.9-1-1.6-.7-3.1h.1l2 3.3.6-1.2-.9-.7.7-.2-.3-1.8-.9-2.3-.6.4-1.3-1 .2-.9.5.9 1.1.3Zm-31.3-4.5 1.4.4v.7c.1 0-.6.9-.6.9l.4 2.6-.4.5-.2-2.9-1.3-2.3h.5Zm-60.6-36h.6l.3.7.7-.2.4.4.3-.3.3-.3h.7l-.4-.2 2.9 1.3v.8l5.2 7.1-1.4 1 1.1.5-.6 1.9 2.5.2v.7h1.4l1.2 5.1 1.4.3v1.3c-.1 0 2.7-.2 2.7-.2l.4-.8.8 1-.8 1.1 1.2 1.5 1.6-.8 1.6.6.3-.7 2.1 1.3.2 1.7-.9 2.9-6.5 1-1.5-.8v1.4c-.1 0 2.1 1.1 2.1 1.1l4-.5.7.5.8-.6 2.6 3.7.6-.2 1.8 1 .6 3.2.9 1.3 3.3-.7 3.7.4-4.5 3.8-.3 1.5-1.4 1.7v1.6c-.1 0-1-.4-1-.4l-1.6.2-.3 1.8.7 3h-1.2l-3.5-1.1-2.3 2.3-1-.6-1.3.4-.2-1.2-2.5-1-.3.4.5.8h1.3l-.8.8.5 1.7h-3l-1.9-.5-2.3 1.4 2.2.8 3.9-1.1 1.2.9 1.2-1.4 1.6-.2 4.7 4.7-2.8 3-3.9 1.3-.4.9 2 4-1.4 3.2-.8-1.2-1.2-.4-.7.3.8 1.2 3.4.7 1.6 1.8.2 1.8-1.3 1.8h.7l2.1 3.3-3.1-.5-1.2 1.9-1.9.5v1.4h-.8l-.6 1.2 1.8-1.1v-1.3l1.5-.3 1.7-1.7.7.6.8-.3 3.8 2.6.5 1.4-.5 1 .3.7-1.7 2.2.2 3-3.9 2.1-.6-1.4-2.8-.5-2 1.9-4.4 2.6.5 2.6 1 1-3.1-.5-.7.8v.5l-.5.7 1.5-.5.3.5.6-.6 1.1 1 .9.2 1.4 2.2.8.3v1.7l-3.5 3.7-2.4-.4-1.7.9-.9-.3-.2-.5-.2.8v.3l-.1.6.2 1.1.6.4.5-.4.9 1.1 2.7.2 3.9-2 1.8-.3v-1l.6-.2 1.7 1 1.7 3.1 1.6.5 2.8 2.2h3.1l.1 1.7.9 1 .2 4.5.6.4.2 1.2 1 .6-.3.9-1.5.8-3.3-.8-.6.9v.6c.1 0 1.6.2 1.6.2l1 .9.2 1.4 1.1 1 .2 1.4-.6 1.2-1.8.6-1.6-1.4v-.7c.1 0-1.7-.6-1.7-.6l-1.6.3-1.3-.7-.2-.7 1-.7.4-1-1-.5-.4-1-2.7-1.5 2.7-1.2h.8l.5.9 1.3-.6-1.4-1.6-2.3-1-.7 2.3-1.2-.3-.4.5h.6l.3.6-1.9 1.1.2 1.3-.8 1.3-.7.4-1.3-.7-.2.6h-.9l-.3.6h-.7l-1.7 2.9-3.7 2h-1v-.7l-.7-.5-1.8.4-.6 2.2-1.2.7-.9 1.8-1-.6-2.5-.4H92l-1-.4-1.4.3-1-2.6.6-1.5-.3-.7-6.1-2.6h-7.4c0-.1-2.3-1.9-2.3-1.9l-4.6-1.9-3.9-.3-2.3 1-2.5-1.2-1.8.3-1.5 1.5-1.5-.5-1.9.5-3.3-2.1h-3.2c0-.1 1.6-6.4 1.6-6.4v-2.8l-1.8-6.5 1-6 2.5-5-.3-.6.6-1-.9-.4-4.5.4-3.7-.6-.4.9.6 2.4-.6 2.6 1.3 2-1.6 1.3-1.6-.2.8 1.4-.7.3-1.4.5-.5-.4-2.4-3.5v-1.4l1.1-9.3.5-.9.5-2 .7-.7 1.5-.2-.3 1 3.7.3 1.2 1.1-.4 1.3-1 .9-.3 2.3 4.4.7 2.4-.4.5-.8 1.2.4.2-.7-.4-.4-1.3-7.3-.2.7h-.4c0-.1.7-2.4.7-2.4l-.5-.3v-1.5l.5-.5-.8-.7.6-.2-1.4-1.1.5-1.1.6.3-.4-2.1.4-1.4-1.1-.4-4 2.4-1.2 2.6-1.8.3-.9-.9v-1.1l1.1-1.4 1-.3 2.1.3 3.6-2.2 1.2.4.7-1.9v-1.1l-.9-2-2.4-9.5-4.9-3.5-2.3.4-3.3-.8-.4.9-1.8-.8h.6v-.4h-1.2l.4-.7-1.4-2.1-7-7.8-1.7-2.5.2-.9 1.3-.6v-.5l-1.8-1.4H21c0-.1-1.4 1.7-1.4 1.7l-.8 1.8v1.5l1.1 2.1 1.2.5-.7 1.2.6 1 2.6 2.4v1.9l-.9.5-7.2-6.2-8.2-3.9 5.9-19.1 1.1-7.5-.4-5.3 1.3-.2-.7-1.6 3.1.5v1.1l3.3 2.6.9-.5h2.6l2-2.6 2 2.6 3.1.3-.6.4 1.8.9.6 1.4h3.2l1.3-1.4v-2.8l1.6-.3.7-1.2-1-2.3 2.6-.8 1.6 1.6 5.8-1.7 2.2 1.3 1 3 2.6 1 4.8-1.7-2.3-2.3 2-1.2 1.2-4.3 1.1.2.7-1.9h1.1l5.9 1.3-.5 4.9 3.6 1.9 1.4-1.2 1.1.5.9-1.8.8.8 1.9-4.1 1.4 1 2.3-1.8 3.2-4.1v-1.7l1.7-3 2.6.2 1.7 1.9 1.6.2Z"/></g></svg>