<?xml version="1.0" encoding="UTF-8"?>
<svg id="Layer_1" xmlns="http://www.w3.org/2000/svg" xmlns:amcharts="http://amcharts.com/ammap" version="1.1" viewBox="0 0 512 512">
  <!-- Generator: Adobe Illustrator 29.1.0, SVG Export Plug-In . SVG Version: 2.1.0 Build 142)  -->
  <g id="_x3C_defs">
    <amcharts:ammap bottomLatitude="54.559212" leftLongitude="8.074878" projection="mercator" rightLongitude="15.157522" topLatitude="57.751786"/>
  </g>
  <g>
    <path id="DK-84" d="M477.6,367v.7c0,0,1.9,1.6,1.9,1.6l1.3,3,3.5,1.9.6,1.1,2.6,1.1,1,1,.6.2,1.8-.7,1.4,2.6,2.2,2.1,1.5.6,3.3,2.6,2.1.9h1.3c0,0,.6,1.1.6,1.1h.6c0,0,0,1.4,0,1.4l-.9,1.2,1,3.7-1.4,1.8v1.4s-.7,0-.7,0l-.3,1.2-1,.9.8,1.5v1.5c0,0-2.7,3.2-2.7,3.2l-8.3-1.9-2-1.4h-.7s-2.7-2-2.7-2l-2.9-1.3-.8.2-2.6-1.6-1.3.2-2.2-1.4-1.4-1.9-2.3-1.4.5-.5-.3-.5.4-.9v-1.8s.5-1.1.5-1.1l-.5-6.5.8-4.8,2.9-5.6.3-1.1-.4-1.2,1.5-1.5.4.4ZM334.7,325.9l-.4-1.3.4-.2.2-2.9,1.8-1.1.7,1.5.3,4.7.5.3-.3.6.7.7-2.1.5-.7-1.8-.8.2-.3-1.1ZM327.2,318.2l.2.3-1.1.8.7,1.2-.4-1.2.7-.6.3.6h.4c0,.1.3.6.3.6l-.7.9-.6-.3v.8c.1,0,1.9,3.3,1.9,3.3l-.2.5,1.5.2.4.5v1.9s-.8,1.1-.8,1.1l.4,1.3.5.2-1.3,1.3-2.2.7-2.8,2.7-2-.7-.5-1.8-1.1.2-.9-.5-1.1-2.2-.2-1.8,3-4,1.1-2.6,2.6-2.8.3-1.6h1.2s.2.4.2.4l.3.4ZM281.8,290.5l1.3-.2,1.4,1,.2.9-1.8,2.3-.2,2.3.3.6,2,.9.6,4.5,1,.7-.8.4v.9s.2.4.2.4l1-.2-.4,1.6,1,2.2-.8,1.2.6.5v2.8c0,0-1.1-.4-1.1-.4l-2.8,1.3v-1.5s-.8.3-.8.3l-.4-1.1-.7,1.3h0l-3.4-1.9-1.9,1.7-2.1-.8h0l-1.3.2v-2s-.4.2-.4.2l-.3-.6h.5c0,0,.4-.8.4-.8l.4-4.2,1-.6v-1.6c0,0,2.4-.8,2.4-.8l.6.5,1.4-.6,1.3-3.7-1.1-2.4-.8-.4-.2-2.2-2-3.3.3-2.4,4.1,1,1.4,2ZM304.6,264l2.7.7,2.5,2.3,3.5,1,4.4.2,2.9,1.4,4.7,4.5,1.3.6-.7.2v.7c0,0-1.2,2.4-1.2,2.4l-2.3,2.2-3.3,9.2,3.9,9.2.3,4.5,1.3,2.9-.2,1.7.6,1.9-1.5,3.4.5.6-.2,1.4.4.4.8-1.6,1.5,1v.4c-.1,0-.8.6-.8.6l-1.1-.4.4.7h-.7c0,.1.6,2,.6,2l-.5,1.5-2.2,2-.7,1.9-.5,1-1,.9v-.8s-1.7.3-1.7.3l-.9,2,.7.6-.9,1.8-3-.5-.3-1-.2-.4h-2.8c0-.1-.5.1-.5.1l-.3.5.7.5-2.6,1.5h0l-.6-.5h0l-1.3-1.2-4.3-1.8-2.3,1-.6-.9-1.4.4-.4,1.6-3.5-1,.5-2.6h-.7s-.5-4.6-.5-4.6l2.5-2.1h1.9c0,.1,2.7-2.5,2.7-2.5l-2.5-2.3.9-1.7-1.3-1.3-2.9.5-5.4-4.2h0l-1.1-.7.3-1.6-.7-1.2-.4-2.5h-.4c0,0-.5-1.7-.5-1.7l-.6-.2.3-1.7,1.2-.3.2-2.2-1.4-2.8v-1.8c.1,0-2-5.6-2-5.6l-2.9-.9-3.1,2.1-3,1-1.4-.4-.4.4-.9-.5-.7-2.6.8-1.2,10.7-6.8,3.8-3.5,8.2-6.1,7.5-2.6h1.6s0,.5,0,.5Z"/>
    <path id="DK-82" d="M165.8,308.4l-.4,2.8-1,.7-1.9-.8-2.4.2-.9-.6,1-1.2,1.8.3,1.8-.5-.2-.8,1-3,1.2,3ZM149,300.9l.9.6-1.3,1-1.3-.6-.4-1,1.2-.5,1,.6ZM174.6,286.1l-1.1.6-.6-.2-1.9-1.9,4.2,1-.6.5ZM12,279.4l1.6,5.7,1,.8-.2,2.7.5.4v1.6c0,0-.3,1.2-.3,1.2l.9,2.4-.3,1.1,1.2,1.2-1.6,2.4v2.4c.1,0,1.1,1,1.1,1h0l-1.3.2h0l-2.2-17.5-1.6-5.4,1.2-.4ZM183.6,286.4l1.6,2.1,3.3,1.6-.6.7-1-.4-1.4.8.6,2,.9.3-.3.5.5.9.8.5,2.3-1.2v1.6c.1,0-1.3,1.4-1.3,1.4l-1.2,2.8v5c.1,0-1.4,4-1.4,4l-2.9-.7h-2c0,.1-1-1-1-1l-.7-2.1v-7.1c.1,0,1.4-1.5,1.4-1.5l2-.2.5-.5,1.2-4.7-.4-1.5-1.1-1.4-1.5-1-1.5.2-.5-.8-.5-4.5,2.8-2.9.7,5.3.8,1.8ZM48.6,206.4l-.4.6h-.8c0,0,.8.9.8.9l-1.3,2.2.2,3.6-1.2,1.3.7-1.3-1.2-3.7,1.9-3.4h1.2ZM43.5,192.8l.6,1.1-.7.7-.8,2.6,1,1.6.8.3.2-1.4-.9-.4.5-1.2h1.4c0-.1,1.3.5,1.3.5l.7-.4-.9,1.9.5.8-.4,1.4.6,1.1-2-1.9h-1.1c0-.1-.6,4.4-.6,4.4h-2.6c0,0-1.4,1-1.4,1v.8c0,0,1.4.5,1.4.5l.2.6-1.7-.4-1-1.1-2.2-5.7-4-3.8-1.6-.8h0v-.7h0l1.4.7,1.3-1.2,1.8-.6.5.3.5,1.4,1.6.6,2.3-2.1h.9c0,0,.4-.6.4-.6l1.2.4.4-.8.3.3ZM258.4,186.5l.9.2-3.2,2.3-2.9,3.6h-2.5s-2.2-3.5-2.2-3.5l1.7-1.2,2.2.4,6-1.9ZM77.4,178.2l3.2,2.2-.4.9.3,1.2,1.4,3.7,3.1,4.1-2.8,2.3-1,1.6-.2,1.4h-1.4c0-.1.6,3,.6,3h-1.5c0,0-2,2.1-2,2.1l-.8,4.3.9,2.9v.9c.1,0-.3.2-.3.2l.5.6h1.3s1.1-1.6,1.1-1.6l.2-4.3,1.4-.6.6.9.8.2,1.1-1.3v-1.1s-1.8.4-1.8.4l-1.1-.5,1.9-1.7,1-2.7.3,1.2-.4,1.3,1.4,1.8h1c0,0,1.7-1.1,1.7-1.1l3.7.2-.4.2.3.5.7-.3.9.4.8,1.6h-.3s0,.9,0,.9l-2.3,1.2-.8,2.4.7.3.4,2,1,1.4,1.5,1.3h.9s-.6,1.7-.6,1.7l2.6-2.6,2.3.7-.3-2.1.6-1.9h-1.2c0,0-1.3,1.1-1.3,1.1l-2.1.7-.9-.2-.7-1.4.7-4-.4-1.3,1.3-1.4v-2.3c0,0,1-2.3,1-2.3l-.4-2.5h2.4c0,.1.8,1.2.8,1.2l2.1-.3v1.5c0,0,2.4,1.8,2.4,1.8l1.7.3,1.5-4.8h1.1c0,0,.2-1,.2-1l2.1.2-.2,1.1h.7c0,0,.6,1,.6,1l-.9.9.2.7,2.6.3-.3,1.7,2.3.8,2-.4,3.1.4.4,1.8-2.2.8v3.6c0,0,2.3-1.3,2.3-1.3l2.5.6,2.6,3.8,3.2-.8,2.6,1.4,3.2-.7.7-2.3,4.2-.9.7-2,1.4.7,4.4-1.4,3.2-2.2,2-.6.5-2.9,2.5-.7v-1.6c-.1,0,2.7-1.8,2.7-1.8l-.2-.8h0l.8.3,3.3-2.1,2.3.6,1.8-1h2c0,0,1,1,1,1l.7,4-.9.5.6,2.4-1.1,2-3.2,1.8-1.1,2.3-1.3.4-1.3,1.3-.8,2.5-1,.5-.4,1.5.9,5-1,3.4-5.9,2.3-.7-.2-.2-.7-2-.2-3.7,1.5v.2s3.8-1.2,3.8-1.2l3,1,3.8-1.7,2.3-.7,2.1.9,3.1-.2-3.9-.6-.4-.7-.2-5.1.8-3.5.8-.4v-1s1.4-2.2,1.4-2.2l2.1-1.9v-2s.6,0,.6,0l.5.7,1.7.7.7,3.5,3.7,4.5,1.5,1,5.6,1.5,3.7-.2,7.8-1.9,4.9-.4,1.8-.7,4.9.9,1.7,1.7,1.1,3.9,3.4,2.2,1.7,1.7.6,1.4-.2,1-1.4.6-.7,1.5.2,1.6-.5.4-.4,3.2v4.4s-3.6,5.5-3.6,5.5l-2.2,1.8-1.4,3.6-1.4,1.6-1.7.5-1.1,1.1-.8,1.5-.4,1.6.4,3.3-1.8,4.8h-1.8c0,0-.6-.5-.6-.5l-.2-1.1-2.3-1.8-.5-1.2v-1s1.2.5,1.2.5l1-.8.6-1.8-.9-2.3-.6-.5-2.9-.3-2,1.1-.6,2.1-2.4,2.7-.7,2.2,1.3,2.1.3,4.3-.8,1.4-2.3.9-2.2-5.7.7-.8h1.8c0,.1.8-2.7.8-2.7l-.6-.6-1.1.6-3.7-1.7-1.1.5-1.3,1.9h-1.8s-1.1-.8-1.1-.8l-.4-2.2-1.8-1,.2-.9.8.3,3.3-1.1.2-1.3,1.2-.4.9.2-1,1.3.7,1,2.2.3,1-1-.9-1.7.2-.6-.9-.6-.7.7v-.5c-.1,0,1.8-2.1,1.8-2.1l.7-2,1.6-.2v-1.7c-.1,0-1.9-1-1.9-1l-.4.3-1.4-.3v-1.5c0,0-.6.5-.6.5l-1.2-.6-.8.7-1.8-.4-.5.4.5,1.4-.9,1.1-1-.3-1.1,1.1.5,1.9-.7.6-.3-.3v1.4c-.1,0-2.3,1.1-2.3,1.1l-1.8,3.2-2.7,1.7-1.1,2.3.4.4-1.2.8v.9s.9-.7.9-.7l-.6,2,1.6-.9.3-1.2.3.5v.6s-2.9,1.7-2.9,1.7l2.7,5.3,1.6,6.6-.3,2-.8.4v-.6c0,0-.8.2-.8.2l-1.2,1.5-.9.4h1.7s.9-1.5.9-1.5l1.7-.3.5.4-2,3.4v1.7c0,0,.9,2.7.9,2.7l-.6,5.9-1.4.4-2.1,2.6h-1.1c0,.1.1,2,.1,2l.7,1.4-.9.9.4,1.4-.4.5-2.3-1.1-1.2-1.4.2-2-.8-1-1,1.3v1.4s-1-.2-1-.2l-1.6,1.6-3,.8v-1.1c-.1,0,1.4-2.2,1.4-2.2l3.9.7.3-.9-.5-1.4-2.7-.2-2.5,1-4.4-.5h-.4c0,.1-.5,1.6-.5,1.6l.3,1-2.4-.3-1.2.5-1.7-1.5v-.6c0,0,.7,0,.7,0l-.2-.3-3.1-.3v.5c.1,0,1.3.3,1.3.3l1.2-.3.3,1.3-1,.3-.4.7.2,1.1,1,.6,7.5,2.1,1.4-1.2-.2,1,.4.2-.5.9,1.2-.8,1.6.2.9,1.7-3.2,3.4-.2,1.9.5.9,3.6.7.4.9h-2s-1.2,1.4-1.2,1.4l-2.5.8v1.1c-.1,0,1.3.4,1.3.4l.7,2.3-1.2-.6-2.6.8-3.8.3-2.8.8-2.5,1.6-1.9.6-.8-1.1-1.7-.4h-2.6c0,.1-2.2-2.6-2.2-2.6h-1.1c0,0-1.9-1.2-1.9-1.2h0l.9-2.9-.2-1.7-2.1-1.3-.3.7-1.6-.5-1.6.8-1.2-1.5.8-1.1-.8-1-.4.8-2.8.2v-1.3c.1,0-1.3-.3-1.3-.3l-1.2-5.1h-1.5s0-.7,0-.7l-2.5-.2.6-1.9-1.1-.5,1.4-1-5.2-7.1v-.8h0l-2.6-1.7-.3.3h0s-.3.2-.3.2h0l-.3.3h0l-1.9-.8-.4.3h0l-1.6-.2-1.7-1.9-2.6-.2-1.7,3v1.7s-3.2,4.1-3.2,4.1l-2.3,1.8-1.4-1-1.9,4.1-.8-.8-.9,1.8-1.1-.5-1.4,1.2-3.6-1.9.5-4.9-5.9-1.4h-1.1s-.7,1.9-.7,1.9l-1.1-.2-1.2,4.3-2,1.2,2.3,2.3-4.7,1.7-2.6-1-1-3-2.2-1.3-5.8,1.7-1.6-1.6-2.6.8,1,2.3-.7,1.2-1.7.3v2.8c0,0-1.3,1.3-1.3,1.3h-3.2s-.6-1.4-.6-1.4l-1.8-.9.6-.4-3.1-.3-2-2.6-2,2.7h-2.6c0,0-.9.5-.9.5l-3.3-2.6v-1.1c0,0-3.1-.5-3.1-.5h0l.4-2.5.8-.2.8-1.3v-1.1c0,0-1-.8-1-.8l1.2-.3-.5-.9.4-1.2,1.5.3v.6s-.6,0-.6,0l1.4,1.8.3-.7.7-.2,1.5.7-1.3,1.5-.2,2.4.8.6.4-.9,3.6-2.5,3.9-4.5-1-1.6.5-.6v-2.9s-4.4-6.3-4.4-6.3l-.7-5.3v-2.5c.1,0-5-4.3-5-4.3l-4.9-1.5-2.4-1.7,1.4,2.4-1,1.8-.5,5.9.7,3.6.7.2-1.1.5-.6-.2-.5.8-1.1-5.6.4-7.7,1.7-13.2v-5c.1,0-1-15.4-1-15.4h1.1s.2.3.2.3h0c0,.1.4.6.4.6l-.8,2,.2,2.6,2.4-1.1.2,1.7,1.6-.5,1.1.8,2.1-.2-.2.9.6,1.6-.7.4.7,1.1.5.2,1.8-1.2,1.7-2.8v-.4s-.7.7-.7.7l-3-1.6.7-.6-.5-1.5-1.1-1.4-3.5-2.7-1.7-4.2.5-.5-.4-2.4-1.2.4-1.1-.9v.7c-.1,0-.5-.1-.5-.1l.5,1.6-.6.6.5,1.6v.6s.3,1.2.3,1.2h-.8c0-.1.5.5.5.5l-.7.7.6.2v.5c0,0-1.1.2-1.1.2l.7-12.8-.7-6.5.6-4.3,3.2-12.9,2.4-5.4.7-.8.6.2v2.3s.6.8.6.8l-1.8,2.2.9,1.3-.8.4-.7-.4-.6,3,.8-.2,2.2,1.1v2.4s.9.6.9.6l4,.9.3,1-1.6.4,1.1,2.5-.2,1.5.8.3v-2.6l1.4-.8,1.6.3,2.5-.5,7,3.4,1.9,1.4,1.3-.7,1.5-1.9.8-2.4v2.4c0,0,.7,1,.7,1l-.2,1.4.8.6,1.3,2.5-1.5,2.3-.3-.5h-2c0,.1-.6,2.2-.6,2.2l.4.4.6-1.9,2.9.7.9-1v1.9s.7,1.4.7,1.4l2.5.9,5.5-1.9.4-2.3-.7-4,1.9-2.7-.7-1.6-3.7-3-.6-2.3-1.1-.5.4-1.9,3.2.3,2.1-2.1,1.2-1.9.7-2.5,2-2.5h.6c0,0,1.1.9,1.1.9l1.1-.8,1.2.3v-.8s.8-.5.8-.5l.8,1.2,1.9-.8-.2-1.1-.9-.4-.9.4-.3-1.2-.6,1.5-.9-.9-.8.6h-1.8s2-4.6,2-4.6l1.2-1.3-.6-1.3h1.5c0,0,5.6-4.8,5.6-4.8l4.8,2.2.6-.7-1.1-1.3,2.9-.4ZM75.4,172.6l2.6.4-1.1.9.2.8,1.1.2-1.6,1.4-.6-.4-1.2.2-.5,2-.9.2v.7s-2.2-2-2.2-2l-1-2.2-.9-.6.4-.6,5.8-1.2Z"/>
    <path id="DK-81" d="M79.2,168.1l-1.7-1.4,1-1.5,1.4,1.9-.3,1.1-.4-.2ZM66.5,158.7l-.2,1.2,1.1,3.6-1,1.3-1.2,5.4-.5.6v-2.6c.1,0-1,.2-1,.2l-.8-.9-1.1.2-1.1,2,.9,4.7.7,1.8,1.5,1.7-.2,1.5-1.1.3v.6c0,0,.7.7.7.7l-1.7,1.5v2.6c0,0-.7.4-.7.4v1c0,0-2.1,1.6-2.1,1.6l-2.2,2.9.5,1.2-3.2,1.8-1.8-.3-4.3,1.8-.8-1.8.3-1.2-1.6-1.7v-1.1c0,0-.7,0-.7,0l-.6-.3.3-.7-.4-1h-.9s0,1.1,0,1.1h.9c0,.1-.7.7-.7.7l.6,1.1-1.9.7-.5-2.3,1.1-.4-2.1-2.1-2.6,2.3.5-3.1,3.4-1.5-1.3-3.7.8-.5.8.7.8-1.2h.8c0-.1,2.4.4,2.4.4l3.1-1.8-.2-1.5-3.7-.6.9-1.5,1.3.4.5-.3v-.8s-1.1,0-1.1,0l1.2-2-.2-3.1-.5-.7,2.3-.7,1.3.4,2.7-.5.7.3,1.4-1.2,4.2-.7.9-3.5,1.4-1.7.6-1.5.6.7h2.1s1.5-1.8,1.5-1.8l.2-1.4h.4s-.1,1.2-.1,1.2l-1,1.2ZM132.8,145.9l-1,.2-1.3-.6-.7-1.7,3.1-.2,1.2,1.1-1.2,1.2ZM144.5,143.2l.9,2,2,1.6,1.9,1.7,3.1,3.4,3.8,2.8,2.8,1.1,4.9-.5-.2,2.2h-.6s-.5.9-.5.9l.6.6-1.4,2.2-.7,5.7,1,11.5,1.5,6.2,2.5,4v1.9s-.6.5-.6.5l-1.7-.9-3.3-.2-1.8-.9-1.6,1-.3.8-1.1.3-1.3-.7-.2-1.4h-1.3c0-.1-2.7,1.2-2.7,1.2l-.3,1.2-1.3.8-1.5-1-2.6,1-.8,1v.7c.1,0-1.9.3-1.9.3l-1.6,1.7h-1c0-.1,0,.7,0,.7l-2.2,1.1-6.6.6-1.5,1,3.3.2.9-.9h4.6c0-.1,1-.7,1-.7l.6.3,1.4-1,1,.3.7-1.6h.6s.6-.8.6-.8l1.5-.2,1.3-2.3h.6c0-.1,1.2,1.1,1.2,1.1h.7c0,0,1.8-1.8,1.8-1.8l.7-1.5,2.2.5.8-.2,2.1,2.8h0l.2.8-2.8,1.8v1.6c.1,0-2.3.7-2.3.7l-.5,2.9-2,.6-3.2,2.2-4.4,1.4-1.4-.7-.7,2-4.2.9-.7,2.3-3.2.7-2.6-1.4-3.2.8-2.6-3.8-2.5-.6-2.4,1.3v-3.6c0,0,2.3-.8,2.3-.8l-.4-1.8-3.1-.4-2,.4-2.3-.8.3-1.7-2.6-.3-.2-.7.9-.9-.6-1h-.7c0,0,.2-1.2.2-1.2l-2.1-.2-.2.9h-1.1c0,0-1.5,4.9-1.5,4.9l-1.7-.3-2.5-1.8v-1.5c0,0-2.1.3-2.1.3l-.8-1.1h-2.4c0-.1-1-2.7-1-2.7l-1.6-.8-2.1,1.2h-1.1c0,0-3.8,3-3.8,3h-.4c0,.1-1.1-1.5-1.1-1.5v-.6s1.1-.5,1.1-.5l1.2-1.8,1.9-1.7,1.2-2.1.5-1.9-.8-2-2.3-.8h-1c0,.1.2-2.5.2-2.5l-1.4-2.5,2.8-4.6.2-2.5-.8-1.6-2.2-1.5-.2-.9.9-3.2,1.3-1.5v-.8c.1,0,2.2-1.8,2.2-1.8l1-2.2,2.4-.8,1.3-3.3,9.2-2.4,5.8.5,5.1,3.2-1.3,2.3.5,1.3-.5.6-.6-1.3h-.5c0,0-.8,1.2-.8,1.2l2.1,3.9.7-3,.3-1,2.7-1.6.8-2.3.7-.2,2.1-2.8.2-2.4,1.7-1.5,5.6-1.4,4.6,1.2,1.8-1.4,1.8-.5h1c0,0,1.5,1.1,1.5,1.1h1c0,0,1-.5,1-.5l1.1-2,1.6-1.2,1.8.2ZM215.3,125.6v1.1s-2.6.6-2.6.6l-.3-.4.8-1.2,2.1-.2ZM226.8,111.7l-.5,2.8-.7-.4-.8.4h-3.8s-2.7,1.3-2.7,1.3l-.2,1,1.2.2-.6,3.2-1.4,1.5v.2c0,0-.5.8-.5.8l-3.8,2.1-1-.3-.9.5-.7-2.3-1.4-.3-.4-1.1-1.3-.3-.8.4-2.7-1.7v-1s2.4-1.9,2.4-1.9l1.1-1.9,1.8-1.1,4.4-.5,1.4-1.6,6.3-.2,1.9-1.1,3.6.6v.4ZM185.1,59.6l-.6.5-.5-.4-.4.4-.4.2-1.8,1.6-4.4,5.4-3.2,5.5-1.3,5.4,1.6,5.7,6.1,8.5.8,2.4,1,.4-.4,1h-.9s-.3.5-.3.5l-.9,1,.2,1.5-.9,4.4.5,5,.9,1.6-.5,1,1.3,6.6v5.9c.1,0-2.3,2.3-2.3,2.3l-1.3.5-3.6,4.5-2.8,6.5-1.8,9.2-1.6,4.8-1.5,2.9-2.1-.7-2.9,1-2.5-.4-2.9-2.2-5-5.1-2.2-1.1-4.3-4.1-1-.3-1.6.7-1.8,1.8v1.6s-1.4.5-1.4.5l-4.3-2.1-2.5-2.7-4.2-2.2.2,1-1.5,3.7-1,.7-3,.5-2.5-1.5-1.1.4v-1.4s1.3-.3,1.3-.3l.8-1v-.4s-1,0-1,0l-2,.9-1.9,1.7.8.8h1.3c0,0-1.3.9-1.3.9l-.9,1.5h-1.6c0,0-.9,1.1-.9,1.1l-2.1-.5-3.4.4-.6-.5-4.1,1.1-8.5,3.2-3.6,2.6-2.4-.4-.9-.6-5.4-5.1-5,2.2-1.3,1.9h-.7c0,0,0-1.4,0-1.4l-.5-.5-1.8.2-1.2.5-1.3,1.8-1.5-.4-1.3.7-1,2.5h-1s-.6-1.2-.6-1.2l-1.7-.5h-.9c0,0-1.6.2-1.6.2v.9c0,0,1.2.9,1.2.9v.9c0,0-3.8,1.7-3.8,1.7l-.4,1-1.7.7-3.9-.8-2.7.3-.7,2.1.4,1.3-1.6,1.5v1.6s-1,1.4-1,1.4l.4,1.5-.5,1.1.6.4-1.6,2.9-2.5,3-2.8.2v1.5s-1,0-1,0l-2.2,1.4-1.3,1.9,2.2,3.4-.8,1-.7,3.1-1.4,1.3,1.7-.5,2.3.3.3.6-.7,1.4.9-.5.4.3-1.1,1.3v1.4c.1,0-4.2-2.3-4.2-2.3l-1.9,1-.6,1h-1c0-.1-.3.7-.3.7h.4s0,.7,0,.7h0l-3.4-.9-.5-2-2.2-2.9-1.2-5.4-1.2-1.4-1.8-1.1-.6,9.8h-.6c0,0,0-1.5,0-1.5l-.8-1.4h-.5s1.2-10.4,1.2-10.4l2.5-6.9,6.3-12.8,1.3-.8,2.1-2.6,4-6.9.6-.7,1.9-.3,2-2.4,4.1-7.3.6.3,1.6-.9,8.3,3.5h1.1s7.6-2.3,7.6-2.3l8.2-5.2,1.6.3,1.8-.4,5.1,2,5.8.7,4.7-.5,4.7-1.6,3.2-.3,2.3-.9,9.8-8,7-10.5,5.4-9.5,5.5-12.6,4.8-5.1,5-8.8,1.3-1.1,1.6-.7,1.8.7,5.9.3,5.2-.6,6-2.3,5.5-3.3,16.4-13.9,3.7-1.2,2.6,1-3.1,3.1Z"/>
    <path id="DK-85" d="M248.3,413.7l-1.4.5,2.3,2.7-.8-.4-1.9.5-.3-1.5,1-.3-1.2-1.6h2.3ZM231.3,408.4l2.1,1.4,1.8,2.6,2.9.9v2.3c.1,0,1.7,1.7,1.7,1.7l3.3,1.6-.3.8.4.3,1-.6,1.2.3.4.5v2.4c0,0,1.7.2,1.7.2v.8s4.4.3,4.4.3l.7.7,1.7-.4.2-.5-1.2-.4-1-1.4.2-.8,1.4-.6,1.8,1.1,3-1.2-.6-1.4.4-2.3-.8-1.9,1.6.3,3.7,3.2h2.1c0,0,.4.3.4.3l-.7,1.5.9,2.5,2.8.9-.6,1.4v1.7c0,0,1.3,1.5,1.3,1.5l1.5.5,2.5,2.5.5,3.9-1.3,1.2h-.9s-1.3-1-1.3-1v1.4c0,0,.5.5.5.5l-1.1.5.6,1.3,3.1,1.5-.8,3.1-2.2.8,1.2.9-1.2.6-.9.2-5.3-1.1.4-.5-.6-1-.4.3.2.9-.9.5-.5-1-1.1-.5-1.3.3-.8.6-1.2-.6-2.3.3-1.2-.7-.6.3.4.6-1.4.7h-1.3c0,0-.5,1.5-.5,1.5l-3.3.6-2.5,2.9,3.4,1.8,1.2-.3v.5s-1.9,0-1.9,0l-10.9-7.2-3.2-3.7-2.4-2-10.5-4.4-4.2-1.3-3.5-1.9-2.8-4.8v-.2s1,1.2,1,1.2l1.5-.2,1.1-1.2-2-1.6,3.7,1.3.5,1.4h1.8c0,0,.7-.9.7-.9l-.9-.9v-1c.1,0,1.2,1.3,1.2,1.3h.6c0-.1.4-1.3.4-1.3l.9-.4-.2-.8h1.3c0,0-.2-.4-.2-.4l-2.3.5-.9-.4v-1.6h-.7v-1c-.1,0-.9-.6-.9-.6l-.7-.8-1-.4-.9-1.2v-1c-.1,0,.7-3,.7-3l3.9-3.5,1.7.2.3-.7.4-.3.9-.3.9.3,2.7-1.4,5.7.4ZM241.6,406.9l1.1.7,1.7-.2,1.5,2v.6c-.1,0-2.6-.2-2.6-.2l-2.3,2.8-2-1.7-.6-2.7h-.6s-.3-1.3-.3-1.3l1.1.5.3,1.8.7-.8,1.7,1,.5-.6v-1.9ZM271.6,408l2.7,2-.3.6,1,.9v1.2c0,0,1.1.6,1.1.6h1.1c0,0,.4-2.8.4-2.8l.6.5,2.3-.4,1,.7.3,3.5,1.3,1,3.8.9,1-.6,3.3.8.5,2.4,2,2.4.7,1.6-.4.7-1.7.7-1.3,2.7-2.5,1.4-2.8,3.8-1.7,4.2-2,1.7-1.1,2.1-.7,4.9.9,9-.2,1.9-3.7-1.8.4-.6-.2-1.8-3.8-7.5.9-3.9,2.3-3.3-2.9-1.3.4-1.8.7-.7-1.2-1.5-.4-1.7-1.8-1.6-.4-1.2-1.3-.3-1.1-1.1,1.3-2.5-.7-1,.2-.8-1.6-1.3-2-.2.2-.7-.6-1.2.5-1.3-.7-.5-.5-1.3,1-2.8-.7-1.2-2.8-.3,1.1-1.5,1.1.3.2-.6-.7-.4.9-1.3h1.6l1.1.7,1.2,2.2,1.5-.9.5-1.8-.4-1,1.1,1ZM290.2,407.8l-.6.8-.3.2-1.1.6-1.1-.6,3.1-1ZM249.1,404.1l2.2.4,1.3,1.9-2.1,3.1-1.6-3-1.2-1.1,1.4-1.4ZM292.1,404.5l-1.1,2.2-.6-.2-.2.6v-.6c-.1,0,.8-1,.8-1l-.3-.5,1.4-.5ZM299.5,396l-1.3,3.1-2.2-.9-.5-.7,1.2-.2,1.4-1.3h1.4ZM302.5,397.8l.7,1,1.9.9,10.2.6,4.2,1.8,1.8,3.3.4,1.9-.8,2.3-2.2.3-6.3-2.3-4.1-.3-3,1.3-2.3,1.9-5.3,6.8-1.9.4-2.7-.4-1.2-2.2,1.2.4.4-.6-2.8-.2-7.4-2.4-.6-1.4.2-1-.9-.9.7-.9,1.1,2.8.8.2.8-.7h2.6s1.3,1.5,1.3,1.5l-.9,2,2,.6,1.3-.5-.9-1,.7-1.9,1.9-1.3-1.1-.5-.6-1.4,2.9-1.6,1.3.5-1-2.3,2.1.7.7,1.7,4.9-2.1.5.4-1.2,2.1.5.2,1.2-.5,1.5-1.7,2.8-.7-3.6-.4-1,.8-.4-.4-.6-1.7.8-2-1.5-2.4-.6-.5-1.2.3-.3-.6.2-.8,1.9-1.5,1.2,2.2ZM263.8,386.3l-.8,1.7-.3-1.5.5-1.4.6,1.2ZM225.2,382.3l.2.5-1.2,1-.9,2.2-1.2-2.4,3.2-2.1v.7ZM260.4,381.1l.2,2.5-1.5-.5-1-1.6,1.2.2,1.1-.7ZM263.3,380.6l-.4,1.4-.7-.3-1.1.3.9-3.7,2.1.8-.8,1.4ZM226.2,373.7l-.5.4-.3-.3v1c0,0,1.1,1.1,1.1,1.1l.9,3-.7.5-1.6-.6v-5.3c0,0-.4-.8-.4-.8l.3-.3.8.5.4.8ZM307.9,329.8l.5.4h0l-.6.4.2-.8ZM234,308.4l.3.5-1-.6-.9-1.9.3-1.3.7.7-.3.7,1,1.1-.2.8ZM272.1,306.8l-.7,3.2-1.5.8-.9-.9h-.7c0,0-1.2-3.1-1.2-3.1l1.1-.4.6-.8,1.3,1.2.7-3.3,1,1.5.3,1.8ZM224.5,293.8l1.7,2,1.6.9.2,1.2-.8-.8-4.3-1.8-2-2.6-2.2-1-.4-1.8,2.6.9.5,1.1,3,2ZM237.3,282.4l2.3,1.4,2.6.7,4.4.2,2.8,1.1,4.9-1.3,1.2,2,1.6.8,4.8-1.1,5.4-3.6,1.1,3.5-.9-.6-1.7,1.6-.4,2,.2,2.4-1.3.8-1.6-.6-.3-1.1h-1.3c0,.1-.6-.3-.6-.3l-.9,2.5.2,1.7,1.6.9,1.2,1.6,1.6,3.1.2,1.9-1.3,1.8-.3-.5-3.3-1-1,1.2.5.6-.6.3v.9s-2.5,1.2-2.5,1.2v.6c0,0,1.4,1,1.4,1l1.4-.2,5.7-2.9.8.9.4,1.9.8,1.1-.5.3-.2-1-.6.9.5.8,1.5.7v.8s-3.4,1.1-3.4,1.1l-4.1.2-.7.4.4.7-.3.5.8.2v.5c0,0,3.5-.8,3.5-.8l4,.2.4-.7-.8-.7h.6c0,.1,1.5,2.4,1.5,2.4v1.6c0,0,.7.2.7.2l.3,1.3-1.2.7v1.3l-.9.3-.4,1.3,2-.6.3.3.7-1.7,1.7-1.2.3-2.9,1.2-3.1,1.3-.8h0l2.1.8,1.9-1.7,3.4,1.9h0v1.7s-3.6,6.8-3.6,6.8l.2,1.8.6-1.7.8-.4v-1.5c0,0,3.1-.3,3.1-.3l-.5-1.5-.7-.4.8-.6v-1.1s.2.5.2.5l.9-.3-.6,1.5.4.2.6-.6.4.4.8-.2.9.6-.2.7.8.4-.2.4-.9-.6-.9.2-1.8-1.1v.5c-.1,0,.5,0,.5,0l.5,1.5-.3.7,2-.4.5.4.2-.5h.9c0-.1-.2,1.9-.2,1.9l1.7.9.7-2.5h-.6c0,0-.8-1.2-.8-1.2l.6-1.1h.4c0-.1.5.5.5.5l.2-1-.9.2v-.4c0,0,1.2-.2,1.2-.2l.7-.9.3-.8-.8-.2v-1.1l1.2-1.2-.7-.5-.9-1.3.4-1.5-1.1-1.2.3-1.9h0l5.4,4.2,2.9-.5,1.3,1.3-.9,1.7,2.5,2.3-2.7,2.6h-1.9c0-.1-2.5,2-2.5,2l.5,4.6h.7s-.5,2.6-.5,2.6l3.5,1,.4-1.6,1.4-.4.6.9,2.3-1,4.3,1.8,1.3,1.2h0l-.2.9-3.9,2-3.9,4-3.3,9.1.4,1.4-.3.8.4,1.2,1.9,2.2,5.3,2.8,4.4.4,3.6,3.4,2,2.6.2,1.6.5.5-.7,2,.7,2.6-.2,1.1-2.7,3-1.3.8h-1.8c0,0-1.1,2.2-1.1,2.2l-5.7-.7-5.6,2.2-1.8,1.5-.4-.2-3.7,4.8.3,4.2-1,.8h-.9c0,0-.6-.5-.6-.5l.4-3,.8-1.5-.3-.3-2.1.2-2.2,1.1-1.3,2.2.5.6,1.2.3.3.8-.3,1.4.8-.4.6.7.8-1.2h1.3s0,.9,0,.9h1.1c0,0,.2-.5.2-.5l.7.3,1.2-.9,2.4.9,1.1,1.2-.8,3.3-1.1,1.4-1.3-.8-.8.5-.2-.7-1.4-.8.2.8h.9c0,0,0,1.1,0,1.1l.7.2-.8.7h.5s.6,1.5.6,1.5l-.2,1,1.1.2-.3.9,2.2,4.2v1.2c-.1,0-3.5-.1-3.5-.1l-3.1,3-1.8,1h-1.9s-3.3-1.7-3.3-1.7l-1.7-2.4-2.9-1-.3.2.7.3v.7c0,0-1.4,0-1.4,0l-4.8-3.6-1.4-1.7-5.6-2.1-3.5-2.1-3.8-1-.4-.4,8.9,2.3,5.5,2.8.5-.6-1.7-3.1-2.4-1.8-.5.4.8,1h-1.3c0-.1-.9-1.4-.9-1.4h.6s.4-.8.4-.8h-1.4c0,.1-1.6-2.3-1.6-2.3l.3-1.9.5.4-.2.7,2.2.2,1.3-1.7,2,.5.7-.8-.5-1.8-1-.5-1.1.9-.6-.4v-.8c.1,0-2.1,0-2.1,0l-.5.5-1.2-.5v-1.6c-.1,0,1.8-1.4,1.8-1.4l-.3-.5-.8.4-.2-.3,1.5-1.7h-.6c0,0-1.6-1.4-1.6-1.4l-1.9.3-2.2,2.3v.8c0,0-1.1.6-1.1.6l-3-1.7-1.2.2-5.4-1.4-.7.3-.3-.9h-1.5s0-.6,0-.6l-.8-.8-.6.3-1.2-.7-1.1,1.6.2.4.7-.4,1.2.2.8,2-1.5.3-3.3-.4.6-.8,1.9.7-.6-2-1.1-.3-2,1.3-1.1-1.4-1.1,1.2-.5-1.1h-1s-.3,1.1-.3,1.1l.3.6-1.5.4-1-.9h-1.7c0-.1-.9-.9-.9-.9l-.5-1.3,1-.5-1.2-2.6.4-.3.5.7,2.4.6,1.8-3.9-.3-1.4-1,.7-.2,2.1.5.4-1.2.8-.5,1-.6-1-1.3-.3.4-1.6-.7-2.9-4.2-2.4-1.7-1.8-1.4-.7v-.8c0,0,.4-.3.4-.3l1.3.9,2.4.2.2-.6,1-.6v-1.1c0,0-1.7-1.1-1.7-1.1h-1.1s-.6.5-.6.5l.5,1.5-1.5.4-2.3-1.7-1.2.2,1.5-2.9.4.7,2.2-.3,1.9-1.5,1.7-.4.9-1.8-1.4-2.5.7-3.2-1.9-3.9-.3-2.6-2.3-2.3-1.3-2.1-.5.5.2.7h.4c0-.1-.8,1.2-.8,1.2l-1.3.2-1-.5,1.1-2.6h3.1s1.2-2.6,1.2-2.6l-.5-3.5-1.4-3.4-1.3-1.4-5-3.2-6.7-1.2-.7-.6v-.8c0,0,.5-.4.5-.4l1.7.7h2.4c0-.1,4.1.8,4.1.8l1.9-.5.2.5,1-.6v-.4c.1,0-.9-.2-.9-.2l.9-.7-2.1-.5-.7-.3-2.6-1.9-2.1-3.2-.7-.4-5.3-.2-2.8-1.8,5.4-1,2.9.6,4.2,1.8,2.4-.4,3.3-2.1h2.3c0,.1,1.3-.3,1.3-.3v.9c0,0,1.3,1.9,1.3,1.9h1.1c0,0,.5-1,.5-1l-.3-.6.5-.4,2.4,2.2,2-1.2.4-1.7h.4c0,0,.5,1.3.5,1.3l.4-1.4,2.8-.4,1.5-1.3.8-2.6-.5-1.1-.2-4.4-.6-1h-.7c0,.1.2-.2.2-.2l.4-.2,2.2,1.9,3.8-2.1h3.1c0,0,1.7-2.2,1.7-2.2l.6-2.3v-4.1c0,0-.6-1.9-.6-1.9l-3.9-2.2-5.9-.5-2.9-2-2.7-.7-1.4-4.4,1.8,2.7,3.1,1.3Z"/>
    <path id="DK-83" d="M186.6,414.9l-.2.9-1.1.6-1-2.9,1.8-.5.6,1.9ZM177.1,413.1l.2.5-1.2-.3.5-.9.6.8ZM178,411l.6.9h-.9c0,0-.2-.8-.2-.8l.4-.5v.4ZM189.4,407.9l2.3.4.3,1h-.8s-1.8-1.4-1.8-1.4ZM177.6,407.2l-.9,1-.6-1h1.5ZM157.2,406.5l1.2.3.2,1.1,2,2.1,2,.4,2.9,3,.8,1.8,1.9.6.5,1.2.9-.2,1.6-2-1.1-.9.3-.4,1.3,1.4-.6.7,1,2.4,1.1,1.3.8.5.9-1.6,1.4,1.4.3-.2-1.8-2.4h.7c0-.1,3.5,3.4,3.5,3.4v1.6c0,0-4.5.7-4.5.7l-1,.6-.6,1.4-1,.7-3.4-2.5-3.7-4.8-2.3-1.5-2.9-3.7-.5-2.8-1.9-2-.4-1.7ZM172.4,405l1.3,1.7-1,.9-2.7-1.8-1.1.8-.8-.7,1.5-.6.3.5,2.5.5v-1.2ZM175.4,401.6l1.8,1.2-1.1-.2-.6.6h-.9c0-.1-.2-.9-.2-.9l.7-1v.4ZM162,400.3l1.8.4,1.2.9,1.4-.6.2,1.3-.7.2-2.4-1.7h-2.7s-1.5-1.6-1.5-1.6l.2-.8.9-.3,1.5,2ZM187,396.3l.8,1.2-.3,1.1,1.3.4.2,1.1-.7.6-.7,2.7-.3.5-.4-.3-.4.8.8,1.1,1.5.3.8-.8.2-1.1,1.5-.3-.2,2.8-2.5.3-2.3,2.9-2.5-.9h-.5c0,0,.9,1,.9,1l-1.2-.2-1.2.7.7-1h-1c0,0,0-1.3,0-1.3l-1.4-1.2-.4-2.5.3-.5-.9-.4v-1c-.1,0,1.1,0,1.1,0l.8-1.2,3.7-2.4,2-1.9.4-.3ZM191.9,396.3l.5.3.7,2.9-1.1-.5-2.4.4.2-.9-1.4-.2-.2-1.2.4-.4,1.2.2,2.1-.7ZM154,397l1,.3.4.7-.7.7-1.6.5-1.5-1.6v-1.1c0,0,1-.8,1-.8v1c0,0,1.4.4,1.4.4ZM161.4,396.3l-1.8-.9-.3-1,2.1,1.9ZM131.6,397.1l4,3.6,2,.2,1.6.7,3.3,3.5,3.3,6.4.4,2.7,1.2,1.9.4,2-.5.4h-3c0,.1-2.3,2.5-2.3,2.5l-3.2-.2-2.3-1.3h-1.3c0,0-1.5-1.9-1.5-1.9l2.2-2,1.2,1.5,2.4,1.2.2.7h1.2c0,0,1.3,1.5,1.3,1.5l.5-.5-1.3-2.3-4.9-3.3-1.2-.3-.8,1.1h-.6c0-.1-2.8,1.2-2.8,1.2l-2.5-1-.9-1.1v-1.1c-.1,0-1-.4-1-.4l-.7-6.4-.6-.8.6-.6,1,1.5,1.4.4,2.6,3.6,1.7-.5-1.3-.8,1.5-.6-1.7-.5.7-1.1h.9c0,0-2.3-1.6-2.3-1.6l-2.7-.4v-1.1s-.3-.2-.3-.2l-.2-.8,1.1-.4v-.8c.1,0-6.4.4-6.4.4l-2.7-1.8v-.9c0,0,1.7-.5,1.7-.5l.8-.7.6.2v.6c0,0,.9,0,.9,0l-.6-.9h-.8c0,0,.6-.7.6-.7h-.7c0,0-.7.8-.7.8v.2c.1,0-.5.2-.5.2l-2.5-.5-.4-.7v-.8s2-1.8,2-1.8l2.3-1.4,3.1-.8,1.7.4,3.4,2,1.7,1.8ZM112.8,389.3l-1.3.3-.5-1.7.3-.7h.9c0,.1.7,1.1.7,1.1v1ZM209.7,385.2l-1.4,7.8-2.9,10.7-2.6,3.3-1.9,4.3-.3,1.9-.6,1-.2,2.8-2.7,6.9-2.8,10.4-1.3,2-1.6.7-1.9-2.2v-1.1c0,0,.6-1.1.6-1.1l-1.1-2.6v-2.1c-.1,0-1.7-2.5-1.7-2.5l-2.3-1.5-.5-1,3.6,1,.9-1.9.7-.2-.5-.4.6-3.7h.8c0-.1.2.9.2.9l1.1.5.3-.8h1.5c0-.1-1.4-2.5-1.4-2.5v-1.2s-.7,1.2-.7,1.2l-.8-.5-.4.3-.3-1.5.7-1.6,4.9-6.4.9-.9h1.3c0,.1,1.5-1.4,1.5-1.4l1.3-3.2,1.4-1.7,2.1-8.3,1.6-2.9.2-1.6,2.7-3.2.9.7.2,1.5ZM125.7,369.8l.3,2,.6-.6-.5-.6,1.1-.5-.2.9-1.2,1.6h-1.4s-1-1.1-1-1.1l.5-.4-.4-1,1.4-.5.7.2ZM130.2,363.1l.7,2-.2,1.2-2,.7-.6-2.5.4-1.2.7.3,1-.5ZM122.7,359.6l-1,.5-.9-.7.7-.8h.8c0-.1.8.8.8.8l-.5.3ZM26.8,346.9l.4.6.3-1,1.2-.9h1.6c0,.1,1,.6,1,.6l-.3,3.7.4.7.7.5,1.4-1.6,1,.7.8,3.2-1.3,1.4,1.4,2.1.4,2.7h.7c0,0-.8,1.6-.8,1.6l.2.4-1.6-.2-1.8-1.4-3.5-7.8-3.1-3.1-.2-2.1,2.1-1.5-1,1.4ZM121.9,344.9l-.9-.2-.9-1.9.3-1.1.9.3.8,1.4h.8c0,.1,0,1,0,1l-1,.5ZM185.9,328.1l.2-1.1.5.6,4.1,7.5,1.6,1.9-.2,1.4.7,2.1,1.8,1.9.7,1.6-.8.9-1.7-.2-2.8,1.4-.5,1.6-.9.5-1.3-.7v.7c.1,0-.5.1-.5.1l-1.4-1.3-1.8-.7v.4s-1.9.6-1.9.6l.3.6-.2.5h-.8c0,0,0,.5,0,.5l2.2,2.4.5-.7-.6-2.8.9-.8,3.6,2.4,2-1.5,6.7,7.6,2,3.6,1.9,6,1.5,1.3.2.3.5,1-1.7.5.4-.5-.3-.9-.5-.4-.3.4-1.2-1.2h-.8c0,0,.2.9.2.9v.9s0,2.3,0,2.3l1.9,5.1-.6,6.2-1.1,2.1-1.4,6.6.3,1.1-1.3.6-.9,3.4-2.7,1.5v-.5c0,0-1.1-.3-1.1-.3l-.4.7-2.9.4-.4-.6-1.5-.3v1c0,0-1.2.8-1.2.8l-5.7,2.5-1.9-.6-1.3-1.4-3.9.3-2-1.2.2-.6-1-1.4-1.4,1.8-2.4-.4v-1c0,0-1.6-.5-1.6-.5l-1-1.7-3.2-1.6-.7-1-1.4.9,1,.7.4,1.3-1.1,1.4h-.8c0,0-1.2-1.6-1.2-1.6h-1.7c0-.1-2.1-1.4-2.1-1.4l-3.9,1.8-.3-1.3.9-2.5h1.5s.9-1.2.9-1.2l2-.5.8-.2,1.2-.8-.8-.5-1.3-2.6h-.6c0,0-.1-1.6-.1-1.6l-1.4-2.8h-.4c0,0-.5.8-.5.8l-.4-.2-.6,1h-2.6c0-.1-2-.7-2-.7v-1.7c0,0-1.8-.8-1.8-.8l-.3.4.9,1.1-.5.8-.5-.3-.2,1.3.7-.5.2,1.7,1,.7,2.2,3.3-1.4,1.6-3.2-1.5.9-1.8-.6-2.4.2-4.9-1.4-1.4h-2.6c0,0-1.4-2.2-1.4-2.2l-1.1-1,.5-.9-1.3-1.8.6-.4.2-4.5-1.1-3.3v-.9c0,0,1.2.5,1.2.5l.3-.6-1.2-.5-.4-1.7-.9.7h-1.5c0,0-3.7-1.6-3.7-1.6l.2-1.4,2.1-.2,1.5-1v-.9s-1.1-1.4-1.1-1.4l-2.5-1,.7-.6,1.8.3v-1.2c0,0-2.3-1.1-2.3-1.1l-3.3-.3.2-1.3-2.1-2.8.4-.6.4.9,3.9,3.3,2,.9.9-.3-1.3-1.1-.2-.8h-.6c0,.1-1.3-.9-1.3-.9l.2-.6,1.1.5-.5-.8h-.5c0,0-.4-.6-.4-.6l-1.3.3-1.2-.8-.9-2.4-1.9-.2-1.4-1.5-.2-1.1,1.4-.3,1.8,1.2,1.6.2,1.7-3-.9-1.5h1.9l1.6-1.1,2-.3,1,.5v3.2c0,0,1.2,1.4,1.2,1.4l3.6.5,1.6-.3,5.9-4.2.9-1.3,2.6-.6,2.2-1.6,2.3-.3,2.8-1.5h1.1c0,0,.6-.3.6-.3l.6-1.1,5.1-1-.2.4.4,1.3-.4,1.4h2.4c0-.1.2-.6.2-.6l-.9-.8v-1.8s-.8-1.4-.8-1.4l1.4-.2,7.3,4.1,2.5,2.5,6.2,4.6,1.6,1.9-.5.3-2.1-2.8-2-1.4-.3.3.4.8h-.6c0,.1-.4.6-.4.6l-.8.4v.6c0,0,.9.7.9.7v1.1s1.4,1.5,1.4,1.5l-.8.5-.6-.3-.4.7.7.9-2.2-.5-.2,1.3-.8-.2-.4,1.2v.6c-.1,0-.2,1.6-.2,1.6l-.8,1.7,1.3.2.9-.9,1.1.7,1.8-1.8-.5-1-.6-1.5,2.8.9,1.2-1.3,1.3.6v-.4s1.1-.2,1.1-.2l.4-.7,1.2-.2,1,.7.9-1.1-.3-2.1-3.7-1.9v-.5c0,0,1.5-1,1.5-1l1.8,1.8,1-.3-.7-1.3.2-1.9-1-1.6-.7-3.1h.1c0,0,2,3.3,2,3.3l.6-1.2-.9-.7.7-.2-.3-1.8-.9-2.3-.6.4-1.3-1,.2-.9.5.9,1.1.3ZM154.6,323.6l1.4.4v.7c.1,0-.6.9-.6.9l.4,2.6-.4.5-.2-2.9-1.3-2.3h.5ZM94,287.6h.6c0,0,.3.7.3.7l.7-.2.4.4.3-.3h0l.3-.3h.7s-.4-.2-.4-.2h0s2.9,1.3,2.9,1.3h0v.8s5.2,7.1,5.2,7.1l-1.4,1,1.1.5-.6,1.9,2.5.2v.7s1.4,0,1.4,0l1.2,5.1,1.4.3v1.3c-.1,0,2.7-.2,2.7-.2l.4-.8.8,1-.8,1.1,1.2,1.5,1.6-.8,1.6.6.3-.7,2.1,1.3.2,1.7-.9,2.9h0l-6.5,1-1.5-.8v1.4c-.1,0,2.1,1.1,2.1,1.1l4-.5.7.5.8-.6,2.6,3.7.6-.2,1.8,1,.6,3.2.9,1.3,3.3-.7,3.7.4-4.5,3.8-.3,1.5-1.4,1.7v1.6c-.1,0-1-.4-1-.4l-1.6.2-.3,1.8.7,3h-1.2c0,0-3.5-1.1-3.5-1.1l-2.3,2.3-1-.6-1.3.4-.2-1.2-2.5-1-.3.4.5.8h1.3c0,0-.8.8-.8.8l.5,1.7h-3c0,0-1.9-.5-1.9-.5l-2.3,1.4,2.2.8,3.9-1.1,1.2.9,1.2-1.4,1.6-.2,4.7,4.7-2.8,3-3.9,1.3-.4.9,2,4-1.4,3.2-.8-1.2-1.2-.4-.7.3.8,1.2,3.4.7,1.6,1.8.2,1.8-1.3,1.8h.7s2.1,3.3,2.1,3.3l-3.1-.5-1.2,1.9-1.9.5v1.4c0,0-.8,0-.8,0l-.6,1.2,1.8-1.1v-1.3l1.5-.3,1.7-1.7.7.6.8-.3,3.8,2.6.5,1.4-.5,1,.3.7-1.7,2.2.2,3-3.9,2.1-.6-1.4-2.8-.5-2,1.9-4.4,2.6.5,2.6,1,1-3.1-.5-.7.8v.5c0,0-.5.7-.5.7l1.5-.5.3.5.6-.6,1.1,1,.9.2,1.4,2.2.8.3v1.7s-3.5,3.7-3.5,3.7l-2.4-.4-1.7.9-.9-.3-.2-.5-.2.8v.3c0,0-.1.6-.1.6l.2,1.1.6.4.5-.4.9,1.1,2.7.2,3.9-2,1.8-.3v-1s.6-.2.6-.2l1.7,1,1.7,3.1,1.6.5,2.8,2.2h3.1c0,0,.1,1.7.1,1.7l.9,1,.2,4.5.6.4.2,1.2,1,.6-.3.9-1.5.8-3.3-.8-.6.9v.6c.1,0,1.6.2,1.6.2l1,.9.2,1.4,1.1,1,.2,1.4-.6,1.2-1.8.6-1.6-1.4v-.7c.1,0-1.7-.6-1.7-.6l-1.6.3-1.3-.7-.2-.7,1-.7.4-1-1-.5-.4-1-2.7-1.5,2.7-1.2h.8c0,0,.5.9.5.9l1.3-.6-1.4-1.6-2.3-1-.7,2.3-1.2-.3-.4.5h.6s.3.6.3.6l-1.9,1.1.2,1.3-.8,1.3-.7.4-1.3-.7-.2.6h-.9s-.3.6-.3.6h-.7c0,0-1.7,2.9-1.7,2.9l-3.7,2h-1s0-.7,0-.7l-.7-.5-1.8.4-.6,2.2-1.2.7-.9,1.8-1-.6-2.5-.4h-.7c0,0-1-.4-1-.4l-1.4.3-1-2.6.6-1.5-.3-.7-6.1-2.6h-7.4c0-.1-2.3-1.9-2.3-1.9l-4.6-1.9-3.9-.3-2.3,1-2.5-1.2-1.8.3-1.5,1.5-1.5-.5-1.9.5-3.3-2.1h-3.2c0-.1,1.6-6.4,1.6-6.4v-2.8c0,0-1.8-6.5-1.8-6.5l1-6,2.5-5-.3-.6.6-1-.9-.4-4.5.4-3.7-.6-.4.9.6,2.4-.6,2.6,1.3,2-1.6,1.3-1.6-.2.8,1.4-.7.3-1.4.5-.5-.4-2.4-3.5v-1.4l1.1-9.3.5-.9.5-2,.7-.7,1.5-.2-.3,1,3.7.3,1.2,1.1-.4,1.3-1,.9-.3,2.3,4.4.7,2.4-.4.5-.8,1.2.4.2-.7-.4-.4-1.3-7.3-.2.7h-.4c0-.1.7-2.4.7-2.4l-.5-.3v-1.5s.5-.5.5-.5l-.8-.7.6-.2-1.4-1.1.5-1.1.6.3-.4-2.1.4-1.4-1.1-.4-4,2.4-1.2,2.6-1.8.3-.9-.9v-1.1s1.1-1.4,1.1-1.4l1-.3,2.1.3,3.6-2.2,1.2.4.7-1.9v-1.1c0,0-.9-2-.9-2l-2.4-9.5-4.9-3.5-2.3.4-3.3-.8-.4.9-1.8-.8h.6s0-.4,0-.4h-1.2s.4-.7.4-.7l-1.4-2.1-7-7.8-1.7-2.5.2-.9,1.3-.6v-.5s-1.8-1.4-1.8-1.4h-1.5c0-.1-1.4,1.7-1.4,1.7l-.8,1.8v1.5s1.1,2.1,1.1,2.1l1.2.5-.7,1.2.6,1,2.6,2.4v1.9s-.9.5-.9.5l-7.2-6.2-8.2-3.9,5.9-19.1,1.1-7.5-.4-5.3h0l1.3-.2h0l-.7-1.6h0l3.1.5v1.1c0,0,3.3,2.6,3.3,2.6l.9-.5h2.6c0,0,2-2.6,2-2.6l2,2.6,3.1.3-.6.4,1.8.9.6,1.4h3.2s1.3-1.4,1.3-1.4v-2.8c0,0,1.6-.3,1.6-.3l.7-1.2-1-2.3,2.6-.8,1.6,1.6,5.8-1.7,2.2,1.3,1,3,2.6,1,4.8-1.7-2.3-2.3,2-1.2,1.2-4.3,1.1.2.7-1.9h1.1s5.9,1.3,5.9,1.3l-.5,4.9,3.6,1.9,1.4-1.2,1.1.5.9-1.8.8.8,1.9-4.1,1.4,1,2.3-1.8,3.2-4.1v-1.7s1.7-3,1.7-3l2.6.2,1.7,1.9,1.6.2Z"/>
  </g>
</svg>