<svg xmlns="http://www.w3.org/2000/svg" xmlns:amcharts="http://amcharts.com/ammap" id="Layer_1" viewBox="0 0 512 512"><g id="_x3C_defs"><amcharts:ammap bottomLatitude="57.51" leftLongitude="21.771" projection="mercator" rightLongitude="28.209" topLatitude="59.669"/></g><g><path id="EE-84" d="m317.8 243.3.3 3.5-1.2 2.2 1.8.3.4 3-.8 1.4H317l-1.5 1.3.6 1.2 5.7.9 4.3-.9 5.5 2.3.7 1.8-.8 1.2 1 .5v1.5l.8-.2 1.5 1.4 1.9-1.4.4 5.2 4.3 3.7.9-.7 4.2 4.5 1.1 1.7v2.3l2.2 5.7-1.3-.2-1.1.9-1.1 2.7-7.5 8 1.8 30.7H337l-.6 1.3-3 .8v.9l-1.2.7h-3c0-.1-.3-2.9-.3-2.9l-1.4-2.6-2.4-1.6h-1.8l1.2 2.7-2.6 1.3v1.4l.5.6.9-1.8.4 2.8h-1.3l.2.9-1.6.6v1l-1.1-.2-.4 1.3-.6-.4-1.3 1.3-2.6-.2.8 1-4.8 5.8-1.1-1.3h-4.7l-.6.8 1.8 4.3-2.9 5.9-1.2-2.2-1.6 1.6-.5-1.6-2.4.9-.7-.4.6-1.7-2.8.7-3.2-2.8 1.7-1.4-1.1-1.4-3.3-2.2-3.5-.2-2.3-4.2-3.5-3.5-2.2 2.9 3.2 4.6-.3 5.5-1.3.6-2-.5-2.4-3.4 1.3-.4-.9-.8-.8.4-.5-2.7.7-1.7-.8.4-.9-2.3.6-2.1-.9-.9-1.2.4.3 1-6.5-.2-.3 1.7H263l-2.8 3.8-.9-1.1-.4-3.1-1.2-.6.8-2.7 3.2-1.8-.8-1.1.2-1.4h3.2l.8 1.1.4-1h.8l.3 1 .5-2.5-2.3-1.8v-1.3l1.1.2.5-.8-.6-2.2.6-.6.6 1 .5 3 1-1-.6-2.6 1.4-.5.3-1.5h-1.1v-.8l1.5-.9 2.2.4 1.8-1.7 1.5 2v-1.1l1.2-.7v-2.9l-1.1-3.1 2.4-1.3-.7-3.6-6.8-1.1-1.9-4.3-1.3-.8-2.6 1.2-.5-1.9-.6.6-3.8-1.3-4.6 1-.7-3.1 1.2-8.1-.2-4.1 1 .5 1.4-1.9-.4-7.3 1.5-.9.3-2.2 2.9-.4.7-1.6 3.2-.6 2-2.3 1 .9 1.1-.9V264l1.3-.9-.3-1.2 4.6-1-1.1-.9-.5-4.5-1.1.3.3-1.9 2.5-1.3.7 1.2 3.4.4.9 1 2.8-.8.7 1.5h1.4c0 .1 1.9-.9 1.9-.9l4.6 1 1.1-.8-.4-.9h2l2-2.2 1.1 1.7 1-.7-.8-.8 1.4-1.1 2.7.6 1.7-1.9 2.7-.4 1.2-2.8 4.4-.3 4.1-1.7 1.1-1.2Z"/><path id="EE-65" d="m383.8 328.2 2.6-.9-.2-1.4 1.4-1.4-1.2-.7.2-.8 1.2.2-1.5-2.1.4-2.1 2.9.7 3-1.9.9 1.8-.6 1.9 1-1 .9.6.3-.9 2.3-1.3h1.6l.9 1.1v-1.1l3-2.5.5-3.8 2.1-3.2.7-.2.8 1.3v2.1c.1 0 1.3-1.7 1.3-1.7l1.4.4.6-.9 1.6.3.2 2.1 2.1-.6.7-1.1.6 1.2 1.3-1.3.4-3.8 2.2.8 1 1.9 3.6-.9.4-2.5h.9l1.5 2.1h5.6l.3.9 2.8.3-.6 3.2 6.1 1.3.5-.7 2.7 1.9 2-.4.9 2.3 7.9 1 5.6 10 2.7 3.2-2.1 6.8 1 6.7 2.8 1.8-.4-3.4 3.1 2 .4 2.2-1.4 2.5.5 1.9-2.1.9 2.1 3.1v1.3l2.6.6-.2 1.5-1.4.6.8.8 2-.8 2.7 1.8 1.7-.8 1.8.3.5 1.2-.7.7.3 3.4-1.7 1.7.2 1.3-.5-.3-1 1.5-1.2-.3-1.5.9-2.6-2.4-1.8 1.6-4.7-.9-6 1.2-3.5.3-4.7-1.3-3.7.2-1.5.4-2 2.6-.3-1.1-.9.3-.8-1.1h-1.3c0-.1-.3-1.9-.3-1.9H435c0-.1 1.4-4.7 1.4-4.7l.9.3 2.4-2.5.2-1.2-2.3-1.1.3-1.6h-.9l-.3 2.7-2.5-1.5-1.8.4-2.2-1.4v-.6c.1 0-2.1.5-2.1.5l-.5-1.6-1.5.5-1.6-3.6-1.5.2-.5-1.5-2.2 2.2-1.1-.8-1.2 1.5 2.5 4.5-2.6-.5v-.6h-4l-.3-.7-.4.6-1.4-.8-.3-3-5.7 3.4v-1.3h-.8l-2.2.7-1.2-.5-2.6 1.4-1.1-2h-1.7l-1.4 1.2-.4-1.3h-1.6l-1.8-1.6-2 1.4h-1.9l-.4-.6-2.3.8-1.8-1.5.2-.8H381V353l-.7-.2 1.6-4.7-1.5-2.2 1.7-2.6v-2.4c.1 0-.7-.3-.7-.3l.3-2.3-1 .4-.2-2.1 1.9-3 1.1-4.7 1.2-.4Z"/><path id="EE-44" d="m394.8 120.3 10.3 8.1 4.1 1.7 8 .6 13.4-1.6 12.2-.5 12.3 3.1.6.8 4.1 1.2 11.3-.2 1.5 2.1 3.7 1 4.3-1.2 4.2.2 1.6-.8 4.5-3.9 3.8-6.1.5 1.1 3.6 1.8 2.2 2.2 1.2 2.9 4.7 3.6.8 2v3l-3.1 4.5-3.1 6.7h-5.6l-5.5 2.5-2.2.3-3.9 4.3-1.7 9.1-1.9 3.7-4.6 5.4.3 2.5-1.6 2.4.2 3.3-1.3 1.5-.5 4.2-1.6.7-.6 7.4-22.5 22.1-9.4-3.5-10.8-1.5h-19.2l-1.3-.6-.9-2.1-2-1.4-4.4-.7-.4 1.4-6 1.1-1.5-3.8.4-3.1-1.2-.9.7-1.8-2.1-1.5-.2-1.3 2-1.8 3.8-.7 1.5-2.1-.2-4.5 1.6-1.5-1.1-1.2.8-12.5.9.4 2.2-2.7 2.9-.3.3-1.1 1.1 1.6h1.6l.6-4.3h.9l-.4-2.5-1.5-.5.8-1.7-.9-2-6.4-3.4.6-.7-.5-4.3-6.7 3.7-.7-4.1h-.8l.6-3.5-.5-.7 1.8-1.9.9-3.5.7.2.4-1.4 1.5.4.7-1.4-3.3-1.8-2.8.4-.9-1.2-1.1.9-1-.7 4.1-3.9-2-4.1 2.2-1 1 1.4 1.8.3-.6-8.5-2.1-4.2v-1.5h.3Z"/><path id="EE-78" d="m444.8 243.6 11.8 48.3-5.1 9.3.2 11.5 2.9 5.6-7.9-1-.9-2.3-2 .4-2.7-1.9-.5.7-6.1-1.3.6-3.2-2.8-.3-.3-.9h-5.6l-1.5-2.1h-.9l-.4 2.4-3.6.9-1-1.9-2.2-.8-.4 3.8-1.3 1.3-.6-1.2-.7 1.1-2.1.6-.2-2.1-1.6-.3-.6.9-1.4-.4-1.1 1.7v-2.1c-.1 0-1-1.3-1-1.3l-.7.2-2.1 3.2-.5 3.8-3.1 2.5v1.1l-.8-1.2H397l-2.3 1.4-.3.9-.9-.6-1 1 .6-1.9-.9-1.8-3 1.9-2.9-.7-.4 2.1 1.5 2.1-1.2-.2-.2.8 1.2.7-1.4 1.4.2 1.4-2.6.9-.2-.8-1.5.2v-2l-2.6-.9v-1.7l-.9-.8h-5.1l-.8 1.3-1.5.2-2.1 1.6-.8-.6-.9.4-.8-3.8-.9.5-1.9-1-3 5.9-3.5-.7-1.1 3.4-9.5-.7-.4-1-1.7.5-.5 1-.5-1.3-1.6.6-1.5-.8-1.8-30.7 7.5-8 1.1-2.7 1.1-.9 1.3.2-2.1-5.7v-2.3l-1.2-1.7v-1.3l.7-.3.8-2.5 1.6 1.7 1.3-1 1.4.8 6.8-5.1 2-.6.7-1.4 2.9 1.1.3 2.2 1.4.8-.4-.9.9-2.5 1.2-1h2.9c0-.1 2.3 1.1 2.3 1.1l.6-.8-.9-.6 1-.8 3.5-.4-1.7 1.8 2.1 1 1.3-1.2 3.6 3.1 3.2-1.8-.7-.8v-1.6l2-2.7-.5-1.1 4 3.9 2.1-1.1v-1.4c.1 0 1.4.8 1.4.8l1.4-1 1.8.5.9-1.2 1.7-.2-.3-1.3h2c0-.1.9-8.6.9-8.6l5.3 1.7 2.4 2.2.6-.7 1 .7.3-1.3 1.5 1.6v1.2l1.9.4v-1.9c.1 0-1.1-2.4-1.1-2.4l.6-1.1-.5-.9-1.2.3v-1l3.2-.8 1.4-1.6 1.3.7.8-1.8-.5-1.2 24.2-7.7 1.2 5Z"/><path id="EE-51" d="m282.8 197.5 1-2.7.9-.3 1.3 1.1 2.1-2.3.7-5.7-1.7-2.7 2.3-2.1 1.2.5 1.9 3 2.2-4.8-3.4-2 1.2-2.9-.8-1.6 4.4-5.7 2-5.1-1.9-5-2.7-3.3h2.6l2.3.9 3.8-1.8 4.5 2.9 1.1-.7v-2.3h2.2l1.6-1.5 3.5.2 2.5-2.1 8.1 1.3 2.3 2.6.3 1.3-1.1.4v1.1l2.3.2-.4 4.4 1.5-.7 1.6 1.1-.8 1.8-1.2.6.7 1.1-.8 1.2h1.6l1.4 1.4 1.4-1.1 1.1.3.7 3.6-2.2 1.7-.9 4.3h-1.3l-1.1 1.1-.8 5.3-1.7 2.1.7 1.5.7-1.4 1.2 1.5 1.1-1.7 2.5 2.5 2.7-.6.8.5 1 1.1.9 3.9 2.1.7.4 2.1 3.6 2.1-.4 2 1.1 3 1 .4-.4 2.7.9 1.9-1.3 3.3.5 1.3v1.3l-1.1-.5-2 3.2.8.6.5 3-6.5.8-1.6.9-.9-.5-.8 2.5-2.6-.4-1.4 1.3 1.1 3.6v2.7c-.1 0-3.2 2.2-3.2 2.2l-.7-2-1.9-1.3-1.3.2.2 1.9-1.4 1.6-2.6-.2.6 3-2.3 1.6-.2.9-.9-.2-1.2 3.7-1.1 1.2-4.1 1.7-4.4.3-1.2 2.8-2.7.4-1.7 1.9-2.7-.6-1.4 1.1.8.8-1 .7-1.1-1.7-2 2.2h-2l.4.9-1.1.8-4.6-1-1.9 1.1h-1.4c0-.1-.7-1.6-.7-1.6l-2.8.8-.9-1-3.4-.4-.7-1.2.9-.7 3.7-11-3.8-2.1-4.4-.7 1-5.7 1.3-.7-2.8-5.1.5-1.1 1.6.5 1.2-2.5 1.8-1.3-.6-.9 2-4-1.1-1.4h-1l-1.2-1.9 1.7-3.6 3.5-2.1.7-5.5-1.9-3 3.6-2.6Z"/><path id="EE-86" d="m379.4 352.6.7.2v1.5l1.9-.1-.2.8 1.8 1.5 2.3-.8.4.7h1.9l2-1.5 1.8 1.5h1.6l.4 1.4 1.4-1.2h1.7l1.1 2 2.6-1.4 1.2.5 2.2-.7h.8v1.3l5.7-3.4.3 3 1.4.8.4-.6.3.7h4v.7l2.6.5-2.5-4.5 1.2-1.5 1.1.8 2.2-2.2.5 1.5 1.5-.2 1.6 3.6 1.5-.5.5 1.6 2.2-.5v.6c-.1 0 2.1 1.4 2.1 1.4l1.8-.4 2.5 1.5.3-2.8h.9l-.3 1.6 2.3 1.1-.2 1.2-2.4 2.5-.9-.3-1.4 4.6h2.5c0 .1.3 1.9.3 1.9h1.3c0 .1.8 1.3.8 1.3l.9-.3.3 1.1 2-2.6 1.5-.4 3.7-.2 4.7 1.3 3.5-.3.8.3-.4 1.2h-.6l.7 1-1.5 1.2v2.1l-3.1.7 1.4 1.9-.4 1.5 1.6 1.3-1.2.9h1.3v1.4l1.2 1-1.4.8-.3 2.8-1.1-.4-.9.8-.4-2.6-2.1 2.3-1.4-1.1-1.4 1.1v1.4h-1.3l-3.1 4.9.9 1.6-.3 1.4 1.5 1.5-.8 2.4 1.2.8-2 2.1-2.1.3-2.3 2.7 2.1 8.6-5.5-2.9-1.4-1.6-1.8.2-1-.9-2.5.3-5.7-1.4-3-2.3-3.1-.7-.8-.6.6-1.7-1-1.1h-2.8l-1.3-1.2-.7 1.2-1.7.4-.5-1 .7-1.6-1.9-1.9h-1.4l-3.3 2.5-.4 3.3-1.9 1.4h-2.5c0 .1-.6 1.4-.6 1.4h-.7l-.8 1.9-1.5-.2 1.1-1.9-2.8-1.7-.4 2.6-1.6.3-.9-.7v.7l-1.9.1-.3.7.7.5-2.1.3-2.9 3.8v2.8l-1.9-1.1-.3-3.2-1.7 1.5-.4 2.4-4.6-1.8-2.4-7.4 1.4-2.3-2.9-.3.3-.7 1 .4 2.4-4.4-4.4-3.7 4.9-6.3-.4-1.9h-.9v-1.5l-1.4.9v-1.5l-1.7-2.3.3-1 1.8-.2 1.4-1.2-.9-2.6 1-.3v-1.7l-1.6-.8-2.9 1.4-.2-1.6-1.7-1.7 1.1-1.8-1.3-3.7 1.8-1.7-1.3-2h-1.8l-2-1.4 1.7-.6.5-2 1.4-1.3-.3-2.7-1.3-1.1.9-1.8 1.8.8 1.8-1 2.4.4v-1.5l1.1-.8 1.1.7 4.3-.9Z"/><path id="EE-67" d="m178.6 323.3 1.6.5-1.1 5.3-1.3 2.3-1.6.5-1.4-3.1.7-4.8zm10.8-10.3-1.2 2.5-1.8.5.3-1.4.8.2 2.2-3.2-.5 1.5Zm-.6-71 4.3 3.7 3.7-1.3 11.7 4.2 2.4-2.5 3.4-1.3 1.1-1.4.7-3.7 3.1-1.8 1.4-1.8 3.2 2.5-1.3 1.3.4 1.3 2.2-.3 4.8-2.6 2-3.9 2 .9 1.3-.5 3.4 2.3 2-.7.6.7 1.3-.3 1.2-1.9 2.2-1.4 4.3 3.5-.8 6.6 1.1 4 .7.2 1.1-.5.6-2.8 3-4.1 1.1.2 1.3-1 .7 1 1.4-.4 1.5-2.2-.4-.6 7 1.5 3.8-.9 4.4.7 3.8 2.1-3.8 10.9-.9.7-2.5 1.3-.3 1.9 1.1-.3.5 4.5 1.1.9-4.6 1 .3 1.2-1.3.9v2.5l-1.1.9-1-.9-2 2.3-3.2.6-.7 1.6-2.9.4-.3 2.2-1.5.9.4 7.3-1.4 1.9-1-.5.2 4.1-1.2 8.1.7 3.1 4.6-1 3.8 1.3.6-.6.5 1.9 2.6-1.2 1.3.8 1.9 4.3 6.8 1.1.7 3.6-2.4 1.3 1.1 3.1v2.9l-1.2.7v1.1l-1.5-2-1.8 1.7-2.2-.4-1.5.9v.8h1.1l-.3 1.5-1.4.5.6 2.6-1 1-.5-3-.6-1-.6.6.6 2.2-.5.8-1.1-.2v1.3l2.3 1.8-.5 2.5-.3-1h-.8l-.4 1-.8-1H261l-.2 1.4.8 1.1-3.2 1.8-.8 2.7 1.2.6.4 3.1.9 1.1-2.8 3.8-4.4.3-8.1 5.4-1.4.4-1.7-2.6-5.2 1.1v2.6l-2.3.5-1.7 2.1-1.4-1.7-1.9.2-2.1 2.6-3-2.9-3.3 2.4h-1.5c0-.1-1 2.2-1 2.2l-3.8.9-1.3 2.1 1.1.6-.6 1.3.5 2.6-3.7 2-.6-.9-3.9-.4.3-2.9 2.1-4.2v-4c.1 0 1.4-4.1 1.4-4.1l1.3-3.1 1.8-1.4 2.8-9.3v-2.8l-1.1-1.6.9-2.3-.3-1.9.7-.2-.9-1.6.5-.9-1-3.7-1.1.2 1.5-5-.7-.8 1.3-1.3.3-2.2-1.2-1.4 6.6-4.6 2-2.3.7-4-.5-1.9-3.7-5.2-3.4-1-1-1.4-4.8-.7-8.1 1.2-1.4 2.4-.2 5.7-2 6.2.5 1-5.7 1-1.2.8-.9-.9-1.5 2.6-2.5 1.8-.4 1.8-.3-1.6-3.1-1.7-4.9-10.3-1 .2.2 3.5-1-2.1-.6-.4v1.1l-2.2-3.3-1.1.9-1.9-1.4-.7 2.5-2-1.2-3.1-5.5-1.3 1.8.5 1.3-.8.2-1.4-1.2-.5.5-1.8-1.9-.4 3.2-1-.4-1.1-1.8.4-1.9-2.2-3.7-3-9 1.1-5.3-.8-1.4.8-1.3-.9-1.5.5-2.4-.8.4-.2-.9-.6 1.8-1.1.4v-.7c.1 0-.8.2-.8.2l-2.1-2.8-.3.4 1.4-1.9 2 1.3 1.2-1.2 2-.4h1.3c0 .1 2.5 2.2 2.5 2.2l.9-1.2 1.7.7.7-1.1 2.4-.8.5-1.3 2.9 1 .7-.9 2.6.3 1.3.9v-2l-3.5-6-.2-.7 1.2-.7-1.8-3.8.5-.3 1.8 1.6-.2.7 4.4 2.5 1-2.4 2.3-1.2-.8-7 1.5-.9.9 1.7 2.8.6-.3-.7 4-.7 3-3.1Z"/><path id="EE-59" d="m332.5 99.9.9-.4 1 1.1-.9 1h1.2l.1 1.4 1.9-1.2.3-1.1 1.2.8 1.3-.9-.8 1.8 1.4 1.7 2.9 1-1.2.5.9 1.9h13.4l4.4 4.5 2.9-.2.8 1 4.9.9v.8c-.1 0 2.3 1 2.3 1l.8 1.6 2.3 1.7.4-.5-1-.7 3.5-.5.5.7 1.9-.7 1.4-2.5-1.6-1.8 1.4.4.7-.2.7-.5 1.5 1h1.9l1.4 1.5h1.8l1.9 1.2.5 1.5 1.8-.5.5 1.2-.5.7 1.3 1.5v1.5l2.1 4.2.6 8.5-1.8-.3-1-1.4-2.2 1 2 4.1-4.1 3.9 1 .7 1.1-.9.9 1.2 2.9-.4 3.3 1.8-.7 1.4-1.5-.4-.4 1.4-.7-.2-.9 3.5-1.8 1.9.5.7-.6 3.5h.8l.7 4 6.7-3.7.5 4.3-.6.7 6.4 3.4.9 2-.8 1.7 1.5.5.4 2.5h-.9l-.5 4.3h-1.6l-1.1-1.5-.3 1.1-2.9.3-2.2 2.7-.9-.4-.8 12.5 1.1 1.2-1.6 1.5.2 4.5-1.5 2.1-3.8.7-2 1.8-1.6-.7-9.8 5.2h-1.8l.1-1.6-1-.6-3.1.6.2.8-1.4.7.2 1.7-1.5.3.7 2.6-1.3 1v1.4c.1 0-2 .4-2 .4l-1 1.4-3.6-.6-2.3-3.8.7-.4-.5-1.9-3.4.6-.6 1.1-1.4-.4-.3 2.2-1.7.6-6.8.7-.5-1.3 1.3-3.3-.9-1.9.4-2.7-1-.4-1.1-3 .4-2-3.6-2.1-.4-2.1-2.1-.7-.9-3.9-1-1.1-.8-.5-2.7.6-2.5-2.5-1.1 1.7-1.2-1.5-.7 1.4-.7-1.5 1.7-2.1.8-5.3 1.1-1.2h1.3l.9-4.2 2.2-1.7-.7-3.6-1-.3-1.4 1.1-1.4-1.4h-1.6l.8-1.2-.7-1.1 1.2-.6.8-1.8-1.6-1.1-1.5.7.4-4.4-2.2-.2v-1.1l1.1-.4-.3-1.3 3.3-1-1.3-5-.2-6.2-.6-2.4-3.4-5.9 1-3.7-1.2-.9-.2-1.2h-2.6c0-.1-1.2-9.6-1.2-9.6l-1-2.6-1.3-.4-.3-2.4 2.8-1.2.7-1.3-.8-1.3 3.1-1.4-.2-8 .8 1.3h2.8c0-.1.8 2.3.8 2.3l-1 1.5.5 1.6 2.5.6 1.5-.7.7-2.2-.9-5.7Z"/><path id="EE-39" d="m104.6 230.4-.5 1.7-1-1.4.8-1.2.7 1Zm-5.1-5.9.4 1.4 1.3.5v2.2l-.5-1.7-1.8-1.6.6-.9Zm-9.3-1.6 1.4 1-1.5 1.1 1 3.5-1.3.5v-.7h-1l-.6.7.4.9-1.5-.5-1 1.9.5 1-1.5-.8-1.4-.3-.2-2.7.6-.4 1.3-1 .3-2.8 1.6.3h1.3l1.6-1.6Zm15.4-.3.7 1.3-.9 2.2-.7-.8 1.1-.9-.9-1.8zm4.6-1.3 1.3 1.4-1.5.7-.9-1.9.7-.6zm-9.9-14.5 3 2 .4 1.8-.9 1.5-1.6-1.9v-2.1zm-31.8-23.3 2.1 1 2.9-1 3.2 2.3-.9 4.1.6 3.7 1.3 1.9 2 .5 1.5-.7 6.2 2.2.7-1.4 1.8.9.8 2.4 1.1.8 1.1-1.1.2 1.1h1.1c0 .1 1.9-.9 1.9-.9l-.9 1.6 2 2.3-1.5.4.3 2 2.4 3.7 2.1.3 1.8 2.5.6 2-.5.7 1.9 2v1.2l1.7 3.2-3.4 2-.4-3.4-1.7 1.5-1.2-1.4-2-.7-1.1 1.2 1.1 1.8-.3.7-1.6-.7-1-2.2-.4 3.7-1-1.3-3.1-1.1v1.3l-2.5.8-.5-.6-2.1 1.2v.7l-.8-1h-1.2c0 .1.2 1.8.2 1.8l-1.2-1-.8 1.8.7.3.3 1.6-2.3-2.3-1.6 4.4 1.2.8-3.5 6.8-1.2 4.3-7.9 1.6-2.9-1.1-.6.4-3.5-2.2.4-1.1-.6-.6-.7-.8 2.7-.2.6-1.1-1.7-1.5-.2-1.4-1.7-.2 1.4-1.1v-2.3l-2.7-1.9 1.4-1.7-.4-1.3v-.6l-.7-.4.7-2.2-.3-2.2-1.5-1.9-.6-2.4-2.5-3.1-2.4-1.1-2.9.6-.5 1.3-1 .3-1.9-1.5-1.9 1.6h-6.8l-2.5-1.8-.3-1.9-5.8-2.2-.6.4-1.1-1.3.9-1.5-.6-.5 3.4-.9 1.5 1 2.2-.2 5.6 1.3 2.7-.3 2.8-1.8 1.6.6 1.3-.8 4.9 2.4 1.7-.3 2.1-3-.7-2.1h.8l1.3 1.6.9-.3-.2-1.2.5.9 1-.3-2.4-3.2v-1.5l2.4.2 1.3 2 1.2-.9-1.5-.9 1.1-1.5-1.1-.5v-1l-.4-.8-.2-1.3 1.2-.3 3.6 1.4.4-1.3-.8-.9 3 .3.8-.8.3-8.4.7.6Z"/><path id="EE-57" d="m135.1 222 2.6 1.4-.2 1.4h-1.1l-.3.7-1.3-1.2-.5-1.9zm-19.5-31.4 4.4.7-.3 1h.8l.7 1.5 1-1.5.7.9 1.2-2 .7 1.4 1.3-1.4 1.4 2.2h.9c0 .1.4 2.1.4 2.1l1.8 2.2-1 2.8-2-1.3-1.4.3-.5 1.6-1.2-.6-.5-.2-1.2.4.2 2 1.7.5h-2l-2.4-2.9-2.9-1.3.2 3.2-2.5-1.5.2 2.1h-2l-1.2-2.4 1.5-.2v-1l-1-.3-1.2-2.5-1-.3-1-3.2 1-2.3 1.3.4 1.5-1.9 2.5 1.4ZM152 159l1 1.9 1.7 1 2.7-1.3v4.7h4v4.9l3.9-.1.8 2.4 1.8-.2 3.5 4.8.4-.9h1.7l1-.8 6.8.6 6.6 3.2.2 1.2-1.4 1.2.7 1.4-.7.2 4.8 5.2-6.1 6.1.5 3.7-1.8 3.1 1.1 3.5 2 3.1 1.9.9-.6 4 1.8.3-.6 1.8 1.3.9-.4 1.3 1.6 1.1-.4 1.2 1-.5.8 1.4-.5 1.9-3.4-.5-.6.5.4 1.1-1.1 2.6 1.3 1.7h1.7l.1.9-2.3.5-2.8 3.2-1.7.3-.2 1.4 1.1 1 1.8-.6 1 1.4 2-2 .7 1 .6 1.5-2.8 5.6-3.1 3-4 .7.3.7-2.8-.6-.9-1.7-1.5.9.8 7-2.3 1.2-1 2.4-4.4-2.5.2-.7-1.8-1.6-.5.3 1.8 3.8-1.2.7.2.7 3.5 6v2l-1.3-.9-2.6-.3-.7.9-2.9-1-.5 1.3-2.4.8-.7 1.1-1.7-.7-.9 1.2-2.5-2.1h-1.3c0-.1-2 .2-2 .2l-1.2 1.2-2-1.3-1.4 1.9-1.1-.4.6-1-1-.6-1.1.7.5-2.1-1.2-.9 1.4-2.6h-1.6l-.5-1.9-.9.3 1.1 1.6-1 2 1 .6-.5 1.8-.7.4v-1.9l-1.4-.3-1.4.8-.8-1.6 1.6-.7.6-2.9h.9l-.2-.7h-1c0 .1.4-2.3.4-2.3l-2.2-6.1.5-2.7-.8-.4.4-1-.6-1h-.7c0-.1 2.2-.7 2.2-.7v-2.2c-.1 0 1.3 1.1 1.3 1.1l3-.7.7-.8-3.8-2 .5-1.4-.9-.8 1.5-.2 3.1 1.9h1.2c0-.1 3.3-1.3 3.3-1.3l1.4.6.5-.5-1-.2.3-1.5.8.5.5-.8 1.1.5.6-.6 2.9 1.7.6-.6 1.1.9-.3.9.7.6 1.7.8 1.4-1.5 1.1.5.4-3.1h-1.2c0-.1.3-1 .3-1l-2.2-.3-1-2.9.9-1.4-2 1-2-1.9-3.1 2.2-5.2-1.7-2.9.8-2.2 1.8-3.1-1.1-5.6 1.8 1.4-2.1-.6-1.9 1.6.3-.5-.4.5-1.2.6.4.7-.7-.8-.9v-2.2c.1 0 1 .9 1 .9h-.5l.3 1.1 1.7.9 1.8-1.7-.9-.6v-2.7c-.1 0-1.7-1.7-1.7-1.7l-2.3-3.9-2.5-2.2v-.6c.1 0 .8.6.8.6v-2.2l-1.1.5-1.1-.5.7-3.1-.5-2.8 1.2.6 1-.9 1.6 1.7 2.8-1.7 1.5.5-1-3.4 2.9 2.7 1.8-1.2 1.1.3 1.3-1.6-.5-1.4.3-.8.8.8.9-.6 2.3 2 .6-3.3-1.6-1.2.6-.6-2.3-1.2h-1.1l-.7.2H146v-.7l-.9.3-.2 3.8.6.5-.5 1.2-1.4-.6v.8l-3.5-2.3-2.7.7-3.8-3.8-1.4-3.6.6-.4 2.4 1.4.6-1.4-.6-1.1.8-.7-1.9-.3.5-5.3 3.4.6 2.3-3.4 2.6.6-1.3-4.3.5-1.8-.9-.8-.7-4.5-1.5-1.2-.5-2.4.4-3 1.6-.8v-2l2.2 1.8h3.1l6.5-4.9Zm-23.3-8.5 2.6.8 1.6 1.5.9 1.5h-1.3l-1-.9-1.8-.2-1.1-2.6Z"/><path id="EE-82" d="m340.6 327.8 1.5.8 1.6-.6.5 1.3.5-1 1.7-.5.4 1 9.5.7 1.1-3.4 3.5.7 3-5.9 1.9 1 .9-.5.8 3.8.9-.4.8.6 2.1-1.6 1.5-.2.8-1.4h5.1l.9.9v1.7l2.6.9v2l1.5-.2.2.8-1.2.4-1.1 4.7-1.9 3 .2 2.1 1-.4-.3 2.3.8.3v2.4c-.1 0-1.8 2.6-1.8 2.6l1.5 2.2-1.6 4.7-4.3.9-1.1-.7-1 .8v1.5l-2.5-.4-1.8 1-1.8-.8-.9 1.8 1.3 1.1.3 2.7-1.4 1.3-.5 2-1.7.6 2 1.4h1.8l1.3 2.1-1.8 1.7 1.3 3.7-1.1 1.8 1.7 1.7.2 1.6 2.9-1.4 1.6.8v1.7l-1.1.3.9 2.6-1.4 1.2-1.8.2-.3 1 1.6 2.3v1.5l1.5-.9v1.5h.9l.4 1.9-4.9 6.3 4.4 3.7-2.4 4.4-1-.4-.3.7 2.9.3-1.4 2.3-3.9.6-5.8-1.7-1.5.7-1.2-2-1.8.2-1-.9-2.2-3 .2-2.7-1.1-1.5.7-.4-.2-1.2-2-1-.2-2.1-2.4-1.1 1.5-3.8-.5-.9-3.9-1.7-.7-2.6-4.4-2.3-1.7.6-1.5-1.3-1.4.5.2-3 2.3-6.2.3-2.7h-2.6c0 .1-1.7-1.8-1.7-1.8l-3 2.1-2.4-1.1-3.5.7-.9-2.6-1.3 1.3-3.2-.9-3.2-7.1-3.2-1.6-2.5 2.8h-1.8l-.2-1.2-2.5-.6-1.3-2.4-3.7-1.7.8-2.1 2.9-5.9-1.8-4.3.6-.8h4.7l1.1 1.3 4.8-5.8-.8-1 2.6.2 1.3-1.3.6.4.4-1.3 1.2.2v-1l1.6-.6-.2-.9h1.3l-.4-2.8-.9 1.8-.4-.6v-1.4l2.5-1.3-1.2-2.7h1.8l2.4 1.6 1.4 2.6.3 2.8h3c0 .1 1.2-.6 1.2-.6v-.9l3.1-.8.6-1.2h3.6Z"/><path id="EE-49" d="m347.3 213.3 6.8-.7 1.7-.6.3-2.2 1.4.4.6-1.1 3.4-.6.5 1.9-.7.4 2.3 3.8 3.6.6 1-1.4 2.1-.4V212c-.1 0 1.2-1 1.2-1l-.7-2.6 1.5-.3-.2-1.7 1.4-.7-.2-.8 3.1-.6 1 .6v1.5h1.6l9.8-5.1 1.6.7.2 1.3 2.1 1.5-.7 1.8 1.1.9-.4 3.1 1.5 3.8 6-1.1.4-1.4 4.4.7 2 1.4.9 2.1 1.3.5h19.1l10.8 1.5 9.4 3.5-7 6.8 2.1 9.8-24.2 7.7.5 1.2-.8 1.8-1.3-.7-1.4 1.6-3.3.8v1l1.3-.3.5.9-.6 1.1 1.2 2.4v1.9c-.1 0-1.9-.4-1.9-.4V256l-1.6-1.6-.3 1.3-1-.7-.6.7-2.4-2.2-5.3-1.7-.9 8.5h-2c0 .1.3 1.4.3 1.4l-1.7.2-.9 1.2-1.8-.5-1.4 1-1.3-.8v1.4c-.1 0-2.2 1.1-2.2 1.1l-4-3.9.5 1.1-1.9 2.7v1.6l.6.8-3.2 1.8-3.6-3.1-1.3 1.2-2.1-1 1.7-1.8-3.5.4-1 .8.9.6-.6.8-2.3-1.3h-2.9c0 .1-1.2 1.1-1.2 1.1l-.9 2.5.4.9-1.4-.8-.3-2.2-2.9-1.1-.7 1.4-2 .6-6.8 5.1-1.4-.8-1.3 1-1.6-1.7-.8 2.5-.8.3v1.3l-4.2-4.5-.9.7-4.3-3.7-.4-5.2-1.9 1.4-1.5-1.4-.8.2v-1.5l-.9-.5.8-1.2-.7-1.8-5.5-2.3-4.3.9-5.7-.9-.6-1.2 1.5-1.3h1.3l.8-1.5-.4-3-1.8-.3 1.2-2.2-.3-3.5 1.2-3.7.9.2.2-.9 2.3-1.6-.6-3 2.6.2 1.4-1.6-.2-1.9 1.3-.2 1.9 1.3.7 2 3.1-2.2v-2.7c.1 0-1-3.6-1-3.6l1.4-1.3 2.6.4.8-2.5.9.5 1.6-.9 6.5-.8-.5-3-.8-.6 2-3.2 1.1.5v-1.3Z"/><path id="EE-70" d="m185.8 198.3 1-.3-.2-1.1 1.7-.8 2.2-3.6 1.3 1 2.3-2 2 2.6 3.6-1.1.8 1.9 1.3.6-.3-2.2 1.6-.6-.6-1.7 1.6-2.3.6.5 1.2-.8.3.6 1.4-.8-.7-2.4-1.3.2 1-.8-.2-2.2 1.8 1 .3-.7h5.1c0-.1 3.7-1.5 3.7-1.5l6 1v-4.5h-1.1l-1.3-1.9 2.9-1-1.5-2 .9-5.5 2.2.4 3.9-4.7 2.3.3 1-.6 1.9 1.4.8-1.7 1.5 2h1.5c0 .1 1.1 1.9 1.1 1.9h.9l.4-3.8h3.1l2.6-.9 2.2.5 1.3-.5-.6 5.8v1.1c.1 0 1.5-.3 1.5-.3v4.4l3 1.6 1.8-.4 1 1.2.9-.6 3.8 6 3.5 1.3 2.7-.5.6 1.2.9-.4 3.5 1.5-1.5 2.2 1.7 2.7-.9.5.7 2 2.6.5-.7.9 3.5.6-.5 1.1 2.3 1.3v1.5l3.1.4-3.6 2.6 1.9 3-.7 5.5-3.5 2.1-1.7 3.6 1.2 1.9h1l1.1 1.4-2 4 .6.9-1.8 1.3-1.2 2.5-1.6-.5-.5 1.1 2.8 5.1-1.3.7-1 5.7-3.8.9-7-1.5.4.6-1.5 2.2-1.4.4-.7-1-1.3 1-1.1-.2-3 4.1-.6 2.8-1.1.5-.7-.2-1.1-4 .8-6.6-4.3-3.5-2.2 1.4-1.2 1.9-1.3.3-.5-.7-2 .7-3.4-2.3-1.3.5-2-.9-2 3.9-4.8 2.7-2.2.3-.4-1.3 1.3-1.3-3.2-2.5-1.4 1.8-3.1 1.8-.7 3.7-1.1 1.4-3.4 1.3-2.4 2.5-11.7-4.2-3.7 1.3-4.3-3.7 2.8-5.6-.6-1.5-.7-1-2 2-1-1.4-1.8.6-1.1-1 .2-1.5 1.7-.3 2.8-3.2 2.3-.5v-.9h-1.8l-1.3-1.7 1.1-2.6-.4-1.1.6-.5 3.4.5.5-1.9-.8-1.4-1 .5.4-1.2-1.6-1.1.4-1.3-1.2-.9.6-1.8-1.8-.3.6-4-1.9-.9-2-3.1-1.1-3.5 1.8-3.1Z"/><path id="EE-74" d="m118.6 372.3 2.9 2.4v3.9c.1 0-1.7-.3-1.7-.3l-1.5-1.5-1.1.7-.2-3.2.9-.7-.5-.3.4-1.1.7-.5.2.6Zm-57.1-52.4.8 1 .9.5.2.8-.4 1.2 1.1 1-2.6 3.9-.9-3.1-1.2.5zm5.5-5 2.1 1.1-.7 1.4v-.7c-.1 0-1.2.3-1.2.3l.3-1.2h-1zM6.2 296.8l1.3.6-2 .4v-.9H4.3l.6-1 1.3 1Zm8.9-8.6.6 1.5-1.9.6-.6-.7-1.6 1.6-1.9-.4-.9.6-1.8-1.9 3.2-1.5 2.7 1.2-.5-1.6 1.2.9 1.3-1 .3.6Zm114.5-20.1 1.2 2.2-2.9.2.9-2.4zm-9.4-1.8h1.1l.4.9-1.1 1.9-.8-1.1zm14.2-1.5.6.7-1.8.8.3-1.3zm-.3-13.5.5-.2.4 1.2-.9 1-1.5-1 1.4-1Zm-69.9 1.2 1.6-1.2 1.2.6 4.5 8 3.6.5 1.3-3.4 2 1.3v1.9l2.5 1 1.8-6 1.7-1.8 3.8 1.5 2.5-1.5 1.8 1.5h4.4v1.1c.1 0 4.8 2.4 4.8 2.4l1.1 2.6.7-.6 1.6.9.6 1.4 1.4-.2v.8l3.7.7v.9l-.6.2v2l.8 2 1.5.9-.5.7 2.7-.7 3.2 2.5 3.3.9 1.3 2h1.1l-.1 1.4h.7c0 .1-.5 1.5-.5 1.5h1.6c0-.1.7.7.7.7l-.4 1.1h-1l-.1 3.1-1.1-1.7.2-1.5-1.6-.6.3-1.1v-2.1l-1-.5v3.5l-.8.5.3-1h-3.2l1.5 2.4 1.3-.3-.8 1.1h1.2c0 .1-1 1.5-1 1.5l-2-1-.7-.3-.2-1.8-.9 1 .3-1.6-.8-1-.2-1 1.8-.4.2-.7-2.2-.2H114l-.5 1.3h-.9l.6-.9-.6-1.1-1.2 2.7.9 2.5-1.5.2.7 1.4-.8.5-.4 1.3-1.3.9-.7-.7.3-1.2h-2.3c0-.1-.4 2-.4 2l.5 2.6h.6c0 .1.3 2.4.3 2.4l-1.7-.8-1.1.9-.6-1.3 2-.4-.6-.8-1.4.5-.9 1.7.7.5-.2 1-.8.5.7 1.2-1.6-.3h-1.1c0 .1-1.6-.8-1.6-.8l-1.5-3-1 .2-.7 2.7 1.6.6.3 1.7-1.7.2v2.3l-.6 1-.5-.3.3 1.5-1.3.4.4 2.1-2.7.5-.8-.4v-1.2l-.1-1-.5.6-1.1-.5-.3 1.5.8.7-2.6 1.2-.3 3.6-.8 1.2-1-1.5h-3.7l-1.9-1.5-2.3.8-.3 1.8 3 3.2.6 1.9v1.1c.1 0-1.2 1.1-1.2 1.1l-1.6.6-2.5-1.1-1.6-2.6-1.2 2.7-.7-3 .4-.8.8.5-.5-.9.8-.4-.7-.9-1 .5-.9-.3-.7.7.2 2.1-1.4 1.5h-.7l-.3-2-2.4 2.5-.6-.2-.3-5-1.2.4-1.6 5.7-.3-.9h-1l.4-1.7-.9-1.3-.8.4v-1.1h-.5l-1.1.7-.6 2.4-1.6 1.1h-2c0-.1-.4.5-.4.5l-1.2-1.1-2.1.2-3.8 1.9-2.8 2.5-1.1 2.1-.3 3.7 1 2.8-.9.9-.4 5.2-2.1 2.3.4 3-3.4 6.2 1.5 4.4-2 2-2 .2-1.8 1.7-2.7 3.6-1.4.5-2.3 3.7.5-2.1-1-.2-.9 1-.9-1-1.4-2.4.2-1.6-1.7-1.4-.5-3.6 1.4-.7.5 1 1.3-.8v-3.1c.1 0 1.9-.7 1.9-.7l-.4-2.5 1.5-.7-.4-1 1.1-1 .5-3.9 1.4-1.6 1.2-.3-.2-.9 2.2.9.3 2.1 2.4.3.2-4.5 2.2-4.8 2.2-1.6-1.1-2.9-4.3.5-.8-.9v-1.5l-1.9-.6-.6.8-.3-.8h-.8v-.8l-1.8-.7.3 1.5h-1.3l-.7-2.8-1.1-1.2v-1c.1 0 .6-.4.6-.4l-1.8-2.3-.4-1.9-2.1-1.6-.6.4.6 1.6h-3.1l-1.1-1.3-3.9-.8v-1.1l-1.2-.2-.8-.3-1.3-1.6v-1c.1 0-1.3-.2-1.3-.2l1-1.5-1.3-1.1.5-1.8.9-.3 3.8 2.4-.2-.9 1.3-.7-3-4.5v-.8h1.1l2.9 1.9.5 2.3 1.4.9.3-.6.5-.5.2-.8-2.1-4.4.4-.8 1.9 1.6.3-.7 1.7 2.1 1-1.2-.3-1-1.2-1.5v-1.4l1.1.2 2.5.7-1.2-1.7-1.2-.4.2-1.1-.8-.7.4-.5-.2-.7-.7-.4-.7.7-.4-1-1.1-.3V284l-1-.5.7-.9-3-3.6-.5-2.8-2-.7-1 1.1-1.9-1.7-.2-3.1 2.9 2.9h1.3c0 .1 2.4-1.6 2.4-1.6l-1.2-2.2.6-2 3.7 1.7 2.2-.5 1.3.5 3.1 5.8 2.2 7.1 2.3.4.9-1.1-.5-1.5.5-7 1.5-2.5.7-.4 1.1 1 .2-1.9 3-1.1v-4.8h1.4l1.4 1.6.8 7 3.3.4 2-5.2-.9-2.9h-1.2v-4.6l2.1.8 3.8-1.9 2.2.6 6.7-1.2 4.6-5.3.4-2.1Zm37.7-2.4h1c0 .1.9 3.1.9 3.1l-2.8-.8zm13.7-5.7 12.4 5.8.7 2.5-1.5 1.5v1.5c.1 0 3.7 5.2 3.7 5.2l1.2 3.5-.5 1.7-2.6 1.7v-.8c-.1 0-2.2-.3-2.2-.3l-1.1-2.9-1.5 3.4v-2.1l-.9 1.6-1.3-2h-1.3l-2.1 4.1-.2-.9-1 .2v-2.2l-.5.6.2-1-.7.3-.5-1.1-.5.7-1-1.1-.5-1.2.9.3-.2-1.1-.5.3-1.9-2.5-1.9.9-3.3-1.8-1.3-1.8.6-2.4-.8-.9h1l1.4-1.1 3 .9.8-1.1-.8-3.8.4-2.9 1-1.1.9.6 2.4-1.1Z"/><path id="EE-37" d="m171.8 143.8 1.5 1.5-1.6-.2 2.5 2.6.5 1.9-1.1 1.3-1.3-.5-4.5-6.5 3.2-.6.9.6Zm6.6-.1.9 5h-2.9l-.7-2.9-1.4-1.7-1.2-.2 2-2.4zm94.5-35.2 1.7-.4 1.2 2.7-1.2-1.2-1.1.2-.6-1.2Zm-34.7.8H237c0-.1-.6-1.2-.6-1.2v-.9c.1 0 1.9-.7 1.9-.7l.8 1zm-19.6-5.3 1.9 3.7 1.8 6.8-3-.2-2.1-1.6-1.3-2.9 2.7-5.7Zm36.1-6.4 3.6 2.1 1.7 2.9-.8 1.2-2.4-1.6-1.4 1.5-.5-1.4 1.5-.8.3-1-2.3-1.8.2-1Zm56.8-3.2h.9c0-.1-.4 1-.4 1l.9 1.5 1-1.2 2.1 1.9.9 1.1-.7.7.3 1.3 1.8 1.1-1.2 1.6.8 2.1-.4 3.6 4.2 1.3.8 1.3-.7 1.3-2.8 1.2.3 2.4 1.3.4 1 2.6 1.2 9.5h2.6c0 .1.2 1.4.2 1.4l1.2.9-1 3.7 3.4 5.9.6 2.4.2 6.2 1.3 5-3.3 1-2.3-2.6-8.1-1.3-2.5 2.1-3.5-.2-1.6 1.5h-2.2v2.3l-1.1.7-4.5-2.9-3.8 1.8-2.3-1h-2.6l2.7 3.4 1.9 5-2 5.1-4.4 5.7.8 1.6-1.2 2.9 3.4 2-2.2 4.8-1.9-3-1.2-.5-2.3 2.1 1.7 2.7-.7 5.7-2.1 2.3-1.3-1.1-.9.3-1 2.7-3.1-.4v-1.5l-2.3-1.3.5-1.1-3.5-.6.7-.9-2.6-.5-.7-2 .9-.5-1.7-2.7 1.5-2.2-3.5-1.5-.9.4-.6-1.2-2.7.5-3.5-1.3-3.8-6-.9.6-1-1.2-1.9.4-2.9-1.6v-4.4l-1.5.3v-1.1c-.1 0 .5-5.8.5-5.8l-1.3.5-2.2-.6-2.6.9h-3.1l-.4 3.9h-.9l-1.1-1.9h-1.5c0-.1-1.5-2.1-1.5-2.1l-.8 1.7-1.9-1.4-1 .6-2.3-.3-3.9 4.7-2.2-.4-.9 5.5 1.5 2-2.9 1 1.3 1.9h1.1v4.4l-6-1-3.8 1.4h-5.1c0 .1-.3.8-.3.8l-1.8-1 .2 2.2-1 .8h1.3c0-.1.7 2.2.7 2.2l-1.4.8-.3-.6-1.2.8-.6-.5-1.6 2.4.6 1.7-1.6.6.3 2.2-1.3-.6-.8-1.9-3.6 1.1-1.9-2.6-2.3 2-1.3-1-2.2 3.6-1.7.8.2 1.1-1 .3-.5-3.7 6.1-6.1-4.8-5.2.7-.2-.7-1.4 1.4-1.2-.2-1.2-6.6-3.2-6.8-.6-1 .8h-1.7l-.4.8-3.5-4.8-1.8.2-.8-2.4h-3.9v-4.8h-3.9v-4.7h-.1l1.1-2.3-1-1.2v-2.2l2.7.7 1.5-2.3 2.9-.7 4.3 2.1.4 1.2 2.1-1.8 3.4 1.5 1.7-1.3 5.1-1.8.7.9.5-.4.8.9h1.4l-.7 1.6.4.6 1.1-.4 2.6-5.5-1.7-3.4-4.4-3.6-.8-5.8 3.2.5 5.6 3 .9 1.6 3.3 2.2 3-.5.6-2-1.3-3.1-4.1-3.1h.6c0 .1.6-1.4.6-1.4h.9c0 .1-.2 1.1-.2 1.1l.7.6 1.7.3 8.4-4.6.8-2-.2-3.9 1.1-.8-.2-.8 8.1.7 2.4 3.2 3.8 1.8 2.6-1.8-.4-2 7.3 5.1 1.3-1.3.2-1.6-2.5-2.1-.5-1.4 1.8 1.2h1.8l.4-1.3-.9-1.9 1.4.7.3-1.4.5 1.7 1.2.7-2.2 2.7 1.2-.6.7 1.1.4-.5 1.6 1.2 3.2.6 3.6-6.3-2.4-3.1.5-1.3-.8-.9-.5.3-.2-8.5.4 1.2 1.9.4.7 1.2 1.5-.2.5 1 2-.3 1 1.5-.4 1.4 1.8 1.6v2.9l4.5 1.8 2.4-.9.2-1.7 3.8 1.1 2.7-1 .7 2 1 .8.8-.3.3 1.2 2 1 2.2-3.7-.4-1.3h-1c0 .1-1.6-2.3-1.6-2.3l.5-2.6 3.4 2.7 1 3.1 3.2-.7 2.2-3 .2 2.7 3.8 2.2 1.8.5 1.7-.5 2.9 1.2 3-.6 1.5-1.6-.3-2 5.6-.4 2.1-3.6-2.1-2.8-.3-2.5-2.5-4.2v-3.8l.7-1.6-.6-1.3 2.1.8-.5 3.2.8 1.2 1.8.8 1.5-.9.8 2.1 2.1.2 1.1 3.2 4.2 2.4 2.8-2.5-.5-.9.9-2.6-2.4-2.6v-2.6c-.1 0 .7-1.6.7-1.6l-1.7-1.5 2.2-1.4v-.5Z"/></g></svg>