<?xml version="1.0" encoding="UTF-8"?>
<svg id="Layer_1" xmlns="http://www.w3.org/2000/svg" xmlns:amcharts="http://amcharts.com/ammap" version="1.1" viewBox="0 0 512 512">
  <!-- Generator: Adobe Illustrator 29.1.0, SVG Export Plug-In . SVG Version: 2.1.0 Build 142)  -->
  <g id="_x3C_defs">
    <amcharts:ammap bottomLatitude="57.509646" leftLongitude="21.770501" projection="mercator" rightLongitude="28.208948" topLatitude="59.668926"/>
  </g>
  <g>
    <path id="EE-84" d="M317.8,243.3l.3,3.5-1.2,2.2,1.8.3.4,3-.8,1.4h-1.3s-1.5,1.3-1.5,1.3l.6,1.2,5.7.9,4.3-.9,5.5,2.3.7,1.8-.8,1.2,1,.5v1.5s.8-.2.8-.2l1.5,1.4,1.9-1.4.4,5.2,4.3,3.7.9-.7,4.2,4.5h0l1.1,1.7v2.3c0,0,2.2,5.7,2.2,5.7l-1.3-.2-1.1.9-1.1,2.7-7.5,8,1.8,30.7h-3.6s-.6,1.3-.6,1.3l-3,.8v.9s-1.2.7-1.2.7h-3c0-.1-.3-2.9-.3-2.9l-1.4-2.6-2.4-1.6h-1.8s1.2,2.7,1.2,2.7l-2.6,1.3v1.4c0,0,.5.6.5.6l.9-1.8.4,2.8h-1.3s.2.9.2.9l-1.6.6v1c0,0-1.1-.2-1.1-.2l-.4,1.3-.6-.4-1.3,1.3-2.6-.2.8,1-4.8,5.8-1.1-1.3h-4.7l-.6.8,1.8,4.3-2.9,5.9h0l-1.2-2.2-1.6,1.6-.5-1.6-2.4.9-.7-.4.6-1.7-2.8.7-3.2-2.8,1.7-1.4-1.1-1.4-3.3-2.2-3.5-.2-2.3-4.2-3.5-3.5-2.2,2.9,3.2,4.6-.3,5.5-1.3.6-2-.5-2.4-3.4,1.3-.4-.9-.8-.8.4-.5-2.7.7-1.7-.8.4-.9-2.3.6-2.1-.9-.9-1.2.4.3,1-6.5-.2-.3,1.7h-1.8s-2.8,3.8-2.8,3.8h0l-.9-1.1-.4-3.1-1.2-.6.8-2.7,3.2-1.8-.8-1.1.2-1.4h3.2s.8,1.1.8,1.1l.4-1h.8s.3,1,.3,1l.5-2.5-2.3-1.8v-1.3s1.1.2,1.1.2l.5-.8-.6-2.2.6-.6.6,1,.5,3,1-1-.6-2.6,1.4-.5.3-1.5h-1.1v-.8s1.5-.9,1.5-.9l2.2.4,1.8-1.7,1.5,2v-1.1s1.2-.7,1.2-.7v-2.9s-1.1-3.1-1.1-3.1l2.4-1.3-.7-3.6-6.8-1.1-1.9-4.3-1.3-.8-2.6,1.2-.5-1.9-.6.6-3.8-1.3-4.6,1-.7-3.1,1.2-8.1-.2-4.1,1,.5,1.4-1.9-.4-7.3,1.5-.9.3-2.2,2.9-.4.7-1.6,3.2-.6,2-2.3,1,.9,1.1-.9v-2.5s1.3-.9,1.3-.9l-.3-1.2,4.6-1-1.1-.9-.5-4.5-1.1.3.3-1.9,2.5-1.3h0l.7,1.2,3.4.4.9,1,2.8-.8.7,1.5h1.4c0,.1,1.9-.9,1.9-.9l4.6,1,1.1-.8-.4-.9h2s2-2.2,2-2.2l1.1,1.7,1-.7-.8-.8,1.4-1.1,2.7.6,1.7-1.9,2.7-.4,1.2-2.8,4.4-.3,4.1-1.7,1.1-1.2Z"/>
    <path id="EE-65" d="M383.8,328.2l2.6-.9-.2-1.4,1.4-1.4-1.2-.7.2-.8,1.2.2-1.5-2.1.4-2.1,2.9.7,3-1.9.9,1.8-.6,1.9,1-1,.9.6.3-.9,2.3-1.3h1.6c0,0,.9,1.1.9,1.1v-1.1c0,0,3-2.5,3-2.5l.5-3.8,2.1-3.2.7-.2.8,1.3v2.1c.1,0,1.3-1.7,1.3-1.7l1.4.4.6-.9,1.6.3.2,2.1,2.1-.6.7-1.1.6,1.2,1.3-1.3.4-3.8,2.2.8,1,1.9,3.6-.9.4-2.5h.9c0,0,1.5,2.1,1.5,2.1h5.6s.3.9.3.9l2.8.3-.6,3.2,6.1,1.3.5-.7,2.7,1.9,2-.4.9,2.3,7.9,1h0l5.6,10,2.7,3.2-2.1,6.8,1,6.7,2.8,1.8-.4-3.4,3.1,2,.4,2.2-1.4,2.5.5,1.9-2.1.9,2.1,3.1v1.3s2.6.6,2.6.6l-.2,1.5-1.4.6.8.8,2-.8,2.7,1.8,1.7-.8,1.8.3.5,1.2-.7.7.3,3.4-1.7,1.7.2,1.3-.5-.3-1,1.5-1.2-.3-1.5.9-2.6-2.4-1.8,1.6-4.7-.9-6,1.2h0l-3.5.3-4.7-1.3-3.7.2-1.5.4-2,2.6-.3-1.1-.9.3-.8-1.1h-1.3c0-.1-.3-1.9-.3-1.9h-2.5c0-.1,1.4-4.7,1.4-4.7l.9.3,2.4-2.5.2-1.2-2.3-1.1.3-1.6h-.9s-.3,2.7-.3,2.7l-2.5-1.5-1.8.4-2.2-1.4v-.6c.1,0-2.1.5-2.1.5l-.5-1.6-1.5.5-1.6-3.6-1.5.2-.5-1.5-2.2,2.2-1.1-.8-1.2,1.5,2.5,4.5-2.6-.5v-.6s-4,0-4,0l-.3-.7-.4.6-1.4-.8-.3-3-5.7,3.4v-1.3h-.8s-2.2.7-2.2.7l-1.2-.5-2.6,1.4-1.1-2h-1.7l-1.4,1.2-.4-1.3h-1.6c0,0-1.8-1.6-1.8-1.6l-2,1.4h-1.9c0,0-.4-.6-.4-.6l-2.3.8-1.8-1.5.2-.8h-1.8c0,.1,0-1.4,0-1.4l-.7-.2h0l1.6-4.7-1.5-2.2,1.7-2.6v-2.4c.1,0-.7-.3-.7-.3l.3-2.3-1,.4-.2-2.1,1.9-3,1.1-4.7,1.2-.4Z"/>
    <path id="EE-44" d="M394.8,120.3l10.3,8.1,4.1,1.7,8,.6,13.4-1.6,12.2-.5,12.3,3.1.6.8,4.1,1.2,11.3-.2,1.5,2.1,3.7,1,4.3-1.2,4.2.2,1.6-.8,4.5-3.9,3.8-6.1.5,1.1,3.6,1.8,2.2,2.2,1.2,2.9,4.7,3.6.8,2v3s-3.1,4.5-3.1,4.5l-3.1,6.7h-5.6s-5.5,2.5-5.5,2.5l-2.2.3-3.9,4.3-1.7,9.1-1.9,3.7-4.6,5.4.3,2.5-1.6,2.4.2,3.3-1.3,1.5-.5,4.2-1.6.7-.6,7.4-22.5,22.1h0l-9.4-3.5-10.8-1.5h-19.2c0,0-1.3-.6-1.3-.6l-.9-2.1-2-1.4-4.4-.7-.4,1.4-6,1.1-1.5-3.8.4-3.1-1.2-.9.7-1.8-2.1-1.5-.2-1.3h0l2-1.8,3.8-.7,1.5-2.1-.2-4.5,1.6-1.5-1.1-1.2.8-12.5.9.4,2.2-2.7,2.9-.3.3-1.1,1.1,1.6h1.6c0,0,.6-4.3.6-4.3h.9s-.4-2.5-.4-2.5l-1.5-.5.8-1.7-.9-2-6.4-3.4.6-.7-.5-4.3-6.7,3.7-.7-4.1h-.8s.6-3.5.6-3.5l-.5-.7,1.8-1.9.9-3.5.7.2.4-1.4,1.5.4.7-1.4-3.3-1.8-2.8.4-.9-1.2-1.1.9-1-.7,4.1-3.9-2-4.1,2.2-1,1,1.4,1.8.3-.6-8.5-2.1-4.2v-1.5h.3Z"/>
    <path id="EE-78" d="M444.8,243.6l11.8,48.3-5.1,9.3.2,11.5,2.9,5.6h0l-7.9-1-.9-2.3-2,.4-2.7-1.9-.5.7-6.1-1.3.6-3.2-2.8-.3-.3-.9h-5.6s-1.5-2.1-1.5-2.1h-.9c0,0-.4,2.4-.4,2.4l-3.6.9-1-1.9-2.2-.8-.4,3.8-1.3,1.3-.6-1.2-.7,1.1-2.1.6-.2-2.1-1.6-.3-.6.9-1.4-.4-1.1,1.7v-2.1c-.1,0-1-1.3-1-1.3l-.7.2-2.1,3.2-.5,3.8-3.1,2.5v1.1c0,0-.8-1.2-.8-1.2h-1.6c0,0-2.3,1.4-2.3,1.4l-.3.9-.9-.6-1,1,.6-1.9-.9-1.8-3,1.9-2.9-.7-.4,2.1,1.5,2.1-1.2-.2-.2.8,1.2.7-1.4,1.4.2,1.4-2.6.9h0l-.2-.8-1.5.2v-2s-2.6-.9-2.6-.9v-1.7s-.9-.8-.9-.8h-5.1c0,0-.8,1.3-.8,1.3l-1.5.2-2.1,1.6-.8-.6-.9.4-.8-3.8-.9.5-1.9-1-3,5.9-3.5-.7-1.1,3.4-9.5-.7-.4-1-1.7.5-.5,1-.5-1.3-1.6.6-1.5-.8h0l-1.8-30.7,7.5-8,1.1-2.7,1.1-.9,1.3.2-2.1-5.7v-2.3c0,0-1.2-1.7-1.2-1.7h0v-1.3c0,0,.7-.3.7-.3l.8-2.5,1.6,1.7,1.3-1,1.4.8,6.8-5.1,2-.6.7-1.4,2.9,1.1.3,2.2,1.4.8-.4-.9.9-2.5,1.2-1h2.9c0-.1,2.3,1.1,2.3,1.1l.6-.8-.9-.6,1-.8,3.5-.4-1.7,1.8,2.1,1,1.3-1.2,3.6,3.1,3.2-1.8-.7-.8v-1.6c0,0,2-2.7,2-2.7l-.5-1.1,4,3.9,2.1-1.1v-1.4c.1,0,1.4.8,1.4.8l1.4-1,1.8.5.9-1.2,1.7-.2-.3-1.3h2c0-.1.9-8.6.9-8.6l5.3,1.7,2.4,2.2.6-.7,1,.7.3-1.3,1.5,1.6v1.2c0,0,1.9.4,1.9.4v-1.9c.1,0-1.1-2.4-1.1-2.4l.6-1.1-.5-.9-1.2.3v-1c0,0,3.2-.8,3.2-.8l1.4-1.6,1.3.7.8-1.8-.5-1.2,24.2-7.7h0l1.2,5Z"/>
    <path id="EE-51" d="M282.8,197.5l1-2.7.9-.3,1.3,1.1,2.1-2.3.7-5.7-1.7-2.7,2.3-2.1,1.2.5,1.9,3,2.2-4.8-3.4-2,1.2-2.9-.8-1.6,4.4-5.7,2-5.1-1.9-5-2.7-3.3h2.6c0,0,2.3.9,2.3.9l3.8-1.8,4.5,2.9,1.1-.7v-2.3s2.2,0,2.2,0l1.6-1.5,3.5.2,2.5-2.1,8.1,1.3,2.3,2.6h0l.3,1.3-1.1.4v1.1s2.3.2,2.3.2l-.4,4.4,1.5-.7,1.6,1.1-.8,1.8-1.2.6.7,1.1-.8,1.2h1.6s1.4,1.4,1.4,1.4l1.4-1.1,1.1.3.7,3.6-2.2,1.7-.9,4.3h-1.3c0,0-1.1,1.1-1.1,1.1l-.8,5.3-1.7,2.1.7,1.5.7-1.4,1.2,1.5,1.1-1.7,2.5,2.5,2.7-.6.8.5,1,1.1.9,3.9,2.1.7.4,2.1,3.6,2.1-.4,2,1.1,3,1,.4-.4,2.7.9,1.9-1.3,3.3.5,1.3h0v1.3s-1.1-.5-1.1-.5l-2,3.2.8.6.5,3-6.5.8-1.6.9-.9-.5-.8,2.5-2.6-.4-1.4,1.3,1.1,3.6v2.7c-.1,0-3.2,2.2-3.2,2.2l-.7-2-1.9-1.3-1.3.2.2,1.9-1.4,1.6-2.6-.2.6,3-2.3,1.6-.2.9-.9-.2-1.2,3.7h0l-1.1,1.2-4.1,1.7-4.4.3-1.2,2.8-2.7.4-1.7,1.9-2.7-.6-1.4,1.1.8.8-1,.7-1.1-1.7-2,2.2h-2s.4.9.4.9l-1.1.8-4.6-1-1.9,1.1h-1.4c0-.1-.7-1.6-.7-1.6l-2.8.8-.9-1-3.4-.4-.7-1.2h0l.9-.7,3.7-11-3.8-2.1-4.4-.7h0l1-5.7,1.3-.7-2.8-5.1.5-1.1,1.6.5,1.2-2.5,1.8-1.3-.6-.9,2-4-1.1-1.4h-1s-1.2-1.9-1.2-1.9l1.7-3.6,3.5-2.1.7-5.5-1.9-3,3.6-2.6Z"/>
    <path id="EE-86" d="M379.4,352.6l.7.2v1.5c0,0,1.9-.1,1.9-.1l-.2.8,1.8,1.5,2.3-.8.4.7h1.9c0,0,2-1.5,2-1.5l1.8,1.5h1.6c0,0,.4,1.4.4,1.4l1.4-1.2h1.7l1.1,2,2.6-1.4,1.2.5,2.2-.7h.8v1.3l5.7-3.4.3,3,1.4.8.4-.6.3.7h4s0,.7,0,.7l2.6.5-2.5-4.5,1.2-1.5,1.1.8,2.2-2.2.5,1.5,1.5-.2,1.6,3.6,1.5-.5.5,1.6,2.2-.5v.6c-.1,0,2.1,1.4,2.1,1.4l1.8-.4,2.5,1.5.3-2.8h.9s-.3,1.6-.3,1.6l2.3,1.1-.2,1.2-2.4,2.5-.9-.3-1.4,4.6h2.5c0,.1.3,1.9.3,1.9h1.3c0,.1.8,1.3.8,1.3l.9-.3.3,1.1,2-2.6,1.5-.4,3.7-.2,4.7,1.3,3.5-.3h0l.8.3-.4,1.2h-.6s.7,1,.7,1l-1.5,1.2v2.1c0,0-3.1.7-3.1.7l1.4,1.9-.4,1.5,1.6,1.3-1.2.9h1.3c0,0,0,1.4,0,1.4l1.2,1-1.4.8-.3,2.8-1.1-.4-.9.8-.4-2.6-2.1,2.3-1.4-1.1-1.4,1.1v1.4c-.1,0-1.3,0-1.3,0l-3.1,4.9.9,1.6-.3,1.4,1.5,1.5-.8,2.4,1.2.8-2,2.1-2.1.3-2.3,2.7,2.1,8.6-5.5-2.9-1.4-1.6-1.8.2-1-.9-2.5.3-5.7-1.4-3-2.3-3.1-.7-.8-.6.6-1.7-1-1.1h-2.8c0,0-1.3-1.2-1.3-1.2l-.7,1.2-1.7.4-.5-1,.7-1.6-1.9-1.9h-1.4s-3.3,2.5-3.3,2.5l-.4,3.3-1.9,1.4h-2.5c0,.1-.6,1.4-.6,1.4h-.7s-.8,1.9-.8,1.9l-1.5-.2,1.1-1.9-2.8-1.7-.4,2.6-1.6.3-.9-.7v.7c0,0-1.9.1-1.9.1l-.3.7.7.5-2.1.3-2.9,3.8v2.8s-1.9-1.1-1.9-1.1l-.3-3.2-1.7,1.5-.4,2.4-4.6-1.8-2.4-7.4h0l1.4-2.3-2.9-.3.3-.7,1,.4,2.4-4.4-4.4-3.7,4.9-6.3-.4-1.9h-.9c0,0,0-1.5,0-1.5l-1.4.9v-1.5s-1.7-2.3-1.7-2.3l.3-1,1.8-.2,1.4-1.2-.9-2.6,1-.3v-1.7s-1.6-.8-1.6-.8l-2.9,1.4-.2-1.6-1.7-1.7,1.1-1.8-1.3-3.7,1.8-1.7-1.3-2h-1.8c0,0-2-1.4-2-1.4l1.7-.6.5-2,1.4-1.3-.3-2.7-1.3-1.1.9-1.8,1.8.8,1.8-1,2.4.4v-1.5c0,0,1.1-.8,1.1-.8l1.1.7,4.3-.9Z"/>
    <path id="EE-67" d="M178.6,323.3l1.6.5-1.1,5.3-1.3,2.3-1.6.5-1.4-3.1.7-4.8,3.1-.7ZM189.4,313l-1.2,2.5-1.8.5.3-1.4.8.2,2.2-3.2-.5,1.5ZM188.8,242l4.3,3.7,3.7-1.3,11.7,4.2,2.4-2.5,3.4-1.3,1.1-1.4.7-3.7,3.1-1.8,1.4-1.8,3.2,2.5-1.3,1.3.4,1.3,2.2-.3,4.8-2.6,2-3.9,2,.9,1.3-.5,3.4,2.3,2-.7.6.7,1.3-.3,1.2-1.9,2.2-1.4,4.3,3.5-.8,6.6,1.1,4,.7.2,1.1-.5.6-2.8,3-4.1,1.1.2,1.3-1,.7,1,1.4-.4,1.5-2.2-.4-.6,7,1.5,3.8-.9h0l4.4.7,3.8,2.1-3.8,10.9-.9.7h0l-2.5,1.3-.3,1.9,1.1-.3.5,4.5,1.1.9-4.6,1,.3,1.2-1.3.9v2.5s-1.1.9-1.1.9l-1-.9-2,2.3-3.2.6-.7,1.6-2.9.4-.3,2.2-1.5.9.4,7.3-1.4,1.9-1-.5.2,4.1-1.2,8.1.7,3.1,4.6-1,3.8,1.3.6-.6.5,1.9,2.6-1.2,1.3.8,1.9,4.3,6.8,1.1.7,3.6-2.4,1.3,1.1,3.1v2.9s-1.2.7-1.2.7v1.1s-1.5-2-1.5-2l-1.8,1.7-2.2-.4-1.5.9v.8s1.1,0,1.1,0l-.3,1.5-1.4.5.6,2.6-1,1-.5-3-.6-1-.6.6.6,2.2-.5.8-1.1-.2v1.3s2.3,1.8,2.3,1.8l-.5,2.5-.3-1h-.8s-.4,1-.4,1l-.8-1h-3.2s-.2,1.4-.2,1.4l.8,1.1-3.2,1.8-.8,2.7,1.2.6.4,3.1.9,1.1h0l-2.8,3.8-4.4.3-8.1,5.4-1.4.4-1.7-2.6-5.2,1.1v2.6c0,0-2.3.5-2.3.5l-1.7,2.1-1.4-1.7-1.9.2-2.1,2.6-3-2.9-3.3,2.4h-1.5c0-.1-1,2.2-1,2.2l-3.8.9-1.3,2.1,1.1.6-.6,1.3.5,2.6-3.7,2-.6-.9-3.9-.4.3-2.9,2.1-4.2v-4c.1,0,1.4-4.1,1.4-4.1l1.3-3.1,1.8-1.4,2.8-9.3v-2.8l-1.1-1.6.9-2.3-.3-1.9.7-.2-.9-1.6.5-.9-1-3.7-1.1.2,1.5-5-.7-.8,1.3-1.3.3-2.2-1.2-1.4,6.6-4.6,2-2.3.7-4-.5-1.9-3.7-5.2-3.4-1-1-1.4-4.8-.7-8.1,1.2-1.4,2.4-.2,5.7-2,6.2.5,1-5.7,1-1.2.8-.9-.9-1.5,2.6-2.5,1.8-.4,1.8-.3-1.6-3.1-1.7-4.9-10.3-1,.2.2,3.5-1-2.1-.6-.4v1.1c0,0-2.2-3.3-2.2-3.3l-1.1.9-1.9-1.4-.7,2.5-2-1.2-3.1-5.5-1.3,1.8.5,1.3-.8.2-1.4-1.2-.5.5-1.8-1.9-.4,3.2-1-.4-1.1-1.8.4-1.9-2.2-3.7-3-9,1.1-5.3-.8-1.4.8-1.3-.9-1.5.5-2.4-.8.4-.2-.9-.6,1.8-1.1.4v-.7c.1,0-.8.2-.8.2l-2.1-2.8-.3.4h0l1.4-1.9,2,1.3,1.2-1.2,2-.4h1.3c0,.1,2.5,2.2,2.5,2.2l.9-1.2,1.7.7.7-1.1,2.4-.8.5-1.3,2.9,1,.7-.9,2.6.3,1.3.9v-2s-3.5-6-3.5-6l-.2-.7,1.2-.7-1.8-3.8.5-.3,1.8,1.6-.2.7,4.4,2.5,1-2.4,2.3-1.2-.8-7,1.5-.9.9,1.7,2.8.6-.3-.7,4-.7,3-3.1Z"/>
    <path id="EE-59" d="M332.5,99.9l.9-.4,1,1.1-.9,1h1.2s.1,1.4.1,1.4l1.9-1.2.3-1.1,1.2.8,1.3-.9-.8,1.8,1.4,1.7,2.9,1-1.2.5.9,1.9h13.4c0,0,4.4,4.5,4.4,4.5l2.9-.2.8,1,4.9.9v.8c-.1,0,2.3,1,2.3,1l.8,1.6,2.3,1.7.4-.5-1-.7,3.5-.5.5.7,1.9-.7,1.4-2.5-1.6-1.8,1.4.4.7-.2.7-.5,1.5,1h1.9s1.4,1.5,1.4,1.5h1.8c0,0,1.9,1.2,1.9,1.2l.5,1.5,1.8-.5.5,1.2-.5.7,1.3,1.5h0v1.5s2.1,4.2,2.1,4.2l.6,8.5-1.8-.3-1-1.4-2.2,1,2,4.1-4.1,3.9,1,.7,1.1-.9.9,1.2,2.9-.4,3.3,1.8-.7,1.4-1.5-.4-.4,1.4-.7-.2-.9,3.5-1.8,1.9.5.7-.6,3.5h.8s.7,4,.7,4l6.7-3.7.5,4.3-.6.7,6.4,3.4.9,2-.8,1.7,1.5.5.4,2.5h-.9s-.5,4.3-.5,4.3h-1.6c0,0-1.1-1.5-1.1-1.5l-.3,1.1-2.9.3-2.2,2.7-.9-.4-.8,12.5,1.1,1.2-1.6,1.5.2,4.5-1.5,2.1-3.8.7-2,1.8h0l-1.6-.7-9.8,5.2h-1.8c0,0,.1-1.6.1-1.6l-1-.6-3.1.6.2.8-1.4.7.2,1.7-1.5.3.7,2.6-1.3,1v1.4c.1,0-2,.4-2,.4l-1,1.4-3.6-.6-2.3-3.8.7-.4-.5-1.9-3.4.6-.6,1.1-1.4-.4-.3,2.2-1.7.6-6.8.7h0l-.5-1.3,1.3-3.3-.9-1.9.4-2.7-1-.4-1.1-3,.4-2-3.6-2.1-.4-2.1-2.1-.7-.9-3.9-1-1.1-.8-.5-2.7.6-2.5-2.5-1.1,1.7-1.2-1.5-.7,1.4-.7-1.5,1.7-2.1.8-5.3,1.1-1.2h1.3c0,0,.9-4.2.9-4.2l2.2-1.7-.7-3.6-1-.3-1.4,1.1-1.4-1.4h-1.6s.8-1.2.8-1.2l-.7-1.1,1.2-.6.8-1.8-1.6-1.1-1.5.7.4-4.4-2.2-.2v-1.1s1.1-.4,1.1-.4l-.3-1.3h0l3.3-1-1.3-5-.2-6.2-.6-2.4-3.4-5.9,1-3.7-1.2-.9-.2-1.2h-2.6c0-.1-1.2-9.6-1.2-9.6l-1-2.6-1.3-.4-.3-2.4,2.8-1.2.7-1.3-.8-1.3h0l3.1-1.4-.2-8,.8,1.3h2.8c0-.1.8,2.3.8,2.3l-1,1.5.5,1.6,2.5.6,1.5-.7.7-2.2-.9-5.7Z"/>
    <path id="EE-39" d="M104.6,230.4l-.5,1.7-1-1.4.8-1.2.7,1ZM99.5,224.5l.4,1.4,1.3.5v2.2c0,0-.5-1.7-.5-1.7l-1.8-1.6.6-.9ZM90.2,222.9l1.4,1-1.5,1.1,1,3.5-1.3.5v-.7c.1,0-1,0-1,0l-.6.7.4.9-1.5-.5-1,1.9.5,1-1.5-.8-1.4-.3-.2-2.7.6-.4,1.3-1,.3-2.8,1.6.3h1.3c0,0,1.6-1.6,1.6-1.6ZM105.6,222.6l.7,1.3-.9,2.2-.7-.8,1.1-.9-.9-1.8h.7ZM110.2,221.3l1.3,1.4-1.5.7-.9-1.9.7-.6.4.4ZM100.3,206.8l3,2,.4,1.8-.9,1.5-1.6-1.9v-2.1s-.9-1.3-.9-1.3ZM68.5,183.5l2.1,1,2.9-1,3.2,2.3-.9,4.1.6,3.7,1.3,1.9,2,.5,1.5-.7,6.2,2.2.7-1.4,1.8.9.8,2.4,1.1.8,1.1-1.1.2,1.1h1.1c0,.1,1.9-.9,1.9-.9l-.9,1.6,2,2.3-1.5.4.3,2,2.4,3.7,2.1.3,1.8,2.5.6,2-.5.7,1.9,2v1.2c0,0,1.7,3.2,1.7,3.2l-3.4,2-.4-3.4-1.7,1.5-1.2-1.4-2-.7-1.1,1.2,1.1,1.8-.3.7-1.6-.7-1-2.2-.4,3.7-1-1.3-3.1-1.1v1.3c0,0-2.5.8-2.5.8l-.5-.6-2.1,1.2v.7c0,0-.8-1-.8-1h-1.2c0,.1.2,1.8.2,1.8l-1.2-1-.8,1.8.7.3.3,1.6-2.3-2.3-1.6,4.4,1.2.8-3.5,6.8-1.2,4.3-7.9,1.6-2.9-1.1-.6.4-3.5-2.2.4-1.1-.6-.6-.7-.8,2.7-.2.6-1.1-1.7-1.5-.2-1.4-1.7-.2,1.4-1.1v-2.3c0,0-2.7-1.9-2.7-1.9l1.4-1.7-.4-1.3v-.6l-.7-.4.7-2.2-.3-2.2-1.5-1.9-.6-2.4-2.5-3.1-2.4-1.1-2.9.6-.5,1.3-1,.3-1.9-1.5-1.9,1.6h-6.8c0,0-2.5-1.8-2.5-1.8l-.3-1.9-5.8-2.2-.6.4-1.1-1.3.9-1.5-.6-.5,3.4-.9,1.5,1,2.2-.2,5.6,1.3,2.7-.3,2.8-1.8,1.6.6,1.3-.8,4.9,2.4,1.7-.3,2.1-3-.7-2.1h.8s1.3,1.6,1.3,1.6l.9-.3-.2-1.2.5.9,1-.3-2.4-3.2v-1.5c0,0,2.4.2,2.4.2l1.3,2,1.2-.9-1.5-.9,1.1-1.5-1.1-.5v-1s-.4-.8-.4-.8l-.2-1.3,1.2-.3,3.6,1.4.4-1.3-.8-.9,3,.3.8-.8.3-8.4.7.6Z"/>
    <path id="EE-57" d="M135.1,222l2.6,1.4-.2,1.4h-1.1c0,0-.3.7-.3.7l-1.3-1.2-.5-1.9.8-.4ZM115.6,190.6l4.4.7-.3,1h.8s.7,1.5.7,1.5l1-1.5.7.9,1.2-2,.7,1.4,1.3-1.4,1.4,2.2h.9c0,.1.4,2.1.4,2.1l1.8,2.2-1,2.8-2-1.3-1.4.3-.5,1.6-1.2-.6-.5-.2-1.2.4.2,2,1.7.5h-2c0,0-2.4-2.9-2.4-2.9l-2.9-1.3.2,3.2-2.5-1.5.2,2.1h-1.2s-.8,0-.8,0l-1.2-2.4,1.5-.2v-1s-1-.3-1-.3l-1.2-2.5-1-.3-1-3.2,1-2.3,1.3.4,1.5-1.9,2.5,1.4ZM152,159l1,1.9,1.7,1,2.7-1.3h0v4.7h4v4.9c0,0,3.9-.1,3.9-.1l.8,2.4,1.8-.2,3.5,4.8.4-.9h1.7c0,0,1-.8,1-.8l6.8.6,6.6,3.2.2,1.2-1.4,1.2.7,1.4-.7.2,4.8,5.2-6.1,6.1.5,3.7h0l-1.8,3.1,1.1,3.5,2,3.1,1.9.9-.6,4,1.8.3-.6,1.8,1.3.9-.4,1.3,1.6,1.1-.4,1.2,1-.5.8,1.4-.5,1.9-3.4-.5-.6.5.4,1.1-1.1,2.6,1.3,1.7h1.7s.1.9.1.9l-2.3.5-2.8,3.2-1.7.3-.2,1.4,1.1,1,1.8-.6,1,1.4,2-2,.7,1,.6,1.5-2.8,5.6h0l-3.1,3-4,.7.3.7-2.8-.6-.9-1.7-1.5.9.8,7-2.3,1.2-1,2.4-4.4-2.5.2-.7-1.8-1.6-.5.3,1.8,3.8-1.2.7.2.7,3.5,6v2s-1.3-.9-1.3-.9l-2.6-.3-.7.9-2.9-1-.5,1.3-2.4.8-.7,1.1-1.7-.7-.9,1.2-2.5-2.1h-1.3c0-.1-2,.2-2,.2l-1.2,1.2-2-1.3-1.4,1.9h0l-1.1-.4.6-1-1-.6-1.1.7.5-2.1-1.2-.9,1.4-2.6h-1.6s-.5-1.9-.5-1.9l-.9.3,1.1,1.6-1,2,1,.6-.5,1.8-.7.4v-1.9s-1.4-.3-1.4-.3l-1.4.8-.8-1.6,1.6-.7.6-2.9h.9s-.2-.7-.2-.7h-1c0,.1.4-2.3.4-2.3l-2.2-6.1.5-2.7-.8-.4.4-1-.6-1h-.7c0-.1,2.2-.7,2.2-.7v-2.2c-.1,0,1.3,1.1,1.3,1.1l3-.7.7-.8-3.8-2,.5-1.4-.9-.8,1.5-.2,3.1,1.9h1.2c0-.1,3.3-1.3,3.3-1.3l1.4.6.5-.5-1-.2.3-1.5.8.5.5-.8,1.1.5.6-.6,2.9,1.7.6-.6,1.1.9-.3.9.7.6,1.7.8,1.4-1.5,1.1.5.4-3.1h-1.2c0-.1.3-1,.3-1l-2.2-.3-1-2.9.9-1.4-2,1-2-1.9-3.1,2.2-5.2-1.7-2.9.8-2.2,1.8-3.1-1.1-5.6,1.8,1.4-2.1-.6-1.9,1.6.3-.5-.4.5-1.2.6.4.7-.7-.8-.9v-2.2c.1,0,1,.9,1,.9h-.5s.3,1.1.3,1.1l1.7.9,1.8-1.7-.9-.6v-2.7c-.1,0-1.7-1.7-1.7-1.7l-2.3-3.9-2.5-2.2v-.6c.1,0,.8.6.8.6v-2.2c0,0-1.1.5-1.1.5l-1.1-.5.7-3.1-.5-2.8,1.2.6,1-.9,1.6,1.7,2.8-1.7,1.5.5-1-3.4,2.9,2.7,1.8-1.2,1.1.3,1.3-1.6-.5-1.4.3-.8.8.8.9-.6,2.3,2,.6-3.3-1.6-1.2.6-.6-2.3-1.2h-1.1s-.7.2-.7.2h-1.1c0,.1,0-.7,0-.7l-.9.3-.2,3.8.6.5-.5,1.2-1.4-.6v.8s-3.5-2.3-3.5-2.3l-2.7.7-3.8-3.8-1.4-3.6.6-.4,2.4,1.4.6-1.4-.6-1.1.8-.7-1.9-.3.5-5.3,3.4.6,2.3-3.4,2.6.6-1.3-4.3.5-1.8-.9-.8-.7-4.5-1.5-1.2-.5-2.4.4-3,1.6-.8v-2c0,0,2.2,1.8,2.2,1.8h3.1c0,0,6.5-4.9,6.5-4.9ZM128.7,150.5l2.6.8,1.6,1.5.9,1.5h-1.3s-1-.9-1-.9l-1.8-.2-1.1-2.6Z"/>
    <path id="EE-82" d="M340.6,327.8l1.5.8,1.6-.6.5,1.3.5-1,1.7-.5.4,1,9.5.7,1.1-3.4,3.5.7,3-5.9,1.9,1,.9-.5.8,3.8.9-.4.8.6,2.1-1.6,1.5-.2.8-1.4h5.1c0,0,.9.9.9.9v1.7s2.6.9,2.6.9v2s1.5-.2,1.5-.2l.2.8h0l-1.2.4-1.1,4.7-1.9,3,.2,2.1,1-.4-.3,2.3.8.3v2.4c-.1,0-1.8,2.6-1.8,2.6l1.5,2.2-1.6,4.7h0l-4.3.9-1.1-.7-1,.8v1.5c0,0-2.5-.4-2.5-.4l-1.8,1-1.8-.8-.9,1.8,1.3,1.1.3,2.7-1.4,1.3-.5,2-1.7.6,2,1.4h1.8c0,0,1.3,2.1,1.3,2.1l-1.8,1.7,1.3,3.7-1.1,1.8,1.7,1.7.2,1.6,2.9-1.4,1.6.8v1.7s-1.1.3-1.1.3l.9,2.6-1.4,1.2-1.8.2-.3,1,1.6,2.3v1.5s1.5-.9,1.5-.9v1.5s.9,0,.9,0l.4,1.9-4.9,6.3,4.4,3.7-2.4,4.4-1-.4-.3.7,2.9.3-1.4,2.3h0l-3.9.6-5.8-1.7-1.5.7-1.2-2-1.8.2-1-.9-2.2-3,.2-2.7-1.1-1.5.7-.4-.2-1.2-2-1-.2-2.1-2.4-1.1,1.5-3.8-.5-.9-3.9-1.7-.7-2.6-4.4-2.3-1.7.6-1.5-1.3-1.4.5.2-3,2.3-6.2.3-2.7h-2.6c0,.1-1.7-1.8-1.7-1.8l-3,2.1-2.4-1.1-3.5.7-.9-2.6-1.3,1.3-3.2-.9-3.2-7.1-3.2-1.6-2.5,2.8h-1.8c0,0-.2-1.2-.2-1.2l-2.5-.6-1.3-2.4-3.7-1.7.8-2.1h0l2.9-5.9-1.8-4.3.6-.8h4.7l1.1,1.3,4.8-5.8-.8-1,2.6.2,1.3-1.3.6.4.4-1.3,1.2.2v-1c0,0,1.6-.6,1.6-.6l-.2-.9h1.3s-.4-2.8-.4-2.8l-.9,1.8-.4-.6v-1.4c0,0,2.5-1.3,2.5-1.3l-1.2-2.7h1.8s2.4,1.6,2.4,1.6l1.4,2.6.3,2.8h3c0,.1,1.2-.6,1.2-.6v-.9s3.1-.8,3.1-.8l.6-1.2h3.6Z"/>
    <path id="EE-49" d="M347.3,213.3l6.8-.7,1.7-.6.3-2.2,1.4.4.6-1.1,3.4-.6.5,1.9-.7.4,2.3,3.8,3.6.6,1-1.4,2.1-.4v-1.4c-.1,0,1.2-1,1.2-1l-.7-2.6,1.5-.3-.2-1.7,1.4-.7-.2-.8,3.1-.6,1,.6v1.5c-.1,0,1.6,0,1.6,0l9.8-5.1,1.6.7h0l.2,1.3,2.1,1.5-.7,1.8,1.1.9-.4,3.1,1.5,3.8,6-1.1.4-1.4,4.4.7,2,1.4.9,2.1,1.3.5h19.1c0,0,10.8,1.5,10.8,1.5l9.4,3.5h0l-7,6.8,2.1,9.8h0l-24.2,7.7.5,1.2-.8,1.8-1.3-.7-1.4,1.6-3.3.8v1c0,0,1.3-.3,1.3-.3l.5.9-.6,1.1,1.2,2.4v1.9c-.1,0-1.9-.4-1.9-.4v-1.2c0,0-1.6-1.6-1.6-1.6l-.3,1.3-1-.7-.6.7-2.4-2.2-5.3-1.7-.9,8.5h-2c0,.1.3,1.4.3,1.4l-1.7.2-.9,1.2-1.8-.5-1.4,1-1.3-.8v1.4c-.1,0-2.2,1.1-2.2,1.1l-4-3.9.5,1.1-1.9,2.7v1.6c0,0,.6.8.6.8l-3.2,1.8-3.6-3.1-1.3,1.2-2.1-1,1.7-1.8-3.5.4-1,.8.9.6-.6.8-2.3-1.3h-2.9c0,.1-1.2,1.1-1.2,1.1l-.9,2.5.4.9-1.4-.8-.3-2.2-2.9-1.1-.7,1.4-2,.6-6.8,5.1-1.4-.8-1.3,1-1.6-1.7-.8,2.5-.8.3v1.3h0l-4.2-4.5-.9.7-4.3-3.7-.4-5.2-1.9,1.4-1.5-1.4-.8.2v-1.5s-.9-.5-.9-.5l.8-1.2-.7-1.8-5.5-2.3-4.3.9-5.7-.9-.6-1.2,1.5-1.3h1.3s.8-1.5.8-1.5l-.4-3-1.8-.3,1.2-2.2-.3-3.5h0l1.2-3.7.9.2.2-.9,2.3-1.6-.6-3,2.6.2,1.4-1.6-.2-1.9,1.3-.2,1.9,1.3.7,2,3.1-2.2v-2.7c.1,0-1-3.6-1-3.6l1.4-1.3,2.6.4.8-2.5.9.5,1.6-.9,6.5-.8-.5-3-.8-.6,2-3.2,1.1.5v-1.3Z"/>
    <path id="EE-70" d="M185.8,198.3l1-.3-.2-1.1,1.7-.8,2.2-3.6,1.3,1,2.3-2,2,2.6,3.6-1.1.8,1.9,1.3.6-.3-2.2,1.6-.6-.6-1.7,1.6-2.3.6.5,1.2-.8.3.6,1.4-.8-.7-2.4-1.3.2,1-.8-.2-2.2,1.8,1,.3-.7h5.1c0-.1,3.7-1.5,3.7-1.5l6,1v-4.5s-1.1,0-1.1,0l-1.3-1.9,2.9-1-1.5-2,.9-5.5,2.2.4,3.9-4.7,2.3.3,1-.6,1.9,1.4.8-1.7,1.5,2h1.5c0,.1,1.1,1.9,1.1,1.9h.9c0,0,.4-3.8.4-3.8h3.1c0,0,2.6-.9,2.6-.9l2.2.5,1.3-.5-.6,5.8v1.1c.1,0,1.5-.3,1.5-.3v4.4c0,0,3,1.6,3,1.6l1.8-.4,1,1.2.9-.6,3.8,6,3.5,1.3,2.7-.5.6,1.2.9-.4,3.5,1.5-1.5,2.2,1.7,2.7-.9.5.7,2,2.6.5-.7.9,3.5.6-.5,1.1,2.3,1.3v1.5s3.1.4,3.1.4h0l-3.6,2.6,1.9,3-.7,5.5-3.5,2.1-1.7,3.6,1.2,1.9h1s1.1,1.4,1.1,1.4l-2,4,.6.9-1.8,1.3-1.2,2.5-1.6-.5-.5,1.1,2.8,5.1-1.3.7-1,5.7h0l-3.8.9-7-1.5.4.6-1.5,2.2-1.4.4-.7-1-1.3,1-1.1-.2-3,4.1-.6,2.8-1.1.5-.7-.2-1.1-4,.8-6.6-4.3-3.5-2.2,1.4-1.2,1.9-1.3.3-.5-.7-2,.7-3.4-2.3-1.3.5-2-.9-2,3.9-4.8,2.7-2.2.3-.4-1.3,1.3-1.3-3.2-2.5-1.4,1.8-3.1,1.8-.7,3.7-1.1,1.4-3.4,1.3-2.4,2.5-11.7-4.2-3.7,1.3-4.3-3.7h0l2.8-5.6-.6-1.5-.7-1-2,2-1-1.4-1.8.6-1.1-1,.2-1.5,1.7-.3,2.8-3.2,2.3-.5v-.9c-.1,0-1.8,0-1.8,0l-1.3-1.7,1.1-2.6-.4-1.1.6-.5,3.4.5.5-1.9-.8-1.4-1,.5.4-1.2-1.6-1.1.4-1.3-1.2-.9.6-1.8-1.8-.3.6-4-1.9-.9-2-3.1-1.1-3.5,1.8-3.1Z"/>
    <path id="EE-74" d="M118.6,372.3l2.9,2.4v3.9c.1,0-1.7-.3-1.7-.3l-1.5-1.5-1.1.7-.2-3.2.9-.7-.5-.3.4-1.1.7-.5.2.6ZM61.5,319.9l.8,1,.9.5.2.8-.4,1.2,1.1,1-2.6,3.9-.9-3.1-1.2.5,2.1-5.8ZM67,314.9l2.1,1.1-.7,1.4v-.7c-.1,0-1.2.3-1.2.3l.3-1.2h-1s.5-.9.5-.9ZM6.2,296.8l1.3.6-2,.4v-.9c0,0-1.2,0-1.2,0l.6-1,1.3,1ZM15.1,288.2l.6,1.5-1.9.6-.6-.7-1.6,1.6-1.9-.4-.9.6-1.8-1.9,3.2-1.5,2.7,1.2-.5-1.6,1.2.9,1.3-1,.3.6ZM129.6,268.1l1.2,2.2-2.9.2.9-2.4h.8ZM120.2,266.3h1.1c0,0,.4.9.4.9l-1.1,1.9-.8-1.1.4-1.7ZM134.4,264.8l.6.7-1.8.8.3-1.3.9-.2ZM134.1,251.3l.5-.2.4,1.2-.9,1-1.5-1,1.4-1ZM64.2,252.5l1.6-1.2,1.2.6,4.5,8,3.6.5,1.3-3.4,2,1.3v1.9c0,0,2.5,1,2.5,1l1.8-6,1.7-1.8,3.8,1.5,2.5-1.5,1.8,1.5h4.4v1.1c.1,0,4.8,2.4,4.8,2.4l1.1,2.6.7-.6,1.6.9.6,1.4,1.4-.2v.8c0,0,3.7.7,3.7.7v.9c0,0-.6.2-.6.2v1s0,1,0,1l.8,2,1.5.9-.5.7,2.7-.7,3.2,2.5,3.3.9,1.3,2h1.1s-.1,1.4-.1,1.4h.7c0,.1-.5,1.5-.5,1.5h1.6c0-.1.7.7.7.7l-.4,1.1h-1c0,0-.1,3.1-.1,3.1l-1.1-1.7.2-1.5-1.6-.6.3-1.1v-2.1s-1-.5-1-.5v3.5c0,0-.8.5-.8.5l.3-1h-3.2s1.5,2.4,1.5,2.4l1.3-.3-.8,1.1h1.2c0,.1-1,1.5-1,1.5l-2-1-.7-.3-.2-1.8-.9,1,.3-1.6-.8-1-.2-1,1.8-.4.2-.7-2.2-.2h-1.1c0,0-.5,1.3-.5,1.3h-.9s.6-.9.6-.9l-.6-1.1-1.2,2.7.9,2.5-1.5.2.7,1.4-.8.5-.4,1.3-1.3.9-.7-.7.3-1.2h-2.3c0-.1-.4,2-.4,2l.5,2.6h.6c0,.1.3,2.4.3,2.4l-1.7-.8-1.1.9-.6-1.3,2-.4-.6-.8-1.4.5-.9,1.7.7.5-.2,1-.8.5.7,1.2-1.6-.3h-1.1c0,.1-1.6-.8-1.6-.8l-1.5-3-1,.2-.7,2.7,1.6.6.3,1.7-1.7.2v1.8c0,0,0,.5,0,.5l-.6,1-.5-.3.3,1.5-1.3.4.4,2.1-2.7.5-.8-.4v-1.2s-.1-1-.1-1l-.5.6-1.1-.5-.3,1.5.8.7-2.6,1.2-.3,3.6-.8,1.2-1-1.5h-3.7c0,0-1.9-1.5-1.9-1.5l-2.3.8-.3,1.8,3,3.2.6,1.9v1.1c.1,0-1.2,1.1-1.2,1.1l-1.6.6-2.5-1.1-1.6-2.6-1.2,2.7-.7-3,.4-.8.8.5-.5-.9.8-.4-.7-.9-1,.5-.9-.3-.7.7.2,2.1-1.4,1.5h-.7s-.3-2-.3-2l-2.4,2.5-.6-.2-.3-5-1.2.4-1.6,5.7-.3-.9h-1s.4-1.7.4-1.7l-.9-1.3-.8.4v-1.1c.1,0-.5,0-.5,0l-1.1.7-.6,2.4-1.6,1.1h-2c0-.1-.4.5-.4.5l-1.2-1.1-2.1.2-3.8,1.9-2.8,2.5-1.1,2.1-.3,3.7,1,2.8-.9.9-.4,5.2-2.1,2.3.4,3-3.4,6.2,1.5,4.4-2,2-2,.2-1.8,1.7-2.7,3.6-1.4.5-2.3,3.7.5-2.1-1-.2-.9,1-.9-1-1.4-2.4.2-1.6-1.7-1.4-.5-3.6,1.4-.7.5,1,1.3-.8v-3.1c.1,0,1.9-.7,1.9-.7l-.4-2.5,1.5-.7-.4-1,1.1-1,.5-3.9,1.4-1.6,1.2-.3-.2-.9,2.2.9.3,2.1,2.4.3.2-4.5,2.2-4.8,2.2-1.6-1.1-2.9-4.3.5-.8-.9v-1.5s-1.9-.6-1.9-.6l-.6.8-.3-.8h-.8c0,.1,0-.8,0-.8l-1.8-.7.3,1.5h-1.3s-.7-2.8-.7-2.8l-1.1-1.2v-1c.1,0,.6-.4.6-.4l-1.8-2.3-.4-1.9-2.1-1.6-.6.4.6,1.6h-3.1c0,0-1.1-1.3-1.1-1.3l-3.9-.8v-1.1l-1.2-.2-.8-.3-1.3-1.6v-1c.1,0-1.3-.2-1.3-.2l1-1.5-1.3-1.1.5-1.8.9-.3,3.8,2.4-.2-.9,1.3-.7-3-4.5v-.8s1.1,0,1.1,0l2.9,1.9.5,2.3,1.4.9.3-.6.5-.5.2-.8-2.1-4.4.4-.8,1.9,1.6.3-.7,1.7,2.1,1-1.2-.3-1-1.2-1.5v-1.4s1.1.2,1.1.2l2.5.7-1.2-1.7-1.2-.4.2-1.1-.8-.7.4-.5-.2-.7-.7-.4-.7.7-.4-1-1.1-.3v-1.9c0,0-1-.5-1-.5l.7-.9-3-3.6-.5-2.8-2-.7-1,1.1-1.9-1.7-.2-3.1,2.9,2.9h1.3c0,.1,2.4-1.6,2.4-1.6l-1.2-2.2.6-2,3.7,1.7,2.2-.5,1.3.5,3.1,5.8,2.2,7.1,2.3.4.9-1.1-.5-1.5.5-7,1.5-2.5.7-.4,1.1,1,.2-1.9,3-1.1v-4.8c.1,0,1.4,0,1.4,0l1.4,1.6.8,7,3.3.4,2-5.2-.9-2.9h-1.2s0-4.6,0-4.6l2.1.8,3.8-1.9,2.2.6,6.7-1.2,4.6-5.3.4-2.1ZM101.9,250.1h1c0,.1.9,3.1.9,3.1l-2.8-.8.9-2.3ZM115.6,244.4l12.4,5.8.7,2.5-1.5,1.5v1.5c.1,0,3.7,5.2,3.7,5.2l1.2,3.5-.5,1.7-2.6,1.7v-.8c-.1,0-2.2-.3-2.2-.3l-1.1-2.9-1.5,3.4v-2.1s-.9,1.6-.9,1.6l-1.3-2h-1.3s-2.1,4.1-2.1,4.1l-.2-.9-1,.2v-2.2s-.5.6-.5.6l.2-1-.7.3-.5-1.1-.5.7-1-1.1-.5-1.2.9.3-.2-1.1-.5.3-1.9-2.5-1.9.9-3.3-1.8-1.3-1.8.6-2.4-.8-.9h1c0,0,1.4-1.1,1.4-1.1l3,.9.8-1.1-.8-3.8.4-2.9,1-1.1.9.6,2.4-1.1Z"/>
    <path id="EE-37" d="M171.8,143.8l1.5,1.5-1.6-.2,2.5,2.6.5,1.9-1.1,1.3-1.3-.5-4.5-6.5,3.2-.6.9.6ZM178.4,143.7l.9,5h-2.9c0,0-.7-2.9-.7-2.9l-1.4-1.7-1.2-.2,2-2.4,3.3,2.2ZM272.9,108.5l1.7-.4,1.2,2.7-1.2-1.2-1.1.2-.6-1.2ZM238.2,109.3h-1.2c0-.1-.6-1.2-.6-1.2v-.9c.1,0,1.9-.7,1.9-.7l.8,1-.9,1.8ZM218.6,104l1.9,3.7,1.8,6.8-3-.2-2.1-1.6-1.3-2.9,2.7-5.7ZM254.7,97.6l3.6,2.1,1.7,2.9-.8,1.2-2.4-1.6-1.4,1.5-.5-1.4,1.5-.8.3-1-2.3-1.8.2-1ZM311.5,94.4h.9c0-.1-.4,1-.4,1l.9,1.5,1-1.2,2.1,1.9.9,1.1-.7.7.3,1.3,1.8,1.1-1.2,1.6.8,2.1-.4,3.6,4.2,1.3h0l.8,1.3-.7,1.3-2.8,1.2.3,2.4,1.3.4,1,2.6,1.2,9.5h2.6c0,.1.2,1.4.2,1.4l1.2.9-1,3.7,3.4,5.9.6,2.4.2,6.2,1.3,5-3.3,1h0l-2.3-2.6-8.1-1.3-2.5,2.1-3.5-.2-1.6,1.5h-2.2s0,2.3,0,2.3l-1.1.7-4.5-2.9-3.8,1.8-2.3-1h-2.6c0,0,2.7,3.4,2.7,3.4l1.9,5-2,5.1-4.4,5.7.8,1.6-1.2,2.9,3.4,2-2.2,4.8-1.9-3-1.2-.5-2.3,2.1,1.7,2.7-.7,5.7-2.1,2.3-1.3-1.1-.9.3-1,2.7h0l-3.1-.4v-1.5s-2.3-1.3-2.3-1.3l.5-1.1-3.5-.6.7-.9-2.6-.5-.7-2,.9-.5-1.7-2.7,1.5-2.2-3.5-1.5-.9.4-.6-1.2-2.7.5-3.5-1.3-3.8-6-.9.6-1-1.2-1.9.4-2.9-1.6v-4.4c0,0-1.5.3-1.5.3v-1.1c-.1,0,.5-5.8.5-5.8l-1.3.5-2.2-.6-2.6.9h-3.1c0,0-.4,3.9-.4,3.9h-.9c0,0-1.1-1.9-1.1-1.9h-1.5c0-.1-1.5-2.1-1.5-2.1l-.8,1.7-1.9-1.4-1,.6-2.3-.3-3.9,4.7-2.2-.4-.9,5.5,1.5,2-2.9,1,1.3,1.9h1.1c0,0,0,4.4,0,4.4l-6-1-3.8,1.4h-5.1c0,.1-.3.8-.3.8l-1.8-1,.2,2.2-1,.8h1.3c0-.1.7,2.2.7,2.2l-1.4.8-.3-.6-1.2.8-.6-.5-1.6,2.4.6,1.7-1.6.6.3,2.2-1.3-.6-.8-1.9-3.6,1.1-1.9-2.6-2.3,2-1.3-1-2.2,3.6-1.7.8.2,1.1-1,.3h0l-.5-3.7,6.1-6.1-4.8-5.2.7-.2-.7-1.4,1.4-1.2-.2-1.2-6.6-3.2-6.8-.6-1,.8h-1.7c0,0-.4.8-.4.8l-3.5-4.8-1.8.2-.8-2.4h-3.9c0,.1,0-4.8,0-4.8h-3.9v-4.7h-.1l1.1-2.3-1-1.2v-2.2s2.7.7,2.7.7l1.5-2.3,2.9-.7,4.3,2.1.4,1.2,2.1-1.8,3.4,1.5,1.7-1.3,5.1-1.8.7.9.5-.4.8.9h1.4c0,0-.7,1.6-.7,1.6l.4.6,1.1-.4,2.6-5.5-1.7-3.4-4.4-3.6-.8-5.8,3.2.5,5.6,3,.9,1.6,3.3,2.2,3-.5.6-2-1.3-3.1-4.1-3.1h.6c0,.1.6-1.4.6-1.4h.9c0,.1-.2,1.1-.2,1.1l.7.6,1.7.3,8.4-4.6.8-2-.2-3.9,1.1-.8-.2-.8,8.1.7,2.4,3.2,3.8,1.8,2.6-1.8-.4-2,7.3,5.1,1.3-1.3.2-1.6-2.5-2.1-.5-1.4,1.8,1.2h1.8c0,0,.4-1.3.4-1.3l-.9-1.9,1.4.7.3-1.4.5,1.7,1.2.7-2.2,2.7,1.2-.6.7,1.1.4-.5,1.6,1.2,3.2.6,3.6-6.3-2.4-3.1.5-1.3-.8-.9-.5.3-.2-8.5.4,1.2,1.9.4.7,1.2,1.5-.2.5,1,2-.3,1,1.5-.4,1.4,1.8,1.6v2.9s4.5,1.8,4.5,1.8l2.4-.9.2-1.7,3.8,1.1,2.7-1,.7,2,1,.8.8-.3.3,1.2,2,1,2.2-3.7-.4-1.3h-1c0,.1-1.6-2.3-1.6-2.3l.5-2.6,3.4,2.7,1,3.1,3.2-.7,2.2-3,.2,2.7,3.8,2.2,1.8.5,1.7-.5,2.9,1.2,3-.6,1.5-1.6-.3-2,5.6-.4,2.1-3.6-2.1-2.8-.3-2.5-2.5-4.2v-3.8s.7-1.6.7-1.6l-.6-1.3,2.1.8-.5,3.2.8,1.2,1.8.8,1.5-.9.8,2.1,2.1.2,1.1,3.2,4.2,2.4,2.8-2.5-.5-.9.9-2.6-2.4-2.6v-2.6c-.1,0,.7-1.6.7-1.6l-1.7-1.5,2.2-1.4v-.5Z"/>
  </g>
</svg>