<svg xmlns="http://www.w3.org/2000/svg" xmlns:amcharts="http://amcharts.com/ammap" id="Layer_1" viewBox="0 0 512 512"><g id="_x3C_defs"><amcharts:ammap bottomLatitude="59.809" leftLongitude="19.479" projection="mercator" rightLongitude="31.59" topLatitude="70.093"/></g><g><path id="FI-01" d="m163.5 499.2.4.4h-.4l-.4.5-.3-.3v-.5h.7Zm-1.9.4.4.6h.4v.3h.5v-.2h-.3l.1-.2h-.2c0-.1.1-.4.1-.4l-.2-.8-.8.2-.2.5Zm1.2-.9.4.5h.4l.5.3-.2.2.2.2h.3c0-.1-.2-.8-.2-.8h-.5l-.2-.4 1 .2v-.6c-.1 0-.4.2-.4.2l-.3-.3h-.3c0 .1-.2-.1-.2-.1h-.4l-.2.2v.4Zm-9.4-1.6v-.7c.1 0-.4-.4-.4-.4h-.8l.9 1.1zm-2.5-.9-.2.2-.5.6v.3c.1 0 .3.1.3.1l.2-.2.2.2.3-.6.2.2.2-.4h.2c0 .1-.3.3-.3.3v.4l.6.1v-.3l.5.1v-.5l-.5-.8h-.2v.1l-.5-.5-.5.2v.4Zm-6.9-.8v.2l.6.6.2-.4-.2-.4-1.1-.4v.3h.5Zm0-.3v-.7l-.6.5zm11.4-1.1-.5.4.2.4-.8.9.2.5v.2c.1 0 .9-.1.9-.1v-.4c-.1 0 .3-.4.3-.4v.6l.7-.3v-.5h.2l-.2-.3h-.4l-.1-.3.4-.3-.4-.2v.4l-.5-.3Zm-1 0-.6.2-.2.6.2.2-.3.6v.5h.4c0-.1.5-.5.5-.5l-.2-.2.8-.5-.2-.4h.2c0-.1.1-.3.1-.3h.2v-.3l-.6.2h-.2Zm-1.9.9-.6.5v.3h.8v-.2h.5l.7-1.7h-.2c0-.1-.9.4-.9.4zm-1.3-1.2h.1c0 .1.1-.2.1-.2l-.2-.5-.3.9zm2.2-.6h.3c0 .1.5 0 .5 0h.7l-.6-.4h-.6v.2zm3 0 .2-.2-.3-.2.3-.3h-.3c0-.1-.3.2-.3.2v.2l.4.2Zm-1.3-.4h.6v-.3h.2v-.3h-.7c0 .1 0 0 0 0h-.4c0-.1-.2.2-.2.2v-.3l-.6.2zm2.1-1.5.5.8.4.2v-.7c.1 0-.2-.9-.2-.9l-.5-.2-.3.4v.4Zm-8.4-.7.4.7h-.4v.7l-.3.3v.6c-.1 0 0 .2 0 .2h.4v.2l.5.2-.2.5h.3c0 .1.6-.4.6-.4l-.2-.4v-.8l.2.1.3-.3-.3-.2.2-1.2-.8-.7v.4c.1 0 0 .5 0 .5v-.6l-.4-.4v.5c-.1 0-.2.2-.2.2Zm7.8-.5v-.3l-.5.1-.3.4.9-.2Zm-5.9 0 .2.2.5-.3v-.6l-.4.3zm2.1-.4-.5.5h.8c0-.1.3-.7.3-.7l-.2-.3h-.2l-.1.5Zm-2.9-1.3v.3l-.5.3.2.4.4-.2.2-.8h.6v-1h-.4l-.2.7zm7.9-.3-.2.2v.4c.1 0 .5-.2.5-.2l-.2.3.2.2.3-.2h.3l.1-.2-.3-.9-.3-.3v.2l-.4-.4-.2.6v.3Zm-6.4-2.7v.8h-.4c0 .1.2.8.2.8v.2c-.1 0 .2.1.2.1l.3-.3h.4l-.3.3.3.2v1.1l.4-.2v-.5h-.1l.5-.2.3-1.2-.2-.2h-.3v-.4l-1.4-.9-.3.2.2.2h.3Zm8.4.1h-.1c0 .1-.5.4-.5.4v.4l.6.5v.5l.9.4v-.7l.1.1.4-.4v-.9l-.6-.5v-.3h-.5l-.2.6Zm-5.2-.2.2-.2-.3-.7-.2.3zm-2.8-1 .5.7-.2.4.4.2v-1.3l-.6-.1h-.2Zm1.1-.3-.2.5.5-.3.2.2v-.7l-.2.3h-.2Zm11-.7v.3l-.4.2.4.2v.2l.3.4.2-1.4-.2-.2v.4c-.1 0-.4-.1-.4-.1Zm-.8.8.3-.2v-.6l-.5-1-.2.4.5 1.3Zm-12-1.4.6.4.4-.2v-.5l-.5-.1v-.2h-.4v.6Zm-.5.3.2.2.2-.3v-1c.1 0 0 0 0 0l-.7.8.2.6.2-.2Zm15.2-.4.7.5v-.2c.1 0-.4-.4-.4-.4h.2l-.6-.8h-.1c0 .1.2.9.2.9m-6.7.5v.8c.1 0 .7-.6.7-.6h.3l.2-.3v-.4l.1-.2-.2-.5-.6-.2.2.3-.6 1.1Zm-12.3-1.6.2-.7-.5.4zm-.5-.3.3-.4v-.6h-.3l-.4.6.4.3Zm19-.8.2-.3v.5l.4-.1v-.7l-.4-.4-.2.4v.7Zm-24.3-.4-.3-.3-.4.9v.4l.4.5h-.5l-.3.5h.2c0-.1.2.1.2.1v.6l-.3.2.5.5.2-.7-.3-.2.2-.4-.3-.2h.3l.3.2.3 1.2h.7l.3-.6.5.5v.3l-.5.2.3.2-.4.4v-.9h-.5l-.3.3h.2v.4l.2-.3v1l.6-.6v.9l-.2.5h-.4v.6l-.8.5v-1.2l-.4.2v.9c.1 0-.1.4-.1.4l.5.3h-.3c0 .1.1 1 .1 1h-.3l-.2-2-.5-.7.7-1.9h.2l-.1-.4-1-.6h-.3c0 .1.2.6.2.6l-.2.2.2.6-.3.7v-.6h-.4l-.3.4-.4-.5h-.4v-.2l-.5.5.3.6h.1l.1.7-.2.5.7 1.2v.8c-.1 0 .5 2.1.5 2.1v.2l.3.6v.6l.4.6v.2l.2.2h.3v-.6l.2-.2.3.2v.7c.1 0 .5-.1.5-.1v.3c.1 0 .4-.4.4-.4l.3.3.3-.4.5.8.3-1.6.2 1.6.5.7v-1c.1 0-.2-1.1-.2-1.1h.5l.4 1.4-.2.2.2.2.2-.2h.5c0 .1.6 1.3.6 1.3v-.3c.1 0 .4.3.4.3v-.3l.3-.2.5 1v1.2l.5-.2v.4l.4-.2v-.3l.3-.5.2.9v.3c-.1 0 .1.1.1.1l-.3.2v.5c.1 0 .6-.5.6-.5l-.2-.2h.3v-.4l.5-.4-.6-.9.3-1.5h-.3l.4-.3v-.4l-.2-.3-.4.4-.4-.4h-.8l-1-.8-.2.9-.3-.3v.4l-.4.1-.4-.8h.5l.2-.7-.3-.4-.3.2v-1h.2v-1.1l.2-.5h-.2c0-.1-.5.1-.5.1v.9c-.1 0-.3-.5-.3-.5l.3-.6-.3-.5.3-.4v-.9h.4l.3.4-.3.5.3.5.3.2v-.2c.1 0 .5.6.5.6h.3l.5-.5v.4c.1 0 .9.5.9.5l.2-.2.2-.9h.9l.2-.4.4.3.3-.2.2-.5h-.5c0-.1-.3.1-.3.1l-.7-1.1v-.2c.1 0 .6.6.6.6l.3-.6v-.7c-.1 0 .4-.8.4-.8h-.4l-.2-.4-.8-.3h-.2l-.3.2v-.2l.6-1.1-.2-.3-.3.3v-.7l-.3-.1v.3l-.6-.4.3.8-.6-.5h.2v-.4l-.4.3v-.4h-.4l.2-.3h.2v-.2l-.8-.2h-.6c0 .1-.6-.2-.6-.2l-.3.3-.6-.2-.6.3-.4-.3.5-1h-.2c0-.1-.4.2-.4.2v-.8l-.2.2v-.5H141l-.4.6Zm25.3-2.9h-.3v.5l-.2-.3v.4c-.1 0 .2.2.2.2v.3l.4.2.2-.6v-.3c-.1 0 .1-.2.1-.2v-.4c-.1 0-.3.3-.3.3v-.3Zm-1-.5h.3l.3.4h.5l-.3-.6h-.2l-.5-.4h-.2c0 .1.1.5.1.5Zm-31.5 10.4h.3l.1.2.7-.2.2.2v-.6l-.2.1-.2-.4.3-.3h-.5l-.2.4h-.3l.2-.7h-.2v1.2Zm2.6-2.5-.8 1.7h-.5v1.9h-.3l-.2.5v1.2l.3.3.2.7h.3l.3.2.6-.3-.3-.7v-.5l.4-.3-.4-.2v-1.3l.3 1.2h.3c0-.1-.2.5-.2.5l.4.2v.4l.4.1.2-.2.2-1.1v-1.2l-.5-.1-.3-.5.3-.8-.2-.4h-.3l-.4-1.8v.5Zm4.9-.4h-.3l-.1-.4-.5.9.4 1zm-5.4-1.9v.6c-.1 0 .1.1.1.1v.4c.1 0 .4-1.2.4-1.2l.4-.6-.9.6Zm3.2-.1.2-.2h.2c0 .1.2-.4.2-.4l-.7.3v.3Zm-.6 0v-.3l-.3-.7v.6zm-.1-1 .3.5.4-.2v-.7h-.5v.3l-.2.2Zm1.5 0 .2-.9-.2-.3-.2.4-.2-.2.2-.9h-.4v.5l.6 1.3Zm15.1 12.1v.3l.7-.2-.2-.3-1.1-.2.5.4Zm-17.2-3.6v.5c.1 0 .4-.6.4-.6v-.3c-.1 0-.4.4-.4.4m21.3-1.8.2-.4-.3-.4v-.6h-.1v.7l.2.6Zm2.6-.7v-.6c.1 0 0-.6 0-.6l-.4.5zm-2.4-2.4.5.2v-.4h-.6v.3Zm6.5.2v-.2c.1 0-.2-.5-.2-.5h-.4zm-27.5-1.4v.4l.1-.2h.4l-.1-.5-.2.3h-.1Zm14.1-.6v.2h.2l.3-.4-.6-.3v.5Zm-14.3.5.2-.4v-.7l-.5.5zm1.1-1.2.6.3.2-.4h-.2l-.2-.2v.2l-.4.2Zm4.4-.7.3-.3-.4-.2-.2.3zm1.4-.3v-.2l.4.2v-.3l-.5-.2-.2.4h.2Zm-.8.1v-.4l-.2-.2v-.5c.1 0-.3.5-.3.5zm15.5-.7.5.6v-.6l-.3-.2.2-.2-.2-.3h-.3v.6Zm-3.3-.3.4.3.2-.3-.3-.6h-.3l.2.3-.3.3Zm7.9-.2v-.4h.3v-.5l-.7.3zm.4-1.3c0 .1.5.5.5.5l.2-.4h-.7Zm-19.6.4.2.2v-.2h.3l.2.5v-.9h-.4l-.2.3Zm18-1.3v.8l.4.1v-.8c.1 0-.1-.2-.1-.2v-.3l-.1.1-.3-.4v.2l.2.4Zm2.7-2.2h.7v-.4h-.3v-.3h-.6l-.3.2zm-.4-1.3v.4l.4-.7h-.8v.2h.3Z"/><path id="FI-02" d="M343.4 427.5h-.3l-.5.7-.2.8-1.1 1.4-.3 1.1-2.8 3.2-1 .4H336l.1 1.3-3.6 4.8-1.6 3v.2l-5 3.9-.8 1.1-1.5.4-1.3.9-.3 1.1-1.8 2-.6 2.7-.6 1.3-.8-.3h-.8c0 .1-1 0-1 0l-.9 1.3h-.4c0 .1-2.5 2.9-2.5 2.9h-.2c0-.1-.3.6-.3.6l-1.8 2.4-1 .2-.7 1.5-2.9 3h-.8v-.7l-1-.5-.8-1.6-.2-1.2-1.2-.2-.4.4h-.8l-.5-1.2v-.3l-.7-.3h-1.4c0-.1-1.3.2-1.3.2h-.9l-1.1-1-1.6-2.4-3.1-1-1.6-2-.3-.5.2-.2.4.6h.5c0 .1 1.4-.6 1.4-.6l-.5-.5-.3-1.3-.7.4-.6-.5.4-.7-.3-.8v-.9l.7-.7 1-.2-.6-.6-.3.2-.2-.3.8-1.5-.2-.9 1.3-.2.7-.4.3.3.8-.2.2-.2v-.7l.5-.3v-.4l-.6.1-.7-.6v-.6l.4-.3-.8-1.1-.3-1.1h-.2c0 .1-.9-.3-.9-.3l-.3-.4h.8v-.3l-1-.3-.8.3h-.5v.3l-1.2-.6-1-.8-.9.3h-.7c0-.1.1-.5.1-.5l.8-.4.4-.8 1.1.2.4.5h.9l.6-1.3h2c0-.1.4.1.4.1l.4-.2 1.2.2 1.3.7h.7l1.1.6h.6c0 .1.4.5.4.5h2l1.6-.6 2.1.8h1.5l2.6-.2 3.9-1h.3v-.2l.5-.3.5-1.1h.7v-.6l1.7-1.1v-1.2c-.1 0 .3-1.1.3-1.1l.4.5.6-.6.7.6v.8h1.1l.3.4 1.1-.2v.3l1.4-.7 1.5.2v-.7l.4-.3V433c.1 0 1.5.4 1.5.4l1.4-.5 1.8.3 3.4-1.1h.9l.6-1.4 2.3-2.5 2.8-1.4.4-1.6 10.8-5.7.7-.3.2.5-1.4 1.4-.7 2.3-3.4 3.5-.2.5Z"/><path id="FI-03" d="m177.6 412.5-.4-.9.4-.8-.5-1.7.3-.6V407l.5.3.3-.3v.4l.3-.2.2-1-.8-.9.9-1.1 1.2-.2-.8-1.5-.7-.5v.3h-.4l.2-2.6-.3-.4.3-.4v-.6l-.7-.6h-.4v.4-.2l-1.3.2-.3-.7-.4-.3.5-.7v-1.9l-.8-.5.2-.2.5.4 1.3-4.1v-.7h-.3v-2c-.1 0 .6-.3.6-.3l.5-.5v-.6c.1 0 .8-.3.8-.3l.2-.6.6-.4.4-1.2v.3c.1 0 0 .4 0 .4h.2l.8-.7-.9-1.2-.4-1.5V378l.7-1.1.2-.7 1.2.8.2 1.2h.3v.3l.4.3 3.7 1.8v-.2c.1 0 1.2.3 1.2.3v-.3l1.6.7 1.5-1.8.6-.2 1.4-2.7.7-.4-.4-2h.4v-.5l.4-.9-.2-.4.9-1.2.3-1.5.9-1.3h-.2l.1-.3h.2c0 .1.3-.2.3-.2v.3c.1 0 .2-.1.2-.1l-.5-.7 1.3-.9.4.6.2-.5-.7-.2.9-.4v-.3l.2-.2v-.8l-.4-.2h.5l.4.2v-3l-1.2.5-.2-.4-.7.3.4-.9.7-.4-.4-.8h-.2l.3-.4-1.1-.7v-.6c.1 0 .8-.8.8-.8l.2.2 1.3-.8-.5-.9 1.4-.9.2.2.6-.4-.2-.6-.4.2v-.3h.8l.3.4.5-.3.6.3v.2h.8l-.3-.3v-.2l.3.1v-.5c-.1 0 .5.2.5.2l-.3.2 2 .9-.2-1.7h.6v-.3h.5l.2.7 1-.2.6.8 1.9-2.3.6-2.2.5-1 2.6-1.3.5.7 1 .2 1 .7.2-.3h.2l.5 1v.3c-.1 0 .7.9.7.9v.2l.6.9 1.4.9 1.4 3 1.8 1.6h2l1.3.4 1.6 1 1.4 1.4 1.4 1.9-.5.4v-.4l-.5.3v.2h-.3l-.2.6.8-.3 1.2 1.4v-.4l.9-.3.9 1-.7 2.3h-.8v1.5l-.5.3v-.3l-.7.2v.3c.1 0 .6-.1.6-.1v.2l1-.7.2.8h-.2l.1.8h-.2c0 .1.4 1.1.4 1.1l.5-.3.3.8v2h1l.8.4.3.5v1.2l-1.7.4-.2-.6-.4 1.2.5-.2.7 1.1-.3.4h.3l.7.8 1.1 2.7.7 2.3 1.2.9-1.4 1.4-.2.6.8.2.7-.2v.4c.1 0-.5.2-.5.2l.2 1.2-.6.2.2.7-.4.2.2 1-.3-.2.2.6h-.2c0 .1-.2 0-.2 0v.5c-.1 0 .1.6.1.6l-.3.3-.6-.2-.4-.4.2.6h.3c0-.1.2 0 .2 0h-.6c0 .1-.1.5-.1.5l-.5.5-.4-1h-.2l.1-.3-.4.3-.2-.3-.9.3v.4c.1 0-.1.2-.1.2l.4.8-.5.7-2.4-1.5-2.1 2.9v.3l-1.7 2-.4-.6-1.4-.6-.4-1.9.2-1-.3-1.2h-.6v1h-.5l-.1-1.5-.6.7.2.5v.5l-.5-.5-2.5 2.4-3.2-.2.3 2-.9-.6-.6.3h-.5c0-.1-.7-.6-.7-.6l-.3-.5-.2.2h-.2c0-.1.2-.3.2-.3l-.3-.3-.2.2-.2-.2v-.6l-1.2.7-.5 1.4.3.3v.5h-.5v.3c-.1 0-.4-.1-.4-.1v.4c.1 0-.2.5-.2.5l-6.3 2.7h-1.4l-1.7-.1-3.2-1.6-1.4 4.3h-.4c0-.1-1.2.5-1.2.5l-2.4 4h-2.6c0 .1-1.8 3.1-1.8 3.1l-2.7 2.2-5.4-1.8h-1.2Z"/><path id="FI-04" d="M279.6 394.1v.8c.1 0-.4 1-.4 1l1.9 2.1-2.1.6v.7l.4.8-1.5.6.4.5v.7c-.1 0 .2 1.1.2 1.1l.4.4v.7c-.1 0-.6.2-.6.2l-.3-.2-.2-.7-.2.2h-.1c0-.1-.9-1.6-.9-1.6l-.4.4h-.2v.3h-.7c0 .1.3.9.3.9l-.5.5h-.2c0-.1-.2.3-.2.3h-.2v-.5l-.2-.2-.3.3v.4h-1l-.7.6-.3-.3-1.9 3.5 3.9 6.3-1.5.8-.2.8.2 1.4-.3.9.5-.2h.5l-.1.6.3.7-.2.3v1.4l-.2.3 1.2.5 1.7 2.9.4 1.5-.2 1.2h-.2v.9h.2l-.2.7-2.8-1.4v.8c-.1 0-.5.2-.5.2v.6l-.7.5v1.5l-.2-.2h-.9l.5.5v1h.2l-.1.8h-.5c0 .1.2.8.2.8h.7l.2-.7v.6h.4l.2.3h-1.7l.6 1.5-1 .8.4.9 1.1 1.2-.7 1.1v.2l.7-.1v.5l1.7 1.5h.2c0-.1 1.2 0 1.2 0h.3l.3.7.3 1.5.6-.2.4.3 1.4-.8.8 2-.8.9.6.6 1.7-1 .6-1.6 2.2-.7.2 1.8.6.7.2.7-.3 1.1 2.5 1.3 1.3-.2.5-.4.4.2h1.2l1.3-.2.7-.4.3.3.8-.2.2-.2v-.7l.5-.3v-.4l-.6.1-.7-.6v-.6l.4-.3-.8-1.1-.3-1.1h-.2c0 .1-.9-.3-.9-.3l-.3-.4h.8v-.3l-1-.3-.8.3h-.5v.3l-1.2-.6-1-.8-.9.3h-.7c0-.1.1-.5.1-.5l.8-.4.4-.8 1.1.2.4.5h.9l.6-1.3h2c0-.1.4.1.4.1l.4-.2 1.2.2 1.3.7h.7l1.1.6h.6c0 .1.4.5.4.5h2l1.6-.6 2.1.8h1.5l2.6-.2 3.9-1h.3v-.2l.5-.3.5-1.1h.7v-.6l1.7-1.1v-1.2c-.1 0 .3-1.1.3-1.1l.4.5.6-.6.7.6v.8h1.1l.3.4 1.1-.2v.3l1.4-.7 1.5.2v-.7l.4-.3v-1.4c.1 0 1.5.4 1.5.4l1.4-.5 1.8.3 3.4-1.1h.9l.6-1.4 2.3-2.5 2.8-1.4.4-1.6.2-.6 1.4-1.1.8-1.3.3-1.3v-.6l-.5-.7.6-.4-1.6-2.1v-1l.9-1.7-1.9-2v-.3l-1.2-.4-1-1.8-1-5.1.4-1.6-.8-.7-1.6-3.4-.3-2.5-.5-.9-.8-.4-.6.7-.5-.3-.3.4v.5c.1 0-1-.3-1-.3l-.3-.4.2-.5-.5-.5.6-2.9h-.7l-.9-.8-.7-.2.7-.3v-.5c-.1 0-.6-.2-.6-.2l-1.3-1.3v-.5l-1.6-1-1.5-1.8-2.3-.4-.4-.4-.4 1.6-.7.5.5.2-.4.8-.5.3-.4-.7-.5.5h-1.3l1.4.7-.5.9-.9-.8h-.2c0 .1-.4-.2-.4-.2l-.9-.2.2.3-.3.5.2.9-.4 1.1h-.2l-.2.3.5.8-.2 1h-.5l-.7-.5h-.4l-.3-.1-.3.5.4.4v.5l-.9.4v.4c-.1 0 .6.5.6.5v.9l1 .7-.2.4v.4l1.2.2.3 1v1.2l.3.2 1.8-1.1 3.1 3.8v1l-1 1.3h-1.2l-2.7-1.2-1.1-.2-1.3-.8-1.7.4h-2.3l-2.3-1.6v.3l-1.5-1.5v.5l-.7-.3-.3.4h-.2l-.9-1.5-1-.5v-.7l.6-.8-.2-.3-1.4-.3-.2-.6-.6-.5-.5-.9-1.2-1.3-2.1-1v-.5c-.1 0-1-.5-1-.5l-.2-.4h-.4l-.5-1.1-.3.3.5.3v.4h-.4l.2.5h-.4l-.7.5-.4 1h-.4l-.3-.8h-.5l-.2.7h-.2v-.1l.3-.3v-.2c-.1 0-.5.3-.5.3v.6l-.4-.1v-.3c.1 0 0-.8 0-.8l-1-1.1v.3l-.2.1v.4l-.5-.1-.4.7h-1.3l-.6-.7-.4.5.5.8-.3.7-.4-.6-1-.8v-.4c-.1 0-1.1.8-1.1.8l-.3.5.3.6-1.4.8-1.1-1.3-.2.3Z"/><path id="FI-05" d="m283 322.9-1.8-1-.2-9.5-1.1-.2-.5-.4v-1.6l-.2-.2-2.6-.2-1.8-1.6v-.5l.3-.5-.3-.4h.2l-.2-.3h.3v-.5h-.4c0 .1-.7-1.4-.7-1.4l-2.7-2.3.7-.9-.2-.3h.5c0-.1-.1-.5-.1-.5l.4.2 2.1-2.4 1.7.3-.3-.8.5-.2.4.5v-.9l.5-1.1 1.1-.7v-.6l-.4-.3.4-.3.2.3h.5c0-.1-.4.3-.4.3l.5.6.2-.2-.3-.2.5-.3v-.2l.4-.2.2.3 2-.8.4-1.3.5.2v-.6h.3l-.2-.3v-.7h.2v-.4l-.2-.3.3-1.1 4.8-3.6.8.2.4.3h.2c0-.1 2.8.6 2.8.6l.4-.9-.3-.6.6-.2.2-.4-.7-1.7.7-1.7v-.4l-.5-.3.3-.2-.2-.6-1-1.4h-.3l-1.2-2 1.3-3 2.5.2 2.4-.3.7-.6 1.3-.7 2.2.7.3-.5v.6l2.1.7.8-3.8h.2l-.1-.3.5.3-.4-.3.4-.3v-.2l-.4.3.2-1.2 1.7-1.6 4.7-1 .3.3.2-.4 3.7-.7.3-.5h.2l-.3.4.5.4-.3-.4 2-.4.4-1.1v-.2c-.1 0 .4-2 .4-2l.5-.9-.2-.8 3.2-1.4h-.5c0-.1.3-.2.3-.2v-.3h.2l.1.4 3-1.3 1.7.5 2.1-.6h-.5l.6-.6h.6c0 .1-.5-.1-.5-.1l.6-.6.2.2v-.4l.6-.5v-1.2l2-.1 3.7 1.6.5-.2v-.3l.5-.3 3.2.6.9-.2v.7c-.1 0-.4.5-.4.5v4.8l.3 1.2-2 2.8-.8.7-.2.7.7 1.4 2.2.3h.5c0-.1 1.7.4 1.7.4l.8.5.2.6-1.5 2.4.6.7.3-.2-.2.3.8 1h-.5l-.9.6h-2l-2.2 1.5-.2 2.3-.3.9.4 1.7-.2 1.6.6 2.4v.5c.1 0 1.2 1.3 1.2 1.3l-.2.9 1 1.4 6.1-.2.9.9v.4l-.9 1.2.3 1.4 1.6 3v.6l-.4.5-1.3.5-1.3 1.3.2.5-.2 2 .5 1.4.3.2v.8l.4.5.2 1-.2 2.3 1.3 1.7.6.3 1.5.3 3.1 2.3v.9c-.1 0 .4.5.4.5l1.9.3.5 1.9-.9.8 1 2.2.8 1.1v1.4l-.5 2.4-1.6 3-2.6 3.4-1.2 4-2.3 1-3.5 2-2 .4-2 2.1-1.1-2-.8-6-8.1 1.3-8 .7-7.5-2.1-1.2.5.3.6-2.3 4.6-1.7 3.9-1.3-1.7-1.3-.8-1.7-2.6-2.9-3.1h-.4l-3-2.6-1.6-.7-.3.2-2.2-1.7-1.2-.2.3.5-1 .2-.7-.5.2-.3h-.1c0-.1-3.2-1.2-3.2-1.2l-2.5-.3-.3.3-2.1-.3-3-1.7Z"/><path id="FI-06" d="m243.5 442.1.3 1.7.5-.3.4.6.9-.6.3 1.8 1.6-.3 1.9.6v.7l.7 1 .4.2v.4c.1 0 0 .4 0 .4l.4.8-.7.7.4.5-.9 1-.4 1.2h-.6c0 .1-.3.5-.3.5l-1.9.6-.6.8.4.5-.4 1h.6v.2h.2c0 .1-.7 1.2-.7 1.2l-.3 1.3h.8l.9.4.3 2.2h-.4l-.3 1 .3.7h.3v.6l.9 1.2v.4l-1.3.3-.6 1.5.2.5 1.1-1.3.5.6.9.3-2.2 1.1.5 1.5-1-.3-.5-.7-2 .5-.3.4h-.5v.2h-1.2v-.3l-.5-.2-.3.7-.6-.2-.5.5h-1l-1.5-.8-1 1.3v1.5l.2.6-.6 1.1-2.5.3-.5-1.1.2-.6-1.2-.8-1.1 1.1.2.6-.4.2-1-1.4v-.8l-1.2-.4-.9.2-1-.2-.9-.7-1.4.3-1-.7-.4.2-1.7-.2-1.3.2-.6-.5-.6.2-.2-.5v-.5c.1 0-1-.4-1-.4h-1l-.6-.4-.3-.6-.6-.4v-.7l-.3-.1h-.9l-2.2 1.2-1.1-.3v.5c-.1 0-.7-.8-.7-.8l-1.5-1.3-.3-.4.9-1.7.6-.3-1.8-.6v-1.9l.3-.3h2.2c0 .1-.3-1.1-.3-1.1h.7c0 .1.2-.7.2-.7l-.2-.2v-.5l-.7-.4-1.1-1.5.3-.3h1l-.1-.5 1.5.4.6-.2 1 1.9h.7c0-.1.6.2.6.2l-.4-.8.4-.4.6-.2.6.2.2-.4.4.2v-.2l.5.2-.3.2.2.3.5-.3.2-.5h1.4l.5-.3.5.3v.4l.6-.2.6.3.9 2 .5-.6-.3-1-.7-.9h.3v-.5h.2c0 .1.7-.4.7-.4l-.3-.6-1.5.5.2-1-.9-.3.9-.9h.4c0-.1.4.2.4.2l.9-.4 2.8-1.7.6.2 1-.3.7.2-.2-.6v-.3c.1 0 2-.3 2-.3l1.4-1.7-.7-.7-.2-.5.5-.8.5.3 1.6-.7h.2c0 .1.1-.2.1-.2h.3l.5-.6h.2l.7-.6 1.6-.9.3.6 1.4.5h.5l.4.3.5-1.9.7 2 .8-.2 1.6-.6-.2-.4.7-1.1Z"/><path id="FI-07" d="M216.9 315.9v-.3c.1 0 .4.1.4.1l.4-.6h.3l.7 1.4-.3-.2-.2-.5v.2c-.1 0-.4-.3-.4-.3v.3h-.5v.2l-.3-.3Zm-16.2 12.4.3.5v-.2h.3v-.4l-.3-.2-.3.2Zm3 4.1h.6c0-.1-.3-.3-.3-.3h.2l-.2-.5.2-.2-.4-.7.5.2-.2-.6-.3.2v-.3h-.2v-.7h-.4v-.2l-.5-.1-.9.2-.2-.5h-.2l-.2.3.3.3-.5.2h.3v.7l1 .4h.3c0-.1.3.3.3.3v.2h-.5l.2.8h-.5v-.2h.2l-.3-.2v.7l.3.7-.2.4v-.2c.1 0 0 .6 0 .6l.8.9.2.4v-.4l1.1-.2v-1.1c.1 0 0-.5 0-.5h-.2l-.8-.5Zm15.2-15.4h-.3v.4l-.5.5v.4l-.5-.4.3.5-.2.4.2.4h-.3l-.4-.4h-.3l-.2.4.3.7v.5h-.3l.4.3v-.5l.6.9-.3.8v.6l-.3.1-.2-.6h-.1l.2.4-.5.2-1.2-.5v-.4l-.2.3h-.5l-.7-.9v-.4l-.8.1-.2-.2v.5c.1 0-.2.3-.2.3v.5c-.1 0 .1 2 .1 2l-.3.4h.3v.5h-.4l.5.5-.2.4h-.5c0 .1.7.8.7.8l.2.7-.5.4h-.1c0-.1-.2.2-.2.2l.4.3-.2.2-.3-.2.2.5h-.3l-.2-.5-.7-.7v.7c-.1 0 .3.3.3.3l-.6.2v.2c-.1 0-.5-.4-.5-.4l-.5.2v.3c.1 0-.7-.4-.7-.4l.2.3h-.3v.4l-.5-.6h-.5l-.2.4-.5-.6.2.3h-.3l.6.9-.2.2-.2-.2v.3c-.1 0-.6-.5-.6-.5l-.3-.8-.4-.2v.5l.3.1.8 1.3-.3.8h-.4v-.5l-.3-.2v-.4l-.4-.2v.4c-.1 0-.6-.1-.6-.1l-.3.5.2.2-.2.4h-.3l.1.5.5.4-.3.5-.3-.4-.3.2.2.5h.3l-.4.8h.3v.3l4.3 3.3.2.3h.2c0-.1.3-1.4.3-1.4l1.2-.9.7.3h.2l-.2-.1v-.2c.1 0 .5.1.5.1l.3.4h.3c0-.1.6.6.6.6l.2-.2v-1l.4-.7 5.3 4.7-.7.9-1.1-.6-.8.9-1.3.8h-.5c0-.1-.4-.6-.4-.6v-1.1l-.4.5h-.4l.3.9-.6.5.3.4v.4c-.1 0-.6-.4-.6-.4h-.3c0 .1 1.4 1.5 1.4 1.5l.4-.4.4.2.5-.7.5.9-.5.5v.3h.5v.2l.2.2-.2.3 1.4 1v3.1c.1 0 .4.5.4.5h-.2v.8l1 2.3h-.2c0 .1 1.4 3.1 1.4 3.1l1.8 1.6h2l1.3.4 1.6 1 1.4 1.4 1.4 1.9-.5.4v-.4l-.5.3v.2h-.3l-.2.6.8-.3 1.2 1.4v-.4l.9-.3.9 1 3.6-1.7 4.9 1-.8-.6.3-2.2.3-.9-.2-1.5.3-.2-.2-.5 1-.5-.6-3.7 2.7-3.3 2.6-1.2-4.4-5.9-1.3-1.1-2.7-1.7-1.2-1.8-2.7-6.8-2.8-1.1-.7-.7-.6-1.8v-.8l-.9-.3-1.6-3-.3-3-1.6-1-1.2-.3v-.4c.1 0-1.3-.6-1.3-.6v-.3l-.2.1-.3-.2v.3c-.1 0-1-.7-1-.7l-.4.6v-.9l-.4-.2v-.3h-.5l-.9-.7-.2.2Z"/><path id="FI-08" d="m265.4 350.5-2.1-.5-1.7-2.4-.9-.6-1.3-.5-3.3-.2-1-.4-4.8-3.6-2.2 1.7-.6 3.3-.6 1.5-.9.4-2.6 1.2-2.7 3.3.6 3.7-1 .5.2.5-.3.2.2 1.5-.3.9-.3 2.2.8.6-4.9-1-3.6 1.7-.7 2.3h-.8v1.5l-.5.3v-.3l-.7.2v.3c.1 0 .6-.1.6-.1v.2l1-.7.2.8h-.2l.1.8h-.2c0 .1.4 1.1.4 1.1l.5-.3.3.8v2h1l.8.4.3.5v1.2l-1.7.4-.2-.6-.4 1.2.5-.2.7 1.1-.3.4h.3l.7.8 1.1 2.7.7 2.3 1.2.9-1.4 1.4-.2.6.8.2.7-.2v.4c.1 0-.5.2-.5.2l.2 1.2-.6.2.2.7-.4.2.2 1-.3-.2.2.6h-.2c0 .1-.2 0-.2 0v.5c-.1 0 .1.6.1.6l-.3.3-.6-.2-.4-.4.2.6h.3c0-.1.2 0 .2 0h-.6c0 .1-.1.5-.1.5l-.5.5-.4-1h-.2l.1-.3-.4.3-.2-.3-.9.3v.4c.1 0-.1.2-.1.2l.4.8-.5.7-2.4-1.5-2.1 2.9v.3l-1.7 2 .2 2.1.5.8h.4c0-.1.2 0 .2 0v.9c.1 0 1.6 1 1.6 1h2l.3-.3.5 2.7.9 1.2h1v-.2h.2v.4h.1v-.3l.3.8.3-.2v-.8c-.1 0 1.2-.9 1.2-.9v-.3l1.2.8.9 2 .4.5 1 .5v2.7c-.1 0 .6.3.6.3l.5 1-.7 1.4-2.1 1.1-.4 1.2v1l2.4 3 2.7 2.8-.5.6-.9.4v1.6l.4 1.1h1l.8.3v.7l-.2 1.1h.3c0 .1-.8-.1-.8-.1l-.4-.4-.6 1.6.2.7.5.6.3 1.5.3-1.3.8-.4.6.4v1l-.8.9 1.4.3-.4 1.4v1.1l1 1.3 2.2-.7v-.4l.3.2h.5l.5.5.8-.8 1.4.2.4-.3 3.3-.3 1.4-6.1V428c-.1 0 .6-.1.6-.1l.7.3.8-.3 1.2-1.5h.4l1.3.5.2.2-.3.3.5.3 1.3-3.7.4-.4-.2-.9.7.3-.4 1.4.9-.2.3-1v.3c.1 0 1.2.9 1.2.9l.2 1.2.4.4h.6c0-.1.2-.7.2-.7l.3.5v.4l.3.3v1.7l1.3 2h.5l.4-1.2.7.4h.8l.3-.7v.3c.1 0 .3-.2.3-.2l.3.6-.3.5.3.8.8-.5v-.6l.3-.2v-.8c.1 0 2.9 1.4 2.9 1.4l.2-.8h-.2v-.9h.2l.2-1.2-.4-1.5-1.7-2.9-1.2-.5.2-.3v-1.4l.2-.3-.3-.7v-.5h-.4l-.5.2.3-.9-.2-1.4.2-.8 1.5-.8-3.9-6.3 1.9-3.5.3.3.7-.6h1v-.5l.3-.3.2.2v.4h.2l.2-.5h.2c0 .1.5-.4.5-.4l-.3-.8h.7v-.5h.2c0 .1.4-.3.4-.3l.9 1.5h.1c0 .1.2 0 .2 0l.2.7.3.2.4-.2v-.7c.1 0-.2-.4-.2-.4l-.3-1.1v-.7c.1 0-.3-.5-.3-.5l1.5-.6-.4-.8.2-.2v-.5l2-.6-1.9-2.1.5-1v-.8c-.1 0 0-.3 0-.3l-.5-.4-1 .5-3.3-3 .2-.6h.5l.4-.4.6-1 .3-1h.6l-.4-.7.4-.4-.2-1.2-.4-.6v-1.3l-.8-1.1-.5-1.5-.7-1.2-.6-.8-1.1.6.2.5-.9.8-2.7-3.4-.3-.2-.4.2-.7-.9.6-.6v-.3l-2.3-1.1-.6-1.9.9-.2.8-.6h2.1c0-.1 1 1.1 1 1.1l1.2-2.5h-.8l-1.4-1.9.3-.8 1.9.4v-.3l-1.8-1.3-.5-.8-.3-1.1-.3-.3v-.6l-.5-.6-.4-2.8.7-.2v-1.2c-.1 0-.8-1.6-.8-1.6l-.3-2.5-.9-1.1h-.3l1-2.3 1.1-1.5-.8-.8-2.9 1.3Z"/><path id="FI-09" d="m275.7 444.3.6-.2.4.3 1.4-.8.8 2-.8.9.6.6 1.7-1 .6-1.6 2.2-.7.2 1.8.6.7.2.7-.3 1.1 2.5 1.3 1.3-.2.5-.4.4.2h1.2l.2.8-.8 1.5.2.3.3-.2.6.6-1 .2-.7.7v.9l.2.8-.4.7.6.5.7-.4.3 1.3.5.5-1.4.7h-.5c0-.1-.4-.7-.4-.7l-.2.2.3.5 1.6 2 3.1 1 1.6 2.4 1.1.9h.9l1.3-.3h1.4c0 .1.7.4.7.4v.3l.4 1.1h.8l.4-.3 1.2.2.2 1.2.8 1.6 1 .5v.8h.8l-2.4 2.6-.7 1.1v.7c.1 0-1.1.6-1.1.6l-.4-1.1v-.2c.1 0-.7-.2-.7-.2l-.3.2.3.4-.4.2.2.6-.2.4v.3c.1 0 .5.1.5.1v.4c.1 0-.2.5-.2.5l.3.2v.4l-.2.1-.6-.2-.4.5-1-.3v.4h-.3l-.6-.4.2.4.5.3v.2l-.9-.3-.3-.6-1.3-.5-.2-.4v.4c-.1 0-.7.2-.7.2v.3l.2.4h.3l.1.8-.8-.6-.5.3-.3-.3v-.4l-.8-.9v.3l.2.2v.2h-.9v-.2l.4-.1v-.4h-.4c0 .1-.5 0-.5 0v-.5c-.1 0-.7.6-.7.6l-.3-.5-.6-.3-.7.4v-.7c.1 0-.2-.5-.2-.5v-.3h.4l1.3 1.1.2-.3-1.2-.8v-.2l-.5-.2h-.5l.2 1.2-.2.6h-.3l-.5-.1-.5-.7-.3.4-.2-.2-.8.6-.4-.7v-.5h-.4l.4 1.3-.4.5-.5-.2.2.8-.2.3-.2-.2v.3l.3 1h-.3c0-.1-.3-.9-.3-.9h-.3v.4l.4.3-.5 1.1-.9-1.1h-.2c0 .1.3.9.3.9h.4v.4l.3.3-.2.3h-.6v-.3h-.5v.1h-.2l-.2-.7.6-.3v-.5l-.4-.5-.2.5h-.4l-.6.5-.7-.7v-.2l-.6-.4.3 1.4h-.5l-.3.7h-.7v.3l-.5-.2-.3-1-.3-.2-.4.2-.4-.2-.2.3h-.2l.1 1-.4-.4v-.5c-.1 0-.4-.1-.4-.1v.2c-.1 0-.9-.7-.9-.7l-.3-.8-.3-.2.2-.2v-.8l.9-.5-.4-.7.4-.4h.7l.1-.9.9-1.3 1.3-.3.8 1 1.2.5-.2-.4-1.2-2.6h-.7c0-.1-.9.3-.9.3v.6l-.6.9-.5 1.3v-.7l-1.2-.1v-.7l-.6-1.1-.5-.4-1.7-.5.3-.3-.5-.3-.3-.8v-.7c.1 0-.5-.7-.5-.7v-.7l-.6-.5h-.3v.5h-.5l-.4-.4-.2-1.9-1.6-1.2h-.5c0 .1-.4-.2-.4-.2l.3-1 .6-.4-.2-.5.2-.6.9-1.3-2.2-.4-.4-1.5v-.4h.4v.3l.2.2.8-.6.3-1.8-.3-.8h-.3v-1.3l-1.2-.8 1.2-1.8.7-.6.2.7 1.7.3.6-.8v-.6l1.5-.3.9-.7.3-1.1.6-.9v-.7l.4-.4 1.3-.4Z"/><path id="FI-10" d="M246.3 248v.7l-.5-.5.3-.3h.1Zm-9.2-4.3h.3l-.4.9.3.8h-.3v.5l-.8-.2v.2l-.2-.2h-.4c0 .1.3-.2.3-.2h-.3v-.5h.3c0-.1.4 0 .4 0l.4-.3.4-.5v-.7l.2.2Zm68.1-235 .4 3.8 3.6 5.5 3.7 2.3-.3 1.8 1.6 1.9 14.7 7.1.7 3.2 3.4 9.4-2.4 4.7-7.8 9.8v2.9l-.5 3.5 1.1 2.1 1.5 1.4-8.7 6.7-1.7.9 1.1 1.7h4l2.7.9-2 7.7-5.5 10.6 4.4 18.9 13.6 6.5 1.4 3.1.3.2v.5l.9 2.2 2.2 4.7.6.8 1.8 3.7 6.8 6-1.9 8.3-1.9 2.4-2.6 4.6-.7.9h-.4l-.3.9h-.4c0 .1-.1.5-.1.5l.5.2v.3l-.6.5-.6-.2v.4h-.4l.3.3-.2.3h-.9l-.4 1.2.2.4-8.9 14.8-.6 1.8v1.8c-.1 0 .4 3.6.4 3.6l1.1 2.6-.2.7.9.6 4.2 7.2v.8l.5.8-.2.3.8.5v.4c-.1 0 1.1 2.1 1.1 2.1l2 5.6h-6.3v1.2l-11.3-3.9-.6 3.7-1.3.2-.3-.2v.7h-.1l-.2.9h-.5v1.9l-.3.7 1 3.2.2.2h.7l.1.6.3.2.5-.7 1.3.3v.4c-.1 0 .2.4.2.4v.6l-.4.3.3.3-.3.5.7 1.1-1 1.2v1.2l-.6.4H318l.4 1.8.3.3-.3.7 1.3.5.2.4h.3v.5l.5-.3.4.3-.6.5.3.5v1.1h-1.5l-.4.7h-1.1v-.6l-1-.5v.3h-1.2v.7l-1.4.2v-.6l.4-.5-1.2.3.3.3v.7h.2v.5c-.1 0-.5-.1-.5-.1v.2c-.1 0 0 .4 0 .4l1.2.7.5 1.4 1 1.3v2.2h-.9l-4.8 2.2-1.2-.3-.4-.4-4.7-.3v-.4h-.4.2v.3l-2.8-.2v-.5c.1 0 .6.1.6.1l.2-.7h-.2l-.2.5h-.4c0-.1-1.5-3.1-1.5-3.1l-.8-2.9-1.1.3-.7 1.3-.5.2-1.9-1.8-.7 1 .2.3h-.3l-3.1 4.7h-.3l.1.3-.2.4h-.1v.2l-1.2 1.9.2.3h-.3c0 .1-.1 0-.1 0l-.9 1.4-.4.2.2.3-.5.6-.8-.4-.6.3v.5h.3v.4h-.7v-.7l-2.9 1.3-3.1-.2v-.2l-.2.4-.4-.5-5.5-.2-4.5-.5v-4.8l-7.4 4h-7.5l-1.3.6-1 2.1-1.6.9-.6.7h-.2L248 249l-.9.9v-.7l-.5-.4v-.5c-.1 0-1.3-.4-1.3-.4v-.3h-.6c0 .1-.7 0-.7 0l-.6-.5v-.6l-.1-.2.2-.3-.4.2-.2-.2-.3.3-.2-.3-.2.5-.3-.2v-.2h-.2v-.2c-.1 0 0 .5 0 .5l-.4.6-.2-.6-.5-.3-1 1.9-.5-.5h-.4v-.7h.3v-.3l-.6-.8v-.2h-.3l-.4-.6.3-.4.5.8v-1l-.6-.4h-.2v.2h-.2c0-.1-.5-1-.5-1l-.3.2v-.9h-.6v-.7l-.1.9h-.2l.1-1.1-.2 1-1-.4v-.4l.5-.1.5-.6v-.3l-.8.4h-.5l.3-.8-.3.8h-.3c0 .1-.6-.4-.6-.4h-.3c0 .1-.2-.2-.2-.2v.2l-.3-.5h-.4c0-.1-.3-.9-.3-.9v.7h-.2l-.8-.9-.4-1 .3 1-.5-.7h-.4c0-.1.5.5.5.5v.6l-.3-.1.2.2v.9h-.6l.7.4-.2.5-.7-.7v.7c.1 0-.2.1-.2.1h-.2c0-.1.2.5.2.5l-.2-.2v.2h-.2l-.3-1.3h.3l.2-1-.6-2.1-.3-.4v-.6c.1 0 .5-.1.5-.1l-.7-1.6v-1.4l-.6-.2-.9-1.5v-.3l.2-.2v-1.2l-1.8-3.5-.4-.4v-2.3l-.4-.8.2-.9-.7-.5h-.4l-.3-.2h-.5l-.9-.8-1.2-.4v-.6c.1 0-.5-.7-.5-.7l-.2-.5v-.7c.1 0-.4-.7-.4-.7v-.7l-.4-1.6.2-2.5.5-1.7-.5-.6-.5-1.5.2-1.3 1.4-1.1v-.7l.2-1 .4.2.9-.6-.2-1 1.4-1.1.4-.9.2-2-.3-.7V197c-.1 0 .3-.9.3-.9l.2-1.9.2-.5-.6-1.7v-.5l.3-.3h.5v-1.3h.3l.7.6h.4v-.7l.2-.3v-1c.1 0-1-3.1-1-3.1l-.4-.3-.2-.6-.8-.9v-1.8l-.7-.3-.2-1-.3-.2v-.6c-.1 0-.8-.4-.8-.4l-.5-.8-.5-1.4-.8-1.1-.4-2-2.1-3.5.3-.7.5-.3.2-1-1-.9.3-.6-.2-.6.3-.2v-.5c-.1 0 .7-.6.7-.6h.3c0 .1 1.2-.5 1.2-.5h.8l.3-.6.4-1.7.4-.5-.3-.6h-.4v-1.6l-.3-.4.7-1.1.3-1.2-1.1-.9h-.8c0 .1-2.5-.8-2.5-.8h-.4l-.4.7h-.4l-1.7-1.1-.3-.9.2-.9.5-.3.2-.6.7-.6.2-.5-.5-1.2.6-.2.4.2.7-.8v-1.4l.4-.8-.4-.2v-.5l-.9-1.4v-1.9l-.4-.4.2-1.4-.2-.5.3-.8v-1.2c-.1 0 0-.8 0-.8l-.4-1.4.2-.5v-.8l.2-.3v-.8l.6-1.2.5-.3.2-.4.6.2.2-.5 1-.8.4-1.3-.3-1.1-1-.6h-.6l-.7-1.1v-.8c-.1 0-1.4-.7-1.4-.7v-.6c-.1 0-.5-.3-.5-.3l-1.2-.6-.5-2-.5-.8-.7-2.7-.5-.4h-.4l-.1.4-.9.2-.7.6h-.5c0-.1-.3-1.1-.3-1.1v-1.5l.4-.8-.4-.3.2-1.5-.2-.8-.6-.3-.8-.9-.3-.8v-1c.1 0-.2-.4-.2-.4h-.4l-.9-.7-.3-.7H204l-.5-.9-1-.8v-.4c-.1 0 0-.7 0-.7l-.9-.6-.6.4h-.8l-.1-.5-.7-.3-.2-.6-.8-.5v-.9h-.4v.4c-.1 0-1 .3-1 .3l-.4-.7-1.2-.4h-.5l-.7-1.2h-.6l-.9 1h-.3V100h-1l-.3.2-.7-.2-.5.5-.4-.4-1 .5h-.5l-.3-.6-.3.2-.5-.2h-.7c0 .1-.5-.7-.5-.7l-.4-1.4.2-.7h-.3l-.5-1-.5-.3-1.1-1.5h-.5v-.2h-.4l-1.3.2-1.3-.3-.4-.4V93l.2-.4v-.5l-.9-.8-.3-.6-.5-.3-.2-.5-.7-.2-.4-.4h-1.3l-1.4-.9-.4-1 .2-.3-.3-1.1v-.7c.1 0-.3-.9-.3-.9h-.5c0-.1-.8.3-.8.3l-.5-.2-.6-1.1-.6-1.7-1-.7-1.3-1.7-.9-.5v-.5c-.1 0-.7-.5-.7-.5h-.4v-.2l-.6-.6-.3.3h-.4V77h-.5c0-.1-.7.3-.7.3h-.5c0-.1.5-.6.5-.6l-.5-1-.5-.2-.2-.7.4-.4h.5c0 .1.4-.9.4-.9v-.6l-.7-.9-.8-.5-.8-1.6-.6-.5-1.4-.6h-1.4l-1.7-.9 3.5-3.5 6.9 4.7 1-3.8-1-1-1.4-4 .4-1.8 1.8-2.1 3.7-2.9 6.9 2 2.2 3.8 5.2 8 3.8 6.3.4 2.2 3 5.1.7 6.1 3.2-1.4 1.3.9 4 2.2h5l2.5 3.3 5.5-3.5 4.7-.7 1.2-2.5.9-3.9 2-.9 2.3.5 1.8 2.6 1.7-.6v2.1l1 .4 1 1.1 1 .5 6.1 1.9 3.5 2.5 1.6 4.2.9.4.3-3 1-.4.6.3.4-.2v-.5c.1 0 .7-.2.7-.2l.4.4.5-.9.5-.2-.2-2.3.2-1.4.3-.5v-2c-.1 0 .2-2 .2-2l.4-.7 1.5-1.5.3-.9.6-.6 2.5-1.8.2-.4h.2l1.3-.7 1.2 1 .9.2.8-.5v-.4l.6-.4 1.2-3.3.3-1.4 1-1.2v-.7l-.4-.3v-.5c-.1 0 0-1.1 0-1.1l-.6-1.2v-2l.4-1.3-.9-3.3v-.5l.3-.4-.2-2.4.6-.5v-.6l.3-.3v-2.3l.3-.6v-.8l.4-.2v-.7c.1 0 .7-.2.7-.2v-.9l.4-1h.2l-.3-.7h-.4v-.3l.2-.2-.5-.4.3-.3.5-2.2.6-.6-.3-1.1.6-1.9-.7-.8v-.4l1-.6.9-.9.8-2.2-.3-.6V34c-.1 0-1.4-.9-1.4-.9l.3-.8.7-.5.6-1.3.6-.6 1.3-.2 1.1-.6.4-.5.3-.8.6-.3.2-.9.5-.3.3-.8.4-.2v-1.1l1.7-1.2 1-1 .7-1.6v-1.2c-.1 0 .8-1 .8-1l.2-1.1.6-.4 1.2-.2 1.1-.6 1.2-.3.4.8.5.2 1.4-.8h1.3v.9l.3.6.4.2 1-.5h.6l.5.4.4.8.8.5.5-.4h.7l.7-.8 3.3-1.3v-.4l-.4-.7.2-.4.6-.5h.8l1-1.4.5-.4 1.9-.2.6-2.1 1.2-.9h1.4l1.3.6 1-.7 3.1-.9h.2l.1.9Z"/><path id="FI-11" d="m201.3 403.1.4.2.2 1.6-.3.5.4.7-1.8.7v.6c-.1 0 .2 3.5.2 3.5l-1.2.4h-.7l-1.6.7-1.4 1.7.8.6h.6v.7h.2l.1-.4v-.4l.2.2v.6l.6.1v.4l-.2.2.4.9.4.4h.6l.4.4v.9l.9.4v.4l-.9.4.2.5.4-.3 1.2 1.6v.7c-.1 0-.4.1-.4.1v.2c.1 0 0 .9 0 .9l-.4.6h-.4c0-.1-.7.2-.7.2v.3l-.2.3h-.3l-.5.5.2 1.1h-.8l.1.7.5.5-.6.2v.5c.1 0 .8-.3.8-.3v-.6h.3v.2h.3v.7l.2.4-.4.9-.9-.8.7 1.7-1 .7v.9l-.9.8-.4-.2 1.5 3 .3.2.2-.2h.9l.1.7h-.3c0 .1.4 1.2.4 1.2l-1.3.3.2.9-.3-.5v.5l-.3-.1-.4.2v.7c.1 0-1.1-.5-1.1-.5h-.3c0 .1.6 2.3.6 2.3l-.7.5 1.1 1.3.7 2.2h1.1l.1.2v-.2h1.3l1.5.7.2-.3 2.5 1.8h1.3l.2.4h.3c0-.1-.2-.7-.2-.7h1l1.3-.6 1.3.2.2-.6h.6c0 .1-.3 1.7-.3 1.7l2.4 2.2-2.3.9v-.3h-.6l-.2.4.5.2v.7l.7.3-1.1.3v.2l1.1.4-.5 1.6 1.5.4.6-.2 1 1.9h.7c0-.1.6.2.6.2l-.4-.8.4-.4.6-.2.6.2.2-.4.4.2v-.2l.5.2-.3.2.2.3.5-.3.2-.5h1.4l.5-.3.5.3v.4l.6-.2.6.3.9 2 .5-.6-.3-1-.7-.9h.3v-.5h.2c0 .1.7-.4.7-.4l-.3-.6-1.5.5.2-1-.9-.3.9-.9h.4c0-.1.4.2.4.2l.9-.4 2.8-1.7.6.2 1-.3.7.2-.2-.6v-.3c.1 0 2-.3 2-.3l1.4-1.7-.7-.7-.2-.5.5-.8.5.3 1.6-.7h.2c0 .1.1-.2.1-.2h.3l.5-.6h.2l.7-.6 1.6-.9.3.6 1.4.5h.5l.4.3.5-1.9.7 2 .8-.2 1.6-.6-.2-.4.7-1.1-.5-1.3.3-1.3-.2-.2.3-1-.8-.9-.4-1.7 2.4 1.1-.9-1.3v-1.1l.3-1.4-1.4-.3.8-.9v-1l-.5-.4-.8.4-.3 1.3-.3-1.5-.5-.6-.2-.7.6-1.6.4.4h.4c0 .1.3-1 .3-1v-.7l-.9-.3h-1l-.4-1.1v-1.6l.9-.4.5-.6-2.7-2.8-2.3-3v-1l.3-1.2 2.1-1.1.7-1.4-.5-1-.7-.3v-2.7c.1 0-.9-.5-.9-.5l-.4-.5-.9-2-1.1-.8v.3l-1.4.9v.8c.1 0-.2.2-.2.2l-.3-.8v.3h-.2v-.4h-.2v.3h-1.1l-.9-1.2-.5-2.7-.3.3h-2l-1.5-1v-.9c-.1 0-.3-.2-.3-.2h-.4c0 .1-.5-.7-.5-.7l-.2-2.1-.4-.6-1.4-.6-.4-1.9.2-1-.3-1.2h-.6v1h-.5l-.1-1.5-.6.7.2.5v.5l-.5-.5-2.5 2.4-3.2-.2.3 2-.9-.6-.6.3h-.5c0-.1-.7-.6-.7-.6l-.3-.5-.2.2h-.2c0-.1.2-.3.2-.3l-.3-.3-.2.2-.2-.2v-.6l-1.2.7-.5 1.4.3.3v.5h-.5v.3c-.1 0-.4-.1-.4-.1v.4c.1 0-.2.5-.2.5l-6.3 2.7H201l-.2 1.3Z"/><path id="FI-12" d="m168.2 399.2.4-1.3-.2 1-.3.3Zm.9-2.8h.2v.4h.3v1.7h-.2v.5l-.3-.7v.4l-.2.1V397l.2-.5Zm-.6.8v.5l-.3.2.2-1 .5-.8v1.7c-.1 0-.2-.6-.2-.6zm0-2.1.2.5-.7 1.8v-.8l.4-.8v-.5l-.4.2.4-.5Zm-2.5-6.8.5.5-.3 1.3h.2v.4h-.4l-.4-1zm-.4-7.2h.4l.3.7-.4.9-.4-.4v-1.2Zm2.5-5.6.8.5h.3c0-.1-.3.8-.3.8l-1.6.5-.2-.2-.4.2-.4-.2v-.3h.3l-.2-.2.6-.2.2-.4.8-.4Zm0-2.6.4.4h.2l-.2.2.7.9v1.3c.1 0-.6-.6-.6-.6v-.5c.1 0-.7-.9-.7-.9v-.8Zm4.4-1.3-.2.2v.3h.4l-.2.2h.3v.6h-.3c0 .1-.4-.2-.4-.2l-.3.3-.4-.5.7-.9h.2Zm-5-2.4 1 1h.2l.2 1.8-.3.2-.2-.6h-.4v.7h-.4l-.5-.7v-.7l.3.6.2-.3-.8-1.5.2-.3h.2l.1-.3Zm3.9.1.7.4v.4l-.6-.4v.2l-.2-.1.2-.3-.3-.2v-.2h.3Zm.9-.4.7.3v.5l-.8-.3v-.5zm-3.8-.3.3.9.2-.4v.7l-.5.2-.4-.4v-.5h.3v-.4c-.1 0 0 0 0 0Zm3.6-.9v.2h.4v-.2c.1 0 .3.3.3.3l.5.3h.5c0-.1-.5.8-.5.8h-.4c0-.1.1-.5.1-.5h-.4l-.8-.4-.3-.5.7-.2Zm1.3-1.7.3.7-.3.5.4.7-.6.5-.6-.7.4-.3h-.4c0-.1.5-.8.5-.8v-.5h.4Zm2.9-.6.2.3-.3.3h-.5l.2-.5h.2v-.3l.3.2Zm-6.2-7.5.6.3v.4l-.6-.1v-.2c-.1 0 0 0 0 0zm9.2-2.1 1 .9v.3h.1l-.4.6h-.5c0-.1-.5-.9-.5-.9v-.6l-.3-.4h.5Zm-10.1-.4h.3v.4l-.4.4v.3h.4l.2-.7.3.7h-.2v.5h-.3c0-.1-.3.5-.3.5h-.2l-.2 1 .3.6.8-.2-.3-.4h.2l.3.2.7.2v-.5l.6-.3h-.1c0-.1.3-.4.3-.4v.3l.5-.3v-.4.2l.2-.2v.2l.7.2v.3h.1l.5.9-.2.2v.8l.3.4v.4h-.8l-.3-.3.3.9-.4-.4-.2.4h-.4v-1l.3-.2h-.7v.8h-.2c0-.1-.4.8-.4.8h-.5l.1.3h.4c0-.1-.3.4-.3.4l.2.3h-.3c0-.1-.2.2-.2.2h-.5l-.9-.6v-.7l-.2-.6-.3.5h-.5v.2h-.3c0-.1-.3-.8-.3-.8l.2-.2h-.2l-.3-.3v-.5h.3v-.3l-.8-1.4h-.2l.4-.6-.9-.5.2-.3-.2-.8.4.2.2.7c0-.1.6.2.6.2v-.2c.1 0 .5.3.5.3v-.9l.1-.1.2.2.4-.8h.4Zm9.3-.4.3.4v.3h-.4v.7l.5.7-.7-.6-.2.6.2.3v.9c-.1 0-.6.1-.6.1l-.3-.3-.2-1 .3-.2-.4-.3.6-.4v-.7h.6l.2-.3Zm11.3 0 .2.2v.7c-.1 0-.3-.4-.3-.4v-.5Zm-.6-.5h.3l.1.2v1.6l-.4 1.1h-.3c0-.1-.2.2-.2.2l-.6-.3v-.5h-.4v.2h-.3l.7.4v1c-.1 0-.4-.1-.4-.1v.3l-.3-.3v.2c-.1 0-.5-.4-.5-.4h-.9c0-.1.1-.3.1-.3h.5l-.8-.7v.3l-.7-.2h-.8c0 .1.4-1.7.4-1.7l.6.6.2-.3-.7-.5.4-.4.7.7.2.5v.7h.2l.4-.3-.7-1.1v-.5l.2.4.7-.6h.3v.4l.3-.3v.3h-.2l.2.4.3-.4.5.2v.4l.4-.3.2-1Zm-17.8-1.4 1.6.2-.3.3.2.5v.4c-.1 0-.6.5-.6.5l.2.3-.2.5h.1l-1.1 1.3h-.2c0-.1.4-.7.4-.7v-.4c-.1 0 .3-.2.3-.2h-.3l.2-.3h-.8l-.4.6-.3-.3v-.5l.2-.3h-.4v-.2l-.8.2.5-.3-.2-.4.3-.5h-.2c0-.1.3-.2.3-.2v.3h.3l.6-.5h.7Zm13.8-.9v.4c.1 0 .5-.5.5-.5l.6.2c0 .1.5.1.5.1l.2.4h-.5c0-.1 0 0 0 0h-.2l.4.2v.3l-.6.4-.5.8-.2-.4h-.7l-.2.5-.6.2v-.5l.3-.1-.2-.4h.2v-.5l.5-.5v-.5h.2v-.5c.1 0 .4.2.4.2Zm-15.6-.3.3.2-.3 1-.6.4h-.3l-.3-.4.3-.8h.4v-.2l.6-.2Zm8.8 0 .2.4-.3.3h-.4l.2-.3h-.4l.2-.1h-.3v-.4l.4.2.4-.2Zm1.8-1.5h-.3l.1-.2zm-.4-.5h.1l-.3.1v-.2zm-.4-.6h.3l-.2.5.2.3-.2.3h.3l-.5.2.2-.2h-.2c0-.1-.5 0-.5 0v-.2h.6v-.4l-.2.2-.3-.3h.5v-.1h-.5.6v-.2Zm-.3.2v-.2l.1-.1v.3Zm1.4-.3h.4l-.3.3h.4v.3h.2-.2.2l-.1.5h.2l-.2.2-.8-.2.4-.2v-.5h-.5v-.2h.4l-.4-.3h.4Zm-.2-.1h-.2l.3-.2v.2Zm12-7.5h.2l.4.6-.3.9v-.6h-.6zm4.8-7.1.5.2.3.5-.7-.2-.3 1.1-.5-.7.3-.8.3-.2Zm8.2-.3 4.3 3.3.2.3h.2c0-.1.3-1.4.3-1.4l1.2-.9.7.3h.2l-.2-.1v-.2c.1 0 .5.1.5.1l.3.4h.3c0-.1.6.6.6.6l.2-.2v-1l.4-.7 5.3 4.7-.7.9-1.1-.6-.8.9-1.3.8h-.5c0-.1-.4-.6-.4-.6v-1.1l-.4.5h-.4l.3.9-.6.5.3.4v.4c-.1 0-.6-.4-.6-.4h-.3c0 .1 1.4 1.5 1.4 1.5l.4-.4.4.2.5-.7.5.9-.5.5v.3h.5v.2l.2.2-.2.3 1.4 1v3.1c.1 0 .4.5.4.5h-.2v.8l1 2.3h-.2c0 .1-1.4-.7-1.4-.7l-.7-.9v-.2l-.8-.9v-.3c.1 0-.3-.9-.3-.9h-.2l-.2.2-1-.7-1-.2-.5-.7-2.6 1.3-.5 1-.6 2.2-1.9 2.3-.6-.8-1 .2-.2-.8h-.5v.4h-.6l.2 1.7-2-.9.3-.2-.6-.2v.5c.1 0-.1-.1-.1-.1v.2l.2.3h-.9l.1-.2-.6-.3-.5.3-.3-.4h-.9v.4l.4-.2.2.6-.6.4-.2-.2-1.4.9.5.9-1.3.8-.2-.2-.7.8v.6c-.1 0 1 .7 1 .7l-.3.4h.2l.4.8-.7.4-.4.9.7-.3.2.3 1.1-.5v3l-.3-.2h-.5l.3.2v.8l-.3.2v.3l-.8.4.7.2-.2.5-.4-.6-1.3.9.5.7h-.1c0 .1-.1-.2-.1-.2l-.3.3h-.2c0-.1-.1.1-.1.1h.2l-.9 1.4-.3 1.5-.9 1.2.2.4-.4.9v.5h-.4l.4 2-.7.4-1.4 2.7-.6.2-1.5 1.8-1.5-.7v.3l-1.1-.3v.2c-.1 0-3.8-1.8-3.8-1.8l-.4-.3v-.3h-.3l-.2-1.2-1.2-.8-.2.7-.7 1.1v2.8l.4 1.5.9 1.2-.8.8h-.2l.2-.5v-.3c-.1 0-.5 1.2-.5 1.2l-.6.4-.2.6-.6.3v.6c-.1 0-.6.5-.6.5l-.7.3v2h.4v.7l-1.4 4.1-.5-.4-.2.2.7.5v1.9l-.5.7.4.3.3.7 1.2-.2v.2l.1-.2h.4c0-.1.8.4.8.4v.6l-.4.4.3.4-.2 2.6h.3l.1-.3.7.5.8 1.5-1.2.2-.9 1.1.8.9-.2 1-.3.2v-.4l-.3.3-.5-.3v1.5l-.3.6.5 1.7-.4.8.4.9-2.5-.2-1.9.7-.9 1.4-1 .8-.4-.5.3-.7h.1c0 .1.1-.7.1-.7h-.2l-.8.6v-.3c-.1 0 0-.3 0-.3l.4-2.4v-.7c-.1 0 .2-1.5.2-1.5l-.2-1.8-.2.3v-.2l.4-.8.2.2-.2.7.2.2h.4v-2l.8-.8v-.3h.2v-.7c.1 0 0-.2 0-.2l-.3.5v-.5h-.3l.2-1.1h-.2v-.5h-.3l-.2.8h-.7v-.4l.5-.7.3-1.6-.2-.2-.2.9-.2-.2h-.2c0 .1.2-.4.2-.4l-.2.2-.3-.7.2-.6.2.6.3-.4v.4c.1 0 .5-2.3.5-2.3l-.4-.2-.4.2-.4.9v-1.3l-.3.3v-.6l.3-.9h-.2l-.2.6h-.4c0 .1-.2.1-.2.1l-.5-.5v-.3l.4-1.1h-.2c0-.1.2-.5.2-.5l-.3.2-.2.4v-.2c-.1 0-.5.5-.5.5h-.2l-.2.4v-.3l-.2.2.8-3.2-.6 1.5v-.7l-.6.3-.7-.8.5-.4.4-1.4h-.2c0-.1-.7.3-.7.3v-1.2h.4l.5.7.3-.4v-.4l-.4-.1v-.6h.3v-.5l.6-.3v-.4l.7-.2-.7-.3v-.4c-.1 0 .1-.1.1-.1h-.2l-1 .3-.2-1.2-.6.9v.8c-.1 0-.6-.4-.6-.4v-.4h.5v-.3h-.3v-1l.1-.7.4-.6h-.3c0-.1-.3 0-.3 0v-.8h.3v.3h.6l.5-.4v-.5l.3-.3h.1c0 .1.2-.7.2-.7v-.6l-.6.2-.2-.3-.4-1.9.3-.2v-.4h.4v-.2h.3l.6.6.2-.2v-.7l.7-.6v-1.4h.4l-.2-.3.2-.2-.4-.3v-.2l.4.3.5-.3 1.5.9.9-.2v-1l.4-1v-.9l.1-.6 1.1-.5-.3-.7v-.5l.4-.1v-.3l-.5-.1.3-.2-.6-.5h.4v-.4l.3.2v.7h.4v-.7l-.8-1v-.4c.1 0 .7.1.7.1l.2-.2.2.3.2-.2-.2-.4v-.4c.1 0 .6-.3.6-.3l.4.6.2-.2v.5h.3v.3l.4.2.2-.4v.5c.1 0 .7.5.7.5l.7-.6v-.6h-.4v.2c-.1 0-.3-.5-.3-.5l-.8-.4-.3-.7.3-.4-.6.2v-.6l.4-.1-.3-.3-.2.3h-.3v-.5l-.9-1.3v-.6c-.1 0 .1-.6.1-.6h.5v.2l.2-.3h.4l-.9-.4-.4.2v-1.8l.2-.3h.6c0-.1-.2-.7-.2-.7h-.2l.3-.2-.3-.3.3-.2v-.2l.4-.1v-.5l.3.1-.2.6.2.9-.2.2h.4v.4l.6.5h.5l-.2.4h.2c0-.1.5.2.5.2l.4-1.1.5.2.5.8.4-.2-.4-.2v-.8l.2-.3.2.4.5-1.3h.2l.2-.3h.2v.9h.4l.4-.6v.3l.3.1.4-.7.4-.2.4.2v.6c.1 0-.2.4-.2.4l.2.3.4-.8.4.7v-.7h.5v.5h.3l.2-.3v.3l.1.3-.2.3h-.1c0-.1-.1.3-.1.3h.3c0-.1.2.3.2.3v.4c-.1 0-.5.2-.5.2l-.4-.3h-.3l-.1.3v.2c.1 0 .2-.2.2-.2l.2 1h-.6l.4.5v.4h.3l.5.5h.2c0-.1-.6-1-.6-1v-.8l.4-.4.6.4.2-.2-.2-.6.2-.3-.4-.7v-.7c.1 0 .4.3.4.3l1-.4v.3c.1 0 0 .7 0 .7l.3.3v-.2l.2.1v-.3l.5-.1v-.3l.7.1v-.5c.1 0 .5-.4.5-.4l.9.5v-1.3l.3-.3v-.4l.6-.3v-.5h.4l.6 1h.2c0-.1.4.1.4.1v-.6c.1 0-.1-.4-.1-.4v-.3l-.2-.2h.3c0 .1.6-.5.6-.5l-1.1-2.1-.9-.6v-.6c.1 0 0-.3 0-.3h-.6v-.4l-.5-.4v-.4l-.6-.7v-1l.6-.2.6.2.9-.3.5.6.4 1v-.6l.5.8.7.4-1.7-2-.7-1.4v-.3c.1 0 0-.3 0-.3l.4-.5v-.3l.6-1.3-.3-.5 1.1.3-.2 1-.5.2.5.3v.3l.3.8v.2l-.1-.2h-.2c0 .1-.2.5-.2.5h.5l.2-.3.2.5.3.2v.4c-.1 0 0 .8 0 .8l.4-.8.2.8V347l.7-1.4-.5-1h.4v.3h.2l-.2-.7.2.5h.5c0 .1-.3-.9-.3-.9l.4-.5v-.5h-.3l-.3.7-.4.2-.2-.7-.7.2.2-.2-.2-.4.3-.2v.3h.6v-.2h.3v-.4l.2.3v-.4l.5-.1-.2-.7v-.8c.1 0 .5-.2.5-.2l.2-.6h.5l.4.3.4-1.4v-1.2l.6.4v.5l-.2-.2v.3c-.1 0 0 .6 0 .6l.3-.2v-.4h.1l.3.5v-.2l.3.7.3-.3-.2-1.3h.3l.6.4v-.2c.1 0 .4.7.4.7l.4.3-.2.7.3.7V339l.9.6.4 1.1h.3l.2-.8-.5-.6.2-.7-.3-.2v-.3l.2.2h.2v.2h.3l-.3.3.3.3v-.3h.8v-.8h.1v-.2l.3-.2.2.4.2-.4-.2-.3-.9-.3v-.3h-.2v.3l-.4-.5.8-.2-.2-.4h.2v-.2l1 .3-.5-1 .2.4v-.4l1.1-.2v-.3l.3.4.2-.4Zm-5-.2h.2l.4.6.5-.2v.3c.1 0-.1.7-.1.7h-.2l-.1 1.2v-.5h-.7.2v.9l-.5-.1.2.4-.2.2-.9-.4-.4-.9v-.2c.1 0-.4-.4-.4-.4v-.3l.5-.3.3-.5h.5l.4-.6h.2Zm-2-.6v.4c.1 0 0 .1 0 .1v.4l-.2-1.2.3.2Zm2.4-2.3h.3c0-.1.3.2.3.2l.4-.2.7 1.2.3.7-.2.4h-.3v.2l-.5-.2v.6l-.4-.5-.3.3-.3-.6v.3h-1l.2.3-.4.3-.5-.3v-.3h-.3l-.3-.7h.6c0-.1-.2-.5-.2-.5h.2v-.3l.3.4-.2-.7.4-.2v.3l.2-.3 1.6.3v-.3h.4l-.8-.3-.2-.4h.2Zm-.7-.9h.4v.9l-.6-.4v-.5Zm.5-2.1v.4l-.8-.3.5-.5z"/><path id="FI-13" d="m313.1 335.8 2.3-4.6-.3-.6 1.2-.5 7.5 2.1 8-.7 8.1-1.3.8 6 1.1 2 2-2.1 2-.4 1.8 2.2.2.6 3.3 3.8.4 1.3 2.6 1.8 2 3.5 6.2 2.8 1.3 1.7 1.7.5.2.9.7 1.3.8.2 1.6 1.4.9.4.5.9 1.4 1v1l.3.7v1.7l.3 1.5.5.6 1.3 1 .6 1 .7.3.7.8-.2.8 1.1.4 1.7 3.9-2.6 4.9.2.6h-.5l-1.2 4.1v.7l-.2 1.1-.6.3-2.5 6.3-.8.2-.5 2.1-.5.2-3.8 4.6.3.3-.4.9-.8-.2-1.4 1.5-.5.2v.4l-1.8 2.2h-1.3l-.6.9v.7c.1 0-.5 1.3-.5 1.3l-3.2 4.7-1.4 1.4-.6.9-.8.6v.9c.1 0-.1.4-.1.4h-.5l-1.3 1.8h-.3v.4l-1.1 1.3-.2-.5-.7.3-10.8 5.7.2-.6 1.4-1.1.8-1.3.3-1.3v-.6l-.5-.7.6-.4-1.6-2.1v-1l.9-1.7-1.9-2v-.3l-1.2-.4-1-1.8-1-5.1.4-1.6-.8-.7-1.6-3.4-.3-2.5-.5-.9-.8-.4-.6.7-.5-.3-.3.4v.5c.1 0-1-.3-1-.3l-.3-.4.2-.5-.5-.5.6-2.9h-.7l-.9-.8-.7-.2.7-.3v-.5c-.1 0-.6-.2-.6-.2l-1.3-1.3v-.5l-1.6-1-1.5-1.8-2.3-.4-.4-.4v-.5l1-1-1.2-1.6-.2-.6.2-.7.8-.7h.8c0 .1.6-1 .6-1v-.6l.5-.7.3-.2.8.4.4.8 1 .6.6 1h.2l.5-1.4 2.6-1.8-1.7-1.2v-.4h-.2l-.7-1.3-.6-.4-.2-.8.6.5h.7c0-.1-.2-.6-.2-.6h.2v-.1l-.6-.2.2-.6 1.9-1.1-.6-1.2-2.3-1.2-.2-.4-.9-.5-.8-1.7-2.4-3.4-.2-.6-1.7-.9 1-1.6-.2-.5.5-.2v-.4l.6-.3v-.5h-.4l.6-.4v-.3c-.1 0 .4-.6.4-.6l.5-3.4-1.9-1.6-.3-2-.9-2.7.2-.6.4-.3.3.3.7-.6-.3-.3h-.3l-.7-.2-.2-.2v-.3h-.1l-.4-3.8.4-.7-.4-.6-.7-.6-1.3.3-.5-.2-.7-1.2-1.3-1.4Z"/><path id="FI-14" d="m236.3 275.9.5-.2.3-.8 1.1-1.1h.8l.5-.2 1 .2 1.5-.6.5.2.6.5.2.5h-.3v.5l.4-.2.4.2h.6c0-.1.6.2.6.2h.9l.6.5-.8.6h-.9l-1.1-.1v-.4l-.5-.3h-.8l-.4-.3-.8.2v.4l.6-.3-.2.4v.4h.4v.6h.4l.4 1-.2.6v1c.1 0-1.6 1-1.6 1v.3l-.5-.2v-.4l-.6-.2v-.7h.3v-.4l-1 .2.6.4-.5.3-1 .2-.4-.3-.4-.5v-.5l-.8-.8v-.2h.2l-.3-.4v-.2c.1 0-.4-.9-.4-.9Zm109.8-45.8V228c-.1 0-.5-.9-.5-.9v-.2c.1 0 0-.1 0-.1l-.9-4-4.4-7.1h-.3l.2-.3-2.7-8h-6.3v1.2l-11.3-3.9-.6 3.7-1.3.2-.3-.2v.7h-.1l-.2.9h-.5v1.9l-.3.7 1 3.2.2.2h.7l.1.6.3.2.5-.7 1.3.3v.4c-.1 0 .2.4.2.4v.6l-.4.3.3.3-.3.5.7 1.1-1 1.2v1.2l-.6.4H318l.4 1.8.3.3-.3.7 1.3.5.2.4h.3v.5l.5-.3.4.3-.6.5.3.5v1.1h-1.5l-.4.7h-1.1v-.6l-1-.5v.3h-1.2v.7l-1.4.2v-.6l.4-.5-1.2.3.3.3v.7h.2v.5c-.1 0-.5-.1-.5-.1v.2c-.1 0 0 .4 0 .4l1.2.7.5 1.4 1 1.3v2.2h-.9l-4.8 2.2-1.2-.3-.4-.4-4.7-.3v-.4h-.4.2v.3l-2.8-.2v-.5c.1 0 .6.1.6.1l.2-.7h-.2l-.2.5h-.4c0-.1-1.5-3.1-1.5-3.1l-.8-2.9-1.1.3-.7 1.3-.5.2-1.9-1.8-.7 1 .2.3h-.3l-3.1 4.7h-.3l.1.3-.2.4h-.1v.2l-1.2 1.9.2.3h-.3c0 .1-.1 0-.1 0l-.9 1.4-.4.2.2.3-.5.6-.8-.4-.6.3v.5h.3v.4h-.7v-.7l-2.9 1.3-3.1-.2v-.2l-.2.4-.4-.5-5.5-.2-4.5-.5V238l-7.4 4h-7.5l-1.3.6-1 2.1-1.6.9-.6.7h-.2l-1.2 2.3-.9.9v1l.5-.4.2.3v.9l.1-.5h.1v.2l.3-.6.3.4.3-1.1v.9c-.1 0 .2.3.2.3h.4c0-.1.2 0 .2 0l-.3.2v.6c.1 0 .7.3.7.3l.6 1v.2c-.1 0 .3.4.3.4v.4c-.1 0 .2.7.2.7l.5-.2.3.4h-.4c0 .1.2.4.2.4h-.1c0 .1.5.8.5.8h-.5v.4l.5.2v.2h-.4l.5.3v.4c.1 0-.4.2-.4.2l-.2.7h-.2l-.3.3-.4-.5h-.5v.9c.1 0 .7.4.7.4 0 .1-.4 0-.4 0l.2.3h-.3v.3h1.1l.4.4v.5h-1.2l.2.6h-.8c0 .1.1.8.1.8h-.2c0 .1.9.6.9.6v.4c.1 0 .6.4.6.4l-.2.3-.4-.2v.4c.1 0-.4.3-.4.3v.4h.9c0-.1.4.1.4.1v.3h-.4v.4l-.4.2h.6v.3h.3l.2.3-1.4-.2h.2v.8l-.4-.2v.2c-.1 0 .1.3.1.3h.3l.2.2h-.2v.6h-.4l.4.6v.4l-.7.3-.3-.2v.2c-.1 0 .1 1.6.1 1.6l-.2.5 1.4.2v.2h.3l.5.7h.5l.4.4-.2.4.7 1.4h-.2v.1l.5.8-.2.5v.9h-.3v.3l.4.7 1.4.8v.9l-.5.4h-.7l-.3-.2-.2-.5-1.1-.6-.5-.9-1-.3v.2l-.4-.5h-.5l-.8-.3.6.6-.2.2v.6l-.3.1.4 1.3 2.4 2.2.5-.3h.4v.4l.5.4v.3h-.2l.2.3h-.4c0 .1-.3 1.2-.3 1.2h-.3v.3h-.2c0 .1.3.4.3.4h-.4l-.3.7h-.8l-.3-.2h.4c0-.1-.2-1.1-.2-1.1h.4l-.8-.9h-.3v.4l-.2-.3h-.3l-.5-.6v-.4h.2v-.5c-.1 0-.7-.3-.7-.3l-.4.6-.4-.6v-.7h-.4l-.4-.2v.3c-.1 0-.5.2-.5.2l-.8.2-.5-.2-.8.3v.7l-.4.4h-.5l-.7-.2-.8.2-.7-.4h.1c0 .1-.5.7-.5.7l-1.3.2-.2.5.4.5v.4l-.6-.5-.6.5v.8c-.1 0 0 .5 0 .5l-.3.6-.4-.3.2-.8-.2-.4-2.1.9.2.7h.4l.2.7v.7h-.5l.2.3v.8c-.1 0 .2.3.2.3v.6-.1l-.3.7h-.2l-.2.3h-.4l-.3.1.3.2h-.4l.2.2-.4.2-.3-.2-.2.3h-.4v.2l.4.3.3-.3v.4l-1.3.8v.3h.3-.3v.8l-.4.4.9-.3-.7.7-.3.7-.5.3h.5l-.3.1.2.2-.3.2.4.3v.3l-.3.1v.5h-.2l.4.7-.5.9h-.3v.1h-.5l-.1.3h-.3l-.3-.6-.2.2h-.4c0-.1.3.9.3.9h.4v.5l.3.2-.5.2v-.4l-.3-.1v.2h-.1l.2.2h-.6v.6l.4.3v.7l.6.2v.5c.1 0-1-.5-1-.5v-.9c-.1 0-.4-.2-.4-.2l-.2.2.2.2v.2l-.6.3h.2v.4h-.6l-.2.2h-.3v.2h-.3l-.1.5-.7-.2.4.3h-.2c0 .1.3.4.3.4v.3l-.8.4-.7-.2.2.6-.4-.2v.6h-.4v.7l-.3.2v.5l.2.3-.9.8h-.3l-.2.3v2l-1.3.2-.3-.4v.3c.1 0-.1.9-.1.9l.3.4-.5-.6v.7l.2-.2.2.4h-.3l-.3.8-1.1.7-.7-.2c0 .1-.1 0-.1 0v.2l-.2-.2-.2.3h.4c0 .1-.2.3-.2.3v.4l.6.8-.2.4h-.3v.2h-.2c0-.1.1.2.1.2l.9.7h.3l.1.3.5.2v.9l.4-.6.9.7v-.3c.1 0 .5.2.5.2v.2l1.4.6v.4c-.1 0 1.1.3 1.1.3l1.6 1 .3 3 1.6 3 .8.3v.8l.6 1.8.7.7 2.8 1.1 2.7 6.8 1.2 1.8 2.7 1.7 1.3 1.1 4.4 5.9.9-.4.6-1.5.6-3.3 2.2-1.7 4.8 3.6 1 .4 3.3.2 1.3.5.9.6 1.7 2.4 2.1.5 2.9-1.3 1-1.9v-3.1c.1 0 2.1-1 2.1-1l-.5-4.8-.4-.2.3-.2v-1.9c-.1 0-.5-2.7-.5-2.7l-.4-1.2 2.5-2.1v-.3l.6-.2 3-2.7v-.7h.4l.2.3.6-.6-.3-.4.4.3 1.5-.9-.3-.3.2-.2.4.3 3.9-1.9-1.8-1-.2-9.5-1.1-.2-.5-.4v-1.6l-.2-.2-2.6-.2-1.8-1.6v-.5l.3-.5-.3-.4h.2l-.1-.3h.3v-.5h-.4c0 .1-.7-1.4-.7-1.4l-2.7-2.3.7-.9-.2-.3h.5c0-.1-.1-.5-.1-.5l.4.2 2.1-2.4 1.7.3-.3-.8.5-.2.4.5v-.9l.5-1.1 1.1-.7v-.6l-.4-.3.4-.3.2.3h.5c0-.1-.4.3-.4.3l.5.6.2-.2-.3-.2.5-.3v-.2l.4-.2.2.3 2-.8.4-1.3.5.2v-.6h.3l-.2-.3v-.7h.2v-.4l-.2-.3.3-1.1 4.8-3.6.8.2.4.3h.2c0-.1 2.8.6 2.8.6l.5-.9-.3-.6.6-.2.2-.4-.7-1.7.7-1.7v-.4l-.5-.3.3-.2-.2-.6-1-1.4h-.3l-1.2-2 1.3-3 2.5.2 2.4-.3.7-.6 1.3-.7 2.2.7.3-.5v.6l2 .7.8-3.8h.2l-.1-.3.5.3-.4-.3.4-.3v-.2l-.4.3.2-1.2 1.7-1.6 4.7-1 .3.3.2-.4 3.7-.7.3-.5h.2l-.3.4.5.4-.3-.4 2-.4.4-1.1v-.2c-.1 0 .4-2 .4-2l.5-.9-.2-.8 3.2-1.4h-.5c0-.1.3-.2.3-.2v-.3h.2l.1.4 3-1.3 1.7.5 2.1-.6h-.5l.6-.6h.6c0 .1-.5-.1-.5-.1l.6-.6.2.2v-.4l.6-.5v-1.2l2-.1 3.7 1.6.5-.2v-.3l.5-.3 3.2.6.9-.2 2.2-3.1-2.2-2.4-.6-1.4 5.9-2.9.6.5 1.9.9-1.5-11.3-.9-3.4-.5-.6Z"/><path id="FI-15" d="m279.1 324.8-.4-.3-.2.2.3.3-1.6.9-.4-.3.3.4-.6.6-.2-.3h-.4v.8l-3 2.7h-.6v.5l-2.5 2.1.4 1.2.4 2.7v1.9c.1 0-.2.2-.2.2l.4.2.5 4.8-2 1v3.1c-.1 0-1.1 1.9-1.1 1.9l.8.8-1.1 1.5-1 2.3h.3l.9 1.1.3 2.5.7 1.6v1.2c.1 0-.6.2-.6.2l.4 2.8.5.6v.6l.3.3.3 1.1.5.8 1.7 1.3v.3l-1.8-.4-.3.8 1.4 1.9h.8l-1.2 2.5-1-1.3H268c0 .1-.8.7-.8.7l-.9.2.6 1.9 2.3 1.1v.3l-.6.6.7.9.4-.2.3.2 2.7 3.4.9-.8-.2-.5 1.1-.6.6.8.7 1.2.5 1.5.7 1.1v1.3l.5.6.2 1.2-.4.4.4.6h-.6l-.3 1.1-.6 1-.4.4h-.5l-.2.6 3.3 3 1-.5.5.4 1.1 1.3 1.4-.8-.3-.6.3-.5.9-.8v.4c.1 0 1.1.8 1.1.8l.4.6.3-.7-.5-.8.4-.5.6.8h1.3l.4-.8h.5v-.3h.3v-.5l1 1.1.2.8v.3c-.1 0 .4.1.4.1v-.6l.3-.3v.2c.1 0-.1.3-.1.3v.2h.3l.2-.7h.5l.3.7h.4l.4-1 .7-.5h.4l-.2-.5h.3l.1-.3-.5-.3.3-.3.5 1.1h.4l.2.4.8.5v.5c.1 0 2.2 1 2.2 1l1.2 1.3.5.9.6.5.2.6 1.4.3.2.3-.7.8v.7l1.1.5.9 1.4h.2l.3-.3.7.3v-.5l1.4 1.5v-.3l2.4 1.6h2.3l1.7-.4 1.3.8 1.1.2 2.7 1.2h1.2l1-1.3v-1l-3.1-3.8-1.8 1.1-.4-.2v-1.2l-.2-1-1.1-.2v-.4l.2-.4-.9-.7v-.9l-.8-.5v-.4c.1 0 1-.4 1-.4v-.5l-.4-.4.3-.5.3.2h.4l.7.4h.5l.2-1.1-.5-.8.2-.3h.2l.4-1-.2-.9.3-.5-.2-.3.9.2.4.3h.2c0-.1.9.7.9.7l.5-.9-1.4-.8h1.3l.5-.5.4.7.5-.3.4-.8-.5-.2.7-.5.4-1.6v-.5l1-1-1.2-1.6-.2-.6.2-.7.8-.7h.8c0 .1.6-1 .6-1v-.6l.5-.7.3-.2.8.4.4.8 1 .6.6 1h.2l.5-1.4 2.6-1.8-1.7-1.2v-.4h-.2l-.7-1.3-.6-.4-.2-.8.6.5h.7c0-.1-.2-.6-.2-.6h.2v-.1l-.6-.2.2-.6 1.9-1.1-.6-1.2-2.3-1.2-.2-.4-.9-.5-.8-1.7-2.4-3.4-.2-.6-1.7-.9 1-1.6-.2-.5.5-.2v-.4l.6-.3v-.5h-.4l.6-.4v-.3c-.1 0 .4-.6.4-.6l.5-3.4-1.9-1.6-.3-2-.9-2.7.2-.6.4-.3.3.3.7-.6-.3-.3h-.3l-.7-.2-.2-.2v-.3h-.1l-.4-3.8.4-.7-.4-.6-.7-.6-1.3.3-.5-.2-.7-1.2-1.3-1.4-1.7 3.9-1.3-1.7-1.3-.8-1.7-2.6-2.9-3.1h-.4l-3-2.6-1.6-.7-.3.2-2.2-1.7-1.2-.2.3.5-1 .2-.7-.5.2-.3h-.1c0-.1-3.2-1.2-3.2-1.2l-2.5-.3-.3.3-2.1-.3-3-1.7-3.9 1.9Z"/><path id="FI-16" d="m244.7 436.8 2.2-.7v-.4l.3.2h.5l.5.5.8-.8 1.4.2.4-.3 3.3-.3 1.4-6.1v-1.9c-.1 0 .6-.1.6-.1l.7.3.8-.3 1.2-1.5h.4l1.3.5.2.2-.3.3.5.3 1.3-3.7.4-.4-.2-.9.7.3-.4 1.4.9-.2.3-1v.3c.1 0 1.2.9 1.2.9l.2 1.2.4.4h.6c0-.1.2-.7.2-.7l.3.5v.4l.3.3v1.7l1.3 2h.5l.4-1.2.7.4h.8l.3-.7v.3c.1 0 .3-.2.3-.2l.3.6-.3.5.3.8v1.5l-.2-.2h-.9l.5.5v1h.2l-.1.8h-.5c0 .1.2.8.2.8h.7l.2-.7v.6h.4l.2.3h-1.7l.6 1.5-1 .8.4.9 1.1 1.2-.7 1.1v.2l.7-.1v.5l1.7 1.5h.1c0-.1 1.2 0 1.2 0h.3l.3.7.3 1.5-1.3.5-.4.4v.7l-.6.9-.3 1.1-.9.7-1.5.3v.6l-.6.8-1.7-.3-.2-.7-.7.6-1.2 1.8 1.2.8v1.2l.2.1.3.8-.3 1.8-.8.6-.3-.2v-.3h-.3v.4c-.1 0 .2 1.5.2 1.5l2.2.3-.9 1.3-.2.6.2.5-.6.4-.3 1 .4.3h.5c0-.1 1.6 1.1 1.6 1.1l.2 1.9.3 1.1-.2.5-1.5 1.1-.7.2-1.6-1.2-1.9.4-.4-1.3-1.1.2-.5.7-1.1.2h-.6l-.5-.4-.9 1.1h-.6v.5h-.7v.4l-1.8-1.3v-.7c.1 0 0-1 0-1l-.8-2h-.8c0-.1-1.1 1.7-1.1 1.7l-1.2-.3-.4.4-.3-1.1-1.3-1.1-.3-1.5-.4.2v.7l-1.6.1v-.3h-.4l-.3-.7.3-1h.4l-.3-2.3-.9-.4h-.8l.3-1.4.7-1.1h-.2v-.4h-.6l.4-.9-.4-.5.6-.8 1.9-.6.3-.4h.6c0-.1.4-1.3.4-1.3l.9-1-.4-.5.7-.7-.4-.8.2-.4v-.4c-.1 0-.5-.2-.5-.2l-.7-1v-.7l-1.9-.6-1.6.3-.3-1.8-.9.6-.4-.6-.5.3-.3-1.7-.5-1.3.3-1.3-.2-.2.3-1-.8-.9-.4-1.7 2.4 1.1Z"/><path id="FI-17" d="m172.9 446.8 1 .7h-.7l-.6-.7zm-1-.2h.6l.2.3h-.2l-.2.3.5.6v.2c-.1 0-.6-.1-.6-.1l-.3.4-.5-.2.2-.4-.3-.3.7-.3v-.6Zm1.9-1.3h.7l.2.3h.3l.2.2-.3.3.2.4h-.5l-.3-.3h-.4l.2-.2-.2-.2h-.7.2l-.3-.2.4-.2h.4Zm.5-16.7h.6v.3h.3v.5l-.4-.2v.4c.1 0-.8-.2-.8-.2l-.2.2-.7-.5v.3l.6.5v.5l-.8-.9v-.4l-.1.1-.2-.2v.2c-.1 0-.3-.2-.3-.2v-.2h.4l.2-.2.8.6h.4v-.3h.2l-.2-.3zm27.2-26.9-.2 1.4.4.2.2 1.6-.3.4.4.7-1.8.7v.6c-.1 0 .2 3.5.2 3.5l-1.2.4h-.7l-1.6.7-1.4 1.7.8.6h.6v.7h.2l.1-.4v-.4l.2.2v.6l.6.1v.4l-.2.2.4.9.4.4h.6l.4.4v.9l.9.4v.4l-.9.4.2.5.4-.3 1.2 1.6v.7c-.1 0-.4.1-.4.1v.2c.1 0 0 .9 0 .9l-.4.6h-.4c0-.1-.7.2-.7.2v.3l-.2.3h-.3l-.5.5.2 1.1h-.8c0 .1.1.7.1.7l.5.5-.6.2v.5c.1 0 .8-.3.8-.3v-.6h.3v.2h.3v.7l.2.4-.4.9-.9-.8.7 1.7-1 .7v.9l-.9.8-.4-.2 1.5 3 .3.2.2-.2h.9l.1.7h-.3c0 .1.4 1.2.4 1.2l-1.3.3.2.9-.3-.5v.5l-.3-.1-.4.2v.7c.1 0-1.1-.5-1.1-.5h-.3c0 .1.6 2.3.6 2.3l-.7.5 1.1 1.3.7 2.2h1.1l.1.2v-.2h1.3l1.5.7.2-.3 2.5 1.8h1.3l.2.4h.3c0-.1-.2-.7-.2-.7h1l1.3-.6 1.3.2.2-.6h.6c0 .1-.3 1.7-.3 1.7l2.4 2.2-2.3.9v-.3h-.6l-.2.4.5.2v.7l.7.3-1.1.3v.2l1.1.3-.5 1.6v.5h-.9l-.3.3-.7-.2-.4-1.1h-1.9l-.8.3-.9-.9h-.7l-.2-.5h-.3c0 .1-.7-.2-.7-.2l-.3-1.1-.9-.7-.2.9.4.7-.3.5v.3l-.3.1.4 1.1-.3.9-.4-.2-1.6.8-.3-.2-2.4-.2-1.1.6 1.2 1.5-1.3-.5-3.2.7-.9.7-1.1-.5-.6.2-.9.8.6.3v.2l-.6-.2-.4.8h-.2c0 .1-.6-1.1-.6-1.1h-2.3c0 .1-.2.3-.2.3l-.3-.2.2-.4-1-1.4V456h-.5l-.4-.4h-.4c0 .1-.8-.9-.8-.9l-.8-.5.4-.6h-1l-.5.3.3.5-.6.5-.4.2-.4-.3-.7.4-.9-2.3-.2.7-.3.2-.5.9-1.5.3-1.1-.9-.4-1 .4-.9h-.3l-.2-.3-.7-.3-.2-.4h.4c0-.1.4.3.4.3l.5-.2.4.2.4-.3-.5-.2.2-.4h-.2v-.4l.3-.2v-.3l-.7-.4.9-.3v-.4l-.7-.6.2-.3h.3c0 .1.1 0 .1 0l-.3-.2v-.5c.1 0-.2-.2-.2-.2l1-.2 1 .5-.7-.6.2-.5-.2-.2h.4v-.6h.4c0-.1 1.1.7 1.1.7v-.2l-.2-.3.6-.2-2.5-1.5v-.8l.5-.1v-.6l-.5-.3.5-.4.3.5.5.3-.2-.5-.5-.4.5-.3.4-1-.9-.4h.4l-.2-.2.3-.2-.7-.4v-.2l.7.1-.2-.3.6.2-.5-.4v-.4l-.6-.5h-.4l-.9-.7.2-.5 1.7.6.3-.2.2.3.2-.3h.2c0 .1.3-.6.3-.6l-1.4-1.6-.2.3-1-1.2-.4-.2h.4c0-.1.4.1.4.1l.3-.2.9.4h.3l.3.3 1.2-.5v-.3l-1-.6.3-.3h-.2v-.2h-.3l.2.3v.2c-.1 0-.8.2-.8.2l-.5-1.8-.3-.2-.4.2.2-.4v-.2c-.1 0 .1-.2.1-.2v-.2c-.1 0-.5.2-.5.2v-.4l1.1-.2.3.7.9.5h.6v.3l.7.5h1.3l-.7-.8-.6-.2v-.2c.1 0 0-.2 0-.2h-.2l-.1-.2h.3l-.3-.4h-.4c0-.1.3-.2.3-.2l-.4-.3v-.9l-.2.2-.3-.6v-.7l-.7-.1v-.4h.2l-.5-.4-.2-.5h.6c0 .1-.5-.2-.5-.2l-.6-1h.2l.5.5.3-.5v-.2h-.2v-.3c.1 0 .7.2.7.2l-.5-1.1-.6-.4-.4-.5h.2l-.4-.3v.6c.1 0-.4-.2-.4-.2v-.3l-.4-.1-.2-.3v-.4l-.3-.4h-.2l.2-.1.4.2v-.3l.3.2.3-.2.3.6-.3.4h.4v-.3h.2l-.1-.6h.2v-.5l.2-.2-1.2-.6h.3l-.3-.3h.3v-.4c-.1 0-.3.3-.3.3v-.7c-.1 0 0 0 0 0v-.4c.1 0-.1-.7-.1-.7l-.7-1 .2-.6-.8-.5.4-.6h-.4v.3h-.2l-.2.5-.5-.2-.2-.7h-.2l1-.8.9-1.4 1.9-.7 2.5.2h1.2l5.4 1.7 2.7-2.2 1.8-3h2.6c0-.1 2.4-4.2 2.4-4.2l1.2-.6h.4c0 .1 1.4-4.2 1.4-4.2l3.2 1.6h1.6Z"/><path id="FI-18" d="M262.4 485.3v.5l-.4.2h-.8v.9h-.2l-.4-.5-.2.2-.6-.7h-.3l-.1-.7h-.7l-.2-.1-.2-1h-.3v-.7l-.3-.2 1.6-.2.2.5.9.4.5 1.2.6.2.6-.2.2.2Zm3.3-1.7-.4-.3.2-.3-.4-.3h-.3l-.6-.5-.2.6.6.9v.6h-.4c0 .1.1 1.5.1 1.5l.9-.3.3-.4.2.4h.3l.3-.4-.5-.2v-1.2Zm-7.3 2.3v-.4l-.4-.1v-.2h-.3l-.2-.5.2-.4-.3-.5-.6.5v1.6l.2.7.6.5-.4.4.4.6h.2v.4l.3-.3v-.8h.4v-.4h.3v-.9l-.5-.2Zm11.3-20.2.4.4h.5v-.5h.3l.6.5v.7l.6.7v.7c-.1 0 .2.8.2.8l.5.3-.3.3 1.7.5.5.4.6 1.1v.7l1.2.1v.7l.5-1.3.6-.9v-.6l1-.4h.7c0 .1 1.2 2.7 1.2 2.7l.2.4-1.2-.5-.8-1-1.3.3-.9 1.3v.8h-.8l-.4.4.4.7-.8.5v.8l-.3.2h-.2l-.1.5.2.4h-.3l.3.6v1.5l-.3.1h-.5v-.6h-.3l.4 1.8-.6-.8v-.2h-.4v.5c.1 0-.4-.3-.4-.3l-.4.3.4.6h-.3v.5h-.4l-.5-1.4.2-.5-.4-.2v-.3c.1 0-.6-.7-.6-.7l-.2-.6v.2c-.1 0 .4 1.8.4 1.8h-.2c0 .1.4.5.4.5v.3l-.9-.2v-.4h-.3l-.5-.3-.3-.5v1.1h.5v.2l-.2.6h.4v.6l-.8-.3-.3-.4.2-.3-.2-.3-1.2-.8v-.4l-.4-.5-.3.5-1.8-2.1-.2.3v.9l.8-.1v.8c.1 0 1 .7 1 .7l-.5 1.1.5.3.8 1.3h.4l.2.9-.6.8h-1.3l.3-.5-.4-1.1h-.2c0 .1-.3-.4-.3-.4l-1-.2-.2-.5-.6-.3-.3-1-.6-.5h-.6c0-.1 1 .9 1 .9l.7 1.5v.3l-1.1.7.4.7.4.2v.3h-.4v.5h.4v.2c.1 0 0 .3 0 .3l.5.4v.4l-.6.3h-.3c0 .1-.4-.7-.4-.7v-1.1c-.1 0-1 .2-1 .2l-1.1-1.5h-.3v.2l-1-1-.9.2v-.7h.4v-.3l.9.7.2-.4-.5-.2.3-.4-.3-.4v.2h-.5l-1 1.4h.2l-.1.4h-.3l-.4.6-.2-.7-.9.2-.2-.2v.3l.6.2.2.5-.4 1.1-.5.4-.3.9-.4-.3-.6.2h-1.3l.2-.7h-.3l-.5.2v.3l-2.1.2-.6.3v.5c-.1 0-.6-.2-.6-.2v1.1l-.2.1.2.2-.2.2-.2.2v-.4c-.1 0-.7.1-.7.1l.4.7-1.1-.7h-.6v.6h-.4l-.8.3-.2-.7h.5l-.1-.7h-.3l-.4 1.2-.5.3v.9h-.5l-.2.3-.4-.3v-.3l.1-.7v-.2h-.7l-.6-.9v.3l-.6.2v.3h.5l-.1.9h1.1v.9h-.4v-.3h-.3v-.4l-.8-.2-.2.3-1 .4v.3c-.1 0-.7-.1-.7-.1l-.7.3.6.3.3-.2.2.4h-.5c0 .1-.5 0-.5 0l-.2.3h.2c0 .1-.2.2-.2.2l-.4-1-.3.2-.2-.6h-.4c0-.1.2.7.2.7l-.3.6.5.2.2-.3.2.6-.2.5-2.1 2.1.2.5-.4.3h-.4v.8l-1.3.7v.3h-.5l-.4.6v-.6l.6-.4.2-.6h-.2l.8-1.1h-.4v-.4l-.4.5v-.2c-.1 0-.3.7-.3.7h-.5v-.4h-.5l-.3.6.2.2-.6.2v-.5l.8-.9v-.5l.3-.4h-.1v-.9l-.5-.4h-.2l-.1.5h-.2l.1-.2-.4-.2-.3.4.5.7-.3.2h-.4c0-.1-.3.4-.3.4h-.4c0 .1-.5-.5-.5-.5v.4h-.2v-.5h-.8l-.2.4.6.4.2.5h-1v-.2l-.3-.1v-.3h.3v-.3l-.6.5.2.3h-.2v.3l-.2-.3h-.7l.4.3v.2l-1.2-.2v-.5c-.1 0 .2-.3.2-.3h-.5l-.3.3v.3l-.8.8-1.9-.3 1.4.5v.5l-.3-.2h-.8l.3-.5-.8.3-.7 1.2-.9.3v-.2h.3l-.3-.6-.4.2-.3-.2h-.6l.5.3v.4h-.2c0 .1.1.5.1.5h-.3l-.3-.6h-.2l.6 1.2-.5-.2-.7.5-1.1-.2-.6.3h-.9c0-.1-1.6.4-1.6.4l-.2.3h-.8l-.7-.7.2-.3.7-.4.6.4h.1l-.1-.7 1.6-.9H215l-.2.5-.9.3v-.5c.1 0-.2-.2-.2-.2l-.6.9-.3.9-1.2.7-.2.4-.8.5-.8.3v1c.1 0 .4.1.4.1l-.2.5.3.3h-.6l-.8.5-.3-.3-.3.3h-.7l-.5-.3-.2.4-.5-.2v.3c.1 0-.2-.2-.2-.2l-.8.2-.2-.2-.9.4-.4-.2-.6.5h-.3l.2-.6.4-.2v-.3h.2v-.4h.3v.2c.1 0 .4-.3.4-.3h.4c0 .1.9-.7.9-.7l.8-.2.2-.5h.5v-.2h1.1l.2-.2v-1c-.1 0-.5-.2-.5-.2l.2-.6.6-.2.5-.7-.4-.7-.3.3v.5l.3.1-.2.3h-.5v-.2h.2v-.2l-.4-.3-.3.2v.6l-.4.2-.3-.2.2-1.4.2-.7 1.6-.5.4-.7h-.3l-.5.6-1.6.5-.7.6h-.6l-.1.3.9-.2v.2l-.4 1.2.3.5v.6l-.4.2h-.2c0-.1-.1.2-.1.2v-.5h-.3l-.2-.5h-.4l-.2-.7-.3.9h.3c0-.1.3 0 .3 0l.3.7-.5-.5-.2.4h-.3c0-.1-.3.4-.3.4l-1.1-.3-.7-1.1.3-.4-.3-.3-.5-.2-.2-.6h-.2l-.1-1.5.7-.2v.3h-.1v.3c.1 0 0 0 0 0v.6h.4l-.2.3h.3v.7l.5-.5h.4l.2.3v-.8h.9v.5h.3l.3.4.5-.4v-.3l.3-.2v-.5l-.3-.1v-.5l-.4-.6.2-.3.6-.3 1.7.5.2-.3.8-.3v-.4c.1 0 .4-.1.4-.1l1.1.2-.5.8.2.2.3-.7.6-.3h-.6l-.1-.3h-1.6l-.9.6.2.3v.3c-.1 0-.6-.3-.6-.3l-.4.2-.2-.3.4-.2h-.4v-.4l-.3-.2-.3.4h-.3l-.2-.3v-.6h.6v-.2l-.4-.2.5-.2.6.5.3-.3 1.6-.2 1-.9v-.4h.4l1.3-.8v-.9l.6-.5h.4l-.2.6 1 .9.3-.7h.7l1-.2 1.7-1.2h.7l.5.4.7-.4-.3-1.3h.2c0-.1-1.2-1-1.2-1l.2-.2h.4v-.3l.2.4v-.9h.4l.6-.8.3.4.8-.6v-1.2c.1 0 0-1.3 0-1.3h.4l.6-.7h.3l.1-1.8-.2-.8h-1.8l.8-1.7 1.6-.2h.4c0 .1.5-.4.5-.4v-.6l-.3-.4.3-.4-.4-.7h.9v-.7l.6-1.2v-.2l-1-.5.7-1.3.4-.2 1 .7 1.4-.3.9.7 1 .2.9-.2 1.2.4v.7l1 1.4.4-.2-.2-.6 1.1-1.1 1.2.8-.2.6.5 1.1 2.5-.3.6-1.1-.3-.6V471l1-1.3 1.6.7h1l.5-.4.6.2.3-.7.5.2v.3h1.2v-.2h.5l.3-.4 2-.5.5.7 1 .3-.5-1.5 2.2-1.1-.9-.3-.5-.6-1.1 1.3-.2-.5.6-1.5 1.3-.3v-.4l-1-1.2v-.3h1.6v-.8l.4-.2.3 1.5 1.3 1.1.3 1.1.4-.4 1.2.3 1.1-1.8h.8c0 .1.8 2.1.8 2.1l.2 1v.7c-.1 0 1.7 1.3 1.7 1.3v-.3h.7v-.5h.6l.9-1.1.5.4h.6l1.1-.3.5-.7 1.1-.2.4 1.2 1.9-.4 1.6 1.2.7-.2 1.5-1.1.2-.5-.2-1.2Z"/><path id="FI-19" d="M192.2 498.1v.4l-.5.7-.3-.7v-.5h.7v-.2l.1.2Zm1.2-.5v1.9c-.1 0-.5.3-.5.3l-.3-1.1.7-1.4v.3Zm1.9-.5.7.2v.4l-1 .5-.2-1 .4-.2Zm1.9-.1.5.7h-.1c0 .1.2.4.2.4h-.2c0 .1-.7-.3-.7-.3v-.5zm6-3.2h.4l-.4.4v.7l-.7.5.3.2-.4.3.2.4-.6.2v-1.6c-.1 0 .3.1.3.1l.3-.2v-.2l-.9-.1.8-.6h.4v-.2h.2Zm.2-2.2.8.2-.2.4h.2v.8l-.3.3-.6-.3-.3.4h-.5l-.1-.2-.9.2.2-.3h.4v-.5l.4-.8.8-.2Zm-19.3-.3h.7l.3.4-1 .4h-.6v-.4h-.4v-.4l1-.4zm-7.4-2.3.9.4h.8v.9l-.5.4h-.5v.3h.2c0-.1.1 0 .1 0l.2.8-.5.3-1.3.2h-1.3v-.4l-.4-.3.3-.5v-.2c-.1 0 0-.5 0-.5l.6-.3h-.2c0-.1.6-.8.6-.8l.8-.2Zm15.8-.9v.5l-.2.1v.3c.1 0-.2.7-.2.7h-.3l-.2.2v.7h-.8l-.2.2v-.3l.1-.3-.2-.3.4-1h.3l.8-.6h.5Zm-5.7-.5v.9l-.5.4h-.8l.7.4v.6h-.5l.3.3-1.2.4-.2-.4v-.3c.1 0-.2-.1-.2-.1v.2c.1 0-.1.5-.1.5l-.7-.7.2-.4h.3l-.1-.7 1-.4.3.2.6-.8 1-.3h.1Zm-9.4-1.3-.3.3v.3c.1 0-.5.1-.5.1l.2.5h-.6c0-.1-.4.2-.4.2l.2-1.4zm13.5-.7v.6l.4.8-1 1.5-.9.2-.2.2-.2-.3h-.3l.2-.3h-.3l.4-.5.4-1.2-.3.2h-.8l-.1.3-.5.2v-.2h-.7l.4-.4h.9l.3-.2h.8c0 .1.7-.6.7-.6zm3.1-1.5v.4c.1 0-.3.2-.3.2v.4l-.5.6v.8l-1.9.5-.4-1.2 1-.6v-.6c.1 0 2.1-.5 2.1-.5m-10.7-.2h.7l.5.2-.3.3v.5h-.4v.3h-.8l-.6-.4v-.6c.1 0-.2-.2-.2-.2h1.2Zm20.8 0 .4.5-.9 1.7-.8.9v.7l-.7.2-.2.8.3.5-.7.3v.2l.5.2-.2.2.4.4-.2.4.5.2-.5.4-.3 1.3-1.4.8.2 1.2h-.2v-.1l-.2.3.7.2v.8c-.1 0-.5.2-.5.2v-.4c-.1 0-.4.3-.4.3h-.3l-.7.3-.4-1.1.2-.4-.3-.3-.3 1.2h-.7c0 .1 0 0 0 0l-.3-.3-.4.3-.4-.4h-.4l-1.4.9-.3-.2v.4l-.2.2-.4-.3v-.3h.2l-.2-.8h-.2v.4l-.4.5-.2-.2v-.7h-.2l.2 1.1-.3.2-.3-.9.2-.6-.4-.9V493h.5l.4-.7h.2l.2.5h.2c0-.1.3 0 .3 0v.4l.2.1v.4c-.1 0 .2-.1.2-.1v-.3l-.2-.3.4-.6-.8-.2-.3-.5h-.2v-.5h.7l1.8-1-1.2.2-.8-.3c0-.1-.8.2-.8.2v-.9l.9-.9v-.8c-.1 0 .1-.6.1-.6h.3c0-.1.5.3.5.3l-.3.3v.2l-.4.4h1.2l.3.2.3-.3h.7v-.4l.4-.4 3-.2.3-.2.3.2 1.1-.3.4-.3v-.6l.3-.2-.2-.2.2-.3.2.3.2-.3v-.9l.5-.4h.8Zm-14.3-.8.6.2.3.5v-.3h.3v-.2l.9.3-.3.9.2.2-.7.3v-.3c.1 0-.4-.3-.4-.3v.4l-.7.8h-.9l.4.5v.2c-.1 0-1.2-.2-1.2-.2l-1.1.3-.5-.2.3-.7v.3c.1 0 .9-.1.9-.1h.1c0 .1.2 0 .2 0l.6.2v-.3l.2-.3h-.3l-.1.3-.8.2v-.2c.1 0-.5-.1-.5-.1l-.2-.4-.3.3-.4-.5v-.6h.3v-.3l.3-.3-.3-.4 1.8-.3h.6c0 .1.2.3.2.3l.2-.3h.3Zm-4.8-.1.5.5-.3.6h-.4l-1.8-.5h.7v-.3l.6-.3h.6Zm-7.2-1.2.7.2v.4h.4v.3l-1.2-.2v-.3c.1 0-.3-.4-.3-.4zm15.4-.2-.3.5h.2v.4h.6l.3.3h.8l.3-.2v.2c.1 0-1.4 1.5-1.4 1.5l-1.6.3v-.9l-1.3-.3v-.2l.3-.7h.5l-.2-.5h.3l1.5-.5v.2Zm-2.6-.3.2.7-.6.3-1.9.5-.4-.2.2-.4-.4.2v-.2l.9-.5 2.1-.4Zm3.7-1.3v.3l-.5.8-1.3.2-.8.4h-.8v-.6l.2-.2 3.1-1Zm-5-.9v.3l.5.3.3.8h.2v.3l-.7-.4v.4l-.4.2h-.5c0-.1-.6 0-.6 0l-.5-.8v-.3l.9-.5.2-.3h.5Zm-8.6-.7.6.5-.2.5h-.8v-.4h.6l-.6-.5v-.3h.4Zm-3.3-.3.2 1.2-.4-.2v.6c.1 0-.4.5-.4.5v-1.3l.6-.9Zm5.8-1.2 1.1.4.2.4h.2c0-.1.6.3.6.3l.2.3v.4h.4l.3-.2v.8l-.6.2v-.2c-.1 0-.3.2-.3.2h-.5l-.2-.7-.8-.3v-.5c-.1 0-.5-.2-.5-.2h.2v-.9Zm-1.5-.2 1 .5.8 1.7h.3v.5l.4.2v.6l-.3.7h1.2c0 .1-.1.4-.1.4l.5.2-.2.4h.4v.3l-.5.2v.2l-2.2-.1-.3-.3h-.4l-1.1-.2v-.4h.9l-1.6-.9v-.3c-.1 0 .5-.5.5-.5h-.6v-.2h.6l.3-.8-.5-.3v-.4c-.1 0 0-1.4 0-1.4h.4v-.2h.3Zm-1.9-2.7.4.4v-.3l.3.2.2.4v.4l-.5.4v.3h-.2v.2c.1 0-.3.1-.3.1l-.4.5.2.8h-.3l-.3.7-.4-.6.3-.5v-.4l-.3-.1.3-.5-.2-.4.3-.5h.4l.5-1.2Zm-4.3.2.3.9h-.3c0 .1-.4-.7-.4-.7v-.4l.4.1Zm-6.3-1.5.5.2.2.4.6.3.2.5h.2l.1 1.3.4.2v.6h.4v.3h-.7v.2l-.7-.1-.3-.2.3-.2h-.4v-.2h.2v-.2l-.6.3h-.2v-.8h.8l.2-.2-.3-.7-.6-.2h.1c0-.1-.4-.8-.4-.8v-.6Zm2.9-.4h.4c0 .1.1.6.1.6l.3.2v.9l.7.2v-.4h.3v.5h.3v-.3l.4.2.4.5v.3h.2v.2h-.4v-.3l-.8-.2v.9l.5.8-.6.7-.7-.3v-.7l-.6-.2-.3-.4v-.6l-.4.2-.8-.7.3-1.4v.2l.4-.3.2-.3v-.3c-.1 0 0 0 0 0Zm-3.5-.7v.4h.4l.2.3-.3.2.2.2v.3l-.5-.8-.5-.4h-.3c0 .1 0 0 0 0h.3l.3.2v-.3h.2Zm.3-.6.4.4-.2.5-.4-.5h.2c0-.1-.1-.4-.1-.4Zm1.1-1.7h.4v.3l.3-.2h.3v.6h-.2c0-.1-.2.4-.2.4h.2c0-.1.4.3.4.3h.1c0-.1.4.4.4.4h-.3v.4h.4v.4l.3.2v.6l-1.1-1.5v.6l.3.7-.2.4-.6-.3v-.2c.1 0-.2-.8-.2-.8l-.4.3-.4-.4.2-.3-.4-.5v-.6h.1v-.3l.3-.2v.3c.1 0 .5-.2.5-.2l.2-.4-.6-.2h.3Zm1.4-4 .7.7-.3.4-.7-.8v-.2h.4Zm-3.9-1.6.6.7v.3l-.7-.2-.2-.6.2-.4v.2Zm2.6-.4.3.2-.3.3-.3-.2h-.4c0 .1.6-.5.6-.5v.2Zm-.3-1.7.3 1.3-.4.3v-.4h-.3l.2.4-.4.4v-.3c-.1 0 0-.2 0-.2l-.3-.6h.3l-.4-.1v-.2l.2-.1.3.3.2-.6Zm-1.1-1.5.3.4.2-.3h.9l-.3.3v.3l-.5.3-.3 1h-.4l-.5-.8.7-.2v-.3h-.3v.2l-.4-.1v.2l-.1-.6v-.3c.1 0 .7-.2.7-.2Zm4.3-6.4.2.9 1.2 1.1 1.5-.3h.8v-1l.2-.7.9 2.3.7-.4.4.3.4-.2.6-.5-.3-.5.5-.3h1l-.4.6.8.5.8 1h.4c0-.1.4.2.4.2h.5v1.4l1 1.4-.2.4.3.2.2-.2h2.3c0-.1.6 1.1.6 1.1h.2c0-.1.4-.9.4-.9l.5.2v-.2l-.5-.3.9-.8.6-.2 1.1.5.9-.7 3.2-.7 1.3.5-1.2-1.5 1.1-.6 2.4.2.3.2 1.6-.8.4.2.3-.9-.4-1.1h.4v-.4l.3-.5-.4-.7.2-.9.9.7.3 1.1.7.3h.3c0-.1.2.4.2.4h.7l.9.9.8-.4h1.9l.4 1.1.7.2 1.1 1.6.8.4v.5l.1.2-.2.8h-.7c0-.1.3 1.1.3 1.1h-2.2c0-.1-.4.2-.4.2v1.9l1.8.6-.6.4-.9 1.7.3.4 1.5 1.3.6.8v-.5c.1 0 1.2.3 1.2.3l2.2-1.2h.9l.3.1v.7l.5.4.3.6.6.3h1l1.2.5v.5c-.1 0 0 .5 0 .5l.6-.2.6.5 1.3-.2 1.7.3-.7 1.3 1 .5v.2l-.6 1.2v.6h-.9l.4.8-.3.4.3.4v.6l-.5.6h-.4c0-.1-1.6 0-1.6 0l-.8 1.6h1.8l.2.9v1.7h-.4l-.6.6h-.4l.2 1.4v1.2c-.1 0-.9.6-.9.6l-.3-.4-.6.8h-.3v.9l-.2-.4v.4h-.4l-.2.2 1.2.8h-.2c0 .1.3 1.4.3 1.4l-.7.4-.5-.3h-.7l-1.7 1.1-1 .3h-.7l-.3.6-1-.9.2-.6h-.4l-.5.5v.9l-1.4.8h-.4v.5l-1 .9-1.6.2-.3.3-.6-.5.2-.2v-.7c-.1 0-.4-.1-.4-.1l-.5.6h-.4l.3-.3-.4-.3.4-.2-1.7-.6v-.3l-.5-.3v-.7l.3-.2-.4-.9.9-1.4.7-.5v-.7l.5-.2v-.6h.8l.8-1.8v-.7c.1 0 .9-.8.9-.8l-.4-.3-.5.4.2.3-.7.6v.5l-.4.3-.3-.3-.9.6-1.3.4-.5 1-1.3 1.1-1.4.5h-.9l-1.3.3-.9.9h-1c0 .1.2-.5.2-.5h.6l-.1-.3.8-.4-.6-.6v-.4h-.7v.3c.1 0 0 .2 0 .2h-.4v.2h-.3l-.1-.2h-.3c0 .1-.4-.3-.4-.3h.4v-.7l1.9-2.2-.2-.4v-.3c.1 0 .4.1.4.1l.5-.4v-.6l.9-1.3h-.3l-.9 1.2-.6-.3-.3.2h-.9l-.5-.3.6-1.2-2.3 1-1.9.5h-.2v-1h-.3l-.5-.6h-.2l-.6-.9-1.7.2-.2-.2v-.5c.1 0-.5.5-.5.5l-.6-.5h-.8c0-.1-.2-1-.2-1h.3l-.1-.4h-.7l-.1-.3.3-.7-.4.4-.5-.2.3-.4-.2-.5.2-.3-.4.2-.5-.2.2-.5-.6-.2-.2 1h-.2l.1-.7h-.4v.1l.3.8v.8h.3v.4l.3.2-.3.4-.5-.5-.8-.3-.2.5c0-.1-.3 0-.3 0v-.2c-.1 0-.6.2-.6.2v.6h-.2v-.2c.1 0-.3-.1-.3-.1v-.5l.4-.2v-.3h.8v-.6l.2-.3v-.5l.2-.3-.3-.6h.3l-.3-.4v-.4h.3v-.5c-.1 0 .3-.1.3-.1l-.3-.4v-.3h.4v-.7l.2-.7-1.3 1.2-.5.9-.6.2-.2-.2-.7.6h-.2c0-.1.2 1.2.2 1.2v.4c-.1 0-.4.1-.4.1v.9c-.1 0-.7.7-.7.7l-.9.4-.2-.5.3-.6h.3l-.2-.7-.6-.5-.2-.7-1.6-.7h-.4v-.2l-.7-.7h.3v-.4h-.2v-1c.1 0 .3.4.3.4l.3-.2-.2-.3h.2v-.4h-.8l-1.5-1.5.4-.4v-.3h-.3l.2-.6h1.1l.3.5h.9l-.3-.4h.2v-.2l-.7-.8.8-.2h-.5c0-.1-.1-.4-.1-.4l-.8-.5v-.3c-.1 0 .3-.5.3-.5l-.7-.5.4-.3v-.5l-.3-.1-.2.2v-.2c-.1 0-.3.2-.3.2v-1.1c.1 0 0 .2 0 .2l-.3-.2.4-.6-1.1-.4.7-.2v-.5h1.1l.5.4v-.3h.4v-.4h-.8l-.3-.9-.6-.5.8 1.5h-.3c0-.1-.7.2-.7.2l-1.5-.5v.2h.5v.2l-.8.1h-.6c0-.1-.1-.3-.1-.3h.2c0-.1-.4-.3-.4-.3l.4-.2-.2-.2h.4l.3-.4.7.4v-.4h.7l-.5-.8h.4l.1-.5-1.6-1h.3v-.4h.4v-.3l.4-.2 1 1.4v.5h.3l.3.5.2-.2.3.6-.2.3-.5-.2-.2.3h.7l.2-.1.6.8v-.4c.1 0-.2-.7-.2-.7l.2-.5-.2-.4-.5-.2v-.4l-.7-.9-.2-.8h-.4c0-.1.3-.6.3-.6l-.7-.5.5-.7h-.5l-.3-.2-.2-1.2h.5l.2.4 1.2.6.5.6Z"/></g></svg>