<svg xmlns="http://www.w3.org/2000/svg" xmlns:amcharts="http://amcharts.com/ammap" id="Layer_1" viewBox="0 0 512 512"><g id="_x3C_defs"><amcharts:ammap bottomLatitude="41.363" leftLongitude="-4.778" projection="mercator" rightLongitude="9.56" topLatitude="51.09"/></g><g><path id="FR-A" d="m408.6 186.7 2.9-1.4-.8-2.1 1.6-5.6 4.6-5.6-.6-1.8 4.8-8.5-.7-1.5-3.6-.7 1.4-6.3-.9-1.5 1.5.3-2.4-1.4 5.3-1.4 3-5.6-2.1-1.7 2.5-3.9-1.9-2.9-3.7-1.2-2.6 3.2-.9-3.1 1.5-1-4.8-1.6-.4-2.1 3-1.2 2.3-6.3 1 3.7 5.8 1.7 1.1 1.6 4.3-1.3 2.9 1.9 3.4-6.3 5.4-.6 2.5 1.7 2.3-1.3 10.3 4.8-4.9 8.5-4 2.3-4.6 6-3.7 12.8.4 3.5-1.8 1.3-4 9.3-.2 4.4 1.8 3.2-2.3 4.7-.3 7.4-1.2 1.9 2.5 6.2-2.9 1.8 1.1.6-1.4 2.3-2-.7.8 1.2-2.4 2-4.9.5-2.5-1.1 1.1-2.5-2.4-.5-1.6-4.6-2.8-.5 1.1-6.1-5.9-3-1-2Z"/><path id="FR-B" d="m195.5 292.2 5 2.1-.8 2.4 2.1 2.1 2-2.3 1 1.1 4.2-.5 2.3 3.9 2.8.3-1.6 2.4 5.9 2.1-1.3 1.5 2.3 1.1-3 2.8-.3 2.4 1.7.9-1.7 2.4 2.1.8-1.2 1.1 1.8 1.6 3.6.4-1.2 1 2.4 4.1-1.3.7 1.1 6.1-4.9 4 .6 2.7-5.7 3.4-1.5 4.6-4.2 1.4 2.7 8.5-4.1 1-1.6-1.7-.9 3.4 2.8 1.7-1.5 4-1.8.3 1.4 2.2-3.6-.3.3 1.5-4.6 4.1-2.4-2.7-10 4.3-2.4-1.5-2.6 2.3-1-1.4-2.4 1.9v3.1c.1 0-2.6-1.6-2.6-1.6l1-1.2-1.5-1.4-2 2.7-2.9-.5-2.1 2 1.8 1.4-.2 2.8h-1.1l1.1 3.4-1.9 1.4-1 4.2 1.4 1.7h4.9l2.7 5.2-1.6.4v2.5l2.2-1.6 1 4.7-2.6 2.1 1 1.5-1.9 2.2.2 2.2h-1.7c0-.1-2.6 2.9-2.6 2.9l.4 2.9-3.7 2.2-.9 7.3-2.8 2.4-3.8-1.3-1.6 2.3-6.2-5.5-.8-3.3-6.5.7-5.9-3.3-1 .8-5.7-2.8 1.3-2.3-2.5 1.1-.3 3.1-3-.8-1.1-2 3.1-4.7-.2-3.2-5-1.7-2.5 2-.5-2.6-3.6.5-2-2.6v-1.1l4.1-.7 2.3-2.1 5.3-10.1 5.1-26.7 1.4-15.9 2.2-5.5 6.5 1.1-2.2-2.9h1.2l-4.6-3.8-2.7 7.7-.5-.9 3.6-40.9 2.1-3.9 1.1-.8-.2 3 9 8.1 3.9 13.2 3.3 3.2-2.5-5.8-1.6-9.6 4.1.3.3-1.3.8 2.4 4.8.9 1.5 6.6.7-1.3 5.9 3.7 3.5-1.3 1.5 1.1 1.8-5 1.6-1.2 2.7 1 4.5-4.4-.6-3.5 1.9-4.4 1 .8 3.5-2.1 2.5-3.2.2-4h1.9l2.2-3.8Zm-24.4 112.4-1.2 2 1.4.9-.2-3Zm-1.4 6.1 1.4-1-1.2-2.2-.3 3.2Z"/><path id="FR-C" d="m252.2 257.2 2.8-4.8h6c0-.1 2.7-1.8 2.7-1.8l-1.5-5.3h2l-.1-1.6 3.1-2.7 1.6 1.4 2.9-.4 2.6-3.4h3.8l5.8 5.8 2.4-2 2.7 1.6 2.5-1.5 1.2 3.1 3.6-1.9 1-3.6 1.2.3 3.8 7.6.2 3.2 3.3.4 1 2.2 2.8-.2 1.7 1.5.2 6.7-3.6 2.6-4.5 1.8 2.2 11.9-4.4 1.5-.3 1.9 2.1 2.2-2.2 4.7 10.2 14.4-.7 2.9-2.5 2 .5 3 1.5-2 2.4 2.3v-1l1.8.7 2.5-2.3 3-.3 4.6 2.6-1.2.9 1.3.8-.7 1.3h3l1.9 2.5-1.1 5.1-2.9-1.2.9 1.9-1.8 1.4 1.1 1.9-2.9.8.6 2.2-3.1.5-2.3 4.4h-4.2l-.2 1.9-2.7.3-.9 2.8-2.1 1.2-4.1-4.5-2.6.5-1.3-2.5-1.2.3-.2 2.4-3.8.8-3.7-8-2.9 2.3-1.5-.4-1.7 3.5-2.1-2-5.1 12.5-4.2-11.1-3 .9-1.2-4.1-4.5 4.6-1.5 6.1-2.6 3.3-4.5.5-2-1.3-2.7.9-.4 1.6-2.6-3.8 1.4-4.4-2.8-4.1-1-4.9 2.8-1.2-1.5-2.8 2.6-1.1.2-2.7 1.8-1.4-1.3-2.7 5.7-5.6-.4-3.7 4.5 2 1.6-1.1-1.4-1.3 1-6.6-1.9-2 2.1-2.3v-3.3l-4.6-5.6 5.8-4.3.3-2.1 1.6-.8-.3-3.1-4.1-12.1-6.2-3.1 1.1-1.4-1.6-.5-.2-1.9Z"/><path id="FR-D" d="m278.5 159.1-1.1 2.8 1.1 2.8-3.8 4.4 3.2 1.5.7 3.1 2.6 2.2v2.9c.1 0-4 3.4-4 3.4l.6 6.1-6 1.5v2.1c-.1 0 2.6 1.8 2.6 1.8l1.7 5.7-4.4 1.6 2.8 5.1-2.2 5 3.9 3.9 1.2 9.9 2.1 2-1.6 11.5 5.8 5.9 2.4-2 2.7 1.6 2.5-1.5 1.2 3.1 3.6-1.9 1-3.6 1.2.3 3.8 7.6.2 3.2 3.3.4 1 2.2 2.8-.2 1.7 1.5.2 6.7-3.6 2.6-.3 3 2.8.6.6 1.7 7.5-1.2 2.3 1.9 3.3-1.5 1.1-5.4 3.4 1.4 2.2-1.3 1.7 1.4 2.1-2 2.7 6.6 6.3-17.2 4 1.7 3.8-1.7 2.3 3 2.7.6 3.5-1.5-2-4.2 2.9-3.8-2.8-4.6 1.1-2-2.2-2.2 4.8-1.3-2.3-2.6-2.4.2-1.2-2.6-1 .5-.3-2.5 2.2-1.7-1.2-1.8 3.5-1.7 1.9-3.1 2.7-8-1.7-.7.5-3.9h-1.8l.2-2.9-2.5-.7 4.5-4.6-1.9-3.8-2.4 1.3-2.2-.2-1.9 1.7.3-2.3-2.9-1.5.2-1.4-2.1 1.7-3.1-3.3-2.1 1.2-.3-3.9-1.5-.3 2.6-2.1-3.1-5.8-2.5.6 1.2-1.6-2.8-1.1.3-2.2-7.4-1.2-1.5 1.2.6 2-8.2.3-.7 1.9-1.7-.3-.6-2.1-.8 1.6-1.2-.9-2 1.7-1.7-1-.5 1.1-5.1-.2.6-2.6-.6-1.1-1.5 1 .7-1.6-2.8-5.3-1.8-.8.3-1.7-2.8 1.3-1.3-2.6-1.8.3 1.4-4.3-4-5-2.6.4-.5-1.6-12.6 1.6Z"/><path id="FR-E" d="m62.4 208.7 6.4 3.7-.5 1.4-5.6-.8zm.8-75.9.2 1.8 4.6-1.9v2.5l2.5-.2-1.1 2.2 3.9 1.3-.6 1.8 4.4 3.7-.2 2.8 3.7 2-.9 1.6 1-.4 1.3 2.3-.3-2.3 1.9.5 2.5-4 2.8-1.2-.5-1.2 1.8-.4.6 1.2 3.5-3.1 1.2 1.1-1.8 2.5 3.2-1.3.7 4.9 1-3.1.6 1.8 1-2.2.9.9-.9-1.7 3.6-.3 2.6 4.9-.4 2.5 1.6-1.3-1.7-3.3 1.3.7-.5-1.1-2.5-2.2 1.4-2.5 5.1-1.5-.9 3.8 3.1 1.8 7.1-1.6 2.9 7.5 2.3 1.5 2.3-.4 3.4-3.9 6.3 1.8.9 9.3-1.9 3.2 2.9 13.5-4.8 2-3.1 9.6-8-3 .2 1.6-5.1 2-1.3 2.7h-6.9l-3.3 1.9-.6-1.1-3.7 2.2-.6 5.9-2 .6-.2 1.6-4.6-1.3-.6 2.8-3.6-.8-1.2 1.5h-1.3l-.2-2.2 2.1-.3-2.4-1.3-10.5 1.9-7.2-5.4.2 1.3h-3.5c0-.1-.2 2.7-.2 2.7l1.7 2.3-1.8-.2-.6-6.2-4.7-4.6h-2.6l-.2-1.3-3 .8-2.5-3.5-6.9-2.1-4.4.7-3.1-5.7-1.5 1 .5 1.5h-5.9c0-.1-1.5 3-1.5 3h-6l.3-4.7-2.2-3.8-3.1-2.2-7.8-1.7.8-1.3 10.2-2.2 3.8.9 1.3-2.1-1.7-3.8-5.1-1.8-3.3 3.5.5-4-2.7-.3-.2-1.3h2v-2.6l1.3-.5v2.9c-.1 0 1.1-1.4 1.1-1.4v1.6c-.1 0 1.6-.8 1.6-.8l1.8 1.1 3.1-1.2 1.6.9 1.3-1.7h-4l1.2-.9-.5-1.6-1.9 1.9h-2.9l2-2.9-.8-.6-6.3 3-2.5-.9-3.2 1.3v-9.6c-.1 0 1.5-2.1 1.5-2.1l4.1-1.1 2.3-3.1h4.8l-1.2-.9 3.1-1.2 1.7.7v1.6l3.5-.9-.9-.4L30 142l4.4.5 1.8-2.7h1.3v2.8l1.4.6.2-1.9v1.3l2.7.7.8-3.1 6.2 1.2-.5 1.9 1.2-1.4 1.4.8 1.1-3.9-1.3-3.2 1.1.8 1.7-2.5 3.6 2 6-3.5Z"/><path id="FR-F" d="m225.5 129 3.3 5.3v9.1c.1 0 6.5 5.8 6.5 5.8l.5 4.5 2.3 1.4 2.1-.9v2.6l1.6.2.4 2-.5 3.9 6.6-.5 1.4-2.3 1.4 2.3 2.8-1.8 2.6.9.7 2.9 3.2 1.7v3l-2.5 2.2h9l1.7-1.1-.6-1.1h2.2l.7 1.9 4-1.7 3.2 1.5.7 3.1 2.6 2.2v2.9c.1 0-4 3.4-4 3.4l.6 6.1-6 1.5v2.1c-.1 0 2.6 1.8 2.6 1.8l1.7 5.7-4.4 1.6 2.8 5.1-2.2 5 3.9 3.9 1.2 9.9 2.1 2-1.6 11.5h-3.8l-2.6 3.5-2.9.4-1.6-1.4-3.1 2.7v1.6h-1.9l1.5 5.3-2.7 1.7h-6c0 .1-2.8 4.9-2.8 4.9l-6.6.5-3.8-1.6-4.8.9-1.9-1.5-1.9 3.3-1.5-1.4-2 1.5-.7-1.7-2.2 1.4-.7-1.7-3.8 4-2.1-2.7-1.7 1.4-4.3-.7 1.2-2.4-2.1-.7-.2-2.9-8-4.7V242l-7.1-8.8-.4-3.5-4.3-1.6 1.1 2.5-9.4 1.3-.7-6.1-4.3-.4v-2.8c.1 0-3.4-.2-3.4-.2l-.9-2.3.8-5.9 3.6-5.1-1-.9 2.4-5.1-.9-2 1.3-3.3 5.2 1.8v-3.7l2.2 1.2 5-2.7.8-1.1-1.1-1.3 4-2.5 2.3-3.3-.3-3.5 1.7.6 1.3-2.6-.2-4.6-1.5-.4V174c-.1 0 1.6-.1 1.6-.1l-1-1.4 1.3-1.7 2.2-.3-4.1-2.8 1.1-1-2.1-5.6 4.9-2.6 2.1-3.5-1.4-1.9 1.1-2.4-5.1-4.6v-3h-.1l2.1-2.4 4.6-.5 1.8-1.7 1.8.6.2-2.2 7.2 1.5 1.4-1-.4-2.8 3.4-2-.4-2.7 1.8-.9Z"/><path id="FR-G" d="m339.9 64.9 2.1.9-2.6 3.8.7 1.4-1.8 3.7 3.4 3.2-1.4 2.3.2 3.9 4.9-.4 3.4 2 2.5 3.7h3.6c0-.1 2.1 2.1 2.1 2.1l-.6 2.3 2.8-.3-4.6 3.9-5.1-2.7-1.8 4.8 1.8 2.2-1.2 2.9.8 1.3-1.6.6v4.9c-.1 0-3.5 1.9-3.5 1.9l1.4 1.5-1.8 1.3 2.2 6.1-1.3 2.5h2.4c0-.1-1.4 2-1.4 2l1.5.5-3.6 3.1v3.8c.1 0-1.5 2.3-1.5 2.3l4.1 2.9-.4 6.6 2-.9.5 1.9h1.6l3.2 3.5 4 1 4.8 4.5-2.6 1.6 1.7.6-.5 2.5 3.4-.9 2.2 3.8.8-.9 1.4 1.2-.4 1.3 3 2.3-1.7 1-.3 3.6-1.5 1.2 5.1 2.7.4 4.1 2-1.2 1.3 2.5-2 3.8-2.3-.4-.7 2h-1.7v6.9l-3.2.6-1-1.8-1.4 1.8h-4l-1.3 3.5-2.2-.2-1.9 1.7.3-2.3-2.9-1.5.2-1.4-2.1 1.7-3.1-3.3-2.1 1.2-.3-3.9-1.5-.3 2.6-2.1-1.3-3-1.7-2.8-2.5.6 1.2-1.6-2.8-1.1.3-2.2-3.2-.9-4.2-.3-1.5 1.2.6 2-8.2.3-.7 1.9-1.7-.3-.6-2.1-.8 1.6-1.2-.9-2 1.7-1.7-1-.5 1.1-5.1-.2.6-2.6-.6-1.1-1.5 1 .7-1.6-2.8-5.3-1.8-.8.3-1.7-2.8 1.3-1.3-2.6-1.8.3 1.4-4.3-4-5-2.6.4-.5-1.6-1.1-4.6 1.9-.6-1.1-1.9 2.6-.7-.6-1.5 3.3-2.4-.9-1.5-2.9.6.6-5.3-2.5-1.1 1.7-1.7-1.4-1 2.9-.3v-2l6.6-8.4-.9-1.5-2.2.3 1.8-2.1-1.3-2.2.7-1.6 4.3-.4-3.2-2.8-.3-5.3 4.6-2.2 2.5.6v-1.9c.1 0 2.5-1.4 2.5-1.4l3.9 2.4 1.4-11.1-1.9-2.7 3.1-.6.4-2.4 4.2-4.2-1.5-1.2 1.6-4.7-.7-4.8 2.7-.6 4.7 1.7 8.5-3.1.3-5.3 4.6-3.1Z"/><path id="FR-H" d="m475.2 487 1-2.2 3.8-2.1-4.6-.6-.2-1.9h-4l2.5-1.6-.6-1.2 2.1-.4-.7-1.5 1.8-2.3-1.9-1.7-4.8 1.8-.5-3.3 1.9-.2.4-2 3-1.7-1.6-2.9-1.4.5-3.5-2.1 1.2-1-1.8-3.2 5.3-1.4-3.1-1.8.4-2-2.1.7-.3-1.9 3.8-1.9.9-2.5-1.1-.4 2.5-2.2.2-2.8 2.2 1.4.5-2.3 7.3-1.8 3.8-4.2 3.3-.2 2.6 2.7 1.6-2.8-1.2-4.5 1.8-4.2-.7-3.3 2.9-.8 1.4 1.2 1 8.4-1.6 6.1 3 5.9.9 16.3-.3 4.2-4.7 6.9-.9 14.1-3.7 2.2.3 1 1.1-1.4 1.8.5-3.3 2.9.2 3-2.4 2.3h1.7l-2.7 2.2-3-1.4.9-2-1.7-.3.3-1.7-1.4 1.1-1.4-1.5h-2.7l-2.7-1.3.4-1.3-2.3-.4-.4-1.7Z"/><path id="FR-I" d="m376 181.4 1.7-2.6.6 2.1 3.1-3.5 3.3-.8 2.4 4.5 6.4-1.5 3.1 3.8 4.3-3.1 8 6.3 1 2 5.9 3-1.1 6.1 2.8.5 1.6 4.6-5.1.5.6 2.1-2.1 1.1-2.1 4.1 4.7-1 1.3 2-3.9 2.4.4 2.2-8.7 8.1.6 1.6-9.9 6.2 1.1 2-.4 5.7-11.7 9.9 1.6 1.6-3.2 6.4-6.7 7.5-5 .2-.4-2.4-2.4-1.8-3.6 3.8-2.2.2v-2.5l-1.7-1.6-.7 1.9-.9-3.6-2.7-1.5.5-1.6 3.5-1.5-2-4.2 2.9-3.8-2.8-4.6 1.1-2-2.2-2.2 4.8-1.3-2.3-2.6-2.4.2-1.2-2.6-1 .5-.3-2.5 2.2-1.7-1.2-1.8 3.5-1.7 1.9-3.1 2.7-8-1.7-.7.5-3.9h-1.8l.2-2.9-2.5-.7 4.5-4.6-1.9-3.8-2.4 1.3 1.3-3.5h4l1.4-1.7 1 1.8 3.2-.6v-6.9h1.7l.7-2 2.3.4 2-3.8Z"/><path id="FR-J" d="m232.4 113.8 1.7 2.9 4.4.7 6.8-2.5 3.1 2.4 1.6-.8.5 1.5 2.8-1.8 6.1 4.2 2.1-1 1.1 2.3 1.7-1.5 3.5 2.5 2.5-1.9 1.5 1.4 4-1.1.6 1.1 2.7-.7v-1.7c.1 0 2.5.6 2.5.6l1.8 2.9-.8 2 3.3 3.8 1.4-.5.8 2.1 1.3-1.1.5 2.9 2.7 1.8.8-.8v2l-2.8.3 1.4 1-1.7 1.7 2.5 1.1-.6 5.3 2.9-.6.9 1.5-3.3 2.4.6 1.5-2.6.7 1.1 1.9-1.9.6 1.1 4.6-12.6 1.6-1.1 2.8 1.1 2.8-3.8 4.4-4 1.7-.7-2h-2.2l.6 1.2-1.7 1.1h-9l2.5-2.2v-3l-3.2-1.7-.7-2.9-2.6-.9-2.8 1.8-1.4-2.3-1.4 2.3-6.6.5.5-3.9-.4-2-1.7-.2V154l-2 .9-2.3-1.4-.5-4.5-6.3-5.8v-9.1c-.1 0-3.5-5.3-3.5-5.3l.6-2h-1.7c0 .1-.8-3.9-.8-3.9h1.4c0 .1.7-1.7.7-1.7h3.9l2.8-7.6Z"/><path id="FR-K" d="m276.3 343.9 5.1-12.5 2.1 2 1.7-3.5 1.5.4 2.9-2.3 3.7 8 3.8-.8.2-2.4 1.2-.3 1.3 2.5 2.6-.4 4.1 4.5 1.4 7.2 5.7 9.1-.7 4.1 2.8-.8 4.4 3.4 2.4-3.5 2.3-.4v2.7c.1 0 1.6.3 1.6.3l.5-2.6 1.8-.3 4.9 3.5 2.5 4v5l2.2.8 2 3.6-7 5.8.9 1-1.4 7.5-4.9-.6-2 3.5 1.6.5-.4 1.1-4.4 2.5-.7-.9.3 1.3-2.8 1.4-.4 1.9-3.3-1.2-1-3.2-4.6.3-11.3 7.7-4.7 5.5-6-1-5.2 5.5-4.7 9.7-.5 12.2.6 7.6 3.2 1.1 1.1 3.8-3 .4-1.6-2.2-3.2-.4-5.8 3.3-3.6.3v3l-3.4-.8-1.6 1.2-3.3-2.8-6-2.1-3.5.7-4.8 3.5-2.8-4.9-7.1-2 .3-2.8 1.7-.9 6.4-2 .8-2.1 6.1-.9-3.2-3.3-2.8.8-3.1-1.1-1.9-3.1.6-1.4 3.8-.8-.2-2.8-1.6-.6 2.5-1-2.2-4.1.4-2.9-8.4-3.6.5-7.1h3.1l-.4-2.4 1.7-2.4 1.5 2.2 4.9-1.9 1.2 1.9 3.4-1 1.5 1.5 1.5-3.6 4.7 2.1 7.3-.7 2.1-1.8.2-2.2-2-2.4 1-4.4 3.8 2.2 7.9-4.5 2.6.8v-6.7l5.2 1 1.8-3.8h2.7l.5-2.6 2.9-2.4-1.8-2.8-4.3-1.7 2-.7 1.4-4.4-5.4.5.9-1.9-2.4-.7-.3-1.5-1.1.6.8-8.4-2.7-3.1.7-2.7-3.6-4.1Zm-33.7 103.7-.8-1.8-1 1.4 1.8.5Z"/><path id="FR-L" d="m214.3 258.9 4.3.7 1.7-1.4 2.1 2.7 3.8-4 .7 1.7 2.2-1.4.7 1.7 2-1.5 1.5 1.4 1.9-3.3 1.9 1.5 4.8-.9 3.8 1.6 6.6-.5.2 1.9 1.6.5-1.1 1.4 6.2 3.1 4.1 12.1.3 3.1-1.6.8-.3 2.1-5.8 4.3 4.6 5.6v3.3l-2.1 2.3 1.9 2-1 6.6 1.4 1.3-1.6 1.1-4.5-2 .4 3.7-5.7 5.6 1.3 2.7-1.8 1.4-.2 2.7-2.6 1.1 1.5 2.8-2.8 1.2-3.9 1.1-1.4-1.2-3.6 2.7-5.3-5.1-3.7-.9-3.1 1.3-2.4-4.1 1.2-1-3.6-.4-1.8-1.6 1.2-1.1-2.1-.8 1.7-2.4-1.7-.9.3-2.4 3-2.8-2.3-1.1 1.3-1.5-5.9-2.1 1.6-2.4-2.8-.3-2.3-3.9-4.2.5-1-1.1-1.9 2.3-2.1-2.1.8-2.4-5-2.1 2.9-2.6v-2.1c-.1 0 2.3.6 2.3.6l1-6.9 2.4.4 2.2-2.3-.8-2-3.8-2v-3.6c-.1 0 1.1-.7 1.1-.7l-1.9-3.7 3.8-3.8 3.5.4 1.5-4.1 2.8.7 1.7-1.8Z"/><path id="FR-M" d="m360 94.4 1.9 5.4 2.9-1.7 1.9 1.2 1.1-2.3 3.6.6.9-1.3 3.3 3.4 3.3.3.5 2.2h4.1c0-.1.9-2.2.9-2.2l3.8-1.1 4.3 2.8 2.2-.9 4.4 2.9-.6 1 2.1 1.9-1.2 1 3.5 3.5 2.4 6.1 3.3.6v-3.1l3.5-.5 3.3 1.7.6 4 1.6-2.2 2 1.9 4.7.3 2.4-3 2.7-.6-.3 1 2-.2 1.2 3.7 3.7 2.3-3.4 6.3-2.9-1.9-4.3 1.3-1.1-1.6-5.8-1.7-1-3.7-2.3 6.3-3 1.2.4 2.1 4.8 1.6-1.5 1 .9 3.1 2.6-3.2 3.7 1.2 1.9 2.9-2.5 3.9 2.1 1.7-3 5.6-5.3 1.4 2.4 1.4-1.5-.3.9 1.5-1.4 6.3 3.6.7.7 1.5-4.8 8.5.6 1.8-4.6 5.6-1.6 5.6.8 2.1-2.9 1.4-8-6.3-4.3 3.1-3.1-3.8-6.4 1.5-2.4-4.5-3.3.8-3.1 3.5-.6-2.1-1.7 2.6-1.3-2.5-2 1.2-.4-4.1-5.1-2.7 1.5-1.2.3-3.6 1.7-1-3-2.3.4-1.3-1.4-1.2-.8.9-2.2-3.8-3.4.9.5-2.5-1.7-.6 2.6-1.6-4.8-4.5-4-1-3.2-3.5h-1.6l-.5-1.9-2 .9.4-6.6-4.1-2.9 1.6-2.3v-3.8c-.1 0 3.5-3.1 3.5-3.1l-1.5-.5 1.4-2.1h-2.4c0 .1 1.3-2.4 1.3-2.4l-2.2-6.1 1.8-1.3-1.4-1.5 3.4-1.9v-4.9c.1 0 1.7-.6 1.7-.6l-.8-1.3 1.2-2.9-1.8-2.2 1.8-4.8 5.1 2.7 4.6-3.9.8.8Z"/><path id="FR-N" d="m170.1 407.4 1.1 2.2-1.4 1 .4-3.2Zm.6 0v-3zm52.9-81.6 3.1-1.3 3.7.9 5.3 5.1 3.6-2.7 1.4 1.2 3.9-1.1 1 4.9 2.8 4.1-1.4 4.4 2.6 3.8.4-1.6 2.7-.9 2 1.3 4.5-.5 2.6-3.3 1.5-6.1 4.5-4.6 1.2 4.1 3-.9 4.2 11.1 3.6 4.1-.7 2.7 2.7 3.1-.8 8.4 1.1-.6.3 1.5 2.4.7-.9 1.9 5.4-.5-1.4 4.4-2 .7 4.3 1.7 1.8 2.8-2.9 2.4-.5 2.6h-2.7l-1.8 3.8-5.1-1v6.7l-2.7-.8-7.9 4.5-3.8-2.2-1 4.4 2 2.4-.2 2.2-2.1 1.8-7.3.7-4.7-2.1-1.5 3.6-1.5-1.5-3.4 1-1.2-1.9-4.9 1.9-1.5-2.2-1.7 2.4.4 2.4h-3.1l-.5 7.1 8.4 3.6-.4 2.9 2.2 4.1-2.5 1 1.6.6.2 2.8-3.8.8-.6 1.4 1.9 3.1 3.1 1.1 2.8-.8 3.2 3.3-6.1.9-.8 2.1-6.4 2-2.1-.7.3-1.2-6.4-1.8-2.4.2-1.5 2.3-2.8-5.4-6.4.5-3.1-3.7h-5.3l-7.5-3.4-2.2 3.7 1.1 4.3h-8.7l-2.1-1.5-2.3 2.4-4.1-3-8 2.1-3.5-4.9-5.2-2.4.9-7.3 3.7-2.2-.4-2.9 2.6-3.1h1.7c0 .1-.2-2-.2-2l1.9-2.2-1-1.5 2.6-2.1-1-4.7-2.3 1.6v-2.5l1.7-.4-2.7-5.2h-4.9l-1.4-1.7 1-4.2 1.9-1.4-1.1-3.4h1.1l.2-2.8-1.8-1.4 2.1-2 2.9.5 2-2.7 1.5 1.4-1 1.2 2.7 1.6v-3.1c-.1 0 2.3-1.9 2.3-1.9l1 1.4 2.6-2.3 2.4 1.5 10-4.3 2.4 2.7 4.6-4.1-.3-1.5 3.6.3-1.4-2.2 1.8-.3 1.5-4-2.8-1.7.9-3.4 1.6 1.7 4.1-1-2.7-8.5 4.2-1.4 1.5-4.6 5.7-3.4-.6-2.7 4.9-4-1.1-6.1 1.3-.8Z"/><path id="FR-O" d="m261.9 16.4 2.4 5.9-1.4 1.5.3 3.8 1.2 2h3c0 .1 2.4 4.8 2.4 4.8l3.8 1.7 1.6-3.2 6.8-2.1 1.4 3.5 2.4 1.3-.7 2.4 1.8 7.2 2.9 1.8 3.4-2.3 1.5.5-.6 2 3.7-.5 1.8 2.1v4.7l1.7 3.5 1.4-2.5 5.3 1.3 4.2-1.7 3.9 5.4.9-1.7 1.6.9-2.7 7.4h2.5l1 3.4-2.4 1.1-.6 3.6-5.6-.7v-2.7l-3.2 1.9-.5-1.5-5.4-1.7-3.5 2.4-2.4-1.6-1.8 2-4.4-1-6.6 1.3-5.4-2.5-5.2 2.1-.2-3-3.8 1.8 1.1-3.6-1.8-.8-.9 2.4-4.4-1.7v-1.4l-1.5 1.4-1.8-1.3-2.1 2.7-1.5-1.2.4-2.3 3.7-2.2-1.5-1.9-3.2 1.3-.9-1.7-.2 1.4-2-.8-4.1 2.1-2.2-.6-.3-2.8-4.5-1.9v-2.3l-1.3 1.1-3.6-2.6L231 56l-.8-1.2-3-2.6 1.1-7.4 1.7 1.3-2-3-.5-8.5 1.8-4.2-1.1-3.7 9.9-5.4-1-.2 9.2-1.7 1.8-1.9.7 2 .6-2 6.3-.4 5.6-2.3.6 1.9Z"/><path id="FR-P" d="m107.5 87.7 10.9 3.6-.2 1.2.4-1.2 4.2-.6.5-1.5h7.1l1.2 4.8-2.8 3.1 4.9 7.4-1.2 3.8 1.6-1.5 1.3 1 1.4-2.4 3.8-.4 7.2 2.5 12.4.8 5.9 2.8 7.6-2.3 7.7-5.4-3.9-.2h6l.9 7.7h2.5c0-.1-2.2 1.9-2.2 1.9l2.5 2-.3 3 1.6.7-.5 3.4-1.8 1.2 2.8 1.9-2.2 5.4 2.4 1.7h5.6l-.2 2.4 5.1 3.4.5 1.5-1.6 1.6 3 1.9v3c.1 0 5.2 4.6 5.2 4.6l-1.1 2.4 1.4 1.9-2.1 3.5-5 2.6 2.1 5.6-1.1 1-2.1.3-2.9-3.9-.5 1.6-3.5-.8-1.6-3.2-3.3-.6-.3-5.3-2.8-2.9-5.4 1.2-3 4.1-2-1-1.7 1.2v-4l-3.3-.3-.9-2.8 1-.9-2.1-1.8h-1.4l-.8 2.9-1.7-.8-1.1 2-1.5-1.3h-3.9l-4.9 3.4-.4-2.1-2.3.6.6 1.2-1.6.7-2.9-3.3-7.7-.5-6.3-1.8-3.4 3.9-2.3.4-2.3-1.5-2.9-7.5h7.5c0 .1-2-1.3-2-1.3l.9-.9-2.1 1.1-4.2-4.8v-3.9c-.1 0-1.5-.7-1.5-.7l2.5-5-.6-4.9 1.8.3-1.9-.9-.6 2-.7-2-.5-9.4 1.6-.2-1.6-.7-.4 1.3-2.8-6.3-3.5-2.3-2.7-8.5 1.6-1.9-.3-3.2-3.4-2.3.5-2.7Z"/><path id="FR-Q" d="m221.2 69.8 2.4-.3v1.6c.1 0 9 8.1 9 8.1l2.5 6.6h-1.3l-2.1 3.6h2.1l-1.9 2.7v3.3l1.8 2.3-1.1 1.8h2.5l-2.6 5.1 3.1 7-.5 1.5-1.1-1.4-1.7.4-.2 1.7-2.8 7.6h-3.9l-.7 1.8h-1.4c0-.1.8 3.9.8 3.9h1.7c0-.1-.6 1.9-.6 1.9l-1.8.9.4 2.7-3.4 1.9.4 2.8-1.4 1-7.2-1.5-.2 2.2-1.8-.6-1.8 1.7-4.6.5-2.1 2.4-3-1.9 1.6-1.6-.5-1.5-5.1-3.4.2-2.4h-5.6l-2.4-1.8 2.2-5.4-2.8-1.9 1.8-1.2.5-3.4-1.6-.7.3-3-2.5-2 2.2-2h-2.5c0 .1-.9-7.7-.9-7.7l.3-.9-6.2-1-1.6-2.1 3-7.2-1-1.3 1.1.5 1.8-2.8 13-7.6 12.8-3.7 4.6.5-.2-1 10-6.9Z"/><path id="FR-R" d="m96.4 226.8 1.4 1-.5 1.7 2.6 1.3.2 2.7-2-3.2-3.2-1.7-.2-1.7h1.7Zm40.8-75.4 7.7.5 2.9 3.3 1.6-.7-.6-1.2 2.3-.6.4 2.1 4.9-3.3h3.9l1.5 1.3 1.1-2 1.7.8.8-2.9h1.4l2.1 1.9-1 .9.9 2.8 3.3.3v4l1.7-1.2 2 1 3-4.1 5.4-1.2 2.8 2.9.3 5.3 3.3.6 1.6 3.2 3.5.8.5-1.6 2.9 3.9 2.1-.3 4.1 2.8-2.2.3-1.3 1.7 1 1.4h-1.7c0 .1.1 1.8.1 1.8l1.5.4.2 4.6-1.3 2.6-1.7-.6.3 3.5-2.3 3.3-4 2.5 1.1 1.3-.8 1.1-5 2.7-2.3-1.2v3.7l-5.2-1.8-1.3 3.3.9 2-2.4 5.1 1 .9-3.6 5.1-.8 5.9-2.1.2-1 3.7-1.7-.7-1.5 2.3-1.7-.8 1.3-1.7-1.4-.2-7.3.9-2.9 1.9.7-1.4h-1.2l-2.1.9.4 1.6-1.9 1.8-6.5-.4-3.7 1.6 3 2.7-.8 1.8 4.6 3.7-.7 2.7 2.9 4.6-.7 1.3 1.5.7-.9 11.1 1.2-.8 2.3 1.4-6.3 4.1-3.8-2-3.4 1.6-1-.6 1.1-2.4-6.4 2.7h-2.9l-.1 2.3-3.8-3.2.7 2.1-1.6-2.5h-4.3l-1.6-3.1-4.6-.8-5.6-3.7-1.5-5.8-9.8-10.6-.3-3.4h1.4c0-.1 4.6-7 4.6-7l-4.2-4.3-5.1-.9 2.8-1.8-.2-4.8-4.4 1.6-2.6-2.3-1.9 1-3.9-1.6 1.3-2.4-1.8-1.8 3.5-3.7 1.2-1.5 3.6.8.6-2.8 4.6 1.3.2-1.6 2-.6.6-5.9 3.7-2.2.6 1.1 3.3-1.9h6.9l1.3-2.8 5.1-2-.2-1.6 8 3 3.1-9.6 4.8-2-2.9-13.5 1.9-3.2-.8-9.3Z"/><path id="FR-S" d="m229.8 54 .5.4.8 1.2 4.8-1.7 3.6 2.6 1.3-1.1v2.3l4.4 1.9.3 2.8 2.2.6 4.1-2.1 2 .8.2-1.4.9 1.7 3.2-1.3 1.5 1.9-3.7 2.2-.4 2.3 1.5 1.2 2.1-2.7 1.8 1.3 1.5-1.4v1.4l4.3 1.7.9-2.4 1.8.8-1.1 3.6 3.8-1.8.2 3 5.2-2.1 5.4 2.5 6.6-1.3 4.4 1 1.8-2 2.4 1.6 3.5-2.4 5.4 1.7.5 1.5 3.3-1.9v2.7l5.5.7 3.1 1.1.7 4.8-1.6 4.7 1.5 1.2-4.2 4.2-.4 2.4-3.1.6 1.9 2.7-1.4 11.1-3.9-2.4-2.3 1.4v1.9c-.1 0-2.7-.6-2.7-.6l-4.5 2.2.3 5.3 3.2 2.8-4.3.4-.7 1.6 1.3 2.2-1.8 2.1 2.2-.3.9 1.5-6.6 8.4-.8.8-2.7-1.8-.5-2.9-1.3 1.1-.8-2.1-1.4.5-3.3-3.8.8-2-1.8-2.9-2.3-.6v1.7c-.1 0-2.8.7-2.8.7l-.6-1.1-4 1.1-1.5-1.4-2.6 1.9-3.5-2.5-1.7 1.5-1.1-2.3-2.1 1-6.1-4.2-2.8 1.8-.5-1.5-1.6.8-3.1-2.4-6.8 2.5-4.4-.7-1.7-2.9.2-1.7 1.7-.4 1.1 1.4.5-1.5-3.1-7 2.6-5.1h-2.5l1.1-1.8-1.8-2.3v-3.3l1.9-2.7h-2.1l2.1-3.6h1.3l-2.5-6.6-8.9-8.1v-1.6c-.1 0-2.6.3-2.6.3l5-7.6 5.7 1-5.1-4.6.6-4.7 2.5.2Z"/><path id="FR-T" d="m125.6 275.6 5.8 3.2 1.8 6.1-1.5 3-1.3-4-4-3.6-.7-4.7Zm-3.6-10.3 1.3 1.2-1.6.2.7 1.2 3-1.3-.4 1.4 2.1-.4 3.9 2.3-2 1-7.7-2.9-1-2.1 1.8-.7Zm13.6-3 6.4-2.7-1.1 2.4 1 .6 3.4-1.6 3.8 2 6.3-4.1-2.3-1.4-1.2.8.9-11.1-1.5-.7.7-1.3-2.9-4.6.7-2.7-4.6-3.7.8-1.8-3-2.7 3.7-1.6 6.5.4 1.9-1.8-.4-1.6 2.1-1h1.2l-.7 1.5 2.9-1.9 7.3-.9 1.4.2-1.3 1.7 1.7.8 1.5-2.3 1.7.7 1-3.7 2.1-.2.9 2.3 3.5.2v2.8c-.1 0 4.2.4 4.2.4l.7 6.1 9.4-1.3-1-2.5 4.3 1.6.4 3.5 7.1 8.8v6.3l7.9 4.7.2 2.9 2.1.7-1.2 2.4-1.7 1.8-2.8-.7-1.5 4.1-3.5-.4-3.8 3.8 1.9 3.7-1.3.7v3.6c.1 0 3.9 2 3.9 2l.8 2-2.2 2.3-2.4-.4-1 6.9-2.4-.6v2.1l-2.8 2.6-2.2 3.7h-1.9l-.2 4-2.5 3.2-3.5 2.1-1-.8-1.9 4.4.6 3.5-4.5 4.4-2.7-1-1.6 1.2-1.8 5-1.5-1.1-3.5 1.3-5.9-3.7-.7 1.3-1.5-6.6-4.8-.9-.8-2.4-.3 1.3-4.1-.3-3.6-8-5.2-3.3-1.8-3-7.3-3.4v-4.6l3.5-.8-1.6-2.5 2.2-.3 1.4-2.4-1.5-4.7h2.3l-2.6-6.1-1.5-.5.8-1-3-.3 4.4-4.8v-2.8Z"/><path id="FR-U" d="m345.3 354.7.3.4 2.4 1.7-2.9 4-3.3-.6-.5-2.2 2.4-3.1 1.6-.4Zm12 57.2 1.1-3.8-2.2-3.1-2.8 1.5-6.1.2-2.7-4.7-2.6 1-1.1-2.3.6 2.1-1.7-.9 1.1 1.3-1.9.7 2.5 1.4 1.3-1.1-2.8 2.5-8.7-1.5.3-2.9-2-1.4-10.4-.4.4-1.9 2.8-1.4-.3-1.3.7.9 4.4-2.5.4-1.1-1.6-.5 2-3.5 4.9.6 1.4-7.5-.9-1 7-5.8-2-3.6-2.3-.8v-5l-2.4-4v-2.8l4.8.8 1 4.1 8.3-3.8 1.7 1.4 2-1.8-.5 4 7 .9 1 2.8 2.5 1.7 3-.6 2.1-2.8 2.6 2.1-1.2-1.2 1.5-1.2v-3.4l-2.7-1.9.7-1.3-4.7-.2-2.2-1.8-.4-2.4 2.7-.6-1.4-3 5.4 1.3 1.7-1.5-2.3-2 1.6-5.2h5l1.4-1.9-1.1-.8 1-2.6h4.3l1-1.1-1.1-1.1 2.3-1.5 1.3.9 2.7-2.3 3.9.6 1.5-1.1 2.2.9-1.1-7-4.1-.8 1.4-5.1h3c0-.1 1.1 2.4 1.1 2.4l3 .9 2-2.8h4.1l1.5 4.4 2.4.3.2 5.3 3.9 2.7 2.5-.6 3 1.9-.8 1.7 2.6 5.1-3.9.3.2 2.8-3.9 4.3 3.2 4.7-1.9.4-.2 2.8 4.1 6.1 6.2 1.6 5.8 4.1 11.2-2.8.7 6.3-7.2 8.1 1.2 4.3-6.6 3.3-.2 1.7-.6-1.4-5.4 2.5-1.2 3.1.8 1.6-1.6-.9-2.1 1.7-2.6-.3-2.5 5.3-5 .3-1 3.5-4.9 3.6 4.2.3-1.7 4.7-2.9-1-2.2 1.8-3.8.3-.7 2.7-6.1-1.3-1.1 4.1h-2.1l1-2.5h-3.5l-3.4-2.1-1.4 1 2.3 1.6-4.1.9-1.2-.9.5-2.2-3.9-1.3-.3-1.7-2.2-.3-.6 1.2-2.3-2.6h-6.6Z"/><path id="FR-V" d="m307.8 264.3-.3 3 2.8.6.6 1.7 7.5-1.2 2.3 1.9 3.3-1.5 1.1-5.4 3.4 1.4 2.2-1.3 1.7 1.4 2.1-2 2.7 6.6 6.3-17.2 4 1.7 3.8-1.7 2.3 3 2.7.6-.5 1.6 2.7 1.5.9 3.6.7-1.9 1.8 1.6v2.5l2.2-.2 3.6-3.8 2.4 1.8.4 2.4 5-.2 6.7-7.5 3.6 2.4-2.3 4.1.8 1.7-5 1.7-.8 4.4 5.9-.6 5.7-4.2.5-1.5-1.7.2-1.4-3 1.1-2.4 9.2-4.8 10.3 1.5-1.7 3.6 3.2 3.7-2.3 7.1 3.5.6-.8 3.8 2-.8 3.5 5.4-1.4 4.1-6 1.7-.5 5.5 3.7 3.6 2.9.6v6.6l6.4 4.8-2.6 3.8.9 3.5-8.3 4.3v1.5l-4.3-1.1-4.7 2.4h-4.1l-2 2.8-3-.9-1.1-2.6h-3c0 .1-1.4 5.2-1.4 5.2l4.1.8 1.1 7-2.2-.9-1.5 1.1-3.9-.6-2.7 2.3-1.3-.9-2.3 1.5 1.1 1.1-1 1h-4.3l-1 2.6 1.1.8-1.4 1.8h-5l-1.6 5.3 2.3 2-1.7 1.5-5.4-1.3 1.4 3-2.7.6.4 2.4 2.2 1.8 4.7.2-.7 1.3 2.7 1.9v3.4l-1.5 1.2 1.2 1.2-2.6-2.1-2.1 2.8-3 .6-2.5-1.7-1-2.8-7-.9.5-4-2 1.8-1.7-1.4-8.3 3.8-1-4.1-4.7-.8v2.8l-4.9-3.5-1.8.3-.5 2.6-1.5-.3v-2.7c-.1 0-2.4.4-2.4.4l-2.4 3.5-4.4-3.4-2.8.8.7-4.1-5.7-9.1-1.4-7.2 2.1-1.2.9-2.8 2.7-.3.2-1.9h4.2l2.3-4.4 3.1-.5-.6-2.2 2.9-.8-1.1-1.9 1.8-1.4-.9-1.9 2.9 1.2 1.1-5-1.9-2.5h-3l.7-1.3-1.3-.8 1.2-.9-4.6-2.6-3 .2-2.5 2.3-1.7-.6v1l-2.5-2.3-1.5 2-.5-3 2.5-2 .7-2.9-10.2-14.5 2.2-4.7-2.1-2.2.3-1.9 4.4-1.5-2.2-11.9 4.5-1.8Zm37.4 90.2-2.4.7-1.5 2.8.5 2.2 3.3.6 2.9-4-2.4-1.7-.4-.5Z"/></g></svg>