<svg xmlns="http://www.w3.org/2000/svg" viewBox="0 0 512 512"><g><path id="DE-BW" d="m186.5 476.7.4 1.3h-2.2zm15.8-111.9 5.4-.2 2.6-4.5 4.1.6.5-4.1-1.3-1.2-1.1 1.6.6-1.5-3.1-.6.8-1.8 7.4-1.3 2.4 2.7.2-2.4 3.3-.5-1 5.3 1.1 1.1 2.3-2.5 1 2.4 2.5-2.6 2.9 7.4-2.4 3.4 1.9.6 2.2-2.2.5 5.9h3.6l1.8-3.8 2.3 2.3-1.1 3.8 2.7 3.2-2.2 1 2 6-1.9 1.3.6 3.6 4.9 3.1-1.5 2.9 1.6.6v3.1l3.9.7 4.3 6.7-1.4.7 1.2 2.8-1.5 6.7 3.1 3.6-3.3 1.6 1.1-1.9-1.2-.3-1.9 2.7-3.7-3-.6 2.3 2.7 3.4-.5 5.1-3 .7-2.5 3.2-2.6-1.2-2.7 1.1-2.6 4.8 3.8 5.7 2.8 10.1-2.3 14.5 2.4 3.3-2.9 1.3 2.2 1.6.5 4.9-2.1 2.2-2-2.8-2.5 2-4.5-1.6-4 3.9-4.5.5-1.5 3.2-20.2-7.8-7.7 1.9-3.4-5.3-1.5 1.1.9 2.6-2.6-1.1-.2-4.2-1.2.5-1.6-2.6-1 2.4-.5-2.4-2-.5.4 1.6-3.7.7-3.1 5.7 2.8 2 5.1-2 .9 1.5-2.1 3.1-2.2-2.2-2.5 1.9 1.2 1.4-4.1.7-7.1-3.2-4.6 3.7-5.8.8-2-2.5h-2.8l-5.1 3.2-2.3-1.7 2.1-.3.3-2-4.1.6-3.1-6.3 1.4-2.1.3-8.6 2.6-5.5-2.1-3.7.3-5.1 4.6-10.8 2.1-1.5-.5-4 4.2-14.8 5.3-7 4.7-2.7 5.7-9.9 5-8.1 1.3-8.1 3.9-3.7-1.5-1.8 2.3-6.7-2.6-.9-.8-8.2h2.1l3.4 4.2 2.2-1.6-.8-4.2 3.9-.8.4 5.3 4.8.7.4 2 2.7-.7-.9 2.2h-2l-1 3.4 1.9.9 4-3.7v-2.9l7-.8-2.1-2.9 1.2-.7Z"/><path id="DE-BY" d="m239.6 306.9 2.6-3 1.4 1.3 2.4-.7 1.1 2.7 3.9 1.1 2.6 6.2 2.3-.5 1.6 2.9 2.1-.5 2.2 1.9.3 6.4 4.3 1.6.6-2.9 4.6.4v-1.9l-5.2-2.8v-1.6l4.6-2.9h4.1l1.9 2.8 5.2-1.2 1.7 2.2-.5 2.8 4.2 1.1 1.3-5.7-1.5-7.4 1.7.2 2.2-2.8 3.4.6-.4 4.2.9 1.5 1.6-.6 1.6 3.4 10.2-2.8 1.8 1.9 3.9-2.1 2.4 2.2-.2 2.3 4.9 2 1.6 2.6-1.9 1.6 4.9 5-.6 3.7 3 2-.6 1.1 9.1 4.8-.5 2.8 2.8.9-3 8.2-2.7 2.7 4.7 3.4.2 4.2h1.3l1.2 4.9 2.2.9.5 5.4 4 2.4.9 2.9 6.5.2 3.4 2.4 6 10.1 4.4 1.1 4.1 3.9.4 4 3.7 2.7 1.5-2 3.9 1.5 1.7 4.2 2.6-.4 4 6.9-1.8 3.4 1.7 1-.6 5-3.6 6-8.8-4.5-2.8 1.9v7.6l-4.2 6.2-12.4 4.1-10.4 7.8.2 3.2 4.5 6.5 2.5 1.2 2.6 5.5-3.8 7.4h4.3l2.5 2.1-1.4 11.5-1.7 1.7-8.2-5.4-.6-1.5 1.7-1.8-2.6-2.3.9-1.3h-7.1l-1.2 2.4-3.1.5-2.3-4.1-7.3.9v-3.8c-.1 0-3.7 2.5-3.7 2.5l1.6 5.5-7.7-1.1-6.5 2.5-8.3-.7-2.5 4.7H295l-2 2.5 1.5 1.6-3.3-.3-2.7 3.1h-1.8c0 .1 1.2-1.8 1.2-1.8l-1.9-.3-3.6 2.2h-5.5c0-.1-1.6-4.9-1.6-4.9h-2.6l1.9-1.9-1.2-1.4-4.3 1.3-7.1-3.2-1 2.1h-1.9l-2.7-1.3 1-1.7h-1.7l1.5 8.9-1.6 3-4.2 4.4-6.1 2.1 2.4-6.6-2.1-.6-3.4 2.2-.2-5.7-3.7-1.7-1.2-3.7-3.9 1.1-2.3-1.2-.6-2.8-2.6 3.6-5.4-.8 1.5-3.2 4.5-.5 4-3.9 4.5 1.6 2.5-2 2 2.8 2.1-2.2-.5-4.9-2.2-1.6 2.9-1.3-2.4-3.3 2.3-14.5-2.8-10.1-3.8-5.8 2.6-4.8 2.7-1.1 2.6 1.2 2.5-3.2 3-.7.5-5.1-2.7-3.4.5-2.3 3.7 3 1.9-2.7 1.2.3-1.1 1.9 3.3-1.6-3.1-3.6 1.5-6.7-1.2-2.8 1.4-.7-4.3-6.7-3.9-.7v-3.1l-1.6-.6 1.5-2.9-4.9-3.1-.6-3.6 1.9-1.3-2-6 2.2-1-2.7-3.2 1.1-3.8-2.3-2.3-1.8 3.7h-3.6l-.5-5.9-2.2 2.2-1.9-.6 2.4-3.4-2.9-7.4-2.5 2.6-1-2.4-2.3 2.5-1.1-1.1 1-5.3-3.3.5-.2 2.4-2.4-2.7-7.4 1.3-.8 1.8 3.1.6-.6 1.5 1.1-1.6 1.3 1.2-.5 4.1-4.1-.6-2.6 4.5-5.4.2-1.4-2.6 3.2-7.4-1.6-1.1 1.1-1.4-1.8-.6-.2-3.4-2 .2-.7-8.2 1.2-1-.8-2.9-2.1-.5.8-2.7 4.8-2.1 1.3 2.1 2.8-3.5 5.9 1.1 2.5 2.9 3.1-.6-.5-9.1 6.5.5-.4-2.3 3.7-2.4.6-7.2 5.6 1.3 4.6-3.9.9-3.1Z"/><path id="DE-BE" d="m376 169.6 1.8 1.6-.6 3.4 5.9 4.1-1.8 3.8 5.9 1.9-4.4 6.8-.2-2.5-6.5-1.2-.5-1.6-1.8.6v2.2l-4.9-2.6-6.7 1.7-1.5-1.4 3.1-6.3-2-.5.5-4.5h3.5l.2-2.7h1.7l.8-2.2 3 2.4 4.4-1.8-.5-1.2.6-.3h.2l-.1.4Z"/><path id="DE-BB" d="m288.3 139.8 5 .7 1.1-2 4.4 1 .7-5.6 4.6-2.3 2.5 1.8 3.5-.5-.9-1.9 2.5.3 6.5-3.5 1-4.8 4.9 2.2 2.4-1.3 1.1 2.3 5.3 1.6 2.1 3.4 8.6-.3.9 1.8 2.9.2.5 2.4 7.8-.9-.8 1.7 2.5.5 5.7-5.5 3.2 2.3 2.8-4.3 4.2 2.1 1.2-3.3 1.9.4 1.5-1.8 1.1-5.2 3-.8 3.5-4.7 3.9-.3-1.5-1.9.7-3 3.3 3.6 1.6 5.5 12.9-.4-.6 4.6-5.1 6.5 6.5.2 2.2-3.4 3.7-1.3 1.4 4.5-2.8 4.2-.5 8-8.7 7.7.6 5-1.5 3 9.1 5.7 11.4 11.7-1.4 2.5 1.2 2.8-3.9 6.2 2.3 7.9 4.8 2.4-1.3 7.8 3.1 3.3-2.5 10.6-4.1 4.8 6.6 10.7-1.1 5-1.3-1-.7 2.8-2.5.2-1.9-1.9-7.1 2.4-2.2 2.4-7.8-2.5-2 4.2h-2.2l1.1 2-2.5 4.6-1.6-1.5-7.4 2.2-9.1-.4-5.7-5.3-.8 1.8-2.2-.7-2.2 3.3-2.1-.7-1.6-2 1.3-6.1-2.5-2.9.7-1.6-4.3-3.4 5.3-4.5-1.9-10.4-3.9.6.2-1.9H356l-.6-2.3h-4.2l-.3-2.1-2.6.3-4.3-3.2-2.3 1.9-2.9-.2-2.4-3.1-1.8 1.1-8.6-9.8 3.1-3.8-2.1-1.5 2.5-6.1-1.3-4.4 2.3-4.1-3.5-2.9-2.3 1.7.2-2.4h-1.8c0 .1 1-6.1 1-6.1l2.4-.3-1.2-5.8 2.3-5.7-1-3.7-1.6-1.1-2.7 1.7v-2.7l-5.8 1.2-5.8-2.2.4-2.8-4.1-2.4-1.9.8-.7-2-2-.2.5-1.8h-1.6c0 .1-5.8-2.7-5.8-2.7l-4.5 1.5-2.8-4.4Zm87.5 30.9-4.4 1.8-3-2.4-.8 2.2h-1.7l-.2 2.6h-3.5l-.5 4.6 2 .5-3.1 6.4 1.5 1.4 6.7-1.7 4.9 2.6v-2.2l1.9-.6.5 1.6 6.5 1.2.2 2.5 4.4-6.8-5.9-1.9 1.8-3.8-5.9-4.1.6-3.4-1.8-1.5v-.4h.1-.2l-.6.3.5 1.2Z"/><path id="DE-HB" d="M178 132.9h.4l3.9 1-.8 1.4 1.7 1.3 8.2.5 1.4 2.2 3.2-1.4 1.5 1.7-1.4.7 1.7 1.3-.3 3.4-1.8 2.1-2.7-1.7-1.8 1.3-2-2.2-2.1.9-3.9-8.4-4.3-2-.8-2Zm1.2-25.2 5.5-.3-1.7 2.3.6 5.3-2.3.6-.7-2.5.9-1.1z"/><path id="DE-HH" d="m227.2 110.9 1.6-5 2.6 3 2.8-4.4 2.9.4.8-2.3 2.6.2.6-2.8 3.5-1.2 1 1-2 3.1 3.1 2.9-.9 3.2-1.9.8.4 3.4h2c0 .1 4.6 4.9 4.6 4.9l-.7 1-2.8 2.5h-2.6l-4.9-4.5-2.7 3.1-2.8.2-.5-2.8-1.7 1.7-2.2-2.2-1.3-6-1.8-.2Z"/><path id="DE-HE" d="m216.2 235.6 6.9.7 2.5 3.8-2.4-.5.7 2.1-1.6-.6-.8 2.8 2.3 2.9v3.3l-2.6 1.1-.4 2.5-1.5-.3 1.2 1.4 6.9 3.1 1.5-2.6-1.3 1.1-1.5-2.8 3.8-1.4v-1.4c-.1 0 2.6 2.3 2.6 2.3l-.6-2.7 2-.2 1 2.7 1.8 5.8 3.3.4.5 3.3 6.7 2.6-1.5 4.6-1.3-2.5-1.8.9 2.2 1.4-1.3 3.6 2.6 1.5v1.7l-6.6-.3-.8 2 1.7 2.3-4.5.2 1.5.7-.6 1.5 1.6-.9 1.9 2.5-1.3 3-3 .8-3 11.3 3.3.7-.2-2.4 4-.2 1.1 3-1.8.7.2 5.9-.9 3.1-4.6 3.9-5.6-1.3-.6 7.2-3.7 2.4.4 2.3-6.5-.5.5 9.1-3.1.6-2.5-2.9-5.9-1.1-2.8 3.5-1.3-2.1-4.8 2.1-.8 2.7 2.1.5.8 2.9-1.2 1 .7 8.2 2-.2.2 3.4 1.8.6-1.1 1.4 1.6 1.1-3.2 7.4 1.4 2.6-1.2.8 2.1 2.9-6.9.8v2.9l-4 3.7-1.9-.9 1-3.5h2l.9-2.1-2.7.7-.4-2-4.8-.7-.4-5.3-3.9.8.8 4.2-2.2 1.6-3.4-4.2h-2.1l-2.5-6.6 4.8-4.3-2.2-.4-1.7-3.3-2.3-9.4-5.5-3.6-11.9 3.9-4.4-5.3 2.6-1.6.5-2.7 3.1 1.5v-2.6l-1.8-1.5 1-2.2 3.1-2.1 1.8 1.4v-3.4c.1 0 2.9.7 2.9.7l.5-2.4-2.4-4.7-3.8-2.3 1.9-2.6-.6-4.5 1.9-2 2.4 1.5 1.3-1.1-.4-8.4 1.7-3-1.3-3.5 5.3-5.7 3.7 1.2 4-3.6v-3l3.1-3.4-1.4-3.8 8.7-1.9-1-1.7 2.8-4.5-1.8-4.1-5 1.7-1.5-1.9 2.5-3.7 2.9-2.6 9.7-.8.4-2.4-2.2-3.5 5.1-2.3 2.9 1.4.2 3.2 4.8-.9 6.2-8.4-1.4-1.5 4.5-2.1Z"/><path id="DE-MV" d="m389.3 69.9 2.6 4.5 5.7 3.2 8.3 8.4-1.7 1 1.1 3.1-7-.5-3.9 2-.5-2.1-.7 2.1-3.4-.5 4.4-3.9-1.2-5.4h2.2l-.2 3.7 1-1.8 2.3 1.3.3-2.8-3.1-5.4h-2.4l.6 3.2-.2-1.3L391 81v-3.2c-.1 0-3.6 1.9-3.6 1.9l1.7-6-2.5-3.4 2.4-.5Zm-43.9-17.7 1 .9h-2.1zm-6.9-3.6 1.3 1.9 14 .6.4 1.2-4.9 1.3-6.6-1.2-4 4.1 6.8-3.2-1.2 2.8 1-1.9 1.4 1.9 2-1.7 1 3.5 4.5-4.7 4.2-1.5-.2 2.6 2.7 2 .5 5.9 3 .8-1.4 1.1 1.7-.9 4.1 2.1 1.5 3.5h1.8c0 .1-2.1 1.6-2.1 1.6l4-1-1.4 2 1.1-.8 2.3 4.7h1.3l-.4-2.5 8.8-3-.5 1.3 4.1 3.4-2.3 4.7 6.8 7.2-3.6 3.1-.3 2.3 11.3 6.9 6.5-.6-2.1 3.1 2.6 1.1 5.2 23.8-3.7 1.3-2.2 3.4-6.5-.2 5.1-6.5.6-4.6-12.9.4-1.6-5.5-3.3-3.6-.7 3 1.5 1.9-3.9.3-3.5 4.7-3 .8-1.1 5.2-1.5 1.8-1.9-.4-1.2 3.3-4.2-2.1-2.8 4.3-3.2-2.3-5.7 5.5-2.5-.5.8-1.7-7.8.9-.5-2.4-2.9-.2-.9-1.8-8.6.3-2.1-3.4-5.3-1.6-1.1-2.3-2.4 1.3-4.9-2.2-1 4.8-6.5 3.5-2.5-.3.9 1.9-3.5.5-2.5-1.8-4.6 2.3-.7 5.6-4.4-1-1.1 2-5-.7-3.3-1 .5-2.9-4.3-2.2-4.1-7.9-2.8-1-3.3 2.9-5.4-4.4-4.1.4 1.5-6 7.6-4v-4.1c-.1 0 3.4.2 3.4.2l1.7-5.2-1.2-3.4-2.9-.2-3.6-3.3.5-8.1 4.3-3.5 1.2 1.8 2.1-.6-2.9-1 .4-2.3 5.4-3.3 5.6-.6 3.2 2.1v3.3l3-1.6 4.9 4.2.9-4.7-1.5.6v-2.7l-.6 2.5-1.7-.3v-2.5l4.1-1.4v3.7l1.2-4.3 2.2-.2 2-3.8-.8-.9-2.9 3.7-.2-1.7 6.1-5.3 6.6.5 11-2.6 2.4-3.6 6-4 7.8-12.6Zm24.5-8.3-3.2 9.8 1.4-9zm11.3-5.5-2.2 3.4 1.7 3.8 8.5-.5 1.8 1.4-4.1 7.9 1.5 3 2.3.2 3.7 4-2.2 4.9-.3-1.9h-2.2l2.3-2.1-3.7.7 3-2.4-2.7 1.5-1.2-1.6-3.2.8-6 4.9.2 1.6.3-1.2 2.1.7-1 2.2-4-2 1.2.4.5-2.2L368 64l-2.7-1.1-.2-1.8-2.1 1 1.8-1.2-2.8-2.2.5-2.6 5.3-.9-1.9-3.1-2.4.5 1.1-2.3-2.3.6 1.9-3 2.3.5-1.1 2.5 2.8-2.2-1.7-.4v-1.7c.1 0-2.3.2-2.3.2l-1-2.6 4-.6 2.4 2.8-.3-2.6 2.3-1.9-.6 2.2 1.5-.8 1.5 4.5 1.5 1.5 2.1-.7.3-5.7-2.6.9-3-4.3-5 3.8 1.6-5.9-4.9 5.9 3.4-6.8 7.4-1.8Z"/><path id="DE-NI" d="m111.4 108.1-3.8 1 1.1 1.9-3.6-2 3.8-2.4 2.5 1.4Zm23.3-9.1 1.5 1.2-3.1-.6zm7-1.6 2.1.9-6.6 1.5.6-2 3.9-.3Zm5.8-1.5 3.7.7-5.9 1.2 2.1-1.8Zm6.9-.9 3 1.4-4.9-.8 2-.6Zm31.5-6.5 3.3 3.7 4.9.9 5-1.2-.6-2.2 8.1-.3 4.2 1.8 7.6 10.7 1.8 5.1 7.2 4 1.8.2 1.3 6 2.2 2.2 1.7-1.7.5 2.8 2.8-.2 2.7-3.1 4.9 4.5h2.6l2.8-2.5 11.4 4.6 4.1-.4 5.4 4.4 3.3-2.9 2.8 1 4.1 7.9 4.3 2.2-.5 2.9 3.3 1 2.8 4.4 4.5-1.5 5.8 2.8-1.7 2.4-1.9-.4-.3 4.3-7.5 4.1-12.2-2.2-2.6 3.8-6.9.7 1.2 8.4 1.2-.2 3.6 7 2.2-.9-1.5 3.7 2.8 4.7h-2.5c0 .1-.4 2.3-.4 2.3l5.6 5.6-3.6 2.2 4.1 7.3-2.9 2 1.9 1.6-.6 2.5-4 2 .9 3-10.5.4-5.5 2.9 3.5 3-1.5 1.2 1.5 3.1-2.9 2.7v2.4c-.1 0 4.9 10.8 4.9 10.8l-2.5 1.4.7 3.9-2-1.3-3.4 1.6-3.4-2.4-2.5.3-2.8 6-2.6 1.5-1.2-1-1.9 3.5-3.4.9-.9-1.2-4.7 3.9-1-2.7-2 .2.6 2.7-2.8-2.3v1.4c.1 0-3.7 1.4-3.7 1.4l1.5 2.8 1.3-1.1-1.5 2.6-6.9-3.1-1.2-1.4 1.5.3.4-2.5 2.6-1.1V247l-2.3-2.9.8-2.8 1.6.6-.7-2.1 2.4.5-2.5-3.8-6.9-.7-3-.2v-6l2.8-3.3.6-4.3-5.4.5.6-3.4-2.7-1.5V215l-2.6.8-1.3-1.3.8-5.7-2.4-1.6.8-2.2-5.7-.4-1-3.9 2.3.7-.3-2.6 1.6-.5-4.4-3.1 6.3-8.1-1.1-2.6 1.7-2.1-1.5-1.4-1.9-.2-4.6 6.4-3.2.8-5.9-.4-.2-7.1-2-1.8-3.8 2.1-2.2-.8-3.4 4.4-4.5-.9.5 3.6 5.1 2.7v9.5l2.9 1.9-4.4 4.8-4.8-1.6-3.7 4-6.4.2-2 2.1-3.8-3.1 4.9-2 .7-3.1-4.9-2.7 2.2-4-1-2.2 2.4-.5-2.2-3.6-8.9-2.3-1-3.4-3.2-1.4-1.7 2.8 1.5.7-.8 3-11.4 7.2-9.3 1.4-1.5-3.1 1.9-5.4-3.3-6.1-1.9 2.1-7.3-1.8-2.4-1.6-.7-4.3 3.4-.7-2.2-4.2 1.6-1.4 12.1.4 1.3-13.5 5.2-10.3-1.5-8.7 1.9-2.7-.7-4.3 1.4-5.1h2.5c0-.1-11.7-1.5-11.7-1.5l.8-12.8 2.6 2.3-2.3-2.5 2.5 1.7 1.6-2-2.1-2.5 6.2-6.1 4.6-1.1 6.5 1.1 7.1-3.2v1.3l4.1-.7 1.1-1.6-1 1.8h8.6l.7 4.3 2.9.4 2.2 6.7-4.4 2v1.9c.1 0 5.6 4.8 5.6 4.8h2.6l1.8-3.5v-4.2h-3.4l2.1-6.1h2.2l5 3.9 2.2-.4 1.5 2.3.7 2.5 2.3-.6-.6-5.3 1.7-2.3-5.5.3-1.5-5.9 2.6-8.1 2.5-4.4 3.1-.8Zm-7.9 44.3.8 2 4.3 2 3.9 8.4 2.1-.9 2 2.2 1.8-1.3 2.7 1.7 1.8-2.1.3-3.4-1.7-1.3 1.4-.7-1.5-1.7-3.2 1.4-1.4-2.2-8.2-.5-1.7-1.3.8-1.4-3.9-1.1h-.5Z"/><path id="DE-NW" d="m121.3 197.4 9.3-1.4 11.4-7.2.8-3-1.5-.7 1.7-2.8 3.2 1.4 1 3.4 8.9 2.3 2.2 3.6-2.4.5 1 2.2-2.2 4 4.9 2.7-.7 3.1-4.9 2 3.8 3.1 2-2.1 6.4-.3 3.7-4 4.8 1.6 4.4-4.8-3-1.9v-9.5l-5-2.7-.5-3.6 4.5.9 3.4-4.4 2.2.8 3.8-2.1 2 1.8.2 7.1 5.9.4 3.2-.8 4.6-6.4 1.9.2 1.5 1.4-1.7 2.1 1.1 2.6-6.3 8.1 4.4 3.1-1.6.5.3 2.6-2.3-.7 1 3.9 5.7.4-.8 2.3 2.4 1.6-.8 5.7 1.3 1.3 2.6-.8v2.6l2.6 1.5-.6 3.4 5.4-.5-.6 4.3-2.8 3.3v6l3 .2-4.5 2.1 1.4 1.5-6.2 8.4-4.8.9-.2-3.2-2.9-1.4-5.1 2.3 2.2 3.5-.4 2.4-9.7.8-2.9 2.6-2.5 3.7 1.5 1.9 5-1.7 1.8 4.1-2.8 4.5 1 1.7-8.7 1.9 1.4 3.8-3.1 3.4v3l-4 3.6-3.7-1.2-5.3 5.7 1.3 3.5-1.7 3-3.3-.7-2.9-4.9v-4.4l-5.6-2.3.9-2.9-2.3-.9-2.3 1.5 1.1 4.6-4.1 1.5.4 2.5-3.1 2.6-8.6 1.3-1.6 5-4.9 1-.5-1.6-2.2 3-1.3-.7-1 1.6-1.3-1.3-2.3 2.6-2.7.3v1.7l-1.9.4.7 3.7-1.7 1-2.3-2.4-2.2 1.2 2.2 7-3.9 1.5-1.3-2.1-1.2 1.6-1.4-2.7-5.9 3.2-1.6-3.3-.3 4.1-2.5-3.6 1.4-3.5-1-3.3-4.9-.4-1.9-2.9 3.6-5.3h-3.6l-2.2-5.8h-3.3l-.5-3.4-2.1-1.4 2-1.2-.2-1.9h2.2l.8-4.7-3-.8.2-3.1-5.1.6-1.3-4.6 1.9-1.2 1.8 1.9 2.1-3.5 6.5-4.1-1.4-1 1-1.3-3.3 1.4-.4-4.4 6.1-7.6-.5-9.6-4.9-6 1-3.2-3.3-1.1.5-2.7-3.5-1.4 1.4-2.8-1.8-2.6 4.7-2.6 4 1.5-1.9-3.9 11.3 4.8-.4-3 3.1 1.3 8.5-4.1 1.9 1.2 3.9-5.6-5.7-3.4.3-2 1.7-.3 1-2.8h3.7c0-.1 5.1-6.9 5.1-6.9l3.1-1Z"/><path id="DE-RP" d="m95.2 319 .3-4.1 1.6 3.3 5.9-3.2 1.4 2.7 1.2-1.6 1.3 2.1 3.9-1.5-2.2-7 2.2-1.2 2.3 2.4 1.7-1-.7-3.7 1.9-.4v-1.7l2.7-.3 2.3-2.6 1.3 1.3 1-1.6 1.3.7 2.2-3 .5 1.6 4.9-1 1.6-5 8.6-1.3 3.1-2.6-.4-2.5 4.1-1.5-1.1-4.6 2.3-1.5 2.3.9-.9 2.9 5.6 2.3v4.4l2.9 4.9 3.3.7.4 8.4-1.3 1.1-2.4-1.5-1.9 2 .6 4.5-1.9 2.6 3.8 2.3 2.4 4.7-.5 2.4-2.8-.7v3.4c-.1 0-1.9-1.4-1.9-1.4l-3.1 2.1-1 2.2 1.9 1.5v2.6l-3.2-1.5-.5 2.7-2.6 1.6 4.4 5.3 11.9-3.9 5.5 3.6 2.3 9.4 1.7 3.3 2.2.4-4.8 4.3 2.5 6.6.8 8.2 2.6.9-2.3 6.7 1.5 1.8-3.9 3.7-1.3 8.1-5 8.1-11.9-5.6-2.7 1.5-2.9-1.9-4.8 1.3-5.8-3.2-1.4-4.3-2.3.3.3-1.2-3.2 1.5-2.9-4.9 3.8-3.4.6-4.6-4.4-1.2-1.6-2.7 2.1-2.5-1.5-6.7-2.1 1.1-7.4-4.5-3.5.3-13.2 7.1-9.1-2-.9-1.3 2.9-5.9 3.4-3.3.5-5.3h-3.9l-2.7-2.5-1.6.8-3.5-3.8-.4-3.1-1.8-.2-2.6-6.5 1.2-6.7 2-.9-.6-3.3 4.1-2 1.2-3.3 2 1 1.7-1.1Z"/><path id="DE-SL" d="m94.1 366.4 9.1 2 13.2-7.1 3.5-.3 7.4 4.5 2.1-1.1 1.5 6.7-2.1 2.5 1.6 2.7 4.4 1.2-.6 4.6-3.8 3.4 2.9 4.9-2.7 2.6-5.4-.3-2.3-2.1-1.7 2.6-.8-4.7-4.3-2-3.5.6v3.6l-3.9-.7-2.7-7-4.1-4.1 1.3-1.1-2.4-2.2.5-1.4-4.9-3.1-2.4.3.5-4.9Z"/><path id="DE-SN" d="m328.6 271-3.5-3.3.2-6.1-2.1-5.3 2-.5-1.9-8.5 2.3-1.8 1-4.6 7.6-1.2.7-1.7 1.7.9 5.6-2-.7 1 3.3-3.5 3.2 1.1 2.9-2.4 3.9 3 1.5-2 2.9 1.5 4.3 3.4-.7 1.6 2.5 2.9-1.3 6.1 1.6 2 2.1.7 2.2-3.3 2.2.7.8-1.8 5.7 5.3 9.1.4 7.4-2.2 1.6 1.5 2.5-4.6-1.1-2h2.2l2-4.3 7.8 2.5 2.2-2.5 7.1-2.4 1.9 1.9 2.5-.2.7-2.8 1.3 1 .2 3.5 8.5 3.6 1.1 8.1 2.6 4.4-2.6 12.4-7.2 16.1-7-2.3 1.2-4.6-3.4.8 1.3-4.3-4-2.3v-1.5c.1 0-.2 1.5-.2 1.5l-3.3.3-4.3-2.3-1.7 4.3 2.6.2-.6 1.9 3.4 1.2-.4 2.4-4.8.2-7.5 5.2-7 1.2v3l-1.7 1.1-13.1 1.4v4.1l-2.4 2.2-3.8-2.9-2 4.4-3-.8-2.1 5.5-6.5-.4-.4 3.8-2.9 2.8-5.1-3.5-.4 1.8-.6-1.1-2.4 1-1.1 2.2-1.3-1.2-6.4 1.2-7.2 9.6.2 4.3-1.9-.2v-2.7c.1 0-2-1.6-2-1.6l.6-1.5h-2.1c0-.1-.6-3.2-.6-3.2l-3.3.3-4.9-2 .2-2.3-2.4-2.2-1.1-1.6 2.1-.3.6-2.1-3.8-3.2 5.2-6 2.2 5.2.9-1.6h3.3l-.5-3.3 1.6 1 .4-1.6 2.5.5 2.1-2.1-2.2-1.9.2-2.7H326l2.5-2.9-1.5-2.4 3.8-.2 1.1-1.9 2.6.7 1.7-3.2 6.8-1.6-1.8-4.8-4-1.3-.2-2.9-6.6-2.5-2.1.8Z"/><path id="DE-ST" d="M301.5 145.5h1.6c0-.1-.5 1.6-.5 1.6l2 .2.7 2 1.9-.8 4.1 2.4-.4 2.8 5.8 2.2 5.7-1.2v2.7l2.8-1.7 1.6 1.1 1 3.7-2.3 5.7 1.2 5.8-2.4.3-1 6.2h1.8c0-.1-.2 2.2-.2 2.2l2.3-1.7 3.5 2.9-2.3 4.1 1.3 4.4-2.5 6.1 2.1 1.5-3.1 3.8 8.6 9.8 1.8-1.1 2.4 3.1 2.9.2 2.3-1.9 4.3 3.2 2.6-.3.3 2.1h4.2l.6 2.3h2.9l-.2 1.8 3.9-.6 1.9 10.4-5.3 4.5-2.9-1.5-1.5 2-3.9-3-2.9 2.4-3.2-1.1-3.3 3.5.7-1-5.6 2-1.7-.9-.7 1.7-7.6 1.2-1 4.6-2.3 1.8 1.9 8.5-2 .5 2.1 5.3-.2 6.1 3.5 3.3-1.3 3.3 1.6 1.1-3 5.1-1.2-2.3-6.6.5-5-5.5-5.2.8-3.6-4.4-7.3.5-.6-5.7-4.1-1.8 4.3-4.8-3.2-5.4-3.1-1.9-13-.5-1.8-7.6-2.4-2.6.3-1.5 1.4.7-.3-1.7-8.8-1.5-5-10.8v-2.4c.1 0 3-2.7 3-2.7l-1.5-3.1 1.5-1.2-3.5-3 5.5-2.9 10.5-.4-.9-3 4-2 .6-2.5-1.9-1.6 2.9-2-4-7.3 3.6-2.2-5.6-5.6.4-2.1h2.5c0-.1-2.8-4.8-2.8-4.8l1.5-3.7-2.2.9-3.6-7-1.2.2-1.2-8.4 6.9-.7 2.6-3.8 12.2 2.2 7.5-4.1.3-4.3 1.9.4 1.7-2.4Z"/><path id="DE-SH" d="m177.7 50.5 1.5 1.5-1.2 1-1.7-2.7h1.4Zm103.2-5.3 5.9 1.8 3.3 6.9-4.9-1.4-2.8 1.3-1.3-3.1-2.6.3 1 1-1.6-.9.8-4.5 2.1-1.5ZM178 45l-.6 2.7-.7-3.3zm8.5-1.6v3.9c-.1 0-3.5.7-3.5.7l-1.1-2.8zm-5.9-1.5.8 1.4-2.6-1.3h1.8Zm-6.9-4.1.6 1.7-1.5.3-2.8-3.9 2.8-3.2-.9 1.7zm5.7-8 2.4.7-.8 4.5-6.7-1.5 1.1-3.1 3.9-.6Zm-3.5-20.3 1.1.4h-2.8L176 12l-3.5 3.2.7 4.7 2.2 1.4 6.9-.7 1.4-1.7 12.4.6 11.4 3.6.6 2.8 1.8.6h2l2.6-2.8 1.1 3.7 7-6-.3 3.2 7.5 2.3 2.4 3 2.1-.7v-2.3l2 1.2 3.2 6.4h-1.6l1.5 1.1-.3 8.1-2.5 3.3-5.2 2 1.3 1.8 10.3-2.5 3 2-2.7 9.8 2-1.1 1.7-5.9 3.9-1.5 10.9 4.9 4.1 4 3.4-.5 5.6-4.7 3.7.9 3.5-2 .5 1.8-2.7 1.3 1.4 10.6-8.8 7.6-2.4-1.4-2.3 3.9 1.3 3.4 3.4.4 1.3 2.4-.4 2.3 2.9 1-2.1.6-1.2-1.8-4.3 3.5-.5 8.1 3.6 3.3 2.9.2 1.2 3.4-1.7 5.2-3.5-.2v4.1c.1 0-7.5 4-7.5 4l-1.5 6-11.4-4.6.7-1-4.6-4.8h-2c0-.1-.4-3.5-.4-3.5l1.9-.8.9-3.2-3.1-2.9 1.9-3.1-1-1-3.5 1.2-.6 2.8-2.6-.2-.8 2.3-2.9-.4-2.8 4.4-2.6-3-1.6 5-7.2-4-1.8-5.1-7.6-10.7-4.2-1.8-8.1.3-3.9-4.1-.9-4.6-3.1-1.4 3-1.5 3.1.7 1.1-1.5-2.3-5-2.8.8-1.9-3.5 1.2-7.6-5.2-.4-1.3 1.5-3.9-2.9 1.1-3.2 1.3 1 1.9-1.2-3.3-.9.5-1.3 10.1-1.3 7.1-4.6-1.9-.2-.7-2.7L194 50l-3.6-.7 3.4-8.4-.5-1.1-2.6.8 1.7-1.4-6.5-7.3-3.7-10.9-7.3 2.5-2.9-2.2-2.4 8.9.6-11 3.9-9.8h1.7Z"/><path id="DE-TH" d="m265.8 235.9 8.8 1.5.3 1.7-1.4-.7-.3 1.5 2.4 2.6 1.8 7.6 13 .5 3.1 1.9 3.2 5.4-4.3 4.8 4.1 1.8.6 5.7 7.3-.5 3.6 4.4 5.2-.8 5 5.5 6.6-.5 1.2 2.3 3-5.1-1.6-1.1 1.3-3.3 2.1-.8 6.6 2.5.2 2.9 4 1.3 1.8 4.8-6.8 1.6-1.7 3.2-2.6-.7-1.1 1.9-3.8.2 1.5 2.4-2.5 2.8h1.6l-.2 2.7 2.2 1.9-2.1 2.1-2.5-.5-.4 1.6-1.6-1 .5 3.3h-3.3l-.9 1.6-2.2-5.2-5.2 6 3.8 3.2-.6 2.1-2.1.3 1.1 1.6-3.9 2.1-1.8-1.9-10.2 2.8-1.6-3.4-1.6.6-.9-1.5.4-4.2-3.4-.6-2.2 2.8-1.7-.2 1.5 7.4-1.3 5.7-4.2-1.1.5-2.8-1.7-2.2-5.2 1.2-1.9-2.8h-4.1l-4.7 2.9v1.6l5.2 2.8v1.9l-4.5-.4-.6 2.9-4.3-1.6-.3-6.4-2.2-1.9-2.1.5-1.6-2.9-2.3.5-2.6-6.2-3.9-1.1-1.1-2.7-2.4.7-1.4-1.3-2.6 3-.2-5.9 1.8-.7-1.1-3-4 .2.2 2.4-3.3-.7 3-11.3 3-.8 1.3-3-1.9-2.5-1.6.9.6-1.5-1.5-.7 4.5-.2-1.7-2.3.8-2 6.6.3v-1.7l-2.5-1.5 1.3-3.6-2.2-1.4 1.8-.9 1.3 2.5 1.5-4.6-6.7-2.6-.5-3.3-3.3-.4-1.8-5.8 4.7-3.9.9 1.2 3.4-.8 1.9-3.5 1.2 1 2.6-1.5 2.8-6 2.5-.3 3.4 2.4 3.5-1.6 2 1.3-.7-3.9 2.5-1.4Z"/></g></svg>