<?xml version="1.0" encoding="UTF-8"?>
<svg id="Layer_1" xmlns="http://www.w3.org/2000/svg" xmlns:amcharts="http://amcharts.com/ammap" version="1.1" viewBox="0 0 512 512">
  <!-- Generator: Adobe Illustrator 29.1.0, SVG Export Plug-In . SVG Version: 2.1.0 Build 142)  -->
  <g id="_x3C_defs">
    <amcharts:ammap bottomLatitude="34.803673" leftLongitude="19.375819" projection="mercator" rightLongitude="29.609274" topLatitude="41.7448887"/>
  </g>
  <g>
    <path id="GR-A" d="M309.9,120.1l3.3.8,2.1,1.8-.2,2.8-4.6,1.8h-2.1c0-.1-5.7-5.3-5.7-5.3l1.2.2,2.8-2.1h3.2ZM264.1,101.4l1.8,1.1,1.1-.5,1.1,1.9,2.3,1.3-1.3.9v.8c.1,0,1.2.2,1.2.2v1.2s-1,.8-1,.8l1.1,3.1-.4,1.2-.6-.7-1.1,1.2-2.4.5-2.3,1.6-.2-.9-1.8-.7.2-.9-.9-.9h-3c0,0-.8-2.6-.8-2.6l2.4-6.4h1.2c0,0,3.2-2.5,3.2-2.5l.4.4ZM340.6,40.3l.8-.5,2.9,1.9h3.4c0,0,1,.9,1,.9l5.4,1.7v1.2s2,2.1,2,2.1l3.1.8v5.5s.9,6.6.9,6.6l.8.4.3,2.2-.3,2.4-1.7,1.5-3.7-.8-1.6,2.2-1.1.4-.2,1.1-1.2.2-1.6,1.7-2.3.2-.7-.7-1,.5v4.4s-.8.7-.8.7l1.5,2-1.7,2,1.5.2-1.1,2.3.7,2.1,2,1.4-.4,1.4-1.6.9,1.7,2.5-2.8,1.2-.8-.3.2,2.4h-.8c0,0-1.3.8-1.3.8l-1.2,1-.7,2.4-2.7,1.2-1.4,2.5-.2,1.9-2.5,1-1.9-.2-.7-4.2,2-1.5-.7-.6h-1.5c0,0-.9,1.4-.9,1.4l-2.2-2-2.2-.5h-8.9c0,.1-6.9-1.4-6.9-1.4l-1.9.6-4.8-2.5-3.7-.8-1.5-1.9-2.2-.3-1.9,1.4-.7-.9-3.7-.3-2.2-1,.5-2.1,1.4-.7-1.5-.8-.7.6h-3.4s-2.6,2.6-2.6,2.6l-.5,2h-1.8c0,0-3.6,1.3-3.6,1.3l-3.7,4.1-2-.7-3.5.2-1.6-1.1-1.6.8-3.1-6-2.7-.5-1.9.4v.6c-.1,0-2.2,0-2.2,0l-.7.9-.9-.3-.8,1.6-1.7.6-1.4,1.5,1,1.2-.3,1,.4,1.2-2.9,1-9.5,5.7-2,.2-2.2-.7-6.6-3.2h0l.3-1.8,3.1-.8,4.6-4.7h1.4s0-1.8,0-1.8l1.8.3-.3-1.1,1-1.7.2-2.7-4.1-3.3.2-2.1-2.6-1.7-2.2,1.9-4-3-2.9-1.1-2.3-2.9-1.4-.2.2-1.4-1.3-2.6.9-3.3-4-1.1-.4-3.7h0l.9-.2,1.4-2,4.5.9,1.7-2.6,4.5-.9,1.1-2,2.9,2.8,2.2-1.9.4.9h1.1c0,0,1.2-.8,1.2-.8l-.6-3.7,2-1.7,1.6,1.1h1.2c0-.1,1.2,1.3,1.2,1.3l1.3-2.3h1c0,.1,1.6-1.5,1.6-1.5l2,2.3v1.8c.1,0,1.8-1,1.8-1l1.3.6.9-1.3,1-.2,2.3,1.2,1.1-1.9,2.5-1.1,1.4,1.2.3,3.1.6,1.8,1.2.8.8,2.6,2.2.5,1.2-.5,2.3.6.8,2.2,2.9,2.3.6-.6v-3c.1,0,2.8.6,2.8.6l2.1-1.1,1.3,1.4,5.5,1.4,2.1,2,1-.3,5,3.8.6,2.2,2.5.8.8-.7,1.8.3,1.6-1.2,2.9-.3,2.4-1.5,2.7.7,1.5-2.6,2.6.9,2.2-.6,2.4,1.5.6-1.7,2.9-.2,2.2-1.7,2.4,1.2.5,1.5h1.1c0-.1,4.6-1.3,4.6-1.3l.4-1.1,1.4-.5,4.7-.3,1.4-2.4v-1.9s.5-.8.5-.8l1.5-.2-2.3-3,1.6-2.5-.4-2.3-1.5-.2.3-3.3-.8-1.8-.9.6-1.2-.2-1.2-1.5-.5-2.5.5-1.4,2-.2.4-1,2.2-1.3,2.3,1Z"/>
    <path id="GR-B" d="M201.5,143.6l1.7.9,3.6,5.8,5.1,2.6,3.4.9,1.3,3h2.6s.2,1.2.2,1.2l-1.7.5-6-.8-6.4-3.2-5.3,1,1.3-3.1-3.8-6.2.9-1.7v-4.4s.6,0,.6,0l1.3,2.9,1.2.8ZM206.3,62.1l2.2-.4,1.1,1.1,1.5-.2.9.8h1.5c0,0,.4,3.8.4,3.8l4,1.1-.9,3.3,1.3,2.6-.2,1.4,1.4.2,2.3,2.9,2.9,1.1,4,3,2.2-1.9,2.6,1.7-.2,2.1,4.1,3.3-.2,2.7-1,1.7.3,1.1-1.8-.3v1.7c0,0-1.5,0-1.5,0l-4.6,4.7-3.1.8-.3,1.8h0l-1.7-.3-4.7,1.9-1.7,2.9-.4,2.4,2.3,1,2,2.6.2,1.5,1.7.8.6,1.4h2.6c0,0,1.7,1.5,1.7,1.5l-1.2.9h-3.1c0,0-.5.9-.5.9l.3,3.4,1.6,2.4,3.3,2.1,2.1.3,1.8-.7h0l.5,3.1-.6,1.7h0l-3.3-2.8-4.3-.8-3.4,2.1-2.3-1-.5,1.3h-.9c0,0-.6,1.8-.6,1.8l.7,3,1.4,1.9.2-.6,1,.6.7,2.5,1.7-.2.8.9,4.4,1.4,4,3.2-.8.4v1c0,0,1.4,2,1.4,2l.5,1.1.2,1.9-1.7,1.4.7.9-.4.9-.2.5-3,.7-.3-1.8-1.1.3v-1.4c.1,0-.6-.9-.6-.9h-.8s-1.8-1.8-1.8-1.8l-.7,1.1-2.5-7.1-5.8-6.9-5.6-.7-2.1-1.5-4.7-1.3-2.4,2.3-.9,2.8h-.6s-1.4-2.4-1.4-2.4l-7.4-2.4-1.9-1.6-4.1-1.6-.3-1.3-1.5-1.4-2.4-.9-2.3.5.7-1.6-1.9-2.3-.6-2.2-1.9-.7v-1.5c0,0,5.5-.6,5.5-.6l2.6-2.5-2.2-1.9.7-1.1v-2c-.1,0-2.8-1.1-2.8-1.1l-2.9,1.7,1.2.3v1.2l-1.2,1.2-4.4,1.1-.3,3.3-1,.3-.5-1.1-.3-.6h-.8s-1.7.8-1.7.8l1.5,2.1h-1.7c0,0-1.1.2-1.1.2l-1.6,1.1,1,1.4,1.1,4.1,1.7,1.2-2.9,5.2-.7,4.6-2.1,4.2,2.3,8.4,3.8,2.6h0l.8.7-1.1,1-.7-1.2-1.5-.4-1.1.9-3.6.6-1.4-1.3-.6-2.7-2.7-2-1,.4-.6-.9-1,.6-1.6-1.9,1.3-4.5-1.2.6.3-1.9-1.5-1.5-1.8.5-2.3,3.9-1.2.5-.4-2.8h-.9c0,0,1.3-1.8,1.3-1.8l-.3-.7h-4.4c0,0-.4,0-.4,0h0l-.5-.7.5-.6,2.8-1.5,1.2-4.2-1.7-.2-1.5-1.3v-1.1s1.2-1.2,1.2-1.2h-1.4c0,.1-1.6-1.5-1.6-1.5l.6-3.1-1.8-.6-2.2.3v-.7c.1,0-2-2-2-2l-2.6-.6-.2-1.8-1.4-2,1-1.6-1.4-1.3-.2-2v-1.2c0,0,1.2-.7,1.2-.7v-1.8s-2.2-.7-2.2-.7l-.7-.9-1.3.7-.4-1.9-1.6-1.1.9-2-3.1-.5.4-2.2-1.6-2.4,3.2-1,2.7-2-1.2-.5-.9-1.5h0l.8-.8v-2.1c-.1,0,2.1-1.3,2.1-1.3l1.7-2.8,1.6-.6-.2-2.8,3.2-2.3,2.6-.3,1.6-1.8,3.2,2.5,1-.3,1.2-1.9,2.2-.8,2.5.4,1.9,1.2.8-.3.3,2,1.2-.9,2.3-.2,1,1.3,6.9-.8,1.5.8,3.6-4.4,2.3,3,1.2-.6.6-.9.5-9.5,2-2.1,11.2.5,2.8,1.3h2.7c0,0,3.3-.7,3.3-.7l1.2-1.6v-1.8c0,0,2.6-1.6,2.6-1.6h1.9s1,2.3,1,2.3l3.1-2.4,3.7.2Z"/>
    <path id="GR-C" d="M119.3,92l2.3,1,1.6-.5h0l.9,1.5,1.2.5-2.7,2-3.2,1,1.6,2.4-.4,2.2,3.1.5-.9,2,1.6,1.1.4,1.9,1.3-.7.7.9,2.2.7v1.8s-1.1.7-1.1.7v1.2c0,0,.1,2,.1,2l1.4,1.3-1,1.6,1.4,2,.2,1.8,2.6.6,2.1,2v.7c-.1,0,2-.3,2-.3l1.8.6-.6,3.1,1.6,1.6h1.4c0-.1-1.2,1.1-1.2,1.1v1.1s1.5,1.3,1.5,1.3l1.7.2-1.2,4.2-2.8,1.5-.5.6.5.7h0s.2,1.5.2,1.5l-.9-.6-.4.5.4,1.7-4,5.2h-1.2c0,.1.2,1.2.2,1.2l-2.4,3.3-1.8.5-.4,1.2-1.7.5,2.1,2.4.5,3.8-.4.9-3.9-1.1-2.2,1-2.7-1.5-2.2.8-1.4-1-1.9,1.2-1.8-2.6-4.9.4-1.1-.7-1.6.3-.9,1.3h.9c0,.1-.3,1.5-.3,1.5l-1.9,1.3-1.7-.3-1.6-2-1,.7h0l-1-1.3-2.1-.8-2.5.6-.8,1.3-3.4-1.2-.9-4.5-2.5-2.9,2.1-.4.7-3.6-1.6-.7-2.1.7-1.1-3-1.6-2,2.3-1.3-.2-2.4h-1c0-.1.6-1,.6-1l-3.6-5.9-2.2-2.3-4.7-.9h0l.7-2.2-.3-2.8,1.8-.9,1-2.6,1.5.6,1.7-.3,1,.9,1.4-.4.7-3.3,1.4-.9.4-1.3,1.8-.3.7-7-3.6-4.6v-1.6s-1.3-.5-1.3-.5l1.4-1.4v-4.1c0,0,8.4,0,8.4,0l2.7-1.8,2.5,1.6,4.9-1.2,2.8-2.5,2.3.6,3-.2,2.1,2.9h1.3s2.1-2,2.1-2h1.7c0,0,0-1.9,0-1.9l.6-.9h1.2Z"/>
    <path id="GR-D" d="M73.5,130.2l4.7.9,2.2,2.3,3.6,5.9-.6.8h1c0,.1.2,2.5.2,2.5l-2.3,1.3,1.6,2,1.1,3,2.1-.8,1.6.7-.7,3.6-2.1.4,2.5,2.9.9,4.5,3.4,1.2.8-1.3,2.5-.6,2.1.8,1,1.3h0l-1.7.3-.5,3h-1.2c0,.1,0,4.3,0,4.3l1.5,2-.3.7-.7.3-1.7-1.6h-1.7s-.3,1.1-.3,1.1l-1.9,1.4,1.6,1.9v1.9c0,0,1.4.5,1.4.5l.9,5.1-1.1,1.8h1.7c0,.1,0,1.3,0,1.3l-1.1.4.2.6,3.3,3.1.3,2.4,2,1.3h3.3c0-.1,1.5,1.8,1.5,1.8v1.6s1,.5,1,.5l-.7,2-2.4,1.9-.9,1.6v1.2c.1,0,1,.8,1,.8h0l-5,3.8-1.9-.9-1,.7-.8-1-.8.8-2.8.4-1,1.2.6.9-1.2.5,1,2h0l-2,.3-1.5,1.4.6,1.2-2.1-.7-.8.5-1-1.9h-.9c0,.1-1.3-1.5-1.3-1.5v-1.4c0,0-.6-.2-.6-.2l-.9.6.2,1.1h-1.2c0,0,.5,1.3.5,1.3l-.8.2v-1.8c0,0-.8.3-.8.3l-.3-1.2-.8.6-.5-.6,1.4-1-1.5-2-.9.8,1,.3-.8.5-.4.3v.5c0,0-.2,1.9-.2,1.9l-1.5,2.4h-.8l4.5,3.5-3.6-.8v1.3s-1.5,0-1.5,0l-1.4-2.9.8-1.1-.4-2-2.1-2.5-4.3-3.3-2.1-3.2-2.9-1.9v-3.7c0,0-.7.4-.7.4l-1-.8-.4.5-1.9-.7-.4.5-2.3-.4-2.6-2.7-.3-3.3-.9-1.1-1.5-.3.4-.5-1.3-2.3h3c0,0-3-2.9-3-2.9l.7-.4,1.4.7.3-1.4-1.4-.8-2.9.4-.8-.7,2.1.2-1.6-1-1.5.4,1.4-1.5v-2.6c0,0,1.1-.9,1.1-.9v-1.1s-2.3-.8-2.3-.8l-1.3-1.4-.6.6-2-2-1.7.3-.7-.9,1-.6,2.9,1.2,1.9,1.7,3,.6,1.8-.2-.4-1.1.6-1.2,1.6.9v-1.5c0,0,2.8-2.3,2.8-2.3l-1.5-2.1.7-1.2-.9-1.5.7-.7,3.8,2,1.6-2v-1.6c0,0-2.5-4.4-2.5-4.4l-1.2-.9.4-1.5-1.6-2.8,4-.3.9-3.6,2-1.5,1.8.6,1.1-1.2,1.8,1.2h1.2s1.4-.3,1.4-.3l1.2-1.3,2.5-.3v-2c0,0,.8-1.5.8-1.5l-.9-.9v-1.5c.1,0,1.5-.6,1.5-.6l.9-1.6-.7-3.3,1.3-2.3,1.3-.6-.3-.9.9-.8Z"/>
    <path id="GR-E" d="M237.6,209.7l-.2,1.5.6.6-.7.5-.6-2.2.9-.4ZM205.4,202.8l2.4,1.3-.5,1.1-1.2.5-.8,2.1-.8-.9-.9.3-1.1-.7-.7.5-.2-1.1,2.7-1.3v-1.1s1-.7,1-.7ZM212.4,202.6l2.2,2.5,3.6,1.7.4,1.7.6-.7,2.4.5-1.3,2.1-2.3,1.2-1.1-1.3h-1.9s-.2-2.1-.2-2.1l-3.1-4.7.7-.9ZM230.6,201.5l.2,1.3.6-.2-.4,3h-1.5c0,0-.8-1-.8-1l1.9-.8-.8-1.6.4-1.3.2.7ZM229.5,197.8l.2.8,1.3.5-2.8,5.2-3.1,3.1-1.7-.2v-.9c0,0,2.5-1.5,2.5-1.5l-.6-1.6,2.1-1.8,2.1-3.6ZM235.4,192.7l1.2,1.2-.3,2.6-1.2.9-1-.6.9-.8-1.2-.4.6-1.9,1.1-1ZM248.1,192.6l-.3,2.1h-.5s.1-1.6.1-1.6l.7-.5ZM240.6,190.2l.4.7-1.5,2.1v-.6s-1,0-1,0l1.1-.7v-1.1c0,0,1.1-.4,1.1-.4ZM139.4,140.3h4.4c0,0,.3.8.3.8l-1.3,1.9h.9c0,0,.4,2.7.4,2.7l1.2-.5,2.3-3.9,1.8-.5,1.5,1.5-.3,1.9,1.2-.6-1.3,4.5,1.6,1.9,1-.6.6.9,1-.4,2.7,2,.6,2.7,1.4,1.3,3.6-.6,1.1-.9,1.5.4.7,1.2,1.1-1-.8-.7h0l1.8,1.3v2.5c0,0,1.3,2.8,1.3,2.8l5.7,4.3,2.2,10.1,1.9,4.4,2.4,1.5,1-.2.8,1.4h1.4s2.3,1.8,2.3,1.8l1,2.5,3.6,4,.9,2.2,3.2,3,.7,3,1.5,1.6,1.7,3.6-.7,1.7-1.5,1.2-4.7,1-.2.6,1,.4-1.1,1-.8-.5-3.3,1.3h-2.4c0,0-1.1-.8-1.1-.8l.9-2.7,1.2-.2.7-1.1v1.4c0,0,.7.1.7.1l-1.4,2.4.7-.2,3.4-1.7.3-2,1.5.8.3-2.6-1.4-1.3-1.3-4-2.1-2-4.9-.7-1.4-2.3-3.1-.6-.3.7.8.4-.7,1.6,1,1.2-6.2,1.4v3.9c0,0,1.7,4.1,1.7,4.1l1.2-1.2-.5-1,1-.2-.2,1.3h.7c0-.1.5.8.5.8l.5,2.7h.9s-.4-1.2-.4-1.2l2.4,2.1v1.4l.9.6-.6.8.4,1.1-1.7.3v1.7c0,0,3.5-2,3.5-2h1.6c0,0-.5,1.4-.5,1.4h-1.3c0,0-.5.6-.5.6h0l-4.2,2.2-2.3-.4-1.1-1.8-5.4.4-.5-1.2h-1.8s-1.2-1-1.2-1v-.9c0,0-.8-.4-.8-.4l-3.2,1-.7-.5h-4.6s.5-1.2.5-1.2l-.6-3.2.6-1-2.8-.7-.3-2.9-1.5-.6-.8-1.9-5.1-.6-1.1-2.3h-.8s-.2,1.7-.2,1.7l-1,.7-2.1,3.9-1.6.9.2,2.4-2.3,1.5-1.9-.2-1.4,1.4.6,1.7-.4.3-4.5,1.4-1.1-4.9-2.8-1.5-.8-1.7h-1c0-.1-1.4,2-1.4,2l-1.5.8-2.3-.6-.2-1.8.8-2.2-2.1-.5-.6-1.7.8-.9-1.1-1.4-2.5-.2-.9.8h-1.5s-1.5,1.6-1.5,1.6l-2.1-1.3-2.3,2.1h-.8c0-.1,0,.9,0,.9l-2.3,1.5h0s-1.2-.8-1.2-.8h0l-.9-.8v-1.2c-.1,0,.8-1.6.8-1.6l2.4-1.9.7-2-1-.5v-1.6s-1.5-1.9-1.5-1.9h-3.3c0,.1-2-1.2-2-1.2l-.3-2.4-3.3-3.1-.2-.6,1.1-.4v-1.2s-1.8-.1-1.8-.1l1.1-1.8-.9-5.1-1.5-.5v-1.9c0,0-1.6-1.9-1.6-1.9l1.9-1.4.3-1h1.7s1.7,1.6,1.7,1.6l.7-.3.3-.7-1.5-2v-4.2s1.2-.1,1.2-.1l.5-3,1.7-.3h0l1-.7,1.6,2,1.7.3,1.9-1.3.3-1.4h-.9c0-.1.9-1.4.9-1.4l1.6-.3,1.1.7,4.9-.4,1.8,2.6,1.9-1.2,1.4,1,2.2-.8,2.7,1.5,2.2-1,3.9,1.1.4-.9-.5-3.8-2.1-2.4,1.7-.5.4-1.2,1.8-.5,2.4-3.3-.2-1.1h1.2c0-.1,4-5.3,4-5.3l-.4-1.7.4-.5.9.6-.2-1.5h.2Z"/>
    <path id="GR-F" d="M70.1,284.1l2.5,3.8,3.1.5,4,2.1-.2,1.9,4.5,2.9-.2,1.4-4.3-1.9-1.7.7-1.3,1.7-.3.9,1,.9v.9s-1.3.6-1.3.6l-1.3-.7v-.9c0,0-1.7-.9-1.7-.9l-.6-1.5-3.2-2.2.2-1.1-1.3-.8.4-1-1.5-.4-1.1-1.5-.2-2.9.9-1.7,2.9-2.3.5,1.6ZM62.9,249l1,.4.7,3.7.8.2.8,4.8-1.4,1.4,1.2,2.6.9.5,1.6-1.7-.2,1.1h1.1c0,0,.7,2.2.7,2.2l5.1,6.9-1.4,3.6-1.1-.8-1.1.5-2.1-.6-4.1-3-2.3,1-.2.7-2.7-.7-1.2-1.2.4-.9-1.1-1.5.3-.8-.6-1.2,1.7,1.7.3-.3-3.2-6.9-1.1.8.8,2.6v4.1s-2.8.8-2.8.8l-.3-1.1-1.8-.8,1-5.2h.9c0,0,.6-1,.6-1l.5-4.8.5,1.2,1.5-1.3.3,1.9h1.1c0,0,.3,1,.3,1l2.8-2,.6-1.3-.4-1,.5-.5-.6-5.2,1.3-.2ZM67.2,247.2l1.4.8-.7,1.9h1.4c0-.1-.1.6-.1.6l1,.9-1.7,4.3,1.4-.5.2-.8.4-.3,1,.3.4,3.7,1.2.6-2.2,1.2-1.5-1.3-2.4-7.4-1.3-1.5.2-.9,1.5.5v-2ZM73.6,236.4l.5-.2v.8c0,0,.9-.3.9-.3l-.2,1-1.1.7-.8-.3-.5,1.2-1-.9.2-1.8,1.2.6.9-.9ZM69.4,225.2l1.3.3-.6,1,.9,1.6-.4,2.8.7,2-.9,1.5.5,4.6-.6.6-.9-1.1.3,1.3-1.3,1-.9-.5-.7,2-.3-1.4-.9.2-.9-2.1-2.7,4.4.6-7.5,2.2-6.3,2.3-3.3h1.3c0,0,1-1.2,1-1.2ZM46.4,206l1.6,1.7-1.9-.6-.4-.6.7-.5ZM41.9,200.5l1.8,1.1,1.8,3.2h-1.6c0,0-1.8-1.5-1.8-1.5l-.8-1.5v-1.2s.6,0,.6,0ZM28.1,164l5,2.8-1.3,2.6-2.8,1-1.7,1.5v1.2c.1,0,1.2.8,1.2.8l-1,.3.4.8,4.2,1.5-1.1,3.6.9,5.3.4.8,3,.9.9,1.5,1.8-.6.9-1.2,2.5,5.2-.5,1.2-5.5-2.4-2-1.6-2.4-.4-1.9-1.5-1.1-2.6v-3.2c0,0-1-1.8-1-1.8l-4.3-3.2-1-1.9.4-1.3-2.7-.4.5-2.1-.8-.6-.6.7-.5-2.8,1.5-2.9,2.1.7,1.7-.6,2.2.5,2.9-1.8ZM5.8,161.5l1.6-.2-1.1,1.5-1.6-.2.2-1.7.9.6Z"/>
    <path id="GR-G" d="M90.2,258.9l-1,2-.2-1.1.6-.2v-.9s.6.1.6.1ZM126.2,257.4l1.3.8,3.3-.3,2,1.1h1.2c0-.1.8,1.6.8,1.6l2,.8.6,1.1,1.5-.8,1.9,3,2.4,1.1.8,1.2,2.8.6,3.2-.3,1.8,2.1h0l.2,3.7-.8,3.6-1.9,2.4h-1c0,.1-.6,1.5-.6,1.5l-2.5.7.3,2.3-1.2,1.6,2,3.2-2.6.8-1.8,1.8-1.9-.6-.4-.8h-1.1c0,.1-2.2,2.5-2.2,2.5l-3.4-1-2-1.5h-1c0,.1-1.6-1.2-1.6-1.2l-.4-1.6-3.7,2.8-.8,1.3v3.3c0,0,.8,3.4.8,3.4l-.9,5.8.5.5,2-1h1.9c0,.1,1.8,3.2,1.8,3.2l1.3.4,2.5,2.8-5.3,3.2.4,2.8-2.1.7h-7.6c0-.1-.8.6-.8.6h0l-3-6.2-4.1-5.1-8.3-5.8h-2s-.7,1.8-.7,1.8l-.5-2.9.9-1.4-1-3.6-3.7-3-5.5-2v-2.4c-.1,0,.8-3.5.8-3.5l.6-.3,1.3,1,1.5-.6,5.2-5.3,3.2-6.1.2-6,.9.2,1,1.5,2.1-.5,3.8,2.7,3.7.7,3.3-1.5,2.2-2.7,1.5-4.4,1.7-2,2.2-.2,1.2-1.3ZM88.9,252.1l.7.4-.3,1.5-.9-2.6.5.8ZM81.4,241.2l-2,2.6.4.9h-.6s0-1.6,0-1.6l1.7-2.3.4.3ZM82.5,238.1l-1.6,2-2.1.9.2.7-.9.8v-1.4c-.1,0,1.5-2.9,1.5-2.9h2.9ZM102.6,204.7l1.2.8h0s0,1.9,0,1.9l1.7,2-1.1,2.9-1.7,1.8.2.9,5.2,2.5,1.8,4.7,4.5,1.4.5.9-.4,1-2.1.2-1.2,2.9,1.3,3.9,5.9,2.1,3.2-.7.6,2.4,1.8-.6,1-3.1,3.1.6,2.1-.8v-2.7c0,0,2.8.4,2.8.4l1.3,1.9v.9s-1.3.7-1.3.7l-.5,1.3.8,4.5-1.6,1.2,2.2,1.2-1,2.6.4,1.7-5.6,2.9-.5,4.1-1.1,1.4h0l-.9-.7-2.2,1.2-1.1,2.9-3.1-1.5-1.1.3-1.9-.7-1,.9h-1.5c0-.1-.5.9-.5.9l-3.5,2-1.3-.2-3.1-1.8,1.3-.3,2,1.6-.7-2.2.7-1-.9.2v-1s-2.1.7-2.1.7l-.7-.4.8-.7-.7-1-.4,1.1-1.6-1.2-.4-2.4-.4-.5.3-.4-2.1-3.3-.8,1.2,2.4,2.7-.6.4v2.9s-2.3.7-2.3.7l-.5,2.2-2.2.4-1.3,1.1,2.2.6-5,.3-.8-.4-.3-1.9h-1.6c0,.1.4-1.5.4-1.5l-.8-.3.3-1.2.3.9,1.1-1.6v-.9c0,0,1.2.2,1.2.2l.3-.5-2.3-.4.6-.5-1.2-2.5.3-.7-1-.9.7-2.3-.9-.2-1.7,1.9h-.9v-1.4c-.1,0-.9-.5-.9-.5l.7-4.4-1.7-2.6v-1.5s-3.7-.3-3.7-.3l-2-7.5h-1.2c0-.1-2.2,2.2-2.2,2.2v-.5c-.1,0-1.6.8-1.6.8l-2.2-3.7.7-2.5,2.5-1-2.1-3.3.9-2.2,1.1,2,1.1.4,1.5-.2,1.2-2.3v2.4c0,0,2.1-.2,2.1-.2l.6-1.7,1.1,1,1.8-.8.9,1.5,1.4-.6-.3,2,2.9,2.1,1-3,2.5,1.2.8,1.9.5-.3-.4-2.2-1.3-1.2.6-4.3-2.4-3.5h0l-1-2,1.2-.5-.6-.9,1-1.2,2.8-.4.8-.8.8,1,1-.7,1.9.9,5-3.8Z"/>
    <path id="GR-H" d="M244.9,277.4l.8,1.1-.3,1.2h-2.1c0,.1.4-2.4.4-2.4h1.2ZM255.9,217.6l4.4,3.1-.6,3.2,4.8,3.2.8,1v2.1s-2.2.5-2.2.5h-.8c0,.1-1.8-1.6-1.8-1.6l-1,.4v1.5c0,0-.5-1.3-.5-1.3l-1.2-.5,1.9-1.2-.2-2-1.5-.6-1.5.6-1.1-.8-.8-.9-.4-.8-1.3.2,1.8-2.4-.9-1.8.3-1.2,1.4-1.4.3.6ZM197.6,213.5l1.7,1.5,1.8.5-.2,1.4.7,1.4,2.2.5v3.2c-.1,0,.9,1.2.9,1.2l-.5.3,1,2,5.7,4.3,1.5.5,1.1,1,1-.3,1,.6,1.8-1.1,2.6,3.9,5.1,2.1,1.7-.4,3,1.1,1.3-1.3,1.4.6,1.8-.9,5.4,2.2-1.6,1.5v2s5.4,4.5,5.4,4.5l-2.2,2.5-.3,3.1,1.3,1.7h-.8c0-.1-.4.8-.4.8l1.5.8.3,1.1-.7,1.5,1.6,1.4-.2.8,1,1-.4,3.7,1.2,1.9,2.1,1.1.6-.4v1.2s1.1.8,1.1.8l2.3-.7,1.4,1.3,6.1.3,2.1-1-.8,3.1.7,2.8-.2,2.3-1.3,2.8-3.1,1.8-1.1-.6-.7-2.5-2-.8-1.3.5-.3,1.2.8.5-.8,1.1h-.6c0-.1-3.4-4.1-3.4-4.1l.8-1.1-.7-1.6h-1c0,0-.2-.8-.2-.8l-1.2-.7-2.9.5.6-2.3-1.7-.4,1.6-2.2-1.2-3.1-2.2-.7-.6,1.2-.5-.8,2.1-2.9-.3-.7-.7-.2-1.3,1.9-.8-1.8,1-.5-.2-1.8-4.3-.8,1.8-.8-.5-3.4-1.5.3-1.1-.9-1.6,1.2h-3.5c0,.1-3.4-1.2-3.4-1.2l-1.7,1.1-4.6-1.6-2.4.9-1.3-3-.5-.5-1.1.4.8-1.8h1c0,0,.5-1.8.5-1.8l-1.8-4-4.3-1-1-3-2.1-1-1-2.1-2-.9-3.2-4.1-1.9-.3-4.2-4.2-3-1.1-2.7.8-1.9-.9-.5-1.8-3.4-.4-.7,1,1.6.2.4,1.3-1.6.9h-3.6c0-.1-2.8.7-2.8.7l1.1-2.9,7.7-2.6,2-2.2,1.6.2.5-2.6,1.9-1.5h3.7c0,.1,1.1-.9,1.1-.9l3.7-1.2ZM103.9,205.5l2.3-1.5v-1s.8.1.8.1l2.3-2.1,2.1,1.3,1.5-1.6h1.5s.9-.9.9-.9l2.5.2,1.1,1.4-.8.9.6,1.7,2.1.5-.8,2.2.2,1.8,2.3.6,1.5-.8,1.4-2.2h1c0,.1.8,1.9.8,1.9l2.8,1.5,1.1,4.9,4.5-1.4.4-.3-.6-1.7,1.4-1.4,1.9.2,2.3-1.5-.2-2.4,1.6-.9,2.1-3.9,1-.7.2-1.7h.8s1.1,2.3,1.1,2.3l5.1.6.8,1.9,1.5.6.3,2.9,2.8.7-.6,1,.6,3.2-.5,1.2h4.6s.7.5.7.5l3.2-1,.9.4v.9c0,0,1.1,1.1,1.1,1.1h1.8s.5,1.1.5,1.1l5.4-.4,1.1,1.8,2.3.4,4.2-2.2h0l-1.5,3.9-1-.5-1.1,1-.4.5-1.1.6-3.1-.5-1.3,2.4-3.5,1.3-2.4-1.2-.7.6-1.2-.2-1-1.3-1.5-.5-3.4,1.9.3.7-1.4.8,2.5-.4-1.3,1v.9c0,0,1.1-.4,1.1-.4v1c.1,0,.7,0,.7,0l.6-1.1.2,1.4,1.1-1,.8.4,2.6-1.3,3.5,4.5,2.8-.6,2,2.2,1.7-1.4,3.3,1.9,3.3-.7,1.5,2.1v2.4c0,0,1,2.7,1,2.7l1.1,1,1.4-1.2,2.7-.4-1.2-1.5,1.6-.3,2.6,2.2,3.1.2,1.3,2.3-1.7,1.1-.5,1.2h.9s.9,2.3.9,2.3l.5-.4,1.6.8-2.2.5-.2,1.2,3.6-.7.4.7h2.5s2.5,1.2,2.5,1.2l1.2-1.9.7.3,2,2.1-1.4,1.2.2.5,1.4.2-.2,1.7,1.8.4.4,2.8,2.4,1.6h0v.9c0,0-1.2.3-1.2.3l-1.4,2.9.3,4.5-.7,2-2.4.9-.7,1.1-2.3.3-.6-1.1-1.9-.4-.8-3.1-3.9-.4-.3-1,1-.3.3-1.2-.7-1-2.9.4-1.6,1.4.4,2.5-.6.9-3.3-.3-4.7,1.4h0l.8-.9-1.5-1.5-2.2,2.3-1.9-.5,1.1-.9-1.3-1.2h-3.1c0,0-.5-.6-.5-.6l-1.3.4-.3.9,1.3-.3,1.1,1.2-1.4.3-1.3-.8-.9-2.5-.6.9-.8-.6-1.2.5-3-.6-.8-.8,1.7-1.8-5.1-2.6-.4-2.9-1.3-1.4-1.4.7.9.6-.6,1.1-.8-.9-1.2.7-.4,1.6,1.1.6-.9.7-.2,1.6-1.6-.2-1.7-2.8,1-1-1.6-2.4-2.4-2.9-1.8-.3-.8-1.1v1c-.1,0,.8,1.3.8,1.3h-1.1s-1.1,1.3-1.1,1.3l1.4,1.7h-.9s-.2,1.1-.2,1.1h.8c0,0-.9.9-.9.9l-.9-.2v-.8s-1.7.3-1.7.3l-1.2-.8-.6,1.1-1.8-1.5-2.7,1.5-.5,1.1-1.3-1.8h-1c0,0-.5-1.1-.5-1.1h-1.1s-2.6-1.7-2.6-1.7l-2.3.3-2.3-1h-1.1c0,0-1.9,2.2-1.9,2.2l-2.2-.7h0l1.1-1.4.5-4.1,5.6-2.9-.4-1.7,1-2.6-2.2-1.2,1.6-1.2-.8-4.5.5-1.3,1.3-.7v-.9s-1.3-1.9-1.3-1.9l-2.7-.4v2.7c0,0-2.2.8-2.2.8l-3.1-.6-1,3.1-1.8.6-.6-2.4-3.2.7-5.9-2.1-1.3-3.9,1.2-2.9,2.1-.2.4-1-.5-.9-4.5-1.4-1.8-4.7-5.2-2.5-.2-.9,1.7-1.8,1.1-2.9-1.7-2v-1.9h0,0Z"/>
    <path id="GR-I" d="M196.9,408.2l.3-.6,1,.6.4,3.6-1.8-1.9-1-3.1,1.1,1.4ZM180.4,378l1.6,3.6,3,1.8,2.7,2.8-.6,1.4h-1.8c0,.1-.4,5.4-.4,5.4l-2.4-.9-.5.9-.6-1.1-1.7-.4-1.6-2.5.4-.8-.8-1.2,1.3-1.1-.6-1.1.5-1.1-1.6-2.1,1.5-3.4,1.6-.2ZM206.4,305.9v1.6s.4-.4.4-.4l1.6,1.1-1.3,1.1-2-.3-1.6-.7v-.6c0,0,2.5-.4,2.5-.4v-1.2c-.1,0,.4-.3.4-.3ZM201.6,300.8l1.5,1.7-1.4,3.1-.6.5,2.1,1.6-1.7.5,4.6,2v.6s2,1.2,2,1.2l.3,1.2-1.3.9-3.6.7h0l1.4-3.1-1.4-.5-1,.8-2.7-.2-.2-.8h-1.5c0,.1-.5-1.5-.5-1.5l-6.1-1.8-.5-1.8,1.5-2.6h0l2.2.7,1.3,1.8,3.1,1.5,1.7-1.2-1.7-3-1.4-.7,1-1.3,2.9-.5ZM199.9,296.4h.7s.3,1.1.3,1.1l-1.6,1.2-.8-.2.6-1.9.7-.3ZM206.7,292.6l3.8.5-.5,1.2-.9.2-.5,3.1-2.2,1.1-1.5-.9.9-.6-.2-.7-1.5-1.1-.8-2.1,3.6-.7ZM206.8,278.3l2,.9-.2.9v.4c0,0,0,.5,0,.5l1.1.3-.3.5-.2.3.4.9-.7.9h-1c0-.1,0,.9,0,.9l-1.3-.2-.2.8-2,.8-2-1.3.2-2.1,3.1.4,1.6-2.5-3.8.7-.3-.4,1.7-.9-1.7-.5h2.8l-.2-.9,1.2-.5ZM218.6,257.6l1.8-.2.9,1.1,1.1-.4,1.2,1,6,1.7,5.9,5.3-.7,1.1,1.1,1.2-4.8,3.4,1.1,2.4v2.2c0,0,1.4,2.5,1.4,2.5l-1,.7.4,2.4-.9,1.1,1.6.2.7,1.3-1.9.8.8,1.2.9-.4.7,1.1-.5,2.2,1.9,1.6v1c.1,0-.5,1.4-.5,1.4l.3.8-1.3.7.9,3.1-.9.3-1.1,1.8-4.6-1.3.3-3.1h-1.7c0,.1-.4-3.2-.4-3.2h-.8c0,0-.9-1.6-.9-1.6l-2.5-1.3-.9,1.3-.5.2-.4-1h-.3c0,.1-.8,0-.8,0l.7-1.3-1.5-.9.5-.7-1.2-.7-.4-2.1-1.8-1.5.4-.6h-2c0,0-.8.9-.8.9l-.5-.5v-.3c0,0-.8-.6-.8-.6l.2-.8h-2.8c0,.1-.1-1-.1-1l.9-.8.5-.3.9-.8-.2-1.6-1-.7-1.7.7-1-.8-1.7,1.2h-1.8s-1.8,2.3-1.8,2.3l-1.3.5,1.6.7-8.6-.4-3.1,1.5h0l-.6-1.2-3.1-1.3,1.1-1.9-.7-.4v-2h.1l4.7-2.4v-1.1c0,0-1.7-.5-1.7-.5l-.2-1.1,2.4-.5-2-1h-2.8c0,0,4.7-1.4,4.7-1.4l3.3.3.6-.9-.4-2.5,1.6-1.4,2.9-.4.7,1-.3,1.2-1,.3.3,1,3.9.4.8,3.1,1.9.4.6,1.1,2.3-.3.7-1.1,2.4-.9.7-2-.3-4.5,1.4-2.9,1.2-.3v-.9h0l2,.3Z"/>
    <path id="GR-J" d="M181.4,370.1l.7,3.2-1-1.3-1.7.9v-1.6s2-1.3,2-1.3ZM122.4,355.6l.8.2-.5,2.8-1.5-1.5.5-2,.7.6ZM119.4,353.1l.7.2-.3,1.1-.9.4-.3,1.3v-2.9c0,0,.4-.7.4-.7l.5.5ZM111.8,337l-.3,1.1v-1c0,0-.6-.5-.6-.5l.9-.5v1ZM188.4,322.8l2.4,1.4v1.2c0,0-1.4.3-1.4.3l-1.1-.8-1.1-1.8,1.2-.3ZM199.9,318.7l.3,1-1.4.7h-1.4c0,0-.9-.7-.9-.7l2-.9.5.7.8-.8ZM210.2,317.3l1,.4-3.8,1.4v1.5c0,0-2.7,0-2.7,0l-2.5,1.5v-.5c-.1,0-1.7.1-1.7.1l4.9-3.3,2.7-1.2.9.5,1.2-.5ZM181,273.5l2.8,1.6.7-.6.8.7,3.1-.6h0v2c-.1,0,.6.4.6.4l-1.1,1.9,3.1,1.3.6,1.2h0l-2.3,1.9-6,.8-2.8-2.8.7-1.7-2.9-2.2-1.7-.5.7-.5-2,.2,1.7-1.6,4-1.6ZM151.9,269.6l2,.7,3.8-.3,2.5,1.8,4.8,1.8,4.3,2.6,3.2,4.1,3.1,2,2.1.4,3-1.3,2.8,2.8-1.1,1.8.7,2h5.1c0,0,1.6.9,1.6.9l1.8,1.8v1.6c0,0-1.3,1.3-1.3,1.3h-1.1c0,0-.5,1.6-.5,1.6l2.8,1-1.1,2.3.9,2.2-.7,1.2,2.1,1.6h0l-1.5,2.6.5,1.8,6.1,1.8.5,1.6h1.5c0-.1.2.6.2.6l2.7.2,1-.8,1.4.5-1.4,3.1h0l-.7.4-3.1-.8-2.2.7h-1.5c0,0-.4,1.3-.4,1.3l-1.8.5.4.8,2.1,1-4.1.3-.7,1.1,1,1.9-1.5.4-2-1.7-.8-1.2,1.3.4-.7-1-2.8-.7.4-1.4-.5-.9h1.8c0,0,.5-1.9.5-1.9l1.1.8.5-.3-1.1-2.2h-3.2l-.6-.4.5-.5-.5-.9-2,1.3-1.5-3.6-3.7-.9-2.1,1.3-1.6-.9v-1c0,0-2.1-2.8-2.1-2.8l-2.9,1.5,1,3-.6,1.9,1.1,1.4v1.4s1.1,1.1,1.1,1.1l-.9,1.9,2.2,2,2.2,4.3-.3.7,1.2.7-.4.9,1,.6,1.8,3.4-1,2.8.3,1.6,1.1.6.5-.7h1.2s.3,1.7.3,1.7l1.1.4v.8h-.9c0,0,1.9,2.9,1.9,2.9v2.4c.1,0-.6.7-.6.7l.9.3v1.8s2,4.7,2,4.7l-.3.7,1.4,1.2.8,2.7,1,.8-1.3.9v1.8c.1,0-1.3-1-1.3-1l-.6.9h-.9s.2,6.3.2,6.3l2.2,3,3.7,2.5-1.2,2.4,1.7.8v1c.1,0,1.5.4,1.5.4l.3,1.1h-2.8s-.7.8-.7.8l-2.2-.7-1.1-2.1.3-1.6-1.5-1.5-3.4.3-.7-2-.8-.4v-1.4s-3.3-2.8-3.3-2.8h.5s.1-1.1.1-1.1l-1.8-2.3h-.9c0-.1-.6,1.9-.6,1.9l-.7-1.7.8-1.9-1.8-5.1-7.9-.5-2.8,1.8.5,2.7-2.7,1.6.4.6-.5.8,1.4.8v1.3c.1,0-1.7-1-1.7-1l-.8.5,1.4,2.6-.9.9-.7-1.1-.9.3-.2,5.2,1.5,2.6v2.6c-.1,0-1.1.6-1.1.6l1,1.9-1.1.3-1.1-3.3-2.9-1.7-.4.6-1.1-.4-1-2.1v-1s2.1-.9,2.1-.9l-.2-2.1h-.7c0-.1.7-1,.7-1l-1.1-.6.6-.9-.7-1.4,1-.2-1.1-1.3,1.4-1.8h-1.6c0,0-.8-1-.8-1l-2.1-6.3-1.9-1.5-1.5-3.3-1.2-.7-1.5,1-2.3-1.5,1-1.5.2-4.8-5.1-.6-5.7,2.7-.4,7.2.8,3.3,1.4.9-1.5.8v1.4c-.1,0-2.9,2.4-2.9,2.4l-.7-1.9-1.6-1.6-.3-1.6-.7-.2-2.3,1.3-.4-.8-2.3-.8-1.2-4.6,1.6-3.4-1.4-.8-1.2.4.3-.9-1.1-2.4-3.3-3.4.4-2-.8-3.4.7-3,4.4-3.7,1.2-2.4-.8-5.4h0l.8-.7h7.6c0,.1,2.1-.6,2.1-.6l-.4-2.8,5.3-3.2-2.5-2.8-1.3-.4-1.8-3h-1.9c0-.1-2,.8-2,.8l-.5-.5.9-5.8-.9-3.4v-3.3c0,0,.9-1.3.9-1.3l3.7-2.8.4,1.6,1.6,1.3h1c0-.1,2,1.4,2,1.4l3.4,1,2.2-2.4h1.1c0-.1.4.6.4.6l1.9.6,1.8-1.8,2.6-.8-2-3.2,1.2-1.6-.3-2.3,2.5-.7.6-1.4h1c0-.1,1.9-2.5,1.9-2.5l.8-3.6-.2-3.7h0Z"/>
    <path id="GR-K" d="M351.9,303.3l.7,1.3-.4.9h-.7c0,0-.2-1-.2-1l-1.7.3,2.3-1.4ZM355.3,299.8l1.1.9-.3,1.3h.8s-1.2,2-1.2,2l-1.4.6.9,1.6-.6,1.5-1.5-2.8v-1.9c0,0,.6-.2.6-.2l.5,1.4,1.2-.9-.2-1.6-.9-.2.8-1.8ZM348,297.8l-2.1,3.4-4.9,3.7-5.1.9-2.9,2.6-3.9.3-.2-1.1,1.6-2.9,3.7-3.8,3.2-.2,2.4.8,4.9-3.3,3.3-.4ZM367.5,290.1l4.4.4,1.5,1.7,2.3.5,1.8,1.5.6-.5-1.2-2,1.5.5-.2-.8.7-.2.4,1.1h3.3c0,0-2,1.6-2,1.6l.8.8-.3.6h1.3s.4.8.4.8l-1.6.8-2.8-.2-1.4,1.2-1.9.3-1.5,1.2v1.4c-.1,0-1.1.3-1.1.3l-3-.3-2.3-3.4-1.6-.9-3.8.4-1,1.4-1.6.4-1.2-3.5,1.5-1.9,2.1-.6,1.8-1.6,4.2-1ZM344,246.2l.4,1.3h-.7c0-.1-.1-1.7-.1-1.7l.4.4ZM339.3,244.6l4.1,1.2v.7c-.1,0-1.1.5-1.1.5l-.9-.8h-1.2c0,0-.8-1.7-.8-1.7ZM306.6,244.1l.2,1.2h-1.5c0-.1.8-1.4.8-1.4h.6ZM330.5,240.7l1.7.9,1-.3,1.1,2.3h2c0,0,.5-.6.5-.6l1.1.8.2,1-.5,2.5-1.2.4-.2.8h.9s.6,1.2.6,1.2l-1,3.3.4,4.1.9.7v1.1s-2.8,2.5-2.8,2.5l.6,2.4-.8,1.5-3,.6-1.3,3.2-.9-1-1.3-.2-.8-1.7h-1.2c0,.1,0-.7,0-.7l-1.9-.5v-1.8c0,0-1.2,0-1.2,0l.6-1.9,2.1-1.6,2.3.3.4-2.1,1.1-.8v-2c0,0-1.8-1.9-1.8-1.9l-.8-3.5-3.9-2-1.6-3.3,1.3-2.1,7.5-1.6ZM309.4,240.5l2.1,1.2-.6,3.5-2-.7-.2-1.2-1.7-1.9,2.4-.9ZM347.5,192.1l.6.2-.8,1.2.3.5,3.4.9-2.3,3.7,4.7,3.2,1.3,2.8,1.9.8-.5,1.7.9.2.5,2.7,2.7,3.2-.3,2.3-2.5-.3-2.2-2.3,1-.9-1.5-3-1.1-.6-1.7.7.2,1.6,3.9,3.8.6,2.1-1.3,1.1-5.9.5-3.5-.9-4.6-2.5h-2.4s-.8.7-.8.7l-2.4-3.5-1.8-.8,1-1.3,1.5.4,1.6-.8,1-1.6,4.6-1.9.7-1.8-1.6-1.3-3-.3-1.6.6-2.8,5.8-.7-.5-1,1.6-3.2-1.2h-2.8c0,0-.5-1.3-.5-1.3l-3.4-1.6-.2-1-1.8-1.1h.9c0,.1.1-4.5.1-4.5l2.4-1.8v-.7s.9,0,.9,0l.2,1h3.4c0,0,1.1-.9,1.1-.9h2.1c0,0,5.2-2,5.2-2l.6-.7-.7-2.1.9-.5,6.4.4,1.3-1,.6.8ZM281.8,180.9l2,1.6-3.5,4.1-.5-4.2,1.1-2.2.9.6ZM302.4,151.7l.4,1.9-2.7,2.3v2.2c0,0-1.5,0-1.5,0v1.3c-.1,0,.5,0,.5,0l-1.5.8.8,1.2-.7.4v1c.1,0,1.5,1.6,1.5,1.6l-1,.6.2,1.2-2.7-.7-.6-.9.3-.9-1.4-.5-.8-1.3,1-.9-.4-.5.8-1.4-1.1-1.1h-1.1c0,.1-2.1,1.8-2.1,1.8l.6.5-1,1.7,1.4.6v1.4s1.3,1.5,1.3,1.5l-4.9-.5,1.2-2.8-1.3.8-.8-1.1-3.6,1.1.9-1.2-.9-.4,1.2-3.9-1.2-1-.4-3.5h3.1c0-.1,1.9-1.2,1.9-1.2l.6,1.1h1s3-1.1,3-1.1l.8,1.1h1.3c0,0-.4,1.6-.4,1.6l1.2.5-.7.5.8.5,1.3-1.7.7-.2.2-.5,1.7-1.6v-1.1c0,0,1.5.8,1.5.8l2.2-1.9-.5,1.6Z"/>
    <path id="GR-L" d="M379.4,435.2h.6c0,0-.7,1.3-.7,1.3l-2.1,1-1.3,1.8h-1.3c0,.1-1.1,1.5-1.1,1.5l-1.9-1.2,2.9-3.7,1.4.3,3.5-.9ZM389.9,411.3h.7s.1,1.1.1,1.1l-1.2,2.4.4,2.7-1.3,1.7v1c.1,0-1.4,1.6-1.4,1.6v1.9s-.6.5-.6.5l3.3,4-.9,1.1.2,1.1,1.8,1-.6,1.3-1.2-.5-.6,1.1h-.9s-1.1,2.3-1.1,2.3l.9.2-1.7,1.5.5-.6-.6-1.1h-1.1c0,0-1.6-1.1-1.6-1.1l2-2.6-.7-1.5.3-2.2-1.6-1.2-.7-1.7,2.9-2.8v-2.6c0,0,2.1-2.2,2.1-2.2v-4.7s1.2,0,1.2,0l1.5-1.6ZM390.6,406.8h.5c0,0-.3,4.5-.3,4.5l-2.4-1.9.8-.2.7-2.3.7-.2ZM506.9,391l-.3,1,.7.4-2.1,1.3.6-1.8,1.1-.8ZM408.9,386.1l1.1.3.2,1-2.2,1.2v-.6s-1.3-.1-1.3-.1l-1.8.7v-2c.1,0,4.1-.5,4.1-.5ZM414.8,383.9l-1,2.4-.4-.8.8-.7-1.3.5v-.6c0,0,.8-.9.8-.9h1.1ZM363.3,379.1l1.1,1-.7,1.1-.5-.2-.6-.4-.3-1.2,1-.3ZM318.8,376.8l4.3,2.9-3.8.6-2-.6-.5-.9,2.1-2ZM439.4,373.7l.6.7-.5,2.1.9,1-1.9,2.2.2,1.7-2,2.6v1.7s-1.3,1.4-1.3,1.4l-.5,2.5-1.6.2-1.5,2.6-.3,2,1.6.2-1.2,1.8.6,1.3-3-1.4-3.6,1.9-4.3,7.1-3.2,2.3-2.3.8,1-.9-1.7-1.3-.8-1.6,1.7-4.4v-5c.1,0-.3-.7-.3-.7l-1.7-.2v-1.4c.1,0-1.3-1.2-1.3-1.2l3.9-2.2,1.9-5,1.8-.6,2.7-3.2,10.8-5.2h3.3c0,0,1.7-2.3,1.7-2.3l.3.5ZM298.5,374.4l-.6.4.3,1.5-1.4-.6.6-2.3,1,1.1ZM302,373.1l2.9,3.4v2.7c-.1,0-2.3,1.7-2.3,1.7l-4.4-1.6.6-.5,2.4.3,1-1.9-1-2.3.2-1.4-2.3-.3v-.9c-.1,0,.8-.6.8-.6l1.6.5.4.9ZM396.9,371.8l1.7,2.9-.2,1.3.9-.4.9,1,.5-.9.6.6-2.9,1.9-.9-1.6-.5.6-.4-2.4-2,1.2v-.7s-1-.2-1-.2l.3-2.6,1.5.8.6-1.3h1ZM421.8,368.8l.5.4-1,.3.5-.7ZM387.7,363.4h.8s1.3,2,1.3,2l-1,1.7-3.5-.9.4-2.4,2-.4ZM420.4,362.1l-1,1.2,1.1.4,1.7-1-.8,1.1,1.1-.3.2.5v1.3c-.1,0-1,.3-1,.3l.9.3-.8.6.7,1.1-1.6.8-.8-.3,1-1.2-1.2-.8-1.4.4.9-1.4h-2.2c0,.1-.1-.8-.1-.8l.3-.5.6.5.6-1.6,1.9-.8ZM349.5,361.9l2.9,2.2,1,1.6h-1.3s-1.4.5-1.4.5l-2.6-.3-.6.8.2,1.3-.9.3,1.3,1.8-2.1.2-1-.9-.7.2-.5-2-.8-.4.5-.4.2-1.5.5-.7,1,.2,1.7,1.5,2-1.5,1,.7-1.5-3.2,1.2-.5ZM421.4,360.7v1.1c.1,0-1.3,0-1.3,0v-.7s1.3-.4,1.3-.4ZM274.4,360.6l1.9,1.8,1.8.5.8,1.5-.6.6-1.5-.3-1.1-2.1h-1.6c0,0-1.2-1.8-1.2-1.8l1.5-.2ZM386.2,359.9v.5c0,0-.9.1-.9.1l-.5,1.7-.5-1.8h.8s.5-1,.5-1l.5.4ZM289.2,357.5l.8.2-1.5,2.3-3.5,2.4h-1s1.7-3.4,1.7-3.4l2.2-1.4h1.5ZM253,354l-.2.8,2.1,1,2-1.6,1.7.6-.7,1,.8,2.4-.4,1.2-.6.8-.5-.3-2.2,1-1.3-.8-.5.6-5.6.8.8-3.6-.6-.6,1.4-2.1.9,1.2,1.2-.4.3,2.2h1.2s.5.7.5.7l1.5-.6-.5-1.5-1.1.2-1.4-1.9.2-1.2h1ZM262.5,353.1l1.7.5v2c-.1,0-2.2-.5-2.2-.5l-.5-1.6,1-.4ZM296.2,353l1.1,1.4-.3.7,1.8.5,2,2.1-1.1,1.1.6,1.5-.4,1.1-.9-.4-.5,1.1-3.1-4.4h-1.7s0-3.3,0-3.3l.6-1,1.9-.3ZM243.9,352.2l.5.7-.6,1.4-1-.8v-1.2c-.1,0,1.1-.1,1.1-.1ZM259.4,349.7l.6.8.9-.5.7.7-1.4,2.9-1.8.4-1-2.9,2-1.4ZM304.3,348.5v2.3s-1.1.5-1.1.5l-1.7-.5,2.3-2.6.6.3ZM306.8,346.8l.5,2.4-1.9-1.3,1.3-1ZM312.9,345.9l1.1.4.5,1.6-3.6-.3.3-1,1.8-.7ZM393.4,346.5l2.5.3.8,1.9-9.2,3.2-2.8,3-3.5-.6-2.9.9-.6.6.7,1.4-.9.8.4,2-1-.2-1.4-1.7v-3.7c0,0,3.6-.5,3.6-.5l3.8-4.7,4.6-2.4,3.4-.4,2.1-1.3.4,1.3ZM330.4,343.9l3.9,2.6-1.8-.3-3.3,1.1-5.8,5.9h-1.9c0,.1-1.3,1.3-1.3,1.3l-2.7-.9-.3-.9.8.5,1.4-1.5,3.1.2v-1.1s-.4-.5-.4-.5l.3-.9,5-2,1.5-1.2-1.1-.4.2-.5,2.4-1.2ZM311.3,343.2l.3.8-1.5.4v-1.1s1.1,0,1.1,0ZM385.7,342.7l.5.6.7-.6.9.4-1.1,1,1.2,1-2.1-.2-1.2-2.1,1.2-.2ZM280.6,341.8l2,.6-2.1.8-.8-.8.8-.5ZM374.9,339.1l.7.6-.4,1-1.6-1.4,1.3-.3ZM352.9,339.4l1.7.9-1.7-.5-.9.3.3.4-.9-.2-.2-1.1h1.7ZM263.3,337.6l3.3,1.2,2.7,4-2.9,3.2-2.3-4.7,1-.8-1.1-.3.4-.6-.4-1-.9-.3.2-.8ZM284.8,337.2l.6.2-1.5,4.6.6,1.9-2.8-2.8h.5c0,0-.2-1.6-.2-1.6l2.9-2.4ZM374.1,335.5l4.5,1.7.4.6-1-.2,1.6,1.5v.8s1.5-.7,1.5-.7l.8,1.1-1.1,2.2,1.2.8-3.3-.3-.2,1.6h-2s-.6-1.3-.6-1.3h-.8c0-.1,1-1.4,1-1.4l-.4-1,.7-2.1,1.4.3-1.3-1.7-1.3.4.2-1-1.9-1.2h.7ZM321.8,332.2l-.6.3,1.1.9-.6,1.4-1.6-.2-1-2,.9.7.8-1.3,1,.3ZM292.1,330.9l.5.4-1.2,1.1.5.5,2-.3v-1.7s1.5.5,1.5.5l-1.9,3.9,1,1.9-1.5,2.6-3,2-2.1-.5-.5-.9-.7.4-1-1.6.4-2.8,2.4-1.6-1.2-.3,1.3-1.6,3.4-1.9ZM307.4,327.9l2.4,3.3.5,1.8-.4,1.8-.3.8-1.7,7.2-2,.2-2.9,2.3-1.2-1v-2.2s-1.9-.5-1.9-.5l.3-1.1-1.4-1.9.7-1-1.3-2-.8-.2.5-1h1.3c0,.1,0-1,0-1l2.1-1.6,2.5-.9,1.6-2.4,2.2-.7ZM370,327.8l2.3.8-1,1.5,1.9.5-.8.7,1.5,1.6v1.2c0,0-2.3,0-2.3,0l-.6-.8h-.4c0,0-.8-1.4-.8-1.4l-.4-1v-.8c-.1,0-1.7-.6-1.7-.6l.7-1.3,1.2.2-.3-.6h.8ZM256.3,327.5l1.7.7-.4,2,.6.3v1.6s-1-.9-1-.9v1.6s-1.1.7-1.1.7l-.4-.2.5-.8h-1.7c0,0,0-.8,0-.8l-2.3,1,1.3-4,1-.9.8.3v-.6s1.1,0,1.1,0ZM383.7,321.3l-.2.9.8.7-.8.3-.4-1.3.6-.6ZM365.8,319.9l1.7,1.4,1.5-.2-.2,2-1-.2v-1.2s-.8.5-.8.5l-1.5-.7-.3-1.1h.7c0,0,0-.5,0-.5ZM358,316.8l2.3,2.4-2.3-.7-.5.6-.2,1.1,1.1,1.2-.7.7.7,1.4h-.8s-.8-.4-.8-.4l.7-.9-1.4.2.7-4.2-.4-1.2.9.6.8-.8ZM365.9,315.6l1.6,1.5-.8.7v-.8c-.1,0-1.4-.8-1.4-.8v-1.4s.6.8.6.8ZM291.8,313.1l.9,1.2v1.7c-.1,0,.7-.5.7-.5v.5c.1,0-.2,1-.2,1l-.5-.6-1.1,1.1.5-1.5-.7-.4-.8-2.1,1,.4v-.9ZM378.3,310.9l.5.6-.7,1.2-.6-.8-.7.9-.5-1.7-.7-.2h2.7ZM253.4,310.5l-.6,2.4h.8c0,.1-.1.8-.1.8h1.3c0,0,.8,2,.8,2l-.6.5v-.7c-.1,0-.8.1-.8.1l-.7,3.1-2.2,2.3-1.6.5v-2c.1,0,1.7-2.1,1.7-2.1l-.6-.7.5-2.2-1.5.2v-.7c0,0,1.7-2.5,1.7-2.5l1.9-1.1ZM298,309.4l.7.3.7,1.1.6-1.1h.8c0,0,.3,1,.3,1h.9c0-.1,0,.6,0,.6l1.6-.2v1.8c-.1,0-1.9.2-1.9.2l-1.2,1.8-.6-.6-1.8,1.2-1.3-1.2h-.5c0,.1-.6-.6-.6-.6l.3-.5.8.8.3-1.3-1.1-2.2,1.9-1ZM275.3,308.5l2.2.8.7,1,.3,1.8-.7,1.5h.8c0,.1,1,2,1,2l-4.7,2.3.3-1.9-1.5-.2,1.1-1.5-.7-.4,1.9-1.1v-2.9s-1.2-1.1-1.2-1.1l.5-.2ZM268.1,301.1l.3,2.6-2.9-1,1-1.5h1.6ZM280.6,298.6h.6c0,0,1.4.4,1.4.4l.7-.5.5,1.8,2.9-.3,1.6.6h1.7c0,.1,3.4,1.9,3.4,1.9l-1,4.5-2.3.8-2.3-1.6h-1.3c0,.1-.6-1.7-.6-1.7l-2-.8-4.4-4.1v-.8s1-.2,1-.2ZM249,298h.5s1.5.6,1.5.6l.9,1.8-2.6,4.4-3.9,3.2.2-3.4-.8-.3.6-1.1-.5-.5,1.4-3.1h1c0,0,.5-1.4.5-1.4l1.2-.2ZM239.2,294.5v1.2c0,0-2.2,4.7-2.2,4.7v-2.3s1.6-4.6,1.6-4.6l.6.9ZM270.7,278.6v1.7s1.9.5,1.9.5l.4,3.2,5.8.7v1.7s-1.1,1.7-1.1,1.7l2.3,1.7-1.4,2.7h2.4s-2.4,4-2.4,4l.4,1.4-2.5-2.2-1.1-3-1.9-.6-1.7-2.7-1,.2.2-1-1.6-2.6h-2.8c0,.1-1-5.4-1-5.4l2.9-1.9,2.1-.3Z"/>
    <path id="GR-M" d="M235.2,468.7l2.6.7-.5,1.7.9,1.5-4-2.1-.6-.9h1.2s.5-1,.5-1ZM339.4,441.2l-.5.8-1.3-.4,1.8-.3ZM339.2,439.8v.9s-.8,0-.8,0l.8-.9ZM291.7,433.2l1.4.9-.4,1.6-2.8-1.1,1.7-1.4ZM218.9,419.6l1.8,1.4-.6,1,.8,6.4,3.4,1.2,7,.9,2-.4.8-.4.2-1.7h1.7c0-.1-.8-1.9-.8-1.9l.6-.7,2-.5,2.5.9,1.3,2.9-1,2.2-1.2.5-3.7-.9-1,1,2.8,1.3h1.6s1.8,1.3,1.8,1.3l2.7-1.6,1,3v3.6c-.1,0,1,.6,1,.6l3,.3,3.7-1.1,6-.3,3.3-1.1,1.9-1.6,2.6-.5,6.6,1.2h2c0-.1.6-.9.6-.9l1.5,1.1h1.8c0,0,.9-1.2.9-1.2l.8.6,1.4-.4.4,1.3.8-.4-.4,1.8.8,1.9,4.9-.4,1.6.2.3.8h2.1c0,0,6.7-.5,6.7-.5l3.4,2.8,10.8-3.3,1.5.7,4.1-.3-.6,1.4-1.6.8-.3,2.4.9,1.9-1.3.7.4,1.8-.8.8.9,2.8h1.6s2.3,1.2,2.3,1.2l2.1-2.8.7.3,1.5-1.2v-1c0,0,2.6.4,2.6.4l.9-1.2h1.8c0,.1,1.3-1.7,1.3-1.7h1.7c0,0,1.2.6,1.2.6l1.3-.6v1.5s2.8.2,2.8.2l.9-.7-.3-.8,1.7-.7,1-2.4.9.4,1.7-1.7-.4-.6,1.3-.4v1.3c-.1,0-2.2,1.7-2.2,1.7l.6,2-.3,1.4,1,1.1,1.3-.5v1s-1.7.8-1.7.8l-.4,4.8-2,3.3-5.8,2.3h-.9c0-.1-.4-1.4-.4-1.4l-2.9.3-2.6-1.5-6.4,1.4-1.5,1-6.2-.9-1.3.6h-3.3c0-.1-4.6,1.3-4.6,1.3l-6.3-1-2.3,1h-2.3c0-.1-1.8,1.5-1.8,1.5l-2.6.7-2.7-.5-2.1,1.2-2.5-.6-1.4.8-4.7.3-3.9-.9-2.3,1h-3c0,.1,1.1-1.6,1.1-1.6l-.5-2.4.8-1.2-1.1-4.2-2.1-1h-6.7c0,0-1.9-2.6-1.9-2.6l-3.1-.4-3.4-2.6-1.8.7-1.4-.4-2,.9-2.6-.4-1.6-1.2-2.1.6-1-.7-5,.4-2.3-2-3.1.4-4.7-1.6-3.1,1.2-.4-.6-6.9.5-1.9-.5v-1.4s-1.8-.6-1.8-.6l-1.4-2,1.7-1-.9-1v-2.6c0,0,1.9-2.6,1.9-2.6v-1.3c0,0-.7-.7-.7-.7l1.3-2.1-.7-1.1.9-3.1-.4-1.7.7.4.2-2.6.7,1.6-.4.6.6,4.4,2,1.2,3.1-.6.5-2.3-1-3.1.4-1.3-.5-1.5,1.5-3Z"/>
    <path id="GR-69" d="M232.1,132.3l.6-1.7-.5-3.1h0l-.3-3.1h-.5c0-.1.8-1,.8-1l1.3,3.4,1.6,2,3.6.9.8-.4,1.8,1,.3,1.6,2.4.6,1.1,1.3.8,2.6,4.8,4.1.8,2.8-4.7,1.8-1.2-3-2.9-2.3v-1.3s-2.9-4-2.9-4l-6-.8-1.7-1.3Z"/>
  </g>
</svg>