<?xml version="1.0" encoding="UTF-8"?>
<svg id="Layer_1" xmlns="http://www.w3.org/2000/svg" xmlns:amcharts="http://amcharts.com/ammap" version="1.1" viewBox="0 0 512 512">
  <!-- Generator: Adobe Illustrator 29.1.0, SVG Export Plug-In . SVG Version: 2.1.0 Build 142)  -->
  <g id="_x3C_defs">
    <amcharts:ammap bottomLatitude="45.736783" leftLongitude="16.113634" projection="mercator" rightLongitude="22.897693" topLatitude="48.586316"/>
  </g>
  <g>
    <path id="HU-BK" d="M216.6,272.3l.6-1.5-1.4-2.3,4.9,1.1,3.3,2.1,6.9-6.7h2.7c0,.1.7,1.1.7,1.1l1.6-3.8,2.8-1.6,5.7,4.6-3.8,6.1,3,4.3,2.1-3.9,4.6-3.3,3.6,1,2.2-7.1,4.1,1.5,1.8-1.7,4.1,9.6,3.3,3.7h0l-2.6,1.1-6.1-1.9-2.9,3.9-.8-.9-2.1,2,4.1,5,.4,3.1h1.7s2.8,2.1,2.8,2.1l2.6,3.1-.3,1.4,3.2-.2,1.4-2.5,4.1-.9.8-1.8,2.7,2.4,3.5-4.9-1.9-5.5h0l3.3-5.6,7.9,3.6,1-3.9,5.2-2.1,1.9,1.2h0l3.4,2.5-.4,2.3-2,.9v1.1s2.7.4,2.7.4l1.2,2.3-5.3,4.3-2.1-.2-.9,2.1-.8-.7-2.9,1.5,1.2,1.6,1.7-.3.3.9-2.5.5v1.8c0,0,2.1,1.4,2.1,1.4l-.2-2.5.9-.4,1.3,2.1h0l-6.9,8.1,3.2,3.4-2.2,6.2,1,1.3v3.5l-3.8,4.5-3.8-3.2-8.1,5.1,2.1,2.7,2.9-.6,3.3,3.2.4,2-1.2,1.8,1.3,2.6-1.5,3.7-1.7,1.5-2.8-1.9-5.5,4.3-1.6-1.3-4.8,1.5,2.6,4.4-4,4.3,4.4,8.1h0l-1,.7-1.4-1-2.1,2.1-5-.8-.7,1.6-3.6,2,1.5,2.6-4.4,2.5v1.5s-3.6,3.7-3.6,3.7l-2.5,1.1-1.2-1.6-6,3.8,1,2.8-.8-.9h-10.1s-.9-4.1-.9-4.1l-2.2-.4-3,4.1,1,3.7h-4.9c0,0-1.3,1.8-1.3,1.8l1,2.5-7.4-1.1-2,2-1.2-.4.3,1.1-4,.2h0l-1.1-1,.6-1.3,3.5-1.2-1.9-1.7,2.9-6.2-1.6-2.4,1.8-.7-2-1-.7-3.6,1-1.1-2.2-.9h0v-1.1c0,0,.9.5.9.5l.6-1.8-2.9-.9v-1.9c0,0,2-1.2,2-1.2l.2,2.7,1.6-4.6,1.4-.5.2-2.8-2.7,1.9-.9-.6,3.8-3.2-.7-3.2,3.4.8.8-4.8-1.7-2.9-1-6.7,2.6-5.6v-3.1s-1.9-4.6-1.9-4.6l-.2-4.5-2.4-4.9,1.7-2.6,6.2-2.1,2.6-4-2.3-8.5-3.4-4.5v-4.4h-.1l2.4-6.5h0l.3-9h0l.5-2.7Z"/>
    <path id="HU-BA" d="M149.7,350l1.7.6,1.8-1,1.6,2.1.6-.8-1.2-.5v-2.4c0,0,1.3-.7,1.3-.7l1.3.8,3.7-2.4-1.2-6.1,3-1.3,3,.7,3.4-1.6,2.3,2,.4,3.9,2.7,1.4-.9,5.7,2.9.3.5,1.2-1.4,3.9-2.9,1.2.6,1.2,7-3.9,1-1.5v-3.2c-.1,0,2,1.1,2,1.1l1.2,2.1.8-.8.4.7-.7,4.5,3.1.9-.6,1.1,1.8,3,1.6-.8,5.5,6.6.6-.5,4.1,2.5,4.8-.2h0l2.2.9-1,1.1.7,3.6,2,1-1.8.7,1.6,2.4-2.9,6.2,1.9,1.7-3.5,1.2-.6,1.3,1.1,1h0l-.3,3.1h-1.1c0,.1-6.5-4-6.5-4h-3.2c0,0,.1,2.2.1,2.2l-1.5.9.9,1.3-1.1.8-.6-.9-1.2,2.4.6,1.5-3.6,2.6v1.5s-1.1-.3-1.1-.3l-2.7,2.1-2.2-1.2-.7,3-2.6.4v2.6c.1,0-2.9-.3-2.9-.3l-3.1-3.4-1.9,2.8-3-1.5h-3.9c0-.1-1-1.9-1-1.9l-3.2-.9-1.3,1.1-3.4-1.3-1.4,2.1-1.6.4-6.2-3.1-5.1,1.1-1.7-.7-3.3,2.7-2.7-4.6-4.9-.2-1.4-1.9-5.1-.5-1.3-1.3h0l1.3-.4,1.2-2.3.7,1.5.6-.9,1.8.3.5-1.4v-2.2c-.1,0-2.7-2.8-2.7-2.8v-1.5s-2.3,0-2.3,0l-.6-1.3v1.8c.1,0-1.1-.1-1.1-.1l-1.4-5.2,2.2-.6-1.9-5.6,3.3-1.9.4-3-1.1-1.2,1.5-.8v-5c.1,0,2.9-5.3,2.9-5.3l-.7-1.5,1.4-1.1,1,2.9,1.5.5,1.8-2.7,3.7,1.8,2.4-1.7,3,.2.9-.8-.3-2.9,1.8-5.1,7.5.8ZM160.5,366.6h0l-2.5,1.8h0l.5,1.8h-3.1c0,0,1.4,3.6,1.4,3.6l-.4,2.1,3,1.7,2.4,3h0l4.2-1.6.6-3.5h0l2.5-3.7,3.1.5.6-1-1.1-3.2h0l-2.5-3.3-5.6,2.7-3.1-.8Z"/>
    <path id="HU-BE" d="M363.5,250.7l3.2.6,2.3,3.6,1-1.7,4.6,3.6,5.3.7,2.2,1.9,5.3-.3v3.4c-.1,0-1.2.8-1.2.8l.5,2.6-4.2,3.2.7,2.5-1,1.5,9.1,4.5,6.1.8-1.2,3.2,1.6-1.5,2.7,1.6,1.3-1.4,5-.8v-4.4c0,0,2.7.4,2.7.4l1.9-2.6.8-.4.2,1.1,1.2-.9h0l1.4.6.7,1.8-1.5,3.1,1,.9-3.2,3.2-2.8.6,1.1,4.4-1,2.3-5.8,2.9v3.9c0,0-2.7,3.7-2.7,3.7l3.1,2.9v2c.1,0-2.5,3.7-2.5,3.7l-1.5-1-2.9.2,1.7,3.3-2.6,1.8-.7,2.5-3.2-1.6-3.9,2.1-.8,2.9,1.3.9-2.1,3.8-1.2.4-1.1,4.3,1,2.6h1.6c0,.1,1.2,3.7,1.2,3.7l-1.7,2.8.4.9-5.3-.7-1.2,1.2-.6,5.9-1.8,1.8.5,2.5-4.9.5-.9,4-2.9,2-2-.6-.9-1.8-5.2.3-.5-1.5-1.4.2-.6,1.4-3.2-2.6-7.1,1.3h0l-2-1.5.7-6.5-1.4-3.6-3.4.5-.7,3h-4.3s-3.4-1.6-3.4-1.6l-2.2-2.8h0l2.5-1.5v-3.5h0v-1.4l1.8-.6.7-7.3-3.2-3v-9.2c0,0,.4-3.8.4-3.8h1s-.8-4.8-.8-4.8l1.2-3.5-2.4-1.9h-4.2s-4-3.9-4-3.9l-2.2.9h0l-1.1-5.9,3.7-4.1,4.1.2,2.1-.9.6-1.4h3.4c0,0,3.2,1.8,3.2,1.8l4.5-1.7,1.7-4.2-1.7-.3,1.6-.2-.2-1.6-1-.4v-5.8s1.2.1,1.2.1l2.3-2.2.2,1.8h3.6s.2-1.3.2-1.3l2.6-2.1,1.2.5-1.5-4.8.2-1.1,1.6-.4-1.4-2.9,7.2-4.2,2.2-4.7ZM369.7,303.4h0l-6,2.2-1.8-1.2-3,2.7,1.7,2.1h1.2s2.2,3.4,2.2,3.4l-1.7,4.3,12.3-3.4,2.6-2.7,1.8.7,1.9-1.1-.2-2.1-2-2.3h-1.8c0,0-1.2-1.4-1.2-1.4l-4.6,1.6-1.2-2.6Z"/>
    <path id="HU-BC" d="M370.1,304.1l.8,1.9h0l4.6-1.6,1.2,1.3h1.8c0,0,2,2.4,2,2.4l.2,2.1-1.9,1.1-1.7-.7-2.6,2.7-12.3,3.3,1.7-4.3-2.2-3.4h-1.2s-1.7-2.1-1.7-2.1l3-2.7,1.8,1.2,6-2.2h0l.4.7Z"/>
    <path id="HU-BZ" d="M397.6,103.1l5.5,4,2,4.6,5.1-.3,3.7,12.5,3,1.6,1.7,3.7,7.1,1.9,1.1-3.6h1.4s.5,1.2.5,1.2l1.7-.5v-1.3c0,0,.3.8.3.8l.4-.8,2.2.9,1.6-1.9,2.7.3,3.1-1.8,2.1,1.7,1.5-1,.8,1.6.7-1,1.6.3h0l.4,2h-1.4s1.4.9,1.4.9l-3.1,2.9.7,1.9-1.8-.2v1.1s-1.2-.8-1.2-.8l.9,1-.6.8-1.5-1.6v1c0,0-1.6,0-1.6,0l.8-1.6h-.9c0,.1-2.2,2.1-2.2,2.1v1.9c-.1,0-.9-.3-.9-.3l-1.8,2.1-.5-.5-1.4,2.6-1.7-.7-3.3.6-.7,1.7-.8-2-.3,1.1-.9-.9-.8,2.8-1.2,1.2-.9-.5-1.5,1.9v-1.4c0,0-1.9.2-1.9.2l-.3,1.3h-4.1c0,0-3.9-.5-3.9-.5l-2.6-1.5-4.5,2.6.3,1.1-3-.5-.7,1.5-2-1.3-2.1,6.1,2.6,3.4-1.3.3.3,1.2,1.8.6-1.8.7v2c0,0-1.8-.6-1.8-.6l-.4,2.1h-3.9s-1.3,1.3-1.3,1.3l-2.9-.9v-1c0,0-2.3,0-2.3,0l-.9-1.8-2.2,1.7-.4,1.8-3.6-.4-.3-2-2.4-.3-3.9,4.6,3.2,4.8h0l-.8,3.3-1.4,1.2,2.4.8-3.1,2.4v2.9s-2,1.2-2,1.2l1.7,3.6-2.6,7.3h-3.2c0-.1,0,3.3,0,3.3l-3.6.8-1,2.3-2.4.9-1.2-1.4v2.1c.1,0,1.2.3,1.2.3l-3.7.3,1.9,2.6-.5.7-3.1-2.7h0l-2.5-1.4-2.2,1.7.5,1.3h0l-4.8-3.8-4.8.2-4.3-2.6-.7-.9,1.7-2.3-6.6-6.7v-6.6s-2.9-1.3-2.9-1.3l-1.3-2.2h0l1.8-1.7h0l2.1.5-.6-1,1.9-1.5-5-4.4,2.9-5.9-.8-3.9,1.9-1.1h0l9-.7,3,2.4,2.7.7,1.2,2.5,2.9-1.5h3.6c0,0,2.6-1.8,2.6-1.8l.9-3-1-.4.3-3.4-1.3-2.1-3.4-1-1.8.5-1.9-2-.8.9-4.9-.3-4.1,2.5-5.7-.2-3.1,1.6h0l-2.1-3.8-3.5-.3-1.1.5.3,1.4-1.9,2.3-.5,2.6-2.9-3.3h-2.2s-.6,2.8-.6,2.8l-2.5.9-5.4-2.6-.6-2.4-5.2-.9h0l-3-2.8h0l2.1-1.6-.7-.7.6-.8,4-2.9.3-3.3,5.3.2-.3-1.1h1.9c0-.1,0-1.8,0-1.8l1-.4,3.3,2.1,2.9-1.2.9-2.9,5.4-7.3.5-5.9,6.6-7.6-.4-4.5,1.2-.8,1.3,1,.8-1.8,2.8,1.1,5.2-2.9,13.7-2.6-.5.9,2,2.7,3.8-.7,2.9,3.9,1.8.6,2.4-1.6,3.7.6,2.1,1,.5,2.1,1.5.7,2.1-2.7,2.2-.2,3-2.1,6.2,1.6,1.1-4.2,6.9.2.6-2.2,1.3-.7Z"/>
    <path id="HU-BU" d="M227,209.7l3.3,2.8-.6.8,2.1,1.4-.9.6h0l1.7,1.8,1.8.2h0l.8.9,1.8-.5,1.4,3.1,4-.7-.3,2.4,1.5,3.2-2.4.7-1.5,2.3-1.1-.2-4.4,4.6-1.9,3.7-2.9,1.2-3.1-3.1.5-.8-1.6-1.9-3.8,2.4-.8-.9-4.6,1.7v-4.8s1.4-1.3,1.4-1.3l-.4-2.1.9-1.1-1.4-2.3-2-1,.7-.8-.9-.8.6-1.3-1.2-.4.7-2.3h-.7s1-.8,1-.8l-.8-2.3,7.7-1.6-.6-1.9,1.2-.6,2.6.3-.3,2.1,1.6-2.5h1Z"/>
    <path id="HU-CS" d="M298.9,363.2l1.7-3.2,1.6.5,2.9-1.2,4.3,9.1h0l-3.9-3.6-3,1.5-2.3-1.7-.4-1.6-.8.3ZM332.2,340l2.2,2.8,3.4,1.7h4.3s.7-3,.7-3l3.4-.5,1.4,3.6-.7,6.5,2,1.5h0l-1.8,2.9.7,4.5-2.2-.3-1.1,4.5-2.7,2.3-1.5-.8-1.2,2.6-6.9-5.6-3.3-1.4-.3,2.3-2.3,2.6-6.1-1.5-1,1-.9-2-4.8,2.5-2.4,3.1-.4-.5h0l1.1-.6,1.1-7.1h-4.3c0,.1-.8-4.1-.8-4.1l6.6.4v-6.9h0l6.6-.8,11.7-9.5ZM323,296.4l2.2-.9,4,3.9h4.2s2.4,1.9,2.4,1.9l-1.2,3.5.8,4.8h-1s-.5,3.8-.5,3.8v9.2c0,0,3.3,3,3.3,3l-.7,7.3-1.8.6v1.4h-5.2c0-.1-3.9-5.5-3.9-5.5l-1.3.2-1.2-2-3.2,1.8-1-1.8-4.9.2.5,2.3-3.2.8,1.2,2.2-3.3,3.2-1.6-.7v-3.3s-1.4.7-1.4.7l-1.3,6.2h0l-1.8.7v3.1c0,0,2,1.5,2,1.5l-.8,2.1-6.5-1.7-.4,4.7-3.7-1.4-3.7,3.4,2.6,2.1,4.8,1.6-1.7,2.9,1.2,3.6-3.2,1.5h0l-6.8-.5-8.4,5-4.2-1.9-4.7-4.3h0l-4.5-8.1,4-4.3-2.6-4.4,4.8-1.5,1.6,1.3,5.5-4.3,2.8,1.9,1.7-1.5,1.5-3.7-1.3-2.5,1.2-1.8-.4-2-3.3-3.2-2.9.6-2.1-2.7,8.1-5.1,3.8,3.2,3.8-4.5v-3.5s-1-1.3-1-1.3l2.2-6.2-3.2-3.4,6.9-8.1h0l2.1,4.5,1.2-.4.3-1.9,4.6,3.4,4.3-4.8,1.7.5,2.6,2.8,2.7.7,1.5-2.5h3.8c0,0,1.5-2,1.5-2Z"/>
    <path id="HU-DE" d="M397.3,218.7v-2.2c-.1,0,2.2-5.7,2.2-5.7l7.1-1.2,5.2-2.6-1,3.5,2.5-2.5,5.4,1.4-1.7,5.3,3.5.4,4.7-3.2,3.7,3.1-.9,5.7-2.7,4.9-1.8-.2-2.8,2.6-5.7,1.9-1-2.7-1.3-.6-2.9.2-3.9,2.7-2.1-9.8-6.6-1Z"/>
    <path id="HU-DU" d="M215.8,284l-5.5.7-5.2-7.9,3.6-1.5,7.4-.3h0l-.3,9Z"/>
    <path id="HU-EG" d="M324.9,178.9l-1.9.4-.4,3.2-4.8.5.2-1.4-2.7-3,.7-.8-1.8-7.4,2-4,3.9,2-.5,2.1,1.6,3.1,2.1,1.4,1.4-1.1,1.1.6.7,2.5h0l-1.8,1.7Z"/>
    <path id="HU-FE" d="M196.2,213.2l.4,5,2.4,4.3h1.8s2.4,3.7,2.4,3.7l.3,3.2-2.3,2.7,7.7,8.9-.2,1.7,1.4.3v2.4c.1,0,3,.6,3,.6l-3.4,13.1,1.9,8.3,4.9,4.9h0l-.5,2.7h0l-7.4.3-3.6,1.5,5.2,7.9,5.5-.7h0l-2.4,6.5h0l-4.6,1.1,1.2,1.1-1,1.8-4.9,3.5v1.9c0,0-3.5.4-3.5.4l-2.2,1.7,1,2.5-5.8,4.2-1.7-.2-1-5.9-3-1.3-1.3-2.6-3.6,2,.4,1.9-3.3.6-2.9-.7-.3-4.5-1.1-1.6v3.7c-.1,0-1.9-2.2-1.9-2.2l-1.1,1.4-3.7-1.4-.7-2.9-4.2,3.7-2.9.6h0l-1-4.4.9-1.7-.7-3,.8-.4-1.5-.5,1.9-1.6-1.5-4.6-2.3-3h0l5.4-6,1.9-.6-1.9-.2-2.3-6,2.2-1.8-1.6-6.6.9-6.3-3.6-2.5-1.3-2.8-3.7,1.8-2.3-3.4-1.3.3-.7-2.9,1.3-1.6-1.6-.2-.6-1.4h0l1.3-1.8,2.4-.8-.5-1.5,2-3,.6-4.9,1.7-.8,1,1.3,2.2-.3.9-1-.5-2.6,4,1.9.4,2.5,4.7,3.8,1.3-1.6,3.4-.3-1.9-2.1.3-.9,1.4-1.6,1.3,1.1,2.5-3.7,1.8-.8h0l2.7-2.1-.9-1.5,1.3-.3-.5-2.4,3-.6h0l3.6-2.1,3,1.1,5.4-1.5ZM177.3,244.9l-1.5.7h0l-.3,2.1-6.1,6.4,3.3,5.8,1.4.7.3,4.7,4.3-1.7.9,1.1,2.8-3.3,3.8-1.1-1.5-3.6h-1.5c0,0,.9-2.2.9-2.2l-1.5-2.8,1.3-1.8-2.2-2.5-2.4.2-1.7-2.9Z"/>
    <path id="HU-GY" d="M117.7,198.6l3.8-2.6,2,1.5,5.2-.6,3,1.9,1.6,4.3-10,5.3-2.3-.7-2.4,4.3-4.7-.4-2.9-1.5-.5-2,3.5-.8.7-5.1,3.2-3.6Z"/>
    <path id="HU-GS" d="M90.7,165.5l1.5,2.3,5,.3,6.8,7.4,2.1,4.6,5.4,2.3,2.5,4.9,3.2-.5,7.5,7.1,5.2,1.9,5.6-.7,2.5.7h0l.7,4.2-1.2,7,3.1,2.2-1.9,6.2,2.4,1.3-2.1.7-1.9-.8,2,5.6-1.7.7v1.4c.1,0-1,0-1,0l.9,1.6-1.1.7h0l-2.9-3.8-1.5,2-1.1-1.9-3,3.8-2-1.9.2,2.2-1.9.3-.2-2.3h-2.1c0,0-2.4,2.1-2.4,2.1l-1.5-1.4-1.2.9-2.7-3.3-2.3,2.2-7-2.3-1.5,1.2-2.5-.6-1.5,4.4-7.3,1.4-2.7-.9-.7.8-1.8-1.4-1.5,1.3h0l-2.1-.6-1.4,2.2-5.5,2.5,1.5-5-1.2-2.2-6.5,4.8-1.6,2.3-2.4-2.5-2,.6-2.5-3.8-2.8,1.5-.5-.9-1.1.8-.4-.7-5,3.4-2.7-.9-2.3-2.8h0l1.7-3-1.3-2.8,2.7-1.1,1.9-3.2-3.8-3,.9-1.2-.3-2.8-1.3-1.9-6.1-.2h0l3.4-1.8,5.3-1,1.6.9,2.7-4.6h0l5.9.2,2.8-4.1.4,3.4.8.2,15.2-2.2-1.5-2.1-1.3-7.1,1.6-1.7-1.9-2.1.3-1.1-3-2.3.5-1,4.9-.6,1.2-2.2-.3-1.4,1.3-2.1-1.6-1,1.8-2.7-1.6-1.2,5.6-4.5,5.4-.6ZM114.5,202.2l-.7,5.1-3.7,1.6.7,1.3,5.9,2.1,1.8-.3,2.4-4.3,2.3.7,10-5.3-1.6-4.3-3-1.9-5.2.6-2-1.5-4.9,4.1-2.1,2.1Z"/>
    <path id="HU-HB" d="M374.2,171.6l5.3.4,4.8,3.5.9,2.4,3.6-1.7,12.9-.5,1.5-1.9,1.8.7h0l1.6.7-.7,1.4h0l.7,3.1-1.6,10.5,4.2,2,2.8,4.8,4.9-.3,1,2.7,3.9.3-.3,1.8,4.7,2.3,3.9-3.4.2-2.8,2.7-.8,4.5,3.1-.4,3,2.1,1.3-.6,2.1,1.3,2.5,4-5.4,2.1,1.3,1.9,6.7h0l-2.4,4-3,1.2,1.1,1.3-.7.9-1.2-1.1-1.8,2.5-1,4.3,1.8,2.7.2,4.2-1.8,3.8-5.1.4-4.4,9.2.6,1.5-2.7,3.9.5,5.3-3,1.8-1.9,6.9-4.8,1-3.2,5.6-2.4.5.7,1.9h0l-1.2.9-.2-1.1-.8.4-1.9,2.6-2.6-.4v4.4c0,0-5.1.8-5.1.8l-1.3,1.4-2.7-1.6-1.6,1.5,1.2-3.2-6.1-.8-9.1-4.5,1-1.5-.7-2.5,4.2-3.2-.5-2.6,1.1-.8v-3.4c.1,0-5.2.3-5.2.3l-2.2-1.9-5.3-.7-4.6-3.6-1,1.7-2.3-3.6-3.2-.6h0l3.2-2.3.9-9.8-2.8-13.9.9-2-1.2-1.9v-6.4c0,0-3.3-3.2-3.3-3.2l-3.9,1.6-3.6-1.6-1.4-4.6.4-3.2h0l3.1,2.7.5-.7-1.9-2.6,3.7-.3-1.1-.3v-2.1c-.1,0,1.1,1.4,1.1,1.4l2.4-.9,1-2.3,3.6-.8v-3.5s3.2.1,3.2.1l2.6-7.3-1.7-3.6,2-1.2v-2.9s3-2.4,3-2.4l-2.4-.8,1.4-1.2.8-3.3ZM403.9,219.8l2.1,9.8,3.9-2.7,2.9-.3,1.3.6,1,2.7,5.7-1.9,2.8-2.6,1.8.2,2.7-4.9.9-5.7-3.7-3.1-4.7,3.2-3.5-.4,1.7-5.3-5.4-1.4-2.5,2.5,1-3.5-5.2,2.6-7.1,1.2-2.6,7,.4.9,4,.6,2.5.4Z"/>
    <path id="HU-HE" d="M298.9,151.8l5.2.9.6,2.4,5.4,2.6,2.5-.9.6-2.7h2.2s2.9,3.3,2.9,3.3l.5-2.6,1.9-2.3-.3-1.4,1.1-.5,3.5.3,2.1,3.8h0v2.7c.1,0,1.9,2.6,1.9,2.6h0l-1.9,1.1.8,3.9-2.9,5.9,5,4.4-1.9,1.5.6,1-2.1-.5h0l-.7-2.5-1.1-.6-1.4,1.1-2.1-1.4-1.6-3.1.5-2.1-3.9-2-2,4,1.8,7.4-.7.8,2.7,3-.2,1.4,4.8-.5.4-3.2,1.9-.4h0l1.3,2.2,2.8,1.3v6.6s6.6,6.7,6.6,6.7l-1.7,2.3.7.9,4.3,2.6,4.8-.2,4.8,3.8h0l-.9,1.4-3.2,1v2.7c0,0-1.3,1-1.3,1l.4,2.7-9.3,6.6-4.1,1.4-1.4,3.6-3-.3.6-2.3-2.3.9.5,4.5-3.1,2.1-1.7-.5.2-2.1-2.2.8-2.1-1.6-2.4-3.5,1-2.4-1-3.4-4.3-2.5-1.7-5-7.7,2,2.4,2.6-1.7,1.3-6.5-2.9-1.1-1.4.9-2.4-1.7-6.2-1.8-.4-4.2,2.3-2.9-1.3-.4,4-1.8.8-2,3-4.8-2.8-3.4,1.4-.3,2.7-2.6-.5h0l-2-6.3-1.4-.4-2.1-4.1,1.1-2.7-2.6-2.5h0l3.2-2.8.9.6,1.2-.9-.9-4.4,1.5-.8.8,1.6,1.8-2.2h2.3c0,.1.7-2.7.7-2.7l2.4-2.3.5-4.1,4.4,3.2,1.2-.6.6-1.7-3.3-1.7-.3-1.4,5-.9,1.8,1.4h2.1c0,0,1.1-2.7,1.1-2.7l1.9-1-.2-2.2,1.5-.8-.3-2,3.6-1.3-1.2-1.2.2-3.6-3.3-2.5-.2-1.4,5-1.8.6-1.8,1.9.2,1.6-2.5Z"/>
    <path id="HU-HV" d="M304.9,339.2l1.3-6.2,1.3-.7v3.3s1.7.7,1.7.7l3.3-3.2-1.2-2.2,3.2-.8-.5-2.3,4.9-.2,1.1,1.8,3.2-1.8,1.2,2,1.3-.2,3.9,5.4h5.2c0,.1,0,3.6,0,3.6l-2.5,1.5h0l-11.7,9.4-6.6.8h0l.4-1.7-4.2-1.1-5.2-8.3Z"/>
    <path id="HU-JN" d="M352.7,203.4l-.4,3.2,1.4,4.6,3.6,1.6,3.9-1.6,3.4,3.2v6.4c0,0,1.1,1.9,1.1,1.9l-.9,2,2.8,13.9-.9,9.8-3.2,2.3h0l-2.3,4.6-7.2,4.2,1.4,2.9-1.6.4-.2,1.1,1.5,4.8-1.2-.5-2.6,2.1-.2,1.3h-3.6s-.2-1.7-.2-1.7l-2.3,2.2h-1.2c0-.1,0,5.7,0,5.7l1,.4.2,1.6-1.6.2,1.7.3-1.7,4.2-4.5,1.7-3.2-1.9h-3.4c0,0-.6,1.5-.6,1.5l-2.1.9-4.1-.2-3.7,4.1,1.1,5.9h0l-1.5,1.9h-3.8c0,0-1.5,2.6-1.5,2.6l-2.7-.7-2.6-2.8-1.7-.5-4.3,4.8-4.6-3.4-.3,1.9-1.2.4-2.1-4.5h0l-1.3-2.1-.9.4.2,2.5-2.2-1.4v-1.8c0,0,2.6-.5,2.6-.5l-.3-.9-1.7.3-1.2-1.6,2.9-1.5.8.7.9-2.1,2.1.2,5.3-4.3-1.2-2.3-2.7-.4v-1.1s2-.9,2-.9l.4-2.3-3.4-2.5h0l1.3-2.8-1.6-.9-2.5-6.9-.5-2.1,1.1-2.7h0l4,2.6-.5.7,1.2,1.3,3.6.2,2.6,2.5h2.3s3-2.9,3-2.9l-1.2-3.4-2.4-1.2,2-5.2-2.2.3,1.2-1-1.4-2h-1.6c0,0-4.6-2.9-4.6-2.9l-4.5,4.7h0l-2.9-3.2-4.2-1.5,2.2-5.5-2.1-4.8-11.6-8.7-2.2-3.5-3.7-3.2,3.1-4.6-3.9-.3-2.5,2-3.7-3.3,1.1-4.5h0l2.6.5.3-2.7,3.4-1.4,4.8,2.8,2-3,1.8-.8.4-4,2.9,1.3,4.2-2.3,1.8.4,1.7,6.2-.9,2.4,1.1,1.4,6.5,2.9,1.7-1.3-2.4-2.6,7.7-2,1.7,5,4.3,2.5,1,3.4-1,2.4,2.4,3.5,2.1,1.6,2.2-.8-.2,2.1,1.7.5,3.1-2.1-.5-4.5,2.3-.9-.6,2.3,3,.3,1.4-3.6,4.1-1.4,9.3-6.6-.4-2.7,1.4-1v-2.7c0,0,3.1-1,3.1-1l.9-1.4h0l-.5-1.3,2.2-1.7,2.5,1.4Z"/>
    <path id="HU-KV" d="M130,336.9v.6h.1l2-2.3,2.8,3.6.9,5.5-2.1.5-.4,1,.6,1-1,5.1-1.3-.3-.6-2.2-1.8.4-.4,1.8h0l-1.6-.6-.2-2.5h0l-2-5.2.8-2.7-.6-4.2h0l.9-1.6,3.6,2.2Z"/>
    <path id="HU-KM" d="M279.8,281.4l1.9,5.5-3.5,4.9-2.7-2.4-.8,1.8-4.1.9-1.4,2.5-3.2.2.3-1.4-2.6-3.1-2.8-2.1h-1.7s-.4-3.1-.4-3.1l-4.1-5,2.1-2,.8.9,2.9-3.9,6.1,1.9,2.6-1.1h0l6.8,5.1,1.6-.6,2.1,1.3Z"/>
    <path id="HU-KE" d="M204.9,186.7l2.7.5h0l4.2,1.8,1.3,6.7,1.6,1.5-1.5,1.6-1.6-1.2-3.5.9.8,6.6-6.2-2.1v1.1c0,0-2.1,0-2.1,0l2.4,2.4-2.9,1.7-1.5,1.5v1.5s-2.3,1.8-2.3,1.8h0l-5.4,1.5-3-1.1-3.6,2.1h0l-.2-1.8-3.1-2.8-3.7-1.2-3.9.7-2,3.5,1.3,2.6,1.1-.4.3,1.9,3.6,2.3,1,2.1h0l-1.8.8-2.5,3.7-1.3-1.1-1.4,1.6-.3.9,1.9,2.1-3.4.3-1.3,1.6-4.7-3.8-.4-2.5-4-1.9.5,2.6-.9,1-2.2.3-1-1.3-1.7.8-.6,4.9-2,3,.5,1.5-2.4.8-1.3,1.8h-5.5c0,0-.2-1.6-.2-1.6l-2.1-1.4,1.3-.5v-1.2s-5.2-1.6-5.2-1.6l1.7-3.5-2.2-3.4h0l1.1-.7-.9-1.6h1.1s-.1-1.4-.1-1.4l1.7-.7-2-5.6,1.9.8,2.1-.7-2.4-1.3,1.9-6.2-3.1-2.2,1.2-6.9-.7-4.2h0l3.9-.6,1.9-1.4,2.3,1.2,2-1.1h3.2s15.9,2.8,15.9,2.8l11.8-3.6,3.2,1.3,3.3-1.3,7.7.6,5.5-2.9,1.3-3,4.9-1Z"/>
    <path id="HU-MI" d="M327.2,154.7l3.1-1.6,5.7.2,4.1-2.5,4.9.3.8-.9,1.9,2,1.8-.5,3.4,1,1.3,2.1-.3,3.4,1,.4-.9,3-2.6,1.7h-3.6c0,0-2.9,1.6-2.9,1.6l-1.2-2.5-2.7-.7-3-2.4-9,.7h0l-1.7-2.6v-2.7Z"/>
    <path id="HU-NK" d="M75,339.9l-2.9,2.1-.3,2.9-2.7-.6-.9.8-2-2.9,2.2-11.9,2.2.2-.2-4.1.9-.4.6.9,2.4-2.3,1.6.5v5.7c-.1,0,2.4,2.1,2.4,2.1l-.3,2,1.2.5.2,1.8h0l-1.8,1.9-2.2-1.5-.5,2.5Z"/>
    <path id="HU-NO" d="M266.7,141.3h1.5c0-.1,1.8,3.7,1.8,3.7l2.2.2,1.6-1.5,3.9,2.4.5,1.2-1.6,2.1,1,1.2,1.7-1.8,1.7.8.9-1.7.3.9,2.8.4,1.1,2.1-.9,2.4,2.8-.9,2.7-3.5,4-1.2,1.3,1h0l3,2.8h0l-1.6,2.5-1.9-.2-.6,1.8-5,1.8.2,1.4,3.3,2.5-.2,3.6,1.2,1.2-3.6,1.3.3,2-1.5.8.2,2.2-1.9,1-1.1,2.6h-2.1c0,0-1.8-1.4-1.8-1.4l-5,.9.3,1.4,3.3,1.7-.6,1.7-1.2.6-4.4-3.2-.5,4.1-2.4,2.3-.7,2.8h-2.3c0-.1-1.8,2.1-1.8,2.1l-.8-1.6-1.5.8.9,4.4-1.2.9-.9-.6-3.2,2.8h0l-2.2-1.1-3.7,3.5,1.6,1.8-2.4,1.1-2.1-4.1-.3-4.5-2.3-.3,1-2.7,1.3-.6-1.6-1.6-4.8-.2-2.5-1.5-6.9.8-4-2.8-.8.9-4.1-.7-2.1.7-1.2-1.8-.7.4-.9-2.6-7.3-6.4.5-2,3.2-2.3,1.2-4.2-1.4-1.4h-2.3c0,0-2-3.1-2-3.1h0l3.9.2,2.5-2.3,3.1,2,1.6-1.4,1.8.8,2-1,7.9,2.1.9-1.7,3.3-1.9,6.3-.5,1.1,1,3.2-2,1.9,1.9v-1.2c.1,0,1.5-.6,1.5-.6l2.7-11.3,4-1.6,3.7-3.6,1.4,1.2Z"/>
    <path id="HU-NY" d="M405,174.4l3.7-7.6,2.4.9,3.2-.4,1.2-3-1.5-1.6.3-1.2,2.7-.3,2.1,1.5,3-.4,1.1,2.8-.9,2.2h1.3c0,.1.2,1.2.2,1.2h3.5c0-.1,1.7,7,1.7,7l-.5,1.5-1.8.2-.5,1.6-2.5-1.3v4.7c-.1,0,1.6.3,1.6.3l-.9,2.1-1.4.4-1.7-2.7-5.9.5-1.7-2.3-2.8-.5-.6-1.6-4.4-2h0l.7-1.4-1.6-.7Z"/>
    <path id="HU-PS" d="M170.9,367.1l.8.9h0l1.1,3.2-.6,1-3.1-.5-2.5,3.7h0l-.9,3.8-3.9,1.4h0l-2.4-3-3-1.7.4-2.1-1.4-3.5h3.1c0,0-.5-1.9-.5-1.9h0l2.5-1.8h0l3.1.8h0l5.6-2.7,1.7,2.5Z"/>
    <path id="HU-PE" d="M212.3,161.6l1.6-.6h0l2,3.1h2.3c0,0,1.4,1.5,1.4,1.5l-1.2,4.2-3.2,2.3-.5,2,7.3,6.4.9,2.6.7-.4,1.2,1.8,2.1-.7,4.1.7.8-.9,4,2.8,6.9-.8,2.5,1.5,4.8.2,1.6,1.6-1.3.6-1,2.7,2.3.3.3,4.5,2.1,4.1,2.4-1.1-1.6-1.8,3.7-3.5,2.2,1.1h0l2.6,2.5-1.1,2.7,2.1,4.1,1.4.4,2,6.3h0l-1.1,4.5,3.7,3.3,2.5-2,3.9.3-3.1,4.6,3.7,3.2,2.2,3.5,11.6,8.7,2.1,4.8-2.2,5.5,4.2,1.5,2.9,3.2h0l1.2,2.9-2.7,3.3h0l-1.1,2.7.5,2.1,2.5,6.9,1.6.9-1.3,2.8h0l-1.9-1.2-5.2,2.1-1,3.9-7.9-3.6-3.3,5.6h0l-2.1-1.3-1.6.6-6.8-5.1h0l-3.3-3.7-4.1-9.6-1.8,1.7-4.1-1.5-2.2,7.1-3.6-1-4.6,3.3-2.1,3.9-3-4.3,3.8-6.1-5.7-4.6-2.8,1.6-1.6,3.8-.7-1h-2.7c0-.1-6.9,6.6-6.9,6.6l-3.3-2.1-4.9-1.1,1.4,2.3-.6,1.5h0l-4.9-4.9-1.9-8.3,3.4-13.1-2.9-.6v-2.4c-.1,0-1.5-.3-1.5-.3l.2-1.7-7.7-8.9,2.3-2.7-.3-3.2-2.4-3.6h-1.8s-2.4-4.4-2.4-4.4l-.4-5h0l2.3-1.8v-1.5s1.5-1.5,1.5-1.5l2.9-1.7-2.4-2.4h2.2s0-1.1,0-1.1l6.3,2.1-.8-6.6,3.5-.9,1.6,1.2,1.5-1.6-1.6-1.5-1.3-6.7-4.2-1.8h0l.6-1-2.1-2.6-4.4-2.2-.3-5.3,1.4-3.6-1.4-2.3,1.1-1.5,2.1.3,1.1-.9,1.1-5.8,3.8-.3.3-1.1,1.4.7ZM224.4,212.2l.3-2.1-2.6-.3-1.2.6.6,1.9-7.7,1.6.8,2.2-1,.8h.7s-.7,2.3-.7,2.3l1.2.4-.6,1.3.9.8-.7.8,2,1,1.4,2.3-.9,1.1.4,2.1-1.4,1.3v4.8s4.6-1.7,4.6-1.7l.8.9,3.8-2.4,1.6,1.9-.5.8,3.1,3.1,2.9-1.2,2-3.7,4.4-4.6,1.1.2,1.5-2.3,2.4-.7-1.5-3.2.3-2.4-4,.7-1.4-3.1-1.8.5-.8-.9h-1.3c0,0-2.2-2-2.2-2h0l.9-.6-2.1-1.4.6-.8-3.3-2.8h-1s-1.6,2.4-1.6,2.4Z"/>
    <path id="HU-SO" d="M103.3,302l5.1-.3,26.4-13.4,2.6.2,1.8-1.6v-2.7s11-5.1,11-5.1l7.4.7h0l2.3,3,1.5,4.6-1.9,1.6,1.5.5-.8.4.7,3-.9,1.7,1,4.4h0l-3.1,1.2.3,2.6-4.3,1.3,1.2,2.8,1.1.3-5.2,8.5,1.1,2.9-1,3.2-1.6,1-1-.5-.6,6.3,2.7,8.1-4.6,2.5.7,1.8,2.8-1,.9,2.9,1.2-.3.4,4-2.5,3.4h0l-7.5-.8-1.8,5.1.3,2.9-.9.8-3-.2-2.4,1.7-3.7-1.8-1.8,2.7-1.5-.5-1-2.9-1.4,1.1.7,1.5-2.8,5.3v5c-.1,0-1.6.8-1.6.8l1.1,1.2-.4,3-3.3,1.9,1.9,5.6-2.2.6,1.4,5.2h1.2c0,.1-.1-1.7-.1-1.7l.6,1.3h2.3c0,0,0,1.6,0,1.6l2.5,2.8v2.2c.1,0-.4,1.4-.4,1.4l-1.8-.3-.6.9-.7-1.5-1.2,2.3-1.3.4h0l-2.2-5.9-4.1-3.5-2.8.3-6.8-1.7-.6,2.4-1.3-1.3-1.7.7-.3-1.5-2.8.5v-2s.5.8.5.8l2.6-.7-2.1-.2v-.9s1,0,1,0v-2c-.1,0-1.4,1.6-1.4,1.6l-1.7-2.2.3,2.5-1.6.5.9-2.3-1.8.6.7-2h-1.8c0,.1-1.7-1.2-1.7-1.2l2.6-1.8h-2.9c0,.1,1.2-2.7,1.2-2.7l-2.9-.4,1.5-.4-1.2-1.6h-2.4c0,.1,2.1-2.1,2.1-2.1h-1.6s.2-1.6.2-1.6l-2.6.7.3-4.5-1.7-.9v-1.1c0,0-2.4,0-2.4,0l-1.7-2-1.4.2-5.4-3.7-2.6-.4-.3-1.9-1.4.3-4.9-3.8-.8-5.3h0l2,1.6,2.4-.5.4,2.7,3.3-2.6,2.9.7,2.5-4.3-2-4.7h0l.5-2.5,2.2,1.5,1.8-1.9h0l2.4,1.5,1-.3v-2.1c.1,0,3.4-.2,3.4-.2l.2-5.8,2.6-2.8-.2-16.4,2.6-2.4.9-4.8,6.9.3,4-2.2ZM127.1,350.5l1.9,1.1h0l.4-1.8,1.8-.4.6,2.2,1.3.3,1-5.1-.6-1,.4-1,2.1-.5-.9-5.5-2.8-3.6-2,2.3h0l-3.5-2.8-1.1,1.7h0l.6,4.2-.8,2.7,2,5.2v2Z"/>
    <path id="HU-SN" d="M44.8,193.9l7.3,2.6,2,5.3h0l-2.7,4.6-1.6-.9-5.3,1-3.4,1.8h0l-4-2.4-2,.6-.4-1.1-4.3-1.7,1.5-.9.3-2.5,2,1.7,1.7-2.3,3.2-1,.5-4.3,5.2-.6Z"/>
    <path id="HU-SZ" d="M455.9,122.4h2c0,.1-1.8,2.7-1.8,2.7l2,2.9,3.8,1-.5,2.8,5,9.8,1.5-1.6,2.3-.2,1.9,1.1,2.3-1.3,3,4.9,2.8,1.4-.5,2.1,2.5,3.7-.7.3.2,3.6,5.9,1.8,4.8-3.1h1.5s.8,1.2.8,1.2l.3-1.4h2.1s.4,1.7.4,1.7l1.4-1.1.9,3.9,1.7,1,.5,2.4,1-.3-1.2,4.6-2.1,2.4,3.9,2.2.5,1.8-3.9,4.8-3.8,1.9h-2.6c0-.1,1.3,5.3,1.3,5.3l-4.6.8-2.3,5.1-5.1,1.7h-4.4c0,0-4.9-4.2-4.9-4.2l-2.4.8-1.3,6.8-5.5-.9-2.8-1.9v2.6s-3.9,1.4-3.9,1.4l-.4,3.4-2.2.9-3.9,10.5-3.3-.4h0l-1.9-6.7-2.1-1.3-4,5.4-1.3-2.5.6-2.1-2.1-1.3.4-3-4.5-3.1-2.7.8-.2,2.8-3.9,3.4-4.7-2.3.4-1.8-3.9-.3-1-2.7-4.9.3-2.8-4.8-4.2-2,1.6-10.5-.7-3.1h0l4.4,2,.6,1.6,2.8.5,1.7,2.3,5.9-.5,1.7,2.7,1.4-.4.9-2.1-1.8-.3v-4.7c.1,0,2.6,1.3,2.6,1.3l.5-1.6,1.8-.2.5-1.5-1.7-7.1h-3.5c0,.1-.2-.9-.2-.9h-1.3c0-.1.9-2.4.9-2.4l-1.1-2.8-3,.4-2.1-1.5-2.7.3-.3,1.2,1.5,1.6-1.2,3-3.2.4-2.4-.9-3.7,7.6h0l-1.8-.7-1.5,1.9-12.9.5-3.6,1.7-.9-2.4-4.8-3.5-5.3-.4h0l-3.2-4.8,3.9-4.6,2.4.3.3,2,3.6.4.4-1.8,2.2-1.7.9,1.8h2.2c0,0,0,1,0,1l2.9.9,1.3-1.3h3.9s.4-2.1.4-2.1l1.7.6v-2c0,0,1.9-.7,1.9-.7l-1.8-.6-.3-1.2,1.3-.3-2.6-3.4,2.1-6.1,2,1.3.7-1.5,3,.5-.3-1.1,4.5-2.6,2.6,1.5,3.9.5h4.1c0,0,.3-1.2.3-1.2l2-.2v1.4c0,0,1.4-1.9,1.4-1.9l.9.5,1.2-1.2.8-2.8.9.9.3-1.1.8,2,.7-1.7,3.3-.6,1.7.7,1.4-2.6.5.5,1.8-2.1.8.3v-1.9c.1,0,2.3-2,2.3-2h.9c0-.1-.8,1.4-.8,1.4h1.6s0-1,0-1l1.5,1.6.6-.8-.9-1,1.3.8v-1.1s1.8.2,1.8.2l-.7-1.9,3.1-2.9-1.4-.9h1.4s-.4-2.1-.4-2.1h0l1.3-.3-.4-1.1,1.5-.6.3-1.5,3.5-1.7,2.4,1.7Z"/>
    <path id="HU-SD" d="M304.9,339.2l5.2,8.3,4.2,1.1-.4,1.7h0v6.9c0,0-6.5-.4-6.5-.4l.8,4.2h4.3c0-.1-1.1,7-1.1,7l-1.1.6h0v-.9c-.1,0-1,.6-1,.6h0l-4.3-9.1-2.9,1.2-1.6-.5-1.7,3.2h0l-2,2.9h-2c0-.1-1-2.6-1-2.6h0l3.2-1.5-1.2-3.6,1.7-2.9-4.9-1.6-2.6-2.1,3.7-3.4,3.7,1.4.4-4.7,6.5,1.7.8-2.1-1.9-1.4v-3.1c0,0,1.7-.7,1.7-.7Z"/>
    <path id="HU-SF" d="M178.4,246.6l.6,1.1h0l2.4-.2,2.2,2.5-1.3,1.8,1.5,2.8-.9,2.3h1.5c0,0,1.5,3.5,1.5,3.5l-3.8,1.1-2.8,3.3-.9-1.1-4.3,1.7-.3-4.7-1.4-.7-3.3-5.8,6.1-6.4.3-2.1h0l1.5-.7,1.1,1.7Z"/>
    <path id="HU-SK" d="M298.3,253.1l4.5-4.7,4.6,3h1.6c0,0,1.4,1.9,1.4,1.9l-1.2,1,2.2-.3-2,5.2,2.4,1.2,1.2,3.4-3,2.9h-2.3s-2.6-2.5-2.6-2.5l-3.6-.2-1.2-1.3.5-.7-4-2.6h0l2.7-3.3-1.2-2.9Z"/>
    <path id="HU-SH" d="M43,247.9l-.2-.9h2.4c0,0,2.6,1.6,2.6,1.6l1.9-1.2.9,2.6-1.9,1.7.9,1.7v5.4s-2.8-1.5-2.8-1.5l-2.7,3-2.8-2.1-1.7-7.8-2.5-2.4,1.5-.6,1.3,1h0l3-.6Z"/>
    <path id="HU-TB" d="M178.8,222.4l-1-2.1-3.6-2.3-.3-1.9-1.1.4-1.3-2.6,2-3.5,3.9-.7,3.7,1.2,3.1,2.8.2,1.8h0l-3,.6.5,2.4-1.3.2.9,1.5-2.7,2.1Z"/>
    <path id="HU-TO" d="M161.2,299l2.9-.6,4.2-3.7.7,2.9,3.7,1.4,1.1-1.4,1.8,2.2v-3.7c.1,0,1.2,1.6,1.2,1.6l.3,4.5,2.9.7,3.4-.6-.4-1.9,3.6-2,1.3,2.6,3,1.3,1,5.9,1.7.2,5.8-4.2-1-2.5,2.2-1.7,3.5-.4v-1.9c0,0,4.9-3.5,4.9-3.5l1-1.8-1.2-1.1,4.6-1.1h0v4.4c.1,0,3.5,4.5,3.5,4.5l2.3,8.5-2.6,4-6.2,2.1-1.7,2.6,2.4,4.9.2,4.5,1.9,4.6v3.1s-2.7,5.6-2.7,5.6l1,6.7,1.7,2.9-.8,4.8-3.4-.8.7,3.2-3.8,3.2.9.6,2.7-1.9-.2,2.8-1.4.5-1.6,4.6-.2-2.7-1.9,1.2v1.9c0,0,2.9.9,2.9.9l-.6,1.8-1-.5v1.1h0l-4.8.2-4.1-2.5-.6.5-5.5-6.6-1.6.8-1.8-3,.6-1.1-3.1-.9.7-4.5-.4-.7-.8.8-1.2-2.1-2.1-1.1v3.2c.1,0-.9,1.5-.9,1.5l-7,3.9-.6-1.2,2.9-1.2,1.4-3.9-.5-1.2-2.9-.3.9-5.7-2.7-1.4-.4-3.9-2.3-2-3.4,1.6-3-.7-3,1.3,1.1,6.1-3.7,2.4-1.3-.8-1.4.7v2.4c0,0,1.3.5,1.3.5l-.5.8-1.6-2.1-1.8,1-1.7-.6h0l2.5-3.4-.4-4-1.2.3-.9-2.9-2.8,1-.7-1.8,4.6-2.5-2.7-8.1.6-6.3,1,.5,1.6-1,1-3.1-1.1-2.9,5.2-8.5-1.1-.3-1.2-2.8,4.3-1.3-.3-2.6,3.1-1.2Z"/>
    <path id="HU-VA" d="M46.7,227.5l2.3,2.8,2.7.9,5-3.4.4.7,1.1-.8.5.9,2.8-1.5,2.5,3.8,2-.6,2.4,2.5,1.6-2.3,6.5-4.8,1.2,2.2-1.5,5,5.5-2.5,1.4-2.2,2.1.6h0l.7,2.7,1.7,1.5-1.4,1.1,1.8,2.2,5.9,3.6-5.1,2-.5,2.8-1.2,1,.9,7.1-1.2,6.8,1.4,6.7-2,1.7-3.2-1.5-5,1.4-.2,2h0v2.4s-1.3-.7-1.3-.7l-1.1.8-.2-1.9-2.5.6,1,3.7-2.7,4.2-4.1-.2-1.9-1.3-3.5.5-.3-.8-2.8,3-1.5.3-.7,2.4-6.8-1.3-2.5,1.8-1.5-.5-4.6,7.4-4.8,2.5v3.1s-1.1,1-1.1,1l-3.3,2.1-2.8-1.3-2.8.9v1.2s2.8-.9,2.8-.9l.2.8-2.7,4.9h0l-.9.8-2.8-4.4.8-2.3-1.3-.3.3-1.8,1.8-.8.5-3.5-3.9-3.6-4.2-.4-5.9,2.3-3.1-1.5,4.7-4.1,1.3-3.4,1.8.4,2.3-2.8h1.5s1.3-5.5,1.3-5.5l.7,1.6,2.9.3.6-1.5,1.7,1.2,2.9-.7,1.4,1.3,1.2-.2.2-1.1,2.6,1.2,2-.7-3.3-3.1-1.4.8-.7-.7.2-.9,5.7-2.1-3.5-1.7-.8-2.2,2.8-1.7v-1.5c.1,0,2.1-.3,2.1-.3l-1-2.3-4.5.6.6-2.8-.7-2.1-1.9.3-.9-2.2,1.7-1.3-.5-3.7h2.6c0,0,1.6-3.1,1.6-3.1l-1.9-5.9-2.2-1.9,1.4-.5.7-2.7-1.1-2.8h2.9c0,.1.9,2,.9,2l1-2.1,4.6.4,1.1-1.9,4.2-2.5ZM40,248.5h0l-1.3-1-1.5.6,2.5,2.4,1.7,7.8,2.8,2.1,2.7-3,2.8,1.5v-5.4s-.9-1.7-.9-1.7l1.9-1.7-.9-2.6-1.9,1.2-2.6-1.7h-2.4c0,0,.2,1,.2,1l-3,.5Z"/>
    <path id="HU-VE" d="M85.4,229l1.5-1.3,1.8,1.4.7-.8,2.7.9,7.3-1.4,1.5-4.4,2.5.6,1.5-1.2,7,2.3,2.3-2.2,2.7,3.3,1.2-.9,1.5,1.4,2.4-2.2h2.1c0,0,.2,2.4.2,2.4l1.9-.3-.2-2.2,2,1.9,3-3.8,1.1,1.9,1.5-2,2.9,3.8h0l2.2,3.4-1.7,3.5,5.2,1.6v1.2s-1.3.5-1.3.5l2.1,1.4.2,1.7h5.5c0,0,.6,1.3.6,1.3l1.6.2-1.3,1.6.7,2.9,1.3-.3,2.3,3.4,3.7-1.8,1.3,2.8,3.6,2.5-.9,6.3,1.6,6.6-2.2,1.8,2.3,6,1.9.2-1.9.6-5.4,6h0l-7.4-.7-11.1,5.1v2.7s-1.7,1.6-1.7,1.6l-2.6-.2-26.4,13.4-5.1.3h0l-4.4-4.5-2.6-4.4,1.1-2.4-1.5-1.8.2-2.2-2.8-2.8-2,.5-2.1-1,1.8-3.8-2-3.5-1.4-1.2-1.6.9-2.3-.6-5.8-5.1h0l.2-2,5-1.4,3.2,1.5,2-1.7-1.4-6.7,1.2-6.8-.9-7.1,1.2-1,.5-2.8,5.1-2-5.9-3.6-1.8-2.2,1.4-1.1-1.7-1.5-.8-2.8ZM136.7,272.7l2.7-.2h0l1.3-3h3.1c0,0,1-4.1,1-4.1h0l-.4-.9h0l.7-.8-3.4-5.9-2.9-2.7h0l-1.7-.5-2.6,3-2.4.2,2.9,2.2.4,2.8-3,3.2,4.2,4.4v2.4Z"/>
    <path id="HU-VM" d="M140.7,256.7l4,5.9-.3,1.9h0l.4.9h0l-1.2,4.2h-2.9c0,0-1.3,2.9-1.3,2.9h0l-2.2.6-.6-2.7h0l-4.2-4.4,3-3.2-.4-2.8-2.9-2.2,2.4-.2,2.6-3,1.7.5h0l1.9,1.6Z"/>
    <path id="HU-ZA" d="M78,270.3l5.8,5.1,2.3.6,1.6-.9,1.4,1.2,2,3.5-1.8,3.8,2.1,1,2-.5,2.8,2.8-.2,2.2,1.5,1.8-1.1,2.4,2.6,4.4,4.4,4.5h0l-4.1,2.1-6.9-.3-.9,4.8-2.6,2.4.2,16.4-2.6,2.8-.2,5.8-3.3.2v2.1c-.1,0-1.1.3-1.1.3l-2.4-1.5h0l-.2-1.8-1.2-.5.3-2-2.6-2.1v-5.7c.1,0-1.5-.5-1.5-.5l-2.4,2.3-.6-.9-.9.4.2,4.1-2.2-.2-2.2,11.9,2,2.9.9-.8,2.7.6.3-2.9,2.9-2.1h0l2,4.7-2.5,4.3-2.9-.7-3.3,2.6-.4-2.7-2.4.5-2-1.6h0l-.6-2.9h-1c0,0-1.1-2.2-1.1-2.2l-.7.8-2.3-2-2.5.7-2-2.2-1,.9-3.4-5.9-1.1.3.5-1.4-2.9-1.1-2,.4-1.4-2-4-2.2.7-2.9-1-.4-.5-2.7-2.1-.7-2.8-4.6-1.7-.4-2.6-3.3.5-2,2,.6.7-3.9-4-.6-.4-2.3h0l2.7-4.9-.2-.8-2.9.9v-1.2s2.8-.9,2.8-.9l2.8,1.3,3.3-2.1,1-1v-3.1s4.8-2.5,4.8-2.5l4.6-7.4,1.5.5,2.5-1.8,6.8,1.3.7-2.4,1.5-.3,2.8-3,.3.8,3.5-.5,1.9,1.3,4.1.2,2.7-4.2-1-3.7,2.5-.6.2,1.8,1.1-.8,1.3.7v-2.4ZM57.2,287.2h0l-.8,3.7,1,.9-.5,3.1,1.3,2-1.3,2.1,1.4,1.8,1.8-1.3,5.7-.4.2-5.4-1.4-2.2.4-1.2-2.4-1.3-.7-1.7h0l-1.9-.2h0l-1.1.5-1.7-.4Z"/>
    <path id="HU-ZE" d="M60.8,287.5h1.1c0-.1.7,1.6.7,1.6l2.4,1.3-.4,1.2,1.4,2.2-.2,5.4-5.7.4-1.8,1.3-1.4-1.8,1.3-2.1-1.3-2,.5-3.1-1-.9.8-3.7h0l1.7.4h0l1.1-.5h0l.8.3Z"/>
  </g>
</svg>