<svg xmlns="http://www.w3.org/2000/svg" xmlns:amcharts="http://amcharts.com/ammap" id="Layer_1" viewBox="0 0 512 512"><g id="_x3C_defs"><amcharts:ammap bottomLatitude="45.737" leftLongitude="16.114" projection="mercator" rightLongitude="22.898" topLatitude="48.586"/></g><g><path id="HU-BK" d="m216.6 272.3.6-1.5-1.4-2.3 4.9 1.1 3.3 2.1 6.9-6.7h2.7c0 .1.7 1.1.7 1.1l1.6-3.8 2.8-1.6 5.7 4.6-3.8 6.1 3 4.3 2.1-3.9 4.6-3.3 3.6 1 2.2-7.1 4.1 1.5 1.8-1.7 4.1 9.6 3.3 3.7-2.6 1.1-6.1-1.9-2.9 3.9-.8-.9-2.1 2 4.1 5 .4 3.1h1.7l2.8 2.1 2.6 3.1-.3 1.4 3.2-.2 1.4-2.5 4.1-.9.8-1.8 2.7 2.4 3.5-4.9-1.9-5.5 3.3-5.6 7.9 3.6 1-3.9 5.2-2.1 1.9 1.2 3.4 2.5-.4 2.3-2 .9v1.1l2.7.4 1.2 2.3-5.3 4.3-2.1-.2-.9 2.1-.8-.7-2.9 1.5 1.2 1.6 1.7-.3.3.9-2.5.5v1.8l2.1 1.4-.2-2.5.9-.4 1.3 2.1-6.9 8.1 3.2 3.4-2.2 6.2 1 1.3v3.5l-3.8 4.5-3.8-3.2-8.1 5.1 2.1 2.7 2.9-.6 3.3 3.2.4 2-1.2 1.8 1.3 2.6-1.5 3.7-1.7 1.5-2.8-1.9-5.5 4.3-1.6-1.3-4.8 1.5 2.6 4.4-4 4.3 4.4 8.1-1 .7-1.4-1-2.1 2.1-5-.8-.7 1.6-3.6 2 1.5 2.6-4.4 2.5v1.5l-3.6 3.7-2.5 1.1-1.2-1.6-6 3.8 1 2.8-.8-.9h-10.1l-.9-4.1-2.2-.4-3 4.1 1 3.7h-4.9l-1.3 1.8 1 2.5-7.4-1.1-2 2-1.2-.4.3 1.1-4 .2-1.1-1 .6-1.3 3.5-1.2-1.9-1.7 2.9-6.2-1.6-2.4 1.8-.7-2-1-.7-3.6 1-1.1-2.2-.9v-1.1l.9.5.6-1.8-2.9-.9v-1.9l2-1.2.2 2.7 1.6-4.6 1.4-.5.2-2.8-2.7 1.9-.9-.6 3.8-3.2-.7-3.2 3.4.8.8-4.8-1.7-2.9-1-6.7 2.6-5.6v-3.1l-1.9-4.6-.2-4.5-2.4-4.9 1.7-2.6 6.2-2.1 2.6-4-2.3-8.5-3.4-4.5v-4.4h-.1l2.4-6.5.3-9 .5-2.7Z"/><path id="HU-BA" d="m149.7 350 1.7.6 1.8-1 1.6 2.1.6-.8-1.2-.5V348l1.3-.7 1.3.8 3.7-2.4-1.2-6.1 3-1.3 3 .7 3.4-1.6 2.3 2 .4 3.9 2.7 1.4-.9 5.7 2.9.3.5 1.2-1.4 3.9-2.9 1.2.6 1.2 7-3.9 1-1.5v-3.2c-.1 0 2 1.1 2 1.1l1.2 2.1.8-.8.4.7-.7 4.5 3.1.9-.6 1.1 1.8 3 1.6-.8 5.5 6.6.6-.5 4.1 2.5 4.8-.2 2.2.9-1 1.1.7 3.6 2 1-1.8.7 1.6 2.4-2.9 6.2 1.9 1.7-3.5 1.2-.6 1.3 1.1 1-.3 3.1h-1.1c0 .1-6.5-4-6.5-4h-3.2l.1 2.2-1.5.9.9 1.3-1.1.8-.6-.9-1.2 2.4.6 1.5-3.6 2.6v1.5l-1.1-.3-2.7 2.1-2.2-1.2-.7 3-2.6.4v2.6c.1 0-2.9-.3-2.9-.3l-3.1-3.4-1.9 2.8-3-1.5h-3.9c0-.1-1-1.9-1-1.9l-3.2-.9-1.3 1.1-3.4-1.3-1.4 2.1-1.6.4-6.2-3.1-5.1 1.1-1.7-.7-3.3 2.7-2.7-4.6-4.9-.2-1.4-1.9-5.1-.5-1.3-1.3 1.3-.4 1.2-2.3.7 1.5.6-.9 1.8.3.5-1.4v-2.2c-.1 0-2.7-2.8-2.7-2.8v-1.5h-2.3l-.6-1.3v1.8c.1 0-1.1-.1-1.1-.1L118 383l2.2-.6-1.9-5.6 3.3-1.9.4-3-1.1-1.2 1.5-.8v-5c.1 0 2.9-5.3 2.9-5.3l-.7-1.5 1.4-1.1 1 2.9 1.5.5 1.8-2.7 3.7 1.8 2.4-1.7 3 .2.9-.8-.3-2.9 1.8-5.1 7.5.8Zm10.8 16.6-2.5 1.8.5 1.8h-3.1l1.4 3.6-.4 2.1 3 1.7 2.4 3 4.2-1.6.6-3.5 2.5-3.7 3.1.5.6-1-1.1-3.2-2.5-3.3-5.6 2.7-3.1-.8Z"/><path id="HU-BE" d="m363.5 250.7 3.2.6 2.3 3.6 1-1.7 4.6 3.6 5.3.7 2.2 1.9 5.3-.3v3.4c-.1 0-1.2.8-1.2.8l.5 2.6-4.2 3.2.7 2.5-1 1.5 9.1 4.5 6.1.8-1.2 3.2 1.6-1.5 2.7 1.6 1.3-1.4 5-.8v-4.4l2.7.4 1.9-2.6.8-.4.2 1.1 1.2-.9 1.4.6.7 1.8-1.5 3.1 1 .9-3.2 3.2-2.8.6 1.1 4.4-1 2.3-5.8 2.9v3.9l-2.7 3.7 3.1 2.9v2c.1 0-2.5 3.7-2.5 3.7l-1.5-1-2.9.2 1.7 3.3-2.6 1.8-.7 2.5-3.2-1.6-3.9 2.1-.8 2.9 1.3.9-2.1 3.8-1.2.4-1.1 4.3 1 2.6h1.6c0 .1 1.2 3.7 1.2 3.7l-1.7 2.8.4.9-5.3-.7-1.2 1.2-.6 5.9-1.8 1.8.5 2.5-4.9.5-.9 4-2.9 2-2-.6-.9-1.8-5.2.3-.5-1.5-1.4.2-.6 1.4-3.2-2.6-7.1 1.3-2-1.5.7-6.5-1.4-3.6-3.4.5-.7 3h-4.3l-3.4-1.6-2.2-2.8 2.5-1.5v-4.9l1.8-.6.7-7.3-3.2-3v-9.2l.4-3.8h1l-.8-4.8 1.2-3.5-2.4-1.9h-4.2l-4-3.9-2.2.9-1.1-5.9 3.7-4.1 4.1.2 2.1-.9.6-1.4h3.4l3.2 1.8 4.5-1.7 1.7-4.2-1.7-.3 1.6-.2-.2-1.6-1-.4v-5.8l1.2.1 2.3-2.2.2 1.8h3.6l.2-1.3 2.6-2.1 1.2.5-1.5-4.8.2-1.1 1.6-.4-1.4-2.9 7.2-4.2 2.2-4.7Zm6.2 52.7-6 2.2-1.8-1.2-3 2.7 1.7 2.1h1.2l2.2 3.4-1.7 4.3 12.3-3.4 2.6-2.7 1.8.7 1.9-1.1-.2-2.1-2-2.3h-1.8l-1.2-1.4-4.6 1.6-1.2-2.6Z"/><path id="HU-BC" d="m370.1 304.1.8 1.9 4.6-1.6 1.2 1.3h1.8l2 2.4.2 2.1-1.9 1.1-1.7-.7-2.6 2.7-12.3 3.3 1.7-4.3-2.2-3.4h-1.2l-1.7-2.1 3-2.7 1.8 1.2 6-2.2.4.7Z"/><path id="HU-BZ" d="m397.6 103.1 5.5 4 2 4.6 5.1-.3 3.7 12.5 3 1.6 1.7 3.7 7.1 1.9 1.1-3.6h1.4l.5 1.2 1.7-.5v-1.3l.3.8.4-.8 2.2.9 1.6-1.9 2.7.3 3.1-1.8 2.1 1.7 1.5-1 .8 1.6.7-1 1.6.3.4 2h-1.4l1.4.9-3.1 2.9.7 1.9-1.8-.2v1.1l-1.2-.8.9 1-.6.8-1.5-1.6v1h-1.6l.8-1.6h-.9c0 .1-2.2 2.1-2.2 2.1v1.9c-.1 0-.9-.3-.9-.3l-1.8 2.1-.5-.5-1.4 2.6-1.7-.7-3.3.6-.7 1.7-.8-2-.3 1.1-.9-.9-.8 2.8-1.2 1.2-.9-.5-1.5 1.9v-1.4l-1.9.2-.3 1.3h-4.1l-3.9-.5-2.6-1.5-4.5 2.6.3 1.1-3-.5-.7 1.5-2-1.3-2.1 6.1 2.6 3.4-1.3.3.3 1.2 1.8.6-1.8.7v2l-1.8-.6-.4 2.1h-3.9l-1.3 1.3-2.9-.9v-1h-2.3l-.9-1.8-2.2 1.7-.4 1.8-3.6-.4-.3-2-2.4-.3-3.9 4.6 3.2 4.8-.8 3.3-1.4 1.2 2.4.8-3.1 2.4v2.9l-2 1.2 1.7 3.6-2.6 7.3h-3.2v3.3l-3.6.8-1 2.3-2.4.9-1.2-1.4v2.1c.1 0 1.2.3 1.2.3l-3.7.3 1.9 2.6-.5.7-3.1-2.7-2.5-1.4-2.2 1.7.5 1.3-4.8-3.8-4.8.2-4.3-2.6-.7-.9 1.7-2.3-6.6-6.7v-6.6l-2.9-1.3-1.3-2.2 1.8-1.7 2.1.5-.6-1 1.9-1.5-5-4.4 2.9-5.9-.8-3.9 1.9-1.1 9-.7 3 2.4 2.7.7 1.2 2.5 2.9-1.5h3.6l2.6-1.8.9-3-1-.4.3-3.4-1.3-2.1-3.4-1-1.8.5-1.9-2-.8.9-4.9-.3-4.1 2.5-5.7-.2-3.1 1.6-2.1-3.8-3.5-.3-1.1.5.3 1.4-1.9 2.3-.5 2.6-2.9-3.3h-2.2l-.6 2.8-2.5.9-5.4-2.6-.6-2.4-5.2-.9-3-2.8 2.1-1.6-.7-.7.6-.8 4-2.9.3-3.3 5.3.2-.3-1.1h1.9V137l1-.4 3.3 2.1 2.9-1.2.9-2.9 5.4-7.3.5-5.9 6.6-7.6-.4-4.5 1.2-.8 1.3 1 .8-1.8 2.8 1.1 5.2-2.9 13.7-2.6-.5.9 2 2.7 3.8-.7 2.9 3.9 1.8.6 2.4-1.6 3.7.6 2.1 1 .5 2.1 1.5.7 2.1-2.7 2.2-.2 3-2.1 6.2 1.6 1.1-4.2 6.9.2.6-2.2 1.3-.7Z"/><path id="HU-BU" d="m227 209.7 3.3 2.8-.6.8 2.1 1.4-.9.6 1.7 1.8 1.8.2.8.9 1.8-.5 1.4 3.1 4-.7-.3 2.4 1.5 3.2-2.4.7-1.5 2.3-1.1-.2-4.4 4.6-1.9 3.7-2.9 1.2-3.1-3.1.5-.8-1.6-1.9-3.8 2.4-.8-.9-4.6 1.7v-4.8l1.4-1.3-.4-2.1.9-1.1-1.4-2.3-2-1 .7-.8-.9-.8.6-1.3-1.2-.4.7-2.3h-.7l1-.8-.8-2.3 7.7-1.6-.6-1.9 1.2-.6 2.6.3-.3 2.1 1.6-2.5h1Z"/><path id="HU-CS" d="m298.9 363.2 1.7-3.2 1.6.5 2.9-1.2 4.3 9.1-3.9-3.6-3 1.5-2.3-1.7-.4-1.6-.8.3Zm33.3-23.2 2.2 2.8 3.4 1.7h4.3l.7-3 3.4-.5 1.4 3.6-.7 6.5 2 1.5-1.8 2.9.7 4.5-2.2-.3-1.1 4.5-2.7 2.3-1.5-.8-1.2 2.6-6.9-5.6-3.3-1.4-.3 2.3-2.3 2.6-6.1-1.5-1 1-.9-2-4.8 2.5-2.4 3.1-.4-.5 1.1-.6 1.1-7.1h-4.3c0 .1-.8-4.1-.8-4.1l6.6.4v-6.9l6.6-.8 11.7-9.5Zm-9.2-43.6 2.2-.9 4 3.9h4.2l2.4 1.9-1.2 3.5.8 4.8h-1l-.5 3.8v9.2l3.3 3-.7 7.3-1.8.6v1.4h-5.2c0-.1-3.9-5.5-3.9-5.5l-1.3.2-1.2-2-3.2 1.8-1-1.8-4.9.2.5 2.3-3.2.8 1.2 2.2-3.3 3.2-1.6-.7v-3.3l-1.4.7-1.3 6.2-1.8.7v3.1l2 1.5-.8 2.1-6.5-1.7-.4 4.7-3.7-1.4-3.7 3.4 2.6 2.1 4.8 1.6-1.7 2.9 1.2 3.6-3.2 1.5-6.8-.5-8.4 5-4.2-1.9-4.7-4.3-4.5-8.1 4-4.3-2.6-4.4 4.8-1.5 1.6 1.3 5.5-4.3 2.8 1.9 1.7-1.5 1.5-3.7-1.3-2.5 1.2-1.8-.4-2-3.3-3.2-2.9.6-2.1-2.7 8.1-5.1 3.8 3.2 3.8-4.5v-3.5l-1-1.3 2.2-6.2-3.2-3.4 6.9-8.1 2.1 4.5 1.2-.4.3-1.9 4.6 3.4 4.3-4.8 1.7.5 2.6 2.8 2.7.7 1.5-2.5h3.8l1.5-2Z"/><path id="HU-DE" d="M397.3 218.7v-2.2c-.1 0 2.2-5.7 2.2-5.7l7.1-1.2 5.2-2.6-1 3.5 2.5-2.5 5.4 1.4-1.7 5.3 3.5.4 4.7-3.2 3.7 3.1-.9 5.7-2.7 4.9-1.8-.2-2.8 2.6-5.7 1.9-1-2.7-1.3-.6-2.9.2-3.9 2.7-2.1-9.8-6.6-1Z"/><path id="HU-DU" d="m215.8 284-5.5.7-5.2-7.9 3.6-1.5 7.4-.3z"/><path id="HU-EG" d="m324.9 178.9-1.9.4-.4 3.2-4.8.5.2-1.4-2.7-3 .7-.8-1.8-7.4 2-4 3.9 2-.5 2.1 1.6 3.1 2.1 1.4 1.4-1.1 1.1.6.7 2.5-1.8 1.7Z"/><path id="HU-FE" d="m196.2 213.2.4 5 2.4 4.3h1.8l2.4 3.7.3 3.2-2.3 2.7 7.7 8.9-.2 1.7 1.4.3v2.4c.1 0 3 .6 3 .6l-3.4 13.1 1.9 8.3 4.9 4.9-.5 2.7-7.4.3-3.6 1.5 5.2 7.9 5.5-.7-2.4 6.5-4.6 1.1 1.2 1.1-1 1.8-4.9 3.5v1.9l-3.5.4-2.2 1.7 1 2.5-5.8 4.2-1.7-.2-1-5.9-3-1.3-1.3-2.6-3.6 2 .4 1.9-3.3.6-2.9-.7-.3-4.5-1.1-1.6v3.7c-.1 0-1.9-2.2-1.9-2.2l-1.1 1.4-3.7-1.4-.7-2.9-4.2 3.7-2.9.6-1-4.4.9-1.7-.7-3 .8-.4-1.5-.5 1.9-1.6-1.5-4.6-2.3-3 5.4-6 1.9-.6-1.9-.2-2.3-6 2.2-1.8-1.6-6.6.9-6.3-3.6-2.5-1.3-2.8-3.7 1.8-2.3-3.4-1.3.3-.7-2.9 1.3-1.6-1.6-.2-.6-1.4 1.3-1.8 2.4-.8-.5-1.5 2-3 .6-4.9 1.7-.8 1 1.3 2.2-.3.9-1-.5-2.6 4 1.9.4 2.5 4.7 3.8 1.3-1.6 3.4-.3-1.9-2.1.3-.9 1.4-1.6 1.3 1.1 2.5-3.7 1.8-.8 2.7-2.1-.9-1.5 1.3-.3-.5-2.4 3-.6 3.6-2.1 3 1.1 5.4-1.5Zm-18.9 31.7-1.5.7-.3 2.1-6.1 6.4 3.3 5.8 1.4.7.3 4.7 4.3-1.7.9 1.1 2.8-3.3 3.8-1.1-1.5-3.6h-1.5l.9-2.2-1.5-2.8 1.3-1.8-2.2-2.5-2.4.2-1.7-2.9Z"/><path id="HU-GY" d="m117.7 198.6 3.8-2.6 2 1.5 5.2-.6 3 1.9 1.6 4.3-10 5.3-2.3-.7-2.4 4.3-4.7-.4-2.9-1.5-.5-2 3.5-.8.7-5.1 3.2-3.6Z"/><path id="HU-GS" d="m90.7 165.5 1.5 2.3 5 .3 6.8 7.4 2.1 4.6 5.4 2.3 2.5 4.9 3.2-.5 7.5 7.1 5.2 1.9 5.6-.7 2.5.7.7 4.2-1.2 7 3.1 2.2-1.9 6.2 2.4 1.3-2.1.7-1.9-.8 2 5.6-1.7.7v1.4h-1l.9 1.6-1.1.7-2.9-3.8-1.5 2-1.1-1.9-3 3.8-2-1.9.2 2.2-1.9.3-.2-2.3h-2.1l-2.4 2.1-1.5-1.4-1.2.9-2.7-3.3-2.3 2.2-7-2.3-1.5 1.2-2.5-.6-1.5 4.4-7.3 1.4-2.7-.9-.7.8-1.8-1.4-1.5 1.3-2.1-.6-1.4 2.2-5.5 2.5 1.5-5-1.2-2.2-6.5 4.8-1.6 2.3-2.4-2.5-2 .6-2.5-3.8-2.8 1.5-.5-.9-1.1.8-.4-.7-5 3.4-2.7-.9-2.3-2.8 1.7-3-1.3-2.8 2.7-1.1 1.9-3.2-3.8-3 .9-1.2-.3-2.8-1.3-1.9-6.1-.2 3.4-1.8 5.3-1 1.6.9 2.7-4.6 5.9.2 2.8-4.1.4 3.4.8.2 15.2-2.2-1.5-2.1-1.3-7.1 1.6-1.7-1.9-2.1.3-1.1-3-2.3.5-1 4.9-.6 1.2-2.2-.3-1.4 1.3-2.1-1.6-1 1.8-2.7-1.6-1.2 5.6-4.5 5.4-.6Zm23.8 36.7-.7 5.1-3.7 1.6.7 1.3 5.9 2.1 1.8-.3 2.4-4.3 2.3.7 10-5.3-1.6-4.3-3-1.9-5.2.6-2-1.5-4.9 4.1-2.1 2.1Z"/><path id="HU-HB" d="m374.2 171.6 5.3.4 4.8 3.5.9 2.4 3.6-1.7 12.9-.5 1.5-1.9 1.8.7 1.6.7-.7 1.4.7 3.1-1.6 10.5 4.2 2 2.8 4.8 4.9-.3 1 2.7 3.9.3-.3 1.8 4.7 2.3 3.9-3.4.2-2.8 2.7-.8 4.5 3.1-.4 3 2.1 1.3-.6 2.1 1.3 2.5 4-5.4 2.1 1.3 1.9 6.7-2.4 4-3 1.2 1.1 1.3-.7.9-1.2-1.1-1.8 2.5-1 4.3 1.8 2.7.2 4.2-1.8 3.8-5.1.4-4.4 9.2.6 1.5-2.7 3.9.5 5.3-3 1.8-1.9 6.9-4.8 1-3.2 5.6-2.4.5.7 1.9-1.2.9-.2-1.1-.8.4-1.9 2.6-2.6-.4v4.4l-5.1.8-1.3 1.4-2.7-1.6-1.6 1.5 1.2-3.2-6.1-.8-9.1-4.5 1-1.5-.7-2.5 4.2-3.2-.5-2.6 1.1-.8v-3.4c.1 0-5.2.3-5.2.3l-2.2-1.9-5.3-.7-4.6-3.6-1 1.7-2.3-3.6-3.2-.6 3.2-2.3.9-9.8-2.8-13.9.9-2-1.2-1.9v-6.4l-3.3-3.2-3.9 1.6-3.6-1.6-1.4-4.6.4-3.2 3.1 2.7.5-.7-1.9-2.6 3.7-.3-1.1-.3v-2.1c-.1 0 1.1 1.4 1.1 1.4l2.4-.9 1-2.3 3.6-.8v-3.5l3.2.1 2.6-7.3-1.7-3.6 2-1.2v-2.9l3-2.4-2.4-.8 1.4-1.2.8-3.3Zm29.7 48.2 2.1 9.8 3.9-2.7 2.9-.3 1.3.6 1 2.7 5.7-1.9 2.8-2.6 1.8.2 2.7-4.9.9-5.7-3.7-3.1-4.7 3.2-3.5-.4 1.7-5.3-5.4-1.4-2.5 2.5 1-3.5-5.2 2.6-7.1 1.2-2.6 7 .4.9 4 .6 2.5.4Z"/><path id="HU-HE" d="m298.9 151.8 5.2.9.6 2.4 5.4 2.6 2.5-.9.6-2.7h2.2l2.9 3.3.5-2.6 1.9-2.3-.3-1.4 1.1-.5 3.5.3 2.1 3.8v2.7c.1 0 1.9 2.6 1.9 2.6l-1.9 1.1.8 3.9-2.9 5.9 5 4.4-1.9 1.5.6 1-2.1-.5-.7-2.5-1.1-.6-1.4 1.1-2.1-1.4-1.6-3.1.5-2.1-3.9-2-2 4 1.8 7.4-.7.8 2.7 3-.2 1.4 4.8-.5.4-3.2 1.9-.4 1.3 2.2 2.8 1.3v6.6l6.6 6.7-1.7 2.3.7.9 4.3 2.6 4.8-.2 4.8 3.8-.9 1.4-3.2 1v2.7l-1.3 1 .4 2.7-9.3 6.6-4.1 1.4-1.4 3.6-3-.3.6-2.3-2.3.9.5 4.5-3.1 2.1-1.7-.5.2-2.1-2.2.8-2.1-1.6-2.4-3.5 1-2.4-1-3.4-4.3-2.5-1.7-5-7.7 2 2.4 2.6-1.7 1.3-6.5-2.9-1.1-1.4.9-2.4-1.7-6.2-1.8-.4-4.2 2.3-2.9-1.3-.4 4-1.8.8-2 3-4.8-2.8-3.4 1.4-.3 2.7-2.6-.5-2-6.3-1.4-.4-2.1-4.1 1.1-2.7-2.6-2.5 3.2-2.8.9.6 1.2-.9-.9-4.4 1.5-.8.8 1.6 1.8-2.2h2.3c0 .1.7-2.7.7-2.7l2.4-2.3.5-4.1 4.4 3.2 1.2-.6.6-1.7-3.3-1.7-.3-1.4 5-.9 1.8 1.4h2.1l1.1-2.7 1.9-1-.2-2.2 1.5-.8-.3-2 3.6-1.3-1.2-1.2.2-3.6-3.3-2.5-.2-1.4 5-1.8.6-1.8 1.9.2 1.6-2.5Z"/><path id="HU-HV" d="m304.9 339.2 1.3-6.2 1.3-.7v3.3l1.7.7 3.3-3.2-1.2-2.2 3.2-.8-.5-2.3 4.9-.2 1.1 1.8 3.2-1.8 1.2 2 1.3-.2 3.9 5.4h5.2v3.6l-2.5 1.5-11.7 9.4-6.6.8.4-1.7-4.2-1.1-5.2-8.3Z"/><path id="HU-JN" d="m352.7 203.4-.4 3.2 1.4 4.6 3.6 1.6 3.9-1.6 3.4 3.2v6.4l1.1 1.9-.9 2 2.8 13.9-.9 9.8-3.2 2.3-2.3 4.6-7.2 4.2 1.4 2.9-1.6.4-.2 1.1 1.5 4.8-1.2-.5-2.6 2.1-.2 1.3h-3.6l-.2-1.7-2.3 2.2h-1.2v5.7l1 .4.2 1.6-1.6.2 1.7.3-1.7 4.2-4.5 1.7-3.2-1.9h-3.4l-.6 1.5-2.1.9-4.1-.2-3.7 4.1 1.1 5.9-1.5 1.9h-3.8l-1.5 2.6-2.7-.7-2.6-2.8-1.7-.5-4.3 4.8-4.6-3.4-.3 1.9-1.2.4-2.1-4.5-1.3-2.1-.9.4.2 2.5-2.2-1.4v-1.8l2.6-.5-.3-.9-1.7.3-1.2-1.6 2.9-1.5.8.7.9-2.1 2.1.2 5.3-4.3-1.2-2.3-2.7-.4v-1.1l2-.9.4-2.3-3.4-2.5 1.3-2.8-1.6-.9-2.5-6.9-.5-2.1 1.1-2.7 4 2.6-.5.7 1.2 1.3 3.6.2 2.6 2.5h2.3l3-2.9-1.2-3.4-2.4-1.2 2-5.2-2.2.3 1.2-1-1.4-2h-1.6l-4.6-2.9-4.5 4.7-2.9-3.2-4.2-1.5 2.2-5.5-2.1-4.8-11.6-8.7-2.2-3.5-3.7-3.2 3.1-4.6-3.9-.3-2.5 2-3.7-3.3 1.1-4.5 2.6.5.3-2.7 3.4-1.4 4.8 2.8 2-3 1.8-.8.4-4 2.9 1.3 4.2-2.3 1.8.4 1.7 6.2-.9 2.4 1.1 1.4 6.5 2.9 1.7-1.3-2.4-2.6 7.7-2 1.7 5 4.3 2.5 1 3.4-1 2.4 2.4 3.5 2.1 1.6 2.2-.8-.2 2.1 1.7.5 3.1-2.1-.5-4.5 2.3-.9-.6 2.3 3 .3 1.4-3.6 4.1-1.4 9.3-6.6-.4-2.7 1.4-1v-2.7l3.1-1 .9-1.4-.5-1.3 2.2-1.7 2.5 1.4Z"/><path id="HU-KV" d="M130 336.9v.6h.1l2-2.3 2.8 3.6.9 5.5-2.1.5-.4 1 .6 1-1 5.1-1.3-.3-.6-2.2-1.8.4-.4 1.8-1.6-.6-.2-2.5-2-5.2.8-2.7-.6-4.2.9-1.6 3.6 2.2Z"/><path id="HU-KM" d="m279.8 281.4 1.9 5.5-3.5 4.9-2.7-2.4-.8 1.8-4.1.9-1.4 2.5-3.2.2.3-1.4-2.6-3.1-2.8-2.1h-1.7l-.4-3.1-4.1-5 2.1-2 .8.9 2.9-3.9 6.1 1.9 2.6-1.1 6.8 5.1 1.6-.6 2.1 1.3Z"/><path id="HU-KE" d="m204.9 186.7 2.7.5 4.2 1.8 1.3 6.7 1.6 1.5-1.5 1.6-1.6-1.2-3.5.9.8 6.6-6.2-2.1v1.1h-2.1l2.4 2.4-2.9 1.7-1.5 1.5v1.5l-2.3 1.8-5.4 1.5-3-1.1-3.6 2.1-.2-1.8-3.1-2.8-3.7-1.2-3.9.7-2 3.5 1.3 2.6 1.1-.4.3 1.9 3.6 2.3 1 2.1-1.8.8-2.5 3.7-1.3-1.1-1.4 1.6-.3.9 1.9 2.1-3.4.3-1.3 1.6-4.7-3.8-.4-2.5-4-1.9.5 2.6-.9 1-2.2.3-1-1.3-1.7.8-.6 4.9-2 3 .5 1.5-2.4.8-1.3 1.8h-5.5l-.2-1.6-2.1-1.4 1.3-.5v-1.2l-5.2-1.6 1.7-3.5-2.2-3.4 1.1-.7-.9-1.6h1.1l-.1-1.4 1.7-.7-2-5.6 1.9.8 2.1-.7-2.4-1.3 1.9-6.2-3.1-2.2 1.2-6.9-.7-4.2 3.9-.6 1.9-1.4 2.3 1.2 2-1.1h3.2l15.9 2.8 11.8-3.6 3.2 1.3 3.3-1.3 7.7.6 5.5-2.9 1.3-3 4.9-1Z"/><path id="HU-MI" d="m327.2 154.7 3.1-1.6 5.7.2 4.1-2.5 4.9.3.8-.9 1.9 2 1.8-.5 3.4 1 1.3 2.1-.3 3.4 1 .4-.9 3-2.6 1.7h-3.6l-2.9 1.6-1.2-2.5-2.7-.7-3-2.4-9 .7-1.7-2.6v-2.7Z"/><path id="HU-NK" d="m75 339.9-2.9 2.1-.3 2.9-2.7-.6-.9.8-2-2.9 2.2-11.9 2.2.2-.2-4.1.9-.4.6.9 2.4-2.3 1.6.5v5.7c-.1 0 2.4 2.1 2.4 2.1l-.3 2 1.2.5.2 1.8-1.8 1.9-2.2-1.5-.5 2.5Z"/><path id="HU-NO" d="M266.7 141.3h1.5c0-.1 1.8 3.7 1.8 3.7l2.2.2 1.6-1.5 3.9 2.4.5 1.2-1.6 2.1 1 1.2 1.7-1.8 1.7.8.9-1.7.3.9 2.8.4 1.1 2.1-.9 2.4 2.8-.9 2.7-3.5 4-1.2 1.3 1 3 2.8-1.6 2.5-1.9-.2-.6 1.8-5 1.8.2 1.4 3.3 2.5-.2 3.6 1.2 1.2-3.6 1.3.3 2-1.5.8.2 2.2-1.9 1-1.1 2.6h-2.1l-1.8-1.4-5 .9.3 1.4 3.3 1.7-.6 1.7-1.2.6-4.4-3.2-.5 4.1-2.4 2.3-.7 2.8h-2.3c0-.1-1.8 2.1-1.8 2.1l-.8-1.6-1.5.8.9 4.4-1.2.9-.9-.6-3.2 2.8-2.2-1.1-3.7 3.5 1.6 1.8-2.4 1.1-2.1-4.1-.3-4.5-2.3-.3 1-2.7 1.3-.6-1.6-1.6-4.8-.2-2.5-1.5-6.9.8-4-2.8-.8.9-4.1-.7-2.1.7-1.2-1.8-.7.4-.9-2.6-7.3-6.4.5-2 3.2-2.3 1.2-4.2-1.4-1.4h-2.3l-2-3.1 3.9.2 2.5-2.3 3.1 2 1.6-1.4 1.8.8 2-1 7.9 2.1.9-1.7 3.3-1.9 6.3-.5 1.1 1 3.2-2 1.9 1.9v-1.2c.1 0 1.5-.6 1.5-.6l2.7-11.3 4-1.6 3.7-3.6 1.4 1.2Z"/><path id="HU-NY" d="m405 174.4 3.7-7.6 2.4.9 3.2-.4 1.2-3-1.5-1.6.3-1.2 2.7-.3 2.1 1.5 3-.4 1.1 2.8-.9 2.2h1.3c0 .1.2 1.2.2 1.2h3.5c0-.1 1.7 7 1.7 7l-.5 1.5-1.8.2-.5 1.6-2.5-1.3v4.7c-.1 0 1.6.3 1.6.3l-.9 2.1-1.4.4-1.7-2.7-5.9.5-1.7-2.3-2.8-.5-.6-1.6-4.4-2 .7-1.4-1.6-.7Z"/><path id="HU-PS" d="m170.9 367.1.8.9 1.1 3.2-.6 1-3.1-.5-2.5 3.7-.9 3.8-3.9 1.4-2.4-3-3-1.7.4-2.1-1.4-3.5h3.1l-.5-1.9 2.5-1.8 3.1.8 5.6-2.7 1.7 2.5Z"/><path id="HU-PE" d="m212.3 161.6 1.6-.6 2 3.1h2.3l1.4 1.5-1.2 4.2-3.2 2.3-.5 2 7.3 6.4.9 2.6.7-.4 1.2 1.8 2.1-.7 4.1.7.8-.9 4 2.8 6.9-.8 2.5 1.5 4.8.2 1.6 1.6-1.3.6-1 2.7 2.3.3.3 4.5 2.1 4.1 2.4-1.1-1.6-1.8 3.7-3.5 2.2 1.1 2.6 2.5-1.1 2.7 2.1 4.1 1.4.4 2 6.3-1.1 4.5 3.7 3.3 2.5-2 3.9.3-3.1 4.6 3.7 3.2 2.2 3.5 11.6 8.7 2.1 4.8-2.2 5.5 4.2 1.5 2.9 3.2 1.2 2.9-2.7 3.3-1.1 2.7.5 2.1 2.5 6.9 1.6.9-1.3 2.8-1.9-1.2-5.2 2.1-1 3.9-7.9-3.6-3.3 5.6-2.1-1.3-1.6.6-6.8-5.1-3.3-3.7-4.1-9.6-1.8 1.7-4.1-1.5-2.2 7.1-3.6-1-4.6 3.3-2.1 3.9-3-4.3 3.8-6.1-5.7-4.6-2.8 1.6-1.6 3.8-.7-1h-2.7c0-.1-6.9 6.6-6.9 6.6l-3.3-2.1-4.9-1.1 1.4 2.3-.6 1.5-4.9-4.9-1.9-8.3 3.4-13.1-2.9-.6V243c-.1 0-1.5-.3-1.5-.3l.2-1.7-7.7-8.9 2.3-2.7-.3-3.2-2.4-3.6h-1.8l-2.4-4.4-.4-5 2.3-1.8v-1.5l1.5-1.5 2.9-1.7-2.4-2.4h2.2v-1.1l6.3 2.1-.8-6.6 3.5-.9 1.6 1.2 1.5-1.6-1.6-1.5-1.3-6.7-4.2-1.8.6-1-2.1-2.6-4.4-2.2-.3-5.3 1.4-3.6-1.4-2.3 1.1-1.5 2.1.3 1.1-.9 1.1-5.8 3.8-.3.3-1.1 1.4.7Zm12.1 50.6.3-2.1-2.6-.3-1.2.6.6 1.9-7.7 1.6.8 2.2-1 .8h.7l-.7 2.3 1.2.4-.6 1.3.9.8-.7.8 2 1 1.4 2.3-.9 1.1.4 2.1-1.4 1.3v4.8l4.6-1.7.8.9 3.8-2.4 1.6 1.9-.5.8 3.1 3.1 2.9-1.2 2-3.7 4.4-4.6 1.1.2 1.5-2.3 2.4-.7-1.5-3.2.3-2.4-4 .7-1.4-3.1-1.8.5-.8-.9h-1.3l-2.2-2 .9-.6-2.1-1.4.6-.8-3.3-2.8h-1l-1.6 2.4Z"/><path id="HU-SO" d="m103.3 302 5.1-.3 26.4-13.4 2.6.2 1.8-1.6v-2.7l11-5.1 7.4.7 2.3 3 1.5 4.6-1.9 1.6 1.5.5-.8.4.7 3-.9 1.7 1 4.4-3.1 1.2.3 2.6-4.3 1.3 1.2 2.8 1.1.3-5.2 8.5 1.1 2.9-1 3.2-1.6 1-1-.5-.6 6.3 2.7 8.1-4.6 2.5.7 1.8 2.8-1 .9 2.9 1.2-.3.4 4-2.5 3.4-7.5-.8-1.8 5.1.3 2.9-.9.8-3-.2-2.4 1.7-3.7-1.8-1.8 2.7-1.5-.5-1-2.9-1.4 1.1.7 1.5-2.8 5.3v5c-.1 0-1.6.8-1.6.8l1.1 1.2-.4 3-3.3 1.9 1.9 5.6-2.2.6 1.4 5.2h1.2c0 .1-.1-1.7-.1-1.7l.6 1.3h2.3v1.6l2.5 2.8v2.2c.1 0-.4 1.4-.4 1.4l-1.8-.3-.6.9-.7-1.5-1.2 2.3-1.3.4-2.2-5.9-4.1-3.5-2.8.3-6.8-1.7-.6 2.4-1.3-1.3-1.7.7-.3-1.5-2.8.5v-2l.5.8 2.6-.7-2.1-.2v-.9h1v-2c-.1 0-1.4 1.6-1.4 1.6l-1.7-2.2.3 2.5-1.6.5.9-2.3-1.8.6.7-2h-1.8c0 .1-1.7-1.2-1.7-1.2l2.6-1.8h-2.9c0 .1 1.2-2.7 1.2-2.7l-2.9-.4 1.5-.4-1.2-1.6h-2.4c0 .1 2.1-2.1 2.1-2.1h-1.6l.2-1.6-2.6.7.3-4.5-1.7-.9v-1.1h-2.4l-1.7-2-1.4.2-5.4-3.7-2.6-.4-.3-1.9-1.4.3-4.9-3.8-.8-5.3 2 1.6 2.4-.5.4 2.7 3.3-2.6 2.9.7 2.5-4.3-2-4.7.5-2.5 2.2 1.5 1.8-1.9 2.4 1.5 1-.3v-2.1c.1 0 3.4-.2 3.4-.2l.2-5.8 2.6-2.8-.2-16.4 2.6-2.4.9-4.8 6.9.3 4-2.2Zm23.8 48.5 1.9 1.1.4-1.8 1.8-.4.6 2.2 1.3.3 1-5.1-.6-1 .4-1 2.1-.5-.9-5.5-2.8-3.6-2 2.3-3.5-2.8-1.1 1.7.6 4.2-.8 2.7 2 5.2v2Z"/><path id="HU-SN" d="m44.8 193.9 7.3 2.6 2 5.3-2.7 4.6-1.6-.9-5.3 1-3.4 1.8-4-2.4-2 .6-.4-1.1-4.3-1.7 1.5-.9.3-2.5 2 1.7 1.7-2.3 3.2-1 .5-4.3 5.2-.6Z"/><path id="HU-SZ" d="M455.9 122.4h2c0 .1-1.8 2.7-1.8 2.7l2 2.9 3.8 1-.5 2.8 5 9.8 1.5-1.6 2.3-.2 1.9 1.1 2.3-1.3 3 4.9 2.8 1.4-.5 2.1 2.5 3.7-.7.3.2 3.6 5.9 1.8 4.8-3.1h1.5l.8 1.2.3-1.4h2.1l.4 1.7 1.4-1.1.9 3.9 1.7 1 .5 2.4 1-.3-1.2 4.6-2.1 2.4 3.9 2.2.5 1.8-3.9 4.8-3.8 1.9h-2.6c0-.1 1.3 5.3 1.3 5.3l-4.6.8-2.3 5.1-5.1 1.7h-4.4l-4.9-4.2-2.4.8-1.3 6.8-5.5-.9-2.8-1.9v2.6l-3.9 1.4-.4 3.4-2.2.9-3.9 10.5-3.3-.4-1.9-6.7-2.1-1.3-4 5.4-1.3-2.5.6-2.1-2.1-1.3.4-3-4.5-3.1-2.7.8-.2 2.8-3.9 3.4-4.7-2.3.4-1.8-3.9-.3-1-2.7-4.9.3-2.8-4.8-4.2-2 1.6-10.5-.7-3.1 4.4 2 .6 1.6 2.8.5 1.7 2.3 5.9-.5 1.7 2.7 1.4-.4.9-2.1-1.8-.3v-4.7c.1 0 2.6 1.3 2.6 1.3l.5-1.6 1.8-.2.5-1.5-1.7-7.1H424c0 .1-.2-.9-.2-.9h-1.3c0-.1.9-2.4.9-2.4l-1.1-2.8-3 .4-2.1-1.5-2.7.3-.3 1.2 1.5 1.6-1.2 3-3.2.4-2.4-.9-3.7 7.6-1.8-.7-1.5 1.9-12.9.5-3.6 1.7-.9-2.4-4.8-3.5-5.3-.4-3.2-4.8 3.9-4.6 2.4.3.3 2 3.6.4.4-1.8 2.2-1.7.9 1.8h2.2v1l2.9.9 1.3-1.3h3.9l.4-2.1 1.7.6v-2l1.9-.7-1.8-.6-.3-1.2 1.3-.3-2.6-3.4 2.1-6.1 2 1.3.7-1.5 3 .5-.3-1.1 4.5-2.6 2.6 1.5 3.9.5h4.1l.3-1.2 2-.2v1.4l1.4-1.9.9.5 1.2-1.2.8-2.8.9.9.3-1.1.8 2 .7-1.7 3.3-.6 1.7.7 1.4-2.6.5.5 1.8-2.1.8.3v-1.9c.1 0 2.3-2 2.3-2h.9c0-.1-.8 1.4-.8 1.4h1.6v-1l1.5 1.6.6-.8-.9-1 1.3.8v-1.1l1.8.2-.7-1.9 3.1-2.9-1.4-.9h1.4l-.4-2.1 1.3-.3-.4-1.1 1.5-.6.3-1.5 3.5-1.7 2.4 1.7Z"/><path id="HU-SD" d="m304.9 339.2 5.2 8.3 4.2 1.1-.4 1.7v6.9l-6.5-.4.8 4.2h4.3c0-.1-1.1 7-1.1 7l-1.1.6v-.9c-.1 0-1 .6-1 .6l-4.3-9.1-2.9 1.2-1.6-.5-1.7 3.2-2 2.9h-2c0-.1-1-2.6-1-2.6l3.2-1.5-1.2-3.6 1.7-2.9-4.9-1.6-2.6-2.1 3.7-3.4 3.7 1.4.4-4.7 6.5 1.7.8-2.1-1.9-1.4v-3.1l1.7-.7Z"/><path id="HU-SF" d="m178.4 246.6.6 1.1 2.4-.2 2.2 2.5-1.3 1.8 1.5 2.8-.9 2.3h1.5l1.5 3.5-3.8 1.1-2.8 3.3-.9-1.1-4.3 1.7-.3-4.7-1.4-.7-3.3-5.8 6.1-6.4.3-2.1 1.5-.7 1.1 1.7Z"/><path id="HU-SK" d="m298.3 253.1 4.5-4.7 4.6 3h1.6l1.4 1.9-1.2 1 2.2-.3-2 5.2 2.4 1.2 1.2 3.4-3 2.9h-2.3l-2.6-2.5-3.6-.2-1.2-1.3.5-.7-4-2.6 2.7-3.3-1.2-2.9Z"/><path id="HU-SH" d="m43 247.9-.2-.9h2.4l2.6 1.6 1.9-1.2.9 2.6-1.9 1.7.9 1.7v5.4l-2.8-1.5-2.7 3-2.8-2.1-1.7-7.8-2.5-2.4 1.5-.6 1.3 1 3-.6Z"/><path id="HU-TB" d="m178.8 222.4-1-2.1-3.6-2.3-.3-1.9-1.1.4-1.3-2.6 2-3.5 3.9-.7 3.7 1.2 3.1 2.8.2 1.8-3 .6.5 2.4-1.3.2.9 1.5-2.7 2.1Z"/><path id="HU-TO" d="m161.2 299 2.9-.6 4.2-3.7.7 2.9 3.7 1.4 1.1-1.4 1.8 2.2v-3.7c.1 0 1.2 1.6 1.2 1.6l.3 4.5 2.9.7 3.4-.6-.4-1.9 3.6-2 1.3 2.6 3 1.3 1 5.9 1.7.2 5.8-4.2-1-2.5 2.2-1.7 3.5-.4v-1.9l4.9-3.5 1-1.8-1.2-1.1 4.6-1.1v4.4c.1 0 3.5 4.5 3.5 4.5l2.3 8.5-2.6 4-6.2 2.1-1.7 2.6 2.4 4.9.2 4.5 1.9 4.6v3.1l-2.7 5.6 1 6.7 1.7 2.9-.8 4.8-3.4-.8.7 3.2-3.8 3.2.9.6 2.7-1.9-.2 2.8-1.4.5-1.6 4.6-.2-2.7-1.9 1.2v1.9l2.9.9-.6 1.8-1-.5v1.1l-4.8.2-4.1-2.5-.6.5-5.5-6.6-1.6.8-1.8-3 .6-1.1-3.1-.9.7-4.5-.4-.7-.8.8-1.2-2.1-2.1-1.1v3.2c.1 0-.9 1.5-.9 1.5l-7 3.9-.6-1.2 2.9-1.2 1.4-3.9-.5-1.2-2.9-.3.9-5.7-2.7-1.4-.4-3.9-2.3-2-3.4 1.6-3-.7-3 1.3 1.1 6.1-3.7 2.4-1.3-.8-1.4.7v2.4l1.3.5-.5.8-1.6-2.1-1.8 1-1.7-.6 2.5-3.4-.4-4-1.2.3-.9-2.9-2.8 1-.7-1.8 4.6-2.5-2.7-8.1.6-6.3 1 .5 1.6-1 1-3.1-1.1-2.9 5.2-8.5-1.1-.3-1.2-2.8 4.3-1.3-.3-2.6 3.1-1.2Z"/><path id="HU-VA" d="m46.7 227.5 2.3 2.8 2.7.9 5-3.4.4.7 1.1-.8.5.9 2.8-1.5 2.5 3.8 2-.6 2.4 2.5 1.6-2.3 6.5-4.8 1.2 2.2-1.5 5 5.5-2.5 1.4-2.2 2.1.6.7 2.7 1.7 1.5-1.4 1.1 1.8 2.2 5.9 3.6-5.1 2-.5 2.8-1.2 1 .9 7.1-1.2 6.8 1.4 6.7-2 1.7-3.2-1.5-5 1.4-.2 2v2.4l-1.3-.7-1.1.8-.2-1.9-2.5.6 1 3.7L71 279l-4.1-.2-1.9-1.3-3.5.5-.3-.8-2.8 3-1.5.3-.7 2.4-6.8-1.3-2.5 1.8-1.5-.5-4.6 7.4-4.8 2.5v3.1l-1.1 1-3.3 2.1-2.8-1.3-2.8.9v1.2l2.8-.9.2.8-2.7 4.9-.9.8-2.8-4.4.8-2.3-1.3-.3.3-1.8 1.8-.8.5-3.5-3.9-3.6-4.2-.4-5.9 2.3-3.1-1.5 4.7-4.1 1.3-3.4 1.8.4 2.3-2.8h1.5l1.3-5.5.7 1.6 2.9.3.6-1.5 1.7 1.2 2.9-.7 1.4 1.3 1.2-.2.2-1.1 2.6 1.2 2-.7-3.3-3.1-1.4.8-.7-.7.2-.9 5.7-2.1-3.5-1.7-.8-2.2 2.8-1.7V262c.1 0 2.1-.3 2.1-.3l-1-2.3-4.5.6.6-2.8-.7-2.1-1.9.3-.9-2.2 1.7-1.3-.5-3.7h2.6l1.6-3.1-1.9-5.9-2.2-1.9 1.4-.5.7-2.7-1.1-2.8h2.9c0 .1.9 2 .9 2l1-2.1 4.6.4 1.1-1.9 4.2-2.5Zm-6.7 21-1.3-1-1.5.6 2.5 2.4 1.7 7.8 2.8 2.1 2.7-3 2.8 1.5v-5.4l-.9-1.7 1.9-1.7-.9-2.6-1.9 1.2-2.6-1.7h-2.4l.2 1-3 .5Z"/><path id="HU-VE" d="m85.4 229 1.5-1.3 1.8 1.4.7-.8 2.7.9 7.3-1.4 1.5-4.4 2.5.6 1.5-1.2 7 2.3 2.3-2.2 2.7 3.3 1.2-.9 1.5 1.4 2.4-2.2h2.1l.2 2.4 1.9-.3-.2-2.2 2 1.9 3-3.8 1.1 1.9 1.5-2 2.9 3.8 2.2 3.4-1.7 3.5 5.2 1.6v1.2l-1.3.5 2.1 1.4.2 1.7h5.5l.6 1.3 1.6.2-1.3 1.6.7 2.9 1.3-.3 2.3 3.4 3.7-1.8 1.3 2.8 3.6 2.5-.9 6.3 1.6 6.6-2.2 1.8 2.3 6 1.9.2-1.9.6-5.4 6-7.4-.7-11.1 5.1v2.7l-1.7 1.6-2.6-.2-26.4 13.4-5.1.3-4.4-4.5-2.6-4.4 1.1-2.4-1.5-1.8.2-2.2-2.8-2.8-2 .5-2.1-1 1.8-3.8-2-3.5-1.4-1.2-1.6.9-2.3-.6-5.8-5.1.2-2 5-1.4 3.2 1.5 2-1.7-1.4-6.7 1.2-6.8-.9-7.1 1.2-1 .5-2.8 5.1-2-5.9-3.6-1.8-2.2L88 233l-1.7-1.5-.8-2.8Zm51.3 43.7 2.7-.2 1.3-3h3.1l1-4.1-.4-.9.7-.8-3.4-5.9-2.9-2.7-1.7-.5-2.6 3-2.4.2 2.9 2.2.4 2.8-3 3.2 4.2 4.4v2.4Z"/><path id="HU-VM" d="m140.7 256.7 4 5.9-.3 1.9.4.9-1.2 4.2h-2.9l-1.3 2.9-2.2.6-.6-2.7-4.2-4.4 3-3.2-.4-2.8-2.9-2.2 2.4-.2 2.6-3 1.7.5z"/><path id="HU-ZA" d="m78 270.3 5.8 5.1 2.3.6 1.6-.9 1.4 1.2 2 3.5-1.8 3.8 2.1 1 2-.5 2.8 2.8-.2 2.2 1.5 1.8-1.1 2.4 2.6 4.4 4.4 4.5-4.1 2.1-6.9-.3-.9 4.8-2.6 2.4.2 16.4-2.6 2.8-.2 5.8-3.3.2v2.1c-.1 0-1.1.3-1.1.3l-2.4-1.5-.2-1.8-1.2-.5.3-2-2.6-2.1v-5.7c.1 0-1.5-.5-1.5-.5l-2.4 2.3-.6-.9-.9.4.2 4.1-2.2-.2-2.2 11.9 2 2.9.9-.8 2.7.6.3-2.9L75 340l2 4.7-2.5 4.3-2.9-.7-3.3 2.6-.4-2.7-2.4.5-2-1.6-.6-2.9h-1l-1.1-2.2-.7.8-2.3-2-2.5.7-2-2.2-1 .9-3.4-5.9-1.1.3.5-1.4-2.9-1.1-2 .4-1.4-2-4-2.2.7-2.9-1-.4-.5-2.7-2.1-.7-2.8-4.6-1.7-.4-2.6-3.3.5-2 2 .6.7-3.9-4-.6-.4-2.3 2.7-4.9-.2-.8-2.9.9v-1.2l2.8-.9 2.8 1.3 3.3-2.1 1-1v-3.1l4.8-2.5 4.6-7.4 1.5.5 2.5-1.8 6.8 1.3.7-2.4 1.5-.3 2.8-3 .3.8 3.5-.5 1.9 1.3 4.1.2 2.7-4.2-1-3.7 2.5-.6.2 1.8 1.1-.8 1.3.7v-2.4Zm-20.8 16.9-.8 3.7 1 .9-.5 3.1 1.3 2-1.3 2.1 1.4 1.8 1.8-1.3 5.7-.4.2-5.4-1.4-2.2.4-1.2-2.4-1.3-.7-1.7-1.9-.2-1.1.5z"/><path id="HU-ZE" d="M60.8 287.5h1.1c0-.1.7 1.6.7 1.6l2.4 1.3-.4 1.2 1.4 2.2-.2 5.4-5.7.4-1.8 1.3-1.4-1.8 1.3-2.1-1.3-2 .5-3.1-1-.9.8-3.7 1.7.4 1.1-.5z"/></g></svg>