<?xml version="1.0" encoding="UTF-8"?>
<svg id="Layer_1" xmlns="http://www.w3.org/2000/svg" xmlns:amcharts="http://amcharts.com/ammap" version="1.1" viewBox="0 0 512 512">
  <!-- Generator: Adobe Illustrator 29.1.0, SVG Export Plug-In . SVG Version: 2.1.0 Build 142)  -->
  <g id="_x3C_defs">
    <amcharts:ammap bottomLatitude="63.377251" leftLongitude="-24.531109" projection="mercator" rightLongitude="-13.496555" topLatitude="66.574598"/>
  </g>
  <g>
    <path id="GL1" d="M222.3,274.1l-.7,4.1-2.4,1.7v.9l1.1.3.6,1-.3,3.2-3.5,2.2-1,1.4,1.6.5v1.6c0,0-2.1,2.3-2.1,2.3l.9,2.2v1.3c0,0-2,1.4-2,1.4v2.3c-.1,0-2.2,1.4-2.2,1.4v.9l1.4.3.3,1.1-2.3,2.2-7.4,4.1-3.3,3.8h-2.8c0,0-.7-3.5-.7-3.5l-.9-1.1-2.7.9v3.5c0,0-.9,1.7-.9,1.7l-.9.4-1.1-.6-2.4-4.3v-2.3c0,0-.4-1.1-.4-1.1l-2.9-.3-.3-1.1,1.2-.7-.9-.7h-1.1l-.5.9h-.7s0-.1,0-.1h0l-2.7-2.6,5.2-4.3-.5-3.2,3.2-2.4,4.3-1.5,3.3.3,3.5-.8.6-1.3-.8-1.7,3.5-2.6h1.9c0,.1,1.5,1.8,1.5,1.8l.9-2.9v-6.3c0,0,4.3-4.5,4.3-4.5l1.5-1.2,1.5-.2.8-2.1,3.2-.4h0l2.5.8,1.1,1.5.5,2.2Z"/>
    <path id="GL2" d="M251,282.8h.4c0,0,.2-2,.2-2l-2-3.1v-3.6c-.1,0,3.7.1,3.7.1l1.1-3.2,1.9-.2.4-.8-1-1.1.5-1.9,5.4-4.6,4.3-.2,2.5,2.2,1.8.6h1.6v-1.4l1.8-.2,1.9,2.3,5.9,3.2-.5,4.1h0l-.6,1,.5,10.3-2.5,4.6-2,1.6-1.9.8-2.6-2-1,2.2v1.7c.1,0,2.3,2.6,2.3,2.6l-1.1.7-.7,1.3-2-1.4-2.3-.2-.6-3.2-3-.2-.8,5.2-2.2-.4-2.2-1.2-4.6-4.3v-1.2l-.7-.5h-1.7c0,.1-1.4-3.2-1.4-3.2l1.4-3.1-.2-.9Z"/>
    <path id="GL3" d="M113.4,140.1h-1.6l-5.6-4.7-3-3.3-1.6-.3-1.4-6.1,2.8-2.9,1.8-.6,3.6,1.2,1.3,1.8,1.8,1.1.8,3.6,1.6,1.3,3.1,5.7-2.1,2.5-1.5.7Z"/>
    <path id="GL4" d="M39.5,277v.9h1.2c0-.1.6,2.5.6,2.5l-.9,1v1l-1.5.7-4-2.6v-1l.9-.7.2-1.3.9-.6h2.6Z"/>
    <path id="GL5" d="M195.4,286.7l-.8.7-4-.3-.7-1.1.7-.7v-1l1.8-1.4.3-1.1h1.2l1.1,1.3,1.5.2.3,1.7-1,.7-.5,1.2Z"/>
    <path id="GL6" d="M307.7,288.4l-.9.4-2.2-.4-1.8-2.3,1.6-1.5,1.7-.6.3-.8,3.4-1.7,1.7.8.4,1.1-.7,1.5-1.7,1.1-1.8,2.4Z"/>
    <path id="GL7" d="M229.5,400.8l1.1.6h0l1.5-.3,3.2.3,1.2.8.7,1.3-.4,1.1-2.2,2.4-1.5.5-5.4.2-3.9-3.4-.6-1.3,2.4-2.5,3.1-.3h0l.9.6Z"/>
    <path id="GL8" d="M257.1,387.3l1.8,1h0l3.8,1,3.1,2.7.2,1.2-.7,1.3-3,.8-.5,1.2,1.3.8h1.2c0,0,1.3,1.2,1.3,1.2v1.5l-1.8.2-1.1,3.1,2.5,2.8,2.8.7.5.8-.2,1.3-4.2,3.1-.8-.8-2.4-.2-.7-1.1-.7-.2v1.3c0,0-.8,1.1-.8,1.1h-6.7c0,0-.8.6-.8.6l-2-.2-.3,1.1-.7-.2-.8-3.2-.9-.8-.6.2v1.6c0,0-3.3,2.3-3.3,2.3l-.2-1.4,1.3-1.8.3-3-3.8-1.2-.7-1.3.2-1.4.8-.9,1.8-.3.7-1.3.7-4.5,1.5.4.3.7,1.3-.2-.8-1.7-3.6-1.1,1.3-4.1,1.3.4.5.8,4.6-2.8.2-.7h1.2c0,0,3.4-1.5,3.4-1.5l1.2.2h0l1.3.7Z"/>
    <path id="_GL9" d="M313.9,297.9l.6.2v1.1l2.9-.3,1.1-2.9,4.8-4,.5-1.1,1.8-.3.5-2.2,4.3-4.3,3.5-1.8,3.2,1,.6,1.3,1.9-.3,1.1-1.6,2.7-2.2,2.7-.5,3.2-1.8,6.1,1.4,2.4.2.6-.8h1l2.9,2.4.2-.4h0v3.9c.1,0-1.6,1.4-1.6,1.4l-1.1,3.2.3,6.1,1.8-.5,1-1.3.2-3.8,1.4-.5,1.3.5-.5,3.7,1.4.6-.5,3-2.1,1.4v2.1l5.1-1.9,1.6-2.6.8-3.7,3.7-3.5,5.4-2.1,6.4-5.1,1.8-.8,1.8.8h4.5l4.5.8,2.7,2.9-.2,6.4,6.6,5,1.4.2.2-4.2.6-1.3,3.7-1.9,2.2.8-.8,2.1-1.8,1v2.1l2.9-.5,1.1,1.3,1.4-1.4h4v2.1l-.6,1.4.3,1.4,3.5.2,1.9,2.6-2.1,1-1.6,2.4-.6,2.7-1.3,1.3h-1.8l-1.4,1.4-1.3-1.6h-1.1l-.8,1.4-1.1,4,1,1.3,1.6.2,1.3,1.3.2,2.6-3.2-.6-.6-2.1-1.9-2.1-1.1.2v2.2l-1.9-.6-1.6.3.6,2.2-3.4,2.1.5,1.6,4.8,3.4,1.1,2.1,2.4,1.6-2.1.6-1.4-.5-.3-1.6-7.7-5.4-.6,1.3-4.6,1.4,3,3.7,5.6,3.4-7-1.1,1.9,2.6,4.3,1-.6,1.8-3,.8-1.3-.8-2.6-.3-4,1.1-3.5-1.1-5.4.5,1.3,2.9,2.1,1.8-1.1,3.4-1.6.5-3.5-3.4.5-3.8h-1.6l-.3,6.9,2.1,4.3,1.6,1.4.6,2.1-.3,2.2-2.1,2.1-3.5-1.4-1,.8-2.9-.2-1.1-1-2.4-.3-2.1,1.1-.6,1.8,5.3,2.7.3,1.4-4.6.5-1.6,2.4.2,1.4-1,.5-.5,1.6-6.2.2-3.4-5.3,1-1.3.3-3.7-1.1-1.4-2.1-.5-1.8.6-.5,3.5h-1.6l-.6-3,2.7-2.6,1.6-.6-.8-1.6-1.4-.8-1.3,1.6h-1.1v-1.8l-5.6-.8-1.6-1.1-2.6.2,1.3,1.3-.6,1.4-2.1-.2-1,1.4.8,1.4,3.7,3-.8,4.2-1.4,1-5.1.8-2.6-.3-1-1.3h-1.5l-1.1-2.2,1.1-.6,1.3-3.8.8-5.8-.5-2.7.6-1.6.2-2.7-3.7-2.6-1.4-1.6-1.6.6.8,2.7-.5,1.6-1.1-.2-.8-1.4-1.1-.8-1.4.2-.2,1.6-2.1,1.9h-2.7l-.8-2.6v-2.2l-2.1.2.3,3.8.8,1.4-.5,4.6-2.1,3.5-6.4-.2-1.6-.8-1.3-2.1-1.6-.3-1.4-1.9.2-4,2.7-.6-.2-1.8-4-.5-.2-3.8-3.5-1.3-2.1-4.8v-2.2l7.5-7.5.5-2.6,1.4-2.4v-2.2l5.4-2.1.2-1.4-4.6-1.8-.3-3,.8-2.9,4.8-4.5,2.1-2.9h1.5Z"/>
    <path id="GL10" d="M182,307.2l-.4,3.6-1,.5-2.7.9-2.5-2.5h0l.6-1.6,2-2.1h2.3c0,0,1.7,1.2,1.7,1.2Z"/>
    <path id="IS-1" d="M134.8,367.2l-1.9-1.5h-7.2c0,.1-6.6,2.2-6.6,2.2l-5.7-6.3h0l.3-.9,1.7-.6,3.6-.4.7-1.6.6.5.6-.5.2-.2-2-2.2-1.5-.5,1.5-2.3,1-.4.2.5h.9c0,0,.3.5.3.5v.8l-.8-.6-.3.5h-1.2c0,.1.7.8.7.8l1.9-.5v.7c0,0,.6,0,.6,0l.5-.3-.7-1.9,1.7-.4-2-.3-.8-1.9-2.1-1.8-.8.9-.3-.6,1.1-1,2,1.5,1.2-.6,1.3,1,1.1-.2.7-.8,1.5,1.1v2.1c.1,0,.7-.7.7-.7l1.7.4-1.5-1.3v-.5c.1,0,0-.5,0-.5l.5-.7.9-.2-1.1-.7v-.9c-.1,0,1.3.5,1.3.5l.4,1v.5c.1,0,1.5-.8,1.5-.8l-.2-.6,2-.5.2-.9h-.5c0-.1-.8.6-.8.6h-2s.9-.9.9-.9l-.4-.9,2.2-.6.4-.8-2.4.5-1.4-.9-1.7.4v-.5c-.1,0,.7-1.1.7-1.1l-.4-1.2-1.6-.4-1.3,1.1-1-.5.8-.6.2-.6,2.3-4.7,1-.5,1.6-2.4,2-1.9v-1c0,0,.8.8.8.8l1.5-.4.6.5h1.6s1-.9,1-.9l-2.2-.2-.6-1,4.1-2.3h1.3c0,0-.5.5-.5.5v.8c.1,0,1.6.2,1.6.2l1.6-.5.5.8,1.9.4,1.6-.4-.4-1.1,1.5-1.3,1.3-.2h0l3.8.9,3.7,2.2,1,1.1h0l.2-.2h0v.7s-1.1,1.1-1.1,1.1l-1.6,1.1-1.8.3-1.5,1.6-.3,1.4-4.2,4.5.3,3.8.8,1.1-.4,4.3-.9,1.1-.4,1.9-1.4.9-.4,2-3.8,5.6-.7,2-1.2.8-.8,3.8h-3.4c0,.1,0,.1,0,.1Z"/>
    <path id="IS-2" d="M87.5,355.9l2.5,1.1,2.8,3.8,1.3,1,.3,1.9-.3.4.6.5v2.2c0,0,.4.7.4.7l.9-.8.5.6,2.2.4h2.2c0,0,.7-.7.7-.7l-.6-.4.7-1.6,1.4-1.3,1.3.4,2.8-2.3h1.3c0,0,1.3,1.4,1.3,1.4l1,.3,1.4-.6,1-1.2h0l5.7,6.3,6.6-2h7.2c0-.1,1.9,1.4,1.9,1.4h0l-1.3,1.3h0l-1.5,1.2-1.6,2.4-3.4,2.7-.5,1.6-3.9,3.3v1.7h-3.4c0,0-2.9.8-2.9.8l-2.8-.7-1.7.6h-2.4c0-.1-1.5-1.1-1.5-1.1h-1.9c0-.1-1.2-1.3-1.2-1.3l-1-.2-1.5,1.7h-.7s0,1.1,0,1.1l-.5.4-.7-.4-.3-1-1.6,1.3-2-.5-.2,1.1h-.5s-.5.7-.5.7h-1.4c0,0-2.6-1-2.6-1l-3.9,2.2-.4-1.2-1.2-.7,1.3-2,.5-2.1-1.7-1.6-.3-1.4.4-.8,1.1-.3.8-3.9,2.1-.2.6-.5-.6-.2.4-.9-1.9.8-.9-.5-.4.3-2.2-2.7.5-2.2,1.2-.5.4-.7-.2-5.5.5-1-.5-.4.8-.6-.7-.6h.5Z"/>
    <path id="IS-3" d="M165.5,264v-.2h0l4.9,3.5h5.7c0,0,5.2,3.2,5.2,3.2l2.1-2.6,1.7-1.2h3.5l.4-1.9,1.2-.7,8,3.7,5.9-1.6,2.8,1.2h10.2c0,0,1.3.4,1.3.4v2h0l-3.2.4-.8,2.1-1.5.2-1.5,1.2-4.3,4.5v6.3c0,0-.8,2.9-.8,2.9l-1.5-1.7h-1.9c0-.1-3.5,2.5-3.5,2.5l.8,1.7-.6,1.3-3.5.8-3.3-.3-4.3,1.5-3.2,2.4.4,3.2-5.2,4.3,2.7,2.6h0v1h.1l-1.1.5h0l-1.7-1.1h-2.3c0,0-2,2-2,2l-.6,1.6h0l-1.9.2-1,2-2.9,3.2-6.6,6.3-1.9,4.2-1.8,1.8h0l-1.9,2h0l-1-1.2-3.7-2.2-3.8-.9h0l-1.9-.5-1,.5-.5,1.1-1.1.2h-.5c0-.1.1-.5.1-.5l1.7-1-.7-1.2-4.2.6-2.7-1.4-2.1.2-4.2,2.5-.4,1.2-1.7.8-1.1,2.1-4.6,3.4-4,.9-.9-.6-1,.2-.5-1.1-.9-.5-.8.2.3-1.3,1.1-.6,3-3.7.7-.3v1.3s1.9.1,1.9.1l2.5-1.3v-.9c.1,0-2.1-2-2.1-2h-1.1c0-.1-.5,1-.5,1h-.9c0,0-.9,1.2-.9,1.2v-.8c-.1,0-2.2-2.3-2.2-2.3l1.2-1.9.3-2.9,1.1-1.1v-2c.1,0,1.2-2.4,1.2-2.4l2.6-1.4.9-1.4.5.3,4.1-.8-.4-1.3-.4-.4,1.6-3.3h-1.2c0-.1-.5.4-.5.4l-.2-.6-2,1.5-.7-.2-.9.6-.4,1.5-.8-.5h-.5c0,0,0,.5,0,.5l-.8.4-.6-.4-.6.5-.5,2.1-.9-.4-.3.6h-1.7l1.3-3.6-.3-1-1.6,2.7.4.4-.5,1.2.4.7-.2,1.2-1.3.6.3.8-.4,2.3-.8.5-2.3-.7-1,1-.8-.3-.7-1.5v-1.4c.1,0-.6,0-.6,0l-.4.3h-.4c0,.1-.3-.7-.3-.7h.4c0,0,.2-2.4.2-2.4v-1.1c-.1,0,.4-1.6.4-1.6l-.5-.9-.2-.2-1-.4-.8-1.1-1.4,1.3-1.8.4.3-3.1h-.6l-.3-1.5.8-2-.4-.4-.5.5-1.2-1.5.4-.5-.4-.5-2.9-1.8.2-.8,1.4-.8.3-1.4,1.2-.7.2-2.7.4-.2,1,.8.8-1.4-.5-1.5,1.4-1v-.9c0,0-1.9-1.1-1.9-1.1h-.6c0,0-.2.6-.2.6l-1.9-.4-.4,1-1.1-.4,1.2-1,.6-1.6-.2-1-.7-.5h-1.5c0,.1.2-.7.2-.7l-.5-.5-.9.6-.3.2-.7.7-.9-1.4-3.2,3,.8.5v.4s-1.9-.3-1.9-.3l-.9.8-.5-.9,1.2-.6-.4-.8-.7.6-.9-.4.7-1-.9-1.1-1.1-.2-2.8,1,.2.9-3-.6-.9-.6-3,1-3.6-1.4-1.7,1.1-1-.7h-2.7s-7.1-2.3-7.1-2.3l-4.8-.2-.5.3-.6,2.3-1.2,1.1-2.1-.4-1.5-1-4.4.4-.5,1.1-.7.3-.3,1.3.6,1.1-1.2,1.4v1.3s-2.4-.7-2.4-.7l-3.3.5-1.2.9-3.3-2.3-2-.2-1-1.9.2-.7-1.5-1.8-.5-2.2-1.6-1.2-1.4-2.7-.4-2.5v-1c.1,0,.9.6.9.6l1.9-.3,3-4.3,1,.4.4-.6,2.1-.6,1.1.2,2.2,2.5,3,.9.2.6,2.9.3,1.6-2.5h2.3c0,.1.1-.4.1-.4h.8c0-.1.9-2.5.9-2.5l1-1.1,2.4.6h.9c0,0,2.1.7,2.1.7l-1.5-2.2,1.7-.8,1,.5.4,1.2v.7c0,0,1-.4,1-.4l.6,1.2-.8,1.5,1.1.3,1.1-.7.4.7h.7c0,0,1.2-.7,1.2-.7l.4-1.9-.7-1.8-.4-3.5,1.4-1.6,1.1-.2,1.4.8h2.8c0,.1-1.5,1.5-1.5,1.5l-.7,2-.4.8-1.1,2.1,1.6,1v1.8c.1,0,1.4.8,1.4.8l.5-.3v-1.2s-1-4.7-1-4.7l3.1,1.3.6-.3.8,1.3.8-.2-.7-1.2-2.3-.7.8-2.7,1-1.3,1.4-.5,1.5.3,1.2,1.1-.4.5,1.1.6.3-1.5,1,.2.5-.7h1.6c0-.1.8-1,.8-1l2.3-.7v-.8s-1.2.4-1.2.4l-.4-.5-2,.2-.9-.7.6-.4.4.6,4.4-3.8,1-1.5,1,.5.4.6v.6c-.1,0,.8.5.8.5l-1.3,1.3.7.2v1.1s-2,1-2,1v.9c0,0,1.6-1.1,1.6-1.1l.2.7.5.7.6.3v1c0,0,.9.6.9.6l.8-.2,1,.8.4,1.2,1.5,1.1-2.3-4.3.5-.2.8-2.3h1.1c0-.1.9-1.6.9-1.6l.9-.4,1.9.4v.5c.1,0,2.4,0,2.4,0l.4-.7,4.5-1.5,1.8,2,.9-.3,1.3.6.6-.4.4.4-.3.8h.9c0,0,.6.7.6.7l1.8-.6,1.1.9.6-.5v-.7c0,0-.3-.5-.3-.5h.9l.2.7,1.5-.4,3.6,1.4,1.2-.6,1.9.7,1.5-.6,2.8.2.7.2,1.3-1.3v-1.7c.1,0-.5-.9-.5-.9l-2-.5v-.5s2.8-2.4,2.8-2.4v-2s1.8-2.6,1.8-2.6v-.9c0,0,1.1-1.2,1.1-1.2l.2-1.8-.8-1.1.2-1.5-1.2-1h-3.3c0,.1-.5,4.1-.5,4.1l-.9-.4-.4,1.4-1.5.6-.8,1.5-3.7,2.6-2.6.8h-2.5s-1.8-1.2-1.8-1.2l-5-.4-.8-.8-.9-.3-3-1.4-.3-.7h-1c0,0,0-1.5,0-1.5l-1.1-.6-1.1,1.5-.7.4-.5.3-.9-.5v-.6c0,0-2.9.3-2.9.3l-.7-.6.4-.6-.5-.9,4.6-.6.2-.3-1.1-.7-.7.4-1.3-1.6v-.6c0,0,1-1.9,1-1.9l.8-1.2.7-.5.5.3,1.6-1.8v-.8c0,0,1.9-1.3,1.9-1.3l.3.5.7-.8.4-.7-1.1-.2v-.4s9.7-3.9,9.7-3.9l1.3-1.8,3.7-2.5,1.5-1.7h1.8c0,0,1.7-2.8,1.7-2.8h.7s.8-1.8.8-1.8l1.3,1,4.9-.9,3.9-3.3-.3-.5h0l1.6-2.5,1.2.2.9,1.2-.8,2.3-1.5,1.6,1.4,1v1.8c0,0-1.8.8-1.8.8l-.6,1.9.3,1.5,1.8,1.2,1.5,2.1,4.1-2.3,1.5,1.2,4,5.8.6,4.2,2.9,2.2.7,1.4.3,4.2,1.5,1.6.4,3.7-1.8,3-.4,1.9,1.4,3,1.7.2.2,1-.8.7v1.4l1.8,2.3.2,2.4,3.6,1.8,6,2ZM39.5,277v.9h1.1c0-.1.6,2.5.6,2.5l-.9,1v1l-1.5.7-4-2.6v-1l.9-.7.2-1.3.9-.6h2.6ZM195.4,286.7l-.8.7-4-.3-.7-1.1.7-.7v-1l1.8-1.4.3-1.1h1.1l1.1,1.3,1.5.2.3,1.7-1,.7-.5,1.1Z"/>
    <path id="IS-4" d="M161.8,242.4l-1.5,5.7.4,2.4,4.2,7.8.5,4.1h0l.3,1.7h0l-6-2.1-3.6-1.8-.2-2.4-1.8-2.3v-1.4l.8-.7-.2-1-1.7-.2-1.4-3,.4-1.9,1.8-3-.4-3.7-1.5-1.6-.3-4.2-.7-1.4-2.9-2.2-.5-4.2-4-5.8-1.5-1.2-4.1,2.3-1.5-2.1-1.8-1.2-.3-1.5.6-1.9,1.9-.8v-1.8c0,0-1.5-1-1.5-1l1.5-1.6.8-2.3-.9-1.2-1.2-.2-1.6,2.5h-.6c0-.1-2.9,1.8-2.9,1.8l-5.2-1.6-2.3,1.3v-.6c0,0-.8-.2-.8-.2l1.3-1.1v-1s-.5.2-.5.2l-.7-.6-1.7-2.1v-1.2s-1.9-.6-1.9-.6l-.4.5.5,2.9-1.7.3.4-1.7-1-1.6-.3-2.1-1.5-.8-.6.6.7,3-.8.9v1.2s-1,.7-1,.7l-.7,2.3h-.5s0,1.2,0,1.2l-1.3,1.3-.6-.4-1,.4-1.1-.3-.7-.5-.7-.5-.3-1.8-.9-1-3.3-.9-.4-1.7,3.5-2.3,3.2-.4,2-.9,2-2.2,1.1-4.2,2.2-2.3-.5-.2-2.1,1.7-2.8,5.2-1.9,1.8-3,.4-1.3-.8.4-.9,2.3-1.7v-2.6c0,0-.5.2-.5.2l-.4,1.6-2.3,2-.7,1.5-.7-.4-.3-1.8-1.3-.9.8,3.7-1.9,1.7-1.2.3-.7-.7-.2-2.1.7-2.8-1.8-4.7v-1.7c.1,0-1.7-4-1.7-4l.3,5.8.8,2.4-.3,2.8-1.7,2.1-1.1-1.7.5-2.7-1.7-5.9.5,5.4-.8,3.5.5,1-1,1.4-2-1.3-1.5-6.1,2-3.6v-1.9s-1.4,2.1-1.4,2.1l-1.1.6-1-1.6-.9-.5-.6.3,1.9,6.2-.2,2.2,1.3,6-2.5-1.1.4-.7-1.3-1.6h-2c0,.1-.7-.9-.7-.9l-1.2.4v-.9s.9-.6.9-.6v-.8s.8-.8.8-.8l.7-.9,2.1-3.1-1.4-1.3h-1.2c0,0-.9-2.1-.9-2.1l.5,4.1-3,3.4-.3-2.9-.8-.9-.4-2-1,3,.5.5-.6.8v1c.1,0-1.7,3-1.7,3l-2.1.4-1.2-1.1-2.9-.2-.3-2.8.8-1.6h-.7s-1.7,2.3-1.7,2.3l.2.8-1.1,1.6,1.1,3.9-1.6,2.8-1.3.4-5.4-1.1-1.6-2.9h-.8c0,0,0,.7,0,.7l-1.2.4,2.5,1.6-1.9-.2-2,1.5-2.6.9h-1.4s-1.2.9-1.2.9l-2.6-.5-.6,1.8-1.3,1-.3,1.7-1.1,1.5-7.8.9-3.1-.7-.7-1,1.1-3.7-.3-1.6-3-.8.8,2.4-4.1-2.9-4.6-2.2-2.4-.4-.9.7-7.1.4-2.7.8-2.8-1.7,2.7-1.8,1.1-2.6,2.5-.2,1.3-1.1.3-1.4-.6-3.3,2.3-2.5.2-2.4,7.4,3.5,1.2,1.4.4,1.5.8.4.6-.4,1.8,1.8,1.5.7,1.5-.2,1.4.6.3,1.2,2.9,2.9,1.8.6.8-1.3,2.3-.8-1-.7-1.1.6-2.5-.6-5-6.2-1.1-.2-3.2-4.8-.3-.9.7-.3,6,.8,1.6,1.8,3.6,1.4.2.8,1.8,1.3-1.6-3.1-1.6-.3-3-3.3-2.4-1.4-1.8-.4-2.7-2.7-2.7-9.3,1-3.1,3.1.8,5.4,4,2.5.5,2,2.4h1l1.9,1.5,1.3.2,5.6,3.1-.3,2.2,1.5-.8.6,2.1.9,1.2v1c0,0-1.2,1.9-1.2,1.9l.4.7-.2,1.6,1.2.4,1.8-4,1.3,1.6v-2.2c-.1,0,3.5,2.9,3.5,2.9l1.2-1.4-1.2-.5-1-2.1,2.4-.4,1-.9,1.8-.2,2-1.1-.7-.3-3.2.4-1.8.7-3.1-.9-1.5-.8-2.3-3.8,3-1h4.3c0-.1,2-1.2,2-1.2h2.9c0-.1,2.4.5,2.4.5l.2-1.4-1.3-1,3-1.8-.7-1.3-1.7.2-2.8,2.1-1.7-.2-3.9,1-4.4-.5-1.2.7-8-2.7-5.2-5.7-2.1-6.2,1.2-3.3,1.6-.9,7.6,2.9.4,1.5,2,1.2h1.7c0,0,1.1-1,1.1-1h1.6c0,0,.9,1.6.9,1.6l1.2.9h1.4c0,0,1.2.5,1.2.5l2.2-.3,4.4,1.9h2.9c0,.1-6.1-2.2-6.1-2.2l-.8-1-3.3-.2-1.3-.7-.5.3-.2-1.9-.5-.5-1.4-.9-1.5.5-2.3-1-1.6-2.4-4.1-2.9-.5-1.1-1.7-1.2-2.1-3.3-.8-.5-.6-3.1,1.3-3.1,1.4-1.1,2.4,1.4h2.2c0,0,4.7,2.9,4.7,2.9l5.6,1.6.2-1.4-.8-1-3.3-1.8-5.5-4.7-1.1-1.6.4-.8,3.4-.3,1.2-1.3h1.2c0,.1,2.3,1.4,2.3,1.4l1.8,2.1,3.5,2.1-3.5-3.1-1.7-2.6-5.9-1.6,2.9-3.6,2.8-.3-.3-1.3.6-.5,5.3.5,2.4.8,2.5,1.7.5,2,1.6-.2,2.9,1.9,1.6,4.2-.9,2.9-2.1,1.2.5,2.2h.4c0,.1.3-1.1.3-1.1l1.4-.9,3.2-4.2h.7s1.7,1.6,1.7,1.6l.4,1.7v5.7s-2.2,1.8-2.2,1.8l-2.4,4.5.5.2,1.3-1.2.6-1.1,2.8-3.1,1.3-4.5,1.2,3.7-1.2,3.2.8,2.3h.7s-.6-2.4-.6-2.4l2.1-3.5-.3-2h1v3.7c.1,0-1.2,3.9-1.2,3.9l-4,5.6-.5,1.3.3.4,2.4-3.7,2.2-2,2.2-5.5.8,2-.3,4.9-1.7,4.9v1.7c0,0,.8-.4.8-.4l2.6-6.8-.3-1.5.6-2.6-.7-2,.8-5.4.6-.6,1.3,1.8.6-.8,1.5.3.9,3,1.2.8.6-.4.5,2.4.9.4-.4.5.4,1.3h.7c0,0-.5,2.2-.5,2.2l.4.6-.4,4.3-2.7,6.5.5.6-1.1,2.5.4.3.6-.2,1.2-2.3v-2.4s1-1.5,1-1.5l.2-1.8,1-1.6v-1.9s1.4-1.7,1.4-1.7v-2.5s.4-2.1.4-2.1h.4c0-.1,1,2.5,1,2.5v1.9s.6.2.6.2l.3-.9.3-.6,1,1.7-.2,5.2.9-1-.3-2.2.7-1.2.3,2.9-.7,2.1.2,1-2.4,5.4-1.6,2.5-3,2.7,1.9-.5,2.8-2.7.5-1.4,2.2-1.9.4-2.2,1.3-2.5v-1.8c0,0,.7-.9.7-.9l.9.2.5-.4-1-1.6-.6-.3-.6-4.7-1-2.9-2.5-3-1-.3-.2-1.1,1.2-1.7-.3-1.5,3.4-2.6.6-1.2-1.9.5-1.8,1.5-2.3-.3-2.8-1.6-1-1.6-2.7-.8-4.1-2.4h-1.2s-.9-1-.9-1l-2.3-.6-4.4-3.8-1.4-1.9-.7-2.6.4-1.4,2.8-1,1-.7.9-.8,4.9-.9,3.9,2.3,3-.2,1.7,2.5,1.8,1-.3-1.6-1.2-.9v-1.5c0,0,2,1.1,2,1.1l.2-1.3,3.6-.6,3.4-1.9h-1.4c0,0-.5-.4-.5-.4l-3.8,1.1-3.8-.4.8-1.8,1.7-.5,1.3-1.7,1.3-.7-1.2-.3v-1.1c0,0,.4-.7.4-.7l-1.5-.7.2,1.8-1,1.7-2.6,2.2-3.7-.3-2-1.1,1.6-3.8v-2.2c.1,0,2.8-.8,2.8-.8l.2-1.3-3.7.8-1.6,3.6-1.9,1.5-3.2.7.3-3.5,1.7-1.1.5-2.1-1.2,1.8-3,1.6-.4,2.2-.8.9-2.3,1.1-.8,1h-2.8c0-.1-.6-.5-.6-.5l-2.1-1.7-3.5-1.8-1.7-2.6.8-1,4.2,2.1,1.1-.5.3-.9,1.4-.5.5-1.3-.3-2.3-1.7-.2-3.6-4.7,1.8-1,2.3,2.1,1.3-1.9h3.2c0,0,1.1-1.9,1.1-1.9l-1.4-1v-.7s1.2-.6,1.2-.6l3.9,1.3,1.8,2,3.2.5.9,2.6,1.3.3,1.1-.2,1.5-2.6,1-.7-.6-2.2.7-.4h1.2c0,.1,2.4,2.2,2.4,2.2l.4,1.9h1.3c0,0,.2.7.2.7l1.6-.3.5-2.1-1.5-2.3h.8c0,0,2.3.9,2.3.9v1c.1,0,.6.3.6.3v3.4s.9.8.9.8l.4,1.7,4.3,2.4-.3,1,1.7.9-.8,1.2.5,1.2.8.2,1.8-.8-2.2,3.5.3.8,1.4,1-1.8,3.1.6.9.7.2,2.4-2.3h.5c0,0,.3,1.7.3,1.7l-.9,1.8.5.4,2.2-3.6v-1.2c.1,0,.9-.6.9-.6l-.4,3.4.9,1.2,1.3-.6,1.3.2,2.5-1.9-.2,2.8,1.1.8h.9l-.4,2.3-3,2.1-.7,1.1,3.3-2.1h1.2s.1.8.1.8l1,.4.8,1.4h1.6s1.7.8,1.7.8h2.7s-1.1,1.3-1.1,1.3v.9c0,0,2,1.4,2,1.4l-1.3,3.2.3,1.1.6.8-.9,2.2.9,1.4-.2,1.1.4,1,1.3.9,1.4-2.1,1.5,2-.4,1.7-1.6,2.1.2.3,2.2-1.5.7-1.4v-2.2c0,0-.9-1.5-.9-1.5l.5-1.6,1,.2,2.2-.7,2.3,5-.6.2-2.3-1.1-.5.6,1.2.9v1.2c-.1,0,1.2,1,1.2,1v.7s2.1,0,2.1,0l3.4-1.5,3.6,2.9.2,1.3-.5.4-1.9-.2-3.1.7-2.3,1.2h-1.7c0-.1-2.9,1.2-2.9,1.2h-.7c0-.1-.2.4-.2.4l.6,1.9,3.6-1.7,1.8.3,1.8-1,2.1-.2.8.4v.8c-.1,0-3.4,1.5-3.4,1.5l-.4,1,6-1.2,1.7,1.6v2c.1,0,.5,0,.5,0l-.2,2.2-2,1.8,2.2,1.7-.8,1.5v2c0,0-.6.5-.6.5l-1.2,3.1-2.1,1.9-2.9.4-.6.7-1.4-.3,1.6,1.6,1.6-.2.9,1,2.6.8-.2,1.2-1.8,1.1-2.4,4h-4c0,0-1.8-.5-1.8-.5v-.7c-.1,0-1.9-1.2-1.9-1.2l-2.1-1.8-1.4-4-1.8-.9v-.7c-.1,0-2.8.7-2.8.7l-.3.7,2.1.6,2.6,2.2.9,3.7-1.5,1.5,1.2.8v2.3c.1,0,1,.5,1,.5v1.2c-.1,0,.6.8.6.8l.8-.3.9.7,3.8.2,1.3-.9,4.1,1.8v2.6c0,0-3,3.2-3,3.2l-.8,1.5.2.8.7.2,4.7-5.1,3,.8v6s-1.3,3.9-1.3,3.9l-2.5,2.4v.9s-4.4,3.7-4.4,3.7l.9.2,7.7-4.6.7,2.6,1.3.9.3,1.2,1,.2.6.3.4.3-.8,2.1,1.3,1.9-.3,2.3.5,4-.9,3.8,3.1,6.5-.4.5,2,3.6v5.7c0,0,.6.4.6.4ZM113.4,140.1h-1.6l-5.6-4.7-3-3.3-1.6-.3-1.4-6.1,2.8-2.9,1.8-.6,3.6,1.1,1.3,1.8,1.8,1.1.8,3.6,1.6,1.3,3.1,5.7-2.1,2.5-1.5.7ZM92.4,210.9l-.9.7h-1.6c0-.1-.5-.9-.5-.9l2.4-2.2.9.5-.3,1.9Z"/>
    <path id="IS-5" d="M253.6,130.9l2.6,2.5-1,2.3,1.4,1.3.5,1.9,4.4,3.5-2.4,8.4,2.4,4v4.8c.1,0-3.1,2-3.1,2l-1.8,1.8v2.9c-.1,0,4.8,4.9,4.8,4.9l3.2,2.2v10.7l-1.7,4.7-2.6,3.8.5,4.2,1.2,1.4,1.8,1,4.7,1.1,1.4,4.1-1.8,2.9-.2,1.4,1.1.6v4.8c.1,0,1.1,2.8,1.1,2.8l2,1.8,1.1,2.3,4.1,2.6.6,7,7.4,5.3v5.3c.1,0,1.6,3.4,1.6,3.4v4.3c.1,0-1.6,6.4-1.6,6.4v4.3l1.4,1.2,1.7,3.2v4.4l-1.1,1.4-3.2-.5-1.7,1.2-.2,1.3-.6.5h0l-.7.6h0l.5-4.1-5.9-3.2-1.9-2.3-1.8.2v1.3h-1.6c0,.1-1.8-.5-1.8-.5l-2.5-2.2-4.3.2-5.4,4.6-.5,1.9,1,1.1-.4.8-1.9.2-1.1,3.2h-3.8c0-.1.1,3.5.1,3.5l2,3.1-.2,1.9h-.4c0,0-6.2.2-6.2.2l-.7-1.3-1.9-.6-3.7.6-3.8-1.8-7.2-1.7h-2.4l-1.2-2.8-1.5-1.3h0l-.5-2.2-1.1-1.5-2.5-.8h0v-2c0,0-1.2-.5-1.2-.5h-10.2c0,0-2.8-1.1-2.8-1.1l-5.9,1.6-8-3.7-1.2.7-.4,1.9h-3.5l-1.7,1.2-2.1,2.6-5.2-3.1h-5.7c0,0-4.9-3.5-4.9-3.5h0l-.2-1.5h0l-.5-4.1-4.2-7.8-.4-2.4,1.5-5.7h0l.5.3.2-1.2v-3.3c-.1,0-2.4-8.2-2.4-8.2l1.2-1.8-.5-1.3,1-1.3.5-2.5-1-8.6.3-1.4-.7-3.1,1.8-.9,3.2,9.1,1.6,3.2h1.1s.7,2.3.7,2.3l.2-1-3.1-11.5-.7-4.6,2.4-10.6,2.3-3.1,2-1.3,3.4-4.3,1.2-.5,1.4-2.1.4.6.7-.3.6-1.1.8.4v1.1c.1,0,1.5,0,1.5,0l-.7,2.7.6,2.4-.3,3.7,5.1.3,6.2-1.6,2.9-1.9,1.1-4.2v-2.8c0,0,1.5-4.3,1.5-4.3v-1.8s-.7-2.8-.7-2.8l.2-1.9-1-1.8-.4-2.9h-.8c0-.1-.1-1.1-.1-1.1l.8-.9-.5-1,.3-1.6-1.7-3.7-.9-4.8-.9-2.1v-3.5c-.1,0-1.2-3.1-1.2-3.1l-.9-.3,1.3-4.7-.6-3.1,2.1-.9,1.6.2,1.5-2.2,2.5.6,1.4-.3,2.9-2.6h1c0,0,1,1,1,1h1.1c0-.1.2,1.6.2,1.6l2.3,3-.5,1,.2,1.4,1.1,1.3-.2,1.4,1.5,3,1.8,1.9.7,2.4-.3,1.2.8,2.1,1.7,1,.3.7.6,3.7h1c0,.1.5-.8.5-.8l2.1,1.9,1.4.6.7-.3,1.5,2.6,1.5,5.6.7.5-.2,4.3.7,2,1.5.9,2.4-.4.5-.5.4-2.3,3.4,4.1,3.4-2.1-.3-2,1.2-1.1.2-1.4-.8-2.2,1.2-1.9-1.6-4.5-.2-2.2-1.6-1.6-.4-2.4-1.9-3-1.1-.4-.4-1.5.7-.7,3.3-.4.7-1.3.2-1.9-1.6-3.7v-1.5c.1,0,3.9-3,3.9-3l1,.4.9-.4h2.9c0,0,2-.6,2-.6l1,.2.7,1.3h1.2c0,0,.4-.8.4-.8l-.6-.4.2-1h1.8c0,.1.5-.5.5-.5v-2.8c.1,0,1-3.8,1-3.8Z"/>
    <path id="IS-6" d="M302.6,85l.8,1.3-.2,2-1.9-1.4-.2-1.5.7-.9-.3-1.2,1.2,1.6ZM457.2,153.2l-3.2.5-1.4-.8-1.1.3-2.2,1.9-.6,2.6-2.9,3.4-1-1-4.2.3-1.8,1.1-4-.6-2.9,1-5.3.5-2.6,1.1.5,3.8-2.9,2.2-3.4,1.8-.6,1.4-2.2,1.4-5.9,1.3-1,.8-1.4,5v1.9l1.6,9.6-2.7,4.5-2.9.6-.8,1.3-2.7-1.6-3.7.3-3.8-1-1.8,1.3-.6,1.1v2.6l-2.4,5.3-.2,2.9-1.3,2.9.5,2.6,6.6,5.9-1.1,2.1-.3,2.6-2.2,2.4-1.4,2.6-2.6,2.4-.8,3,.2,11-1.1,1.1.3,4,1.3,1.4-2.6,4.2-3.7.6-3.2,3.5-1.4,2.7-5.4,2.6-3,2.1-1.9,8.5-1.3,2.8h0l-.2.4-2.9-2.4h-1l-.6.8-2.4-.2-6.1-1.4-3.2,1.8-2.7.5-2.7,2.2-1.1,1.6-1.9.3-.6-1.3-3.2-1-3.5,1.8-4.3,4.3-.5,2.2-1.8.3-.5,1.1-4.8,4-1.1,2.9-2.9.3v-1.1l-.6-.2h.6s-1.6-2.1-1.6-2.1l-3.2-2.6-6.1.3-2.1-.6-2.6-1.9-.3-2.1-1.9-4-1-1.8-1.4-.8-2.1-.3-1.9.3-1,.8h-2.1v-1.8l.8-1.3-.6-1.3-4.3-3.8-1.6-.8v-2h0l.6-.5.2-1.3,1.7-1.2,3.2.5,1.1-1.4v-4.4l-1.7-3.2-1.4-1.2v-4.3l1.7-6.4v-4.3c-.1,0-1.6-3.4-1.6-3.4v-5.3c-.1,0-7.6-5.3-7.6-5.3l-.6-7-4.1-2.6-1.1-2.3-2-1.8-1-2.8v-4.8c-.1,0-1.2-.6-1.2-.6l.2-1.4,1.8-2.9-1.4-4.1-4.7-1.1-1.8-1-1.2-1.4-.5-4.2,2.6-3.8,1.7-4.7v-10.7l-3.2-2.2-4.9-4.9v-2.9c.1,0,1.9-1.8,1.9-1.8l3.2-2v-4.8c-.1,0-2.5-4-2.5-4l2.4-8.4-4.4-3.5-.5-1.9-1.4-1.3,1-2.3-2.6-2.5h0l2.1-1.5,2.3-2.7,2.2-.2,1.1,1.6-1,4.1h.5c0,0,2.5-3.5,2.5-3.5l.7-2.3-.8-1.3,3.3.7,1.3,1.5v1.3c.1,0-1.3,4.2-1.3,4.2h.7s1-2.3,1-2.3l2.3-1.2,1.1.2,1.6,1.7,1.6,3.7-2.7,3.4v.7c0,0,.7.5.7.5l3.5-2.4.8.4,1,1.6.6,5.5.5.5-1,6.2,1.3.8h2.2c0-.1,2,2,2,2l1.2-.5,2.9.8,1,3.3,1.2,1.2.6,4.4.7.8,1-1.1,1.5,1.8v6.6s1.4,1.5,1.4,1.5l.5,1.8-.5.7.5,1.7-.5,1.4,1.5,1.4,1.1,2.7,1.3.6-.4,1.7.7.5.5-.5v-1.2l-1.6-7.5.6-3,1.1-2.4-.3-.9.6-1.2-.7-1.4.3-1.3-1.2-4.4-1.9-2.8v-1.1s-.7-.3-.7-.3l.3,1.2-1.2-.4-.4.3-1.6-1.6v-1.9c-.1,0,1-1.9,1-1.9l-2.8-2.9-1.9-4.7v-1.6s-.9-3-.9-3l-.2-4.9-.8-2.2.5-4.1,1.5-1.6.5-.5,5.1.6.5,1.8.7.3.6-1.4h1c0-.1.9.7.9.7l-.3,1,.6.8,3-1.3,3.2.9,1.8,1.6-.3,1,1.3,2.1,2.3.5.5,1.5,2.9,2.8,2.7,4.4v2.5s1.1,2,1.1,2l1.5.7,3.7.4,4.3-.7,1.4-.7,1.8-1.9-.3-1,.4-1,1.8-2-.2-.7h-1s.8-2.4.8-2.4l-.8-.5,1.4-1-1.1-.8h2.1c0-.1,2.9-2.9,2.9-2.9v-3.1c0,0-.9-.7-.9-.7v-.7s.3-1,.3-1l1.3-.6,1.2-1.7,1.2-.4.8.8h1.4s.6-1.5.6-1.5l4.4-.5,1.5,1.1.9,4.7,1.2,1.9-.4,3.6,1.3.8.7-.9-1-.5.3-1.6,4.7-.4,2.2-.8,2.3-2,9.4-4.8,3.6-4.1.7-1.3-.3-1.8.6-2.1-1.1-1.1-.8-1.4-.4-.8-.2-2.7-.8-1.9-1-.7-.3-3.3.5-1.1-.8-2.4,1.2-.4-1.7-3.7-.3-2-1.2-1.3,1.1-3.4,1.5.3.7-.6.8-.4,1.9-.6.6.9v1.4s2.2-1.5,2.2-1.5l1.2.6,1,2.1h1.1c0,0,2.5-.9,2.5-.9l-.2-2.1.7-.2.2,1.3,1.1-.5,1.3-2.5,1.8-.6,1.3.2.6.8.7-.2h1.1s1.5.3,1.5.3l1.4.7h1.3c0,0,1,.5,1,.5l.7,1.4.9.4-.5,1.2h1.5c0-.1.2.3.2.3l-2.3,1.5v1.2c.1,0,.2.8.2.8l-.4,1.5.5,1.6v.7c0,0,1.5-.5,1.5-.5l.5-.3.5.2v1c0,0,2-1,2-1h.7c0,.1-.9,2.1-.9,2.1l.2.4,1.4-.5,1.9.9,2.5.3,1,1.5.6,4.7-.3,1.8-1.1,2-2.6,2.8.2,1.2,1.2,1.7,1.9-1,.2.3-.9,2.6v1.6s.5.6.5.6l2.4-.5.7.8,1.9-1.5.3,1.5,2.6.4.2,1.8,1.1,1.2h2c0,.1,1.2,3.1,1.2,3.1l1.2.3,2.3-.6.6-.6.5-1.7-.9-2.4v-2.9s.7-2.7.7-2.7l1-.2,1.9.9,6.5-2.2,1.1-1.2-.2-1.4,1.1.2,1.8-1.3v-1c.1,0,1.4-1.6,1.4-1.6l.3-3,1.3-.2,1.9-2.2,3-1.5h1.7c0-.1.5.8.5.8l2.2,1.8,1.9.4,2.3-.3,3-1.8,3.5-.5-1.7,2.1-4.9,1.6-3.3,2.1h-1c0,.1-3.6,3.6-3.6,3.6h-1.1c0,0-3.5,1.5-3.5,1.5l-1.8,3.1,3.2,4.4-.6,3.9-5.9,4.9-3.9,1-1.7,2.5,1.6,2.2,4.3-.7-.6,2,.4,1.3-1.7,2.9.6.5,2.2-.6,1.3.2.3,1.2,1.4-.2.6.7,2.3-.6.5,2.2.8.5,2.1-.4,1.2-2.8,1.7-.5,1.2-1.6.6-.2,1.4,1.1h.9c0-.1,1.3,4.9,1.3,4.9l1.4,1,.7,4.5ZM307.7,288.4l-.9.4-2.2-.4-1.8-2.3,1.6-1.5,1.7-.6.3-.8,3.4-1.7,1.7.8.4,1.1-.7,1.5-1.7,1.1-1.8,2.4Z"/>
    <path id="IS-7" d="M457.2,153.2l.2,1.5-2.7,6.9-2.9,2.2-.5,1.3v.6s-2.8,1.3-2.8,1.3l-.4,1.8-.9,1,1,2.5-1.2-.4-1,1.9-1.7,1.4-1,1,.4.8,6.1-5.5-.8,2.4-1.1.7-2.1,3.4.9,1.1h2.2c0,.1,1.1-1.3,1.1-1.3l1.2.2,2.9-2.2.2.6h.8c0,0,1-.9,1-.9h4.1c0,.1,2.2-.8,2.2-.8l2.1-1.6,5.5-1.2v1.7c0,0-2.4,5.9-2.4,5.9l.4,1.4,1.9,2.2,6,5.4,6.4,3.6,3.1.8,1.1-.4,1.4-1.5,1.7.2.5-.4,1.4.8.8,2.5-1.6.7-.3.7,3.2,1.2v4.5c0,0,1,.7,1,.7h.9c0-.1,1.7-3.8,1.7-3.8h2.4c0,0-.3,2.6-.3,2.6l.7.4,1-.8,1.2,2.4,1.1.2-.7,2.5v2.4c.1,0-1.4,0-1.4,0l-.4.8.6,1-.2,1,.8.8-.4,1.9-1.5.6,1.2,2.5-1.3,1.6-2.4,1.4-1.2-.5h-4c0,0-1.2.6-1.2.6l6.3,2.3.3.8-2.2,2.3-4.7.2-1.7,1.5-4.2,1.7-.5,1.4.3.6,1.7-1.8,2.4-.4,2.8-1.5h2c0,0,1.6.9,1.6.9h2.4c0-.1.8-1.5.8-1.5h.6c0,0,5.5,2.7,5.5,2.7l-1.3,3.4-1.3,1.6-.3,1.2-1.2.7-5.4,1-4.5-.4-6.3,2h2.2s4.2-1.1,4.2-1.1l4.2,1.4,5.6-.3.8-.5,1.2.7v2.6c0,0-1,1.5-1,1.5l-1.1.5h-2.5s-1.7,1.8-1.7,1.8l2.8-.6,2.6.4-.3,1.1-2.1,1.4,3.5-.6-.8,2.7.4.2,1.6-2,1.4-4.1,2.2-2.7-.5,5.9-.8,1.8.4,1h1.5c0,.1,0,2.1,0,2.1l-2,2.7-2.8,1-.3,1.1,1,1.2-.3,1.6-2.9,1h-5.3c0,0-1.4-2.9-1.4-2.9l-2.1-2.1-2.7-1.5-2.2-.5-3.1-2.8-.5.6,2.3,3.3-3.9.3-1.7,1.1-1.6.2-3.7-1-.2,1.1,2.7,1.2,5.5-.6,1.4.9h1.6c0,0,.6.8.6.8l2.5-.4,2.2,2.4v1.1s3.1,1.8,3.1,1.8l1.2,1.8,3.6.9,1-.6-.2,3-1.2.4-3.3-.4-.3.4-3.5-1.6-1,.5h-3.7c0,0-3.6-1.8-3.6-1.8l-.2,1,1.7,1.2,3.8,1.1,3.7.4,1.6,1.7,1.5.9h.8c0-.1.7,1.1.7,1.1l-1,1.9-1.4,1-1.2,1.6-3.4-1.5h-2.4s0,.5,0,.5l4.2,2.5,1.5.2-.3,1-1.3-.5-3.4,1.4-1.2-.7-1.2.3-1.3,1-.4-.2-.6-.7-1.4.4.4,1-.3.5.4.6.6.4h.6c0-.1,1.2,1.5,1.2,1.5v.8s1.3,1.3,1.3,1.3l-.7,1.2-4,2.6h-1.2s-2.1,0-2.1,0l-.8,1.2h-1.2s-.5-.6-.5-.6h-1s-.8.5-.8.5l-1.4-1.4-2.3-.6-.7-3h-1c0,.1-.2-1.8-.2-1.8l-.3-.3-1.2-1.2-1.6-.6v-1.6s-1.5-.8-1.5-.8l-1.5.5,2,1,.4,1.1-1,1v.8c.1,0,2.3.9,2.3.9l1.1,1.2.3,2.9.9,1.2,1.5.5v1.6c.1,0,1.3.7,1.3.7h1c0-.1.3.6.3.6l.9.4.6,1.1.6.5-.6.8h-2.3c0,0-.8-.3-.8-.3l-.5-1.1-1.1.3-2-1-2.9.6-1-.3-1.6.9,1.9,1.5h1.9c0,0,1.1.9,1.1.9v2.7c.1,0-.9,1.1-.9,1.1l-.7.3-.3-.5h-1.3s-.6,1-.6,1l-1-1-1.3.4-.9-.3-1.1,1.8.8,2-.8,1.5.5.7.8.3,1.4-.9,1.2,1,5.1-5.7,2-1.8.4.7-2.7,2.2-3.8,5.8-.2,1.5.9,1.2-1.9,4.4.4,2.3-1.4,1.3.2,1.2-.6,1.2-.7-.3-4.9.9-3.3,1.2-1.1,1,.4-.9,2.1-1,4.5-1.3,2.6-.2-3.6-2.3-1.9.5-1.5-.3-.7,3.1h-.6c0-.1-2.3,1.5-2.3,1.5l-.3,1.2-1.5-.8-.2,1.5h-.7s-.9,1.6-.9,1.6l-.7.3-.8-.7-1,.9.3,1.1-2.6,2.2-.7,1.5,1.6.5,2.1-.4-.4.8.5.9-1.5.2-.7,2.1h-1.1s-.4,1-.4,1l.6.7-.2.5h-2.1c0-.1-.5.3-.5.3l-4.2-.5-3.2.8.8-.7,3-.9,3.2.5,2.2-.3.5-1.4-2.2,1.3-.3-.3.7-.7-1.2-2-1.7-1.4-1.3-.3-1.5,2.2-1.9-1.2h-.7c0-.1-.7,0-.7,0l.8-1.4-1.4.7-.3-.3-1.1-.2-1.1-3.8-.2.6-.6-.3-.3-1.4-.8-.8-1.4.2-.8.5-.2.9.5,5.5-.3.5-1,.2-.3.5h.9c0,0-.1.8-.1.8l-.7.4-.3,1.2-2.1,2.3-2.5-2.4v.8c-.1,0,.8,1.4.8,1.4l-.2,1-1.2-.2-.4-.6-.6,1-5.1,1.5h-1.2s-.3-1.2-.3-1.2l-.4,1.3-3.1,3h-1.8c0,.1-.3.7-.3.7l-3.8,1.3-4.3,2.7-15.5,14.9v-.5c-.1,0-1.6-1.1-1.6-1.1v2.1c0,0-1.3,3-1.3,3l-1.6,2.2-2.5,1.2-.3,1.7-1.1,1.1-1.7,1.2-2.6.3-1.7,1.6-.5.9-2.9-.7.6,1-2.2-.8.5,1.6-.4,2.2-.6,1.2-.2-3.5-.7-.2-.5.6.3,1.7-.5,3.2-9.6,1.1-7.2-.5-9.4.8h0l.4-24.1h1.5l1,1.3,2.6.3,5.1-.8,1.4-1,.8-4.2-3.7-3-.8-1.4,1-1.4,2.1.2.6-1.4-1.3-1.3,2.6-.2,1.6,1.1,5.6.8v1.8h1.1l1.3-1.6,1.4.8.8,1.6-1.6.6-2.7,2.6.6,3h1.6l.5-3.5,1.8-.6,2.1.5,1.1,1.4-.3,3.7-1,1.3,3.4,5.3,6.2-.2.5-1.6,1-.5-.2-1.4,1.6-2.4,4.6-.5-.3-1.4-5.3-2.7.6-1.8,2.1-1.1,2.4.3,1.1,1,2.9.2,1-.8,3.5,1.4,2.1-2.1.3-2.2-.6-2.1-1.6-1.4-2.1-4.3.3-6.9h1.6l-.5,3.8,3.5,3.4,1.6-.5,1.1-3.4-2.1-1.8-1.3-2.9,5.4-.5,3.5,1.1,4-1.1,2.6.3,1.3.8,3-.8.6-1.8-4.3-1-1.9-2.6,7,1.1-5.6-3.4-3-3.7,4.6-1.4.6-1.3,7.7,5.4.3,1.6,1.4.5,2.1-.6-2.4-1.6-1.1-2.1-4.8-3.4-.5-1.6,3.4-2.1-.6-2.2,1.6-.3,1.9.6v-2.2l1.1-.2,1.9,2.1.6,2.1,3.2.6-.2-2.6-1.3-1.3-1.6-.2-1-1.3,1.1-4,.8-1.4h1.1l1.3,1.6,1.4-1.4h1.8l1.3-1.3.6-2.7,1.6-2.4,2.1-1-1.9-2.6-3.5-.2-.3-1.4.6-1.4v-2.1h-4l-1.4,1.4-1.1-1.3-2.9.5v-2.1l1.8-1,.8-2.1-2.2-.8-3.7,1.9-.6,1.3-.2,4.2-1.4-.2-6.6-5,.2-6.4-2.7-2.9-4.5-.8h-4.5l-1.8-.8-1.8.8-6.4,5.1-5.4,2.1-3.7,3.5-.8,3.7-1.6,2.6-5.1,1.9v-2.1l2.1-1.4.5-3-1.4-.6.5-3.7-1.3-.5-1.4.5-.2,3.8-1,1.3-1.8.5-.3-6.1,1.1-3.2,1.8-1.4v-3.9h-.1l1.3-2.8,1.9-8.5,3-2.1,5.4-2.6,1.4-2.7,3.2-3.5,3.7-.6,2.6-4.2-1.3-1.4-.3-4,1.1-1.1-.2-11,.8-3,2.6-2.4,1.4-2.6,2.2-2.4.3-2.6,1.1-2.1-6.6-5.9-.5-2.6,1.3-2.9.2-2.9,2.4-5.3v-2.6l.6-1.1,1.8-1.3,3.8,1,3.7-.3,2.7,1.6.8-1.3,2.9-.6,2.7-4.5-1.6-9.6v-1.9l1.4-5,1-.8,5.9-1.3,2.2-1.4.6-1.4,3.4-1.8,2.9-2.2-.5-3.8,2.6-1.1,5.3-.5,2.9-1,4,.6,1.8-1.1,4.2-.3,1,1,2.9-3.4.6-2.6,2.2-1.9,1.1-.3,1.4.8,3.1-.6ZM424,328.9l.4.8h-.5c0-.1.5.9.5.9l-.2,1.7-.3,1.1-.6.2-.8-4.6h1.4ZM425.5,330.4l1,2.1.4,2.3-.4.3-2.3-.5,1.3-4.2ZM430.9,336.1l.7,1.2-1.2.5v.9c.1,0-.7,0-.7,0l-.3-1.4.7-.4-.4-.2.3-.7h.9ZM429.9,340.3l.5.6-4.2-.3-7.3.9-1.2,1-8.7,1.8-2.1,1.4,1.3-1.3,9.1-2.2,1.5-.9,4.4-.8,4.9-.2.9-.7.8.7ZM370.6,376.7l-4.3,5.5-1.6,3.6-3.8.7,1.7-.8,3.2-3,.4-1.5,4.5-4.5Z"/>
    <path id="IS-8" d="M331.8,364.2l-.4,24.1h0l-8.3,2.8-4.8,2.3-2.5,1.8-2.5,2.5-6.6,13.7-5.1,6.1-7.6,4.4-5.9,1-19.3,5.8-5.9-.9-4.4-1.5-2.5.2-.7,1.3-2.4-.5-1.9.8-7-4-6-2.1-14.2-6.2-7.5-1.5-5.6-.2-3.7.9-4.4-.8-4.3-3-7.3-7.5-9.5-8.4-8.4-5.8-5.4-5.9-5-1.3-6.7-4.8-.3.4-3.9-.6-2.5.5-1.3,1.3.9,1.3-.3.5-1,.4-3.3-.3-1.8.8-3.9.5-2,1.1-2.7-.5-1.1-1-1.2-2.4-1.7-.7h-1.8c0,0-.3,1-.3,1l-2.2,1.3-3.2.7h0v-1.7c0,0,4-3.3,4-3.3l.5-1.6,3.4-2.7,1.6-2.4,1.5-1.2h0l1.4-1.4h3.4c0-.1.8-3.9.8-3.9l1.2-.8.7-2,3.8-5.6.4-2,1.4-.9.4-1.9.9-1.1.4-4.3-.8-1.1-.3-3.8,4.2-4.5.3-1.4,1.5-1.6,1.8-.3,1.6-1.1,1.1-1.1v-.7h0l1.7-1.8h0l1.8-1.8,1.9-4.2,6.6-6.3,2.9-3.2,1-2,1.9-.2h0l2.5,2.5,2.7-.9,1-.5.4-3.6h0l1.1-.5h0v-.9h-.1.7s.5-.8.5-.8h1.1l.9.7-1.2.7.3,1.1,2.9.3.5,1.1v2.3c0,0,2.4,4.3,2.4,4.3l1.1.6.9-.4.9-1.7v-3.5c0,0,2.8-.9,2.8-.9l.9,1.1.7,3.4h2.8c0,0,3.3-3.8,3.3-3.8l7.4-4.1,2.3-2.2-.3-1.1-1.4-.3v-.9l2-1.4v-2.3c.1,0,2-1.4,2-1.4v-1.3c0,0-.8-2.2-.8-2.2l2-2.3v-1.6c0,0-1.5-.5-1.5-.5l1-1.4,3.5-2.2.3-3.2-.6-1-1.1-.3v-.9l2.4-1.7.7-4.1h0l1.5,1.3,1.2,2.8h2.4l7.2,1.7,3.8,1.8,3.7-.6,1.9.6.7,1.3,6.2-.2h0l.2.9-1.4,3.1,1.4,3.4h1.7c0-.1.7.4.7.4v1.2l4.6,4.3,2.2,1.2,2.2.4.8-5.2,3,.2.6,3.2,2.3.2,2,1.4.7-1.3,1.1-.7-2.2-2.6v-1.7c-.1,0,.8-2.2.8-2.2l2.6,2,1.9-.8,2-1.6,2.5-4.6-.5-10.3.6-1h0l.7-.6h0v2c0,0,1.5.8,1.5.8l4.3,3.8.6,1.3-.8,1.3v1.8h2.1l1-.8,1.9-.3,2.1.3,1.4.8,1,1.8,1.9,4,.3,2.1,2.6,1.9,2.1.6,6.1-.3,3.2,2.6,1.6,2.1h-.6s-1.5.2-1.5.2l-2.1,2.9-4.8,4.4-.8,2.9.3,3,4.6,1.8-.2,1.4-5.4,2.1v2.2l-1.4,2.4-.5,2.6-7.5,7.5v2.2l2.1,4.8,3.5,1.3.2,3.8,4,.5.2,1.8-2.7.6-.2,4,1.4,1.9,1.6.3,1.3,2.1,1.6.8,6.4.2,2.1-3.5.5-4.6-.8-1.4-.3-3.8,2.1-.2v2.2l.8,2.6h2.7l2.1-1.9.2-1.6,1.4-.2,1.1.8.8,1.4,1.1.2.5-1.6-.8-2.7,1.6-.6,1.4,1.6,3.7,2.6-.2,2.7-.6,1.6.5,2.7-.8,5.8-1.3,3.8-1.1.6,1.1,2.2ZM230.6,401.4l1.5-.3,3.2.3,1.2.8.7,1.3-.4,1.1-2.2,2.4-1.5.5-5.4.2-3.9-3.4-.6-1.3,2.4-2.5,3.1-.2h0l2,1.2ZM258.9,388.3l3.8,1,3.1,2.7.2,1.2-.7,1.3-3,.8-.5,1.2,1.3.8h1.2c0,0,1.3,1.2,1.3,1.2v1.5l-1.8.2-1.1,3.1,2.5,2.8,2.8.7.5.7-.2,1.3-4.2,3.1-.8-.8-2.4-.2-.7-1.1-.7-.2v1.3c0,0-.7,1.1-.7,1.1h-6.7c0,0-.8.6-.8.6l-2-.2-.3,1.1-.7-.2-.8-3.2-.9-.8-.6.3v1.6c0,0-3.3,2.3-3.3,2.3l-.2-1.4,1.3-1.8.2-3-3.8-1.2-.7-1.3.3-1.4.8-.9,1.8-.3.7-1.3.7-4.5,1.5.4.3.7,1.3-.2-.7-1.7-3.6-1.1,1.3-4.1,1.3.4.5.8,4.6-2.8.2-.7h1.2c0,0,3.4-1.5,3.4-1.5l1.2.2h0l3,1.7ZM200.2,423.7l-.4,1.3-1.6.9.4.7-.8,1.3h-.6c0,0,0-.6,0-.6l.6-.3-1.6-3.7,3.2-1.3v.9l.9.8Z"/>
  </g>
</svg>