<?xml version="1.0" encoding="UTF-8"?>
<svg id="Layer_1" xmlns="http://www.w3.org/2000/svg" xmlns:amcharts="http://amcharts.com/ammap" version="1.1" viewBox="0 0 512 512">
  <!-- Generator: Adobe Illustrator 29.1.0, SVG Export Plug-In . SVG Version: 2.1.0 Build 142)  -->
  <g id="_x3C_defs">
    <amcharts:ammap bottomLatitude="51.419835" leftLongitude="-10.617130" projection="mercator" rightLongitude="-5.429497" topLatitude="55.384293"/>
  </g>
  <g>
    <path id="GB-NIR" d="M441.7,99.5l-.7.5,1.7.8-.9-1.3ZM445.6,118.3l.4-3.4-3.3-4.5-.8-2.5v-3.5c0,0-3.8-4.4-3.8-4.4l-2.2.2-1.5-.6v1.1c0,0-1.1,1-1.1,1l-.7-.9-1,.8-.7-.4-2.6.3-2-1.4-4.3,2.2-4,3.5-2,.7-.8,2.5-1.4.5-.6-.4,1-3.2-1-.6.3-1.5,1.4-3.3,3.5-2.9.5-1.2,7-2.7,2.8-2.5,1.6-2.8v-5c-.1,0-2.8-5.5-2.8-5.5l-2.6-1.5-.2.9-1.1-.7-1.2,1.3-1.2-2.5-1.9-1.9-.4-2.2h-1.2c0,0-1.4-1-1.4-1l-1.5-4.2-1.7-2.6-1.2-1.1h-1.5c0,0-.7-1.4-.7-1.4l-1.7-.2-.3-.8,1.1-2.3,1.1-5.6-2.2-1.4-3.6.8-1.1-.8.2-3.4,1.3-2.5-.4-3.4,1.2-1.8-.6-3.1-1.3-.8-1-3-3.9-1.6-1.7-2.1h-1.3s-1.7,1.6-1.7,1.6l-4.3,1.3-4-3.4h-1.5c0,.1-3.1-1.6-3.1-1.6l-1.2-.3-3.2,1.7-.4-.6-3-.4-.9-1.5h-1.2c0-.1-3.6,2.3-3.6,2.3l.3,1.1-1.2,1.2-7.6,1.5-1.2-1,.5,1.2-.4.6-4.5,1.3-.8,2.4h-11.9c0,.1-4.3-2.8-4.3-2.8l-1.5-.3.4,1.9-.6,4.3-1.4,4.8-2,1.2.2,3.1-2.2,2.2.4.6-6.7,1.6-1.4-.5v-1.4c0,0-.7-.4-.7-.4l-2.1-.2-2.1.7-.7-.5-.9.4v1.1c0,0-1.4.6-1.4.6l-.5-3h0l-1,.4-1.1,1.8-.9-.8-1.5,1.3-2.1-.7-3.6,4.3-.5,1.6.8,1.1-1.2,1.9.6,1.3-.4,2.2.8,1.4-2.9.5-.9.8-.4,5.2.6,3.3-2.7,5.9-3.4,2.1-1.5,2-.2,4.2.9,1.1-.7,1.1-2.3-.2v-.9c0,0-1,.9-1,.9h-2c0,.1-1.7-.8-1.7-.8l-2.8,2.4-4.4,2-.8,1.2-4.1-1.7-1.2-1.9-1.1-.3-3.5,4.4-2.9.2v.8s1.5.8,1.5.8l-1.1,1.7.7,2,3.3,1.4.4,2.5,1.8-.3,1.3-1.5,3,2.9.9-.3,1.5.7,2.5-1.8v1.7s.6.8.6.8l-.8.8-3.2,1-1,1.6-2.3.7-.4,1.5-2.2,1.7.5,1.4-1.7,1.3-1-.4-6.9.4-1.3-1.8-1.3.6-1.4-.2-2.7,4.9-.2,2.6h-2.9c0,0-2.3,1.4-2.3,1.4v.8s-2.8,0-2.8,0l-1.9.7h0l2.5,1.7-1.3,1.6,5,4.4,2.2,4.4,2.2,1.6,2.5-.2v1.2c0,0,3.8,5.4,3.8,5.4h0l2,.3.9,1.1.7-.8.9.2.5,1h1.6c0-.1-.9.8-.9.8l-.2,1.6,1,1.6.3,5.6,3.2,1.9.7-.6,4.1-.5,1,1,3.7-.5.8,3.1,1.3-.6,2.3,2.1.4,2.4,1.5,1.3h1.8c0,0,.8,1.8.8,1.8l1.3.8,1.5-1.6,3.7,1.1.9-2.2,1.7-1.2,2.4-.6.3.6-1.3,1.4.4.4,3.6-.4-1.5,2.3,2.2-1.4.9.8.3,1.4,1.6-1.2.3.8h0l.9-.2v-.6c0,0-.8-1.7-.8-1.7h-.7c0,0-.7-.9-.7-.9l2.2-2.9,1.3-.5.8.6-.4,1.7-1.1,1,1.1,1.1-1.7.7.7,1.3h1.3c0,0,.1-.9.1-.9l1.2-1-.2-1.2.7-1.8,1.3-1.2-1.2-1.7v-1.4c0,0,1.6-.2,1.6-.2l-.4-.7h-.9s.3-.7.3-.7h1.3s.2-.9.2-.9l1.8-.4,1-1.1,1.7.8,1.5-.7v-1.9s-.7-.8-.7-.8l.9-1.5-1.3-2.2h-1.2c0,0,.4-1.3.4-1.3l-2.7-1.4.9-2h1.2c0-.1.2-1.6.2-1.6l-.7-2,2.6.5,2.4-2.2,1.2-.2-.5-1.7,1.8-1.5,2.4-4.1,1.9-1.2,1.7,1,.2.8,1.3-.3,1.4,1,.5,1.1,2.2,1.2v.8c0,0,.7-.3.7-.3l.6.5.7,2.9,1.5.5,1.8,4.3.2,2.7-.6.5v1c.1,0-.4-.6-.4-.6l-.5.3.2.7,1.7,1.9.8-.2.8.7.9,4.5,1.1.4v.9s1.9,1.8,1.9,1.8l1.5.2,1.1,1.9h1.5c0,0,1.4-2.3,1.4-2.3l3.1,1.4,2.2,5-1.6,3.8-.8-.2,1.3,3.3-1.2.3.3,1.9-.6,1.9,1.3.4,1.8,2.8,1.7-.8h0l.8-1.4,2.4.6,1.9-.9,1.5.6.9-1.2,1.6-.4-.5-.7.4-.8,1.6.7,1.1,1.8,2.2-.6,1.9.4.5-1,1.3-.5v-5.3s1.7,0,1.7,0l.4,2.4.9.4,1.8-2.2h.8c0,0,1.5,1.2,1.5,1.2h4.7c0,0,.9.8.9.8l.6,2.5,1.4,1,5.2.5,1.5,1.9h-1.8c0-.1-.6,1-.6,1l3.5,2.1,2.9-1.9,1.7-2.3,2.7-.8.8-1.9,4.2-3.7,1.8-7.5-.2-2.7-1.2-2.3.7-1.4,3.8-3-.5-1.6-1.1.7-.5,1.2v-1.5s1.4-1,1.4-1l1.6-3.1.2,3-1.3.2.9,1.7,4.8-.5,2-.9.6.5,2.1-.2,1.1.3,1.5,2.9,1.8-2-.6-1.8.6-.7,1.4,2,.5-.3.6-1.4-.4-.7,1.1.3,2.3-2.8,1.1-2.9,1.7-.9-1.2-.6-.7-6.4-.9-.8-.4,1.3-.6-.9.3-1.4-3.2.5-2.6,1.9-2.3-.4-.2-.8,2.2-1.1-.3-.4,1.2-2v-3.7c0,0,.8.1.8.1v-.7c.1,0-1.3-2.4-1.3-2.4l.7-.3v-1.1c0,0-1.2-.6-1.2-.6l.7-.6h-.6c0-.1.7-1,.7-1l-.7-.5.5-.6-.7-1.1-.8.8-.8-.9.2-1.4h.8c0,0,.9-1.3.9-1.3h-1c0,.1-3.9-2.4-3.9-2.4l1.6-1-.2-2.8,1.2-1.9,3.3,2.7,1.8.4,2.6,3.5,1.4-.2,1.8,5.9-.4.4.6,2-.7.9.6.4v3.5c-.1,0-.5.8-.5.8l-.7-.4v-.8c.1,0-1.1.7-1.1.7l-1.2,3.8,2.2,2.5.8,2.2.8.2.3,2.4.9-.2.8,1.6.4-2.5,1.3-1.1-.8-.6.3-1.5.7-.9.7.3.7-.6-.3-3.5-1.1-1.7.7-1.2h1c0-.1,1.1-2.6,1.1-2.6l.3-1.5-.5-1.1.8-1.2-1.7-.9-1.2-4.1-.9-1.5Z"/>
    <path id="IE-CW" d="M352,322.1l1.9-.3,1.9,1.7,1.8-.6,1.1,1.4.7-.8,3.4.8.4,2.2,1.4-.3,1.3.7,1.1-1.7,2,1.3v1.4c0,0-1.5.3-1.5.3l.3,5.7h-1.8c0-.1-1.3.5-1.3.5l.3.5-.8,1h-1.3c0-.1-1.1-.9-1.1-.9l-.9.2-.7-1.7-2.7-1.7-.7.6.3,1.3-2.4,1.8-.7,3.3.9.5,1.3-.8,1.8,1.6.8,1.7-.6.9,2.9,4.2h0l-2.3,3-1.2.2-.8.9v1.9c-.1,0,1.1-.4,1.1-.4l.3.7-1.7,2.9-4.6-.5-2.9,2.4-.3,5.3-.7,1.8-1.2.2-.8,2.6-1.6,1.5.3,1.5-2.3,4.9-2.3,1.8h-1.6s-1.3-.4-1.3-.4l1.2-1-1.6-2.9.4-3.3-1.8-1.2,3.2-2.9-.2-2.1-2.3-2.8-1.5-.5-1-1.8.4-.7-.8-.9.5-1.3-.3-1.8.7-1.3-1.3-.8-.7-2.4-2.5-2.4-1,1.1-1.2-.6-1-2h-1.9s1.2-1,1.2-1l-.9-1.5,1.2-1.3-.2-2.3,2.1-2h0l1.3-.4.5-1.6h5.4c0,0,1-.7,1-.7l1-1.5-.6-1.6,1.2-.8-.6-3.9h0l.5-1h.7c0,0,1.3,2.1,1.3,2.1l1.8,1.2.8-.4-.6-1.7.6-.2,1.7,2,1.6-1.5,2.6.8,1.9-2.9h1c0,0,.2-2.7.2-2.7l.8-.4Z"/>
    <path id="IE-CN" d="M261.7,147.6l2,.3.9,1.1.7-.8.9.2.5,1h1.6c0-.1-.9.8-.9.8l-.2,1.6,1,1.6.3,5.6,3.2,1.9.7-.7,4.1-.5,1,1,3.7-.5.8,3.1,1.3-.6,2.3,2.1.4,2.4,1.5,1.3h1.8c0,0,.8,1.8.8,1.8l1.3.8,1.5-1.6,3.7,1.1.9-2.2h0l1.7-1.2,2.4-.6.3.6-1.3,1.4.4.4,3.6-.4-1.5,2.3,2.2-1.4.9.8.3,1.4,1.6-1.2.3.9h0l.3,1.5h2.2s1.9,1.5,1.9,1.5h1.4s-.3-1.1-.3-1.1l1.1.7.7-.5,5.2,2.4,2.4-1.7,1.9.5.8,1.3,2.7-2.5,2.3.4-.6,2.2,1.1.4.7,1.7,1.5.5,1.2,2.4,2,1,1.2,2.4,2.4.6,2,3,2.7,6.9,3.9.5,1.1,1.3h0l-.5,1.1-.8-.7-.3.5-.8,3.2-1.6-.7.5-.8-1-.2-1.8,1.6.6.6-.4.5-2.7.5-3-2.2h-1l.7,2.1-2.3,1.4-1.2-.7.6,3h.8c0,.1.2,1.3.2,1.3l2.9,3.4-.7,1h-1.1c0,0-.3,1.5-.3,1.5l.7.5-1.1.5-1.1-1.2-1.8,2.1-.8-.9-.2,1.9-3.2-1.4h-4.7c0,0-.6-1.9-.6-1.9h-1.2c0,0-1.5-1.4-1.5-1.4l-2,1.4-1.4-.4-1.4,1.2v1.7c-.1,0-4.6-1.2-4.6-1.2l-.8-2.1-1.7-1.8-2.5,1.6h0l-4.9,2.9h0l-.4-1.7-3.6-1.6-1-1.3.7-.8-.9-4.4-3.6-1.2-1.3,1.2-2.9.4.9-3.7,1.1.3.4-1.9-.5-1.4-1.2-.2-.2.6-.4-1.5-2.2-3h0l1.6-2.4-.4-1.5,1-1.1-1.3-1.3.5-1.3-.4-2.8-1-.8-.4,1-1.9-.9-.3-.8.8-1.2-.7-.6-.8.4-.3-1.7-1.8-.7-1.9-2.9-2,.2-.3-1.5-1.4-1.4-2.3-.3-.8-1-1.2,1.1-.3,1.2h-.8s-2.1-1.9-2.1-1.9l.5-.7-3.1-2.1.3-.9-1.1-1.5-3.5-3-2.9-.3-1.4-1.4-.9.7h-1.8s-.2-1.7-.2-1.7l.9-1.7-1.7-3,.2-.8,1-1.5,3,.4,4-7.1Z"/>
    <path id="IE-CE" d="M176.8,292.1l2.5-.2,1,1h1.2c0-.1-.4.5-.4.5l1.8.6h0l-1.3.4-.4,1,1.4,3.3,5.1,2.5,1.5,1.9,2.1.5-.4,3.2,1.2,2.5-1.1.9.2,1.1,1,3,1.6-.3.5,1.1.7-1.1-.3-.7,1.2-.5.5,1.1,3.2.8.5-1.9,2.6-1.7,1.7-2.9h1.6c0-.1,2.3-1.8,2.3-1.8l2.4-.2.8.8,4.9-.8.5,2.4h1.6c0-.1.3,1.1.3,1.1l1.3.7.5,3.1,1.5-.6,2.4,2,1.4-.9,1.2-1.9,1.1,1.2,2.3.8.6.9,1.6-1.9,1.8.2h0l.4.9,1.7.5.2.7-4.2,6.5-3.9-.2-1,.5-1,4.8-2.7,3.2,1,6.7-2.9,4.3h0l-2.2,1.3.4,3.6-.8,1.5-2.1,1-.4,2.2-2.3,1.4-.7,2.6-1.7,1.4-.9-.8-5-.3.3-2,2.7-1.5v-1.6h-2.5c0,0-2.1,1.8-2.1,1.8l-3.7-.5h0l-.6.3-6.9-2.8-1.8-.2-3.1,1.1-.4.8-2.5-.2-.4-1,3.2-2-1.5-2.6.2-1.6-1-.6.8-1.6-1.1-.8h-1.3l-4.1,2.2-.4.6.5,3-2.8,4.6-1.1.3-.6,2-2,1.4-.7,1.8-1.7,1.7-7.9,1.1-1.2,2.6-.9.4-3,.2-.5-.7.2-.9,3.5-2.7.8-1.8h-1.1l-.2,1-1.6.8-8.8,1.7-1.2-.9h-2.8c0,0-2-1.4-2-1.4h-1.2l-1-1.3-.2-3-.3-.6h-.9l-1.2.9-.2,1v1h1.1c0,0-.2,1.4-.2,1.4l-1.8.7-.9.8.2.8-2.9-.3-2.3,1.1-2.2.2-1.4,3.2-2-.7v.8s-4.9,1.8-4.9,1.8l-2.6-.7h-1.3c0,.1-.5,1.2-.5,1.2l-1.7.8-3.6-.5,1.4-.7,1.1-1.6h1.8c0-.1.8-1,.8-1l-.4-.5,4.5-1.2,1.8-3,4.3-2.2.9-1.9,1.9-.8,1.6-2h2.2l-.8-1.6.7-.6v-1s2.4-1.3,2.4-1.3l-1.3-1.5.8.3-.3-.7,1.4-.2.2-1.3,3.7-1,1.8,2,.3-1.3,2.2-.4.5-1.4-.7-1.2,1.5-.8-.7-4,2.4-.9.6-1.2-.3-.7,1.8-.6-.2-.8-1.2-.6,1.5-1.3.3-1.1h-1.1c0,0,.6-1.8.6-1.8l2.8-1.5,2-2.5,1-.3.4-1.6-1-1.6-2.8,1.3-2.8-.5-2.1.8-.8-.2v-1.2c.1,0,3.2-3,3.2-3l.3-2.4,2.8-2.8-1.2-1.2,3.2-3.9.5-2.7,3.7-2.7,1.6-3.2-.3-1.5.7-1.6,1.6-1.3,3.1,1.8,3.7.5h-1c0,.1.2.8.2.8l2.1,1.3,4.3-3-.5.7h.9c0,0,1.2,2,1.2,2l-.2-2.2-1.1-.9-1.2.4-.3-.7-1,.5-1.1-.6,2.6-1.2,1,.2Z"/>
    <path id="IE-CO" d="M148.7,499.4l.2.6-1.2,1.6-1.5,1-.3-1.1-.8,1.8-.5-1.1-.5.2,1.5-1.6,3.2-1.4ZM152.9,494.9l.6.2.4,2.1-.5-.2.2.6-2.7,1.8-.2-1.2,1.2-.5-.8-1.1.9-.3.8.9.3-.4-.7-.3v-1c0,0,.6-.6.6-.6ZM151.5,493.7l-.4,1.6-.7-.7-1,.5.5-.9.3.3,1.4-.9ZM142,494.6l-2.2.3,3.7-1.5-1.4,1.2ZM146.4,492.6l-.7.9-.4-.2,1.1-.7ZM148.4,492.2h-1c0,0,1.7-.8,1.7-.8l-.7.8ZM96.6,480.8l.2.7-5.5,2.8,2.3-2.9,3-.6ZM124.2,477.1l-.7.3.2.6-1.6.4-.9,1-.8-.4-2.6.9-.4.7v-.8c-.1,0-2.2.4-2.2.4l-.5-.4,1.4-2.5,4.8-.7.9.7-.4.8,1.3-1.1,2.2-.7-.8.9ZM147.4,470l-1.2,2.2-2.2-.3,3.4-2.9v1ZM236.3,453.5l.7.4-.7.3v-.7ZM235.8,452.8l.2.5-.9-.2.8-.2ZM167.1,397.8l.6-1.1,2.7-.7v-.8c0,0,2.6-1.8,2.6-1.8l.3-1.3,2.1,1.4,5.6,1.2,3.9,3.8.4-.3-.7-2.2,7.7-2.5-.5-.7.9-1.9.5.5,1.3-.9v-1.6c.1,0,1.8-.1,1.8-.1l.6-1.6,1.3-.3.8,1.7,1.1-1.6,3.3,1.8,4.6-1.7v2.4s1,1.7,1,1.7l2.1.8.5-.4v1.2c0,0,.8-.2.8-.2l2.3,3.8h2c0,0,1.2,2.1,1.2,2.1l2.7,1.4,5.1-1.7,3.7-.2.4-1.5,1.4-.5v-1.1c.1,0,1.8-1,1.8-1l.8,1.3,1.2-.5,1.4,3.2,1,.9,2.5-1.2,4.7,1.1h0l.5,1.6h1c0-.1-.5,1.1-.5,1.1l.8,3,4.2,1.4v2.9h-.1l-1.6.8.6.4-.8,3.6-1.8.4-.7,2.7,3.8-.5,1,.2.4,1.1,2-.8v2.2c0,0-.8-1.4-.8-1.4l-.4.7,1.1,1.5,1.7.4.3,1,.8.3,1,3.6-.5,2.6,2.7,2.1h2c0-.1-.3,1.2-.3,1.2l2.5,2.1.9,4.1,3.4.3,1.5-.6,1,3h0v1.6c0,0-1.8,1.2-1.8,1.2l-1.4,2.3-1.6.5v1.5c0,0,2.5.9,2.5.9l.4,1-8.2,1.6-3.5,2.1v1.4s0-.8,0-.8l-.7.3,1.8,2-3.1.9-1,.9-5.1.4-2.3,2.3-1,.2-.3-1.2-1.2-.2-4.4.6.4-1.6-1.1-1.1,1-1.3h1.2s-.5-1.2-.5-1.2l1.4-.8,3.2-.4-1.2-.3.5-1.1,1.3-.6-7,.5-3.6,1.8-1.2-.8-.8,1-1.3.2,2.8,1.1v-.6c.1,0,.9.4.9.4l.6-.4-.3,1.8-1.5-.3.2.5,2.2.6v1.2c-.1,0,.7-.9.7-.9h.7c0,.1.1,1.4.1,1.4l-.7,1.2-2.3,1.9,1.1.6-.2,2.7h-.7c0,.1,0,1.5,0,1.5l-1.4-.2-.7,2-3.3.3-.6,1.6-2-.3-.6,1.8-.9.4-1-.8-1.8,2h-1.3c0,0,.1-1.8.1-1.8l-1-1.7-.5,1,.7,1.3-.4.7-1.3-.9.5.8-.8,2.8-1.5,1.6,1.7,1.9-.9.9.6,1.8-.9-.6-.4-1.6h-.9c0,0,0-1.8,0-1.8l-1.3-.7-5.8,1.1-1.2-4.1.2,2-.6.8-1.4-.7-.8,1.3-2.6-.9-1.8,1v.6c0,0,1.4-1.3,1.4-1.3l1.7.9h3.1c0-.1-1.2,2.2-1.2,2.2l1.7,1.1-1.8,1.4.2,2-1,1.1-2.4-.8-.3.8-.7-.2.5-1.1-.7-1.2-1.3,1.1-2.2-1.5-3.2.3v-2.3s-1.5,0-1.5,0l-1.3-1.2.8,2.1,1.4-.2.3.8-.6.7-2.4-1v.8c-.1,0,1.9.6,1.9.6v1.8c-.1,0-1.8.7-1.8.7l.2,2.2h-.7s0,.6,0,.6l-1.3.8-.7-.8-.9.2-1.2,2v-3s-3.3-1.6-3.3-1.6l-1.5.3-.6-2-.2,1.1,1.1,1.7h-1.2c0,0-.4.7-.4.7l-1.3.3-1.3-1,.5.9-.5.2h-1.7c0-.1-1.7-1.6-1.7-1.6h-1.2c0,.1-1.1-2-1.1-2l.4,2.6h1.5c0,0,.3-.5.3-.5l2.3,2,2.4-.6-2.1.8-2.5-1.1-.3.6.7,1.3-1.1-.2.2.5-1.2.5.4.5-1.2.6-.2-1-.8.3.4.8-1.4.6.8-2-.5-2.3-.6.7h.7c0,.1,0,2,0,2l-1.4,1.3v1.3c0,0-1.2,0-1.2,0l-.9,1.2.4,1.3-2.3.6.8-1.1-.4-.6-2.5,1.4.4-2-1,.4v.6s-2.2-1.5-2.2-1.5l1.2,1.8-4,2.7-1.3-.8-1.2.8-.7-.7,1.2-1.4,1.2.2.3-2.4-1.2.3.5,1-1.3.9-.5-.4.4-1.3h-.8s1.3-.6,1.3-.6l.2-.9-2.8,2.2-.6-.5.4-1.7-.9,1.3-.4-.7,1.8-1.5.9-3.7-1.4,1.6v-1.4c-.1,0-1,0-1,0l-.2.9-2.1-2.3v1.4c.1,0,1,.2,1,.2l-.3.8h.9c0,0-1.6,2.1-1.6,2.1l-1.5-.6-.2.9-.9-.2-2.8,1.2.2-1.9h-1c0,0-.4,2.3-.4,2.3l-3.1.7v-1.4s-.3,1.3-.3,1.3l-1.5.7,1.3-.3.6.5-3.4.8,1-.8-1.3-.7.2-1h-.9c0-.1,0-1,0-1l-.7.8-.6-.5-.4.3.7.7-.5,1.1-.5-.7-2.9,1.3.4,2.3-3.4,1.5,3.6-.7-3,.9-2.2,1.6.8-1.5-1.2-1.3,1.3-.7-.3-.3-1.1.9-1.3,2.7h-1.7c0,.1,1-2.8,1-2.8l-2.3-1,3.1-1.6,3.3-3.2h.8c0,.1.5-.5.5-.5l2.2.2,2.7-2.3,1.1.4.2-.5h-.8s1.3-.9,1.3-.9v-1.5s2.2-1,2.2-1l-.4-.6,2.8-1.3.6-1.5,2.5-.5.7-.7-.8-.4.3-.6-1.7,1.2-1.7-.3-2.6,1.9-1.2-.4-1.6,2-.9-.2-1,.8-.7-.3-1,1h-1.5c0,.1-.4,1.3-.4,1.3l-.7-.5-5.7,2.7h-2.6c0,0,5-3.4,5-3.4l-.5-.5.6-.7,4.9-2.4,1.6-1.6,7.9-3.5,1.5-1.3,4.6-1.2,1.6-1.9h1.7c0-.1.3-1.3.3-1.3l1.3-.4-1.4-.5,1.6-3.2-1.3.8.6-1.2-.5-.3-1.9,1.9-1.5-.2-.7-1.4-1.4-.2.3-1.4-.9-1.3-1.2.6.6.8-1.1.9h.7s-.3.5-.3.5l.8.7-.4,1.2-1.7,1.1-.6-.6-.5,1.2-2.7,2.2-3.8,1.3.7-1.6-.8.7-2.9.3-.7-2-.7.8.8,1.3-.5.8-1.1-.4-1.4,1.1h-2.2c0,.1-1.3.9-1.3.9l-.6-.6-2.2.7-1.3-.3-1,.9-1.8-.6-.9,2h-1.7c0,0,1.1.5,1.1.5v1.2s-.9.9-.9.9h-2.1c0,0,0-.7,0-.7l-5.6,3.9-.6-.5.8-.4-1.3.3.8-.8-.3-.3-4.6.7-.6-.4-3.3,2.4,1.4-1.9v-1c0,0-1-.5-1-.5v-.6c0,0,1.2-.7,1.2-.7l1.6,1,2.3-1.4.8.6,2-1.6h-1.2c0,0,.7-.8.7-.8v-1.7s-1,.3-1,.3l-.2-.8h-1.9c0-.1-.4-.7-.4-.7l1-1.2,1.2.3.4-.6,1.3,1,1.7-1.1,1.6.5.9-1.4h2c0-.1.6-2.3.6-2.3l1.3-1.2-.9-.3-1.8.7v-.5s-1.7,0-1.7,0l1.9-2.1,2.7-1,1.1.2v-.5s3.3-2.2,3.3-2.2v1.9l-.8.9,2.9-1.4h0l1.6,2.2-.7,1.1,1.5.7-.7,2.7.9.7,2.3-.6,2.3-2.2v-.9s2.7-2.3,2.7-2.3l4.2-1,.8-1.9,2.7-2.8,3.1.2,1-.7.8.4,1-.5,1.4.5,4.6-.9,1.2-.8.8-2.9h2.3c0,0,1.4-1.3,1.4-1.3l1.9.2.8-1,1.4-.4.4-1.3,1.8-1.8v-.9s2-2,2-2l-1.3-1,.4-1.2-1.2-1.3-.2-2.6,3.1-1.6.6-1.3,3.2-.7,1.4-.9,2.8-.4,1.4.5,1.2-1.5-.6-1.3-2.5.2-1.3-2.7-2.1.4-.9-3.2,1-2.5,1.2-.4.6-1.2-2.1-1.3v-1.4c0,0-1.4-1.8-1.4-1.8l.2-.8-.9-2.4.4-3.5-1-.9-.5-3.2-1.7-2.4.2-3.1,1.9-1.2v-1.5c-.1,0,2.3-.3,2.3-.3l.4-1-.5-1Z"/>
    <path id="IE-DL" d="M224.9,63.5l.3,1.3h-1.4c0-.1,1.2-1.3,1.2-1.3ZM223.7,61l.9,1.3-1.6-.4.2-1.2.5.3ZM218.2,56.9l2.7,1.3-.3,1,.9,2.7h-2.3s-.3.6-.3.6l-.4-.6-2.9-.2v-.8s.7-.2.7-.2l-.3-1.5,1.2-.8-1-1.7,1.2.3.4-1.2.7,1.2ZM227,54.7v2.1c.1,0-.7-1.6-.7-1.6l-1.2-.2,1.2-.9-.7-2.3.7.5.6,2.5ZM294,47.6h1.6c0,0,1.8,1.4,1.8,1.4l1.2,2.9-3.3.4-.8-1-1.4-.4-.7-1.8,1.4-1.5ZM230.7,46.2l1.1,1.3-.8.6-1.5-.8.7-.2-.5-.7h1ZM239.3,22.9h1c0,0-.2.5-.2.5h1.1s1.3,1.5,1.3,1.5l.8.2.2-.6v.7s-1.5.4-1.5.4l-1-1.4h-1.6c0,0,0-1.3,0-1.3ZM305.2,9.2l1.9.6.4.9,4.1.2.5.8h2c0,.1.9,1.1.9,1.1l2.8.7,1.7,1.3-1,.6,1.1.4-.5,1.1,1.4,1.3v1.8c0,0,1.7.6,1.7.6l.8-.4,4,2.9,2.2-.2.3.7,1.9.4.4,1.3,3.9.3,2.3,2.1-.2,1.4-2.2,2.1-5.1,2.7-2,.4-8.3,4.9-3.4,4.1-.5,1.6-3.5,4.8h0l-1,.4-1.1,1.8-.9-.8-1.5,1.3-2.1-.7-3.6,4.3-.5,1.6.8,1.1-1.2,1.9.6,1.3-.4,2.2.8,1.4-2.9.5-.9.8-.4,5.2.6,3.3-2.7,5.9-3.4,2.1-1.5,2-.2,4.2.9,1.1-.7,1.1-2.3-.2v-.9c0,0-1,.9-1,.9h-2c0,.1-1.7-.8-1.7-.8l-2.8,2.4-4.4,2-.8,1.2-4.1-1.7-1.2-1.9-1.1-.3-3.5,4.4-2.9.2v.8s1.5.8,1.5.8l-1.1,1.7.7,2,3.3,1.4.4,2.5,1.8-.3,1.3-1.5,3,2.9.9-.3,1.5.7,2.5-1.8v1.7s.6.8.6.8l-.8.8-3.2,1-1,1.6-2.3.7-.4,1.5-2.2,1.7.5,1.4-1.7,1.3-1-.4-6.9.4-1.3-1.8-1.3.6-1.4-.2-2.7,4.9-.2,2.6h-2.9c0,0-2.3,1.4-2.3,1.4v.8s-2.8,0-2.8,0l-1.9.7h0l-3.3-1.1-1.1,1.5h-1.3s-2.6-2-2.6-2h0l.6-.7-.4-.6,1.3-.5.7-2.7-.9-1.9,4.1-2.8-.5-3.3h1c0,.1,3-2.8,3-2.8v-3.6c0,0,1,.2,1,.2l-.5.2v.5c.1,0,.7-.2.7-.2l-.5.7.8.6-.3.9,1-.3.2-1.9,1.4.4-.3.6.8-.3v-.8c0,0-1.3.2-1.3.2l.6-.8-1.2.2,1.8-1.2-2.7.2,1.6-.7.9-2.4-1.8.5v.9s-2.1,1.9-2.1,1.9l-.2-1.8.9-.6-1.4.3-.5.6.6.5-1-.6-3.6,2.9-4.7,2.2.5-2.7,1.4-1.7-1.2-1.4-4.1,2.1-.7,1.9-2.9,2.7-2.8.9-.8.7v.9c0,0-1.6.9-1.6.9l1.3-1.8-.2-.9,3.7-1.3,1.6-1.9-.8-2,.3-.9-.7.7-.2-.7-1.9,2.3-1.2.3,1.4-4.4h-.6s-1.3,2-1.3,2l.2,1.6-2.2,2.4h-.8c0-.1.3-1.3.3-1.3l-.5-.4.8-1.1-.2-1.3-4.2,2.2-3.2.7-.6,1-.4-.3.5-1-2.7-.3,1.3-1.1-1.4.5-.8-.7.2-1-.9-1.7.9,3.5-3.7.4-.4-1.1.6-.6-1.1-1.3-6-1.9v-1s-.5.7-.5.7l-.4-.7-.5.6.7-3.8-1.6-.7v-1.1c0,0,.9-.4.9-.4l1,.6,1.4-1,1.3.2,1-.6h-1.3c0,0,0-2.1,0-2.1l.7-.6-.4-.7,3-.8.2-1.2,1.1-1.1,1.2.2.4-1.3,5.4-1.1,4.4,1.7,1.6-.7v1.1s6,.8,6,.8l-2.4-.5-1.5-1.6-1.5-.5-.9.4-2.2-1.4v-.8c0,0,2.3.7,2.3.7l1-.6,1,.3.3-.6.8.2,1.3,2.4,2,1.2,1.2-1.4-2.1-.6.2-.6-1.5-1.2.6-.2-.7-.9h-2.9s.1-1,.1-1l-1.2-.8h-1.2c0,.1.3-1.2.3-1.2l-3-.6,2.2-.9,1.9,1,.5-.5-.4-1.1,1.6-1.1,3,1.1,1.7-1.6,1.1.7.8-.8v1.1s1.1.4,1.1.4v-4.4c0,0-.4-.5-.4-.5l1.6.3,1.2-.9,2.3,1.2-.3-.8,1.3-1-2.6-.4-.2-2.1-1.4,1.1-1.2-.8.4,2.2-.7.6-1.9-1.9-2.4-.8-1-1v-1.5c-.1,0,.7,0,.7,0l.3-.8-1.1-.8.3-1h1.4c0-.1,0,.6,0,.6l-1,.5,1.4.8v-.7c-.1,0,1.7,0,1.7,0l1.6-1,.5.6,1.2-1.2-3.3-1.6-.4.3-.4-1.3-2-1.9.6-.5-1.3-1.3.2-1,2.1-.7.4.2-.5.4,1.7.6-.6-1.7,1.2-1.2-1-1.2.5-1,.6-.2.9,1.2.8-1,1.4.2.5-1.1-.6-1.7,1.9-1.1.4-1.2-.4-1.3.9-.5-.2-2.4,1.5-1.7-.3-1.8.9-.8-.5-.7.8-1,3.9,1.2,1-.4.5.8,3.4.2,1.1-.7.3-1.6h1.1s.3.9.3.9l-2.3,1.8.4.5-.6,1.5.7.3.6-.9.6.5v1.1c-.1,0,.4-.5.4-.5l-.3-2.3,1,.6.4-1.9-.5-.8,4-.7,1.5-1.5,1.1.4.8-.4.6-1.4-.7-.6.8-.9-.8-.3.5-2.1,1.8-.3.8-1.2,1.2,1.7,1.9-.3.2.7-.3,1.6-1.2.9h-1.1c0,0-.6,1-.6,1l2-.7,1.9,1.3,1.4-1.7,1.3.5-.4,1.5,1.6.4-2.7,2.3,3-1.6,1.4.5-.8,1.8-1.9.4-1.1,1.8,1.4-.9.9.2v-.7c.1,0,1,1.1,1,1.1l-.2,1,1-.2-.3-1.4,1.5-1.3-.7-.6,1.3-1.3.5-1.8-1-2-.9.6-1.7-1.6.5-3.7.6.6,1.1-.7,1.2.9.7-.2-.3-1.6h1l.2-1.7,1.1.4.3-1-.2,3.9-1.5,1.2v1.5s-.7.8-.7.8l1.2,1.4-.3,1.3h.8s0-.8,0-.8l.4.6.3-.6,1.3.2.3-.8.7.5v1s1,.5,1,.5v-1.1c0,0,1.8,2.7,1.8,2.7l-.7-2,1.3,1.2,1.7,3-1.9,5.6,1-1,.3,1.1,2.2-7.8-1.1-.9-.2-2.2-.5.7-.8-.7.4-1.2-.5.5-.9-.9.2-.9h1s-.8-1.9-.8-1.9l.5-1.1-.6-.6-1.1,1.1.2,2h.6s-.7.9-.7.9l.3,1.4,1,.7-.5,1.8-2.5-2.3-.2-.7.8.3.2-.9-1.1-.2v.6c-.1,0-1.5.4-1.5.4l-.9-1.7-1.2-.4-.3-1.1,2.9-2.9.6.2-.6-.7.7-.9-.4-1.1,1.1,1,.8-.8.3,1h1.9c0-.1.8-1,.8-1l-.2-1.2.9.2,1.8-1.9h1.7s-.3.7-.3.7l.6.3,1.8,4.7-.4,2-1.3,1.8,1.7,2.2.8-.2,1.5,1.1v1.7c0,0,2.3,3.1,2.3,3.1l1.4.6.3,2-.9,1,.4,1.4-.7,1.4-3.7,1.6-.9,1v1.5s-2.1.5-2.1.5l-1.2,1.5v.9c.1,0,1.2-1.1,1.2-1.1l1.1.5,2.3-1.4.7.2.6,1.4v1.1s-1.7,1.9-1.7,1.9l-4.2,3-1.3,3.5-1.9,1.2v1l.5-.8,2.5-.7.5-1,.9.9,2.1-3.9,4.2-3.9.9.5.8-.6.3-2.1h1.3c0,0,1-.7,1-.7l.3.5,1.7-.2.7-.9-.9-3.4-1.6-1.8v-1.5c.1,0,1.7-2.5,1.7-2.5l-.3-2.2h-.9c0-.1-1-2.4-1-2.4l-1.2-.7-1.3-3-2.6-1.4,1.1-.9-.7-.6.9-2.8,1.3-1.3-1.1-1.2,1.5-1,.3-1.1v-.8s-1.2-1.3-1.2-1.3l.4-.7,1.3-.5,2.6,1.1.3-1.9,1.1.8v1l1.6.4-.4-1,1.1-.6h2.6s.6-3,.6-3l.9-.3,2,.7.8,1.3.8-.2.6,1.3-.7.7-2.5-.3v.9s2.3,0,2.3,0l2.2,1.4,1.2-.9.5.7,1.4-.2-1.6-1.5,1.2-.7-1.9.2-4-2.5-.3-1.8-1.4-1,.3-3.5-1.8-.2-1.4-1.9h-.6s2.1-1,2.1-1l.5.5Z"/>
    <path id="IE-D" d="M396.5,259.6l.4-.2,1.1,2.3-.3-5.4-6-2.7,3.5-.3.5-.9,1.3.9-1.1,1.9,1.4-.8.6-2.1,1.7-2-.8-.3-.6-1.8h-1c0,0,.7,1.3.7,1.3h-2.9s-.4-.7-.4-.7l2.9-1.1,1.2.4,2.5-1.2-.9-1.3.7-1.2-.5-.4.5-.4-.3-1.8-1-.8v-2.3c-.1,0-3.7-.2-3.7-.2l-1.3-2.5-1.7-1.5v-1.4c0,0-1.9-.4-1.9-.4h0l-1.2.6-.7-.8-1.4.4-1,2.2v2.1s-2.7,1.5-2.7,1.5l-.8,1.2h-2.1c0,.1,0-.5,0-.5l-1-.7-2.2-.7v1.3c.1,0-2.5,1.8-2.5,1.8l-.8,2.9.8.3,1,1.9,3.1,1.4v1c0,0,1.6.9,1.6.9l.5,2.6-1.2,1.7v2.3s-2.6,1.1-2.6,1.1l-1.8-.2-.6,2.9-2.7,3.5h0l-1.6,3.2-1,.4-.7,4.8-1.4-.3-1,.9.2.5-.7.6.9.7v1.5c0,0-1.4,1.2-1.4,1.2l2.2,2,.7-.2-2.1,1.4.2.7h1.1c0,0,3.4,1.3,3.4,1.3l-.2.4h0l.8.9.8-.6h2.4c0,0,1.3,2.6,1.3,2.6l2.2-.6v2.8c0,0,2.8,1.8,2.8,1.8l1.7-2v-3.3c.1,0,.8-.4.8-.4l4.5,2.8,2.3-1,.2-.8,1.9-.4,1.5,2,2,.5,2.5-1.6h0l-.6-5.9,1.5-1.4-1-1.9-1.7-.6.2-1.4-.4,1.1-.9-.6.5-.6-1.4,1-3.7-2.5-.6-2.3,2.6-.4v-.5c0,0-4.5-.5-4.5-.5h3.2c0,0-.3-.8-.3-.8l-2.5-.6.5-.5,2.7.6,2.5-2.7,2-1.1,2,.4.4,1.6,1,1h2.4c0,0,.7-2.4.7-2.4l-1.6-1.6-.7.5-3.1-.4-1.8-3.1ZM406.8,250.2l-.6,1.4-1.8-.8.4-1.1,2,.6ZM397.2,264.2h1c0,0-2.9,1.9-2.9,1.9l-1,1.4-.5-.4,1.4-1.9,2-1Z"/>
    <path id="IE-G" d="M144.5,303.3h1c0,.1.4,1.2.4,1.2l-1.7,1.2-2.1-.4.8-1.9h1.7ZM140.8,298.9l.6,1.9-1.1,1.7-2.6.7v-2c0,0,1.2-1.9,1.2-1.9l1.9-.4ZM125.4,293.2h1.3c0,.1.7,2.1.7,2.1l3.6-1.3,1.3,1.1,2.2.2-1.5,2.1,1.3,1.1.6-.3-.2.7.7.3.4-.4-.5-.2,1.1-.6-.5,2.6-1.8-.3-2.2-1.9h-1.4s-3.6-2.1-3.6-2.1l-5.2-1.7,1.5-1.5,2.2.3ZM185,287.4l-.4-.4,1.3.4-3.1.5,1.3-1.1.9.6ZM182.2,283.6l-1.4,1,1.1.4-2.1-.7,2.4-.8ZM127.7,281.7h-1c0,0,0-.4,0-.4l.7-.2.3.6ZM129.2,280.8l.5.3v2.2c-.1,0-1-.6-1-.6l-1.8.5v-.7c0,0,1.4-.3,1.4-.3l-.3-1.4h1.2ZM127.7,279.2l.6,1.5-.6-.3v-1.3ZM127.3,279.5h-.5c0,0,.3-1,.3-1l.2,1ZM130.3,276.9l.8.5-1.1.5-.5-1.1.4-.4.3.5ZM134.5,276.5l.4,1.1-1-.2,1.5,2.5-.4,3.2-1.4.6-1.1-.3.2-.4-1.6.5-1.2-2.2,1.1-1.1-1.1-.2-.4-1.2,3-.9v-1.2s2.1-.3,2.1-.3ZM137.4,276.3l-.4,1.1-.3-1h.7ZM138.3,276.3h-.5s.4-.6.4-.6v.6ZM123.1,274.3l.3.4-1.3,1.1,1.1-1.6ZM133.2,273.7l1.4.7,1.2-.6.5.9-1.8,1.2h-2.3c0-.1-.3,1-.3,1l-1.3-.7v-.4c-.1,0,1,.4,1,.4l.3-.4-1.6-.9.5-.8,1.5-.7.9.5ZM136.2,272.9l.5.2-.6.4v-.6c-.1,0-1.3,0-1.3,0l1.1-1.1.3,1.1ZM139.4,268.6v1c-.1,0-.5-1-.5-1h.5ZM133.2,267.7l.5.4-.8.2.3-.5ZM134.6,267.4l.2.6-.9.2.8-.7ZM114.2,264.8l.4.4-.7.7.3-1.1ZM116.4,260.3v.8c.1,0-.5.4-.5.4l1.3,1-1.1.3.9,1.5-.5.6-.9-.6.4-1.7-.6-1.9.5-.9.5.5ZM97.6,248.9l1,.5h-1.7c0,0,.7-.5.7-.5ZM97.5,247.5l.4.3-1.1.5v-.7c0,0,.7,0,.7,0ZM97.4,245.6v.5c.1,0-1.3.4-1.3.4l-.3-.4.5-.4-1.1-.8,1.5-.3.7,1ZM87.6,234.5l1.6,1.6-1.8-.2-1,.7,1.2-2.1ZM94.2,232.4l1.2.4-.7,1.2,1,.5-1.3,1.4-1.2-.3.3-.5-2,.2-1.9-1.3.9-1.1.3,1.1.8.3.7-1.4,1.2.6v-1.1s.9,0,.9,0ZM197.1,228.3l1.5,1.3,1.5-.9,2.7.2,1-1,.5.7,4.4-1.3,1.5-1.3-.2-1.1.7-1.2,3.8-.6.8-1.1h3.1s1,.7,1,.7l3.7-.3,2,1.7-1.3.4,2.3,3.3,4.7,2.4-.3,1.5-1.1.2h0l-1,.5h0l-1,1.2h1.6c0-.1.6,1.1.6,1.1v1.8c-.1,0,1.9.4,1.9.4l1.1,1.5v1.2s2.4,0,2.4,0l1.7,1.5-.2.5-.8-.5-.7.7,1.6,2.8-.5,1,1.1.9-.9.7-.2,1.1,1.3,1.8-.5.9.7,1-1.1,1,3.6,3.3-.4,1-1.5.8.5,2.3h1.3c0,.1,1.1,2.2,1.1,2.2l-1.3,3.6,1.1,1.3v.9c0,0,1.2.6,1.2.6l1-.4.8,1.6-.4,3.4,1.2,2.4,1.7.3.8,1,.9-.3,5.8,1h0l1.9,1.2.2,1.3,1.5.2,2.4,2,.4,2.6-1.6,2.6h-3.5c0-.1-1.7.7-1.7.7l-1.7,2.8h0l-3.5,1-2.4,3-.7,2.4-3.6,5.6-3.4,1.5-1,4.7-1.6,1.3-1.2,3h0l-1.8-.2-1.6,1.9-.6-.9-2.3-.8-1.1-1.2-1.2,1.9-1.4.9-2.4-2-1.5.6-.5-3.1-1.3-.7-.3-1.2h-1.6c0,.1-.5-2.3-.5-2.3l-4.9.8-.8-.8-2.4.2-2.3,1.7h-1.6c0,.1-1.7,3-1.7,3l-2.6,1.7-.5,1.9-3.2-.8-.5-1.1-1.2.5.3.7-.7,1.1-.5-1.1-1.6.3-1-3-.2-1.1,1.1-.9-1.2-2.5.4-3.2-2.1-.5-1.5-1.9-5.1-2.5-1.4-3.3.4-1,1.3-.4h0v-1.1c.1,0,1.3.6,1.3.6l-.7-1.4-.7.6v-.8c.1,0-.4.4-.4.4l-2.1-.7-.4-.7-2.2,1-.7-.8.5-.6,1.4.5,2.8-.8,2.4.2,1.7-1v1.2c.1,0-1.6.7-1.6.7l2.8.6-.3.4,1.6,1.6,1-.6h-1c0-.1-.3-2.4-.3-2.4l-1-.9.5-.6h-.6c0,0,.4-1.2.4-1.2l.6.2-.3-1,1.1-.5-1.8.6,1.8-1,.4-1h1.1c0-.1.9-1.4.9-1.4l-.8-.2-1.3,1.1-1.6.4h-3.3c0-.1,1.6.8,1.6.8l-3.4-1.4h3.1l-1.4-.5,1.1-.7-1.9.4.5-.3-.4-.2,4.3-1.7-4.7.6,3.1-.8.2-.6-2.1-.2,1-1.1,2.9-.3-.7-.4.9-1.3-2.7.3-.4.6.5.3h-1.7c0,0,0-1,0-1l-1.8.5v-.5c-.1,0-1.9.3-1.9.3v-.5s-.9,1.1-.9,1.1l-3.7,1-.6.8v-1.3c.1,0-1.3.4-1.3.4l.4.6.6-.2-.2.4-3.3.5h-4.1c0,0-.5-.4-.5-.4l-8.1,1.3-2.2-.4-2.9,1.1h-3.7c0,0-1.1.9-1.1.9l-1.6-.4-.3.6-2.3.4-2.3-2.1.2-.7h.7c0,.1-.5-.3-.5-.3v-1.9c.1,0-.6,1.3-.6,1.3l-.7-1.5,2.2-1.9-1-1.6-1,.6,1.1.6-1.7.3-.7,1,.7,1.3-1.2,3.3-.3-.8-1.5,1.1-.9-.8-.4-1.5.7-1.8,1.8-1.8-.5-1.1.6-.2-.3-.7-.8.2v-2.2c0,0-1.1-.8-1.1-.8l.3-1,2.3-.4,1.1,1.5-.5-1.4,1.1-.7-.5-.8.4-.7.2,2.8,1,1.3.2-1-.4.3-.6-1.1,1.2-2.3-1.8-.8-.4.6v-1.2s-.4.6-.4.6l-1-1.4.3-1.1,1.5-.6,1.4-.3.6.6-.6-1h-1.5c0,0,.5-1.2.5-1.2l1.4.2-1-.6,1.4-.9-2.4,1v1s-.7.1-.7.1l.6.2v.8s-.9-.3-.9-.3l-.9.6-.3-.8-.5.5.9,1.5-.5,2.3h-.6c0-.1,1.2.4,1.2.4l.2,1.1-3.5.7-1.7-1.1,1-.4.8.4,1.4-.9h-1.6c0-.1-.2-.8-.2-.8l1.5-1.1-.8-1.4h1.1c0,0-.4-1-.4-1l-1.5,1.1,1.1-2-1.7.2.7-.8-1.2-.2-.3.4h.8c0,0,0,1,0,1l-.7,1.5-.9.4-1.3-.7v.4c-.1,0,1.1.4,1.1.4l-1.2,1h-1.3c0,0,1.1.7,1.1.7l-1.7,3.1-1.1.7.2,1.7-3.1.8v1.2s-.3-1.3-.3-1.3l-.5.3-.4-.8-1.6-.3-.3-1.7v1.6c-.1,0-.8-.5-.8-.5l-.6.9-.5-.6-.8.6.6.2.2,2.1-.7-.4v-1.1s-1.8-.6-1.8-.6l1.5-1.2,1.5.3-.3-1.5-1.1.5v-.8c-.1,0-1.1-.6-1.1-.6l.3,1.9-.5.3-.3-.5-.3.6-.4-1.3-.8.5-.7-.7.5-1.9h1v-1.2c-.1,0,.6-.5.6-.5l-.2-.6-1.2.5.6-.8-.4-.6,3.9-1.2.4-.7,1.1.9.9-1.7,1.7-.8-.6-.4-.4.4v-.6s1.2-1.1,1.2-1.1l-2.1.6-.7-.7.3-.6h1.5c0-.1-.1-.7-.1-.7h-1.9s-1.5,1.3-1.5,1.3l-.4,1.5v-1s-.6-.2-.6-.2l-.6,1.9-1.1-.7-.3-2.4,1.2-.7.9.4-.3-.6h.9c0,0-.4-.5-.4-.5l.4-.4.8.7.8-.6-2.4-.9-.3,1.3-1.9.8-.6-.7.5-.5h-.7c0,.1-1.2,1.3-1.2,1.3l-.2,3.4-1.8,1.2-.9-.4-.7.8.8.6-.5.3-1.3-.6.9-.7-.4-.6-3.1.5-1.5-.6-.5-2.9-1.8-.8-1.2-1.4-.6,2.2v-.8h-1s-.5.6-.5.6l-.5-.6-.6,1.6-2.2-2.5-2.2,1.7-.3-.8,2.3-3.6h.4s-.2,1.4-.2,1.4l.6.5-.3-1.5.8-2.1,2.7.8.8,1.6.4-.2-.6-1,1.2,1,1.2-2.5,1.6-.3-2.2-.4-.7-.4h.7s-.3-.4-.3-.4l-1.6.3.8-.8-1.4-.8.9-.8.6-.2,4.6,2.8-.4-1.1-.8.3-.9-.8,1.6-1-2,.2-2.8-1.3h-1.3c0,.1-1.4-.7-1.4-.7v-.4c0,0,1.1.4,1.1.4l-.4-.5-1.5-.3-.2-.7,2.5.4-2.3-1.1,2.1.2,2.6,1.2-.7.3,1.6.4,1.4-.3v-.6c-.1,0-.8.3-.8.3l-6-1.7-.9-2.5-2.4.4-1.6-.6.7-.7v-.7c-.1,0,1.8-.8,1.8-.8l.8,1.1.2-1.6,1.2,1,.8-.4,2.5,1.1-2.9-2.5v-.4c0,0,.8.4.8.4l1.2-.5.6.5,1.4-.2.8.9,1.3-.6,2.4.6.2.6-.7.5,1.2,1.6,1.8-.2-.7-.5.7-.8.8.8,1.1-.2-1.7-1-1.5.5v-.7s.6.4.6.4l.4-.7,1,.4-.4-.8,1.1-.5-4.5-.9-1.6-2-.3-2,2.1.5,1.8-.5,2.3,1.3,3.5.3,1-1.1h1.1c0,.1-.8-.3-.8-.3v-.6c.1,0,2-.3,2-.3l1.9.8-2.3-1.9.6.2v-.5h0l7,3.7,5.8-.3,2.5-1.6,1.4,1.5,2.9-.6,2.3.8,1.5-1.6,1,3.7,2.2.4,2.6,2.1,4.5-.2,4.4-1.1,1,1.1-.3,2.4,1.8.5,1.6-2.1v1.3s1.1.3,1.1.3l.9,3.6,3.1,2.1v2.2s3.8.9,3.8.9l1.9-1.3,1.7.7,1.4-1.9h1.2c0,.1.5-2.6.5-2.6l4.3-2.7.6-1.6-1.3-3.7,2.9-.7-.8-1.6,1.3-.8.5.7,1-1.1-.5-1.7.8-.9.2-2-.5-.4.6-1.1h1c0,0,.9-1,.9-1l3.2,2.4v-1.2c0,0,4.3-.1,4.3-.1l2.1-1.8Z"/>
    <path id="IE-KE" d="M326.2,264.2l.6-2,3-1.6,2.1-3.3,3.1-1.8,1.2,1.2,2.4-.8.2,1.3,1.6,1.3.8,1.6,5.1,2,1.6-2.6,3.2-1.4,4.5,2.2,2.9,2.3,5.8.9,1.5-2.2,4.2,2.7.9-.8h2c0,0-1.6,3.3-1.6,3.3l-1,.4-.7,4.8-1.4-.3-1,.9.2.5-.7.6.9.7v1.5c0,0-1.4,1.2-1.4,1.2l2.2,2,.7-.2-2.1,1.4.2.7h1.1c0,0,3.4,1.3,3.4,1.3l-.2.4h0l-2.5,2.5.7,1.2-1.6,2.3-1.3-.3-1.4.9v1.1c-.1,0,1.3.9,1.3.9l-2.5,2v2.1c0,0-2.8,3.9-2.8,3.9l-1.1-.3-.3,1.5-2.3.5-.3.7-5,2.2-.4,3.2-1.4,1.9-1.5.6.7,1.3-1.6,1.2-.2,1.9,4.1,5.1v3.4h0l-.8.4-.2,2.8h-1c0,0-1.9,2.9-1.9,2.9l-2.6-.8-1.6,1.5-1.7-2-.6.2.6,1.7-.8.4-1.8-1.2-1.3-2.2h-.7c0,0-.5,1.1-.5,1.1h0l.2-4.8-3.3-7.7-3.1,1.6v-1.2c.1,0-2.8-.7-2.8-.7l-2.3-2.4,1.6-4.2,1.4-.7-.8-1.1.8-1-.3-1.2.6-.8-.8-3.7-1.2-.8-.9-2.6-1.2-.7.7-1.5-.5-1.3h1c0,.1.9,1.2.9,1.2l.6-2.2-1.2-.7-1.7.5-1.5-1.6-3.1-.6,1.3-.8,3.7.6,4.7-.5v-2c-.1,0,1.8-1.3,1.8-1.3l-1.5-1.1-1.1.3-1.9-.8v-.5s1.6-.1,1.6-.1v-1c0,0,2.3-1.2,2.3-1.2l-1-3.1,3.1-.9-1.5-1.3,2.6-1.5-.9-1.6-2.6-1.2v-1.3c0,0-1.4-1.9-1.4-1.9l-1.2.4-2-1.7.3-1.9Z"/>
    <path id="IE-KK" d="M282.1,338.5l1.7-1h2.7c0,0,0-2.2,0-2.2l2.6-2.4,1.5,2.3,1.7.6v-.8s.6,0,.6,0l.9,1.4,1.2-.3,1.6,1.9,2.1-.4,1.5-1.8,2.1.9.8-2.8,1.2-1.4.9.3v1.8c.1,0,.9-.1.9-.1l.2-2,1.6-3.8,1.2-.7,3.7,2.3,1.2-1.9-.2-1.7h2c0,.1,2-1.9,2-1.9l1.9,1.3.5,1.3.8-.5.6.7v2.6c0,0,1.5,2.8,1.5,2.8l1.8.2.4.9,1.2.4,1,2.8h0l-2.1,2,.2,2.3-1.2,1.3.9,1.5-1.2,1h1.9s1,2,1,2l1.2.6,1-1.1,2.5,2.4.7,2.4,1.3.8-.7,1.3.3,1.8-.5,1.3.8.9-.4.7,1,1.8,1.5.5,2.3,2.8.2,2.1-3.2,2.9,1.8,1.2-.4,3.3,1.6,2.9-1.2,1,1.3.4h0l-.8,2.5.8,1.8-.8.9-1.5-.7-.9.4,1.4,1.1v1.2c0,0-1.7,2.9-1.7,2.9v1.4c0,0-1.6,0-1.6,0l-.5.9.4,4.7-2.1,3.2,1.4,2.5h0l-1.7.5-1.5,1.7-3.7.6-.8-1.6-2.2-.4-2.2-1.3-3.3,3.8-1.1.5-1.6-2.3-1.9-.7-1.5-3.6-1-.7-.3-1.6-1.4-1.7-3.6-1.5h0l-1.9-2.7,1-7.1-2-1.3-1-2.1-3.1-2.7,3.3-4.6-.8-.9-1.3.8v-.9c.1,0-.5-.5-.5-.5l.3-7.1-1.9-1.9.2-2.7-3.3-4.5-1.2-3,.4-.9-1.3-2-4.3-2.2-1.5-1.6h-1.5c0,.1-.2-1.3-.2-1.3l-1.3-1.4-.4-3.2Z"/>
    <path id="IE-KY" d="M90.5,465.7l.5.2-.7,1h-1.3c0,0,.3-.9.3-.9l1.2-.3ZM124.5,454.2l-1.6,1.5v-.9c.1,0,1.6-.6,1.6-.6ZM78.8,453.1l-1.1,1,.8-1.3.3.4ZM83,442.1l1.1.5.8-.8.3,1.1,2.1-.3v1.3c-.1,0-4.9,3-4.9,3l-1.9.5-.8-.7-2.7,1.5,1.4-3.8,2.4-.3,1.9-1.4v-1.1c-.1,0,.3.4.3.4ZM86.5,441.3l.8.2-1.1.6-1-.5.3-.6,1,.4ZM63.4,427.9l1,.7-1.6-.7h.6ZM70.4,420.4l.7.8-.6,1.1-4.6,2.8.9-1.6,2.8-1.8.8-1.2ZM66.2,417.7l-.4,1.1h-1c0-.1,1.3-1.6,1.3-1.6v.5ZM156.1,363.9l.6.7h0l.3.8h1.2c0,0-.8.9-.8.9l.4.7-.5,1,1.4,1.8,1.8.6.6,3.2-1.4.3-.4,2.6h-1.5c0,0,1.1,3.6,1.1,3.6l1.7,1.2-1.6,1.2-.9,1.9,2.6,2.6-.7,1.3-2,.8-.3,1.1,2,1.3,1.6,2.1,4.3,1.5,1.6,2.7h0l.5,1-.4,1-2.4.3v1.5c.1,0-1.8,1.2-1.8,1.2l-.2,3.1,1.7,2.4.5,3.2,1,.9-.4,3.5.9,2.4-.2.8,1.3,1.8v1.4c0,0,2.2,1.3,2.2,1.3l-.6,1.2-1.2.4-1,2.5.9,3.2,2.1-.4,1.3,2.7,2.5-.2.6,1.3-1.2,1.5-1.4-.5-2.8.4-1.4.9-3.2.7-.6,1.3-3.1,1.6.2,2.6,1.2,1.3-.4,1.2,1.3,1-2,2v.9s-1.8,1.8-1.8,1.8l-.4,1.3-1.4.4-.8,1-1.9-.2-1.4,1.3h-2.3c0,0-.8,3-.8,3l-1.2.8-4.6.9-1.4-.5-1,.5-.8-.4-1,.7-3.1-.2-2.7,2.8-.8,1.9-4.2,1-2.7,2.3v.9s-2.2,2.2-2.2,2.2l-2.3.6-.9-.7.7-2.7-1.5-.7.7-1.1-1.6-2.2h0l.8-.8-.7-.9.8-1.4.8.8-.8.7,2.5-.5-.7.9,1.6-.6h.6c0,0-.9.9-.9.9l1.8-.5-.6-.8.5-.2-2.8-.9-.4-.7,3.6-1.6v-1.3c-.1,0,2.3-1.3,2.3-1.3l.9-1.7,6.6-1.3,1.5-1.6,4.6-1.9,1.1-1.5-2.9,1.6-3.3.8-1.7-.6-6.6,2.8-.3-.5-.5.9-5.9,2.5-1.1,1.4,1.3-1.2-.3,1-1.6,1-.5-.2v-.9c.1,0-1.3.3-1.3.3l-.3-.5-1.1.6v-1.3c0,0-.7-1.3-.7-1.3l.2,3.1-.5.5-3.1.4-4.8,3.6-1.8-.5-.6.7-.5-.3-1.2.8h.9c0-.1,0,.6,0,.6l-3.2.5v.9c-.1,0-1.7.4-1.7.4l-.6.8-.8-.4,2-2.6-.7.9-1.6-.2-.5-.8-1,.5-2.7-1.8-1.1.3-.6-.5v-.5s1.6.1,1.6.1l1.5-.8.7-2.1-.5-.4.3-2.3-2.3-2.3-3.1.5-1.9,2.5v1.4c-.1,0,.8.4.8.4l-1.9.5v-.7c0,0-1.5,1.6-1.5,1.6l-2.6,1.4-.9-1.8,1.5-.8-.4-1,.6-1.1-.5-.3.2-2.5-4.6.3,1-1.9-.5-.4.2-1.1-.8-.6.5-1h3c0,0,2.9-1.4,2.9-1.4l1.2.3,1.6-2.2,1.8,1.7v-1.4s-.6-.4-.6-.4l.4-.7-2-1.2,4.9-3.2.7.5,1.5-1.5-2.2.5-1.2,1.2-2,.5-.4-.6-.8,1.5-.8-.8.3-.6-3-.2.2-.7,2.7-1.4,1.2.6.5-3.2,2.4-.6.9,1,.7-1.8,3.6-1.6,1.5-1.5,1.4.3.9-.5.5.5,2.5-1.7,2.9.2,3.8-2v-3.2c.1,0,.7-1,.7-1h.7s-.9.8-.9.8l.4,1.5h-.5c0,0-.4,1.9-.4,1.9l3-2.9.2,1.4,1.3.2-1.5-2.3,2.3-3.2.3-3.3v1c.1,0,.7-.2.7-.2l-.3,2.8,3-.9.5.6v-1c0,0,.8-.8.8-.8l1.1.2.5.8.2-1.6,2.1.4-1-1,.4-2.1-.6-1.2-1,1.3-.7-1-11.1,2.3,1.6,1.1.5,2,.9.6-.4.7-1.3-.8-2.3-3.8-4.6.8-3.3,1.8-.9-.4-1.2,1.3-1.2.3h-.6c0,0,.5-.8.5-.8l-1.3-.4-2.7,1.8-1.2-1.8-1,.6h-2c0,0-1.7-2.7-1.7-2.7l-1.1-.3v.6c0,0-1,0-1,0l-.9,1.1,3.4.6v1.1s-1.9.4-1.9.4l-2.4-.5-.2-.9-2.5-1.2-1.3,1.6,2.3,1.3h-2.9c0,0-4.8,1.4-4.8,1.4l-.5-1.3h-1.4c0-.1,1.4-1.7,1.4-1.7l-.8-1.2.4-1.6-.9-.6,1.2-.5v-1.1s1.6-1.3,1.6-1.3h-1.3c0,0,.2-.7.2-.7l-1.3-.2,4.8-3.4.4.5-.8,2.5,2.1.3,1.2,1.2.4-1.8-.9-.6v-.8s1.6-1.9,1.6-1.9l-1.3-.8.7-1.7,2.8-.4,2-1.2.5-1.5,1.8-.2,1.3-1.7,1.8-.5,1.3.6.3-1.3,2.3-.9,1.5.3-.5,2.9,1,.3-2.4,3.8,1.6-.9,1.5.4.4-1.1,3.7-.6,3.7-4.1v-1.6s-1.6-1.7-1.6-1.7l1.7-.2.7.9.7-1.4.7.8-.7.8-.5,4.2,1.6,2,3.3,2.3,2.3-.3,2.1.6,2.5-.8,1.9-2.6,1.4-.4.6.2-2.1,1.1,1,.8h1.6c0,0,1.7-1.1,1.7-1.1l1.6.8v-.6c-.1,0,.4-.1.4-.1l.4.6-.2-.9,1-.5-2.7-1.9-2.8.4-2.7-1.1-2,.6v-1.2c0,0-1-1.5-1-1.5l.3-.6.6-.2,1,1-.8,1.1.2.8,1-1.2,1.6-.3.7-1.1-2.7.4-.3-.5,1.1-.8h.9c0,.1.2-.6.2-.6l.9.3.2-1.2-.8-.5-1,2-.2-.4,1.1-3.2v-5.4c.1,0-.5-.8-.5-.8l-5.4-.7-1.8-.9-.7-.9.3-1.3,2.6-1.4,3.5.8,2.7-.9,2.2-1.5,1.9-.3,3-3.2,3-1,1-3.7-.5-1.3.7-.4-.6-.4.7-.2.2-.9-.8-1.1,3.5-3.2,1.1-.5,4.9.8.7,1.1.8-1.1h1.3c0,0,1.8,1.4,1.8,1.4l1.8-.2,1-1.8h4.2l.6-1,1.8.5v.6Z"/>
    <path id="IE-LD" d="M264,207.2l.3,1.9,2.1-.5v1c-.1,0,1.1.6,1.1.6l-.5.5.7.5.5-3.1h.6s1.2,2.3,1.2,2.3l1.2-1.1,2.4.4,1.3-3.9-.4-2.3h1.4c0,0,.7-1.7.7-1.7l.8.5.6-.4,1.4-2.6,1.5-.7v-1.6s1.6-.3,1.6-.3l1.6-2.7,2.1.8.7-.3h0l2.2,3,.4,1.5.2-.6,1.2.2.5,1.4-.4,1.9-1.1-.3-.9,3.7,2.9-.4,1.3-1.2,3.6,1.2.9,4.4-.7.8,1,1.3,3.6,1.6.4,1.7h0l1.8.5.5,1-.6,3.6h-1.3c0,0-.9,1.4-.9,1.4l-1.2-1.2-2,.6-.3,1.7h-.8c0,0-1.6,2-1.6,2l-1.6-1,.3,1.1h-1.3s-.5,1.6-.5,1.6l.4,1.3h-1.1c0,0-.5.8-.5.8l-1.3-.2-.5,1.6.6,1.5-2.2-1.3h-1.1c0,0-.3,1-.3,1l3.1,1.4.9,3.1-1.9-.3-1.3.6v1.8c.1,0-1.8.7-1.8.7l-.5,1.7-2,2.2v3.1c0,0-1.1.5-1.1.5l-2.3-1-1.1,1.3h-1.5c0,0-1-1-1-1l-3.2-.4-1.6-.9-1.2.5-1.7-1.2-4.3.7-2,2.2-1.9.5h0l-.9-3.5-4.1-7.2v-4.3s1.1-2,1.1-2l2.7-2.7v-2.5c0,0,1.6-1.4,1.6-1.4h1s.4-3.4.4-3.4l2,.5v-1.5c.1,0,2.3-1.5,2.3-1.5l.7-2.6-2.2-1.7-.7-5.4Z"/>
    <path id="IE-LH" d="M362.3,180.8l.8-1.4,2.4.6,1.9-.9,1.5.6.9-1.2,1.6-.4-.6-.7.4-.8,1.6.7,1.1,1.8,2.2-.6,1.9.4.5-1,1.3-.5v-5.2s1.7,0,1.7,0l.4,2.4.9.4,1.8-2.2h.8c0,0,1.5,1.2,1.5,1.2h0l1.8,2.9,3.5,2.3,1.2,2.3,2.4,1.6,1.4-.8.3,2.1,1.8,2.2-2.8,2.6-1.9.3-6.2-1.3-5.4-3.3-2.3.3-.9-2.4-.6.2.9,2h-2.1s0,.6,0,.6l3,.2.6,1.3-1.7,1.7v2.6c0,0-1.3,1.6-1.3,1.6l.5.8-.2,2.9.6,2.6,2.8,3h1.9c0,0,5,2.1,5,2.1l-1,1.6-.5,5,1.1,1.1,2.1.5-1.4,1.2-.7,2.7-.7,4,.7,1.3h0l-1.9-1.1-3.7,1.5-.2,1.4-1.5.3-5.4-2.5-1.5.7v.5c.1,0-2,.2-2,.2l-1.6-2.1,2.4-3.2-.3-1.1-1.1-.7-3.5.4-1.7-1.4h-.7c0,0-.1-2.3-.1-2.3l-2.1-.8v-2.5c-.1,0-1.5-1.9-1.5-1.9l.5-1-.8-1.8-1.8-2.3-2.3-.5-2.7-2.5h0l.8-1.3.9.4,1.8-.9,1-1.6-1.8-1.5.8-.9-1.1-1.1,1,.4-.7-1.5h1.5c0,.1-.2-1.2-.2-1.2l1.1-.2.7-1,2.4,1.5,1.5-.2.4-.6-.4-.5.8-1-.4-1.1.8-.8-.8-1.9-1.3-1.2.4-.6-1.8-1.4Z"/>
    <path id="IE-LK" d="M201.3,351.4l3.7.5,2.1-1.8h2.5c0,0,0,1.5,0,1.5l-2.7,1.5-.3,2,5,.3.9.8,1.7-1.4.7-2.6,2.3-1.4.4-2.2,2.1-1,.8-1.5-.4-3.6,2.2-1.3h0l.8,2.3.4,5.1,2.6,2.4,1.8-1.6,1.5,1.1,1.7.2,4.8-1.9,3.3,1.7v1.5s1.3.3,1.3.3l.4.8,1-1.1,2.1.3-.5,3.1-1.3,1.2-.5,3.1.6.3v1.2c-.1,0-1.8,1.9-1.8,1.9l.9,1.2-.7,1.2.6.8-.5,4.8-1.8.7-.3-1.2-.7.4-1.2-.6-.9,1.5-1.8.5.4,1.6-1,1.5-.5-.4.6-1.5-.7-.4v-1.5c0,0-1.6.1-1.6.1l-.4,1.7-2.1,1.3v1.7c.1,0-.9.9-.9.9l1.2,3.9,1.8-1.6,1.1,1.3,2.4-.6.6,2.4,1.8.5.2,1.9,3.7-1,.3,2.7,1.1,2.3.8-.4.8.7,2.1-.3-.2,2.6-1,1.7,1.3,1.5.5,2.2-2.1,1.5h0l-4.7-1.1-2.5,1.2-1-.9-1.4-3.2-1.2.5-.8-1.3-1.7,1v1.1c-.1,0-1.5.5-1.5.5l-.4,1.5-3.7.2-5.1,1.7-2.7-1.4-1.2-2h-2c0,0-2.3-3.9-2.3-3.9l-.7.2v-1.2c0,0-.5.4-.5.4l-2.1-.8-1-1.7v-2.4s-4.5,1.7-4.5,1.7l-3.3-1.8-1.1,1.6-.8-1.7-1.3.3-.6,1.6h-1.6c0,.1-.1,1.7-.1,1.7l-1.3.9-.5-.5-.9,1.9.5.7-7.7,2.5.7,2.2-.4.3-3.9-3.8-5.6-1.2-2.1-1.4-.3,1.3-2.5,1.8v.8c0,0-2.7.7-2.7.7l-.6,1.1h0l-1.6-2.7-4.3-1.5-1.5-2.1-2-1.3.3-1.1,2-.8.7-1.3-2.6-2.6.9-1.9,1.6-1.2-1.7-1.2-1.1-3.6h1.5c0,0,.4-2.6.4-2.6l1.4-.3-.6-3.2-1.8-.6-1.4-1.8.5-1-.4-.7.8-.9h-1.2c0,0-.3-.7-.3-.7h0l-.3-.2,2.7-.5,2.3.9,7.2-3.4,3.4-.9.6-.7h2.9c0,0,3.8-2.5,3.8-2.5l.5,1.6h.7c0,0,.6-.9.6-.9h1.4c0,0,.5,1.1.5,1.1l1.6-1.2v-1.4c0,0,.7-.2.7-.2l.8-2.3,10.9-1.6,1.4,1.9.8-1.4,2-.6-.3-.7.5-.2Z"/>
    <path id="IE-LM" d="M235.4,125.6l1.1.2h0l2.6,2h1.3s1.1-1.5,1.1-1.5l3.3,1.1h0l2.5,1.7-1.3,1.6,5,4.4,2.2,4.4,2.2,1.6,2.5-.2v1.2c0,0,3.8,5.4,3.8,5.4h0l-4,7.1-3-.4-1,1.5-.2.8,1.7,3-.9,1.7.2,1.7h1.8s.9-.7.9-.7l1.4,1.5,2.9.3,3.5,3,1.1,1.5-.3.9,3.1,2.1-.5.7,2.1,1.9h.8s.3-1.2.3-1.2l1.2-1.1.8,1,2.3.3,1.4,1.4.3,1.5,2-.3,1.9,2.9,1.8.7.3,1.8.8-.4.7.6-.8,1.2.3.8,1.9.9.4-1,1,.8.4,2.8-.5,1.3,1.3,1.4-1,1.1.4,1.5-1.6,2.4h0l-.7.3-2.1-.8-1.6,2.7-1.6.3v1.6s-1.5.7-1.5.7l-1.4,2.6-.6.4-.8-.5-.7,1.7h-1.4c0,0,.4,2.4.4,2.4l-1.3,3.9-2.4-.4-1.2,1.1-1.2-2.3h-.6s-.5,3.1-.5,3.1l-.7-.5.5-.6-1.2-.6v-1c.1,0-2,.5-2,.5l-.3-1.9h0l-.7-1.5h-1.1c0,0-1.6-2.2-1.6-2.2l-1.1.2v-3.2s-1-1.7-1-1.7v-2.5c0,0-1,.4-1,.4l-.6-1.7-1.1-.2-.2,1.5-2.4,1.7-.8-1.7-.9.4-.5-1.2.6-1.5-.6.2-1.6-1.8,3.5-4.4-.8-.4-.7-5.2.7-2.6.4.3.9-.7,1-1.8-.6-.8v-3.2c.1,0-3.6-.7-3.6-.7l-3-2-1.3,2h0l-1.3-2.3-.4.2-.9-1.2-.5.3-.8-.6-.6-1.9-2-.7-.6.8h-1.6s-3.5-2.7-3.5-2.7l.8-1.9-2.3-1,1.2-1.8-1.1-11.4-.7-1.4-2.5-1-.7-5.1,2.4-1.6,1.7-6.2-3.8-1,.2,1.2-.5.4-1.5.2-.6-.9,1.4-1.2.3-1.6,2.6-.8-.9-2h0l6-1.6Z"/>
    <path id="IE-LS" d="M277.8,316.8l2-3.4-.6-.5.3-2.4,1-2.4,3-1.5v-1.5c0,0,3.2-2.4,3.2-2.4l1.9-3.4v-.6c.1,0-1.9-.9-1.9-.9v-1c0,0-2.4-2.8-2.4-2.8l1-3.3,6.2-1.1,4-1.6.7-.8,1.9,1.1h2.1c0,0,.5-.8.5-.8l-.3-1.5,1.8-.8,1,.7.9-.9,1.4.7,2,2.6,1.3,2.2h-1.1c0,0,.3,1.6.3,1.6l2,2.8,2.9-.4.3-.6,1.4.4,1-1.2,2-.9,1.5-2.3.6,2h5.3s.5,1.3.5,1.3l-.7,1.5,1.2.7.9,2.6,1.2.8.8,3.7-.6.8.3,1.2-.8,1,.8,1.1-1.4.7-1.6,4.2,2.3,2.4,2.9.7v1.2c-.1,0,3-1.6,3-1.6l3.3,7.7-.2,4.8h0l.6,3.9-1.2.8.6,1.6-1,1.5-1,.8h-5.4c0,0-.5,1.5-.5,1.5l-1.3.4h0l-1-2.8-1.2-.4-.4-.9-1.8-.2-1.6-2.8v-2.6c0,0-.5-.7-.5-.7l-.8.5-.5-1.3-1.9-1.3-2,2h-2c0-.1.2,1.6.2,1.6l-1.2,1.9-3.7-2.3-1.2.7-1.6,3.8-.2,2h-.8c0,.1-.1-1.7-.1-1.7l-.9-.3-1.2,1.4-.8,2.8-2.1-.9-1.5,1.8-2.1.4-1.6-1.9-1.2.3-.9-1.4h-.6c0,0,0,.8,0,.8l-1.7-.6-1.5-2.3-2.6,2.4v2.2c0,0-2.7,0-2.7,0l-1.7,1h0l-1.5-5.8-1.7-1.1-1.2-2.4,1.1-.8-.3-3,.9-.4.3-1.5,2.3-1.4,1-2.4h-3c0,0-2-1.4-2-1.4l-.2-1.5Z"/>
    <path id="IE-MH" d="M350.1,196.9l1.4.6.6-.4,1.2,1.6h1.7c0,.1,2.7,2.7,2.7,2.7l2.3.5,1.8,2.3.8,1.8-.5,1,1.4,1.9v2.5c.1,0,2.2.8,2.2.8v2.3c.1,0,.8,0,.8,0l1.7,1.4,3.5-.4,1.1.7.3,1.1-2.4,3.2,1.6,2.1,2.2-.2v-.5c-.1,0,1.4-.7,1.4-.7l5.4,2.5,1.5-.3.2-1.4,3.7-1.5,1.9,1.1h0l.6,5.7,1.8,5.4h0l-1.2.6-.7-.8-1.4.4-1,2.2v2.1s-2.7,1.5-2.7,1.5l-.8,1.2h-2.1c0,.1,0-.5,0-.5l-1-.7-2.2-.7v1.3c.1,0-2.5,1.8-2.5,1.8l-.8,2.9.8.3,1,1.9,3.1,1.4v1c0,0,1.6.9,1.6.9l.5,2.6-1.2,1.7v2.3s-2.6,1.1-2.6,1.1l-1.8-.2-.6,2.9-2.7,3.5h-2c0,0-.9.7-.9.7l-4.2-2.7-1.5,2.2-5.8-.9-2.9-2.3-4.5-2.2-3.2,1.4-1.6,2.6-5.1-2-.8-1.6-1.6-1.3-.2-1.3-2.4.8-1.2-1.2-3.1,1.8-2.1,3.3-3,1.6-.6,2h0l-4.5-1.7v-1c0,0-3.6-2.4-3.6-2.4h0v-1.2c-.1,0,2.3-.6,2.3-.6l.7-1.4,2.3.5,4.2-2.9-.3-3.2,1.8-.7,1.5-2.7.3-2.7-1.1-1.2.2-1.7,1.1-1.3h2c0,0-.6-1-.6-1l1.2-2.3-.5-1.9,1.9-2,.5-2.6-1.3-.4-1.1-2.3-1-.2-.6,1.4-1.1-.5-.4,1.1-1.7.5-1.2,1.6-2.9-2.9-.9-1.9-1.2,1.3-1-1.4-3.4-.9-.7-1-.7.2-1.9-2.2.4-2.5-2.4-1.8-1.8-3.6-2-1.5-1.7-.2-.3-1.1h0l2.5-1.6,1.7,1.8.8,2.1,4.5,1.2v-1.7c.1,0,1.5-1.2,1.5-1.2l1.4.4,2-1.4,1.5,1.5h1.2c0,0,.6,1.9.6,1.9h4.7c0,0,3.2,1.3,3.2,1.3l.2-1.9.8.9,1.8-2.1,1.1,1.2,1.1-.5-.7-.5.3-1.5h1.1c0,0,.7-1,.7-1l-2.9-3.4-.2-1.2h-.8c0-.1-.6-3.1-.6-3.1l1.2.7,2.3-1.4-.7-2.1h1l3,2.2,2.7-.5.4-.5-.6-.6,1.8-1.6,1,.2-.5.8,1.6.7.8-3.2.3-.5.8.7.5-1.1Z"/>
    <path id="IE-MN" d="M308.4,171.6l.9-.2v-.6c0,0-.8-1.7-.8-1.7h-.7c0,0-.7-.9-.7-.9l2.2-2.9,1.3-.5.8.6-.4,1.7-1.1,1,1.1,1.1-1.7.7.7,1.3h1.3c0,0,.1-.9.1-.9l1.2-1-.2-1.2.7-1.8,1.3-1.2-1.1-1.7v-1.4c0,0,1.6-.2,1.6-.2l-.4-.7h-.9s.3-.7.3-.7h1.3s.2-.9.2-.9l1.8-.4,1-1.1,1.7.8,1.5-.7v-1.9s-.7-.7-.7-.7l.9-1.5-1.3-2.2h-1.2c0,0,.4-1.3.4-1.3l-2.7-1.4.9-2h1.2c0-.1.2-1.6.2-1.6l-.7-2,2.6.5,2.4-2.2,1.2-.2-.5-1.7,1.8-1.5,2.4-4,1.9-1.2,1.7,1,.2.8,1.3-.3,1.4,1,.5,1.1,2.2,1.2v.8c0,0,.7-.3.7-.3l.7.5.7,2.9,1.5.5,1.8,4.3.2,2.7-.6.5v1c.1,0-.4-.6-.4-.6l-.5.3.2.7,1.7,1.9.8-.2.8.7.9,4.5,1.1.4v.9s1.9,1.8,1.9,1.8l1.5.2,1.1,1.9h1.5c0,0,1.4-2.3,1.4-2.3l3.2,1.4,2.2,5-1.6,3.8-.8-.2,1.3,3.3-1.2.3.3,1.9-.6,1.9,1.3.4,1.8,2.8,1.7-.8h0l1.8,1.4-.4.6,1.3,1.2.8,1.9-.8.8.4,1.1-.8,1,.4.5-.4.6-1.5.2-2.4-1.5-.7,1-1.1.2.2,1.3h-1.5c0-.1.7,1.4.7,1.4l-1-.4,1.1,1.1-.8.9,1.8,1.5-1,1.6-1.8.9-.9-.4-.8,1.3h-1.7c0-.1-1.2-1.8-1.2-1.8l-.6.4-1.4-.6h0l-1.1-1.3-3.9-.5-2.7-6.9-2-3-2.4-.6-1.2-2.4-2-1-1.2-2.4-1.5-.5-.7-1.7-1.1-.4.6-2.2-2.3-.4-2.7,2.5-.8-1.3-1.9-.5-2.4,1.7-5.2-2.4-.7.5-1.1-.7.3,1.1h-1.4s-1.9-1.5-1.9-1.5h-2.2s-.3-1.5-.3-1.5Z"/>
    <path id="IE-MO" d="M102.2,222.6l.5.3-.8.6v1.1s-3.3.7-3.3.7l.8-2.5,2.8-.2ZM111.5,210.1l1.5.6-.5,1.1-1.7.8-6,.3.5-1.9,3.7-1.1,1.2-1.8,1.2,2ZM111.6,202.6l1.3.4v1.2c0,0-1.5-1-1.5-1l.3-.7ZM118.6,187.1l1,1.6-.4,1.2-1,.4.4-.9-.6-1.6h.6c0,0-.3-1-.3-1l.2.3ZM116.9,186.4v2c0,0-.3-.9-.3-.9l-1.6.7-.5-1.3,2.7-1-.3.5ZM111.6,183.8l2.5,3.2-2.2.7.6,1.1-.6,1.1.5,1.1-.5,1.6h-.6s1.6.5,1.6.5l-.7-.8,1.1-.9-.3-.6,1.8.5-.4,2.7-1,.6v.5c0,0,1.2,0,1.2,0l-1.3,1.2.6.6-1.8.7,1.1.2.4,1.3-.7,3.1h-1.3s-1.9-1.6-1.9-1.6l-1-1.1.6-.8-1.5-1.1-.3-1-1.3.7-1.3-.3.2-4.7.6-.6-1.9-1.8-3.5,1.4-.8-1.6-2,1-2.7-.5v1.1c0,0-3.5-2.3-3.5-2.3l-1.6.5,1.6-.9,2.1.2,1.7-2.1v-2.2c0,0,1.2,1,1.2,1l1.8-.2,1.1,1.3,2.3-.2.3-1.2,2.7-2,1.4.3,1.1,1.4,1-.6,1.9.4,1-2.2.9,1.2ZM93.3,171.9l-2.3,1.4,2-2.3.3,1ZM93.4,168h.6c0,0,1.2,2.3,1.2,2.3l-1.1-.3-.7.8v-2.8ZM172.3,160.2l.5.9h-.6c0,0-1-1.7-1-1.7l-2.7-1.2,3,1,.9,1ZM108.7,147.7l1.3.5-.3,1.5,1.3.2.7,2,1.4.4,1.4-.7.3,1.3.7.3,1.6-.8-.3,1.8-.8,1.9-1.6.7.8.7-2.5.2.2.8-1-.3-1.4-3.5h-.6s1.6,3.5,1.6,3.5l-3.8-.2.8,1.3h-1.6c0,.1,1.5,1.6,1.5,1.6l-.4,2.6-1.7-1.3h-1.2c0,.1,1,2,1,2l-.4,1.1-1.5-.3-.8,1-1.4.4v.7c.1,0,2.7,1.2,2.7,1.2l-1.4.8.7,2-1.4-.4-.6,1.5,1.9.6.4,1.3-.8,1.2-1.4.3-2.5-1.2-.5-1.5.8-.3-.3-2.4.5-1.9,1.1-1,1.1-3.2-.7-2.7,1.1-1.3h1.4c0,0,.6-2.1.6-2.1l-4-2.1h1.8s.6,1,.6,1h.9l-.7-1.4-1.7-.4,1-.2.4-1.8-.4-.6,2.5-1.1.2-.8,1.5.3.4-1.3,1,.3-.4-1.4.8-.5ZM124.7,143.1l.5-.2.3,1,1.2-.4,1.4,1.5h1.3c0-.1,2.7,1.2,2.7,1.2l1-.5.9.9,1.5-1.4.4.4,1.3-.6,1.4.7h2.7c0,0,0,1,0,1l.7.2,1.5-.8-.3.8,1.3.3,1.2-.5.2-.8.8.5.7-.3,2,1.4.4-.5,4.1.3v1.5c.1,0,.8.3.8.3l2.7-3.1v-1.1c0,0,1.7,1.4,1.7,1.4l4.4,1,1.1,1.6-.4,3.2h.7v-1h1.1l1-1.1.7,1.6-1.1,3.8-2.7,1.6v.8c0,0,1.2-1,1.2-1l.5.5,1.3-1.6,1.6-.2-.2,2.2-.7.5.4-1.1-1.2,1v1.6l4.4,1.6-.4,1.3,1.6.9.6,6.2.2-3.5h0l3,2.4,2.9-.2.4-1.5,1.4.2.4-1.1,2.3,1.6,4.5.8-.8.6.2.7,2,1.9-1.5,1.6-1.7.4.3,1.4-1,.7.3,1.6-3.3,2.1-.6,1v3.2c0,0,3.1,0,3.1,0l.7-.8,1.9,2.7h1.4s3-1.6,3-1.6l-.4,1.8.7,2.5h1.1c0,0,.9,1.9.9,1.9l4.1,1.2,1.2-1.2,1.9-.4,1.1-2.3,1.2.9.9-.4.7-1.8,1.7-.9-.2-2.3,2.5-1.2,1.4,1.7,3.4,1.7-.8,5.3.8,2h0l-1.2-.4v.8l-5.1-2.8-1.5,1.5.5,1.6.9.2-.8.4-.5,3.3,3.7,2.5-.4,1.3,1,.8-1,.8.2,1-.9.3-2-1.2-2.1.3.7,1.6-.2,1.3-1.9.4.8,2-.8.8.5,1-1.8.9,3.9,2,1.4,2.5-1,.8v1.9c0,0-1.2,2.3-1.2,2.3l.3,1.2-1.4.2v1.3c.1,0-3.1,1.6-3.1,1.6l-.2,1.1h-1.3c0,.1-1.2-.6-1.2-.6l-1.8,3.5h0l-2,1.8h-4.2c0,.1,0,1.3,0,1.3l-3.2-2.4-.9.9h-1c0,0-.6,1.2-.6,1.2l.5.4-.2,2-.8.9.5,1.7-1,1.1-.5-.7-1.3.8.8,1.6-2.9.7,1.3,3.7-.6,1.6-4.3,2.7-.5,2.7h-1.2c0-.1-1.4,1.8-1.4,1.8l-1.7-.7-1.9,1.3-3.8-.9v-2.2s-3.1-2.1-3.1-2.1l-.9-3.6-1.1-.3v-1.3s-1.7,2.1-1.7,2.1l-1.8-.5.3-2.4-1-1.1-4.4,1.1-4.5.2-2.6-2.1-2.2-.4-1-3.7-1.5,1.6-2.3-.8-2.9.6-1.4-1.5-2.5,1.6-5.8.3-7-3.7h0l-.5-.9.4-.5-1.1-.9.8-.4-2.6-.5-.2-.6.5-2.5-1-2.5,1.9-5.2-.3-1.4-.7-.4.3-1.3,6.2-.8,3-1.5h.8s.4.9.4.9l2,.2,5.8-1.7.2.7h1.3c0,0,0-.7,0-.7l1.7.2.5.4-.8.5,3-.3,1.5-2,1.4-.7-1.8-.8-.5.2.7.5-3.9-1-.6-.6,1.2-.2-1.4-.7,1.1-.2-.3-2.6,2.6-.4-1.5-.4.6-.3,2.8-.3-1.6-.7.3-.4h-2.1s1.5-.7,1.5-.7l-.4-.7.7-.4-.7-.2,2.1-.7-1.7-1-1.1.7.6-1-1.6,1.2-.7-.8-1.3.6.6-.9-1.8.6v.5c.1,0-.5-.5-.5-.5l.6-.6-.4-.4-.9,1.1-.8-1.2-3.1.6-1.7-.8v1c-.1,0-2.6-1.4-2.6-1.4l-.5.4.5.7h-1.1c0,.1-1.3,2.2-1.3,2.2l-4,1.7-2.8.5-1.5-1h-1.5c0,0,.1-.9.1-.9h1c0,0-.2-.8-.2-.8l.6-.7-.4-2.9,1.1-.6,1.1-2.1h-1.4c0,0,.3-1.3.3-1.3l.4.4.4-.5v-1.6c-.1,0,.8.9.8.9l.7-.9,3.4-.4.7,1.6,1.1.3,1-.6-.2,3-.9-.4.9,2.1.8.2.3-4.7h-.5c0,0,.1-1.2.1-1.2l-1-2.3-.2,1.5-1.5-.6-.8.8-.8-.6.3-3.5,1.6.7-2.1-3.1v1.4c.1,0-1.8-.6-1.8-.6l-.2-1.9-1-.4-.8-1.5v-1.2c-.1,0,1.1-.8,1.1-.8l-.3-2.4-2.5,1.3-1.5-.6-1.7.5.4-2.5-1.7-2.7,3.6-.9.8-1.3.8.9v-.7l1.8.3-1.3-.8v-1.1c-.1,0-1-.3-1-.3l-.4,1.2-2-2.1v-1.3c.1,0,2.2.8,2.2.8l.5-.9-1.6-.8-1.7-2.1-1.4-.5,1-.3,1.3,1.3,1.4-1,.3-1.6.8,1v-1.3s-2.2-.5-2.2-.5l-.2.5-2.6-2.4-.4-1.2,4.8,1.4,3.9-.7-.2-1.1-1.2-.3.7-.6,2.8,1.3-2.4-2.8.8-3.6,3.7-1.4,1,.6.2-1.9,1.5,1.2h1.1c0,0-1.7-1.7-1.7-1.7l-1.8.8-1.9-1.2-.4.7v-.9c0,0-1.2,0-1.2,0l.6-.6-.4-1.2.4-.8h1.4s2.1-2.2,2.1-2.2l1.1.3.3-.9v.5Z"/>
    <path id="IE-OY" d="M318.2,259.1l3.6,2.4v1c0,0,4.4,1.7,4.4,1.7h0l-.3,1.9,2,1.7,1.2-.4,1.5,1.9v1.3c0,0,2.5,1.2,2.5,1.2l.9,1.6-2.6,1.5,1.5,1.3-3.1.9,1,3.1-2.4,1.2v1c0,0-1.6.1-1.6.1v.5s1.9.8,1.9.8l1.1-.3,1.5,1.1-1.9,1.3v2c.1,0-4.6.5-4.6.5l-3.7-.6-1.3.8,3.1.6,1.5,1.6,1.7-.5,1.2.7-.6,2.2-.9-1.1h-1c0-.1-5.3-.1-5.3-.1l-.6-2-1.5,2.3-2,.9-1,1.2-1.4-.4-.3.6-2.9.4-2-2.8-.3-1.5h1.1c0,0-1.3-2.3-1.3-2.3l-2-2.6-1.4-.7-.9.9-1-.7-1.8.8.3,1.5-.5.8h-2.1c0,0-1.9-1.2-1.9-1.2l-.7.8-4,1.6-6.2,1.1-1,3.3,2.5,2.8v1c0,0,2,.9,2,.9v.6c-.1,0-2,3.4-2,3.4l-3.2,2.4v1.5c0,0-3,1.5-3,1.5l-1,2.4-.3,2.4.6.5-2,3.4h0l-3.2-1.6h-1.1c0,.1-1-1.1-1-1.1l-1.8.8v.9c0,0-1.4,1.4-1.4,1.4l-1.4-.2-.3,1.4,1.6,1.3-1.6,1.5.6.8-2.6,1.3.8,1-1,.6-1.5-.4.4,1.6-1.2.9-.7-1.4-1.6-.7,1,1.5.2,1.7-1.4,1.2-.3,1.1-1.4-.9-.7-1.3.8-1.6-4-1.2-.6-1.5.5-1.5-1-1.8.7-1.5,2.3,1.3h1.3c0-.1,1.5-2.4,1.5-2.4l-2.4-5.1,1.1-.9,3.2.3-1-2.1.6-2.7-.5-1.2,1.9-.4,1.2-7.2-4.3-3.7-7.7-4h0l1.7-2.8,1.7-.8h3.5c0,.1,1.6-2.4,1.6-2.4l-.4-2.6-2.4-2-1.5-.2-.2-1.3-1.9-1.2h0l.7-1.9,1-.9.4-3.2,2.1-.2,1.1-1.7,2.7-.5.7-2,1.2-.9h0l5.6,2.7,2.1-1.8.4.7,1.5-.3,1.7.8,3.7-1.5,1.1-.9-.6-.3.4-1.5.9-.2.3-1.3,2.1-1.2.2-.8.5.5,2.2-1.5,1.3.7.2,1.4,2.1.6-.3,1.1,1.1,1.6v2.8c.1,0,2.4,3.3,2.4,3.3l.7.2-.6-.8.4-1.9,2.5.5v1.5c0,0,1.7-.3,1.7-.3l1.2,1.6,2.2-2.1,2,.6,2.3-1.2,2-2.9,1.1-.4,3.7-4.1,4.3-.8.7-1.7,1.5-.4Z"/>
    <path id="IE-RN" d="M245.7,172.7l1.3-2,3,2,3.7.7v3.2c-.1,0,.5.8.5.8l-1,1.8-.9.7-.4-.3-.7,2.6.7,5.2.8.4-3.5,4.4,1.6,1.8.6-.2-.6,1.5.6,1.2.9-.4.8,1.6,2.4-1.7.2-1.5,1.1.2.6,1.7.9-.4v2.5c0,0,1.1,1.7,1.1,1.7v3.2s1.1-.2,1.1-.2l1.6,2.3h1.1c0,0,.7,1.5.7,1.5h0l.7,5.4,2.2,1.7-.7,2.6-2.2,1.5v1.5c-.1,0-2.2-.5-2.2-.5l-.4,3.4h-1s-1.7,1.5-1.7,1.5v2.5c0,0-2.7,2.7-2.7,2.7l-1.1,2v4.3s4.1,7.2,4.1,7.2l.9,3.5h0l1,4.8-.8,4.3.7,2.2-.9,1.3,2,1.2,1.4,2.4,1.1,2.8-.9.9h0l-1.2.9-.7,2-2.7.5-1.1,1.7-2.1.2-.4,3.2-1,.9-.7,1.9h0l-5.8-1-.9.3-.8-1-1.7-.3-1.2-2.4.4-3.4-.8-1.6-1,.4-1.3-.6v-.9c0,0-1-1.3-1-1.3l1.3-3.6-1.1-2.1h-1.3c0-.1-.5-2.4-.5-2.4l1.5-.8.4-1-3.6-3.3,1.1-1-.7-1,.5-.9-1.3-1.8.2-1.1.9-.7-1.1-.9.5-1-1.6-2.8.7-.7.8.5.2-.5-1.7-1.5h-2.4s0-1.1,0-1.1l-1.1-1.5-2-.4v-1.8c.1,0-.5-1.2-.5-1.2h-1.6c0,.1,1-1.1,1-1.1h0l1-.5h0l1.1-.2.3-1.5-4.7-2.4-2.4-3.3,1.3-.4-2-1.7-3.7.3-1-.7h-3.1s-.8,1.1-.8,1.1l-3.8.6-.7,1.2.2,1.1-1.5,1.3-4.4,1.3-.5-.7-1,1-2.7-.2-1.5.9-1.5-1.3h0l1.8-3.5,1.2.7h1.3c0-.1.2-1.3.2-1.3l3.2-1.6v-1.3c-.1,0,1.3-.2,1.3-.2l-.3-1.2,1.3-2.3v-1.9c0,0,.9-.8.9-.8l-1.4-2.5-3.9-2,1.8-.9-.5-1,.8-.8-.8-2,1.9-.4.2-1.3-.7-1.6,2.1-.3,2,1.2.9-.3-.2-1,1-.8-1-.8.4-1.2-3.7-2.5.5-3.3.8-.4-.9-.2-.5-1.6,1.5-1.5,5.1,2.8v-.8l1.2.4h0l3.4-.4,1.3,1.8v2.1c0,0,3.1.9,3.1.9l.8.8h1.3s0-1.3,0-1.3l1-.6,7.4.2-.9-2.8h-1.8s-3.6-1.8-3.6-1.8l3.1-.7-.4-2.4-1.1-1,2.5-1.1,1.8.7,2.1-.7,1.4-4.9,1.1.7,1.4-1.9,1.7,1.8v-2.2c0,0,1.7-1.2,1.7-1.2l-.2-2.1,3.1-.7,1.6-1.8-.5-.9Z"/>
    <path id="IE-SO" d="M214.9,148.5l-.7,1.4h-.6s0-2,0-2l1.2.6ZM224.3,127.5l.8,1.3,4.4-1.5h0l.9,2-2.6.8-.3,1.6-1.4,1.2.6.9,1.5-.2.5-.4-.2-1.2,3.8,1-1.7,6.2-2.4,1.6.7,5.1,2.5,1,.7,1.4,1.1,11.4-1.2,1.8,2.3,1-.8,1.9,3.5,2.7h1.6s.6-.8.6-.8l2,.7.6,1.9.8.6.5-.3.9,1.2.4-.2,1.3,2.3h0l.5.9-1.6,1.8-3.1.7.2,2.1-1.6,1.2v2.2c0,0-1.8-1.8-1.8-1.8l-1.4,1.9-1.1-.7-1.4,4.9-2.1.7-1.8-.7-2.5,1.1,1.1,1,.4,2.4-3.1.7,3.6,1.8h1.8s.9,2.9.9,2.9l-7.4-.2-1,.6v1.3c0,0-1.4,0-1.4,0l-.8-.8-3-.9v-2c0,0-1.4-1.8-1.4-1.8l-3.4.4h0l-.8-2,.8-5.3-3.4-1.7-1.4-1.7-2.5,1.2.2,2.3-1.7.9-.7,1.8-.9.4-1.2-.9-1.1,2.3-1.9.4-1.2,1.2-4.1-1.2-.9-1.9h-1.1c0,0-.7-2.4-.7-2.4l.4-1.8-3,1.6h-1.4s-1.9-2.7-1.9-2.7l-.7.8h-3.2c0,0,0-3.1,0-3.1l.6-1,3.3-2.1-.3-1.6,1-.7-.3-1.4,1.7-.4,1.5-1.6-2-1.9-.2-.7.8-.6-4.5-.8-2.3-1.6-.4,1.1-1.4-.2-.4,1.5-2.9.2-3-2.4h0v-2c-.1,0,.8-.4.8-.4l-.3-2,1.3-.9-1.9-.3,3-1.1v-1.3c-.1,0,3-6.1,3-6.1l-.4-.9.6-1.8,8.9.2,1.8,1,1.3,1.7,2.1,1.3.6-.4,2.2,1.6,2.3-1,2.4-2.4.6.2v1.1c0,0,1.9.7,1.9.7l3.2-1.2h1.5c0,0,2.8,3.2,2.8,3.2l.2,1.4,1.5.8.2,1h.9s.6,1.9.6,1.9h.7c0-.1.1-1.2.1-1.2h5c0,0-.6-.2-.6-.2l.2-.5h-1.5c0,.1-.1-.7-.1-.7l-.7.9-.3-1-2-.5v-.9s-2.3-2.5-2.3-2.5l-1.6.6,1.3-2.6-.4-1.1h1.6c0,0,.2.9.2.9l1.4.2,1.7-.6,2,.4,1-.8,1.2.7.8-.6-3.4-2.5-3.8-.4v-3.9l1.4,2,2.7.9,1.2-.7-.4-1,.5-.3-2.4-.4-.8.5-.4-.6.7-.5-4-.8-1.9,1.1-1.8.2v1.5c0,0-1.1-.5-1.1-.5l.6-1.5-2.2-1.5.7-.6-.9-.4.7-1,2.1-.8,1.4.2.6-1.4,3.5-1.6v-2.3c.1,0,1,.6,1,.6l1.5-.4.8-.8-.3-.6,1.6-.6-1.8,2.1-2.2.6,1.1,1.2,2.6-2.4,1.2-.2,2.2-3v-1.3c0,0-1.2-.6-1.2-.6l1.5-1-.2-1.1,1.1-.4.3,1.2Z"/>
    <path id="IE-TA" d="M274.6,315.2h-1.1c0,.1-1-1.1-1-1.1l-1.8.8v.9c0,0-1.4,1.4-1.4,1.4l-1.4-.2-.3,1.4,1.6,1.3-1.6,1.5.6.8-2.6,1.3.8,1-1,.6-1.5-.4.4,1.6-1.2.9-.7-1.4-1.6-.7,1,1.5.2,1.7-1.4,1.2-.3,1.1-1.4-.9-.7-1.3.8-1.6-4-1.2-.6-1.5.5-1.5-1-1.8.7-1.5,2.3,1.3h1.3c0-.1,1.5-2.4,1.5-2.4l-2.4-5.1,1.1-.9,3.2.3-1-2.1.6-2.7-.5-1.2,1.9-.4,1.2-7.2-4.3-3.7-7.7-4h0l-3.5,1-2.4,3-.7,2.4-3.6,5.6-3.4,1.5-1,4.7-1.6,1.3-1.2,3h0l.4.9,1.7.5.2.7-4.2,6.5-3.9-.2-1,.5-1,4.8-2.7,3.2,1,6.7-2.9,4.3h0l.8,2.3.4,5.1,2.6,2.4,1.8-1.6,1.5,1.1,1.7.2,4.8-1.9,3.3,1.7v1.5s1.3.3,1.3.3l.4.8,1-1.1,2.1.3-.5,3.1-1.3,1.2-.5,3.1.6.3v1.2c-.1,0-1.8,1.9-1.8,1.9l.9,1.2-.7,1.2.6.8-.5,4.8-1.8.7-.3-1.2-.7.4-1.2-.6-.9,1.5-1.8.5.4,1.6-1,1.5-.5-.4.6-1.5-.7-.4v-1.5c0,0-1.6.1-1.6.1l-.4,1.7-2.1,1.3v1.7c.1,0-.9.9-.9.9l1.2,3.9,1.8-1.6,1.1,1.3,2.4-.6.6,2.4,1.8.5.2,1.9,3.7-1,.3,2.7,1.1,2.3.8-.4.8.7,2.1-.3-.2,2.6-1,1.7,1.3,1.5.5,2.2-2.1,1.5h0l.5,1.6h1c0-.1-.5,1.1-.5,1.1l.8,3,4.2,1.4v2.9h-.1l6.1-.4,1.6.7.9-.8v-3.9c0,0,1,.6,1,.6l.2-.6,2.1-.4,2.3,2.2,6,.3,1.6,1.8,1-1.1,3.9.4-.6-4.7-.8-2-1.4-.9-.9-2.6.8-5.3h2.7c0,.1,2.1-.8,2.1-.8l1,.9,3.5-2.1,4.9-.5,12.8,2.1,2,1.6,1.9-1.1h0l-1.9-2.7,1-7.1-2-1.3-1-2.1-3.1-2.7,3.3-4.6-.8-.9-1.3.8v-.9c.1,0-.5-.5-.5-.5l.3-7.1-1.9-1.9.2-2.7-3.3-4.5-1.2-3,.4-.9-1.3-2-4.3-2.2-1.5-1.6h-1.5c0,.1-.2-1.3-.2-1.3l-1.3-1.4-.4-3.2h0l-1.5-5.8-1.7-1.1-1.2-2.4,1.1-.8-.3-3,.9-.4.3-1.5,2.3-1.4,1-2.4h-3c0,0-2-1.4-2-1.4l-.2-1.5-3.2-1.6Z"/>
    <path id="IE-WD" d="M250.1,408.7l6.1-.4,1.6.7.9-.8v-3.9c0,0,1,.6,1,.6l.2-.6,2.1-.4,2.3,2.2,6,.3,1.6,1.8,1-1.1,3.9.4-.6-4.7-.8-2-1.4-.9-.9-2.6.8-5.3h2.7c0,.1,2.1-.8,2.1-.8l1,.9,3.5-2.1,4.9-.5,12.8,2.1,2,1.6,1.9-1.1h0l3.6,1.5,1.4,1.7.3,1.6,1,.7,1.5,3.6,1.9.7,1.6,2.3,1.1-.5,3.3-3.8,2.2,1.3,2.2.4.8,1.6,3.7-.6,1.5-1.7,1.7-.5h0l1,.7-.4,1.9,1.5,1.4h0v4.1s-1,2.3-1,2.3l.9,1.3h1.6s-1.5.8-1.5.8l-2.1,3.7-2.6,1.1-1.7-.9-3.7,1.5,1.6-3.1,1.6-.9h-.9s.2-.7.2-.7l-.7.6-1.6-1.1h-1.2s.5,1.8.5,1.8l1.8.5-4.3-1-1.6,2.7-1.1.3-2.5.3-5.4-1.1-1.1,1.1-1-.7h-3.1c0-.1-2.4,1.2-2.4,1.2h-3.6c0,.1-1.2,1-1.2,1l-.2-.4-2.4,2.4-1.8-.2-1.8.9-1,2.5-2.9-2.4-2.4,1.9h-.8c0-.1.4,1.8.4,1.8l-1.4.3.4.5,2.6-.4-.4-2.5.5,2.7,1.1,1.2,3.9-.4-2.9,2.4-1,5.4-4,1.8-4.1.4-1.9,2.4,1,.9-.2.7h-3c0,0-1.7-1.3-1.7-1.3l-3.2,1.6-.8-.3-.2-1.5-.6-.2h0l-1-3-1.5.6-3.4-.3-.9-4.1-2.5-2.1.3-1.3h-2c0,.1-2.7-2-2.7-2l.5-2.6-1.1-3.6-.8-.3-.3-1-1.7-.4-1.1-1.5.4-.7.9,1.4v-2.2c0,0-2.1.8-2.1.8l-.4-1.1-1-.2-3.8.5.7-2.7,1.9-.4.8-3.6-.6-.4,1.6-.8Z"/>
    <path id="IE-WH" d="M306.9,211.9l.3,1.1,1.7.2,2,1.5,1.8,3.6,2.4,1.8-.4,2.5,1.9,2.2.7-.2.7,1,3.4.9,1,1.4,1.2-1.3.9,1.9,2.9,2.9,1.2-1.6,1.7-.5.4-1.1,1.1.5.6-1.4,1,.2,1.1,2.3,1.3.4-.5,2.6-1.9,2,.5,1.9-1.2,2.3.6,1.1h-2c0,0-1.1,1.2-1.1,1.2l-.2,1.7,1.1,1.2-.3,2.7-1.5,2.7-1.8.7.3,3.2-4.2,2.9-2.3-.5-.7,1.4-2.5.6v1.2h.1l-1.5.4-.7,1.7-4.3.8-3.7,4.1-1.1.4-2,2.9-2.3,1.2-2-.6-2.2,2.1-1.2-1.6-1.8.3v-1.5c0,0-2.4-.5-2.4-.5l-.4,1.9.6.8-.7-.2-2.3-3.3v-2.8c-.1,0-1.2-1.6-1.2-1.6l.3-1.1-2.1-.6-.2-1.4-1.3-.7-2.2,1.5-.5-.5-.2.8-2.1,1.2-.3,1.3-.9.2-.4,1.5.6.3-1.1.9-3.7,1.5-1.7-.8-1.5.3-.4-.7-2.1,1.8-5.6-2.7h0l.9-.9-1.1-2.8-1.4-2.4-2-1.2.9-1.3-.7-2.2.8-4.3-1-4.8h0l1.9-.5,2-2.2,4.3-.7,1.7,1.2,1.2-.5,1.6.9,3.2.4,1,.9h1.5c0,0,1.1-1.2,1.1-1.2l2.3,1,1-.5v-3.1c0,0,2.1-2.2,2.1-2.2l.5-1.7,2-.7v-1.8c-.1,0,1.2-.6,1.2-.6l1.9.3-.9-3.1-3.1-1.4.3-1h1.1c0,0,2.2,1.3,2.2,1.3l-.6-1.5.5-1.6,1.3.2.5-.7h1.1c0,0-.4-1.3-.4-1.3l.5-1.6h1.3s-.3-1.1-.3-1.1l1.6,1,1.6-1.9h.8c0,0,.3-1.8.3-1.8l2-.6,1.2,1.2.9-1.3h1.3c0,0,.6-3.7.6-3.7l-.5-1-1.8-.5h0l4.9-2.9Z"/>
    <path id="IE-WX" d="M361.2,347l1.1.3.5,1,1.3-.4.8,2.8.6-.5h2.7s1.6-1.2,1.6-1.2l.3.4,1.6-2.8,3-2.5v-2.5c.1,0,1.3-.1,1.3-.1l.2-2.6,1.2-1.2.6.2,1.9-1.2,1.7.7.6-.8h1.1c0,0,1.8,1.7,1.8,1.7l3-1.4,1,2h1c0-.1.5.6.5.6l.6-.6,1.2,1,2,.3-.5,1.5.6.7-1.1.2,3.3,1.4h0l-1.4,2.5-2.1,1.9-2.4,5.4-.8.6.2,3.4,1.3,2.5v1.8c0,0,1.1,3.3,1.1,3.3l-1.5,3.5-1.3,1.1-6.6,10.9-2.2,2.6-1,3.6.8,4.3-1.6.3.3-.6-.9-.8h-3.8c0,0-2,1.7-2,1.7l1.2,1.7v2.4s2.5,1,2.5,1l.5,1.4h.6c0-.1.1-1.9.1-1.9l.8-.9-.2,3.1,1.4,3.5.9.5,1.8-.4,1.4,1.7-2.1,3.3-.6,1.7.4,1.3-1.2,1.9-4.2-1.6-5.7-.6-7.4,2.6-1.1-1.9-2.8-2-4.6-1.6h1.7s4.1,1.6,4.1,1.6l-1.3-.8-.2-1.6v1.1c0,0-4.2-.6-4.2-.6l-5.9,1.6-1.5-1.6.7-.6v1.4c.1,0,.6-.2.6-.2l.3-1.8,2.4-2.4-.4-1.8-1.2,2.2h-2c0-.1.6.6.6.6l-1.7,1.4-.7.2-.6-1,.5,1.6-1.9,1.8,2.3-1,.4.5.2-.5.6.2-2.2,2.6h1.2c0,0-.9,1.1-.9,1.1l.5,1h-1.4s-2.6,1.5-2.6,1.5l-1.7,1.8-.5,1.9-1.5,1-.3-1,2.5-3.6v-1.6l-1-2.1.6-1-1.4-2.2-1.1-.4-1.2-2.6h-1.3c0,0-1.5-1.3-1.5-1.3l.4-1.9-1-.7h0l-1.4-2.5,2.1-3.2-.4-4.7.5-.9h1.5c0,0,0-1.4,0-1.4l1.7-2.9v-1.2c0,0-1.5-1.1-1.5-1.1l.9-.4,1.5.7.8-.9-.8-1.8.8-2.5h1.6s2.3-1.8,2.3-1.8l2.3-4.9-.3-1.5,1.6-1.5.8-2.6,1.2-.2.7-1.8.3-5.3,2.9-2.4,4.6.5,1.7-2.9-.3-.7-1.3.4v-1.9c.1,0,.9-.9.9-.9l1.2-.2,2.4-3Z"/>
    <path id="IE-WW" d="M371.6,282.6l.8.9.8-.6h2.4c0,0,1.3,2.6,1.3,2.6l2.2-.6v2.8c0,0,2.8,1.8,2.8,1.8l1.7-2,.2-3.3.6-.4,4.5,2.8,2.3-1,.2-.8,1.9-.4,1.5,2,2,.5,2.5-1.6h0l1.9,2.6.4,4.1,2.4,5.2.5,5.7-1,4.6v4.7c0,0,.7,1.2.7,1.2l1.4,1.3h.8s.6,1.1.6,1.1l-1.1,1.5-.5,3.1-1.2,1.2v2.1c-.1,0-1.4,1.8-1.4,1.8l-.5,2.3.4,1-3.1,2-2.9,5-.6,2.4v2.2c0,0,.7.6.7.6l-.7,1.8.4.9h0l-3.3-1.4,1.1-.2-.6-.7.5-1.5-2-.3-1.2-1-.6.6-.5-.7h-1c0,.1-1-1.8-1-1.8l-3,1.4-1.8-1.8h-1.1c0,0-.6.9-.6.9l-1.7-.7-1.9,1.2-.7-.2-1.2,1.2-.2,2.6h-1.1c0,.1-.1,2.6-.1,2.6l-3,2.5-1.6,2.8-.3-.4-1.6,1.3h-2.7s-.6.5-.6.5l-.8-2.8-1.3.4-.5-1-1.1-.3h0l-2.9-4.2.6-.9-.8-1.7-1.8-1.6-1.3.8-.9-.5.7-3.3,2.4-1.8-.3-1.3.7-.6,2.7,1.7.7,1.7.9-.2,1.1.7h1.3c0,.1.8-.9.8-.9l-.3-.5,1.3-.7h1.8c0,.1-.3-5.5-.3-5.5l1.4-.3v-1.4c0,0-1.9-1.3-1.9-1.3l-1.1,1.7-1.3-.7-1.4.3-.4-2.2-3.4-.8-.7.8-1.1-1.4-1.8.6-1.9-1.7-1.9.3h0v-3.4s-4.1-5.1-4.1-5.1l.2-1.9,1.6-1.2-.7-1.3,1.5-.6,1.4-1.9.4-3.2,5-2.2.3-.7,2.3-.5.3-1.5,1.1.3,2.7-3.9v-2.1c0,0,2.6-2,2.6-2l-1.4-.9v-1.1c.1,0,1.5-.9,1.5-.9l1.3.3,1.6-2.3-.7-1.2,2.5-2.5Z"/>
  </g>
</svg>