<svg xmlns="http://www.w3.org/2000/svg" xmlns:amcharts="http://amcharts.com/ammap" id="Layer_1" viewBox="0 0 512 512"><g id="_x3C_defs"><amcharts:ammap bottomLatitude="35.491" leftLongitude="6.624" projection="mercator" rightLongitude="18.517" topLatitude="47.087"/></g><g><path id="VA" d="M252.3 240.6h-.1l-.1.2h.3v-.2Z"/><path id="SM" d="m253.5 152.1.5-3.4-3.4 1.6.2 2.3z"/><path id="FR-H" d="m154.1 192.3 1.3 1.1 1 8-1.5 5.9 2.9 5.9.6 18.1-4.6 7.4-.7 12.8-3.5 2.2.2 1.3 1-1.3 1.6.6-3 2.6.2 2.8-2 2.4 1.4-.2-2.6 2.1-2.8-1.3.8-2.1-10.7-4.9v-3.1c.1 0 4.1-2.7 4.1-2.7l-4.3-.4-.2-1.8h-3.8l3.7-3 1-3.6-.7-1.2-5.7 1.3-.5-3.1 1.8-.2.4-1.9 2.8-1.6-1.5-2.7-1.3.5-3.3-2 .8-2.6-1.3-1.4 5-1.3-2.9-1.7.4-1.9-1.9.7-.5-1.6 3.6-2.1.8-2.3-1-.4 2.5-4.6 2 1.4.4-2.1 6.9-1.7 3.5-4 3.1-.2 2.5 2.6 1.5-2.6-1.1-4.3 1.7-4-.7-3.1 2.7-.8Z"/><path id="MT" d="m314.3 485.9.5 2 1.5-.6 3 2.3-.6.9 2.3.3-.3 2.1-4.5-.2-2.8-2.1-.6-3.6 1.7-1Zm-4.4-3.5 3.3 2h-4.8l-.1-1.7z"/><path id="IT_65" d="m299.7 197.6 6.2 14.5 9.6 8.8 3.1 4.6 6.8 3.5v3.1c.1 0 2.3 1.5 2.3 1.5l-9.5 13.3-1.3-.2-.9-3.8-2.6-.3-2-2.1-4.4 3.6 1.5 3.5h-2.4l-.4 1.8-1.2-1.3-1.6 2.5-2.5-.3-1.6-2.1-4.2-.6-1.1-2.1-2.6-.6-3.2 2.2-3.5-2.9-2 .4-.5-4.6-7.3-3.9h-2.8l-.9-1.5v-3.1l1.9-.9v-1.5l5.3 2.1 4.3-2.3-7.3-7.6 1.3-1.5-2.5-2.4 2-1.5-.7-2.7 1.1-2.1 3.3.8 3.2-1 .5-2.2-2-1.3.3-1.1 4.5-2 1.2-3.4 4.1.5 2-2.2 6.2-1.7.2.2Z"/><path id="IT-77" d="m352.2 277.3.6-1.6 6.7.3 3.3-2.3 5.4 4.2-1.9 3.5 4.5 2.5 2.6-.8 1.9 4.1 4.6 4.9 3.2-2.3 1.3 1.6 1.2-1.6 2.9.7 1.8 1.4v9.9l2.7 1 1.8 3.1-7 11.2-7.3-1.1-2.2 10.4-2.6-1.6-1.9 1.5h-5.4l-1.3-2.5.8-1.4-3.3-.5h-3.5l-2.1 3.3-3.6-5 5.2-9.7-8.7-9.3V298l-2.7-1.7 1.5-2.4-3.7-2.4v-3.1c.1 0-1.6-1.6-1.6-1.6h1.3l-.3-2.2 3 .7 2.1-1.8 1.4-3.7-.9-2.5Z"/><path id="IT-78" d="m359.1 325.2 2.1-3.2h3.5l3.3.4-.8 1.4 1.3 2.5h5.4l1.9-1.6 2.6 1.6 2.2-10.4 7.3 1.1-1.4 3.2.9 3.7-4.5 6.6.9 5.5 3.2 1.9h5.1l3 3.4 9.5 5.8-1.5 3.7 1.2 4.3-1.2 4.1 3.1 3.4-3.6 5.5-3.7-1.9-3 .5-9.1 4.8-2.3 4.1 1.3 11.7-3.6 3.7-4.6 1.9-5.1 6.4-2.2 7.3-3.2 1.7h-7.7c0-.1-4.1-4.2-4.1-4.2v-8.8l5.4-2 3.7-7.8.5-3.1-3.4-3 .3-1.1 4.9-3.1h4.8c0 .1 2.8-5.2 2.8-5.2l-.2-3.2-3.9-4.5-3.3-16.9-4-4.8-1.9-5.1-1.9-10.5Z"/><path id="IT-72" d="m309.6 298.4 1.3.2-2.3.8zm-11.6-8.5 2.8.8v1.8c-.1 0-3.3-.3-3.3-.3zm3.6-30.1 2.1 3 2.2.2-1-2.6 1.4-2.5 1.4 1.2 2.4-.8 11.6 5.7 2-1.9h3l1.1-1.9 2.5 1.1 4.5-2.5 2.9 2.3-.9 4.3 6.6 3.6-2.3 4.2 1.5 1.7 3.8 1.1 1.1-.8 4.6 2.2.9 2.5-1.4 3.7-2.1 1.8-3-.7.3 2.1h-1.3l1.7 1.7v3.1c-.1 0 3.6 2.4 3.6 2.4l-1.5 2.4 2.7 1.7v3.2l8.7 9.3-5.2 9.7-2.3-1.5-4.9 3.7-4.8-1.3V319l-4.6-4.1h-3l-4-2.8 2.6-6.9-3.8-7.9-3.4-3.5-6.4 2.5-3-.6-5.1 2.4.5-2.6 4.5-2.9-.7-2-5.9-4.2-2.8 2.2-3-1.6-.2 2.2-1.4-.5-.7-5.3-8.4-13.2 4.2-3.2-1-5.2z"/><path id="IT-45" d="m261.8 149.7-.6 4.6-1.9 2-1.8-.2-.8-2.4-1.7.7-1.4-2.2.5-3.4-3.4 1.6.2 2.3.8 1.4h-2.5l-2.4 4.9-2.8 1.6-1-1.5-2.9 1-5.2-3.1H232c0-.1-3.5-2.9-3.5-2.9l.2-1.9-2.3-3.1 3.3-6.1-5.1.5.8-2h-3c0 .1-3-3.5-3-3.5l-4.7 3.7h-2.5l1.9 2.4-7.4.3-.8-2-3.1 3.4-5.2-4.2h-3.5l-1.6 1.8-3.4-4.8-6.1-3-1.5.8-3.6-3.8-4.2-1.5-.4-2.5-2.5-1.5-3.4.4-4.4 4.7-2.6-3.4-5.3.9 1.8-3-.2-3.5-2.5-1.8-1.5 1.1-5.2-1.8.3-3.1h1.1l-.2-1.3.8 1.6 2-.5-1.3-3.6 2.4-2.5-2.9-3.3.4-1.7 4.1-6.9 2.8-.9 1 1.2.3-2.4 1.5 1.3 1.2-1.5.5 2.4 2.6 1.1 1.4-2.4 1.9 2.7.6-2 1.8.7-.6-1.7 1.1-.9.2 1.8 2.4-1.3 3.4 4.9 2.1-1 6.4 3.5 1.5-.8 3.8 3.3h2.5c0-.1 4.1-3.5 4.1-3.5l.6 2 4.6 1.6 5.9-2.2 2.4 1.4 5-1.4 3.9.6v.9c.1 0 3.7-.2 3.7-.2l2.1 2.1 6.4-4.1 9.6.2 1.4 1.9 4.4-.7.3 3.3 2 2.3-1.9-1.3-1.1 1.4-.6 5.6 4 19.7 5.3 7.2 7.2 5.8Zm-16.8 7.2-1.9.7.9 1 1.2-1.4v-.3Z"/><path id="IT-36" d="m263.3 27.3 1.7 1.5 10.3.9 2.3 1.7 4.3-1.3 11.1 2.7-.9 3.9h-3l-7 6.6 1.2 4 2.3-.7 5.8 2.1-6.1 8.2 1.9 1.8 3.5-.9-2.2 6 .7 2.1 6.5 2.9 4 5.3-2.6 2.3-3.9-.5 2.9-.9-2.2-1.2.3-1.9-3.9-4.2-2.6-.7-1 2 1.1.9-4 2.2-6.2-1.8-2.7.7-1.8 2.8-3-3.9-1.5-5.5-1.1 1.4-2.2-1.6-1.7 1.3-.8-1.6-4.1 3.2-.8-1.9h-2.5l-1.5-4.5-2.5-1-1-4.3 2.9-3 .3-2.3-5.7-5.3 6.8-9.3h4.2l-.9-2.2 3.8-1.4-.6-4.4h2.2Z"/><path id="IT-62" d="m268.3 283.1 1.4-.6-1.3 2.4v-1.8Zm33.3-23.3-3.8 2 1 5.2-4.2 3.2-4.3-1.6-2.5 2.4-8.4-3.9-8 3-4.2-6.7-9.7-2.7-6.6-9-6.2-3.8-2.6-7.4-7.3-5.3-2.7.4-5.8-10.9-6.7-4.3 1.2-2.6h4.3v-2.2l-1.8-1.2.6-2.3h2l5.3-3.5-1-2.6 1.4-1.5-2.4-1.9.7-1.5 1.2 1.1 1.3-1.9h1.6l2.8 3.7-1.8 1.9.8 1.3 2.6 1.6 5.4-.8 3 7.6 4.1-.3.7 4.5 2.3-.3.5 1.7 2.7-2.1v-2.5c.1 0 2.2 1.1 2.2 1.1l1.9-1.2-.9-1.3 5.8-2.8v-2.3l8.4-1.4 1.3-3.6 3.1-.3 2.3 2-.3 1.1 2 1.3-.5 2.2-3.2 1-3.3-.8-1.1 2.1.7 2.7-2 1.5 2.5 2.4-1.3 1.5 7.4 7.6-4.3 2.3-5.2-2.1v1.5l-1.8.9v3.1l.8 1.4h2.8l7.3 4 .5 4.6 2-.4 3.5 2.9 3.2-2.2 2.6.6 1.1 2.1 4.2.6 1.6 2.1 2.6 5.6-1.6 4Zm-49.2-19v-.2h-.1l-.1.2zh.1Z"/><path id="IT-42" d="m98.7 145.5 1.5-.9-1.4-.9 1.5-1.7 5.7 1.8h2.3c0-.1-.9-1.5-.9-1.5l1.2-1 1.9.3-.3-7h1.2l1.5-3.5 2-1.1-.4-3.3 1.8-2.3 3.7 2.7 3.3-2.5 2.9.9 2-3.7h2.2c0 .1 2.7 4.1 2.7 4.1l1.7-3.1h2.9l-1.1-3.3 2.4-2 5.7 4.7 2.2-1.8 5.2 1.8 1.5-1.1 2.5 1.8.2 3.5-1.8 3 5.3-.9 2.6 3.4 5.7 4.1.3 3.8 1.3-1.1.9.6-1.3 1.3h2.5l.4 3.1 1.1-.9 1.5.9-1.6 2.5-1.7.4-3.9-3.2-.3 2.7-19.4-13.4-.6 2.2-2.3-1.1v-1.7c-.1 0-11.6-2.9-11.6-2.9l-9.2 4.6-1.9 2.3-.5 3.5-5.1 2.5-3.4 6.5.3 1.7-3.3 2.9-13 5.1-4.4-.2-1.3-4.2 5-4.5 1.9-4Z"/><path id="IT-25" d="M180.9 28.2v2l1.5 1.2 5.1.9.7 1.7 4 1.3 1 3.1-3.8 2.7 1.7.8.7 3.7-1.4 6.4-3 5.5 1.9 3.4-.2 4 2.1 2.1 2.6-.9.3-1.4h6.1l-7 10.5.5 8.7 2.5.3-.6 4.9 1.3.9 1.5-1.3 6.6 5.4 2.7 4.4 2.4-1.3 1.9.7-.9 2.3 2.9.2v1.6l5.2 3.4-3.9-.6-5 1.4-2.4-1.4-5.9 2.2-4.6-1.6-.6-2-4.1 3.4h-2.5c0 .1-3.8-3.1-3.8-3.1l-1.5.8-6.4-3.5-2.1 1-3.4-4.9-2.4 1.3-.2-1.8-1.1.9.6 1.7-1.8-.7-.6 2-1.9-2.7-1.4 2.4-2.6-1.1-.5-2.4-1.2 1.5-1.5-1.3-.3 2.4-1-1.2-2.8.9-4.1 6.9-.4 1.7 2.9 3.3-2.4 2.5 1.3 3.6-2 .5-.8-1.6.2 1.3h-1.1l.2-3-1.7-2.9h-2.9c0-.1-.5-3.3-.5-3.3l-4.9-5.4-.2-2-4.1 1.9-1.9-1.4-.3 1.1-2.1-1.2-.9-3.9-2.3-2 1.1-1.6-1.7.4 1-1.9-1.9-2.3 1.9-3.2 2.5.6 2 2.6 2.2-2.5-1.4-1.5 4-.7-1.9-4.2-2.2-1.1-2.2-9.5-1.9-.6-1.3-2.4 1.4-2.4-.8-3.1 5.1-5.5-.2-3.9.8-.8 3.6 2.2-2.2 3.9 3.6 1.6 1.6 4.1-1.1 1.7 4 .6 1.8-3.7-3.2-3.3 1.2-1.1-.7-2.1 2.3-1.3v-2.6c-.1 0 5.6-5.4 5.6-5.4l1.6-4.3-1.6-5.4 1-2.5 2.8-.6 1.6 2 1.7-2v6.3l2.7 3.4 5.2.5.9-2.7 1.3.7 5.7-2.1 1.4 1.3v3.2l1.9.9-.3 1.6 2.5.2 1.7-1.5-2.3-3.5 2-3.6-4.1-1.7v-4.5c.1 0 2-3.3 2-3.3l4.7-.4Z"/><path id="IT-57" d="m286.4 164.9-1.8.8-4.8-2.7-12.9-11.3-5-2-.6 4.6-1.9 2-1.8-.2-.8-2.4-1.7.7-1.4-2.2-2.7.6.8 1.3h-2.5l-2.4 4.9 2.8 2.5-1.7 1.4-.4-2.3-.3 2-3.6 1.9.9 1.4 2.6 1.1 2.5-1.1-1.9 3.1 2.6 1.5.9-1.3 2.5.7 4 4.6 4.9-1.6-.8 3.4 3.8 7.6-1.1 2.8 2.1 2.3v5.7l2.5 1.6v2.6l.8-1.9 1.7-.4 3.5 3.9 2.5-1.5.7 3.4-2.2 2.5 3.1-.3 2.3 2 4.5-2 1.2-3.4 4.1.5 2-2.2 6.2-1.7-9.3-29-3.8-3.6Zm-34.9 1.5-.5-.2h-.1l.6-.3v.3Z"/><path id="IT-67" d="m328 233.8 6.6 2.4 4.5 3.5-1.3 6.9 2 2.6-4.4 3.7-2-.9-.8 1v4c.1 0 2.4 1.9 2.4 1.9l-4.6 2.5-2.5-1.1-1.1 1.8h-3l-2 1.9-11.6-5.7-2.4.8-1.4-1.2-1.4 2.5 1 2.6-2.2-.2-2.1-3 1.5-4-2.6-5.6 2.5.3 1.6-2.5 1.2 1.3.4-1.7h2.4l-1.5-3.5 4.4-3.6 2 2.1 2.6.3.9 3.8 1.3.2 9.5-13.3.3.2Z"/><path id="IT-21" d="m122.2 35.4 1.1 3.2-.9 6.9 2.8 1.4 2.6 4.5 3.5.9.2 3.9-5.1 5.5.8 3.1-1.4 2.4 1.3 2.4 1.9.6 2.2 9.5 2.2 1.1 1.9 4.2-4 .7 1.4 1.5-2.2 2.5-1.9-2.6-2.5-.6-1.9 3.2 1.9 2.3-1 1.9 1.7-.4-1.1 1.6 2.3 2 .9 3.9 2.1 1.2.3-1.1 1.9 1.4 4.1-1.9.2 2 4.9 5.4.5 3.2h2.9c0 .1 1.7 3 1.7 3l-.2 3.1-.3 3.1-2.2 1.8-5.7-4.7-2.4 2 1.1 3.3h-2.9l-1.7 3-2.8-3.9h-2.2c0-.1-2 3.6-2 3.6l-2.9-.9-3.3 2.5-3.7-2.7-1.8 2.3.4 3.3-2 1.1-1.5 3.6h-1.2l.3 6.9-1.9-.3-1.2 1 .9 1.4H106c0 .1-5.7-1.7-5.7-1.7l-1.5 1.7 1.4.9-1.5.9-1.5-3 .6-2-10.6 2.7-5.5-3.9-5.8-1.5-3.9-5.7.2-2.7 1.8-.4-3-4.6 3.6-4-.2-2.6 3.7-.4-2.5-4.6.2-2.3-4.6-.5-3.6-2.5-.2-5-2.3-.3-1.5-3.9 4.6-2.5 4.1 1v-1.5H74l1.8-2.3 2.2.4 1.8-1.6-.5-3.7 2.5-3.6-2.8-2.8 1.1-2.2.2 1.8 2.5.2 8.7-5.1 7.9 1.5 3.1-2.2 2.3.3 1.1-6.2-2.3-3.1v-5.8l1.4-3.7 3.3-.7.7-4.1 3.9-2.1-.4-3.7-2-1.6 7.5-5.5v-2.2c-.1 0 4.2-1.9 4.2-1.9"/><path id="IT-75" d="m367.5 238.8 5.5 2.8.3 3.5-1.1 2.1-8.5 6 1.7 6.6 20.4 10.9 16.5 6.2 12.5 10.1 17.6 7.9 1.9 4.9 11.1 9.8 3 6.8-3.5 6.7-.5 6.7-1.5 1.2-9.7-5.8-1.7-3 .6-1.5-1.3-.7 1.2-2.3-4.9-7.5-11.3-.4-9.9-4.8 1.5-2-4.5-2.7-4.6 1.6-3.6 4.2-1.8-3.1-2.7-1v-9.9l-1.8-1.4-2.9-.7-1.2 1.6-1.3-1.6-3.2 2.3-4.6-4.9-1.9-4.1-2.6.8-4.5-2.5 1.9-3.5-5.4-4.2-3.3 2.3-6.7-.4-.6 1.6-4.6-2.2-1.1.8-3.8-1.1-1.5-1.7 2.3-4.2-6.6-3.6.9-4.3-2.9-2.3-2.2-1.9v-4c-.1 0 .7-1 .7-1l2 .9 4.4-3.7-2-2.6 1.3-6.9 9.4 1.1 19.1-2.1Z"/><path id="IT-88" d="m120 359.1 1.8.2 1.3 2.3-1.7 4.1-1.8-3.4zm-2-2.9v3.4l-1.1.2-1.8-2.2zm.5-81.7.4 2.9-1.7-.8-1.4 1.9.6 1.8-1.5-.2.3-2.3 3.2-3.3Zm37.2-5.2.3 2.4-1.5.2 1.1-2.6Zm-7.8-.7 1.8 3.2 2.5-1 2 1.3.6 3.7.8-2.2 1.8-.6 1.5 1.8-1.9 4.6 1.7-1.2-.3 1.4 1.4-.8 2.2 1.2-2.7.5-.2 2.3h-2.3l2.8 1.5 1.7-1.1-.9 1.2 1.1 1.6 2.4.7-1.6 2.3 2.7 4.8v3.2l2.4 2.9-2 5.8-4.5 5.6.9 4.7 2.6 2.5-1.5 4.7 1 2-1.2 1.2-1.1 18.4-1.6 4.7 1.1 2.1-1.7 1.4v3.7c-.1 0-1.9 3.4-1.9 3.4l-7.3-4.9-2.8-.6-1.6 1.9-1.6-1.3-2.9 2.6v6.9c.1 0-5.2 4.4-5.2 4.4l-4.4-2.6-2.6 3.1-2.5-7.4-2.9-.6-.2-2.2-3.3-4.2 2.2-3.3-2-3.5 3.1-9.5-.8-6.5 2 1.4 1.5-5.8-1-1.7-2.7 1.1-1.4-1.3.5-4.7-1.1-.7 2.5-.7 1.2-2.2-1.1-3.1.8-4.6-3.2-2.2-.3-6.4-2.4-4.2-3.1 1-.2-2.2-1.5 1.7 1.8-4.5-2.3-2 2.9-6.6-1.5-2.1.9-1.5 1.1.8-.2 1.8 2.6 2.8 8 .5 4.3-3.5 3.2-.5 7.1-8.5 5-1.9-.8-3.3 2.8-.5Zm6.1-.4.7 2.2-1.9.3z"/><path id="IT-82" d="m254.7 504.5 3.1.3.2 1.1zm-18.6-52.4 3.1 1.6-.8 2.5-3.3-2.7 1-1.5Zm11.4-45.2 1.9 1.9-2.6-.4zm-7.9-1.5.8 1.8-1.6-.5-.4-1.4h1.2Zm113.1-12.7 3.3 1.4-2.7 1.3-2.6 6.5-9.2 13.1-1.2 7.3-2.9 3.7.4 6.7 5.2 3.2-1.1 1.1-1-.9-.2 2 1.5 2.9 2 .5-.7 2.7 2 1.5-2-.2-4 3.8-1.9 4.6 1.5 4.6-1.9 1.5-2-2.1-4.5-1.2-3.1 1.1-9.3-3.3-3.7-7-3.8-3.9-6.2-2.2-5.3.6-5-2.2-6.3-5.5-3.4-.3-5.7-3.9-3.5-4.2h-4.7l-3.3-3.4-7.9.7-2.2-3.3-4.2-2.4-1.7-4.1 2-3-.9-1.4 2-3.4-.9-1 7.1-3.8.7-3.3 5.5 6.7 5.7-2.6-.8-2.1 1.8-2.2 2.7 1 4.1-2.2 2.1 4.8 5-.2 1 3 6.5 2.8 8.3-2.9 8.5 1.4 6.2-1.1 5.2-1.7 3.5-3.8 5.4-1.1 6 2.9 3.9-3 .2-3.2.6 2.3 1.4.4 8.8-3.8Zm-19.4-4.9 1.4 2-1.7-.6zm.1-4.2-.3 3.4-1.8-1.9zm-4.5-2.5h1.6v1.9l-2.4-1zm13-9.4-.4 1.6-.8-.8z"/><path id="IT-52" d="m183 221.3.5 1.1-1.1.4zm18.5-1.8 1.1 3.2-1.8-1.6zm-26.1-10 .3 2.3-1.4-.6 1.1-1.6Zm10.9-10.9.6 3.9-1.6.9 1.2 2.3-2.6-2.5-.7 1.2-.6-1-4.7 1.5-1.8-1.8 1.2-1.9 3.4.9.6-1.9 3 1.4zm58.8-41.5c0 .1-1.2 1.5-1.2 1.5l-.9-1 1.9-.7v.2ZM162.5 132l4.4-4.7 3.4-.4 2.5 1.5.4 2.5 4.2 1.5 3.6 3.8 1.5-.8 6.1 3 3.4 4.8 1.6-1.9h3.5l5.2 4.3 3.1-3.4.8 2 7.4-.3-1.9-2.3h2.5l4.7-3.7 3 3.6h3c0-.1-.8 1.9-.8 1.9l5.1-.5-3.3 6.1 2.3 3.1-.2 1.9 3.5 2.8h2.9c0 .1 5.2 3.3 5.2 3.3l2.9-1 1 1.5 2.8-1.6h.1l2.8 2.6-1.7 1.4-.4-2.3-.3 2-3.6 1.9.9 1.4-2.1 3.6-1.7.2 1.5 2.4-3.8 2.5 2.9 2.2.5 3.1h2.9l-4.2 2.6-1.9-.5-.3 2.6-3.3 1.9v3.1l1.9 1.2-1.5 6.2.8 1.6-2 1.5h-1.6l-1.3 1.9-1.2-1.1-.7 1.5 2.4 1.9-1.4 1.5 1 2.6-5.3 3.6h-2l-.6 2.3 1.8 1.2v2.2h-4.2l-1.2 2.6-6-1.8-1.7.5-.7 2-3-1.3-.3-1.6 2.6-.4.8-3.3-3.4-5.1-2.6-1.1-2-3.8-6.9-2.7 1.8-3.8-1.6-1.8-3.8-1.1-4.1 1 1.4-6.9-.4-7-7.4-12.7-1.9-15-3.2-4.9-4-3 1.6-2.5-1.5-.9-1.1.9-.4-3.1h-2.5l1.3-1.2-.9-.6-1.3 1.1-.3-3.8-5.7-4.2Z"/><path id="IT-32" d="m244.1 6.1 1.1.9-1.1 1.9-2.7 1 1.5 3.4-.8 1.2 2.3 1.7 2-.4 1 2-.8 2.6 2.3.4.9 2.7 3.2 1.8-3.2 2.8-3.9-.4-2.1 1.7V28l-4.1-2.4-2.2 6.6-5.9 1.6 2.2 2.2-1.6 4-2 .4 6.1 7.7-2.2 3.2-6.7 1.3-.6 6-2.7-.2-1.5-2.2-5.4 1.5-.8 3.5-1.6-1.3-1.5.7-4.1 10.7-3.5-1.5-2.4 2.1-3.2-2 1.7-4.2-1.7-1H194l-.3 1.3-2.6.9-2.1-2.1.2-4-1.9-3.4 3-5.5 1.4-6.4-.7-3.7-1.7-.8 3.8-2.7-1-3.1-4-1.3-.7-1.7 1.2-3.8-2.9-1.1-.5-2.3 2.9-8.2 2.2 1 3.8-1.8 3.1 2.5-1.1 1.7 9.4 1 2-2.6.4-4.3 2.2-2.5 5-1.3 2.7 1.3 2.4-2.2 1.9 1.3 2.7-1.4 4.2 2.1 7.3-3.9 7.4-1.7Z"/><path id="IT-55" d="m251.5 166.4-.5-.2h-.1l.6-.3v.3Zm-7.1-.7 2.6 1.1 2.5-1.1-1.9 3.1 2.6 1.5.9-1.3 2.5.7 4 4.6 4.9-1.6-.8 3.4 3.8 7.6-1.1 2.8 2.1 2.3v5.7l2.5 1.6v2.6l.8-1.9 1.7-.4 3.5 3.9 2.5-1.5.7 3.4-2.2 2.5-1.3 3.6-8.4 1.4v2.3l-5.8 2.8.9 1.3-1.9 1.2-2.1-1.1v2.5c-.1 0-2.9 2.1-2.9 2.1l-.5-1.7-2.3.3-.7-4.5-4.1.3-3-7.6-5.4.8-2.6-1.6-.8-1.3 1.8-1.9-2.8-3.6 2-1.5-.8-1.6 1.5-6.2-1.8-1.2v-3.1l3.2-1.9.3-2.6 1.9.5 4.2-2.6h-2.9l-.5-3-2.9-2.2 3.8-2.5-1.5-2.4 1.7-.2 2-3.6Z"/><path id="IT-23" d="m94.3 57.7 2.8.4 1.8 2.5 4.6.3v5.8l2.3 3.1-1.1 6.2-2.3-.3-3.1 2.2-7.9-1.5-8.7 5.1-2.5-.2-.2-1.8-1.1 2.2-3.3-1.8v-6.2l-2.7-.5-3.5-3.3.4-5.2 3.9-.5 3.3-3.6 2 3 1.6-1 1.2.9 3.3-2.9 3 1.2 6.2-4.2Z"/><path id="IT-34" d="m254.2 103.7.8.6-1.5.3zm-.2-78.3 7.2 2 .6 4.4-3.8 1.4.9 2.2h-4.2l-6.8 9.3 5.7 5.3-.3 2.3-2.9 3 1 4.3 2.5 1 1.5 4.4h2.5l.8 2 4.1-3.2.8 1.6 1.7-1.3 2.2 1.6 1.1-1.4 1.5 5.5 3 3.9h-4l-20 11.4-2.1 7.1 1.2 6.8 1.9 2.7-.8.4 1.3.7.4-1.3 2.7 3.4-1.1 5.2-1.4-2.4-1.1 1.3 1.3 2.6-.9.8-1.5-1.2-2-2.3-.3-3.3-4.4.7-1.4-1.9-9.6-.2-6.4 4.1-2-2.1-3.6.2v-.9h-.1l-5.2-3.4v-1.6l-2.9-.2.9-2.3-1.9-.7-2.4 1.3-2.7-4.4-6.6-5.4-1.5 1.3-1.3-.9.6-4.9-2.5-.3-.5-8.7 7-10.4 1.7 1-1.7 4.2 3.2 2 2.4-2.1 3.5 1.5 4.1-10.7 1.5-.7 1.6 1.3.8-3.5 5.4-1.5 1.5 2.2 2.7.2.6-6 6.7-1.3 2.2-3.2-6.1-7.7 2-.4 1.6-4-2.2-2.2 5.9-1.6 2.2-6.6 4 2.4v1.4l2.2-1.7 3.9.4 3.2-2.8h.9Z"/></g></svg>