<?xml version="1.0" encoding="UTF-8"?>
<svg id="Layer_1" xmlns="http://www.w3.org/2000/svg" xmlns:amcharts="http://amcharts.com/ammap" version="1.1" viewBox="0 0 512 512">
  <!-- Generator: Adobe Illustrator 29.1.0, SVG Export Plug-In . SVG Version: 2.1.0 Build 142)  -->
  <g id="_x3C_defs">
    <amcharts:ammap bottomLatitude="55.672529" leftLongitude="20.908629" projection="mercator" rightLongitude="28.243214" topLatitude="58.085902"/>
  </g>
  <g>
    <path id="LV-DGV" d="M393,373.5l1.6,4.2.8,6.3-3.5,1.4-1.6,2-2.2-1.2-1.7,1.1-1.6-2.5,1.2-1.8-3.4-5.9,1.8-.6,5.3,2.3,3.2-5.3Z"/>
    <path id="LV-JEL" d="M199.2,287.8l-1-.4-1,1.2,2,1-.2.8-4.7,1.5-1.5,2.1-1-.7.3-4.5-2.7-2.4-1-2.4,1.4-1.1,2.3,1.2,2.4-1.8h0l1-.5h0l4.3.7-.3,3.1,1,1.4-1.2,1Z"/>
    <path id="LV-JKB" d="M340,308v-.4h0l.7-4.8h0l3.5-.6,3.4,1.2v1c-.1,0-1.7.7-1.7.7v1.3h0l-1.8,2.9-4-1.2Z"/>
    <path id="LV-JUR" d="M212.2,244.2l-3.6,4-2.9-.5-3.7,1.8-2.7-1.6-.5,2.3-5.4.5-.6,1.2h-3.4l-1.4-1.1-.9,2.8h-3.3l-1.2-1.1-3.7-.5h0l-1.1-.9h0l.4-3.3,5.1-1.8h0l4.8,1.8,4.3.2,5.9-1,10.4-4.2h0l3.5,1.5Z"/>
    <path id="LV-LPX" d="M7.4,309.6l-1-5.9,1,.3-1.2-.8h.9c0,0,.4-2.7.4-2.7l3.4.5-.9-1.3-.5,1-2.2-.6,2-8.1h0l3.7.6v4.6s2.2,0,2.2,0v3.9l-2.3,1.5-1.1,2.2v2.5h0l-.5.6h-1.2c0,.1-1.1,1.8-1.1,1.8h-1.4Z"/>
    <path id="LV-REZ" d="M446.8,301.7l1.2,1v2.9c-.1,0-2,4.7-2,4.7h-.8l-.6-1.6-1.8-.3v-2.8c-.1,0,.7-2.8.7-2.8l3.3-1.1Z"/>
    <path id="LV-RIX" d="M236.4,246.9l-.5.2h0l-5.7,4.1v4.6l2.6,3.2h0l2.7,1.9-1.5.5-6-2.8h0l-1.7-3.5h-.9c0,0-.9,1.5-.9,1.5l-1.2-1-1.8.8-.9,2h-2.1l.2-3.5-8.3-4.1h0l1.8-2.4,2.7-1.5-.8-1.5,1.6-.3-1.1-1.2-2.4.2h0l-3.5-1.5h0l4.4-3.1,3.2-4.5,5.6-2.4h0l2.2,1.8v1.5l2.3.3h0l1.4,1.2.7,3.2,4.2,1.6,3.7,4.6Z"/>
    <path id="LV-VEN" d="M43.3,194.8l.8-2.2.3.7.9-1.3-1.4-.7,1.5.4,1.5-1.5,3.7-7.3,1.8,1.7,1.2,7.2-3.9,1.7.6,3.4-1.3.8-1-1.6-.7,2.7-4-4.1Z"/>
    <path id="LV-VMR" d="M314.8,174.6l.3,2.1-1.2,1.8h-4.7l-.7-4.5h0l4.9-1,1.3,1.6Z"/>
    <path id="LV-001" d="M429.3,345.8l1.9-1.1.9-1.9,2.8,1h8.3s-.6,3.2-.6,3.2l2.7,2.9-2.4,3-5.9,1.5,1.2.7-.6,2,1.3.9h0l-1.7,2.4-3.4.8-.3,5.4-2.6,2.2-5.5-.8-2.5,1.7-3.7-2.1h0l-1.8-3.9,1.4-3.2-2.7.3-1.5-4.3-1.4-1.4.3-2.2h2c0-.1,1.1.8,1.1.8l.6-1.2-.8-2,2.9-2.3,9.3-.3.6-1.9Z"/>
    <path id="LV-002" d="M305.4,294.2h-2.8s-1.3,2.8-1.3,2.8l-9-6.5h0l.4-2,3.5-1.5.2-2.8-1.6-.7-.5-1.5,2-1.1h0c0,0,1.9-1.3,1.9-1.3l4.5,1.7h0l1.4,3.3-.3,4.4,1.5,5.3Z"/>
    <path id="LV-003" d="M40.2,258.3l2.5,1.9.3,3.1,5.7-.4,3.3,6.6,3.4.2,3.7,3.1,1.2,2.6-.4,1.6,1.3.3v2.5c0,0-1.2.9-1.2.9l4.6,2h0l.6,6.3-1.9,2-2.4.8,1.7,3.1v2.2h-.1l-5.6,1.9h0l-4.3-1.4-1,2-1.7-.8-1.1.9-1.3-1.6h0v-.4h0l2.7-1.4-1.5-9.8-2.2-1-7.8,2.2-1.7-1.8.2-2-2,.9-.4-2.7-3.4-1.4-3.1-2.9v-1.9h-.1l1.1-1.1-1-6.2,2-.4.3-2.4,8.6-2.1-.4-4.6,1.5-.4Z"/>
    <path id="LV-004" d="M352.8,357.2l-5,3.2-2.4-4.1-5.1-3.3.8,2.5,2.4,1.9-2.3,1.5-.2,2.5-1,.2h0l-9.1-4.2.7-4.1-1.4-1.3v-2.2c-.1,0-1.9,1.6-1.9,1.6h-1.9s.6-4.1.6-4.1l3.3-7.1h0v-1.6h0l7.7-.4,5.4,2,1.3,6.1,4.9,2.5.3,1-1.3,1.7,1.8,2.5,2.1.5.4,2.7Z"/>
    <path id="LV-005" d="M271.6,118.6h.2s.2,9.2.2,9.2l2.2,1.4,1.9,9.8,3.4,2.5,1.8-.7,2.2,1.3h0l1.7,2.7,3.2.7,1.3,4.8-2.2,4.5,1.8,1.5-.6,2.5,1.1,1.1h0l-2.7.5.8,3-.8,1.2h-2.2s-.5-2-.5-2l-1.2-.5-4.8,4.5-2.1-.5h0v-.4h0l.5-3.9-4.1-2.2-.6-6.5-2.9-1.9h-3.5c0,0-3.8-4.5-3.8-4.5h-1.4l-3.1-11.4-2.4-2.9,2.2-2.6-1.5-1.8-1.6-7.1h0l.7-.6,2.7,2.5,1.5-2.3h1.8c0-.1,1.2,1.4,1.2,1.4l1.5-1.8,1.9-.4v-2.3c0,0,4.4-1,4.4-1l1.8,2.3Z"/>
    <path id="LV-006" d="M45.2,233.6l3.7,3.1,1.8.2-.2,2.8,4.1,4.3,1.5,5-1,1.7-3.2,1.1-.7,1.7-3.9-.7-1.8,3.6-3.8-1.3h0l-3.6-.9.3-1.2-1.4.6-1.6-.9v-2.6h0,3.9s-.3-1.8-.3-1.8l1.5-1.3-.7-7.1h1.8s-.6-3.6-.6-3.6l1.5-.7v-2.1s2.9.4,2.9.4Z"/>
    <path id="LV-007" d="M392.8,193.4l3.3-4,4.8.6,2.1-3.9.4-5.1,2.4-1.4,4.2-.3-1.1-2.6,1-.6.3-2.5-1.6-2.8.9-1.7h0l2-1.4.4-2.9,4.2-2.2,1.7,1.7-.2,2.3,2.2-1.4,3.6,1,1.1,3,2.7.6,2.7,2,9.6,1.5,6.1,4.1,1.6-2.2,2.7,1.6,6.1-2.2,3.1.3-.2,2.3.8-.4.6,1.6-1.2,6.4-.8-.2-1.3,4.6,3,1.8,2.4-.6,4.6,2.7,1.9,3.2h0v4.9c0,0-3.7,2.8-3.7,2.8l-3.3.5-.2,3.3-1.5.3v1.5c0,0-1,.3-1,.3h-.7c0,0-2.5.7-2.5.7l-.4-3.2h-2.6c0-.1-.1,2.9-.1,2.9l-1.6-.3-2.2,1.2-3.6-4.1-3.9,3.2v1.1c0,0-3.6,0-3.6,0l-1,2.6-1.8-1.1-.5,1.3-2.4.4h0l-7.8-3,.3-1.5,1.9-1.3-3.3-1.4-3.3-3.4-7.7,1-.9-1.9-4.1.4-2.2-1.7-1.5.4v2.2s-1.9,0-1.9,0l-2.5-1.7.2-2-3.4-.3.7-1.9-2.8-1.8-.6-3h0l-.4-.4Z"/>
    <path id="LV-008" d="M321.9,223.8l-2.5,3.3,3.8.7,2.3,3.7v3.4s-6.1,5.4-6.1,5.4l-1.7-1.6-1.5.2,1.2,2.4-1.3,1.5v1.4h.1l-1.6.2.8,2.2-4.9,5.2-1.8-1.4-1.6-5-4.4,1.7v1.2c0,0-1.6.8-1.6.8l.4,1.1-1.4.6.6,1.3-7.8-2.8h0l.6-2.4-1.1-1.7.9-.9-.8-2.1h0l.6-2.8-2.6-4.1v-1.3c.1,0,2.6-1.7,2.6-1.7l-3.6-4.2h0v-.5h0l4.8-1.1,2.7-4.5-2.1-.6-.9-8.2-4.9-1.6v-2.2h0l2.6-1.7,4.4,1.1,2-3.2h0s3.1-.3,3.1-.3l2.9,2.1,1.5,2.3-.5,2.5,3.4.9-1.1,2.7,1.8,2.5,2.8,1,1.8,3.2,3.1.8.6-1.8,4.5,2.1Z"/>
    <path id="LV-009" d="M409.4,169.2l-.9,1.7,1.6,2.8-.3,2.5-1,.6,1.1,2.6-4.2.3-2.4,1.4-.4,5.1-2.1,3.9-4.8-.6-3.3,4h0l-.9-.9h0l-1.8,1.4-1.9-1.2.3-1.3-2,1.1-1.5-.6-.9,1,1.9,3-3.8.4-.7,2.1h-2.4c0,0,.3,1.8.3,1.8l2.3-1.3.7,2.6-5.9,1.5-5.2-1.7h0v-4.4s2.3-1.2,2.3-1.2l-1.2-.6-.2-1.6,1.3-.9v-2.4c0,0,1.2-.8,1.2-.8l-3-1.8.5-1.9h1.6c0,.1.4-.9.4-.9l-.7-5.7h0l4.3-1-1.7-.5.2-1.8-1.2-.6v-2.2c0,0,2.2-3.8,2.2-3.8h0l2.6,1.1,4.6-.4,2.1,6.5,4.1,1.6.3-2.1,1.5-1.3.3,2.8,1.5,1v-2.5c.1,0,2.7-3.3,2.7-3.3h1.7c0,0-.3-1.1-.3-1.1l1.9-1,2.3.4.4-2.3,2.5,1.6-1.1,1.3,1.1.5.9-1.7-.5-1,1.1,1,.5-1.1h1.9Z"/>
    <path id="LV-010" d="M157.8,322.3l-.8.3.8,3.5-6.2,4.1-1.5-2.3-1.9.4-1.3-1.2-1.5-4.9.9-.5-1.1-4-3.9-1.2-1.6,1.9h0l-1.6-.3-1.2,1-6.4-3.5-4.8-.5-.2-2.9,2.6-.6-3.7-4.4,1.8-1.1-.2-2.9,1.5-2.7-.4-3h0l1.5,1.1,1.7-.7-.5-.7,1.9.2v-.7h.1l1.7.2v3.1s1.3.5,1.3.5l3.2-3.6,3.4-1.2-1.4-.8.4-1.5,2.1-.4,1.9,2.3,2.8-.9,2.6,3.6,1.8.7-1,1.2,1.1,4.8-.6,3.2,2.9,1.3-.6,2.2,1.8,1h0l.6,1h0l-2.5,3.4,2.5,2,1.7,3.4Z"/>
    <path id="LV-011" d="M230.7,234.6l2-2.7-.3-2.2,5-2.6,1-8h1.6c0,0,1.1.2,1.1.2h0l5.4,1,2.7,8.6h0l-.3,1.6h0l-2.6,3.3-5,2-1.3-.6-3,3.8-5.5-1.8-.6-2.6Z"/>
    <path id="LV-012" d="M198.2,267.5l-2.1-1-2.1-5.4-5.6-4.1-1.1.8-.8-1.7h-6.7c0-.1,0-1.5,0-1.5h0l-.9-2.8h0l3.7.5,1.2,1.1h3.3l.9-2.8,1.4,1.1h3.4l.6-1.2,5.4-.5.5-2.3,2.7,1.6,3.7-1.8,2.9.5,3.6-4h0l2.4-.2,1.1,1.2-1.6.3.8,1.5-2.7,1.5-1.8,2.4h0l-3.4,3.8-1.6.2-2.9,2.4,1.7,6.8h0l-1.5,3.5-2.7-2-.9.4v1.6h-1c0,0,0,0,0,0Z"/>
    <path id="LV-013" d="M250.6,274.2v4.6h.1-2.3c0,0-4.1,4.3-4.1,4.3l-4.1,1-.9.9,1.2.3-.9.4h0l-6.7-2.9-1.5-3.2h0l-1-1.2h-.7l-1-2.8,2.9-1.8.9,1.6,1-.7v-2c0,0-1.5-1.1-1.5-1.1l1.1-2.3,2.5,1.8,3.9-1.6,3.2.5,7.8,4.3Z"/>
    <path id="LV-014" d="M450.6,262l.2-3.1-1.2-1.1.6-.7,2.1-1,4.6.7.9-5.6,4.9-1.7,2-2.2,2.2.2-1.5-4.8h0l2.4.6,2.7-1.3h0l-.2.7,3.6.2-2,10.2-1,.9-2.4-.3-1.1,2.6-.9,7.5h0l-2.7-.5-.8-2-1.6.2-1.3-2.7h-2.3s.7,2.4.7,2.4l-7.8.7Z"/>
    <path id="LV-015" d="M432.1,214.6l2.4-.4.5-1.3,1.8,1.1,1-2.6h3.7s0-1.1,0-1.1l3.9-3.2,3.6,4.1,2.2-1.2,1.6.3v-3.1c.1,0,2.7.1,2.7.1l.4,3.2,2.5-.7h.5c0,0,0,1.4,0,1.4l-4.1,1.9-3.2,4.3-1.7,9.2,8,8.7,1.9-1.2.4,1.6-1,1.8.7,3.2,2.5-.9,2.4.8.7,2h0l1.5,4.8-2.2-.2-2,2.2-4.9,1.7-.9,5.6-4.6-.7-2.1,1-.6.7,1.2,1.1-.2,3.1h0l-3.5,2.3,2.5.4-1.4,1.6-1.9-1.2-1.5,1.2.8,4.3h-.3c0,0-2.7.3-2.7.3l-2.9-1.4-6.2.3-1.4-2.7-1.8,1-1.1-1h-3.5c0,.1,0,1.8,0,1.8h-2.7c0-.1.3-2.2.3-2.2l-3.2-.6-1.5,1.9-2.3-3.6h0l1.1-1.3h0l1.5-.8,1.7-3.2h4.8c0,0,4.2,1.2,4.2,1.2l1.3,1.7h2.3s4.5-6.2,4.5-6.2h1.4c0,0,1.4-1.6,1.4-1.6l2,.8,1.4-2.1-.9-5.1-.6-.5-1,1.9-2.6-1.4-.8-1.8,3.8-1.4.9-3.6,1.8-1.9-.9-1.5-2.9.6-3.8-1.2-5.1-2.5v-1s-1-.2-1-.2l-1.2,1.3-1-.4-.7-.8.5-3.1h-7.9v-.2h.1l5-7.6,2.4-1.3,3.8-6.5Z"/>
    <path id="LV-016" d="M241.7,301.1l.2,1.9,2.1.2,1.7,4.4,2.4-1.2,1.6,2.3,1.8.8-1.6,2.1.4,1.1,1.8.6-.9,3.3-5.4,3.2.2,1.1,3.9,1.6-3.3,3.5,3.1,2.5,1.2-1.2,3,1.1h0v4.1c.1,0-3.8.6-3.8.6l-4.7,3.1-2.2-.4-2.1-2.1-2.4.6-1.3-3-3.5-.3v1.6c.1,0-5.7,2.2-5.7,2.2l-1.9,2-3.8.5-1.7-3.6-3.4-.3v-2.2s-1.8-1.5-1.8-1.5l-.5-2.4h0l.3-1.1,2-.7.9-2.8h2.5c0-.1-.9-3.5-.9-3.5l2,1.2,4-.3-1-2.2-3.2-.5-4.4-4.2,1.1-2.2-1.3-5.9h0l2.5-3.1v-1.8h0l7,1.8,4.9,2.5,1.8-3.1,3.6-1,1.4.8,1-1.4,2.3,1.3Z"/>
    <path id="LV-017" d="M323.4,166l7.5-.7,2.8,3.3-.8,2.6,3.4.3,1.2,1.6-3.5,1.3,1.4,2.9,2,1,2.1-2.1.3,2.4-2.8,2.1h0l-3.1-.4-1.1,1.7-1.7-.6-2.6,3.1h0l-4.4-.6-2.7,1.8-.3,2.4-1.3.5h-.9c0,0-1.3-3-1.3-3l-3.2,2.1-2.9-1.7-1,1.2h0l-1.3-1.8.8-1.3-1.4-3.8.5-1.9h4.7l1.2-1.8-.3-2.1h0l1.8-.7,2.2-3.7,3.7-1.5,1-2.2h0v-.5Z"/>
    <path id="LV-018" d="M110.3,261.4l2.6,2.1,3.9-.5,1.7,2.8,1.8-.4.2,1.9,2.6-.5,2.2,1.9,5.3-1.5.4,1.6h0l2.2,3.5.6,6.8-1.6.3,1.1.8-.4,1.7h-1.4c0,.1-.7,1.8-.7,1.8h3c0,0,2.1,4.8,2.1,4.8l-1.3.6-.6,3.7-4.2-.5v2.6c0,0,2.3,2.1,2.3,2.1h0v.7c-.1,0-2.1-.2-2.1-.2l.5.7-1.7.7-1.5-1.1h0l-4.4-7.5-3.1-.8-.6,2.6-1.9,1.1-.6,1.7-1.4-.6v-5.5c-.1,0-2.3,0-2.3,0l-1.8-2.3.5-7.4-1.1-1v-2.6l-1.8.6-1.5-3.9,2-10.7,1.1-.2Z"/>
    <path id="LV-019" d="M323.5,166.6l-1,2.2-3.7,1.5-2.2,3.7-1.8.7h0l-1.3-1.6-4.9,1h0l-2-3.8-4.4-2.6-.5-2.1-4.4-5-.9-2.7-4.3,2.6-2.4-.4h0l-1.1-1.1.6-2.5-1.8-1.5,2.2-4.5-1.3-4.8-3.2-.7-1.7-2.7h0l2.4-2.2h2.3c0,0,3.4,2.3,3.4,2.3l.3-4.1-1.4-1.8,2.2-1.1h1s2.5,4,2.5,4l3.5,2.5,1.2-1.1h0l1.3.5,1.6,2.8,10.6-.7h1.5l3.9.5h0l3.9,1.3,7.5,5.6h0l-1,2.3h-3.7l.5,1.7-2.1,1.3.5,3.4-5.9.5-.2,1.1-1.5.6.7,2.5,4.8,1.8h0v.8Z"/>
    <path id="LV-020" d="M238.4,219.2l-1,8-5,2.6.3,2.2-2,2.7h0l-1.2-.7-3.2,2.3h0l-2.3-.3v-1.5l-2.2-1.8h0l5.8-4,10-10.1h0l.7.6Z"/>
    <path id="LV-021" d="M377.7,237.8l1,3.1-.6,2.5,2.6,2.4-1.9,4-2.8.5.6,2.8-4.6-1.6-1.4,1.2-3.2.2-1.9-5-3,1,2.3-2.6-.7-6.8.9-1.2v-5.1h0l.4-1.4,7.1,1.2,1.7-2.2.3,3.2,3.2,3.7Z"/>
    <path id="LV-022" d="M321.5,214.6l.9.6.7,4.3-1.1.9v3.3h-.1l-4.5-2.1-.6,1.8-3.1-.8-1.8-3.2-2.8-1-1.8-2.5,1.1-2.7-3.4-.9.5-2.5-1.5-2.3-2.9-2.1-3.1.3h0l.2-.9h0l.6-1.1-1-1.2.9-1.6h0l.3-.7h0l5.7,1.7.9,1.4-1.7,1.3.6,1.1,6.2-1,4.6,2.4,2.1,2.9-.7,4.7,2.7,1.4,2.1-1.3Z"/>
    <path id="LV-023" d="M461.7,298.1l-1.6-.8-.5-3.4,1.9-1.3h0l2-.7.5-3.5,3.3-1.4,1.3-2.1,2.9-.7,4.2,1,2-.8.8,2.5h-3.4s4.8,1.8,4.8,1.8l.9-1.4-1-2,1.3-6.3h1.9s1.3,3.4,1.3,3.4l4.1-.7h0l2.6,2.6-.3,4.5,2.2,5.5,1.1,1.2h4.6c0,.1,1.1,1.3,1.1,1.3v2.7s-2.5,1.3-2.5,1.3l-.7,1.7.5,2.2,1.6-.7.7.7-.3,2.1.8,1.2h-3.4c0,0-1.1,1.7-1.1,1.7l-1.2-2.5-1.6-.7-1.5,2.1-1.7.2-1.3,2.7h-1.4s-1.1-.4-1.1-.4v-2.5c0,0-2.2-1.6-2.2-1.6l-.6-1.7-2.2-.9-.9-1.9-2.7.6-.5,2-5.7-5.8h-1.1c0-.1-.9,1.4-.9,1.4l-4.8-2.8-2.1.3Z"/>
    <path id="LV-024" d="M472.1,371.5l-6.3-4.5-.8.9.4,2.7-3.5-.2-11.7-6.9-4,2.3-.7-1.2,1.7-5.6-8.1-1.1h0l-1.3-.9.6-2-1.2-.7,5.9-1.5,2.4-3-2.7-2.9.6-3.1h0l1.5-1h3c0,0,1,.2,1,.2v1s2.5.2,2.5.2l1.5-3.1-.8-1.3,4,.5,1.7-1,.5-2.2,4.2,2.3,4-.9,1.8.6h0l2.7,4.6,2.4,1.1h3.8s3.4,1.8,3.4,1.8l2.2-.9,1,1.3,2.4-2.1,2.9.3,4.5-3.4h1c0,0,0,2.6,0,2.6l1.6-.9h0l.2-.3h0l1,1.3-3.8,5.5,1.1,1.5h0l-1.4,2.1-3.2-1-1.4.7-5,9.1-2-.7-4.3,2,1.5,1.7-2.2,1.8.7,2.3-2,1.7-2.9.4Z"/>
    <path id="LV-025" d="M417,385.1l-.8-3.2,2.3-2.8-1.3-2.4,2-2.2-2.3-1.8-.4-4.3,2.3.2.6-1-1.8-3.9,1.4-3.2-2.7.3-1.5-4.3-1.4-1.4.3-2.2-.3-1.2-2.5,2.5-2.2-1.7-4.9,3.1h-3l-.9-3.2-2.7-.5-1.2,1-3.5-1.6-1.1-3.2-1.2.9-.2,3.6-2.4.2-1-5.4-2.8-3-2.5,2-2.5-2.9-3.4,1.8-2.5.7.3.2,2.7,3.7-.2,7.6.4.5.9,7.8,1.6,3.9-.9,1.3-2.6-.5-2.7,2.1-.5,1.7h-1.2v2.3l2.8.6-3.1,1.4-.7,2.2,1.2,2.3,4,3.1-.8,2,.8,1.3-1.2.8-1.8-.9-3.3.7,2.3,6.3,3,2.9,2.8.5,2,4.3h5.6c0,0,4,3.1,4,3.1l5.3.6,2.6-.8,1.5-3.1,4.3.7,1.7,2.3,2.7.6,1.2-2.4,4.9-2,3.6-9.2h1.7c0,0,2.2-3.1,2.2-3.1l.2-6h-3ZM391.9,385.4l-1.6,2-2.2-1.2-1.7,1.1-1.6-2.5,1.2-1.8-3.4-5.9,1.8-.6,5.3,2.3,3.2-5.3,1.6,4.2.8,6.3-3.5,1.4Z"/>
    <path id="LV-026" d="M173.7,306.9l-1.3-5.5-2.3-2.1-.6,2.1-4.7,3.5.4,3.7,1.9.6-.8,1.7-.9.5-4.1-1.5-4,1.1-1.5,1.8h0l-.2-.4h0l-1.8-1,.6-2.2-2.9-1.3.6-3.2-1.1-4.8,1-1.2-1.8-.7-2.6-3.6-2.8.9-1.9-2.3-2.1.4-.4,1.5,1.4.8-3.4,1.2-3.2,3.6-1.2-.5v-3.1s-1.7-.2-1.7-.2h0l-2.4-2.1v-2.6c0,0,4.2.5,4.2.5l.6-3.7,1.3-.6-2.1-4.9h-3c0,0,.7-1.6.7-1.6h1.4c0-.1,1.5-.1,1.5-.1l.6-1.2,1.2.5v-1.1s2-.6,2-.6l8.4-.5.9,2.9,5.7.4.4-1.3h0v-.5h0l4.5,1.4.7-.8-.9-1.3,1.2-1.7,5.5,1.7,4.7-5.1-2.5-2.9,1.7-.6,2.4-3.2.7-.3.6,1.8,4.5-.7,2.6-2.1h0l1.4-.2,1.5,7.5-4.9,2.2-2.2,2.7-.4,1.7,3.5,1.1,1.5,1.6-2.4.5,1.5,2.7-3,1.6v2.3c0,0-2.4.8-2.4.8l-.2,2,5.6.8.4,1.2-4.3,1.1v1.9c.1,0,3.2,1.7,3.2,1.7l-1.8,4.4.4,1.3-2.8,1.6Z"/>
    <path id="LV-027" d="M115.9,156.7l-2,.6-.7,4.1,1,2.6,3.7,4-1.7,3.7,1.2,1,.7,4.6h0l.3,1.5h0l-3.5,1.5-1.8-1.6-.8.4-1,4.2-2,1.3-1.8,6.1-3.3-.9-4.3,2.4-.6-3-2.9-1.5-1,1.8-.7-1-1.8.9-.5,1,.8,1.3h0l-4.2,1.3-3.3-.6-4.1-2.8,6.7-3.3.9-1.4-1.2-.4-.5-1.9,1.9.5,4.2-4h2.1c0-.1-.8-6.4-.8-6.4l-1.8-3.9.2-2.6h.8c0,0-2.1-3.3-2.1-3.3l-1.8,1.2,1.4-1.8-1.8-2.6,21.7-11.2,6.2-1.9-1.9,10.3Z"/>
    <path id="LV-028" d="M47.4,297.7l-1.7-1.2-3.3,2.3-.5,1.4,1.7,2.6-.5,1.1h-1.4l-6.2-5.1-.8.9.3,3.3h-3.3c0-.1-.6-2.2-.6-2.2l-4.3.8-1.6-.6,1-1.1-1-.8v-3.1c0,0,1.6-3.1,1.6-3.1l-2.4-6.1h0l.4-1.6h1.5c0,0,.9-1.2.9-1.2v-2.6l-2.8-4.1,1.6-2.3,2.2.5h0v1.9c.1,0,3.2,2.9,3.2,2.9l3.4,1.4.4,2.7,2-.9-.2,2,1.7,1.8,7.8-2.2,2.2,1,1.5,9.8-2.7,1.4h0v.2Z"/>
    <path id="LV-029" d="M177.9,251l-7.1,2.4-5.9-1.1-2.7.5-2.7-1.6-3.4,1.1-2-.4,1.8-3.2,2.9-1.2-.2-1.4h-1.7c0,0-1.4-1.4-1.4-1.4l2.2-3-1-1.7,3.2-1.4v-2c0,0,1.5-1.1,1.5-1.1l-2.7-6.6-3.1-2.2-1.4.6-4.3-3.3,2.9-2,.5-3.5,1.5-1.1-1-1-.4-4.8h0l-1.1-6.1.8-1.6,2.1-.7h0l2.3,7v3.7c0,0,4,9.1,4,9.1v6.7c.1,0,1.5,2.5,1.5,2.5l6.5,5.3,9.4,1.8,2.3,5,2,2h0l-5.1,1.8-.4,3.3Z"/>
    <path id="LV-030" d="M331.3,272.8l-2.4-4.2-5-2-3,.8-2.8-1.7h0v-2.7c0,0-.8.2-.8.2l-1.2-1.6h.9c0,.1-.2-1.7-.2-1.7l4.5-.8-3-3,2.1-4.2-1.3-1.5-.8-4.7-1.7-.4.3-1.3h0l.7-.9,5.1,3.3,4.6-3.1v2.7s-1,.8-1,.8l.9,1.7,4.7-3.3.8-1.7h2s1.4,2.4,1.4,2.4l1.1.3,1.8-1.6,2.4,2.5.2,1.4,3-.3h0c0,0,3.9,4,3.9,4l-.6,2.4h-3.4c0,0-.4,1-.4,1l-2.2-1-1.4,1.2-1.5-.5-3.1,1.3-1.9,2v2.1c-.1,0,1.7,2.9,1.7,2.9l-.3,1.9h0l-1.3.8,1.5,1.4-1.4,1.8.3,1.7-2.8,1.8Z"/>
    <path id="LV-031" d="M239.3,247.8l-2.2-1.1h0l-.6.2h0l-3.7-4.6-4.2-1.6-.7-3.2-1.4-1.2h0l3.2-2.3,1.2.7h0l.6,2.6,5.5,1.8,3-3.8,1.3.6,5-2,2.6-3.3h0l1.4.5-1,1.9.7.6,2.8-1.1,1.6,2.7h0l-1.1.8-1.6-1.3-1.8,2.2.9,5.2-8.9,1.2-.7,1.4.8,1.2-2.6,1.9Z"/>
    <path id="LV-032" d="M31.6,302.8v3.4c0,0,2.8.9,2.8.9v3c-.1,0,2.4,3.5,2.4,3.5l1,3.6-1.1,5.9-2.4,3.9h0l-7.7.5-2.9-3.3h0l-1.2-9.5-1.3-.4-1.7,1.3-2.4-1.8-.6-7.6-5.1,1h0c0,0,0-2.6,0-2.6l1.1-2.2,2.3-1.5v-3.9h-2.2s0-4.6,0-4.6l-3.7-.6h0l.8-2.9h0l2.3,1.2,3.4-.3v-4.3c-.1,0,1.3-2.3,1.3-2.3l3.8,4.3,3.4-.9h0l2.4,6.1-1.7,3.1v3.1c0,0,1.1.8,1.1.8l-1,1.1,1.6.6,4.3-.8.6,2Z"/>
    <path id="LV-033" d="M371.1,201.3l5.2,1.7,5.9-1.5-.7-2.6-2.3,1.3-.3-1.9h2.4c0,0,.7-2,.7-2l3.8-.4-1.9-3,.9-1,1.5.6,2-1.1-.3,1.3,1.9,1.2,1.8-1.4h0l1.3,1.3h0l.6,3,2.8,1.8-.7,1.9,3.4.3-.2,2,2.5,1.7h2s0-2.2,0-2.2l1.5-.4,2.2,1.7,4.1-.4.9,1.9,7.7-1,3.3,3.4,3.3,1.4-1.9,1.3-.3,1.5,7.8,3h0l-3.8,6.5-2.4,1.3-5,7.6h0l-.6.9h0l-3.5,6.7-5.4,2.8v2.2c0,0,1.2-.2,1.2-.2l-1.2,3.1h0l-4.8-.6-.8-1.1-3.2.9-1.6,2.1-1.1-.8-3.3,1.1-4.3,3.1-1-.5h0l-1.7-9.1-3.1-4.2-1.2.5-2.4-1.8-1.2,1.5-3.9,1.2h0l-3.2-3.7-.3-3.2-1.7,2.2-7.1-1.2-.4,1.4h0l-1.3-.7-3.4,1.2-1.1-.5h0l1.8-1.9.3-2.4,2.2-2v-1.6s-3.3-3.6-3.3-3.6l-1.1-4.5-2.6-1.4-3.9.2h0l-.9-3.7,2.7-1.1.6,1,1.2-.5-.7-2.3h0l2.4-2.1,2.6,1.5,2.4-1.1h7.4c0,0-.8-3.2-.8-3.2h1.5c0,.1.8-.9.8-.9l-.7-2.4Z"/>
    <path id="LV-034" d="M239.6,285.7l1.2,3.7-.3,1h-4l.3,6.4.7,1,4,.3v2.9h0l-2.3-1.3-1,1.4-1.4-.8-3.6,1-1.8,3.1-4.9-2.5-7-1.8h0l1.1-.6,1.6-3.7h-5.2c0-.1-.2-1.6-.2-1.6h-1.7s-.7-2.1-.7-2.1l1.6-.5-.5,1.3,1.3.5-.2-1.3,2.2-.3-.6-2.3h-1.2c0,0,1.6-1.2,1.6-1.2l-3.9-.9-.8-1.8.3-1h1c0,0,.8,1.7.8,1.7l1.5-.2-.6-4.4h0l1.4-.6,2.3,1.5.7-1.1.7,2.7,1.9.7.5-.8.7,1.3v-1s1.9-.7,1.9-.7l-1.4-.7.9-.2v-1.5l.4,1.1,4.1-1,.2-2h0l1.5,3.2,6.7,2.9Z"/>
    <path id="LV-035" d="M248.9,255.9l4.6-.7.9,1.2h5.5l4.3-.9h0v.7h-.1v1.2s3.3,2.7,3.3,2.7l-.3.7-2,.2-1.4,1.3-1-.9-1.5.2-2.4,3.5-3.4-1.1-2.2,1.7h0l-2.8,1.2h-1.3c0,.1-4.1-4.1-4.1-4.1h0l.9-3.2-1.6-3,5.2,3-.4-3.9Z"/>
    <path id="LV-036" d="M376.1,358.1l.9,7.8,1.6,3.9-.9,1.3-2.6-.5-2.7,2.1-.5,1.7h-1.2v2.3l2.8.6-3.1,1.4-.7,2.2,1.2,2.3,4,3.1-.8,2,.8,1.3-1.2.8-1.8-.9-3.3.7h0l-.5-2.4-2-2.7-5.4-2.4-1.9-2.4-3.2-6.8-10.3-5.8h-2.7s0-2.6,0-2.6l-1.6-1.2-.8-2.4h0l1-.2.2-2.5,2.3-1.5-2.4-1.9-.8-2.5,5.1,3.3,2.4,4.1,5-3.2h0l2.6,2.7,3-2.4,1.2-3.1,2,1.7,1.1-2.9-1.2-1.2,5-5.3h1.2s1.6.6,1.6.6l.3,2.4,2.4-1.4,1.8.7.7,1.5-.8,1.3.3,4.1,1.3,1.5h0l.6.7Z"/>
    <path id="LV-037" d="M268.6,225.9l-.9,3.5h-2c0,0,1.6,1.6,1.6,1.6v1.9s-3.4,1-3.4,1v1c0,0-1.9.7-1.9.7l-2.8-1.3-1,.7h-3.8c0,0-1.6-2.8-1.6-2.8l-2.8,1.1-.7-.6,1-1.9-1.4-.5h0l.3-1.6h0l3.4-1.3,1.3-2.6,6.5,1.5h0l.6.4,4.2-2.6h2.8c0,0,.6,1.6.6,1.6Z"/>
    <path id="LV-038" d="M321.2,296.6l.2,1.1,3.7-.8-.4,3.3-2.5,1-1.2,3.2,3.3,3.7v1.7h0l-3,3.2-2.5-.8-3.4,4.8-5.5.4-5.7-1.6-.4,1.4h0l-9.7-1.5-4.7.2-1.2-5.9-1.5-.8-1.8-4.3h0l-.3-4.8-3-2-.6-2.4h0l4.1-1.1,1.5-1.2v-1.4h0l2.6-2.4,2.9.6h0l9,6.5,1.3-2.8h2.8s3.5-3.2,3.5-3.2v-1.1l3.4-1.6,5.5,4h0l.2,3.8,3.2.5Z"/>
    <path id="LV-039" d="M346.5,231.1h-2.4s-3.1-4.3-3.1-4.3l-4.3-1.1-.6-1,.8-2.2-1.4-1.7.7-3.8h.8c0,0,3.1-.8,3.1-.8l1.8,3.2,1.7.5,4-.6,5.1-3.3h0l3.9-.2,2.6,1.4,1.1,4.5,3.3,3.6v1.6s-2.2,2-2.2,2l-.3,2.4-1.8,1.9h0l-2.8-2-2.8,2.3-4.9-3-2.3.6Z"/>
    <path id="LV-040" d="M140.7,261.4l.6.5-3.8,3.1,1.7.9.6,1.9,2.9,1,5.6-1.8,2.4,8.7,1,1.9,1.4.4.4,1.7h0v1h0l-.4,1.3-5.7-.4-.9-2.9-8.4.5-2,.6v1.1s-1.2-.5-1.2-.5l-.6,1.2h-1.5l.4-1.7-1.1-.8,1.6-.3-.6-6.8-2.2-3.5h0l1.7-2.7,1.8-1-.5-3.5,1.9-.7,5,.7Z"/>
    <path id="LV-041" d="M179.8,256.1h6.7c0,.1.8,1.8.8,1.8l1.1-.8,5.6,4.1,2.1,5.4,2.1,1h0s-1.1,7.6-1.1,7.6h0l-2.2.5-.7,1.9-2.3.8.9,1.2h2.8l.7,1.9-.9.2h0l-1,.6h0l-2.4,1.8-2.3-1.2-1.4,1.1,1,2.4,2.7,2.4-.3,4.5,1,.7,1.5-2.1,4.7-1.5.2-.8-2-1,1-1.2,1,.4h0l3.1.8,3,2.2,3.7.4,2.6,4.8,1.2,5.5,4.3,3.6h0l-2.2.9-3.9-.3-2.1,2.9-3.4.5-2.5,4.6v1.2c0,0,1.2.7,1.2.7l-1.2.7.5,1.9h-1.1c0,.1-.3,1.5-.3,1.5l3.7.3-1.2,2.2.3,3.9h0l-4.5-.2-1.5,2.6-1.1-.3,1-4.9-1-1.4-9,1.5-6.1,3.6-7.3-2.4-1.5-2.3-2-.9h0l3.3-.9,2.4-2.6-2.3-2.9-.5-2.2.8-1.1-1.8-.4,1.8-2.9-2.1-1.4h0l2.8-1.6-.4-1.3,1.8-4.4-3.1-1.7v-1.9c-.1,0,4.2-1.1,4.2-1.1l-.4-1.2-5.6-.8.2-2,2.3-.8v-2.3c0,0,3.1-1.6,3.1-1.6l-1.5-2.7,2.4-.5-1.5-1.6-3.5-1.1.4-1.7,2.2-2.7,4.9-2.2-1.5-7.5-1.4.2h0l-1.5-8.7,2.3-1h0v-.7Z"/>
    <path id="LV-042" d="M345.8,306.4l1.5,2.1,8.7,3.2,2.3,6h0l3.1,1.1,1.4,2.5,1.9,10.3,1.3,2.7-1.4,5.1,6.3,3.6,2,3h0l.4.3h0l2.7,3.7-.2,7.6h0l-.2-.3h0l-1.3-1.5-.3-4.1.8-1.3-.7-1.5-1.8-.7-2.4,1.4-.3-2.4-1.6-.7h-1.2s-5,5.4-5,5.4l1.2,1.2-1.1,2.9-2-1.7-1.2,3.1-3,2.4-2.6-2.7h0l-.4-2.7-2.1-.5-1.8-2.5,1.3-1.7-.3-1-4.9-2.5-1.3-6.1-5.4-2-7.7.4h0v-2.1h0l-1.1-4.5,1.1-1.4h2.9l.6-7.2h4c0-.1.6-2,.6-2l1.7-.8v-2.7c-.1,0,1.7-.5,1.7-.5v-1.1c.1,0-2.8-3.5-2.8-3.5l1.2-4.4h0v-.4h0l4,1.2,1.8-2.9Z"/>
    <path id="LV-043" d="M110.3,261.4l1.5-2.4.3-3.2-.4.6-.3-1,1.7-.6v-1.9c0,0-3.8-.7-3.8-.7l-2,1.2h0l-.2-2.6,1.4-.6.2-4.6.6.3,1.7-4.7h0l3.4,1.5,1.4-1.1-1-.3.2-1,2.1-.3,3.3,1.4.8-2.3-1.2-4.5.2-3.5,9.1-1.9,2.5-3.6.9.7,3.4-1,4.4,1.4h0l.6,1.8-3.9,3.8-3.4,1.4.7,1.5-.7,2.8,2.3,1.3v1c.1,0-.5,1.9-.5,1.9l-2.8.7-.6,3.8.9,3.4,2.5,2.9h3.4l.4,3.9-1,.8,2.3,3.8h0l-5-.7-1.9.7.5,3.5-1.8,1-1.7,2.7h0l-.4-1.6-5.3,1.5-2.2-1.9-2.6.5-.2-1.9-1.8.4-1.7-2.8-3.9.5-2.6-2.1Z"/>
    <path id="LV-044" d="M461.6,292.6l.4-2.9-2.9-.5-1.7-2.8-1.4-.3-1.4,1.5-1.6-3.2,1.7-1.6.6-5.1,1.6-1.2-.4-2.8-2.4-1,.7-1.8-7,.6-1.9-1.1h-.3c0,0-.8-4.3-.8-4.3l1.5-1.2,1.9,1.2,1.4-1.6-2.5-.4,3.5-2.3h0l7.8-.7-.7-2.4h2.3s1.3,2.7,1.3,2.7l1.6-.2.8,2,2.7.5h2.1c0-.1,3.1-2.6,3.1-2.6l5.3-.9,3-1.8,1.5.4-.3,1.2,2.4,5.6,4.3-1.8.6,3-2.2,1.3v3l-1.9.5-1.2,2.7,3.2,4.6,2.4,1.2-.3,1.7h0l-4.1.7-1.3-3.4h-1.9s-1.3,6.3-1.3,6.3l1,2-.9,1.4-4.8-1.8h3.4s-.8-2.6-.8-2.6l-2,.8-4.2-1-2.9.7-1.3,2.1-3.3,1.4-.5,3.5-2,.7Z"/>
    <path id="LV-045" d="M289.7,159.9l2.4.4,4.3-2.6.9,2.7,4.4,5,.5,2.1,4.4,2.6,2,3.8h0l.7,4.5h0l-.5,1.9,1.4,3.8-.8,1.3,1.3,1.8h0l.7.3-1.7,1.6,1.2,1.9-1.3,1.4-.2,2.4h0l-2.2.7-.3-2.3-1.3-.8-2.3,2-2.2-.9-1.2-2.3-1.7-.6-.3,1.5-1.4-.5-1.5-4.2-2.6-1.8.2-3.4-1.5-1-1.6.7-.7-1.4-1.3-.2h0l1-1-2.6-.5.6-1.8-3.4-5.2-5.6,1.6-.8-.6-1.3-2.5.7-3.8h0v-.4h0l2.1.5,4.8-4.5,1.2.5.5,2h2.2s.8-1.1.8-1.1l-.8-3,2.7-.5Z"/>
    <path id="LV-046" d="M318.1,265.7l2.8,1.7,3-.8,5,2,2.4,4.2h0l-1.4,1.6-4.5-1.2,1.5,2v3.8l-3.4.8,1.2,3.1-3.8,4.2-1.4,5.2h-1.8c0,0-5.5-4.1-5.5-4.1l-3.4,1.6v1.1l-3.5,3.3h0l-1.5-5.3.3-4.4-1.4-3.3h0l.9-3.5-2.5-1.1v-.9s4.5-2.9,4.5-2.9l5,.7,1.3-1.8,1.8.5,2.4-2.3.9-3.5,1-.6Z"/>
    <path id="LV-047" d="M472.1,371.5l-5.9,5.4v1.9s-2,2.6-2,2.6l1,5.7-1.9,7.2-12.4-.9-4.6-2.5-1.2,1.8-4.6,1.7-2.3-1.1-3.1-4.5-2.2-.6-1.2-1.9-3.3,1-.6,2.1-5.7-.3-2.4,1.8h0l.2-6-3,.2-.8-3.2,2.3-2.8-1.3-2.4,2-2.2-2.3-1.8-.4-4.3,2.3.2.6-1h0l3.7,2.1,2.5-1.7,5.5.8,2.6-2.2.3-5.4,3.4-.8,1.7-2.4h0l8.1,1.1-1.7,5.6.7,1.2,4-2.3,11.7,6.9,3.5.2-.4-2.7.8-.9,6.3,4.5Z"/>
    <path id="LV-048" d="M261.1,215.2l2.3-.7.6-1.4h-1.8s-.9-6.7-.9-6.7l-2.3-.7-.5-1.6,3-1.7,1.9-2.9-1.3-4.5,3.9-3,1,.6-.3,1.8,5.7.6h0l2.5,5.8,2.4.4-2,2.6,1.2,2h1.1c0-.1,2.3,2.2,2.3,2.2l-1,3.5h-.2s-1.9,2.4-1.9,2.4h0l-.2,1h0l-1.4,4.7-4.2,1-1.3,3v2.6c.1,0-.9,0-.9,0h0l-.6-1.5h-2.8c0,0-4.2,2.5-4.2,2.5l-.6-.4h0l.9-1.6-.3-3.9-.8-.8h-3c0,.1,0-3.1,0-3.1h2.8c0-.1,1.1-1.9,1.1-1.9Z"/>
    <path id="LV-049" d="M358.3,317.7l-2.3-6-8.7-3.2-1.5-2.1h0v-1.3l1.6-.7v-1c.1,0-3.3-1.2-3.3-1.2l-3.5.6h0l-5.2-1.3-1.5-4.1,1.5-2.8v-2.8h.1l1.7.9,3.9-.6,6.3-3.2h0l3.3-3.4,1,2.9,1.5.5,1,2.3,7.3-4.7,1.6,1.9,2.1-.7,1.9,5.5,3.9-2.2.6,4.3h2.1c0,.1,3.3-2.9,3.3-2.9l1.3-4.5h0l7.4,6.1h7.5s-1,6.5-1,6.5l1.9-1.4,1,2h0l-2,5.1,1.2-.3v1.7c-.1,0-2.5,0-2.5,0h-.9s-1.3,0-1.3,0v-1c.1,0-4.2-.6-4.2-.6l-3,3.3-5.2,3v-2.9s-3.6-3.2-3.6-3.2l.8-1.3-3.9-1.5v1.6c-.1,0-2.6,1.3-2.6,1.3l-5,8.6-4.7,2.8Z"/>
    <path id="LV-050" d="M88,268.8l-1.9-1.7-2,.5-1.3-2.6-3.2-.3-.8,1.1-1.9-1.2-1,.4-2.3,2-1.2,2.8,1.9,8.2-1.1.9-2.3-1-2,.6-1.2,1.5-2.2.5-.7,1.9h0l-4.6-2,1.1-.9v-2.5c0,0-1.2-.3-1.2-.3l.4-1.6-1.2-2.6-3.7-3.1-3.4-.2-3.3-6.6-5.7.4-.3-3.1-2.5-1.9h0l1.3-3.2h0l3.8,1.3,1.8-3.6,3.9.7.7-1.7,3.2-1.1,1-1.7-1.5-5-4.1-4.3.2-2.8-1.8-.2-3.7-3.1h0l1.8-1.8,1.6.5,3.5-4.3,3.2,1.3.8-1.8,3.2,2.3,2.6-.2.5,1.5-1.1.9.8,1.2.6-1,1.7.9,1.3-3,2.4.6.9,1.2,1.4-1.3,2.2.7,1-1.1,2.7-.2.9-1.5,3.7,1.9h3.8c0,0-.1-1.3-.1-1.3l4.1-.6.9-1,1.1-8.2h0l1.2,1.6,1.7.2-.7,3.5,2,2.2,5.9,2.1.9,7-1,.4v1.5s.2,1,.2,1h1.2c0,0,.6,2.9.6,2.9l4-.8,2.3.9,1.4-1.4.6.7h0l-1.7,4.7-.6-.3-.2,4.6-1.4.6.2,2.6h0l-1.5,3.9-2.1.7-2.9-2-.6-3.1-3.2-1.1-1.2,1.8.6,2h-1.2c0,0-.4,1.9-.4,1.9l4.3.4v1.7c.1,0,1.6,1.3,1.6,1.3l-1,1.7-1.5-.2-.8,2-3.6.3-1.6,1.2-1.2,3.5-2.9-.4Z"/>
    <path id="LV-051" d="M286.7,292.2v1.4s-1.6,1.2-1.6,1.2l-4.1,1.1h0l-3.7.8-1.1-.7-2.2,1-1.8-.5-7.3,3.8-2.2-.8-1.8.5-.9-2.7,2.4-.2v-1.8c0,0-1-.9-1-.9l-1.3.5.4-1.8h-3.5s-2.3-6.4-2.3-6.4v-2.5c.1,0,3.7-.2,3.7-.2l-.4-4.7-6.9.4-.3-1h0v-4.6h-.1l1-1.9-.6-2.3-1.4-.9v-2h.6s2.8-1.3,2.8-1.3h0l2.2,1,3.1,5.2,4.5,2.5,3.2-.6.4-2.2,2.2-.9.2-.9-1.6-.2.7-3.4,2.4.2.3-3.9.8-.5,2.3,2.1.9-1,.8,1.7,2.7,1.4h0v.6h.1l-3.4,4.5-1.8.7-.5,4.3-.8.6-3.4-.7-.9,1.3,2,1.6,4.5,1.3,1.4,5.6,5.4,5.1,3.3,1.2,2-.3h.7Z"/>
    <path id="LV-052" d="M244.8,263l4.1,4.2h.8c0,0-.1,1.9-.1,1.9l1.4.9.6,2.3-1,1.9h0l-7.8-4.3-3.2-.5-3.9,1.6-2.5-1.8-1.1,2.3,1.4,1.1v2c0,0-.9.7-.9.7l-.9-1.6-2.9,1.8,1,2.8h-2.6l-1.5-1.1-11.8.5h0s.1-.5.1-.5h0l.5-3.7,2.6-2,3.5.2,1.2-3.5,1.5-1.4v-2.9c-.1,0-2.7-2.8-2.7-2.8v-2.6h0l.9-2,1.8-.8,1.2,1,.9-1.6h.9c0,0,1.7,3.6,1.7,3.6h0l-.5,1.7,2.9,3.2,1.6.4,4.1-1.4,5.9,1.2,2.7-.7Z"/>
    <path id="LV-053" d="M286,292.3l-2,.3-3.3-1.2-5.4-5.1-1.4-5.6-4.5-1.3-2-1.6.9-1.3,3.4.7.8-.6.5-4.3,1.8-.7,3.4-4.5h0v-.4h0l1.7-1.1.7,1.9,3.6,1,1.8-.5,4,6.6v1.6h0l-3.8.3-.5.9,2.1,3.4-3.1,1.4-.7,6.3,1.9.9v3.2Z"/>
    <path id="LV-054" d="M260.3,146.6h1.4l3.8,4.6h3.5c0,0,2.9,1.8,2.9,1.8l.6,6.5,4.1,2.2-.5,3.9h0v.8h0l-.7,3.8,1.3,2.5.8.6,5.6-1.6,3.4,5.2-.6,1.8,2.6.5-1,1h0l-1.1,2.6-2.7-.7.5,1h-1.1c0,.1-.2,1.5-.2,1.5l-6,5-4.1,1.9-4.7-1.9-.3,1.2,3.8,1.8.6,2.2h0l-5.7-.6.3-1.8-1-.6-3.9,3,1.3,4.5-1.9,2.9-3,1.7.5,1.6,2.3.7.9,6.6h1.8s-.6,1.4-.6,1.4l-2.3.7h0l-1-1.4-2.1-.2-.7-3.7-3.5-3.2-.3-3.6-2.1-.3-6.5,3h-1.2c0,0-.2-4.6-.2-4.6l-1.6-2.4h0l-.3-6.3h0l6.8-1.5,2.3-4.4h2.5c0,0,1.3-2.3,1.3-2.3l-2.4-2.2-.2-7.1h-2.4c0-.1-.2-2.7-.2-2.7l-.9-.6h-3.9c0,0-.7-12.7-.7-12.7l5.3-1.2,1.8,1.1,3.8-.6-2.2-1,.6-2.9,1.4-1.2h3.1c0,0-1-1.5-1-1.5l.8-1-.6-2.2,3.6-1.9Z"/>
    <path id="LV-055" d="M289.4,227.8v-.6h0l-7.2-.5-1.2-1.7,1.2-.5-.6-4.8-2.1-3.5-3-1.5h0l.2-.9h0l1.9-2.3h.1s8.2-.6,8.2-.6l2.1-1.2h0v2.2l4.9,1.6.9,8.2,2.1.6-2.7,4.5-4.8,1.1Z"/>
    <path id="LV-056" d="M372.9,346.1l-2-3-6.3-3.6,1.4-5.1-1.3-2.7-1.9-10.3-1.4-2.5-3.1-1.1h0l4.7-2.8,5-8.6,2.5-1.3v-1.6c.1,0,4,1.5,4,1.5l-.8,1.3,3.6,3.2v2.9s5.2-3,5.2-3l3-3.3,4.3.6v1c-.1,0,1.2,0,1.2,0h.2s0,5.8,0,5.8l1.5.8h.3l-.6,4.3-1.9,3-3-2.4h-1.5l-1.2,4.7h1.6l1.7,2.3,4.2,2.1.9-.4-.4,2,1.6,3h0l-1.7.8-.7,1.7-5.3-1.8-4.5.5-3.1-5.8-1.5.8-.2,4.5h-2l-2.7-2.1-.5,2.1,1.7,6.1-1.3.2,2.7,5.5h0l-2.5.7h0Z"/>
    <path id="LV-057" d="M417.3,263l-.9-1.3-2.7-.7-1.5-3.1-1.5-.5-5.9,1.6-3.2-1.6-9.5,11.6-1.2-.9-2.6.5-1.4-1.3,1.6-1.5-.2-.9-2.6-.9-.7-2.5,6-9,.2-3.2h0l1,.5,4.3-3.1,3.3-1.1,1.1.8,1.6-2.1,3.2-.9.8,1.1,4.8.6h0l.4,1.2,3.6-.2-1,4.6,4.1,2.3.7,4,1.5,1.7h0l-1.7,3.2-1.5.8Z"/>
    <path id="LV-058" d="M502.4,318.8l-3.4-.6-2.9,1.6-2.4-2.7h-3.1l-.5.8,1.8,4.7-.5,1-3.7.7-7.1,6.1,1.4,5.4,4.4-.5-.5-2.7,2.8-.5,2.3-2.3,3.1,1.8,5,5.6-2.8,5.7h0l-.3.6h0l-1.6.9v-2.5s-1,0-1,0l-4.5,3.4-2.9-.3-2.4,2.1-1-1.3-2.2.9-3.4-1.8h-3.8s-2.4-1.2-2.4-1.2l-2.7-4.6h0l2.1-1.6-1.3-2.7,2.5-4.3-3.1-3.5,1.3-4.8-4.2-.9-.9-1.9,1.2-1-1.5-.9.9-1.1-2.2-1.1-1.4.8.6-1.3-1.1-.4-2-3.7.2-1.7-3.1,1.7-.9-1.8.4-1.5-1.2-.9.7-1.5-.7-.9,1.4-2.5h5.1c0,.1.7-3.5.7-3.5h0l2.1-.3,4.8,2.8.9-1.5h1.1c0,.1,5.7,5.9,5.7,5.9l.5-2,2.7-.6.9,1.9,2.2.9.6,1.7,2.3,1.6v2.5c0,0,1,.5,1,.5h1.4s1.3-2.7,1.3-2.7l1.7-.2,1.5-2.1,1.6.7,1.2,2.5,1.1-1.7h3.4c0,0,3.4,4.4,3.4,4.4l-.8,3.3.9,1.9-1,1.1Z"/>
    <path id="LV-059" d="M405.1,283.7l-4.5-1.5v-2.1h-4.6s-1.7,1.3-1.7,1.3l-1,2.7-1.4-1.3-4.4,2.4-9.1-.8v3.5h-.1l-1.3,4.5-3.3,3.1h-2.1c0-.1-.6-4.4-.6-4.4l-3.9,2.2-1.9-5.5-2.1.7-1.6-1.9-7.3,4.7-1-2.3-1.5-.5-1-2.9-3.3,3.4h0l-.6-2.5,1.8-3.3-1.9-1.5-2.6.3-3.1-2-1.2-4.6,1.9-2.5-.7-3.5-1.8-.7-3.1-3.9-1,.4h0l.3-1.9-1.9-2.9v-2.1c.1,0,2.1-2,2.1-2l3.1-1.3,1.5.5,1.4-1.2,2.2,1,.4-1.1h3.4c0,0,.6-2.3.6-2.3l-3.9-4h0s2.4-1.5,2.4-1.5v-3.7s-2.9-1.2-2.9-1.2l2.5-10.7h0l2.3-.6,4.9,3,2.8-2.3,2.8,2h0l1.1.5,3.4-1.2,1.3.7h0v5.1s-.8,1.2-.8,1.2l.7,6.8-2.3,2.6,3-1,1.9,5,3.2-.2,1.4-1.2,4.6,1.6-.6-2.8,2.8-.5,1.9-4-2.6-2.4.6-2.5-1-3.1h0l3.9-1.2,1.2-1.5,2.4,1.8,1.2-.5,3.1,4.2,1.7,9.1h0l-.2,3.2-6,9,.7,2.5,2.6.9.2.9-1.6,1.5,1.4,1.3,2.6-.5,1.2.9,9.5-11.6,3.2,1.6,5.9-1.6,1.5.5,1.5,3.1,2.7.7.9,1.3h0l-1.1,1.3h0l-9.9,15.1-1.2,4.3Z"/>
    <path id="LV-060" d="M290,106.6l1.4,2.6-1.7,5.8,3.2,5.5-1.3,2.4,1.4,2.5,3,1.3,1.9,3.3v2.3s2.9,1.9,2.9,1.9v6.3h0l-1.2,1.1-3.5-2.5-2.5-3.9h-1s-2.2,1-2.2,1l1.4,1.8-.3,4.1-3.4-2.3h-2.3c0,0-2.4,2.1-2.4,2.1h0l-2.2-1.3-1.8.7-3.4-2.5-1.9-9.8-2.2-1.4-.2-9.2h0l8.1-5,3.9-.3,4.9-6.7h1.3Z"/>
    <path id="LV-061" d="M270.7,245.3h1.5s.6-2,.6-2l3.1-1.8-1.2-3.2,1-1.1.2-3.1-1.8-2.3v-2.3c.1,0,2.2,2.9,2.2,2.9l2.8.9,2.9-.6.8,1.8-.6,1.2,3.3,1.2.7,2.8,1.1-.4,5,3h0l.8,2.1-.9.9,1.1,1.7-.6,2.4h0l-4.2.2-2,2-1.7-2.2-1.8,1.1-.2,1.3-1.4-.4-1.2-2-1.5,2-1.1-.3-1.4,1.2h-2.7c0,.1-1.9-1.1-1.9-1.1l-2.2.6h0l-.5.4h0l1.7-3.5h0v-3.1Z"/>
    <path id="LV-062" d="M218.5,258.5h-1.2l-.8,2.4-2.1,1-2.5-1-7.8,3.3h0l-1.7-6.8,2.9-2.4,1.6-.2,3.4-3.8h0l8.3,4.1-.2,3.5Z"/>
    <path id="LV-063" d="M144.8,193.4l.7-1h0l2.4,3,5.8,1.5,1.5,6.2h0l-2.1.7-.8,1.6,1.1,6.1h0l-2,.5-.2,1.4h0l-3.4-2.6,1.4-2.6-1.4-3.5-5,1.1-.8-2.4-2.3-.7-1.4-3.7,2.4-1.9,1.6.6,2.9-1.2-1.2-1.6.9-1.6Z"/>
    <path id="LV-064" d="M316.6,118.2l2.4-.6-.5,1.5,2.7-.4.5,1.4,1.4-1.4,1.1,1.9-.7,1.9,7.5,5.2h0v3.1s-1.3,1-1.3,1l-.5,2.7h-2.6c0,.1-4.2-3.1-4.2-3.1l-2.8.3-1.6,2-1.4-.8-.5,2,5.3,5.2-1.6,3.7h0l-3.9-.5h-.8v-3.9s-2,1-2,1v-2.4c0,0-2.8-5.9-2.8-5.9l-1.4-.3-3.3-3.7-1.5-.6-.6,1.5-1.8-4.6,4-7.8,2.3,4.2.9-1.2,2.7.9.6-3.2,1.9-1.1h0l2.5,2Z"/>
    <path id="LV-065" d="M303.9,317.3l.4,8.4-.9,1.2,3.3.2,1.2-.9,1.1,1.7-3.6,1.4-1.1,2.9,2.1,1,1.5,2.9h1.5s1.5,2.4,1.5,2.4l-.9,3.3.8,3.6,1.4,1.3-.4,1.4h-3.4c0,.1-.1,1.1-.1,1.1h0l-3.1,1.1-5.7-5.9-2.3,2.1h-3.3l-5.3-2.5-1.5-8.8-2.4-1.3-.5-1.9-2.6-2.5-.4-6.5-1.9-1.4-2.2-4.7.5-3.3-2.2-1.2h0l.2-1.9,2.9-4.2,6.3-1.3h0l1.8,4.3,1.5.8,1.2,5.9,4.7-.2,9.7,1.5Z"/>
    <path id="LV-066" d="M23.9,324.4l-2.2-1.3-1.4,1,.3,7.7-3.3,8.5-1,.5-.3-.9h-1.2c0,.1,0,7.8,0,7.8l-2.2-.3-.7-7.1-2.6-1.6,1.8-.7v-2.1c.1,0-.8-.7-.8-.7l-3.8.6h0l-.9-13.5,2.1-8.5v-4.1h1.5s1.1-1.7,1.1-1.7h1.2c0-.1.5-.6.5-.6h0l5.1-1,.6,7.6,2.4,1.8,1.7-1.3,1.3.4,1.2,9.5Z"/>
    <path id="LV-067" d="M292.7,249.5l7.8,2.8-.6-1.3,1.4-.6-.4-1.1,1.7-.8v-1.2c0,0,4.3-1.7,4.3-1.7l1.6,5,1.8,1.4,4.9-5.2-.8-2.2,1.6-.2h0l.7-.2h0l-.3,1.3,1.7.4.8,4.7,1.3,1.5-2.1,4.2,3,3-4.5.8.2,1.8h-.9c0-.1,1.2,1.5,1.2,1.5l.8-.2v2.7h0l-1,.6-.9,3.5-2.4,2.3-1.8-.5-1.3,1.8-5-.7-4.6,2.9v.9s2.6,1.1,2.6,1.1l-.9,3.5h0l-4.5-1.7-1.9,1.2h0v-.4h0l-2.1-.5-4.2-3.8h0v-1.6l-4-6.6-1.8.5-3.6-1-.7-1.9-1.7,1.1h0v-.2h0l-2.7-1.4-.8-1.7-.9,1-2.3-2.1-.8.5-.3,3.9-2.4-.2-.7,3.4,1.6.2-.2.9-2.2.9-.4,2.2-3.2.6-4.5-2.5-3.1-5.2-2.2-1h0l2.2-1.7,3.4,1.1,2.4-3.5,1.5-.2,1,.9,1.4-1.3,2-.2.3-.7-3.3-2.7v-1.2h0l.2-1h0l4.1-2.5h0l1.3-1h0l2.2-.6,1.9,1.2h2.7c0-.1,1.4-1.3,1.4-1.3l1.1.3,1.5-2,1.2,2,1.4.4.2-1.3,1.8-1.1,1.7,2.2,2-2,4.2-.2Z"/>
    <path id="LV-068" d="M213.9,277.8l11.8-.5,1.5,1.1h3.3l1,1.2h0l-.2,2-4.1,1-.4-1.1v1.5l-.9.2,1.4.7-1.8.7v1s-.7-1.3-.7-1.3l-.6.8-1.9-.7-.7-2.7-.7,1.1-2.3-1.5-1.4.6h0l-2.5-.8.5-2-1.2-1.2h0ZM220.7,258.5v2.6l2.6,2.8v2.9c.1,0-1.4,1.4-1.4,1.4l-1.2,3.5-3.5-.2-2.6,2-.5,3.7h0l-4.5.2-.6-3-1.2,1.1-4.8.4v1.7s-1.1-1-1.1-1l-1.5,1.1-3.1-2.7h0l1.1-7.6h0s1,0,1,0v-1.6l.9-.4,2.7,2,1.5-3.5h0l7.8-3.3,2.5,1,2.1-1,.8-2.4h3.3Z"/>
    <path id="LV-069" d="M199.2,287.8l1.2-1-1-1.4.3-3.1-4.3-.7h0s.9-.2.9-.2l-.7-1.9h-2.8l-.9-1.2,2.3-.8.7-1.9,2.2-.5h0l3.1,2.7,1.5-1.1,1.1,1v-1.7s4.8-.4,4.8-.4l1.2-1.1.6,3,4.5-.2h0v.5h-.1c0,.1,1.2,1.3,1.2,1.3l-.5,2,2.5.8h0l.6,4.4-1.5.2-.8-1.6h-1c0,0-.3.9-.3.9l.8,1.8,3.9.9-1.6,1.1h1.2c0,0,.6,2.4.6,2.4l-2.2.3.2,1.3-1.3-.5.5-1.3-1.6.5.7,2.2h1.7s.2,1.5.2,1.5h5.2c0,.1-1.6,3.9-1.6,3.9l-1.1.6h0v1.8s-2.5,3.1-2.5,3.1h0l-4.3-3.6-1.2-5.5-2.6-4.8-3.7-.4-3-2.2-3.1-.8Z"/>
    <path id="LV-070" d="M287.6,180.2l1.3.2.7,1.4,1.6-.7,1.5,1-.2,3.4,2.6,1.8,1.5,4.2,1.4.5.3-1.5,1.7.6,1.2,2.3,2.2.9,2.3-2,1.3.8.3,2.3,2.2-.7h0l-1.5,3-8.2-.7-.7,2.8h0l-.3.9h0l-.9,1.6,1,1.2-.6,1.1h0l-.2,1h0l-2,3.2-4.4-1.1-2.6,1.7h0l-2.1,1.2-8.2.6h0s1-3.5,1-3.5l-2.3-2.3h-1.1c0,.1-1.2-1.9-1.2-1.9l2-2.6-2.4-.4-2.5-5.8h0l-.6-2.2-3.8-1.8.3-1.2,4.7,1.9,4.1-1.9,6-5,.2-1.4h1.1c0-.1-.5-1.1-.5-1.1l2.7.7,1.1-2.6Z"/>
    <path id="LV-071" d="M40.2,258.3l-1.5.4.4,4.6-8.6,2.1-.3,2.4-2,.4,1,6.2-1.1,1.1h0l-2.2-.5-1.6,2.3,2.8,4.1v2.6l-.9,1.3h-1.5c0,0-.4,1.6-.4,1.6h0l-3.4.9-3.8-4.3-1.5,2.3v4.3c.1,0-3.3.3-3.3.3l-2.3-1.2h0l1.4-8v-17.4c0,0,13.1-10.6,13.1-10.6l5.6-6.6,1.7,1.2,1-.8,2,.9.4,2h0v2.6s1.7.9,1.7.9l1.4-.6-.3,1.2,3.6.9h0l-1.3,3.2Z"/>
    <path id="LV-072" d="M317.8,292.3h1.8c0,0,1.4-5.1,1.4-5.1l3.8-4.2-1.2-3.1,3.4-.8v-3.8l-1.5-2,4.5,1.2,1.4-1.6h0l2.8-1.8-.3-1.7,1.4-1.8-1.5-1.4,1.3-.8h0l1-.4,3.1,3.9,1.8.7.7,3.5-1.9,2.5,1.2,4.6,3.1,2,2.6-.3,1.9,1.5-1.8,3.3.6,2.5h0l-6.3,3.2-3.9.6-1.7-.9h-2.3s-6.2,3.5-6.2,3.5l-5.9,1.2h0l-3.2-.5-.2-3.8Z"/>
    <path id="LV-073" d="M397.2,351.8l-2.9-2.3-.7-1.9,5.3-.7v-6h2v-1.7l-.7-1.9h-1.7l-.2-4-3.9-.6h0l-1.6-3,.4-2-.9.4-4.2-2.1-1.7-2.3h-1.6l1.2-4.7h1.5l3,2.4,1.9-3,.6-4.3h.6l.2-2,2-.9,9.1,7.3.4,1-5.6,2.1-1.9,2.3-.4,2.8,1.9,1.7,2.9.6,1.2,2.1,4.2,2.4,1.8,6.4,1.9.8-.7,3.4-2.3,1.4,3.5,1.7,1.8,2.2v2h0l-2.5,2.5-2.2-1.7-4.9,3.1h-3l-.9-3.2-2.7-.5Z"/>
    <path id="LV-074" d="M41.3,332.1l-1.4-2-5-1.8-.5-1.2h0l2.4-3.9,1.1-5.9-1-3.6-2.6-3.5v-3c.1,0-2.8-.9-2.8-.9v-3.4h3.4c0,.1-.3-3.1-.3-3.1l.8-.9,6.2,5.1h1.4l.5-1.1-1.7-2.6.5-1.4,3.3-2.3,1.7,1.2h0v.2h0l1.3,1.6,1.1-.9,1.7.8,1-2,4.3,1.4h0v6.4c0,0,1.7,1,1.7,1l.3,1.7-4,1.9,1.3,3.6-2.7,1.6,2.9,1.7,1.7,2.6h2.4l-2.7,3.4,1.6,4.1h0l-2.1,2.7-3.4.3-2.7-1.5h-2.7s-2.2.9-2.2.9l-1.9,2.8-3,.2Z"/>
    <path id="LV-075" d="M324.8,208.9l-.2,2.4-3,1.5-.2,1.8h0l-2.1,1.3-2.7-1.4.7-4.7-2.1-2.9-4.6-2.4-6.2,1-.6-1.1,1.7-1.3-.9-1.4-5.7-1.7h0v-.2h0l.7-2.8,8.2.7,1.5-3h0l.2-2.4,1.3-1.4-1.2-1.9,1.7-1.6-.7-.3h0l1-1.2,2.9,1.7,3.2-2.1,1.3,3h.9c0,0,1.3-.6,1.3-.6l.3-2.4,2.7-1.8,4.4.6h0l.5,2.6h0l-2,1.9-1.9,6.4-2.1-.9-4.7,2.6,3.9,8,2.2,1.6-.5,1.2.9,1Z"/>
    <path id="LV-076" d="M335,208.9l.6-1.2,2.9-.5,2.2.5-.2,1,4.1-2,3.8.7,4.4-1,1.3,1.4h1.2c0,0,.2,1.7.2,1.7h0l.7,2.3-1.2.5-.6-1-2.7,1.1.9,3.7h0l-5.1,3.3-4,.6-1.7-.5-1.8-3.2-3.1.7h-1.2c0,.1-1.3-.9-1.3-.9l.7-7.1ZM329,187.1l3.2,5.3-1.4,1.2,1.5,2.8v2.4c0,0,3.5,2.8,3.5,2.8l-2.5.8.9,1.2-1.6,4.4.6.7h.7c0,.1-1.5,1.6-1.5,1.6l-1.1-2.1-6.5.9h0l-.9-1,.5-1.2-2.2-1.6-3.9-8,4.7-2.6,2.1.9,1.9-6.4,2-1.9Z"/>
    <path id="LV-077" d="M471.3,330.6l-3.1-3.5,1.3-4.8-4.2-.9-.9-1.9,1.2-1-1.5-.9.9-1.1-2.2-1.1-1.4.8.6-1.3-1.1-.4-2-3.7.2-1.7-3.1,1.7-.9-1.8.4-1.5-1.2-.9.7-1.5-.7-.9,1.4-2.5h5.1c0,.1.7-3.5.7-3.5l-1.6-.8-.5-3.4,1.9-1.3.4-2.9-2.9-.5-1.7-2.8-1.4-.3-1.4,1.5-1.6-3.2,1.7-1.6.6-5.1,1.6-1.2-.4-2.8-2.4-1,.7-1.8-7,.6-1.9-1.1h-.6c0,.1-2.7.4-2.7.4l-2.9-1.4-6.2.2-1.4-2.7-1.8,1-1.1-1h-3.5c0,.1,0,1.8,0,1.8h-2.7c0-.1.3-2.2.3-2.2l-3.2-.6-1.5,1.9-2.3-3.6-9.9,15.1-1.2,4.3.4.3,3.9-.2,1.1,1.8,2.9-.3,2.9,7,2.1,1.7,3.3.4,1.5,1.9-.5,1.5.9,1.5-1.1,2,3.7,8.9-1.7,2.2-2.7-.7-2.7,1.3-1.4-1.7-.8-.4-1.6,2.2v2.3c-.1,0-1.5,1.8-1.5,1.8l4.2,4.1,2.7,5.7-.8,1.6-1.4-1-1.3.5.5,3.4,4.9,4-2,3.7h1.6c0,0,.9,1.3.9,1.3l1.3,5.3h5c0,0,1.9-1,1.9-1l.9-1.9,2.8,1h8.3s1.5-1,1.5-1h3c0,0,1,.2,1,.2v1s2.5.2,2.5.2l1.5-3.1-.8-1.3,4,.5,1.7-1,.5-2.2,4.2,2.3,4-.9,1.8.6,2.1-1.6-1.3-2.7,2.5-4.4ZM447.9,305.7l-1.8,4.7h-.8l-.6-1.6-1.8-.3v-2.8c-.1,0,.7-2.8.7-2.8l3.3-1.1,1.2,1v2.9Z"/>
    <path id="LV-078" d="M417.7,311.4l-.8-.4-1.6,2.2v2.3c-.1,0-1.5,1.8-1.5,1.8l4.2,4.1,2.7,5.7-.8,1.6-1.4-1-1.3.5.5,3.4,4.9,4-2,3.7h1.5c0,0,.9,1.3.9,1.3l1.3,5.3h5c0,0-.6,2-.6,2l-9.3.3-2.9,2.3.8,2-.6,1.2-1.1-.9h-2c0,.1-.3-1.1-.3-1.1h0v-2s-1.8-2.2-1.8-2.2l-3.5-1.7,2.3-1.4.7-3.4-1.9-.8-1.8-6.4-4.2-2.4-1.2-2.1-2.9-.6-1.9-1.7.4-2.8,1.9-2.3,5.6-2.1-.4-1-9.1-7.3-2,.9-.2,2h-.9l-1.5-.8v-5.8h.7s2.4,0,2.4,0v-1.7c.1,0-1.1.3-1.1.3l2-5.1h0l6.5-.9,1.2,1.2.9-2.9h0l4.9,2.6.5,1.1-3.5,2.4h1.9s.7,1.9.7,1.9h3c0,0-.1,1.6-.1,1.6l6.8.8-.3,2.4Z"/>
    <path id="LV-079" d="M145.5,192.3l-.7,1h0l-4.8-2.4.3,3.4-2.2,1.4-1.4-.3-4.1-3.9-1.4-3.3-3.9-3.5-2.9,1.6-1.2-.5-.5-1.6,1.7-1.4v-1.6c0,0-3.5-1-3.5-1l.7-1.7-3-.2h0l-.2-1.1h0l-.7-4.6-1.2-1,1.7-3.7-3.7-4-1-2.6.7-4.1,2-.6h0l1.8,7.7,3.2,5.4,5.8,5.5,5.6,3.1-.3.7.5-.6,7.2,9.5,5.9,4.4Z"/>
    <path id="LV-080" d="M254.3,235.1h3.8c0,0,1.7,5.9,1.7,5.9l3.4,2.3,4.9-.2,2.7,1.4h0v4h0l-1.7,3.5h0l-.8.7h0l-4.1,2.5h0v.3h0l-4.3.9h-5.5l-.9-1.2-4.6.7h0l-3.6-.9-.2-2h-.8c0-.1-.7-2.4-.7-2.4h-2.1c0,0-.7,1.1-.7,1.1l-1.3-3.9h0l2.6-1.9-.8-1.2.7-1.4,8.9-1.2-.9-5.2,1.8-2.2,1.6,1.3,1.1-.8Z"/>
    <path id="LV-081" d="M34.4,327.2l.5,1.2,5,1.8,1.4,2h0l-2.7,5.3-8.6,3.7-3.8,5.7-3,1.2.3,5.8-3,5-2.3-1.3-6.5,2-5.6-17.6v-6h-.1l3.8-.6.9.7v2.1c-.1,0-1.9.7-1.9.7l2.6,1.6.7,7.1,2.2.3v-7.7c0,0,1.2-.1,1.2-.1l.3.9,1-.5,3.3-8.5-.3-7.7,1.4-1,2.2,1.3h0l2.9,3.3,7.7-.5Z"/>
    <path id="LV-082" d="M420.5,259l-1.5-1.7-.7-4-4.1-2.3,1-4.6-3.6.2-.4-1.2h0l1.2-3.1-1.1.2v-2.2c0,0,5.3-2.8,5.3-2.8l3.5-6.7h0l.5-.7h7.9l-.5,3.1.7.8,1,.4,1.2-1.3,1,.2v1s5.1,2.5,5.1,2.5l3.8,1.2,2.9-.6.9,1.5-1.8,1.9-.9,3.6-3.8,1.4.8,1.8,2.6,1.4,1-1.9.6.5.9,5.1-1.4,2.1-2-.8-1.4,1.6h-1.4c0,0-4.5,6.2-4.5,6.2h-2.3s-1.3-1.6-1.3-1.6l-4.2-1.1h-4.8Z"/>
    <path id="LV-083" d="M215.2,327.2h-6s-1.1-1.2-1.1-1.2h-3.1c0,0-.3-3.8-.3-3.8l1.2-2.2-3.7-.3.3-1.3h1.1c0-.1-.5-2.1-.5-2.1l1.2-.7-1.3-.7v-1.2c0,0,2.5-4.6,2.5-4.6l3.4-.5,2.1-2.9,3.9.3,2.2-.9h0l1.3,5.9-1.1,2.2,4.4,4.2,3.2.5,1,2.2-4,.3-2-1.2.9,3.4h-2.5c0,.1-.9,2.9-.9,2.9l-2,.7-.3,1.1Z"/>
    <path id="LV-084" d="M314.1,116.2l-1.9,1.1-.6,3.2-2.7-.9-.9,1.2-2.3-4.2-4,7.8,1.8,4.6.6-1.5,1.5.6,3.3,3.7,1.4.3,2.7,5.9v2.4c0,0,2.1-1,2.1-1v3.9h-.8l-10.6.7-1.6-2.8-1.3-.5h0v-6.3c0,0-2.7-1.9-2.7-1.9v-2.3s-1.9-3.3-1.9-3.3l-3-1.3-1.4-2.5,1.3-2.4-3.2-5.5,1.7-5.8-1.4-2.6h0l.5-1.5,5.7.2-.2-.9,1-.4.8.8-.5,1.9.8,2.1.7-.4-.2,3.8,1.5.3-1.1.3,2.1,3,1.8.4,1.1-.5.3-4.9-2.8-4,2.1-2.4,4.9,6.7,3.1.2,2.9,2,.9,1.3-1.2.4v1.2Z"/>
    <path id="LV-085" d="M321.2,296.6l5.9-1.2,6.2-3.6h2.1s0,0,0,0h0v2.8c0,0-1.6,2.8-1.6,2.8l1.5,4.1,5.2,1.3h0l-.7,4.8h0v.8h.1l-1.2,4.4,2.9,3.5v1.1c-.1,0-1.9.5-1.9.5v2.7c.1,0-1.6.8-1.6.8l-.6,1.9h-4c0,.1-.6-1.8-.6-1.8h-3.2l-1.4-3.2h-2.2c0,0,0-2,0-2h-1.1l-.5-2.4.7-3.1-1.1-1h0v-1.7s-3.4-3.7-3.4-3.7l1.2-3.2,2.5-1,.4-3.3-3.7.8-.2-1.1Z"/>
    <path id="LV-086" d="M260.3,146.6l-3.6,1.9.6,2.2-.8,1,1,1.4h-3.1c0,0-1.4,1.3-1.4,1.3l-.6,2.9,2.2,1-3.8.6-1.8-1.1-5.3,1.2.7,12.8h3.9c0,0,.9.5.9.5l.2,2.6h2.4c0,.1.2,7.2.2,7.2l2.4,2.2-1.3,2.2h-2.5c0,0-2.3,4.5-2.3,4.5l-6.8,1.5h0l-1.3-14.3-1.2-3.8v-5c.1,0,1.7-4.7,1.7-4.7l-3-10.6.6-11.2-1-6.7,1-4.8,4.2,1.3,3.2-1.8v-3.4s-1-.6-1-.6l1.1-1.9,3.3-.8.8-2,3.7-1.4h0l1.6,7.1,1.5,1.8-2.2,2.6,2.4,2.9,3.1,11.4Z"/>
    <path id="LV-087" d="M244.2,252.9h.8c0,.1.2,2.1.2,2.1l3.6.9h0l.4,3.9-5.2-3,1.6,3-.9,3.2h0l-2.7.7-5.9-1.2-4.1,1.4-1.6-.4-2.9-3.2.5-1.7h0l6,2.8,1.5-.5-2.7-1.9h0l-1.1-5.5,4.4-.6,1,.5.6,2.4,1.1-.3.9-1.9,4.4-.7Z"/>
    <path id="LV-088" d="M110.3,261.4l-1.1.2-2,10.7,1.5,3.9,1.8-.6v2.6l1.1,1-.5,7.4,1.8,2.3h2.2c0,0,.1,5.4.1,5.4l1.4.6.6-1.7,1.9-1.1.6-2.6,3.1.8,4.4,7.5h0l.4,3-1.5,2.7.2,2.9-1.8,1.1,3.7,4.4-2.6.6.2,2.9,4.8.5,6.4,3.5,1.2-1,1.6.3h0l.9,1.3-2.4,1.8-4.1,1.1-7.7-.7-3.3,2.5-6.8-4.8h-3c0,.1-7.7-2.5-7.7-2.5l-5.3,2-2.5-1.8-4.8.8-2.5-2.7-2.9.5-2.7-1.5-5.4,1.9-2.1-.9-2.3,3.4h0l-1.3-.7-1-2.6,4-.8.3-2.7-3.9-2.9-.4-2.2,1.3-2h0l3.5-.5,1.7,1.7,1.5-3.2-3.5-2.1v-2.2c0,0,8.1-1.6,8.1-1.6l-1-3.2.4-1.7-1.2-1.5,1.1-.8-.2-2.1-2-5.6,2.4.7,2.7-2,1.2-4,1-.3-1.5-2.8-.5-5h0l2.9.4,1.2-3.5,1.6-1.2,3.6-.3.8-2,1.5.2,1-1.7-1.5-1.3v-1.7c-.1,0-4.4-.4-4.4-.4l.4-1.9h1.2c0,0-.6-2.1-.6-2.1l1.2-1.8,3.2,1.1.6,3.1,2.9,2,2.1-.7,1.5-3.9h0l2-1.2,3.9.7v1.9c0,0-1.8.6-1.8.6l.3,1,.4-.6-.3,3.2-1.5,2.4Z"/>
    <path id="LV-089" d="M242,198.8l1.6,2.4.2,4.5h1.2c0,0,2.5,2.5,2.5,2.5v4.1s-3.1,1.4-3.1,1.4l-3.8,5.6h-.5s-1.6-.1-1.6-.1h0l-.7-.6h0l3.6-5.2,1.1-3.4-.4-11.1Z"/>
    <path id="LV-090" d="M245,205.8l6.5-3,2.1.3.3,3.6,3.5,3.2.7,3.7,2.1.2,1,1.4h0l-1.1,1.8h-2.8v3.4h3c0-.1.8.7.8.7l.3,3.9-.9,1.6h0l-6.5-1.5-1.3,2.6-3.4,1.3h0l-2.7-8.6-5.4-1h-.6c0,0,3.8-5.6,3.8-5.6l3.1-1.4v-4.1s-2.4-2.5-2.4-2.5Z"/>
    <path id="LV-091" d="M276.5,214.7l3,1.5,2.1,3.5.6,4.8-1.2.5,1.2,1.7,7.2.5h0v1.1h0l3.6,4.2-2.5,1.7v1.3c-.1,0,2.4,4.1,2.4,4.1l-.6,2.8h0l-5-3-1.1.4-.7-2.8-3.3-1.2.6-1.2-.8-1.8-2.9.6-2.8-.9-2-2.9v2.3c-.1,0,1.7,2.3,1.7,2.3l-.2,3.1-1,1.1,1.2,3.2-3.1,1.8-.6,2h-1.5s0-.9,0-.9h0l-2.7-1.4-4.9.2-3.4-2.3-1.7-5.8h0l1-.7,2.8,1.3,1.8-.7v-1c0,0,3.5-1,3.5-1v-1.9s-1.6-1.7-1.6-1.7h2c0,0,.9-3.4.9-3.4h1.1c0,0-.1-2.5-.1-2.5l1.3-3,4.2-1,1.4-4.7h0Z"/>
    <path id="LV-092" d="M292.3,290.4l-2.9-.6-2.6,2.4h-.7c0,0,0-3.1,0-3.1l-1.9-.9.7-6.3,3.1-1.4-2.1-3.4.5-.9,3.8-.3h0l4.2,3.8,2.1.5h0v.5h0l-2,1.1.5,1.5,1.6.7-.2,2.8-3.5,1.5-.4,2Z"/>
    <path id="LV-093" d="M62.4,297v-2.2c.1,0-1.5-3.1-1.5-3.1l2.4-.8,1.9-2-.6-6.3h0l.7-1.9,2.2-.5,1.2-1.5,2-.6,2.3,1,1.1-.9-1.9-8.2,1.2-2.8,2.3-2,1-.4,1.9,1.2.8-1.1,3.2.3,1.3,2.6,2-.5,1.9,1.7h0l.5,5,1.5,2.8-1,.3-1.2,4-2.7,2-2.4-.7,2,5.6.2,2.1-1.1.8,1.2,1.5-.4,1.7,1,3.2-8.2,1.6v2.2c0,0,3.6,2.1,3.6,2.1l-1.5,3.2-1.7-1.7-3.5.5h0v-1.5s-3.7,1.2-3.7,1.2l-.6-2.4-4.1.5-2.9-1.6.8-1.1-1.8-.8.6-2.4Z"/>
    <path id="LV-094" d="M347.4,175.6l4.4-2.9,7.7-.5,3.1,2.1,2.8-1,.7.9h2.1c0-.1.4.6.4.6l-1.6,1.1-.2,1.3.8.7,2.1.2.9-1.3,2.2-.3.7,2.4h0l.7,5.7-.4,1h-1.6c0-.1-.5,1.8-.5,1.8l3,1.8-1.1.8v2.4c0,0-1.4.9-1.4.9l.2,1.6,1.2.6-2.4,1.2v4.4h0l.7,2.4-.8,1h-1.5c0-.1.8,3,.8,3h-7.4c0,0-2.4,1.2-2.4,1.2l-2.6-1.5-2.4,2.1h0l-.2-1.8h-1.2c0,0-1.3-1.3-1.3-1.3l-4.4,1-3.8-.7-4.1,2,.2-1-2.2-.5-3,.5-.6,1.2h0l-1.8-.3h0l-.6-.7,1.6-4.4-.9-1.2,2.5-.8-3.6-2.8v-2.4c0,0-1.4-2.8-1.4-2.8l1.4-1.1-3.2-5.3h0l-.5-2.6h0l2.6-3.1,1.7.6,1.1-1.7,3.1.4h0l6.4.6.7-.8,1.2.8-.8,2.3,1.4.3,1.5-1.2.6-2.1-.7-4.9Z"/>
    <path id="LV-095" d="M239.3,247.8l1.3,3.9.7-1.2h2.1c0,0,.7,2.4.7,2.4h0l-4.4.7-.9,1.9-1.1.3-.6-2.4-1-.5-4.4.6,1.1,5.5h0l-2.6-3.2v-4.6l5.7-4.1h0l1.1-.4h0l2.2,1.1Z"/>
    <path id="LV-096" d="M337,180.6l2.8-2.1-.3-2.4-2.1,2.1-2-1-1.4-2.9,3.5-1.3-1.2-1.6-3.4-.3.8-2.6-2.8-3.3-7.5.7h0v-.2h0l-4.8-1.8-.7-2.5,1.5-.6.2-1.1,5.9-.5-.5-3.4,2.1-1.3-.5-1.7h3.7l1-2.3h0l2.7.5,6.7-2.5-.8,5.1,2.4,2.1,8.5,2.3-2.3,6.6-3,2.2-3.5-.3,1.2,1.7,3.3.6-.2,2.3-2.6,2.9,1,2.6,2.8-1h0l.7,4.9-.6,2.1-1.5,1.2-1.4-.3.8-2.3-1.2-.8-.7.8-6.4-.6Z"/>
    <path id="LV-097" d="M151.2,213.3l.3,1.1-.9-.5-1.3,1.2-1.1,2.5-3.7,1-1.2,2.1h-1.9s-1,5.9-1,5.9h0l-4.4-1.4-3.4,1-.9-.7-2.5,3.6-9.1,1.9-.2,3.5,1.2,4.5-.8,2.3-3.3-1.4-2.1.3-.2,1,1,.3-1.4,1.1-3.4-1.5h0l-.6-.7-1.4,1.4-2.3-.9-4,.8-.6-2.9h-1.2c0,0-.2-.9-.2-.9v-1.5s1-.4,1-.4l-.9-7-5.9-2.1-2-2.2.7-3.5-1.7-.2-1.2-1.6h0l-2-1.3h1.3c0,0,.6-3.8.6-3.8l1.4,1,.5-3.4,1.2.3,1-2.8,2.9-.2-.9-6.4-1.5-1.9.9-1.9-.8-4.1.8-.4-2.2-.2-.7-2.6h0l-.8-1.3.5-1,1.8-.9.7,1,1-1.8,2.9,1.5.6,3,4.3-2.4,3.3.9,1.8-6.1,2-1.3,1-4.2.8-.4,1.8,1.6,3.5-1.5h0v-.4h0l3,.2-.7,1.7,3.5,1v1.6c0,0-1.6,1.4-1.6,1.4l.5,1.6,1.2.5,2.9-1.6,3.9,3.5,1.4,3.3,4.1,3.9,1.4.3,2.2-1.4-.3-3.4,4.8,2.4h0l-.9,1.6,1.2,1.6-2.9,1.2-1.6-.6-2.4,1.9,1.4,3.7,2.3.7.8,2.4,5-1.1,1.4,3.5-1.4,2.6,3.4,2.6Z"/>
    <path id="LV-098" d="M173.7,306.9l2.1,1.4-1.8,2.9,1.8.4-.8,1.1.5,2.2,2.3,2.9-2.4,2.6-3.3.9h0l-5.3-.7-2.2,1.5-6.8.2h0l-1.7-3.4-2.5-2,2.5-3.4h0l-.3-.6h0l1.5-1.8,4-1.1,4.1,1.5.9-.5.8-1.7-1.9-.6-.4-3.7,4.7-3.5.6-2.1,2.3,2.1,1.3,5.5Z"/>
    <path id="LV-099" d="M177.9,251l1.1.9h0l.9,2.8h0v2.1h0l-2.3,1,1.5,8.7h0l-2.6,2.1-4.5.7-.6-1.8-.7.3-2.4,3.2-1.7.6,2.5,2.9-4.7,5.1-5.5-1.7-1.2,1.7.9,1.3-.7.8-4.5-1.4h0v-.5h0l-.4-1.7-1.4-.4-1-1.9-2.4-8.7-5.6,1.8-2.9-1-.6-1.9-1.7-.9,3.8-3.1-.6-.5h0l-2.3-3.8,1-.8-.4-3.9h-3.4l-2.5-2.9-.9-3.4.6-3.8,2.8-.7.6-1.9v-1c-.1,0-2.4-1.3-2.4-1.3l.7-2.8-.7-1.5,3.4-1.4,3.9-3.8-.6-1.8h0l1-5.9h1.9s1.2-2.1,1.2-2.1l3.7-1,1.1-2.5,1.3-1.2.9.5-.3-1.1h0l.2-1.4,2-.5h0l.4,4.8,1,1-1.5,1.1-.5,3.5-2.9,2,4.3,3.3,1.4-.6,3.1,2.2,2.7,6.6-1.4,1.1v2c0,0-3.3,1.4-3.3,1.4l1,1.7-2.2,3,1.4,1.3h1.7c0,0,.2,1.5.2,1.5l-2.9,1.2-1.8,3.2,2,.4,3.4-1.1,2.7,1.6,2.7-.5,5.9,1.1,7.1-2.4Z"/>
    <path id="LV-100" d="M59.3,326.7l-1.6-4.1,2.7-3.4h-2.4l-1.7-2.6-2.9-1.7,2.7-1.6-1.3-3.6,4-1.9-.3-1.7-1.7-1v-6.4h0l5.6-1.9h0l-.6,2.4,1.8.8-.8,1.1,2.9,1.6,4.1-.5.6,2.4,3.6-1.2v1.5h0l-1.3,2,.4,2.2,3.9,2.9-.3,2.7-4,.8,1,2.6,1.3.7h0l-.8,2.5-1.1-.5-5.9,2.6-2.3-1.4-5.8,4.6Z"/>
    <path id="LV-101" d="M337.6,127.5l2,5.3,2.9.8,1.1-1.1.8,2.3,3.1-.6,2.1.9,2.7-1.9,1.5,1.7h2.3c0-.1-2.4,10.4-2.4,10.4l4,.2,3.9,2,.6,2.3,3.4,1.5.5.8-1.3,3.3,2.2,1,.2,1.8,1.7.9.4,5.1,1.6,1.7,6.5,3.2h0l-2.1,3.8v2.2c0,0,1.1.6,1.1.6l-.2,1.8,1.7.5-4.3,1h0l-.7-2.4-2.2.3-.9,1.3-2.1-.2-.8-.7.2-1.3,1.6-1.1-.4-.8h-2.1c0,.1-.7-.7-.7-.7l-2.8,1-3.1-2.1-7.7.5-4.4,2.9h0l-2.8,1-1-2.6,2.6-2.9.2-2.3-3.3-.6-1.2-1.7,3.5.3,3-2.2,2.3-6.6-8.5-2.3-2.4-2.1.8-5.1-6.7,2.5-2.7-.5h0l-7.5-5.6-3.9-1.3h0l1.6-3.7-5.3-5.2.5-2,1.4.8,1.6-2,2.8-.3,4.2,3.3h2.6c0-.1.5-2.8.5-2.8l1.3-1v-3.1h0l3-2.5,3.6,2.3Z"/>
    <path id="LV-102" d="M378.3,287.9v-3.5c.1,0,9.2.8,9.2.8l4.4-2.4,1.4,1.3,1-2.7,1.7-1.3h4.6s0,2.1,0,2.1l4.5,1.5h0l.4.3h0l.9,3.8-1.2,2.4,1.9,2.9-1,1.2-3.6.3-.5,1.8,1.7,2.1h0l-.9,2.9-1.2-1.2-6.5.9h0l-1-2-1.9,1.4,1-6.5h-7.5s-7.4-6.1-7.4-6.1Z"/>
    <path id="LV-103" d="M375.4,345.5l-2.7-5.5,1.3-.2-1.7-6.1.5-2.1,2.7,2.1h2l.2-4.5,1.5-.8,3.1,5.8,4.5-.5,5.3,1.8.7-1.7,1.7-.8h0l3.9.6.2,4h1.7l.7,1.9v1.7h-1.9v6c0,0-5.4.7-5.4.7l.7,1.9,2.9,2.3h0l-1.2,1-3.5-1.6-1.1-3.2-1.2.9-.2,3.6-2.4.2-1-5.4-2.8-3-2.5,2-2.5-2.9-3.4,1.8Z"/>
    <path id="LV-104" d="M316.1,244.2v-1.4c-.1,0,1.2-1.5,1.2-1.5l-1.2-2.4,1.5-.2,1.7,1.6,6.1-5.4v-3.4s-2.3-3.7-2.3-3.7l-3.8-.7,2.5-3.3h0v-3.3c.1,0,1.2-.9,1.2-.9l-.7-4.3-.9-.6h0l.2-1.8,3-1.5.2-2.4h0l6.5-.9,1.1,2.1,1.5-1.5h0l1.1.2h0l-.7,7.1,1.3,1.1h.5c0,0-.7,3.7-.7,3.7l1.4,1.7-.8,2.2.6,1,4.3,1.1,3.1,4.3h2.4s-2.5,10.7-2.5,10.7l3,1.2v3.7s-2.5,1.5-2.5,1.5h0c0,0-3,.4-3,.4l-.2-1.4-2.4-2.5-1.8,1.6-1.1-.3-1.4-2.4h-2s-.8,1.7-.8,1.7l-4.7,3.3-.9-1.7,1-.8v-2.7s-4.6,3.1-4.6,3.1l-5.1-3.3-.7.9h0l-.7.2Z"/>
    <path id="LV-105" d="M250.7,278.8l.3,1,6.9-.4.4,4.7-3.6.2v2.5c-.1,0,2.2,6.4,2.2,6.4h3.5s-.4,1.8-.4,1.8l1.3-.5,1,.9v1.8c0,0-2.3.2-2.3.2l.9,2.7,1.8-.5,2.2.8,7.3-3.8,1.8.5,2.2-1,1.1.7,3.7-.8h0l.6,2.4,3,2,.3,4.8h0l-6.3,1.3-2.9,4.2-.2,1.9h0l-2,1.8.2,2.5-2.4.6-1.5-1.4-1.9,2.7-4.9-.2.2,1.6-1.2,1.5h-4.2c0-.1-.2,3.3-.2,3.3l-3.5,3.3h0l-3-1.1-1.2,1.2-3.1-2.5,3.3-3.5-3.9-1.6-.2-1.1,5.4-3.2.9-3.3-1.8-.6-.4-1.1,1.6-2.1-1.8-.8-1.6-2.3-2.4,1.2-1.7-4.4-2.1-.2-.2-1.9h0v-2.9l-4-.3-.7-1-.3-6.4h4l.3-1-1.2-3.7h0l.9-.4-1.2-.3.9-.9,4.1-1,4.1-4.2h2.3Z"/>
    <path id="LV-106" d="M43.3,194.8l4,4.1.7-2.7,1,1.6,1.3-.8-.6-3.4,3.9-1.7-1.2-7.3-1.8-1.7,2.4-4.3,1.7-6.4,2-2.2,8.4-3,13.1-1.5,11.6-6,1.8,2.6-1.4,1.8,1.8-1.2,2.1,3.2h-.8c0,0-.2,2.6-.2,2.6l1.8,3.9.8,6.3h-2.1c0,.1-4.2,4.1-4.2,4.1l-1.9-.5.5,1.9,1.2.4-.9,1.4-6.7,3.3,4.1,2.8,3.3.7,4.2-1.3.7,2.6,2.2.2-.8.4.8,4.1-.9,1.9,1.5,1.9.9,6.4-2.9.2-1,2.8-1.2-.3-.5,3.4-1.4-1-.6,3.9h-1.3c0,0,2,1.1,2,1.1l-1.1,8.3-.9,1-4.1.6v1.2c.1,0-3.7,0-3.7,0l-3.7-1.9-.9,1.5-2.7.2-1,1.1-2.2-.7-1.4,1.3-.9-1.2-2.3-.6-1.7,3.1-1.4-1-.5.9-.8-.4-.2-1.1,1-.5-.5-1.5-2.6.2-3.2-2.3-.8,1.9-3.2-1.3-3.5,4.3-1.6-.5-1.8,1.8-2.8-.4v2.1s-1.5.7-1.5.7l.6,3.6h-1.8s.7,7.1.7,7.1l-1.5,1.3.3,1.8h-3.9s-.4-2-.4-2l-2-.9-1,.8-1.7-1.2,3-3.5,2.9-8.2-.5-14,.7-14,7.2-12.2Z"/>
    <path id="LV-107" d="M326.4,351.4l-4-.6-.8-2.6-1.3-.6-1.7.7-.8,2-4.6-1.3-1,1.1-1.1-.3v-1.2s-3,.5-3,.5h0v-1c.1,0,3.5-.1,3.5-.1l.4-1.4-1.4-1.3-.8-3.6.9-3.3-1.5-2.3h-1.5s-1.5-2.9-1.5-2.9l-2.1-1,1.1-2.9,3.6-1.4-1.1-1.7-1.2.9-3.3-.2.9-1.2-.4-8.4h0l.4-1.4,5.7,1.6,5.5-.4,3.4-4.8,2.5.8,3-3.2h0l1.1,1-.7,3.1.5,2.4h1.1v2h2.2c0,0,1.4,3.1,1.4,3.1h3.2l.6,1.9h0l-.6,7.2h-2.9l-1.1,1.4,1.1,4.5h0v3.7h0l-3.3,7.1-.6,4Z"/>
    <path id="LV-108" d="M470.5,241.9l-2.7,1.3-2.4-.6h0l-.7-2-2.4-.8-2.5.9-.7-3.2,1-1.8-.4-1.6-1.9,1.2-8-8.7,1.7-9.2,3.2-4.3,4.1-1.9v-1.3h.3s.9-.2.9-.2v-1.5c0,0,1.6-.3,1.6-.3l.2-3.3,3.3-.5,3.8-2.8v-4.9h0l6,3.3.4,2.9,3.1-.2,2.6,3.9-.7,3.8.8,1.7-2.7,6,.3,4.4-1.1,2.9-5.8,3.4,1.3,1.4-.2,1.2-.7-.8-1.8.2.3,1.2,3.5,1-1.6,1.8.3,2.1-2.2,5.5Z"/>
    <path id="LV-109" d="M417.7,311.4l.3-2.4-6.8-.8v-1.7c.1,0-2.9,0-2.9,0l-.7-1.9h-1.9s3.5-2.4,3.5-2.4l-.5-1.1-4.9-2.6h0l-1.7-2.1.5-1.8,3.6-.3,1-1.2-1.9-2.9,1.2-2.4-.9-3.8h0l3.9-.2,1.1,1.8,2.9-.3,2.9,7,2.1,1.7,3.3.4,1.5,1.9-.5,1.5.9,1.5-1.1,2,3.7,8.9-1.7,2.2-2.7-.7-2.7,1.3-1.4-1.7Z"/>
    <path id="LV-110" d="M496.3,342.9l2.8-5.7-5-5.6-3.1-1.8-2.3,2.3-2.8.5.5,2.7-4.4.5-1.4-5.4,7.1-6.1,3.7-.7.5-1-1.8-4.7.5-.8h3.1l2.4,2.7,2.9-1.6,3.4.6h0l-1,2.6,1.8,2,3.5,10.7-3.8,5.6,1.3,1.7-2,1.2v3.1s-4.2,2.4-4.2,2.4l-1.6,3.4h-2c0,0-1.1-1.4-1.1-1.4l3.8-5.5-1-1.3h0v-.2Z"/>
  </g>
</svg>