<svg xmlns="http://www.w3.org/2000/svg" xmlns:amcharts="http://amcharts.com/ammap" id="Layer_1" viewBox="0 0 512 512"><g id="_x3C_defs"><amcharts:ammap bottomLatitude="55.673" leftLongitude="20.909" projection="mercator" rightLongitude="28.243" topLatitude="58.086"/></g><g><path id="LV-DGV" d="m393 373.5 1.6 4.2.8 6.3-3.5 1.4-1.6 2-2.2-1.2-1.7 1.1-1.6-2.5 1.2-1.8-3.4-5.9 1.8-.6 5.3 2.3 3.2-5.3Z"/><path id="LV-JEL" d="m199.2 287.8-1-.4-1 1.2 2 1-.2.8-4.7 1.5-1.5 2.1-1-.7.3-4.5-2.7-2.4-1-2.4 1.4-1.1 2.3 1.2 2.4-1.8 1-.5 4.3.7-.3 3.1 1 1.4-1.2 1Z"/><path id="LV-JKB" d="M340 308v-.4l.7-4.8 3.5-.6 3.4 1.2v1c-.1 0-1.7.7-1.7.7v1.3l-1.8 2.9-4-1.2Z"/><path id="LV-JUR" d="m212.2 244.2-3.6 4-2.9-.5-3.7 1.8-2.7-1.6-.5 2.3-5.4.5-.6 1.2h-3.4l-1.4-1.1-.9 2.8h-3.3l-1.2-1.1-3.7-.5-1.1-.9.4-3.3 5.1-1.8 4.8 1.8 4.3.2 5.9-1 10.4-4.2 3.5 1.5Z"/><path id="LV-LPX" d="m7.4 309.6-1-5.9 1 .3-1.2-.8h.9l.4-2.7 3.4.5-.9-1.3-.5 1-2.2-.6 2-8.1 3.7.6v4.6h2.2v3.9l-2.3 1.5-1.1 2.2v2.5l-.5.6h-1.2c0 .1-1.1 1.8-1.1 1.8H7.6Z"/><path id="LV-REZ" d="m446.8 301.7 1.2 1v2.9c-.1 0-2 4.7-2 4.7h-.8l-.6-1.6-1.8-.3v-2.8c-.1 0 .7-2.8.7-2.8z"/><path id="LV-RIX" d="m236.4 246.9-.5.2-5.7 4.1v4.6l2.6 3.2 2.7 1.9-1.5.5-6-2.8-1.7-3.5h-.9l-.9 1.5-1.2-1-1.8.8-.9 2h-2.1l.2-3.5-8.3-4.1 1.8-2.4 2.7-1.5-.8-1.5 1.6-.3-1.1-1.2-2.4.2-3.5-1.5 4.4-3.1 3.2-4.5 5.6-2.4 2.2 1.8v1.5l2.3.3 1.4 1.2.7 3.2 4.2 1.6 3.7 4.6Z"/><path id="LV-VEN" d="m43.3 194.8.8-2.2.3.7.9-1.3-1.4-.7 1.5.4 1.5-1.5 3.7-7.3 1.8 1.7 1.2 7.2-3.9 1.7.6 3.4-1.3.8-1-1.6-.7 2.7-4-4.1Z"/><path id="LV-VMR" d="m314.8 174.6.3 2.1-1.2 1.8h-4.7l-.7-4.5 4.9-1 1.3 1.6Z"/><path id="LV-001" d="m429.3 345.8 1.9-1.1.9-1.9 2.8 1h8.3l-.6 3.2 2.7 2.9-2.4 3-5.9 1.5 1.2.7-.6 2 1.3.9-1.7 2.4-3.4.8-.3 5.4-2.6 2.2-5.5-.8-2.5 1.7-3.7-2.1-1.8-3.9 1.4-3.2-2.7.3-1.5-4.3-1.4-1.4.3-2.2h2c0-.1 1.1.8 1.1.8l.6-1.2-.8-2 2.9-2.3 9.3-.3.6-1.9Z"/><path id="LV-002" d="M305.4 294.2h-2.8l-1.3 2.8-9-6.5.4-2 3.5-1.5.2-2.8-1.6-.7-.5-1.5 2-1.1 1.9-1.3 4.5 1.7 1.4 3.3-.3 4.4 1.5 5.3Z"/><path id="LV-003" d="m40.2 258.3 2.5 1.9.3 3.1 5.7-.4 3.3 6.6 3.4.2 3.7 3.1 1.2 2.6-.4 1.6 1.3.3v2.5l-1.2.9 4.6 2 .6 6.3-1.9 2-2.4.8 1.7 3.1v2.2h-.1l-5.6 1.9-4.3-1.4-1 2-1.7-.8-1.1.9-1.3-1.6v-.4l2.7-1.4-1.5-9.8-2.2-1-7.8 2.2-1.7-1.8.2-2-2 .9-.4-2.7-3.4-1.4-3.1-2.9v-1.9h-.1l1.1-1.1-1-6.2 2-.4.3-2.4 8.6-2.1-.4-4.6 1.5-.4Z"/><path id="LV-004" d="m352.8 357.2-5 3.2-2.4-4.1-5.1-3.3.8 2.5 2.4 1.9-2.3 1.5-.2 2.5-1 .2-9.1-4.2.7-4.1-1.4-1.3v-2.2c-.1 0-1.9 1.6-1.9 1.6h-1.9l.6-4.1 3.3-7.1v-1.6l7.7-.4 5.4 2 1.3 6.1 4.9 2.5.3 1-1.3 1.7 1.8 2.5 2.1.5.4 2.7Z"/><path id="LV-005" d="M271.6 118.6h.2l.2 9.2 2.2 1.4 1.9 9.8 3.4 2.5 1.8-.7 2.2 1.3 1.7 2.7 3.2.7 1.3 4.8-2.2 4.5 1.8 1.5-.6 2.5 1.1 1.1-2.7.5.8 3-.8 1.2h-2.2l-.5-2-1.2-.5-4.8 4.5-2.1-.5v-.4l.5-3.9-4.1-2.2-.6-6.5-2.9-1.9h-3.5l-3.8-4.5h-1.4l-3.1-11.4-2.4-2.9 2.2-2.6-1.5-1.8-1.6-7.1.7-.6 2.7 2.5 1.5-2.3h1.8c0-.1 1.2 1.4 1.2 1.4l1.5-1.8 1.9-.4v-2.3l4.4-1 1.8 2.3Z"/><path id="LV-006" d="m45.2 233.6 3.7 3.1 1.8.2-.2 2.8 4.1 4.3 1.5 5-1 1.7-3.2 1.1-.7 1.7-3.9-.7-1.8 3.6-3.8-1.3-3.6-.9.3-1.2-1.4.6-1.6-.9v-2.6h3.9l-.3-1.8 1.5-1.3-.7-7.1h1.8l-.6-3.6 1.5-.7v-2.1l2.9.4Z"/><path id="LV-007" d="m392.8 193.4 3.3-4 4.8.6 2.1-3.9.4-5.1 2.4-1.4 4.2-.3-1.1-2.6 1-.6.3-2.5-1.6-2.8.9-1.7 2-1.4.4-2.9 4.2-2.2 1.7 1.7-.2 2.3 2.2-1.4 3.6 1 1.1 3 2.7.6 2.7 2 9.6 1.5 6.1 4.1 1.6-2.2 2.7 1.6 6.1-2.2 3.1.3-.2 2.3.8-.4.6 1.6-1.2 6.4-.8-.2-1.3 4.6 3 1.8 2.4-.6 4.6 2.7 1.9 3.2v4.9l-3.7 2.8-3.3.5-.2 3.3-1.5.3v1.5l-1 .3h-.7l-2.5.7-.4-3.2H453c0-.1-.1 2.9-.1 2.9l-1.6-.3-2.2 1.2-3.6-4.1-3.9 3.2v1.1H438l-1 2.6-1.8-1.1-.5 1.3-2.4.4-7.8-3 .3-1.5 1.9-1.3-3.3-1.4-3.3-3.4-7.7 1-.9-1.9-4.1.4-2.2-1.7-1.5.4v2.2h-1.9l-2.5-1.7.2-2-3.4-.3.7-1.9-2.8-1.8-.6-3-.4-.4Z"/><path id="LV-008" d="m321.9 223.8-2.5 3.3 3.8.7 2.3 3.7v3.4l-6.1 5.4-1.7-1.6-1.5.2 1.2 2.4-1.3 1.5v1.4h.1l-1.6.2.8 2.2-4.9 5.2-1.8-1.4-1.6-5-4.4 1.7v1.2l-1.6.8.4 1.1-1.4.6.6 1.3-7.8-2.8.6-2.4-1.1-1.7.9-.9-.8-2.1.6-2.8-2.6-4.1V234c.1 0 2.6-1.7 2.6-1.7l-3.6-4.2v-.5l4.8-1.1 2.7-4.5-2.1-.6-.9-8.2-4.9-1.6v-2.2l2.6-1.7 4.4 1.1 2-3.2 3.1-.3 2.9 2.1 1.5 2.3-.5 2.5 3.4.9-1.1 2.7 1.8 2.5 2.8 1 1.8 3.2 3.1.8.6-1.8 4.5 2.1Z"/><path id="LV-009" d="m409.4 169.2-.9 1.7 1.6 2.8-.3 2.5-1 .6 1.1 2.6-4.2.3-2.4 1.4-.4 5.1-2.1 3.9-4.8-.6-3.3 4-.9-.9-1.8 1.4-1.9-1.2.3-1.3-2 1.1-1.5-.6-.9 1 1.9 3-3.8.4-.7 2.1H379l.3 1.8 2.3-1.3.7 2.6-5.9 1.5-5.2-1.7V197l2.3-1.2-1.2-.6-.2-1.6 1.3-.9v-2.4l1.2-.8-3-1.8.5-1.9h1.6c0 .1.4-.9.4-.9l-.7-5.7 4.3-1-1.7-.5.2-1.8-1.2-.6v-2.2l2.2-3.8 2.6 1.1 4.6-.4 2.1 6.5 4.1 1.6.3-2.1 1.5-1.3.3 2.8 1.5 1V176c.1 0 2.7-3.3 2.7-3.3h1.7l-.3-1.1 1.9-1 2.3.4.4-2.3 2.5 1.6-1.1 1.3 1.1.5.9-1.7-.5-1 1.1 1 .5-1.1h1.9Z"/><path id="LV-010" d="m157.8 322.3-.8.3.8 3.5-6.2 4.1-1.5-2.3-1.9.4-1.3-1.2-1.5-4.9.9-.5-1.1-4-3.9-1.2-1.6 1.9-1.6-.3-1.2 1-6.4-3.5-4.8-.5-.2-2.9 2.6-.6-3.7-4.4 1.8-1.1-.2-2.9 1.5-2.7-.4-3 1.5 1.1 1.7-.7-.5-.7 1.9.2v-.7h.1l1.7.2v3.1l1.3.5 3.2-3.6 3.4-1.2-1.4-.8.4-1.5 2.1-.4 1.9 2.3 2.8-.9 2.6 3.6 1.8.7-1 1.2 1.1 4.8-.6 3.2 2.9 1.3-.6 2.2 1.8 1 .6 1-2.5 3.4 2.5 2 1.7 3.4Z"/><path id="LV-011" d="m230.7 234.6 2-2.7-.3-2.2 5-2.6 1-8h1.6l1.1.2 5.4 1 2.7 8.6-.3 1.6-2.6 3.3-5 2-1.3-.6-3 3.8-5.5-1.8-.6-2.6Z"/><path id="LV-012" d="m198.2 267.5-2.1-1-2.1-5.4-5.6-4.1-1.1.8-.8-1.7h-6.7v-1.5l-.9-2.8 3.7.5 1.2 1.1h3.3l.9-2.8 1.4 1.1h3.4l.6-1.2 5.4-.5.5-2.3 2.7 1.6 3.7-1.8 2.9.5 3.6-4 2.4-.2 1.1 1.2-1.6.3.8 1.5-2.7 1.5-1.8 2.4-3.4 3.8-1.6.2-2.9 2.4 1.7 6.8-1.5 3.5-2.7-2-.9.4v1.6h-1Z"/><path id="LV-013" d="M250.6 274.2v4.6h.1-2.3l-4.1 4.3-4.1 1-.9.9 1.2.3-.9.4-6.7-2.9-1.5-3.2-1-1.2h-.7l-1-2.8 2.9-1.8.9 1.6 1-.7v-2l-1.5-1.1 1.1-2.3 2.5 1.8 3.9-1.6 3.2.5 7.8 4.3Z"/><path id="LV-014" d="m450.6 262 .2-3.1-1.2-1.1.6-.7 2.1-1 4.6.7.9-5.6 4.9-1.7 2-2.2 2.2.2-1.5-4.8 2.4.6 2.7-1.3-.2.7 3.6.2-2 10.2-1 .9-2.4-.3-1.1 2.6-.9 7.5-2.7-.5-.8-2-1.6.2-1.3-2.7h-2.3l.7 2.4-7.8.7Z"/><path id="LV-015" d="m432.1 214.6 2.4-.4.5-1.3 1.8 1.1 1-2.6h3.7v-1.1l3.9-3.2 3.6 4.1 2.2-1.2 1.6.3v-3.1c.1 0 2.7.1 2.7.1l.4 3.2 2.5-.7h.5v1.4l-4.1 1.9-3.2 4.3-1.7 9.2 8 8.7 1.9-1.2.4 1.6-1 1.8.7 3.2 2.5-.9 2.4.8.7 2 1.5 4.8-2.2-.2-2 2.2-4.9 1.7-.9 5.6-4.6-.7-2.1 1-.6.7 1.2 1.1-.2 3.1-3.5 2.3 2.5.4-1.4 1.6-1.9-1.2-1.5 1.2.8 4.3h-.3l-2.7.3-2.9-1.4-6.2.3-1.4-2.7-1.8 1-1.1-1h-3.5v1.8h-2.7c0-.1.3-2.2.3-2.2l-3.2-.6-1.5 1.9-2.3-3.6 1.1-1.3 1.5-.8 1.7-3.2h4.8l4.2 1.2 1.3 1.7h2.3l4.5-6.2h1.4l1.4-1.6 2 .8 1.4-2.1-.9-5.1-.6-.5-1 1.9-2.6-1.4-.8-1.8 3.8-1.4.9-3.6 1.8-1.9-.9-1.5-2.9.6-3.8-1.2-5.1-2.5v-1l-1-.2-1.2 1.3-1-.4-.7-.8.5-3.1h-7.9v-.2h.1l5-7.6 2.4-1.3 3.8-6.5Z"/><path id="LV-016" d="m241.7 301.1.2 1.9 2.1.2 1.7 4.4 2.4-1.2 1.6 2.3 1.8.8-1.6 2.1.4 1.1 1.8.6-.9 3.3-5.4 3.2.2 1.1 3.9 1.6-3.3 3.5 3.1 2.5 1.2-1.2 3 1.1v4.1c.1 0-3.8.6-3.8.6l-4.7 3.1-2.2-.4-2.1-2.1-2.4.6-1.3-3-3.5-.3v1.6c.1 0-5.7 2.2-5.7 2.2l-1.9 2-3.8.5-1.7-3.6-3.4-.3v-2.2l-1.8-1.5-.5-2.4.3-1.1 2-.7.9-2.8h2.5c0-.1-.9-3.5-.9-3.5l2 1.2 4-.3-1-2.2-3.2-.5-4.4-4.2 1.1-2.2-1.3-5.9 2.5-3.1v-1.8l7 1.8 4.9 2.5 1.8-3.1 3.6-1 1.4.8 1-1.4 2.3 1.3Z"/><path id="LV-017" d="m323.4 166 7.5-.7 2.8 3.3-.8 2.6 3.4.3 1.2 1.6-3.5 1.3 1.4 2.9 2 1 2.1-2.1.3 2.4-2.8 2.1-3.1-.4-1.1 1.7-1.7-.6-2.6 3.1-4.4-.6-2.7 1.8-.3 2.4-1.3.5h-.9l-1.3-3-3.2 2.1-2.9-1.7-1 1.2-1.3-1.8.8-1.3-1.4-3.8.5-1.9h4.7l1.2-1.8-.3-2.1 1.8-.7 2.2-3.7 3.7-1.5 1-2.2v-.5Z"/><path id="LV-018" d="m110.3 261.4 2.6 2.1 3.9-.5 1.7 2.8 1.8-.4.2 1.9 2.6-.5 2.2 1.9 5.3-1.5.4 1.6 2.2 3.5.6 6.8-1.6.3 1.1.8-.4 1.7h-1.4c0 .1-.7 1.8-.7 1.8h3l2.1 4.8-1.3.6-.6 3.7-4.2-.5v2.6l2.3 2.1v.7c-.1 0-2.1-.2-2.1-.2l.5.7-1.7.7-1.5-1.1-4.4-7.5-3.1-.8-.6 2.6-1.9 1.1-.6 1.7-1.4-.6v-5.5H113l-1.8-2.3.5-7.4-1.1-1v-2.6l-1.8.6-1.5-3.9 2-10.7 1.1-.2Z"/><path id="LV-019" d="m323.5 166.6-1 2.2-3.7 1.5-2.2 3.7-1.8.7-1.3-1.6-4.9 1-2-3.8-4.4-2.6-.5-2.1-4.4-5-.9-2.7-4.3 2.6-2.4-.4-1.1-1.1.6-2.5-1.8-1.5 2.2-4.5-1.3-4.8-3.2-.7-1.7-2.7 2.4-2.2h2.3l3.4 2.3.3-4.1-1.4-1.8 2.2-1.1h1l2.5 4 3.5 2.5 1.2-1.1 1.3.5 1.6 2.8 10.6-.7h1.5l3.9.5 3.9 1.3 7.5 5.6-1 2.3h-3.7l.5 1.7-2.1 1.3.5 3.4-5.9.5-.2 1.1-1.5.6.7 2.5 4.8 1.8v.8Z"/><path id="LV-020" d="m238.4 219.2-1 8-5 2.6.3 2.2-2 2.7-1.2-.7-3.2 2.3-2.3-.3v-1.5l-2.2-1.8 5.8-4 10-10.1.7.6Z"/><path id="LV-021" d="m377.7 237.8 1 3.1-.6 2.5 2.6 2.4-1.9 4-2.8.5.6 2.8-4.6-1.6-1.4 1.2-3.2.2-1.9-5-3 1 2.3-2.6-.7-6.8.9-1.2v-5.1l.4-1.4 7.1 1.2 1.7-2.2.3 3.2 3.2 3.7Z"/><path id="LV-022" d="m321.5 214.6.9.6.7 4.3-1.1.9v3.3h-.1l-4.5-2.1-.6 1.8-3.1-.8-1.8-3.2-2.8-1-1.8-2.5 1.1-2.7-3.4-.9.5-2.5-1.5-2.3-2.9-2.1-3.1.3.2-.9.6-1.1-1-1.2.9-1.6.3-.7 5.7 1.7.9 1.4-1.7 1.3.6 1.1 6.2-1 4.6 2.4 2.1 2.9-.7 4.7 2.7 1.4 2.1-1.3Z"/><path id="LV-023" d="m461.7 298.1-1.6-.8-.5-3.4 1.9-1.3 2-.7.5-3.5 3.3-1.4 1.3-2.1 2.9-.7 4.2 1 2-.8.8 2.5h-3.4l4.8 1.8.9-1.4-1-2 1.3-6.3h1.9l1.3 3.4 4.1-.7 2.6 2.6-.3 4.5 2.2 5.5 1.1 1.2h4.6c0 .1 1.1 1.3 1.1 1.3v2.7l-2.5 1.3-.7 1.7.5 2.2 1.6-.7.7.7-.3 2.1.8 1.2h-3.4l-1.1 1.7-1.2-2.5-1.6-.7-1.5 2.1-1.7.2-1.3 2.7h-1.4l-1.1-.4v-2.5l-2.2-1.6-.6-1.7-2.2-.9-.9-1.9-2.7.6-.5 2-5.7-5.8h-1.1c0-.1-.9 1.4-.9 1.4l-4.8-2.8-2.1.3Z"/><path id="LV-024" d="m472.1 371.5-6.3-4.5-.8.9.4 2.7-3.5-.2-11.7-6.9-4 2.3-.7-1.2 1.7-5.6-8.1-1.1-1.3-.9.6-2-1.2-.7 5.9-1.5 2.4-3-2.7-2.9.6-3.1 1.5-1h3l1 .2v1l2.5.2 1.5-3.1-.8-1.3 4 .5 1.7-1 .5-2.2 4.2 2.3 4-.9 1.8.6 2.7 4.6 2.4 1.1h3.8l3.4 1.8 2.2-.9 1 1.3 2.4-2.1 2.9.3 4.5-3.4h1v2.6l1.6-.9.2-.3 1 1.3-3.8 5.5 1.1 1.5-1.4 2.1-3.2-1-1.4.7-5 9.1-2-.7-4.3 2 1.5 1.7-2.2 1.8.7 2.3-2 1.7-2.9.4Z"/><path id="LV-025" d="m417 385.1-.8-3.2 2.3-2.8-1.3-2.4 2-2.2-2.3-1.8-.4-4.3 2.3.2.6-1-1.8-3.9 1.4-3.2-2.7.3-1.5-4.3-1.4-1.4.3-2.2-.3-1.2-2.5 2.5-2.2-1.7-4.9 3.1h-3l-.9-3.2-2.7-.5-1.2 1-3.5-1.6-1.1-3.2-1.2.9-.2 3.6-2.4.2-1-5.4-2.8-3-2.5 2-2.5-2.9-3.4 1.8-2.5.7.3.2 2.7 3.7-.2 7.6.4.5.9 7.8 1.6 3.9-.9 1.3-2.6-.5-2.7 2.1-.5 1.7h-1.2v2.3l2.8.6-3.1 1.4-.7 2.2 1.2 2.3 4 3.1-.8 2 .8 1.3-1.2.8-1.8-.9-3.3.7 2.3 6.3 3 2.9 2.8.5 2 4.3h5.6l4 3.1 5.3.6 2.6-.8 1.5-3.1 4.3.7 1.7 2.3 2.7.6 1.2-2.4 4.9-2 3.6-9.2h1.7l2.2-3.1.2-6h-3Zm-25.1.3-1.6 2-2.2-1.2-1.7 1.1-1.6-2.5 1.2-1.8-3.4-5.9 1.8-.6 5.3 2.3 3.2-5.3 1.6 4.2.8 6.3-3.5 1.4Z"/><path id="LV-026" d="m173.7 306.9-1.3-5.5-2.3-2.1-.6 2.1-4.7 3.5.4 3.7 1.9.6-.8 1.7-.9.5-4.1-1.5-4 1.1-1.5 1.8-.2-.4-1.8-1 .6-2.2-2.9-1.3.6-3.2-1.1-4.8 1-1.2-1.8-.7-2.6-3.6-2.8.9-1.9-2.3-2.1.4-.4 1.5 1.4.8-3.4 1.2-3.2 3.6-1.2-.5v-3.1l-1.7-.2-2.4-2.1V292l4.2.5.6-3.7 1.3-.6-2.1-4.9h-3l.7-1.6h1.4c0-.1 1.5-.1 1.5-.1l.6-1.2 1.2.5v-1.1l2-.6 8.4-.5.9 2.9 5.7.4.4-1.3v-.5l4.5 1.4.7-.8-.9-1.3 1.2-1.7 5.5 1.7 4.7-5.1-2.5-2.9 1.7-.6 2.4-3.2.7-.3.6 1.8 4.5-.7 2.6-2.1 1.4-.2 1.5 7.5-4.9 2.2-2.2 2.7-.4 1.7 3.5 1.1 1.5 1.6-2.4.5 1.5 2.7-3 1.6v2.3l-2.4.8-.2 2 5.6.8.4 1.2-4.3 1.1v1.9c.1 0 3.2 1.7 3.2 1.7l-1.8 4.4.4 1.3-2.8 1.6Z"/><path id="LV-027" d="m115.9 156.7-2 .6-.7 4.1 1 2.6 3.7 4-1.7 3.7 1.2 1 .7 4.6.3 1.5-3.5 1.5-1.8-1.6-.8.4-1 4.2-2 1.3-1.8 6.1-3.3-.9-4.3 2.4-.6-3-2.9-1.5-1 1.8-.7-1-1.8.9-.5 1 .8 1.3L89 193l-3.3-.6-4.1-2.8 6.7-3.3.9-1.4-1.2-.4-.5-1.9 1.9.5 4.2-4h2.1c0-.1-.8-6.4-.8-6.4l-1.8-3.9.2-2.6h.8l-2.1-3.3-1.8 1.2 1.4-1.8-1.8-2.6 21.7-11.2 6.2-1.9-1.9 10.3Z"/><path id="LV-028" d="m47.4 297.7-1.7-1.2-3.3 2.3-.5 1.4 1.7 2.6-.5 1.1h-1.4l-6.2-5.1-.8.9.3 3.3h-3.3c0-.1-.6-2.2-.6-2.2l-4.3.8-1.6-.6 1-1.1-1-.8V296l1.6-3.1-2.4-6.1.4-1.6h1.5l.9-1.2v-2.6l-2.8-4.1L26 275l2.2.5v1.9c.1 0 3.2 2.9 3.2 2.9l3.4 1.4.4 2.7 2-.9-.2 2 1.7 1.8 7.8-2.2 2.2 1 1.5 9.8-2.7 1.4v.2Z"/><path id="LV-029" d="m177.9 251-7.1 2.4-5.9-1.1-2.7.5-2.7-1.6-3.4 1.1-2-.4 1.8-3.2 2.9-1.2-.2-1.4h-1.7l-1.4-1.4 2.2-3-1-1.7 3.2-1.4v-2l1.5-1.1-2.7-6.6-3.1-2.2-1.4.6-4.3-3.3 2.9-2 .5-3.5 1.5-1.1-1-1-.4-4.8-1.1-6.1.8-1.6 2.1-.7 2.3 7v3.7l4 9.1v6.7c.1 0 1.5 2.5 1.5 2.5l6.5 5.3 9.4 1.8 2.3 5 2 2-5.1 1.8-.4 3.3Z"/><path id="LV-030" d="m331.3 272.8-2.4-4.2-5-2-3 .8-2.8-1.7V263l-.8.2-1.2-1.6h.9c0 .1-.2-1.7-.2-1.7l4.5-.8-3-3 2.1-4.2-1.3-1.5-.8-4.7-1.7-.4.3-1.3.7-.9 5.1 3.3 4.6-3.1v2.7l-1 .8.9 1.7 4.7-3.3.8-1.7h2l1.4 2.4 1.1.3 1.8-1.6 2.4 2.5.2 1.4 3-.3 3.9 4-.6 2.4h-3.4l-.4 1-2.2-1-1.4 1.2-1.5-.5-3.1 1.3-1.9 2v2.1c-.1 0 1.7 2.9 1.7 2.9l-.3 1.9-1.3.8 1.5 1.4-1.4 1.8.3 1.7-2.8 1.8Z"/><path id="LV-031" d="m239.3 247.8-2.2-1.1-.6.2-3.7-4.6-4.2-1.6-.7-3.2-1.4-1.2 3.2-2.3 1.2.7.6 2.6 5.5 1.8 3-3.8 1.3.6 5-2 2.6-3.3 1.4.5-1 1.9.7.6 2.8-1.1 1.6 2.7-1.1.8-1.6-1.3-1.8 2.2.9 5.2-8.9 1.2-.7 1.4.8 1.2-2.6 1.9Z"/><path id="LV-032" d="M31.6 302.8v3.4l2.8.9v3c-.1 0 2.4 3.5 2.4 3.5l1 3.6-1.1 5.9-2.4 3.9-7.7.5-2.9-3.3-1.2-9.5-1.3-.4-1.7 1.3-2.4-1.8-.6-7.6-5.1 1v-2.6l1.1-2.2 2.3-1.5V297h-2.2v-4.6l-3.7-.6.8-2.9 2.3 1.2 3.4-.3v-4.3c-.1 0 1.3-2.3 1.3-2.3l3.8 4.3 3.4-.9 2.4 6.1-1.7 3.1v3.1l1.1.8-1 1.1 1.6.6 4.3-.8.6 2Z"/><path id="LV-033" d="m371.1 201.3 5.2 1.7 5.9-1.5-.7-2.6-2.3 1.3-.3-1.9h2.4l.7-2 3.8-.4-1.9-3 .9-1 1.5.6 2-1.1-.3 1.3 1.9 1.2 1.8-1.4 1.3 1.3.6 3 2.8 1.8-.7 1.9 3.4.3-.2 2 2.5 1.7h2v-2.2l1.5-.4 2.2 1.7 4.1-.4.9 1.9 7.7-1 3.3 3.4 3.3 1.4-1.9 1.3-.3 1.5 7.8 3-3.8 6.5-2.4 1.3-5 7.6-.6.9-3.5 6.7-5.4 2.8v2.2l1.2-.2-1.2 3.1-4.8-.6-.8-1.1-3.2.9-1.6 2.1-1.1-.8-3.3 1.1-4.3 3.1-1-.5-1.7-9.1-3.1-4.2-1.2.5-2.4-1.8-1.2 1.5-3.9 1.2-3.2-3.7-.3-3.2-1.7 2.2-7.1-1.2-.4 1.4-1.3-.7-3.4 1.2-1.1-.5 1.8-1.9.3-2.4 2.2-2v-1.6l-3.3-3.6-1.1-4.5-2.6-1.4-3.9.2-.9-3.7 2.7-1.1.6 1 1.2-.5-.7-2.3 2.4-2.1 2.6 1.5 2.4-1.1h7.4l-.8-3.2h1.5c0 .1.8-.9.8-.9l-.7-2.4Z"/><path id="LV-034" d="m239.6 285.7 1.2 3.7-.3 1h-4l.3 6.4.7 1 4 .3v2.9l-2.3-1.3-1 1.4-1.4-.8-3.6 1-1.8 3.1-4.9-2.5-7-1.8 1.1-.6 1.6-3.7H217c0-.1-.2-1.6-.2-1.6h-1.7l-.7-2.1 1.6-.5-.5 1.3 1.3.5-.2-1.3 2.2-.3-.6-2.3H217l1.6-1.2-3.9-.9-.8-1.8.3-1h1l.8 1.7 1.5-.2-.6-4.4 1.4-.6 2.3 1.5.7-1.1.7 2.7 1.9.7.5-.8.7 1.3v-1l1.9-.7-1.4-.7.9-.2v-1.5l.4 1.1 4.1-1 .2-2 1.5 3.2 6.7 2.9Z"/><path id="LV-035" d="m248.9 255.9 4.6-.7.9 1.2h5.5l4.3-.9v.7h-.1v1.2l3.3 2.7-.3.7-2 .2-1.4 1.3-1-.9-1.5.2-2.4 3.5-3.4-1.1-2.2 1.7-2.8 1.2h-1.3c0 .1-4.1-4.1-4.1-4.1l.9-3.2-1.6-3 5.2 3-.4-3.9Z"/><path id="LV-036" d="m376.1 358.1.9 7.8 1.6 3.9-.9 1.3-2.6-.5-2.7 2.1-.5 1.7h-1.2v2.3l2.8.6-3.1 1.4-.7 2.2 1.2 2.3 4 3.1-.8 2 .8 1.3-1.2.8-1.8-.9-3.3.7-.5-2.4-2-2.7-5.4-2.4-1.9-2.4-3.2-6.8-10.3-5.8h-2.7v-2.6l-1.6-1.2-.8-2.4 1-.2.2-2.5 2.3-1.5-2.4-1.9-.8-2.5 5.1 3.3 2.4 4.1 5-3.2 2.6 2.7 3-2.4 1.2-3.1 2 1.7 1.1-2.9-1.2-1.2 5-5.3h1.2l1.6.6.3 2.4 2.4-1.4 1.8.7.7 1.5-.8 1.3.3 4.1 1.3 1.5.6.7Z"/><path id="LV-037" d="m268.6 225.9-.9 3.5h-2l1.6 1.6v1.9l-3.4 1v1l-1.9.7-2.8-1.3-1 .7h-3.8l-1.6-2.8-2.8 1.1-.7-.6 1-1.9-1.4-.5.3-1.6 3.4-1.3 1.3-2.6 6.5 1.5.6.4 4.2-2.6h2.8l.6 1.6Z"/><path id="LV-038" d="m321.2 296.6.2 1.1 3.7-.8-.4 3.3-2.5 1-1.2 3.2 3.3 3.7v1.7l-3 3.2-2.5-.8-3.4 4.8-5.5.4-5.7-1.6-.4 1.4-9.7-1.5-4.7.2-1.2-5.9-1.5-.8-1.8-4.3-.3-4.8-3-2-.6-2.4 4.1-1.1 1.5-1.2V292l2.6-2.4 2.9.6 9 6.5 1.3-2.8h2.8l3.5-3.2v-1.1l3.4-1.6 5.5 4 .2 3.8 3.2.5Z"/><path id="LV-039" d="M346.5 231.1h-2.4l-3.1-4.3-4.3-1.1-.6-1 .8-2.2-1.4-1.7.7-3.8h.8l3.1-.8 1.8 3.2 1.7.5 4-.6 5.1-3.3 3.9-.2 2.6 1.4 1.1 4.5 3.3 3.6v1.6l-2.2 2-.3 2.4-1.8 1.9-2.8-2-2.8 2.3-4.9-3z"/><path id="LV-040" d="m140.7 261.4.6.5-3.8 3.1 1.7.9.6 1.9 2.9 1 5.6-1.8 2.4 8.7 1 1.9 1.4.4.4 1.7v1l-.4 1.3-5.7-.4-.9-2.9-8.4.5-2 .6v1.1l-1.2-.5-.6 1.2h-1.5l.4-1.7-1.1-.8 1.6-.3-.6-6.8-2.2-3.5 1.7-2.7 1.8-1-.5-3.5 1.9-.7 5 .7Z"/><path id="LV-041" d="M179.8 256.1h6.7c0 .1.8 1.8.8 1.8l1.1-.8 5.6 4.1 2.1 5.4 2.1 1-1.1 7.6-2.2.5-.7 1.9-2.3.8.9 1.2h2.8l.7 1.9-.9.2-1 .6-2.4 1.8-2.3-1.2-1.4 1.1 1 2.4 2.7 2.4-.3 4.5 1 .7 1.5-2.1 4.7-1.5.2-.8-2-1 1-1.2 1 .4 3.1.8 3 2.2 3.7.4 2.6 4.8 1.2 5.5 4.3 3.6-2.2.9-3.9-.3-2.1 2.9-3.4.5-2.5 4.6v1.2l1.2.7-1.2.7.5 1.9h-1.1c0 .1-.3 1.5-.3 1.5l3.7.3-1.2 2.2.3 3.9-4.5-.2-1.5 2.6-1.1-.3 1-4.9-1-1.4-9 1.5-6.1 3.6-7.3-2.4-1.5-2.3-2-.9 3.3-.9 2.4-2.6-2.3-2.9-.5-2.2.8-1.1-1.8-.4 1.8-2.9-2.1-1.4 2.8-1.6-.4-1.3 1.8-4.4-3.1-1.7v-1.9c-.1 0 4.2-1.1 4.2-1.1l-.4-1.2-5.6-.8.2-2 2.3-.8v-2.3l3.1-1.6-1.5-2.7 2.4-.5-1.5-1.6-3.5-1.1.4-1.7 2.2-2.7 4.9-2.2-1.5-7.5-1.4.2-1.5-8.7 2.3-1v-.7Z"/><path id="LV-042" d="m345.8 306.4 1.5 2.1 8.7 3.2 2.3 6 3.1 1.1 1.4 2.5 1.9 10.3 1.3 2.7-1.4 5.1 6.3 3.6 2 3 .4.3 2.7 3.7-.2 7.6-.2-.3-1.3-1.5-.3-4.1.8-1.3-.7-1.5-1.8-.7-2.4 1.4-.3-2.4-1.6-.7h-1.2l-5 5.4 1.2 1.2-1.1 2.9-2-1.7-1.2 3.1-3 2.4-2.6-2.7-.4-2.7-2.1-.5-1.8-2.5 1.3-1.7-.3-1-4.9-2.5-1.3-6.1-5.4-2-7.7.4v-2.1l-1.1-4.5 1.1-1.4h2.9l.6-7.2h4c0-.1.6-2 .6-2l1.7-.8v-2.7c-.1 0 1.7-.5 1.7-.5v-1.1c.1 0-2.8-3.5-2.8-3.5l1.2-4.4v-.4l4 1.2 1.8-2.9Z"/><path id="LV-043" d="m110.3 261.4 1.5-2.4.3-3.2-.4.6-.3-1 1.7-.6v-1.9l-3.8-.7-2 1.2-.2-2.6 1.4-.6.2-4.6.6.3 1.7-4.7 3.4 1.5 1.4-1.1-1-.3.2-1 2.1-.3 3.3 1.4.8-2.3-1.2-4.5.2-3.5 9.1-1.9 2.5-3.6.9.7 3.4-1 4.4 1.4.6 1.8-3.9 3.8-3.4 1.4.7 1.5-.7 2.8 2.3 1.3v1c.1 0-.5 1.9-.5 1.9l-2.8.7-.6 3.8.9 3.4 2.5 2.9h3.4l.4 3.9-1 .8 2.3 3.8-5-.7-1.9.7.5 3.5-1.8 1-1.7 2.7-.4-1.6-5.3 1.5-2.2-1.9-2.6.5-.2-1.9-1.8.4-1.7-2.8-3.9.5-2.6-2.1Z"/><path id="LV-044" d="m461.6 292.6.4-2.9-2.9-.5-1.7-2.8-1.4-.3-1.4 1.5-1.6-3.2 1.7-1.6.6-5.1 1.6-1.2-.4-2.8-2.4-1 .7-1.8-7 .6-1.9-1.1h-.3l-.8-4.3 1.5-1.2 1.9 1.2 1.4-1.6-2.5-.4 3.5-2.3 7.8-.7-.7-2.4h2.3l1.3 2.7 1.6-.2.8 2 2.7.5h2.1c0-.1 3.1-2.6 3.1-2.6l5.3-.9 3-1.8 1.5.4-.3 1.2 2.4 5.6 4.3-1.8.6 3-2.2 1.3v3l-1.9.5-1.2 2.7 3.2 4.6 2.4 1.2-.3 1.7-4.1.7-1.3-3.4h-1.9l-1.3 6.3 1 2-.9 1.4-4.8-1.8h3.4l-.8-2.6-2 .8-4.2-1-2.9.7-1.3 2.1-3.3 1.4-.5 3.5-2 .7Z"/><path id="LV-045" d="m289.7 159.9 2.4.4 4.3-2.6.9 2.7 4.4 5 .5 2.1 4.4 2.6 2 3.8.7 4.5-.5 1.9 1.4 3.8-.8 1.3 1.3 1.8.7.3-1.7 1.6 1.2 1.9-1.3 1.4-.2 2.4-2.2.7-.3-2.3-1.3-.8-2.3 2-2.2-.9-1.2-2.3-1.7-.6-.3 1.5-1.4-.5-1.5-4.2-2.6-1.8.2-3.4-1.5-1-1.6.7-.7-1.4-1.3-.2 1-1-2.6-.5.6-1.8-3.4-5.2-5.6 1.6-.8-.6-1.3-2.5.7-3.8v-.4l2.1.5 4.8-4.5 1.2.5.5 2h2.2l.8-1.1-.8-3 2.7-.5Z"/><path id="LV-046" d="m318.1 265.7 2.8 1.7 3-.8 5 2 2.4 4.2-1.4 1.6-4.5-1.2 1.5 2v3.8l-3.4.8 1.2 3.1-3.8 4.2-1.4 5.2h-1.8l-5.5-4.1-3.4 1.6v1.1l-3.5 3.3-1.5-5.3.3-4.4-1.4-3.3.9-3.5-2.5-1.1v-.9l4.5-2.9 5 .7 1.3-1.8 1.8.5 2.4-2.3.9-3.5 1-.6Z"/><path id="LV-047" d="m472.1 371.5-5.9 5.4v1.9l-2 2.6 1 5.7-1.9 7.2-12.4-.9-4.6-2.5-1.2 1.8-4.6 1.7-2.3-1.1-3.1-4.5-2.2-.6-1.2-1.9-3.3 1-.6 2.1-5.7-.3-2.4 1.8.2-6-3 .2-.8-3.2 2.3-2.8-1.3-2.4 2-2.2-2.3-1.8-.4-4.3 2.3.2.6-1 3.7 2.1 2.5-1.7 5.5.8 2.6-2.2.3-5.4 3.4-.8 1.7-2.4 8.1 1.1-1.7 5.6.7 1.2 4-2.3 11.7 6.9 3.5.2-.4-2.7.8-.9 6.3 4.5Z"/><path id="LV-048" d="m261.1 215.2 2.3-.7.6-1.4h-1.8l-.9-6.7-2.3-.7-.5-1.6 3-1.7 1.9-2.9-1.3-4.5 3.9-3 1 .6-.3 1.8 5.7.6 2.5 5.8 2.4.4-2 2.6 1.2 2h1.1c0-.1 2.3 2.2 2.3 2.2l-1 3.5h-.2l-1.9 2.4-.2 1-1.4 4.7-4.2 1-1.3 3v2.6h-.9l-.6-1.5h-2.8l-4.2 2.5-.6-.4.9-1.6-.3-3.9-.8-.8h-3v-3.1h2.8c0-.1 1.1-1.9 1.1-1.9Z"/><path id="LV-049" d="m358.3 317.7-2.3-6-8.7-3.2-1.5-2.1v-1.3l1.6-.7v-1c.1 0-3.3-1.2-3.3-1.2l-3.5.6-5.2-1.3-1.5-4.1 1.5-2.8v-2.8h.1l1.7.9 3.9-.6 6.3-3.2 3.3-3.4 1 2.9 1.5.5 1 2.3 7.3-4.7 1.6 1.9 2.1-.7 1.9 5.5 3.9-2.2.6 4.3h2.1c0 .1 3.3-2.9 3.3-2.9l1.3-4.5 7.4 6.1h7.5l-1 6.5 1.9-1.4 1 2-2 5.1 1.2-.3v1.7h-4.7v-1c.1 0-4.2-.6-4.2-.6l-3 3.3-5.2 3v-2.9l-3.6-3.2.8-1.3-3.9-1.5v1.6c-.1 0-2.6 1.3-2.6 1.3l-5 8.6-4.7 2.8Z"/><path id="LV-050" d="m88 268.8-1.9-1.7-2 .5-1.3-2.6-3.2-.3-.8 1.1-1.9-1.2-1 .4-2.3 2-1.2 2.8 1.9 8.2-1.1.9-2.3-1-2 .6-1.2 1.5-2.2.5-.7 1.9-4.6-2 1.1-.9V277l-1.2-.3.4-1.6-1.2-2.6-3.7-3.1-3.4-.2-3.3-6.6-5.7.4-.3-3.1-2.5-1.9 1.3-3.2 3.8 1.3 1.8-3.6 3.9.7.7-1.7 3.2-1.1 1-1.7-1.5-5-4.1-4.3.2-2.8-1.8-.2-3.7-3.1 1.8-1.8 1.6.5 3.5-4.3 3.2 1.3.8-1.8 3.2 2.3 2.6-.2.5 1.5-1.1.9.8 1.2.6-1 1.7.9 1.3-3 2.4.6.9 1.2 1.4-1.3 2.2.7 1-1.1 2.7-.2.9-1.5 3.7 1.9h3.8l-.1-1.3 4.1-.6.9-1 1.1-8.2 1.2 1.6 1.7.2-.7 3.5 2 2.2 5.9 2.1.9 7-1 .4v1.5l.2 1h1.2l.6 2.9 4-.8 2.3.9 1.4-1.4.6.7-1.7 4.7-.6-.3-.2 4.6-1.4.6.2 2.6-1.5 3.9-2.1.7-2.9-2-.6-3.1-3.2-1.1-1.2 1.8.6 2h-1.2l-.4 1.9 4.3.4v1.7c.1 0 1.6 1.3 1.6 1.3l-1 1.7-1.5-.2-.8 2-3.6.3-1.6 1.2L91 269l-2.9-.4Z"/><path id="LV-051" d="M286.7 292.2v1.4l-1.6 1.2-4.1 1.1-3.7.8-1.1-.7-2.2 1-1.8-.5-7.3 3.8-2.2-.8-1.8.5-.9-2.7 2.4-.2v-1.8l-1-.9-1.3.5.4-1.8H257l-2.3-6.4v-2.5c.1 0 3.7-.2 3.7-.2l-.4-4.7-6.9.4-.3-1v-4.6h-.1l1-1.9-.6-2.3-1.4-.9v-2h.6l2.8-1.3 2.2 1 3.1 5.2 4.5 2.5 3.2-.6.4-2.2 2.2-.9.2-.9-1.6-.2.7-3.4 2.4.2.3-3.9.8-.5 2.3 2.1.9-1 .8 1.7 2.7 1.4v.6h.1l-3.4 4.5-1.8.7-.5 4.3-.8.6-3.4-.7-.9 1.3 2 1.6 4.5 1.3 1.4 5.6 5.4 5.1 3.3 1.2 2-.3h.7Z"/><path id="LV-052" d="m244.8 263 4.1 4.2h.8l-.1 1.9 1.4.9.6 2.3-1 1.9-7.8-4.3-3.2-.5-3.9 1.6-2.5-1.8-1.1 2.3 1.4 1.1v2l-.9.7-.9-1.6-2.9 1.8 1 2.8h-2.6l-1.5-1.1-11.8.5.1-.5.5-3.7 2.6-2 3.5.2 1.2-3.5 1.5-1.4v-2.9c-.1 0-2.7-2.8-2.7-2.8v-2.6l.9-2 1.8-.8 1.2 1 .9-1.6h.9l1.7 3.6-.5 1.7 2.9 3.2 1.6.4 4.1-1.4 5.9 1.2 2.7-.7Z"/><path id="LV-053" d="m286 292.3-2 .3-3.3-1.2-5.4-5.1-1.4-5.6-4.5-1.3-2-1.6.9-1.3 3.4.7.8-.6.5-4.3 1.8-.7 3.4-4.5v-.4l1.7-1.1.7 1.9 3.6 1 1.8-.5 4 6.6v1.6l-3.8.3-.5.9 2.1 3.4-3.1 1.4-.7 6.3 1.9.9v3.2Z"/><path id="LV-054" d="M260.3 146.6h1.4l3.8 4.6h3.5l2.9 1.8.6 6.5 4.1 2.2-.5 3.9v.8l-.7 3.8 1.3 2.5.8.6 5.6-1.6 3.4 5.2-.6 1.8 2.6.5-1 1-1.1 2.6-2.7-.7.5 1h-1.1c0 .1-.2 1.5-.2 1.5l-6 5-4.1 1.9-4.7-1.9-.3 1.2 3.8 1.8.6 2.2-5.7-.6.3-1.8-1-.6-3.9 3 1.3 4.5-1.9 2.9-3 1.7.5 1.6 2.3.7.9 6.6h1.8l-.6 1.4-2.3.7-1-1.4-2.1-.2-.7-3.7-3.5-3.2-.3-3.6-2.1-.3-6.5 3h-1.2l-.2-4.6-1.6-2.4-.3-6.3 6.8-1.5 2.3-4.4h2.5l1.3-2.3-2.4-2.2-.2-7.1h-2.4c0-.1-.2-2.7-.2-2.7l-.9-.6h-3.9l-.7-12.7 5.3-1.2 1.8 1.1 3.8-.6-2.2-1 .6-2.9 1.4-1.2h3.1l-1-1.5.8-1-.6-2.2 3.6-1.9Z"/><path id="LV-055" d="M289.4 227.8v-.6l-7.2-.5-1.2-1.7 1.2-.5-.6-4.8-2.1-3.5-3-1.5.2-.9 1.9-2.3h.1l8.2-.6 2.1-1.2v2.2l4.9 1.6.9 8.2 2.1.6-2.7 4.5-4.8 1.1Z"/><path id="LV-056" d="m372.9 346.1-2-3-6.3-3.6 1.4-5.1-1.3-2.7-1.9-10.3-1.4-2.5-3.1-1.1 4.7-2.8 5-8.6 2.5-1.3v-1.6c.1 0 4 1.5 4 1.5l-.8 1.3 3.6 3.2v2.9l5.2-3 3-3.3 4.3.6v1h1.4v5.8l1.5.8h.3l-.6 4.3-1.9 3-3-2.4H386l-1.2 4.7h1.6l1.7 2.3 4.2 2.1.9-.4-.4 2 1.6 3-1.7.8-.7 1.7-5.3-1.8-4.5.5-3.1-5.8-1.5.8-.2 4.5h-2l-2.7-2.1-.5 2.1 1.7 6.1-1.3.2 2.7 5.5-2.5.7Z"/><path id="LV-057" d="m417.3 263-.9-1.3-2.7-.7-1.5-3.1-1.5-.5-5.9 1.6-3.2-1.6-9.5 11.6-1.2-.9-2.6.5-1.4-1.3 1.6-1.5-.2-.9-2.6-.9-.7-2.5 6-9 .2-3.2 1 .5 4.3-3.1 3.3-1.1 1.1.8 1.6-2.1 3.2-.9.8 1.1 4.8.6.4 1.2 3.6-.2-1 4.6 4.1 2.3.7 4 1.5 1.7-1.7 3.2-1.5.8Z"/><path id="LV-058" d="m502.4 318.8-3.4-.6-2.9 1.6-2.4-2.7h-3.1l-.5.8 1.8 4.7-.5 1-3.7.7-7.1 6.1 1.4 5.4 4.4-.5-.5-2.7 2.8-.5 2.3-2.3 3.1 1.8 5 5.6-2.8 5.7-.3.6-1.6.9v-2.5h-1l-4.5 3.4-2.9-.3-2.4 2.1-1-1.3-2.2.9-3.4-1.8h-3.8l-2.4-1.2-2.7-4.6 2.1-1.6-1.3-2.7 2.5-4.3-3.1-3.5 1.3-4.8-4.2-.9-.9-1.9 1.2-1-1.5-.9.9-1.1-2.2-1.1-1.4.8.6-1.3-1.1-.4-2-3.7.2-1.7-3.1 1.7-.9-1.8.4-1.5-1.2-.9.7-1.5-.7-.9 1.4-2.5h5.1c0 .1.7-3.5.7-3.5l2.1-.3 4.8 2.8.9-1.5h1.1c0 .1 5.7 5.9 5.7 5.9l.5-2 2.7-.6.9 1.9 2.2.9.6 1.7 2.3 1.6v2.5l1 .5h1.4l1.3-2.7 1.7-.2 1.5-2.1 1.6.7 1.2 2.5 1.1-1.7h3.4l3.4 4.4-.8 3.3.9 1.9-1 1.1Z"/><path id="LV-059" d="m405.1 283.7-4.5-1.5v-2.1H396l-1.7 1.3-1 2.7-1.4-1.3-4.4 2.4-9.1-.8v3.5h-.1l-1.3 4.5-3.3 3.1h-2.1c0-.1-.6-4.4-.6-4.4l-3.9 2.2-1.9-5.5-2.1.7-1.6-1.9-7.3 4.7-1-2.3-1.5-.5-1-2.9-3.3 3.4-.6-2.5 1.8-3.3-1.9-1.5-2.6.3-3.1-2-1.2-4.6 1.9-2.5-.7-3.5-1.8-.7-3.1-3.9-1 .4.3-1.9-1.9-2.9v-2.1c.1 0 2.1-2 2.1-2l3.1-1.3 1.5.5 1.4-1.2 2.2 1 .4-1.1h3.4l.6-2.3-3.9-4 2.4-1.5v-3.7l-2.9-1.2 2.5-10.7 2.3-.6 4.9 3 2.8-2.3 2.8 2 1.1.5 3.4-1.2 1.3.7v5.1l-.8 1.2.7 6.8-2.3 2.6 3-1 1.9 5 3.2-.2 1.4-1.2 4.6 1.6-.6-2.8 2.8-.5 1.9-4-2.6-2.4.6-2.5-1-3.1 3.9-1.2 1.2-1.5 2.4 1.8 1.2-.5 3.1 4.2 1.7 9.1-.2 3.2-6 9 .7 2.5 2.6.9.2.9-1.6 1.5 1.4 1.3 2.6-.5 1.2.9 9.5-11.6 3.2 1.6 5.9-1.6 1.5.5 1.5 3.1 2.7.7.9 1.3-1.1 1.3-9.9 15.1-1.2 4.3Z"/><path id="LV-060" d="m290 106.6 1.4 2.6-1.7 5.8 3.2 5.5-1.3 2.4 1.4 2.5 3 1.3 1.9 3.3v2.3l2.9 1.9v6.3l-1.2 1.1-3.5-2.5-2.5-3.9h-1l-2.2 1 1.4 1.8-.3 4.1-3.4-2.3h-2.3l-2.4 2.1-2.2-1.3-1.8.7-3.4-2.5-1.9-9.8-2.2-1.4-.2-9.2 8.1-5 3.9-.3 4.9-6.7h1.3Z"/><path id="LV-061" d="M270.7 245.3h1.5l.6-2 3.1-1.8-1.2-3.2 1-1.1.2-3.1-1.8-2.3v-2.3c.1 0 2.2 2.9 2.2 2.9l2.8.9 2.9-.6.8 1.8-.6 1.2 3.3 1.2.7 2.8 1.1-.4 5 3 .8 2.1-.9.9 1.1 1.7-.6 2.4-4.2.2-2 2-1.7-2.2-1.8 1.1-.2 1.3-1.4-.4-1.2-2-1.5 2-1.1-.3-1.4 1.2h-2.7c0 .1-1.9-1.1-1.9-1.1l-2.2.6-.5.4 1.7-3.5v-3.1Z"/><path id="LV-062" d="M218.5 258.5h-1.2l-.8 2.4-2.1 1-2.5-1-7.8 3.3-1.7-6.8 2.9-2.4 1.6-.2 3.4-3.8 8.3 4.1-.2 3.5Z"/><path id="LV-063" d="m144.8 193.4.7-1 2.4 3 5.8 1.5 1.5 6.2-2.1.7-.8 1.6 1.1 6.1-2 .5-.2 1.4-3.4-2.6 1.4-2.6-1.4-3.5-5 1.1-.8-2.4-2.3-.7-1.4-3.7 2.4-1.9 1.6.6 2.9-1.2-1.2-1.6.9-1.6Z"/><path id="LV-064" d="m316.6 118.2 2.4-.6-.5 1.5 2.7-.4.5 1.4 1.4-1.4 1.1 1.9-.7 1.9 7.5 5.2v3.1l-1.3 1-.5 2.7h-2.6c0 .1-4.2-3.1-4.2-3.1l-2.8.3-1.6 2-1.4-.8-.5 2 5.3 5.2-1.6 3.7-3.9-.5h-.8v-3.9l-2 1V138l-2.8-5.9-1.4-.3-3.3-3.7-1.5-.6-.6 1.5-1.8-4.6 4-7.8 2.3 4.2.9-1.2 2.7.9.6-3.2 1.9-1.1z"/><path id="LV-065" d="m303.9 317.3.4 8.4-.9 1.2 3.3.2 1.2-.9 1.1 1.7-3.6 1.4-1.1 2.9 2.1 1 1.5 2.9h1.5l1.5 2.4-.9 3.3.8 3.6 1.4 1.3-.4 1.4h-3.4c0 .1-.1 1.1-.1 1.1l-3.1 1.1-5.7-5.9-2.3 2.1h-3.3l-5.3-2.5-1.5-8.8-2.4-1.3-.5-1.9-2.6-2.5-.4-6.5-1.9-1.4-2.2-4.7.5-3.3-2.2-1.2.2-1.9 2.9-4.2 6.3-1.3 1.8 4.3 1.5.8 1.2 5.9 4.7-.2 9.7 1.5Z"/><path id="LV-066" d="m23.9 324.4-2.2-1.3-1.4 1 .3 7.7-3.3 8.5-1 .5-.3-.9h-1.2v7.8l-2.2-.3-.7-7.1-2.6-1.6 1.8-.7v-2.1c.1 0-.8-.7-.8-.7l-3.8.6-.9-13.5 2.1-8.5v-4.1h1.5l1.1-1.7h1.2c0-.1.5-.6.5-.6l5.1-1 .6 7.6 2.4 1.8 1.7-1.3 1.3.4 1.2 9.5Z"/><path id="LV-067" d="m292.7 249.5 7.8 2.8-.6-1.3 1.4-.6-.4-1.1 1.7-.8v-1.2l4.3-1.7 1.6 5 1.8 1.4 4.9-5.2-.8-2.2 1.6-.2.7-.2-.3 1.3 1.7.4.8 4.7 1.3 1.5-2.1 4.2 3 3-4.5.8.2 1.8h-.9c0-.1 1.2 1.5 1.2 1.5l.8-.2v2.7l-1 .6-.9 3.5-2.4 2.3-1.8-.5-1.3 1.8-5-.7-4.6 2.9v.9l2.6 1.1-.9 3.5-4.5-1.7-1.9 1.2v-.4l-2.1-.5-4.2-3.8v-1.6l-4-6.6-1.8.5-3.6-1-.7-1.9-1.7 1.1v-.2l-2.7-1.4-.8-1.7-.9 1-2.3-2.1-.8.5-.3 3.9-2.4-.2-.7 3.4 1.6.2-.2.9-2.2.9-.4 2.2-3.2.6-4.5-2.5-3.1-5.2-2.2-1 2.2-1.7 3.4 1.1 2.4-3.5 1.5-.2 1 .9 1.4-1.3 2-.2.3-.7-3.3-2.7v-1.2l.2-1 4.1-2.5 1.3-1 2.2-.6 1.9 1.2h2.7c0-.1 1.4-1.3 1.4-1.3l1.1.3 1.5-2 1.2 2 1.4.4.2-1.3 1.8-1.1 1.7 2.2 2-2 4.2-.2Z"/><path id="LV-068" d="m213.9 277.8 11.8-.5 1.5 1.1h3.3l1 1.2-.2 2-4.1 1-.4-1.1v1.5l-.9.2 1.4.7-1.8.7v1l-.7-1.3-.6.8-1.9-.7-.7-2.7-.7 1.1-2.3-1.5-1.4.6-2.5-.8.5-2-1.2-1.2Zm6.8-19.3v2.6l2.6 2.8v2.9c.1 0-1.4 1.4-1.4 1.4l-1.2 3.5-3.5-.2-2.6 2-.5 3.7-4.5.2-.6-3-1.2 1.1-4.8.4v1.7l-1.1-1-1.5 1.1-3.1-2.7 1.1-7.6h1v-1.6l.9-.4 2.7 2 1.5-3.5 7.8-3.3 2.5 1 2.1-1 .8-2.4h3.3Z"/><path id="LV-069" d="m199.2 287.8 1.2-1-1-1.4.3-3.1-4.3-.7.9-.2-.7-1.9h-2.8l-.9-1.2 2.3-.8.7-1.9 2.2-.5 3.1 2.7 1.5-1.1 1.1 1V276l4.8-.4 1.2-1.1.6 3 4.5-.2v.5h-.1c0 .1 1.2 1.3 1.2 1.3l-.5 2 2.5.8.6 4.4-1.5.2-.8-1.6h-1l-.3.9.8 1.8 3.9.9-1.6 1.1h1.2l.6 2.4-2.2.3.2 1.3-1.3-.5.5-1.3-1.6.5.7 2.2h1.7l.2 1.5h5.2c0 .1-1.6 3.9-1.6 3.9l-1.1.6v1.8l-2.5 3.1-4.3-3.6-1.2-5.5-2.6-4.8-3.7-.4-3-2.2-3.1-.8Z"/><path id="LV-070" d="m287.6 180.2 1.3.2.7 1.4 1.6-.7 1.5 1-.2 3.4 2.6 1.8 1.5 4.2 1.4.5.3-1.5 1.7.6 1.2 2.3 2.2.9 2.3-2 1.3.8.3 2.3 2.2-.7-1.5 3-8.2-.7-.7 2.8-.3.9-.9 1.6 1 1.2-.6 1.1-.2 1-2 3.2-4.4-1.1-2.6 1.7-2.1 1.2-8.2.6 1-3.5-2.3-2.3h-1.1c0 .1-1.2-1.9-1.2-1.9l2-2.6-2.4-.4-2.5-5.8-.6-2.2-3.8-1.8.3-1.2 4.7 1.9 4.1-1.9 6-5 .2-1.4h1.1c0-.1-.5-1.1-.5-1.1l2.7.7 1.1-2.6Z"/><path id="LV-071" d="m40.2 258.3-1.5.4.4 4.6-8.6 2.1-.3 2.4-2 .4 1 6.2-1.1 1.1-2.2-.5-1.6 2.3 2.8 4.1v2.6l-.9 1.3h-1.5l-.4 1.6-3.4.9-3.8-4.3-1.5 2.3v4.3c.1 0-3.3.3-3.3.3l-2.3-1.2 1.4-8v-17.4l13.1-10.6 5.6-6.6 1.7 1.2 1-.8 2 .9.4 2v2.6l1.7.9 1.4-.6-.3 1.2 3.6.9-1.3 3.2Z"/><path id="LV-072" d="M317.8 292.3h1.8l1.4-5.1 3.8-4.2-1.2-3.1 3.4-.8v-3.8l-1.5-2 4.5 1.2 1.4-1.6 2.8-1.8-.3-1.7 1.4-1.8-1.5-1.4 1.3-.8 1-.4 3.1 3.9 1.8.7.7 3.5-1.9 2.5 1.2 4.6 3.1 2 2.6-.3 1.9 1.5-1.8 3.3.6 2.5-6.3 3.2-3.9.6-1.7-.9h-2.3l-6.2 3.5-5.9 1.2-3.2-.5-.2-3.8Z"/><path id="LV-073" d="m397.2 351.8-2.9-2.3-.7-1.9 5.3-.7v-6h2v-1.7l-.7-1.9h-1.7l-.2-4-3.9-.6-1.6-3 .4-2-.9.4-4.2-2.1-1.7-2.3h-1.6l1.2-4.7h1.5l3 2.4 1.9-3 .6-4.3h.6l.2-2 2-.9 9.1 7.3.4 1-5.6 2.1-1.9 2.3-.4 2.8 1.9 1.7 2.9.6 1.2 2.1 4.2 2.4 1.8 6.4 1.9.8-.7 3.4-2.3 1.4 3.5 1.7 1.8 2.2v2l-2.5 2.5-2.2-1.7-4.9 3.1h-3l-.9-3.2-2.7-.5Z"/><path id="LV-074" d="m41.3 332.1-1.4-2-5-1.8-.5-1.2 2.4-3.9 1.1-5.9-1-3.6-2.6-3.5v-3c.1 0-2.8-.9-2.8-.9v-3.4h3.4c0 .1-.3-3.1-.3-3.1l.8-.9 6.2 5.1H43l.5-1.1-1.7-2.6.5-1.4 3.3-2.3 1.7 1.2v.2l1.3 1.6 1.1-.9 1.7.8 1-2 4.3 1.4v6.4l1.7 1 .3 1.7-4 1.9 1.3 3.6-2.7 1.6 2.9 1.7 1.7 2.6h2.4l-2.7 3.4 1.6 4.1-2.1 2.7-3.4.3-2.7-1.5h-2.7l-2.2.9-1.9 2.8-3 .2Z"/><path id="LV-075" d="m324.8 208.9-.2 2.4-3 1.5-.2 1.8-2.1 1.3-2.7-1.4.7-4.7-2.1-2.9-4.6-2.4-6.2 1-.6-1.1 1.7-1.3-.9-1.4-5.7-1.7v-.2l.7-2.8 8.2.7 1.5-3 .2-2.4 1.3-1.4-1.2-1.9 1.7-1.6-.7-.3 1-1.2 2.9 1.7 3.2-2.1 1.3 3h.9l1.3-.6.3-2.4 2.7-1.8 4.4.6.5 2.6-2 1.9-1.9 6.4-2.1-.9-4.7 2.6 3.9 8 2.2 1.6-.5 1.2.9 1Z"/><path id="LV-076" d="m335 208.9.6-1.2 2.9-.5 2.2.5-.2 1 4.1-2 3.8.7 4.4-1 1.3 1.4h1.2l.2 1.7.7 2.3-1.2.5-.6-1-2.7 1.1.9 3.7-5.1 3.3-4 .6-1.7-.5-1.8-3.2-3.1.7h-1.2c0 .1-1.3-.9-1.3-.9l.7-7.1Zm-6-21.8 3.2 5.3-1.4 1.2 1.5 2.8v2.4l3.5 2.8-2.5.8.9 1.2-1.6 4.4.6.7h.7c0 .1-1.5 1.6-1.5 1.6l-1.1-2.1-6.5.9-.9-1 .5-1.2-2.2-1.6-3.9-8 4.7-2.6 2.1.9 1.9-6.4 2-1.9Z"/><path id="LV-077" d="m471.3 330.6-3.1-3.5 1.3-4.8-4.2-.9-.9-1.9 1.2-1-1.5-.9.9-1.1-2.2-1.1-1.4.8.6-1.3-1.1-.4-2-3.7.2-1.7-3.1 1.7-.9-1.8.4-1.5-1.2-.9.7-1.5-.7-.9 1.4-2.5h5.1c0 .1.7-3.5.7-3.5l-1.6-.8-.5-3.4 1.9-1.3.4-2.9-2.9-.5-1.7-2.8-1.4-.3-1.4 1.5-1.6-3.2 1.7-1.6.6-5.1 1.6-1.2-.4-2.8-2.4-1 .7-1.8-7 .6-1.9-1.1h-.6c0 .1-2.7.4-2.7.4l-2.9-1.4-6.2.2-1.4-2.7-1.8 1-1.1-1h-3.5v1.8h-2.7c0-.1.3-2.2.3-2.2l-3.2-.6-1.5 1.9-2.3-3.6-9.9 15.1-1.2 4.3.4.3 3.9-.2 1.1 1.8 2.9-.3 2.9 7 2.1 1.7 3.3.4 1.5 1.9-.5 1.5.9 1.5-1.1 2 3.7 8.9-1.7 2.2-2.7-.7-2.7 1.3-1.4-1.7-.8-.4-1.6 2.2v2.3c-.1 0-1.5 1.8-1.5 1.8l4.2 4.1 2.7 5.7-.8 1.6-1.4-1-1.3.5.5 3.4 4.9 4-2 3.7h1.6l.9 1.3 1.3 5.3h5l1.9-1 .9-1.9 2.8 1h8.3l1.5-1h3l1 .2v1l2.5.2 1.5-3.1-.8-1.3 4 .5 1.7-1 .5-2.2 4.2 2.3 4-.9 1.8.6 2.1-1.6-1.3-2.7 2.5-4.4Zm-23.4-24.9-1.8 4.7h-.8l-.6-1.6-1.8-.3v-2.8c-.1 0 .7-2.8.7-2.8l3.3-1.1 1.2 1v2.9Z"/><path id="LV-078" d="m417.7 311.4-.8-.4-1.6 2.2v2.3c-.1 0-1.5 1.8-1.5 1.8l4.2 4.1 2.7 5.7-.8 1.6-1.4-1-1.3.5.5 3.4 4.9 4-2 3.7h1.5l.9 1.3 1.3 5.3h5l-.6 2-9.3.3-2.9 2.3.8 2-.6 1.2-1.1-.9h-2c0 .1-.3-1.1-.3-1.1v-2l-1.8-2.2-3.5-1.7 2.3-1.4.7-3.4-1.9-.8-1.8-6.4-4.2-2.4-1.2-2.1-2.9-.6-1.9-1.7.4-2.8 1.9-2.3 5.6-2.1-.4-1-9.1-7.3-2 .9-.2 2h-.9l-1.5-.8v-5.8h3.1v-1.7c.1 0-1.1.3-1.1.3l2-5.1 6.5-.9 1.2 1.2.9-2.9 4.9 2.6.5 1.1-3.5 2.4h1.9l.7 1.9h3l-.1 1.6 6.8.8-.3 2.4Z"/><path id="LV-079" d="m145.5 192.3-.7 1-4.8-2.4.3 3.4-2.2 1.4-1.4-.3-4.1-3.9-1.4-3.3-3.9-3.5-2.9 1.6-1.2-.5-.5-1.6 1.7-1.4v-1.6l-3.5-1 .7-1.7-3-.2-.2-1.1-.7-4.6-1.2-1 1.7-3.7-3.7-4-1-2.6.7-4.1 2-.6 1.8 7.7 3.2 5.4 5.8 5.5 5.6 3.1-.3.7.5-.6 7.2 9.5 5.9 4.4Z"/><path id="LV-080" d="M254.3 235.1h3.8l1.7 5.9 3.4 2.3 4.9-.2 2.7 1.4v4l-1.7 3.5-.8.7-4.1 2.5v.3l-4.3.9h-5.5l-.9-1.2-4.6.7-3.6-.9-.2-2h-.8c0-.1-.7-2.4-.7-2.4h-2.1l-.7 1.1-1.3-3.9 2.6-1.9-.8-1.2.7-1.4 8.9-1.2-.9-5.2 1.8-2.2 1.6 1.3 1.1-.8Z"/><path id="LV-081" d="m34.4 327.2.5 1.2 5 1.8 1.4 2-2.7 5.3-8.6 3.7-3.8 5.7-3 1.2.3 5.8-3 5-2.3-1.3-6.5 2L6.1 342v-6H6l3.8-.6.9.7v2.1c-.1 0-1.9.7-1.9.7l2.6 1.6.7 7.1 2.2.3v-7.7l1.2-.1.3.9 1-.5 3.3-8.5-.3-7.7 1.4-1 2.2 1.3 2.9 3.3 7.7-.5Z"/><path id="LV-082" d="m420.5 259-1.5-1.7-.7-4-4.1-2.3 1-4.6-3.6.2-.4-1.2 1.2-3.1-1.1.2v-2.2l5.3-2.8 3.5-6.7.5-.7h7.9l-.5 3.1.7.8 1 .4 1.2-1.3 1 .2v1l5.1 2.5 3.8 1.2 2.9-.6.9 1.5-1.8 1.9-.9 3.6-3.8 1.4.8 1.8 2.6 1.4 1-1.9.6.5.9 5.1-1.4 2.1-2-.8-1.4 1.6h-1.4l-4.5 6.2H431l-1.3-1.6-4.2-1.1h-4.8Z"/><path id="LV-083" d="M215.2 327.2h-6l-1.1-1.2H205l-.3-3.8 1.2-2.2-3.7-.3.3-1.3h1.1c0-.1-.5-2.1-.5-2.1l1.2-.7-1.3-.7v-1.2l2.5-4.6 3.4-.5 2.1-2.9 3.9.3 2.2-.9 1.3 5.9-1.1 2.2 4.4 4.2 3.2.5 1 2.2-4 .3-2-1.2.9 3.4h-2.5c0 .1-.9 2.9-.9 2.9l-2 .7-.3 1.1Z"/><path id="LV-084" d="m314.1 116.2-1.9 1.1-.6 3.2-2.7-.9-.9 1.2-2.3-4.2-4 7.8 1.8 4.6.6-1.5 1.5.6 3.3 3.7 1.4.3 2.7 5.9v2.4l2.1-1v3.9h-.8l-10.6.7-1.6-2.8-1.3-.5v-6.3l-2.7-1.9v-2.3l-1.9-3.3-3-1.3-1.4-2.5 1.3-2.4-3.2-5.5 1.7-5.8-1.4-2.6.5-1.5 5.7.2-.2-.9 1-.4.8.8-.5 1.9.8 2.1.7-.4-.2 3.8 1.5.3-1.1.3 2.1 3 1.8.4 1.1-.5.3-4.9-2.8-4 2.1-2.4 4.9 6.7 3.1.2 2.9 2 .9 1.3-1.2.4v1.2Z"/><path id="LV-085" d="m321.2 296.6 5.9-1.2 6.2-3.6h2.1v2.8l-1.6 2.8 1.5 4.1 5.2 1.3-.7 4.8v.8h.1l-1.2 4.4 2.9 3.5v1.1c-.1 0-1.9.5-1.9.5v2.7c.1 0-1.6.8-1.6.8l-.6 1.9h-4c0 .1-.6-1.8-.6-1.8h-3.2l-1.4-3.2h-2.2v-2H325l-.5-2.4.7-3.1-1.1-1v-1.7l-3.4-3.7 1.2-3.2 2.5-1 .4-3.3-3.7.8-.2-1.1Z"/><path id="LV-086" d="m260.3 146.6-3.6 1.9.6 2.2-.8 1 1 1.4h-3.1l-1.4 1.3-.6 2.9 2.2 1-3.8.6-1.8-1.1-5.3 1.2.7 12.8h3.9l.9.5.2 2.6h2.4c0 .1.2 7.2.2 7.2l2.4 2.2-1.3 2.2h-2.5l-2.3 4.5-6.8 1.5-1.3-14.3-1.2-3.8v-5c.1 0 1.7-4.7 1.7-4.7l-3-10.6.6-11.2-1-6.7 1-4.8 4.2 1.3 3.2-1.8v-3.4l-1-.6 1.1-1.9 3.3-.8.8-2 3.7-1.4 1.6 7.1 1.5 1.8-2.2 2.6 2.4 2.9 3.1 11.4Z"/><path id="LV-087" d="M244.2 252.9h.8c0 .1.2 2.1.2 2.1l3.6.9.4 3.9-5.2-3 1.6 3-.9 3.2-2.7.7-5.9-1.2-4.1 1.4-1.6-.4-2.9-3.2.5-1.7 6 2.8 1.5-.5-2.7-1.9-1.1-5.5 4.4-.6 1 .5.6 2.4 1.1-.3.9-1.9 4.4-.7Z"/><path id="LV-088" d="m110.3 261.4-1.1.2-2 10.7 1.5 3.9 1.8-.6v2.6l1.1 1-.5 7.4 1.8 2.3h2.2l.1 5.4 1.4.6.6-1.7 1.9-1.1.6-2.6 3.1.8 4.4 7.5.4 3-1.5 2.7.2 2.9-1.8 1.1 3.7 4.4-2.6.6.2 2.9 4.8.5 6.4 3.5 1.2-1 1.6.3.9 1.3-2.4 1.8-4.1 1.1-7.7-.7-3.3 2.5-6.8-4.8h-3c0 .1-7.7-2.5-7.7-2.5l-5.3 2-2.5-1.8-4.8.8-2.5-2.7-2.9.5-2.7-1.5-5.4 1.9-2.1-.9-2.3 3.4-1.3-.7-1-2.6 4-.8.3-2.7-3.9-2.9-.4-2.2 1.3-2 3.5-.5 1.7 1.7 1.5-3.2-3.5-2.1v-2.2l8.1-1.6-1-3.2.4-1.7-1.2-1.5 1.1-.8-.2-2.1-2-5.6 2.4.7 2.7-2 1.2-4 1-.3-1.5-2.8-.5-5 2.9.4 1.2-3.5 1.6-1.2 3.6-.3.8-2 1.5.2 1-1.7-1.5-1.3v-1.7c-.1 0-4.4-.4-4.4-.4l.4-1.9h1.2l-.6-2.1 1.2-1.8 3.2 1.1.6 3.1 2.9 2 2.1-.7 1.5-3.9 2-1.2 3.9.7v1.9l-1.8.6.3 1 .4-.6-.3 3.2-1.5 2.4Z"/><path id="LV-089" d="m242 198.8 1.6 2.4.2 4.5h1.2l2.5 2.5v4.1l-3.1 1.4-3.8 5.6h-.5l-1.6-.1-.7-.6 3.6-5.2 1.1-3.4-.4-11.1Z"/><path id="LV-090" d="m245 205.8 6.5-3 2.1.3.3 3.6 3.5 3.2.7 3.7 2.1.2 1 1.4-1.1 1.8h-2.8v3.4h3c0-.1.8.7.8.7l.3 3.9-.9 1.6-6.5-1.5-1.3 2.6-3.4 1.3-2.7-8.6-5.4-1h-.6l3.8-5.6 3.1-1.4v-4.1l-2.4-2.5Z"/><path id="LV-091" d="m276.5 214.7 3 1.5 2.1 3.5.6 4.8-1.2.5 1.2 1.7 7.2.5v1.1l3.6 4.2-2.5 1.7v1.3c-.1 0 2.4 4.1 2.4 4.1l-.6 2.8-5-3-1.1.4-.7-2.8-3.3-1.2.6-1.2-.8-1.8-2.9.6-2.8-.9-2-2.9v2.3c-.1 0 1.7 2.3 1.7 2.3l-.2 3.1-1 1.1 1.2 3.2-3.1 1.8-.6 2h-1.5v-.9l-2.7-1.4-4.9.2-3.4-2.3-1.7-5.8 1-.7 2.8 1.3 1.8-.7v-1l3.5-1v-1.9l-1.6-1.7h2l.9-3.4h1.1l-.1-2.5 1.3-3 4.2-1 1.4-4.7Z"/><path id="LV-092" d="m292.3 290.4-2.9-.6-2.6 2.4h-.7v-3.1l-1.9-.9.7-6.3 3.1-1.4-2.1-3.4.5-.9 3.8-.3 4.2 3.8 2.1.5v.5l-2 1.1.5 1.5 1.6.7-.2 2.8-3.5 1.5-.4 2Z"/><path id="LV-093" d="M62.4 297v-2.2c.1 0-1.5-3.1-1.5-3.1l2.4-.8 1.9-2-.6-6.3.7-1.9 2.2-.5 1.2-1.5 2-.6 2.3 1 1.1-.9-1.9-8.2 1.2-2.8 2.3-2 1-.4 1.9 1.2.8-1.1 3.2.3 1.3 2.6 2-.5 1.9 1.7.5 5 1.5 2.8-1 .3-1.2 4-2.7 2-2.4-.7 2 5.6.2 2.1-1.1.8 1.2 1.5-.4 1.7 1 3.2-8.2 1.6v2.2l3.6 2.1-1.5 3.2-1.7-1.7-3.5.5v-1.5l-3.7 1.2-.6-2.4-4.1.5-2.9-1.6.8-1.1-1.8-.8.6-2.4Z"/><path id="LV-094" d="m347.4 175.6 4.4-2.9 7.7-.5 3.1 2.1 2.8-1 .7.9h2.1c0-.1.4.6.4.6l-1.6 1.1-.2 1.3.8.7 2.1.2.9-1.3 2.2-.3.7 2.4.7 5.7-.4 1h-1.6c0-.1-.5 1.8-.5 1.8l3 1.8-1.1.8v2.4l-1.4.9.2 1.6 1.2.6-2.4 1.2v4.4l.7 2.4-.8 1h-1.5c0-.1.8 3 .8 3H363l-2.4 1.2-2.6-1.5-2.4 2.1-.2-1.8h-1.2l-1.3-1.3-4.4 1-3.8-.7-4.1 2 .2-1-2.2-.5-3 .5-.6 1.2-1.8-.3-.6-.7 1.6-4.4-.9-1.2 2.5-.8-3.6-2.8v-2.4l-1.4-2.8 1.4-1.1-3.2-5.3-.5-2.6 2.6-3.1 1.7.6 1.1-1.7 3.1.4 6.4.6.7-.8 1.2.8-.8 2.3 1.4.3 1.5-1.2.6-2.1-.7-4.9Z"/><path id="LV-095" d="m239.3 247.8 1.3 3.9.7-1.2h2.1l.7 2.4-4.4.7-.9 1.9-1.1.3-.6-2.4-1-.5-4.4.6 1.1 5.5-2.6-3.2v-4.6l5.7-4.1 1.1-.4 2.2 1.1Z"/><path id="LV-096" d="m337 180.6 2.8-2.1-.3-2.4-2.1 2.1-2-1-1.4-2.9 3.5-1.3-1.2-1.6-3.4-.3.8-2.6-2.8-3.3-7.5.7v-.2l-4.8-1.8-.7-2.5 1.5-.6.2-1.1 5.9-.5-.5-3.4 2.1-1.3-.5-1.7h3.7l1-2.3 2.7.5 6.7-2.5-.8 5.1 2.4 2.1 8.5 2.3-2.3 6.6-3 2.2-3.5-.3 1.2 1.7 3.3.6-.2 2.3-2.6 2.9 1 2.6 2.8-1 .7 4.9-.6 2.1-1.5 1.2-1.4-.3.8-2.3-1.2-.8-.7.8-6.4-.6Z"/><path id="LV-097" d="m151.2 213.3.3 1.1-.9-.5-1.3 1.2-1.1 2.5-3.7 1-1.2 2.1h-1.9l-1 5.9-4.4-1.4-3.4 1-.9-.7-2.5 3.6-9.1 1.9-.2 3.5 1.2 4.5-.8 2.3-3.3-1.4-2.1.3-.2 1 1 .3-1.4 1.1-3.4-1.5-.6-.7-1.4 1.4-2.3-.9-4 .8-.6-2.9h-1.2l-.2-.9v-1.5l1-.4-.9-7-5.9-2.1-2-2.2.7-3.5-1.7-.2-1.2-1.6-2-1.3h1.3l.6-3.8 1.4 1 .5-3.4 1.2.3 1-2.8 2.9-.2-.9-6.4-1.5-1.9.9-1.9-.8-4.1.8-.4-2.2-.2-.7-2.6-.8-1.3.5-1 1.8-.9.7 1 1-1.8 2.9 1.5.6 3 4.3-2.4 3.3.9 1.8-6.1 2-1.3 1-4.2.8-.4 1.8 1.6 3.5-1.5v-.4l3 .2-.7 1.7 3.5 1v1.6l-1.6 1.4.5 1.6 1.2.5 2.9-1.6 3.9 3.5 1.4 3.3 4.1 3.9 1.4.3 2.2-1.4-.3-3.4 4.8 2.4-.9 1.6 1.2 1.6-2.9 1.2-1.6-.6-2.4 1.9 1.4 3.7 2.3.7.8 2.4 5-1.1 1.4 3.5-1.4 2.6 3.4 2.6Z"/><path id="LV-098" d="m173.7 306.9 2.1 1.4-1.8 2.9 1.8.4-.8 1.1.5 2.2 2.3 2.9-2.4 2.6-3.3.9-5.3-.7-2.2 1.5-6.8.2-1.7-3.4-2.5-2 2.5-3.4-.3-.6 1.5-1.8 4-1.1 4.1 1.5.9-.5.8-1.7-1.9-.6-.4-3.7 4.7-3.5.6-2.1 2.3 2.1 1.3 5.5Z"/><path id="LV-099" d="m177.9 251 1.1.9.9 2.8v2.1l-2.3 1 1.5 8.7-2.6 2.1-4.5.7-.6-1.8-.7.3-2.4 3.2-1.7.6 2.5 2.9-4.7 5.1-5.5-1.7-1.2 1.7.9 1.3-.7.8-4.5-1.4v-.5l-.4-1.7-1.4-.4-1-1.9-2.4-8.7-5.6 1.8-2.9-1-.6-1.9-1.7-.9 3.8-3.1-.6-.5-2.3-3.8 1-.8-.4-3.9h-3.4l-2.5-2.9-.9-3.4.6-3.8 2.8-.7.6-1.9v-1c-.1 0-2.4-1.3-2.4-1.3l.7-2.8-.7-1.5 3.4-1.4 3.9-3.8-.6-1.8 1-5.9h1.9l1.2-2.1 3.7-1 1.1-2.5 1.3-1.2.9.5-.3-1.1.2-1.4 2-.5.4 4.8 1 1-1.5 1.1-.5 3.5-2.9 2 4.3 3.3 1.4-.6 3.1 2.2 2.7 6.6-1.4 1.1v2l-3.3 1.4 1 1.7-2.2 3 1.4 1.3h1.7l.2 1.5-2.9 1.2-1.8 3.2 2 .4 3.4-1.1 2.7 1.6 2.7-.5 5.9 1.1 7.1-2.4Z"/><path id="LV-100" d="m59.3 326.7-1.6-4.1 2.7-3.4H58l-1.7-2.6-2.9-1.7 2.7-1.6-1.3-3.6 4-1.9-.3-1.7-1.7-1v-6.4l5.6-1.9-.6 2.4 1.8.8-.8 1.1 2.9 1.6 4.1-.5.6 2.4 3.6-1.2v1.5l-1.3 2 .4 2.2L77 312l-.3 2.7-4 .8 1 2.6 1.3.7-.8 2.5-1.1-.5-5.9 2.6-2.3-1.4-5.8 4.6Z"/><path id="LV-101" d="m337.6 127.5 2 5.3 2.9.8 1.1-1.1.8 2.3 3.1-.6 2.1.9 2.7-1.9 1.5 1.7h2.3c0-.1-2.4 10.4-2.4 10.4l4 .2 3.9 2 .6 2.3 3.4 1.5.5.8-1.3 3.3 2.2 1 .2 1.8 1.7.9.4 5.1 1.6 1.7 6.5 3.2-2.1 3.8v2.2l1.1.6-.2 1.8 1.7.5-4.3 1-.7-2.4-2.2.3-.9 1.3-2.1-.2-.8-.7.2-1.3 1.6-1.1-.4-.8h-2.1c0 .1-.7-.7-.7-.7l-2.8 1-3.1-2.1-7.7.5-4.4 2.9-2.8 1-1-2.6 2.6-2.9.2-2.3-3.3-.6-1.2-1.7 3.5.3 3-2.2 2.3-6.6-8.5-2.3-2.4-2.1.8-5.1-6.7 2.5-2.7-.5-7.5-5.6-3.9-1.3 1.6-3.7-5.3-5.2.5-2 1.4.8 1.6-2 2.8-.3 4.2 3.3h2.6c0-.1.5-2.8.5-2.8l1.3-1v-3.1l3-2.5 3.6 2.3Z"/><path id="LV-102" d="M378.3 287.9v-3.5c.1 0 9.2.8 9.2.8l4.4-2.4 1.4 1.3 1-2.7 1.7-1.3h4.6v2.1l4.5 1.5.4.3.9 3.8-1.2 2.4 1.9 2.9-1 1.2-3.6.3-.5 1.8 1.7 2.1-.9 2.9-1.2-1.2-6.5.9-1-2-1.9 1.4 1-6.5h-7.5z"/><path id="LV-103" d="m375.4 345.5-2.7-5.5 1.3-.2-1.7-6.1.5-2.1 2.7 2.1h2l.2-4.5 1.5-.8 3.1 5.8 4.5-.5 5.3 1.8.7-1.7 1.7-.8 3.9.6.2 4h1.7l.7 1.9v1.7h-1.9v6l-5.4.7.7 1.9 2.9 2.3-1.2 1-3.5-1.6-1.1-3.2-1.2.9-.2 3.6-2.4.2-1-5.4-2.8-3-2.5 2-2.5-2.9-3.4 1.8Z"/><path id="LV-104" d="M316.1 244.2v-1.4c-.1 0 1.2-1.5 1.2-1.5l-1.2-2.4 1.5-.2 1.7 1.6 6.1-5.4v-3.4l-2.3-3.7-3.8-.7 2.5-3.3v-3.3c.1 0 1.2-.9 1.2-.9l-.7-4.3-.9-.6.2-1.8 3-1.5.2-2.4 6.5-.9 1.1 2.1 1.5-1.5 1.1.2-.7 7.1 1.3 1.1h.5l-.7 3.7 1.4 1.7-.8 2.2.6 1 4.3 1.1 3.1 4.3h2.4l-2.5 10.7 3 1.2v3.7l-2.5 1.5-3 .4-.2-1.4-2.4-2.5-1.8 1.6-1.1-.3-1.4-2.4h-2l-.8 1.7-4.7 3.3-.9-1.7 1-.8v-2.7l-4.6 3.1-5.1-3.3-.7.9-.7.2Z"/><path id="LV-105" d="m250.7 278.8.3 1 6.9-.4.4 4.7-3.6.2v2.5c-.1 0 2.2 6.4 2.2 6.4h3.5l-.4 1.8 1.3-.5 1 .9v1.8l-2.3.2.9 2.7 1.8-.5 2.2.8 7.3-3.8 1.8.5 2.2-1 1.1.7 3.7-.8.6 2.4 3 2 .3 4.8-6.3 1.3-2.9 4.2-.2 1.9-2 1.8.2 2.5-2.4.6-1.5-1.4-1.9 2.7-4.9-.2.2 1.6-1.2 1.5h-4.2c0-.1-.2 3.3-.2 3.3l-3.5 3.3-3-1.1-1.2 1.2-3.1-2.5 3.3-3.5-3.9-1.6-.2-1.1 5.4-3.2.9-3.3-1.8-.6-.4-1.1 1.6-2.1-1.8-.8-1.6-2.3-2.4 1.2-1.7-4.4-2.1-.2-.2-1.9v-2.9l-4-.3-.7-1-.3-6.4h4l.3-1-1.2-3.7.9-.4-1.2-.3.9-.9 4.1-1 4.1-4.2h2.3Z"/><path id="LV-106" d="m43.3 194.8 4 4.1.7-2.7 1 1.6 1.3-.8-.6-3.4 3.9-1.7-1.2-7.3-1.8-1.7 2.4-4.3 1.7-6.4 2-2.2 8.4-3 13.1-1.5 11.6-6 1.8 2.6-1.4 1.8 1.8-1.2 2.1 3.2h-.8l-.2 2.6 1.8 3.9.8 6.3h-2.1c0 .1-4.2 4.1-4.2 4.1l-1.9-.5.5 1.9 1.2.4-.9 1.4-6.7 3.3 4.1 2.8 3.3.7 4.2-1.3.7 2.6 2.2.2-.8.4.8 4.1-.9 1.9 1.5 1.9.9 6.4-2.9.2-1 2.8-1.2-.3-.5 3.4-1.4-1-.6 3.9h-1.3l2 1.1-1.1 8.3-.9 1-4.1.6v1.2h-3.7l-3.7-1.9-.9 1.5-2.7.2-1 1.1-2.2-.7-1.4 1.3-.9-1.2-2.3-.6-1.7 3.1-1.4-1-.5.9-.8-.4-.2-1.1 1-.5-.5-1.5-2.6.2-3.2-2.3-.8 1.9-3.2-1.3-3.5 4.3-1.6-.5-1.8 1.8-2.8-.4v2.1l-1.5.7.6 3.6h-1.8l.7 7.1-1.5 1.3.3 1.8h-3.9l-.4-2-2-.9-1 .8-1.7-1.2 3-3.5 2.9-8.2-.5-14 .7-14 7.2-12.2Z"/><path id="LV-107" d="m326.4 351.4-4-.6-.8-2.6-1.3-.6-1.7.7-.8 2-4.6-1.3-1 1.1-1.1-.3v-1.2l-3 .5v-1c.1 0 3.5-.1 3.5-.1l.4-1.4-1.4-1.3-.8-3.6.9-3.3-1.5-2.3h-1.5l-1.5-2.9-2.1-1 1.1-2.9 3.6-1.4-1.1-1.7-1.2.9-3.3-.2.9-1.2-.4-8.4.4-1.4 5.7 1.6 5.5-.4 3.4-4.8 2.5.8 3-3.2 1.1 1-.7 3.1.5 2.4h1.1v2h2.2l1.4 3.1h3.2l.6 1.9-.6 7.2h-2.9L329 332l1.1 4.5v3.7l-3.3 7.1-.6 4Z"/><path id="LV-108" d="m470.5 241.9-2.7 1.3-2.4-.6-.7-2-2.4-.8-2.5.9-.7-3.2 1-1.8-.4-1.6-1.9 1.2-8-8.7 1.7-9.2 3.2-4.3 4.1-1.9v-1.3h.3l.9-.2v-1.5l1.6-.3.2-3.3 3.3-.5 3.8-2.8v-4.9l6 3.3.4 2.9 3.1-.2 2.6 3.9-.7 3.8.8 1.7-2.7 6 .3 4.4-1.1 2.9-5.8 3.4 1.3 1.4-.2 1.2-.7-.8-1.8.2.3 1.2 3.5 1-1.6 1.8.3 2.1-2.2 5.5Z"/><path id="LV-109" d="m417.7 311.4.3-2.4-6.8-.8v-1.7h-2.9l-.7-1.9h-1.9l3.5-2.4-.5-1.1-4.9-2.6-1.7-2.1.5-1.8 3.6-.3 1-1.2-1.9-2.9 1.2-2.4-.9-3.8 3.9-.2 1.1 1.8 2.9-.3 2.9 7 2.1 1.7 3.3.4 1.5 1.9-.5 1.5.9 1.5-1.1 2 3.7 8.9-1.7 2.2-2.7-.7-2.7 1.3-1.4-1.7Z"/><path id="LV-110" d="m496.3 342.9 2.8-5.7-5-5.6-3.1-1.8-2.3 2.3-2.8.5.5 2.7-4.4.5-1.4-5.4 7.1-6.1 3.7-.7.5-1-1.8-4.7.5-.8h3.1l2.4 2.7 2.9-1.6 3.4.6-1 2.6 1.8 2 3.5 10.7-3.8 5.6 1.3 1.7-2 1.2v3.1l-4.2 2.4-1.6 3.4h-2l-1.1-1.4 3.8-5.5-1-1.3v-.2Z"/></g></svg>