<svg xmlns="http://www.w3.org/2000/svg" xmlns:amcharts="http://amcharts.com/ammap" id="Layer_1" viewBox="0 0 512 512"><g id="_x3C_defs"><amcharts:ammap bottomLatitude="47.047" leftLongitude="9.472" projection="mercator" rightLongitude="9.638" topLatitude="47.272"/></g><g><path id="LI-01" d="m203 415.5.7.7 1.9 3.3 2.8 3.2.9 2.8 1 2.3.7 1.4.7.7 2 1.4 3.1 1.1 1.6.4h1.6l.7.4h1.7l.6.5.2 1.1-.2 4.2-.4 1.9-1 2.6v3.7l1.2 2.7 1.2 3.9.5.9 3.4 3.4 10.3 13.3-1-.5h-1.1c0-.1-2.2.3-2.2.3l-1.9 1.3-3.2 1.3-1.5 1.1-4.1 2.2-10.7 1.6-2.3.5-7.1 2.9-2.8 2.5-2.3 2.6-2.1 1.3-6.4 1.6-9 .5-2.5.4-2 .9-1.6 2.2-1 .6-1.2.2-1.9-.5-1.1-.5-1.9-1.4-1.9-.7-1.5-.2-1.5.3-.7.4-1 1.1-1.8 3.3-1.6 3.6-1.5 2.6-.9 1-1.3.6h-1.4l-1.3-.4-2.1-2.2-.7-1.1-1.1-4-.6-1.2-.9-1-1.4-.6h-1.5l-2.2.5-2.2.9-1.9-1-1.6-1.8-2.7-6.7-1.8-9.7-.2-3.3.4-3.2 1.6-5.1 3.3-2.5 3.2-1.7 1.5-1.1 3.3-1 2.5-1.4 2.8-.8 2.5-1.5 2.8-.8 2.5-1.5 2.8-.8 2.5-1.5 3.2-1.2 4.2-3.6 6.4-3.7 4.2-3.6 3.6-1.5 4.6-3.9 6-3.5 2.8-2.4 2.4-2.7 1.3-3 1.6-2.4.9-3.1Zm76.2-4.9 5.9 1.9 1.4-.4 2.3-1.3h1.4l1.6.7-.5 1.4-1.2 2v1.6l2.9 3.8.4 2.1v2.8l.3 1.1v2.9l.7 2.2 2.4 2.9 1.5 1.2 2.7 2.7.5 2-1.8 1.6-2.5.9-2.2 1.5-4.3 2.4-3.2.8h-2.8l-5-1.1-.5-.4-3.4-3.5-2-2.4-2.3-3.9-.5-1.5.7-3.1v-3.4l-.6-7.1 1.8-3.8 1.7-2 4.7-4.7Zm85.3-126.1-.7 18.2 7 14.7 7.6 9.7-13.3 19.7-1.8 3.1.2-2h-.7c0-.1-2.6-2.1-2.6-2.1l-10-4.5-3.4-.8-.7-.4-.7-2.8v-1.9l-.7-1.8v-3.3l-1-2v-1.5c-.1 0-1.1-1.4-1.1-1.4v-1.1l-1.1-3.7-1.2-2.2-.4-2.3v-6.3l-.7-2-3.1-3.9-2.2-1.5-3-3.3-3.5-3.1-2-1.6-1.9-2.3h-4.2c0-.1-1.7-.5-1.7-.5l-4-1.8-2.6-1.9-4.2-2.5-2.6-.8h-3.4l-.8-.5-.7-.7-.2-1 .2-1 1-2-.3-1.6.3-.8v-2.3l.4-1.1-.6-1.7.3-1v-1.8l1.3-1.8.7-1.6v-2.6c.1 0 1.5-3.2 1.5-3.2l.9-1.1.6-1.2 1.2-.9 2.5-2.5.7-2v-1.8c.1 0 .5-.7.5-.7l1.2-1.2.7-1.1.4-1.5 3 2.4 10.4 9.5 6.6 14.5 13.5 8.2 18.7 4.2Z"/><path id="LI-02" d="m254.3 179.5-1.5-2.1.3-1.3v-2.8l.8-1.3 1.4-.7.3.2 2.8 4.2 2 1.4 2.3 1.1 4.5 1.4 1.4.2-.5 6-1.2 2.5-3.9-1.1-2.3.8-2.3-4.6-4.1-3.7Zm-84.5-36.7 1.6 1.5 4.6 2.8h.6c0-.1 2-2.1 2-2.1l.6-.2 1 .8.7 1.4-5.4 6.1-3.8 5.5-2.9 4.9-2.3 2.6v2.2l.2.8v1.2c.1 0 3.7 2.6 3.7 2.6h.5l1.8-1.3h3.1l.5-.2.4-.8.4-5.1.3-.9v-2.2l.4-.9v-2l.3-.5h.5l8.7 5.3.4 1.2v1.8l.7 3.3v1.7l.3.8v1.3h-3.5l-1.4-.4H182l-.8.4-14.2 13.2-1 .7-.6-.3-3.8-8.2-2.8-2.1-2.7-1.6.3-4.9 1.8-2.1 1.3-3.4 1.4-1.9 1.2-3.1 1.4-1.9 1.2-3.1 1.3-1.9.4-1.1.8-4.4 1.6-2.5 1.1-3Zm76.6-42.6-4.7 3.2-3.2 2.4-1.4 1.4-1.1 1.7-1.9-.3-.6-.3h-1.4l-1.2.4-1.1 1.1-3.8 5.9.5 1 2.7 2.7.2.7-5.6 3.7-1.4 2-1.1 3.3v1.5l-.4 1v.9l1.1 1.7 9.2 8 12.2 9 .5-.2 3.3-3.8h1.5l.9.2.4-.3.9-3.6.4-.7.5-.3 11.2-2.8h3.1l1.8 2.2 2 4 2.1 7-.6.5-4.3 1.5-4.1 2-.2.6.5.9 2.8 2.8 1.5 1.1 2.1.8 2.7.5 5.6 3.7 4.1 1.1h.8l1.8-.7 2.4.4 3 2.3 3.7 3.7.6.4.7-.4-1.7 2.2-8.1 12.7-6.3-3.8-5 1.6h-.8l-.4-.5-1.3-3.1-.9-3.8-.6-6.9-1-2.5-2.4-4-.4-.3-7.8-1.9-.3-1.6-2.4-2.4-4.9-3.1-1 .6-1.7 1.5-.7 1 1.7 3.6 3.2.9.4.3v3l-1 .5-2.6.5-2.6 1-6.3 4.3h-1.1l-1-.3H237l-.5.9v2.2l-.5 1.8-2.4.8h-1.5l-4.4-1h-1.9c0-.1-.5-.6-.5-.6l-.8-3.2-.4-.6-27.7-11-8.8-25.9-.4-2.8.2-.4h.6l3.1.7h3.1l.4-1.3v-1.9l.5-.2h1.6l.3-.3v-5.5l-.3-1.1v-2.1l.3-1.3v-1.9c.1 0 2.4-1.3 2.4-1.3l2.3-.5 1.4-1 2.1-2.1 1.7-2.5 1.6-1.4h5.1c0-.1 2.7-2.4 2.7-2.4h2.3l1 .5.5 1.4 1 1.8 1.3.7h.9l1.1-.7.5-1.2.7-.9.8-.5h1.4c0-.1 1.9-2.3 1.9-2.3h3.8c0-.1 1.8-2.4 1.8-2.4l.2-.6 1.7-2.1 2.6-2.2 1.9-2.3 2.2-1.3h.3l.4.4 1.3 2.2.5 1.6.4.5Z"/><path id="LI-03" d="m235.6 178.7.5-1.8v-2.2l.5-.9h1.1l1 .3h1.1l6.3-4.4 2.6-1 2.6-.5 1.1-.5v-3l-.4-.3-3.2-.9-1.7-3.6.7-1 1.7-1.5 1-.6 4.9 3.1 2.4 2.4.3 1.6 7.8 1.9.4.3 2.4 4 1 2.5.6 6.9h-1.8l-1.4-.2-4.5-1.4-2.3-1.1-2-1.4-2.8-4.2-.3-.2-1.4.7-.7 1.3v2.8l-.3 1.3 1.5 2.1-2.4 1.6-.6-1-1.4-1.1-4.1-2.5h-4.3l-4 1.6-2 .5Zm-41.5-93 .3.2v.3l2.4 1.5 1.6.7 2.4-1.4 2.2-1.9 2-1.4h.5l2.4 2.4 1.1 1.4.2.6-.2 1.3v.7c.1 0 1.2.7 1.2.7l2.4.8 1.1 1.1.7 2.6v2.8l.4.6 1.5 1.4h4.4l-.5 1v2l.4.5 1.4.7h1.3l3.7-1h.9l1.9.7h2.1l1-.3h2l-1.8 2.3h-3.8c0 .1-1.9 2.3-1.9 2.3H226c0 .1-.8.6-.8.6l-.7.9-.5 1.2-1.1.7h-.9l-1.3-.7-1-1.8-.5-1.4-1-.5h-2.3l-2.7 2.3h-5.1c0 .1-1.6 1.5-1.6 1.5l-1.7 2.5-2.1 2.1-1.4 1-2.3.5-2.2 1.3v1.9c-.1 0-.5 1.3-.5 1.3v2.1l.3 1.1v5.5l-.4.3h-1.6l-.4.2v1.9l-.5 1.2h-3.1l-3.1-.6h-.6l-.2.5.4 2.8 8.8 25.9 27.7 11 .4.6.8 3.2-2.4-.2-.7-.3h-1.6l-.7-.4h-1.7l-.8-.4H215l-1.1-.4h-1.3l-.8-.3h-1.6l-.8-.4h-1.8l-1.3-.4h-5.4l-2.1-.4H193l-1.7-.4h-2.7v-1.3l-.3-.8V170l-.7-3.3v-1.8l-.4-1.2-8.7-5.4h-.5l-.3.5v2l-.3.9v2.2l-.3.9-.4 5.1-.4.8-.5.2h-3.1l-1.8 1.2h-.5l-3.6-2.5v-1.2c-.1 0-.4-.8-.4-.8v-2.2l2.4-2.6 2.9-4.9 3.8-5.5 5.4-6.1-.7-1.4-1-.8-.6.2-2 2h-.6c0 .1-4.6-2.7-4.6-2.7l-1.6-1.5 1.1-1.6.6-1.8.6-4.2 1.6-4.4.8-5.7 1.6-4.4.7-5 .6-2 2.5-5.1 2.1-3.5 1.7-2.3 1.3-3 3.9-4.4 1-2.6 1.6-2.4 1.3-3.1 1.4-1.5Z"/><path id="LI-04" d="M246.4 100.2h1.4l.7-.5 2.2-3.6 2.8-2.4 6.7-3.4h2.2l.4-.6-.2-.7.2-.4 1.4-.2 1.2 1 2.4 1-3.4 3.9-7.3 12.3 6.9 6.9 11.8 5.8 11.3 7.9 7.6 11 10.3 16.7-3.1 10.1-7 9.1-.7.4-.6-.4-3.7-3.7-3-2.3-2.4-.4-1.8.6h-.8l-4.1-1.1-5.6-3.7-2.7-.5-2.1-.7-1.5-1.1-2.8-2.8-.5-.9.2-.6 4.1-2 4.3-1.5.6-.5-2.1-7-2-4-1.8-2.1h-3.1l-11.2 2.7-.5.3-.4.7-.9 3.6-.4.3-.9-.3H247l-3.3 3.8-.6.2-12.2-9-9.2-8-1-1.7v-.9l.3-1V129l1.2-3.4 1.4-2 5.6-3.7-.2-.7-2.7-2.7-.5-1 3.8-5.9 1.1-1.1 1.2-.4h1.4l.6.3 1.9.3 1.1-1.7 1.4-1.4 3.2-2.4 4.7-3.2Z"/><path id="LI-05" d="M226.5 198.3h-.4l-1.6-1.4-1-1.5v-1l.7-1.5h.7l3.5 2 .3 2.5-.3.3-2 .6Zm43.8-18.7.9 3.8 1.3 3.1.4.4h.8l5-1.6 6.3 3.8.6 13.4 3.4 17.3 3.8 9.7 9.9 8.7 9.3 7.4-.4 1.5-.7 1.1-1.2 1.2-.4.8v1.8c-.1 0-.8 2-.8 2l-2.5 2.5-1.2.9-.6 1.2-.9 1.1h-.9l-4.7-1.4-4.5-2.5-5.1-4.1-9.4-8.1-4.1-3.1-8.2-4.1 3.7-5.1 2.7-2.2 1-2.2 1.8-2.8-12.3-7.7-4-3-6.5-.4-.6.5-1.2 2.3-.8.3-9.1-2.2-.7-.3-.2-.4v-3.9l-.3-1.3v-3.6l-1.5-2.8-2.1-2.7-3.1-2.2 2.2-4.6 1.6-4 1.4-2.4h.6l2.7 1 2.3-1.5 2.2-1.9 5.3-.8 1.5-.8 1.1 1.1 3.2 1.9 1 1.2.8 2.1 1.2-.5 2.3-.8 3.9 1.1 1.2-2.5.5-6h1.8Zm-21.7 27.9.5.2.2 1.9.5.3h1.2l.8-.3h2.4l.8-.5.4-.9v-.6c-.1 0-2.3-2.7-2.3-2.7l-3.6-.2-1.6-2h-2.4l-.3.4v2.8l.6.7 1.3.8h1.5Zm-34.7-31.2 1.1.3h1.9l.8.3h1.7l.8.4h1.6l.7.4 2.4.2.5.5 6.5 6.9v1l-1.5 2.5-.7.8-.8-.4-7.8-7.4-5.9-2.7-1.2-1.9v-.8Z"/><path id="LI-06" d="m218.8 11.3 1.3-2.1 3.5-4.3 4.6 5.6 7.2 7.4 9 11.8L257.1 41l3.2 4.1-1-.6-3.7 4.4-3.4 3.4-6.9 6.5-5.7 4.6-3.9 4.1-1 1.5v.4c.1 0 4.9 4.8 4.9 4.8l3.2 2.2.8.3 5.7-3.8 8-7.7 3.5-2.8.9-.3v.9l-1.1 2.4-3.5 6.6-4.4 4.5-3.9 2.9-3 3.6-4.2 2.2-5 3.2-3.9 2.2-2.7 2.6h-1.8l-1.6-.3-1.6.2-4.2 7.3h-4.4l-1.5-1.5-.4-.6v-2.8l-.8-2.6-1.1-1.1-2.4-.8-1-.7v-.7c-.1 0 0-1.3 0-1.3l-.2-.6-1.1-1.4-2.4-2.4h-.5l-2 1.4-2.2 1.9-2.4 1.4-1.6-.7-2.4-1.5v-.3l-.2-.2 2.4-2.9 1-2.6 1.6-2.4 1-2.6 1.7-2.3 2-3.6 1.4-4.2 1.5-2.6 1-5 1.5-2.6 1.1-3.6 1.4-2.9 1.1-3.6 1.6-2.5 1.1-3.6 1.6-3.6 1-3.9 1.5-3.7.2-1.4v-7.5l-.1-3-.8-4.4Z"/><path id="LI-07" d="M308.5 406.8h3.8c0 .1 1 .5 1 .5l3.9 2.6 7.2 2.5 4.1.8 2.1.7h1.1l1.3-.5.8 2 .4 1.7v1.8l1.1 2.5 2.1 2.7 1.8 1.7 1.4 2.1.5 1.5 1.1 2.2.8 1.1.8 2.1.7.5-1.9 12.7-6 25.7 1.3 1.5h-1l-1.4.6-3.3-2.2-2-3-2.2-1.5-2.4-2.1-2.1-2.8-2.6-5.5-4.1-3.2.2-.5 3.8-3.7.3-.6-4.6-8.9-3.5-11.5-3.6-9.6-.6-2.8 1.9-5.4-1.9-4.5-.2-1.2Zm-9.3-123.5.7.7.8.4h3.4l2.6.8 4.2 2.5 2.6 1.9 4 1.8 1.7.4h4.2c0 .1 1.9 2.4 1.9 2.4l2 1.6-.7 1.4-4.8 6.9-2.9 3-.6.4-4.4 1.4-4.5.4-.8.4v.7l2.9 4.5.8 2.5 3.5 3.2h5.2l1.5.4h2.4l2.3-.6h1.8l1.9.5 2.4 3.6h1.5l3.9 1.1h2.6l1.3-.5 1 1.4v1.5c.1 0 1 2 1 2v3.3l.7 1.8v1.9l.8 2.9.7.4 3.4.8 10 4.5 2.6 1.9h.7c0 .1-.2 2.2-.2 2.2l-5 8.8 2.5 2.4-1.5 1.9-1.1 2.1-2.8-.6-10.6-3.4-1.4.3H339l-1.3.3-1.3-.3h-3.2l-2.9-.7h-2.6l-1.2.5-1.8 1.7-2.1 1.4-1.3.4h-1.7l-1.5 1.1h-.6c0-.1-2-1.3-2-1.3l-2.7-.8-1.8-1h-3.8l-2.1-.7h-1.7l.3-1.8v-2.8l.4-1.2v-3.9l.4-1v-2.3l2.4-5.8 1.8-5.7v-2.1l.4-1.1v-3.2c-.1 0-.6-.5-.6-.5l-5.4-.8-4.1-1.6-3.6-.5-2.2-.7-3.8-3-1.6-1.9-1.6-2.3-6.2-3.9-.4-.4-.4-1.1v-1.8c.1 0 1.7-2.3 1.7-2.3l.9-2.3 2-2.8h.7l1.6 1.3h.7c0-.1 1.1-1.6 1.1-1.6V302l.2-.6 2.5-2.4 2.3-2.9 1.5-1.1 3.1-3.1 1.8-3.9.4-1.5v-2.9Zm-49.5-78.5h2.8l.8.3 2 2.6v.8l-.3.6-1.1.5h-2.3l-1.2.4h-1l-.2-.5V208l-.3-.4-2.1-.2-1.6-1.3v-3.2l.3-.3h2.3c0 .1.6.6.6.6l.9 1.3h.4ZM182 174.1l.8 1.2 2.9 10.1.3.7 4.2 5.4 2.2 6.6.4.7h.5c0 .1 4.1.1 4.1.1l1.6-.3h4.2l2.1-.3.3-.3-4.7-22.8h5.4l1.3.3h1.8l.8.4h1.6l.8.4h1.3l.1.8 1.2 1.9 5.9 2.7 7.8 7.4.8.4.7-.8 1.4-2.5v-1l-6.4-6.9h1.9c0 .1 4.4 1.2 4.4 1.2h1.5l2.4-.9 2-.5 4-1.6h4.3l4.1 2.5 1.4 1.1.6 1 1.5.8-1.5.8-5.3.8-2.2 1.9-2.3 1.5-2.7-1h-.6l-1.4 2.5-1.6 4-2.2 4.6 3.1 2.2 2.1 2.7 1.4 2.8v3.6l.4 1.3v3.9l.2.4.7.3 9.1 2.2.8-.3 1.2-2.3.6-.5 6.5.4 4 3 12.3 7.7-1.8 2.8-1 2.2-2.7 2.2-3.7 5.1-.9 1-2.2 3.5-3.6 4.3-.3.9-6.3-3.1h-1.9l-.9-.4h-2.2l-2-.4-5.6.3h-4.6l-4.4.6h-3.2l-9.6-3.1-5.2-.8-.8-.3h-1.6l-.3.2-2.5 5.1-1.3.4h-2.1l-.5.5.3 2.1v4l.3 1.5v2.5c-.1 0-4.9 1.2-4.9 1.2l-4.5 1.9h-.6l-6.3-3.5-1-.7-.7-.8-2.7-13v-2.3l.6-1.6v-.8l-.9-.4h-1.2c0-.1-7.4-1.8-7.4-1.8h-1.4l-.7-.4h-5.6l-.2.3v.9l1.3 5.9v1.5l.5 1.2 16.5 14.4v.5l-1.2 1.5v.6c-.1 0 .3.6.3.6l1.9 1.7 1.4 7.9 2 5.9 1 1.8 6.1 7.6v.4l-1.2.6-3.3 1.4h-1.1l-1.3-4.3-2-2.4-3.9-5.6-3.6-4.6-.8-.4h-3.9l-2 .3 2.2 3.9 8.8 13 3.6 14.1-1.9-3.8-2.6-4-5-4.8-1.4-1.6-1.3-3.3-1.9-2.9-1.3-3.7-1.5-3.1-1.2-3.7-1.4-2.1-1.4-3.2-1.7-2.5-1.1-2.7-1.7-2.5-1.1-2.7-1.9-3.2-2.6-8.7-1.1-6.6-1.8-4.6-1-5.8-2.2-9.6-1-10.6.4-6.6.3-2.1 1.6-6.2.5-7.6 1.9-7.7 2.7 1.6 2.8 2.1 3.8 8.2.6.3 1-.7 14.2-13.2.8-.4Zm28.4 38 .9.4 2.3 4.7.7.7 2.9 1.4.7-.4 2.7-4.2v-.4l-.4-.4-4.4-3.5-6-2.9-.7.2-1.1 3.1v.9l.4.3h2Zm13.6-19-.7 1.7v.6c.1 0 1.1 1.5 1.1 1.5l1.7 1.4 2.3-.7.2-.7-.4-2.1-3.8-1.9-.6.2Z"/><path id="LI-08" d="m267.9 90.5-2.4-1-1.2-1-1.4.2-.2.4.2.7-.4.5h-2.2l-6.7 3.5-2.8 2.4-2.2 3.6-.7.4h-1.4l-.5-.5-.5-1.6-1.3-2.2-.4-.4h-.3l-2.2 1.3-1.9 2.3-2.6 2.2-1.7 2.1-.2.6h-2l-1 .2h-2.1l-1.9-.7h-.9l-3.7.9H222l-1.4-.8-.4-.5v-2l.5-.9 4.2-7.3 1.6-.2 1.6.4h1.8l2.7-2.7 3.9-2.2 5-3.2 4.2-2.2 3-3.6 3.9-2.9 4.4-4.5 3.5-6.6 1.1-2.4v-.9l-.9.3-3.5 2.8-8 7.7-5.7 3.8-.8-.3-3.2-2.2-4.8-4.8v-.4c-.1 0 .9-1.5.9-1.5l3.9-4.1 5.7-4.6 6.9-6.5 3.4-3.4 3.7-4.4 1 .6 7.2 9.3L280 72.9l-7.3 11.8-4.9 5.7Z"/><path id="LI-09" d="m222.7 329 2.9 4.2.2 4.2 3.2 4.5v.5l-.9 2.1v.7l2 2.7.6.4 2.3.8 1.1-.3h1.6l1.5 4.7v5.7l-.3 1.2v1.6l-1.5 7-1.7 3.9v.6l2.1 3.5.7.7h1.5l1.2-.3h1.7l.7-.3h1.6l3.3-.6.7.2 6.8 5.2.5 1.3.4 2.8.5 1.4 8.4 9.1 3.6 2.8h.8l6-3.5h.7l4.1 5v8.7l.3 1.5-4.7 4.7-1.7 2-1.8 3.8.6 7.1v3.4l-.7 3.1.5 1.5 2.3 3.9 2 2.4 3.4 3.5.5.4 5 1.1h2.8l3.2-.8 4.3-2.4 2.3-1.5 2.5-.9 1.8-1.6-.5-2-2.7-2.7-1.5-1.2-2.4-2.9-.7-2.2v-2.9l-.3-1.1v-2.8l-.4-2.1-3-3.8v-1.6l1.3-2 .5-1.4 1-.8.7-.9 1.1-1.9.8-2.5-.7-3.3-1.6-5v-8.9l-.3-1.1v-1.4l.4-.3h3.2l.9-.3h2.5l.9-.3h1.8l-.1 4.7.3.7v1.7l1.1 4.6 1.7 4.7 1.5 2.5 1.2 2.5.5.5v1.2c.1 0 2 4.5 2 4.5l-1.9 5.4.6 2.8 3.6 9.6 3.5 11.5 4.6 8.8-.3.6-3.8 3.7-.2.5 4.1 3.2 2.6 5.5 2.1 2.8 2.4 2.1 2.2 1.5 2 3 3.3 2.2-2.7 1.6-2.4 1.9-2.7 1.2-3 2-2.5 1-4.4 1.4-1.3 1-4.6 4.6-3.6 1.2-3.9 1.7-4.1 1.3-8.1.9-8.2 1.4-1.6.4-5.9 2.9-6.8 4.3-3.1 2.6-3.7-2.1-1-.9-2.3-3.1-.3-1.3-.3-6.7-.8-5.8-.4-1.8-1.3-2.8-2.5-2.5-2.8-2.1-3.6-1.4-4.6-3.6-2.6-.9-1.4-.8-10.3-13.3-3.4-3.4-.5-.9-1.2-3.9-1.3-2.7v-3.7l1-2.6.4-1.9.2-4.2-.2-1.1-.6-.5h-1.7l-.7-.4h-1.6l-1.6-.5-3.1-1.1-2-1.4-.7-.7-.7-1.4-1-2.3-.9-2.8-2.8-3.2-1.9-3.3-.7-.7 1.8-4.1 1.1-3.8 1.4-3 .5-2 .2-3.5v-15.9l-.3-2.1-1.6-6-1.2-6.9-2.7-6.5-1.8-3.7.7-2.6.3-3.3v-4.1l-.4-3.2-.7-3.3-.9-5.8-1.8-6.1 5.3-1.1 3.9-.4 1.1-.3h3.6l4.3 1h2.5l2.1.4 2.4-.4Z"/><path id="LI-10" d="m317.9 365.7 1.5-1h1.7l1.3-.5 2.1-1.4 1.8-1.7 1.2-.5h2.6l2.9.7h3.2l1.3.4 1.3-.3h4.4l1.4-.3 10.6 3.4 2.8.6 1.1-2.1 1.5-1.9 9.2 9.1 6.8 11.4 5.2 15.1-4.1 14-2.2 14.8-16.3.3-14.5 6.5-.4 2.9-.7-.5-.8-2.1-.8-1.1-1.1-2.2-.5-1.5-1.4-2.1-1.8-1.7-2.1-2.7-1-2.5V417l-.4-1.7-.8-2 1.4-.9.4-.8.4-2V408l.3-.7v-1.7l.4-.7v-1.7l1.4-3.6.8-3 1.3-2.7v-1.7l-1.9-2.1-1-1.7-.7-3.3V383l-.8-2.7-.4-1-1.8-1.6-1.8-2.3-1.5-1.3-.5-1.2-1-1.4-1.7-1.7-3.4-2.4-2.8-.9-1.9-1Zm-14.3-105.9-1.3 3.2v2.6c-.1 0-.8 1.6-.8 1.6l-1.2 1.8v1.8l-.3 1 .6 1.7-.3 1.1v2.3l-.4.8.3 1.6-1 2-.2 1 .2 1v2.8l-.4 1.5-1.8 3.9-3.1 3.1-1.5 1.1-2.3 2.9-2.5 2.4-.2.6v2.7l-1.1 1.5h-.7c0 .1-1.6-1.2-1.6-1.2h-.7l-2 2.9-.9 2.3-1.6 2.3v1.8c-.1 0 .3 1.1.3 1.1l.4.4 6.2 3.9 1.6 2.3 1.6 1.9 3.8 3 2.2.8 3.6.5 4.1 1.6 5.4.8.5.5v3.2c.1 0-.2 1.1-.2 1.1v2.1l-1.8 5.7-2.3 5.8v2.3l-.4 1v3.9l-.3 1.2v2.8l-.4 1.8-1.7 4.2-1 4.1v1.6l-.4 1v4.8l.3.6.4 2.9 1.4 3.6h-1.8l-.9.4h-2.5l-.9.3h-3.2l-.4.2v1.4l.3 1.1v8.9l1.6 5 .7 3.3-.8 2.5-1.1 1.9-.7.9-1 .8-1.6-.7h-1.4l-2.3 1.2-1.4.4-5.9-1.9-.3-1.5v-8.7l-4.1-5h-.7l-6 3.6h-.8l-3.6-2.8-8.4-9.1-.5-1.4-.4-2.8-.5-1.3-6.8-5.2-.7-.2-3.3.6h-1.6l-.7.3h-1.7l-1.2.4H236l-.7-.8-2-3.5v-.6l1.6-3.9 1.4-6.9v-1.6l.4-1.2v-5.7l-1.5-4.6h-1.6l-1.1.2-2.3-.8-.6-.4-2-2.7v-.7l.9-2.1v-.5l-3.2-4.5-.2-4.1-2.9-4.2 3.6-1.5.7-2.8v-1.6l.4-1.2-.2-1-1.7-1.4-1.4-1.6-.4-1.6v-2.3l-2.3-3v-1.8l-.4-1v-5.2l1.5-5.4 1.5-2.3 2.8-1.3 1-.6.2-.4v-1.5l-1.6-3.4-1-3.1v-2.1l1.3-.8 1.6.5 2.9 4.9 1.8.8h.6l.9-.7v-.5c.1 0 .1-3.1.1-3.1l-1.3-3.5v-1.3l.8-1.1 1.9-.4h4l2.1 1.5 2.2 3.4.6.3 4-1.8 2.7-2.6 2.4-1 1.5-.2v-1.4l-1.9-7.7v-1.2l2.6-7 1.2-3.8 1.6-3.4 1.4-3.8v-2.1l-.1-.8.3-.9 3.6-4.3 2.2-3.5.9-1 8.2 4.1 4.1 3.1 9.4 8.1 5.1 4.2 4.5 2.5 4.7 1.4h.8Z"/><path id="LI-11" d="M303.3 361.8h1.7l2.1.7h3.8l1.8 1 2.7.8 2 1.2h.6c0 .1 1.9 1.1 1.9 1.1l2.8.9 3.4 2.4 1.7 1.7 1 1.4.5 1.2 1.5 1.3 1.8 2.3 1.8 1.6.5 1 .7 2.7v2.1l.8 3.3 1 1.7 1.9 2.1v1.7l-1.3 2.7-.8 3-1.3 3.6v1.7l-.4.7v1.6l-.3.7v1.6l-.4 2-.4.8-1.4.9-1.3.5h-1.1l-2.1-.6-4.1-.8-7.2-2.5-3.9-2.6-1-.4h-3.8c0-.1-.5-.6-.5-.6l-1.2-2.5-1.5-2.5-1.7-4.7-1-4.6v-1.7l-.3-.7v-4.8h.1l-1.4-3.6-.4-2.9-.3-.6v-4.8l.3-1v-1.6l1.1-4.1 1.7-4.3Zm24.1-66 3.5 3.1 3 3.3 2.2 1.5 3.1 3.9.7 2v6.3l.4 2.3 1.2 2.2 1 3.7v1.1l-1.3.5h-2.6l-3.9-1h-1.5l-2.4-3.7-1.9-.5h-1.8l-2.3.6h-2.4l-1.5-.4h-5.1l-3.5-3.3-.8-2.5-2.9-4.5v-.7l.8-.4 4.5-.4 4.4-1.4.6-.4 2.9-3 4.8-6.9.7-1.4ZM189.3 302l-3.6-14.1-8.8-13-2.2-3.9 2-.3h3.9l.8.4 3.6 4.6 3.8 5.6 1.9 2.3 1.3 4.4h1.1l3.3-1.4 1.1-.6v-.4l-6-7.6-1-1.8-2-5.9-1.4-7.9-1.9-1.7-.4-.6v-.6c.1 0 1.3-1.5 1.3-1.5v-.5l-16.5-14.4-.4-1.2v-1.5l-1.4-5.9v-.9l.2-.3h5.6l.7.3h1.4l7.4 1.8h1.2c0 .1.9.5.9.5v.8l-.6 1.6v2.3l2.7 13 .7.8 1 .7 6.3 3.6h.6l4.5-2 4.8-1.2V253c.1 0-.2-1.5-.2-1.5v-4l-.3-2.1.5-.5h2.1l1.3-.4 2.5-5.1.3-.2h1.6l.8.3 5.2.8 9.6 3.1h3.2l4.4-.6h4.6l5.6-.3 2 .3h2.2l.9.4h1.9l6.3 3.2.2.8v2.1l-1.5 3.8-1.6 3.4-1.2 3.8-2.7 7v1.2l2 7.7v1.4l-1.5.2-2.4 1-2.7 2.6-4 1.8-.6-.3-2.2-3.4-2.1-1.4h-4l-1.9.3-.7 1.1v1.3l1.2 3.5v3.1l-.1.5-.9.7h-.6l-1.8-.9-2.9-4.9-1.6-.5-1.3.8v2.1l1 3.1 1.6 3.4v1.5l-.1.4-1 .6-2.8 1.3-1.5 2.3-1.4 5.4v5.2l.3 1v1.8l2.3 3v2.3l.5 1.6 1.4 1.6 1.7 1.4.2 1-.3 1.2v1.6l-.8 2.8-3.6 1.5-2.4.4-2.1-.3h-2.5l-4.3-1.1h-3.6l-1.1.3-3.9.4-5.3 1.1-1.3-6.8-1.8-4.7-1.3-6.4-1.3-3.1-1.4-4.6-1-2Zm28.3-90 2.5 1.9.4.6-2.8 4.3-.5.4-3.5-1.7-2.5-5-.9-.4h-2.2l-.3-.5 1.2-3.9.7-.2 5.4 2.5 2.4 1.9Zm43.1-24.2-1.2.5-.8-2.1-1-1.3-3.2-1.9-1.1-1.1-1.5-.8 2.4-1.6 4.1 3.8 2.3 4.6Zm-59.8-12.5 4.7 22.8-.3.3-2.1.3H199l-1.6.3h-4.6c0-.1-.4-.9-.4-.9l-2.2-6.6-4.2-5.4-.3-.7-2.9-10.1-.8-1.2h1.8l1.4.3h6.1l1.7.3h5.8l2.1.5Z"/></g></svg>