<?xml version="1.0" encoding="UTF-8"?>
<svg id="Layer_1" xmlns="http://www.w3.org/2000/svg" version="1.1" viewBox="0 0 512 512">
  <!-- Generator: Adobe Illustrator 29.1.0, SVG Export Plug-In . SVG Version: 2.1.0 Build 142)  -->
  <path id="LU-D" d="M210.5,11.8l1.3,8.2,10.8,6.5,3.4,1.1,1.3-.4,2.5-2.2,3.4.3.7-3.6-.6-6.3.8-.5h1.5c0-.1,4.3,1.7,4.3,1.7l3.6-1.2,7,5.5-2.5,5,5,4.4-2,1-2.4,2.5-1.3,4.8.3.7h3.3l2.1,1.2,3.1,3.2,2.2-.3-1.1,3.8-2.8,1.4-1.1,3.7.4,1.8,1.5-.4,2.4.5v1.2c.1,0-1.6,3.3-1.6,3.3l1.8,1.8v.9c0,0-.8,1.2-.8,1.2l-3.1.4.4,2.7,2.6,1.5v1.5c0,0-1.5,1.1-1.5,1.1l-2.3-.8-1.7.2-.5,3.7.9,1.6v2.7c.1,0-1.7.7-1.7.7l-1.9,3.1.9,2.2,1.9.2,1.1-1.5-1.1-.7.2-1,.8-1.1h.8l2.1,1.6.4,1.6-3.6,3.2-.3,2.5-2.9-1.5-1.1.5-1,4.2,1,2.4,1,.3,1.4-.7.7-2.7h1.5c0-.1,1,.7,1,.7v1.8c0,0-1.4,3.1-1.4,3.1l5.7,7.8v1.8s-1.6,5.6-1.6,5.6l5.1,3.1,1.6,1.7v1.8c-.1,0-4,4.8-4,4.8l2.1,1.5h2.2l1.1.6.6.5v2.1c0,0-2.8,5.5-2.8,5.5l-2.5-1.1-.4,2,1.4,1.4,3.2.3,1.6,3.4,1.4,1.6h3.4c0,0,2,1,2,1l-1.8,6.5v4.2s1.9,4.6,1.9,4.6l2.7,1,.5,4.7,1,1.6,1.1.2,2.5-1,.9-1.2-1.9-2.1-1-3.7,2-2.8h1.8c0-.1.6.5.6.5v2.2s.9,2.3.9,2.3l-.2,3.1,2.2,5.4,1.4-3.5,1.7-1.3,1.4.7,1.3,2.8h4.8v.9l-2.4,3.2,2,1.6,2.2,3.1-1.3,1.7.8,4-3.5,2.4v1l.8,1.2,4.4,1.1.6,1,1.1,4.5-1,1.1h-1.6c0,.1,1.2,2,1.2,2l1.4,5.4,3.1,2.1,2.7.4,1.7,3.8,3,3.2,1.3,3.3,6,2.9,2.3-1.4h1c0,0,1.7,2.2,1.7,2.2l2.4.5.5,3.2,2.1,2.4h1c0,0,3.4-2.2,3.4-2.2l2.2.5.9,2.2v3.9c0,0-3.4,1.8-3.4,1.8l1.1,2,.5,4.7-3.1.5-2.9-1.6-4.9,1.2-7.1-1.5-3.1,2.9,1.3,2,2.2.5-7.2,7.6.4,3.2.4,1.2,6.1,1.9-.3,2.1v.8c-.1,0-2.2,1-2.2,1v3.1s-4.9,0-4.9,0l2.6,5.2-2.1,2.4-3.9,2.2-.3,2,2.3,2.5.7,2.2-1.5.6-1.2-2.1-1.3,1.7-2.5-.8-.6-3.6-.7-1.2-.4.3-.7-2-4.2,1.8-.3,1.8h-.8c0,0-.7,1.2-.7,1.2l-3.8-2.6-1.1-2.5-3.6-1.6v-1.3c0,0-2.2-1.6-2.2-1.6l-1.1.3.5-.8-1-.2-.4-1.1,1-2.2.2-2.3-1.4-3.6-.2-2.8-1.3-.4-5.1,1.6-4.9-1.2-5,3.2-.4-3.9-1.1-2-.7-.3-5.9,4.3-.6,1.4-.3-.3-8.7,6.2-1.5-2.4-4.6-1.1-.6-1,.6-1.7-1.1-2-1.6-.5-2.3.3-4.8-2v-2.8s-4-.6-4-.6l-.2-1.4.6-.7-.6-.5-1.1,3-4.7,2.5.3.7-.9.6-2-1.4h-1.1c0,0-.9.4-.9.4l.2,2-1.2.2-2.5,2-1.8,4.6v1.8c0,0,1.1.7,1.1.7l-.2,1,3.6,2.7h-1.9c0,.1-6.4,3.5-6.4,3.5l.5,1.2-2.5.9v2.9c-.1,0-1.1.7-1.1.7l.4,2.2h-3.6c0-.1-2.8,2.2-2.8,2.2l-.4,1.4,1.5,3.2-.8,1.2,1.8.7-.3,1.1-2.9,1.1.3,1,.9.3-.8,1.3,1.2,3.7-2,.9-.8,2.4-2,1.6-.4,1.4.6,1.8-1.6,1.4,1.1.5,1.2,1.9-1.3,1,.6,1,2.1-.7.6,1,1.1-1.2,1.7,3,2.1,1.1-2.5,1.8,1.6,1.9-.6,1.8,1.1,1.2-.7.3.2.8-1.3.6.8,1.6-5.6,1.8-.7-.5v-2.4l-3.1.7-2.5,1.6h-2.2c0,0-.9-1-.9-1l-.4,1.3-6.6,4.5-1.4,1.9v1.2c-.1,0-2.1.1-2.1.1l-2.5,2.4-4.1,2-3.4.3-4.1-1-2-2.7.5-3-.6-.7-3.8.7.2-.9-1.4-.3-5.4,2.4-2-3-2.4-2.2.7-.9v-1.9h-2.5l-1-2.1-2.5-1.3h-2.3c0,0-5.6,3.1-5.6,3.1l-2.5-.2-1.6-1.2-3.7.7-.6-5.7,1-1.6v-3.7c0,0,1.5-1.6,1.5-1.6v-4.3c0,0-1.1-1.4-1.1-1.4l-2.5-.2-2-3-1.1-4.5-2.5-3.3-1.1-5.3-1-1.8-2-1.4-1-3.3-2.2-2v-2.8c0,0-2-3.6-2-3.6l-1.2-.5-.7.3-1.4,1.9-2.9-1.2-1.1.8-7.5,1.6-2.3-11,.4-4.1-1.6-1.6-1-2.5,1.9-2.3v-1c0,0-1.6-4.7-1.6-4.7l-1.5-1.7-.3-1.8.8-1.3,2.4.2.9-.5-.7-3.4.4-2,2.1,1,1.8-1.6v-1.7s-1.3-1.6-1.3-1.6l-3.4-.3-.3-.6,3.4-1.5h1.8c0,0,.8-.9.8-.9l-2.2-3.1.7-3.2-1.5-2,.8-2.2h.9c0-.1,1.8,2,1.8,2l1.3.5,2.6-2.2,1.1,3.1.8.2,1.3-3.1,2.8-.5-.2-.8-2-1.5,1.7.5.6-2.4-2.9-3.8-2-.5-1-1.3-2.4-1.2-3.6-.7-4-2-1.9-1.8-3.1-1-.4-1.6,2.1-2.4v-.7c-.1,0,1.5-.7,1.5-.7l1.7-3,6.7-4.8-.3-4.4.7-.5-.4-.9.7-4.3,2.2-.5.5-3.1,1.7-1.4-1.9-6.7,1.6-2.9-.3-2.7,1.1-.8v-1.9c0,0,2-1.1,2-1.1l1.8,1.1,2.5-.6.4-1.4,2.5-1.6,1.6,1.6,3,.3,1.4-1.4-.3-1.6,1-2.8,3.6-.4,1.9-2.1,3.2-1,2.4-2.8.7-1.7.2-4-1.1-1.4-2.4.3-1.1-2.1-2.5-2.2-1.1-4.4.3-1.8-.7-4.3,1.3-1h2.5c0-.1,2.4-2.7,2.4-2.7l3.5-.2,4.7-2.9-.2-2,1-1.3,2.8-1-1.2-5,2.5-2v-1.4s1.9-1.4,1.9-1.4l1.1-2.3-1.8-3.7-1.2-1.2-2.2-.4-1.5-3.1,2.4-6.4,2.8-1.6,1.3-1.9,4.6-1.8.9.6,2.5-1.8.4-3.7-.6-4.1,3.6-7.8.8-7.6,2.2-2.6,4.7-3.3,2.1-.4,5.1-3.1,13.8-4-.7-5.3,1.1-2.4-.8-5.6,3.2-2.4-1.4-4.1-.7-.4.9-2.3.3-4.9,2.6-2.3,12.5-.4,10.6-5.3.7.5"/>
  <path id="LU-G" d="M338.9,235.6l-.7,4.3,1,1.6,2.6,1.4,1.9-.5,2.1-1.8.8-4.9,1.1-1.4,5.5-1.2h3.2c0,0,1.6.5,1.6.5l3.2,4.8,9.4,11.4,1.5,3,6.5,2.8,5.7.9.7,2.4,1.4,1.1h1c0,0,3.9-2.2,3.9-2.2l.8,1.4.9.3h3.9l3.7-4.3,3.9-3.3,3.4,2.2,2.3,3.6,2.1,1.4h3.4c0,.1,4,2.2,4,2.2l1.9,4.3.9.5,1.1-.7,1-1.7.9-4.8h1.8c0-.1,1.7,1,1.7,1l1.1,4-4.7,6-5.6,3.5.8,2.4,4,2.7v.8c0,0-2.2,3.7-2.2,3.7l-.3,1.9,2.6,3.5.4,3.9-.7,1.8-6.4,4.5-.7,2.8.9,2.9v8.7s6.1,4.9,6.1,4.9v1.2c0,0-1.1,1.1-1.1,1.1h-1.5c0,0-3.6-3.7-3.6-3.7h-2.5c0,0-.5,2.4-.5,2.4l4.9,4.5v1.7l-4.3,3.1-7.8,9.2-8.4,3-4.8,8.4-2,2.2-6.2,4.7-1.7,3.4.2,1.4.5.9h3.9l1.7,1.5v2c.1,0-5.1,13.1-5.1,13.1l-3.5,11.1-4.9,4.8-4.1,6.3-3.8,1.8h-2c0,.1-4.6,4.7-4.6,4.7l-.8,1.7v3.2c.1,0,.9,1.6.9,1.6l1.7,1.3.6,2.3-.3.7-1.6.5-2.5-1.7-1.8.3-2.5,1.4-1.9,2.6v1.4s1.5,2,1.5,2l8.2,6.1,1,1.5-1.6,4.7-5.1,6.6-2.2,1.7-2.4,4.6,4.6,16.3v8.8c0,0,.9,3,.9,3l-.8,12.2.4,6.8-2.1.4-4.7-4.6-2.6.6-2-1.7-3.3.9-5.9-6.5-2.9-.5-.3-.9-3.6,1.3-3.4-2-.8-1.5,1.8-3.4-.7-.5-2.5.6-.6,1.8h-.9c0,0-1.9-4.3-1.9-4.3v-.6c.1,0,1.8.4,1.8.4l.4-1.8-.9-.3-1.7.7-1.6-.9-.5-5.6-2.8-.7-4.3.2-.4-1.6-1.7-1-.3-2h-1.2c0,0-2.7,1.3-2.7,1.3l-3.6-3.6-.2-1.4-1.6-.9-.4-1.5,1.7-3.4-1.8-2.3,2-1.6-1.6-2.2-1.4-.6-.8-2.2h-1l.3-1.7-.7-.4.4-1.2-.5-.5.8-.9-.4-.5-.7.5-.9-1.5.4-.2-2.7-3.5-.3-1.5,3.2-1.8,1.6,2.8,1.3-.6.5.5.5-.6-2.2-2.8.8-1.7-.5-1.1.9-1.8-1.1-3.8,3.2.3,1.6,2,4.9-.4,2.3-1.4-1.2-1.3v-2c.1,0,1.2-2.3,1.2-2.3h3v-.9h.9c0,0,.3-2.8.3-2.8l.9-.7,6.4-1.3h4l3.5,2.6.6-1.1-.6-4.2-2.1-3.2-.7-2.4-2.1-.2-.8-1.5-1.4-.7-4.4,1.1-.4-.5,1.4-2.4,13.5-15.5v-2.4c0,0-.6-1-.6-1l-1.4-.7-.6-2-3.1.4v-1.2s-1.2,0-1.2,0l-1.2-1.7-.6-6.1-2.9-1.9-.2-3.8-.6-.2,2.2-.5.3-3.9-2.8.2-.5-2.9.3-4.9-.5-1-2.5,1.9-.5-1.7h-.7c0,0-.7.9-.7.9l-1.3-5.3-3.4-1.6-2.4,1.1-1.4-.7-4.7,1.5h-1c0,0-.8-1.2-.8-1.2h-2.1c0,.1-.5-.3-.5-.3l-1.6,1.2-.4-1-3.3.2-1.3-2.8-6.7.7-.5,1.1.8,1.1-2.2,1.7-1-1-4-.7-1.3.8.4-1.9-4,.6-1.3-.7,2.4-1.7,1.3-.5.5.5,1.4-.9,1-1.8-1.5-1.7,2-1.8.6-3.8,1-1.5-.7-1.2.6-3.3-1-1.5,5-3.4,2.9-1-.2-1.1,2.4-.6-1-1.8,3.8-1.6-.2-.6,2.5-2.3,1.5-2.8,2-7.9,5.8,1.8,4.2.6,4.6-.2,1.2.5.6-1.7,3.1-3.7.3-3.1,1.6-1,1.1-2.4-1.4-.3-.3-.9,2.2-2.2v-.7s-1.4,0-1.4,0l-.6-1.1-2.6,1-1.2-.2v-.5s-1.3.3-1.3.3l-1-5.1.9-.2-.4-1.4-2,.9-1.6-.6-1.4,1.2-1.8-2.7-1.4.5-.7-1.4-2.2.5-.2-.7,5-2,1.5-.6-.7-2.2-2.3-2.5.3-2,3.9-2.2,2.1-2.4-2.6-5.2h4.8c0,0,0-3,0-3l2.1-1v-.8c.1,0,.4-2.1.4-2.1l-6.1-1.9-.4-1.2-.4-3.2,7.2-7.6-2.2-.5-1.3-2,3.1-2.9,7.1,1.5,4.9-1.2,2.9,1.6,3.1-.5-.5-4.7-1.1-2,3.5-1.8,3.3,4.8"/>
  <path id="LU-L" d="M147.2,329l5.4-2.4,1.4.3-.2.9,3.8-.7.6.7-.5,3,2,2.7,4.1,1,3.4-.3,4.1-2,2.5-2.4h2c0-.1.1-1.3.1-1.3l1.4-1.9,6.6-4.5.4-1.3.9,1.1h2.2c0,0,2.5-1.6,2.5-1.6l3.1-.7v2.4l.7.5,5.6-1.8-.8-1.6,1.3-.6-.2-.8.7-.3-1.1-1.2.6-1.8-1.6-1.9,2.5-1.8-2.1-1.1-1.7-3-1.1,1.2-.6-1-2.1.7-.6-1,1.3-1-1.2-1.9-1.1-.5,1.6-1.4-.6-1.8.4-1.4,2-1.6.8-2.4,2-.9-1.2-3.7.8-1.3-.9-.3-.3-1,2.9-1.1.3-1.1-1.8-.7.8-1.2-1.5-3.2.4-1.4,2.8-2.3h3.6c0,.1-.4-2-.4-2l1-.7v-2.9c.1,0,2.7-.9,2.7-.9l-.5-1.2,6.4-3.4h1.9c0-.1-3.6-2.8-3.6-2.8l.2-1-1.1-.7v-1.8c0,0,1.8-4.6,1.8-4.6l2.5-2,1.2-.2-.2-2,.9-.5h1.1c0,0,2,1.5,2,1.5l.9-.6-.3-.7,4.7-2.5,1.1-3,.6.5-.6.7.2,1.4,4.1.6v2.8s4.8,2,4.8,2l2.3-.3,1.6.5,1.1,2-.6,1.4.6,1.3,4.6,1.1,1.5,2.4,8.7-6.2.3.3.6-1.4,5.9-4.3.7.3,1.1,2,.4,3.9,5-3.2,4.9,1.2,5.1-1.6,1.3.4.2,2.8,1.4,3.6-.2,2.3-1,2.2.4,1.1,1,.2-.5.8,1.1-.3,2.3,1.6v1.3c0,0,3.5,1.6,3.5,1.6l1.1,2.5,3.8,2.6.7-1.3h.8c0,0,.3-1.7.3-1.7l4.2-1.8.7,2,.4-.3.7,1.2.6,3.6,2.5.8,1.3-1.7,1.2,2.1-5,2,.2.7,2.2-.5.7,1.4,1.4-.5,1.8,2.7,1.4-1.2,1.6.6,2-.9.4,1.4-.9.2,1,5.1,1.4-.3v.5s1.1.2,1.1.2l2.6-1,.6,1.1h1.3c0,0,0,.7,0,.7l-2.2,2.2.3.9,1.4.3-1.1,2.4-1.6,1-.3,3.1-3.1,3.7-.6,1.7-1.2-.5-4.6.2-4.2-.6-5.8-1.8-2,7.9-1.5,2.8-2.5,2.3.2.6-3.8,1.6,1,1.8-2.4.6.2,1.1-2.9,1-5,3.4,1,1.5-.6,3.3.7,1.2-1,1.5-.6,3.8-2,1.8,1.5,1.7-1,1.8-1.4.9-.5-.5-1.3.5-2.4,1.7,1.3.7,4-.6-.4,1.9,1.3-.8,4,.7,1,1,2.2-1.7-.8-1.1.5-1.1,6.7-.7,1.3,2.8,3.3-.2.4,1,1.6-1.2.5.5h2.1c0-.1.8,1,.8,1h1c0,0,4.7-1.4,4.7-1.4l1.4.7,2.4-1.1,3.4,1.6,1.3,5.3.7-.9h.7c0,0,.5,1.8.5,1.8l2.5-1.9.5,1-.3,4.9.5,2.9,2.8-.2-.3,3.9-2.2.5.6.2.2,3.8,2.9,1.9.6,6.1,1.2,1.7h1.1c0,0,0,1.1,0,1.1l3.1-.4.6,2,1.4.7.5,1v2.4c0,0-13.4,15.5-13.4,15.5l-1.4,2.4.4.5,4.4-1.1,1.4.7.8,1.5,2.1.2.7,2.4,2.1,3.2.6,4.2-.6,1.1-3.5-2.6h-4l-6.4,1.3-.9.7-.3,2.7h-.9v.8h-3c0,.1-1.1,2.4-1.1,2.4v2.4c0,0,1.1.9,1.1.9l-2.3,1.4-4.9.4-1.6-2-3.2-.3,1.1,3.8-.9,1.8.5,1.1-.8,1.7,2.2,2.8-.5.6-.5-.5-1.3.6-1.6-2.8-3.2,1.8.3,1.5,2.7,3.5-.4.2.9,1.5.7-.5.4.5-.8.9.5.5-.4,1.2.7.4-.3,1.7h1l.8,2.2,1.4.6,1.6,2.2-2,1.6,1.8,2.3-1.7,3.4.4,1.5,1.6.9.2,1.4h-.6l-.6,3.2-.6.3-2.5-.9-.7.7-.7-.6-2.8.9-1.7-.9-.3,2.6-5.8-.3-2.8.9-1.4-1.1-2.5.3-1.7-.8-2.8.4-.5-2h-.9c0,0-5,3.4-5,3.4l-3.1.5-.8,2.4,2.7,5.5-1.6.6-.9-1.5-1.4,1.8-3.8,2.7h-.7c0,0,.5-3,.5-3l-3.8,1.3-2.6-2.4-.5,7.5-1.5,3.4-.2,2.5-3.8,1.8-1.5-1.4h-1.2c0,.1-2.7,2.4-2.7,2.4l-1.5,4,1.1,6.6-4.7-.9-3.8-2.5v-4.1c-.1,0-.7-.7-.7-.7h-2.9c0,0,.3-1,.3-1l-3.6,1.2-3.3-.9-.9.2-1.9,3-4,9.7-3.4-1.5-2.8.4-.4-.5.7-1.8-1.7-2.1-6.8,1.9-2.5-2.4-1.6-.4-7.7,4.1-.8-.4-.6-1.3.4-1.6.9-.7,1.9.5.7-4.4-2.1-.4-.7,1.3-1,.4-2.1-3.5-1-5.2,1.4-3.4-.4-2.3-1.9-1.3-.7-2.6v-2.6s-.7-1.1-.7-1.1h-5.8c0-.1-3.7-3.4-3.7-3.4l-3.5-1.5-4.2,1.7-5.5-2.5-2.2.4-3.1,2.2-3.8,1.1-5.3-2-2.9.7-.9-.8-2,.5-1-.7-2.7-3.6-4.5-2.6-.5-3.9-2.5-1.1-3.4-3.4v-3.9s3.3-1.7,3.3-1.7l.7-.9-2.1-3.8-1.1-4-8.7,3.7-3.1-3.8v-.9s3-.7,3-.7l3.2-3.2,1.1-.3.8.5,6-2.7,1.1-1.8-.6-2.2.5-1.5,1.9-.7,1.4-1.5,2.5-.6.9-2.4,3.2-2.5,1.1-.2v-3.6c0,0-1.3-.4-1.3-.4l.9-2,.9-.5-.6-2.7-1.4-.7-1.5,1.8h-3.5l-1.5-.7-1.1-2-.6-3.9,1.3-2,3.2-1.7,3.4-3,3.5-1.8.4-3-.7-1.8.6-3.1,4.5-5.1-1.1-2.8,1.6-2.5,4.4-.7,1.9,1.4,2.4-3-1.1-1.7v-2s-.8-.5-.8-.5l-.3-4.7,1.4-2.3-1.1-1.8,1.2-2.2,2.1-1.2.3-.7-1.4-.9-1.2.9-1-.2.4-2-.4-.3-1.4.9-1.2-1.1-1.5.5-1-1.4-1.8,1.1-3.1-3.6h-2.1l-1.1-1-2.4-.3-1.9-3.7,1.7-8.8,2.2-3.3,2.8-2.2,3.6-4.5"/>
</svg>