<?xml version="1.0" encoding="UTF-8"?>
<svg id="Layer_1" xmlns="http://www.w3.org/2000/svg" xmlns:amcharts="http://amcharts.com/ammap" version="1.1" viewBox="0 0 512 512">
  <!-- Generator: Adobe Illustrator 29.1.0, SVG Export Plug-In . SVG Version: 2.1.0 Build 142)  -->
  <g id="_x3C_defs">
    <amcharts:ammap bottomLatitude="35.805673" leftLongitude="14.182891" projection="mercator" rightLongitude="14.576552" topLatitude="36.082376"/>
  </g>
  <g>
    <path id="MT_NO" d="M291.9,219.5v2.2l-6.3.9-2.5,3-2.8.4-.7-.9.4-2.2,1.4-1.3h2.8l3.5-2.2h4.2ZM240.7,170.7l1.8,3,1.8.9.7,2.6,1.8,1.3v4.3l2.5.4,2.5,2.6.4,3.5-5.3,3.5h-6.7l-1.8,2.2h-1.4l-.7,1.3.7,1.7-4.9,3.5-2.1,3-10.2,5.6-1.1,1.7.4,3.5,2.1,4.7,1.8,1.3,17.2-2.2,6-1.7,1.1-1.3,5.6-1.7,2.5-1.7,1.4,1.3-.4,1.7,1.8,2.6h2.5l.4-1.3,3.2-1.7,2.5,3,3.5-.4,2.5,1.7h1.4l1.1-1.7.7.9h3.2v1.7l-2.5,2.2,2.8,3-2.8,4.3,1.4.9.4,2.6-1.1,1.3h-3.2l-2.1-1.7-2.1.4v1.7l2.1.9-.7,3-2.1,2.6-1.4,4.3-2.8.9-.7,2.2-2.5,1.3-.3,3.5,2.8.4,3.2-1.7h2.1l.7-1.7,2.1-.4,1.1-1.3,5.6-1.3,1.1-2.2,2.5.9-.4,1.3h4.2l.4-1.3,2.1,1.3.7-1.7,2.8.9.7-.4v-3.5l2.1-.9h4.6l.7-1.3,2.5-.4.7-3.9,3.9-3,3.2-.9,2.8-2.2h6.7l.4,2.2-4.9-.4v3.9l-2.5,4.3.7,4.7-3.2,4.7-1.4,5.6h1.1l.7-3,2.1-3,1.1-.9h2.8l2.8-3.5,1.4-.4,2.1-5.2,1.8-.4,1.1,1.3,2.8-.4,4.9,3.9h4.6l1.4,2.6,2.1,1.3-1.1,2.6,2.8,1.7,1.4,4.3,3.2-.9-1.1-.9.4-3.9,2.8-.4,2.1,4.3v6.9l1.4.4.7-2.2,1.4-.4.7,3.9,2.1,2.6,12.6,2.6.3-1.3,5.6-2.6,3.2,2.2,5.3,1.3.7.9-.4,3,3.5,1.3.7,1.7h2.8l1.8,1.3h0l-1,4-3.8,2.4-1.7,3.3,2.9.9,1,9.7-1.5,2.1h-8.1l-4.2,5.4-6.3.2-3.5-2.6-3.5-1.2-2.9.2-1,3.3h-1l-5.4-5.9-6.9-.7-4,2.6.6,8.5-.8,5.9-1.2,2.4-6,.7-5.6-2.1-1.2.5-4.4,5.7-.2,5.7-1.3.2-7.7-6.6-14.2,1.2-1.9,1.2-7.1,12.5-.2,3.3,1.3,1.4.8,3.5,4,5h0l-1.2,10.9,2.1,4.5.2,7.3,2.5,3.3v1.7l-7.7,6.8-3.1,1.6-2.5.5-3.1-2.1-5.6.2-1.5,5.4-2.5,3.5-1.3,5.7-5.8,6.4-.2,3.8-1.2,1.5h0l-4.2-.4-1.8-1.7-4.2.4-5.3-4.3-1.8-3.4-5.3-1.3-3.9-4.7-7.7-5.2-2.5-5.6-2.1-1.7-.7-2.6-1.4-1.3-3.5-.4-2.5-1.7.7-.9h-1.1v-.9l2.5-2.6-8.4-.4-7-4.7-1.1-3.4-3.2-2.6-3.5-4.7,1.4-8.6-3.5-10.8-3.9-2.6-3.2-4.7v-3l2.1-2.2.4-2.6-2.8-4.3v-3l7.4,1.7,8.4-.4-.4-1.7-2.1-.4-1.1-2.6.7-.9-.4-1.7-3.2-1.7-.4-2.2-2.8-.4-1.1-5.6,1.1-7.8,1.4-1.7h3.5l2.5.4,3.2,4.3h1.4l.4-1.3,1.1.4-.7-3,.7-4.7-5.3.4-1.1-3.9.4-1.3,7.4.4.7-1.3h-2.5l-.7-1.7v-2.6l2.5-1.3-.7-1.7-5.6.9-2.5-2.6.7-.9-.7-.9-3.2-1.3-6.7-.9-2.1-4.7.7-4.3,3.5-2.2h5.3v-4.7l2.5-1.7v-3.5l4.2-2.6v-1.3h-2.5l-1.4-1.3.7-3.5-1.8-3h2.1l.4-1.3-4.6-2.2-.7-2.2.7-1.3h2.1l.7-2.2-1.4-2.2-.7-4.3-9.1-.4-3.2,2.2h-3.9l-4.2-2.2-1.8-3.5,2.1-2.2.7-3.9,1.8-3.5,2.5-2.2h3.9l3.5-6.5h1.8l.3.9,1.4-.4.7-3-7.7-2.6,1.1-5.6,2.1-.4-.4,2.2-1.1.9,1.4,1.7,6.3-.9,4.2,2.2h2.1l1.1-1.3,2.5-.4,4.9,2.2-1.1-2.2.7-1.3h4.2l2.5,2.2,1.1-7.3h3.9l1.1.4.7,2.6h3.2l1.4-3.9,5.6.4.4-.9-3.5-1.7-.4-4.3,1.8-1.7,4.6,1.7-.4-3,1.4-.9Z"/>
    <path id="MT_CE" d="M394.4,276l2.5.4,2.1,3-2.8,2.6.4,1.3,1.8-.4,1.4.9,1.8-1.3,1.4,1.3-2.1,1.7v3h1.4l-.4,6.5-3.2.4v1.3l1.4.4v1.7l2.1,1.7h1.8l1.4-.9v-3.9l1.1-.4,5.6,2.2,3.5,3,2.5.9-.4,4.3,3.2,1.3,1.4,3.9,4.9,1.7.4,1.7-2.5,1.7h-2.5l-5.3-2.6-.4-1.3-2.5-1.3h-3.5l-5.6,3-.7,2.6,7.4-.9,4.6,1.7-.4,3.9-2.8,1.7-3.2-.4-.7-1.3-2.8-1.3h-3.5l2.5,3.4h1.8l1.1,1.3v3.9l-3.2,1.7v3h0l-1.1,5.4h0l-5.4,3.1-3.3-1.6-1-2.4-5.2-.9-2.9,5.7-1.5.2-4,5.4-1.2.2-4.2-3.3-9-2.4h-4.6l-7.3-3.8-1.5,1.2-1.3,5.9-1.7.9-5.8-.9-5,.9-3.1-.7-7.5.5-10.6,6.4-2.7-.2-7.1-2.8-3.6.7-6.1-2.1h0l-4-5-.8-3.5-1.3-1.4.2-3.3,7.1-12.5,1.9-1.2,14.2-1.2,7.7,6.6,1.3-.2.2-5.7,4.4-5.7,1.2-.5,5.6,2.1,6-.7,1.2-2.4.8-5.9-.6-8.5,4-2.6,6.9.7,5.4,5.9h1l1-3.3,2.9-.2,3.5,1.2,3.5,2.6,6.3-.2,4.2-5.4h8.1l1.5-2.1-1-9.7-2.9-.9,1.7-3.3,3.8-2.4,1-4Z"/>
    <path id="MT_SO" d="M461.4,434.2l.2-4.6-2.7-3.1-1.3-4.5-6.5-6.8-7.3-2.6-1-3.5-1.2-.5-.6-3.5-6.7-9.4-5.6-11.1-7.5-2.8-4.6-3.5-3.7.5-5.8,2.8-1.3,1.9-2.7.2-1.5-5.9-4.4-.9-2.3-3.1-4.6-1.7-2.9-2.6v-1.4l2.7-1.2-5.4-5,.8-2.6,5-7.3,4.4-2.8,4.4-.5,2.9-3.3h2.1l1-.9,1.3-3.8-2.5-1.9h0l1.1-5.4h0l2.5-.4,2.1-3h1.8l1.1-1.7h1.4l1.4-2.6h1.4l1.1-1.7,3.2-.4,2.5-2.6,3.9.9,3.5-2.6h2.1l-1.4,9.1-1.4,1.3h-3.2l-1.1.9-2.5,3v1.7l-2.5,1.3-2.5,6-2.1,1.7-3.2.9-2.1,3.5-3.2.9,1.1,2.6h2.1l2.1-2.2h1.1l1.1-2.6,5.3-.9,2.8-1.7,2.1,1.3,1,3h1.1l1.1,3.9.3-2.6-4.2-10.8,4.6,1.3,3.2,4.7h1.4l-1.4-5.6-1.8-1.7.7-1.3,3.2,3.9,6.7,1.7v-.9h-1.8l-2.8-4.3,1.8-2.6,2.5-.4-3.5-3.5.4-1.7-1.1-3,1.1-.9,3.2,1.7,1.1,2.6,1.1-1.3h2.8l2.5,1.7h1.8l2.1,2.2,3.5-.4,1.8,1.3h2.1l7.4,8.2,5.3,1.3,3.2,5.2h1.8l1.8,1.7.4,3.5,4.2.4,4.2,2.6,7.7,9.9,2.1.9,2.1,5.2,3.9,3-.3,1.3h-3.9l-1.4,1.3-4.2-.9-2.1,2.6h-4.2l-1.4,1.3v1.3h1.4l.3-.9,4.9-.4.3-1.3,2.8-.4,4.2,2.6,1.8,2.6,2.8.4v.9l-4.2,3-2.1,3.5-2.8.4-3.2,2.2.4.9h-2.5l-1.8,1.7-.4,2.6,1.8,1.7,1.4.9,6.3.4-.7,3h-1.1l-.3,1.3h-1.4l-.7,3.5h1.1l1.1,2.2,2.8,1.3,1.8,2.6v1.7l-4.2,2.2-3.2-4.7-4.6-.9-2.1,2.2,1.4,3.5h-3.2l-1.1,1.7.7,3,4.6,1.3.3.9-2.5,3.9.3,2.6,2.1,2.6-.3,3.4-1.1.4-.4,3.5-2.8-.4,2.8,2.2v1.7h-2.5l.7,4.3h-2.8l-1.1-1.7-.3-3.9-2.5-3,.7-5.6-1.8-1.3-4.9-13.4-2.1-2.2-6.7-1.7-.4,1.3,1.4,4.3h1.4l-.7,2.2,1.4,3.5-2.1,3.9-3.5.9Z"/>
    <path id="MT_SE" d="M404.1,338.8l2.5,1.9-1.3,3.8-1,.9h-2.1l-2.9,3.3-4.4.5-4.4,2.8-5,7.3-.8,2.6,5.4,5-2.7,1.2v1.4l2.9,2.6,4.6,1.7,2.3,3.1,4.4.9,1.5,5.9,2.7-.2,1.3-1.9,5.8-2.8,3.7-.5,4.6,3.5,7.5,2.8,5.6,11.1,6.7,9.4.6,3.5,1.2.5,1,3.5,7.3,2.6,6.5,6.8,1.3,4.5,2.7,3.1-.2,4.6h0l-1.4-.4-3.9-5.2-5.3,1.3h-4.2l1.1,1.3-1.4,2.2h2.8l1.1,5.2-1.1,1.3-5.6.4,1.8,5.2,1.1.4v2.6h1.4l.7-1.7,3.2-1.3,6.7,7.3,3.2.4-1.1-2.6-2.1-1.7-1-3h5.3l4.2,3.9.3,3.4,3.2-1.7h.7v1.3l-1.4.4-3.9,4.7-2.5-3-1.1,6.9-4.6,3v1.3l-2.8.9-1.8,1.7h-2.8l-2.5,2.2-11.6-.9-1.4-.9-6.7,1.3-6-1.3-1.8-1.7-3.2-.4-6-3.9h-1.4l-.3-1.3h-2.5l-1.1-1.3-3.5-.4-2.1-1.3-7-.4-.7.9h-3.2l-2.8-1.3-1.1-1.7-2.1.4-.4,1.3-3.2-.9-.3,1.3h-3.9v-1.3h-1.4l-.4-.9-2.5.4v-.9h-2.5l-4.6-4.7-6.7-.4-3.9-1.3-.3-.9-.4.9-1.4-.4v1.3l-1.1.9h-3.9l-14-6.9h-1.8l-1.4,1.3-5.6-5.6-9.5-.9-3.9-1.3h-4.9l-4.2-2.2-2.1-4.7v-3l-7.4-1.3-6-2.6-1.4,1.7-1.8-2.6-1.8-.9.3-.9-4.2.4-2.1-1.3-1.8-6-3.2-.4-2.8-4.3h0l1.2-1.5.2-3.8,5.8-6.4,1.3-5.7,2.5-3.5,1.5-5.4,5.6-.2,3.1,2.1,2.5-.5,3.1-1.7,7.7-6.8v-1.6l-2.5-3.3-.2-7.3-2.1-4.5,1.2-10.9h0l6.1,2.1,3.6-.7,7.1,2.8,2.7.2,10.6-6.4,7.5-.5,3.1.7,5-.9,5.8.9,1.7-.9,1.3-5.9,1.5-1.2,7.3,3.8h4.6l9,2.4,4.2,3.3,1.2-.2,4-5.4,1.5-.2,2.9-5.7,5.2.9,1,2.4,3.3,1.6,5.4-3.1Z"/>
    <path id="MT_GO" d="M181.8,145.7l2.1,2.2v1.7l1.1.4v2.6l-2.5-2.6-3.5.9-2.5-2.6v-1.7l5.3-.9ZM205.3,137.5l1.8,2.2-.7,2.2,2.5,3h3.9l6.7,7.3,1.1,2.6-2.1,3-.3,2.2-4.2-.4-6,1.3-.4.9-2.5-.4-.7.9-4.9-.9-1.4.9,1.1.4-.4.9-8.1-.4-2.8,1.3h-2.8l3.5-4.7,3.2-2.2.4-1.7-.4-1.7-2.1.9-1.1-.9-.4-2.2-2.1-.9-1.8-4.3,1.1-1.7-2.5-2.2,1.1-3,4.6.9,1.4-2.2h2.5l1.1,3,1.1-3h2.1l2.5,1.7,2.5.4,1.1,2.2v-4.8l2.8-.4ZM76.2,41.2l2.1,1.7h3.5l3.2,1.3,6.3-.4.7.9h3.5v1.7l-1.4.4v1.3l1.8,1.3,7,.9.7,3-1,2.2.3,1.7h2.1l1.1-3.5.7.4.4-.9h3.9l1.8,1.7h2.1l5.6,6,.4,3.5,1.8,2.2,4.6,1.3.7,2.6,4.2,1.3,1.1,2.2,3.5-.4,3.9-6.9,3.5-.4,1.1,2.2h1.4l1.4,4.3,1.4,1.3,3.2.4,3.9,5.2,2.8-.4,4.2-2.6,6.7.9,1.1,2.2.7,8.2,2.5.9.4,3.5h2.1l1.8-1.7,4.9,1.7,2.8,5.2,13.3,13.4,2.1,3.9.7,4.8-2.8,2.6-5.6.9-2.5,3-6,.4-3.2,3.9h-6l-1.8-1.7-2.8-.4h-3.2v.9l-2.8.4h-2.5l-2.1-1.7h-1.4l-1.4,1.7-2.8-.9-.7,2.6,2.8.4-10.9,8.2h-3.2l-1.1-.9-1.8.9-.4,2.2-2.5.9-7.4-.4-1.1,2.6-8.8-1.7-3.2,3-7.4,2.6-2.8,2.6v1.3h-1.1l-3.5-4.3h-4.6l-3.2-6h-7.7l-1.8-1.3h-8.4l-1.4-1.3h-4.6l-1.4-1.7-2.1.4-2.1-.9v-.9l-4.6.9v.9h-2.1l-.7,1.3-3.5-1.7.4-1.3-2.8.9-2.1-3.5h-1.4l-.7-2.2-4.6-4.8v-3.9l-4.2-3.9-4.2.4,1.1-.9-3.2-1.7h-6l-1.4,1.7-1.8-.4-3.2.9v-.9l-1.1.4-4.6-3-1.8.4-2.5-3v-2.6l3.9-4.3-.7-2.2.7-3.9-1.8-5.2.4-1.3,2.1-.4.4-1.7-1.1-1.3h-1.4l-.7-4.8,4.6-4.8.4-2.2-1.4-6.5-4.6-2.2h-2.8l-.4-.9-1.1-12.1,1.4-4.8,3.9.9h7l1.1-.9,6,.4,2.8-2.2,2.1-3.9h4.2l4.6-2.2h4.9l6-1.3,1.8,1.7h2.5l1.8-3.5h2.1l3.5,2.2h3.2l1.1-2.6h3.5l1.1.9,4.5-.9Z"/>
  </g>
</svg>