<svg xmlns="http://www.w3.org/2000/svg" xmlns:amcharts="http://amcharts.com/ammap" id="Layer_1" viewBox="0 0 512 512"><g id="_x3C_defs"><amcharts:ammap bottomLatitude="45.462" leftLongitude="26.649" projection="mercator" rightLongitude="30.176" topLatitude="48.496"/></g><g><path id="MD-AN" d="m332.3 296.7.2-.6-.3-14.3-2.3-3.3-4.6 2.2 1.3-6.3-1-2-7.5-5.4.6-4.9 2.3-3-.6-2.2 3.2-2.6h8.3c0-.1 3.6 6.9 3.6 6.9l3.3-2.7 4.2-5.6 6.9-1.3-.2-8.2 3.9-3.5 1.2-4.1h1.3l7.9 6.9 1.6 4-2.2 7.2 1.3 2.6-.8 1.3-6.7-1.3-.4 4 3.8 4.2 4.3 1.8 7.1-3.9 5.3 3.2-.3 2.3-1.4 2.2.7 2.4 1.6 3.7-1.1 2.2-.7-1.9-1.7-3-6-.6-.6 1.1-.7 1.6-1 4.3 2.4 4.1 1.4 3.8-11.4-.3-4.9 4.2-4.3 1.1-3.2 3.2.8 7.9-5.2-1.5-1-1.8-2.9-3.4-5.5-.6Z"/><path id="MD-BA" d="m185.1 126.5.8-1v-.3l8.4 2-1.4-3.7 2.3-2.6 3.7-.2.4-.6 1.2 2.5 5.1 2.9 5-4.6 3.1 4.1v3c.1 0-2.4 2.3-2.4 2.3l2.4 2.1-.5 2.5-4.9-1.6-7.6 2-1.1.5h-6.7l1.6-4.1-8.8-3.1-.5-2.2Z"/><path id="MD-BD" d="m378.4 286.8-1 1.7-7.6-1.2-1.2-3.1-2.4-4.1 1-4.3.7-1.6.6-1.1 6 .6 1.7 3 .7 1.9 1.2 8.1h.5Z"/><path id="MD-BR" d="m115.2 25.4 6.6 2.4-2.1 5.6 6.6 4.6.7 2.1-1.6 5.1 1.4 3.3-2.3 2.1-2.7-.4-1.3 2.6-6.8-3 .4-5.3-4.1.6-3.1 3.3-.6 11-6.3 7.4-2.5 1.7-2-1-2.4-2.6 4.2-1.8-4.5-1.4-.8-4.4-2.7-1 .2 2.3-2.2.9-1.2-4.6-8.7-6.9-4.9-1.9-3.1 2.3-.6-3-3.3 2.5-.7-2.7-2.1 3.6-1.6-2.4-3-.7-1.2-3.7 2.8-4.1 3-.4v-5l1.8-1 5.4 7.5h4.7l.4-5.9-2.9-7.5 6.4-.6 1.6-4.4 11.9 9 5.4-3 3 2.4 1.3-.6-1.3-7.3 1.7-1.1 13 5.6Z"/><path id="MD-BS" d="m298.8 349.2-.8-3.5 7-3.6 7.5-7.7 6.4 1.1 3.4 5.9 2.6.8-1.3 2.4-8.3 3.2 1.6 8.3 4.2 8.9-1.1 5.1-3.8 3.4.9 2.6-7.2-1.8-4-3.4-3.4 1.3-.9 2.1-11.5.4-2-7.1h6l10.6-2.9 2.7-4.4-.7-2.3-5.2-3.4-2.6-4v-1.2Z"/><path id="MD-CA" d="M270.2 483.8v1.7l-10.2 2.7-1.2-11.4 5.8-2.4 2.7 1.7 3 7.9Zm-6.1-83.4v8.1h-.1l-6.4 2.6-1.9 9.2 1.2 11.8 4 4.9-1.3 1.8-.8.7h-1c0-.1-6.8.6-6.8.6l1.3 7.1 1.2 1.6 5.8 1.1 3.4 4.7 1.8-2.1 1.8 1.3v3.4l3.2 3.8-1.9 4.3-2.4.2-7.2.8-13.7-5-.8 10.9 1.6 3.3v6.3l-3 3.6 1.7 4.3 1 1.4-1.4 2.2-1.3 1-6.7 7.6-.4 4.4-2.5-.7-2.3-4.3v-6l-2.2-1.6v-3.5l-3.9-.6-5-4.4 4.4-5.5 3.9-.3 1.6-1.7-.8-4 1.6-3.2-2.9-10.2.5-4.1-2.2-1.2-2.7-7.2-.7-21.2-3.7-8.6.6-9.6 2-4.1 6.2-1.6 8.6 1.9 5-1.2 1.7 1.9 3.9 2.9 6.3-1.3 3.7.9 1.1-5.4 4.6-1.8 1.2-.8 1.4.8Z"/><path id="MD-CL" d="m266 186.3.3 10.1 5.6 2 1.2 1.3-.9 1-1.7.9-1.2 3.7-4.3.9-2.6 3.6-5.6 2.3-.4 1.2 3.7 1.2 1.4 4.9-1.1 4.4-3.4.3-2.1 3.1-7.9 3.8-7.8-.3.3-.4-7.3-3.3h-3.9c0-.1-3-3.4-3-3.4l-6.1-1.7-1.2-3.6-4.1-2.6 4.8-5 4.1-7.8 8.3-6.9.7-8.6.5-1.5 2.2.4 16.1 3.6 13.7-3.1 1.8-.6Z"/><path id="MD-CM" d="m286.6 297.4 7.4 1.4 4.7 6.7h2.7c0-.1 2.3-7 2.3-7l3.2-2.2 5.4 3.5 1.3 3.4-.9 4.4h.4l3.5 9.8 1.1 3.3h3.1l6.1-3.6 2.1 2.1-1.4 16.2.9 1.8-1.7.2-2 4.7-2.6-.8-3.4-5.9-6.4-1.1-7.5 7.7-7 3.6.8 3.5v1.4h-5l-14.2-5-4.1-3.1-3.9 1.7-4.7-2.6.8-.6 3.9-4.9-.3-4.9 2.7-5.1-1.4-15h2.6l1.9-2.4-.3-5 1.9-4.7 2.2-.2.9 2.2h1.5c0-.1 2.3-2.8 2.3-2.8l1.2-.9Z"/><path id="MD-CR" d="m350.7 241.4-.8 10.1-6.9 1.3-4.2 5.5-3.3 2.7-3.5-7-6-.4-7.2 3.3-1.3-2.2.9-4.3 6.3-1.9 7.8.7 2.1-3.1-.7-2.5 11.1-12.4 5-2.3 3.3.9 3.4 4.8-.6 1.1h-1.3l-1.2 4.1-2.9 1.7Zm-28.9-34.9 2.8 4.8 4 1.4-1 3.3 7.5 1.3 7.2-2.9 6.1 3.8-6.1 3.3-2.1 5.5-2.9 3.6-4.4 1-4.3 7.5-1.1.3-1.1.7-8.8 2.1-6.1-1.3-2.1-7.9-5.4 1-.8 4-1.3.3-1.2-2.3-6.7-2.1 3.5-2.7.4-2.8-1.3-2.5 1.7-12.6 9.2-1.1 6.2-3.2 3-1.3 5.1-1.3Z"/><path id="MD-CS" d="m369.8 287.2 7.6 1.2 1-1.7h.4c0 .1 3.8 3.9 3.8 3.9l4.9.4 1.4-.4 1.7-6.9 2.8 1.2.2 2.1 4.8-.2.3 5.5 3.8 8.2-4.4 8.5h-.4l-1.1 3.5-3.5.8-2.1 2.7h-5.8c0 .1-5.2 4.7-5.2 4.7l-3.8-1.4-6.2 4.9 3.1 3.3-5.6 3.3.3 3 5.2 6-4.6 4.3-1.1 6.1-2 .5-3.7-8.8-3-.8-2.6 3.9 1 8.1-4.8.5-3.6 6.3h-3.1l-1.6-1.8 3.6-8 .8-18.7-1.9-2.4-3.7.4-3.1 6.3-11.2 1.3-.9-1.8 1.4-16.2-2.1-2.1-6.1 3.6h-3.1l-1.1-3.3-3.5-9.8 6.3.5 1.9-1.9 7.5-4.7 3.1-3.8 2.7-1.8 6 4.7 1 1.8 5.2 1.5-.8-7.9 3.2-3.2 4.3-1.1 4.9-4.2 11.4.3-.2-.7Z"/><path id="MD-CT" d="m220.5 404.2 3.2-12.8-3.1-8.7 2.2-1.9-.3-3.1 5.7-3.6 2.5-4.2-2.5-5.4 5-9.8 10.5-.3 3.4 3.3 5.5 1.2 2.2-2.3-.7-3.2 5-2 1.2 3-1.8 3.7 6 4.4h.3l-2 7 6.9 4.1v6.6l-1.8 7.8-5.1-1-2.9 2.7 2.3 9.8h.2c0 .1-1.2.9-1.2.9l-4.6 1.8-1.1 5.4-3.7-.9-6.3 1.3-3.9-2.9-1.7-1.9-5 1.2-8.6-1.9-6.2 1.6Z"/><path id="MD-CU" d="m328.4 239.4-.9.3-1.1.7-8.8 2.1-6.1-1.3-2.1-7.9-5.4 1-.8 4-1.3.3-1.2-2.3-5.2-2.1H294l-.4 2.9-1.3 2.8-6.2 1.1-3.6 2.3-1.3 3.9 1.4 3.2c0 .1 9.7 8.4 9.7 8.4l.7 3.3 10.2 4.6 1.2 7.8 2.8 3.8 5.4.3 9.7 5.1 2.7-.7.4-2.3 1.3-6.3-1-2-7.5-5.4.6-4.9 2.3-3-.6-2.2-2.8-.2.7-6.2 6.3-1.9 7.8.7 2.1-3.1v-1.7c.1 0-5.4-4.4-5.4-4.4l-.6-.5Z"/><path id="MD-DO" d="m149.3 56.1 2.2-6.2-.7-5.8 4.4-5.5v-4.7c-.1 0 11.7-.7 11.7-.7l7-4.4 9.5 4.3 6-7.1 8.1-.6 1.7 5.9-5.7 4.5-.7 2.6 8.5 5.4-3.7 4.1-4.3 1.1-2.8 1.3-9.7 5.4-4.7 10.8-8.4 6 6.8 7.5-1.7 2.7h-3.6l-1.1-2.3-4.8.6-7.8-4.3v-.3l-1.8-1.7v-13c.1 0-4.1-3.6-4.1-3.6l-.3-2.1Z"/><path id="MD-DR" d="m211.4 91.1 2.9 7.8-2.6 6.7v1.4l-4.7 8.8-2.7-3-4.6 4-1.6 1.7-1.7-2.1-8.7.4-10.7-12.5-7.5-1.7-2.6-2.3-2-10 4.1-2.8.9-4.8h2.8l1.7-2.7-6.8-7.5 8.4-6 4.7-10.8 9.7-5.4 1.8-.8 4.1 6.8 7.8.7 9.7 9.5 4.4 7-2.7 8.3h-3.3l-3.7 4.6 2.1 4.8h.5Z"/><path id="MD-DU" d="m349.9 228.8-5 2.3-11.1 12.4-4.7-3.6-.6-.5h.2l4.3-7.6 4.4-1 2.9-3.6 2.1-5.5 6.1-3.3 4.7-.6 7.5-5.7 2.1.3-2 3.9-3.4 1.4-2.2 4.9-5.3 3.7v2.4Zm-7.4-29.6 13.7-3.2 4.1-3.3.9 2.1-16.3 9-2.4 4v4.3h.1v2.5h-.1l-7.2 2.9-7.5-1.3 1-3.3-4-1.4-2.8-4.8 3.6-1.8.7-2.6-3.4-5.8.3-2.2h4.4V192h.1l3.3-2.6 2.1-.7 3.1 2.3 6.4 8.2Z"/><path id="MD-ED" d="m126.4 38.3 2.5-5.8 8.7-3.1-1.1 10.4 1.6 6.1 7 7.5 4.3 2 .4 2.8 4.3 3.6v13c-.1 0 1.7 1.7 1.7 1.7v2.4h-.1l-9.7 8.3-6.3-1-1.6 3.4-2 .6-3.8-3h-3.6c0 .1-3 2.1-3 2.1l-2 7.7-2.3 2.7-3.7 1-3.1-3.9 1.5-4.2-3.9-1.6 1.2-2.4-5.2-.3 1.5-4.2-3.5-.6-.5-2.7-4-3 .4-8.7-2-2.4 6.3-7.4.6-11 3.1-3.3 4.1-.6-.4 5.3 6.8 3 1.3-2.6 2.7.4 2.3-2.1-1.4-3.3 1.6-5.1-.6-1.9Z"/><path id="MD-FA" d="m164.4 197.2-3.3-1.4 2.2-5.5-2.7-2.2 1.7-6.3-3.9-3.7-1.9 1.1-6.2-3.6-4.9-13.7 12-9.3 7.6 1.4 8.2-15.7 4.6 2.7 2.6-1.2 2.9-5.1.9-7.1.8-1.1.5 2.2 8.8 3.1-1.6 4h6.7l.6-.2 2 3-2.8 3.5.7 1.9 8.3 10.3-5.1 2.8-.8 6.3-5.5 4 .8 2.4h8.3l-1.4 7.3-3.4 1-4.9-.9-2.8 8.2-11.8.2-8.8 4.2-4.2 6.6-4.3.7Z"/><path id="MD-FL" d="M213.2 91.1h13c0 .1 8.1 2.6 8.1 2.6l7.3-3.8 5 2.3 11 .6 3.8-4.7 8.1-5.5.9-2.3-5-4.1 2.2-7.7 2.5-.6 3.3 1.1 1.9 3.6 6.3.7 1.6 2.9-3.6 2.3-2.3-1.5-.7 3.2-6.2 5.1.4 1.4 4.6 2.9 3.9-5.5 3.3.4 3.6 1.7 6.3 7.9-1.9 1.7-.3 3.7-4.2 3.3v5.1l-5.7 1.8-.8 4.1h-4.2c0 .1.8-3.9.8-3.9l-4.6-3.2-10.8 4.8-1.4 5.7-2.4 1.4v4l4.8-.9 2.7 1.3 3.8 12.9-1.6 1.4-3.1 1.7-1.2 3.3-5.7-2-3 2.6-1.1-1.1-20.8-15.4-19.8-19.1V106l2.6-6.7-2.9-7.8h1.8Z"/><path id="MD-GA" d="m250.3 464.2 7.8 1.8 7.2-.8h1.5l-2.3 9-5.8 2.4 1.2 11.4 10.2-2.7-4.4 3.1 2.1 7.3-6 2.9-19.8-3.3V494l1.3-1 1.4-2.2-1-1.4-1.7-4.3 3-3.5v-6.3l-1.6-3.3v-10c-.1 0 2.3-1 2.3-1l4.3 3.3Zm42.7-25.1 1.2 5.4-8.9 5.3-1.3-.9-7.2 3.1-2.6.4-6.1-6.2.3-2.6 15-3.4 9.5-1.1Zm-28.6 0-.7 2.7-1.4 1.1-3.2.6-1.3-3 1.1-1.1.8-.7 2.2-1.2 2.6 1.7Zm2.5-97.4 4.7 2.6 3.9-1.7 4.1 3.1 14.2 5h4.9v-.2l2.7 4 5.2 3.4.7 2.3-2.7 4.4-10.6 2.9h-6l2 7.1 11.5-.4.9-2.1 3.4-1.3 4 3.4 7.2 1.8.4 2 4.5 3.1-7.9 7.8-2.6 4.3.2 3.2 1.6 6.9-2.8 1-5.4 4-.7 4.9 3.1.4.8 4 .5 4-10.4 2.2-4.7-8.6-1.3-1.8-2.9-1.2-3.2 1.3-.7 2.2 3 8.8-1 1.8-6.8.3-6.9 4.9h-2.4c0 .1-6.1-3.8-6.1-3.8l-.4-3.2 1.7-.6h4c0 .1.7-1.4.7-1.4l-1.2-2.7-5.8-1.8 2.9-2.7 1.6-4.7-1.3-3.4-2.6 1h-.9l.2-2.4v-5.7h-.1l-1.7-.9-2.3-9.8 2.9-2.7 5.1 1 1.8-7.8v-6.6l-6.9-4.1 2-7.1h1.6l5.3-1.9.7-2.3-1-4.6-5.7-6.6.4-5.2.5-.3Z"/><path id="MD-GL" d="m145.4 161.8-3.7-1.8-2.9-6.1-7.4-6.5V145c.1 0-4.3-5.6-4.3-5.6l3.9-2.9v-5.8l5.7-7.9 1.1-4.3 5.6 1.3 8.1-5.7 16.4 5.2 11.4-3.8 6.6 8.7v1.1h.1l-.8.9-.8 1.1-.9 7.1-2.9 5.1-2.6 1.2-4.6-2.7-8.2 15.7-7.6-1.4-12 9.3Z"/><path id="MD-HI" d="M243.4 244.9h2.9c0 .1 4.8 3.7 4.8 3.7l3.3-2 2.7 1.2 3.3-2.1 1.7 1.2 2.6.6 7.1 19.3 2.2.2 7.4 9 4.9-1 4.3 7.2.4 2.9-2.9 3.6 1.7 5.7-2.8 2.8-1.7 1.3-2.3 2.7h-1.5c0 .1-.9-2.1-.9-2.1l-2.2.2-1.9 4.7.3 5-1.9 2.4h-6.1l-6.7.4-6.8-5.9-6.6 3.4 1.8 4-1.6 8.3h-5c0 .1-4.6-5.5-4.6-5.5l-5 1.3-6.3-16.2-1.1-8.1-5.6-8.5-2.1-11.9 2-1.6.8-2.4 4.7 3.2 1.7-1.6 7.3.4-.7-12.4 7.7-2.8.3-10.6v-.2Z"/><path id="MD-IA" d="m325.3 280.6 4.6-2.2 2.3 3.3.3 14.3-.6 1.8-3.1 3.8-7.5 4.7-1.9 1.9-6.7-.4.9-4.4-1.3-3.4-5.4-3.5-3.2 2.2-2.3 6.9h-2.7c0 .1-4.7-6.6-4.7-6.6l-7.4-1.4.5-.4 2.8-2.8-1.7-5.7 2.9-3.6-.4-2.9-4.3-7.2-4.9 1-7.4-9-2.2-.2-7.1-19.3 2.2-1.3 1.1 3.4 8.1 7.7 2.3-.7v-4.8l3.3-.3.6-1 9.7 8.3.7 3.3 10.2 4.6 1.2 7.8 2.8 3.8 5.4.3 9.7 5.1 2.7-.7.4-2.3Z"/><path id="MD-LE" d="m233.3 354.7 2.5-4.9-.6-6.4-4.3-7.3 2.4-4.7 1.5-14 5-1.3 4.6 5.7h5c0-.1 1.6-8.4 1.6-8.4l-1.8-4 6.6-3.4 6.8 5.9 6.7-.4h3.5l1.4 15-2.7 5.1.3 4.9-3.9 4.9-1.3.9-.4 5.2 5.7 6.6 1 4.6-.7 2.3-5.3 1.9H265l-6-4.4 1.8-3.7-1.2-3-5 2 .7 3.2-2.2 2.3-5.5-1.2-3.4-3.3-10.5.3Z"/><path id="MD-NI" d="m213.9 215.6 4.1 2.6 1.2 3.6 6.1 1.7 3 3.3h3.9c0 .1 7.3 3.4 7.3 3.4l-.7.9-.9 3.8h-2.8c0-.1.2 1.4.2 1.4l7.3 4.7 1.4 2.7-.9 1.3-.3 10.6-7.7 2.8.7 12.4-7.3-.4-1.7 1.6-4.7-3.2-.8 2.4-2 1.6-1.7-13.4-3.2-3.4.2-5.3-2.4-4.1-8-6.1-1.2-3.7-.4-4.8 3.8-5.4-.9-6.7 8.3-4.2Z"/><path id="MD-OC" d="m161.1 11.3.3 1.4 10.4 4.1 5.7-3.7 7.8 1 9.4 6.7 2.8 4.6-8.1.6-6 7.1-9.5-4.3-7 4.4-11.8.7v4.7c.1 0-4.3 5.5-4.3 5.5l.7 5.8-2.2 6.2v-.7h-.1l-4.3-2-7-7.5-1.6-6.1 1.1-10.4-8.7 3.1-2.5 5.8V38l-6.6-4.6 2.1-5.6 3.8-1.3 3.9-8.9 5.1-4.7 6 .8 2.8 3.4 6.8-5.6 5.5-1.3 2.4-4.3 1.6-.2 3 2.1-1.5 3.4Z"/><path id="MD-OR" d="m332.9 188.7-2.1.7-3.3 2.6v2.3c-.1 0-5 1.1-5 1.1l3.5 6.9-.7 2.6-8.7 3.1-3 1.3-6.2 3.2-9.2 1.1-1.8 12.7-6-1.9-1.9-6h-2l-3.8-6.6-3.2-2.4-1.2-6.1-5 .3-2.6-2.1 1.3-.7.9-1-1.2-1.3-5.6-2-.3-10.1 1-.3 3.8-2.6-.9-4.9 2.6-3.8 8.5-5.8 7.2-2.1-1.4-6.8 2.1-4.3.4-.3 7 8 3.7 2 5.1-.7 7-5.3 7 5.7-.3 4.6 5.1.7 3.8 4.4 4-.6 5 5.7-4.1 7 .4 1.8Z"/><path id="MD-RE" d="m279.3 140.9 1-.9 4.5-5.7 11.5 1.2-1.2-7 1.1-1.8 7.8-.8 6.8-6.3 4.3-8.5 4-.6 3.3 4.2-1.7 13.3.4 29.8 4 3.6v9h-1.4c0-.1-5.1-.8-5.1-.8l.3-4.6-7-5.7-7 5.3-5.1.7-3.7-2-7-8-.6-1.2-11.9-9.1 2.4-4.2Z"/><path id="MD-RI" d="m130.3 132.3-5.5-5.8-2.2-4.9 2.7-1-.6-2.6-3.3-1.2 1.2-1.9-1.6-3.1.9-4.1-7.2-3 3.1-4.1 3.7-1 2.3-2.7 2-7.7 3-2h3.6c0-.1 3.8 2.8 3.8 2.8l2-.6 1.6-3.4 6.3 1 9.7-8.3v-2.1h.1l7.8 4.3 4.8-.6 1.1 2.3h.7l-.9 4.8-4.1 2.8 2 10 2.6 2.3 7.5 1.7 10.7 12.5 8.7-.4 1.7 2.1h.1c0-.1 1.1 1.3 1.1 1.3l-.5.8-3.7.2-2.3 2.6 1.4 3.7-8.4-2v-.7l-6.6-8.7-11.4 3.8-16.4-5.2-8.1 5.7-5.6-1.3-1.1 4.3-5.7 7.9-.7 1.5Z"/><path id="MD-SD" d="m267.7 135.9.3-.3-3.8-12.9-2.7-1.3-4.8.9v-4l2.4-1.4 1.4-5.7 10.8-4.8 4.6 3.2-.8 4h4.2c0-.1.8-4.2.8-4.2l5.7-1.8v-5.1l4.2-3.3.3-3.7 1.9-1.7 6.4.2 4.7 7.9-.3 4.6 8.3 1.4 3.7 3.2-4.3 8.5-6.8 6.3-7.8.8-1.1 1.8 1.2 7-11.5-1.2-4.5 5.7-1.1 1-5.2-4.6-6.2-.6Z"/><path id="MD-SI" d="m200.7 178 .4.2 3.4-1 1.4-7.3h-8.3l-.8-2.4 5.5-4 .8-6.3 5.1-2.8-8.3-10.3-.7-1.9 2.8-3.5-2-3 .5-.2 7.6-2 4.9 1.6.5-2.5-2.4-2.1 2.5-2.3v-3c-.1 0-3.2-4.1-3.2-4.1l-5 4.6-5.1-2.9-1.2-2.5v-.3h.1l-1.1-1.4 1.4-1.6 4.6-4 2.7 3 4.7-8.8c0-.1 19.8 19 19.8 19l20.8 15.4 1.7 1.7.8 11.2-3.3 3 1.1 7.8-3 1.2-5.3-2.4h-10.3c0 .1-2.7-2-2.7-2l-3.2 1.5-2.4 3.7 2.6 12.2-1.2 3.4-9.3-1.7-2.8 2.7-6.1-4.2-6.9 1.6-1.1-3Z"/><path id="MD-SN" d="m365.7 192.5 1.6 4.1-1.6 1.7 1.5 6.7 4.4 1.2 5.6-1.1v-9c-.1 0 7-2.1 7-2.1l1.6.3 1.2 2.9 2 14.9-4.7 2.3 2.5 18.6-8.8.7 5.8 9.2 2.4-3.3 5.5.5 1.3 6.8-2.9 2.7v10.8l-4.2 1.4.5 1.3 1.3 1.6 6.2-1.8 1.7 5.6 6.7-1.6 2.6 2.8 2.1 7.3 2.7 1.3 7.9-1.5.8-2.3 3.1.7 1.4 4.3-1.3 1.4 2.8 4.7 4-3.5 3.4 2.2.4 1.2h-2.1c0 .1-2.1 2.9-2.1 2.9l4.3 8.8-.4 15.3-2.5 2.3 4.2 11.7-1.3 1.9-8.4 1.3-7.4-6-9.9-1-1-2.9 3.7-3.2.2-5.4-5.4.6-5.1-2.6-.9.2 4.4-8.5-3.8-8.2-.3-5.5-4.8.2-.2-2.1-2.8-1.2-1.7 6.9-1.5.4-4.9-.4-3.8-3.8-.9-.2-1.2-8.1 1.1-2.2-1.6-3.7-.7-2.4 1.4-2.2.3-2.3-5.3-3.2-7.1 3.9-4.3-1.8-3.8-4.2.4-4 6.7 1.3.8-1.3-1.3-2.6 2.2-7.2-1.6-4-7.3-8-3.4-4.8-3.3-.9v-2.4c-.1 0 5.2-3.7 5.2-3.7l2.2-4.9 3.4-1.4 2-3.9-2.1-.3-7.5 5.7-4.7.6-6.1-3.8v-2.6h.1v-4.3c-.1 0 2.3-4 2.3-4l16.3-9-.2-1.2 4.8-1Zm-91-132.8 13 4.9.6 2.9 7.9-1 2.4 2 3.2-1.6 3.8 1.8 1.8 3-1.7 11.5 8.6 12 5.3-2.2 6.1 6 5.3-.2 1.1-.5-.8-3.6 2.2 1.6-.7-3.6h4.4l-.4-2 4.3.9 3.8 17.6 1.7-1.3 5.9 1.2-7.3 10.4 2.3 4.2 2.1-1.4 2.5 1.1-1.5 7.6-3.8 2.3-1.1 3.5 2.8 5.7-2.7 7.2h2.9c0-.1-2.5 2.2-2.5 2.2l.8 2.6-3 6.5-7.6 2.5 3.9 8 3.5-.6v6.4c-.1 0-2.7 2.8-2.7 2.8l3.1-1.4-1 5.6 1.8.4 4.7-4.8.7 7.5 2.8-3.2 5.1-2.2 1.9 10.8-2.2 2.5-15.5 4-4.2-6.3-5.4-4.2-.4-1.8 4.1-7-5-5.7-4 .6-1.7-2.3-.7-11-4-3.6-.4-29.8 1.7-13.3-3.3-4.2-16-4.1.3-4.6-4.7-7.9-6.4-.2-7.2-8.6-6-1.4-3.9 5.5-3.9-1.7-1.1-2.7 6.2-5.1.7-3.2 2.3 1.6 3.6-2.3-1.6-2.9-6.3-.7-3-4.2h-4.6c0 .1 1.2-2 1.2-2l-.9-2.9 5.1-3.9 1.8.3Z"/><path id="MD-SO" d="m200.9 33.6 14.1 1.3 3.5 1.6 1.7 3.9-.7 3.8-3.2 4.1 1.6 3 4.1-.8 5.3-5.7 3.3 1.2 1.1 5.8 2.9 1.9 2.8-.4 7-5.7 2.9 1.4 3.1-1.2 1.8 2.5v6.6l-1.9 3.8-3.9 1.7.7 4.2 5-.6 2.1-4 5-.9v12.3l3.8 2.9 2.3-.2 5 4.1-.9 2.3-8.1 5.5-3.8 4.7-11-.6-5-2.3-7.3 3.8-8.1-2.4h-13c0-.1-2.3-.1-2.3-.1l-2.1-4.8 3.7-4.6h3.3l2.7-8.3-4.4-7-9.7-9.5-7.8-.7-4.1-6.8 1-.5 4.3-1.1 3.7-4.1-8.5-5.4.7-2.6 5.7-4.5 1.7 2.3Z"/><path id="MD-ST" d="m296.6 226.2 1.3 2.5-.4 2.8-3.4 2.3-.4 3.2-1.3 2.8-6.2 1.1-3.6 2.3-1.3 3.9 1.4 3.2-.7 1.1-3.3.3v4.8l-2.3.7-8.1-7.7-1.1-3.4-2.2 1.3-2.7-.6-1.7-1.2-3.3 2.1-2.7-1.2-3.3 2-4.8-3.5h-2.9c0-.1.8-1.3.8-1.3L243 241l-7.3-4.7-.2-1.5h2.8c0 .1.9-3.7.9-3.7l.3-.4 7.8.3 7.9-3.8 2.1-3.1 3.4-.3 1.1-4.4-1.4-4.9-3.7-1.2.4-1.2 5.6-2.3 2.6-3.6 4.3-.9 1.2-3.7.3-.2 2.6 2.1 5-.3 1.2 6.1 3.2 2.4 3.8 6.6h2l1.9 6 6 1.9Z"/><path id="MD-SV" d="m423.9 329.4 6.3 5.6 5.4.4 1.6 5.3 6 7.8 1.6.3 1.7-2.2 4.8 3.3 3.7-.7-.3 3.2-10 6.1-11.7-.6-3.8-1.7-3.7 2.4-1.4 4.2-2.2.7-3.9-2.8-3.9-6.8-2.1-8.1-4.9-3.8.8 3.8-1.2 3-7.8-.9 1 9.5-3.7 2.7h-4.8l-4.2-2.7-1.1-6.9-6.6-1.5-2.5-7.6-3.8-1.8-5.2-6-.3-3 5.6-3.3-3.1-3.3 6.2-4.9 3.8 1.4 5.2-4.6h5.8c0-.1 2.1-2.8 2.1-2.8l3.5-.8 1.1-3.5 1.2-.2 5.1 2.6 5.3-.6-.2 5.4-3.7 3.2 1 2.9 9.9 1 7.4 6Z"/><path id="MD-TA" d="m271.3 422.7-.7 1.6h-4c0-.1-1.7.4-1.7.4l.4 3.2 6.1 3.9h2.4c0-.1 6.9-5 6.9-5l6.8-.3 1-1.8-3-8.8.7-2.2 3.2-1.3 2.9 1.2 1.3 1.8 4.7 8.6-6.5 3.4 1.1 11.8-9.5 1.1-15 3.4-.3 2.6 6.1 6.2 2.6-.4 7.2-3.1 1.3.9-.9 5-2.7 1.7-7.8.8-.8 7.5-5.5.2 1.9-4.3-3.2-3.8v-3.4l-1.8-1.3-1.8 2.1-3.4-4.7-5.8-1.1-1.2-1.6-1.3-7.1 6.8-.7 1.2 4.2 3.2-.6 1.4-1.1.7-2.7-3.4-2.2-4-4.9-1.2-11.8 1.9-9.2 6.4-2.6h.8l2.6-1 1.3 3.4-1.6 4.7-2.9 2.7 5.8 1.8 1.2 2.6Zm49.6-10-.9 3.8-3.4 2.7-7.7 2.5-.5-4-.8-4-3.1-.4.7-4.9 5.4-4 2.8-1-1.6-6.9-.2-3.2 2.6-4.3 7.9-7.8 5.2 3 1.5 3-.4 2.7-4.6 4.1-1.5 3.8-5.4 3.8-.8 2.6 4.8 8.6Z"/><path id="MD-TE" d="m289.3 155.3-.3.4-2.1 4.3 1.4 6.8-7.2 2.1-8.5 5.8-2.6 3.8.9 4.9-3.8 2.6-2.8.9-13.7 3.1-16.1-3.6-7.5-3.7 1.2-3.4-2.6-12.2 2.4-3.7 3.2-1.5 2.7 2.1h10.3c0-.1 5.3 2.3 5.3 2.3l3-1.2-1.1-7.8 3.3-3-.8-11.2-.5-.5 3-2.6 5.7 2 1.2-3.3 3.1-1.7 1.2-1.1 6.2.6 5.2 4.6-2.4 4.1 11.9 9.1.5 1.1Z"/><path id="MD-UN" d="m214.5 256.4-2.5-3.1-9.7-3.5-.9-3.1-10.2-8.1v-2.9c.1 0-4.3-1.8-4.3-1.8l-.6-6.4-8.6-18.6-3.3 1.1-5.1-3.2-4.7-6.3-.2-3 4.3-.7 4.2-6.6 8.8-4.2 12.8-.9 1.8-7.6 4.5.7 1.1 3 6.9-1.6 6.1 4.2 4.8-2.7 7.3 1.7 5.3 3.2-1.2 10-8.3 6.9-7.4 11.8-10.5 6.8 1.7 5.1-3.8 5.4.4 4.8 1.2 3.7 9.5 8.7.6 7.3Z"/></g></svg>