<svg xmlns="http://www.w3.org/2000/svg" xmlns:amcharts="http://amcharts.com/ammap" id="Layer_1" viewBox="0 0 512 512"><g id="_x3C_defs"><amcharts:ammap bottomLatitude="43.725" leftLongitude="7.399" projection="mercator" rightLongitude="7.44" topLatitude="43.752"/></g><path id="MC" d="m421.4 7 9.1 13.3-21.4 22.3-53.9 20.6-16.8-2.9-24.5 45-9.7 48.1-28.9 37.9-18.2 18.6-20.3-15.5-9.9 5.4-21.1 31.5-105.6 92.1 3.3 54.6-31.3 10.7-20.1 28L177.8 505l72.2-58.7-21 7.8-11.3-24-29.5 3.5-.6-8.1-8.1.5-1.2-17.2 7.2-2.4-20.9-2.9 15.3-11.7 22 19.4 17.4-5.2 15.5 31.2-.3-17.3 19-.2 45.4-33.3 7.9-28.9 50.6-66-40.4 42.1-23-15.6 5.2 24.6-40.9 11.9-.7-14.1-6.9 1.2 6.4 13.2-10 2.9-15.5-23.3-.9-8.8 5.1 8.8 4.6-10.7 3.8 9.8-4.6-24-.2 10.5-7.9-8.2-1.8 10.1-5.2-30 38.3-11.2 9.3.7 2.2 10.9-1.8-13 14.1-1.9 8.5 25.7-3.6-24.7 26.4-7.5 12.8 20.1-8.9-21.8 15.3-33.1-.6-28.1 39.5-71.6-8.9.7 2.6-16.7 12.3-6.1 4.6 5.9-4.6-7.1 12.4-13.1 11.3.4-3.1 8.4 5.8-.3 8.1-23.3 17.8 24.9 25.5-5.1-6.7-45.5-12.9-8.9 3.1-33-22-10.8Z"/></svg>