<svg xmlns="http://www.w3.org/2000/svg" xmlns:amcharts="http://amcharts.com/ammap" id="Layer_1" viewBox="0 0 512 512"><g id="_x3C_defs"><amcharts:ammap bottomLatitude="50.751" leftLongitude="3.359" projection="mercator" rightLongitude="7.228" topLatitude="53.56"/></g><g><path id="NL-DR" d="m368.4 90.7 3 1.1 1.4-3.7.8-.3.3-2.3 1.9-5.7 2.3-2.6.3-1.8 3.5-1.9 1-.9V72l3.8-1 1.9-.2 3.8 1.3.7 1.8h.4l1.6 2.9.8 2.2 1.7-.6.8 2.8h.9l2.5 2.2.7 2 1.2 1.5v1.3l6.5-2.6 4.6.2.9.6 20.7 22.2 8.8 12.9 1.1.9 2.3.6-3.1 7.6 2.6.3.3 1.3h.4l1.6 2.3.7.7h.9l-.4 1.8h2.2c0-.1-2.3 5.1-2.3 5.1l-1.8 30.2-1.5 1.8-3.3-.8-.8-.8h-1.3l-1.9-.9-2.4 1.4-1.9.2-2-.6-.3-1.1-2-.7-1.7.2-.8-.7-1.2.7h-1.3c0 .1-1.6-.5-1.6-.5l-1.6.8-4.1-.9-1.5.5-.4.6-1-.4-1.8.5-3.4 3.5h-1.3l1.1-4.1-10.4-4.5-7 1.6-4.2 3.2.7 6.8-1.5-1.4-3.1-.2-1-1.2-.8 1.7-1.9.3-1-.9-.4-1.4-1.4 1.7-1-.5-.3.6h-1l-1.3 1-.9-1.1-.3-1.9-1.2-2.7-4.1-2.9.3-1.2-.4-.6-2.9.7-.8.6-1-1.1-1.2.6-.9-.9h-.8l-1.2-1.5-1.9-.5-1.1-1-1.5.3-.6.8-1.7-.5-.8.3-2.1-2.5-4-10.4.7-1 4.7-1.7v-.9c.1 0 3.7-4 3.7-4l-7.5-8.6-1.6-2.5 9.2-6.5 2.9-4.1 2.7-2.6 5.2.4 3.5 3.5 6.5-4.7 3.8-7.3-7.2-11.2.5-6.2-6.6-2.5.9-2.4Z"/><path id="NL-FL" d="m270.7 193.3-.5-.5 1.9-5.1 2.7-1.7.2-.8-1.3-3.9-6.1-9.8.3-.2 6.1 9.8 1.3 4.2-.3.9-2.7 1.7-1.5 3.5-.2 1.9Zm31.2-55.9 1.1.2.9.9.8-.3-.7-2 2.2.7 4 4 .7 2.6.4-.2 2.5 3.4h2l2.5.9 7.1 5.8 2.3 6.5.8.4 1.4 2.6-.3 1.1-2 1.5-1.2 1.4v.6l4.1 1.1 1.8 1.5 1.8.5 1.6 1.8-.5.9-2.5 1.6-3.6.8-2.7 1.8-1.6.2-1.4-.9-6.5 1.4-.9.7h-6.5v4.7h3.6c0 .1 4.7 5.1 4.7 5.1l1.2 6-2.4 8.3h-1.3c0 .1-1.5 3-1.5 3l.6 1.1-1.4 2.5-2.1 2.1-5.5 4.4-.9-.3v.6c.1 0-1.5 1.5-1.5 1.5l-2.1 1.4-2.1.3-3 2.6-.9-.7-3.5 1.9-.9-.7-1.9.6-1.3 2-4.8 13.8-13.8 4.1-7.7-7.3-2.6-2.6-3.2-2.1-6.8-1.7-7.6 1.3-1.5-1.4.7-1.2-1.5-1 .5-.9-.2-3.5-1.1-2.2v-1.1l3.8-2.3.6-1.3 5-2.9 1.8-.3 1-1.4 16.4-11.4 1.8-.6 4.3-3.8.2-.7-.4-1.5h-.7v-.8l.5.2 1.2-.9 1.7-3.2 3.8-.4 3.7-3.6-.3-.7.4-.4.4.6 3.1-3.2 7.4-2.1 2.4-2-3.5-5.6-2-1.4.4-.3-.5-.7h-.7c0 .1.2-18.4.2-18.4l7.3-11.9 5.5-1.2Z"/><path id="NL-FR" d="m264.3 93.9 1.8 1.2 1 2.5H265c0-.1-1-1.8-1-1.8l-.2-1.6.6-.2Zm-3.8.1v.8l-3.9.9-9 8v.5l-1.2.5h1l-1.1.1-3.9 3.4-.5-.6 3.8-3.4v-.4l.4-.3-.3.6 10.3-9.1 3.3-1.2h1.1Zm-28.9-42.8 2.9.5.3.9-.8.8-.5-.2.2.4-1.3-.2-1.6.5-2.2 1.8-7.8 3.2.5 2.2-1 .6v1.8l-2.6 1.1-1.5 1.6-3.1.4-2 1.1-.9-.3-.5-1.6 6.2-3.9 4.9-4.9 6.5-4.4 4.5-1.3Zm7.8 3.2-1.4 1.3h-1.4l.6-.7-.8-.7 2.8-2.9 1-.3.3 1.2-1.2 2Zm115.3-22-2.6 3.7.6 4 1.2 1.3 4.1 1.3 1.2 2.4 2.1-1 3.8 1.3-.6 5.1 1.4.8-1.6 1.1-.9 2.3h-1c0-.1-.8.3-.8.3v3.8c.1 0-.5.3-.5.3l-.5-.3-.9 1.9-.7.3.3.5-.6.7v1.4c.1 0-1.8.3-1.8.3l1.9 3.4v.8c-.1 0-1.2 1.9-1.2 1.9l-1.1 1.2-1 .3-.2 1-2.3 3.9-.5 6.5 3.4 3.7 3.6.5h3c0-.1 1.6.7 1.6.7l1.5 1.8 2.6 1.1-.9 2.4 6.6 2.5-.5 6.2 7.2 11.2-3.8 7.3-6.5 4.7-3.5-3.5-5.2-.4-2.7 2.6-2.9 4.1-9.2 6.5-4.2 2.8h-1.9l-1.2.4v2.2c.1 0-2.4 1.4-2.4 1.4l-.5-1-2.9.8-1.5-.7-1.5-3.7-2 .7v1l-1-.4-1.7.4-.5.6v1.4l-2.9 2.8-2.3 1.1-4.1-1.1-.7.4-.2-.7-1.5-1-2.6 1.8-.4.2-.7-2.6-4-4-2.2-.7.7 2-.8.3-.9-.9-1.1-.2v-.8l-.9.4-.5-1h-2.8v-.8l-.6 1.2-1.2-.2-.5-.6.2-1.5-1.2-.9-2.9 1.7-1.5-.2-2 .5-.7 1.9-2.9 1.1-10.3-4-3.8 1.1-3-1.5-3.1-2.8-1.7-2.5 1.9-2.4 3.1-1.5.6-.9V122c.1 0-.5-2.9-.5-2.9l-.6-.7 1.2-.6-.4-.3h.8l.3-1.3-.4-1h-.5l.8-.2v-.8c.1 0-1.1-3.8-1.1-3.8l-.4-3.1 1-1.6v-1.9l-.9-.3-.2-1 .5-.2v-.8l.4.2V99c-.1 0-.5 2.6-.5 2.6l-.4.3-.8-1.8-1.1-1.2-.2-1.1h.8c0-.1.6.3.6.3v-.5h.5l.3.5h.5l-1.2-2.5-.2-2.2-1.2-2.3-4.1 3.4-.6-1.1 1.4-.5 3.1-3 .4-2.4 1.8-1.1.9-1.2 1.3-7.9v-.8l-.8-.7 1.3-1.2 1.8-5.5 1.1-1.8 3.8-3.9 5-3.1 3.1-3.2.7-1.9 3.1-3.1 3.1-1.6 8.2-2.6 8.1-4.9 11.2-5.2 2.3-1.3-1.1-1.9.3.4.2-.3.7 1.6h3.2l6-2.1.3.3 1.6-.3 2.9-.9 5.8-.8 1.8.5.2-.5.2.5.5-.7 4.8 1 4.4-2.1h.7l.8.7Zm-73.1-6.6-1.4.3h3.6v1.6l-2.2 1.1h-1.4l-3.2 1.9-1.6-.7.2 1.6-2.5-1 1.4 1.3 1.7.6h-.8c0 .1-.3.8-.3.8l-7 .2-1.7.4-4.3 3.4-2.3 1-1.3-.5-.3.5-1.3.3-.4.9-4.1-.4-1.7 1.5-.5-.4-1.8.2-.5.6v1.3l-1.2-.3-2.4 2.3-1.3-.3-1.8-1.3-.3-2.3 2.4-2.3 1.5-2.7.2.5.5-1.5 13.8-2.7.9.2 10.7-3.5 9.3-3.8 2.2-.4 1.9.4-.2.7-2.1.3Zm58.9-2.3.2 1.5-.3-.5-1.5 1.3-.6-.3-.2-1 .6-.9h1.8Zm-37.2 0 13.3-1.1h13.5l1.2.6-.6.7-1.1.2h-5.9c0-.1-2.1 1-2.1 1l-9.3 2.5h-3.2l-.3.9v-1.2l-5.3-.6-2.3 2.3-4 1.1-.3.9-3.8-2-1.8-2.5.4-3.4 1.7-1.5 7.3 1.8 2.6.2Zm46.9-9.1 1 .2 1.1 1 3.1.3 12.5-1.5 4-.2.2.3-1.9 1.4-6 2.1-.7.9-2.8 1.3-5.4.8.5.9-.8-.8h-2.9l-.2.7v-.7c-.1 0-.9.1-.9.1l-.5.6.3.4h-1.2c0 .1.4 1.5.4 1.5l-2.2-.2-1.1 1.1-.5-.3.5-2.3 1.2-2.8 1-1.4 2.7-2.1-4.3-1.2-.8 2.1h-.7v-.8l.8-1.8 3.8.4Z"/><path id="NL-GE" d="m318.7 194.7 1.5-.6 1.7 1.5 2.2 3.1 1.5 3.5.8-.4.4.4 2-1.2 1 1.4 4.8-5 1.2-.4.8-.9 3.2 2.1 1.3 2.6 2.5 1.5.9 1.1.3 4.5 2.9 3.6.7 2.5-1.4 5.5-2.3 1.1-2.2.4-.4.6.2 1.1 1.6 1.1-2 1.3v3.6l-.6 2.2h1.1c0 .1.4 2.9.4 2.9l1.9.3.2.4.9 1.8v1.7l2.1 3.2-.6 1.6 1.9.7h1.4c0-.1-.1.9-.1.9l-1 1.1.3 1.1 1.7.8.5 1.3.2-.5-.6-1.1.4.2v-.8c.1 0 .6.5.6.5l.4-1.8h2.9l1.6 1.2 3.5.7 2.5.2v-.5l.8.3 1.5-.7.8 1h2.3l1.8-.3v-1.5l1.5-1 3.3-.6 3.8.4v.9l1.2 2.4 2.2 2.3.9 1.8 1.6.5.7 2.3 1.8 1.4 2.5-.6 4.4.7 4-1 1.8 1.5-.3 1 .9.9 1.8-1.6 1.1.9.5-.9h.5l2.3 1.2.5.9-.4 1 .3 2.8-1.2 1.9 5.9 2.1h5l-.5 3.7-.4.6-.4-.4-.6.6.6 1.5-1.4 1.7-4.7.8.2 1-1.1 2.3.2 2.3h3l4.3 2 1.4 1.7 4.5 3.4.2.9 2 .3.4 4.6-.3.6h-1.5l-1.7 1-.3 3.8-2.6 3.6-2 .8-.2.9-1.6.6-.5 1-1 .5-1.8-1.4-1.3-2-1.6-.2-4.4 2.1-.7.7-.9-.2-5.1 1.7-2.1 1.7-.8-.6-.8.3-4.2 2.8-.8 1.5-3.2 1.2-2.2-2.1-1.9 1.2-.5-1.3-3.8-1.5-.5 2 2.6 1.8-.8 1.2.5 1.7h-.5l.4 1.2-.5.4-1.8-1.2-2.4-.4-.3-1.5-.8-.7-5.3-.2-.7-3.2-2.1-1h-.8c0-.1-1.8 1-1.8 1h-4.8l-2.9-2.5v-.7l.8-.2-.2-.7-2.4-1.8v.3c-.1 0-1.5-.8-1.5-.8l-2.5.4-.7.6-.8-.6-1.5 1.7h1.7l1.9 1.2.7 2.7 2.1 1.7.2 3.5-4-1.2-3.3-.3-3.9-2.8-.6 1.1-.7.3.2 1-2.2 1.6-.4-.4-1.3.5-.6 1.1-1.3.7-1.6.2-2.8-1-1.8 2.2 1.5 1.1-.4.5-.9-.2v.6c-.1 0 1.7 1 1.7 1l1.5 1.6-.5 1.6.4.7 1.6.4-.7.7v.9c-.1 0 .6.9.6.9v.5l-3.8 2.6-.2 1.2-2 .5-.9-1.2-1.3-.4-.4-2-2.1-2.7-3 .2.6 2.6-.6.7-1.6-.3-7.6 1.2-2.4-.2-1.5-1-1.6-2.4-2.6-.6-2.1-2.7-2.1-.4-1.2-.7-2.1-3.8h-1.9c0-.1-3.9-1.9-3.9-1.9l-3.3.4-1.3 1.8-.7.2-2.3-.6-1.7-1.7-1.1-.4-1.1.5-1 2.4-2 .8H272l-1.1-.5-1.4-1.7h-.9l-4.1 6.2-1.2 5.3-6.2 3.5-3.2-.6-2.3 1.2-3.4-1.7-2.6.6-3.6-.5-3.9 1v-1.3l1.7-1.8-.7-.9.3-2.2-2.5-1.2-1.7-1.4-1.3.2-1.1 1.1h-1.2l-2.2-3.3-2.9-1.3-2.1-2.6h1.6l.7-3.4-2.4-.3-.7-1.1.2-1-.4-1.3.3-.3 1.3 1.1h2.8l1.1.4 2-1.3-.8-.5V311c-.1 0 2.9-.9 2.9-.9l1.2-2.2 2.5.3.5-2 1.5-2.8.5.2v-1.1l4.7-8.6 1.5 1 2 .2 2.2-3.1.8-.2 3.4 2.5 3.2.6 1.7 1.1h.9l1.3-.6 2-2h3.6c0 .1 3.5-1.2 3.5-1.2l2.2-1.6 3 .6h2.6l2.2 1.5 3.5 1.3 1.6 1.9 3.7 1.1 1.9 1.3 1.1-1 .6.4v-.9l.6-.2-.5-2.7.4-1.2-1.1-1.3-.7-2.2-1.6-1-.7-1.9-1.7-1.3h.6l.1-3.1-2.1-.8v-1.2c.1 0-.7-.4-.7-.4l.9-5.2-.2-1.4-.7-.4v-1.3l-.5-.3v-1.5l-.9.5-.3-.3-1 .3.9 2.4v.4l-1-.3-.4.6.7.3-1.1 1.1h-1.9c0-.1-.3.8-.3.8l-2.2.3-2.6-1.8 1.2-1.5 1.6-1v-1.9c-.1 0 .9-1.3.9-1.3l-.8-.5 2.3.2-.4-1.1-1-.8.4-1 1.2-.2.5-1-1.5-.7v-1.3c.1 0-1.9-.4-1.9-.4l.2-1.2-1-1.1-5.9-1.2-.5-2.1 1.8-.5.3-2.4-4.5-3.7 1.3-5.4 13.8-4.1 4.8-13.8 1.3-2 1.9-.6.9.7 3.5-1.9.9.7 3-2.6 2.1-.3 2.1-1.4 1.6-1.5v-.6c-.1 0 .8.3.8.3l5.5-4.4 2.1-2.1 1.4-2.5-.6-1.1 1.5-2.9h1.3c0-.1 2.4-8.4 2.4-8.4Z"/><path id="NL-GR" d="m420.6 23.9 1 .2 1.8-1.4 1.9.8.2.6-.3.9-1.9-.4v.3l1.6.4v.5c-.1 0-1.1.1-1.1.1l3 .5V26l-1-.4.5-1.8 2.2.7 2.4 2.3-.9 3.3v2.6c-.1 0 1.5 2.3 1.5 2.3l-.3.5.5.5v1.9c-.1 0 1.1 5.5 1.1 5.5l3.9 2.8-.6 1.3 7 2.6 1.5 1.2 4.2 1.2h3.3l.5-.7 2-.7v.5l-1.6 1.5V56l-.9 2.4.8 1.8 1.7 1.2 3.8.3 1.1.8 1.3.3.8-.3 1 .8 3.8 1.2.4-1.4.9 8.1-1 1.8 2.1 1.9-2.6.8-1.5 3.3v1.8l-1.1 1.5.4 3 2 1.5-.2 6.1 1.4 12.1.6 1.4-.9 1.1-2.9 10.6-8.4 14-1.8 2.3-.2.5.5 2h-2.2c0 .1.4-1.8.4-1.8h-.9l-.7-.6-1.6-2.4h-.4l-.3-1.3-2.6-.3 3.1-7.6-2.3-.6-1.1-.9-8.8-12.9L416 86.3l-.9-.6-4.6-.2-6.4 2.6v-1.3l-1.2-1.5-.7-2-2.5-2.2h-.9l-.8-2.9-1.7.6-.8-2.2-1.6-2.8h-.4l-.7-1.8-3.8-1.3-1.9.2-3.7 1v.6l-1 .9-3.5 1.9-.3 1.8-2.4 2.6-1.9 5.7-.3 2.3-.8.3-1.4 3.7-3-1.1-2.6-1.1-1.5-1.8-1.6-.9h-3c0 .1-3.6-.4-3.6-.4l-3.4-3.7.5-6.5 2.3-3.9.2-1 1-.3 1.1-1.2 1-1.9.2-.8-1.9-3.4 1.9-.3V62c-.1 0 .5-.7.5-.7l-.3-.5.7-.3.9-1.9.5.3.6-.3v-3.8c-.1 0 .7-.5.7-.5h1c0 .1.9-2.2.9-2.2l1.6-1.1-1.4-.8.6-5.1-3.8-1.3-2.1 1-1.2-2.4-4.1-1.3-1.2-1.3-.6-4 2.6-3.7 1-.3v.7h.5l5.2-1.3 4.5 2.3 1.6 1.8 2.8-2.1 6.5-2.7 18.3-2.3 15.2-5.6 6.1-.6 4.1 1.6Zm-42.2-11.7h.5v.5l-2.8-.4.8-.4 1.6.2Zm19.6-1h.8c0 .1-.5 1-.5 1l-1.8-.9.8-.4.6.3Zm3.3-3.2v.4l-1.6-.2.5 1.3-2.3-1.1-1.8.2-.3-.3.7-1.1.7-.2 2.4.3 1.6.8Zm-13.5-.4 1.8.4 1.9 1.8-2.2-.3-.7-.7-.2 1.4-1.6-.2-.6.4.3.9-.5.4-1-.3-.5-.4-.2-1.5-1.8-1.6.5-3.1h.4l.5 1.7 4 1.1Z"/><path id="NL-LI" d="m318.9 330.9.6-.7-.6-2.6 3-.2 2.1 2.7.4 2 1.3.4.9 1.2 2-.5.2 1h4.2c0 .1 3.6 2 3.6 2l1 1.5 1 .4v.8h-1.3l-.7.8.7 2.2-.5 1.3.5 2.5 5.1 2.3.7-.2.3.5 3.2.6-1.2 4.3-.8 2-.4-.2-.3 2.8 3.3 2.6.7 1.3 3 2.9 2.6 5.2 2.4 1.8 1.6 2.8v3.7l1.1 3.4-.5 4.4-.6.3v3.2l-.9 4.8h2.2c0-.1-1.3 2.3-1.3 2.3l1.3 4.5-3.9 3.6.3 1-2.7.6-1.6 4.3-2.7 3.8-.7 2-4.2 4.6-1.5.9 1.6 3.3-2 .7.7 6.4 1 1.9 1.9.3 2.5-2 4.7-2.3 1.8 1.4-4.7 2.3 3.9 2.6-1.3.9v.7l-3.8.6-2.4 1.5-1.7.3-.6 1.9-.6-.3-.8 1.3-1.7.7v.9c-.1 0-1.5 1.6-1.5 1.6l-1.3 1-1.2.4-.5-.3-.7.5-1.7 1.7-.7 1.3-1 .4.2.6-1.2 1.4-.2 2.8-1.2.6.2 1H327c0 .1-2.5-5.3-2.5-5.3l-2.4 2.3-2.9.4.2 1.1 1.3 1.6-.6 1.2.7 1.8 1.8 1.4v1l1 .5-.2 2.5-1.1 1.3.5 1h.8l3.2-1.8 2.2-.5 1.5 1.5 1.6-.7 4.8-.2-1.1 3.6-1.1 1.1 1.3.8.3 3.2 2.9 1 .6-.2.5.5v.9c-.1 0 2.1-.2 2.1-.2l1.6 1 .6-.7-1.4 2.1-.8 2.8 1.5 3.4-1.3 2.3-.3 2.3-1.8-.9-.2-.7-4 1.8v2.4l1 2.1-.6.3.2.5-1.9 2.1h-.5c0 .1-2.1-1.2-2.1-1.2l-1.1 1.3v1l1.3.4 1.3 1.6 3.1 1.9-1.1 2 .5 1.1-4.4.3-.9-1.3-1.2-.3-4.9 2-.3-.8h-.9c0 .1-.5.7-.5.7l-1.3-1-.4-2.1-2.6 1.3-1.2 1.2-.7-1.7-1.5.9-2.5.5-1.8-2.5-1 .4-.9-2.5-1.1.2-2.8 3.7h-1.3l-.9-.6-.6.7-1.8.8-1.6-.4 2-4.2-1-2.4.7-1.7-.6-1h-1.5c0-.1-.2-.8-.2-.8l-2.4-.6v-.8l-.8-.4.2-.9-1.2-2.3v-3.1c.1 0 .9-.7.9-.7l-.4-.5.3-.4 2.5-1.3h.9l.4-1.2 1.3-1.4.6-2.5.8-.2 1.1.7.6-.3.7-2.9 1.3-1.7.6-1.9 1.2-.6-.7-1.7h-.8c0-.1-1.7.8-1.7.8l-.8-.4v-.9l4.9-6.2v-2.1l1.1-2.3-2-1.9 1.5-3 .3-2 1.9.7.9-.5-.4-2 .9-1.2-1-2.1 1.5-.8 1.6.6.9-.9.2-1-.5-.7-2.2-.5v-1.3l1.6-1.9 1.8-.4.5-1.6 1.1-.8-2-1.6v-.6c.1 0-1.3-2-1.3-2l-1.1 1.5-1.1-.6-3 1.9-.3-.6.4-1.3-.9-.4v-.5c-.1 0 .7-.7.7-.7h-.5c0-.1.3-1.1.3-1.1l-1-1-2.3-.8-.5.6h-2.4c0 .1-.9.8-.9.8l-2.2-.8-1.4.4-.6-.5h-1.5l-.7-1v-1.1l-9.7-4.1 3.2-1v.4l2.8-1.4.7-7.3 4.9-7 22.3-7 6.5-5.5-6.7-11.4-1.3-7.3-.8-2.1-1.6-11.2 5.8 1.1 1.8 1.5 3.6-.4 7.2-2.7 2.7 2.8.6-.6h1.1c0-.1-.8-1.6-.8-1.6v-3l-1.5-2.5-.4-4-2.8-2.7-2.7-1.8-.2-.9.9-2.5-2.3-.7.8-1.9-1-5.2-2-1.1-3-.4-1.8-.7-.8-1-.7-3.9-1.4-1.3Z"/><path id="NL-NB" d="m224 319.6 2.1 2.6 2.9 1.3 2.2 3.2h1.2l1.1-1.1 1.3-.2 1.7 1.4 2.5 1.2-.3 2.2.7.9-1.8 1.8v1.3l3.9-1 3.6.5 2.6-.6 3.4 1.7 2.3-1.2 3.2.6 6.2-3.5 1.2-5.3 4.1-6.2h.9l1.4 1.6 1.1.5h2.2l2-.7 1-2.4 1.1-.5 1.1.4 1.7 1.7 2.3.6.7-.2 1.3-1.8 3.3-.4 3.9 1.8h1.9c0 .1 2.1 4 2.1 4l1.2.7 2.1.4 2.1 2.7 2.6.6 1.6 2.4 1.5 1 2.4.2 7.6-1.2 1.6.3 1.4 1.3.7 3.9.8 1 1.8.7 3 .4 2 1.1 1 5.2-.8 1.9 2.3.7-.9 2.5.2.9 2.7 1.8 2.8 2.7.4 4 1.5 2.5v3l.8 1.5h-1.1c0 .1-.6.7-.6.7l-2.7-2.8-7.2 2.7-3.6.4-1.8-1.5-5.8-1.1 1.6 11.2.8 2.1 1.3 7.3 6.7 11.4-6.5 5.5-22.3 7-4.9 7-.7 7.3-2.8 1.4v-.4l-3.2 1-.4-.4-.5-3.4v-4l-3.1-3-1.2-2.1-2.8-.8h-.7l-2 2.6-2.7.5-.3 1h-.6l-1.8 2.5-7.9-2.1-1.1 2.1-4.7.2-3.3-.8-3.1.7-1-1 1.5-6.6-4.3-2.8-2.9.9-1.2 1-3.1-.9-.3-5.7-6.6-8 3.6-6.8-2.9-6.8-3.6-.2-.8-1.3v-1.2l-.4-.2-2.8 2.7-.6 4.8-4.3 3.7-3.9 4.8-.4-.6.2.7-.7.3-.8-.2 1.1-.3-1.5-1-1.1-2-.6.4-.9-.6v-.4c.1 0-.3.3-.3.3l-1-.2-1 1.4-1.8-1-.6.5-.8-.4-5.2 1-1.9-1.1-.5-2.3.6-.7h1.2c0-.1.3.5.3.5l4.4 1.4.9.8h.9l-.4-.4.7-.6h-1.9l-.7-4.1 1.2-2 .6.5.6-.5-1.1-.8.6-3.1-2.2-.5-.6-2-4.8-1.6-2.2.8-.8 1.8-1.8.9-1.5 2.7-1.3.3-1.1 2.7-2.8 1.3.3 3.1-1.1.4-.8-.3-1.3.7-1.2-.6-5.8-1.1-4.4 1.6-.6-4.6 1.9-4.1-1.2-1.7-7 .8-1.1 1.1-2.4.4-6.4 3.4-.5.6 1.6.2.7 1.9-.6.4.2.8-1.2 1.2.9 2.3 4.3 5.7-.6.7.6 1.2-1-.2-3 1.5-1.9.2-3.9-.5-.8-3.3-6.4.2-.4-1.1h-.7l-.4-.9.5-1.6-.6-3.4 1.3-1.7-6.1-13.8v-1.4l1.8-5.6v-1.8l-.9-1.9-3.6-4.4-.5-1.8.9-3.3 1.3-1.2 3-1.3 1.2-2.2 3 .4 6.3-1.8 2.3-1.1 1.9-1.6 1-2.4 1.7-2.1h.6l.3-.8 2.2-1.9 8.3 2.8 2.4.3 8.2-2.3 1.7-1.4 6.9-2 3.3-2.4 3.8-3.7 1.6-4 1.7-2 3.2-1.4h5.5l2.4-1.4 2-2.1 2.6-1.3 3-.3 7 1.3Zm-7.3 66-.9 1.4v-1.1l-.5.3v-.7l-.6.4.4.5-.2 1.1-.6.3 2.5 1.1.4-.5-.3-.4.7-.5-1-.3v-.6h.5l-.4-.8 1-.5.2.4.7-.8-.2-.4-.5.5h-2l.9.6Zm1.7.5-.5-.4-.3.3h.8Zm-6.3 3.4-.3.4h.3zm4.7 2.6-1.1.3.4.4-.5.4 1.3-.2v-.9Z"/><path id="NL-NH" d="m257 163.4 6 2.7 4.9 5.2-.3.2-4.9-5.2-5.7-2.5h-1.9zM191.4 113l-5.7.7-1.2.6.6.6-.4.4h-1l-.6-1 .6-1.2 2.9-1.7 2.3.3 2.4.9v.4Zm38.5 5.9-1.5 1.2-.3 1.7 1-.2 7.2 14.1-1.1 12.7h.8l.5.9.6 2.5 3.1 3.1.8.3h1.2l1-.6 1.8-2.6 3.1.2 2.4 1.2 2.5-.5.3.3-1.1.4h1.5l1.3.8.5 5 2.2 1.3h-.8l-.2.9-2 1.2.4.9-4 1-1.1 5.1-.5.8-2.6 1.4-1 1.5-2.7.7-1.6 1.7-3.5.6-.8-2.3h-1.5c0 .1-1.8-1.8-1.8-1.8l-1.5.5-.8.8v-.5c-.1 0-1.1.1-1.1.1v.7l-.7-1.4h-.6l-.8.9-1.9.9-.3.7.6 5-.3.7 1.3 3.7-.2 1.2 1.3 1.2 1.3 3v1.1l1.7 3.6h.5l-.1.7.8.6.5 1.5-1.6 2.5h-.8l-.3.4v1.9l.9.9v.8h-2l-1.3.7-.5-.3.9 1.4.5-.7.8.2-.6 1.2v2.6l3.3.6 1.1-.3.2-2.3 1-1.3-.9-5.4 1.3 3.7.9 1.2 2.6.2-2.6 1.1-.8.8h-.8l-.3 2.2-.7 1.2-.5.2v-.6l-.9.7-1 3h-1.4l-.8 1.2-1.5 1-.8 2.4-1.5.8.3.5-.4 1.3-1.3-.9-2 .8-1.8-1.7-.5.6.3.9 1.8.9-.8 1-.3-.7-.6.5 2.3 1.5 1.7 2 1.6.3 1.5-.7.8.8-.7 1 .3.7h.5l-.1-.5 1 .4h2.8c0-.1.9-.8.9-.8l1.6.2 2.1 1.6 2.9.7 1.5 1.4 7.6-1.3 6.8 1.7 3.2 2.1 2.6 2.6-3.3 2.3-3.2-.6-1 1-.6-.3-1.8 3.6-2.4 2.1-.3 5.5-3 6.1-7.5-.4-.2-.8 2-1.4.6-1-1.4-2.8-1.3-.7-.3.7h-4.7c0 .1-3.6-1.4-3.6-1.4l-.4-1.5 2.3-1-1.5-1.5-.4-2-.9.4-1-3.3 2.8-.8v-.8c.1 0 1-.5 1-.5l.8.6-.5-1.4h-1.2l-.9 1.1-1-.9h-.5c0 .1-1.5 2-1.5 2h-.5l-.9-2.2-.7-.3h-1.7c0 .1-1.8 2-1.8 2l-3.1-.6-.8.4v1.6c.1 0-1.5 1.2-1.5 1.2l-.8 1.6h-4.7L206 246l-2.1 1h-1.7l-1.1-.3-1.1.5-.6.9-3.3 1.8-.9 1.1-.6-.5-.2-3.9-2.1-.3-1.8 1.3-2.5.2-3.6 2.1-2.3.2-3.2-.8-1.2.4-1.6-.4-.8-.6v-.9c-.1 0 .9-1.5.9-1.5l.9-4.6-.2-1.4 2.2-2.2 2.6-5.9-3-1.1-1.5.4-.7 1.3-7.5-3.4 7.3-19.1.6-4.2.6-.8-.4-1.2 2.1-5.4L182 183l3.2-27.2 1-4.7 1.6-3.5 1.9-6.3 2.5-10.2.6-2.6.5-9.8 1.2-3.1 1-.9 4.8-.4v.4h.6l-.5.5.8 1.3.8-.2.4-.9-.7-.6 1.1-.2.3 1.4-1.4 3.8 1.8 3.9 7.5 4.5 3.6-.9 3.5-1.7 1.7-2.1.5-1.6 1-.9 3.8-1.1 1.3.4 1.7-.6.9.7 13.8-12.3.5.6-12.4 10.8Zm-19.2-39.7.9.2 2.1 3.6-.6 1.2-.2-.6v8.7l-.5 1.3-2.7 2.4v1.9l-1.3 2.1-1.2.6-.9 1.3-2.7.7-3 3.8.5.6-.3.5-4.5-1.4-.3.2.4.7 1.3.5 1 1.1-1.1-.3-1.2.7.3.4-2 .2-1.1.8-1.9-2.8-.4-2 .2-3.4 1.3-5.5 3.1-6.5 8-12.6 2.8-3 1-.4.7.3 1.7 2.7.3 2.1Z"/><path id="NL-OV" d="m346.9 134.2 1.6 2.5 7.5 8.6-3.6 4v.9c-.1 0-4.8 1.7-4.8 1.7l-.7 1 4 10.4 2.1 2.5.8-.3 1.7.5.6-.8 1.5-.3 1.1 1 1.9.5 1.2 1.5h.8l.9.9 1.2-.6 1 1.1.8-.6 2.9-.7.4.6-.3 1.2 4.1 2.9 1.2 2.7.3 1.9.9 1.1 1.3-1h1l.3-.6 1 .5 1.4-1.7.4 1.4 1 .9 1.9-.3.8-1.7 1 1.2 3.1.2 1.5 1.4-.7-6.8 4.2-3.2 7-1.6 10.4 4.5-1.1 4h1.3l1.5 2.1-.8 4.8 5.2 4.6-2.1.6-2.4-.5-1.2 2.6-3.8-.8 2.7 5.7-.8 6.2 6.9 4.5 1.8.5h8.4v1.7l1.1-.2 8.6 2.8 2.3-1.8 1.6-3.4 1.2-.9 1.5 3.3.9 3.8 1.2 1.1 1.5 3.9 2.5.3 1.6 4.7v3.8l-1.9 2.6-1 2.4-.2 1.8-2.1 4.4.2 2.9 1.8 3.3 2.2 2.5-.5 1.1-2.4 1.5-2.2.4-1.7-.7-2 .5-.6.8-.4 2.5-2.7 4.6-4.8.9-.3 1.2-2.5 2.3-1 4.7-1.8 1.8-10.4.4h-5l-5.9-2 1.2-1.9-.3-2.8.4-1-.5-.9-2.3-1.2h-.5l-.5.9-1.1-.9-1.8 1.6-.9-.9.3-1-1.8-1.5-4 1-4.4-.7-2.5.6-1.8-1.4-.7-2.3-1.6-.5-.9-1.8-2.2-2.3-1.2-2.4v-.9l-3.8-.4-3.3.6-1.4 1v1.5l-1.9.3h-2.3l-.8-1-1.5.7-.7-.3v.5l-2.6-.2-3.5-.7-1.6-1.2h-2.9l-.4 1.7-.5-.5v.8c-.1 0-.5-.2-.5-.2l.6 1.1-.2.5-.5-1.3-1.7-.8-.3-1.1 1-1.1v-1c.1 0-1.2.1-1.2.1l-1.9-.7.6-1.6-2-3.2v-1.7l-1-1.8-.2-.4-1.9-.3-.4-2.8H341c0-.1.6-2.3.6-2.3v-3.6l2-1.3-1.6-1.1-.2-1.1.4-.6 2.2-.4 2.3-1.1 1.4-5.5-.7-2.5-2.9-3.6-.3-4.5-.9-1.1-2.5-1.5-1.3-2.6-3.2-2.1-.8.9-1.2.4-4.8 5-1-1.4-2 1.2-.4-.4-.8.4-1.5-3.5-2.2-3.1-1.7-1.5-1.5.6-1.2-6-4.7-5h-3.6v-4.9h6.5l.9-.7 6.5-1.4 1.4.9 1.6-.2 2.7-1.8 3.6-.8 2.5-1.6.5-.9-1.6-1.8-1.8-.5-1.8-1.5-4-1.1v-.6l1.2-1.4 2-1.5.3-1.1-1.4-2.6-.8-.4-2.3-6.5-7.1-5.8-2.5-.9h-2l-2.5-3.4 2.6-1.8 1.5 1 .2.7.7-.4 4.1 1.1 2.3-1.1 2.9-2.8v-1.4l.5-.6 1.7-.4 1 .4v-1l2-.7 1.5 3.7 1.5.7 2.9-.8.5 1 2.6-1.4v-2.2c-.1 0 1.1-.5 1.1-.5h1.9l4.2-2.7Z"/><path id="NL-UT" d="M201.3 246.6h1.7l2.1-1 3.8-3.7h4.7l.8-1.6 1.6-1.2v-1.6c-.1 0 .7-.4.7-.4l3.1.6 1.8-1.8h1.7c0-.1.7.2.7.2l.9 2.2h.5l1.5-1.9h.5c0-.1 1 .7 1 .7l.9-1h1.2l.5 1.3-.8-.6-.9.5v.8c-.1 0-2.9.8-2.9.8l1 3.3.9-.4.4 2 1.5 1.5-2.3 1 .4 1.5 3.6 1.5h4.7c0-.1.3-.8.3-.8l1.3.7 1.4 2.8-.6 1-2 1.4.2.8 7.5.4 3-6.1.3-5.5 2.4-2.1 1.8-3.6.7.3 1-.9 3.2.6 3.3-2.3 7.7 7.3-1.3 5.4 4.5 3.7-.3 2.4-1.8.5.5 2.1 5.9 1.2 1 1.1-.2 1.2 2 .4v1.3c-.1 0 1.3.7 1.3.7l-.5 1-1.2.2-.4 1 1 .8.4 1.1-2.3-.2.8.5-1 1.3v1.9c.1 0-1.4 1-1.4 1l-1.2 1.5 2.6 1.8 2.2-.3.3-1h1.9c0 .1 1.1-1 1.1-1l-.7-.3.4-.6.9.3v-.4l-.8-2.4 1-.3.3.3.9-.5v1.5l.4.3v1.3l.8.4.2 1.4-.9 5.2.8.4v1.2c-.1 0 1.9.8 1.9.8v3.1h-.8l1.7 1.3.7 1.9 1.6 1 .7 2.2 1.1 1.3-.4 1.2.5 2.7-.7.2v.9l-.6-.4-1.1 1-1.9-1.3-3.7-1.1-1.6-1.9-3.5-1.3-2.2-1.6h-2.6l-3-.5-2.2 1.6-3.5 1.3h-3.6c0-.1-2 1.9-2 1.9l-1.3.7h-.9l-1.7-1.2-3.2-.6-3.4-2.5-.8.2-2.2 3.1-2-.2-1.5-1-3.5-1.3-1.1-3.5-2.5-1.3-2.1-.3-3.3 1.4-3 2.9-.9 1.6h-1.1c0 .1-1.7-1.2-1.7-1.2h-1.3l-3.1 3-3.1-.7-2.3 3.6-4.3 1-.9-3.5-3.2-3.6-1.4-2.8-.8-.3-1-1.3 4.4-1.1-.8-2-4.4.9-.3-1v-.6l1-.7-.2-1.3 2.2-2.8 1.8-1.4 2.3-.8.6-1.1-4.5.3v-1l-.8-1.6v-4.3c-.1 0-3.9-2.7-3.9-2.7l.2-.7 1.3-.6.8-2.3.9-.4 1.7-.5.3 1 .6.5 2.9.2.5-.4-.4-2.8 2.3-1.1-3.7-2.6-1.7-.6-3.4-4h-.7l-.2-2.7-.8-1.3v-1.2Z"/><path id="NL-ZE" d="m128.8 400.5.4-.2.5 1.1-1.3.2-1.7-1 .8-.5 1.2.4ZM64 393.6l2 .7v.5h1l1.1 1.3 2.4.4 1 .8 7.7 1.6 3.6 3.7 1.9-.2 2.7.5-.4 1.4 1.2.6.5-.2v-2.1h2l1.2.9 1.1.2-.3.7.8 1.6v-2.1l.5.9.6-.8 2 1.2h2.8l1-1.7 1.6-.5 2.4-2 4.5-1.5.5.4.5-2.8.6-.7-.4-2.1 1.1-1.6 4.8 1-.2.4 1.4 1 .4 2.2h.5l1.5 2.6 4.6.4 5.6 5.2-1.8-2.9 1.9-.5.7 1 1.1.3.8 1.2.3-.4-.7-1h1.7l-2-.7h3.3l-.5-.4-3.1-.3-.9-1.6v-.8h1.2l1.1-.7.3 2.1 2.4 1.1-2.1-1.7.2-1.1.4 1 .6-2 2 .3.8.6.5 1.5 1.8 2.4-7.2 9.6-11.3 8.1-.4.7-2 .5-.7-.7-1.3.7-.4-.7h-.7l-3 2.1-.2-.3-1 1.6-1.6.3-.5 1.3-2.5.7-.9-1.4-.3.6h-.6l-.2 1.4-.7.6-2.6.9-.9-1.3 1.6-1.6-.6-1.1-3.2 2.1-.8-.5-1 .4-.6-.3-1.5.8-2-.7v.8l-1.5-1.1-.2-5.3.7-1.9-2-1.4-.5-.2-.7.6-1.6-1.8-3.2-.4-.7.3-2.4-.7-.6-.9h-1.2l-2.3-1.7-1.9.3-5.4-3-1.1 1.3.5.9-.4 1.1-2.2-1.4-.8.8-1.2-.2-.6 1.2h-.6l-.8-.7-1.1.2 1.3 7.2-8.3.8-2.7-.6-.5-1.9-.8-.8-.8.5-2.3-2.9-1.4-.7.7-.5v-1l-1.2-1-.4-1.1 1-.5-1.9-2.5 2.8-3.1-.2-1.6-.9-1.2v-1.8l-.8-1.8 1.5-1.5.2.3 4.6-2.4h.9c0-.1.6.6.6.6l2-1.2 3.2-.8 2.4-1.6 3.6.3.8.7Zm15.9-23.5.4-.7v.5zm7.9-1.8 1.3.3-2.6.2.2-.7 1.2.2Zm1.6-.4-.6-.5h.8c0 .1-.2.5-.2.5m-1-.5v.6c.1 0-1.4-.4-1.4-.4zm-9.2-.2 1.1 1.1-.5 1.5-.9-2.2zm-1.7-1.7.3.4h-.7c0-.1.4-.4.4-.4m18.4-34.7.9.9 3.1 1 1.1-.2 2.2-2.8 3.8-1.6 2 .3 1.6 1.4 4.2.9.8 2.4 1.8 2.6.2 3.4 1.3 3.1 5.6.7 2.1.7h3.7c0 .1 8.6 6.4 8.6 6.4l2.1.7-1.2 2.2-3 1.3-1.3 1.2-.9 3.3.5 1.8 3.6 4.4 1 1.9v1.8l-1.9 5.6v1.4l6.2 13.8-1.3 1.7.6 3.4-.5 1.6.4.8h.7l.4 1.2-4 .2.3-1.3-1.4-2.3-2-.9h-.7c0 .1-.7-1-.7-1l-5.4 2-7.8-2.2-3-2.3-.5-1.1.4-.6-1.8-.5v-.8c-.1 0-.5.2-.5.2l-2.8-1.4-3.2-3.1-4.5 2.4-1-.3v.9c.1 0-.4.1-.4.1l.5 1.7-2.8 6.9-.8.4-2.5-.7-1.5 1.1-4.7 1.1-4.5-3.7.2-.8h-1.4l-1.2-.9-1 .6-1.4-.2-.6-.5-.6-2h-.5l-1.7-2.2-2.5-1.8h-3.4c0-.1-1.3 1.4-1.3 1.4l-2.9.3-.8-.7v-1.3h-.4v1.5l-.6-.2v-.6l-.2.5-.2-.6v.4c-.1 0 1 .8 1 .8h-3l-1.2-1.5h-.6l-2.8-2.3-3.1-5.2-4.8-3.4-2.3-2.7.6-2.8 6.5-4.4 8-4.6h3.3l2.9 1.1 5.4-1.9.7-3.6-.6-.7h.8c0-.1 2.6-3.1 2.6-3.1l-.2-.3h.5c0-.1.7-1.6.7-1.6l-.4-.4.5-.2v-2l-1.6-.5-1.3-1-1.5-2.9v-2.3c-.1 0 1.6-3.6 1.6-3.6l1.3-1 6.8-2.2 5.7.6.5-2.2 1.3-1.1Zm-3.4 11.6-.7-.7h-.5l-.5.4-.2 1.2-3.3 2.2-3.8 1.5v2h.5l-.2.7h-.6l-.9 2.2h.6c0-.1-1 1-1 1l1 .5-1.1-.3-.4 1.5-.6-1.1-1 .9-.8 4.2.2.3.6-.4v.4l1.1-.2 1.8 1.3H84l3.9-1.3 1.3.3.7-.7 2.5-.6 2 .4 1.8-.4.4.5 2.1.4 1.2 1.3 1.8 3.2.4-.3-.3.5 1.1 1.8v.5c-.1 0-2.7 1-2.7 1l-1.2 1.7-.9.3-2.4-2.2-1.9.4-1.3 1.1-4.8-1.3-2.9 1.7-3.4 3.4-.5-1.2.3-1.1.7 1.3v-.5l-2-3.8 1.3-1.7-1.7 1.6-2.8-2.2h-.9c0-.1-.9-2.3-.9-2.3l.2-.9-2.1.9.2 1.6L75 366l2.6 1.5 1.6 4 1.9 2.9.2-.3.4.7-.2-.6 1.8-.3H82l-.3-.5 2.5-1.3-.4-.7.8-2.1 1.2-.8h.5l-.3.7.5-.5 4.9.3 1.4-.8 2.5-.4 1.4.6.6 1 1.3.3.6-.9.4.6 1.7-.5 1.5.3 1.3-.8 1.6.3 1.6 3.2 1.7-.7 1.3.2 3.8 1.4v1.4h.5v-1.4c-.1 0 1.2.6 1.2.6l.5.9 2.4 1.8.8-.3.9 2.8-.4 1.2 2.6 3.9h.6l1 2.2 4.9 2.5 1.7-.3 3.1-1.8 2.1.4 1.1.7h1.2l-.7-9.1-4.7-2.1-.4-1.1.6-1.3-1.1-1.2-1.7-.3-.8.5-.9-.8-3.6.3-3.1-.6v-.7c-.1 0-.9-.4-.9-.4l-.4-1.8-1.1-.7v-.8l-2.6-.7.3-.8-.7-1-2.3-1.4-1.5-.2-.6-.8.8-2 3.6-.7 3.4-2.2 2.4-.7 2.8.5.7 1.3 1.2.7v-.5c-.1 0 3-.4 3-.4l1.4.4.2-.5 1.3-.2v-.4l-.5-.1.7-.4v-.6l-2 .5h-3.3l-1.1-2.2-1.7-1.1V352h.5v-.6l1.6-1.5 3.1.6 4.8 2.7-.5-1.8-3.4-1.5v-1c.1 0-.6.7-.6.7l-1.5-.5v-.5h2.2l-.5-.7-1.8.4 1.7-.7.5.3.3-.4-1.1-2-4.5 1-1.5 1 1.2 1.4-.2.5h-.5l-.4 1.6-1.5.9-1.3 1.7-1.3.6-1-.5-4.4 2.3-4.3.6-2.5-1.9-.9-1.6-1.4 1.1-3.1-.8 3.2-2.8-.9.2-3 2.4v-1.7l-.6-2.3-1-1.2v-.8l-1.9-1.8h-1.2c0 .1-2.7-1.3-2.7-1.3V343l-.5-.8-1.2-.4h-.7v.5l.4.3Z"/><path id="NL-ZH" d="m151.7 337.1 2.2 1.6h-2.8c0-.1-.8-.9-.8-.9l1.3-.7Zm-8.3-5.5 3.7.7 5.4 2.2.7.9-2.5 1-3.1-.4-5.4-3.7.5-.8h.8ZM168.1 229l7.5 3.4.7-1.3 1.5-.4 3 1.1-2.6 5.9-2.2 2.2.2 1.4-.9 4.6-1 1.5v.9c.1 0 .9.6.9.6l1.6.4 1.2-.4 3.2.8 2.3-.2 3.6-2.1 2.5-.2 1.8-1.3 2.1.3.2 3.9.6.5.9-1.1 3.3-1.8.6-.9 1.1-.5 1.1.3v1.2l.8 1.3.2 2.7h.8l3.4 4 1.7.6 3.7 2.6-2.3 1.1.4 2.8-.5.4-2.9-.2-.6-.5-.3-1.1-1.7.5-.9.4-.8 2.3-1.4.6-.2.7 3.8 2.7v4.3c.1 0 .9 1.6.9 1.6v.9l4.5-.3-.6 1.1-2.3.8-1.8 1.4-2.2 2.8.2 1.3-1 .7v.6l.3 1 4.4-.9.8 2-4.4 1.1 1 1.3.8.3 1.4 2.8 3.2 3.6.9 3.5 4.3-1 2.3-3.6 3.1.7 3.1-3h1.3l1.7 1.4h1.1c0-.1.9-1.8.9-1.8l3-2.9 3.3-1.4 2.1.3 2.5 1.2 1.1 3.5 3.5 1.3-4.8 8.6v1.1l-.4-.3-1.5 2.8-.5 2-2.5-.3-1.2 2.2-3 .9v1.2l.9.5-2 1.3-1.1-.4H225l-1.3-1-.3.3.4 1.3-.2 1 .7 1.1 2.4.3-.7 3.5h-1.6l-6.9-1.3-3 .3-2.6 1.3-2 2.1-2.4 1.5H202l-3.2 1.3-1.7 2-1.6 4-3.8 3.7-3.3 2.4-6.9 2-1.7 1.4-8.2 2.3-2.4-.3-8.3-2.8-2.2 1.9-.3.8h-.6l-1.7 2.1-1 2.4-1.9 1.6-2.3 1.1-6.3 1.8-3-.4-2.1-.7-8.6-6.3h-3.7c0-.1-2.1-.9-2.1-.9l-5.6-.7-1.3-3.1-.2-3.4-1.8-2.6-.8-2.4-4.2-.9-1.6-1.4-2-.3-3.8 1.6-2.2 2.8-1.1.2-3.1-1-.9-.9 2-1.3 1-2.6.2-1.3-1.2-3.8 1.8-2.1 4.8-1.1 7.8-3.1h2.3l1.1.5.5.4-1-.2-.2.8 2.7 1.9-.2-.9h1l1-1.7 1.7-1-.4-1.8-3.5-5.5.2-1.3 2.2-3.7v-.5l-1.5-1-.4 1.4-1.6-.7-2 .7-.6-.5 1.7-6.5v-1.5h-.5v-1l.7-1.6 1.3-.2 1.1-1.3 1 .5 1-.2 2.8 1.6 6-5.1 2.6-4 10.9-13.1.7.3.5-.8-.6.4-.3-.5 4.8-4.8 8.2-11.1 7.3-13.1 5.3-11.6Zm-49.2 89.3-.3 1.9.7-.5 12.5 7.1 3.4 1.2 2.4 2.6 2.8 2.2 2.2 2.9 2.9 2 4.8 2.2 5.5.5 1.1-.4 1.2-3.3-9.3-5-7.5-2.3-2-2.3v-1.6l-1.6-1.9-1.6-.9h-2l-3-3.4-3.3.4-.8-1-.2.7-.4-.5-2.6-.9-1.6-2.1-2.1 1.1-1.1 1.3Z"/></g></svg>