<?xml version="1.0" encoding="UTF-8"?>
<svg id="Layer_1" xmlns="http://www.w3.org/2000/svg" xmlns:amcharts="http://amcharts.com/ammap" version="1.1" viewBox="0 0 512 512">
  <!-- Generator: Adobe Illustrator 29.1.0, SVG Export Plug-In . SVG Version: 2.1.0 Build 142)  -->
  <g id="_x3C_defs">
    <amcharts:ammap bottomLatitude="57.979458" leftLongitude="4.641249" projection="mercator" rightLongitude="31.063204" topLatitude="71.184230"/>
  </g>
  <g>
    <path id="NO-02" d="M140.6,447.7l-.6.3-1-.4v.3c-.1,0-.7-.3-.7-.3v-1.4s-.4-1.2-.4-1.2l.4-.2v-.6s.3-.4.3-.4l-.4-1.2.2-.5.8-.6.3-1.4h.6c0,0,.2.4.2.4h0l.5.5,1.6,1,.3,1.8h0l-.2.9-1.5-.2-.3.4.2,1.1-.6.6.4.6v.5ZM150.9,422.1l1,1.3-.2,1.9.9.3.6.8.7.3,1.1,3.4.9.5.3.8,1.5,1.3-.2,1.1v1.9c0,0,.7,1.1.7,1.1l2.4,1.5.7.9.2,1.3-.7,1.8.4.7-.2,1,.5,2.1h0l.2.3.5.2.7,1h0l-.8.3h-1.3s-1.3.8-1.3.8v1.2c-.1,0-.9,1.2-.9,1.2l-1.2,1-.8.2-.2,1.1-.4.3-.2-.2v-1.3c.1,0,0-.6,0-.6l-1-.3-.6-.7-.2-1.3-.6-.6-1-.4-.5,1.4v1.3s-.9,0-.9,0l-1.1-.4-2-.2-.2.8.4.6-.9.8-.6.3-.6,1.6h-.6l-.4.3v.5c.1,0,0,1.4,0,1.4l-.7.7-.7-1h0l-.5-1.6v-1.8c0,0-.9-3.2-.9-3.2v-1.2c-.1,0,1.2-3.5,1.2-3.5l.5,1,.2,2.6.3-.4v-.8c0,0,.2-.7.2-.7l.4-.5h0l1.4.7,1.1-.6-.3-2.1.2-1.1.4-.6-.6-1.1-.3.2-.8-.7v-.7c-.1,0-.3,0-.3,0v-1.3c0,0-.3-.1-.3-.1l-.5-.8v-.7s-.4-.2-.4-.2h-.4c0,.1-.5-.3-.5-.3h0v-.3c0,0,.3-.2.3-.2h1c0,.1.2-.9.2-.9v-.8c-.1,0,.4-1.8.4-1.8l2-2.7-.6-1.6-1.1-.9-2.3-.3.5-.9v-1.8c0,0,2.1,1.1,2.1,1.1l1.2.3h.5c0-.1.2-.3.2-.3l-.2-.2.7-.5,1.6-.5.4-2.1.6-.5Z"/>
    <path id="NO-09" d="M116.2,486.8h.3c0,0-1.1,1.8-1.1,1.8l-.8.5-.6-.2.6-.9,1.7-1.2ZM84.9,466.2h.9s2.9.9,2.9.9l.3.5-.3.2-.6,2.7.5.9v.4c0,0-.9,0-.9,0v.2c-.1,0,0,.8,0,.8h.3c0,.1.3.8.3.8v1s-.6.7-.6.7l-.9.2v.2s.5.2.5.2v.2s-.9,1.1-.9,1.1h2s0-.4,0-.4l1.7-.2.9-.4h.4c0,0,1.4-.8,1.4-.8l.3.3v.3c0,0,.5-.2.5-.2l1.3.3,1.2,2.5v1.1s-.6,1.5-.6,1.5l-1.2.3v1.7s1.1.6,1.1.6l-.5,1.2-1,.8.2,1v.5c-.1,0,.6,1.1.6,1.1l1-.3.8.5.3-.6,1.1.2h.6c0-.1,0,.8,0,.8l-.3.4.8.2.3.5.6.2.2,1.2.5.8.4.2.3-.9.6-.7h.5c0-.1-.1.6-.1.6l.3.2.2,1.3-.3.6h.8s.2.3.2.3l.7-.2.2.3-.2.4.7.5-.2,1.1-.7.8.2.9.3.2h0l.4.4h.5s.2-.3.2-.3l-.3-.7h.4c0,0,.6-1.1.6-1.1l-.3-.5h.7c0,0,1.1-1,1.1-1h.4c0,.1,0-.6,0-.6l1.2.2.4-.3v-.6s.9-1.2.9-1.2h.7c0,0,.3-.7.3-.7h.5s.7-.7.7-.7l.2-.4h-.4c0,0,.2-1.3.2-1.3l3.9-3.6v-.3c.1,0-.1,0-.1,0l.2-.5h.5c0,0,.6-1,.6-1h.5c0,0,1.1-.9,1.1-.9l.2-.4h.8c0-.1.4-.8.4-.8l-.4-.2v-.4c.1,0,.6-.3.6-.3v-.8c0,0,.6,0,.6,0l1-.4.3-.5h0l-.6-.4-.3.4-.6-.7-1.2-.2-.4-2.1-2.1-1.6-.8-2h-2.6c0,.1,0,.6,0,.6l-1.2.9,1.2.9-.7,1.4.3.2-.2.6-.6.3-1.3-1.2-1.3-1.8-1.1.7-.5.7-.8-.6-.3-.5h-1.3s-1.7-1.6-1.7-1.6l-1.4-.3-.6.4.8.2-.9.4-1.5-.5-.6-1.2-.3-.2-1.8-3.4-1-1v-.4c-.1,0,0-1,0-1l.5-.7-.8-1.3-.4-1.6-.6-.6-1-.3-1.3-1.7v-.2s2-.1,2-.1l-.8-2.8-1-.9-.3-1,.5-.8-.2-.6-.9-.7v-.4s-.5-.6-.5-.6h-.8c0-.1-.4.7-.4.7l-.6-.3h-.2c0,.1-.7-.6-.7-.6l-.2.2-1-.2h0l-1.6.5v.9c.1,0-.9,1.2-.9,1.2l-.5-.2-.5,1.5.4,2.1-.7,1-1.3.4.5.9h-.5s-.8,2.5-.8,2.5l-.2,1.3.4.9v1.9c0,0,1.4.2,1.4.2v-.2Z"/>
    <path id="NO-06" d="M104.7,407.1l.7-1,2.6,1.9.4.6h1c0,0,1.6,1.1,1.6,1.1l.4.6-.3.5.4.4,2.5,1.2,1.3.2.5,1.1,2.7,1.6.9.3,1.1,1.1,1.1.3.7,1.1-.3.9v.7c0,0,.6.4.6.4l.4,1.4.7.3.2.5-.3.5v1c0,0,1.3.7,1.3.7l1.8-.3.3.9v.4c0,0,1.7,1,1.7,1l.9.4h.6s-.3-3.3-.3-3.3l.4-.9.3.3,1.3-.8.2-.4-.4-.2-.4-.5h1.9c0,0,.6.9.6.9l.4,1.3,1,1.4.7,4.4,1.9,3.8v.8c0,0,.4.5.4.5l.9.3,1.6,1.3.9.2.7,1h0l-.5.5.4,1.2h-.3c0,.1-1.3,1.9-1.3,1.9h0l-.2-.5h-.6c0,0-.3,1.4-.3,1.4l-.8.6-.2.5.4,1.2-.3.4v.6s-.5.2-.5.2l.4,1.2v1.4s.6.3.6.3v-.3c.1,0,1.1.4,1.1.4l.6-.3h0l.3.7v2.2c.1,0,1.3.7,1.3.7l.2,3.2-.6.6-1.8.9-.8-.5.5-2.3v-1.8s-1.1-1.6-1.1-1.6h-.8s-.3-.7-.3-.7l-.7-.4-.8.2,1,.7.5.8h.4c0,.1-.3.9-.3.9h-2.9c0,0-.6.8-.6.8h-.6c0,0-.5-.5-.5-.5l-.4.3v.8c-.1,0-.9.6-.9.6v.5s-.2.2-.2.2l1.5,2,.7,1.4-.7.4-1.2-.2v.3c0,0-.4.1-.4.1l-1.4-.4-1.1.2.3,1.4h-1.8s-1.1-1.1-1.1-1.1l-.4-1.1h-1.5s.7-1.6.7-1.6l-.7-.6-1-3.2v-.6s-1.1-.4-1.1-.4l.2-.6-.2-.2.3-1.9-2.7-1.3v-1.2c-.1,0,0-.9,0-.9l-.3-.3.3-.6-1.3-1.2h-.7s-.5-.8-.5-.8h-.6c0,.1-.3-.3-.3-.3h.5c0-.1-.3-.6-.3-.6l-.2-1.7-.4-1-2.7-2.1-2.9-.4-2.2.3-1.1-.4h-1.7s-.9-.3-.9-.3h-1s-.7.2-.7.2l-.7.8-1.4.2-2.7,1.4-.5-.4-1.9-.4-2.6,1.1h0l1.5-2.6.4-2.3,1-1.6v-2.8c0,0,.9-4.4.9-4.4l-.7-.3-.7-.9-.3-1.5.2-.8-1.2-.8-2.1-.2.4-.3h0l1.1-.6.7-1,.9-.5.7.2.7-.4.2-.7-.3-1.2.2-.4,1-1.8,1.5-1.2,1.7.8h.9s1.6-2.8,1.6-2.8l.9-.5v-2.2Z"/>
    <path id="NO-20" d="M448.8,74.4l.5.8-1,.2v-.8s.5-.1.5-.1ZM444.4,69.5l.4.5.5-.3.6.3.5.8.6,1.5-.3.9v.3s1.1-.7,1.1-.7l.3,1-.3.2h-.3c0-.1-.9.8-.9.8h-.3c0-.1-1.6,1.2-1.6,1.2l-.4.4-.5.2-.9-.2-.9.2-.2-.2.8-2,.3-.5h.4c0-.1.3-.9.3-.9v-3.3c0,0,.6-.3.6-.3l.3.2ZM373,51.9l.5.2v1s-1.2,1-1.2,1h-.5c0,.1.3-.9.3-.9v-.6s.4-.3.4-.3v-.3s.5-.2.5-.2ZM312.2,47.2h.2s.3,1.4.3,1.4l-.2.7.4.2v.4c-.1,0-1,.5-1,.5l-.2-.5.3-.5-.4-.2v-.4c-.1,0,.5-.6.5-.6v-.6c0,0,.2-.5.2-.5ZM331.9,47.2l.2.2.2,2.2.3-.5v-1.5c-.1,0,.7-.4.7-.4l.4.5-.2.7.2.5-.3.4.4.5v.5s.2,0,.2,0v-.8c0,0,.3.2.3.2h.4c0-.1.3.4.3.4l-.3.8.6-.2.3-.5h.4c0,0-.7,1.8-.7,1.8l.6-.7.4.6.5,1.8-.3.7-.3-.2h-.3c0,.1-1.1-.3-1.1-.3h-2.2c0,.1-1.5-.3-1.5-.3v-.3c-.1,0-.5-.1-.5-.1l-.3.2h-.4s-.3-.6-.3-.6h-.7c0,0-.7-.8-.7-.8l-1.1-.3-.2-.8-.4-.4v-1c0,0,.6-.5.6-.5l.7.3h.3c0-.1,0,.4,0,.4l.4.6-.2-1.1-.4-.5.3-.4.6-.3.5,1,.3-.3-.3-.6v-.4c.1,0,.7,0,.7,0v1.5c.1,0,.2-1.5.2-1.5l.4-.2.5,1.6v-1.7s.5,0,.5,0ZM317.2,48.1l.9.8v.8c0,0-.8,2.7-.8,2.7l-.5.7h-.4c0,.1-.4-1.5-.4-1.5l.3-2.3-.2-1.1h.4v-1.2l.7,1ZM344.3,36.4v.4c0,0,.4.2.4.2l.9-.5-.3.6v.6c0,0,.6.2.6.2v.3c-.1,0,0,.2,0,.2l-.4.5v.7s-.1.3-.1.3v.5c-.1,0-.3.4-.3.4v.5c0,0,.1.4.1.4l1.3.6-.3.7.4.9v1.1c.1,0-1.1,1.3-1.1,1.3h-.3c0,0-.7,1.1-.7,1.1h-.6s-.5-.3-.5-.3l.2.5.6.3-.2.6-.3.2h-.4c0,0,.1.5.1.5l-2.1.6v.2s.7,0,.7,0l.3.4v.5c.1,0-.3.5-.3.5l-.7.4h-.4c0-.1,0,.2,0,.2l-1.1.8h-.6c0,0-1.3-.8-1.3-.8l-.2-.9.2-.2-.4-.6.3-.2v-.6c0,0,.6-.5.6-.5v-.4c0,0,.4-.9.4-.9v-1.2s-.8,2.2-.8,2.2l-.9,1.2-.6-.4h-.3l-1-1v-1.1s-.7-.3-.7-.3l-.4-.8.2-.2.4.6.9.3.6-.2-1-.7-.3-1.3.7-.8h.3s.4-.7.4-.7l.7.2-.3-.6.6-.8,1.1-.6.8.6.4-.6-.3-.4v-.4c-.1,0-.5-.2-.5-.2v-.4s.3-.3.3-.3h.3s-.2.3-.2.3l.5-.2.5.2.7,1.8-.5,2.1.7-.5.2-1.8.7-.5-.2-.2-.6.3v-.5s-.4-.8-.4-.8h1c0,0,.5.6.5.6h.5c0-.1.3.5.3.5l.3-.3-.5-.7h-.3c0,0,0-.3,0-.3l1-.6.8.6.3.8h.4c0,0,0-.3,0-.3l-1.1-1.2.6-.4h-.2c0-.1,0-.2,0-.2l-.2-.3h-.6c0,.1-.1-.6-.1-.6l.5-.3v-.5c.1,0-.9.3-.9.3v-.2s-.5-.4-.5-.4l.5-.5.8.2.4-.2.2.2ZM381.6,32.8l.3.2v.6c0,0-.8.9-.8.9h-.5c0,0-.3-.7-.3-.7v-.7c.1,0,1.4-.8,1.4-.8v.6ZM349.3,30.7l.2.8-.2.5-.2.6v.5c0,0,.4-.2.4-.2l.7-.7.8.3h.5c0-.1,0,.2,0,.2h.8c0,0,0,.5,0,.5h.6s.5.6.5.6l.4,1.3.4.6.3.6.2.8-.6,1.3-1.3,1.3-.3.7v.7c0,0-.3.4-.3.4l-1.3.6-1.9-.2-.7-.8-.3-1.3-.6-.3.3-.4-.4-1.3-.4-.2v-.5c0,0,.2-.6.2-.6l.2-1.1-.8.3.3-.5.9-.6-.2-.2h-.4c0,.1-.5-1.3-.5-1.3l.3-1.1.3-.2v-.7s.4-.3.4-.3h1.9ZM342.2,25.7l.5.2-.2.5v.4c.1,0,1.1-.1,1.1-.1l-.2.5.6.4.5.7v.9s-1.3-.3-1.3-.3v-.3c-.1,0-.6.4-.6.4v.2s1,.4,1,.4l.2.4-.3.2-.6-.3v1.3s-.6.6-.6.6l-.7-1.1v.4c-.1,0,.3,1.5.3,1.5l-.4.3-.4-.5v.8c0,0-.7,0-.7,0l.5.6-.2.5h-.3c0,.1-.6.1-.6.1l-.8-1.2v.7s-.3.3-.3.3l.5.2-.6.6h1c0,.1-.6.9-.6.9v.6c-.1,0-1.2.1-1.2.1l.2.4h.5c0,0-.8,2.2-.8,2.2h-.2c0,0-.4-1.1-.4-1.1l-.6-.3-.2.2.6.3h-.2s.2.8.2.8l-.2.6-1.3-.5-.3-.2h-.3c0-.1.1.6.1.6l.7.3v1.1s-1.1.4-1.1.4l-.2-.6v.7c-.1,0-.8.2-.8.2l-.2-.4-.7.6.3-1.6h-.4c0,.1,0-.3,0-.3h-.2s-.2.3-.2.3v1.5s-.1.5-.1.5h-.2c0,0-.2-1.4-.2-1.4l-.2-.6-.3-.5h-.3c0,.1-.5.2-.5.2l.3,1.8-.2.3h-.4s-.6.5-.6.5h-.5c0,0-.7-1.6-.7-1.6l-.3.9v1c0,0-.6.2-.6.2l-.3-.2v-1.1c.1,0,0-.2,0-.2v.5c-.1,0-.4.4-.4.4l-.7.5-.5-.5.2-1.5h-.3c0-.1-.7.6-.7.6v1.4s-.3.1-.3.1l-.2-.2h-.8s.2.5.2.5v.2c-.1,0-1-.5-1-.5l-.3.2v-.4s.5-.6.5-.6v-.5c0,0,.3-.8.3-.8h.4c0-.1.3-.6.3-.6l.8-.2.5-.6v-.3s-.4-.2-.4-.2l-.4.2v-.5s1.4-.8,1.4-.8l.2-.5-.2-.2-.4.2-.7-.3-.9.3v-.3s-.6.5-.6.5h-.4c0,0-.2.9-.2.9l-.2-.5-.5-.3-.3.8h-.4c0,0-.4-.5-.4-.5l.2-.2-.2-.5.2-.2h.3c0,0-.1-.2-.1-.2h.6s0-.6,0-.6l-.6-.3h-.5s-.8-.4-.8-.4l.4-.4-.2-.2.4-.5h.3c0,0,.2.8.2.8l.6-.2h.6c0,.1.1.3.1.3h.6c0-.1.2,0,.2,0v.5c-.1,0,.3.2.3.2l.5-.6.8.3.2-.2-.2-1.1-.6-.4.2-.2.6.3v.3c-.1,0,.6.7.6.7l1.6,1.2.2-.2-.2-.7-.4-.7.3-.4-.7-.7.2-.9.2-.9h.5c0,0,0,.4,0,.4l.3.7h0c0,0,.9,1.4.9,1.4v-.7c.1,0,.1-.5.1-.5l.5-.6v-.6c0,0,.3,0,.3,0l.6,1,.4-.2h.3c0,0-.2.7-.2.7h.6c0,0-.2.4-.2.4l.2.2h.2c0,0-.7.4-.7.4l-.6.2-.3.5.3.2v.9s.9-.4.9-.4l.2-.3.7-.6.2,1.6.3.6.2-.8h-.2s-.2-.3-.2-.3l.5-.4v-.4c0,0,.3-.1.3-.1l.2.4h.6c0,0,.4-.4.4-.4l-.5-.2-.5-1.1-.4-.2.5-.3-.2-.4h-.5c0-.1,0-.6,0-.6v-.4s-.5-.2-.5-.2l-.4-.9.2-.4.3-.3h.4s.3-.5.3-.5l.7-.2v.3c0,0-.4.8-.4.8h.2s.2.4.2.4l.3-.6.6.6-.4.8,1.5-.2v.9c0,0-.9.8-.9.8v.2s.8-.1.8-.1l.3.6v.3c-.1,0,.1.2.1.2h.6c0-.1,0-.7,0-.7v-.5c-.1,0,0,.3,0,.3l.2-.4.3-.2.3-.5-.2-.4.2-.3h.5c0,0,.3,0,.3,0l.3-.8v-.5c-.1,0-.5-.6-.5-.6l-.6-.9-.4-.2.6-.7v-.4s.3-.3.3-.3l.9.5,1,.9.2-.2-.5-1.2.2-.4.6.9.2.9h.3s.5,0,.5,0l.5.2.2-.2-.5-.5.3-.7-.4-.7.2-.3v-1.6c0,0,.7.9.7.9ZM357.2,24.1l-1.4,1.3-.5.2v-.5c0,0,1.9-1,1.9-1ZM362.6,18.1l.4.3h.5c0,0-.2.3-.2.3h-1.1s-1.2-.7-1.2-.7l.3-.5,1.3.6ZM353.4,17.2v.3c0,0-.3.5-.3.5v.2c0,0,2.8.4,2.8.4l-.3.2h-1.3c0-.1-1,.2-1,.2l.3.5-.4.4v.4s1.5-.4,1.5-.4l.9.2.5.4-.8.4h.6c0,.1-.1.3-.1.3l-1.2.3.4.2-.3.3-.8-.4-.2.3h.2c0,0-.1.6-.1.6h-1.1c0,0-.4-.2-.4-.2v-.3s-.6,0-.6,0l-.4-.4.7-.3v-.2s-.3-.3-.3-.3h-.3c0,.1-.7-.1-.7-.1l.8-1.2h1.2c0,0,0-.3,0-.3h-.9c0-.1-1.2,0-1.2,0v-.4s-.7-.3-.7-.3l.7-.3v-.3c.1,0,.9-.1.9-.1l-.2-.4h-.5s.1-.4.1-.4l1.3-.4.3.2.2-.2.6.4ZM367.8,16.1l.3.8.8-.4.2.2-.7,1.5h.2c0,.1-.6.5-.6.5l-.4-.3v-.4c.1,0-.4-.8-.4-.8l.4-1.1h.4ZM353.3,14.3l.3.6.8-.6.3.2v.3s-1.1.7-1.1.7v.4c0,0,.4,0,.4,0l-.6.4-.5-.2h-1c0,.1-.3-.3-.3-.3v-.9c0,0,.2-.2.2-.2l.5.2.3.4h.5c0,0,0-.4,0-.4l-.5-.4v-.3c0,0,.3.2.3.2l.4-.3ZM364,13l.4.2v.4c0,0,1.5-.1,1.5-.1l-.8.9v.3l-.6.6.5.7-.4.5v.5c0,0-.1.1-.1.1l-.8-.2v-.3c-.1,0-1.6-.8-1.6-.8v-.5c-.1,0,.8-1.3.8-1.3l.7.4v.2c0,0,.3.5.3.5l.3-.8-.9-.8v-.4s.4-.3.4-.3h.2ZM410.3,12.7l1,.4-1.1,2.4.6-.2-.2.7h.5s.7-1.1.7-1.1h.2s.2.6.2.6l-.3.4.4,1,.4-.3-.2-.5h.3s0-.3,0-.3h.2v.8s.3-.2.3-.2l.7-1-.2-.2.8-1-.2,1.1.3.4.6-1.2.5-.5h.3s0,2,0,2l1.4-2.2.4-.2.9.4v.8c.1,0,.4.2.4.2v1.1c-.1,0-1,.6-1,.6v.5c.1,0,.2.7.2.7v.3c0,0-.5,2.1-.5,2.1l.6-.3.2-.6.6-.3.5-.9,1.7.2,1.7.6.4,1.1-.6,2.5-.6,1.1-.7.3-.8-.4h-.6c0,.1.2.4.2.4l1.6.4-.8,1.2h-1.2c0-.1.6.5.6.5l-.3.7h-.3c0,0-1.4-.8-1.4-.8h-.4c0,.1,1.6,1.4,1.6,1.4l-.7.6-.3.6-2.2-.2-.2-.2h.3c0-.1-.2-.3-.2-.3l-.4.3v.5s-.7-.3-.7-.3l-.4-1-.6.3v.6c0,0-.5.3-.5.3l-1-.5-.2.3h-.7c0-.1-.4,0-.4,0l-.5-.4-.4.2,1.5.8-.4.6-.5.2-.2.8,1.7-1.2h.7c0,0,1.7.4,1.7.4v.6c0,0-.4.5-.4.5l1.1-.8,1.2.9-1.2,1.6-.8.6-2.6,1.3.5.2v.4s-1.3.8-1.3.8h-.7c0,0-.4.4-.4.4l-1.1.3.2.3h1c0-.1,2.6-1.1,2.6-1.1l3.4-2,2-1.9h.6c0,0,.3,1.3.3,1.3l-.6,2.8-.9,1.7-2,1.9-1.9,1.4-1.1,1.3-1.1.6.2.3.4-.2-.4,1.9h.5c0,.1.5-1.6.5-1.6l.9-1,.8-.3-.3.6.2.3,1.5-.5.9-.6h.7c0,0-.1.7-.1.7l-1,.3-1.3,1.7v.6c0,0,1.2-1.5,1.2-1.5l1.4-.8.8-1h.5c0-.1.2.3.2.3l.9-.7.3.2v.5s-1.1,1.3-1.1,1.3v.4s-.6.9-.6.9l-.2.8h.4c0,.1.6-.5.6-.5l.4-1.7,1.1-.8.7.3-.2,1.1.4.5.5.2v-.6s-.3-.5-.3-.5l.4-1,.6-.4v-.4s-.7.2-.7.2l-.6-.2-1.1-1.6.5-1.6.7-.9.6-2.8v-1.4s1.8.5,1.8.5l.2-.3-.8-.3-.5-.5-.5-1.2v-.4c0,0,1.1-1.6,1.1-1.6l1.2-.6-.2-.7.3-.8,1.3-2,1.2-1.1,2-.3.9.6h1.1s.8,1,.8,1l1.1-.2.5.3.6,1.1-.2.3.3.5-.3.4.4.3,1.8.3-.3.3-.2.8-1.4,1.2v.5s.7-.4.7-.4l.4.5.2-.3h1s-1.6.8-1.6.8h-.4s-.2.3-.2.3l.5.5.6-.2.3.2-2.1,1.3v.2s.3,0,.3,0l.4.3-.8.4h.4c0,0,.8-.2.8-.2v-.6s.3,0,.3,0v-.3s.7-.5.7-.5h.5s.5-.6.5-.6h1c0,.1.8-.2.8-.2l2.1-1.4,1.2.2.3.2v1.3c-.1,0,.2.3.2.3l-.3.7v1s-1.6,1.5-1.6,1.5v.4c0,0,2.1-1,2.1-1l1.2-2.2h.3s.2-.3.2-.3v-.6c.1,0,1.5-.3,1.5-.3l.9.2,2,1.5-.2.3-1.6.9v.2s1.5-.2,1.5-.2l.8.3.3.5,1.3.8-.3.6v.5s-.9.8-.9.8h-.6s-.2.8-.2.8l-2.1.2v.4c0,0,.9.5.9.5h-1c0,0-.7.3-.7.3l1.3.4v.5c.1,0,.9-.7.9-.7l2.8-1.3,1.6-.3v.3c0,0,.6.1.6.1l.2-.2.5.4h.9s0-.5,0-.5h.3s.3.7.3.7l-.3.5-.5,1,.7.2,1.8,1.5-.3,1v.4c.1,0,1.1.7,1.1.7l.9-.8v.2c0,0,.5,0,.5,0l.6-.4.7.5v.6s.5.4.5.4l.5,1.1-.2,1.4h.5c0,0-.2,1.1-.2,1.1l.3,1-.3.7.4.8-.6.4-.7-.2-.5.7-1.3.3-.3.3-.3-.5-1.6.5-.2.6-.5-.2-.8.2-.7-.2-1,.5-.5,1.4-1.8.4-.5.8-.2.8.2.4h.3s0,.8,0,.8l-1.2.8-1.2.3-.4.6h-.6c0,0-.9.7-.9.7l.2.4h.6l.3.4h-.5c0-.1-.5,0-.5,0l-.2-.5-2.8.8h-1.3s-.6-.6-.6-.6l-1.9-.4-.3-.3-3-.6-.5.3-1.1-.3-.7-.6h-1.8c0,0-1.3-.8-1.3-.8l-.6.4h-.8s-.6-.6-.6-.6h-.8c0-.1-.4-.5-.4-.5l-.8.2v-.5s-2.3-1.1-2.3-1.1h-.9c0-.1-1.3.2-1.3.2h.2c0,0,0,.6,0,.6v-.2c0,0,2.6-.1,2.6-.1l.3.3-1.5,1.2-1.4.4v.4s1,.4,1,.4l.3.4.7-.4h.6c0,0,.7-.2.7-.2l.8.3v.6c.1,0-.3.1-.3.1l-1.2-.3v.2c-.1,0,.4.4.4.4h.8s.3.3.3.3h.9c0-.1.3.2.3.2l.8.4h.5c0,0,.9.4.9.4l.3-.4h.4c0,0,0,.8,0,.8l.2-.2h.5c0,0,.4.6.4.6l-.7.5-.2.4v.2c.1,0,.6,0,.6,0l.4-.4.6.4.2-.3.7.3.5-.5,2.1.9h.8s0,.6,0,.6h.3c0,0,2,.6,2,.6l.2.6-.4.5-2.2,1.5h-.4c0,0,.1.4.1.4l-.9.3v.3s-.4.3-.4.3l.3.3v.3c0,0-.9,0-.9,0l-.2.4.5.2h.5c0,0,.8-1.5.8-1.5l.3-.4h.3s0-.5,0-.5l.5-.4h1.1c0,.1.5.6.5.6h.4c0,.1.7-.4.7-.4l.5.3v.3c0,0-.2.2-.2.2l.6.7-.3,1.3.3.2.3.8-.9.3.4.2v.3c0,0-.3.2-.3.2l-.4.8-.3.2v.7s-1.1.2-1.1.2l.2.5h.4s-.2.5-.2.5l-.5-.2v1c-.1,0-.8,1.3-.8,1.3l-.6-.4-.3.4h.5c0,0,0,.5,0,.5l-1.1,1.8,1.2-.7.4-1,1-.7.4-1.1.5-.5,1.4-.4.4.2.5-.2.7.5,1.2-1.4,1.7-.7.7,1,1.3-.5h.3c0,.1,0-.4,0-.4l-.8-1.4.2-.6-.5-1.3.2-.8.2-.3.6-.2.5.3.3-.3.2.2.2-.3h.5s0,.5,0,.5h.3s.2.3.2.3l-.3.5-1.2.6v.3c0,0,.5-.3.5-.3v.3c.1,0,.6-.3.6-.3l.3.2.4-.4h.3c0,.1.3,1.6.3,1.6v.8c-.1,0,.4,1.1.4,1.1l-.2.3.3,3.4-.9.7-.7.2.9.2.3-.3h.7s.3-.3.3-.3l-.3-2,.5-.9-.5-.9v-1c.1,0-.2-.7-.2-.7v-.8c.1,0,1.4-.4,1.4-.4l1.5.9-.3-.6.7.2.2.3.5-.2h.2c0,.1-.5.4-.5.4v.2s.3.3.3.3h.2s-.2-.3-.2-.3h.4s0-.3,0-.3l.4.2v.6c0,0-.6.2-.6.2v1c0,0,.4,0,.4,0v-.4l1.3-1,.3.2.9,1.5.4,2.3.8,1-.4.6.4,1.5v1.1s-.3,2.3-.3,2.3l-.2.4-.8.7-.8.3-2.7-.5h-2s-1.6-2.2-1.6-2.2l-2.7-2.6-1.4-.9-1,.4v.7c0,0,.8,0,.8,0l.8,3v1.7c-.1,0-.8.4-.8.4l-.2.5v2.3c-.1,0-2,2.4-2,2.4l-.7.3-.5-.6-.9-.3-1.1,1.1-1,.3-.7,1.5-1.8,1.6h-.6c0,.1-.2-.4-.2-.4l-1.7.4h-.4c0-.1-1.5,1-1.5,1l-.3,1v.9s.7,1.1.7,1.1l-.2.5v1.6c0,0-1,2.7-1,2.7v.4c.1,0-.5.7-.5.7l-.5,1.2-2.1,2.6-2.7-2.9-.8-1.6.4-2.7v-2.3s6.1-7.6,6.1-7.6l1.9-3.6-2.6-7.3-.5-2.4-11.5-5.6-1.2-1.5.3-1.4-2.9-1.8-2.8-4.2-.4-3.6-2.5.7-.8.6-1-.5h-1.1c0,0-.9.8-.9.8l-.5,1.6h-1.5c0,.1-.4.4-.4.4l-.8,1h-.7s-.5.5-.5.5l.3,1.2-2.6,1-.6.6h-.5s-.4.3-.4.3l-.6-.4-.7-.9-1.2.4h-.3c0-.1-.2-1.3-.2-1.3h-1s-1.1.7-1.1.7l-.4-.2-.3-.6-3.2,1.1-.2.9-.7.8v.9c.1,0-.4,1.3-.4,1.3l-2.1,1.7v.9s-.9,1-.9,1v.7c-.1,0-.6.2-.6.2l-.5,1-.9.5-1,.2-.5.5-.4,1-.5.4-.3.6,1,.7.3,1.7-.6,1.7-1.5,1.1.6.9-.4,1.5.2.9-.5.4-.4,1.4.6,1.8-.5,1.5-1.1,1.9v1.4c0,0-.6,1.9-.6,1.9v1.4s-.2.3-.2.3l.7,2.9-.3,1v1.6s.5,1,.5,1v.8c0,0,.4.6.4.6v.5s-.8,1-.8,1l-1.1,3.7-.5.6-.6.4-.7-.2-.9-.8-2.9,1.9-2.2,2.7-.5,2.1-.3,3v1.8c.1,0-.3.2-.3.2l-.4.7-.3-.3-.8.6-.4-.2-.8.3-.2,2.4-.7-.3-1.2-3.2-2.7-1.9-5.5-1.9-.8-.8-.9-.3v-1.6c0,0-1.2.4-1.2.4l-1.4-2-1.8-.4-1.5.7-.7,3-.9,1.9-3.6.6-4.3,2.7-1.9-2.6h-3.9c0,0-4.1-2.4-4.1-2.4l-2.5,1.1-.6-4.7-2.3-4-.3-1.7-3.5-5.7,1.5.4,4.1-.2,2.3-1.3.5-.7v-.6c0,0,.3-.7.3-.7v-2.6c.1,0,0-1.5,0-1.5v-.4c-.1,0-.7-.4-.7-.4l-1.6-3.9-.6-.4v-1.1s-.4-.5-.4-.5l-.2-.9.3-1.3-.5-1.1,1.9-.5,1.6-.9.7-.2,1.5-.2,1.4.3-.3-1.5.7-.2.5-2.5,1-.7.8-1.2-.9-.8-1.6.6-2.7-2.1-.3-1v-1.2c0,0-.2-1.1-.2-1.1l-1.4-1,.8-1.7.8-.8-.4-.6h-.9c0-.1-.5-.7-.5-.7l1.2-1.2v-.5s-1.2-.6-1.2-.6h-.6c0,.1-2.5-1.3-2.5-1.3v-1.1c0,0-.9-1.5-.9-1.5v-.7s.5-.5.5-.5v-.7c0,0-.6-.7-.6-.7l-1-2.5v-.5c.1,0-.5-1.9-.5-1.9l-.6-.3-1.1,1.4-.9-.3-.5,2-.9.3-.3-.5-1-.4-.2-.7-.8-.6v-.3s-.8-.4-.8-.4l-.2-.6.3-.5h-1.2c0-.1-.4.3-.4.3h-.4s-.6-.4-.6-.4l-.6.4v-.4c0,0-3.6-1.4-3.6-1.4l.7-.9.8-.7.6.2.3-.6,1.1-.4.3,1.1-.2,1.3,1.1,1.3-.3-.5.3-.2-.4-.6.4-1.6-.3-1.9.3-.6,1.1-.5v1.7s2.2,2.5,2.2,2.5h.3c0,0-.1.8-.1.8h.7c0-.1.5,1.8.5,1.8l.5.5.5,1.3.2-.2v-1.3l-.6-.7v-.8c-.1,0,0-.3,0-.3l.6-.2h-.7c0-.1-.6-.8-.6-.8l-.2-.5.2-1,.8-.6,1.7-2.3h.6s.4.4.4.4v.7c-.1,0-1,.9-1,.9v.5s1.7-1.7,1.7-1.7h.3s.3.4.3.4v.9s-.2.5-.2.5v1.3c0,0-.2.5-.2.5h.2c0,0,.4-.3.4-.3v-1.6s.6.3.6.3v-.6c-.1,0,0-.2,0-.2h1.3c0,0,1,.5,1,.5l-.5,1.3v.9s0,.3,0,.3v.4c.1,0-.5,2.8-.5,2.8l.4.3-1.1.8.4.2,1.2-.4.4.2.3-.4,2.4.7,1,.6v-.3c0,0-1.4-1.2-1.4-1.2l-2.5-.5v-.5c0,0,.5-1.1.5-1.1v-1.9s.3-1,.3-1v-.3c0,0,.1,0,.1,0l1.4.3.3.4h.6v1c0,0,.7-.5.7-.5l.9.5-.6.9.6-.2.4-.6,2.5.7h1.6s.9.5.9.5v1.1c0,0-.8,1-.8,1l-.4.2-.3.8-.6.5.2.2-.6.5-1.7.6h-.8c0,0-.4.4-.4.4l-.8.3h-.7c0,0-1.2-.3-1.2-.3l-.4.5-.8.2v.5s-1.2.6-1.2.6l.2.9.5-.7,1.2-.9,4.3-.7.8-.5,2.1-.8,1.5-1.5h.4c0-.1.3.2.3.2l-.2.2.2,1-.2,1.4.2.8-.4.7h-.3c0,0,1.1,1.2,1.1,1.2h.3c0,0,.3-.7.3-.7h.2l.5,1.5v1c0,0,.5-.1.5-.1v.2c.1,0,0,.5,0,.5l-1.3.9-.5,1h.3s1-1,1-1l.2.4-.3.3h.4c0,0,.4-.8.4-.8l.3-.2h.4c0,0,.6-.4.6-.4l.5-1.2.6-.2v.6c.1,0,.3.1.3.1l.9-.2.3.7.8-.7.3.3.4-.8-.2-.4.8-.6v-.4c-.1,0-1.1-.2-1.1-.2l-1.8.2-1.9-1.2-1.4-1.7,1.6-.7h1.5c0,0,.3.1.3.1l.7-1.1-1.8-1.7v-.3c.1,0-.2-.4-.2-.4l1.7-.3-1.9-.3-1.2-1.4h.3s.2-.4.2-.4l.5.3h.7c0,0,.6-.4.6-.4h1.1s.2-.4.2-.4l.7-.2h1s-1.7-.4-1.7-.4v.2s-1.8.2-1.8.2l-.6-.3.5-.4.9-.2.4-.3.8.3v-.2s-.6-.4-.6-.4v-.2s.7-.3.7-.3h.6c0-.1,1.1.2,1.1.2l1-.4.2-.3-1,.3-1-.5.6-1h-.1c0-.1-1.1.7-1.1.7v-1c.1,0,3.5-4.1,3.5-4.1l1.2-1.1.6-.3v.4c.1,0,.2-.4.2-.4l-.3-.8,1.5-1.4,1.5-.6,1.5-.2,1,1,1.3.3h.5c0,0,0,.2,0,.2h.7s.2.4.2.4v.5c-.1,0,.5.5.5.5h.2c0,0-.2-1.5-.2-1.5l-.9-1.3-1.8-1.2h-.5l-.2-.3.2-.7.9-1,.6-1.3.5.2v-2.9c.1,0,.8,0,.8,0l-.2-.8.4-.5.3-.2h.8c0,.1.6.2.6.2v.3c0,0,.9-.1.9-.1l.2.3v.5s1.4.9,1.4.9v.6c.1,0,.8.9.8.9h.5s.8-.8.8-.8l-.2-.4v-.3c0,0-.4-.4-.4-.4v-.2c0,0-1-1.3-1-1.3l.4-.4.9.2-1.4-.9-.8-.3-.4-.4.3-.2v-.9s-1.3.2-1.3.2l-1.5-.3v-.3s-.6-.2-.6-.2l-1-.7v-1c.1,0,.5-.5.5-.5l-.5-1.7,1.1-.8.7-.8.2.4h.4c0,.1-.1,1-.1,1h.6s.2.2.2.2l-.3.7v.2c.1,0,1.4.5,1.4.5l1.3,1.3.5-.4v-1l-.2-.3-.7-.2v-.3c.1,0,.4,0,.4,0l-.5-1.7h.4s.1-.3.1-.3l1.3.3.5-.3-2.4-1.4v-.2s1.1-.7,1.1-.7h-.9s-.2-.3-.2-.3v-1.4s.5-.3.5-.3l-.7-.4,1.1-.7.3-.4h.9s.2,0,.2,0l-.4.9v.4c0,0,.6-1,.6-1l.9-.4-.2,1.3.4.3v.6s.4,0,.4,0l.2.2.3.7-.6.3v.4s.7,0,.7,0l.8-.7.3-.2.5-.9v-1.1c.1,0,.9.1.9.1l.5.9-.3,1.1-2.2,2.6.8-.3.8.5.2-.3.3-.5.5-1,1-1.2.9,1.4h.4c0,0,.6,1.5.6,1.5l.3,2.4-.3.4v.3c.1,0,.4-.2.4-.2v.2c.1,0,.5-.8.5-.8l.7.9v-1.1c-.1,0,0,0,0,0l.4-1v-.5c0,0,0-.8,0-.8l.6-.5v-.8c-.1,0-.8-1.5-.8-1.5l-.5-.3v-.6c-.1,0,0-.9,0-.9l.5-.4.4.3v.3s.4,0,.4,0l.9.4v.6c0,0,1.6,1.5,1.6,1.5l-1,1.4-1.2,1v.2c0,0,.5,0,.5,0v.7c-.1,0,.2-.2.2-.2l.5-1.2.2-.2v1s1.7-2.3,1.7-2.3h1.4s0,.6,0,.6l-.4.2.6.3.2.4v.7c-.1,0,.3-.3.3-.3v-1s1.1-.6,1.1-.6h.7c0-.1-.2.3-.2.3h.6c0-.1-.5.8-.5.8l-.5.3v.2s1.3-.3,1.3-.3l-.6,1.2-.6.7h-.4s0,.4,0,.4h-.3c0,0-.2.1-.2.1l-.3,1.7-.6.4-.2-.2-1.3.6-.4,1.1.5.4,1.1-.9-.2,1.5-.3.2v-.6c0,0-.4,0-.4,0l-1.3,1.6h-.6c0,.1-.1.6-.1.6l-.8.9-1.1.2.2.6-1.2,2.2-1.3,1.2-.2.9-1.6,1.4-.6.2-.2.4v.4c0,0,2.1-.6,2.1-.6l.3.4-.4,1-.9.3-1.3-.3-.2.3.4.3-.2.3.2.3,2.2-.4v.7c.1,0,.2.5.2.5l-.3.7-.8.9.2.4,1.1.2v.8c-.1,0-.4.2-.4.2l-.8-.2v-.8c.1,0-.4.1-.4.1l-.9,1.8-.8.6.4.2.9-.6-.7.8v.7s-.4.5-.4.5h.4s1.1-.7,1.1-.7h.5c0,.1,0,1.8,0,1.8l-.7.4-.9,1.2h-.5c0,0-1.6,1.3-1.6,1.3v1.2s-.3.3-.3.3v.5c0,0,.6.7.6.7l-.4.3-.4.9v2.2s0,.7,0,.7l1.2.5v.9s.3,0,.3,0l.3-.4v-1.1c.1,0-.7-.5-.7-.5v-1.2c-.1,0,.6-1.6.6-1.6l.3.2.6-.6.2,1-.6.3v.6s.5-.1.5-.1l.6-.8.5.4v.4c-.1,0-.6,0-.6,0l-.2.4-.6-.2v.9c0,0,.4.9.4.9l.8.5.5-.8.9-.6.3-1.5-.2-.4.6-.7.4-2h.1c0-.1.1.5.1.5l.7-.7.7-1.1v-1.3c.1,0,1.1-.7,1.1-.7l.5-.7-.3-.3.6-1h-.5c0,0-.3.1-.3.1l-.5-.5-.6-.2v-.3c-.1,0,.1-.4.1-.4l.6-.3v-1s.9-.7.9-.7l.6-.3.3-.8h-.3c0-.1.7-.6.7-.6v-.4c0,0,.6-.7.6-.7v-.7l.4-.2.3-.6v-.8c.1,0,1.4-1.1,1.4-1.1l1.7-2.6,1.1-.6v-.4c0,0,1-.9,1-.9l-.2-.9.7-1.5v-1.1c0,0,.5-.5.5-.5l-.3-.4v-.6c.1,0,.7-.7.7-.7l.2.5h.3s.3-2.2.3-2.2l1.6-1.1.3-1.2.4-.2v-.4s1.5-2.3,1.5-2.3l2.3-3,.8-.8h.9s.6-.4.6-.4v-.4c.1,0,.7.1.7.1v.4c-.1,0,.3,1.1.3,1.1l-.4.7.5.4-.3,1.3-.8,1.2v1.1c0,0-.1.2-.1.2v.2c0,0,1.1-.7,1.1-.7h0c0,.1,0,.8,0,.8l-.3.2v.9c0,0-.6,1.2-.6,1.2l.2,1.4-1.4,1.5-1.3.9-1.8.7-.4.8-1.1.8h.4c0,0,2.9-1,2.9-1l1.2.4.7.6-.2,2.4-.4,1.1.2,1-1,1.6v.7l.2.3.2.5.2.4-.9,1.2-.3,1.4.4,1.2-.6.4v.5s-.3.3-.3.3v.5s.6.5.6.5l.3-1.4.6-.5.5.5h.3c0-.1-.4-1-.4-1l-.3-.2.6-1.3,1.3.8.4-.2v-.6c0,0,.5-.3.5-.3l-.2-2.3.9.4.2-.7.6.8h.5c0,.1.6,0,.6,0l.2-.3.2.3-.5.9.6.2.8-.9.4-.2,1,.7v-.7c.1,0,0-.3,0-.3l-.8-.2-.2-.8h-.5c0-.1-.1-1-.1-1l-.6-.8,1-.5-.2-.7h-.3c0,.1-.4-.1-.4-.1l.3-.7.6-.9.2-.5.4-.2.4.2.4.6,1.5.3.8.6v-.2c.1,0-.2-.9-.2-.9l-.7-.3-.7-.7h-.5s-.5-.5-.5-.5v-.9s.6-.6.6-.6l-.5-.4v-.3l1,.3.2-.3-1.6-.8.5-1.1.2-1.4.5.3,1.8-.2.7,1.1.4-.4v-.8c0,0-.9-.6-.9-.6l.2-.5v-2.7c.1,0,1.3,0,1.3,0l1.4.9,2.2.5h1.2s-2-.7-2-.7l-1.4-1v-.3s.8,0,.8,0v-.5c0,0,.4-.3.4-.3l-1.1-.3v-.6c0,0-1.2,0-1.2,0l.6-1.5-.3-.2-.9,1.1-.5.2-1.9-.3-.6-.4v-.4c-.1,0-.7-.2-.7-.2l-.2-.7.4-.3v-.8s.3-1.2.3-1.2h.8c0,0,1.6,1.6,1.6,1.6l.6-.3h-.3c0-.1-.3-1.4-.3-1.4l-.6-1-.7-.3-.3-.4.3-.7.7-.7h.3s1.4.9,1.4.9v.3c.1,0,.9-.2.9-.2l.6.5h.6c0,.1.2,2.7.2,2.7h.5s.3-.2.3-.2l-.2-.4v-1.5s.3-.7.3-.7l-.3-.6-1-.8v-1c-.1,0,0-1.1,0-1.1l1.2-1.1.7.6h.3c0,0,0-.8,0-.8l-.2-.6.2-.4h.3s.5.6.5.6ZM378.7,10.2l.3.2v.5c-.1,0,.6,0,.6,0l.2-.6h.4c0,0,.3-.2.3-.2l.5.2v.3c0,0-.6,2.2-.6,2.2h.3s0,.4,0,.4l1.2-1h.1c0,0-.6.8-.6.8v.3s.7-.2.7-.2l.8-1,.3.9.3-1.2.4-.3.8.7.2.8-.4.6-.4.2-.2.6-2.2.5v.4c.1,0,.5,0,.5,0l1.5,1.7-.2.4h-.4c0-.1-.3,0-.3,0l-.3-.2v.3c-.1,0,0,.4,0,.4h1.2s.2-.3.2-.3h.8c0-.1.3.2.3.2l.7-1.6,1.7-.9h.2s0,1.2,0,1.2l-.8,1.4-.8.2v.6c0,0-1.6.9-1.6.9h-.4c0,.1-.4-.2-.4-.2v-.7c0,0-.5.1-.5.1v.4c.1,0-.2.3-.2.3v.5c-.1,0-1-.5-1-.5l-1.2.2-.5-.8-.7,1.3h-.3c0,.1.3.4.3.4h.4c0,0-.1.2-.1.2l.3.2-.8.2-1.2-.5v.6c0,0-1,.3-1,.3l-.8-.8-.5-1v-.3c.1,0-1.2-.9-1.2-.9l2.4-1.6v-.4s-.9,0-.9,0l-.3-.3-.9.7-1,.4h-1.1c0,0-.5-1-.5-1l.4-.6-.2-.6,1-.4v-.2s-.7-.5-.7-.5v-.7s.6.3.6.3h1.5c0,0,.1.2.1.2l.6.2v-1.5s.5.7.5.7l.3-.5h.3c0-.1.8.3.8.3l-.3.8.9-.5.7.5.8.9v.3s.3,0,.3,0v-.5c.1,0-.7-1.1-.7-1.1l-1.6-1.5h.5c0-.1-1.3-1-1.3-1l.3-.7.4.7.7-.7.5-.2.3-.7h.2c0,0-.1.7-.1.7Z"/>
    <path id="NO-04" d="M129.6,366.8l.6-.9-.2-.6.3-.3-.3-.2.3-.6,1,.5.5-.3.2-1.4,2.2-1.1-1-4.5.3-.3v-.7c-.1,0,.3-.5.3-.5h.3l.8-2.3.8-1.1.3.6,1.7-.3,4.2,1,1-.5h.5s.6.3.6.3v.6l.4.2.8-1.1,2.1-.6,2,1h1.1c0,.1,0,.5,0,.5h.3c0,0,0,1.3,0,1.3l.4.7v.8c.1,0,.8.2.8.2v1.1c.1,0,.8.2.8.2l2.4,1.8.7,1.3v.8c.1,0,1.1,1.4,1.1,1.4l1.8-.4.4,1.2h.4s0-.4,0-.4l.8-.6,3.3.6,1.3.5,1,1.1,1.2-.5h.7s.7,2,.7,2l-2.5,18.1,4.4,5.3,2.3-.2,4.7,7-.6,3.2-.7,2-1.3,1.8-.4,2.7-1.1.4h-2.6c0-.1-3.5,1.1-3.5,1.1l1.7,4v1.2s1,3.8,1,3.8l1.8,2.9v1.3c0,0,1.1,1.6,1.1,1.6l.4,1.2v3.4s-.9,1.9-.9,1.9l-.7.7.7,4.1-.6,3-.8,1.9-.8.8-.8,1.6-1.7,1.1-1,1.2h-1.9c0,.1-1.1-.3-1.1-.3l-.9.5-.7.9-.7.5h0l-.5-2.1.2-1-.4-.7.6-1.8-.2-1.3-.7-.9-2.4-1.5-.6-1.1v-1.9c0,0,.2-1.1.2-1.1l-1.5-1.3-.3-.8-.9-.5-1.1-3.4-.7-.3-.6-.8-.9-.3.2-1.9-1-1.3h0l-1-1.8-3.3-2.7-2.4-1.4-.6-1.3.4-1.7-.6-.8-.5-1.5-.8-1-1.7-1-.7-1.1v-.4s1.2-.2,1.2-.2l.8-.7,1.3-2.5,1.1-1.4.3-1,1.6-1-1.4-4.2-1.3-2.4.4-1-.7-3.1-.4-3.8-1-1.2-1.4.7-1.3,1.7-1.7-1.4-1.4-.2-2.3-1.1,1.7-4.4h-.6c0-.1-1.2-1.2-1.2-1.2l-.5.4v.8s-1.4-.6-1.4-.6h-1.1s.2-1.5.2-1.5l-.4-2.2.7-.9h.5c0,0,0-.8,0-.8l-.7-.9-.9-.6-2.4-.9-1.3-1.5.6-.5h.4c0,0,.3-.2.3-.2l1.1-2.1,1.1-.7Z"/>
    <path id="NO-12" d="M65,447.2l.6-.4.3.3v.5c0,0,.9,0,.9,0l.5.6v.6c.1,0-.6-.1-.6-.1l-.3,1-.5.2v-.5c-.1,0,0-.6,0-.6l-.3-.2v-.7s-1,0-1,0l-.6-.8.5-.3v.4c.1,0,.4,0,.4,0ZM65.7,450.4l-.3-.9-.9-.4v.9c0,0,1,.5,1,.5h.2ZM57.6,437.1v.3c0,0,0,.7,0,.7l-.5,1.2.6,1.4h.7c0,0-.3.5-.3.5l.2.2.7-1.3-.2-1.5-.5-.6-.8-.9ZM54.3,418.1h-.5s-1.2-.7-1.2-.7l-.2.2.5.8v.5c-.1,0,1.4,1.6,1.4,1.6v.4c.1,0,1.2.3,1.2.3l.4.6h.5c0,.1.2,0,.2,0l1.2,1.5v-.3c.1,0-.6-1.4-.6-1.4l-1.6-1.5-.7-1.5-.6-.5ZM59.7,440.4l.3.7,1.2-.5v-1c0,0-.3-1-.3-1l-.8-.2v1.3c-.1,0-.4.7-.4.7ZM60.7,441l-.5.5,1.7,1.4v-.4c.1,0,.4.3.4.3l.6,1.7h.2s.8-1.1.8-1.1l.5.7h.3c0-.1,0-.7,0-.7l-.4-.3v-.7s.1-.4.1-.4l.9-1,.2-1.1-.2-1.3-.4-.2-.4.2-.3.7h-.3c0-.1,0-.5,0-.5l-1.9.5-.3.9.4,1-.2.2-.3-.4h-.4s-.5-.2-.5-.2ZM56.5,442.1l1.1-.4v-.3c.1,0-.5-.9-.5-.9l-1.3.6v.4s.3.4.3.4l.3.2ZM62.5,446.7v-2.1s-.4-.8-.4-.8l-2.1-1.8-.8-.2-.5.6.4.2h.2c0,0,.1.4.1.4l-.3.2v.5c0,0-.3,0-.3,0l-.3,1,.5,1.1.4,2.1,1,.7v.3s.9.1.9.1l1.3-1.3-.3-1ZM58.2,452.7l-.4-.5.4-.6h-.3s0-.3,0-.3l.3-1.1v-1.1c-.1,0,.3-.1.3-.1l.5.7.6.5v.4c0,0-.6.6-.6.6h.3c0,.1,1.1-.5,1.1-.5l.2-.4-.5-.2-1.2-3-.5-.3v-.7s-.4-.1-.4-.1l-.8-.9h-.4s0,1.3,0,1.3l-.8,1.6v.5l.4.4.6-.4v.5s.7,0,.7,0l-.9,1v1.5c-.1,0,.3,2.9.3,2.9l.9-.7v-1ZM59.7,424v.3c0,0,1.1.7,1.1.7l1.4,2,.4.2h1.3s.3-.6.3-.6l.6-.6.7.2-.2-2,.3-1.7v-2.4c.1,0-.2-1.1-.2-1.1h-.2c0,0-.2.2-.2.2l-.4-.5-.7.5-.3,2.3-1.4.4-.6,1.1-1.2.8-.7.2ZM61.6,450.3l-.8,1.3,1,1.2-.4.6-.7-1.5-1.4,1v.7s-.4.3-.4.3l-1,1.9.3.7h0l.9.9.7-.6.2.4h.4s.1-.4.1-.4l.9-.2h0l.2-.6h.5c0,.1.3-.1.3-.1l-.2-.8.6-.5-.3-1.4.3-2v-1.5c0,0-1.2.9-1.2.9ZM69.5,438.7l.4-.2.7-.8v-.3c0,0,.3-.3.3-.3v-.6s-.8-.7-.8-.7l-1.3.9.6,2ZM56.6,414.4h.5c0,0,1.1.5,1.1.5v-.2s.3,0,.3,0l.4.6h.3c0,0,.3-.5.3-.5h.3s.2-1.3.2-1.3l.6-.3h.4c0,.1.9-.3.9-.3l.7.4h1.2s-1.2.7-1.2.7l-.6-.7-.9.4h-.8s-.3.9-.3.9l.5.6h-.8c0,0,0,.5,0,.5h-.5c0,0-.5,1.1-.5,1.1v.3s1.6.7,1.6.7l1.6,2.1v.5s-1.3-1.3-1.3-1.3l-.2.8h-.3c0,.1-.4-.8-.4-.8l.3-.3-.6-.8-1.8-.7-.9-.8h-.8s-.8-1.3-.8-1.3l-1.3.3,1.4.9.4.9.7.8v.3c0,0,2,1.8,2,1.8v.6c-.1,0-.4.1-.4.1l-.2-.6-.5-.5h-.7c0-.1,0,.4,0,.4l1.5,1.2,1.2,2.6.9-.7.8-.3,1.8-1.9h.7c0,.1.3-.1.3-.1l.2-.8-.5-1.3h.3c0,.1.5,0,.5,0l1-1.2h.2c0,0-.3.8-.3.8l1.1.8v2.9l-.3,2,.4,2.2v.5c-.1,0-.6.1-.6.1l-.8-.2-.5,1-1.4.2-1.3-1.1-1-1.6-1.3-.7-.6.7v.8c-.1,0,.3,1.5.3,1.5l.6.7-1.1.5-.2-.2-.6.3-.3.3-.2,1.1.4.3v1.4s.8,1.5.8,1.5l1.2-.9v.3c0,0-.6.9-.6.9l-.6.2v.5s.4,0,.4,0l1.4-.8.4.6-.2.3-.2-.3h-.3c0,.1,0,.6,0,.6l.4.2.4.9v.5c0,0,.7-.6.7-.6l.3.9.4-1.5,1.2-.7.6-1.4-.2-.5.8-.7.5-2.8h.6c0,.1.5-.1.5-.1v-.8c0,0,.8.2.8.2v.3c0,0-.2.4-.2.4l-1.4,1.1-.3,2-.7.3v.8s.5,0,.5,0l.6-.4h1.1s.2.2.2.2l-.9.4h-.4c0,0-.7.7-.7.7h-.5c0,0,0,.7,0,.7l-.3.8.2.5.8-.2.8-.7h.4s.1.6.1.6l.6.8-.6.3v.4c-.1,0,0,.3,0,.3l.8.7.2-.6h.6c0,0-.7,1.3-.7,1.3l-.4-.4-.6-.3h-.1c0,.1.1,2.3.1,2.3h.3s.5.6.5.6h.9s1.3-1.5,1.3-1.5l.2-.9v-1.5c-.1,0-.4-.9-.4-.9v-.7c0,0,.4-.3.4-.3v.5s.4-.3.4-.3l.2-1.7.7-.6v-1.2c.1,0,.4-.1.4-.1l.9.7.8-.2v.5c.1,0,.7-.9.7-.9v-.4c.1,0-.2-.1-.2-.1v-.8c-.1,0,.7-.8.7-.8l-.2-.3h-.5c0-.1-.1-.5-.1-.5l.6-.2v-.6s.7.5.7.5l.4-.4-.3-.6.6.4.7-.3.4-.5h.5s.2-.5.2-.5l.9-.2,1-.7h1.2c0,0,0-.5,0-.5h.5c0-.1,1.2-1.6,1.2-1.6l-.4.8-1,1v.5s.4,0,.4,0l.4.6h.4s0-.3,0-.3l.8-.5v-.5c.1,0,1.1-.5,1.1-.5h1s.4-1.1.4-1.1l-.2-1.4.5-.3-.4.4v1c0,0,1.6-1.8,1.6-1.8l-1.7,2.9h.3c0,.1,1-.3,1-.3l1.2.6,1.1-.4-.8.4-.7.7-1-.6-1.6.5-.9-.2-.4.7-.8.6-.3.8-.4.4.3.6h-.2c0,.1-.4-.2-.4-.2l-.5,1.2v1.2c-.1,0-.7,1-.7,1v1.2c0,0-.7,2.3-.7,2.3l-.4,3.1-.3-.7.2.2v-.4c-.1,0,.2-1.8.2-1.8v-.5c0,0,.3-1.5.3-1.5v-.7c-.1,0,.6-2,.6-2v-.8c0,0,.2-.3.2-.3l.3-1.6.4-.6-.8-.6-.9-.3-.8,1-.2.7-1.3.5h-.9c0,0,0,.6,0,.6l.4.3-.5.2-.9.9h-.2c0,0-.8.4-.8.4h.3c0,.1.2.6.2.6h-.3c0,0,0,.4,0,.4h-.4c0,0-.2,1.1-.2,1.1l-.5.4-.2-.2h-.5s-.5,1-.5,1l.7,1.5.6.5-.5.6,1-.2.7-.5.5-1.1h.3s-.2.9-.2.9l.5.2-1.2.4-.5.4-1.4.2-1.2.9-.9,2.1v.4c0,0,.5.2.5.2l-.3.6-.6.5-.7-.3-.9.8h-.7c0-.1-.7.9-.7.9v.6c.1,0-1.4,1-1.4,1v.3s.5.4.5.4h1c0,0,.3.2.3.2l.3.9.8.8,1-.7.4-.6h.4c0,0-.4.6-.4.6l.4.9.7.4h.4s.7-1.1.7-1.1l1-.3,1-1,1.9-.7v.2s-1.4.5-1.4.5l-.6.8-1.1.7-.7,1.4-2.2-.3-.8.2-.8.5-1.1,1.3.2,1.2-1.7-.7h-.7s-.5-.5-.5-.5h-.3s-.6,1.2-.6,1.2l.2,2.7-.4.6h0l.2.2h.6s.6-.4.6-.4l.2-.2-.2-.6.5-.5.7.2v.4c0,0,1.1-.2,1.1-.2h1c0,.1,1-1.1,1-1.1l.9.3v.6s1.5-.5,1.5-.5l.9.3h1s0-1.4,0-1.4l.6-1.4.7-.7v-.7s.4-1.2.4-1.2h.6c0,0,0-.5,0-.5l3.3-2,.8.2,1-.3.6.5-.2,1v.9c0,0-.4,1.8-.4,1.8l.6.4,1.1-.3,3.3-2,2-.4h0l1-1.5-.3-.8.3-.5-.2-.3.3-.8h-.4c0,0,1.1-2.2,1.1-2.2l.9-.9,1.7-.2.6-.4.3-1.7.8-.9h0l1.5-2.6.4-2.3,1-1.6v-2.8c0,0,.9-4.4.9-4.4l-.7-.3-.7-.9-.3-1.5.2-.8-1.2-.8-2.1-.2.4-.3h-1.4s-2.7-.7-2.7-.7l-.3.3h-.6c0,0-.6-.6-.6-.6l-1.7-.2-.5-4-1.4-.4-1,.5h-1.3c0,0,.7-1.3.7-1.3l.9-.4v-.3c0,0-.3-.7-.3-.7l-.7.4v-.8c0,0-.6,0-.6,0l-.5-.8h-.4c0,0,0,.9,0,.9l-.9.4-.4.6-.5.2-.7-.6v-.5c.1,0-.1-.7-.1-.7l-.8.7h-.9s-1.4,1.5-1.4,1.5l-1.3-1.1-.8-.2-.4-.6.2-1.4-1.1-.6-.5-.9-.4-.2-1.2.8h-.3s-.8,1.7-.8,1.7h-.5s-.9-1-.9-1l-.9.3-.5.6h-.5c0-.1-.4-.6-.4-.6h-.3s-1.8,1.7-1.8,1.7h-.4c0,.1-.2-.4-.2-.4l-1.4.8h-.8c0-.1-.5-.9-.5-.9h-.4s-.1.3-.1.3l-.8.2-.8.8-.7,1.5v.8h0,0s.3-.3.3-.3ZM58,426.5l-.4-.8-1.8-1.2h-.3c0,.1-1.2-.8-1.2-.8l-.2.2.5,1.1.6.5.2-.3h.2c0,.1-.1,1.9-.1,1.9h1.2c0,0,.3,0,.3,0l-.5.4v.5c.1,0,.9.5.9.5l.8-.6v-.5c-.1,0-.2-1-.2-1ZM56.9,434.3l-.8-1.6.4-.3v-1.4s.4-1.3.4-1.3v-.8c-.1,0-.8-.3-.8-.3l-.5.6h-.3c0,0-.1-.5-.1-.5l-.8-.9.3-.4-.4-.4h-.4s0-1.3,0-1.3l-.4-.4-.2.9,1.4,5.6-.4.3h-.3c0-.1,0-.6,0-.6h-.4s0,.8,0,.8l.5,1.1v.4s.3.6.3.6l.8.2.7,1,.8-.3.3-.8v-.3ZM52.2,421.6l-.5-1.3-.5-.6-.2.6.2,2.2h.8c0,0,.2-.9.2-.9ZM53.3,425.2l-1-2.5-.5.3v.8c0,0,.3,0,.3,0v1s.3-.2.3-.2l.7,1,.2-.3ZM56.7,422.4l-1.2-.3-.4-.4-1,.2-.6-.3v.4c0,0,1.1.8,1.1.8l-.3.3.8.8,1.6.5,1.2.7.3-.3v-.5s-.5-.7-.5-.7l-1-1.2ZM52.3,416.9l1.4,1h.4c0,0-1.1-2.7-1.1-2.7l-.9.3v.7c0,0,.2.4.2.4v.3Z"/>
    <path id="NO-15" d="M73.6,353.3v-.3s.8,0,.8,0l.8.4.3.6-.4.4-.7-.3-.9-.8ZM76.4,353.3l.5-.5-.3-.5-1.6.3.7.3.7.4ZM98.8,337.7l-.9.4h-.5s-.2-.3-.2-.3l-.7.2v.5c0,0,.3.3.3.3h1.1c0,0,1.1-.1,1.1-.1v-.5c.1,0-.3-.5-.3-.5ZM84,350.2h.4s.2-.7.2-.7h-.3c0,0,0-.3,0-.3l.9-.7v-.4c-.1,0,0-.6,0-.6l-.3-.2h-.4c0,0-.9.8-.9.8l-.3-.5h-.6s-.4.3-.4.3l.2.4h.4c0,.1,0,.4,0,.4h-.7c0,0-.1.5-.1.5h.6c0,.1,1.3,1.1,1.3,1.1ZM76.6,351.3l.6.6.5-.9-.3-.5v-.7s-.4,0-.4,0l-.5.7.6.2v.2l-.5.3ZM80.5,354.1l-.4-.4v-.9c.1,0-.6.4-.6.4l-.6,1.3h.4c0,0,.3-.1.3-.1l1-.2ZM80.7,354.1l3.9-1.5.2-.2-.3-1.4-2.8.9-.2.2v-.7h-.3l-.5.4.3,1-.6.6.3.7ZM96.5,341.9l-.2-.4-.2-2,.2-.4h-.3c0-.1.2-.6.2-.6h-.5c0-.1-.5,0-.5,0v.4c0,0,.5.2.5.2v.4s-.9-.2-.9-.2l-.3.2.2.4v.3c-.1,0,.3,0,.3,0l-.3.5.3.3v.9s-.3,0-.3,0l-.4-1.2h-.4s0-.5,0-.5h-.8c0,0-.6.4-.6.4v.6s-.3.2-.3.2l.9.2-.7.3-1.1,1,.4.4,1.7.6.2.8.9-.3,2.8-1.9-.4-.5h-.3ZM105.5,334.2l1.3,2.5.4.2h1.8c0,0,1.5-.7,1.5-.7v-.7c0,0-.7-.8-.7-.8h-.4s-.4-.5-.4-.5l-.5-1.6-1.5.8h-.6s-.3-.5-.3-.5l-.6.2v.2c-.1,0,.2.2.2.2l-.2.8ZM98.3,342.8l-.3.6.5.2.8-.3-.3-.9-.7.4ZM104.4,337.1l-.9-3-1.8,1.2-1.4.6-.2.3.4.4.2.7h1.3c0,0,2.4-.2,2.4-.2ZM112.3,330h-.5c0,0-.3-.8-.3-.8h-.7s-.4-.4-.4-.4l-.9.3-.2.2v.5c.1,0-.7.9-.7.9l-1.2.4-.4.6.3.2h1.1c0-.1.3-.3.3-.3v-.6c.1,0,1.2.1,1.2.1l-.4-.7h.5s.3.2.3.2v.7s.5,0,.5,0l1.4-.9v-.6ZM98.8,329.5v.5c0,0,1.1.2,1.1.2l.9.8.9.3,1.1-.2,1.2-.5.6-1.1v-.7c0,0-.6-.5-.6-.5v-.7c-.1,0-1.2-1.4-1.2-1.4l-.6.2h-1.2c0-.1-.8.8-.8.8h-1.2s-.2.5-.2.5l-.8.4v.3s.3.2.3.2l-.6.7v.3c0,0,.8,0,.8,0ZM98.2,339.1v.4c0,0-.7-.2-.7-.2l-.6.3-.2,1.5,1.8.5,1.2-1.5v-.9c.1,0,0-.3,0-.3h-1.4ZM103.1,332.8l1.7-1v-.3c0,0-.2-.2-.2-.2l-1.5,1.5ZM105.4,335.2l-.5-1.2-.5-.2h-.5c0,0-.2.5-.2.5l.5.5h-.2c0,.1.6,2.3.6,2.3l1.9-.3-.3-.7-1-.8ZM75.2,359.3l-.3-.3h-1c0,.1-.3.5-.3.5l-.8.2-.2.3h1.6c0,0,.3.1.3.1l1.5-.3,1.3-.7h-.3c0-.1-.8.2-.8.2h-1.1ZM62,365.8l1.9-1.3-.3-.3h-.4c0,0,0-.5,0-.5h-.3c0,0-.6.4-.6.4l.4.3-.8.9v.2c.1,0,.2.3.2.3ZM65.6,366.1v.4c0,0-.5-.3-.5-.3l-1.8.3-.3.3v.9c.1,0-.3,0-.3,0v.4c0,0,.7.4.7.4h.7c0,0-.4.4-.4.4l-.6-.3-.3.3.9,1.2,2.8-.5.7-.8v-.4s-.4,0-.4,0v-.3c0,0,.6-.8.6-.8v-.5s-.6-.1-.6-.1l-.9.3v-.8c.1,0-.4,0-.4,0h0ZM62.1,368.6l-.2-1.1h-1.1s-.4.2-.4.2l.3.5,1.4.3ZM63.9,365l-.3.4.8.4,1.5-.2v-1.5c.1,0-1,.4-1,.4v.3c0,0-.9.2-.9.2ZM89.2,354l.2.4.6.2h.7s1.1-.4,1.1-.4l-.3-.2h-.9s-.3-.4-.3-.4h-1c0,.1-.2.5-.2.5ZM114.4,329.8h-.4c0,0,0-1.3,0-1.3l-.7-.8h0l-1.5.5-.2.3.9,1.5.7.5-1.4.9-1.8.4-.4.2v.4c.1,0-.4,0-.4,0v.5s.3,0,.3,0l.2.7h.4s1.2,2.4,1.2,2.4l1.2-.2v.3s-2.1.6-2.1.6l-.4.4.2.5,1.1,1v.7s-1.3-1.5-1.3-1.5h-2.6c0,.1-.6-.5-.6-.5l-2.5.7-.2.5.4.5v.4s.8.7.8.7l-.2,1.4,1.3.7.7-.5,1.2.2h1c0-.1-.6.2-.6.2h-1.8s-.4.6-.4.6l.4.2.5.7.7-.3,2.2-1.5h.5s-2,1.3-2,1.3v.5c-.1,0,.5,0,.5,0l1-.6,1.2-.2.2.7-3.6.8v.5c.1,0,.5.4.5.4v.6c.1,0,1.1.7,1.1.7h1.1c0,.1.5.7.5.7v.9c.1,0,1.1.2,1.1.2v.4s-.9-.2-.9-.2l-.9-1.3h-1c0,.1-1.6-1.1-1.6-1.1l.6,1,.9.5v.5c0,0-.2.3-.2.3l-.8-.5-1.1-1.3h-.5c0-.1-.4-.9-.4-.9l-.5-.5.7-1.3-3.1-2.6v-.8c-.1,0,.2-.4.2-.4v-.4c0,0-.6-.9-.6-.9h-.5s-1.5.7-1.5.7l-.2.5.2.9-.2.2h-.6s-.6.7-.6.7v1.4c0,0,1.3-.7,1.3-.7l.8.3,1.8,1.8.3.8.8.5-.8.6.7,2.2.9.6,1,.2.5.7.7.2,2.1,1.5.3.5v1.6s-.3.1-.3.1l-.2-.2-.8-1.9h-.6c0,0-.8-.9-.8-.9l-2-.8-1.8-1.4-.8-2.4.2-1.3-.4-.2-.7-1.2-.9-.2-2.2.8-2.4,1.9.4-.9,1.4-1.3-.4-.4h-1.4s-1.6,1.5-1.6,1.5l-1.9,1-.2-.2v-1c0,0-1-.9-1-.9l-1.1-.6v-1.4c0,0-2,.6-2,.6h-.7c0-.1-.7.1-.7.1l-.2.2v.3c.1,0-.8.3-.8.3l-.9,1.2-1.4,1,.4.3.9.2-.2.6h.5c0,0-.1.5-.1.5l.3.3-.4.4v.3c0,0,1.2-.1,1.2-.1l1-.4h.7s.5.6.5.6l-.4.3.4.4-.4.3h-.3c0,0-.1-.5-.1-.5l-.7.2-.2-.6-1.3.5-.7,1.4.4.9-.4.6.2.4,1.4-.3h1.2c0,0,3.7-.8,3.7-.8l1.8-.8,2.7-.4-.3.3-2,.4-2.5,1.4.7,1-1,.3,1.6.4h.8c0-.1,5.9-2.7,5.9-2.7l3.1-.5v.2s-.8.3-.8.3v.3c0,0,.4.4.4.4l.8.2.5.7.2,1h-.3l-1.8-1.9-.7-.2-2.1.5-5.3,2.4.7,1.7v1c0,0-.5,0-.5,0v-.8c0,0-.6-1.1-.6-1.1l-1.2.5.3,1.1.5.5h.3c0,0-.1.3-.1.3l.3.3,1.3.4,2.7-1.1,1,.3-.5.3h-1.1c0,0-.2.5-.2.5l-1.7.5v1.3s-.3-.2-.3-.2l-.2-1-.8-.5-.4.4-.4-.8-.8-.5-.3-1.2h-1.1s-.7-.5-.7-.5v.4c0,0-.3,0-.3,0l-1.1-.8-.3.2.2,2-.3,1.5-.8-4.4h-1.7s-.9.3-.9.3l.5,1.1-.6.6-1.3-1.3v-.3c0,0-1-.3-1-.3l-.9.6-1.1.2-.2.6.2.6-.3.3-.6-.3v-1s-.8.3-.8.3h-.5c0-.1-1.7.3-1.7.3l-.7-.3-1.3,1.1.3.8-.3,1.1,1.9-.2h1.1c0,.1,1-.2,1-.2h.9s.2.3.2.3l.6.4.2.6,1.2.2.3.3-.4.3v.3c0,0,1.6-.3,1.6-.3v.3s-.6.2-.6.2v.3h1.6s1,1.1,1,1.1l.3,1.2.4.2-.2.3h-.5s0,.3,0,.3l1,1.9h.9s2.1.8,2.1.8l.7-.4h1.4c0,0,.4.3.4.3l1,1.4-.6-.2-.7-.8-1.2-.3-.6,1.1-1.8-.8h-1c0-.1-.2,0-.2,0v3.6s-.8.8-.8.8l-.4,1,1,.6h.4s0,.4,0,.4h-.4s-1.8-.7-1.8-.7l1-1.8.7-.6-.3-3.3-1.2-1.6-.5-1.3v-.5c-.1,0,.3-1.1.3-1.1l-.9-.7h-.7c0,0-.5.1-.5.1l-.4-.2v-.5s-.4-.2-.4-.2l-1.8.8-1,.8.5.3-.4.3-1.4-.3-.9.6.5,2.4,1.3,2.6v1c0,0,1-.2,1-.2v.3c.1,0-.5.3-.5.3l.7,1.3.2.7-.3.5-.8-1.8-.5-.6-.7-2-.7-.5v-.9s-.3-1-.3-1l-.7-1v-.6c-.1,0-.4-.2-.4-.2l-2.5,1.4-3,2.2-.3.7.5.2.3,1,1.6.4v.4s-1.6-.3-1.6-.3l-.6-1.1-.7.5,2.6,3.3.6.4.2.5.6-.2,1.6.4.5.2v.5s-2-.7-2-.7l-1.2.2-.3.2-.2.5-.2-.7.3-.7-.8-.6-.5-1h-.4c0,0-.3.1-.3.1l.2.6-.2.6-1.8,3.2v-.6c0,0,1.5-3.1,1.5-3.1v-.7c0,0,.1-.7.1-.7l-.6-1.1-.2-.3-.7-.2-.8.2v.4c-.1,0-1.2.5-1.2.5h-.8c0-.1.3,1.6.3,1.6l.9.9-.3.4-.8-1-.4-1.8-.8.2h-.6c0-.1-1.1-1.2-1.1-1.2l-.7.7v.7c-.1,0-.7,1-.7,1l.4.4v.5c.1,0,2.1.1,2.1.1l.8.7v.4c.1,0,0,.6,0,.6l-1-1h-.4c0,.1.1,1.1.1,1.1l-.6,1.2h0v.4s-.5.4-.5.4v.5c-.1,0,.3-.4.3-.4l1.1.8h.8s1.1-.5,1.1-.5l.4.2.4-.4.4.3h.5c0,0,.4.3.4.3l1.3-.8.9-.2.6.2.5.8.4.2,1.4-.5v-.5c0,0,.6-.3.6-.3v-.5c.1,0,1,0,1,0h.4c0,.1-.4.7-.4.7l1,.6.2.5,1.4-1.2.4-.8h1.2s0-.7,0-.7l1.3-.8.7.2.5-.7.5.4.9,2,.4.3.3.9h1.2c0,0,1.2-.6,1.2-.6l.5.2.5-.3h.5c0,.1.7-.8.7-.8h1.6c0,0,.3-.6.3-.6h.5c0-.1.2.4.2.4h.8s.7.4.7.4h0v-.9c0,0,.8-.7.8-.7l.3-1.1h1.1c0,0,.4-.1.4-.1l.7.9h.4c0,0,.8-.5.8-.5l-.8-1.4,1.2-.5,1.2-1.5,1.5-.2.6.7,1.9-.3,2.3-3.8.6-.5.5-.8,1-.6,1.6-.5,5.4-.6h2.8c0,0,.4.8.4.8l1,.2h.7c0-.1.5-.7.5-.7h0l1.5-.8.8-1.7-.2-.4.4-1.5v-.5c0,0,.2-.1.2-.1v-.7c0,0-.5-1.2-.5-1.2h-.6c0,0-.6-.7-.6-.7v-.9c-.1,0-1-.3-1-.3l-.7-.9h-.5c0,0-1-1.7-1-1.7l1.4-.9,1.2-.4h.7s3.7-1.4,3.7-1.4l.8-.5.7-1.2v-1.6c-.1,0-.5-1.1-.5-1.1v-.9c0,0,.7-.7.7-.7l.2-.6,1.5-.9h-1.2c0-.1-.4-.5-.4-.5v-.5c0,0-.7-.1-.7-.1l.5-4.5-1.4-.5-.3-.8-.9.7-1.1-.5-1.4,1.2.8,1.3-.4.2h-1.2c0,0-1-.6-1-.6l-1.2.3-1.3.7-1.1-.4.2-.7-1.1-1v-.2s1.1-.3,1.1-.3l.4-.5-.6-1.6.5-.9.3-1.6.4-.7-.4-.4h-.6ZM73.3,354.5l.7.7h.3c0,0,.1-.1.1-.1l-.6-1h-.2l-.5-.7h-.3s-.2.6-.2.6l.2.4.6.2ZM74.2,360.5l-1.3-.3-.6.3h-.8s-.2.5-.2.5h.2c0,.1,2.6-.5,2.6-.5ZM66.9,366.5l.5-.5.3.2.3,1-.7.7.6.2h.8c0-.1.8-1.6.8-1.6l.5-.2,1.9-1.8-1.4-.6v-.4c0,0-.5-1.4-.5-1.4h-.8c0-.1-.9,0-.9,0l-.5.3-.7,1.2v1.7c.1,0-.6,0-.6,0v.3c-.1,0,.1.6.1.6l.2.2ZM72.2,359.6v-.7s-.4-.3-.4-.3l-.3.2v.8s.3.2.3.2l.3-.3ZM75.6,361.9l-1.2.3v-.5c.1,0-.2-.2-.2-.2l-.3.3-.4-.5-.6.4h-1.9c0,0,.3.8.3.8l.7.5.8.2,2.2-.4.9-.5-.2-.4ZM75.6,360.5l-1.5.4v.3l1.6-.2v.6c-.1,0,.4.3.4.3l.2.6.6-.4,1.7-.3,1.5-.8.9-.8-.2-.3-.6.3-.3-.3-1.9-.5-.8.4-1.6.7ZM70.3,358.4l.7-.2v-.3c0,0,.5-.2.5-.2l.7.8-.2-2h-.7s-.2.2-.2.2l.5.4-1.1.3-.3.4v.2c.1,0,.1.4.1.4ZM70.6,360.8v-.7c0,0-1.1,0-1.1,0l-.5.7h1.2s.3,0,.3,0ZM73.5,356.1v-.7c0,0-.5-.4-.5-.4h-.9c0,0,.3.8.3.8l.9.5h.2Z"/>
    <path id="NO-18" d="M187.1,148.8l.3-.5v-.6s.6-.7.6-.7l-.5-.2.5-1-.5-.5.6-.2.2-.4-.3-.3h-.5c0,.1-.2-.1-.2-.1v-.2c.1,0,.8-.7.8-.7l2.1-.5-.5-.6-2,.2.5-.7.7-.2-.3-.6.2-.2h.4s1-1,1-1h.5s.4.4.4.4l.5.5h.5c0,0,.4.4.4.4l.5-.6.2-.5.3-.5v-.6c.1,0,.7,0,.7,0v-.5c0,0,.5-.3.5-.3h.6s.5,1.2.5,1.2v.6s-.2.3-.2.3l.3.6-.7.5v.5c.1,0,.8-.1.8-.1l.2-.5h.2c0,0,.5-.5.5-.5h.4c0,.1.8,1.2.8,1.2l-.8.8v.8c0,0-.2.4-.2.4v-.5c0,0-.3-.3-.3-.3l-.5,1.3-.7.5-.4-.4h-.6s-.7.7-.7.7l-.4-.2h-.3c0,.1-.2.2-.2.2l-.2.6v.5c0,0,0,.3,0,.3l.3.8-.2.2v-.2c-.1,0-.6.4-.6.4h-.5s0-.8,0-.8h-.2s-.3.6-.3.6v.5c-.1,0-.3.5-.3.5v.3c.1,0-.2.4-.2.4h-.2s0-.5,0-.5l-1,.4v-.8s0-.9,0-.9l.2-.4-.9-.2-.6.7.5.6v.5s-.2.4-.2.4l-.7.3v.5s-.5.3-.5.3h-.1c0-.1,0-.4,0-.4l-.5-.6v-.7ZM197.2,140.2l.8-.3-.4,1,.5.5.7.7.7-.3.4-1.5-.5-1h-.6s-.8-1-.8-1l-1.2.2.4.8-.7-.2v.4c0,0,.2.4.2.4l.5.2ZM194.6,189.6l-1.3-.7-.2.9,1,.2.6-.3ZM189.4,200v.4c0,0,.8,0,.8,0l.3-.3v-.9c0,0-.2,0-.2,0l-.9.8ZM199.8,142v.7c.1,0-.6.2-.6.2l-.3.3.2.8-.2,1.8,2-.5.3-.4.9-.3-.3-.3.2-.5.6.4h.7s.8-.5.8-.5l.3-.4,1.1-.7v.4c0,0,.6-.1.6-.1v-.4c0,0,.1-.1.1-.1l.2-.9v-.4s.2-.2.2-.2l.5-1.3h-.4s0-.3,0-.3l.3-.3v-.6c0,0,0-.5,0-.5l.5.2v.6s.2.4.2.4h.7c0,0-.9.5-.9.5l-.3,1.6v.7s.2,0,.2,0l.3-.4.6-.2.5-.8,2.3-2,.5-1.3.5.2h.3c0-.1.5-1.2.5-1.2l.7-.8,1-2.2-2.2.2-.4.3h-.5c0,0-.3.3-.3.3h-1.5c0,.1.2.7.2.7l-.4.7.5.9h-.1c0,.1-.4-.2-.4-.2l-.5.2v-1.2s0-.6,0-.6h-2.1c0,0,0,1.2,0,1.2l.2.7h-.3s-.3-.5-.3-.5v-1.2c0,0-.3-.5-.3-.5h-.8c0,0-1.2.9-1.2.9l.8.8v.7s-.4,0-.4,0l-.2-.2-.4-1-.6.5h-1s-.2.5-.2.5l.5.3-.2.4v.5c.1,0,.3.3.3.3v1c0,0-.5,0-.5,0l-.2-.4-.8-.5-.5.9v1.2s.7.7.7.7h-1.1s-.1.6-.1.6l-.2.2ZM195.3,187.2l-.5.8-.3.7.2.4,1.2-1.4v-.5s-.5,0-.5,0ZM192.8,190.4l-.2.2h-.6s-.3.5-.3.5v.9s.4-.3.4-.3l1.4-.3v-.4c.1,0-.3-.5-.3-.5l-.4-.2ZM201.6,175.9l-.7.4-.7.5-1.4,2h.6c0,.1.9-.5.9-.5h.6s.6-.2.6-.2l.7-1.3h-.3c0-.1-.3-.9-.3-.9ZM199.9,185.9l-.4.4-.9,2.1-.4.5-1.3-1.5h-.3c0,.1-.4,1.1-.4,1.1v.3s.2,0,.2,0v.4c0,0-.6.5-.6.5v.7c-.1,0,.1.3.1.3l.4-.2.7.6.5.2.9,2.7.6-.5.2-.5v-1.1c.1,0-.3-.5-.3-.5v-1.4c0,0,.4-.6.4-.6l.3-1.1.5-.5-.2-.8.4-.6-.2-.4-.2-.2ZM177.1,160.3l.9-.2v-.6c.1,0,.5-.3.5-.3l.4-.5v-.4c.1,0,.5,0,.5,0l.7-.7.4.2.2-.2.2-.4.6-1,.2-.8.2-.4h.3c0,0,.8-.9.8-.9l-.3-.7-.2-2.2-1.3,1.2v-.3c0,0-.5-.4-.5-.4l.7-.4h.2c0,.1.9-.6.9-.6v-.4c0,0,.3-.7.3-.7v-.6c0,0-.4,0-.4,0l-.3.2v-.8c0,0-.6.2-.6.2h-.5c0-.1.3,1.3.3,1.3l-.2.2h-.5c0,0-.1.4-.1.4l-.3.2v.5c0,0-.5.4-.5.4l-.4.3.2.6-.3.3.3,1.1h-.7s-.3.5-.3.5v1.2s-.4.3-.4.3l.2.6-.6.7v.5c0,0-.1.6-.1.6l.2.4-.2.9-.8.4v.3s.3.4.3.4ZM181.4,209.2l.3,1.3.3-.9-.2-1.1-.4.7ZM183,152.8h.3c0,0,.3-1.6.3-1.6v-.8c0,0,.3.8.3.8v1.7c0,0,.9-.5.9-.5l.7-1,.2.3.4-.2v-1.3l.4-.5v-1s.5-.9.5-.9l-.2-.3.4-.4-.2-.4-.6-.2-.4-.5-1-.2-.2,1.3-.3.5.7.6v1.7s-.7-.3-.7-.3l.5-.9-.4-.5-.2.3h-.8s-.2.5-.2.5l.2.8h-.5s-.5,1.3-.5,1.3v.8c.1,0,.4,1,.4,1ZM181.4,206.2l-.2-.3-.7.6.2,1.1.6-.2v-.6c.1,0,.1-.7.1-.7ZM178.4,215.5h-.2s-1,.5-1,.5v.9c0,0,.5.6.5.6l-.9.7.5.4v.4s.9-.3.9-.3v-2.2c0,0,.4-.5.4-.5v-.4ZM180.6,209.7l.3-1.5h-.6s-.2.3-.2.3v.3c.1,0-.3.6-.3.6l.3.4h.6ZM178.4,225.2l-.5.4-.5,1.2h.4c0,0,1.3-.5,1.3-.5v-1.4c0,0-.8.2-.8.2ZM185.5,200.6l-.3.9,2.7-.6,1-.5-1-.3h-1.2s-1.2.6-1.2.6ZM188.8,198.7v.6c0,0,1.1-.9,1.1-.9l-.6-.2-.3.2-.2.3ZM186.5,203.7l.6-.3.3-.5-1.4-.3-.5-.3-1.6,1.2.3.4,2.2-.2ZM214.8,151l-.3.8-.2.3h-.3s0,.6,0,.6h-.2c0,.1.3,1.4.3,1.4l1.3.2.6-.2v-.6s-.4-.6-.4-.6l-.7-2ZM211.2,141.7h.4s1.2-1,1.2-1l-.9-.3-.6.2-.3.8.3.3ZM210.7,140.8v-.4s-.6-.6-.6-.6l-.8.4-.9,1.1-.4,1v.6s.3,0,.3,0v.4c.1,0,.7,0,.7,0h.3s.2-.8.2-.8l.3-.2h.3s.3-1,.3-1l.4-.5ZM207.3,143.5l-.6,1.1.6.3.6-.2.3-.9-.8-.3ZM215.6,155.3l-.7-.4h-.6c0,0-.2-.2-.2-.2h-.6c0-.1-.7-1-.7-1l.5-.5v-.4c0,0-.4,0-.4,0v.3c0,0-.7.8-.7.8l.2.3-.4.2-.8-.4-.4.2-.2.9.4.7-.2.8,1-.3.2.2h1.4c0,0,0,.3,0,.3h.7s.6-.4.6-.4h.5c0,.1,1.1-.6,1.1-.6v-.3c.1,0,0-.3,0-.3h-.5ZM229.9,138.3l-.4-.5h-1s-.9,1-.9,1l2.2-.3v-.3ZM235,133.2v-.6s-1.2-1.2-1.2-1.2v-1.2c-.1,0-.7-.8-.7-.8l-.6-.2-1,.5h-.9v.9c-.1,0-.7.3-.7.3v.5c-.1,0-.7.5-.7.5v.6s-.3.3-.3.3v.9c-.1,0,0,.8,0,.8l-.8.8v.3s.8,1,.8,1h.5c0,0,1.7-1.6,1.7-1.6l.6.2,1.7-.2.9-.9-.3-.4-.5-.2v-.3c0,0,.9-.2.9-.2h.6ZM224.5,146.3l-.4-.2-.6.2-.6.8,1.3.6v-1.2s.3-.3.3-.3ZM234.3,130.9l.9,1.6-.4,1.6,2.1-.4.2-2.2h-1.2c0,.1-.3-1.3-.3-1.3l.5-.2-.4-.7-.3-.2h-.3c0,.1-.1.5-.1.5l-.8.4v.8ZM227.7,128.4h-.3s-1-1.6-1-1.6l-.7.8v.6c0,0-.5,1-.5,1v1s-1,.1-1,.1l-1,1.5-.9.6-.5,1.3-.5.3-.2-.6.7-1.2v-1c-.1,0-.7-.8-.7-.8l-.2-1.7.8-.5.2-.4v-.9s-.4-.8-.4-.8l1.1-.6.6.3.7-1.3-.3-.8.2-.5-.2-.2-1.2-.3v-1s.2-.9.2-.9l1-1.4-.3-.5.8-1.2.2-.8-.3-.5.4-.5.2-.8-.3-1.7.2-.6.9-.8-.3-.2h-.5s-.8.6-.8.6l-.4-.2h-1.4s-.7.5-.7.5l-.5,1.2v.9c0,0-.5.5-.5.5l-.4,1.1.8,1.2,1.3.8h-.6c0,.1-1.4-.3-1.4-.3l-.4.4-1.2.2.3.5-.3,2,1.2.9,1.2-.5.4.3-1.2.6-.7.2-.9-.3-.3.3v1.3c.1,0,.5.8.5.8l-.2.4.7.9.9.2v.2s-.8.4-.8.4l-.8-.2-.3.2-.9,1.1-1.1.5.3.6-.3.3-.6-.3h-1.1c0,.1-.4,1.9-.4,1.9l1.3.2v.3s-.7.8-.7.8l.6,1,2.3.5-1.1.3-1.6-.4-.3.2-.2.8-1.4,1.9-1.1,2.6-.9,1v.5c0,0,2,.2,2,.2l.4-.4v-.6s.4-.1.4-.1h.3s.3,0,.3,0l.5-.3.6-1.5.9-1.1h.3s1.2-1,1.2-1l1.5-1.7,1.1-1.8v.3s.6.4.6.4h-.4s-.6.6-.6.6l-.6.9-.5,1.2-1.3,1.2-1,1.9.5.3.8-.6.9.7v-.6c.1,0,.6,0,.6,0l-.2.4.2.5.6-.2.8.5h-.5c0,.1.3.6.3.6l.4.3.6-.3-.2-.6,1.1-.9v-.8c0,0-.3-.2-.3-.2l.5-.4h.4s0-.5,0-.5l-.3-.3v-.4l.3-.2.7.6h.4s.8-2.6.8-2.6h.3s-.5,3.3-.5,3.3v.3c.1,0,.6,0,.6,0l1.4-.9.3-1.7.4-.6.7-.5.2-.5.2-1.5,1.5-1.1.2-.4.5-.3.7.3.5-.4h1.4c0-.1.9.3.9.3v-.5c.1,0-1.4-.8-1.4-.8l-.9-.8-.6-.3v-.3c0,0-.2-.4-.2-.4l-.8.2-.4.4h-.5s-.3.4-.3.4l-.8.2-.7,1ZM207.7,118.8v-.4c.1,0-.5.6-.5.6l-.3.7.6-.2.6-.5-.4-.2ZM207.9,117.1l-.2-.5-.4.3v.2s-.2.9-.2.9l.3.4.4-.3.2-1ZM208.4,118.4v.5c0,0,.4-.2.4-.2v-1.3s-.9,0-.9,0v.6c0,0,.4.3.4.3ZM201.6,124.3l.2.5h.5c0-.1.2-.6.2-.6h.2s.2.5.2.5l-.7.9.3.6-.3.4.2.2v.5c0,0,.8.3.8.3l.5-.4v.3c0,0,.9-1,.9-1l.6.3v-.5c.1,0,.7-.4.7-.4l-.3-.2v-.5c.1,0,.6-.3.6-.3l.2-1.6.2.5h.5s-.2.9-.2.9h.5s.4-.2.4-.2v-.6s0-.5,0-.5l.2-.7.2-.6.2.5-.5,1.4.3.5.6-.7h.3s.6,0,.6,0l.2-.4h.2s-.2-.6-.2-.6l.5-.6.3.6.2.2h.3c0-.1.8-1.7.8-1.7v-.2c0,0-.2-.6-.2-.6h1.6c0,.1-.3,1.1-.3,1.1l.4.6-.2.5-.6-.3-.7.9v.4c0,0,.1.3.1.3l-1.5.4h-.4c0-.1-.6.5-.6.5h-1s-.4.5-.4.5h-.4c0,0-.1.5-.1.5l.6.7h.6c0-.1.3.3.3.3h-.5s-.2.5-.2.5l.2.3h.9c0,.1.7,0,.7,0l1.5.4.5-.8.8-.7h.7c0-.1.3-.6.3-.6l1-.3,1.8-1.3.7-.9v-1.9c-.1,0-.8-.7-.8-.7l-1.5-.4.5-.3v-.6s.2-.2.2-.2v-.2s-.7-.5-.7-.5l.4-.2.4.2.6-.2v-.9s.2-.3.2-.3l.2-1-1.1-.6-.7,1.3-.3.2v-.5s.2,0,.2,0v-.4c0,0,.3-.3.3-.3l.2-1.5-.9-.9h-.6c0,0,.2-.5.2-.5l-.4.2-.3-.3.2-.3.6.2-.2-.3h-.4c0-.1-.2-.5-.2-.5l.2-.4-.3-.5.4-.2v-1.5c-.1,0-.4-.2-.4-.2h-1s-.6.8-.6.8l-.7.2v.4c.1,0-.2,1.1-.2,1.1l.2.6v.5c-.1,0,.3.2.3.2l.3.9-.3.3.3.4-.4.4.2.2.6-.5v.3c0,0-.4.9-.4.9l1.3.9v1.2s.2.4.2.4l-.5-.3v-.9c0,0-.6-.6-.6-.6h-.6c0-.1-.2,1.2-.2,1.2v1.4c.1,0-.3-.5-.3-.5v-1.3c0,0-.4-.7-.4-.7v-.5s-.3-.2-.3-.2l-.9.6-.2.2v.5c.1,0,1.2,1,1.2,1h-.7c0,.1-.2.7-.2.7l.3.6-.4.3-.3-.2-.3-.5-1.7.6-.2.7-.8.5.2-.5h-.5c0-.1.3-1.4.3-1.4v-1.6s-.3-.2-.3-.2h-.7c0,0-.3,1.2-.3,1.2l.2.9-.5,1.2v-1.6c-.1,0-.4-.7-.4-.7l-.4.2-.5.8-.7.3-.6.8.4.5.2.2h.6c0,0,.2.3.2.3h.3s-.1.3-.1.3h-.8c0,0-.8.4-.8.4l-.3.4v.3c0,0,.7.4.7.4l-.9-.2-.6.7.3.5ZM209.7,131.8l1.5-1.4.2-.7-.2-.5h-1s-.3-.5-.3-.5l-.5-.2-.5.3-.7-.5h-1.3s-.5-.4-.5-.4l-.8.5-.4.5v.6s.4,0,.4,0l.6,1,.9.7-.3.4.2.4.4-.4.3.3h1.5c0-.1.6-.2.6-.2ZM218.9,115.7l1-1.5.3-1,.4-2-.2-.5-.6-.3v-.4c-.1,0,.6,0,.6,0l.7.4v1.2c0,0,.9-.9.9-.9l.6-.2,2.4-1.5v-.6c0,0,.7-1.8.7-1.8l1.5-2.1.5-.2.7-.8.5-3.6.9-1.2v-.9c0,0,0-.3,0-.3l-.6-.7-.2-1.1-.9.5-.5.7h-.7s-.3.8-.3.8l-1.8,1.2-.3,1.3h.3c0,0,.1.8.1.8l-.6.4v1.3c0,0-.5.5-.5.5l-.6.5-1.3.2-.9.6-.7.8-1.2,3.7-1.1,2.2.3,2.1-.4,1.1.3.7.8.5ZM215.5,113.2l.5-.8-.5-.6-.8.5.2.3.6.5ZM209.3,115.3l.2.5,1.3-.2.4-.5v-.6s-.4-1.2-.4-1.2h-.2c0-.1-.7.2-.7.2l-.5-.6-.5.2v.4s-.3,0-.3,0l.3.6-.5,1.1h.3c0,0,.3,0,.3,0ZM180.9,210.8l-.3-.6-.7.6v.6c-.1,0,.3.2.3.2l.5-.2.2-.5ZM165.1,173.4l.8-.2.5-.7h-.6c0,0-.7.6-.7.6v.3ZM218.7,153l1.9.5,1.9-.5v-.2c0,0-.6-.2-.6-.2v-.2c0,0,.7,0,.7,0l.9.9,1,.6h.8c0-.1.6-.9.6-.9v-.5c-.1,0-.9-.5-.9-.5h-1.7c0,0-1.3-.4-1.3-.4l-2.6.7v.5s-.2,0-.2,0l-.5-.2v.4ZM212.8,167.6l.5-.8-1.5.4-.4.9h.9c0,0,.5-.4.5-.4ZM232.1,149.7h-.3c0,0-.5-.8-.5-.8h-.3s-1.3,1.2-1.3,1.2v.3c0,0,.8.3.8.3h.4c0,0,.2.4.2.4h.6c0,.1.4-1.4.4-1.4ZM201.1,185.5v1c.1,0,.3,0,.3,0l.9-.7,2.9-1-.5-.5h-1.2s-.8.3-.8.3l-1.7.9ZM162.8,249l1.3-1.6.7-1.4-.5-1.5-1.4-.3-1.2.7-.4.5-1,2.7.2.2h1.2c0-.1.3.5.3.5l.6.3h.3ZM260.3,130.2l-1.7-3.2-2.9.4h-4.6c0,.1-3,1.5-3,1.5l-1.4.3h-1.1c0,0-5.2-.6-5.2-.6l-2.3,2.5-.7.2v2.3s.7,0,.7,0l2.6-.8,1-1.8.8-.5,1.1.8.7,1-1.2.8-.2.3v.3c.1,0,3.1-.3,3.1-.3l1.1-.5,1.9-2,1.3-.5,1-.8.4.4v.8c-.1,0-1.5,1.6-1.5,1.6v.6c-.1,0,2.4-.3,2.4-.3l2.6,2.3.8.2.7-.2.2.2-1.2.4h-.5c0-.1-1-1.1-1-1.1l-1.5-.6h-.8s-.8-.3-.8-.3h-1.1c0,0-1.1.5-1.1.5v.5c-.1,0,.6.4.6.4l.2.6,2.3,1.2v.3s-.2,0-.2,0l-1.4-.9h-.6c0-.1-.9-1.2-.9-1.2h-.6c0-.1-.7,0-.7,0v.7c0,0-.8.4-.8.4v1.1s.4.6.4.6l.2,1.1-.4.3,1.3.8,1,1.7-.5.2h-.3c0-.1,0,.8,0,.8l-.3.6.5.8-.7.6h-.2c0-.1.5-.5.5-.5l-.5-1.2.4-.4v-1.5c0,0-.9-.7-.9-.7l-.5-.7-.2-1.2.3-.5-.9-1.7h-.9s-.3.5-.3.5l-.3-.2h-.8c0,0-.2.4-.2.4v.9s-1.1,0-1.1,0l-2.1.9.2-.5.9-.8v-.8s-.8-.6-.8-.6h-.5c0,0-.9-1-.9-1h-.9c0,.1-.5.6-.5.6l-.5-.7h-.6c0,0-1.8.7-1.8.7l-1.7,1-1.5.5v.6c-.1,0,.3.5.3.5l-.3.4.3.5.8-.3v.6s4.3,1.8,4.3,1.8l.2.7-.4.5.6.9-.2.7,1.6,1.4.2.5,1,.6h-.4c0,.1-1-.2-1-.2l-.5-.9-1.4-.9v-1c.1,0,0-.6,0-.6l-.5-.2-.5-1.1-1.1-.8-2.5-1.2h-.5c0,0-.8-.7-.8-.7l-.5.5h-.6s0,.4,0,.4l-.5.9v.3c0,0,1.3.3,1.3.3l.9.8,1-.5.3,1h-.8s-1.2.7-1.2.7l-.2-.3-.7.2.2,1,.3-.2.6.3,1.4-.7h1.9c0,0,.2.2.2.2v.6c0,0,1.5.9,1.5.9h.5c0,0-.2.4-.2.4h-.7s-.9-.7-.9-.7l-1.2-.5v.5c0,0,1.1.3,1.1.3l-.2.5-.3-.2h-1.2s-.2.2-.2.2l-.5.7.2.5h-.6c0,.1-.5-.3-.5-.3l-.4.3-.2.3,1,.5v.3h-.4s.8.9.8.9l.7.3.9-1v-.3s.2-.3.2-.3l.8-.2.6.3.2.8.5.5,1.8.3.2.6-.6.4-.2-.4-1.7-.6-.5-1.1-.6-.4v.7c-.1,0-.4.1-.4.1v.5s-.6,0-.6,0v.6c-.1,0-.7.6-.7.6v1.1c.1,0,1,0,1,0l.9.5h.5s-.3.7-.3.7l-.6.2v.4s.5.9.5.9h.5c0-.1,0,.2,0,.2l-.6.2-.5-.5-.7-2.2h-.3c0-.1-.1.4-.1.4l-.4-.6h-.5c0,.1.2,1.5.2,1.5l1.3,1.7h.6c0,0-.2.8-.2.8l.3.8-.4-.2-.3-.9-1.1-1.1-1-2.5-.7-.4v.6c0,0-.8.1-.8.1l1,.9.5,1.7-.7,2.4h.4s.7.6.7.6l1.2.4.5.6h.7c0,.1-.4,1.1-.4,1.1l1.3.9h-.3c0,.1-.6-.2-.6-.2l-1.7-1.9h-.6c0-.1-.7-1.1-.7-1.1l-.7.2-.3-.3-.2-.6.4-1.2v-1.1c0,0-.9-2.4-.9-2.4l-.6-.2-.7-.9h-.3c0,0,.8-1.7.8-1.7h-.3c0,0,.2-1.9.2-1.9l.5-1.2v-1c0,0-.5-.5-.5-.5l-.6.7h-.5c0,.1-.2-.4-.2-.4h.5c0,0,.5-.6.5-.6h.5s-.4-.6-.4-.6l-.7-.2.3-.5-.2-.5-1-.7h-.5s-.5.3-.5.3l.4,2.1h-.4s-.5.5-.5.5l-.4-.6-.4.3v.4c-.1,0,0,.6,0,.6l.5.3-.3.4.4.4-.4.5.4.3-.9.9-.3-.2-.3.3v.6c0,0-1.2-.2-1.2-.2l.3.5h-1.2s-.2,1.3-.2,1.3h-.3c0,0,.1-1,.1-1l-.2-.6v-.5c0,0,1.4,0,1.4,0v-1.9c.1,0,0-.6,0-.6l-.6-.2v-.6c-.1,0-1.1,0-1.1,0l-.2.2h.3c0,.1,0,1.7,0,1.7l-.5-.4-.3.3.2.4h-.2c0,.1-.8,0-.8,0v.9c0,0-.1.2-.1.2l-.4-.3v-.6s.4-.5.4-.5v-.3c-.1,0-.6-.2-.6-.2h-.6c0,.1-.6.5-.6.5l-.2,1-.9.5-.3,1-.8.8v.5s.4,1.2.4,1.2l.5.3.6-.2h.1c0,.1-.2.6-.2.6l.6.5.2-.2.2-1.1h-.5c0-.1-.2-.6-.2-.6l1.7-.6.4-.9-.2-1,.3.5.5.2v1.5c.1,0,2,0,2,0l.9.2.3-.6,1.1.4v.4c.1,0,1.2.1,1.2.1l.8.9h-.5c0,.1,0,.9,0,.9l-.3.4v.6c0,0-1,1-1,1l.3.7v.2c-.1,0-.7.1-.7.1l-.5-1.9-.5-.3h-.9s-2.2.8-2.2.8v.9c-.1,0-.5,0-.5,0v-.3c0,0-.1-.3-.1-.3l-1.6.5-.8.5h-1c0,0-.8.9-.8.9l-.4.5h-.6s-.2-.2-.2-.2h-1.1s-.8-.3-.8-.3l.2-.3h-1.2l-2.7,1.2.5.4-.7.4v.2c.1,0,4-.8,4-.8v.5c.1,0-.4,0-.4,0l-1,.5h-.9c0,0-.9.6-.9.6l.3.3-.3.2-1.1-.7-.5.7v.5c.1,0-.2.8-.2.8l.7.2.6-.5v.7c0,0-.1.5-.1.5l-.2.3,3.3-1h.3c0,0-.8.7-.8.7v.3s.6,0,.6,0l-.3.3h1.8s-.5.3-.5.3l-.8.2h-1.2c0-.1-1.2.5-1.2.5h-1.7c0-.1-.4.4-.4.4h.2c0,.1.5,0,.5,0v.5c0,0,1.1-.2,1.1-.2l.3.3-.8.7-1.5.6-.2.5.4.5h2.5s3.8-2.4,3.8-2.4l.7-.9-.3-.4.2-.3.6-.2,1.1-1.2,1.1-.5.3-1.6.7-.5v.8c.1,0-.4.3-.4.3l.2.5,1.3.9,2.4.8,1.1,1,.8.2.2.2v1s.8.4.8.4v.7s-.2,0-.2,0l-.8-.6-.3-.5v-.7s-.9,0-.9,0l-1.6-1.4h-1.4c0-.1-1.6.5-1.6.5v.3s.9,1.2.9,1.2h1.2c0-.1.4,0,.4,0l1.3,1.1v.2s-1.8-1-1.8-1l-.5.3.5.7h-.2c0,.1-.7-.5-.7-.5l-1.2-.6-.8-.8-.7-.2-.6.8-.2.7h1.2c0,0,.2.4.2.4l-.3.2-.7-.2-.7.2-.8,1.1-.4,1.1.5.3h.8c0,0,.7-.6.7-.6v.3c0,0,2.3,1.1,2.3,1.1v.3s-.5,0-.5,0l-1.3-.9h-.5s-.7.3-.7.3l-.4.5v1.6s.4.6.4.6l.8.5h2.6c0,0,1.1,1,1.1,1l.4-.7,1.8-1.4,1.8-.5.6-.4h.9v.4l-1.9.4-1.4.6-1.3,1.4-.7,1.2v.3s.4.4.4.4l-.7.4.2.7.7,1.1.3.5.3.6v.3c-.1,0,.2.3.2.3v1.2c.1,0,1.1.5,1.1.5v.3c.1,0-.2.3-.2.3l-.8-.4-.8-1.1-.3-1.1-.7-2.2-.7-.6v-1.3s-.5-.7-.5-.7l-2.6-.6-.9.8v.5l-.4.6-.7.4-.3-.2.6-.4v-.4c.1,0-.4-.7-.4-.7l1.4-.4-.6-.5v-.6s-.6,0-.6,0l-1.1.9h-.5s-1,1-1,1l-.7-.2,2-1.6-.8-.5-.2-.7.2-.5.7,1.1h.4c0,0,.7-.1.7-.1v-.7c0,0-.9-1-.9-1l-.5-.2-2.5,1.1-1.6,1.6-1.3.9-1,1.3.9,1h1s.8-.4.8-.4l2,.6.9-.4h.8v.3s-1.3.3-1.3.3l-.3.7h-.7c0-.1-.7.9-.7.9v-1.2c0,0-.9-.4-.9-.4l-.3.4h-1.2s-.5-.4-.5-.4l-.5.2-.3.2v1.3s0,.8,0,.8l-1,.6v.5s-1.2.9-1.2.9l-.6.9-.4.3h-.6s-.2.9-.2.9l-1.1.8.2.4,1.5-.7,2.8-.3,2.2-1.4-.4,1.8h.3c0,0-.6.7-.6.7l.6.3.9-.8,1.1-.4v-.5c0,0-.5-.1-.5-.1l.4-.3,1.1.3.7-.2.2-.3.8-.8h1.1l.9-.4h.6c0,0,.5-.3.5-.3l.3.3v.7c0,0-1.6,1-1.6,1l-1.2.2-.7.3v.2s1.3,0,1.3,0l.9.7h.8c0-.1.3-.6.3-.6l.6.3.8-.2.3.3h.5c0,.1.6,0,.6,0l.9.6,1.9.7h1.1c0,0,.3.2.3.2v.4c0,0-.2,0-.2,0v.3c0,0-.6,0-.6,0l-.6-.7-1.4-.3-.9.2-.5-.5-1,.7.2.3.8.2.9,1.1v.9c0,0-.5.7-.5.7l.4,1.9h-.2c0,0-.9-.2-.9-.2v-1.6c0,0,.4-1,.4-1l-.2-.6-.3-.2h-1.3s-1.2-1.3-1.2-1.3l-1.4.4-.2-.7-.4-.3h-.9s-1.9,2.7-1.9,2.7l.9.6.5,1.3h-.6c0,0-.4-1.3-.4-1.3h-.5c0,0-.4-.6-.4-.6l1-1.4v-.8c.1,0,.8-.6.8-.6l-.5-.5-1.3.8h-.7c0-.1-.3-.5-.3-.5h-.5c0,.1-.6.5-.6.5l-.6.7-1.3-.5-1.6.9h1.2c0-.1,2.2.4,2.2.4l-1.4.4-1-.5-.5.4h-1.6c0,.1.4-.6.4-.6h-.6c0,0-.8.9-.8.9h-.8c0,.1-.2.4-.2.4v.3c-.1,0,0,.5,0,.5l-.4,1-.5.4v.5c0,0-.6.3-.6.3l.2.9.3,1.3-.4,1.1v.5s-.6.3-.6.3l-1.1-.7-.3-1.3-1.1-1.6-.5,1v1l-.2,1.1h-2c0,0-.2.8-.2.8h-.8c0-.1-1.2.1-1.2.1l-.2.2.2.3h.9s.2.2.2.2l-.9.6-2-.2-.9.3-.2-.4h-.5s-.3.1-.3.1v.7c.1,0,.6,0,.6,0l.2.3v1.2c0,0,1.4-.3,1.4-.3l.4,1,.7.3v.6c0,0,0,.6,0,.6l.6.5,1.3.9h1.8c0,0,.6,0,.6,0l.3.3h-2.8c0,.1-1.9-.6-1.9-.6l-3.1.3-.2.4.5,1.2,1.5-.2,2.2.5-.3.2-2.4-.3-1.7.7.5.2.7-.2v.8c0,0,.3.5.3.5h1.2c0,0,1.2-.8,1.2-.8h.7c0-.1-.5.4-.5.4l-.4.4v.3c0,0-2.3.2-2.3.2l-.6-.5v-.7s-1,.2-1,.2v-.4c-.1,0-1.3-.2-1.3-.2l-.8.2-.8-.2-.9.4-.2.4h1.2c0,.1.2.8.2.8l1.6.3,1,.5,1,.2.5.9-.3.2h-.4c0-.1-.4-.6-.4-.6h-1.2c0-.1-.7.2-.7.2v-.6c-.1,0-.7,0-.7,0l-.3-.2-.9.2-.5-.3-.4.2-.5.4.6.4.3.6.9-.4h1c0,0,.7.4.7.4l.2.4-1.3-.5-1.2.5-.4.5-.2,1.2-.4.4.3.5,1.2.3,1-.5h1.5s.8-1.1.8-1.1l1.1-.7,1-.2.2.3-1.2.4-1,.6-.4.8,1.2.2,1.6.8.2.8-1.8-1.1h-.8c0-.1-2.5,0-2.5,0v.5c-.1,0-1.3,0-1.3,0l.7.9-.5.8-.2.8h.5c0,0,.7-.3.7-.3l.4.3-1.1.6h-1.3c0-.1.6-1.2.6-1.2l-.4-.4v-1.1c0,0-.8-.4-.8-.4l-.7-.9h-.6c0,0-1,.8-1,.8h-.7s0,.3,0,.3l.8.6.2.6h.8s.2.8.2.8l-.2.5v.3c0,0,.9.6.9.6v.4c-.1,0,.2.9.2.9l-2.5,1.9v1s1.4.5,1.4.5l1.1-.6v.2c0,0-.2.4-.2.4l-.5.3.7.2,1.2-.2,1.5-.6.7-.6h.6s.4-.5.4-.5l.4.3-.5.4.3.5h.9s1,.4,1,.4l-1.6.2h-1.4c0,0-2.3.7-2.3.7l-1.3.9-.2.5.2.2-1.7,1.7h-.4s0,.5,0,.5l.5.6,1.8-.8.6-.4,1.9-1.9h.7s.4.5.4.5l1.1-.3,1.6-1.1.2-.7h1c0,.1-.7.7-.7.7l-.3.6.6.5h.3s3.1-1.2,3.1-1.2h.6c0-.1.5,0,.5,0l.6-1.2.9-.3h.5c0,.1,1.5-.8,1.5-.8v-.3s.5,0,.5,0v.7c-.1,0-.4.5-.4.5l-.7.5h-.6c0,.1-.3.6-.3.6h-.8c0,.1-.2.9-.2.9l-.4.5-1.4.5-.9.7.3-1-.7-.3-2.8.8.8.6.2.8.3.6,1.2-.4h.5c0,.1.8.9.8.9v.4c-.1,0-1.3-.8-1.3-.8l-.8.5h-.9c0,0-.8.5-.8.5l-.7,1.6-.2-1.1,1-1.7v-.9c.1,0-.5,0-.5,0l.3-.7v-.7c0,0-1-.3-1-.3l-.3.4h-.7s-1.3.5-1.3.5l-.3-.4h-.4c0,0-1.5,1.1-1.5,1.1v.4c-.1,0-.5.2-.5.2l-2.1,1-3.8,1.1-.2.5-1,.5-1.3,1.3v.4c.1,0,1.2,0,1.2,0l-1.4.7v.5c0,0,2.3-.8,2.3-.8h1.2c0,.1,2.1-.7,2.1-.7v.2s-1.2.7-1.2.7v1.6s-.8,1.2-.8,1.2v.2c.1,0,.7,0,.7,0l.7.8h1.1s.3.6.3.6h.4s.5-.5.5-.5v.9s.6.5.6.5l-.2.7.5.9v.9s-.6-1.1-.6-1.1l-.2-1-.7.3-.4-.4v-.9c-.1,0-.7-.3-.7-.3h-1s-1.3-1.8-1.3-1.8h-.7c0,0-2.4,1.9-2.4,1.9l-.4.9-.2,1.9-.3.2-.2.9.3.3v-.3c0,0,.8-.1.8-.1l.9.9-.3.8h-.3s-.2-1.2-.2-1.2l-1.1.4v.5l-.4.7-.7.6,1,1.2.4.9.7.4.5,1.4,1.4.7-.7.4-.5-.7-1.6-.4v-.7c0,0,.5-.6.5-.6v-.3c0,0-.5,0-.5,0l-.4-.5v-.5c0,0-1.1-.8-1.1-.8l-.3.2-2.2,4.1.8,3.4.7.5.9.6.8-1v-1.4c0,0,.2-.6.2-.6l.4,2.4-.7.6.3.3.2.8.9-.3h.4c0,.1-1,.6-1,.6l.5.5v.3c.1,0,.4,1.9.4,1.9l-.5-.3-.6-1.3-1-.6h-.9c0-.1-.1.6-.1.6l1,1.3h-.7s-.6-.8-.6-.8l-.2-1,.3-1.1-1.1-1.5-.9-.7v-1.6c0,0-.5-.4-.5-.4l-.7.8-.3,2.5-.8,2.1.6-.5,1.2-.4.4-.5.3.5-.8.9h-.4c0,.1-1.1,1-1.1,1l-.7,1,.3.6-.6.2-.4,1.2v.4c.1,0-.5.5-.5.5l.2.3h.6c0-.1.2,0,.2,0l-.7,1.4v.7c-.1,0-1,1.1-1,1.1l-.4-.8h-.3s-.5.4-.5.4v.6c0,0,.7.3.7.3l.9-.2,1.8-1,1.3-1.6v-.4s-.4-.3-.4-.3l-.2-.7,1.7-.2,1.3-1.5h.6c0,.1-.8,1.4-.8,1.4l.5.3v.4c-.1,0-.9,0-.9,0l-.4.2-.6,1.4-1,1v.3s.4,0,.4,0l1.5-1.1h.5c0,.1-1.1,1-1.1,1l.3.3,1.1-.5.3.5-.3.5h.5s.4.5.4.5l-.4.4-.7-.3-.6.4-.4.7v.3c0,0,1.1.7,1.1.7l1.2.2,3.7-3,1.6-2.4,1.4-1.7.4-.3.3.4v.3c0,0-.6.3-.6.3l-.2.5-1.1.9-1.4,2.3-.8.5-2,2.2h-.7s-2.3,1.3-2.3,1.3l.6.4.7-.8h.2c0,.1-.2.8-.2.8l.4.2v.3s-.7.4-.7.4l-.3-.4-.9-.6-.9.3-.2.6-.8.4-1.5.3.5,1.3v.7s-.4.5-.4.5l.2.3.3.2h.7c0,0,.3.4.3.4l1.8-1.2h1.1c0,.1.8.5.8.5l1-.2v.6s.5,1,.5,1l1.2-.3,1.2.3.2-.3v-.9c0,0,2-.1,2-.1l.4-.3v-.7c0,0-.3-1.1-.3-1.1l.3-.3.5.2.3-1.2,1.2-.4.5-1.3,1-.2,1.8.4,2.1.2,1.8-.6,1.5.2h2.8c0,0,2-.4,2-.4l1.1-.4,1.3.2,1.4-.6,2.5.8.8-4.8,2-2.3v-7.9c-.1,0,.5-6.9.5-6.9l1.3-4.2-.6-3.3-1.1-9,8.2-.8,7-5-1.7-7.9,1.2-1.6,2.7-2.8,6.5-12.6,2.5-2.8,3-2.6.3-6.4-4.9-9.4,1.1-3.4,3.9-.6,1.4-2.4,1-2.2,2.8-11.1,7-5.7,1.6-2.9,6.3,3.6,3.4,2.7,4-9.7-.8-8.8.2-2.5.2-3.1ZM181.6,217.9l.2-.5-.2-.6-.8-.5-.8.9-.2,1.3h.2c0,.1,1-.3,1-.3l.5-.2ZM169.4,267.3v-.5s-.3-.3-.3-.3h-.9s.8-1.6.8-1.6l-.2-.3h-.3c0,.1,0-.9,0-.9l-.9-.8-1.6,1.1v1.9c0,0,.2.5.2.5l-.4.2-.2-.7-.4,1,.2.7-.3.4-.3-.5h-.3s-.8.5-.8.5l2,.3.8.8,1.5-.4,1.6-1.4ZM169.6,230.3l2-.5-2.4,1.9-.2.8.2.2,2.5-1,1.3-.8.6-1,1-.3v-1s-.4-.7-.4-.7v-.6s-.2-.3-.2-.3l.2-1-.3-.6v-.5s-.3-.4-.3-.4l-.6.3.2.2-.2.5-1.3.6-.6,1.3,1-.9h.6c0,0-.1.4-.1.4l.3.3-.6.7-.6,1.1-1.6.6-.2.3-.2.5ZM173.6,232.5l-.9.7-.9,1.1-.6,1.3.2.5h-.7c0,0-.5.9-.5.9l.2.9.7-.5h1.6c0-.1,2.8-2.9,2.8-2.9l1.7-.6h.4s1.1-1.2,1.1-1.2v-.3s-.7.1-.7.1l.5-.8-1.1.5-1.7.4-1.4,1.1h-.5s.7-1.1.7-1.1l.7-.5h-1.1c0,.1-.7.4-.7.4ZM172.1,237.4l-1.1.9v.4c-.1,0,.7,0,.7,0l.9-1.3h-.5ZM174.2,211.9h.2c0-.1.5-1,.5-1v-.8s-.5-.6-.5-.6h-.3c0,.1-.4,1.1-.4,1.1l.3.4-.2.5.5.3ZM182.8,222.2l-1.4-.2-1.7.5-1,1.8h.9s1.7-1,1.7-1l1.6-1.2ZM177,213.1l1-.5.2-.3-.4-1.2-.9.5-.2.4.2.8v.3ZM178.7,215.3l.4.5-.5.4-.2,1.5.3.3h.4c0-.1.2-.5.2-.5v-1s.3-1.5.3-1.5l-.5.2h-.3ZM170.6,239.7v-.9c-.1,0-.3,1.3-.3,1.3l.2.2h.3c0,0,.7-.6.7-.6h.2s.4-1,.4-1l-.6.3-1,.8ZM176.8,226.9h-.4c0,.1-.6-.5-.6-.5l.2-.3h-1.3v.3c-.1,0,.2.7.2.7v.6s1.2.1,1.2.1l.5-.4v-.3s0-.3,0-.3ZM175.3,223.7h.8s-.1.7-.1.7l.5.5h.6s1.2-1.3,1.2-1.3v-1.4s-.3-.5-.3-.5h-1c0-.1-1.5,1.1-1.5,1.1v.2c.1,0-.2.3-.2.3v.2ZM173.6,168.2v-1c0,0,.5-.2.5-.2l.4.4v-.6c0,0,.4,0,.4,0v.5c.1,0,.8.2.8.2v-.5l-.4-.4.5-.9h-1s0,.3,0,.3l-.5.3-.3.8-.7.3.2.9h.4ZM168.5,235v-.5c.1,0,1.1-.5,1.1-.5v-1.1c0,0,.7-.4.7-.4l-1.6.5-1.1,1.7.8-.2v.2s-.8.4-.8.4v.6c-.1,0,.3-.4.3-.4l.6-.5ZM170.6,241.8l-.4,1.3,1.7-1.2v-1.2c0,0-.2.3-.2.3l-1.1.8ZM169.8,226.8v-.4s-.4.2-.4.2l-.5,1v.7c.1,0,.9-1.5.9-1.5ZM166.3,245.4l-.2-.4h-.7c0,0-.4.9-.4.9v.2c.1,0,.9-.2.9-.2l.4-.5ZM166.2,248.8l.6-.7.3-1.2-.3-.2-.6,1.1v.9ZM166.7,252.3h-.2s-.6.4-.6.4l-.6.8v.5c0,0,.4,0,.4,0l.9-1.3v-.3ZM170.1,235.8h-.4c0-.1-.7.3-.7.3v.5s.2,0,.2,0l-.6,1.1-.4.3-.3,1.6,1.4-2.5.8-1.2ZM170.2,245h-.5c0,.1-.7.9-.7.9v.7c0,0,.8-.1.8-.1l.5-1.2.9-1.2v-.4l-.8.6-.2.7ZM170.5,227.6v-.4s-.6.3-.6.3l-.3.7.4-.3.5-.2Z"/>
    <path id="NO-17" d="M151.3,273h.7s.1.2.1.2l-1.8.8-.7.9h-.4c0,.1-.2-.3-.2-.3h-.4v.5l-2,1.4-.3.4h-.5c0-.1,2.3-2.7,2.3-2.7h.4s1.1-.8,1.1-.8l.8-1.1h.5s0,.8,0,.8h.3ZM151.9,282.7l-.9.5v.3c-.1,0,.2.9.2.9h1.4s.1.7.1.7l.6.7.7-2.4v-.5s-.5-.1-.5-.1v-.4s-1.7.3-1.7.3ZM154.1,284.2l.4,1.6-.4.3-.2.9,1.5.8.7-.4.4-.6-1.1-1-1-1.6h-.2ZM154.6,289.8v.4s.4,0,.4,0l.6-1.7v-.4c-.1,0-1.6-.7-1.6-.7l-.4.4h-.8c0-.1.1-1.6.1-1.6l-.4-.8-1.6-.8-.7-1h-.6l-.6.6v1.2s1.1.6,1.1.6l1.4-.3-.4.7-.6.3v.8s1,1.4,1,1.4l.5-.3h1v.5c-.1,0,.2.7.2.7l1.3-.2ZM160.1,270.1l.3.4,2.6-2.1h-.7s.7-.6.7-.6v-.5c0,0,1.4-.7,1.4-.7l.3-.8-.2-1h-.4c0-.1-1.4,1.1-1.4,1.1l-.3.5-.4.2-1.8,2.8v.5l-.2.2ZM150.1,275.1l-.6.6v.6c-.1,0,.3,1,.3,1h.9c0,0,.7-.6.7-.6l.7-.6,1-1.5v-.3s-.7.2-.7.2l-.4-.9-2,1.1v.4ZM157.9,269.4l.8-.9,1.8-1.2.3-.4v-.4c0,0-.8.2-.8.2l-1.1-.3-.7.4h-.8c0,0-.8.9-.8.9v.3c.1,0-.2.8-.2.8h.3s.2.5.2.5h.9ZM158.6,269.5l.7-.3.4-.7h-.3c0-.1-.4,0-.4,0l-.3.9ZM197.3,290.7l.7,9.7-3,6.6-4.2-1.4-7.6-1.7-4.5,1.3-3.8,3-5.5,9.2-.5,1.5-2.4,2.8,1,4.1-2,4.3-1.7,3,1.2,2.9h0l-6.7.2-2.7-5.1-2.1-.6-1.9-.2-.8.2h-1.2c0,0-1.9.3-1.9.3l-1.1-.9h-.5s.2-.9.2-.9v-1.9h-.1l.7-.4.2-.6-.4-.4-1.1.3-.6-.5-.4-.8v-.5s.5-.7.5-.7l1.8-.2.7-.6h-1.1c0,.1-.3-.3-.3-.3l.4-.4h.6s.3-1,.3-1h-.3c0-.1-3.8,2.5-3.8,2.5h-.3c0,.1-.4-.2-.4-.2l.6-.4v-.8s.8-1.3.8-1.3l.9-.6h.5c0,.1.6-.1.6-.1l.6-1.1,1.1-1.1h.7s.3-.5.3-.5h.4c0,.1,0,.7,0,.7l1.1-.4,1.2-.2.3-.4v-1.2s1-.3,1-.3l.2.4h.3c0,0,.3-.5.3-.5l.9-.4.6.4.5-1.1-.3-.5-.6-.2.6-.2v-.3l-.4-.2-.2-.4-.4.5-1-.2-.3-.7h.7s.6-.8.6-.8l-.4-.4.4-1.5-.2-.3-.3.2-.4.8v.8c.1,0-.8,1-.8,1h-.3c0,.1-.3-.2-.3-.2l-.8.9-.6.2h-.8c0,0-.3-1.1-.3-1.1v-.6c.1,0,1-.7,1-.7h.6s1.7-2.2,1.7-2.2h.8s1.5-.4,1.5-.4l.7-.7-.7-1-.8.3h-.2s0-.5,0-.5h-.3c0-.1-1.7.1-1.7.1l-1.1,1.4-1,.3-1.2.8-1.6,1.9-1,.8-2.8,1.4-1.5,1.3.2.2,1-.6.5-.7,1.8-.7,2.3-1.8.2.5,1.1.4v.7s.4.7.4.7l-1.1,1,.2.4-1,2.1-1.9,1-1,.3-2.2,1.3-.2.3v.4s-.6.8-.6.8l-.6.2-1.8,1.5-1.1.3-.6.6-1.4.2v.5c-.1,0-.7.5-.7.5h0l-.5-2.1.6-.6.6-1.9,2.1-1.4,1.5-1.6.3-1.4,1-2.3,1.4-2.4,1.7-1.1,1-2.1-.4-1,.9-1.3v-.9s.9-.6.9-.6l-.3-.4h-1.2c0-.1-.7-2.2-.7-2.2l2.4-1.2.3-.5.3-1.9-1.7-.6-1.1-.9-.7-.8-.2-.9-2.8-2.3h0l.3-.4,1.3,1.2.3-.3h-.1c0-.1-1.1-.7-1.1-.7l.9-.8,1.3,1.5h.8c0,0,.1,1.3.1,1.3l1.2.4-.3-.8-.6-.5.6-.4-.2-.8-1.7.4v-.4c-.1,0-.7-.3-.7-.3v-.3c0,0,.5-.2.5-.2v-.7c.1,0,.6.3.6.3l.3.5.3-.3v-.7c.1,0,1.2.4,1.2.4v-.3s-.6-.6-.6-.6v-.6c-.1,0,.9.3.9.3l1-.5h.3c0,.1.7-.8.7-.8l-1.1-1.4.8-1h.4s1.7,1.3,1.7,1.3l-.3.5v1.4s.5-.4.5-.4l1.4,1.6v.7c0,0-.4.8-.4.8h.4s.7-.5.7-.5l.2.2.8-.5v.9s.6.1.6.1l-.4,1.7-.6.6-.9,1.7v.7c0,0,2.1-3.1,2.1-3.1l.4-.2-.2-.7.6-1,1.1.3,1.2-.7-.3-.3h-.8s-.4.7-.4.7l-.3-.3.4-2.2h1.1s0-.3,0-.3h-.6s0-.6,0-.6l.4-.2v-.4c0,0,.6,0,.6,0l.4.3,2.4-1.2v-.2s-.6-.1-.6-.1l-.8.4v-1.1c-.1,0-.6-.2-.6-.2l-.3.4.3.9-1.1.7-1.4-1.4-1-2.4.2-.5h.4c0,.1.4-.3.4-.3l-.4-.4v-.4h.3c0,.1,1.4-.6,1.4-.6l.2-.9.7-.6h1.6s.6-.6.6-.6l.6.4h.6l1.1-.8-.6-.2-1.3.3v-.3c0,0-1.9-.6-1.9-.6l2.8-.9h-.7c0-.1-1.7.1-1.7.1l.3-.9,4.5-2.7,1,.2-.2-.6h-.9c0-.1-3.6,2.3-3.6,2.3l-1.7.5v.2c0,0,.4,0,.4,0l-.2,1-2.6,1.3v.5c0,0-1.2,1.3-1.2,1.3l-2.7.9-.3-.3.3-.5,2.1-.6.6-1,.9-.7-1.2.3-1.1-.3-.3.3h-.6c0,0,0-.8,0-.8l.5-.9,1.9-.6,2.5-.3,2.6-1.3h-.6c0,0-1,.5-1,.5l-1.8.6-1.3.2-2.1.7-.2-.2v-.3s.7-.8.7-.8l2.9-2.3,2.2-.7.5.5h.7c0,0,.1-.5.1-.5l.5-.3-.2-.2h-.5c0,0-.2.4-.2.4l-.4-.4-1.4.2.3-.7.7-.4h.4c0,0,.3-.3.3-.3l.6.5h.3c0,0,.5.1.5.1v-.5c.1,0,2.2-1.7,2.2-1.7l1.2-.2.5.2-.2,1,.9,1h.4s.1-.7.1-.7l.5-.2.5,1.6.6.5h.7c0,0,.3.4.3.4l1.8-1.2h1.1c0,.1.8.5.8.5l1-.2v.6s.5,1,.5,1l1.2-.3.9.4.4-.4v-.9c0,0,2-.1,2-.1l.4-.3v-.7c0,0-.3-1.1-.3-1.1l.3-.3.5.2.3-1.2,1.2-.4.5-1.3,1-.2,1.8.4,2.1.2,1.8-.6,1.5.2h2.8c0,0,2-.4,2-.4l1.1-.4,1.3.2,1.4-.6,2.5.8-4.7,8.2-4.9,9.2-1,2.5,3.6,2.6,3.1,1.1.5.6ZM149.7,314.7l-.4-.2-.8,2h.5s.3-.5.3-.5h.4c0-.1.8-.9.8-.9l.2-.4.9.2.5-.5v-.3c-.1,0-.6,0-.6,0l-1.8.8ZM145.1,274.9l.4.2-1,1.3,1.3-.3,1.2-1,.2-.7,2-1.1.5-1,1.4-.7h-.8c0-.1-1,.2-1,.2l-3,1.7h-.7c0,0-1,.7-1,.7l-.2,1.5.6-.5.2-.3Z"/>
    <path id="NO-01" d="M147.9,470.7l-.3.3-.5-.8.6-.9.2,1.4ZM147,468.9v-.7c.1,0-.5.3-.5.3l-.2-.3-.6.6.3.9h.4c0,0,.6-.8.6-.8ZM163,447.6h0l-.8.3h-1.3s-1.3.8-1.3.8v1.2c-.1,0-.9,1.2-.9,1.2l-1.2,1-.8.2-.2,1.1-.4.3-.2-.2v-1.3c.1,0,0-.6,0-.6l-1-.3-.6-.7-.2-1.3-.6-.6-1-.4-.5,1.4v1.3s-.9,0-.9,0l-1.1-.4-2-.2-.2.8.4.6-.9.8-.6.3-.6,1.6h-.6l-.4.3v.5c.1,0,0,1.4,0,1.4l-.7.7-.7-1h0v.8c0,0-.5,1.4-.5,1.4v3c.1,0,.6,1,.6,1l.7-1.3h.3c0,0,.1,1,.1,1l.6-.3-.9,1.1-.2,1v.7c.1,0,.6,0,.6,0l.7.8-.2.2v.4s.8.7.8.7l.5-.5h.5v.9s.4.4.4.4h.2c0,0,.2-1.1.2-1.1l.3-.5h.3c0,0,.7,1.8.7,1.8l.6-.4v.6s.2,0,.2,0l.4-.3.2-.4.6-.4v-.9s.4.2.4.2l-.2.8v.3s0,.3,0,.3l.2.5h.3c0,.1,0,.8,0,.8l1.4-.3.5-.5h1s-.2.6-.2.6l1,2.2.3,1.7v2.5c-.1,0,1.2.4,1.2.4v-.2c0,0,.2-.4.2-.4l.3.3,1.3-.6v-.8c.1,0,.6-.8.6-.8v-1c0,0,.4-1.4.4-1.4l1-1.6v-.4c0,0-.2-.5-.2-.5l.2-.6v-2.2c0,0,.8-1,.8-1l-.2-3.1-.6-1.3-.4-2.8-1-3.4v-.6c0,0,.5-.6.5-.6l.9-.5,1.2-.2.5-1.4h.8c0,0,0-1.1,0-1.1l-.2-2ZM149.9,469.4l-.7.2-.2-.5-.7.3.3.7-.2.2v.7s.5.4.5.4l.5-.4v-.3s.5-1.3.5-1.3Z"/>
    <path id="NO-05" d="M91.2,376.1v-.9c0,0,.8-.7.8-.7l.3-1.1h1.1c0,0,.4-.1.4-.1l.7.9h.4c0,0,.8-.5.8-.5l-.8-1.4,1.2-.5,1.2-1.5,1.5-.2.6.7,1.9-.3,2.3-3.8.6-.5.5-.8,1-.6,1.6-.5,5.4-.6h2.8c0,0,.4.8.4.8l1,.2h.6c0-.1.5-.7.5-.7h0l6.7,2.7.5.5,1.4.8,1.9-.9h1.1c0-.1-1.1.5-1.1.5l-1.1,2.1-.3.2h-.4c0,0-.6.5-.6.5l1.3,1.5,2.4.9.9.6.7.9v.8s-.5,0-.5,0l-.7.9.4,2.2-.2,1.5h1.1s1.4.6,1.4.6v-.8s.5-.4.5-.4l1.2,1.1h.6c0,.1-1.7,4.5-1.7,4.5l2.3,1.1,1.4.2,1.7,1.4,1.3-1.7,1.4-.7,1,1.2.4,3.8.7,3.1-.4,1,1.3,2.4,1.4,4.2-1.6,1-.3,1-1.1,1.4-1.3,2.5-.8.7-1.2.2v.4s.8,1.1.8,1.1l1.7,1,.8,1,.5,1.5.6.8-.4,1.7.6,1.3,2.4,1.4,3.3,2.7,1,1.8h0l-.6.5-.4,2.1-1.6.5-.7.5.2.2-.2.2h-.5c0,.1-1.2-.2-1.2-.2l-2-1.1v1.8c0,0-.6.9-.6.9l2.3.3,1.1.9.6,1.6-2,2.7-.5,1.7v.8c.1,0-.1,1-.1,1h-1c0-.1-.4,0-.4,0v.3h0-1.2c0,0-.7-1-.7-1l-.9-.2-1.6-1.3-.9-.3-.4-.5v-.8c0,0-1.8-3.8-1.8-3.8l-.7-4.4-1-1.4-.4-1.3-.6-.8h-1.9c0,0,.4.5.4.5l.4.2-.2.5-1.3.8-.3-.3-.4.9.3,3.2h-.6s-.9-.4-.9-.4l-1.7-1v-.4c0,0-.2-.9-.2-.9l-1.8.3-1.2-.7v-1c0,0,.2-.5.2-.5l-.2-.5-.7-.3-.4-1.4-.5-.4v-.7c0,0,.2-.9.2-.9l-.7-1.1-1.1-.3-1.1-1.1-.9-.3-2.7-1.6-.5-1.1-1.3-.2-2.5-1.2-.4-.4.3-.5-.4-.6-1.6-1h-1c0,0-.4-.7-.4-.7l-2.6-1.9-.7,1h0l-2-3-.5-1.1v-.9c-.1,0,.2-.8.2-.8l1-.6v-.5s.5-.7.5-.7l.8-.3.5-.8-1.5-1.3v-1.6s.6-.5.6-.5l.4.2h1c0-.1.7-.7.7-.7l-.9-2.7-1.1-.5-1.3.8-2.6-1-.2-1.3-.6-1.5v-2.6c.1,0-.7-.6-.7-.6l-1.5-.5-1.3.4-2.9.4v-1.8c-.1,0-1.4-2.8-1.4-2.8v-3.9s-1-.8-1-.8Z"/>
    <path id="NO-03" d="M142.3,436.9h1.2c0,0,.5.4.5.4h.4c0-.1.3.1.3.1v.7s.5.8.5.8h.4c0,.1,0,1.4,0,1.4h.2s.1.7.1.7l.8.7.3-.2.6,1.1-.4.6-.2,1.1.3,2.1-1.1.6-1.4-.7h0v-1c.1,0-.6-1.4-.6-1.4l-.8.5-.6-.5h0l-.3-1.8-1.6-1-.5-.5h0l1.3-1.8h.3c0-.1-.4-1.3-.4-1.3l.5-.5Z"/>
    <path id="NO-11" d="M69.2,463.3l1.7-.3.6.5.3.6-.9.7-1.3.4-.6-.4-.2-.6v-.5c0,0,.4-.3.4-.3ZM85.3,448.3l-3.3,2-1.1.3-.6-.4.5-1.8v-.9c0,0,.1-1,.1-1l-.6-.5-1,.3-.8-.2-3.3,2v.4c0,0-.6,0-.6,0l-.5,1.2v.7s-.7.7-.7.7l-.6,1.4v1.4s-1,0-1,0l-.9-.3-1.5.5v-.6s-1-.3-1-.3l-1,1.2h-1c0-.1-1,0-1,0v-.4c0,0-.7-.2-.7-.2l-.5.5.2.6-.2.2-.6.4h-.6s-.2-.2-.2-.2h0l-.5.8h-.7c0,0-.2.3-.2.3h0l-.9.2v.4c-.1,0-.5,0-.5,0l-.2-.4-.7.6-.9-.9h0l-.4.2.3,2,.9,1.4.9,3.6.5-.5-.3-2.7h.3c0,0,.3,2.2.3,2.2l.3.3h.6c0,0,.5.7.5.7h1c0,0,.9-1.8.9-1.8v-1.5c-.1,0,.1-.4.1-.4l-.2-.5h-.5c0-.1.2-1.9.2-1.9l-.2-.3-.4.3v.5s-.6.5-.6.5h-1s0-.9,0-.9l.6.3.9-1.3.3-.3h.7s0,.4,0,.4l-.3.4.2,1.9.5,2.2-.4,2.2.2.4.3-.3v-.6s.9-.7.9-.7l.4-.5v-.5s.7.6.7.6l1.6-.8v-1c.1,0-.5-.6-.5-.6l-.3-1-1.4.6-.3-1.1v-.3s.3,0,.3,0l.2.8,1.4-.9v-.6s-.6-1.1-.6-1.1l.5-.6h.3c0,0,0,1.1,0,1.1l.5.3.2.7,1.6-.2h1.4c0,.1,1.2-.3,1.2-.3l.3.4-1.9.5-.9.5h-1.1s-.3-.2-.3-.2l-.3.2.5,2.7.5.2.7-1.1,2.2-1.2.9-1.4-.2-.8,1-1.1v-.7c0,0,.6-1,.6-1l-.2-.9.4-.7.4-.2h.3c0,0-.6.7-.6.7v1.3s-.5.8-.5.8l-.4,1.3,2.7-1.2h2.4c0-.1-2.6.6-2.6.6l-2.5,1-.3.3v.7c.1,0-.7,1.9-.7,1.9h-1.1c0,.1-1.3.8-1.3.8l-.5,1.3.4.5h.7s1.2.4,1.2.4l1.2-.5.8.4-.3.3h-2.3c0,0,0,.7,0,.7l.6.8,2.8-1.3.2-.4,1.8-.2-3.1,1.7-1.2.4-1.5,1.2-1.2,2.2.4.2.8-.5h.9c0,0,.1.5.1.5h-1.3c0,.1-1,.7-1,.7l-.7-.2-1.5,1.2v.6c.1,0,1,1.3,1,1.3h1.1c0,0,.3.7.3.7l-.7.8.4.9,2.5,2.8h1.4s.3,0,.3,0v.2s-1.6.2-1.6.2l-.3-.2-.6-.4-1-1.2-.7-.3h-.3c0,.1-.4-.2-.4-.2v-1.1c-.1,0-1.2-.7-1.2-.7l-.7.5v.6l-.4.2-.5-.2-.2.2v1.4c0,0-.5.5-.5.5v-1c0,0-.3-.7-.3-.7l.3-.3.2-1.2-3-2.1-.4,1.4.5.6-.4.9.2,1.3.4.6-.7.4-.2,1.4.2.7-1,1.4.4.4v1c.1,0,.6.5.6.5l-.2.6.7.9,1.1,2.5.4.4,1.4.4.4.5-.2.5v.3c.1,0,1.6.7,1.6.7h1c0-.1.5.2.5.2l.3,1.2.7,1.2,1.9,1.2,2.2.7.3.2v.3s.9.7.9.7h0l2.7-1.4.9-1.5-.3-1.6.5-.5-.6-1.6.4-1.6-.4-1.5.4-.7-.5.2-.8-.3-.6.4-.2-.7-.6-.5.3-.4h.9c0,0,1.6-.7,1.6-.7v-.3c0,0,0-.5,0-.5l-.6-.8v-.7c0,0-.9-.1-.9-.1l.7-2.2.7-1.3-.7-.2v-.5c0,0,1.1-1.2,1.1-1.2l-.3-1.1,1.4-.7,1-1.1.3-.7,1.7-1.5v-.7s-.3-.4-.3-.4l.8-1.2h0l-1.5-.2v-1.9c0,0-.3-.9-.3-.9l.2-1.3.8-2.6h.5s-.5-.8-.5-.8l1.3-.4.7-1-.4-2.1.5-1.5.5.2,1-1.2v-.9c-.1,0,1.5-.5,1.5-.5h0l-.2-.4-1.3-.5v-1.7s-.2-.9-.2-.9l-2,.4ZM63.8,468.3l2.1,1.6h.3c0,.1.4-.2.4-.2v-.9s-.7-.5-.7-.5h-1.8c0,0-.5-.5-.5-.5l-.5.6.2.2.4-.2ZM60.7,467.1l.2-.6.6.6.4-.9-.2-1-.7-.6h-.5c0,0-.2,1.7-.2,1.7l.3.8h.2ZM59,463l.4-.5v-.4c0,0-.7-.4-.7-.4l.3-.6v-.6c0,0-1-1.2-1-1.2l-.3.8.3.6-.8.4.4,1.5v.6s-.4,0-.4,0l-.2.7v.7c.1,0,0,.4,0,.4v1.5c.1,0,.5,1.1.5,1.1h1.4c0,0,0,0,0,0l.4-2.4v-1.7c0,0-.4-.3-.4-.3ZM63.4,469.4l1.4.7h.4c0,.1.1,0,.1,0l-.5-.7-1.1-.6h-.6c0,.1,0,.3,0,.3l.3.4ZM66.6,467.6l.7.2.8-.9v-.6l-.7-.5-.9.9.2.9Z"/>
    <path id="NO-14" d="M52.6,412l.7,1.9-.8-.2-.6-1.2h-.3c0,0,0-.5,0-.5h.9ZM54.7,412.1v1.1s.2.9.2.9h-.9s-.3-.5-.3-.5v-1.7s-.2-.7-.2-.7h.2c0-.1.3.1.3.1l.6.8ZM54,408.9h.6c0,0,.1.7.1.7l-.6.6h-.8s-.2-.6-.2-.6v-.5c.1,0,.9-.1.9-.1ZM49.7,406.7l.2,1.2.4.7-.2.9-.4.3-.6-.6-.4-.9v-1c0,0,.9-1.1.9-1.1v.5ZM51.5,406.3v1.4s-.3-.3-.3-.3l-.3,1.1-.4-.7v-1.9c-.1,0,.8-.1.8-.1v.4ZM55.2,404l.6.8v.7l-.9-.2v-1.7c0,0,.4.3.4.3ZM52.9,402.4l.7.4h.2c0-.1.6,0,.6,0v.8c0,0,.4,2.1.4,2.1l-.2.4-1.1.8v.5s-.3.1-.3.1v-1.4c-.1,0-1,.7-1,.7v.5c-.1,0-.5-.7-.5-.7l-.2-2.4.6-.7.5.2.2-.2-.3-.9v-.3c.1,0,.4,0,.4,0ZM53,397h1.6s.3,1.8.3,1.8l-1.2.4-.3-.3v-.4s-.7-.2-.7-.2v-.5c-.1,0,.4-.8.4-.8ZM52.6,386.1l.3,1.6-.6.3-.5-.6v-.8c0,0,.6-.7.6-.7l.2.2ZM52.1,382.9l.8.9-.9,1.1v-.9c0,0-.9-.5-.9-.5l.8-.6.2.2ZM53.6,379.5l2.2,1,2.4.4.2.2v.7s-2.1.3-2.1.3l-1.9,1.4-.7.2v-.3s-.7-.5-.7-.5v-.5c-.1,0,.6-.2.6-.2l.4-.4h-1c0,0-.3-.3-.3-.3h-.9l-.2-.2.8-.7,1-.2-.5-.4.8-.5ZM54.5,375.5l1.1.4.7-.6.2.4.3.7-.2.7v.8c.1,0-.4,1-.4,1h-.7s-.8-.5-.8-.5v-.3s.8-.7.8-.7l-1.2-.7v-1.4c-.1,0,.3.1.3.1ZM57.9,369.4v.5c0,0,.5.6.5.6l1.2.4v.3s-.5.2-.5.2l.3.3v.8s2.5,2,2.5,2l.2.8-.2.6h.2s0,.4,0,.4l-.5.4v.5c-.1,0,.3-.4.3-.4l1.1.8h.8s1.1-.5,1.1-.5l.4.2.4-.4.4.3h.5c0,0,.4.3.4.3l1.3-.8.9-.2.6.2.5.8.4.2,1.4-.5v-.5c0,0,.6-.3.6-.3v-.5c.1,0,1,0,1,0h.4c0,.1-.4.7-.4.7l1,.6.2.5,1.4-1.2.4-.8h1.2s0-.7,0-.7l1.3-.8.7.2.5-.7.5.4.9,2,.4.3.3.9h1.2c0,0,1.2-.6,1.2-.6l.5.2.5-.3h.5c0,.1.7-.8.7-.8h1.6c0,0,.3-.6.3-.6h.5c0-.1.2.4.2.4h.8s.7.4.7.4h0l1,.8v3.9s1.2,2.8,1.2,2.8v1.8c.1,0,3-.4,3-.4l1.3-.4,1.5.5.8.6v2.6c-.1,0,.5,1.6.5,1.6l.2,1.3,2.6,1,1.3-.8,1.1.5.9,2.7-.7.6h-1c0,.1-.5,0-.5,0l-.6.5v1.6s1.6,1.3,1.6,1.3l-.5.8-.9.3-.5.7v.5s-1.1.6-1.1.6l-.3.8v.9c.1,0,.6,1.1.6,1.1l2,3h0v2.2c0,0-.9.5-.9.5l-1.6,2.8h-.9s-1.7-.8-1.7-.8l-1.5,1.2-1,1.8-.2.4.3,1.2-.2.7-.7.4-.7-.2-.9.5-.7,1-1.1.6h-1.4s-2.7-.7-2.7-.7l-.3.3h-.6c0,0-.6-.6-.6-.6l-1.7-.2-.5-4-1.4-.4-1,.5h-1.3c0,0,.7-1.3.7-1.3l.9-.4v-.3c0,0-.3-.7-.3-.7l-.7.4v-.8c0,0-.6,0-.6,0l-.5-.8h-.4c0,0,0,.9,0,.9l-.9.4-.4.6-.5.2-.7-.6v-.5c.1,0-.1-.7-.1-.7l-.8.7h-.9s-1.4,1.5-1.4,1.5l-1.3-1.1-.8-.2-.4-.6.2-1.4-1.1-.6-.5-.9-.4-.2-1.2.8h-.3s-.8,1.7-.8,1.7h-.5s-.9-1-.9-1l-.9.3-.5.6h-.5c0-.1-.4-.6-.4-.6h-.3s-1.8,1.7-1.8,1.7h-.4c0,.1-.2-.4-.2-.4l-1.4.8h-.8c0-.1-.5-.9-.5-.9h-.4s-.1.3-.1.3l-.8.2-.9.7-.7,1.5v.8h0l-.8-.5-.5-1.7v-1.1c0,0-.2,0-.2,0l-.2-.2v-.6c-.1,0,0-.2,0-.2l.5-.2.2.2h.9s.2,1,.2,1l.3-.3v-.8c-.1,0-1.1-.5-1.1-.5h-.5s-.3-1.7-.3-1.7l.5-1,.6-.3h.7s.2-.4.2-.4l.9.2.4.4h.9s.6.8.6.8l1.3.6h1.3c0,0-.2-.8-.2-.8l.6-.5h.9c0,0,1.3-1.2,1.3-1.2h.3c0,0,.4.4.4.4l1.5-1.1.5.2v1.2s-.4.8-.4.8l.2.4.8-1.9.6-.6h1.4s.7.4.7.4h2.1c0-.1.5,0,.5,0l.3.5h1.2c0,0,.5.9.5.9l-.3.9h0c0,0,.6-.8.6-.8h1s-.4,1.7-.4,1.7l-.6.3.2.3.9-.2-.3-.5.8-1.8.8-.2.6-.6h.5c0,0,.2.4.2.4l.8-2.8,1,.8h1s.3.2.3.2h1.1c0,0,.4.5.4.5v1.3c0,0,1,.5,1,.5l.3-.4.8.6v.4c.1,0,0,.4,0,.4l.4,1.5-.3.6-.8.3-.5.4v.4s-1,.4-1,.4v.8c0,0-.6,1.1-.6,1.1l.6-.9v-.8c0,0,2.4-1.4,2.4-1.4l.3-.4.7,1,.9.6v.8s-.6,1.7-.6,1.7h.1c0,0,1-1.3,1-1.3v-1c.1,0,0-.4,0-.4l-.9-.2-.6-.6-.7-2.3.2-.5-.3-.9.2-.5.4-.3.5.2,1-.4h.8s.5-.9.5-.9l1.3.9h.5c0-.1.9.6.9.6h.5c0,0,.2.1.2.1v-.3h-.6c0,0-.2-.8-.2-.8l-.6-.4.8-.3.5-.7.9-.5h1.7c0-.1.5-1,.5-1h.5s.4-.3.4-.3l-1-.3-.4.9-3.2.4-.4-.2-.2-1.9-1.1-1,1.2-.9v-1c0,0,.4-.8.4-.8l.3-.5.8-.5.2-.9.9-.5.5-.6.2-.5v-.2c-.1,0-1.1,1.2-1.1,1.2l-1.2.6-.2.9-.9.5-.2.5-1.3-.6.2.4.7.5v.8c0,0-1.5,1.4-1.5,1.4l.5.7.8.4.4,2.2.7.5-1,.8-1.1-.4v-.4s-.3-.1-.3-.1v.4c0,0-.9.3-.9.3v.6s-2.2.3-2.2.3l-.6.4v.5c-.1,0-.9-.2-.9-.2l-.2-1,.5-.3h.6c0,0,.8-1.2.8-1.2l.4-.2h1.5c0,0-.8-.5-.8-.5l.3-1.2.6-.2v-.4c-.1,0-.9.7-.9.7l-.2.6v.5c-.1,0-1.2.7-1.2.7v.4c0,0-.5.3-.5.3l-1.3.3-1.2-.8-1.9.2-.5-.7h-1.3c0-.1-.1-1.2-.1-1.2l1.4-1.3.2-1.1.8-1.2.2-2.3-.5,2-.5.5-.5,1.7-1.3,1.1-.3-1.6v.9c-.1,0-.8-.1-.8-.1l.6.5.3.6v.5c-.1,0,.2.5.2.5h-.5c0,0-.2.8-.2.8l.2,1.6-1,.3v.5s-1.7.1-1.7.1l-1.1-.8h-.5s-1.1-1-1.1-1l.3-.7-.6.9-2.1.4-.7-.5,1-.7v-.6c.1,0-.1-.4-.1-.4l-.2.8-1,.7-1.7.4-2.3-.2v.7c0,0-.4.3-.4.3l-.8-.3-.3.3h-.4c0,0-.7.9-.7.9l-.6.4h-.3c0,0-1.4,1-1.4,1h-.4l-1-1.7-.7.5h-.9c0,0,0-.6,0-.6l-.4-.3v-.3c.1,0,.6,0,.6,0l.4.5.3-.2-1.2-.8h-.3s-.3.5-.3.5l-1.5-.7.2-1h1.1c0-.1,1.6.9,1.6.9h.4s.3-.6.3-.6l-2-1.3-2.7.2v-.7s-.6-.8-.6-.8v-.5c0,0,.7,0,.7,0l.2-.3h.5c0-.1,1.1-.1,1.1-.1l.2-.6.6.4h.8l-.4-.3v-.9c0,0,2.5-.3,2.5-.3l.7-.5,1.1-.2h.5c0,.1.3-.2.3-.2l-1.8-.2-.4.4-3.1.4-.3.8-1.4.4-.9-1.8v-.5c.1,0,.5-.3.5-.3h.6s.5-.7.5-.7h-.5s-1.2.6-1.2.6l-.5-.5,1.9-1.1h2.2c0,0,0-1,0-1l2.7.2.7,1,1.1.2,1.6-.4,1.3-1.2h.5c0,0,.9,1,.9,1h.4s-.7-1.1-.7-1.1l-1.2-.4-2.8,1.7h-.7l-.3-1.1-3.4-.3-1.1-.5v-.3c-.1,0,0-1.1,0-1.1h.5s.7.5.7.5h.6s.7-.5.7-.5l-1.7-.9h-.6s-.3-.3-.3-.3l.3-.2,4,1v-.6c0,0-1-.6-1-.6l-.8-.2h-1.8c0,0-3.4,1.1-3.4,1.1v-.6s1.2-.5,1.2-.5l3.1-.2v-.4s-1.8,0-1.8,0l-.8-.3-1.8.4.2-.6-.5-1v-1.5s.4-.6.4-.6l.8-.6,1.2.5.5.6h1c0,0,0,0,0,0l-1.1-.9,1.9-.3.3-.2-.6-.2-.7.2h-.8c0,0-.9.4-.9.4v-.6c-.1,0,.9-1,.9-1h.8c0,0,.7-.4.7-.4l1.1-.9-.4-.6,1.2-1.4.8-.4.6.4h1.1c0,.1,0,.6,0,.6l.8-.4,1.7.5.6,1.1,1,.3.8-.4h.8c0-.1,1.1.2,1.1.2l-.7,3h.4s.6-2.7.6-2.7l.3-.2h.3c0,0,1.3,2.2,1.3,2.2l.9.5.6-.5-.7-.3-1.4-1.7v-.4s.8.6.8.6l2.6-.6.6.2,1,.9,1.6.3h.4c0-.1,1.2-1.3,1.2-1.3v-.3c0,0-.4-.4-.4-.4h0c0-.1,1.4-.3,1.4-.3l1.2.3.6.4.2.6.3-1.1h-.4s-.5-.3-.5-.3h-.6s-.2-.4-.2-.4l-.4.2h-.7c0-.1-1.1.1-1.1.1l-.5.7-.2.9h-1.3c0,.1-.7,0-.7,0l-.9-.8-.6-.2-2.7.5-1.5-1-3,.2-.5.5-1.3-1.1,1-.3h.8c0,.1,2.2-.1,2.2-.1l-.2-.3-1.1-.2-.7.2-1.5-.2-1.3.2-1.3-.4-3.3-.2-.5.5-.5.2-1.5-.2-.7.6-.9-.8.7-2.2h.4s0,1,0,1l.5.7-.4-1.5h.8c0-.1.6.9.6.9v-.5c0,0-.3-.5-.3-.5l.7-.4.4-1.2,1.2.4v-.2c.1,0-.4-.5-.4-.5h-.9c0-.1,0-.9,0-.9l-.5-.5-.6-.2-.5-.6h-1.9s-.1-.1-.1-.1v-.7s.7,0,.7,0v-.2c.1,0-.3-.7-.3-.7l-.6-.3v-1.1c0,0,.4-.4.4-.4h.3c0,0,.2.4.2.4l.4-.9.7.2Z"/>
    <path id="NO-16" d="M115,319.4l-1.3.8h-.9s-.8.4-.8.4l-.2-.4.9-.5h.7c0,0,.6-.3.6-.3h1ZM124,314.4v-.6c.1,0-.2-.4-.2-.4l-.5.6v.8c-.1,0,.1,0,.1,0l.6-.5ZM118.5,321.1l1.2-.8.3-.5-1-.4h-1.1c0,0-.6,1.6-.6,1.6h1.2ZM124,319.5v-.7s-.3-.3-.3-.3h-.4s-.3.6-.3.6l-.2.5.3.2.8-.3ZM126.2,317.8v.4s-.3.9-.3.9l-.3.2.4.5.3-.8.5-.2h.8c0,0,0-.6,0-.6l.2-.3,1,.2,2-.9,1.1-1.1,1.5-.3h.2c0,.1-.5,1.2-.5,1.2l1-.7.9-.3-1.6,1.2-.8.3v-.3c-.1,0-.7.4-.7.4l.3.4-.8-.2-.8.4h-.3c0,0-.3.2-.3.2v.4c.1,0-.2.5-.2.5l.8.6-.8.5.8,1.4h1.1c0,0,0,.2,0,.2l-.4.2v.4s.4,1.7.4,1.7l.4.7,1.6.2.8-.2,1-1h0l-.5-2.1.6-.6.6-1.9,2.1-1.4,1.5-1.6.3-1.4,1-2.3,1.4-2.4,1.7-1.1,1-2.1-.4-1,.9-1.3v-.9s.9-.6.9-.6l-.3-.4h-1.2c0-.1-.7-2.2-.7-2.2l2.4-1.2.3-.5.3-1.9-1.7-.6-1.1-.9-.7-.8-.2-.9-2.8-2.3h0l-.9.8.5.7.2-.3,1-.2.3.2v.4c-.1,0,.5.1.5.1v.8c0,0,.4,0,.4,0l.3-.2.3.3-.6.5-.9-.9-.9-.2v.7s-.3,0-.3,0h-.8c0,.1,0,1.2,0,1.2l.2.3v1.3c0,0-.3-.2-.3-.2v-.5c0,0-.5,0-.5,0l-.8.6-.3.4.2.3-.4.5h-.4s-.3.5-.3.5l1.8,1.1-.2.8h-.4c0,.1.3-.5.3-.5l-.2-.3h-.7c0-.1-1.8,0-1.8,0v.7c0,0,.3.3.3.3l.2,1-.7-.3-1,1.2.4.4.8.3.9-.5v.5s-.3,0-.3,0l-1.5,1.2v-.5s-.9-.8-.9-.8l-.8.2v.6c.1,0-.1.2-.1.2l.3.5.6.3-1.2,1.4.8.7v.3s-.9-.4-.9-.4v.6s-.6.9-.6.9v.5s.3-.3.3-.3l1-.4,1.2-.2v.2s-1,.9-1,.9l-1.4.7-.2.5.4.2.6-.6,1.3-.5,1.6-1.1v.9s.7,1.1.7,1.1h-.5s-.6-1.2-.6-1.2l-1,.7-1.1.4-1.6,1.3-.2-.3.3-.5h-.4c0,0-.9.3-.9.3l-.6.6.4.6-.8.9h-1.5c0,.1,1.4-.5,1.4-.5l.2-.8h-.9s-1.9,1.3-1.9,1.3l-.4.5h.4c0-.1.3,0,.3,0l-.7.5-.8,1.1.8.5,2.4-.4.7.2-3.5,1.2-.9.6h.2c0,.1.2,0,.2,0l.3.2ZM131.1,306.6l-.3.6.2.3h.3c0,0,.7-.3.7-.3v-.7c0,0-.7-1-.7-1h-.3c0,.1,0,.6,0,.6l-.3-.2h-.2c0,.1,0,.6,0,.6h.5c0,0,.2,0,.2,0ZM132.4,306.1l1.2-.6-1-1.1-.7.3v.8s.5.5.5.5ZM114,325.7l.8.3,3.5-1.4,1.8-1.4v-.5c.1,0,0-.2,0-.2l-.5.3v-.6c0,0-1-.7-1-.7h-1.1c0,0-.2.6-.2.6l-.5.2.2-2.5h-.9s-.8.2-.8.2v1.3c-.1,0-.4.3-.4.3l-.3-.5.2-1-3.1.8-.3.3h-.8s-.7.7-.7.7h.6c0,0,1.1.8,1.1.8l-1.5.7-.2-.2h-1.3s-.9.4-.9.4l-1.5,1.6-.3.7.3.9,1,.8,1.4.2h.9s1.8-1.4,1.8-1.4l1.8-.3.8-.3ZM167.6,342.5l-2.6-6.4h0l-6.7.2-2.7-5.1-2.1-.6-1.9-.2-.8.2h-1.2c0,0-1.9.3-1.9.3l-1.1-.9h-.5s.2-.9.2-.9v-1.9h-.1l-.7.2v.6s-.2.1-.2.1l-.4-.6-2-.4-1.9.5-1.1-1-.6.6-.8.2-.4-.5-.6-.3h-1.8c0,.1-1.6,1.4-1.6,1.4l-.5.9.2.5.7.7.8.3h.9c0,0-.3.7-.3.7l-.7.4-.9-.6h-.5s-.5-.8-.5-.8h-1.2s-2.2,1.6-2.2,1.6l-.2-.5,1.4-1,.6-.8.6-2.5-.8-.4-1-1-.2-.6-.7-.5.4-.9-1.1-1.8-.3-1.1v-.9c0,0-2.2.9-2.2.9l-1.2.8v.3s-.5.4-.5.4h0c0,.1.7-.2.7-.2h.4c0,.1-.3.5-.3.5l-1.4.2-.7,2h-.3s-.1-.2-.1-.2v-1.6s-.4.2-.4.2l-.7.9-1.6.4-.3.5-.8.5.3.3v.8c0,0,1,.4,1,.4l3.5-1,.6.3-2,.7-2.8.6-.2.8,1,1.4,1.9-.2,2.1-.8-1.2.8-.9.3h-.9s-.6.5-.6.5h-.4s0,.6,0,.6l-.5-.3-.3.5-.6.2-.6,1.1-.3-.8.4-.8v-.6s1-.9,1-.9v-.2c-.1,0-.5,0-.5,0v-1l-.2-.5-.8-.3v-.5c0,0-1-.2-1-.2v-.6c0,0-.4,0-.4,0l-.4.9.8,1-.9.2-.4-.7-.7.4-.4-.4h-1.8s.7.9.7.9v1.2c0,0,.5,0,.5,0h0l.2.2h.3c0,0,.4.3.4.3l-.4.7-.3,1.6-.5.9.6,1.6-.4.5-1.1.3v.2s1,1,1,1l-.2.7,1.1.4,1.3-.7,1.2-.3,1,.6h1.2c0,0,.4-.3.4-.3l-.8-1.3,1.4-1.2,1.1.5.9-.7.3.8,1.4.5-.5,4.5h.7c0,.1,0,.6,0,.6l.4.4h1.2c0,.1-1.5,1-1.5,1l-.2.6-.6.7v.9c0,0,.3,1.1.3,1.1v1.6c.1,0-.6,1.2-.6,1.2l-.8.5-3.7,1.4h-.7s-1.2.4-1.2.4l-1.4.9,1,1.8h.5c0,0,.7.9.7.9l.9.3v.9c.1,0,.7.8.7.8h.6c0,0,.5,1.1.5,1.1v.7c0,0-.3.1-.3.1v.5c0,0-.3,1.5-.3,1.5l.2.4-.8,1.7-1.5.8h0l6.7,2.7.5.5,1.4.8,1.9-.9h1.1c0-.1.6-1,.6-1l-.2-.6.3-.3-.3-.2.3-.6,1,.5.5-.3.2-1.4,2.2-1.1-1-4.5.3-.3v-.7c-.1,0,.3-.5.3-.5h.3l.8-2.2.8-1.1.3.6,1.7-.3,4.2,1,1-.5h.5s.6.4.6.4v.6s.4.2.4.2l.8-1.1,2.1-.5,2,1h1.1c0,.1,0,.5,0,.5h.3c0,0,0,1.3,0,1.3l.4.7v.8c.1,0,.8.2.8.2v1.1c.1,0,.8.2.8.2l2.4,1.8.7,1.3v.8c.1,0,1.1,1.4,1.1,1.4l1.8-.4.4,1.2h.4s0-.4,0-.4l.8-.6,3.3.6,1.3.5,1,1.1,1.2-.5h.7s-3.1-9.6-3.1-9.6l1.3-4.7-.9-5.3,2.2-3.4ZM114.6,317.4l-.2.6-.6.4-5.2,1v-.3l-.8-.4-.8.6h-1.3c0,.1.1-.7.1-.7l4.2-1,.3-.4.7-.3.8-1.1.3-.8,1-.9,1.1.3v1.3c0,0,.2.4.2.4v1.2ZM109.3,322.7l.8.2,1.1-.5-.6-.4h-.7c0,0-.6.7-.6.7Z"/>
    <path id="NO-08" d="M93.4,437.9l2.6-1.1,1.9.4.5.4,2.7-1.4,1.4-.2.7-.8.7-.2h1s.9.3.9.3h1.7s1.1.4,1.1.4l2.2-.3,2.9.4,2.7,2.1.4,1,.2,1.7.3.5h-.5c0,.1.3.5.3.5h.6c0-.1.5.7.5.7h.7s1.3,1.3,1.3,1.3l-.3.6.3.3-.2.9v1.2c.1,0,2.9,1.3,2.9,1.3l-.3,1.9.2.2-.2.6,1.1.4v.6s1,3.2,1,3.2l.7.6-.7,1.7h1.5s.4,1.1.4,1.1l1.1,1.1h1.8s0,1.9,0,1.9l-.3.8,1.8,2.3.2.8-.4.2.5,1.2-.8.6v1.1c-.1,0,.4,1.1.4,1.1l-.3,1.3h-.3s0,.4,0,.4h0l-.3-.2h-.5c0-.1-.4-1-.4-1h-.5s0-1.1,0-1.1h-.2s-.2.5-.2.5v1.1c.1,0,0,.2,0,.2l-.6-.4-.2-.5v-.6c.1,0-.4-.5-.4-.5l-.2-.2-.7.2v.3c-.1,0,1,.8,1,.8v.6s.4.5.4.5l.9.2.6.7v.7c.1,0,0,.2,0,.2h-.4c0,0-.3.8-.3.8h-.4c0,0-.6.3-.6.3v.5l-.7.4-.4-.2h-.6c0,.1-.7.5-.7.5l-.5.3h-.3c0,0-.2,1.2-.2,1.2h-1.3c0-.1-.3-.5-.3-.5l-.3,1.3h.6c0,0,1.1-.4,1.1-.4h.7c0,.1.4.5.4.5l-.5,1-1.1.9h0l-.6-.4-.3.4-.6-.7-1.2-.2-.4-2.1-2.1-1.6-.8-2h-2.6c0,.1,0,.6,0,.6l-1.2.9,1.2.9-.7,1.4.3.2-.2.6-.6.3-1.3-1.2-1.3-1.8-1.1.7-.5.7-.8-.6-.3-.5h-1.3s-1.7-1.6-1.7-1.6l-1.4-.3-.6.4.8.2-.9.4-1.5-.5-.6-1.2-.3-.2-1.8-3.4-1-1v-.4c-.1,0,0-1,0-1l.5-.7-.8-1.3-.4-1.6-.6-.6-1-.3-1.3-1.7v-.2s2-.1,2-.1l-.8-2.7-1-.9-.3-1,.5-.8-.2-.6-.9-.7v-.4s-.5-.6-.5-.6h-.8c0-.1-.4.7-.4.7l-.6-.3h-.2c0,.1-.7-.6-.7-.6l-.2.2-1-.2h0l-.2-.4-1.3-.5v-1.7s-.2-.9-.2-.9h0l1-1.5-.3-.8.3-.5-.2-.3.3-.8h-.4c0,0,1.1-2.2,1.1-2.2l.9-.9,1.7-.2.6-.4.3-1.7.8-.9Z"/>
    <path id="NO-19" d="M229,120.4l.6.4v.4c.1,0-1.1-.4-1.1-.4l-.5-.8v-.7c.1,0,1,1.1,1,1.1ZM243.3,116l.2,1.1h.4c0,.1.3,1.3.3,1.3l.8.8h.5c0-.1,0,1.2,0,1.2l-.9.7-2,.2-1.7.7h-.9c0,0,.5-1.2.5-1.2v-.7s.4-.3.4-.3h.5s.5-2.1.5-2.1l.9-1.6.5-.2ZM227,117l-.8.8.3-1.2.9-.8v.6s-.4.5-.4.5ZM246.7,113.2l1.8.3.9,1.5.7.2.3.4-.5.9-1.9,1.7-.9.7-.8.2-.7-.5-.2-1.9-.5-.7-.2-.9-.5-.8.3-.3v-.7c0,0,.8.4.8.4l.3.3-.2.4.9,1.4.6.5.6.2-1.1-1-.7-1.3.3-.6.8-.2ZM225.4,117.9l-.3,1.7-.9,1v.6c-.1,0-.9.5-.9.5l.9-.3.9-1.1.6-.2.5-1.1.7.3.2.6-.4,2.7-.7,1.3-.9,1-1.8,1.4-.2.5.4.6.2,1.5-.5.3h-.3c0-.1-.4,1.1-.4,1.1h.3s.3-.7.3-.7l.9-.8-.3-2.3,1.8-1.3,1.1-1.1h.3c0-.1.7.3.7.3l.2.7v.5c0,0,.3,0,.3,0v-1.3c-.1,0-.3-.3-.3-.3l-.5-.2-.2-.4.4-.6v-1.4s.4-.6.4-.6l1.5.6h1.2c0-.1.7,1,.7,1h.2c0,0-.8-1.9-.8-1.9l-1.3-.6-.8-.7-.5-1.5.3-.2.2-.7.8-.4.5-.6,1.1.2.5,1.1h.7c0,0-.6-1.9-.6-1.9l-.9-.5v-1.1s.3-.3.3-.3l.6,1.4,1.5,1.3.5.3.6-.3.2.2v1.4s.9,0,.9,0l.3-.6h.5c0,0,0,.5,0,.5l-.5.2-.3.5.3.5h.6s-.2,1-.2,1l-.4.2.2.6-.2.4.3.5-.7.8h.9s-.3.8-.3.8l-.6.6,1,.6-.4.4v.7c0,0-.7,1.4-.7,1.4l-.6.2v1.1s.2.4.2.4l-.9.6v-.5c.1,0-1.4-.8-1.4-.8l-.9-.8-.6-.3v-.3c0,0-.2-.4-.2-.4l-.8.2-.4.4h-.5s-.3.4-.3.4l-.8.2-.7,1-.5-.3-.2-.7h-.2c0,0-.3-.6-.3-.6l-.7.8v.6c0,0-.5,1-.5,1v1s-1,.1-1,.1l-1,1.5-.9.6-.5,1.3-.5.3-.2-.6.7-1.2v-1c-.1,0-.7-.8-.7-.8l-.2-1.7.8-.5.2-.4v-.9s-.4-.8-.4-.8l1.1-.6.6.3.7-1.3-.3-.8.2-.5-.2-.2-1.2-.3v-1s.2-.9.2-.9l1-1.4-.3-.5.8-1.2.2-.8-.3-.5.4-.5.2-.8-.3-1.7.2-.6.9-.8.2.4v1.7s.7,1.1.7,1.1l-.5,1.1-.5,1.9ZM238,111.3h.3c0,0,.2.3.2.3l.4.3-1.4,1.3-.2-.2v-.4c.1,0-.2-.1-.2-.1v-.6c.1,0,.8-.7.8-.7ZM232.3,110.8h.6s.9,1.1.9,1.1h.7c0,.1.4-.1.4-.1l.9.9v-.9c-.1,0,.5-.3.5-.3l.3.4v.7c-.1,0,.4.4.4.4l-.5.7v.8s.4,0,.4,0v.3s-1.2.9-1.2.9l-2-.6-1.1-1.2-.3-1-1.4-.7.5-1.5.3-.2.6.3ZM235.2,109.2h.3c0,0-.2.9-.2.9l.6.2v.6c0,0-.2.2-.2.2l-.6-.5h-.6c0,.1-.2.4-.2.4l-.5-.6v-.4c.1,0,.5-.6.5-.6l.8-.2ZM251.8,106.1l-.6.3v.8c0,0-.5,1.1-.5,1.1l-.8.3-.8,1.7-.6.4-.4-.2-.2-.4.2-.7-.2-.8.9-2.2,1-.3h.6c0,0,1.2-.4,1.2-.4v.3ZM250.3,83.5l1,1.4.4.2.8,1.9v.7s.7,1.2.7,1.2v-.2c.1,0-.3-1.3-.3-1.3h.9c0,0-.6-.6-.6-.6l-.2-1.9-.6-1.2.7.4.4-.3.7,1.7.8,1.3v-1c.1,0,.5-.8.5-.8l.4-.3h.4c0-.1.3,0,.3,0l.2.8h.3c0,0,.2.7.2.7l-.2.2v.9c.1,0-.2.7-.2.7l-.7.4v.6c0,0,.1.5.1.5l-.3.4h-.4c0,.1.5.7.5.7l.6-.3.3-2,.3-.2.5-1,1.7,1.4-1,1.2v.5c0,0-.2.5-.2.5h-.3c0,0-.3.8-.3.8l.2.7h.4s0-.5,0-.5l.4-1.2h.3c0,0,0,.2,0,.2h.3c0,0,.2.7.2.7l-.4,2.3v.4c0,0,.4,0,.4,0v.3c.1,0,0,.4,0,.4h-.5c0-.1-1.4.6-1.4.6h-.3s-.3.6-.3.6l.2.4h-.7c0,0,.5.5.5.5l.2.6-.4.4v.5s.4-.3.4-.3l.4.2v.6c-.1,0,.3.2.3.2v.5c-.1,0-.5.4-.5.4h-1s-.1.2-.1.2l.5.4h.6c0,.1,0,.6,0,.6l.4.3h.5c0,0,.5.3.5.3l-.8.7-1.9.8-1.8-.5-1.8,1v-.6c-.1,0-2,.6-2,.6v-.4s.5-.4.5-.4l.2-.6h-.6c0,.1,0,0,0,0l.8-.6-.2-.4-.6-.2-.4.2-1.1,2.2-.5.6-.5.5v.2c-.1,0-.9.5-.9.5l-1.6,2.4h.4c0,.1.4.2.4.2v1.1c.1,0,0,.2,0,.2h-.4s-.7.5-.7.5l-1.4.3-.3-.3.3-.6-.4-.5v-.5c0,0,1.1-.6,1.1-.6l.8-.4.2-.4-2.2.5-.5-.3h-.4c0,.1-.7.9-.7.9l-1.8.2-.4-.2.6-.4h-.5c0,0,0-1.3,0-1.3l.4-1,.3-.2,1.4.8v-.4c0,0-.2-.7-.2-.7l.8-.3h.4c0,.1.3-.5.3-.5l.5.6.9-.3v-.3c0,0-.4-.1-.4-.1l.3-.6,2.1-1.2-.2-.2-1.7.8-.7-.4h-.8s-.7-.4-.7-.4h-.9c0,.1,0-.3,0-.3l.5.2.2-.3-1-.6.5-.5,1.3-.2.2-.2,1.2.7h.8c0,0,0-.7,0-.7h-.3s-.1-.8-.1-.8l.2-.5.9-.7-1.1.3-.5.8h-.3c0,0-.7-.4-.7-.4l.4-.4-.4-.3-1,.4v-.5s1-.7,1-.7h-.3c0,0-.5.3-.5.3h-.6s-.5-.7-.5-.7l2.2-.8.9.4v-.3c0,0,.9-.5.9-.5l-.4-.2-.5.3h-.6c0,0-.6-1.1-.6-1.1h.3c0-.1,0-.5,0-.5h-.6c0,.1-.3.5-.3.5l-1.5-.2-.4-.6.6.2h.2c0-.1.2-.5.2-.5l-.2-.3.3-.2v-.5c0,0,.3,0,.3,0l.5.5h.4c0,0,.1-.4.1-.4h.7c0,0,.2.6.2.6l.5.3v-.4c0,0,.4-.2.4-.2v-.4s.6-.6.6-.6l.3.3.3-.3.9.2,2.1,2.3v-1.1c0,0-.9-.2-.9-.2l-.8-1.3.3-.3.5.6,1.2-.3.2-.3.9.2v-.3s-.7-.5-.7-.5l-1,.4-1.7-.6-.8-.8v-.2c.1,0-.2-.4-.2-.4l-.2-.8.5-.2.9.8.3.9.5.4v-.2c.1,0-.3-.8-.3-.8v-.6c.1,0,.9.5.9.5l.3-.3-1.5-2v-.5c0,0,.6.1.6.1l.4.4.2-.2.4.6.3-.2.2.4h.6s.2.8.2.8h.5c0,0,.5.4.5.4v.6c0,0,.3.6.3.6l1.6-.3-.9-.7-1.1-1.9-.9-.7-.5-1.5.2-1.2h.2ZM260.2,80l.7.3v.5s-.6.6-.6.6h-.6c0,0-.4-.2-.4-.2l.3-.6v-.4c0,0-.2-.3-.2-.3l.6-.3.2.3ZM274.4,79.1l-.7.9-.3,1.3-.8.9-.3-.8.3-1.2-.3-.3.2-.5.4-.3h.6s.2-.5.2-.5l.4-.2.2.7ZM262.2,77l.2.5-.5.5-.7-.6.5-.7.5.3ZM266.8,71.9l.8.4v.3s-.3,0-.3,0l.2.6-.3.2-.9-.2-.7.3h-.5c0,0-.2-.6-.2-.6l.5-.7h.5c0-.1,0-.7,0-.7l.7.3ZM270.4,70.7l.7.3.2.6.3.7.7.6h.3c0,0,.4.3.4.3h.6c0-.1.5.5.5.5l.9,2.1-.8,1.7-.8.3v.7s-.3.5-.3.5h-.5c0,.1-.5.7-.5.7l-1,.2-.8.3.2.6-.2,1.3.5.2.4-.3.2.2v1.1c.1,0,0,.3,0,.3l-.6,1.5-.6.4h-.8s-.9-.8-.9-.8l-1,1.2-1.8.3-1.3.7h-.8c0,0-2.1.3-2.1.3l-.4-.2-.8-1.4-.6.3-.8-.7v-.6s.2-.6.2-.6l-.2-.7.6.2v-.9s.3,0,.3,0l.2.3.9-.9.9.6h.2c0-.1,1,.8,1,.8l.4-.2,1.4-1.1-.2-.2-1.1.7h-.5s-1.1-1.8-1.1-1.8v-.7l-.5-1.1v-.5c.1,0,1,.5,1,.5l.4-.2,1.1.7.4-.5,1-.2,2.9.5v-.5c0,0-1.1-.3-1.1-.3l-3.4-.2v-1.1s-.4-1.6-.4-1.6l1.1-1h.3s.3.3.3.3v.6c-.1,0,.8-.3.8-.3h.2c0,.1.2.5.2.5l-.2,1.1h.2c0,.1.2,0,.2,0l.2-1.2.4-.2v-.7c0,0,.5-.2.5-.2l.2-.3h.9c0,0,.2.2.2.2l-.3,1.4.2.3-.6.2.4.7.2,1,.4.8.4-.6.3-2.6v-.5c0,0,.9,0,.9,0v-.6s-.8,0-.8,0v-.2c0,0-.9-.8-.9-.8v-.5c-.1,0,.2,0,.2,0l-.5-.5v-.7c-.1,0,.7-1,.7-1l.6.3.5-.3ZM301.3,69.7l-.6.8-.2.9v.4s.6.8.6.8v.6c0,0-.6.8-.6.8l-2,1.1-.3-.5-.4-1.6v-.5s.6-1,.6-1v-1.3s.6-.6.6-.6l.7.3,1.4-.5.2.3ZM317.9,68.7l.8,1.2v.8l-.9-1.8.2-.3ZM316.6,67.9l.3.4v.9c0,0-1.6-.5-1.6-.5l.8-.9h.5ZM300.3,66.7l.2.2v.6s-.4.7-.4.7l-.6-.4-.2-.5.3-.5-.2-1,.2-.3.6,1ZM287.8,66.7l-1.4,2.1-.5,2.4-.5.8h-1c0-.1-3.5.9-3.5.9h-.4c0,0,0-.8,0-.8l.4-.4,1.3-2.6,2.5-1.6.3-.6.5-.4v-.7c.1,0,.7-.8.7-.8l.9.2.8,1.2v.3ZM288.7,64.7l.3.2h.3c0-.1,0,.1,0,.1l-.3.4h-.7c0,0-1-1.1-1-1.1l.5-.3.8.5ZM302.4,63.6l.8.4,1.3,2.3.5-.4v-.4c0,0,.2-.3.2-.3l.2.2h.5s.7,0,.7,0l-.5.6h-.6c0,0-.5.6-.5.6v.3s-.3.6-.3.6l-.6.6-1.3.6-.7-.5-.6-1.2v-.8c0,0-.5-1.6-.5-1.6l.2-.8.9-.6h.3ZM315.4,63.3l1.5,1.3-.5,1.1h-.4s-.3-.5-.3-.5l-1-.4-.5-.7v-.2c0,0,.4-.2.4-.2v-.4c.1,0,.9,0,.9,0ZM266.9,62.9l.5.6-.5.7h-.5c0,0-.1-.6-.1-.6h.2c0-.1,0-.6,0-.6h.4ZM309.1,64l-.6-.6.6-.6h.5s.2.7.2.7l-.6.5ZM305.4,62.5l.3.8-.7.7h.6s-.6.9-.6.9l-.5.2-.3-.7.5-.5.4-1.3h.4ZM277.4,61.2v.4c.1,0-.2.9-.2.9h.2s.3-.5.3-.5l1-.4v.3c.1,0-.3.8-.3.8v1.2c.1,0,.8,1.5.8,1.5l.5.6.5-.2-.3-.2v-.6c0,0,.4-1.5.4-1.5l.7-.6h.6s.6.4.6.4l.2.3v2.5c-.1,0,.3-.3.3-.3v-.5c0,0,.6-1.1.6-1.1l.5.3.6.8v1.1c0,0-.5.2-.5.2l-.4.5-2.2.5.4.9-.2,1-.8.8-1.4,3-1.7,1.2h-.5c0-.1-.5.2-.5.2l-1.1.2-.6-.2-.7-1.1-.2-.8-1.4-.9-.2-.3-.3-.3-.3-.6-2.3-1.3-.4-.5v-.5s.5-1.3.5-1.3l1.1.3.4.3.3.2.5-.9h-.5c0,0-.7-.9-.7-.9v-1.3c0,0,.6-.2.6-.2v-.5s.8-.3.8-.3h.7c0,0,.1.7.1.7h.2s.6-1.1.6-1.1l.7.6v.8c0,0,.2-.2.2-.2l.5-.7-.9-.9v-.8s.3-.4.3-.4l.2.9.9-1.1h.4s0,.4,0,.4l.5-.6h.7ZM270.4,60.4h.3s.2.8.2.8v1.6s.2,0,.2,0v-.7c0,0,1.1-1.7,1.1-1.7l.4-.3v1.1s.2-.2.2-.2h.2c0,0,.8,1,.8,1l-.5.4-.5.8-.4.2h-.3c0-.1-.9,0-.9,0l-.5.4-.9,1.4-.2.5h-.2s-.6-.2-.6-.2v-.3c-.1,0,.2-1,.2-1l-.5-.3v-.8s.3-1,.3-1l.8-.4-.3-.4.2-.2-.3-.8.2-.5h.3c0-.1.7.5.7.5ZM310.7,59.8l.4.6v.4s-.2.2-.2.2l-.8-.2-.2-.3v-.5c0,0,.7,0,.7,0ZM273.7,59.3h.3c0,.1.3,1.2.3,1.2l.3.2v.4c-.1,0-.7-.1-.7-.1l-.6-1.4.4-.2ZM271.1,59.1l.5.2v1c.1,0,0,.8,0,.8l-.4.6-.4-2.4.3-.2ZM303.9,60.1l.5.7v.3c-.1,0-.8,1-.8,1l-.7.2-.8-1-.3-1.2,1.1-2,1,2ZM280.7,57.8l.7.9,1.7,1.2-.2.9h-.7s-.3.2-.3.2l-1.1-.3-.7-.6h-.5s-.4-.6-.4-.6l.2-1,.7-.8h.6ZM289.6,57.3l1,.5-.2.9-1.5-.9.5-.8h.3s0,.3,0,.3ZM273.6,56.6h.2c0-.1.1.5.1.5v.6s-.4.4-.4.4l-.3-.6v-.6s.3-.2.3-.2ZM271.7,56.5h.4c0,0,.3.2.3.2v2.2c-.1,0-1.7-.3-1.7-.3v-.7c0,0,.4,0,.4,0l.3-.4v-.7s.4-.1.4-.1ZM308.4,55.1l3.6,1.4v.4c0,0,.6-.4.6-.4l.6.4h.4s.4-.4.4-.4h1.2c0,.1-.3.6-.3.6l.2.6.8.4v.3s.8.6.8.6l.2.7,1,.4.3.5.9-.3.5-2,.9.3,1.1-1.4.6.3.7,1.9v.5c-.1,0,.9,2.5.9,2.5l.6.7v.7c0,0-.4.5-.4.5v.7s.9,1.5.9,1.5v1.1c0,0,2.6,1.4,2.6,1.4h.6c0-.1,1.1.5,1.1.5v.5s-1.2,1.2-1.2,1.2l.5.6h.9c0,.1.4.7.4.7l-.8.8-.8,1.7,1.4,1,.2,1.1v1.2c0,0,.2,1,.2,1l2.7,2.1,1.6-.6.9.8-.8,1.2-1,.7-.5,2.5-.7.2.3,1.5-1.4-.3-1.5.2-.7.2-1.6.9-1.9.5.5,1.1-.3,1.3.2.9.4.5v1.1s.7.4.7.4l1.6,3.9.6.4v.4c.1,0,.3,1.5.3,1.5v2.6c-.1,0-.5.7-.5.7v.6c0,0-.4.7-.4.7l-2.3,1.3-4.1.2-1.5-.4-3.5-5.4-1.6-2.9-5.5-1.6-2.9,2.3-1.4,1.7-.2,1.3,1.1,3.1.8.8-.8,3-5.3-3.7-2.7,2.7-7.7.6,3.9,5.2.5,5.4-2.1,5.9-2.3,3.2-1.8,1.4,1.4,1.2,3.1,1.7-3.9,4.5-.8,1.3-14.7-6.9-5.7.4-3.4-3.2-4.4,1.9-1.7-3.2-2.9.4h-4.6c0,.1-3,1.5-3,1.5l-1.4.3h-1.1c0,0-5.2-.6-5.2-.6l-2.3,2.5-1.4.5h-.7s-.3-1.4-.3-1.4l.4-.2.7.2v-1.1l-1.1-.9v-1.1c0,0,.5-.9.5-.9l.4-.6,1.1-.4h.5c0,.1.1-.8.1-.8l1.5-.6h.6c0-.1.3.2.3.2h.3c0-.1,1.1-1.4,1.1-1.4h1.1c0,0,0,.9,0,.9l1.5,2.1h.5s.5-.6.5-.6h-.6c0,0-.9-.8-.9-.8v-1.4c0,0,2.5-1.1,2.5-1.1l1.2.6.9-.3.5,1v.6s.5.5.5.5h.8c0,.1,1.2-.2,1.2-.2l1.3.8v-.3c0,0-.8-.6-.8-.6l-2.3-.5-.2-1.2-.5-.6-.7-.3h-1.3c0,.1-1-.3-1-.3v-.7c.1,0,1.6-.8,1.6-.8l1-1.1h1c0-.1,2.2,1.4,2.2,1.4l1.7.2.7.5.3.7h.2c0,.1,0,0,0,0v.4c.1,0,0-1.3,0-1.3l-.5-.6-.6-.3-1.4-.2-1.8-1.2-.9-.3v-.2l2.2-2.3.7-.3h.4c0,0,.2-.2.2-.2l.5.4-.2.3h-.4c0,.1.4.5.4.5h1c0,.1.6.5.6.5h.7c0-.1-1.2-1.8-1.2-1.8l-.8-.5v.2c-.1,0-.4,0-.4,0l.3-.9h-.6c0,0-2.7,1.1-2.7,1.1l-.8.6-.2-.9.6-.8-.2-.9.4-.3h1c0,0,0-.3,0-.3l-.3-.2v-.6s-.9,0-.9,0l-.2-.6.9-1.1.2-.7.7-.5,1.6-1.9-.7-.5h-.4c0,.1.3-.5.3-.5l1-.5h.5s.2.2.2.2h.6c0-.1.6-.6.6-.6l1-.3.6-.5,1-.3h.9c0,.1.1.8.1.8l1.2-.4.8,1,.4-.2-.7-1-.9-.4h-.5c0,0-.2-.3-.2-.3v-.5c.1,0-.2-.3-.2-.3l.3-2-.4-.2-1.3.3.5-1.1-.2-1.1.2-1-.2-.4,1.1-.4.4-.9.4-.2v-1c0,0-.1-.5-.1-.5l.3-.2h.8s.2-.2.2-.2v-.3c0,0-.4,0-.4,0l.2-1.4-.5-1.2.3-.4.7.3.7-1,.7.2,1.3,1.1-.2,2.5-.2.7-1.2,1.5-.7,2.9.7-.7.3-1v-.9c-.1,0,1.6-2.2,1.6-2.2l1.7,1.2v1.3c-.1,0,0,1.9,0,1.9l-.2.5.3.6-.4,1.3v1.1c0,0,0,.2,0,.2l.5-2,.3-.2.2-1.7-.2-1.3v-.8c.1,0,.4-.3.4-.3l.4.7-.3.9.7,1,1.1.8.3,1.1.2-1.2-.9-1-.2-.5h.4s.3-.5.3-.5h.9c0,0,.8,0,.8,0h1.2s.4.2.4.2l-.5.4.9.5h.3c0,0,.2.4.2.4h.8s-.5-.4-.5-.4v-.5s-.3-.2-.3-.2v-.3s-.3-.3-.3-.3h-.6s-1-.4-1-.4l-2.9-1.3-.5-.5-.2-1.3-.4-.6-1.8-.9.5-1.6-.2-.6-.5-.4v-.4c.1,0,2.6-1.1,2.6-1.1l2.7-.5.8-.9.4.5.2,1.3v.8s-.5.4-.5.4v.3c0,0,.4.1.4.1l.5-.2.2,1.7.6,1,.7.2v.3c.1,0,0,.7,0,.7l.7,1.3,1.2,1.1h2.8c0,0,.8.9.8.9v1.2s-1,1-1,1l-.6,1.1v.6s.7.6.7.6l.9-.6h.4s1.7.7,1.7.7l1.3.2-1.5-1-.7-1v-2.6c0,0-.9-2-.9-2l-1.3-.7-2.5.2-.7-1-.2-1.6-.8-.3-.6-.8.6-2.5.8-.6.3-.8,1.4-.3.3.7.9,1.1h.1c0-.1-1-1.9-1-1.9v-.6c0,0-.5.5-.5.5l-1.3.2-.3.2-.4.9h-.3s-.6-.5-.6-.5l-.4-.9v-1.6c-.1,0,.3-1.8.3-1.8l.7-.7.2-.6.9-1.1.3-.8v-1.1l.6-.6h.6c0,.1.5-.8.5-.8l1.1-.6h2s1.7-.9,1.7-.9h.6c0-.1.3,0,.3,0l1.6-.9h.9c0,.1.2.5.2.5l-.2,1.5-.6.9.4.9-.5,1.3-.2,1.4-.3.5.9.2.8.8-.5.9v.7c.1,0-.3,1-.3,1v.6l-.8,1.3v.9c-.1,0,0,.9,0,.9l.5.5-.6.9-1.3,1.3-1,1.7h.3c0,0,1.4-1.6,1.4-1.6l.6.7h.2c0,0-.3-.8-.3-.8l.3-1,1.1-1.3v-.4l-.4-.2.5-1.2-.4-1.2.7-1.6-.4-.8.8-.3,1.9.6,1.2.8,2.1-.2v-.2s-2,0-2,0l-.8-.7-1.1-.3-.6-.5-.3-.9v-.7c0,0-.7-1-.7-1v-.5s.3-.3.3-.3v-.8c0,0,.9-.8.9-.8l-.2-1,.2-.7.5-.6h.4c0-.1.5-1.8.5-1.8l.8-1.2v1.6l-.6,2.1v.3c.1,0,.5-.2.5-.2l1.5-5.1.5-.8.4-2,.4-.2v1.2c0,0-.2.8-.2.8l.7,2.2.2-.5-.5-1.1.4-2.3.9-1.1v-.5c0,0,.5,0,.5,0l.7.8.7,2.8.3.2v.9l-1.3,4.3-.4,3.8-.5.6.5,1.3.7.2.4.5v.8s-.6,1.4-.6,1.4l-.3.2-.4.2-.8.2.2.4v.9c0,0,0,.5,0,.5l.2.8-.5,1,.7-.2v1.2c0,0-.6.4-.6.4h-.2c0-.1,0-.8,0-.8h-.2c0,.1-.4,1.7-.4,1.7v1c0,0-.1.9-.1.9l-.8.9-.7.3-1.2,1.2v.4c-.1,0,0,.2,0,.2l-.9,1.6-.4,1.1.3.2.5-.3v-.8c.1,0,1.7-2.4,1.7-2.4l2-1.6.7.3.5-.7-.2-.9,1.1-1.9,1-4.1.2-1.6.2-.2h.4c0,0,1.4,1,1.4,1l.2,1h.6c0,0,.9,1.4.9,1.4l.8.2h.9c0,0,1,.8,1,.8l.2-.2-.8-1.1h-1.2l-.8-.6-.7-1-.4-1.1-1.6-1.7-.2-.7.2-1.1.9-2.1v-1.2c-.1,0-.7-.6-.7-.6v-.3c0,0-.4-.4-.4-.4l.5-.2.4.2,2.1-1.3h.9c0,0,1-1.4,1-1.4l.2-.9v-.3s-.7-.9-.7-.9l.2-.6.3-.4,1-.5.4-1,1.4-.4,1-1.3.4-.2.4.3-.2.6-1.7,1.2.2.2-.6.6-.6,1.5-.8.6.3.2h1.3c0-.1-.1.1-.1.1l.3.4-.7.2v.7c0,0,.1,0,.1,0l.3,1.1.4.2v.5c.1,0,.4.2.4.2l.4-.4v-.4s.6,0,.6,0l-.9-1v-.5c.1,0,.8-.3.8-.3l.2-.3v-.6c0,0-.5-.3-.5-.3l.3-.5-.2-.2h.2c0-.1,0,.1,0,.1l.5-.4.3.2.8-.2h.4c0,.1.2.9.2.9l-.8.9v.4c0,0-.2.3-.2.3v1.1s.2-.7.2-.7l.4-.3.8-1.2-.6-2,.2-.6.6.3h1.2s.2-.3.2-.3v-.4c0,0-1.1-.2-1.1-.2l-1.1-.8.5-1.4v-.6c-.1,0,.4-1.6.4-1.6h.7c0,0,.7-.5.7-.5l1.7.4v.5c0,0,1.4,1,1.4,1v.9s.6.5.6.5l.2.4-.2.7.4.9h.5c0,0,1.3,1.1,1.3,1.1l.9.2.9,1.5.8.2-.3.3,1.3,2.9.7.4.4-.3.6,1.1-.6.5h-.5s.6.4.6.4l1.7-.6.2-.4-1.3-.8v-.2s.4,0,.4,0l.2-.4-1.9-2.1h-.2s0,.3,0,.3l-.3.2-.9-1.1.2-.6.7.5h1.1c0-.1.2-.4.2-.4l-.6-.8-1.3-.4-.3-.6v-.8s-.2-.3-.2-.3l-.2-1.2.2-.4.8-.2-.8-.9v-.5c0,0,1.7-.5,1.7-.5l.5.4v.9c0,0,0,.7,0,.7l-.3.2.9.5v-2.5s-.6-1.2-.6-1.2l.8-.3.5-.4h-.9s-.8.2-.8.2l-.2.3-1.7.3-1.2-1.2.7-.3.7-.8h1.2s1-.5,1-.5v-.4s.9-.9.9-.9l.2-1h-.2c0-.1-.6,1-.6,1h-.3c0,.1-.3-.2-.3-.2v.6s-.8.7-.8.7h-.8c0,0-.8.2-.8.2l-.4-.3v-.4c-.1,0-.3.5-.3.5l.3.5-1.4.7-.6-.5-.6-.2-.9-.7.2-.8-.2-.3-.4.7h-.3c0,.1-1.3-.4-1.3-.4l-.8-2.2.6-.2.6-.7-.2-.5-1.7.8h-.9c0,0-.9-.8-.9-.8v-.6c0,0-.4-.3-.4-.3l-.2-.7-.4.4-.2-.6.3-.4ZM301.3,54.6h.3s0,.6,0,.6l.6.2.2.5-.9,4.8.7,1.3.2.7-1.3.5-1.1-.3-.2-.6-.3,1-.9.3h-.5c0-.1.6-2.1.6-2.1l-.4-.7v.9s-.4.5-.4.5l-.5-.3v.9c.1,0-.7.2-.7.2l-.9-.7-.4-1.1.3-2.2-.2-.5.6-1v-.5s1-.7,1-.7h.7c0,0,0-1,0-1l.5-.6,1-.3h1c0,0,.3-.2.3-.2l.7.2ZM277.3,53.6l.6,1.1v.7c-.1,0,0,.5,0,.5l.3,1.2-.6,1.1v1.2c0,0-.3.1-.3.1v.6c0,0-1.4.3-1.4.3l-1.1-1.4-1-.6.9-.8h.3s.3.1.3.1v.6s.5.3.5.3l-.3-1.8.6-.5-.5-.4v-.3c0,0,.4-.2.4-.2l-.6-1,.4-.2h.3s.4,0,.4,0l.3-.8h.4s.1.2.1.2ZM285.9,54.9h-.3s-.5-.8-.5-.8l.4-.8h.3c0-.1.3,0,.3,0v.7c0,0-.2.8-.2.8ZM283.5,52.2h.5c0,0,.2.1.2.1l.3,1,.3,1.1.7.4.4,1.3v1.8c.1,0,.7.2.7.2v-.6s.4-.5.4-.5l.2-1.5.4.6.8.3.2.6v.2c0,0-.5,0-.5,0v.5c0,0,.3.2.3.2l.7,1.2.2.3.7.4h.6c0-.1.4.5.4.5h.7s0,.4,0,.4l-2,.8v.3c0,0,0,.2,0,.2l-.6.8-1.2.3-.7-.4h-1.6c0,0-.6-.6-.6-.6l-.2-.9-.3-.4v-.4c.1,0,.5,0,.5,0v-.5s-.3-.8-.3-.8l-.7-.9.3-.5-1.1-1.9-1.2-.6-.3-.8.3-1.1h.3c0,0,.3,0,.3,0l.4-1.3h.4ZM294,53.1h.4c0,.1-.2.6-.2.6l-.6.7-.5,1-.2-.4v-2.4c-.1,0-.6-.8-.6-.8v-.7c0,0,.6,0,.6,0l.6,1.6.5.4Z"/>
    <path id="NO-10" d="M78.3,494.6l1.3.2.4.5v.4c0,0-.4.2-.4.2l-.5-.5h-.5c0,.1-.4-.9-.4-.9h.2ZM84.7,466.4v-.2c.1,0,1,0,1,0l2.9.9.3.5-.3.2-.6,2.7.5.9v.4c0,0-.9,0-.9,0v.2c-.1,0,0,.8,0,.8h.3c0,.1.3.8.3.8v1s-.6.7-.6.7l-.9.2v.2s.5.2.5.2v.2s-.9,1.1-.9,1.1h2s0-.4,0-.4l1.7-.2.9-.4h.4c0,0,1.4-.8,1.4-.8l.3.3v.3c0,0,.5-.2.5-.2l1.3.3,1.2,2.5v1.1s-.6,1.5-.6,1.5l-1.2.3v1.7s1.1.6,1.1.6l-.5,1.2-1,.8.2,1v.5c-.1,0,.6,1.1.6,1.1l1-.3.8.5.3-.6,1.1.2h.6c0-.1,0,.8,0,.8l-.3.4.8.2.3.5.6.2.2,1.2.5.8.4.2.3-.9.6-.7h.5c0-.1-.1.6-.1.6l.3.2.2,1.3-.3.6h.8s.2.3.2.3l.7-.2.2.3-.2.4.7.5-.2,1.1-.7.8.2.9.3.2h0l-.6.7v.3s-.9-.5-.9-.5h-.4s-.2-.9-.2-.9l.5-1.3-.4-.8-.3.5v1c0,0-.2.7-.2.7h-.7c0,0,0,1.2,0,1.2l-.3.7-.8.3h-.9s-.3.2-.3.2h-.3s0-.4,0-.4h-.2s-1.2.8-1.2.8l-.6.2-.3,1h-.8c0,.1-1.9.1-1.9.1l-.7-.5-.7.5-1.2-.7h-.9c0,0,.2-.6.2-.6l-.9.5h-.2s-.2-.6-.2-.6h-.2s-.9.3-.9.3l-.3,1-.9.8-.4-.5v-.7c.1,0,.5-.6.5-.6l1.2-.8-.6-.4-.2.5-1.5,1.2h-.2s-.1-.5-.1-.5l.6-.4v-.4c0,0,.7-1.2.7-1.2v-.3c0,0-1.4,1.5-1.4,1.5v.4s-.5.1-.5.1v-.9c-.1,0-1.5-.1-1.5-.1l-.5-.3,1.6-1.1-.8-.6-.5-1h-.5s.2.9.2.9l.7.3.3.4v.2c0,0-.8.5-.8.5h-.8c0-.1,0,.2,0,.2l1,.6v.4c0,0-.6.3-.6.3l-.2-.5-1.1.2-.6-.3-.3.3-.7-.6-.7-1,.6-.3.5-.9v-.6l.8-.3.8-.6-1.1-2.2-.2.4.3.8-.3.2-4.1-1.3h0l2.7-1.4.9-1.5-.3-1.6.5-.5-.6-1.6.4-1.6-.4-1.5.4-.7-.5.2-.8-.3-.6.4-.2-.7-.6-.5.3-.4h.9c0,0,1.6-.7,1.6-.7v-.3c0,0,0-.5,0-.5l-.6-.8v-.7c0,0-.9-.1-.9-.1l.7-2.2.7-1.3-.7-.2v-.5c0,0,1.1-1.2,1.1-1.2l-.3-1.1,1.4-.7,1-1.1.3-.7,1.7-1.5v-.7s-.3-.4-.3-.4l.8-1.2Z"/>
    <path id="NO-07" d="M138.9,466.8l.8.5v.3s-.4,0-.4,0v.5c0,0,.3-.2.3-.2v.2s-.2.3-.2.3v1.4c.1,0-.2.5-.2.5l-.4-1.7v-1.4c0,0,.2-.3.2-.3ZM139.5,464.1l.2.9h.3c0,.1,0,.8,0,.8l.2.3-.4.8-.7-.5-.4.2v-.5c-.1,0,.3-1.4.3-1.4v-1s.2,0,.2,0l.4.4ZM138.7,451.4l.5,2-.4.9v1.3s-.2.2-.2.2h-.7c0,0-1.4-1.4-1.4-1.4l-.2.3.5,1.1,1.9,2.9.3-.4.8.2.4.5.3-.2v.6s-.5,1.5-.5,1.5v.5c.1,0,1,1,1,1v.7c-.1,0-.9,1.5-.9,1.5l-.5-.8-.6-.3-.4.2-.7,2.5v2.2c-.1,0-.7-.7-.7-.7h-.1c0,.1.4,1.3.4,1.3v1.4c0,0-.5-1.9-.5-1.9l-.3-.3.3,1.5-.2,1.1-.3-1.8-.2-.2-.4.6.3.8-.4,1-1.2.6v-.6s.7-.4.7-.4v-.5c0,0-1.6,1.3-1.6,1.3v-.8c-.1,0-.9-.1-.9-.1v.5s.6,1,.6,1l-.3.5-.8.2-.3-.3-.2.7-1.4-.4-.2.5v-.3c-.1,0-.6-.3-.6-.3l.6-.5-.2-1.4-.3.2h0v-.3c0,0,.3,0,.3,0l.3-1.3-.5-1.1v-1.1c.1,0,1-.6,1-.6l-.5-1.2.4-.2-.2-.8-1.8-2.3.3-.8v-2h0l-.3-1.4,1.1-.2,1.4.4h.3c0-.1,0-.4,0-.4l1.2.2.7-.4-.7-1.4-1.5-2,.3-.2v-.5s.7-.6.7-.6v-.8c.1,0,.5-.3.5-.3l.5.6h.6c0,0,.6-.9.6-.9h2.9c0,0,.3-.8.3-.8h0l.6.3.3.5Z"/>
  </g>
</svg>