<?xml version="1.0" encoding="UTF-8"?>
<svg id="Layer_1" xmlns="http://www.w3.org/2000/svg" xmlns:amcharts="http://amcharts.com/ammap" version="1.1" viewBox="0 0 512 512">
  <!-- Generator: Adobe Illustrator 29.1.0, SVG Export Plug-In . SVG Version: 2.1.0 Build 142)  -->
  <g id="_x3C_defs">
    <amcharts:ammap bottomLatitude="49.002699" leftLongitude="14.122232" projection="mercator" rightLongitude="24.149724" topLatitude="54.834793"/>
  </g>
  <g>
    <path id="PL-DS" d="M48.3,308.2l10.6-8,7.3,4.4,3.2-9.6,4.6.2,5.6,6.4,5.6-5.7.2-2.9,5.2-1.6,1.7-6.8-1.8-.9,2.5-4.2,5.5-1.9.3-4.7,9.5,3.2-.8,4.3,2.7-.2,2.9,4.1,7.4-9.8h6.3c0,0,4,2.8,4,2.8l1.8,3.4-1.2,3.8,6.4,1,1.6,3.7,8.3,4.4,12-1.8.6-5,4.1-1.3,8.5,1.6,5.6,7-3.4,2.6,1.8,8.1,9.8-.9-1.5,5.5,1.8,1-.2,6.9,2.7,4.3h0l-6.5,2.5-3.1-2.3-3.1,2.8,1.8,5.7-3.1,1.8,1.1,5.4-5.5,1.9-.2,4.5-2.9-1.2-.8,2,2.2.9-3.4,3.1.9,5.1-3.1-.8-1.5,1.8,1.9,2.1-3.5,2.5,1.8,1.9-.7,5.6-6.2.9-3.5,11-5-1.2-2,2.8h0l-2.6,3.1,2.5,1.4,1.9,5.8,2.8,1,1.2,5.7-1.4,1-1.1-2.2-6.5,3-7.7,8.4-5.4-3.4-1.2-6.1-6.1-7.8-2.6-.6-1.1-3.9-4.1,1-4.2-5.1,5.8-5.8,2.4.4,4.2-6.1-5.1-6.5-5.4-.7-2.4,3.4-4.2-2.8-3.9,5.1-1.9-1.2,1.8-1.3-1.6-4.3-6.4.8-2.3-6.3-5.5,1.4-13.3-5.6-3.2,2.4-.3-4.6-4.5-4.3v-7c-.1,0-1.9-1.6-1.9-1.6l-3.4,1v-2.7c-.1,0-2.1,2.4-2.1,2.4l-3.4-2.6-3.8.9-.8,1.6,2.7,1.8-1,7.9-8.9-.3,7-14.3,3.8-15.4-3.3-9.5Z"/>
    <path id="PL-KP" d="M169,134.6l1.5-7.8,4.5-3.3.7,3,4.2-1,3.2,2.2-.8-2.4,3.2-.2,1.1-7.3,7.3-1.7-1.6-4.2,4.3.4,2.9,2.8,3.5-5,4.8,3.3h5s-.2,3.5-.2,3.5l9.8,1.3,2.8-1.5,1.8,4.1,5-3.4,5.8-.4-1.5,4.8,1.5,3.1,6.8.9v1.5c-.1,0,4.3-1.6,4.3-1.6l7.5,1h0l2.8,1.3,3.7,13.6,1.6,1.1,4.2-2,3,4.2,3.2-.6,1.2,3,7.5-.6,2.2,6.3-2,3.1,2.6.6,1,6.2h0l-6.3,3.4,2.7,7.5-.5,5.4-6.3-2.8,1.1,2.5-2.4,2-4.2-.8,3.4,7-2-.2-2.4,4,4.9,5.4v3.6c.1,0-4.1-1.5-4.1-1.5l.5,4.2-4.1,3.9,2.6,2.1-4.9,5.8,3.6,1.4-3.8,5.2h-2.6s1.2,4.1,1.2,4.1h0l-4,2.6.5,1.8-1-1.4-7.7,2.2h0l-6.2-5.5-.5,2.7-7.9,2.7-3.5-7.7-8-5.7-6.7,2.3-1-5.9-5.3,5-2.8-.2-.4-1.8-5.2-1.2.2-2.7-5.4.8.4-2.8-3.7-.7-2.3-4.6-4.2-1.3-1.1,1.9-.3-1.9-4.2,4.6-2.4-8.8-5.4,3-2.6-.7.8-3.9-4.1-2.3.3-2.4,4.7-.3.7-11.5-10.8-5.6,2.5-11.1,2-1-2.6-1.1-.8-5,4.5-1,1.2-3.3-4.9-6.6-3.6.2-1-2.8,7.2-9.3Z"/>
    <path id="PL-LD" d="M263.7,224.9l3.2,3.9,7.8.6,7.9,6.7,9.7-1.8,2.1-2.6,3.8,4.2,2.6-1,2.7,2.7,1.4,7.1,8,3.5-.6,3.9-2.8,2.2,3.8,3.7-2.1,3.7h3.5c0,0,.4,1.9.4,1.9l5.6-2.4,3.8,4.3,3,.2,2.6,6-3.1.3,1.3,5.6,3.8,1.8v2.3s-1.9,3.2-1.9,3.2l-7.7-3.4-3.8,3.1,3.9,8.2-.9,4.3,4.1-.7.4,1.8-5.6,11.2h0l-2.8,3.3v5.9c0,0-5.6-1.7-5.6-1.7l-.9,4.4h-11.7c0,.1-.9,9.5-.9,9.5l3.8,1.2-1.5,7.5-7.7-6.8-2.4,5.8.7,4.3-4.8,5.3h0l-3.7.9-.3-2.5-4-2.1-4.6,1.6-4.2-9.1-3,.9-1.6-4.2-3.2,1-1.9,3.6-13.6-9-3.4,3.3-10.8.4h0l-4.1-2.3-1.8-4.5-2.9,3.9-1.2-2.3-15.2-4.4h0l1.2-7.7-3.5.5-1.5-7.2,5.9-3-.5-4,6.7,1.9,2.7-4.5-1.3-14.8,2.9-3.7,1.3-9.5,3.2-2.6.6,1.8,8.6.8,5.1-8.7-3.3-3.1-.7-7.8,5.8.5.7-2.2h4.3c0-.1,0-9.6,0-9.6h8s.6-4.8.6-4.8l-3.5-.4.8-4.9h0l7.7-2.2,1,1.4-.5-1.8,4-2.6Z"/>
    <path id="PL-LU" d="M455.5,234h2.3c0,.1,1.3,4.8,1.3,4.8l9.4,2.1,1.5,2.3,3.8-.5-.7,2.2,3,3.4,2.5-.6,2.7,3,1.8,7.2-3.1,3.4-1.2,8.7,1.9,3.2-5.6,5.7,1.9,15.6,4.9,3.6-.7,3.4,2.6,2.1-2.8,10.2h2.6l2.1,6.2,6.5,5-.6,4.1,2.6,2,3,9.7,8.8,6.5-9.2,4.3.3,3.1,2.8.8-.3,3.3,2.7.3,1.2,6.6-3.2,15-1.8,2.7-13.5,1.8-9.3,10.9h0l-1.2-3.6-5.6-.7,1.4-3.5-3.8-5-5.4,4.1-3.4-3-8.2,8.5-20.5-1.6,3.9-3.7-9,.9-3.4-4.3-1.8.3,2.9-3-.7-2.1,5,.7,2.1-2-3.1-.4,2.5-.8-2.6-1,.4-5.4-5.2-.4-3.5-3-4.5-.4-2.4-3.4-3.5-.2,3.4-7-1.9-3.4-5.2-1.5-2.7,2.8-5.5.9-2.1-2.6h0l-3.1-20.3h0l-.9-10.2,2.6-7.5-2.3-.3,2.9-4.8-4.6-3.7,2.1-2.1,1.8.8,1.7-4.6-2.7-7.2h-5.3c0,0-4.8-4.3-4.8-4.3l1.5-3.3,5.1,3.8.6-2.3,4.2-.4,3-3.9-2.8-4.7,5.6-3.8-1.6-3.3-3.2.9-.7-1.6,3-3.3-.9-7.5,7.5-4.4,4.3,1.7,1.3-2,5.6,1.4,2.3-2.3,1.7,2.8,3.8-.6,3.8-4,6.2,4.7,2.3-3.8-1-2.2,2.8-2.7,4.8,3.6,5.3.3,4.3-8.6,4.4.3-2.2-3.5,4.6-5.4Z"/>
    <path id="PL-LB" d="M29.7,207.8l1.7-4.4,3.9,2.1,1.9-1.2,2.7-9.4,3.3-2.6-.6-2.5,3.2-1-1.7-1.6,1.7-2.2,8.2,4.2,12.2-5.2-1.8-5.3,3.7.8,9.4-5.4,4.7,2.6,2.1-1.8,2,1,6.2-10.6,6.6,1.6-1.2,5.2h0l.7,15.1-4.2,3.7,2.1.9.5,5.9-7.1,1.7-.9,8.3,5.8,13.2-4.3.8,4.5,3.9-2.7,22.7,3.5,3.7,2.9-.5-1.1,3.9,3,4,5.2-1.5.7,5.5-1.8,2.6,5,1.9,2.2-2.9,2.5.7,4.5,3.8,1.8,5.4h0l-7.4,9.8-2.9-4.1-2.7.2.8-4.3-9.5-3.2-.3,4.7-5.5,1.9-2.5,4.2,1.8.9-1.7,6.8-5.2,1.6-.2,2.9-5.6,5.7-5.6-6.4-4.6-.2-3.2,9.6-7.3-4.4-10.6,8h0l-1.1-8.4-11.1-4.9,1.4-10.3-8.3-12.9,5.2-6.5,3.2-13.2-3.9-4.2,1.6-9.8-6.1-3-2.9-9.9,5-8.1-1.7-9.1Z"/>
    <path id="PL-MA" d="M296.6,376.1l1.9-1.1,14.2,3.9,3.4,8.1-2,3.1,3.5,2.5-1.3,1.7,3.7,6.3,13-1.5,5.6-6,2.3,1.3,2.9-2.6,8.2-.8,3.8-3,2.1,1.9,1.6-1.9h0l.5,3.2-3.6,4.3,1.5,3.6-1.2,5.3,1.6.4-1.4.3,2.6,2.8-2.5,3,2.1,2.2-2.1,3.4,1.6,4.4,5.5,2-3.2,1.1v2.6c-.1,0-4.7,1-4.7,1l.9,4.9,7.8,2.1,2,4.3-1.5,8.3,4.7,7.3-1.1,4.7h0l-6-2.1-3.3,4.5-4.2-2.5-3.6,1.1,2.6,3.5-8.7,5.9-3.3-3.8-3.3.3-2.9-5.6-6.2-.2-2.1,3.2-5.2-3-6.8.9-1,4.5-4.7-.6-3.7,2.8-3.2,10.4-6.9-4.2-3.6,2.9-4.2-.2-1.1-2.7,2.8-3.2-1.6-10-3.6,1.8-4.4-1.7.5-3.8-2.9.2-2.7-9-3-3.1h0l.7-4.3-4.9-2,3.8-3.5-.5-2.6-5.9-1-1.6-6.3-6,.5.9-7.2-5.6.3,4.2-8.5,3.2-.5.9-5,.5,1.5.9-2.3,3.4-.5.2-3.1,3.6-1.4.6-1.7-5.9-5,2.8-2.2,6.2-.3-1.7-4,2.3.4,1.3-3.8,16-1.6,2.4-2.7h3.6c0-.1-1.1-2.4-1.1-2.4Z"/>
    <path id="PL-MZ" d="M287.2,162.8l4.2.6-.5-3.3,4.2-2.5-.2,3.3,3.4,2.3,5.9-1.6,2,1.8,8.8.6,3.5-2.1-.5-3.8,4-3.1,4.9,1.7,5.2-2.2,3.1-5.1,6.6,1.7,1.1-2.5,2.6.2.5-3.3,5.9,2.1,11-8.1,4.4.9,4.4-3.7,7.3-1.3h0l4.2,9.4-1.5,3,4.2,1.7-3.4-.4-.5,4.5-1.7-.3,3.2,4.2.4,6.5,1.9,2.3,3.7-.4,3,4.5,3.6-.9v2.7s-2.1-.6-2.1-.6l-.9,3,7.4,5.7-1.7,1.7,2.3,5.2,8.8-.6.2-2.3h2.5c0,.1.4,3.1.4,3.1l1.6-.3-3,1.6,1.8,4.8,2.5,1.6,2.6-3.1,3.5.7.5,11-3.5,3.7,6.7,7.5-.8,3.2,3.4,7.3h6.3c0,0,1.1,2.3,1.1,2.3l1.1-1.5,4.9,2.1,5.1-1,4.8,3.6.4,3.3,2.9-1.3,1,1.3h0l-4.6,5.4,2.2,3.5-4.4-.3-4.3,8.6-5.3-.3-4.8-3.6-2.8,2.7,1,2.2-2.3,3.8-6.2-4.7-3.8,4-3.8.6-1.7-2.8-2.3,2.3-5.6-1.4-1.3,2-4.3-1.7-7.5,4.4.9,7.5-3,3.3.7,1.6,3.2-.9,1.6,3.3-5.6,3.8,2.8,4.7-3,3.9-4.2.4-.6,2.3-5.1-3.8-1.5,3.3,4.8,4.4h5.3c0,0,2.7,7.1,2.7,7.1l-1.7,4.6-1.8-.8-2.1,2.1,4.6,3.7-2.9,4.8,2.3.3-2.6,7.5.9,10.2h0l-2.6,2.3-7.1-2.9-5.1,1.4-2.3,3.5-5.6-5.8-9.9.4.5-3.8-3.6-2,1.4-2.6-1.8-2.2-1.2,4.5-3,1-5.1-2-1.9,3.5-6.9-3.6-1.6,1.8.6-3.6-4.6-4-2.6.8-2.9-6.1,1.1-2.4-4.4-.7h0l5.6-11.2-.4-1.8-4.1.7.9-4.3-3.9-8.2,3.8-3.1,7.7,3.4,1.9-3.2v-2.3s-3.8-1.8-3.8-1.8l-1.3-5.6,3.1-.3-2.6-6-3-.2-3.8-4.3-5.6,2.4-.4-2h-3.5c0,0,2.1-3.7,2.1-3.7l-3.8-3.7,2.8-2.2.6-3.9-8-3.5-1.4-7.1-2.7-2.7-2.6,1-3.8-4.2-2.1,2.6-9.7,1.8-7.9-6.7-7.8-.6-3.2-3.9h0l-1.2-4.1h2.6s3.8-5.2,3.8-5.2l-3.6-1.4,4.9-5.8-2.6-2.1,4.1-3.9-.5-4.2,4.2,1.5v-3.6c-.1,0-5-5.4-5-5.4l2.4-4,2,.2-3.4-7,4.2.8,2.4-2-1.1-2.5,6.3,2.8.5-5.4-2.7-7.5,6.3-3.4Z"/>
    <path id="PL-OP" d="M189.4,321.9l2.5,1.3-1.5,4.4,3.2,1.2,13.7-5.6h0l15.2,4.4,1.2,2.3,2.9-3.9,1.8,4.5,4.1,2.3h0l1.5,2.7-3.8,4.8.4,7.5-5.7,5.2,3.5,4.2-4.6,3.4,2.2,6.1,3.4,1.5.2,4.3-8.5.4,2.3,6.7-5.1-1.9.7,7.5-1.8,2.5,3.4,8.5-3.7-.8-5.8,3.4.7,1.4-9.4,1.6.5,5.1-1.9,3.5h0l-1.5,2.1,2,.2v2.4s-2-1-2-1l-6.7,3.5-4.7-3.7-2.9-6.6-3.4-.4-2.9-3.7,8.3-3.7-2-8.9-1.5-.5-3.7,4.8-5.9-.7-2.8,1.8-2.7-2.4-1.7,1.4v-5c-.1,0-3.4.7-3.4.7l-4-5.2-14.6-4.8h0l2-2.8,5,1.2,3.5-11,6.2-.9.7-5.6-1.8-1.9,3.5-2.5-1.9-2.1,1.5-1.8,3.1.8-.9-5.1,3.4-3.1-2.2-.9.8-2,2.9,1.2.2-4.5,5.5-1.9-1.1-5.4,3.1-1.8-1.8-5.7,3.1-2.8,3.1,2.3,6.5-2.5Z"/>
    <path id="PL-PK" d="M392.4,352.1l2.1,2.6,5.5-.9,2.7-2.8,5.2,1.5,1.9,3.4-3.4,7,3.5.2,2.4,3.4,4.5.4,3.5,3,5.2.4-.4,5.4,2.6,1-2.5.8,3.1.4-2.1,2-5-.7.7,2.1-2.9,3,1.8-.3,3.4,4.3,9-.9-3.9,3.7,20.5,1.6,8.2-8.5,3.4,3,5.4-4.1,3.8,5-1.4,3.5,5.6.7,1.2,3.6h0l-13.1,11.3-31.8,44.2,2.9,2.8,2.4,10.1-1.6,10,1.6,1.2-2,3.1,2.4-.6-.8,1.8,7.5,4.7v6.8s-2.1.4-2.1.4l-3.8-3.9-4.4,1.1-4.7-4.3-8.3-.2-2.7-3.4-7.1-.7v-2.3c-.1,0-8.9-2.6-8.9-2.6l-4.3-9.9-6.1-3.3-2.6,2.8-7.8-7.2-7.9,2.6-3.9-1.5h0l1.1-4.7-4.7-7.3,1.5-8.3-2-4.3-7.8-2.1-.9-4.9,4.6-1v-2.6c.1,0,3.3-1.1,3.3-1.1l-5.5-2-1.6-4.4,2.1-3.4-2.1-2.2,2.5-3-2.6-2.8,1.4-.3-1.6-.4,1.2-5.3-1.5-3.6,3.6-4.3-.5-3.2h0l5.2-5.3,6.6-2.7v-2.7c.1,0,7.6-2,7.6-2l3.7-7.1,4.2-3.4,1.6.9,4-13.3Z"/>
    <path id="PL-PD" d="M442.1,57l7.2,2.2-.8,1.8,3.3,1.5-.9,2.4,2.4,1.5,2.7-1.4,4.5,4.7,5.1.8,7.4,8.4,2.1,7.4-2.3,5.6,3.3,19.4,12.5,41.6,5.9,9.6-2.3,6.3,3.7,10.1-1.5,1.7,1.1,18.5-10.2,8.7h-4.8s-8.3,4.4-8.3,4.4l-14.6,22h-2.3c0-.1-1-1.5-1-1.5l-2.9,1.3-.4-3.3-4.8-3.6-5.1,1-4.9-2.1-1.1,1.5-1.1-2.2h-6.3c0,0-3.4-7.3-3.4-7.3l.8-3.2-6.7-7.5,3.5-3.7-.5-11-3.5-.7-2.6,3.1-2.5-1.6-1.8-4.8,3-1.6-1.6.3-.4-3h-2.5c0-.1-.2,2.2-.2,2.2l-8.8.6-2.3-5.2,1.7-1.7-7.4-5.7.9-3,2.1.6v-2.7s-3.6.9-3.6.9l-3-4.5-3.7.4-1.9-2.3-.4-6.5-3.2-4.2,1.7.3.5-4.5,3.4.4-4.2-1.7,1.5-3-4.2-9.4h0l4.5-1,8.7,2.9,3.1-4.2,3.3-1.1,1.9,2,16.4-13.3,3.2-2.1,2.4,1.5-.5-2.7,6.2-3.2,1.1,1.4,1.1-3.2,4.5-2.1,3.9-8.2-.6-4.2-8.5-11.2,1.2-3.6-2.1-4.1-2.2.4-3.8-4.8,2.2-3.6,6.1-3.3,6.8-.8.6-6.1h0l3.8-3.8Z"/>
    <path id="PL-PM" d="M214.1,20.3l18.7,11.1,7.6,6.9-.6,2.9-5.3-8.1-14.1-8.8-1.4,5,3.9,3v5.4c0,0,2.3-.7,2.3-.7l2.5,7.8-3.1.4,2.7,1.2.3,6.6,3.1,3.4,4.9.7-1.7.5,2.1,2.1,8.1,2.4,2.3-1.7,3,1.8,10.4-.7,10.7-2.6,11.2-5.7-11.8,7.1-9.3,2.6,1.9,5.3h0l3,5.4-3.6,3-1.4,9,3.6,1.7v2.9s5.9,1.5,5.9,1.5v5.1c-.1,0,8.9-2,8.9-2l-5.6,15.5-1.7-2.6-6.4-.2-.8,5.4-3.9,4.1v4.2c-.1,0-4.4,2.9-4.4,2.9l.4,2.4h0l-7.5-1-4.5,1.6v-1.5c.1,0-6.7-.9-6.7-.9l-1.5-3.1,1.5-4.8-5.8.4-5,3.4-1.7-4.1-2.8,1.5-9.8-1.3.2-3.6h-5s-4.8-3.3-4.8-3.3l-3.5,5-2.9-2.8-4.3-.4,1.6,4.2-7.3,1.7-1.1,7.3h-3.2c0,.1.8,2.6.8,2.6l-3.2-2.2-4.2,1-.7-3-4.5,3.3-1.5,7.8h0l-7.5-3.7-7.2-.7-4.8,2.1v-2.7s-2.5.5-2.5.5l-2.8-9.5h0l-1.8-7.5,4.3-4.4-3.6-2.7v-3.1s4.9-.5,4.9-.5l.7-2.8-5.3-3-1.8-4.9-2.5,1.5.6-11.5-4.5-8.3,7.5-6-2.9-7,2.2-.6-.3-6.3-5.9-10.4h0l8.6-2.2,18-12,34.6-8.3,17.1-.4Z"/>
    <path id="PL-SL" d="M232.6,332.8l10.8-.4,3.4-3.3,13.6,9,1.9-3.6,3.2-1,1.6,4.2,3-.9,4.2,9.1,4.6-1.6,4,2.1.3,2.5,3.7-.9h0l4.3,3.3-4.2,5.3-2.4-.6,1.2,3.3,5.8.7,1.7,1.4-1.3,2.7,3.4.5-6.8,7.7,5.6,1.2,2.5,2.7h0l1.1,2.3h-3.6c0,.1-2.4,2.8-2.4,2.8l-16,1.6-1.3,3.8-2.3-.4,1.7,4-6.2.3-2.8,2.2,5.9,5-.6,1.7-3.6,1.4-.2,3.1-3.4.5-.9,2.3-.5-1.5-.9,5-3.2.5-4.2,8.5,5.6-.3-.9,7.2,6-.5,1.6,6.3,5.9,1,.5,2.6-3.8,3.5,4.9,2-.7,4.3h0l-5.4,5.8-4.9.3-3.4,9.2-10.7,1.3-.4-8.3-6.8-1.5-1.5-11.8-9.1-3.5-2.6-15.3-4.2,1.3-7.8-3.4-.7,2.6-5.6-6.4-4.5.3-4.1-5.5h0l1.9-3.5-.5-5.1,9.4-1.6-.7-1.4,5.8-3.4,3.7.8-3.4-8.5,1.8-2.5-.7-7.5,5.1,1.9-2.3-6.7,8.5-.4-.2-4.3-3.4-1.5-2.2-6.1,4.6-3.4-3.5-4.2,5.7-5.2-.4-7.5,3.8-4.8-1.5-2.7Z"/>
    <path id="PL-SK" d="M320.5,309.2l4.4.7-1.1,2.4,2.9,6.1,2.6-.8,4.6,4-.6,3.6,1.6-1.8,6.9,3.6,1.9-3.5,5.1,2,3-1,1.2-4.5,1.8,2.2-1.4,2.6,3.6,2-.5,3.8,9.9-.4,5.6,5.8,2.3-3.5,5.1-1.4,7.1,2.9,2.6-2.3h0l3.1,20.3h0l-4,13.3-1.6-.9-4.2,3.4-3.7,7.1-7.5,2v2.7c-.1,0-6.8,2.7-6.8,2.7l-5.2,5.3h0l-1.6,1.9-2.1-1.9-3.8,3-8.2.8-2.9,2.6-2.3-1.3-5.6,6-13,1.5-3.7-6.3,1.3-1.7-3.5-2.5,2-3.1-3.4-8.1-14.2-3.9-1.9,1.1h0l-2.5-2.7-5.6-1.2,6.8-7.7-3.4-.5,1.3-2.7-1.7-1.4-5.8-.7-1.2-3.3,2.4.6,4.2-5.3-4.3-3.3h0l4.8-5.3-.7-4.3,2.4-5.8,7.7,6.8,1.5-7.5-3.8-1.2.9-9.4h11.7c0-.1.9-4.5.9-4.5l5.5,1.7v-5.9c0,0,2.9-3.3,2.9-3.3Z"/>
    <path id="PL-WN" d="M291.6,54.7l79.8,10.3,66.9-4.2h0l-.6,6.1-6.8.8-6.1,3.3-2.2,3.6,3.8,4.8,2.2-.4,2.1,4.1-1.2,3.6,8.5,11.2.6,4.2-3.9,8.2-4.5,2.1-1.1,3.2-1.1-1.4-6.2,3.2.5,2.7-2.4-1.5-3.2,2.1-16.4,13.3-1.9-2-3.3,1.1-3.1,4.2-8.7-2.9-4.5,1h0l-7.3,1.3-4.4,3.7-4.4-.9-11,8.1-5.9-2.1-.5,3.3-2.6-.2-1.1,2.5-6.6-1.7-3.1,5.1-5.2,2.2-4.9-1.7-4,3.1.5,3.8-3.5,2.1-8.8-.6-2-1.8-5.9,1.6-3.4-2.3.2-3.3-4.2,2.5.5,3.3-4.2-.6h0l-1-6.2-2.6-.6,2-3.1-2.2-6.3-7.5.6-1.2-3-3.2.6-3-4.2-4.2,2-1.6-1.1-3.7-13.6-2.8-1.3h0l-.4-2.4,4.3-2.9v-4.2c.1,0,4-4.1,4-4.1l.8-5.4,6.4.2,1.7,2.6,5.6-15.5-9,2v-5.1c.1,0-5.8-1.5-5.8-1.5v-2.9s-3.6-1.7-3.6-1.7l1.4-9,3.6-3-3-5.4h0l5.7.8,1.4-1.6-1.3,5.4,5.9-8.6,8.7-3,3.8-6.5,5-.3Z"/>
    <path id="PL-WP" d="M144.1,120.6l2.8,9.5,2.6-.5v2.7s4.7-2.1,4.7-2.1l7.3.7,7.5,3.7h0l-7.2,9.3,1,2.8,3.6-.2,4.9,6.6-1.2,3.3-4.5,1,.8,5,2.6,1.1-2,1-2.5,11.1,10.8,5.6-.7,11.5-4.7.3-.3,2.4,4.1,2.3-.8,3.9,2.6.7,5.4-3,2.4,8.8,4.2-4.6.3,1.9,1.1-1.9,4.2,1.3,2.3,4.6,3.7.7-.4,2.8,5.4-.8-.2,2.7,5.2,1.2.4,1.8,2.8.2,5.3-5,1,5.9,6.7-2.3,8,5.7,3.5,7.7,7.9-2.7.5-2.7,6.2,5.5h0l-.8,4.9,3.5.4-.6,4.8h-8s0,9.4,0,9.4h-4.3c0,.1-.7,2.3-.7,2.3l-5.8-.5.7,7.8,3.3,3.1-5.1,8.7-8.6-.8-.6-1.8-3.2,2.6-1.3,9.5-2.9,3.7,1.3,14.8-2.7,4.5-6.7-1.9.5,4-5.9,3,1.5,7.2,3.5-.5-1.2,7.7h0l-13.7,5.6-3.2-1.2,1.5-4.4-2.5-1.3h0l-2.7-4.3.2-6.9-1.8-1,1.5-5.5-9.8.9-1.8-8.1,3.4-2.6-5.6-7-8.5-1.6-4.1,1.3-.6,5-12,1.8-8.3-4.4-1.6-3.7-6.4-1,1.2-3.8-1.8-3.4-4-2.7h-6.3c0,0-1.8-5.4-1.8-5.4l-4.5-3.8-2.5-.7-2.2,2.9-5-1.9,1.8-2.6-.7-5.5-5.2,1.5-3-4,1.1-3.9-2.9.5-3.5-3.7,2.7-22.7-4.5-3.9,4.3-.8-5.8-13.2.9-8.3,7.1-1.7-.5-5.9-2.1-.9,4.2-3.7-.7-15.1h0l7.7,2.8,9.9-2.9,4.6-11.3,5.2-.4,2.4-4.8,3.9,1.7-.5-4.5,4-3.3-11.6-6.5-1.4-6.9,10.1-.9,3.6-3,1.5-8.4,3.5-1.8,1,1.5,2.5-2.7Z"/>
    <path id="PL-ZP" d="M15.2,103.7l3.9.5-2.4,3.7-2.9-4.2h1.4ZM16.3,102.7l1.4,1.2h-2.3s.9-1.2.9-1.2ZM12.2,98.2h1.5c0-.1-1.6,2-1.6,2l4.6,7.8-6.2-5-1.4-3.9,3.2-.8ZM37.5,94.5l-2.7,1.5.4-2.5,2.3,1ZM38,90l-3.6,2.2v4.8s-5.3,11.5-5.3,11.5l-1-4.3-7-1.1.5-3.3-7.3,3.7-1.7-3.1,1.4-2.1,5.6.4,5-3.8,13.4-4.8ZM135.8,43.3l5.9,10.4.3,6.3-2.2.6,2.9,7-7.5,6,4.5,8.3-.6,11.5,2.5-1.5,1.8,4.9,5.3,3-.7,2.8-4.9.5v3.1s3.6,2.7,3.6,2.7l-4.3,4.4,1.8,7.5h0l-2.5,2.7-1-1.5-3.5,1.8-1.6,8.4-3.6,2.9-10.1.9,1.4,6.9,11.6,6.5-4,3.3.5,4.5-3.9-1.7-2.4,4.8-5.2.4-4.6,11.3-9.9,2.9-7.7-2.8h0l1.2-5.2-6.6-1.6-6.1,10.6-2-1-2.2,1.8-4.7-2.6-9.4,5.4-3.7-.8,1.8,5.3-12.2,5.2-8.2-4.2-1.7,2.2,1.7,1.6-3.2,1,.6,2.5-3.2,2.6-2.7,9.4-1.8,1.2-3.9-2.1-1.7,4.4h0l-19.1-17.2-4.8-1.8,1.9-3.8-.8-6.3,10-7.5,1.6-12.2,3.5-5.3-7-23.5-1.1-16.7,6.1,5.3,4.8,1,4.7,6,1.1-5.1h-2.4c0-.1-1.6-4-1.6-4l1.4-5.1,2.5-.4,1.8-10.7,3.6-3.7,1.8,1.3,2.3-8.9-3.9.6,28.3-10.6,40.1-10.7,8.3-6.6,13-16,10.1-2.6Z"/>
  </g>
</svg>