<svg xmlns="http://www.w3.org/2000/svg" xmlns:amcharts="http://amcharts.com/ammap" id="Layer_1" viewBox="0 0 512 512"><g id="_x3C_defs"><amcharts:ammap bottomLatitude="32.401" leftLongitude="-31.27" projection="mercator" rightLongitude="-6.187" topLatitude="42.156"/></g><g><path id="PT-01" d="M460.1 162.9h1.8l.6-.7.7.8.6-.5-.5-.2v-.4c.1 0 .7.3.7.3l.2-.3 1.2 1.4-.2-1.4 1 .3 1.1-1.1.6.4.5.2v.9l.7.4-.2.4 1.6.4.9-.8v.6l-.8 1.1.6 2.2-.5.5-.8-.5-.5.5-.8-.5-.5.2.4.8-.7 1.8-1.2.5v.8c.1 0 .7.5.7.5v1.5l1 .5-1.3.5.5 1.5.7.7-1.7.7.4 1.2-.8.9v1.6l-1-.1v.7l-.9.2v1c-.1 0-1.5-.3-1.5-.3v-.7h.8v-1.9l-.4-1-1.4.6v-1.7l-.9-.6-.4 1.6h-.6l-2.5-2.5.6-2.7-.2-.6 1.7-5.5.8-4.4Z"/><path id="PT-02" d="m469.8 233.5 2.2-.2.9.7.6-.5 2.9 1.7h1.6c0 .1 1.8 1.3 1.8 1.3l.7-.2 2.8.5v-.5l1.8-1.6v-.8h1.1l.4-.6 1-.3.9 1.7 1.1.4-.2.6.8 1.6 1.1-.7.5.5 3-1.3-.7 1.4.3.4-.7 1.3-.3 2-.9.2-1.1-.8-.6.4.2.6-1.1.3-.6-.3-1.2.6.3.6-.7 2.2-.8 1.4-2 1.4-.4 2.4-1.2 1.5-.2 2h-1.2l-.9.9-1.2-.4-1.8.5-1.8 1.3h-.7l-.3.8h-1.5l-.5.7.3.4-1.5 1.1-2.5-.6-1.7-1.1v-1l-.9-.3-.2.4h-1.8c0 .1-.7 1.2-.7 1.2h-1.3l-1.1-.9-.9.2-.5.7-.5-.6h-1.4c0 .1-.3-.8-.3-.8l-.9-.3.2-2.3-.7-1.7.7-2.9-.5-.9.4-1.8.3.4.8-.2 1.1 1.6.5-.4.9.5.6-.2v-1.1l.8-.4.2-1 2.1-.4 2.1.6v-.5l.6-.8v-2.4c.1 0-.4-.8-.4-.8h-.9c0 .1-.9-1.2-.9-1.2l.4-1.1.5.3.6-1.3.9.4v-1.2c.1 0 1 .2 1 .2l.4-.6 1.8-.6v-1.1l-.7-1.4Z"/><path id="PT-03" d="m472.1 141.3-.2 1.6-1.2 1.9 1.7-.3 1 .4-.2 2.2 2.3.4.6-.7.8 1.1-1 1.7h-.6l-.2.6-.7.3-.7 2.8-1.1 1.5-.7-.7-.4.4-.7-.4-.9-1.5-1-.3-1.3 1.1-.2.8-.6-.3-.2-.7-1.4.4.2-.5h-.3l-.6.5-.5-.3-.9.2-.3.6h-1.9v-1.2l.4-.2-1.2-.5-.4-.7h-.6l-1.5-.7-.7-3.8h1.1l1.2-.8.9.3.2-.6.8.5.5-.2.3.5.4-.2v-.9c-.1 0 .4-.4.4-.4l.4-1.6.8.2 1.7-1 1.4.2.2-.5.5.3 2.2-1.3 1.4.3.9-.3Z"/><path id="PT-04" d="M497.4 136.7h.6c0 .1.4 1.2.4 1.2l.5.2h2.1l.7-.8.8.6-.4 1.7 1.1.3-1.1 3.5.6 1.7.9.6 1.1-.7 2.9.6 2.3 2.4-1.4 1.6v.4c.1 0-1 1.4-1 1.4v.6c.1 0-.6.5-.6.5l.3.7h-1.5l.3.7-.8.3-.5 1.1-1 .4.2.4-.4.3-.5-.3-1 1-.4-.4-.2.3h-1c0-.1-1.2 1.9-1.2 1.9l-1.2 1 .3.8-1.1 1.8-2.5.2h-1.2c0 .1-2.2-1.4-2.2-1.4l.4-1.2-.9-.3.3-1.1-.9 1.4-1.7-.5h-1.1c0 .1-1.1 0-1.1 0l-.7-1.3-.8-.4.4-1h.5v-1l.6-.5-.3-.3 1.2-.6-.9-.7v-2l1.3-.6.3-1.4 1.1-.2-.6-1.8 1-3.3.7-.9v-.7l-.8-1.2.2-1.8.6-1.1-.2-1.4.9-.5 1.1.5.3.6h1.3l.5-.7.7.8h1.1c0 .1 1.4 0 1.4 0l.4-1.2Z"/><path id="PT-05" d="m477.5 183.8 2.6-1.2 1-1.3 1.4.2 1-2 2.9.3.4-.8h.7c0-.1.5 0 .5 0v1.6l-1.3 1.4.3.3 1.6.6.6-.7 1 .5 1-1.5.6 1.2 1.4-.3 1.3.9-.2.5-1 .3-.2 2.2.6.8h1.1l1.6 2.6-.9 2.3v1.4l-1.6 1.6.2 1-.8 2.7-2.7.5-2-.4-1.7.7-4.2-.6-1.9 1.1-.7-.7-.6.3-.4 1.1h-.7c0 .1-1.4 1.5-1.4 1.5l.3-.9-1.1-1.8-1-.8-.9.2-.2-2.2-.4.4-.9-.5-.4.3v1.7l-.5.3.4 1.1-1.6.2-2.1-.9v-2.8c.1 0-.1-.7-.1-.7l-.5.3-.4-.7.2-1.2 1.3-.2.5-.8h.7c0-.1.6-1.4.6-1.4v-.4h.7v-.5l1 .1v-.6l.3.4v-.5l1.1.3.2-.7h1l-.3-.8 1-.7 1.1.6v-.9l-.2-.2.6-.2.3.6.8-1.1-1.6-2 .5-1.3Z"/><path id="PT-06" d="m457.2 176.1 2.5 2.4h.6l.4-1.5.8.6v1.7l1.4-.6.5 1v1.9h-1v.7c.1 0 1.5.3 1.5.3v-1c.1 0 .9-.2.9-.2v-.7l1 .1v-.5l1.1.2 1 .9 1.2-.5 1.2.3 3.2-1.9 2.9-2.5.6 1.1-1 .8v.4l1 .2-.2 1.5.9.5-.9.6-.4 1.1.9.9-.5 1.3 1.6 2-.8 1.1-.3-.6-.6.2.2.2v.9l-1.2-.6-1 .7.3.8h-1l-.2.7-1-.3v.5l-.4-.4v.6l-1.1-.1v.5h-.6v.4l-.3-.2.5-.8-.9-1.3.2-1.3-.7-.4-.6 1-.7-.4-.7.6-.4.9.6.5-.2.8-.7-.8-1.2 1.7-.7-.2.6-.6-.9-1.9v.8l-.6-.5-.7.8h-.6l-.3 1-.5-2.1h-.6l-.5.9h-.6v-.5l-.7-.5-1.8-.3-.7.7-1.4-.3-.5-.6.7-2.5-1-1.3 2.5-8.8Z"/><path id="PT-07" d="m468.5 216.3.2.2.9-1.1h1.4l-.3.4.4.9.7-1.2 1.1.9-.2 1.1 2-.9 1 1.7 1.7.3.8-.3.4-.8.7.7.3-.4.9.5.7-1.1 1.3-.4-.2-.6.4-.4 1.6 1.1-.3 1 .9.6.4 1.4h-.4l.7 1.2h1.3v-.6l1.6-.6.8.4-.5 1.3.6.8-1.1.7-.3 2.2.6.4-1.4 2.8v.9c-.1 0 .3-.1.3-.1v.3l-.7.9 1.1.4 2.6 3.7.9 2.2-1.1.7-.8-1.6.2-.6-1.1-.4-.9-1.7-1 .3-.4.6h-1v.8l-1.8 1.6v.5l-2.8-.5-.7.2-1.8-1.2h-1.6c0-.1-2.9-1.8-2.9-1.8l-.6.5-.9-.7-2.2.2-.7-.6-1.4-.3-.2-.5h-.9l.8-1-.4-.3h.4l-.8-.3.3-.6-1.2-2.2-2.2.7-.6-.8h-.3c0 .1.3.7.3.7l-.5.2-.9-.9h-1.3l-.3-1.7 3.1-2.7-.2-.5.4-.7h-1.1l.9-1.2.6.3.8-1 .4.3.6-.9.7.5.4-.5.2.4.2-.6 1 1.3.6-.3.4.8h.6v.3l.7.4.3-.8-.5-.4-.2.3-.6-.8.6-.7-2.3-1.1.9-2.1Z"/><path id="PT-08" d="M476.7 267h.4l-1.2 1.1.9-1.1Zm-2.4-.1 1.5 1.1h-1.1c0-.1-1.1-.9-1.1-.9h.7Zm2.5-.4.2.2-1 .3zm-8.4-1.5-1.3.3-1.4-.7-1.4.4-2-.8h-1.6c0-.1-1 .3-1 .3v.7l-1.3-.2-3.4 1.1-1.1 1.2-.3-.8h-.7l1.9-3.5-.3-.8 1.2-1.8-.4-1.3 1.7-3.1.9.3.3.9h1.4c0-.1.5.5.5.5l.5-.7.9-.2 1.1.8h1.3l.7-1h1.8c0-.1.2-.5.2-.5l.9.3v1l1.8 1.2 2.5.6 1.5-1.1-.3-.4.5-.7h1.5l.3-.7h.7l1.8-1.4 1.8-.5 1.2.4.9-.9h1.2l1 1.1 1.1 8h-1.1c0-.1-2.1.5-2.1.5l-4.7 3.5-.7-.3-.9.5-.3.6-1.1-.7-.9.2-2.6-1.7-1.5-.5-1 .2Z"/><path id="PT-09" d="m484.9 165.4.8.5-.4.6-.6-.4.3-.7Zm2.3-5.8h1.1c0-.1 1.7.4 1.7.4l.9-1.4-.3 1.1.9.3-.4 1.2 2.2 1.5h1.2c0-.1 2.6 4.4 2.6 4.4v.4h-.5v2.5l.7 2.4-1 2.5.9.4v1c.1 0-1 1.6-1 1.6l.3 1.2 1.1 1.1-.3 1-1.4.8-.2 1h-1.6c0 .1-1.3-.7-1.3-.7l-1.4.3-.6-1.2-1 1.5-1-.5-.6.7-1.6-.6-.3-.4 1.2-1.4v-1.6l-.4-.2h-.7c0 .1-.4.9-.4.9l-2.9-.3-1 2-1.4-.2-1 1.3-2.6 1.2-.9-.9.4-1.1.9-.6-.9-.5.2-1.5-1-.2v-.4l1-.8-.6-1.1 3.3-1.6 1.7-.4.9-3.1-1.1-.6.4-.9-1.2-.9 1.4-2.4h1l1.2 1.6 1-1.8.5.3v-1.2c.1 0 .9-.6.9-.6l.2-1-1.1-.5v-.6h.8l-.2-.9.8-2.5Z"/><path id="PT-10" d="m459.2 200.9.3.4-.9 1.1-.4-.4v1.5l-3.5.4-.9 2-.9.4v2.1l-1.5-.3-2.3 2.6-.5-.9.3-.6-.3-.9-1.1-.4-.8.9-.9-.2-.5-1.5-.9-.3h1.3l2.1-1.7.6.5-.2.2h.8l-.9-.9 1.1-1.7h.7l-.2-.5 1.4-1.7-.2-.4.7-3 3.2-8.5.5.6 1.4.3.7-.7 1.8.3.7.5v.5h.5l.5-.9h.6l.5 2.1.3-.9h.6l.7-.9.6.5v-.8l1 1.9-.6.6.7.2 1.2-1.7.7.8.2-.8-.6-.5.4-.9.7-.6.7.4.6-1 .7.4-.2 1.3.9 1.3-.5.8.3.2-.6 1.3h-.7c0 .1-.5.9-.5.9l-1.3.2-.2 1.2-1-.2v1.1l-.2-.3-.7.6-.5-.2-1 .8-.5-2.8-2.3 1.6-.9-.3-.8.4v.7l.2.6-.3.4.9.4-.3.9-1.1.6.3 1.5Z"/><path id="PT-11" d="m449.9 223.6-2.7.2-.9.7-1.4-.7-.7.3-1.2-.5.3-1.1-.6-.8 1.8-4.1-.2-3.5 1.5-3.3v-2.3l.9.2.8-.9 1.1.4.3.9-.3.6.5.9 2.3-2.6 1.5.3.4.2v1c-.1 0 1.3.4 1.3.4l.7-.4.9.7v1c.1 0-1.6.4-1.6.4l2.3 2 .3 1-.8.8h-.7l.4.3-.7 1.2.5.2-.8.5-.4 1.5-1.2 1.6-.4-.7v-2.3c-.1 0-1.9 3.1-1.9 3.1l-.4 2.3-.9.7Z"/><path id="PT-12" d="m482.5 198.7.8 1.9 1.4 1.4h.8c0 .1.2 1.1.2 1.1l1.8.9-.6 2 .3 1.2 1.5 1.5-.2 1.8 2.2 1-.2 1.6.8.2 1.5-.5 1.5 1.6.2.8-2 3 .3 1.1-3.3 2.9-.6-.8.5-1.3-.8-.4-1.6.6v.6h-1.3l-.7-1.2h.4l-.4-1.4-.9-.6.3-1-1.6-1.1-.4.4.2.6-1.3.4-.7 1.1-.9-.5-.3.4-.7-.7-.4.8-.8.3-1.7-.3-1-1.7-2 .9.2-1.1-1.1-.9-.7 1.2-.4-.9.3-.5h-1.4l-.9 1.2-.2-.2-1.3-2.4-1.1-.8.9-1.4 2.3-1.4 1-1.8 1.1.2 1.1-1.7v-.6l1.2-.5.6-.7-1.4-1.7 1.1-2.4 2.1 1.4.5-.7 1.4-1.3h.7c0-.1.4-1.3.4-1.3l.6-.3.7.7 1.9-1.1Z"/><path id="PT-13" d="m459.1 158.8-.5-.9-.4-3.4-1-2.2.2-1.5 1.5.8h.6l.4.6 1.2.5-.4.2v1.3h1.9c0-.1.3-.7.3-.7l.9-.2.5.3.6-.6h.3l-.2.6 1.4-.4.2.7.6.3.2-.8 1.3-1.1 1 .3.9 1.5.7.4.4-.4.7.7 1.1-1.5.5.6-.3.6 1.1.7-.2.8.8.8-.7 3.3h-.8l-2 .8h-3.1c0-.1-1.2.6-1.2.6l-.6-.4-1.1 1.1-1-.3.2 1.4-1.2-1.4-.2.3-.6-.3v.4c-.1 0 .4.2.4.2l-.6.5-.7-.8-.6.7h-1.8l-.9-4.1Z"/><path id="PT-14" d="M453 208.2v-2.1l1-.4.9-2 3.5-.4v-1.5l.4.4.9-1.1-.3-.4-.3-1.6 1.1-.6.3-.9-.9-.4.3-.4-.3-.6v-.7l.9-.4.9.3 2.3-1.6.5 2.8 1-.8.5.2.7-.6.3.3v-1.1l.9.2.4.7.5-.3.3.7v2.8c-.1 0 1.9.9 1.9.9l1.6-.2-.4-1.1.4-.3v-1.7l.4-.3.9.5.4-.4.2 2.2.9-.2 1 .8 1.1 1.8-.3.9-.5.7-2.1-1.4-1.1 2.4 1.4 1.7-.6.7-1.2.5v.6l-1 1.7-1.1-.2-1 1.8-2.3 1.4-.9 1.4 1.1.8 1.3 2.4-.9 2.1 2.3 1.1-.6.7.6.8.2-.3.5.4-.3.8-.7-.4v-.3h-.5l-.4-.8-.6.3-1-1.3-.2.6-.2-.4-.4.5-.7-.5-.6.9-.4-.3-.8 1-.6-.3-.9 1.1-1.3-.5.3-1.5-.9.8-1.4-.9-.9 2.7-.8.2-1-.7-1.4.7-.4-.6-.4-.5.2-.7-.7-.6 1.2-1.6.4-1.5.8-.5-.5-.2.7-1.2-.4-.3h.7l.8-.8-.3-1-2.3-2 1.7-.4v-1c-.1 0-1-.7-1-.7l-.7.4-1.4-.4v-1c.1 0-.3-.3-.3-.3Z"/><path id="PT-15" d="M457.3 230.9h2.2l-1-.5-.4-3.1-.4.8-.5-.4v.7c.1 0-.4.1-.4.1h1.1c0 .1-.5 1-.5 1l-2.4-1.2-2.6 1.9-3.9.8.8-2.4.8-.5-.8.2-.6-2.3-1-1.5 2.4-.7v.6l.9.4h-.5l.4.7v-.6h.5l.7 1-.3-1.2-.5-.3 1-.5v.5l.4-.2.5.5-.3-.8.8-.4-1.6.3v-.7l2.5-1.1.4.6 1.4-.7 1 .7.8-.2.9-2.7 1.4.9.9-.8-.3 1.5 1.3.5h1.1l-.4.7.2.5-3.1 2.7.3 1.6h1.3l.9 1 .5-.2-.3-.6h.3c0-.1.6.7.6.7l2.2-.7 1.2 2.2-.3.6.8.3h-.4l.4.4-.8 1h.9l.2.5 1.4.3.7.6.7 1.4v1.1l-1.8.6-.4.6-.9-.2v1.2c-.1 0-1-.4-1-.4l-.6 1.3-.5-.3-.4 1.1.9 1.3h.9c0-.1.5.7.5.7v2.4c-.1 0-.8.8-.8.8v.5l-2-.6-2.1.4-.2 1-.7.4v1.1l-.7.2-.9-.5-.5.4-1.1-1.6-.8.2-.3-.4-.3-2.8-1.6-.6 1-1.8 1-3.2v-4.9l-.8-2.2-1.6-1.8 1.7 1.2.5 1.4-.2-1.4.5.5Z"/><path id="PT-16" d="m469.2 132.5.2 2.1 1.3-.5.4.3.3 1.2-1.6 1.2-1.1 1.9.3 1.1h.6v1.5l-2.2 1.3-.5-.3-.2.5-1.4-.2-1.7 1-.8-.2-.4 1.6-.5.4v.9c.1 0-.3.2-.3.2l-.3-.5-.5.2-.8-.5-.2.6-.9-.3-1.2.7h-1.1l-1.4-3.7.4-1.6-.3-1.6 2.4-1.7.2-.9 1.7-1 .5-1.2 1.8-.2.5-.7h3.8c0-.1 1.6-1.6 1.6-1.6h.6l.5-.5v.3Z"/><path id="PT-17" d="M475 138.4h.4l-.2 1.8.4.4.6-1 2.9-.7.9.7h1.4l-.5 1.4 1.8-.3.4-.7h1c0 .1.5 1.7.5 1.7l1.3-1.2 1 .3 2.3-1-.2 1.8.8 1.2v.7l-.8.9-1 3.3.6 1.8-1.1.2-.3 1.4-1.4.6v2l1 .7-1.2.6.3.3-.6.5v1.1l-.5-.1-.4 1-1.4.3-.4.5-.5-.2-.9.9-1.5-.2-.7.6-2-.5-.3.4-1.2-.3-.8 1 .7-3.3-.8-.8.2-.8-1.1-.7.3-.6-.5-.6.7-2.8.7-.3.2-.7h.6l1-1.6-.8-1.1-.6.7-2.3-.4.2-2.2-1-.4-1.7.3 1.2-1.9.2-1.6.8-.3.8-1.2h1.1l.3-1.4Z"/><path id="PT-18" d="m484.6 157.7.8.4.7 1.3 1.1.2-.8 2.5.2.9h-.8v.6l1.1.5-.2 1-.8.6v1.2c-.1 0-.6-.3-.6-.3l-1 1.8-1.2-1.5h-1l-1.4 2.3 1.2.9-.4.9 1.1.6-.9 3.1-1.7.4-3.3 1.6-2.9 2.5-3.2 1.9-1.2-.3-1.2.5-1-.9-1.1-.2v-1.1l.8-.9-.4-1.2 1.7-.7-.7-.7-.5-1.5 1.3-.5-1-.5v-1.5l-.6-.5v-.8c-.1 0 1.1-.5 1.1-.5l.7-1.8-.4-.8.5-.2.8.5.5-.5.8.5.5-.5-.6-2.2.9-1.1v-.6l-.9.8-1.6-.4.2-.4-.7-.4v-.9l-.5-.2 1.2-.8h3.1c0 .1 2-.8 2-.8h.8l.8-.9 1.2.3.3-.4 2 .5.7-.6 1.5.2.9-.9.5.2.4-.5 1.4-.3Zm1.1 8.3-.8-.5-.2.7.6.4z"/><path id="PT-20" d="M127.3 266.7v.1h.4v-.1h.2v.3c0 .1-.1.3-.1.3v.2h.1l.1.1.2.2v.2h.2v.3c0 .1.1.3.1.3v.3h-1l-.2-.2c0-.1-.2-.3-.2-.3h-.4l-.2.2-.3.1v-.2h-.5v-.2l-.1-.4-.2-.4v-.3h.2v-.2h.3l.2-.2c0 .1.2.3.2.3v-.2c.1 0 .4.1.4.1h.1v-.2h.2Zm-7.1-20.5v-.2h.1v.2h.4l.2-.3h.2l.3-.1h.2l.2-.2h.2l.3-.2v-.2l.2-.1c0 .1.4.3.4.3h.4c0-.1.2-.1.2-.1h.5c0 .1.2.1.2.1l.7-.2h.4l.5.2.2.6v.2l.1.3-.2.2v.8l-.2.3-.2.3h-.2c0 .1-.4.1-.4.1l-.2.2h-.3l-.5-.2h-.5l-.4.2-.2.1h-.2l-.1.2h-.6l-.3.3h-2.4v.2h-.2l-.2-.1h-.2l-.2-.3-.5-.3c0-.1-.4 0-.4 0h-.2c0-.1-.2 0-.2 0l-.2-.2h-.3l-.1.2h-.2l-.5.2h-.3c0 .1-.2 0-.2 0l-.3-.2v-.2h-.4l-.2-.2-.5-.3-.3-.2v-.2h-.2l-.2-.2-.4-.2v-.2l-.5-.3v-.2l-.3-.4v-.2l.1-.1v-.2l.1-.2h.2l.1-.2v-.2c0-.1.4 0 .4 0l.3-.2c0-.1.1-.2.1-.2h.4c0 .1.3.3.3.3h.3v.2h.3l.2.3v.3h.2v.5h.3v.1h.3c0 .1.3.1.3.1h.8c0 .1.1.2.1.2l.4.2h.2l.2-.1h.3l.6-.2v-.2c.1 0 .5-.2.5-.2h.2v-.2l.1.2v.2h.1c0 .1.1.1.1.1h.3v-.1ZM60 227.3h.5l.2.2h.2l.5.4h.3v.2h.3v.3l.2.2h.2l.2.2h.5l.2.3h.2v.2h.2l.1.1.2.3h.2l.2.2h.7l1.1.2h.4c0 .1.4.4.4.4v.2c.1 0 .1.3.1.3h-.7c0 .1-.2.1-.2.1l-.5-.2h-1.3v.3h-.3l-.4.2h-.5v-.4l-.3-.2H61l-.7-.3h-.4c0 .1-.4.2-.4.2l-.4-.3h-.3l-.7-.5v-.3l-.2-.1-.2-.4v-1.2h.2l.2-.1c0-.1.3-.3.3-.3l.6-.2h.6c0 .1.1 0 .1 0h.6Zm-6.1-2.1h.2l.6.2h.2v.2l.3.3h.5c0 .1.5.6.5.6h-.1v.9l.2.4-.3.1h-.1v.5l.1-.1h-1.8l-.4-.2h-.2.1v-.6l-.2-.4h-.1c0-.1-.1 0-.1 0l-.3-.2-.4-.2-.2-.3v-.2h-.1v-.2h.3l.1-.1h1.2l.2-.2.3-.5.3-.2Zm8-2.9h.6c0 .1.5.3.5.3l.6.4 1 .4.6.2.2.2h.3c0 .1.5.2.5.2l.3.2h.4c0 .1.2 0 .2 0 0 .1.1.2.1.2h.4l.4.3h.3l.3.4h.3v.2h.4c0 .1.2.3.2.3h.1l.2.3h.3l.4.2 1 .6h.2l.1.2h.4v.1c0 .1.3.3.3.3l.5.4h-.1v.1l-.2.2h-1.2l-.6-.3-.2-.2h-.2l-.2-.2-.4-.2-.6-.5H69l-.3-.2h-.2l-.6-.1h-.5c0-.1-.3-.4-.3-.4l-.4-.2h-.8c0-.1-.2-.3-.2-.3h-.6c0-.1-.4-.4-.4-.4l-.5-.2-.2-.3h-.4v-.2h-.2v-.1c0-.1-.8-.5-.8-.5l-.5-.5-.2-.3-.2-.2Zm21.5-1.3h.2c0 .1.2 0 .2 0h.2c0 .1.2.1.2.1v-.2h.4l.1.2h.5l.3.2h.9l.8.6v.4l.2.1h.2l-.2.2h-.2v.4l.2.2h.2v.2l-.1.3h-.2v.3h-.2l-.2.2v.6h-.2l-.2-.1h-.1c0 .1-.3 0-.3 0h-.3c0 .1-.2 0-.2 0l-.5-.3h-.8c0 .1-.2 0-.2 0l.1.3h-.3v-.2c.1 0 0-.1 0-.1h-1.1l-.4-.3-.4-.2h-.1l-.4-.3-.4-.5v-.5l-.2-.1v-.4l.1-.3v-.2c-.1 0 0 0 0 0v-.3l.5-.3.9-.2h.5Zm-15.6-7.6h.3c0 .1.2.3.2.3h.2l.2.2.2.4v.2h.1v.2l.3.3v.3h.1v.3H69c0 .1-.4 0-.4 0l-.2-.1c0-.1-.6 0-.6 0l-.2-.3-.2-.5-.2-.2c0-.1-.1-.1-.1-.1 0-.1.4-.4.4-.4v-.3h.3ZM3.4 202.3v.5c.1 0 .5.3.5.3 0-.1 0 0 0 0h.2v-.2.2c0 .1.1.3.1.3v.3h.2v.3h.2v.4l-.3.1v.2h-.1l.2.2h-.2v.6l-.2.1v.2l-.2.1-.5.2H2.2v-.2h-.1v-.5h.1v-.2h-.1v-.4c-.1 0-.2-.2-.2-.2v-.5h-.1v-.2h.1v-.8l.2-.2.1-.1.2-.3v-.2h.4Zm2.1-5.3.4.2v.3c.1 0 .1.2.1.2v.3l-.4.3h-.1v.1h-.1c0-.1.1-.2.1-.2 0-.1-.2-.3-.2-.3v-.2l.1-.4v-.2h.1Z"/><path id="PT-30" d="m301.3 378.7.2.6.3.5-.3-.2v-.2c-.1 0-.3-.5-.3-.5v-.2Zm-.4-1.9.3.7v.6l-.5-1.2-.4-.3v-.8l.3.4.2.6Zm-13.3-8.1.3.5.5.5h.4l.2.3.8.2.7-.2.5-.4h.5l1.2-.2.4.3.4.5.6.5.3.5h.5c0 .1.4.2.4.2h.7l.4.1h.6v.2h-.9l-.2.4h-.2v.3l-.2.4h-.4c0 .1-.2.7-.2.7l-.6.5h-.4l-.6-.1h-.8l-.6.2-.2-.2-.6-.2h-.6l-1.4-.7h-.4l-.7-.6-1.5-.8-.7-.9v-.2l-.1-.5-.3-.3 1.3-1.3h.7Zm17.5-5.5h.2l-.1.2.2.3-.2.2v.2h-.6l-1.1 1v-.2h-.3v-.2l.2-.3v-.7h.4v-.2c.1 0 .5-.1.5-.1l.3-.2.4.2Z"/></g></svg>