<?xml version="1.0" encoding="UTF-8"?>
<svg id="Layer_1" xmlns="http://www.w3.org/2000/svg" xmlns:amcharts="http://amcharts.com/ammap" version="1.1" viewBox="0 0 512 512">
  <!-- Generator: Adobe Illustrator 29.1.0, SVG Export Plug-In . SVG Version: 2.1.0 Build 142)  -->
  <g id="_x3C_defs">
    <amcharts:ammap bottomLatitude="43.617249" leftLongitude="20.262217" projection="mercator" rightLongitude="29.713041" topLatitude="48.2623309"/>
  </g>
  <g>
    <path id="RO-AB" d="M140.7,212.4l1.1,1.4,2.7.7,3.1-1.4,3.9.4,1.1,1.4.4,2.5.9.4-.3,2h2.3s.8-1.7.8-1.7l2.9-1.3h1.1c0-.1.3.9.3.9l2.6.5,5.2-2.8,1.1-1.5,1.5-.2,3.8,2.3,1.5,2,.9-.3,1.6,1.1,3.1-.9,1.2,1.7-1.6,2-.3,2,.4.8,2.5.7,2.1-.5-1.3-1.6h1.3c0,.1-.4-1-.4-1l1.6-1.2,1.5.3,4.5-1.1,1,.3.4,1.2,1.3.2,5.4-1.1h0l.6,1.8h1.3c0,0,1.1-1.7,1.1-1.7h1c0-.1-.8,4.1-.8,4.1l-1.3,1.3.5,1.2,3.8,2.8h2.8s.7,2.8.7,2.8l2.8,1.5v1.2l1.1-.2,1.8,1.5h0l-3.1,1.8.5.7-.9,2.1,1.4,1.2-.2.7-3.3,1.6h-1.9c0,.1-1.4,2.6-1.4,2.6l-1.6,1.1.3.7-1.4,1.9.4,1.6-2.1,1.3v1.2s-2.1-3.3-2.1-3.3h-3.8s-2.2,2.4-2.2,2.4l1.1.7-.6,1.6.4,1.5-1.5.9-1.1,1.9-4.4.6.5.4-.6,1.2,1,.8-1.1,4.8-1.5-.3-3,1.7-.6,1.4,2.3,1.9-1.1.4-.8,1.5-2.1.8-.6,1.7v2.1c.1,0,3.2,2.7,3.2,2.7l-.6,1.8.7,1-1.5,1-.6,1.7,1.3,1.2.8,2.1.3,3.6-1.5.4h0l-1.9-.3h0l-1.2-4.1-2-2h-1.2c0,0-.6-2-.6-2l-4-.8v-2.8c0,0-2.1-1.1-2.1-1.1l1.8-2.5-3-2.8,1.1-3.2-1.7-1.7-1.1-3.8v-4.4c.1,0-1.2-2.4-1.2-2.4l-2.2-1.3-2.8-6.1.4-1.5-2.5.5-1.7-1.5-1.3.2-1.6-.9-.6-2.2.6-1.1-1.6-3.3,1.1-.6,1.1.5-.3-3.1-1.1-.4-1.1-1.6-1,.6-2.7-1.5-1.9-3.3.7-1.5-1.5-3.2-6.4.2-1.7-1.9h-1.3c0-.1-2.8-1-2.8-1l-.9-1.6h0l-.7-3.5,1.1-1.7-1-2.4.2-2.9,2.5-1.8-1.5-.9v-1s2.6-1.8,2.6-1.8l3.4,2.4Z"/>
    <path id="RO-AG" d="M240.2,285.4l7-.4,1,1.2,3-.3,2.2.9,1.3-.7,2.5.6,1.5-.7,3.6,1,4.1,3.9,2.8,1,.3,3,1,1.5v2.4c-.1,0,1.6.5,1.6.5l.8-.5.2,2.5.7.7h0l.2,2-1.1,4.7-1.3,1.7.6,3.4-2.5.9.3,2.4-1.5.6-1.2-.8-2.4-3.8-1,1.1v1.5s1.2.2,1.2.2l-.6,3.8.8.4-.3.8,1.1,1.7-.7,2.1-1.3-.5-.6,1.6,1,1.6,1-.2.5,1.1h.8s.6,1.8.6,1.8l-1.3,1.4-.5,2.9,1.6,6.5.2,4.6-1.1,6,2.4,1.4-1.8,2.7-1.5.2,2,2-.4,1.5,3.9,4.2.3,1.9-.9,1.3,1.1,2.5-.6.7.3,1.7-.6.5-2.4-.5h0l-7.5,3.4-4-.3-1.8,1.8-5.6.4-.9-.9-1.5.5h0l-.4-.7h-2.6s-1.1-1.6-1.1-1.6l.2-3.9-.7-2.5.6-2.6-.2-3.1-.7-1.1.7-1.6-2.3-6.4,1-1.2v-1.8c0,0-4.3.2-4.3.2l-1.6-1.7-.3-3.2-.8-.2-1.6-4.2v-2.6s-1,0-1,0l-1.8,3.3v1.9c0,0-3.3.3-3.3.3l.7-1.5-.6-.6h0l2.5-3.6-.5-1.1,1.1-2.7h-1.1c0,.1,2-3.5,2-3.5l-.6-.9,1-3-1.5-1.4,1.3-1.2-.4-.9h-.8s0-1.1,0-1.1h1.2c0,0,.5-1.8.5-1.8l-1-1.6.8-.5.2-1.4-2.8-3.7,1.7-5-.5-2.2-1-.2.8-.7.3-2.3-1.3-.8-1.7-6.7,3-4.7-.2-3.1h0l.8-.8,3.2.4,2.7-1.6,3,.4.8-.5Z"/>
    <path id="RO-AR" d="M68.5,205.4l3.5-.2.3,1.6.7-.4.7,1,.7-.6.5.5.5-1.6,2.6.3,1.3-1.4,7.9.6,3.4-.9,1-1.1,1.8,1.5-1.5,2.3,3.7,1.2,2.4-.7,1.3-2.3.7,1.2h1c0,0,0,1,0,1l2.9.8.2,1h2.9c0,0-.2,2.5-.2,2.5l.8,3.1,2.2,3.6,1-.6,1.1.7,5.7.6.3,2.8,3,3.6h2.2s.7,1.1.7,1.1l.9-.6.4-1.5,9.2,1.7h0l.9,1.6,2.8.8h0l-1.8,1.6-2.3.8-1.1,6.8h-4.9s-.5.7-.5.7l-2,.4-1.3-2-2.9,2.4.8,2.5,2.2,1.8-1.8.8v1c-.1,0-2.6,2.3-2.6,2.3l1,.8.2,6h-2.1s-.5,1.1-.5,1.1l-2-.2-.4.9,1.3,2.2,3.2.3.3.6-1.2,2h0l-3.2-2-.5-2.1h-1c0,0-.9,3-.9,3l-3.2-1.3-1.3,2.7-2.3-.9-2.2.8-.2-1.5-6.5-2.7-.3-1.9-3.7.9-.6,1.7-1.4,1-1.2-.8-1.3,1.1-1-.9-1.7,2.2-1.2-.2v-.9s-1.9-.2-1.9-.2l-.6-1.5-1.7,2.4v1.6c0,0-1.3.6-1.3.6l-.4-2.3-1.5-.8v-2c0,0-5.8-2.9-5.8-2.9l.2-2.4-1.3-1.9-3.6,3.4-3.2,1.5-.8,1.9h-.7s-.7-1.9-.7-1.9l-2.2-1.3.4,1-1.7.4-.9,2.3-3-1.3-1.5-2.1h-.8c0,0-.3,1.5-.3,1.5l-1.7,1.2-1.3-1.5-.8-3.1-2.3.7-2.3-1.1-2.1.4-1.3-2.7-4.5-1.1-2.8-2.7-.4-1.4h-2.3s-.6-1.2-.6-1.2h-1c0-.1.9-.6.9-.6l.8-3.2,1.6.2-.5-3.2,1.4-2.1,5.1-.9,2.3,1.9.4-1,1-.2.4,1.1,3.8-.2.7,1.3,1.4.4,2.1-1.4.6-2.9h3.1c0,0,.2-2.6.2-2.6l1.2-1.1.3-4.1.9-.9,3.8.5-.3-.7,1.2-2-.8-2.6h-1.2c0,0-.7-2-.7-2l.8-3.1.8-.3,1.5-2.8-.9-.7.6-2.1,2.8-1.5,2.3,1.1.5-1.8,1.2-.5Z"/>
    <path id="RO-BC" d="M308.4,202.5l1.1-.9,3.8-.2.4,3.6,1.2.7,2.1-.9.8,1.3,2.9-.9,1.3-2.9,1.5-.9,1.6,3.7,2.7,1,4.6-2.8h2.9c0,0,.9-1.2.9-1.2l1.2.2,1.6,1.9,2.2-2.6,3.7-2.3.6-2.8,2.6.2.4-1.2,2,4,1.6-.5.5-2.2,1.6-1.1.3-1.8.9-.6v-1.6s2.5.8,2.5.8l-.4,1.6h-.8c0,0,1.1.4,1.1.4l.4,1.4.8-.7.6,2.2,5.2-1.2.9,1,1.7-1.1,1.2,1.9,1.5-.3.3,1.4,1.3-1.8,1.1-.2h0l6.3,4.9-.9,1.8,1,1.6-2,2.2,2.8,3,2.9,5.6,2.1,6.7,1.5,1.9,1.5,5.5-.9,1.6.6,4.8.9,3.5,1.1.8-1.4,3.2h0l-1.2-1-.6-2-1.1-.4h-1.9s-1.1,2.5-1.1,2.5l-2.5-1.1-.4-2.3-.9.5-1.9-.6.4,1.5-.9.6-2-.9-.9,1.4-1.3-.8v.9c0,0-2.6,1.7-2.6,1.7v.9c.1,0,1.3.2,1.3.2l-.5,1.1.5.5-.6.5-2.6-.9-.4,2.2-4.7-2.1-3,3.8-3.2-1.5-2.9,1.1-4.5-1.8-4.1,1.2-4.7,4.2-6.8-1.6h0l-.7-1.8.7-.9-.8-1.3h-2.2c0,0-2.4-1.8-2.4-1.8v-6.1c.1,0-.9-2.5-.9-2.5l-3.2-1h0l-.4-1.9,1.5-2,.3-2.7-1.4-.6-2.7,2.2h-2.8s1.3-5.2,1.3-5.2l-.5-.6.8-1.1-6.6-.3-4-2.4,1.9-1.7-.4-.6.7-1,2.1-1.1.3-1-.5-2.1-3.5-5.3-.3-1.2,1-2.1-1.7-3.4Z"/>
    <path id="RO-BH" d="M107.9,131.2l2,1,.8,2.3,1.1.4-.3,1.9h1.8s0,2.6,0,2.6l3.2,1.5-.8.6,1.3,4.1,2.6-.5,1.3,1.1,2.7-1.2,1.8.9.7,1.9,1.6.2.5,1.9,1.9,1.9h0v1.4s-2.9,1.2-2.9,1.2l-.4,5.8-1.3.8-.5,2.7-1,.9.6.8h1.3s.4,2.3.4,2.3l1.4,1.4-.6.9,1.3,2.7,1.7-.4,1.4,2.2,2.8.4.6,1,1.3-.4.2,2.8h0l-2.3,2.8v2.3s5.2,3.5,5.2,3.5l-2.9,6.1-2.9,1.1-.7,1.8,3,1.4-.3,1.4,2.1,3.8-1.6,1.5-1.8-.6-1.8,1.1,1.7,1.3,1.7-1.3,1.8.3,2,1.4.2,1.1,1-.3.7,2.2-.6,3h0l-3.4-2.4-2.5,1.8v1s1.5.9,1.5.9l-2.5,1.8-.2,2.9,1,2.4-1.1,1.7.7,3.5h0l-9.2-1.7-.4,1.5-.9.6-.7-1.1h-2.2s-3-3.5-3-3.5l-.3-2.8-5.7-.6-1.1-.7-1,.6-2.2-3.6-.8-3.1.2-2.4h-2.9c0,0-.2-1.1-.2-1.1l-2.9-.8v-.9s-1,0-1,0l-.7-1.2-1.3,2.3-2.4.7-3.7-1.2,1.5-2.3-1.8-1.5-1,1.1-3.4.9-7.9-.6-1.3,1.4-2.6-.3-.5,1.6-.5-.5-.7.6-.7-1-.7.4-.3-1.6-3.5.2h0l.7-1.1-.8-.4-.4-1.7h2.1c0-.1,1.1.6,1.1.6l1.9-2.6v-1.5c0,0-2.3-2.1-2.3-2.1l1.9-2.7v-2.8c0,0,4.3-2.1,4.3-2.1l.7-1.7-.8-3.2,2-.5,2.3-2.3-.7-.6,1.1-2.3-2.1-3,1.7-.4,2.3-4.1,3.5-.8,1.3-4.9,2.2-1.3-.4-3.8,1.9-2.8-.5-1.1,3.2-6.6,3.7-.3,1.3-2.6v-3.1c0,0-1.4-2-1.4-2l.7-3.1,1.3-1.8.8.8.5-.6-.8-1,2.1-.9,1.7-2.9,2.2.4.9-1.4Z"/>
    <path id="RO-BN" d="M204.9,150.7l.6-1,1.3-.4.8-2.4,1.8-1.3,1.1-5.7,3.7-.5,2.3.6.4-1.3,1.4-.8,1.3-3.8,2.9.3,1.6-2.6,3.7.8,5.2,2.5,3.8-.6,2.4,1.2,2.6-1.4,4.5.2.3-1.7,1.8-.8.8.9,1.8-.8,2.8.5h1c0,0,3.1,2.6,3.1,2.6l-.5,1.2,1.5,2.3,2.5,1.7-2.3,2,1.1,1-.4,1.8-1.3.5-.9-.7-.6,1v1.1s1.7,2.3,1.7,2.3l1.5.6-.3,1.3.8,3.1-2.2,1.8,1.3,2.2-1.1,4.2,1,.7.5,4.8h0l-2.5,1.9-3.7-.4-1,1.2h-2.8c0,0-3.3,2.5-3.3,2.5l-1.7,2.2-1,3.5-1.6,1.5-.9,3.4,1.2,1h-.8c0,.1-.1,1.2-.1,1.2l-1.3.3-2.6-1-1.6-3.1-.2.9h-1.3s-.6,2-.6,2h-1.5c0,0,.4.9.4.9h-1.4c0-.1-.5,3.9-.5,3.9h-1.1c0,0,0,1.1,0,1.1l-1.9.8-.9,4.7-1.6-.7-2.9,1.9-.8-.8-3.1.6-6.1-3.8h0l.4-2.1,1.2-.6.2-3.6,1.4-.3-2.4-2.2v-1.1s-1.8.1-1.8.1l-.6-2.2-1.9-.3-.5-3,.7-1.4-.9-.7,2-4.3-2-3.7-2.4.4-1-1.1.2-1.4-1-1.6-.8.2v.8s-.8-1.1-.8-1.1l-2-.2-.7-1.2-.4-7.9,1.1-1,1.7,1.1,2.4-2-.3-3Z"/>
    <path id="RO-BR" d="M391.7,294.3l.5-.6,1.9.6.6,1.7,2.4-2.2.2,1.5,1.5-.7-.3,1.4,1.7.2-.3.9,1.1-.3v.7c0,0,1-.4,1-.4l-.4,2.5,2.1-.6.2,1.1,1.6,1,2.7-.2-.4-.4,1.4-1.3,5.2,2.2.5-.8,1.9-.2h0v3.3c0,0-1.7,5.3-1.7,5.3l3.3,2.5,2,.4,1.1-.6.8,1.8-2,3.3,5.6,4-1.5,1,.3,1.6h-2.1s.9,4.9.9,4.9l-1.3,1.6,1.2,3.1-1.4,4.5,1,1.7-2.2,2-1.4,4.6h0l-2.1,2.9-1.9.2-2.5-1.5-3.8,1.4h0l-.2-.9-2.3-.3-6.3,1-7-1.4h-3s0,.9,0,.9h-1c0,0-3.7-.6-3.7-.6v-.6c-.1,0-2,1-2,1l-2.1-1.2.3-.8-2.2-.2-2.5,4.5-2.9-2.1-.4-1.5h0l-1.1-1.2h1.4s.8-3.4.8-3.4l-1.1-.8.2-.5,1.3.4,1.2-4.4-1.2-.4.5-1.6h1.7c0,0-.1-2.8-.1-2.8l-1.7-.2-.2-2.2-2.2-.2.5-4.8-2-.5-1-5.3-3.1,1.9-1.1-1.2,5-6,6.2,3.2,2-1.9.7.6.8-1.1-.7-.5.6-1-.8-.4,2.2-.9-.2-1,1-.4-.5-3.1,1.6-1-.4-1.5,2.1-1-.3-1.4h0l-.2-.8,3.2-1.5.2-1.4,3.2-3.1Z"/>
    <path id="RO-BT" d="M347.6,81.1l3.5.5,1.3-.9,1.2,2.2,1.1-.6,1.8,2.5h1.2s-.8.8-.8.8l.6.9h.9c0-.1-.3-1.4-.3-1.4l1.5.3-.5,2.4,3,1.1-.6.6-1.3-.6.2,1.4,2.2.9.9-1.3.3,1.1.8-.5v2.1c0,0-.7,1.1-.7,1.1l2.8,2.8.2,1.3,1.1.2-.6,2,1.6-.6v1.7c0,0,2.1,0,2.1,0l-1.1,2.1,1.9,1.7-1.4,2,2.6,1.5.6,4.1,2.1,1.3-.8.7-.7-.6-.3,1.1,1.3.2-.5,1.4.9.3.2,1.3h.7c0-.1,0,1.4,0,1.4l.8-.4v1.2s1,0,1,0l-.9,1,.5,1.2-1.4-.8-.8,1,1.7,1.5-.5.8,1.2.7v1.4c0,0,1,1.6,1,1.6l2.4,1.7,1.6,2.4h0l-3.7.8-1.8,1.4-1.5-.5-.5.5.8,2-2.1.7h-3c0,0-.2-1.2-.2-1.2l-1.2,1.2-2.4-1.9-1.1,3.7v3c.1,0-.7-.3-.7-.3l-1.2,2.2-2.3-4-8.1-.3-5.4-2-1,.7.4,1.6h-1.8s-1,1.7-1,1.7h0l-4.6,1v-2.5c0,0-2.1-1.3-2.1-1.3l2.7-1v-.9s-1.4-.2-1.4-.2l-1-3.4-.9-.3-.2-1.2.8-.8-.9-2.3.6-.3-3.3-1.7v-1.5c.1,0-1-.5-1-.5v-.7c.1,0-.4.4-.4.4l-.5-2h-1.6s0-.6,0-.6l-1.2-.6-.3-.9.8-1.2-1.7-.8-2.9-3.5.3-1.3-1.2-.3.4-1.1-.8-1.2-.6.5-.6-1.6-2.2-1.8-1.6,1.3-.7-.7v-2.2c0,0-3.1-1-3.1-1l-2.3-4.1h0l1.4.4,4.5-1.7,1-4,3.3-2.5,1.3-4.1,1.9-2-.4-1.6,1-.9.7.4.9-1,.4.9h.7c0-.1,3-1.5,3-1.5l.7-1.1,3.1.8,1.2-1.3,1.1.4.3-1.9,2.3.3-.2-.9.7.2.2-.8,1,.8.6-.9v1.3c.1,0,2-1.5,2-1.5l.8,1.3Z"/>
    <path id="RO-B" d="M322.5,373h0l-3.5-1.2,1.1-1.7-3.7-.6-.6-4-3,.2-2.5,1.1-.2,1.3-1.2.6v1.8c-.1,0,1.8,1.1,1.8,1.1l.2,1h-2.8c0,.1.6,2.7.6,2.7l2.2.4,1.8,1.9,2.6,1.2.9-.6,1.5,2.2,1.5-.5-1.3-2.4,1-1.9,2.4-.5,1.1-2.3Z"/>
    <path id="RO-BV" d="M265.8,242.6l.9-.3,3.4,2.4.6-2.1,1.9-1.1,1.2.8.9-.2,1.5,1.4v1.6c.1,0,3.4.4,3.4.4l1,1.1h0l-.5,2.5,2.6,3.3,3.1-.9,1.6,1.9-1.1,2.5-.7-.2-.5,4,1,1.7-.3,1.6,2.7.6-.5.9-1.8.2.8.7-.4,1.1.7,1.8h1.4s1.1,1.6,1.1,1.6h1s-.3.5-.3.5l1.7,1.2.5,2h.8c0-.1.4-1.2.4-1.2l1.7-.2.9,1.2h1.9c0,0,1.9.9,1.9.9v.9c0,0,2.2,2.3,2.2,2.3l2.4-.2.3.7,2.8.9.7,1.5-1,1.3,3,.9-.4,1.5h2.3s2,2,2,2v5.6h0l-2.5,2.8h0l-2.6-2.6h-3.8s-1.2,1.2-1.2,1.2l-.7,3.9-1.1,1.6-2-.6-.9-2.5-1.2-1-3.2,1.3-.2-.7-4.1-1.2-2.1.7-.8,1.1-4.7-.3-2,.8-.7,1.1h0l-2,1-.4,3-4.4.4h0l-.7-.7-.2-2.5-.8.5-1.7-.5v-2.4c.1,0-.9-1.5-.9-1.5l-.3-3-2.8-1-4.1-3.9-3.6-1-1.5.7-2.5-.6-1.3.7-2.2-.9-3,.3-1-1.2-7,.4h0l-.5-8.2-2.5-6.9,3.1-2.4,4.3-.3.2-1.7-3-2.6-.9-3.3,1-.5,1.9.9.8-3.1,3.5-.3v-2.1c-.1,0,1.5-.4,1.5-.4l1.3-2.6,2.9-1.6-.2-1h0l.6-2.2,3.2-2.9,2.3.6,2.1-.9,2.3,1,.5-1.5,1.1-.7Z"/>
    <path id="RO-BZ" d="M330.2,270.4l2.7,1.8-.3,2.9,2,1.4-.2,1.2,4,5.4,1.6-.2,1.1,1,2.3-.9,1.6,3.5,1.7-.3,2.5,2.9h2.4c0,0,2.2,2.3,2.2,2.3l3.2-.3.7-.8,2,.6,1.4-.5,3.1,5.7,2.1.7,2-1.6.8.4-.9,1.8h.9c0-.1,2,1.6,2,1.6l2.2-1.7,1.1,1,1-.2,1.9-1.8-.7,2.6.4,2.9,1.6,1.2.4-.6,4.9-.3,1.7-1.3h0l.3,1.4-2.1,1,.4,1.5-1.6,1,.5,3.1-1,.4.2,1-2.2.9.8.4-.6,1,.7.5-.8,1.1-.7-.6-2,1.9-6.2-3.2-5,6,1.1,1.2,3.1-1.9,1,5.3,2,.5-.5,4.8,2.2.2.2,2.2,1.7.2v2.8c.1,0-1.6,0-1.6,0l-.5,1.6,1.2.4-1.2,4.4-1.3-.4-.2.5,1.1.8-.8,3.4h-1.4s1.1,1.2,1.1,1.2h0l-2.8.5-.3,1.6,2.4,1-.7,1.6-2.2-.9-.2.5-1.9-.7.7-2.6-4.8-2.6-1.3,1.7.2,1-5.9-2.9-.7,1.3h-1.7c0,.1-.9,1.3-.9,1.3l-1.8-.7-1.1-1.7h-7.4c0,.1-1.1-3.3-1.1-3.3h0l-4.9-4.5,3-1.8v-2.1c0,0-.7.5-.7.5l-1.3-2.6-1.8.9-2.1-6.3h-.7c0,0,1-2,1-2l-.8-.7,1.1-3.3-1.9-2.4-3.7,1.9-1.1-2.6.7-1.4-1.3-.3-1.4,1.2-2.3-.2-2.1-5.4-.8-.2v-1.4c0,0,1-.7,1-.7v-1.2c0,0-1.9-2.3-1.9-2.3l-2.6-.8-1.9-3.3-3.2-2.1.3-2.8-.5-.4h0l2.5-2.8h0l2.4-.3,2.3-3.8.4-2.6,1.5-1h1.7c0,.1,1.8,2.6,1.8,2.6l1.7-1.7.9-1.6,1.1-7,1.9-.9.2-5Z"/>
    <path id="RO-CJ" d="M195.5,152.7l-.6-1,1.2-1.7h1.5s1.1,1.2,1.1,1.2l5-1,1.2.5h0l.3,3-2.4,2-1.7-1.1-1.1,1,.4,7.9.7,1.2,2,.2.8,1.1v-.8s.8-.2.8-.2l1,1.6-.2,1.4,1,1.1,2.4-.4,2,3.7-2,4.3.9.7-.7,1.4.5,3,1.9.3.6,2.2h1.7c0-.1,0,.9,0,.9l2.4,2.2-1.4.3-.2,3.6-1.2.6-.4,2.1h0l.4.8-6.5,4.3.7,1.6,2.3,1.1v.9c-.1,0-1,2.1-1,2.1l-2.1.3-2.2,2.1v1l2.6.8-2,3.9v1.7c0,0-2.1-.6-2.1-.6l-1.7,1.9.2,4.7h0l-5.4,1.1-1.3-.2-.4-1.2-1-.3-4.5,1.1-1.5-.3-1.6,1.2.4,1.1h-1.3c0-.1,1.3,1.5,1.3,1.5l-2.1.5-2.5-.7-.4-.8.3-2,1.6-2-1.2-1.7-3.1.9-1.6-1.1-.9.3-1.5-2-3.8-2.3-1.5.2-1.1,1.5-5.2,2.8-2.6-.5-.3-1.1h-1.1c0,.1-2.9,1.4-2.9,1.4l-.8,1.8h-2.3s.3-2,.3-2l-.9-.4-.4-2.5-1.1-1.4-3.9-.4-3.1,1.4-2.7-.7-1.1-1.4h0l.6-3-.7-2.2-1,.3-.2-1.1-2-1.4-1.8-.3-1.7,1.3-1.7-1.3,1.8-1.1,1.8.6,1.6-1.5-2.1-3.8.3-1.4-3-1.4.7-1.8,2.9-1.1,2.9-6.1-5.2-3.5v-2.3s2.3-2.8,2.3-2.8h0l3.3.5,3.8-.8,1.1,1.5,1.7.4-.7.9v2.4c0,0,1.3.6,1.3.6l.8,1.8,1.5.9,1.9-.4.6,1.3,1-1,.4,1.6,1.3-1.8,1.4,1.1-.9,2.3,1.4.6,2.9-1.5,2.2.2,1.1-1.7-.4-4.6,1.1-.7,1.7,3.8,1.1-.2.9.8,1.2-.8.7.3,2.5-2.8-.6-1.3.7-.2v-.7c-.1,0,1.4-.6,1.4-.6h-.7c0-.1.3-.7.3-.7h2.1c0,.1,1.6-1.7,1.6-1.7l-.2-.7.8-.2-.6-2.3-2.3-2.6h2.9c0,0-.2-1.5-.2-1.5l1.2-.2v-.8c0,0-.7-2.4-.7-2.4l3.1-.3.8-1.9,2.2,1.3,1.6-1.2-.3-1.1,1.3-2.1,3.5-2.6.4.7.9-.4.6-1.7,3.4,2.4-1.2-3,2.4-4.2Z"/>
    <path id="RO-CL" d="M331.5,366.2l2.7-2-1.6-.2,2.4-2.5,1.8,1.2,1.6,2.6,2.5.9,3.7-5.6.8.5-.4,1.1,1.9.7-.2,1.8.7.8,2,.5.4-1.9h.9c0,0-.2,2.4-.2,2.4l1.8.7,1.3-1.4h.7c0,.1-.1.9-.1.9l2.7-.6v.7c0,0,3.3-1.1,3.3-1.1h3.8c0,0,0,1.7,0,1.7l3.2-.3v1.9s2.4.1,2.4.1l.3-1.3,3.7,1.2.4-2.1.9.5-.2,1.1,1.8.4.7-1.8h.8c0,.1,0,1.6,0,1.6l3.4.4.4-2.2,1.7.8v.7c0,0,6.6-.2,6.6-.2l.4-3.4h1c0,.1.2-1.4.2-1.4h.6s.6.3.6.3l.4,6.2,3.8.6.3,2.6,3.9,1.1,2,1.6-1.1.9.7,1.1-.5.4,1.3,1.5.8-.8.6.9,1.2.2,1.6-3,8.5,2.9h0l-1.2,2.7-3.1,3.9-6.9.7-4,3.2-4.6-.5-2.2.5-7.7,5.4-5.2-.3-2.2-.9-2.1,1.1h0l-3.7.4-7.7-2.3-3.6,1.1-4.7.2-8.5,4.2h-2.6c0,0-4.9,1.6-4.9,1.6l-3.4-.2-4.9,1.4-4.1-.3h0l-.9-4.4,3.6-2.1.5-1-.8-2.9-.7-.3.8-1-.8-1.6h-2c0-.1-.3-1.4-.3-1.4l-2.6-.8-1.1-2.1-1.7-1.1h0l1.3-1.5-1.1-1,3.5-2.2h-.5c0,0,.8-.9.8-.9h-.7s-.4-1.5-.4-1.5l1.3.3-.5-.8h1.2c0,0,.9-1.3.9-1.3h2.1c0-.1,3.2-2.3,3.2-2.3l-.7-1.2-3,.3-1.6-2,2.8-2.6Z"/>
    <path id="RO-CS" d="M120.5,280.5l1.4.7,3.8,6.4,3-.8.7,1.6,2.1-.5-.3,2.6.9-.3,2.2,3.7,1.1,5.8-2.1,4.9-4.1,3.6.6,2-.7,2.1h1.7c0,0,1.3.8,1.3.8h0l-1,1.7-2.1.9-1.4,3.2.9,1.2,3.8.9.5,1.6h0l-5.5,6.9-3.6,3,1.3,1-1.3,1.2v5s-4.6,7.3-4.6,7.3l-7.1-.3-3.1-2.5-.8,2,.4,2.3-.8,1.2-1.5.2-1,5.7,1.9,1.6-.8,3.6-.7.5-.6-1.2-1.4.3-1.5-2-1.7,1.8-1.9-1.1-.3.6h0l-.8-2.1-3.8-1.1-6.1-.5-.7-.7-3.7.7-1.6-.8-3.2.2-2.5-7.2-2.7-1-7.1-.3-1-2.4-1.3-1.1-.3-1.4h.5l.4-1.9,4.3-.5.8.6,4.9-1.6-.8-3.1-5.7-2.2-4.1-4.5,5.1-1.4v-2.3c0,0,1.5-1.5,1.5-1.5l-.6-1.1.4-1.2,2.6-1.4-.7-2.2h-1.2c0-.1-.5-1.4-.5-1.4h0l1.8-.8-.3-1.2,1.2-3.5,1-.6v-1.7c0,0-1.6-1.8-1.6-1.8l-.5-1.9-1.7-.8-1.5-2.1-.4-2.3,3.4-.7-.9-1.1-1.1.3-.6-3.3,5.6-2.2,1.6-4.7,5-.9.7,1.4,2.1.6,1,1.8,3.7-.7,2.1.4v-1.8c0,0,2-.4,2-.4l-.9,2.1.5.6,2.1-.6.7,1.1-.8,1.7,1.8.8h2.8c0,0,1.4-2,1.4-2l-.5-4.4.9-.6.5.7,1.7-1.5,1.7-.3,1.4-2.5,5.6,3.5,2.7-6,1.3.9,2.5-.9.7.9,1.2-1.2Z"/>
    <path id="RO-CT" d="M465.4,353.8l1,.6-.4,1.1-.4-1.3-.7.9.4-1.2ZM458.7,354.4l-.3,1.1.2-.9h-.7c0,0,1.6-1.1,1.6-1.1l-.8.9ZM466.4,353.4l1,.9,1.1-.7-4,5.6,2.9-4.4-1.8-1.6.8.2ZM461.1,352.3l4.4,1-3.3,1.9-2.6,2.8-.3-.7,1-1.2,3.3-2.4-2-1.2-2.4.7,1.8-.8ZM419.2,345.3l2.2.7,2-.5,2.1,1.4-.6,1.3,1.1.7,1-.9h2.1c0,0,0,3.4,0,3.4l3.7,1.9.5,1.1,3.4.4-.6,1.6,1.6.4.2-.7,1.5.2.2-.8,1.1-.2.7,2.1,2.7-.6.2-1.5,8.6-.2v-1.6c-.1,0,1.4-.4,1.4-.4l1.1,1.5,1.2-.3h0l.7,2.7h2.2c0,0,.4.7.4.7l-2.9,2.5.8-2-1.9.3v2.9s1.6,0,1.6,0l-1.5,1.4-1.4-.5-.8,1.6.4.7.8-1.1,1.7.2-1.4,4,.3,2.5,4.8-7,3-1.3.6-1-3.5,6.5-5.4,6.5-3.1,5h-1.5s-1.6,1.6-1.6,1.6l-.5,5.4,2.2,5.9-1.3,1.1,1.4.8-1,.3,1,2.1h-.9s.3-.7.3-.7l-.6-.6-.2,1.9-.9.2,2.1.2-1.4,1.7,1.5,6.2-2.9,6.7-.3,3.4-1.6,3.5.5.9-.4,3.6-7,.4-5.3-1.4-6-.5-12.7-6.1-2.6-10.2-1.5-1.9-3.9,3-5.7.9-1.4-.4-1.9-4.9-1.6-1.3-1.7,2.6-7.4-.7-3.8.7-2.3-3.3-3.5-1.3-.9-3.7h0l2.1-1.1,2.2.9,5.2.3,7.7-5.4,2.2-.5,4.6.5,4-3.2,6.9-.7,3.1-3.9,1.2-2.7h0l1.1-2.9,3.7-4.8-.9-3.4-2.2-2-2-4.3,1.1-3.4-.7-1.7-2.7-2.8h-1.7l-2.9-2.1-.6-1.4.4-2.6h0l3.8-1.4,2.5,1.5,1.9-.2,2.1-2.9Z"/>
    <path id="RO-CV" d="M280.6,246.5l1.7-.7,1.3-4.6,3.2-1.9,1.4-2.2,3.8-1.6,1-1.8,1.4.2,1.4,1.3-.7,1.1,6.6,9.9,3.6-.8h5.2c0,.1.9-2.5.9-2.5l2.6.4,2.5-1,2,.9.5-1.6,1.6.2.6-2,2-1v-2.4h0l3.2,1,1,2.5v6.1c-.1,0,2.2,1.9,2.2,1.9h2.2c0,0,.8,1.2.8,1.2l-.7.9.7,1.8h0v4.1l-2.5,2.4.2,2.8-1,1.4.6,1.9-.7,4.4,1,1.4h0l-.2,5-1.9.9-1.1,7-.9,1.6-1.7,1.7-1.8-2.5h-1.7c0-.1-1.5.9-1.5.9l-.4,2.6-2.3,3.8-2.4.3h0v-5.6s-2-2-2-2h-2.3s.4-1.5.4-1.5l-3-.9,1-1.3-.7-1.5-2.8-.9-.3-.7-2.4.2-2.3-2.3v-.9c0,0-1.8-1-1.8-1h-1.9c0,0-.9-1.1-.9-1.1l-1.7.2-.4,1.1h-.8c0,.1-.5-1.9-.5-1.9l-1.7-1.2.3-.5h-1s-1.1-1.5-1.1-1.5h-1.4s-.7-1.9-.7-1.9l.4-1.1-.8-.7,1.8-.2.5-.9-2.7-.6.3-1.6-1-1.7.5-4,.7.2,1.1-2.5-1.6-1.9-3.1.9-2.6-3.3.5-2.5Z"/>
    <path id="RO-DB" d="M280.4,297.5l1,1.1.6,2.7-.8,4.3,3.4,1.9,1.2,1.7v1.3c.1,0-1,.9-1,.9l-.6,2.6.5,2.6h1.7c0,.1.2,1.8.2,1.8l1.7,1.1,1,2.9,3.3,2.6.3,8.9.9-.7,1.8.3.8,1.3,1.6-.4,2.2,2.8-.9.9.6,1.7-1.3,1.6,2.5,2.6,2-.8,4.2,6-2.1,1.9,1,1.7,1.2-1.7h.9s0,1.5,0,1.5h0l.8.5-.9.7.5,1.3-2,.7-.2.9,2.8,2.4-4.5,3.8h0l-1.6-1.6-1.1,3.6h0l-.4.8-1.3-1.2-2.5.9-3.2-1.1-1.8,1.6-2.5-2.5-2.3,2.4-1.3-.9-3.9,2-1.8,2.9h0l-1.2-.7,1-1.4-.9-.6-1,.2-1.3-.9-2.3.2.9,3.1-3.6,3.3.2.5-2.8.8-2-2.6h0l2.4.5.6-.5-.3-1.7.6-.7-1.1-2.5.9-1.3-.3-1.9-3.9-4.2.4-1.5-2-2,1.5-.2,1.8-2.7-2.4-1.4,1.1-6-.2-4.6-1.6-6.5.5-2.9,1.3-1.4-.6-1.8h-.8s-.5-1.1-.5-1.1l-1,.2-1-1.6.6-1.6,1.3.5.7-2.1-1.1-1.7.3-.8-.8-.4.6-3.8-1.1-.2v-1.5s1-1.1,1-1.1l2.4,3.8,1.2.8,1.5-.6-.3-2.4,2.5-.9-.6-3.4,1.3-1.7,1.1-4.7-.2-2h0l4.4-.4.4-3,2-1Z"/>
    <path id="RO-DJ" d="M174.9,362.4l2-.5,2.4-2.4,2.6-.4,1,1.6,4.5-.7.9,1.3.6-9.4.9-.5,1.4.7h0l.6,1.5-.5,1.7.8.4.4,2.1.6-1.3.8.8,4.5,1.1-.4,2.8,1.1.6.8,3.6h0l-2,1.5.6,1-2,2,1.6.7-.4,1.7,2.6,2.5.9-1,1.2.5-.7,1.9,4.4,1.2-.4,1.1,3.6,4.3v1.4c.1,0,2.5.8,2.5.8l1.7,2.1,1.3-.3.5,1.8h.5s-.8,2.8-.8,2.8l1.2.2-2.2,11.1,2,1.9-.5,1.4.5.8-.9-.3-.3.7,1.2,1.1-.5.7.5.4-1.1,5.1-4.3,5.4-.9,5.3,1.7,1.5h0l-9.1-3.9-5.9-.8-5.1-2.1-1-1.2-2.5-.2-4.5.9-2.8-1-2.4-2.2-4.6-1.2-8.2.3-6.8,2.8-4.1.9-10-2.8-1.1-1-.8-2.5,2.1-7.1,2.6-1.7,4.2-.7,1.8-3.1-.6-2.6-3.4-.7h0l.6-1.8,3-3.1,3.3,1.3,1-6.2-2-1v-.9c0,0,1.4-.4,1.4-.4l1.4-4.4,2.4-.5.6-2.7,2.7-.4v-1c-.1,0-4.7-2.5-4.7-2.5l.4-.7h1.4c0,0,.6-2.7.6-2.7l2.1-1.3v-.8s2.1-.4,2.1-.4l-1.2-1.9h4.5c0,.1.9-.9.9-.9l1,.6,1.1-.7,1.1,1,1.4-1.2.7-2Z"/>
    <path id="RO-GJ" d="M182.1,304.1l1.7,1.4h0l1-1.3h0l2.3,1.5,2.2.3,3.4-1.8,2.9,1.7-2.6,5.2,3.1,8.4-2.2,1.4v4.1c0,0-1.6,4.4-1.6,4.4l-1.4.8v.9c0,0,.7,3.1.7,3.1l-.7,6h1c0,.1,1.1,2.8,1.1,2.8l-1.2,1.5.4,4.9-1,2.7h0l-1.4-.7-.9.5-.6,9.4-.9-1.3-4.5.7-1-1.6-2.6.4-2.4,2.4-2,.5h0l-2.8-1.6.6-1.3-5.1-3.1-4.7-2-7.3-1.3-1.3-1.2v-1.4s-3.2-1.3-3.2-1.3l-1.6-3-.6-.3-.8.9-.9-.6.5-1.3-1.8-1.2-1.9-9,1.4-1.6-.3-.9-.9-1.1h-1.2s-1.2-2.3-1.2-2.3l-3.1-2.6-3.2-.8-1.2-2.4-1.4-.4h0l-.5-1.6-3.8-.9-.9-1.2,1.4-3.2,2.1-.9,1-1.7h0l1.7-1.3,7.7-2.5,2,1.5,5.1-.8,1.3-1.3,2.1,4.7.9.2,2.3-2,.3-2.9,4.3,1.4,4.3-2.7,3.5.5,1-2.1h2c0,0,.2-.8.2-.8l.9,1.6,2.9,1.8,7.4-4.4Z"/>
    <path id="RO-GL" d="M387.9,245.3h1.4c0,0,.9,1.3.9,1.3l-.3,2.4.7,1.2-.9.9,1.3,2.5,1.8,1.3,1.5-1v-2.7s1.2-.5,1.2-.5l-2.2-4.5.7-.2-.8-.9.3-1.2,4.1,1.8,1.2-.9,1.3.7,2.2-.2,1,1.6,2.9-.6,1-1.5v-1.5s1.3-.7,1.3-.7v1.8c0,0,2-.8,2-.8l1.5,1.3,1.4-.4.7,2.4,1.3-.7.8,1,3-1,2,.5h0l.3.5-1,.4.3,1.5h-.8c0,0,.4,1.1.4,1.1l-.6.4.8,1.1-1,2.6,1.2,1.5-.4.8,1.4,4.2-.7,3,1.1.5-.3,1-1.2.3v3.2c.1,0,.9,1.3.9,1.3l-.5.5,1.1,1.1,1.1-.3-.5,1.6,1.2,1.9.2,2-.6.5.6,1.9-.7,2.1.8.4-.9.6v.9c0,0-1.4.4-1.4.4l-.8-.6-1.4,1.7,1.7,2.4.9-.4.4.8.5-.7-.4,1,.9,1.2v2s-.6.7-.6.7l1.7,2.7,1.6.5h0l-1.1,1.2-.4,2.7-2.7-1.7-2.2-.3-3.6,2.8h0l-1.9.2-.5.8-5.2-2.2-1.4,1.3.4.4-2.7.2-1.6-1-.2-1.1-2.1.6.4-2.5-1,.4v-.7c0,0-1.2.3-1.2.3l.3-.9-1.7-.2.3-1.4-1.5.7-.2-1.5-2.4,2.2-.6-1.7-1.9-.6-.5.6h0l-.4-1h-1.1s.8-.7.8-.7l-1.1-1.4.4-1.6-1.3-1.1.3-1.1,1.4-.4-1.1-1.7-.9-.2.8-1-1.2-.3-.3-1.3-1.1.3-.9-3.1-1.4.6-3.2-4.5-.2-3-1.5-2-1.5-6-2.8-5.6-1-3.9v-1.7l2.9-1.6v-1.2c-.1,0,.9-1.6.9-1.6l6.6-.9-.3-3.4.4-.3,2.4,1.8.4-1.4Z"/>
    <path id="RO-GR" d="M280.9,369.8l1.8-2.9,3.9-2,1.3.9,2.3-2.4,2.5,2.5,1.8-1.6,3.2,1.1,2.5-.9,1.3,1.2.4-.8h0l1.9-.2.9,1,.8,1-1.2,2.3.9.3-1,2-1.3-.5-.3-1.5-.8.6.8,3.9-2.2,1.9,3.5,2.5.4,1.2,3.8.9.9.9.3,1-1.2,2.5,1.8-2.3,2.7,2.6h1.4s0,1.1,0,1.1h0l2.8,1.3,1.1-.3h0l.5-.9h0l.5.2,1.1-1.7h0l.5.5,1.1-1.1h0l1-1.4h0l1.7,1.1,1.1,2.1,2.6.8.3,1.3h2c0,.1.8,1.7.8,1.7l-.8,1,.7.3.8,2.9-.5,1-3.6,2.1.9,4.4h0l-3.1.8-5.5,3h-2.8s-2.2,1.4-2.2,1.4l-2.7,4.4-5.5,3.4-4,6.1-3.5,2.4-1.5,2.7-2.8,1.5h-3.2s-1-9.5-1-9.5l-1.7-.6.2-1.2-1.2-1.9,1-.8.4-4.1-1-1.6.7-.4-.7-.8-.5-4.9,1.9-.5-.7-1.8,1.3-2.1.8.4.2-1.4.8,1.5.6-1.9,1.4-.5-3.1-2.7.5-3.2,1.6-3.4-1.3-1v-1.7c0,0-.7-.2-.7-.2l-.4,1.4-1.5-1,.5-1-2-1-1,.5-5.5-1.1.2-1.9,1.1-1.5-.5-.6,1.4-1.6-2.5-1.8.9-1.9-1.1-1.5Z"/>
    <path id="RO-HD" d="M137.8,228.6h1.3c0,.1,1.7,2,1.7,2l6.4-.2,1.5,3.2-.7,1.5,1.9,3.3,2.7,1.5,1-.6,1.1,1.6,1.1.4.3,3.1-1.1-.5-1.1.6,1.6,3.3-.6,1.1.6,2.2,1.6.9,1.3-.2,1.7,1.5,2.5-.5-.4,1.5,2.8,6.1,2.2,1.3,1.4,2.4v4.4c-.1,0,1,3.8,1,3.8l1.7,1.7-1.1,3.2,3,2.8-1.8,2.5,2.2,1.1v2.8c0,0,3.9.8,3.9.8l.6,2.1h1.2c0,0,2,1.9,2,1.9l1.2,4.1h0l-1.1,3.3.9.3.5,2.5-.6,2.6h0l-7.4,4.4-2.9-1.8-.9-1.6-.2.7h-2c0,0-1,2.2-1,2.2l-3.5-.5-4.3,2.7-4.3-1.4-.3,2.9-2.3,2-.9-.2-2.1-4.7-1.3,1.3-5.1.8-2-1.5-7.7,2.5-1.7,1.3h0l-1.3-.9h-1.7c0,0,.7-2.1.7-2.1l-.6-2,4.1-3.6,2.1-4.9-1.1-5.8-2.2-3.7-.9.3.3-2.6-2.1.5-.7-1.6-3,.8-3.8-6.4-1.4-.7h0l2.1-2.8.3-2,2.5-.7,1.5-2.9-1.2-1.3-1.3.9-1-.3-.2-3.6-2.1-1.5-1.2.4-2-2.8,1.6-1.3v-1.1h.1l1.2-2-.3-.6-3.2-.3-1.3-2.2.4-.9,2,.2.5-1.1h2.1s-.2-5.9-.2-5.9l-1-.8,2.5-2.3v-1c.1,0,1.9-.8,1.9-.8l-2.2-1.8-.8-2.5,2.9-2.4,1.3,2,2-.4.5-.8h4.9s1.1-6.8,1.1-6.8l2.3-.8,1.8-1.6Z"/>
    <path id="RO-HR" d="M269.2,171.8l3.8-2.4,4.5,2.3,1.1-2.6,2.6-.7,3.4,1.8.3,2.2,3.6.6,1.1-1.5,1.9.5h0l4,1.3,2.1,3.2-.3,1.1,1.8,3.9.9-.9h1.3c0,0,1.2,1.7,1.2,1.7l-1.1.2-1,2.3-1.3-.3-2.1,3.3,1,1.4-.8,1.9,2.3,1.4.4,3.4v2.1l-1.6,2,.3.8,4,4.8,2.1-.3-1.3-2.6.4-.8,4.5.7h0l1.7,3.4-1,2.1.3,1.2,3.5,5.3.5,2.1-.3,1-2.1,1.1-.7,1,.4.6-1.9,1.7,4,2.4,6.6.3-.8,1.1.5.6-1.3,5.2h2.8s2.7-2.2,2.7-2.2l1.4.6-.3,2.7-1.5,2,.4,1.9h0v2.4c0,0-2.1,1-2.1,1l-.6,2-1.6-.2-.5,1.6-2-.9-2.5,1-2.6-.4-.9,2.6h-5.2c0-.1-3.6.7-3.6.7l-6.6-9.9.7-1.1-1.4-1.3-1.4-.2-1,1.8-3.8,1.6-1.4,2.2-3.2,1.9-1.3,4.6-1.7.7h0l-1-1.1-3.3-.4v-1.6c-.1,0-1.7-1.4-1.7-1.4l-.9.2-1.2-.8-1.9,1.1-.6,2.1-3.4-2.4-.9.3h0l-2.3-1.7-1.3-3.4h-1.4s-.5-.9-.5-.9h-6.3c0,0-.8-.4-.8-.4l-.3-1.8-1.8-1.2-1.1.4-1-1.8,1.4-1.9-1.2-.2-1-2.8.7-.8,2.1.5.7-.5,1.7,1.2,1.9-1-1.9-3.3,3.5-2.4,1.4-2.5-1.4-.6-.7,1.7-.6-1.3.3-1.1,1.4-.9.5-1.9,2.3-1.1,1.1-1.6h3.4c0,0,4.5-6.2,4.5-6.2l3-2.2-.5-1.8,1.4-6.1-1.3-.9v-2.5c0,0-1.7-.8-1.7-.8l1.6-7.3-.6-7.4-2.1-2.2.3-2.3Z"/>
    <path id="RO-IF" d="M330.9,365.5l-.5,1-.3-1.1-1.3.3-.8-1.8,1.6-2.3-.4-.6,1.9-1.7,1.1,1.1,1.4-1v-1.8s-4.1,1.1-4.1,1.1l-2-4,1.6-1.1v-1.3s-1.1-2.1-1.1-2.1l-2.4-2.2h0l-1.9.8-.7,1.4-3.6-1.6-.7.6-1.8-.7-.7.7-1.8-1.1.3,1.8-1.4-.9-1.2,1.3v-.6c0,0-2.6.4-2.6.4l-1-.5-1,.4.4,1.3h0v1.4c0,0,.9.5.9.5l-.9.7.5,1.3-2,.7-.2.9,2.8,2.4-4.5,3.8-1.6-1.6-1.1,3.6h0l1.9-.2.9,1,.8,1-1.2,2.3.9.3-1,2-1.3-.5-.3-1.5-.8.6.8,3.9-2.2,1.9,3.5,2.5.4,1.2,3.8.9.9.9.3,1-1.2,2.5,1.8-2.3,2.7,2.6h1.4s0,1.1,0,1.1l2.8,1.3,2.1-.9,1.1-1.7.8.3,1.8-2.4h0l1.3-1.5-1.1-1,3.5-2.2h-.5c0,0,.8-.9.8-.9h-.7s-.4-1.5-.4-1.5l1.3.3-.5-.8h1.2c0,0,.9-1.3.9-1.3h2.1c0-.1,3.2-2.2,3.2-2.2l-.7-1.2-3,.3-1.6-2,2.8-2.6-.6-.8ZM321.6,374.8l-.3.5h0l-2.4.5-1,1.9,1.3,2.4-1.5.5-1.5-2.2-.9.6-2.6-1.2-1.8-1.9-2.2-.4-.6-2.6h2.8c0-.1-.2-1.2-.2-1.2l-1.9-1.1v-1.8c.1,0,1.4-.6,1.4-.6l.2-1.3,2.5-1.1,3-.2.6,4,3.7.6-1.1,1.7,3.5,1.2h0l-.9,1.8Z"/>
    <path id="RO-IL" d="M341.7,341l1.1,3.4h7.4c0-.1,1.1,1.5,1.1,1.5l1.8.7.9-1.2h1.7c0-.1.7-1.4.7-1.4l5.9,2.9-.2-1,1.3-1.7,4.8,2.6-.7,2.6,1.9.7.2-.5,2.2.9.7-1.6-2.4-1,.3-1.6,2.8-.5h0l.4,1.5,2.9,2.1,2.5-4.5,2.2.2-.3.8,2.1,1.2,1.9-1v.6c.1,0,3.8.6,3.8.6h1c0,0,0-.8,0-.8h3s7,1.4,7,1.4l6.3-1,2.3.3.2.9h0l-.4,2.6.6,1.4,2.9,2.1h1.7l2.7,2.8.7,1.7-1.1,3.3,2,4.3,2.2,2,.9,3.4-3.7,4.8-1.1,2.9h0l-8.5-2.9-1.6,3-1.2-.2-.6-.9-.8.8-1.3-1.5.5-.4-.7-1.1,1.1-.9-2-1.6-3.9-1.1-.3-2.6-3.8-.6-.4-6.2-.6-.3h-.6s-.2,1.6-.2,1.6h-1c0-.1-.4,3.3-.4,3.3l-6.7.2v-.7c0,0-1.6-.8-1.6-.8l-.4,2.2-3.4-.4v-1.5s-.8-.1-.8-.1l-.7,1.8-1.8-.4.2-1.1-.9-.5-.4,2.1-3.7-1.2-.3,1.3h-2.4c0-.1,0-2,0-2l-3.2.3v-1.7c0,0-3.7,0-3.7,0l-3.3,1.1v-.7c0,0-2.8.6-2.8.6v-.7c.1,0-.6-.1-.6-.1l-1.3,1.4-1.8-.7.2-2.3h-.9c0,0-.4,1.8-.4,1.8l-2-.5-.7-.8.2-1.8-1.9-.7.4-1.1-.8-.5-3.7,5.6-2.5-.9-1.6-2.6-1.8-1.2-2.4,2.5,1.6.2-2.7,2h0l-.6-.7-.5,1-.3-1.1-1.3.3-.8-1.8,1.6-2.3-.4-.6,1.9-1.7,1.1,1.1,1.4-1v-1.8s-4.1,1.1-4.1,1.1l-2-4,1.6-1.1v-1.3s-1.1-2.1-1.1-2.1l-2.4-2.2h0l1.8-2,.2,1.1,1.4-.3,1.8,1.1,3.2-3.2,1.9,1.3,1.6-1.5.8.5,1.5-2.5,2.2-1.4Z"/>
    <path id="RO-IS" d="M383.7,133.5h1.3c0,.1-.6,1.3-.6,1.3l.8.2v1.5c0,0,1.3.5,1.3.5l-.7.4.4.7.8-.4-.7,1.5,1,1.7,1.1-.2.7.8.5-1v1.3l1.1-.3v-.8c.1,0,1.2,2,1.2,2h.7c0,0-1.1,2.3-1.1,2.3l1.7,1.9-.8,2.7.7-.3-.5.7.8.3.4-.6v1.9c0,0,1,.6,1,.6l-1.8,1,.9.8.3-.9v.9s.9-.7.9-.7l1.3,2,.4-.6,1.2.6.2-.8.4,1.9,1.1-.4v-.8c0,0,1.2.4,1.2.4l.4,1.5h.6s-.1.9-.1.9l.7.6h-.8s.7.6.7.6l-.6.7,2.1,1.8-.5,1.2.7-.3-.2,1.3h.8c0,0-.3,1.5-.3,1.5l.8.5-1.4,1.1.8.6h-1c0,0,3.4.5,3.4.5l.4.8-.6-.5-.5,1.1,1.6,1,.7-.4,1.3,2.7,3.1,1.2-.7.6,2.6,1v.7c0,0,2.8.3,2.8.3l.3.9-.7-.4-.4.7,3.5,2.4-1,1.2,1.1,1.2-.9.8,1.6,1.2-1.5,1.5,1.6.7.2,1.2-1,.6,1.2,1-.4.9h0l-5.3.5-1.1-.2-.7-1.2-2.1-.2-.9.5,1.3,2.4h-.9c0,.1-4.3-3.3-4.3-3.3h-1.5c0-.1,0-1.5,0-1.5h-3.6c0-.1-3.9-6.2-3.9-6.2l-2.5-1.6-1.1,2.1.2,3,.7-.2.8,1.7-2.4.9-4-.7.5,1.5-2.5.2v1.4c-.1,0-1.1-1.2-1.1-1.2h-3c0,0-1.2-1-1.2-1l-2.9.7v.9s-1.2.5-1.2.5l-.7-1.1-3.9.2-1.3-.9h0l-.7-2.2-3.4-2.8.7-1.1h1c0,.1,0-.8,0-.8l1.8-2.1,1.1,1,2-1.3-3-2.1-.6-3.7-1.9.2-1-.9-3.1.3-1.4,3.5-1.6-.2-1.4-2.8-.6,2.4-3.8,1.4-3.7-.7-.7-2.1-3.1-3.3-2.1,1.2-1.3-1.6-2.3,2-1.2-3.9.7-.6-.9-4-4.5-4.7h0l2.6-3-.6-1.5-2.2-1.7-.7.3-1-4.6,1.6-.7.8,1.7h1.6c0,0,2.2,1.7,2.2,1.7l3.4-.2-.5-.8.6-.9-1.8-1.7,1.9-1.1-.5-1.1.6-3.3h0l1-1.7h1.8s-.4-1.6-.4-1.6l1-.7,5.4,2,8.1.3,2.3,4,1.2-2.2.8.3v-3c-.1,0,1-3.7,1-3.7l2.4,1.9,1.2-1.2.2,1.3h3c0,0,2.1-.8,2.1-.8l-.8-2,.5-.5,1.5.5,1.8-1.4,3.7-.8h0l.6.5Z"/>
    <path id="RO-MH" d="M98.4,359.8l.3-.6,1.9,1.1,1.7-1.8,1.5,2,1.4-.3.6,1.2.7-.5.8-3.6-1.9-1.6,1-5.7,1.5-.2.8-1.2-.4-2.3.8-2,3.1,2.5,7.1.3,4.7-7.3v-5s1.3-1.2,1.3-1.2l-1.3-1,3.6-3,5.5-6.9h0l1.4.4,1.2,2.4,3.2.8,3.1,2.6,1.2,2.4h1.2s.9,1.1.9,1.1l.3.9-1.4,1.6,1.9,9,1.8,1.2-.5,1.3.9.6.8-.9.6.3,1.6,3,3.2,1.3v1.4s1.3,1.2,1.3,1.2l7.3,1.3,4.7,2,5.1,3.1-.6,1.3,2.8,1.6h0l-.7,2-1.4,1.2-1.1-1-1.1.7-1-.6-.9,1h-4.5c0-.1,1.2,1.8,1.2,1.8l-2,.4v.8s-2.2,1.3-2.2,1.3l-.6,2.8h-1.4c0,0-.4.6-.4.6l4.6,2.5v1c.1,0-2.5.4-2.5.4l-.6,2.7-2.4.5-1.4,4.4-1.3.4v.9c0,0,1.9,1,1.9,1l-1,6.2-3.3-1.3-3,3.1-.6,1.8h0l-2.6-.5-6-3.8-3.3-3.1-3.5-1v-4.7s-6.3-2.1-6.3-2.1l-1.9-2.8-1.2-5.5-2.1-2.4.3-1.9,2.8.5,1.6-.7.9-3.9,1.1-1.1h2.2s3.6,2.5,3.6,2.5l3.3-1.5-.2-2-2.4-2.9-1.9-1.2h-3.6c0-.1-6.8-7.1-6.8-7.1l-1-.2-2.1.9-1.4,1.8-2.7.3-1.4,1-2,2.9-4.8,10.7-2,.7-3.6-2-.6-2.3-1.7-1.2-.6-3.7-.9-1Z"/>
    <path id="RO-MM" d="M180.9,100.3l2.6-.4,2.7,1.9,5.9-.8,2.3,1.3,1.3,3,1,.6.9-.8,3.1-.4.6-1.2,2.9-.3,1.2,1.4,1.6-.3,1.7,1.2.9,1.8,4.2-.3,1.9,1.6,5.1-2.3,1.3.9,1.7-.9.6-2.1,2.2-1.3,4,1.5,3.3-1.3,1.4,1.8,1.5-.3.5,2,2,2.2v2.5c0,0,1.5.9,1.5.9l.2,1,1.6-.2.9,1,.8-.7.9,1.1,2.3.4-.4,1.1.8,2,2.2,2.1.4,2.3,3.2-.4h0l.3,2.2,1.6.5,4.1,3.8-.3.7-2.3.5-3.2,2.9h0l-2.8-.5-1.8.8-.8-.9-1.8.8-.3,1.7-4.5-.2-2.6,1.4-2.4-1.2-3.8.6-5.2-2.5-3.7-.8-1.6,2.6-2.9-.3-1.3,3.8-1.4.8-.4,1.3-2.3-.6-3.7.5-1.1,5.7-1.8,1.3-.8,2.4-1.3.4-.6,1h0l-1.2-.5-5,1-1.1-1.2h-1.5s-1.2,1.7-1.2,1.7l.6,1h0l-2-.8-2.4,1h-2.6c0,0,.1-1.5.1-1.5h-1.4c0-.1-.7-1.9-.7-1.9l-1.3-.7-4.5,1.5-6.7-1.1-1.9-1.2-2.6-.3v-1c-.1,0-1.3,0-1.3,0l-.6-1.2-4.9-.8v-.8c0,0-2.2-.8-2.2-.8l-4.4,2.4h0l-1.1-1.4-3.2,1.4-2.7-1.1v-3.7c-.1,0,1.5.4,1.5.4l.8-.8,1.8.2.4-5.1,4.7-5.5,2.3,3.3,1.9.5,1.7,1.7h1.6s.6-7,.6-7l2-.3,3.1-2.8-.5-.5-.7.5-1.5-2.1h-1.8s-.7-1.2-.7-1.2l-2.7.3-.4-2.1,1.5-3.5,1-.3,3.6,1.6,1.5-.4,3.9,1.6,1.5-1.6,4.2-1.8,1.8-3.5,1,.3,1.6-1.7-.9-2-1.8-.8-1.5-3.3h-1.2c0,0-2.3-1.9-2.3-1.9h0l1.5-4,2,1.3Z"/>
    <path id="RO-MS" d="M260.3,168l1.5,1.3,2.4.2,1.7-.9,3.4,3.2h0l-.3,2.3,2.1,2.2.6,7.4-1.6,7.3,1.6.8v2.5c0,0,1.3.9,1.3.9l-1.4,6.1.5,1.8-3,2.2-4.5,6.3h-3.4c0,0-1.1,1.6-1.1,1.6l-2.3,1.1-.5,1.9-1.4.9-.3,1.1.6,1.3.7-1.7,1.4.6-1.4,2.5-3.5,2.4,1.9,3.3-1.9,1-1.7-1.2-.7.5-2.1-.5-.7.8,1,2.8,1.2.2-1.4,1.9,1,1.8,1.1-.4,1.8,1.2.3,1.8.8.4h6.3c0,0,.5,1.1.5,1.1h1.4s1.3,3.4,1.3,3.4l2.3,1.7h0l-1.1.7-.5,1.5-2.3-1-2.1.9-2.3-.6-3.2,2.9-.6,2.2h0l-1.4-.2-1.6-2.1-4.4,1.3-1.5-.7-.5,1.1h-2c0-.1-.7.7-.7.7l-1.6-.8-.7-1.1.7-7v-1.8c0,0-1.1-1.4-1.1-1.4l.7-.9-.4-2.6-1.4.4-1,1.9-1.4.3-1.8-1-3.5,1.4-.6-1.1-3.3-.4-2.5,1.5-3.9-.9h-1.9c0,0-.7.9-.7.9h0l-1.8-1.5-1.1.2v-1.2l-2.8-1.5-.7-2.8h-2.8s-3.8-2.8-3.8-2.8l-.5-1.2,1.3-1.3.8-4.2h-1c0,.1-1.1,1.9-1.1,1.9h-1.3c0,0-.6-1.8-.6-1.8h0l-.2-4.7,1.7-1.9,2,.6v-1.7c0,0,2.1-3.9,2.1-3.9l-2.6-.8v-1l2.2-2.1,2.1-.3.9-2.1v-.9c.1,0-2.2-1.1-2.2-1.1l-.7-1.6,6.5-4.3-.4-.8h0l6.1,3.8,3.1-.6.8.8,2.9-1.9,1.6.7.9-4.7,1.9-.8v-1c0,0,1,0,1,0l.5-4h1.4c0,.1-.4-.7-.4-.7h1.5c0,0,.6-2.1.6-2.1h1.3s.2-.9.2-.9l1.6,3.1,2.6,1,1.3-.3v-1.1c.1,0,.9-.1.9-.1l-1.2-1,.9-3.4,1.6-1.5,1-3.5,1.7-2.2,3.3-2.5h2.8c0,0,1-1.1,1-1.1l3.7.4,2.5-1.9Z"/>
    <path id="RO-NT" d="M291.5,171.9l.4-2.3,1.5-1.8.2-2,1.2-.6-.4-1.8,1.2-1.4,3.6-.3,1.4-2.4-3.4-5.1.5-.5,3.3.7,3.2,3.9h.9c0,.1,1.1-1.1,1.1-1.1l2.4-.9,4.8.9,2.5-1.4,3.5.4.5-.8,3.2,1.7,1-1.5,1.7.3,5.5-3.4,1.9.8.7,2,4.1,3.7h0l4.5,4.7.9,4-.7.6,1.2,3.9,2.3-2,1.3,1.6,2.1-1.2,3.1,3.3.7,2.1,3.7.7,3.8-1.4.6-2.4,1.4,2.8,1.6.2,1.4-3.5,3.1-.3,1,.9,1.9-.2.6,3.7,3,2.1-2,1.3-1.1-1-1.8,2.1v.9c0,0-.9-.1-.9-.1l-.7,1.1,3.4,2.8.7,2.2h0l-.6.7,1.6,1.8.2,2.4-.2,3.7-1.1.8h0l-1.1.2-1.3,1.8-.3-1.4-1.5.3-1.2-1.9-1.7,1.1-.9-1-5.2,1.2-.6-2.2-.8.7-.4-1.4-1.1-.3h.8c0,0,.4-1.7.4-1.7l-2.4-.8v1.6s-.9.6-.9.6l-.3,1.8-1.6,1.1-.5,2.2-1.6.5-2-4-.4,1.2-2.6-.2-.6,2.8-3.7,2.3-2.2,2.6-1.6-1.9-1.2-.2-.9,1.1h-2.9c0,0-4.6,2.9-4.6,2.9l-2.7-1-1.6-3.7-1.5.9-1.3,2.9-2.9.9-.8-1.3-2.1.9-1.2-.7-.4-3.6-3.8.2-1.1.9h0l-4.5-.7-.4.8,1.3,2.6-2.1.3-4-4.8-.3-.8,1.6-2v-2.1l-.4-3.4-2.3-1.4.8-1.9-1-1.4,2.1-3.3,1.3.3,1-2.3,1.1-.2-1.2-1.6h-1.3c0,0-.9.9-.9.9l-1.8-3.9.3-1.1-2.1-3.2-4-1.3Z"/>
    <path id="RO-OT" d="M200,365.5l3.9-.5,1.4.5v.9c-.1,0,.7-.5.7-.5l-.2,1.2,1,1h1.6s2.7-5,2.7-5l1.9-.4,1.2,1,2.1-.2.3-1.5,2.4-.2-.2-1.5,2.4,1.7-1-6.7-2-2.4.4-4,.6-1.8h1.2c0-.1,0-4.2,0-4.2l1.5-1.2-.4-1.4,3-1.1.8-1,.9.6.3,3.1h0l.6.6-.7,1.5,3.4-.3v-1.9c0,0,1.7-3.3,1.7-3.3h1c0,0,0,2.7,0,2.7l1.6,4.2.8.2.3,3.2,1.6,1.7,4.4-.2v1.8c0,0-1.1,1.2-1.1,1.2l2.3,6.4-.7,1.6.7,1.1.2,3.1-.6,2.6.7,2.5-.2,3.9,1.1,1.6h2.6s.4.6.4.6h0l1.1,3.6,1,.9-1,.7-.2,5.3-.5.4,1.2.5-2.3,2.6.5,2.4,2.1,1.9.5,2.7-7.2,2.6.6,1.5-3.4.6-4.1,2,1.3,2.7,1.1.3.2,1.3.8.3-.8.6,1.3,1.6.2,1.5,3.3,4.1-2,1,3.8.2-1.7.9v1.3l-1.6.4-.5,1.7-1.5.5-.2,2h0l-3.1-1.9-4.8-.8-5.2,2-3.4,2.8-8.2,1-2.2-.5h0l-1.7-1.5.9-5.3,4.3-5.4,1.1-5.1-.5-.4.5-.7-1.2-1.1.3-.7.9.3-.5-.8.5-1.4-2-1.9,2.2-11.1-1.2-.2.8-2.8h-.5s-.5-1.7-.5-1.7l-1.3.3-1.7-2.1-2.4-.8v-1.4c-.1,0-3.7-4.3-3.7-4.3l.4-1.1-4.4-1.2.7-1.9-1.2-.5-.9,1-2.6-2.5.4-1.7-1.6-.7,2-2-.6-1,2-1.5Z"/>
    <path id="RO-PH" d="M280.4,297.5l.7-1.1,2-.8,4.7.3.8-1.1,2.1-.7,4.1,1.2.2.7,3.2-1.3,1.2,1,.9,2.5,2,.6,1.1-1.6.7-3.9,1.2-1.3h3.8s2.6,2.7,2.6,2.7h0l.5.4-.3,2.8,3.2,2.1,1.9,3.3,2.6.8,1.9,2.3v1.2c0,0-1.2.7-1.2.7v1.4c0,0,.9.2.9.2l2.1,5.4,2.3.2,1.4-1.2,1.3.3-.7,1.4,1.1,2.6,3.7-1.9,1.9,2.4-1.1,3.3.8.7-1,2.1h.7c0,0,2.1,6.2,2.1,6.2l1.8-.9,1.3,2.6.8-.5v2.1c0,0-3.1,1.8-3.1,1.8l4.9,4.5h0l-2.2,1.4-1.5,2.5-.8-.5-1.6,1.5-1.9-1.3-3.2,3.2-1.8-1.1-1.4.3-.2-1.1-1.8,2h0l-1.9.7-.7,1.4-3.6-1.6-.6.6-1.8-.7-.7.7-1.8-1.1.3,1.8h0l-1.4-.9-1.2,1.2v-.6h0l-2.5.4-1-.5-1,.4.4,1.3h-.9s-1.2,1.6-1.2,1.6l-1-1.7,2.1-1.9-4.2-6-2,.8-2.5-2.6,1.3-1.6-.6-1.7.9-.9-2.2-2.8-1.6.4-.8-1.3-1.8-.3-.9.7-.3-8.9-3.3-2.6-1-2.9-1.7-1.1-.2-1.7h-1.7c0-.1-.5-2.7-.5-2.7l.6-2.6,1.1-.9v-1.3c-.1,0-1.4-1.7-1.4-1.7l-3.4-1.9.8-4.3-.6-2.7-1-1.1Z"/>
    <path id="RO-SB" d="M217.2,236.8l.7-.9h1.9c0,0,3.9.8,3.9.8l2.5-1.5,3.3.4.6,1.1,3.5-1.4,1.8,1,1.4-.3,1-1.9,1.4-.4.4,2.6-.7.9,1,1.4v1.8c0,0-.6,7-.6,7l.7,1.1,1.6.8.7-.8h2c0,.1.5-1,.5-1l1.5.7,4.4-1.3,1.6,2.1,1.4.2h0l.2,1-2.9,1.6-1.3,2.6-1.6.4v2.1c.1,0-3.4.3-3.4.3l-.8,3.1-1.9-.9-1,.5.9,3.3,3,2.6-.2,1.7-4.3.3-3.1,2.4,2.5,6.9.5,8.2h0l-.8.5-3-.4-2.7,1.6-3.2-.4-.8.8h0l-2.2-1.1-.8.6-4.4-.4-2.3,1.3-1-.3-1.5,2.2h-1.5s-1.5,1.4-1.5,1.4h-4.5c0,.1-1.8,1.1-1.8,1.1l-3.4-1.7-5.2-.2-2.6.8-1.1-.9-3,.3-2.7,2.2-2,.3-2.1,2.6-1.9.4v-.5h0l1.5-.4-.3-3.6-.8-2.1-1.3-1.2.6-1.7,1.5-1-.7-1,.6-1.8-3-2.7v-2.1c-.1,0,.4-1.7.4-1.7l2.1-.8.8-1.5,1.1-.4-2.3-1.9.6-1.4,3-1.7,1.5.3,1.1-4.8-1-.8.6-1.2-.5-.4,4.4-.6,1.1-1.9,1.5-.9-.4-1.5.6-1.6-1.1-.7,2.2-2.4h3.8s2.1,3.3,2.1,3.3v-1.2s2.2-1.3,2.2-1.3l-.4-1.6,1.4-1.9-.3-.7,1.6-1.1,1.4-2.4h1.9c0-.1,3.3-1.8,3.3-1.8l.2-.7-1.4-1.2.9-2.1-.5-.7,3.1-1.8Z"/>
    <path id="RO-SJ" d="M156.1,145.6l4.4-2.4,2.1.8v.8c0,0,4.9.8,4.9.8l.6,1.2h1.2c0,0,.1,1,.1,1l2.6.3,1.9,1.2,6.7,1.1,4.5-1.5,1.3.7.7,1.8h1.4c0,.1-.1,1.6-.1,1.6h2.6c0,0,2.4-1,2.4-1l2,.8h0l-2.4,4.2,1.2,3-3.4-2.4-.6,1.7-.9.4-.4-.7-3.5,2.6-1.3,2.1.3,1.1-1.6,1.2-2.2-1.3-.8,1.9-3.1.3.8,2.4v.8c0,0-1.3.2-1.3.2l.2,1.4h-2.9c0,0,2.3,2.7,2.3,2.7l.6,2.3-.8.2.2.7-1.6,1.8h-2.1c0-.1-.3.5-.3.5h.7c0,.1-1.6.7-1.6.7v.7c.1,0-.6.2-.6.2l.6,1.3-2.5,2.8-.7-.3-1.2.8-.9-.8-1.1.2-1.7-3.8-1.1.7.4,4.6-1.1,1.7-2.2-.2-2.9,1.5-1.4-.6.9-2.3-1.4-1.1-1.3,1.8-.4-1.6-1,1-.6-1.3-1.9.4-1.5-.9-.8-1.8-1.3-.6v-2.4c0,0,.6-.9.6-.9l-1.7-.4-1.1-1.5-3.8.8-3.3-.5h0l-.2-2.8-1.3.4-.6-1-2.8-.4-1.4-2.2-1.7.4-1.3-2.7.6-.9-1.4-1.4-.4-2.2h-1.3s-.6-.8-.6-.8l1-.9.5-2.7,1.3-.8.4-5.8,2.9-1.2v-1.4h.8c0,.1,1.2-2,1.2-2l1.8-.2,1.7-2.1,4.3-.7,1,1.1,1.8-1.8,2.6,1.5,1.5-.3-.5,1.6h1.1s1,2.1,1,2.1l1.1.6,1.9-.9,2.3.7,2.9-3.4-.6-2.1Z"/>
    <path id="RO-SM" d="M159.8,91l1.3,1.8,2.9.4,1.1-.6,1.3,2.1-.6,1.4,2.9,1.4-.2,1.4,3.6,1.4.8,1.1h1c0-.1.9.9.9.9l2.6.6h0l2.3,2h1.2c0,0,1.5,3.3,1.5,3.3l1.8.8.9,2-1.6,1.7-1-.3-1.8,3.5-4.2,1.8-1.5,1.6-3.9-1.6-1.5.4-3.6-1.6-1,.3-1.5,3.5.4,2.1,2.7-.3.7,1.2h1.8s1.5,2.2,1.5,2.2l.7-.5.5.5-3.1,2.8-2,.3-.6,7h-1.6s-1.7-1.6-1.7-1.6l-1.9-.5-2.3-3.3-4.7,5.5-.4,5.1-1.8-.2-.8.8-1.6-.4v3.7c.1,0,2.8,1.1,2.8,1.1l3.2-1.4,1.1,1.4h0l.6,2.1-2.9,3.4-2.3-.7-1.9.9-1.1-.6-1-2.1h-1.1s.5-1.6.5-1.6l-1.5.3-2.6-1.5-1.8,1.8-1-1.1-4.3.7-1.7,2.1-1.8.2-1.2,2.2h-.8c0-.1-1.9-2.1-1.9-2.1l-.5-1.9-1.6-.2-.7-1.9-1.8-.9-2.7,1.2-1.3-1.1-2.6.5-1.3-4.1.8-.6-3.2-1.5v-2.5s-1.8,0-1.8,0l.3-1.9-1.1-.4-.8-2.3-2-1h0l2.1-6.3,1.6-.7.3-2.5,2.8-1v-1.9s2.1,1.4,2.1,1.4l3.9.7,1-4.9,1.8-.5,3.6,3h3.2s3.7-1.2,3.7-1.2l1.7-3.7,3.4-.6-1-3.9h1.8c0,.1,2.7-1.3,2.7-1.3l2.2-3.4,3.4-1.3-.5-2.5-1-.7.5-1,2.3.6,2.3,1.7.9-1.1,3.1-.2.8-2.3-.2-2.4,1-.9-.5-.8,2.8-2.6Z"/>
    <path id="RO-SV" d="M313.9,101.8l2.3,4.1,3,1v2.2c0,0,.8.7.8.7l1.6-1.3,2.2,1.8.6,1.6.6-.5.8,1.2-.4,1.1,1.2.3-.3,1.3,2.9,3.5,1.7.8-.8,1.2.3.9,1.2.6v.6c0,0,1.5,0,1.5,0l.5,2,.5-.4v.7c-.1,0,1,.5,1,.5v1.5c-.1,0,3.2,1.7,3.2,1.7l-.6.3.9,2.3-.8.8.2,1.2.9.3,1,3.4,1.4.2v.9s-2.7,1-2.7,1l2.1,1.3v2.5c0,0,4.7-1,4.7-1h0l-.6,3.3.5,1.1-1.9,1.1,1.8,1.7-.6.9.5.8-3.4.2-2.2-1.8h-1.6c0,0-.8-1.7-.8-1.7l-1.6.7,1,4.6.7-.3,2.2,1.7.6,1.5-2.6,3h0l-4.1-3.7-.7-2-1.9-.8-5.5,3.4-1.7-.3-1,1.5-3.2-1.7-.5.8-3.5-.4-2.5,1.4-4.8-.9-2.4.9-1.1,1.3h-.9c0-.1-3.2-4.1-3.2-4.1l-3.3-.7-.5.5,3.4,5.1-1.4,2.4-3.6.3-1.2,1.4.4,1.8-1.2.6-.2,2-1.5,1.8-.4,2.3h0l-1.9-.5-1.1,1.5-3.6-.6-.3-2.2-3.4-1.8-2.6.7-1.1,2.6-4.5-2.3-3.8,2.4h0l-3.4-3.2-1.7.9-2.4-.2-1.5-1.3h0l-.5-4.8-1-.7,1.1-4.2-1.3-2.2,2.2-1.8-.8-3.1.3-1.3-1.5-.6-1.7-2.3v-1.1s.6-1,.6-1l.9.7,1.3-.5.4-1.8-1.1-1,2.3-2-2.5-1.7-1.5-2.3.5-1.2-3.1-2.5h-1c0,0,3.2-3,3.2-3l2.3-.5.3-.7-4.1-3.8-1.6-.5-.3-2.2h0l2.8.3.6-.7,1.7.7.8-1.7.7.4,2.6-1,.9-2,1.8-.9v-1.4c0,0,2.9-3.9,2.9-3.9l.5-2.6h2c0,0,2.3-1.8,2.3-1.8l17.7-2.8,6.7.8,4.5-2.4,1.6.7,1.3-1.3,1.9.5,5.9-1.4,1,.3Z"/>
    <path id="RO-TL" d="M497.5,346.3l-1.6.4,2.5-1.5-1,1ZM498.8,345l1.7-2.8v-2.7c0,0,.2,2.6.2,2.6l-1.8,2.8ZM430.6,298.5l-.2,2.2,3.5,5.7,11.3,5.4,4.1.4,3.8,1.4,4.3-1.3-2.1-3,2.7-1.5-.9-2.1,1.8-.4,6.4,4.2,1.3-3.8,9.8-4.3,4.6-3.4,2.6.4,1.8-1.6,1.5.8,4.1-.4,6.3,2.5,2.6,1.8,3.1,3.9,1.1,4.7-.9,2,1.2,2.5-2.8-.4v-.6s0,2.6,0,2.6l1,2.2,1.6.4,1.7-.6-1.7,1.4-1.3,3.5-1.9,15.9h-1.1s.4,3,.4,3l-3,1.7-10.8,1.2-.6-.7-1.4.4,1.3.4-9.9,2.3-3.4,2.1-3.8,4.1-1.2-1.5-.7-2.7,2.8-.2,5.4-2.7,1.2-2.7-2.9-3.9-.5,1,.8,1.6-1.6,1-1.3-2.1-.3-5.9.4-.8,2.9-1v-1.6c.1,0-3-1.6-3-1.6h-1.6s-.3-1.3-.3-1.3l-2.5.3.3,1.6-.8.7h-1s.7-1.5.7-1.5l-1,1-.3-.8-.2,1.4-1.4-3,.9,3.1-2.5,1.8-.5,3.5.4,2.3,4.8,4.2-2.3,1.6.9.3-.6,1.5,1.5,1.8-3.4.7.7-.8-3.3,2.2-2.3.7,1.2-.9-1.2.2-.5,1.4-1.8-.4-1.4-1.4.5,1.5,3,.4-.6.9,2,.5-1.6,1h0l-1.2.3-1.1-1.5-1.5.4v1.6c.1,0-8.4.2-8.4.2l-.2,1.5-2.7.6-.7-2.1-1.1.2-.2.8-1.5-.2-.2.7-1.6-.4.6-1.6-3.4-.4-.5-1.1-3.7-1.9v-3.3c0,0-2,0-2,0l-1,.9-1.1-.7.6-1.3-2.1-1.4-2,.5-2.2-.7h0l1.4-4.6,2.2-2-1-1.7,1.4-4.5-1.2-3.1,1.3-1.6-.9-4.9h2.1s-.3-1.6-.3-1.6l1.5-1-5.6-4,2-3.3-.8-1.8-1.1.6-2-.4-3.3-2.5,1.6-5.3v-3.3h0l3.6-2.8,2.2.3,2.7,1.7.4-2.7,1.1-1.2h0l3,1,.8,1.9Z"/>
    <path id="RO-TM" d="M23.8,243.9l2.2,1.7.9-1.9,1.1.6,1-1.1h1c0,.1.6,1.3.6,1.3h2.3s.4,1.4.4,1.4l2.8,2.7,4.5,1.1,1.3,2.7,2.1-.4,2.3,1.1,2.3-.7.8,3.1,1.3,1.5,1.7-1.2.3-1.4h.8c0,0,1.5,2,1.5,2l3,1.3.9-2.3,1.7-.4-.4-1,2.2,1.3.7,1.9h.7s.8-1.9.8-1.9l3.2-1.5,3.6-3.4,1.3,1.9-.2,2.4,5.9,2.9v2c0,0,1.4.8,1.4.8l.4,2.3,1.2-.6v-1.6c0,0,1.8-2.4,1.8-2.4l.6,1.5,2,.2v.9s1.2.2,1.2.2l1.7-2.2,1,.9,1.3-1.1,1.2.8,1.4-1,.6-1.7,3.7-.9.3,1.9,6.5,2.7.2,1.5,2.2-.8,2.3.9,1.3-2.7,3.2,1.3.9-3h1c0,0,.5,2.1.5,2.1l3.2,2h0v1.1c-.1,0-1.7,1.3-1.7,1.3l2,2.8,1.2-.4,2.1,1.5.2,3.6,1,.3,1.3-.9,1.2,1.3-1.5,2.9-2.5.7-.3,2-2.1,2.8h0l-1.2,1.2-.7-.9-2.5.9-1.3-.9-2.7,6-5.6-3.5-1.4,2.5-1.7.3-1.7,1.5-.5-.7-.9.6.5,4.4-1.4,1.9h-2.8c0,0-1.8-.7-1.8-.7l.8-1.7-.7-1.1-2.1.6-.5-.6.9-2.1-1.9.4v1.8c0,0-2.2-.4-2.2-.4l-3.7.7-1-1.8-2.1-.6-.7-1.4-5,.9-1.6,4.7-5.6,2.2.6,3.3,1.1-.3.9,1.1-3.4.7.4,2.3,1.5,2.1,1.7.8.5,1.9,1.6,1.8v1.7c0,0-1,.6-1,.6l-1.2,3.5.3,1.2-1.8.8h0l-2.5-1.1-1.5-1.8-.7.8-5.4-1.8-.9.9-3-1.6-2.3-5.6h-.7s-.8,1.4-.8,1.4l-2.5.7-.8-1.6h-1c0,0,0-1.1,0-1.1l-2.4.5-.3-1.3-2.7-1.9-.6-1.4h-.9c0,0-.6-2.3-.6-2.3l-3-1.1.9-1-.7-1.4-1.8-1.1h-3.3s-.1-1.5-.1-1.5l3.4-2.7-2-3.9-1.2.4-.3-2.2,2.1-3.3v-6.1c-.1,0,1-2.9,1-2.9l-2.1-.8-.5,2.4-3.9.3-.8-3.5-1.1.3-.6-1.3.5-1.3-2.6-2.6-1.6-.4-.6-3.1-2.8,1.4-1.7-4.7-1.9-1.3-2.2.4-3.1-2.6.5-.5-.7-3.2-4.1-4.5.9-.6-1-.4,1.4-1.9,3.5-1.8.7,1.5.7-.7,4.4,1.1,1.6-1.9.2-1.7,5.2,3.3Z"/>
    <path id="RO-TR" d="M267.9,371.6l2,2.6,2.8-.8-.2-.5,3.6-3.3-.9-3.1,2.3-.2,1.3.9,1-.2.9.6-1,1.4,1.2.7h0l1.1,1.5-.9,1.9,2.5,1.8-1.4,1.6.5.6-1.1,1.5-.2,1.9,5.5,1.1,1-.5,2,1-.5,1,1.5,1,.4-1.4.6.2v1.7c0,0,1.4,1,1.4,1l-1.6,3.4-.5,3.2,3.1,2.7-1.4.5-.6,1.9-.8-1.5-.2,1.4-.8-.4-1.3,2.1.7,1.8-1.9.5.5,4.9.7.8-.7.4,1,1.6-.4,4.1-1,.8,1.2,1.9-.2,1.2,1.7.6,1,9.6h0l-5.9,3.3h-3.9c0,0-5.3,1.8-5.3,1.8l-2-.6-4.6-3.9-3.9-1.3-4,1.1-2.3-.5-3.6-2.7h-3c0,0-3.4,1.7-3.4,1.7l-3.6-.4-3.7,1.9-4.5-3h0l.2-2,1.5-.5.5-1.7,1.6-.4v-1.3l1.7-.9-3.8-.2,2-1-3.3-4.1-.2-1.5-1.3-1.6.8-.6-.8-.3-.2-1.3-1.1-.3-1.3-2.7,4.1-2,3.4-.6-.6-1.5,7.2-2.6-.5-2.7-2.1-1.9-.5-2.4,2.3-2.6-1.2-.5.5-.4.2-5.3,1-.7-1-.9-1.1-3.6h0l1.5-.5.9.9,5.6-.4,1.8-1.8,4,.3,7.5-3.4Z"/>
    <path id="RO-VL" d="M184.3,295.7v.5s1.9-.4,1.9-.4l2.1-2.6,2-.3,2.7-2.2,3-.3,1.1.9,2.6-.8,5.2.2,3.4,1.7,1.8-1h4.5c0-.1,1.5-1.5,1.5-1.5h1.5s1.5-2.2,1.5-2.2l1,.3,2.3-1.3,4.4.4.8-.6,2.2,1.1h0l.2,3.1-3,4.7,1.7,6.7,1.3.8-.3,2.3-.8.7,1,.2.5,2.2-1.7,5,2.8,3.7-.2,1.4-.8.5,1,1.6-.5,1.9h-1.2c0,0,0,1,0,1h.8s.4.9.4.9l-1.3,1.2,1.5,1.4-1,3,.6.9-2,3.6h1.1c0-.1-1.1,2.6-1.1,2.6l.5,1.1-2.5,3.6h0l-.3-3.1-.9-.6-.8,1-3,1.1.4,1.4-1.5,1.2v4s-1.2.1-1.2.1l-.6,1.8-.4,4,2,2.4,1,6.7-2.4-1.7.2,1.5-2.4.2-.3,1.5-2.1.2-1.2-1-1.9.4-2.7,5h-1.6s-1-1.1-1-1.1l.2-1.2-.8.5v-.9c.1,0-1.3-.5-1.3-.5l-3.9.5h0l-.8-3.6-1.1-.6.4-2.8-4.5-1.1-.8-.8-.6,1.3-.4-2.1-.8-.4.5-1.7-.6-1.5h0l1-2.7-.4-4.9,1.2-1.5-1.1-2.7h-1c0-.1.7-6.1.7-6.1l-.8-3.1v-.9c0,0,1.5-.8,1.5-.8l1.7-4.4v-4.1c0,0,2.1-1.4,2.1-1.4l-3.1-8.4,2.6-5.2-2.9-1.7-3.4,1.8-2.2-.3-2.3-1.5h0l-1,1.3h0l-1.7-1.4h0l.6-2.6-.5-2.5-.9-.3,1.1-3.3h0l1.9.3Z"/>
    <path id="RO-VN" d="M332.7,252l6.8,1.6,4.7-4.2,4.1-1.2,4.5,1.8,2.9-1.1,3.2,1.5,3-3.8,4.7,2.1.4-2.2,2.6.9.6-.5-.5-.5.5-1.1-1.2-.2v-.9c-.1,0,2.4-1.7,2.4-1.7v-.9c0,0,1.4.8,1.4.8l.9-1.4,2,.9.9-.6-.4-1.5,1.9.6.9-.5.4,2.3,2.5,1.1,1.1-2.5h1.9s1.1.4,1.1.4l.6,2,1.2,1h0v1.1h0l-.4,1.4-2.4-1.8-.4.3.3,3.4-6.6.9-1.1,1.6v1.2c.1,0-2.7,1.6-2.7,1.6v1.7l1,3.9,2.8,5.6,1.5,6,1.5,2,.2,3,3.2,4.5,1.4-.6.9,3.1,1.1-.3.3,1.3,1.2.3-.8,1,.9.2,1.1,1.7-1.4.4-.3,1.1,1.3,1.1-.4,1.6,1.1,1.4-.8.7h1.1s.4.9.4.9h0l-3.2,3.1-.2,1.4-3.2,1.5.2.8h0l-1.7,1.3-4.9.3-.4.6-1.6-1.2-.4-2.9.7-2.6-1.9,1.8-1,.2-1.1-1-2.2,1.7-2-1.8h-.9c0,.1.9-1.7.9-1.7l-.8-.4-2,1.6-2.1-.7-3.1-5.7-1.4.5-2-.6-.7.8-3.2.3-2.2-2.3h-2.4c0,0-2.5-3-2.5-3l-1.7.3-1.6-3.5-2.3.9-1.1-1-1.6.2-4-5.4.2-1.2-2-1.4.3-2.9-2.7-1.8h0l-1-1.4.7-4.4-.6-1.9,1-1.4-.2-2.8,2.5-2.4v-4.1Z"/>
    <path id="RO-VS" d="M372.8,187.8l1.3.9,3.9-.2.7,1.1,1.1-.5v-.9s3-.7,3-.7l1.2,1.1h3c0,0,1,1.1,1,1.1v-1.4c.1,0,2.6-.2,2.6-.2l-.5-1.5,4,.7,2.4-.9-.8-1.7-.7.2-.2-3,1.1-2.1,2.5,1.6,3.9,6.1h3.6c0,.1,0,1.5,0,1.5h1.5c0,.1,4.3,3.6,4.3,3.6h.9c0-.1-1.3-2.5-1.3-2.5l.9-.5,2.1.2.7,1.2,1.1.2,5.3-.5h0v2s.5-.2.5-.2l.4,1.5,2.3,1.9-.8.3,1.2,1.2-.6.7.4,1.2h.7s-.4.8-.4.8l1.2,1v1.9c0,0,.6-.3.6-.3l.5,1.3.3-.5.9,5.3-1,2,.5.4h-1c0,.1.7,2.2.7,2.2l-1,1.1.8.6-1.1,1.8,1.1.9-.3,1.2h.9s.2,1.2.2,1.2h.6c0,0-.9.9-.9.9l1.1,1.1-.6,1.7-1,.2.4.5-.7.5.9.4h-1.3s.3.6.3.6l-1.3,1.1.4,1.2-1.2.3.8.6-.7.9,1.2.9-.3.8-1.3.8v1.1c0,0-.2-1-.2-1l-.3,1.2-1-.8.2,1-.8-.4-.6,1.7,1,.8-1.9.6v3s.7-.6.7-.6l-.3,1.4,1-.2.3.9h-.5s.7.3.7.3h-.8s.7,1.1.7,1.1l-.9.7.5,1.9-1,1.5h0l-2-.5-3,1-.8-1-1.3.7-.7-2.4-1.4.4-1.5-1.3-1.9.8v-1.8c0,0-1.4.7-1.4.7v1.5s-1,1.5-1,1.5l-2.9.6-1-1.6-2.2.2-1.3-.7-1.2.9-4.1-1.8-.3,1.2.8.9-.7.2,2.2,4.5-1.2.5v2.7s-1.6,1-1.6,1l-1.8-1.3-1.3-2.5.9-.9-.7-1.2.3-2.4-.9-1.2h-1.4c0,0,0-1.2,0-1.2h0l1.4-3.2-1.1-.8-.9-3.5-.6-4.8.9-1.6-1.5-5.5-1.5-1.9-2.1-6.7-2.9-5.6-2.8-3,2-2.2-1-1.6.9-1.8-6.3-4.9h0l1.1-.8.2-3.7-.2-2.4-1.6-1.8.6-.7Z"/>
  </g>
</svg>