<svg xmlns="http://www.w3.org/2000/svg" xmlns:amcharts="http://amcharts.com/ammap" id="Layer_1" viewBox="0 0 512 512"><g id="_x3C_defs"><amcharts:ammap bottomLatitude="41.202" leftLongitude="19.784" projection="mercator" rightLongitude="190.348" topLatitude="81.858"/></g><g><path id="RU-AD" d="M66.5 398.7v.4c.1 0-.2.1-.2.1l-.4-1-.5-.2-.2.6.4.9-.2.7.2.8-.6.9-1-.6h-.6l-.2-.2.4-.4-.2-.4h.2c0-.1.5.5.5.5l.4-.2v-.5l-.7-.4v-.9l.6-.8-.3-.2.2-.2-.3-.3v-.2l-.7-.3-.3.8-.5.2h-1.2c0-.1-1.3-.9-1.3-.9l.2-.2 1 .4h.7l1.3-.8 1.2.5h.8c0-.1.6.4.6.4l.8 1.7Z"/><path id="RU-ALT" d="M197.1 354h.3l.6 1.1h.4l.7.3.4.6.6.3 1.2 2.3h1.2c0 .1-.2.9-.2.9l-.6.4 1.1 1.1-.2 1.1v.4c.1 0 .5.1.5.1v.3l-.6-.2-.8.6.2 1.9h-.8l-.2.5h-1.6l.1.7-1.1 1.2v.3l-2.1.7-.9.7h-.7c0 .1-.2.8-.2.8h-.5v.3l1.5.4v.4l.3.2-.5.6-1.1.3-.8-1.1-2.1-.7-.4.6h-.7v.4l-.5.3h-1.1l-.8-.3-1.2.3-.2-1.1-1 .2.2-1.2h-.2c0 .1-1.1-.4-1.1-.4l-.2.5h-.5v1.1l-.8.3-.4.7-2.7-5.6-3.8-6.6.3-.6h.3l-.3-.3v-.4l.6-.3v.4l.3.3.9-.2.3-.6 2.3-.3.4-.5.6-.2.8-1h.4c0 .1.8-.3.8-.3v-.4c.1 0 .9-.2.9-.2v-.3c-.1 0 .1-.2.1-.2l.7 1.3h1c0 .1.3.5.3.5v.5h.8l-.3.5.2.5 1 .2v.3l.9.5.6-.6v-.8c.1 0 1.2-1.1 1.2-1.1h.6l.3.4.3-.3v-.4h1.3l.8-.4.5.3.6-.7 1.4-.6Z"/><path id="RU-AMU" d="M299.4 341h.9l.9-.7.9-.2 2.4.3.5 1.2h1.6l1.5 1.4h.5c0-.1.2-.5.2-.5l1.1.9h1.7l1.7 2 .3.8h.5l.8.4 1.2-.2.6.6h.5c0-.1.6 0 .6 0l.3.7h.3l.9.1.6-.4.7.3.6-.5h.7l.3.5h.5c0-.1.5-.6.5-.6l.3.3h1.1c0-.1.9.5.9.5l1.3.3.5-.4-.3-.5 1.3-.4h1.2l.4.3 2.1-.3.8.4.8.2 1.5-.2v.2l2.2-.3.5.7v.5l.7.4-.6.2-.4.7h-.6c0 .1-.2.8-.2.8l-.8.2-.3.6-2.2 1.4-.4 1.6-1.1.3-.5.6-.2.8-.4.4h.7c0 .1.9.7.9.7l.4-.2 1.1.4v1.3c.1 0 .4.7.4.7l-.4.7h1.2c0-.1-.1.2-.1.2l.4.3.3-.4.7-.2h1.4c0 .1 1-.4 1-.4v-.4l.9-.4.2-.3 1.2.6 1.5-.5.2-.3 1.2.9-.6.3.4.5v.7l-.8 1 .3 1.2-.4.5v.5l-1.5-.2-2.3-1-.2.3.2.5-.2.2.5 1-.6.4h-1.3c0 .1-1 1-1 1l-.3.7-1.8.6h-.6v1.4h-.4l-.3.5h-.5c0 .1-.4 1.2-.4 1.2l-.5.3.2.4-.4 1 .7-.2.3.6-.3.6h1.1v.6h.3c0 .1.2.6.2.6l-.3.4.4.8v.5l-.4.5.3.5v.8l-.4.6h-.7l-.6 1.2h-.5l-.6.6-.4-.2-.6.2-.9-.8-.6-1.1h-.5l-.2-.7h-.3l-.1.4-.4-.2-.4.2-.3-.4h-.7v-.6h-1.2l-.4.4-.9-.5h-.4c0 .1-.3-.2-.3-.2v-.5c-.1 0-.5-.3-.5-.3v-.8l.2-1-.8-.5v-1.9c-.1 0-1.2-1.4-1.2-1.4l.2-1.2-.4.3v-.3l.2-.3-.4-.2v-.5c.1 0-.3-.3-.3-.3v-.6c.1 0-.6-1.1-.6-1.1v-.4l.3-.5-.8-.4.4-.4h-.3v-.5l-.5-.3v-.3l-.6-.3.4-.8-.2-.2-.2.2-.4-.7-.5.2.2-.6-.4-.4h-.3c0 .1-1.1-.6-1.1-.6h-.6c0 .1-.1.5-.1.5l-.5-.5h-.8c0-.1-.5-.9-.5-.9h-.4c0 .1-.8-.6-.8-.6h-.5l-.3-.3-.2.3v-.3c-.1 0-.2.3-.2.3l-.7-.3-1.2.5h-1.2l-.3-.2-.8.4-.3-.7V357l-.5-.8h-.2l-.3-.4.3-.8v-1.1l.2-.2.3.3.6-.5-.5-.4-.2-1.1-.5.3v-.7l.7-.8v-.6l.3-.3h-.4l.2-1.4-.6-.7-.6.7h-.5c0-.1-.5-2.8-.5-2.8h-1.1l-1.1.6h-1.1v-1.4l1.3-.6-.7-.6v-.4l-.9-.2-.5-.6v-.5c.1 0-.4-.5-.4-.5l.5-.6Z"/><path id="RU-ARK" d="M62.9 294.7h.4l.3-.9.8.4.2.4 1.2.2-.4-.9.2-.7-.2-1.1-2-3v-.9l.5-1.2 1.7-1.2.8-1.3 1.4-.4.8-.5 1.3-1.6.4-1.1.5-.2 1.1.8h1.9l.2.6.7.2.3.4-1.1 1.1v.4l.4-.7.7-.4h.4l.7.9-.2.4.3.9v-.7c-.1 0 0-.7 0-.7l-.3-1.1.5-1.3.7.2.5.7 1.6.5 1.2.9.7-.2.9.6.8-.3 2.1 1.7h1.8l.2-.2-.4-.6 1.3-1.4 2.4.2.2.6.2 5.4 1.7-.3 1.1 2.5.3.4 1 .3-.5 2.3-2.1-.6-.5.9h-1.4c0-.1-.3.7-.3.7h-1.1l-.1.8-.9-.2v-.7l-.9-.1-3.7.2-.5.5-1.3-.2-1.5.7.8 1.4 2 .6 1.8 1.6v.9c.1 0-.3.6-.3.6l.5 1.1 1.6 1.1-.3.6-1.2 1 .5 1.5v2h.4v.8h.7v-.7h2l-.2-1 .4-1.6h.8l.3-.7 2.5.4-1.6 6.9 1.4.4-.8 2.7h-.5c0-.1-.9.2-.9.2l-.7.5-.4.4v.8h-.1l-1.1-.2-.2-.8-1.2-.3h-.9l-.3 1.3h-.8l-.2-.2.2-.4h-.5l-.4-.5-.4.4h-.9l-.8-.4.2-.8-1.5-.2-.2 1.8-2.9-.3-.2-.5h-.4l-.8.3-.8 1.2h-.4c0 .1-.6-.2-.6-.2l-.4.5-.9-.9-.9.7-.9-.7-.2.2-.6-.5-.2.5-.5-.5-.6.4v.4c.1 0-.6.6-.6.6h-.6l-.8-.7-.3.2-.5-.2-.4.5-1 .2-1.1-.5-.3.4h-.8c0-.1-.2.1-.2.1l-1.4-.3-.3-.6-.5-.2v-.8l-.3.4-.4-.2.2-.7-.2-.4-.5-.3v-.3l-.6-1.2V313l.4-.5-.2-.4.3-1.2-.3-.2-.3-1.1h-.5l-.3-.4.4-1v-1.1l-.4-.5h-1.1l-1.3-.8-.9-1.3v-.7l.3-.7h-.5l.2-.5-1.2-2h1.3l.8-1-.2-1.1.2.3 1.5.2.2.5h.5c0 .1.5 0 .5 0l.3-.6h.6l.5-.7-.5-1.4.5-.6-.4-.2h.4l-.7-.3.2-.5h-.5c0 .1-.2.6-.2.6l-.4-.2-.4.3-.7-.5-1.2-2h-.5l-.1-.8h.2l-.4-.7h.5c0 .1.6-.3.6-.3v-1.3l.6-.1 1.1.5.9.5.2.7.9.6h.9v.4l-.9.3.3.6-.3.6v-.4h.4v-.4l1-.2-.2-.5 2.6 1.1.8.7Zm38.9-54.1.4.2.5 1.1h.4l.2.5-.2 1-.4.4.4.7h-.3c0 .1-.3-.8-.3-.8l-.4-.3-.3-1.2-.3-.2h-.6c0 .1-.4-.6-.4-.6l.2-.5.8-.3.3.2.2-.3Zm7.2-19.4.6.6h1.2l.1.5h.4v.6l.2-.3 1.1.2.6.8v.5l-2.2.6h1.4l.4.2-.3.3-2.3.5h1.1c0 .1.9-.2.9-.2h.2c0 .1-.4 1.8-.4 1.8l-.9-.2v.2c.1 0-.4.2-.4.2l-.7-.4.3.2-.3.2 1.1.2.2.9h-.6l-.2-.3v.9c.1 0 0-.1 0-.1v.8l-.5-.4-1-.2 1.1.3.3.8-1.3.2.8.3.2-.2v.7l-.4.7v.2h-.1.5c0 .1.4 1 .4 1l-.7 1h.3l-.3.8.3.5h-.4c0-.1 0 0 0 0l-.4.2h.9l.2.2.4 2.5 1.7 4.1 2.3 2.9 1.3.6.5.7-.6.9v.2l-1.8-.8.5.5h.6l.4.6-1.2-.3-.8-.7.2.4h-.2l-.3-.9h.3l-.2-.2-.5.3-.4-.4v.2l.3.3h-.4l.4.3-.2.2h.6l-.3-.3h.3l.3.3-.2.2.5.4-.3-.2-.4.2-.9-.8h-.2v.2l-.6-.3.6.8v.2h-.4l-.2-.4h-.3l-.9-1.2-.2.3.4.7h-.1c0 .1-.5-.4-.5-.4l-.2.2.3.5-.4.5-.6-.7h-.5c0-.1-.3-.6-.3-.6v-.3l-.4-.3h-.3l.1.2-.2.2-.4-.4v.4h-.9c0-.1-.3-.5-.3-.5v.2l-1-.5v.3l-.6-.7h1c0-.1.3-.6.3-.6l-.7-1 .5-.3.7.6-.4-.9h.5l.3-.5v-.4l-.3.5-.4-.3v.5l-.9-.7-.5-1-.2-1.1.5-.8h-.4l-.5 1.2-.7-.6.3.6-.2.3-.6-.6-.6-2.1v.9l-.2.3h-.3c0-.1.2.7.2.7l-.4-.5-.2-.8-.3.7.3.5h-1.2l-1-1.1-.4-2 .4-2.5.8-.9.3.5h.4c0 .1.4-.3.4-.3l.5.7v-.9l.4-.1-.3-.5.4-.2-.3-.4.6.3v-.5h.2v-.3l-.4-.5.5.4-.2-.9.3-.3h-.3v-.2l.5-.2.3-.8h.9l-.9-.2-.7.4.4-.6h-.4c0-.1.6-.4.6-.4l-.2-.2v.2l-.8-.1-.5-.6.5-1.3 1.1-.6 1.6.4-1.2-.8v-.6c.1 0 .8.1.8.1v-.2l-.6-.8.8-1.4h.4l1-.6.2.2.2-.2v.3h.5l.5-.4.3.3-.2-.4v-.4c.1 0 1.5-.9 1.5-.9l.9.6Zm16.3-29.2.3-.7h.7c0-.1.3-.7.3-.7v-.4l-.7-.1.3-.6v-.6c-.1 0 .4-.4.4-.4v.2l1.3-.2.2-.3.4.4.3-.2v.3h1.4v.9l.4.2.2-.6.2.2.3-.8.2.5.6.3 2-1.6h.6l.5.4.7-.7h.3c0 .1.2-.4.2-.4l.8.5-.3-.5.2-.6h.3v-.4l.3-.2h.4l.1.4.3-.2.7-1.2 1.6.7.2-.2-.3-.9-.5-.7.2-.7.3-.4h.5l1.7-1.9.7-.2.3-.6.4.2 1-.8h1.1c0-.1.6 0 .6 0l.3.4h.8l.2.6h.2c0-.1.6.6.6.6l-.2.6.2.4h.3v.8l.4.3-.6.9-.2 1 .3.3-.9 1.7-.4.2-.3.9-.4.3.3.6-1.1.2-2.6 2-1.1.4-.7.7h-.5c0-.1-.5.5-.5.5l-1.6.6-1 .8v.4h-1l-1.6.9h-.7l-.8.6-.3.6v-.5l-.3-.6v.5l-1 1h-.3c0 .1-.5-.1-.5-.1l-.7 1-.7.2-.8.8h-.2v-.3h-.7l-.6 1.5v-.6h-.2v.9l-.8.9v-1.2h-.3l-.5 1.4-1.1.9v1.3h-.4v-.8h-.3v.4h-.4v.6l-.5.3v-.3l-.2.3h-.6l.7.4h1.1l.2.3-.4.8-1-.2.2.8h.3v.6l-.9.3h-.9c0-.1-.6-.9-.6-.9l.3.8h.5c0 .1.3.6.3.6v.7l-.2.4h-.5l-.8-1.2-.4-.2v-.5l-.3.1.6 1.2h-.4l-.2 1.7.2.4-.9-.3-.3-.5-1.3-.8v.4c-.1 0 .6.4.6.4l.5 1.1v1.1l.2.5h-.3c0 .1.3.3.3.3h-.5l.3.4h-.6l.2.1v.4l-.4-.4h-.4l.2.5h.6v.4l-.5-.2v.5l-.2-.5-.5-.3.5 1.6h-.3v.2l-1.3-.7-.7-1.6-.2.2.4 1h-1l1 .2 1 1.7-.4.2.4.2v1l-.6.6-.5-1.1-2.1-.4-.3-.4h-.3l.5.5 1.6.4.6.6.3 1.6-.7.3v.3l-.6-.2-.6-.3-.5-1-1.1-.6 1.1.8v.3l.4.4-.5.2h.5l1 1v.4l-1 1.6-.3-.6h-.3l.3.5-.2.8-1.8-.3-.2-1.1-.9-1.5.5 1.2v1.1l-.6-.4h-1c0 .1-.5-.5-.5-.5l-.9-.5-2.1 1.3-.5-.5 1.4-1.2v-.2l-.5.4-.3-.3.5-.8 1-.8 1.8-.7h-1c0 .1-.3.4-.3.4l-.2-.2.2-.3-.5.3h-.4c0-.1-1 .9-1 .9l-.3-.2-.2.2-1.1-1.2v-.7l.1.3h.6l1-1.4 1.3-.6.5.2v.4h.6l-.5-.3v-.5l-.8-.3 1.3-1.7 1.6.4v.3h.4l.8.7h.7-.6l-.5-.4.5-.7-.5.4-.7-.3v-.5c-.1 0-1.4-.4-1.4-.4v-.2c-.1 0 .3-.5.3-.5v.4l1.1-.3.2.3h.2c0-.1-.6-1-.6-1h-.8l.2-.7 1.6-.2.8-.4h-.4v-.6h-.6l-.4.1v-.3l-.5-.2v-.9c.1 0 .8-.6.8-.6l.4.4 1.4-.7.6.7 1-.3-.2-.3-.8.2-.2-.5h-.3l.2-.6-1.5.2-.5-.3.4-.7 2.1-1-.6-.2-.5.4v-.3c.1 0 0 0 0 0l.4-.4-.2-.4-1.4.7.2-1-.4-.3h-.2c0 .1.4-1 .4-1l.4-.3v.3l.4-.1v.4l.4-.3.4 1.4.5-.3v-.6l.9-1.3-.6-.3v-.3l.6-.8h1.2v.2l.6.4h.9v-.4h-.4v-.7l-.4-.4v-.5l1.9-1.2v-.5l-.6.2-.3-.2.3-.4h.5l1.2-.7v-.4h-.3l.5-.4v-.3l.4-.5h.8l.2-.3h.5v-.6h.4l.6.2.8-.4v-.4h1v-.3l-.7-.5 1.3-.9h.9c0 .1-1.1 1.5-1.1 1.5l.2.3.7-.2Zm-2.3-57.4h.1c0 .1-.9 1.1-.9 1.1h-.6l-.2.4h-.3l-.6-.8-1.1-.6 1.1-1.1.9-.4 1 .3.5 1.2Zm-25.7-.9h.2l-.3 1.2.5.6v.6l-2.5-.2-.4-.2v-.4l-.4.3-.6-.2.7-.7.5.4.7-1.3.7-.5v-.5zm-2.7-1.3H94v1.2l-.5.3-1.2-1.9.9-.9.7-.2.5.2.3.5-.2 1.1Zm15.1-3.2.4.2-.2.8-1.1.8-.4-.6h.4v-.3h.4c0-.1-.3-.6-.3-.6l.4-.3.4-.3zm4.6-.6.6.8-.3 1.5.3.4-.4.4v1.9c-.1 0-1 .3-1 .3l-.7-.3h-.8c0 .1-1.1-.4-1.1-.4l.9-1.6-.6-2.1 1.2-.6.9.4.2-.7h.9Zm-10.7-.5v.7l1.6 1.9-.4.8-.3-.4-.3.2-.2 1-.2.2-.5-.3h-1.7l-1-.7-.5-1.1h1.1c0-.1.2-.6.2-.6h.5l.2-.7-.4-.3.5-.6.3-.2.4.3.3-.3.3.2Zm3.9.5-.3-.2.9-.6-.3.7h-.3Zm10-2.3 2.6 1.1 1.1 1.6v.2h-1.1l-.8-.3v.4h-.6l-.9.7-.2.7h.5l.6.4-.2.4v.5l-1.3-.2.3.7v.5c-.1 0-2.2-1.2-2.2-1.2l-.2-3.4-.2-.9-.6-.8 1.1-.4.6.2v-.2zm-10.5 1.8-.2-.2v-.8l.5-1 .3.2.3.8-.2.6-.7.3Zm-.5-2.1.5.3-.4.5-.2.6-1.3-.6.2-1.3-.4-.8.2-.6 1.1.3-.4.8.7.2zm10.4-2.2h.5v.1l-.6 1.5-.5-.2-.4.3-.8-.7v-.5l.2-.3 1.3-.5.2.2Zm-13.2 0v1.2l.5.7-.4.8-.7-.9.3-1.2-.8-.5.3-.2v-.4l.7.5Zm9.1-2.6 1.2.8.3.8-.3.9-1.5.6-.3-.6-.8.5-1.4-.5.5-1h-.9l.1-.4.8-.2.6-.6 1.6-.2Zm-26-1.4.8.7 1-.4.6.3.3.9-.4.3.4.2v.7l.6.4-.3.6h-.6l-.2-.5h-.8l-.4-.4v-.9l-.3.1v-.8l-.7-.2-.3.3.2.4h-.5l.3.9-.8-.2.4 1.8-.8-.3-.6.7v.7c-.1 0-.9-.3-.9-.3l-.2.3v.7c.1 0-.5-.1-.5-.1v.7l-.3.3-.8-.2v-1.8c.1 0-.5.3-.5.3l-.4-.2-.4.7-.4-.7-1.6-.8.4-.4h.7l.8-.6 1.7-.3.7-.4.3-.6 1.3-.4.3-.6.6-.3-.2-.9h.4l.3-.3.7.3Zm42.6.2.2 2.3v.8c-.1 0-.5.6-.5.6v.6c.1 0-.5.5-.5.5h-.6c0 .1-.2 1-.2 1l.2.7-1 .4h.4c0 .1-.4 1.1-.4 1.1l-.5.4-.9-.3-.6-.3-.7-1-2 1.2-.5-1.3-.5-.6.4-.6-.3-1.6.3-.2v-1.4l.6-.9v-.9c-.1 0 1.2-.7 1.2-.7l.7.3-.9.5.8-.2.4.4.7-.4.2.2.2-.3 1.2-.5.4.2.7-.9h1.3l.3.7Zm-20.1-.3 1.5.8.5.5-1.7.6h-.7c0-.1-.5.4-.5.4l-.8-.5v-.8l-1.2.1-.7-.5v-.4l.3-.5.5-.3.4.2.9-.3.2.5h.3c0-.1.2-.6.2-.6h.6l.3.6Zm10.5-.5.4.9-.2 1.2h-.6l-.7.7-1.8-.9v-.4l.4-.2.5-1 1.6-.5h.4Zm-23.3.3-.9.4v.3H95v.2h.3l-1 .8.7.5.6-.8.2.3.2-.6h.3c0-.1.2.3.2.3h.3v-.4l.4-.3.7.7v.3l.9.5v.2l-1.2 1.3-.7.2-.5 1.3-.6.3-1.7.2-.6.5-.9.2.3 1.7-.5.6h-.8l-1.4-.5-.3.2v.7l-.7.3v.7l1.1-.1.3.8-.4.4.6.3v.4c.1 0-.7.5-.7.5l-1-.8-.2.4.2.8-.5.8-.3-.7h-.4l-.4.3v.5l-.8.3v-.5c-.1 0 .4-1.4.4-1.4l.9-.5h-1l.5-.5v-.3l-1.8.3.2.7h-.4l-.6.4-.5-.5.2-.6-.8-1.1v-.6l1.4-1.1.3.3v.9c-.1 0 .6-.2.6-.2v.5c.1 0 .6-.2.6-.2l.2.2h.8l-.5-.6h.7c0-.1-1.1-.4-1.1-.4l-.4-.7 1.4-.3.7.3-.4-.6v-.3c.1 0-.9-.3-.9-.3l-1.1.3-.3-.2 1.9-1.5.3.2.5-.4h.5l.2.7h.3l.2.4h.4v-.7h1v-1.1l.6-.2-.4-.6.9-.2.3-.4v-.4h-.2v-.5l-1.1.4.4-.9H91c0 .1-.2.6-.2.6l-.3-.4.6-.6h-.5l1.9-1.4.5-1.1 1.2-.7.7.4-1.5.8h.2l.3.6.4-.5 1-.4.8-1 .4 1.8Zm21.7-4.2 1.3 1.3-.4 1.2-.3.2h-.6l-1.4-2.1.4-.3v.2h.2v-.7l.6.2Zm-10 0h.4l.3.3h.4l.6 1.1 1.6-.5 1.9 1.2.7 1.5 2 1 .6.9-.7 1.3-1.4.5-.5-1.1-.6-.4-.2-.6-1.4-.5h-.5c0 .1-.5-.2-.5-.2l-.4-.5.3-.3-1.2-.8-.2-.7h-.3l-.1.3h-.6l-.6-.5.2-.3-.2-.3-.6.2-.4-.2v-.7l.5-.6v-.8h.4l.3.5Zm4.5-.2h1l.7.8h.8l.9.3.8 1.4.5.4h.4l.5.5-1.1.8v.4l-.3.4-.9-.3-.6-.5v-.8l-.9-.7-.7-1.5-.8-.4-1.3-1.1.2-.3.3.4h.5Zm13.8-.5 1.5.4-.3.4.2.7-.2.6-1.3 1.9-.9.3-1.1-.3-1.2-1.3 1.2-1.2 2.2-1.4Zm-30.6-1.4.7.6v.7c.1 0-.6.6-.6.6v.6l-.8.2-.2.5-.2-.3.3-.7-.4-1.3.5-.2v-.3l.7-.2Zm40.7-.1 1.3.4.9 1.4.3 1.6-.7.7h.3l.3 1v.8c-.1 0-1.3 2-1.3 2l-1.5 1.2h-.8l-1.2.6v-.3l-1.7.9h-.4v-.4l-.8-1.4-.7-.7v-.5l2.4-2.9h1.9l.4-.3.2-.7-.2-1.1.2-1.3zm-19.6-.6.4.3v.4h-.2l-.2.3-.4 1.3h-1.3l-1.1-.8.2-.4 1.1-.7 1.6-.4Zm7.8-1.1v.3c.1 0-.4.4-.4.4l-1.7-1 .6-.3h.7l.9.6Zm-11.5-2.5.6.5h.5c0-.1.9.7.9.7h.3c0-.1.3.7.3.7h.4l.1-.5.8.8-2 .6-2.2 2h-.5c0-.1.2-.8.2-.8l-.4-.3-1 .5-1-.3v-1.1l-.4-.2.3-.6-.2-.3.6-.4v.4l.3.2h.5l.6.5h.4l.2.3.9.2-.7-1 .2-.7-.4-1.1.8-.2Zm6.9-.3h.7l-.3.5.6 1.3-.3.5-.8.3-1-.4-.3-.6v-.6c.1 0 .8-.7.8-.7l.7-.3Zm-3.9-2.8.5.2v.6l.2.4 1.3.4.6.8v.7l-.7.6h-1.4l-.7-.5-.5-.7h-.7c0 .1-1-.2-1-.2l.2-1.6.3-.2.7.2.5-.2.2-.4h.5Zm16.5-3 1.1.4.5 1-.3.8-.8.7-2-.4-.3-.3v-.8c-.1 0-.9-.1-.9-.1l-.4-.3.6-.7 1.2-.2-.3.5 1.5-.5Zm-12.3-3 .6.2.3.5v1.4l-.4.5-1.2.3h-.9l-1.1.6-.5-.5v-.7l.3-.4-.4-.9.9-.5h.6l1.2-.5h.7Z"/><path id="RU-AST" d="m83.6 381.4-.3.8 1.3.5.5.6v.4l.3.1-.6.3.5 1 .6.4v-.6l.9.3h1.1l1 1.4h.7l.4 1.5.8 1.4-.6.4-.6-.4-.3.5 2.2 1.5-.6 1.3h-.5v.6l-.6-.9.4 1.2-.7-.6v.3h-.3v.3l-.3-.1-.4.8-.5-.2-.6.4-.5-.6h-.3v.3l.4.4h-.3l.2.4h-.2l-.3-.2.2-.4h-2l1.1-2v-.2l-.9.2-.3-.7-.8-.3.6-.5h.6v-.5l.7-.5v-.4c.1 0-1.1-1.1-1.1-1.1l-1-1.8.8-.8h-.5c0-.1-.8.8-.8.8l-1.9-1.9v-.7h-.5l-.7-.6-.9-.8.5-.8h.6c0 .1-.4-.3-.4-.3h.9l1.4-1.4.9.2.7.7v.2Z"/><path id="RU-BA" d="m106.6 343.8.6-1 1 .8.7-.2.5.3 1.3-.6.9 1.2 1.2-.5 1.1 1.4 1-.4.6-.8.4 1.1.4-.2.7.3.5-.2.5.2.7-.4 1.1.6.3-.4h.9c0-.1.1 0 .1 0l-.5.5v.5l-.2.6.6.4v.7l1 .2-.4.7h-.9v.6l-.4.4-.6-.2-.3.2-.3.5.4.2.2.4-.7.5-1-1.2-.8 1.3v-1.7c.1 0-1.3-.3-1.3-.3l-.8.5-.4.8.4.5-.3.6 1.6 1.3.8 1 1.3-.7.9.3.2-.4.9-.3h.5l1.3-1.5.2.3h.5v.6l-.7 1.2v.3c.1 0 0 .4 0 .4l.4.3v.8h-1.4l-.3.8-.7.4-.4 1.7.2.7-.2.9.5 1.1-.4.5-.2 1.5.3 1 .2.7-.6.3v.6c-.1 0 .1.3.1.3l-.6 1.5-.9.3-.5-.4-1-.3-.5.8h-.5v.3l-.5.3-.9-.9h-.2l.1.6-.4.2v-.4c.1 0-.4-.8-.4-.8l.3-.4-.3-.7-.5-.6-.3.4-.3-.3.6-.8-.3-.8.2-.3h-.3l-.7-.4-.8 1.4-.8-.2-.2-.9-.7-.3.5-.3-.2-.6h-.7l-.6-1.8h-.8l-.3-.6-.9-.2-.5-.4-1.9-2.9v-2c.1 0 .7-1.3.7-1.3v-.5l.2-.5-1.6-1.1v-.3c.1 0 1.1-.3 1.1-.3l1.1-.9.3-1 .6-.5v-.4l-1.2-1.1.9-.8.3-.6.6-.3v-.3Z"/><path id="RU-BEL" d="m50.6 370.5.4.3h.9c0-.1.4-.5.4-.5v-.3c-.1 0 .1-.3.1-.3l.2.3h.4c0-.1 1 .2 1 .2l2.4-1.4h1.1l.7-.2 1 .7.6.3-.2.7.6.2.4-.3.3.2v.6h-.3v.4l.4.7.9.4h-.3c0 .1.1.4.1.4l-.2.3.3 1.4.4.6-.4.8-.2-.3-.6.3-.8-.9v.2l-.8-.1-.2-.5h-.4v.5l-.6.2-.3-.6-.8-.5v-.6l-.5-.2v-.4l-1.8.5-.6.5-.6-.5-.4.2-.7-.8h-.7l-.3.5h-.3l-.6-1.1v-.3h.3l-.5-1.3v-.3Z"/><path id="RU-BRY" d="m45.1 356 .9.2.3.6h.8l.8.8v1.2l1.5.4.3.4v.7c-.1 0 .4.3.4.3v.3l-.7.4v-.2c-.1 0-.8.5-.8.5l.2.5h.1c0-.1.4 0 .4 0v.4h-.2l.2.6-.6.4v.3l.3.2-.4.7h-.5v.6h-.6l-.4.3v.4l.3.1-.3.3h-.2v-.2l-.5-.4v-.7c.1 0-.7-1.1-.7-1.1l-.9.3v-.3l-.9-.1-.8.6-1.5-.5v1l-.9.6h-.4v-.3h-.4v-.5h-.3l-.3-1.5.3-.3-.4-.7.3-.4-1-1.3.4-.3v-.5l.7-.2.9.7h.9l.6-.5.2-.5.7-.2v-.4h.5v-.8l.8-.7v-.5h.4l-.2-.3.2-.5.2.2.3-.4Z"/><path id="RU-BU" d="m238.7 361.3.5-.9h.7c0-.1.7-.6.7-.6v-.5h.7l.5-.4.5 1.7 2.8 2.1.9 1.3.9.7.3-.2 1.3.2v.5l.8.9.8.4.3 1.7.3.2h1l.4.3v1.2l1.2-.6h1c0-.1.4-1.3.4-1.3l2-1.1 3.4-3.9 3.1-1.8 1.6-1.6 1.2-3.6.3-2.6h-.2l.4-.7.2-2.8-.3-.3v-1.5l.7-1.7h.8l.2-.3-.7-.3-.4-1-.8-.6.4-.7v-.5l2.3-.9h.6c0 .1.5-.3.5-.3l.4-1 1.1.2.6.5.5-.2 1.2.3 1.2-1.7.8 1.1h.8l.4.3h.6c0 .1.5-.5.5-.5h.2v.8l.6.5 1.1.4 1-.2 1.1.7.7-.8h.9c0 .1 1.1-.2 1.1-.2l.7-1.5v-.6h1.6l.5-.6h.9l.4.5-1.4 1.1-.5.4v.8l-.4.5.7.4.3.6-.2.6.4 1-.2.8.3.6.2 2.8 1.3.2.6.9.6.4.4 1.1-.4 1.3-.3.4-3.4.7-.3.6-1.8 1.3-.7.3-.4.7-1.5.5-.4.5v1l.3.7.7.3v.5c-.1 0 .4.2.4.2v.6l-.8 1.3-.9.2-.6.7h-1.3c0 .1-.6.6-.6.6h-1l-.6.5-1-.2-1.3 1.6-1.7.7-1.1 1.4h-.7l-.2-.4h-1.1l-1 .8-1.1.4-.6-.4h-1l-.3-.2-.7 1.4.5.4-.8.4v1.2c-.1 0-.6.4-.6.4l1.2.9h.4l-.1.4h-.4c0-.1-1.4.6-1.4.6l-.2.6-.5.4v.4l-1.8-.2-.5-.9-.6-.5h-.6c0-.1-.9.1-.9.1l-.7-.5-1.9-.3-.8.4-2.1.4-1 .7-.8-.3-.4.3-1-.3-.3-.5h-.9l-1.8-1.4.2-.6-.4-.5v-.6c.1 0-.2-1.4-.2-1.4l.2-.3-.4-.3-1.5-.5-.6.2-.4-.4-2.1-1h-1.5l-.8-.7-1.2-.3-1-.8v-.4h-.6v-.3h-.4v-.8l.8-1.2v-1c-.1 0 .2-.2.2-.2l.6.3v-.3Z"/><path id="RU-CE" d="m80.6 401.2.6.3h.9v.5l.6-.3v-.2l.4-.4.6.8-.7 1.5.6 2-.3.3-.2-.2h-.4c0 .1-.3.4-.3.4l.3.4-.5.2v.4l-.8.5-.6-.3h-.7l-.5-.6h-.2l.7-2.5-.3-.2v-.4l-.8-.4v-.4l.5-.2v-.8h.4v.3h.5l.4-.7Z"/><path id="RU-CHE" d="M120.3 345v-.4l.4-.1v-.5l.3-.2 1.1.3.3.5 2-.2 1.1.3h1.1c0-.1-.2-.6-.2-.6l.4-.3 1.5.3.9.9.6 1.2h.4l-.1.3.6.6v.8l-.2.3h.3l-.4.6h-.9l.1.6-.5.2.6 1-.2.5h-.7c0-.1.4 1 .4 1v.3c-.1 0 .3.4.3.4l.9-.4.3.2v.2h.4l1.4-.3.2.9-.5.3v.5l.7.5v.3h-.6l-.1.5h-.9l-.8 1-.3-.2v-.3l.1-.2h-.2c0-.1-1-.1-1-.1l-.3.6h-.3v-.4l-.2.2-.2-.2-.4.4-.6-.7-.4.3v.6l-.7-.2v.3h.3l.2.4-.5.8h-.4v.1l1.3.3.4-.2.3.3-.4.3-.6-.2-.3.6v.4l1.1.4.4-.2.4.4.9.2v.5l-.3.3-.4-.3-.7.2-.5-.4-.3.2-.4-.2-.6.3v.3c.1 0-.9.8-.9.8v.5l.3.2v.5h.4l.3.8-1 .8h-.6l-.8.8h-.5l-.4-.2.7-1.1-.2-.7h-.6l-1.4-.3-.6.2v.7l-.6-.3-.2-.5h-.4l-.3-1 .2-1.5.4-.5-.5-1.1.2-.9-.2-.7.4-1.7.7-.4.3-.8h1.2l.1-.7-.4-.3.2-.4v-.3c-.1 0 .6-1.2.6-1.2v-.7h-.5l-.2-.3-1.3 1.5h-.5l-.9.2-.2.4-.9-.3-1.3.7-.8-1-1.6-1.3.3-.6-.4-.5.4-.8.8-.5 1.5.3v1.7c-.1 0 .6-1.3.6-1.3l1 1.2.7-.5-.2-.4-.4-.2.3-.5.3-.2.6.2.4-.4v-.4l.9-.1.4-.7-1-.2v-.7l-.6-.4.3-.6v-.5l.4-.5v-.2c-.1 0-1 .1-1 .1Z"/><path id="RU-CHU" d="m441.2 254.8-.3-.2.4-.9 1.3-.9 1.1.7.2-.2v.3c.1 0 1.3.2 1.3.2l.6.4v.8h-.4l.1.9-.4.9h-.8l-1.6-.7-.7-.5v-.3l-.8-.4Zm57.2 39.4h.2c0 .1.7 0 .7 0l-.2-.2h-.4l-.2.2Zm-25.2-48.1 1.4-.8h.7v.2h-.3.4l1.5-1.1 1.3.5.3.3-.3.2 1-.2 1.4-.6 2.5-.6 1-.7.4-1-.2-.5h-.3l-1-1.1h-.4c0-.1.2-.1.2-.1l-.2-.2h.2c0-.1-.3-.4-.3-.4h-.4c0 .1-.3-.3-.3-.3h.3l-1.8-.7h-.6l-.7.4h-.6l-.3-.5-.3.3v-.2l-.5.3h.2c0 .1-.6 0-.6 0l-.7.9-.2-.2-.6.5-.9 1.3-.8.5v.4l-.8.9.4 1.7v.9Zm32.9 37.1v-.2h.2l-.5-.7-1-.5-2.4-2.5v-.5l-.8-.7v-.3c-.1 0 0-.3 0-.3l-.3-.3-.6-.2-.4.3-4.6-1.3-.2.3-2.7.2.3.2.8-.2v.6h.5l.3 2.3-.9.7 1.1.5.5.5v.6l-.6.2.3.2h-.1c0 .1-.5 0-.5 0h.3v-1l-.3-.2h-.4v.5l-.6.5-.3-.4v-1c.1 0-1.1-.6-1.1-.6l-.3-.4.5-.7h.2l-.2-1.2h.2l-.5-.6-.2-.7v-1.4c.1 0 .3-.3.3-.3l.2.5-.2-1-1.3-1.4v-.9l-1.7-1.1v-.3l-.7-.2-4.6-3.5-2.4-2.1-1.2-1.5-1.4-.9-.4-.5h-.2c0-.1-.3.2-.3.2h-.5c0-.1-2.4-2.7-2.4-2.7l-1.8-1.4-1.2-.5-.4.2v-.2l-1.2-.4-1.1-.8-1.7-.4-1.4-.8-.9-1.2-3 .3-2.8-.3-1 .6-.2-.5-.7-.6-.7.2-.4.6-.9-.6-.2-.5-.7.3-3.1-1-2.9-.6.4.4-.2 1.4.2 1.3-1 .5-.3.9h1.1l.3.2.3 1.6.4.7v1c-.1 0 .3.2.3.2v.7c.1 0-.5.8-.5.8l-1.5 1.2-1.8.4-.7-.4v-1.7c-.1 0-.4-.5-.4-.5h-.6l-1.2-.9-1.3-.2-.2-.9.2-1.8-.9-.7.3-.6-.8-.6-2.5 2.4-.8-.3h-1.3l-1.5-.5h-3.4l-1.6-1.6-.5.5-.6.2-1.1-.3-1.3.6-.9-.3v.2c-.1 0-.6-.3-.6-.3v.4l-.2 1h-.3c0 .1.3.6.3.6v.4c-.1 0 .3.2.3.2v.6l.9 1.4h-.6c0 .1-.2 1.4-.2 1.4l.7.5.3.6-.7.7v.5l.4.3v.7c-.1 0-.5.2-.5.2v1.8c-.1 0-.4.4-.4.4l-2.9-1.1-2 1.2-2.2-.2-.5.3-.2.5-.5-.2h-.5c0 .1-.3-.2-.3-.2l-1.1 1h-1.1l-.5.3-.3 1-.4.6.6.8-.6.5h-.8l-.2 1.1.4 1.3v1.1l.6.2.6.8 1.4.5v1.2l.5.9-.4.3-.8 2-.3.2.4.8h.4l.1.4.7.4h.8l-.8 1.6v1.7l.4.5 3 1.2.3.8 1.2 1.4 2 .4 1.1.6.7 1.3.6.4 1.4.2.6.6h1.3l-.2-.8h.5l.6-.9.8.4 1.2-.3 1.2.9h.4l.5.8.2-.2v-.8l.5-.2.5.6h1.1l.3.9v.4c-.1 0 0 .1 0 .1l.6-.5.9.2.5.5h.9l1-.8.5.8.8.6v.7h.7v.3h.3l.7-.4h.7l.3.8h.6c0 .1.2 1.3.2 1.3l.4.5 1 .2v.4l.4.3.3 1.3-.2.4-1.7 1.2-.4.5v.5l-1.1.8v.3l.9.7h1c0 .1 1.4 1.1 1.4 1.1l.3.6.8.3v.8l.3.3.3 1.2.2.2.4-.3 1.4.5 1.2-.9v.5l.4-.2v.3l1.4-.5.8-.7.5.4 1.1-.3.9.5.9-.6 1.7-.6 1.1.6v.5c.1 0-.3.6-.3.6l.3.2v.8h.6l.6 1.6.9-.2 2.5-1.9 2-.8 1-.9 1-.5 1.8-.3 1.5.2 2.8 1.2.2.4.2-.3v-.9c-.1 0 .1-.2.1-.2h.4l.3-.6.4-.2v-1.4c-.1 0-.8-.2-.8-.2l-.2-.6v-.5h.6v-.3l-1.1-1-.6-1-.7-4-1.3-2.8.3.7-.6.7.2.2h-.4l-.6-.2-1.1-1.2-.2-1 .3-1.3-1.3.2-.9 1.2-.2-.6-.4-.3-.6.5h-.5l.8-.7-.9-1.4h-.4l-.2.7-.6.5h-.6c0-.1-.5.2-.5.2l-.5-.2 1.2-.4.3.2h.2c0-.1.8-1.4.8-1.4l1.2.7v.3l.9-.4.6.2.4.5.8-.4-.2-.7h.5l.2.5-.4.2h.4c0 .1.5.9.5.9l1.9.4 1.1-.3v.2c.1 0-.7.4-.7.4v.2c.1 0 1.8-1.3 1.8-1.3l1.2-.3.9-1.3 1.4-1 .4-.7.2-1.2.6-.9-.2-.3.2-.4-1-.8-.4-1.1.3-1.9.9.4.5-.3v-.3l-.4-.8.7.3.3-.8v1.4l.6.2.3-.3.4-1.2.4-.2v1.9l-.6.3v.4l-.2.3h-.3v.6l.8 1.2h.4c0-.1.2.1.2.1l-.3 1.6.8.3h2.4l1-1h.4l2.9 1.1.2.2v1.2c.1 0 .5.7.5.7v.7c-.1 0-.5.3-.5.3l1.2.8v.3h.3l-.2.4h1.5l1.7 1.1h.4c0-.1-.1 0-.1 0l.7.6.2.8 1 .6 1-.8v-1.1c-.1 0 .3.5.3.5v.7c-.1 0 .2-.1.2-.1l-.6.5v.5l.7.4.8-.4v-.9c.1 0 0-.3 0-.3l-.5.2.2-.3h.6c0-.1.1.6.1.6l.4.2 1.1-.2-.6-1-1.1-.5-.6.3.4-.6h-.7l.6-.2.3-.5-.5-.5-.8.6.7-.8.6.2.7-.6h.4l.9-1.1-.4-1.6.4-1.2-.8.5-.3-.3h.4l-.1-.8-.8-.2v-.4h-.4 1c0-.1.6.6.6.6v.3h.5l1 .3-.5.3 1.9-.4.7.5.2-.8-.7-.5-.7-1.3.6.4.3.6.9.6h.8c0 .1.2-.3.2-.3v-1.4l1.4-1.3.9.2.2-.5-.3-.6h-1Zm-7.5 10.4v.2c.1 0 1.7-.5 1.7-.5l-1-.6z"/><path id="RU-CU" d="m82.3 345.7 1.1-.7h.6c0 .1 1.4-.9 1.4-.9h.5l.4.8 1.2.3.3.9 1.2.6v.3l-1.1.6.3.4-1.3 1.3v.5c.1 0 .5-.2.5-.2v-.3h.2l.3.8-.4.5.6.2-.9.2v.5h-.3v.3l-.8-.4-.2.3.2.3-.5.2-.3.3-.5-.2-.4.4-1.2-.7-.2-.6-.4-.4v-.6l-.2.5-.2-.3-.2-.7 1.1-1.2v-.3l-1.3-.8.4-.9v-1.1Z"/><path id="RU-DA" d="m81 397 2 .2 1.1.7.4-.2-.3.6.2.6h-.3c0 .1.8.6.8.6l.2.8h.4l.9 1.6-.4 1.1.2.3.5-1.6h.4l-.8 2 .4.3-.4 1.1.7.6v1c.1 0 1.1 1.3 1.1 1.3l.9 1.7.4.2-.3.9-1.1.5-.5 1.1h-1l-.8-.4-.5-1h-.3c0 .1-.8-1.1-.8-1.1l-.6.2-.5-.6-1.3-.3-1-.7v-.3h.4v-.6l.7-.5v-.4l.6-.2-.3-.4.3-.3h.4c0-.1.2 0 .2 0l.3-.3-.6-2 .7-1.5-.6-.8-.4.4v.2l-.6.3v-.5h-.9l-.6-.3v-.6l-1.1-.1.8-.6v-.4l-.5-.1v-.4l.9-.7v-.8l.3-.4Z"/><path id="RU-AL" d="M203.1 363h.5v.4l.9.4.8-.6.7.7h.7v1.1l-.4.5-.7.2-.4 1.1.6.4-.6.9 1.5 1.1.6-.2.3-.8.3-.2.6.7-.2.5.3 1.1 2.4 2.8-.5.5-.7-.5v.5c.1 0-.5.6-.5.6l.8.6v1.3c.1 0 .4.1.4.1l-.2.4-.9.5-.4-.3v.5l-.7.3-.3-.4v.5l-.8-.3-.2.2h-1l-.4.5.3.3v.2h-.4l-.2.4-1.8.4-.3-.6-1-.4-.4-1.1-.5-.2.5-1h-.6l-.6.7-.6.3-.2.6-.2-.3h-.5v-.2l-1.9-.2-.5-1.3-.4-.2v-.6l-1.5-.9h-.5c0 .1-.3-.2-.3-.2v-1l-.5-.6 1.1-.3.5-.6-.4-.2v-.4l-1.4-.4v-.3h.4l.2-.7h.7c0-.1.9-.8.9-.8l2.2-.7v-.3l1.1-1.2v-.8h1.5l.2-.5h.8l-.2-1.9.8-.6.6.2Z"/><path id="RU-IN" d="M78 406.1v-.4c.1 0 .5.3.5.3l.4-.4-.2-.6-.5-.5h-.3l-.1-1.4.6.2v-.4c.1 0 .4.2.4.2l.9.4v.4l.3.2-.7 2.5-.6-.2-.3.5-.3-.5Z"/><path id="RU-IRK" d="m265.3 297.1.6 1.1-.4.8-.2-.3h-1.2l-.5.2-.3.6h-.5l-.4-.5-.3.4-1.1-.6h-.1c0 .1.2 1 .2 1l-.3 1.5-.4.5.6 1.1-.5.4-.3-.2h-.2v1.6l-.7.2v.8l1 1.2v.3c-.1 0 .8.5.8.5l-.2.7-1.1 1.5.2.4-.2 1.1-1.4 1.3.2.8-.4.3h-.6l-1.1 1.2-1 .4.3.9-1.2.9v1.2l-.4.2.4.6-.3.7 1 1.4.8.5h1v2.1l.3.5h-1.3l-.9 1 .8 1.3h.4l-.1.7.5.5v.7l-1.6 1.3v.2l.3.5-1.2.7h-.4v-.6l-.3-.3-.9.2v-.9l-1.3-.3-.9-1.4v-.3h.4v-.2l-1.2-.1-.4.6h-.4l-.6.2-.2.7.5 1.7-1.2 1.3-1.1.3-.7 1.2-1.2.7.2.4-.5.9h-.8l.2.5-.2.6.5 1h-.4l-.2.4-.9-.7v-1l-.3-.4-.7-.3v-.5c-.1 0 .1-.5.1-.5l-.3-.3H240l-.6 1.6h-.9l-.2.3h-.7l-.2-.3h-2.5l-1.7 4 .8.4-.4.5v.4h.9v1.1c-.1 0 .3.2.3.2v.8l-1.1.1v.9h-.3v.5l-.4.3-.5-.3v.4h-.5v.7c-.1 0-.7.5-.7.5v.7l.2.2v.9l.2.5-.7.3.2.5-.3 1 .3.6-.5 1.6-1.3-.2-.4.7h-.6l-.3.5v.5l1.1.8 1.3 1.9.7.2v-.4h.5l.7.7h.5l.9 1.1h1.2c0 .1.2.7.2.7h.6v.6l1.9-.2.3.2-.2.3 1 .6.5-.9h.7c0-.1.7-.6.7-.6v-.5h.7l.5-.4.5 1.7 2.8 2.1.9 1.3.9.7.3-.2 1.3.2v.5l.8.9.8.4.3 1.7.3.2h1l.4.3v1.2l1.2-.6h1c0-.1.4-1.3.4-1.3l2-1.1 3.4-3.9 3.1-1.8 1.6-1.6 1.2-3.6.3-2.6h-.2l.4-.7.2-2.8-.3-.3v-1.5l.7-1.7h.8l.2-.3-.7-.3-.4-1-.8-.6.4-.7v-.5l2.3-.9h.6c0 .1.5-.3.5-.3l.4-1 1.1.2.6.5.5-.2 1.2.3 1.2-1.7.8 1.1h.8l.4.3h.6c0 .1.5-.5.5-.5h.2v.8l.6.5 1.1.4 1-.2 1.1.7.7-.8h.9c0 .1 1.1-.2 1.1-.2l.7-1.5v-.6h1.6l.5-.6h.9l.4.5-1.4 1.1 1.1.6.5-.2.5.4.9.2.6-.2v-.2h.3l.5-.7.4.6h.4l.4-1.2-.3-.5.6-.6-.5-.3-.6.5-.2-.2v-.4h-.1v-.6l-.3-.4.2-.5-.5-.3.2-.3-.3-.5.9-.4v-1.3l.2-.2.4.2v-.6c-.1 0-.4-.2-.4-.2v-.2c.1 0 1.1-.5 1.1-.5l1.2.3 1.3 1.1 1.3-.3v-1.5l-1-.6.2-1.2-.2-.6.2-.4-.4-1.2.4-.6-.3-.7-1.1-.4-.4-.7h-.4c0 .1 0 0 0 0l-.4 1.1-.3.2-.3-.7-.4.3h-.9l-.5-.6v-1.4l-.2-.3.5-.4.2-.7-.6.2-.3-.8-.7-.4v-.3l-.7-.5h-.6l-.8-.5h-.5l-.3-.5-1 .5-.5-.2-.8 1.6h-.8c0 .1-.5.9-.5.9v.6l-.8.5-.2.7h-.4l-.6.8-.7.4v.5c-.1 0-.5.3-.5.3v.9l-.5.5-1.2.3-.4.6-.3-.5-.2.2v1.1h-.2c0 .1-.2.1-.2.1v-.6c-.1 0 0-1.1 0-1.1l.7-.5v-.5l-1 .2v-.8c.1 0-.1-.4-.1-.4l-.8 1.1-.8.2-.3.3-.4-.3-.7.4-.4-.3h-1.1l-.4.9-.9.5h-1.5l-.1-.4h-.5v-.4l-.4-.8-.6-.3.3-.5h-.2c0-.1.6-1 .6-1v-.8l.9-1.8-.2-.5.2-.8.6-1v-.4l.6-.7-.2-.5h.6l.2-.5v-.3c-.1 0 .5-1 .5-1v-.9c.1 0-.2-.2-.2-.2h-.5l-.5-.7h-.7l-.1-.4v-1.4c.1 0-.7-1.7-.7-1.7l.5-1 .6-.3.2-1.6-.3-.8h-.9l-.3.3-.4-.6v-.5l1.1-1.8-.6-.8-.2-2.6h-.4c0 .1-.6-1.1-.6-1.1h-.6l-.8-.3-1.2.3v-.3c-.1 0 .4-1.3.4-1.3h1.2l.3-.3-.2-.4v-.6c.1 0-.7-.6-.7-.6l-.2-1.6-.5.3-.4-.2-.3.2.5.2Z"/><path id="RU-IVA" d="m65.6 338.9 1.2-.3.3.2.4-.6 1.3-.2v-1.3l1 .3.5.5h.7l.3-.4h.6l.1-.2h.3v1.1l-.3.2.3.3.8-.2.2-1.1v1.1l.8-.6h.5c0 .1.2.5.2.5v.2l.4.3-.7.3v.2l-.4.4v.5l.5.3-.5 1-1.9.4-.2.8h.3v1h-.7l-.2.4h-.5l-.5-.3-.7.6-.4-.2v-.7l-1.2.4-.9-.4-.4.3-.7-.3v-.4h-.4l-1.2.5-.3.5-.6-.3-.3-.8H63l.2-.8-.7-.2-.6.3v-.4l.5-.5-.2-.3.3-.3 1.2-.8h.5c0 .1.2-.2.2-.2l-.3-.2h1Z"/><path id="RU-KB" d="m72.7 402.1 1.5-.5.3.6.6-.2.6.2.6-.8.9.4.4-.5-.3.9v.3l.3.3v.9h-1l-.2.7-.5-.4-.8 1.3h-.7c0 .1-.7 0-.7 0l-.9-.9h-.6c0 .1-.4 0-.4 0V403c.1 0 .8-.4.8-.4l.2-.4Z"/><path id="RU-KC" d="M69.7 399.3h.5l.3.4 1 .2.3.3.5-.5.3.5-1 .5v.4c-.1 0 .4.3.4.3v-.3h.3l.4.9-.2.4-.7.4v1.4h-.1l-.3-.3-1.1.2-.5-.2h-.7l-.7-.5h-1l-1-.7v-.8l.3-.7h.3v-.7l1.3.2.5.4.7-1-.3-.7.5-.4Z"/><path id="RU-KDA" d="m68.6 398.3.7-.6v-.4l-.6-.3-.4-.9h-1c0-.1-.1-.9-.1-.9l-.6-.6v-.5h.9l.4-.4-.3-.9-.6-.8v-.6l-.6.2-.3-.2H65l-.3-1-.6-.3.2-.7-.3-.2-1.6-.3-.6.3-.3.6h-.6l-.2.2.3-.9-.7-.2h-.5l-.2.2v.3l.5.1v.2l-.2.1h-.5v-.4l-.9.5-.8-.2.6 1.2h.7c0 .1 1.3 1.2 1.3 1.2v.3l-1-.5-.4.9v-.4h-.4l-.4 1.2-.6.4-.2 1.2-.9.2-1.3-.5.2.3H55v.3h.6l-1.2.4.4.4 1.5.5.7 1.2.8.2.2-.3 1.2 1.3 1.7.6 3.4 3.6h.2l.3-.7 1.8.2v-.8l.3-.7h.3v-.7l1.3.2.5.4.7-1-.3-.7.5-.4-1.1-1Zm-2.1.9-.3-.2-.3-.9-.5-.2-.2.6.4.9-.2.7.2.8-.2.5-.4.4-1-.6h-.6l-.2-.2.4-.4-.2-.4h.3c0-.1.4.5.4.5l.4-.2v-.5l-.7-.4v-.9l.6-.8-.3-.2.2-.2-.3-.3v-.2l-.7-.3-.3.8-.5.2h-1.2c0-.1-1.3-.9-1.3-.9l.2-.2.9.4h.7l1.3-.8 1.2.5h.8c0-.1.6.4.6.4l.8 2.2Z"/><path id="RU-KEM" d="m207.5 341.2.2 1.2-.5.5.6 1h.5l.2.3h.4l.8 2.2h.3v.5l-1.4.7-1 1.2-.5.9.2 1.3.6.9-.5.8v1.2c-.1 0-.6.3-.6.3l.6.5.8-.6.3.5h.6c0-.1.1.6.1.6l-.4.5v.6h.3l.2.9h-.6c0 .1-.6 1.1-.6 1.1v1c-.1 0 .2-.1.2-.1l.4.6v.2l-.1.1.3.4-.3.2v.3l.8 1-.6.4.3.5-1.3 1.1v.4l-.8.4v-1.1h-.8l-.7-.7-.8.6-.9-.4v-.4h-.6v-.3l-.4-.1v-.4c-.1 0 0-1.1 0-1.1l-1.1-1.1.6-.4.2-.8h-1.2c0-.1-1.2-2.4-1.2-2.4l-.6-.3-.4-.6-.7-.4h-.4l-.6-.9h-.3l-.3-.9.2-.3-.3-.3.4-.6-.6-.9v-2h-.7l.4-.3v-.6l-.6-.9v-1.4h-.3l1-.6 2.4-.4-.3-.3.6-.2v-.4c.1 0 1.2-.6 1.2-.6l.2-.7.6.4.5-.3h.6v.4l1-.2v-.4h.7v.4l.6-.4v.6c.1 0 2.5-1.5 2.5-1.5h.4c0 .1.2-.3.2-.3Z"/><path id="RU-KLU" d="m50.5 349.8.5.2.7-.4.3.3 1.3.3.4-.7.5-.2v.4h.5v.2l.6-.2.2.3v.2c-.1 0 .3 1.4.3 1.4l-.4 1.5-.3-.3h-.3l.1.3-.3.2v.3h.4v.7h-1l-.7.4H53l-.3.3h-.5l.3.1-.3.2h.6l-.3.4v.4h-.2l-.4.5v.4l.4.4-.2.2-.6.6h-.6l-.2.5v-.3h-.2l-.2.6-.8.4-.3-.4-1.4-.4v-1.2l-.9-.9h-.8l-.3-.5-.9-.2-.2-.3h.3l.5-1.2-.3-.2v-.8c.1 0 1.1-.3 1.1-.3l.7.4h.7l.2-.6-.3-.4.6.2.8-.5-.2-.6.7-.7.2.2.6-1.4Z"/><path id="RU-KHA" d="m332.4 347.4-.3-1.2.8-1.8v-.9l.6-.4.4.2.2-.4.3.4h.2V342l.5-.5-1.9-2.5.3-.4.8.2.7-1.6.9-.8-.9-1 .2-.3-.7-.5v-.3h-.2v-.5l.5-.1.9.8h.4l-.2-.8.4-.4-.2-1.4h.7l.4-.6-.2-.4.3-1h.7c0-.1.1-.5.1-.5l-.3-.3.2-.5h.5l.4-.6 2.6-.3 1.3.6.8-.3.4.4.9.2 1.5-2.2h.7l.6.5 2.1.5 2-1.4v-.6l.5-.5 1.3-.2v.6h.4l.2-.3-.3-.7.3-.5-.3-1.2.6-1.5-.2-.4.6-1.4-.9-1.1.4-1v-.3c-.1 0 1-.7 1-.7l.2-.9v.2c.1 0 .9-.2.9-.2l.3-.7h.4c0 .1 1-.3 1-.3l.7-.9.5-1.5v-.5c-.1 0 .7-.1.7-.1l.3-.5-.2-.3.3-1.9.9-.2.3-.6 1 .3v.4l.6-.1 1.2 2.1h.4l.2.5.9-.4.2.8.5.3.7-.5.7.2v.3h.4l.3-1.2.4-.2.3.7.6-.2.4 1.1.2-.5.6-.2-.2 1 .4.4 1.4-.7.2-.9.4-.4h.7l.8.6.4-.3h.3c0 .1-.1.5-.1.5h.2l.5-.4v-.5c.1 0 .3.4.3.4l1.2.6 1.3 2v.7l.3.4.2 1.9-.3.9-.6.2v1.1c.1 0-.3.3-.3.3l-.8-.4-.6.7-.6.3v.4l-.4.3.3.4h-.2c0 .1.9 1.1.9 1.1l1.2-.4h.3c0 .1.3.7.3.7h.6v.7l.3.6.7-.3v.4l.4.1v1.3c.1 0-.1 1.3-.1 1.3l-.7.3h-.3l-1.2-.5-.4.4v1.1h-.3l-.5.4-.6-.6.4-.9h-.4v.2l-.3-.3-2.2.3-3.2-.2-1.2.5-.7-.2-2.4 1-1.1 1-1.4 2.3-1.6 1-.8.8-.8 2.5-.5.5-.9.2-.6 1.2h-.5c0 .1-.3.8-.3.8l-.9.3-.5.7h-.3l-.1.6-.9.4v.9l-.2-.4h-.3l-.5 1.3-.5.2v.5l.4.1v.2h-.6v.3h-.4l-.6 1.2-.9.5v.5c-.1 0-.4-.1-.4-.1l-1.6 1.7h-.1c0-.1-.9.4-.9.4l-.8 1.4-1.8 1.1-1 1.1.2.6 1.2.4.3.5 3.1-.5.2.4-.2.3v.5h-.2l.2 1.4-.4 1.1.4.8.4-.5.5.2.2-.2.3-.9h-.4l-.2-.5.3-.4.6-.5h1l-.8 1.1v-.3h-.3l-.2.4.9.5h.8l-.7.6-.3.8h-.5l-.4.4.4.3 1.9-.2 1-.8.2-.9.6-.5v1l-.9 1.2v.2h.6l.6-.9.3-1.4v-.6l-.3.2.2-.9-.2-.2h.3l1.6.6 1.3-.6.2.5 1.2.7.4.5-.2.3.2.4.9 1 .9.5v.4h.2l.6.6h.7c0 .1-.2.4-.2.4l.3.4-.2.3h-.4v.4l-1.4-.6.3.4h.3l.4.8h.5l-.2.4.3 1-.5.5v.4l.8.9h.4v.3l-.6.3v.9c.1 0-.5.3-.5.3l-.3.8-.7.3v.6l-.4.1.4.2v.2l-.6.2v1.7l-.4.3-.3.9.2 2.6.5.3-.6.4-.3.5.4.4v1l-.6 1.6v.5c.1 0-.3.6-.3.6l.3-.2.2.2-.6 1v1.3l-2.7 2.8-.8 1.7-.4-.3h-1l.2-.6-.2-.4.7-.4v-.3l-.6-.7.4-.6h-.5l-.3-1h-.5c0-.1-.4.4-.4.4h-.6c0 .1-.6.5-.6.5h-.9l-.4.4.2.5.6.3-.5.5 1.8.5-.2.3h.3v.5l-.5.3v.3h-.7l-.8.7-1.1-.4-.3.9.2.3-1.2.9h-.8c0 .1-.7-.3-.7-.3l-.4.3-.6-.5v-.2l-.4-.1-.6.3.2-.5-.3-.5-.8-.2-.3.3h-.9l-.2.8-.4-.2v1.2l-1.3.3v-1.3c.1 0 .6-.6.6-.6v-.9c-.1 0 .2-.4.2-.4l.8-.3.6-1-.7-1.2.5-1.2-.4-.4h-.8l.7-.5.7.2.3-.2v-.5h-.9l-.5-.6-.6.4-2.2-.6-.5-.5-.3-1.3-1.1-.2v-.4c-.1 0-.9.2-.9.2l-.3-.6-.7-.3h-.3c0 .1-.2.9-.2.9l-.6-.2-.8.5h-.3c0-.1.4-.7.4-.7v-.8l-.3-.5.4-.5v-.5l-.4-.8.3-.4-.2-.5h-.3v-.5H333c0-.1.3-.7.3-.7l-.3-.6h-.7c0 .1.4-.8.4-.8l-.2-.4.5-.3.4-1h.5c0-.1.3-.6.3-.6h.4v-1.5h.6l1.8-.6.3-.7 1-.9h1.3c0-.1.6-.5.6-.5l-.5-1 .2-.2-.2-.5.2-.3 2.3 1 1.5.2v-.5l.3-.5-.3-1.2.7-1v-.7l-.3-.5.6-.3-1.2-.9-.2.3-1.5.5-1.2-.6-.2.3-.9.4v.4l-1 .5h-1.4c0-.1-.7 0-.7 0l-.3.4-.4-.3v-.3c.1 0-1.1.1-1.1.1l.4-.7-.3-.7v-1.3c-.1 0-1.2-.4-1.2-.4l-.4.2-.9-.6h-.7c0-.1.4-.5.4-.5l.2-.8.5-.6 1.1-.3.4-1.6 2.2-1.4.3-.6.8-.2.2-.7h.6c0-.1.4-.9.4-.9l.6-.2-.7-.4v-.5l-.5-.7-2.2.3v-.2l-1.5.2-.8-.2Z"/><path id="RU-KR" d="m49.1 293.2-.4.2.7.9-.6.6.5.2v.5h.5v.4h.6v.3h.2l.6-.2v-.5l.4.2.7 1.2.2-.2.6.6-.2.4h.2v.6l1 .2.2 1.1-.8 1.1h-1.3l1.2 2-.2.5h.5l-.4.7v.7l1 1.3 1.3.8h1.1l.3.5v1.1l-.4 1 .3.3h.5l.3 1.2.3.2-.3 1.2.2.4-.4.5v.9l-1.2.2-.9-.7-.6.5-.6-.2-.7 1-2.3 1.3-.2-.2-.4.4-.3-.2v-.7l-.6.3-1-.5-.9.6v.6l-.9-.7h-1.3l-.9.5.5.6.3-.2.4.2-.3.8-1-.3-.9 1.4h-.5l-.5.8-8.8-3.3h-.5l-.9-.9.5-.9h.4l2-2.8 1-1.7 1.5-1.6 1.2-3-.9-1.3v-.7c-.1 0-1.5-1.2-1.5-1.2l-.8-.3-1.5-1.9.8-.5.9-1.9-.2-1-1.3-1v-1.1c-.1 0 .3-.6.3-.6l-.3-.5v-.3h-.9l-.3-.7v-1.2l.8-.3-.2-.2v-.5c.1 0-.6-.3-.6-.3l.5-.6v-.9l.3-.7-.4-.4.8-.4.3.2v-.5l-.6-2.9-.7-1.1-.8-2.2 1.1-.3 4.6-.2.6.2v.8l.5.2.3.9h1.3v-.5l.5.2-.5-.4h.6l.1-.8h.9l1 .4h-.9c0 .1 1 0 1 0l.4.5h.4c0 .1.2-.1.2-.1v.3c-.1 0 .3.2.3.2l-.7.2.5.4-2 .6 1.7-.4v.2h.6l.4.3v.2l.6-.2v.5h.4l1.4 1.4v.8l.4-.1v.4h-.2.3c0 .1-.6.2-.6.2v.6h.4l-.3.2.4.5-.5.7v.4h-.4v.3h-.4l.2.3h-.5l.6.3v.6l.4.3v.8h.4v.5l-.3.3h.3l.5.9-.2.4Z"/><path id="RU-KK" d="m207.6 348.8.9.7.3 1.1h.3l.2.5h.6l.5-.3.3.3 1.6-.8v.4l.7.3v.7l.7-.2v.4l.7.2-.2.8.9.7.9 2.2-.4 1.5.4 1.2.8.3.3.8-.5.6-.9.4v1c.1 0-1.9 2-1.9 2l-.7 1.4-1.2.2v.5l-.3.6.3.7-.5.2-.8.8-.5-.3-.6.2h-.2v-.5l-1.2.4-.3.2-.3.8-.6.2-1.5-1.1.6-.9-.6-.4.4-1.1.6-.2.4-.5.8-.4v-.4l1.3-1.1-.3-.5.6-.4-.9-1v-.3l.4-.2-.3-.4h.2v-.3l-.4-.6h-.3c0 .1.1-.9.1-.9l.6-1h.6c0-.1-.2-1-.2-1h-.4v-.7l.4-.5v-.7c-.1 0-.7.1-.7.1l-.3-.5-.8.6-.6-.5.5-.3v-1.2c.1 0 .6-.8.6-.8l-.6-.9-.2-1.3.5-.9Z"/><path id="RU-KL" d="M75.2 386.5v-.9l1-.5v-.3l.3-.1.7.2.3-.4v-.2l-.5-.3.3-.6.5.2v.6l.5-.2h.4c0 .1.2-.3.2-.3l1.1.2.7.6h.5v.7l1.9 1.9.8-.9h.5c0 .1-.8.9-.8.9l1 1.8 1.2 1.1v.4c-.1 0-.8.5-.8.5v.5h-.6l-.6.5.8.3.3.7.8-.2v.2l-1 2h2l-.2.3.3.2-.2 1.4-.4-.5.2.5-.3.6h-.2l-.4.6-.2-.2-.2.2-.2-.2-.4.2-1.1-.7-2-.2-.7-.8-1.7-.9-1.3-.4-1.1-1.6-1.6-.4-1.6-1-.4.6-.7.4h-.7v-.5h-.3l-.3.8-1.2-.3v-.8h.5l.3-.2v-.4l.7-.2-.4-.9 1.8 1 .8-.2 1.3 1h.6l.4-1 .2.5.3-.2v-1l-.4-.1.8-1.1.5-.3.3-2.4-.5-.4v.4c-.1 0-.6.2-.6.2l-.3.5-.5-.8Z"/><path id="RU-KHM" d="m129.2 286.6.7.7.5 1.4 1.2.8-.4 2.7.4.9-.3.7-.7.5v.4l1 .6.5-.3 1.1.5.2.8.5.5 1.2-.7h1.1l3.2-1 1.8-.2.7.5 1.2-.4.4.6-.3 1.1v.4c.1 0 1.1.5 1.1.5l.2.5 1.3-.2.2.4 2.1-1.6 1.3.7.3-1-.3-.6.5-.2h.6l.4.5h1.1l.1.3 1.4-.2 1.4 1.3v.4l-.4.6.8 2.1h1.2l.6.8.4 2.4 1.2-.3.4-.3h1.6l.7-.8h.5l.2.6.9 1h1.9l1.1 1 3.7-.6 1.3.6.3.4 1.2-.4.9.4.3.8.7.7 1.9 1.3 2.2-.6 1.1.2h2l.4-1.5.8-.2.8-.9h.3l.1-.7.9-.3 1.1 1.4v.5l.5.3h.3c0-.1.4.5.4.5h.5l.2-.4.4-.3.8.5h1.2v.7l.8.3v.5l.4.3.7.2.5-.5v.3l.6-.4h.4c0 .1 1.7 2.3 1.7 2.3v1.2l.5 1 2.1.8.7.7.8.2v.5c.1 0-.8.5-.8.5v.8l-4.1 2.5h-.9l-1.3-1h-.9l-2 1.6-.3.4v.6l-.8.5-.9-.7h-2.3l-.1-.6-.7-.3-1.9.7-2.1.2h-.4c0-.1-.2-.9-.2-.9h-.4c0-.1-.7.3-.7.3l-.6-.5-.4.3h-1.2c0-.1-.3.1-.3.1l-2.8-.5-.3 1.2.2.6-.6.5v1.4l-.4.9v.6c.1 0-.1 2.4-.1 2.4l-1.5.3-.4.6h-.3l-.3.8-.6.6.2 1.4-1.6 1.7-.4-.3h-2.6l-.5-.6h-.4c0 .1-.4-.2-.4-.2l-1 .3-.7-.2-.4-.2.4-.5-.6-.5.2-.6h-.4c0-.1-.5.2-.5.2l-.6-.5v-.6l-1.1-1.3h-.6l-2-1.9-.6.3-.3-.3-.9.2-1.3-.8-1.3.5v-.4l-.4-.2-.9.4.5.8-1.6 1.3h-.8l-.6 1.7-1.9.5-.4.6-1.4.7-.4-.3-.6.5v1.3l-1.5.5h-.8c0-.1-.2 0-.2 0v-.5c-.1 0-.7-.2-.7-.2l-.6-.6-.8-2.5h-.4l-.1-.6-2.8-.4-.7-.5-.4-3.4-.2-.4-1.3-.5v-.9l-.9-1.9-.3-1.1.2-1.1-.5-.8-4.5-3-2.2-.4-1 .2-.3-1.1-1.3-.6-.2.2v-2l.4-.3v-.8l-.6-.6-.2-1.1.3-.4v-.5l-.7-1.1.3-.4v-.7c-.1 0 .4-2.5.4-2.5v-1.6l1.3-1.8-.2-.5h-.5l-.1-2-.4-.4.7-1.2-.3-.4v-.5l1.2-.9v-.6l.4-.4.8.3.4.9.5-.3v-.4l.9-.5v-.5c.1 0 .9-.6.9-.6v-.9l.7-1.4 1.3-1.1Z"/><path id="RU-KGD" d="m9.3 349.5.3.5 1.6.6v.3l1.6-.2.2.5.6.4v.6l-.3.3-.2.7.3 1.2-3.9.2-5-.6.6-.7h.3c0 .1.9-.5.9-.5h-.6c0-.1-.3 0-.3 0l-.3-.4v.4h-.3l.3-1.6h1.5l1.3-1.6-.3.6-1 1 1.6.3.5-.3-.2-1.3h.2l.4-.4Z"/><path id="RU-KO" d="m90.5 283.7 7.7-4.9v-1h.3l1.5-1.2 11.2.7h16l.5-.4h.5l.4-.6 3.3-2.3v-1l.6-1.1.7-.7h.5c0-.1.6.2.6.2v-.4l.7-.9-.2-.9 2-1.3v-1.1l.5-.5h.9c0-.1.8.2.8.2l.5-.3-.4 1v2.5c.1 0 .7.5.7.5l1.5-.3.2.4-.3.7.5.5.2.6-.2.2-.7-.2-.5.6.7.3.2.8-1.1.7-2.1 2.2.2 1.3-.7.6-.8.2v.5c-.1 0-.9.6-.9.6h-.8l-.6.8-1.2.6-.5 1 .2.7h-.3c0-.1-.5.3-.5.3l-.7 1.2.2.4-.4.8-2.1 1.1-1.3 1.1-.8 1.4v.9l-.7.6v.5c-.1 0-1 .5-1 .5v.4l-.6.3-.4-.9-.8-.3-.5.4v.6l-1.2.9v.5l.3.4-.7 1.2.4.4v2h.6l.2.5-1.2 1.8v1.6l-.6 2.5v.7c.1 0-.1.4-.1.4l.7 1.1v.5l-.3.4.2 1.1.5.6v.8l-.4.3v.6c-.1 0 0 1.4 0 1.4l-.3.6v1l-.7.4-.2.5-.7.2h-4.8l-.4.1-1.1-.4-.5.7h-.4l-.5 1.2-1.1-.3-.4.9h-1.3l-.3.6h-.3l-.4.8-3.3-.5-.2.8-1.4-.2.3-.9-1.7-.2-.3.7h-.9l-.4.7-1.3-.2-.4 1.7 1.1.4v.3l.6.2v.7l-.2.4-.6-.5h-.4c0 .1-1.3 2.3-1.3 2.3h-.3l-.4-.7h-.6c0-.1-.7 1-.7 1l-2.5.6v.5c.1 0-.5.2-.5.2v2.4l-.7.2h-.2c0-.1.1-1 .1-1h-.7v-.4l-.5-.2h-.3v-.9l-1.7-.3v-2.6c-.1 0 .7-1 .7-1l-.6-.7v-.8l-.5-1.6v-.8c.1 0 .5-.4.5-.4l.7-.5.9-.3h.5c0 .1.8-2.5.8-2.5l-1.4-.4 1.6-6.9-2.5-.4-.3.7h-.8l-.4 1.6.2 1h-1.9l-.1.7h-.6v-.8h-.5l.1-2-.5-1.5 1.2-1 .3-.6-1.6-1.1-.5-1.1.4-.6v-.9c-.1 0-1.9-1.6-1.9-1.6l-2-.6-.8-1.4 1.5-.7 1.3.2.5-.5 3.7-.2h.8v.8l.9.2v-.8h1.2l.3-.9h1.4c0 .1.5-.8.5-.8l2.1.6.5-2.3-1-.3-.3-.4-1.1-2.5-1.7.3-.2-5.4-.2-.6Z"/><path id="RU-KAM" d="m431.9 329.1-.3 1-1.3.3-1.7 1.3-.3.7-.2-.6.5-.2 1-2.4 1.1-.5.9-.7.4 1.1Zm-4.4-34.3.5.5.3.8-.8.6v.4c.1 0-.1.2-.1.2l-1 .3.3 1.7-.5.9.8 1v.5l-.5.7-.5.2.2 1.3-.6.6h-.5l-.4 1.1v.4l1.1.8-.2.3.7.3-.4.6.3.7v1.1c-.1 0-1.7.7-1.7.7v.3l.8.4v.4c.1 0-.6.6-.6.6l.6 1v.4l1 .5-.4-.4.6-.3.3.4-.3.3.5.5.2-.6h.3v-.2h.3v-.4l-1.1-.6.6-1.6h-.2l-.1-1 .9-.7-.5-.5h-.3l.4-.2v-.5c.1 0 1.6-.5 1.6-.5l.4.2.4-.5 1.2-.3h.5l.5.9 1.4.4-.4.3v.2c.1 0-1.6-.2-1.6-.2l-.3.5-.8.5-.3 3.7-.6.2-.4 1.1v.3l.5-.1.3.6-.2.7-.8.6-.5.8.8.5-.2.4h.2c0 .1-.4 0-.4 0l-.9.7v-.3h-.4l-.2.3h-.6l-.6.9h-.6l-1.7 1.1v1.3l-1.4 1-1.8 2.5-1.1.4-.2.9-1.6 1.5-.4.9v.7l-.6.8-1.3 1.7-2.2 2-.9.5-.9-.2-.7 1.3h-.8l-.5-.4-.5.3-.2.4.5.7v1.1l-.7 1.8-.5-.2-.2.8-1.2 1.1.3-.4h-.2c0 .1-.4.8-.4.8l-1 3.8-.3 3.8 1.7 12 .9 3.2.3 4.3.5.4v.6c.1 0-.2 1-.2 1l2.3-2.2.4-.7 1-.6 1.1-1.6.4-1.3.5-.4-.2-.2.2-.3h-.5l.4-.6-.4-.6h.5c0 .1.2-.2.2-.2l-.4-.4.5-.3v-.4l-.6.1v-.6l.5-.2.3.8 1.2-1.1 2.1-.8-.2.3.9.5v-.8l-.3.3v-.2c-.1 0 0-.3 0-.3l-.6-.9h.2c0-.1.4 0 .4 0l-.3-.9v-.9l.8-1.9 2.1-1.7.9-.2.5.6h1.2c0-.1 1.3-1.4 1.3-1.4v-.5l-1-1.9v-1.8l.9-2.8 1.6-.9-.6-.7.9-.5.6.3.2-.5h.3v.4l-1 .6-.3.6.5.8.6.3.5-.7.5-.3-.3-1.3v-1.6l-1 .3-.4-.5.2-1.4-.2-1.8.9-.6.7-1.3-.3-.5h-.5l-1-.7h-.4v1.1l-.5.5.3-.6-.9-.4-.4-1.4.4-1.4 1-1.9 1.7-1.5-.4-.9h.4c0-.1.6.2.6.2l-.5-1 .8-.2v-.7l-.4-.8.7-.5v-.8c-.1 0 .3-.8.3-.8l.6.2.3-.7.7-.3.6.2-.5.5.4.2-.2-.3.6-.5v-.5l.3-.2.8.6.4 1.3.7-.5.4-.7-.2-.2v-.3l-.3.1v-.2h.5l3.1-2.3h.3v.3l-.4.3.2 1-.3.4-.3 1.8h.6l1.3-1.7.3-.7.7-.5v-.5l.4.4 1.6-.8v-.4l.3.2 1.5-.6 3.1.5.9.7.7 1.9 1 .8.3-.2.3-1.6.5-.3v-.6l2.1-1.2v-.3l.7-.3.3-.7h.6l.2-.3.2.3.5-.7-.6-.8.8.5.6-.2v-.2l-.2.2v-.4h-.3l.4-.2-.3-.5.9.3.5-.6-.5-.3.7.4h.2c0-.1-.6-1-.6-1l.4-.2.5.5h.2l.6-.9h.4l.2-1.2h.3l.5.6.7-.8-.2-.3h1.2l-.6-1.6h-.6v-.8l-.3-.2.5-.6v-.5c-.1 0-1.2-.6-1.2-.6l-1.7.6-.9.6-.9-.5-1.1.3-.5-.4-.8.7-1.3.5v-.3l-.4.2v-.5l-1.2.9-1.4-.5-.4.3-.2-.2-.3-1.2-.3-.3v-.8l-.9-.3-.3-.6-1.4-1h-1c0-.1-1-.9-1-.9v-.3l1.2-.8v-.5l.4-.5 1.7-1.2.2-.4-.3-1.3-.4-.3v-.4l-1-.2-.4-.5-.2-1.2h-.6c0-.1-.3-1-.3-1h-.7l-.7.4h-.3v-.4h-.6v-.6l-.8-.6-.5-.8-1 .7h-.9l-.5-.5-.9-.2-.6.5h-.2c0-.1.1-.5.1-.5l-.3-.9h-1.1l-.5-.7-.5.2v.8l-.2.2-.5-.8h-.4l-1.2-.9-1.2.3-.8-.4-.6.9h-.5l.2.8v.8Zm9 55.6v-1.1l-.9-.2-.7.4.7.3.6 1.4.6.7h.4v.2l.5.6v-.9l-1.1-1.3Z"/><path id="RU-KRS" d="m49.3 364 .7-.3.4.2v-.3l.3.1v-.2l.6.9 1.9-.5.6.7 2.1.7.6.7.3-.4.5.3.4-.3.2.5.5.2 1-.2.4.3v.6l.5.2-.3.3-.2-.2-.8.2.5.8v.9l-1-.7-.7.3h-1.1l-2.4 1.3-1-.4h-.4c0 .1-.2-.1-.2-.1l-.3.3v.3c.1 0-.3.4-.3.4h-.9c0 .1-.4-.2-.4-.2v-.2l-.2-.1h-.4c0 .1-.2-.6-.2-.6l-.9.2h-.4v-.3h-1.1l.2-.5-.4-.2.3-.6-.7-.6 1-.3v-.5l-.3-.2.3-.3h-.3v-.5l.4-.3h.6v-.6h.5l.4-.7Z"/><path id="RU-KOS" d="m85.2 325.9-.2 1.4h.6v.8l.2.4h.3c0 .1 0 0 0 0l.5 1.5h-.9l.1.6-1 .5v.4l-1 .1-.3.6v.4l-.5.3h.2c0 .1-.2.4-.2.4v.4c.1 0-.3.6-.3.6l.2.3-1.6.2-.5.7-.7-.6-1.7-.2v1.1l-.4 1h-.4l-.7 1-.9.4h-1l-.2-.5h-.5c0-.1-.7.5-.7.5v-1.1l-.3 1.1-.8.2-.3-.3.3-.2v-.9l-.4-.1v.3h-.7l-.3.3h-.7l-.5-.4-1-.3v1.3l-1.4.2-.4.6-.3-.2-1.2.3-.3-1.1.3-.7h.5l-.2-.5.3-.5-.2-.6.4-.3v-.6l.4-.3v-.3c-.1 0 .9-.9.9-.9l-.4-.8-.3-.2.9-1.1-.3-.4.3-.3-.2-.5.2-.4h.1l.1.2.8-.7 1.3-.3v-.7l-.4-.3.3-.8h.4c0 .1.3.9.3.9l.9-.4.6 1 .2-.4h.5l.2-.3.6.3v-.3l.5-.2v.7c.1 0 .8-.6.8-.6v.3h1.1l.4.5h.6c0-.1 1.4 0 1.4 0l.2-.4h.6l.1-.2 1.8.2.4-.8 1-.2v-1.3h2.2Z"/><path id="RU-KGN" d="M129.1 344.9v-.6l1.4-1.6.4.5.9-.7 1.1.4.5-.4.9.7h1c0 .1.3 0 .3 0v-.5l.4-.4v-.5l.7-.5h.8l.4.4v1.2l.5 1.2 1.4.2 1.1 1.4.8-.3.7.7.6-.5.2.4.6-.2.2.3h.7l.4 1.1h.6c0 .1.5 0 .5 0l.3.3.8-.2.2.6 1.3 1.3v1h-1.4l.3.6-.3.6h-1l-.7.5h-1l-.8.4-3 .8-.2-.5-.6.6-.8-.2v.4l-.9.2v.9h-.3l-.4-.4-.7.3v-.2h-.3l-.6.3h-1.3l-1.8.7v-.3l-.8-.5v-.5l.5-.3-.2-.9-1.4.3h-.5l.1-.3-.3-.2-.9.4-.4-.4v-.3c.1 0-.2-1.2-.2-1.2h.7c0 .1.2-.3.2-.3l-.6-1 .5-.2v-.6h.7l.4-.5h-.3l.2-.4v-.8l-.7-.6v-.3h-.2l-.6-1.2Z"/><path id="RU-KIR" d="m85 318.4.3-1.2h.9l1.2.2.2.8 1.1.2.5 1.6v.8l.6.7-.8 1v2.6c.1 0 1.8.3 1.8.3v1l.2-.1.5.2v.3h.7v.9c-.1 0 .1.1.1.1l.6-.2v-2.4l.7-.2v-.5c-.1 0 2.4-.6 2.4-.6l.7-1.1h.6c0 .1.4.8.4.8h.3l1.3-2.2h.4c0-.1.6.3.6.3l.5.3 2.6.4.3-.5.5.7.2.6-.3 1.8h-.4l-.1.9-.6 1.1.5 1.2 1.3.3-.2.5v.8c.1 0 .4.4.4.4l-.5.5.2 1.2-1.6.4-.3-.7-.6.2-.2.6-2.2-.4-.9.7-.4 1 .8 1-.2 1.9-.8 1-1.2.2-.3.7 1.2 2.3-.5 1H97l-.1.3v.6l1 1.1-.3.3.3.2-.2.3-.3.3-.9-.4-.3-.5v-.8l-.2-.2h-.2v.5h-.5c0-.1-.8-1.8-.8-1.8l-.2.3h-.7v-1.1l-1-.3v-.8l-.4-.2-.8.3h-.3c0-.1-.3-.8-.3-.8v-.8l-.4.1v.6l-.3.6h-.3c0-.1.1-.4.1-.4h-.2c0-.1-.4 0-.4 0l-.4-.2-.3.3-.5-.2-.3.7h-.3c0 .1-.6.1-.6.1l-.3-.3-.7 1.2h-1v-.4h-1.1v-1.3l.3-.2-.4-1.1.2-.5h.7l.7-.4.6.2.4-1.6.5-.6-2-.5h-2v-.3l-.2-.3.5-.6v-.4c-.1 0 0-.3 0-.3h-.2c0-.1.5-.4.5-.4v-.4l.2-.6h1.1v-.6l1-.5v-.7h.8l-.5-1.5v.2l-.4-.1-.2-.4v-.7l-.6-.1.2-1.4v-.8l-.7-.3.5-2.1-.9.7-.9-.5-.3-.7 1.4-.2.3-1.3.5-.6-.2-1 .2-.6Z"/><path id="RU-KYA" d="m198.8 209.4.4-1 .5-.2.8.7-.4.5v-.4l-.5-.2h-.1c0 .1.4.4.4.4l-.7.4h-.3v-.3h-.3Zm15-93.3h1.8l1.1-1.4-.3-1.3-1.7-.7-2.4.5-.5 1.3v.5l.9.6 1 .4Zm2.3 14.2.7-.5v.6l3.3-.8 1.3.3.3.6h-.3c0 .1-1.4-.6-1.4-.6l-2 .4.5.6 1.5.8.3.5h-.2c0 .1-1.8-.8-1.8-.8v.4l-.4.3.6.3h1.3l1.2 1.1 1.6.9 1.9-1.1.7-1.3.3.3.4-.4h1l1.5-.9 4.9-.5v-.3l.4-1v-.3c-.1 0-.6-.2-.6-.2V127l-.4-1.3.3-2.4h.2c0 .1.2 0 .2 0l.2.5.5-.5h.6l.7-.4v-.7l-.5-.2.3-.6-.2-.3h-.3l.2-.6-1.2-.2-.9-1.3-.9-.6-.3-.9v-.6c.1 0-.5-.5-.5-.5v-.8l-.9-1v-.6h-.4v-.5h-.8l.4-.9-.3-.9-.7-.2-1.4.4v.7h1.2l.2.2h-.9l-1.3 1.7-1.9.8-.4.5-1.1.5v.7l-.5-.2-1.3 1 .4 1.3h-.4l-.9.7v.6l-.8 1.1v.5h.4l.5-.6.2.4.9-.3v-.6l.2-.2.2.2v.6c-.1 0-1.3 1.9-1.3 1.9l-.2 2.6-.5.3h-.9l-1.3.9.8.6 1.2.3.3.4h-.5l-.5-.2-.4.2-.6-.4.3.5-.6-.3v.4c-.1 0-.6-.2-.6-.2l-.8 1.1v.3Zm63.4 78.8-3-.4v2l-.4.3-.5-.3h-.4l-.3.8.4.5.9.3.8.9 1.8.6.5-1.1h.6c0-.1.8-1.6.8-1.6V210l-.3-.5zm2.2-16.6-.2.3h-.4l.1.7-.2-.6-.2-3.1-.5-.6v-.5l-1 .3.2.5h.4c0 .1.5.9.5.9l-.3-.3h-.6l-.1.4.2.5-.5.2v.4l-.4-.4v.2l-.5-.1.7-.3v-1.5l-.5.2h.1c0-.1-.3-.2-.3-.2l-.2-.5.8.3.2-1.5-1.3-1.6-.2.2-.2-.2-.9-1.7-.6-.4h-.4l.3-.2h-.3l.2-.8.5.4v-.2l-.6-.3-1.1.2v-.4c-.1 0 .2-.4.2-.4l-.3-.2-.7.5h-.6v-.4h-1c0 .1-.9.7-.9.7v.5l-.2-.5-.4.3-.7-.7h-.7l.1-.2h-.2l-.6.3h-.5l-1.2.5-1.2-.6v.3c-.1 0-.9.1-.9.1v1.9c.1 0-.8 1-.8 1l-1-.3-1.3.3v.6l-.3-.6-.6.3-.4-.5.2-.2-.3-.4h.3c0-.1.3.5.3.5l.6-1.6-.2-.7h.4l.4-.3v-.6l.6-.2.2-.4h-.3l.5-.5-.5-.2.9-.4-.6-.4v-.3l-.3-.3.3-.2-.9.2v-.3h-.3l-.3-.5h-.3v.3l-.3.2h.3c0 .1-.3.2-.3.2l-.2-.4-.4.3-.2-.5-.7-.2-.8.9-.9.3-.4-.5 1-.2-.2-.2.4-.3v-.9c.1 0-.3.5-.3.5h-.5l-.7.3-.5-.2-.4.4-.6-.2-.3-.4-.2.3h-.8c0 .1-.6 0-.6 0l1.4-1h.7l1.6-.7.3-.8-1 .2.8-.5h.2c0 .1.7-.8.7-.8h-.7l-.2.3v-.3l1-.3.9.4.5-.4h-.3l-.5-.6-.3-1.9-1.2.3-1.3-.7-.2.2-.5-.7v-.8l-.5-.1-.7.5-.4-.4v-.4c.1 0-.5-.1-.5-.1l-1.3 1.4h-.7v-.3h-.4c0 .1-.6 1.3-.6 1.3l-1 .6-.7 1.3.2.3h-.6c0 .1.3.7.3.7l-.8-.4-2.2 3.4-.4.8h.4c0 .1-.2.4-.2.4v.6l-.3.3-.5-.2-.4 1.5.3 1.1.7.4v.4l-.3.4-.2 1.6-.9.7-1.5.6-.8-.2-1.7.2-1.4-.7-.4.2.6 1.8h.6l1.3 2.3-.4.9h-.5c0-.1.4-.4.4-.4v-.5l-.4.3h-.7c0-.1.4-.9.4-.9l-1.1-.2v.3h-.5v-.7c.1 0-1.1 1.1-1.1 1.1h-.7c0 .1-.2.5-.2.5h-.4c0 .1.2.4.2.4h.6v.3l-.8.3-.3-.5-.7.6.6.2.2.6-1.1-.2-.4.3v.5h-.5l.3-.3-.2-.4.6-.4h-.3l-.9.7-.5.9-.3-.2-.7.5.7-1.4h-.6l.1-.4h-.4l-.4.3.2.4h-.5c0 .1-.2-.2-.2-.2l-1.2 1.5-.3-.5 1.5-2-.4-.2.8-.4-.4-.3-2-.7-.5.7-.3-.2-.4.3-.6-.7h-.8l-.1.2h.7v.3h-.6l.2.3h-.5c0 .1-.2-.6-.2-.6l-.7.4-.3-.3-.5.2h-.6v.2h.4l.5.6h-.7v-.2l-.4.3v-.2c-.1 0-.1.3-.1.3l-.4.3v-.4l-.2-.4.4-.4-.2-.2-.3.3-.2-.3-.3.2.5.2-.2.6-.4.3v-.7l-.5.2.2.7-.5.4.3.5-.2.4h.9c0-.1-.6-.5-.6-.5l.9-.7h.2l-.3.6.7.8.2-.9.3.7 1.3-.5v-.3c.1 0 .2.4.2.4l-2.3 1.2-2.3.6h-.4l-.2.4h-.9l-.2.4-.2-.3-.7.2v-.2h-.2l-.2.5.2.7-.6-.4-.7.4v-.5l-.8.8-.2-.7-.7.4v.3l-.7.3-.5-.2-1 .6.4.6-1.1.2v.6c.1 0-.4-.1-.4-.1l-.5.2v-.3c.1 0-.3-.1-.3-.1v-.4l.6.1-.7-.3-.5.9-1.2.5 1-.2.2.6h.3l-.4.1v-.6l-.6.1-.3.4h.4l.2.2h-.6l-.5.2.3 1-.5-.5-.7 1.1.3.2-.4.4-.9.3-2.2-.5-.7.2-.3.3.2.5v-.3h.5l.9.6h1v.3l-.5.7-.4-.2.2-.2-.2-.3-.7.2.3.5h.3l-.8.8v.2h-.2v1.5l-.6-.4-.3.6v.3h.6l-.2.4.3.5-.5-.3-.3.2.2-.5h-.5l.2-.7-.3.2v-.3h-.3l-.2.4-.3-.6h.5v-.3l-.4-.5-.2.3v-.4h-.5l.4.6h-.2l-.1.6-.3-.2-.4.2v.4c.1 0-.3.3-.3.3l.4.2-.3.3.7-.3 1.2.2v.3c-.1 0 .4.4.4.4h.7l-.6.5.5.2v.4l.3.3h.6c0-.1.3-.7.3-.7v.3c.1 0-.3.6-.3.6l.6.6.2-.9.2.9h-.5l-.5-.3v.7c.1 0 0 .6 0 .6v-.9l-.4.2v.4l-.4-.2.7-.6v-.4h-.4v.2l-.3-.4h-.2c0 .1.1-.2.1-.2l-.4-.5h-.6c0 .1-.2.5-.2.5h-.7l.6.4v.9l-.3-.8h-.6l-.2.3.2.7 2.1.7.3.6-.2.5.4.2v.2c-.1 0 .1.3.1.3l1.7-.2-.4.3-1.2.2.9 1.6-.3.3-1-.4-2 .4-.5.4h-.7l-.5.5v.6l-.6.2-1.7-.6-3.8 1.2h-3.2v.4l-.2-.5h-1.3c0 .1-1.5.5-1.5.5l-.3.3h-.7l-.5.1v.2l-.5-.3-.7.2v.9c.1 0 .5-.3.5-.3v.6h.1l-.6.6v.2h-.3l-.3.7h.5c0 .1.9 1 .9 1h-.6v.1h-.6l-.3.2h.2v.2l.6.2v.4l-.3.1.9.6.2 1-.2 1 .2.2-.6.7v1.1h.5c0-.1.2.1.2.1l-.5 1 .3.7 1.3.9 1.7.3.2-.3-.2.3 1.1.5.6 1.1-.4.4h-.3l.7.6.5 1.6.2-.3 1.6.6.4.5v.5c-.1 0 .6 1 .6 1v.9l-.6.6-.3 1.6-.5.6.3 1v.3l-.3-.1.8 1.1 1.1 4.8-.7 1v.3l-.1-.2-.8.3-.5-.3-.2.4.6 1.3v.6c-.1 0 .8.3.8.3l.8 1.6.8.6.3.7.8.2v.6c.1 0 .5-.2.5-.2v.2c.1 0-.3.4-.3.4h-.7l-.6-1.4h-.3v.2l-1-.2-1.1-1.8-1.3-.5.7.2v-.4c.1 0-.9-1-.9-1l-.6-.2v.3h-.5l-.3.8v-.6l.5-.4-.4-.9h-.6l.7-.2-.3-1.4-.6.6v.8l-.4.8.4-.8v-.4h-.2l.2-.4.7-.7-.2-.8 1-1.6-.6-1.8.2-.3-.2-.2.4-.6-.2-1.7 2.2-1.4v-1.2l.5-.4.4-1.1-1.3-.8-1.8.6h-1.7c0 .1-1-.5-1-.5l-.2-.9-1.2-1.5h-.4l-.3-1-1.5-.7-.2.2v-.2l-1.6-1.6-2.8-.3.6 1v.5l.8.9.9.6h1.6l1.8 1.2v.7c.1 0-.5.2-.5.2l-.2 1.2-.4.6-.6.3h-1.2v.9l-.4.8.2 1 .6.3 1 1.4 2 .8.6 2.3-.3.9.5.6-.5 1.4.4.5v.4l-.9-.4h-.6l-1.8 1.9-.4.9-.3-.3-.3.2v.6l-1.2 1.6.4 1.1v.7c-.1 0 1.1.3 1.1.3l.6 1.9.9.8h.9l1.2.2 1.3.8.7-.4h.7l.3-.2.2-1.3.8.6-.4 1.4 1.6.4.2.4-.3.4.6 1.9.8 1.1v.5l-.6.4.2 1.1v1.2l-.5.3v.7l-.5.5v1.1l-.5.2-.4-.2-.9.3.5 1 .4.3v.8c.1 0 .9.8.9.8l-.2 1.6-.6.7 3.1 3.1.3 1-.7 1.1v.3l1.5 2.3-.7.9.5.9v.8l.6.4h.6c0-.1 1 .6 1 .6v.3c.1 0-.4.3-.4.3l1.1.6.3 1.5-.9 1.2.3.8-.2.4 1 .3 1.1-.2-.2.5.7.5h.3l.6-.4.4.2.5.4.2 1.3-.3.5.4 1.5v1.4l-1.8 1.4v1.1c-.1 0-.7.6-.7.6v.3l.7.3.3.7h.5l-.2 1.3.2.6-.3 1-1.4 1.6-.4 1.4-1.2 1.7v1.2l.5 1 2.1.8.7.7.8.2v.5c.1 0-.8.5-.8.5v.8l-4.1 2.5 1.7 3.1-.5.8-.2 1.3.2.6 5-.4 1.9.4.5.4v.8h1.1l1.1 2.4h2.1v.4l.6 1-.8.4-1.8 2.3v1.5c.1 0 .5.9.5.9l1.6.3.9.7h.9l.4.7v1l-1 .3v.5c.1 0-.5.3-.5.3l-.6 1.3-.5.5v.2h.4v.3c.1 0-.2.8-.2.8l.2 1.2-.5.5.6 1h.5l.2.3h.4l.8 2.2h.3v.5l-1.4.7-1 1.2.9.7.3 1.1h.3l.2.5h.6l.5-.3.3.3 1.6-.8v.4l.7.3v.7l.7-.2v.4l.7.2-.2.8.9.7.9 2.2-.4 1.5.4 1.2.8.3.3.8-.5.6-.9.4v1c.1 0-1.9 2-1.9 2l-.7 1.4.6.5.4.9.6-.2.4.3h1.9l.6.5 2.6-.4 1.5-1.4.8-.3.4-1.4.5-.4.7-1.5 1-.3.5-1.6-.2-.4.3-.3h.9l.4-.4.6.3 1-.6 1 .2.5-.6.5.3.8-.3v-.4l-.7-.2-1.3-1.9-1.2-.8v-.5l.3-.4h.6c0-.1.4-.8.4-.8l1.3.2.5-1.6-.2-.6.3-1-.2-.5.7-.3-.3-.5v-.9l-.2-.2v-.7l.6-.5v-.7h.5v-.4c.1 0 .6.3.6.3l.3-.3v-.5h.4v-.9l1-.1v-.8l-.4-.2v-1.1h-.7v-.4l.3-.5-.8-.4 1.7-4.1h2.5l.2.4h.7l.2-.3h.9l.6-1.6h1.1l.3.2-.2.5v.5c.1 0 .9.3.9.3l.2.4v1l1 .7.2-.3h.4l-.5-1.1.2-.6-.2-.6h.8l.5-.9-.2-.4 1.2-.7.7-1.2 1.1-.3 1.2-1.3-.5-1.7.2-.7.6-.3h.4l.4-.5h1.2v.3h-.4v.4l.9 1.4 1.2.3v.9l.9-.2.3.3v.5h.4l1.2-.7-.4-.5v-.3l1.7-1.3v-.7l-.6-.5v-.7h-.3l-.8-1.3.9-1.1h1.3l-.3-.4v-2l-.9-.1-.8-.5-1-1.4.3-.7-.4-.6.3-.2v-1.2l1.3-.9-.3-.9 1-.4 1.1-1.2h.6l.4-.3-.2-.8 1.4-1.3.2-1.1-.2-.4 1.1-1.5.2-.7-1-.5v-.3c.1 0-.8-1.2-.8-1.2v-.8l.6-.2v-1.4l.2-.1.3.2.5-.4-.6-1.1.4-.5.3-1.5-.2-.9h.1c0-.1 1.1.5 1.1.5l.3-.4.4.4h.5l.3-.5h.5c0-.1 1.2-.2 1.2-.2l.2.3.4-.8-.6-1.1-.5-.2v.3h-.4l-.9-.6h-.9v-.5h-.8l-.2-.4h-.5l-.3-.8-.3.6-1.2.3v-.8c-.1 0-.5-.1-.5-.1l-.4.4-.4-.6v-.7l.5-.2.2-1.5.3.3h.3c0-.1-.5-.9-.5-.9v-.6h.4l.7-.9h.3l-.2-.4.3-.6.3-.2h.6l.1-.6.5-.4h-.6c0-.1-.5-.9-.5-.9l-.6-.3v-2.6l-.1-.4-.8-.5v-1.8l.4-.7v-1.5l-.3-.7h-.4l.2-.8h-.6v-.3h-.3l-.3.1-.5-.5v-.2h1.2l.3-.2.2-1h.6l.5-.6.5.2.3-.3.5-6.9v-5.6l-2.3-4.3v-.6c.1 0 1-1 1-1l.5.3h1.1c0-.1 1-.7 1-.7l1.1-.6h.5l1.1-1.3h1.7v.6h1.2l.7-2.2-.4-.2v-1.4l.5-.2.2-1.1 2-.3-.7-.8.3-1.3 3.1-1.8h.6l.3-.6 1.2-.4.5-.7.6.3.2-.4h.4l.1-1.2h.4v-.6l-.7-.2-1.2-1.3-.2-6.5-1.1-.7v-.9c.1 0-.2-.4-.2-.4h-.4l-.2-.3h-.6l-.2-.4.4-.7v-.6l-.3-.4h-.6v-.6h-.5c0-.1-.2-1.7-.2-1.7l.5-1.8h-.5l.2-.5h.4l-.2-.9.2-.4-.7-.4-.6.2-.3-.5.6-.7v-.6l-1.3-.6.2-.3h1.4l.6-1.9h.8l-.3-.7h-.5c0-.1.1-1 .1-1l1-.9-.2-1 1.1-.4-.2-.5-1.1.3-.2.5v.5c.1 0-.1.3-.1.3l-2-1.3-1.1.2-.4 1.3-.9.6.4 1.5.2.2v-.4l1-.1.5.2 1.1-1.2.7.3v1l-1.3.4-.2.5-.8.3v.7l-.8.6h-1v.2l-.3.2-.5-.7v.8l-3 1.1v.4-.2h1.1l-.5.4v1.1l.3.3-.8-.3-.4-1.1-1 .8h-1.9l-1 .2-1.3-.5-.4.8v1.3l-.6.5-.2.5.2.3-.3-.2-.9 1.1h-.7l-.2-.3 1.4-1 .5-1.2v-1l.4-.4-.2-.2.4-1.1.5-.5h1.4l.3-.4v-.9l.6-.5v-.8l-1.1-.6h-1.2c0 .1-.4-.3-.4-.3l.3-.2.2.3h1.1c0-.1 1.5.3 1.5.3l.3-.2h1.6c0 .1.6-.4.6-.4h.5l.6-1v-.6h-.3.3l.4.4 1.6-2.8 1.3-.4 1-1.2v-1.4c.1 0-.4.3-.4.3l-.7-.2-.4.3.9-.6.3.3.9-.9.2.2-.4.3h.3l.9-1.1v-.5l-.7-.1h.5l.6.2 1-.7h.3l1.3-1.5h.4l.7.3.5-.9-.2-.4h.3l.4-1.3 1.3-.4v.3c-.1 0 1-1.1 1-1.1l2.2-3.4.2-1.2h-.5l.3-.4h.3v-1l-1.1-.2-.3-.7.2-.3-.2-.7-.9.6v.6l-.2.2h-.3l.2-1.1-.2-.6-.6-.2v-.2l.7.3v-.6l-.6-.4h-.5l-.2-.7-.5-.2 1 .3 1.4 1.2.2.4-.5.3 1-.2.8.4-.6 1.2.5.2 1-2.7v-2l-.2-.2ZM172.2 141h-.4l-.4.3-.3-.2.3-.2-.4-.3h-.4v.8l.5 1 .4.3.7-.2.3 1h2.2c0-.1.3-.3.3-.3v-.5c-.1 0-.7-.1-.7-.1l-2.1-1.4Zm8.5 84.8-1-1.6h.4c0-.1-.3-.2-.3-.2l-1.7 2.4v.5l.7.6 1.5.4h.5v-2.2Zm0-106 .6-.4.6-.6v-.5l-.4-.4-1.1-.5h-.6l-1.1.4-.8 1.8.2.3h.8c0 .1 1.7 0 1.7 0Zm59.6 43.1-.8 2.2.5 1.4.4-.4h.9c0 .1 4.3-3.7 4.3-3.7v.4h1.3c0-.1.3-.7.3-.7v.2c.1 0-.2.3-.2.3l.2.2.6-.4h1.3c0-.1.2.5.2.5l-.2.3.9-1h.5c0 .1.7-.3.7-.3h.6l1.4-1 1.5-.2.2.3.6-.7 1-2 .2-.7-.2-2.4-.2-.2v-.2h.2l-.3-1.1-1-.8-.3.3.2.2-.6 1.2.2-1.2-1.7-.6h1.3c0 .1.5-.2.5-.2h-.6v-.9l-.5-.9h-.8v-.5l-.3-.5.2-1h-.6v-.8l-.6 1.2v-1.1l-.1.1v-.2l-.3 1.1h-.4v.5l-.7.4v.3l-.5-.4-.5 2.5h-.2l.1.6h-.3l-.4.8h-.4l.4-1.6.5-.4.2-.6v-1.5l.3-.8v-1.6l1-1.3-.2-.2h-.2v-.2h-.2v-.2h-.2l-.2-.6-1-.5-.2-.3-.4.2-.3 1 .3 2.4v-.2l-.9-.4-.3-1.9-.6.2-.2.4.3 1.3-1 .3-.3 1.2.6.3h-.7l-.5 1.1.7.2v.5c.1 0 .9.5.9.5h-.7c0-.1-.9-.8-.9-.8h-.2c0 .1-.6 2.5-.6 2.5l.3.3v.6l.9.7-1.4-.4-.3-.4-1 2.8h.8c0 .1-.9.7-.9.7l-.3 1.1v.4c.1 0-.3.6-.3.6v1l-1.2 2.2Zm-6.1-31h-1.5l-1.2.7-.4-.3v.4c-.1 0-.5.2-.5.2l-.6-.3-.3.4-.2-.3-.7.2-1-.2-.6 1.4-.9-1.4v.7l-.7.4-.3.8.3.4-.5-.2-.4.3-.3-.3.2.7-.3.8 1.1 1.1v.3l-.3.3.4.2-1-.2-.7.2-.8 1.2-.4 1.2h-.3l-.7 1.2-.9-.5h-.3v.3l.5.2v.4l.4-.2h.3v.6l-.6.3v.3h.9l-.3-.2.4-.4-.3-.3v-.3l.9-.8v-.7l.5-.3v.6l-.7.5 1 .8h-.3v.5l-.5.2.3.2v.5c-.1 0 0-.2 0-.2l.4.2v-.9l1.1.2v2.6l.2.7-.2.5 1 1v1c-.1 0 .6 1.1.6 1.1h.5c0-.1-.1.2-.1.2h.4c0 .1 1-.9 1-.9h.5v.6h.3v1h.6c0-.1.3.2.3.2h.4l.4-.5.5.5.4-.4h-.2c0 .1.2.3.2.3l.7-.2.3.2v.8l.6.8h.6l.2.8.6.4.8-.3.6.3v-.3l.2.3h.4l.2.5.7-.6h1.5c0 .1.6-.2.6-.2l.4.2.2-.5 1.3-1.4-.2-2.4-.9-.4v-.4l.4-.1-1.1-1.2-.5-1.1h.4l.9 1v-.2c-.1 0 .1-.1.1-.1v-.4h.4v-2.7l.2-1-.4-.8.3-.3v-1.2h.2v-1c.1 0-.2-.8-.2-.8h.4l.5-.6-.2-1.1-.4-.3-.2-1h-.3l-.2-.5-.2.3v-.7c.1 0-.8-.3-.8-.3l.3-.5-.2-.2-.7.2.4-.6h-.7l-.4.3-.2-.3-.4.5-.2-.2v-.4l-.6.7.3.8-.2 1.8h-.3l.3-1.1h-.3v-.3l-.4 1-.4-.2-.2.2.4 1.4-1.2.5v.8l-.3-.2-1.6 1.4v1.3-1.7l.5-.6 1-.6v-.7l-1.7.7-.4.8v-.3c-.1 0-1 .4-1 .4h-.6l.9-.8h.5l1.9-1.2-.5-.3h.8l.8-.8.2-.6-.3-.2.2-.3-.2-.8.6-.6-.7-1.1-.6-.7Zm-16.4 7.9 1.1.2 1.9-.6 1.1-1.4-.3-.2v-.3l-.2.2-.4-.4.5.3.5-.8-.2.8h.2l.6-.4.5-1.5-.7-.4-.9-1-1-.5h-1.2l-.2-.2h-1.4c0-.1-.4-.6-.4-.6l-2.7.2.7.5v.6l.4.1v.4l-.4.3.6.8-.7.7.2.6 1.9.5.2-.2h.5l.6.9v.5c-.1 0-.7-.3-.7-.3l-.3.8-.5-.3.3-.2-2-.2.2.6 1.3 1v-.3h.4l.6-.4Z"/><path id="RU-LEN" d="M30.6 319.6H30v.4l-.5.2v.4l-1.3-.1 2.2-2.6h.4l.5-1 1.5-1.3.9.9h.5l8.8 3.3.5-.7h.5l.9-1.5 1 .3.3-.8-.4-.2-.3.2-.5-.6.9-.5h1.3l.8.7v-.6l1-.6 1 .5.6-.3v.7l.3.2.4-.4.2.2v.9l-.4.3.2.4v.3c-.1 0-.3.2-.3.2h-.5c0-.1-.3.3-.3.3l.4 1.4-.6 2.5.3.2-.2.4 1 .4-.2 1.3.6.3v.5l-.3-.3v.6l-.4.5.2.3-.3.8-1 .5-.2-.3-.4.6v.5l-1.3-.4-.8.3-.5-.3-.6-1.1h-.7l-.3.4-.8-.7-.8.8v.7l-.4.4-.9-.5v-.6c-.1 0-1.1-.7-1.1-.7l-.4.7-.9-.4.2.8-.6 1-.4.2-.7-.3-.3.8-.5.5v.6h-.6l-.5.3-.7-.3v1.5l-.4.3h-.3c0-.1-.7 0-.7 0l-.4-.6-.8-.2v-.5l-.8-.8-2-.3-.8-.9h-.4l-.4.3-.2-.2v-.2l.5-1.4.9-.7-.5-.6v-.6c.1 0-.1-.6-.1-.6l.3-.6h.3l.1.6.4.2.3-1h.3c0-.1.5.3.5.3l.7-.2.3-.4-.2-.2.4-.4 1.7.3v.4l.5.2 1.1 1.2h.8c0-.1.2-.5.2-.5l.6-.3-.7-.6v-.8l-.5-.4v-.5l-2.1-.8-.7.6h-1.1c0-.1-.6-1.1-.6-1.1v.2c-.1 0-.6-.2-.6-.2l-.5-1.2.8.7v-.7l-.5-.3v-.3l.4.3-.2-.4h.3l-.1-.7-.3.6Zm-2.6 9.7"/><path id="RU-LIP" d="M61 358.2h.5c0 .1.4.9.4.9l1-.2v-.5l.8-.3.3.2v.4c-.1 0 .7.6.7.6l-.2.6.3 1.1-.3.4.2.4-.5.4.3.9.8.5v.4l1.2.7-.6 1.4h-1.8l-.6.1-.6-.2v-.5l-.3-.1h-.8l-.3.5-.7-.6h-.4l-.2.4h-.3c0-.1-.6.3-.6.3l-1 .2-.5-.2-.2-.5v-.6l.9-.7-.4-.4v-.3l-.3-.1v-.2c.1 0-.5-.3-.5-.3l.5-.8v-1.2l.2-.2h1.1l.1.6.5-.6.4.2.2-.4-.4-.3h.2l-.4-.7.8-.2-.3-.6.5-.3Z"/><path id="RU-MOW" d="m55.4 347.2.4.2h-.7zm2.6-.4h.1zm-2.7 3.1.2-.3-.5-.5v-.7h.2v.3h.6l-.2-.8.9-.3h-.3l.2-.2-.2-.5h.2l-.1-.3h.2c0-.1-.2-.6-.2-.6h.2v.4l.4-.4v.2l.8.4v.4l.4.4h-.3c0-.1-.4.4-.4.4H57l-.2.8-.4-.2.2.4-.2.7h-.6l-.3.5h-.1l-.2-.3Zm1.4-3.9h-.2.1Zm-.8.1v-.3c.1 0 .4.2.4.2l-.2.2h-.2Z"/><path id="RU-ME" d="M84.1 340.7h1.1v.6h1l.7-1.2.3.3h.6l.3-.1.3-.7.5.2.3-.3.4.2.4-.2h.2c0 .1-.1.4-.1.4h.3c0 .1.4-.5.4-.5v-.6l.4-.1v.8l.2.7h.3c0 .1.8-.2.8-.2l.4.2v.8l1 .3v1.1l.4.5-.6.6-.2-.2-.4.3v-.4l-.2-.1-.4.2-.2.4H92l-.2.4-.8-.2-.4.3v.6h.3v.2l-.8.8h-.4c0-.1-.2.5-.2.5l-.6.5v.3l-1.2-.6-.3-.9-1.2-.3-.4-.8h-.5l-1.4 1.1h-.6c0-.1-1.1.6-1.1.6l-.2-.8-.7-.5.3-.7-.5-.3h-.4v-.6l.3-.3h.4v-.9l.2-.3.9-.2.3-.3.6.2.4-.3.2.2Z"/><path id="RU-MAG" d="M413.8 282.2h.4l.1.4.7.4h.8l-.8 1.6v1.7l.4.5 3 1.2.3.8 1.2 1.4 2 .4 1.1.6.7 1.3.6.4 1.4.2.6.6h1.3v.8l.5.5.3.8-.8.6v.4c.1 0-.1.2-.1.2l-1 .3.3 1.7-.5.9.8 1v.5l-.5.7-.5.2.2 1.3-.6.6h-.5l-.4 1.1v.4l1.1.8-.2.3.7.3-.4.6.3.7v1.1c-.1 0-1.7.7-1.7.7v.3l.8.4v.4c.1 0-.6.6-.6.6l.6 1v.4l-.7.7-.3.7h-.3v.3h-.3l-.1-.3v.6l-.2-.2v.4c-.1 0-.8.3-.8.3v.4h-.2l-.3.3.2.2-1.6 1.4-.4 1.1-.3-.3v.3c-.1 0-.4-.1-.4-.1l-.2.3v-.3c-.1 0-.5.8-.5.8l-.4.2v-.5l.3-.4-.2-.6h.2v-.5h.3l.1-.8h-.7l-.9.5v.2h-.3l.6-1.1-.2-.9h-.4l.2-.2h.5l-.3-.1.2-.4h.3v-.4l.7-.6.2-.7h-.2c0-.1.4-.6.4-.6l-.3-1.1-.8.6-.4.8h-.6l-.4.3-.2-.3.2-.8-.5.3-.2-.2v-.4l-1-.2h-.4c0 .1-.2.7-.2.7h-.8l-.2.2-.7-.2-.6.6-.6-.3h-1l-.4.6-.9.2-.4.7h-.7v2.1h-.5l-1.7 1.5v1.4h-.3l-1.1 1.3h-.3l-1.5 1.3-.7 1.2-.5.2.2 1.1h-.8v.9l.4.9-.4-.5-.5.9.2.3h.5c0 .1.3-.4.3-.4v.7h.4l-.3-.8.4.2.3-.2.4.4.5-.2.7.9v1l-1.1-.1v.4l-.9-.5h-.6v.6l-.9.3-.6-.7h-.5l.3-.5-.4.3-.8-.4v.6h-.3.2v.3h-.9c0 .1-.3 1-.3 1h-.5l-.9-.7-.7.2-.3.6-2.1.3-.7-1.5h.3c0 .1.7-.3.7-.3h1.8c0 .1.7-.4.7-.4l-.5-.4-.4.2-.3-.3h-.5l.1-.3-.3-.5-.8-.9-.3.3h-1.2v.6h-.5v-.2h-.7l.8-.4h-.6c0 .1-.8-.5-.8-.5l-2-.6-1 .3-.8.5.5.9h-.4c0-.1-.5 0-.5 0l-.2-.6-.5.5v.6h.8l-.2.8-.3-.3-.2.3-.2-.2h-.9v-.6l-.3-.2h-1.2c0 .1-.3.3-.3.3l.3.3v.2c-.1 0-.6-.3-.6-.3l-.3.4-.7-.6h-.4l-.6-.2.7-.3.2-1.3v-1.3c-.1 0-.5-.1-.5-.1v-.4l-.8.3-.3-.6v-.6l-.5-.1-.3-.6h-.3c0-.1-1.2.3-1.2.3l-.9-1h.2c0-.1-.3-.5-.3-.5l.4-.3v-.4l.6-.3.6-.7.8.4.5-.3v-1.1c-.1 0 .5-.2.5-.2l.3-.9-.2-1.9-.3-.4v-.7l-1.3-2-1.2-.6-.2-.4v.5c-.1 0-.6.4-.6.4h-.2l.1-.3h-.3c0-.1-.4.2-.4.2l-.8-.7h-.7v-.3l1.1-.8.3-1.3-.2-.3.9-.5-.2-.3.2-.7-.3-.4.3-.4v-.8l-.6-.5.2-.5-.3-.4 1.3-3.4v-1.1l1.4-.6.8-1.7.5.2h.9c0-.1 1.3.6 1.3.6v-.4h.4l.5-.3.2.2-.2.6.5.4v.2h.7v-.9l.7-1-.6-.8v-.5c-.1 0 .8-.9.8-.9l.8.8.3-.2.3.3v-.3c.1 0 1.3.5 1.3.5v-.3l.3.2 1.2-1.1h.4v.3l.5.3-.3.5v.6l.6.7h.4l.4.2h.3l.1-1.2.6.2 1.2-.4.3.4.5-.8.9-.3.6.2-.2.4h.2c0 .1.7 0 .7 0v-.3c.1 0-.1-.7-.1-.7h.4l1-1.3-.5-.4-.4-1.5.4-.2.3-1.3.8-.4h.7l.2-.4h.3l.3-.7-.3-.3v-.4l.5-.6v-1.5c-.1 0 .6-.4.6-.4h.9v.6h.4l.5-.8v-.5l-.4-.7.5-.3v-.3l.7-.2.5.2v.4c.1 0 1.1-.6 1.1-.6l.2.3h1.3l.5-.2.5.8h1c0 .1.8-1 .8-1l.2.6.7.5-.2.5.5.4h.9l.1-.5.7-.8 1.2-.4h.4c0 .1.2.5.2.5h.6l.2-.2-.5-.9.3-.7Z"/><path id="RU-MUR" d="M40.5 253.6h.6l1 .9v.3l1.2.2.6.4v.7l-.8.7-1.2-.5h-.7l-.2-1v.8l-.5.2.3.3v.4c-.1 0 .2-.4.2-.4l.8.3v.4h.3l-.7.8.8-.6.2.5.2-.3h.4l.2.1-.2.7.3-.6h.5l-.7 1.3h.2l.2-.6 1-.5.6.3-.3.3h.3l-.3.6h-.4v.3h.9l-.7.3h.6v.6l-1.3.8 1.2-.2.5-1.5h-.2v-.3h1.1c0-.1 1.3 0 1.3 0l.3.4 1.9.6h.4c0-.1-.3-.5-.3-.5h.4l2.9 1.2.2.5.7.2 3.3 2.7 2.5 3 .3-.5.4.5h.3l.5 1h.3c0-.1 1.4 1.3 1.4 1.3v-.3l.6.2-.3-1 .7 1.4 1.2.8v.4h-.3l.4.6.3.2v-.5h.4l.4.6h.6c0 .1.2.8.2.8l-.2 1.2.4.5v1.1c-.1 0 .4.4.4.4l.2-.2v.6l.2.2-.5 2.2-2.2 3-1.4 1.2-2.6 1.2h-.6l-.6.3-2.2-.2-3.1-1.5h-1.1l-2.9-.8-2-1.6-1 .4-.3-.8-1.3-.3-1-1.2v.8l-.3.2-1-.8-1.2-1.5v-.3l.5-.2h-.6l-1.2-.5h-.6c0 .1-.1.4-.1.4l-.5-.2.6.4h.2v-.3h.3c0 .1.2.6.2.6l.5.2v.8c.1 0-.3.3-.3.3h.4l.5.5.3.4-.2.2 1.8.7v.2l-.6-.2-.2.4-.7-.2v.2h-.9l-.1.7h-.6l.5.5-.5-.2v.5h-1.3l-.3-.9-.4-.2v-.8l-.7-.2-4.6.2-1.1.3-1-1.8v-1c-.1 0 2.6-4.2 2.6-4.2l.2-1.2-1-.9-1-2.2-2-1-.6-2.8.8-1.5.2-1.1-1.1-.3 1.5-1.2.3.3.3-.3.5-1.1v-1h.7l.8-.9h.5l.4-.4.3-.8-.2-.9.7.4.5.6h.9l.4-.4-.3-1.7 1.7.7-.5 1.1.7-.9 1 .3-.3-.5v-.9h.5l.5.6.2-.2-.6-1.2v-.3l.2.2Z"/><path id="RU-MO" d="m71.4 351.8.4.3.4-.2.3.3.6-.3.3.2v-.5c.1 0 .6-.4.6-.4h.9v.5l1 .2v.3h.4l.4.7.9.4.2-.2h.2c0 .1-.2.5-.2.5l.7-.2.9.2v-.2l-.4-.5.3-.3v-.5l.1-.2.2.3.2-.6.5-.2v-.6c-.1 0 0-.4 0-.4l.5-.4h.3l-.2.9.2.2 1-.4.2.3.2-.5h.2v.6l.4.4.2.6.2.7-.3.2.4.2-.2.3h.4l-.2.4h.4v.5l-2 .9-.5.8-.2.3-1.3.2-.2-.4h-1.1l-.7.5.4.8-.5.3-.2-.2h-1.4c0-.1-.3-.9-.3-.9l-1.1-.6-.4.2-.6-.3-.2.4v.6h-1.3l-.4.2-.2-.3v.5c-.1 0-.6-.5-.6-.5l.5-.6-.7-.7v-.2c.1 0 .3.3.3.3l.2-.2.3.2v-.3h.5v-.3h-.6l-.2-.2-.5.4-.3-.4h.3c0 .1.7-.5.7-.5h.4l-.3-.4.5-.7-.3-.6-.7-.3-.2-.3z"/><path id="RU-MOS" d="m49.9 346.2.6-.7v-.7l.5-.2v-.7h-.3v-.4l.3.1.5-.3.3.5 1 .3.2-.4 1.1-.3.8-.7.9.3v-1.1c-.1 0 .3-.2.3-.2h.9l.2-.6.5-.3.8.5.2.6h.7l.3.3h-.2l.2.7-.3.2.5.7v.7c-.1 0 .2.3.2.3l.2 1.2.7.3h.6c0-.1.2.4.2.4h.6v.4h.5c0 .1.7-.3.7-.3h.4v.6l.5.4v.7c-.1 0 .3.1.3.1l-.2.4.2.5-.7.6h-.6l-.2.4h.4l-.2.6h-.6l-.5.4-.7 1.5-1.2.2v.7l.4.4-.2.2-.2-.2-.3.2-.2.5-.2-.1h-.3v-.5l-.4-.9h.3v-.6h-.7l-.6-.4-.3-.7h-.5l-.2.7h-.4l-.3-.6h-.7l-.4-1.4v-.2h.2l.3-.6h.6l.2-.7-.2-.4.4.2.2-.7h.4l.4-.7h.3c0 .1-.4-.3-.4-.3v-.4l-.8-.4v-.2l-.4.4v-.4h-.3l.2.4h-.2c0 .1.1.4.1.4h-.2l.2.5h-.2l.3.2-.9.3.2.8h-.5l-.1-.4h-.4l.1.7.5.5-.2.3-.5.2v-.2h-.5v-.4l-.6.2-.4.7-1.3-.3-.3-.3-.7.4-.5-.2-.3-.3v-1.3l.4-.3-.2-.9-.5-.9Zm6.1-.1-.2-.4.4.2zm.7-.2h-.2Zm-1.3 1.3h.4c0 .1-.7 0-.7 0zc0-.1 0 0 0 0m2.5-.4h.2-.1Zm-2.3 3.5"/><path id="RU-NGR" d="M34.5 332.5h.3c0 .1.4-.1.4-.1v-1.5l.7.3.5-.3h.5l.1-.5.5-.5.3-.8.7.3.4-.2.6-1-.2-.8.9.4.4-.7 1 .7v.6c.1 0 1 .5 1 .5l.5-.4v-.7l.7-.8.8.7.3-.4h.7l.6 1 .5.3.8-.3 1.3.4.6.3v.2l.7.2v.8c-.1 0 .2-.2.2-.2v.4l.4-.6.9.2 1.1.6.5.9.5.2-1.1.4h-.3v.3l-1.1-.2-.7.4v.4l-.4.5-.4.2-.7-.3-.3 1-1.9-.8-.5.5h-.5l-.5.6.5.4-.5 1v.3c.1 0-.7.2-.7.2v.6l-.2.3v.6c.1 0-.2-.4-.2-.4l-.4.3-.2-.2h-.5c0 .1-.4.8-.4.8l-1.2.3v.4l-.7.2v.4l-.3-.2H40c0 .1-.5 1.1-.5 1.1l-1-.2-.2.2-.7-.3h-.5c0 .1-.3 0-.3 0v-.3c-.1 0 .3-1.1.3-1.1l-1.1-.7v-.6l.7-.7-.6-.2.2-1.3-1.6-.3-.4-.7-.5-.2v-.7l.7-.6v-.9Z"/><path id="RU-NEN" d="m98 265.7-1.5.2-.5.4.9-.8h1.3zm21.6-7.1 1.3.7.3 1.2h-.2c0-.1-.2-1-.2-1l-1.3-.9v-.4l.2.4Zm-26.8-.3 1.2 1 .3.6v.7l-.4.9.3-1.8-.5 1-.6.4v.3c.1 0-.6 1.1-.6 1.1l-2.1 1h-.6c0 .1-.1-.1-.1-.1v.3l-.6-.2h.2l-.9-1.1v.6l.4.6h-.2c0-.1-.4-.8-.4-.8v-2.2l.6-2.1 1.3-1.2 1.1-.2 1.5 1.1Zm-9.3 20.1h1c0-.1.1 0 .1 0v-.2l1.4-.5.6.3v-.2l.4-.7v-1l-.2-.4.3-.4v-.7l.4-.8-.3-1 .5-.5.3.2v.2l.4-.5h.7c0 .1.6-.3.6-.3v.2h.5l.5.3v.2h.1l-.6-.8h-.3v-.9l-.5-.6.7.6h1l2.6-2-.7.7h.2c0 .1.4 0 .4 0l.2-.7 2.1-2.1.3.2 1.1-.3.4-.4h.4l.1-.1h-.3l.2-.3 1.9-.7-.2.5h-.3v.3l.3-.3.2.4h.3l-.5.8.4.4.3-.2.8-.7.2-.5-.8-.8v-.4c.1 0-.3.4-.3.4l-.3-.2 3.2-2.4 1.5-.6h2.1c0-.1-2.8.5-2.8.5v.3l.3.3-.2-.3 1 .3-.4.3v.8l-.5.7.6.7v.9c.1 0-.3.3-.3.3v.3l-.7-.5.2.6-.5-.4-.5.3-.6 1.6.3-.2v-.6c.1 0 .6-.1.6-.1h1.1l.2.4.4-.3-.2.3.5-.4v1l-.3 1 .6-.8.2-1 .7-.6.5 1 .5.2v.3l.3-1.1-.3-.6.4-.9 1-.9h.8l1.2-.8.6.4 1-.2 1.3.8h.8l1-1.7-1.3.2 2.1-.7v.6l.3-.4v-.3c-.1 0 2.6-1.4 2.6-1.4h1.2l-.9.6 1.2.8.3.7-.2.5h-.8l-.3.7.2.5v.8c-.1 0 1.1.6 1.1.6l.7-.2.5-.7-.4-1.5.4-.6.3.3h1.1c0-.1 1.3-1.8 1.3-1.8l1 .8v-.5c-.1 0-.9-.5-.9-.5v-1.2l-.2-.6h-.3v.4l-.3-.2v-1.1l-1.4-2.5v-.6l.5-.3h.9v.4h.4l-.3-.7v-.2h.3l-.2-.8.4-.4.6.3.2-.3.2.4.9.4 4 .5h.4v.4-.3l1.7.6 2.4 1.2.3.5 1.1.8.3.5-.5.8v.9l-.5.3v.9c.1 0 .5.3.5.3v-.3c.1 0 .3.1.3.1l.7.7h.6l.4.2v.4l.5.3v.4c-.1 0 .3 1 .3 1l-.7 1-.5.3-.8-.3h-.9c0 .1-.5.6-.5.6v1.1l-1.9 1.3.2.9-.7.9v.4l-.6-.3h-.5c0 .1-.7.9-.7.9l-.5 1.1v1l-3.4 2.3-.4.6h-.5l-.5.2h-16l-11.2-.7-1.5 1.2h-.3v1l-7.7 4.9-2.4-.2-1.3 1.4.4.6h-.2c0 .1-1.8.2-1.8.2l-2.1-1.7-.8.3-.9-.6-.7.2-1.2-.9-1.6-.5-.5-.7-.7-.2.5-.7.2-1.1h.4c0-.1-.3-.2-.3-.2l-.4-.9.4-.3v-.6c.1 0-.6-1-.6-1l.2-.4-.3.2-.3-.6h-.9c0-.1-.2-.9-.2-.9l.5-2.1.4-.9v.2l.3-.3h-.3c0-.1.2-.8.2-.8l-.2-.6.4-.3v-.2h.2-.4v-.5l.6-.5H76v-2.1l-2.4-2.2-.4-.7h.6l1.7 1.1H79c0 .1 2.4 1 2.4 1H81l.4.9 1.5 1.5-.2.2h.2l.5 1.5v.7l-1.2-.1-2.9 1v1h-.4l-.5.5-.3 1.2-.2.2h.3l1.9 1.2v.7l.6 1.3.6.3v.3c-.1 0 1.4-.4 1.4-.4l.2.3Zm36.9-29.5v.3l.9.7 1.3 2 .7.3.2.5 1 .9.3 1.1-.2.8-.3-.2v.3c.1 0-.6.1-.6.1v.2l-.5-.4v.5l-.3-.3-.9-.2v-.7h.4l-.5-.7-1.7-.7.6.8h-.3l-1.4-1.8v-.3c.1 0-.2-.1-.2-.1h.3l-.1-.5h-.1c0 .1-.3 0-.3 0l.3-.2-.4-.5 1.2.4-.9-1.1.4.2.4-1 .8-.4Z"/><path id="RU-SE" d="M77.2 402.2h1.2l.3.4v.4l-.3-.2v.4c-.1 0-.7-.2-.7-.2v1.4h.5l.5.5.2.6-.4.4-.4-.3v.4h-1.2c0 .1-1.1.8-1.1.8l-.6-.3.2-.5-1.1-.6h.7c0-.1.8-1.5.8-1.5l.5.4.2-.7h.9v-.9l-.3-.3v-.3Z"/><path id="RU-NVS" d="m170.6 339.2 2.3.4h4.3l.4.4 2.4.5 1.3.8 1.6 2.2 2.6-.6 1.4 1.5 3.4-.8.2-.5.8-.2.4.7-.5.8.6.9.2 1.2-.4.6.2.3h1l1.1-1.7.5-.2.4.3.5-.3h.3v1.5l.7.9v.6l-.5.3h.7v2l.6.9-.4.6.3.3-.2.3.3.8-1.4.6-.6.7-.5-.3-.8.4h-1.4v.5l-.3.3-.3-.5h-.6l-1.1 1.2v.8c-.1 0-.7.6-.7.6l-.9-.5v-.3l-1.1-.2-.2-.5.3-.5h-.8v-.5l-.3-.3h-1c0-.1-.7-1.4-.7-1.4l-.2.2v.3c.1 0-.6.2-.6.2v.4c-.1 0-1 .4-1 .4h-.4c0-.1-.8.9-.8.9l-.6.2-.4.5-2.3.3-.3.6-.9.2-.3-.3v-.4l-.7.3v.4l.3.2h-.3l-.3.7-4-3.6-.2-.7.7.2.3-.2.4-.7-.3-.3.4-.4-.8.6h-1.2v.4l-1.6.7v-2.1l.4-.3v-.4l-.7-.9v.3l-.3-.6h-.6l.3-.7-.4-.4v-.5c.1 0-.4-.8-.4-.8l.7-.7-.6-.3-.2-.8h.7v-.8l.6-.6v-.3l1.6-.7h.5c0 .1.3 0 .3 0l-.6-.7v-.7l-.2-.2-.5.3-.2-.3 1.3-1.2v-1.2l-.4-1.7Z"/><path id="RU-NIZ" d="M83 334.5v.3h2.1l2 .5-.5.6-.4 1.6-.6-.2-.7.4h-.7l-.2.5.4 1.1-.3.2v1.1l-.2-.2-.4.3-.6-.2-.3.3-.9.2-.2.3v.9h-.4l-.3.3v.7h.3l.5.3-.3.7.7.5.2.8v1.1l-.5.9 1.2.8v.3l-1 1.2.2.7-1 .4-.2-.2.2-.8h-.3l-.5.3-.2.4v.6c.1 0-.4.2-.4.2l-.2.6-.2-.3-.2.2v.5l-.2.3.4.5v.2l-1-.2-.7.2.2-.4h-.2c0-.1-.2 0-.2 0l-.9-.4-.4-.7h-.5v-.3l-1-.2v-.5h-.9l-.5.4v.5c-.1 0-.4-.2-.4-.2l-.6.3-.3-.3-.4.2-.4-.3.2-.7-.2-.2-.7.3-.7-.2v-.5l-.4.3-.2-.5.4-.4v-.7c.1 0 .6-.4.6-.4v-1c-.1 0 .9-1 .9-1v-.6c.1 0 .8-.4.8-.4v-.6l.7-.4v-.2l-.5-.2-.4-.9.2-.3h.7v-1h-.3l.2-.8 1.9-.4.5-1-.6-.3v-.5l.5-.4v-.2l.6-.3-.5-.3v-.2h1.1l.9-.4.7-1h.4l.4-.9v-1.1l1.7.2.7.6.5-.7 1.6-.2Z"/><path id="RU-ORE" d="m101.2 354.1 1.3.5.3-.2.2.4-.5.3.3.2v.3l.5-.3.5.4 1.9 2.9.5.4.9.2.3.6h.8l.6 1.8h.7l.2.6-.5.3.7.3.2.9.8.2.8-1.4.7.5h.3l-.2.3.3.8-.6.8.3.3.3-.4.5.6.3.7-.3.4.5.8v.4c-.1 0 .3-.2.3-.2v-.5c-.1 0 0 0 0 0l.9.9.5-.3v-.4l.5.1.5-.8 1 .3.5.4.9-.3.6-1.5-.3-.3v-.6c.1 0 .7-.3.7-.3l-.2-.7h.4l.2.5.6.3v-.7l.6-.2 1.4.4h.6l.2.7-.7 1.1.4.3-.2.2v.3h.4v-.2l1 .5-.4.5.2.3 1.3.2.2.7 1 .3h.4c0-.1.6.6.6.6h-.3l-.5 2.2-1.8.6h-1l-.5-.1-.4-.7h-.3l-.7 1.2-.9.3-.2-.7-1.7-.2-.4-.6h-.5v-1.1h-.6l-.2-.5-.3.4-.3-.3-.3.2-.7-.2v.9h-.6l-.2.3-.5-.2-.5-.8-.5.2h-.9v.4l-.7-.5v.5l-.4.3h-.5c0-.1-.2.7-.2.7l-1.3.9-.6-.5h-.4l-.8-.6v-.6c-.1 0-.6.4-.6.4l-.5-.3-.2.4.2.8-.3.4h-.3l-.3-.4.3-1-.6-.2-.8-1.3-1-.3v-.8c-.1 0-.9-.6-.9-.6l-2.4.2-.7-1.4-.6.5h-.7c0-.1-.3.3-.3.3v.3c.1 0-.3.2-.3.2l-.3-.4-.4.4h-.3l-.2-.3h.3v-.5h-1.4c0-.1-.2-.4-.2-.4v-.2l1.6-1.4v-1.1l.5-.6-.3-.5.2-.5h.4c0-.1.2-1 .2-1l1.1-.8.2-1.6.4-.2h-.4c0-.1-.2-.6-.2-.6l1-2.5-.4-.9.2-.8.5-.3Z"/><path id="RU-ORL" d="M52.4 357.9v.3c.1 0 .9.2.9.2l.6.7h.5l.2.4 1.3.3.3-.3h.8v.8l.2.2.2-.2.4.6v1.2l-.5.8.6.3v.2c-.1 0 .2.1.2.1v.3l.3.4-.9.7v.6l-.4.3-.5-.3-.3.4-.6-.7-2.1-.7-.6-.7-1.9.5-.5-.9v.2l-.3-.1v.3l-.5-.2-.7.3-.4-.2v-.3l.6-.4-.2-.6h.3v-.5l-.4-.2h-.1c0 .1-.2-.3-.2-.3l.6-.5v.2c.1 0 .8-.4.8-.4v-.3l-.5-.3v-.7h.1l.8-.4.2-.6h.2v.3l.2-.5h.6l.6-.6Z"/><path id="RU-OMS" d="m167.8 331.8.5.7-.9.7.6.6-.4.7 1.3.8v1.7h.4l.5 1.4h.3l.4.8.4 1.7v1.2l-1.3 1.2.2.3.5-.3.3.2v.7l.5.7-.3.2h-.5c0-.1-1.6.5-1.6.5v.3l-.5.6v.6l-.6.1.2.8.6.3-.7.7.5.8v.5c-.1 0 .3.4.3.4l-.3.7h.6l.2.6v-.3l.7.9v.4l-.3.3v2.1l-.9.2.2.5-1.3.9h-.7c0-.1-.5.6-.5.6h-.5l-.2 1h-.4c0-.1-.1-.7-.1-.7l-.5.2v-.3l-.5-.1-.2.3-.5-.2-.7.9v-.4c-.1 0-.6-.2-.6-.2v-.5h.2l.4-1h.7l.2-.9h-.3c0-.1-.4.2-.4.2v.3l-.3-.2-.4.2-.6-.2-.3-.5-1.1-.2-.2.4h.4l.2.5-.5-.2-.2.4-.3-.2v-.7l.3-.3-.5-.3v-.7c-.1 0-.5-.2-.5-.2h-.3l.4 1.2-.4-.5h-.8v.4l-.3.2-.9-.4-.6.3-.4-1.1h.6v-1.2l.3-.4-.7-.6v-1.5c-.1 0-.7-1.2-.7-1.2h-.9c0 .1-.1-.4-.1-.4l.2-.4h.4c0-.1.2-.6.2-.6l-.4-.2-.2-.7.8-.4-.9-.2.9-.3.2-.8-.4-.8.7-.4-.6-.6.9-.6-.2-.8.9.2.6-.4.2-.5-.2-.8-1.2-1.3-.3-.8h-.6l-.2.6h-.4l-.7-.7.9-.9-.7-1.5v-1.4c.1 0 1.1-2.7 1.1-2.7l1.2.9v.9c-.1 0 0 1.1 0 1.1l2-.3.5.5 1.9.2.5-.3h-.1c0-.1.6-.7.6-.7h3c0 .1 1.7-1.3 1.7-1.3l.5-.2v-.4l.7-.6Z"/><path id="RU-PER" d="m120.6 313.7-.2.5-.7.2h-4.8l-.4.1-1.1-.4-.5.7h-.4l-.5 1.2-1.1-.3-.4.9h-1.3l-.3.6h-.3l-.4.8-3.3-.5-.2.8-1.4-.2.3-.9-1.7-.2-.3.7h-.9l-.4.7-1.3-.2-.4 1.7 1.1.4v.3l.6.2v.7l-.2.4.5.3 2.6.4.3-.5.6 1-.3 2.1h-.4l-.1.9-.6 1.1.5 1.2 1.3.3-.2.5v.8c.1 0 .4.4.4.4l-.5.5.2 1.2.3.9-.2.5.9 1.5.2.9-.4 1.3.6.8-.3.6h.4v1l.4.4-.7.5-.4.9h-.6v.4l.3.8v-.3h.5v.3l.7.7.2.7.6-1 1 .8.7-.2.5.3 1.3-.6.9 1.2 1.2-.5 1.1 1.4 1-.4.6-.8v-1.8l-.5-.9v-.5l.3-.2.7.3 1.1-1h.4c0 .1-.3-.6-.3-.6v-.5c.1 0-.3-.5-.3-.5l.5-1.7.3-.3h.9c0 .1.2.8.2.8l1-.9v-.5l-.6-.3-.3-.9.6-.9.6-.5h.6l.8-1.1v-1.1h-.6l-.5-.6.3-1-.2-.4v-.5l-.4-.6-.7-.2-.7-1 .4-1.4 1.3-1.5 1.3-4.7v-1l-.4-.7-.2-1.4.6-1.9-.3-.7-.7.4Z"/><path id="RU-PRI" d="m341.4 389.9 1.3-.3v-1.2l.4.2.2-.7h.9l.3-.4.8.2.3.5-.2.5.6-.3h.5v.3l.6.5.4-.3.7.4h.8c0-.1 1.2-1 1.2-1l-.2-.3.3-.9 1.1.4.8-.7h.6v-.3l.5-.3v-.4h-.3l.2-.3-1.8-.5.5-.5-.6-.3-.2-.5.4-.4h.9l.6-.4h.6c0-.1.4-.7.4-.7h.5c0 .1.3 1.1.3 1.1h.5l-.4.7.6.7v.3l-.7.4.2.4-.2.5h1l.4.3v.4l-.4.1-.8 1-.7 1.5v.6l-.5.4-.2.9-1.2 1.8-1 .8-.7 1-1 .7-1 1.8h-.3c0-.1-.2 0-.2 0l-.5 1-.8.3-.7 1v.6l-.6.3v.3h.2l-.3.5-.5.3v-.2l-.2.1-.2.8-2.8 1.7-.8.8-.2-.2-.4.4-.2-.3-1.8.8v-.2c-.1 0 .1-.1.1-.1l-.3-.4h-.3l-.2.4-.2-.7-.6.3-.4-.4-.4.4v-.9l.2-.5h-.2v-.5l-1.2 1v-.6l.4-.5h-.7v-.2l-.8 1.7h-.4v.3h.2l-.6.4v.9c-.1 0-.4-.5-.4-.5l-.5.3-.3-.2v-.3l-.5.2.6.5-.5 1-.3-1 .2-.3-.6-.4.4-.4 1.4-.2v-.2h.3l.6-2-.4-.6.3-2.1-.6-2.5-.4-.7 1.2-.5h.4l.6-.6v-.4h.3l.3-.5.5.4.4 1.2-.2.9 1.3.8.9-2.1h.4c0 .1.5-.3.5-.3v-.5c-.1 0 0-1 0-1h.5c0-.1.5-.8.5-.8v-.9l.6-.4.2-.5v-.4c-.1 0 .5-.5.5-.5v-.3c-.1 0 0-.2 0-.2l-.3-.3.5-.8Z"/><path id="RU-PSK" d="M28 329.4c0 .1.2.4.2.4l.4-.4h.4l.8.9 2 .3.8.8v.5l.9.2.4.6h.7v.7l-.8.6v.7l.6.2.4.7 1.6.3-.2 1.3.6.2-.6.7v.6l1 .7-.4 1.1v.3c.1 0 .4.2.4.2h.5c0-.1-.5 1.1-.5 1.1l.7.5v.8l.5.1v.4l.2.2h.7c0 .1-.2.4-.2.4l.2.2-.2.2.2.5-.4.4.2 1.2H38c0 .1-.5.7-.5.7H37l-.8-.9-.6-.3-.4.2-.4-.3h-.3c0 .1-.2.6-.2.6h-.5l-.5.4-.3-.3v-.7l.3-.1-.2-.3-1.1-.3-1 .4-.2-.7h-1.1c0 .1-.4-.3-.4-.3l.2-.7-.4-1.3v-.2c.1 0-.2-.1-.2-.1l-.4-.8.2-.4-.4-.3-.5.2.6-2.5-1-.8v-.5H27l-.2-.3.3-.2v-.5h.4v-.7l.9-.1-.4-.4v-.8l-.6-1 .2-.7-.3-2.3.8-1.2Z"/><path id="RU-PNZ" d="m71.1 357 .5.5v-.5c.1 0 .3.3.3.3l.4-.2h1.3v-.6l.2-.4.6.3.4-.2 1.1.6.3.8h1.4c0 .1.2.3.2.3l.5-.3-.4-.8.7-.4h1.1l.2.4 1.3-.2.2-.3h.6l.3.1 1 1.6v.6h.7l.6.6v2.2l.2.5-.5.8-.5-.4-.7.2-.3.4-.9.4v.6l-.9-.5-.4.5h-.9l-.4.4-.5-.6-.8-.2-.9 1-1.5-.7-1 .4-.5-.5-.5.3.5-1.3-2-2.1v-.3l-.4-.6h-.5v-.6l-.6-.3v-1.4h.7Z"/><path id="RU-ROS" d="m68.4 374.3.8.7v.4l.6.2.9.7-.3 1.5v1.1h.9l.2.6h.7c0 .1.4.8.4.8l-.4 1.2-1.7.8.2.6-.3.2v.3c.1 0 0 .6 0 .6l1.3.2.8.6.8 1.7.7-.2v.4l.2.2 1.2-.3.5.8.3-.5.5-.2v-.4c.1 0 .6.4.6.4l-.3 2.4-.5.3-.8 1.1h.3v1.1l-.3.2-.2-.5-.4 1h-.6l-1.3-1-.8.2-1.8-1 .4.9-.8.2v.4l-.3.2h-.5v.7h-.8l-.2.2h-.6c0-.1-.6-.9-.6-.9v-.6l-.6.2-.3-.2h-1.1l-.3-1-.6-.3.2-.7-.3-.2-1.6-.3-.6.3-.3.6h-.6l-.2.2.3-.9-.7-.2 1.3-.7h.6l-.1-.9h-.8v.3l-1.1.4h-.2c0-.1.2-.5.2-.5h.7v-.3l-1.6.5.3-.3-.3-.3.2-.3v-.7l.2-.3 1.2-.3.3-.8 2.6.2.3-.7v-.2h.1l.4-.9v-.3h-.5l.3-.2-.3-.9-.6-.2.4-1 .6.2.3-.4h-.8l-.5-.7h.8l.3-.6.5-.3v-1.4l.2-.3.9.2 1.2-.5.4-1 .8-.7v-.6Z"/><path id="RU-RYA" d="M60 354.8h.2c0 .1-.2 0-.2 0m4.9-5.4h.4v.3l.6-.2v.6h.9v-.3h.4l.3.6.4-.5.7.5.5-.2.2.2h.4l.2.4.4-.3v.5l.6.2.7-.3.2.2-.2.7-.3.3.2.3.7.3.3.6-.5.7.3.3h-.4l-.7.7h-.3c0-.1.3.3.3.3l.5-.4.2.2h.5l.1.3h-.6v.4l-.3-.2-.2.2-.2-.3v.2c-.1 0 .6.7.6.7l-.5.6h-.7c0 .1-1.4.2-1.4.2v-.2l-.2.3h-.4l-.1 1.1-.4.3v.4l-1.5-.7-.3.6-.2-.3h-.2v.5l-.9.4-.8-.6v-.4c.1 0-.2-.2-.2-.2l-.8.3v.5l-1.1.2-.4-.8h-.5c0-.1.3-1 .3-1h-.3v-.3H61l.4-.6h-.3l-.4-.5.3-.5-.4-.4.2-.5.3-.2.2.2.2-.2-.5-.4v-.7l1.3-.2.7-1.5.5-.5h.6l.2-.4h-.4l.2-.4h.6l.7-.7Z"/><path id="RU-SAM" d="m93.9 353.4.7.5.4-.2.3.6.6-.6.6.5v-.9c.1 0 .6-.7.6-.7l.4.2.3-.2v.5l.4-.3.2.3 1.1.5.3.8.7-.6h.6v.3h.1l-.5.3-.2.8.4.9-1 2.5.2.4h.4c0 .1-.4.3-.4.3l-.2 1.6-1.1.8-.2.9h-.4c0 .1-.2.7-.2.7l.3.5-.5.6v1.1l-1.5 1.4-.6-.9-1-.2-.3-.5-1.6-.7-.2-.7-.2.3-.7-.7h-1l-1.2-.9h-.3l-.4.3.2-.8.5-.7-.8-.6h-.4v-1l-.5-.6.2-.4.4-.2.6.2v-.9h.7l-.5-.3.2-.2 1 .4.5-.7h.6l-.1-.2h.8l.4.3.6-.4.5.2h.1c0-.1-.3-.5-.3-.5l.7-.6.3-.9-.5-1.4Z"/><path id="RU-SA" d="M345.7 212.4v-.4c-.1 0 .4.2.4.2l2 2.6v.7l-.3.4-.7-1.2-.6-.5-.5-1.4v.4l-.3-.1v-.6Zm6.3 27.4.4.6h.3c0-.1.5-1.2.5-1.2l-.3-.4h-1.6l-.7.2v.2c.1 0-.2-.4-.2-.4h-.2v.4l.5.4.4.2.2-.3.3.3h.5Zm6.4-18.9.3.6 2.4-.9 2.7 1.4 2.5.7h.8l1.4.5 1.1-.4-.3-1.3.3-1.1-.4-.9-2.6-3-.9-.3-.6-.6-1.5.4-.6.4-.6-.2-.8 1.3v.3l-.7 1.9-.9 1h-1.3l-.4.4Zm3.7-8.9-.5-.3-1.8.4-.3 1.6.6 1.6.3.3h.5l-.3-.1 1.4-1 .2-2-.2-.4Zm-15.2-12.7.3-.3.2-.4-.2-.7.7-1.5-.8-.8-.7-2.2-.3 4.2-.4 1v.8h1.1Zm77.6 56.8v.3l-.5.3v.3l-.7.2-.7.9-.7.2v-.5.2l.8-.7v-.9l-.5.1-1.1 1 .3 1.2-.2.6h-.2c0-.1-.2-3.4-.2-3.4l-2.4-.8v.2c.1 0-.8-.7-.8-.7l-.5-.8.6-.9.6-2.4-.7-2.5-.9-1.4-2.6-2-4-1.3h-3.8c0-.1-2.7.3-2.7.3l-2.3.7-1.6.9h-.5c0 .1-.2-.1-.2-.1l-.9.4H396c0 .1-2.5-1.3-2.5-1.3h1.1v-.2l-1.7-2.9-1.4-.7-1 .3-.2-.4v-.9h-.4.2c0-.1-1.2-.2-1.2-.2l-.2-.8-.7-.6-1 .3h-.4l-.4-.5-.3.2-.3-.2v.2c-.1 0-.3-.6-.3-.6l1.1-1.2h-.2c0-.1.5-.1.5-.1v.7l.2-.3.2.8 1.4-1.1-.5-1.5-1.8-1.8-2.6-1.1h-2.5c0-.1-1.8.2-1.8.2l-.6-.7-3.5-1.7-6.1-1.4-4.7-.3-1-.4-1-.9-1.3-.3h-.4l.1.8 1.1 1.5v.4l.4.2-.9.2v.5c-.1 0-.5-.1-.5-.1l-2 .7-.9-.5h-.8l-1 1.4-.3.8v1l.7.3.9-.8h1.5c0 .1.1.5.1.5l-.5.4-.5-.2-.8 2h-.9l1 .3.4.6-.2.2v1.4l.5 1.4.4.3-.3.3v-.2c-.1 0-.4.6-.4.6l-1.1-.4-.3.8h-.5l-.3-.4v-1.2l-.9-.5-.7.2.2.5-.5.3-.2-.5h-.9l-.5 1.6-.5.3.6.2v.6l.4.1v.3l-.5.2-.8-.4v-.2l-.4.2-.3-.5.2-.5-.2.2v-.3l-.2.2v-.2c.1 0-.3-.3-.3-.3h-.6c0-.1-.8-1.2-.8-1.2h-.5l-.4-.4-1.8-.6-1.2.2-1.3.8-1 1.2-1.3.3-1.5-.5-1.4-1.1-1-1.8-.5-.2v-.4c-.1 0 0-1.1 0-1.1h.3c0 .1.3-.3.3-.3l.8.5.2.5v-.4l-.6-.8-1.1.2-.6.6-.9 2.2-.7 3.3-.7 1.4-.2 1.9-.9 1.3-1 .7-.3-.5-.2-1.8-.2 1h-.4c0 .1-.3-.5-.3-.5h-.6l-.6-1.5-1-.2-.3-1.1-.8-.7-.3-1.5h-.2l.1-.6-.3-.7-.9.2-.2-.6.2-.4 1.2-.4.8.3-.7-.9v-.8c-.1 0-.7-1.2-.7-1.2l.5 2-.9.9-.7-.5-.2-.9-.5-.9.2-.4.3.7h.6l-.7-.7.2-.6h.6v-.2l.3.4.7-.2.5-.3-.3-.3.4.3.4-.5v-.2l-.5.2v-.2l.6-.5-.5-.2v-.4h-.2l.2-.2h-.1c0-.1.4-.2.4-.2v-.5h-.3l.2-.2h-.4c0-.1.2-.6.2-.6l-.9-.3-.6.2v-.2l-.4-.5h.2v-.6h.9l-.1-.4.9.2.2-.3-.2-.6h-.4l-.1-.2h.2l-.5-.3 1-.5h-.4v-.3c-.1 0 .2-.3.2-.3l-.9-.9v-.3l.6.4h.7l-.2-.1.2-.2-.3-.5-.2.2v-.3c-.1 0-.3.1-.3.1v-.6l-.4-.4h-.3l-.4.3-.2-.6-.4.2.4-.6h-.4l.3-.4-.3-.3h-1.3l.5-.5-.2-.3h.2c0-.1-.3-.4-.3-.4l-1 .3h-.1c0-.1.5-.7.5-.7l-.4.5.3-.6h-.9l.3-.5h-1.1l-.2-.1v.4c-.1 0-.4-.8-.4-.8h-.9c0-.1-.1 1-.1 1h-.3l.1.4-.3-.3v-.5l-.3.8-.9.3-.2-.5.2-1.1h-.2c0 .1-.2-.4-.2-.4l-.5.6v-.2l-.1.4v-.3l-.4.1h.1c0-.1-.2-.4-.2-.4v.5c-.1 0 .1.1.1.1h-.5v.2h.3l-.3.4v-.5c-.1 0-.3.4-.3.4l-.2-.5v-.6.2-.3l-.2.2h-.3v-.7.6l-.2-.6v.6h-.3v-.3l-.3.4.2-1.1-.3.7.2-.9h-.3v-.5l-.3.9v-1.1l-.2.6v-.5l-.3.2v-.5l-.3.3v.5-1l-.3.3v-.3l-.4.1v-.3l-.1.2-.3-.7-.2.7-.4-.2.3.5-.2.2v-.3.4l-.4.1v.7c-.1 0-.3-.3-.3-.3v.3c-.1 0-.3-.3-.3-.3l-.3.6v-.6c-.1 0-.4.1-.4.1v-.5c.1 0 0 .3 0 .3v-.3c-.1 0-.2.5-.2.5v-.5h-.3v.5l.2.4h-.1c0 .1-.3-.2-.3-.2l.2.4h-.4v.7l.3.3c0-.1.1.6.1.6l-.4-.6v.6h-.3l.8.2-.5.3.4.5-.3.2.3.2.2-.2-.2.4.2.4v-.2c.1 0 .5.2.5.2v.3c-.1 0-.3-.2-.3-.2l-.5.4.8.5h-.3c0 .1-.3 0-.3 0l-.2.4v-.4l-.3.7v.8c.1 0-.3.5-.3.5l-.4.2v-.3l-1-.3-.6-.7-.2.2.7.6h-.4c0-.1.1.3.1.3l-.8-.4h-.1c0 .1-.3-.3-.3-.3l-.8.4-1.1-.3-1.7.4-1.3-.5-2-.4-.8.2-.7-.6-2.8-1.2-.5-1.2.3-.6-.2-.7.5-.6h.3l.3.4.6-.3-.7-1-2.1-.3H291l-2.2-.8h-1l-2.1-.5h-.4v.3h-.6l-.5.2.2.2-.8.4-1.1.2-.8-.2-2.2 1 .2.8.8.9h.7l-.5.4h-.5c0-.1-.4.7-.4.7h-.4l.1-1-.6-.4-.4-.7.3-1 .4-.5v-.9c-.1 0-.8-1.9-.8-1.9l-1-1.4.5 2.1-.6.9-1.4.2-1.4-.3-1-.6-.7-1-1 .9v.9c-.1 0 .4.1.4.1l.3.8h-.8l-.6 1.8h-1.4l-.2.3 1.2.6v.6l-.5.7.3.5.6-.2.7.4-.2.4.2.9h-.4l-.2.5h.5l-.5 1.9.2 1.6h.5v.6h.6c0 .1.3.5.3.5v.6l-.5.7.2.4h.6l.2.3h.4l.3.4v.9c-.1 0 1 .7 1 .7l.2 6.5 1.2 1.3.7.2v.5h-.4v1.2h-.5l-.2.4-.6-.3-.5.7-1.2.4-.3.5h-.6l-3.1 1.9-.3 1.3.7.8-2 .3-.2 1.1-.6.2v1.4l.5.2-.7 2.2H266l-.1-.6h-1.7l-1.1 1.3-1.4.2-1.4.9h-1.1c0 .1-.5-.2-.5-.2l-.9 1v.6c-.1 0 2.1 4.3 2.1 4.3v5.6l-.3 6.3-.4.9-.5-.2-.5.5h-.6l-.2 1.1H256v.4l.5.5.3-.2h.3v.4h.6c0-.1-.2.7-.2.7h.4l.3.7v1.5l-.3.7v1.8l.7.5.2.4v2.6l.6.3.5.7h.6c0 .1-.5.5-.5.5v.6h-.7l-.3.2-.3.6.2.4h-.3l-.7.9h-.4v.6l.5.7h-.3c0 .1-.4-.1-.4-.1l-.2 1.5-.5.2v.7l.4.6.4-.4h.4c0 .1.1.9.1.9l1.2-.3.3-.6.3.8h.5l.2.3h.8v.7h.9c0-.1.9.5.9.5h.4v-.3l.3-.2.4.2.5-.3.2 1.6.8.6v.6c-.1 0 0 .4 0 .4l-.3.3h-1.2l-.5 1.4v.3c.1 0 1.3-.3 1.3-.3l.8.4h.6l.6 1.1h.4c0-.1.2 2.5.2 2.5l.6.8-1.1 1.8v.5l.4.6.3-.2h.9l.3.8-.2 1.6-.6.3-.5 1 .8 1.7v1.4c-.1 0 0 .3 0 .3h.7l.5.8h.5l.3.2v.9c-.1 0-.8 1-.8 1l.2.3-.2.4h-.6l.2.6-.6.7v.4l-.6 1-.2.8.2.5-.9 1.8v.8l-.6.9h.2c0 .1-.3.6-.3.6l.6.3.4.8v.4h.4v.5h1.6l.9-.5.4-.9h1.1l.4.3.7-.4.4.3.3-.3.8-.2.8-1.1.2.4v.8c-.1 0 .9-.2.9-.2v.5l-.7.5v1.7h.2l.2-.1v-1.1l.2-.2.3.5.4-.6 1.2-.3.6-.5v-.9l.3-.3v-.5c.1 0 .8-.4.8-.4l.6-.8h.4l.2-.7.9-.5v-.6l.4-.7h.8c0-.1.8-1.7.8-1.7l.5.2 1-.5.3.5h.5l.8.6h.6l.7.4v.3l.7.4.3.8.6-.2-.2.7-.5.4.3.3v1.4l.4.6h.9l.4-.3.3.7.3-.2.4-1.1v.2l.5-.1.4.7 1.1.4.3.7-.4.6.4 1.2-.2.4.2.6-.2 1.2.9.6v2.5c.1 0-.2 1.8-.2 1.8l.3.2.2 1 .2-.5h.6c0 .1-.2 1-.2 1l.8 1.4-.2.2v.8c.1 0 .5.4.5.4h.9l.8-.7.9-.2 2.4.3.5 1.2h1.6l1.5 1.4h.5c0-.1.2-.5.2-.5l1.1.9h1.7l1.7 2 .3.8h.5l.8.4 1.2-.2.6.6h.5c0-.1.6 0 .6 0l.3.7h.3l.9.1.6-.4.7.3.6-.5h.7l.3.5h.5c0-.1.5-.6.5-.6l.3.3h1.1c0-.1.9.5.9.5l1.3.3.5-.4-.3-.5 1.3-.4h1.2l.4.3 2.1-.3.8.4-.3-1.2.8-1.8v-.9l.6-.4.4.2.2-.4.3.4h.2v-1.3l.5-.5-1.9-2.5.3-.4.8.2.7-1.6.9-.8-.9-1 .2-.3-.7-.5v-.3h-.2v-.5l.5-.1.9.8h.4l-.2-.8.4-.4-.2-1.4h.7l.4-.6-.2-.4.3-1h.7c0-.1.1-.5.1-.5l-.3-.3.2-.5h.5l.4-.6 2.6-.3 1.3.6.8-.3.4.4.9.2 1.5-2.2h.7l.6.5 2.1.5 2-1.4v-.6l.5-.5 1.3-.2v.6h.4l.2-.3-.3-.7.3-.5-.3-1.2.6-1.5-.2-.4.6-1.4-.9-1.1.4-1v-.3c-.1 0 1-.7 1-.7l.2-.9v.2c.1 0 .9-.2.9-.2l.3-.7h.4c0 .1 1-.3 1-.3l.7-.9.5-1.5v-.5c-.1 0 .7-.1.7-.1l.3-.5-.2-.3.3-1.9.9-.2.3-.6 1 .3v.4l.6-.1 1.2 2.1h.4l.2.5.9-.4.2.8.5.3.7-.5.7.2v.3h.4l.3-1.2.4-.2.3.7.6-.2.4 1.1.2-.5.6-.2-.2 1 .4.4 1.4-.7.2-.9.4-.4v-.4l1.1-.8.3-1.3-.2-.3.9-.5-.2-.3.2-.7-.3-.4.3-.4v-.8l-.6-.5.2-.5-.3-.4 1.3-3.4v-1.1l1.4-.6.8-1.7.5.2h.9c0-.1 1.3.6 1.3.6v-.4h.4l.5-.3.2.2-.2.6.5.4v.2h.7v-.9l.7-1-.6-.8v-.5c-.1 0 .8-.9.8-.9l.8.8.3-.2.3.3v-.3c.1 0 1.3.5 1.3.5v-.3l.3.2 1.2-1.1h.4v.3l.5.3-.3.5v.6l.6.7h.4l.4.2h.3l.1-1.2.6.2 1.2-.4.3.4.5-.8.9-.3.6.2-.2.4h.2c0 .1.7 0 .7 0v-.3c.1 0-.1-.7-.1-.7h.4l1-1.3-.5-.4-.4-1.5.4-.2.3-1.3.8-.4h.7l.2-.4h.3l.3-.7-.3-.3v-.4l.5-.6v-1.5c-.1 0 .6-.4.6-.4h.9v.6h.4l.5-.8v-.5l-.4-.7.5-.3v-.3l.7-.2.5.2v.4c.1 0 1.1-.6 1.1-.6l.2.3h1.3l.5-.2.5.8h1c0 .1.8-1 .8-1l.2.6.7.5-.2.5.5.4h.9l.1-.5.7-.8 1.2-.4h.4c0 .1.2.5.2.5h.6l.2-.2-.5-.9.3-.7-.4-.8.3-.2.8-2 .4-.3-.5-.9v-1.2l-1.4-.5-.6-.8-.5-.2V273l-.4-1.3.2-1h.8l.6-.5-.6-.8.4-.6.3-1 .5-.4h1.1l1.1-.9.3.3h.5c0-.1.5 0 .5 0l.2-.5.5-.3 2.2.2 2-1.2 2.9 1.1.2-.4v-1.8c.1 0 .5-.2.5-.2v-.7c.1 0-.2-.3-.2-.3v-.5l.6-.7-.3-.6-.7-.5.2-1.2h.6c0-.1-.9-1.5-.9-1.5v-.6l-.4-.2v-.4c.1 0-.2-.5-.2-.5h.3c0-.1.2-1.1.2-1.1h-.4Zm-62.3-65.3h-.4.4m17.7 12.7 1.7.6 1.6 2.1 2.3.5 1.9-.4 3-1.2v-1.5l.9-1.5-.5-.2-.9.6-.8-.4v-.4c.1 0-.3-.4-.3-.4h-1.2l-1.2-.7-1.7.8h-.5l-.3-1.2.2-.8-.5-.4h-1.1c0 .1-1.2-.5-1.2-.5l-.8.3-.6.8h.6l-.9.3-.8-.5-.3-.9.3-.8-.2-.5-.6-.5-.3 1.7-.4.6.2 1.3-.4.7.5.6.5.2 1.7 1.6Zm-29.9-3.8v1.1l.5.3h-.3c0-.1 1 1.9 1 1.9l.8.6.4-.3-.2.5.5.6h.2-.2l.9 1.9 1.5.5 1.3.9.9-.8.4-1.4.3-.3-.3.2-.2-.2v-.8c-.1 0 .4-.6.4-.6l1.1 1 .2.8-.4.2 2.5-1 2.2-.6.9-.8h.6l.4-.2.4 1.1-.7-.6-.5.6 1.4 1.3h.4l.5-.4h-.3c0 .1.3-.6.3-.6l.4.3.3-.3.2.2 1.5-.3.5-.7-.4-.5h-.3l.1-.6h1.1l.5.6 1-.5 1-1.1.2-1.1.5-.4-.4-.2-.2-.9.2-.6.9-.8h.7l-.5-.9-1-.6-.6-.7-1.1-.3-.8-1-1.4-.6-1.4.7-1.3-.6-.7-.6-.2-.5-1.7-2.1-1.2-.8-.2.2h.2l.9 1.9-1.2-.7h-.7l-.3 1.3v2.1c-.1 0 0 .8 0 .8l.4.8h-.4c0 .1-.6-.8-.6-.8h-.4l.1.3h-.3v-1.3l-.6-.3-.4.2-1-1v-.4l.3.1.2-.5-1.1-.4-.6-.8-.9-.7-.3.2.3-.3-.2-.2v-.7l.2-.2-.7.2-.2-.2-.9.6-.2 1-.4-.7h-.3c0 .1-.4 1.5-.4 1.5l-1.4.2-.5.6v1.3-.2l.3.7-.4.5-.6-.2-.3.5.2.8-.7.7.4.6v-.2l-.3-.5.7-.3v.5l-.2.3.3.8-.4.6v.6h-.3l-.4.3Z"/><path id="RU-SAK" d="m377.2 399 .5.4h.7c0-.1-.2.3-.2.3l-1.1.4-1 1.4-.6.3v.6h-.5v-.5l.9-.9 1.3-1.9Zm7.7-4.4.3.2v.7h-.8l-.9.5-1.2 1.1h-.7c0-.1-.2.5-.2.5l-1.1 1.2h-.4l-.4.6h-.3l.2-.8v.2c.1 0 .2-.4.2-.4h.3l.3-.2-.2-.5h.4l.8-.7v-.5l.4.2.2-.5h.4v-1l.4.7h.5l.7-.4.6-.8h.4Zm5.2-2.7-2.6 2.5-.8.2.8-1.1h.4l.7-1h.5c0-.1.1-.5.1-.5h1Zm4.9-4.1.2.2-.4.6-1.2.9v-.3h.3l1.1-1.3Zm.7-.9h.3v.3h-.3zm2.2-3.3.2.4-.3-.2v-.2Zm2.9-3.5v.3l-.5.5.3-.8zm.9-1.2.3.3h-.3zm1.1-2.1h.2c0 .1-.3.8-.3.8v.6l-.4.3-.2-.4.7-1.2Zm3.5-5.2h.3v1.2l-.4.2-.4 1-1.1.5-.3.6v-.3h-.5v-1.1h.4l.2-.3h.7c0-.1.6-1.4.6-1.4l.5-.5Zm1.3-.4v.5l-.2.6h-.4l-.3-.2v-.4l.9-.4ZM367 353.9l.8 1.6-.3 1.2.9 2.8.3 1.9v1.6l-.6 2.6v.6l.6.9-.3 1.1h.4v-.6l.3 1.4h-.3l.4.5.7 4 1.4 4v1.2c.1 0 .4.9.4.9l.9.8.2 1h-.2l-.3-1.1-1.3-1.5-1.9-.5-.3-.3h-.5c0 .1.2.4.2.4h.4l-.8.3-.6.6v.9l-1.1 3.1-.2 1.7.5 1.3 1 1.1v.8l.4.9-.3.3.3.4h.5v-.2l-.5-.3h.7c0 .1.2 0 .2 0l.4 2-.6 1.5-.3-2.1-.5-.4h-1.1l-.3-.6-.8.7-1 3-.5-.6-.3-2.4.7-2.2-.3-.8V386l.7-1.6-.2-1.5-.9-2 .4-.5.2-1.2h.2l.3-4.1v-1.5l-.4-.9v-1.2c.1 0 .6-1.4.6-1.4l-.5-1.7-.5-.8h-.1c0 .1-.6-.6-.6-.6h.3c0 .1.1-.2.1-.2l-.6-.5.2-1.3-.2-.8.6-1.1.3-2.3-.5-1.7 1.4-.8v.8h.6l.4-.7h.2l-.3-.4v.3c-.1 0-.3-.6-.3-.6h.5c0-.1.1.2.1.2l.3-.5-.3-.7-.3.7.3-1.3-1.3-1.8h.8l.5-.6Z"/><path id="RU-SMO" d="m39 347.1 1.3.6v-.3h.6v.3h.4-.3c0 .1.2.3.2.3l.7-.3.3.3v-.3c.1 0 .3.1.3.1l-.2.3.5-.2.7.2.2-.3.5.2.2-.4 1-.3v-.3l.4-.3v-.5l.4.3v-.4c.1 0 0-.2 0-.2l.2-.3h1l.2.6.2-.3.9.5.2-.3h1l.6 1 .2.9-.3.3v1.3l.2.3-.6 1.4-.2-.2-.7.7.2.6-.8.5-.6-.2.3.4-.2.6h-.7l-.7-.3-.9.3v.8c-.1 0 .1.2.1.2l-.5 1.2H45l.2.3-.3.4-.2-.2-.2.5.2.3h-.3v.5l-.8.7v.7H43v-.3h-.4l-.5-.6v-.8l-1-.4H40l.3-1.2-1.6-1.1-.3-1-.5-.2.4-.7h-.6v-.3l-.7-.4.2-.7h.3v-.4h.3c0-.1-.1-.8-.1-.8l-.5-.6.3-.5V348l.5-.6h1.1Z"/><path id="RU-SPE" d="M35.2 324.2v-.5c.1 0-.6-.2-.6-.2v-.8c-.1 0-1-.3-1-.3l-.6.2.7-.6 2.2.8v.5l.4.4v.8l.7.6-.6.3-.2.4h-.8c0 .1-1.1-1.1-1.1-1.1l-.5-.2v-.4l1 .4h.4Z"/><path id="RU-SAR" d="m88.9 361.9-.2.8.4-.3h.3l1.2 1.1h1l.7.6.2-.3.2.7 1.6.7.3.5 1 .2.6.9v.2h-.4v.8h-.3l.2-.2h-.3l-.3.1v.6l-.5.2v.4l-1.2.5-.6.6h-.9l-.3.5.3.6-.9.3-.8.9-.8-.2.3.3.3 2.1.4.4-.4.4-.9.5-.6-.3-.4-1-.8-1.1-.8-.6-.3.3h-.4l-.2-.4h-.4l-.7-.7-.5-.2-.5.7h-.4c0-.1-.5.1-.5.1v-.6l-.8-.5-.5.2v.7c.1 0-1.3.1-1.3.1l-.2-.6.3-.3v-.7l-.7-1.1-.6-.3-.7.2-.3-.3h-.7l-.7.5v-.5l-1.7.8-1.6-1.1-.2-.9-.9-.6v-.5l.5-.8.8-2.4.3-.2.5-.3.5.5 1-.4 1.5.7.9-1 .8.2.5.6.4-.4h.9l.4-.5 1 .5v-.6l.8-.4.3-.4.7-.2.5.4h.6l.2.3h.3c0-.1.7 0 .7 0l.5-.3.5.2.2-.8.3.2.4-.4h.9Z"/><path id="RU-STA" d="m69.3 392.7 1.2.3.3-.9h.3v.7h.7l.7-.5.4-.6 1.6 1 1.6.4 1.1 1.6 1.3.4 1.7.9.7.8-.3.4v.8l-.8.7v.4l.5.1v.4l-.8.6h1.1v.8l-.4.7h-.4l-.1-.3h-.3v.9l-.5.2-.3-.4h-1.2l.3-.8-.4.5-.9-.4-.6.8-.6-.2-.6.2-.3-.6-1.5.5-.4-.9h-.2l-.1.2-.5-.3v-.4c.1 0 1.1-.5 1.1-.5l-.3-.5-.5.5-.3-.3-1-.2-.3-.5h-.5l-1.1-.9.7-.6v-.4l-.6-.3-.4-.9h-1c0-.1-.1-.9-.1-.9l-.6-.6v-.5h.9l.4-.4-.3-.9h.6c0 .1.2-.1.2-.1z"/><path id="RU-SVE" d="m121.6 311.7.2-.2 1.3.6.3 1.1 1-.2 2.2.4 4.5 3 .5.8-.2 1.1.3 1.1 1 1.9v.9l1.2.5.2.4.4 3.4.7.5 2.8.4v.5h.5l.8 2.5.6.6.6.2v.5h.1l.2 1.7.5 1.2-2 1.5-.4-.3-1.5.9.4.4-.4.7.6 2.8.5.2-.2.6h-.7c0 .1-.4-.2-.4-.2h-.8l-.7.5v.5l-.4.4v.5l-.2.1h-1c0-.1-.9-.8-.9-.8l-.5.4-1.1-.4-.9.7-.4-.5-1.4 1.6v.6l-.9-.9-1.5-.3-.4.3.2.5h-1.1c0 .1-1.1-.2-1.1-.2l-2 .2-.3-.5-1.1-.3-.3.2v.5l-.3.1v.4l-.3.4-1.1-.6-.7.4-.5-.2-.5.2-.7-.3-.4.2-.4-1.1V342l-.5-.9v-.5l.3-.2.7.3 1.1-1h.4c0 .1-.3-.6-.3-.6v-.5c.1 0-.3-.5-.3-.5l.5-1.7.3-.3h.9c0 .1.2.8.2.8l1-.9v-.5l-.6-.3-.3-.9.6-.9.6-.5h.6l.8-1.1v-1.1h-.6l-.5-.6.3-1-.2-.4v-.5l-.4-.6-.7-.2-.7-1 .4-1.4 1.3-1.5 1.3-4.7v-1l-.4-.7-.2-1.4.6-1.9-.3-.7v-1l.2-.6Z"/><path id="RU-TAM" d="m64.7 359.5.9-.4v-.4l.2.3.3-.6 1.4.7v-.4l.5-.3v-1.1h.6v-.3l.2.2h1.4v1.2l.6.3v.5l.4.1.5.6v.3l2 2.1-.5 1.3-.3.2-.8 2.4-.5.8v.5h-.5l-.2-.5h-.3v.3l-.9-.5-1.5-.3-.3.3h-.7l-.2-.8-1.2-.3.6-1.4-1.2-.7v-.4l-.9-.5-.3-.9.5-.4-.2-.4.3-.4-.3-1.1.2-.6Z"/><path id="RU-TOM" d="m167.8 331.4 1.6-1.7-.2-1.4.6-.6.3-.7h.3l.4-.6 1.5-.3.3-2.4v-.6c-.1 0 .3-.9.3-.9v-1.4l.6-.5-.2-.6.3-1.2 2.8.5.3-.3h1.2c0 .1.4-.2.4-.2l.6.5.7-.4h.4c0 .1.2.9.2.9h.4c0 .1 2.1 0 2.1 0l1.9-.7.7.3v.7h2.4l.9.7.7-.5v-.6l.4-.4 2-1.5h.9l1.3 1h.9l1.7 3-.5.8-.2 1.3.2.6 5-.4 1.9.4.5.4v.8h1.1l1.1 2.4h2.1v.4l.6 1-.8.4-1.8 2.3v1.5c.1 0 .5.9.5.9l1.6.3.9.7h.9l.4.7v1l-1 .3v.5c.1 0-.5.3-.5.3l-.6 1.3-.5.5v.2h.4v.3c.1 0-.2.8-.2.8l-.2.5h-.4c0-.1-2.3 1.4-2.3 1.4v-.6c-.1 0-.8.4-.8.4v-.4h-.5v.4l-1.1.2v-.4h-.6l-.5.3-.6-.4-.2.7-1 .6v.4c-.1 0-.8.2-.8.2l.3.3-2.4.4-1 .6-.5.3-.4-.3-.5.2-1.1 1.7h-1l-.2-.3.4-.6-.2-1.2-.6-.9.5-.8-.4-.7-.8.2-.2.5-3.4.8-1.4-1.5-2.6.6-1.6-2.2-1.3-.8-2.4-.5-.4-.4h-4.3l-2.3-.4-.4-.9h-.3l-.5-1.3h-.3v-1.7l-1.3-.8.4-.7-.6-.6.9-.7-.5-.7v-.4Z"/><path id="RU-TUL" d="M56 351.9h.7l.3.6h.4l.2-.6h.5l.3.6.6.4h.7v.4h-.3l.4.9v.3l.2.1h.2v.1l.4.4-.3.5.4.6h.3l-.4.5h.3v.4h.3l-.3.9-.5.3.3.6-.8.2.4.6h-.2l.4.4-.2.4-.4-.2-.5.6v-.5h-1.2l-.2.2-.4-.6-.2.2-.2-.2v-.7l-.8-.1-.3.3-1.3-.3-.2-.5h-.5l-.6-.6-.7-.2v-.3h-.1l.2-.2-.4-.4v-.4l.4-.5h.2v-.4l.3-.3h-.6l.3-.2-.3-.2h.5l.3-.3h.3l.7-.3h1v-.6h-.3v-.3l.3-.2v-.2h.2l.3.3.4-1.5Z"/><path id="RU-TA" d="M93.9 342.2h.7l.2-.2.8 1.6h.5v-.2h.2c0-.1.2 0 .2 0v.8l.3.5.9.4.3-.3h.8l-.7.7.2.3h1.3c0-.1.7.2.7.2v-.9l.5-.2.3.4.4-.3.2.3.2-.2-.2-.5h.4v-.1l-.9-.6.9-.6v-.6c.1 0 .5-.3.5-.3v1.8c-.1 0 .8.5.8.5v-.9l.7.3v.6l-.9 1.1.4.3 1.2-.6 1.2 1.1v.4l-.5.5-.3 1-1.1.9-1 .3v.3c-.1 0 1.5 1.1 1.5 1.1l-.3.5v.5l-.5 1.3v2h-.1l-.5-.4-.6.3v-.3l-.3-.2.5-.3-.2-.4-.3.2-1.3-.5v-.3h-.7l-.7.6-.3-.8-1.1-.5-.2-.3-.5.3v-.5l-.2.2-.4-.2-.5.7v.9c-.1 0-.7-.5-.7-.5l-.6.6-.3-.6-.4.2-.7-.5-1.5-.3-.4-1.2-.5-.4-.8.4.4.2h-.4l-.5.7h-.4c0 .1-.6.1-.6.1l-.7-.4v-.3h-.5l-.2.3h-.3v.5l-.4-.7-.6.8v.3l-.4-.1v.2c-.1 0-.1-.6-.1-.6l-.3-.4.5-.2-.2-.3.2-.3.9.4v-.3h.4v-.5c-.1 0 .8-.2.8-.2l-.6-.2.4-.5-.3-.8h-.2v.2l-.4.2v-.5c-.1 0 1.2-1.3 1.2-1.3l-.3-.4 1.1-.6v-.6l.6-.5.2-.6h.4c0 .1.8-.7.8-.7v-.2h-.4v-.6c.1 0 .6-.3.6-.3l.8.2.2-.4h.3l.2-.3.4-.2h.2v.5l.4-.3.2.2.6-.6-.4-.5Z"/><path id="RU-TY" d="M231.2 357.7v-.4h.5l.7.7h.5l.9 1.1h1.2c0 .1.2.7.2.7h.6v.6l1.9-.2.3.2-.2.3 1 .6v.3l-.6-.3-.3.2v1c.1 0-.7 1.2-.7 1.2v.8h.5v.2h.5v.5h-.3l-.5 1.4-1.1.5-.2 1.2h-.5c0 .1-.3.7-.3.7l-.3 1.5.6.6-.2.4.3.6.8.5-.2 1.3-1.1 1.4-.2-.2-.6.2v.3l-.8.6h-.4l-.5-.7h-.6c0-.1-.4 0-.4 0v-.4c-.1 0-.7.4-.7.4l-.4-.4h-.6c0-.1-.3 0-.3 0l-.4-.3-.3.3-.7.2-1.2-.2-.4-.5h-1c0 .1-.6-.7-.6-.7l-.4-1.7h-3.5l-.4-.3v-.7h-.5l-.2.4h-.4l-.7-.9-.3.8-.4.2-1.1-.2-.3.7h-.6v.5h-2c0-.1-.2.6-.2.6l.3.4-.3.4h-.9l-.3.7h-.6l-1.4.3v-.7l-.8-.6.6-.6v-.5c-.1 0 .5.5.5.5l.5-.5-2.4-2.8-.3-1.1.2-.5-.6-.7 1.2-.4v.4l.6-.2.5.3.8-.8.5-.2-.3-.7.3-.6v-.5l1.1-.2.6.5.4.9.6-.2.4.3h1.9l.6.5 2.6-.4 1.5-1.4.8-.3.4-1.4.5-.4.7-1.5 1-.3.5-1.6-.2-.4.3-.3h.9l.4-.4.6.3 1-.6 1 .2.5-.6.5.3.8-.3v-.4Z"/><path id="RU-TVE" d="M53.8 332.1h.2l.5-1h.6c0-.1-.2-.5-.2-.5l.7-.3 1.6 2v.5h-.4l-.2.3.2.2-.4.4.7.3.4.6-1 .6v.2l.5.1h-.4l.2.2-.2.3.8.5.6.8v.8l.6.6.8-.2v.4c.1 0-.3.3-.3.3v.3l.3.3v.6l-.5.3h.3c0 .1-.1.5-.1.5l.4.6h-.7l-.2-.5-.8-.5-.5.3-.2.7h-.9l-.4.2v1.1c.1 0-.8-.3-.8-.3l-.8.7-1.1.3-.2.4-1-.3-.3-.5-.5.3h-.2v.3h.3v.7l-.6.2v.7l-.5.7h-1l-.2.2-.9-.5-.2.3-.2-.5h-1l-.2.3.2.2v.4c-.1 0-.6-.3-.6-.3v.5l-.4.3v.3l-.9.3-.2.4-.5-.2-.2.3-.7-.2-.5.2.2-.3h-.2c0-.1-.1.2-.1.2l-.3-.3-.7.3h-.2c0-.1.3-.3.3-.3h-.3v-.3h-.5v.4l-1.3-.6-.2-1.2.4-.4-.2-.5.2-.2-.2-.2.2-.3H39c0-.1-.3-.3-.3-.3v-.4l-.6-.1v-.8l-.6-.5.5-1.2.7.3.2-.2 1 .2.5-.9h.5c0-.1.2.1.2.1v-.4l.7-.2v-.4l1.2-.3.4-.7h.5c0-.1.2.1.2.1l.4-.3.3.4v-.6c-.1 0 .2-.3.2-.3v-.6l.7-.2v-.3c-.1 0 .4-1 .4-1l-.5-.4.5-.7h.5l.5-.4 1.9.8.3-1 .7.3.4-.2.4-.5v-.4l.7-.4 1.1.2v-.4l.3.1 1.1-.4Z"/><path id="RU-TYU" d="m140.8 331.8.2-.2h.8c0 .1 1.5-.3 1.5-.3V330l.6-.5.4.3 1.4-.7.4-.6 1.9-.5.6-1.7h.8l1.6-1.3-.5-.8.9-.4.4.2v.4l1.3-.5 1.3.8.9-.2.3.3.6-.3 2 1.8h.6l1.1 1.4v.6l.6.5.5-.3h.4c0 .1-.2.7-.2.7l.6.5-.4.5.4.2.7.2 1-.3.4.3h.4c0-.1.5.5.5.5h2.6l.4.3v.4l-.6.6v.4l-.6.2-1.7 1.4h-3c0-.1-.6.5-.6.5h.1c0 .1-.5.4-.5.4l-1.9-.2-.5-.5-2 .3-.2-1.1v-.9c.1 0-1.1-.9-1.1-.9l-1 2.7v1.4c-.1 0 .5 1.5.5 1.5l-.9.9.7.8h.4l.2-.7h.6l.3.9 1.2 1.3.2.8-.2.5-.6.4-.9-.2.2.8-.9.6.6.6-.7.4.4.8-.2.8-.9.3.9.2-.8.4.2.7.4.2-.2.5h-.4c0 .1-.2.5-.2.5v.5h.1l-1.1.7-1.4-1.1h-1.4l-.7-.5v.4l.2.3-.7-.3-.3.5v-.6l-1.3-1.3-.2-.6-.8.2-.3-.3-.5.2h-.6c0-.1-.4-1.3-.4-1.3h-.7l-.2-.3-.6.2-.2-.4-.6.5-.7-.7-.8.3-1.1-1.4-1.4-.2-.4-1.2v-1.2h.7c0-.1.2-.7.2-.7l-.5-.2-.6-2.8.4-.7-.4-.4 1.5-.9.4.3 2-1.5-.5-1.2-.2-1.7Z"/><path id="RU-UD" d="m97.9 345 .2-.3-.3-.2.3-.3-1-1.1v-.6l.1-.3h.5l.5-1-1.2-2.3.3-.7 1.2-.2.8-1 .2-1.9-.8-1 .4-1 .9-.7 2.2.4.2-.6.6-.2.3.7 1.6-.4.3.9-.2.5.9 1.5.2.9-.4 1.3.6.8-.3.6h.4v1l.4.4-.7.5-.4.9h-.6v.4l.3.8v-.3h.5v.3l.7.7.2.7v.3l-.6.3-.3.6-.9.8-1.2.6-.4-.3.9-1.1v-.6l-.7-.3v.9l-.9-.5v-1.8c.1 0-.3.3-.3.3v.6c-.1 0-1 .6-1 .6l.9.6v.2h-.5l.2.5-.2.2-.2-.3-.4.3-.3-.4-.4.2v.9l-.8-.4h-1.3c0 .1-.2-.2-.2-.2l.7-.8h-.8Z"/><path id="RU-ULY" d="m85.6 352.4.3.4v.6l.1-.2h.5v-.2l.6-.8.4.7v-.5h.4l.2-.3h.5v.4l.7.4h.6l.4-.1.5-.7h.4l-.4-.2.8-.4.5.4.4 1.2 1.5.3.5 1.4-.3.9-.7.6.3.3h-.1c0 .1-.5 0-.5 0l-.6.4-.4-.3h-.8l.1.2h-.6l-.5.7-1-.4-.2.2.5.3h-.9l.1 1-.6-.2-.4.2-.2.4.5.6v1h.4l.8.6-.5.7H88l-.4.5-.3-.2-.2.8-.5-.2-.5.3-.7-.2h-.3c0 .1-.2-.2-.2-.2h-.6l.5-.8-.2-.5v-2.2l-.6-.6h-.7v-.7l-1-1.6-.3-.2h-.6l.5-.7 2-.9v-.4l-.4-.1.2-.4h-.4l.2-.2-.4-.2.3-.2-.2-.7 1.2.7.4-.4.5.2.3-.3Z"/><path id="RU-VGG" d="m72.9 369.4 1.6 1.1 1.6-.8v.5l.8-.5h.7l.3.2.7-.2.6.3.7 1.1v.7l-.4.3.2.6h1.4c0-.1-.1-.8-.1-.8l.5-.2.7.5v.6l.6-.3h.4c0 .1.5-.6.5-.6l.5.2.7.8h.4l.2.3h.4l-.4.4v.5c-.1 0 .1.4.1.4l-.2.4-1.1.8-.3 2.3.8.8-.2.6-.6.4-.5 1.3-.7-.7-.9-.2-1.4 1.3h-.9l.4.5h-.6c0-.1-.5.7-.5.7l.9.8-1.1-.2-.2.5h-.4c0-.1-.4 0-.4 0v-.6l-.6-.2-.3.6.6.3v.2l-.4.4-.7-.2H76v.5l-.9.5v.9l-1.2.3-.3-.2v-.4l-.6.2-.8-1.7-.8-.6-1.3-.2.2-.6v-.3c-.1 0 .2-.2.2-.2l-.2-.6 1.7-.8.4-1.2-.4-.7-.7-.2-.2-.6h-.8v-1.1l.3-1.5-.9-.7-.7-.2v-.4l-.7-.7.4-.6v-.9l.2-.1-.9-1.1h.5c0-.1.3-.6.3-.6l.7-.3.5-.8h1.2c0 .1 1.6-.5 1.6-.5Z"/><path id="RU-VLA" d="m62.5 341.8.6-.3.7.2-.2.8h.3l.3.8.6.3.3-.5 1.2-.5h.3l.1.5.7.3.4-.3.9.4 1.1-.4v.7l.5.2.7-.6.5.3h.5l.4.8.6.2v.2l-.6.4v.6l-.7.4v.6c-.1 0-1.1 1-1.1 1v1c.1 0-.3.4-.3.4v.7c-.1 0-.5.4-.5.4h-.4l-.2-.1-.5.2-.7-.5-.4.5-.3-.6H67v.3h-.8l-.1-.6-.6.2v-.4h-.3l-.2-.5.2-.4h-.4c0-.1.1-.8.1-.8l-.5-.4v-.5h-.5l-.7.5h-.5v-.6h-.6l-.2-.4h-.6l-.7-.2-.2-1.2-.4-.3v-.7c.1 0-.4-.7-.4-.7l.3-.2-.2-.6h.2l.4.6.7-.3.5.3.6-.2.4.3h.2l.3-1.2Z"/><path id="RU-YAN" d="m144.7 262.9.3.5-.7-.4h.4Zm32.8-31.7-.2.5-.2-.3zm-.3-.8-1.3 1.1-.2.6-2.5.2-.3-.2.3-.6.8-.6.4-1 .8-.8 1.6.4.5 1Zm-32.3 16.7-.3-1.4h-.4l-1.3.7v-.5l-.2-.5.8-1.3v-.3l.3-.2-.7-.4.6-1.4 2.9-2.2 1.3-2 .8-3.4.3-.2-.2-.2.3-1.7h.2v-1.5l.3-1.9h.2l-.2-.3.7-1 .5-1.7h1.2v.2l-.7.3.2.4.8-.3h1.9l.7.1 2.4-.2 1.2.6-.2.3h.3v-.2h.2l2.2 1.3h-.4l.3.6-.3.4.3 1h-.5l.5.1v2.1c.1 0-.6 2-.6 2l-.2 1.5-.5.3v1.5l-.4.4v.7c-.1 0-.8.4-.8.4l-.3.5.6 1.8.6.7 1.2.8v1.1c-.1 0 .6 1.2.6 1.2l-.4 2.5.2 1.7h-.4c0 .1-.6 1.2-.6 1.2l.5.9-.3 1.3.6 1.7-.5 1.4.5 1.4-.2.4-.3-.2.4 1.2-.4.7v.9l.4 1.8 2.4 2.4.4 1v.4-.5h-.2l-.2.8-1 1.2-.2 1.1.5 1.4v.5l-.4.3v.7c.1 0-.6.2-.6.2v.4l-.8.4v.6c-.1 0-.5.4-.5.4v1.1h-.6l-.2.2.2 1.2-.4-.2-.5.3h.4v.6l-.7.7v.5h-.3v.2c-.1 0 0-.5 0-.5h-.3l-.2.2-.4-.5-.2.2.4.3-.8.2-.4.5h-.6l-.2.3-.8.3-.6-.2-.6.2-.5-.9v.4h-.8l-1.7-.8-.3.3-.5-.2-.2.2h.9c0 .1-.5.8-.5.8h.7c0 .1-.1 1.1-.1 1.1l.2.3.7.6 1.1.3.4.5 1.3.5h3c0-.1 1.8.7 1.8.7l.7-.2.5-.7-.3-1h.2-.2l.5-.7 1.3-.4.3-.6 1.4-.7.4-.8.7-.4.3-1.5v-.8l.5-1.2 1.7-1.7.2-2.8-.4-1.5-1-1.3.4-1v-1.8l.9-.7 1.7-.8h.9c0-.1 1.3-.8 1.3-.8h1.2c0-.1.5.8.5.8v1.1l1 1.1v.5c.1 0 .5-.1.5-.1l.5.6h-.3c0 .1.1.9.1.9l-.4.7.6.4-.4 1.1v1.3l.3.5-.2.6h-.3l-.1.2 1.9 1.6-.2 1.9.3-.8.6.6-.2-.9.4-.3.7-.4.3.3.5-.2 2.1 2.1h.5v.3l1 .8.9.2-.4-.3h.4l-.2-.1h-1l-.6-.6v-.3h-.5l-.4-.6-.5-.3-.5-.8v-.4l1.5.8.3.7h.4v.7-.6h-.4c0-.1-.6-1.1-.6-1.1l-1.1-.7v-.2h-.3l-.4.4-.3-.2h.4v-.4h-.3c0 .1-.2-.1-.2-.1v.4l-.3-.2-.7.2-.3-.3h-.4l.3-.2h-.4c0-.1-.1-.5-.1-.5l-.4.4-.6-.3v-.9l.4-.5-.3-.4v-1.1l.7-.9h.8l.5-.3-.9-1.6.2-.3-.5-.3V264l-.5-1.5-1.9-.9-.8-1h-.7l-1.4-.9H169l-.8.7v.4l-1.2.2-.8-.4h-.7l-.8.6-.3-.2-.3-.9.4-1.8-.9-1.8-.2-1.1.6-1.6v-1c.1 0-.2-.4-.2-.4l1.5-2.6.3-1.7-1.2-2.3v-.9l-.5-.7-.4-1.5-.8-1.2-1-.7 1.5-2.2v-1.5c.1 0 3.1-1.8 3.1-1.8l1.4-1.8.2-2.6-.3-2-.6-1.6.6-.7 1.4 1.2-.2.3-.2-.2v.3l.9 1.7h-.3l-.2.4.6 2.2-.6 1-.3 2.1h-.3v-.2.3c-.1 0-.2 1.4-.2 1.4l.7 1.2-.2.6.3.5-.3.8h-.2l-.3.2.2.7 1.8 1.2 4.5.5 1.1.3.4 1.4 1.4.6v-.9c.1 0-.5-.9-.5-.9l.2-1.2-.8-.2-.3.3v-.9h-.1v.2l-.5.2v.3l-.5-.4h-.2l.2.2-.5-.2-.5-.5-.2-.5-1.3-.5-1.1-.9v-.9l-.7-2h-.3c0-.1 1.4-1.5 1.4-1.5l1.2-.3 2.1 2.3h.7l.8-.4.4-.8v-.5l-.8-1h-.7l-.6.5h-.3l.3-1.2-.2-.3.7.2.5-1.1.6-.5h.6l.9.9v-.3l-.5-.4.3-.4.6 1v.5l.8.9.9.6h1.6l1.8 1.2v.7c.1 0-.5.2-.5.2l-.2 1.2-.4.6-.6.3h-1.2v.9l-.4.8.2 1 .6.3 1 1.4 2 .8.6 2.3-.3.9.5.6-.5 1.4.4.5v.4l-.9-.4h-.6l-1.8 1.9-.4.9-.3-.3-.3.2v.6l-1.2 1.6.4 1.1v.7c-.1 0 1.1.3 1.1.3l.6 1.9.9.8h.9l1.2.2 1.3.8.7-.4h.7l.3-.2.2-1.3.8.6-.4 1.4 1.6.4.2.4-.3.4.6 1.9.8 1.1v.5l-.6.4.2 1.1v1.2l-.5.3v.7l-.5.5v1.1l-.5.2-.4-.2-.9.3.5 1 .4.3v.8c.1 0 .9.8.9.8l-.2 1.6-.6.7 3.1 3.1.3 1-.7 1.1v.3l1.5 2.3-.7.9.5.9v.8l.6.4h.6c0-.1 1 .6 1 .6v.3c.1 0-.4.3-.4.3l1.1.6.3 1.5-.9 1.2.3.8-.2.4 1 .3 1.1-.2-.2.5.7.5h.3l.6-.4.4.2.5.4.2 1.3-.3.5.4 1.5v1.4l-1.8 1.4v1.1c-.1 0-.7.6-.7.6v.3l.7.3.3.7h.5l-.2 1.3.2.6-.3 1-1.4 1.6-.4 1.4-1.2 1.7-1.7-2.2h-.4c0-.1-.5.3-.5.3v-.3l-.5.5-.7-.2-.4-.3v-.5l-.9-.3v-.7h-1.2l-.8-.5-.4.3-.2.5h-.5l-.4-.7h-.3c0 .1-.5-.2-.5-.2v-.5l-1.2-1.4-.9.3v.6h-.4l-.8.9-.8.2-.4 1.4h-2l-1.1-.1-2.2.6-1.9-1.3-.7-.7-.3-.8-.9-.5-1.2.4-.3-.4-1.3-.6-3.7.6-1.1-.9H163l-.9-1-.2-.6h-.5l-.7.8h-1.6l-.4.3-1.2.3-.4-2.4-.6-.8h-1.2l-.8-2.1.5-.6v-.4l-1.4-1.3-1.4.2v-.4H151l-.4-.4h-1.1l.3.6-.3 1-1.3-.7-2.1 1.6-.2-.4-1.3.2-.2-.5-1-.5v-.4c-.1 0 .2-1.1.2-1.1l-.4-.6-1.2.4-.7-.5-1.8.2-3.2 1h-1.1l-1.2.7-.5-.5-.2-.8-1.1-.5-.5.3-.9-.6v-.4l.6-.5.3-.7-.4-.9.4-2.7-1.2-.8-.5-1.4-.7-.7 2.1-1.1.4-.8-.2-.4.7-1.2.5-.5h.3c0 .1-.2-.6-.2-.6l.5-1 1.2-.6.6-.8h.8l.8-.6v-.5c.1 0 .9-.2.9-.2l.7-.6-.2-1.3 2.1-2.2 1.1-.7-.2-.8-.7-.3.5-.6.7.2.2-.2-.2-.6-.5-.5.3-.7-.2-.4-1.5.3-.6-.5v-2.5c-.1 0 .3-1 .3-1l.7-1-.4-1v-.4c.1 0-.4-.3-.4-.3v-.4l-.4-.3h-.6l-.7-.6h-.2c0-.1-.1.2-.1.2l-.4-.3v-.9c-.1 0 .3-.3.3-.3v-.9l.5-.8h.6l1 .9 2.1.7 1.1 1.4-1.2-1.3h-.9l-.8-.6.7.7 1.5.5.3.5 2.3.9-.3.2v.3l2.2 2.2h-.3l.2.4.3-.2 1 .7v.4c.1 0-.1.3-.1.3v.5l.4.2v.4c-.1 0 .6-.9.6-.9h.3l-.2-.2.2-.3v-.4l1.5-3.6v-.4l-.5-.2.3-.4-.9.3-.9-.7-1.2-2.8.3-.3v-1.2h-.2v.3l-.2.1-1.4-1.2h-.4l-1-.7-.2.2v.3c.1 0-.2.2-.2.2l.2-.3-.3.3.3.9h-.2l-.3-.5v-2.3l.4-1.5h.2l-.2.5.4.2.5-.2.4-.5-.5-1.6h-.4l.3-1.4.4-.7-.5-.7.5-1.2Zm21.5-23 .6.5-.6-.3-.3 1.4.2.6-.2.3-1.5-1.4.3-.9.4-.3 1.1.2Zm-9.9-2.1.4-.4.6 1.8h-.8l-.8.6h-.6l-1.4.9h-.7l-.3-.6-.2.3.3.5h-.5l.2-4 1.2-.7 1.5-.3 1.1.7.3.9-.3.4Z"/><path id="RU-VLG" d="m51.4 316.4 2.3-1.3.7-1 .6.2.6-.5.9.7 1.2-.2v.7l.6 1.2v.3l.5.3.2.4-.2.7.4.2.3-.4v.8l.6.2.3.6 1.4.3.2-.3h.8c0 .1.3-.3.3-.3l1.1.5 1-.2.4-.5.5.2.3-.2.8.6h.6l.7-.6v-.4c-.1 0 .5-.4.5-.4l.5.5.2-.5.6.5.2-.2.9.7.9-.7.9.9.4-.5.6.3h.4c0-.1.8-1.3.8-1.3l.8-.3h.4l.2.6 2.9.3.2-1.8 1.5.2-.2.8.8.5h.9l.4-.4.4.4h.5l-.2.4.2.2h.8l-.2.6.2 1-.5.6-.3 1.3-1.4.2.3.7.9.5.9-.7-.5 2.1.7.3v.8h-2l-.1 1.4-1 .2-.4.8-1.8-.2v.2H79l-.2.4-1.4-.2h-.6c0 .1-.4-.4-.4-.4h-1.1v-.3l-.7.6v-.7c-.1 0-.6.2-.6.2v.3l-.6-.3-.2.3h-.5l-.2.4-.6-1-.9.4-.3-.8h-.4c0-.1-.3.7-.3.7l.4.3v.7l-1.3.3-.8.7v-.3H68l-.2.4.2.5-.3.3.3.4-.9 1.1-1.3-.2-.2.2h-.4l-.6-.4v-.4l-.8-.9h-.3l-.2-.3h-.4l-1.5-.4-.3 1.3-.7-.2-.6.3h-1.5l.2.3h-.2v.4l-.6-.3v.9h-.3l-1.6-2-.7.3.2.4h-.6c0 .1-.5 1.2-.5 1.2H54l-.5-.2-.5-.9-1.1-.6-.9-.2-.4.6v-.4l-.3.2v-.8c.1 0-.6-.2-.6-.2v-.2l-.6-.3v-.5l.5-.6.2.3 1-.5.3-.8-.2-.3.4-.5v-.6l.3.3v-.5l-.7-.3.2-1.3-1-.4.2-.4-.3-.2.6-2.5-.4-1.4.3-.4h.5c0 .1.2-.1.2-.1v-.3c.1 0-.1-.4-.1-.4l.4-.3v-.9Z"/><path id="RU-VOR" d="m59.3 366 .6-.4h.3c0 .1.2-.3.2-.3h.4l.7.6.3-.5h.8l.3.2v.5l.7.2.6-.2H66l1.2.4.2.8h.7l.3-.4 1.5.3.9.5v-.3h.4l.2.5h.5l.9.6.2.9-1.6.6h-1.2c0-.1-.5.7-.5.7l-.7.3-.3.5h-.5c0 .1.9 1.2.9 1.2h-.3v1l-.4.6v.6c-.1 0-.9.7-.9.7l-.4 1-1.2.5-.9-.2-.2.3-.2-.3-1 .2-.4-.3v-.5h-.8l-.4-.4.4-.8-.4-.6-.3-1.4.2-.3v-.3c-.1 0 .2-.1.2-.1l-.9-.4-.5-.7v-.4h.5v-.6c-.1 0-.4-.2-.4-.2l-.4.3-.6-.2.2-.7-.6-.3v-.9l-.5-.8.8-.2.2.2.3-.3-.4-.2v-.6l-.5-.3Z"/><path id="RU-YAR" d="M57.2 332.2h.2l.1-.9.6.3v-.3h.3l-.2-.4h1.5l.6-.2.7.2.3-1.3 1.5.5h.4l.2.3h.3l.9.9v.4l.5.3h.4l.2-.2 1.3.2.3.2.4.8-1 .9v.3c.1 0-.4.3-.4.3v.6l-.4.3.2.6-.3.5.2.4h-.5l-.3.8.3 1.1h-1l.3.3-.2.3h-.5c0-.1-1.2.7-1.2.7l-.3.3.2.3-.6.5v.4l-.3 1.2h-.2l-.4-.2-.6.2-.5-.3-.7.3-.4-.7-.3-.4-.4-.6v-.4c.1 0-.1-.1-.1-.1l.5-.3v-.6l-.3-.3v-.3l.4-.3v-.4c-.1 0-.9.2-.9.2l-.5-.6v-.8l-.6-.8-.8-.5.2-.3-.2-.2h.4l-.6-.1v-.2l1-.6-.4-.6-.7-.3.4-.4-.2-.2.2-.3h.4v-.6Z"/><path id="RU-YEV" d="M333.6 378.6h.3c0 .1.8-.4.8-.4l.6.2.2-.7h.3c0-.1.7.2.7.2l.3.6.8-.2v.4c.1 0 1.2.2 1.2.2l.3 1.3.5.5 2.2.6.6-.4.5.6h1v.6l-.3.2-.7-.2-.7.5-.7.2-.5.6-1.1.5h-1c0-.1-1 .6-1 .6h-.4l-.3.9-.7-.2-1 .4-.8-.2-.3.2-.4-.4-1.2.2-1.1-1.8.5-.9-.2-.9h-.4l-.3-.5.4-1.1h-.3l.6-.6h.5l.6-1.2h.7Z"/><path id="RU-ZAB" d="M299 340.6v-.8c-.1 0 0-.2 0-.2l-.8-1.4.2-.9h-.6c0-.1-.2.4-.2.4l-.2-1-.3-.2.4-1.8v-1h-.1l-1.3.3-1.3-1.1-1.2-.3-1 .5v.2c-.1 0 .2.2.2.2v.6c.1 0-.3-.2-.3-.2l-.2.2v1.3l-.9.4.3.5-.2.3.5.3-.2.5.3.4v.6h.2l-.1.4.2.2.6-.5.5.3-.6.6.3.5-.4 1.2h-.4l-.4-.6-.5.7h-.4v.2l-.6.2-.9-.2-.5-.4-.5.2-1.1-.6-.5.4v.8l-.4.5.7.4.3.6-.2.6.4 1-.2.8.3.6.2 2.8 1.3.2.6.9.6.4.4 1.1-.4 1.3-.3.4-3.4.7-.3.6-1.8 1.3-.7.3-.4.7-1.5.5-.4.5v1l.3.7.7.3v.5c-.1 0 .4.2.4.2v.6l-.8 1.3-.9.2-.6.7h-1.3c0 .1-.6.6-.6.6h-1l-.6.5-1-.2-1.3 1.6-1.7.7-1.1 1.4h-.7l-.2-.4h-1.1l-1 .8-1.1.4-.6-.4h-1l-.3-.2-.7 1.4.5.4-.8.4v1.2c-.1 0-.6.4-.6.4l1.2.9h.4l-.1.4h-.4c0-.1-1.4.6-1.4.6l-.2.6-.5.4v.4l.7.3v1.1l1.7 1.5h2c0-.1.9.5.9.5l2 .3.5-.4.6.4h.6l1.7-1h1.6l1.7-.8.7.2 1-.6.3-.9.9-.7 2.5-1.4 1.8.4 1.3 1.3h1.1l1.4-.6 1.1.4 1 1 2.7 1 2.1-1.9 1.8-.4.4-.4v-1.1l-.6-.2.4-.3v-.7l.7-.6v-.8l.8-.9v-.6l.5-.6.5-1.5 1.8-1.5v-1.2c.1 0-.3-.5-.3-.5l.3-.9-.8-.5-1.2.3v-.9l.6-.5 1.7-2.1h1l1.9-.7h.6l-.3-.6V357l-.5-.8h-.2l-.3-.4.3-.8v-1.1l.2-.2.3.3.6-.5-.5-.4-.2-1.1-.5.3v-.7l.7-.8v-.6l.3-.3h-.4l.2-1.4-.6-.7-.6.7h-.5c0-.1-.5-2.8-.5-2.8h-1.1l-1.1.6h-1.1v-1.4l1.3-.6-.7-.6v-.4l-.9-.2-.5-.6v-.5c.1 0-.4-.5-.4-.5l.5-.6-.4-.4Z"/></g></svg>