<?xml version="1.0" encoding="UTF-8"?>
<svg id="Layer_1" xmlns="http://www.w3.org/2000/svg" xmlns:amcharts="http://amcharts.com/ammap" version="1.1" viewBox="0 0 512 512">
  <!-- Generator: Adobe Illustrator 29.1.0, SVG Export Plug-In . SVG Version: 2.1.0 Build 142)  -->
  <g id="_x3C_defs">
    <amcharts:ammap bottomLatitude="43.894648" leftLongitude="12.400657" projection="mercator" rightLongitude="12.514129" topLatitude="43.995696"/>
  </g>
  <g>
    <path id="SM-01" d="M171.4,205.9l5.8,1.5,3.7,5.6,3,14.3-2.4,3.7-.3,3.6,3,6-18.1,7.2-25.1-1.6,10,8.8-.2,9.9h0l5.7,19.2-16.5,15.1-4.7,2.6-3.9,3.9-9,4.8-6.8,7.1-4.3,1.1-4.7,3.7-6.9,1.4-5.7,6.6h0l-2.5.6-1.9-2.6-1.9-4.4v-4.9c0,0-4.5-2-4.5-2l.3-4.3-2.2-2.9-13.2-9.2-7.3-3.1-5.9-6.4-2-9.7.8-20.5-2.1-7.9v-11.3s2.1-8.7,2.1-8.7l4.3-3.6,7.7,2.7,8,1.3,5.5,2.9,3.9-1.1,4.5.2,1.7-4.4,9.1-1.6,13.8-21.9,2.9-1.4,5.1.2,5.1,2.3,17.1-1.4,16.7.4,12.3-1.6Z"/>
    <path id="SM-02" d="M154.9,416v5.6c0,0,1.6,1.6,1.6,1.6l5.1,2,2.6,3.3,1.9,4.7,6.6,5,3.7,6.7.5,10.2-8.2,10.7.4,4.2h0l-2.2.9-4.7,4.7-5.8,1.7-6.2-.4-4.4-6.3-2.9,1.4-3.3-.7-9.4,4.8-3.2,6-5.4,4.8-6.9,2.5-12.7,2.4-7.6.4-6.6-2.9-3.3-.4-7.3-4.5-6.9-1.7,5.7-9.8.3-4.3,2.8-5.9,2.6-4.4,4.2-3,1-4-7.6-19.7-9.2-34.6-.8-3.1.6-6.8,2.4-8,4.6-7.5,15-18.1,1.4-3.3-1.3-10.4,2.5-1h0l12.7-2.7h5.8c0,0,5.9,4.4,5.9,4.4l8,.9,3.7,1.7,1.2,5.5,5.5,4.7,6.5-4.5.5,11.6,6.9-3.2h2.2c0,.1-.5,12.9-.5,12.9l-6.5,1.4-5.8-.5-5.8,4.1,2.2,2.2,2.6,6.1v3.2s-3.8,9.6-3.8,9.6v3.2s8.9,8.3,8.9,8.3l8.4,4.4,1.5,4.1Z"/>
    <path id="SM-03" d="M430,139.7v3.9c0,0,5.3,7.9,5.3,7.9l-8.4,21.7,19,28.7h0l-4.3,3.3-6.4,8.1-6.5,4.5-5.4,5.8-5.3,13.6-2.5,3.1-2.6-1.5-8.7.9-1.1-.6,1.4-3-.7-.6-5.4.6-4.8-5.2-6.2-1.8-6.5,2.4-3.3-4.2-3.6,4.6-6.6-1.4-3.6,3.2-2.9.3-2.2,1.6-5.1.5-6.5,4.5-5.8.2-.7,4.3-2.8,6.3.4,4.9-8.6,8.7-5.8,2.7-.2,12.4-7.9,6.1h0l-10.9.4-6.9-1-12.8-6.4-4.4-.2,1.4-5.8-2-10-6.1,3.4,2-10.1-9.5-3.6h-4.4c0,.1-8,2.3-8,2.3l-3.3-3.2v-8.5c-.1,0,7.3-11.4,7.3-11.4l1.4-3.7,1-4.7v-10.6c-.1,0,3.7-8.2,3.7-8.2l1-6.1,2.5-4.1,5-3.3h0l14.5-2.6,8.9-11.9,18.1-7.9.7-2.9,2.5-1.3,2.2.8,5.9,8.2,5.8,1.5,1.9,4.8,4.7,1.6,4.5,7,2.2-.9,5-5.5,3.6-1.8,5.7-7.6,3.6-1.8,4.6-7.5,6.1-3.1,3.2-4.6,3.3,1.1,12.7-1,10.1-5.6,7.3-1.1,7.9-6.5,11.9-3.4Z"/>
    <path id="SM-04" d="M455.9,270.1l-8.3,1.8-4.3,5.4-3.9,8.2-7.3,7.1-.5,5.3-8.9,15.4-1,5.7-2.8,6.3v7.4c.1,0-3.4,8.5-3.4,8.5l-4.7,5.1-6.9,2.8-6.5.7-4.7,2.2-6.4,8.4-.7,3.3-2.5,2.4-5.3,9.7.9,9.4,1.8,1.2v2.1h0l-8,.8-18.9-.9-.6,6.4h-6.2c0,0-.7-.3-.7-.3l-.5-6.7-11-2.8-3.7-7.7-5.8-.5-1.6-11.5-6.1,3.8h0l-3.7-3.5-6.6-2.5-1.5-2.3h0l8.7-4.1,1-2.9,4.7-4-1.5-3.4,3.3-1.7-.5-5.6,1.8-2,2.2-.6v-2.8s-2.7-6.8-2.7-6.8l7.5-9.2,3.9-9.9,4.3-6.8-.2-11.3-6.2,2-5,3.7-11-9.4h0l7.9-6.1.2-12.4,5.8-2.7,8.6-8.7-.4-4.9,2.8-6.3.7-4.3,5.8-.2,6.5-4.5,5.1-.5,2.2-1.6,2.9-.3,3.6-3.2,6.6,1.4,3.6-4.6,3.3,4.2,6.5-2.4,6.2,1.8,4.8,5.2,5.4-.6.7.6-1.4,3,1.1.6,8.7-.9,2.6,1.5,2.5-3.1,5.3-13.6,5.4-5.8,6.5-4.5,6.4-8.1,4.3-3.3h0l6.7,10.2,7.3,27.1.6,13.3-4.5,17.5Z"/>
    <path id="SM-05" d="M305.7,360.9l1.5,2.3,6.6,2.5,3.7,3.5h0l-1.3,8.7,1.6,8.3.4,10.8-3.1,2.1-3.8,4.9-8,4.5v7.9c.1,0,6.8,1.1,6.8,1.1l3.3-6.4,8.5,4.5v6.6l-6,4.7-.7,5.5-2.2,2.8-3.3,1.1-1.2,1.7,10.2,18.5-3,6.6h-5.2l-14,16.2v8.3h-.1l-5,.9-3.2,2.1-2.9-1.5-6.1,5.2-7.6,3.6-2.1,7.3-7.3-2.8-1.8.2-6.9,1.8-5,3.3-9.8-1.4-2.6-2.2-13.9-7-1.5-3.4,1.4-5.8-4-1.3-1.8-1.6-.4-2.1,1.8-2.6-1.5-1.3,2.5-5.9-1.1-2-5.1-4.4-10.3-4.9-4.1-7.3-11.2,2.6-8.2,7.9,2.6,3.2-2.1,2.7-1.4-1.2h-1.8c0,0-2.6,2.5-2.6,2.5l-1.1-2.7-2.5.3h0l-.4-4.2,8.2-10.7-.5-10.2-3.7-6.7-6.6-5-1.9-4.7-2.6-3.3-5.1-2-1.5-1.6v-5.6h0l11.6-4,6.5-.7h13.8s6.9,2.4,6.9,2.4l17.7-9.9,4.4,1,10.2-.7,2.9,1.4,7.4-15.2h0l7.3-.7,11.9-4.1,15.6-3.7,10.4-6.7,11.6-4.4,3.9-4.6,8.6-5.1Z"/>
    <path id="SM-06" d="M273,191.5l-5,3.3-2.5,4.1-1,6.1-3.9,8.2v10.6c.1,0-.9,4.7-.9,4.7l-1.4,3.7-7.5,11.4v8.5c.1,0,3.4,3.2,3.4,3.2l8-2.2h4.4c0-.1,9.5,3.5,9.5,3.5l-2,10.1,6.1-3.4,2,10-1.4,5.8,4.4.2,12.8,6.4,6.9,1,10.9-.4h0l11,9.4,5-3.7,6.2-2,.2,11.3-4.3,6.8-3.9,9.9-7.5,9.2,2.7,6.8v2.8s-2.1.6-2.1.6l-1.8,2,.5,5.6-3.3,1.7,1.5,3.4-4.7,4-1,2.9-8.7,4.1h0l-8.6,5.1-3.9,4.6-11.6,4.4-10.4,6.7-15.6,3.7-11.9,4.1-7.3.7h0l1.8-4.1.6-5.7,5-7.6,3.6-3.2-.4-2.1h0l-.8-4.1h0l-.9-11.5-2.3-8.9-.2-15.8-4.8-2-.8-7.3-1.9-5.1-13.3-14.1-6.2-3.9-17.2-4.9-16.7-1.1-6.7-9.9-6.3-6-1.5-3-5.9-2.6-10.6-2.4h0l.2-9.9-10-8.8,25.1,1.6,18.1-7.2-3-6,.3-3.6,2.4-3.7-3-14.3-3.7-5.6-5.8-1.5h0l5.3-7.6,4.3-2.9,25.6-36.9,3.2-2.1,7.6-2.6h0l13.1,1.8,9.8-1.4,13-6.3,5.4-6.2,5.8-2.7,6.3,5-1,8.2-9.3,11.5,5.9,7.5-5.3,8,8.4,6.2,3.4,6Z"/>
    <path id="SM-07" d="M150.9,264.8l10.6,2.4,5.9,2.6,1.5,3,6.3,6,6.7,9.9,16.7,1.1,17.2,4.9,6.2,3.9,13.3,14.1,1.9,5.1.8,7.3,4.8,2,.2,15.8,2.3,8.9.9,11.5h0l.8,4.1h0l.4,2.1-3.6,3.2-5,7.6-.6,5.7-1.8,4.1h0l-7.4,15.2-2.9-1.4-10.2.7-4.4-1-17.7,9.9-6.9-2.4h-13.8s-6.5.7-6.5.7l-11.6,4h0l-1.5-4.1-8.4-4.4-8.8-8.3v-3.2s3.8-9.6,3.8-9.6v-3.2s-2.7-6.1-2.7-6.1l-2.2-2.2,5.8-4.1,5.8.5,6.5-1.4.5-12.8h-2.2c0-.1-6.9,3-6.9,3l-.5-11.6-6.5,4.5-5.5-4.7-1.2-5.5-3.7-1.7-8-.9-5.9-4.3h-5.8c0,0-12.7,2.6-12.7,2.6h0l-.9-8.4h0l5.7-6.6,6.9-1.4,4.7-3.7,4.3-1.1,6.8-7.1,9-4.8,3.9-3.9,4.7-2.6,16.5-15.1-5.7-19.2Z"/>
    <path id="SM-08" d="M317.4,369.3l6.1-3.8,1.6,11.5,5.8.5,3.7,7.7,11,2.8.5,6.7.7.3h6.2c0,0,.6-6.3.6-6.3l18.9.9,8-.8h0l-1.1,2.9,1.2,5.2-.9,10.7,1.8,1.6v3.5c0,0,3,0,3,0l2.6,1.5v4.2c0,0-8.5,9.4-8.5,9.4l-1,5.7-3.2,8.1-8.9,14.7-3.1,11.3-2.3,14.7-43.6,2.4-13.8,3.2-6.7.3h0v-8.3c.1,0,14.2-16.2,14.2-16.2h5.2l3-6.6-10.2-18.5,1.2-1.7,3.3-1.1,2.2-2.8.7-5.5,6-4.7v-6.6l-8.5-4.5-3.3,6.4-6.7-1.1v-7.9c-.1,0,7.9-4.5,7.9-4.5l3.8-4.9,3.1-2.1-.4-10.8-1.6-8.3,1.3-8.7Z"/>
    <path id="SM-09" d="M454.4,21.6l2.4,17.9-4.4.8-5,3-10.3,15.9,2.3,6.8,2.1,18.5,3.8,9.1v3.9c0,0-10.7,9.6-10.7,9.6l-10.2,1.7,3.1,12,2.5,18.8h0l-11.9,3.4-7.9,6.5-7.3,1.1-10.1,5.6-12.7,1-3.3-1.1-3.2,4.6-6.1,3.1-4.6,7.5-3.6,1.8-5.7,7.6-3.6,1.8-5,5.5-2.2.9-4.5-7-4.7-1.6-1.9-4.8-5.8-1.5-5.9-8.2-2.2-.8-2.5,1.3-.7,2.9-18.1,7.9-8.9,11.9-14.5,2.6h0l-3.4-6-8.4-6.2,5.3-8-5.9-7.5,9.3-11.5,1-8.2-6.3-5-5.8,2.7-5.4,6.2-13,6.3-9.8,1.4-13.1-1.8h0l11.4-14.2,62.5-50.6,6.5-3.8,5.8-2,3.6-3.9,6.5-3.5,8.3-1.6,10.8-6.4,12-.5,4.7-1.5,13.3-11.3h10.5s2.5-3.1,2.5-3.1l4.3-2.9,3.2-6.3,3.2-3.5,7.6-.8,4-3.6,5.1-.5,3.2-1.7,3.9-5.7-1.5-2.3.3-1.8,4-1.8,1.4-4.7,2.2-1.6h4c0,0,2.8-4.6,2.8-4.6l4,.6,2.9-4.5h1.1c0,0,3,5.6,3,5.6l1.4.2,1.8-2.3,2.6-.3,3.3,2.5,2.6.4,1.8-1.6.3-5,2.2-.9,2.2.8,1.7,16.6Z"/>
  </g>
</svg>