<svg xmlns="http://www.w3.org/2000/svg" xmlns:amcharts="http://amcharts.com/ammap" id="Layer_1" viewBox="0 0 512 512"><g id="_x3C_defs"><amcharts:ammap bottomLatitude="43.895" leftLongitude="12.401" projection="mercator" rightLongitude="12.514" topLatitude="43.996"/></g><g><path id="SM-01" d="m171.4 205.9 5.8 1.5 3.7 5.6 3 14.3-2.4 3.7-.3 3.6 3 6-18.1 7.2-25.1-1.6 10 8.8-.2 9.9 5.7 19.2-16.5 15.1-4.7 2.6-3.9 3.9-9 4.8-6.8 7.1-4.3 1.1-4.7 3.7-6.9 1.4-5.7 6.6-2.5.6-1.9-2.6-1.9-4.4v-4.9l-4.5-2 .3-4.3-2.2-2.9-13.2-9.2-7.3-3.1-5.9-6.4-2-9.7.8-20.5-2.1-7.9v-11.3l2.1-8.7 4.3-3.6 7.7 2.7 8 1.3 5.5 2.9 3.9-1.1 4.5.2 1.7-4.4 9.1-1.6 13.8-21.9 2.9-1.4 5.1.2 5.1 2.3 17.1-1.4 16.7.4 12.3-1.6Z"/><path id="SM-02" d="M154.9 416v5.6l1.6 1.6 5.1 2 2.6 3.3 1.9 4.7 6.6 5 3.7 6.7.5 10.2-8.2 10.7.4 4.2-2.2.9-4.7 4.7-5.8 1.7-6.2-.4-4.4-6.3-2.9 1.4-3.3-.7-9.4 4.8-3.2 6-5.4 4.8-6.9 2.5-12.7 2.4-7.6.4-6.6-2.9-3.3-.4-7.3-4.5-6.9-1.7 5.7-9.8.3-4.3 2.8-5.9 2.6-4.4 4.2-3 1-4-7.6-19.7-9.2-34.6-.8-3.1.6-6.8 2.4-8 4.6-7.5 15-18.1 1.4-3.3-1.3-10.4 2.5-1 12.7-2.7h5.8l5.9 4.4 8 .9 3.7 1.7 1.2 5.5 5.5 4.7 6.5-4.5.5 11.6 6.9-3.2h2.2c0 .1-.5 12.9-.5 12.9l-6.5 1.4-5.8-.5-5.8 4.1 2.2 2.2 2.6 6.1v3.2l-3.8 9.6v3.2l8.9 8.3 8.4 4.4 1.5 4.1Z"/><path id="SM-03" d="M430 139.7v3.9l5.3 7.9-8.4 21.7 19 28.7-4.3 3.3-6.4 8.1-6.5 4.5-5.4 5.8-5.3 13.6-2.5 3.1-2.6-1.5-8.7.9-1.1-.6 1.4-3-.7-.6-5.4.6-4.8-5.2-6.2-1.8-6.5 2.4-3.3-4.2-3.6 4.6-6.6-1.4-3.6 3.2-2.9.3-2.2 1.6-5.1.5-6.5 4.5-5.8.2-.7 4.3-2.8 6.3.4 4.9-8.6 8.7-5.8 2.7-.2 12.4-7.9 6.1-10.9.4-6.9-1-12.8-6.4-4.4-.2 1.4-5.8-2-10-6.1 3.4 2-10.1-9.5-3.6h-4.4c0 .1-8 2.3-8 2.3l-3.3-3.2v-8.5c-.1 0 7.3-11.4 7.3-11.4l1.4-3.7 1-4.7v-10.6c-.1 0 3.7-8.2 3.7-8.2l1-6.1 2.5-4.1 5-3.3 14.5-2.6 8.9-11.9 18.1-7.9.7-2.9 2.5-1.3 2.2.8 5.9 8.2 5.8 1.5 1.9 4.8 4.7 1.6 4.5 7 2.2-.9 5-5.5 3.6-1.8 5.7-7.6 3.6-1.8 4.6-7.5 6.1-3.1 3.2-4.6 3.3 1.1 12.7-1 10.1-5.6 7.3-1.1 7.9-6.5 11.9-3.4Z"/><path id="SM-04" d="m455.9 270.1-8.3 1.8-4.3 5.4-3.9 8.2-7.3 7.1-.5 5.3-8.9 15.4-1 5.7-2.8 6.3v7.4c.1 0-3.4 8.5-3.4 8.5l-4.7 5.1-6.9 2.8-6.5.7-4.7 2.2-6.4 8.4-.7 3.3-2.5 2.4-5.3 9.7.9 9.4 1.8 1.2v2.1l-8 .8-18.9-.9-.6 6.4h-6.2l-.7-.3-.5-6.7-11-2.8-3.7-7.7-5.8-.5-1.6-11.5-6.1 3.8-3.7-3.5-6.6-2.5-1.5-2.3 8.7-4.1 1-2.9 4.7-4-1.5-3.4 3.3-1.7-.5-5.6 1.8-2 2.2-.6v-2.8l-2.7-6.8 7.5-9.2 3.9-9.9 4.3-6.8-.2-11.3-6.2 2-5 3.7-11-9.4 7.9-6.1.2-12.4 5.8-2.7 8.6-8.7-.4-4.9 2.8-6.3.7-4.3 5.8-.2 6.5-4.5 5.1-.5 2.2-1.6 2.9-.3 3.6-3.2 6.6 1.4 3.6-4.6 3.3 4.2 6.5-2.4 6.2 1.8 4.8 5.2 5.4-.6.7.6-1.4 3 1.1.6 8.7-.9 2.6 1.5 2.5-3.1 5.3-13.6 5.4-5.8 6.5-4.5 6.4-8.1 4.3-3.3 6.7 10.2 7.3 27.1.6 13.3-4.5 17.5Z"/><path id="SM-05" d="m305.7 360.9 1.5 2.3 6.6 2.5 3.7 3.5-1.3 8.7 1.6 8.3.4 10.8-3.1 2.1-3.8 4.9-8 4.5v7.9c.1 0 6.8 1.1 6.8 1.1l3.3-6.4 8.5 4.5v6.6l-6 4.7-.7 5.5-2.2 2.8-3.3 1.1-1.2 1.7 10.2 18.5-3 6.6h-5.2l-14 16.2v8.3h-.1l-5 .9-3.2 2.1-2.9-1.5-6.1 5.2-7.6 3.6-2.1 7.3-7.3-2.8-1.8.2-6.9 1.8-5 3.3-9.8-1.4-2.6-2.2-13.9-7-1.5-3.4 1.4-5.8-4-1.3-1.8-1.6-.4-2.1 1.8-2.6-1.5-1.3 2.5-5.9-1.1-2-5.1-4.4-10.3-4.9-4.1-7.3-11.2 2.6-8.2 7.9 2.6 3.2-2.1 2.7-1.4-1.2H176l-2.6 2.5-1.1-2.7-2.5.3-.4-4.2 8.2-10.7-.5-10.2-3.7-6.7-6.6-5-1.9-4.7-2.6-3.3-5.1-2-1.5-1.6v-5.6l11.6-4 6.5-.7h13.8l6.9 2.4 17.7-9.9 4.4 1 10.2-.7 2.9 1.4 7.4-15.2 7.3-.7 11.9-4.1 15.6-3.7 10.4-6.7 11.6-4.4 3.9-4.6 8.6-5.1Z"/><path id="SM-06" d="m273 191.5-5 3.3-2.5 4.1-1 6.1-3.9 8.2v10.6c.1 0-.9 4.7-.9 4.7l-1.4 3.7-7.5 11.4v8.5c.1 0 3.4 3.2 3.4 3.2l8-2.2h4.4c0-.1 9.5 3.5 9.5 3.5l-2 10.1 6.1-3.4 2 10-1.4 5.8 4.4.2 12.8 6.4 6.9 1 10.9-.4 11 9.4 5-3.7 6.2-2 .2 11.3-4.3 6.8-3.9 9.9-7.5 9.2 2.7 6.8v2.8l-2.1.6-1.8 2 .5 5.6-3.3 1.7 1.5 3.4-4.7 4-1 2.9-8.7 4.1-8.6 5.1-3.9 4.6-11.6 4.4-10.4 6.7-15.6 3.7-11.9 4.1-7.3.7 1.8-4.1.6-5.7 5-7.6 3.6-3.2-.4-2.1-.8-4.1-.9-11.5-2.3-8.9-.2-15.8-4.8-2-.8-7.3-1.9-5.1-13.3-14.1-6.2-3.9-17.2-4.9-16.7-1.1-6.7-9.9-6.3-6-1.5-3-5.9-2.6-10.6-2.4.2-9.9-10-8.8 25.1 1.6 18.1-7.2-3-6 .3-3.6 2.4-3.7-3-14.3-3.7-5.6-5.8-1.5 5.3-7.6 4.3-2.9 25.6-36.9 3.2-2.1 7.6-2.6 13.1 1.8 9.8-1.4 13-6.3 5.4-6.2 5.8-2.7 6.3 5-1 8.2-9.3 11.5 5.9 7.5-5.3 8 8.4 6.2 3.4 6Z"/><path id="SM-07" d="m150.9 264.8 10.6 2.4 5.9 2.6 1.5 3 6.3 6 6.7 9.9 16.7 1.1 17.2 4.9 6.2 3.9 13.3 14.1 1.9 5.1.8 7.3 4.8 2 .2 15.8 2.3 8.9.9 11.5.8 4.1.4 2.1-3.6 3.2-5 7.6-.6 5.7-1.8 4.1-7.4 15.2-2.9-1.4-10.2.7-4.4-1-17.7 9.9-6.9-2.4h-13.8l-6.5.7-11.6 4-1.5-4.1-8.4-4.4-8.8-8.3v-3.2l3.8-9.6V383l-2.7-6.1-2.2-2.2 5.8-4.1 5.8.5 6.5-1.4.5-12.8h-2.2c0-.1-6.9 3-6.9 3l-.5-11.6-6.5 4.5-5.5-4.7-1.2-5.5-3.7-1.7-8-.9-5.9-4.3h-5.8l-12.7 2.6-.9-8.4 5.7-6.6 6.9-1.4 4.7-3.7 4.3-1.1 6.8-7.1 9-4.8 3.9-3.9 4.7-2.6 16.5-15.1-5.7-19.2Z"/><path id="SM-08" d="m317.4 369.3 6.1-3.8 1.6 11.5 5.8.5 3.7 7.7 11 2.8.5 6.7.7.3h6.2l.6-6.3 18.9.9 8-.8-1.1 2.9 1.2 5.2-.9 10.7 1.8 1.6v3.5h3l2.6 1.5v4.2l-8.5 9.4-1 5.7-3.2 8.1-8.9 14.7-3.1 11.3-2.3 14.7-43.6 2.4-13.8 3.2-6.7.3v-8.3c.1 0 14.2-16.2 14.2-16.2h5.2l3-6.6-10.2-18.5 1.2-1.7 3.3-1.1 2.2-2.8.7-5.5 6-4.7v-6.6l-8.5-4.5-3.3 6.4-6.7-1.1v-7.9c-.1 0 7.9-4.5 7.9-4.5l3.8-4.9 3.1-2.1-.4-10.8-1.6-8.3 1.3-8.7Z"/><path id="SM-09" d="m454.4 21.6 2.4 17.9-4.4.8-5 3-10.3 15.9 2.3 6.8 2.1 18.5 3.8 9.1v3.9l-10.7 9.6-10.2 1.7 3.1 12 2.5 18.8-11.9 3.4-7.9 6.5-7.3 1.1-10.1 5.6-12.7 1-3.3-1.1-3.2 4.6-6.1 3.1-4.6 7.5-3.6 1.8-5.7 7.6-3.6 1.8-5 5.5-2.2.9-4.5-7-4.7-1.6-1.9-4.8-5.8-1.5-5.9-8.2-2.2-.8-2.5 1.3-.7 2.9-18.1 7.9-8.9 11.9-14.5 2.6-3.4-6-8.4-6.2 5.3-8-5.9-7.5 9.3-11.5 1-8.2-6.3-5-5.8 2.7-5.4 6.2-13 6.3-9.8 1.4-13.1-1.8 11.4-14.2 62.5-50.6 6.5-3.8 5.8-2 3.6-3.9 6.5-3.5 8.3-1.6L333 68l12-.5 4.7-1.5L363 54.7h10.5l2.5-3.1 4.3-2.9 3.2-6.3 3.2-3.5 7.6-.8 4-3.6 5.1-.5 3.2-1.7 3.9-5.7-1.5-2.3.3-1.8 4-1.8 1.4-4.7 2.2-1.6h4l2.8-4.6 4 .6 2.9-4.5h1.1l3 5.6 1.4.2 1.8-2.3 2.6-.3 3.3 2.5 2.6.4 1.8-1.6.3-5 2.2-.9 2.2.8 1.7 16.6Z"/></g></svg>