<svg xmlns="http://www.w3.org/2000/svg" xmlns:amcharts="http://amcharts.com/ammap" id="Layer_1" viewBox="0 0 512 512"><g id="_x3C_defs"><amcharts:ammap bottomLatitude="45.423" leftLongitude="13.373" projection="mercator" rightLongitude="16.594" topLatitude="46.876"/></g><g><path id="SI-JP" d="m40.2 331.2 8.4-.4 2.1.9h3.9l1.3-4.2h1.8l2-1.8.6-2.8-.4-1.6 4.6 1.3 2.9 2.1.8 1.4 2.7 1.6 3.4-.2v-1.6l.8.1.6-.8 3 1.4 1.1 2.2 1.5.6h2.3c0 .1 3.3-.9 3.3-.9l-.2 1h.9v1.6h.7l.8 1.6 4.4 3.6 2.2 1.1 1-.2.3.7h.9l5.4 3.4-.5 1.6 1.6-.8.8-1.4 2.2.4 2.6 2.1 1.1 1.9 3.4.4 2.2 1.5-.5.9.6 1.2 1.3-.3v.9l-1.1.3 1.3.5.3 2.6-.5.9-2.3-.3-.3.9h-.8l.2 1.5-1 1.5-.2 1.6 2 1.3-.2 2.5.6.9-1 3 1.5 1.1.3 2.3-.9 1.5 2.5 1.6-.6 1.7 2.6 1.2-1.1 8.1-1.1.8-.7 4.7 2.9.6-1.8 3.4-.6 3.3-2 1.9 4.5 1 .3 1 1.2.5.4-1.2 1-.3-.4 1.6.8 3.1-.8.2v.7l-2.4-1.1h-4.1c0 .1-2.7-.5-2.7-.5l-3.9-3.2h-1.2l-4.5-4.4h-2l-.3 2.5-3.9-1.5-1.8 2.2 1 1.7 1.9.8 2 2.2-.7.2.6 1.1-.9 1.9.4 2.8-2.4 2-3.2-2-6.4 1.1-2 3.1-1.4 1-.3 1.7-1.2.2-2.1-.4-1.7.4-.5-1.4-1.4-.5h-4.2l-.3-1.4-1.5-.5.7-2.4-.8-1.1-2.2-1.2-3.3-.2-1.4-1.5-2.5.3-1.8 2.5-2.9.5-4.5 2.9-4.3-3.4-6.4-1.6-1.9-1.4-1.4-1.4 1.2-1.9-1.2-2.4h.7c0-.1.1-1.1.1-1.1h1.4-.7l.5-.5-.7-1.6-3.5-.5-1.1-3.5 2.5 1 3.3.2 1.1-.8-.5-.8-.5.6v-1.6l2-.5 4.8 1.7 1.9-.6v-1.7l2.1.6.7-1.3 1.6-.7h2.7l2.5 1 .6-1.2 2.2-.8-.9-.2.2-.7 2.1-.2-2-.3.5-1 1.4-.2v-.7l-6.4-4.6.2-.8 6.1-1.3 7.5 3.9 6.5-.4 4.3-3.7.7-2.4 4.9-2.8 2.6-2.5-1.6-1.5-3.6-1.6-3.3-2.9-4.7-6.4-.3-4.7-3.8-3.4-2.1-4.5-3.2-.8-1.9-1.6-2.6.3-1.7-1.1.4-.6-4.4-2.5-4.8-4.6-.8.4-.8-1.8-4.4.7.2-1-3 1.5-.3-1-3.7-1.7v-1.8Z"/><path id="SI-NO" d="m124 319.1.6-.6h1.6l1-.9 1 1.1 4.4-.9 3.2 2h1c0-.1 1.3 1.8 1.3 1.8l2.9-.2-.2.9 1.9 1.2 1.4-1.4-.2.9h2l1.1 1.1 3.6-7.7v-1.1c-.1 0 1.3-1.3 1.3-1.3l1.3-.3 4.6 1.6 1.5 3.6h1c0-.1.6.8.6.8l1.4-1.4 2.1 1.8.8 1.9h.6l.8-1.9 1.2-.6 1.2.3 2.9 4 1.4-.8 1.5-3.3 1.9.6 3.8-2.6 1.1 2-.2 1.6-.9.5v1.2c.1 0 1.8 2.1 1.8 2.1l-.4.7 2.9 2.9 1.2 2.8 2.7.4.5 2.7 1.7 1.1.5 1.2-3 .5 1.3 1.8 2.4.3-1 4.8 1.1.7.9 3.4-3.1.6-1.6-3.6-1.4.6.4 2.4 3.2 6.9.7 7.5h1.1c0 .1-1.1 5-1.1 5l-3.8 6.6-2.1 2.2-4.2 1 .5 4-1.2 3-.5 6-1.1 2-7.2 5-1.5 1.8-2.3-.6v.7l-2.3.5-1.1 2.2-4.4 1.8h-3.2l-2.9 2.7-1.6-2.8h-2.1l-2.7-2.2-1.8.2-1.7 1.3-2.8-4.3-3.6 1.2-2.6 4v2.7c-.1 0-3.8-1.5-3.8-1.5l-2.7-.4-5.1 1.2v-.7l.8-.2-.8-3.1.4-1.6-1 .3-.4 1.2-1.2-.5-.3-1-4.5-1 2-1.9.6-3.3 1.8-3.4-2.9-.6.7-4.7 1.1-.8 1.1-8.1-2.6-1.2.6-1.7-2.5-1.6.9-1.5-.3-2.3-1.5-1.1 1-3-.6-.9.2-2.5-2-1.3.2-1.6 1-1.5-.2-1.5h.8l.3-.9 2.3.3.5-.9-.3-2.6-1.3-.5 1.1-.3v-.9l-1.3.3-.6-1.2.5-.9-2.2-1.5-3.4-.4-1.1-1.9.8-2.5h1.1l.4-6.2 1.2-.6.5.9.4-2.7-2.9-5.9 8.2-2.6-.2-.7 1.4-2 3.1-2.1Z"/><path id="SI-SP" d="m49.4 191.9.3.7 4.2.4-.4 1.7.6.7 8.7-3.1 2.3 2.8 4.1 1.2 1.7 1.7 3.2 1.1.3 4.9 1.5 1.7h1.6c0-.1.3.7.3.7l-2.1 3.5-2.3.4-.8.8-2-.2-1.7 1.7-5.2 1.7-.6 1.1.6 4.2-3.3 2.8 1.2 1.1-.3 1.1 1.1 2.2 1.6.9 1.4 2.5 1.9.4 4.1 4.4 6.3 3.8 3.4 2.8 8.2-.7 6.5-2.2 7.4-1.5v.7l1.5 1 .2 2.4-.5 1.7-1.3.5-1.2 2.5-.4 3.1.7 2.2 1.8.7 2.2-1 1.8.7 1.7-.8 5.6 1.7-.6 3.3-2.1 2.5.3 1.5-2.1 2.5-.3 1.9-1.9 1.3-1.3 2.3-.5 2.7 1.9 3.1 7.2 4.9.8 2.3-.5.4 1.2.3-1.4 2.2 3.7-1.8.5 3.2.8.8-.5 1.3 1.3.3 1.3 1.3h2.5c0 .1.9.6.9.6l-.7 1 .4 1.2h-.9l-1 2.7h-2.8v1.3l-.8.4.3 1.6 1.5-.6-.4 1.3.5 2.5-1.1.7-.3 2.6-2.1 1.3.6 4.7 2.8 2.8 1.4 6-3.1 2.1-1.4 2 .2.7-8.2 2.6 2.9 5.9-.4 2.7-.5-.9-1.2.6-.4 6.3h-1.1l-.8 2.4-2.6-2.1-2.2-.4-.8 1.4-1.6.8.5-1.6-5.4-3.4h-.9l-.3-.6-1 .2-2.2-1.1L89 333l-.8-1.6h-.7v-1.5h-.9l.2-1.1-3.3 1h-2.3c0-.1-1.5-.8-1.5-.8l-1.1-2.2-3-1.4-.6.8h-.7v1.4l-3.4.2-2.7-1.6-.8-1.4-2.9-2.1-4.6-1.3.4 1.6-.6 2.8-2 1.8h-1.8l-1.3 4.2h-3.9l-2.1-.9-8.4.4-1.5-5-1.6-.8v-2.2l2.6-4.7-.7-1.9 1-1.9 2.2-1.7 2.2-5.4 2.2-2.8-.6-3.5 1.6-6.9-1.2-1-2.9 1.6-3.8-1.7-2.2 1.7-1.8 2.8-2.1-.2-1 1h-1.8l-3.5-3.2h-1.4l-2.4-4-1.9-1.9 1.6-1.8 1.8-.2 1.4-2.5.5-3.1-.4-1-1.2-.5v-2.2c.1 0 1-.9 1-.9l4-1.3 2.1-3.1 4.5-1.9 3.6-3.3 1.1-1.9 3.2-2.2 3.2-3.5 1.6-3.2v-1.9c-.1 0 1-1.2 1-1.2l.6-2.2-1.2-2-3.2-1.3-3.5 1.7-.5-.4.4-.8H40l-.3-.5-2.8 1.5-.8-.8v-1.5l-1.1-2.2-4.5-2-.4-1.2-1.9.8h-2.4l-.9-1.3-1.6-.7-2.9.3-2.8-.7v2.8l-3.7 1.4-1.9-.9-.5-1 1-1.8-.6-.9 1.9-1.5-4.1-4.8-1.7-7.7H6.7l-.5-1.7 4.3-.6 2-1.8v-1.5l1.2-1.3 2.7-.6 1.3-2.5-1.8-4.5.4-1.1 2.2-.6 2.6.4 2.4-2 1.7-.2 2.1-1.4.8.2.2-1.3 1.6-1.2h1.3c0 .1 4.8-2.5 4.8-2.5l1.7-2.7.9-4.4 2.2-1.8 8.2-1.9.7 1Z"/><path id="SI-GO" d="m62.8 174.8 4.9.2 3.6 2.3 2.7-.2 3.2-3 .9.8 2.3.4 4.5-1.8 2.5.8 2.1-.5 6.3 3 2.8 2.6.9-.4 1.9 1.1.3 1.3 2.8 1.4h2l2.2-2.2 2.5-.3 6.7 1.8 1 1.3 2.5.4 3 4.5v1.6l2.5 1.5.8 2 1.8.2 3.5-2 3.2.7 1-.8 1.5 1.8 1.5.6 7.3-2.4 4.2 3 3-.4 2-1.4 4.1-.5 1.7.4 2.6-1.5 4.9-.2 1 1.4-.8.2v1c-.1 0 1.3 1.1 1.3 1.1l.9 1.7h3.1l1.7.5.3 1.1 2.2.3 2.5-2.9 2 .3 2.9 3.1v1.2l1.8 2.5 1 4.2.7.6 2.1-.7v.2l-.7.9-3.2.9 1.9 2.7-1.9 3.7 2.5 2.2-2.9 3.3 2.3 4-.7 1.5 2.3.9-.4 1.2 1.5 1.6h-2.7c0 .1-.9 1.4-.9 1.4v.6l2.3.7-.4 1 1.2 1.9-3.8 3v1.4c.1 0-1.1 1.7-1.1 1.7l-2.1 2h-2.1c0 .1-2.3 3.2-2.3 3.2l-6.1-1-.4.5 1.4 1-1.7 1-4.1.2-4-.2.9 3.2 1.6 1.6-3.8 2.2h-2.2l.2 1.7-.6.9-.7-.3v-1.1l-1.8-.2v1.1l-.6.3-.7-.6-1.2 2.2-2.6 1.2-.4 2.8 1.5 1.4.2 1.7-.8 1.8-2 .2-1.2-1.1-1.6.4-6.3-1-1.8 2.4h-3.2l-1.8 1.9-1 2.2.3 3.9-1.4 1.7-.4 2.1-3.7 3.3v1.5h-2.6v1l-1.5.4v1.4c.1 0-1.6.7-1.6.7h-2.5c0-.1-1.3-1.5-1.3-1.5l-1.3-.3.5-1.3-.8-.8-.5-3.2-3.7 1.8 1.4-2.2-1.2-.3.5-.4-.8-2.3-7.2-4.9-1.9-3.1.5-2.7 1.3-2.3 1.9-1.3.3-1.9 2.1-2.5-.3-1.5 2.1-2.5.6-3.3-5.6-1.7-1.7.8-1.8-.7-2.2 1-1.8-.7-.7-2.2.4-3.1 1.2-2.5 1.3-.5.5-1.7-.2-2.4-1.6-1v-.7l-7.3 1.5-6.5 2.2-8.2.7-3.4-2.8-6.3-3.8-4.1-4.4-1.9-.4-1.4-2.5-1.6-.9-1.1-2.2.3-1.1-1.2-1.1 3.3-2.8-.6-4.2.6-1.1 5.2-1.7 1.7-1.7 2 .2.8-.8 2.3-.4 2.1-3.5-.3-.8h-1.6c0 .1-1.5-1.6-1.5-1.6l-.3-4.9-3.2-1.1-1.7-1.7-4.1-1.2-2.3-2.8-8.7 3.1-.6-.7.4-1.7 1.6-1.3.9-3.5-.8-1.9 2.3-2.8-.9-1.1.5-1.7-.5-1.7 1.8-2.1v-2.6l1.1-.7 2.9 1.3Z"/><path id="SI-LJ" d="m192.7 206.8 3.8 2.5.8-.9 3.3.2 3.5-1.3-.2 7.1 2.8 3.1h1.9l.6.9v5.5l1.3.5 3.1-.8v1.4c.1 0-1.2 2.6-1.2 2.6l1.3 1.9v1.6l-1.2 2.2 1.1 1.9h3.7l4.2 1.4 1-.6 2.1.7 3.6-1.2 7.9.6 6.9 4.7 1.1-.4 1 2.7 1.9.3-.8 1-.9-.3-.6 1.4-1.4.2.2 4.2-1.8 1.1v1.4l-2.9-.7-3.1 1.6-5.6.2.6.9 1.5.3v1.1c-.1 0 2.5 2.5 2.5 2.5l-1 2.2v1.7c.1 0 6.8-.9 6.8-.9l1.1.5.8 1-.5 2.3.7 2.1 2.2 2.3 1.7.2 5.2-.4 3.1-3.8 3.3-1.5 1.8 2.9-.5 1-2.2.2 1.1 1.7v1.8l1.1.6-2.1.8.6 1.2 4.4 2.3 7.9-1.5.8 1.8 1.9.5.2 1.9 3.1 5h-2.5l.4-.7-1.3-.4-1.4 1.2-.6 1.8-2.5-1-.7-.9-4.3-.2-.5 1.1.8.4.9 2.7-.5 1.2-2.4 1.2.4 1.4-.7.6-1.5-.2-.2.6h-.8l-1.9-1.4-2.4.2-1.1-1.3-2-.3-1.4.9-.2 2.6-2.4.8h-2c0 .1-1.3-1.1-1.3-1.1l-1.5-2.2v-2.1h-1.3l-.8-2.4-1.2-.6-1.4.9v1.7l-1 1.2-2.9-.4-2.5.5-.6-1-.9.8-2.2-1.9-1.3 1.5H225c0 .1-.1 1.5-.1 1.5l-2 1.4-1.9-.8-1.2 1.7.5.8h-1c0 .1-1.4 2.1-1.4 2.1v1.9l-.7-.3-1 1 .5 1.1-.8.2-1.1 2.6 1.1 1.3.7-.8.7.9.4-.5 1.4.6-.8.9 1 4.1 2.3 3.4-1.2.5-.2 2.6.9 1.8 1.8 1.1 1.3 3.1-1.2.4-.5 1.4-1.2.8.2 4.9 1.5-.8.7 2.1 2.2 1.2-.4 2.8 2.4.7 1 1.1-.8 4.7 1.7 3.9 2.7.6.7-1.7h.6l.6 1.7 2.9-.8 2 1.4-.4 7.9-1.9 2-1.5-1.6-1.2.2-1.2-.8-10.1-9.5-.7.5-.4-.4-1.3-1.9-.8-2.8-5.3-3.8-.3-1.3-2.1-2.1-2.2-.4-1.7 2.3-1.8.6-1 1.3-8-.8-.6 1.2-4.3-.4-.5 1-.5-1.2-1.7-1.1-.5-2.7-2.7-.4-1.2-2.8-2.9-2.9.4-.7-1.7-2.1v-1.2c-.1 0 .7-.5.7-.5l.2-1.6-1.1-2-3.8 2.6-1.9-.6-1.5 3.3-1.4.8-2.9-4-1.2-.3-1.2.6-.8 1.9h-.6l-.8-1.9-2.1-1.8-1.4 1.4-.6-.9h-1c0 .1-1.5-3.5-1.5-3.5l-4.6-1.6-1.3.3-1.4 1.3v1.1c.1 0-3.5 7.7-3.5 7.7l-1.1-1.2h-2l.2-.8-1.4 1.4-1.9-1.2.2-.9-2.9.2-1.3-2h-1c0 .1-3.2-1.8-3.2-1.8l-4.4.9-1-1.1-1 1h-1.6l-.6.6-1.4-6-2.8-2.8-.6-4.7 2.1-1.3.3-2.6 1.1-.7-.5-2.5.4-1.3-1.5.6-.3-1.6.8-.4V295h2.8l1-2.6h.9l-.4-1.3.7-1-.9-.5 1.7-.7v-1.4c-.1 0 1.3-.4 1.3-.4v-1h2.6v-1.5c.1 0 3.8-3.3 3.8-3.3l.4-2.1 1.4-1.7-.3-3.9 1-2.2 1.8-1.9h3.2l1.8-2.4 6.3 1 1.6-.4 1.2 1.1 2-.2.8-1.8-.2-1.7-1.5-1.4.4-2.8 2.6-1.2 1.2-2.2.7.6.6-.3v-1.1l1.8.2v1.1l.7.3.6-.9-.2-1.7h2.2l3.8-2.2-1.6-1.6-.9-3.2 4 .2 4.1-.2 1.7-1-1.4-1 .4-.5 6.1 1 2.3-3.1h2.1c0-.1 2.1-2.1 2.1-2.1l1.2-1.7v-1.4c-.1 0 3.7-3 3.7-3l-1.2-1.9.4-1-2.2-.7v-.6l.8-1.3h2.7c0-.1-1.5-1.7-1.5-1.7l.4-1.2-2.3-.9.7-1.5-2.3-4 2.9-3.3-2.5-2.2 1.9-3.7-1.9-2.7 3.2-.9.7-.9Z"/><path id="SI-JS" d="m191.3 336.8.5-1 4.3.4.6-1.2 8 .8 1-1.3 1.8-.6 1.7-2.3 2.2.4 2.1 2.1.3 1.3 5.3 3.8.8 2.8 1.3 1.9.4.4.7-.5 10.1 9.5 1.2.8 1.2-.2 1.5 1.6 1.9-2 .4-7.9-2-1.4-2.9.8-.6-1.6h-.6l-.7 1.7-2.7-.6-1.7-3.9.8-4.7-1-1.1-2.4-.7.4-2.8-2.2-1.2-.7-2.1-1.5.8-.2-4.9 1.2-.8.5-1.4 1.2-.4-1.3-3.1-1.8-1.1-.9-1.8.2-2.6 1.2-.5-2.3-3.4-1-4.1.8-.9-1.4-.6-.4.5-.7-.9-.7.8-1.1-1.3 1.1-2.6.8-.2-.5-1.1 1-1 .7.3v-1.9l1.5-1.9h1c0-.1-.5-1-.5-1l1.2-1.7 1.9.8 2-1.4v-1.4c.1 0 1.6-.1 1.6-.1l1.3-1.5 2.2 1.9.9-.8.6 1 2.5-.5 2.9.4 1.1-1.2v-1.7l1.3-.9 1.2.6.8 2.4h1.4v2.1l1.5 2.2 1.3 1.2h2c0-.1 2.4-.9 2.4-.9l.2-2.6 1.4-.9 2 .3 1.1 1.3 2.4-.2 1.9 1.4h.8l.2-.6 1.5.2.7-.6-.4-1.4 2.4-1.2.5-1.2-.9-2.7-.8-.4.5-1.1 4.3.2.7.9 2.5 1 .6-1.8 1.4-1.2 1.3.4-.4.7h2.5l3.3 1.1.6 1.7 1.4-1.8 4 .8-.3 2.6-1.9.9-.4 2.3 1.5.8.2 2.2 5.3 4.5 3.4 1.4h1v-1.1l.6-.4 1.3.6.2-1.3h1.3l.2-2.4 2.1.5 1.5 2.7h1.5v-1.5l-1.3-1.4 1.2-2.1 2.1.7 1.8 1.6v-2.5l2.3.9 1.9-.2v2.8l2.2.6.7 1.1-1.2 1.9.6 9-1.3 3.3 6.3 3.1-.5 1.4.6 2.4h2l-.9 1.6-3.5.7-.3.9 1 .8.4 2 1.4 1.8 2.5 8.2-2.4 2.5-3.2.6-5.5 3.3-3.8 1.3-1.3 1.6-1.9 1-2.7 3.5-3.6 1.3 1.7 1.3 2.4-.3 1 2.2 1.8-.6.7 1v2.6c.1 0 1.6 1.4 1.6 1.4l.4-2.3h1.5l-.5 2.1 2.3 3.3.7-.7-1-4.3 1.9-1.3 1.1-2.5h2.8l-.1 3.1.9.2v.9l-.3 1.8-1.5.4-.2 2.9.7-.2.2-.9h1l.3-2.3.9-.6 1.2 3 2.1 2.2 1 3.4 1.6.9-1.8 1.9-1.4.5-1.9-.7-.5-1.1h-3.8c0-.1-.6.6-.6.6l1.4.7-.2.8-1.5.7-2.4-.2-3.7.8.8 3.9-2.5.3-2.2 1.8 3.3 4.6.4 10.3.6.8h1.4c0 .1-.1 1.8-.1 1.8l1.7.8 1.1 2.1 3.9 2.4 1 1.4 1.2-.6 2.4 2.2-4.3 2.6-2 4.2-2.5.8-9.1-2.9-4.5 2.8-2.4 3.4-.8 2.4h-2.8l-1.7-2.1-1.9 2.9-3.6-.4-1.7-1.1-1.6-3-2.3-.8-2.9-3.3-2.7-1-.2-3.6-3.9-1.3-.9-1.2-2.2 1.5-2.1.3-2.3-2.4-4.6-.5-2.1-2.5-5.8-4.2-1.4.2-1.4 2.1.2 5.4-1.1 3.7-5 1.1-1.1 1.2-7.9 1.4-.3-2.4-1.3-1.6v-1.7c-.1 0-1.1-1.1-1.1-1.1l.5-.9-.9-1.7-1.4.4-.2-1.2-2.8-.3v-1.1l-1.6.2-3.6-3.8-2.5-1.2-2.4-.2-.5 1.8h-1.3c0 .1-1.1-1.7-1.1-1.7l.7-4.3 1.1-.5.7-1.4-1.1-3.1-2-2.7-4.2-.6-1.9-2.7-1.7-.3-.6-1.8-2.5-.9-2.1-2 1.8-7.2 1.1-.8-1.4-.4-.9-1.1-2.8.9-.3-1-.3.4-.8-.8h-1.1c0-.1-.7-7.7-.7-7.7l-3.2-6.9-.4-2.4 1.4-.6 1.6 3.6 3.1-.6-.9-3.4-1.1-.7 1-4.8-2.4-.3-1.3-1.8 3-.5Z"/><path id="SI-ZS" d="M244.6 245.2v1.9l1.8 1 1.5 2.1h3c0 .1 4.5-1.5 4.5-1.5l4.6.5.3 1.6.8.2 3.7-2.3 1.5.6 3.8-.2 4-2.6 3.7 3.3.2 1.5h.9l-.3 2 3.3-.3.9 3.6 2.8 2 1.4 3.1 1.2 1-2 .5-.9 1.6-5-2.2.3 1-.7.4-.8 2.6 3.6 2.2-3.2 1.1-4.6-1.6-.4 1.7-2.4.4v2.7l-1.2-.9-1.5 1.1.3 1.6-7.9 1.5-4.4-2.3-.6-1.2 2.1-.8-1.1-.6v-1.8l-1.1-1.7 2.2-.2.5-1-1.8-2.9-3.3 1.5-3.1 3.8-5.2.4-1.7-.2-2.2-2.3-.7-2.1.5-2.3-.8-1-1.1-.5-6.7.9v-1.7c-.1 0 .9-2.2.9-2.2l-2.6-2.5v-1.1c.1 0-1.4-.3-1.4-.3l-.6-.9 5.6-.2 3.1-1.6 2.8.7v-1.4l1.9-1.1-.2-4.2 1.4-.2Z"/><path id="SI-SA" d="m305.4 179.1 1.2 1 1.7-.3.2 2.2 1.4 1.6v2.2c.1 0 1.5.2 1.5.2l1.7-.7 1.4 1.1.2 1.1 1.9 1 1.6-1.1 3.1 2.6-.8 1.4-.2 3.4h-1.2l-.2.6 3 2.4-.8.7.5 1.3-2.1.4.9.9 2.3.5v1.1l.7.5 3.2.7v1.1l1.1.6h2.6l1.3-.7 1.3.9 1.2-1.1.8.4.8 2.8 4-1.1 1 .9 1.4 8.7 1.1 1.3-.8 2.6 1.1 1.6-1.2 1.2 3.1.8.3 3 2.5.8 2.7-.7 1.3 1 3-.7 2.8 1.1.2 1.2 4.7.8 1.3.8 1.9-.2-.4 1.3.4.6 3.2-.2 2.7-.2 1-.2 1.7 1 .8-.4 1.6 3.1 5.6-.8.4 1.9-.9.6-1.2 4.2-4.3 2.2-1.4-.7.7-1.5-.7-.9h-1.9l-1.4 1.2-.3-1.5h-4.6c0-.1-2.7-1.1-2.7-1.1l-4.8 2.4-1.2 2.1 1.1.8-.4 3.7-1.2.3-.9 2.2-3.7 2-.6 1.5 1.5 1.9-2.6 1.3 1.7 1.6-.3.5h.9c0 .1-.6 2.4-.6 2.4l.6.2-.7.4.3.8-.7 1 .9 1.9h.6l-.1 1.5 1.6.6-.4 1.9 1.7 1.1 2.3-.8.3 1.1 1.4.4.2 2.3 1.7-.9.7.9.9-.4 2.2 2.1 3.2.7.9 1.4-2.1-.4-1.6 1.1-4.1-.4-1.5 2.9-2.9 1.2-2 3.4-1.6 1.4-3.8 1.5-5.4.6 1.1-2.1 3.1-2 1-3.3-3.2-.5-1.4.8h-2.4l-.9-5.4-1.6-.4-1.3-2.6-1.8-.8-1.8 1.3-1-1.6-2.6-1.4-3.5.7-2.5-.6-1.4.7h-3l-2.9-.6-1.3-1.2-3.2 1.8h-5.6c0 .1-2.6-.7-2.6-.7l-1.6.6-2-.3-.2 2.9-1.2-.9.2-3.8-1.2-.6V268l-.9-1.2h-.6l-.9 1.7-1.7.4-1.8-.3-1.9-1.5-1.9.7-1.2-.6-2.3.9-.3 1.1 2.3 1.4-1.1 2.9.6 1.1-.9.9 2.2.8-.2 3.4-4.2-2.4-5.9-1.4-5.5 1.6-2.1-.4-1.9-.5-.8-1.8-.3-1.6 1.5-1.1 1.3.9v-2.7l2.3-.4.4-1.7 4.6 1.6 3.2-1.1-3.6-2.2.8-2.6.7-.4-.3-1 5 2.2.9-1.6 2-.5-1.2-1-1.4-3.1-2.8-2-.9-3.6-3.3.3.3-1.9h-.9l-.2-1.6-3.7-3.3-4 2.6-3.8.2-1.5-.6-3.7 2.3-.8-.2-.3-1.6-4.6-.5-4.5 1.6h-3c0-.1-1.5-2.2-1.5-2.2l-1.8-1v-1.9l.6-1.4.9.3.8-1-1.9-.3-1-2.7-1.1.4-6.9-4.7-7.9-.6-3.6 1.2-2.1-.7-1 .6-4.2-1.4h-3.7l-1.1-1.9 1.2-2.2v-1.6l-1.3-1.9 1.3-2.6v-1.4c-.1 0-3.2.8-3.2.8l-1.3-.5V218l-.5-.8h-1.9l-2.8-3.2.2-7.1-3.5 1.3-3.3-.2-.8.9-3.8-2.5v-.2l1.6-4.1.3-4.2-.9-1 .4-2.6 1.2-.5.5-1 1.7-.6h3.6l4.8-1.3.6-1 1.5-.3.4-1.2 3.3.8 5-.5.4.9 2.1.8 1.9 4.5 1.6-.7.4-1.7 1-.3.8.8 1.2-.3 1.1 1 1.9.4 4.3-.6 2 1.4 2.7-.7 3.9.3 2.7-2.7h4.6c0 .1.5-1.4.5-1.4l2.3-.7-1.1-2.5h.8l7.5 4.4 3.3.3 6.3 2.3 3.6 2.6-.3-1.8.6-.7 4.4 1.8 1.2 3.2 2.8 1.5.8-.3.5 1.2h1.2l.1-1.2 1.3-.8 1.9-.2.3 1.7-1.6 1.5v1.1l3.1 1.5 6.6-3.1-.3-1.4 2.9-4.2v-3.5l1.6-4.2 3.6-2 3.9-.9.8-1.5-2.3-2.5-.5-2.7.4-.3Z"/><path id="SI-KO" d="M282.3 143h1.5l.5.7 2.5-.2 1.6 1.8 6.5 1.9 3.9-1.2h2.8c0 .1 2.4-1.7 2.4-1.7h2.2c0-.1 1.9 1 1.9 1l1.1-1.2 2.3.4-.7 3.1.2 3.3-4.4.2-.6.6v2.9l-2.8 2.8-1.3.4-1.7 9.3-1.5 1.7-2.7 1.5-.6 3.2h-.8v.8h-.6l-.6 4.7h1.4l2.3-2.4 2.9.8 2.4-1.3.9.7 1.6-.4.6 2.5-.4.3.5 2.7 2.3 2.5-.8 1.5-3.9.9-3.6 2-1.5 4.2v3.5l-3 4.2.3 1.4-6.6 3.1-3.1-1.5v-1.1l1.7-1.5-.3-1.7-1.9.2-1.3.8v1.2h-1.3l-.5-1.2-.8.3-2.8-1.5-1.2-3.2-4.4-1.8-.6.7.3 1.8-3.6-2.6-6.3-2.3-3.3-.3-7.5-4.4h-.8l1.1 2.5-2.3.7-.5 1.5h-4.6c0-.1-2.7 2.6-2.7 2.6l-3.9-.3-2.7.7-2-1.4-4.3.6-1.9-.4-1.1-1-1.2.3-.8-.8-1 .3-.4 1.7-1.6.7-1.9-4.5-2.1-.8-.4-.9-5 .5-3.3-.8-.2-1.4 1.1-1.3 1.5 1 1.2-.4v-1.3l-.6-.7.7-1.3 1.4-.2.5-4.7 1.5 1.2.7 1.7 2-3.6 1.2 1.7 1.5-1.5h2.6l1.6 1 4.9-2.1v-3l1.2-1.5-.2-1.4 1.3-.9-1.4-.9 1.3-1.2 1-2.4-.6-1.3 1.2-.4-.3-1.5 1.8-1.8.6-2h1.1l.7-.9v-2.1l2.3-1.6 1.2-.2 3.6 2.1.3-.7.7 1.1.8-.5-.3-4.3 1.5 1.2 3.5-2.9 2.2 2 1.4 3.8 2.7-2.3v-2c-.1 0 2-1.9 2-1.9l1.2-2.3 4.3-2.6h3.6c0 .1 2.4 1.4 2.4 1.4l3.9-3 3 1.2.3.8h.5l.3-1.4h1.3c0-.1.2-.7.2-.7l1.8.4Z"/><path id="SI-PS" d="m272.4 277.4 2.1.4 5.5-1.6 5.9 1.4 4.2 2.4.2-3.4-2.2-.8.9-.9-.6-1.1 1.1-2.9-2.3-1.4.3-1.1 2.3-.9 1.2.6 1.9-.7 1.9 1.5 1.8.3 1.7-.4.9-1.8h.6l.9 1.2v1.8l1.2.6-.2 3.8 1.2.9.2-2.9 2 .3 1.6-.6 2.6.8h5.6c0-.1 3.2-1.9 3.2-1.9l1.3 1.2 2.9.6h3l1.4-.7 2.5.6 3.5-.7 2.6 1.4 1 1.6 1.8-1.3 1.8.8 1.3 2.6 1.6.4.9 5.5h2.4l1.4-.8 3.2.5-1 3.3-3.1 2-1.1 2.1 5.4-.6 3.8-1.5 1.6-1.4 2-3.4 2.9-1.2 1.5-2.9 4.1.4 1.6-1.1 2.1.4 1.7 2.2-1.3.3-1.2 1.4.4.6-.7 2.3.5.4-1.7 1.1 1 .2v2.2c-.1 0-1.7.8-1.7.8l-.2 1 1 1.3-.9.5.7.6.7 4.5-.3 9.4-4.2 4.4 1.2 4.4-.5 1.2 1 2-1 1.4 1.3.5 2.2 3.1-2.6 1-3.9.2-3.6 4.6-2.1-2.8-2.7-1.8-4.7-1.4-1.3-1.3-1.9 3.1-1-.5-.5-1.4-1.8-.3-.8 4.2-1.3 1.3-3.6.3-.3-1.4-1.4-.8-2.2 1.1-.3 1.4-1.4.3 1.1 4.8-1.6.7-6.7-.3-3.4.9-2.5-8.2-1.4-1.8-.4-2-1-.8.3-.9 3.5-.7.9-1.6h-2l-.6-2.4.5-1.4-6.3-3.1 1.3-3.3-.6-9 1.2-1.9-.7-1.1-2.1-.6v-2.8l-2 .2-2.4-.9v2.5l-1.7-1.6-2.1-.7-1.2 2.1 1.3 1.4v1.4l-1.6.1-1.5-2.7-2.1-.5-.2 2.3h-1.3l-.2 1.3-1.3-.6-.6.4v1.2h-.9l-3.4-1.4-5.3-4.5-.2-2.2-1.5-.8.4-2.3 1.9-.9.3-2.6-4-.8-1.4 1.8-.6-1.7-3.3-1.1-3.1-5z"/><path id="SI-PD" d="m380.8 131.5 4.2 6.2 2.1-1.4 1.5 2.5-.9 1.4.9.9h1.4l.9 1.8 3 1 .8-.4.5 1.4 1.1-.9 2.6.6.3 1.3 2.3.3 1.9 2.5 2.1 1.1v.9l-2 1.2-.2.8-2.5 1 2 4.8 8.7 1.3v4.5c-.1 0-1.2 1.7-1.2 1.7l.4 2.1 4.5 6.4v1.1c.1 0-.8.9-.8.9l1 .9.3 1.7-.9 1.2 4.3 4 .4 1.2-.9 5-2.1 2.4v2.6c.1 0 .9.5.9.5l1.6-.3.7-1.6h.8c0-.1.2 3.4.2 3.4l-.7.7 2.7 3-.4.7.8 2.2h-.6v.9l2.8 4.8.5 3.1-.5 1.8-5.4.5-2.9 4.8-2.8.9-1.1-.8-.9.9-1.2-.5-2 3-3.6 1.7-4.2.8-.7-.9-.9.4-1.2-.4-.8 1.1-3.7.8-1.2 2.4-1.9 1.5-2.1-.4-1.5.7-.5 1.3-5 .6.9 2-5.6.8-1.6-3.1-.8.4-1.7-1-1 .2-2.7.2-3.2.2-.4-.6.4-1.3-1.9.2-1.3-.8-4.7-.8-.2-1.2-2.8-1.1-3 .7-1.3-1-2.7.7-2.5-.8-.3-3-3.1-.8 1.2-1.2-1.1-1.6.8-2.6-1.1-1.3-1.4-8.7-1-.9-4 1.1-.8-2.8-.8-.4-1.2 1.1-1.3-.9-1.3.7h-2.6l-1.2-.6v-1.1l-3.1-.7-.8-.5v-1.1l-2.2-.5-.9-.9 2.1-.4-.5-1.3.8-.7-3-2.4.2-.6h1.2l.2-3.4.8-1.4-3.1-2.6-1.6 1.1-1.9-1-.2-1.1-1.4-1.1-1.7.7-1.4-.2v-2.2c-.1 0-1.5-1.6-1.5-1.6l-.2-2.2-1.7.3-1.2-1-.6-2.5-1.6.4-.9-.7-2.4 1.3-2.9-.8-2.3 2.4h-1.4l.6-4.6h.6v-.9h.8l.6-3.2 2.7-1.5 1.5-1.7 1.7-9.3 1.3-.4 2.8-2.8v-2.9l.6-.6 4.4-.2-.2-3.3.7-3.1 1.9-.8.6.9 2.1.2 7.5-1 .3 1.7 1.4.2 1.5 1.4 1.1-.5 1.3.7v2.1l1.1 1.2.2 2.1 1.8.6 2.2-1.8 1.3.4.6 1 1.3-.5v-1.3c.1 0 1.1.2 1.1.2l2.9-2.8.5-.2.5.9 1.1-1.9-.9-1.2 1.4-.9-1.1-4.8.6-.6 1.2.3 1.7-1.9 3.2-.9 1.1-1.4 1.7.5-.5.5-1.2-.5-.6 1.8 2 1.3.8-.3-.8-1.5.7-.5 2.5.8 1-.6.8-2 2.3-.2.7-3.3h3.1l3.4 1.9 3.2.4 2.7-.9h4.3c0 .1 3.5-2 3.5-2Z"/><path id="SI-PM" d="m454.5 94.4 4.9.2 1.3 2.7 4.1 3.2 1.5.3 1.6 2.1-1.3 3.3-.4 4.2-2.6.5-1.4 1.3v3.7h2.4l.3.8-1.6 4.5 4.7 4.9v2.1c-.1 0 1.1 2.1 1.1 2.1l2-1.7 1.4 1.6v1.2l-1.4 1.4.7.7 8.5 1.3-1.6 8.2h-2.2l-2.1-1.1-.2 1.9-.9.7.2 1.7 1.1.9-.2 1.3 2.5.7 2.3 4.1 3.5.7 3.7 5.6.6-.3 1.1 1.2.5 3.3 1.7 1 2.3-.2 1.5 2.4-.5 2.6.4 1.3 2.1.9-1.1 2.8 1.2 1.3-1.5 2 8.6 4.6 2.5 3.2h-1.3l-.8.7-1.6-1.5-.6 1-2.9-2.1h-1.1l-.6-1.3-1.3 1-1.1-.3-.6-.7.8-1.8-4.6-1.9.6-1-.5-.8-2.9-1-1.3.2-1-2-3.2.7-1.4-2.9-1.5.4-1.2-.9-.7 1.1-1.8-1.5.4-1.1-.4-.7h-.8l-.6 1.9-2.1 1-1.6-2.6-1.2 1.2-1.9-.9-.8 2.8-1.8-.8-2.2.9-.8 1.4-1.9 1.2h-4.4l-1.5 4.1-1.3 1.1v1.4l2.4 5.4.8 7 1.5 2.4 3 2.4 1.2 2.2-.2 2.3-2.8 3.7-2.4.2-.6-1.9-1.5-1.7-2.4 1.8-2.5-.8-2.5 1.4-1.2-.6-1.5.5-2.2-3.5-4.9-3.2-1.3.2-2.3 1.8-1.9 3.2-2.3-.6-2.4 1.1-2-.3-1.5-1.1-.8-2.2.4-.7-2.7-3 .7-.7-.2-3.5h-.8c0 .1-.7 1.7-.7 1.7l-1.6.3-.7-.5v-2.6c-.1 0 2-2.4 2-2.4l.9-5-.4-1.2-4.3-4 .9-1.2-.3-1.7-1-.9.9-.9v-1.1c-.1 0-4.6-6.4-4.6-6.4l-.4-2.1 1.1-1.7v-4.5c.1 0-8.6-1.3-8.6-1.3l-2-4.8 2.5-1 .2-.8 1.9-1.2v-.9l-2-1.1-1.9-2.5-2.3-.3-.3-1.3-2.6-.6-1.1.9-.5-1.4-.8.4-3-1-.9-1.7h-1.4l-.9-.9.9-1.4-1.5-2.5-2.1 1.4-4.2-6.2 1.8-1.2 5.2-1.6h6l7.1 3.2 4.1 3.6 7.6 2.1 1.6 1.4 1.1 2.5 3.8 2.2.8-1.1.2-5.2-1.9-3.8.4-2.7-1.8-.3-.8-1.2H414l.3-1.1-2.1-1.9-.8-2 .6-4.3-.3-3.5 1.1-3.1-.5-3.4 1.1-1.3-2.1-3.9 1.9-1.8 1.3 1.1 3.3-1.9.8 1.3 1.5-1.6 2.6.4.5-1.9 1.7-1.5h1.1c0 .1 1.7-2.4 1.7-2.4l.7-.2.7.9 2.2-2 .2 1h1.1l.9 1.5 4.3.7.8-1.1 2.1.3 2-1.9 5.6-.9 2.1-1.3 3.9.7Z"/></g></svg>