<svg xmlns="http://www.w3.org/2000/svg" xmlns:amcharts="http://amcharts.com/ammap" id="Layer_1" viewBox="0 0 512 512"><g id="_x3C_defs"><amcharts:ammap bottomLatitude="47.731" leftLongitude="16.834" projection="mercator" rightLongitude="22.568" topLatitude="49.614"/></g><g><path id="SK-BC" d="m180 248.1 4.4-3.7 1.3 1.4v1l1.4.2.9.9 2-.8 2 .5 2.3-.3 2-2.4.4-2.9-2.4-2.5.6-2.5-.7-3 1.8-.2 1.1-1.4.6-2.3 1.5-.7 2.3.8 7.2-.2 1.1-.6 1.1.4 1.6-1.6 3-.8 1.7.8.5 1.3v1.8l-1.3 1.1.2.5 5.6-.9 1.7-3.7 4.1-4.8h5.5l4.3-1.9 2.5.3 1.2-.8 4.2 1.4 6.6 5h2.5l3.9-1.4 1.2 1.5 4.3-2.1h1.9l1.4 1.1 3.9-.5 6.6.3 2.1-1.2 1.6 1.6 4.3.4 1 1.2 7.3 1.1 1.6-1.1 1.2-2.1 1.8 1.7 2.3.2 2.3 2.5 1.2.4-1.1.5-.9 3.2-3.6 3.3.2 3-.7.7.7.5.5 2.1-2 1.3v.8c-.1 0 .1 1.7.1 1.7l.7.2v2.6c.1 0 1.8-.2 1.8-.2l3.6 3 3.1 5.6 1.1.9-.8 1.6.7 3.5-.4 1.1 1.6.8 1.9-.4.5 1.2 1.1.2-.5 2.6-1.9 3.7v1.5l-1.8 2.3-.4 2.4.8 1.2.2 2.2 1.4-.2.2 1.8h2.9l1.8-.6 2-2.5 1-.3.5 1.7 2.7-.8.8 1.2.5 1.1-1.8 1.1-.7 1.5-2.1 2v3.3l-1.2 1.7.6 2-3.7 4.4.5.7-.7 1.2-2.5 2.4-1 3.5h-1.6l.4 1-2.3.4-3.9-2.4-1.2.4.7.7-.6 1.2-2.2.2.4 1.2-2.6.4-3.6-.6.4 1.3-.6 2.4-3.9 3.7h-.8c0-.1-.7.6-.7.6l.7 1.1-2.6 2-1.5-1.2-2.3.6-1.3 1.2-1.1-.4-1 1.6-1.1.2-1.3 2.5-3.2 1 1.2-2.9-1.3-2.4-3.3-.6-.4-1.1-1 2-1.9-1-1.2 1v.8l-1.1.2-1-1.4 1.9-2.5-.6-1.4-.9.2-2.4-2.7-1.3-.3h-.9c0 .1-1 1.7-1 1.7l-2.6-.2-1.3-1.2-.9-3.4h-1.9c0 .1-1.5-1.3-1.5-1.3l-4.5 4.2-4.7 1.9.2 1.7-1.8 2.3.4 2.7-1.5 1.5.3 2.1-1 2 .3 1-1.7.7v1.5c-.1 0-1.3-.9-1.3-.9v-1.3l-1-.1-1.8 1.8-2 .6-1.3-1.1-1.1.6-3.6-.5-2.5.3-2.2 1.8-2 .5-1.1 2.1-1.9-1.2-2.7.6-4.7-1.8-1.2 1.1h-1.2l-2.1-.9-1.9 1.7-1.1-1.1-1.1.3-1.7-1.6v-2.1l.9-.4.3-1.3 1.8-1.3 1.5-2.3-.3-1.9-1.1-1.7 1.8-2.8-.6-.6.8-.8-1.9-1.3-1.3 1.6-1.1.3-.9-.3-3.5 1.5-.8-.7-1.1 1.7-1.5-1.5-.5 1.5.6 1.9-3.6-.2-5.4-2.2-.7 1.5-1.4-.3-.5-2.5 2.8-2.5-1.7-2.6.8-1-1.2-1.4.6-1.6 2.4-1.3v-2.6l.9-2.4-.5-1.8h-1.1c0-.1-.6-1.1-.6-1.1l-1.3-5.4-2.3-.8-3.2-5.1h-1.3l-2.8 2.9.2.5-1.2.9v1.1c.1 0-.7.3-.7.3v1.7l-.5.6-1.7 1.1-.3-.7-1.5-.3-2.8 1.9-2.3-.8-3 4.2-.4-.3-1.6-3.8v-5.2c-.1 0 2.4-6.2 2.4-6.2l-.8-2.5h-1.2l2-3.1h-1c0 .1.6-2.9.6-2.9l-.6-1.1-2.4-.2-.7.3-.2.9-1-.2.4-1.7 1.2-1.2-.9-3.3.4-3 6.9.6 1.9-.9.3-2.3 4.7-6.4 5.5 1.7-.3-2.8 2.3-1.9.9-3.9 1-.8 1.4.5 1.2-.8 2.7-5.4Z"/><path id="SK-BL" d="M17.3 275.3h2.4l.2-1.4 2.7-.3 2.8-1.1 1.4.5-.8-2.1 3.2 1.9 1.7-.9.6 1.1.8.2 10.1-2.9.4-1.5 2-1.3 5.5-8.2 2.4 1.6 1.1 2.2v2.1c-.1 0-1.5.8-1.5.8l-1.1 1.7h-1.7c0 .1-.6 2.3-.6 2.3l-3.2 2.2-.3.8 2.7 1.9.4 1.6 1.8.3v1.1l1.6.7-1.2 2.9-1.6.5-.8 2.3 1.2 1.4h2.3c0 .1 1.4 1.6 1.4 1.6h2.7l-.4 2.5 1.4.2v1.1l1.1.5 1.1 4 .5.6 1.4-.5 1.5 1.4.5 2-1.3 3.2-1 .4.9.9-.5 1.3h.9l1.9 2.3 1.3-.6 1.1 1.2-2.8 3.6-.8 3 4 1.8-1 2.3 1.1 1v2.1l-1.5.6-.3.7h-1.4l-1.6 2.4-2.4.9-1.6-1h-1.3v-1.9l-1.6-.5-1 .9.4 1.4.9.5-.9 1.6-.9-.2-2.3 1.8-1.9.6-1.5-.5v2.4l.6 1.2 1.7.7.9-1.1 1 1.1-1.2.2-.4 2.5-1.7.2-1.3-.7.6 2.3-2.2 1.1-1.3 1.7h-.8v.9l-.9 1-.4-1.2-1.5.8-2.1-.4-3.5 1.7-1.7-1.9h-1.3l-1.2-1.3-1.8 1.3-1.9-1.4 1.5-1.8-1.6-1.2 1.5-1.4-1.1-.7.5-1-.5-.7 1.6-1.1v-1l-2.7-2.9.5-.3-1-2.4-2.4.3-4.6-4v-2.1l-1.1-4.5-1.2-1.8.9-3.6-.9-.8-2-.3-1.3-2 .4-.6-.4.2-1.1-2.5h.8c0-.1-.5-.8-.5-.8l.7-1.4-3.1-1.6v-1.4H8.7l-.8-.6-.8-3.7 1.5-.3.7-2.3-.6-1.3 1-1-1.1-3.8 1.1-.6v-1.5l2.8-2.5v-1.4h1.8l-.4-2.1.8-.2v-.8c-.1 0 .8-.5.8-.5l1.1.3.3-1.5Z"/><path id="SK-KI" d="m304.7 231 1.4 1.2 1.2-.3-.3-2.6.6-.9v-3.3l1.3-1.2-1.2-2.2 2.9-3 4.4-2.3 1.3-1.6 2.9 1.2 5.7 4.3h1.4l-2.8-3.5 2.4-3 3.3 4.5 2 1.1 3-.8 2.9 4.7 2.5 1.5v-2.7l1-.8.4-1.6 2.7-.9 1.4 1.8 1.8-1.3.8 1.3 1.5-.6-1.5-3.8.4-.4 3.8 2.1 2.4-.9-1.7 1.7 2.1 1.2 4.7-1.5 1.9.5 1.4 1 1.4 2.3 2.5-1.9 2 3.3 1.3.7.4 2.3 8.6 1.4 1.1-1.1 2.1 1.1.8 2 1.3 1.2 1.6-1.7 2.2 1.3.2-.8h1.1v1.5l1.8-.8.4 1.4-1.3 4.5 3 2.5 1.6-.7v-1.5l1.1-1.1 4.8-.4 1.1-1.8v-4.1l1.3-.3 1.7 1.6.3-2.9 1 2.9 1.8.3.5-.9 2.5-1.3v2.4l1.6.8-.8 1v1.2c.1 0 2.4 1.9 2.4 1.9l.7 1.4-.2 1.5 1.1 1.8 3.1.8.5 1.4h1.6l1.8 1 3.4-1.1 2.3 2.5 2-.3 3.4-1.9h.8v.7l.5-2 3.3-1.9.2-1.4-.9-1.4-.6-8.1.3-1.8.9-.6 1.4.2.9 1.6 3.2-.5 4.4 1.7 2.3 1.6 1.5 2.5 3 .3.6 1.1 6.5-.8h5l.1-5 2.3-1.4.8-1.8 2.5-2.6 3.7 1 1.9 6.7h4.2c0-.1 1.8-.9 1.8-.9l4.8 1.3-.8 3.9.8 1.6.2 2.9-3.4 4.4-.4 2.1 1.5 1.2v1.7l-.9 1-1 4.8-3.2 1-4.5 3.8-.6 2.1-1.2 1.2h-1.4l-1.2 1.6h-1l-2.3 4.7-2.2 18.3.2 3.1.4 1h.8l-.3 1-1.6.6.4 1.4-3.1.6-.4-.7-.8 1.2-.9-1.9-1.8 1.2-2.4-1.9-1.1 1.1-2.6 1.1-.2-.5-3.1.2-1.8 1 .4.6-.4.7-1.6-.9-.8.5-.2-.7v1h-.5l-.3-.9-.5.6.4.9-.7-.5-1.3 1.1-.6-1.4h-1.6l-.4 3.8-.9.5-2-1.3-2.9.2-.7-.7-2.8-.5-1.2-.7.2-1.5-1.1-.5.5-.9-.4-.7-1.8-1-1 .2-.8-1v-2.6c-.1 0-3.5-6.8-3.5-6.8V281l-.7-.6-.2-1.7-.7.3-1-.8-1.2 1.3-1.1-.2-.5-.8-1.6.5-2.4-4.1v-1.4l-1.3-.7v-.7c-.1 0-1.2.2-1.2.2l-.5-.8-2.7-1.3-.9-1.4-1.4.8-.7 2.7-1.4-.6-1.9.7h-4.8c0 .1-.1-.3-.1-.3l-.4.6.9.3-1 .4.6.6-.4 1h-.6l.5.9-1 .7v.6c.1 0-3.2-.4-3.2-.4l-2.4-1.8-.6.7-1-.4-.4.7-.7-.2v.8l-1.9.3-.6.8-.6-.6-1.9.8-1.5 2.9-1 .3-1.8-.9-.6-2.5-2.4-1.2-1.1.6v-.7l-3.3-.7-1.8.8-1 1.2-.6-.7h-1.5l-.1-1.3-1.2-.3v-.9c-.1 0-.7.5-.7.5l-1.4-2.6-4.5.8-1.6-1.6v-1.8l-.7.2.6-1-3.5 1.2-6 .7-.4.5-1.9-.5-2.5 1.2H339l-.9 1.1-.3-.3-2.3 1.6h-1.2l-1.3 1.1-3.3-1.3-.9 2.1-1.5-1.2-1 .3-.6.7.7 2-.2 3.1-1.1.2-.9 1.9-1.7 1.1-.8-1.2-2.7.8-.5-1.7-1 .3-2 2.5-1.8.6h-2.9l-.2-1.7-1.4.2-.2-2.2-.8-1.2.4-2.4 1.8-2.3v-1.5l1.9-3.7.5-2.6-1.1-.2-.5-1.2-1.9.4-1.6-.8.4-1.1-.7-3.5.8-1.6-1.1-.9-3.1-5.6-3.6-3-1.7.2v-2.6c-.1 0-.8-.2-.8-.2l-.2-1.7v-.8c.1 0 2.1-1.3 2.1-1.3l-.5-2.1-.7-.5.7-.7-.2-3 3.6-3.3.9-3.2 1.1-.5Z"/><path id="SK-NI" d="m106.5 264.4 1.6-1.2h.7c0 .1 1.2-1.6 1.2-1.6v-2.1l-1.9-3.5-.4-2.8 1.2-1.2h1.1c0-.1 1 1.1 1 1.1h4l1.6.8 1.2-.4 2.9 2.6 1.1 3.5 1.3 1.3 1.2-.6 3.2 1 2.1 4.7-.3 1.5-2 1.9 1.3 1.1-.7 1.6 2.8.4 1 .8 2.9 4.1 1 2.9 2.6.8.9-1.4 1.4 2.1.4-1.3 4.2-3.6 2.3-1.1 2.4-2.2h1.6l.9 3.2-1.2 1.2-.4 1.7 1 .2.2-.9.7-.3 2.4.2.6 1.1-.6 3h1c0-.1-2 2.9-2 2.9h1.2l.8 2.6-2.6 6.2v5.2c.1 0 1.7 3.8 1.7 3.8l.4.3 3-4.2 2.3.8 2.8-1.9 1.5.3.3.7 1.7-1.1.6-.6v-1.7l.8-.3v-1.1c-.1 0 1.1-.9 1.1-.9l-.2-.5 2.8-2.9h1.3l3.2 5.1 2.3.8 1.3 5.4.6 1h1.1c0 .1.5 1.9.5 1.9l-.9 2.4v2.6l-2.3 1.3-.6 1.6 1.2 1.4-.8 1 1.7 2.6-2.8 2.5.5 2.5 1.4.3.7-1.5 5.4 2.2 3.6.2-.6-1.9.5-1.5 1.5 1.5 1.1-1.7.8.7 3.5-1.5.9.3 1.1-.3 1.3-1.6 1.9 1.3-.8.8.6.6-1.8 2.8 1.1 1.7.3 1.9-1.5 2.3-1.8 1.3-.3 1.3-.9.4v2.1l-2.8 2.7-4-.4-2.5.9-1.7-.9-.4 1.3-2.5.4-.9-.6-1.1.6-.8 1.2.5.9-1 1.1v3.7l-.3-.4-.4.6h.4c0 .1-1 .9-1 .9l-2.5-.3-1.3 1.8 1.7 2.7h-.8c0 .1.6 2.7.6 2.7l-1.4 1.7.7 1.4-.5 3.3.2 1.8 2.5.6 2.6 1.8.7 2 1.7 1-.2 1.3-4.8-.7-4.8 1.3-1.1 3.2-5.3 3.3-4.1.6-4.3-1h-2.3c0 .1-3.9 1.7-3.9 1.7l-3.8-1.6-3.1 1.5-10.8 2.8-5.6-1.4h-4.7l-8.5-1.9h-3.8l-2.3 1.3-2.7-1.5-2.2 1.7-4.2.7-3.4-.9-6.3.9-1.9-1.2-4.6-1-1.4-1.7 1.5-1.5.9-3.8h1.6l1.9 1 .7-1.5L91 367v-3.5l.9-1.9 1.9-.6 1.5-2.3 2.5-1.4 1.1-1.4-2-2 1-1.7-.5-3.2.6-3.2-1-1.9v-2.6c-.1 0 1.1-1 1.1-1l-.3-2-3.3-1.8.9-1.2-.6-1-2.2 1.7-.9-.2-.4-1.8 1-2.6v-1.7c-.1 0-2.5-2.8-2.5-2.8l-3.2-2 2.1-1.5h1.2l.7 1h.7l1.2-1.4-1.5-3h2.7l1 .8.4-.9 2.8-1.8v-2.5l-2.4-.7-1-1.6.3-.9.8.5 1-.6-.6-1.4 1.3-2.2-.5-1.1-1.9-.2-.6-1.2 1.2-1 .2-3.4 1-.7-.4-1.7 1.3-1-.4-.6.8-.4 2.4-4.3 1.3-3.9.9-1.5h1.3l-.3-.8 1-1.5-4.9-5.4-3.6-1.2-1-.6v-.8l1.4-1.2.8-4.2 1.6-1.9.5-2 2.3 1.3 2.4-.2-.2-.9h1.1l1.1-1.1.2-2.4Z"/><path id="SK-PV" d="m395.3 154.8 3.5-.2 2.2 2.4h2.7c0-.1 2.7 2.6 2.7 2.6l3.6-.3 1.5-2 2.3 1.5v-1l1-1.2 1.8.3 1.2-1.1 2.1 1 3.6-1.9 1 2.2 1.3 1v.9l2 .8 1.6-1 1.9.9.4 1.8h.8l2.4 2 .4 2.4.8 1.2 1.1.3v-1.8c-.1 0 .6-1.3.6-1.3l2.5-1.6h1.3l1.6 2.8 1.1-.5 1 .3 1.7 2.7 1.3-.4 1.2 1 2.7-.3 2 5 4.2 4v2.2l.9 1-.8 4 1.3 1.1 8.2 2.3.2 1 3.8 2.2 1.8-1.3 1.2.2.9 1.7-.7 2.3h1.9c0 .1 6.1 2.3 6.1 2.3l1.3-1.4 2.9.2 1.9 2.2.2 1.1 2.7 2.7 3-.6 3.2 2.2 4.2-1.1 2 1.2-1.1 1.1-.2 6.5-1.1 1 .7 1.9-2.1 1.3-1.7-.4-2 1-.4 2.1-4.3 6.2.6 1.1-.9 4.6-2.1 1.2-1.1 1.6-4.8-1.3-1.8.7h-4.2c0 .1-1.9-6.5-1.9-6.5l-3.7-1-2.5 2.6-.8 1.8-2.3 1.4v5.1h-5.1l-6.5.8-.6-1.1-3-.3-1.5-2.5-2.3-1.6-4.4-1.7-3.2.5-.9-1.6-1.4-.2-.9.6-.3 1.8.6 8.1.9 1.4-.2 1.4-3.3 1.9-.5 2v-.6h-.8l-3.4 1.9-2 .3-2.3-2.5-3.4 1.1-1.8-1.1H419l-.5-1.3-3.1-.8-1.1-1.8.2-1.5-.7-1.4-2.3-1.9v-1.2c-.1 0 .7-1 .7-1l-1.5-.8v-2.4l-2.6 1.3-.5.9-1.8-.3-1-2.9-.3 2.9-1.7-1.6-1.4.3v4.1l-1 1.8-4.8.4-1.2 1.1v1.5l-1.5.7-3-2.5 1.3-4.5-.4-1.4-1.8.8v-1.5h-1l-.2.8-2.2-1.3-1.6 1.7-1.3-1.2-.8-2-2.1-1.1-1.1 1.1-8.6-1.4-.4-2.3-1.3-.7-2-3.3-2.5 1.9-1.4-2.3-1.4-1-1.9-.5-4.7 1.5-2.1-1.2 1.7-1.7-2.4.9-3.8-2.1-.4.4 1.5 3.8-1.5.6-.8-1.3-1.8 1.3-1.4-1.8-2.7.9-.4 1.6-1 .8v2.7l-2.5-1.5-2.9-4.7-3 .8-2-1.1-3.3-4.5-2.4 3 2.8 3.6h-1.4l-5.7-4.3-2.9-1.2-1.3 1.6-4.4 2.3-2.9 3 1.2 2.2-1.3 1.2v3.3l-.6.9.3 2.6-1.2.3-1.4-1.2-1.2-.4-2.3-2.5-2.3-.2-1.8-1.7-1.2 2.1-1.6 1.1-7.3-1.1-1-1.2-4.3-.4.3-.9 2.7-.5 1.9-1.6-1.8-.5-1.3-3.7.4-1.1-1.2-.8-.9-2.2-3-2.1.3-.7 1.5.5 2.7-1.2.7-6.9 1.3-5-1.1-.7-1.1.7-3.1-.2-.8-1.6-.6 1.2-1.3-2.1h-1.4l-.2-.9-2.4.6.8-3.3-3.1-5.7 2.5-2.3.2-2.1 1.7-.8 1.9.2 3.5.4 2 1.7v.8l1.1 1.4 4.3 2.9h1.4v-3.4l1.3-2.1-.5-1.9 2.6-4.9.3-2.9 1.6-2.6 1.1 1.5 1.3-1.3-.4-1.7h1.1l.8-1.9 2.5-1.5.8.9 1-.7 2.2.5 1.1-.6 2.9 1 .6-.7v-3.8c.1 0 .8-1.6.8-1.6h-1.4l.6-1.5 1.1-.3 2.3.7 1-1.2.6 2.1 1 .2 1.6-.6.6-1.5 1.3 1.4v-2.7c-.1 0 1.2.7 1.2.7v-.5h2.1l2.9 1.6.4 1.5 5.7 2.2.5-.9h.9c0 .1.9-.7.9-.7l1.4-4 2.7 2.3 4.2-2.6 2.6.9 1.2-.3.2 1.7 1.2.6-.8 1.1 1 1v1.7l2.1-.5v1.6c-.1 0 1.3-.1 1.3-.1l.9.7-.3.6-.6-.8-.2 2.1 1.4-.5 1.2 1.7h.9l1.6-1.6h.8l1.7 2.4-.8 1.1 2.6-.9.7 2.5 1.6 1.4 2.8-1.5h2.5l.5-.6-.7-2 1.6-.8.4-1.6 2.6-2.4 1.2.4.9-.4.7.8 1.6-.7 1-1.4-3-2.6v-.8l-1.3-.5-.5-1.5.4-.6 3.8-1.1 1.4.8 1.1-1.6 2.3 1.1 2.4 2.4v.9h2.5l1.6-1.9-.3-1.2.8-1.5.7.3 2.1-1.7.5-1.6 3 1.5Z"/><path id="SK-TA" d="m38.9 231.1 6.9 1.9 2.5 2.4 1.3-.4.5 1.1 3.1 2.9 1.2-.7 1.7.6-.6 2.8-3.1 1.6v.8c-.1 0 1.3 1.1 1.3 1.1H55c0-.1 2.9-2.4 2.9-2.4l.3 1.6 3.7 1.4 1 2 1.1.4v2.6l-1.2.4-.8 2.4.5 2.3h.8c0 .1.7 2.9.7 2.9l2.8 5.1.6-.7.9.4.2-.9 1.9-1.7 1.6.7 3.7-.7-.6-1.5.3-1.2h.6l.5.9H78v-.6l3.2-2h.6c0 .1.6-.8.6-.8l1.9 1.5 1.7 2.6 3.6 1.7h3.3l.2-1.9h1.3c0 .1.8 2.7.8 2.7l.6-.7.2.8.4-.9.9 1.3 6 1 1.3 1.2 1.6-.5-.2 2.4-1.1 1h-1.1l.2 1-2.4.2-2.3-1.3-.5 2-1.6 1.9-.8 4.2-1.5 1.2v.8l1 .6 3.6 1.2 4.9 5.4-1 1.5.3.8h-1.3l-.9 1.5-1.3 3.9-2.4 4.3-.8.4.4.6-1.3 1 .4 1.7-1 .7-.2 3.4-1.2 1 .6 1.2 1.9.2.5 1.1-1.3 2.2.6 1.4-1 .6-.8-.5-.3.9 1 1.6 2.3.7v2.5l-2.7 1.8-.4.9-1-.9h-2.7l1.5 3.1-1.2 1.4h-.7l-.7-1h-1.2l-2.1 1.5 3.2 2 2.4 2.8v1.7c.1 0-.9 2.6-.9 2.6l.4 1.8.9.2 2.2-1.7.6 1-.9 1.2 3.3 1.8.3 2-1.3 1v2.6c.1 0 1.2 1.9 1.2 1.9l-.6 3.2.5 3.2-1 1.7 2 2-1.1 1.4-2.5 1.4-1.5 2.3-1.9.6-.9 1.9v3.5l-2.3 1.5-.7 1.5-1.9-1h-1.6l-.9 3.9-1.5 1.5-5.2-4-2.3-2.7-3 .9-.9-.3-1.9-4.4-1.6-1.9-2.2-.2-3.7-2-2.5-5.4-8.1-8.7-5.5-.2-1.5-.6-.5-1.6.9-1v-.9h.7l1.3-1.7 2.2-1.1-.6-2.3 1.3.7 1.7-.2.4-2.5 1.2-.2-1-1.1-.9 1.1-1.7-.7-.6-1.2v-2.4l1.5.5 1.9-.6 2.3-1.8.9.2.9-1.6-.9-.5-.4-1.4 1-.9 1.6.5v1.9H58l1.6 1 2.4-.9 1.6-2.4H65l.3-.7 1.5-.6v-2.1l-1.2-1 1-2.3-4-1.8.8-3 2.8-3.6-1.1-1.2-1.3.6-1.9-2.2H61l.5-1.4-.9-.9 1-.4 1.3-3.2-.5-2-1.5-1.4-1.4.5-.5-.6-1.1-4-1.2-.5v-1.1l-1.3-.2.4-2.5h-2.7l-1.4-1.6h-2.3c0-.1-1.2-1.5-1.2-1.5l.8-2.3 1.6-.5 1.2-2.9-1.6-.7v-1.1l-1.8-.3-.4-1.6-2.7-1.9.3-.8 3.2-2.2.6-2.2h1.7c0-.1 1.1-1.8 1.1-1.8l1.4-.8v-2.1c.1 0-1-2.2-1-2.2l-2.4-1.6-5.5 8.2-2 1.3-.4 1.5-10.1 2.9-.8-.2-.6-1.1-1.7.9-3.2-1.9.8 2.1-1.4-.5-2.8 1.1-2.7.3-.2 1.4h-2.4l-.3-1.3.8-.4-1.4-3.1.6-.3-.5-.4-.2-3.3.6-.6v-1.7l1.2-.7 1.4-2.4-.6-.4.9-.2-.5-.5v-2.2l3.5-3.5-1-1.2v-.8c.1 0 1.3-1.2 1.3-1.2v-1.3c.1 0 2.4-3.1 2.4-3.1l.3-1.6 3.9-2.7.2-1.4 1.2-1.3.4-3 3.8-2 3.7-3.7Z"/><path id="SK-TC" d="M136.8 172.5h4.3v1.7l4.4 5.9v1.4l1.2 1.3.6 3.5 1.5 1.1.3 1.9 3.8 3.1 2.7 1.1v1.3l2.7.9.2 2.3 1.2 1.1-.7 1.5-2.2 2.1 2.7.9 1.3 2-.6 2.4.3 3.1-1 .6-1.8 3-3.2.8-1.8 1.2-1 2.3-3 .9v.9l1.1 1.3 4.2.4 1.2-1.1 1.8-.4 1.2-2.6 1.1-.4-.2.9.7.9 3.2-.7 3.7 1.2 2-.5 1.9 2.4-2 3.6 1.4 2-1.1 2.3.4.5-.3 3.8 2.9 2.1 1.7.5v1c.1 0 2.4.9 2.4.9v2.7l2.6 2.8.5 1.5.8.2.2 2-2.7 5.4-1.2.8-1.4-.5-1 .8-.9 3.9-2.3 1.9.3 2.8-5.5-1.7-4.7 6.4-.3 2.3-1.9.9-6.9-.6-.4 3h-1.6l-2.4 2.3-2.3 1.1-4.2 3.6-.4 1.3-1.4-2.1-.9 1.4-2.6-.8-1-2.9-2.9-4.1-1-.8-2.8-.4.7-1.6-1.3-1.1 2-1.9.3-1.5-2.1-4.7-3.2-1-1.2.6-1.3-1.3-1.1-3.5-2.9-2.6-1.2.4-1.6-.9h-4l-1-1.1h-1.1c0 .1-1.2 1.3-1.2 1.3l.4 2.8 1.9 3.5v2.1l-1.2 1.8h-.7c0-.1-1.6 1.1-1.6 1.1l-1.6.5-1.3-1.2-6-1-.9-1.3-.4.9-.2-.8-.6.7-.8-2.5h-1.3c0-.1-.2 1.7-.2 1.7h-3.3l-3.6-1.6-1.7-2.6-1.9-1.5-.6.9h-.6c0-.1-3.2 1.9-3.2 1.9v.7l-1.4-.1-.5-.9h-.6l-.3 1.2.6 1.5-3.7.7-1.6-.7-1.9 1.7-.2.9-.9-.4-.6.7-2.8-5.1-.7-2.8h-.8c0-.1-.5-2.4-.5-2.4l.8-2.4 1.2-.4v-2.6l-1.2-.4-1-2-3.7-1.4-.3-1.6-2.9 2.3h-1.3c0 .1-1.4-1-1.4-1v-.8c.1 0 3.2-1.6 3.2-1.6l.6-2.8 1.7-1.7h.9c0 .1.6-1.5.6-1.5l.8.2.8-1.1 2.2.7 4 3.5 1.2-.7.9.2 1.3-1 2.5-.2.7-1.8 1.7-.3 1.2-1.8 6.2-.7 2.9-2.9 1.8-2.9 1.9-1.3.3-1.3 5.7-.4 1.7.6 1.3-.7 2.4-8.7V213l1.2-1.1.9-.6h3.5c0 .1 1.1-.5 1.1-.5l3.2.5 4-1.9 2.5-2.9v-1.1l1.5-3.4-.4-2.8.9-.6-1-2 .6-2.3 1.6-1.3-.4-3.5 2.1-3.9V184l-.8-.4v-2l3.4-3.2v-2.1l6.9-1.3 5.3-2.6Z"/><path id="SK-ZI" d="m235.7 132.8.8 1.2-.5 1.1.7 1 4.5 2.3v4.6l1.9 3.9.2 2.5 2.7 4.7 1.2-.3 1.3 1.3 2.5-1.3-.3 2 1 .9-1.6 3.6 4.9.7 2.7 2.2 2.8-3 1.5-.6 2 .5.2 4 .9 1.7-.7 3 1.1 2.5-1.2 3.4 1.3.8 1 2.3-2.7 1.4-.3 2-1.9 2 .2 1.3-.7 1.5 2.2 2 1.7-.9 1.1 1 .8-.4.9.7h2.9l3.1 5.7-.8 3.3 2.4-.6.2 1h1.4l1.3 2 .6-1.2.8 1.6 3.1.2 1.1-.7 1.1.7-1.3 5-.7 6.9-2.7 1.2-1.5-.5-.3.7 3 2.1.9 2.2 1.2.8-.4 1.1 1.3 3.7 1.8.5-1.9 1.6-2.7.5-.3.9-1.6-1.6-2.1 1.2-6.6-.3-3.9.5-1.4-1H264l-4.3 2-1.2-1.5-3.9 1.4h-2.5l-6.6-5-4.2-1.4-1.2.8-2.5-.3-4.3 1.9h-5.5l-4.1 4.8-1.7 3.7-5.6.9-.2-.5 1.3-1.1v-1.8l-.6-1.3-1.7-.8-3 .8-1.6 1.6-1.1-.4-1.1.6-7.2.2-2.3-.8-1.5.7-.6 2.3-1.1 1.4-1.8.2.7 3-.6 2.5 2.4 2.5-.4 2.9-2 2.4-2.3.3-2-.5-2 .8-.9-.9-1.5-.2v-1l-1.3-1.4-4.4 3.7-.2-2-.8-.2-.5-1.5-2.7-2.8v-2.7l-2.2-.9v-1c-.1 0-1.9-.5-1.9-.5l-2.9-2.1.3-3.8-.4-.5 1.1-2.3-1.4-2 2-3.6-1.9-2.4-2 .5-3.7-1.2-3.2.7-.7-.9.2-.9-1.1.4-1.2 2.6-1.8.4-1.2 1.1-4.2-.4-1.1-1.3v-.9l3-.9 1-2.3 1.8-1.2 3.2-.8 1.8-3 1-.6-.3-3.1.6-2.4-1.3-2-2.7-.9 2.2-2.1.7-1.5-1.2-1.1-.2-2.3-2.6-.9v-1.3l-2.7-1.1-3.8-3.1-.3-1.9-1.5-1.1-.6-3.5-1.3-1.3v-1.4l-4.4-5.9v-1.8h-4.3l3.4-1 2.1-2.9 1.2-.6-.4-.7 1.4-2-.9-3.5.6-.5 2.3 1.2 3.3-2.3 1.4-3.6h1c0-.1.3-1 .3-1l1.3-.7.2-1 2-1.4-.9-3.2 1-1.3 1.8-.9 2.5-.3.5 1.6 1.4.2 5.3-1.6.9 1 1.8-.2 2.7 1.6h1.2l2.4-2.3 4.4-1.7 5.5.8 3.7-.6 2.8 2.3-.9 2.4.6.8-.7 3 1.1.4 1.3 2.7-.3 1.3-1.3 1.2.9 2.3 1.6-.5 3.2.4 1-.9.5-1.6 1.6.2.3-.6 1.4.2 1.6 1.6h1c0 .1 1.4-1 1.4-1l1.1.8 2.1-1.2 1.3.4.6-.7-.9-2.8 1.6-2 1.1.3.6-.8.2-1.2-.7-1.3 1.1-1.7-.4-.7.6-.6v-2.1l2.4-2.7 4.1-.6.8.9 3.6-.8.3-2.3.7-.7V139c-.1 0 2.4-.9 2.4-.9l1.2-2.6 2.4-.6.3-1.9h1.6Z"/></g></svg>