<?xml version="1.0" encoding="UTF-8"?>
<svg id="Layer_1" xmlns="http://www.w3.org/2000/svg" xmlns:amcharts="http://amcharts.com/ammap" version="1.1" viewBox="0 0 512 512">
  <!-- Generator: Adobe Illustrator 29.1.0, SVG Export Plug-In . SVG Version: 2.1.0 Build 142)  -->
  <g id="_x3C_defs">
    <amcharts:ammap bottomLatitude="45.422671" leftLongitude="13.372971" projection="mercator" rightLongitude="16.594476" topLatitude="46.875889"/>
  </g>
  <g>
    <path id="SI-JP" d="M40.2,331.2l8.4-.4,2.1.9h3.9l1.3-4.2h1.8s2-1.8,2-1.8l.6-2.8-.4-1.6,4.6,1.3,2.9,2.1.8,1.4,2.7,1.6,3.4-.2v-1.6c0,0,.8.1.8.1l.6-.8,3,1.4,1.1,2.2,1.5.6h2.3c0,.1,3.3-.9,3.3-.9l-.2,1h.9v1.6h.7s.8,1.6.8,1.6l4.4,3.6,2.2,1.1,1-.2.3.7h.9c0,0,5.4,3.4,5.4,3.4l-.5,1.6,1.6-.8.8-1.4,2.2.4,2.6,2.1h0l1.1,1.9,3.4.4,2.2,1.5-.5.9.6,1.2,1.3-.3v.9c0,0-1.1.3-1.1.3l1.3.5.3,2.6-.5.9-2.3-.3-.3.9h-.8s.2,1.5.2,1.5l-1,1.5-.2,1.6,2,1.3-.2,2.5.6.9-1,3,1.5,1.1.3,2.3-.9,1.5,2.5,1.6-.6,1.7,2.6,1.2-1.1,8.1-1.1.8-.7,4.7,2.9.6-1.8,3.4-.6,3.3-2,1.9,4.5,1,.3,1,1.2.5.4-1.2,1-.3-.4,1.6.8,3.1-.8.2v.7h0l-2.4-1.1h-4.1c0,.1-2.7-.5-2.7-.5l-3.9-3.2h-1.2c0,0-4.5-4.4-4.5-4.4h-2c0,0-.3,2.5-.3,2.5l-3.9-1.5-1.8,2.2,1,1.7,1.9.8,2,2.2-.7.2.6,1.1-.9,1.9.4,2.8-2.4,2-3.2-2-6.4,1.1-2,3.1-1.4,1-.3,1.7-1.2.2-2.1-.4-1.7.4-.5-1.4-1.4-.5h-4.2c0,0-.3-1.4-.3-1.4l-1.5-.5.7-2.4-.8-1.1-2.2-1.2-3.3-.2-1.4-1.5-2.5.3-1.8,2.5-2.9.5-4.5,2.9-4.3-3.4-6.4-1.6-1.9-1.4-1.4-1.4,1.2-1.9-1.2-2.4h.7c0-.1.1-1.1.1-1.1h1.4s-.7,0-.7,0l.5-.5-.7-1.6-3.5-.5-1.1-3.5,2.5,1,3.3.2,1.1-.8-.5-.8-.5.6v-1.6c0,0,2-.5,2-.5l4.8,1.7,1.9-.6v-1.7s2.1.6,2.1.6l.7-1.3,1.6-.7h2.7s2.5,1,2.5,1l.6-1.2,2.2-.8-.9-.2.2-.7,2.1-.2-2-.3.5-1,1.4-.2v-.7c0,0-6.4-4.6-6.4-4.6l.2-.8,6.1-1.3,7.5,3.9,6.5-.4,4.3-3.7.7-2.4,4.9-2.8,2.6-2.5-1.6-1.5-3.6-1.6-3.3-2.9-4.7-6.4-.3-4.7-3.8-3.4-2.1-4.5-3.2-.8-1.9-1.6-2.6.3-1.7-1.1.4-.6-4.4-2.5-4.8-4.6-.8.4-.8-1.8-4.4.7.2-1-3,1.5-.3-1-3.7-1.7v-1.8Z"/>
    <path id="SI-NO" d="M124,319.1l.6-.6h1.6c0,0,1-.9,1-.9l1,1.1,4.4-.9,3.2,2h1c0-.1,1.3,1.8,1.3,1.8l2.9-.2-.2.9,1.9,1.2,1.4-1.4-.2.9h2c0,0,1.1,1.1,1.1,1.1l3.6-7.7v-1.1c-.1,0,1.3-1.3,1.3-1.3l1.3-.3,4.6,1.6,1.5,3.6h1c0-.1.6.8.6.8l1.4-1.4,2.1,1.8.8,1.9h.6l.8-1.9,1.2-.6,1.2.3,2.9,4,1.4-.8,1.5-3.3,1.9.6,3.8-2.6,1.1,2-.2,1.6-.9.5v1.2c.1,0,1.8,2.1,1.8,2.1l-.4.7,2.9,2.9,1.2,2.8,2.7.4.5,2.7,1.7,1.1.5,1.2h0l-3,.5,1.3,1.8,2.4.3-1,4.8,1.1.7.9,3.4-3.1.6-1.6-3.6-1.4.6.4,2.4,3.2,6.9.7,7.5h1.1c0,.1-1.1,5-1.1,5l-3.8,6.6-2.1,2.2-4.2,1,.5,4-1.2,3-.5,6-1.1,2-7.2,5-1.5,1.8-2.3-.6v.7l-2.3.5-1.1,2.2-4.4,1.8h-3.2s-2.9,2.7-2.9,2.7l-1.6-2.8h-2.1l-2.7-2.2-1.8.2-1.7,1.3-2.8-4.3-3.6,1.2-2.6,4v2.7c-.1,0-3.8-1.5-3.8-1.5l-2.7-.4-5.1,1.2h0v-.7s.8-.2.8-.2l-.8-3.1.4-1.6-1,.3-.4,1.2-1.2-.5-.3-1-4.5-1,2-1.9.6-3.3,1.8-3.4-2.9-.6.7-4.7,1.1-.8,1.1-8.1-2.6-1.2.6-1.7-2.5-1.6.9-1.5-.3-2.3-1.5-1.1,1-3-.6-.9.2-2.5-2-1.3.2-1.6,1-1.5-.2-1.5h.8s.3-.9.3-.9l2.3.3.5-.9-.3-2.6-1.3-.5,1.1-.3v-.9c0,0-1.3.3-1.3.3l-.6-1.2.5-.9-2.2-1.5-3.4-.4-1.1-1.9h0l.8-2.5h1.1c0,0,.4-6.2.4-6.2l1.2-.6.5.9.4-2.7-2.9-5.9,8.2-2.6-.2-.7,1.4-2,3.1-2.1Z"/>
    <path id="SI-SP" d="M49.4,191.9l.3.7,4.2.4h0l-.4,1.7.6.7,8.7-3.1,2.3,2.8,4.1,1.2,1.7,1.7,3.2,1.1.3,4.9,1.5,1.7h1.6c0-.1.3.7.3.7l-2.1,3.5-2.3.4-.8.8-2-.2-1.7,1.7-5.2,1.7-.6,1.1.6,4.2-3.3,2.8,1.2,1.1-.3,1.1,1.1,2.2,1.6.9,1.4,2.5,1.9.4,4.1,4.4,6.3,3.8,3.4,2.8,8.2-.7,6.5-2.2,7.4-1.5v.7c0,0,1.5,1,1.5,1l.2,2.4-.5,1.7-1.3.5-1.2,2.5-.4,3.1.7,2.2,1.8.7,2.2-1,1.8.7,1.7-.8,5.6,1.7-.6,3.3-2.1,2.5.3,1.5-2.1,2.5-.3,1.9-1.9,1.3-1.3,2.3-.5,2.7,1.9,3.1,7.2,4.9.8,2.3-.5.4,1.2.3-1.4,2.2,3.7-1.8.5,3.2.8.8-.5,1.3,1.3.3,1.3,1.3h2.5c0,.1.9.6.9.6l-.7,1,.4,1.2h-.9s-1,2.7-1,2.7h-2.8c0,0,0,1.3,0,1.3l-.8.4.3,1.6,1.5-.6-.4,1.3.5,2.5-1.1.7-.3,2.6-2.1,1.3.6,4.7,2.8,2.8,1.4,6h0l-3.1,2.1-1.4,2,.2.7-8.2,2.6,2.9,5.9-.4,2.7-.5-.9-1.2.6-.4,6.3h-1.1c0,0-.8,2.4-.8,2.4h0l-2.6-2.1-2.2-.4-.8,1.4-1.6.8.5-1.6-5.4-3.4h-.9c0,0-.3-.6-.3-.6l-1,.2-2.2-1.1-4.4-3.6-.8-1.6h-.7s0-1.5,0-1.5h-.9c0,0,.2-1.1.2-1.1l-3.3,1h-2.3c0-.1-1.5-.8-1.5-.8l-1.1-2.2-3-1.4-.6.8h-.7c0-.1,0,1.4,0,1.4l-3.4.2-2.7-1.6-.8-1.4-2.9-2.1-4.6-1.3.4,1.6-.6,2.8-2,1.8h-1.8s-1.3,4.2-1.3,4.2h-3.9l-2.1-.9-8.4.4h0l-1.5-5-1.6-.8v-2.2s2.6-4.7,2.6-4.7l-.7-1.9,1-1.9,2.2-1.7,2.2-5.4,2.2-2.8-.6-3.5,1.6-6.9-1.2-1-2.9,1.6-3.8-1.7-2.2,1.7-1.8,2.8-2.1-.2-1,1h-1.8c0,0-3.5-3.2-3.5-3.2h-1.4c0,0-2.4-4-2.4-4l-1.9-1.9,1.6-1.8,1.8-.2,1.4-2.5.5-3.1-.4-1-1.2-.5v-2.2c.1,0,1-.9,1-.9l4-1.3,2.1-3.1,4.5-1.9,3.6-3.3,1.1-1.9,3.2-2.2,3.2-3.5,1.6-3.2v-1.9c-.1,0,1-1.2,1-1.2l.6-2.2-1.2-2-3.2-1.3-3.5,1.7-.5-.4.4-.8h-3.2c0,0-.3-.5-.3-.5l-2.8,1.5-.8-.8v-1.5c0,0-1.1-2.2-1.1-2.2l-4.5-2-.4-1.2-1.9.8h-2.4s-.9-1.3-.9-1.3l-1.6-.7-2.9.3-2.8-.7v2.8s-3.7,1.4-3.7,1.4l-1.9-.9-.5-1,1-1.8-.6-.9,1.9-1.5-4.1-4.8-1.7-7.7h-1.3c0,0-.5-1.7-.5-1.7l4.3-.6,2-1.8v-1.5c0,0,1.2-1.3,1.2-1.3l2.7-.6,1.3-2.5-1.8-4.5.4-1.1,2.2-.6,2.6.4,2.4-2,1.7-.2,2.1-1.4.8.2.2-1.3,1.6-1.2h1.3c0,.1,4.8-2.5,4.8-2.5l1.7-2.7.9-4.4,2.2-1.8,8.2-1.9.7,1Z"/>
    <path id="SI-GO" d="M62.8,174.8l4.9.2,3.6,2.3,2.7-.2,3.2-3,.9.8,2.3.4,4.5-1.8,2.5.8,2.1-.5,6.3,3,2.8,2.6.9-.4,1.9,1.1.3,1.3,2.8,1.4h2s2.2-2.2,2.2-2.2l2.5-.3,6.7,1.8,1,1.3,2.5.4,3,4.5v1.6l2.5,1.5.8,2,1.8.2,3.5-2,3.2.7,1-.8,1.5,1.8,1.5.6,7.3-2.4,4.2,3,3-.4,2-1.4,4.1-.5,1.7.4,2.6-1.5,4.9-.2,1,1.4-.8.2v1c-.1,0,1.3,1.1,1.3,1.1l.9,1.7h3.1l1.7.5.3,1.1,2.2.3,2.5-2.9,2,.3,2.9,3.1v1.2l1.8,2.5,1,4.2.7.6,2.1-.7h0v.2h0l-.7.9-3.2.9,1.9,2.7-1.9,3.7,2.5,2.2-2.9,3.3,2.3,4-.7,1.5,2.3.9-.4,1.2,1.5,1.6h-2.7c0,.1-.9,1.4-.9,1.4v.6c0,0,2.3.7,2.3.7l-.4,1,1.2,1.9-3.8,3v1.4c.1,0-1.1,1.7-1.1,1.7l-2.1,2h-2.1c0,.1-2.3,3.2-2.3,3.2l-6.1-1-.4.5,1.4,1-1.7,1h0l-4.1.2h0l-4-.2.9,3.2,1.6,1.6-3.8,2.2h-2.2l.2,1.7-.6.9-.7-.3v-1.1c0,0-1.8-.2-1.8-.2v1.1s-.6.3-.6.3l-.7-.6-1.2,2.2-2.6,1.2-.4,2.8,1.5,1.4.2,1.7-.8,1.8-2,.2-1.2-1.1-1.6.4-6.3-1-1.8,2.4h-3.2s-1.8,1.9-1.8,1.9l-1,2.2.3,3.9-1.4,1.7-.4,2.1-3.7,3.3v1.5c-.1,0-2.6,0-2.6,0v1c0,0-1.5.4-1.5.4v1.4c.1,0-1.6.7-1.6.7h-2.5c0-.1-1.3-1.5-1.3-1.5l-1.3-.3.5-1.3-.8-.8-.5-3.2-3.7,1.8,1.4-2.2-1.2-.3.5-.4-.8-2.3-7.2-4.9-1.9-3.1.5-2.7,1.3-2.3,1.9-1.3.3-1.9,2.1-2.5-.3-1.5,2.1-2.5.6-3.3-5.6-1.7-1.7.8-1.8-.7-2.2,1-1.8-.7-.7-2.2.4-3.1,1.2-2.5,1.3-.5.5-1.7-.2-2.4-1.6-1v-.7c0,0-7.3,1.5-7.3,1.5l-6.5,2.2-8.2.7-3.4-2.8-6.3-3.8-4.1-4.4-1.9-.4-1.4-2.5-1.6-.9-1.1-2.2.3-1.1-1.2-1.1,3.3-2.8-.6-4.2.6-1.1,5.2-1.7,1.7-1.7,2,.2.8-.8,2.3-.4,2.1-3.5-.3-.8h-1.6c0,.1-1.5-1.6-1.5-1.6l-.3-4.9-3.2-1.1-1.7-1.7-4.1-1.2-2.3-2.8-8.7,3.1-.6-.7.4-1.7h0l1.6-1.3.9-3.5-.8-1.9,2.3-2.8-.9-1.1.5-1.7-.5-1.7,1.8-2.1v-2.6s1.1-.7,1.1-.7l2.9,1.3Z"/>
    <path id="SI-LJ" d="M192.7,206.8l3.8,2.5.8-.9,3.3.2,3.5-1.3-.2,7.1,2.8,3.1h1.9c0,0,.6.9.6.9v5.5c0,0,1.3.5,1.3.5l3.1-.8v1.4c.1,0-1.2,2.6-1.2,2.6l1.3,1.9v1.6s-1.2,2.2-1.2,2.2l1.1,1.9h3.7l4.2,1.4,1-.6,2.1.7,3.6-1.2,7.9.6,6.9,4.7,1.1-.4,1,2.7,1.9.3-.8,1-.9-.3-.6,1.4h0l-1.4.2.2,4.2-1.8,1.1v1.4c0,0-2.9-.7-2.9-.7l-3.1,1.6-5.6.2.6.9,1.5.3v1.1c-.1,0,2.5,2.5,2.5,2.5l-1,2.2v1.7c.1,0,6.8-.9,6.8-.9l1.1.5.8,1-.5,2.3.7,2.1,2.2,2.3,1.7.2,5.2-.4,3.1-3.8,3.3-1.5,1.8,2.9-.5,1-2.2.2,1.1,1.7v1.8s1.1.6,1.1.6l-2.1.8.6,1.2,4.4,2.3,7.9-1.5h0l.8,1.8,1.9.5h0l.2,1.9,3.1,5h-2.5s.4-.7.4-.7l-1.3-.4-1.4,1.2-.6,1.8-2.5-1-.7-.9-4.3-.2-.5,1.1.8.4.9,2.7-.5,1.2-2.4,1.2.4,1.4-.7.6-1.5-.2-.2.6h-.8s-1.9-1.4-1.9-1.4l-2.4.2-1.1-1.3-2-.3-1.4.9-.2,2.6-2.4.8h-2c0,.1-1.3-1.1-1.3-1.1l-1.5-2.2v-2.1s-1.3,0-1.3,0l-.8-2.4-1.2-.6-1.4.9v1.7c0,0-1,1.2-1,1.2l-2.9-.4-2.5.5-.6-1-.9.8-2.2-1.9-1.3,1.5h-1.5c0,.1-.1,1.5-.1,1.5l-2,1.4-1.9-.8-1.2,1.7.5.8h-1c0,.1-1.4,2.1-1.4,2.1v1.9c0,0-.7-.3-.7-.3l-1,1,.5,1.1-.8.2-1.1,2.6,1.1,1.3.7-.8.7.9.4-.5,1.4.6-.8.9,1,4.1,2.3,3.4-1.2.5-.2,2.6.9,1.8,1.8,1.1,1.3,3.1-1.2.4-.5,1.4-1.2.8.2,4.9,1.5-.8.7,2.1,2.2,1.2-.4,2.8,2.4.7,1,1.1-.8,4.7,1.7,3.9,2.7.6.7-1.7h.6c0,0,.6,1.7.6,1.7l2.9-.8,2,1.4-.4,7.9-1.9,2-1.5-1.6-1.2.2-1.2-.8-10.1-9.5-.7.5-.4-.4-1.3-1.9-.8-2.8-5.3-3.8-.3-1.3-2.1-2.1-2.2-.4-1.7,2.3-1.8.6-1,1.3-8-.8-.6,1.2-4.3-.4-.5,1h0l-.5-1.2-1.7-1.1-.5-2.7-2.7-.4-1.2-2.8-2.9-2.9.4-.7-1.7-2.1v-1.2c-.1,0,.7-.5.7-.5l.2-1.6-1.1-2-3.8,2.6-1.9-.6-1.5,3.3-1.4.8-2.9-4-1.2-.3-1.2.6-.8,1.9h-.6l-.8-1.9-2.1-1.8-1.4,1.4-.6-.9h-1c0,.1-1.5-3.5-1.5-3.5l-4.6-1.6-1.3.3-1.4,1.3v1.1c.1,0-3.5,7.7-3.5,7.7l-1.1-1.2h-2c0,0,.2-.8.2-.8l-1.4,1.4-1.9-1.2.2-.9-2.9.2-1.3-2h-1c0,.1-3.2-1.8-3.2-1.8l-4.4.9-1-1.1-1,1h-1.6c0,0-.6.6-.6.6h0l-1.4-6-2.8-2.8-.6-4.7,2.1-1.3.3-2.6,1.1-.7-.5-2.5.4-1.3-1.5.6-.3-1.6.8-.4v-1.2s2.8,0,2.8,0l1-2.6h.9s-.4-1.3-.4-1.3l.7-1-.9-.5h0l1.7-.7v-1.4c-.1,0,1.3-.4,1.3-.4v-1c0,0,2.6,0,2.6,0v-1.5c.1,0,3.8-3.3,3.8-3.3l.4-2.1,1.4-1.7-.3-3.9,1-2.2,1.8-1.9h3.2s1.8-2.4,1.8-2.4l6.3,1,1.6-.4,1.2,1.1,2-.2.8-1.8-.2-1.7-1.5-1.4.4-2.8,2.6-1.2,1.2-2.2.7.6.6-.3v-1.1s1.8.2,1.8.2v1.1c0,0,.7.3.7.3l.6-.9-.2-1.7h2.2l3.8-2.2-1.6-1.6-.9-3.2,4,.2h0l4.1-.2h0l1.7-1-1.4-1,.4-.5,6.1,1,2.3-3.1h2.1c0-.1,2.1-2.1,2.1-2.1l1.2-1.7v-1.4c-.1,0,3.7-3,3.7-3l-1.2-1.9.4-1-2.2-.7v-.6c0,0,.8-1.3.8-1.3h2.7c0-.1-1.5-1.7-1.5-1.7l.4-1.2-2.3-.9.7-1.5-2.3-4,2.9-3.3-2.5-2.2,1.9-3.7-1.9-2.7,3.2-.9.7-.9Z"/>
    <path id="SI-JS" d="M191.3,336.8l.5-1,4.3.4.6-1.2,8,.8,1-1.3,1.8-.6,1.7-2.3,2.2.4,2.1,2.1.3,1.3,5.3,3.8.8,2.8,1.3,1.9.4.4.7-.5,10.1,9.5,1.2.8,1.2-.2,1.5,1.6,1.9-2,.4-7.9-2-1.4-2.9.8-.6-1.6h-.6c0,0-.7,1.7-.7,1.7l-2.7-.6-1.7-3.9.8-4.7-1-1.1-2.4-.7.4-2.8-2.2-1.2-.7-2.1-1.5.8-.2-4.9,1.2-.8.5-1.4,1.2-.4-1.3-3.1-1.8-1.1-.9-1.8.2-2.6,1.2-.5-2.3-3.4-1-4.1.8-.9-1.4-.6-.4.5-.7-.9-.7.8-1.1-1.3,1.1-2.6.8-.2-.5-1.1,1-1,.7.3v-1.9c0,0,1.5-1.9,1.5-1.9h1c0-.1-.5-1-.5-1l1.2-1.7,1.9.8,2-1.4v-1.4c.1,0,1.6-.1,1.6-.1l1.3-1.5,2.2,1.9.9-.8.6,1,2.5-.5,2.9.4,1.1-1.2v-1.7c0,0,1.3-.9,1.3-.9l1.2.6.8,2.4h1.4v2.1s1.5,2.2,1.5,2.2l1.3,1.2h2c0-.1,2.4-.9,2.4-.9l.2-2.6,1.4-.9,2,.3,1.1,1.3,2.4-.2,1.9,1.4h.8s.2-.6.2-.6l1.5.2.7-.6-.4-1.4,2.4-1.2.5-1.2-.9-2.7-.8-.4.5-1.1,4.3.2.7.9,2.5,1,.6-1.8,1.4-1.2,1.3.4-.4.7h2.5s3.3,1.1,3.3,1.1l.6,1.7,1.4-1.8,4,.8-.3,2.6-1.9.9-.4,2.3,1.5.8.2,2.2,5.3,4.5,3.4,1.4h1s0-1.1,0-1.1l.6-.4,1.3.6.2-1.3h1.3c0,0,.2-2.4.2-2.4l2.1.5,1.5,2.7h1.5c0-.1,0-1.5,0-1.5l-1.3-1.4,1.2-2.1,2.1.7,1.8,1.6v-2.5c0,0,2.3.9,2.3.9l1.9-.2v2.8c0,0,2.2.6,2.2.6l.7,1.1-1.2,1.9.6,9-1.3,3.3,6.3,3.1-.5,1.4.6,2.4h2s-.9,1.6-.9,1.6l-3.5.7-.3.9,1,.8.4,2,1.4,1.8,2.5,8.2h0l-2.4,2.5-3.2.6-5.5,3.3-3.8,1.3-1.3,1.6-1.9,1-2.7,3.5-3.6,1.3,1.7,1.3,2.4-.3,1,2.2,1.8-.6.7,1v2.6c.1,0,1.6,1.4,1.6,1.4l.4-2.3h1.5c0,0-.5,2.1-.5,2.1l2.3,3.3.7-.7-1-4.3,1.9-1.3,1.1-2.5h2.8c0,0-.1,3.1-.1,3.1l.9.2v.9c0,0-.3,1.8-.3,1.8l-1.5.4-.2,2.9.7-.2.2-.9h1s.3-2.3.3-2.3l.9-.6,1.2,3,2.1,2.2,1,3.4,1.6.9-1.8,1.9-1.4.5-1.9-.7-.5-1.1h-3.8c0-.1-.6.6-.6.6l1.4.7-.2.8-1.5.7-2.4-.2-3.7.8.8,3.9-2.5.3-2.2,1.8,3.3,4.6.4,10.3.6.8h1.4c0,.1-.1,1.8-.1,1.8l1.7.8,1.1,2.1,3.9,2.4,1,1.4,1.2-.6,2.4,2.2-4.3,2.6-2,4.2-2.5.8-9.1-2.9-4.5,2.8-2.4,3.4-.8,2.4h-2.8c0,0-1.7-2.1-1.7-2.1l-1.9,2.9-3.6-.4-1.7-1.1-1.6-3-2.3-.8-2.9-3.3-2.7-1-.2-3.6-3.9-1.3-.9-1.2-2.2,1.5-2.1.3-2.3-2.4-4.6-.5-2.1-2.5-5.8-4.2-1.4.2-1.4,2.1.2,5.4-1.1,3.7-5,1.1-1.1,1.2-7.9,1.4-.3-2.4-1.3-1.6v-1.7c-.1,0-1.1-1.1-1.1-1.1l.5-.9-.9-1.7-1.4.4-.2-1.2-2.8-.3v-1.1s-1.6.2-1.6.2l-3.6-3.8-2.5-1.2-2.4-.2-.5,1.8h-1.3c0,.1-1.1-1.7-1.1-1.7l.7-4.3,1.1-.5.7-1.4-1.1-3.1-2-2.7-4.2-.6-1.9-2.7-1.7-.3-.6-1.8-2.5-.9-2.1-2,1.8-7.2,1.1-.8-1.4-.4-.9-1.1-2.8.9-.3-1-.3.4-.8-.8h-1.1c0-.1-.7-7.7-.7-7.7l-3.2-6.9-.4-2.4,1.4-.6,1.6,3.6,3.1-.6-.9-3.4-1.1-.7,1-4.8-2.4-.3-1.3-1.8,3-.5Z"/>
    <path id="SI-ZS" d="M244.6,245.2v1.9l1.8,1,1.5,2.1h3c0,.1,4.5-1.5,4.5-1.5l4.6.5.3,1.6.8.2,3.7-2.3,1.5.6,3.8-.2,4-2.6,3.7,3.3.2,1.5h.9c0,0-.3,2-.3,2l3.3-.3.9,3.6,2.8,2,1.4,3.1,1.2,1-2,.5-.9,1.6-5-2.2.3,1-.7.4-.8,2.6,3.6,2.2-3.2,1.1-4.6-1.6-.4,1.7-2.4.4v2.7s-1.2-.9-1.2-.9l-1.5,1.1.3,1.6h0l-7.9,1.5-4.4-2.3-.6-1.2,2.1-.8-1.1-.6v-1.8s-1.1-1.7-1.1-1.7l2.2-.2.5-1-1.8-2.9-3.3,1.5-3.1,3.8-5.2.4-1.7-.2-2.2-2.3-.7-2.1.5-2.3-.8-1-1.1-.5-6.7.9v-1.7c-.1,0,.9-2.2.9-2.2l-2.6-2.5v-1.1c.1,0-1.4-.3-1.4-.3l-.6-.9,5.6-.2,3.1-1.6,2.8.7v-1.4c0,0,1.9-1.1,1.9-1.1l-.2-4.2,1.4-.2Z"/>
    <path id="SI-SA" d="M305.4,179.1l1.2,1,1.7-.3.2,2.2,1.4,1.6v2.2c.1,0,1.5.2,1.5.2l1.7-.7,1.4,1.1.2,1.1,1.9,1,1.6-1.1,3.1,2.6-.8,1.4-.2,3.4h-1.2l-.2.6,3,2.4-.8.7.5,1.3-2.1.4.9.9,2.3.5v1.1c0,0,.7.5.7.5l3.2.7v1.1c0,0,1.1.6,1.1.6h2.6c0,0,1.3-.7,1.3-.7l1.3.9,1.2-1.1.8.4.8,2.8,4-1.1,1,.9,1.4,8.7,1.1,1.3-.8,2.6,1.1,1.6-1.2,1.2,3.1.8.3,3,2.5.8,2.7-.7,1.3,1,3-.7,2.8,1.1.2,1.2,4.7.8,1.3.8,1.9-.2-.4,1.3.4.6,3.2-.2h0l2.7-.2h0l1-.2,1.7,1,.8-.4,1.6,3.1,5.6-.8h0l.4,1.9-.9.6-1.2,4.2-4.3,2.2-1.4-.7.7-1.5-.7-.9h-1.9c0,0-1.4,1.2-1.4,1.2l-.3-1.5h-4.6c0-.1-2.7-1.1-2.7-1.1l-4.8,2.4-1.2,2.1,1.1.8-.4,3.7-1.2.3-.9,2.2-3.7,2-.6,1.5,1.5,1.9-2.6,1.3,1.7,1.6-.3.5h.9c0,.1-.6,2.4-.6,2.4l.6.2-.7.4.3.8-.7,1,.9,1.9h.6s-.1,1.5-.1,1.5l1.6.6-.4,1.9,1.7,1.1,2.3-.8.3,1.1,1.4.4.2,2.3,1.7-.9.7.9.9-.4,2.2,2.1,3.2.7.9,1.4h0l-2.1-.4-1.6,1.1-4.1-.4-1.5,2.9-2.9,1.2-2,3.4-1.6,1.4-3.8,1.5-5.4.6,1.1-2.1,3.1-2,1-3.3-3.2-.5-1.4.8h-2.4c0,0-.9-5.4-.9-5.4l-1.6-.4-1.3-2.6-1.8-.8-1.8,1.3-1-1.6-2.6-1.4-3.5.7-2.5-.6-1.4.7h-3l-2.9-.6-1.3-1.2-3.2,1.8h-5.6c0,.1-2.6-.7-2.6-.7l-1.6.6-2-.3-.2,2.9-1.2-.9.2-3.8-1.2-.6v-1.8s-.9-1.2-.9-1.2h-.6s-.9,1.7-.9,1.7l-1.7.4-1.8-.3-1.9-1.5-1.9.7-1.2-.6-2.3.9-.3,1.1,2.3,1.4-1.1,2.9.6,1.1-.9.9,2.2.8-.2,3.4-4.2-2.4-5.9-1.4-5.5,1.6-2.1-.4h0l-1.9-.5-.8-1.8h0l-.3-1.6,1.5-1.1,1.3.9v-2.7s2.3-.4,2.3-.4l.4-1.7,4.6,1.6,3.2-1.1-3.6-2.2.8-2.6.7-.4-.3-1,5,2.2.9-1.6,2-.5-1.2-1-1.4-3.1-2.8-2-.9-3.6-3.3.3.3-1.9h-.9c0,0-.2-1.6-.2-1.6l-3.7-3.3-4,2.6-3.8.2-1.5-.6-3.7,2.3-.8-.2-.3-1.6-4.6-.5-4.5,1.6h-3c0-.1-1.5-2.2-1.5-2.2l-1.8-1v-1.9h0l.6-1.4.9.3.8-1-1.9-.3-1-2.7-1.1.4-6.9-4.7-7.9-.6-3.6,1.2-2.1-.7-1,.6-4.2-1.4h-3.7l-1.1-1.9,1.2-2.2v-1.6s-1.3-1.9-1.3-1.9l1.3-2.6v-1.4c-.1,0-3.2.8-3.2.8l-1.3-.5v-5.5c0,0-.5-.8-.5-.8h-1.9c0,0-2.8-3.2-2.8-3.2l.2-7.1-3.5,1.3-3.3-.2-.8.9-3.8-2.5h0v-.2h0l1.6-4.1.3-4.2-.9-1,.4-2.6,1.2-.5.5-1,1.7-.6h3.6s4.8-1.3,4.8-1.3l.6-1,1.5-.3.4-1.2h0l3.3.8,5-.5.4.9,2.1.8,1.9,4.5,1.6-.7.4-1.7,1-.3.8.8,1.2-.3,1.1,1,1.9.4,4.3-.6,2,1.4,2.7-.7,3.9.3,2.7-2.7h4.6c0,.1.5-1.4.5-1.4l2.3-.7-1.1-2.5h.8s7.5,4.4,7.5,4.4l3.3.3,6.3,2.3,3.6,2.6-.3-1.8.6-.7,4.4,1.8,1.2,3.2,2.8,1.5.8-.3.5,1.2h1.2c0,0,.1-1.2.1-1.2l1.3-.8,1.9-.2.3,1.7-1.6,1.5v1.1s3.1,1.5,3.1,1.5l6.6-3.1-.3-1.4,2.9-4.2v-3.5c0,0,1.6-4.2,1.6-4.2l3.6-2,3.9-.9.8-1.5-2.3-2.5-.5-2.7.4-.3Z"/>
    <path id="SI-KO" d="M282.3,143h1.5c0,0,.5.7.5.7l2.5-.2,1.6,1.8,6.5,1.9,3.9-1.2h2.8c0,.1,2.4-1.7,2.4-1.7h2.2c0-.1,1.9,1,1.9,1l1.1-1.2,2.3.4h0l-.7,3.1.2,3.3-4.4.2-.6.6v2.9s-2.8,2.8-2.8,2.8l-1.3.4-1.7,9.3-1.5,1.7-2.7,1.5-.6,3.2h-.8s0,.8,0,.8h-.6s-.6,4.7-.6,4.7h1.4c0,0,2.3-2.4,2.3-2.4l2.9.8,2.4-1.3.9.7,1.6-.4.6,2.5h0l-.4.3.5,2.7,2.3,2.5-.8,1.5-3.9.9-3.6,2-1.5,4.2v3.5c0,0-3,4.2-3,4.2l.3,1.4-6.6,3.1-3.1-1.5v-1.1s1.7-1.5,1.7-1.5l-.3-1.7-1.9.2-1.3.8v1.2c-.1,0-1.3,0-1.3,0l-.5-1.2-.8.3-2.8-1.5-1.2-3.2-4.4-1.8-.6.7.3,1.8-3.6-2.6-6.3-2.3-3.3-.3-7.5-4.4h-.8s1.1,2.5,1.1,2.5l-2.3.7-.5,1.5h-4.6c0-.1-2.7,2.6-2.7,2.6l-3.9-.3-2.7.7-2-1.4-4.3.6-1.9-.4-1.1-1-1.2.3-.8-.8-1,.3-.4,1.7-1.6.7-1.9-4.5-2.1-.8-.4-.9-5,.5-3.3-.8h0l-.2-1.4,1.1-1.3,1.5,1,1.2-.4v-1.3c0,0-.6-.7-.6-.7l.7-1.3,1.4-.2.5-4.7,1.5,1.2.7,1.7,2-3.6,1.2,1.7,1.5-1.5h2.6s1.6,1,1.6,1l4.9-2.1v-3l1.2-1.5-.2-1.4,1.3-.9-1.4-.9,1.3-1.2,1-2.4-.6-1.3,1.2-.4-.3-1.5,1.8-1.8.6-2h1.1s.7-.9.7-.9v-2.1c0,0,2.3-1.6,2.3-1.6l1.2-.2,3.6,2.1.3-.7.7,1.1.8-.5-.3-4.3,1.5,1.2,3.5-2.9,2.2,2,1.4,3.8,2.7-2.3v-2c-.1,0,2-1.9,2-1.9l1.2-2.3,4.3-2.6h3.6c0,.1,2.4,1.4,2.4,1.4l3.9-3,3,1.2.3.8h.5s.3-1.4.3-1.4h1.3c0-.1.2-.7.2-.7l1.8.4Z"/>
    <path id="SI-PS" d="M272.4,277.4l2.1.4,5.5-1.6,5.9,1.4,4.2,2.4.2-3.4-2.2-.8.9-.9-.6-1.1,1.1-2.9-2.3-1.4.3-1.1,2.3-.9,1.2.6,1.9-.7,1.9,1.5,1.8.3,1.7-.4.9-1.8h.6s.9,1.2.9,1.2v1.8s1.2.6,1.2.6l-.2,3.8,1.2.9.2-2.9,2,.3,1.6-.6,2.6.8h5.6c0-.1,3.2-1.9,3.2-1.9l1.3,1.2,2.9.6h3l1.4-.7,2.5.6,3.5-.7,2.6,1.4,1,1.6,1.8-1.3,1.8.8,1.3,2.6,1.6.4.9,5.5h2.4c0,0,1.4-.8,1.4-.8l3.2.5-1,3.3-3.1,2-1.1,2.1,5.4-.6,3.8-1.5,1.6-1.4,2-3.4,2.9-1.2,1.5-2.9,4.1.4,1.6-1.1,2.1.4h0l1.7,2.2-1.3.3-1.2,1.4.4.6-.7,2.3.5.4-1.7,1.1,1,.2v2.2c-.1,0-1.7.8-1.7.8l-.2,1,1,1.3-.9.5.7.6.7,4.5-.3,9.4-4.2,4.4,1.2,4.4-.5,1.2,1,2-1,1.4,1.3.5,2.2,3.1-2.6,1-3.9.2-3.6,4.6-2.1-2.8-2.7-1.8-4.7-1.4-1.3-1.3-1.9,3.1-1-.5-.5-1.4-1.8-.3-.8,4.2-1.3,1.3-3.6.3-.3-1.4-1.4-.8-2.2,1.1-.3,1.4-1.4.3,1.1,4.8-1.6.7-6.7-.3-3.4.9h0l-2.5-8.2-1.4-1.8-.4-2-1-.8.3-.9,3.5-.7.9-1.6h-2s-.6-2.4-.6-2.4l.5-1.4-6.3-3.1,1.3-3.3-.6-9,1.2-1.9-.7-1.1-2.1-.6v-2.8c0,0-2,.2-2,.2l-2.4-.9v2.5c0,0-1.7-1.6-1.7-1.6l-2.1-.7-1.2,2.1,1.3,1.4v1.4c0,0-1.6.1-1.6.1l-1.5-2.7-2.1-.5-.2,2.3h-1.3c0,0-.2,1.3-.2,1.3l-1.3-.6-.6.4v1.2c0,0-.9,0-.9,0l-3.4-1.4-5.3-4.5-.2-2.2-1.5-.8.4-2.3,1.9-.9.3-2.6-4-.8-1.4,1.8-.6-1.7-3.3-1.1h0l-3.1-5-.2-1.9Z"/>
    <path id="SI-PD" d="M380.8,131.5l4.2,6.2,2.1-1.4,1.5,2.5-.9,1.4.9.9h1.4s.9,1.8.9,1.8l3,1,.8-.4.5,1.4,1.1-.9,2.6.6.3,1.3,2.3.3,1.9,2.5,2.1,1.1v.9c0,0-2,1.2-2,1.2l-.2.8-2.5,1,2,4.8,8.7,1.3v4.5c-.1,0-1.2,1.7-1.2,1.7l.4,2.1,4.5,6.4v1.1c.1,0-.8.9-.8.9l1,.9.3,1.7-.9,1.2,4.3,4,.4,1.2-.9,5-2.1,2.4v2.6c.1,0,.9.5.9.5l1.6-.3.7-1.6h.8c0-.1.2,3.4.2,3.4l-.7.7,2.7,3-.4.7.8,2.2h-.6s0,.9,0,.9l2.8,4.8.5,3.1-.5,1.8-5.4.5-2.9,4.8-2.8.9-1.1-.8-.9.9-1.2-.5-2,3-3.6,1.7-4.2.8-.7-.9-.9.4-1.2-.4-.8,1.1-3.7.8-1.2,2.4-1.9,1.5-2.1-.4-1.5.7-.5,1.3-5,.6.9,2h0l-5.6.8-1.6-3.1-.8.4-1.7-1-1,.2h0l-2.7.2h0l-3.2.2-.4-.6.4-1.3-1.9.2-1.3-.8-4.7-.8-.2-1.2-2.8-1.1-3,.7-1.3-1-2.7.7-2.5-.8-.3-3-3.1-.8,1.2-1.2-1.1-1.6.8-2.6-1.1-1.3-1.4-8.7-1-.9-4,1.1-.8-2.8-.8-.4-1.2,1.1-1.3-.9-1.3.7h-2.6c0,0-1.2-.6-1.2-.6v-1.1c0,0-3.1-.7-3.1-.7l-.8-.5v-1.1c0,0-2.2-.5-2.2-.5l-.9-.9,2.1-.4-.5-1.3.8-.7-3-2.4.2-.6h1.2l.2-3.4.8-1.4-3.1-2.6-1.6,1.1-1.9-1-.2-1.1-1.4-1.1-1.7.7-1.4-.2v-2.2c-.1,0-1.5-1.6-1.5-1.6l-.2-2.2-1.7.3-1.2-1h0l-.6-2.5-1.6.4-.9-.7-2.4,1.3-2.9-.8-2.3,2.4h-1.4c0,0,.6-4.6.6-4.6h.6s0-.9,0-.9h.8s.6-3.2.6-3.2l2.7-1.5,1.5-1.7,1.7-9.3,1.3-.4,2.8-2.8v-2.9s.6-.6.6-.6l4.4-.2-.2-3.3.7-3.1h0l1.9-.8.6.9,2.1.2,7.5-1,.3,1.7,1.4.2,1.5,1.4,1.1-.5,1.3.7v2.1c0,0,1.1,1.2,1.1,1.2l.2,2.1,1.8.6,2.2-1.8,1.3.4.6,1,1.3-.5v-1.3c.1,0,1.1.2,1.1.2l2.9-2.8.5-.2.5.9,1.1-1.9-.9-1.2,1.4-.9-1.1-4.8.6-.6,1.2.3,1.7-1.9,3.2-.9,1.1-1.4,1.7.5-.5.5-1.2-.5-.6,1.8,2,1.3.8-.3-.8-1.5.7-.5,2.5.8,1-.6.8-2,2.3-.2.7-3.3h3.1c0,0,3.4,1.9,3.4,1.9l3.2.4,2.7-.9h4.3c0,.1,3.5-2,3.5-2Z"/>
    <path id="SI-PM" d="M454.5,94.4l4.9.2,1.3,2.7,4.1,3.2,1.5.3,1.6,2.1-1.3,3.3-.4,4.2-2.6.5-1.4,1.3v3.7s2.4,0,2.4,0l.3.8-1.6,4.5,4.7,4.9v2.1c-.1,0,1.1,2.1,1.1,2.1l2-1.7,1.4,1.6v1.2c0,0-1.4,1.4-1.4,1.4l.7.7,8.5,1.3-1.6,8.2h-2.2s-2.1-1.1-2.1-1.1l-.2,1.9-.9.7.2,1.7,1.1.9-.2,1.3,2.5.7,2.3,4.1,3.5.7,3.7,5.6.6-.3,1.1,1.2.5,3.3,1.7,1,2.3-.2,1.5,2.4-.5,2.6.4,1.3,2.1.9-1.1,2.8,1.2,1.3-1.5,2,8.6,4.6,2.5,3.2h-1.3s-.8.7-.8.7l-1.6-1.5-.6,1-2.9-2.1h-1.1c0,0-.6-1.3-.6-1.3l-1.3,1-1.1-.3-.6-.7.8-1.8-4.6-1.9.6-1-.5-.8-2.9-1-1.3.2-1-2-3.2.7-1.4-2.9-1.5.4-1.2-.9-.7,1.1-1.8-1.5.4-1.1-.4-.7h-.8s-.6,1.9-.6,1.9l-2.1,1-1.6-2.6-1.2,1.2-1.9-.9-.8,2.8-1.8-.8-2.2.9-.8,1.4-1.9,1.2h-4.4s-1.5,4.1-1.5,4.1l-1.3,1.1v1.4l2.4,5.4.8,7,1.5,2.4,3,2.4,1.2,2.2-.2,2.3-2.8,3.7-2.4.2-.6-1.9-1.5-1.7-2.4,1.8-2.5-.8-2.5,1.4-1.2-.6-1.5.5-2.2-3.5-4.9-3.2-1.3.2-2.3,1.8-1.9,3.2-2.3-.6-2.4,1.1-2-.3-1.5-1.1h0l-.8-2.2.4-.7-2.7-3,.7-.7-.2-3.5h-.8c0,.1-.7,1.7-.7,1.7l-1.6.3-.7-.5v-2.6c-.1,0,2-2.4,2-2.4l.9-5-.4-1.2-4.3-4,.9-1.2-.3-1.7-1-.9.9-.9v-1.1c-.1,0-4.6-6.4-4.6-6.4l-.4-2.1,1.1-1.7v-4.5c.1,0-8.6-1.3-8.6-1.3l-2-4.8,2.5-1,.2-.8,1.9-1.2v-.9c0,0-2-1.1-2-1.1l-1.9-2.5-2.3-.3-.3-1.3-2.6-.6-1.1.9-.5-1.4-.8.4-3-1-.9-1.7h-1.4s-.9-.9-.9-.9l.9-1.4-1.5-2.5-2.1,1.4-4.2-6.2h0l1.8-1.2,5.2-1.6h6s7.1,3.2,7.1,3.2l4.1,3.6,7.6,2.1,1.6,1.4,1.1,2.5,3.8,2.2.8-1.1.2-5.2-1.9-3.8.4-2.7-1.8-.3-.8-1.2h-1.8s.3-1.1.3-1.1l-2.1-1.9-.8-2,.6-4.3-.3-3.5,1.1-3.1-.5-3.4,1.1-1.3-2.1-3.9,1.9-1.8,1.3,1.1,3.3-1.9.8,1.3,1.5-1.6,2.6.4.5-1.9,1.7-1.5h1.1c0,.1,1.7-2.4,1.7-2.4l.7-.2.7.9,2.2-2,.2,1h1.1s.9,1.5.9,1.5l4.3.7.8-1.1,2.1.3,2-1.9,5.6-.9,2.1-1.3,3.9.7Z"/>
  </g>
</svg>