<svg xmlns="http://www.w3.org/2000/svg" xmlns:amcharts="http://amcharts.com/ammap" id="Layer_1" viewBox="0 0 512 512"><g id="_x3C_defs"><amcharts:ammap bottomLatitude="27.636" leftLongitude="-18.162" projection="mercator" rightLongitude="4.332" topLatitude="43.794"/></g><g><path id="ES-AN" d="M365.7 237.4v.5l-1 .4-.4.8-1.4.4-1.8-2.2-1.2-1-1.1-.2-1.4.9-1.1-.7.3.3-.4-.3-1.9.5-1.4 2.7-.6.6-1.2.5h-1.6l-1-.6-.8.3-1.7-1.6-1.2.4-6.2-.5-1.9.4-.6.7-1.2.6h-1.4l-1-.9v.2h-.7l-1-.8h-1.2l-.5.4h-.9l-.3.3-.5-.5-.4.2-1.5-.7-2.8.8-2.5-.6-.8.7-1.8.3h-3.3l-1.5-.2-.5.4v-.3l-2.2 3.3-.5.5-1.6.6-.7 1.5-2.4.6-2.5-.6h-1.3l-2.1 1.3-1.7.2-1.7 1h-.5l-1 1.1-.6 1.9-1.5 2.2-.5 2.1h-.6l-.5-.6h-.9l-.5 1.1.4 2-.8.6h-.5c0-.1-2.7 1.2-2.7 1.2l-.8-1.2-1-.5-.8.2-1.3-.8-.4.3-1.4-1.9-1.3-1.1h-2.7l-1.5-2.8-.9-.3-.8-2-.8-.8-1.6-3.6h-.6c0-.1.9-.6.9-.6l-.3.3h.3v-.2.3l.3.8v-.3c.1 0 .2.2.2.2l.6-1.1.2-.8-.2-.4h-.8l-.8-1h-.5c0 .1.2 0 .2 0l-.4-.2v.4l-.3-.4-.3.3-.8-.5-1.1-2.9 1.9-1.5-.9-.5-1.1-2.6-1.9-2.2-5.3-3.5-2.3-1.1-1.6-1.2.5.8 1.8 1.5-2.5-2.2h-.5l.3.3h-.3l-2.2-1-6.1.5-.8.7-.8-.3-.2-1.4-.4-.6.3-.7-.5-1v-2.3l-.5-.5.4-.3-.5-1.4v-.5c.1 0-.3-.3-.3-.3l-.2-.7h-.4l-.3-.9.3-.2v-1.3l1.2-1.2.8-3.1.6-.2 2.1-2.1.4-1.6.6-.8V204l1.2-.6h1.6v-.7l.6-.4.9.7h1.2c0-.1.5-2.4.5-2.4l.8-1.4-.3-.2v-.4l.8-1 1.9.9h1.1l-.4 1.9h.9v.3l.5.2.6-.3 1.6.3.5-.2.6.6.4.4v1.1l.6-.2h.3l1.6.6.3-.2v-.5c-.1 0 .5-.5.5-.5l-.2-.3h.9l1 .2.2 1 .6.5h.1l.5.6 1.2.2.3.3h.9l.5.5 1.5-1.3 1.5-.4h2.2l.4-1.4.6-.6-.5-.6v-.5l1.1-.8v-.7l.7-.5h1.2l.4-.4h.6c0 .1.6-.3.6-.3l.9.4v.6l-.2-.3h-.3c0 .1.2.6.2.6l-1 .7.2 1.2.6.2 1.6-1.6 1.2.2.2-.5.9-.4v-.6c-.1 0 .2-.5.2-.5v-1.7l-1.1-1.9.4-1.1-.6-.6v-.5l.9-1.4.6-.4h.8v-.6c.1 0 1.6-1 1.6-1v-.2l.3-.6.4.2-.2-.4.5-.9h1.4v-.3l.4-.5.8-.4.7-.9.2.2v-.5c.1 0 .3.3.3.3v-.3l.4.2v-.4h.4l-.4-1.2 2 .3 1.2-.6.8.4.2.6 1.3.4h1.6l.4 2 3.4 1.2v.6l.9.1 1 .7.6 1.1.2-.2h.4c0 .1.2.6.2.6h.4c0-.1 2 2.2 2 2.2l3.7 1.7h.4c0-.1-.2-1-.2-1l.3-.6 3 .6 4.9.3 1.3-.2.6-.5.2-.7.6-.2h.4c0-.1.9.2.9.2l.2-.3 2.6.9.6-.3v-1.2h.4l.7.3.2.9 1.4.3 1-.2 1.1-1v-.9l1.1-.3h.1l1 .7 3.2.5 1.6-1.1 1.4 2 .2-1.2.6-.5h1.4l.5.5.4-.7.5-.3.2.2v-.3l.9-.4v-.4l.3.1.2-.6 2.1 1.1 1.5-.5h.2l.7.6v2.2l1.9.5v2.7l.9.5v.6c.1 0-.3 1.4-.3 1.4l.2.9-2.4 2.9.6.4h.3l2.1 1.1 1.8.2.9.6 1 1.9 1.8 1.4 1.1-.3.9.8.5-.3.9.4.4-.3.4.2h.1l.2.2-.5.7-.3 1.9.3 1.4-.4.8.2 1.4v.2h.1l3.4 5.5.8.6v-.5l1.7.3 2.5 1.9-1.1.6-.7 1.4-2.1 2.2-1.1 4.4-1.2 2.3v1.1c.1 0-.1.3-.1.3h-.8l-.6 1h-.5c0 .1-.3.5-.3.5v1.2l-.8.4-.5.8Z"/><path id="ES-AR" d="m370.6 85.5.2.5h1.6l1.2 1.1 1.4-.3 2.2 1.5h.5c0 .1.4 0 .4 0l.3-.2h2.1c0 .1.6-.6.6-.6v-.4l.9-1.8.8-.8v-.9h-1.1l-.3-1-.7-.6.2-1.7-.6-1.2.6-1.6-.2-.5 1.6-1.9v-.5c-.1 0-.7-.2-.7-.2l.4-1.4 1.5-1.6-.3-1.5.5-1 .8.4.5-.2h.1v-.9l1-.7-.5-.4h.5V66h2.5v-1.3l.3-.3h1.3l1-1.3h.5v-.5h.8l.4-.8-.3-.4v-1.5l.9-.7v-1l.8-.6h1.3l-.2.8.8.5.4-.2.5.7 1.2.9v.8h.8v.8l.4.1.2-.5h.4v-.6l.5-.5 1.4 1 .7-.4.6.2.8-1.1h.5l.3-.4 1.2.9h.3l.1.4 1.1.7.6-.3 1.2 2.4h.8l.2.8 1 .3h.5c0-.1.1-.5.1-.5l.8.2.6-.6h.8c0 .1 1.1-.3 1.1-.3l.3-.4 1.9.6v.7l.8.6.6-.3v-.7l.9-.6 1.4 1 1.3-.3.9.3.2-.3 1.3.2.2-.3 1.4.4v.2h.3c0 .1.5.8.5.8l.2 1.1 1.4.3-.6 2 .2.3-.4-.2-.3.4v.4l.4.2-.6.5-.3-.2-.2.3 1.2 3.1-.5.6 1.1.4-.7.5.5.5-1.4 4.1v.5l.3.3-.5.4.2 1-.7 2.2-.3.2v1.3l-.3.5V86l-.5.1-.3.8-.4-.2-.6.9 1 .5h-.3v1l.3.4-.6.3v.3h-.6l-.3 1h-.7l-.7.6-.3 1.1-1.6.2v.8l-.3-.2-1.3 1.8v.6l.7.9-.2 1 1.2.2.6-.3.4 1.8-1.1 1.6-1.3.2.3 1-.8 1.7 1.2 1.3-.6.7.5.4v.4l.4.8-.2 1.3h-.3v.3h-.9l-.6 2-.9.2v.6c-.1 0-.9-.2-.9-.2l-.3.3v1.2h.4l.2.8-.3.4h.3v.2l.3-.2.7.6-.4.2.5 1v.2l.3.2-.9 1.5v.2l-.3.9.9 1.9-1 1v.6c-.1 0-1.3.4-1.3.4v.4l-.4-.3.2.5-.5.4-.9-.2-1.5 1.1h-.3l-.3-.9-.4-.2H410l-1-.5-.8-.7v-.5H407l-.8 1.3v1.5c-.1 0-1.7.9-1.7.9l-.5-.6-1.1.4.2 1.6 1 .3.7-.2-.2 2.8.5.5v.7l-1.3.6-.3.4 1.4 1.6v.7c.1 0-1.2.8-1.2.8l-.6 1h-.5l-.2.3.4.9-1 .6-1.5.5-1.2-.7-.8 3.4-.7.3-.4.7.3 1h-.4c0-.1-1.1.8-1.1.8h-1.6l-.6 1.5-1.2.5v1.6l.9 1.2-1.7 1-1-.7.2-.5-.3-.8.2-.6-.4-.7-.3.2-1.3-.7H387l-.5.4h-.5c0-.1-.2.2-.2.2l-.4-.3-.5-1.2 1.8-.8.3-.4v-.6c-.1 0-1.7-1.3-1.7-1.3h-2.2v-1l-.7-.4-.4-.9v-.4h-.1v-.3l-.5.4v1.5l-.4.2-.4.4-.5-.2-.4.2h-.2c0-.1-1.1-.3-1.1-.3l.2-1.6-.8.3-.8-.5-.7.4-3.3-3.5-.7 1-.2-.7.2-.5h.5l-.5-.7h-.1l-1.1-1.5-.6-.2v-.3l.2-.3.2.2.9-1.6 1.2-.7-.2-1.4.2-1.2.4-.5 1.7.9 1.2-1-.4-.5.6-2.1-.5-1.5.4-.6v-1l-.3-1h-.4l-1.1-1.5.3-1.4-.2-.5-.7-.6-.3-.4-3.2-3.3-1.2-.4-1.1-1h-.3l-1.1-1.1-2.1.7-.6-.7-1.5-.4-.7-3.1.5-1.3v-.6c-.1 0 .7-.5.7-.5l.5-2.2 1.5.5-.2.9.3.4 2-.7v-.4l-.4-.1v-1.1l-.6-.7.3-1.8-.6-1v-.6h1.6l.6-1.1h.2c0-.1.3-.1.3-.1l.4-.7h1.1V96l.8-1.1-.8-.4V94l-1-1.1.8-1.1V91l-.8-1.5v-1.9l.2-1.2Z"/><path id="ES-AS" d="m280.3 34.9.3.5 1.1.4-.2.4.5.3.2.7 1.8.4-.3.3-.2-.2v.5c.1 0 .4-.2.4-.2l-.3.4h.5l.2-.2.4.2.6-.5.6.3h1.7c0-.1.5.1.5.1l2-.3.4.8.4-.3h1.8c0 .1 1.8 2 1.8 2l2.1-.3 2.5.8h2c0-.1 1.2.5 1.2.5h.8v.3l.5-.2 2.6 1 1.7.4h2.4v.4l-.6.7.5 1.4v1.1c-.1 0-.7.3-.7.3v-.5l-1.3-.4-.6 1-2.2.3.2.7-.4 1.4-.9-.2-.7.3h-.6l-.7-1.4-1-.3-1.2.8-.7 1.2-.6-.3h-1.2c0 .1-.6 2.5-.6 2.5h-.9l-.2-.4-1.3.7c0 .1-2.6.4-2.6.4l-.4-.5h-.6l-.3.2-.2 1.1-2-.2-.3 1-3.2-.4-1.3-.7-.8.5-.9 1.7v.5l-.9.2h-.8l-.4-.5h-.6v-.4h-.6l-1-.8-.4-1.4-1 .3-1.4-.6-.4 1.4-.9.4-.9-.8h-.9l-.3 1.2-.8-.2-.5-.6-.2.3h-.7v-.6l-.6-.4-.3.5h-.5v.6h-.4l-.3 1h-.3c0-.1-.2.2-.2.2l-.6-.3h-.1l.1.8h.9v.8l-1 .2-.3.4-.5-.2-.7.5-1.5-.4h-1.7l-.8.2-.8 1.1h-.3v-.5l-1.2-.5-.4-.4v-1c.1 0-.7-.9-.7-.9h-.8l-1.1-1.5v1.2h-.4l-.6-.8.4-.6.4.2v-.8l.6-.8.6.4.4-.5h.5l.9-1 .2-.6-.8-.9-.7.2v.3l-1.2.8h-.4l-.5-1 .3-.7v-.5c-.1 0-.8-.1-.8-.1l-.2-.5-.2.3-.9-.9-.2-.7.2-1.1h-.9l-.7-.8v-1.3l-.1-.4-.5.3-.4-.2V42h1.6l.3-.8.8-.5.5-.8-.2-.3.3-.7h.6l-.6-.4V38l1.3.1.5-.5v.2c.1 0 .2-.4.2-.4l1.2.2.3.4.6-.4 1 .5 1.5-.4.5.6.3-.4h.8c0 .1 1.1-.3 1.1-.3l.2.3h.3v.2h1.3l.2.3h1.4v-.8l1 .6.7-.2.9.3 2.2-.8.3-.5.5.5.3-.2v.4c.1 0 .5-.2.5-.2v.5l.6-.1 1 .4 2.2-1 .5.5.9-.2.4-.5h-.2c0-.1.7-.4.7-.4v-.5h.8l.5-.4v-.6h.4Z"/><path id="ES-CB" d="m338.1 49.1-.5-1.7.9-.4.4.2-.4.9v.9h-.4Zm-6.8-9.7v.3l.8-.2.3.5h.5l.3.6 1.6.3.2.6h-.7c0 .1.6 1 .6 1l.4-.3 1 .2 1-.2v.6l.4-.3 1.7.4.8 1 .9.3v1.6h-.8l-.4.5-.3-.8-1.2.6-.4-.3-.6.2-.2-.2-.2.7-1 .2-.3.7-1.2.3.2.6v.2h.1l.4 2.3h-1.7l-1.8-.6h-.7l-.2-.5-.9-.4-.8 1.2c0 .1-.5.8-.5.8l-1.1.5-.3.6h-1.5l-.6-.3v1.5h-.8l-.6.8-.8.4-.8 2.1.4.7h1v.4l1.5-1.7.8.8-.8.9-1-.4.4.7h-.7l.6.2-.3.5v.2l.9.3.2-1.1.6.3.5 1.4v1.1c-.1 0-1.1.4-1.1.4l-.7-.5-.4 1.1-.5-.2-1.1.5v-.3h-.5v-1.9c-.1 0-.5.4-.5.4v.4c.1 0-.3.2-.3.2v.3c.1 0-.4.2-.4.2v.5l-.7.1-.4-.9h-1.1l-.8-.6v-.3l.5-.5.5.2.2-.7-.5-.4-1.1.8-.6-.4V58l-.3-.2v-1.2l-2.5-.5-1.2-1.9-1.4-.8-.3.7-1-.2-.9.8-1.1-.5-.7.6-1-.3-1.2.2v-1.1h-.6V53l-1.5-.8-.4-.7.4-1-.4-.5.3-.3h.6l.7-.3.9.2.4-1.4-.2-.7 2.2-.3.6-1 1.2.4v.5l.7-.3v-1.1c.1 0-.4-1.4-.4-1.4l.6-.7v-.4h.9c0 .1 1.2-.1 1.2-.1l.8.2 1-.5.4.5h1l2.4-.4 1.4-.5.7-.6h.6c0 .1.2-.2.2-.2l.3.4.3-.5 1.2.3h-.3c0-.1.8-1 .8-1l2.4-.3.6-.5h.6v.5l.5.3-.9.2-.7.6v.3l.5.2v.7l.1-.4v.2l.6-.3-.3-.3h.3l.1-.5h.6l-.6-.3h.8l.3-.4h.8l1-.8h.7l.6-.4Zm-11.9 21.2h.3v.8l-.3.2-.2-.7v-.3Zm-1.3.1h.1v.3h-.2l-.2-.1v-.2h.2Z"/><path id="ES-CL" d="m345.9 67.3.3.3-.4-.2v-.2Zm-1.2.1h-.2v-.2h.2zh-.1Zm3.7-5.5 2.1-.3 2 .9.9-.2.3.6.7-.4-.3 1.2-.3.4h-.2c0-.1-.2.5-.2.5l.7.9 1.2-.5v1.2c.1 0-.6.2-.6.2v-.3h-2l-.5-.8h-1l-.3.3h-1.1c0-.1-.4-1.1-.4-1.1l-.9-.3-1-.9.7-1.3v-.4h.2zM318 60.7h.2v.2h-.2l-.2-.1v-.2Zm1.6 0h.1v.7l-.3.2-.2-.7v-.3h.3Zm-61.5-2.9 1.2.5v.5h.3l.8-1.1.8-.2h1.7l1.5.3.7-.5.5.2.3-.4 1-.2v-.7l-.9-.1v-.8h-.1.1l.6.3.2-.3h.3c0 .1.3-.8.3-.8h.4v-.6h.5l.3-.6.6.4v.4l.8.1.2-.3.5.6.8.2.3-1.1h.9l.9.8.9-.4.4-1.4 1.4.6 1-.3.4 1.4 1 .8h.6v.4h.6l.4.5h.8l1-.2v-.5l.8-1.7.8-.5 1.3.7 3.2.4.3-1 2 .2.2-1.1.3-.3h.6l.4.5 2.6-.3c0-.1 1.3-.8 1.3-.8l.2.3h.9l.6-2.4h1.2c0-.1.6.2.6.2l.7-1.2 1.2-.8 1 .3.7 1.4-.3.3.4.5-.4 1 .4.7 1.5.8v.6h.5v1.1c.1 0 1.3-.2 1.3-.2l1 .3.7-.6 1.1.5.9-.8 1 .2.3-.7 1.4.8 1.2 1.9 2.4.5v1.2l.4.2v1.6l.5.4 1.1-.8.5.4-.2.7-.5-.2-.6.5v.3l.8.6h1.1l.4.8h.8v-.6l.5-.2v-.3c-.1 0 .3-.2.3-.2v-.4c-.1 0 .2-.4.2-.4v1.9h.5v.3l1.2-.5.5.2.4-1.1.7.5.9-.4v-1.1c.1 0-.3-1.4-.3-1.4l-.6-.3-.2 1.1-.9-.3v-.2l.3-.5-.6-.2h.7l-.4-.7 1 .4.8-.9-.8-.8-1.5 1.7v-.5l-.9.1-.4-.7.8-2.1.8-.4.5-.8h1l-.1-1.5.6.3h1.5l.3-.6 1.1-.5.5-.7c0-.1.8-1.3.8-1.3l.9.4.2.6h.7l1.8.5h1.7l3.7-2 .7.8 1.2-.2.5.3-.9 1.5.6.4.2-.2.2.4-.5.7.4.2v1.2l-.8.2.7.5h1.9c0 .1.6.8.6.8v.3c-.1 0 1.3 1 1.3 1l-.9.9-1.6.3-1.3-.6v-.5l-1.7-.5-1.4 2.1 1.6 1.7h.2l-.3-.4.7-.9.8.4.9-1.1.2.6-1.1 2.1.8.5-.5 1 2.2-.2v.8h.7c0 .1.8 1.1.8 1.1h1.1c0-.1.6.3.6.3v.7h.1l.2.6.7.3-.6.5-.3-.2-.3.2-.8-.6h-.8c0 .1-.5-.2-.5-.2l-.3.4-1.5-.3.5 1.6h-.3l-.6 1.1-.7.4.2.3.8-.2.4.3v.8l-.5.5 1.1 1.3-.4.7v1.7c.1 0-.4-.8-.4-.8v-.6h-.4v.9h.4l.5.8-1 .3.2.7h.1l-.3.5.4 2.1-.3 1-.6.5 2.2 3.4h2.2l.5 1.4v.2l.7.7.7-.6 1-.2.3-2v-.2l.4-.5.5.2.4-.2.6.6v.6l-1.1 1.6.2.7.9-.2.7.5 1.1-.3 1 .3.7-1.7.7-.5v-1.4l.7.2.6-.3.4-.6 2.7-.2.9.4.3 1.3.7-.4h2.4v.7l-.7.4 1.2 1.9-.3.3.2 1 2.2.5h.1c0 .1.6.7.6.7h.4l2.4-1.5v1.9l.9 1.5v.8l-.8 1.1 1.1 1.1v.5l.7.4-.8 1.1v.7h-1.1l-.4.7h-.3l-.2.1-.6 1.1h-1.6v.6l.6 1-.3 1.8.6.7v1.1l.3.1v.4l-2.1.7-.3-.4.2-.9-1.5-.5-.5 2.2-.9.5v.6c.1 0-.3 1.3-.3 1.3l.7 3.1 1.5.4.6.7-.2 1 .4 1.1-.2.3-1.7-1.5-1 1-1.2-.4-.7.8h-.7l-.7.3-.8-.9-1.4.8-.3-.4h-.8c0-.1-.3-1.3-.3-1.3h-.6c0-.1-.2-1-.2-1l-.5-.4-.8.7-.5-.3.3-.9-1-.2.6-.4v-.8l-.8.3-.4-.7-1.4-.3-.2-.7h-1l-.4.6h-.9l-1.1-.6V105l-.9-.3-.8.4-.2.6h-1.5c0 .1-1 .6-1 .6l-2.8-.9-1.1.3-.5 1.1-.4-.5-.4.5h-.7l-.3.2h-1.3c0-.1-.4-.6-.4-.6l.3.8v1h-1l-.5.9-.9.4-.2.2H331c0 .1-1 .8-1 .8l-1 1.6-1.4.9-.9 1.6-2.5 1-.7 1.1h-.4l-.9 4.2-1.1.2-1-.3-.6 1.3-1.4 1.8-.5-.3h-.3l-1.2.3-.5.4h-.3c0-.1-.6.3-.6.3v.5l-.3.3 1 .3.3.7-.2 1.1-.7.4v.4c-.1 0 .1 2.1.1 2.1l-.6.9.4.8h-2.3c0 .1-.5.7-.5.7v1.1l-.4.3v.6c.1 0-.9.2-.9.2l-.6-.9h-.4l.4 1.5-.9 1 .2 1-.4.2-1.4.6-.9-.3v-1.2c-.1 0-.5-.3-.5-.3v-.6c.1 0-.8.3-.8.3l-.5.3-1-.4-.3.6.2.6-1.5 1c0 .1-1.1.9-1.1.9v1c-.1 0-1.7.7-1.7.7h-.2l-.3-1.4-1.1.2-.5.8h-.2l-.9.9-.7.2h-.7l-.2-.6h-1.1l-.1-.1h-1.6l-.7-1.5v-1.6l.6-1.4-1.9.3-1 1.3-.6.3h-1.4l-.3-.2-.3-.2h-.7c0-.1-.2-1-.2-1h-.6c0-.1-.2-.7-.2-.7l-.7-.6h-1.1l-.6.3-.6-.2-.2-.3.4-.7-.6-1.1-1.9 1.2-.6 1.2-1.3-.4-.2-.2-.6-.4h-.1v-.8l-2-.5.5-.2v-.4l.2-.2h-.3c0-.1.4-.3.4-.3l-.4-.3h-.1l-.8-.4.3-.6-.6.2-.3-.7-1.6-.9-2.7 1.5-.3.3v.6c-.1 0-1.3.1-1.3.1l-.5.8h-.5l-1.8.9-.4.6v.9c.1 0-.5.6-.5.6l-1.7.2-.6.6-.6-.8-.9.9-.6-.3h-.4v.2l-.7-.1-.7-.6v-.9l1.7-1 .2-1-1.2-1.3-.3-1.2 1.2-1.9V128c-.1 0-1.1-.5-1.1-.5l1.1-2.7-.8-2.7.3-1.6-.2-1.1h.6v-.5l-.2-.7-.9-.6-.2-1.4-1.4-1.6-.2-.8.4-.3 1.2.3 1.2-.3 1.2-1.9-.3-.9 1.6-1.5.2-.8 1-1.1h1.1l.2-.2.4.5 1.2-1.1.2.3h.4c0-.1.3-.4.3-.4l-.2-.4.9-.3.7-1.4.9-.3-.4-.3v-.5l.6-.3.4.4.8-.2-.4-.7.8-.7-.2-.5 2.6-3.7-.3-.7-.7-.3-1.4-1.6-3.3-.8-.3.5-.9.3-1.1-.9v-1.2l-.4-.6 1.2-3.8-1.2-.4.6-1.4-.9-1-.7.8-1.8.2-1.2-.3-.5-1.3-.6-.2-.7 1.4h-2.6l-.3-.7-.5-.2v-.6c-.1 0 .5-1 .5-1l-.3-.8h-.8l-.5-.6.7-.3.4-1.1.8-.2.2-1.3 1-.5.3-.7.9-.4 1 .6v-.7h-.1l1.3-2v-1.9c.1 0-.6-.2-.6-.2l-.3-.5h-.9c0-.1-.5-.7-.5-.7l.5-.7-.2-.8.3-.4-.3-.8-.7.2-1.7-1h-.7l-.3.8-1.4-.4h-.9l.4-.7v-.7c-.1 0 .6-.9.6-.9l-.3-.4v-1l1-.5-.9-1.6.8-.9h.9l.3-.9.6.4 1.5-1.4v-.4l.6-.7-.7-1.5.8-.2v-.8c-.1 0 .2-.3.2-.3Z"/><path id="ES-CM" d="m315.7 125.5.5-.4 1.2-.2h.3l.5.2-.3.6.3 1.3-1.5.6h-.8l-.2-.7h-.4l-1-.3.3-.3h1.4l-.4-.8Zm16.6-14.6h.5l.2-.2.9-.4.5-.9h.9v-.9l-.3-.8.4.4h1.3c0 .1.3-.1.3-.1h.7l.4-.4.4.5.5-1.1 1.1-.3 2.8.9 1-.4h1.5c0-.1.2-.7.2-.7l.8-.4.9.3v1.3l1.2.5h.9l.4-.5h1l.2.6 1.4.3.4.7.9-.3v.8l-.7.4 1 .2-.3.9.5.3.8-.7.5.4.2.8h.6c0 .1.3 1.2.3 1.2h.8c0 .1.3.6.3.6l1.4-.8.8.9.7-.4h.7l.7-.7 1.2.4 1-1 1.7 1.5.2-.3-.4-1.1.2-1 2.1-.7 1.1 1.2h.3l1.1.9 1.2.4 3.2 3.3.3.4.7.6.2.5-.3 1.4 1.1 1.4h.4l.4 1.1v1l-.5.6.5 1.5-.6 2.1.4.5-1.2 1-1.7-.9-.4.5-.2 1.2.2 1.4-1.2.7-.9 1.6-.2-.2-.2.3v.3l.6.2 1.1 1.4h.1l.5.7h-.5l-.2.5.2.7.7-1 3.3 3.5.7-.4.8.5.8-.3-.2 1.6v.6l1 .7-.2.2 1 2.3 2.2.3.6.3 1.9-.5.5 1.2-1.4.6v.5c-.1 0 .2.6.2.6v.4l-.4 2.8-1.3 2 .3 1.2-.4.6-.8.2-.6-.3-.6-.2-.8.7-1.3 2.6-1.3.8h.4v1.4h-.3c0 .1.2.7.2.7l-.2.6h-.3c0 .1.2.8.2.8h.5l-.2.3h.5v.5h.4l-.2.3.3-.2.2.5h-.3l.4.2v.4h-.1l.6-.4v.4-.5l.6.1-.2.3h.6v.4h.4l.7.6.2-.2h.1l.8.3h.6l.1.1.8.3.3-.3 1 .6-.4 2.8-1.7 3-.2 1.8.8.6 1.9 2.8 2.5-.2.7-.4.9.2.2 1 .5.5-.3 1.1.3.9v1.1c-.1 0-.9.3-.9.3l1 2.2-1.1 1.1h-1.4l-2-1.6v-.8l-1.6-.5-1.1.4h-.3c0 .1-2.1 1.9-2.1 1.9l-.5-.8h-.4c0 .1-1.4 1.6-1.4 1.6v1.9l-.9.6-.2.8.4 1.5v3.1l-2.5 1.9h-1.8l-.5-.8c0-.1.2-.6.2-.6l-.4-.4-.4.3-.6-.5h-.6v.4h-.6c0-.1.2.3.2.3l-2.8 1.7-1.7.5-1.5-.7-.4.3-.3.5-.8 1.1-2.2 1-1.2 2.7-1.4 1.2-.2 1.2-1.8-.2-2.1-1.1h-.3l-.6-.4 2.4-2.9-.2-.9.4-1.4v-.6c-.1 0-1.1-.5-1.1-.5V192l-2-.5v-2.2l-.6-.6h-.2l-1.5.5-2.1-1.1-.2.6h-.2v.2l-.9.4v.3l-.2-.2-.5.3-.4.7-.5-.5h-1.4l-.6.5-.2 1.2-1.4-2-1.6 1.1-3.2-.5-1-.6h-.1l-1.1.3v.9l-1.1 1-1 .2-1.4-.3-.2-.9-.7-.3h-.3l-.1 1.3-.6.3-2.6-.9-.2.3-.9-.3h-.4c0 .1-.6.3-.6.3l-.2.7-.6.5-1.3.2-4.9-.3-3-.6-.3.6.2.9h-.4c0 .1-3.7-1.6-3.7-1.6l-2-2.3h-.4c0 .1-.2-.2-.2-.2h-.4l-.2.1-.6-1.1-1-.7h-.8v-.7l-3.4-1.2-.4-2H301l-1.3-.3-.2-.6-.8-.4 1.3-.4 1.2-3.5.4-.6h1.5c0 .1.4-1.4.4-1.4l-1.6-.7h-.4l-.9-2.7 1.9.7.9-.4.1-.5-.4-.3h-.2l-.4-.9.8-1.8h.2l.6-1 1.6.2 2 .8-1.3-1.3v-1c-.1 0-.5-.2-.5-.2l-.6-2 1.2-.2v-1.1l.8-1.7-.5-.8-1.1.8h-.2l-.7.7-1.3.2-.8.6-1.8-.7-2.4-2.7h-.7c0-.1-1.6-2.2-1.6-2.2l-.4-.3-.7-.8 1-1.3v-.3l.5-1.8-.8-1.2.3-.2-.2-1.2h-.9l-1.1 1.4-1.2-.2v-2l.5-1-.9-.9-1.8.4.9-3.1v-3.4l.7-.5h.2l.5.2h2.1l.2.8h.7l.7-.3.9-1h.2l.5-.7 1.1-.2.3 1.4h.2l1.6-.8v-1c.1 0 1.2-.7 1.2-.7 0-.1 1.5-1.2 1.5-1.2l-.2-.6.3-.6 1 .4.5-.3.9-.3v.6c-.1 0 .2.3.2.3v1.2c.1 0 1 .3 1 .3l1.4-.6 1.1.5.4-.5 1.8-.6v-.6l1.2-.9v-.9c.1 0 .6.3.6.3v2.1h.5l.3.4.3-.2.2.4.6-.4.5-1.2 1.3-.7 1.1.9v.5l.9.1.7-.7 1.1.5v.4l.7.8h.9v.6l.4-.4.4.4h.9l.9.9.6-.5.8 1.1.6.2.5-.4.7.4.5-.3v.4c.1 0 1.3.6 1.3.6l-.3 1.6-1.5 1.2h-.4c0-.1-.3.8-.3.8l-.5.2v.2h.3v.3l-.5-.2v.4c.1 0-.1.2-.1.2v-.5l-.5.6-.5-.2-.5.7-.2-.3h-.4l-.4.4.2.2c0 .1.2.5.2.5l1.4.5.9-1h.1l.3-.7.8-.4.3.2 1.6-.6-.3-.6h.3l.6-.7 1.5-.2.3-.8.8.2.5-.2v.3l.5-.3.6.3.5-.6v-.6l1-.2.7.8.6.2.2-.3h1.4l.3-.7.4-.3v.8h1l.8-.3.7-1-1-1v-.6c.1 0 .6.2.6.2l-.4-.9.2-1.1-.5-1.4-.3-.3-.9.6-.5.9-.5-.4.3-1.9.9-1.1-.3-.5.5-1.1-.6-1h-1v-2.2l-.7-.7h-.7l-.1.1h-.6l.3-1-1.1-.8.2-.5-.4-.4.3-.2v-.6c.1 0-.4.5-.4.5l-.5-.3-.2-.9-.5-.4-.3.6-.4-.3-.4.2-.5-.4.7-1.2-.4-.2v-.8l-.4-.6h-1.1c0-.1 1-1.7 1-1.7v-.7c-.1 0 .6-.5.6-.5l-.4-.8h.4l.6-2.4.4-.4-1-1.2.3-1.2-1.4-.3-.5-1.2-.7-.4v-.5Z"/><path id="ES-CN" d="m7.2 476 .5.2.4.9-.7.9-.3 1-.7.3-.5 2-.7-.3-.9-1.1-2.1-.3-.3-.3v-1c.1 0 .6-.4.6-.4l1.2.4 1-.2 1.1-1v-.6l1.4-.7Zm56.7-8.5.4.4v.8c-.1 0-.1-.7-.1-.7l-.2.8v-.4l-.3.2.4 1-.2 1 1 1.3v.5c.1 0-.2.6-.2.6l.6.8-.6.2-.2.9.2.8-.7.3-.3 1-2.8 1-.5.8h-.6l-1.3-.5-.3.2-2.5-2.2-1-1.9.2-2.6.8-.2 1.5-1.2.5-2.1-.3-.4h.6c0-.1.4.2.4.2l.7-.3.8.7 1.7-.3 1.4.7.7-.3v-.7l.4-.4Zm-41.9-.8h.3l.4.4h1.1l.3.5 1.5.7.3.6v.9l-1.5 1.5-.7.3h-1.6l-1.1-.9v-.4l-.7-.6v-1.4l.6-1.2zm11.5-4.1h.8l1.2-.7 1.6.2 1.2-.6h.9l1.8-1.7.4-1 .6-.5 1.1-.2.3-.6 2.3.3 1.5-.6.6.2.3.6v.7c-.1 0-2.6 1.2-2.6 1.2l-.4.8-2.4 1.9v1.9l-1.5 2.6v1.4l-2.7 3.1h-1.1c0-.1-1.1.5-1.1.5H35l-.2-1.1-.6-.2v-.8l-.9-.9-1.3-2.2v-1.5l-1.4-1.7-.6-.2.2-.5 1.9-.8.5.4h1Zm64.8-9.8 1.3 1.1.3 3.1-.5 2.3-.5.6.3 2.2-1 1.8v.9l-.5.9-.6.6h-1l-.6.6-4.7 1.1-2.6 3.1-3.2-.8-.7.3.4-1.1.2.3h.9l1.7-.5 3.3-2.4.5-2.9.9-1.1.3-1.8 1.2-1.2 1.3-2.7v-.6l.6-1.5-.2-1 2.8-1.1Zm1.9-.2v.6h-.4l-.2-.4.6-.3Zm-92.6-2.3 1.2.6 1.1-.3h.7c0 .1.6 1.9.6 1.9l.6.8-1 1.7.5 1.3-.2 1.4-1.8 3-.6-.5-.3-1.7-1-1.4-1.2-3.3-.6-.8v-.7l.9-1.1 1.3-.7Zm100.4-9.6.9.5v.6l-.1.8-.8.7.4 1-.4.8v1l-.4.7-1.2.6-.2.4h-1.1l-1 .9-2.1.3-1.2 1.8-.3-.5h-1.6l-.2-.7 1.2-1.1v-1.6l.3-1.1 1.4-1.1h1.1l1.3-1.1.4.2.7-.5 1.2.4.5-.6.6-2 .6-.5v.3Zm-1-1.6.8.7-.7 1h-.9c0 .1.8-1.7.8-1.7m.1-3.2.4.3-.4.5h-.5l.1-.7h.4Z"/><path id="ES-CT" d="m457.5 72-1.3-.2.7-1.1v.9c.1 0 .5.4.5.4Zm25.4 9.6.3.6h.8c0 .1-.2.3-.2.3l1 1.1-.3.7v1.2h-.2l.5 1h.5v.7l-.3.2-.2 1.2-.6.4v.6c-.1 0-.7.2-.7.2l-.4.6h-.7l-1.3 1.9-1.5.7-.9 1.3-2.7.8-.6.4-.3.8-5.5 2.4-3.4 2.2-2.5 1-1.7 2.2-.6 1.5.3-1.3-.5 1h-.4v.3h.4c0-.1-.6.9-.6.9l-.7.6-2.1.7h-2l-1.4.8h-1.2l-1.6.5-.3.4v-.3c.1 0-4.9 1.1-4.9 1.1l-2.6 1.4h-2.2c0 .1-1.2.9-1.2.9h-.2l.2-.2-.8.3-.8 1.3-1-.6-1.7.3-1.5.7-2.8 2.8-1.6 2.4-.9.6-.2.7-.9.6.7 1.1h1.2l-.9-.6h.6l1.4 1.7 1.5.4-1.1 1.2-2 1.1-1.9 2.4-1.1.2-.6-.7.4.2v-.5l.9.6.3-.2-.4-.3 1.5-.2.7-1.3-1.2-.2-.7.4h-1.4v.5l-.3-.2-1.2 1.4-.6 1.3-1.7-.7v-.9c.1 0-.8-.7-.8-.7l-1.4-.2-1.3-.6-.3-.5.5-1.4h-.2v-.1l-.2-.2h-.6l-.3-.9-.6.2-.6-.3-.2-.5.3.3v-.4l1.2-.4v-.6c.1 0 1.1-1 1.1-1l-.9-1.9.3-.9v-.2l.9-1.5-.3-.2v-.2l-.5-1 .4-.2-.7-.6-.3.2v-.4l-.3.2.3-.4-.2-.8h-.4v-1.3l.3-.3.7.2v-.6c.1 0 1.1-.2 1.1-.2l.6-2h.9v-.4h.3l.2-1.2-.5-.8v-.4l-.4-.4.6-.7-1.2-1.2.8-1.7-.3-1 1.2-.2 1.1-1.6-.4-1.8-.6.3-1.2-.2.2-1-.7-.9V95l1.3-1.8.2.2v-.8l1.6-.2.3-1.1.7-.6h.7l.3-.9h.5v-.3l.6-.3-.3-.4v-.9h.3l-1-.5.6-.9.4.2.3-.8h.4c0-.1.1.2.1.2l.3-.5v-1.3l.3-.2.7-2.2-.2-1 .5-.4-.4-.3v-.5l1.5-4.1-.5-.5.7-.5-1.1-.4.5-.6-1.2-3.1.2-.3.3.2.6-.5-.4-.2v-.4l.3-.4.4.2-.2-.3.6-2-1.4-.3-.2-1.1-.5-.7h-.2v-.3h.3v-.5c.1 0-.3-1.3-.3-1.3l-.5-.2.6-.6-.5-.2.6-.7-.3-1 1.1-.7 1.5.8h.6c0-.1 1.2.3 1.2.3l1.6 1.1.8-.5.5.6 1.4.2.7-.2 1.1 1v.8c.1 0 .9.6.9.6l1.4-.6.5.4h2.3c0-.1-.1.4-.1.4l.8.4v.6l.6.4v.9c.1 0 .7.7.7.7l-.4.6.4.5-.7.9h.8c0-.1.4.8.4.8l-1.1.8.5.3.2 1.2 2.3.2.3-.7.4.2.4-.6h1.3l.3-1.1.7.4.5-.3.9.4h.9c0-.1.8.1.8.1l.9 1h1.2v.6l.4.2.2 1.2 1.2 1 1.6-.4.2-.5.5-.2.2-.8.7-.4 1 .2 1.3-.7.8.5h.5c0-.1.8.5.8.5l1.8.4v.5l1.1 1.1 1.3.2.3-.6h.5c0-.1 2.2.4 2.2.4v-.6l-.4-.9h.4V73l1-.5.9-.2.5.4 1.1-.8.3-.6h.4c0 .1.3-.3.3-.3l1 .3.7-.8.4.5 1.6-.2 1 1.5.8-.4h1.2l-.4.3.2.3-.4.7h.3l-.3.4.2.6.5.3.2.5.8-.5.5.6.4-.3.4.4.8.2-.8.5.3.6h-.5l.2.6-.2.4h-.6l.2.5-.8-.4-.2.6-.9-.4-.2-.6-.7.5-.5 1.3.2 2.1Z"/><path id="ES-EX" d="m257.1 137.6.7.6h.6c0 .1 0 0 0 0h.4l.6.3.9-.9.6.8.6-.6 1.7-.2.7-.6v-.9c-.1 0 .3-.6.3-.6l1.8-.9h.6l.5-.8h1.1c0-.1.1-.7.1-.7l.3-.3 2.6-1.6 1.6.9.3.7.6-.2-.3.6.8.4.4.3h-.4c0 .1.3.3.3.3l-.3.2v.4l-.4.2 2 .5v.6c0 .1.6.6.6.6l.2.2 1.3.4.6-1.2 1.9-1.2.6 1.1-.4.7.2.3.6.2.6-.4h1.1l.7.7.2.6h.6c0 .1.2 1 .2 1h.7c0 .1.3.3.3.3l.3.2h1.4l.6-.3 1-1.3 1.9-.3-.6 1.4v1.6l.8 1.4-.8.5v3.4l-.8 3.1 1.8-.4.9.9-.6 1v2l1.3.2 1.1-1.3h.9l.2 1.1-.3.2.8 1.2-.5 1.8v.3l-1 1.3.7.8.4.3 1.6 2h.7c0 .1 2.4 2.9 2.4 2.9l1.8.7.8-.5 1.3-.3.7-.7h.2l1.1-.9.5.8-.8 1.7v1.1l-1.3.2.6 2 .4.2v1c.1 0 1.5 1.3 1.5 1.3l-2-.8-1.6-.2-.6 1h-.1l-.8 1.8.4.8h.2l.4.4v.5h-.2l-.9.4-1.9-.7.9 2.8h.4l1.6.6-.4 1.6h-1.5c0-.1-.4.5-.4.5l-1.2 3.5-1.3.4-1.2.6-2-.3.4 1.1-.4.1v.4l-.3-.2v.3l-.3-.3v.5c-.1 0-.3-.2-.3-.2l-.7.9-.8.4-.4.5v.4l-1.3-.1-.5.9.2.4-.4-.2-.3.6v.2l-1.5 1v.6h-.9l-.6.4-.8 1.4v.5l.6.6-.4 1.1 1.1 1.9v1.7h-.1l-.3.6v.6c.1 0-.7.4-.7.4l-.2.5-1.2-.2-1.6 1.6-.6-.2-.2-1.2 1-.7-.2-.4h.3c0-.1.2.2.2.2v-.6l-1-.4-.7.5h-.6c0-.1-.4.2-.4.2h-1.2l-.6.5v.7l-1.1.8v.5l.4.6-.6.6-.4 1.5H275l-1.5.3-1.5 1.3-.5-.6h-.9l-.3-.3-1.2-.2-.5-.5h-.1l-.6-.6-.2-1-1-.3h-.8l.2.3-.6.5v.5c.1 0-.1.2-.1.2l-1.6-.6h-.3l-.5.2V202l-.4-.4-.6-.6-.5.2-1.6-.3-.6.2-.5-.2v-.4h-.9l.4-1.9h-1.1l-1.9-.8v-.4h-.6l-.4.4-.2-.2-.7.2-.4.6h-.9l-.4.3-1.2-1.7-.4-1.4h-.4c0-.1-2.3-3.3-2.3-3.3l-.2-.8-.8-.6h-.4c0 .1.8-1 .8-1h-.6l.4-1.9 1.3-2.3-.6-.4.3-2.5 1.1-.6 1.8-2h.8l.7-1.2.6-.3v-.4c.1 0-.3-.8-.3-.8l2.2-3.4-.2-.8-.6-1.1-1-.7-1.7.5-.7-.3-.2-.4.3-1.4-1.8-.7-.6-.6-.2-1.1.4-.8-1.7-1.7-.4-1.3.5-1v-1.3c.1 0-1.1-.8-1.1-.8l-.4.2-.4-.3-.2-1.2h-.9c0-.1-.8-1.4-.8-1.4l-.7-.3-.6-2-.3-.2h1.9l2.7.7 1.9-.8 2.3.4.5-.3 1.3.2 1.2-.4.9-3-.2-1.2.7-.3 1-1.2v-1.8l.4-.3v-1.3c.1 0 .6-.9.6-.9l-1.7-2.8-1.4-.3-.7-2 .4-1.2 1-.3.3-.6h1l1-.3Z"/><path id="ES-GA" d="m211 79.4.4.5h-.5c0-.1.1-.5.1-.5m-.2-1.3.5.7-.4.5.2-.4zm-.1-4.3-.5 1.2v-.8l.3-.5h.3Zm-2.1-2.7.3.4-.2.2v-.6Zm3.2-2.7v.3h.4v.6h-.3v.6h-.1l-.2-.3h.2l-.2-.2.2-.5-.5-.3.4-.2Zm21.4-36.1.5-.9.3.2.5-.3.2.3-.3.9.5.8-.6-.4v1h-.3l.4.4h-.8l.6.4.7-.4-.4-.8h.7c0-.1.2.3.2.3h.4c0-.1-.5-.6-.5-.6l.4-.2v-.3l2-.8.8-.8v-.5l.6.5-.9 1.2.4.2.2-.5.8-.2.2 1h.5c0 .1-.2 1.3-.2 1.3l.3.7V34c.1 0 .6-.3.6-.3l-.2-.6h.6v-.6l.7-.2.2.4h1l-.2.5 2.7 1.1.4 1.2.9 1-.3.3h.4c0-.1 1 .5 1 .5l-.2.5h-.3l.4.1-.2.2.5-.6 1.7.5 1.1-.2 1.6.2v.6c.1 0-.2.5-.2.5v1.5l-.8.5-.3.9h-1.6v1.4l.4.2.5-.3.2.4V45l.6.8h.9l-.2 1.1.2.7.9.9.2-.3.2.5h.7c0 .1.1.6.1.6l-.3.7.5.9h.4l1.2-.7v-.3l.6-.2.8.9-.2.6-.9 1h-.5l-.4.5-.6-.4-.6.8v.8l-.3-.2-.4.6.6.8h.3v-1.2l1.1 1.4h.8l.8 1v1c-.1 0 .3.4.3.4l-.4.3v.8c.1 0-.7.2-.7.2l.7 1.5-.6.7v.4l-1.5 1.4-.6-.4-.3.9h-.9l-.8.9.9 1.6-1 .5v1l.3.4-.7.9v.7c.1 0-.2.7-.2.7h.9l1.4.4.3-.7h.7l1.7.9.7-.2.3.8-.3.4.2.8-.5.6.5.6h.9c0 .1.3.6.3.6l.7.2v1.9c-.1 0-1.5 2-1.5 2v.2h.1v.5l-1.1-.6-.9.4-.3.7-1 .5-.2 1.3-.8.2-.4 1.1-.7.3.5.7h.8l.3.8-.6 1v.6h.1l-.6.7h-1.4l-.4-.7-.7-.4-1.3.2-.2 1.2.3.7-.5 1.2-2.6 1.1h-.9l-.2-.2-1.3 1.3-.6-1.6-1-.3-.8.9-1.9.3.2-1.1.4-.3h-1.7c0-.1-1-.8-1-.8l-.8.4-.5-.2-.7.5h-1c0 .1-1 1-1 1l-.3-.3V88c.1 0-.3-.1-.3-.1l-.4 1.5-1.3.2-.8 1.3-.9.4-1.6.2-.8-.3v-1.7h-.8l-.3-1.1 1.2-2.1.7-.7.9-.3v-1l-.6-1-1.6.3-.3-2.6-.6.6-.5-.2-.2.5-1.4.6-.3.6-.7-.2-.4.4h-.9c0 .1-.4-.2-.4-.2h-1.7l-.1.6-.4.2-2 .2-.6.6-.2.8-1.8 1.1-.2.9-1.5.7-1.1 1.4-.2-.4-.2-2.9.3-.8-.6-3.4h.5l.6-.5.4.5h.2c0-.1.1-.8.1-.8l-.7-.5h.6l.2-.9.8-.5.4-.8h.5-.3.3c0 .1 1.8-1.6 1.8-1.6h1.1l-.3-.7.4-1-.5-.3v.8l-.6.3v.7l-1.2.5v-.4h-.4v.5c-.1 0-.8.4-.8.4l-.4-.2-.2.5-.5-.4-.4.2-.6-.3-.2.4h-.2l.4-1.9.6.9h.3v-1l-.4-.8h.8l.4.3.7-.4.7-1.4 1.7-1.3-.7.2-.2-.6-1.9 1.6-.9-.4-.5.5-1-.9.2-.6-.3-.7-.6-.2-.3.3-.4-.4v-.5h1.2v-.4l.4-.2.4.9-.4.3v.4l.7-.4.5.4-.3-1 .5-.4-.3-.4.2-.7-.4.3-.2-1 .5-.3h-.3v-.5h.8c0-.1.7-.8.7-.8l-.3-.4.5-1-.3-.2-.8.5-.4-.3.2-.6-.6-.7v.8l-.2-.1-.2.6.5.4-.5.2v.6l-.7-.1.3-.7-.6-.2-.8 1 .4.6h-.7l-.2.5h-.6v1.1l-1.2.5.2-1.2-.5-.6-.4.3-.4-.3 1.1-1.8.4-2.3h.3l.5-.9.7-.2.7-1.2h.3c0-.1.5.5.5.5l-.3-.6v-.7l.9-.4h-.3l-.2.4-.4-.6v1l-.5.2v-.3c-.1 0-.8.8-.8.8l-.4-.4v.5h-.8V61l-.6.5h-.5l.3.6-.9.9-.2-.5h-.4l-.4-1.1-.4-.2 1-.8v-.6h-.6l-.4-.9.5-1.1h-.7c0-.1-.8-1.5-.8-1.5l.2 1.3h-.6l-.3-.8h-.3v.5l-.7.3v1.1l-.4-.3v-.6l-.4-.4v-.6l.8-1v-.9l.3.1v-.3c.1 0-.5-.2-.5-.2l-.5-1.4.5.3.4-.2v-1.3l.8.1v-.8l.9.8.5-1 .9-.3-.9.2v-.8l-.4.9-.5-.2-.2-1 .3.2.4-.4v-.8c.1 0 .5.3.5.3l.2-.4.3.2v-.2c.1 0 1.2.5 1.2.5l.9-.4.7-1.2.3.5.4-.4h.8v.4l.4-.2.3-.6h.4-.4l-.6.7v-.4c.1 0-.2-.9-.2-.9h-.5l-.3-.4.8-.6.6.4v-.4h.5v-.9l.7.3v-.3h.7V44c.1 0 1.4 1.3 1.4 1.3l1.8.4 2.2-1 1.2.4h.5c0-.1.5-.5.5-.5l.3-1 .4.2.5-.2.5-.7.6.4.2-.6.4.7-.4.2.4.3v.7-.3l.8-.2.3-1h-.4l.1-.6 1-.3.3.6h.7l.4.6v.4l.9.7v-.4l.2.1-.4-.5.2-.3-.3-.9.3-.5h.7v-.3l-.5-.2-.5.3-.3-.3-.7.3-.5-.5-.8-.3h.3l-.2-.3.9-.3v.3c.1 0 .4-.3.4-.3l.6.3h.6c0-.1.5-.5.5-.5v-.3l.2.2.2-.6-1.6.8V40h-.4v-.5l-.4.8-.7.2-.5-.3-.5.4-.2-.2.7-1-.2-.7.7-.5-.7-.8.3-.3.4.4h.8l1.6-1.4v-.6l.9.1v.6l.3-1.2.7-.2.4-.8v.9c.1 0 .5-.2.5-.2l.4.3-.5-.5h.4v-.3h-.5l.3-1.4.7-.3.7.3 1.1-.7v-.4h.5Z"/><path id="ES-RI" d="m370.3 86.8-2.4 1.4h-.4l-.6-.6h-.1c0-.1-2.2-.7-2.2-.7l-.2-1 .3-.3-1.2-1.9.7-.4v-.6l-2.4-.1-.7.4-.3-1.3-.9-.4-2.7.2-.4.6-.6.3-.6-.2v1.4l-.8.5-.7 1.7-1-.3-1.1.3-.7-.5-.9.2-.2-.7 1.1-1.6v-.6l-.6-.6-.4.2-.5-.2-.4.5v.2l-.3 1.9-1 .2-.7.6-.7-.7v-.2l-.5-1.5H344l-2.2-3.3.6-.5.3-1-.4-2.1.3-.4h-.1l-.2-.8 1-.3-.5-.8h-.5v-.9h.5v.6l.6.8v-1.7c-.1 0 .2-.7.2-.7l-1.1-1.3.4-.5v-.8l-.3-.3-.8.2-.2-.3.7-.4.6-1h.3l-.5-1.7 1.5.3.3-.4.5.3h.8c0-.1.8.5.8.5l.3-.2.3.2.6-.5.3.3v.6h.5v.6l-.5.3v.3l.4.4v-.4l.4.1.5-.5.3-1.3h.5l1.3.8-.2 1.7-.3.7.6-.3v.5l.5.2.2.6.9-.6.2.9.6-.7.9.3v-.4c-.1 0 .5-.7.5-.7v.9c-.1 0 .7.1.7.1l.6-.3.6.2.5.5 1.1.3.2.4h.3v-.4h.2l.7.2V71h.2l.2.3v.3c.1 0 .9.1.9.1v.3l.6.2v.2h.6l.3.3.4-.3h1l-.1.6.8.9-.2.7h.4l1.1-.7.5.2.6.3v.5h.6l.2.4.3-.2v.8l1.1.4v1.1h.4v-.3l.8.3v.6c.1 0 2.3.5 2.3.5l.3.6h.5l-.5.6.4.6-.5.3-.4.2-.9-.5-.6.4-.9-.4-1.5 2.1-.3.8.2.9 1 .8h.2c0-.1-.2 1.1-.2 1.1Zm-25.8-19.4v-.3h.2v.1h-.1c0 .1-.2.2-.2.2Zm1.2 0h.1c0-.1.3.2.3.2z"/><path id="ES-MD" d="m315.7 125.5.4.7h-1.4v-.4l.6-.4h.3Zm16.6-14.6v.5l.6.4.5 1.2 1.4.3-.3 1.2 1 1.2-.4.4-.6 2.4h-.4l.4.8-.7.5v.7c.1 0-.8 1.6-.8 1.6h1.1c0 .1.4.7.4.7v.9l.4.2-.7 1.2.5.3h.4l.4.3.3-.6.5.4.2.9.5.3.5-.5v.3h-.1v.3l-.3.2.4.4-.2.5 1.1.8-.3 1h1.4l.7.7v2.1h1l.6 1-.5 1.1.3.5-.9 1.1-.3 1.9.5.4.5-.9.9-.6.3.3.5 1.4-.2 1.1.4.9-.5-.2v.6c-.1 0 .8 1 .8 1l-.7 1-.8.3h-.9l-.1-.9-.4.3-.3.7H339l-.2.4-.6-.2-.7-.8-1 .2v.6l-.4.6-.6-.3-.5.3v-.3l-.5.2-.8-.2-.3.8-1.5.2-.6.7h-.3l.3.7-1.6.6-.3-.2-.8.4-.3.6h-.1l-.9 1-1.4-.5-.2-.4c0-.1-.2-.3-.2-.3l.4-.3h.4l.2.3.5-.7.5.2.6-.6v.5l.2-.2v-.4c-.1 0 .4.2.4.2v-.2h-.2l-.1-.3.5-.2.3-.9h.4c0 .1 1.5-1.1 1.5-1.1l.3-1.6-1.2-.6v-.4c-.1 0-.6.3-.6.3l-.7-.4-.5.4-.6-.2-.8-1.1-.6.5-.9-.9h-.9l-.4-.4-.4.4v-.7l-1 .1-.8-.8v-.4l-1.1-.5-.7.7h-1v-.6l-1.1-.9-1.3.7-.5 1.2-.6.4-.2-.4-.3.2-.3-.4h-.4l-.1-2.1-.5-.3v.9c-.1 0-1.3.9-1.3.9v.6l-1.8.6-.4.5-1.1-.5.4-.2-.2-1 .9-1-.4-1.4h.4l.6.8h1.1c0-.1-.1-.8-.1-.8l.5-.3v-1.1l.4-.6h2.3c0-.1-.4-.9-.4-.9l.6-.9-.3-2.1v-.4c.1 0 .9-.4.9-.4l.2-1.1-.3-.7h.4l.2.6h.4c0 .1.4 0 .4 0l1.5-.6-.3-1.3.3-.6 1.4-1.8.6-1.3 1 .3 1.1-.2.9-4.2h.4l.7-1.2 2.5-1 .9-1.6 1.4-.9 1-1.6 1-.7 1.1-.2Z"/><path id="ES-MC" d="m395.7 210.6-.2 1 .5 1.7-.6-1.6zm-.2-.9v.5l.4.4-.4-.3-.2-.5h.2Zm-36.1-7.1.2-1.2 1.4-1.2 1.2-2.7 2.2-1 .8-1.1.3-.5.4-.3 1.5.7 1.7-.5 2.8-1.7-.2-.4h.6v-.3h.6l.6.4.4-.3.4.4-.2.4c0 .1.5.9.5.9h1.8l2.5-1.9v-3.1l-.4-1.5.2-.8.8-.6v-1.9l1.5-1.4h.4c0-.1.5.6.5.6l2.1-1.7h.3c0-.1 1.1-.5 1.1-.5l1.5.5v.8l2.1 1.6.6 2.4-.5 1.5.3.8-1.8 1.7.3.2-.2 2.4 2.4.3.5 1.3-.5 2.4-1.1 1.8v1.3c.1 0 2.8 5 2.8 5l1.6 1.7 1.1.5h.5l.3 1.6-.8-.8-.4 1.2-.9.8-.4.8 1.4 1.8 1.4.8.5-.7.3.6h.3l-.7.9-1.4.3-.8.6-.6-.3-.7.2-1 .7-1-.2v-.2h.4l-.7-.2-.2-.3.2-.3h-.4l.1.5h-.5c0-.1-.3.2-.3.2l-1.1-.3-.8.4-.4.5.4.5-1.3-.2v-.5c-.1 0-.9-.5-.9-.5h-.9l-.3.5h-1.6c0-.1-1.7 1.4-1.7 1.4l-1.3.6-.6 1.8-.7-.2-1 .8h-.8c0 .1-.7.9-.7.9l-2.5-1.9-1.7-.3v.5l-.8-.6-3.4-5.5v-.2h-.1l-.2-1.4.4-.8-.3-1.4.3-1.9.5-.7-.2-.2h-.1l-.4-.2-.4.3-.9-.4-.5.3-.9-.8-1.1.3-1.8-1.4-1-1.9-.9-.7Z"/><path id="ES-NC" d="M374.9 45.6h.7c0 .1-.1.9-.1.9l.5 1h.7l.4-.8v-.3c-.1 0 1-.2 1-.2l1.2.7h1.1l.7.6v1.9l-.4.4-.3 1.5-1.3 1.2.7 1.3 2 .5.2-2 .6-.6 1.1-.2-.9 1.5 1 .8 1.1-.3 1.6.9v.5l.7-.5.8.7 1.6.2.3.5 1.2.7.9-.3.2.3h2c0 .1 1.2-.4 1.2-.4l.5.7v.3c-.1 0 .1.5.1.5h-1.3l-.8.5v1l-.9.7v1.5l.2.4-.4.7h-.8v.6h-.5l-1 1.2h-1.3l-.3.4v1.3h-2.5V67h-.6l.5.4-1 .7v.9h-.1l-.5.2-.8-.4-.5 1 .3 1.5-1.5 1.6-.4 1.4.5.2v.5c.1 0-1.5 1.9-1.5 1.9l.2.5-.6 1.6.6 1.2-.2 1.7.7.6.3 1h.9v.9c.1 0-.6.8-.6.8l-1 1.8v.4l-.6.7h-2.1c0-.1-.3.1-.3.1h-.4c0 .1-.5 0-.5 0l-2.2-1.5-1.4.3-1.2-1.2h-1.6l-.2-.4h-.2c0 .1-1-.7-1-.7l-.2-.8.3-.8L371 81l.9.4.6-.4.9.5.4-.2.5-.3-.4-.6.5-.6h-.5l-.3-.6-2.2-.5v-.6c-.1 0-.8-.3-.8-.3v.3h-.5V77l-1-.4v-.8l-.4.2-.2-.4h-.5l-.1-.5-.6-.3-.5-.2-1.1.8h-.4l.2-.8-.8-.9v-.6h-.8l-.4.3-.3-.3h-.7v-.2l-.6-.2v-.3l-.7-.1V72h-.1v-.3h-.4v.2l-.7-.3h-.2v.4h-.3l-.2-.3-1.1-.3-.5-.5v-.6l.7-.2v-2.5l-.7-.2-.7 1.2-.2-.6h-.6l-.2-.9h.4l.7-.9.8-.5.7.2.2.4-.2.3 2-.5v-.8l-.4.2-.3-1.6.2-.5 1.2-.3-.4-1.2 1.1-1.7-.2-1.4-.2-.3h.3v-.9l.6-.8.7.4h1.2c0-.1.5-.4.5-.4l.3-.8 1.2-.2.2-.5-.3-1 .5-.5V53c.1 0 1.6-.8 1.6-.8l1-1.2-.4-.5v-2.2c.1 0 .9.5.9.5v-.7c.1 0 .5.6.5.6l.3-.4h.2l1.1-.7v-.9l.2-.3h.3l.7-.4.8-.4z"/><path id="ES-IB" d="m444.8 181.9.4.7h.4l.1.7.9.7h.3c0 .1.9-.4.9-.4l.4.7-.3.5h-1.1l-.8-.8-.9-.2-1.4 1.3v-2.3c-.1 0 .3-.5.3-.5l.2.2.5-.3v-1c.1 0 .3.7.3.7Zm-.4-1.5.2.6-.3-.3v-.3Zm2.6-9.2.5.7h1.1l-.1.3h.3c0 .1-.4.2-.4.2v.4l.7 1-.8.4v.7l-1.1.2v.8h-.3l.2.2h-.4l-.8.9h-.4v.3l-.4-.4v.4h-.4l-.4.8v1.3l-.4-.3-.3.3-.6-1.1-.5.4v-.3l-.5.1v-.4h-.6c0-.1-.5.6-.5.6l-.5-.4-.2-.9.5-1.1-.5-.6.3-.5.4.2 1.4-.2-.5-.6.3-.5v-.6c-.1 0 1-.6 1-.6l.4-.6.4.3.3-.5h.6l.2-.4.4.3 1.1-.8.2.3.2-.4h.6Zm32-1.4.5.2-.4.3v.6h-.8v-1l.2.5v-.3l.4.2v-.4Zm-14-12.3-.6.4.8-.8-.2.3Zm19.9-10.9-.2.5-1.1.6h-.5c0-.1-.5.7-.5.7l-.4-.4-.3.3v.7l.6.5 2.2-.9-.3.3.2.6-.4.6-1.2.2v.9l.4.8.6.6 1.9.8 1.7-.9.4-.9 1.9 1.3h.6l-.1.7.6.2-.5.3v1.4h-.3v.6h-.8l-.3.4-.2.9.4.3h-.6c0 .1-.2.8-.2.8l-.8.4h.2c0 .1-1.2 1.5-1.2 1.5l-.3 2.1-.3-.3v.3c.1 0-.6 1.4-.6 1.4h-.3l.2.2-1 .3-.4.7h-.6l-1.7 1.7h-.5l-.8-1.2-.6-.2v-.6l-.6-.7h-.6l-.4.3-.7-.4h-1.1l-.1.3-.5-.3h-.4c0 .1-1-1.2-1-1.2v-1c.1 0-.4-1-.4-1l.6-1-1.8-1.5h-.8l.2-.1h-.2l-.2.5h.4c0-.1-.2.1-.2.1l-.6-.2-.4.6-1.2.2.2.4-.3.2-.2 1.4-.7-.4-.3.2v-.7l-.4-.4.5-.3-.6-.6-.7.4v-.4h-.3l-.4.5v-.4h-.6l.6-.4h-.4l-.6-.5.2-1.2 2.4-1.4 1.5-1.5h.6l.7-.4.8-1.2 1-.5v-.6c.1 0 .4-.2.4-.2l.3.2v-.6c.1 0 1.9-.8 1.9-.8v-.5l1.6-.2.2-.4 1.8-.8.3-.5.7.3 1.4-.8v.2h.4v.4l.7-.5h.6c0 .1 1-.7 1-.7h.3l-.1.2.9-.3Zm21.6 3.2-3-2-1.7-.7-1.4.5h-1.7l.2-2.3h-.8l-.2-.5.7-.9 1-.2h.7l.5.4.3-.5 1 .3 1.2-.4.5.4.8-.5-.2-.6h.4l-.1.9.2.4.7-.5v1.1c-.1 0 .2-.2.2-.2v-.9l.7.2-.3.8.5.4.3-.3.2 1.1v-.6l.3.5h1.1-.3c0 .1.3.4.3.4l-.3.5h.3v.5h.3c0-.1.1 1 .1 1l.5.4v.5l.4.1-.4.2-.3-.6h-.9c0-.1.9.3.9.3l.2.5v1l-.8.7-1.5-.5-.9-.7Z"/><path id="ES-PV" d="m349.4 41.4.7-.3.3.8 1.1.7 1-.3.6.8h.4l.4.3.5-.3.3.5h.9l1.1 1.2 2.4 1.1h1.6c0 .1 1.2-.4 1.2-.4l.5.2v-.2l.4.6.7.2 2.9-1.1.9.2v-.3l.7-.4h1l1.5-1.3 1.3-.5.2 1-.6.3 1.1.2.5.4v1h.1l-.7.4h-.3l-.2.3v1l-1.1.6h-.2l-.3.4-.3-.6v.7c-.1 0-.9-.5-.9-.5v2.2c-.1 0 .3.5.3.5l-1 1.2-1.5.8v.5h-.1v.3l-.5.5.3 1-.2.5-1.2.2-.3.8-.5.2h-1.2c0 .1-.7-.3-.7-.3l-.6.8v.9h-.3l.2.3.2 1.4-1.1 1.7.4 1.2-1.2.3-.2.5.3 1.6.4-.2v.3c.1 0 0 .5 0 .5l-2 .5.2-.3-.3-.4-.7-.2-.8.5-.7 1h-.4c0-.1.2.8.2.8h.6l.2.6.7-1.2.6.2v2.5l-.6.2v.6l-.6-.2-.6.3h-.8c0-.1.1-1 .1-1l-.6.7v.4c.1 0-.7-.3-.7-.3l-.6.7-.2-.9-.9.6-.2-.6-.5-.2v-.5l-.6.3.3-.7.2-1.7-1.3-.8h-.5l-.3 1.3-.5.5h-.3v.3l-.4-.4v-.3l.5-.3v-.6h-.5v-.6l-.4-.3-.7-.3-.2-.6-.1-.8-.6-.4h-1.1c0 .1-.8-.9-.8-.9 0-.1-.6 0-.6 0v-.8c-.1 0-2.4.2-2.4.2l.5-1-.8-.5 1.1-2.1-.2-.6-.9 1.1-.8-.4-.7.9.3.3h-.2l-1.6-1.7 1.4-2.1 1.8.5v.5l1.2.6 1.6-.3.9-.9-1.4-1v-.3c.1 0-.4-.7-.4-.7h-1.9c0-.1-.7-.6-.7-.6l.8-.2V53l-.4-.2.5-.7-.2-.4-.2.2-.6-.4.9-1.5-.5-.3-1.2.2-.7-.8-3.7 2-.4-2.3v-.2h-.1l-.2-.6 1.2-.3.3-.7 1-.2.2-.7.2.2.6-.2.4.3 1.2-.6.3.8.4-.5h.8v-1.7h.6l.3.3.2-.6h.3l1.1.8.3-.2-.2.2.5.4v-.7c.1 0-.4-.8-.4-.8l.7-.3.8-.9h.5v-.7l3.1.2.5-.4Zm-11.3 7.7-.5-1.7.9-.4.4.2-.4.9v.9h-.4Zm10.1 12.5v.2h.1c0 .1 2.1-.1 2.1-.1l2 .9.9-.2.3.6.7-.4-.3 1.2-.3.4h-.2c0-.1-.2.5-.2.5l.7.9 1.2-.5v1.2c.1 0-.6.2-.6.2v-.3h-2l-.5-.8h-1l-.3.3h-1.1c0-.1-.4-1.1-.4-1.1l-.9-.3-1-.9.7-1.3v-.4Z"/><path id="ES-VC" d="M379.5 141.2h1.1c0 .1.3.3.3.3l.4-.2.5.2.4-.4.4-.2v-1.5l.4-.4v.7h.1l.4.9.7.4v.8l2.2.1 1.6 1.3v.6c.1 0-.1.4-.1.4l-1.8.8-1.9.5-.6-.2-2.2-.4-1-2.3.2-.2-1-.7v-.6Zm7 5.1.4.3.2-.3h.5c0 .1.5-.2.5-.2h1.9l1.3.6.3-.2.4.7-.2.6.3.8-.2.5 1 .7 1.7-1-.9-1.3v-1.6l1.3-.5.6-1.5h1.6l1.1-.8h.4c0 .1-.3-.9-.3-.9l.4-.7.7-.3.8-3.4 1.1.7 1.5-.5 1-.6-.4-.9.2-.3h.5l.6-1 1.3-.8v-.7c-.1 0-1.5-1.6-1.5-1.6l.3-.4 1.4-.6v-.7l-.6-.5.2-2.8-.7.2-1-.3-.2-1.6 1.1-.4.5.6 1.6-.9v-1.5c.1 0 .9-1.3.9-1.3h1.2v.5l.8.7 1 .5h1.7v.2l.3.8h.3l1.5-1 .9.2.5-.4.6.3.6-.2.3.9h.6l.2.2.2.1-.5 1.4.3.5 1.3.6 1.4.2.9.7v.9c-.1 0 1.6.7 1.6.7l-.8 1.9v-.2l-1.3 2-.2 1.3-1.9 2.4-.9.7-.5 1.3-1.6 1-1.1 2.7-2.2 1.4-1.2 3.4-1.3 1.6h-.4l-2.2 3.7-.7 2.3-1.2 1.3-1.3 2.8v1.8l-.3-.2.3.5-.4.2.7 3 2 4.2-.5.4v.9l1.8 4.3 3.1 3.4 3.3.7h-.4c0 .1.2.4.2.4v-.2c.1 0 .1.3.1.3l1.7.9-.3.3.2.6.4.4h.3c0-.1.2.7.2.7l-1.2.5-.7 1.1-.5-.2-.7.4-.6.8.2.4-.8-.3-.4.5h-.7c0-.1-.6.2-.6.2l-.8 1.1.3.5-1.1 1.1-1.2-.3-.5.6-2.6.8-2 1.3-.6 1.1v1.5l-1-.3-1 1 .2-.5-.5.2-.3 1.5.2 2.2-.3.4h-1.6l-.5.5-.6 2v2.8l-.6.7-.7.2-.5 1.6-.7.4-.3 1.4h-.5l-1.1-.5-1.6-1.7-2.6-5v-1.3c-.1 0 1-1.8 1-1.8l.5-2.4-.5-1.3-2.4-.3.2-2.4-.3-.2 1.8-1.7-.3-.8.5-1.5-.6-2.4h1.4l1.1-1.2-1-2.2.7-.3V179c.1 0-.2-.9-.2-.9l.3-1.1-.5-.5-.2-1-.9-.2-.7.4-2.5.2-1.9-2.8-.8-.6.2-1.8 1.7-3 .4-2.8-1-.6-.3.3-.8-.3h-.1l-.5-.1h-.1l-.8-.3h-.1l-.2.2-.7-.6h-.4v-.3h-.6l.2-.3h-.6v.4-.3c0-.1-.6.3-.6.3v-.4h-.4c0-.1.3-.2.3-.2l-.2-.5-.3.2.2-.3h-.5v-.5h-.3l.2-.2h-.5l-.2-.7h.3c0-.1.2-.7.2-.7l-.2-.5h.3V158h-.4l1.3-.9 1.3-2.6.8-.7.6.2.6.3.8-.2.4-.6-.3-1.2 1.3-2 .4-2.8v-.4l-.3-.6v-.5c.1 0 1.6-.7 1.6-.7Z"/></g></svg>