<?xml version="1.0" encoding="UTF-8"?>
<svg id="Layer_1" xmlns="http://www.w3.org/2000/svg" xmlns:amcharts="http://amcharts.com/ammap" version="1.1" viewBox="0 0 512 512">
  <!-- Generator: Adobe Illustrator 29.1.0, SVG Export Plug-In . SVG Version: 2.1.0 Build 142)  -->
  <g id="_x3C_defs">
    <amcharts:ammap bottomLatitude="55.338154" leftLongitude="11.105169" projection="mercator" rightLongitude="24.170696" topLatitude="69.061149"/>
  </g>
  <g>
    <path id="SE-M" d="M176.1,506.6l22.6-.2,6.2-19.8-.2-12.8-17.4,1.6-9.9-1.5-7.7,5.2,10.1,18.3-3.7,9.2Z"/>
    <path id="SE-O" d="M158.4,437.5l-.9.3.9.5v-.8ZM156.3,436l-.4-.9-.3,1.1.7-.2ZM156,430.2l-1.3.6.5.7.8-1.2ZM157.7,424.7l-4,1,1.6,2.9,2.4-3.9ZM158.6,418.8l-6.4,3.7.9,1.9,5.8-1.7-.3-3.8ZM145.6,397.2l-.4,1.5h1.3s-.9-1.5-.9-1.5ZM166.7,387.7l-7.7-1.3-3.3,11.6-8.4-2,1.9,19.6,11.1.4-1.2,1,1.4,2.7-2.2,10-1.7,2,4.3,8.1,20.2,13.3,16.5-22.6,10.2-26.6-6.7-9.8-5.9-1.1-4.8,14.5-21.6,7.6,6.5-22.5-8.5-4.8Z"/>
    <path id="SE-K" d="M209.9,488.2v-.4c.1,0-.2-.1-.2-.1l.2.5ZM225.6,487.3v.6s.4-.6.4-.6h-.4ZM223.8,484.6l.4,1.4.5-1.3h-.9ZM212.1,484.5h-.4c0,0,.3.4.3.4v-.4ZM220.4,485.2l.2-.8-.8.4.6.3ZM221.9,485l-.5-.7-.3.6h.8ZM223,485.1v-.9s-.6.7-.6.7l.6.2ZM225.2,484.2h-.7s.7.8.7.8v-.8ZM219.3,483.6l-.2-.2v.4l.2-.2ZM222.5,473.1l-3.9.6h-13.8c0,.1.2,12.9.2,12.9l3.6.7-1.4-2.6.7-1.5,10.7.8.6-1.2,1.3.8,1.8-1.7,4,1.5-.6,1.6,1.1.6,3.6-7.5-7.9-5Z"/>
    <path id="SE-C" d="M272.7,354.2l-.5.3h1.1c0,.1-.6-.3-.6-.3ZM272.1,354.9v-.6c0,0-1.3-.5-1.3-.5l1.3,1.1ZM273.5,352.2l-.4-.4-.2.4h.6ZM270.1,346l-.6,2.9,2.8,2.1-2.1-5ZM269.7,344.1l-.2-.6-.6.3.8.3ZM257.3,344.4l-4.9-4.1-2.5,10.7-.5,13.9-6.8,3.3,3,8.8,8,4.8,18.6-24.5-14.8-13Z"/>
    <path id="SE-AB" d="M260.6,402.2l-.2-.3.2,1.2v-.9ZM258.1,399.5l-.4-.5.4.9v-.4ZM264.6,399.1l.5-1.1-.8,1h.3ZM260.3,399.2v-1.5s-1,3.3-1,3.3l1-1.8ZM265.4,397.5l1-1.1h-.7c0,0-.3,1.1-.3,1.1ZM268.7,395.6l-2.7,1.8,2.1-.5.6-1.3ZM263.3,396.4v-1.1s-.6,1.4-.6,1.4l.6-.3ZM266.4,393.7h-1.9c0,0-.9,2.1-.9,2.1l2.8-2.1ZM265.8,392.8l-.3-.2-.3.4.6-.2ZM271.9,392.5l-.5.2v.8c-.1,0,.5-1,.5-1ZM257.5,396.9l-.4-4.8-.6,3.8,1,1ZM272.9,391.9l.3-.8-.4.3v.5ZM275.2,391.5l.4-.7-.6.5.2.2ZM270.4,392.6l.4-1.9-2.3,2.7,1.9-.8ZM272.6,390.5l.2-.2-.4.2h.2ZM273.9,388.3h-.3c0,0-.2.5-.2.5l.5-.5ZM275.2,388l-.8-.4-.5,1,1.3-.7ZM269.9,387.6v-.2s-.4,0-.4,0l.4.3ZM273.1,386.8l-.5.3h.4c0,0,0-.3,0-.3ZM275.8,386l.5-1-1.5.9h.9ZM278.4,385.5l-.2-.6h-.3c0,.1.5.6.5.6ZM271.6,385l-3-.3,4.5,1.3-1.5-1ZM277.8,384.4h.1c0,0-.7,0-.7,0h.5ZM278.1,382.8h-.6c0,0-.2,1.1-.2,1.1l.8-1.1ZM274.5,382.3l-.3,2.4,1.2-1.1-.8-1.4ZM277.3,381.7v-.3s-.3.1-.3.1l.3.2ZM278.7,382.1l-.4-.9-.4.2.8.7ZM269.6,381l-.7-.3,1.1.9-.4-.6ZM279.9,380.8h0c0,0,0,0,0,0h.1ZM278.8,380.6l-.2.9.5-.7-.4-.2ZM268.4,380.7h.3c0-.1-.9-.4-.9-.4l.6.4ZM283.3,380.3v-.4s-.2,0-.2,0l.2.4ZM278,380.8v-1s-.8.7-.8.7l.8.2ZM288.2,380v-.2c0,0-.2,0-.2,0l.2.2ZM275.1,379.5l-1.6.6h1.2s.4-.6.4-.6ZM276.6,378.8l-.2-.2-1.8.4,2-.2ZM282.5,377.9l-.2.2v.2s.2-.4.2-.4ZM274.3,376.9l-2.9,1.7.8,2,2.1-3.7ZM280.4,375.4l-.5.2h.9c0-.1-.4-.2-.4-.2ZM282,375.3l.6-.3v-.2c-.1,0-.6.5-.6.5ZM283.8,374.4h-.2c0,.1,0,.4,0,.4l.2-.4ZM279.1,374l-.4-1-1.6,1.9,2-.9ZM280.4,373.2l-.3-.3-.2.4h.5ZM275.9,375.6l2.4-2.7-2.8,2.7h.5ZM282.2,373.1l-.2-.3h-.4c0,0,.5.3.5.3ZM277.8,372.5h-.9c0,.1.7.4.7.4v-.4ZM282.7,372.8v-.3c.1,0-.2,0-.2,0l.2.4ZM282.3,372.3h0c0,0,0,0,0,0h0ZM286.3,371.3v-.2c0,0-.1.2-.1.2h.1ZM282.1,370l-.7-.3v.3c.1,0,.7,0,.7,0ZM282.7,369.3l.2-.7-.7.3.5.3ZM281.1,368.9l.2-.5h-.4c0,.1.3.5.3.5ZM279.4,367.7l-.6-1.7-1.2,2.3,1.8-.7ZM281.7,366.6v-.7c.1,0-.6,1.1-.6,1.1l.6-.4ZM275.2,358.1l-3.1-.8-18.6,24.5-2.6,6.5,5,7.2,1.2-6.7,3.9,10,2-6,6.9-3.2-2.2-5.9,5.8.2-10.6-3.1,17.9-11.3-5.7-.6,3.2-2.8-.6-2.6,2.5,3.2.6-2-5.6-6.8ZM267,382.5l-1,.9-1.4-1.3,2.4.4ZM275.9,355.5l-1.2-1.2.2,1.9,1-.7Z"/>
    <path id="SE-I" d="M275.9,431.7l-11,9.1.2,19.4,13.2-14.6-2.7-7.3,5.4-6.2-5-.4ZM283.3,426.9l-3.1,2.7,5.1-1.8-1.9-.8ZM284.4,415.5l.7-.6-2.4-.9,1.7,1.4Z"/>
    <path id="SE-AC" d="M286.5,239.4v-.5s-.1.6-.1.6h.1ZM288.2,239l.3.2-.7-.9.5.7ZM294.6,237.6v.6c-.1,0,0,0,0,0v-.5ZM294.3,235.7v-1c0,0,0,1.3,0,1.3v-.3ZM309.4,233.3v-.6s-.5.8-.5.8l.5-.2ZM300.7,231.1l.3.5v-.2c0,0-.3-.3-.3-.3ZM310.5,231.8l.4-1.2-.7.9.3.3ZM306.1,228.4l-.3-.2.3.6v-.4ZM311.6,229.8l.7-3-1.4,3.1h.8ZM311.8,226.9l-.9-.9-.4,1.1,1.4-.2ZM308.1,225.8v-.3c.1,0-.1.5-.1.5v-.2ZM313.3,225.8v-.4c0,0-.2.5-.2.5h.2ZM321.7,195.2l-.2-.3v.3s.2,0,.2,0ZM318.1,184.2l-.2-.9-.6-.2.7,1.1ZM283.8,170.7l-63.3-46.7-15.7,9.6-3.5,41.1,40.5,42.9,2.6,2.2,25.6-.9,14.9,19.9,22.8-12.5,15.5-25.1-9.4-15.3,9.1-9.3-39.1-5.8ZM315.7,191.6l-.5-1,1.4,1.4-.9-.4ZM315.2,210.8v.3c.1,0-.2-.3-.2-.3h.2ZM305.9,226.8l.2-.7v.5s-.2.2-.2.2Z"/>
    <path id="SE-Y" d="M257.9,285.4l.6-1.1h-1c0,0,.4,1.1.4,1.1ZM261,273.7h-.1c0,0,0,.1,0,.1h0ZM264.4,268.6l-.5-.7-1.1.4,1.5.3ZM264.3,265.1l-1.5,1.6,2.6-1.2-1.1-.3ZM266.3,264.8l.5-1-.7.6v.4ZM262.9,264.7l.2-.7-1-.3.7,1ZM260.9,259.9l.2-.5-.4.2.2.4ZM273.7,256.4l.2-1.2-.7,1.4.5-.2ZM271.4,255.2l.9-1.3h-1c0-.1,0,1.3,0,1.3ZM273.2,253.8v-.9s-.2.2-.2.2l.2.7ZM275.1,253.3v-.7s-.1.6-.1.6h.1ZM275.7,251.2v-.2c-.1,0-.1.3-.1.3v-.2ZM276.4,250.8l-.7-.2.3.3.4-.2ZM274.3,250.9l-.2-.7-.2.2.4.5ZM276.9,250.4l.4-.4-.6.3.2.2ZM277.8,249v-.4c0,0-.3.2-.3.2h.3ZM282.6,245.9l-.2-.4h-.2c0,0,.4.4.4.4ZM244.4,219.8l-2.6-2.2-14,14.4,17.7,24.7-35.9,14.5,9,11,35.9,4.8-2.6-12.7,12.1-3.6-6.2-14.6,2.3-.2-.4.8,1.2,2.5.7-.2.2,3.6,2.4-1.4,1.2,1.2-2.3,1,3.1.6,6.4-6.7-5.6-1.5,6.9-4.2-1.5-2.4,3.2.8-.9-2.5,2.1.2-.9,1.9,2.4-1.6-2.7-1.8,5.1,3,4.4-10.4-14.9-19.9-25.6.9ZM267.9,261.8v.2s0-.5,0-.5v.2Z"/>
    <path id="SE-BD" d="M323.3,175.4l-.3-.3-.4.8.7-.5ZM325.3,174.3l-.3-.7v.8s.3,0,.3,0ZM324.7,174.1l-.4-.9h-.2c0,.1.6.9.6.9ZM329.1,171.8h-.5s.5.2.5.2v-.2ZM328.1,171.6h-.4c0,0,.6.5.6.5l-.3-.5ZM327.4,171.6l-.7-1.6h-.8s1.5,1.6,1.5,1.6ZM329,168.4v-.3c0,0-.2,0-.2,0l.2.3ZM327.6,169l-1.8-1.1.4,1.1h1.4ZM336.1,166.8v-.3s-.3,0-.3,0l.3.3ZM326.7,166.5l-1-.4.2.5h.8ZM328.1,165.2l-.2.3.5.2-.3-.5ZM337.8,165.1h.2c0,0-.6,0-.6,0h.4ZM337.9,164.2l-.3-.5-.2.2.5.3ZM325.7,163.7h-1.6c0,.1,2.8,1.7,2.8,1.7l-1.2-1.7ZM327.2,164.2l-.8-.5.2.4h.6ZM337.1,164.9v-.4c0,0-1-1-1-1l1,1.4ZM330.3,164.4l-.5-1-.4.4.9.6ZM338.6,163.4v-.5s-.5-.1-.5-.1l.5.6ZM330.9,163.4l.2-.4h-.6c0,0,.4.4.4.4ZM332.1,162.1l-.3-.4-.2.6.4-.2ZM336.9,161.3l-1.9-.2-.4,1,2.2-.7ZM340.4,161.2l-.2-.5-.3.5h.5ZM340.6,160.3l.3.4v-.4h-.3ZM333.8,162.3l-1.4-1.8v1.5c.1,0,1.4.3,1.4.3ZM342.3,160.1v-.6s-.5.8-.5.8l.5-.2ZM331.1,159.5h-.2c0,0,.4.5.4.5l-.2-.5ZM330.4,159h-.7s.4.5.4.5l.3-.5ZM339.4,160.3l-.4-1.4-.7.7,1.1.7ZM341.9,159.5l-.4-.6h-.4s.8.6.8.6ZM331.4,159.7l.4-.8-.6-.2.2,1ZM342,158.5v-.5c-.1,0-.4.2-.4.2l.4.4ZM356,158l-.3.2.4.2v-.4ZM340.2,158.8v-.5c0,0-1-.2-1-.2l1,.7ZM336.3,158.5l-.9-.8.6,1.1.3-.3ZM337,157.8v-.4c-.1,0-.2.3-.2.3h.2ZM335,158.3l-2-.6,2.9,1.7-.9-1.1ZM343.4,157.5l-1-.3,1,1.3v-1ZM341.4,157.2l-.5-.4-.3.7.8-.3ZM343.4,157.2v-.6c-.1,0-.6.1-.6.1l.6.5ZM340.7,155.6l-1.9.5,1.1.9.7-1.4ZM359.4,156.1v-1.1c-.1,0-.7,1.1-.7,1.1h.7ZM360.5,155l-.2-.2v.2s.2,0,.2,0ZM336.3,154.9l-.3.3.2.2v-.5ZM340,155.2l-.2-.5-.7.3.8.2ZM366.8,154.9v-.3s0,0,0,0v.3ZM364,155v-.5c0,0-.2.5-.2.5h.2ZM337.6,155.1l-.5-.8h-.3c0,.1.7.8.7.8ZM343.6,154v-.2c-.1,0-.2.2-.2.2h.2ZM338.1,153.7h-.3c0-.1.3.5.3.5v-.5ZM340.8,153.7v-.4s-.6,0-.6,0l.6.3ZM346.5,153.6l-.3-.6h-.1c0,.1.5.6.5.6ZM360.2,153.6l-.4-.7-.3.5.7.2ZM364.1,153.1v-.3c-.1,0-.2.2-.2.2h.2ZM356.2,152.9h0c0-.1,0,0,0,0h.2ZM336.9,152.9l-.3-.3v.2s.3,0,.3,0ZM363.3,152.8l-.2-.2v.2c0,0,.2,0,.2,0ZM360.7,153.1l-.3-.7v.5s.3.1.3.1ZM343.1,152.4l-.4.2.5.4-.2-.6ZM365.7,152.5l-.4-.4.3.5h0ZM346.9,152.1h-.4c0,0,.5.5.5.5v-.5ZM366,152.4v-.3s-.2,0-.2,0l.2.4ZM337.6,152h-.1c0,0,.4.4.4.4l-.3-.4ZM348.2,152.2h-.7c0-.1.6.5.6.5v-.5ZM342,152.2l-.4-.4-.2.3h.5ZM344.7,151.8h-.1c0,.1.4.5.4.5l-.3-.5ZM340.6,152.8l-.2-1.2-.4,1.2h.6ZM362.8,151.2l.2.6.4-.3-.6-.3ZM365.3,150.9h-.4s.5.3.5.3v-.3ZM366.1,150.5l-.5.2.9.6-.3-.8ZM337.1,151.1v-.7s-.6.4-.6.4l.6.3ZM339.2,150.3l-.3-.2v.4c.1,0,.3-.1.3-.1ZM349.9,150.2v-.2s-.2.3-.2.3h.2ZM339.6,149.9v-.2c-.1,0-.3,0-.3,0h.3ZM349.7,150l-.2-.3v.4c.1,0,.2-.1.2-.1ZM356.1,150.1l-.5-.4.6.7v-.3ZM346.4,151.1l-1.7-1.5,1.2,2.7.5-1.2ZM355.3,150.5l-.5-1.1v.8s.5.2.5.2ZM351.2,149.3l-1,.3,1.6.8-.6-1ZM364.6,149.4v-.4s-.3.3-.3.3h.3ZM360.1,149.3l-2,.9,1,1,1.1-1.9ZM353.8,149.3v-.7c0,0-.3.5-.3.5l.3.2ZM350.7,148.9h-.9c0,.1.4.5.4.5l.5-.5ZM352.9,148.8v-.2s0,0,0,0v.2ZM361.7,148.9v-.4c0,0-.1.3-.1.3h.1ZM351.2,149v-.5s-.6,0-.6,0l.6.4ZM338,148.4v-.2s-.1,0-.1,0v.2ZM343.5,150.5l-1.3-2.1v1.9s1.3.2,1.3.2ZM340.5,147.6l-.5.5.6-.2v-.4ZM362.9,147.8v-.2c-.1,0-.3.3-.3.3h.3ZM354.7,147.6v-.3s-.3-.1-.3-.1l.3.4ZM350.7,147.5l-.5-.4v.4c.1,0,.5,0,.5,0ZM366.1,147.6v-.5s-.2,0-.2,0l.2.5ZM336.9,147.4l-.5-.2.6.4-.2-.2ZM365.4,147.5l.2-.5-.5.5h.3ZM342.7,147.3l-.3-.6h-.3c0,0,.6.6.6.6ZM338,147.2l-.4-.7v.5s.4.1.4.1ZM342.9,146.8l-.3-.4.4.8v-.5ZM306.8,5.4l-8.7.7,4.3,10.1-6.5,20.8-30.2-8.4-4.2,25.5-10.1-5.9-19.1,27,3.9,19.3-15.8,29.6,63.3,46.7,39.1,5.8-5.3-10.8,6,3.8-2.9-4.7,9.8-4.4-3-2.8,5.9-.6-7.4-7.3,10.8,7.6-3.3-8.9,7.4-6,25.3,3.5-8.4-20.4,5.7-20.6-7.1-14.9,3.1-11.6-5.6-2.9,3.9-20.6-18.4-21.9-32.6-27.8Z"/>
    <path id="SE-Z" d="M241.7,217.6l-40.5-42.9-11.6,21,7.9,5.6-2.2,16.3-16.8-1.5-13.6,17.5-3,11.6,5.4,37.3,36.3,24.3,14.7-24.6-9-11,35.9-14.5-17.7-24.7,14-14.4Z"/>
    <path id="SE-S" d="M203.2,360.2l-29.2-34.8-7.7,1.9,5.9,20-2.7,12.4-10,6-.6,20.7,7.7,1.3,8.5,4.8,7.5,4.9-1.2-11.7,8-3.1,5.6,10.3,5.9,1.1,2.3-33.8Z"/>
    <path id="SE-N" d="M180.8,453l-20.2-13.3,16.7,34.2,9.9,1.5-3-12.5,6.2-4.7-9.7-5.4Z"/>
    <path id="SE-U" d="M245.4,377l-3-8.8,6.8-3.3.5-13.9-8.5,3.2-21.2,11.2,5.4,22.4,19.9-10.7Z"/>
    <path id="SE-D" d="M254.1,403.9l-.4-.5v.7s.4-.2.4-.2ZM254.3,402.4h-1.2c0,.1.4,1.3.4,1.3l.8-1.3ZM257.7,401.1l-1.7-1.6,1,1.3.7.3ZM245.4,377l-19.9,10.7-.9,7.2h3.2c0-.1,14.5,11.3,14.5,11.3l13.5-10.7-5-7.2,2.6-6.5-8-4.8Z"/>
    <path id="SE-E" d="M242.9,423.5h.4s-.9-.2-.9-.2l.6.2ZM244.7,420.2l-.2.5h.6s-.4-.5-.4-.5ZM246.1,418.7l.6-.5h-.4s-.2.5-.2.5ZM244.5,418.7l.3-.5h-.1c0-.1-.2.5-.2.5ZM243.8,417.9l.2-.9h-.8c0-.1.6.9.6.9ZM243.6,413.9l-1.2.6,2.2,1.4-1-2ZM245.4,413.2l.3-.3h-.5c0,0,.2.3.2.3ZM245.7,411.2l.2-.2-.7-.2.5.5ZM245.1,410.4l-.9-.6.3.5.7.2ZM227.8,394.8h-3.2c0,.1-13.9,10-13.9,10l-5,18.2,6.7-1.3,7.4,14,16.7-13.1,4.1,4.3,1.9-10.6-6.5-4.9,8.9-.4-12.8-4.6h10.1l-14.5-11.5Z"/>
    <path id="SE-T" d="M220.1,365.3l-16.8-5.1-2.3,33.8,6.7,9.8,3,1,13.9-9.8.9-7.2-5.4-22.4Z"/>
    <path id="SE-G" d="M221.7,451.3l-31.2,7-6.2,4.7,3,12.5,17.4-1.6h13.8c0-.1,8.1-14.2,8.1-14.2l-5-8.3Z"/>
    <path id="SE-W" d="M203.7,306.7l-36.3-24.3-2.6,19.5,12.2,12.8-3,10.6,29.2,34.8,16.8,5.1,21.2-11.2-8.6-12.4,3.4-6.9-4.2-7.5-28.1-20.7Z"/>
    <path id="SE-H" d="M239.5,454.4l-.5-.3,1.1.7-.6-.4ZM238.7,452.4l-.6.5h.7v-.5ZM242.6,450.2v-.3c-.1,0-.2.2-.2.2h.2ZM247.2,447.2l-11,23.3.2,11.1,10.8-34.5ZM241.3,442.3l-.6-.7.2.5.5.2ZM241.4,439.1l-.4-.6-.9,1.4,1.3-.7ZM241.1,433.5v-.9s-.9.1-.9.1l.9.8ZM241.5,431.2l-.5.5,1.5,1.1-1-1.5ZM236.6,422.6l-16.7,13.1,1.8,15.6,5,8.3-8.1,14.1,3.9-.6,7.9,5,8.7-21.7-2-4.1.5-2-.4-1,3.7-6.1-2.8-4.9,3.3-2.4-5-6,4.7,4.8-4-4.8,3.8-3-4.1-4.3Z"/>
    <path id="SE-F" d="M219.9,435.7l-7.4-14-6.7,1.3-6.3,13.8-2-6.5-16.5,22.6,9.7,5.4,31.2-7-1.8-15.6Z"/>
    <path id="SE-X" d="M251.9,334.6l-.4-.6h-.4c0,0,0,.7,0,.7l.8-.2ZM250.2,326.5l-.2-.9-.5.7.7.2ZM251.4,322.4v-1s-.3.5-.3.5l.3.5ZM253.4,308h-1.3c0,.1,1.7.4,1.7.4l-.4-.4ZM250.8,308.1l.3-.6-.5-.3.2.9ZM255.3,302l-.5-.2v.3c0,0,.5-.2.5-.2ZM254.2,294.1v-.5c-.1,0-.2.3-.2.3l.2.2ZM254.9,294v-.3s-.6-.1-.6-.1l.6.4ZM251.8,296.7l2.5-9.8-35.9-4.8-14.7,24.6,28.1,20.7,4.2,7.5-3.4,6.9,8.6,12.4,8.5-3.2,2.5-10.7-3.2-2.3,2.5-2.6-.9-.5v-1.1s-.4,0-.4,0l.4-.9-.6-2-1.5-1.7,1.5-2.2-1.5-.3v-6.4c-.1,0,.9-1.1.9-1.1l-1.9-3,3,.2-3.7-9.4,7.4-1.9-2.5-8.5Z"/>
  </g>
</svg>