<svg xmlns="http://www.w3.org/2000/svg" xmlns:amcharts="http://amcharts.com/ammap" id="Layer_1" viewBox="0 0 512 512"><g id="_x3C_defs"><amcharts:ammap bottomLatitude="55.338" leftLongitude="11.105" projection="mercator" rightLongitude="24.171" topLatitude="69.061"/></g><g><path id="SE-M" d="m176.1 506.6 22.6-.2 6.2-19.8-.2-12.8-17.4 1.6-9.9-1.5-7.7 5.2 10.1 18.3z"/><path id="SE-O" d="m158.4 437.5-.9.3.9.5zm-2.1-1.5-.4-.9-.3 1.1zm-.3-5.8-1.3.6.5.7.8-1.2Zm1.7-5.5-4 1 1.6 2.9zm.9-5.9-6.4 3.7.9 1.9 5.8-1.7-.3-3.8Zm-13-21.6-.4 1.5h1.3zm21.1-9.5-7.7-1.3-3.3 11.6-8.4-2 1.9 19.6 11.1.4-1.2 1 1.4 2.7-2.2 10-1.7 2 4.3 8.1 20.2 13.3 16.5-22.6 10.2-26.6-6.7-9.8-5.9-1.1-4.8 14.5-21.6 7.6 6.5-22.5-8.5-4.8Z"/><path id="SE-K" d="M209.9 488.2v-.4c.1 0-.2-.1-.2-.1zm15.7-.9v.6l.4-.6zm-1.8-2.7.4 1.4.5-1.3h-.9Zm-11.7-.1h-.4l.3.4v-.4Zm8.3.7.2-.8-.8.4.6.3Zm1.5-.2-.5-.7-.3.6h.8Zm1.1.1v-.9l-.6.7zm2.2-.9h-.7l.7.8zm-5.9-.6-.2-.2v.4zm3.2-10.5-3.9.6h-13.8c0 .1.2 12.9.2 12.9l3.6.7-1.4-2.6.7-1.5 10.7.8.6-1.2 1.3.8 1.8-1.7 4 1.5-.6 1.6 1.1.6 3.6-7.5z"/><path id="SE-C" d="m272.7 354.2-.5.3h1.1c0 .1-.6-.3-.6-.3m-.6.7v-.6l-1.3-.5zm1.4-2.7-.4-.4-.2.4zm-3.4-6.2-.6 2.9 2.8 2.1-2.1-5Zm-.4-1.9-.2-.6-.6.3zm-12.4.3-4.9-4.1-2.5 10.7-.5 13.9-6.8 3.3 3 8.8 8 4.8 18.6-24.5-14.8-13Z"/><path id="SE-AB" d="m260.6 402.2-.2-.3.2 1.2zm-2.5-2.7-.4-.5.4.9zm6.5-.4.5-1.1-.8 1h.3Zm-4.3.1v-1.5l-1 3.3zm5.1-1.7 1-1.1h-.7zm3.3-1.9-2.7 1.8 2.1-.5zm-5.4.8v-1.1l-.6 1.4zm3.1-2.7h-1.9l-.9 2.1zm-.6-.9-.3-.2-.3.4zm6.1-.3-.5.2v.8c-.1 0 .5-1 .5-1m-14.4 4.4-.4-4.8-.6 3.8zm15.4-5 .3-.8-.4.3v.5Zm2.3-.4.4-.7-.6.5zm-4.8 1.1.4-1.9-2.3 2.7zm2.2-2.1.2-.2-.4.2zm1.3-2.2h-.3l-.2.5zm1.3-.3-.8-.4-.5 1 1.3-.7Zm-5.3-.4v-.2h-.4l.4.3Zm3.2-.8-.5.3h.4v-.3Zm2.7-.8.5-1-1.5.9h.9Zm2.6-.5-.2-.6h-.3c0 .1.5.6.5.6m-6.8-.5-3-.3 4.5 1.3zm6.2-.6h.1-.7.5Zm.3-1.6h-.6l-.2 1.1zm-3.6-.5-.3 2.4 1.2-1.1-.8-1.4Zm2.8-.6v-.3l-.3.1zm1.4.4-.4-.9-.4.2zm-9.1-1.1-.7-.3 1.1.9zm10.3-.2h.1Zm-1.1-.2-.2.9.5-.7-.4-.2Zm-10.4.1h.3c0-.1-.9-.4-.9-.4zm14.9-.4v-.4h-.2zm-5.3.5v-1l-.8.7.8.2Zm10.2-.8v-.2h-.2zm-13.1-.5-1.6.6h1.2zm1.5-.7-.2-.2-1.8.4zm5.9-.9-.2.2v.2zm-8.2-1-2.9 1.7.8 2zm6.1-1.5-.5.2h.9c0-.1-.4-.2-.4-.2m1.6-.1.6-.3v-.2c-.1 0-.6.5-.6.5m1.8-.9h-.2v.4zm-4.7-.4-.4-1-1.6 1.9zm1.3-.8-.3-.3-.2.4h.5Zm-4.5 2.4 2.4-2.7-2.8 2.7h.5Zm6.3-2.5-.2-.3h-.4l.5.3Zm-4.4-.6h-.9c0 .1.7.4.7.4v-.4Zm4.9.3v-.3h-.2l.2.4Zm3.6-1.5v-.2l-.1.2zm-4.2-1.3-.7-.3v.3zm.6-.7.2-.7-.7.3.5.3Zm-1.6-.4.2-.5h-.4c0 .1.3.5.3.5Zm-1.7-1.2-.6-1.7-1.2 2.3 1.8-.7Zm2.3-1.1v-.7c.1 0-.6 1.1-.6 1.1zm-6.5-8.5-3.1-.8-18.6 24.5-2.6 6.5 5 7.2 1.2-6.7 3.9 10 2-6 6.9-3.2-2.2-5.9 5.8.2-10.6-3.1 17.9-11.3-5.7-.6 3.2-2.8-.6-2.6 2.5 3.2.6-2-5.6-6.8Zm-8.2 24.4-1 .9-1.4-1.3zm8.9-27-1.2-1.2.2 1.9z"/><path id="SE-I" d="m275.9 431.7-11 9.1.2 19.4 13.2-14.6-2.7-7.3 5.4-6.2-5-.4Zm7.4-4.8-3.1 2.7 5.1-1.8-1.9-.8Zm1.1-11.4.7-.6-2.4-.9 1.7 1.4Z"/><path id="SE-AC" d="M286.5 239.4v-.5l-.1.6h.1Zm1.7-.4.3.2-.7-.9.5.7Zm6.4-1.4v.6c-.1 0 0 0 0 0v-.5Zm-.3-1.9v-1 1.3zm15.1-2.4v-.6l-.5.8zm-8.7-2.2.3.5v-.2zm9.8.7.4-1.2-.7.9zm-4.4-3.4-.3-.2.3.6zm5.5 1.4.7-3-1.4 3.1h.8Zm.2-2.9-.9-.9-.4 1.1 1.4-.2Zm-3.7-1.1v-.3c.1 0-.1.5-.1.5v-.2Zm5.2 0v-.4l-.2.5h.2Zm8.4-30.6-.2-.3v.3zm-3.6-11-.2-.9-.6-.2.7 1.1Zm-34.3-13.5L220.5 124l-15.7 9.6-3.5 41.1 40.5 42.9 2.6 2.2 25.6-.9 14.9 19.9 22.8-12.5 15.5-25.1-9.4-15.3 9.1-9.3-39.1-5.8Zm31.9 20.9-.5-1 1.4 1.4zm-.5 19.2v.3c.1 0-.2-.3-.2-.3zm-9.3 16 .2-.7v.5z"/><path id="SE-Y" d="m257.9 285.4.6-1.1h-1zm3.1-11.7h-.1v.1Zm3.4-5.1-.5-.7-1.1.4 1.5.3Zm-.1-3.5-1.5 1.6 2.6-1.2-1.1-.3Zm2-.3.5-1-.7.6v.4Zm-3.4-.1.2-.7-1-.3.7 1Zm-2-4.8.2-.5-.4.2.2.4Zm12.8-3.5.2-1.2-.7 1.4zm-2.3-1.2.9-1.3h-1v1.3Zm1.8-1.4v-.9l-.2.2zm1.9-.5v-.7l-.1.6h.1Zm.6-2.1v-.2c-.1 0-.1.3-.1.3v-.2Zm.7-.4-.7-.2.3.3.4-.2Zm-2.1.1-.2-.7-.2.2zm2.6-.5.4-.4-.6.3.2.2Zm.9-1.4v-.4l-.3.2h.3Zm4.8-3.1-.2-.4h-.2zm-38.2-26.1-2.6-2.2-14 14.4 17.7 24.7-35.9 14.5 9 11 35.9 4.8-2.6-12.7 12.1-3.6-6.2-14.6 2.3-.2-.4.8 1.2 2.5.7-.2.2 3.6 2.4-1.4 1.2 1.2-2.3 1 3.1.6 6.4-6.7-5.6-1.5 6.9-4.2-1.5-2.4 3.2.8-.9-2.5 2.1.2-.9 1.9 2.4-1.6-2.7-1.8 5.1 3 4.4-10.4-14.9-19.9-25.6.9Zm23.5 42v.2-.5.2Z"/><path id="SE-BD" d="m323.3 175.4-.3-.3-.4.8zm2-1.1-.3-.7v.8h.3Zm-.6-.2-.4-.9h-.2c0 .1.6.9.6.9m4.4-2.3h-.5l.5.2zm-1-.2h-.4l.6.5-.3-.5Zm-.7 0-.7-1.6h-.8zm1.6-3.2v-.3h-.2zm-1.4.6-1.8-1.1.4 1.1zm8.5-2.2v-.3h-.3zm-9.4-.3-1-.4.2.5h.8Zm1.4-1.3-.2.3.5.2zm9.7-.1h.2-.6zm.1-.9-.3-.5-.2.2zm-12.2-.5h-1.6c0 .1 2.8 1.7 2.8 1.7zm1.5.5-.8-.5.2.4h.6Zm9.9.7v-.4l-1-1zm-6.8-.5-.5-1-.4.4zm8.3-1v-.5l-.5-.1zm-7.7 0 .2-.4h-.6zm1.2-1.3-.3-.4-.2.6.4-.2Zm4.8-.8-1.9-.2-.4 1 2.2-.7Zm3.5-.1-.2-.5-.3.5zm.2-.9.3.4v-.4zm-6.8 2-1.4-1.8v1.5c.1 0 1.4.3 1.4.3m8.5-2.2v-.6l-.5.8zm-11.2-.6h-.2l.4.5zm-.7-.5h-.7l.4.5zm9 1.3-.4-1.4-.7.7zm2.5-.8-.4-.6h-.4zm-10.5.2.4-.8-.6-.2zm10.6-1.2v-.5c-.1 0-.4.2-.4.2l.4.4Zm14-.5-.3.2.4.2v-.4Zm-15.8.8v-.5l-1-.2zm-3.9-.3-.9-.8.6 1.1zm.7-.7v-.4c-.1 0-.2.3-.2.3h.2Zm-2 .5-2-.6 2.9 1.7zm8.4-.8-1-.3 1 1.3zm-2-.3-.5-.4-.3.7zm2 0v-.6c-.1 0-.6.1-.6.1zm-2.7-1.6-1.9.5 1.1.9.7-1.4Zm18.7.5V155c-.1 0-.7 1.1-.7 1.1zm1.1-1.1-.2-.2v.2zm-24.2-.1-.3.3.2.2v-.5Zm3.7.3-.2-.5-.7.3.8.2Zm26.8-.3v-.3zm-2.8.1v-.5l-.2.5zm-26.4.1-.5-.8h-.3c0 .1.7.8.7.8Zm6-1.1v-.2c-.1 0-.2.2-.2.2zm-5.5-.3h-.3c0-.1.3.5.3.5zm2.7 0v-.4h-.6l.6.3Zm5.7-.1-.3-.6h-.1c0 .1.5.6.5.6Zm13.7 0-.4-.7-.3.5zm3.9-.5v-.3c-.1 0-.2.2-.2.2h.2Zm-7.9-.2c0-.1 0 0 0 0h.2Zm-19.3 0-.3-.3v.2h.3Zm26.4-.1-.2-.2v.2zm-2.6.3-.3-.7v.5l.3.1Zm-17.6-.7-.4.2.5.4-.2-.6Zm22.6.1-.4-.4.3.5Zm-18.8-.4h-.4l.5.5v-.5Zm19.1.3v-.3h-.2l.2.4Zm-28.4-.4h-.1l.4.4zm10.6.2h-.7c0-.1.6.5.6.5v-.5Zm-6.2 0-.4-.4-.2.3h.5Zm2.7-.4h-.1c0 .1.4.5.4.5zm-4.1 1-.2-1.2-.4 1.2zm22.2-1.6.2.6.4-.3zm2.5-.3h-.4l.5.3v-.3Zm.8-.4-.5.2.9.6-.3-.8Zm-29 .6v-.7l-.6.4zm2.1-.8-.3-.2v.4c.1 0 .3-.1.3-.1Zm10.7-.1v-.2l-.2.3h.2Zm-10.3-.3v-.2h-.3.3Zm10.1.1-.2-.3v.4c.1 0 .2-.1.2-.1m6.4.1-.5-.4.6.7v-.3Zm-9.7 1-1.7-1.5 1.2 2.7zm8.9-.6-.5-1.1v.8l.5.2Zm-4.1-1.2-1 .3 1.6.8-.6-1Zm13.4.1v-.4l-.3.3h.3Zm-4.5-.1-2 .9 1 1 1.1-1.9Zm-6.3 0v-.7l-.3.5zm-3.1-.4h-.9c0 .1.4.5.4.5zm2.2-.1v-.2zm8.8.1v-.4l-.1.3h.1Zm-10.5.1v-.5h-.6l.6.4Zm-13.2-.6v-.2h-.1v.2Zm5.5 2.1-1.3-2.1v1.9zm-3-2.9-.5.5.6-.2v-.4Zm22.4.2v-.2c-.1 0-.3.3-.3.3h.3Zm-8.2-.2v-.3l-.3-.1zm-4-.1-.5-.4v.4zm15.4.1v-.5h-.2zm-29.2-.2-.5-.2.6.4-.2-.2Zm28.5.1.2-.5-.5.5zm-22.7-.2-.3-.6h-.3zm-4.7-.1-.4-.7v.5l.4.1Zm4.9-.4-.3-.4.4.8v-.5ZM306.8 5.4l-8.7.7 4.3 10.1-6.5 20.8-30.2-8.4-4.2 25.5-10.1-5.9-19.1 27 3.9 19.3-15.8 29.6 63.3 46.7 39.1 5.8-5.3-10.8 6 3.8-2.9-4.7 9.8-4.4-3-2.8 5.9-.6-7.4-7.3 10.8 7.6-3.3-8.9 7.4-6 25.3 3.5-8.4-20.4 5.7-20.6-7.1-14.9 3.1-11.6-5.6-2.9 3.9-20.6-18.4-21.9-32.6-27.8Z"/><path id="SE-Z" d="m241.7 217.6-40.5-42.9-11.6 21 7.9 5.6-2.2 16.3-16.8-1.5-13.6 17.5-3 11.6 5.4 37.3 36.3 24.3 14.7-24.6-9-11 35.9-14.5-17.7-24.7 14-14.4Z"/><path id="SE-S" d="M203.2 360.2 174 325.4l-7.7 1.9 5.9 20-2.7 12.4-10 6-.6 20.7 7.7 1.3 8.5 4.8 7.5 4.9-1.2-11.7 8-3.1 5.6 10.3 5.9 1.1z"/><path id="SE-N" d="m180.8 453-20.2-13.3 16.7 34.2 9.9 1.5-3-12.5 6.2-4.7-9.7-5.4Z"/><path id="SE-U" d="m245.4 377-3-8.8 6.8-3.3.5-13.9-8.5 3.2-21.2 11.2 5.4 22.4 19.9-10.7Z"/><path id="SE-D" d="m254.1 403.9-.4-.5v.7zm.2-1.5h-1.2c0 .1.4 1.3.4 1.3zm3.4-1.3-1.7-1.6 1 1.3zM245.4 377l-19.9 10.7-.9 7.2h3.2c0-.1 14.5 11.3 14.5 11.3l13.5-10.7-5-7.2 2.6-6.5z"/><path id="SE-E" d="M242.9 423.5h.4l-.9-.2.6.2Zm1.8-3.3-.2.5h.6zm1.4-1.5.6-.5h-.4zm-1.6 0 .3-.5h-.1c0-.1-.2.5-.2.5m-.7-.8.2-.9h-.8c0-.1.6.9.6.9m-.2-4-1.2.6 2.2 1.4zm1.8-.7.3-.3h-.5zm.3-2 .2-.2-.7-.2.5.5Zm-.6-.8-.9-.6.3.5.7.2Zm-17.3-15.6h-3.2c0 .1-13.9 10-13.9 10l-5 18.2 6.7-1.3 7.4 14 16.7-13.1 4.1 4.3 1.9-10.6-6.5-4.9 8.9-.4-12.8-4.6h10.1l-14.5-11.5Z"/><path id="SE-T" d="m220.1 365.3-16.8-5.1L201 394l6.7 9.8 3 1 13.9-9.8.9-7.2-5.4-22.4Z"/><path id="SE-G" d="m221.7 451.3-31.2 7-6.2 4.7 3 12.5 17.4-1.6h13.8c0-.1 8.1-14.2 8.1-14.2l-5-8.3Z"/><path id="SE-W" d="m203.7 306.7-36.3-24.3-2.6 19.5 12.2 12.8-3 10.6 29.2 34.8 16.8 5.1 21.2-11.2-8.6-12.4 3.4-6.9-4.2-7.5-28.1-20.7Z"/><path id="SE-H" d="m239.5 454.4-.5-.3 1.1.7zm-.8-2-.6.5h.7v-.5Zm3.9-2.2v-.3c-.1 0-.2.2-.2.2h.2Zm4.6-3-11 23.3.2 11.1 10.8-34.5Zm-5.9-4.9-.6-.7.2.5.5.2Zm.1-3.2-.4-.6-.9 1.4 1.3-.7Zm-.3-5.6v-.9l-.9.1zm.4-2.3-.5.5 1.5 1.1-1-1.5Zm-4.9-8.6-16.7 13.1 1.8 15.6 5 8.3-8.1 14.1 3.9-.6 7.9 5 8.7-21.7-2-4.1.5-2-.4-1 3.7-6.1-2.8-4.9 3.3-2.4-5-6 4.7 4.8-4-4.8 3.8-3-4.1-4.3Z"/><path id="SE-F" d="m219.9 435.7-7.4-14-6.7 1.3-6.3 13.8-2-6.5-16.5 22.6 9.7 5.4 31.2-7-1.8-15.6Z"/><path id="SE-X" d="m251.9 334.6-.4-.6h-.4v.7l.8-.2Zm-1.7-8.1-.2-.9-.5.7zm1.2-4.1v-1l-.3.5zm2-14.4h-1.3c0 .1 1.7.4 1.7.4zm-2.6.1.3-.6-.5-.3zm4.5-6.1-.5-.2v.3l.5-.2Zm-1.1-7.9v-.5c-.1 0-.2.3-.2.3zm.7-.1v-.3l-.6-.1zm-3.1 2.7 2.5-9.8-35.9-4.8-14.7 24.6 28.1 20.7 4.2 7.5-3.4 6.9 8.6 12.4 8.5-3.2 2.5-10.7-3.2-2.3 2.5-2.6-.9-.5v-1.1h-.4l.4-.9-.6-2-1.5-1.7 1.5-2.2-1.5-.3v-6.4c-.1 0 .9-1.1.9-1.1l-1.9-3 3 .2-3.7-9.4 7.4-1.9-2.5-8.5Z"/></g></svg>