<svg xmlns="http://www.w3.org/2000/svg" xmlns:amcharts="http://amcharts.com/ammap" id="Layer_1" viewBox="0 0 512 512"><g id="_x3C_defs"><amcharts:ammap bottomLatitude="45.818" leftLongitude="5.957" projection="mercator" rightLongitude="10.493" topLatitude="47.808"/></g><g><path id="CH-AG" d="m281.5 209.1 2.7-2.1 1.5 2.1v2.1l-2.2-1.9-1.9-.2Zm-25.4-79.8 3.4-1.7.9 1 2.1-.3 1.5.8v2.7l3.3 2.8 6.2.9 1.7-1.8 2.3 1.3-.4 3.6-2.5 3.3h-1.2c0-.1-.4 2.1-.4 2.1l-1.8.5-.4 1.3.7 3.4h1.1l.1 1.6-1 .8 2.4 2.5-.8.8.4 1.6-1.2.4 1.4.8.2 1.6-1.6 3.1 2 1.6.3 2.1 1.2 1.2-.4 3.9 1.4 1.5-.3 1.8h2.4c0 .1 2.2-1.2 2.2-1.2l-2.9 5.3-3.4 2.1-1-.3 2.2 6.5-1.6 3.9 1.2 4.9-.4 2.9 1.5 2.1-.4 3.9-2 .3-3.5-1.2-4.7-11.3-.8-4.7-1.7-2.2.4-2-4.4-2.5h-1l-.9 2.3h-1.6c0-.1-.9 3.3-.9 3.3l-1.7 1.6v2.7l-2.1.6h-.9c0 .1-2.4-2.5-2.4-2.5l2.2-.4-.3-2-5.2 1.8-1.9-.5-1.1-2.5-1.1-.5-1.8 1.3h-1.7c0-.1.5 1.4.5 1.4l-3.6.9-1.4-.6v-2.4l-2.3-3.6-1.1.9-3.9.2 1.2 3.4-3.1 2.9-2.5-1.4-6.1 1.8-2.5-1-.5-4.4 1.6-1.2 2.3-5.3 3-.7 2-5.1 1.4 1.4 3.1.3.2 2.5 6.1-3.2.6-3.3 1.8-1.9v-4.4h-1.5l-.5-2.2-5.1-2.2 2.2-1 .4.9.2-1.1-1.4-4.7-.8-.7-1.3 1.2-.6-1.1h-1.1l.5-3.7h-4.4l-1.3-3.4-2-1.1v-1.6l-1.3.6-1.1-2.4h-2.4l-.3 3.2-2.5 2.8-1.9.6v-4.2l-5.3-1.5-.2-.9-2.8-.9 8.9-2.8 2.9-5 2.1.9 5.5-.8 1.9 2.6.3 3.4 3.4 1.1 1.7-2.3 6.8 1.2 5.2-2.3 2.5 1.1 2-3.8 3-.4 1.4-1.9 1.9.2 4-4.2 1.9.4.8 2.1Z"/><path id="CH-AI" d="m379.2 186.6-3-6.5.5-2.8-.9-2 3.9-3.8-.2-1.2 2.3-1-1.6-4.1 3.2-.6v1h1.8l1.9 1.8 2-.4.9 2.4 3.1 1.6h4.1c0-.1-1.7 9.5-1.7 9.5l-2.9 3.9-2.6 2.2-6.1 2.8-4.6-2.9Zm18.5-23.3.2-1.3 2.4-1.3-1-.6.2-1.2 1.7-1.6 1.8.9.9-2 1.5.8 4.4-.6-3.2 1.9 1.8 1.9-2.8.5-3.8 3.1-.3-1.3-3.7.8Z"/><path id="CH-AR" d="m379.2 186.6-2.1 1-1.5-2.1-1.2.3-2.6-2-1.8 1-2.2-.2-3.5-1.9 2-2.5-1.6-4.7 2.6-1.9-1.2-1.7-1.8.6-.7-1.3.8-1.4-1.3.4-.5-1.5 2.4-.4 2-5.3 3.9-.7 4 1 7.7-2.1 2.4 1.1 2-.3 2.4-1.7.4-3.4 1.9.5 8.6-3.7-.5-1.3.8-1.1 6.8 1.6 3.7 2.3-1.3 1.1-4.4.6-1.5-.8-.9 2-1.8-.9-1.7 1.6-.2 1.2 1 .6-2.4 1.3-.2 1.3-1.1 4.1.4 3.6h-4.1c0 .1-3-1.5-3-1.5l-.9-2.4-2 .4-1.9-1.8h-1.7v-1l-3.2.6 1.6 4.1-2.3 1 .2 1.2-3.9 3.8.9 2-.5 2.8z"/><path id="CH-BE" d="m131.1 242.9 1.4.5-1.4 1.3-.8-.6.9-1.2Zm4.8-2.6.4 2-2.1 1.1-.5-2.5 1.6-.4zm46.7-65.1-2.8 4.6-5.2 1.6-2 3.1-5.5 1.9v2.1c-.1 0-6.1 3.5-6.1 3.5l-2.4.3 1.5 4.2 1.2-.7 1.4 1.4 1.5 3.3-1 .2v.9c.1 0 3.3-.4 3.3-.4l2.1-2.2v-1.2l1.7.5.2-1.4 3-.2.3 2.6 2 .7-2.4 2.7-2.8-.4-1.2 2-1.5.5-.4.8 1.9 2-3.8.9-2-1.2-1.7.7 2.1 4.8 4.8-1.4.9 4.2 3.7-1.7-1.5-3.7 5.4-2.9 2-3.6-.7-2.1h2.5l1.8-1.2 1.9 1.2.7 2 3.4-1.4 3.2 1.2 1.5-3.2h1.5l-.2-4.3-2.5-1.1-.9-4.4h-2.3l-2.6-2.7-.2-3.3-1.5-1.6 8-1.2 3.5-1.8 5.3 5.6h2.6l2-1.4 1.2 1.9 1.8-2 1.4 1.2 1.4-.8.5 4.4 4.3 8.8.7 5 1.4 2-.4 1.9-2.1 1.6 1.5 4.9-1.4 6.7 2.7 3 .9 3.5 2.5-.7.9 1h2.5l-.3 3.7-.7 2.1-1.5 1.2-.3 2.1-1.7 2.4h-2.5l-2.6 2.8 1.7 1.9-2.9 3.6v1.7c.1 0 1.4 1.2 1.4 1.2v3.1l8.5 6.4 3.1 4.3 1.2.5 4-2.3 3 .2h4.5c0 .1 1.4 2.3 1.4 2.3l2.2.5 2.6 2.4 4.8-2.4 4.7 1.4.8-1.5 2.2 1 1 1.7 1.5.2 5.9-4.4 3.6-1.1 2.9 2.5.2 1.1 2-1.5 2.6.4 1 .2v1.1l-1 1.7.2 2.6 1 1.1-.3 2.6.8.6-.3 3.4-2.7.4-3.2-1v.8l-.2 2 1.4 3.5-1.3-.2-.5 1.5-2.5 1.9-1.2 5.6.6 2.2-1.8 2.6-3.8 1.6-1.3 2-5.1 2.6-8.5 1.5-.7-1.8-5.2-.9-1.4-1.5-11.3-2.6-5.5 3.7 1.1 2.4-.4 1.4-3 1.3-2 2.5-5.2 2.4-3.5-.3-14.2 10.1-9.9-4.8-1.9 1.5-1.6 3.9-2.1-.9-4.7 1.2-.5 1.5 3 1.8-1.8 1.8-5.6 1.2-.9-2.3-1.9 1.4-2.6-1.5-4.3 1.6-5 4.1-4.3 1-.8-1.1.2-3.8-1.4 1.5-3.9 1.1v3.2l-1.1 1.4h-3.4l-.3-4.3 1.1-.7-1.5-.2-.8-2.6h-1.7l1.8-6-1.9-2.9.3-1h3c0-.1 1.2-2.1 1.2-2.1l-.9-5.2 1.3-.2-.4-1.1 1.2-.8.6-2.8-1.3-5.8 2.1-1 2.8-3.9 2.3.8 2.1-1.9-.9-5v-2c.1 0 1.9-.9 1.9-.9l-.9-2.1h2.7l1.2 2.5 2.1-2.7h-.8l1.2-5.5-2-1.4h-1.8l.4-2.1-4.6-.8-1.2-1.7.8-5-1.4-2.3 1.5-1.7-.4-1.6 2.1-3.7v-.8l1.2-1.9-3.2-3.2 1.5-1.7 1.6.6-.5 1.1 2.8-.4.9-1.3-.9-4.1-2.8-.9-5.1.6-2.1-1.3h-2.6l-.7-1-1.3.9-1-.8-2.3.4 2.1-1.4-.3-2 .8-1.1-1.1-1.5.9-3-1.7-1.2 2.1-.5 2.4-2.9-2.1-3.6-6.7 3.4-6.8 1.6-4.9-.2-1-.3-1.7-4.3.9-4 5.9-4.5-1.1-2.7 1.1-1.6-1.1-1.7-4-2.1-1.3.9-.6-1.4 1.8-2.1-1.1-.4-10.2 3-.8-.6-7 4.5 2.4-7.5-2.9-5.6 1.1-1.4 1.3 3.9 5.1-3.1 1.3-2.4 1.2-.5.4 1h1.5l1.1 1.1 1.8-3.1 3-.4 2.6-5 1.3-.7v-1.9c.1 0 2.3-.8 2.3-.8l1.2 1.8 1.5-1 5.7-.8-1.3-1.9.7-1.6 2.1-.8-.5-3.1 4.6-.2.5 1.1 8 .7 3.6-.5 2.4-2.9 4.7-1.6 12.6 2.1 6.9-3.4Zm-37.5 62.9v1.5l1.7-.8v-1.4l-.9.4-.8.4Zm52.1-37.6-1.3.5-.4 1.6h1.6l.5-1.4-.4-.6Zm-14.6-25.3h-3.3l2.7-3.8 2.2 2.6-1.5 1.2Zm-25.4-19.3 5.8 1.5-.6 2.7h-2c0-.1-1.8-2.4-1.8-2.4l-1.6-.5.3-1.4Z"/><path id="CH-BL" d="m225.5 155.5 1-2.1-.6-1.1h-1.1l.5-3.7h-4.4l-1.3-3.4-2-1.1v-1.6l-1.3.6-1.1-2.4h-2.4l-.3 3.2-2.5 2.8-1.9.6v-4.2l-5.3-1.5-.2-.9-2.8-.9-2.1 1.2h-2.2c0-.1-4.5-4.8-4.5-4.8l-1.8.4.2 3.1-3 3.3-1-3.7-1.6-.3-1.5-3.4-6.3 4.2.3 1.8 1.9-1 1.3.9-.9 2.4h-2.1l-.6-1 1.3 3 2.6.6.5 1.1-1 2.8.3 2-4.4.4-3.6 1.5-1.6-1.9-1.6.5-.9 2.1h1.8l1.4 1.5.6 1.3-.7 1.8-3.3.9-3.9-.5.5 1.7 2.8 1.5-.3 2.2 2.7.2.8-3.6h3.7l.3 1.9 2.6.9 1.8-.6 1.3-2.4-.6-1.4 6-.6-1.3-1.1v-2.5l1.5 1.3 3.7-.7.9-4.9-2.2-1.1.3-3.1 3.7 1.1 1.7-.8-.8-.7.6-.7h1.3c0-.1.4 1.7.4 1.7l3.4.9.9 1.4-1.1 2.6-1.4.8-.7 5-2 1.5h-3.3v4.5l.9.4.3 2.2 6.1-.8 3.2.6 1.5 3 3 1.8 2.8-.6 1-3.2 2.7-.4 1.2-1.7 4.3-1.5-1-2 1.5-1.6 2.8 1.2 5.9-3.9-1.7-3.3Z"/><path id="CH-BS" d="m195.8 131.5-.7.9 1.8 2.2-.3 1.1-.4-.7-.6.9-4.7.4-1.8.4.2 3.1-3 3.3-1-3.7-1.6-.3-1.5-3.4 1-2 1.9.3.7-2.5 3.2 2.2 3.2-2.9 2.9.6 2.1-1.5-1.5 1.5Z"/><path id="CH-FR" d="m96.2 267.3.2.2 1.1.3-1 3.4-.7.8-1 .6-1.5-2.3 2.7-3.2h.1Zm8.4-3.8h.3l.4 1 .5.8 2.3 2.2-1.6 3.4-.4.5-3.9-1.7-2.1 1.3h-2.3c0-.1.5-1.4.5-1.4l1.9-.2.7-.2 3.5-5.8h.2Zm1.7-21.6 3.3 4.2 2.7 1.9-3 1.5 2.1-.6 1.9 2.1-2.9 4.2.8 2.3-.6 1.1.8.4.9-1.2 1.2.9-2.2 4.1-.2-.7-3.4 1.2-2.1-1.9-3.8 2.4-2.2-2-.7.4-1.9-1.6-.4.6.8-2.2-.7.4-4-4.3 4.2-4.1 9.5-9Zm39.6-4.3 1-.4v1.4l-1.8.8v-1.5l.8-.4Zm-19.4-6.7 4.9.2 6.8-1.6 6.7-3.4 2.1 3.6-2.4 2.9-2.1.5 1.7 1.2-.9 3 1.1 1.5-.8 1.1.3 2-2.1 1.4 2.3-.4 1 .8 1.3-.9.7 1h2.6l2.1 1.3 5.1-.6 2.8.9.9 4.1-.9 1.3-2.8.4.5-1.1-1.6-.6-1.5 1.7 3.2 3.2-1.2 1.9v.8l-2.1 3.7.4 1.6-1.5 1.7 1.4 2.3-.8 5 1.2 1.7 4.6.8-.4 2.2h1.8l2 1.4-1.2 5.4h.8l-2.1 2.7-1.2-2.6h-2.7l.9 2.2-1.8.9v2c-.1 0 .8 5 .8 5l-2.1 1.9-2.3-.8-2.8 3.9-2.1 1-3.1 3.4-1.7-2.2-3.3 2.8h-1.7l-2.7 4.9-2.5 1.8h-4.3l-4.4 4.2-.4 2.1-3.8 1.5.9-1.7-1.4-1.9.2-2.4-1-2.6-1.9-1.7h-2.1l-2.7-1.8-1.7.8.2-2.1-3.8 4.3h-1.6l-4-5.1 1.6-2.9.6.9 2.7-.6.7 1.7 3.6-4.7.9-.2-.4-1.5-1.5 1.4-1.1-.5-.9-2-.3-.2-1.8-.8-1.5 1.3-2.1-1.6v1.2c-.1 0-2.1.5-2.1.5l1-5.2-.5-6.5 2.2.2 1.7-2.3 2.2 1.1 1.6-.8.4-2.1-1-1.2 3.2-2.4.4-1.6 4.4-4.2.6-1.8-1.1-1.6-1.2.5-1.3-1 .7-.9.7.5 2.5-3.9 1.6-.6 1.1-2.4-1.1-2 .8-2 2.3.9.8-1.8-1-1 .8-1.7-1.4.6-.4-1.2 1.6-3.3-.9-1.4-.8-.9-1.7.9.8 2.5-3-3.9-1.4-.4.5-1.1-3.7-4.2 3.6-4.4 3.9 4.5 2.4.8-.6 1.7 3.2 3.2-1.8 1.7.6.7 1 .2.9-1.2 2.1 1.2-.7 1.1 1.1 1-1.1 1.6.7.7 3.8-4.3-1-1.8 2.4-2 .8.6 1.4-1.3-1.4-.5-3.7-5.8.7-5.1-1.6-1.1Zm7.3 10 .5 2.5 2.1-1.1-.4-2-.6.2z"/><path id="CH-GE" d="m24.5 336.6 2 2.2 6.1 3.1 2.3-4.4 3 1.3.5 2.1-1.6 2.1 2.5 4.1h2l1.9-2v1.4c.1 0 1.5-.2 1.5-.2v1.9l-1.6 3-5.2 3.2h-1.8c0-.1-5 4-5 4l.2 2-6.7 4.4-3.7-.5-.2-1.4h-4.5l-1.7 2.6-.9-.9-3.8-.6-4 2.6 2.8-7.1.5.6.8-1.9-3.3-2.4 1.7-3.2 1.3.3-.2-1.1 1.1.4 3.7-3 1.5 1.1 1.6-2.2 1.2.5 1.6-.9 1.9 1.4 2.3-2-2.5-5.4 2-1.6.6-3.6Zm6-5 .3.9h-1.5c0 .1.7-.9.7-.9v-.3h.3l.2.2Zm5.9 3-3.9-1.9-2.8-2.6 1.1-1 6.7 3.4-1 2.1Z"/><path id="CH-GL" d="m342.2 199.3 6.9 7.2 7.4-.2 6 1.1v9.1l-1.6 2.4-3.9 2.2 4.6 2.1 3-1.6 3.6 2.9.9 3.4-1.6 8 1.6 2-.2 2.8-2.4 1.6-2.6 3.8-1.8.9-3.8-.4.4.9-1.8 2-3.2 1.9-1.9-3.5-3.6-.5-1.8 1.4v2.6l-4.1 6.2-8.9 2.3-1.4-.4-.2-2-4-.2.4-2.4-1-2.3 9.3-5.6-.4-3.9-2-3.1 3.2-1.3-.9-1.7 1.7-3.5-2.8-1.2-1.5-2.5 1-.9-2.3-2.1-1-2.5-1.9-1 1.2-.6v-1.8h2.1l2.9-1.8 2.9-5.8-2.3-1 1.8-1.9-.4-5.2 4.2-6.1Z"/><path id="CH-GR" d="m402.6 218.1.7 1.2 4.9-2.1 3.2 1.7 1.3-1.3 3.9-.5 1 1.2 2.1.3 1.1 1.6 3.6 1.1 3.4-.3 5.9 4.1 2.6-1.6 2.1.4-.8 1.7 1.9 1.6.4 1.7-2.3 4.1.9.9-.3 3.7 6.8 3.6 4.2-.4 1.5 2.2h3.1c0 .1 3.7 4.2 3.7 4.2l.4 2.2h3.5c0 .1 2.1 3.3 2.1 3.3l1.9-1.1 5.1-.4 2.8-2.6h4.1l.4-2.9-1-2 1.8-5.6 6 1.9 2.1-.9-.9-3.6 2.1-1 2.2-5.8 2.7-.2 1.5-1.5 1.4.5 3.1 3.4v2.9l3.1.7 3.8 2.4-1.5 7.5-1.2 1.2.6 5.9-1.6 3.2v2.4l-1.8 3-2.2.8 2.2 3 .4 2.5-4.7 3.7 1.8 2.4-.2 1.3-3.3 4.1 1.8 7.9 4.9-.7 4.9 4.4-1.9 11-1.4.4-.8 1.5-4-3.2-2.4 1-4.8-1.9-1.4 2.2-1.4-1.3-1.8.6-1.7-.6-1-3.3-2.1-1-1.6.9-.8-.8-.5-2.4 2-3.1-2.2-3.8-2.8 2.6-2.8-1.4-6.5 3.3-3.1-.8-.2 4.6-2.2 1.1v1.9l-4 3.7 1.1 3.2-1.3 1.9.6 1.3-.6 3.2 1.2 2.2-1.5 3.2 1.9.8.5 2 1.7-.2.4 1.1h1.9l3.4-1.6 1.5.5.6 2.5 1.2-.7.6.8-.3 3.5-2.4.4-1.3 1.3v2.6l-2.3 1.5-.3 3.2 1.2 2.9 4.3 3.5 2.3 5.6-4.6 4.8-4.8-.4-2.3 1.7-2.8-1.9 1.7-3.1-.6-2.5-6-2.8-.7-1.2.8-3.7-2.2-1.4 1.7-4.6-3.5-2-.9-2.3-2.6.7-.8 1.3-2.1-2.4-3.8 2.8-3.9.2-6.6 4.3-3.5-2.6-1 .2-1.3 1.2-.8 3 .8 1.5-1.3 3.3H417l-1.6-1.4-4.6 2.6-2.8-1.4h-2.7l-2.8-2-1 .8-3.2-3.9-2.1-6.4-4-1.2.6-3.1-1.5-4.3 1.1-9.2-2.1-1.3 1.5-.6.5-3.2-3.1 1.6-2.7 5.2-4-2.8-.7-1.6.7-1.4-1.3-.9-9.4 2.1-.5 6.3-2.8 1.4v1l.5 2.1 3 2.4-.3 3.3.8 1.1-1 2.5 2.3 2.6-.4 3 .7 1.4-1.7 2.2.2 2.4-3.5 4.8-.4 5.2-3.1.2-.2 2.7-2 1.5-.7 4.1-1.5 1.8h-2l-2.6-1.6-2.2-3.5-3.2-1.9-1.1-7.4-2.5-4.8 2.4-3.5-1.2-2.1.3-1.6.4-1.1 1.9-.8.8-3.8-.6-5.1 1.5-1-1.5-3.4.6-4.5-1.2-2.4-3.9-.6-2.9-5-.4-6.1 2.6-6.2-1-2-3.2-1.8-4.7 1.4-1-4.7-1.2 2.2-2.1-.8-1.9 1.3 1.1 2.9-.6 1.3-7.3 3.9-1.3.2-.3-1.4-3.2 1.2-5.3-1.9-1.4.6-1.3-.8-1.3.9-2-1.6-2.1.3V288l-3-2.9.3-2.5 2.6-2.4-.4-4.4 2.4-1.6 1.4.6 4.2-3 .2-2.9 1.8-1.3 1.9 2.6 3.4-1.4.6-4.1 1.7-.7-.6-4 1.9-.3 3.5-3.1 4 .2.2 2 1.4.4 8.9-2.3 4.2-6.2v-2.6l1.7-1.4 3.6.5 1.9 3.5 3.2-1.9 1.8-2-.4-.9 3.8.4 1.8-.9 2.6-3.8 2.4-1.6 2 2.1 4.6-.5.9.8 10.2 1.4 4.3 3.1.6-2.1 1.5-.4v-1.9l2.2-2-1-.5v-1.6c.1 0 2.8-4.6 2.8-4.6l1.5-.5V231l3-.9-7.6-12.1.7-.6.4 1.2.8-1.2 5.1-1.4 1.6 1.4Z"/><path id="CH-JU" d="m124.9 146.5 4.4 1.8 4.4-1.2 1.4-1.3 4.7 2.3 3.4-.8-1.7 1.8-1.8 6.3 2.9 1.3 3.9-.6 1.2 2.9 4.2-2.1 5.2-1.1-.3 1.4 1.6.5 1.8 2.3h2c0 .1.9.2.9.2l.5 1.7 2.8 1.5-.3 2.2 2.7.2 3.1 1.5 6.7-.3-.2 1.2 1.9.8v2l1.4.4-2.7 3.8h3.3l-7 3.4-12.6-2.1-4.7 1.6-2.4 2.9-3.6.5-8-.7-.5-1.1-4.6.2.5 3.1-2.1.8-.7 1.6 1.3 1.9-5.7.8-1.5 1-1.2-1.8-2.1.8v1.9c-.1 0-1.4.7-1.4.7l-2.6 5-3 .4-1.8 3.1-1.1-1.2H116l-.4-1-1.2.5-1.3 2.4-5.1 3.1-1.3-3.9-1.1 1.4h-.4c0 .1-1.9-.8-1.9-.8l3.6-2.1.7-2.5 8.3-6.9-1.3-7.2 5.9-1.2 2.1-3-.6-1.8 3.9-.4 1.7-2.6-1.2-.7-.2-2.4-3.6-1.7-2.4 1.5-7.8 1.2-2.1-.6-2.7 1.1.6-3.4 3.2-2.3v-2.6l2.6-.3.3-4.4h2.1c0-.1 1.4-2.2 1.4-2.2l3.3-1.2-2.1-6.6 4.1-1.7 1.7.9Z"/><path id="CH-LU" d="m212.7 188.7 2.5 1 6.1-1.8 2.5 1.4 3.1-2.9-1.2-3.4 3.9-.2 1.1-.9 2.4 3.6v2.4l1.3.6 3.6-.9-.5-1.5h1.7c0 .1 1.8-1.2 1.8-1.2l1.1.5 1.1 2.5 1.9.5 5.2-1.8.3 2-2.2.4 2.4 2.7h.9c0-.1 2.1-.7 2.1-.7v-2.7l1.7-1.6.9-3.4h1.6c0 .1.9-2.1.9-2.1h1l4.4 2.4-.4 2 1.7 2.2.8 4.7 4.7 11.3 3.5 1.2 2-.3.7 2.9 3.3-1.1.5 2.4-3.7 2.2-3.2 5.7 1.2.9 4.4-.6 8.1 6.8-.6 2.6-4.3 1.3.2-1.9-4.8-1.3v2.9c.1 0-4.5.2-4.5.2l-.4-3.2-1.7-.3-3.7 4.9-1.7-1.6-3.2.8-2.5-.6-2.2 1.9-1.9-1-1.1 2 1.2 1.3-3.1.9-1.6-.7-4 2.1 1.4 3.3-3.2 2.4-2.6 4.9-.3-2.5-1.5-.7-2.6 2.4-.5 5.5-2.7 4.1 2.4 4.5-1.7 3.3-3-.2-4 2.3-1.2-.5-3.1-4.3-8.4-6.4v-3.1l-1.4-1.2v-1.7c-.1 0 2.7-3.6 2.7-3.6l-1.7-2 2.6-2.7h2.5l1.7-2.5.3-2.1 1.5-1.2.7-2.1.3-3.7h-2.5l-.9-1.1-2.5.7-.9-3.5-2.7-3 1.4-6.7-1.5-4.9 2.1-1.6.4-1.9-1.4-2-.7-5-4.3-8.8Z"/><path id="CH-NE" d="m105.8 200.5 2.9 5.6-2.4 7.5 7-4.5.8.6 10.2-2.9 1.1.4-1.8 2.1.6 1.4 1.3-.9 4 2.1 1.2 1.7-1.1 1.6 1.1 2.7-5.9 4.5-.9 4 1.8 4.3-4.1-1.2-8.1 5.5-3.6 4.4-3.4 2.6-9.5 9-2.7-2.8-2.5.2.8-4.2-2.6-1.8.4-4.9-8 4.2-2.2 3.6-3.2.8h-1.4l-6.8 4.3-4.7 1.6-2.5-.9.4-6.1-3.5-6 7.2-7.4.9 1.3 14.2-5.2 3-4.8 6.5-3.7-3-2.6 1.6-1.3-.4-1.1 2.5-1.6h1.7v-2.7l7-3.4 5.9-5.8h.4Z"/><path id="CH-NW" d="m256.6 231.8-1.2-1.3 1.1-2 1.9 1 2.2-1.9 2.5.6 3.2-.8 1.7 1.6 3.7-4.9 1.7.3.4 3.2 4.6-.2v-2.9c-.1 0 4.7 1.3 4.7 1.3l-.2 1.9-.3 2.1 3.3 1.2 5.3-.5 3.1-1.8.3 1.3-2.1 3.1.4 3.7h-1.6v2l-4.6 2.3-1.9-.7-.6 1.7-2.4 1.6 1.1.3 1 2-1.1 1.4.3 3.4-5.7.4-.8-2.9-4.2 3.5 1.1-2.9-.5-1.2-1 .2.3 9.1 1.6.6-.3 1.3 1.4 1.4 2.4 1 .8 2.1-3.5.7-2.9-2.5-5.2-5.2 1.5-1.2-.7-8 1.6-5.9-.3-2.4-3.4.8-2.3-1.5 2.3-2.9-.3-3.9-5.5-.6-3 1.3Z"/><path id="CH-OW" d="m274.9 264 3.5-.7-.8-2.1-2.4-1-1.4-1.4.3-1.3-1.6-.6-.3-9.1 1-.2.5 1.2-1.1 2.9 4.2-3.5.8 2.9 5.7-.4 3 .3.9 1.2-2 1.7-.6 4.9-2 .5.9.8.9-.5-.3 1.4 1.4 2.6-4.7 1.4v-1.1l-1.1-.2-2.6-.4-2 1.5-.2-1Zm-18.3-32.2 3-1.3 5.5.6.3 3.9-2.3 2.9 2.3 1.5 3.4-.8.3 2.4-1.6 5.9.7 8-1.5 1.2 5.2 5.2-3.6 1.1-5.9 4.4-1.5-.2-1-1.7-2.2-1-.8 1.5-4.7-1.4-4.8 2.4-2.6-2.4-2.2-.5-1.4-2.2h-4.5c0-.1 1.7-3.4 1.7-3.4l-2.4-4.5 2.7-4.1.5-5.5 2.6-2.4 1.5.7.3 2.5 2.6-4.9 3.2-2.4-1.4-3.3 4-2.1 1.6.7 3.1-.9Z"/><path id="CH-SG" d="M381.2 144.9v-.5h-.1v.5Zm17-6.6-7 7.8v1.4l1.7 1.3 8.4-6.4 5.9 9.7.8.2.8-1.2 1.1 1.6 4.2 1.2-1.5 3.3.7 4.3 2.4 2.5v1.5l-2.1 2.3-3.3.3-2.1 2.4-2.3 6.3-2.9 2.1-1.2 3.2-1.7 1.5-4.9 14.4 2.6 7.2 1.1 6.7-.8 1.8-4.4 3.3.3 1.9 7.6 12.1-2.9.9v2.3l-1.6.5-2.7 4.6v1.6c-.1 0 .9.5.9.5l-2.2 2v1.9l-1.5.4-.6 2.1-4.3-3.1-10.2-1.4-.9-.8-4.6.5-2-2.1.2-2.8-1.6-2 1.6-8-.9-3.4-3.6-2.9-3 1.6-4.6-2.1 3.9-2.2 1.6-2.4v-9.1l-6-1.1-7.4.2-6.9-7.2-3.9-7-13.7 1.5-2.4-.4-1.8-1.6-1.4-3.1.9-1.3 5.3-.7 1.6 1.1.7-1.3 6.6-1.1 1-1.1.7-2.3-1.6-1.3 1.6-.6 1-2.1 1.8-.3 1.1-2.1-1.5-5.3-1.3-.2-1.8-3.6 3.1-2.5.6-3.2 1.4-.4v-2.7l2.5-.6 1.2-1.3 1.6 1v-1.1c.1 0 2.7-.6 2.7-.6l-3.8-2.4.2-1.3-2.1-.8-.5-1.3 1-1.5 3.3-.9 1.4 1.3 3-1.3.8 2.1 2.5-.3.7.8 4-1.3 1.2-2.6.8 1.5.7-.5.4 1 2.9.4.4 1.6 1.2-.8 2.8 1.5h1.5l1.9-1.3 1.9.9 2.5-2.2-.4-1.6-1 .5 1-1.8-1.5-1-1.4 1.4-2.5-.8 1.3.3.2-1.7 2.2-.9 1.2.6.6-1.5h2.3l.3 1.6 1.5.3-2.2 2.9h4c0 .1-.7 2.6-.7 2.6l1.5-.3 1.8 1.9 1-2.8 1.3-.3 9.5-10 .9 1.2Zm-1.6 29.1 1.1-4.1 3.7-.8.3 1.3 3.8-3.1 2.8-.5-1.8-1.9 3.2-1.9 1.3-1.1-3.7-2.3-6.8-1.6-.8 1.1.5 1.3-8.6 3.7-1.9-.5-.4 3.4-2.4 1.7-2 .3-2.5-1.1-7.7 2.1-4-1-3.9.7-2 5.3-2.4.4.5 1.5 1.3-.4-.8 1.4.7 1.3 1.8-.5 1.2 1.7-2.6 1.9 1.6 4.7-2 2.5 3.5 1.9 2.2.2 1.9-1 2.6 2 1.2-.3 1.5 2.1 2.1-1 4.6 2.9 6.1-2.8 2.6-2.2 2.9-3.9 1.7-9.6-.4-3.6Z"/><path id="CH-SH" d="M296.6 129.2h.3l-4.2 8.5-2.4-4.8 2.8-2.8 1.6.9 2-1.8Zm24.1-20-.7.5 1.5 1.9 2.7.2.7 1.4h2.5l.2 1.6-2.5-.3.8.6-.9 1.4 1.8 1.2 1 3.5-2.9.6.7-1.5-2.6-2.3-2.9-.6-1.2.6.3-2.5 1.3-.7-1.9-1.8-2.5-.3v-1.9l2.3-1.7.9.2-.2-1.2 1.2-.5zm-26-11.7 4.6.2.2 5.2 1.1 1.4 2.6-2.4-.9-2.4 1.1-1.9 1.2 1.9 2.1.6 1.1 4.7 2.2-1.6 1.5.7 1.4 2.2-2.1.6-1 2.7 2.6 2-1 3.7-1.1.3-1.6-3.6-2 .8-2.2-.8-.2 1.1 1.3.9-1.9 1.4.6 1.3-2-1.5-2.1.4v2.3c.1 0-1.7.6-1.7.6l.4 2.3-1.2-1.8-3 1.7-2.1-1.3-2 .9v1.2l-.8-1-.7.5.3 2.4-3.9-.2v.9l-2.1-1.4v1.8c.1 0-1.2-1.3-1.2-1.3l.5-1.6-2.5.4-2.3-2h-1.3l-.7-1.2 1.7-1.6-1.7-2.4 4.1-4h1.2l-.5-2.9 2.6-3.7 4.1-2.1 1 .8.6-1.3 2.9-1 1.4 1.2 1.2-.6v-1.5c-.1 0-1.5-.6-1.5-.6l.4-2.2 1.2 1.2Z"/><path id="CH-SO" d="M197.5 201h.1l-.5 1.6h-1.6l.4-1.6 1.3-.5zm-30.1-45.8h1.8l1.4 1.5.6 1.3-.7 1.9-3.3.9-3.9-.5h-.9c0-.1.6-2.8.6-2.8zm59.8 3.6-1.7-3.3 1-2.1 1.3-1.2.8.7 1.4 4.7-.2 1.1-.4-.9zm0 0 5.1 2.2.5 2.2h1.4v4.5l-1.8 1.9-.6 3.3-6.1 3.2-.2-2.5-3.1-.2-1.4-1.4-2 5.1-3 .7-2.3 5.3-1.6 1.2-1.4.8-1.4-1.2-1.8 2-1.2-1.9-2 1.4h-2.6l-5.3-5.7-3.5 1.8-8 1.2 1.5 1.6.2 3.3 2.6 2.8h2.3l.9 4.4 2.5 1.1.2 4.3h-1.5l-1.5 3.2-3.2-1.2-3.4 1.4-.7-2-1.9-1.2-1.8 1.2h-2.5l.7 2-2 3.6-5.4 2.9 1.5 3.7-3.7 1.7-.9-4.2-4.7 1.4-2.1-4.8 1.7-.7 2 1.2 3.8-.9-1.9-2 .4-.8 1.5-.5 1.2-2 2.8.4 2.4-2.7-2-.7-.3-2.6-3 .2-.2 1.4-1.7-.5v1.2l-2.1 2.2-3.2.4v-.9c-.1 0 .8-.2.8-.2l-1.5-3.3-1.4-1.4-1.2.7-1.5-4.2 2.4-.3 6-3.5v-2.1c.1 0 5.7-1.9 5.7-1.9l2-3.1 5.2-1.6 2.8-4.6 1.5-1.2-2.2-2.6-1.5-.4v-2l-1.8-.7.2-1.2-6.7.3-3.1-1.5.8-3.6h3.7l.3 1.9 2.6.9 1.8-.6 1.3-2.4-.6-1.4 6-.6-1.3-1.1v-2.5l1.5 1.3 3.7-.7.9-4.9-2.2-1.1.3-3.1 3.7 1.1 1.7-.8-.8-.7.6-.7h1.3c0-.1.4 1.7.4 1.7l3.4.9.9 1.4-1.1 2.6-1.4.8-.7 5-2 1.5h-3.3v4.5l.9.4.3 2.2 6.1-.8 3.2.6 1.5 3 3 1.8 2.8-.6 1-3.2 2.7-.4 1.2-1.7 4.3-1.5-1-2 1.5-1.6 2.8 1.2 5.9-3.8ZM177.1 146l2.6.6.5 1.1-1 2.8.3 2.1-4.4.4-3.6 1.5-1.6-1.9 1.4-2-2.9-1.5-1 .4 1.6-2.8 4.8 2.8 3.4-2.6v-.9Z"/><path id="CH-SZ" d="m320.5 191.8 1.8 1.6 2.4.4 13.7-1.5 3.9 7-4.2 6.1.4 5.2-1.8 1.9 2.3 1-2.9 5.8-2.9 1.8H331v1.8l-1.1.6 1.9 1 1 2.5 2.3 2.1-1 .9 1.5 2.5 2.8 1.2-1.7 3.5.9 1.7-3.2 1.3-6.7 4h-1.5l-.9 1.4-.5-4.5-1.3.9-1-4.5-1.8-1-2.5 1.7-1.9-1.7-6.9 3.9-1.7-4.9-2.6.5-5.1-1.5-1.9.3-.2-5.6-2.1-1-1.3.5-3.1 1.8-5.3.5-3.3-1.2.3-2.1 4.3-1.3.6-2.6-8.1-6.8-4.4.6-1.2-.9 3.2-5.7 3.7-2.2.4.2 1.9.2 2.2 1.9 3.3 1.9 4.3-.9.4 2 4.7-2.1 3.5.2 2.3-3.4 1.4-.2.9-1.3.4-2.9 1.8-1.5-.9-2-1.3-2.6 2.6-3.7 9.7-3.2 1.8.3Z"/><path id="CH-TG" d="m401.3 142.4-8.4 6.4-1.7-1.3v-1.4l7-7.8 3.1 4Zm-92.3-27 1.3-.3 1.1-.3 3.4.7 4.1 2.4 1.2-.6 2.9.6 2.6 2.3-.7 1.5 2.9-.6 2.9 1 13.1-6.1 7.4 1.1 3.4 1.9 3.8.2 1.6 1.7 1.8-.2 30.7 15.1 4.6 1.2-9.5 10-1.3.3-1 2.8-1.8-1.9-1.5.3.7-2.5h-4c0-.1 2.2-3.1 2.2-3.1l-1.5-.3-.3-1.6h-2.3l-.6 1.4-1.2-.6-2.2.9-.2 1.7-1.3-.3 2.5.8 1.4-1.4 1.5 1-1 1.8 1-.5.4 1.6-2.5 2.2-1.9-.9-1.9 1.4h-1.5l-2.8-1.6-1.2.8-.4-1.6-2.9-.4-.4-1-.7.5-.8-1.5-1.2 2.6-4 1.3-.7-.8-2.5.3-.8-2.1-3 1.3-1.4-1.3-3.3.9-1 1.5.5 1.3 2.1.8-.2 1.3 3.8 2.4-2.6.6v1.1c-.1 0-1.7-1-1.7-1l-1.2 1.3-2.5.6v2.7l-1.4.4-.6 3.2-3.1 2.5-2.1-3.7-2.3-.6 1-2-.3-3h1.4l1.1-.4-2.8-.5v-1.9l-2.6-3.4.2-1.7 1.3-.5v-6.6l-6.2-1.4-1.4-3.5 2.5-1.2-2.2-1.6-2.6.4-.2-1.9-6.4-1.5-.9-2.7.9-2.2 6.2 3.5 2.5-7.4-2.4-.8v-2.1l-1.7-.1-.8 2.2-3.8 2.2-4.3-.6-2.1-1.2-2.9-5.8 3-1.7 1.5.9Zm72 29v.5c.1 0 0-.5 0-.5"/><path id="CH-TI" d="m306.1 294.7 2.1-.3 2 1.6 1.3-.9 1.3.8 2.7-.4 4 1.7 3.2-1.2.3 1.4 1.3-.2 7.3-3.9.6-1.3-1.1-2.9 1.9-1.3 2.1.8 1.2-2.2 1 4.7 4.7-1.4 3.2 1.8 1 2-2.6 6.2.4 6.1 2.9 5 3.9.6 1.2 2.4-.6 4.5 1.5 3.4-1.5 1 .6 5.1-.8 3.9-2 .8-.4 1.1-.3 1.6 1.2 2.1-2.4 3.5 2.5 4.8 1.1 7.4 3.2 1.9 2.2 3.5 2.6 1.6-4.8 5.4-5.2 2.6 1.7 5.2-1.3 3.6-3 .4-3.4 1.9-1.2 2.2 2.4 7-1.8.7-.6 1.3h-1.2l-.5 1.7 2.6 1.5.5 4.9 4.4 1.2.9 1.6.8-.2v2.1l1.2-.5.4.7-4.4 4.7v2.1l-2.1 4.4.5 1.3h-5c0-.1.7-2.3.7-2.3l-1.5-.8-2.3.4-.7-1.3-5 1.9.3-2.2 3.4-3.5-1.1-.2-.6-3.3-1-.8.3-1.7-2.9-4.5v-3.6l-3.1-.7-4.2-4.4-5.2-.3 1.7-4.1 3.9-4.1-.3-1.3 1.2.4 1-1.7v-2.4l-5.1-4.2-2.6 1.1-2.7-1.4-1.8-3-2.6 2.9-2.9.3-3.8-1.8-1.1-1.6-3.8.2-1.7-3 .7-2.3-3.2-1.4-1.1-3.2-2.8-2.5-.8-2.9-6.6-2.2-.9-2-2-.7v-1.2c-.1 0 1.3-1.5 1.3-1.5l-3.2-5.4 4.2-5.6-.2-3.3.8-1.4-.9-3.9 1.1-1.4-1.6-5.9 1.4-1.5-2.9-3.4-6.2 1.9.9-6.4 5.6-.5 3.8-5.1 4.6-1.9-.7-3.3.9-3.1 1.9-1.5 1 .8 2.9-.3 1.8 1.6 3.4-.5 1.7 2.1 4.6-2.3Zm32.5 95-1.1-.4-.8 3.1 1.7.5.2-3.3Z"/><path id="CH-UR" d="m294.3 228.8 1.3-.5 2.1 1 .2 5.6 1.9-.3 5.1 1.5 2.6-.5 1.7 4.9 6.9-3.9 1.9 1.7 2.5-1.7 1.8 1 1 4.5 1.3-.9.5 4.5.9-1.4h1.5l6.7-4.1 2 3.1.4 3.9-9.3 5.6 1 2.3-.4 2.4-3.5 3.1-1.9.3.6 4-1.7.7-.6 4.1-3.4 1.4-1.9-2.6-1.8 1.3-.2 2.9-4.2 3-1.4-.6-2.4 1.6.4 4.4-2.6 2.4-.3 2.5 3 2.9v5.9l-4.6 2.3-1.7-2.1-3.4.5-1.8-1.5-2.9.3-1-.8-1.9 1.5-.9 3 .7 3.3-4.6 1.9-5.3-2.5-2.1-5.6-.2-3.6 1.6-4.3v-3.5l-1.3-.6-1.4-3.5.2-2v-.8l3.2 1 2.7-.4.3-3.4-.8-.6.3-2.6-1-1.1-.2-2.6 1-1.7 4.7-1.4-1.4-2.6.3-1.4-.9.5-.9-.8 2-.5.6-4.9 2-1.7-.9-1.2-3-.3-.3-3.4 1.1-1.4-1-2-1.1-.3 2.4-1.6.6-1.7 1.9.7 4.6-2.3v-1.9h1.5l-.4-3.7 2.1-3.1-.3-1.3Z"/><path id="CH-VD" d="m61.4 251.1 2.5.9 4.7-1.6 6.8-4.3h1.4l3.2-.8 2.2-3.6 8-4.2-.4 4.9 2.6 1.8-.8 4.2 2.5-.2 2.7 2.8-4.2 4.1 4 4.3.7-.4-.8 2.2.4-.6 1.9 1.6.7-.4 2.2 2 3.8-2.4 2.1 1.9 3.4-1.2.2.7 2.2-4.1-1.2-.9-.9 1.2-.8-.4.6-1.1-.8-2.3 2.9-4.2-1.9-2.1-2.1.6 3-1.5-2.7-1.9-3.3-4.2 3.4-2.6 3.7 4.2-.5 1.1 1.4.4 3 3.9-.8-2.5 1.7-.9.8.9.9 1.4-1.6 3.3.4 1.2 1.4-.6-.8 1.7 1 1-.8 1.8-2.3-.9-.8 2 1.1 2-1.1 2.4-1.6.6-2.5 3.9-.7-.5-.7.9 1.3 1 1.2-.5 1.1 1.6-.6 1.8-4.4 4.2-.4 1.6-3.2 2.4 1 1.2-.4 2.1-1.6.8-2.2-1.1-1.7 2.3-2.2-.2.5 6.5-1 5.2 2-.5v-1.2c.1 0 2.2 1.6 2.2 1.6l1.5-1.3 1.8.8.3.2.9 2 1.1.5 1.5-1.4.4 1.5-.9.2-3.6 4.7-.7-1.7-2.7.6-.6-.9-1.6 2.9 4 5.1h1.6l3.8-4.3-.2 2.1 1.7-.8 2.7 1.9h2.1l1.9 1.6 1 2.6-.2 2.4 1.4 1.9-.9 1.7 3.8-1.5.4-2.1 4.4-4.2h4.3l2.5-1.7 2.7-4.9h1.7l3.3-2.9 1.7 2.2 3.1-3.4 1.3 5.9-.6 2.8-1.2.8.4 1.1-1.3.2.9 5.2-1.2 2h-3c0 .1-.3 1.2-.3 1.2l1.9 2.9-1.8 6h1.7l.8 2.6 1.5.2-1.1.7.3 4.4-3.6 4 .9 2.4-1.1.9.2 2-1.2.3-4.1 4.9-1.8.2-.3 2-1.5 1.8-8.3 4-2.3-3-2.8-7.5-2.5-2.5-.6-2.5-2.5-2.1-.7-5.1-1.4-1.6-2.5-.2-1.4-2.1.3-3.6-7.1-8-15.2-4.4-18-.4-10.2 6.3-18.7 8.7-1.7 3.1-6.7-3.4-1.1 1 2.8 2.6 3.9 1.9-1.4 3-2.3 4.4-6.1-3.1-2-2.2 4.9-7.8-1.1-1.9-1.1.2-6.1-5.1-3.4-1.2 2.4-4.2-1.5-3 2.6-3 1.9-4.6 2.7-3.3.9.2 1.2-2.5-5.1-5 7.6-6.2 11.4-12 7.7-3.9 2-1.4v-1l1.9-.6.8-2.3 4.9-2.4 2.1-4.1-2.5-2-.5-1.7 1-.6.3-2.8 1.9-3.1Zm38.8 18.4-1.9.2-.5 1.3h2.3c0 .1 2.1-1.2 2.1-1.2l3.9 1.7.4-.5 1.6-3.4-2.3-2.2-.5-.8-.4-1h-.5l-3.5 5.8-.7.2Zm-2.7-1.7-1.1-.3-.4-.3-2.7 3.2 1.5 2.3 1-.6.7-.8 1-3.4Zm-68.2 64.9h1.5c0-.1-.5-1.3-.5-1.3H30v.3zm97.2-101.8 1.5 1.1-.7 5.1 3.7 5.8-.9 1.2-2.4 2 1 1.8-3.8 4.3-.7-.7 1.1-1.6-1.1-1 .7-1.1-2.1-1.2-.9 1.2-1-.2-.6-.7 1.8-1.7-3.2-3.2.6-1.7-2.4-.8-3.9-4.5 8.1-5.5 4.1 1.2 1 .3Z"/><path id="CH-VS" d="m276.6 283 1.3.6v3.5l-1.6 4.3.2 3.6 2.1 5.6 5.3 2.5-3.8 5.1-5.6.5-.9 6.4-2.6.3-4.3 4.1-2.1.2-1.7 2.7 3 1.4v2.1l-3.6 3.3h-2.4v2.9l-4.2 1.8-1.6 4.2-4.7 1.9-3.1-.9-6.9 6.8 3.7 1.7.4 1.8 2.8 2.1 2.9 7-1.7 2.5.3 3.2-4.1 2.1-1.2 3.1-8 1.9-1.2 4.3 1.5 4.5-2.5 1.8.5 1.2-.8 2.1h-1.2l-1.2 2.5-1.3-.6-7.6.4-1.7 2.9-1.5.6-.7 8.6-1 .6-4.6-1.6-2.4 1.4-3.4-3.1-1.9-.3-1.8 2.5h-1.4l-1.5-1.7v-2.5l-2.9-1.2-2-3.2-2.8 1.3h-5.4l-1.5-2.8-2.6.2-1 1.2v3.5c-.1 0-4.9-.9-4.9-.9l-2.9 2.3v2.1l-2.5.5-3.2 3.2h-2l-1.7 2.3-4.7-2.7-2.5.6-3.1-1.7-3.9 5.2-1-.7-3.6.8-2.8 4.6-1.9-.8-2-2.5-4.2 3.2h-1.8l-.9-2.9-5.3-7.2-.7-4.9-3-2.1 1.6-1.6-1.5-1.5v-1.5c-.1 0-2.9-1.3-2.9-1.3l-.5-2.4-2-1.8-1.3-3.2-1.5-.4v-1.4h-1.7l-3.5 3.3-1.9-1.4 2-3.5-.8-3.4 1.6-4.6-6.9-1.3-2.1.6-2.1-1.3-.5-4.1 2.1-3-.9-3.4 1.9-4.4 3.7-3.8 1.1-4-.6-1.6h-1.4l-2-1.8-.3-1.5-2.8-1.6V335l-1.7-.7-1.5-3.3.6-1.4 1.8-.5 1.5-1.9-.4-1.7 2-5.9 7.1 8-.3 3.6 1.4 2.1 2.5.2 1.4 1.6.7 5.1 2.5 2.1.6 2.5 2.5 2.5 2.8 7.5 2.3 3 8.3-4 1.5-1.8.3-2 1.8-.2 4.1-4.9 1.2-.3-.2-2 1.1-.9-.9-2.4 3.6-4h3.4l1.2-1.4v-3.2l3.8-1.1 1.4-1.5-.2 3.8.8 1.1 4.3-1 5-4.1 4.3-1.6 2.6 1.5 1.9-1.3.9 2.3 5.6-1.2 1.8-1.8-3-1.8.5-1.5 4.7-1.2 2.1.9 1.6-3.9 1.9-1.5 9.9 4.8 14.2-10.1 3.5.3 5.2-2.4 2-2.5 3-1.3.4-1.4-1.1-2.5 5.5-3.7 11.3 2.6 1.4 1.5 5.2.9.7 1.8 8.5-1.5 5.1-2.6 1.3-2 3.8-1.6 1.8-2.6-.6-2.2 1.2-5.6 2.5-1.9.5-1.5 1.3.2Z"/><path id="CH-ZG" d="m276.3 187 1.4 4.2 2.2-.2 4.6 2.8 3.3-1.9 4.6-.5 4.6 2.4 1 5.5 6.1.4.8 1.8 2.8-.7.9 2-1.8 1.5-.4 2.9-.9 1.3-1.4.2-2.3 3.4-3.5-.2-4.7 2.1-.4-2-4.3.9-3.3-1.9v-2.1l-1.4-2.1-2.7 2.1-.4-.2-.5-2.4-3.3 1.1-.7-2.9.4-3.9-1.5-2.1.4-2.9-1.2-4.9 1.6-3.9Z"/><path id="CH-ZH" d="m304.4 116.2 2.9 5.8 2.1 1.2 4.3.6 3.8-2.1.8-2.2h1.7v2.3l2.4.8-2.5 7.4-6.2-3.5-.9 2.2.9 2.7 6.4 1.5.2 1.9 2.6-.4 2.2 1.6-2.5 1.2 1.4 3.5 6.2 1.4v6.6l-1.2.5-.2 1.7 2.6 3.4v1.9l2.7.5-1.1.5h-1.4l.3 3-1 2 2.3.6 2.1 3.7 1.8 3.6 1.3.2 1.5 5.3-1.1 2.1-1.8.3-1 2.1-1.6.6 1.6 1.3-.7 2.3-1 1.1-6.6 1.1-.7 1.3-1.6-1.1-5.3.7-.9 1.2 1.4 3.1-1.8-.3-9.7 3.2-2.6 3.7 1.3 2.6-2.8.7-.8-1.8-6.1-.4-1-5.5-4.6-2.4-4.6.5-3.3 1.9-4.6-2.8-2.2.2-1.4-4.2-2.2-6.5 1 .3 3.5-2.1 2.9-5.3-2.2 1.3H277c0-.1.3-1.9.3-1.9l-1.4-1.5.4-3.9-1.2-1.2-.3-2.1-2-1.6 1.6-3.1-.2-1.6-1.4-.8 1.2-.4-.4-1.6.8-.8-2.4-2.5 1-.8v-1.5h-1.3l-.7-3.4.4-1.3 1.8-.5.4-2.2h1.2c0 .1 2.5-3.2 2.5-3.2l.4-3.6 1.6.5 6.5-2.4-.5-1.3-2.4.7-1.2-2.8 1.2-.3 1.2-1.9 3.2-.4 1.1-2.5 2.3.4 3.4 2.2.6.9-1.4 1.8-2.8 2.8 2.4 4.8 4.2-8.5 1-1.6-1-4.5 1.4-1.5.6 1.3-.8.7.9.3 1.5-2-1.5-1.9-.4-2.3 1.8-.6V115c-.1 0 2-.4 2-.4l2 1.6Z"/></g></svg>