<svg xmlns="http://www.w3.org/2000/svg" xmlns:amcharts="http://amcharts.com/ammap" id="Layer_1" viewBox="0 0 512 512"><g id="_x3C_defs"><amcharts:ammap bottomLatitude="35.806" leftLongitude="25.664" projection="mercator" rightLongitude="44.82" topLatitude="42.1"/></g><g><path id="TR-01" d="m286.9 281.1-1.9 5.6-1.8 2.2 2 1-1.8 2.5 1.6 3.4-.7 2.3-1.8 1.8-3.5 1.8-1.4 2-.8 2.6-.3 2.8 1.5 6.6-.8 5.7-1.4 1.7.2 1.6-5.6 5.4h-3.1l-1 .6-.5 1.1.6-.3v.7-.9l.6-.3v1l1.2-.1v-.5c-.1 0 .5.5.5.5l-2 1.4-.5 2-1.9 1.3-3.2-.8-2.4 1.7-8.7-5.5-2.6-.4 1.3-.7v-.6c.1 0 1.8.1 1.8.1v-.7l.4.4.8-1.1 1.8.5.5-1-.4-4.3-.8-3.8-1.9-1.1h-1.1l-.6-1.5-1.4-.8v-1l1.3-1.2v-.8l-3.9-4.5-.4-2.3 1.7-1.3-.5-.9.6-.9 1-4.4 3.2.4 2.1-3.1 2.9-1.7 3.4 1.2.8-.2.8 1.1 4.5.3.8-1.3.8-5.9 2.1-.9 2.7-3 4.1-1.6 1.6-4.1 2.3-3.1 3.2-.9 4.1 4.1Z"/><path id="TR-02" d="m357.4 283.8 2.1-.7 1 1.8-1.1 2.8-1.5 1.6-1.9.4-.8.7-.8 2.3-1.4.6.5.4-.4 1.9h-1.3l-.8.7h1.6v1.6l-1.1.3v.9c-.1 0-.9.5-.9.5l-1.7.3.9 1.3-5.2 1.1-4.2 3.7-1.3.7-4.3.3-.7 1.1-1.2-.2-.5 1.3-2.4-1.3-3.5-1.5-4.8-.2-1.1-1.2-2.7.8-1.1-.5-.9-2.3-2.5-.3-.4-1.2.8-1.2.2-2 1.6-1.7v-2.9l2-1.2.9-1.7.5.6-.3 1.1 2-.5.7 1.6 1.3-.7 2.8.6 2.9-.6 2.5-2.3-.4-2.1-.8-1.2.2-.7 4.5-1.7 1-1.4.9-.3 2.6-.2 3.7 1.8.4.7 1.3.2 4.4 3 5.3-2.1.3-.9 3.2-2.2Z"/><path id="TR-03" d="m131.5 248.8 2 .4 1.3 3.1 1.8.9 2 2.1 1.1-2.5 5.1.6.6-1.3-1.9-1.3v-.7c-.1 0 1.4-.1 1.4-.1l2 .9.4-1 1.2-.2.7-2 .9-.6 2.4 1.7 2.2-.6 2.8 2.6.4 1.8 2.2.6 1.1 1.7.7 1.4 3.3.6.4.6-3.7.8.5.9-.3 3.5-2.1 4 .3 1.1 1.4 1.3-7.7 5-.8 2.4h-.8c0 .1-1.2-1.7-1.2-1.7l-1.6-1.3-3.5.6-2 1.9-2.3 1-1.9 3.4-3.7 2.4-3.4.9-4.3 4.7-2.5 1.2-2 2.5v2.2c.1 0-1.2 2.7-1.2 2.7l-4.9-.2-4.8-2.7-.9-1.9.2-1.8 3.3-3.1 1.3-2.1h2.8c0-.1 1.2-2.1 1.2-2.1l1.7-1.4-1.5-4.2-1.7-.7-.7-1.1h-1.1c0-.1-.9-1.1-.9-1.1h-1l-1.3-.9 2.9-3.9 1-.6-.6-2.5 2.5-2.1.4-1.6 1.3-.4 1.7-2.2 1.8-.7 1.5-2.5-.3-4.5 2.1-1.4h1.7l1.1-2.2Z"/><path id="TR-04" d="m445 226.4 14.9-3.6 4.7.7 2 .5 1.8 2.1.3 4.4h1.5c0-.1 1-1.8 1-1.8l1.1-.3 2.1 1.7 4.5.4 2.3 1.7h4l2.7.8 2.4-.3 3.4 1.5 2.4-.3.2 2.4-1.5 1.5.5 2.1-.7 1.1.3 1.9-3.4 1.4-1.5-1.5-2.3.6-1.9-.5-.9 1.1-4.3.7-1.9 3.1-2 1.8-2-.3-2.7-1.4-3.3-3.5-3.4-.2-2.9.9v5c-.1 0-2.7 2.1-2.7 2.1l-2 3.5-1.4.5-.2 1.8-3.3 1.5-3-.4v-4c-.1 0 .4-2.5.4-2.5l-2.6-5.8-.3-2.1h-2.2l-1-2.5-2.2-2.3 1-1.8 2.1-1.7.4-.9-1.8-1.9-3.4-1.7-1.2-2.7.7-.8 5.5-1.8Z"/><path id="TR-68" d="m220.4 255 .7.6 1.4-.6.5.7 1.6-.2 1 1.9v1.5l2.7 2.7 1.4.5 1.7-.3.7.6v2.4c-.1 0-1.1 1.8-1.1 1.8l.2 1.6 2.8 1.5 1.8 2.8.3 2.4 1 1-1.9 1.1-.5 3.7-2.1 3.1-1.3 1-2.8.7-2.1 2.1-16.4 3.9-1.8-2-1.1-2.4-2.5-1.8-.3-2.7-1.3-2.2 1.9-6 2-2.2.8-2.5 3.3-1.1h2.5l4.2-1.7 1.7-3.6-.8-2.6 1.1-1.6v-2.2c.1 0 .9-1.8.9-1.8Z"/><path id="TR-05" d="m252.4 186.7 3.2.4 1 1.3 3.4-.6 1.7.9.9-.7.4.8.9-.6 1 2.4 1.9 1-.2 1.1.5.7h2.7c0 .1.9 1 .9 1l3.2-.8 4.3 1.8 1-3.1.8-.3.6-1.3 3.5 1.3.2.7-1 1.2 3 1.2.3 1.1 2.1 1.1-2 1.8.2 1.5-.7 1.3-3.5.3.2.8 1.7.3-1.3 1.1-.6 1.4-3.4 1.6-.7 1-2.4-.9v-.6l-1-.5-3.5.2-.7 1.9-1.6 1v1.1c-.1 0-1.7 1-1.7 1l-3 .7-3 1.9-1.7.3 1.5-2.5-1.3-.9.8-1.8-.4-1.2 1.2-.5v-1.1l1-.7.4-1.3-1.5-2.7-2.9-.7v-2.3c.1 0-3.5-.3-3.5-.3l-2.5.7-2.4-1.8-.2-2.1 1.9-3.5-1.6-2 2-1.5v-1.4Z"/><path id="TR-06" d="m186.2 199.3 2.5-.2 4.6 2.7 3.1.7.4 1-.6 2.3h2.4l3.4 1.4 2.9 4.7 1.5-.7 1-1.6 1.6.3.7.9 2.2-.3 4.1.7.5.7-1.6.3v.9l-1.3 1.3.3.4-.7 1.5.4.8-.5 2.8.7 1-1.5 1.4-4.2 1.5-1.5 4.2-.8.3.3 2.2-2 3.3 3.5 3 .5 4.4-.3 1.6 1 .5 1.3 2-.7.7 1.6 1 1.8 3.1 1.9.7 2.8 2.4v.8c.1 0 2.7.2 2.7.2l.4.6-.7 1.8v2.2c-.1 0-1.2 1.6-1.2 1.6l.8 2.6-1.7 3.6-4.2 1.7h-2.5l-2.8-4.3-.8-4.6.2-3.7-3.7-2.3-1.4-1.8-.5-3.1 1.8-1-.4-1-2 .6-2.3 2.1-.8-.5.2-2.5-.4-.4-3.9 1.1-.8 1.2-.5 2.8-1.7.9-.2 2.5-2.1 1.3-2.5-1.2-1.5 2.1-.8.3-1.6-.2-2.2-1.7-1.6.7-.7-.8-2 2.7-2.6-.3-1.2-1.2-2.2-4.4-.7-.3.2-1.6 3.9-4.3v-.7l-1.8-.7.5-.9-.7-.9.4-2.6-1.1-.4.2-.9-1.2-1.2-.9-3.5-1.7-2.3 1-2.9.8-.7-1.3.2.5-.7-.4-.4-1.4.2-.9-.8-.8-1.2v-1.2l-1.2-.5.4-1.2-1.3.3.2-1.4-1.2 1-2.2-.5-.9.6-1.1-.8-1.6.9-.4-.6 1-.3-.9-.6-1.3.6-1.9-.6-1.9.5-2.1-.8-.4.7-1.9.2-.3.6h-2l-2.2-1.2-.7-3 2.6-1.6 5.3-5.9 2.7.4 4.6-.8.6.4.4 1.6 3.9.5 3.9-.8h3.8c0 .1 1.9-1.4 1.9-1.4l1.8-.3 2.1.3 1.1 1.2 1.8-.2.6-1.2-1.5-2.2.8-2.4 1.3-.9 4.9-1.6v-.8l-.9-1.1v-1c.1 0 .9-.7.9-.7l2.1-.4Z"/><path id="TR-07" d="m154.7 307.7 2 2 5.6 1.3 1.8-.3 2.2-1.3h1.1l.7 1.9 1.4 1.3 1.4 4.3 2.7 3.7 4.7 2.2.9 1.1.5 2.8 3.1 2.1-.5 3.4.3 1.2 3.8 3.9 2.2 6.6-1.5 4 .5 1.4-1.2 2.2-1.9-.3-4.9-3.9-3.5-6-3.7-4-.8.3-.7-.9-4.9-1.5-.9-1.1-2-.4-2.9-2.1-4.3-1.6v-.6l-1.5-.9-8.4-1.6-6.3.3-1.6-1.2-1.7.9-1.5 1.9-.5 5.7.9 1-2.2 4v.9l-.7.2v1.1c-.1 0 1.3 2.1 1.3 2.1l-1.6.7.5 1.1-2.1 2.2v-1.9h-1l-2.2-1.4h-2.4l-.9.4v.9l-.3-.2-.6 1-1.5-.9-.2.7-1.7 1.2-1.4-.6-1.2 1.2h-1.2l-1 1h.8c0-.1-1.4.8-1.4.8l-.5-.2.6-.4-1.4-.2-1.2.9-1.3-1.1.5-.2v-.7c-.1 0-1.7.3-1.7.3l1.2-.6-5.7-.6v-1.1c.1 0-.6-.2-.6-.2h-.5l-.4 1.1-2.3-2.1 1.3-.9v-2.2l.5-.2-.3-1.5 2-1.1 3.2-.2 1.4-1.3 1.4-2.4 2.4-1.5.8-2v-3.9l1.5-2.6-.3-1.4-1-.8 2.3-2.1-.5-2.4.6-1.1 2.8-2.5 2-.7 4.1-3.1 3.6-.2 4.4 2.7 7.9.3 1-.6 2-4.1-.7-1h1.7l2.3 1.9 2.6-2 5.1-.7Z"/><path id="TR-75" d="m449.9 168.4 2 .8 1.6-.2-.9 3.1 1.2.8.4-.9h.9v.6l1.8 1 1.4 2.6 1.9.6 1.1 1.3 2 .5v.5l-2.2 1.2h1.7l1 2.7 3-.9 2.6.9.7 1.8-.7.9.6 1v1.3l1.3.6-1 1.1-2.7.3-1.2.7-4.1-.2-1.9.8-1.3-.6-1.4 1.6-2.3 1.2-.3 1.2-2.7 3-.3 2.2h-2.3c0 .1-.8 1-.8 1l-1.1-.2-1.6-3.3-4.4-1-1.8-3.6 1.6-1.4.5-1.5-1.2-1.1-.8-1.9 1.2-.9.5-2 3.2-1.6 2.3-2.6-1-2.3-1.3-1.1.2-1.9v-1.2l1.5-1.3v-1.9c.1 0 .7-.7.7-.7l2.5-.6Z"/><path id="TR-08" d="m431.2 171.2 1.6 1 3.6-.7.7.8h2l1.2.8h1.8l1.3 1h1.7l-.2 1.9 1.3 1.1 1 2.3-2.3 2.6-3.2 1.6-.5 2-1.2.9.8 1.9 1.2 1.1-.5 1.5-1.6 1.4-2.1-2-5.8-.2-3.3 3.2.3 3.5-1.7 1.6-.3 1.9-1 .9h-1.1l-.3-1.9-.5-.2-4.7 2-3.3 2.4-1-.2-.4-1.4v-2.3l1-.6v-.5l-1.5-1.6-4.7-2.1 2.3-3.1.5-1.9 3-3.4 1.7-1.1-3.6-4.8v-1.8c-.1 0-.9-1.4-.9-1.4l3.6-1.5 3.8-4.8 2.2 1.1 2-.3v.8l1.9.4 1 1 1.6-1 1.2-1.6 1.4-.5Z"/><path id="TR-09" d="m84.2 287.4 1.7.8 1 1.1 2.9.5-.9 1.8-1.9.2.3 3.5.9 1.3 2.8 1.8-1.5 1.9-.5 2.1-4 3.3-.3 2.6-.5.3-.8.2-3.4-2.5-5.7-.2-.4-1.3-3.4 2.7-4.6-.4-3.1.5-1.9-1.7h-1.6c0 .1-2.7-1-2.7-1l-1.9.3-1.6 1.2-.4 2.4-1 .4-.6 1.1-.7-.2v1.1l-1-.4-1 .7-1.4-.6.9-1.6v-2.2l-.7-.5-.2-1.9h-.6l1.3-1.4-2.5-1.4-3.1-.9.7-1 1.7.3 3.5-1.4.9-2.7-.8-1 .8-1.8 2.1.9.5 1.5 1.8-1.4.4-2.7 2.2-1.4h1.7l3.3 1.7 7.4-2.3 6.4-.6 1.2-.9.4-1.1 1.9-.6 2.2 1.1.8-1.4 3.1 1.3Z"/><path id="TR-10" d="M32.1 243.7h1c0 .1-1.2.8-1.2.8l.8.2.3.8.8-.3v.5c-.1 0-1.9.2-1.9.2l-.2-1.8-.5-.2.8-.2ZM57.9 206l.8.5-.5.8h.8v.8l-2.3-.6v-.7h.8l-.2-.9h.5Zm3.5-.6h.6l.2.6 1.9-.3 4.5 1.3-.4 1.1-3.1 2 1.4 1.2 4.8-1.3 1.2 1.9v1.3l-1.9 3.4 1.2 1v2.6l.9 1.2.3 1.8 1.2 1.1v2.1l1 1.5 1 .7 2.4.2 1.3 1.6 2.9 1.7 1.7-.5 1-1 .9.2.4 3.6h.9l.6 1.4 5.2.6v1c.1 0-1.7 1.9-1.7 1.9l.6 4.1-3.9 4.4-4.6.8 1 2.5-2.2-.2-4.5 2.5-2.7-.5-1.7 1.5-1.2.2-2.7-3.9-2.8-2.2-.8-2.3-.8-.8-2.7 1.8-2.2-2.3-4 .7-2.9-2.3-1.6 1-4.1 1-2-.6-2.3.7-2 2.3-4.4 1.4-1.7 2.3-1.2-3-2.9-.7 1.1-1.5v.6c.1 0-.5.2-.5.2l1 .6-.2-.8 1-1.1 2.7-1.9-.2-1.4 1.4-.2V241l1.9-.3.6-2.3-.7-1h-1.2c0-.1-1.1.8-1.1.8l-1.6-.5-3.4.5.2-1.9 1.6-2.2 2.8-.6L39 232l2.4.3 2.2 1.2h1.8c0-.1 4 1 4 1l2.1-2.1 3.1-1.9.6-.9.4-3.5-1.6-2.7v-2.1l-2-1.9 1.8-2.7 1.9-1.4.3-1.2-.4-1 2.4-.9 1.2.7h2.1l3.2-2.2-1.5-.9-.7.6-1.3-1.6v-.7l-1.5-.8v-1l1.7-.8Zm-5.8-.1.5.3-.7.7.3.5-1.2.7.2-1.8.5-.6.4.3Zm2.8-4.7 2.7 1.1-3.5 2-2-.8v-1.7z"/><path id="TR-74" d="m190.8 159.9.4 1.3 1 .7-.5 1.4.6.9h1.6l1.5-.8.9.5-2 5.2-1.3.2-.7 1.2-3.6 1.5-.2.8 1.1 3.1-.8 1.9-1.3-1-1.5.8-1.5-.6-2.4 1.8-3.3-.9 1-2.1v-1.5l-1.2-1.4v-1.8l-1.8-.3-1.5-2.5 4-4.2h1.4l1.3-1 .8.4 2.2-2.1 1.9-.4.2-.5h2.4c0-.1 1.6-.8 1.6-.8Z"/><path id="TR-BM" d="m418.5 271.3 3.4 2.1-.5 3.5 1.1 3.7 1.3 1.6-2 4-4.1 1.7-3.2 3.1-.3 1.3 6 4.6.8 1.4 3.2 1.1 1.5-.3 1.4.9-1.4 1.2-3.8.4-2.7 2.4-4 1.9-7.2.6-2.1-7.1 1.3-1.9-1.8-.8.5-1.8 2.8-4.1 1.5-4.1 1.6-1.7-1.5-1.2.2-4.3 2.7-5.2 2.3-.7 2-.4 1.3-1.8Z"/><path id="TR-69" d="m395 204.7-1 3.6.5 1.8-1.7 5.1 1 1h4v1.6l-1.2 1.7-4.9 2.9-3.4-.2-9.6-.3-1.9 1-2 2-2.4-2.4 2.8-3.6 1.9-4.5V210c-.1 0 .6-2.2.6-2.2l9-1.5 5.5-.6 2.7-.7Z"/><path id="TR-11" d="m118.7 205.7 1.7 3.2.7.2.9-1 1.1 1.8 1.3.9 1.5.3 2.6-.9 1.2.7 2.1-1 1.1 1.1h1.2l2.9 7.3-2.1.8-3.4 3.5-1.4.7-.5 1.1-1.5 1.1-1.1 2.4-4.1.7-2.1 2.6-.7 2.4-3.8-.2-1-.5-2.2-1.9-1.1-3.6 2.3-2.2-1.5-1.6v-.8c-.1 0 .6-.8.6-.8l-.4-3.8 1.5-1-.3-2.1 1-1 .4-3.5 1.1-1.2-.2-2.7 2-1.2Z"/><path id="TR-12" d="m390.4 239.6 4.5-.4 1.8.6-.6 1.3 1 .8 1.7.3 8.4-1 3.2 3-1.1 1.4v1.8l2.3 4.2 2.2 1.3.4 1.2-.4 1-2.9 1.2-1.7 2-.5 3.5.4 3.9-4.7 1.6-1.6 2.5-1.6.8-3.8-1.9-.5 1.7-.7.4-2.4-1.6-2.1-.2-1.7 1.8v1.8l-.7.6-2.6.6-3.2-6.3 1.5-1.1.7-1.4h2.6c0-.1.7-.6.7-.6l-.4-1.2-2.4-1.7-.7-2.1.2-1.3-.5-.5 1.2-2.1v-1.8l1.7-2.1v-1.3l-.8-.5-2.1 1.1-2.9.5-2.5 1.7h-2.5l1.3-4.6 1.7-1.4-.7-2.7 4.8.3 6.3-5.5Z"/><path id="TR-13" d="m457.4 255.7 2 1.6.6 1.5 3.2 1.4v.9c.1 0-1.3 2-1.3 2l-3.6 2.1-2.5 2.4-4.1 6.1-.2 3.9-2.9 2v.8l1 .8.3 1.5-1.2 6.4-.4.7-1.4.6.2.6-.9.8-.4-.8-1.9-.7-6.4-7.3h-2.6l-2.2 1.2h-1l-.6-.2v-.8l-2.9.5-1.1-.4-.8-1.2h-2.7l-1.3-1.6-1.1-3.7.5-3.5-3.4-2.1.2-.6 1.9-.9 4.9.3 4.5 1 .7-1.7 3.7-3.3-.2-2.2 1.4-.7.5-1.8.9-1 6.3-1.9 6.3.5 3 .4 3.3-1.5.2-1.8 1.4-.5Z"/><path id="TR-14" d="m177.4 185.9 3.2.4 1.3 4.3v2.2h3l1.9 3-.6 3.6-2.1.4-.8.7v1c-.1 0 .8 1.1.8 1.1v.8l-5 1.6-1.3.9-.8 2.4 1.5 2.2-.6 1.2-1.8.2-1.1-1.2-2.1-.3-1.8.3-1.9 1.5h-3.8c0-.1-3.9.7-3.9.7l-3.9-.5-.4-1.6-.6-.4-4.6.8-2.7-.4-5.3 5.9-2.6 1.6-1.3-.5-2.9.8-2.9-7.4.5-1.1-.2-3.8 4.2.2 3.6-.8 1.5-1.4-1.2-2.2.9-1.5 4.2.6 2.9-.4 1.9-2.8.8-2.5 4-1.8.6-4.7 3-1.1h4.8l2 .9 9.8-2.5Z"/><path id="TR-15" d="m122.8 296.6 3.1.3 4.7-1.7.8 1-.5 1.7.4.8 2.3.4 2.3-.3 3.4 1.9.5 3.3 2 2.1.3 2.1 1 .2.7 1-2 4.1-1 .6-7.9-.3-4.4-2.7-3.6.2-4.1 3.1-2 .7-2.8 2.5-.6 1.1.5 2.4-2.3 2.1-2.2-.8-2.8 1.2-1.9 4.6-.7-.2-.3.9-1.7-.5.7-1.6h-1.4l-.6-.7 1.2-2.7-.9-1.5.2-.9 2.6-1.7.4-3.4.9-2.1 3.8-4-.5-1.1-2.8-1.6v-.7c-.1 0 .8-1.4.8-1.4l-.9-2.3.5-.7 1.9-.6 2.6.6-.5-1.7.3-.5 3.7-1.3 1.8-2.3 4.9.2Z"/><path id="TR-16" d="m82.2 204-.8 1.9-.2-1.9h.9Zm22.9.4 2.8.6 6.5-2.1 4.5 1.2-.3 1.7-2 1.2.2 2.7-1.1 1.2-.4 3.5-1 1 .3 2.1-1.5 1 .4 3.8-.8.8v.8c.1 0 1.6 1.6 1.6 1.6l-2.3 2.2-3.2.2-1.1-1-2.3-.8-1 3.9-2.7 2.4-.5 1.6-1.8 1.3-.6 1.2h-5.3c0-.1-5.2-.7-5.2-.7l-.6-1.4h-.9l-.4-3.6-.9-.2-1 1-1.7.5-2.9-1.7-1.3-1.6-2.4-.2-1-.7-1-1.5v-2.1l-1.2-1.1-.3-1.8-.9-1.2v-2.6l-1.3-1 2-3.4v-1.3l-1.3-1.9 9.7-.2 4 1.2 3.4-1.1 4.8 1.3 2-.3 1-1.9 1.5-.2-1.8-1.8h-1.4l-1.4.6.4-3.4 5.6 1.2 3.1-1.1h3Z"/><path id="TR-17" d="m17.3 228.6.5 1.4-.7.4-2.4-1.2v-.5h2.5Zm-2.9-13.4.7.7-.2 2.3 1.2-.5-.5 1-6.6 1.4-1.9-1.1.2-.9 3-1.9 4.2-.9Zm35.4-7.2.7 1.3-.7.4.6 1 2.9 1.7 2.6.7.4 1-.3 1.2-1.9 1.4-1.8 2.7 2.1 1.9v2.1l1.5 2.7-.4 3.4-.6.9-3.1 1.9-2.1 2.1-4-1.1h-1.8c0 .1-2.2-1-2.2-1l-2.4-.3-2.1 1.5-2.8.6-1.6 2.2-.2 1.9-4.3 1-2.5 1-.2.5-2.1-.2-1.2.8-.5-.4-2.3.7-1.7-.6.9-3.8.8-.7.6-1.7-.6-3.4.6-2.1-.7-.7 1.1-5.1.5-.5 1.8.3 1.3-.5 1.2-2.8 1.2-.6v-2.7c-.1 0 3.1-.9 3.1-.9l1.1-1.8h.9l3.9-4.2h4.1c0-.1 1.3.7 1.3.7l2.1-.3 1.4-1.7 1.7-.3 1.3.6 2.1-1.3.5.8Zm-13.6-10.4 3.7-.2 1.9.7-2.1 4.9v1.9l-5.9 3v1.2l-1.6.6-.2 1.3-1.1 1.5-2 1-2.3 2.4-1.7.6.6 2-2.3 2-3.1 1.4 2.6-5.1.3-1.7-1.3-1.6.5-.5-.8-.5 2.9-1.5 3.2-2.6 3.9-2.1h2.3c0-.1 1.4-1.9 1.4-1.9l.6.4 1.7-1.3-.7-2.4-2.4.3z"/><path id="TR-18" d="m196.3 183.5 1.8.5 1.8 2.8 2.8-.2 3.9 1.8 3.8-2.1 1.5 1.5 1.1.2 4.2-1 3.1-1.4v1.2l-1.7 3.2v1l2.6 3 4.8 1.3-.5 3.3 2.4 2.1-.8 1.7.4 1.7-.5 1.2.9 1 .2 2.3-2.1 3.6-1.3 1.2-1.9.7-2.8-.3-1.3-1.4-2.3-.4-.5-.7-4.1-.7-2.2.3-.7-.9-1.6-.3-1 1.6-1.5.7-2.9-4.7-3.4-1.4h-2.4l.6-2.3-.4-1-3.1-.7-4.6-2.7-2.5.2.6-3.6-1.9-3h-3v-2.1l-1.3-4.3 6 1.2.9 1.4 1.7-1.6 3 1.2.6-2.7-.6-1.6h2.7l.9-.8z"/><path id="TR-19" d="M248.5 178v1.5l1.6 3.7-1.3 2.3 1.2.8 2.4.3v1.4l-2 1.5 1.6 2-1.9 3.5.2 2.1 2.4 1.8 2.5-.7 3.6.3v2.3c-.1 0 2.8.7 2.8.7l1.5 2.7-.4 1.3-1 .7v1.1l-1.2.5.4 1.2-.8 1.8 1.3.9-1.5 2.5-2.2.7-1.3 1.6-1.5-1.2-.7.3 1.4 2.2-1.3 1.1 1.3 2.2-.6.9-6.7.5-.2-1.5-.5-.3-2.3 2.4-3.3.2-1.7.8-1.7-.4-1.1-1.1-1.1-.3-2.4 1.7-.7 1.2-3.1-.4-2.3.7-.3-1.1.2-.6-1.7-2.7.3-1.6-.6-1.6.4-1.4-2.5-.9-.9-1.8 1.9-.7 1.3-1.2 2.1-3.6-.2-2.3-.9-1 .5-1.2-.4-1.7.8-1.7-2.4-2.1.5-3.3 4.1-1 2-4.8 1.5-.7-.9-2.2-1.4-.6-1.7.2-.2-3.5 2.8-2.3.2-1.4 1.6.3.2 1 1.5-1.4 1.3-.6 2.1 1.3.8 1.8 1.5 1h1.6l1.7-1.3h1.8l2.1-2.8Z"/><path id="TR-20" d="m114.4 273.3 1.3.9h1l.9 1h1.1c0 .1.7 1.2.7 1.2l1.7.7 1.5 4.2-1.7 1.4-1.2 1.9h-2.8c0 .1-1.3 2.2-1.3 2.2l-3.3 3.1-.2 1.8.9 1.9 4.8 2.7-1.8 2.3-3.7 1.3-.3.5.5 1.7-2.6-.6-1.9.6-.5.7.9 2.3-1 1.4v.7c.1 0 3 1.6 3 1.6l.5 1.1-3.8 4-.9 2.1-.4 3.4-2.6 1.7-.2.9.9 1.5-1.2 2.7-1.4.9-2.4.4-1.8-.7-.7-2v-2.4l-1.8-2.6-.2-2.3-2.6.4-1.6-.6-1.1-2.3-2.1-1.2V312l-.9-1.3-1.3-.2-.4-1.7.5-.3.3-2.6 4-3.3.5-2.1 1.5-1.9-2.8-1.8-.9-1.3-.3-3.5 1.9-.2.9-1.8-2.9-.5-1-1.1-1.7-.8 2.9-1.7.9-2.2 1.5-1.3h8.8l.9 2.2.3-1.6.8-.2-.2-.9 2.2-2.5 7.3 1.6.8-1.1-.2-3.7 4.4-3Z"/><path id="TR-21" d="m409.1 265.8 1.4 1.1 1.7-.8-.3 1.9.7 2.7 1.3 1 1.2-.2.2 1.9-2.3.7-2.7 5.2-.2 4.3 1.5 1.2-1.6 1.7-1.5 4.1-2.8 4.1-.5 1.8 1.8.8-1.3 1.9-.6 1.4-2.3.6-5.3-1.5-.4 1.6.6 2.1-.5.9-5.5-1.4-.4 1.2-4.2 1.7h-1.3c0-.1-3-1.9-3-1.9l-3.5 1.7h-1.5l-1.9-2.3-.3-6.4-1.1-2.8-2.2.5-1.6 1.7-1.7-2-3.6-.6-2.1-2.4-5.3-2.1 1.5-1.6 1.1-2.8-1-1.8-2.1.7-1-.6.8-.8.3-2.3 4.2-1.3 1.2.7 1.4-.3 1.7 1.7 1.2.3.9-2.5 3.3.2 3.3-1.6 1.9.9 1-2.8 1-.7h5.7l2.3-.5 2.6-.6.6-.6v-1.8l1.7-1.8 2.1.2 2.4 1.6.7-.4.5-1.7 3.8 1.9 1.6-.8 1.6-2.5 4.7-1.6Z"/><path id="TR-81" d="m153.7 185 1.1 3.7 1.6.3 1.4-.4-.6 4.7-4 1.8-.8 2.5-1.9 2.8-2.9.4-4.2-.6.9-1.8-2.4-1.2-.2-.7.3-1.2 1.2-1.1-.9-1.4h-1.6c0 .1-.3-.5-.3-.5l.9-1.3 1.7-.3 1.8-1.5 1.3-1.8-1-.9 8.6-1.6Z"/><path id="TR-22" d="m40.9 154.5-.2 5.9.9 2-1 2.1.2 1.8-1.5 2.1.6.6 1.1-1.2.7.7-1.4 1.8.2.9-1.4 2.5.7 2.7-.8 1.5.8.7.5 3.1-1.5 2.6-2.6 2.6-2.7.4-.5.7 1.3 1.2-.7 5.2 2.5 3.2-1.9 3.8-2.8.2-2 1.5-2-.8-1.1.6-1-.3-1.9.6h-4.1l-2-1.2-.9-3.6 2.4-.5.5-1.7 1.9-1.6-.3-.8h.5v-.8l.7.3.3-1.1.8.7v-1.3c-.1 0 1.7-.5 1.7-.5l-.9-1.4 1.1-1.2-1-.7-.4-1.1.6-1.2h-.8c0-.1.9-1.2.9-1.2l-.8-1.1.4-.4v-2.3h2l3.1-2.9 1.7.5 1.2-.9-1-9-1.7-.5-1.1-1.1.2-.5-3.1-1-1.3-1.3 1-2.8 4.5-.2 1.1-1.7-.5-1.9 1.6-1.9 3.3.7.9-1.1 1.4.7.7-.7 2.5-.4Z"/><path id="TR-23" d="M377.3 253.3h2.5l2.5-1.7 2.9-.5 2.1-1.1.8.5v1.3l-1.8 2.1v1.8l-1.2 2.1.5.5-.2 1.3.7 2.1 2.4 1.7.4 1.2-.7.5h-2.6c0 .1-.7 1.5-.7 1.5l-1.5 1.1 3.2 6.3-2.3.5h-5.7l-1 .7-1 2.8-1.9-.9-3.3 1.6-3.3-.2-.9 2.5-1.2-.3-1.7-1.7-1.4.3-1.2-.7-4.2 1.3-1.1-1.6-3.8.8-1.9-1.3-1.8-2.7-3.5.7-6-1.9-1.9-1.8-.3-3 1.4-2 1.3-.7v-1.6c.1 0 1.1.1 1.1.1l.7-.6 2.3.7.5-.4-1.5-5 .6-.7v-1.3c-.1 0 1.9-2.3 1.9-2.3l1 .6.8-.5.9.9.2 1.1-1.2 2.1.4.9 2.5.8 2.7-1.4 7.8 1.3 1.2 1.3 1.8.6.5 1.1 1.1-.5 1.4.7.6-.2.6-1.6h3.8l2.2-.7 1.1.4.4-1.9 1.2-1.3.8-3.1-1-1.6 1.2-1.5Z"/><path id="TR-24" d="m347.4 220.7 5.9.6 2 1.6 4.4 1.1v1.5l1.8.2 4.1 2 5.4-.5 4-2.4 2-2 1.9-1 9.6.3-2 1.7-.2 2.1 3.9-.2.6.7 3.5 1.4.5 1.7-1 1.6v.9l4 2 .3.7-.7 2.1 1.6 1.8-.4.8-1.7.5-1.8-.6-4.5.4-1.9-1.9-3.7-.7-3.1 1.2-1.1-.7-4.9-1.2-1.1.5-1 3.4-1 .7-5.5-.8-3.8 1.1-4.7-.7-5.3 2.5-3 2.4-.2 1 .6 1.9-1.4 1-2 .4-.5.7.8.7-.8 1.6.6 3.4-.8.5-1-.6-2.4-2.5h-2l-1.6-1-1.9 1.1-1.6-1.3 1.9-3.7-1.9-3.3 1.8-.4.4-1.1-1.8-1.1-.8-2.2 1.2-2.4-.5-3.2 1.1-3.4 2.9-2.1-2.6-2.2v-1.4l1.5-1.4 3 .3 2-1.8 2.7-.3.8-1.6Z"/><path id="TR-25" d="m409.6 195.2 4.7 2.1 1.5 1.6v.5l-1 .6v2.3l.4 1.4 1 .2 3.3-2.4 4.7-2 .5.2.3 1.9h1.1l1-1 .3-1.9 1.7-1.6-.3-3.5 3.3-3.2 5.8.2 2.1 2 1.8 3.6 4.4 1 1.6 3.3 1.1.2v.9l-2.6 2.1-1.4 2.1-.7 2.5.7 1.3-.6 1-1.1.6-2.4-.2-4.6 1.1-1.4 1.6.2.9 3.2 2.5.3.8 1.8.2 1.8 1.4.7 2.2 3 1.4.4 1.4-1.2 2-5.5 1.8-.7.8 1.2 2.7 3.4 1.7 1.8 1.9-.4.9-2.1 1.7-1 1.8-4.2 3.2-.6 2.9-3.1.7v1.4l-2.6 1.8-4.7 1.3h-4.4c0 .1-.6-2.9-.6-2.9l-4.4-3-5-.2-1.6-.6-3.2-3-8.4 1-1.7-.3-1-.8.6-1.3 1.7-.5.4-.8-1.6-1.8.7-2.1-.3-.7-3.9-2v-.9l.9-1.6-.5-1.7-3.5-1.4-.6-.7-3.9.2.2-2.1 2-1.7 3.4.2 4.9-2.9 1.2-1.7v-1.5h-4.1l-1-1 1.7-5.1-.5-1.8 1-3.6 6.8-3.2 4.8-4.5 3-1.8Z"/><path id="TR-26" d="m141.3 218.1.7 3 2.2 1.1h2l.3-.6 1.9-.2.4-.7 2.1.8 1.9-.5 1.9.6 1.3-.6.9.6-1 .3.4.6 1.6-.9 1.1.8.9-.6 2.2.5 1.2-1-.2 1.4 1.3-.3-.4 1.2 1.1.5v1.2l.9 1.2.9.8 1.4-.2.4.4-.5.7 1.3-.2-.8.7-1 2.9 1.7 2.3.9 3.5 1.2 1.2-.2.9 1.1.4-.4 2.6.7.9-.5.9 1.7.7v.7l-3.8 4.3-.2 1.6-.5.5h-1.6c0 .1-1.1 1.8-1.1 1.8l-4.8.6-1.1-1.7-2.2-.6-.4-1.8-2.8-2.6-2.2.6-2.4-1.7-.9.6-.7 2-1.2.2-.4 1-2-.9h-1.5c0 .1.1.8.1.8l1.9 1.3-.6 1.3-5.1-.6-1.1 2.5-2-2.1-1.8-.9-1.3-3.1-2-.4-1.5-.2-.2-1.8-1.3-1.1.6-1.3-.5-2.3.7-1.2-.6-2.7-2.9-1.5-1.8-1.7.8-1-.4-.5-2.8.6-1.5-.4.7-2.4 2.1-2.6 4.1-.7 1.1-2.4 1.5-1.1.5-1.1 1.4-.7 3.4-3.5 2.1-.8 2.9-.8 1.3.5Z"/><path id="TR-27" d="m316.7 305.4 1.1.5 2.7-.8 1.1 1.2 4.8.2 3.5 1.5-.5.7-.7-.5-1.7.2-2.6 3 .3.6-.7.3-.5 1.7 1.1 1.4-1-.2-.2.6 1.1 2.2-.4 2.3 1.4.9 1.6-.4-.3 2.2 1 .8v1.2l1 1.4-.5 1.5-2.2.4-4.1 2.3h-3.3l-2.6 1.6-1-2-1.2-.5-2.4.3-.9-.4-.5-2.4-.7-.7-4.7-1.2-.8-2.6-1.2-.3-1 .3-1.6 2-2.6 1.2-1.4 3.2-3.3-1.1-1.4-2.2-2.8-.9-1-2 5.8-6.9 1.6-.2.4-1 1.5-.5 2.3-2.4 1.7.8 1.9 2.2 1.8.2 3-3.8 6.2-.7-.2-1.4h1.5c0-.1 1.4-3.7 1.4-3.7Z"/><path id="TR-28" d="M358.3 186.6v10.9l-3.2 1.3-2.1-.2-2.7 1.6-3.1 5.1 5.9 2.6 1 1.3-.4 4.1-1.2 1.7-.9-.3-.7.5.3 2.5 1.9 2.4v1.2l-5.9-.6-3.6-.2-1.7-.8-.8-2.4-1.6 1.1-.6-.6-1 .5-2-1.4-2.7-.5-1.4-2.5v-4.1c-.1 0 .4-2.5.4-2.5l-2.9-1.2.2-2.3-.9-1.5.6-1.1-1.5-.9-1-2.5 1.4-1.1-.4-1.5 1.9-2.8.6-2.1 2.4.8 2.4-.2 1.9 1.2.9-.5 1 .5 2.7-.2 2.4-1.9 1.6.9h.8c0-.1 2.5-2.1 2.5-2.1h1.5l1.6-1.2 2.2.4 4.1-1.4Z"/><path id="TR-29" d="m358.3 197.5 1.6.9 3.8.8 1.5 1.6 1 .2.3 1.2h1.7c0-.1 1.6 1.3 1.6 1.3h2.7c0-.1 1.4-1.6 1.4-1.6l.3-2.5h1.4c0-.1.4.9.4.9l-.5 2 2.8 1.1.6 1.2 2-.9-.4-.7-1.8-.8v-.9l1.9-.3 1.4 1-.3 1.2 1.4 1 1.5-.4 2.2 1.9-9 1.5-.8 2.2v4.4c.1 0-1.7 4.5-1.7 4.5l-2.8 3.6 2.4 2.4-4 2.4-5.4.5-4.1-2-1.8-.2v-1.5l-4.3-1.1-2-1.6v-1.2l-2-2.4-.3-2.5.7-.5.9.3 1.2-1.7.4-4.1-1-1.3-5.9-2.6 3.1-5.1 2.7-1.6 2.1.2 3.2-1.3Z"/><path id="TR-30" d="m470 297.3 3 .7 4.8-1.4 3.6.3 3.2-.8 1.7.9.8 1.6 3.5.3 1.2-.9 2.4.2 1.2-.6 2.7-.3 1.7 1.7.2.9-1.5 1.9 1.2 1.3-.9 5 1.4.6.6 1.4 1.7.3.4 1.2 1.7 1.1.3 1.2-1.4 1.4.7 2.7-.7-.8h-2.2l-1-.7-4.3 3.8-3.2 1 .5.6-.9.8-.3 1.1-1.8-1-.6-1.9-1.1-1.3 1-2 1.3-.2-.2-2.6-1-1.2-2.7-1.3-2.6.2-.2-.4-.7 1-1 .2-1 2.2h-1.7l-.5 1-.7-1.1-3-.2-1.3.5-2-1.3-1.5.5-4.2-2.8-.2-4.8-1.2-2.4 3.7-4.2.8-3.3Z"/><path id="TR-31" d="m277.1 321.4 2.4-.5 4.2 1.9 1.9-.3 1.9.4 1 2 2.8.9 1.4 2.2.2 1-1.6 1.8.4 1.2-1.4 1.6.4 2.3-1.2 3.3.6 2 .6.9h.5v2.1l.2-.4h1.2v1.3h1c0 .1-.4.8-.4.8l.4.9-.8.6-1-.3v.7c-.1 0-3.1-.8-3.1-.8l-.9 1.4-2.2-.6.4.8-.8.8.6 2.7-.4 2.3-1 .6-1.2-.7v1.9l-1-.3-1.4.5-1.1 4.4-1-1.7-3-.6v-1.8c.1 0-2.2.3-2.2.3l1.7-2.8-2.2-4.6-3-4.6v-.7l1.9-1.6 1.4-2.4 1.8-.9 1.6-2 4-2 .6-1.5-.6-3.3.3-1.4-2.3-3.2-2.8-1.6-.2-1.6 1.4-1.7Z"/><path id="TR-33" d="m244.8 307.4.4 2.3 3.8 4.5v.8l-1.2 1.2v1l1.4.8.6 1.5h1.1l1.9 1.1.8 3.8.4 4.3-.5 1-1.8-.5-.8 1.1-.4-.4v.7l-1.7-.1v.6c-.1 0-1.4.7-1.4.7l-1-1.6-2.7-1.2h-2.8l-2.4 1.4-3.4 3.4-4.2 2.8-2.6 3.6-2.3 1.8-.2 2.9-.7.8h-.9l-1.2 2-.7-1.7-1.8-1-.7 1.3h-.7l-.5 1.4-2.6 1.9-.4 1.3-.9-1.9-1.4.6-.8 1.6-2.5-1-1.7 1-1.2-.8-1.4.7-3.8-.2-1.8 2.2-.8-.8-2.7-.3-1.9 1-1.8 1.8-3.6-.9-2.7-1.8 1.2-2.2-.5-1.4 1.5-4-2.2-6.6h2.9l5.5 2.2 3.4.6 3.5-1.2 2.5-2.3-1.7-2-1.9-1.2-1.3-2.2.3-2.8-1-2.1 1.8-.8 1.2 1 2-1.9 4.1-.9h2.1c0 .1 1.7-.6 1.7-.6l2.1 1.2 4.4-2.6 5-.7 5-1.7.9-.8v-1.9c-.1 0 4.1-1.3 4.1-1.3l4.8-2.6-1-1.7.7-1.3h2.1l5.2-2.3Z"/><path id="TR-76" d="m474.7 219 1.6 1.5h1.4l3.6 1.9 7.3-.3 2.2-.6 3.7 1.6 3.4 3.2v.6l1.1 1v1.1l2.7 1.1-.2.7 1.5 1v.9l1.5 1.1v.8l.4.2-.3.8-2.4-2.8H501c0-.1-1.3-2.4-1.3-2.4l-3.7 3.4-2.4.3-3.4-1.5-2.4.3-2.7-.8h-4l-2.3-1.7-4.5-.4-2.1-1.7-1.1.3-1 1.6h-1.5c0 .1-.3-4.3-.3-4.3l-1.8-2.1-2-.5 2.7-4.4 2.9.5 4.6-.7Z"/><path id="TR-32" d="m122.8 296.6 1.4-2.7v-2.2c-.1 0 1.8-2.5 1.8-2.5l2.5-1.2 4.3-4.7 3.4-.9 3.7-2.4 1.9-3.4 2.3-1 2-1.9 3.5-.6 1.6 1.3 1.2 1.9h.8c0-.1.6 1.8.6 1.8l1.6 2.1 3.3 2.7 1.9.7.6 1.8-.2 2.6-1.9 1.4-.3 1.7-2 1.5-.2 2 1.2 2.8v1.2l-.2.5-2.1.7-.7 1 .7 3.6-.8 3.3-5.1.7-2.6 2-2.3-1.9H143l-1-.3-.3-2.1-2-2.1-.5-3.3-3.4-1.9-2.3.3-2.3-.4-.4-.8.5-1.7-.8-1-4.7 1.7-3.1-.3Z"/><path id="TR-34" d="m100.8 181.3 8.3 2 .6-.4 5.9 1.4h2.5v1.6l-1.5 2.5-1 .3-2.6-.6-1.5 2.4-2.4-.6-2 .4-4.4 5.5-.6-.5-1.6.4.8-1.6-3.7-1.6-.9-1.3-2.3-1.3-.4-1.5 1.2-.9.4-1.9.7-.5-.6-.9.4-1.2 2-1.6 2.7-.2Zm-28.5-11.8 2.5 2.6 9.1 4.8 1.7.3 6.9 3.2h3.3c0 .1.9.6.9.6v.9l-1.9 1.9.9 1.1-2.3 4.1-3.5 1.1-.5.6-1.8-.8-3.7.7-.6-.4-.2-1.5h-.6l-.6 1.1-3.2-2-4.8-1.2-4.1.7-2 1.1-.6-1.2v-1.8c.1 0 1.2-2.2 1.2-2.2v-1.5l1.5-2.6 2-9.8.5.3Z"/><path id="TR-35" d="m34 272 .7.4.3 2.3-1.2-.7zm18.1-27.8.5 2.9 1.4 1.4-.4 2.6 1.9 5.1-.4 2-1 1-2.9 1.2-1.3-.4-3.3 1.7.2.8-1.4 2 2.5 3.4.2 3.2 1.2.9 2.8-.2 1.2.6.7 1.5 1.8-.2.9 1.5 1-.2 1 .9 1.7.2 1.3 2.5h1.7l.5.9.7-1-.3-1.9 1.2-.3.9.7 2.5-.6 2.5 1.2.7 1 2.3.4 1.8 1.7 3.3 1.1-.3 2.3 1.6 1.9-.8 1.4-2.2-1.1-1.9.6-.4 1.1-1.2.9-6.4.6-7.4 2.3-3.3-1.7h-1.7l-2.2 1.5-.4 2.7-1.8 1.4-.5-1.5-2.1-.9.2-1.5-.8-1.3-2.9-.3-3.9-2.9-2 .3-1.1 1.1-1.1-4.1-1.5-.6.6-.8-.8-.7-3.2.7-.2 2h-.5l.2.9-.6.2-.6-1.3-.3.8-.7-.4-.4-1.8-3.3-1.4V281l-.6 1.1h-.8l-1.2-1.2-1.5-.2v-.8l1.1.1.2-1h.6l-.5-1.5 2.3 2 .3-1.5.5.9 2.1-1.8-.8-1.7 1 .9.7-.9-2.1-1.6-1.1 1 .5-1.5-1.3-2.5-.2-2.3.2-.6 1.5-.7 2.7 1 1.3 3 1.4.9.4 2.1h-1.4l.4.5-.5.9.9.3 1.5 3.5.7-.3-.7-2.5.7-1.2h.8l.8 2.1.9.4 5.8-1.9 1.7.5 1.5-1.5h.7l-.3-.8-1.2.6-.9-.6-3.3 1-1.8-2.2v-1l-1.4-.7.4-.6-2.4-1.3.2-.8-.8-.2.5-.8-.6-1 .2-1.4 2.3-.7.2.6.5-.3 1 .6.3-1.1h.8l-1.2-1.9.5.2.8-.6.2 1h.6l-.1-1.4 2.4-.7-.7-.8.5-.6-.4-.9-.9.9-1.5-.9-2.3.7-1.7-1.1v-2.7l2.2-1.5-1.3-2.2-1.8-.8 1.7-2.3 4.4-1.4 2-2.3 2.3-.7 2 .6 4.1-1Z"/><path id="TR-46" d="m296.3 271.8 6-1.3 4.3.8 2.8-.2.7.5-1.3 2v1.2l3.6 2 2.1-.2 2.7 2.1 2.3.4-.4 2.9 2.1.3v1.5l-1.2 2-3 2.6.4 2 .9.6-.9 1.7-2.1 1.2v2.9l-1.5 1.7-.2 2-.8 1.2.4 1.2 2.5.3.9 2.3-1.4 3.6h-1.5c0 .1.2 1.6.2 1.6l-6.2.7-3 3.8-1.8-.2-1.9-2.2-1.7-.8-2.3 2.4-1.5.5-.4 1-1.6.2.3-1.6-1-2.1.8-1.7-.2-.6h-4.3l-3.4 1-.5-.5h-2.3l-1-9.3.7-1.5 1.8-1.8.7-2.3-1.6-3.4 1.8-2.5-2-1 1.8-2.2 1.9-5.6 7.3-3.1 1-4.3 1.2-1.9Z"/><path id="TR-78" d="M194.2 169.2v.8l.8.6 1.7-.8.7.6.8-.4 1 .3v1.9c-.1 0 1.1.7 1.1.7l.3 1.3v1.8c-.1 0-.9 1.3-.9 1.3l-1.7.3-1.5 1.5-.7 1.8.5 2.6h-.6c0-.1-.9.7-.9.7h-2.7l.6 1.6-.6 2.7-3-1.2-1.7 1.6-.9-1.4-6-1.2-3.2-.4-1.1-3 1.1-3.6 1.3-1.1 3.3.9 2.4-1.8 1.5.6 1.5-.8 1.3 1 .8-1.9-1.1-3.1.2-.8 3.6-1.5.7-1.2 1.3-.2Z"/><path id="TR-70" d="m182.8 328.9 5.7-1 2.7-1.2 1.7-1.7.8-3-.5-.9-2.5-1.4-.6-3.5.9-1.1h1.9l1.3-3.9 2.6-2.2 1.5-2.2 2.7-1.4 2.4-.2 2.9 2.1 5.8-2 .4 6.5 4.3 5.9 1.5 4.1-4.4 2.6-2.1-1.2-1.7.8H208c0-.1-4.1.7-4.1.7l-2 1.9-1.2-1.1-1.8.8 1 2.1-.3 2.8 1.3 2.2 1.9 1.2 1.7 2-2.5 2.3-3.5 1.2-3.4-.6-5.5-2.1h-2.9l-3.8-4-.3-1.2.5-3.4Z"/><path id="TR-36" d="m472.4 189.4 2.9 2v3l1.8 3.9v2.2l-.7.5-1.3 3.1-.7.2.2 1-.6-.2.2.6-2 .8-.3.6 1.9 1.8-.7 2.6 1.3 2.5 1 .5v1.1h-.7l1.6 2.1-1.4.3-.2.9-4.6.7-2.9-.5-2.7 4.4-4.7-.7-14.9 3.6 1.2-2-.4-1.4-3-1.4-.7-2.2-1.8-1.4-1.8-.2-.3-.8-3.2-2.5-.2-.9 1.4-1.6 4.6-1.1 2.4.2 1.1-.6.6-1-.7-1.3.7-2.5 1.4-2.1 2.7-2.1v-.9l.8-.9h2.3c0-.1.3-2.3.3-2.3l2.7-3 .3-1.2 2.3-1.2 1.4-1.6 1.3.6 1.9-.8 4.1.2 1.2-.7 2.7-.3 1-1.1 1.1.7Z"/><path id="TR-37" d="m207.7 154.1 10.4 1.5 7-.2 4.8 1v1l1.1 1 .4 1.7-.7 1.8h3.1c0 .1 1 2.3 1 2.3l3.1.6 1.5 1.2-.9 3.5-2.3 1.9.6 1.8-1.8 3.7.6 1.7-1.5 1.4-.2-1-1.6-.3-.2 1.4-2.8 2.3.2 3.5 1.7-.2 1.4.6.9 2.2-1.5.7-2 4.8-4.1 1-4.8-1.3-2.5-3v-1l1.7-3.2v-1.2l-3.2 1.4-4.2 1-1.1-.2-1.5-1.5-3.8 2.1-3.9-1.8-2.8.2-1.8-2.8-1.8-.5-.5-2.6.7-1.8 1.5-1.5 1.7-.3.7-1.3v-1.8c.1 0-.2-1.3-.2-1.3l-1.2-.7V170c.1 0-.8-.3-.8-.3l-.8.4-.7-.6-1.7.8-.8-.6v-.8l2-5.2-.9-.5-1.5.7h-1.6l-.6-.9.5-1.4-1-.7-.4-1.3 4-.7 10.7-4.9 2.2-.2Z"/><path id="TR-38" d="m270.9 247.2 4.5 1.9.6 1.6 1.2.7 1.1 1.7h2.6l4.1-1 5.7.4 3.7-.6 2.6 1.1 1.7 1.4 1.2 3.4-2 1.8-1.3 2.3-.4 3.1-2.3 2 2.1 4.5-1.2 1.9-1 4.3-7.3 3.1-4.1-4.1-3.2.9-2.3 3.1-1.6 4.1-4.1 1.6-2.7 3-2.1.9-.8 5.9-.8 1.3-4.5-.3-.8-1.1-.8.2-3.4-1.2 1.2-3.6-.2-6.2-1.5-1.1-3.6-.3-.8-2.9-2.1-1.5-1.3-1.9.6-1.7 3.1-1.4 2.9-4.2-2.4-5.7-2.1-1.2 1.9-4.4.4-2.7 2.6-1 .2 2.2.5.4 3.3-1.3 3.6-2.6-.9-2.3.7-1 6.5-.9 1.3-.7 1.3-1.9Z"/><path id="TR-79" d="m296.3 329.1 1.4-3.2 2.6-1.2 1.6-2 1-.3 1.2.3.8 2.6 4.7 1.2.7.7.5 2.4.9.4 2.4-.3 1.2.5 1 2-1.8.9-.5 1.2-5-1.2h-1.7c0-.1-1.4.5-1.4.5l-.5-.7h-.9c0 .1-.6 1.3-.6 1.3l-1.7-1-.2-.6.9-1.1-.3-.5h-1.1c0-.1-.3-.8-.3-.8l-1.7-.7-3.4-.4Z"/><path id="TR-71" d="m208.7 243.4-1-.5.3-1.6-.5-4.4-3.5-3 2-3.3-.3-2.2.8-.3 1.5-4.2 4.2-1.5 1.5-1.4-.7-1 .5-2.8-.4-.8.7-1.5-.3-.4 1.3-1.3v-.9l1.5-.3 2.3.4 1.3 1.4 2.8.3.9 1.8 2.5.9-.4 1.4.6 1.6-.3 1.6 1.7 2.7-.2.6-2.1.8 1 1.3.4 2.8-.7.8h-1.9l-1.2 3-5.4 5-2 .8-4 3.1-3.1 1Z"/><path id="TR-39" d="M48.2 151.1h1.1l1.1 1.4h.8l.7 1.9 2 1.6h1l1.3 1.9.4-1.1h1c0-.1.2-.8.2-.8h1.3c0 .1.7-.6.7-.6l3.6 1-.4-1.3.8-.6v.4c.1 0 .2-.5.2-.5l1.3 1.2 1.7-.6 1.3.3.8 3.4h-1.5c0-.1-.4 1.9-.4 1.9l1.6 3.6 1.6 1.9-.4.4.3.9 1.2 1.4h-1l-.2.7-5.3 3.1-2.2.2-4 1.5-1.4 1.2-1 4-1.8 1.9-2 .7-3-2.4-.7-1.9-1.1-.8-4.4.6-1.9-.4-1.4 1.3-.8-.7.8-1.5-.7-2.7 1.4-2.5-.2-.9 1.4-1.8-.7-.7-1.1 1.2-.6-.6 1.5-2.1-.2-1.8 1-2.1-.9-2 .2-5.9.4-1.2 1.1-.6v-.9l1.1-.4 3.5 1.2v-.8l1.2-.6Z"/><path id="TR-40" d="M227 229.6h1.9l1 2.4 4.7 2.4 1.1 2 3.2.6.4.6-1.4 1.8 2.7 1.4 1 1.8-3 3.3.7 1.4 3.1.3-3.7 4.7v1.6l1.1 1.2h-2.2l-2 1.9-1.9 4.8h-.9l-1.7-1.7.2 1.6-1.7.3-1.4-.5-2.7-2.7v-1.5l-1-1.9-1.6.2-.5-.7-1.4.6-.7-.6-.4-.6-2.6-.2v-.8c-.1 0-2.9-2.4-2.9-2.4l-1.9-.7-1.8-3.1-1.6-1 .7-.7-1.3-2 3.1-1 4-3.1 2-.8 5.4-5 1.2-3h1.9l.7-.9Z"/><path id="TR-41" d="m127.4 182.3 2 .8-1 .7-1.7 3 .3 1-.4.9 1.9 4-.9 1.6-1.9.8.5 3.3-2 .9-1.4 3.4-3.8 1.4-4.5-1.2-6.5 2.1-2.8-.6.5-1.1v-3.7l1.5-1.6 1.3 1.8 6.4-1.5 2.8.5.6-.9-.7-.7-3.4.7-1.4-1.1-3-.4-1.1.6-2.1-.5-2.7.9-.9-.3-.2-1.5 4.4-5.5 2-.4 2.4.6 1.5-2.4 2.6.6 1-.3 1.5-2.5v-1.6h6.2c0-.1 1.2-.6 1.2-.6l.2-.9 1-.7.8.2Z"/><path id="TR-42" d="m169.3 251.7.7.3 2.2 4.4 1.2 1.2 2.6.3 2-2.7.7.8 1.6-.7 2.2 1.7 1.6.2.8-.3 1.5-2.1 2.5 1.2 2.1-1.3.2-2.5 1.7-.9.5-2.8.8-1.2 3.9-1.1.4.4-.2 2.5.8.5 2.3-2.1 2-.6.4 1-1.8 1 .5 3.1 1.4 1.8 3.7 2.3-.2 3.7.8 4.6 2.8 4.3-3.3 1.1-.8 2.5-2 2.2-1.9 6 1.3 2.2.3 2.7 2.5 1.8 1.1 2.4 1.8 2 16.4-3.9 2.1 3.5 2.4 1.4 3.4 4.9.8 2.3-.2 1.2-2.6 3.1 1.9.9-.6 2 2.4.5 1.5 2.2-.7 1.3 1 1.7-4.8 2.6-4.2 1.3v1.9c.1 0-.8.8-.8.8l-5 1.7-5 .7-1.5-4.1-4.3-5.9-.4-6.5-5.8 2-2.9-2.1-2.4.2-2.7 1.4-1.5 2.2-2.6 2.2-1.3 4h-1.9l-.9 1.1.6 3.5 2.5 1.4.5.9-.8 3-1.7 1.7-2.7 1.2-5.7 1-3.1-2.1-.5-2.8-.9-1.1-4.7-2.2-2.7-3.7-1.4-4.3-1.4-1.3-.7-1.8H166l-2.2 1.2-1.8.3-5.6-1.3-2-2 .8-3.3-.7-3.6.7-1 2.1-.7.2-.5v-1.2l-1.2-2.8.2-2 2-1.5.3-1.7 1.9-1.4.2-2.6-.6-1.8-1.9-.7-3.3-2.7-1.6-2.1-.6-1.9.8-2.4 7.7-5-1.4-1.3-.3-1.1 2.1-4 .3-3.5-.5-.9 3.7-.8-.4-.6-3.3-.6-.7-1.4 4.8-.6 1.1-1.7h1.6c0-.1.5-.6.5-.6Z"/><path id="TR-43" d="M93.5 236.4h5.3c0 .1.6-1 .6-1l1.8-1.3.5-1.6 2.7-2.4 1-3.9 2.3.8 1.1 1 3.2-.2 1.1 3.6 2.2 1.9 1 .5 3.8.2 1.5.4 2.8-.6.4.5-.8 1 1.8 1.7 2.9 1.5.6 2.7-.7 1.2.5 2.3-.6 1.3 1.3 1.1.2 1.8 1.5.2-1.1 2.1h-1.7l-2.1 1.5.3 4.5-1.5 2.5-1.8.7-1.7 2.2-1.3.4-1.5-.6-1.2-2.4-5.9-.7-2.6.3-5.4 1.8-2.3 2.2-2.6-.9-3.1.3-2.9-2.2-1-2.4.8-1V256l-5.5-1-1.4-1.1-1-2.1-1-2.5 4.6-.8 3.9-4.4-.6-4.1 1.8-1.9v-1Z"/><path id="TR-44" d="m336 252.1 1.6 1.3 1.9-1.1 1.6 1h2l2.4 2.4-2.1 2.3v1.3c.1 0-.5.7-.5.7l1.5 5-.5.4-2.3-.7-.7.6h-1c0-.1-.1 1.5-.1 1.5l-1.3.7-1.4 2 .3 3 1.9 1.8 6 1.9 3.5-.7 1.8 2.7 1.9 1.3 3.8-.8 1.1 1.6-.3 2.3-.8.8 1 .6-3.2 2.2-.3.9-5.3 2.1-4.4-3-1.3-.2-.4-.7-3.7-1.8-2.6.2-.9.3-1 1.4-4.5 1.7-.2.7.8 1.2.4 2.1-2.5 2.3-2.9.6-2.8-.6-1.3.7-.7-1.6-2 .5.3-1.1-.5-.6-.9-.6-.4-2 3-2.6 1.3-2v-1.5l-2.2-.3.4-2.9-2.3-.4-2.7-2.1-2.1.2-3.6-2v-1.2l1.2-2 1.5-1.3.9-3.1 4-2.1-2.5-3.2 1.5-2.7-1.4-2.6.2-.6 7.5 1.2.7-1-.9-1.8.8-.9 3.6.8h6.1l2.5-1.8 1.6-.3Z"/><path id="TR-45" d="m52.1 244.2 1.6-1 2.9 2.3 4-.6 2.2 2.3 2.7-1.8.8.9.8 2.3 2.8 2.2 2.7 3.9 1.2-.2 1.7-1.5 2.7.5 4.5-2.5 2.2.2 1 2.1 1.4 1.1 5.4 1v1.4l-.7 1 1 2.4 2.9 2.2-1.6 3.4-2.2 1.3h-1.6c0 .1-.7 1-.7 1l-1.2 7.5-1.7 2.9 2.6 3.6-1.5 1.3-.9 2.2-2.9 1.7-3.1-1.3-1.6-1.9.3-2.3-3.3-1.1-1.8-1.7-2.3-.4-.7-1-2.5-1.2-2.5.6-.9-.7-1.2.3.3 1.9-.7 1-.5-.8H62l-1.3-2.6-1.7-.2-1-1-1 .2-.9-1.5-1.8.2-.7-1.5-1.2-.6-2.8.2-1.2-.9-.2-3.2-2.5-3.4 1.4-2-.2-.8 3.3-1.7 1.3.4 2.9-1.2 1-1 .4-2-1.9-5.1.4-2.6-1.4-1.4-.5-2.9Z"/><path id="TR-47" d="m405.6 299.2 2.1 7.1 7.2-.6 4-1.9 2.7-2.4 3.8-.4 1.4-1.2.3 2 1.7 2-1.1 1-.3 1.2-1.8.7-3.8.2-.5 1-.8 6.7.3.7 1.2-.4.7 2.2-.2 1.7-3.7 1.2h-6.1l-1.3.5-1.4-1.1-6.6-1.2-1.9.8-1.8-.6-6 3.1-3.2.5-1.3 1.6-3.3 1.8-.4-1.5-1.4-1-.4-2.8-1.4-2.2v-1.1c-.1 0-1.1.1-1.1.1l-1.1-1.1-.3-2.1-1.6-3.9v-1.7c-.1 0 .6-1 .6-1l-1-1.7h1.5l3.5-1.6 3 1.8h1.3c0 .1 4.2-1.5 4.2-1.5l.4-1.2 5.5 1.4.5-.9-.6-2.1.4-1.6 5.3 1.5 2.3-.6.6-1.4Z"/><path id="TR-48" d="m52.5 309 .4-2.4 1.6-1.2 1.9-.3 2.7 1.1h1.6c0-.1 1.9 1.6 1.9 1.6l3.1-.5 4.6.4 3.4-2.7.4 1.3 5.7.2 3.4 2.5.8-.2.5 1.7 1.3.2 1 1.3v1.8l2 1.2 1.1 2.3 1.6.6 2.6-.4.2 2.3 1.8 2.6v2.4l.7 2 1.8.7 2.4-.4 1.4-.9.6.7h1.4l-.7 1.7 1.7.5.3-.9.7.2 1.9-4.6 2.8-1.2 2.2.8 1 .8.3 1.4-1.5 2.6v3.9l-.8 2-2.4 1.5-1.4 2.4-1.4 1.3-3.2.2-2 1.1.3 1.5-.6.2v2.2l-1.2.9-1.1-1.1-1.5-.4-.7-.6.2-.6-1.2-.3.8-.9-.2-1.5-.6-.4.6-.8v-1.4l-.9-.2v-.6c-.1 0-1.1.3-1.1.3v.5l-1-.2.9-.5v-1.9c-.1 0 .8.2.8.2v-1l.7.4-.3.5.7-.2.2-.7-.7-1-1.1-.2-.9-1.1-.6.2-1.7-1.5-.8 1.8H90c0 .1.1.9.1.9l-.5.3.4.8.3-.4.7.3-1.6 1.6-.6-1.2.7-.4-.9-.7-.6.3.3-.6-.5-.6-1.6-.6-1.4.4-.6-1-.8.6.2-.8-.4-.2.7-.7-.5-.3.4-.4-1.1-1.2-.9-.4-.4 1.4-.4-.5-.5.3v-1l-1 .2v-2.1c-.1 0-2.1 1-2.1 1l.2.5h1l-.6 1.4-2.3-.9v.7h-1l-.2-.7 1.2-.3-1.2-.8-.8 1.5 1.8 2.4h-1.3l-.8 1.3-1.6.2-1.6 3h-.8c0-.1-1.3.9-1.3.9l-.3-.5-.7.9-.5-1.7h2.5l.9-1.2-.4-.5-.7.2.5-.8-.8-.5-.4.7-1.5-.3 2.3-1.4 1.1-.2v.7c.1 0 .8-.6.8-.6l-1.1-.8 1.2-1.5h-1.3l-.5 1.1-2.9.3-.5.5-5.2-.6-1.1 1.2-.3 2-2.6-.7-2.5 1-3-1v-.8l1.5-.1.3-1.2 4.6-.5.9-1.5 1.6.8 3-.9 5.9.4.3-1.3h-1.4l.5-.2-.6-.3 1.5-.7v-.7c-.1 0-1-.3-1-.3l.7-.2-.6-.5 1.9-.5 1.7.5v.6-1.3H73c0-.1.3-1.6.3-1.6l.9.3v-.5l2.1-.8-.2-.7-5.8.6.4.6h-.4c0 .1-.2-.4-.2-.4h-2.9c0-.1-.8.4-.8.4l-1.4-.4-3.4 1.3-1.9-.4-1.2.8-1.6-.4-.2.6-1.2-.6-1 .2-1.5-1.7-.3.6-.4-.4-.5 1v-.9c.1 0-1.2.4-1.2.4l-.7 1.9-1-.3-1-3.1 1.8-1.7h-1v-.6l.5-.4 1 .8.3-1.4.6.9.5-.8.7.4v.8l1.1-.3 1 1.5 1.7-1.5 1.1-.3-1-.5-.3-1.3 1-.6.5.4-.3.7h.4c0-.1-.4-1.2-.4-1.2l1-2.1h-1.5l-.9 1.7-.6-.3.7-.7-.4-.7-1.4.9 1-2.3-.6-.8-.8 1.4-1.4-.7-.2-1.1 1.3-.8-.5-1.1Z"/><path id="TR-49" d="m441.6 239.8 2.2 2.3 1 2.6h2.2l.3 2.1 2.6 5.8-.5 2.5v4h.1l-6.3-.5-6.3 1.9-.9 1-.5 1.8-1.4.7.2 2.2-3.7 3.3-.7 1.7-4.5-1-4.9-.3-1.9.9-.2.6-1.3 1.8-2 .4-.2-1.9-1.2.2-1.3-1-.7-2.7.3-1.9-1.7.8-1.4-1.1-.4-3.9.5-3.5 1.7-2 2.9-1.2.4-1-.4-1.2-2.2-1.3-2.4-4.2v-1.8l1.2-1.4 1.6.6 5 .2 4.4 3 .6 3.1h4.4c0-.1 4.7-1.4 4.7-1.4l2.6-1.8v-1.4l3.2-.7.6-2.9 4.2-3.2Z"/><path id="TR-50" d="m241.5 242.6.4 1 2 .9 3.4.5 2.4 1.9.4 1.5-.4 1.3 1 2.3v2.1l1.2 2.2-.4 2.7-1.9 4.4 2.1 1.2 2.4 5.7-2.9 4.2-3.1 1.4-.6 1.7-3.4-.2-2.2 1.6h-1.1l-2.5-1.1-1.1-2.2-1-1-.3-2.4-1.8-2.8-2.8-1.5-.2-1.6 1-1.8v-2.4c.1 0-.5-.6-.5-.6l-.2-1.6 1.7 1.7h.9l1.9-4.7 2-1.9h2.2l-1.1-1.3v-1.6l3.8-4.7-3.1-.3-.7-1.4 3-3.3Z"/><path id="TR-51" d="m237.1 275.9 1.1 2.2 2.5 1.1h1.1l2.2-1.6 3.4.2 1.3 1.9 2.1 1.5.8 2.9 3.6.3 1.5 1.1.2 6.2-1.2 3.6-2.8 1.7-2.1 3.1-3.2-.4-1 4.4-.6.9.5.9-1.7 1.3-5.2 2.2h-2.1l-1.5-2.1-2.4-.5.6-2-1.9-.9 2.6-3.1.2-1.2-.8-2.3-3.4-4.9-2.4-1.4-2.1-3.5 2.1-2.1 2.8-.7 1.3-1 2.1-3.1.5-3.7 1.9-1.1Z"/><path id="TR-52" d="M306.9 184.2h2.4l.1.7 2.6.7 3.7 2.8 1.8-.9 1.9-3 .5.7h2.2l-.2 1.8.8 1.2 1.6.5.3.9 5.7.8-.6 2.1-1.9 2.8.4 1.5-1.4 1.1 1 2.5 1.5.9-.6 1.1.9 1.5-.2 2.3-1.2 1-1.9.2-.4 1.4-2.3 2.2-1.3-.9-1 .9-2.7-.5.6-1.3-1.7-1 1.2-1.8-.2-.6-3-.9h-3.9l-4.2-3.8-1.1-.4-.2-.7-1.6-.7-2.6.8-1.4-1H299l-.5-.6v-1.7l-3.1-1-.2-.9-1.2-.7.2-.9 3.1-1.7.7-1.2h2.5c0-.1.8-.7.8-.7l1.1-1.4-.4-1.5 1.1-1h2l1-1.5h.8Z"/><path id="TR-80" d="m282.4 299.9-.7 1.5 1 9.4h2.3l.5.4 3.4-1.1h4.3l.2.7-.8 1.7 1 2.1-.3 1.6-5.8 6.9-1.9-.4-1.9.3-4.2-1.9-2.4.5.8-5.7-1.5-6.7.3-2.8.8-2.6 1.4-2 3.4-1.8Z"/><path id="TR-53" d="m412.5 177.5.8 1.4v1.8c.1 0 3.7 4.8 3.7 4.8l-1.7 1.1-3 3.4-.5 1.9-2.3 3.1-3 1.8-4.8 4.5-6.8 3.2-2.7.7-.9-2.7 1.7-3-2-3.1.6-2.8-1.3-1.3-.2-1.8-2.2-.8 1.7-1.7 3-.6 1.1.5 4.5-2 2.3-2.6 1.9-.7 1.5.2 3.2-1.3 5.4-4.3Z"/><path id="TR-54" d="m136 184.7 3.4 1.5 5.7.5 1 .9-1.3 1.8-1.8 1.5-1.7.3-.9 1.3.3.6h1.6c0-.1.9 1.2.9 1.2l-1.2 1.1-.3 1.2.2.7 2.4 1.2-.9 1.8-.9 1.5 1.2 2.2-1.5 1.4-3.6.8-4.2-.2.2 3.8-.5 1.1h-1.2l-1.1-1-2.1 1-1.2-.7-2.6.9-1.5-.3-1.3-.9-1.1-1.8-.9 1-.7-.2-1.7-3.2.3-1.7 3.8-1.4 1.4-3.4 2-.9-.5-3.3 2-.8.9-1.6-1.9-4 .4-.9-.3-1 1.7-3 1-.7 6.6 1.6Z"/><path id="TR-55" d="m275 163.8 2.5 2 1.2 1.8.5 5.7 2.7 3.5 2.6 1.5.2 1 1.2 1.1 1.7.3 2.3-1.1 2.8-3.9.6.7 4.9.9 3.3 1.9.8.9.2 2.4 3.5 1.5-1 1.6h-2l-1.1 1 .4 1.5-1.1 1.4-.8.6h-2.5c0 .1-.7 1.3-.7 1.3l-3.1 1.7-.2.9-1.2-.9h-1.6l-2.2.9-1-.2-1.7 1-3-1.2 1-1.2-.2-.7-3.5-1.3-.6 1.3-.8.3-1 3.1-4.4-1.8-3.2.8-.9-.9h-2.7c0-.1-.5-.8-.5-.8l.2-1.1-1.9-1-1-2.4-.9.6-.4-.8-.9.7-1.7-.9-3.4.6-1-1.3-3.2-.4-2.4-.3-1.2-.8 1.3-2.3-1.7-3.7v-1.5l4.4-2.4.6 2.2 1.3.9v1.3l3.1 1.2 1.3-.4.8-1.2-.4-2.3 1.1-.2 2.1.9-.5-4.3-2.7-1.3-.8-2.7 1.2-2.5 1.1-1 2.2 1.1h2.8l9-3.5Z"/><path id="TR-63" d="m358 289.2 5.3 2.1 2.1 2.4 3.6.6 1.7 2 1.6-1.7 2.2-.5 1.1 2.8.3 6.4 1.9 2.2 1 1.7-.8 1v1.7c.1 0 1.8 3.9 1.8 3.9l.3 2.1 1.1 1.1h1c0-.1.1 1 .1 1l1.4 2.2.4 2.8 1.4 1 .4 1.5-1.3 1.1-3 .7-.8.9-5.5 2.3-15.8 2.8-4.9-1.3h-7.4l-4.9-4.4-4.3-1.9-3.7-.7-5.3 2.1-.3.9.5-1.5-1.1-1.4v-1.2l-1-.8.3-2.2-1.6.4-1.4-.9.4-2.3-1.1-2.2.2-.6 1 .2-1.1-1.4.5-1.7.7-.3-.3-.6 2.6-3 1.7-.2.7.5.5-.7 2.4 1.3.5-1.3 1.2.2.7-1.1 4.3-.3 1.3-.7 4.2-3.7 5.2-1.1-.9-1.3 1.7-.3.8-.5v-.9c.1 0 1.2-.3 1.2-.3v-1.6h-1.6l.8-.8h1.3l.4-1.9-.5-.4 1.4-.6.8-2.3.8-.7 1.9-.4Z"/><path id="TR-56" d="M423.7 282.2h2.7l.8 1.2 1.1.4 2.8-.5v.8l.7.2h1l2.2-1.3h2.6l6.4 7.3 1.9.7.4.8.9-.8-.2-.6 1.4-.6.4-.7 1.9 2.4 1.2.6 1.2 3.1 1.1.8.2 4.8-3.4-1.2-3-.2-2.9-1.6-1.1.4-4.3 4-1.6.7H436l-1.1-.9-1.9.8-1.9-.8-2.1.2-2.2-2.2-1.4-.9-1.5.3-3.2-1.1-.8-1.4-6-4.6.3-1.3 3.2-3.1 4.1-1.7 2-4Z"/><path id="TR-57" d="M248.6 151.4h1.5l1 1.2-.2.6.9.5 2.9-.5.5.9-1.6-.3-1.3 1.9v1.6c-.1 0 .9 2.2.9 2.2l1.9 1.9v1.1l1.9 1.9 4.1 1.7-1.1 1-1.2 2.5.8 2.7 2.7 1.3.5 4.3-2.1-.9-1.1.2.4 2.3-.8 1.2-1.3.4-3-1.2v-1.3l-1.4-.9-.6-2.2-4.4 2.4-2.1 2.8h-1.8l-1.7 1.4h-1.6l-1.5-1.1-.8-1.8-2.1-1.3-1.3.6-.6-1.7 1.8-3.7-.6-1.8 2.3-1.9.9-3.5-1.5-1.2-3.1-.6-1-2.2h-3.1c0-.1.7-2 .7-2l-.4-1.7-1.1-1v-1l2.9.2 3.6-1.1 1.4 1h6.2l3.2-2.5 1.1-1.9v-.7h.2Z"/><path id="TR-73" d="m454.1 296 2.9.9 2.1 1.6 6 1 1.5-.3 1.8-2h1.6l-.8 3.4-3.7 4.2 1.2 2.4.2 4.8h-.6l-.6.8-1.8-1.4-3.1-.9-2.4.7-1.7 1.4-3.2-1-.2-.8-.9-.4-1.7 2.2h-1l.2.8-2.1 2.3-.9 2.3-2.9.3-3 1.2-.9-2.6.5-1.6-1.5-1.6h-2l.5-1-.4-.2-4.6 4.5-6.3 1.7-3.9.4.2-1.7-.7-2.2-1.2.4-.3-.7.8-6.7.5-1 3.8-.2 1.8-.7.3-1.2 1.1-1-1.7-2-.3-2 2.2 2.2 2.1-.2 1.9.8 1.9-.8 1.1.8h2.1l1.6-.6 4.3-4 1.1-.4 2.9 1.6 3 .2 3.4 1.2-.2-4.8Z"/><path id="TR-58" d="m329.3 206.2 2.9 1.2-.6 2.5v4.1c.1 0 1.6 2.5 1.6 2.5l2.7.5 2 1.4 1-.5.6.6 1.6-1.1.8 2.4 1.7.8 3.6.2-.8 1.6-2.7.3-2 1.8-3-.3-1.6 1.4v1.4l2.7 2.2-2.9 2.1-1.1 3.4.5 3.2-1.2 2.4.8 2.2 1.8 1.1-.4 1.1-1.8.4 1.9 3.3-1.9 3.7-1.6.3-2.5 1.7h-6.1l-3.6-.7-.8.9.9 1.8-.7 1-7.5-1.2-.2.6 1.4 2.6-1.5 2.7 2.5 3.2-4 2.1-.9 3.1-1.5 1.3-.7-.5-2.8.2-4.3-.8-6 1.3-2.1-4.5 2.3-2 .4-3.1 1.3-2.3 2-1.8-1.2-3.4-1.7-1.4-2.6-1.1-3.7.6-5.7-.4-4.1 1.1h-2.6l-1.1-1.8-1.2-.7-.6-1.6-4.5-1.9 2.2-3.1.5-4.2 2-.8 1.6.7 1.2-.2 2.7-2.8-.5-3.5-2.2-2.6.4-2.9-2.2-.9v-2h-.1l1.7 1.4h1c0 .1.5-1.7.5-1.7l1.2-.6 8.3.2 2.8-1 .9-1.3.5-3.6 1-.4 1-2 1.2-.6h5.9c0-.1 1.2.7 1.2.7l3.8-.3 1.2.7h1.6l.8.8h1.1l.2-1.5 3.4-1.4-.4-.8 1.7-1.3 1.1-1.8 2.7.5 1-.9 1.3.9 2.3-2.2.4-1.4 1.9-.2 1.2-1Z"/><path id="TR-59" d="m40 178.6 1.4-1.3 1.9.4 4.4-.6 1.1.8.7 1.9 3 2.4 2-.7 1.8-1.9 1-4 1.4-1.2 4-1.5 2.2-.2 5.3-3.1.2-.8h1l.3.5-2 9.8-1.5 2.6v1.5l-1.1 2.2v1.8c-.1 0 .5 1.2.5 1.2l-1 2.1h-2.1l-3.2-1.7-6.3 1.4-1.1 2.2-.4 2.3-2.9 2.7-1.2 2.4-3.1 2.3-3.5 1-1.3 1.4-1.7.4V203l2.1-4.9-2-.7-3.7.2-2.5-3.2.7-5.2-1.3-1.2.5-.7 2.7-.4 2.6-2.6 1.5-2.6-.5-3.1Z"/><path id="TR-60" d="m286.3 195 1.7-1 1 .2 2.2-.9h1.6l1.2.9 1.2.7.2.9 3 1v1.7l.6.7h1.5l1.4 1 2.6-.8 1.6.7.2.7 1.1.4 4.2 3.9h3.9l3 .8.2.6-1.2 1.8 1.7 1-.6 1.3-1.1 1.8-1.7 1.3.4.8-3.4 1.4-.2 1.5h-1.1l-.8-.7h-1.6l-1.2-.6-3.8.3-1.2-.8H297c0 .1-1.2.7-1.2.7l-1 2-1 .4-.5 3.6-.9 1.3-2.8 1-8.3-.2-1.2.6-.5 1.8h-1c0-.1-1.7-1.5-1.7-1.5l-1-.9-.5-4-4.8-.2-2.8.6-.9-.6-2.8-.4v-2l-1.8-1.4-.3-2 3-1.9 3-.7 1.6-1v-1.1c.1 0 1.7-1 1.7-1l.7-1.9 3.5-.2 1 .5v.6l2.3.9.7-1 3.4-1.6.6-1.4 1.3-1.1-1.7-.3-.2-.8 3.5-.3.7-1.3-.2-1.5 2-1.8-2.1-1.1-.3-1.1Z"/><path id="TR-61" d="m365 185.7 1.4.4 2.1 2.3 2 .9 1.9-.5 2.8.9 1.1 1.1h4.3c0-.1 2.1 1.4 2.1 1.4l2.8-.5 2.3-1.7 2.2.8.2 1.8 1.3 1.3-.6 2.8 2 3.1-1.7 3 .9 2.7-5.5.6-2.2-1.9-1.5.4-1.4-1 .3-1.2-1.4-1-1.9.3v.9l1.8.8.4.7-2 .9-.6-1.2-2.8-1.1.5-2-.4-1H374c0 .1-.3 2.6-.3 2.6l-1.4 1.5h-2.7c0 .1-1.6-1.3-1.6-1.3h-1.7c0 .1-.3-1.1-.3-1.1l-1-.2-1.5-1.6-3.8-.8-1.6-.9V187l2.6.9 3.6-2 .4.2Z"/><path id="TR-62" d="m347.3 255.8-.6-3.4.8-1.6-.8-.7.5-.7 2-.4 1.4-1-.6-1.9.2-1 3-2.4 5.3-2.5 4.7.7 3.8-1.1 5.5.8 1-.7 1-3.4 1.1-.5 4.9 1.2 1.1.7 3.1-1.2 3.7.7 1.9 1.9-6.3 5.5-4.8-.3.7 2.7-1.7 1.4-1.3 4.5-1.2 1.5 1 1.6-.8 3.1-1.2 1.3-.4 1.9-1.1-.4-2.2.6h-3.8l-.6 1.6-.6.2-1.4-.7-1.1.5-.5-1.1-1.8-.6-1.2-1.3-7.8-1.3-2.7 1.4-2.5-.8-.4-.9 1.2-2.1-.2-1.1-.9-.9Z"/><path id="TR-64" d="m95.9 262.6 3.1-.3 2.6.9 2.3-2.2 5.4-1.8 2.6-.3 5.9.7 1.2 2.4 1.5.6-.4 1.6-2.5 2.1.6 2.5-1 .6-2.9 3.9-4.4 3 .2 3.7-.8 1.1-7.3-1.6-2.2 2.5.2.9-.8.2-.3 1.6-.9-2.1h-8.8l-2.6-3.7 1.7-2.9 1.2-7.5.7-.9h1.6c0-.1 2.2-1.4 2.2-1.4l1.6-3.4Z"/><path id="TR-65" d="m484.6 244.6 1 1.2v1.2c.1 0 .7.3.7.3l-.5 1 .3 1.7 1.8 1 1.2 1.5.3 1.3-.8.7.5 1.7-1 1 .7 1.4-.2.5.7.6-.2.9.9 1.3 1.4.4.4 1-1.4 3.1.5 1.2-.3 1 1.3 1.1-.3 2.9.4 1.5-.6 1.3.4 1.2-.4.5.5.7h1l.5.5 1.8-.9.4.9 1.3.6-.4 1.2-2.5 1.8-.3 3.4-1.1.4.4 1h-1c0 .1-.5 2.1-.5 2.1l-1.7 2.6.3.7-.7 1.8 1.1.7 1.4-.3 1.8.5.2 1.4.8.7.6-.3v1.2l-1.2.6-2.4-.2-1.2.9-3.5-.3-.8-1.6-1.7-.9-3.2.8-3.6-.3-4.8 1.4-3-.7h-1.6l-1.8 1.9-1.5.3-6-1-2.1-1.6-2.9-.9-1.1-.8-1.2-3.1-1.2-.6-1.9-2.4 1.2-6.4-.3-1.5-1-.8v-.8l2.9-2 .2-3.9 4.1-6.1 2.5-2.4 3.6-2.1 1.4-2v-.9c-.1 0-3.3-1.4-3.3-1.4l-.6-1.5-2-1.6 2-3.5 2.6-2.1v-5c.1 0 3.1-.9 3.1-.9l3.4.2 3.3 3.5 2.7 1.4 2 .3 2-1.8 1.9-3.1 4.3-.7z"/><path id="TR-77" d="m104.8 199.8.8-.2v3.7l-.4 1.1h-3l-3.1 1-5.6-1.2-.4 3.4-5-2v-.6l5.5-3.7 7.3-.5 1.8-.5.9-.9z"/><path id="TR-66" d="m261.7 214.1.3 2 1.7 1.4v2l2.9.4.9.6 2.8-.6 4.8.2.5 4 1 .9v2c.1 0 2.3.9 2.3.9l-.4 2.9 2.2 2.6.5 3.5-2.7 2.8-1.2.2-1.6-.7-2 .8-.5 4.2-2.2 3.1-1.3 1.9-1.3.7-6.5.9-.7 1 .9 2.3-3.6 2.6-3.3 1.3-.5-.4-.2-2.2-2.6 1-1.2-2.2v-2.1l-1-2.3.4-1.3-.4-1.5-2.4-1.9-3.4-.5-2-.9-.4-1-1-1.8-2.7-1.4 1.4-1.8-.4-.6-3.2-.6-1.1-2-4.7-2.4-1-2.4h-1.9l-.4-2.8-1-1.3 2.1-.8.3 1.1 2.3-.7 3.1.4.7-1.2 2.4-1.7 1.1.3 1.1 1.1 1.7.4 1.7-.8 3.3-.2 2.3-2.4.5.3.2 1.5 6.7-.5.6-.9-1.3-2.2 1.3-1.1-1.4-2.2.7-.3 1.5 1.2 1.3-1.6 2.2-.7 1.7-.3Z"/><path id="TR-67" d="m175.1 168.6 1.5 2.5 1.8.3v1.8l1.2 1.4v1.5l-1 2.1-1.3 1.1-1.1 3.6 1.1 3-9.8 2.5-2-1h-4.8l-3 1.2-1.4.4-1.6-.3-1.1-3.7 2.6-3.1.3-2.2-.7-.6.2-.8 5.6-2.2 6.7-4.5 3.5-1.4 1.1-1.1 2.2-.6Z"/></g></svg>