<?xml version="1.0" encoding="UTF-8"?>
<svg id="Layer_1" xmlns="http://www.w3.org/2000/svg" xmlns:amcharts="http://amcharts.com/ammap" version="1.1" viewBox="0 0 512 512">
  <!-- Generator: Adobe Illustrator 29.1.0, SVG Export Plug-In . SVG Version: 2.1.0 Build 142)  -->
  <g id="_x3C_defs">
    <amcharts:ammap bottomLatitude="35.805510" leftLongitude="25.663689" projection="mercator" rightLongitude="44.819611" topLatitude="42.099732"/>
  </g>
  <g>
    <path id="TR-01" d="M286.9,281.1l-1.9,5.6-1.8,2.2,2,1-1.8,2.5,1.6,3.4-.7,2.3-1.8,1.8h0l-3.5,1.8-1.4,2-.8,2.6-.3,2.8,1.5,6.6-.8,5.7h0l-1.4,1.7.2,1.6h0l-5.6,5.4h-3.1s-1,.6-1,.6l-.5,1.1.6-.3v.7s0-.9,0-.9l.6-.3v1c0,0,1.2-.1,1.2-.1v-.5c-.1,0,.5.5.5.5l-2,1.4-.5,2-1.9,1.3-3.2-.8-2.4,1.7-8.7-5.5-2.6-.4h0l1.3-.7v-.6c.1,0,1.8.1,1.8.1v-.7s.4.4.4.4l.8-1.1,1.8.5.5-1-.4-4.3-.8-3.8-1.9-1.1h-1.1s-.6-1.5-.6-1.5l-1.4-.8v-1s1.3-1.2,1.3-1.2v-.8c0,0-3.9-4.5-3.9-4.5l-.4-2.3h0l1.7-1.3-.5-.9.6-.9,1-4.4,3.2.4,2.1-3.1,2.9-1.7h0l3.4,1.2.8-.2.8,1.1,4.5.3.8-1.3.8-5.9,2.1-.9,2.7-3,4.1-1.6,1.6-4.1,2.3-3.1,3.2-.9,4.1,4.1Z"/>
    <path id="TR-02" d="M357.4,283.8l2.1-.7,1,1.8-1.1,2.8-1.5,1.6h0l-1.9.4-.8.7-.8,2.3-1.4.6.5.4-.4,1.9h-1.3s-.8.7-.8.7h1.6s0,1.6,0,1.6l-1.1.3v.9c-.1,0-.9.5-.9.5l-1.7.3.9,1.3-5.2,1.1-4.2,3.7-1.3.7-4.3.3-.7,1.1-1.2-.2-.5,1.3-2.4-1.3h0l-3.5-1.5-4.8-.2-1.1-1.2-2.7.8-1.1-.5h0l-.9-2.3-2.5-.3-.4-1.2.8-1.2.2-2,1.6-1.7v-2.9c0,0,2-1.2,2-1.2l.9-1.7h0l.5.6-.3,1.1,2-.5.7,1.6,1.3-.7,2.8.6,2.9-.6,2.5-2.3-.4-2.1-.8-1.2.2-.7,4.5-1.7,1-1.4.9-.3,2.6-.2,3.7,1.8.4.7,1.3.2,4.4,3,5.3-2.1.3-.9,3.2-2.2Z"/>
    <path id="TR-03" d="M131.5,248.8l2,.4,1.3,3.1,1.8.9,2,2.1,1.1-2.5,5.1.6.6-1.3-1.9-1.3v-.7c-.1,0,1.4-.1,1.4-.1l2,.9.4-1,1.2-.2.7-2,.9-.6,2.4,1.7,2.2-.6,2.8,2.6.4,1.8,2.2.6,1.1,1.7h0l.7,1.4,3.3.6.4.6-3.7.8.5.9-.3,3.5-2.1,4,.3,1.1,1.4,1.3-7.7,5-.8,2.4h-.8c0,.1-1.2-1.7-1.2-1.7l-1.6-1.3-3.5.6-2,1.9-2.3,1-1.9,3.4-3.7,2.4-3.4.9-4.3,4.7-2.5,1.2-2,2.5v2.2c.1,0-1.2,2.7-1.2,2.7h0l-4.9-.2h0l-4.8-2.7-.9-1.9.2-1.8,3.3-3.1,1.3-2.1h2.8c0-.1,1.2-2.1,1.2-2.1l1.7-1.4-1.5-4.2-1.7-.7-.7-1.1h-1.1c0-.1-.9-1.1-.9-1.1h-1s-1.3-.9-1.3-.9h0l2.9-3.9,1-.6-.6-2.5,2.5-2.1.4-1.6h0l1.3-.4,1.7-2.2,1.8-.7,1.5-2.5-.3-4.5,2.1-1.4h1.7c0,0,1.1-2.2,1.1-2.2Z"/>
    <path id="TR-04" d="M445,226.4l14.9-3.6,4.7.7h0l2,.5,1.8,2.1.3,4.4h1.5c0-.1,1-1.8,1-1.8l1.1-.3,2.1,1.7,4.5.4,2.3,1.7h4l2.7.8,2.4-.3,3.4,1.5,2.4-.3h0l.2,2.4-1.5,1.5.5,2.1-.7,1.1.3,1.9-3.4,1.4-1.5-1.5-2.3.6-1.9-.5-.9,1.1h0l-4.3.7-1.9,3.1-2,1.8-2-.3-2.7-1.4-3.3-3.5-3.4-.2-2.9.9v5c-.1,0-2.7,2.1-2.7,2.1l-2,3.5h0l-1.4.5-.2,1.8-3.3,1.5-3-.4h0v-4c-.1,0,.4-2.5.4-2.5l-2.6-5.8-.3-2.1h-2.2s-1-2.5-1-2.5l-2.2-2.3h0l1-1.8,2.1-1.7.4-.9-1.8-1.9-3.4-1.7-1.2-2.7.7-.8,5.5-1.8Z"/>
    <path id="TR-68" d="M220.4,255l.7.6,1.4-.6.5.7,1.6-.2,1,1.9v1.5s2.7,2.7,2.7,2.7l1.4.5,1.7-.3h0l.7.6v2.4c-.1,0-1.1,1.8-1.1,1.8l.2,1.6,2.8,1.5,1.8,2.8.3,2.4,1,1h0l-1.9,1.1-.5,3.7-2.1,3.1-1.3,1-2.8.7-2.1,2.1h0l-16.4,3.9-1.8-2-1.1-2.4-2.5-1.8-.3-2.7-1.3-2.2,1.9-6,2-2.2.8-2.5,3.3-1.1h2.5c0,0,4.2-1.7,4.2-1.7l1.7-3.6-.8-2.6,1.1-1.6v-2.2c.1,0,.9-1.8.9-1.8Z"/>
    <path id="TR-05" d="M252.4,186.7l3.2.4,1,1.3,3.4-.6,1.7.9.9-.7.4.8.9-.6,1,2.4,1.9,1-.2,1.1.5.7h2.7c0,.1.9,1,.9,1l3.2-.8,4.3,1.8,1-3.1.8-.3.6-1.3,3.5,1.3.2.7-1,1.2,3,1.2h0l.3,1.1,2.1,1.1-2,1.8.2,1.5-.7,1.3-3.5.3.2.8,1.7.3-1.3,1.1-.6,1.4-3.4,1.6-.7,1-2.4-.9v-.6c0,0-1-.5-1-.5l-3.5.2-.7,1.9-1.6,1v1.1c-.1,0-1.7,1-1.7,1l-3,.7-3,1.9h0l-1.7.3h0l1.5-2.5-1.3-.9.8-1.8-.4-1.2,1.2-.5v-1.1s1-.7,1-.7l.4-1.3-1.5-2.7-2.9-.7v-2.3c.1,0-3.5-.3-3.5-.3l-2.5.7-2.4-1.8-.2-2.1,1.9-3.5-1.6-2,2-1.5v-1.4Z"/>
    <path id="TR-06" d="M186.2,199.3l2.5-.2,4.6,2.7,3.1.7.4,1-.6,2.3h2.4s3.4,1.4,3.4,1.4l2.9,4.7,1.5-.7,1-1.6,1.6.3.7.9,2.2-.3,4.1.7.5.7h0l-1.6.3v.9s-1.3,1.3-1.3,1.3l.3.4-.7,1.5.4.8-.5,2.8.7,1-1.5,1.4-4.2,1.5-1.5,4.2-.8.3.3,2.2-2,3.3,3.5,3,.5,4.4-.3,1.6,1,.5h0l1.3,2-.7.7,1.6,1,1.8,3.1,1.9.7,2.8,2.4v.8c.1,0,2.7.2,2.7.2l.4.6h0l-.7,1.8v2.2c-.1,0-1.2,1.6-1.2,1.6l.8,2.6-1.7,3.6-4.2,1.7h-2.5c0,0-2.8-4.3-2.8-4.3l-.8-4.6.2-3.7-3.7-2.3-1.4-1.8-.5-3.1,1.8-1-.4-1-2,.6-2.3,2.1-.8-.5.2-2.5-.4-.4-3.9,1.1-.8,1.2-.5,2.8-1.7.9-.2,2.5-2.1,1.3-2.5-1.2-1.5,2.1-.8.3-1.6-.2-2.2-1.7-1.6.7-.7-.8-2,2.7-2.6-.3-1.2-1.2-2.2-4.4-.7-.3h0l.2-1.6,3.9-4.3v-.7c0,0-1.8-.7-1.8-.7l.5-.9-.7-.9.4-2.6-1.1-.4.2-.9-1.2-1.2-.9-3.5-1.7-2.3,1-2.9.8-.7-1.3.2.5-.7-.4-.4-1.4.2-.9-.8-.8-1.2v-1.2c0,0-1.2-.5-1.2-.5l.4-1.2-1.3.3.2-1.4-1.2,1-2.2-.5-.9.6-1.1-.8-1.6.9-.4-.6,1-.3-.9-.6-1.3.6-1.9-.6-1.9.5-2.1-.8-.4.7-1.9.2-.3.6h-2c0,0-2.2-1.2-2.2-1.2l-.7-3h0l2.6-1.6,5.3-5.9,2.7.4,4.6-.8.6.4.4,1.6,3.9.5,3.9-.8h3.8c0,.1,1.9-1.4,1.9-1.4l1.8-.3,2.1.3,1.1,1.2,1.8-.2.6-1.2-1.5-2.2.8-2.4,1.3-.9,4.9-1.6v-.8c0,0-.9-1.1-.9-1.1v-1c.1,0,.9-.7.9-.7l2.1-.4Z"/>
    <path id="TR-07" d="M154.7,307.7l2,2,5.6,1.3,1.8-.3,2.2-1.3h1.1c0,0,.7,1.9.7,1.9l1.4,1.3,1.4,4.3,2.7,3.7,4.7,2.2.9,1.1.5,2.8,3.1,2.1h0l-.5,3.4.3,1.2,3.8,3.9h0l2.2,6.6-1.5,4,.5,1.4-1.2,2.2h0l-1.9-.3-4.9-3.9-3.5-6-3.7-4-.8.3-.7-.9-4.9-1.5-.9-1.1-2-.4-2.9-2.1-4.3-1.6v-.6s-1.5-.9-1.5-.9l-8.4-1.6-6.3.3-1.6-1.2-1.7.9-1.5,1.9-.5,5.7.9,1-2.2,4v.9s-.7.2-.7.2v1.1c-.1,0,1.3,2.1,1.3,2.1l-1.6.7.5,1.1-2.1,2.2v-1.9c.1,0-1,0-1,0l-2.2-1.4h-2.4s-.9.4-.9.4v.9s-.3-.2-.3-.2l-.6,1-1.5-.9-.2.7-1.7,1.2-1.4-.6-1.2,1.2h-1.2l-1,1h.8c0-.1-1.4.8-1.4.8l-.5-.2.6-.4-1.4-.2-1.2.9-1.3-1.1.5-.2v-.7c-.1,0-1.7.3-1.7.3l1.2-.6-5.7-.6v-1.1c.1,0-.6-.2-.6-.2h-.5c0,0-.4,1.1-.4,1.1l-2.3-2.1h0l1.3-.9v-2.2c0,0,.5-.2.5-.2l-.3-1.5,2-1.1,3.2-.2,1.4-1.3,1.4-2.4,2.4-1.5.8-2v-3.9s1.5-2.6,1.5-2.6l-.3-1.4-1-.8h0l2.3-2.1-.5-2.4.6-1.1,2.8-2.5,2-.7,4.1-3.1,3.6-.2,4.4,2.7,7.9.3,1-.6,2-4.1-.7-1h1.7s2.3,1.9,2.3,1.9l2.6-2,5.1-.7Z"/>
    <path id="TR-75" d="M449.9,168.4l2,.8,1.6-.2-.9,3.1,1.2.8.4-.9h.9c0-.1,0,.6,0,.6l1.8,1,1.4,2.6,1.9.6,1.1,1.3,2,.5v.5s-2.2,1.2-2.2,1.2h1.7c0,0,1,2.7,1,2.7l3-.9,2.6.9.7,1.8-.7.9.6,1v1.3c0,0,1.3.6,1.3.6h0l-1,1.1-2.7.3-1.2.7-4.1-.2-1.9.8-1.3-.6-1.4,1.6-2.3,1.2-.3,1.2-2.7,3-.3,2.2h-2.3c0,.1-.8,1-.8,1h0l-1.1-.2-1.6-3.3-4.4-1-1.8-3.6h0l1.6-1.4.5-1.5-1.2-1.1-.8-1.9,1.2-.9.5-2,3.2-1.6,2.3-2.6-1-2.3-1.3-1.1.2-1.9h0v-1.2l1.5-1.3v-1.9c.1,0,.7-.7.7-.7l2.5-.6Z"/>
    <path id="TR-08" d="M431.2,171.2l1.6,1,3.6-.7.7.8h2c0,0,1.2.8,1.2.8h1.8s1.3,1,1.3,1h1.7s-.2,1.9-.2,1.9l1.3,1.1,1,2.3-2.3,2.6-3.2,1.6-.5,2-1.2.9.8,1.9,1.2,1.1-.5,1.5-1.6,1.4h0l-2.1-2-5.8-.2-3.3,3.2.3,3.5-1.7,1.6-.3,1.9-1,.9h-1.1s-.3-1.9-.3-1.9l-.5-.2-4.7,2-3.3,2.4-1-.2-.4-1.4v-2.3s1-.6,1-.6v-.5s-1.5-1.6-1.5-1.6l-4.7-2.1h0l2.3-3.1.5-1.9,3-3.4,1.7-1.1-3.6-4.8v-1.8c-.1,0-.9-1.4-.9-1.4h0l3.6-1.5,3.8-4.8,2.2,1.1,2-.3v.8s1.9.4,1.9.4l1,1,1.6-1,1.2-1.6,1.4-.5Z"/>
    <path id="TR-09" d="M84.2,287.4l1.7.8,1,1.1,2.9.5-.9,1.8-1.9.2.3,3.5.9,1.3,2.8,1.8-1.5,1.9-.5,2.1-4,3.3-.3,2.6-.5.3h0l-.8.2-3.4-2.5-5.7-.2-.4-1.3-3.4,2.7-4.6-.4-3.1.5-1.9-1.7h-1.6c0,.1-2.7-1-2.7-1l-1.9.3-1.6,1.2-.4,2.4h0l-1,.4-.6,1.1-.7-.2v1.1c0,0-1-.4-1-.4l-1,.7-1.4-.6.9-1.6v-2.2c0,0-.7-.5-.7-.5l-.2-1.9h-.6s1.3-1.4,1.3-1.4l-2.5-1.4-3.1-.9.7-1,1.7.3,3.5-1.4.9-2.7-.8-1,.8-1.8h0l2.1.9.5,1.5,1.8-1.4.4-2.7,2.2-1.4h1.7c0,0,3.3,1.7,3.3,1.7l7.4-2.3,6.4-.6,1.2-.9.4-1.1,1.9-.6,2.2,1.1.8-1.4h0l3.1,1.3Z"/>
    <path id="TR-10" d="M32.1,243.7h1c0,.1-1.2.8-1.2.8l.8.2.3.8.8-.3v.5c-.1,0-1.9.2-1.9.2l-.2-1.8-.5-.2.8-.2ZM57.9,206l.8.5-.5.8h.8c0,0,0,.8,0,.8l-2.3-.6v-.7c.1,0,.8,0,.8,0l-.2-.9h.5ZM61.4,205.4h.6s.2.6.2.6l1.9-.3,4.5,1.3-.4,1.1-3.1,2,1.4,1.2,4.8-1.3h0l1.2,1.9v1.3s-1.9,3.4-1.9,3.4l1.2,1v2.6c0,0,.9,1.2.9,1.2l.3,1.8,1.2,1.1v2.1s1,1.5,1,1.5l1,.7,2.4.2,1.3,1.6,2.9,1.7,1.7-.5,1-1,.9.2.4,3.6h.9s.6,1.4.6,1.4l5.2.6h0v1c.1,0-1.7,1.9-1.7,1.9l.6,4.1-3.9,4.4-4.6.8,1,2.5h0l-2.2-.2-4.5,2.5-2.7-.5-1.7,1.5-1.2.2-2.7-3.9-2.8-2.2-.8-2.3-.8-.8-2.7,1.8-2.2-2.3-4,.7-2.9-2.3-1.6,1h0l-4.1,1-2-.6-2.3.7-2,2.3-4.4,1.4-1.7,2.3h0l-1.2-3-2.9-.7,1.1-1.5v.6c.1,0-.5.2-.5.2l1,.6-.2-.8,1-1.1,2.7-1.9-.2-1.4,1.4-.2v-1.2c0,0,1.9-.3,1.9-.3l.6-2.3-.7-1h-1.2c0-.1-1.1.8-1.1.8l-1.6-.5-3.4.5h0l.2-1.9,1.6-2.2,2.8-.6,2.1-1.5,2.4.3,2.2,1.2h1.8c0-.1,4,1,4,1l2.1-2.1,3.1-1.9.6-.9.4-3.5-1.6-2.7v-2.1c0,0-2-1.9-2-1.9l1.8-2.7,1.9-1.4.3-1.2-.4-1h0l2.4-.9,1.2.7h2.1c0,0,3.2-2.2,3.2-2.2l-1.5-.9-.7.6-1.3-1.6v-.7c0,0-1.5-.8-1.5-.8v-1c0,0,1.7-.8,1.7-.8ZM55.6,205.3l.5.3-.7.7.3.5-1.2.7.2-1.8.5-.6.4.3ZM58.4,200.6l2.7,1.1-3.5,2-2-.8v-1.7c0,0,2.8-.6,2.8-.6Z"/>
    <path id="TR-74" d="M190.8,159.9l.4,1.3,1,.7-.5,1.4.6.9h1.6s1.5-.8,1.5-.8l.9.5-2,5.2h0l-1.3.2-.7,1.2-3.6,1.5-.2.8,1.1,3.1-.8,1.9-1.3-1-1.5.8-1.5-.6-2.4,1.8-3.3-.9h0l1-2.1v-1.5l-1.2-1.4v-1.8s-1.8-.3-1.8-.3l-1.5-2.5h0l4-4.2h1.4s1.3-1,1.3-1l.8.4,2.2-2.1,1.9-.4.2-.5h2.4c0-.1,1.6-.8,1.6-.8Z"/>
    <path id="TR-BM" d="M418.5,271.3l3.4,2.1-.5,3.5,1.1,3.7,1.3,1.6h0l-2,4-4.1,1.7-3.2,3.1-.3,1.3,6,4.6.8,1.4,3.2,1.1,1.5-.3,1.4.9h0l-1.4,1.2-3.8.4-2.7,2.4-4,1.9-7.2.6-2.1-7.1h0l1.3-1.9-1.8-.8.5-1.8,2.8-4.1,1.5-4.1,1.6-1.7-1.5-1.2.2-4.3,2.7-5.2,2.3-.7h0l2-.4,1.3-1.8Z"/>
    <path id="TR-69" d="M395,204.7l-1,3.6.5,1.8-1.7,5.1,1,1h4s0,1.6,0,1.6l-1.2,1.7-4.9,2.9-3.4-.2h0l-9.6-.3-1.9,1-2,2h0l-2.4-2.4,2.8-3.6,1.9-4.5v-4.4c-.1,0,.6-2.2.6-2.2l9-1.5h0l5.5-.6h0l2.7-.7Z"/>
    <path id="TR-11" d="M118.7,205.7l1.7,3.2.7.2.9-1,1.1,1.8,1.3.9,1.5.3,2.6-.9,1.2.7,2.1-1,1.1,1.1h1.2c0,0,2.9,7.3,2.9,7.3h0l-2.1.8-3.4,3.5-1.4.7-.5,1.1-1.5,1.1-1.1,2.4-4.1.7-2.1,2.6-.7,2.4h0l-3.8-.2-1-.5-2.2-1.9-1.1-3.6h0l2.3-2.2-1.5-1.6v-.8c-.1,0,.6-.8.6-.8l-.4-3.8,1.5-1-.3-2.1,1-1,.4-3.5,1.1-1.2-.2-2.7,2-1.2Z"/>
    <path id="TR-12" d="M390.4,239.6l4.5-.4,1.8.6h0l-.6,1.3,1,.8,1.7.3,8.4-1,3.2,3h0l-1.1,1.4v1.8c0,0,2.3,4.2,2.3,4.2l2.2,1.3.4,1.2-.4,1-2.9,1.2-1.7,2-.5,3.5.4,3.9h0l-4.7,1.6-1.6,2.5-1.6.8-3.8-1.9-.5,1.7-.7.4-2.4-1.6-2.1-.2-1.7,1.8v1.8c0,0-.7.6-.7.6l-2.6.6h0l-3.2-6.3,1.5-1.1.7-1.4h2.6c0-.1.7-.6.7-.6l-.4-1.2-2.4-1.7-.7-2.1.2-1.3-.5-.5,1.2-2.1v-1.8s1.7-2.1,1.7-2.1v-1.3s-.8-.5-.8-.5l-2.1,1.1-2.9.5-2.5,1.7h-2.5s1.3-4.6,1.3-4.6l1.7-1.4-.7-2.7,4.8.3,6.3-5.5Z"/>
    <path id="TR-13" d="M457.4,255.7l2,1.6.6,1.5,3.2,1.4v.9c.1,0-1.3,2-1.3,2l-3.6,2.1-2.5,2.4-4.1,6.1-.2,3.9-2.9,2v.8s1,.8,1,.8l.3,1.5-1.2,6.4h0l-.4.7-1.4.6.2.6-.9.8-.4-.8-1.9-.7-6.4-7.3h-2.6c0,0-2.2,1.2-2.2,1.2h-1s-.6-.2-.6-.2v-.8c0,0-2.9.5-2.9.5l-1.1-.4-.8-1.2h-2.7s-1.3-1.6-1.3-1.6l-1.1-3.7.5-3.5-3.4-2.1h0l.2-.6,1.9-.9,4.9.3,4.5,1,.7-1.7,3.7-3.3-.2-2.2,1.4-.7.5-1.8.9-1,6.3-1.9,6.3.5h0l3,.4,3.3-1.5.2-1.8,1.4-.5Z"/>
    <path id="TR-14" d="M177.4,185.9l3.2.4h0l1.3,4.3v2.2s3,0,3,0l1.9,3-.6,3.6h0l-2.1.4-.8.7v1c-.1,0,.8,1.1.8,1.1v.8c0,0-5,1.6-5,1.6l-1.3.9-.8,2.4,1.5,2.2-.6,1.2-1.8.2-1.1-1.2-2.1-.3-1.8.3-1.9,1.5h-3.8c0-.1-3.9.7-3.9.7l-3.9-.5-.4-1.6-.6-.4-4.6.8-2.7-.4-5.3,5.9-2.6,1.6h0l-1.3-.5-2.9.8h0l-2.9-7.4h0l.5-1.1-.2-3.8,4.2.2,3.6-.8,1.5-1.4-1.2-2.2.9-1.5h0l4.2.6,2.9-.4,1.9-2.8.8-2.5,4-1.8.6-4.7h0l3-1.1h4.8s2,.9,2,.9l9.8-2.5Z"/>
    <path id="TR-15" d="M122.8,296.6l3.1.3,4.7-1.7.8,1-.5,1.7.4.8,2.3.4,2.3-.3,3.4,1.9.5,3.3,2,2.1.3,2.1,1,.2h0l.7,1-2,4.1-1,.6-7.9-.3-4.4-2.7-3.6.2-4.1,3.1-2,.7-2.8,2.5-.6,1.1.5,2.4-2.3,2.1h0l-2.2-.8-2.8,1.2-1.9,4.6-.7-.2-.3.9-1.7-.5.7-1.6h-1.4s-.6-.7-.6-.7h0l1.2-2.7-.9-1.5.2-.9,2.6-1.7.4-3.4.9-2.1,3.8-4-.5-1.1-2.8-1.6v-.7c-.1,0,.8-1.4.8-1.4l-.9-2.3.5-.7,1.9-.6,2.6.6-.5-1.7.3-.5,3.7-1.3,1.8-2.3h0l4.9.2Z"/>
    <path id="TR-16" d="M82.2,204l-.8,1.9-.2-1.9h.9ZM105.1,204.4l2.8.6,6.5-2.1,4.5,1.2h0l-.3,1.7h0l-2,1.2.2,2.7-1.1,1.2-.4,3.5-1,1,.3,2.1-1.5,1,.4,3.8-.8.8v.8c.1,0,1.6,1.6,1.6,1.6l-2.3,2.2h0l-3.2.2-1.1-1-2.3-.8-1,3.9-2.7,2.4-.5,1.6-1.8,1.3-.6,1.2h-5.3c0-.1-5.2-.7-5.2-.7l-.6-1.4h-.9s-.4-3.6-.4-3.6l-.9-.2-1,1-1.7.5-2.9-1.7-1.3-1.6-2.4-.2-1-.7-1-1.5v-2.1s-1.2-1.1-1.2-1.1l-.3-1.8-.9-1.2v-2.6c0,0-1.3-1-1.3-1l2-3.4v-1.3s-1.3-1.9-1.3-1.9h0l9.7-.2,4,1.2,3.4-1.1,4.8,1.3,2-.3,1-1.9,1.5-.2-1.8-1.8h-1.4s-1.4.6-1.4.6h0l.4-3.4,5.6,1.2,3.1-1.1h3Z"/>
    <path id="TR-17" d="M17.3,228.6l.5,1.4-.7.4-2.4-1.2v-.5s2.5,0,2.5,0ZM14.4,215.2l.7.7-.2,2.3,1.2-.5-.5,1-6.6,1.4-1.9-1.1.2-.9,3-1.9,4.2-.9ZM49.8,208l.7,1.3-.7.4.6,1,2.9,1.7,2.6.7h0l.4,1-.3,1.2-1.9,1.4-1.8,2.7,2.1,1.9v2.1c0,0,1.5,2.7,1.5,2.7l-.4,3.4-.6.9-3.1,1.9-2.1,2.1-4-1.1h-1.8c0,.1-2.2-1-2.2-1l-2.4-.3-2.1,1.5-2.8.6-1.6,2.2-.2,1.9h0l-4.3,1-2.5,1-.2.5-2.1-.2-1.2.8-.5-.4-2.3.7-1.7-.6.9-3.8.8-.7.6-1.7-.6-3.4.6-2.1-.7-.7,1.1-5.1.5-.5,1.8.3,1.3-.5,1.2-2.8,1.2-.6v-2.7c-.1,0,3.1-.9,3.1-.9l1.1-1.8h.9c0,0,3.9-4.2,3.9-4.2h4.1c0-.1,1.3.7,1.3.7l2.1-.3,1.4-1.7,1.7-.3,1.3.6,2.1-1.3.5.8ZM36.2,197.6l3.7-.2,1.9.7-2.1,4.9v1.9h0l-5.9,3v1.2s-1.6.6-1.6.6l-.2,1.3-1.1,1.5-2,1-2.3,2.4-1.7.6.6,2-2.3,2-3.1,1.4,2.6-5.1.3-1.7-1.3-1.6.5-.5-.8-.5,2.9-1.5,3.2-2.6,3.9-2.1h2.3c0-.1,1.4-1.9,1.4-1.9l.6.4,1.7-1.3-.7-2.4-2.4.3h0l1.9-3.8Z"/>
    <path id="TR-18" d="M196.3,183.5l1.8.5,1.8,2.8,2.8-.2,3.9,1.8,3.8-2.1,1.5,1.5,1.1.2,4.2-1,3.1-1.4v1.2c0,0-1.7,3.2-1.7,3.2v1c0,0,2.6,3,2.6,3l4.8,1.3h0l-.5,3.3,2.4,2.1-.8,1.7.4,1.7-.5,1.2.9,1,.2,2.3-2.1,3.6-1.3,1.2-1.9.7h0l-2.8-.3-1.3-1.4-2.3-.4h0l-.5-.7-4.1-.7-2.2.3-.7-.9-1.6-.3-1,1.6-1.5.7-2.9-4.7-3.4-1.4h-2.4s.6-2.3.6-2.3l-.4-1-3.1-.7-4.6-2.7-2.5.2h0l.6-3.6-1.9-3h-3c0,0,0-2.1,0-2.1l-1.3-4.3h0l6,1.2.9,1.4,1.7-1.6,3,1.2.6-2.7-.6-1.6h2.7s.9-.8.9-.8h.6Z"/>
    <path id="TR-19" d="M248.5,178v1.5c0,0,1.6,3.7,1.6,3.7l-1.3,2.3,1.2.8,2.4.3h0v1.4s-2,1.5-2,1.5l1.6,2-1.9,3.5.2,2.1,2.4,1.8,2.5-.7,3.6.3v2.3c-.1,0,2.8.7,2.8.7l1.5,2.7-.4,1.3-1,.7v1.1s-1.2.5-1.2.5l.4,1.2-.8,1.8,1.3.9-1.5,2.5h0l-2.2.7-1.3,1.6-1.5-1.2-.7.3,1.4,2.2-1.3,1.1,1.3,2.2-.6.9-6.7.5-.2-1.5-.5-.3-2.3,2.4-3.3.2-1.7.8-1.7-.4-1.1-1.1-1.1-.3-2.4,1.7-.7,1.2-3.1-.4-2.3.7-.3-1.1h0l.2-.6-1.7-2.7.3-1.6-.6-1.6.4-1.4-2.5-.9-.9-1.8h0l1.9-.7,1.3-1.2,2.1-3.6-.2-2.3-.9-1,.5-1.2-.4-1.7.8-1.7-2.4-2.1.5-3.3h0l4.1-1,2-4.8,1.5-.7-.9-2.2-1.4-.6-1.7.2-.2-3.5,2.8-2.3.2-1.4,1.6.3.2,1,1.5-1.4h0l1.3-.6,2.1,1.3.8,1.8,1.5,1h1.6c0,0,1.7-1.3,1.7-1.3h1.8s2.1-2.8,2.1-2.8Z"/>
    <path id="TR-20" d="M114.4,273.3l1.3.9h1s.9,1,.9,1h1.1c0,.1.7,1.2.7,1.2l1.7.7,1.5,4.2-1.7,1.4-1.2,1.9h-2.8c0,.1-1.3,2.2-1.3,2.2l-3.3,3.1-.2,1.8.9,1.9,4.8,2.7h0l-1.8,2.3-3.7,1.3-.3.5.5,1.7-2.6-.6-1.9.6-.5.7.9,2.3-1,1.4v.7c.1,0,3,1.6,3,1.6l.5,1.1-3.8,4-.9,2.1-.4,3.4-2.6,1.7-.2.9.9,1.5-1.2,2.7h0l-1.4.9-2.4.4-1.8-.7-.7-2v-2.4c0,0-1.8-2.6-1.8-2.6l-.2-2.3-2.6.4-1.6-.6-1.1-2.3-2.1-1.2v-1.8c0,0-.9-1.3-.9-1.3l-1.3-.2-.4-1.7h0l.5-.3.3-2.6,4-3.3.5-2.1,1.5-1.9-2.8-1.8-.9-1.3-.3-3.5,1.9-.2.9-1.8-2.9-.5-1-1.1-1.7-.8h0l2.9-1.7.9-2.2,1.5-1.3h8.8c0,0,.9,2.2.9,2.2l.3-1.6.8-.2-.2-.9,2.2-2.5,7.3,1.6.8-1.1-.2-3.7,4.4-3Z"/>
    <path id="TR-21" d="M409.1,265.8l1.4,1.1,1.7-.8-.3,1.9.7,2.7,1.3,1,1.2-.2.2,1.9h0l-2.3.7-2.7,5.2-.2,4.3,1.5,1.2-1.6,1.7-1.5,4.1-2.8,4.1-.5,1.8,1.8.8-1.3,1.9h0l-.6,1.4-2.3.6-5.3-1.5-.4,1.6.6,2.1-.5.9-5.5-1.4-.4,1.2-4.2,1.7h-1.3c0-.1-3-1.9-3-1.9l-3.5,1.7h-1.5s-1.9-2.3-1.9-2.3l-.3-6.4-1.1-2.8-2.2.5-1.6,1.7-1.7-2-3.6-.6-2.1-2.4-5.3-2.1h0l1.5-1.6,1.1-2.8-1-1.8-2.1.7h0l-1-.6.8-.8.3-2.3h0l4.2-1.3,1.2.7,1.4-.3,1.7,1.7,1.2.3.9-2.5,3.3.2,3.3-1.6,1.9.9,1-2.8,1-.7h5.7s2.3-.5,2.3-.5h0l2.6-.6.6-.6v-1.8c0,0,1.7-1.8,1.7-1.8l2.1.2,2.4,1.6.7-.4.5-1.7,3.8,1.9,1.6-.8,1.6-2.5,4.7-1.6Z"/>
    <path id="TR-81" d="M153.7,185l1.1,3.7,1.6.3,1.4-.4h0l-.6,4.7-4,1.8-.8,2.5-1.9,2.8-2.9.4-4.2-.6h0l.9-1.8-2.4-1.2-.2-.7.3-1.2,1.2-1.1-.9-1.4h-1.6c0,.1-.3-.5-.3-.5l.9-1.3,1.7-.3,1.8-1.5,1.3-1.8-1-.9h0l8.6-1.6Z"/>
    <path id="TR-22" d="M40.9,154.5l-.2,5.9.9,2-1,2.1.2,1.8-1.5,2.1.6.6,1.1-1.2.7.7-1.4,1.8.2.9-1.4,2.5.7,2.7-.8,1.5.8.7h0l.5,3.1-1.5,2.6-2.6,2.6-2.7.4-.5.7,1.3,1.2-.7,5.2,2.5,3.2h0l-1.9,3.8h0l-2.8.2-2,1.5-2-.8-1.1.6-1-.3-1.9.6h-4.1s-2-1.2-2-1.2l-.9-3.6,2.4-.5.5-1.7,1.9-1.6-.3-.8h.5v-.8l.7.3.3-1.1.8.7v-1.3c-.1,0,1.7-.5,1.7-.5l-.9-1.4,1.1-1.2-1-.7-.4-1.1.6-1.2h-.8c0-.1.9-1.2.9-1.2l-.8-1.1.4-.4v-2.3h2c0,0,3.1-2.9,3.1-2.9l1.7.5,1.2-.9-1-9-1.7-.5-1.1-1.1.2-.5-3.1-1-1.3-1.3,1-2.8,4.5-.2,1.1-1.7-.5-1.9,1.6-1.9,3.3.7.9-1.1,1.4.7.7-.7,2.5-.4Z"/>
    <path id="TR-23" d="M377.3,253.3h2.5s2.5-1.7,2.5-1.7l2.9-.5,2.1-1.1.8.5v1.3s-1.8,2.1-1.8,2.1v1.8s-1.2,2.1-1.2,2.1l.5.5-.2,1.3.7,2.1,2.4,1.7.4,1.2-.7.5h-2.6c0,.1-.7,1.5-.7,1.5l-1.5,1.1,3.2,6.3h0l-2.3.5h-5.7s-1,.7-1,.7l-1,2.8-1.9-.9-3.3,1.6-3.3-.2-.9,2.5-1.2-.3-1.7-1.7-1.4.3-1.2-.7-4.2,1.3h0l-1.1-1.6-3.8.8-1.9-1.3-1.8-2.7-3.5.7-6-1.9-1.9-1.8-.3-3,1.4-2,1.3-.7v-1.6c.1,0,1.1.1,1.1.1l.7-.6,2.3.7.5-.4-1.5-5,.6-.7v-1.3c-.1,0,1.9-2.3,1.9-2.3h0l1,.6.8-.5h0l.9.9.2,1.1-1.2,2.1.4.9,2.5.8,2.7-1.4,7.8,1.3,1.2,1.3,1.8.6.5,1.1,1.1-.5,1.4.7.6-.2.6-1.6h3.8c0,0,2.2-.7,2.2-.7l1.1.4.4-1.9,1.2-1.3.8-3.1-1-1.6,1.2-1.5Z"/>
    <path id="TR-24" d="M347.4,220.7l5.9.6h0l2,1.6,4.4,1.1v1.5c0,0,1.8.2,1.8.2l4.1,2,5.4-.5,4-2.4h0l2-2,1.9-1,9.6.3h0l-2,1.7-.2,2.1,3.9-.2.6.7,3.5,1.4.5,1.7-1,1.6v.9c0,0,4,2,4,2l.3.7-.7,2.1,1.6,1.8-.4.8-1.7.5h0l-1.8-.6-4.5.4h0l-1.9-1.9-3.7-.7-3.1,1.2-1.1-.7-4.9-1.2-1.1.5-1,3.4-1,.7-5.5-.8-3.8,1.1-4.7-.7-5.3,2.5-3,2.4-.2,1,.6,1.9-1.4,1-2,.4-.5.7.8.7-.8,1.6.6,3.4h0l-.8.5-1-.6h0l-2.4-2.5h-2c0,0-1.6-1-1.6-1l-1.9,1.1-1.6-1.3h0l1.9-3.7-1.9-3.3,1.8-.4.4-1.1-1.8-1.1-.8-2.2,1.2-2.4-.5-3.2,1.1-3.4,2.9-2.1-2.6-2.2v-1.4c0,0,1.5-1.4,1.5-1.4l3,.3,2-1.8,2.7-.3.8-1.6Z"/>
    <path id="TR-25" d="M409.6,195.2l4.7,2.1,1.5,1.6v.5s-1,.6-1,.6v2.3s.4,1.4.4,1.4l1,.2,3.3-2.4,4.7-2,.5.2.3,1.9h1.1s1-1,1-1l.3-1.9,1.7-1.6-.3-3.5,3.3-3.2,5.8.2,2.1,2h0l1.8,3.6,4.4,1,1.6,3.3,1.1.2h0v.9c0,0-2.6,2.1-2.6,2.1l-1.4,2.1-.7,2.5.7,1.3-.6,1-1.1.6-2.4-.2-4.6,1.1-1.4,1.6.2.9,3.2,2.5.3.8,1.8.2,1.8,1.4.7,2.2,3,1.4.4,1.4-1.2,2h0l-5.5,1.8-.7.8,1.2,2.7,3.4,1.7,1.8,1.9-.4.9-2.1,1.7-1,1.8h0l-4.2,3.2-.6,2.9-3.1.7v1.4c0,0-2.6,1.8-2.6,1.8l-4.7,1.3h-4.4c0,.1-.6-2.9-.6-2.9l-4.4-3-5-.2-1.6-.6h0l-3.2-3-8.4,1-1.7-.3-1-.8.6-1.3h0l1.7-.5.4-.8-1.6-1.8.7-2.1-.3-.7-3.9-2v-.9c0,0,.9-1.6.9-1.6l-.5-1.7-3.5-1.4-.6-.7-3.9.2.2-2.1,2-1.7h0l3.4.2,4.9-2.9,1.2-1.7v-1.5c0,0-4.1,0-4.1,0l-1-1,1.7-5.1-.5-1.8,1-3.6h0l6.8-3.2,4.8-4.5,3-1.8Z"/>
    <path id="TR-26" d="M141.3,218.1l.7,3,2.2,1.1h2c0,0,.3-.6.3-.6l1.9-.2.4-.7,2.1.8,1.9-.5,1.9.6,1.3-.6.9.6-1,.3.4.6,1.6-.9,1.1.8.9-.6,2.2.5,1.2-1-.2,1.4,1.3-.3-.4,1.2,1.1.5v1.2c0,0,.9,1.2.9,1.2l.9.8,1.4-.2.4.4-.5.7,1.3-.2-.8.7-1,2.9,1.7,2.3.9,3.5,1.2,1.2-.2.9,1.1.4-.4,2.6.7.9-.5.9,1.7.7v.7c0,0-3.8,4.3-3.8,4.3l-.2,1.6h0l-.5.5h-1.6c0,.1-1.1,1.8-1.1,1.8l-4.8.6h0l-1.1-1.7-2.2-.6-.4-1.8-2.8-2.6-2.2.6-2.4-1.7-.9.6-.7,2-1.2.2-.4,1-2-.9h-1.5c0,.1.1.8.1.8l1.9,1.3-.6,1.3-5.1-.6-1.1,2.5-2-2.1-1.8-.9-1.3-3.1-2-.4h0l-1.5-.2-.2-1.8-1.3-1.1.6-1.3-.5-2.3.7-1.2-.6-2.7-2.9-1.5-1.8-1.7.8-1-.4-.5-2.8.6-1.5-.4h0l.7-2.4,2.1-2.6,4.1-.7,1.1-2.4,1.5-1.1.5-1.1,1.4-.7,3.4-3.5,2.1-.8h0l2.9-.8,1.3.5Z"/>
    <path id="TR-27" d="M316.7,305.4l1.1.5,2.7-.8,1.1,1.2,4.8.2,3.5,1.5h0l-.5.7-.7-.5-1.7.2-2.6,3,.3.6-.7.3-.5,1.7,1.1,1.4-1-.2-.2.6,1.1,2.2-.4,2.3,1.4.9,1.6-.4-.3,2.2,1,.8v1.2c0,0,1,1.4,1,1.4l-.5,1.5h0l-2.2.4-4.1,2.3h-3.3s-2.6,1.6-2.6,1.6h0l-1-2-1.2-.5-2.4.3-.9-.4-.5-2.4-.7-.7-4.7-1.2-.8-2.6-1.2-.3-1,.3-1.6,2-2.6,1.2-1.4,3.2h0l-3.3-1.1h0l-1.4-2.2-2.8-.9-1-2h0l5.8-6.9h0l1.6-.2.4-1,1.5-.5,2.3-2.4,1.7.8,1.9,2.2,1.8.2,3-3.8,6.2-.7-.2-1.4h1.5c0-.1,1.4-3.7,1.4-3.7Z"/>
    <path id="TR-28" d="M358.3,186.6v10.9h0l-3.2,1.3-2.1-.2-2.7,1.6-3.1,5.1,5.9,2.6,1,1.3-.4,4.1-1.2,1.7-.9-.3-.7.5.3,2.5,1.9,2.4v1.2h0l-5.9-.6h0l-3.6-.2-1.7-.8-.8-2.4-1.6,1.1-.6-.6-1,.5-2-1.4-2.7-.5-1.4-2.5v-4.1c-.1,0,.4-2.5.4-2.5l-2.9-1.2h0l.2-2.3-.9-1.5.6-1.1-1.5-.9-1-2.5,1.4-1.1-.4-1.5,1.9-2.8.6-2.1h0l2.4.8,2.4-.2,1.9,1.2.9-.5,1,.5,2.7-.2,2.4-1.9,1.6.9h.8c0-.1,2.5-2.1,2.5-2.1h1.5c0,0,1.6-1.2,1.6-1.2l2.2.4,4.1-1.4Z"/>
    <path id="TR-29" d="M358.3,197.5l1.6.9,3.8.8,1.5,1.6,1,.2.3,1.2h1.7c0-.1,1.6,1.3,1.6,1.3h2.7c0-.1,1.4-1.6,1.4-1.6l.3-2.5h1.4c0-.1.4.9.4.9l-.5,2,2.8,1.1.6,1.2,2-.9-.4-.7-1.8-.8v-.9s1.9-.3,1.9-.3l1.4,1-.3,1.2,1.4,1,1.5-.4,2.2,1.9h0l-9,1.5-.8,2.2v4.4c.1,0-1.7,4.5-1.7,4.5l-2.8,3.6,2.4,2.4h0l-4,2.4-5.4.5-4.1-2-1.8-.2v-1.5c0,0-4.3-1.1-4.3-1.1l-2-1.6h0v-1.2c0,0-2-2.4-2-2.4l-.3-2.5.7-.5.9.3,1.2-1.7.4-4.1-1-1.3-5.9-2.6,3.1-5.1,2.7-1.6,2.1.2,3.2-1.3Z"/>
    <path id="TR-30" d="M470,297.3l3,.7,4.8-1.4,3.6.3,3.2-.8,1.7.9.8,1.6,3.5.3,1.2-.9,2.4.2,1.2-.6h0l2.7-.3,1.7,1.7.2.9-1.5,1.9,1.2,1.3-.9,5,1.4.6.6,1.4,1.7.3.4,1.2,1.7,1.1.3,1.2-1.4,1.4.7,2.7-.7-.8h-2.2s-1-.7-1-.7l-4.3,3.8-3.2,1,.5.6-.9.8-.3,1.1-1.8-1-.6-1.9-1.1-1.3,1-2,1.3-.2-.2-2.6-1-1.2-2.7-1.3-2.6.2-.2-.4-.7,1-1,.2-1,2.2h-1.7c0,0-.5,1-.5,1l-.7-1.1-3-.2-1.3.5-2-1.3-1.5.5-4.2-2.8h0l-.2-4.8-1.2-2.4,3.7-4.2.8-3.3Z"/>
    <path id="TR-31" d="M277.1,321.4l2.4-.5,4.2,1.9,1.9-.3,1.9.4h0l1,2,2.8.9,1.4,2.2h0l.2,1-1.6,1.8.4,1.2-1.4,1.6.4,2.3-1.2,3.3.6,2,.6.9h.5c0,0,0,2.1,0,2.1l.2-.4h1.2s0,1.3,0,1.3h1c0,.1-.4.8-.4.8l.4.9-.8.6-1-.3v.7c-.1,0-3.1-.8-3.1-.8l-.9,1.4-2.2-.6.4.8-.8.8.6,2.7-.4,2.3-1,.6-1.2-.7v1.9c0,0-1-.3-1-.3l-1.4.5-1.1,4.4-1-1.7-3-.6v-1.8c.1,0-2.2.3-2.2.3l1.7-2.8-2.2-4.6-3-4.6v-.7s1.9-1.6,1.9-1.6l1.4-2.4,1.8-.9,1.6-2,4-2,.6-1.5-.6-3.3.3-1.4-2.3-3.2-2.8-1.6h0l-.2-1.6,1.4-1.7Z"/>
    <path id="TR-33" d="M244.8,307.4l.4,2.3,3.8,4.5v.8c0,0-1.2,1.2-1.2,1.2v1s1.4.8,1.4.8l.6,1.5h1.1s1.9,1.1,1.9,1.1l.8,3.8.4,4.3-.5,1-1.8-.5-.8,1.1-.4-.4v.7s-1.7-.1-1.7-.1v.6c-.1,0-1.4.7-1.4.7h0l-1-1.6-2.7-1.2h-2.8s-2.4,1.4-2.4,1.4l-3.4,3.4-4.2,2.8-2.6,3.6-2.3,1.8-.2,2.9-.7.8h-.9s-1.2,2-1.2,2l-.7-1.7-1.8-1-.7,1.3h-.7c0,0-.5,1.4-.5,1.4l-2.6,1.9-.4,1.3-.9-1.9-1.4.6-.8,1.6-2.5-1-1.7,1-1.2-.8-1.4.7-3.8-.2-1.8,2.2-.8-.8-2.7-.3-1.9,1-1.8,1.8-3.6-.9-2.7-1.8h0l1.2-2.2-.5-1.4,1.5-4-2.2-6.6h2.9c0,0,5.5,2.2,5.5,2.2l3.4.6,3.5-1.2,2.5-2.3-1.7-2-1.9-1.2-1.3-2.2.3-2.8-1-2.1,1.8-.8,1.2,1,2-1.9,4.1-.9h2.1c0,.1,1.7-.6,1.7-.6l2.1,1.2,4.4-2.6h0l5-.7,5-1.7.9-.8v-1.9c-.1,0,4.1-1.3,4.1-1.3l4.8-2.6-1-1.7.7-1.3h2.1c0,0,5.2-2.3,5.2-2.3Z"/>
    <path id="TR-76" d="M474.7,219l1.6,1.5h1.4c0,0,3.6,1.9,3.6,1.9l7.3-.3,2.2-.6,3.7,1.6,3.4,3.2v.6s1.1,1,1.1,1v1.1s2.7,1.1,2.7,1.1l-.2.7,1.5,1v.9c0,0,1.5,1.1,1.5,1.1v.8c0,0,.4.2.4.2l-.3.8-2.4-2.8h-1.2c0-.1-1.3-2.4-1.3-2.4l-3.7,3.4h0l-2.4.3-3.4-1.5-2.4.3-2.7-.8h-4l-2.3-1.7-4.5-.4-2.1-1.7-1.1.3-1,1.6h-1.5c0,.1-.3-4.3-.3-4.3l-1.8-2.1-2-.5h0l2.7-4.4,2.9.5,4.6-.7h0Z"/>
    <path id="TR-32" d="M122.8,296.6l1.4-2.7v-2.2c-.1,0,1.8-2.5,1.8-2.5l2.5-1.2,4.3-4.7,3.4-.9,3.7-2.4,1.9-3.4,2.3-1,2-1.9,3.5-.6,1.6,1.3,1.2,1.9h.8c0-.1.6,1.8.6,1.8l1.6,2.1,3.3,2.7,1.9.7.6,1.8-.2,2.6-1.9,1.4-.3,1.7-2,1.5-.2,2,1.2,2.8v1.2s-.2.5-.2.5l-2.1.7-.7,1,.7,3.6-.8,3.3h0l-5.1.7-2.6,2-2.3-1.9h-1.7s-1-.3-1-.3l-.3-2.1-2-2.1-.5-3.3-3.4-1.9-2.3.3-2.3-.4-.4-.8.5-1.7-.8-1-4.7,1.7-3.1-.3Z"/>
    <path id="TR-34" d="M100.8,181.3l8.3,2,.6-.4,5.9,1.4h2.5s0,1.6,0,1.6l-1.5,2.5-1,.3-2.6-.6-1.5,2.4-2.4-.6-2,.4-4.4,5.5h0l-.6-.5-1.6.4.8-1.6-3.7-1.6-.9-1.3-2.3-1.3-.4-1.5,1.2-.9.4-1.9.7-.5-.6-.9.4-1.2,2-1.6,2.7-.2ZM72.3,169.5l2.5,2.6,9.1,4.8,1.7.3,6.9,3.2h3.3c0,.1.9.6.9.6v.9s-1.9,1.9-1.9,1.9l.9,1.1-2.3,4.1-3.5,1.1-.5.6-1.8-.8-3.7.7-.6-.4-.2-1.5h-.6s-.6,1.1-.6,1.1l-3.2-2-4.8-1.2-4.1.7-2,1.1h0l-.6-1.2v-1.8c.1,0,1.2-2.2,1.2-2.2v-1.5s1.5-2.6,1.5-2.6l2-9.8h0l.5.3Z"/>
    <path id="TR-35" d="M34,272l.7.4.3,2.3-1.2-.7.2-2ZM52.1,244.2l.5,2.9,1.4,1.4-.4,2.6,1.9,5.1-.4,2-1,1-2.9,1.2-1.3-.4-3.3,1.7.2.8-1.4,2,2.5,3.4.2,3.2,1.2.9,2.8-.2,1.2.6.7,1.5,1.8-.2.9,1.5,1-.2,1,.9,1.7.2,1.3,2.5h1.7c0,0,.5.9.5.9l.7-1-.3-1.9,1.2-.3.9.7,2.5-.6,2.5,1.2.7,1,2.3.4,1.8,1.7,3.3,1.1-.3,2.3,1.6,1.9h0l-.8,1.4-2.2-1.1-1.9.6-.4,1.1-1.2.9-6.4.6-7.4,2.3-3.3-1.7h-1.7c0,0-2.2,1.5-2.2,1.5l-.4,2.7-1.8,1.4-.5-1.5-2.1-.9h0l.2-1.5-.8-1.3-2.9-.3-3.9-2.9-2,.3-1.1,1.1-1.1-4.1-1.5-.6.6-.8-.8-.7-3.2.7-.2,2h-.5s.2.9.2.9l-.6.2-.6-1.3-.3.8-.7-.4-.4-1.8-3.3-1.4v-1.2c0,0-.6,1.1-.6,1.1h-.8c0,0-1.2-1.2-1.2-1.2l-1.5-.2v-.8c0,0,1.1.1,1.1.1l.2-1h.6c0,0-.5-1.5-.5-1.5l2.3,2,.3-1.5.5.9,2.1-1.8-.8-1.7,1,.9.7-.9-2.1-1.6-1.1,1,.5-1.5-1.3-2.5-.2-2.3.2-.6,1.5-.7,2.7,1,1.3,3,1.4.9.4,2.1h-1.4c0,0,.4.5.4.5l-.5.9.9.3,1.5,3.5.7-.3-.7-2.5.7-1.2h.8l.8,2.1.9.4,5.8-1.9,1.7.5,1.5-1.5h.7s-.3-.8-.3-.8l-1.2.6-.9-.6-3.3,1-1.8-2.2v-1s-1.4-.7-1.4-.7l.4-.6-2.4-1.3.2-.8-.8-.2.5-.8-.6-1,.2-1.4,2.3-.7.2.6.5-.3,1,.6.3-1.1h.8s-1.2-1.9-1.2-1.9l.5.2.8-.6.2,1h.6c0,0-.1-1.4-.1-1.4l2.4-.7-.7-.8.5-.6-.4-.9-.9.9-1.5-.9-2.3.7-1.7-1.1v-2.7s2.2-1.5,2.2-1.5l-1.3-2.2-1.8-.8h0l1.7-2.3,4.4-1.4,2-2.3,2.3-.7,2,.6,4.1-1Z"/>
    <path id="TR-46" d="M296.3,271.8l6-1.3,4.3.8,2.8-.2.7.5h0l-1.3,2v1.2s3.6,2,3.6,2l2.1-.2,2.7,2.1,2.3.4-.4,2.9,2.1.3v1.5c0,0-1.2,2-1.2,2l-3,2.6.4,2,.9.6h0l-.9,1.7-2.1,1.2v2.9c0,0-1.5,1.7-1.5,1.7l-.2,2-.8,1.2.4,1.2,2.5.3.9,2.3h0l-1.4,3.6h-1.5c0,.1.2,1.6.2,1.6l-6.2.7-3,3.8-1.8-.2-1.9-2.2-1.7-.8-2.3,2.4-1.5.5-.4,1-1.6.2h0l.3-1.6-1-2.1.8-1.7-.2-.6h-4.3c0,0-3.4,1-3.4,1l-.5-.5h-2.3c0,0-1-9.3-1-9.3l.7-1.5h0l1.8-1.8.7-2.3-1.6-3.4,1.8-2.5-2-1,1.8-2.2,1.9-5.6h0l7.3-3.1,1-4.3,1.2-1.9Z"/>
    <path id="TR-78" d="M194.2,169.2v.8s.8.6.8.6l1.7-.8.7.6.8-.4,1,.3v1.9c-.1,0,1.1.7,1.1.7l.3,1.3v1.8c-.1,0-.9,1.3-.9,1.3l-1.7.3-1.5,1.5-.7,1.8.5,2.6h-.6c0-.1-.9.7-.9.7h-2.7s.6,1.6.6,1.6l-.6,2.7-3-1.2-1.7,1.6-.9-1.4-6-1.2h0l-3.2-.4h0l-1.1-3,1.1-3.6,1.3-1.1h0l3.3.9,2.4-1.8,1.5.6,1.5-.8,1.3,1,.8-1.9-1.1-3.1.2-.8,3.6-1.5.7-1.2,1.3-.2Z"/>
    <path id="TR-70" d="M182.8,328.9l5.7-1,2.7-1.2,1.7-1.7.8-3-.5-.9-2.5-1.4-.6-3.5.9-1.1h1.9c0,0,1.3-3.9,1.3-3.9l2.6-2.2,1.5-2.2,2.7-1.4,2.4-.2,2.9,2.1,5.8-2,.4,6.5,4.3,5.9,1.5,4.1h0l-4.4,2.6-2.1-1.2-1.7.8h-2.1c0-.1-4.1.7-4.1.7l-2,1.9-1.2-1.1-1.8.8,1,2.1-.3,2.8,1.3,2.2,1.9,1.2,1.7,2-2.5,2.3-3.5,1.2-3.4-.6-5.5-2.1h-2.9c0,0-3.8-4-3.8-4l-.3-1.2.5-3.4Z"/>
    <path id="TR-36" d="M472.4,189.4l2.9,2v3c0,0,1.8,3.9,1.8,3.9v2.2c0,0-.7.5-.7.5l-1.3,3.1-.7.2.2,1-.6-.2.2.6-2,.8-.3.6,1.9,1.8-.7,2.6,1.3,2.5,1,.5v1.1s-.7,0-.7,0l1.6,2.1-1.4.3-.2.9h0l-4.6.7-2.9-.5-2.7,4.4h0l-4.7-.7-14.9,3.6h0l1.2-2-.4-1.4-3-1.4-.7-2.2-1.8-1.4-1.8-.2-.3-.8-3.2-2.5-.2-.9,1.4-1.6,4.6-1.1,2.4.2,1.1-.6.6-1-.7-1.3.7-2.5,1.4-2.1,2.7-2.1v-.9h0l.8-.9h2.3c0-.1.3-2.3.3-2.3l2.7-3,.3-1.2,2.3-1.2,1.4-1.6,1.3.6,1.9-.8,4.1.2,1.2-.7,2.7-.3,1-1.1h0l1.1.7Z"/>
    <path id="TR-37" d="M207.7,154.1l10.4,1.5,7-.2,4.8,1h0v1s1.1,1,1.1,1l.4,1.7-.7,1.8h3.1c0,.1,1,2.3,1,2.3l3.1.6,1.5,1.2-.9,3.5-2.3,1.9.6,1.8-1.8,3.7.6,1.7h0l-1.5,1.4-.2-1-1.6-.3-.2,1.4-2.8,2.3.2,3.5,1.7-.2,1.4.6.9,2.2-1.5.7-2,4.8-4.1,1h0l-4.8-1.3-2.5-3v-1c0,0,1.7-3.2,1.7-3.2v-1.2c0,0-3.2,1.4-3.2,1.4l-4.2,1-1.1-.2-1.5-1.5-3.8,2.1-3.9-1.8-2.8.2-1.8-2.8-1.8-.5h0l-.5-2.6.7-1.8,1.5-1.5,1.7-.3.7-1.3v-1.8c.1,0-.2-1.3-.2-1.3l-1.2-.7v-1.9c.1,0-.8-.3-.8-.3l-.8.4-.7-.6-1.7.8-.8-.6v-.8h0l2-5.2-.9-.5-1.5.7h-1.6s-.6-.9-.6-.9l.5-1.4-1-.7-.4-1.3h0l4-.7,10.7-4.9,2.2-.2Z"/>
    <path id="TR-38" d="M270.9,247.2l4.5,1.9.6,1.6,1.2.7,1.1,1.7h2.6c0,0,4.1-1,4.1-1l5.7.4,3.7-.6,2.6,1.1,1.7,1.4,1.2,3.4-2,1.8-1.3,2.3-.4,3.1-2.3,2,2.1,4.5h0l-1.2,1.9-1,4.3-7.3,3.1h0l-4.1-4.1-3.2.9-2.3,3.1-1.6,4.1-4.1,1.6-2.7,3-2.1.9-.8,5.9-.8,1.3-4.5-.3-.8-1.1-.8.2-3.4-1.2h0l1.2-3.6-.2-6.2-1.5-1.1-3.6-.3-.8-2.9-2.1-1.5-1.3-1.9h0l.6-1.7,3.1-1.4,2.9-4.2-2.4-5.7-2.1-1.2,1.9-4.4.4-2.7h0l2.6-1,.2,2.2.5.4,3.3-1.3,3.6-2.6-.9-2.3.7-1,6.5-.9,1.3-.7,1.3-1.9Z"/>
    <path id="TR-79" d="M296.3,329.1l1.4-3.2,2.6-1.2,1.6-2,1-.3,1.2.3.8,2.6,4.7,1.2.7.7.5,2.4.9.4,2.4-.3,1.2.5,1,2h0l-1.8.9-.5,1.2-5-1.2h-1.7c0-.1-1.4.5-1.4.5l-.5-.7h-.9c0,.1-.6,1.3-.6,1.3l-1.7-1-.2-.6.9-1.1-.3-.5h-1.1c0-.1-.3-.8-.3-.8l-1.7-.7-3.4-.4Z"/>
    <path id="TR-71" d="M208.7,243.4l-1-.5.3-1.6-.5-4.4-3.5-3,2-3.3-.3-2.2.8-.3,1.5-4.2,4.2-1.5,1.5-1.4-.7-1,.5-2.8-.4-.8.7-1.5-.3-.4,1.3-1.3v-.9s1.5-.3,1.5-.3h0l2.3.4,1.3,1.4,2.8.3h0l.9,1.8,2.5.9-.4,1.4.6,1.6-.3,1.6,1.7,2.7-.2.6h0l-2.1.8,1,1.3.4,2.8h0l-.7.8h-1.9c0,0-1.2,3-1.2,3l-5.4,5-2,.8-4,3.1-3.1,1Z"/>
    <path id="TR-39" d="M48.2,151.1h1.1c0,0,1.1,1.4,1.1,1.4h.8c0,0,.7,1.9.7,1.9l2,1.6h1s1.3,1.9,1.3,1.9l.4-1.1h1c0-.1.2-.8.2-.8h1.3c0,.1.7-.6.7-.6l3.6,1-.4-1.3.8-.6v.4c.1,0,.2-.5.2-.5l1.3,1.2,1.7-.6,1.3.3.8,3.4h-1.5c0-.1-.4,1.9-.4,1.9l1.6,3.6,1.6,1.9-.4.4.3.9,1.2,1.4h-1c0,0-.2.7-.2.7l-5.3,3.1-2.2.2-4,1.5-1.4,1.2-1,4-1.8,1.9-2,.7-3-2.4-.7-1.9-1.1-.8-4.4.6-1.9-.4-1.4,1.3h0l-.8-.7.8-1.5-.7-2.7,1.4-2.5-.2-.9,1.4-1.8-.7-.7-1.1,1.2-.6-.6,1.5-2.1-.2-1.8,1-2.1-.9-2,.2-5.9h0l.4-1.2,1.1-.6v-.9s1.1-.4,1.1-.4l3.5,1.2v-.8s1.2-.6,1.2-.6Z"/>
    <path id="TR-40" d="M227,229.6h1.9l1,2.4,4.7,2.4,1.1,2,3.2.6.4.6-1.4,1.8,2.7,1.4,1,1.8h0l-3,3.3.7,1.4,3.1.3-3.7,4.7v1.6c0,0,1.1,1.2,1.1,1.2h-2.2s-2,1.9-2,1.9l-1.9,4.8h-.9c0,0-1.7-1.7-1.7-1.7l.2,1.6h0l-1.7.3-1.4-.5-2.7-2.7v-1.5s-1-1.9-1-1.9l-1.6.2-.5-.7-1.4.6-.7-.6h0l-.4-.6-2.6-.2v-.8c-.1,0-2.9-2.4-2.9-2.4l-1.9-.7-1.8-3.1-1.6-1,.7-.7-1.3-2h0l3.1-1,4-3.1,2-.8,5.4-5,1.2-3h1.9c0,0,.7-.9.7-.9Z"/>
    <path id="TR-41" d="M127.4,182.3l2,.8h0l-1,.7-1.7,3,.3,1-.4.9,1.9,4-.9,1.6-1.9.8.5,3.3-2,.9-1.4,3.4-3.8,1.4h0l-4.5-1.2-6.5,2.1-2.8-.6h0l.5-1.1v-3.7h0l1.5-1.6,1.3,1.8,6.4-1.5,2.8.5.6-.9-.7-.7-3.4.7-1.4-1.1-3-.4-1.1.6-2.1-.5-2.7.9-.9-.3-.2-1.5h0l4.4-5.5,2-.4,2.4.6,1.5-2.4,2.6.6,1-.3,1.5-2.5v-1.6h0,6.2c0-.1,1.2-.6,1.2-.6l.2-.9,1-.7.8.2Z"/>
    <path id="TR-42" d="M169.3,251.7l.7.3,2.2,4.4,1.2,1.2,2.6.3,2-2.7.7.8,1.6-.7,2.2,1.7,1.6.2.8-.3,1.5-2.1,2.5,1.2,2.1-1.3.2-2.5,1.7-.9.5-2.8.8-1.2,3.9-1.1.4.4-.2,2.5.8.5,2.3-2.1,2-.6.4,1-1.8,1,.5,3.1,1.4,1.8,3.7,2.3-.2,3.7.8,4.6,2.8,4.3h0l-3.3,1.1-.8,2.5-2,2.2-1.9,6,1.3,2.2.3,2.7,2.5,1.8,1.1,2.4,1.8,2,16.4-3.9h0l2.1,3.5,2.4,1.4,3.4,4.9.8,2.3-.2,1.2-2.6,3.1,1.9.9-.6,2,2.4.5,1.5,2.2h0l-.7,1.3,1,1.7-4.8,2.6-4.2,1.3v1.9c.1,0-.8.8-.8.8l-5,1.7-5,.7h0l-1.5-4.1-4.3-5.9-.4-6.5-5.8,2-2.9-2.1-2.4.2-2.7,1.4-1.5,2.2-2.6,2.2-1.3,4h-1.9c0,0-.9,1.1-.9,1.1l.6,3.5,2.5,1.4.5.9-.8,3-1.7,1.7-2.7,1.2-5.7,1h0l-3.1-2.1-.5-2.8-.9-1.1-4.7-2.2-2.7-3.7-1.4-4.3-1.4-1.3-.7-1.8h-1.1c0,0-2.2,1.2-2.2,1.2l-1.8.3-5.6-1.3-2-2h0l.8-3.3-.7-3.6.7-1,2.1-.7.2-.5v-1.2s-1.2-2.8-1.2-2.8l.2-2,2-1.5.3-1.7,1.9-1.4.2-2.6-.6-1.8-1.9-.7-3.3-2.7-1.6-2.1-.6-1.9h0l.8-2.4,7.7-5-1.4-1.3-.3-1.1,2.1-4,.3-3.5-.5-.9,3.7-.8-.4-.6-3.3-.6-.7-1.4h0l4.8-.6,1.1-1.7h1.6c0-.1.5-.6.5-.6Z"/>
    <path id="TR-43" d="M93.5,236.4h5.3c0,.1.6-1,.6-1l1.8-1.3.5-1.6,2.7-2.4,1-3.9,2.3.8,1.1,1,3.2-.2h0l1.1,3.6,2.2,1.9,1,.5,3.8.2h0l1.5.4,2.8-.6.4.5-.8,1,1.8,1.7,2.9,1.5.6,2.7-.7,1.2.5,2.3-.6,1.3,1.3,1.1.2,1.8,1.5.2h0l-1.1,2.1h-1.7c0,0-2.1,1.5-2.1,1.5l.3,4.5-1.5,2.5-1.8.7-1.7,2.2-1.3.4h0l-1.5-.6-1.2-2.4-5.9-.7-2.6.3-5.4,1.8-2.3,2.2-2.6-.9-3.1.3h0l-2.9-2.2-1-2.4.8-1v-1.4c0,0-5.5-1-5.5-1l-1.4-1.1-1-2.1h0l-1-2.5,4.6-.8,3.9-4.4-.6-4.1,1.8-1.9v-1Z"/>
    <path id="TR-44" d="M336,252.1l1.6,1.3,1.9-1.1,1.6,1h2c0,0,2.4,2.4,2.4,2.4h0l-2.1,2.3v1.3c.1,0-.5.7-.5.7l1.5,5-.5.4-2.3-.7-.7.6h-1c0-.1-.1,1.5-.1,1.5l-1.3.7-1.4,2,.3,3,1.9,1.8,6,1.9,3.5-.7,1.8,2.7,1.9,1.3,3.8-.8,1.1,1.6h0l-.3,2.3-.8.8,1,.6h0l-3.2,2.2-.3.9-5.3,2.1-4.4-3-1.3-.2-.4-.7-3.7-1.8-2.6.2-.9.3-1,1.4-4.5,1.7-.2.7.8,1.2.4,2.1-2.5,2.3-2.9.6-2.8-.6-1.3.7-.7-1.6-2,.5.3-1.1-.5-.6h0l-.9-.6-.4-2,3-2.6,1.3-2v-1.5c0,0-2.2-.3-2.2-.3l.4-2.9-2.3-.4-2.7-2.1-2.1.2-3.6-2v-1.2s1.2-2,1.2-2h0l1.5-1.3.9-3.1,4-2.1-2.5-3.2,1.5-2.7-1.4-2.6.2-.6,7.5,1.2.7-1-.9-1.8.8-.9,3.6.8h6.1c0,0,2.5-1.8,2.5-1.8l1.6-.3Z"/>
    <path id="TR-45" d="M52.1,244.2l1.6-1,2.9,2.3,4-.6,2.2,2.3,2.7-1.8.8.9.8,2.3,2.8,2.2,2.7,3.9,1.2-.2,1.7-1.5,2.7.5,4.5-2.5,2.2.2h0l1,2.1,1.4,1.1,5.4,1v1.4c0,0-.7,1-.7,1l1,2.4,2.9,2.2h0l-1.6,3.4-2.2,1.3h-1.6c0,.1-.7,1-.7,1l-1.2,7.5-1.7,2.9,2.6,3.6h0l-1.5,1.3-.9,2.2-2.9,1.7h0l-3.1-1.3h0l-1.6-1.9.3-2.3-3.3-1.1-1.8-1.7-2.3-.4-.7-1-2.5-1.2-2.5.6-.9-.7-1.2.3.3,1.9-.7,1-.5-.8h-1.7c0,0-1.3-2.6-1.3-2.6l-1.7-.2-1-1-1,.2-.9-1.5-1.8.2-.7-1.5-1.2-.6-2.8.2-1.2-.9-.2-3.2-2.5-3.4,1.4-2-.2-.8,3.3-1.7,1.3.4,2.9-1.2,1-1,.4-2-1.9-5.1.4-2.6-1.4-1.4-.5-2.9Z"/>
    <path id="TR-47" d="M405.6,299.2l2.1,7.1,7.2-.6,4-1.9,2.7-2.4,3.8-.4,1.4-1.2h0l.3,2,1.7,2-1.1,1-.3,1.2-1.8.7-3.8.2-.5,1-.8,6.7.3.7,1.2-.4.7,2.2-.2,1.7h0l-3.7,1.2h-6.1s-1.3.5-1.3.5l-1.4-1.1-6.6-1.2-1.9.8-1.8-.6-6,3.1-3.2.5-1.3,1.6-3.3,1.8h0l-.4-1.5-1.4-1-.4-2.8-1.4-2.2v-1.1c-.1,0-1.1.1-1.1.1l-1.1-1.1-.3-2.1-1.6-3.9v-1.7c-.1,0,.6-1,.6-1l-1-1.7h1.5s3.5-1.6,3.5-1.6l3,1.8h1.3c0,.1,4.2-1.5,4.2-1.5l.4-1.2,5.5,1.4.5-.9-.6-2.1.4-1.6,5.3,1.5,2.3-.6.6-1.4Z"/>
    <path id="TR-48" d="M52.5,309l.4-2.4,1.6-1.2,1.9-.3,2.7,1.1h1.6c0-.1,1.9,1.6,1.9,1.6l3.1-.5,4.6.4,3.4-2.7.4,1.3,5.7.2,3.4,2.5.8-.2h0l.5,1.7,1.3.2,1,1.3v1.8c0,0,2,1.2,2,1.2l1.1,2.3,1.6.6,2.6-.4.2,2.3,1.8,2.6v2.4c0,0,.7,2,.7,2l1.8.7,2.4-.4,1.4-.9h0l.6.7h1.4s-.7,1.7-.7,1.7l1.7.5.3-.9.7.2,1.9-4.6,2.8-1.2,2.2.8h0l1,.8.3,1.4-1.5,2.6v3.9s-.8,2-.8,2l-2.4,1.5-1.4,2.4-1.4,1.3-3.2.2-2,1.1.3,1.5-.6.2v2.2c0,0-1.2.9-1.2.9h0l-1.1-1.1-1.5-.4-.7-.6.2-.6-1.2-.3.8-.9-.2-1.5-.6-.4.6-.8v-1.4s-.9-.2-.9-.2v-.6c-.1,0-1.1.3-1.1.3v.5l-1-.2.9-.5v-1.9c-.1,0,.8.2.8.2v-1s.7.4.7.4l-.3.5.7-.2.2-.7-.7-1-1.1-.2-.9-1.1-.6.2-1.7-1.5-.8,1.8h-.9c0,.1.1.9.1.9l-.5.3.4.8.3-.4.7.3-1.6,1.6-.6-1.2.7-.4-.9-.7-.6.3.3-.6-.5-.6-1.6-.6-1.4.4-.6-1-.8.6.2-.8-.4-.2.7-.7-.5-.3.4-.4-1.1-1.2-.9-.4-.4,1.4-.4-.5-.5.3v-1s-1,.2-1,.2v-2.1c-.1,0-2.1,1-2.1,1l.2.5h1c0,0-.6,1.4-.6,1.4l-2.3-.9v.7h-1s-.2-.7-.2-.7l1.2-.3-1.2-.8-.8,1.5,1.8,2.4h-1.3s-.8,1.3-.8,1.3l-1.6.2-1.6,3h-.8c0-.1-1.3.9-1.3.9l-.3-.5-.7.9-.5-1.7h2.5c0,0,.9-1.2.9-1.2l-.4-.5-.7.2.5-.8-.8-.5-.4.7-1.5-.3,2.3-1.4,1.1-.2v.7c.1,0,.8-.6.8-.6l-1.1-.8,1.2-1.5h-1.3c0,0-.5,1.1-.5,1.1l-2.9.3-.5.5-5.2-.6-1.1,1.2-.3,2-2.6-.7-2.5,1-3-1v-.8s1.5-.1,1.5-.1l.3-1.2,4.6-.5.9-1.5,1.6.8,3-.9,5.9.4.3-1.3h-1.4s.5-.2.5-.2l-.6-.3,1.5-.7v-.7c-.1,0-1-.3-1-.3l.7-.2-.6-.5,1.9-.5,1.7.5v.6c0,0,0-1.3,0-1.3h1.1c0-.1.3-1.6.3-1.6l.9.3v-.5c0,0,2.1-.8,2.1-.8l-.2-.7-5.8.6.4.6h-.4c0,.1-.2-.4-.2-.4h-2.9c0-.1-.8.4-.8.4l-1.4-.4-3.4,1.3-1.9-.4-1.2.8-1.6-.4-.2.6-1.2-.6-1,.2-1.5-1.7-.3.6-.4-.4-.5,1v-.9c.1,0-1.2.4-1.2.4l-.7,1.9-1-.3-1-3.1,1.8-1.7h-1s0-.6,0-.6l.5-.4,1,.8.3-1.4.6.9.5-.8.7.4v.8s1.1-.3,1.1-.3l1,1.5,1.7-1.5,1.1-.3-1-.5-.3-1.3,1-.6.5.4-.3.7h.4c0-.1-.4-1.2-.4-1.2l1-2.1h-1.5c0,0-.9,1.7-.9,1.7l-.6-.3.7-.7-.4-.7-1.4.9,1-2.3-.6-.8-.8,1.4-1.4-.7-.2-1.1,1.3-.8-.5-1.1Z"/>
    <path id="TR-49" d="M441.6,239.8l2.2,2.3,1,2.6h2.2s.3,2.1.3,2.1l2.6,5.8-.5,2.5v4h.1l-6.3-.5-6.3,1.9-.9,1-.5,1.8-1.4.7.2,2.2-3.7,3.3-.7,1.7-4.5-1-4.9-.3-1.9.9-.2.6h0l-1.3,1.8-2,.4h0l-.2-1.9-1.2.2-1.3-1-.7-2.7.3-1.9-1.7.8-1.4-1.1h0l-.4-3.9.5-3.5,1.7-2,2.9-1.2.4-1-.4-1.2-2.2-1.3-2.4-4.2v-1.8c0,0,1.2-1.4,1.2-1.4h0l1.6.6,5,.2,4.4,3,.6,3.1h4.4c0-.1,4.7-1.4,4.7-1.4l2.6-1.8v-1.4c0,0,3.2-.7,3.2-.7l.6-2.9,4.2-3.2Z"/>
    <path id="TR-50" d="M241.5,242.6l.4,1,2,.9,3.4.5,2.4,1.9.4,1.5-.4,1.3,1,2.3v2.1s1.2,2.2,1.2,2.2h0l-.4,2.7-1.9,4.4,2.1,1.2,2.4,5.7-2.9,4.2-3.1,1.4-.6,1.7h0l-3.4-.2-2.2,1.6h-1.1s-2.5-1.1-2.5-1.1l-1.1-2.2h0l-1-1-.3-2.4-1.8-2.8-2.8-1.5-.2-1.6,1-1.8v-2.4c.1,0-.5-.6-.5-.6h0l-.2-1.6,1.7,1.7h.9c0,0,1.9-4.7,1.9-4.7l2-1.9h2.2s-1.1-1.3-1.1-1.3v-1.6c0,0,3.8-4.7,3.8-4.7l-3.1-.3-.7-1.4,3-3.3Z"/>
    <path id="TR-51" d="M237.1,275.9l1.1,2.2,2.5,1.1h1.1s2.2-1.6,2.2-1.6l3.4.2h0l1.3,1.9,2.1,1.5.8,2.9,3.6.3,1.5,1.1.2,6.2-1.2,3.6h0l-2.8,1.7-2.1,3.1-3.2-.4-1,4.4-.6.9.5.9-1.7,1.3h0l-5.2,2.2h-2.1c0,0-1.5-2.1-1.5-2.1l-2.4-.5.6-2-1.9-.9,2.6-3.1.2-1.2-.8-2.3-3.4-4.9-2.4-1.4-2.1-3.5h0l2.1-2.1,2.8-.7,1.3-1,2.1-3.1.5-3.7,1.9-1.1Z"/>
    <path id="TR-52" d="M306.9,184.2h2.4s.1.7.1.7l2.6.7,3.7,2.8,1.8-.9,1.9-3,.5.7h2.2c0,0-.2,1.8-.2,1.8l.8,1.2,1.6.5.3.9,5.7.8h0l-.6,2.1-1.9,2.8.4,1.5-1.4,1.1,1,2.5,1.5.9-.6,1.1.9,1.5-.2,2.3h0l-1.2,1-1.9.2-.4,1.4-2.3,2.2-1.3-.9-1,.9-2.7-.5h0l.6-1.3-1.7-1,1.2-1.8-.2-.6-3-.9h-3.9c0,0-4.2-3.8-4.2-3.8l-1.1-.4-.2-.7-1.6-.7-2.6.8-1.4-1h-1.5c0,0-.5-.6-.5-.6v-1.7s-3.1-1-3.1-1l-.2-.9-1.2-.7h0l.2-.9,3.1-1.7.7-1.2h2.5c0-.1.8-.7.8-.7l1.1-1.4-.4-1.5,1.1-1h2c0,0,1-1.5,1-1.5h.8Z"/>
    <path id="TR-80" d="M282.4,299.9l-.7,1.5,1,9.4h2.3c0,0,.5.4.5.4l3.4-1.1h4.3c0,0,.2.7.2.7l-.8,1.7,1,2.1-.3,1.6h0l-5.8,6.9h0l-1.9-.4-1.9.3-4.2-1.9-2.4.5h0l.8-5.7-1.5-6.7.3-2.8.8-2.6,1.4-2,3.4-1.8Z"/>
    <path id="TR-53" d="M412.5,177.5l.8,1.4v1.8c.1,0,3.7,4.8,3.7,4.8l-1.7,1.1-3,3.4-.5,1.9-2.3,3.1h0l-3,1.8-4.8,4.5-6.8,3.2h0l-2.7.7h0l-.9-2.7,1.7-3-2-3.1.6-2.8-1.3-1.3-.2-1.8-2.2-.8h0l1.7-1.7,3-.6,1.1.5,4.5-2,2.3-2.6,1.9-.7,1.5.2,3.2-1.3,5.4-4.3Z"/>
    <path id="TR-54" d="M136,184.7l3.4,1.5,5.7.5h0l1,.9-1.3,1.8-1.8,1.5-1.7.3-.9,1.3.3.6h1.6c0-.1.9,1.2.9,1.2l-1.2,1.1-.3,1.2.2.7,2.4,1.2-.9,1.8h0l-.9,1.5,1.2,2.2-1.5,1.4-3.6.8-4.2-.2.2,3.8-.5,1.1h-1.2c0,0-1.1-1-1.1-1l-2.1,1-1.2-.7-2.6.9-1.5-.3-1.3-.9-1.1-1.8-.9,1-.7-.2-1.7-3.2h0l.3-1.7h0l3.8-1.4,1.4-3.4,2-.9-.5-3.3,2-.8.9-1.6-1.9-4,.4-.9-.3-1,1.7-3,1-.7h0l6.6,1.6Z"/>
    <path id="TR-55" d="M275,163.8l2.5,2,1.2,1.8.5,5.7,2.7,3.5,2.6,1.5.2,1,1.2,1.1,1.7.3,2.3-1.1,2.8-3.9.6.7,4.9.9,3.3,1.9.8.9.2,2.4,3.5,1.5h0l-1,1.6h-2c0,0-1.1,1-1.1,1l.4,1.5-1.1,1.4-.8.6h-2.5c0,.1-.7,1.3-.7,1.3l-3.1,1.7-.2.9h0l-1.2-.9h-1.6c0,0-2.2.9-2.2.9l-1-.2-1.7,1h0l-3-1.2,1-1.2-.2-.7-3.5-1.3-.6,1.3-.8.3-1,3.1-4.4-1.8-3.2.8-.9-.9h-2.7c0-.1-.5-.8-.5-.8l.2-1.1-1.9-1-1-2.4-.9.6-.4-.8-.9.7-1.7-.9-3.4.6-1-1.3-3.2-.4h0l-2.4-.3-1.2-.8,1.3-2.3-1.7-3.7v-1.5h0l4.4-2.4.6,2.2,1.3.9v1.3c0,0,3.1,1.2,3.1,1.2l1.3-.4.8-1.2-.4-2.3,1.1-.2,2.1.9-.5-4.3-2.7-1.3-.8-2.7,1.2-2.5,1.1-1h0l2.2,1.1h2.8c0,0,9-3.5,9-3.5Z"/>
    <path id="TR-63" d="M358,289.2l5.3,2.1,2.1,2.4,3.6.6,1.7,2,1.6-1.7,2.2-.5,1.1,2.8.3,6.4,1.9,2.2h0l1,1.7-.8,1v1.7c.1,0,1.8,3.9,1.8,3.9l.3,2.1,1.1,1.1h1c0-.1.1,1,.1,1l1.4,2.2.4,2.8,1.4,1,.4,1.5h0l-1.3,1.1-3,.7-.8.9-5.5,2.3-15.8,2.8-4.9-1.3h-7.4c0,0-4.9-4.4-4.9-4.4l-4.3-1.9-3.7-.7-5.3,2.1-.3.9h0l.5-1.5-1.1-1.4v-1.2c0,0-1-.8-1-.8l.3-2.2-1.6.4-1.4-.9.4-2.3-1.1-2.2.2-.6,1,.2-1.1-1.4.5-1.7.7-.3-.3-.6,2.6-3,1.7-.2.7.5.5-.7h0l2.4,1.3.5-1.3,1.2.2.7-1.1,4.3-.3,1.3-.7,4.2-3.7,5.2-1.1-.9-1.3,1.7-.3.8-.5v-.9c.1,0,1.2-.3,1.2-.3v-1.6s-1.6,0-1.6,0l.8-.8h1.3s.4-1.9.4-1.9l-.5-.4,1.4-.6.8-2.3.8-.7,1.9-.4Z"/>
    <path id="TR-56" d="M423.7,282.2h2.7s.8,1.2.8,1.2l1.1.4,2.8-.5v.8c0,0,.7.2.7.2h1s2.2-1.3,2.2-1.3h2.6c0,0,6.4,7.3,6.4,7.3l1.9.7.4.8.9-.8-.2-.6,1.4-.6.4-.7h0l1.9,2.4,1.2.6,1.2,3.1,1.1.8h0l.2,4.8-3.4-1.2-3-.2-2.9-1.6-1.1.4-4.3,4-1.6.7h-2.1s-1.1-.9-1.1-.9l-1.9.8-1.9-.8-2.1.2-2.2-2.2h0l-1.4-.9-1.5.3-3.2-1.1-.8-1.4-6-4.6.3-1.3,3.2-3.1,4.1-1.7,2-4Z"/>
    <path id="TR-57" d="M248.6,151.4h1.5c0,0,1,1.2,1,1.2l-.2.6.9.5,2.9-.5.5.9-1.6-.3-1.3,1.9v1.6c-.1,0,.9,2.2.9,2.2l1.9,1.9v1.1s1.9,1.9,1.9,1.9l4.1,1.7h0l-1.1,1-1.2,2.5.8,2.7,2.7,1.3.5,4.3-2.1-.9-1.1.2.4,2.3-.8,1.2-1.3.4-3-1.2v-1.3c0,0-1.4-.9-1.4-.9l-.6-2.2-4.4,2.4h0l-2.1,2.8h-1.8s-1.7,1.4-1.7,1.4h-1.6c0,0-1.5-1.1-1.5-1.1l-.8-1.8-2.1-1.3-1.3.6h0l-.6-1.7,1.8-3.7-.6-1.8,2.3-1.9.9-3.5-1.5-1.2-3.1-.6-1-2.2h-3.1c0-.1.7-2,.7-2l-.4-1.7-1.1-1v-1h0l2.9.2,3.6-1.1,1.4,1h6.2c0,0,3.2-2.5,3.2-2.5l1.1-1.9v-.7c-.1,0,.2,0,.2,0Z"/>
    <path id="TR-73" d="M454.1,296l2.9.9,2.1,1.6,6,1,1.5-.3,1.8-2h1.6c0,0-.8,3.4-.8,3.4l-3.7,4.2,1.2,2.4.2,4.8h-.6s-.6.8-.6.8l-1.8-1.4-3.1-.9-2.4.7-1.7,1.4-3.2-1-.2-.8-.9-.4-1.7,2.2h-1c0,0,.2.8.2.8l-2.1,2.3-.9,2.3-2.9.3-3,1.2-.9-2.6.5-1.6-1.5-1.6h-2c0,0,.5-1,.5-1l-.4-.2-4.6,4.5-6.3,1.7-3.9.4h0l.2-1.7-.7-2.2-1.2.4-.3-.7.8-6.7.5-1,3.8-.2,1.8-.7.3-1.2,1.1-1-1.7-2-.3-2h0l2.2,2.2,2.1-.2,1.9.8,1.9-.8,1.1.8h2.1s1.6-.6,1.6-.6l4.3-4,1.1-.4,2.9,1.6,3,.2,3.4,1.2-.2-4.8Z"/>
    <path id="TR-58" d="M329.3,206.2l2.9,1.2-.6,2.5v4.1c.1,0,1.6,2.5,1.6,2.5l2.7.5,2,1.4,1-.5.6.6,1.6-1.1.8,2.4,1.7.8,3.6.2h0l-.8,1.6-2.7.3-2,1.8-3-.3-1.6,1.4v1.4c0,0,2.7,2.2,2.7,2.2l-2.9,2.1-1.1,3.4.5,3.2-1.2,2.4.8,2.2,1.8,1.1-.4,1.1-1.8.4,1.9,3.3-1.9,3.7h0l-1.6.3-2.5,1.7h-6.1c0,0-3.6-.7-3.6-.7l-.8.9.9,1.8-.7,1-7.5-1.2-.2.6,1.4,2.6-1.5,2.7,2.5,3.2-4,2.1-.9,3.1-1.5,1.3h0l-.7-.5-2.8.2-4.3-.8-6,1.3h0l-2.1-4.5,2.3-2,.4-3.1,1.3-2.3,2-1.8-1.2-3.4-1.7-1.4-2.6-1.1-3.7.6-5.7-.4-4.1,1.1h-2.6c0,0-1.1-1.8-1.1-1.8l-1.2-.7-.6-1.6-4.5-1.9h0l2.2-3.1.5-4.2,2-.8,1.6.7,1.2-.2,2.7-2.8-.5-3.5-2.2-2.6.4-2.9-2.2-.9v-2h-.1l1.7,1.4h1c0,.1.5-1.7.5-1.7l1.2-.6,8.3.2,2.8-1,.9-1.3.5-3.6,1-.4,1-2,1.2-.6h5.9c0-.1,1.2.7,1.2.7l3.8-.3,1.2.7h1.6s.8.8.8.8h1.1c0,0,.2-1.5.2-1.5l3.4-1.4-.4-.8,1.7-1.3,1.1-1.8h0l2.7.5,1-.9,1.3.9,2.3-2.2.4-1.4,1.9-.2,1.2-1Z"/>
    <path id="TR-59" d="M40,178.6l1.4-1.3,1.9.4,4.4-.6,1.1.8.7,1.9,3,2.4,2-.7,1.8-1.9,1-4,1.4-1.2,4-1.5,2.2-.2,5.3-3.1.2-.8h1c0,0,.3.5.3.5h0l-2,9.8-1.5,2.6v1.5s-1.1,2.2-1.1,2.2v1.8c-.1,0,.5,1.2.5,1.2h0l-1,2.1h-2.1c0,0-3.2-1.7-3.2-1.7l-6.3,1.4-1.1,2.2-.4,2.3-2.9,2.7-1.2,2.4-3.1,2.3-3.5,1-1.3,1.4-1.7.4h0v-1.9s2.1-4.9,2.1-4.9l-2-.7-3.7.2h0l-2.5-3.2.7-5.2-1.3-1.2.5-.7,2.7-.4,2.6-2.6,1.5-2.6-.5-3.1Z"/>
    <path id="TR-60" d="M286.3,195l1.7-1,1,.2,2.2-.9h1.6c0,0,1.2.9,1.2.9h0l1.2.7.2.9,3,1v1.7s.6.7.6.7h1.5c0,0,1.4,1,1.4,1l2.6-.8,1.6.7.2.7,1.1.4,4.2,3.9h3.9c0,0,3,.8,3,.8l.2.6-1.2,1.8,1.7,1-.6,1.3h0l-1.1,1.8-1.7,1.3.4.8-3.4,1.4-.2,1.5h-1.1c0,0-.8-.7-.8-.7h-1.6s-1.2-.6-1.2-.6l-3.8.3-1.2-.8h-5.9c0,.1-1.2.7-1.2.7l-1,2-1,.4-.5,3.6-.9,1.3-2.8,1-8.3-.2-1.2.6-.5,1.8h-1c0-.1-1.7-1.5-1.7-1.5h0l-1-.9-.5-4-4.8-.2-2.8.6-.9-.6-2.8-.4v-2c0,0-1.8-1.4-1.8-1.4l-.3-2h0l3-1.9,3-.7,1.6-1v-1.1c.1,0,1.7-1,1.7-1l.7-1.9,3.5-.2,1,.5v.6c0,0,2.3.9,2.3.9l.7-1,3.4-1.6.6-1.4,1.3-1.1-1.7-.3-.2-.8,3.5-.3.7-1.3-.2-1.5,2-1.8-2.1-1.1-.3-1.1Z"/>
    <path id="TR-61" d="M365,185.7l1.4.4,2.1,2.3,2,.9,1.9-.5,2.8.9,1.1,1.1h4.3c0-.1,2.1,1.4,2.1,1.4l2.8-.5,2.3-1.7h0l2.2.8.2,1.8,1.3,1.3-.6,2.8,2,3.1-1.7,3,.9,2.7h0l-5.5.6h0l-2.2-1.9-1.5.4-1.4-1,.3-1.2-1.4-1-1.9.3v.9s1.8.8,1.8.8l.4.7-2,.9-.6-1.2-2.8-1.1.5-2-.4-1h-1.4c0,.1-.3,2.6-.3,2.6l-1.4,1.5h-2.7c0,.1-1.6-1.3-1.6-1.3h-1.7c0,.1-.3-1.1-.3-1.1l-1-.2-1.5-1.6-3.8-.8-1.6-.9h0v-10.9h0l2.6.9,3.6-2,.4.2Z"/>
    <path id="TR-62" d="M347.3,255.8l-.6-3.4.8-1.6-.8-.7.5-.7,2-.4,1.4-1-.6-1.9.2-1,3-2.4,5.3-2.5,4.7.7,3.8-1.1,5.5.8,1-.7,1-3.4,1.1-.5,4.9,1.2,1.1.7,3.1-1.2,3.7.7,1.9,1.9h0l-6.3,5.5-4.8-.3.7,2.7-1.7,1.4-1.3,4.5h0l-1.2,1.5,1,1.6-.8,3.1-1.2,1.3-.4,1.9-1.1-.4-2.2.6h-3.8c0,0-.6,1.6-.6,1.6l-.6.2-1.4-.7-1.1.5-.5-1.1-1.8-.6-1.2-1.3-7.8-1.3-2.7,1.4-2.5-.8-.4-.9,1.2-2.1-.2-1.1-.9-.9Z"/>
    <path id="TR-64" d="M95.9,262.6l3.1-.3,2.6.9,2.3-2.2,5.4-1.8,2.6-.3,5.9.7,1.2,2.4,1.5.6h0l-.4,1.6-2.5,2.1.6,2.5-1,.6-2.9,3.9h0l-4.4,3,.2,3.7-.8,1.1-7.3-1.6-2.2,2.5.2.9-.8.2-.3,1.6-.9-2.1h-8.8c0,0-2.6-3.7-2.6-3.7l1.7-2.9,1.2-7.5.7-.9h1.6c0-.1,2.2-1.4,2.2-1.4l1.6-3.4Z"/>
    <path id="TR-65" d="M484.6,244.6l1,1.2v1.2c.1,0,.7.3.7.3l-.5,1,.3,1.7,1.8,1,1.2,1.5.3,1.3-.8.7.5,1.7-1,1,.7,1.4-.2.5.7.6-.2.9.9,1.3,1.4.4.4,1-1.4,3.1.5,1.2-.3,1,1.3,1.1-.3,2.9.4,1.5-.6,1.3.4,1.2-.4.5.5.7h1c0,0,.5.5.5.5l1.8-.9.4.9,1.3.6-.4,1.2-2.5,1.8-.3,3.4-1.1.4.4,1h-1c0,.1-.5,2.1-.5,2.1l-1.7,2.6.3.7-.7,1.8,1.1.7,1.4-.3,1.8.5.2,1.4.8.7.6-.3v1.2h0l-1.2.6-2.4-.2-1.2.9-3.5-.3-.8-1.6-1.7-.9-3.2.8-3.6-.3-4.8,1.4-3-.7h-1.6c0,0-1.8,1.9-1.8,1.9l-1.5.3-6-1-2.1-1.6-2.9-.9h0l-1.1-.8-1.2-3.1-1.2-.6-1.9-2.4h0l1.2-6.4-.3-1.5-1-.8v-.8s2.9-2,2.9-2l.2-3.9,4.1-6.1,2.5-2.4,3.6-2.1,1.4-2v-.9c-.1,0-3.3-1.4-3.3-1.4l-.6-1.5-2-1.6h0l2-3.5,2.6-2.1v-5c.1,0,3.1-.9,3.1-.9l3.4.2,3.3,3.5,2.7,1.4,2,.3,2-1.8,1.9-3.1,4.3-.7h0v.4Z"/>
    <path id="TR-77" d="M104.8,199.8l.8-.2h0v3.7c0,0-.4,1.1-.4,1.1h-3c0,0-3.1,1-3.1,1l-5.6-1.2-.4,3.4h0l-5-2v-.6s5.5-3.7,5.5-3.7l7.3-.5,1.8-.5.9-.9,1.2.4Z"/>
    <path id="TR-66" d="M261.7,214.1l.3,2,1.7,1.4v2c0,0,2.9.4,2.9.4l.9.6,2.8-.6,4.8.2.5,4,1,.9h0v2c.1,0,2.3.9,2.3.9l-.4,2.9,2.2,2.6.5,3.5-2.7,2.8-1.2.2-1.6-.7-2,.8-.5,4.2-2.2,3.1h0l-1.3,1.9-1.3.7-6.5.9-.7,1,.9,2.3-3.6,2.6-3.3,1.3-.5-.4-.2-2.2-2.6,1h0l-1.2-2.2v-2.1s-1-2.3-1-2.3l.4-1.3-.4-1.5-2.4-1.9-3.4-.5-2-.9-.4-1h0l-1-1.8-2.7-1.4,1.4-1.8-.4-.6-3.2-.6-1.1-2-4.7-2.4-1-2.4h-1.9l-.4-2.8-1-1.3,2.1-.8h0l.3,1.1,2.3-.7,3.1.4.7-1.2,2.4-1.7,1.1.3,1.1,1.1,1.7.4,1.7-.8,3.3-.2,2.3-2.4.5.3.2,1.5,6.7-.5.6-.9-1.3-2.2,1.3-1.1-1.4-2.2.7-.3,1.5,1.2,1.3-1.6,2.2-.7h0l1.7-.3Z"/>
    <path id="TR-67" d="M175.1,168.6l1.5,2.5,1.8.3v1.8s1.2,1.4,1.2,1.4v1.5l-1,2.1h0l-1.3,1.1-1.1,3.6,1.1,3h0l-9.8,2.5-2-1h-4.8s-3,1.2-3,1.2h0l-1.4.4-1.6-.3-1.1-3.7h0l2.6-3.1.3-2.2-.7-.6.2-.8,5.6-2.2,6.7-4.5,3.5-1.4,1.1-1.1,2.2-.6Z"/>
  </g>
</svg>