<svg xmlns="http://www.w3.org/2000/svg" xmlns:amcharts="http://amcharts.com/ammap" id="Layer_1" viewBox="0 0 512 512"><g id="_x3C_defs"><amcharts:ammap bottomLatitude="49.954" leftLongitude="-10.477" projection="mercator" rightLongitude="1.769" topLatitude="60.846"/></g><g><path id="GB-BD" d="m356.9 408.3.3 1.6 1.5 1.4v.5l1.1.6.6.5v.4l1.3.9.8 1.4.4 1.2.6.2h1.3l.3.1.4 1.5-.4 1.3-.3-.2-.2.5v.6l-.2.5-.5.9h-1c0 .1-.6-.4-.6-.4v.6h-.3v.2h-1.4l-.7.7-.2.8.2.7.9.9.2.7-.2 2-.4.4h-.5c0 .1-.8-.3-.8-.3l-.3.4-1.1-.6-1.5 1.3h-.9l-.3.3-.6-.4-.4-.6-.6 1-.3-.3h-.4l-.5-.2.1-.6.9-.9v-.7l-.5-.2-.3-.4h-.4c0 .1-.6-.2-.6-.2h-1.6l-.4-.6v-1.5c-.1 0 .1-.4.1-.4l.4-.4 1.6-.8-.2-.8.5-.5-.2-.3.3-.2-.9-.9v-1.3l1.1-2.1v-.4l-.8-.6v-2l.5-1.1 1.2-.4v-1l.4-.6.6-.4h.4l.5.5h.4l.9-.2.9-1.7Z"/><path id="GB-BK" d="m344.4 442 .2-.9h.6v-.4l.4-.8h.3l.4.5.2-.4 1-.6h1.3l-.2 1.2.5.9 1.4.3.7.9h.4c0 .1.5-.2.5-.2l-.3-.2.4-.3 1.6.5v-.2c.1 0 .3.3.3.3l-.6 1.1v.5l-.8.8v.6l-.5 1.1.2.3-1-.2-2 .9-1.1 1.4-.8-.4h-.3l-.4-.5h-1.3l-1.2-.5-1.3.3h-.7c0-.1-.5.3-.5.3l-3 .2h-.8l-.5-.6-.9-.3h-.5c0 .1-.4 0-.4 0l-.5.2-1-.2-.9.2-1.7-.2-.3.6h-.4v.4l.4.5-.5.2h-1.2c0 .1-.5-.3-.5-.3h-.5l-.4-.3-.2-.5-1.4-1.9v-.4l.6-.8v-.4l-1.1-1.5.2-1.3.5-.4h.3l.3-.3 1.7.4h.7c0-.1.4-.5.4-.5h.3v-.3h.4l.5-.3v.4l.6-.5.2.3 4.1.9 2.4 2 1.8.4h2.5l1.4-.9v-.9h-.1Z"/><path id="GB-BU" d="M351.1 413.3v2l.8.6v.4l-1 2.1v1.3l.9.9-.3.2.2.3-.5.5.2.8-1.6.8-.6.8v1.5c.1 0 .5.6.5.6h1.6l.6.4h.4c0-.1.3.3.3.3l.5.2v.7l-1 .9v.6h-.1v.3l.4.4v.5l-.6.3v.4l.2.4.7.2.2.4h.3l.3.6h.4l.2.5.9.9.6 2.4v.6h-.2v1.6l.6 1.4-.5.9.3 1.3-.2.5-1.6.2-.2-.3v.2c-.1 0-1.7-.5-1.7-.5l-.4.3.3.2-.5.3h-.4c0-.1-.7-1-.7-1l-1.4-.3-.5-.9.2-1.2h-.7c0-.1-.6 0-.6 0l-1 .6-.2.4-.4-.5h-.3l-.4.9v.3l-.5.1-.2.9h-.1c0-.1-1.4-1.5-1.4-1.5l-.7-3v-.8l1.1-1 .2-1.9-1.3-.7-2.9-.3-1.5-1v-1.6c-.1 0 0-.4 0-.4l1-.6v-.3c.1 0-.1-2.3-.1-2.3l-.2-.6v-1.8l.1-1 .4-.5v-.3h-1l-.6-.6.2-.3.4-.4h1.4l.8-.7.9-1v-.4h.6l-.4-.4h1.2l1.2.9.9-.2.2-.3v-.9c-.1 0 .1-.4.1-.4l2-1.1.9-1 .2-.9.5-.2v.3l1.7-1.3h.8Z"/><path id="GB-CH" d="M298.2 362v.4l.6.2h.4l.2-1.3v-.3c-.1 0 0-.3 0-.3l-.3-.2.2-.4h-.3l.1-.5 1 .4.3.4.4-.3h.4v-.3l.4.5.4-.8h.6v-.4l1.5-.6.2.2v.5l.5 1.1h.3c0 .1.3.7.3.7v.4c-.1 0 .4.2.4.2h.7v-.2h.9l.6-1 .5.2.6-.2v.2l.4.4.5.4.3-.3v.6l.2.1.2-.2v.5h.5l.2-.2v-.5l.5-.4v-.4c.1 0 .4.2.4.2v-.2h.3l-.3.5.2.5.7-.4-.2-.3v-.3h.7c0-.1.5.2.5.2l.4-.2.2.5.6-.2.4.2h.3v.3l.7.2.7.4-.2.7-.7.9.6 1.3.3 1.6v.8c-.1 0 .4 3.1.4 3.1l-.2.6-.8.6-2.4 1.2-1.3.2-2 2.4-1.8 1.5-1.4.7-1.5 1.5v.4l-.4.1h-.2v.3l-.8.1v.7l-1.1.5-.3-.4h-.4c0 .1-.4-.3-.4-.3l-.2 1.2-.8-.8-.6.4-.3-.3v-.7h-.2v-.4h-.4l-.3-.4-1.1.5-.6-.4-.7.5h-.2l-.7-.2v-.3h-.9l-.3.2-.8-.3-.3-.9h-.3v-.8l-.3-.3.3-.4v-.3l-.5-.4v-.5l-.6-.4.5-1.3-.6.4h-.3c0-.1-1.2-.9-1.2-.9l-.4-.8h-.3v-.3l1.6-.6.2-.5-.2-.5-.5-.7-2.2-1.7h-.6v-.3l-.6-.2v-.4c-.1 0 .2-.2.2-.2v-.2l-.8-1-.4-1.1-1.8-1.4-.4-.7v-.3l1-.5.7-.8 1.6-.5.7-.8h.6l.3.3 1.3 4.3.8 1.1 1.2.7h.7l.9-.5h.9l.3.3.5-.8v-.4h-1.5l-.2-.3h.3l.3-.7h.6l.3-1.1h.5l.3-.9h.7Z"/><path id="GB-CM" d="M372.4 392.3v.6l-.4 2v.9c.1 0 1.5.4 1.5.4v.8c.1 0 .5.1.5.1v.4l-.3.2.3.2-.3.3v.3h.3l-.3.2.2.3-.2.2.6.3-.2.3h-.4l.5.4v1.2l.5.4 3 .5.6.4.2.5-1.6 1v.8c-.1 0 .5 2 .5 2l.3 2.3-.3.6v.2c.1 0-.2.4-.2.4h-1.8l-.5.3-.2.6v.4l1.8.3 1.4.7.5.6v1.3l-.3.7-.4 1.9.9 1.1v.7h-.2c0 .1.1.6.1.6l-.3 1.3-.8.3-.7-1.5-.6-.7-1-.2h-.9l-.7.3-1.1 1.4h-.9c0 .1-.4.4-.4.4l-.2.8-1.1-.3-.2-.4-1-.2h-1.7l-1 .7-2-.5v-.3h.1v-.6l.3-.5.3.2.4-1.3-.4-1.5-.3-.2H363l-.6-.1-.4-1.2-.8-1.4-1.2-.9v-.4l-.7-.5-1-.6v-.5l-1.6-1.4-.3-1.6-.5-.3v-.5l.4-.2.2-.7.5-.6 1.5-.7.3-.4v-2.7l.3-.2-.5-1v-.7c.1 0-1.4-.8-1.4-.8l.3-.4v-.5l-1.4-.2-.7-.3v-.7l-.3-.3.7-1.3 1.7.2 1.8-.2.4-.4.7-.2.3.2 3.2.8.6-.2.5-.5h1.9l2.2-.4.8-.8v-1.2h.6l.7-.5h.9Z"/><path id="GB-CO" d="M250.9 465.8h2.4v.6c-.1 0 .9 1.9.9 1.9h-.3l-.3 2.3-1.2.7.5.3h.6l.8.8h.3l-.1-.4h.3l.3-.1.3.3-.2.5h.2l-.1.4.6 1.2v.9c-.1 0 .3.4.3.4l.5 2 .8.3-.2 2.2.3-.2.3.4v-.4h.4l-.2.5.5 1-.3.4.6-.3.5.5h.6c0-.1.2 1.1.2 1.1l.4-.2v.2c.1 0-.4.4-.4.4l-.5-.2v1l-.5.6.2.2.2-.5.2.3.3 1.3-.2.8-.2.5v.2c-.1 0 .3.2.3.2v.8l.4.4h.3c0-.1.3.3.3.3l-.9.7.3.6h-.6l-.3.3v-.3c-.1 0 0-.3 0-.3l-.3-.3-1.3-.8-.9-.3h-2.9l-.6.4v.4l-.5.2v.3l-.7-.2v.3c-.1 0-1 .3-1 .3l-1.1-.3-.5.3-.2-.2-.7.2v-.2c-.1 0-.5.2-.5.2h-.4l-.2.4-.3-.2v-.8l-.4-.2-1.4.5-.2.5.4.9h-.3l-.3.2-.3 1v.3l.5.2-.5.5v.3c.1 0-.3.3-.3.3v.4l-.5-.5-1.1-.2-1 .9-.4.7-.4-.4-.6.2-.4.7v.8l-.3.3v.3l-.7.5-.2-.4.3-.3h-.6l.3-1.1h-.2l-.2-.8.3-.2-.5.2-.4.6v.5c.1 0 .5.1.5.1v.2l-.3.3-.5-.2.3.6h.4c0-.1.2.3.2.3l-.3-.2-.6.3v.2l-.4.3v.4l.3.2-.3.3h-1.1c0 .1-.2-.1-.2-.1v.4h-.6l-.2.2 1.5-.2.6.3h-.3c0 .1.8.1.8.1v.7h.2l.3.6-.3.2v.6l-.8.3v.5c.1 0-.2.5-.2.5l-.6-.2-1.1.2-.5.9v.7h-.3l-.3.3-.3-.6-.7-.2v-.4l-.5-.7.2-.4v-.8c-.1 0-.6-.3-.6-.3v-.6l-.9-1.1h-.1c0 .1-.6-.3-.6-.3h-.4c0 .1-.8-.4-.8-.4h-.5l-.5.2-.3-.5h-.4l.1-.1-.3-.4-.4.3v-.5c-.1 0-1.3.1-1.3.1v.4l-.4.2c0 .1.4.8.4.8l-.3.7-.9.7h-1.1l-.4.5-.2-.2-.2.3h-.7c0 .1-.3-.3-.3-.3v-.4h-.3l-.2-.3v-.6c.1 0 .6-.5.6-.5l-.5-1.6 1-1.6h1.1l.7-1.1.2.2 1.3-1.1h1.6c0-.1.3.6.3.6h.8v.2l.8-.9.2-.9h.5c0-.1.2.2.2.2l1-.3.7-.7 1.3-.8.4-1v-.5l.9-.1.5-.5v-.2l.5-.2.3-1.3-.2-.5.3-.3v-.4l1-.3.2-.5.6.3.8-.9.3-1.9-.3-.4.4-.5v-.7l-.2-.9h.3l.2.2h.8l.3-.5.7-.5v.4h.3v-.3l.3-.5-.4-.3.3-.3.4.4h.5l.5-.2h.2c0-.1.3-.4.3-.4l.6.2.9-.3.8-2-.2-.2v-.6l.6-.3h.4v-.3h.5l.2-.4h.4v-.5l.6-.4v-1l.4-.2.5-.3.2-.4 1-.4.3-.5v-3.4c.1 0-.2-1.6-.2-1.6l.4-.9h.2Z"/><path id="GB-CU" d="M294.5 328.1v-1.3c-.1 0-.6-.2-.6-.2h-.6c0 .1-.9 2.2-.9 2.2l-.8.2-.9-.9-.3-1-.6-.4-.5.7-.2 1.3-.9 1.1-.8 1.5-.6.5-.8-.7h-.6l-.3.5.2 1.1 1.1.6v.8h-.9l-2.1-4.1-.2-.6-.8-1v-.5c.1 0-.2-.8-.2-.8l-2.1-3.5v-1.3l-.4-1.3-1-1.3v-.5l-.4-.7-1.8-2.3-.8-1.4-.6-.4-.5-.9v-.3l.8-.5.6-1.5V310l.3-.8-.2-1.9 1.5-2 .5-1.3 1.4-1.5v-1h-.5c0 .1-.1-.1-.1-.1l.5-.5v-.2l-.4-.2-.2-.3v-.2l.7-.8.9-1.2.5-.2.9-1.4h.3c0-.1.9-2.1.9-2.1l-.2-.2-.4.4-.2-.2.9-.7h2.8l1.1.6.4-.4.5-.7h1.2v-.4l.4-.2v-.3l.3-.3v-.5c-.1 0 .5-1.2.5-1.2l-.7-.5.2-.2 2.1.2.8-.4v-.5h.3l.2-.3h.5l.1-.4.2-.3.7-.6.8-.7v-.3c-.1 0 0-.2 0-.2h.9c0-.1 1.5-1.3 1.5-1.3l.4-.2.4-.2.3-.6.4.6-.2.4.2.5.5.9.6.4h.9c0 .1.1 1 .1 1l.3.4h.4l.3.4v.2h.7l.8-.4.4.3-.4.3.2.3-.3.3.5 1h-.6c0 .1-.1.2-.1.2l-.4.2-1.2.7v.6h.1v.7c-.1 0-.9.7-.9.7l.2.4.7.2v.4l.2.6.3.2-.5.5-.3 1-.8.6.8 1.4-.2.3.6 1.3.7.5.9-.2.9-1.1h.2l.8-.4.3-.6.6 1.1.4.2.6.9h.5l.1.5.3.2v.8l-.3.4-.3 1.4.2.2-.4.5v.6l-.3.2v.5c.1 0 .7.7.7.7h.6l.3.3v.6c.1 0-.8.8-.8.8l.5 1.6 2.5 2 .3.8h.4c0-.1.3 0 .3 0l.3 2.7-.3.6-.2-.2-.3.6h-1.6c0-.1-.5 0-.5 0v.3h-.6v.3l-.4.5v1l.4.3v.6h-.6l-.7.7-.6.2 1.5 1.4-.3.6.2 1.1-.2.3.3.4-.3 1.3-.6.2-.4-.5h-.3v.4h-.6l-.2.7h-1.4v-.6l-1 .9-2 1.1h-1.3l-.4-.3-.2.6-.6.5-.2.7-1.5-.3v-.7l-.3-.2h-.5c0 .1-.8-.4-.8-.4l-.4.3v.4l-.5.3h-.7Z"/><path id="GB-DB" d="m319.8 356.7 1.7 1.1.7 1.6 1 .8v1.5h.6l1.2.9.8 1.5h.6l.1.6-.4.6v.2c.1 0 .5-.2.5-.2v.8l2.1.6 1.8-.2 1.4-.9h1l.7.3.2.4.8-.2.6.2 2.9 1.4-.7.2-.3.6.3.5-.2.9.2.4v1l-1 .2-.4.6-.9-.3-.3.3h-.6l.2 1.2-.2.2.3.9.3.2-.2.3.2.4-.7.3-.2.4.4.2v.5l1.1 1.2.6 2.6 1.2 1.1-.5 2.2v2.6l-.8.5-1.6.2-.3.4-1.8.2-.4.8-.9.2-1.9 2.2-.5 1.3-.6.6-.3-.8h-.9l-.3-.2-.5.2v-1l-1.3-.4.3-.6v-.4c-.1 0 .3-.7.3-.7h.3v-.5h.2c0-.1.3.1.3.1v-.8l.9-1.1v-.3l-.6-.4-2.8-.4-2.5-1.5v-.8l.7-1.2.2-1.3 1.1-.6.7-1.1-.5-1.6-.3-.2v-1.9l-.8-1.2.2-1.4-.5-.3-.4-.8-1.1-1h-.9c0-.1-1-.7-1-.7l-.6-3.1v-.8c.1 0-.2-1.6-.2-1.6l-.6-1.3.7-.9.2-.7-.7-.4 1.1-2.1 1.1-.8.6-1.2.2-.4Z"/><path id="GB-DH" d="m332.1 291-.2.2.2.5 1.1 1 .2.6v.6h-.3.2c0 .1-.3.3-.3.3v.5l.4.2h-.2v.3l.2-.2-.2.3.2.3-.3.4.5 2 .6.7v.2c-.1 0 .2.9.2.9v1.4c.1 0 1.7 2.3 1.7 2.3l1.8 1.2v.4h-.4v.6c-.1 0 .5 1.1.5 1.1l.7.3-.3.8h-.8c0-.1-.6.3-.6.3l-.6-.3-.6.2-1.1-.2v-.3l-.5-.4h-.3l-.2.6v-.2c-.1 0-1.2-.3-1.2-.3l-.2.2v.3l-.6.7-1 .3.3.7.4-.4.4.4-.2.8v.5c.1 0-.8.4-.8.4v.6c.1 0 0 .4 0 .4l.7.6-.3 1.4-.6-.7-.4.2.3.2v.7c.1 0 0 .3 0 .3l.3.3-.2.2.2.3v.2c-.1 0-.4-.2-.4-.2v-.3c.1 0 0-.5 0-.5h-.6l.2-.5-.5.5v-.4h-.5v.4l.2.2h-.6l-.2-.6-.7-.5v-.4h-.2l.3-.4h-.6v-.2h-.3c0-.1-.6.2-.6.2h-.2c0-.1.2-.2.2-.2v-.3h-.6v-.4h-.7l-1-.4-.3.6-1.2-.2v1.1l-.2.3-.2.7-.8-.5-.4-.6-.5.2v1l-2.2 1.3h-.7l-.2-.3-.5-.3-1.2-.4v-.4l-1.9.9-1.1.3h-.3c0-.1.3-.7.3-.7l-.3-2.7-.3-.2h-.4c0 .1-.3-.7-.3-.7l-2.5-2-.5-1.6 1-.8v-.6c-.1 0-.4-.3-.4-.3h-.6l-.6-.7v-.5c-.1 0 .2-.2.2-.2v-.6l.5-.5-.2-.2.3-1.4.4-.4v-.8l.8-.3 1.6.7.5-1.1h.8v-.3l.6-.6v-.7c.1 0 1.3.2 1.3.2l1.4-.5 1-1 .8.3.6.5h.4l.3.2v.3h-.1.2v.3c.1 0 .2-.1.2-.1 0-.1.7-.4.7-.4l.5-.4v-.3l.5-1v-.2c-.1 0 0 0 0 0v-.3l.6-.4-.8-.5.3-.6h.4l-.2-1 .3-.2v-.3l.3-.3v-.3l.7-.4h.3v.2h.6l.9.6.3-.2 1.7.5 1-.5.7.3.3.2h.4c0-.1.1-.9.1-.9l.4-.3h1.7l.3-.4v-.4l.3-.1.3.2.4-.3h-.1Z"/><path id="GB-DS" d="M317.8 463.3v.5l.4.2v.8l.3.4.9.3.7.8v.4c-.1 0 0 1.4 0 1.4l.9 1.3.2 2.1.3.6.8.4.9-.6.3.7v.6c-.1 0 1.5-.2 1.5-.2l-.3.6-1 .2-.5.9-2.1-.4-1.4.3-.8.4-.9.9.2.3-.3.7v.4l.3.2h.5l-.9 1v.4h.3l-.2.5-2 .2-.7.5-.3-.7h-1.1l-.5-.4-.2-.4-.3.2-.3-.3h-.8l-.3-.3-1.1.3-2.1-.3-.4-.3h-2.2c0-.1-.7.7-.7.7l.3.2-.2.3.4.2-.5-.2-.5.7.2.5h1l-.2.2.3.7-1.1 1.5.2-2-2.1-2-2.8-2.1-4-2.2-3-.6-1 .6v-.5c-.1 0 .3-.9.3-.9l-.5-.4v-.3c.1 0 .6-.5.6-.5l.9-.2.3-.4-.2-.4-1.8-.5.2-.2.6-.8 1.1-.4.2.2.9-.2v.2h.4l.5-.6.5.4.3-.3h.5l.1-.3h1.1v-.2l.9-.3.5-.4 1.2.2.2-.4-.4-.7.2-.6h.3c0-.1-.3-.7-.3-.7l.5-.3v-.6l-.1-.6.2-.2.3.2.3-.4.3.4h.2l.3-.3v-.6h.3l.2.3h.6l.3.8.9 1 .3-.4v-.3c-.1 0 .4-.1.4-.1l.3.4 1.8-.7-.3-.5h-.6l-.1-.6.5-.8.8-.7-.5-1.1.6-.4h.9c0 .1.6.4.6.4h.7c0-.1 1.3 1.3 1.3 1.3v.8c.1 0 .4.2.4.2v.5c.1 0 .7.6.7.6l.7.3v.7l.5.7.9-.3.3-.5.6-.3h1.1c0-.1.2-.5.2-.5l.5-.3h.2Z"/><path id="GB-DV" d="m270.6 452.8.5.4 1.2.2-.3.8v.5c.1 0 0 .5 0 .5l.2.4-1.6.4-1.4-.2v1.5c.1 0 .9 1 .9 1l1 .4 1.2 1h.7l1.1.7v.2h.9c0 .1.5.2.5.2l-.5 1.7v.2h.1l1.9.2.4-.5v-.5l.9-.3.6.4.9-.3.4.5h.7v1.7l1.2-.1 1 1.1 1 .5 2.3-.2-.2.9-.4.6 1.1.8.5-.4 1.9-.3v1.4l.5.4v.5l.6-.2.3.3.6-.2v.9c.1 0 .5.5.5.5l-.2.2 1.8.5.2.4-.3.4-.9.2-.5.5v.3c-.1 0 .4.4.4.4l-.4.9v.5h.1l-1.8.8h-1.6c0-.1-.4.5-.4.5h-2.4l-1.6.5-.7.6-.7 1.2h-.3l-.8.3-.3.2v.3h-.7l-1.2-.7-.2.3v-.5h.2-.3c0-.1.2-.3.2-.3h-.2l.2-.2h-.1v-.3.6l-.2-.2v-.5c.1 0 0-.3 0-.3v.3-.2.5c-.1 0 0 1 0 1l.2.2h.3c0-.1 0 0 0 0l-1.1 1.3v.6l-.7.7-.4 1.1h.3l.7 2.1.3 2.6-1.3.8-.3.8v.5l-.6.4-.8-.5v-1.1c-.1 0-.5-.3-.5-.3l.4.4v.5l.4 1-.2.4-1 .3-.8 1.1-.4 2.1.5.7h-.4c0 .1-.7 0-.7 0l-.6.6-.4.2-.4-.5-.9-.4.3-.5.5-.2h-.3v-.4l.2-.2-.2.2h.1c0-.1-.2 0-.2 0l-.2-.3.2.8h-.2l-.4.6v.4l-.2.2-.9-.3-1.2-.9v-.2h.2v-.7h-.3l-.4-.7h-.4v-.3l-.3-.3h-.8v-.5l-.4.2-.7-.2-1.2.6-1-.4v-.3l-.2-.3-.6.2-.4-.2v-1.6c-.1 0-.6-.2-.6-.2l-.5.2v-.3h-.5v-.9c-.1 0-.5-.4-.5-.4v-.5l.2-.8-.3-1.3-.2-.3-.2.5-.2-.2.5-.6v-1l.5.2.5-.4v-.2c-.1 0-.6.2-.6.2l-.2-1.2h-.6c0 .1-.5-.4-.5-.4l-.6.3.3-.4-.5-1 .2-.5h-.4v.3l-.3-.4-.3.2.2-2.2-.8-.3-.5-2-.5-.4v-.9c.1 0-.5-1.2-.5-1.2v-.3c.1 0 0 0 0 0l.2-.5-.3-.3h-.3l-.3.1v.5h-.2l-.8-.9h-.6l-.5-.3 1.2-.7.3-2.3h.3l-1.1-1.9v-.6c.1 0-.3-.1-.3-.1h-2v-.4h.2v-.5l.4-1.4-.2-.9.2-.6h1.4l1.1.3 1 .8 1.2.2.9-.2 1.1-1.7.6-.2.2-1.3 1 .6-.2-.5-.8-.7.2-1.3-.4-.2v-.4l-.4-.4h.9l.2-.4v-1.2c.1 0-.3-.3-.3-.3h.6c0-.1.2-.5.2-.5h.8l1.2-.5h.8l.2-.3 1.2.4.4-.4h1.8c0-.1.8-.6.8-.6l.9.3 1.1-.4h1c0 .1.6-.5.6-.5Z"/><path id="GB-EX" d="m392.3 432 .4.4-.2.9.2 1.5-1 2.7h1l-.6.9-4 2.7-1.6-.6-1 .4h-.8l-1.1.6h-.8c0 .1-1.2 0-1.2 0l-1.6.5-.4.6v.5l.5.4-.3.7-.8.3h-1.4l-.5-.1-.5-.7-1 .5-1.3-1h-.3c0-.1.2-.6.2-.6V441l.8-.8h1v-.4l-.6-1.5h-.4l.3-.4-1-.9-.6.3-.9-.6-.9-.3-3-.6v-1.2l-.2-2.1.4-1.2.9-.3.2-.3h1l.7-.5h.6l.2-.8.4-.2-.3-.3v-1h.3v-.5l.6-.3-.5-.6.2-.5-.8.2-.4-2.5-.7-1.9.2-.9.4-.3h.9c0-.1 1.1-1.5 1.1-1.5l.7-.3h.9l1 .2.6.7.7 1.5.8-.3.3-1.3v-.5c-.1 0 0-.1 0-.1l.9-.3.4.2.3-.4.5.4.4.7.2-.3h.8l.2-.4h.5l.9-.5.3.2.4-.4h.4c0 .1.8 0 .8 0l.7.7-.3.2.3.7h-.4v.4l.4.2-.2.2h.9v.9l.5.6v.5l.3.1v.6l1 .3.3-.3.7.3.3-.3h.4l.2-.2h.9c0-.1.5.1.5.1l.5-.3v.5h.9l.5.5.7-.3.3.4h.2l.2-.1.2.3 1.3-.3h4.1l.2.6h-.4l-.3.4-.4 1.4.3.2h.1c0-.1-.2 0-.2 0l.7.4v.4l-1.3 1.9-2.7 1.9h-.5c0 .1-2 .3-2 .3l-.4-1.1.4.3-.6-.5h-.2v.9h-.4l.2.2h-.4c0-.1-.3.2-.3.2h-1.4l-1.1 1 .3.4.6-.4h.5Z"/><path id="GB-GC" d="m322 417.3.7-.5.6.8h.2l.3-.3v1.1l.4.3v-.3h.3v.5l.3.3-.2.5.6.2v1.3l-.7.4-.4 1.1v.9l.5.8.2 1.1-.2 1.4-1.1 2.3v1.2l-.2 1.8.4 2.1-.2.6v.5h.1l-.3.1-.6-.3h-.3l-.6-1.4h-.2l.2.7-.3.5.2.4-.9.3-.6-1.1-.5.2h-.1c0-.1.6 1.1.6 1.1h-.3c0 .1-.8-.2-.8-.2l-.5-.5-.5.5.3.9h-.7l-.1-.3-1.4.4-1.6-.2-1.4 2.1-.7-.4-.3.3h-.4v-.5l-.9.5v.4h-.7v.4c-.1 0 .2.1.2.1l-.2.4.2.6v.4c-.1 0 .2.4.2.4l-1.9 1.2.3.4h.5l-.1 1.2h.3l-.2 1.2-.5.3-.3-.6h-.5c0-.1-3.3.9-3.3.9l-.3-.2h-.3v-.3l-.4.2-.5-.4v.4l-.4.8-.5-.2-.3.5h-.6l-.7-.2h-.3l-.1-.1.2-.4-.2-.3.2-.6h-.3c0-.1.4-.5.4-.5l-.2-.7-.4-.3-.3-.5-.6.3-.8-.8.5-1.2.7-1.1v-.7c.1 0 2.2-2.2 2.2-2.2l.9-1.8.9-.8v-.5l1.1-1.6 1.5-.6.5-.6.5-1.4v-.6l-.4-.3h-.9l-.5.5v.5l.7.4v.5l-1.1.8-2.9 2.9-1.4 1.7-.6 1.2-.3-.5v-.5l-.3-.1.4-.6-.3.2h-.2v-.4l.7-.3-.4-.3v-.5c.1 0-.3-.3-.3-.3h.3v-.2l-.5-1 .4-.2.2-.7-.4-.6.3-1.1-.2-.3.5-.4v-.5l.2-.1.4-.7.3.2.6-.7.5.3v-.5h1.3l.8-1.1v.2h.2l.2.2.6-.5.7-.2-.2-.9-.5-.4v-1l-.9-.4h.2v-.9l.6-.6-.5-.5.3-.6h.4v.3h.7v.7h.6c0 .1.4 0 .4 0l.2-.7 1.1-.4v.3l.7.4v1.2h.3l.3.4.5-.2.8.2.8-1.2.9.2v-.4c.1 0 .5.1.5.1v-.3l-.6-.6.3-.2v-.8l.4-.3.7.2.4.4-.6.4-.3.9h.3v.3l.7-.7.7.2.6-.2.3.5h.3v-.2h.3l1.1-1.1h.8v.2h.4l.5-.5 1.3 1.3.6.2v-.7l.4-.4v-.3h-.1l-.9-.6v-.4l-.3-.3h.5l.2-.4.4.3.3-.5.2.3.5-.9Z"/><path id="GB-GL" d="m355.7 436.7 3-.3.7-.4.7-.7 1-.4 1.6-.5 1.9.2h.8c0-.1.5-.7.5-.7l.6-.2h1l.5.2.2 1.4h.6v.2l3 .6.9.3.9.6.6-.3 1 .9-.3.3h.4l.6 1.5v.2l-1.1.1-.8.8v1.6l-.2.5h.3c0 .1-.3.4-.3.4l-.2.9-.8.5-.6.9v.5l.3.6h-.4l.1.6-.2.5-.3.9h-.5v.6l-.9.6v.4l.2.4-.8.3h-.4c0-.1.1.3.1.3H368l-1.1-1.4-.6-.2-.4.2v.2l-.4.6v1l-.5.1-1.5-.7-.9-.8h-.8c0-.1-1.1-1.4-1.1-1.4h-.5l-.7.4-1.2-.2-.3-2.2-.5-.7-.8-.3H355l-.2-.2v-.6l-1.5-.8v-.5l.6-1.1 1.6-.2.2-.5-.3-1.3.5-.9-.6-1.4v-1.5h.1v-.2Z"/><path id="GB-HA" d="m334.5 472.4.4.2.6-.2 1 .9.6.2v.2l1.7-.2v.3l.2-.4h.5-.3v.2l.5.2h-.3l.5.4.2.6h.1l-.1-.2.3.3v.2l.7.7-.9.8h-.9c0 .1-.7.6-.7.6l-.6 2.1-1.9.7-1.1.2-2.3-2.1-1.5-.7-1-1h-.7c0-.1-1.5.2-1.5.2h-.4l.5-.2v-.3l.6-.2.6-1.2h.9l1.4-.8h.6l.2-.2 1.2-.4.2-.5.9-.7Zm-6.2-23.8.4.4h.5l.5.4 1.2-.2.5-.2-.4-.5v-.3h.4l.3-.6 1.7.2.9-.2 1 .2.5-.2.4.2h.5c0-.1.9.1.9.1l.5.6h.8l3-.2.5-.4h.7c0 .1 1.3-.1 1.3-.1l1.2.6h1.3l.4.5h.3v.7h-.9v1.1h1c0-.1-.1.3-.1.3l.3.4-.4.3v1.3l-.3.2-.7 1.2.6 1.2-.2 1.4h.4l.3-.3h.2c0 .1.8 1.6.8 1.6l.6.2v.4h-.6.2v.8l-.7.2-.4.6h-.4c0-.1-.1.1-.1.1l-.3-.3h-.3l-.2 1-1.1.9v.8l-.3.3-.6 2h-.3c0 .1.5.9.5.9l-.4.3-.4 1.1.8 1.1-.5 1.8.4 1.7-2.3-.3.3.3v.2c-.1 0-.4-.7-.4-.7h-.3v.2-.2c-.1 0-1.4.3-1.4.3l-.3-.3-1 .5-.5-.4-.7-.2-.6-.8-2.2-1-.7-.8-.3.3.6.9-.2.3.3-.3.3.3v.3l-.6.2-.6.8h-.7l-1 .7-1.4.4-1.2.6-1 1.1.2.4-1.2-.6-2.5-.6.3-.6-1.6.2v-.6c.1 0-.1-.7-.1-.7l-.9.6-.8-.4-.3-.6-.2-2.1-.9-1.4-.2-1.4v-.4c.1 0-.6-.8-.6-.8l-.9-.3-.3-.4v-.8l-.3-.2v-.5l.2.3.6-.6h1.1l.3-.4v.9l.5-.8.5-.2.5 1 .4-.2 1.2.6h.9l.4.5h.7c0-.1.2-1 .2-1V461l-.2-1.6-.5-1.2-1-.6-.3-2.2.2-1 .9-.7.7-1 2.3-1.2v-2.3l.8-.5Z"/><path id="GB-HD" d="M292.1 406.8h.6l-.1-.5.3-.3h.7l-.6-.3v-.5c.1 0 .8.3.8.3v.2-.5c.1 0 .8-.1.8-.1l.2-.3 1 .2h.3v.6h.4v.8h1.3c0-.1.3 0 .3 0l-.4.9h-.5l.2.2.6.4h.3l.3.5h.8v-.3h-.2l.1-.4.4-.7h.2v.3h.4l.2.4h.3c0 .1-.1.5-.1.5l.3.3-.3.8.3.2.4-.2.2.4h-.3l-.6.8v.7l1.4-.3v-.2l.7.1.4-.2.2.2.3-.3h.5l-.2-.9.7-.3h.6l.6.6-1 .6-.2.6.3.3h1.1c0-.1 1 .4 1 .4l-.5.2.3.5-.4.2-.3.6v.2c.1 0-.2.3-.2.3v.2l-.3.2.5 1h.5l.4-.4h.5c0 .1.4.9.4.9l-.3.2v1c.1 0 .5.6.5.6v1.1l-.3.3v1.5l-1.1.4-.2.7h-1v-.7h-.7v-.4h-.4l-.3.6.5.5-.6.6v.7l-.2.1.9.4v1l.4.4.2.9-.7.2-.6.5-.2-.2h-.2l-.8 1.1h-1.3v.5l-.5-.3-.6.7-.3-.2-.4.7-.4-.4h-.7v-.4l-.4.2-.2-.4-.4.4h-.1l-.9-1.1.2-.6-.9-.4-.5-.6h-.4l-.2-.5h-.5l.5-.2-.8-.5h-.3v.3l-2 .9-.2-1-.6.2-.2-.2v-.7c-.1 0-1.5-1.6-1.5-1.6l-.8-1.6.3-.8v-.4c-.1 0-1-1.1-1-1.1v-1l.5-.2v-.6l-.9-.4.2-.2v-.2l1.1-.3.6-.5-.2-.3-.5.3-.6-.4.7-.8-.2-.8.8-.5h-.1l.1-.9h.8v-.6l.3-.3.8-.3.7.2.3-.3h.4c0-.1-1.4-.4-1.4-.4h-.2v-.5l.3-.5v-.9l.9-.3.3-.8Z"/><path id="GB-HT" d="m364.3 420.9 2 .5 1-.6h2.7l.2.4 1.1.3v.2l.7 1.9.4 2.5.8-.2-.2.5.5.6-.6.3v.5h-.1v1l.2.3-.4.2-.2.7h-.6l-.7.6h-1l-.2.3-.9.3-.4 1.2.2 2.1v.9h-.6l-.2-1.4-.5-.3h-1l-.6.2-.5.5h-.8c0 .1-1.9 0-1.9 0l-1.6.5-1 .4-.7.7-.7.4-3 .3v-.4l-.6-2.4-.9-.9-.2-.5h-.4l-.3-.6h-.3l-.2-.3-.7-.2-.2-.4v-.4l.5-.3v-.5l-.3-.4v-.3l.5.3h.4l.3.2.6-1 .4.6.6.4.3-.3h.9l1.5-1.3 1.1.6.3-.4.8.4h.5c0-.1.4-.5.4-.5l.2-2-.2-.7-.9-.9-.2-.7.2-.8.7-.7h1.3v-.3h.2v-.6l.6.6h1c0-.1.5-1 .5-1v-.2Z"/><path id="GB-KE" d="M385.9 442.2v.7l1.5.6v.8l.2.2 1.6.3.7.5 1.8.3 1.3.9.6 1.2-.2.5.3-.2v.2h.7l.8-.4v-.2.2l1.1-.3h1.9l1.6-.3.9.2 1.1-.3h.5c0 .1.5-.1.5-.1h.8l.4-.3h1l.3-.2.5.8-.5 2.2-1.1.3v1.2l.5 2.4v2.3l-.7 1.4-1 .4v.4l-.1-.2-.5.2v.2l.1.2h-.2l.4.1h-.6l-.9.4h-1.1c0 .1-.5.4-.5.4v.4l-.5.1h.2c0 .1-2.5.5-2.5.5l-1.6.9-.8.9-.6 1.1v.8l.2 1.8-.2.8h-.9l-2.4-.4.4-.5-.3-.8h-.3l-.1-.2-.3.5h-.4v-.1l-.8-1.2h-.2v-.6l-1-.4h-.7l-.1.3-.8-.4-.4-.6-.6.2-.3-.2-1.5.6-.7-.3v-.4c-.1 0-1.8-.4-1.8-.4l-.2-.2v-.6c.1 0-1.2-.6-1.2-.6v-.2h-.2l-.3-.2v-.4h-.3l-.3-.3-.8.2v-.6l.2-.2h-.6l-.3-.3v-.4l-1.3.1v.3l-.8-.1-.5-.4-1.4.4-.5-.3v-.4l.3-.2-.6-.3-1.6.3h-.6v-.1l-.2-1 .2-.6-.5-1.3.6-1.5-.3-1.5-.1-.4h.4c0 .1.8-.2.8-.2l-.2-.4v-.4l.9-.6v-.6h.5l.3-.9v-1.1h.4l-.4-.6v-.5l.6-.9.8-.5.2-.9.3-.3 1.3 1 1-.5.5.7h.5c0 .1 1.4.1 1.4.1l.8-.3.3-.7.5-.9.6-.2 4.8-.2Z"/><path id="GB-LA" d="M294.6 328.1h.5l.5-.3v-.4l.5-.3.8.5h.5c0-.1.4 0 .4 0v.7l1.4.3.2-.7.6-.5.2-.6.4.3h1.3l2-1.1 1-.9v.6l-.5 1.1-1.3 1.4v.5c-.1 0-.8.2-.8.2v1.3l.4.2.2.6h.3v.4h.4l1.2.9-.2 1.1.3.4h.9c0 .1 1.3-.4 1.3-.4l.3.4v.9h.5v.3h-.2v.7l.3.2.5-.2.6.8 1.7-.3.2.2-.3.3.2.4.8-.4.4 1v.5h.3l.2.4h.8l.5.5.3 1.1.6.7-.2.3h.2l.9.8v.9l-2.1 1.3v.5l-.2.3v1.2c.1 0-.2.7-.2.7h-.3l-.4.6.3 1 .4.3v.6l.3-.3.4.6h.8l.1-.3.8-.2v.5l.4.5v.8c-.1 0 .1.2.1.2l.2.9h.4l.8 1.3.8.6v.5c.1 0 .9.4.9.4v.6l.5.2.6-.3-.2.8-.2.4-.6 1.2-1.1.8-1.1 2.1-.7-.2v-.4l-.4.1-.4-.2-.6.2-.2-.5-.4.2-.5-.4c0 .1-.6.1-.6.1v.3c-.1 0 0 .3 0 .3l-.7.4-.2-.5.3-.5h-.2v.2l-.3-.2v.4c-.1 0-.6.4-.6.4v.5l-.2.2h-.5v-.4l-.2.2h-.2v-.7l-.3.3-.5-.4-.4-.4v-.2l-.6.2-.5-.2-.6 1h-.9v.2h-.7l-.5-.1v-.4c.1 0-.2-.6-.2-.6h-.3c0-.1-.5-1.2-.5-1.2v-.5l-.1-.2-1.5.6v.3l-.5.1-.4.8-.4-.5v.3h-.3l-.4.3-.3-.4-1-.4v.6h.2l-.2.4.3.2-.2.3v.3c.1 0 0 1.2 0 1.2h-.4l-.6-.1v-.4l-.8-.1-.3.9h-.5l-.3 1.1h-.6l-.3.7h-.6l-.2.4h-.4l-2.4-1.7-.6-.6-.8-2.2-.3-.8-1.3-1.6-.4-1-1-.7.2-.5v-.2l1-2.8h.4c0-.1.2-.5.2-.5l.3-1.2 1.7-2.3 1.2-1 .9-.3.3-.5-1.8.2-2-.3-1.1-1.1.6-4.7-.2-.9.3-.7.5-.6 1.3-.2 2.6-1.3-.6-1.4v-1.2l-.7-.1v-.2l.3-1 .2-.2.5-.4.9-.4 1.2-1.2v-1.9c-.1 0-1-.4-1-.4l-.4-.7h.2Z"/><path id="GB-LE" d="m336.5 386.7.5 1.2-.3 1.8.2.5h.5c0-.1.3.2.3.2l.2.6 1.2-.2v-.3l.4.5h.5l.8-1-.2-.2-.2.2v-.4l-.3-.2h-.3c0 .1-.3-.2-.3-.2l1.9-.8.3-1.5.2-.2h1.2l.1-.9h.5c0-.1.8-1.1.8-1.1l-.3-.5h.6l1.5-1.2v-.5l1-1.2h-.3v-.3l.3-.4h.2c0 .1.4-.7.4-.7h.5v.7l.6.4-.6 1.9.5.2-.2.6.6.2 1.6 3v.7l.5 1.7.3.2-.4.6h-.4c0-.1-.3-.5-.3-.5h-1l-1.2.5-.3.4-.2 3.3-1.2.9v.4l1.5 2.1.5.3 1.2 1.6-.3.2-.6 1-.9.3-1.1.8-1.3.3-.7 1.4h-2.4l-1.8 1.5h-1.1l-1 .7-.5.9-1.1.2-.9.5-1.5-3.5-1.1-.4-.4-.5-.6-.2h-.4l-.8.7-.8-.2-.7-1.4-.2-1h-.3c0-.1-.2-.8-.2-.8l-1.1-.8-.6-1.2-.3-.9.2-.9-.4-1v-.6l.2-1.1.6-.7.6-.6.5-1.3 1.9-2.2.9-.2.4-.8 1.8-.2.3-.4 1.6-.2.8-.5Z"/><path id="GB-LI" d="m377.4 374.4-2.9 1.9-.6.7-1.8 1-1.2 1.5-.9 1.6-1.3.8-.4.7.2.6.7.2h-.1c0 .1 2.8.5 2.8.5l1.5 1.8v.9l1.5.5.5-.4-.5 1.1h.2l-.4.6.7.5-1 .5-1.2 1.1h-.4c0-.1-.4 1.8-.4 1.8h-.9l-.7.6h-.4l-.1 1.2-.8.8-2.2.5h-1.9l-.5.5-.6.2-3.2-.8-.3-.2-.7.2-.4.4-1.8.2-1.7-.2v-.4l-.6-.5-.7-1.1.4-.2.9-1.1.2-.6h-.7l-.5-.4-.8-.2v-.6l-.6-.3-.2-.3h-.8c0 .1-.1-.3-.1-.3l-1.3.2-.5-1.7v-.7l-1.5-3-.6-.2.2-.6-.5-.2.6-1.9-.6-.4v-.8l-.7-1.5h.2l.2-.6.7-.2.3-1.1h.5l.4-.2v-.2h.5v-.4l-.4-.2v-.2c.1 0-.5-.6-.5-.6l.3-.8-.4-.5.4-.4-.2-.8v-1c.1 0-1.1-.2-1.1-.2v-.3h.3l.6-1h.4c0 .1.4-.4.4-.4h.6c0 .1.2-.8.2-.8l-.6-.8-1.2.2v.4l-1.1-.1.3-1.1-.4-.5.4-.7.3.3v-1.4c.1 0-.3-.3-.3-.3l.3-.4-.2-.3.2-.3-.4-.5h-.4l.1-.4h.3c0-.1-.4-.5-.4-.5l.3-.2v-.3l-.3-.3v-.5h-.4l-.4-.4v-.6l.5-.6-1.9-.5v.2h-1.1v-.2c-.1 0 .4-.4.4-.4l-.9-1.2v-.4l-.4-.1v-.6l1.3-.2v-.2c.1 0 0-.5 0-.5l.3-.8h-.3v-.7l1.1-1.3.3-1.2 1.5-.4.7-.4 1.6-1.8 1.9-1h.6c0 .1.6.8.6.8l.9.5h.9l.9-.5h.8v.1h.2-.3.3l3.2-.6.7.2.9 1.6 1.5 1.9 2.3 1.7 2.2.9v.5c.1 0 .7.3.7.3l.7 1 .7.3h-.1l.8.1.4.5 1.2.7 1.9 3.5.8 2.6 1.7 3.7.7 3.2-.3 3.4Z"/><path id="GB-NA" d="m349.7 399.5.6.3.9-.2.7-.6 1.1-.4 1.9-2.5.3-.6v-1h.4l.6.5v.4l-.7 1.3.4.3v.7l.6.3 1.4.2v.5l-.3.4 1.5.8v.7c-.1 0 .3 1 .3 1l-.3.2v2.7l-.3.4-1.5.7-.5.6-.2.7-.5.2v.5l.5.3-.9 1.7-.9.3h-.4l-.5-.5h-.4l-.6.4-.4.6v1l-1.2.4-.5 1.1h-.8l-1.6 1.3v-.3l-.6.2-.2.9-.9 1-2 1.1-.3.4v.9c.1 0 0 .3 0 .3l-.9.2-1.2-.9h-1.2l.4.4h-.6v.5l-.9 1-.8.6h-1.4l-.4.5-.2.3.6.6-.6.2h-.4l-2.2.8-.9-.7-.9-2.4v-1.3l.9-1.2v-.3c-.1 0-.7-.2-.7-.2l-.3-.7h-.6l.3-.5.4-.3h.4l.4-1.6.5-.7 1.5-.3-.2-.8-.4-.3v-.2l-.2-.5h.5c0 .1.3-.4.3-.4h.3l-.6-1.2-.5-.4v-1.2l.7-1.1.9-.5 1.1-.2.5-.9 1-.7h1.1l1.8-1.6h2.4l.7-1.4 1.3-.3 1.1-.8.9-.3.6-1 .3-.2Z"/><path id="GB-NB" d="m315.9 254.5.9 1.4v.2l.3.3v.6l.8 1.1 1.4 1.1 2.4.8h.8v1l-.4.2.7 1.4.8.6 1.2.4.6 1 .7.4v.4c-.1 0 .4.6.4.6v.2h.1l-.4.2v.6l.3.4h.2l-.2.2h.3l-.3.4.3.2-.2.5.6.3v1.6l.2.5-.2.4.5.2v.7c.1 0 0 0 0 0l.3.4h-.1v.2h-.4v.5l-.4.5v.6l.4 1.1 1.2 1.2-.3.2.2.3h-.3l-.4.8v1.1l.5 1.1.7.7-.2.3v.4c.1 0 .8.8.8.8v.4l-.4.2-.3 1 .9 1.9h-.2c0 .1.1.7.1.7l.8 1.2h.1v.1h.2v.7l.6.7v.2c-.1 0 .2.7.2.7l.4.2h-.4l-.4.3h-.3v.5l-.2.4h-1.7l-.4.3v.8c-.1 0-.5.1-.5.1l-.3-.2-.8-.3-1.2.5-1.5-.5-.3.2-.9-.7h-1c0-.1-.6.2-.6.2v.3l-.3.3v.3l-.2.2.2.9h-.4l-.3.6.8.5-.6.4v.3h-.2v.3l-.5 1v.5l-.5.3h-.2c0-.1-.4.3-.4.3 0 .1-.1-.2-.1-.2h-.2.1v-.3l-.3-.2h-.4l-.6-.3c0-.1-.8-.4-.8-.4l-1 1-1.5.5-1.1-.2v.7l-.6.5v.5h-.9c0-.1-.5.9-.5.9l-1.6-.7-.8.3-.3-.2v-.5h-.6l-.6-.9-.4-.2-.6-1.1-.3.6-.8.5h-.2l-.9 1-.9.2-.7-.5-.6-1.3.2-.3-.8-1.4.8-.6.3-1 .5-.5-.3-.2-.3-.6v-.4l-.6-.2-.2-.4.7-.7v-.7c.1 0 0 0 0 0v-.6l1.2-.7.4-.2h.1l.6-.2-.5-1 .3-.3-.2-.3.4-.4-.4-.3-.8.4h-.8v-.3l-.3-.3h-.4l-.3-.4v-.9c-.1 0-1-.1-1-.1l-.6-.4-.5-.9-.2-.5.2-.4-.4-.6.3-.8.3-.7h.4l.5-.1v-.9l.6-.1-.9-.6h.5l.5-1.1.6-.4.4-.3.2-.2.3-.6.9-.3.8-1.3h.6l.5-.3h.3v.1h.6l.2.2.3.2 1.2-.8v-.3h-.1v-.2h.1l.2-.2-.4-.8.3-.3v-.2h.5l.2-.2.3-.3.5-.3.4-.3h.8c0 .1.6-.3.6-.3l.4-1 .6-.3-.9-.3v-.5h-.1v-.4l-.6-.7v-.7l-.3-1.3-1.3-1.3v-.7c.1 0 0-.4 0-.4l-.6-.7.2-.4h-.4l-.3-.2.3-.5.6-.2.5.2h.5l.6.1.2-.2-.4-.3.5-.5h.3v-.5l.7-1 .5-.4h.2c0-.1-.3-.6-.3-.6l.7-.3v-.6h.6l.5-.4v-.4l.2-.2h.4v-1.2l.4-.4h.1c0-.1.9-.7.9-.7Z"/><path id="GB-NF" d="m390.5 379.6 1.9.6h-.4 1l-.2-.2.5-.2 4.4 1.4 3.6.4 1.9.8 2.3 1.6 4.4 3.9 2.5 3 1.2 3.7v2.5l-.3.8.2 1h-.4l-.6-.5h-.6c0-.1-.3-.2-.3-.2l-.2.3-.6.2v.2h-.2l.1.2-.2.3.4.3.2.6h.5c0-.1.3.3.3.3l-.6 1.1h-.3c0-.1-.3.3-.3.3h-.4l-.8-.7-.5.2-.3.7-.7-.5-.2.3h-.3l-.7-.4-.9.7-.7-.6-.2.4.6.2v.5h-.7l-.4.4-.7.3-.2.3v.3c.1 0-.3.2-.3.2l-.6.8h-.9l-.7.8-1.2.7-.5-.3h-.3c0 .1-1.7-.4-1.7-.4h-.9l-.3-.3h-1.1l-1.6.4-.9-.8h-.7c0 .1-.4 0-.4 0h-.6l-.3-.4h-.4l-.8.4h-.9c0 .1-.2 0-.2 0l-.5.3-.3-.5h-1.1l-.6-.4v-.4l1.2-1.4-.9-.2-.4-.4-.6.5h-.6c0-.1-.1 0-.1 0l-1.6-.3-.3.2h-.3c0-.1-.2 0-.2 0h-2l-.4.5v-.2h-.9l-.2-.5-.6-.4-3-.5-.5-.4v-1.2l-.5-.3h.4l.2-.3-.6-.3.2-.2-.2-.3.3-.2h-.2v-.2l.3-.3-.3-.2.3-.2v-.4l-.5-.1v-.8c-.1 0-1.5-.4-1.5-.4v-.9c-.1 0 .4-2 .4-2v-.6l.4-1.9h.4c0 .1 1.2-.9 1.2-.9l1-.5-.7-.5.4-.5h-.2l.5-1.2h.6l1.6 1.6.4-.2v-.9l1.3-1.6 1-1.5.8-2.8 1.1-1.1 1.2-.3 1.3.3v-.2h.4-.3l.1-.2 1-.2 3.8.4h-.2.6v-.3h.4-.3c0-.1.2-.1.2-.1Z"/><path id="GB-NI" d="M201 280.1h.3l.3.5h1c0 .1.1.4.1.4l1.1-.6h.4c0 .1 1.1.7 1.1.7h.5l1.4 1.1 1.5-.5.6-.6h.5l.6.7 1.4.6.4 1 .5.3.2 1.1-.4.6v1.2c.1 0-.3.9-.3.9l-.2 1.1.5.4 1.2-.3.8.5-.4 2-.4.8v.3h.7l.2.5h.5l.4.4.6.9.5 1.5.5.4h.4l.1.8.7.7.4.9.4-.4h.5l.9.4.9 1.9v1.7l-.5 1-1 .9-2.4.9-.2.4-1.2 1-.6 1.6v.5c.1 0 0 .6 0 .6v.3h.4l.4-.3.2-.8.7-.2 1.4-1.2 1.5-.8.7.5h.9c0-.1.6-.2.6-.2l.2.3.4-.3v-.4l.5.2h.8l1.3 1.4v1.2l.3.9 1.1 1.6v1.2c-.1 0 .2.5.2.5l.2 1.2.8.5-.3.4.2.9-.3.2-.2.6h-.3l-.2.4.4.7v1.2c.1 0-.2.2-.2.2h-.2l-.2.2v.5l.2.2-.4.4v.4l-.2.5-.3-.6h-.3l-.1-.8h-.3l-.3-.9-.8-.9v-1l.8-.5h.3c0-.1.2-.8.2-.8l-.3-.3.2-.3-.2-.3v-.8h-.2c0-.1-.4-1.8-.4-1.8h-.5l-.4-.4v-.3l-2.2-1.6-.4.7v1l-.5.3h.1c0 .1.7.3.7.3v.6l.5-.1.3.3-.5.3v.7h.2l.3.3.2.5.2.4v.5c.1 0 0 .1 0 .1v.3c-.1 0 .2.3.2.3l-.2.2-.2.7.2.6h-.2v.8l-.8.4v.3l.9.1.3-.4.6-.3 1.1-.2v.5c-.1 0 .1.3.1.3v-.5c.1 0 .4.3.4.3l.2 2.2v.3l-.2.2-.4 1-.8 1h-.2c0 .1-.2.6-.2.6h-.2l-.1-.3h-.2c0-.1-.2-.3-.2-.3l-.2.3.2.6-.6.7-.5-1h-.4c0-.1-.7 0-.7 0l-.2-.2-.7.3-1.6.2-.3-.6h.4v-1.1l-.5 1.1-.5.4v.5l.2-.4.4-.2.2.5-1.3 1-.3.5.4.8v.9l-.5 2.6-1.5 1.3-.3.7h-.7l-.8 1.1-1 .7-1.2-.7.2-.4h.6l-.5-.6-1.8-.2-.5-.3-.2-.9-.3-.3h-1.6l-.5-.5h-.3l-.6.8h-.3c0-.1-.1-.9-.1-.9h-.6v1.8l-.5.2-.2.3h-.7c0-.1-.8 0-.8 0l-.4-.6-.5-.2v.3c-.1 0 0 .2 0 .2h-.6c0 .1-.3.6-.3.6l-.5-.2-.7.3-.8-.2v.4c-.1 0-.9.3-.9.3l-.6-1h-.4v-.4l.2-.3v-.8h.3l-.5-1.1h.3l.5-1.1v-.4l-.4-.8-.4-.7h-.6c0-.1-.2-.4-.2-.4l-.6.2-.2.6h-.5l-.4-.7h-.5l-.7-.7v-.4h-.4l-.3-1.6-.3-.2h-.3l-.6-.6v-.3l.3.2v-.3l.1-.2v-.8l-.7-1.7h-.5c0-.1-.1-.9-.1-.9l-.3-.3h-.2l-.9-.9-.6-.4h-.4c0 .1-.1-.2-.1-.2l-.5-.3-.7.4-.8 1.4-.6.5.2.6h-.5l-.9.9-.8-.2.2.7v.6h-.5l-.2.2v.6c-.1 0 .8.4.8.4v.5h.3l.5.9-.4.4.2.3v.7l-.6.2-.5-.3-.3.4-.6.2v.3h-.6l.4.3-.6.2v.7l.4.4-.4.4-.3.6v.4l-.3.3v.3h-.5l-.2-.4.6-.3-.4-.4.4-.3v-.6c.1 0-.2-.2-.2-.2l-.4.2-.8 1 .3.3h.2l.3.6-.2.4-.2-.4-.6.4-.4-.8-.7.4v-.3l.4-.5h-1.2c0 .1-.1-.1-.1-.1l.5-.5h-.7v-.5l-1-1.2-.3-1.5-.5-.6v-.5l-1.2-.7h-.4l-.2.3-.6.3 1.1 1.1h.6l.3 1.5.8.4v1.1l.7.8-.3.8-1.3-.4-.4.6-.5-.3-.3-.6h-.6l-.5-.5-.2-.8-.8-.7-.4.2-.3-1.1-1.3.2-.4-.4-1.4.2-.2.2-1.1-.6v-2c-.1 0-.4-.5-.4-.5v-.6l.4-.3h-.6l-.2-.3h-.3l-.2.2-.3-.4h-.7c0-.1-1.3-2-1.3-2v-.3h-.9l-.8-.6-.6-1.3-1.8-1.7.5-.5-.8-.6h1.4c0-.1 1-.9 1-.9h1v-.8l.9-1.8h.5l.5-.1.4.6h2.5c0-.1.2 0 .2 0l.6-.4v-.5c-.1 0 .7-.7.7-.7v-.4l.8-.3.4-.5 1.2-.4.2-.4h-.3c0-.1.1-.5.1-.5v-.3c-.1 0-1 .6-1 .6l-.5-.2h-.3c0 .1-1-.9-1-.9l-.4.5h-.6c0 .1-.2-.8-.2-.8l-1-.4-.2-.3-.2-.5.4-.6h-.3l-.2-.6h1l.6-1 .7-.6h.3l.4.8 1.4.6.3-.4 1.5-.7 1-.8.6.3h1.8l.2-.4-.3-.3v-1.4l.6-.8 1.2-.8 1-2.2-.2-1v-1.7c.1 0 .5-.3.5-.3l1-.2-.3-.5v-.9c.1 0 0-.3 0-.3l.4-.6-.3-.5.3-.6 1.1-1.3.7.2.5-.5.4.3.3-.6h.4c0-.1.2.9.2.9l.5-.2.2-.5h.5l.6-.2h.8l.2.7.5.2 1.9-.3h.2v-.4l.8-.8-.2-.5v-.2l.4-.7h.4c0-.1.6-2.3.6-2.3v-1.7l.5.1 1.5 1h4.1l.3-.9 1.5-.4v-.2c.1 0 0-.4 0-.4l.4.3h1.4c0-.1 1.1-.7 1.1-.7l.2.2.4-.4v-.4l.6-.3v-.3l.7-.3Z"/><path id="GB-NT" d="M338 367.7h.7l.4-1 .6-3.6.4-1 .6-.5 1.3-.5.2-.6.4-.2.3-1.1v-.4l.8-.6.5-.8.9 1.2-.5.4v.2h1.2v-.2l2 .5-.6.6v.6l.4.4h.4v.6l.3.3v.3l-.3.2.4.3h-.3c0 .1-.1.6-.1.6h.4l.4.4-.2.3.2.3-.3.4.4.3v.5c-.1 0 0 .4 0 .4v.5l-.4-.3-.4.7.4.5-.3 1.1h1.1v-.3l1.2-.2.6.8-.2.9h-.6c0-.1-.4.4-.4.4h-.4c0-.1-.6.8-.6.8h-.2v.3l1.2.2v1c-.1 0 0 .8 0 .8l-.4.4.4.5-.3.8.6.6v.2c-.1 0 .2.2.2.2v.4h-.4v.2l-.5.3h-.5l-.3 1.1-.7.2-.2.7h-.2l.7 1.4h-.5l-.4.8h-.2c0-.1-.3.3-.3.3v.2h.3l-1 1.2v.5l-1.5 1.1h-.6l.3.6-.8.9h-.5c0 .1-.1 1-.1 1h-1.2l-.2.2-.3 1.5-1.9.8.3.4h.3c0-.1.2 0 .2 0v.4l.3-.2.2.2-.8.9h-.5l-.3-.5v.3l-1.2.2-.2-.6-.3-.3h-.5c0 .1-.2-.4-.2-.4l.3-1.8-.5-1.2v-1.2h.1V384l.5-2.2-1.2-1.1-.6-2.6-1-1.2v-.5l-.5-.2.2-.4.7-.3-.2-.4.2-.3-.3-.2-.3-.9.2-.2-.2-1.1h.6l.3-.4.9.3.4-.6 1.1-.2v-1l-.3-.4.2-.9-.3-.5.3-.6.7-.2Z"/><path id="GB-OX" d="m332.7 416.1-.3.5h.6l.3.7.6.2v.3c.1 0-.8 1.2-.8 1.2v1.3l.9 2.4.9.7 2.2-.9h.4l.6-.1h.9v.3l-.3.5-.2 1v1.8l.3.6.3 2.3v.3c-.1 0-1.1.6-1.1.6l-.2.4v1.6c.1 0 1.6 1 1.6 1l2.9.3 1.3.7-.2 1.9-1.1 1v.8l.6 3 1.4 1.4.2.2v.9l-1.3.9-.8.2h-1.7l-1.8-.5-2.4-2-4.1-.9-.2-.3-.5.5v-.4l-.6.4h-.4v.3h-.3l-.4.4h-.7c0 .1-1.7-.3-1.7-.3l-.3.4h-.3l-.5.3h-.5l-.4-.9-1.7-1.1-.3-1.6.4-1.9-.4-.4v-.4l-.1-.5.2-.6-.4-2.1.3-1.8v-1.2l1-2.3.2-1.4-.2-1.1-.4-.8v-.9l.4-1.1.7-.4v-1.3l.2.2 1-.3.2.2-1.4 1.7.2.3v.4c-.1 0 0 .5 0 .5h.3v.3h.5l.8-.5h.3l-.2-.3h.6c0 .1.2-1.8.2-1.8l.6-2.1 1.2-1.1.3-.9.6.3v.5h.7c0 .1.7-1.4.7-1.4h.7Z"/><path id="GB-RT" d="m349.7 399.5-1.2-1.6-.5-.3-1.5-2.1v-.4l1.2-.9.2-3.3.3-.4 1.2-.5h1l.3.4h.4c0 .1.4-.5.4-.5l-.3-.2 1.3-.2v.4c.1 0 1-.1 1-.1l.2.3.7.3v.6l.7.2.5.4h.7l-.2.6-.9 1.1-.4.2.7 1.1h-.3l-.1 1-.3.6-1.9 2.5-1.1.4-.7.6-.9.2-.6-.3Z"/><path id="GB-SC" d="m237.1 267.1.5.6v.6l-.6-.6v-.5zm-4.7-8.4 1.6.9 1 1.1.6 1.6.3 1.6-.7.9v.4l1.2.4.7.9-1.1 1 .2.4 1 .6-.4.9.4 1.1v.4c-.1 0-.9.8-.9.8l-.5-.2h-.6l-.7.5-1.5-.2-.3-.2v.2l-.2-.4-1.3-.8-.3-1.5-.7-.4.3-2.3v-.6c-.1 0-1.3-1.9-1.3-1.9v-.8l.8-2.2.9-.5.4-.8h.8l-.2-.2.2-.3.7-.2Zm-11.9-.4.3.3-.5.6.2.5-.3.6h.4c0 .1-.5.5-.5.5l.2.5v.4c-.1 0-.9.6-.9.6v-.4c-.1 0 0-.6 0-.6h-.3v-.4l.5-.7.2-.8h.2l.1-.5h-.2v-.2h.2l.2-.2Zm21.2-2.9.3 1.3-.2.6-.3.4v-.4c-.1 0-.8.5-.8.5v-.5c-.1 0 .4-1.4.4-1.4l.7-.4Zm-7.2-6.1h.6c0 .1 1.2 1.5 1.2 1.5l.9.5v.4l-.3.5.7.2v1c.1 0 1-.2 1-.2v1.5l.6 1.8-.6.7.4.6v.6c.1 0-.5.4-.5.4l-.7-.6-.3-1.2-.8-.8-.6.2V255h-.4v-.5c-.1 0 0-1.5 0-1.5l-.9-.3-1.2-1.6v-.5l-.2-.2 1-1.1Zm-24.4-.6.2.2v.6l-.3 1.4.3.4.5 1.9v1.3l.5 1.4 1 .8-.2 1 .6.8-.3.7.3.4.2.2v.5c.1 0-.6.8-.6.8l-.3.2c0 .1-.3.3-.3.3l-.2.7-.4.2v-.5c.1 0-1.5 1-1.5 1l-.4-.2-.5.3-.2-.4h-.6c0 .1-.1.3-.1.3l.2.3-.8 1.3h-.5c0 .1-.2.6-.2.6h-1.2v-.4h-.7c0-.1.3-1 .3-1v-.4c-.1 0 .7-1.4.7-1.4h.9v-.7l-.7-1.7-.6-.6h-.7v-.6l.3-.8.7-.2.8-.5v-.4l-.6-.6h-.8c0-.1-.6.1-.6.1l-.6 1.7-1.1 1.8-1.9 1.6-.6-.3v-.5l-.4-.3.7-.6v-.4l-.2-.2.3-.7.4-.5.5-.2-.2-.2.3-.6v-.6l-.1-.2h-.6v-.3l.7-.8v-.6l-.2-.2.3-.2v-1l.5-.1v-.2c.1 0 .5.4.5.4l.6-.3.3-.5 1.4-1 .2.2v.5l.9-.1 1.3-1.1.3-.5.6-.7h.6l.3-.3.9-.2Zm-.6-9 .4.6-.7 1.2v.7c-.1 0-.9.9-.9.9l.4.3-.2.3h.1c0 .1-.6.8-.6.8v.3c.1 0 0 .3 0 .3v-.3c-.1 0-.5.1-.5.1v.4l-.6.5-.2-.3.2-.4h-.5v-.2c0-.1.4-.4.4-.4l.2-.2v-.4l-.5.3h-.2c0-.1.3-.3.3-.3v-.3h.4v-.2h-.1v-.3l.2-.4v-.4c.1 0 .5-.6.5-.6l.6-.3v-.2l.3-.1.5.2v-.6l.8-.7Zm11.4-.7.6.9-.2.3.2.5-1.7 3-.6 1.4-.4.2-.7 1.8-.2.2h-.2c0-.1-.4 1.2-.4 1.2h.1l-.8 1.7v.7l-.3.5v-.5h-.2v.8l-.2.3-.5-.2-.3.2-.4 1.5.3.4-.3.4-.3 1.2-1.2-.3h-.7v-.1l-.7-.2-.6-1.2v-1.5l-.2-.4.3-1.4.3-.2.8-1.6.4-.3 2.6-.6h.3c0 .1.9-.4.9-.4v-.4h-.3v.2h-.5v.4c-.1 0-.7.2-.7.2l-1.4-.7h-.3l.2-.7.9-1.1.3-1 2.3-2 .7-.5h.4v-.3l.5-.3v-.4l.5.1.2-.5.8-.5v-.4l.4-.2.2.2v-.4l.3-.2Zm.5-2.4.4.4v.3c-.1 0 0 .9 0 .9h-.3l-.4.4H220l-.2-.5.2-.4h.2l.2-.5 1-.5Zm2.1-1.4.5.3v.8l-.5.6-.2-.7.3-.9Zm-.8-1.8.2.2v.5l.4.3-.4 1.3v1.1c.1 0 0 .2 0 .2l-.4-.2v-.6l-.4-.5.2-.9v-.4l.2-.9.3-.2Zm1.2-2.4v.9c.1 0-.4.4-.4.4l.2.6-.4.2v.2l-.3.3-.3-.5v-.7h-.3v-.2c-.1 0 .8-1.1.8-1.1l.4.2h.2Zm-20.5-1.4v.7l-.4.8-.6.5h-.5c0-.1-.1-.3-.1-.3l.6-.6-.3-.3zm22.9-3.4.3.2h-.3v.4l-1.4 1.9h-.2c0 .1.2-.3.2-.3l-.3-.2h-.6l.7-1.2h.5l.4-.3.8-.5Zm-20.9-3.4h.7l.2.4.7-.3h.3c0-.1.3-.1.3-.1l1.1.8h.4l.5.5-.5.4h-.7c0-.1-.1.1-.1.1h-.3l-.2-.2h-.6v.3c.1 0 0 .2 0 .2l-.2-.8-.6-.2-.2.3v-.5c-.1 0-.4.2-.4.2h-.4v-1Zm22.8-3-2.1 3-2.1 1.7h-.3l.6-.7v-.9c.1 0-.5.1-.5.1l1.6-.8 1.6-1.9v-.4l.3.2.8-.4Zm-34.4.2.4.6h.4v.8l-.2.2h-.7l.2.4h-.3l-.3-.5-.7.2-.2.4.4.4-.4.9h-.9l-.3-.2-.5.2-.5.6.2.6-.2.7-.5.2h-.5c0-.1-.2-.7-.2-.7h-.4c0-.1-.6.2-.6.2v-1.7c.1 0 0-.3 0-.3l-.2-.5v-.2l.4-.6h.4l.1-.4h.5c0-.1.4-.1.4-.1h.7v.5h.3l.4-.5 1-.5h.3l.5-.1h.3l.2-.2.3-.3Zm16.3-4.6h.3c0 .1.1.6.1.6l1.2.3.2.5-.3.4.4.4h.5l.5 1.1.6.5.9 2.7.4-.2.5.4.3-.3h1.1l.8.7.2-.4h.8c0 .1.8 1.3.8 1.3l.6.3.4-.3.4.8h.3l.5.5v.4c.1 0 .7-.2.7-.2l.2.4-.2 1.2v.3l-.4 1.2-.3.3-1-.3.2-1.1-.8.2.3.3v.4l-.6.2v.5l-1 .7 2.1-.9h.5l-.1.6-1.3 1.4-2.2 1.2v.3l-1.2-.2-.4-.3.7-.5v-.3l.4-.2v-.4c-.1 0-.6.2-.6.2v-.2l-.8.4-.8 1.2-.7.2-.7-.2-.2.4-1.2.9h-.4l-.5-.4-.3.2h-1l-.4.6h-.3l-.3-.3-.4.2-.6-.3-.6.4h-.6c0-.1-.4.9-.4.9h-.2l-.3-.2h-.4c0-.1-.3 0-.3 0h-.5c0-.1-.4-.5-.4-.5l-.2-.2h-.4l-.4-.1.2-.6v-.4l.6-1.8h1.6c0 .1.3.3.3.3l.4.2v.6h-.3l.4.3h.7v-.5h-.2l-.1-.4v-.2h.6l1.1.5v-.2l.3-.2.6.2.7-.2h.6l1.1-.7h.3l.9-.5.3-.5-.2-.4h.5l-.6-.3-.9.9-.6.2-.7.3h-1l-.7.4h-.5l-.4-.8v-.6c.1 0 1.5-1.3 1.5-1.3v-.7l.3-.2-.2-.3.7-.6.9.2.8-.2.3-.5.7-.3.2-.5h.3v-.7l-.5-.2-.6.5-1.5.3-.5.3-.2-.2-.2-.2h-.4v-.3l.3-.2-.2-.4-.6-.3-.3-.2-1.1-.9-1.5.3-.2-.3h-.4l-.8-.4v-.8l.9-.2.6-.9h-.8c0 .1-.2-1.3-.2-1.3l.3.2.5-.3.6.2.3-.5.6.5.2-.3v-1.1h.7v-.4h.8l.5-.5.5-.2Zm-8.9-1.7.5.2v.6l-1.2 2.5-.2.2-.4-.4v1l-.7.4-.4.4-.3.2h-.5l-.3.4-.4-.6-.3.8h-.2v-.4h-.2c0-.1-.7 0-.7 0v.7l-.5.2v-.6c-.1 0-.4-.2-.4-.2l.2-.5.2.2.5-.7v.3h.5v-.3h.3l.2-.8.4-.2.2-.8h.3l.4-.3.3-.2v-.3l.5-.2.5-.8.6-.2v-.3c.1 0 .3-.2.3-.2h.6Zm-30.3-4.6.8.3-.6.3-.6-.3.4-.2Zm35.6-2.8h.3l.4.3h.5c0-.1.2.3.2.3v.4h-.3l-.2.2-.3-.5-.3.3h-.3l-.2-.5.4-.2v-.4Zm-35.1.9h.2l-.3.9.2.4-.5.3h-.3l-.1-.3.3-.5-.3-.5h.3l.6-.3Zm1.2-1.5.6.3-.4.4h-.8l.2-.4v-.2h.3Zm37.1-4 .6.4.2.6v1.7c-.1 0-.6.8-.6.8h-.6l-1.2-.6v-.9l.3-.5h.8v-.7l-.3-.3.7-.5Zm-35.8 2.1.7.2.3.6h-.2v.2l-.4-.2v.2l-.5-.3-.2-.6.3-.2Zm-1.1-2.2 1 .2v.2l-.2.1h1.1c0 .1.4.4.4.4l-.9-.2-.4.6h.8v.2l-.4.3h-.3v.1h-.4l-.3-.6h.4v-.3l-.9-.2.5-.4-.2-.4Zm32-5.3 1 .6.3.4h.6c0 .1.3.9.3.9l-.7.2v.2h.8v.2c.1 0-.4 2.1-.4 2.1l-.7.4-.2.5-.4.3h-.5l-.4-.6-.6-.2-.2-1h-.4l-1.7-1.6 1.3-1.1.3-.6 1.8-.9Zm-5.8-.5h1.8v.7l.5.3v.3h-.3l-.2-.2-.6.2v-.6h-1.1l-.5.5-.7.2-.5-.5.8-.6h.7v-.3Zm-23.1.6.7.3h-.2l.4 1.1-.4.5.6.7.3.5h.4v.6h-.5l-.2.1-.3.2-.3.4h-.2l-.1.3.3.4-.2.2h-.3c0-.1-.2.2-.2.2h-.7v-.4h-.3l-.2.2-.2.2-1.2-.3-.2-.2.3-.7h.7l.3-.4v-.7l-.3-.2.3-.3-.6-.3h1.1l.6-.4.3-1-.2-.7h.2Zm1.6-.2.5.5-.4.4h-.3l-.2-.6v-.2c.1 0 .4-.2.4-.2Zm2.1-1.3v.2l.3-.2h.6l-.3 1.2v.2l-.4.5-.5-.4v-.6c.1 0-.2-.6-.2-.6v-.2h.3Zm28.4-3.6h.6v.7l-.3.3-.4-.2.2.8-.5.3h-.4c0-.1-.5-1-.5-1l.8-.4h.1l.4-.4Zm5.5-7.6 1.2.3.6.5v1.2l-.5.4h-1l-.3-.6h-.3l-.4-1 .2-.6.6-.2Zm-30.9-4.1-.2.4h.2v.3l-.4.3c0 .1-.8-.1-.8-.1l.2-.2h.1v-.4zm-4.4-.2h.4l1 1h.4l-.3.2.2.3.2-.2.4.3v.3l-.5-.2.2.3.3.2.2.2.7.6h.4v.4l-.2.3h-.4l-.3.3-.3-.2-.9-.4v.2l.7.6h.5c0 .1.3.2.3.2v-.3h.5c0 .1-.2.4-.2.4l.2.2v.4l.5-.2.2.3-.3.2v.2c.1 0 0 .5 0 .5h-.6l-.7 1 .3.2v.4l-.4.3v.6l-.2.2h-.3v.1l-.6-.2.2.5h.7v.3h.3l-.1.8.4.5.2.9-.6.7h-.4l-.5-.3h-.2v.2h-.7v-.2h-.4v.2l.7.3v.2l.3.2.7-.3 1.1.3v.4c-.1 0 .2.1.2.1h.3v.3h.4l-.2.6h-.4c0 .1.1.5.1.5h-.8c0-.1-.5-.6-.5-.6l-.7.3H178l-.2-.4h-.4l.1-.4-.2-.5h-.4c0-.1.3-.5.3-.5l-.4-.5.3-.6-.5-1.5v-1.1l-.2-.2v-.7l-.6-.3h.5l.3-.6v-.8l-.1-.2h.2v-.4l-.5-.2v-.2c.1 0 .4.2.4.2v-.3h.5v-.5c.1 0 0-2 0-2l-.8-1.9v-.2h.5l.3-.5h.6v-.7h.3c0-.1.2 0 .2 0Zm35.7-3.8v.7c-.1 0-.5 1.1-.5 1.1l-.7.7-.2.6.3.8v1.1l.5.9h.2v.6l-.7 1.2-.8.2-.4-.3-.2-.8V181l-.1-.2.2-.3-.2-1.5.6-1.9h.3c0-.1.8.3.8.3l.2-.5-.5-.2v-1l.3-.4.3.3h.5c0-.1.4-.2.4-.2Zm-31.1-.4h.4v.3l.3.3h-.2l-.2.2.4.2-.6.7-.3-.2v-.5c.1 0-.3-.3-.3-.3v-.4h.2l.4-.2Zm-3.9.6.8.4.3-.2.4.2.4.2h.2c0 .1.1.2.1.2h.3c0 .1.6.7.6.7h.2l-.3.3-.6-.3v.5h.3l.2.3h-.8v.4h-.1v-.2h-.3l.2.2c0 .1.3.4.3.4h.5l-.5-.3h.8l.5.5v.6l.1.1-.5.2h-.4c0 .1-.1.3-.1.3l-.8-.3.2.5-.6-.2v.3h-.5l-1-1h-.4l-.3-.2h-.3c0 .1-.6-.2-.6-.2h.2v-.8c-.1 0-.5-.3-.5-.3v-.3l.3-.2h-.3v-.5l.8-.2v-.7h1.2Zm35.3-4.5h.2l.2.7-.6 2.8-.5-.8v-.4c.1 0-.1-.4-.1-.4l.6-.2-.3-1.2.2-.3h.2l.3.2v-.2l-.2-.1v-.2Zm-43.4 2.3h.2c0 .1-.1.4-.1.4l.4.2.6-.5.3.2-.2.3h.2c0 .1-.4.2-.4.2l-.2.5h-.4l.3-.1v-.5l-.4.2-.4-.3-.5.2.2.2h-.5l.1-.5.2.2.6-.6Zm34-7.9.6-.4h.3l.1.5v.3l1.1.9.4 1.7 1.1.2 1.1 2.3h.3l-.3 1 .2 1-.2 2.2.3.7-.3 2.6-.8.9-.3-.2-.2.4.3.2h.3l.3-.2h.5l.4.6-.2 1-.3.2.7 1.4.3-.2.2.2-.3.4.3.4-.2.3-.2-.2-.6.2-.6.8.9-.7h1.6l.4 1-1 .8v.3c.1 0 1.5-.9 1.5-.9l.6.7 1.5.6v-.2h.5l.5.5-.2.5h.7l.6-.6h1.2l.8-.7.7-.2h1.1c0 .1-.5.7-.5.7l1.6-.2.5.5-.5 1v.5c.1 0 0 .7 0 .7l-1.2 1.1-1.2.7-.4.2-.5-.4v.7c.1 0 0 .6 0 .6v.2c.1 0 .5-.3.5-.3v.4l-.5.4v.7l-.6.6h-.7l-.5 1.1h-.3c0 .1-.3.7-.3.7v.3c.1 0-.5.4-.5.4l-.3.5-.8.4h-.4c0 .1-.7.7-.7.7h-.4l-.2-.4-.2-.4-.2-.5.4-1.2h.3v-.3l.3-1.3h.3l-.1-.4h-.3l.2-.4.6-.4v-.2l.1-.2.6-.3.5-.5.3-.5 1.2-.3.5-.6-.7.5h-.4v.2h-.6l-.5-.2-1.5.4-.3-1.6-.4-.3-.4-.8v.3l.3.9v.6c-.1 0-.4.4-.4.4h-.3v.5l-.9 2.1-.8-.6.3-1.4-.2-.9-.3-.2-.2.3h-.4c0-.1-.1-.5-.1-.5h-.1l-.1.3-.3.7h-1c0-.1-2.6.8-2.6.8h-.3l.2-.7.7-.7v-.5h-.3l-1.1.7-.6-.3-.6-1v-.6l.8-.2.2-.8-.4.5-1.1.2-.6-.4v-.4l-.6-.6-.2-1.1-.6-.4v-.9l.7-.6h.2l.2-.2h.2v-.6l1.1.6.8 1.1.6.2-.8-1.2-.7-.7-.2-.2h-.3c0-.1.1-.6.1-.6l-.3.4h-.8l-.3.5v-.4c-.1 0 0-.5 0-.5l-.7-.5v-.3c.1 0-.1-.3-.1-.3v-.7c.1 0-.1-.4-.1-.4l-.2 1-.7.7.2-.6h-.2c0-.1.3-.6.3-.6l-.3-.5v.4l-.3.2-.3.2-.2-.2h-.3l.2.2v2.2l-.1.3h-.3l-.3-.1-.7-.7-.8-.4h-.4c0 .1-.8-.6-.8-.6h-.4l-.6-.9.3-.3-.4-1-.5-.3v-.3l-.6.4v-.9l.3-.3v-.6h.5l1 .4-.6-.7-.2-.9v-.8l.9-.7.3.8.5.3.5.9v.5h.4l.3.7h.3v.3l.3-.2v-.4h.2l.2-.4-.2-.2-.2.2-.3-.2v-.2h.2v-.3l-.2-.2-.3-1.2h-.2v-.2h.7l.5-.3.7.7.2-.6-.6-.4-.5-.9-1-.7-.2.4h-.1v-.6l.3-.2.2-1.2V170l.5.1.9.8.4.8v1.1l.4.2.4-.2.9.7.8 1 .3.7.9-.9-.5 1.5.3.4v-.7l.5-.6.5-.2-.2-.6.2-.3.4.4.2.8.7.3.2.2h.1l.2.5.2-.2-1.2-1.4-.8-2.2v-.4c.1 0 .4.3.4.3l.5-1.1h-.2c0-.1-.2.1-.2.1h-.5v-1.3l-.8-1.4.2-.3h.4v-.6h.6l.8-.5.2-.4v-.2c-.1 0-.3-.7-.3-.7l.2-.2h.4Zm-25.3.1v1l.5.3c0-.1.7.1.7.1l.4-.7v-.2l-.3.1v-.3h1.2l.3-.5.4.2-.2.2h.4l.6.7-.2.4h.2c0 .1-.2.4-.2.4h.3l.4-.3h.3l.5.4v.3l.4.2h.2c0-.1.3.3.3.3l-1 1.6-.9-.9h-.3l-.1-.1-.2.4.2.3v.3c-.1 0 0 .3 0 .3v.3l-.2.2.3.2.2-.2h.4c0 .1.4-.2.4-.2h.3c0 .1-.4 1.4-.4 1.4l-.7.4.3.2-.2.6.2.3-.4.5v.7h-.7l-.5.1h-.6v.3l.6 1v.3c-.1 0-.8-.3-.8-.3h-.3l-.5-.4h-.2l-.5-.2-.3.2-.7-.3-.2-.4-.3.2-.6.2v-1.2l-1-1.1-.6-.9h-.4l-.8-.2v-.4l-.3-.1-.2-.3-.2-.4h-.3c0 .1-.2-.4-.2-.4h-.4l.3-.6h.6v-.4l-.2-.2.7-.3v-.4c-.1 0 .2-.4.2-.4v-.2c.1 0-.1-.4-.1-.4l.5-.2.4.2.3-.2h.7l.3-.2.3-.2h.5l.1.2v.2l.7-.3.2-.3-.2-.3h.3v-.2h.3v-.5h.2Zm.6-1.1.4.2v.8c-.1 0-.7-.3-.7-.3v-.5zm3.2-.9.5.4-.3.3v.4l.8.4h-.5l-.6-.6h-.2c0 .1.3.6.3.6h-.3c0-.1-.1.3-.1.3h-1.3c0-.1.7-1.6.7-1.6zm1.9-.5 1 1.1-1.1-.6v-.3c-.1 0 0-.2 0-.2Zm.2-1.2.3.7-.2.4-.6-.8zm-3.8-.5h.4l.4.7-.6.5h-.6l-.6-.6.3-.5.7-.2Zm13.6-4.6 1.4.4v.2h.1v.4c.1 0-.7.3-.7.3v-.2h-.7l-.2-.3v-.3l-.2-.4.3-.2Zm-7.9-2 .4.2.2.8-.2.3v.2l-.5.6-.9-.7-.2.6-.6.3v-.7h-.3v-.2l.3.1v-.2h.7l.2-.7.9-.5Zm-3.2-5.7.6.5.2.8v.4h-.5l-.4-.4h-.5c0 .1-.5-.7-.5-.7l.2-.3.8-.3Zm6.2-10.9.2.2h.9l.4.9h.4l.1.4.4.2.3.2v.2c.1 0 .1.9.1.9l-.5-.3H191l-.2-.6h.4v-.2h-.2l-.3-.4v-.2l-.3-.3v-.9Zm16.3-12.6.4.5.6.2v.6l1.1 1.1-.4.4v.6l.7.8v.6l-.6.5-.6 1.9.4.7.9.6-.8.2-.7 1h-.3l-.3.5v.6l-.8.2v.2c.1 0-.1.3-.1.3v.3c.1 0 0 .3 0 .3l-1 .2-.2.5.2.6-.5.6.8 1h.3c0 .1.2.1.2.1l.9-.8h.3l.3-.2.5-1 .8-.2.2-.5h.2l.6.2v.4c-.1 0-.5.2-.5.2l.2.3-.5.6.3.4-.2.3-.3.4-.9.4v.5l-.9.4h-.4v-.3h-.4c0-.1-.4-.9-.4-.9h-.7c0 .1-.3.4-.3.4v.4h-.3c0 .1-.3 0-.3 0v-.7c-.1 0-.4.2-.4.2h-.4c0-.1-.2-.6-.2-.6l-.2.2.3.8h.1c0 .1-.2.5-.2.5h.2l.3 1.3-.2.3v.2c.1 0 0 .6 0 .6h-.5c0 .1-.4 0-.4 0h-.4l-1.1-.4c0 .1.1.3.1.3l.4.2h.2c0-.1.4.2.4.2l-.7.4-.4.6h-1.1l-.4.2v.2l-1.4.3.4.4v-.3h1l.4-.3h.7l.3-.1h.7l.3.3.2-.4-.3-.2.9-.6v.4l.1.2v.3c-.1 0 0 .4 0 .4l.4.3h.3c0 .1-.3.5-.3.5h.3c0 .1-.2.9-.2.9h-1.6l.8.3h1.1l-.2 1.1-.6.5v.4l-.8-.6h-.4l-.4.2-.2-.3-.3-.3v.4l-.8-.3.3.3h-.6l-.4-.3v.5h-1.1l1.4.3h1.1c0-.1.6.5.6.5l-.2.2.2.3-.2.4v.2c.1 0-.3.2-.3.2v1.2l-.9-.1-.5.6-.8-1.4.2 1.9h-.6l-.3.3v-.2c-.1 0-.5-.5-.5-.5l-.4-1.3h-.2l-.5-.5.4 1.3.5.8h-.5l-.2-.2h-.3c0-.1-.2.2-.2.2l-.6-.9-.5-1.2h-.3l-.3-1.2.2-.5-.2-.8.7-1.2.6-.4v-.5h-.1v.4l-.8.7-.6.9-.8.4v.4l.5.3.4 1.4v.4h.3l.9 1.5-.2.3h-.4c0-.1-.4 0-.4 0l1.1.7v.9h-.7l-1.2-.3-.3-.5h-.4c0-.1-.8 0-.8 0l.3.5v.4l-.3-.3-.3.2.2.7h.3c0 .1.1-.2.1-.2l.3.2.5 1.2h.4l.1.7-.4.2h-.3l-.3-.2-.6-.4.2.7v.7l-.5-.2-.3-.2h-.3c0-.1-.3.5-.3.5l-.2-.5h-.3l.2.7-.3.2h-.1c0-.1-.3-.1-.3-.1v.2l.2.8h-.6v-.2h-.1v.5l.3.2-1 .3-.2.9h-.3c0 .1-.5-.1-.5-.1l.3.6h-.2l-.7-1.1h-.5v-.4l-.3-.3-.6-.5-.8-1.3h-.5l-.5-.5-.3-1 .7-.2.6.3v.9c.1 0 .2-.4.2-.4h.4l.6-.4h.5l.2-.5h.3c0-.1.3-1.1.3-1.1h.2c0-.1.3 0 .3 0l.4-.2v-.9c-.1 0 .3-.3.3-.3v-.5l.2.2.6-.4 1 .2.2.3h.5l.1-.2.8.2-1.1-.7-.2-.4.6-.2-.2-.3-.2.2-1.4-.3-.2-.2-.6-.5h-.7l-.8-.7h-.1c0 .1.3.5.3.5h-.7c0 .1-.9-.4-.9-.4v-.4l-.3.2h-.3v-1.2l-.2-.2-.3.4h-.3c0-.1.1-.5.1-.5l.5-.3.2-1 .8.6v-.6l.6-.4 1-.5h.6l.7-.4h-1.1l-1.5.8-.6-.4v-.3l1.1-.4h-1l.1-.5.8-.4-.2-.5-.3.4-.7.3h-.5c0 .1-.3-.2-.3-.2l-.3-2.2h-.3l-.3-.4.2-.8h.4l.2-.2v-.3l.4-.5-.2-.7h-.2c0-.1.1-.4.1-.4l.5-.3v.3l.6.2v-.3l.2-.2-.4-.3.3-.6h-.2c0-.1.3-1.1.3-1.1h.3v-.3l.4-.3v.6l.2-.2h.6c0 .1.5.8.5.8h.3v-.5l.2-.2.7.9h.5l.2.2v.5h-1.4l.8.8h1l.2.4h.2v-.4h.1l.3-.3h.3c0-.1.3-.5.3-.5h.3l.2.1h.7l.3.3.6.3.3-.3.4.8.2-.3v-.2l-.1-.4h-.2l-.4-.1-.2-.2v-.4h.5v-.2l-.4-.3-.6-.8h-.2c0-.1-.3-.8-.3-.8l-.2-.3v-.3l-.3-.7v-.3c-.1 0-.2-.2-.2-.2l.3-.3h.2l.3-.3-.2-.4h.4l.3-.3.6-.2.6-.3v-.4c.1 0 .7-.4.7-.4h.4l.5-.3v-.4h.3l.2-.3.3.6.5-.2h.2c0-.1.3-.3.3-.3l.6-.6h.8v-.4l.7-1.2h.6l.3-.6 1.1-.8.2-.5 2-1.1.6-.9h.8c0-.1.8-1 .8-1v-.4l-.3-.2.6-.4Zm74.5-7.7.6.4.3.8.9.2.8-.5h.7l.3.2h.3l.1-.3.8-.2.9 1.1 1.5-.4h.9c0 .1.4 0 .4 0l.7.2-.3.8v1.5c-.1 0-.9.3-.9.3l.3.5-.2.9-1.6 2.2.2 1.9.4.4 1.3-.3.2.4-.2.6v1l-.7.9-.2 1-.6 1.3v.3l-1.1 1-1.8 2.3-.8.4h-1l-1.1.6-1.5 1-.7 1-.6.8-.7.8-.3.9-.9 1.2-2.6 1.9-.5.7-.8.3-.3.6-1 .9h-.4l-.5.7-.4.3h-.3c0-.1-.7.3-.7.3l-.8.9-.3 1.6h-.7c0 .1-.5.8-.5.8l-1.2.3-1.2.6-.4 1.4.2.6-.3.4.2.9-.5.6v.5l.2.5.2.2.9.2-1.1.2h-1.2l-1.9.3-.9-.2-.5-.3v-.3l-.8-.2h-1.2l-.4.5h-.4v.1l.8.2 1.9-.4.9 1.4.4-.5 1.3.3.5.4h.5c0 .1 1.5-.8 1.5-.8l1.3-.4 1.2 1.2.4.2h.5l.8-.4.5-1.2 1-.3-.5 1.4-2 3-1.2 1.2-.4 1.2-1.1 1.5-.4.2h-1.2c0-.1-.2-.8-.2-.8l-.6-.6h-.3l-1 .5-1.2 1.2-1.1-.2h-.5l-.6.7h-.7l-.4.9-1.1.4-.9 1.2-.4.2-.6 1.4h.3l.2-.5.3-.3h.4c0-.1 2.9-2.7 2.9-2.7l.8-.4h1.6c0-.1.4.4.4.4l.5.2.9-.2 1.3-.9 1.1.3-.4.7-.8.6-1.5 2-.3.9.6.7-1.1-.2-.8.5-2 2.9-2.9.2h-.5c0 .1-.4 0-.4 0l-.2.2.6.3.6.3h1.8c0 .1.7-.4.7-.4l.9-.2 1.1.4.8-1.3 2.5-1.9v-.4c.1 0 0-.3 0-.3l-.7-.5 1.3-1h.7l1.8.8 1.6-.2.7-.4.9-1 .9-.3.6-.6.5-.6 2-.5.4-.2 1.4.3h1.3c0-.1.9-1 .9-1v-1.1h1l.6-.4 2.3-.7 1.1.2.7-.2.4.6 2.3 1.2 3.9 1.2 2.4-1.1.3-.6 1.8-.4.2.5.4.2.9-.4.4.4h.7c0 .1.2.5.2.5l.6-.4.8.4.4-.3.9.5h1.3l.5.3h1.7l1.2.2.5-.2.8.3 1-.4.3.3.6-.3v-.5l.8-.4.9.8h.4c0-.1 1 0 1 0l.5.4h.4c0-.1.3-.6.3-.6h.3l.9-.8h.2c0 .1 1 0 1 0l.7.3.9-.3.3.3v.4l.2.2.6.2.6-.4.6.5 1 1.9 1.5.9v1.7c-.1 0 .2.8.2.8l.3.3v1.3c-.1 0 0 .5 0 .5l.8.6v.3c-.1 0-.4.4-.4.4l-.3.3.6.8-.2.4-1 1.2v.4l-.2.5-.8.5v.8l-1.3 1.2-.3.7-1.2 1.2-1.2 2.4-1 2.4-.5 2.1h.7v1.1l.8.6v1l-.6 1h-.9v.3l-.7 1.1v.3l-1.6 2.4-.5 1.8-.7.6.3.8-.2.2v1.8l-.4.7v.6l-.4.9-.8.9-.7.8-.4 1-.5.6-.9.4-.6.6h-.5l-.7.9-.6 2v.3l.3.2v.7c-.1 0-.9.7-.9.7h-.4l-.4.6v1.1l.5.4-1 1.6v.4l-.8 1-1.5.6-.6 1-.8.5-.7.8h-.3l-.6 1.7-2.1-.7-.5.2.3.3-1.3.2-.6-.3h-.5l-1.1.3-1.1.6-1.2.3-.8.6v.6l-.6.5-.4.3h-.4l-.2-.2-.4.6-.9.5h-.4l-.7.5h-.8c0 .1-.2.5-.2.5l.5.2 1-.3.8-.6 3.2-1.5 1.2-.7.7-.2 1-.6.7-.7h.9l2.6.3h1.8c0-.1 0 0 0 0l-.4.2h-1l-.6.2-.2 3.2.2 1.2.5.3v.3l1.9.4h.3c0-.1.9.3.9.3l.8 1.1.9.3.3.4-.4.8h-.5c0 .1-1.7 1.9-1.7 1.9l-2.5 1.1-.7.7-.6-.2-.4.2-.9-.3-.3-.6-.8-.3h-.5c0-.1-.6.2-.6.2l-1.4 1.5-.9.5-.8 1.1h-.3l-.7.8-.7.3v1.4c-.1 0-.6 1.1-.6 1.1h-.5l-.4.4-.4-.2-.3.2-.4-.3-.7.2-1.1 1h-.5l-.5.4h-.7l-.2.9-.5-.5-.2.2h-1.1v-.7l-2.3-.5-.4-.3h-.9c0 .1-.2-.1-.2-.1h-1.8l-.6-.3-.9-1.1-.2.2.4.3.6 1.1 1.8.5h.5l1.6.8 4.3 1.1h.4l.7-.5.5.2h.7l.9.9 1.2-.3v.3h.6l.4-.5.6.2.9 1.1 1.1.7.9-.4 1 .2 1.6-1.1h.5c0-.1.6-.3.6-.3l.3-1.6.8-1 .6-.2.8-1 1-.2.5.3h.4c0-.1 1 0 1 0l.5-.2 1.3.3.6.7.2.6.6.4.5.7h1.1l1 .4.7.3v.4c.1 0 .7.3.7.3l.5.3.3.8 1.2.7v.2l1.9.4 1-.4 1.3.7h1l.3.8v.3c-.1 0 .6.7.6.7h.3c0 .1.3.2.3.2l.2 1.4.3.2.6 1.2-.9.5h-.1c0 .1-.4.5-.4.5v1.2h-.3l-.3.2v.4l-.5.5h-.4l-.1.3v.3l-.7.3.3.5h-.2c0 .1-.5.6-.5.6l-.7 1v.4h-.3l-.5.5.4.3-.2.2-.6-.2h-.5l-.5-.1-.6.2-.3.5.3.3h.4l-.2.3.6.7.2.4v.7l1.3 1.3.4 1.3v.7l.5.7v.9h.1l.9.3-.6.3-.4 1-.6.4h-.8c0-.1-.4.2-.4.2l-.5.3-.3.3-.2.2h-.5v.1l-.3.3.4.8-.2.2v.2h-.1v.3c.1 0-1.1.8-1.1.8l-.3-.2-.2-.2h-.9l-.5.2h-.6l-.8 1.4-.9.3-.3.6-.2.2-.4.3-.5.4-.5 1h-.5l.9.7h-.5v1l-.5.2h-.4l-.3.6-.3.8-.3.6-.4.2-.4.2-1.5 1.2h-.9c0 .1-.2.3-.2.3v.3c.1 0-.7.7-.7.7l-.7.6-.2.3v.5h-.6l-.2.3h-.4v.5l-.8.4-2.1-.2-.2.2.7.5-.6 1.2v.5c.1 0-.2.3-.2.3v.3l-.4.2v.5l-1.2-.1-.5.7-.4.4-1.1-.6h-2.8l-1.9.6-.5.4v.6l-.6.3-.5-.2v-.4l-.8.5-.3.3-.7-.2-.4.8h-.5l-.3.6-1.9 2-1.5-.4-1.5.5v-.3c-.1 0 .3-.4.3-.4h-.5l-1 .6-.3.7-.3-.2-.5.9h-.6l-.4.6-1.7.7-.6.7-.6.2h-1.6l-1-1.4-.2.3v1.2l-.5-.1-.5-.7-.2.3h-.7c0-.1-.6-.8-.6-.8v-.6c-.1 0-.5-.3-.5-.3l-.4.3v-.6h-.3v-.4l-.2-.1v.3-.3l-.4-.2h.2l-1.9-.6.4.6-.8-.9-1.4-.8v.7c.1 0 .8.4.8.4l-.2.4.3.6-.5-.8-.2.2.8 1.7v.4l-.4.1v1.3l-.3 1.3v.5c.1 0 .4.1.4.1v.5l-.2.4h-.2v.2l-.7.6-2.6-1.1-.7-.4-.2-.4h-.3l-.2-.5-.7-.2-.3-.8v-.2l-.4-.6-1.8-1.1-1-1.1-1.5-.3-.6-.4-.2-.4-.7-.4h-.8l-1.6 1.1-1 1.2.4 1v.6l.5 1 .3 1.7 1 .9-.5 1.3.2.7h.6c0 .1-.6.3-.6.3l-.2-.2-1-.2-1.1-.9-.2-1.1.6-.5-.4-.8.2-.5-.8-.2v-.7l-.3-.2v-.8l-.3-.5-.8-.4v-.3l-.3-.4-1.3-.9-1.2-1.4v-.4l-1-2.1v-1.6l.2-.8-.2-.3.7-1.5h.5l1.2-.4.8 1.9.5.3v.3c-.1 0-.4-.3-.4-.3l-.3.2.2 1.5.9 1 .8-.6v-.3c.1 0-.2-1.2-.2-1.2l-.3-.7-.3-.2-.8-2.4.3-1.3.9-1.5.4-2.2 1.1-1.2h.3l.7-1.4 1.3-1.2v-1.1l.7-1.5v-1.6l-.3-.4.9-.7.2-.5.8-.6.2-1.8.9-1.1 2-.9.3-.6v-.6l.3-.2.2-.9-.2-.9-.6-.5-.2-.7-.6-.3v-.2l.3.1.2-.2v-.7c.1 0-.4-1.2-.4-1.2l-.8-.8-1.2-.7-.5-.2-.3.2-.4-.4h-.5v-.4l-1.1-1.7-1.1-.8V259l.3-.2h.3v-.4h.3v-.1l.4-.5v-.9l-.8-1.8v-2.9l-.3-.4.7-.9h-.3c0-.1.1-1.5.1-1.5l1.5-.9.3.2.3-.7 2.6.9-.2.6.5.2.4-.3.6-.5-1.5-.7-.2-1.1-.3-.3-1.1-.4-.2-.3h-.5v-.5l-.8-1.3v-.6l-.3-.6-.2.9.4 1.1.4.7.4.2v.5h.7v.6c.1 0-.9.3-.9.3h-.9l-.4-.4v-.6l-.4-.6v-1l-.3-.5v-.4l1.1-2.6.4-.4 1.1-2.6.8-.9v-.3l-.9.8-1 2.1v.8c-.1 0-.5.3-.5.3l-.4.8-.6-.4v-.7c-.1 0 0-.9 0-.9l-.5-1.2-.4.2.4.9-.2 1.5.9 1.1-1 1.8.4 2.9v.3c-.1 0-1.1-.6-1.1-.6h-.3v.5l.8.3.2.4-.3 1-.3.2-.5 2-.6.9-.2.8-1.6-.5v-.5l-.6-3.2-1-.9-.4-1.7-.2.5.3 1.1.9 1.6.2 1.8h-1l-1.4-1.5h-.3l-.3-.7v-.6l-.2.7.2.5-.3.9-.8.6v.4c-.1 0 .8 1.7.8 1.7v1.3h-.3l-.3-.5h-.6c0-.1-.3-.5-.3-.5h-.8v-.4l-.5.2-.2-.2.2-.9h-.1l-.3-.4-.3-.3-.3-.4.2-1v-.5c-.1 0 .3-1.3.3-1.3l-.4-.7.4-1.4.2-.2.3-.2.8-2 1.9-2.3v-.7l.2-.3.6-.3h.8c0-.1 1.2-.9 1.2-.9l.5-.5v-.8l.7-1.2.6-.6 1.5-.7 1.5-1.5-2 1.3-1.3.4-.2-.6-.5.4-.9 2v-.2c-.1 0 0 .6 0 .6l-.3.8-.7.6-1.2.3-1.2 1-.5.7v.7l-.7.4-.4 1.1-.5.3h-.3l-.3.4v1.3h-.6l-.6 1h-.2c0-.1-.4-.2-.4-.2l-.5-.2v-.5h-.5v2.2l.4 1.2.3 2.4.4.4h-.2l.4.8-.5.3h.7l.8 1.4.4.3.7 2-.3.9h-.6l-1.1.6-1.4 1.9v1l-.3.2-.3 1.5-.3.3.2 1.8.4.6v.7l-.2.2-.2-.4h-.3l-.3.4v1.9h-.3l-.2 1.8-.8.9-.2 1.6-.8.5-.5-.2v.2c-.1 0 .4.5.4.5l1.1-.7v.3l-.4.1.7 1.3.2 1.4-1.1 1.4v.3l-1.2.7h-2.1l-1 .7h-.9c0 .1-.9-.3-.9-.3l-.2-.5.2-3.7 1-1v-.5c.1 0 .8-.1.8-.1l.2-.7v-3.5l.3-.7-.3-1.8.6-.6.5-2.1.2-1.6-.3-.7 1-.7.5-.6.6-1.2v-.2l.3-.3.3-.9h.5l.9-.8.2-.4.7-.5 1.1-2.3-2 2.7-.5.5-1 .5-.5.8v-.3h-.5l.3-.7-.4-.2.3-.3h-.1c0-.1-.6 0-.6 0l-.7-.6v-.6c-.1 0 0-1.5 0-1.5l.3-.8.6-.8.2-.8 1-1.3-.2-.2-.5.2-1 1.3h-.3l-.5.7h-.2v-.9h-.2v-.5l.6-1.5.6-.7 1.1-1.9.5-.2.3-.4v-.2l-.7.5.8-1.2-.6.5-.2.2h-.6l.3.3-1 1.6v.2l-.5.8-.7 1.5-.4-.3.6-1.2h-.4c0 .1 1.2-3 1.2-3l.4-.3.2-.9.5-.4.8-1.4.4.2.6-.2v-.3h-.3l-.2-.3-.2-.4 1.6-3.4h-.5l-.2.3-1.2 1.1v.5l-.5.6h-.4l.3-.7v-.5c.1 0 .5-.4.5-.4v-.4l1-1.9v-.6h-.4v-.3c-.1 0 .5-.1.5-.1l.4-.4h.4v-.2h.5c0-.1-.4-.7-.4-.7l-.4.5h-1.1l-.6.5h-.4l.3-1.6h-.2l.4-2.4.6-.7h.3v-.6l.6-1.6 1.1-.8-.3-.6v-.5h.3l.2-.5.6-.4v.3c.1 0 .7-.2.7-.2v.2c.1 0 1.3-.2 1.3-.2l.3-.3.6.4.4-.3 1.2.3.5.5.3.2 1.1-.5.5-.3.5-.8.6-.2-.2-.2.4-.5.7-1 1-2.3-.3.2-1 2.2-.5.3-.5.3-.7 1.8-1.2.7-.7-.8-.8.2-1.5-.5h-.4v.6h-1.2l.3-.6-.2-.8-.3-.2h-.3l-.6.9v-.6l-.5.3 1.5-2.6h.4l.1.4v.5c-.1 0 .4.3.4.3l1.3-.5 1-1.2h.6c0 .1.6-.1.6-.1v-.2h-.3l-.6.3h-.5c0-.1-.5 0-.5 0l-.4.6-.8.5h-.4l-.3-.9-.4-.2h-.3l.2-.6.8-1 .5-1.1 1.6-1.6v-.4h-.7l.2-.3 1-.8h.4c0-.1.3.1.3.1l.8-.9h1.1l.8.4.4-.2h.4c0 .1.6-.5.6-.5l3.3-1h-1.1l-3.8 1.4-.2-.3-.5-.3h-1.6l.5-1.4 3-4.2-.3-.2-.7 1.1-2 2v.4l-.7.9.3.5-.8.4-.3.6-.2-.4h-.4l-1.1 1.1-.2.5-1.1 1.3-.9.2-.9 1.3-.5.2-.3-.3h-.5v.2l.6.3-1.8 2.9-1 .9-2.3 1.3-.3-.7-.9-.3-.3-.3-.3.3-.4-.6.6-1.1v-.2l-.9 1.4-3.2-.9-1.4-1.4-.5-1.3-.6-.5-.2-1.2v-.2h.9l.6-.3.7.2.3-.2h-1c0-.1.2-.6.2-.6h.4l.8.6.2.6 1.5.9v-.2l-.2-.3-.9-.5v-.6l.9-.1 2.4-1.9.7.2.4.7h.4c0-.1.8.3.8.3h1.2l.2-.3h1.4v-.3h-1.8l-1.1.1-1.5-1.2h-1.3l-.2.2-1.6 1.6-.5-.4-1.1.3h-.7c0-.1-.2-.6-.2-.6h-.7l-.3.6-.3-.5-1.1.2-.4-.5-.6-.2-.7.3h-.4l-.8.2-1.1-.2-.8-.6-.3-.7.2-.3.2-.2.3-.6h.5v-.3l-.3-.2.2-.3h.5c0 .1.6-.4.6-.4l.7-.2 1.4.2h.3l.3-.1h.5l.1-.4.8.2.4-.3v-.5l.6.3.8 1.2h.3l.4-.5.4.3v-.2l-.3-.3-.2-.5.2-.4.6.3h.4l.3-.3h.8l-.2-.2h-.6l-.5.3-.9-.3.3-.9h.2l.3-1 .6-.2.5.3.2-.4h.5l.9-.5.8.2.4-.9.7-.4v-.4h-.3l-.7.8-.3.6-1.6-.5v-.3l1-.7h.7v-.3h-.2v-.3l-1.6.2-.6.2h-.2c0-.1-.6.2-.6.2h-.4c0-.1-.6.3-.6.3h-.4c0-.1-.1-.4-.1-.4h-.4v-.4l.6-.2.2-.4.3.3h.7v-.5h-.6v-.3l-.6-.3.3-.3h.4l.5-1v-.4c-.1 0 .5-.6.5-.6h-.3v-.8l.4-.4v-.7l.3-.2 2.4-.3.5 1.3 1.9 1v-.2l1.2-.2 1.7-.7-.3-.3h-.4l-1.8.9-.4-.5-.6-.2-.6-1.1.3-.4-.2-.5-.7-.2-.6.3-.2.3-.4-.3-.2-.6-.5.2-.2-1 .4-.8.9-.6.5-1.1h1.1l.9-.4 1.3.4.7 1.1.5.2.4.2h.2c0-.1.3-.5.3-.5h.5l1.9-.5h.8l-.8-.3-1.8.5-.9.2-.6-.5-.3-1-.5-.3-.7-.3h-1.2c0 .1-.8-.5-.8-.5v-.5l.3-.8.9-.7.4-.7v-.5c-.1 0-.7-.3-.7-.3v-.5l.5-.6 1-.4h.6l1.2-.5 1.3 1.7 1.1.9h.5v-.6l-1.1-.6-1.5-1.6v-.4l.7-.7-.7.4-.3.4-1 .2-.8.2v-.3c-.1 0-.7.1-.7.1l-.8-.5-1.9.3-.3-.2v-.6c.1 0 .4-.9.4-.9h.4l.2-.5h.4l-.1-.7h.6l.4-.4v.7l1.4-.4.4-.5h1.1l1.8-1.7v-.7c.1 0-.3-.3-.3-.3l-.8.8-.3.4-.9 1.2h-.8l-.5.2-.2-.2v-.3l-.6-.1v-.2c-.1 0 0-.4 0-.4l.8-.4-.4-.7-1.9 1.2-.9 1-.5.3-1.1.2-.4-.6-.2-.2h-.3v-2.3l.2-1-.3-.4h-.6l-.5-1.6.5-3.7v-.6c.1 0 .5-.8.5-.8h.4c0 .1.3-.3.3-.3l.3.5h.4l.3.5.2.2.5.4-.2.2v.3c.1 0 .6-.2.6-.2l.2-.2.2-.2.3.3v.9l.7.3.6.8-.2-1.6.7.6.3.2.3-.3.9.3h.3c0-.1.7 0 .7 0l.3-.8-.4-.3h-.5c0 .1-.8-.2-.8-.2l-.6.2h-.9l-.5.3v-.3l-.9-.5v-.4l.6.2v-.4c-.1 0-1.2-.4-1.2-.4l-.2-.5v-.5l-.5-.8-.7-.6-.9-.2.2-1 .6-1.1v-.6l1.3-.6h.3v.4h.8c0 .1.2 0 .2 0h.4c0-.1-.2-.6-.2-.6h-.3v-.6l-.3-.4h-1.5l-.6-.7-.7-.3.2-1.7-.3-2.3.2-.4v-.8c-.1 0 .1-.2.1-.2h.6l.5-.4.6.2h.6c0-.1.5 0 .5 0l.4.2-.2 1 .2.4h.3l.3.6-.2.4v.8l1.1 1.4h.5c0 .1.1-.2.1-.2l-.6-.8.3-.3h.3l.5.2v-.3l-.5-.2.4-.6v-1l-.5-.3v-.5c-.1 0-1-.2-1-.2v-.4l-.4-.8v-.5l.9-1.7 1 .2h.5l.3.3v1.1l.4 1.1 1.2.3.5.4.3-.2v-.3l.4-.6v-.9l.5-.7.6.2 1.3.9.6.9.4.3 2 .7v-.2l-.3-.3v-.4c-.1 0-1.8-.6-1.8-.6l-.2-.6-.6-.7-1.4-.3-.3-.9h.9v-.3h.3l.2.1v.4l.6.6.7.2h1.5c0-.1.6 0 .6 0l1.7 1.7.7.2 1 2h.4c0 .1-.3-1.1-.3-1.1l-.6-1-.8-.4-.3-.6h-.6l-.3-.6-1.1-.9.7-.2.3-.3v-.3l-.2-.1v-.6h-.8l-.3-.2-.2-.4-1.6-.4v-.6l-.6-.8-.4-.4-.4-.7-1.5-.2v-.3c-.1 0 .2-.6.2-.6l-.8-.5-.4-.7v-.4l.3-.6.3-.4h.2l1.2.9.5.9h.2l.1-.5.3.2.5.4.6.2.5-.4v-.5c-.1 0 0-.4 0-.4v-.5l-.1-.3-.2-.3-.2-.3h1l-.6-.3-.3-.6h1l.2-.2.3-.2v-.4l-.6.4-1.1-.4v-.3l-.2-.4h.3v-.4l-.7-.2-.3-.6-.3-.4v-.7c-.1 0-.6-.6-.6-.6l-.6-.3.3-.9.5-.5.2.6h.8v.4h.5c0 .1.4.8.4.8l.9-.9.8-.3h-.7l-.3-.4.4-.5v.4h.9c0 .1.7.7.7.7l.5-.3.3.6.2-.8.3.2.5-.3v-.3l.3-.2h.3l1.4 1.1.8-.2.2-.4.4.2v.6l.7.7h.6v-.2l-1.2-.9.7-.3-1.4-.3-.3.2h-.6c0 .1-1.4-.9-1.4-.9h-.6v-.7l-.3-.5v-.6l.5-.4-.4-.3-.2.4h-.3l-.2-.2.3-.6-.4-.3v-.4h-.3v-.2l.3-.4.8-1.2-.2-.7.3-.6h.3l.4.8h.7l.4.1.2.2v.3h.5l.2-.4-.8-.3-.2-.2-.6-.2-.5-.4h1l-.5-.4h-.5l-.1-.3.4-.5.5-.5h.2c0-.1 1.1 0 1.1 0l1 1.2v-.3l-.2-.3.2-.2-.6-.2v-.4c-.1 0-.9-.3-.9-.3v-.2c-.1 0-.9-.3-.9-.3v-.4h-.7l-.3-.5.2-1.3.3-.6.4-.5h.5l.6-.4.5-.8v-.3l.4-.5v-.4c-.1 0 0-.3 0-.3v-1.2c-.1 0 .1-.5.1-.5h.3l1.1.7.5-.3 1 .2h.5c0-.1.7.6.7.6l.6.2.2.4v.6l.1.1.3-.4.2.2.5-.2-.6-1 .6-.2.2.3v.4c-.1 0 .2.4.2.4h.3l.2.8h.7v.4l.8.3h.6v.9l-1.5 1.8-1.1 2.2h.5l.3-.7h.4l.4-.6.8-.3v-.7l-.1-.1.7-1.1.6-.2v.4l.6-1-.3-1 .4-1.2h.3c0-.1.2.1.2.1h.4l.3-.3 1.1.2.2.4.9.3.4.2.4.3v1l.1.3.3-.6.5-.2v.4l-.4.3v.9c-.1 0-.8.2-.8.2l-.6.7h.1l.2.3.2-.4v-.2c-.1 0 .1-.2.1-.2h.5l.5-.4h.2l.8-1.4.6-.2.2.2.5-.3.9.3.2.4h.3l.3-.1v-.3l.4-.2.3-.6h.3l.6.5.3-.4.4-.8h.4c0 .1.1-.2.1-.2h.2l.3.2.5.2h.4c0-.1.6-.5.6-.5v-.9h.6l.2-.4.3 1.5h.9l.3-.2h.6l1.1.3.8.3 1.6-.5h.7c0-.1.6-.3.6-.3l.7-.8.9-.6.4-.4.4-.3v.3h.5l2.5-.4-.3.7.7.5 1.1-.6h1.3v.4h.9l.7.3.5-1-1.6-1.2v-.9c.1 0 .8-.8.8-.8Zm6.8-1.2.4.6v.7h-.7l-.2.3v-.4c-.1 0 .3-.6.3-.6v-.6zm1.2-7.7v.4h-.3l-.5.5v.2l.7-.2v.9l-.7-.3v.3h-.7l-.3-.2-.2-.6.2-.3.6-.5 1.3-.4Zm-2.6-.3.5.7-.3.5h-.3l-.3-.6.3-.6Zm-4.8-3.8.8.3.4.7v.3l.7.2 1.9 1.3v.9l.5.4-.5.6.6.2-.2.5.9.3-.8.4-.2.4h-.2c0-.1-.9.2-.9.2l-.2.6h.5c0 .1.7-.7.7-.7h1.1l.4-.3.4.3-.4.7.6-.2v.2l-1.5.5-.9-.3v.3l-.3.2-.5-.5-1 .3h-.2c0-.1-.9-1.9-.9-1.9l.2-.2-1.1-1-.3-1.5-1.4-.3v-.8h.2v-.7l.6-1h.6l.6-.5Zm1.2-.4.7.4.2-.2.2.7-.5.2-.6-.3zm13.1-7.3v.9l-.5 1.1.5.9-.5.5h-.3l-.3-.3-.3-.3h-.6c0-.1-.4 0-.4 0l-.1-.3-.4.4h-.5c0-.1.8-2.5.8-2.5l.4.8.8.2.5-.4v-.7h.5l.4-.4Zm-4.2-.2v.5c.1 0 .4.1.4.1l-.2.3h-.5v-.4h-.5v-.3zm.1-1.8h.2v.5l-.4.4-1.3-.2 1.3-.7Zm-6.7-1.3h.7l.5.6h.4l.4.4 1.3.7.6-.2v.5l.6.1v.3c.1 0 .2.2.2.2l-.4.2.4.2.5.7h.4l.3.5v.9l-.3.5v.3h-.2l-.4-.5h-.5l.2.6-.3.3v.4h-.5l-.2.3h-.2v.4h-.4l.2.3.4.2h.8l.5-.6h.8l1 .7v.5h.3l.3-.3v-.8l.4-.5v.5l.4-.2h.5l-.1.4-.3.5h.4l-.6.5.2.4-.2.4.2.2h.5l.1-.3.5-.3.2-.6.8.2.6-.6.3.7v.8l-.3-.2h-.5c0 .1-.6.7-.6.7l.4.3v.6l.1.2-.2.4.7-.2v.3l.1.2v-.2l.2-.8-.4-.3 2.5-1.4v1.7h-.3c0 .1.1 1 .1 1h-.4l-.5-.2-.4.5h-.6l-.5.9-.5.4v.5l-.3.2-.2-.2v-.3c.1 0-.4-.6-.4-.6l-.7-.4-.3.2v1.1h.4v.9c-.1 0 .7.1.7.1l-.5.5-.3.5v.5l-.2.3-.3.4v.4h-.3l-.2.3.3.4-.2.6-.3.3.8.7-.4.7h.2c0 .1-.2.3-.2.3l-1 .2v-.6c-.1 0-.4.2-.4.2v-.4l-.4-.4v-.3h.3v-1.2h-.4l-.7-1 .3-.4.4.4h.3v-.3l-.5-.7-.6.4h-.3c0-.1.5-.8.5-.8l.7.2v-.2l.7-.2v.5c.1 0 .5-.5.5-.5h.9c0-.1.2-.3.2-.3h-.8l-.8-.3v-.2l-.4.2-.2-.2.8-.4h.5l.6.2-.3-1.1.2-.6-.5-.3v-.4l-.9-1.9v-1l-.3-.1-.3.5-.9.6-.9.2-.2-.2v.6c-.1 0-.6-.2-.6-.2h-.4l-.2.4.2.2-.4.2-.7-.2h-.4c0 .1-.2.4-.2.4h-.3c0 .1-.8-.7-.8-.7l-.5-1 .2-1.1-.5-.3v-.5l-.3 1h-.6v.4l-.3.3-.8-.2-.2-.4-.6-.2.2-.4-.4-1.3.3-.5v-1.1h.2l.2-.4-.2-.6.5-.3-.4-.3v-.8l-.1-.3v-.4c.1 0 0-.6 0-.6l1-1.3-.6-.3h1.3l1.8-.9Zm15.3-.5.5.5h-.3c0 .1.1.3.1.3l.6.3.4-.3.2.2v.2h-.9v.5l.2.5 1.1-.2.3-.3.2.2-.4.5v.7c.1 0 .7.3.7.3l-.4.7h-.2c0-.1-.5-.2-.5-.2l-.2.5-.3-.2-.3.4h-.2v-1.4l-.7-.5-.6.3.3.7v.6h-.9l-.2-.2.5-1.6.5-.2h.6c0 .1.2-.3.2-.3v-.3l-1.4-1.4h.5l.7-.5Zm-7.6-.4.5.4-.4 2-.5-.8-.2-.8v-.6c.1 0 .6-.2.6-.2m-3.9-1.5.2.3h.4v.6l.5.3h.9l.7-.5v.3h.4v.3l-.2.2-.2-.2-.3.6.4 1.3-.9.4h-1.1l-1.4-.9-.7-1.4 1.2-1.3Zm8.6-2.3.6.7-.2.3-.6-.2v-.4l.2-.2Zm-.5-.2v.3c.1 0 0 .6 0 .6l.8.4-.8 1.6.2 1.6.4.2v.6h-.4c0-.1-.2 0-.2 0l-.2-.2-.4.4v-1.2c-.1 0-.7-.7-.7-.7h-.2v-1.1c.1 0 .2.4.2.4l.4.2.6-.3v-.8l-.3-.3.2-.7-.2-.4.8-.8Zm5.2-2.8.5.2.3-.2v.2l-.2.6-.5.2v.6c.1 0 0 .2 0 .2l.5.2V88h.4l.5-.5.2-.5.9.2v-.8l.7-.5h.2c0 .1-.2.6-.2.6l.2.8.5.3h.5v.1h-.9l-.4.3-.3-.5-1.1.3-1 1.8v.4l.3.1v.5l-.5-.5h-.1c0-.1-.9-.3-.9-.3l-.2.9-.3-.3.2-.7-.7.6-.3-.4h-.6l-.1.8-.3.4v.2c.1 0-.3.1-.3.1v.8c-.1 0-.5-.4-.5-.4v.6h-.2l-.2-.6v-1.2h.5v-.4c.1 0 .6-.7.6-.7l1-.9h.5c0-.1-.3-.5-.3-.5h.5l-.6-.7-.2-1.3h.2l.2.9.3-.4.4.2.6-.5v-.2ZM292 83.6l.4.5-.4.3v.9l-.6.2-.2.3h.7v.4h.5c0-.1.6 0 .6 0l.4.2.2.7.4.2v1l.3-.2h.4c0 .1.5 1.1.5 1.1v.2l-.6-.3-.6 1.2-.2-.4.3-.3v-.7l-.2-.1-.2-.2-.6-.8h-.3v-.4h-.4l-.3.3.3.4-.8.2-.2.5-.3-.5-.8-.6.2-.4v-1c-.1 0-1.1-.7-1.1-.7l-.3-.5v-.2l1 .5.2-.3h.5c0 .1.3-.3.3-.3h.3l.1-.9zm2-1.3.3.7v.5l-.1.3-.4.2.3.5v.5l-.2.5-.3-.3-.2.4-.2-1.4.4-.6.2-1.1.3-.2Zm12.7-.4.4.7-.3-.2-.6.2-.2.6.4.6h-.3l-.4.4-.2-.5h-.5l.5-1v-.5l.6-.3v.3h.3l.3-.4Zm20.2-8.1v.2c.1 0-.1.5-.1.5h.4v.4h-.4l.2.5-.4-.2v.7h-.8v-.5h.1l.2-.2-.2-.3v-.5l.2-.2v-.4h.6l.3-.2Zm10.8-23.3.8.6v.2l-.4.2h-.2v-.6h-.3zm-2.9-4.6v.6l-.4 1.1v.4l-.5.9v-.4l.2-.7V47l.5-.9h.3Zm-.4-1.1.2.7-.6 1.3v.8l-.2.5h-.2v.4l-.5.4-.2-.4h.3l.3-.5v-.5c-.1 0 .1-.3.1-.3l-.2-.2.3-.5V46l-.2-.4.3-.2.4.3V45Zm1-.7-.3 1.3-.6.4.3-.5v-1zm-20.6-1.3.3.2.2-.2.3.9-.3.3v.3c.1 0-.1.8-.1.8l-.3.2v-.4c-.1 0-.6-.2-.6-.2l-.2-.5-.6-.2.2-.7 1-.6Zm26.8.1v.2h.8v.6h-.1v.3l-.3-.1-.3-.7h-.3v-.3zm-1.1-1.7.3.8-.2.6v.2c.1 0 .5-.2.5-.2l.2-.5v.2c.1 0 0 1.3 0 1.3l-.4.6v1.4l-1.4-.9v-.9c-.1 0 .1-.1.1-.1v-.4l-.8-1.2v-.4h.3v-.2c.1 0 .4.3.4.3v-.2c.1 0 .5.2.5.2l.2.4h.3l-.3-.7h.3Zm-13-1.1.5.4v.5l-.5-.1v.2l-.5-.4v-.4c.1 0 .5-.1.5-.1Zm2.8-6.8v.5l.3-.2.6.4h-.4c0 .1-.2.5-.2.5h-.2l-.1.4-.2-.5-.2-.3zm2.3-.1.3.5-.5.7-.3-.3v-.3h.4l-.2-.3.4-.2ZM324 33l.2.3.3-.2h.2c0 .1.2.1.2.1h.3l.1.5-.3.2h.3v.4h-.3l-.3.3h-.4l-.2-.2.3-.3-.2-.2-.4.5-.2-.3h.1l-.5-.6.3-.2V33h.2Zm7.5-2.3.4.5.9.3v.4l-.3.9-1 .3-.5-.2-.3-.4v-.6l-.3-.4h.3l.2-.4.2-.3.6-.2Zm13.3.1v.2l.3.1-.7.5-.6 1.1-.7.6v.4l-.7.3-.5-.4h-.4v-.4l.6-.3-.2-.4.5-.8h.7l.4-.7.7.3.6-.6Zm4-2.2v.4l.2.3h-.6l-.6.5.3-.6.3-.5h.3Zm-6-9.9.2.2h.2c0-.1.2.2.2.2h-.3v.5l-.6-.2v.5l-.3-.3.4-.5v-.4h.3Zm3.2-.7.9.3.2.4v.8l.1.3.2-.2v.4l.3-.1.2-.6h.5v.4h.2l-.1.7-.4.3v.2h-.2v.3l-.3.5-.2-.4h-.2c0 .1-.3-.1-.3-.1l-.2-.5-.4.3-.3-.5-.3.2h-.5c0-.1-.1.2-.1.2l.5.2.4.7-.9.3-.4-.5-.8-2h-.2l.3-1.1.4.2.3-.2v.3l.3.2.8-.7Zm-1.1-2.5.9.4-.2.6v-.2c-.1 0-.4.1-.4.1V16l-.5-.3.2-.3Zm-3-2.4h.3l.3.2-.2.6.2.4v.9l.1.3v.3c-.1 0 .1.9.1.9l-.3.4v.5h.5l-.4.3v-.3c-.1 0-.9-.2-.9-.2l-.4-.4v-.4l-.5-.4.4 1.3.4.6h.4l.1.7-.2.6-.5.3-.6-.5-.4.2h.5c0 .1.1.4.1.4h.8v.6l.3-.2v.4h.4l-.2.3.2.5-.5.3.3.4v.3h-1v.3l.3.3-.2.2v.2c.1 0 .6-.1.6-.1l-.2.4v.3c.1 0 0 .5 0 .5h-.3v.4l.3.2-.4.4h-.3c0-.1-.4 0-.4 0l-.5-.5h-.5l-.1-.4-.2.4v.3c.1 0 .6.2.6.2v.7c-.1 0-1.1.8-1.1.8h-1.1l.2.4v.4l.3.3v.2l-.2.2.2.7-.6-.2h-.1c0 .1.1.4.1.4h.5v1.9c.1 0 .4-1.4.4-1.4h.5l-.2-.4.4-.4v-.5l.3.2.5-.6 1.1-.7-.2 1-.9 1.2-.8.4-.5 1h.4l.5-.6.6.4h.3v1.6h-.6l-.5.5-.3-.3h-1.5l.3.2.2 1.2.3-.8.5.8v-.3h.4l.3.4.6-.2v.2c.1 0-.2.6-.2.6l.3.3v.3c-.1 0-.9-.2-.9-.2l-1.1 1.1h.4l-.2.4h.2l.6.1h.2l.1.2.4-.2v.6c-.1 0-.7-.2-.7-.2v.2h-.5l-.3.7v.2c.1 0-.6.2-.6.2v-.7l.3-.4h-.7v-.3h-.2c0-.1-.2 0-.2 0v.6h.3v.4l-.3.4h-.4l-.2.4h.5l.4-.3.2.2-.9 1.6.4-.3.6-.9h.3l-.4.6.3.2-.4.2v.5l.9-.5v.8c-.1 0 .3-.1.3-.1l-.3.4v.5l-.3.2.2.5h.3l.3.5v.2c-.1 0-.4-.3-.4-.3h-.3c0 .1.1 1.1.1 1.1l-.4-.6v1.2l-.4-.5h-.4v.2l.3.3v.6c-.1 0-.8.3-.8.3l.4.5-.3.8h.3l-.1.5.3.3v.6c-.1 0 .4.4.4.4h.3v.4l-.2-.2h-.8l-.1.2h-.4l.3 1.3.6.9h-.3v1h-.2c0-.1-.2-1.2-.2-1.2h-.2l-.2.7-.5-.8-.2.4h-.4c0-.1.2.5.2.5h.4l-.2.7.3.5-.3.2.2.8-.3.2v.7h-.6l.6.7-.2.7v.4c.1 0-.2.2-.2.2v.5l.4-.1v.9l-.2.3-.5-1.2-.3.7-.2-.5.3-.6-.3-.7h-.6l-.2.7-.2-.5-.6.2-.3-1.3.7-.4-.2-.3v-.4h.3v-.6l.4.2v-.2h.4v-.3h-.2l.2-.8h-.8l.2-.3v-.3l.5.5-.4-1.4.4-.6v.2c.1 0 .4-.4.4-.4v-.3c-.1 0 .3-1 .3-1v-1.1l.6-2h.2v-1.9l-.2-.2-.2.3h-.5l.4-.8h-.3l.5-2.5-.3.2v.5l-.6 1.3-.2-.2.4-3.2-.9 1.3v-.8l-.3-.6-.2-.3v-.3h.4v-.3l-.7-.2-.4.3v.5h.5v.8l.4.4v1.1l-.3.2v-1c.1 0-.5.5-.5.5V40l-.3 1.6.2.4-.5.8-.4-.4-.2-.2h-.2v1.2l-.3.3-.2-.7h-.4l-.3-.1h-.3v-1.1l-.7.2-.3-.6v-.7c.1 0 .9-.2.9-.2h.3l-.1-.3v-.7l-.2-.2-.2-.3.2-.2-.5-.3v.7l.5.2-.2.6-.8.6v.4h-.2l-.2-.2.2-.9h-.4l-.5-.2-.5.2.4.3v.2l-.8.2v-.3l-.7-.4.4-.5h-.5c0 .1-.6-.3-.6-.3h-.3v-.6l-.3-.4.2-.5.2-.5h.2c0-.1-.3-.4-.3-.4h-.3v-.3l.4-.7h.5l.1-.3h.4c0 .1.1-.1.1-.1l.3.2h.7l.2.5h.2l.3.5v-.3l.7-.2.2.2v-.3l-.5-.1v-.2l1.3-.7h.2c0 .1.2.7.2.7h.5v-.3l.5-.4h.2c0-.1.3-.5.3-.5l.2.7.2-.3.6.3.2 1.4h.3v-1.7l-.2-.2.3-.2v-.5l.3-.4h.2l.2.5h.2l-.2-1.3h1v-.5l-1.1.2-.6-.2.4-.6v-.7c-.1 0-.5.2-.5.2l-.3.8-.7-.4v-.6c-.1 0-.3-.5-.3-.5l.2-.5h-.6l-.6-.1v-.4c.1 0-.1-.4-.1-.4l.2-.2v-.4l.7-.3H330v-1l.2-1.1-.8.8.2.3-.5.9-.4-.7.2-.4h.4c0-.1-.1-.5-.1-.5l-.5.3-.3-.2h-.2c0 .1-.4-.4-.4-.4l-.4.8-.4-.3-.3.3h-.3c0-.1-.3-.2-.3-.2h-.4v-.4l.3-.2.2-1 .6.2.2-.2.3-.3v-1.2h.2V23c.1 0 .7-.4.7-.4l.4.4v.9l1.8 1.4 1.4-.4h-1.5l-1.1-1.3v-.5l.6-.3v-.4l1-.7v-.4l-.3-.4.3-.7.4-.4v-.3l1.1.6.6-.2v-.3l.1-.7.4.3.5-.8h3.2c0 .1.7-1 .7-1v1.9h.5l.4.8h.3l-.5-.9-.4-.3v-1l.2-.1.3-1.7-.2-1.2.4-.8-.2-.4h.3l.2-.2h1.2l.5.5.2-.2h.2Zm3.9-6.4.3.6-.2 1.5.3-.4.3-1.4h.3v-.3l.4.5h.5v.3h.5l-.1.5h.6v.3h-.8l-.3.3.7.6v1l-1.2-.5-.3.2.4.4v.4l.8.6v.7c.1 0-2.1 2.3-2.1 2.3l.7.6.2-.3v.7h-.2l-.4.5v-.3c-.1 0-1.2-.2-1.2-.2V15h-.3l-.9 1.1v-.3h-.5v-.5h-.4l.2-.6h.2l-.5-1.3v-.2c.1 0 .6.4.6.4h.2v-.5h-.3c0-.1.2-.3.2-.3l-.2-.7.4-.3v-.5l.2-.2.2-1-.6-.5.8-1-.3-.2.3-.2h.4l.1-.4.3-.2V7c-.1 0 .5-.3.5-.3Z"/><path id="GB-SF" d="M378.6 402.9h.9v.3l.4-.5h2l.2-.3h.3c0 .1.3-.1.3-.1l1.6.3v-.2c.1 0 .7.1.7.1l.6-.5.4.4.9.2-1.2 1.4v.4l.5.3h1.1l.3.6.5-.3.2.2h.9c0-.1.8-.6.8-.6h.4l.3.4h.6l.4.2h.7c0-.1.9.7.9.7l1.6-.4h1.1l.3.3h.9l1.7.6h.3c0-.1.5.1.5.1l1.2-.7.7-.8h.9l.6-.8.4-.2v-.3c-.1 0 0-.3 0-.3l.7-.3.4-.4h.6v-.5l-.6-.2.2-.4.7.6.9-.7.7.4h.3l.2-.3.7.5.3-.7.5-.2.8.7h.4l.3-.4h.3c0 .1.6-.9.6-.9l-.3-.4h-.5c0 .1-.2-.5-.2-.5l-.4-.3.2-.3v-.2c-.1 0 0 0 0 0v-.2l.5-.2.2-.3h.3l.6.2.6.6h.4l.7 2.1-.9 1.4v2c-.1 0-1.1 2.1-1.1 2.1l-.4 1.5-.6.4-.5 1-.3 3.9-1.1 4.2-2.7 1.5-.8 1-.4 1-.9.7-.7 1-.6.3-.7 1v-.8l-.7-.4-.6.3-.4-.2-1 .3h-2.3l-1.3.2-.2-.3-.2.2h-.2l-.3-.5-.7.3-.5-.4h-.8v-.2h-.2v-.4l-.5.3-.5-.2h-.9c0 .1-.2.4-.2.4h-.4l-.3.2-.7-.3-.3.3-.9-.3v-.6l-.4-.1v-.5l-.6-.6v-.9l-.6.2h-.2l.2-.3-.4-.2v-.4h.5l-.3-.7.3-.2-.7-.7-.8.2h-.4c0-.1-.4.3-.4.3l-.3-.2-.9.5h-.5l-.2.5h-.8l-.2.2-.4-.7-.5-.4-.3.4-.4-.2-.9.3v-.7l-.9-1.1.4-1.9.4-.7v-1.3l-.6-.6-1.4-.7-1.8-.3v-1l.5-.3h1.8l.3-.4v-.2c-.1 0 .2-.6.2-.6l-.3-2.3-.6-2v-.8c.1 0 1.7-1 1.7-1Z"/><path id="GB-SM" d="M297.9 442.3h.3l.8.8.6-.3.3.5.4.3.2.7-.4.3h.3c0 .1-.2.7-.2.7l.2.3-.2.4v.2h.4l.7.3h.6l.3-.6.5.2.5-.8v-.4l.4.4.4-.2v.4l.3-.1.3.2 3.3-1h.5c0 .1.3.7.3.7l.5-.3.3.2.2.3-.3.4.2.3h-.4l.1 1.1-1.4 1h.5l.4.2h.3c0-.1-.1.3-.1.3l.7.4v.4l-.3.2.2.2v.5l.3-.2.3.3.2 1.5-1.4 3.2-.9 1.2v.3l-.4.2v.4l-.5.2v.8l1 .8-.6.4.5 1.1-.8.7-.5.8v.6h.7l.3.5-1.8.7-.3-.4h-.5c0 .1.1.5.1.5l-.3.4-.9-1-.3-.9h-.6l-.2-.2h-.3v.6l-.3.2h-.2l-.3-.3-.3.4-.3-.2-.2.2.2.6v.6l-.5.3.3.6h-.3c0 .1-.2.8-.2.8l.4.7-.2.4-1.2-.2-.5.4-.9.3v.3l-1.1-.1v.2h-.6l-.3.3-.5-.4-.5.6h-.4v-.1l-.9.2-.2-.2-1.1.4-.6.8-.4-.5v-.9c-.1 0-.8.2-.8.2l-.3-.3-.7.2v-.5l-.5-.4v-1.4l-1.9.3-.5.4-1.1-.8.4-.6.2-.9-2.3.2-1-.5-1-1.1h-1.2v-1.3c0-.1-.7-.2-.7-.2l-.4-.5-.9.3-.6-.4-.9.3v.5l-.4.5-1.9-.2v-.2h-.1l.5-1.7h-.5l-.1-.2h-.8v-.2l-1.1-.7h-.7l-1.2-1-1-.4-.8-1v-1.5c-.1 0 1.2.2 1.2.2l1.6-.4-.2-.4v-.5c.1 0 0-.5 0-.5l.3-.8 2.2.3.4.3.8-.3.3-.3h.9l1.2.3.8.6.3-.2 1.3 1.2h1.4c0 .1 1.9.1 1.9.1l2.1-.9 2.6-.5.8-.8.8-.5v-.2h-.7l-.5-.3v-.2l.9-1.1.4-1.4.2-.2 1-1.9v-.5l1.8-.5.7-1.2 2.2-2.3.7-.4h1l.1-.2Z"/><path id="GB-SP" d="m297.9 379.9.7-.5.6.4 1.1-.5.3.4h.4v.3h.3v.7l.3.3.6-.4.8.8.2-1.2.4.4h.4c0-.1.3.3.3.3l1.2-.5v-.7l.6-.1v-.3h.3v.6l-2 1.7-.3 1.4.6 1.2h.3l.3.3v-.3h.5v.3c.1 0 .5 1.8.5 1.8l-.3.3.4.2v1.5c.1 0 .8.6.8.6l.8 2.6.5.3.5 1h1v1.2l-1.3 1.8h-.3v.8h.5v2c-.1 0-.6 1.5-.6 1.5v2c.1 0-.2.6-.2.6v.6c.1 0 .8 1 .8 1v.3h-.5l-.7.4.4.4-.5-.2-.7.2v1.5l-1.4.4-1.6.8v.3l-.5.2h-.6c0-.1-.9.2-.9.2l-.7.9-.4.2-.3-.2.3-.8-.3-.3v-.3c.1 0-.2-.1-.2-.1l-.2-.4h-.4v-.3h-.2l-.4.7v.4h.1v.2l-.8.1-.3-.5h-.3l-.6-.4-.2-.3h.5l.4-.8-.3-.2h-1.3v-.7h-.4v-.5h-.3c0-.1-1-.3-1-.3l-.2.3h-.6c0 .1-.1.6-.1.6v-.2l-.6-.3v.5c-.1 0 .4.3.4.3h-.7l-.3.3v.5h-.4l-.5-.2-1.7.4-.5-.2-1.3-1.2-1.1-.5-.2-.5-.5-.4-1.1-.5-.3-.7v-.4h-.1l1-1.2h.4l1-.7.9-.3h2l-.2-.5v-.5h.8l.2-1.3-.4-.9h-.7c0 .1-.6.8-.6.8l-.7.2-.2.3.3.3-.5.3-.9.2v-.3l.6-.4-.6-1.3v-.5h.5l.8-.6v-.4l.4-.8h.3c0-.1-.6-.5-.6-.5l.8-.3.3-1.2h-.2v-.7h.3c0-.1.3-1.3.3-1.3h1.1v.3h.4v-.7h-.7l-.1-.2.2-.2-.8-.4.3-.3-.2-.4h-1.4l-.4-.4v-.8l-.5.1-.3.4-1-.4v-.2l.1-.2v-.2h-.3v-.6l.4-1-.3-.2.9-.9-.5-.3v-.6l.3-.2h.6l.1-1 .4-.5.5.2 1.1-.2.7-1.1h.7c0-.1.3-.2.3-.2l.7.6.5.3.6-.2.3-.3 1.3.4v.3l.7.8.3.8 1.2-1.2h.7v-1.4l-.3-.6.2-.4Z"/><path id="GB-SR" d="m353.6 444.4 1.6.8v.6l.2.3h1.7l.8.3.5.7.3 2.2 1.2.2.7-.4h.5l1.1 1.3h.8c0 .1.9.9.9.9l1.5.7h.5v-1.1l.5-.6v-.2l.3-.2.6.2 1.1 1.3h1.4l.3 1.5-.6 1.5.5 1.3-.2.6.2 1h-1.5c0 .1-6.5-.5-6.5-.5l-1.2.3-.7.5-2.3.7-2 .9-4.1.3H349v-.5h-.3.5v-.4l-.5-.2-.8-1.5h-.2c0-.1-.3.2-.3.2h-.4l.2-1.4-.6-1.2.7-1.2.4-.2v-1.2l.4-.3-.3-.4v-.4c.1 0-.8.1-.8.1v-1h.6l.2-.7.8.4 1.1-1.4 2-.9 1 .2-.2-.3.5-1.1v-.6l.8-.8Z"/><path id="GB-ST" d="M306.4 379.4h.5v-.5l1.5-1.5 1.4-.7 1.8-1.5 2-2.4 1.3-.2 2.4-1.2.8-.6.2-.6 1 .6h.9c0 .1 1.1 1.1 1.1 1.1l.4.8.5.3-.2 1.4.8 1.2v1.9l.3.2.5 1.6-.7 1.1-1.1.6-.2 1.3-.8 1.2v.8l2.6 1.5 2.8.4.5.4v.3l-.9 1.1v.8l-.2-.2h-.2v.5h-.3c0 .1-.4.9-.4.9v.4c.1 0-.2.6-.2.6l1.2.4v1l.5-.2.3.2h.9l.3.8-.6.7-.2 1.1v.3l-.3.3-.6 1.7-.6.7-1.8.7h-2.3l-1.4.5.2.2h-.1l.2.5-.6.3v1.3l-.6.8-.8.4v.4h-.5c0 .1-.1.8-.1.8h-.1l.1.3-.6.5h-.8l-.2.3h.3c0 .1.5.8.5.8v.4l-.3-.2-1-.6-1.3-.3-3.5.7-1.2-.4-.3-.4h-.2v-.4l-.7-1v-.6c-.1 0 .2-.6.2-.6v-2c-.1 0 .3-1.5.3-1.5v-1.8c.1 0 .1-.2.1-.2h-.5v-.8h.3l1.3-1.8v-1.1h-1l-.5-1-.5-.3-.8-2.6-.6-.6v-1.5c-.1 0-.5-.2-.5-.2l.3-.3-.4-1.8v-.3h-.6v.3l-.4-.3h-.3l-.6-1.1.3-1.4 2-1.7v-.6Z"/><path id="GB-SX" d="M369.8 457.1h.6c0 .1 1.6-.2 1.6-.2l.6.3-.3.2v.4l.5.3 1.4-.4.5.4h.8v-.2h1.3v.3l.3.3h.6l-.2.3v.6l.8-.2.3.3h.3v.4l.3.2h.2v.1l1.4.6v.6c-.1 0 0 .2 0 .2l1.7.4v.4c.1 0 .8.3.8.3l1.5-.6.3.2.6-.2.4.6.8.4v-.2h.8l1 .4v.6h.2l.8 1.2v.3l.4-.1.3-.5v.2h.4l.3.8-.4.5-1.1-.2h-.8l-1.2.6-1.5 1.6-.5.3-1.5.5-4.6 1-1.1.5-.6.4-.5.9-.8.5-1.1 1.5h-1.3c0-.1-1.4-1-1.4-1h-.4c0 .1-.5 0-.5 0l-1.4-1h-.4l.1.2-3.9-1.4v.5l-.5-.1v-.5l-.2-.1-3.2-.5-1.4.2-2.2.7-4.6.3-3.6.9-1.1.6-1.1 1.7-1.9-1.6-1.4-.6h-.5l-.4-1.8.5-1.8-.8-1.1.4-1.1.4-.3-.5-.8h.3c0-.1.6-2.1.6-2.1l.4-.3v-.8l1-.9.2-.9h.3c0-.1.3.2.3.2v-.3c.1 0 .6.1.6.1l.4-.6.7-.2v-.3h2.7l4.1-.3 2-.9 2.3-.7.7-.5 1.2-.3 6.5.6h1.5Z"/><path id="GB-WA" d="m283.7 365 .4.7.6.2 1.6 1.2.7.8.5.2 1.2 1.1.3.2.2-.2.2-.8h.6l2.2 1.8.5.7.2.5-.2.5-1.6.6v.2l.3.1.4.8 1.2.8h.3c0 .1.6-.3.6-.3l-.5 1.3.7.4v.5l.4.4v.3l-.2.4.3.3v.8h.3l.3.9.8.3h.3l.5-.2h.3l.1.3h.7l.2.2c0 .1-.2.6-.2.6l.3.6v1.3l-.8.1-1.2 1.2-.3-.8-.7-.8v-.3l-1.3-.4-.3.3-.6.2-.5-.3-.7-.6h-.3l-.7.2-.7 1.1-1.1.2-.5-.2-.4.5v1h-.7l-.3.2v.6l.5.3-.9.9.3.2-.4 1v.5h.2v.2h.1l-.2.2v.2l1.1.4.3-.4h.5v.6l.4.3h1.4l.2.4-.3.3.8.4-.2.2v.2h.8v.7h-.3v-.4h-1.1l-.3 1.2h-.3v.8h.2l-.3 1.2-.8.3.6.4h-.3c0 .1-.5.9-.5.9v.4l-.7.6h-.6v.5l.7 1.3-.6.4v.3l1-.2.5-.3-.3-.3.2-.3.7-.2.6-.7h.7c0-.1.4.8.4.8l-.2 1.3h-.7l-.1.4.2.4h-.3l-.1.1h-1.6l-.9.3-1 .7h-.4l-1 1.1v.4h.1l.3.7 1.1.5.5.4.2.5 1.1.5 1.3 1.2.5.2 1.7-.4.5.2-.3.8-.9.3v.9l-.3.5v.4l.2.1 1.4.3h-.4c0 .1-.3.4-.3.4l-.7-.2-.8.3-.3.3v.5l-.7.1v.8c-.1 0 0 0 0 0l-.8.5.2.8-.7.8.6.4.5-.3.2.3-.6.5-1.1.3v.2l-.2.2.9.4v.6l-.4.2v1l.8 1.1v.4c.1 0-.2.8-.2.8l.8 1.6 1.4 1.6v.7c.1 0 .4.2.4.2l.6-.2.2 1 2-.9v-.3h.4l.8.5-.5.3h.5l.2.4h.4l.5.7.9.4-.2.6.9 1.1h.1l.4-.4.2.4.4-.2v.4h.8l.4.4h-.3v.6l-.5.4.2.3-.3 1.1.4.6-.2.7-.4.2.5 1v.2h-.4l.4.3v.5c-.1 0 .3.3.3.3l-.7.3v.2l.2.1.3-.2-.4.6h.3v.6l.3.5-.2 1.2-.9.5-.3.5h-.3l-.5 1.2-.9.6-.4.2-.4-.3-1.7.5h-.5c0-.1.3-.5.3-.5h-.2c0-.1-.3-.2-.3-.2l-.8-.2-1.3.2-3.1 1.7-.9.9-.2.6-.6.4v1.5c-.1 0-1 .4-1 .4l-.6-.3-1.4.7-.8-.3-.9.5h-.6c0-.1-1.1 0-1.1 0l-.4-.3-3.6-.6-.9-1.4-1.1-.9-.5-.7h-1.3l-.4-.1-1-1.4-.7-2.1-.8-.5v-.5c.1 0-.9-.9-.9-.9l-.5.2v-.2h-.4v-.2l-.7.3-.7-.2-.5.2-.6 1.3.4.3h-1.4c0 .1-.3 0-.3 0l-.7.5-1.6-.5-.7.4.2.6-.2.2-1.1-.3h-.3v.5h-.2l-1.8-1.1h-.6c0 .1-.1 0-.1 0l.4-.5v-.7l-.5-.8 1.3-.9.2-.9.6-.3h-.5v-.3l1-.3-.3-.2h-.6c0 .1-1.1.9-1.1.9l-.2-.2h-.7l-1.4-1.4-.3-.2-.7-.2h-.6v-.6l1-.5h-.2c0-.1-.1-.6-.1-.6l-1.2.9h-.6l-2.1-.5-2.8.4-.5.6v.3l.4.3-.5.5v.4l.1.2-.5.5v.3h-1.1v.4h-.4l-.3.4-1.3-.5h-.7v.4l-.9.4-.2.4.2.3h-.4l-.3.6h-.6l-1-.7-.5.2-1.3-.5v-.3l.2-.3v-.2l-.4-1-.9-.2-.2-.2h-.1l-.2-.4.6-.4h.6c0 .1.1.5.1.5h.4l.2-.6h.6l1.2.2v.2c-.1 0 .2.1.2.1v-.6l.4-.2.6-.2.5.2.3-.3h.4l.1-.4v-.7l-.4-.4.3-1.2-.2.2-.5-.2.5.4-.2.8.3.4v.8h-.4l-.3.3h-.4c0-.1-1.3.2-1.3.2l-1.3-.5h-.7c0 .1-.6.2-.6.2l-.3-.6-.4.4-.3-.2-.2.2h-.7c0-.1-.1.2-.1.2l.3.2v.6h-.3l-.2.3-.3-.4v-.8h-.3l-.3-.4h-.6c0 .1.1 0 .1 0l-.6-.6 1.1.2.2-.9h.4l.7-.7h1.2l.2-1.5-.6-1.9-.3-.4h-1.1v-.1h-.8l-.2-.3h-.7v.2h-.4c0-.1-.8.4-.8.4v-.3l-.6.1.3-.6-.2-.4.4-.4v-.4h-.4l.2-.3.5-.3h.8l.6-.6h.7v-.4h.3c0-.1.1-.5.1-.5h1.1l.4-.6.3.2h.5l.2-.5h.3v-.4l.2-.2-.4-.4.6-.4-.4-.4.5-.5v-.2l1.2.2v.2c.1 0 .8-.2.8-.2v.4h.2l-.3.4.2.2.4.2v-.2l1.3-.3.3-1 .4.2v.3l.2.1h.9l.3-.4-.2-.4.2-.5 1.2-.3.8-.8.4-.9-.2-.2.5-.6.6.4.4-.3v-.6l1.1-.2v-.2h1.6l.4-.3.5.4h.7l1.2-1.1 1.1-.7 1.3-1.6.3-.2.3.4.4-.3h.2c0 .1 1.6-1.3 1.6-1.3l.7-.2.8-.6.9-1.2.8-1.1.7-2.2.6-1v-.7l.2-.8v-.8l.7-1.2-.2-2-.3-.4-.5-1.4-1-1.7.9-2.5 1-.8v-1.4c-.1 0-.5-.9-.5-.9l-1.9-2.7v-.4l.6-.5.2-.9-1.1-2.2-.9-.7-.7-.2-.9.4h-1.3l-.3.2v.5h-1.8v.5l-1.3.3-.7.6v.5l-.6.5-.2.8.4.6v.5h-.8l-.3.6-.4-.4v-.5c.1 0-.8-.7-.8-.7l-.8-.3-1 1-.6-.2-.6.5-.3-.3h-.5l-.4.8-.6-.3-.3-.4.4-.3v-.5l.8-.9v-.8l.7-.3v-.6c.1 0 .7-.2.7-.2l.5-1.1h.4l.4-.8h.5c0-.1.6-.6.6-.6h1.3l1-1.1h.3l.9-1.4h.7l1.4-1.5.3-.6v-1.3c.1 0-.1-1.3-.1-1.3v-.3l1.7-1 1-1.3.8-.5v-.9c.1 0 .5-.4.5-.4l.9-.3.7-.7.7-.3.4-.6.6-.9 2.4.7 1.3-.5.9-.8.5-.9v-.6l-.3-.3.3-.4.9.2.4.6 1-.2.4.4.7.2.3.7 1.5.3h1.6l1.6-.7 1.3-1.1 1.1-.4 2.7-.8h1.2c0 .1.5.6.5.6l.1.7Z"/><path id="GB-WL" d="m328.2 448.5-.7.5v2.3l-2.4 1.2-.7 1-.9.7-.2 1 .3 2.2 1 .6.5 1.2.2 1.6v2.5l-.2.9h-.7c0 .1-.4-.3-.4-.3h-.9l-1.2-.6-.4.2-.5-1-.5.2-.5.8v-.9l-.3.3h-1.1l-.6.7-.2-.3h-.2l-.5.2-.2.4h-1.1c0 .1-.6.5-.6.5l-.3.5-.9.3-.5-.7v-.7l-.7-.3-.6-.6v-.5c-.1 0-.4-.2-.4-.2v-.8c-.1 0-1.4-1.4-1.4-1.4h-.7c0 .1-.6-.2-.6-.2h-.9c0-.1-.9-.9-.9-.9v-.8l.4-.2v-.4l.3-.2v-.3l.9-1.2 1.4-3.2-.2-1.5-.3-.3-.4.2v-.5l-.1-.2.3-.2v-.4l-.7-.4v-.4c.1 0-.2.1-.2.1l-.4-.3h-.5l1.4-.9v-1h.3l-.2-.3.3-.4-.2-.3-.3-.2.2-1.2h-.3l.1-1.2h-.5l-.3-.4 1.9-1.2-.4-.4v-.4c.1 0 0-.6 0-.6l.2-.4h-.4c0-.1.1-.5.1-.5h.6v-.4l.9-.5v.3l.5.1.3-.3.7.4 1.4-2.1 1.6.2 1.4-.4v.2h.8l-.3-.9.5-.5.5.5.8.3h.3c0-.1-.6-1.3-.6-1.3h.1c0 .1.5-.1.5-.1l.6 1.1.9-.3-.2-.4.3-.5-.2-.7h.2l.6 1.5h.3l.6.2h.3v.3l.4.4-.4 1.9.3 1.6 1.7 1.1.4.9h.5l-.2 1.3 1.1 1.5v.4l-.6.8v.4l1.5 1.9.2.3Z"/><path id="GB-WO" d="m316.8 405.9.3.4 2.2-.3.6.3h-.3l.1.4-.5.5v1.8c.1 0 0 .5 0 .5l-.6.5h-.3v.6l-.6.5.3 1.6-.2.5-.6.6v1.2l1.2.9 1.4.2.9.6.5-.2.5.3.2.4-.5.9-.2-.3-.3.5-.4-.3-.2.3h-.5l.3.4v.4l.9.6v.3h.1l-.3.4v.7l-.7-.2-1.3-1.3-.5.6h-.4v-.3h-.8L316 421h-.3v.3h-.3l-.3-.4-.6.2-.7-.2-.7.7v-.2l-.3-.1.3-.9.6-.4-.4-.4-.7-.2-.5.3v.8l-.2.2.6.6v.3h-.4c0-.1-.1.2-.1.2l-.9-.2-.8 1.2-.8-.2-.5.2-.3-.4h-.4v-1.1l-.7-.4v-1.8l.3-.3v-1.1l-.4-.6v-1c-.1 0 .2-.2.2-.2l-.4-.8h-.5c0-.1-.4.2-.4.2h-.5l-.5-.9.3-.2v-.2l.2-.3v-.2c-.1 0 .2-.6.2-.6l.4-.2-.3-.5.5-.2-1-.5h-1.1c0 .1-.3-.2-.3-.2l.2-.6 1-.6-.6-.6h-.6l-.7.3.2.9h-.5l-.3.4-.2-.2-.4.2h-.7c0-.1 0 0 0 0l-1.4.3v-.7l.6-.8h.3l-.2-.4.7-.9.9-.3h.6c0 .1.4 0 .4 0v-.3l1.7-.8 1.4-.4v-1.5l.7-.2.5.2-.4-.4.7-.5h.6l.3.4 1.2.4 3.5-.7 1.3.3 1 .6.5.3Z"/><path id="GB-WR" d="m326.8 395.2.4 1-.2.9.3.9.6 1.2 1.1.8.2.7h.3c0 .1.2 1.1.2 1.1l.7 1.4.8.2.8-.7h.4l.6.2.4.5 1.1.4 1.5 3.5-.7 1.1v.7c-.1 0 0 .5 0 .5l.5.4.6 1.2h-.3l-.3.5h-.5c0-.1.3.3.3.3v.2l.3.3.2.8-1.5.3-.5.7-.4 1.6h-.4l-.4.2h-.7l-.7 1.5h-.7v-.6l-.6-.3-.6 1.2-1 .8-.6 2.1-.2 1.9h-.6c0-.1.2.2.2.2h-.3l-.8.5h-.5v-.2h-.3l-.2-.6v-.4h.1l-.2-.3 1.4-1.7-.2-.2-1 .3-.2-.2-.6-.2.2-.5-.4-.3v-.5h-.1v.3l-.5-.3v-1.1l-.2.4h-.2l-.6-.9-.7.5-.2-.4-.5-.3-.5.2-.9-.6-1.4-.2-1.1-.9v-1.2l.6-.6.2-.5-.3-1.6.6-.5v-.6h.2l.6-.5.2-.5v-1.8c-.1 0 .4-.5.4-.5v-.3h.1l-.6-.3-2.2.3-.3-.4h-.2v-.5l-.5-.7h-.3c0-.1.2-.3.2-.3h.8l.6-.5v-.2c-.1 0 0 0 0 0v-.7c.1 0 .5-.1.5-.1v-.4l.9-.4.6-.8v-1.3l.5-.3-.2-.4h.1l-.2-.3 1.4-.5h2.3l1.8-.6.6-.7.6-1.7.3-.3v.3Z"/><path id="GB-YK" d="M339 307.3v.2l1 .7h.7c0 .1.3 0 .3 0h-.2l.3.3h.4-.4.3-.2l.3.4 1.4.8.5.2.3-.2h.6l.8.8h1.1l1.2.6h.7c0-.1.4.5.4.5l.4.2v.6c.1 0 1.1-.2 1.1-.2l.4.6h.4l.4.9 1.9.5v.3h.4l.4.8.9.8-.3.6.2.7.5.4h.3c0-.1.7.8.7.8l.8 2.2h.2l.2.4v.9l.3.3v.4l.5.3-.2.7.7.8v.4l.4.3h.3l.5.2.2.4 1.5.6h-.5l-.2.6.3.8.6.7.7.4 1.4.4 2.2 1.3v.5l-2.1.5-.6.8h-.2l-.4 1.2v2l1.7 5.1 3 4.7 3.8 5.2.3.7.5 2.2-1 1.2.3-.9-.3-.3-.2.2v-.3l-.2.3-.5-.5v-.3.2l-1.8-.8-2.6-.2h-.3c0-.1.2 0 .2 0l-.5-.5.4.4h-.3l-2.3-2.4-1.1-1.8h-.1c0 .1-.5-.1-.5-.1h-.6l-2.3 1h-.3l-.1-.4h-.5c0 .1-.5.3-.5.3v.3h-.8c0 .1-.9.6-.9.6h-.9l-.9-.5-.6-.7h-.6c0-.1-1.9.9-1.9.9l-1.6 1.8-.7.4-1.5.4-.3 1.2-1.1 1.3v.6h.2l-.3.8.2.5v.2c-.1 0-1.4.2-1.4.2v.6l.4.1v.4l-.5.8-.8.6v.4l-.3 1.1-.4.2-.2.6-1.3.5-.6.5-.4 1-.6 3.6-.4 1.1h-.7l-2.9-1.4-.6-.2-.8.2-.2-.4-.7-.3h-1l-1.4.9-1.8.2-2.1-.6v-.8l-.3.2v-.2c-.1 0 .3-.6.3-.6v-.5h-.8l-.8-1.5-1.2-.9h-.4v-1.5l-1.1-.8-.7-1.6-1.7-1.1.2-.9-.6.3-.4-.2v-.6l-.9-.4v-.5c-.1 0-.9-.6-.9-.6l-.8-1.3h-.4l-.2-.8-.3-.2v-.8c.1 0-.3-.5-.3-.5v-.5l-.8.2v.3h-.9l-.4-.6-.2.3v-.6l-.5-.3-.3-1 .4-.5h.3l.4-.7v-1.2c-.1 0 .2-.3.2-.3v-.5l2-1.3v-.9l-.9-.9h-.2l.2-.2-.6-.7-.3-1.1-.5-.5h-.8l-.2-.5h-.3v-.4l-.4-1-.8.4-.2-.4.3-.3-.2-.2-1.7.3-.6-.8-.5.2-.3-.2v-.7h.3l-.1-.3h-.4l-.1-1-.3-.4-1.3.5h-.9c0-.1-.3-.6-.3-.6l.2-1.1-1.2-.9h-.4v-.3h-.3l-.2-.7-.5-.2v-1.3l.8-.2v-.5c.1 0 1.4-1.4 1.4-1.4l.5-1.1h1.4l.2-.6h.6v-.4h.3l.4.5.6-.2.3-1.3-.3-.4.2-.3-.2-1.1.3-.6-1.5-1.4.6-.2.7-.7h.5l.1-.7-.4-.3v-1l.4-.5v-.3h.5v-.3l.6-.2h1.6c0 .1.3-.4.3-.4l.2.2h.3c0 .1 1.1-.2 1.1-.2l1.9-.9v.4l1.2.4.5.3.2.4h.7l2.2-1.3v-1l.5-.2.4.6.8.5.2-.7.3-.3v-1.1l1.1.2.3-.6 1 .4h.7v.4h.5v.3h-.2l.2.2.6-.3h.3v.4h.6c0-.1-.3.3-.3.3h.3v.3l.7.5.2.6h.6l-.3-.2v-.4h.4v.4l.6-.5-.2.5h.6l.2.6v.3c-.1 0 .2.2.2.2v-.2c.1 0 0-.3 0-.3l.2-.2-.3-.3.2-.3v-.7h-.1l-.3-.2.4-.2.6.7.3-1.4-.7-.6.2-.4v-.6c-.1 0 .8-.4.8-.4v-.5c-.1 0 .1-.8.1-.8l-.4-.4-.4.4-.3-.7 1-.3.6-.7v-.3l.2-.2 1.1.3v.2h.1l.2-.6h.3l.5.4v.3l1.1.2.6-.2.6.3.6-.4h.8c0 .1.3-.7.3-.7h.3Z"/><path id="IE" d="M125.3 442.7h.2l.1.8h-.1c0 .1-.9.8-.9.8v-.4l.3-.2-.3-.4h.3c0-.1.1-.4.1-.4l.2-.2Zm-12-6.3h1.1c0-.1.2.1.2.1h.3c0-.1.8-.4.8-.4l-.5.4v.2l-.5.1-.3.3h-.3c0-.1-.9.2-.9.2h-1.1l.3-.7.9-.3Zm-12.2-12 .4.2.3-.3v.4c.1 0 .9-.1.9-.1v.5l-1.7 1-.7.2-.3-.2-.9.5.5-1.3h.8c0-.1.7-.6.7-.6v-.4l.1.1Zm17.8-57.4v.4c.1 0 .3.5.3.5v1.4l-.6.2h-.4c0-.1-.5 0-.5 0l-.4-.8.4-.4h-.4l-.1-.5 1-.3v-.4h.7Zm-.5-1.1.5.3.4-.2.2.3-.6.4-.9.3-.4-.2v-.2c-.1 0-.2-.3-.2-.3l.2-.3.5-.3h.3Zm-9.9-31.2h.5l.3.6.4-.2h.7c0 .1.4-.6.4-.6l1.1 1.4v.3h-.7l.2.4-.2.4.2.4h1l-.3.4v.6l-.3.2v1.6l-.2 1.1h-.5l-.7-.6-.3-.4.2-.3-.5-.4v-.3l-.6.3h-.5v-1.7l.2-.2-.7-.6-1.2.5-.3-.6-.7.3-.9-.2v.4l-1.2-.8c0-.1.7 0 .7 0l.6-.7v-.8l.4.3h.6l.3.4h.8l.7-1 .4-.2Zm1.5-12.4.4.2v.5h.4l.3.7h.8l.3.4h.2l.5-.2v.6l-.4.7h-.3l-.2.2.3.2h-.9l-.4.2h-1.3l.3.4h-.6l.5.6v.9c-.1 0-.7-.5-.7-.5h-.4l.3.7v.4c-.1 0-.7-.1-.7-.1l-.3.3h-.5v.4l.9.4-.5.3.2.7h-.5c0-.1-.2.4-.2.4l.7.2v.4c.1 0-.1.4-.1.4h-.5l-.9-.3-.2-.5h.3v-1l.9-2-.2-.9.4-.5h.5l.2-.7-1.4-.7h.6v-1.2l.9-.4v-.3l.6.1.2-.5h.4l-.1-.4.3-.2Zm38-31.5.9.5v.4c-.1 0 .2.9.2.9h-.8l-.1.2v-.2H147v-.3h.2v-.5c-.1 0 .3-.3.3-.3l-.4-.6h.4l.1-.3.3.4Zm26.2-3.2h.6l.6.5.4 1h-1.1c0 .1-.3-.2-.3-.2h-.5c0-.1-.2-.7-.2-.7l.5-.5Zm3.9-13.3.6.2.2.3h1l.6.3h.7l.5.5h.8c0 .1.6.6.6.6l-.3.2.4.2-.2.4.5.4v.7l.6.2h.3c0-.1 1.4.8 1.4.8h.8l.1.2.7.2v.4c.1 0 1.5.1 1.5.1l.8.8v.4l-.8.7-1.8 1-.7.2-2.9 1.7-1.2 1.4-.2.6-1.2 1.7h-.4c0 .1-.3.7-.3.7l-.4-.3-.5.5-.7-.2-1.1 1.3-.3.6.3.5-.4.6.2.3v.9c-.1 0 .2.5.2.5l-1 .2-.3.3v1.7c-.1 0 .1 1 .1 1l-1 2.2-1.2.8-.5.8v1.4l.3.3-.2.4h-1.8l-.6-.3-1 .8-1.5.7-.3.4-1.4-.6-.4-.7h-.3l-.7.5-.6.9h-1l.2.6h.3l-.4.7.2.5.2.3 1 .4.2.9h.6c0-.1.4-.6.4-.6l1 1h.3c0-.1.5.1.5.1l.8-.6v.3c.1 0 0 .3 0 .3h.3c0 .1-.2.5-.2.5l-1.2.4-.4.5-.8.3v.4l-.9.7v.5c.1 0-.4.4-.4.4l-.2-.2h-2.5c0 .1-.4-.5-.4-.5l-.5.2h-.5l-.9 1.7v.8h-1.1l-1 .8h-1.4c0 .1.8.8.8.8l-.5.5 1.8 1.7.6 1.3.8.6h.9v.3l1.3 1.9h.7c0 .1.3.5.3.5l.2-.3h.3l.2.4h.6l-.3.3v.6l.3.5v2c.1 0 1.2.6 1.2.6l.2-.2 1.4-.2.4.4 1.3-.2.3 1.1.4-.2.8.7.2.8.5.4h.6l.3.6.5.3.4-.6 1.3.4.3-.8.6-.4h1l-.5.5v.2c.1 0 1.4-.1 1.4-.1l-.5.5v.3l.8-.4.4.8.6-.4.2.4.2-.4-.3-.6h-.2l-.3-.3.8-1 .4-.2.3.2v.6c-.1 0-.5.3-.5.3l.4.4-.6.3.2.4h.5v-.3l.4-.3v-.4l.2-.6.4-.4-.3-.4v-.7l.5-.2-.4-.3h.5v-.4l.6-.2.3-.4.5.3.6-.2v-.7l-.2-.3.4-.4-.5-.9h-.4l.1-.5-.9-.4v-.6c.1 0 .4-.2.4-.2h.3l.1-.5-.2-.7.8.2.9-.8h.5l-.2-.6.6-.5.8-1.4.7-.4.5.3v.3c.1 0 .5-.1.5-.1l.6.4.9 1h.2l.3.3v.8c.1 0 .6.1.6.1l.7 1.7v.8l-.2.2v.3l-.2-.2v.3l.6.7h.3l.3.1.3 1.6h.3v.4l.7.6h.5l.4.7h.5l.2-.5.6-.2.2.3h.6c0 .1.4.8.4.8l.4.8v.4l-.5 1.1h-.3l.5 1.1h-.4v.9l-.2.3v.3h.5l.6 1 .7-.3v-.4c.1 0 1 .2 1 .2l.7-.3.5.2.3-.4h.6c0-.1-.2-.4-.2-.4v-.3c.1 0 .7.2.7.2l.4.6.8-.2h.7c0 .1.2-.2.2-.2l.5-.2v-1.8h.6v.8c.1 0 .4.1.4.1l.6-.8h.3l.5.4.6 1 1.2.8.4.8.8.6.5-.3v.7l.7.8-.9.9h-1.5l-1.3-.3-1.8-1.1-.8.3.2.4-.6.6v.9l-.4.4v1.5l.3.9.9 1h.7l1.7.7-.3.5-.2 1.2v.8c.1 0 1.1.4 1.1.4l-.5.5-.5 2.3.3.5.3 2.4.5 1.4.6.6.6.5.5.9.9.2.4.7.4.4v.8c.1 0-.1.5-.1.5l.3.4-.9.4v.7l.3.1-.6.7-.3.4-.5-.3-.2.3h-1.2c0 .1 2.1 1.1 2.1 1.1l.2 1.8v.4h1.4l.4.5-.2.8h-.9l-.5-1h-.5c0-.1-.7.2-.7.2l-.9 1-.2.2v.3l.6.2v.2l-.9.1.2.8 1.3.8h.3l.4.2.6.3.3.5-.5.5.2 1.8.3.9.4.3v1.1l.9 1.9v1.1c.1 0 .2 1.1.2 1.1l-.4 1.6v1.5l.2.5.6.5h.3l.2.4-.4.5-.2 1.1-.4.4v.7l-.5.6-.2.8.2.3-1.1.7-1 1.8-.2.8v2c.1 0-1 1.4-1 1.4l-.8 1.9-.3.2v1.3l.5.7v.6l.4 1-.5 1.2-.5.5-2.3 3.8-.8.9-.4 1.2.3 1.5h-.5l-.3-.3h-1.3l-.7.6.4.6v.8l.9.4v.5h.4v-.6l.3-.3v1.1l.4 1.2.3.2h.6c0-.1.5.5.5.5l-.7 1.2-.2.6v.4c.1 0-.3.6-.3.6l-1.5-.5-2-.2-2.6.9-.4-.7-1-.7-1.6-.7-2.1.6-.2-.3.3-.7.8-.8-.2-.6-.4.8h-.7l-.4.7-.3.3v.3c.1 0 .3.2.3.2l-.5.8v.4c.1 0 .3.3.3.3h-.5l-.9.5-.6.6-.2.7-.5.3v-.4c-.1 0 .7-1.2.7-1.2v-.6l-.3-.7.2-.2-.5-.9h-.4c0-.1-.4-1-.4-1h-.4c0-.1-.2 1.2-.2 1.2v.3c.1 0-.2.8-.2.8l.3.4v.3l-.1.5-.4.3v.4l-1.1.6-.6-.3-1.3.5.6-1v-.3l-.5-.4h-.4l.2.6-.9-.2-.6.9h-.4c0 .1-.9.2-.9.2l-1.9-.4h-.8c0 .1-1 0-1 0l-.8.4h-1.2l-.5.2-.8.8h-.6l-.6.2-.4.9-1-.8-.8.7h-.3l.1.7h.6l.4.6h1.4c0-.1-1 .7-1 .7l-.3 1.8-.8.5-2.1.3-.7.8.3.3v.3h-.9l-.8-.5-1.1.6h-.3c0-.1-.3-.1-.3-.1l-.6.4-.5.8-.6.2v.5l.9.3.2.3-2.6.5-.9.4-.6.4v.2l.5.6c0 .1-1 .4-1 .4l-.4.3-1.8.2-.8.8h-.3v-.3h-.4l-1.5.1v-.6c.1 0-.3-.4-.3-.4l.4-.4.2-.4.5-.3.7-.2v-.2l.6-.4-2.4.2-1.3.6-.4-.3-.3.4.6.2h.5l-.3.5h-.4v.2l.8.2v.4l.5-.2v.4l-.2.4-.8.7.4.2-.3 1.4h-.5l-.3.7h-1l-.2.6h-.7l-.2.5h-.3c0 .1-.3-.1-.3-.1l-.6.7h-.4v-.6l-.3-.6-.2.3.2.4-.2.2h-.3l-.3.9-.5.6.6.6-.3.3.3.4v.2c-.1 0-.4-.2-.4-.2l-.4-.6v-.6l-.5-.2-2 .4-.6-.4-.5-.2-.3.5.7.2-.4.8v1.5l-.4.4-.8-.3v-.2c-.1 0-.4-.4-.4-.4l-.4.4-.7-.5h-1.6v.8l-.6.2v.8l-.2.2-.6.3-.4-.3-.4-.3-1.2-.6-.4.4-1 .3-.8.3-.7.3h-.3c0 .1-.3.5-.3.5l-.6.2-.5.2h-.4v.3h-.5l-.2.4v.4c.1 0-.3.3-.3.3h-.4l.3-.4v-.2c-.1 0-1 .5-1 .5v-.7c.1 0-.2.1-.2.1l-.3.3-.2.2-1.1.7-.5-.3-.4.2-.2-.2.8-.4v-.8c.1 0-.3.1-.3.1l.2.3-.4.3h-.2l-.2-.6-.5.2v-.2c-.1 0-.3-.1-.3-.1v-.3c-.1 0 .5-.5.5-.5l.3-1.3h-.8l-.8-.5v.5l.3.3h.3l-.5.8-.5-.2-.4.3-1 .4v-.7h-.3l-.2.8-1.1.2v.3l-1.2.3v-.5l-.3-.4v-.4l-.5.1v.3c.1 0-.2.2-.2.2l-1 .4.2 1.1-1 .3-.7.6v-.2l.3-.3-.5-.5-.5.9h-.6v-.5l.3-.4-.8-.4 1.1-.5 1.1-1.1.4-.2h.8l.9-.7.6-.3v-.5l1.6-1 .2-.5.9-.2.2-.2-.2-.3-.6.4h-.6l-.9.5h-.5c0-.1-.5.6-.5.6h-.3l-.6.1-.3.4h-.6l-.3.3-.5.2-.4.4h-.6l-.6.4h-.9l1.7-1.2-.2-.2.2-.2 1.7-.8.6-.6 2.7-1.2.5-.5 1.6-.4.6-.7h.6l.1-.4v-.3l.5-1.1h-.3c0-.1-.2-.3-.2-.3l-.7.6h-.5l-.2-.6h-.5v-.6l-.3-.4h-.4l.2.5-.2.3.2.4v.4c-.1 0-.7.4-.7.4l-.4.2-.9.8-1.3.4v-.3H117l-.2-.7-.3.3.3.4-.2.3h-.3c0-.1-.5.2-.5.2l-1.2.3-.2-.2-1 .3-.5.2-.6-.2-.3.7-.2.2v.4l-.3.3h-.7l-.1-.2-1.9 1.3-.4-.2H107c0-.1-.2-.3-.2-.3l-.7.3v-.5l-.4-.2v-.2l.4-.2.5.3.8-.5.3.2.7-.6-.2-.3v-.6h-.3l-.7-.3v-.2c-.1 0 .2-.4.2-.4h.4c0 .1.1-.1.1-.1l.5.3.6-.4.5.2.3-.5h.7l.2-.8.4-.4h-.3l-.6.2-.6-.2.8-.8 1.2-.2v-.2l1.2-.8v.2l-.3.8h.3l.9-.7-.3-.3.3-.5.3.3.3.4h1l-.2-.3-.8-.3v-.3c-.1 0 1.1-.5 1.1-.5v-.4l.8-.5.3-.6 2.3-.4.5-.6 1.6-.7.4-.5-.9.5h-.5l-.7.4-.6-.2-2.2 1-2.3 1v.4l-.6.3h-.2v-.4l-.5-.2-.6.5-.2.2h-1.1c0 .1-1.7 1.4-1.7 1.4l-.6-.2-.5.4v.3l-1.1.2v.3l-.6.2-.2.3-.3-.2.5-.6h-.6l-.2-.4-.3.2-.9-.6h-.6v-.2h.6l.5-.3.2-.8h-.2c0-.1.1-.9.1-.9l-.8-.8-1.1.2-.7.9v.5l-.4.3-.5.3-.9.5-.3-.6.5-.3v-.5c-.1 0 0-.4 0-.4l.2-.6v-.3c-.1 0-1.7.1-1.7.1l.3-.6-.2-.2-.2-.6v-.3h1.2l1-.5h.4l.7-.7.5.6v-.8l-.7-.4 1.3-.9h-.8l-.3.5-.3-.3v-.2h-1v-.2l1-.5.4.2.2-1.1.8-.2.3.3.2-.6.6-.4.7-.2.5-.5h.5l.5.1.9-.6h1l1.3-.6 1.2-.6h.4l-.5-.7 1-1 1.1-.3.5-.4h.4l.2-.2.7.2-.3-.6.2-.6-.2-.4-.3.5-.2-.3-3.9.8.5.4.2.7.3.2v.3c-.1 0-.6-.3-.6-.3l-.8-1.3-1.6.3-1.1.6h-.3c0-.1-.9.2-.9.2h-.4l-.9.5-.4-.6-.3.2h-.7l-.6-.9h-.4c0-.1-.7.4-.7.4l1.2.2v.4l-.6.1-.8-.2v-.3c-.1 0-1-.4-1-.4l-.4.5.8.5h-1l-1.7.5v-.4h-.7l.5-.5-.3-.4v-.6c.1 0 .2-.4.2-.4v-.4l.1-.4-.4-.2v-.2l1.6-1.1v1.1h.6l.4.4v-.6c.1 0-.2-.4-.2-.4l.6-.8-.5-.3.2-.6 1.5-.4.3-.6h.6l.4-.6.7-.2.4.2v-.4c.1 0 .9-.3.9-.3h.5c0 .1-.2 1.1-.2 1.1l.3.2-.8 1.3.6-.3h.5c0 .1.2-.2.2-.2l1.2-.2 1.3-1.4v-.5l-.6-.6h1.1v.2l-.2 1.4.6.7 1.1.8h.8l.7.1.9-.3.6-.6.3.2h.6l.6-.4.5.3.2-.3.3-.2-1-.7h-.9c0 .1-.9-.2-.9-.2h-.6l.3-.4h.5c0-.1.2-.5.2-.5h-.9c0 .1-.1 0-.1 0l.5-.4.4-1.1v-1.9l-.5-.4h-1.5c0-.1-.9-.8-.9-.8v-.5c.1 0 1-.4 1-.4l1.2.3 1-.3 1.5-.7 1-1 1-.3.3-1.3-.2-.4.3-.3v-.3l-.2-.4 1.2-1.1.4-.2 1.7.3h1l.6.5h.6l.4-.7h1.4l.2-.4.6.2v.4l1-.2.8.3 2.5-1.2 1.2-.3.2-.3h1l1.3-.9.2.6h.3l.2-.3h.5l.2.4.6-.4v-.5h.3l.3-.8 3.8-.6.5.7.3-.5.7-.2v-.2c-.1 0-2.6-.9-2.6-.9h-.6l-1.1.3v.3h-1v-.3c-.1 0 1-.7 1-.7l-.5-.9v-.6l-.3-.2.3-.6-.4-.3h-.4l-1.4.8v.2c-.1 0-.2.9-.2.9l-1 1.6h-.4c0 .1-.2.8-.2.8l-.7.5-.3.6-.6.6-2.7.4-.4.9h-.3c0 .1-1.1.2-1.1.2l-.2-.3v-.3l1.3-.9.3-.6h-.4v.4l-.6.3-3 .6-.4-.3h-1l-.7-.5h-.4l-.4-.4v-1l-.2-.2h-.3l-.4.3v.7h.4v.5l-.6.3-.3.3v.3l-.9-.1-.8.4h-.7l-.5 1.2-.7-.2-.2.4-1.5.6-.9-.3h-.5l-.2.4-.6.3-1.2-.2.5-.2.3-.5.4-.2.5-.4 1.5-.4.6-1.1 1.5-.8.3-.7.7-.3.5-.7h.8l-.3-.5.3-.6.8-.4-.5-.5h.2c0-.1.5-.2.5-.2v-.5l1.4-.3.7.3.8-.2.2-.5-.2-.4.5-.3-.3-1.4.9-.4v-.6l.7-.2v-.3l-.5-.2.2-.8.2-.7 1-.5.7-.9h.4c0-.1.1-.7.1-.7l-.4-.6-1 .4-1-.2-.7.3h-.2v-.5l1.1-1v-.8c.1 0 1.1-1 1.1-1l-.4-.4 1.1-1.4.2-.9 1.3-.9.6-1.1v-.5l.2-.5.5-.4 1.1.6 1 .4.7.4h.3l.4-.4 1-.4h.4l-.4-.3h-.8l-.4-.2.9-.4.8.2h.4c0-.1 1.2.6 1.2.6v-.4l-.9-.4v-.2c-.1 0 .5-.2.5-.2h.8l.6-.3v.4l-.6.2.9.3.6.3v-.8c-.1 0-.5-.3-.5-.3v-.8l1.4-1.2h-.3l-.4.3h-.5c0 .1-1.1 0-1.1 0l-.6-.2.4-.3.9-.8-.6-.3.4-.4h1c0-.1.2-.6.2-.6h-1.1v.3h-.6v-.4l-.6.2-1 .2-1.7.5-1.2.2h-1.4l-3 .3h-.8c0-.1-1 .2-1 .2h-1.3l-.4.3h-.7l-.8.2-.8-.7v-.6l-.3-.5.7-.6-.4-.6-.3.2-.2.3-.2.3.2.5-.3 1h-.1c0 .1-.6.2-.6.2l-.3-.3v-.5c-.1 0 .7-1.2.7-1.2v-.4c-.1 0-.3-.3-.3-.3v-.7l-.4-.4v-.3c.1 0 .9-.1.9-.1l.6.2.5-.9-.6-.3h-.3l-.2-.9-.2-.2v-.3l-.3.2.3.6v1.3l-1.2.2-.6-.4.4-.2.2-.2v-.3l.4-.3-.3-.5.2-.3v-.3l-.7.2-.2.5-.4.2-.4.4v.2l-.7 1.1-.4.2v.6l-1 .3-.5-.2h-.5c0-.1-.1-.2-.1-.2h-.4c0 .1-.3.2-.3.2l-.2.2-.6-.2-.2-.3-.4-.3-.3-.3.2-.6.3-.4.2-.4h-.2v-.5h.6l.8-.5h.3l.4-.3.6-.3h-.3v-.2l.4-.4-.7.2-.2-.2v-.2h.6v-.2h-.7l-.5.5h-.3c0 .1-.2.8-.2.8l-.4-.3v-.8c-.1 0-.4-.4-.4-.4l-.5.3v1.2l-.7.4-.3-.2h-.3c0 .1-.1 0-.1 0l-1.1.2-.5-.2-.2-1-.6-.3-.4-.5-.2.5h-.3l-.2.2-.4.4-.8-.9-.8.5.7-1.4.5-.6.9.3h.2c0 .1.4.5.4.5l.4-.9-.2-.2-.4-.4-.5-.3.4-.3v-.4h-.6l-.5-.3-.3-.3v-.5l-.3-.8h-.8c0 .1-.6 0-.6 0l.3-.2v-.2l.6-.3.4-.2.4.3h.3c0-.1-.1-.6-.1-.6v-.2h.7l.2.2h.5l.3.2.4-.2.8.2v.2l-.2.2.4.5h.6l.3-.2h.4c0-.1-.6-.4-.6-.4v-.3l-1.2-.5-.6-.7v-.7c-.1 0 .6.2.6.2l.6-.2.8.4h.8c0 .1.6 0 .6 0v-.2c.1 0 .3-.3.3-.3h.6l-.1-.5.3-.2-.2-.8-.9-.2v-.2l.1-.9-.3-.8.6-1.8v-.5c-.1 0-.3-.1-.3-.1v-.4l2.2-.3 1-.5h.3l.1.3h1.3l1.4-.6v.3h.5v-.3c.1 0 .7.2.7.2h.8v-.4c.1 0 1-.4 1-.4h-1.4l-.7-.5v-.3l.1-.4.2-.2v-.4c-.1 0 .3-.3.3-.3l.6-.5-.6-.2.5-.2c0-.1-.2-.3-.2-.3h.2l.8-.5-.6-.2-.3.2h-.2l-.3-.2-.3-.2h-2.6v-.1h-.6v.4l-1.1-.5-.2.3-.5.7-1.4.6-1 .2-.5-.4-.2-.3v-.5c.1 0 0-1 0-1l.4-.2.4-.7-.4-.5.2-.6.4.3.3-.3h1l.4.4h.4c0 .1.3 0 .3 0v-.4l.1-.6h-.4v.5l-.2.6-.3-.8h-.5v-1.1l-.2-.3-.6-.4v-.3l-.3-.3-.3-.9.4-.3v-.8c-.1 0-1 .4-1 .4l-.5-.2-.6.2v-.9c.1 0-.5-.9-.5-.9l1.3-.3.3-.5h.3c0 .1.2-.1.2-.1v-.4l-.3-.1-.2.4-.7-.7v-.5l.8.3.2-.3-.4-.2-.4-.5.4-.5.3-.5.2-.2h-.8c0-.1-.1 0-.1 0l-.9-.8v-.4c-.1 0 1.5.5 1.5.5l1.3-.3v-.3l-.4-.1.2-.2v-.5c.1 0 .4-1.2.4-1.2l1.3-.5.3.2v-.7l-.9-.3h-.6v-.8l.2-.3h.5l.7-.7h.7l.5.1.5.5.9.2.5.3.7.2.6-.5h1.6l.4.2v.3l1.1.2h.4c0-.1.1-.5.1-.5h.5l.7.5.6-.2h1v.6h.2l.9-1v-.4l.6.5 1.5.3.4.6v.8h.5l.3-.4.2.5-.4 1.3h.7v.7l-.4.3-.3.3 1.6.7v.4c-.1 0 .4.3.4.3l.2.3h.3v-.8l-.2-.4 1-.4v-.4l1-2.1v-.3c-.1 0 0-.6 0-.6h3.1l.6.4.5.6.7.4h.2c0-.1.8.4.8.4l.8-.4.8-.8h.2v.5l.7.2 1.1-.4h.5l1 1.1.6 1.1.5.7h.2v-.4h1.4c0-.1-.7-.5-.7-.5l-.7-.2v-.3l-.8-.9-.5.2.5-.9v-.4h.4v.3h.5l.6-.2h.7c0 .1.3-.1.3-.1l.4.2.3-.2-1.2-.9-1.3-.2v-1.3l.5.7.9.3.4-.2v-.5l-.8-.1-.2-.2-1.3-.3-.7.4-.8.2-.2-.5-.6-.3v-.5l.9-.4h.5l.2-.4 1.2-.5.5-.3 1.5-.9v-.4l.6-.5v-.4l-.4-.2.5-.4v-.4l.3-.1v.7l.6.1.8-.4 1.6-.3.6-.4h.8v-.4l.5-.2.2-.9-.3-.7 1.4-1-.3-.9v-.2h.4l1-1v-1.3l.4.1v.9h.4v-.8l.7-.5h-.4c0-.1.3-.9.3-.9l-.6.2-.8.3h-.5c0 .1-1.2 1.1-1.2 1.1l-1.6.8.2-.9.5-.6-.4-.5-1.4.7-.3.7-1 .9-1 .3-.3.3v.3l-.6.3.4-.6v-.3l1.2-.4.5-.6-.3-.7h-.1l-.7.5h-.4l.5-1.4h-.2l-.5.6.2.3v.3c-.1 0-.9.8-.9.8h-.3l.1-.5h-.2c0-.1.3-.5.3-.5v-.5l-1.5.8-1.1.3h-.2c0-.1-.9-.2-.9-.2l-.3-.2h-1.3c0 .1-.1-.2-.1-.2l.2-.2-.4-.4-2.1-.6v-.4l-.5.2.3-1.3h-.3l-.3-.2v-.4l.2-.2.4.2.5-.3h.4l.4-.1h-.4v-.7l.2-.3v-.2c-.1 0 .9-.2.9-.2v-.4l.4-.4h.4l.2-.4 1.9-.4 1.5.6.5-.2v.3h-.2.2c0 .1.4 0 .4 0l.7.3h1l-.9-.1v-.3c-.1 0-.5-.2-.5-.2h-1l-.6-.5v-.3l.8.2 1.1-.3v.4h.3l.2.5.7.3.2-.6h-.7c0-.1-.2-.7-.2-.7v-.2c-.1 0-.3-.3-.3-.3h-1.1v-.4l-.8-.3v-.4c.1 0-.9-.1-.9-.1l.6-.4.8.3.2-.2v-.4c-.1 0 .3-.4.3-.4l1.2.4.6-.5.4.2h.3c0 .1.4.2.4.2v-.5c.1 0-.1-1.2-.1-1.2h.5c0 .1.5-.2.5-.2l.8.4v-.3l.3-.3-.8-.2v-.7c-.1 0-.6.4-.6.4l-.4-.2.2.7-.3.2-.7-.6-.9-.3-.4-.3v-.5h.2v-.3l-.3-.3v-.4h.6v.4h.7l.6-.4.2.2.4-.4-1.3-.5v-.4c-.1 0-.8-.7-.8-.7l.2-.2-.4-.4v-.3l.8-.3v.3l.6.2-.2-.6.4-.5-.3-.4.2-.3h.2l.3.3.4-.4h.4l.2-.3-.2-.5.6-.4v-.4c.1 0 0-.4 0-.4l.3-.2v-.8l.5-.6v-.6c-.1 0 .2-.3.2-.3l-.2-.2.3-.4 1.4.4.3-.2.2.3h1.2l.4-.2v-.6h.5v.3c.1 0-.7.6-.7.6h-.3l.4.2-.2.6h.2l.2-.2.2.2v.3l.1-.2v-.8c-.1 0 .3.2.3.2v-.6c.1 0 0-.3 0-.3l1.4-.2.5-.5h.4c0 .1.3 0 .3 0l.2-.5-.2-.2.3-.3h-.3l.2-.8h.6c0-.1.3-.5.3-.5l.4.6h.6v.6c-.1 0-.5.3-.5.3h-.4l-.2.3.7-.2.7.4.5-.6.4.2v.5c-.1 0 .4.1.4.1l-.9.8 1-.6.5.2-.3.6-.7.2-.4.6.5-.3h.3v-.2l.3.4v.4h.3v-.5c-.1 0 .4-.5.4-.5l-.3-.2.4-.4.2-.6-.3-.7-.3.2-.6-.5.2-1.3.2.2.4-.2.4.3h.3v-.6h.4v-.6l.5.2v1l-.4.3v.6l-.3.3.4.5v.4h.2v-.3l.2.2v-.2h.5v-.3c.1 0 .4.3.4.3v.2l.3.2v-.4l.4.3.4.4.6 1.1-.6 2 .4-.3v.4l.3-.3v-.3c-.1 0 .6-2.1.6-2.1l-.4-.3v-.8l-.4.2v-.6l-.1.2-.3-.3v-.3l.5.2-.3-.9.2-.4-.2-.2-.4.4v.7h.3l-.2.3v.5l.4.2-.2.6-.9-.8v-.3l.2.1v-.3l-.3-.1-.6.3-.3-.6h-.3v-.5l1-1v-.2l.3-.3h.2l.3-.3.2.4h.6l.3-.4v-.4h.3l.6-.6h.6l-.1.2h.2c0 .1.6 1.7.6 1.7v.7c-.1 0-.6.6-.6.6l.6.8h.3l.5.3v.5l.8 1.2.5.2v.7c.1 0-.2.4-.2.4v.5c.1 0 0 .5 0 .5l-1.3.6-.3.4v.5l-.7.2-.4.5v.3l.4-.3h.4c0 .1.8-.3.8-.3h.3l.2.5v.4l-.6.7-1.5 1-.5 1.2-.6.4v.4l.2-.3.9-.3v-.3c.1 0 .5.3.5.3l.7-1.4 1.5-1.3.3.2.2-.2v-.7h.6l.3-.3.2.2h.5l.2-.4-.3-1.2-.6-.6v-.5l.6-.9v-.8h-.4l-.3-.8-.4-.2-.4-1-.9-.5.4-.3-.3-.2.3-1 .5-.4-.4-.4.5-.3v-.4c.1 0 .2-.3.2-.3l-.4-.5v-.2c.1 0 .6-.2.6-.2l.9.4v-.7c.1 0 .5.3.5.3v.3h.6c0 .1-.1-.2-.1-.2l.4-.2h.9l.2-1h.3c0-.1.7.1.7.1l.3.4h.3l.2.4-.2.2h-.9v.2h.8l.7.5.4-.3.2.2h.5l-.5-.6.4-.2h-.6l-1.4-.8v-.6c-.1 0-.6-.3-.6-.3V276h-.5l-.5-.7h-.2l.7-.3Z"/></g></svg>