<?xml version="1.0" encoding="UTF-8"?>
<svg id="Layer_1" xmlns="http://www.w3.org/2000/svg" xmlns:amcharts="http://amcharts.com/ammap" version="1.1" viewBox="0 0 512 512">
  <!-- Generator: Adobe Illustrator 29.1.0, SVG Export Plug-In . SVG Version: 2.1.0 Build 142)  -->
  <g id="_x3C_defs">
    <amcharts:ammap bottomLatitude="44.387017" leftLongitude="22.138115" projection="mercator" rightLongitude="40.216930" topLatitude="52.374337"/>
  </g>
  <g>
    <path id="UA-40" d="M321.5,405.7l3.6.8.3,1.2-1.7.6.8,1.3,2-.8,1.4.8-.9,3.2,2.6,1.6,2.4,5.3-1.3,1.7h0l-3.9.7-.9-1.3-1.5-.2-.9-2.4-3.5-.4-3-3.3,1.5-.8,4.3-.4-2.2-.7,1-1.6v-5.3Z"/>
    <path id="UA-43" d="M407,383.2l-1,1.6-3.6-.3-.2.9,1,.7-2.2,1.3.6.8-1,2.1,1.5,4.6-2.3,1.5-3.1.3-1,1-5.4-.9-5.4,1.8-1.8-2.7-2.3-1.5-2.9-.9-2.4.5-3.1,2.6v1c0,0,1.1.5,1.1.5l-1.8.9.7,1.6-3.4-.6-.6,1.8-2.1.8-.8,2.8-1.3,1.2-1.4-1.4-1.8-.4-2,.9-4.6.2-3.3,1.5-4.2,2.5-3,4.9v1.3s-1.2-.2-1.2-.2l-1.6,1.8-2.3.5-1.1,2.5-4.3,1.3-2.5-.5h0l1.3-1.7-2.4-5.3-2.6-1.6.9-3.2-1.4-.8-2,.8-.8-1.3,1.7-.6-.3-1.2-3.6-.8h0v-1.2c.1,0,1.6-1.1,1.6-1.1v-5c0,0-1.2-3.4-1.2-3.4l-3.1-3.5-1.7-.8-3.5,1.9-9.7-8.4h-4.1c0-.1-2.9,1.9-2.9,1.9l-4.3-1.3.5-1.1-.9-.8,3-3.3,5.6-3.2,1,.3.5-.9-.6-.5,2.4-2,6.3-3.1,1.1-2.1,1.6.9,3.1-1.3,2-2,.7.4,1-1.2,1.6.8,1.9-2.2,1.9,1.9v-2.6c0,0,2.1-.8,2.1-.8l-.4-.9-3.5.2v-4.2c0,0,.7-1.2.7-1.2l-.8-2.1h0l.6-.2-.6-3.5h.8c0-.1,4.1,4.2,4.1,4.2l1-1.2-.7-1.1h1c0,0,.6,1.4.6,1.4l-1.2,1.4,3.5,1.9,1.5-.3-1.8-.8.3-.5,2.1-.3,1.7,1.1.3,1.2,2.6,1.8-1.2,1.3-1.1-.5,1.4,1.7,1.9-.6-.9-2.7-.6.4-1.7-1.4.2-.8,2.9.9.7,2.1.8-2.2.3,1.9,1.1.6.4-1.1-.6-.5,1.1-.4,1.5,2.7,2.2,1.8v2c0,0,1.3-2,1.3-2l1.3.3-.8-2.8,2.3,1.5-.3,2.5-2,1-1.2,2.3h-1.4c0,0,.4.9.4.9l2-.4,3.1-2.9,2.6-1.1v1.3c.1,0-.5-.5-.5-.5l-1.7.9-.4,2.2,2.6-.9.8,1.2-3.1,2.8.6.6,5.1-1.8-1.6,1.3.4,1,1.1-.7.6,1.7,1.9-.7v.8c-.1,0,1.6,1,1.6,1l1.7,3.2.7,2.9-2.3,1.8,1.6,3.1,7.3,3-.5,1.2.6.9.5-1,2.3-.2v-1.4c0,0-1.2-.2-1.2-.2l-3.1-3.5-8.3-11.5-1.8-4.1h0l.5-.2h0l3.1,6,6.5,9,2.8,3,3.1,1.9,5.5-2,1.1-1.5-.3-.8,2.8-3.2.6.3-.8.7.6,1.1,2.9,2,2.3-.8.8-2.3,5.5-1.3,3.5,1.4,1.8-.4,2.1,1.3,1.2-.6,1.3,2Z"/>
    <path id="UA-71" d="M282,184.5l1.6,2.7,3.4,1,.2,1-1.4.3v1.2c.1,0,1.6,1.9,1.6,1.9l.6-.8.5.4.9,2.9,1.3.8-.3,2.4.6.7-1.7.6,2.1,3.3,1.5-.4.4,1.3,1.1.2.5,2.9,3.7,1.8-.3,2.3,1.6,1.2-.2,2.2-2,1.1-.7,2.6,2.4,3.6-5.5-1.2-.9-1.1-1.2,3.3,4,3.2,2.9-.2,1.3,1.1,2.6-.6h0l-2.7,3.6,3.7,1.8v.9s-2.1.9-2.1.9l.4,2.6,1.2.5-.7.8-3.1.7-1.6-.8v1.1c0,0-2.6.3-2.6.3l-1.2-.7.2,1.1h-.7s-1.3-4-1.3-4l-.8-.7-.6,1-1.1-.2-.9-2-1.8-.2-1.4,1.1-.4,3-.9-.5-.2,1-1.2.4.3,2.2-1.3.4-2-1.2-3.1,2.1v-1s-3.1-1.8-3.1-1.8l-1.6.9-1.3-.2-.4,1.4-1.8-.3-1.2.8v-1.1c0,0-.5,3.4-.5,3.4l-5,4.2h-1.4c0,0-.5-1.2-.5-1.2l-1.3.4-1.2-.9-2.8,1.7-4.6-1.8-1.9,1-2-1-.2.5-3-.4-1.6.7-.8,1.3h-.9s.9,1,.9,1l-.4,1.4-1.8,1.5,1.1.9-.2,1.6-4.4-.3-.4,1.9-3.7,1-.7.9-1.9-.9-1.4,2.2-1.8-1.2-2.2.4h0v-.7s1-.2,1-.2l-.3-1h.8s-.4-2.2-.4-2.2l-1.6-.9,1.3-1.6-3.6-2.8.7-1.4-.5-1.2-2.7-.9-.3-2.6-1.2-2,.5-.5-2.2-1.3,1.2-2.7-.3-.9-1.2.5-1-1.8.2-.5.4.6.6-1.8,1,.3-.2-1.1,1.4-.4-.8-4.3.8-.2h.6c0,.1-.8.9-.8.9l1.1,1.2,3.3-.3-.2-.6,2.2-2.3-.2-2.5,2.2-.8,1.3.4.9,2.2,1.1-2.7,1.5.3-.3,2.2,4.8.8.3.8,1.2-3.9,1.6-1.6,1.3,1.6,2.4-1.8,3.4,1.6,4.9-1.2.6-.9-.3-1.5,2.1-.3.9-2,.4.6v-.7c-.1,0,1.3-1.1,1.3-1.1l.5-2.5h1.1c0,0-.5-2.1-.5-2.1l2.3-3.7-.6-.3.4-3.2-.7-.6.5-2.7,4.6-2.1-1.1-1.6.3-.6-1.6-.3.4-1.4,3.8.4-.4,3.4,2.1,2.4,2.4-2.7h.6s.1,2.2.1,2.2l2.7.2,2.8-5h2c0,.1.4,1.1.4,1.1v-3.3s2.2-1,2.2-1l-2.1-.6v-1.9c0,0,1.8-1,1.8-1l-1-1.4.8.2.8-2.1,1.7.6,1.6-1.8Z"/>
    <path id="UA-74" d="M311.9,90l2.9,1,2.4-.9,1,1.1h0l-1,1.3-.6,3.3-1.4,1.3.2,3.5,2.5.6.7,1.7h1.7c0,0,0,2.2,0,2.2l-2,.5-1-1.1-2,.8-.3.7,1.9,1.7-.6,2.1-1.1-.3-3.8,1.4v.9s-1.5.9-1.5.9l.7,2.1-1.8,1.9,1.5,2.3-.2,3.5,1.7,2.7.9.2-1.8.8,1,2.5-1.7,1v4.5s-1.2-.5-1.2-.5l.7,1h-.7c0,.1-1.3-.9-1.3-.9l.3-.8-.8.6.5,2.2h.8s.4,1,.4,1l-1.1,1.3.9.2v1.6c-.1,0-1.2,1.1-1.2,1.1l.2,1-1.8.7-.4,1.2.8.8-1.3,2.2,3.5,1,.4,1.4-1.1,1.9,1,.4,1.1-1.1.6,2.2,1.7-.2.2,2.9-1,.3.4,1.7-.8,2.5,1,1.9,1.4.6-2.8.9.3,2.4-.9.5v2.2c.1,0-1.9,2.3-1.9,2.3l.5.9h0l-1.2.8-.3,1.3h-1.1s-1.6,2.8-1.6,2.8l-3.5,1.6v1s-3.3-.4-3.3-.4v-.6s-4.1,1.1-4.1,1.1l-1.1-1.1.2-1.3-2.7-.3-.8-.9h-1.2c0,.1-.9,2-.9,2l-1,.3v1.1s-3,0-3,0h0l.3-1.3h-2c0,0,.4-1.7.4-1.7l-1.4.6-.7-2.5-1.6-.5.5-1.1h1.6c0,0,.5-1.9.5-1.9h-3c0-.1-.8-2.3-.8-2.3l-1.8-1.6-2,1.1v1.9c-.1,0-3.8.2-3.8.2l-.4,1.4-3-.3-2.3,1.2-1.9-1.4-1.1,1.4-2.3-2.9-2.1-.9v-.9s1.6-.2,1.6-.2l-.8-1.3.5-2.2-2.6-2.5v-1c0,0-4.8.8-4.8.8l-1.7-.7-1.1,1.3-.6-.5v-.2c0,0-2.5-.5-2.5-.5v-1.9c-.1,0,.7.2.7.2l.5-.9-.3-1.9-2.2-1.2-1.2-4.2-1.2-1.2-2.7.2.2-2.3-.7-.9.9-.7-.8-2.5,1.4-.5-1-2.1,1.5-.4-.5-1.2h0l2.1-1,.2-.9-.8-.4,1.6-1.1v-1.8c.1,0-.9-2.1-.9-2.1h-.9c0,0-.1-1.1-.1-1.1l1.1-.7-1.5-2,.4-1.6-1,.2-.5-1,.7-.7-1.2-.8,1.3-.4-1.3-.9.7-1.3-.5-.6,1.5.3-.2-2,1.7-.4.7-2-1-.4,1.2-.3v-2.3c-.1,0,1.1-.5,1.1-.5l1.4-2.9,1.5.2.6-1-.4-1.2,2.2-.9.4-1.6.8.4-.5-1.2,1-3,1,.5,4.3-1.1,3.1,2.7,1.2-.5.8-2.4,1.7-.7-.2-.5,2-.4.5,1,5.6.2,1.4.9,1.6-.8,1,.7,1.4-.5,2.5,1.5-1.2,1.5,1.5-.4,3.4.8,1.5-1.6,2.9-.8,3.1-2.6-1.1-.3.6-1.7-.6-1.4.6-1,1.4-.2-1.2-2.9.4-1,3.3,1,1.7-.5,4.2,3.4,1.5-.8,1.7.3.6-.8,1.3.2.7,1.3,2.4-1.2,1.8-2.5.2,1.1,1.8-1.9.9.2v-1.4c0,0,.9,0,.9,0Z"/>
    <path id="UA-77" d="M102.8,250.4l2.3.5.6,1.2,1.4-1.8,1.9,2.2v1c-.1,0,1.5.4,1.5.4l1.8-1.4,1.3.5.8-1.5.4,1.7-.6.9,1.4,1.9.9-.6-.9-1.9.6-.9,1.4,3.8,2.8-.5.9,1.3h1.4s1.1-1.1,1.1-1.1h1.4c0-.1,1.2-.4,1.2-.4l1.8,3.6,1.3.3.7-.4-.4-1.9,1.3.9,1.6-.4-1.1-1.9-1.3.2v-.8c-.1,0,.9-.3.9-.3l1.9,1.2v-2.3s1.4,1.7,1.4,1.7v-2.1s.7-.6.7-.6l2.1,2.9,3.1-2,.3.7,2.4.6,2.2-1.1,2.3.7.5-.7-.5-1.6,2.1,1,1.4-1.3h0l2.2,1.3.7,3.8,1.5,1.6h0l-1.7.7-.7,1.7h-1.6s-.6-1.3-.6-1.3h-1.3s-1,2.9-1,2.9l-2.5-.9-1.5.8-1.5-2.5-1.8.5.9,1.7h-1.3s-.3.9-.3.9l-1.8-.2-1.4-2.3h-2.7s-.7.9-.7.9l-.8-.5,1,2.3,1.6.4-.2,2.1-2-.8-1.6-1.7.4,1.1-2.1,2.2v1.4s-.9-.3-.9-.3l-.4,1.1h-2.8s-.9,1.1-.9,1.1l-2.9.4-1.6,4.2-1.7,1.3-.8,2.4-9,1-2.4,1.3-3.5-.4-9.2,1.4-2.3.9-3.2,5.6-1.7.3-.4.9h-3.3c0,0,2.1-5.3,2.1-5.3l-2.2-3.7v-3.4c-.1,0,2.1-2.5,2.1-2.5l-.2-1.2,1.4.2,1.6-2.1-.2-.8h1.4s-.8-1.8-.8-1.8l2.1-1.1,4.2-5.2,3.7-1.1,4,.9-.8-10.3,1.2-1.8Z"/>
    <path id="UA-12" d="M331,240.8l3.5,1.6,1.4,1.6,1.4.2.3,1.7,4.3,1.6.2.8,1.2-2.6h-1.1s0-1.5,0-1.5h1.4c0-.1-.6-.5-.6-.5l.7-.9-1.3-1.8,1.4-3.6-.7-.7,2.5-2.3-.4-1.7,4.1,1.6,1.1-2.4,4.8-1.3v-1.2s2.6-.7,2.6-.7l1.1.6-.9.6.9.5,1.5-1.9,1.9,1.8h0l1-1.1.9,1.3,1-.9.5.7,1.4-.4,1,1.4-1.1.7h1.8c0-.1,6.3,5.8,6.3,5.8l.6-.6,1.5.6,1.8-.5v.7c0,0,1.5,0,1.5,0l.7.8.4-.6,1.8.4.5,1.1,2.2-2,.8.2.7-1.2,2.9,3.5-.8,1.2.7.6-.5.8,1.5.8-.3,1.1h1.6l1.7,1.1-1.3.7.6.7-.5,1,3.9,2.7-.8,1.6,1.8,1.3-1.3,1.9.7.5.8-1,.8.9,2.6-3.4-.5-.8,1.4-1.2,3,2.6,4.1-1.1h0l.2,1.2h1.7s.1,1.2.1,1.2l2.5,1v.9c.1,0-1.4.3-1.4.3v1.2c.1,0-.5.2-.5.2l.6,2.8h-.8c0,.1-.4,2.9-.4,2.9l.2,1.4h2.6c0,.1.7,4.9.7,4.9l-1.8.4.6,4.3-1.2,1.9-2.9-.8-.8-1.4-1.8-.6-2,.8.2,5h1.2c0-.1.3,1.6.3,1.6l-2.7.6,1.2,2.3h0l-3.4,1-3.7-.7v.8s-1.4.2-1.4.2l-.3-.6h-1.9s0-1.1,0-1.1l-3.3.5v-.7c0,0,1.1,0,1.1,0l.4-1.6-.5-1.6-.7.4-.3-1.4-.6.2.5-.5-1-1.8.9-.3-.4-1.4-2.1.5-.3-1.9-4.2,1.1-.2-1.3h-1.8c0,.1-1.1-1.6-1.1-1.6l-5,2.6v-.8c-.1,0-6.4-2.1-6.4-2.1l-5.3.5-3.1,1.7h-2.1s0-1.7,0-1.7h-1.6c0,0,.5,3.1.5,3.1l-1,.2.2,1.5.6,1.3h1c0,0,.3,2,.3,2l-3.1.7.4,2.1,1.2-.6.3,1.1h.8s-.2,3.7-.2,3.7l1.8-.3-.5,3.7-.9.3,1.4,5.6-2.4.6-7.5-1.8-12.7,3.5h0l-3.9.8-1.9-2.3-7.9,1.3-.2-1.2-1.2.4.5-2.8-.9-1.1-2.8.6.3,1.7-4.4.8.6,1.2-1,.4-.8-2.4-1.9.4.5-1.8h-3.9c0,0,0-.9,0-.9l-3.7.2,1-1-.7-4.2,2.7-.7-.6-1.8.2-2,.6-.2v-3.4s-2.1.1-2.1.1v-3h0l.5.2.6-2.1,1.9-.2v-1c0,0,1,0,1,0l.2.9-.3-1.4,2.3-.6.2-.8-1.4.4v-.6c0,0,1.2-.3,1.2-.3l-.4-1.9,1.6.8.5,2.1.7-.7-.7-1.2,3.8-.9v-.7c0,0,1.3-.3,1.3-.3l.6-1.5,1.2-.4-.9-1.6v-2.1c0,0-1.1,0-1.1,0l-.4-1.1.2-1.4.8-.2-.7-6.3,1-1h3.1c0,0-.3-1.2-.3-1.2l1.3.5,2.3-1.3,1.7-3-1.5.3-1.9-1.7-1.8-.2-.9-1.1v-1.8c0,0,1.9.2,1.9.2l.7-1,1.5,1.1,2.1-.6.2,1.2h.9c0,.1,1.2-5.4,1.2-5.4Z"/>
    <path id="UA-14" d="M440.9,226.8l1.8,1.9-1.2.7.4,1,3.5,1,.2-1,1,.2-.8,3.7,1.3,2.7-1.3.4v.8s-.7-.4-.7-.4l-.6,1.2,2.9.8,3.1-.3v3.9s2.4.6,2.4.6l-1.4,3.1,1.7,1.4-.6.2.3,1.2-1.5.8.4,5.1,1.2,1.4-.7,1.4.5.9,1.9,1,1.4-.7.4,2.9,1.3.5-1.6,1-.3,2.2,1.2.6,2.5-.3,1,1,.5,3.5,5.9,2.2.5,4.2,5.6.4v2s1.5.7,1.5.7l-.5,2.8h0l-6.6.3-.2,2h-1.1s-.5,5.4-.5,5.4l-2.9-.6v1.2c0,0-1,0-1,0l-.3,1h-4.3s-.1,1.1-.1,1.1h-2.9c0,0,0,1.7,0,1.7h-1.2s-.1,1.3-.1,1.3h-.6s.5,6.3.5,6.3l-2.2,2.7v.8c0,0,3.2,0,3.2,0l-.2,1.7-2.7,1.3v3.7c.1,0-1.9,3-1.9,3h-.8c0,.1-2-1.8-2-1.8l-.9.9-3.8-.9-2.8,1-7,.2-6.6,8.6.5-1.8-2.3-1.6-4.7,2.7h0l-1.2-1.8,3.3-2.1-1.4-1.1.9-1.3-3.9-1.6.7-.4-.3-1.6-4.1-2.9h3c0,0-1-4.8-1-4.8l3.1.7,2.3-1.6-.4-1.4.8-.2.7,1.6,1.1-.6,1.1-4.6-1.8-.7-.7,1.2-2.2-1.6-1.5-2.5-.6.6-1.6-1.5-1.4,1.2-1.8-3.1-2.3.6.5-1.1-1.1.2-.2-1.1,2-1.1-2.1.2-1.2-4.7-2.3.3.5-2.3-.6-.3h0l-1.2-2.3,2.7-.6-.3-1.7h-1.2c0,.1-.2-4.9-.2-4.9l2-.8,1.8.6.8,1.4,2.9.8,1.2-1.9-.6-4.3,1.8-.4-.7-4.8h-2.6c0-.1-.3-1.6-.3-1.6l.4-2.7h.8c0-.1-.6-2.9-.6-2.9l.7-.2v-1.2c-.1,0,1.4-.3,1.4-.3v-.9c-.1,0-2.6-1-2.6-1v-1.2c-.1,0-1.8,0-1.8,0l-.2-1.2h0l-.7-2.7.6-.5-1.3-2.9.8-1.3,2.8,1.4.9-1.2,3.1.3,1.8,1.8.3-.7-1.3-1,.8-1.1,1.2.2.8-1.6,2.6,1.5v-2.7s2.1-1.8,2.1-1.8h1.6c0,0-.9-2.1-.9-2.1l1.3-1.4.8.5.4-2.3,2.6-.3.7-.6-.3-1.5,3.9-1.6-3.7-1.9,1.6-1.6,7.9,1.2.6-1.6Z"/>
    <path id="UA-26" d="M45.4,248.1l.8-2.3-.7-1.7.6-1.8.9-.4-1.3-1.4.7-1.8-.6-.9,1.6-2.2,1.2-.4.6-2.6,1.9-1.2,4,1,1.9-1.6,1.3,1,1.1-1.3,2.9.9.2-.7h1.6s3.5-1.8,3.5-1.8l2.1.5.5-2.4h-2.8c0-.1.4-2.1.4-2.1l-1.7-.2v-.8c0,0,0-.6,0-.6l2.1.2.4-1.8,1.2-1-1.3-.6-.5-1.6,1.1-.6-.2-2.1,1.2-.5-.3-1.3,1.1-1,1.3.7v.8c-.1,0,1.4-.4,1.4-.4l1.8,1.5h2.3c0,.1,1.6,4.8,1.6,4.8h1c0,0,1.2,1.6,1.2,1.6l-.9,1.3.5,2.4,2.3,1.2-2,3,1.2,1.4,2.2.5.2,2-2.1-.5-.3,1.2,1.7,2.6,1.4-.7,2,1.2.7-.7-.2,1.3,1,.8-.8.8.6,2.4h.8s.6-2.4.6-2.4l1.2-.2-.7,3.5,1-.8,2.2,1.1-2.3,1,.3,1.4h.8c0,0,.9-1.5.9-1.5l1.1.5-.3-2.1,2.3.6v-1.1c0,0,.6,0,.6,0v1.5s5.2,3.4,5.2,3.4l-.8,1,1.2.8-.6,1.4h0l-1.2,1.8.8,10.3-4-.9-3.7,1.1-4.2,5.2-2.1,1.1.8,1.7h-1.4s.2.8.2.8l-1.6,2.1-1.4-.2.2,1.2-2.2,2.5v3.4c.1,0,2.3,3.7,2.3,3.7l-2.1,5.3h-1.1c0,.1-1.5-3.8-1.5-3.8l-3.4-.9-2.2-4.5-1.7-.8h0l.3-2.2,1.4-1.2-3.4-4.5,1.2-2.5-1.7-1.1v-1.5s-3.3-2.8-3.3-2.8l-.7-1.6-1.5-.3-.8,1.9-2.1-.7-1.1-1.7-.5-5.2-2.4,1.3-1.1-.2-.8,1.9-1.3-.3-.4-3.9-1.5.3-1.5-1.5-.2-1.9h-2.3c0-.1-2.3-2.9-2.3-2.9l-2.1-.9Z"/>
    <path id="UA-63" d="M430.1,174.6l-.4,3.2.5,1.1,2.5,2.1h1.7c0-.1-.6,3.9-.6,3.9l.8,1.9,3.1,4.1,1.2-.2,3.5,2,1.2,2.5,2.1,2-.3,1.4h0l1.6,2.3-1.9.5-.3,1,1.2,1.2-1.5,1.4-.6-.6-.7,1.5.6,1,1.1-.2-.4.6,1.2,1.8-1.7.5.4.8-1.5.7.2,1.7h-1.4c0-.1-.4.8-.4.8l1,.5-2,.7-.3,1.1.2,2h.9s.5,1.8.5,1.8l-.4,3.9,1.8.4.3.8-1.6.6.3.4-1.1,1h0l-.7,1.6-7.9-1.2-1.6,1.6,3.7,1.9-3.9,1.6.3,1.5-.7.6-2.6.3-.4,2.3-.8-.5-1.3,1.4.9,2.1h-1.6c0,0-2.1,1.8-2.1,1.8v2.7s-2.6-1.5-2.6-1.5l-.8,1.5-1.2-.2-.8,1.2,1.3,1-.3.7-1.8-1.9-3.1-.3-.9,1.2-2.8-1.4-.8,1.3,1.3,2.9-.6.5.7,2.7h0l-4.1,1.1-3-2.6-1.4,1.2.5.8-2.6,3.4-.8-.9-.8,1-.7-.5,1.3-1.9-1.8-1.3.8-1.6-3.9-2.7.5-1-.6-.7,1.3-.7-1.7-1.1h-1.6l.3-1.1-1.5-.8.5-.8-.7-.6.8-1.2-2.9-3.5-.7,1.2-.8-.2-2.2,2-.5-1.1-1.8-.4-.4.6-.7-.8h-1.5c0,0,0-.6,0-.6l-1.8.5-1.5-.6-.6.6-6.3-6h-1.8c0,.1,1.1-.5,1.1-.5l-1-1.4-1.4.4-.5-.7-1,.9-.9-1.3-1,1.1h0l-1-4.2,1.2-3.2,1.8,1h4.1s1,1.1,1,1.1v-1.8c.1,0,2.7-3.3,2.7-3.3l-.7-.3.4-1.8-1.3-.4.6-1.9,4,.8v-1.3c0,0-1.5-.5-1.5-.5l-.7-1.2,2.2-.8-1.5-4.3-2.2.3-3-1.3.3-1.7-1.2-.6.2-3.5-2-1.2h-2.1s-.4-1.2-.4-1.2l-1.2.6-3.4-2.8-.8-2.1,2.9-3.9-.8-1.1.2-2.1h0l.8-.3-.3-1.1,2.3.8.7-1.7,2.2-1.6,3,.3.2-1.3,1.7-.4-.9-.6.9-1.3,1.4,1v-1s1.2-.6,1.2-.6l2.8,1.8-.2-1.1,2.1-.5,1.7.7.7-1.3-.5-.5h0l2.1-.2,2.6-3.3,1,.4.5-.8,4.9-.4,2.6.9,3.3,4,.5,2,1.9.2,1.8-1.8,2.6,1.9h1.6s-.7,1.5-.7,1.5l2.4,1.3,1.1-2,4.8-2.8,7.9-.9,3.9-1.9,1.2-1.6,2.2.2,1.8-1.1Z"/>
    <path id="UA-65" d="M299.8,357.8l2.8-1.2,5.4,1.8h-5.3s-3-.6-3-.6ZM356.8,353.6l1,6.6,2.6,7.1h0l-.4.2h0l-1.2-3-1.3,1.5-.9-.4.5-4.9-.8-3.3-1-.5-.4,1.6-1.4-1.6v-1.3c0,0-1-.4-1-.4l2.5-.5.8,1.3.3-2.6h.8ZM308.9,295.5h3.9c0,0-.5,1.9-.5,1.9l1.9-.4.8,2.4,1-.4-.7-1.2,4.4-.8-.2-1.7,2.8-.6.9,1.1-.5,2.8,1.2-.4.2,1.2,7.9-1.3,1.9,2.3,3.9-.8h0l2.8,1.8,1.8,6.5.6-.6h2c0,.1.4-1.3.4-1.3l2.8-.5-1,.9.3,1.4,1,.5v.7c0,0-1,.2-1,.2l.8,5.7h.9c0,0,.4,3.3.4,3.3h.6c0,0,.9,2,.9,2l3.1.4.5,3.3h1.4c0-.1.3,2.1.3,2.1l-1.7.3.2,1.7-.8,1.3-3,1,.2,1.5,3.1.2.3,2.3-1.2.3,1.2,2.7,3.7-.6v2.4s1.5-.2,1.5-.2l3,1.2.5,7.3h.8c0,0-1.8,1.5-1.8,1.5l-3.8.8-1.7,1.4-.6,1.7-3.5-.9-1.6.4.4,3.1-1,2.6-1.7,2-.9-.4-.9,1.5v-1.9s-1.7-1.2-1.7-1.2l.4-.6.3-.2-.2-1.3.9-1.6.6,1.4.3-1.1,1.2-.5.7,1.7.6-3.1-1.3-1.3-.7.4.5,1.5-1.7.3-2.7-2.3-.8.2-1.3-2.6v2.6s1.1,1.1,1.1,1.1l-1.2,2.4v-2.1c0,0-3.5-5.3-3.5-5.3l-.8,1.2.2.2,1.6,3.2-1.3,1.4-.3,1-.8-1.1-.9.6-.7-1.4-.5,1.6-2.7-4.1h-1.4c0,.1-.4-.6-.4-.6l-1.1.6-1.7-1.4-1.4.6.4,1.7-2.8-1.6v.5h.1-.8c0,.1.6,3.6.6,3.6l-.6.2h0l-.9-.9-1.2,1.6.7,1.7h-1.8s.5,1.8.5,1.8l-1.6-.7-1,.8-2.4-3.3-.8,1.4h-.7c0-.1.7-1.8.7-1.8l-.6-.5h-1.8s-.5,1-.5,1l.7-4.3-2.7,3.7-2.7-1.3-.5,1.9-6.8-.5-4.6,1-1.6,1.3-1.4-.3-8.1-2.5,1-.4v-1.5l-1.2.3-2.8-1.9-.4-1.1-2.8-.3-.9-1.4-1.2-.3-.5,1.1-2.7.2-.6-1.2.9-1,4.7-.9,2.8-1.7-1.3-2.6-1.7.5-4.1-1.6h0l1.4-1.5h0l13.5,2.2,2.2-.9-.6-.4-2.3.9-1-.6.6-.5-.9-.2h1c0,0-.5-2.8-.5-2.8l-1.4-.7-3,1.3-1-2.2h-1.4c0,0-1.9-1.7-1.9-1.7h0l2.8-1.2-.8-2.4,4.5-1.1-.2-1.4,1-.5-.7-1.2,3.4,2.2h.7c0,0-.2-1.5-.2-1.5l2.7-.4.2,1,1.7-.2v-2.4s1.4,1.1,1.4,1.1l2.9-.2.2,1.6,6.9-1.5-.9-1h-2.1c0,.1,0-.6,0-.6l3.9-1.4-1.4-2.2.6-.5,2,1.1,1.3-2-3.7-2.3-.7-1.9,1.4-2.6,1.3-.3.9.7.8-1.7,1.8.7v-1.2s1.4-.2,1.4-.2l-2.1-1.8v-1.7s.8-.4.8-.4l-.3-2.3h-2.4s.5-3.3.5-3.3l.5,2.3,1.8-.3v-4.8c.1,0-1.2.5-1.2.5v-2.2Z"/>
    <path id="UA-68" d="M119.2,186.6h1.9s1-2.1,1-2.1l2-1.5h3c0,0-.3-.7-.3-.7l.9-1.3,2.1-2.5h1.3c0,.1,2.5-3.3,2.5-3.3v-1.4s.1.7.1.7l1.2-.3h-.7c0-.1.1-.9.1-.9l1.6-1.3.8.5,1.3-1.6,2.2,1,1-1.6,1.4.3v-1c0,0,1.3-.8,1.3-.8l.4,1.4h1.8c0,0,2,3,2,3h.9c0,0-1.4,4.2-1.4,4.2l1.9,1.1v1.6c0,0,1.8.4,1.8.4l1,1-.8.4,3.5,2.7,2.2-1.3.7,3.7,1.1-.9.5,1.5-1.3.6.3,1.3-.7,1.2,1.4.4.4,1.7h-1.1s-.8,1.4-.8,1.4l-1.7-.3.7,2.7-.7,1.9,2.2.5v2.3c-.1,0,.9,1.8.9,1.8l1.9-.2-.7,1.4,2.4,1.8,1.2-.9h0l-.7,1.9-1.3.2,1.3,3.1-1.5,2,1,.9v1.1c0,0-1.6,0-1.6,0v1.4s1.3.4,1.3.4l-.8,1h0l-.2,1h0l2.8.4-1,3.1,1.2,1.2v3.8c0,0,1.1,2.1,1.1,2.1l-1.2.6-1.1-.7-.6.5-.4-.8-1.1,2.3-2.7-1.1-1.3.5-.5,1.5-1.2-.8v.8c0,0-1.1,0-1.1,0l.2,2.2h-1.7c0,0-1.6,2.6-1.6,2.6l1,1.6-.7,2.7,1,4.6-1.1,1.2.7,2.9-1.2,2.8h0l-1.4,1.3-2.1-1,.5,1.6-.5.7-2.3-.7-2.2,1.1-2.4-.6-.3-.7-3.1,2-2.1-2.9-.7.6v2.1s-1.4-1.7-1.4-1.7v2.3s-1.9-1.2-1.9-1.2l-1.1.3v.8c.1,0,1.5-.2,1.5-.2l1.1,1.9-1.6.4-1.3-.9.4,1.9-.7.4-1.3-.3-1.8-3.6-1.2.3h0l-1.7-1.1-.6.9-.6-1.1.6-.8-1.8-1.5.8-.3-.9-.4.5-.7-1,.3v-.9c.1,0-1.3-.8-1.3-.8l.6-2.1-.6-.7h.6s-1-1.9-1-1.9l.8.3-.3-1,.9-.2-1.5-1.6.6-2.3-1.1-.4.6-1.5-.8-.8,1-.5-.9-.5,1-.4-.8-2,.8-.7-.6-.2v-3.5c0,0,.5,0,.5,0l-.7-1.5.5-2h1.1s.5-1.9.5-1.9l-.9-1.6.5-1.8-1.3-2.6v-2.1c0,0-1.4-1.3-1.4-1.3l.9-1.6h1.2c0,0-.5-2.5-.5-2.5l2-2-2.3-2.3,1.5-1.5-.2-1.2-1.7-3.1.7-.9-1.9-1.6.9-.7-.4-2.4,1.5-.7.3-1-.9-.4,1.4-.9-.7-2.3h2c0-.1-1.8-2.4-1.8-2.4l.3-1.2Z"/>
    <path id="UA-30" d="M244.2,172.5l.2,2.3,1.4,1.2h0l.2,1.5-1.1,1.5-1.6.7-1.3-.8-.9.4.2,5.3-.7.8-1.6-1.6-.9-3.9-2-.7-.7-2.1-1.3-.3-.4-1.6-2.1.2-1.3,1,.7-3.8h0l1.3-1.5h0l1-.3-1.1-1.8,4.2.2,2.5,2.6,3.6-.7,2-1.8,2,1v1.2l-1.8.5h0l-.3.5Z"/>
    <path id="UA-32" d="M281.1,178.2l.4-1.7-1.4.6-.7-2.5-1.6-.5.5-1.1h1.6c0,0,.5-2,.5-2h-3c0-.1-.8-2.3-.8-2.3l-1.8-1.6-2,1.1v1.9c-.1,0-3.8.2-3.8.2l-.4,1.4-3-.3-2.3,1.2-1.9-1.4-1.1,1.5-2.3-2.9-2.1-.9v-.9s1.6-.2,1.6-.2l-.8-1.3.5-2.2-2.6-2.5v-1c0,0-4.8.8-4.8.8l-1.7-.7-1.1,1.3-.6-.5v-.2c0,0-2.6-.5-2.6-.5v-1.9c-.1,0,.7.2.7.2l.5-.9-.3-1.9-2.2-1.2-1.2-4.2-1.2-1.2-2.7.2.2-2.3-.7-.9.9-.7-.8-2.5,1.4-.5-1-2.1,1.5-.4-.5-1.2-.9-.8-1.5.3.2-1.5h-1.6c0-.1-1.9-2.1-1.9-2.1l.5-3.1-4.9-3.9-.3,1-1-.8-.2.9-2.8-.7-1.4,1.5-1.9-.6-.5,1.7-2-.6-.3.8-1.3-.7v-2.5s-.8-.6-.8-.6l-1.3,1.2h-1c0,0-1.4,1.8-1.4,1.8l-1.2-.8-1.1,3.6-2.5-.6-1.4,1.2,1,.3v2.4c.1,0-1.1,2.2-1.1,2.2l-2.4.4.8,3.7.7,2.3.8-1.4,4.4,4.3-1.3,1.9.3,1.7-1.7-.3v1.6s2.8,3.1,2.8,3.1l-.4,1.9,1.4,1h-1.5s.4,1.7.4,1.7h1.7c0,.1.7,2,.7,2l-4.2,4.8,1.6,2-1.2,2.6,1.2.6v1.2c.1,0-.6.5-.6.5l-.8-.5-.2.8,1.4.6-1.6,1,.4.7.8-.6,2-.4.7,1.1v.9s1.3.3,1.3.3l-.3,1.7,1.9.2v1.9c-.1,0-.8.2-.8.2l1,1.9-1.5,2.1,1.3,1.2-1.2,2.1,1.3,1.5-.5,1.6,1.6,3.7-1.7,1.4.6.4-1.2,1.7-3.1,1.9-.9-.7-.7,1.4h-1.3c0,0,.7,1.7.7,1.7l-.7,1.5.2.7h1.3s.3,2.7.3,2.7l.8.5-.9,1.8,1.1,3.1,1.2.6-1,1.4,1.2,1-2.6,3.2,1.1,2.2,2.2.7-.2,1.8,2.1,1.1.7-1,.6,1.4h.6c0,.1-.8.9-.8.9l1.1,1.2,3.3-.3-.2-.6,2.2-2.3-.2-2.5,2.2-.8,1.3.4.9,2.2,1.1-2.7,1.5.3-.3,2.2,4.8.8.3.8,1.2-3.9,1.6-1.6,1.3,1.6,2.4-1.8,3.4,1.6,4.9-1.2.6-.9-.3-1.5,2.1-.3.9-2,.4.6v-.7c-.1,0,1.3-1.1,1.3-1.1l.5-2.5h1.1s-.5-2.1-.5-2.1l2.3-3.7-.6-.3.4-3.2-.7-.6.5-2.7,4.6-2.1-1.1-1.6.3-.6-1.6-.3.4-1.4,3.8.4-.4,3.4,2.1,2.4,2.4-2.7h.6s.1,2.2.1,2.2l2.7.2,2.8-5h2c0,.1.4,1.1.4,1.1v-3.3s2.2-1,2.2-1l-2.1-.6v-1.9c.1,0,1.8-1,1.8-1l-1-1.4.8.2.8-2.1,1.7.6,1.6-1.8-.7-.8.3-1.6,1.2-.8v-1.8c0,0,.4-1.3.4-1.3h-2ZM246.2,171.5l-1.8.5-.3.5.2,2.3,1.4,1.2.2,1.5-1.1,1.5-1.6.7-1.3-.8-.9.4.2,5.3-.7.8-1.6-1.6-.9-3.9-2-.7-.7-2.1-1.3-.3-.4-1.6-2.1.2-1.3,1,.7-3.8,1.3-1.5,1-.3-1.1-1.8,4.2.2,2.5,2.6,3.6-.7,2-1.8,2,1v1.2h0Z"/>
    <path id="UA-35" d="M302.4,226.4l2,.6,1.2-.5.6,1.7,3.2.8,1.2,1.8.2,2.4,2.4.2v-3.6c0,0,1.5,1.9,1.5,1.9l-1,1.1,1.5,1.2.3,1.5-.9.9.6,2.2,2.3.9.2-1.2h1.8c0,.1.1,1.7.1,1.7l1.7-.6,1,.8,2.6-2.8,1.4,1.6h2.8c0,.1,2.2,1.6,2.2,1.6h0l-1.2,5.5h-.9c0-.1-.2-1.3-.2-1.3l-2.1.6-1.5-1.1-.7,1-2-.2v1.8c0,0,1,1.1,1,1.1l1.8.2,1.9,1.7,1.5-.3-1.7,3-2.3,1.3-1.3-.5.3,1.3h-3.1c0,0-1,.9-1,.9l.7,6.3-.8.2-.2,1.4.4,1.1h1.1c0,0,0,2.1,0,2.1l.9,1.6-1.2.4-.6,1.5-1.4.3v.7c0,0-3.8.9-3.8.9l.7,1.2-.7.7-.5-2.1-1.6-.8.4,1.9-1.3.3v.6c0,0,1.5-.4,1.5-.4l-.2.8-2.3.6.3,1.4-.2-.9h-1.1c0,0,0,1,0,1l-1.9.2-.6,2.1-.5-.2h0l-.3-2.5-3.4.7.6,1.9h-5.5c0,.1.1,1.6.1,1.6l1.1-.2.3.8-2.5.5.9,1.9-.8,2.2-8,1.2-1.8-1.4-1.7.4-.3,2.2-2.4.5-2.3-2.8-6,1.3-.2-1.3,1.1-.2-.3-1.6h.7s-.2-2.3-.2-2.3h-.7c0,.1-.3-1.9-.3-1.9l-2.5.8-.6-3.3,1.4-.7-.4-2.4-2,.4-.3-1.1-1.2.2-.2-.8-1.3.3-.5,1.2-.7-.3.2,1.6-1.6.7-.6-.6.8-1-.4-1.7-2.5.9-.3-1-1.6.8-.2-.9-2.3.8-.4-2.2-1.1-.4-.4-1.6-3.1-.5-2,.4.3,1.5h-1.6c0,.1-.9,1.2-.9,1.2h-1.2c0,0-1.1-1.3-1.1-1.3l-.6.9-.3-1-1.9-.2-1.9.5-.8,1.2h-1.8s-.8-.9-.8-.9l-.6.8-3.6-.8-1.8,1.3h0l-6.9-.4-1.4-1.2-.4-1.9-.4.6-1.2-.6-1.2,2-1.2-1.2-1.8.2h0l-.8-3.3,1.7-2.4-.7-.9,4.9-4.2h0l2.2-.4,1.8,1.2,1.4-2.2,1.9.9.7-.9,3.7-1,.4-1.9,4.4.3.2-1.6-1.1-.9,1.8-1.5.4-1.4-.9-1h.9s.8-1.3.8-1.3l1.6-.7,3,.4.2-.5,2,1,1.9-1,4.6,1.8,2.8-1.7,1.2.9,1.3-.4.5,1.3h1.4c0,0,5-4.3,5-4.3l.6-3.4v1.1c0,0,1.1-.8,1.1-.8l1.8.3.4-1.4,1.3.2,1.6-.9,3.1,1.8v1s3-2.1,3-2.1l2,1.2,1.3-.4-.3-2.2,1.2-.4.2-1,.9.5.4-3,1.4-1.1,1.8.2.9,2,1.1.2.6-1,.8.7,1.3,4h.7s-.2-1.2-.2-1.2l1.2.7,2.7-.3v-1.1c0,0,1.5.8,1.5.8l3.1-.7.7-.8-1.2-.5-.4-2.6,2.1-.9v-.9s-3.7-1.8-3.7-1.8l2.7-3.6Z"/>
    <path id="UA-09" d="M453.6,191.2l.6,2.8,1.8,1,.4-.7,1,.2.6,1.3,1.1.3,1.6-.8,1.7.9,1.1-1.9.7.8-.5,2,2.6,2.3,3.1.4.9,3.1,2.5-1.2,1.2.3,3.1-3.1,2.9,5.6,2.5.7,1.9-.9,4.5,1.2-.3,1.1,1.6,4,2.5.8,1.6,1.7,3.3-.5.9-1.2,5-.8.9,2-3.5,2-.3,2.4,1.3,2.3,3.1,2.7-.4,2.3,1,2.1-2.1.2-1.7,2.2-1.3.3-2.5,5.2-3.6-.2-1.1.9h-2.7s-.2,1.7-.2,1.7l2.4.5,1,2-.4.6,1.5,1.7.5-.6,2.1.2,2,1.2,1.2-2.1,1.2,2-2.8,3.2-4.9-2-.9,3.1h-.8s-.9,1.9-.9,1.9l.5,1.5-1.7,3.1.8,1,2.9-.3,1.6,1,.5,2.5-.5,1.5,1.4,1,.2,2.3.5.7.5-.5v1.5c.1,0-2.5.7-2.5.7l-.2,1,1.6.4.5,1.2,1.9-1.9.9,2.6-.3,1.2-1.8-.2-.2,2h-.8c0,0-1.2,4.2-1.2,4.2l-.9.5,1.3,1.1h-3s1.2,2.4,1.2,2.4l-.7,4.4-.9.2-.7,1.7-3.1-.5-2.1.5-1.9-1.5-1.7,1.3-.8-1.7-4,.2-2.6,1-1.7-.4-.3-.8h0l.5-2.8-1.4-.7v-2s-5.6-.4-5.6-.4l-.5-4.2-5.9-2.2-.5-3.5-1-1-2.5.3-1.2-.6.3-2.2,1.6-1-1.3-.5-.4-2.9-1.4.7-1.9-1-.5-.9.7-1.4-1.2-1.4-.4-5.1,1.5-.8-.3-1.2.6-.2-1.7-1.4,1.4-3.1-2.5-.6v-3.9s-3.1.3-3.1.3l-2.9-.8.6-1.2.7.4v-.8s1.3-.4,1.3-.4l-1.3-2.7.8-3.7-1-.2-.2,1-3.5-1-.4-1,1.2-.7-1.8-1.9h0l1.1-1-.3-.4,1.6-.6-.3-.8-1.8-.4.4-3.9-.5-1.8h-.9s-.2-2-.2-2l.3-1.1,2-.7-1-.5.4-.9h1.4c0,.1-.2-1.6-.2-1.6l1.5-.7-.4-.8,1.7-.5-1.2-1.8.4-.6-1.1.2-.6-1,.7-1.5.6.6,1.5-1.4-1.2-1.2.3-1,1.9-.5-1.6-2.3h0l2.5-1.7v.9c0,0,2.6-2.5,2.6-2.5l-1.1-4.3,2.6.3,1.2-.7.5.6Z"/>
    <path id="UA-46" d="M60.3,165.8h1.4c0,0,2.9,3.5,2.9,3.5l1.9.4.4-1,1.4-.4.7,2,1.1.8,2.2-.5.7,2.5h1.2c0-.1,0,3.5,0,3.5h1.6c0,.1,1.9,1.6,1.9,1.6l-.2,1.4,4.3-.6,1.9.6.2-1.9,3,2,.2,1.7,1.5.6h0l2.6.3-1.1,2.7,1.3,1.6-.5,2.2,4.2,5.4h0l1.4.8.7,1.9-1.1.4-.4,2.8-2,.5-.3,1.1h-5.7s-.2,2.4-.2,2.4l1.1,1.2-1.4,1.4-1.3-1.1-.9,4-1.4,1.3-6.1,1.6.2,3.2h-2.3c0-.1-1.8-1.6-1.8-1.6l-1.5.4v-.8c.1,0-1.2-.7-1.2-.7l-1.1,1,.3,1.3-1.2.5.2,2.1-1.1.6.5,1.6,1.3.6-1.2,1-.4,1.8-2.1-.2v.6s0,.8,0,.8l1.7.2-.4,2h2.8c0,.1-.5,2.5-.5,2.5l-2.1-.5-3.5,1.7h-1.6s-.2.7-.2.7l-2.9-.9-1.1,1.3-1.3-1-1.9,1.6-4-1-1.9,1.2-.6,2.6-1.2.4-1.6,2.2.6.9-.7,1.8,1.3,1.4-.9.4-.6,1.8.7,1.7-.8,2.3h-3.5c0,0-1.7-1.8-1.7-1.8l-1,.7-1.1-.9-2.3.6-1.4-3-1.5-1.3-3,1.2-.6-1.8-2-1.3-.6-1.4,1.2-1.2-.4-1.3,1-.7-1.6-.9h0l-.4-1.2.7-1.3-1.7-.6-1.1-1.9h-1.4s.5-1,.5-1l-1,.8-.3-.4,1.1-1.7-.9-.6.7-.7.2-4.8-1.3-5.6-1.6-1.5,17.6-24.4,11.2-9.8,1.1-2.4,7.5-1.1,2.4-5.6v-5.2Z"/>
    <path id="UA-48" d="M267.1,337.6l4.9-.4,2.8,1.2h0l-1.4,1.5h0l-2.3-.2-.5,1.8-3.4-4ZM231.9,272.3l1.8-1.3,3.6.8.6-.8.8.9h1.8s.8-1.2.8-1.2l1.9-.5,1.9.2.3,1,.6-.9,1.1,1.2h1.2c0,0,.9-1,.9-1h1.6c0-.1-.3-1.6-.3-1.6l2-.4,3.1.5.4,1.6,1.1.4.4,2.2,2.3-.8v.9c.1,0,1.7-.8,1.7-.8l.3,1,2.5-.9.4,1.7-.7,1,.6.6,1.6-.7-.2-1.6.7.3.5-1.2,1.3-.3.2.8,1.2-.2.3,1.1,2-.4.4,2.4-1.4.7.6,3.3,2.5-.8.3,2h.7c0-.1.2,2.1.2,2.1h-.7s.3,1.7.3,1.7l-1.1.3.2,1.3,6-1.3,2.3,2.8,2.5-.5.3-2.2,1.7-.4,1.8,1.4,8-1.2.8-2.2-.9-1.9,2.5-.5-.3-.8-1.1.2v-1.5c-.1,0,5.4-.1,5.4-.1l-.6-1.9,3.4-.7.3,2.5h0v3s2.1-.1,2.1-.1v3.4s-.6.2-.6.2l-.2,2.1.6,1.8-2.7.7.7,4.2-1,1,3.7-.2v.8h0v2.2s1.4-.5,1.4-.5v4.8c-.1,0-1.9.3-1.9.3l-.5-2.3-.5,3.3h2.4s.3,2.2.3,2.2l-.9.4v1.7s2.1,1.8,2.1,1.8l-1.3.2v1.2s-1.8-.7-1.8-.7l-.8,1.7-.9-.7-1.3.3-1.4,2.6.7,1.9,3.7,2.3-1.3,2-2-1.1-.6.5,1.4,2.2-3.9,1.4v.7c0,0,2.1-.1,2.1-.1l.9,1-6.9,1.5-.2-1.6-2.9.2-1.5-1.1v2.4s-1.7.2-1.7.2l-.2-1-2.7.4.2,1.4h-.7c0,0-3.4-2.1-3.4-2.1l.7,1.2-1,.5.2,1.4-4.5,1.1.8,2.4-2.8,1.2h0l-2.1-.2-.6,1-2.4,1-5-1.5-1.7,1.9-1.8-1h-3.3c0,.1-.5,1-.5,1l-4.8-1.1h0l.5-1.3-1.4-3.2.8-1.2-.6-2.6-3.2-2.7-.6-2.5,2-.9,4.3-.3-.4-1.2h1.7c0,0,.3-2.5.3-2.5l-.9-3.6-4.3.6v-1.4s1.3.3,1.3.3l.4-3.4-4.2,1.1-.9-1.1.3-.9-2.5.5-1-2.3,1-.5-.7-.9v-2.4c.1,0-.9.2-.9.2l.6-4.9-2.7-.2-.7-.9.9-.6.3-2.7-2.2.4.3,1.2-1.2.3-.3-1.3-5.2.7-.2-.9-1.2.2-.9-4.8,1-.3.3-1.6-.4-.8-2.5.3-.6-4.8-1.7-1.5-.5-2,.8-.4-1.3-1.8,2.9-1.6h1.1c0,.1-1.2-.4-1.2-.4l-.3-1.2Z"/>
    <path id="UA-51" d="M217.5,269.6l1.8-.2,1.2,1.2,1.2-2,1.2.6.4-.6.4,1.9,1.4,1.2,6.9.4h0l.3,1.2,1.2.6h-1.1c0-.1-2.9,1.5-2.9,1.5l1.3,1.8-.8.4.5,2,1.7,1.5.6,4.8,2.5-.3.4.8-.3,1.6-1,.3.9,4.8,1.2-.2.2.9,5.2-.7.3,1.3,1.2-.3-.3-1.2,2.2-.4-.3,2.7-.9.6.7.9,2.7.2-.6,4.9,1-.2v2.4c-.1,0,.6.9.6.9l-1,.5,1,2.3,2.5-.5-.3.9.9,1.1,4.2-1.1-.4,3.4-1.3-.3v1.4s4.4-.6,4.4-.6l.9,3.6-.3,2.4h-1.7c0,0,.4,1.3.4,1.3l-4.3.3-2,.9.6,2.5,3.2,2.7.6,2.6-.8,1.2,1.4,3.2-.5,1.3h0l-11.8,3.3-.6,1.4,1.2,2.6-.6,2.7-1.9,2-5.6,9.8-7.3,8.6-16.1,13.7-.8,1.3,1.1,1.1.4-1,.4.9,2.4-.3-.6,9.2-.8.6h-1.1c0,0-.2-3.8-.2-3.8l-1.9-3-4.7-2.3-5.2.4-7.6,4-.7,2-4-2.2v1.4c0,0-1.3.7-1.3.7l1.1,1.6-2,.7-4.3-.9-6-2.9-1.7-2.9v-1.9c0,0-1.9-.8-1.9-.8l.9-1.6,1.7-1.6,3.3.6v1.7c.1,0,2.4-.6,2.4-.6l-.6-2.8,1.6-.4-.8-3.4h-1s.9-2,.9-2l.7-.8,1.4.2-.2-1.6,3.4-.4-.3-1.4,2.3-.7-.8-3.6.5-1.8,5.7-1.3.7-1.8-1.5-1.9,3.1-3.9-3.1-2.6,1.2-2.9-1.8-5,2.6-.2-1-1,4.8-1.1v-1.2s2-.6,2-.6l.5,2.9-1,.9.7,1.9-1.1,1.3.9.3.7-1.1,1.6-.4-.4-2,1-1.5,1.4,3.1-.2-.9,1.8-1.9,1.4,1.4-.6.8,2.2.9.4,2.2.7.3,1.9-.3-.3-2.9h2c0,0,.2-1.5.2-1.5l2.3,3-.4.5,2.1,1.3v-.8s1.4-1.1,1.4-1.1l1.3.7,2.1-.7.9.7,1.9-1.3v-.7c-.1,0-.8.7-.8.7l-1.1-1.2-.5.7-.4-.8h-1.1s-.8-.7-.8-.7l.8-.4-.9-.4v-1.2c0,0-1.4.6-1.4.6l-1.7-2.1,2-.5.7-7.8-1-2.2,1.1-.4-.3-.6-1.7.5-.6-2.6-3.6,1-.9-2.8-2,.4-.3-1.3-1.8.5-.4-.7,1.1-.2.2-3,.7-.3-.4-2.2-1.8.2-.4.9-1-2,2.4-.6-.8-4.6,1.3-.3-.7-4.6-2.4.6v2c0,0-1.6.7-1.6.7l-.9-.5-.2-3.2-1.4.4-.5-3.1-1.9,1.3v-1.8c-.1,0-1.6,1.5-1.6,1.5v-1.8s-.9.4-.9.4l.8-.7v-1.6s-1,.2-1,.2l-1-1.9,1.9-.7,1.4-2.8h-.7s.7-1.7.7-1.7l-.7-1.5,1.9-3.4-1.5.3-.6-1.3,2.1-2.6-2.1.2-.7-4.4-2.3.4.2.9-.5-.4-.4,1.1-2.7-1.5-1.2.8-2.3-3.1.3-1.9h0l.6.5,1.7-1,.5-2.5,1.8.3.3,1.3.4-.3.8-2.9,2.4,1.8-.4.4,3-.3.3.7-1.6.5.4.6,1.1-.4.6.9h2.5c0,0,.6-1.1.6-1.1l2.1-.4.9.9,1.9.2.9-1.4,1.7,1-.2-3.5,3.4-.6Z"/>
    <path id="UA-53" d="M308.3,171.9l1.4.6,1.5-.8,1.3.8,1.6-2.1,1.2,1.4h1.5s0,1,0,1h1s.6,1,.6,1l.8-.7.6.6.5-.8.7.7,1.3-.6,4.6,1.6,2.9-1.4-.9-1.1,1.7-.7,1.2.7,1.1-1.4,2,2.1,1-.7,1.1.4v1c-.1,0,.5-1.2.5-1.2l2.8-1.1.8.7.3,3.6,3.5,2.9.7,2.5,2.7,1.1.2,1.6,1.5.8-1.4,2,.7,2,4.3,1v-1.6s.9-.6.9-.6l.2.7,2.9-.8,2.6.5h0l-.2,2.1.8,1.1-2.9,3.9.8,2.1,3.4,2.8,1.2-.6.4,1.1h2.1s2,1.2,2,1.2l-.2,3.5,1.2.6-.3,1.7,3,1.3,2.2-.3,1.5,4.3-2.2.8.7,1.2,1.5.5v1.3c0,0-4.1-.8-4.1-.8l-.6,1.9,1.3.4-.4,1.8.7.3-2.6,3.3v1.8c-.1,0-1.1-1.1-1.1-1.1h-4.1s-1.8-.9-1.8-.9l-1.2,3.2,1,4.2h0l-1.9-1.8-1.5,1.9-.9-.5.9-.6-1.1-.6-2.6.7v1.2s-4.8,1.3-4.8,1.3l-1.1,2.4-4.1-1.6.4,1.7-2.5,2.3.7.7-1.4,3.6,1.3,1.8-.7.9.6.4h-1.4c0,.1,0,1.6,0,1.6h1.1s-1.2,2.6-1.2,2.6l-.2-.8-4.3-1.6-.3-1.7-1.4-.2-1.4-1.6-3.5-1.6h0l-2.2-1.5h-2.8c0-.1-1.4-1.7-1.4-1.7l-2.6,2.8-1-.8-1.7.6v-1.6c-.1,0-1.9-.1-1.9-.1l-.2,1.2-2.3-.9-.6-2.2.9-.9-.3-1.5-1.5-1.2,1-1.1-1.6-1.9v3.6c0,0-2.3-.2-2.3-.2l-.2-2.4-1.2-1.8-3.2-.8-.6-1.7-1.2.5-2-.6h0l-2.6.6-1.3-1.1-2.9.2-4-3.2,1.2-3.3.9,1.1,5.5,1.2-2.4-3.6.7-2.6,2-1.1.2-2.2-1.6-1.2.3-2.3-3.7-1.8-.5-2.9-1.1-.2-.4-1.3-1.5.4-2.1-3.3,1.7-.6-.6-.7.3-2.4-1.3-.8-.9-2.9-.5-.4-.6.8-1.5-1.9v-1.2c-.1,0,1.3-.3,1.3-.3l-.2-1-3.4-1-1.6-2.7h0l-.7-.8.3-1.6,1.2-.8v-1.8h3.1s0-1.2,0-1.2l1-.3.9-1.9h1.2c0-.1.8.8.8.8l2.7.3-.2,1.3,1.1,1.1,4.1-1.1v.6s3.2.4,3.2.4v-1s3.5-1.6,3.5-1.6l1.6-2.8h1.1s.3-1.2.3-1.2l1.2-.8Z"/>
    <path id="UA-56" d="M108.4,110.2l2.9.4,2.1-.8,5,3.1,5.6-.6v1.8c0,0,2.1,1.6,2.1,1.6h2c0,0,1.4-1.3,1.4-1.3l2.7.2,1.6,1v1.2c0,0,1.2.9,1.2.9l1.5-.4,2.8,1.4,1.3-1.5,5.8-.2.2,4.9,1.8.4-.8,2.3,3.2-.6,1.8.6.7-.7,1.4,1.5.4-2.2,2.9,1.4h2.8s0,1.8,0,1.8l-1.5,2.1h0l.2.8-2.5.9v2.2s1,1.2,1,1.2h-.9s-1.5-1.4-1.5-1.4v-.9c.1,0-.7,0-.7,0l-.4,3.3.7.4v1.2s-.7,1.1-.7,1.1l-1.5.3.9,3.2-2.7,3.6-.2,2.6-1.2.8v1.6c.1,0-2.8.5-2.8.5v1c0,0-.7.4-.7.4l1.1,2.4-.6,1.2,1.1.9-.6,4.3,1.1,3.4-.9,2-1.2.6-.3,1.6,1.1.8v1.6s-.9.2-.9.2h-1.8c0,0-.4-1.4-.4-1.4l-1.2.8v1c0,0-1.5-.3-1.5-.3l-1,1.6-2.2-1-1.3,1.6-.8-.5-1.6,1.3v.8c-.1,0,.5.1.5.1l-1.2.3-.2-.7v1.4s-2.4,3.5-2.4,3.5h-1.3c0-.1-2.1,2.3-2.1,2.3l-.9,1.3.3.8h-3c0,0-2,1.4-2,1.4l-1,2.1h-1.9s-1.1-.7-1.1-.7l1.2-2.9-1.6,1.6-2.8-1.2-1.4,1.1-2.2-1.2-2,2.9-3.6.2-2.7,1.5-1.4-1-.6,1.1-2.2-.7-.7,1.6,1.1,1.1-1,.3-.6,1.8-1.8.3-.4,1.8h0l-4.2-5.4.5-2.2-1.3-1.6,1.1-2.7-2.6-.3h0v-1c0,0,1.5-.8,1.5-.8l-.6-1.7.7-.4.8.7.3-.8-1.1-.7-.4-1.5-.6.2.3-1.1-1.7-1,1.8.3.3-1.6-1-2,4.8.6.8-1.2-.2-.8-.6.3-.3-2.3,3.2.8-1.3-1.3,1.1-1-.3-.9,2.3,1.1,3.7-1.5v-.8c0,0,2.5-.4,2.5-.4l.5,2.3,1.8-.2,1.7,2.3,2-9,3.1.5.5-1-1.3-1.1.3-3-1.1-.9,3.2-.6.7-1.5-.5-2.1-1.9-1.3-2.2-.2-.2-1.5,3.3-1,.3-1.7-1.7-1.9-1.5-.3-.2-1.8-3-2.7v-2.3c0,0-1.3.6-1.3.6l-.5-1.2h-.9s0,.9,0,.9h-.7c0,.1-1.6-2-1.6-2v-2.5s-1-1.1-1-1.1l-1.4.2,1.1-.9-.8-.7,1-1.9-2-2.1,1.2.3.8-.7,1.7-3.4.5-1.6-1.4-2.1.2-1.9,1.8-2.2-2-.3-1.1-1.1h5.2c0,.1,0-1.1,0-1.1l1.2.3.2.8Z"/>
    <path id="UA-59" d="M329.5,90.6v1.9c.1,0,2.3.7,2.3.7l.6,2.6,1.6.8.3,1.1,1.2.2.2,1.6,1.6,1.1-.5,2.2-1,.9,1,1.3v1.5s1.1.4,1.1.4l.2,1.4h1.2s.9,2.1.9,2.1l1.1.4-.3,1.3,1.4-.3,3.2,2.7-.2,1.7.9,2-.5.9h-3.1c0,.1-6.2,2.5-6.2,2.5l2.3,1,.4,2.1h.8c0-.1.1,1,.1,1l.5-.4.6,2.3,1.4.7-2.5,4.5,3.3,2.7-1.5.9-1.4,3.1,2.2,1.2,2.1-1.5,5.4,1.7.6-.9,1.6.3.2,2.2,1.3,1,1.9-.5,1.2.7.8-1.3,2.1-.3,1.2-1.3,1.7,1.3.9-1.2,2.1.4-.7,2.6,1.3,1.7v1.5s-.7.3-.7.3l1.1,1.3,2.3-.2.9-.9,2.7,1.3v1c0,0-.9.8-.9.8l-1.4-.3.9,1.7-.7,1.4,2,1.3-.5,1.9,1,1.1v2c-.1,0,1.9,1,1.9,1l-.9,2.2,1.1,2.2-.2.9-.7-.5-1.8.6.8,2.1-.9,1,2.3,3.9,3,1.6.5,3.6,1.6.6h0l.5.5-.7,1.3-1.7-.7-2.1.5.2,1.1-2.8-1.8-1.2.6v1s-1.4-1-1.4-1l-.9,1.3.9.6-1.7.4-.2,1.3-3-.3-2.2,1.6-.7,1.7-2.3-.8.3,1.1-.8.3h0l-2.6-.5-2.9.8-.2-.7-.9.6v1.6s-4.3-1-4.3-1l-.7-2,1.4-2-1.5-.8-.2-1.6-2.7-1.1-.7-2.5-3.5-2.9-.3-3.6-.8-.7-2.8,1.1-.6,1.2v-1c.1,0-1-.4-1-.4l-1,.7-2-2.1-1.1,1.4-1.2-.7-1.7.7.9,1.1-2.9,1.4-4.6-1.6-1.3.6-.7-.7-.5.8-.6-.6-.8.7-.6-1h-1s0-.9,0-.9h-1.5s-1.2-1.4-1.2-1.4l-1.6,2.1-1.3-.8-1.5.8-1.4-.6h0l-.5-.9,2-2.3v-2.2c-.1,0,.7-.5.7-.5l-.3-2.4,2.8-.9-1.4-.6-1-1.9.8-2.5-.4-1.7,1-.3-.2-2.9-1.7.2-.6-2.2-1.1,1.1-1-.4,1.1-1.9-.4-1.4-3.5-1,1.3-2.2-.8-.8.4-1.2,1.8-.7-.2-1,1-1.1v-1.6c.1,0-.8-.2-.8-.2l1.1-1.3-.4-1h-.8s-.5-2.2-.5-2.2l.8-.6-.3.8,1.3,1h.7c0-.1-.7-1.1-.7-1.1l1.2.5v-4.5s1.7-1,1.7-1l-1-2.5,1.8-.8-.9-.2-1.7-2.7.2-3.5-1.5-2.3,1.8-1.9-.7-2.1,1.5-.9v-.9s3.8-1.4,3.8-1.4l1.1.3.6-2.1-1.9-1.7.3-.7,2-.8,1,1.1,2-.5v-2.2s-1.7,0-1.7,0l-.7-1.7-2.5-.6-.2-3.5,1.4-1.3.6-3.3,1-1.3h0l.5.2.3-1.2,1.6.5-.9,2,2.1.5-.3-1,1,.5,2.8-2.1,4.3-.2Z"/>
    <path id="UA-61" d="M95.1,194.1l.4-1.8,1.8-.3.6-1.8,1-.3-1.1-1.1.7-1.6,2.2.7.6-1.1,1.4,1,2.7-1.5,3.6-.2,2-2.9,2.2,1.2,1.4-1.1,2.8,1.2,1.6-1.6-1.2,2.9,1.1.8h0l-.3,1.2,1.8,2.2h-2c0,.1.7,2.4.7,2.4l-1.4.9.9.4-.3,1-1.5.7.4,2.4-.9.7,1.9,1.6-.7.9,1.7,3.1.2,1.2-1.5,1.5,2.3,2.3-2,2,.5,2.5h-1.2c0,0-.9,1.7-.9,1.7l1.4,1.3v2.1c0,0,1.4,2.6,1.4,2.6l-.5,1.8.9,1.6-.5,1.9h-1.1s-.5,2-.5,2l.7,1.5h-.6c0,0,0,3.6,0,3.6l.6.2-.8.7.8,2-1,.4.9.5-1,.5.8.8-.6,1.5,1.1.4-.6,2.3,1.5,1.6-.9.2.3,1-.8-.3,1,1.8h-.6s.6.7.6.7l-.6,2.1,1.5.8v.9c-.1,0,.9-.3.9-.3l-.5.7.9.4-.8.3,1.8,1.5-.6.8.6,1.1.6-.9,1.7,1.1h-1.4c0,.1-1.1,1.3-1.1,1.3h-1.4s-.9-1.3-.9-1.3l-2.8.5-1.4-3.8-.6.9.9,1.9-.9.6-1.4-1.9.6-.9-.4-1.7-.8,1.5-1.3-.5-1.8,1.4-1.6-.4v-1c.1,0-1.8-2.2-1.8-2.2l-1.4,1.8-.6-1.2-2.3-.5h0l.6-1.4-1.2-.8.8-1-5.1-3.4v-1.5s-.8,0-.8,0v1.1c0,0-2.3-.6-2.3-.6l.3,2.1-1.1-.5-.9,1.5h-.8c0,0-.3-1.5-.3-1.5l2.3-1-2.2-1.1-1,.8.7-3.5-1.2.2-.6,2.4h-.8s-.6-2.3-.6-2.3l.8-.8-1-.8.2-1.3-.7.7-2-1.2-1.4.7-1.7-2.6.3-1.2,2.1.5-.2-2-2.2-.5-1.2-1.4,2-3-2.3-1.2-.5-2.4.9-1.3-1.2-1.6h-1c0,0-1.6-4.6-1.6-4.6h0l-.2-3.2,6.1-1.6,1.4-1.3.9-4,1.3,1.1,1.4-1.4-1.1-1.2.2-2.4h5.7s.3-1.2.3-1.2l2-.5.4-2.8,1.1-.4-.7-1.9-1.4-.8Z"/>
    <path id="UA-21" d="M20.8,234.7l3.1-.2,2.1,2.1,1.2-.2-.2-1.3h0l1.6.9-1,.7.4,1.3-1.2,1.2.6,1.4,2,1.3.6,1.8,3-1.2,1.5,1.3,1.4,3,2.3-.6,1.1.9,1-.7,1.7,1.7h3.5c0,0,2.1.9,2.1.9l2.3,2.8h2.3c0,.1.2,2,.2,2l1.5,1.5,1.5-.3.4,3.9,1.3.3.8-1.9,1.1.2,2.4-1.3.5,5.2,1.1,1.7,2.1.7.8-1.9,1.5.3.7,1.6,3.3,2.8v1.5s1.7,1.1,1.7,1.1l-1.2,2.5,3.4,4.5-1.4,1.2-.3,2.2h0l-1.5.7-2.1-.8-2.4,2.3-.7-.5-2.7,1.2-1-.9h-2.2c0,.1-2.8-2-2.8-2l-3.9,1.4-2.4-2.6-3.1.4-3.8-1.5-.9,2.1-4.5-2.2v-.7c0,0-1.4-.7-1.4-.7l-.4-1.9h-2.1c0,0-.7-.8-.7-.8l-1.5,1.3-.6,3.4-2.1.7-2.4-1.2.6,2.2-1.4.5-1.7-1.4,1.2-2.6-1.5-2.6h-2.5c0-.1-1.8,1-1.8,1l-2.2-.7-.6-3.7-1.9-2.1h-2.8c0,0-.6.5-.6.5l-1.9-3.7.2-1.1-2.1-1.3.7-1-1.6-.7-1.7,1-.2-1.4,1.2-7,4.3-3.4.6-2.1-.4-1.2,1.1-1.6v-2.5c-.1,0,.9-1,.9-1v-1.8c.1,0,1.6-2.6,1.6-2.6l1.9-.6.7-3.6,1.5.5.9,1.3Z"/>
    <path id="UA-05" d="M163.7,205.1l3.4-1.4,3.2.4,4.2-.7.6-1.1,3.6,1.4,1.2-1.8,1.7.6,1.2-.5,1.2,1.9,1.4-1.6,3.1.7.6-2,2.5-.7.8-1.2,2.2,2,.4,1.6-.7.9,1.7,1.9-1.5,2.5,1.8,1.9-.5,1.6,3.6.6,3.4-.8.9.5v-1.6c.1,0,1.8.6,1.8.6l.4-.6.7.4.7-1.6,2.7.4h0l.8.6-.9,1.8,1.1,3.1,1.2.6-1,1.4,1.2,1-2.6,3.2,1.1,2.2,2.2.7-.2,1.8,2.1,1.1.7-1,.6,1.4h0l-.8.2.8,4.3-1.4.4.2,1.1-1-.3-.6,1.8-.4-.6-.2.5,1,1.8,1.2-.5.3.9-1.2,2.7,2.2,1.3-.5.5,1.2,2,.3,2.6,2.7.9.5,1.2-.7,1.4,3.6,2.8-1.3,1.6,1.6.9.4,2.3h-.8s.3.9.3.9l-1,.2v.7h0l-4.9,4.2.7.9-1.7,2.4.8,3.3h0l-3.4.6.2,3.5-1.7-1-.9,1.4-1.9-.2-.9-.9-2.1.4-.6,1h-2.5c0,0-.6-.9-.6-.9l-1.1.4-.4-.6,1.6-.5-.3-.7-3,.3.4-.4-2.4-1.8-.8,2.9-.4.3-.3-1.3-1.8-.3-.5,2.5-1.7,1-.6-.5h0l-.2-1.8h-4.2s-.3-.9-.3-.9l-3.2-1.2-1.7,1v3.5c-.1,0-1.1-.3-1.1-.3l-1.2-2,.2-2h-1.3c0,0-.8,1.5-.8,1.5h-1.2c0-.1,1.7-2.7,1.7-2.7l-.4-1.8-4,1.7-1.2-2.3-2,1.1-.3-3.4-3.5-.6-1.6-1.3-.7-1.8-2.4-1.7-4,.2-1.4-.8v-1.2c.1,0-1.6.9-1.6.9h0l-1.5-1.6-.7-3.8-2.2-1.3h0l1.2-2.8-.7-2.9,1.1-1.2-1-4.6.7-2.7-1-1.6,1.6-2.5h1.7c0,0-.2-2.2-.2-2.2h1.2s0-.8,0-.8l1.2.8.5-1.5,1.3-.5,2.7,1.1,1.1-2.3.4.8.6-.5,1.1.7,1.2-.6-1.2-2.1v-3.8c0,0-1.2-1.2-1.2-1.2l1-3.1-2.8-.4h0l.2-1h0l.8-1-1.3-.4v-1.4s1.5,0,1.5,0v-1.1c0,0-.9-.9-.9-.9l1.5-2-1.3-3.1,1.3-.2.7-1.9Z"/>
    <path id="UA-07" d="M91.7,108.6l1-.3,4.2,2.1h2.8c0,0,.5-.9.5-.9l1.7.7h0l1.1,1.1,2,.3-1.8,2.2-.2,1.9,1.4,2.1-.5,1.6-1.7,3.4-.8.7-1.2-.3,2,2.1-1,1.9.8.7-1.1.9,1.4-.2,1,1.1v2.5s1.6,2.2,1.6,2.2h.7c0-.1,0-1.1,0-1.1h.9s.5,1.1.5,1.1l1.4-.6v2.3c0,0,2.9,2.7,2.9,2.7l.2,1.8,1.5.3,1.7,1.9-.3,1.7-3.3,1,.2,1.5,2.2.2,1.9,1.3.5,2.1-.7,1.5-3.2.6,1.1.9-.3,3,1.3,1.1-.5,1-3.1-.5-2,9-1.7-2.3-1.8.2-.5-2.3-2.6.4v.8c0,0-3.6,1.5-3.6,1.5l-2.3-1.1.3.9-1.1,1,1.3,1.3-3.2-.8.3,2.3.6-.3.2.8-.8,1.2-4.8-.6,1,2-.3,1.6-1.8-.3,1.7,1-.3,1.1.6-.2.4,1.5,1.1.7-.3.8-.8-.7-.7.4.6,1.7-1.6.8v1h0l-1.5-.6-.2-1.7-3-2-.2,1.9-1.9-.6-4.3.6.2-1.4-1.9-1.4h-1.6c0-.1,0-3.8,0-3.8h-1.2c0,.1-.7-2.4-.7-2.4l-2.2.5-1.1-.8-.7-2-1.4.4-.4,1-1.9-.4-2.9-3.5h-1.4c0,0-.7-.6-.7-.6l.2-1.8-1.5-.2.2-1.8-1.5-.4-.2-1.7,1.2-1.2h2.8c0,0,1.1-1.2,1.1-1.2l-2.6-1-2.3-2.6-.4-1.7-1.2-.9.6-.2-.7-2.6-1.4-1.1.3-2.2-3.6-2.8-1.2-3.4h-1.4l-.2-1.8,1.3-1.6.5-2.2-1.5-1.2.6-1.6-1.4-.6v-.7c0,0,1.6.3,1.6.3l-1.1-2,.7-1.3-1.6-1.9,1.9-1.3,2.8-.6.3,1.2,3.3.3-.8,1.8,3.2.5,3.4-3.8,5.4-3.7-.6-2.3,1.2-2.6,1.3-1,6.7-.9,3.5.9,1.8-1.3.5.7,2.1-.6,1.3.6,3.6-2.4,3.6-.4Z"/>
    <path id="UA-23" d="M337.9,299.7l12.7-3.5,7.5,1.8,2.3-.6-1.4-5.6.9-.3.5-3.7-1.8.3.2-3.8h-.8s-.3-1.1-.3-1.1l-1.2.6-.4-2.1,3.1-.7-.3-2.1h-1c0,0-.6-1.2-.6-1.2l-.2-1.5,1-.2-.5-3.2h1.6c0,0,0,1.7,0,1.7h2.1s3.1-1.7,3.1-1.7l5.3-.5,6.3,2.1v.7c.1,0,5.1-2.6,5.1-2.6l1.1,1.8h1.8c0-.1.2,1.2.2,1.2l4.2-1.1.3,1.9,2.1-.5.4,1.4-.9.3,1,1.8-.5.5.6-.2.3,1.4.7-.4.5,1.6-.3,1.6h-1.2v.7c0,0,3.4-.5,3.4-.5v1.1c0,0,2,0,2,0l.3.6,1.4-.2v-.8s3.6.7,3.6.7l3.4-1h0l.6.3-.5,2.3,2.3-.3,1.2,4.7,2.1-.2-2,1.1.2,1.1,1.1-.2-.5,1.1,2.3-.6,1.8,3.1,1.4-1.2,1.6,1.5.6-.6,1.5,2.5,2.2,1.6.7-1.2,1.8.7-1.1,4.6-1.1.6-.7-1.6-.8.2.4,1.4-2.3,1.6-3.1-.7,1,4.7h-3c0,0,4.1,3,4.1,3l.3,1.6-.7.4,3.9,1.6-.9,1.3,1.4,1.1-3.3,2.1,1.2,1.8h0l-4.4,2.7-3.9,7.3h-.6s2.3-2.7,2.3-2.7l-.6-1.2-2.6-1.9h-2.8c0,0-6.6,2.9-6.6,2.9l-4.9,7.5-2.3,1.3,3.9-4.3-.7-2.3-1.3-.8h-4.5c0,.1-4.1,1.1-4.1,1.1l-4,2.3-3.7,4-4,1.9-7.5,11.7-5.2,2.6,1.1-2.4,5.1-1.8,4-6.9-1,1-1.5-.9.2-3.2-1.6-.9-.9-1.1.3-.8-.8.5,1.3,4.1-3,3.7h-.8c0,0-.5-7.2-.5-7.2l-3-1.2-1.5.2v-2.4s-3.7.6-3.7.6l-1.2-2.7,1.2-.3-.3-2.3-3.1-.2-.2-1.5,3-1,.8-1.3-.2-1.7,1.7-.3-.3-2.2h-1.4c0,.1-.5-3.2-.5-3.2l-3.1-.4-.9-2.1h-.6c0,0-.4-3.3-.4-3.3h-.9c0,0-.8-5.6-.8-5.6l1.1-.2v-.7c0,0-1.1-.5-1.1-.5l-.3-1.4,1-.9-2.8.5-.4,1.5h-2c0-.1-.6.5-.6.5l-1.8-6.5-2.8-1.8Z"/>
    <path id="UA-18" d="M175.4,123.6h.7c0,0,1.7,2.1,1.7,2.1l.3,1.6,3.2-2.4,2.4,1h2.8c0,0-.8.4-.8.4h.6s.8,5,.8,5l1.5-.8.4,2.3.8-1.6-.6-1.5,1.7-3.2,2.3-1.2,2.5.6,3-3.4h1.6c0,0,1.2,3.5,1.2,3.5l1.2.3-.2,3.1.6,1.5,1,.3.5,3.3,1.1-.3h0l1,.3v2.4c.1,0-1.1,2.2-1.1,2.2l-2.4.4.8,3.7.6,2.3.8-1.4,4.4,4.3-1.3,1.9.4,1.7-1.7-.3v1.6s2.8,3.1,2.8,3.1l-.4,1.9,1.4,1h-1.5s.4,1.7.4,1.7h1.7c0,.1.7,2,.7,2l-4.2,4.8,1.6,2-1.2,2.6,1.2.6v1.2c.1,0-.6.5-.6.5l-.8-.5-.2.8,1.4.6-1.6,1,.4.7.8-.6h0l1.9-.4.9,1.1h0v.9s1.3.3,1.3.3l-.3,1.7,1.9.2v1.9c-.1,0-.8.2-.8.2l1,1.9-1.5,2.1,1.3,1.2-1.2,2.1,1.3,1.5-.5,1.6,1.6,3.7-1.7,1.4.7.4-1.2,1.7-3.1,1.9-.9-.7-.7,1.4h-1.3c0,0,.7,1.7.7,1.7l-.6,1.5.2.7h1.3s.3,2.7.3,2.7h0l-2.7-.4-.7,1.6-.7-.4-.4.6-1.7-.6v1.6c-.1,0-1-.5-1-.5l-3.4.8-3.6-.6.5-1.6-1.8-1.9,1.5-2.5-1.7-1.9.7-.9-.4-1.6-2.2-2-.8,1.2-2.5.7-.6,2-3.1-.7-1.4,1.6-1.2-1.9-1.2.5-1.7-.6-1.2,1.8-3.6-1.4-.6,1.1-4.2.7-3.2-.4-3.4,1.4h0l-1.2.9-2.4-1.8.7-1.4-1.9.2-1-1.8v-2.3c.1,0-2.1-.5-2.1-.5l.7-1.9-.7-2.7,1.7.3.8-1.4h1.1s-.4-1.7-.4-1.7l-1.4-.4.7-1.2-.3-1.3,1.3-.6-.5-1.5-1.1.9-.7-3.7-2.2,1.3-3.5-2.7.8-.4-1-1-1.9-.4v-1.6c0,0-1.8-1.1-1.8-1.1l1.4-4.2h-.9c0,0-2-3-2-3h0l1-.2v-1.6s-1.1-.8-1.1-.8l.3-1.6,1.2-.6.9-2-1.1-3.4.6-4.3-1.1-.9.6-1.2-1.1-2.4.7-.4v-1c0,0,2.8-.5,2.8-.5v-1.6c-.1,0,1-.8,1-.8l.2-2.6,2.7-3.6-.9-3.2,1.5-.3.7-1.1v-1.2s-.8-.4-.8-.4l.4-3.3h.8s-.1.8-.1.8l1.5,1.4h.9s-.9-1.2-.9-1.2v-2.2s2.5-.9,2.5-.9l-.2-.8h0l2.7,1.8,1.1-2.5,1.4-.5-.8-3.3.9-.6,1.7.6.2,1.7,1.6-.7-1,1.6,4.4-.9,2-3.1,2.3-1.6v2.7Z"/>
  </g>
</svg>