<?xml version="1.0" encoding="UTF-8"?>
<svg id="Layer_1" xmlns="http://www.w3.org/2000/svg" xmlns:amcharts="http://amcharts.com/ammap" version="1.1" viewBox="0 0 512 512">
  <!-- Generator: Adobe Illustrator 29.1.0, SVG Export Plug-In . SVG Version: 2.1.0 Build 142)  -->
  <g id="_x3C_defs">
    <amcharts:ammap bottomLatitude="41.900111" leftLongitude="12.445606" projection="mercator" rightLongitude="12.458452" topLatitude="41.907551"/>
  </g>
  <path id="VA" d="M393.4,61.8l10.1,60.6,75.8,24.5-.4,48.6-1.9,28.7-2,46,.4,13.1,7.9,4.6,6.9,7.4,7.9,9.4,3.5,6.4,3.9,14.5,1.3,16.1-.2,4.8v4.6c-.1,0-1.7,9-1.7,9l-6,12.6-12.1,13.5-11.2,6.2-6.3,2.2-10.1.6-11.8-2.8-10.2-4.6-4.7-4.8-4.7-4.2-12.8,3.8-15.6,6-26.6,10.2-25.5,5.8-9.3,3.6-2.8,4.2.3,5.8.5,12,5.1,5.2.4,6.4-2.4,6.2-3.9,2.6-7.8-5.2-37.8-14.5-.4,8.8-5.1-.4-60.1-9-21.1-3.6-4.3-8.4-10.2-4.2-18.7-2.2-7.4-3.6-9.8-2-11.3-1.6-12.9.4.5,9.6-20,4.2-14,1.4-3.5-3.6-5.1-6.2,4.2-4.2,4.7-4.2-12.5-11.6-13.3-11-9.3-6.8-14.9-12.6-6.6,9-19.1-11.2-14.1-5.6,45.3-27.3,16.6-11.2,3.4-2.4,5.4-9.4,4.2-14.1,3.2-7.8,5.8-7.4,8.2-6.8,9.4-10,8.6-6.8,5.1-7.8,3.4-10.6,3.9-23.9,3.6-19.3,5.8-4.2,8.6-3.6,10.2-4.8,12.4-12,10.5-15.1,7.5-19.9,5.4-15.1,37.4-4.8,20.3,1.2,6.2-1.2,27.7-10.4,11.4-3.6,5.8,9.8,24.2-7.2-1.2-12.2,16.4-5.2,53-17.7Z"/>
</svg>