<?xml version="1.0" encoding="UTF-8"?>
<svg xmlns:amcharts="http://amcharts.com/ammap"
  xmlns="http://www.w3.org/2000/svg" version="1.1" viewBox="0 0 512 512">
  <!-- Generator: Adobe Illustrator 29.1.0, SVG Export Plug-In . SVG Version: 2.1.0 Build 142)  -->
  <defs>
    <amcharts:ammap bottomLatitude="-55.053654" leftLongitude="-73.584888" projection="mercator"
      rightLongitude="-53.646671" topLatitude="-21.777295"></amcharts:ammap>
  </defs>
  <g>
    <path id="AR-B"
      d="M312,175.3h-.3c0,.1-.4.9-.4.9v.6l.7.4,1.3-.7h0l1.3,1.1,4.1,1.8,3.9,2.6,1.8,1.4,1.6,2.2.7,1.4v.6c0,0-2.8,4.1-2.8,4.1v.7c-.1,0,0,1.8,0,1.8l.7,1.8.7,1.1,2.1,1.8,1.3.7,1.8-.9h.3c0,.1.5,1.4.5,1.4l.3,2.3v3.9c.1,0,0,.7,0,.7l-1.5,2.2-2.8,5-1.1,1.5-1.6,1.6-1.7,2.1-.5,1.5v.7c-.1,0,0,.5,0,.5v.8c0,0-.3.4-.3.4l-1,1-2.1,1.5-3.8,2.1-1.2.5-5.1,1.6-2.9,1.3-5,1.1-3.2,1h-1.3c0,.1-9.9,1.9-9.9,1.9l-2.9.3h-2.4c0,0-.9-.2-.9-.2l-1.6.5-3-.4-2.2-.6-.7-.4-.3-.7-1-.7-1.6-.4-.4.2v.2c-.1,0,.2.8.2.8l1,1-.6,1.7v1.2c-.1,0,.1,1.3.1,1.3l1.8.4,1,.6.5.5v.3l-.3.3-.9-.6-.6-.9h-.7c0,0-.2.4-.2.4l1.4,1.3.8,1.1-.5,4.6-.6.3-1-.2-.5.7-.4,1.7v1.6s-.1.8-.1.8l-.2.4-.6.3-.7,1,.7,2.2,1.4,1.4h.3s.2.6.2.6l-.2.4h-.5s-.3-.4-.3-.4v.9s.1.1.1.1l.7-.5.7-.2v.3s-.3.2-.3.2l-1,2.9-4.4,2.6h-.5s-1.5-2.4-1.5-2.4l-1.1-1.1-1.3-.8-2.9-.6v-19.6h0v-58.8h0v-8.2s5.8,0,5.8,0h12.4c0,0,8.5-9.7,8.5-9.7v-.4c-.1,0,0-.5,0-.5l.8-.2,1.9.4,1.2.9.9-.2.6-1.2v-.9c.1,0,1.6-2,1.6-2v-.5c.1,0-.1-.3-.1-.3h0l.8.5,1.6,1.7,2.4,1.4.7.8.7.5,1.3.6.9-.4,1.2,1.2,1.9.8,1.5.4h.7s3.2,2.1,3.2,2.1l.9.7h.6c0,0,.8-.4.8-.4h.8c0-.1.6.2.6.2v.2c.1,0,.2,1.8.2,1.8l-.6,1-.5.3-.3.6.3,2.8ZM274.7,239l-1.8-1.1-.4-.8v-.3s2.2.7,2.2.7l.3,1.1v.2s-.4.1-.4.1Z" />
    <path id="AR-K"
      d="M239.1,91.3l1,4.4v1.8c0,0,0,.9,0,.9l-1.1,1.4v.6s.6.3.6.3l.3.3v.5c.1,0,.3,3.9.3,3.9l.4,2.9.5,1.2,1.2,2.2h0l-.9.2.4,3.6-2.2,2.5h0l-6-7.2-.8-1.2v-1.2c0,0-.6-.9-.6-.9l-3.4-3.1-2.6-1.4-.3-.5v-1.4c-.1,0-1.3-2.6-1.3-2.6l-.5-.6-4.6-2h-.6c0-.1-.3,0-.3,0l-.6.7h-.8c0,0-2-.1-2-.1l-.4-.5-1.1-.7h-.3s-1.2,1.7-1.2,1.7h-.6c0,0-1.1-.2-1.1-.2l-.5-.2-.5-.7-.3-.5-.2-1.1-.9-.4-1.3-.2-2.5-1.3h-.5s-.4-.3-.4-.3v-1.8s.2-.7.2-.7v-.3s-.2-.2-.2-.2h-2.2c0,.1-2.4.7-2.4.7l-2.7-.3h0l.5-1.8,1.8-3.3.4-1v-.5c0,0,0-.4,0-.4l.6-1.1.7-.2h.5c0,0,.5.4.5.4l2.6-.9,1-.5.4-1.3-1.6-2.6-1.1-1.4-.5-1v-1.5s.2-.9.2-.9l1.8-1.7-1-5-.7-1.5-.5-1.7.3-1.5.6-1.8.3-.4h0l7.4,1.4,13.4-.2.3.3.8,2.3-.3,1.6-.9.7h-1.8c0,0-.7.6-.7.6v1c-.1,0,0,.8,0,.8l1.9,2.6,1.2,2.4,1,1h.5c0,0,.2,0,.2,0l.7-1.6h.3c0-.1,1.3-.1,1.3-.1h0v.6c0,0-.7,1.5-.7,1.5v1.8s2.1.6,2.1.6l1.7,1.3.2.5-.3,2.4-2.9,3.6-.5,1.2,1,.3,1.2,1,.6,2.8,1,1.7h.3c0,0,.4-.2.4-.2l.7.4.4,1.5,1.1,1.3.7-1,1.8-1.3,1.1.8h.8Z" />
    <path id="AR-H"
      d="M307.8,92.4h-31s0-28.3,0-28.3h-18.3s11.6-15.1,11.6-15.1v-3.3h0l3.8,1.7,1,.7.9.2,1.3.9.5.9,1.1.5,1.1,1.1,2.4.4.3.2.6.9.5,1.1.6.7,2.6,2.1,3.3,1.6,1.2,1.7,1.7,1.8.2,1.1.5,1,1.7.8,1.8,1.1,1.8,2.3.4,1.4,2.6.6.4,1.6.4.4h.8c0,.1.7-.1.7-.1l2.6.8,1.1,1.3,2.2,1.7,2.2,2.3,1.2.7h0l-.5.3-.8,1-1.2,1.6h-.5c0,.1-.3.4-.3.4v.4s.6.7.6.7v.8h0l-1.5.8-1.2,1.1.4,3.2-.4,3.3Z" />
    <path id="AR-U"
      d="M168.7,338.7l.4-.3-.3-1.1-.2-.3-1.1-.5-.4-1.9.5-2.6.4-.3,1.2-.3,1.5-.7,1.8-2.7-.3-1.1-1.8-2.4-.6-1.2-.4-.4-1.7-.6-3.5-.5v-2.1c0,0,.2-.2.2-.2l1,.4h1.2c0,.1.8-.4.8-.4l1.3.4,1.8-.6,1.3.8h1s.6-.8.6-.8v-1.3c0,0,.4-1.1.4-1.1h.5c0,0,.3-.4.3-.4v-.5c.1,0-.4-1.3-.4-1.3l-.4-.3-2.2-.5h-1.6c0,.1-2.5.1-2.5.1h-.5c0-.1-.3-.5-.3-.5v-.3c.1,0,.6-.4.6-.4v-1.7s-.2-.8-.2-.8l.4-1.2,1.4-2.2v-.3s-1.8-2.3-1.8-2.3v-.4s1.1-.7,1.1-.7v-.3c.1,0,0-1,0-1l-2.5-2.2v-1c0,0,.4-.9.4-.9l1.7-.4v-1.8s-1-.6-1-.6l-1.8-.2-.6-.3-.3-.2-.6-1.2.4-2.2v-2c0,0-.4-1.9-.4-1.9l1-3.3-.9-1.2,1.2-2.2h.3c0-.1.3,0,.3,0l.3.6h.3c0,0,1.4-.6,1.4-.6l.5-.5v-1c0,0-.4-.4-.4-.4h72.1s.8.2.8.2h0l.7,1.5,1.3,1.1,3,1,.7-.2.8.3-.8.8-.7,1.2v.4c0,0,1.6.2,1.6.2l3.7-.2.7-.8v-1s-.2-.5-.2-.5l-.5-.3h-2s-.4-.2-.4-.2l.3-.2,1.5-.3,1.6-.7,1.5-.9,1.3-.2.2.2.7,1.7.6.8.3.9v4.2c0,0-.5,2.2-.5,2.2l-.6.8h-.4c0,.1-4.1,1.1-4.1,1.1l-.4-.2-1.2-1.4v-.4s.5-1.5.5-1.5l-1.5-1.5-1.3-.5-1.8.2-1.3.6-.5.7-.5.4-1.2.3-.3.2-.7,1.2v.5c.1,0,.3.2.3.2l2,.7,1.9,1.3,2.3.7,1-.4.3.6-1,.8-2.2,1.1-1.2.2-1,.4-1.4,1.1-1.1,1.1-1.1,2.2-1.3,1.7-.8,1.3v.8c-.1,0,.1,1.7.1,1.7l.4.7.3,1.4.5-.2-.2,2.3-.7.3-.2.8.7,1.9-1,1.7-.5,1.4-2.3,1.4-.5.5-.5,1-.3,1v.8c0,0,2,1,2,1l-.8,2-.8.3-.7-.5-1-.4-2.9-.4h-.8s-3.6,1.9-3.6,1.9l-.5,1.1-1.3.6-1.8.2-1,.6-.5.4-2.1,3.8-1.3,1.1-.2.4-.7,2.7-1.7,2.1-.5,1.1h-44.2Z" />
    <path id="AR-C" d="M313.3,176.6l-1.3.7-.7-.4v-.6l.4-.8h.3c0-.1.5.3.5.3l.6.2.3.6Z" />
    <path id="AR-X"
      d="M240,181.4v-13.1s-.5-10.4-.5-10.4l1.4-2.6,1.4-4.9v-.9c0,0-.3-3.1-.3-3.1l-.3-.3-1.2.3h-1.5c0,0-.6-2.6-.6-2.6l-.7-.7-3.5-2.1h-1.3c0,0,0-10.5,0-10.5l2.7-8.3.4-.5.9-2.8,2.8-.8.2-.2h0l2.2-2.5-.4-3.6.9-.2h0l6.7-1.7,2.5.8v.4s.4.6.4.6l2.1,1.1h1c0,0,1.3-.1,1.3-.1l1.1.2.5.2.5.5.2.6h2.1c0,.1,10.2,0,10.2,0l1.9,4.8h0l-.6,3.7h-.5s0,1.4,0,1.4l2,1.4,1.7.7-3.1,11.6-1.2,1,.3,2.5v2.8c0,0,.8,1,.8,1l.8.6.4,1.4,1.3,1.3.9,2.7,1,1.6v.5c0,0-.2,1.9-.2,1.9l-.5,1-.5.3h-.4s-.4.6-.4.6l-10,16.3h-5.7s0,8.2,0,8.2h-18.5Z" />
    <path id="AR-W"
      d="M299.1,121.4l-.2-.8,1.1-3.1v-.5s-.8-1.1-.8-1.1l-.2-.5.7-2.8v-2.6c.1,0,1.2-2.3,1.2-2.3l1.3-.6,1.9-1.9,1.2-4.9.3-2.5v-3c-.1,0,.2-.5.2-.5l.4-.2h.6c0,0,.6-.3.6-.3l.4-1.2h0l.4-3.3-.4-3.2,1.2-1.1,1.5-.8h0l1.1-.3,3.8-.2,4,.3.7.2,1.2.8,2.2.6,1.3.2,1,.5.9.2h.5s1.8-.9,1.8-.9h.4s1,.9,1,.9l.7.2.6-.5.7-.2h.6c0,0,.5.3.5.3l.5.9.4.3h.6c0,.1,1-1.3,1-1.3v-1c0,0,1.4-1,1.4-1h1.2c0,0,.8.3.8.3h0l-.3.3-.2,1.1v.5c.1,0,1,1.5,1,1.5l.8,1.8.3,2.2.9,1.6,1.4,1.1h0l-.6.7-.8.3-.2.2v.3s1,.6,1,.6v.4c.1,0-.2.9-.2.9l-.4-.5h-1.1c0-.1-.6,0-.6,0l-.9,1.5-.3.9-.6.8-1.1,1.3-1.1.6-.2.3v.4c0,0-1.4,2.9-1.4,2.9l-1,.3-.8.6-.6.7v.8c-.1,0-.6,1-.6,1l-3.8,4.5-.6.7-.4.2h-.9s-.6.4-.6.4l-.4.9v1.3c0,0-1.8,1.9-1.8,1.9l-.7.5-.6.2-.2.7v.8s-.4.7-.4.7l-2.3,2v1c0,0,.4.6.4.6l.4,1.3h0l-.7-.5-1.4-1.4-1.4-2.6-1.2-1.7-.7-.4-3.1-.8h-1.2c0,0-1.1.7-1.1.7l-1,.2-1.7-.3-1.1.7-.2.4-1,.6-1.7-.4h-1.2c0,0-.6.4-.6.4h-.9Z" />
    <path id="AR-E"
      d="M292.1,158.6l-.6-.8-2-1.1-1.7-3.3-.2-.7-.4-2.4v-1.5s.7-2.1.7-2.1l-.3-2.1.6-5.4.2-.3h.4c0-.1,1.7-.3,1.7-.3l.9-.9,2.2-2.5,1.2-2.5.5-.4,2.7-4.2,1.7-2.9v-.6c.1,0,0-2,0-2l-.7-1.2h.9s.6-.3.6-.3h1.2c0,0,1.7.4,1.7.4l1-.6.2-.4,1.1-.7,1.7.3,1-.2,1.1-.6h1.2c0,0,3.1.7,3.1.7l.7.4,1.2,1.7,1.4,2.6,1.4,1.4.7.5h0v1.7c.1,0-1.2,4.9-1.2,4.9l-.9,1.9-.7.4v.3c-.1,0,.9.9.9.9v.9c0,0-.6,2.2-.6,2.2l-.3.3-1.1.4-.4.7.6,1.3v.9c0,0-.4,1.2-.4,1.2l.2.5.7.7v.5s0,.4,0,.4l-.5.6-.7,1.2v.7c-.1,0,.7,5.4.7,5.4v1.3s-.4.6-.4.6h-2.3c0-.1-.2,0-.2,0v2.1s-.3,1-.3,1l-.6,1-.3,1.4-.2,2.9.2.5.7,1,.3,1.7v.4h-.9c0,.1-.8.6-.8.6h-.6c0,0-.9-.8-.9-.8l-3.2-2.1h-.8s-1.5-.4-1.5-.4l-1.9-.8-1.2-1.2-.9.4-1.3-.6-.7-.5-.7-.8-2.4-1.4-1.6-1.7-.8-.5Z" />
    <path id="AR-P"
      d="M269.9,45.7v-19.4h0l1,.6,1,2.7,1.4,1.7.4,1.2.8.7.7.3,1.1,1v.7c.1,0,.9.6.9.6h.8c0,.1,1.6,1.6,1.6,1.6l1.7.8,2,1.4,1.1,2.4,1.5.5,2.8.5.4.6,3.2,1.1h1.3s1.4-.3,1.4-.3l6.2,4.1,1.4,1.6,3.8,2,2,1.5,1.5.5h1.5c0,.1.9.4.9.4l1.1,1.3h1.9c0,0,1.3.8,1.3.8l2,.6,1.3,1,.3.7.7.7.4,1.1.8.6-.2,1.3-1.9,2.2-.7.5v.7c0,0-1,1.5-1,1.5l.4.5-1.6,1.3-.5.2-1.1,1.1v.6c.1,0-.7,2-.7,2v1.5c0,0,.5.7.5.7v.7c-.1,0-1.6,2.6-1.6,2.6l-.4.2h0l-1.2-.7-2.2-2.3-2.2-1.7-1.1-1.3-2.6-.8-.7.2h-.8c0-.1-.4-.5-.4-.5l-.4-1.6-2.6-.6-.4-1.4-1.8-2.3-1.8-1.1-1.7-.8-.5-1-.2-1.1-1.7-1.8-1.2-1.7-3.3-1.6-2.6-2.1-.6-.7-.5-1.1-.6-.9-.3-.2-2.4-.4-1.1-1.1-1.1-.5-.5-.9-1.3-.9-.9-.2-1-.7-3.8-1.7Z" />
    <path id="AR-Y"
      d="M238.9,21.9l-.5,1.5v1.1s-1.1,2.3-1.1,2.3v.6c0,0,1.1,4.4,1.1,4.4l.5.5h1.6c0,.1.4.8.4.8v1.2c0,0-.4,1.1-.4,1.1v.3c.1,0,.9.4.9.4l.8,1.6v.5c0,0,.8.3.8.3l.7-.5.8-.2,1.3.7.9,1,.8-.5.3-.5h2.1s.3,8,.3,8l-.2.8-1.3,1.9-1.2.2-1.2.8-.4.4-.6,1-2.2-1.9-.4.5-.6,1.2-1.4-.4-.9-.7h-1.8c0,0-2.7-.8-2.7-.8l-.6-.4-1.8-2.5v-.5c-.1,0,0-.7,0-.7l-.2-.3-1.3-1h-.3c0,0-.4.1-.4.1l-.5-.6-.3-1v-1s.4-.6.4-.6v-2.2c0,0-2-1.3-2-1.3l-1.8-.6h-.4c0,.1-.4,1.7-.4,1.7l.4,1.7v1.4c0,0-1.4,4.1-1.4,4.1l-.3.4-1.8-.3-1.9-.9-2.3-2.6-.7-.2-1.2-1h0l1.1-4,1.6-4.6-2-2.1.6-1.2,1.2-1v-1.3c-.1,0,2.6-1.1,2.6-1.1l.4-2.3.5-.4h.8s2.9-.9,2.9-.9l.4-.5.9-3.5,1.6.6,1.7,1.2,1.2,1.6.7.5,6.1-.2Z" />
    <path id="AR-L"
      d="M258.5,240.2h-.6s-.7-.2-.7-.2l-4.1-3-1.1-1.1-1.9-1.1-1-.5-2.2-.7h-1s-2.8-.6-2.8-.6l-2.6-.2h-1.4s-.9.3-.9.3l-1.3.2-.5-.4-1.5-.4h-.3s-.9.6-.9.6l-3.4-1.2-2.8-.2-1.5.3-2-.6-.3-1.3-.8-.8-1.4-.7-1.9-.6-1.2-.7-.7-.8-.4-1.6-.9-.2-1.2.6h-2c0,.1-1.1-.7-1.1-.7l-.5-1.1-.4-.6-.6-.3h-.5c0,0-.5-.5-.5-.5v-1c0,0,0-.4,0-.4l.6-.6.7-.4.4-.8v-.6s-.2-.5-.2-.5l-.8-1.1-1.2-.5-3.7-.3h0v-19s-.5,0-.5,0v-2.2c0,0,18.2,0,18.2,0h16.6s0-13.3,0-13.3h18.5v58.8Z" />
    <path id="AR-F"
      d="M239.6,117.9l-.2.2-2.8.8-.9,2.8-.4.5-2.7,8.3v10.5h0l-1.2.3h-.6c0,0-.9-.5-.9-.5l-1,.2-1.4.6h-1.5c0,.1-2.3-.1-2.3-.1l-.9-.4h-.8c0-.1-.5-1.2-.5-1.2l-.9-1.5-1.2-.9-.9-.9-.7-2.2.5-3.5-.8-.6.5-1.8-1-2-.3-.3-.6-.3-1.3-1.8-2-2-.3-1-.4-.5-3-2.4-1.2-1.2-.3-.7-3-2.5-1.7-.8-2.4-.6-1.4.4h-1.7s-.4-.1-.4-.1v-1.1c-.1,0,.7-4.3.7-4.3h.3s.2-.3.2-.3v-.8c.1,0-.1-2.1-.1-2.1l-2.1-2.1-.5-1.7-2.1-1.7-1-.2-2.3-.8h0l1.3-1.1,2-2.3.6-1.6,1.1-.3.4-.8.4-1.6h0l2.7.3,2.4-.6h2.2c0-.1.2,0,.2,0v.3s-.2.7-.2.7v1.8s.4.3.4.3h.5s2.5,1.2,2.5,1.2l1.3.2.9.4.2,1.1.3.5.5.7.5.2,1.1.3h.6c0,0,1.2-1.8,1.2-1.8h.3s1.1.7,1.1.7l.4.5,2,.2h.8c0,0,.6-.8.6-.8h.3c0-.1.6,0,.6,0l4.6,2,.5.6,1.1,2.6v1.4c.1,0,.4.5.4.5l2.6,1.4,3.4,3.1.5.9v1.2c0,0,.9,1.2.9,1.2l6,7.2Z" />
    <path id="AR-M"
      d="M182,196.5l.3-.8-.2-2.4.4-.8.3-.3-.8-2.4.2-.3v-1.3c0,0-.2-2-.2-2l-1.4-.9-.2-.7.3-.4,1-.2.8-.4.2-.3v-2s1.4-4.4,1.4-4.4l.9-1.7,1.1-1.7v-1.5s.6-.2.6-.2h1.1c0,.1.8-.5.8-.5l-.9-6,.4-2.9,1-2.2-.3-1.4-1.1-.5h-.3s-.5.8-.5.8h-.3s-1-1.5-1-1.5v-1.3c.1,0,0-.3,0-.3l.9-1.3.3-.9-.6-.3-1.1-1.2-.3-1.7.3-1.6-1.1-2.5h0l.9-.2h2c0,.1,1.6-.3,1.6-.3h1.8c0-.1.4-.5.4-.5v-1.1s.4-.4.4-.4l1.7-.8h.5s1.6-.7,1.6-.7l.7-.5.7.2.7,1.1.4.3h.9c0-.1.6,0,.6,0l1.2.8,2.1.6h.7c0,0,.2-.4.2-.4l.2-1,.3-.2,1,.4h1.4c0,.1,2.2-.4,2.2-.4l.6.4.3.8,1.1.9,1.8.4h1.1c0,0,1,.3,1,.3l1.3,1.4h0l.3.3.3.9.5,2.4.6,1.3-.3,2,.3.6.2,2.7v.4c-.1,0,.3,2.7.3,2.7l1.9,3.7.4,1.4.3.4.7.5,1,1.6.2,1-.2,1-.7,1v2c.1,0,.9,2.8.9,2.8l1.6,2.7.6,1.7.4,2.5v3s-.2,2.1-.2,2.1l-1.2,6.1.2.4h-18.2s0,2.2,0,2.2h.5v19h0l-1-.2-1.4-.7-3.3-1.8-1.1.2-1.3-.4-.3-.3-.2-1-.4-.7-2-.9h-1.5c0,.1-.7.4-.7.4h-.9c0-.1-.9-.4-.9-.4l-1-.7-1-1.4.3-1.1v-1c0,0-1.4-.7-1.4-.7l-.5-1.2-1.3-1.4-1-.4-.6-1-.5-1.9h-.2c0,0-.6.1-.6.1l-.2-.3-.2-1,.2-.3v-.7c0,0-.1-.5-.1-.5l-.6-.5Z" />
    <path id="AR-N"
      d="M339.2,84.3h.8s.5.9.5.9l.9.4h.3c0,0,1.4-1.2,1.4-1.2l.3-1.1v-.5c-.1,0,0-.6,0-.6l.3-.7,1.4-1.5,1.8-.6,1.3-.8.8-.8,1-.2.4-1.2.6-.4h.4s1.6-2.7,1.6-2.7l.4-1.7v-.6c0,0,.2-.3.2-.3v-.3s-.2-.4-.2-.4v-2.2s.6-.4.6-.4l-.2-3.5.3-.9h.6s1,.7,1,.7l.7-.6.8-.3h1.5c0,0,.8-.7.8-.7l2.4,1.7.7,2v1.8s1.7,2.9,1.7,2.9l.2.7-.2.7-.5.7v1.8s-.3,2.2-.3,2.2l.4,2.3-1.2,3-.3.5-.2-.3-1.6.5-.7.9-.5.3h-.3s-1.5,1.6-1.5,1.6l-.8.4-1.9.4-1.7.8h-.9c0,.1-.2,0-.2,0v-.3s-.3,0-.3,0l-.9,1.6v.7c-.1,0-1.3,1.3-1.3,1.3l-1.7.3-1.5.8-.6.6v.6c0,0-.8.7-.8.7l-1.9.7h0l-1.4-1.1-.9-1.6-.3-2.2-.8-1.8-.9-1.5v-.5c-.1,0,.1-1.1.1-1.1l.3-.3Z" />
    <path id="AR-Q"
      d="M168.3,243.6h.2s.5.6.5.6h.3c0,.1,1,0,1,0l.2-.3.5-2.3.5-1.5.2-1.3-.4-2.8v-1.1s.3-.7.3-.7l.6-.5,3.1-1.8h1.4c0-.1.7-.8.7-.8l.4-1.4v-.4s-.2-.5-.2-.5l-1.2-1-.2-.5-.5-2.6.2-2.2-1.4-3.2-.6-1.9v-1s.6-.5.6-.5l.2-1.8-.6-1.1-.3-1v-.5c.1,0,.5-.4.5-.4l.4-1.7-.8-3.7,1.7-4.9h.2c0-.1.7,0,.7,0l2.7-1v-.3c.1,0-.1-.6-.1-.6l.2-1,1.3-1.4h1.3s.5-.4.5-.4h0l.6.5.2.5v.7c0,0-.3.3-.3.3l.2,1,.2.3.6-.2h.2c0,0,.5,2,.5,2l.6,1,1,.4,1.3,1.4.5,1.2,1.3.7v1c0,0-.2,1.1-.2,1.1l1,1.4,1,.7.9.3h.9c0,.1.7-.1.7-.1h1.5c0-.1,2,.8,2,.8l.4.7.2,1,.3.3,1.3.4,1.1-.2,3.3,1.8,1.4.7,1,.2h0v19.4s-2.5,1.3-2.5,1.3l-.7.2-.8.7-.7,1.4-1.4,1.1-1.5,2.4-1.2.7h-.8s-1.3.9-1.3.9l-1,1.7-1.3,1.1-3.1,1.1-2,1.1-.5.7-.3.8.2.8v1s-.8,2.4-.8,2.4l-1.3,1.7-2.2.7-1.3-.3-.9.4-.7.6-1.7.2-.8.3-1.1.7-1.3,1.2-.2.8.6.8.2,1-.3.8-1,1.1-.9.5h-.9c0,0-.7,0-.7,0l-1.6-.7-3.6-.3h0l.2-.8v-.6c-.1,0-1.2-2.7-1.2-2.7l1-1.2.2-.6v-1s.6-1.7.6-1.7l.5.3h.2c0,0,.6-1.3.6-1.3v-.5c0,0-.4-.3-.4-.3l-.2.3-.8-.8-.3-.6.3-1.3,1.4-1,.4-1.4-.8-3.1v-1.4s.3-.8.3-.8Z" />
    <path id="AR-R"
      d="M167.4,278.4l-.3-2-1.4-3v-.4l.7-1.1-.2-1.7-.3-1.1.4-1.7.2-2.6-.2-.7h0l3.6.3,1.6.7.7.2h.9c0,0,.9-.6.9-.6l1-1.1.3-.8-.2-1-.6-.8.2-.8,1.3-1.2,1.1-.7.8-.3,1.7-.2.7-.6.9-.4,1.3.3,2.2-.7,1.3-1.7.8-2.4v-1s-.2-.8-.2-.8l.3-.8.5-.7,2-1.1,3.1-1.1,1.3-1.1,1-1.7,1.3-.9h.8s1.2-.8,1.2-.8l1.5-2.4,1.4-1.1.7-1.4.8-.7.7-.2,2.5-1.3v-19.4h0l3.7.3,1.2.5.8,1.1.2.5v.6s-.4.8-.4.8l-.7.4-.6.6v.4c-.1,0,0,1,0,1l.5.6h.5c0,0,.6.2.6.2l.4.6.5,1.1,1.1.9h2c0-.1,1.2-.7,1.2-.7l.9.2.4,1.6.7.8,1.2.7,1.9.6,1.4.7.8.8.3,1.3,2,.6,1.5-.3,2.8.2,3.4,1.2.9-.5h.3s1.5.4,1.5.4l.5.4,1.3-.2.9-.3h1.4s2.6.2,2.6.2l2.8.5h1s2.2.8,2.2.8l1,.5,1.9,1.1,1.1,1.1,4.1,3,.7.2h.6s0,19.5,0,19.5l2.9.6,1.3.8,1.1,1.1,1.5,2.4h0l-3.1,1.5-7.8.2-1.1-.5-.6-.7-.7-.4-1.7-.5-1.6-.9-4.6-1.8-.6-1.4-1.4-.3-.8.2-1.6,1.7-.5,2.1.2,1.8,1,4.7.7.8v.4c.1,0-.3,2.4-.3,2.4l.4,1.2-.8,2.3v.5c0,0,.1.8.1.8h0l-.8-.2h-72.1Z" />
    <path id="AR-A"
      d="M258.4,64.1h-5.7c0,0-3-1.1-3-1.1l-2.5,5.6-.6,2.3h-2.3c0,0-1.1,0-1.1,0l-1.1.7h-.4c0,0-3.6-1.2-3.6-1.2l-.4-1.1h-.3c0,0-1.1.5-1.1.5l-2.4-.6-.2.2-.2,2.2-.2.3-2.9-.4-1.8-.4h-1.3s-.3.1-.3.1l-.7,1.6-.2.2h-.5c0,0-1-1.1-1-1.1l-1.2-2.4-1.9-2.6-.2-.8v-1c.1,0,.8-.5.8-.5h1.8c0,0,.9-.8.9-.8l.3-1.6-.8-2.3-.3-.3-13.4.2-7.4-1.4h.7c0-.1.7-.5.7-.5l-1.6-2.7-.5-.3-.2-.7v-.4s.7-1.3.7-1.3l1.3-2,.3-.2h.5c0,0,.7-1.1.7-1.1l10-4.5.9-3.4h0l1.2,1,.7.2,2.3,2.6,1.9.9,1.8.3.3-.4,1.3-4.1v-1.4c0,0-.3-1.7-.3-1.7l.4-1.6h.4c0-.1,1.8.5,1.8.5l1.9,1.3v2.2c0,0-.3.6-.3.6v1s.3,1,.3,1l.5.6.4-.2h.3c0,0,1.3,1,1.3,1l.2.3v.7c0,0,0,.5,0,.5l1.8,2.5.6.4,2.7.8h1.8c0,0,.9.7.9.7l1.4.4.6-1.2.4-.5,2.2,1.9.6-1,.4-.4,1.2-.8,1.2-.2,1.3-1.9.2-.8-.3-7.9h-2.1s-.3.5-.3.5l-.8.5-.9-1-1.3-.7-.8.2-.7.5-.8-.3v-.5c0,0-.8-1.6-.8-1.6l-.8-.4v-.3c-.1,0,.2-1.1.2-1.1v-1.2c0,0-.3-.6-.3-.6h-1.6c0-.1-.5-.7-.5-.7l-1.1-4.4v-.6c0,0,1-2.3,1-2.3v-1.1s.5-1.5.5-1.5h2.2s.2.2.2.2l2.8.9h.3c0,0,1,.4,1,.4l.5.6.2,1.7.7,1.2.2.8v.8c0,0,.9,1.1.9,1.1l.3,1.6h.2c0-.1.2-.4.2-.4l.2-2.2.3-.9.3-.6,1.1-1.2,2-4.8h12.2s.2.2.2.2v1.1c0,0,.4.5.4.5l1.3,1,1.3,1.5,1.4,1,.6.2h0v19.4h0v3.3c0,0-11.5,15.1-11.5,15.1Z" />
    <path id="AR-Z"
      d="M213.7,386.6l-.8.9-.6,1.3.3.9-.7,1.2-1.2,1.4-.4.9h1.1c0-.1.8-2.1.8-2.1h.3c0-.1.2,0,.2,0l-.9,4.3-.8,5.6-.2.8-1,1.1-2,1.7-1.5.7h-.8c0,.1-.6,0-.6,0l-1-.9-.9-1.5-.9-.8-.2.3-.9.4h-1.8c0,0-1.2.2-1.2.2l-.4.3h1c0-.1.7-.5.7-.5l1.9.2.9-.2.3.3.5,1.3,1.4,1v.4c0,0-.5.7-.5.7l-2.5.9-1.8,1-.6.5-.7.9-1.4,2.3-.4,1.2-.5,2.6v2.4s-1.1,1.4-1.1,1.4l-.9.9-.8,1.1,1.1-1.2,1.2-.8.5,1.4v1.9c.1,0,2,6,2,6v.6c.1,0,0,.6,0,.6l-.5-.2h-.4c0,0-.8.8-.8.8l-.8-.3-1-.6h-.8s-1.2.3-1.2.3l-1.4.8,2.4-.6,1.4.3.8.4,1.8-.3h.3c0,.1.7,1.5.7,1.5l1.4,3.5,1.1,2.2,1,1.6.9,1.1,1.2,2,.3.8-.4.8h-.2c0,0,0-.8,0-.8l-1.5-.4-2.8-.5-1.8-1.3-2.6-1.1h-2.5s-5.8-2.6-5.8-2.6h-20.8s-.5-2.5-.5-2.5l-1.9-2-.8-.5-.9-.3-1.2-3.2.6-.5.4-1.5v-1.5s.7-1.3.7-1.3l-.4-.6-.7-.4-.3-.4-.2-.9.7-1.3h.6c0,0,.2-.4.2-.4l.3-2.7-.4-.9-.6-.8v-.4s.4-1.3.4-1.3l-.8-.7-1.3-.2-.6.2-.5.8-.6.2h-.3c0-.1-.7-.9-.7-.9h-.3l-1.5.8-.8,1.1-.7.5-.6.2-.5-.2-.2-.3-.6-2.4-.5-4.6-.6-1.3-2.1-1.7-.2-.5v-.5c.1,0,.7-.9.7-.9v-.5s-.9-1-.9-1l.3-1.5.9-1-.8-3.1-.7-1.1,1.3-3.8h3.6c0-.1.5-.7.5-.7l-.9-.2v-.5c-.1,0,1-2.6,1-2.6l.8-1.1.3-.3.7-.4h1.1c0-.1.6-.4.6-.4l1.8-1.7.4-.8v-.8l-.2-2.4-.3-1.5v-.3c0,0,.5-.4.5-.4l1.4-.7,1.5-.9v-2.6c0,0-.3-1.8-.3-1.8l-.9-1.1h-.5c0-.1-.7-.8-.7-.8l-.2-.7.9-2.5,1.4-2.7.2-1.5-.6-.4v-.5c.1,0,.5-.4.5-.4l.6-.2h.7c0,.1.4,0,.4,0l.8-.9.7-1.2,1.5-.7.2-.2.2-.7v-.5c-.1,0-1.3-1.7-1.3-1.7l.4-3.5.2-.3,1.1-.2,1.4-1.3.2-.8v-1.8s-.6-1.7-.6-1.7l-.2-2.9-.2-.4-.7-.3-.7-.8,1.5-.5,1.3-1.8h44.2s-.4,1.1-.4,1.1v.9s0,.7,0,.7l.5,2.3.4,1.5.3.6,1.8,2.6,2.6,2.1,3.1,3.7,1.2.8h.7c0,.1,1.5,0,1.5,0l1.5.2.2.3,1.5.2h1.2s.5-.3.5-.3h.7c0-.1,1,.4,1,.4l1.3,1.5.5,2.2-.2,3.3-.3,1.2-.9,2.3-.2.2h-1.2c0-.1-.3,0-.3,0l-.9.9-1.3.4-.2.3.3-.3h.9c0-.1,1.6-1,1.6-1h.2s.6.4.6.4l1.3,2v.5s-.4.1-.4.1l-.9-.4-.6.3.2,1.4-.2.7h-1.1c0,.1-2.9,3.1-2.9,3.1l-1.4,1.9-.9.2-1.2.5-1.8,2.1-1.2.3-1.6.9-.4.5-1.3,2.5-.7.3-1,.8-1.1,1.5Z" />
    <path id="AR-G"
      d="M239.1,91.3l1.1-.3.8-1.3-.7-1.7v-2.1s1.4-1.7,1.4-1.7h.6c0-.1.8-1.8.8-1.8l1.6-4.7h.4s.5-1.5.5-1.5h1s-.3-2.9-.3-2.9l.5-1.6v-1h0l.6-2.3,2.5-5.6,3,1h5.7c0,0,18.3.1,18.3.1v28.3h0l-4.1,26.7h0l-1.9-4.8-10.2.2h-2.1c0-.1-.2-.8-.2-.8l-.5-.5-.5-.2-1.1-.2-1.3.2h-1c0,0-2.1-1.2-2.1-1.2l-.4-.6v-.4s-2.5-.8-2.5-.8l-6.7,1.7h0l-1.2-2.2-.5-1.2-.4-2.9-.2-3.9v-.5c-.1,0-.4-.3-.4-.3l-.6-.3v-.6s1.1-1.4,1.1-1.4v-.9c0,0,0-1.8,0-1.8l-1-4.4Z" />
    <path id="AR-S"
      d="M292.1,158.6l.3.3v.5c-.1,0-1.6,2-1.6,2v.9c-.1,0-.7,1.2-.7,1.2l-.9.2-1.2-.9-1.9-.4-.8.2-.2.5v.4c.1,0-8.4,9.6-8.4,9.6h-12.4c0,0,10-16.2,10-16.2l.4-.6h.4s.5-.3.5-.3l.5-1,.3-1.9v-.5c0,0-1.1-1.6-1.1-1.6l-.9-2.7-1.3-1.3-.4-1.4-.8-.6-.8-1v-2.8c0,0-.3-2.5-.3-2.5l1.2-1,3.1-11.6-1.7-.7-2-1.4v-1.4c0,0,.5,0,.5,0l.6-3.7h0l4.1-26.7h31s-.4,1.2-.4,1.2l-.6.4h-.6c0,0-.4.2-.4.2l-.3.5v3c.1,0-.2,2.5-.2,2.5l-1.2,4.9-1.9,1.9-1.3.6-1,2.3v2.6c-.1,0-.8,2.8-.8,2.8l.2.5.8,1.1v.5s-1.1,3.1-1.1,3.1l.2.8h0l.7,1.2v2c0,0,0,.6,0,.6l-1.7,2.9-2.7,4.2-.5.4-1.2,2.5-2.2,2.5-.9.9-1.7.2h-.4c0,.1-.2.4-.2.4l-.6,5.4.3,2.1-.7,2.1v1.5s.4,2.4.4,2.4l.2.7,1.7,3.3,2,1.1.6.8Z" />
    <path id="AR-J"
      d="M183.9,146.4l-.8-.3-.4-2.5.5-.5h.5c0,0,.4-1.1.4-1.1v-.3c0,0-.8-.7-.8-.7h-1.2s-.5-.6-.5-.6l-1.4-3.4.3-3.1.4-2.1.8-.8.2.2.7-.3.7-.8v-.4s-.4-.5-.4-.5v-.3s.1-1.3.1-1.3l.5-1.8.6-1.5.8-1.5.9-.6h.6l.6-.3.4-.6.7-1.7v-.6s-1-1.8-1-1.8l.2-1v-2.5c0,0-.6-.5-.6-.5v-1.5s-.7-2.3-.7-2.3v-1l1.4-1.9h.7c0,0,.5-.5.5-.5v-1s.8-2.7.8-2.7l-.3-1v-.6s.5-1,.5-1l.3-.2.2-2.1h0l2.3.8,1,.2,2.1,1.7.5,1.7,2.1,2.1.3,2.1v.8c-.1,0-.3.3-.3.3h-.3s-.8,4.4-.8,4.4v1.1c.1,0,.5.1.5.1h1.7s1.4-.4,1.4-.4l2.4.6,1.7.8,3,2.5.3.7,1.2,1.2,3,2.4.4.5.3,1,2,2,1.3,1.8.6.3.3.3,1,2-.5,1.8.8.6-.5,3.5.7,2.2.9.9,1.2.9.9,1.5.5,1.1h0l-2.6.2-3.7-.5h-.7c0,.1-.2.5-.2.5v2.1c-.1,0,0,3.6,0,3.6l.3.9h0l-1.3-1.4-1-.4h-1.1c0,0-1.8-.3-1.8-.3l-1.1-.9-.3-.8-.6-.4-2.2.5h-1.4c0-.1-1-.5-1-.5l-.3.2-.2,1-.2.3h-.7c0,0-2.1-.5-2.1-.5l-1.2-.8-.6-.2h-.9c0,.1-.4-.2-.4-.2l-.7-1.1-.7-.2-.7.5-1.6.6h-.5s-1.7.9-1.7.9l-.3.4v1.1s-.4.3-.4.3h-1.8c0,.1-1.6.6-1.6.6h-2c0-.1-.9,0-.9,0Z" />
    <path id="AR-D"
      d="M215.3,147.5l-.3-.9v-3.6c-.1,0,0-2.1,0-2.1l.2-.4h.7c0-.1,3.7.4,3.7.4l2.6-.2h.8c0,.1.9.5.9.5l2.3.2h1.5c0-.1,1.4-.7,1.4-.7l1-.2.9.4h.6c0,0,1.2-.2,1.2-.2h1.3c0,0,3.5,2.2,3.5,2.2l.7.7.6,2.7h1.5c0,0,1.2-.4,1.2-.4l.3.3.4,3.1v.9c0,0-1.4,4.9-1.4,4.9l-1.4,2.6.5,10.4v13.1h0v13.3s-16.6,0-16.6,0h0l-.2-.4,1.2-6.1.2-2.1v-3s-.4-2.5-.4-2.5l-.6-1.7-1.6-2.7-.7-2.8v-2c-.1,0,.6-1,.6-1l.2-1-.2-1-1-1.6-.7-.5-.3-.4-.4-1.4-1.9-3.7-.4-2.7v-.4c.1,0,0-2.7,0-2.7l-.3-.6.3-2-.6-1.3-.5-2.4-.3-.9-.3-.3Z" />
    <path id="AR-V"
      d="M207.6,489.9l-.9-.4-1-.2-.7.2-.3.3-2,.2-.4-.2-.9-1.1.2-39.4,1.8,3.1,1.3,1.4.4.7.4,1,.4,2.1v.2s-.2,0-.2,0l-.6-2-.4-.2-.4.2-1.9,2.2-.3,1.1.3.8.5.6,1,.6h1.3c0,0,.9-.2.9-.2l.4.2.8,1.6.5,2.6.6,1.3,2,2.1,2.4,2.2v1s.2.6.2.6l3.2,2.8,3,2.1,3,1.8,1.8,2.4,3.3,2.3,4.7,2.2,1.1.3,4.4-.7h.9s.9.4.9.4l-1.1,3-1.2,2.2h-.3c0,0-.2,0-.2,0v-.2c0,0-1-.2-1-.2l-1.3.6h-1.1c0-.1-.2-.5-.2-.5l-.4-.2h-1.3c0,0-.5,0-.5,0l-.8,1.1-1,.5-.9.2h-2.1s-.8,1.2-.8,1.2h-1.1c0-.1-.9-.4-.9-.4l-1.8-1.6-2.3-.7-5.2-.6-2.4.2-3.1-.5-.7-.3ZM244.5,491v-.7c0,0-.3-.4-.3-.4h-.5c0,0,0-.3,0-.3l.2-.5.5-.6h.3s.8.4.8.4l2.4-1,.4-.4,1.8.3,1.6-.2,1.2-.3h.9c0,.1,0,.3,0,.3l-.6,1-.9.5-.2-.4-.4-.2-1.4.8-1.3.4v-.7c0,0-.8-.3-.8-.3l-1.1,1-1.7.5-.7.6h-.4ZM201.4,489.1l.6,1.1.3.3-.5.3h-.4c0,0,0-1.6,0-1.6Z" />
    <path id="AR-T"
      d="M239.1,91.3h-.8c0,.1-1.1-.6-1.1-.6l-1.8,1.3-.7,1-1.1-1.3-.4-1.5-.7-.4-.4.2h-.3c0,0-1-1.8-1-1.8l-.6-2.8-1.2-1-1-.3.5-1.2,2.9-3.6.3-2.4-.2-.5-1.7-1.3-2.1-.6v-1.8s.6-1.5.6-1.5v-.6h0l1.8.4,2.9.4.2-.3.2-2.2.2-.2,2.4.6,1.1-.6h.3c0,0,.4,1.1.4,1.1l3.6,1.3h.4c0,0,1.1-.8,1.1-.8l1.1.2h2.3c0,0,0,.9,0,.9l-.5,1.6.3,2.9h-1s-.5,1.5-.5,1.5h-.4s-1.6,4.7-1.6,4.7l-.8,1.7h-.6c0,.1-1.3,1.8-1.3,1.8v2.1s.7,1.7.7,1.7l-.8,1.3-1.1.3Z" />
  </g>
</svg>