<svg xmlns="http://www.w3.org/2000/svg" viewBox="0 0 512 512"><g><path id="AR-B" d="M312 175.3h-.3c0 .1-.4.9-.4.9v.6l.7.4 1.3-.7 1.3 1.1 4.1 1.8 3.9 2.6 1.8 1.4 1.6 2.2.7 1.4v.6l-2.8 4.1v.7c-.1 0 0 1.8 0 1.8l.7 1.8.7 1.1 2.1 1.8 1.3.7 1.8-.9h.3c0 .1.5 1.4.5 1.4l.3 2.3v3.9c.1 0 0 .7 0 .7l-1.5 2.2-2.8 5-1.1 1.5-1.6 1.6-1.7 2.1-.5 1.5v.7c-.1 0 0 .5 0 .5v.8l-.3.4-1 1-2.1 1.5-3.8 2.1-1.2.5-5.1 1.6-2.9 1.3-5 1.1-3.2 1h-1.3c0 .1-9.9 1.9-9.9 1.9l-2.9.3h-2.4l-.9-.2-1.6.5-3-.4-2.2-.6-.7-.4-.3-.7-1-.7-1.6-.4-.4.2v.2c-.1 0 .2.8.2.8l1 1-.6 1.7v1.2c-.1 0 .1 1.3.1 1.3l1.8.4 1 .6.5.5v.3l-.3.3-.9-.6-.6-.9h-.7l-.2.4 1.4 1.3.8 1.1-.5 4.6-.6.3-1-.2-.5.7-.4 1.7v1.6l-.1.8-.2.4-.6.3-.7 1 .7 2.2 1.4 1.4h.3l.2.6-.2.4h-.5l-.3-.4v.9l.1.1.7-.5.7-.2v.3l-.3.2-1 2.9-4.4 2.6h-.5l-1.5-2.4-1.1-1.1-1.3-.8-2.9-.6v-86.6h18.2l8.5-9.7v-.4c-.1 0 0-.5 0-.5l.8-.2 1.9.4 1.2.9.9-.2.6-1.2v-.9c.1 0 1.6-2 1.6-2v-.5c.1 0-.1-.3-.1-.3l.8.5 1.6 1.7 2.4 1.4.7.8.7.5 1.3.6.9-.4 1.2 1.2 1.9.8 1.5.4h.7l3.2 2.1.9.7h.6l.8-.4h.8c0-.1.6.2.6.2v.2c.1 0 .2 1.8.2 1.8l-.6 1-.5.3-.3.6.3 2.8ZM274.7 239l-1.8-1.1-.4-.8v-.3l2.2.7.3 1.1v.2l-.4.1Z"/><path id="AR-K" d="m239.1 91.3 1 4.4v2.7l-1.1 1.4v.6l.6.3.3.3v.5c.1 0 .3 3.9.3 3.9l.4 2.9.5 1.2 1.2 2.2-.9.2.4 3.6-2.2 2.5-6-7.2-.8-1.2v-1.2l-.6-.9-3.4-3.1-2.6-1.4-.3-.5v-1.4c-.1 0-1.3-2.6-1.3-2.6l-.5-.6-4.6-2h-.6c0-.1-.3 0-.3 0l-.6.7h-.8l-2-.1-.4-.5-1.1-.7h-.3l-1.2 1.7h-.6l-1.1-.2-.5-.2-.5-.7-.3-.5-.2-1.1-.9-.4-1.3-.2-2.5-1.3h-.5l-.4-.3v-1.8l.2-.7v-.3l-.2-.2h-2.2c0 .1-2.4.7-2.4.7l-2.7-.3.5-1.8 1.8-3.3.4-1v-.9l.6-1.1.7-.2h.5l.5.4 2.6-.9 1-.5.4-1.3-1.6-2.6-1.1-1.4-.5-1v-1.5l.2-.9 1.8-1.7-1-5-.7-1.5-.5-1.7.3-1.5.6-1.8.3-.4 7.4 1.4 13.4-.2.3.3.8 2.3-.3 1.6-.9.7h-1.8l-.7.6v1c-.1 0 0 .8 0 .8L223 69l1.2 2.4 1 1h.7l.7-1.6h.3c0-.1 1.3-.1 1.3-.1v.6l-.7 1.5v1.8l2.1.6 1.7 1.3.2.5-.3 2.4-2.9 3.6-.5 1.2 1 .3 1.2 1 .6 2.8 1 1.7h.3l.4-.2.7.4.4 1.5 1.1 1.3.7-1 1.8-1.3 1.1.8h.8Z"/><path id="AR-H" d="M307.8 92.4h-31V64.1h-18.3L270.1 49v-3.3l3.8 1.7 1 .7.9.2 1.3.9.5.9 1.1.5 1.1 1.1 2.4.4.3.2.6.9.5 1.1.6.7 2.6 2.1 3.3 1.6 1.2 1.7 1.7 1.8.2 1.1.5 1 1.7.8 1.8 1.1 1.8 2.3.4 1.4 2.6.6.4 1.6.4.4h.8c0 .1.7-.1.7-.1l2.6.8 1.1 1.3 2.2 1.7 2.2 2.3 1.2.7-.5.3-.8 1-1.2 1.6h-.5c0 .1-.3.4-.3.4v.4l.6.7v.8l-1.5.8-1.2 1.1.4 3.2-.4 3.3Z"/><path id="AR-U" d="m168.7 338.7.4-.3-.3-1.1-.2-.3-1.1-.5-.4-1.9.5-2.6.4-.3 1.2-.3 1.5-.7 1.8-2.7-.3-1.1-1.8-2.4-.6-1.2-.4-.4-1.7-.6-3.5-.5v-2.1l.2-.2 1 .4h1.2c0 .1.8-.4.8-.4l1.3.4 1.8-.6 1.3.8h1l.6-.8V318l.4-1.1h.5l.3-.4v-.5c.1 0-.4-1.3-.4-1.3l-.4-.3-2.2-.5H170c0 .1-2.5.1-2.5.1h-.5c0-.1-.3-.5-.3-.5v-.3c.1 0 .6-.4.6-.4v-1.7l-.2-.8.4-1.2 1.4-2.2v-.3l-1.8-2.3v-.4l1.1-.7v-.3c.1 0 0-1 0-1l-2.5-2.2v-1l.4-.9 1.7-.4v-1.8l-1-.6-1.8-.2-.6-.3-.3-.2-.6-1.2.4-2.2v-2l-.4-1.9 1-3.3-.9-1.2 1.2-2.2h.3c0-.1.3 0 .3 0l.3.6h.3l1.4-.6.5-.5v-1l-.4-.4h72.1l.8.2.7 1.5 1.3 1.1 3 1 .7-.2.8.3-.8.8-.7 1.2v.4l1.6.2 3.7-.2.7-.8v-1l-.2-.5-.5-.3h-2l-.4-.2.3-.2 1.5-.3 1.6-.7 1.5-.9 1.3-.2.2.2.7 1.7.6.8.3.9v4.2l-.5 2.2-.6.8h-.4c0 .1-4.1 1.1-4.1 1.1l-.4-.2-1.2-1.4v-.4l.5-1.5-1.5-1.5-1.3-.5-1.8.2-1.3.6-.5.7-.5.4-1.2.3-.3.2-.7 1.2v.5c.1 0 .3.2.3.2l2 .7 1.9 1.3 2.3.7 1-.4.3.6-1 .8-2.2 1.1-1.2.2-1 .4-1.4 1.1-1.1 1.1-1.1 2.2-1.3 1.7-.8 1.3v.8c-.1 0 .1 1.7.1 1.7l.4.7.3 1.4.5-.2-.2 2.3-.7.3-.2.8.7 1.9-1 1.7-.5 1.4-2.3 1.4-.5.5-.5 1-.3 1v.8l2 1-.8 2-.8.3-.7-.5-1-.4-2.9-.4h-.8l-3.6 1.9-.5 1.1-1.3.6-1.8.2-1 .6-.5.4-2.1 3.8-1.3 1.1-.2.4-.7 2.7-1.7 2.1-.5 1.1h-44.2Z"/><path id="AR-C" d="m313.3 176.6-1.3.7-.7-.4v-.6l.4-.8h.3c0-.1.5.3.5.3l.6.2.3.6Z"/><path id="AR-X" d="M240 181.4v-13.1l-.5-10.4 1.4-2.6 1.4-4.9v-.9l-.3-3.1-.3-.3-1.2.3H239l-.6-2.6-.7-.7-3.5-2.1h-1.3v-10.5l2.7-8.3.4-.5.9-2.8 2.8-.8.2-.2 2.2-2.5-.4-3.6.9-.2 6.7-1.7 2.5.8v.4l.4.6 2.1 1.1h1l1.3-.1 1.1.2.5.2.5.5.2.6h2.1c0 .1 10.2 0 10.2 0l1.9 4.8-.6 3.7h-.5v1.4l2 1.4 1.7.7-3.1 11.6-1.2 1 .3 2.5v2.8l.8 1 .8.6.4 1.4 1.3 1.3.9 2.7 1 1.6v.5l-.2 1.9-.5 1-.5.3h-.4l-.4.6-10 16.3h-5.7v8.2h-18.5Z"/><path id="AR-W" d="m299.1 121.4-.2-.8 1.1-3.1v-.5l-.8-1.1-.2-.5.7-2.8V110c.1 0 1.2-2.3 1.2-2.3l1.3-.6 1.9-1.9 1.2-4.9.3-2.5v-3c-.1 0 .2-.5.2-.5l.4-.2h.6l.6-.3.4-1.2.4-3.3-.4-3.2L309 85l1.5-.8 1.1-.3 3.8-.2 4 .3.7.2 1.2.8 2.2.6 1.3.2 1 .5.9.2h.5l1.8-.9h.4l1 .9.7.2.6-.5.7-.2h.6l.5.3.5.9.4.3h.6c0 .1 1-1.3 1-1.3v-1l1.4-1h1.2l.8.3-.3.3-.2 1.1v.5c.1 0 1 1.5 1 1.5l.8 1.8.3 2.2.9 1.6 1.4 1.1-.6.7-.8.3-.2.2v.3l1 .6v.4c.1 0-.2.9-.2.9l-.4-.5H341c0-.1-.6 0-.6 0l-.9 1.5-.3.9-.6.8-1.1 1.3-1.1.6-.2.3v.4l-1.4 2.9-1 .3-.8.6-.6.7v.8c-.1 0-.6 1-.6 1l-3.8 4.5-.6.7-.4.2h-.9l-.6.4-.4.9v1.3l-1.8 1.9-.7.5-.6.2-.2.7v.8l-.4.7-2.3 2v1l.4.6.4 1.3-.7-.5-1.4-1.4-1.4-2.6-1.2-1.7-.7-.4-3.1-.8h-1.2l-1.1.7-1 .2-1.7-.3-1.1.7-.2.4-1 .6-1.7-.4h-1.2l-.6.4h-.9Z"/><path id="AR-E" d="m292.1 158.6-.6-.8-2-1.1-1.7-3.3-.2-.7-.4-2.4v-1.5l.7-2.1-.3-2.1.6-5.4.2-.3h.4c0-.1 1.7-.3 1.7-.3l.9-.9 2.2-2.5 1.2-2.5.5-.4 2.7-4.2 1.7-2.9v-.6c.1 0 0-2 0-2l-.7-1.2h.9l.6-.3h1.2l1.7.4 1-.6.2-.4 1.1-.7 1.7.3 1-.2 1.1-.6h1.2l3.1.7.7.4 1.2 1.7 1.4 2.6 1.4 1.4.7.5v1.7c.1 0-1.2 4.9-1.2 4.9l-.9 1.9-.7.4v.3c-.1 0 .9.9.9.9v.9l-.6 2.2-.3.3-1.1.4-.4.7.6 1.3v.9l-.4 1.2.2.5.7.7v.9l-.5.6-.7 1.2v.7c-.1 0 .7 5.4.7 5.4v1.3l-.4.6h-2.3c0-.1-.2 0-.2 0v2.1l-.3 1-.6 1-.3 1.4-.2 2.9.2.5.7 1 .3 1.7v.4h-.9c0 .1-.8.6-.8.6h-.6l-.9-.8-3.2-2.1h-.8l-1.5-.4-1.9-.8-1.2-1.2-.9.4-1.3-.6-.7-.5-.7-.8-2.4-1.4-1.6-1.7-.8-.5Z"/><path id="AR-P" d="M269.9 45.7V26.3l1 .6 1 2.7 1.4 1.7.4 1.2.8.7.7.3 1.1 1v.7c.1 0 .9.6.9.6h.8c0 .1 1.6 1.6 1.6 1.6l1.7.8 2 1.4 1.1 2.4 1.5.5 2.8.5.4.6 3.2 1.1h1.3l1.4-.3 6.2 4.1 1.4 1.6 3.8 2 2 1.5 1.5.5h1.5c0 .1.9.4.9.4l1.1 1.3h1.9l1.3.8 2 .6 1.3 1 .3.7.7.7.4 1.1.8.6-.2 1.3-1.9 2.2-.7.5v.7l-1 1.5.4.5-1.6 1.3-.5.2-1.1 1.1v.6c.1 0-.7 2-.7 2v1.5l.5.7v.7c-.1 0-1.6 2.6-1.6 2.6l-.4.2-1.2-.7-2.2-2.3-2.2-1.7-1.1-1.3-2.6-.8-.7.2h-.8c0-.1-.4-.5-.4-.5l-.4-1.6-2.6-.6-.4-1.4-1.8-2.3-1.8-1.1-1.7-.8-.5-1-.2-1.1-1.7-1.8-1.2-1.7-3.3-1.6-2.6-2.1-.6-.7-.5-1.1-.6-.9-.3-.2-2.4-.4-1.1-1.1-1.1-.5-.5-.9-1.3-.9-.9-.2-1-.7-3.8-1.7Z"/><path id="AR-Y" d="m238.9 21.9-.5 1.5v1.1l-1.1 2.3v.6l1.1 4.4.5.5h1.6c0 .1.4.8.4.8v1.2l-.4 1.1v.3c.1 0 .9.4.9.4l.8 1.6v.5l.8.3.7-.5.8-.2 1.3.7.9 1 .8-.5.3-.5h2.1l.3 8-.2.8-1.3 1.9-1.2.2-1.2.8-.4.4-.6 1-2.2-1.9-.4.5-.6 1.2-1.4-.4-.9-.7H238l-2.7-.8-.6-.4-1.8-2.5v-.5c-.1 0 0-.7 0-.7l-.2-.3-1.3-1h-.3l-.4.1-.5-.6-.3-1v-1l.4-.6v-2.2l-2-1.3-1.8-.6h-.4c0 .1-.4 1.7-.4 1.7l.4 1.7v1.4l-1.4 4.1-.3.4-1.8-.3-1.9-.9-2.3-2.6-.7-.2-1.2-1 1.1-4 1.6-4.6-2-2.1.6-1.2 1.2-1V27c-.1 0 2.6-1.1 2.6-1.1l.4-2.3.5-.4h.8l2.9-.9.4-.5.9-3.5 1.6.6 1.7 1.2 1.2 1.6.7.5 6.1-.2Z"/><path id="AR-L" d="M258.5 240.2h-.6l-.7-.2-4.1-3-1.1-1.1-1.9-1.1-1-.5-2.2-.7h-1l-2.8-.6-2.6-.2h-1.4l-.9.3-1.3.2-.5-.4-1.5-.4h-.3l-.9.6-3.4-1.2-2.8-.2-1.5.3-2-.6-.3-1.3-.8-.8-1.4-.7-1.9-.6-1.2-.7-.7-.8-.4-1.6-.9-.2-1.2.6h-2c0 .1-1.1-.7-1.1-.7l-.5-1.1-.4-.6-.6-.3h-.5l-.5-.5v-1.4l.6-.6.7-.4.4-.8v-.6l-.2-.5-.8-1.1-1.2-.5-3.7-.3v-19h-.5v-2.2h34.8v-13.3h18.5v58.8Z"/><path id="AR-F" d="m239.6 117.9-.2.2-2.8.8-.9 2.8-.4.5-2.7 8.3V141l-1.2.3h-.6l-.9-.5-1 .2-1.4.6H226c0 .1-2.3-.1-2.3-.1l-.9-.4h-.8c0-.1-.5-1.2-.5-1.2l-.9-1.5-1.2-.9-.9-.9-.7-2.2.5-3.5-.8-.6.5-1.8-1-2-.3-.3-.6-.3-1.3-1.8-2-2-.3-1-.4-.5-3-2.4-1.2-1.2-.3-.7-3-2.5-1.7-.8-2.4-.6-1.4.4h-1.7l-.4-.1v-1.1c-.1 0 .7-4.3.7-4.3h.3l.2-.3v-.8c.1 0-.1-2.1-.1-2.1L196 102l-.5-1.7-2.1-1.7-1-.2-2.3-.8 1.3-1.1 2-2.3.6-1.6 1.1-.3.4-.8.4-1.6 2.7.3 2.4-.6h2.2c0-.1.2 0 .2 0v.3l-.2.7v1.8l.4.3h.5l2.5 1.2 1.3.2.9.4.2 1.1.3.5.5.7.5.2 1.1.3h.6l1.2-1.8h.3l1.1.7.4.5 2 .2h.8l.6-.8h.3c0-.1.6 0 .6 0l4.6 2 .5.6 1.1 2.6v1.4c.1 0 .4.5.4.5l2.6 1.4 3.4 3.1.5.9v1.2l.9 1.2 6 7.2Z"/><path id="AR-M" d="m182 196.5.3-.8-.2-2.4.4-.8.3-.3-.8-2.4.2-.3v-1.3l-.2-2-1.4-.9-.2-.7.3-.4 1-.2.8-.4.2-.3v-2l1.4-4.4.9-1.7 1.1-1.7V172l.6-.2h1.1c0 .1.8-.5.8-.5l-.9-6 .4-2.9 1-2.2-.3-1.4-1.1-.5h-.3l-.5.8h-.3l-1-1.5v-1.3c.1 0 0-.3 0-.3l.9-1.3.3-.9-.6-.3-1.1-1.2-.3-1.7.3-1.6-1.1-2.5.9-.2h2c0 .1 1.6-.3 1.6-.3h1.8c0-.1.4-.5.4-.5v-1.1l.4-.4 1.7-.8h.5l1.6-.7.7-.5.7.2.7 1.1.4.3h.9c0-.1.6 0 .6 0l1.2.8 2.1.6h.7l.2-.4.2-1 .3-.2 1 .4h1.4c0 .1 2.2-.4 2.2-.4l.6.4.3.8 1.1.9 1.8.4h1.1l1 .3 1.3 1.4.3.3.3.9.5 2.4.6 1.3-.3 2 .3.6.2 2.7v.4c-.1 0 .3 2.7.3 2.7l1.9 3.7.4 1.4.3.4.7.5 1 1.6.2 1-.2 1-.7 1v2c.1 0 .9 2.8.9 2.8l1.6 2.7.6 1.7.4 2.5v3l-.2 2.1-1.2 6.1.2.4h-18.2v2.2h.5v19l-1-.2-1.4-.7-3.3-1.8-1.1.2-1.3-.4-.3-.3-.2-1-.4-.7-2-.9h-1.5c0 .1-.7.4-.7.4h-.9c0-.1-.9-.4-.9-.4l-1-.7-1-1.4.3-1.1v-1l-1.4-.7-.5-1.2-1.3-1.4-1-.4-.6-1-.5-1.9h-.2l-.6.1-.2-.3-.2-1 .2-.3v-.7l-.1-.5-.6-.5Z"/><path id="AR-N" d="M339.2 84.3h.8l.5.9.9.4h.3l1.4-1.2.3-1.1v-.5c-.1 0 0-.6 0-.6l.3-.7 1.4-1.5 1.8-.6 1.3-.8.8-.8 1-.2.4-1.2.6-.4h.4l1.6-2.7.4-1.7V71l.2-.3v-.3l-.2-.4v-2.2l.6-.4-.2-3.5.3-.9h.6l1 .7.7-.6.8-.3h1.5l.8-.7 2.4 1.7.7 2v1.8l1.7 2.9.2.7-.2.7-.5.7v1.8l-.3 2.2.4 2.3-1.2 3-.3.5-.2-.3-1.6.5-.7.9-.5.3h-.3l-1.5 1.6-.8.4-1.9.4-1.7.8h-.9c0 .1-.2 0-.2 0v-.3h-.3l-.9 1.6v.7c-.1 0-1.3 1.3-1.3 1.3l-1.7.3-1.5.8-.6.6v.6l-.8.7-1.9.7-1.4-1.1-.9-1.6-.3-2.2-.8-1.8-.9-1.5v-.5c-.1 0 .1-1.1.1-1.1l.3-.3Z"/><path id="AR-Q" d="M168.3 243.6h.2l.5.6h.3c0 .1 1 0 1 0l.2-.3.5-2.3.5-1.5.2-1.3-.4-2.8v-1.1l.3-.7.6-.5 3.1-1.8h1.4c0-.1.7-.8.7-.8l.4-1.4v-.4l-.2-.5-1.2-1-.2-.5-.5-2.6.2-2.2-1.4-3.2-.6-1.9v-1l.6-.5.2-1.8-.6-1.1-.3-1v-.5c.1 0 .5-.4.5-.4l.4-1.7-.8-3.7 1.7-4.9h.2c0-.1.7 0 .7 0l2.7-1v-.3c.1 0-.1-.6-.1-.6l.2-1 1.3-1.4h1.3l.5-.4.6.5.2.5v.7l-.3.3.2 1 .2.3.6-.2h.2l.5 2 .6 1 1 .4 1.3 1.4.5 1.2 1.3.7v1l-.2 1.1 1 1.4 1 .7.9.3h.9c0 .1.7-.1.7-.1h1.5c0-.1 2 .8 2 .8l.4.7.2 1 .3.3 1.3.4 1.1-.2 3.3 1.8 1.4.7 1 .2v19.4l-2.5 1.3-.7.2-.8.7-.7 1.4-1.4 1.1-1.5 2.4-1.2.7h-.8l-1.3.9-1 1.7-1.3 1.1-3.1 1.1-2 1.1-.5.7-.3.8.2.8v1l-.8 2.4-1.3 1.7-2.2.7-1.3-.3-.9.4-.7.6-1.7.2-.8.3-1.1.7-1.3 1.2-.2.8.6.8.2 1-.3.8-1 1.1-.9.5h-1.6l-1.6-.7-3.6-.3.2-.8v-.6c-.1 0-1.2-2.7-1.2-2.7l1-1.2.2-.6v-1l.6-1.7.5.3h.2l.6-1.3v-.5l-.4-.3-.2.3-.8-.8-.3-.6.3-1.3 1.4-1 .4-1.4-.8-3.1v-1.4l.3-.8Z"/><path id="AR-R" d="m167.4 278.4-.3-2-1.4-3v-.4l.7-1.1-.2-1.7-.3-1.1.4-1.7.2-2.6-.2-.7 3.6.3 1.6.7.7.2h.9l.9-.6 1-1.1.3-.8-.2-1-.6-.8.2-.8 1.3-1.2 1.1-.7.8-.3 1.7-.2.7-.6.9-.4 1.3.3 2.2-.7 1.3-1.7.8-2.4v-1l-.2-.8.3-.8.5-.7 2-1.1 3.1-1.1 1.3-1.1 1-1.7 1.3-.9h.8l1.2-.8 1.5-2.4 1.4-1.1.7-1.4.8-.7.7-.2 2.5-1.3v-19.4l3.7.3 1.2.5.8 1.1.2.5v.6l-.4.8-.7.4-.6.6v.4c-.1 0 0 1 0 1l.5.6h.5l.6.2.4.6.5 1.1 1.1.9h2c0-.1 1.2-.7 1.2-.7l.9.2.4 1.6.7.8 1.2.7 1.9.6 1.4.7.8.8.3 1.3 2 .6 1.5-.3 2.8.2 3.4 1.2.9-.5h.3l1.5.4.5.4 1.3-.2.9-.3h1.4l2.6.2 2.8.5h1l2.2.8 1 .5 1.9 1.1 1.1 1.1 4.1 3 .7.2h.6v19.5l2.9.6 1.3.8 1.1 1.1 1.5 2.4-3.1 1.5-7.8.2-1.1-.5-.6-.7-.7-.4-1.7-.5-1.6-.9-4.6-1.8-.6-1.4-1.4-.3-.8.2-1.6 1.7-.5 2.1.2 1.8 1 4.7.7.8v.4c.1 0-.3 2.4-.3 2.4l.4 1.2-.8 2.3v.5l.1.8-.8-.2h-72.1Z"/><path id="AR-A" d="M258.4 64.1h-5.7l-3-1.1-2.5 5.6-.6 2.3h-3.4l-1.1.7h-.4l-3.6-1.2-.4-1.1h-.3l-1.1.5-2.4-.6-.2.2-.2 2.2-.2.3-2.9-.4-1.8-.4h-1.3l-.3.1-.7 1.6-.2.2h-.5l-1-1.1-1.2-2.4-1.9-2.6-.2-.8v-1c.1 0 .8-.5.8-.5h1.8l.9-.8.3-1.6-.8-2.3-.3-.3-13.4.2-7.4-1.4h.7c0-.1.7-.5.7-.5l-1.6-2.7-.5-.3-.2-.7v-.4l.7-1.3 1.3-2 .3-.2h.5l.7-1.1 10-4.5.9-3.4 1.2 1 .7.2 2.3 2.6 1.9.9 1.8.3.3-.4 1.3-4.1v-1.4l-.3-1.7.4-1.6h.4c0-.1 1.8.5 1.8.5l1.9 1.3v2.2l-.3.6v1l.3 1 .5.6.4-.2h.3l1.3 1 .2.3v1.2l1.8 2.5.6.4 2.7.8h1.8l.9.7 1.4.4.6-1.2.4-.5 2.2 1.9.6-1 .4-.4 1.2-.8 1.2-.2 1.3-1.9.2-.8-.3-7.9H248l-.3.5-.8.5-.9-1-1.3-.7-.8.2-.7.5-.8-.3v-.5l-.8-1.6-.8-.4v-.3c-.1 0 .2-1.1.2-1.1v-1.2l-.3-.6h-1.6c0-.1-.5-.7-.5-.7l-1.1-4.4v-.6l1-2.3v-1.1l.5-1.5h2.2l.2.2 2.8.9h.3l1 .4.5.6.2 1.7.7 1.2.2.8v.8l.9 1.1.3 1.6h.2c0-.1.2-.4.2-.4l.2-2.2.3-.9.3-.6 1.1-1.2 2-4.8h12.2l.2.2v1.1l.4.5 1.3 1 1.3 1.5 1.4 1 .6.2v22.7l-11.5 15.1Z"/><path id="AR-Z" d="m213.7 386.6-.8.9-.6 1.3.3.9-.7 1.2-1.2 1.4-.4.9h1.1c0-.1.8-2.1.8-2.1h.3c0-.1.2 0 .2 0l-.9 4.3-.8 5.6-.2.8-1 1.1-2 1.7-1.5.7h-.8c0 .1-.6 0-.6 0l-1-.9-.9-1.5-.9-.8-.2.3-.9.4h-1.8l-1.2.2-.4.3h1c0-.1.7-.5.7-.5l1.9.2.9-.2.3.3.5 1.3 1.4 1v.4l-.5.7-2.5.9-1.8 1-.6.5-.7.9-1.4 2.3-.4 1.2-.5 2.6v2.4l-1.1 1.4-.9.9-.8 1.1 1.1-1.2 1.2-.8.5 1.4v1.9c.1 0 2 6 2 6v.6c.1 0 0 .6 0 .6l-.5-.2h-.4l-.8.8-.8-.3-1-.6h-.8l-1.2.3-1.4.8 2.4-.6 1.4.3.8.4 1.8-.3h.3c0 .1.7 1.5.7 1.5l1.4 3.5 1.1 2.2 1 1.6.9 1.1 1.2 2 .3.8-.4.8h-.2v-.8l-1.5-.4-2.8-.5-1.8-1.3-2.6-1.1h-2.5l-5.8-2.6h-20.8l-.5-2.5-1.9-2-.8-.5-.9-.3-1.2-3.2.6-.5.4-1.5v-1.5l.7-1.3-.4-.6-.7-.4-.3-.4-.2-.9.7-1.3h.6l.2-.4.3-2.7-.4-.9-.6-.8v-.4l.4-1.3-.8-.7-1.3-.2-.6.2-.5.8-.6.2h-.3c0-.1-.7-.9-.7-.9h-.3l-1.5.8-.8 1.1-.7.5-.6.2-.5-.2-.2-.3-.6-2.4-.5-4.6-.6-1.3-2.1-1.7-.2-.5v-.5c.1 0 .7-.9.7-.9v-.5l-.9-1 .3-1.5.9-1-.8-3.1-.7-1.1 1.3-3.8h3.6c0-.1.5-.7.5-.7l-.9-.2v-.5c-.1 0 1-2.6 1-2.6l.8-1.1.3-.3.7-.4h1.1c0-.1.6-.4.6-.4l1.8-1.7.4-.8v-.8l-.2-2.4-.3-1.5v-.3l.5-.4 1.4-.7 1.5-.9v-2.6l-.3-1.8-.9-1.1h-.5c0-.1-.7-.8-.7-.8l-.2-.7.9-2.5 1.4-2.7.2-1.5-.6-.4v-.5c.1 0 .5-.4.5-.4l.6-.2h.7c0 .1.4 0 .4 0l.8-.9.7-1.2 1.5-.7.2-.2.2-.7v-.5c-.1 0-1.3-1.7-1.3-1.7l.4-3.5.2-.3 1.1-.2 1.4-1.3.2-.8v-1.8l-.6-1.7-.2-2.9-.2-.4-.7-.3-.7-.8 1.5-.5 1.3-1.8h44.2l-.4 1.1v1.6l.5 2.3.4 1.5.3.6 1.8 2.6 2.6 2.1 3.1 3.7 1.2.8h.7c0 .1 1.5 0 1.5 0l1.5.2.2.3 1.5.2h1.2l.5-.3h.7c0-.1 1 .4 1 .4l1.3 1.5.5 2.2-.2 3.3-.3 1.2-.9 2.3-.2.2h-1.2c0-.1-.3 0-.3 0l-.9.9-1.3.4-.2.3.3-.3h.9c0-.1 1.6-1 1.6-1h.2l.6.4 1.3 2v.5l-.4.1-.9-.4-.6.3.2 1.4-.2.7h-1.1c0 .1-2.9 3.1-2.9 3.1l-1.4 1.9-.9.2-1.2.5-1.8 2.1-1.2.3-1.6.9-.4.5-1.3 2.5-.7.3-1 .8-1.1 1.5Z"/><path id="AR-G" d="m239.1 91.3 1.1-.3.8-1.3-.7-1.7v-2.1l1.4-1.7h.6c0-.1.8-1.8.8-1.8l1.6-4.7h.4l.5-1.5h1l-.3-2.9.5-1.6v-1l.6-2.3 2.5-5.6 3 1h5.7l18.3.1v28.3l-4.1 26.7-1.9-4.8-10.2.2h-2.1c0-.1-.2-.8-.2-.8l-.5-.5-.5-.2-1.1-.2-1.3.2h-1l-2.1-1.2-.4-.6v-.4l-2.5-.8-6.7 1.7-1.2-2.2-.5-1.2-.4-2.9-.2-3.9v-.5c-.1 0-.4-.3-.4-.3l-.6-.3v-.6l1.1-1.4v-2.7l-1-4.4Z"/><path id="AR-S" d="m292.1 158.6.3.3v.5c-.1 0-1.6 2-1.6 2v.9c-.1 0-.7 1.2-.7 1.2l-.9.2-1.2-.9-1.9-.4-.8.2-.2.5v.4c.1 0-8.4 9.6-8.4 9.6h-12.4l10-16.2.4-.6h.4l.5-.3.5-1 .3-1.9v-.5l-1.1-1.6-.9-2.7-1.3-1.3-.4-1.4-.8-.6-.8-1v-2.8l-.3-2.5 1.2-1 3.1-11.6-1.7-.7-2-1.4v-1.4h.5l.6-3.7 4.1-26.7h31l-.4 1.2-.6.4h-.6l-.4.2-.3.5v3c.1 0-.2 2.5-.2 2.5l-1.2 4.9-1.9 1.9-1.3.6-1 2.3v2.6c-.1 0-.8 2.8-.8 2.8l.2.5.8 1.1v.5l-1.1 3.1.2.8.7 1.2v2.6l-1.7 2.9-2.7 4.2-.5.4-1.2 2.5-2.2 2.5-.9.9-1.7.2h-.4c0 .1-.2.4-.2.4l-.6 5.4.3 2.1-.7 2.1v1.5l.4 2.4.2.7 1.7 3.3 2 1.1.6.8Z"/><path id="AR-J" d="m183.9 146.4-.8-.3-.4-2.5.5-.5h.5l.4-1.1v-.3l-.8-.7h-1.2l-.5-.6-1.4-3.4.3-3.1.4-2.1.8-.8.2.2.7-.3.7-.8v-.4l-.4-.5v-.3l.1-1.3.5-1.8.6-1.5.8-1.5.9-.6h.6l.6-.3.4-.6.7-1.7v-.6l-1-1.8.2-1v-2.5l-.6-.5v-1.5l-.7-2.3v-1l1.4-1.9h.7l.5-.5v-1l.8-2.7-.3-1v-.6l.5-1 .3-.2.2-2.1 2.3.8 1 .2 2.1 1.7.5 1.7 2.1 2.1.3 2.1v.8c-.1 0-.3.3-.3.3h-.3l-.8 4.4v1.1c.1 0 .5.1.5.1h1.7l1.4-.4 2.4.6 1.7.8 3 2.5.3.7 1.2 1.2 3 2.4.4.5.3 1 2 2 1.3 1.8.6.3.3.3 1 2-.5 1.8.8.6-.5 3.5.7 2.2.9.9 1.2.9.9 1.5.5 1.1-2.6.2-3.7-.5h-.7c0 .1-.2.5-.2.5v2.1c-.1 0 0 3.6 0 3.6l.3.9-1.3-1.4-1-.4h-1.1l-1.8-.3-1.1-.9-.3-.8-.6-.4-2.2.5h-1.4c0-.1-1-.5-1-.5l-.3.2-.2 1-.2.3h-.7l-2.1-.5-1.2-.8-.6-.2h-.9c0 .1-.4-.2-.4-.2l-.7-1.1-.7-.2-.7.5-1.6.6h-.5l-1.7.9-.3.4v1.1l-.4.3h-1.8c0 .1-1.6.6-1.6.6h-2c0-.1-.9 0-.9 0"/><path id="AR-D" d="m215.3 147.5-.3-.9V143c-.1 0 0-2.1 0-2.1l.2-.4h.7c0-.1 3.7.4 3.7.4l2.6-.2h.8c0 .1.9.5.9.5l2.3.2h1.5c0-.1 1.4-.7 1.4-.7l1-.2.9.4h.6l1.2-.2h1.3l3.5 2.2.7.7.6 2.7h1.5l1.2-.4.3.3.4 3.1v.9l-1.4 4.9-1.4 2.6.5 10.4v26.4h-16.6l-.2-.4 1.2-6.1.2-2.1v-3l-.4-2.5-.6-1.7-1.6-2.7-.7-2.8v-2c-.1 0 .6-1 .6-1l.2-1-.2-1-1-1.6-.7-.5-.3-.4-.4-1.4-1.9-3.7-.4-2.7v-.4c.1 0 0-2.7 0-2.7l-.3-.6.3-2-.6-1.3-.5-2.4-.3-.9-.3-.3Z"/><path id="AR-V" d="m207.6 489.9-.9-.4-1-.2-.7.2-.3.3-2 .2-.4-.2-.9-1.1.2-39.4 1.8 3.1 1.3 1.4.4.7.4 1 .4 2.1v.2h-.2l-.6-2-.4-.2-.4.2-1.9 2.2-.3 1.1.3.8.5.6 1 .6h1.3l.9-.2.4.2.8 1.6.5 2.6.6 1.3 2 2.1 2.4 2.2v1l.2.6 3.2 2.8 3 2.1 3 1.8 1.8 2.4 3.3 2.3 4.7 2.2 1.1.3 4.4-.7h.9l.9.4-1.1 3-1.2 2.2h-.5v-.2l-1-.2-1.3.6h-1.1c0-.1-.2-.5-.2-.5l-.4-.2h-1.8l-.8 1.1-1 .5-.9.2h-2.1l-.8 1.2H224c0-.1-.9-.4-.9-.4l-1.8-1.6-2.3-.7-5.2-.6-2.4.2-3.1-.5zm36.9 1.1v-.7l-.3-.4h-.5v-.3l.2-.5.5-.6h.3l.8.4 2.4-1 .4-.4 1.8.3 1.6-.2 1.2-.3h.9v.3l-.6 1-.9.5-.2-.4-.4-.2-1.4.8-1.3.4v-.7l-.8-.3-1.1 1-1.7.5-.7.6h-.4Zm-43.1-1.9.6 1.1.3.3-.5.3h-.4v-1.6Z"/><path id="AR-T" d="M239.1 91.3h-.8c0 .1-1.1-.6-1.1-.6l-1.8 1.3-.7 1-1.1-1.3-.4-1.5-.7-.4-.4.2h-.3l-1-1.8-.6-2.8-1.2-1-1-.3.5-1.2 2.9-3.6.3-2.4-.2-.5-1.7-1.3-2.1-.6v-1.8l.6-1.5v-.6l1.8.4 2.9.4.2-.3.2-2.2.2-.2 2.4.6 1.1-.6h.3l.4 1.1 3.6 1.3h.4l1.1-.8 1.1.2h2.3v.9l-.5 1.6.3 2.9h-1l-.5 1.5h-.4l-1.6 4.7-.8 1.7h-.6c0 .1-1.3 1.8-1.3 1.8v2.1l.7 1.7-.8 1.3-1.1.3Z"/></g></svg>