<?xml version="1.0" encoding="UTF-8"?>
<svg id="Layer_1" xmlns="http://www.w3.org/2000/svg" xmlns:amcharts="http://amcharts.com/ammap" version="1.1" viewBox="0 0 512 512">
  <!-- Generator: Adobe Illustrator 29.1.0, SVG Export Plug-In . SVG Version: 2.1.0 Build 142)  -->
  <g id="_x3C_defs">
    <amcharts:ammap bottomLatitude="-22.902203" leftLongitude="-69.657430" projection="mercator" rightLongitude="-57.519879" topLatitude="-9.678570"/>
  </g>
  <g>
    <path id="BO-B" d="M142.3,230.1l-9.9-10-1.7-1-.6-4.9-5-8.4-.7-.7h-2.6s-1.9-1.4-1.9-1.4l-.7-3.1.7-3.4-.3-1.7-3.3-3.4-1-3.1v-4.3c0,0-.6-5.5-.6-5.5l1.3-3.7-.6-7.2,1.4-8.4,1-2.6,1.1-.5,3.2-4.4v-.8c0,0-1.1-.6-1.1-.6l-.8-4.3.3-1.1,2.2-3.3,1.6-.8,4.7-5.9,3.6-2.9,4.1-14.5-.6-2.7.4-5.7.4-.6h0l1.1-1.6-.5-2.2,1.7-8-2.2-5.4.6-5.7.5-.8,4.8-1.6,1.8-1.5-.3-2.3.8-3.7.7-1.1,2.4-.5h5.4c0,0,5.8-3.3,5.8-3.3l1-1.6v-1c0,0,6.8-10.8,6.8-10.8l1.1-3.5-1.8-.6,2.7-2.1,3.2.4,6-4.2,3.8-4.4,4.6-2.8,2.6-3.1,2.2-.4h0l-.2,1.7-1.4,1.1v5.2c.1,0,1.8,4.9,1.8,4.9l2.6,4.5.5,3.8-3.5,6.6.4,3.8,2.9,7.9,3.1.9,1.9,3.5-1.4,3.5.6,1.5,1.5.7,1.1-2.6,2,2,1.6,7.8,1.2,1.5,6.2.6.7.5,1.9,3.9,4.3,2.2,3.6,1.1.7,4.5,2.7,2.7,1.7,1,7,.6,4.9,1.2.7.7,3.3.4,2-1.9,2.6-1.2,4.5.4,7.1,3.6,2,3,3.2,1.8h2.8c0,0,4-2.5,4-2.5l2.4.9.6,3.2,2,3.3,3.5,2.2,4.5,3.8,2.9-1.4,1.5,1.4v.9s9.3,4.1,9.3,4.1l4.1-.2,1.9-.7,3.6,1.2,1,4.3,2.9,3.3,4.6,3.3,1.2,3.1,1.1.4,7.7-1.5h0l-70.9,40.9-13.6,3.8,1.2,4.4-.7,8.1,3.2,8.1,6.8,10.4,1.8,1.8,4.9,2.7,4,7.2-1,.6-39.1-1.6-6.5-.9h0l-17.9,2.3-3.2,6.3.3,1.4-1.8,5.4-1.3,2.1-3.1,1.6-5.4,1.7-7.5,2h-2.6s-7.7-2.1-7.7-2.1l-5.2-3.4-7-7.7-1-1.4-1.1-3.3-1.6-2.1-8.6-8.3Z"/>
    <path id="BO-C" d="M148,314.7l-2.8-6.3-3.6-4.8-6.6-5.2h0l5.6-3-2.2-11-4.7-7.1,2.8-5.5,4.4-.4,1.9-1,.7-1.3.8-5.1v-1.5c0,0-1-2.1-1-2.1l-1.1-8.3-3.3-6.3-1.2-1.3-.2-9.6,1.9-2.7,2.9-2.2h0l8.6,8.3,1.6,2.1,1.1,3.3,1,1.4,7,7.7,5.2,3.4,7.7,2.1h2.6s7.5-2.1,7.5-2.1l5.4-1.7,3.1-1.6,1.3-2.1,1.8-5.4-.3-1.4,3.2-6.3,17.9-2.3h0l-.8,2.4.2,3.1,1.4,5.9.7,7.8-2.1,6.1-3,6.3v3.1c.1,0,3.1,6.5,3.1,6.5l12.7,8.6,4.4,5.6-.2,2.6h-4.3s-2.1,1.6-2.1,1.6l-.5,2.9-5.7,8.3-4.5,4.2-.3.8v1.3c0,0,2.7,2.8,2.7,2.8l5.5,9,1.9,6.2,4.4,3.1.4,3.6-1.8,2.6h0l-1.1-2h-1.5c0,0-1.4,1.5-1.4,1.5l-3.5.8-2.6-1.4-2.3-3.7-4.1-1.5h-2.3s-5.3,3.3-5.3,3.3l-1.2,1.4.2,2-6.8-3.5-.4-1.8-3.3-4.1h0l-4.6-3.6-8.2-9.3-6.1-3.8-1.9.4-3.8-4.7-2.1-.3-3.1.6-5.6,4.3-10,.2Z"/>
    <path id="BO-H" d="M197.4,448l-7.6-7-1-3.2.3-7,1.1-3.3.5-5.5,4.6-11.9-2.5-10.1v-2.2c-.1,0,1.6-6.2,1.6-6.2l3.3-2,6.8-1.1,5-2.8,3.9-3.8,1.9-2.7-2.4-3.5-1-3.4v-1.6c.1,0-1.1-3-1.1-3l-2-1.7-2.7-.2-1.9.9-3.5-.2-5.5-2.5-2.8-1.9-.3-1.1-4.5-5.5-.8-2.4,1.5-3-.3-4.5,2.8-2.7.2-1.5-.7-.6-5.9-1-.9-4.8-1.4-3.4.3-2.9,10.5,2.8.8-.4h0l3.3,4.1.4,1.8,6.8,3.5-.2-2,1.2-1.4,5.3-3.4h2.3s4.1,1.5,4.1,1.5l2.3,3.7,2.6,1.4,3.5-.8,1.4-1.5h1.5c0,0,1.1,2,1.1,2h0l.9.6v2.5c0,0,1.3,3.1,1.3,3.1l8.3,9.4,1.5,3.3,1.6.3,1.5-.8.7-3.6.5-.6h5.1c0,0-1,7.9-1,7.9l1.3,18.2v7.8c0,0,1.1,3,1.1,3l.3,2.7.5,12.8.6.5,5.4.5,3.2-2.1,4.6,2.6h38.8c0-.1-2.5,3.3-2.5,3.3l.3,16.6h-61c0-.1-2.3-1.8-2.3-1.8l-1-1.4-3.7-1-.9,8.3-1.2,1.3-4.7-.3-4.7-1.9-5.4-5.4-2.4-.4-1.3,2.1-1,3.7-1.8.4-2.9-2.2-5.9-3-2.9-.3-.5,1.1-2.2,21.3Z"/>
    <path id="BO-L" d="M142.3,230.1l-2.9,2.2-1.9,2.7.2,9.6,1.2,1.3,3.3,6.3,1.1,8.3,1.1,2.1v1.5c0,0-.9,5.1-.9,5.1l-.7,1.3-1.9,1-4.4.4-2.8,5.5,4.7,7.1,2.2,11-5.6,3h0l-4.3-5.4h-2.4s-4.4,1.4-4.4,1.4l-16,10.5.7,3.3-.6,1.2-1,.5-1.2-.2-7.3-5.5-4.8-2.1-6.5-.4-4.4.4-4.6,2.4-4.1,5-4.2,3.3-9.1,3.5h0l-7.7-2.2-.9-1.9v-3.8c-.1,0-1.4-3-1.4-3l-4.7-4.2-.5-9.4-3.2-3.1-2.3-.3,1.3-2.7,3.1-3.1,5.1-2.8,2.4-4.7,4.6-5.5,6.4-4.5-1-4,.3-2.8,1.5-2,5.6-2.4.3-1-.5-1-1.9-.5-2.7-2.7h-2.7s-.9.7-.9.7l-2.5-.2-2.6-2.4-7.4-19.7,5.4-10.8,2.6-2.4,1.9-.3.2-1-5.6-5.4-3.1-4.2.6-6,1.9-1.2,2.2-2.9.5-3.6,8.9-7.7-.6-1.5v-3.2c0,0,.5-.6.5-.6l4.6-1.1-1.4-6.1-2.7-2.4-1.4-6.4-1.7-3,3-5.1.6-2.2-.4-23.3,3.3-3.9,2.3-.9,2.6-5.4,2.5-3h1.3c0,0,5.7-3,5.7-3l1.5-2.3,1.1-3.2,4-2.8.3-4,.9-1.7,7.8-2.8,1.6-1,.5-1,26.6,11.9,10.8,5.4h0l-.4.6-.4,5.7.6,2.7-4.1,14.5-3.6,2.9-4.7,5.9-1.6.8-2.2,3.3-.3,1.1.8,4.3,1,.6v.8c0,0-3.1,4.4-3.1,4.4l-1.1.5-1,2.6-1.4,8.4.6,7.2-1.3,3.7.7,5.5v4.3c0,0,.9,3.1.9,3.1l3.3,3.4.3,1.7-.7,3.4.7,3.1,1.9,1.4h2.6s.7.7.7.7l5,8.4.6,4.9,1.7,1,9.9,10Z"/>
    <path id="BO-N" d="M75.2,113.5l-8.9-18.2-22.9-37.8,5.5-.5,12,1.1,8.1,1.8,3.1-.5-.2,4.8h2.3c0,0,4.4-1.2,4.4-1.2l1.9-1.6,8.6-2.9,5.6-7.9.8-1.9,1.5-1,1.6-.6h5.4c0-.1,1.7.2,1.7.2l2.7,1.7,1.4-.7,1-2.7,3.3-4.2,4.7-2.3,4.4-3v-1.3c.1,0,3.6-.4,3.6-.4l1.5.4,3.8-2,6.5-6.4,4.7-3.6,3.6-1.5,1-1.5,5.4-.9,1.5.2,12.8-4.1,11.8-.2,5,2.3h1.3s1.9-2.2,1.9-2.2v-1.2c.1,0,2.6-2.2,2.6-2.2l2.3.9,2.7,5-1.2,3.8.2,3.5.9,2,.5,4.2-.8,2.5-2.4,2.4-.6,1.4h0l-2.2.4-2.6,3.1-4.6,2.8-3.8,4.4-6,4.2-3.2-.4-2.7,2.1,1.8.6-1.1,3.5-6.9,10.8v1c0,0-.9,1.6-.9,1.6l-5.8,3.4h-5.4c0,0-2.4.5-2.4.5l-.7,1.1-.8,3.7.3,2.3-1.8,1.5-4.8,1.6-.5.8-.6,5.7,2.2,5.4-1.7,8,.5,2.2-1.1,1.6h0l-10.8-5.4-26.6-11.9-.5,1-1.6,1-7.8,2.8-.9,1.7-.3,4-4,2.8-1.1,3.2-1.5,2.3-5.7,2.9h-1.3Z"/>
    <path id="BO-O" d="M60.9,316.5l9.1-3.5,4.2-3.3,4.1-5,4.6-2.4,4.4-.4,6.5.4,4.8,2.1,7.3,5.5,1.2.2,1-.5.6-1.2-.7-3.3,16-10.5,4.4-1.4h2.4s4.3,5.4,4.3,5.4h0l6.6,5.2,3.6,4.8,2.8,6.3h0l-.5,1.1-3.6,1.6-.4,3.3.2,1.6.7.9,2.1.9,2.2-.3,2.8.7-.3.8-5.1,3-.5,5.1,1.6,3.6,4.3,3.9,4,1.5,3.9.7,1,.8,2.7,7.5,5.5,6.9v.8c.1,0-.5.8-.5.8l-13.5,1.3-2.8,1.6-6.4,5.6-36.6,15.6-30.1-10.4h0l4.6-5-1.7-2.4-2.1-1.9-3.2-1.4-5-5.2-4.2-2.9-2.3-4.2,1.2-2.6-2.4-5.2-.9-3.2v-6.5s-1.8-3.4-1.8-3.4l-.6-6.1-2.1-2.9.3-1,2-1.4.3-1.8Z"/>
    <path id="BO-P" d="M197.4,448l-.6,3.7-1.3,1.6-1.4,4.6,4.3,5.9,1.2,5.2-.6.2h0l-19.9.6-2.2-1.5-4-5.3-5.4-3.9-5.2-2-3,11.3-1.4,1.5-9.6,2.9-2.6.2-1.7,1.2-1.4,7.6-8.8,3.7.4,4.2-4,3.3-2.1,3.9-14.1,3.1-7.6-.9-3-1.9-.3-4.4,1.2-6.1-2.9-9.7.4-2.3-.8-5.1-1-1.7-4-3.8-.7-8.2-1.2-3-1.7-2.2v-11.9c0,0-8.5-13.6-8.5-13.6h-2.9s-1.9-1.8-1.9-1.8l-.2-6,1.3-1.7,2-1.4.2-.8-2.9-2.4-5-2.4-2.2-3.1v-1.9c0,0,1.7-1.3,1.7-1.3l-.6-3.8-2.3-4.6.3-1,4.5-1.2h2.6c0-.1,1.9-5.3,1.9-5.3l-1.6-3.1-4.4-3.4v-1.5c0,0,4.2-5.1,4.2-5.1h0l30.1,10.4,36.6-15.6,6.4-5.6,2.8-1.6,13.5-1.3.6-.8v-.8c-.1,0-5.7-6.9-5.7-6.9l-2.7-7.5-1-.8-3.9-.7-4-1.5-4.3-3.9-1.6-3.6.5-5.1,5.1-3,.3-.8-2.8-.7-2.2.3-2.1-.9-.7-.9-.2-1.6.4-3.3,3.6-1.6.5-1.1h0l10-.2,5.6-4.3,3.1-.6,2.1.3,3.8,4.7,1.9-.4,6.1,3.8,8.2,9.3,4.6,3.6h0l-.8.4-10.5-2.8-.3,2.9,1.4,3.4.9,4.8,5.9,1,.7.6-.2,1.5-2.8,2.7.3,4.5-1.5,3,.8,2.4,4.5,5.5.3,1.1,2.8,1.9,5.5,2.5,3.5.2,1.9-.9,2.7.2,2,1.7,1.2,3v1.6c-.1,0,.9,3.4.9,3.4l2.4,3.5-1.9,2.7-3.9,3.8-5,2.8-6.8,1.1-3.3,2-1.8,6.2v2.2c.1,0,2.6,10.1,2.6,10.1l-4.6,11.9-.5,5.5-1.1,3.3-.3,7,1,3.2,7.6,7Z"/>
    <path id="BO-S" d="M415.8,365.4l-31.5-1.9-22.5,6.1-40.2,7-6.1,16.4-10.2,14.8h-38.8c0,.1-4.6-2.5-4.6-2.5l-3.2,2.1-5.4-.5-.6-.5-.5-12.8-.3-2.7-1.1-3v-7.8c0,0-1.4-18.2-1.4-18.2l1-7.9h-5.1c0,0-.5.6-.5.6l-.7,3.6-1.5.8-1.6-.3-1.5-3.3-8.3-9.4-1.2-3.1v-2.5c0,0-1-.6-1-.6h0l1.8-2.6-.4-3.6-4.4-3.1-1.9-6.2-5.5-9-2.6-2.8v-1.3c0,0,.2-.8.2-.8l4.5-4.2,5.7-8.3.5-2.9,2.1-1.6h4.3s.2-2.7.2-2.7l-4.4-5.6-12.7-8.6-3-6.5v-3.1c-.1,0,2.9-6.3,2.9-6.3l2.1-6.1-.7-7.8-1.4-5.9-.2-3.1.8-2.4h0l6.5.9,39.1,1.6,1-.6-4-7.2-4.9-2.7-1.8-1.8-6.8-10.4-3.2-8.1.7-8.1-1.2-4.4,13.6-3.8,70.9-40.9h0l.6.7,3,1,16.1-2.2,2.9,3.3,5.9,3.5h1.7c0,.1,2.4,2.2,2.4,2.2l7.1,2.4,3.3,6.7-1.5,2.9-1.4,1.3-.6,2.4,1.1,4.5,6,12.1.8,17.2h-11.1c0,.1,12.2,14.1,12.2,14.1l2.4,28.8,61.2,2.5.9-.4.9-1.4h2.2c0-.1.1,4.2.1,4.2l-.8,4-2.6,2.5-2,3.7.4,8.3,1.4,4,.5,6.7.7,2.6.7.7,4.3,1.7,4.6,3.2,1,1.6,2.7,1.6h1.2c0,.1,2.9-1.3,2.9-1.3l5.5,4.9-1.2,1.6.7,1.8,1.5,1.5v4.4c0,0,7,13.3,7,13.3l-1.5,2.6-7.4,23.5,1.7.3.6,4.9h-2.6c0,.1-12.2,26.1-12.2,26.1l9.6,8.8-1.7,2-9.2,5.2.9-3.2-.6-9.4-33.6-18.1Z"/>
    <path id="BO-T" d="M289.6,474.7l-4.3-3.2-1-1.5-.3-3.8-.6-.8h-40c0,.1-6.6,15.8-6.6,15.8l-3.4,3.9-1.1,2.1-.9,3-.8,7.2-.5,1.1-.8.4-.9-5.1-3.2-3.6.3-2.4-.6-2.5-2.3-4-.7-5.7-1.6-1.8-3.2-1.4-1.1.3-9-2.8-.7-.6h-7.2c0,.1.6,0,.6,0l-1.2-5.2-4.3-5.9,1.4-4.6,1.3-1.6.6-3.7h0l2.2-21.3.5-1.1,2.9.3,5.9,3,2.9,2.2,1.8-.4,1-3.7,1.3-2.1,2.4.4,5.4,5.4,4.7,1.9,4.7.3,1.2-1.3.9-8.3,3.7,1,1,1.4,2.3,1.7h61c0,.1,0,2.2,0,2.2l-13.7,45Z"/>
  </g>
</svg>