<?xml version="1.0" encoding="UTF-8"?>
<svg xmlns="http://www.w3.org/2000/svg" xmlns:amcharts="http://amcharts.com/ammap" version="1.1"
  viewBox="0 0 512 512">
  <!-- Generator: Adobe Illustrator 29.1.0, SVG Export Plug-In . SVG Version: 2.1.0 Build 142)  -->
  <defs>
    <amcharts:ammap bottomLatitude="-33.744725" leftLongitude="-74.008595" projection="mercator"
      rightLongitude="-34.789914" topLatitude="5.275696" />
  </defs>
  <g>
    <path id="BR-AC"
      d="M42.5,192.9h-1.6s.3-2.1.3-2.1l-1.2-.9v-1.2c.1,0-.5-1.5-.5-1.5l-.8-.5-4.3-1h-5.7c0-.1,2.8-3.3,2.8-3.3v-1.9c0,0-1.1-1-1.1-1l-1.3-2.3-1.3-.5-.9-.9-.7-1.8-1.5-1.2-1.4-4.1-1.5-.8v-.9c0,0,.6,0,.6,0l.3-.4v-.8c-.1,0-1.7-.7-1.7-.7l-2-2,.9-1.3v-1s2.7-.6,2.7-.6l-.2-1-.9-1.2h0l13.9,5.8,27.7,6.8,20.5,11,22.1,9.4h0l2.3,1h0l-3.1,2.1-2.2,2.2-1.3.7h-1.7v.4s-3.1,1.8-3.1,1.8l-1.5,2.3-.5.2-1.5-.7-2.4.2-2.7,3.7-3.6,1.5-2.3.4v-1.6c0,0-7.8-.8-7.8-.8l-3.9.3-.5-.4h-1.8c0-.1-2.8,1.3-2.8,1.3l-2.1.5-1.3-.5-1.1-1.1-1.3.9.3-17.5,1.1-1.8-.9.2-3.5,2.8-1.6,1.8-1.5.5-.5.8-1.4.8h-9.1Z" />
    <path id="BR-AL"
      d="M454.3,187.1l-.2-.6-2.2-.8-.4-1.1h0l1.5-1.7,1.7-.6,2.5-3.5.8.9h2.1c0,.1,3.4,3.3,3.4,3.3l2.9,1.2,1.9-.5h3.3c0,.1,1.4-.7,1.4-.7h.9s1.4-.8,1.4-.8l3-3.1,1.5-.2,1.7.7,3.1-1.1,3.9,1h0l-2.2,3.8-6.3,6.7-2.4,3.5-2.6,2.2-1.8,3h0l-.5-1-5.8-3.5-1-1.9-4.2-2.4-2.9-.7-5-2.3Z" />
    <path id="BR-AM"
      d="M147.4,45.3l1.1.9,1.8-.2v.7s1,.9,1,.9l2.5.2,1.9,1.2-1.3,3.7,2.1,2.9,1.3,3.7v1.8c.1,0,.9,1.2.9,1.2l-1.3,1.1.8,2.5-1,3.1.2,3.9.7,1.7,1.4,1.3.9,3.4-.9,1.5-1.4-.3v.9c-.1,0,3.8,3.4,3.8,3.4l1.9,1,2,2.9,1.4-.3,1.8.8-.3-1.6.6-1.8v-2.7c0,0,.5-2.3.5-2.3l.8-1,2.6-1.1.4-.7h1.2s2.2.7,2.2.7l1.4,1.6.7,1.9,1.4.2,2.1-1.4,1.6-.4.3-.7-.9-1.1v-1.1c0,0,.9-2.9.9-2.9l3.1-4.9v-.5s14.3,0,14.3,0h0v6.6c.1,0,1.8,1.5,1.8,1.5l-.3,2.2,1.4,1.5h.8s1.4,1,1.4,1l.7,2.5,3.6,2.9,3.5,2,1.5,1.5,7.1,2.8,1,1.5,2.1,1.1.9,1.7,1.4.6,1.7-.7v1s1.4,1.3,1.4,1.3l-23.2,49.8-2.2,2.6.6,2.7,2.3,2.1,1.1,2.9h0l-1.1,1.4v2s-1.9,2.6-1.9,2.6l.9,3.2-2,7.3-.9.6-37.1.2h0l-.2-.8-1.1-.2-1.5.8-.4,1.3h-.5c0,.1-2.5-1-2.5-1l-.5-2.2-1.6-.2-1-2.5-2-.8-1-1-1-1.9-1.7-.9h-8.4s-1.1,2-1.1,2l-1.3.4v.9c0,0-2.1.6-2.1.6l-.9,1.2v.5s.8.9.8.9l-.9,1.7-1.6.9v2.5c.1,0-2.9-.4-2.9-.4l-1.7.3-.9.8-2.4-.5-1.4,1-.4.7.2,1.4-2,2.4-1.1-.3-.8-1.8-2.4,1.7-2.5.6-.4,1-.9.6-2.6-2.1h-5.3c0,0,0,1.5,0,1.5l-1.2,1.4-1.5.4-2.5,2h0l-22.1-9.4-20.5-11-27.7-6.8-13.9-5.8h0l.5-2.8.9-1.1,3.8-2.7,2.1-.4.8-1.2v-.8c0,0-1.3-3.5-1.3-3.5l1.2-2.6,2-2.8v-2.4s.8-3.4.8-3.4l.6-.6,4.5-2.2.9-.8.3-1.1,1.7-.4,4-2.8h3c0-.1,5.8-1.9,5.8-1.9l2.6.3,1.5-2.4.8-.5,1.7.2.5.4,1.9-.8h1.3c0,0,.2,1.4.2,1.4l1.2,1h2.2c0,0,.8-.9.8-.9l6-32.9.9-2.3-.7-4-1-.8-1.1-2.1.5-1.5-.4-1.4-4-2.6-1.5-1.8.2-8.9,3-.2,1.4-.9,2.7-.7,2.1,1.4,1.9-.2-.4-1.3.2-1.3-1.5-2-.9-.5-1.2.4-2.2-.5h-2.8c0,0,0-7.6,0-7.6l3.5-.9,2.2.7h14.7s-1-.6-1-.6l-.3-.9.7-1.5,1.1.3,1.1,2.2,1.2.3,1.2-.5,2.7-3.2,2-1.1,1,.4,3.2,5.9v5.4s2.4-.6,2.4-.6l7,5.7,1.9.2,1.8-.8,3-2.2h1.7c0,0,1,1,1,1v.8s-.9,1.3-.9,1.3l.7,1,1-.6,1.4-2.6,1.6-.2.7-2.3,3.8-1.9.8.4.7-.2,1.2-.8.8-1.2,1.6-.9,1.6.4,2.3-1.9.3-3.1.6-.7,3.2-.6,1.6-1.2,2.5-.5.2-1Z" />
    <path id="BR-AP"
      d="M286.2,85.9l-2.3.3-2.2-.5-1.1-.8-.3-1.2-1.4-1.1-.2-2.8-1-.5-.3-.7v-1.9c0,0-2.2-2.5-2.2-2.5h-1.2c0,.1-1.2-2.6-1.2-2.6v-1.2c.1,0-1.4-3-1.4-3l.2-4.1-2.1-.8-1.6-1.8-.6-2.2.7-.7-.4-.9h-.5s-2.2-2-2.2-2l-1,.4h-1.7c0-.1-1.5-1.5-1.5-1.5h-.9c0,0-.9-1.7-.9-1.7l-1.5-.8-3.6-.7-1.7.2-.4-1.5.2-3.5.5-1-.3-1.8-.5-.4h1c0,0,0,1.6,0,1.6h1.8c0,.1.9,1.4.9,1.4l4.3,1.2,4.4-3.1.5.7,2.1.7,2.5-1.2,1.1,1-.2.7h1.8c0-.1,1.6.4,1.6.4l3.4-2.4,1.4-1.8v-1.2c.1,0,2.6-5,2.6-5v-1.4c0,0,1.5-1.2,1.5-1.2l2.8-4.5.2-.9,2-2.1.5-1.3,2.8-2v-2.8c0,0,3.4,2.8,3.4,2.8l1.1,1.9v1.2s.4.2.4.2l.5-.4.2.3.2,6.1.5,3,2.1,4.7,2.1,6.9,2.6,3.9,3.3.2,3.2,1.4.6,2.1v2.6c-.1,0-2.8,1.3-2.8,1.3l2.2-.4.3.6v.6c-.1,0-4,3.1-4,3.1l-.9,1.6-1.7,1.1-1.5,2.9-2.3,2.7-2.4.7-1.6,2.3h-1c0,0-1.7,2.1-1.7,2.1l-1.6,3.2-3,3.2v3.3c-.1,0-1.7,1.4-1.7,1.4h-.7ZM304.3,49.5l-1.2-1.7v-.7c0,0,1.5-.7,1.5-.7l1,2.1-1.3,1ZM306.2,63.1l-.4-.7.9-.9h1.6c0,0,.7-.5.7-.5l-.7,1.6-2.1.5Z" />
    <path id="BR-BA"
      d="M427.6,291.7l-.3-.6.5-1.5-.4-.8-3.2-2.4v-1.6s-.4-1-.4-1l-1.1.5,1-6,.6-.7,1.9.2.8-.6-.4-1.1v-2.1c.1,0,4-3.3,4-3.3l1.1-2.4-.9-1.7-1.3-.3-2.2-1.9h-1.6s-3.4-1.3-3.4-1.3l-3.6-.6-2.2,1.1-2.5-.2-.3-3.1-5.1-4.8-3.7.8-1.2-1h-1.1s-2-1-2-1l-1.7-1.3h-.8c0,.1-3.4-2.7-3.4-2.7l-3-1-2.8.9-1.1,1-4.1-1.1-.5-.4-.2-1.2,1.1-2.8-2.4-.8-4-.5-3,1.2-3.3,2.3-.5.9-2.6,1.4-1.6.3-2.1,2.1-1.9.3-2.2,2.6-2.2-.2-1.6,1.5-.3-.2,1.1-2.7-.4-1.9h0l1.3-2.1-.7-2.3.6-2-2.5-2-1.3-2.7-.5-2.7,1-4.2,1.4-1.1v-.7s-1.3-.9-1.3-.9l.4-2,1.1-1.1-2.1-1.9h0v-.7s1-1.8,1-1.8l-.2-1.2-1.9-.9v-3.9c0,0,3.1-2.2,3.1-2.2l-.7-.9h-1.5c0,0-.3-.7-.3-.7l.3-.7,2-1v-.6s-1.5-.8-1.5-.8l-2.8-.5-1.4-1.5-.2-.7,1.2-1.5,1.2-2.7,1.8-1-.9-1.7,2.5-2,3-1.6,1.1-1.6h1.8s1.1,1,1.1,1l.9,2.5,1.4,1.9,3.2,1.4,1.4-.4h1.6c0,.1.8-1.1.8-1.1l.9-.3,1.4-1.4,1.7-.6,2.2.5,1-.3,2.3-1.9,3-5.3v-2.9c.1,0-1.6-3.4-1.6-3.4v-.7s2.5-1.3,2.5-1.3h1.5s1.2.3,1.2.3l.6.9,2.7-.8,1,.3,1.3.8v.7s.7.2.7.2l4.8-.7,1.8-2,2.1-.3,1.2-1h1.7s.7.5.7.5l1.4-1.4v-1.9c0,0,2.1-.2,2.1-.2l.8-.5,1.5-2.7h0l3.3.3,2.2,1.1.8,4,1.7.7.2,1.5-.7,1.3,1.4.5,3.6-1.6,1-3.4,1.7.3,1.9-.8.9-1v-1.5c0,0,1.9-.5,1.9-.5l.6-1.6,3.7-1.5,1.2.4.6,1.1,1.1.6,4.1.9,1.2.9.7,1.5.6-1.5,1.1-.3.4.7-.5.7.7.9,1.6.7,1,3.1h0l.4,1.1,2.2.8.2.6h0l-.5.9.2,1.7,1,1.9,2.1,2.4v2.4c0,0-.6,1.9-.6,1.9l.6,2.1-.8.9-2,.8-.9-.6h-1.3s-.7,2-.7,2l3.1,4.1-.2,1.7.6.7,3.5,2,2.2-.7h0l.8.3-3.2,6.8-3,4-.8,1.8-3.9,4.4-2.6,1,.6-2.1-.3-1.5-1.4-.2-.9-1.6-1,2.9h-.9c0,0-.4-1.3-.4-1.3l-.4.3.7,1.3,1.5.3-.4,1.4-.9.9-.2,1.4-1.2,1.3v1.3s-1.1-.3-1.1-.3l-.2.3v1.4l.6.2.6,2.2-.8,1.9.4,2.7-.9.2v.9c-.1,0,.3.4.3.4l.9-1.3-.4-1.7.6-.5.2.4-1.8,9,1.6,12.6.8,2.6-1.7,5.2-2.4,11,.2,5.2.7,1.3-1.7,2.3-2.1,1-2.1,3-.5,1.6h0l-6.5-4.4Z" />
    <path id="BR-CE"
      d="M463.5,130.2l-3.8,1.2-2,1.6-2.6,5.2-1.3,1.3-.4,1.9-1.1,1.9-1.6,2h-1.8c0-.1-1.7,2.3-1.7,2.3l-.3,1.5,1-.2h0l-1.5,3.6.4,1-1.5,1.8v.7c0,0,.8,1.1.8,1.1v1.3s1.5.8,1.5.8l.3.9-2,3.8h0l-2.1,1-1.2,1.8h-1.3s-.5-1.2-.5-1.2l-1.7-.8-1.1-1.6-3.6-2.1-3.4-.2-2.9.8-4.5-.3h0v-1s-.5-1.3-.5-1.3l2.1-4.7-.6-.9-3-.9-.8-2.1-1.4-6-.5-6.7-.8-.8.6-.4.5-1.2-1.2-3.9.4-1.2-.6-3,.6-1.6-1.1-1.2-4.4-11v-1.1c.1,0,2.3-3.6,2.3-3.6h0l-.2-1.1.5-.6,5.2-.2,3.8-.8,5.7.6,11.2,6.4.9.2,4,3.4,2,.6,1.9,2.3.9.5,2.3,3,3.2,2.4,1.9,2.3,3.9,1.4,1,1.6Z" />
    <path id="BR-DF"
      d="M341.8,267.3h-11.4s-.4-2.5-.4-2.5l.7-1.4.3-2.9h9.3s1.4,1.5,1.4,1.5l-.6,4.5.7.8Z" />
    <path id="BR-ES"
      d="M407.6,327.4l.6-2.9-.3-2.7,1.3-1.6,4.4-.2.8-2.5,1.5-2.8.2-1.3,2.5-2.6.4-2.3-.2-1.9-1.8-3.2-.8.2-1-.8.3-.4,2.5.2,1-.5v-1.3c-.1,0-1.3-.6-1.3-.6l.3-2.7-1.7-1.6.9-1.5,1.7-1,1.9.6v-.6s-1.3-1.8-1.3-1.8h2.7c0-.1,1.5-.8,1.5-.8h1.2c0,0,2.7,1,2.7,1h0l6.5,4.4h0l-1,4.8.7,7.5-.2,1.9-1.2,2.5-2.6,1.5-2.6,6.7-1.3-.6-.2,1,1,.4-1.5,3.3-2.7,3-1.6.3-.6,1-.4,2-1.5,2.4h0l-1.3-.8-2.3.3-5.3-1.7-.5-3.6-1.5-.6Z" />
    <path id="BR-GO"
      d="M341.8,267.3l-.7-.8.6-4.5-1.4-1.5h-9.3s-.3,2.9-.3,2.9l-.7,1.4.4,2.5h11.4s-.4,1.2-.4,1.2l.2,1.2-1.7,3.3.7.9,1.8,1.1,1.3,4-4.3,4.4-.3,1.7.8.9.7-.4,1.6.9v1.3s-1,2.2-1,2.2l.9,2.7-2.4,1.6-.9.2-1,1.6-3.8,2.1-.5-.6-3.4-1.4-.9.4h-5.5c0,0-1.6-.8-1.6-.8l-3.2,2-2.3,2.3-1.3-1.1-1.2-.2-2.5,1.3-2.9-.5-3.6,1.2-2.6,5.3-1.6.2-.7.6-1.3,1.6-.4,1.5.4.7-.9-.2h0l-2.2-2.1-2.4-.5-1.3-1.2-2.6-.4-2.6-1-3.4-2.3-4.1-2h-2.2c0,.1-2.9-.4-2.9-.4l1.5-3.5-1.7-.7-1.4.4-.4-1.2v-3.4h0l-.7-1.7v-2.7c-.1,0-1.4-2.2-1.4-2.2l.3-2.6,2-3,.3-2.3,3.6-2.6,1-1.6.6-2.3,1.6-1.9v-1.2c0,0,1.4-.8,1.4-.8l1.1-2h2.1c0-.1,2.4-1,2.4-1l2.1-4,.8-3.7,2.8-2.3.8-.2,1,.5,2-1.7,1.6-4.5-.4-1.5.4-2.1,1.2-2.4v-4c0,0,.8-.6.8-.6l2.3-4.5.2-2.9,1-1.4v-1.4h.1l.9-2.8,1.8-1.9v1.3s-1,1.5-1,1.5l-.4,1.8,3.6,1.1,3,.3,5.5,2.4.5-.2,1.3-4.6,2.1-2.6,1.7,2.5,1.3,5.3h.9s1.2-1.7,1.2-1.7l2.1.3,3.5-.4-.3,1.8,2.4,1.1,2.6.5h.5c0,0,.4-2.6.4-2.6h.4s1.5,2.2,1.5,2.2l3.3-2.3,4.7-.8,3.3-1.9,4.2-1.1h0l2.1,1.9-1.1,1.1-.4,2,1.3.9v.7s-1.5,1.1-1.5,1.1l-1,4.2.5,2.7,1.3,2.7,2.5,2-.6,2,.7,2.3-1.3,2.1h0l-.8.8-2.5-.3-.7-1.4-1.9-1.1-.9,1.2.4,2.9-.4.4-2.5-.8-1.2.4-.6,2.5h.6c0,0,.4,1,.4,1l-1,1.3v1.5s.8.6.8.6l.5,3.3-3,1.1-1.8,1.2h-1Z" />
    <path id="BR-MA"
      d="M374.2,108.5l-1.9,2.1v1.1s4.4-4.4,4.4-4.4l.8-4.9,3.5-1.5h.4c0,0-.1,1.7-.1,1.7l-1.1,1.4-2.5,1.4v.6s.5,0,.5,0l.3-.6.9-.2v1.3c0,0,3.2-3.9,3.2-3.9l.7.3,2-.7,3.1.3-.4-1.9.5-.2h1.9c0,0,4.2,1.2,4.2,1.2l1.7,1.1h1.1s2.4,2.1,2.4,2.1l2.8.3.4.6,3.4.5.2-.7-.5-.4,1.3-.3h.4c0,0,0,.4,0,.4h0l-.4,1.1.7,1-.3,1.2-4.6,4.8-3.2.2-2.3,2.6v1.4s-.7,1.4-.7,1.4l-3.2,3.9.3,1.5,1,.6.3,1-1.1,3.4,1.2,2.2.3,4.2-3.3,3.9v1.9c-.1,0,.4,3.4.4,3.4l2.8,2.7-.9,4.8-.9,1h-2.9s-1.9.7-1.9.7h-1.2c0,0-2.7-1.5-2.7-1.5l-3.6.8-3.9,4.2-1.8.7-2.2,2-1.9.4-1.3,1.2-5,1.1-1.7,1.5-1.5,6.4-1.3,2.3-1.3,3.7-1.3,1.1-.6,1.5.9,4,1.3,2.4-.6,1.5v4.9c-.1,0-1,1.9-1,1.9l-.2,2.3h0l-2.1-1.5-2.7-.2-1-1.5-.8-2.2-1.7-1.3v-1.3c-.1,0,1.2-1.4,1.2-1.4v-.4c0,0-3.1-1.5-3.1-1.5l-1.1-3.3-2.5-1.1,2.2-2.5-.3-1,1.1-3.2,1.5-.8,2.6-.3-.3-1,.4-3.9-1.4-.9-3.3.7-1.7,1-4.8-6.2h-.7c0,0-.7-1.1-.7-1.1l.5-.9-.3-.9h-1.4s-1.5-1-1.5-1v-.6c.1,0,1.5-.5,1.5-.5l1.4-1.6.2-3.8,1.4-4.8-.7-2.1.2-2.9-.9-3.9-.7-.8-3.6-1.1-.7-1.6h-3.2c0,.1-2.2-1.1-2.2-1.1l-2.2.4-2.4,1.9h-.4c0,0,11.4-9.2,11.4-9.2l1.8.2.9-.7,1.5-2.6,1.2-.9.5-2.2,2.8-2.2,1.8-6,1.5-1.2,1.8-2.5.2-2.4.6-.6-.8-1.2,2.9-2.4.3-3.1,1.6-1.8.8-3.6-.3-.4h-.8c0,.1-.2-.7-.2-.7h.9c0-.1.4-.7.4-.7l.4-4.5,1-1.1h0l.7-.2.7-1.4,1,.8.3,1.4h.9c0,0,.6-1,.6-1l.5,2.3h.8s.3-1.1.3-1.1l2,.4.4.5-1.1,1.3.5,1,1.3-2.8h.3l.3,1.2-.9,1.5v2.1c0,0,.6.3.6.3l1.2-.8-.3-1.2,1-1.1.8-.2,1.7.5,1.2-.9v.7s-1.1,1.3-1.1,1.3l.5.4,1-.8.4.6v.9c-.1,0,1.2,1.4,1.2,1.4l.7-.3,1.2.5.6,1.9v.7c0,0-1.8,2.1-1.8,2.1l-.2,1.2,1.8-2.1h.6s.7.6.7.6l.4,1.5-.2,1h-.8c0,.1-1.7,2-1.7,2l-1.3,5.2.8.4Z" />
    <path id="BR-MG"
      d="M427.6,291.7l-2.7-1.1h-1.2c0,0-1.5.8-1.5.8h-2.7c0,.1,1.3,1.9,1.3,1.9v.6s-1.9-.6-1.9-.6l-1.7,1-.9,1.5,1.7,1.6-.3,2.7,1.2.6v1.3c.1,0-.9.5-.9.5l-2.5-.2-.3.4,1,.8.8-.2,1.8,3.2.2,1.9-.4,2.3-2.5,2.6-.2,1.3-1.5,2.8-.8,2.5-4.4.2-1.3,1.6.3,2.7-.6,2.9h0l-2,1.8-1.4.6.6.5-3.3,7.6v.6c0,0,1,.1,1,.1v.9c0,0-9.3,4.3-9.3,4.3l-1.1.2-.4-.5-2-.2-2.7.9h-3.2c0-.1-5.3,2.4-5.3,2.4h-2.4c0,0-4.7,1.9-4.7,1.9h0l-1,.6-1.7.2-3.8,2.3h-3.7c0,.1.2-.9.2-.9l-.9.3v2.6s-.6.8-.6.8l-1,.2-.4-.3-2.8.8v-.4c-.1,0-2.6,0-2.6,0l-1.6-2.6.9-.6-.4-1.3-2.8-1.6-.6-1.2.4-1.2v-5c0,0,1.4-2.1,1.4-2.1l.6-2.7-3-1.3-2.8.6-.6-2.2-1-1.4-.3-1.7-.9-1.1v-1.5c.1,0,1.4-2,1.4-2l-.3-1.2-1.9-1.4.7-2.6-.2-.8-2.5-2.6-1.7.7-1.3-.6h-1.8c0,0-.4,1.7-.4,1.7l-2.2.5-2-1.5-.8,1-6.3.5-.7,1.3.2,2-.3.3-.9-.4v-2.2s-.5-1-.5-1h-.6c0,.1-.8,1.7-.8,1.7l-.9.2-.9-1.6v-1.8c-.1,0-3.1-1.7-3.1-1.7l-4.1.6-5.3-.8-1.9-1.3-1.2.5-1.1,1.3-1.5.3-2.6,1.7h0l.2-2-.5-2.5.8-3.2.4-.2h0l.9.2-.4-.7.4-1.5,1.3-1.6.7-.6,1.6-.2,2.6-5.3,3.6-1.2,2.9.5,2.5-1.3,1.2.2,1.3,1.1,2.3-2.3,3.2-2,1.6.7h5.5c0,0,.9-.4.9-.4l3.4,1.4.5.6,3.8-2.1,1-1.6.9-.2,2.4-1.6-.9-2.7,1-2.2v-1.3s-1.6-.9-1.6-.9l-.7.4-.8-.9.3-1.7,4.3-4.4-1.3-4-1.8-1.1-.7-.9,1.7-3.3-.2-1.2.4-1.2h1c0,0,1.8-1.3,1.8-1.3l3-1.1-.5-3.3-.7-.6v-1.5s1-1.3,1-1.3l-.4-.9h-.6c0,0,.6-2.5.6-2.5l1.2-.4,2.5.8.4-.4-.4-2.9.9-1.2,1.9,1.1.7,1.4,2.5.3.8-.8h0l.4,1.9-1.1,2.7.3.2,1.6-1.5,2.2.2,2.2-2.6,1.9-.3,2.1-2.1,1.6-.3,2.6-1.4.5-.9,3.3-2.3,3-1.2,4,.5,2.4.8-1.1,2.8.2,1.2.5.4,4.1,1.1,1.1-1,2.8-.9,3,1,3.4,2.8h.8c0-.1,1.7,1.1,1.7,1.1l2,.9h1.1s1.2,1,1.2,1l3.7-.8,5.1,4.8.3,3.1,2.5.2,2.2-1.2,3.7.6,3.4,1.3h1.6s2.2,1.9,2.2,1.9l1.3.3.9,1.7-1.1,2.4-3.8,3.3v2.1c-.1,0,.3,1.1.3,1.1l-.8.6-1.9-.2-.6.7-1,6,1.1-.5.4,1v1.6c0,0,3.2,2.4,3.2,2.4l.4.8-.5,1.5.3.6Z" />
    <path id="BR-MS"
      d="M297,318.4l-.5,2.2-2.5.8-2.5,2.9-1.3.7-.6,3.6-2.9,3.5.2,2.2-2.5,3.6v1.6c0,0-1.1.8-1.1.8l-2.6,4.1-1.5,1.4-5.9,3.5-2.2,2.9h0l-5.1,2.4-1.8,5.5-2.9,1.8-1.5,6.8-1.8,1.2h0l-2-1.8-2.6-1.5-4.9,2.5-2,.3-2.6-.9-.4-3.3-.9-1.3-.2-1.9.4-1-.6-1v-2.2l-1.2-3.6.4-2.9-1.2-.8-.4-2.3-1.3-1.4-4.3-.2-1.9-1.5-.4-1.2-1.2.3-1.7,2.1-.8-.5-2.2.8-3.3-.9-2.7.2-2.8-.6-.4-.7h-1.5c0-.1-.7.3-.7.3l-1.9-.7.7-5.6-.3-1.8,1.2-2.2.5-4.7-.6-3.1-.6-.7-.7.4-.5-2.5-1.5-3-.3-1.4,3.7-2.5-3.3-3,4.2-8.8h.9s-.2-1.7-.2-1.7h-.6c0-.1,3-9,3-9l-2.4-4.5v-1.5h0l3,2.2,4.4-1.5,1.6-1.5,1.6-2.3v-.9c0,0,1.2-1.1,1.2-1.1h3.8c0,.1,1.3-.3,1.3-.3l1-1,1.6-.4,1,.2.6.9,2.2,1,2.5.6.8,1.5,4.3,2.2,3.5-.5,2.5-1.8h1.9c0,0,1.2.9,1.2.9l.4,1.3,3.2-.6,4.4-4.7h1c0-.1-1,5-1,5l-1.4.5-1.3,2.2v.8s1,0,1,0l1.3,1h8.9s0,3.3,0,3.3l.4,1.2,1.4-.4,1.7.7-1.5,3.5,2.9.5h2.2c0-.1,4.1,1.9,4.1,1.9l3.4,2.3,2.6,1,2.6.4,1.3,1.2,2.4.5,2.2,2.1h0l-.4.2-.8,3.2.5,2.5-.2,2Z" />
    <path id="BR-MT"
      d="M179.3,238l4.3-3.1,1.5-4.8.7-.8,1.6-.7.9-2.4,1.3-1.6.5-3.1-.4-2.7-1.2-2.6-1.1-.4-.3-2.5v-1c.1,0,1.2-.8,1.2-.8l1.2-1.9-1.1-2.8-1.7-.4h-2.7c0,0-.9-.8-.9-.8l.2-.4h-13.3s.7-7,.7-7l-1.2-2.1-.2-1.4.8-3.3-.3-1.5.7-1.3-.8-2.8-.9-1.1,1.6-5-.5-1-1.1-.8h0l37.1-.2.9-.6,2-7.3-.9-3.2,1.9-2.6v-2s1.1-1.4,1.1-1.4h0l2.8,4,1.4,4.4,1.6,2.8-.2,1.9.9,3.6,3.5,3,2.6,1.3.3,2,2.6.5.8,1.6,1.1-.3,2.9,1.2,26.4,1.9,48.8,2.7h0l-.9,2.3-.9,1-.3,2.4-2.1,5-.4,4.6-1.5,4.6v.7s1.1,1,1.1,1l-.8,1.8.9,1.7-.4,3.8.4.4.3,2.4-.6,2.1.8,2.6,1.4.4h0v1.4c-.1,0-1.2,1.4-1.2,1.4l-.2,2.9-2.3,4.5-.9.6v4c0,0-1.1,2.4-1.1,2.4l-.4,2.1.4,1.5-1.6,4.5-2,1.7-1-.5-.8.2-2.8,2.3-.8,3.7-2.1,4-2.4.9h-2.1c0,.1-1.1,2.1-1.1,2.1l-1.4.8v1.2c0,0-1.7,1.9-1.7,1.9l-.6,2.3-1,1.6-3.6,2.6-.3,2.3-2,3-.3,2.6,1.2,2.2v2.7c.1,0,.9,1.7.9,1.7h-8.9s-1.3-1-1.3-1h-1c0,0,0-.9,0-.9l1.3-2.2,1.4-.5,1-5.1h-1c0,.1-4.4,4.8-4.4,4.8l-3.2.6-.4-1.3-1.2-.8h-1.9c0,0-2.5,1.7-2.5,1.7l-3.5.5-4.3-2.2-.8-1.5-2.5-.6-2.2-1-.6-.9-1-.2-1.6.4-1,1-1.3.4h-3.8c0-.1-1.1,1-1.1,1v.9c0,0-1.6,2.3-1.6,2.3l-1.6,1.5-4.4,1.5-3-2.2h0l-.8-1.1.4-.6-1.9-1.7-1.4.4-4.5-3-1-7.3,1.6-2.1.2-2.8h-.7s-.6.6-.6.6l-20.8-.8-.8-9.8-4.2-4.7h3.8s-.3-5.9-.3-5.9l-2.4-5.6,1.2-2.2-1.1-2.3-2.4-.8-.8-.7Z" />
    <path id="BR-PA"
      d="M306.4,190.9l-48.8-2.7-26.4-1.9-2.9-1.2-1.1.3-.8-1.6-2.6-.5-.3-2-2.6-1.3-3.5-3-.9-3.6.2-1.9-1.6-2.8-1.4-4.4-2.8-4h0l-1-2.9-2.3-2.1-.6-2.7,2.2-2.6,23.2-49.8-1.4-1.3v-1s-1.8.7-1.8.7l-1.4-.6-.9-1.7-2.1-1.1-1-1.5-7.1-2.8-1.5-1.5-3.5-2-3.6-2.9-.7-2.5-1.4-1h-.8s-1.4-1.5-1.4-1.5l.3-2.2-1.6-1.5v-6.6h-.1l-1.2-13.1h0l1.2,1.4.7.2,1.4-1.2,2.1.2.6-.8-.4-1.4,1.4-.3,1.1-1.3,2,.8h1.5s.4-1.2.4-1.2l2.6-1.3,1.5.3,1.3-.3,1.2-2.2,1.1-.9,1.2.3,1.6-.9,1.2,1.2,1.6.4,1.2.2,1.7-.8h1.9c0,0,6.1,1.1,6.1,1.1l.8-.7v-1.8s-1.6-1.9-1.6-1.9l-1-.5.4-1.3,1.5-2.1,3,1.6,9-1.8,1.2,1.3,1.1-.2h0l.5.4.3,1.8-.5,1-.2,3.5.4,1.5,1.7-.2,3.6.7,1.5.8.9,1.6h.9c0,0,1.5,1.5,1.5,1.5h1.7c0,.1,1-.3,1-.3l2.2,2.1h.5s.4.9.4.9l-.7.7.6,2.2,1.6,1.8,2.1.8-.2,4.1,1.5,3v1.2c-.1,0,1.1,2.7,1.1,2.7h1.2c0-.1,2.3,2.4,2.3,2.4v1.9c0,0,.3.7.3.7l1,.5.2,2.8,1.4,1.1.3,1.2,1.1.8,2.2.5,2.3-.3h0l-.4.6v1.6c0,0-.9.9-.9.9h-1.1c0,.1-1.5-.7-1.5-.7l-2.9,1.7-2.9,1v.4s5-.8,5-.8l.8.9-.5.9h.7c0,.1.7-.7.7-.7l2.5-.4,3.4-2.3,2.6-.9,5-3.4.5-.6v-.8s1.7-.2,1.7-.2l.3.2.3,2.9-.4,2,.3,1.3,1.6,2.3v1.6c.1,0-1.6,1.5-1.6,1.5l-2.1-.8h-1.7c0-.1-1.7-.9-1.7-.9l-.2-.9-.7-.4-1.8,3-.5,1.8.9,2.8.7.5-.8-.9-.2-2.5,2-3.3,1.8.9,2,2.2-.2,1.6-.6.4.3,1.8.4.9,1.8,1.1-2-2,.3-3.3.6-.9,1.1.6.6.9v.6c0,0,.9.7.9.7l-1.3-3.2,1.8-1.8,2.8.6.3.4-.5.5.6.2,5-1.6,2,1,2.5-.3,2.4-1.5,1.9-.3-1.7,4.9-1,1.6.4,1.8-.2,1.9.7-.9v-1.1s2.1-4.8,2.1-4.8l.9-1.2,2.7-.7,3.3-4.5.6.4.5-.4,1.3,1.8.9.5-.3-1.2.5-.8-.8-.3v-2s1.7.2,1.7.2l.8-2.4-.5-1.6.9-1.4,2.2-1.9,1.1.8,2.6-1.7.4.8-.2.5h.8c0-.1,1.4-1.3,1.4-1.3l1.8,2.1v-.7c0,0-.8-.6-.8-.6v-1.3s2.1,0,2.1,0l2.7,1.9,1.3-.6.4,1.7-.4.7.7-.4.9-1.8.4,1.5,1.9-.2.3.5.4,1.3-.5.7.7-.4,1.7.4,2.7-1-.8,2.6,1.6-.9.5,1.3h0l-1,1.1-.4,4.5-.4.6h-.9c0,.1.2,1,.2,1h.8c0-.1.3.3.3.3l-.8,3.6-1.6,1.8-.3,3.1-2.9,2.4.8,1.2-.6.6-.2,2.4-1.8,2.5-1.5,1.2-1.8,6-2.8,2.2-.5,2.2-1.2.9-1.5,2.6-.9.7-1.8-.2-11.4,9.2h.4c0,0,1.8.7,1.8.7h2.4c0-.1.8,1.2.8,1.2l2,1.3-.3,1-1.5.6v1.1c0,0,.9,1,.9,1l-.7,2.1-1.6.7v2.3c-.1,0-1.1.1-1.1.1l-1.2,1-.7,1v1.6c0,0-4.7,1.8-4.7,1.8l-2.1,1.6.4,3.8-2.2,3.4.6,1.4,2,1.8-.5,3.1-1.4,4-.8.6-2.2,4.5-2.4,1.5-3.5,4.9-.9,3.5-1.3,2.8ZM322.8,90l-3.5,1.5-2.6.4-1.6-.2-.5.9-1.4.9-.9-.5-.8.9-2.9-1.3-.6.6-3.2,1-2.5-.4-.6-.5-.4-1.8-1.7-2-.2-1.4.4-2.1.5-.3,1.4.3.7-.6v-.4c0,0-1.9.2-1.9.2l-.7-.6v-.8c-.1,0,.1-3.9.1-3.9l.6-.6.3.6h.4c0,0-.7-1.8-.7-1.8l1-2.8,1.8-1.5,2.1-.5,8.3,1.8,2.9-.4,1-.7,1.7-.3,9.4,1.5.5.4v1s-1.1,1.7-1.1,1.7l-.9,4.6-1,.5v1.5c0,0-1.6,2-1.6,2l-1.5,3.1ZM286.2,89.8l-.6-.4.9-1.7v-1.4c0,0,1.9-.5,1.9-.5l.7-.7v-2.2s.6-2,.6-2l2.8-2.3,2.2-.2.6,1.8-1.5,4.1-2.5,2.6-3.8,2.6-1.2.3ZM308.3,72.1l-3.3-.3-.5-2,2.6-.3,1.7-1,3.7-.5,1.1.7v.8c-.1,0-2.1,1.1-2.1,1.1l-1.4,1.9-.9.4-1-.9ZM312,72.1l1.4-.9h1.5s1.3.5,1.3.5l.5,1.2-.7.6-3.1.5-1.8-.7-.2-.4,1-.8ZM298.8,75.5l-2-.7.7-1.6,3.3-1h1c0,0,.6.6.6.6l-3.6,2.7ZM306.1,68l-.6-.2v-1.7s.9-1,.9-1l2.1-.6.4,1.2-2.8,2.4ZM295.4,83.6l.8-3.2,2-1.3h1.1c0-.1-.1,1.3-.1,1.3l-1.2.3-2.6,2.9ZM303.9,70l-1.2-.6.7-.7.6-3.1.7-1,.7,3.7-1.5,1.7ZM292.4,77.9v-.6c-.1,0,1.8-2.8,1.8-2.8l1.7-.9-.5,1.9-3.1,2.4ZM303.1,72.5l-1.1-.7-.7-1.3.8-1,1.7,1,.2,1.6-.8.3ZM299,96.2l-1.2-.5-.5.4-.6-.2-1.3-1.3v-.5h1s2.4,1,2.4,1l.2,1.1ZM282.6,91.9v-1c-.1,0,.3-.8.3-.8l1.8-.7,1.3,1-1,.6-2,.3-.5.6ZM292.4,86.7l.3-1,1.4-1.3.6-2.2.2,1.5-.7,2.1-1.8.9ZM297.3,79l1.3-2.3h1.2s.2.7.2.7l-.4.6-2.3,1.1ZM295.7,78.6l-.4-.2.2-1.6,1.2-1.4,1,.9-1.2.5-.8,1.7ZM297.4,82.5h.6s-1,.6-1,.6v.9c0,0-2,1.2-2,1.2l.4-1.3,1.3-1.3h.7Z" />
    <path id="BR-PB"
      d="M491.8,163l-1.9-1.6-2.7-.4-1.8.8-1.1,1-.3,1.4-1.5.8-2.4.3-.6.9h-4.7s-1.7,1.2-1.7,1.2h-1.4c0,0-1.1,1.2-1.1,1.2l.3,1-.3.4-1.4,1.2-2.3.8-2-1.3-.2-2.3-.9-.2-1.5.4,2.1-2.7-.6-1.4.3-1,2.4-1.1-.4-1.1-2.7-1.5-2.9,1.3-.7,1.2-2,.9-3.3,2.7-3.3.9-.6-.3-.4-1.5-2.2.8-.8-.3-1.4-1.5h0l2-3.8-.3-.9-1.5-.8v-1.3s-.9-1.1-.9-1.1v-.7c0,0,1.6-1.8,1.6-1.8l-.4-1,1.5-3.6h0l.4-.4,1.5,1.3,2.9.8,4-2.7.4-1.5,6.6-1.8.4.3v.9s-2.3,2.5-2.3,2.5l-.6,2.1-1.1.7v1.3c0,0,2.7.4,2.7.4l.7,1.4,2.4-1,2.9.2.7.9-.4,1.2.6.6,1.8-.7.4-.6.4-.9-.5-1.8.4-.5.8.2-1-1.8.2-1.1,1.4-1h1.1s.7,1.4.7,1.4l3.1.6,4.5-.3,3.6,1.1,4.2-.3h0v1.9c0,0,1.2,3.4,1.2,3.4l-.4,2.3.8-1.7v1.5s.5.8.5.8l-.2,4-.3.5h-.7Z" />
    <path id="BR-PE"
      d="M451.4,184.7l-1-3.1-1.6-.7-.7-.9.5-.7-.4-.7-1.1.3-.6,1.5-.7-1.5-1.2-.9-4.1-.9-1-.6-.6-1.1-1.2-.4-3.7,1.6-.6,1.6-2,.5v1.5c0,0-.8,1-.8,1l-1.9.8-1.7-.3-1,3.4-3.6,1.6-1.4-.5.7-1.3-.2-1.5-1.7-.7-.9-4-2.2-1.1-3.3-.3h0l2-1,1.9-2,2.5-1.2,3-3,.6-1.4v-1.8s-1.4-1.6-1.4-1.6v-1.7c0,0-.5-1.6-.5-1.6l.5-.6h1.4c0-.1,4.5.2,4.5.2l2.9-.8,3.4.2,3.6,2.1,1.1,1.6,1.7.8.5,1.3h1.3s1.2-1.8,1.2-1.8l2.1-1h0l1.4,1.5.8.3,2.2-.8.4,1.5.6.3,3.3-.9,3.3-2.7,2-.9.7-1.2,2.9-1.3,2.7,1.5.4,1.1-2.4,1.1-.3,1,.6,1.4-2.1,2.7,1.5-.4.9.2.2,2.3,2,1.3,2.3-.8,1.4-1.2.3-.4-.3-1,1.1-1.1h1.4c0,0,1.7-1.3,1.7-1.3h4.7s.6-.9.6-.9l2.4-.3,1.5-.8.3-1.4,1.1-1,1.8-.8,2.7.4,1.9,1.6h0l.7.2.4.9-1.1,1.8.9,1.9-4,11.9h0l-3.9-1-3.1,1.1-1.7-.7-1.5.2-3,3.1-1.4.9h-.9s-1.4.8-1.4.8h-3.3c0-.1-1.9.4-1.9.4l-2.9-1.2-3.4-3.2h-2.1c0-.1-.8-1.1-.8-1.1l-2.5,3.5-1.7.6-1.5,1.7Z" />
    <path id="BR-PI"
      d="M410.7,107l3.3.3,1,1.1h0l-2.2,3.6v1.1c-.1,0,4.3,11,4.3,11l1.1,1.2-.6,1.6.6,3-.4,1.2,1.2,3.9-.5,1.2-.6.4.8.8.5,6.7,1.4,6,.8,2.1,3,.9.6.9-2.1,4.7.6,1.3v1h-1.4c0,.1-.5.7-.5.7l.5,1.6v1.7c0,0,1.4,1.6,1.4,1.6v1.8s-.6,1.4-.6,1.4l-3,3-2.5,1.2-1.9,2-2,1h0l-1.5,2.7-.8.5-2.2.2v1.9c0,0-1.4,1.4-1.4,1.4l-.7-.5h-1.7s-1.2,1-1.2,1l-2.1.3-1.8,2-4.8.7-.6-.2v-.7s-1.4-.8-1.4-.8l-1-.3-2.7.8-.6-.9-1.2-.4h-1.5s-2.5,1.3-2.5,1.3v.7s1.7,3.4,1.7,3.4v2.9c-.1,0-3.2,5.3-3.2,5.3l-2.3,1.9-1,.3-2.2-.5-1.7.6-1.4,1.4-.9.3-.8,1.3h-1.6c0-.1-1.4.3-1.4.3l-3.2-1.4-1.4-1.9-.9-2.5-1.1-1h-1.8s-2.3-.1-2.3-.1h0l.2-2.3.9-1.9v-4.9c.1,0,.7-1.5.7-1.5l-1.3-2.4-.9-4,.6-1.5,1.3-1.1,1.3-3.7,1.3-2.3,1.5-6.4,1.7-1.5,5-1.1,1.3-1.2,1.9-.4,2.2-2,1.8-.7,3.9-4.2,3.6-.8,2.7,1.6h1.2c0,0,1.9-.7,1.9-.7h2.9s.9-1.1.9-1.1l.9-4.8-2.8-2.7-.5-3.4v-1.9c.1,0,3.5-3.9,3.5-3.9l-.3-4.2-1.2-2.2,1.1-3.4-.3-1-1-.7-.3-1.5,3.2-3.9.7-1.4v-1.4s2.2-2.6,2.2-2.6l3.2-.2,4.6-4.8.3-1.2-.7-1,.4-1.1h0l2.9,1.7Z" />
    <path id="BR-PR"
      d="M326.3,395.6h-4.1s-1.6.5-1.6.5l-.7-.4-1.2.4-3.6,2.8-2.1-.6-3.2-2.3-4.6.7-2.6-.5-1.2.5-1,1.8-1.4.8-2.8-.3-1.5.9-1.1,1.8.7,2.3-2.1,1.4-1-1.5-6.2-.2-2.1-1.7-3.3-.3-4.1-1.3-3.9.4-1.8-1.5-.8-.2-3.8.3h0l-.2-.9-2-3.2v-2s-.8-2.2-.8-2.2l-2.6-1.8-.8.9h-1.6c0,0-1.7.9-1.7.9l-1.1-.8h-.6s-.2-1.7-.2-1.7l2.3-3.9-.3-1.8,1.7-5.2-.2-1.8,1-1.8-1.1-2.7,1.1-1.2h0l1.8-1.2,1.5-6.8,2.9-1.8,1.8-5.5,5.1-2.4h0l2.5-1.8,3,.5h5.6c0,.1,1.8-1.1,1.8-1.1l6.1,2,3.8-.3,2,1.4,2.7.6,1,1.4,1.7-.2,1.8.5h4.1c0,.1,2.3-.6,2.3-.6l.9,1.2,2.8,2.2.7,1.4v2.1s-.4,1.1-.4,1.1l.3,1.4,1,1.2-.3,1.8,1.2,2.3,1.8,1.6.7,2.2.7.6-1.2,2.5.2,1.6,1.2.5,4.5-.5,2.8.3,1.2,1-.8.8-.5,2.6.3.6.8.4,1.4-2.8,2.2.3-.3,1.5.6,2.6,1.1.4v1h.1l-1,.8-.5,1.1h-.4c0,0,.2-1.6.2-1.6h-.7c0-.1-1.4-.6-1.4-.6l-.6,1,.4.6-.8.8-2.9-.7v1c.1,0,1.4.4,1.4.4l1.1-.2,1.9.8-.8.5-1.2,2.2-2.8,1-.2.3,2.3-.2v1.5Z" />
    <path id="BR-RJ"
      d="M381.8,357.5l.2-.8,2.5.2,2-.5-3-1.6-2.2.5-1.1,1.2-1.3.2-1-1.7h-.4l-1.4,1.1-2.4.6-.4,2.2h1.7c0,.1.8.9.8.9l-.9.8h-1.8s-1.6-1.5-1.6-1.5l.8-3,.8-.9,1.8-.8,2.5-.2,1.2-.6,1.3-1.7-.6-1.3-3.7.4-1.4-.3-1.4-2.1-1-.4h0l4.7-2h2.4c0,0,5.3-2.5,5.3-2.5h3.2c0,.1,2.7-.8,2.7-.8l2,.2.4.5,1.1-.2,9.3-4.3v-.9c0,0-1.2-.1-1.2-.1v-.6c0,0,3.4-7.6,3.4-7.6l-.6-.6,1.4-.6,2-1.8h0l1.5.6.5,3.6,5.3,1.7,2.3-.3,1.3.8h0l-1,3.9.9,5.3-2.8,1.9-4.6,1.5-2.2,1.3-2.7,2.9v3.5l-.6,1.1-1.4.4h-5.1c0-.1-4.5.4-4.5.4l-1.9-.4-.4-.8,1.3-2.3v-.5c0,0-.7-.1-.7-.1l-2.2.9-.2.5,1.3,1.5.2.8-.5.4-9.8,1.6ZM377.8,359l-.5-.8,1.6-1.2,1.8,1.3-1.9.4-.7-.3-.3.6Z" />
    <path id="BR-RN"
      d="M491,150.4l-4.2.3-3.6-1.1-4.5.3-3.1-.6-.7-1.5h-1.1s-1.4,1.1-1.4,1.1l-.2,1.1,1,1.8-.8-.2-.4.5.5,1.8-.4.9-.4.6-1.8.7-.6-.6.4-1.2-.7-.9-2.9-.2-2.4,1-.7-1.4-2.7-.4v-1.3c0,0,1.2-.7,1.2-.7l.6-2.1,2.3-2.5v-.9s-.4-.3-.4-.3l-6.6,1.8-.4,1.5-4,2.7-2.9-.8-1.5-1.3-.4.4h0l-1,.2.3-1.5,1.7-2.4h1.8c0,.1,1.6-1.9,1.6-1.9l1.1-1.9.4-1.9,1.3-1.3,2.6-5.2,2-1.6,3.8-1.2h0l1,1.2,3.4.3,1.3,1.4,1,.4,2.6-.2,2.2.4,3.8-.8,4.5.7,1.5.7,1.3,1.4,1.8,3.7,1.7,7.4.6.4.9,3.3Z" />
    <path id="BR-RO"
      d="M164.1,234.1l-1-1.1-.3-1.5-1.2-.4-2.1.3-3.2-1.4-.5-.8-1,.5-2.7-2.1-.9-2.2-.8-.3-1.4.9h-.9s-1.1-.6-1.1-.6l-.7-1-2.4-1.2h-1.5c0-.1-1.6.9-1.6.9l-5.4-1-1.5-1.3-.2-1.5-2.7-1.1-.9-1.5-2.4-.5-.7-2.9-.7-.7-.4.9-.5-.2-.2-.5.5-1.2-.7-1.2-1.1-.3-1-2.7v-1.3c-.1,0,1.1-2.3,1.1-2.3l-.2-1.3-1.5-3.2v-1.8s1.5-2.3,1.5-2.3l.3-1.1-.6-3,.4-1.3-.9-1.7-.8-.3-1.5,1.9-2.1-.8h-4c0,0-6.8,1.8-6.8,1.8h0l-2.3-1h0l2.5-2,1.5-.4,1.2-1.4v-1.4s5.3,0,5.3,0l2.6,2.1.9-.6.4-1,2.5-.6,2.4-1.7.8,1.8,1.1.3,2-2.4-.2-1.4.4-.7,1.4-1,2.4.5.9-.8,1.7-.3,3,.4v-2.5c-.1,0,1.5-.9,1.5-.9l.9-1.7-.8-.9v-.5s1-1.2,1-1.2l2.1-.6v-.9c0,0,1.3-.4,1.3-.4l1.1-2h8.4s1.7.8,1.7.8l1,1.9,1,1,2,.8,1,2.5,1.6.2.5,2.2,2.5,1.1h.5c0-.1.4-1.5.4-1.5l1.5-.8,1.1.2.2.8h0l1.1.8.5,1-1.6,5,.9,1.1.8,2.8-.7,1.3.3,1.5-.8,3.3.2,1.4,1.2,2.1-.7,7h13.3s-.2.5-.2.5l.9.9h2.7c0,0,1.7.3,1.7.3l1.1,2.8-1.2,1.9-1.1.8v1c-.1,0,.2,2.5.2,2.5l1.1.4,1.2,2.6.4,2.7-.5,3.1-1.3,1.6-.9,2.4-1.6.7-.7.8-1.5,4.8-4.3,3.1h0l-2.6-1.2-1-1.1-5.5.7-1.2-.6-2.6.5-.8-1.2-1.6-1.1Z" />
    <path id="BR-RR"
      d="M200.7,56.2l1.2,13.1h-14.3c0,0,0,.5,0,.5l-3.1,4.9-.9,2.9v1.1c0,0,1,1.1,1,1.1l-.3.7-1.6.4-2.1,1.4-1.4-.2-.7-1.9-1.4-1.6-2.2-.7h-1.2s-.4.7-.4.7l-2.6,1.1-.8,1-.6,2.3v2.7c0,0-.5,1.8-.5,1.8l.3,1.6-1.8-.8-1.4.3-2-2.9-1.9-1-3.9-3.4v-.9c.1,0,1.5.3,1.5.3l.9-1.5-.9-3.4-1.4-1.3-.7-1.7-.2-3.9,1-3.1-.8-2.5,1.3-1.1-.7-1.2v-1.8c-.1,0-1.4-3.7-1.4-3.7l-2.1-2.9,1.3-3.7-1.9-1.2-2.5-.2-.9-.9v-.7s-1.9.2-1.9.2l-1.1-.9h0l.2-2.3h-5.5c0,0-2.6-.6-2.6-.6l.6-3-2.6-5.7-.4-2.9.6-1.1v-.7c0,0-5.3-4.5-5.3-4.5l-1-2.1-1.1-.8.2-.9,1.6.6.7,1.3,3.1-.3,2.5.5,1.3,2.7,2.1-.9h2.5c0,.1,1.8,1.2,1.8,1.2h.4c0-.1.5-1.3.5-1.3h1c0,.1,1.1.8,1.1.8l3,3.5,1.4.5,1.2-.5.6-.9-.6-2.8.3-1.3,1.9-.3,2-1.7,3.6,1.1,1.9-.9h1.7c0,.1,1-.9,1-.9h2.5c0,0,.5-.7.5-.7v-1s2.4-1.4,2.4-1.4l3.9-.2,1.2-2.3,2-.8,1.7-2.1-.9-2.8-.9-.3h5c0,0,1.4-.8,1.4-.8l1.1.3,1.6,2.7-.5,3.8-.6,1.1-1,.5v.6s2.5.1,2.5.1l3.2,1.5-.7,1.1v.9s1.8,2.6,1.8,2.6l.2,1.2-1.2,2.3-1.5,1.1-.6,1.2.3,2-1.1,1.9-.9,4.1v2.1c0,0,.7,1.4.7,1.4l.4,2.4,1.9,1-.2,5.1,1.4.2-.5.9,2,1,3.2,3.6,3.3.8Z" />
    <path id="BR-RS"
      d="M268.4,503.3l-1.9-1.2.4-3.3-.2-4.1,5.1-6-1.1-1.3-2.6-.9-1.8-1.7-.9-1.3-.4-2.1-2.5-3.3-2.4-1.4-1.1.2-1.5-1.2-2.1-1.9v-1.3c-.1,0-1.6-1.7-1.6-1.7l-2.6-.4-2.1-1.7h-1.4c0,.1-1.7-1-1.7-1l-2.3-4-2-1.6h-.5c0,0-.5,1.4-.5,1.4l-2,1.7h-2.1c0,0,.4-3.1.4-3.1l-.3-.8-2.8-3.3-7-6.3h-3.1c0,0-1.7,2.6-1.7,2.6l-3.8-.2-1-1.2,1.5-.7,2-2.1.6-2.4,2.1-.6.7-.8,4.2-5,1.3-2.8,2-1,1.6-3.7,2.8-2.3,2.1-3.5h1.9c0,0,.4.5.4.5l.4-1-1.2-1.1.2-.5,1.5-1,2.2-.7,1.5-2.2,1.7-.9,1.9-.3,1.4-1.4,1.1-2.6.5.4h1c0-.1,4-1.5,4-1.5l.9-.4,1.6-1.8.9-.3.8-1,1.8-.6.2.3h0l2.7.3,2.5-.9.4-.6,1,.4v.7c-.1,0,2.3,0,2.3,0l1.3.8,2-.3,1.5.9,5.4-.3,3.7,1.8.8,1.9h1.2c0,.1,0-.2,0-.2l1.4-.3,4.3,2.7,1.1,1.2,1.8.7,5.7,7.6,6.1,1.2,1.6-.3,2.6.3.7,1.8-2.6,1.5-.6,1.4v2.9c-.1,0-.5,1-.5,1l-.9.2-1,1.3v1.1s1.4.9,1.4.9v-1.7l1.2-.6,3,1.8h0l-4.1,6.8-3.3,9-4.9,8.1-4.2,5.2-5,4.6-4.7,2.9-2.4,3.3.6-3.2-.8-1.7h.7c0-.1,2,.7,2,.7l2.6-1.6,2.8-3.4h1.1l.8-.7,1-2.1v-3.4c.1,0,1.3,0,1.3,0l.8.9.3-.2-.2-1.1.4-1.6,2.5-1.7.6-.8.2-3.9.4-.5.4.6.6-.3.4-2.4-.8-1.3h-.5s-.4,1.4-.4,1.4l-2.7.3-.3,1.2h-.4s-.6-.3-.6-.3v-1.3c0,0-.6-.7-.6-.7l-.8.3-.5-.4-1.3-3.1-.5,2.1.3,1.7,1,1.6-1,2.6.2,2.9-.9-2.3-1.5,4.1v1.9c.1,0-1.7,1-1.7,1l-.5,1.2-3.7,1.6-.5,3-.8,1.8-1.8,1v1.4c0,0,.5,1.4.5,1.4l-.7.4-.2,1.2.3.5,1.5.4v.7c.1,0-1.5,1.3-1.5,1.3l-1.8,3.5-1.5,5.3-1.6,3.5-1.3,2-7.7,7.1Z" />
    <path id="BR-SC"
      d="M312.8,441l-3-1.8-1.1.6v1.7s-1.4-.9-1.4-.9v-1.1s1-1.3,1-1.3l.9-.2.4-1v-2.9c.1,0,.7-1.4.7-1.4l2.6-1.5-.7-1.8-2.6-.3-1.6.3-6.1-1.2-5.7-7.6-1.8-.7-1.1-1.2-4.3-2.7-1.4.3v.4c0,0-1.3-.1-1.3-.1l-.8-1.9-3.7-1.8-5.4.3-1.5-.9-2,.3-1.3-.8h-2.4s.1-.7.1-.7l-1-.4-.4.6-2.5.9-2.7-.3h0l1.7-3.9-.4-2.5.3-4.5.7-1.4h0l3.8-.3.8.2,1.8,1.5,3.9-.4,4.1,1.3,3.3.3,2.1,1.7,6.2.2,1,1.5,2.1-1.4-.7-2.3,1.1-1.8,1.5-.9,2.8.3,1.4-.8,1-1.8,1.2-.5,2.6.5,4.6-.7,3.2,2.3,2.1.6,3.6-2.8,1.2-.4.7.4,1.6-.5h4.1s-.3,1-.3,1l.3,1.6-1.2.9-.8-.4-.2,1,1.8,2-.8,1.8v1.8c-.1,0,.5.9.5.9l.2,4.5.6.6.6-.4.3,1.2-.7-.2-.9.5-.3,3,.4,2-.4.6.9,2.9-1.1,4.9-1.3,3.6-.5-.7.2-.8-.7-.9-.2.3v1.9c.1,0,1,.6,1,.6l-.7,1.3-1.3.5-5.4,4.3-3.7,4.9ZM326.6,420.4l.7-3.6-.2-1.7,1.3-.5.5.7-.4,2-1.1,1.6.2.9-.9.6ZM326.3,401.5l-1.4-1.6,2.2-1.9.5.8-1.2,2.6Z" />
    <path id="BR-SE"
      d="M460.5,211.4l-2.2.7-3.5-2-.6-.7.2-1.7-3.1-4.1.7-2.1h1.3s.9.6.9.6l2-.8.8-.9-.6-2.1.6-1.9v-2.4c0,0-2.1-2.4-2.1-2.4l-1-1.9-.2-1.7.5-.9h0l5,2.3,2.9.7,4.2,2.4,1,1.9,5.8,3.5.5,1h0l-1.8.6-3.5,2.3-2,2.4-1-2.3h-.8c0,.1.3,1,.3,1l.8.3v1.4s-1,1.6-1,1.6l-.7-.8h-.8c0-.1,1,.9,1,.9l-.2,1.4-1.4,2.5h-.6c0,.1.1-1.3.1-1.3l.8-1.2-.6-.3-.8,2.6.2.6-1.1.9Z" />
    <path id="BR-SP"
      d="M332.4,386.7v-1c-.1,0-1.2-.4-1.2-.4l-.6-2.6.3-1.5-2.2-.3-1.4,2.8-.8-.4-.3-.6.5-2.6.8-.8-1.2-1-2.9-.2-4.5.5-1.2-.5-.3-1.6,1.2-2.5-.7-.6-.7-2.2-1.8-1.6-1.2-2.3.3-1.8-1-1.2-.3-1.4.4-1.1v-2.1s-.7-1.4-.7-1.4l-2.8-2.2-.9-1.2-2.3.7h-4.1c0-.1-1.8-.6-1.8-.6l-1.7.2-1-1.4-2.7-.6-2-1.4-3.8.3-6.1-2-1.8,1.2h-5.6c0-.1-3-.6-3-.6l-2.5,1.8h0l2.2-2.9,5.9-3.5,1.5-1.4,2.6-4.1,1.1-.8v-1.6c0,0,2.4-3.6,2.4-3.6l-.2-2.2,2.9-3.5.6-3.6,1.3-.7,2.5-2.9,2.5-.8.5-2.2h0l2.6-1.7,1.5-.3,1.1-1.3,1.2-.5,1.9,1.3,5.3.8,4.1-.6,3,1.7v1.8c.1,0,1.1,1.6,1.1,1.6l.9-.2.8-1.6h.6c0-.1.5.9.5.9v2.2s.9.4.9.4l.3-.3-.2-2,.7-1.3,6.3-.5.8-1,2,1.5,2.2-.5.4-1.6h1.8c0,0,1.3.5,1.3.5l1.7-.7,2.5,2.6.2.8-.7,2.6,1.9,1.4.3,1.2-1.2,2v1.5c-.1,0,.7,1.1.7,1.1l.3,1.7,1,1.4.6,2.2,2.8-.6,3,1.3-.6,2.7-1.4,2.1v5c0,0-.4,1.2-.4,1.2l.6,1.2,2.8,1.6.4,1.3-.9.5,1.6,2.6h2.4s.1.4.1.4l2.8-.8.4.3,1-.2.6-.8v-2.6s.9-.3.9-.3l-.2,1h3.7c0-.1,3.8-2.4,3.8-2.4l1.7-.2,1-.6h0l1,.4,1.4,2.1,1.4.3,3.7-.4.6,1.3-1.3,1.7-1.2.6-2.5.2-1.8.8-.8.9-.8,3,1.6,1.5h0l-1.4.5-.8-.6-1.9,2-4.2,1.7v2.6c0,0-1.1.2-1.1.2l-1.6-.7-3.1-.3-2.4.9-1.3,2.1-1,.4h-.4c0,0,.4-.5.4-.5l-.4-.9-.9-.7-.6,1v1.1s-5.9,3.3-5.9,3.3l-.7.6-.2.9-2.5,2.3-2.5,1.5-1.5.4-5.8,4.1-.3.5,1.2.4.7-.3v.6l-2.3,2.8ZM366.7,368.8l-2.5-.7,1.7-2.5,1.1.7v2.3c.1,0-.3.2-.3.2Z" />
    <path id="BR-TO"
      d="M354.7,227l-4.2,1.1-3.3,1.9-4.7.8-3.3,2.3-1.5-2.2h-.4s-.4,2.5-.4,2.5h-.5c0,0-2.6-.5-2.6-.5l-2.4-1.1.3-1.8-3.5.4-2.1-.3-1.2,1.8h-.9s-1.3-5.3-1.3-5.3l-1.7-2.5-2.1,2.6-1.3,4.6-.5.2-5.5-2.4-3-.3-3.6-1.1.4-1.8.9-1.5v-1.3s-1.8,1.9-1.8,1.9l-.9,2.8h0l-1.4-.4-.8-2.6.6-2.1-.3-2.4-.4-.4.4-3.8-.9-1.7.8-1.8-1.1-1v-.7s1.4-4.6,1.4-4.6l.4-4.6,2.1-5,.3-2.4.9-1,.9-2.3h0l1.3-2.9.9-3.4,3.5-4.9,2.4-1.5,2.2-4.5.8-.6,1.4-4,.5-3.1-2-1.8-.6-1.4,2.2-3.4-.4-3.8,2.1-1.7,4.6-1.8v-1.6c0,0,.7-1,.7-1l1.2-1h1c0-.1.1-2.4.1-2.4l1.6-.7.7-2.1-.8-1v-1.1c0,0,1.5-.6,1.5-.6l.3-1-2-1.3-.8-1.3h-2.4c0,.1-1.8-.5-1.8-.5h0l2.4-1.9,2.2-.4,2.2,1.2h3.2c0-.1.7,1.5.7,1.5l3.6,1.1.7.8.9,3.9-.2,2.9.7,2.1-1.4,4.8-.2,3.8-1.4,1.6-1.4.5v.6c-.1,0,1.4,1,1.4,1h1.4s.3.9.3.9l-.5.9.7,1.1h.7c0,0,4.8,6.2,4.8,6.2l1.7-1,3.3-.7,1.4.9-.4,3.9.3,1-2.6.3-1.5.8-1.1,3.2.3,1-2.2,2.5,2.5,1.1,1.1,3.3,3,1.5v.4c0,0-1.2,1.4-1.2,1.4v1.3c.1,0,1.8,1.3,1.8,1.3l.8,2.2,1,1.5,2.7.2,2.1,1.5h0l2.3.2h0l-1.1,1.6-3,1.6-2.5,2,.9,1.7-1.8,1-1.2,2.7-1.2,1.5.2.7,1.4,1.5,2.8.5,1.4.8v.6s-2,1-2,1l-.3.7.3.6h1.5c0,0,.7,1,.7,1l-3.1,2.2v3.9c0,0,1.9.9,1.9.9l.2,1.1-1.1,1.8v.7Z" />
  </g>
</svg>