<svg xmlns="http://www.w3.org/2000/svg" xmlns:amcharts="http://amcharts.com/ammap" id="Layer_1" viewBox="0 0 512 512"><g id="_x3C_defs"><amcharts:ammap bottomLatitude="-55.906" leftLongitude="-109.451" projection="mercator" rightLongitude="-66.428" topLatitude="-17.499"/></g><g><path id="CL-AI" d="m236.4 335.9.4-.9h-1c0 .1-1-.3-1-.3l-1.7-1.7-1.3.6h-.7c0-.1-.2-.6-.2-.6v-.7c.1 0 1.1-.2 1.1-.2l.3-.5-.9-1.6.3-.9 2.2-.3 3.6-2.6 1.5-3.8v-1.3l-1.2 1-1.8-1.5v-.4l-2.2-.7-1.2-1.1v-.8l1.4-1.2 1.1-2.8 1.6-.4v-.4l3.3.6 1.2-1.6.5.2.8 1.8 1.2.7.2.9h1.3c0-.1.1-.7.1-.7l1.3-.7 1 .3.5.9-1.6 3 .2 2.2-.5.6.7.5h3.6c0-.1 2 .3 2 .3l.8 1.4-.8.8-.3 2.1-.5.7h-.9l-1.2-.7-1.5.5-1.1-.4-.7.5-2-.5-.3.4v1.5c.1 0 4.8 1 4.8 1l2.4 3.5.3 1-1.6 2.3-2.7 1.1-.4 2.3.4 1.6 1 .5.4 1.3-1.5 1.9-1.3.4 1.5 1.4.7 6-1.3 1.4-1.2.4-.4 3 1.1 1.5v1.1l-1.5.8-1.4 1.9h-.9l-.9.5v.4l.4.4-.2 1.3-2 4.5.2.6 1.8 1.7.3 3.9-2.9 1.8.3 4.7-1.9 1.9-2.2.7-.9 1.3-.9 2.7-8.6-7.4-1-.5-1.4.3-.8-1.7 1.9-1.9 1.5 1 .2-1.9-2-.9 1.1-.5-1.4-.5-2.1-2.2-1.5-.8v-1.1c.1 0 1.1-.6 1.1-.6l1.7.9.7 2.4.6.6h.3l-1.4-3.2h2.4c0-.1 1.1.6 1.1.6l1.8-.3 1.7 1.5.4 1.5.6-1 1.4.3.6-.6v-.9c.1 0 0-.3 0-.3v.8l-.8.6-1.1-.6-1.5-2v-1.1h.7l.8 1.1 2.5.3-1.1-.6h-1.3l-2.3-2.6-.2-1.1.8-1-.7-1.4-.4.9.4.6-.4 2.1-1.6.9-1-.3-.2-.6-3.1-.6-2.2.4-1.2-.9 1.3-2 .6-.3 1.1.2 1.5 2.5h.9c0 .1-.8 0-.8 0l-.4-.8.4-.7 2-.2v-1.1c-.1 0-1.2.7-1.2.7l-1.3.2-2.1-2.4 2-3h1.4l.6 1.8-.3-1.9 1.8-2.5-.9-.8-1 .2-1-1.6-.2-1.2-.7-.3-2.7.3v.8l1.7.2-.6.6-4.8-2.1-.7-1.7 1.3-1.7v-.9l-1.4 1.8-1 .7-2.3.3-1.6.7-.3 1.1 1.5-1.1.5.2.7 2.3-1.4 1.1-.8-.2-1.4-2.1v-2.2l.7-.9h.7l1.6-1.3v-.5l.6-.7.6-.3.5.6.2-1.5 1.1-1.2h1.3l1.3-1.4 1.4-3.9 2.9-.5.5.6 1.5-.5.4.5.5 1.5-.4 1.8-.6.8.8-.5.2-1.6.7.7v.7l-.9 1.3-2.3.9-1.7-.9 1.5 1.1 2.7-.9.4 1.3 1.4.8-1.5-1.8.5-1h.7l1.2 1.4-.4 2-1.8 2.4 1.1.6 4.3-7.3-2.5 3.3.6-3.2-.4-1.4 1.2-2.3 1.5-1.6 2-.4-1.3-.4-.8.2-1.7 1.8.6-4.4 2.9-2.1 1.9 2 1.3.3Zm.1-9.9-2.5 2.3-1.4.4-1.3-1.6 1-.5h.9c0 .1-.9-.3-.9-.3l-.9.4-.7-1.9.5-.7 1.3-.2.5-2.2 2.2-.7 2.2 1.4.5.9-1 1.4-1.5-.4 1.4.9zm-22.3 55h-.3c0 .1-.4-.9-.4-.9l-.4-2.1.2-.8-1-.6-1 .4-.6-.3.2-.5 1.4-.4.4-.6-1.8.4-.5-3.3.7-.9 1.4-.4 2.7 7.2v1.5l-1.1 1.3Zm5.5-.1-1.2-.8-2.4-.5-.3-1.3 1-1.4h.7l.8 1.2.5-.6-1-1.8.7-3 .6 2.5.9 1.6v2.4l.4.6.2-.5.4.2-.2 1zm-3.8-3.5-1.6-3.1-.6-2.2 2.1.4 2.2 1.2-.3 2.6-1.8 1.2Zm12.3-44.1-.9-.6h-1.6l-1.1-1.2-1.1.3v-1.3c-.1 0 .5-.6.5-.6l3.2-.4 1.4 1.8-.3 2Zm-5.6 37.5-1.7-1 2-1.6 3.5 1.1.8-.3.4.3-.2.9-.5.2-2.3-.2zm.6-43.9-1.1-.7-.2-1.7 1.5-.4h2.4l1.1 1-3.7 1.7Zm-7.8 17.5-.2-.9 1.4-.3-.3-.4h-.8l-.4-1.5.4-.2 1.2.5 2.1-1.4-.8 3.1-1.2 1.1-1.4-.2Zm-5.1 36.5 1.6-1-.9.3-1.1-.3.3-2.5 2.7-.2.2 2.4-1.7 1.3h-1Zm11-40.9-.4-.7.5-.7-.2-1.9.7-1.3 1.1.7.6 1.9-.3.6-2.1 1.3Zm-4.1 32-1.4-.5v-.5l-.4-.2-1 .7h-.9l.8-1.1 1.3-.3 2.1-1.8.2 3.3-.8.5Zm11.8-32.2-1.2-1.2v-1.9l.9-1.2 1 .4zm-6-9.9-.8-.2v-.5l1.8-1.5 1.9.5.6.7zm5.1-3.9-.7-.9v-1.3l1.2-.6 1 2.3-1.5.4Zm-2.4-10.7-1.6-.8v-.8c.1 0 2.4-.3 2.4-.3l.5-.5.9 1.7h-.9l-.2-.6h-.8c0 .1.3.8.3.8l-.6.4Zm0 19-1.3-.5v-1.3c-.1 0 .6-.3.6-.3l.5.7h1.7l.4.4v.8l-2 .1Zm-5 41.6-.7-1.5.3-1.6 1.9 2-1.5 1.2Zm7.2-29.9-1.5-1.9.2-.7h.8l1.4.8-.9 1.9Zm-6.1-22.5-1.1-.3-.3-.9 2.2-.9.5.2.4.9-1.8.5v.5Zm4 15.8-.7-.2-.5-1.3.8-1.1 1.3 1.1-.3 1.1-.6.3Zm-15.5 43.1-.3-.2v-1.1l1.3.3 1.6-1.3.5.3.2.8-.3.4-2.8.8Zm14.1-45.1.8-2.1 1.6.7.7-.2-.4 1.5-1.7-.7-.9.8Zm-.3 22-.6-.8.4-1.2h1.5l.5.4-1 1.3-.9.4Zm3.1-30.4-.8-1v-1l.4-.5.5.2.6 1.6v.7zm-4.1 48.8-2.1-1.6 1.4-1 .5.2v.8c-.1 0 .8 1.1.8 1.1l-.5.5Zm-4.1-38.3.3-1.6 1.1-.6-.3 2.2-.4.2-.7-.3Zm7.6 3.5-.4-.8.4-.8 1.7-1 .3 1.3h-1c0-.1-.5 1.1-.5 1.1zm-12.2 25.8v-.5l-1.1-.4 1.5-1 .8 1.3-.4.7-.9.3.2-.3Zm11.1-26.7-.8-1.8.7-.7.7.2v1.7l-.5.6Zm-3.5-14.4-.8-.4-.5-1.3.9-.2 1.1 1.6zm0 7.3-1.1-.8v-.7h1.2l.6 1.3h-.7Zm3.3-11.3-.8-.3v-1.1l1.6.5v.8c.1 0-.8.2-.8.2Zm8.4-7.1-1.2-.9.3-.7.8-.4.3.4-.3 1.5Zm-8.1 4-.8-.6-.3-1.1.6-.6 1.1 1.2-.6.2v1Zm3.4-2.5-.9-1.9.3-.8.9.9.2.9-.4.8Zm-7.5 60.5-.6-1.8 1.8 1.2-1.3.7Zm1-45-.8-.8.3-1.2 1.1.8-.3 1.2zm-1.3-8.1h-1.6l-.4-.4.6-.6h.6l.9.3v.8Zm0 33.8-.2-1.1 1.5-.3v.7c-.1 0-1.4.7-1.4.7Zm-5.9-30.7-.6-1.3.6-.7.7 1v.6l-.6.4Zm10.7-6.6-1-.5-.3-.9 1.7.4v1.1h-.3Zm-3.4 2-.4-.6.7-.4h1l.5.6zm2.5 54.1-1.1-.7-.6-1h.7l1 .7zm3.6-34.5-1.3-.6.6-1.2.5.4zm-.1-16.2-.5-.4v-.7l1.2-.3v1.2l-.7.1Zm-1.6-8.5-1.1-.2-.3-.5.9-.6.8.8-.4.5Zm-1.7 8.8-1.4-.6 2.1-.5v.7zm-9.1 40.4-.5-.4v-.9c-.1 0 .9.2.9.2l.5.6v.4l-.8.2Zm2-42.7-.4-.8.2-1 .8.6v1c-.1 0-.6.2-.6.2m8.2 10.1-.9-.3v-.3l1.9-.2v.4l-.9.4Zm.7-14.8-.9-.2-.2-.6h1.6v.6l-.6.2Zm7.7-8 .9-.4.8.5h-1.7Z"/><path id="CL-MA" d="M233.5 431.8h-.5c0-.1-.3-1-.3-1l-.4-4.7-.6-.9 1 7-.4.7-2.4-2-.8-3.2.5-.3 1.6 3.2h.3c0-.1-1.8-4.1-1.8-4.1l1.1-1-1.4.4-.8 1.1-.9-2.2-1.1-.3v-3.8l.9.3 1 1.1 1 2.4-1.7-6.2.4-.3.5 1-.2-1.7h-.5l-1.4 1.3-1.8-.5-.4-.3-.2-1.7-.8-.6v-1.6c-.1 0 .5-.7.5-.7l2.6-.2.5.7 1-3.8 1.1-.3 1 1 .3-.7-1.4-.8-.7-1.1 1.1-.9.3-1.3-1.9 2.1-.5 3.3-1.2 1.1h-.9c0-.1-.7-1-.7-1l-1.6-4.4.7-.2 1.8 1 1.2.2-2.2-1.6h-1.6c0-.1-3.8-3.5-3.8-3.5l.2-.8.8-.7 2.3-.2 1.4 1.9 2.3 1h.9l-3-1.3-1.9-3.1.3-1h.7l1.4 1.3 2.2.9v-.9l-4.2-2.2-.2-1 1.5-.7h1.1v-.5l-2.3.3-.2-1.7.7-.8 1.5-.5 1.3.3.6 1.6 1.3.9.2.9v-.5c.1 0-.3-1.2-.3-1.2l-.9-.2-.2-1.8-2.3-.7.4-3.2 1.4 1.2h.7l-.9-.5-.5-.9-.3-2.4.8-1 1.1.4v-.3l-.6-.3-1.4.2v1.9l-1 2.4-.6 3.1-1.5-1.5-.2-6.8-.5-2.1.7-1.3.7.4.9-.5 1.4.3 8.6 7.4.8.2-.5.5h-3.1c0 .1-1.1 3.5-1.1 3.5l.6.9.7 2.7-.8.9-.2 1.3.8.9-.6 1.8 1.9 1.9.5 1.2.5 4 .9 2.6 1.1-.3 1.1-1.2 1.3-.7 1.2.8 1.4-1 1.2.2.7.6-.4 1.2.9 1.9-.2 2.4-.7.4-.6 1.1.2.8 1.2 1.2-.6 1.1-.3 2.6-.5.4 1.1 2.8 1.5.7 1.7 1.8.5 2.2h18.3l5.1 2.3h2.2l3.9 2.1 3.8.8v.8l-.7-.8-4.1-.6-2-1.3H271l-1.9 1-.2 1.8-1.8 2.3-1.3-.4-1 .2-5.6 3-3 .4-.3 2.3.3 1.8-1.3 3.1-.4 3.2.5 3.4-.4 2.6-.7 1-2.3 1-1.6-.8-2.4-.4-1.5-1.1-2.5-.9-1.7-1.7-1.6-2.8.3-1.4 1.3-1.2 1.6.2.2 2.1-1.3.8h1.2l.9-.7v-2.4l1.4-.3.8 3.3-.6.8-1.5.9v.5l2-.8.4-.8.2-3.9 3.9-1.8 1.9-3.3-.4-1.2-1.8-.3-2.4 1.3-2.8 2-1.2 2h-.8c0 .1-1.1-1.2-1.1-1.2l-.8-.3-2 .5-.3.3h1.7l1.7 1.6-1.5.7-1.4-.6-.5.2.2.4.8.3-.9 1.8h-.8l-.5-.6.9 1.5.5-.3 1 1.5v.7l-1 .2-5.4-4.2-.7-.2-1.5-1.8h3.4l1.8 2.2h.4l.2-.9-.9-.9.3-.7h1c0 .1-1.1-.3-1.1-.3l-.8.4-.8-.7.6-1.2-.7-1.5v-1.2l2.2-1.8 1.3.8 1.5.3 2.4-2.6 1.6-.2 1.1.8h1c0 .1 1.3 0 1.3 0l1.7-.8-.7-1.2-5.6-.7h-1.7c0 .1-1 2.2-1 2.2l-1.2-1 .5-.7 1-.4-.2-.3-1.2.5h-2.3l-1 1.4.9-.3 1.2.5v.4l-1.1 1.5-1.5.7-.5.8.6 2-.3 1.3-2.1.7-1.1-.5-1.2-1.2 2-1.8-1.2-.2-1.9-1.2.5-.4 1.1.3 1.5-.2-.2-1.1 1.5-3.3.4-.2 1.6.4-1.2-.6h-1.3c0 .1-.2 1.5-.2 1.5l-.9 1.4h-.6c0-.1-.4-1.3-.4-1.3l-1.9 1.6-.5.9-.8-.4v-1.9c.1 0 1.4-.9 1.4-.9h-.5c0-.1-.7-1.9-.7-1.9l.2-.8h.6c0 .1.2-.7.2-.7l-.2-1.5-1.3-2.1v-.9h.4l1.3 2.4.7-.3 1.4.8.8-.3.7-1.4 1.7-.6v1.8l1.1 1.2.8-3.1-.9 2.2-.6-.5v-1.3l.8-2 .6-.3 1 .8v.9l1.5 2.4-.4 1.9-3.4 2h.3c0 .1 3-1.2 3-1.2l.9-.9.2-1.8-1.7-2.4-.2-1.3.3-.3 1.1.2.6-.6-.5-3-2-2.2-1.9-.6-1.9-1.6-1.2.3v.6c-.1 0 .9-.2.9-.2l1.7.7 2.6 2.5 1.5.7-.7 1.4h-.9l-.9-.9-4.5-2.5.5 1.5h1.3l.9 1.1-.6 1-1.3.4 1.1-.2.9-.7.4.6-2 1.2-.4 2.4Zm43.4 43.1v1.7l-2.4-1.4 1.4 1.6-.5.4-2.5.4-5.6-2.1.2-2.1-.8.5-.2 1.3-5.2.7-.4-1 .8-1.7-1.2 2.1H258c0-.1-1.3.5-1.3.5l-.7-.5.5-.6 2.4-1.3.7-1.3h-.9l-.6.8.3.4-2 .8h-.9l-.2-.6 1.4-.5h-.9l-1.6 1.6.6-2.6h-.4l-.4.7-1.2.7-.9-.4-.3-.4.4-1.3-.7-.9-.6.5-.8 2.2-1.9-1.4-1.3.8h-1.2l-.5-1.4.3-1.9 1.4 1.5 1.4.5.9-.5-1.1-1.3-1.2-.2-.2-.7.5-.3h.6l.9 1.6.7.3.7-.4-1-.4v-.9c-.1 0 1.4.6 1.4.6l.7-.3-.5-.3.5-.5 3.8 1.6.3-2.1 1.2-.4 1.9.4-.9 1.8-.4 2.3.3-.4.7.6-.6-1.3 1.1-2.2 2.9 2.8 1.5-.4-3-1.9-.9-2.2-2.9-.5-.7-1.9h.4c0-.1 5.1 2.9 5.1 2.9l2 1.8.7-.9-1-.3-.3-.6 1.4-1.1.8.8 1.9 4.2.3-1.3-1.4-2.7.2-.5 5.8 2.6.2.7-1.8 2.4.4 1 .9-2.4.6-.2.4.9.3-.4v-1.6l1.5.2v-.6l-.9-.7-9.2-4.8-1.3-4.3.3-1.5 2.2-1.4 1.4-.2 4-2.2v-2.6l-2.1-.3-3.1.4-3.1 1.9-2.2-1.7-.3-1.4.3-4.3.9-1.1v1.5c.1 0 1.6-.4 1.6-.4l.9-1.7v-.4c-.1 0-1.1-.2-1.1-.2l-.7-1.3h-1.2l.2-.6 2.4-.5 1.3 1.7h.9l2-1.4 1-1.8v-1.5l1.8-1.1 2.5 3.5 1.8-.6 1.5-1.1 1.9 1-.2 34.5Zm-58.5-74-1-.7.3-.5 1.1-.8.5.4-.7-.7-1.4.8-.3-4 .3-2.2 2.2-2.6-2.8 2.7-.2-.9-.3.4v1.7l.4.7-.5 3.3-1.2-.7-1.5-3.2v-1.9l-.7-1-.6.3-.3-2.1.8-.5 1 2 1.1 1.2-1.5-2.8v-.7l.5-.1 1 1.2.9-1.4-.2-.6 1.6 1.9.9-3.5-1.4-1.6-.9-2.1v-.6c.1 0 .8-.5.8-.5l2.2-1.1 1.9.5.2.6.8 8-.8 3.4.2.7-.9 2 .6-.6v-.6l.6-.1.5 1.7-.6 3.1-1.4 1.5h-1.3Zm59.2 82.8-1-1-.6.3 1.3 1.4 1.8-.4 2.4 1.1v1.2h.9l-.4.9.6 1 .8.2v1.4c-.1 0-.9.8-.9.8l-1.5-1.7-.3-1.5-1-.9-1.1.4-.6-.6h-1.8l-1.1.7-.9-.8-.3-.6.3-.5 1.4-.2v-.8c.1 0-1.1.4-1.1.4v-.3c-.1 0 .8-2.5.8-2.5l-2.1 1.3-1.6-.7-.5-1.5-1.7.5h1.3l.3 1-1 .4v.7c-.1 0 .7 1.3.7 1.3v1l1.5.2-.2 1.2-1.5-.4-1 .2-.6-1.5.9-.9-.9-.4-.8.7-.4-.7-.9-.4.3-1.1 1.5-1.1-3.4 1.4-.6-.6.7-.3-.6-.6-1.2-.2 1.3-1.5 6.7-1.3h3.5c0-.1.9-.7.9-.7l2.2-.3 1 .4.8 1.5v.4c-.1 0-2.5 1.3-2.5 1.3l-1.7-.2-2.4-1.8-.4.4 2.7 2.1h3.8c0 .1 1.6 1.5 1.6 1.5v.3zm-45.3-24.4.5-.3v-1.6l-3 .7.9-.7v-.7h-1l-.2-.9.3-.5.9.2.7-.4 1.6 1.5h2.9v-.3l-1.1.2-1.9-.5-1.4-2.5 3 .7-.7-1.4.9-.3 1.6.4.3 4 .6-2.2-.5-1.2.7.3 1.1 2 .8-.7 1.4.4.3 1.1-.7.4.4 1.1.7-.9 1.3.6.9 1.2-1 1.2-1-.2-.6.5v1.2l.9.4v.8l-1 .1-1 .9-.8-.6-1.9 1.1-1.9-.9 2.4-1 .5-2.8-.7-.4-1.2.9h-.8l-.4-1-.7 3.2-.9-.4-.8-2.5Zm50.1 17.6 6.1.2 2 .5 1.6 2-.4 2.1-1.3 1.8h-.5c0 .1-1.5-.4-1.5-.4l.2-1.2-1-.7-.8.3-.4 1.3-2.2-.4.3-.2-.3-.8-2.2.8-.4-.4-.5-3.6H280l-.4-.8zm-50.7-26.6h.8l1.8 1.1v.4l-3.7-.6v-.6c-.1 0-3.9-3.6-3.9-3.6l-1.7.7-2.5-.2-.9-1.8-1.6-.8v-1.6l-1.5-1.1.4-.6.6.3 2.7 3.3 1.1.2 1.2-.4 3.9 2.2 1.1-.2.5.7v1.3c-.1 0 .3 1.1.3 1.1l.5-.6-.3-1.2.3-.2 1.5 1.5-.5.7Zm20 12 .2 1 .8.2.9-.4.7.6.2 2.7-1.3 1.9-2.1-1.2-.9-1.7v-.5l.7-.3-.4-.6-.8.7-.4 1.6-1.1-.3-.3-.8.5-1.2-.2-1.9.5-.7h1.4l1.8 1.1Zm7.2 3.5-1.6-.7-1.2-1.1-.6-1-.2-2.7 1.1-.7 1.6.5v-.7l-.8-.6v-1.5l.9-.7.5-1.3.6-.2v2.6l1.4 4.6-.2.5h-1l-1.8-2v.9l1.2 2.5v1.7Zm-11-4.7-.5.5.6 2-.7 1-.8-.3-1-2.2-.3.2.4 1.6 1.6 1.8-.8 1.7h-1.1v-1.3l-2.6-2.8-.3-2.5h.6l1.2.6.7-1.6.4-.2 2.8 1.1v.4Zm-32.3-56.6-1.7 2.1h-.8v-.5l1-1.5-2.3.8.8-3.2 1.1.2-.8.4.2.5 1.7.3v-1.2c-.1 0-2.3-1.3-2.3-1.3l-.2-.5.8-.6 1.8.5 1.3 1.5-.7.8 2-.4v-.6h.6v1.3l-2.4 1.3Zm3.2 12.2-1.6-.8-.8-1.7.4-1 2.2.6.7-.4v-1.5l-.7-.8.3-.3 2.4 1.6.4 2.9-.3 1-.7-1.4-1.2.7-.3.8-.9.3Zm41.8 60.1h.4c0 .1-1.8.9-1.8.9v.7h-1.9l-.2.3 2.3.5 2-.2.2 1.3-.5.3-.9-.8-.4.7.7.4v.4l-1.4.7-.3-.4v-1.1c.1 0-.4-.6-.4-.6l-.9.7-2.9-1.4.2-1.6 1.1-.2 2.8.6-.3-.5 1-.6 1.5-.2Zm-36.9-64-.6-1-.5.4-1.9-1.2-.5-1.7 1.4-1.4-2.3-.7 1-.8 1.9 1 1.7 4.2-.3 1.2Zm41.1 66.4v-.7l-.4-.7.2-1 .8-.3 1.6-.2 4.9 1.5-7 1.4Zm-38.3-37.5-1.5-1.9.9-1.4 2.4-1.8.6 1.1-.6 2-.7 1.5-1 .5Zm-10.3-19.4-.2-.6 2.2-1.8-1.3.7-.2-.8 1.5-1.6 1.7-.3.7 1.3-.2 1.5-.7.5-.5-1.2-1 1.6-1.9.7Zm-3.2-10.4-1.2-.5-.6-1.6.8-.8.5.2-.2-1.1-.6-.5.5-.6 3.1.6-1 1.5-.7-.2v2.5l-.5.6Zm1.4-13.3-.9-1 .2.9h-.4l-1.2-1.8-1.3.9-.4-2.5.4-.5h1.9l1.5 2.8.2 1.3Zm2 33.6-.9-2.3 1-2.5.2.9 1-.3-.3-1.9-.7-1.2.6-.4.8.4.2 2-1.1 4.1-.8 1.1Zm-2.7-45.6-.6-1.9-1.7 1.3-1.3-1 .2-1.7.7-.2 2.3.4 1 2.4-.5.7Zm2.9 2.8-.9-1.1-1.8-.8 1.1-1.9h1.4l.8.9-.3 3.1-.2-.3Zm-3.4 35.3v-1.4l.8-1.1.2-2.5.8-.7 1.2 1.1v1.1h-.7l-.7 2.6-1.5.9Zm11.1 11.8-.8-1v-1.2l.3-.3.9.3-.4-.8-2.6-.8 1-1 3.6 3.7-.4.5zm-13.1-47.2-1.4-.8.5-1 .8-.3 1.7-1.9.5 1.6-2.2 2.5Zm7.8 24.1-2.3-.7-.2-1.6.6-.9.7-.2.7.6.8 1.7zm5.1 16.2-2-1-1.2-2.8 1.2.4 2.7 2.1-.7 1.2Zm29.7 48.1-1.4-.8-1.3.8-.6-.2-.5-1 .5-.9 3.1.9.7-.4.8 1.1-1.4.5Zm-25.5-43.9-1.4-2-2.3-1.5.5-1.4 2.8 2.5.8 2.1v.5l-.3-.2Zm-2.8-6.5-2-1.5v-.4h.9l.5-.9v-1.2l1.6 3.4-.9.7Zm63.8 64.4v-.6l-2-.3v-1.2l1.6-1.5 1.1 3.1-.8.5Zm-71.9-59.2-.3-.4 1.4-4.2h1.5l-1.6 3.7zm24.6 30.8.8 1.1-.9 1.8h-1.6l-.4-.8 1.4-2h.7Zm-14.8-26.8-.7-1.4-1.6-1.8.4-.7 2.6 2.1.2 1.5-.8.3Zm3.9 15.8.3.3-.7.9.7 1.1-.9.5-3-2.3 1.7.7.8-.3-.4-.4v-.6h1.4Zm-16.9-67-1-2.8 1.2.3 1 .9v1.2c.1 0-1.2.4-1.2.4m7.4 32.9-1.3-.6-.4-1 1.1-1.2 1 1.6-.4 1.1Zm1.4.2-.6-4.5.4.4 1 3.8-.7.7-.2-.5Zm38.2 48.1-1.8-.7-.5-.7v-.7c.1 0 2.7 1 2.7 1v.5c.1 0-.5.5-.5.5Zm-28.6-2.3-1.9-1 .8-.7 2 .4.2 1zm61.2 18.1.3 1.4-.5.3-1.6-.2.2-1.3 1.7-.3Zm-59.6-51.1.5-1.8 1.6-.7-1 2.4h-1.2Zm-9.3-10.4-.3-2.1h1.1l.4 1.4zm-10-37.8-1.1-.9 1.7-1.9v1c.1 0-.6 1.9-.6 1.9Zm3.5 24.5-.3-.2.3-1.4.6-.5 1.4.3zm3.2-13.1v-2.8l1.4 1.8zm-6.5 34.4.4-2.5.8-.4.2.4-.4 1.7-1 .7Zm9.3-6.9-1.1-.8v-1.6c-.1 0 .6-.3.6-.3l.7 1.6-.2 1Zm72.2 61.3-.5-.3v-1.1c.1 0 .9-.6.9-.6l1 .3-.8 1.4-.7.3Zm-37.1-7.4.6.7-2.6.4-.6-.5 1.5-.6h1.2Zm-44-63.8-.5-1.2.3-.9h.9v2.3h-.8Zm24.9 57-.7-1.4 1.1-.6 1.2.4v.5l-1.6 1Zm-21.6-37.6 1.7-2.2.3.2v1l-2 1.3zm41.7 33.2-1.2-.9v-.6c-.1 0 1.6-.4 1.6-.4l.2.8zm-33.3-9.2-.3-.8.2-1.4 1.6 1.1-1.5 1.2Zm4.1-10.1h-.4l-.4-.5.4-.3-.7-.4h-2.1c0 .1 1.7-.6 1.7-.6l1.4.4.5.6-.4.7Zm-3.7-17.7-.6-.3-.8-2.1 1.3 1 .3.6-.3.8Zm59.1 66-.4-.9-1.8.3v-.8h3.2v1h-.8zm5.7-15.2 1.5.5.5 1.4-2.5-1.5v-.5h.5Zm-73.9-43.1-.7-1.4 1.9-.4-.6 1.5zm9.2-14.6-.8-.2-.4-.8.8-.8.7.8-.3 1.1Zm-11.6-39-.4-.3.5-1.1 1.6.2zm2.2 51.6-.2-1 1.7-1-.7 1.7-.9.3Zm67.3 55.6.2-1.9.5-.3.6 1.5zm-23.3-10.3-.4-.2.2-.4 1.8-.7-.2.9-1.4.5ZM225.1 450l-.7 1.1h-1c0-.1 1.3-1.5 1.3-1.5l.5.4Zm65.1 43.5-1.5-1.3h1.5c0 .1.4 1.2.4 1.2h-.4ZM227 428.8l-.9-.3.3-1.4.9 1.2-.4.5Z"/><path id="CL-TA" d="M261.2 35.8h1.5l3-2.1h2.6l1.5 1.1 1.5-.2.2-1.1.9-.9h1.4l.5 1.4 4.4 3.7-2.3 2.7 1.6 2.1-.5 1.4-2 .6.8 2.3-.5.4v.8c.1 0 2.7 1.8 2.7 1.8l-.9 1v1.6l-2.5-.3-1.2.3.3.6 2.2.5-.9 2.5-.9.4-7.5 1.8-3.8-.4-1.1-4.2.3-1.4-.7-.7.8-8.4-1.5-7.3Z"/><path id="CL-AN" d="M278.2 52.9h.8l2.3 3.7v3.2l.8 1.4.2 2.2 1.4 1.5v2c.1 0 .9 2.6.9 2.6l-.3 2.8.8.5 2 .2 3.8-.8 1.7 1.9-3.2 10.6-8.8 3.9-.6 1h-.7l-1.1 1.8-.6 1.5 2.1 3.2-1.4.5-.4 1h-.9l-1.2 1.1-2.2.4-1.2 2v1.9h-2.7l-.4 1.1-.9.2-.9 1.1-2.3-2.1h-1.4c0-.1-2.3 1.3-2.3 1.3l-2.5.4-1.3 1.2.3-1-1-1.8.9-2.6 1.7-2.1.2-1.1-1.4-5.7.8-6.4v-2.6c-.1 0 1-3 1-3l-.9-1.2-.5.7h-.8c0-.1.5-4.6.5-4.6l.7-.5.3.7.9-.3.9-1.8-.2-1 1.5-11.5 1-2.5 3.8.4 7.5-1.8.9-.4.9-2.5-2.2-.5-.3-.6 1.2-.3 2.5.3.5.4Z"/><path id="CL-AT" d="m277.5 98.5-.2 1.6 1 2.6.9 4.4-1.6 1.5-.2 2.1 2.8 4.1-.3 1.4-3.1 1.2-1.5-.2-.9 2.6-1.6 2.9-1 3.5-1.1.5-.5 1.4-2.9 3v1.9c-.1 0-.9 1-.9 1l.2 1.4-.7 3.2-1 .5-1.2 1.7.6 2.8h-1.1c0-.1-3.8-1.6-3.8-1.6l-.2-1.3-2.3-2.3-1 .5-1.1 2.6-1.5.2-1.4-2.5-2.2.5v-3.4l1.9-2.2v-1.2c.1 0 1.3-2.3 1.3-2.3l.6-5.4.9-1.8.9-.6.2-1.5-.7-3.3 1.7-2-.4-1.3 1.2-3.2.5-2.8-.2-2.3 1.3-1.2 2.5-.4 2.3-1.4h1.4c0 .1 2.3 2.3 2.3 2.3l.9-1.1.9-.2.4-1.1h2.8v-1.9l1.1-2 2.2-.4 1.2-1h.9l-.4.7Z"/><path id="CL-CO" d="m249.6 139.5 2.2-.5 1.4 2.5 1.5-.2 1.1-2.6 1-.5 2.3 2.3.2 1.3 3.8 1.5h1.1v1.3l.6 1.6-.2 2.2.9 2.1-1 2-1.9.7-.7 1.3-1 2.9.2 2.3-2.2 1.4-.4 1.8-.3 2.7 1.2 3 2.1 1.2-.3 1.2-.8.5.3 2h-1.2l-.2-.8-1.4-.4-1.1-1.4h-2.9l-1 1.2-2.4.4-1-.3-.4.4.3-4.6-1.5-6.8.2-2-.5-2.5.2-4.6.3-.8.9.2 1.3-1.2.6-2.5.5-.5-.5-1.8.3-3.6-.4-1.3-1.3-1.3Z"/><path id="CL-RM" d="M263.4 196.6v-.5l-1.1-.7v-1.5h-1.7l-.3-1.8-.6-.3-3.6 1.1-1.3 1.5v.7l-.8.2h-.9l-.8-1.1-1.2-.5-.6-1.1H249l-.9-.3.5-.3.3-1.1h1.6c0 .1.5-.4.5-.4l.4-1.6-.5-1.9 1.2-1.2.2-1.3 1.8-.6v-2.4l2.5-.5 1.4.4.8 1.3 1.1-.5 1.6 1.2 1.3-1v1.5l.9 1.4.7-.7h.5l.7.4.3 1.2-.9 1.9-.3 2.6.8 5.2-.7.5h-1.5Z"/><path id="CL-VS" d="m249.2 172.7.4-.4 1.4.3 2-.5 1-1.1h2.9l1.1 1.3 1.4.4.2.8h1.2l.7.6.9 2.6 1.8 2.1v.9l-1.3 2.7-1.3 1-1.6-1.2-1.1.5-.8-1.3-1.4-.4-2.6.5v2.4l-1.8.6-.2 1.3-1.2 1.2.5 1.9-.4 1.6-.5.5h-1.6c0-.1-.3.9-.3.9l-.9.6-.3.4-1.4-.3.6-1.8 1.2-.6.3-1-1-6 1.8-1.1 1.2-3.9.4-3.1-1.2-2.4ZM-111 117.4l-2 .7.5-1.4 1.7.3z"/><path id="CL-AR" d="m230.4 244.3 1.3.8 2.5-2.5.3-.9-.9-1.4 1.4-2.1v-1.1c.1 0-.8-.6-.8-.6l.9-1.1 1.3-.2 1.1.7 2.1.3 1.4 2.2 1.5.6 1.4 1.5 3.2.2.5 2.7.5.5.4-.8 1.5-.7.3-.6 3.8-.2.3 3.7 1.4 1.7-.3 1.6-.6.6h-1.2l-3.3 2.1-.3 1.5.3 2.5-1 4.4-1 .3-.8-.7-.2-.9h-.8l-1.3-1h-1.8l-1.9 1-2.2-.8h-1.8l-1.1-1.8h-1.4l-1.2 1.4-1.1-.2.2-1.8-2.8-8.6-.2-1.8.3-.8Z"/><path id="CL-BI" d="m237.3 216.1 1.1.5 1.6 1.8 2.1 1h1.2l.7-1.4 1.1 1.4h1.8l.6 1.1 1.7.7 2.2 1.6h.4l1.3-1.9h.6c0 .1.5 1.3.5 1.3l-1.6 4.4.7 3.2-.8 2.2.8 1.9-.7 2.9 1.7 5-3.8.2-.3.6-1.5.7-.4.8-.5-.5-.5-2.7-3.2-.2-1.4-1.5-1.5-.6-1.4-2.2-2.1-.3-1.1-.7-1.3.2-.9 1.1.9.6v1.1c-.1 0-1.5 2.1-1.5 2.1l.9 1.4-.3.9-2.5 2.5-1.3-.8.5-3.2-.8-2.2-1.3-1.8-.2-1.5.9-1.5-.8-1.6.4-1.8.5-.6.7.6 1.4.3 1.6-.9.7-5.7.9.5.6-.3 1.4-4.4.5-4.3Z"/><path id="CL-LI" d="m248.2 192.2.9.4h1.5l.6 1 1.2.5.8 1.1h.9l.8-.2v-.7l1.3-1.5 3.6-1.1.6.3.3 1.8h1.6l.1 1.5 1 .7v1.8l-1.8 3-1.2 3.9-2.4-.2-1.7-1.4-3-.9h-2c0 .1-.8.8-.8.8v.7l-2.8-.4-2.3-.8-1.3-1.4V198c.1 0 .8-.8.8-.8l-.3-2.3 1.4-2.4 1.4.3.3-.4.4-.3Z"/><path id="CL-LL" d="m219.6 310.9-1.5.6-.6-1.2.9-.4zm11.7-14.1-.2.4-.3-.7-1.5-.7-.2-.9h1.1zm-4.5-9-1 .3 1.2.7 1.6-1.1h1.2l.7.4-.2 1.7.7 1.1-.5.8 1 .8.2.7-.2.8-2.6.7-.2 1.3.7.6-1 .4-.5-.5.2-.5-.6.6v1.2c.1 0 3.1 2.5 3.1 2.5v1h-1l-.4.7 1.5 2.4h-2.8c0 .1.1 1.2.1 1.2l.7.9-.2 1.2-1.5.4-.8-.6-3.1-.5-1.2-.9 2.2-4.7.3-4-.6-1 .4-3.4.9-1.2.6-2.9-.5-1.3.3-.5h1.1c0 .1.3.6.3.6Zm1.3-19.6 2.9.2.6.9.9.2 1.5-1.1 1.5.6.9 1.7 3 2.4 1.9.7 1.9-2.4h3.2l-.2 1.5-.9 1 1.1 2.9-.6 5.1.5 2.5-.6 1.3 1.2 2.7.6 3-1.7 1-.5-.6h-.5l-1.1 2 .8 1.1-.9 2.9.4 3.4-.3 2 .8 1.3 2.1.4.9.6v1.6l-1.5.4-.4 1.7 2.2 1.9v1.2l-1 .6v.4l1 1.4-1-.3-1.3.7v.5c-.1 0-1.5.1-1.5.1l-.2-.9-1.2-.7-.8-1.8-.5-.2-1.2 1.6-3.3-.6v-.5.5h-.1l-.8-.5-.9.4v-2l-.7-1.8.3-1.7 1.6-1-.2-1.5.8-1.4 1 .5v-1.8l-.8-.8-.3-1.1v-2.5l.6-.9 2.5.8-1.4-1-1.6-2.4.9-.9 1.4-.5.6.7.9 2.8h.3c0-.1-.7-4.3-.7-4.3l.3-1.9h-.6c0-.1-1 .6-1 .6l-1.2-.2-1.1-1 2-2.6h1.7c0-.1 1.2-1 1.2-1l.4-2.8h-.3c0 .1-.6 2.8-.6 2.8l-1.7.7-.9-.4-1.2-2.1-1.2-.4-1 .3-.6.9.5 1.4-1.3 1.2-1.9-.2-1.1.4-2.2-.7.6-1.6 1.2-.2.6-1.2-.7 1h-1.4l-1.5-1.5V282c.1 0-1-3.3-1-3.3l-.2-1.4 2.4-5.7-.3-1.1.3-1.9Z"/><path id="CL-ML" d="m254.2 222.2-.5-1.1h-.6c0-.1-1.3 1.8-1.3 1.8h-.4l-2.2-1.6-1.7-.7-.6-1h-1.8l-1.1-1.5-.7 1.4h-1.2l-2.1-1.1-1.6-1.8-1.1-.5 1.8-1.9-.5-2.7 1.3-1 1.1-2.8 1.6-1.4.4-2.7 1.2-2.4 1.3 1.4 2.3.8 2.9.4v-.7l.7-.7h2c0-.1 3 .8 3 .8l1.7 1.4 2.4.2-.2 2-1.5.5-.3.7 1.4 1.1v3.2l.8 2.1-.7 1v2.1c.1 0-.3.9-.3.9l-1.4.2-1.1 1.2v1.7l-2.4.9h-.6Z"/><path id="CL-AP" d="M273.9 32.6h-1.4l-.9.9-.2 1.1-1.5.2-1.5-1.1h-2.6l-3 2.1h-1.5l-.6-6.1.4-2-.9-.9 2.6-.3 1.7-.7 1.8-2.6-.7-2.4v-.7c.1 0 .3-.3.3-.3h1.2c0 .1 1.8-1.5 1.8-1.5v1.3c.1 0 1.6 1.6 1.6 1.6l.3 1.8 2.1.6-.7 1.1.6.8.6 2.6v1.8l.9 2.3-.2.4Z"/><path id="CL-LR" d="M246.3 271.5h-3.2l-1.9 2.4-1.9-.8-3-2.4-.9-1.7-1.5-.6-1.5 1.1-.9-.2-.6-.9-2.9-.2.2-1.2.6-.8-.3-1.9 3-1.3v-1.5l1.5-3.9-.2-.4 1.1.2 1.2-1.3h1.4l1.1 1.8h1.8l2.2.7 1.9-1.1h1.8l1.3 1h.8l.2.9-.2 2 .7 2.8-.3 1.2-1.2.8-.3 1.1.9 1.2.2-.3.3.2v.5l-.5 1.1-.6-.2-.6 1.5Z"/></g></svg>