<?xml version="1.0" encoding="UTF-8"?>
<svg id="Layer_1" xmlns="http://www.w3.org/2000/svg" xmlns:amcharts="http://amcharts.com/ammap" version="1.1" viewBox="0 0 512 512">
  <!-- Generator: Adobe Illustrator 29.1.0, SVG Export Plug-In . SVG Version: 2.1.0 Build 142)  -->
  <g id="_x3C_defs">
    <amcharts:ammap bottomLatitude="-55.906121" leftLongitude="-109.450502" projection="mercator" rightLongitude="-66.428316" topLatitude="-17.498982"/>
  </g>
  <g>
    <path id="CL-AI" d="M236.4,335.9l.4-.9h-1c0,.1-1-.3-1-.3l-1.7-1.7-1.3.6h-.7c0-.1-.2-.6-.2-.6v-.7c.1,0,1.1-.2,1.1-.2l.3-.5-.9-1.6.3-.9,2.2-.3,3.6-2.6,1.5-3.8v-1.3c0,0-1.2,1-1.2,1l-1.8-1.5v-.4l-2.2-.7-1.2-1.1v-.8s1.4-1.2,1.4-1.2l1.1-2.8,1.6-.4v-.4h0l3.3.6,1.2-1.6.5.2.8,1.8,1.2.7.2.9h1.3c0-.1.1-.7.1-.7l1.3-.7,1,.3h0l.5.9-1.6,3,.2,2.2-.5.6.7.5h3.6c0-.1,2,.3,2,.3l.8,1.4-.8.8-.3,2.1-.5.7h-.9s-1.2-.7-1.2-.7l-1.5.5-1.1-.4-.7.5-2-.5-.3.4v1.5c.1,0,4.8,1,4.8,1l2.4,3.5.3,1-1.6,2.3-2.7,1.1-.4,2.3.4,1.6,1,.5.4,1.3-1.5,1.9-1.3.4,1.5,1.4.7,6-1.3,1.4-1.2.4-.4,3,1.1,1.5v1.1c0,0-1.5.8-1.5.8l-1.4,1.9h-.9l-.9.5v.4c0,0,.4.4.4.4l-.2,1.3-2,4.5.2.6,1.8,1.7.3,3.9-2.9,1.8.3,4.7-1.9,1.9-2.2.7-.9,1.3-.9,2.7h0l-8.6-7.4h0l-1-.5-1.4.3-.8-1.7,1.9-1.9,1.5,1,.2-1.9-2-.9,1.1-.5-1.4-.5-2.1-2.2-1.5-.8v-1.1c.1,0,1.1-.6,1.1-.6l1.7.9.7,2.4.6.6h.3c0,0-1.4-3.2-1.4-3.2h2.4c0-.1,1.1.6,1.1.6l1.8-.3,1.7,1.5.4,1.5.6-1,1.4.3.6-.6v-.9c.1,0,0-.3,0-.3v.8c0,0-.8.6-.8.6l-1.1-.6-1.5-2v-1.1c0,0,.7,0,.7,0l.8,1.1,2.5.3-1.1-.6h-1.3s-2.3-2.6-2.3-2.6l-.2-1.1.8-1-.7-1.4-.4.9.4.6-.4,2.1-1.6.9-1-.3-.2-.6-3.1-.6-2.2.4-1.2-.9,1.3-2,.6-.3,1.1.2,1.5,2.5h.9c0,.1-.8,0-.8,0l-.4-.8.4-.7,2-.2v-1.1c-.1,0-1.2.7-1.2.7l-1.3.2-2.1-2.4,2-3h1.4c0,0,.6,1.8.6,1.8l-.3-1.9,1.8-2.5-.9-.8-1,.2-1-1.6-.2-1.2-.7-.3-2.7.3v.8s1.7.2,1.7.2l-.6.6-4.8-2.1-.7-1.7,1.3-1.7v-.9s-1.4,1.8-1.4,1.8l-1,.7-2.3.3-1.6.7-.3,1.1,1.5-1.1.5.2.7,2.3-1.4,1.1-.8-.2-1.4-2.1v-2.2c0,0,.7-.9.7-.9h.7s1.6-1.3,1.6-1.3v-.5c0,0,.6-.7.6-.7l.6-.3.5.6.2-1.5,1.1-1.2h1.3l1.3-1.4,1.4-3.9,2.9-.5.5.6,1.5-.5.4.5.5,1.5-.4,1.8-.6.8.8-.5.2-1.6.7.7v.7s-.9,1.3-.9,1.3l-2.3.9-1.7-.9,1.5,1.1,2.7-.9.4,1.3,1.4.8-1.5-1.8.5-1h.7c0,0,1.2,1.4,1.2,1.4l-.4,2-1.8,2.4,1.1.6,4.3-7.3-2.5,3.3.6-3.2-.4-1.4,1.2-2.3,1.5-1.6,2-.4-1.3-.4-.8.2-1.7,1.8.6-4.4,2.9-2.1,1.9,2,1.3.3ZM236.5,326l-2.5,2.3-1.4.4-1.3-1.6,1-.5h.9c0,.1-.9-.3-.9-.3l-.9.4-.7-1.9.5-.7,1.3-.2.5-2.2,2.2-.7,2.2,1.4.5.9-1,1.4-1.5-.4,1.4.9-.3.8ZM214.2,381h-.3c0,.1-.4-.9-.4-.9l-.4-2.1.2-.8-1-.6-1,.4-.6-.3.2-.5,1.4-.4.4-.6-1.8.4-.5-3.3.7-.9,1.4-.4,2.7,7.2v1.5s-1.1,1.3-1.1,1.3ZM219.7,380.9l-1.2-.8-2.4-.5-.3-1.3,1-1.4h.7s.8,1.2.8,1.2l.5-.6-1-1.8.7-3,.6,2.5.9,1.6v2.4c0,0,.4.6.4.6l.2-.5.4.2-.2,1-1.1.4ZM215.9,377.4l-1.6-3.1-.6-2.2,2.1.4,2.2,1.2-.3,2.6-1.8,1.2ZM228.2,333.3l-.9-.6h-1.6s-1.1-1.2-1.1-1.2l-1.1.3v-1.3c-.1,0,.5-.6.5-.6l3.2-.4,1.4,1.8-.3,2ZM222.6,370.8l-1.7-1,2-1.6,3.5,1.1.8-.3.4.3-.2.9-.5.2-2.3-.2-2,.6ZM223.2,326.9l-1.1-.7-.2-1.7,1.5-.4h2.4c0,0,1.1,1,1.1,1l-3.7,1.7ZM215.4,344.4l-.2-.9,1.4-.3-.3-.4h-.8c0,0-.4-1.5-.4-1.5l.4-.2,1.2.5,2.1-1.4-.8,3.1-1.2,1.1-1.4-.2ZM210.3,380.9l1.6-1-.9.3-1.1-.3.3-2.5,2.7-.2.2,2.4-1.7,1.3h-1ZM221.3,340l-.4-.7.5-.7-.2-1.9.7-1.3,1.1.7.6,1.9-.3.6-2.1,1.3ZM217.2,372l-1.4-.5v-.5c0,0-.4-.2-.4-.2l-1,.7h-.9c0,0,.8-1.1.8-1.1l1.3-.3,2.1-1.8.2,3.3-.8.5ZM229,339.8l-1.2-1.2v-1.9s.9-1.2.9-1.2l1,.4-.7,3.9ZM223,329.9l-.8-.2v-.5c0,0,1.8-1.5,1.8-1.5l1.9.5.6.7-3.5,1ZM228.1,326l-.7-.9v-1.3s1.2-.6,1.2-.6l1,2.3-1.5.4ZM225.7,315.3l-1.6-.8v-.8c.1,0,2.4-.3,2.4-.3l.5-.5.9,1.7h-.9c0,0-.2-.6-.2-.6h-.8c0,.1.3.8.3.8l-.6.4ZM225.7,334.3l-1.3-.5v-1.3c-.1,0,.6-.3.6-.3l.5.7h1.7s.4.4.4.4v.8c0,0-2,.1-2,.1ZM220.7,375.9l-.7-1.5.3-1.6,1.9,2-1.5,1.2ZM227.9,346l-1.5-1.9.2-.7h.8s1.4.8,1.4.8l-.9,1.9ZM221.8,323.5l-1.1-.3-.3-.9,2.2-.9.5.2.4.9-1.8.5v.5ZM225.8,339.3l-.7-.2-.5-1.3.8-1.1,1.3,1.1-.3,1.1-.6.3ZM210.3,382.4l-.3-.2v-1.1s1.3.3,1.3.3l1.6-1.3.5.3.2.8-.3.4-2.8.8ZM224.4,337.3l.8-2.1,1.6.7.7-.2-.4,1.5-1.7-.7-.9.8ZM224.1,359.3l-.6-.8.4-1.2h1.5c0,0,.5.4.5.4l-1,1.3-.9.4ZM227.2,328.9l-.8-1v-1c0,0,.4-.5.4-.5l.5.2.6,1.6v.7c0,0-.7,0-.7,0ZM223.1,377.7l-2.1-1.6,1.4-1,.5.2v.8c-.1,0,.8,1.1.8,1.1l-.5.5ZM219,339.4l.3-1.6,1.1-.6-.3,2.2-.4.2-.7-.3ZM226.6,342.9l-.4-.8.4-.8,1.7-1,.3,1.3h-1c0-.1-.5,1.1-.5,1.1l-.5.2ZM214.4,368.7v-.5c0,0-1.1-.4-1.1-.4l1.5-1,.8,1.3-.4.7-.9.3.2-.3ZM225.5,342l-.8-1.8.7-.7.7.2v.5s0,1.2,0,1.2l-.5.6ZM222,327.6l-.8-.4-.5-1.3.9-.2,1.1,1.6-.7.3ZM222,334.9l-1.1-.8v-.7s1.2,0,1.2,0l.6,1.3h-.7ZM225.3,323.6l-.8-.3v-1.1l1.6.5v.8c.1,0-.8.2-.8.2ZM233.7,316.5l-1.2-.9.3-.7.8-.4.3.4-.3,1.5ZM225.6,320.5l-.8-.6-.3-1.1.6-.6,1.1,1.2-.6.2v1ZM229,318l-.9-1.9.3-.8.9.9.2.9-.4.8ZM221.5,378.5l-.6-1.8,1.8,1.2-1.3.7ZM222.5,333.5l-.8-.8.3-1.2,1.1.8-.3,1.2h-.3ZM221.2,325.4h-1.6s-.4-.4-.4-.4l.6-.6h.6s.9.3.9.3v.8ZM221.2,359.2l-.2-1.1,1.5-.3v.7c-.1,0-1.4.7-1.4.7ZM215.3,328.5l-.6-1.3.6-.7.7,1v.6l-.6.4ZM226,321.9l-1-.5-.3-.9,1.7.4v1.1s-.3,0-.3,0ZM222.6,323.9l-.4-.6.7-.4h1c0,0,.5.6.5.6l-1.8.4ZM225.1,378l-1.1-.7-.6-1h.7s1,.7,1,.7v1ZM228.7,343.5l-1.3-.6.6-1.2.5.4.2,1.4ZM228.6,327.3l-.5-.4v-.7s1.2-.3,1.2-.3v1.2s-.7.1-.7.1ZM227,318.8l-1.1-.2-.3-.5.9-.6.8.8-.4.5ZM225.3,327.6l-1.4-.6,2.1-.5v.7s-.7.4-.7.4ZM216.2,368l-.5-.4v-.9c-.1,0,.9.2.9.2l.5.6v.4s-.8.2-.8.2ZM218.2,325.3l-.4-.8.2-1,.8.6v1c-.1,0-.6.2-.6.2ZM226.4,335.4l-.9-.3v-.3l1.9-.2v.4s-.9.4-.9.4ZM227.1,320.6l-.9-.2-.2-.6h1.6c0,0,0,.6,0,.6l-.6.2ZM234.8,312.6l.9-.4.8.5h-1.7Z"/>
    <path id="CL-MA" d="M233.5,431.8h-.5c0-.1-.3-1-.3-1l-.4-4.7-.6-.9,1,7-.4.7-2.4-2-.8-3.2.5-.3,1.6,3.2h.3c0-.1-1.8-4.1-1.8-4.1l1.1-1-1.4.4-.8,1.1-.9-2.2-1.1-.3v-3.8s.9.3.9.3l1,1.1,1,2.4-1.7-6.2.4-.3.5,1-.2-1.7h-.5c0,0-1.4,1.3-1.4,1.3l-1.8-.5-.4-.3-.2-1.7-.8-.6v-1.6c-.1,0,.5-.7.5-.7l2.6-.2.5.7,1-3.8,1.1-.3,1,1,.3-.7-1.4-.8-.7-1.1,1.1-.9.3-1.3-1.9,2.1-.5,3.3-1.2,1.1h-.9c0-.1-.7-1-.7-1l-1.6-4.4.7-.2,1.8,1,1.2.2-2.2-1.6h-1.6c0-.1-3.8-3.5-3.8-3.5l.2-.8.8-.7,2.3-.2,1.4,1.9,2.3,1h.9s-3-1.3-3-1.3l-1.9-3.1.3-1h.7c0,0,1.4,1.3,1.4,1.3l2.2.9v-.9c0,0-4.2-2.2-4.2-2.2l-.2-1,1.5-.7h1.1c0,0,0-.5,0-.5l-2.3.3-.2-1.7.7-.8,1.5-.5,1.3.3.6,1.6,1.3.9.2.9v-.5c.1,0-.3-1.2-.3-1.2l-.9-.2-.2-1.8-2.3-.7.4-3.2,1.4,1.2h.7s-.9-.5-.9-.5l-.5-.9-.3-2.4.8-1,1.1.4v-.3s-.6-.3-.6-.3l-1.4.2v1.9s-1,2.4-1,2.4l-.6,3.1-1.5-1.5-.2-6.8-.5-2.1.7-1.3.7.4.9-.5,1.4.3h0l8.6,7.4h0l.8.2-.5.5h-3.1c0,.1-1.1,3.5-1.1,3.5l.6.9.7,2.7-.8.9-.2,1.3.8.9-.6,1.8,1.9,1.9.5,1.2.5,4,.9,2.6,1.1-.3,1.1-1.2,1.3-.7,1.2.8,1.4-1,1.2.2.7.6-.4,1.2.9,1.9-.2,2.4-.7.4-.6,1.1.2.8,1.2,1.2-.6,1.1-.3,2.6-.5.4,1.1,2.8,1.5.7,1.7,1.8.5,2.2h18.3s5.1,2.3,5.1,2.3h2.2s3.9,2.1,3.9,2.1l3.8.8v.8c0,0-.7-.8-.7-.8l-4.1-.6-2-1.3h-1.1s-1.9,1-1.9,1l-.2,1.8-1.8,2.3-1.3-.4-1,.2-5.6,3-3,.4-.3,2.3.3,1.8-1.3,3.1-.4,3.2.5,3.4-.4,2.6-.7,1-2.3,1-1.6-.8-2.4-.4-1.5-1.1-2.5-.9-1.7-1.7-1.6-2.8.3-1.4,1.3-1.2,1.6.2.2,2.1-1.3.8h1.2c0,0,.9-.7.9-.7v-2.4s1.4-.3,1.4-.3l.8,3.3-.6.8-1.5.9v.5s2-.8,2-.8l.4-.8.2-3.9,3.9-1.8,1.9-3.3-.4-1.2-1.8-.3-2.4,1.3-2.8,2-1.2,2h-.8c0,.1-1.1-1.2-1.1-1.2l-.8-.3-2,.5-.3.3h1.7c0,0,1.7,1.6,1.7,1.6l-1.5.7-1.4-.6-.5.2.2.4.8.3-.9,1.8h-.8s-.5-.6-.5-.6l.9,1.5.5-.3,1,1.5v.7s-1,.2-1,.2l-5.4-4.2-.7-.2-1.5-1.8h3.4c0,0,1.8,2.2,1.8,2.2h.4c0,0,.2-.9.2-.9l-.9-.9.3-.7h1c0,.1-1.1-.3-1.1-.3l-.8.4-.8-.7.6-1.2-.7-1.5v-1.2c0,0,2.2-1.8,2.2-1.8l1.3.8,1.5.3,2.4-2.6,1.6-.2,1.1.8h1c0,.1,1.3,0,1.3,0l1.7-.8-.7-1.2-5.6-.7h-1.7c0,.1-1,2.2-1,2.2l-1.2-1,.5-.7,1-.4-.2-.3-1.2.5h-2.3c0,0-1,1.4-1,1.4l.9-.3,1.2.5v.4s-1.1,1.5-1.1,1.5l-1.5.7-.5.8.6,2-.3,1.3-2.1.7-1.1-.5-1.2-1.2,2-1.8-1.2-.2-1.9-1.2.5-.4,1.1.3,1.5-.2-.2-1.1,1.5-3.3.4-.2,1.6.4-1.2-.6h-1.3c0,.1-.2,1.5-.2,1.5l-.9,1.4h-.6c0-.1-.4-1.3-.4-1.3l-1.9,1.6-.5.9-.8-.4v-1.9c.1,0,1.4-.9,1.4-.9h-.5c0-.1-.7-1.9-.7-1.9l.2-.8h.6c0,.1.2-.7.2-.7l-.2-1.5-1.3-2.1v-.9c0,0,.4,0,.4,0l1.3,2.4.7-.3,1.4.8.8-.3.7-1.4,1.7-.6v1.8s1.1,1.2,1.1,1.2l.8-3.1-.9,2.2-.6-.5v-1.3s.8-2,.8-2l.6-.3,1,.8v.9s1.5,2.4,1.5,2.4l-.4,1.9-3.4,2h.3c0,.1,3-1.2,3-1.2l.9-.9.2-1.8-1.7-2.4-.2-1.3.3-.3,1.1.2.6-.6-.5-3-2-2.2-1.9-.6-1.9-1.6-1.2.3v.6c-.1,0,.9-.2.9-.2l1.7.7,2.6,2.5,1.5.7-.7,1.4h-.9c0,0-.9-.9-.9-.9l-4.5-2.5.5,1.5h1.3c0,0,.9,1.1.9,1.1l-.6,1-1.3.4,1.1-.2.9-.7.4.6-2,1.2-.4,2.4ZM276.9,474.9v1.7c0,0-2.4-1.4-2.4-1.4l1.4,1.6-.5.4-2.5.4-5.6-2.1.2-2.1-.8.5-.2,1.3-5.2.7-.4-1,.8-1.7-1.2,2.1h-2.5c0-.1-1.3.5-1.3.5l-.7-.5.5-.6,2.4-1.3.7-1.3h-.9c0,0-.6.8-.6.8l.3.4-2,.8h-.9s-.2-.6-.2-.6l1.4-.5h-.9s-1.6,1.6-1.6,1.6l.6-2.6h-.4c0,0-.4.7-.4.7l-1.2.7-.9-.4-.3-.4.4-1.3-.7-.9-.6.5-.8,2.2-1.9-1.4-1.3.8h-1.2s-.5-1.4-.5-1.4l.3-1.9,1.4,1.5,1.4.5.9-.5-1.1-1.3-1.2-.2-.2-.7.5-.3h.6s.9,1.6.9,1.6l.7.3.7-.4-1-.4v-.9c-.1,0,1.4.6,1.4.6l.7-.3-.5-.3.5-.5,3.8,1.6.3-2.1,1.2-.4,1.9.4-.9,1.8-.4,2.3.3-.4.7.6-.6-1.3,1.1-2.2,2.9,2.8,1.5-.4-3-1.9-.9-2.2-2.9-.5-.7-1.9h.4c0-.1,5.1,2.9,5.1,2.9l2,1.8.7-.9-1-.3-.3-.6,1.4-1.1.8.8,1.9,4.2.3-1.3-1.4-2.7.2-.5,5.8,2.6.2.7-1.8,2.4.4,1,.9-2.4.6-.2.4.9.3-.4v-1.6c0,0,1.5.2,1.5.2v-.6s-.9-.7-.9-.7l-9.2-4.8-1.3-4.3.3-1.5,2.2-1.4,1.4-.2,4-2.2v-2.6c0,0-2.1-.3-2.1-.3l-3.1.4-3.1,1.9-2.2-1.7-.3-1.4.3-4.3.9-1.1v1.5c.1,0,1.6-.4,1.6-.4l.9-1.7v-.4c-.1,0-1.1-.2-1.1-.2l-.7-1.3h-1.2c0,0,.2-.6.2-.6l2.4-.5,1.3,1.7h.9s2-1.4,2-1.4l1-1.8v-1.5s1.8-1.1,1.8-1.1l2.5,3.5,1.8-.6,1.5-1.1,1.9,1-.2,34.5ZM218.4,400.9l-1-.7.3-.5,1.1-.8.5.4-.7-.7-1.4.8-.3-4,.3-2.2,2.2-2.6-2.8,2.7-.2-.9-.3.4v1.7l.4.7-.5,3.3-1.2-.7-1.5-3.2v-1.9s-.7-1-.7-1l-.6.3-.3-2.1.8-.5,1,2,1.1,1.2-1.5-2.8v-.7s.5-.1.5-.1l1,1.2.9-1.4-.2-.6,1.6,1.9.9-3.5-1.4-1.6-.9-2.1v-.6c.1,0,.8-.5.8-.5l2.2-1.1,1.9.5.2.6.8,8-.8,3.4.2.7-.9,2,.6-.6v-.6s.6-.1.6-.1l.5,1.7-.6,3.1-1.4,1.5h-1.3ZM277.6,483.7l-1-1-.6.3,1.3,1.4,1.8-.4,2.4,1.1v1.2c0,0,.9,0,.9,0l-.4.9.6,1,.8.2v1.4c-.1,0-.9.8-.9.8l-1.5-1.7-.3-1.5-1-.9-1.1.4-.6-.6h-1.8s-1.1.7-1.1.7l-.9-.8-.3-.6.3-.5,1.4-.2v-.8c.1,0-1.1.4-1.1.4v-.3c-.1,0,.8-2.5.8-2.5l-2.1,1.3-1.6-.7-.5-1.5-1.7.5h1.3s.3,1,.3,1l-1,.4v.7c-.1,0,.7,1.3.7,1.3v1s1.5.2,1.5.2l-.2,1.2-1.5-.4-1,.2-.6-1.5.9-.9-.9-.4-.8.7-.4-.7-.9-.4.3-1.1,1.5-1.1-3.4,1.4-.6-.6.7-.3-.6-.6-1.2-.2,1.3-1.5,6.7-1.3h3.5c0-.1.9-.7.9-.7l2.2-.3,1,.4.8,1.5v.4c-.1,0-2.5,1.3-2.5,1.3l-1.7-.2-2.4-1.8-.4.4,2.7,2.1h3.8c0,.1,1.6,1.5,1.6,1.5v.3c0,0-3.4.4-3.4.4ZM232.3,459.3l.5-.3v-1.6c0,0-3,.7-3,.7l.9-.7v-.7c0,0-1,0-1,0l-.2-.9.3-.5.9.2.7-.4,1.6,1.5h2.9c0,.1,0-.3,0-.3l-1.1.2-1.9-.5-1.4-2.5,3,.7-.7-1.4.9-.3,1.6.4.3,4,.6-2.2-.5-1.2.7.3,1.1,2,.8-.7,1.4.4.3,1.1-.7.4.4,1.1.7-.9,1.3.6.9,1.2-1,1.2-1-.2-.6.5v1.2s.9.4.9.4v.8s-1,.1-1,.1l-1,.9-.8-.6-1.9,1.1-1.9-.9,2.4-1,.5-2.8-.7-.4-1.2.9h-.8c0,0-.4-1-.4-1l-.7,3.2-.9-.4-.8-2.5ZM282.4,476.9l6.1.2,2,.5,1.6,2-.4,2.1-1.3,1.8h-.5c0,.1-1.5-.4-1.5-.4l.2-1.2-1-.7-.8.3-.4,1.3-2.2-.4.3-.2-.3-.8-2.2.8-.4-.4-.5-3.6h-1.1c0,0-.4-.8-.4-.8l2.8-.5ZM231.7,450.3h.8c0,0,1.8,1.1,1.8,1.1v.4s-3.7-.6-3.7-.6v-.6c-.1,0-3.9-3.6-3.9-3.6l-1.7.7-2.5-.2-.9-1.8-1.6-.8v-1.6c0,0-1.5-1.1-1.5-1.1l.4-.6.6.3,2.7,3.3,1.1.2,1.2-.4,3.9,2.2,1.1-.2.5.7v1.3c-.1,0,.3,1.1.3,1.1l.5-.6-.3-1.2.3-.2,1.5,1.5-.5.7ZM251.7,462.3l.2,1,.8.2.9-.4.7.6.2,2.7-1.3,1.9-2.1-1.2-.9-1.7v-.5s.7-.3.7-.3l-.4-.6-.8.7-.4,1.6-1.1-.3-.3-.8.5-1.2-.2-1.9.5-.7h1.4c0,0,1.8,1.1,1.8,1.1ZM258.9,465.8l-1.6-.7-1.2-1.1-.6-1-.2-2.7,1.1-.7,1.6.5v-.7s-.8-.6-.8-.6v-1.5s.9-.7.9-.7l.5-1.3.6-.2v2.6s1.4,4.6,1.4,4.6l-.2.5h-1s-1.8-2-1.8-2v.9c0,0,1.2,2.5,1.2,2.5v1.7ZM247.9,461.1l-.5.5.6,2-.7,1-.8-.3-1-2.2-.3.2.4,1.6,1.6,1.8-.8,1.7h-1.1c0-.1,0-1.3,0-1.3l-2.6-2.8-.3-2.5h.6c0,0,1.2.6,1.2.6l.7-1.6.4-.2,2.8,1.1v.4ZM215.6,404.5l-1.7,2.1h-.8c0,0,0-.5,0-.5l1-1.5-2.3.8.8-3.2,1.1.2-.8.4.2.5,1.7.3v-1.2c-.1,0-2.3-1.3-2.3-1.3l-.2-.5.8-.6,1.8.5,1.3,1.5-.7.8,2-.4v-.6c0,0,.6,0,.6,0v1.3c0,0-2.4,1.3-2.4,1.3ZM218.8,416.7l-1.6-.8-.8-1.7.4-1,2.2.6.7-.4v-1.5s-.7-.8-.7-.8l.3-.3,2.4,1.6.4,2.9-.3,1-.7-1.4-1.2.7-.3.8-.9.3ZM260.6,476.8h.4c0,.1-1.8.9-1.8.9v.7c0,0-1.9,0-1.9,0l-.2.3,2.3.5,2-.2.2,1.3-.5.3-.9-.8-.4.7.7.4v.4s-1.4.7-1.4.7l-.3-.4v-1.1c.1,0-.4-.6-.4-.6l-.9.7-2.9-1.4.2-1.6,1.1-.2,2.8.6-.3-.5,1-.6,1.5-.2ZM223.7,412.8l-.6-1-.5.4-1.9-1.2-.5-1.7,1.4-1.4-2.3-.7,1-.8,1.9,1,1.7,4.2-.3,1.2ZM264.8,479.2v-.7c0,0-.4-.7-.4-.7l.2-1,.8-.3,1.6-.2,4.9,1.5-7,1.4ZM226.5,441.7l-1.5-1.9.9-1.4,2.4-1.8.6,1.1-.6,2-.7,1.5-1,.5ZM216.2,422.3l-.2-.6,2.2-1.8-1.3.7-.2-.8,1.5-1.6,1.7-.3.7,1.3-.2,1.5-.7.5-.5-1.2-1,1.6-1.9.7ZM213,411.9l-1.2-.5-.6-1.6.8-.8.5.2-.2-1.1-.6-.5.5-.6,3.1.6-1,1.5-.7-.2v2.5c0,0-.5.6-.5.6ZM214.4,398.6l-.9-1,.2.9h-.4s-1.2-1.8-1.2-1.8l-1.3.9-.4-2.5.4-.5h1.9s1.5,2.8,1.5,2.8l.2,1.3ZM216.4,432.2l-.9-2.3,1-2.5.2.9,1-.3-.3-1.9-.7-1.2.6-.4.8.4.2,2-1.1,4.1-.8,1.1ZM213.7,386.6l-.6-1.9-1.7,1.3-1.3-1,.2-1.7.7-.2,2.3.4,1,2.4-.5.7ZM216.6,389.4l-.9-1.1-1.8-.8,1.1-1.9h1.4c0,0,.8.9.8.9l-.3,3.1-.2-.3ZM213.2,424.7v-1.4s.8-1.1.8-1.1l.2-2.5.8-.7,1.2,1.1v1.1s-.7,0-.7,0l-.7,2.6-1.5.9ZM224.3,436.5l-.8-1v-1.2c0,0,.3-.3.3-.3l.9.3-.4-.8-2.6-.8,1-1,3.6,3.7-.4.5-1.6.6ZM211.2,389.3l-1.4-.8.5-1,.8-.3,1.7-1.9.5,1.6-2.2,2.5ZM219,413.4l-2.3-.7-.2-1.6.6-.9.7-.2.7.6.8,1.7-.3,1.1ZM224.1,429.6l-2-1-1.2-2.8,1.2.4,2.7,2.1-.7,1.2ZM253.8,477.7l-1.4-.8-1.3.8-.6-.2-.5-1,.5-.9,3.1.9.7-.4.8,1.1-1.4.5ZM228.3,433.8l-1.4-2-2.3-1.5.5-1.4,2.8,2.5.8,2.1v.5s-.3-.2-.3-.2ZM225.5,427.3l-2-1.5v-.4c0,0,.9,0,.9,0l.5-.9v-1.2l1.6,3.4-.9.7ZM289.3,491.7v-.6c0,0-2-.3-2-.3v-.4s0-.8,0-.8l1.6-1.5,1.1,3.1-.8.5ZM217.4,432.5l-.3-.4,1.4-4.2h1.5s-1.6,3.7-1.6,3.7l-1,.9ZM242,463.3l.8,1.1-.9,1.8h-1.6c0,0-.4-.8-.4-.8l1.4-2h.7ZM227.2,436.5l-.7-1.4-1.6-1.8.4-.7,2.6,2.1.2,1.5-.8.3ZM231.1,452.3l.3.3-.7.9.7,1.1-.9.5-3-2.3,1.7.7.8-.3-.4-.4v-.6c.1,0,1.4,0,1.4,0ZM214.2,385.3l-1-2.8,1.2.3,1,.9v1.2c.1,0-1.2.4-1.2.4ZM221.6,418.2l-1.3-.6-.4-1,1.1-1.2,1,1.6-.4,1.1ZM223,418.4l-.6-4.5.4.4,1,3.8-.7.7-.2-.5ZM261.2,466.5l-1.8-.7-.5-.7v-.7c.1,0,2.7,1,2.7,1v.5c.1,0-.5.5-.5.5ZM232.6,464.2l-1.9-1,.8-.7,2,.4.2,1-1.1.3ZM293.8,482.3l.3,1.4-.5.3-1.6-.2.2-1.3,1.7-.3ZM234.2,431.2l.5-1.8,1.6-.7-1,2.4h-1.2ZM224.9,420.8l-.3-2.1h1.1c0,0,.4,1.4.4,1.4l-1.2.7ZM214.9,383l-1.1-.9,1.7-1.9v1c.1,0-.6,1.9-.6,1.9ZM218.4,407.5l-.3-.2.3-1.4.6-.5,1.4.3-2,1.8ZM221.6,394.4v-2.8s1.4,1.8,1.4,1.8l-1.4,1ZM215.1,428.8l.4-2.5.8-.4.2.4-.4,1.7-1,.7ZM224.4,421.9l-1.1-.8v-1.6c-.1,0,.6-.3.6-.3l.7,1.6-.2,1ZM296.6,483.2l-.5-.3v-1.1c.1,0,.9-.6.9-.6l1,.3-.8,1.4-.7.3ZM259.5,475.8l.6.7-2.6.4-.6-.5,1.5-.6h1.2ZM215.5,412l-.5-1.2.3-.9h.9s0,2.3,0,2.3h-.8ZM240.4,469l-.7-1.4,1.1-.6,1.2.4v.5s-1.6,1-1.6,1ZM218.8,431.4l1.7-2.2.3.2v1c0,0-2,1.3-2,1.3v-.3ZM260.5,464.6l-1.2-.9v-.6c-.1,0,1.6-.4,1.6-.4l.2.8-.6,1.1ZM227.2,455.4l-.3-.8.2-1.4,1.6,1.1-1.5,1.2ZM231.3,445.3h-.4s-.4-.5-.4-.5l.4-.3-.7-.4h-2.1c0,.1,1.7-.6,1.7-.6l1.4.4.5.6-.4.7ZM227.6,427.6l-.6-.3-.8-2.1,1.3,1,.3.6-.3.8ZM286.7,493.6l-.4-.9-1.8.3v-.8s3.2,0,3.2,0v1c-.1,0-.8,0-.8,0l-.2.4ZM292.4,478.4l1.5.5.5,1.4-2.5-1.5v-.5s.5,0,.5,0ZM218.5,435.3l-.7-1.4,1.9-.4-.6,1.5-.6.3ZM227.7,420.7l-.8-.2-.4-.8.8-.8.7.8-.3,1.1ZM216.1,381.7l-.4-.3.5-1.1,1.6.2-1.7,1.2ZM218.3,433.3l-.2-1,1.7-1-.7,1.7-.9.3ZM285.6,488.9l.2-1.9.5-.3.6,1.5-1.3.7ZM262.3,478.6l-.4-.2.2-.4,1.8-.7-.2.9-1.4.5ZM225.1,450l-.7,1.1h-1c0-.1,1.3-1.5,1.3-1.5l.5.4ZM290.2,493.5l-1.5-1.3h1.5c0,.1.4,1.2.4,1.2h-.4ZM227,428.8l-.9-.3.3-1.4.9,1.2-.4.5Z"/>
    <path id="CL-TA" d="M261.2,35.8h1.5c0,0,3-2.1,3-2.1h2.6l1.5,1.1,1.5-.2.2-1.1.9-.9h1.4l.5,1.4,4.4,3.7-2.3,2.7,1.6,2.1-.5,1.4-2,.6.8,2.3-.5.4v.8c.1,0,2.7,1.8,2.7,1.8l-.9,1v1.6h0l-2.5-.3-1.2.3.3.6,2.2.5-.9,2.5-.9.4-7.5,1.8-3.8-.4h0l-1.1-4.2.3-1.4-.7-.7.8-8.4-1.5-7.3Z"/>
    <path id="CL-AN" d="M278.2,52.9h.8s2.3,3.7,2.3,3.7v3.2s.8,1.4.8,1.4l.2,2.2,1.4,1.5v2c.1,0,.9,2.6.9,2.6l-.3,2.8.8.5,2,.2,3.8-.8,1.7,1.9-3.2,10.6-8.8,3.9-.6,1h-.7c0,0-1.1,1.8-1.1,1.8l-.6,1.5,2.1,3.2-1.4.5-.4,1h-.9c0,0-1.2,1.1-1.2,1.1l-2.2.4-1.2,2v1.9c0,0-2.7,0-2.7,0l-.4,1.1-.9.2-.9,1.1-2.3-2.1h-1.4c0-.1-2.3,1.3-2.3,1.3l-2.5.4-1.3,1.2h0l.3-1-1-1.8.9-2.6,1.7-2.1.2-1.1-1.4-5.7.8-6.4v-2.6c-.1,0,1-3,1-3l-.9-1.2-.5.7h-.8c0-.1.5-4.6.5-4.6l.7-.5.3.7.9-.3.9-1.8-.2-1,1.5-11.5,1-2.5h0l3.8.4,7.5-1.8.9-.4.9-2.5-2.2-.5-.3-.6,1.2-.3,2.5.3h0l.5.4Z"/>
    <path id="CL-AT" d="M277.5,98.5l-.2,1.6,1,2.6.9,4.4-1.6,1.5-.2,2.1,2.8,4.1-.3,1.4-3.1,1.2-1.5-.2-.9,2.6-1.6,2.9-1,3.5-1.1.5-.5,1.4-2.9,3v1.9c-.1,0-.9,1-.9,1l.2,1.4-.7,3.2-1,.5-1.2,1.7.6,2.8h-1.1c0-.1-3.8-1.6-3.8-1.6l-.2-1.3-2.3-2.3-1,.5-1.1,2.6-1.5.2-1.4-2.5-2.2.5h0v-3.4c0,0,1.9-2.2,1.9-2.2v-1.2c.1,0,1.3-2.3,1.3-2.3l.6-5.4.9-1.8.9-.6.2-1.5-.7-3.3,1.7-2-.4-1.3,1.2-3.2.5-2.8-.2-2.3h0l1.3-1.2,2.5-.4,2.3-1.4h1.4c0,.1,2.3,2.3,2.3,2.3l.9-1.1.9-.2.4-1.1h2.8v-1.9c0,0,1.1-2,1.1-2l2.2-.4,1.2-1h.9c0,0-.4.7-.4.7Z"/>
    <path id="CL-CO" d="M249.6,139.5l2.2-.5,1.4,2.5,1.5-.2,1.1-2.6,1-.5,2.3,2.3.2,1.3,3.8,1.5h1.1c0,.1,0,1.3,0,1.3l.6,1.6-.2,2.2.9,2.1-1,2-1.9.7-.7,1.3-1,2.9.2,2.3-2.2,1.4-.4,1.8-.3,2.7,1.2,3,2.1,1.2-.3,1.2-.8.5.3,2h-1.2s-.2-.8-.2-.8l-1.4-.4-1.1-1.4h-2.9c0,0-1,1.2-1,1.2l-2.4.4h0l-1-.3-.4.4h0l.3-4.6-1.5-6.8.2-2-.5-2.5.2-4.6.3-.8.9.2,1.3-1.2.6-2.5.5-.5-.5-1.8.3-3.6-.4-1.3-1.3-1.3Z"/>
    <path id="CL-RM" d="M263.4,196.6v-.5c0,0-1.1-.7-1.1-.7v-1.5c-.1,0-1.7,0-1.7,0l-.3-1.8-.6-.3-3.6,1.1-1.3,1.5v.7s-.8.2-.8.2h-.9s-.8-1.1-.8-1.1l-1.2-.5-.6-1.1h-1.5c0,0-.9-.3-.9-.3h0l.5-.3h0l.3-1.1h1.6c0,.1.5-.4.5-.4l.4-1.6-.5-1.9,1.2-1.2.2-1.3,1.8-.6v-2.4c0,0,2.5-.5,2.5-.5l1.4.4.8,1.3,1.1-.5,1.6,1.2,1.3-1h0v1.5s.9,1.4.9,1.4l.7-.7h.5s.7.4.7.4l.3,1.2-.9,1.9-.3,2.6.8,5.2-.7.5h-1.5Z"/>
    <path id="CL-VS" d="M249.2,172.7l.4-.4,1.4.3,2-.5,1-1.1h2.9c0,0,1.1,1.3,1.1,1.3l1.4.4.2.8h1.2s.7.6.7.6l.9,2.6,1.8,2.1v.9c0,0-1.3,2.7-1.3,2.7h0l-1.3,1-1.6-1.2-1.1.5-.8-1.3-1.4-.4-2.6.5v2.4c0,0-1.8.6-1.8.6l-.2,1.3-1.2,1.2.5,1.9-.4,1.6-.5.5h-1.6c0-.1-.3.9-.3.9h0l-.9.6h0l-.3.4-1.4-.3h0l.6-1.8,1.2-.6.3-1-1-6,1.8-1.1,1.2-3.9.4-3.1-1.2-2.4ZM-111,117.4l-2,.7.5-1.4,1.7.3-.2.4Z"/>
    <path id="CL-AR" d="M230.4,244.3l1.3.8,2.5-2.5.3-.9-.9-1.4,1.4-2.1v-1.1c.1,0-.8-.6-.8-.6l.9-1.1,1.3-.2,1.1.7,2.1.3,1.4,2.2,1.5.6,1.4,1.5,3.2.2.5,2.7.5.5.4-.8,1.5-.7.3-.6,3.8-.2h0l.3,3.7,1.4,1.7-.3,1.6-.6.6h-1.2c0,0-3.3,2.1-3.3,2.1l-.3,1.5.3,2.5-1,4.4-1,.3-.8-.7h0l-.2-.9h-.8s-1.3-1-1.3-1h-1.8c0,0-1.9,1-1.9,1l-2.2-.8h-1.8c0,0-1.1-1.8-1.1-1.8h-1.4s-1.2,1.4-1.2,1.4l-1.1-.2h0l.2-1.8-2.8-8.6-.2-1.8.3-.8Z"/>
    <path id="CL-BI" d="M237.3,216.1l1.1.5,1.6,1.8,2.1,1h1.2s.7-1.4.7-1.4l1.1,1.4h1.8c0,0,.6,1.1.6,1.1l1.7.7,2.2,1.6h.4c0,0,1.3-1.9,1.3-1.9h.6c0,.1.5,1.3.5,1.3h0l-1.6,4.4.7,3.2-.8,2.2.8,1.9-.7,2.9,1.7,5h0l-3.8.2-.3.6-1.5.7-.4.8-.5-.5-.5-2.7-3.2-.2-1.4-1.5-1.5-.6-1.4-2.2-2.1-.3-1.1-.7-1.3.2-.9,1.1.9.6v1.1c-.1,0-1.5,2.1-1.5,2.1l.9,1.4-.3.9-2.5,2.5-1.3-.8h0l.5-3.2-.8-2.2-1.3-1.8-.2-1.5.9-1.5-.8-1.6.4-1.8.5-.6.7.6,1.4.3,1.6-.9.7-5.7.9.5.6-.3,1.4-4.4.5-4.3Z"/>
    <path id="CL-LI" d="M248.2,192.2l.9.4h1.5c0,0,.6,1,.6,1l1.2.5.8,1.1h.9s.8-.2.8-.2v-.7s1.3-1.5,1.3-1.5l3.6-1.1.6.3.3,1.8h1.6c0,0,.1,1.5.1,1.5l1,.7v.5h0v1.3s-1.8,3-1.8,3l-1.2,3.9h0l-2.4-.2-1.7-1.4-3-.9h-2c0,.1-.8.8-.8.8v.7c0,0-2.8-.4-2.8-.4l-2.3-.8-1.3-1.4h0v-3.1c.1,0,.8-.8.8-.8l-.3-2.3,1.4-2.4h0l1.4.3.3-.4h0l.4-.3Z"/>
    <path id="CL-LL" d="M219.6,310.9l-1.5.6-.6-1.2.9-.4,1.2,1ZM231.3,296.8l-.2.4-.3-.7-1.5-.7-.2-.9h1.1c0,0,1.1,1.9,1.1,1.9ZM226.8,287.8l-1,.3,1.2.7,1.6-1.1h1.2c0,0,.7.4.7.4l-.2,1.7.7,1.1-.5.8,1,.8.2.7-.2.8-2.6.7-.2,1.3.7.6-1,.4-.5-.5.2-.5-.6.6v1.2c.1,0,3.1,2.5,3.1,2.5v1c0,0-1,0-1,0l-.4.7,1.5,2.4h-2.8c0,.1.1,1.2.1,1.2l.7.9-.2,1.2-1.5.4-.8-.6-3.1-.5-1.2-.9,2.2-4.7.3-4-.6-1,.4-3.4.9-1.2.6-2.9-.5-1.3.3-.5h1.1c0,.1.3.6.3.6ZM228.1,268.2l2.9.2.6.9.9.2,1.5-1.1,1.5.6.9,1.7,3,2.4,1.9.7,1.9-2.4h3.2s-.2,1.5-.2,1.5l-.9,1,1.1,2.9-.6,5.1.5,2.5-.6,1.3,1.2,2.7.6,3-1.7,1-.5-.6h-.5c0,0-1.1,2-1.1,2l.8,1.1-.9,2.9.4,3.4-.3,2,.8,1.3,2.1.4.9.6v1.6s-1.5.4-1.5.4l-.4,1.7,2.2,1.9v1.2s-1,.6-1,.6v.4l1,1.4h0l-1-.3-1.3.7v.5c-.1,0-1.5.1-1.5.1l-.2-.9-1.2-.7-.8-1.8-.5-.2-1.2,1.6-3.3-.6h0v-.5.5h-.1l-.8-.5-.9.4h0v-2s-.7-1.8-.7-1.8l.3-1.7,1.6-1-.2-1.5.8-1.4,1,.5v-1.8s-.8-.8-.8-.8l-.3-1.1v-2.5s.6-.9.6-.9l2.5.8-1.4-1-1.6-2.4.9-.9,1.4-.5.6.7.9,2.8h.3c0-.1-.7-4.3-.7-4.3l.3-1.9h-.6c0-.1-1,.6-1,.6l-1.2-.2-1.1-1,2-2.6h1.7c0-.1,1.2-1,1.2-1l.4-2.8h-.3c0,.1-.6,2.8-.6,2.8l-1.7.7-.9-.4-1.2-2.1-1.2-.4-1,.3-.6.9.5,1.4-1.3,1.2-1.9-.2-1.1.4-2.2-.7.6-1.6,1.2-.2.6-1.2-.7,1h-1.4s-1.5-1.5-1.5-1.5v-1.7c.1,0-1-3.3-1-3.3l-.2-1.4,2.4-5.7-.3-1.1.3-1.9Z"/>
    <path id="CL-ML" d="M254.2,222.2l-.5-1.1h-.6c0-.1-1.3,1.8-1.3,1.8h-.4c0,0-2.2-1.6-2.2-1.6l-1.7-.7-.6-1h-1.8c0,0-1.1-1.5-1.1-1.5l-.7,1.4h-1.2s-2.1-1.1-2.1-1.1l-1.6-1.8-1.1-.5h0l1.8-1.9-.5-2.7,1.3-1,1.1-2.8,1.6-1.4.4-2.7,1.2-2.4h0l1.3,1.4,2.3.8,2.9.4v-.7c0,0,.7-.7.7-.7h2c0-.1,3,.8,3,.8l1.7,1.4,2.4.2h0l-.2,2-1.5.5-.3.7,1.4,1.1v3.2s.8,2.1.8,2.1l-.7,1v2.1c.1,0-.3.9-.3.9l-1.4.2-1.1,1.2v1.7s-2.4.9-2.4.9h-.6Z"/>
    <path id="CL-AP" d="M273.9,32.6h-1.4l-.9.9-.2,1.1-1.5.2-1.5-1.1h-2.6l-3,2.1h-1.5c0,0-.6-6.1-.6-6.1l.4-2-.9-.9,2.6-.3,1.7-.7,1.8-2.6-.7-2.4v-.7c.1,0,.3-.3.3-.3h1.2c0,.1,1.8-1.5,1.8-1.5v1.3c.1,0,1.6,1.6,1.6,1.6l.3,1.8,2.1.6-.7,1.1.6.8.6,2.6v1.8s.9,2.3.9,2.3l-.2.4Z"/>
    <path id="CL-LR" d="M246.3,271.5h-3.2s-1.9,2.4-1.9,2.4l-1.9-.8-3-2.4-.9-1.7-1.5-.6-1.5,1.1-.9-.2-.6-.9-2.9-.2h0l.2-1.2.6-.8-.3-1.9,3-1.3v-1.5s1.5-3.9,1.5-3.9l-.2-.4h0l1.1.2,1.2-1.3h1.4s1.1,1.8,1.1,1.8h1.8c0,0,2.2.7,2.2.7l1.9-1.1h1.8c0,0,1.3,1,1.3,1h.8s.2.9.2.9h0l-.2,2,.7,2.8-.3,1.2-1.2.8-.3,1.1.9,1.2.2-.3.3.2v.5s-.5,1.1-.5,1.1l-.6-.2-.6,1.5Z"/>
  </g>
</svg>