<?xml version="1.0" encoding="UTF-8"?>
<svg id="Layer_1" xmlns="http://www.w3.org/2000/svg" xmlns:amcharts="http://amcharts.com/ammap" version="1.1" viewBox="0 0 512 512">
  <!-- Generator: Adobe Illustrator 29.1.0, SVG Export Plug-In . SVG Version: 2.1.0 Build 142)  -->
  <g id="_x3C_defs">
    <amcharts:ammap bottomLatitude="-4.237159" leftLongitude="-79.051463" projection="mercator" rightLongitude="-66.868938" topLatitude="12.591398"/>
  </g>
  <g>
    <path id="CO_AMA" d="M253.8,397.2l15.8-5.2h4c0,.1,2.7,1.7,2.7,1.7l1.3,2,7.5.2,3.6,2.4,3.3-.3,1.7-2.4h1.1l1.8,2,.8.2h1.7l1.6-1.1,1.5-.2,2,2.3,2.6,1.6h.9c0,0,3-3.6,3-3.6h1.2c0,0,.3.9.3.9l2.9,1.1,1.7-1.1v-1.7c0,0,1.5-3.6,1.5-3.6l4.6-4.5,1.6-.4,3.8.7,1.1-.8,2.5-4.2,2.5-2,4.1-4.5.4-.8-.2-1.2h0l.5-.4h2.2c0,.1,8.2,5,8.2,5l3,.9,1.1-.5,2.2,3,1.2,5.4,1.2,1.9,2.2-.9.5-1,7.5,2.4,2.5,2.8,2,.6,1-.2-.5-.9,1.8-1.3,1.5.8.5.7-1.1,4v3.5s-.9,1.5-.9,1.5v1.1s1.5,1.3,1.5,1.3l.2,1.3-1.8,1.2-.2.6.6,1.3,3.6,2.9h.8c0,0,1.1-.7,1.1-.7l.2-.7-1.7-1.1.5-1.2,1-.6,4.2-.3v1.1c.1,0-.7,2.3-.7,2.3l.2.6,1,.2,5.7-1.9,2.3,2,.5,3.2,4.8-.6v-2.3c-.1,0,.6-1.6.6-1.6h0l1.9,9.4-2.2,5.5-12.7,70.5-2.2,9.3v-.8s-.9-1-.9-1l-4-3.1-1.7-4-1.6-2-2.6-2.1-1.2-.3-4.1,2.1h-.8l-5.8-2.3,19.4-30.2-.9-1.7h-.7c0,0-2.2-1.6-2.2-1.6l-.7-2.2-2.3-2-1.2-.3-1.2.6-5.5-.5-2.5-2.7-.2-1.3-6-3.9-3.5,1.6-3.7,1-2.6,1.4-5.1-.4-1.5-1.9-3.2-1.4-4.6-.3-.6-2.3-3.4,2.4-1.9,2.6-.5,1.7-2.7-.2-7.3,3.8-2.1-.2-8.6-2.5-8.6,2.9-1.6-3.1-2,.3-2.1-1.1-1.2-1.3-.5-2.4,1.6-1.3.6-1.6-.9-6.5-1.3-2.2-1.9-1.3-1.2,1.1-1.7.8-5.7-3.1-.5-.5.6-2.8,1.2-1.3-2.8-4.2-.4-2.7-2.9-2.7-2.9.2-2.6-.7-.8-1.7-6.2-4-4.1-1.1-.7-.6-1.2-2.4,1-2.3-2-2.1-1.6-6Z"/>
    <path id="CO_ANT" d="M245.2,210.4h-.9c0-.1-4.5,1.2-4.5,1.2l-5.2.8-1.3,1.7-2.9,2-3.5-2.3-3.2-.2-6.7-1.9.5,5.8-.5.4h-4.9c0-.1-3,1.3-3,1.3h-3.5c0-.1-3.1-3.6-3.1-3.6l-.3-.7.6-2.1-1.5-4.3.6-1.6.2-2.3-2.3-.5-.5-.5-.4-1.2-.3-3.9-2.5-1.3-8.4,1.6h-3.1c0-.1-2.4-3.6-2.4-3.6l-.4-5-2.6-5.6-2.1-1.6-.3-3.9,1.6-.5,2.2.5,1.4-1.2v-1.1c0,0-.8-2.2-.8-2.2l.5-.7,4.2-.2,3.7,1.1.6-.3.8-5-.7-2.2-1.9-2.7-1.8-.6-1.8-1.4-9.4-10-2.2-.5-.4-2.7,1.1-.3,1.3-1.1.9-3.7,2.1-1.7,1.8-.5.9-1.4h0v3.2c0,0-1.6-.6-1.6-.6l-.7.5-.2,2.8,1.5.8h1.6c0,.1,1.7-.3,1.7-.3l.4-.5.4-3.1-1.2-11.1-1.4-2.1-1.6-1.2-1.5-.5v-.9s1.3-1.6,1.3-1.6l6.2-1.6,7.1-5.9.2-.9h0l1,1.5.3,3.4.8,2.2,1,1.1,3.4,1.7.6,1.3-.5,4-4.6,4.9-1,2.5-1,6-2.4,2.8-.3,4.1.8,4.1,4.3,6.1,14.9-.2,5-6.2.4-2.2,2-2.7.9-.2,2.2,1.4.5-.4.9-3.1,2.5-.9,1.2-2.3,3.3-3.1,7.4-.3,1.2-.7,2.6-3.4h0l3.1,2.6,4.7,3.1,1,1.3.3,5,.6.8-.7,3.3-2,5.6,3.1,3.5,1.6-1.2,1.7-2.8.6-.4.6.2.4,1.8-1.6,2.4-.3,3.6,1.8,6h3c0-.1,8.7-8.3,8.7-8.3h0l-.3,1.4.4,3.7.9,1.4.3,1.9-1.3,1.2-2.3,1.1-2.9,3.9-4.9,3.9-2.9.9-1.1,1.3-.3,1,.2,2.5.8,1.2-.3.6-2.8,3.1-1.9,1h0l-.8,1-.8,2.5v4.9c.1,0-.4.5-.4.5l-1.4,5.7Z"/>
    <path id="CO_ARA" d="M387.8,202.5l-8.5-6.7-2.3-1h-5.3c0-.1-4.4,1.8-4.4,1.8l-4.3.3-9-.4-6.8-1.6-8.3,2.7h-2.8s-.8-.6-.8-.6l-4,.2-6.4,1.3-3.8,2.5h-.6s-3.7-1.4-3.7-1.4l-2.4-3.2-.2-3.1h0l2.5-2.8,3.7-2.1.3-1.7,3-6.3.8-4,1.8-2.8h0l1.5.7h1.3s3.9-1.8,3.9-1.8l3-.3,4.1,1h3.9s4.5,1.8,4.5,1.8l4.6-.6,3.5-1.9.6-.8,4.9-.7,4.9,1.2,7.6,3.6,2.2-1.1h3c0,0,20.4,25.3,20.4,25.3h0l-1.2.9-2.4,1-6.4-.3-2.3.8Z"/>
    <path id="CO_ATL" d="M227.9,60.8l6.1-3.2.5-1.8,4.8-4.8h0l.6,1.6,1.6,1.3,2,3.6v9.1c-.1,0-.4,1.3-.4,1.3l-2.5,2.2-2.9,6.7h0l-9.4-6.7-.2-1.3.4-2.6-.7-2.7h0l.7-.7-.3-1-.5.5h0l.2-1.6Z"/>
    <path id="CO_BOL" d="M271,139.7l-1.9,1.5-.6,1.8v1.9s1.9,6.3,1.9,6.3l-.6,4.8-2.4,4.7-.5,4.6h0l-8.7,8.2h-3c0,.1-1.8-5.8-1.8-5.8l.4-3.6,1.6-2.4-.4-1.8-.6-.2-.6.4-1.7,2.8-1.6,1.2-3.1-3.5,2-5.6.7-3.3-.6-.8-.3-5-1-1.3-4.7-3.1-3.1-2.6h0l1.3-.6.7-1.6h0l3.6-.9,2.7-5.4-1.1-3.2v-5.4s1.1-1,1.1-1l-1.6-3.6-1.8-2.3-5.4-3.2-1.2-1.5-1.5-3.1.2-4-.6-1.4-1.3-1.5-9.9-7.9-.3-3.5-1.3-.6-2.7-3.4-1.4-3.3-1.7.5h0l.3-1.4,1.1-1.4-.4-7,1.8-.9-.6-3.1,2.8-3.2,3.6-2h.8c0,0,.3.5.3.5h0l.7,2.7-.4,2.6.2,1.3,9.4,6.7h0l-1,3.2.3.9,2.5,1,1.6,2.2-.2,1.2-1.8,1-.3.8.2,2.5,2.4,8.2-.4,3.5,1.8.8,1.3-.2,1.9,1.3,2,2.2,6.7,2.4,3.5,2.8,2.4,2.8,4.2,1.4,3.9.5h0l-.2,2,1.2,1.7.4,3.7-.2,2.4,1.2,2.3,1.1,5.5-.2,3.3-.8,3.5ZM227.7,62.5l-.5-.2v-1.4c.1,0,.7,0,.7,0h0l-.2,1.6Z"/>
    <path id="CO_BOY" d="M308.8,177.3l4.5-.3.9-.8.9-1.8,3-1.7h3.2c0,.1,1.1-.6,1.1-.6h0l1.8,1.4,1.9.2h0l-1.8,2.8-.8,4-3,6.3-.3,1.7-3.7,2.1-2.5,2.8h0l-1.1,1-.7,1.5-.2,4.6,1.5,1.6-1.7,6,3.2,1.4,1.4,2.4-1.3,3.9-2.4,1-.6-.3-.6.2-2.9,3.8-3.9,2.8-2.9.4-2.4-2.1-3.7,4.6-.8,2.3,2.1,2.6-.9,1.5-1.9.7-1.3,1.5-1.1,4,1,2.2h0l-1.2,2.1h-2.8c0,0-3.9-3.5-3.9-3.5l-2.9-1.2-3.6-2.6-.2-.8.5-2,1.5-1.9-.5-2.9-1.1-2.2-1.3-4.1-2-2.4-2.1-.5-2.3-2.3-1.2.3-1.4,1-.5,1.9-1.9,1.9-2.3.6-3.8-2.9-2-.7-2.5-3.2-.3-1.1,1.4-1.7-.5-2.8-.8-.9-2.9,1.7-2.4-.6-3.6.8-.5.4h0l-.6-1h0l1.4-5.7.5-.5v-4.9c-.1,0,.7-2.5.7-2.5l.8-1h0l4.7,6.3.8.2,1.9-.8.8.3,1.4,2.9,2.7,2.5,3.2,1.8,1.6,2.4,7.4-1.3,1.8,1.3.7-.5,1.2-5.7,1.8-4.2.9-1.2,4,2.4.3,1.5-1.1,2.9v1.9c0,0,1.2,1.3,1.2,1.3l1.9.2,2.2-1.3-.2-1.7.6-1.4,2.3-.7,2.7.5,7.6-8.9,1.2-2.7v-1.5c0,0-1.2-2.6-1.2-2.6v-3s.9-.1.9-.1l1.7,1.1.9,2.8,2.2-.2,1-.9,1.9-5.4-.3-5.2-.5-1.4Z"/>
    <path id="CO_CAU" d="M203.6,349.6l-.3.7-3.9,1.3-4.8-.2-4-1.6-1.5-2.4,1.1-5.2-1.5-3-.8-.7h-1.3c0-.1-.9.4-.9.4l-1.9,2.1-2.9.6h0l.8-1.4.6-5.1-.7-1.7-5.6-3.5-2.4.6-6.1.2.3-3.9,1.9-1.8.9-1.7-4.4-4.8-1.8-2.9-.5-.3-3.1.4-3.6-.2-1.5-.4-2-1.4-2.5-4.9-2.9-4.2-.4-1.2h0v-1.2c.1,0,1.3,2.1,1.3,2.1l1.1.5,2.2-.3,1.2-1.2-.6-.9-.5-3.3,2-3.2,4.9-5.7,4.1-6.7h0l2.3,3,4.7,3.4,5.3.5.7-.9,1.7.8,1.8,2,6.6-3.6,1.3-.2,3.6-1.6.7-1.3v-1.2c0,0-.6-.7-.6-.7l.7-1.1,1.4-.2,2.5.5,4,2.1,2.3.5h0l-.2,2.2,2.5,4.2h0l6.6,16-2.8.4-2.7-2-1.3-.4-1,.6-2,2.5-1.6.4-2.1-.5-.7.4-2.9,3.3,1.3,4.5v.9l-.4.4h-2c0,.1-4-1.4-4-1.4l-2.1.9.4,6.1.6.7h1.7s1.4.6,1.4.6l1.3,1.8v3c0,0,.2.7.2.7l2.2,2.1,3.1,1.9,2.8-.2h0v1.3s-2.4,4.8-2.4,4.8l-1,1-.2.9.5,3,4.3,2.2,1.3,1.6Z"/>
    <path id="CO_CES" d="M271,139.7l.8-3.5.2-3.3-1.1-5.5-1.2-2.3.2-2.4-.4-3.7-1.2-1.7.2-2h0l1.9-3-2.4-2.7-1.8-4.2-2.4-3.7-2.5-1.7,1.9-2.5.8-.5h7.1c0,0-1.6-4.7-1.6-4.7l-6.9-9.4,1-3.5,2.8-4.8,12-5.4-1.7-2.9v-1.2c0,0,1.1-2.1,1.1-2.1l-2.6-3.1v-.9c-.1,0,.6-1.4.6-1.4h0l1,1.3.9.2h7.1s1.9.8,1.9.8l4.9,5.3.4,1.1-.7,2.8-.9.4-1.6,2.1,1.6,1.1,4.8-.8,1.9.2h0l-.9,9.3-1.1,3.4-.8,7-2.3,4.7-4.8,6-3.5,5.4-.4,1.6h0l-1,2.4-.7,4.8.2,5.5-2.3,3.4-.5,2.9,1.6,5.6.8.3.8-.7v-2.4c-.1,0,.3-.5.3-.5h1c0,0,1,.8,1,.8l-.2,4.2-1.5.6-.5,1.2,2.2,4,1,3.7-2,4.8-1.5,1.9-2.1.9-3.2.4h0l-.9-1.1-3.1-.2-.4-.8,1.8-4.3-3.1-7.1Z"/>
    <path id="CO_CHO" d="M165.1,124.2l.6.4,1.4,2.5.5,1.8,1.3,1.5,3.2,1.6,1.6,2.5,3.3,2.6.6,2.3,1.8,1.1,1.5-.3h0l-.9,1.4-1.8.5-2.1,1.7-.9,3.7-1.3,1.1-1.1.3.4,2.7,2.2.5,9.4,10,1.8,1.4,1.8.6,1.9,2.7.7,2.2-.8,5-.5.3-3.7-1.1-4.2.2-.5.7.9,2.2v1.1c0,0-1.5,1.2-1.5,1.2l-2.2-.5-1.6.5.3,3.9,2.1,1.6,2.6,5.6.4,5,2.4,3.4h3.1c0,.1,8.4-1.4,8.4-1.4l2.5,1.3.3,3.9.4,1.2.5.5,2.3.5-.2,2.3-.6,1.6,1.5,4.3-.6,2.1.3.7,3.1,3.5h0l-7.1,3.1-3,3,3.3,7.6,2.3,1.5h0l-.6,2.1-1.9,1.1-3.7,3.2-5.1,10.3-.2,1.3.5,2.7,2.3,2.7-.4,1.1-3.3,2.6-4.6,1.5h-1.6c0,0-2.8-1.5-2.8-1.5l-4.1-1.4-3-2.5-1-.4-1.8.3-1.2-1.7h0l.2-.5-2.8-.3-1.3-2.1,2.1-6-.3-5.1-.9-4.4-.6-6.4v-2.1s.7-2.5.7-2.5l-.4-1.7-1.1-4.7-4-1.9.8-1.9,2.5-1.2,1.8.6,1-.4,2.3-2.7.3-1.5-2.9-6.8-4.4-5.9.4-2.9,2,1.3.7-1.2.9-3.2.5-5.2-2-3.6-1.7-.7-5.9-4.8.4-3-.8-2.3-6.2-5.1,2.4-7.4,1.7-.2.8-1.5-1.1-2.9v-1.8s.4-.8.4-.8l2.4,1.2,1.9,4.2.7.4,7.3-5.2v-.7s-1.2-1.6-1.2-1.6l2.2-3.7,2.4-1,.5-1.8-.5-2.6-1.7-3.3-2.6-2.6-.4-3.4-.9-1.6-.7-.6h-1.2s-.2-1.5-.2-1.5l3.1-3.7.2-.8ZM164.1,253.1l.7.4.6,1.4,1.1.3-6.8,1.6.3-1.1,3.1-2.9,1,.3Z"/>
    <path id="CO_CAL" d="M223.3,238.6l-3.6-2.8-2.9-.2-3.1-1.1-3.3.8h-1s-.6-.5-.6-.5l-1.2-3.2.4-1,3.2-3,2.9-1.7,1.7-2.6-2.5-1.8-3.9,1.3-.5-.6.2-3.3h0l3-1.4h4.9c0,.1.5-.3.5-.3l-.5-5.8,6.7,1.9,3.2.2,3.5,2.3,2.9-2,1.3-1.7,5.2-.8,4.5-1.3h.9c0,.1.6,1.2.6,1.2h0l-.7,6.8.2,1.3-1.3,3.2-1.3,1.9h0l-1.8-.5h-3c0,0-2.8.6-2.8.6l-1.7,1.1-1.9,2.4-4.6.4-.8.9-1.5,5.2.9,2.2-2.1,1.8Z"/>
    <path id="CO_COR" d="M240.3,138.8l-2.6,3.4-1.2.7-7.4.3-3.3,3.1-1.2,2.3-2.5.9-.9,3.1-.5.4-2.2-1.4-.9.2-2,2.7-.4,2.2-5,6.2-14.9.2-4.3-6.1-.8-4.1.3-4.1,2.4-2.8,1-6,1-2.5,4.6-4.9.5-4-.6-1.3-3.4-1.7-1-1.1-.8-2.2-.3-3.4-1-1.5h0l3.2-1,1.6-1.7,2.7-7.2,2.5-3,5.1-2.6,3-.5,2.7.5h0l1.5,2.2,4.4,3,3.3,3.3,2.9.8,2.3,1.8,1.1,3.1-.4,2.6-.9-.4-2.2.3-2.3.9v.8s1.7,4.5,1.7,4.5l.8,5.1.9.3,1.8-.5.7.4.3,2.8,2.2-.6,3.1-2.6,4.2,1.8,2.1,1.9.3,2.2.7.9h0l-.7,1.6-1.3.6Z"/>
    <path id="CO_CAQ" d="M322.9,360.5l2.6,2.8,2,3.4,1,3.2,1.9.5,2.2,2,5.1,3,.9-.5h0l.2,1.2-.4.8-4.1,4.5-2.5,2-2.5,4.2-1.1.8-3.8-.7-1.6.4-4.6,4.5-1.6,3.6v1.7c0,0-1.6,1.1-1.6,1.1l-2.9-1.1-.3-1h-1.2c0,0-3,3.7-3,3.7h-.9c0,0-2.6-1.6-2.6-1.6l-2-2.3-1.5.2-1.6,1.1h-1.7l-.8-.2-1.8-2h-1.1l-1.7,2.4-3.3.3-3.6-2.4-7.5-.2-1.3-2-2.7-1.6h-4c0-.1-3.6-1.1-3.6-1.1l-2-1.1-2.4-2.5-2.2-.6-2.6-1.5-1.9-1.8-3.1-1-.9,1.6-3.5-.7-2.3-1.4-.6-2.3,1.1-1-1.6-4-.6-.4-4.1-.7-3.1-1.3-.7-3.4.5-1.4-.4-.8-3.3-1.8-1.7,1-.8-.2-.9-1.9.2-1.9-1.2-3.2-.8-.6-1.2-.3-3,.5-2.5-.7-1.1-1.6-2.7-1.5-3.3.8-2.7-1-2-2.2-.2-1.6-.7-.9h-3.9c0,0-1.3-1.7-1.3-1.7l-4.3-2.2-.5-3,.2-.9,1-1,2.4-4.8v-1.3h0l5.6-.5,1-.7,11.2-14.2.6-1.7,6-6.7,1.2-2.3.9-3.2,1-.9,1.7.5.9-.2,3.1-2.6,1.3-1.7-1.1-2.4v-1.1c0,0,2.7-3.9,2.7-3.9h0l5.1,1.6,3.5,2.5,1.3,1.9-.2,2.1-2.6,4.1.4,5.8,1.5,4.4.5,5.6,2.9,4.1,2.3,1.2,6.4,1.2,2.6,3,3.6,2.6h3.2c0-.1,5.6-1.8,5.6-1.8l1.8.4h0l.2,2.9,2.9,3.7,2.3,2.3,1.8,5,6.5,5.2.6.9,2.3,1h1.8c0,0,4.6-3.5,4.6-3.5l.4-.6-.5-1.3,1.1-1.6,3.9-1.1,1.9.5.6,1,2.5,1.6h1.7s1.8,1.7,1.8,1.7l3.6,4.8,2.1,4.5,1.3-.5,4.7,2Z"/>
    <path id="CO_CAS" d="M292.9,240.9l-1-2.2,1.1-4,1.3-1.5,1.9-.7.9-1.5-2.1-2.6.8-2.3,3.7-4.6,2.4,2.1,2.9-.4,3.9-2.8,2.9-3.8.6-.2.6.3,2.4-1,1.3-3.9-1.4-2.4-3.2-1.4,1.7-6-1.5-1.6.2-4.6.7-1.5,1.1-1h0l.2,3.1,2.4,3.2,3.7,1.4h.6s3.8-2.5,3.8-2.5l6.4-1.3,4-.2.8.7h2.8s8.3-2.7,8.3-2.7l6.8,1.6,9,.4,4.3-.3,4.4-1.9h5.3c0,.1,2.3,1.1,2.3,1.1l8.5,6.7h0l-1.8,2.1-1.9,4.7-3.8,4.9-2.9,1.6-4.7.6-2.8,1.1-6.8,4.1-.4,2-4.7,4.3-2.1,1.1-3.2,5.5-1.7,1.6h0l-3.8,2.4-3.8,1.1-6.5,3-2.6,1.8-3.5,1.2-6.3,4.7-1.9.9h-.9c0,0-1.3-1.4-1.3-1.4l-.9-.3-2.7.3-2.5.9-2.4,2.2-5.8.7-3.8.3-5.7-6.1-1.5-2-.6-1.9-1.9-2.5h0v-.6Z"/>
    <path id="CO_CUN" d="M242.6,224.5l1.3-1.9,1.3-3.2-.2-1.3.7-6.8h0l.5-.4,3.6-.8,2.4.6,2.9-1.7.8.9.5,2.8-1.4,1.7.3,1.1,2.5,3.2,2,.7,3.8,2.9,2.3-.6,1.9-1.9.5-1.9,1.4-1,1.2-.3,2.3,2.3,2.1.5,2,2.4,1.3,4.1,1.1,2.2.5,2.9-1.5,1.9-.5,2,.2.8,3.6,2.6,2.9,1.2,3.9,3.4h2.8c0,0,1.2-2,1.2-2h0v.6h0l-2.3,12-2.4,1.2-4.8-1.2-2.9,1-1.5-.3-.7-.6-1.3-4.4-1.4-.9-3.7-1-.9.7-1.5,2.7.5.7.9.2,1.3,2.7v2.1c.1,0-.7.4-.7.4h-1.9s-4.8,2.5-4.8,2.5l-3.1,2.4-1.5.3h0v-1.9c0,0,1.4-6.6,1.4-6.6l.4-3.7,1.2-2.3,1.8-2.2-.2-6.3-1.5-.8h-.7c0,.1-3.1,5.5-3.1,5.5l-1,6.9.3,5-1.6,3.8-2.2.3-1.7,2.3v2c0,0-.5,2.3-.5,2.3l-1.2,2.1-1.7,1.9h0l.3-1.7-1.6-1.4h0l.7-1.8.2-4.3,1-2v-.9s-1.3-2.2-1.3-2.2l-.7-.8-.8-.2-1,.4-.7,1.1-1.6.3-6.3-2.7,3.1-6.8-1-6.1,1.6-3.4,1.3-8.3-.5-5.2Z"/>
    <path id="CO_DC" d="M250.1,270.5l1.7-1.9,1.2-2.1.6-2.3v-2c0,0,1.6-2.3,1.6-2.3l2.2-.3,1.6-3.8-.3-5,1-6.9,3.1-5.4h.7c0-.1,1.5.7,1.5.7l.2,6.3-1.8,2.2-1.2,2.3-.4,3.7-1.5,6.6v1.9h0-2c0,.1-.7.7-.7.7l-4.2,4.6-2.1,3.9-1.1-.2v-.6Z"/>
    <path id="CO_GUA" d="M450.9,261.2l.8,3.7,1.9,4.8,1.2.8,1.9-.2.6.4,1.6,2.2,1.7,4.8,2.2,1,.4,1.7-1.6,2.4-2.6,1.8-11.8,11.1.3,1.5,1.7-.2,4.7,1.2,2.1,3.3,1.5.8,4.7,5.3,3.9,2.4.5,1.7-1.3,1.8.2.9,2.9,6.4,3.6,9.7,1.9,6.9,1,6.1.6.9-6.1,1.4-.4-3.3.9-6.9-.4-3-1.3-3.4-1.4-2.5-3.1-3.8-2.2-4.9-2.4-.9-4.8,2.6-2.4,2.3-.6,1.6-3.7,4-3.1,1.1h-1.6s-1.3-.7-1.3-.7l-1.6-2.5-1.2-2.9-2.7-.8-1.8,3.7.7,2.3,1.5.3.9,1.2h-36.1c0-.1-5.4-1.8-5.4-1.8l-4.3,1.1-2.5,1.1h-1.8c0,0-1-.9-1-.9l-5.3-1.1-2.6-2.2-.7-1-.2-2.7,1.2-1-.4-1.9h0l.5-1,2.4-1.7,1.6-1.9-1-1.6-1.3-.6-1.3.7-5.5,1h-5.3c0,0-4.4-2-4.4-2l-1.7-3.6-2.2-2.8h-1.9s-.6-.9-.6-.9l9.9-6.6.6-.9h0l3.5-.9,2.2-3v-4.5c0,0,1.4-2.5,1.4-2.5l3.7-.6-.2-2.2-.9-1.7,1-1.3,2.4-.9.8.5h1.5l3.5-3.1,6.5-2.4,1.1-1.1v-1.7c-.1,0,.5-.6.5-.6l2.7-.2,1.5.8,5.3-1.3,2.1,1.2.2,1,8-1.6,1.6.7,3-2.8,1.8-.5,3.5.3,1.5-.5.9-1.4,4.8-3.9,9-.6,2.4,1.2,1,1.8,3.7-3.4,2.8-1Z"/>
    <path id="CO_GUV" d="M378.6,319.3l-15.1,4.5-6.6-.2-3.9,3-2.9.4-2.9,1.8-5.6,6.8-2,1.4-2.3,5.3.2,3.2-2.2,3-1.9,1.8-1.7.3-.9.7-.8,2.3-7,6.7h0l-4.7-2-1.3.5-2.1-4.5-3.6-4.8-1.8-1.8h-1.7s-2.5-1.6-2.5-1.6l-.6-1-1.9-.5-3.9,1.1-1.1,1.6.5,1.3-.4.6-4.6,3.4h-1.8c0,0-2.3-.9-2.3-.9l-.6-.9-6.5-5.2-1.8-5-2.3-2.3-2.9-3.7-.2-2.9h0l.4-19,.8-2.6,6.4.8,2.2-.3,4.3-1,5.5-1.9,2.6-3.9,1.9-.7,1.2.7,5.6-1.4,2.3-2.6,5-2.6,7.9-.7,2.5.5,7.8-1.4h9.4c0,.1,3.6-.7,3.6-.7h4.7s1.8.4,1.8.4h0l.2,1.5,2.7-.5,5,1.9,3,.2.8-.7.8-2,4.2,1.6.5-.2h0l-.6.9-9.9,6.6.6.8h1.9s2.2,2.8,2.2,2.8l1.7,3.6,4.4,2.1h5.3c0,0,5.5-1.1,5.5-1.1l1.3-.7,1.3.6,1,1.6-1.6,1.9-2.4,1.7-.5,1Z"/>
    <path id="CO_HUI" d="M201,334.9l-2.8.2-3.1-1.9-2.2-2.1-.3-.7v-3c0,0-1.2-1.8-1.2-1.8l-1.4-.6h-1.7s-.6-.7-.6-.7l-.4-6.1,2.1-.9,4,1.5h2c0-.1.4-.5.4-.5v-.9l-1.3-4.5,2.9-3.3.7-.4,2.1.5,1.6-.4,2-2.5,1-.6,1.3.4,2.7,2,2.8-.4-6.6-16h1.5s2.9-.9,2.9-.9l4.2-3.6,4.4-.7v-1.6c0,0,2.1-3.3,2.1-3.3l5.2-2.1,8-1.2.9.3.2,1.8-1.4,1.9.6.7,1.3.3,1.7-.2,2-1.4,2.5-3-.3-1.6,1.8-3.3,4-5.3,1.8-1.4h0l1.6,1.4-.3,1.7h0l-1.5,3.6-1.5,2.1-1,3.7.3,3-2.8,4.3-5.7,4-.8,2h0l-2.8,3.9v1.1c0,0,1.2,2.4,1.2,2.4l-1.3,1.7-3.1,2.6-.9.2-1.7-.5-1,.9-.9,3.2-1.2,2.3-6,6.7-.6,1.7-11.2,14.2-1,.7-5.6.5Z"/>
    <path id="CO_LAG" d="M297,72l-1.9-.2-4.8.8-1.6-1.1,1.6-2.1.9-.4.7-2.8-.4-1.1-4.9-5.3-1.9-.8h-7.1s-.9-.3-.9-.3l-1-1.3h0l-.5-1.8.6-4,2.4-3.5.2-1.3h4.5c0,0,3-.7,3-.7l2.3-1.6.3-.8,1.6-1.4,11.1-7.9,7.4-3,3-.3,4.7-2.7.8-.8,2.8-5.8-.2-3-.7-.4.3-.6,3.8-.5,1.9.2-1.4,1.8.8,1.1,1.4-.2,2.2-1.4,1.6-3.1,3.5-1.6,1.8-1.7-.7-.5h-1.5c0,.1-1,.7-1,.7l.4-.8,1-.6,4.8.4,7.5,3,1.6,1.3,3.1,6.1v1.5s-.5.9-.5.9l-4.5,3-1.2,2-2.3,1.2-6.6,1.7-4.2,1.6-5.9,1-7.1,12.5-3.2,2.6-5.1,1.2-12.4,20.8Z"/>
    <path id="CO_MAG" d="M268.4,115.3l-3.9-.5-4.2-1.4-2.4-2.8-3.5-2.8-6.7-2.4-2-2.2-1.9-1.3-1.3.2-1.8-.8.4-3.5-2.4-8.2-.2-2.5.3-.8,1.8-1,.2-1.2-1.6-2.2-2.5-1-.3-.9,1-3.2h0l2.9-6.7,2.5-2.2.3-1.3v-9.1c.1,0-1.8-3.6-1.8-3.6l-1.6-1.3-.6-1.6h0l.8.6,9.8,3.4,3.7.3,2.6-.5-1,.7h-4.1c0,.1-3.7,2.9-3.7,2.9l-.5,1.6.4,1.2,2.2-.9,1.6,1.4.2.7h1.9s1.1-1.2,1.1-1.2l3.8-10-.2-3.5,1.4-2.2,1-.7,4.2-.7,4.3,2.1,2.3.6,7.5-.2h0l-.2,1.3-2.4,3.5-.6,4,.5,1.8h0l-.8,1.4v.9c.1,0,2.7,3.1,2.7,3.1l-1,2.1v1.2c0,0,1.6,2.9,1.6,2.9l-12,5.4-2.8,4.8-1,3.5,6.9,9.4,1.6,4.6h-7.1c0,0-.8.5-.8.5l-1.9,2.5,2.5,1.7,2.4,3.7,1.8,4.2,2.4,2.7-1.9,3Z"/>
    <path id="CO_MET" d="M351.1,236v59.7h0l-1.8-.4h-4.7s-3.6.8-3.6.8h-9.4c0-.1-7.8,1.3-7.8,1.3l-2.5-.5-7.9.7-5,2.6-2.3,2.6-5.6,1.4-1.2-.7-1.9.7-2.6,3.9-5.5,1.9-4.3,1-2.2.3-6.4-.8-.8,2.6-.4,19h0l-1.8-.4-5.6,1.6h-3.2c0,.1-3.6-2.5-3.6-2.5l-2.6-3-6.4-1.2-2.3-1.2-2.9-4.1-.5-5.6-1.5-4.4-.4-5.8,2.6-4.1.2-2.1-1.3-1.9-3.5-2.5-5.1-1.6h0l.8-2,5.7-4,2.8-4.3-.3-3,1-3.7,1.5-2.1,1.5-3.6h0v.6c0,0,1.2.2,1.2.2l2.1-3.9,4.2-4.6.7-.6h2c0-.1,1.5-.4,1.5-.4l3.1-2.4,4.8-2.4h1.9s.8-.4.8-.4v-2.1c-.1,0-1.4-2.7-1.4-2.7l-.9-.2-.5-.7,1.5-2.7.9-.7,3.7,1,1.4.9,1.3,4.4.7.6,1.5.3,2.9-1,4.8,1.2,2.4-1.2,2.3-12h0l1.9,2.5.6,1.9,1.5,2,5.7,6.1,3.8-.3,5.8-.7,2.4-2.2,2.5-.9,2.7-.3.9.3,1.3,1.3h.9c0,0,1.9-.8,1.9-.8l6.3-4.7,3.5-1.2,2.6-1.8,6.5-3,3.8-1.1,3.8-2.4Z"/>
    <path id="CO_NAR" d="M181.1,341.7l-2.1.5-4.3,2.5-1.2,1.1.2,5.6,2.3,8.6v.7c0,0-2.8,1-2.8,1l-.5,2.2.6,2.2.2,3.5h0l-4.1.7-4.8-1.4-1.3-.8-.9-3.8.2-2.4-.6-1-.9-.3-1.3.3-3.3-2.2-.4-.6v-1.7c0,0-.6-.8-.6-.8l-.6-.2-3.4,1.1-1.2-.2-.9-.4-1.4-1.5-2.1-.9-3-.3-4.4-3.3-3.1-1.1-3.3-3.6-2.2-.5-.6.3-.9-1.3-2.5-1.2-3.9-4.5-1.5-3.2-2.1-1-3-.5-.6-1,2.3-3.5,2.7-2.2,1.1-.3,2.5.5,4.2,1.7h1c0,0,1.2-4.5,1.2-4.5l-1.5-3-1.7-1.3-1-3.8,3.6-6.9.3,1.1,1-1.3,1.7-.3.3-1.8h.8c0-.1,2.4,2,2.4,2l2.4-2.4,4.2.9,4-1,1.1-1,.3-1.6h0l.4,1.2,2.9,4.2,2.5,4.9,2,1.4,1.5.4,3.6.2,3.1-.4.5.3,1.8,2.9,4.4,4.8-.9,1.7-1.9,1.8-.3,3.9,6.1-.2,2.4-.6,5.6,3.5.7,1.7-.6,5.1-.8,1.4ZM142.6,306.7l-2.6-2.3.7-1.8,1.7-.2.8,1.5.4,1.8-1,1.1Z"/>
    <path id="CO_NSA" d="M322.3,172.1l-1.1.7h-3.2c0-.1-3,1.6-3,1.6l-.9,1.8-.9.8-4.5.3h-1c0,.1-.4-.3-.4-.3v-2.3c0,0-.4-.5-.4-.5l-2.8,1-5.9-2.5v-9.6l-3.7-7.2-6.3-.2-1.6,1.9-2,.2-4.7-1.4-1-1.6-2.2-1.7h0l3.2-.4,2.1-.9,1.5-1.9,2-4.8-1-3.7-2.2-4,.5-1.2,1.5-.6.2-4.2-1-.9h-1c0,0-.4.6-.4.6v2.4c.1,0-.7.7-.7.7l-.8-.3-1.6-5.6.5-2.9,2.3-3.4-.2-5.5.7-4.8,1-2.4h4.6s6.3-3.9,6.3-3.9l.9,1.2.7,1.8v.7c-.1,0,2.2,1.8,2.2,1.8l3.1,1.2,3.4,13.1,7.1,7.5,1,.6,1.5,6.5.2,2.7-.5.4h-1.3s-2.1,3.8-2.1,3.8l-.4,12.5,2.1,2.7,4.1.5,3.2,1.9-.3,1.9.6,1.9,2.3,4h.4Z"/>
    <path id="CO_PUT" d="M203.6,349.6h3.9c0,0,.7,1,.7,1l.2,1.6,2,2.2,2.7,1,3.3-.8,2.7,1.5,1.1,1.6,2.5.7,3-.5,1.2.3.8.6,1.2,3.2-.2,1.9.9,1.9.8.2,1.7-1,3.3,1.8.4.8-.5,1.4.7,3.4,3.1,1.3,4.1.7.6.4,1.6,4-1.1,1,.6,2.3,2.3,1.4,3.5.7.9-1.6,3.1,1,1.9,1.8,2.6,1.5,2.2.6,2.4,2.5,2,1.1,3.6,1h0l-15.8,5.2h0l-.7-1-6.3-4.7-.7.7-2.2-1.3-.4-2.1-1.5-2.4h-1.2c0,0-1.4.7-1.4.7l-2.3-1-2.5-2.2-3.4-2.3-2-.3-.6,1.7-1,.8h-.8c0,0-1.9-1.3-1.9-1.3l-2.5-.6-4.2-2.7-5.5-.4-4.5-3.4-3.8-5.1-6-1.7h-4.7c0,0-.2,3.6-.2,3.6l-4.1,1.5-1.2-.3-.8-.8-3.1-.7-.3.6-1.3.4-2.9.3-5-2-1.3-1.6h0l-.2-3.5-.6-2.2.5-2.2,2.8-1v-.7c0,0-2.3-8.6-2.3-8.6l-.2-5.6,1.2-1.1,4.3-2.5,2.1-.5h0l2.9-.6,1.9-2.1.9-.5h1.3c0,.1.8.8.8.8l1.5,3-1.1,5.2,1.5,2.4,4,1.6,4.8.2,3.9-1.3.3-.7Z"/>
    <path id="CO_QUI" d="M214.3,242.2l7.1.5,1.9-1.1h0l.2.4-5.6,7.7-.2,3.2-3.4,5.1-.3,2.3h0l-1.2-1.4-.4-1.5-2.8-12.1.5-1.1,4.2-.2.3-.6-.4-1.3Z"/>
    <path id="CO_RIS" d="M223.3,241.6l-1.9,1.1-7.1-.5h0l-5.7-1.8-2.3-3.3-2.3-2.3-1.7-1.1-1.3.2h0l-2.2-1.5-3.3-7.6,3-3,7.1-3.1h3.5c0,.1-.2,3.4-.2,3.4l.5.6,3.9-1.3,2.5,1.8-1.7,2.6-2.9,1.7-3.2,3-.4,1,1.2,3.2.6.5h1s3.3-.8,3.3-.8l3.1,1.1,2.9.2,3.6,2.8h0l-1.1,1.5,1.1,1.5Z"/>
    <path id="CO_SAN" d="M266.9,165.3l.5-4.6,2.4-4.7.6-4.8-1.9-6.3v-1.9s.6-1.8.6-1.8l1.9-1.5h0l3.1,7.1-1.8,4.3.4.8,3.1.2.9,1.1h0l2.2,1.7,1,1.6,4.7,1.4,2-.2,1.6-1.9,6.3.2,3.7,7.2v9.6l5.9,2.5,2.8-1,.5.5v2.3c0,0,.3.5.3.5h1c0-.1.5,1.3.5,1.3l.3,5.2-1.9,5.4-1,.9-2.2.2-.9-2.8-1.7-1.1h-.9c0,.1,0,3.1,0,3.1l1.1,2.6v1.5c0,0-1.2,2.7-1.2,2.7l-7.6,8.9-2.7-.5-2.3.7-.6,1.4.2,1.7-2.2,1.3-1.9-.2-1.1-1.3v-1.9c0,0,1-2.9,1-2.9l-.3-1.5-4-2.4-.9,1.2-1.8,4.2-1.2,5.7-.7.5-1.8-1.3-7.4,1.3-1.6-2.4-3.2-1.8-2.7-2.5-1.4-2.9-.8-.3-1.9.8-.8-.2-4.7-6.3h0l1.9-1,2.8-3.1.3-.6-.8-1.2-.2-2.5.3-1,1.1-1.3,2.9-.9,4.9-3.9,2.9-3.9,2.3-1.1,1.3-1.2-.3-1.9-.9-1.4-.4-3.7.3-1.4Z"/>
    <path id="CO_SUC" d="M213.7,102l1.1.3.9-.4,1.1-1.4.9-2.2.2-1.8-.5-1.8-1.8-2.8,2.1-6.5.2-3.3h0l1.7-.5,1.4,3.3,2.7,3.4,1.3.6.3,3.5,9.9,7.9,1.3,1.5.6,1.4-.2,4,1.5,3.1,1.2,1.5,5.4,3.2,1.8,2.3,1.6,3.6-1.1,1v5.4s1.1,3.2,1.1,3.2l-2.7,5.4-3.6.9h0l-.7-.9-.3-2.2-2.1-1.9-4.2-1.8-3.1,2.6-2.2.6-.3-2.8-.7-.4-1.8.5-.9-.3-.8-5.1-1.7-4.5v-.8s2.3-.9,2.3-.9l2.2-.3.9.4.4-2.6-1.1-3.1-2.3-1.8-2.9-.8-3.3-3.3-4.4-3-1.5-2.2Z"/>
    <path id="CO_SAP" d="M36.5,10.1l-.2-1.7.8-1.4h.3c0,.1-.3,1.8-.3,1.8l-.7,1.3Z"/>
    <path id="CO_TOL" d="M214,260.3l.3-2.3,3.4-5.1.2-3.2,5.6-7.7-.2-.4h0l-1.1-1.5,1.1-1.5h0l2.1-1.8-.9-2.2,1.5-5.2.8-.9,4.6-.4,1.9-2.4,1.7-1.1,2.8-.6h3c0,0,1.8.6,1.8.6h0l.5,5.2-1.3,8.3-1.6,3.4,1,6.1-3.1,6.8,6.3,2.7,1.6-.3.7-1.1,1-.4.8.2.7.8,1.3,2.2v.9s-1,2-1,2l-.2,4.3-.7,1.8h0l-1.8,1.4-4,5.3-1.8,3.3.3,1.6-2.5,3-2,1.4-1.7.2-1.3-.3-.6-.7,1.4-1.9-.2-1.8-.9-.3-8,1.2-5.2,2.1-2,3.3v1.6c0,0-4.4.7-4.4.7l-4.2,3.6-2.9.9h-1.5s-2.5-4.2-2.5-4.2l.2-2.2h0l2.6-8,2.5-10.6,2.3-3.4,1.7.3,1.8-1.5.2-2.4Z"/>
    <path id="CO_VAC" d="M202.9,285.7l-2.3-.5-4-2.1-2.5-.5-1.4.2-.7,1.1.5.7v1.2c0,0-.6,1.3-.6,1.3l-3.6,1.6-1.3.2-6.6,3.6-1.8-2-1.7-.8-.7.9-5.3-.5-4.7-3.4-2.3-3h0l-1.8-1.2.5-.8,2.5-1.6,3.5-4.5,1-.3,2.1-2.7.5-3,2.8-4.4-2.4.7-2.2,1.5h-2.3c0,.1-.6-.2-.6-.2l-.3-1.9.4-1,2.1-.6.8-2.6-2.2-1-1.5,1.6-.9,2.6-.6.7-1.7-2.1-.4-4.2.3-1.1,2.6-1.1h1.8c0,0,.8-.8.8-.8h0l1.2,1.7,1.8-.3,1,.4,3,2.5,4.1,1.4,2.8,1.6h1.6c0,0,4.6-1.5,4.6-1.5l3.3-2.6.4-1.1-2.3-2.7-.5-2.7.2-1.3,5.1-10.3,3.7-3.2,1.9-1.1.6-2.1h0l1.3-.2,1.7,1.1,2.3,2.3,2.3,3.3,5.7,1.8h0l.4,1.3-.3.6-4.2.2-.5,1.1,2.8,12.1.4,1.5,1.2,1.4h0l-.2,2.4-1.8,1.5-1.7-.3-2.3,3.4-2.5,10.6-2.6,8Z"/>
    <path id="CO_VID" d="M351.1,236l1.7-1.6,3.2-5.5,2.1-1.1,4.7-4.3.4-2,6.8-4.1,2.8-1.1,4.7-.6,2.9-1.6,3.8-4.9,1.9-4.7,1.8-2.1h0l2.3-.8,6.4.3,2.4-1,1.2-.9h0l1.7-.8h1.6c0,0,1.3,1.6,1.3,1.6l.9.2,1.4-.5,3.2-3,.9-.4,6.8.9,5.6,1.5,5.5-1.6,4,.7,4.9-1.6,3.5.5,2.3-.4,3.7-2.7,5.8.7,2.1.7,2,1.7,1.2.4-1,1.2v1c-.1,0,2.2,3.7,2.2,3.7l-6.1,6-.9,3.2.5,3.1.5.9-1,2.1-4.6,2.8-1.3,2.3,1.4,9.8-.7,7-1,5.2,2.2,6.7-.5,1-.2,2,.6,1.9,2.3,3.5h0l-2.8,1-3.7,3.4-1-1.8-2.4-1.2-9,.6-4.8,3.9-.9,1.4-1.5.5-3.5-.3-1.8.5-3,2.8-1.6-.7-8,1.6-.2-1-2.1-1.2-5.3,1.3-1.5-.8-2.7.2-.6.6v1.7c.1,0-1,1.1-1,1.1l-6.5,2.4-3.5,3.1h-1.5l-.8-.5-2.4.9-1,1.3.9,1.7.2,2.2-3.7.6-1.5,2.5v4.5c0,0-2.1,3-2.1,3l-3.5.9h0l-.5.2-4.2-1.6-.8,2-.8.7-3-.2-5-1.9-2.7.5-.2-1.5h0v-59.7Z"/>
    <path id="CO_VAU" d="M399.6,410.2l-.7,1.6v2.3c.1,0-4.7.6-4.7.6l-.5-3.2-2.3-2-5.7,1.9-1-.2-.2-.6.8-2.3v-1.1c-.1,0-4.3.3-4.3.3l-1,.6-.5,1.2,1.7,1.1-.2.7-1.1.8h-.8c0,0-3.6-3-3.6-3l-.6-1.3.2-.6,1.8-1.2-.2-1.3-1.4-1.3v-1.1s.9-1.5.9-1.5v-3.5s1-4,1-4l-.5-.7-1.5-.8-1.8,1.3.5.9-1,.2-2-.6-2.5-2.8-7.5-2.4-.5,1-2.2.9-1.2-1.9-1.2-5.4-2.2-3-1.1.5-3-.9-8.2-4.9h-2.2c0-.1-.5.3-.5.3h0l-.9.5-5.1-3-2.2-2-1.9-.5-1-3.2-2-3.4-2.6-2.8h0l7-6.7.8-2.3.9-.7,1.7-.3,1.9-1.8,2.2-3-.2-3.2,2.3-5.3,2-1.4,5.6-6.8,2.9-1.8,2.9-.4,3.9-3,6.6.2,15.1-4.5h0l.4,1.9-1.2,1,.2,2.7.7,1,2.6,2.2,5.3,1.1,1,.8h0v18.8c.1,0,6.9-.2,6.9-.2l5.3,1.2,2.9-1,3.3,2.2,2.6,4-.6,3.3.9,3.2-2.4.8-2.3-.2-5.1-3.3-6.6,1.7-3.3,2.2-7.4.5-.4,21.8,3.7,4.3,5.7,4.5,3.2,1.1.7.8,1,3.4-1.2,2.6v.9c0,0,2.9,5.2,2.9,5.2l2.5,2-.2.5Z"/>
  </g>
</svg>