<svg xmlns="http://www.w3.org/2000/svg" xmlns:amcharts="http://amcharts.com/ammap" id="Layer_1" viewBox="0 0 512 512"><g id="_x3C_defs"><amcharts:ammap bottomLatitude="-4.237" leftLongitude="-79.051" projection="mercator" rightLongitude="-66.869" topLatitude="12.591"/></g><g><path id="CO_AMA" d="m253.8 397.2 15.8-5.2h4c0 .1 2.7 1.7 2.7 1.7l1.3 2 7.5.2 3.6 2.4 3.3-.3 1.7-2.4h1.1l1.8 2 .8.2h1.7l1.6-1.1 1.5-.2 2 2.3 2.6 1.6h.9l3-3.6h1.2l.3.9 2.9 1.1 1.7-1.1V396l1.5-3.6 4.6-4.5 1.6-.4 3.8.7 1.1-.8 2.5-4.2 2.5-2 4.1-4.5.4-.8-.2-1.2.5-.4h2.2c0 .1 8.2 5 8.2 5l3 .9 1.1-.5 2.2 3 1.2 5.4 1.2 1.9 2.2-.9.5-1 7.5 2.4 2.5 2.8 2 .6 1-.2-.5-.9 1.8-1.3 1.5.8.5.7-1.1 4v3.5l-.9 1.5v1.1l1.5 1.3.2 1.3-1.8 1.2-.2.6.6 1.3 3.6 2.9h.8l1.1-.7.2-.7-1.7-1.1.5-1.2 1-.6 4.2-.3v1.1c.1 0-.7 2.3-.7 2.3l.2.6 1 .2 5.7-1.9 2.3 2 .5 3.2 4.8-.6v-2.3c-.1 0 .6-1.6.6-1.6l1.9 9.4-2.2 5.5-12.7 70.5-2.2 9.3v-.8l-.9-1-4-3.1-1.7-4-1.6-2-2.6-2.1-1.2-.3-4.1 2.1h-.8l-5.8-2.3 19.4-30.2-.9-1.7h-.7l-2.2-1.6-.7-2.2-2.3-2-1.2-.3-1.2.6-5.5-.5-2.5-2.7-.2-1.3-6-3.9-3.5 1.6-3.7 1-2.6 1.4-5.1-.4-1.5-1.9-3.2-1.4-4.6-.3-.6-2.3-3.4 2.4-1.9 2.6-.5 1.7-2.7-.2-7.3 3.8-2.1-.2-8.6-2.5-8.6 2.9-1.6-3.1-2 .3-2.1-1.1-1.2-1.3-.5-2.4 1.6-1.3.6-1.6-.9-6.5-1.3-2.2-1.9-1.3-1.2 1.1-1.7.8-5.7-3.1-.5-.5.6-2.8 1.2-1.3-2.8-4.2-.4-2.7-2.9-2.7-2.9.2-2.6-.7-.8-1.7-6.2-4-4.1-1.1-.7-.6-1.2-2.4 1-2.3-2-2.1-1.6-6Z"/><path id="CO_ANT" d="M245.2 210.4h-.9c0-.1-4.5 1.2-4.5 1.2l-5.2.8-1.3 1.7-2.9 2-3.5-2.3-3.2-.2-6.7-1.9.5 5.8-.5.4h-4.9c0-.1-3 1.3-3 1.3h-3.5c0-.1-3.1-3.6-3.1-3.6l-.3-.7.6-2.1-1.5-4.3.6-1.6.2-2.3-2.3-.5-.5-.5-.4-1.2-.3-3.9-2.5-1.3-8.4 1.6h-3.1c0-.1-2.4-3.6-2.4-3.6l-.4-5-2.6-5.6-2.1-1.6-.3-3.9 1.6-.5 2.2.5 1.4-1.2v-1.1l-.8-2.2.5-.7 4.2-.2 3.7 1.1.6-.3.8-5-.7-2.2-1.9-2.7-1.8-.6-1.8-1.4-9.4-10-2.2-.5-.4-2.7 1.1-.3 1.3-1.1.9-3.7 2.1-1.7 1.8-.5.9-1.4v3.2l-1.6-.6-.7.5-.2 2.8 1.5.8h1.6c0 .1 1.7-.3 1.7-.3l.4-.5.4-3.1-1.2-11.1-1.4-2.1-1.6-1.2-1.5-.5v-.9l1.3-1.6 6.2-1.6 7.1-5.9.2-.9 1 1.5.3 3.4.8 2.2 1 1.1 3.4 1.7.6 1.3-.5 4-4.6 4.9-1 2.5-1 6-2.4 2.8-.3 4.1.8 4.1 4.3 6.1 14.9-.2 5-6.2.4-2.2 2-2.7.9-.2 2.2 1.4.5-.4.9-3.1 2.5-.9 1.2-2.3 3.3-3.1 7.4-.3 1.2-.7 2.6-3.4 3.1 2.6 4.7 3.1 1 1.3.3 5 .6.8-.7 3.3-2 5.6 3.1 3.5 1.6-1.2 1.7-2.8.6-.4.6.2.4 1.8-1.6 2.4-.3 3.6 1.8 6h3c0-.1 8.7-8.3 8.7-8.3l-.3 1.4.4 3.7.9 1.4.3 1.9-1.3 1.2-2.3 1.1-2.9 3.9-4.9 3.9-2.9.9-1.1 1.3-.3 1 .2 2.5.8 1.2-.3.6-2.8 3.1-1.9 1-.8 1-.8 2.5v4.9c.1 0-.4.5-.4.5l-1.4 5.7Z"/><path id="CO_ARA" d="m387.8 202.5-8.5-6.7-2.3-1h-5.3c0-.1-4.4 1.8-4.4 1.8l-4.3.3-9-.4-6.8-1.6-8.3 2.7h-2.8l-.8-.6-4 .2-6.4 1.3-3.8 2.5h-.6l-3.7-1.4-2.4-3.2-.2-3.1 2.5-2.8 3.7-2.1.3-1.7 3-6.3.8-4 1.8-2.8 1.5.7h1.3l3.9-1.8 3-.3 4.1 1h3.9l4.5 1.8 4.6-.6 3.5-1.9.6-.8 4.9-.7 4.9 1.2 7.6 3.6 2.2-1.1h3l20.4 25.3-1.2.9-2.4 1-6.4-.3-2.3.8Z"/><path id="CO_ATL" d="m227.9 60.8 6.1-3.2.5-1.8 4.8-4.8.6 1.6 1.6 1.3 2 3.6v9.1c-.1 0-.4 1.3-.4 1.3l-2.5 2.2-2.9 6.7-9.4-6.7-.2-1.3.4-2.6-.7-2.7.7-.7-.3-1-.5.5.2-1.6Z"/><path id="CO_BOL" d="m271 139.7-1.9 1.5-.6 1.8v1.9l1.9 6.3-.6 4.8-2.4 4.7-.5 4.6-8.7 8.2h-3c0 .1-1.8-5.8-1.8-5.8l.4-3.6 1.6-2.4-.4-1.8-.6-.2-.6.4-1.7 2.8-1.6 1.2-3.1-3.5 2-5.6.7-3.3-.6-.8-.3-5-1-1.3-4.7-3.1-3.1-2.6 1.3-.6.7-1.6 3.6-.9 2.7-5.4-1.1-3.2v-5.4l1.1-1-1.6-3.6-1.8-2.3-5.4-3.2-1.2-1.5-1.5-3.1.2-4-.6-1.4-1.3-1.5-9.9-7.9-.3-3.5-1.3-.6-2.7-3.4-1.4-3.3-1.7.5.3-1.4 1.1-1.4-.4-7 1.8-.9-.6-3.1 2.8-3.2 3.6-2h.8l.3.5.7 2.7-.4 2.6.2 1.3 9.4 6.7-1 3.2.3.9 2.5 1 1.6 2.2-.2 1.2-1.8 1-.3.8.2 2.5 2.4 8.2-.4 3.5 1.8.8 1.3-.2 1.9 1.3 2 2.2 6.7 2.4 3.5 2.8 2.4 2.8 4.2 1.4 3.9.5-.2 2 1.2 1.7.4 3.7-.2 2.4 1.2 2.3 1.1 5.5-.2 3.3-.8 3.5Zm-43.3-77.2-.5-.2v-1.4h.7z"/><path id="CO_BOY" d="m308.8 177.3 4.5-.3.9-.8.9-1.8 3-1.7h3.2c0 .1 1.1-.6 1.1-.6l1.8 1.4 1.9.2-1.8 2.8-.8 4-3 6.3-.3 1.7-3.7 2.1-2.5 2.8-1.1 1-.7 1.5-.2 4.6 1.5 1.6-1.7 6 3.2 1.4 1.4 2.4-1.3 3.9-2.4 1-.6-.3-.6.2-2.9 3.8-3.9 2.8-2.9.4-2.4-2.1-3.7 4.6-.8 2.3 2.1 2.6-.9 1.5-1.9.7-1.3 1.5-1.1 4 1 2.2-1.2 2.1h-2.8l-3.9-3.5-2.9-1.2-3.6-2.6-.2-.8.5-2 1.5-1.9-.5-2.9-1.1-2.2-1.3-4.1-2-2.4-2.1-.5-2.3-2.3-1.2.3-1.4 1-.5 1.9-1.9 1.9-2.3.6-3.8-2.9-2-.7-2.5-3.2-.3-1.1 1.4-1.7-.5-2.8-.8-.9-2.9 1.7-2.4-.6-3.6.8-.5.4-.6-1 1.4-5.7.5-.5v-4.9c-.1 0 .7-2.5.7-2.5l.8-1 4.7 6.3.8.2 1.9-.8.8.3 1.4 2.9 2.7 2.5 3.2 1.8 1.6 2.4 7.4-1.3 1.8 1.3.7-.5 1.2-5.7 1.8-4.2.9-1.2 4 2.4.3 1.5-1.1 2.9v1.9l1.2 1.3 1.9.2 2.2-1.3-.2-1.7.6-1.4 2.3-.7 2.7.5 7.6-8.9 1.2-2.7v-1.5l-1.2-2.6v-3l.9-.1 1.7 1.1.9 2.8 2.2-.2 1-.9 1.9-5.4-.3-5.2-.5-1.4Z"/><path id="CO_CAU" d="m203.6 349.6-.3.7-3.9 1.3-4.8-.2-4-1.6-1.5-2.4 1.1-5.2-1.5-3-.8-.7h-1.3c0-.1-.9.4-.9.4l-1.9 2.1-2.9.6.8-1.4.6-5.1-.7-1.7-5.6-3.5-2.4.6-6.1.2.3-3.9 1.9-1.8.9-1.7-4.4-4.8-1.8-2.9-.5-.3-3.1.4-3.6-.2-1.5-.4-2-1.4-2.5-4.9-2.9-4.2-.4-1.2v-1.2c.1 0 1.3 2.1 1.3 2.1l1.1.5 2.2-.3 1.2-1.2-.6-.9-.5-3.3 2-3.2 4.9-5.7 4.1-6.7 2.3 3 4.7 3.4 5.3.5.7-.9 1.7.8 1.8 2 6.6-3.6 1.3-.2 3.6-1.6.7-1.3v-1.2l-.6-.7.7-1.1 1.4-.2 2.5.5 4 2.1 2.3.5-.2 2.2 2.5 4.2 6.6 16-2.8.4-2.7-2-1.3-.4-1 .6-2 2.5-1.6.4-2.1-.5-.7.4-2.9 3.3 1.3 4.5v.9l-.4.4h-2c0 .1-4-1.4-4-1.4l-2.1.9.4 6.1.6.7h1.7l1.4.6 1.3 1.8v3l.2.7 2.2 2.1 3.1 1.9 2.8-.2v1.3l-2.4 4.8-1 1-.2.9.5 3 4.3 2.2 1.3 1.6Z"/><path id="CO_CES" d="m271 139.7.8-3.5.2-3.3-1.1-5.5-1.2-2.3.2-2.4-.4-3.7-1.2-1.7.2-2 1.9-3-2.4-2.7-1.8-4.2-2.4-3.7-2.5-1.7 1.9-2.5.8-.5h7.1l-1.6-4.7-6.9-9.4 1-3.5 2.8-4.8 12-5.4-1.7-2.9v-1.2l1.1-2.1-2.6-3.1V59c-.1 0 .6-1.4.6-1.4l1 1.3.9.2h7.1l1.9.8 4.9 5.3.4 1.1-.7 2.8-.9.4-1.6 2.1 1.6 1.1 4.8-.8 1.9.2-.9 9.3-1.1 3.4-.8 7-2.3 4.7-4.8 6-3.5 5.4-.4 1.6-1 2.4-.7 4.8.2 5.5-2.3 3.4-.5 2.9 1.6 5.6.8.3.8-.7v-2.4c-.1 0 .3-.5.3-.5h1l1 .8-.2 4.2-1.5.6-.5 1.2 2.2 4 1 3.7-2 4.8-1.5 1.9-2.1.9-3.2.4-.9-1.1-3.1-.2-.4-.8 1.8-4.3-3.1-7.1Z"/><path id="CO_CHO" d="m165.1 124.2.6.4 1.4 2.5.5 1.8 1.3 1.5 3.2 1.6 1.6 2.5 3.3 2.6.6 2.3 1.8 1.1 1.5-.3-.9 1.4-1.8.5-2.1 1.7-.9 3.7-1.3 1.1-1.1.3.4 2.7 2.2.5 9.4 10 1.8 1.4 1.8.6 1.9 2.7.7 2.2-.8 5-.5.3-3.7-1.1-4.2.2-.5.7.9 2.2v1.1l-1.5 1.2-2.2-.5-1.6.5.3 3.9 2.1 1.6 2.6 5.6.4 5 2.4 3.4h3.1c0 .1 8.4-1.4 8.4-1.4l2.5 1.3.3 3.9.4 1.2.5.5 2.3.5-.2 2.3-.6 1.6 1.5 4.3-.6 2.1.3.7 3.1 3.5-7.1 3.1-3 3 3.3 7.6 2.3 1.5-.6 2.1-1.9 1.1-3.7 3.2-5.1 10.3-.2 1.3.5 2.7 2.3 2.7-.4 1.1-3.3 2.6-4.6 1.5h-1.6l-2.8-1.5-4.1-1.4-3-2.5-1-.4-1.8.3-1.2-1.7.2-.5-2.8-.3-1.3-2.1 2.1-6-.3-5.1-.9-4.4-.6-6.4v-2.1l.7-2.5-.4-1.7-1.1-4.7-4-1.9.8-1.9 2.5-1.2 1.8.6 1-.4 2.3-2.7.3-1.5-2.9-6.8-4.4-5.9.4-2.9 2 1.3.7-1.2.9-3.2.5-5.2-2-3.6-1.7-.7-5.9-4.8.4-3-.8-2.3-6.2-5.1 2.4-7.4 1.7-.2.8-1.5-1.1-2.9v-1.8l.4-.8 2.4 1.2 1.9 4.2.7.4 7.3-5.2v-.7l-1.2-1.6 2.2-3.7 2.4-1 .5-1.8-.5-2.6-1.7-3.3-2.6-2.6-.4-3.4-.9-1.6-.7-.6h-1.2l-.2-1.5 3.1-3.7.2-.8Zm-1 128.9.7.4.6 1.4 1.1.3-6.8 1.6.3-1.1 3.1-2.9z"/><path id="CO_CAL" d="m223.3 238.6-3.6-2.8-2.9-.2-3.1-1.1-3.3.8h-1l-.6-.5-1.2-3.2.4-1 3.2-3 2.9-1.7 1.7-2.6-2.5-1.8-3.9 1.3-.5-.6.2-3.3 3-1.4h4.9c0 .1.5-.3.5-.3l-.5-5.8 6.7 1.9 3.2.2 3.5 2.3 2.9-2 1.3-1.7 5.2-.8 4.5-1.3h.9c0 .1.6 1.2.6 1.2l-.7 6.8.2 1.3-1.3 3.2-1.3 1.9-1.8-.5h-3l-2.8.6-1.7 1.1-1.9 2.4-4.6.4-.8.9-1.5 5.2.9 2.2-2.1 1.8Z"/><path id="CO_COR" d="m240.3 138.8-2.6 3.4-1.2.7-7.4.3-3.3 3.1-1.2 2.3-2.5.9-.9 3.1-.5.4-2.2-1.4-.9.2-2 2.7-.4 2.2-5 6.2-14.9.2-4.3-6.1-.8-4.1.3-4.1 2.4-2.8 1-6 1-2.5 4.6-4.9.5-4-.6-1.3-3.4-1.7-1-1.1-.8-2.2-.3-3.4-1-1.5 3.2-1 1.6-1.7 2.7-7.2 2.5-3 5.1-2.6 3-.5 2.7.5 1.5 2.2 4.4 3 3.3 3.3 2.9.8 2.3 1.8 1.1 3.1-.4 2.6-.9-.4-2.2.3-2.3.9v.8l1.7 4.5.8 5.1.9.3 1.8-.5.7.4.3 2.8 2.2-.6 3.1-2.6 4.2 1.8 2.1 1.9.3 2.2.7.9-.7 1.6-1.3.6Z"/><path id="CO_CAQ" d="m322.9 360.5 2.6 2.8 2 3.4 1 3.2 1.9.5 2.2 2 5.1 3 .9-.5.2 1.2-.4.8-4.1 4.5-2.5 2-2.5 4.2-1.1.8-3.8-.7-1.6.4-4.6 4.5-1.6 3.6v1.7L315 399l-2.9-1.1-.3-1h-1.2l-3 3.7h-.9l-2.6-1.6-2-2.3-1.5.2-1.6 1.1h-1.7l-.8-.2-1.8-2h-1.1l-1.7 2.4-3.3.3-3.6-2.4-7.5-.2-1.3-2-2.7-1.6h-4c0-.1-3.6-1.1-3.6-1.1l-2-1.1-2.4-2.5-2.2-.6-2.6-1.5-1.9-1.8-3.1-1-.9 1.6-3.5-.7-2.3-1.4-.6-2.3 1.1-1-1.6-4-.6-.4-4.1-.7-3.1-1.3-.7-3.4.5-1.4-.4-.8-3.3-1.8-1.7 1-.8-.2-.9-1.9.2-1.9-1.2-3.2-.8-.6-1.2-.3-3 .5-2.5-.7-1.1-1.6-2.7-1.5-3.3.8-2.7-1-2-2.2-.2-1.6-.7-.9h-3.9l-1.3-1.7-4.3-2.2-.5-3 .2-.9 1-1 2.4-4.8v-1.3l5.6-.5 1-.7 11.2-14.2.6-1.7 6-6.7 1.2-2.3.9-3.2 1-.9 1.7.5.9-.2 3.1-2.6 1.3-1.7-1.1-2.4v-1.1l2.7-3.9 5.1 1.6 3.5 2.5 1.3 1.9-.2 2.1-2.6 4.1.4 5.8 1.5 4.4.5 5.6 2.9 4.1 2.3 1.2 6.4 1.2 2.6 3 3.6 2.6h3.2c0-.1 5.6-1.8 5.6-1.8l1.8.4.2 2.9 2.9 3.7 2.3 2.3 1.8 5 6.5 5.2.6.9 2.3 1h1.8l4.6-3.5.4-.6-.5-1.3 1.1-1.6 3.9-1.1 1.9.5.6 1 2.5 1.6h1.7l1.8 1.7 3.6 4.8 2.1 4.5 1.3-.5 4.7 2Z"/><path id="CO_CAS" d="m292.9 240.9-1-2.2 1.1-4 1.3-1.5 1.9-.7.9-1.5-2.1-2.6.8-2.3 3.7-4.6 2.4 2.1 2.9-.4 3.9-2.8 2.9-3.8.6-.2.6.3 2.4-1 1.3-3.9-1.4-2.4-3.2-1.4 1.7-6-1.5-1.6.2-4.6.7-1.5 1.1-1 .2 3.1 2.4 3.2 3.7 1.4h.6l3.8-2.5 6.4-1.3 4-.2.8.7h2.8l8.3-2.7 6.8 1.6 9 .4 4.3-.3 4.4-1.9h5.3c0 .1 2.3 1.1 2.3 1.1l8.5 6.7-1.8 2.1-1.9 4.7-3.8 4.9-2.9 1.6-4.7.6-2.8 1.1-6.8 4.1-.4 2-4.7 4.3-2.1 1.1-3.2 5.5-1.7 1.6-3.8 2.4-3.8 1.1-6.5 3-2.6 1.8-3.5 1.2-6.3 4.7-1.9.9h-.9l-1.3-1.4-.9-.3-2.7.3-2.5.9-2.4 2.2-5.8.7-3.8.3-5.7-6.1-1.5-2-.6-1.9-1.9-2.5v-.6Z"/><path id="CO_CUN" d="m242.6 224.5 1.3-1.9 1.3-3.2-.2-1.3.7-6.8.5-.4 3.6-.8 2.4.6 2.9-1.7.8.9.5 2.8-1.4 1.7.3 1.1 2.5 3.2 2 .7 3.8 2.9 2.3-.6 1.9-1.9.5-1.9 1.4-1 1.2-.3 2.3 2.3 2.1.5 2 2.4 1.3 4.1 1.1 2.2.5 2.9-1.5 1.9-.5 2 .2.8 3.6 2.6 2.9 1.2 3.9 3.4h2.8l1.2-2v.6l-2.3 12-2.4 1.2-4.8-1.2-2.9 1-1.5-.3-.7-.6-1.3-4.4-1.4-.9-3.7-1-.9.7-1.5 2.7.5.7.9.2 1.3 2.7v2.1c.1 0-.7.4-.7.4h-1.9l-4.8 2.5-3.1 2.4-1.5.3v-1.9l1.4-6.6.4-3.7 1.2-2.3 1.8-2.2-.2-6.3-1.5-.8h-.7c0 .1-3.1 5.5-3.1 5.5l-1 6.9.3 5-1.6 3.8-2.2.3-1.7 2.3v2l-.5 2.3-1.2 2.1-1.7 1.9.3-1.7-1.6-1.4.7-1.8.2-4.3 1-2v-.9l-1.3-2.2-.7-.8-.8-.2-1 .4-.7 1.1-1.6.3-6.3-2.7 3.1-6.8-1-6.1 1.6-3.4 1.3-8.3-.5-5.2Z"/><path id="CO_DC" d="m250.1 270.5 1.7-1.9 1.2-2.1.6-2.3v-2l1.6-2.3 2.2-.3 1.6-3.8-.3-5 1-6.9 3.1-5.4h.7c0-.1 1.5.7 1.5.7l.2 6.3-1.8 2.2-1.2 2.3-.4 3.7-1.5 6.6v1.9h-2c0 .1-.7.7-.7.7l-4.2 4.6-2.1 3.9-1.1-.2v-.6Z"/><path id="CO_GUA" d="m450.9 261.2.8 3.7 1.9 4.8 1.2.8 1.9-.2.6.4 1.6 2.2 1.7 4.8 2.2 1 .4 1.7-1.6 2.4-2.6 1.8-11.8 11.1.3 1.5 1.7-.2 4.7 1.2 2.1 3.3 1.5.8 4.7 5.3 3.9 2.4.5 1.7-1.3 1.8.2.9 2.9 6.4 3.6 9.7 1.9 6.9 1 6.1.6.9-6.1 1.4-.4-3.3.9-6.9-.4-3-1.3-3.4-1.4-2.5-3.1-3.8-2.2-4.9-2.4-.9-4.8 2.6-2.4 2.3-.6 1.6-3.7 4-3.1 1.1h-1.6l-1.3-.7-1.6-2.5-1.2-2.9-2.7-.8-1.8 3.7.7 2.3 1.5.3.9 1.2h-36.1c0-.1-5.4-1.8-5.4-1.8l-4.3 1.1-2.5 1.1h-1.8l-1-.9-5.3-1.1-2.6-2.2-.7-1-.2-2.7 1.2-1-.4-1.9.5-1 2.4-1.7 1.6-1.9-1-1.6-1.3-.6-1.3.7-5.5 1h-5.3l-4.4-2-1.7-3.6-2.2-2.8h-1.9l-.6-.9 9.9-6.6.6-.9 3.5-.9 2.2-3v-4.5l1.4-2.5 3.7-.6-.2-2.2-.9-1.7 1-1.3 2.4-.9.8.5h1.5l3.5-3.1 6.5-2.4 1.1-1.1v-1.7c-.1 0 .5-.6.5-.6l2.7-.2 1.5.8 5.3-1.3 2.1 1.2.2 1 8-1.6 1.6.7 3-2.8 1.8-.5 3.5.3 1.5-.5.9-1.4 4.8-3.9 9-.6 2.4 1.2 1 1.8 3.7-3.4 2.8-1Z"/><path id="CO_GUV" d="m378.6 319.3-15.1 4.5-6.6-.2-3.9 3-2.9.4-2.9 1.8-5.6 6.8-2 1.4-2.3 5.3.2 3.2-2.2 3-1.9 1.8-1.7.3-.9.7-.8 2.3-7 6.7-4.7-2-1.3.5-2.1-4.5-3.6-4.8-1.8-1.8h-1.7l-2.5-1.6-.6-1-1.9-.5-3.9 1.1-1.1 1.6.5 1.3-.4.6-4.6 3.4h-1.8l-2.3-.9-.6-.9-6.5-5.2-1.8-5-2.3-2.3-2.9-3.7-.2-2.9.4-19 .8-2.6 6.4.8 2.2-.3 4.3-1 5.5-1.9 2.6-3.9 1.9-.7 1.2.7 5.6-1.4 2.3-2.6 5-2.6 7.9-.7 2.5.5 7.8-1.4h9.4c0 .1 3.6-.7 3.6-.7h4.7l1.8.4.2 1.5 2.7-.5 5 1.9 3 .2.8-.7.8-2 4.2 1.6.5-.2-.6.9-9.9 6.6.6.8h1.9l2.2 2.8 1.7 3.6 4.4 2.1h5.3l5.5-1.1 1.3-.7 1.3.6 1 1.6-1.6 1.9-2.4 1.7-.5 1Z"/><path id="CO_HUI" d="m201 334.9-2.8.2-3.1-1.9-2.2-2.1-.3-.7v-3l-1.2-1.8-1.4-.6h-1.7l-.6-.7-.4-6.1 2.1-.9 4 1.5h2c0-.1.4-.5.4-.5v-.9l-1.3-4.5 2.9-3.3.7-.4 2.1.5 1.6-.4 2-2.5 1-.6 1.3.4 2.7 2 2.8-.4-6.6-16h1.5l2.9-.9 4.2-3.6 4.4-.7v-1.6l2.1-3.3 5.2-2.1 8-1.2.9.3.2 1.8-1.4 1.9.6.7 1.3.3 1.7-.2 2-1.4 2.5-3-.3-1.6 1.8-3.3 4-5.3 1.8-1.4 1.6 1.4-.3 1.7-1.5 3.6-1.5 2.1-1 3.7.3 3-2.8 4.3-5.7 4-.8 2-2.8 3.9v1.1l1.2 2.4-1.3 1.7-3.1 2.6-.9.2-1.7-.5-1 .9-.9 3.2-1.2 2.3-6 6.7-.6 1.7-11.2 14.2-1 .7-5.6.5Z"/><path id="CO_LAG" d="m297 72-1.9-.2-4.8.8-1.6-1.1 1.6-2.1.9-.4.7-2.8-.4-1.1-4.9-5.3-1.9-.8h-7.1l-.9-.3-1-1.3-.5-1.8.6-4 2.4-3.5.2-1.3h4.5l3-.7 2.3-1.6.3-.8 1.6-1.4 11.1-7.9 7.4-3 3-.3 4.7-2.7.8-.8 2.8-5.8-.2-3-.7-.4.3-.6 3.8-.5 1.9.2-1.4 1.8.8 1.1 1.4-.2 2.2-1.4 1.6-3.1 3.5-1.6 1.8-1.7-.7-.5h-1.5c0 .1-1 .7-1 .7l.4-.8 1-.6 4.8.4 7.5 3 1.6 1.3 3.1 6.1v1.5l-.5.9-4.5 3-1.2 2-2.3 1.2-6.6 1.7-4.2 1.6-5.9 1-7.1 12.5-3.2 2.6-5.1 1.2L297.1 72Z"/><path id="CO_MAG" d="m268.4 115.3-3.9-.5-4.2-1.4-2.4-2.8-3.5-2.8-6.7-2.4-2-2.2-1.9-1.3-1.3.2-1.8-.8.4-3.5-2.4-8.2-.2-2.5.3-.8 1.8-1 .2-1.2-1.6-2.2-2.5-1-.3-.9 1-3.2 2.9-6.7 2.5-2.2.3-1.3v-9.1c.1 0-1.8-3.6-1.8-3.6l-1.6-1.3-.6-1.6.8.6 9.8 3.4 3.7.3 2.6-.5-1 .7h-4.1c0 .1-3.7 2.9-3.7 2.9l-.5 1.6.4 1.2 2.2-.9 1.6 1.4.2.7h1.9l1.1-1.2 3.8-10-.2-3.5 1.4-2.2 1-.7 4.2-.7 4.3 2.1 2.3.6 7.5-.2-.2 1.3-2.4 3.5-.6 4 .5 1.8-.8 1.4v.9c.1 0 2.7 3.1 2.7 3.1l-1 2.1v1.2l1.6 2.9-12 5.4-2.8 4.8-1 3.5 6.9 9.4 1.6 4.6h-7.1l-.8.5-1.9 2.5 2.5 1.7 2.4 3.7 1.8 4.2 2.4 2.7-1.9 3Z"/><path id="CO_MET" d="M351.1 236v59.7l-1.8-.4h-4.7l-3.6.8h-9.4c0-.1-7.8 1.3-7.8 1.3l-2.5-.5-7.9.7-5 2.6-2.3 2.6-5.6 1.4-1.2-.7-1.9.7-2.6 3.9-5.5 1.9-4.3 1-2.2.3-6.4-.8-.8 2.6-.4 19-1.8-.4-5.6 1.6h-3.2c0 .1-3.6-2.5-3.6-2.5l-2.6-3-6.4-1.2-2.3-1.2-2.9-4.1-.5-5.6-1.5-4.4-.4-5.8 2.6-4.1.2-2.1-1.3-1.9-3.5-2.5-5.1-1.6.8-2 5.7-4 2.8-4.3-.3-3 1-3.7 1.5-2.1 1.5-3.6v.6l1.2.2 2.1-3.9 4.2-4.6.7-.6h2c0-.1 1.5-.4 1.5-.4l3.1-2.4 4.8-2.4h1.9l.8-.4v-2.1c-.1 0-1.4-2.7-1.4-2.7l-.9-.2-.5-.7 1.5-2.7.9-.7 3.7 1 1.4.9 1.3 4.4.7.6 1.5.3 2.9-1 4.8 1.2 2.4-1.2 2.3-12 1.9 2.5.6 1.9 1.5 2 5.7 6.1 3.8-.3 5.8-.7 2.4-2.2 2.5-.9 2.7-.3.9.3 1.3 1.3h.9l1.9-.8 6.3-4.7 3.5-1.2 2.6-1.8 6.5-3 3.8-1.1 3.8-2.4Z"/><path id="CO_NAR" d="m181.1 341.7-2.1.5-4.3 2.5-1.2 1.1.2 5.6 2.3 8.6v.7l-2.8 1-.5 2.2.6 2.2.2 3.5-4.1.7-4.8-1.4-1.3-.8-.9-3.8.2-2.4-.6-1-.9-.3-1.3.3-3.3-2.2-.4-.6v-1.7l-.6-.8-.6-.2-3.4 1.1-1.2-.2-.9-.4-1.4-1.5-2.1-.9-3-.3-4.4-3.3-3.1-1.1-3.3-3.6-2.2-.5-.6.3-.9-1.3-2.5-1.2-3.9-4.5-1.5-3.2-2.1-1-3-.5-.6-1 2.3-3.5 2.7-2.2 1.1-.3 2.5.5 4.2 1.7h1l1.2-4.5-1.5-3-1.7-1.3-1-3.8 3.6-6.9.3 1.1 1-1.3 1.7-.3.3-1.8h.8c0-.1 2.4 2 2.4 2l2.4-2.4 4.2.9 4-1 1.1-1 .3-1.6.4 1.2 2.9 4.2 2.5 4.9 2 1.4 1.5.4 3.6.2 3.1-.4.5.3 1.8 2.9 4.4 4.8-.9 1.7-1.9 1.8-.3 3.9 6.1-.2 2.4-.6 5.6 3.5.7 1.7-.6 5.1-.8 1.4Zm-38.5-35-2.6-2.3.7-1.8 1.7-.2.8 1.5.4 1.8-1 1.1Z"/><path id="CO_NSA" d="m322.3 172.1-1.1.7H318c0-.1-3 1.6-3 1.6l-.9 1.8-.9.8-4.5.3h-1c0 .1-.4-.3-.4-.3v-2.3l-.4-.5-2.8 1-5.9-2.5v-9.6l-3.7-7.2-6.3-.2-1.6 1.9-2 .2-4.7-1.4-1-1.6-2.2-1.7 3.2-.4 2.1-.9 1.5-1.9 2-4.8-1-3.7-2.2-4 .5-1.2 1.5-.6.2-4.2-1-.9h-1l-.4.6v2.4c.1 0-.7.7-.7.7l-.8-.3-1.6-5.6.5-2.9 2.3-3.4-.2-5.5.7-4.8 1-2.4h4.6l6.3-3.9.9 1.2.7 1.8v.7c-.1 0 2.2 1.8 2.2 1.8l3.1 1.2 3.4 13.1 7.1 7.5 1 .6 1.5 6.5.2 2.7-.5.4h-1.3l-2.1 3.8-.4 12.5 2.1 2.7 4.1.5 3.2 1.9-.3 1.9.6 1.9 2.3 4h.4Z"/><path id="CO_PUT" d="M203.6 349.6h3.9l.7 1 .2 1.6 2 2.2 2.7 1 3.3-.8 2.7 1.5 1.1 1.6 2.5.7 3-.5 1.2.3.8.6 1.2 3.2-.2 1.9.9 1.9.8.2 1.7-1 3.3 1.8.4.8-.5 1.4.7 3.4 3.1 1.3 4.1.7.6.4 1.6 4-1.1 1 .6 2.3 2.3 1.4 3.5.7.9-1.6 3.1 1 1.9 1.8 2.6 1.5 2.2.6 2.4 2.5 2 1.1 3.6 1-15.8 5.2-.7-1-6.3-4.7-.7.7-2.2-1.3-.4-2.1-1.5-2.4h-1.2l-1.4.7-2.3-1-2.5-2.2-3.4-2.3-2-.3-.6 1.7-1 .8h-.8l-1.9-1.3-2.5-.6-4.2-2.7-5.5-.4-4.5-3.4-3.8-5.1-6-1.7h-4.7l-.2 3.6-4.1 1.5-1.2-.3-.8-.8-3.1-.7-.3.6-1.3.4-2.9.3-5-2-1.3-1.6-.2-3.5-.6-2.2.5-2.2 2.8-1v-.7l-2.3-8.6-.2-5.6 1.2-1.1 4.3-2.5 2.1-.5 2.9-.6 1.9-2.1.9-.5h1.3c0 .1.8.8.8.8l1.5 3-1.1 5.2 1.5 2.4 4 1.6 4.8.2 3.9-1.3.3-.7Z"/><path id="CO_QUI" d="m214.3 242.2 7.1.5 1.9-1.1.2.4-5.6 7.7-.2 3.2-3.4 5.1-.3 2.3-1.2-1.4-.4-1.5-2.8-12.1.5-1.1 4.2-.2.3-.6-.4-1.3Z"/><path id="CO_RIS" d="m223.3 241.6-1.9 1.1-7.1-.5-5.7-1.8-2.3-3.3-2.3-2.3-1.7-1.1-1.3.2-2.2-1.5-3.3-7.6 3-3 7.1-3.1h3.5c0 .1-.2 3.4-.2 3.4l.5.6 3.9-1.3 2.5 1.8-1.7 2.6-2.9 1.7-3.2 3-.4 1 1.2 3.2.6.5h1l3.3-.8 3.1 1.1 2.9.2 3.6 2.8-1.1 1.5 1.1 1.5Z"/><path id="CO_SAN" d="m266.9 165.3.5-4.6 2.4-4.7.6-4.8-1.9-6.3V143l.6-1.8 1.9-1.5 3.1 7.1-1.8 4.3.4.8 3.1.2.9 1.1 2.2 1.7 1 1.6 4.7 1.4 2-.2 1.6-1.9 6.3.2 3.7 7.2v9.6l5.9 2.5 2.8-1 .5.5v2.3l.3.5h1c0-.1.5 1.3.5 1.3l.3 5.2-1.9 5.4-1 .9-2.2.2-.9-2.8-1.7-1.1h-.9v3.1l1.1 2.6v1.5l-1.2 2.7-7.6 8.9-2.7-.5-2.3.7-.6 1.4.2 1.7-2.2 1.3-1.9-.2-1.1-1.3v-1.9l1-2.9-.3-1.5-4-2.4-.9 1.2-1.8 4.2-1.2 5.7-.7.5-1.8-1.3-7.4 1.3-1.6-2.4-3.2-1.8-2.7-2.5-1.4-2.9-.8-.3-1.9.8-.8-.2-4.7-6.3 1.9-1 2.8-3.1.3-.6-.8-1.2-.2-2.5.3-1 1.1-1.3 2.9-.9 4.9-3.9 2.9-3.9 2.3-1.1 1.3-1.2-.3-1.9-.9-1.4-.4-3.7.3-1.4Z"/><path id="CO_SUC" d="m213.7 102 1.1.3.9-.4 1.1-1.4.9-2.2.2-1.8-.5-1.8-1.8-2.8 2.1-6.5.2-3.3 1.7-.5 1.4 3.3 2.7 3.4 1.3.6.3 3.5 9.9 7.9 1.3 1.5.6 1.4-.2 4 1.5 3.1 1.2 1.5 5.4 3.2 1.8 2.3 1.6 3.6-1.1 1v5.4l1.1 3.2-2.7 5.4-3.6.9-.7-.9-.3-2.2-2.1-1.9-4.2-1.8-3.1 2.6-2.2.6-.3-2.8-.7-.4-1.8.5-.9-.3-.8-5.1-1.7-4.5v-.8l2.3-.9 2.2-.3.9.4.4-2.6-1.1-3.1-2.3-1.8-2.9-.8-3.3-3.3-4.4-3-1.5-2.2Z"/><path id="CO_SAP" d="m36.5 10.1-.2-1.7.8-1.4h.3c0 .1-.3 1.8-.3 1.8l-.7 1.3Z"/><path id="CO_TOL" d="m214 260.3.3-2.3 3.4-5.1.2-3.2 5.6-7.7-.2-.4-1.1-1.5 1.1-1.5 2.1-1.8-.9-2.2 1.5-5.2.8-.9 4.6-.4 1.9-2.4 1.7-1.1 2.8-.6h3l1.8.6.5 5.2-1.3 8.3-1.6 3.4 1 6.1-3.1 6.8 6.3 2.7 1.6-.3.7-1.1 1-.4.8.2.7.8 1.3 2.2v.9l-1 2-.2 4.3-.7 1.8-1.8 1.4-4 5.3-1.8 3.3.3 1.6-2.5 3-2 1.4-1.7.2-1.3-.3-.6-.7 1.4-1.9-.2-1.8-.9-.3-8 1.2-5.2 2.1-2 3.3v1.6l-4.4.7-4.2 3.6-2.9.9h-1.5l-2.5-4.2.2-2.2 2.6-8 2.5-10.6 2.3-3.4 1.7.3 1.8-1.5.2-2.4Z"/><path id="CO_VAC" d="m202.9 285.7-2.3-.5-4-2.1-2.5-.5-1.4.2-.7 1.1.5.7v1.2l-.6 1.3-3.6 1.6-1.3.2-6.6 3.6-1.8-2-1.7-.8-.7.9-5.3-.5-4.7-3.4-2.3-3-1.8-1.2.5-.8 2.5-1.6 3.5-4.5 1-.3 2.1-2.7.5-3 2.8-4.4-2.4.7-2.2 1.5h-2.3c0 .1-.6-.2-.6-.2l-.3-1.9.4-1 2.1-.6.8-2.6-2.2-1-1.5 1.6-.9 2.6-.6.7-1.7-2.1-.4-4.2.3-1.1 2.6-1.1h1.8l.8-.8 1.2 1.7 1.8-.3 1 .4 3 2.5 4.1 1.4 2.8 1.6h1.6l4.6-1.5 3.3-2.6.4-1.1-2.3-2.7-.5-2.7.2-1.3 5.1-10.3 3.7-3.2 1.9-1.1.6-2.1 1.3-.2 1.7 1.1 2.3 2.3 2.3 3.3 5.7 1.8.4 1.3-.3.6-4.2.2-.5 1.1 2.8 12.1.4 1.5 1.2 1.4-.2 2.4-1.8 1.5-1.7-.3-2.3 3.4-2.5 10.6-2.6 8Z"/><path id="CO_VID" d="m351.1 236 1.7-1.6 3.2-5.5 2.1-1.1 4.7-4.3.4-2 6.8-4.1 2.8-1.1 4.7-.6 2.9-1.6 3.8-4.9 1.9-4.7 1.8-2.1 2.3-.8 6.4.3 2.4-1 1.2-.9 1.7-.8h1.6l1.3 1.6.9.2 1.4-.5 3.2-3 .9-.4 6.8.9 5.6 1.5 5.5-1.6 4 .7 4.9-1.6 3.5.5 2.3-.4 3.7-2.7 5.8.7 2.1.7 2 1.7 1.2.4-1 1.2v1c-.1 0 2.2 3.7 2.2 3.7l-6.1 6-.9 3.2.5 3.1.5.9-1 2.1-4.6 2.8-1.3 2.3 1.4 9.8-.7 7-1 5.2 2.2 6.7-.5 1-.2 2 .6 1.9 2.3 3.5-2.8 1-3.7 3.4-1-1.8-2.4-1.2-9 .6-4.8 3.9-.9 1.4-1.5.5-3.5-.3-1.8.5-3 2.8-1.6-.7-8 1.6-.2-1-2.1-1.2-5.3 1.3-1.5-.8-2.7.2-.6.6v1.7c.1 0-1 1.1-1 1.1l-6.5 2.4-3.5 3.1h-1.5l-.8-.5-2.4.9-1 1.3.9 1.7.2 2.2-3.7.6-1.5 2.5v4.5l-2.1 3-3.5.9-.5.2-4.2-1.6-.8 2-.8.7-3-.2-5-1.9-2.7.5-.2-1.5V236Z"/><path id="CO_VAU" d="m399.6 410.2-.7 1.6v2.3c.1 0-4.7.6-4.7.6l-.5-3.2-2.3-2-5.7 1.9-1-.2-.2-.6.8-2.3v-1.1c-.1 0-4.3.3-4.3.3l-1 .6-.5 1.2 1.7 1.1-.2.7-1.1.8h-.8l-3.6-3-.6-1.3.2-.6 1.8-1.2-.2-1.3-1.4-1.3v-1.1l.9-1.5v-3.5l1-4-.5-.7-1.5-.8-1.8 1.3.5.9-1 .2-2-.6-2.5-2.8-7.5-2.4-.5 1-2.2.9-1.2-1.9-1.2-5.4-2.2-3-1.1.5-3-.9-8.2-4.9h-2.2c0-.1-.5.3-.5.3l-.9.5-5.1-3-2.2-2-1.9-.5-1-3.2-2-3.4-2.6-2.8 7-6.7.8-2.3.9-.7 1.7-.3 1.9-1.8 2.2-3-.2-3.2 2.3-5.3 2-1.4 5.6-6.8 2.9-1.8 2.9-.4 3.9-3 6.6.2 15.1-4.5.4 1.9-1.2 1 .2 2.7.7 1 2.6 2.2 5.3 1.1 1 .8v18.8c.1 0 6.9-.2 6.9-.2l5.3 1.2 2.9-1 3.3 2.2 2.6 4-.6 3.3.9 3.2-2.4.8-2.3-.2-5.1-3.3-6.6 1.7-3.3 2.2-7.4.5-.4 21.8 3.7 4.3 5.7 4.5 3.2 1.1.7.8 1 3.4-1.2 2.6v.9l2.9 5.2 2.5 2-.2.5Z"/></g></svg>