<svg xmlns="http://www.w3.org/2000/svg" xmlns:amcharts="http://amcharts.com/ammap" id="Layer_1" viewBox="0 0 512 512"><g id="_x3C_defs"><amcharts:ammap bottomLatitude="-4.99" leftLongitude="-91.665" projection="mercator" rightLongitude="-75.19" topLatitude="1.439"/></g><g><path id="EC-W" d="m110.6 230.5-3.4.4-4.3-3v-1.7l1.7-1.7 2.1-.9 3.8.4 3.6 3.2-1.3 1.7-2.3 1.5Zm-37.7-4.3h-1.6c0-.1-2.7-2.3-2.7-2.3l2.1-4.2h2.1l3.2 2.2v1.4c-.1 0-3 2.9-3 2.9Zm20.4-22.4h-2.6l-1.9-1.7-.2-2.3 2.3-1.1 2.6.6 1.3 2.8zm27.2 2.4-4.4 1.1-4.6-1.4v-.7l7.3-5.3.6-1.9 2.1-2 2.8-1.5h5l.5.7-1.4 2.9-8 8.1ZM64.4 193l-2.8 1.1-2.1-1.3-1.1-2.3.4-1.3 2.8-1.1 2.1 1.1 1.1 1.3zm17 4.2-4 1.6-4.4-.5-5.2-3.7-.5-2.8.7-2.3 2.3-2.7 1.6-.7 7.8-.7 5 2.3v5.3l-.6 1.4-2.6 2.9Zm0-14.7h-2.3l-1.9-1.5 1.1-2.6 3-1.1 2.6 2.1-.2 1.9-2.1 1.1Zm-59.8 2.7-5.5-2.3-1.9-3-.6-3.3 1.5-1.2 7.8-2 3.2 2.8.3 6.3-.4.9-4.5 1.8Zm45.7-9.3-2.8 3.5-3.1-1.3-3.3.4-4.1-.9-2.3-3.2 1.9-4.4 2-1.3 8.2 3.1 3.4 3.1.2 1.1Zm-34-14.4 1.8.6.7.9v5.3l1.6 4.6 3.1 3.3 3.1 1.7 3.8 3.7.8 4.9-.7 1.1 7.3 8.7-3.1 8.7-2.5 2.5-11.5 3.1-7.5-.9-2.5.6-2.3-.5-3.5-4.7V202l1.8-2.6 6.8-5.4 3.6-1.2 3.7.9 3.7-4.4-1.8-1.9h-1.6l-9.9-11.7-2.3-3.6.7-2.7-1.2-6.2-.9-1.2-1.7-.2-3.3 1.8h-1.6l-1.4-1.9 10.2-6.5 3.7.6v1.1c.1 0 2.9 4.2 2.9 4.2ZM101 151l-1.7.6-2.6-.2-1.5-2.6.2-2.3 5.5.2 1.5 1.3v1.5l-1.5 1.5Zm-26.4 0-5.1.2-2.3-2.1.2-2.3 2.6-1.3 4.7.2 3.4 2.6-.8 1.7-2.6 1.1Zm-11.7-11.7-2.8 1.3-2.3-1.9-1.7-3.2.8-2.1 3-1.5 2.6 2.1 1.3 2.8-.8 2.6Z"/><g><path id="EC-A" d="m280.9 292.8 3.2-.7 4.8 1.3 1.9 2.1.5 3.7-.6 1.2.6 2.1 2.4 1.5h5.2c0-.1 2.1-2.6 2.1-2.6l2.5 3.8 1.1.6.8 3 1.9 1.3 4.3-.6v-1.8c.1 0 1.3-1 1.3-1l.8-2.2 2.6-2.2 4.6-1.3.4-2.4 1.1-1.4 2.6-.8.2 3.3h1.3l1.8-2.1.5.3 2.9 1v2.4c-.1 0-6.8 1.5-6.8 1.5l-2.1 1.9-.4 1.6.3 1.6 1 .9-.3 1.7-3 3.7-.8 7.3-2.4 2.3-2.6.5-1.6 1.4-2.3 4.7-5.8 2.1-.3 2.1-1.8 1-3.7 3 .8 2.9-1.5 3.1.9 3-1.9 1.3h-.1c0-.1-2.1-1.3-2.1-1.3l-.6-3.7-1.9-2.8-.6-.4-3.1 2-.9-.7-1.1-2.9v-3.5l-2.4-.8-6.2-.4-3.8-.4-3.5-.9-.4-2.4 2.1-2.8V325l-7.1-2.1-1.6-2 .3-.9.9.7 11.5-22.3 3.5-2.4v-3.5h.5Z"/><path id="EC-B" d="M289.8 226.7h1.4l2.3-1.8 3.8-.8h2.4c0 .1 1.8 2.1 1.8 2.1l2.3.5 2.9-.2 1-1.8 4.2.8-2 1.1-1 5.1-1.9 1.8 1.7 5.2 1.8 2v1.1h.1l-1.8 5.8 1.8.3.6 1.3-.3 1.6h-1.1c0-.1.3 2.5.3 2.5l-2.4 2.1-2.1-.3-2.6.9-1.2 17.4-1.8 1.6-2 1.4-.7-.8 1.1-2.7-1.6.4h-1.3v-2.1l-3.2-1.6-2.8-5.7 1.5-3.1-.6-5.1 2.4-.8.3-1-2.9-.4-.5-3.6-2.8-.6-.3-1.1 3.3-1.5 1.1-2.9-2.5-.4-.5-2.6-2.6-.7-.3-1 2.3-1-.2-1.1.3-.9 1.3-.4.6-3.5-2.7-1.1-2.1 1.1-2.3-.6 6.1-4.5 1.2-.6Z"/><path id="EC-C" d="m354.6 122.4 2.5 2.3 6.9.6 6.7-1.9 2.6 1.9v1l-1.6 1.1v1.4l3.7 3-1 1.1-1.6-.2-1.5 1.6-.8 2.9-4.9 6-.8 3.4-4.7-.9-7.1-4.9-2.7-.3-.8-1.8v-4.3c-.1 0-7.6-8.8-7.6-8.8l-3.9-2-4.3-.4h-.7l-3.2-1.3v-2.1l-1.3-.7-.4-6.9 2.1-1.3v-5.2l4.4 2.4.6 2.1 2.5 2 7.6 2.6 1.4 2.5 5.3 4.2 2.4.9Z"/><path id="EC-D" d="m392.2 168.5 4.5 1.8 2.1-.2 5.4 1.3 3.5-1.8 2.3.3 9.7 12.6 4.2 2.3 1.8 2.3 3.6-.3 3.4 3.8 5.4 2h1.8l3-2.9 10.5-.3 1.6 3.3 2.3 1.1v1.3l4.5.8v-1.1l-.9-.6v-5.8l2.6-.1 2.2.6 2 1.6 6-.2 3.9.8 2.6 2.4.5 1.4 7.4.6.4 1.2 5.9 2.4.9 2.3-1.2 1.1 1.3 1 .9 4.7 1.3.5-.3 4.9 1.3 1.8h-6.7l-1-1.4-1.5.4v3.4l-2.1 4.9-4.7 15.5-3 5.7-1.2.8v-3.2c.1 0-3.4.4-3.4.4l-3.4-2-.3-1.8-1.3-1.4h-3.5l-1.1-2.1-2.4-1.1-.7.8-12.1-3.7-8 1.5-3.3-.6-1.5-2.4-3.1.4-4.3-3.4 1-5.7-.6-1.1-2.9-.3-1.5-1-11.6 2.8-.5 3.5-2.1-.3-2.4-2.7-2.7.3-1.1-1.3-3.1.3v-1.1l-1.7-1.2-.5-1.7 2.4.3 2.1-1.1-2.9-2.4 2.4-1.1V211l-4.8-.3-3.5-1.6V207l4.3-3.7v-2.7h-2.4l-6.4 6.9-5.3 2.4-3.2.5-1.1 1.6-1.9.8-4-.3 2.4-4 .5-2.9-.8-2.1 2.1-1.9-1.6-4.8-1.1-1.3-1.9-.3-.8-1.9-1.6-1.1 1.6-1.3h1.3v-2.4l2.1-.3 1.3 1.6 2.4.3v.8l2.4-.5.5-1.3h1.9l.8-2.7h1.3v-2.9l4.5-3.5-1.3-1.1-1.1-8.6 1.2-1.9h.2Z"/><path id="EC-E" d="M330.3 105.7v5.2l-2.2 1.3.4 6.9 1.3.7v2.1l3.2 1.3h-.2l.5 2.8-2.9.8v3.5c-.1 0 2.8 1.5 2.8 1.5l1.3 1.8v1.6l-1.5 2.5-2.2 1.1H328l-.3 2.4-4.6 5.3-2.6.9-2-2.1-3 .3-1.8 2.2-6.3-.5-3.3 1.8h-2.6c0-.1-4.5.5-4.5.5l-1.6-.6-3.3-.7-1.7.5-.3 2.1-1.6 1.5h-1.4v2.4c.1 0 1.9 1.5 1.9 1.5l-2.6 4.9v3.3h-.1l-1.7-.5-1.9 2.7h-5.6l-3.8-1.4v-.9l.3-2 1.6-2.1-1.4-.5-.8-1.5h-2.1l-2.7-1.7 2-2.9-.3-1.9-2-.9.5-2.3-1.1-2.5-2.5-.3-1.3 3.5-1.6.9h-3.3l-1.6 2.4-1.5.6-1.7-1.6-1.3-3.6.5-1.5-1.7-.8-.8-3.1 1.9-3.9v-3.2c.1 0-4.7-4.7-4.7-4.7l1-4 1.5-2 5.3.4 7.6-3.7 2.1-2.9 1.8-1 5.2-2.5h3.4l7.2-3.6 13.4-1.1 4.2-3.2.4-2.4 9.3-7.3 2.3-4.6 1-.4 4.5 2.4 5.4 6.8 4.9 3.2 2.1.6Z"/><path id="EC-F" d="m297 277.1 3.2 5.8 5.1 4.3 6.2-.2 2.4-1v.5l1.5-.8 1.3-2.1h1.1l.8 1.3 2.4.3 1.1-2.4 4.8.8-.2.3 2.6 2.6.6 4.3-.6 5.2-1.4 1.5.6.3-1.8 2.1h-1.3l-.2-3.3-2.6.8-1.1 1.4-.4 2.4-4.6 1.3-2.6 2.2-.8 2.2-1.2 1v1.8c-.1 0-4.4.6-4.4.6l-1.9-1.3-.8-3-1.1-.6-2.5-3.8-2.1 2.5h-5.2c0 .1-2.4-1.4-2.4-1.4l-.6-2.1.6-1.2-.5-3.7-1.9-2.1-4.8-1.3-3.2.7-1.2.2-1.4.9-2-1.6 4.3-3.9 1.3-3.9 3.2.2 2-1.5 7.2-.3 2.1-3.9.5-1.7Z"/><path id="EC-G" d="m246.4 318.8-4.5 1.1-1.3 1.8-4.3-.4-3.7-5.3-.3-2.4h1.3c0 .1 2.1 2.3 2.1 2.3l1.1 2.4 1.8.6.4-8.4 2.9-6.3 6.3-2.7 3.3-.6 6 3v1.6l-1.1 1.6-3 .5-5.9 8-1.1 3.1Zm27.9-110 5.2-.2-1.1 3.3 1 3.7-2.2 1.4-.4 1.7-8.3 4.6-1.8 2-1.7 5.6-4.7 5.1-.7 3.4.7 6.9-.7 2.6 1.4 3.3 3.5 1 2 5.6 3.5 3.7h1.6c0 .1 3.2-1.9 3.2-1.9h2.3c0 .1.5.9.5.9l2.3.5 5.4 5 2.4 4.1 1.8 1.5 1.2-1.2 2.7 2.3v1h.1l1.4.7.6-1.9h1.3l1.6-.3-1.1 2.7.6.9-1.3.7-.2 1.6-2.1 3.9-7.2.3-2 1.5-3.1-.2-1.3 3.9-4.3 3.9 2 1.6 1.4-.9h.7v3.4l-3.5 2.4-11.5 22.3-.9-.7-.4.9-5.9-.2h-.2l3.1-12.9 2.6-7.3 1.7-1.5h-3c0-.1.9-4 .9-4l-1.3-.6-.8 5.6H258c0-.1 1.3-5.3 1.3-5.3l-1.1-.4-2.1 2.5-.7 3.3-5.8-1.9-.3-1.8 3-10.9 1.5-.6 1.1-1.6-3.6 1.3-4.1 8.7-7.3 7-.2 4.2-3-.6-3.1-3.2-3.4-.8-7.4-7.7 3-3.4 3.5-1.3 2.4-3.2 8.5-2.1 2.1-6.1-1.9-2.1-.3-4-3.2-.8-.5-2.4-2.4-1.9-4.8-1.3-1.9-4.5-.3-7.5h1.9l3.5-.8 2.3 1.7 1.6-1.3 3 1.1.3-.9h2.1v-2.3l-3-2.9-.3-1.1 2.4.3 3.2-1.5-1.5-3.2 1.3-3.7h1.5c0-.1.1-3.8.1-3.8h1l.5-1.3 1.4.3 3.7-4.2 1.8-.8.2-2.8 4.3-1 2.6-2.4v-1.3c.1 0 2.1-.6 2.1-.6l.3-2.5 2.4-2 1.4-4.3 3 1 4.4-2.1v-.5Z"/><path id="EC-H" d="m310.8 241.8 2.4-3.2 2.6-.2 3 3.2h1.4l.9-1.1 4.2-.2 3.7 1.1 2.4-.4 5.4 2.3v4.3l-.8 1.8-5.1 5 2.6 3.3.3 2.4-2.5 3.9-2.3 2 3.4 2-.6 1.8.3 3.2-4 1.1 1.6 2.9v2.4c.1 0-1.5.9-1.5.9l.4 1.4-1.7 1.8-.2.3-4.8-.8-1.1 2.4-2.4-.3-.8-1.3h-1.1l-1.3 2.1-1.5.8v-.5l-2.4 1-6.2.2-5.1-4.3-3.2-5.8 3-2 1.8-1.6 1.2-17.4 2.6-.9 2.1.3 2.4-2.1-.3-2.7h1.1c0 .1.3-1.5.3-1.5l-.6-1.3-1.8-.3 1.8-5.8Z"/><path id="EC-I" d="m364.8 146.7-.8 2.1-1.4.7-.7 4.8-3.7 1.9-.5 1.2h-.4l-2-1.5h-2.7l-4.4 1.8-.5.9-5.3.7-1.5-1.6-.5-3.5-1.8 2.4-1.7.4-2.2-3.2-1-.4-11.2 1-5.3-.7-9.6.5-3-1-1-1.9-2.4-.8-.4-1.3h3.2l3.3-1.8 6.3.5 1.8-2.2 3-.3 2 2.1 2.6-.9 4.6-5.3.3-2.3h2.8l2.2-1.2 1.5-2.5v-1.6l-1.3-1.8-2.9-1.5v-3.5c.1 0 3-.8 3-.8l-.5-2.8h.9l4.3.4 3.9 2 7.5 8.8v4.3c.1 0 .9 1.8.9 1.8l2.7.3 7.1 4.9 4.7.9Z"/><path id="EC-L" d="m297.7 349.2-1 1.5-1.5.3-1.8 2.5.6 3.5 1.9 2.7-.4 11.6-.8 3.5 2.1 3.3v10c.1 0-4.7 6-4.7 6l-1.3-.4-.3-.9h-1.8c0-.1-3 1.6-3 1.6l-.3 2.8-3.4 5.7v1.1l-2.2.3-.5-2.9-2-.8v-5.5c-.1 0-2.1.4-2.1.4l-3.3-3.7-2.4-.7-5.9 2.4-1.6-.2-2.8-1.8-1.8-2.6-4.7-.9-4.1-3.7-2.9-.8-2 .7-4.5 5-4.9 3.5-1.6.7-3.7-1.9-.8-2.7 7.1-9.6h-2.2c0-.1-3.2 1.1-3.2 1.1l-1-.7-1.9-8 1.8-3.3 3.9-.3 3.6 1.7 1.4-.8 2.5-3.6 4.6-2.1 4.1-.9 7.5-3.1 4.5.4 2.2 1.5 2.9-.4 2.1-3.7 2.5-1.1h1.5c0-.1 2.1 2.4 2.1 2.4l2.2-.6 4.9.6 1-1.1v-3.5l.8-1.8 1.6-1.5-2.3-3.8-1.1-.3-.9.9-1.2-1.7-.4-1.4 2.3-1.9v-1.5c.1 0-.1-1.1-.1-1.1h-1.5l-.6-2.5-1.6-2.3h1.2c0 .1 6.2.5 6.2.5l2.3.8v3.5l1.2 2.9.9.7 3.1-2 .6.4 1.9 2.8.6 3.7 2.1 1.2.3.3Z"/><path id="EC-M" d="m274.3 209.3-4.3 2.1-3-1-1.4 4.3-2.4 2-.3 2.5-2 .6v1.3c-.1 0-2.7 2.4-2.7 2.4l-4.3.9-.2 2.8-1.8.8-3.7 4.2-1.4-.3-.5 1.3h-1v3.7c-.1 0-1.6.1-1.6.1l-1.3 3.7 1.5 3.2-3.2 1.5-2.4-.3.2 1.1 3 2.9v2.1h-2.1c0 .1-.3 1-.3 1l-3-1.1-1.6 1.3-2.3-1.7-3.5.8h-5.1v-1.7l-1.2-.4h-1.8l-.7.8-7.3-.2-2.1.7-1.8-4.2 1.7-4.9 2.6-1.6 1.5-6.2-3.5-5-2.4-1.8-2.9-8.8 5-5 3.3-.9 6.8.4 3.1-1.4 4.2-12 2.1-3.4 1.7-1.3-3.7-5.9-.2-3.3 4.3-3.9.8-3.2 7.8-5.2 8-10.5 2.3-6.6v-8.2l1.1.5 1.3 3.6 1.7 1.6 1.5-.6 1.6-2.4h3.3l1.6-.8 1.3-3.5 2.5.3 1.1 2.5-.5 2.3 2 .9.3 1.9-2 2.9 2.7 1.7h2.1l.8 1.4 1.4.5-1.6 2.1-.3 2v2.9h.1l1.7 6.4 6.9.8 1.6 2 .4 9.6-1.8.9-3.4 6.5h1.1l-.6 3.9-2.2 1.4-.5 1.2.4 2.5-1.5-.5-1.7 2.3.4 4.9Z"/><path id="EC-N" d="m366.6 164.4.5 5.6 1.8-.8 1.8.9 7.3.3.6-1.3 2.1-.8 1.3-1.8h1.3c0 .1.4 1.9.4 1.9h.9c0 .1.1.8.1.8l-1.3.8.2 2 3.6 1.1 2.7-1.6 1-1.2 1.1 8.5 1.3 1.1-4.5 3.5v2.9h-1.3l-.8 2.7h-1.9l-.5 1.3-2.4.5v-.8l-2.4-.3-1.3-1.6-2.1.3v2.4h-1.3l-1.6 1.3 1.6 1.1.8 1.9 1.9.3 1.1 1.3 1.6 4.8-2.1 1.9.8 2.1-.5 2.9-2.4 4 4 .3 1.9-.8 1.1-1.6 3.2-.5 5.3-2.4 6.4-6.9h2.4v2.7l-4.3 3.7v2.1l3.5 1.6 4.8.3v1.3l-2.4 1.1 2.9 2.4-2.1 1.1-2.4-.3.5 1.7 1.6 1.2v1.1l-1.6.2h-4.5l-5.1 1.1-2-.6v.7l-14.6 2.5-10.1 3.5-.6-1.5-2.7-.4v1h-.7l.2 3.8-12.4-.8v-.4l-1.7-5.1-1.6-.8-5.9.2v-5.7l-.9-1.3-2.7-.6v-1.4l-.8-4.5 1.5-.5.4-2-2.3-6.2h-.1c0-.1.9-1.8.9-1.8l3.8-1 .7-3.6 2.1-2 .9-2.4.5-2.7-.8-2.1 2.5-2.8 4.2-8.7 7.2-1.8 3-2.2.3-2.5 3.8-1.8.8-.6v-1l2.9-.2Z"/><path id="EC-O" d="m265.9 323.2 7.1 2.1v2.9l-2.1 2.8.4 2.4 3.5.9 2.6.3 1.6 2.3.6 2.4h1.5l.3 1.1v1.5c-.1 0-2.4 1.9-2.4 1.9l.4 1.4 1.2 1.7.9-.9 1.1.3 2.3 3.8-1.6 1.5-.8 1.8v3.5l-1 1.1-4.9-.6-2.2.6-2.1-2.5h-1.5c0 .1-2.5 1.3-2.5 1.3l-2.1 3.7-2.9.4-2.2-1.5-4.5-.4-7.5 3.1-4.1.9-1.2-1.3-1.8-6.1.3-5.2-2.7-11.1-4.2-1.9 2.5-2.6 1.1.5 6.5-.2 3.2-2.9 1.6-3.7 8-7.5h.2l5.8.1 1.6 2Z"/><path id="EC-P" d="M286.4 164.6v-3.3c.1 0 2.7-4.9 2.7-4.9l-1.8-1.5v-2.4h1.3l1.6-1.5.3-2.1 1.7-.5 3.3.7 1.5.6 3.9-.6.4 1.3 2.4.8 1 1.9 3 1 9.6-.5 5.3.7 11.2-1 1 .4 2.2 3.2 1.7-.4 1.8-2.4.5 3.5 1.5 1.6 5.3-.7.5-.9 4.4-1.8h2.7l2 1.5h1.2l2.4 2.3 2.3 3.7-.6 1.3h1.1v.9l-.8.6-3.8 1.8-.3 2.5-3 2.2-7.2 1.8-4.2 8.7-2.5 2.8.8 2.1-.5 2.7-.9 2.4-2.1 2-.7 3.6-3.8 1-.9 1.6-1.4-1.6-2.7-1.1-.8-3-4.7.5-3.9 3h-1.6l-.8-5.2-5.3-1.6v-2l-1.5-2.9-.6-.9h-1.1l-.4-3.8h-1v-.8h4.3l2.1-1.1.8-1.9 1.3-.5V176l-2.4-1.9h-4.8l-1.3-3.7-10.1-.5 2.1-2.4.3-1.6H290l-3.5-1.3h-.2Z"/><path id="EC-R" d="M293.5 274.6v-1c-.1 0-2.8-2.3-2.8-2.3l-1.2 1.2-1.8-1.5-2.3-4.1-5.4-5-2.3-.5-.5-.8h-2.3c0-.1-3.2 1.9-3.2 1.9h-1.6c0-.1-3.5-3.8-3.5-3.8l-2-5.6-3.5-1-1.4-3.3.7-2.6-.7-6.9.7-3.4 4.7-5.1 1.7-5.6 1.8-2 8.3-4.6.4-1.7 2.2-1.4-1-3.7 1.1-3.3-5.2.2-.3-4.4 1.7-2.3 1.5.5-.4-2.5.5-1.2 2.2-1.4.6-3.9h.2l1.2.1 1.6-1 3.7.3-.6 6.2.3 1.3 1.8.4 10.2-7.8 1.6 1.5-5 9.1v1.8c-.1 0-5.9 7.5-5.9 7.5l.2 2.3.9.9-2.4 3.9v2.1l1.4 1.8.3 2-.9 1.2-6.1 4.5 2.3.6 2.1-1.1 2.7 1.1-.6 3.5-1.3.4-.3.9.2 1.1-2.3 1 .3 1 2.6.7.5 2.6 2.5.4-1.1 2.9-3.3 1.5.3 1.1 2.8.6.5 3.6 2.9.4-.3 1-2.4.8.6 5.1-1.5 3.1 2.8 5.7 3.1 1.6v.6l-.6 3.4-1.5-.7Z"/><path id="EC-S" d="m336.9 243 4.4-.2 4.3-1.9 1.4-1.9.7.3 4.1 3.5.5 3.2 2.1 4.4 3.5-.8 1.3.8 1.2 2.1v1.8l2 .7 1.5 7.1-.3 1 6 5.7 18.2 7.1 4.9 4.7 7 4.7 2.5 5.3 1.9 1.6.3 1.9 2.4 2h5.4c0-.1 1 1 1 1l1.6-1.7 1.8.3 1.2 1.7 6.9-.5-65.7 23.4-5.6 5.9-1.4 2.5h-2.8v3.6l-4.3 3-.8 1.3 2.3 4.6 1.6 1.3-1.1 2.3-2.1-.9-2.7.6-.3-4.7-2-.9-2.3 1.4-.4 5.3-10-.5-.3 1.9-4.5-1.3-1.3 2.4-3 .6-1.3-1.3-3.2-.2-3-2 .7-6.4-1.9-2.1-2.9-.3-1.6-1.2h.2c0-.1.3-2.3.3-2.3l5.8-2.1 2.3-4.7 1.6-1.4 2.6-.5 2.4-2.3.8-7.3 3-3.7.3-1.7-1-.9-.3-1.6.4-1.6 2.1-1.9 6.7-1.5v-2.4c.1 0-2.8-1-2.8-1l-1.1-.5 1.4-1.5.6-5.2-.6-4.3-2.6-2.6.4-.5 1.7-1.8-.4-1.4 1.6-.9v-2.4c-.1 0-1.8-2.9-1.8-2.9l4-1.1-.3-3.2.6-1.8-3.4-2 2.3-2 2.5-3.9-.3-2.4-2.6-3.3 5.1-5 .9-1.8v-4.5Z"/><path id="EC-SD" d="m286.6 164.7 3.5 1.3h10.4l-.3 1.6-2.1 2.4 10.1.5 1.3 3.7h4.8l2.4 1.9v2.4l-1.3.5-.8 1.9-2.1 1.1h-4.3v.8l-1.4.8-4.3 5.3v1.3l2.1 2.5-1.5.5v2c-.1 0-2.9-.3-2.9-.3l-1.8-1.8-10.2 7.8-1.8-.4-.3-1.3.6-6.2-3.7-.3-1.6 1h-1.2c0-.1-1.3 0-1.3 0l3.4-6.5 1.8-.9-.4-9.6-1.6-2-6.9-.8-1.7-6.4v-2l3.8 1.4h5.6l1.9-2.7 1.9.5Z"/><path id="EC-SE" d="m210.8 250.9 2.1-.7 7.3.2.7-.8h1.8l1.1.4v1.7h3.3l.3 7.5 1.9 4.5 4.8 1.3 2.4 1.9.5 2.4 3.2.8.3 4 1.9 2.1-2.1 6.1-8.5 2.1-2.4 3.2-3.5 1.3-3 3.4-5-4.9-5.2-.8-5.4-3.1-4.3-5.3v-1.6l2.6 1.1 3.6-1.6 3.4-2.5 1.7-2.5 1.1-8.3-2.1-7.7-2.4-4.3Z"/><path id="EC-T" d="m335.2 216.3 2.7.6 1 1.3v5.7l5.8-.2 1.6.8 1.7 5.1v1.6h-.1l.9 2.7-.6 2.1-2.3 2.7 1 .4-1.4 1.9-4.3 1.9-4.4.2v.3l-5.4-2.3-2.4.4-3.7-1.1-4.2.2-.9 1.1h-1.4l-3-3.2-2.6.2-2.4 3.2v-1.1c-.1 0-2-2-2-2l-1.7-5.2 1.9-1.8 1-5.1 2.8-1.6 3-1.4 4.1.3 5.9-1.6.9-2.7 2.6.6.7 1h2l2.9-3.8.2-1.3Z"/><path id="EC-U" d="m494.2 199.1-5.9-2.4-.4-1.2-7.4-.6-.5-1.4-2.6-2.4-3.9-.8-6 .2-2-1.6-2.1-.6h-2.5v5.9l.9.6v1.1l-4.4-.8v-1.3l-2.3-1.1-1.6-3.3-10.5.3-3 2.8h-1.8l-5.4-2-3.3-3.8-3.6.3-1.8-2.3-4.2-2.3-9.7-12.6-2.3-.3-3.5 1.8-5.4-1.3-2.1.2-4.7-1.9-1.2 1.9-1 1.1-2.7 1.6-3.6-1.1-.2-2 1.3-.8v-.6c-.1 0-1-.1-1-.1l-.4-1.8h-1.3c0-.1-1.3 1.6-1.3 1.6l-2.1.8-.6 1.3-7.3-.3-1.8-.9-1.8.8-.5-5.6-4 .3.6-1.3-2.3-3.7-2.4-2.3h-.9l.5-1.2 3.7-1.9.7-4.8 1.4-.7.8-2.1.8-3.4 4.9-6 .8-2.9 1.5-1.6 1.6.2 1-1.1 5.6 3.2 1.3 1.9-.8 2.8 1.3 6.1 3.6 1.9 1.7-1 5.6 1.3 4.7-1.2 2 .7 1.5 3.5 9.8 2.6 2.8.3 1.1-.7 3.2-.2.5-1.2 5.5.9 2.2 1.4 3.1-1.3h1l.5.9 3.1-.8 2.3.6.5-7.8 1.3-1.2 4-.9 2.8 1.8 5.2.6 1.5 2.4h2.6l1.6.8 4.5 6.4 7 6.1 2.3 1 8 .3 2.6 2.4-.3 1.1 2.6 1.4 4.9 2.1 5.5 1-.8 1.9-2.4.5-.5-.9-.5 1.1-1.8.3-4.1-1.8h-6.9v7.1l4.6 3.6 3.8-.2 3.7 6.1h1.3l1 1.5 1.9.2.8 1.2 1.8.8.5 5.2-1.9 1.3Z"/><path id="EC-X" d="m312 225.5-4.2-.8-1 1.8-2.9.2-2.3-.5-1.8-2h-2.4c0-.1-3.8.6-3.8.6l-2.3 1.8h-1.4l-.4-.6-.3-2-1.4-1.8v-2.1l2.4-3.9-.9-.9-.2-2.3 5.8-7.5v-1.8c.1 0 5.1-9.1 5.1-9.1l.2.2 2.8.3v-2c.1 0 1.6-.5 1.6-.5l-2.1-2.5v-1.3l4.3-5.3 2.4-.8.4 3.7h1.1l.6 1 1.4 2.9v2l5.4 1.6.8 5.2h1.6l3.9-3 4.7-.5.8 3 2.7 1.1 1.5 1.8 2.3 6.2-.4 2-1.5.5.8 4.5-.2 2.7-2.9 3.8h-2l-.7-1-2.6-.6-.9 2.7-5.9 1.6-4.1-.3-3 1.4-.8.5Z"/><path id="EC-Y" d="m424.4 296.7-6.9.5-1.2-1.7-1.8-.3-1.6 1.7-1-1.1h-5.4c0 .1-2.4-1.9-2.4-1.9l-.3-1.9-1.9-1.6-2.5-5.3-7-4.7-4.9-4.7-18.2-7.1-6-5.7.3-1-1.5-7.1-2-.7v-1.8l-1.2-2.1-1.3-.8-3.5.8-2.1-4.4-.5-3.2-4.1-3.5-1.7-.6 2.3-2.7.6-2.1-.9-2.7v-1.3l12.4.8-.2-3.8h.6l.1-.9 2.7.4.6 1.5 10.1-3.5 14.7-2.5v-.7l1.9.6 5.1-1.1h4.5l4.8-.5 1.1 1.3 2.7-.3 2.4 2.7 2.1.3.5-3.5 11.6-2.8 1.5 1 2.9.2.6 1.1-1 5.7 4.3 3.4 3.1-.4 1.5 2.4 3.3.6 8-1.5 12.1 3.7.7-.8 2.4 1.1 1.1 2.1h3.5l1.3 1.4.3 1.8 3.4 2 3.5-.4-.2 3.2-24.9 29.2-28.9 22.8Z"/><path id="EC-Z" d="m304.5 334.9 1.6 1.2 2.9.3 1.9 2.1-.7 6.4 3 2 3.2.2 1.3 1.3 3-.6 1.3-2.4 4.5 1.3.3-1.9 10 .5-.6 8.5-.8 2-6.6 8.7-.8 3-1.3.3-.4 3.3-1 .7-1.1 3.2v5.7l-3.1 3.4.5 8.8-5.4 8-5.3 1.5-3.2 2.5-1.4 5.7-3.4 4.7v2.5l-3 1.3-2.1-1.4-8.6.2-1.9-3.7-2.7-.8v-2.7h-2.4l-1.2-1.4-1-5.3 2.2-.3v-1.1l3.4-5.7.3-2.8 3-1.8h1.8c0 .1.3 1 .3 1l1.3.4 4.8-6v-10c-.1 0-2.3-3.3-2.3-3.3l.8-3.5.4-11.6-1.9-2.7-.6-3.5 1.8-2.5 1.5-.3 1-1.5h-.1c0-.1 1.9-1.4 1.9-1.4l-.9-3 1.5-3.1-.8-2.9 3.7-3 1.5-.9Z"/></g></g></svg>