<?xml version="1.0" encoding="UTF-8"?>
<svg id="Layer_1" xmlns="http://www.w3.org/2000/svg" xmlns:amcharts="http://amcharts.com/ammap" version="1.1" viewBox="0 0 512 512">
  <!-- Generator: Adobe Illustrator 29.1.0, SVG Export Plug-In . SVG Version: 2.1.0 Build 142)  -->
  <g id="_x3C_defs">
    <amcharts:ammap bottomLatitude="1.164724" leftLongitude="-61.414905" projection="mercator" rightLongitude="-56.491120" topLatitude="8.546628"/>
  </g>
  <g>
    <path id="GY-CU" d="M283.4,118.8l3.1-24.2-20.1-21-20.6,16-3.8,28.7,20.9,17.7,20.5-17.3Z"/>
    <path id="GY-ES" d="M348.5,164.7l-25.6-28.5-13.8,41.5,28.8,13.4,10.6-26.4Z"/>
    <path id="GY-DE" d="M280.9,134.5l4.5-9.2-4.4,4.2v5ZM300.4,174.3l5.5-44.8-17-2.8-9.5,25.8,20,23.5,1.1-1.7ZM288.5,123.6l7-4-5.6-.4-1.4,4.4ZM277.4,149.5l.9-19.6,5.1-11.1-20.5,17.3,1,11.5,13.1,3.3.4-1.4ZM286.2,122.4l2.8-6.7-4.5,8,1.7-1.3Z"/>
    <path id="GY-EB" d="M322.8,136.2l-16.9-6.7-5.5,44.8-1.1,1.7,9.7,1.7,13.8-41.5Z"/>
    <path id="GY-PM" d="M221.2,118.1l-23.4-13.4-33.7,2.6-1.9,14.1-49,14.6.5,34.7-17.9,15.8,42.8,48.7,42.4,3.1,55.3-36,10.6,12.7,15.2,6.2,14.5-10.9,1.4-54.8-1-4.7-13.1-3.3-1-11.5-20.9-17.7-20.7-.2Z"/>
    <path id="GY-BA" d="M185.5,14.8l12.5,20.6-58.7,47.4,7.4,22.7,17.6,1.8,33.7-2.6,23.4,13.4,20.7.2,3.8-28.7,20.6-16L185.5,14.8Z"/>
    <path id="GY-UT" d="M261.7,497.2l21.7-5.1,1.1-12.2,37.3-93.4-33.3-89.2-28.7,16.4-24-9.8-14.4-3.3.2-19.7-14.4,8.5,10.4,28.2-21.8,23.4-8.9,57.9,16.8,28.1-1.1,26.2,59.1,43.9Z"/>
    <path id="GY-UD" d="M299.3,176l-20-23.5-1.4,3.2-1.4,54.8-14.5,10.9,3.3,42.5,33.4,8.6,14.1-1.3,24-45.4,1-34.6-28.8-13.4-9.7-1.7Z"/>
    <path id="GY-PT" d="M247,215l-10.6-12.7-55.3,36,7,6.4-11.6,34.6,30.8,10.2,14.4-8.5-.2,19.7,14.4,3.3,24,9.8,28.7-16.4,10.3-25-33.4-8.6-3.3-42.5-15.2-6.2Z"/>
    <path id="GY-MA" d="M366.3,216.6l5.2-39.3-23-12.6-10.6,26.4-1,34.6-24,45.4-14.1,1.3-10.3,25,33.3,89.2-37.3,93.4,61.3-16.6,15.8-17.5,54.6,2.3-14.6-5.7-32.4-53.3-6.9-35.8-22.6.3-25.2-41.3,8-52.7,41.6-12.8,2.1-30Z"/>
  </g>
</svg>