<svg xmlns="http://www.w3.org/2000/svg" xmlns:amcharts="http://amcharts.com/ammap" id="Layer_1" viewBox="0 0 512 512"><g id="_x3C_defs"><amcharts:ammap bottomLatitude="-27.582" leftLongitude="-62.638" projection="mercator" rightLongitude="-54.259" topLatitude="-19.288"/></g><g><path id="PY-7" d="m366.4 497.1 13-16.9 19.7 8.7 8.7-6.9-.4-9.6 9.8-11.2 14.7-1.6 11.6-16.7 6-.8 7.6-25.1-12.1-5.7-7.2 5.6-11.2-2.3-2.9-6.8-9.3 12.1L386 433l-5.5 9.4L364 449l-8.6-3.2 2 23.8-8.2 8.1 2.6 11.8 14.4 7.7Z"/><path id="PY-14" d="m473.5 327.8 5.1-21.8-3.9-12.3 4.8-5.7-21-14.4-16.2 9.6-22.6 1.2-8.9-26.7-3.4 7.3-24.6 11.2 3.6 10.2-8.2 6.9-.6 7.1 21.6 30.5 12.2-13.3 15.7-3.1 7-1.7 16.2 11.5 23 3.7Z"/><path id="PY-6" d="m423.8 407.6 3.1-3.6-14.7-2.9 5.9-21.2-4.9-3.6-7.2 5.6-21.8 14.4-3.5 7.4-13.9-.5-12.1 9.8-10.5 21.7 11.3 10.8 8.6 3.2 16.5-6.6 5.5-9.4 28.4-13.1 9.3-12.1Z"/><path id="PY-5" d="m413.2 376.4 14-19.1 14.8 6.3-3.3-8.8-17-13.4 5.4-26.8-15.7 3.1-12.2 13.3-10.6 3.5-5.1 7.6-10.2-11.1-13.8 14-3.7 19.3-13.4 9.7 3.6 8.3 5.3 3.4 15.3-7.8 39.1 4.3 7.2-5.6Z"/><path id="PY-10" d="m473.5 327.8-23-3.7-16.2-11.5-7 1.7-5.4 26.8 17 13.4 3.3 8.8-14.8-6.3-14 19.1 4.9 3.6-5.9 21.2 14.7 2.9-3.1 3.6 2.9 6.8 11.2 2.3 7.2-5.6 12.1 5.7 2.9-47.7 9.8-16.7 3.6-24.6Z"/><path id="PY-13" d="m410.9 257.7-4.8-51.7-12.7-20.1-18.8-.8-11.1-11.6-12.1 10.9-3.5-2.8-6.8 4.2L355 190l-7.5 9.9 1.5 20 22.5-9.9 7.7 20.3-9.3 16.3 12-.5 1.7 5.7-5.5 5.3 3 5.5 8.4-4.7-6.7 18.3 24.6-11.2 3.4-7.3Z"/><path id="PY-9" d="m346.2 382.2-8.2.3v-7c-.1 0-10-.8-10-.8l-3.9-6-12.8 15.3-5.4 19.4 1.4 9.3-12.2 14.6 18 12.4 9.6-2.3 7.9-10.6 13.6 8.1 10.5-21.7-3.2-27.6z"/><path id="PY-12" d="m305.9 403.3-10.3-11.8-6.5 2.2-2.8 9.5-14.8 10.2-1.5 27.9-7.3 13.3-8.5 3.8-9.7 14.8 2.9 7.9 31-3.4 37.9 10.2 6.1-20-12-3.1-10.6-13.5-4.6-24.2 12.2-14.6-1.4-9.3Z"/><path id="PY-8" d="m344.2 434.8-13.6-8.1-7.9 10.6-9.6 2.3-18-12.4 4.6 24.2 10.6 13.5 12 3.1-6.1 20 10.7 3.7 10.9-4.3 7.1 5.3 7.1-3.2-2.6-11.8 8.2-8.1-2-23.8-11.3-10.8Z"/><path id="PY-4" d="m406 382-39.1-4.3-15.3 7.8 3.2 27.6 12.1-9.8 13.9.5 3.5-7.4 21.8-14.4Z"/><path id="PY-11" d="m308.5 350.2-6.8 7.2-.8 10 1.2 9.5-9.5 6.4-3.5 10.5 6.5-2.2 10.3 11.8 5.4-19.4 12.8-15.3-15.6-18.4Z"/><path id="PY-2" d="m382.9 276.2 6.7-18.3-8.4 4.7-3-5.5 5.5-5.3-1.7-5.7-12 .5-14.9 6.5-46.1 1.3 1.1 8.3 8 6.6-3.6 11.2 9.6 11.3-3 6 6.9 26.7-8.4 12.6 1.9 5.7 8.2 2.9 18.9-7.2 11.2 6.3 13.8-14 10.2 11.1 5.1-7.6 10.6-3.5-21.6-30.5.6-7.1 8.2-6.9-3.6-10.2Z"/><path id="PY-15" d="m287.4 193.6-22.1-13-48.3-2.1-9.2-4.5 1.9 6.8-16 6.1-17.4 28.2-6.9 40.8-36.6 8.5-2 13.2 24 8.3 16.2-.5 65.3 45.1 50 18.1 10.6 12.1 4.7-3.3 6.8-7.2 12.9-7.3-1.9-5.7 8.4-12.6-6.9-26.7 3-6-9.6-11.3 3.6-11.2-8-6.6-1.1-8.3-2-11.7-16.3-14.6-.2-9.5-7.9-8.1 8.8-3.5-3.9-13.4Z"/><path id="PY-3" d="m359.6 344.9-11.2-6.3-18.9 7.2-8.2-2.9-12.9 7.3 15.6 18.4 3.9 6 9.9.8v7c.1 0 8.3-.3 8.3-.3l-3.6-8.3 13.4-9.7 3.7-19.3Z"/><path id="PY-1" d="m341.1 185.9-60.3-12 6.6 19.7 3.9 13.4-8.8 3.5 7.9 8.1.2 9.5 16.3 14.6 2 11.7 46.1-1.3 14.9-6.5 9.3-16.3-7.7-20.3-22.5 9.9-1.5-20 7.5-9.9-13.9-4.2Z"/><path id="PY-19" d="m207.9 174-31.8-2.5 4.6-32.8 8.3-7.7-8.5-36.4-110.3-36-18.8 29.3v27.8l-18.9 70.5L50.9 197l15.7 29.7 13.2 13.7 33.8 21.6 5.5 11.6 11.6 4 2-13.2 36.6-8.5 6.9-40.8 17.4-28.2 16-6.1-1.9-6.8Z"/><path id="PY-16" d="m280.8 173.9 8.3-64.6-5.2-2.7 2.9-4.2-4.3-2.2 4.4-3.1-6.6-2.7-.5-14.8-9.2-10.8V45.5l-48.3-30.6-49.9.4-92.3 19.3-10 24.1 110.3 36 8.5 36.4-8.3 7.7-4.6 32.8 31.8 2.5 9.2 4.5 48.3 2.1 22.1 13-6.6-19.7Z"/><path id="PY-ASU" d="m300.8 367.4.8-10-4.7 3.3 4 6.7Z"/></g></svg>