<?xml version="1.0" encoding="UTF-8"?>
<svg id="Layer_1" xmlns="http://www.w3.org/2000/svg" xmlns:amcharts="http://amcharts.com/ammap" version="1.1" viewBox="0 0 512 512">
  <!-- Generator: Adobe Illustrator 29.1.0, SVG Export Plug-In . SVG Version: 2.1.0 Build 142)  -->
  <g id="_x3C_defs">
    <amcharts:ammap bottomLatitude="-18.388935" leftLongitude="-81.390193" projection="mercator" rightLongitude="-68.672457" topLatitude="-0.035767"/>
  </g>
  <g>
    <path id="PE-AMA" d="M183.8,193.1l-2.6.8h0l-1.6.4h0l-.4-3.9-1.5-1.8-4.3-8.4-4.3-2.3-3.1-6-3-2.1v-1.8c0,0-2.9-2.5-2.9-2.5v-2.3l1.6-3.9.2-1.8.9-2.3,1.2-1.6v-2.3l-2.2-1v-.3c0,0-1.3,0-1.3,0l-1.8-1.9v-4.6l1.8-3.5.8-2.8-2.1-6.1h0l1.1-.8.4-2.1-.6-4.4.8-.7,2.1-4.8.3-3.1.6-1.7,3.5-4.4,1.4-8.1,1.2-.7,1.1.4.4,2.5,1.7-1.3.3-.5-.3-1-.9-1.4.4-.7,2.2-1.5,2.2-3.1,2.9-3,1.7-1.4,1.3-.5h0l1,4.2.2,3.5,1.3,2.5h0l1.1,2.4,1.1,5h0l-.2,2.8,2,3.5.4,4.4-.7,6.5.3,1.5-.2,1.5h0l-1.9,4.3h0l-2.2,2.6-.9,1.9-.5,2.8.3,2-1.7,1.9v1.8l2.7,2.2.5,2.2,1.8,3.8h0l-1.6,1.5-.4,1.3-.2,5.5.8,1.8,2.7,5.2,1.1,1.2,7.2,2.1,1.9,2.4,1.2,3.7-.6,1.1-3.1,2.5-1.4,3.3v1.1l-1.4,1.6-1.4.7-1.9-1.4-2.8-.2-1.4.2-1.4,1.2-1.3,5.8h0l.2.6Z"/>
    <path id="PE-ANC" d="M160.5,246.3l1.1-.2.7-1.6v-1.9c0,0,1.3-1.8,1.3-1.8l7.8-2.7,3.6-9.4,2.1-1.9,2.4-1.4,2.1-3.1,5.7-.9.9,2.9,1.9,1.8,1.5.7,4.3,6.9h0l1.8-.4h0l-.2,3.6,1.8,1.1v3.4c0,0,2.3,3.7,2.3,3.7l3,1.4,8.1,5.1v2.2c-.1,0-1,1-1,1l-3.3.4-2.7,6-1.3.2-.7,3.6h.8c0-.1,3,1.5,3,1.5l1.2,2.1.4,1.9v3.2c.1,0-1.9,2.3-1.9,2.3l.5,1.8-.8,2.6-.7.7h0l-5.1,2-.9,1.3-.5,2.3-1.7,1.8-4.8,4.1-2.1.8h-2.3s-.5-2.8-.5-2.8v-1.8c.1,0-1.6-1.2-1.6-1.2l-.4-1.7.2-.9.7-1,1.2-.8v-1.8c.1,0-1.1-.5-1.1-.5l-1.7.3-2.1,2-.4,3.9-.5,1.1-2,1.5h0l-.6-1.6-4-6.2-2.8-6.2-2.1-5.7.3-2-3.5-4.7-.6-2.5v-2.5c0,0-1-1.7-1-1.7l-1.2-.9-.9-4.2-3.1-2.7-.6-2.7Z"/>
    <path id="PE-APU" d="M322.9,398.7l-3.3.7-2.3-.2-1.8-.9h-.6c0,0-.8.8-.8.8l-1.5-.3h0l-2.1-.2h0l-1.9-1.1-.4.5-.6-.4-1.8.3-2.9,1.1h-2.3c0,.1-3,1.4-3,1.4l-1.1,1.2-1.4.8-1.3-3.4.3-2.5-.4-2.3-1.1-2.1,2.6-4.4v-1.3l-1.6-2.2-2.3-6.5-1.5-3,.2-.6h.9c0-.1.4-.6.4-.6l-1.4-2.2-1.4-.5-.5-1-1-6.6.5-2.4.7-1.5.5-.2.7.4.5,1,6.6,4.9,4.3-.9.4-1.5h0l.4.5h0l1.4,1.1,6,.2,2.7-.4,2.6.9,5,3.1,5.7,2.9,3.2,1.1,1.5,1,1.8,1.9,1.7,3.2.3,1.2v3.4c0,0-1,3.3-1,3.3l-.4.8-2.9,2.7-.8,1.8-5.1,2.5-.7.8-.3.7.6,1.3v1.7Z"/>
    <path id="PE-ARE" d="M365.9,434.3l-.4,7.1-2.2,2.6-.3.6.2,1.4-1,.4-1.8-.5-3.2-2.1h-1.2l-.6,1,2.5,2.8-1.6.7-2.5,3.5.3,1.6-.3,1.4-1.5.6-1.7,1.4-.5,1,.2,1.6.9,1.9,1.7,2.2-.8,2.9-3,1.8-2.6.8h0l-2.7-1.1-3.9-.9-1.4-1-1-1.5-5.3-3.1-2.8-2.1-3.5-3.9-2.5-1.4-4.1-1.3-3-.2-1.6-.5-3-2.4-8.7-3.6-2.1-1.8-2.4-1.2-11.3-3.9-4.3-3.5-1.2-1.7-3.3-1.8-5.9-1.9-1.3-.9-1.1-2-15-7-1.3-1.3h0l1.4-4,2.1-2.6,3.7-2,2.7-.3h0l.7,1.3,6.1,1.5,1.5,4.6,3.8,3.4,1.6.2,2.6-1.3.8,4.3h.9s1-.6,1-.6l.2-2.3,1.8-3.9,4-1.9v1.5c-.1,0,.6,1.9.6,1.9l1.1.6,3.5-.4,3.2-1.6,1.6.6,1.2-.6,1.8-2.8,2.3-.6,2.9-4,.8-1.9-.4-3.9.5-1.8.8-1.4,2.5-.8.4-1.7h.8c0,0,1.5.4,1.5.4l.8-.8h.6c0,0,1.8.8,1.8.8l2.3.2,3.3-.7h0l-.2,1.2.3.8,2,2.3,2.2.4,2.8-.6,2.7,1.1.5.6h.7s.7-1,.7-1l.4-2.6-.6-1.2.4-.8h.7s4.2,5.1,4.2,5.1l-.4,5.3,5,1.7,4.1-2.1v-.6s2.8.8,2.8.8l2.4,2h.6c0-.1,1-1.2,1-1.2h1.1s0,6.7,0,6.7l1.7,1.9,1.7.4,1.8-.2h0v1.5h0l.3,2.8,3,3.5-1,2.8,1.4,2.3,1.3,1.4-.4,1.7Z"/>
    <path id="PE-AYA" d="M311.8,398.7l-.4,1.7-2.5.8-.8,1.4-.5,1.8.4,3.9-.8,1.9-2.9,4-2.3.6-1.8,2.8-1.2.6-1.6-.6-3.2,1.6-3.5.4-1.1-.6-.7-1.9v-1.5c.1,0-3.9,1.9-3.9,1.9l-1.8,3.9-.2,2.3-1,.5h-.9s-.8-4.3-.8-4.3l-2.6,1.3-1.6-.2-3.8-3.4-1.5-4.6-6.1-1.5-.7-1.3h0l.9-2.1v-2.8s-1.8-1.7-1.8-1.7l-3-5.9-.8-1.1-1-.4-.9.9h-2.9s-1.1-3.1-1.1-3.1l-.4-2.9.7-1.7.5-7.9h.2c0,0,1.1,0,1.1,0l2.3.7,2.9-.8,1.5-3.9.2-4.8-.3-1.2.3-1.9-2-2.6-1.7-1.1.9-2.9,2.7-.8.8.5.8-.4,2.9-3.4,3.6-2.1,1.2-2.5,2.1-.7,1.3-.9-.6-1,.2-.8-.5-2.7-2.2-8.5-.4-.5h-.6c0,0-.3-1.1-.3-1.1l-1.6-1.9.9-2.4h1.7c0,.1,2.1-1.6,2.1-1.6h0s1.2-.1,1.2-.1l2.1,1.5,2.2.4,1.7-.3,1.1-.7h2.6c0,.1,0,1.4,0,1.4h0l3.8,8.1,1.4,1.6.4-.3,1.4,1.3,1.4,3,1.9,1.3,2.9,5.9.7,2.8,3,4.4v.7h-.1,0s-.4,1.6-.4,1.6l-4.3.9-6.6-4.9-.5-1-.7-.4-.5.2-.7,1.5-.5,2.4,1,6.6.5,1,1.4.5,1.4,2.2-.4.4h-.9c0,.1-.2.8-.2.8l1.5,3,2.3,6.5,1.6,2.2v1.3l-2.6,4.4,1.1,2.1.4,2.3-.3,2.5,1.3,3.4,1.4-.8,1.1-1.2,3-1.2h2.3c0-.1,2.9-1.2,2.9-1.2l1.8-.3.6.4.4-.5,1.9,1.1h1.2Z"/>
    <path id="PE-CAJ" d="M159.3,131l2.1,6.1-.8,2.8-1.8,3.5v4.6l1.8,1.9h1.2c0,0,0,.4,0,.4l2.2,1v2.3l-1.2,1.6-.9,2.3-.2,1.8-1.6,3.9v2.3l3,2.5v1.8c0,0,2.9,2.1,2.9,2.1l3.1,6,4.3,2.3,4.3,8.4,1.5,1.8.4,3.9h0s3.4,7,3.4,7l1.1,2.9.4,2.5-3.6,4.1-.9.3-.4.9-1.3.3-1-.9-1.6-.5-1.8,1.6-3.6,1.6-.3-1.4-1.1-.7v-3.7c-.1,0-1.5-.9-1.5-.9l-4.2.7-1.6-.5-.5-2.1-1.8-1.2-3,1.6-3,3.2-1.6.7h-1.5c0,0,0-.9,0-.9l-1.1-2.2-2.4-2-2.5-.7-.8-2.1v-1.6l-.5-.7-.3-5.2h0l.6-.2.2-.9v-2.2s1.7-.8,1.7-.8l2.2-2.2v-1c.1,0-.2-.6-.2-.6l-3.7-.7-3.5-4.2-.3-4.1,1.7-1.7,1.2-.5h1.7c0,.1,1-1.9,1-1.9l.9-4.3-.2-.5-2.5-1.1-.9-1.7h.1c0,0-1.3-2.5-1.3-2.5l-.5-2.2.5-4.2,1.6-1.9h.6c0,0-.1-4.3-.1-4.3l-.9-1.3-.9-3.2,2.2-3.1,2.1-2.2h0l3.5.3,1,.7h.7c0-.1,2.8-3.5,2.8-3.5l.3-3.3,1.1-1.7,2.2-1.7,2.1-.8Z"/>
    <path id="PE-CAL" d="M199.4,319l2.7.2v4.8c.1,0,2.3,3.6,2.3,3.6l.4,1.4-1.3,1.9h0l-1.6-1.5-2.3-.6.9-1.9-.3-2.8-.9-2.4.3-1.8-.3-.8Z"/>
    <path id="PE-CUS" d="M311,308.5l2.8,1.7,3.7.4,1.8.8h0l1.3.3,2.9-1.5h0l1.5-1.3,3.3-1h0l-.5,5.5-1.2,2.1-2.6,2.9,2.3,2.9-.2,1.1.8,1,.5,2.9,4.7,2.9,1.5,2.1.8,1.9,2.1,1-.7,1.4.3.2-2.8,2.3,2.8,3.6.4,4.1,1.5,1.1h1.1l8.1-1.7,3,4.3,2.2,1.5,4,1.1.6,1.3,1.3,5.8,1.2.3,1.7-1.1,2.4-2.1.4-1.2,1.1-.4,2.1.8,3.2.3,2.6.8h1.8c0-.1,2.1.3,2.1.3h0l-.3,3.9h0v2.9c-.1,0-5,5.4-5,5.4l-4.7,6.1-2.2,1-.4,3.6.6,2.5-.8,5.1-2.3,4.5-1.1,4.3-1.8,1.2-.7,1.1,2,2.7.7.2,1.2,1.8.5,2.8-1,2,.2,2.9.7,1.1.3,2-.2,2.3-1.2.7v1.2h.1v.7h0l-1.8.2-1.7-.4-1.7-1.9v-6.7c0,0-1,0-1,0l-1,1h-.6c0,.1-2.4-1.9-2.4-1.9l-2.7-.8v.6s-4.1,2.1-4.1,2.1l-5-1.7.4-5.3-4.2-5.2h-.7s-.4.9-.4.9l.6,1.2-.4,2.6-.7,1h-.7s-.5-.5-.5-.5l-2.7-1.1-2.8.6-2.2-.4-2-2.3-.3-.8.2-1.2h0v-1.7c0,0-.5-1.3-.5-1.3l.3-.7.7-.8,5.1-2.5.8-1.8,2.9-2.7.4-.8.9-3.3v-3.4c0,0-.2-1.2-.2-1.2l-1.7-3.2-1.8-1.9-1.5-1-3.2-1.1-5.7-2.9-5-3.1-2.6-.9-2.7.4-6-.2-1.4-1.1h0l-.4-.5h0v-.7c.1,0-2.9-4.4-2.9-4.4l-.7-2.8-2.9-5.9-1.9-1.3-1.4-3-1.4-1.3-.4.3-1.4-1.6-3.8-8.1h0v-1h0l2.8-.7h3c0,.1,2.2,2.8,2.2,2.8l5.9-4.5,1.2-1.7-3.2-6.3-2.2-.9-.4-2.2,1.2-5.3,1.4-1.9,1.5-3.6h0l.6.2,6.7-.9,5-1.5h0l.8,1.8Z"/>
    <path id="PE-HUC" d="M206,281.3l.7-.7.8-2.6-.5-1.8,2.1-2.3v-3.2c-.1,0-.6-1.9-.6-1.9l-1.2-2.1-3-1.6h-.8c0,.1.7-3.4.7-3.4l1.3-.2,2.7-6,3.3-.4.8-1v-2.2c.1,0-8-5.1-8-5.1l-3-1.4-2.4-3.7v-3.4c0,0-1.7-1.1-1.7-1.1l.2-3.6h0l1-.2h0l2.1-1.4h0l1.4,2.1,1.1-.2.7.9h3.7v-.5c-.1,0,3.2-.6,3.2-.6l1.8.5,2.5-.9,3,1.4,1.8-3,1.1.5v-.3s2.1,1.3,2.1,1.3l3.4,6.9,1.3.2.9-1.1-1.2-7.7,2.3-2.3,2.5-.9h0l.9,1.4h0c0,.1-.5,2.4-.5,2.4h0l-.2,3.5h0l.6,1.6v2.1h0l-.4,2.5.8,3,2.4,5.3,4.5,7.2,1.4.4,4.3-2.6,1.5.4,2.1-.6,2.5-2.3v-2.8c-.1,0,1.2-1.7,1.2-1.7l.5-2.7,3.6-.6.7,1.4h1.2l.7-1.2v-1.8c.1,0,1.7-4.8,1.7-4.8l3-1.2,3.4.2,1.1.9.5,2.5-1.3.8-1.5,3-.4,2,.5,2v2.7l1.1,1.4.6,2.1h0l-1.1,1.4-.5,1.9h0l-3.5,3.9-.5,1.9-1.8,1.9h-1.7c0,.1-2.2,1.5-2.2,1.5l-.4.8h-.5s-1.9,1.7-1.9,1.7l-1.8-1.9-.9-.5h-1.7c0-.1-4.6,3.4-4.6,3.4h-.9c0,.1-5.3,4.5-5.3,4.5l-2.6,4-1.5.6-.7,1.1-1.4.5-1.1,3.7-8.4-1.5-1.2-.5-1.4-1.4h-1.9c0-.1-2.1.5-2.1.5l-3.9,2.6-2.3.6h0c0,0-1.6-.7-1.6-.7l-.5-1.8-.6-.4-1.2.3-.7-.4-.3-1.2Z"/>
    <path id="PE-HUV" d="M273.7,332.1l-2.1,1.7h-1.7c0-.1-.9,2.3-.9,2.3l1.6,1.9.3,1h.6c0,0,.4.6.4.6l2.2,8.5.5,2.7-.2.8.6,1-1.3.9-2.1.7-1.2,2.5-3.6,2.1-2.9,3.4-.8.4-.8-.5-2.7.8-.9,2.9,1.7,1.1,2,2.6-.3,1.9.3,1.2-.2,4.8-1.5,3.9-2.9.8-2.3-.7h-1.1c0,.1-.8-.1-.8-.1h-1.9l-1.1.5-1.8-.2-2.2-1.2-.6-1-2.8-1.3-.8-1.4v-2.6c-.1,0,.7-1.6.7-1.6l-.6-3.2,1.2-1.2.7-1.4v-3.1s-.8-.8-.8-.8h-1.7c0,.1-2.4,2-2.4,2h-2.9c0,.1-.6-.5-.6-.5h-.9s-.8-1.1-.8-1.1l2.2-3.4.6-5.2h0v-.8c0,0,1.6-.7,1.6-.7l2.2-4,1-1-.4-1.2.8-3-.4-.3h0c0,0,2.1,0,2.1,0l8.8-8.3,2.6-4.1.3-3.2,1.5-1,3.5-.5h5s.7.4.7.4h2.1l3.7.8,1.5,1.4.4,1.8-1,.3h0l.7,1.2Z"/>
    <path id="PE-ICA" d="M223.7,360.8l1-.8,1.1-2.5,5.1-3.7,1.7-.7,1.5.6h2.6l.2.7h.1s-.6,5.2-.6,5.2l-2.2,3.4.8,1.1h.9s.6.6.6.6h2.9c0-.1,2.4-2,2.4-2h1.7c0-.1.8.7.8.7v3.1s-.7,1.4-.7,1.4l-1.2,1.2.6,3.2-.8,1.6v2.6c.1,0,.9,1.4.9,1.4l2.8,1.3.6,1,2.2,1.2,1.8.2,1.1-.5h1.9l.6.2h0l-.5,7.9-.7,1.7.4,2.9,1.1,3h2.9s.9-.9.9-.9l1,.4.8,1.1,3,5.9,1.8,1.7v2.8s-.8,2.1-.8,2.1h0l-2.7.3-3.7,2-2.1,2.6-1.4,4h0l-3.4-5.3-1.7-1.8-2.6-1.9-3.3-4.8-8.4-4.9-2.5-2-.2-2.1-1.1-2.8-2.7-2.6-1.4-3.9-1.7-1.5-2.7-1.3.2-6-2.3-1.1.4-1.4,1.1-.4.7.4.8,1.1,1.9-5.7.5-4.8-2.1-3.9v-1.3Z"/>
    <path id="PE-JUN" d="M217.5,301.7l1.6-.2,1.5.4.5.9h.7c0,0,1,.6,1,.6l1.8-.3,1.4-1.4,1.9.3,1.9-.8.6-1.4-.3-1.2h-2.2c0,.1-.2-1.3-.2-1.3l.3-1,1.8-1.1h1.4c0,.1,1.2,1.1,1.2,1.1l4-.8,6.3-2.9h.7l1.9,2.2h2.5s1.3-.4,1.3-.4l.5-.8,3.3-1.8,1.8-.3,2.1.5h1.3c0,0,8.3,4.3,8.3,4.3h3.2s.7,3.2.7,3.2l1.8.7h7c0-.1,3.1-.7,3.1-.7l1,3.7,2.6.5,1.2-.7.6-1.8v-5c0,0,1.4-2.5,1.4-2.5l3.4,1h0l1.9,2h0l.4,4.3,1.5.4,1.1,1,.6,4-.2,2.5h0l-1.5,3.6-1.4,1.9-1.2,5.3.4,2.2,2.2.9,3.2,6.3-1.2,1.7-5.9,4.5-2.2-2.6h-3c0-.1-2.8.6-2.8.6h0v-.2h0-2.6c0-.1-1.1.6-1.1.6l-1.7.3-2.2-.4-2.1-1.5h-1.2c0,.1-.7-1.1-.7-1.1h0l1-.3-.4-1.8-1.5-1.4-3.7-.8h-2.1l-.7-.4h-5s-3.5.6-3.5.6l-1.5,1-.3,3.2-2.6,4.1-8.8,8.3h-2.1l-.2-.6h0l-.5-1.4v-3.4c-.1,0,.4-2.7.4-2.7l-1.7-3.1.5-1.3-.2-.8-.6-.4v-2.7c0,0-4.8.3-4.8.3l-5.6-1.9-2.3-3.1-1.6-1.6-.6-4.8-.6-.4h-1.5c0,0-1.2-.4-1.2-.4l-.9-1.5-2.5-5.1-.3-3.3.2-2.6h0l-.2-.6Z"/>
    <path id="PE-LAL" d="M183.9,193.5l4.6,6.2-.8,2.1v1.4c.1,0,1.2,2.7,1.2,2.7l1.1.7,1,9,2.2.4,1,.8.7,4.6,3.1-1.2,2.1-.2,1.6,1.2,2.8.5,2.3,3.5.7,2.5-.6.3.2,1.4-5.4,1.3-1.2,1.2h0l-2.1,1.4h0l-2.8.6h0l-4.3-6.9-1.5-.7-1.9-1.8-.9-2.9-5.7.9-2.1,3.1-2.4,1.4-2.1,1.9-3.6,9.4-7.8,2.7-1.3,1.8v1.9c0,0-.6,1.6-.6,1.6l-1.1.2h0v-1.1s-1.6-2.6-1.6-2.6l-1.2-6.4-4-4.5.2-1.2-2-4-4.8-5.1-3.7-2.7-1.4-1.9-1.5-2.5-.7-2.6-3.4-5.1v-1.7c0,0-1.3-3.7-1.3-3.7l-1.9-2h0l4.4-4.6,1.7-1.3,2.6.6.9.7h0l.3,5.2.5.7v1.6l.8,2.1,2.5.7,2.4,2,1.1,2.2v.8s1.5,0,1.5,0l1.6-.7,3-3.2,3-1.6,1.8,1.2.5,2.1,1.6.5,4.2-.7,1.4.9v3.7c.1,0,1.2.7,1.2.7l.3,1.4,3.6-1.6,1.8-1.6,1.6.5,1,.9,1.3-.3.4-.9.9-.3,3.6-4.1-.4-2.5-1.1-2.9-3.4-7h0l1.7-.4h0l2.6-.8h0v.4Z"/>
    <path id="PE-LAM" d="M135.9,165.6l.7.9h0l.9-.2h0l1.9.7.4.8h0l.6-.3h0l2-1.6h0l.9,1.7,2.5,1.1.2.5-.9,4.3-1,2h-1.7c0-.1-1.2.4-1.2.4l-1.7,1.7.3,4.1,3.5,4.2,3.7.7.3.6v1c-.1,0-2.3,2.2-2.3,2.2l-1.7.8v2.2s-.3.9-.3.9l-.6.2h0l-.9-.7-2.6-.6-1.7,1.3-4.4,4.6h0l-.2-1.7-.4-.7-2.3-2.8-3-2.5-1.3-3.2-3.6-3.2-8.8-4.5-4.1-3h0l3.2-4.6.9-2.3,2.6-3.1,1.1-.9,3.3-1.1,3.2-2.5,2.1-3,.2-2.1.7-1.8,4.1,3.1,1.8,3.9,1.1.5h0l1.6.8.6,1.2Z"/>
    <path id="PE-LIM" d="M217.8,302.3l-.2,2.6.3,3.3,2.5,5.1.9,1.5,1.2.5h1.5c0,0,.6.4.6.4l.6,4.8,1.6,1.6,2.3,3.1,5.6,1.9,4.7-.3v2.7c0,0,.6.4.6.4l.2.8-.5,1.3,1.7,3.1-.5,2.7v3.4c.1,0,.6,1.4.6,1.4h0l.2.7h0l.4.3-.8,3,.4,1.2-1,1-2.2,4-1.7.7v.8h0-.1s-.2-.7-.2-.7h-2.6l-1.5-.6-1.7.7-5.1,3.7-1.1,2.5-1,.8h-1.1c0,0-5.1-5.9-5.1-5.9l-.7-3.8-3.1-4.1-3.9-8.2h0l1-.8-.3-2.5,2.5-3.8v-3.4c.1,0-1.1-2.2-1.1-2.2l-1.8-2.1-1.9-.8.7-2.1,1.1-.3-.7-1.4-5.9-5.9-1.8-.4-1.4,1.4-1.4.7-1,1.3h0l-1.7-2.6-1.8-1.6-7.2-4.1-.5-1.2.4-.9h.9c0,0,.1-1,.1-1l-1.8-6.6-2.7-4.9-2.9-3.7h0l2-1.5.5-1.1.4-3.9,2.1-2,1.7-.3,1.2.5v1.8c-.1,0-1.4.8-1.4.8l-.7,1-.2.9.4,1.7,1.8,1.2v1.8c-.1,0,.3,2.8.3,2.8h2.3s2.1-.8,2.1-.8l4.8-4.1,1.7-1.8.5-2.3.9-1.3,5.1-2h0l.3,1.2.7.4,1.2-.3.6.4.5,1.8,1.6.6h0l.5.5h0l.8,2.9,1.3,2.2.5,2.5,1.5,1.7v4.1c0,0,.4.8.4.8l1.6,1.1h0l.4,1Z"/>
    <path id="PE-LMA" d="M209.8,338.7l-.9-2.2-5.4-5.6h0l1.3-1.9-.4-1.4-2.2-3.6v-4.8c-.1,0-2.9-.2-2.9-.2h0l-1.4-2.6h0l1-1.3,1.4-.7,1.4-1.4,1.8.4,5.9,5.9.7,1.4-1.1.3-.7,2.1,1.9.8,1.8,2.1,1.2,2.2v3.4c-.1,0-2.6,3.8-2.6,3.8l.3,2.5-1,.8Z"/>
    <path id="PE-LOR" d="M253.2,12.3l3,2,2.2,2,2,.9,1.3-.7h1.1c0,0,1.3,2.2,1.3,2.2l.3,1.9,2,1.2.7-.6,5.6,4.2.6.9,1.4,5.3,1.8,1.9-.9,2,1.1,2.2.7.6,3.6,1,5.5,3.5.7,1.5,2.3.6h2.6c0-.1,2.6,2.2,2.6,2.2l.3,2.4,2.5,3.7-1,1.2-.5,2.5,2.4,1.8,3.1,1.5,1.5-.7,1.1-1,1.7,1.1,1.1,1.9.8,5.8-.5,1.4-1.4,1.2.4,2.2,1.1,1.1,1.9,1,1.8-.3,1.4,2.8,7.7-2.6,7.6,2.2,1.9.2,6.4-3.4,2.4.2.5-1.5,1.7-2.3,3-2.2.5,2,4.1.3,2.8,1.2,1.3,1.7,4.6.4,2.3-1.3,3.3-.9,3.1-1.4,4,2.6h2.4l2.4,2.1,2.7,1.2,1.6,1.4.7-.3,1.1.2,2,1.8.3,1,4.7-.9v1.5l-1,3.3-17.3,26.8,5.2,2.1h.7l3.6-1.9,1,.3,2.3,1.9,1.4,1.7,1.5,3.5,4.4,3.6.2,1.4-.8,1.3-1,.7h-4.8c0-.1-2.7-2.3-2.7-2.3v-2s-.5-.9-.5-.9l-2.9-.2-1.9,1.3-2.2.4-1.1-.9-3.6-.3-1.8,1-1.1,2.4-2.2,2.7h-1s-1.6,1.4-1.6,1.4h-3l-2.7,1.5-3.8.6-3.8,1.5-7.7-.3-5,4.4-3,2.1-3.8,1.5-4.1,2.7-4.1,4.4-3.8,1.5-3,4.7-1.8,10-3.5,3-3.3,5.3,2.7,6.5,1.2,4.1-3.8,3.8-13.3,6.5-1.2,6.2-1.3.4,2,2.9.4,2.3-.8.7-5.1.7v2.2s-.8,2.2-.8,2.2h-.7s-.8-.7-.8-.7v-.8s-3.6-2.9-3.6-2.9l-4.5-.4-1-1.1h-2.3c0,.1-3.3,4.6-3.3,4.6l.8,7.5v2.3c0,0-.7,1.4-.7,1.4l-1.3.8-.7,1.5-1.5.8-3.4.3-2.8-.3-1.4-.7-3-.3-3.3,3.5-2.6-.4-1.6,1.2-.6,1.2v5.6c-.1,0-1,.7-1,.7l-1.4.4-2.1-1.7h-1.1l-6,5.7h0l-1,.4-.6-1.6h0l.2-3.5h0l.5-2.3h0c0-.1-1.1-1.8-1.1-1.8h0l.5-3.5,1.2-2.1,1.5-1.4-.9-1.9h-1.8l-.4-1.6-1.6-2.1-.8-2.5-.6-4.3-2.1-2.1-.8-2.3v-3.7c0,0,1.8-.6,1.8-.6l.2-1,2.5-1.8-.7-7.9,1.3-1.3,1.6-.2,2.3.7,1.4,1h0l.3.4h2.9c0-.1,2.3-.6,2.3-.6h0l1-.4.7-2.8.7-7.9-.3-2.1,1.2-1.3.2-2.3-1.4-1.8-2.3-1.2h0l-3.2.7-1.7,1.3h0l-2.4-.5h-3.9s-4,2.7-4,2.7l-1.8-.9-1.8-2.3-2.5-2.3-2.4-.2-2.4,1.5-1.5.2-2.6-1.5-.5-.8h0l-1.3-3.7h0l-.4-.7h0l-.4-.8-2.7-1.8-1.3-.4h0l-6.1-.3h0l-1.5-.6-2.9-3.3-4.5-1.6-2.6-2.1h0l-1.8-3.8-.5-2.2-2.7-2.2v-1.8l1.7-1.9-.3-2,.5-2.8.9-1.9,2.2-2.6h0l1.9-4.3h0l.2-1.5-.3-1.5.7-6.5-.4-4.4-2-3.5.2-2.8h0l-1.1-5-1.1-2.4h0l-1.3-2.5-.2-3.5-1-4.2h0l30.2-10.4,15.4-11.5,11.7-14,1.7-1.5,4.3-16.1,1.9,1.5,3-.3-2-6.2.2-1.9.9-.7v-1.8c.1,0-.4-1-.4-1l-2-1.5h-.6s-1.3-1.2-1.3-1.2l-1.8-4.9-2.4-1.4-1.4-.2.2-1.7,2.5.3,2.5,1.2,2-.3,1.7-.8h.7c0,0,.9-.6.9-.6l.6-1.5,1.8.2Z"/>
    <path id="PE-MDD" d="M371.7,299.6v.9s2.8-2,2.8-2l2,1.9,2.8-.2,8.7-1.2,2.3-1.1,3.8.3,1.1,1,4.5-.3,16.9,27.9,6.6,13.4-1.8,2.2-1.9,4-1.7.7.2,2.1-.5,2.2-2.2,1.6h0l-2,1.3-11.1,4.4-1.5,1.7-3,.7-2.9.3-5.9-1.2-6.5-3.2-3.8-.4-1.7.3h0v-.2h0l-2.1-.4h-1.8c0,.1-2.6-.7-2.6-.7l-3.2-.3-2.1-.8-1.1.4-.4,1.2-2.4,2.1-1.7,1.1-1.2-.3-1.3-5.8-.6-1.3-4-1.1-2.2-1.5-3-4.3-8.1,1.7h-1.1l-1.5-1.1-.4-4.1-2.8-3.6,2.8-2.3-.3-.2.7-1.4-2.1-1-.8-1.9-1.5-2.1-4.7-2.9-.5-2.9-.8-1,.2-1.1-2.3-2.9,2.6-2.9,1.2-2.1.5-5.5h.3s1.9-2.3,1.9-2.3l.6-2.3.4-1.5-1-.9.3-1.3,7.6.2,2.7-.3h10c0,0,2.8-2.7,2.8-2.7l.5-1.5.4-3.6.9-2.6,2.6-2.9,2.9-1.1,5.1-5.3,1.5-.6,4.1-6.5h0v26.8Z"/>
    <path id="PE-MOQ" d="M365.9,434.3h.7c0,0,.8.5.8.5l5.2-.3.4.4,4.1,1,.5.7,1.2,3.3v3.7c0,0,1.3,3.5,1.3,3.5l4.6,4.7,2.3.6.7.8-2.2,2.1-.2,4.2-.8.9h0c0,.1-2.2.6-2.2.6l-.4-.9h-.5c0,0-.3-2.9-.3-2.9l-1.2-.7-2.5.2-.8.5-.9,1.1-.6,2,.5,3.1-3.1,3.8-2.8,1.3-4.1,7.5v1.3l-1.4,3.2-1.5,1.4-4.1,2.1h-1.2l-1.1-1.3-2.4-1.4-1.4-2.5-1.1-6.1-2.3-1.9-.2-.8-2.4-1.2h0l2.6-.8,3-1.8.8-2.9-1.7-2.2-.9-1.9-.2-1.6.5-1,1.7-1.4,1.5-.6.3-1.4-.3-1.6,2.5-3.5,1.6-.7-2.5-2.8.6-1h1.2l3.2,2.1,1.8.5,1-.4-.2-1.4.3-.6,2.2-2.6.4-7.1Z"/>
    <path id="PE-PAS" d="M269.7,296.2h-3.2s-8.3-4.3-8.3-4.3h-1.3c0,0-2.1-.4-2.1-.4l-1.8.3-3.3,1.8-.5.8-1.3.4h-2.5s-1.9-2.2-1.9-2.2h-.7l-6.3,2.9-4,.8-1.2-1h-1.4c0-.1-1.8,1-1.8,1l-.3,1,.2,1.5h2.2c0-.1.3,1.1.3,1.1l-.6,1.4-1.9.8-1.9-.3-1.4,1.4-1.8.3-1-.7h-.7c0,0-.5-.8-.5-.8l-1.5-.4-1.6.2h0l-.2-.4h0l-1.6-1.1-.3-.8v-4.1c0,0-1.6-1.7-1.6-1.7l-.5-2.5-1.3-2.2-.8-2.9h0l-.4-.4h0l2.3-.6,3.9-2.6,2.1-.7h1.9c0,.1,1.4,1.5,1.4,1.5l1.2.5,8.4,1.5,1.1-3.7,1.4-.5.7-1.1,1.5-.6,2.6-4,5.3-4.4h.9c0-.1,4.6-3.7,4.6-3.7h1.7c0,.1.9.6.9.6l1.8,1.9,1.9-1.7h.5s.4-.8.4-.8l2.2-1.4h1.7c0-.1,1.8-2.1,1.8-2.1l.5-1.9,3.5-3.9h0v1.1h.1l1.1,1.5,1.4,1h0l1.4,3.4h0l-.2,2.3.6,1.8,1,.5.7,4.4,1.7,2.2,1.2,1,1.8.3h0v2.1c-.1,0-.8,1.5-.8,1.5h0l-.3,1.8.7,1.8,1.9,1.7.4,1.1v1.2c-.1,0-.9.4-.9.4v.7s-3.2,1.3-3.2,1.3l-3,3.2-2.8,2Z"/>
    <path id="PE-PIU" d="M95.8,171.3l-1.2-2.5.4-1.6,1-1.2h1.7c0,.1,1.2-.3,1.2-.3l1.7-2.3.8-2.3-.2-2.7-3-5.4-4-2.2-2.3-1.8.2-1.4.9-1.5.8-.4.4-1.8,2.1-.4-1.9-2.7-2.7-2.1-3.1-3.4v-2.4c.1,0,1.6-7.7,1.6-7.7l1.8-3,4.5-3.9h0l.6,1.7,1.7,1.4,7.3-.2,2.1-.8.5-.7h0l1.5-1.4,2.5,3.3.8,2.6-1,1.5v.7s.4.7.4.7l1.9,1,1.5-.7,3.3-2.8h.7c0,0,1.5.2,1.5.2l1.4.9,4.6,1.7,1.3,1.2.8-.5,1.8-.2,5,.8.5.5.6,2.6,1.8,4.6,4.2,4.4h1.4s-2.1,2.2-2.1,2.2l-2.2,3.1.9,3.2.9,1.3v4.3c.1,0-.4,0-.4,0l-1.6,1.9-.5,4.2.5,2.2,1.3,2.4h0l-2.1,1.7h0l-.6.3h0l-.4-.8-1.9-.7h0l-.9.2h0l-1.4-2-1.6-.8h0l-1.1-.5-1.8-3.9-4.1-3.1-.7,1.8-.2,2.1-2.1,3-3.2,2.5-3.3,1.1-1.1.9-2.6,3.1-.9,2.3-3.2,4.6h-1.3c0,.1-2.1,1-2.1,1l-5.8-4.4-.4-1-3.9-1.9Z"/>
    <path id="PE-PUN" d="M405.7,419.7l-2.1-1.3-2.6-.2-.9-1.9-3.4-.4-.6-2.3-2.1-1.7-6-1.7-4.1.2-.4,1.1.4,1.1h5.6l1.1.6.4,2.6-2.4,1.9.4,1.9,1.3.8v2.4l-1.1.2-.6,1.7-3.2,1.3,1.5,5.8,2.6-.2,2.2,1.5.8-1.5.8-.4,1.3,3,2.3-.2,1.1.6,2.8.6.4,1.1-1.3,1.5-.8,2.1,1.5,1.5,2.4-1.1h1.3l1.3,2.1,2.1.4,2.4-.9,1.1-2.1,1.3-.8h0l1.4,1.3,1,2.3-.2,3.5-1.2,1.5-.2,2,.8,3-4.7,3.3-3.4,4-1.7,3.5-3.8,2.1-2.3,2.3-1,2h0l-2,.3-5-2.6-2.9-2.3h0l-2.7-4.6h0l.8-.9.2-4.2,2.2-2.1-.7-.8-2.3-.6-4.6-4.7-1.2-3.5v-3.7c0,0-1.3-3.3-1.3-3.3l-.5-.7-4.1-1-.4-.4-5.2.3-.8-.6h-.7c0,0,.4-1.6.4-1.6l-1.3-1.4-1.4-2.3,1-2.8-3-3.5-.3-2.8h0v-2.2h0v-1.2c-.1,0,1.1-.7,1.1-.7l.2-2.3-.3-2-.7-1.1-.2-2.9,1-2-.5-2.8-1.2-1.8-.7-.2-2-2.7.7-1.1,1.8-1.2,1.1-4.3,2.3-4.5.8-5.1-.6-2.5.4-3.6,2.2-1,4.7-6.1,4.8-5.4v-2.9h.1l.3-3.7h0l1.7-.3,3.8.4,6.5,3.2,5.9,1.2,2.9-.3,3-.7,1.5-1.7,11.1-4.4,2-1.3h0l2.2-1.6-.3,2.7.2,2.8.5,1.2-.8,3.7-1.3,2.2v3.2s-.5,1.6-.5,1.6l-2.2,3.8,1.3,2.2,1,4.7,1.5,1.4-.2,2.1.5,1.8-1.8.7-1.3,1-.5,3.2-5.3,6.4-1.7,2.3-1.2,2.5-.6,5.5,2.3,3.1,4.2,4-.2.7-1.4.2-1.9,1.8-1.8,3.4Z"/>
    <path id="PE-SAM" d="M187.4,152l2.6,2.1,4.5,1.6,2.9,3.3,1.5.6,3,.4h3c0,0,1.3.3,1.3.3l2.7,1.8.4.8h0l.4.7h0l1.3,3.7h0l.5.8,2.6,1.5,1.5-.2,2.4-1.5,2.4.2,2.5,2.3,1.8,2.3,1.8.9,4-2.6h3.9s2.4.5,2.4.5h0l1.7-1.3,3.2-.7h0l2.3,1.2,1.4,1.8-.2,2.3-1.2,1.3.3,2.1-.7,7.9-.7,2.8-1,.4h0l-2.3.5h-2.9c0,.1-.3-.2-.3-.2h0l-1.4-1-2.3-.7-1.6.2-1.3,1.3.7,7.9-2.5,1.8-.2,1-1.7.6v3.7c0,0,.7,2.3.7,2.3l2.1,2.1.6,4.3.8,2.5,1.6,2.1.4,1.6h1.8l.9,1.9-1.5,1.4-1.2,2.1-.5,3.5h0l.2.3h0l-2.5.9-2.3,2.3,1.2,7.7-.9,1.1-1.3-.2-3.4-6.9-2-1.3v.3s-1.1-.5-1.1-.5l-1.8,3-3-1.4-2.5.9-1.8-.5-3.3.6v.5c.1,0-3.6,0-3.6,0l-.7-.9-1.1.2-1.4-2.1h0l1.2-1.2,5.4-1.3-.2-1.4.6-.3-.7-2.5-2.3-3.5-2.8-.5-1.6-1.2-2.1.2-3.1,1.2-.7-4.6-1-.8-2.2-.4-1-9-1.1-.7-1.1-2.7v-1.4c-.1,0,.7-2.1.7-2.1l-4.6-6.2h0l-.3-.9h0l1.3-5.8,1.4-1.2,1.4-.2,2.8.2,1.9,1.4,1.4-.7,1.4-1.6v-1.1l1.4-3.3,3.1-2.5.6-1.1-1.2-3.7-1.9-2.4-7.2-2.1-1.1-1.2-2.7-5.2-.8-1.8.2-5.5.4-1.3,1.6-1.5Z"/>
    <path id="PE-TAC" d="M357.6,484h1.2l4.1-2.1,1.5-1.4,1.4-3.2v-1.3l4.1-7.5,2.8-1.3,3.1-3.8-.5-3.1.6-2,.9-1.1.8-.5,2.5-.2,1.2.7.3,2.8h.5c0,0,.4,1,.4,1l2.2-.5h0l2.6,4.5h0l2.9,2.3,5,2.6,2-.3h0l1.7.2,2.4,2.3v3.5s-5.4,4.8-5.4,4.8l-1.8.3-.7,1,1.5,6.3v2.7c.1,0-2.3,5-2.3,5l-2.6,2.5-11.3,1.7-1-1.3-.2.2-3.1-2.7-3.3-1.5-8.1-7.6-3.6-1.6-1.9-1.4Z"/>
    <path id="PE-TUM" d="M116,115.5l-.9-.4-2,.2-.9,1.8-3.2,2.7h0l-.5.7-2.1.8-7.3.2-1.7-1.4-.6-1.7h0l.7-.5,1.9-3.3,3.3-2.4.5-1.9.8-1.2,5.7-3.3,1.8-2.9,3-.4,1.1-.6,2.2.7,1.4,5,.2,2.6-1,3.4-2.2,1.9Z"/>
    <path id="PE-UCA" d="M234.1,236.6l6-5.7h1.1l2.1,1.7,1.4-.4.9-.7v-5.6c.1,0,.7-1.2.7-1.2l1.6-1.2,2.6.4,3.3-3.5,3,.3,1.4.7,2.8.3,3.4-.3,1.5-.8.7-1.5,1.3-.8.6-1.4v-2.3c0,0-.7-7.5-.7-7.5l3.3-4.5h2.3c0-.1,1,1,1,1l4.5.4,3.6,2.9v.8s.9.7.9.7h-.4s0,.7,0,.7l3.7,3.2.6,1.1,3.6,1.6.3.7v1.1c-.1,0-.8.9-.8.9l-1.4-.2v2c.1,0,3.3,1.8,3.3,1.8l1.5,2.8,1.6,6.1,3.4,2.6,1.6,4,1.9,1.9,1.5.3,1.3.7,2.8,5,1.4.7,1.1,1.5.4,2.1-.5,2-1.5,2.1-4.2,3.8-.5.9,12.4.3,9.4,2.1,1.8,1.1,1.3,3.3-.4,1.9.2.8,2.1,1.2.4.8.4,1.4-.9,3.1h1.1c0,0,22.3-.2,22.3-.2l3-1.7,1.1-1.8,3.3-1.1,3.5-4,2.7-1.7,5.5-4.6-.7,9.2-.8,1.2v3.7h0l-4.1,6.5-1.5.6-5.1,5.3-2.9,1.1-2.6,2.9-.9,2.6-.4,3.6-.5,1.5-2.8,2.6h-10c0,0-2.7.4-2.7.4l-7.6-.2-.3,1.3,1,.9-.4,1.5-.6,2.3-1.9,2.3h-.6c0,0-3,.9-3,.9l-1.5,1.3h0l-2.9,1.5-1.3-.3h0l-1.8-.8-3.7-.4-2.8-1.7-.8-1.8h0l-5,1.5-6.7.9-.6-.2h0l.2-2.5-.6-4-1.1-1-1.5-.4-.4-4.3h0l-1.9-2h0l-3.4-1-1.4,2.5v5c0,0-.6,1.8-.6,1.8l-1.2.7-2.6-.5-1-3.7-3.1.6h-4.3c0,.1-2.8.1-2.8.1l-1.8-.7-.7-3.3h0l2.8-2,3-3.2,3.2-1.3v-.7s.8-.4.8-.4v-1.2c.1,0-.3-1.1-.3-1.1l-1.9-1.7-.7-1.8.3-1.8h0l.7-1.5v-2.1h.1l-1.8-.3-1.2-1-1.7-2.2-.7-4.4-1-.5-.6-1.8.2-2.3h0l-1.4-3.4h0l-1.4-1-1.1-1.5h0v-1.5c-.1,0,.4-1.5.4-1.5l1.1-1.4h0l-.6-2.1-1.1-1.4v-2.7l-.5-2,.4-2,1.5-3,1.3-.8-.5-2.5-1.1-.9-3.4-.2-3,1.2-1.5,4.8v1.8c-.1,0-.8,1.2-.8,1.2h-1.2l-.7-1.4-3.6.6-.5,2.7-1.4,1.7v2.8c.1,0-2.3,2.3-2.3,2.3l-2.1.6-1.5-.4-4.3,2.6-1.4-.4-4.5-7.2-2.4-5.3-.8-3,.4-2.5h0v-2.1c0,0,1-.4,1-.4Z"/>
    <path id="PE-LKT" d="M412.6,438.9l-1.3.8-1.1,2.1-2.4.9-2.1-.4-1.3-2.1h-1.3l-2.4,1.1-1.5-1.5.8-2.1,1.3-1.5-.4-1.1-2.8-.6-1.1-.6-2.3.2-1.3-3-.8.4-.8,1.5-2.2-1.5-2.6.2-1.5-5.8,3.2-1.3.6-1.7,1.1-.2v-2.4l-1.3-.8-.4-1.9,2.4-1.9-.4-2.6-1.1-.6h-5.6l-.4-1.1.4-1.1,4.1-.2,6,1.7,2.1,1.7.6,2.3,3.4.4.9,1.9,2.6.2,2.1,1.3h0l-2.2,4.6,4.3,11.4,4.9,3.2Z"/>
  </g>
</svg>