<svg xmlns="http://www.w3.org/2000/svg" xmlns:amcharts="http://amcharts.com/ammap" id="Layer_1" viewBox="0 0 512 512"><g id="_x3C_defs"><amcharts:ammap bottomLatitude="1.837" leftLongitude="-58.271" projection="mercator" rightLongitude="-53.951" topLatitude="6.009"/></g><g><path id="SR-WA" d="m348.2 20.1-2.8-1.8-11.7 29.1 37 .7-12.4-11.8-10.2-16.2Z"/><path id="SR-SA" d="M345.4 18.2 272.8 12l-3.5 34.8L267 63l2 15.7 53.7-2.3 11-29.2 11.7-29.1Z"/><path id="SR-PM" d="m360.1 29.7-11.9-9.6 10.2 16.2 1.8-6.6Z"/><path id="SR-CR" d="m269.4 46.8-4.6-15.2-78.9-17.3 12.5 48.3 1.7 26.8 67-26.5 2.3-16.2Z"/><path id="SR-CM" d="m361.5 10.2 30 15.4-31.4 4.1-1.8 6.6 12.4 11.8 1 16 47.5-3.2-9.1-49.3-48.6-1.2Z"/><path id="SR-SI" d="m254.9 501.8 12-25.6-27-24.3 19.3-31.9 30.6 15.3 90.4-25.1 36.1 34.6 32.8-19.8 24.3-43.7-4.8-32.4 26.3-57.2-49.8-70.7-9-82.3 19.6-36.7-39.5-19.2-23.2 46.7 13.1 10.7-18.6 78.3-44 25.8L316 117.7l-20.5 12.1-31.3-13.2 2.9-53.4-67 26.5-88.4 6.7-5.7 27.8-48 2.3-27.3 20.9 9.6 21.2-23 78.5 45.1 71.2 40.3-1.1 12.5 64.9 58.7 96.5z"/><path id="SR-PR" d="m370.7 48-37-.7-11 29.2-53.7 2.3-2-15.7-2.9 53.4 31.3 13.2 20.5-12.1 18-27.8 40.7-.5 16.5 40.8 1.7-.7L416 82.7l3.2-21.9-47.5 3.2z"/><path id="SR-MA" d="M473.2 85.8 491 28.6l-80.8-17.2 9.1 49.3-3.2 21.9 39.5 19.2 17.7-16.1Z"/><path id="SR-BR" d="m391.2 130.1-16.5-40.8-40.7.5-18 27.8 27.5 126.6 44-25.8 18.6-78.3-13.1-10.7-1.7.7Z"/><path id="SR-NI" d="M121.8 44.3V31.1c.1 0-3.1 7.8-3.1 7.8l3.1 5.3Zm76.6 18.4-12.5-48.3h-54.6l-11.5 46.7-20.3 28.5 12.2 6.7 88.4-6.7-1.7-26.8Z"/></g></svg>