<?xml version="1.0" encoding="UTF-8"?>
<svg id="Layer_1" xmlns="http://www.w3.org/2000/svg" xmlns:amcharts="http://amcharts.com/ammap" version="1.1" viewBox="0 0 512 512">
  <!-- Generator: Adobe Illustrator 29.1.0, SVG Export Plug-In . SVG Version: 2.1.0 Build 142)  -->
  <g id="_x3C_defs">
    <amcharts:ammap bottomLatitude="-35.031419" leftLongitude="-58.439112" projection="mercator" rightLongitude="-53.169667" topLatitude="-30.085215"/>
  </g>
  <g>
    <path id="UY-RN" d="M189.8,248.2l-40.2-12.8-36,8.1-27.5,16.7-32.8-12.1,11.3,45.7-6.9,14.3-17.9,2.7-3.4,30.3,29.5-17.8-1.7-10.9,17.5-9.7,16.7,4.5,10.5-6.3,20.4,12.5,12.9-2.4-3.9-7.3,25.5-6.2,16.9-14.4,9-34.9Z"/>
    <path id="UY-PA" d="M209.7,175l-14.3,11.8-56.3-7.3-58.3-31.1-14.8,2.7,5,8.9-5.8,19.5-12.9,9.5,8.9,38.3-7.9,20.9,32.8,12.1,27.5-16.7,36-8.1,40.2,12.8,26.2-57.2-6.4-16Z"/>
    <path id="UY-FS" d="M192,348.3l-11.5-19.1-38.2-18.2-18.5,25.7,15.7,23.1-2.2,14.3,9.1,21.2,17.8,2.2,21.9-13.6,11.7,5.3,3.4-14-9.3-26.9Z"/>
    <path id="UY-AR" d="M167,14.2l-20.6.4-14,18.1-24.3-1.8-8.2-8.8-1.6,14.1-19.8,21.5,7.6,23.4,7.1-3.3,53.8,31.2,31.2-2.7,23.7-15.9,20,5.1,13.4,13.1.5-26.9L167,14.2Z"/>
    <path id="UY-SJ" d="M197.9,389.2l-11.7-5.3-21.9,13.6-17.8-2.2,11.4,18.6-12.9,8.6-6,21.9,24.6,22.5,42.6,12.6v-6s-9-14-9-14l5.9-16.6-5.8-7.4.7-46.2Z"/>
    <path id="UY-CO" d="M146.4,395.3l-26.4-6.7-21.8,4.2-43.1-16.1-20.6,9.8,46.9,60.2,57.5-2.3,6-21.9,12.9-8.6-11.4-18.6Z"/>
    <path id="UY-RO" d="M359.5,480.8l20.3-11.4-3.4-13.5,7.5,2.8-1.8,9.8,9.5-1.9,31.9-28.1,4.5-19.4,15.1-15.2,12.6-31-13.4-9.2,1.6-52.5-20.7,6.4-29.9,27.6-20.4,17.2-9.4,29.2-4.1,89.3Z"/>
    <path id="UY-MO" d="M233.4,488.9l.2-10.8-8.1-5.4-19.4.8v6s-4.5,5-4.5,5l9,6.4,8.1-2.7,4.9,6.3,9.8-5.7Z"/>
    <path id="UY-MA" d="M323.7,497.8l35.8-17,4.1-89.3-18.7,16.1-11.6,31.1-52.6,23.3,8.3,18.4,34.7,17.4Z"/>
    <path id="UY-LA" d="M393.4,345.2l-15.1-11.8-15.6,10.1-27.9-11.2-25,4.5.6,7.5-17.4,16.2-1.4,25.7-23.2,33.8,12.2,42,52.6-23.3,11.6-31.1,18.7-16.1,9.4-29.2,20.4-17.2Z"/>
    <path id="UY-FD" d="M309.8,336.9l1.1-26.4-62.9,31.7-19.4,5.8-26.4-9.1-1,8.2-9.1,1.2,9.3,26.9-3.4,14-.7,46.2,5.8,7.4,4.2-7.7,18,.7,11.5-12.2,31.8-3.7,23.2-33.8,1.4-25.7,17.4-16.2-.6-7.5Z"/>
    <path id="UY-CA" d="M280.6,462l-12.2-42-31.8,3.7-11.5,12.2-18-.7-4.2,7.7-5.9,16.6,9,14,19.4-.8,8.1,5.4-.2,10.8,20.6-11.4,35,2.9-8.3-18.4Z"/>
    <path id="UY-TT" d="M472.2,278.8l-55.3-3.5-8.7-6-8.1,9.3-23.5-8.3-46.2,14.7-11.7,8.6.7,7.5-8.5,9.3-1.1,26.4,25-4.5,27.9,11.2,15.6-10.1,15.1,11.8,29.9-27.6,20.7-6.4,28.3-32.4Z"/>
    <path id="UY-TA" d="M349.1,211.6l-21.3-25.4-59.2-6.2-4-21.4-14.2-19.7-19.2-12.1-7.9,4.4-16.2,27.9,2.5,15.9,6.4,16-26.2,57.2-9,34.9,37-2,4.6-9.7,22.3-12.2,6.1,3,5.2-11.2,20.7-1.7,4.2-7.5,12,6.6,24.1-2.5,16.8-15.7,7-20.6,8.5,2.1Z"/>
    <path id="UY-RV" d="M364.8,166.5l-11.5-20.1-53.5-21.1-29.1-38.7-22,22.1-13,.7-3.8,11.1-10.6,5.3,2.1,5.3,7.9-4.4,19.2,12.1,14.2,19.7,4,21.4,59.2,6.2,21.3,25.4,9.6-10.2-4.1-3.4,10.2-31.6Z"/>
    <path id="UY-DU" d="M292.7,248.4l-12-6.6-4.2,7.5-20.7,1.7-5.2,11.2-6.1-3-22.3,12.2-4.6,9.7-37,2-16.9,14.4-25.5,6.2,3.9,7.3,38.2,18.2,11.5,19.1,9.1-1.2,1-8.2,26.4,9.1,19.4-5.8,62.9-31.7,8.5-9.3-12.5-.7-13.1-11.6-1.1-40.5Z"/>
    <path id="UY-CL" d="M472.2,278.8l5.3-9.2-36.9-25.6-16.4-39-26.1-17.3-6.5,2.9-26.8-24.2-10.2,31.6,4.1,3.4-9.6,10.2-8.5-2.1-7,20.6-16.8,15.7-24.1,2.5,1.1,40.5,13.1,11.6,12.5.7-.7-7.5,11.7-8.6,46.2-14.7,23.5,8.3,8.1-9.3,8.7,6,55.3,3.5Z"/>
    <path id="UY-SO" d="M142.3,311l-12.9,2.4-20.4-12.5-10.5,6.3-16.7-4.5-17.5,9.7,1.7,10.9-29.5,17.8-2,45.3,20.6-9.8,43.1,16.1,21.8-4.2,26.4,6.7-9.1-21.2,2.2-14.3-15.7-23.1,18.5-25.7Z"/>
    <path id="UY-SA" d="M235.1,108.7l-13.4-13.1-20-5.1-23.7,15.9-31.2,2.7-53.8-31.2-7.1,3.3-.7,11.3-8.7,3.9,4.7,10.9-15.4,44,14.8-2.7,58.3,31.1,56.3,7.3,14.3-11.8-2.5-15.9,16.2-27.9-2.1-5.3,10.6-5.3,3.8-11.1-.6-.7Z"/>
  </g>
</svg>