<svg xmlns="http://www.w3.org/2000/svg" xmlns:amcharts="http://amcharts.com/ammap" id="Layer_1" viewBox="0 0 512 512"><g id="_x3C_defs"><amcharts:ammap bottomLatitude=".645" leftLongitude="-73.388" projection="mercator" rightLongitude="-59.805" topLatitude="12.544"/></g><g><path id="AW" d="m130.5 40.2.7-.5.7 1.7 3.1 1.8 1.5 2.2-.6 1.7-1.7-.3-5.1-4.4 1.4-2.1Z"/><path id="BQ" d="m196 53.7-1 7.4-1.7-1.2-.6-4.4-4.2-2.3-.2-1.6 2.5-1z"/><path id="CW" d="m169.9 54.7 3.5 1.3 3.9 4.5-1.6.6-.3-1.1h-3.8c0 .1-4.2-3-4.2-3l-5.8-7.3v-1.4c.1 0 3.9.9 3.9.9l.7 3.3 3.7 2Z"/><path id="VE-A" d="m247.6 113.7-.2 2.2-5.5 3.1h-3.8l-1.7-1.6.5-.6 3.2-3.9 7.2.6h.2Z"/><path id="VE-B" d="m397.7 191.4-2.5.6-3.8 3.7-8.3-2.3-2.6.7-1.4-.7-11.5 7.5-4.3-.5-5 1.6-4.2 5.1-3 1.9-4.5-.5-4.7-4.3h-1.7c0-.1-5.1 2.4-5.1 2.4l-3.7-.7-3.3 2.8.5 2.9 2 1.4-.6 2-3.4.2-7.3 3.9-2.9-.2-6.3-4.7-11.7-3-1.2-.9-1.8-1.8.9-3.7 10.1-13 1.7-6.1-.8-2.7.8-2.8 1.1-1h6.3l1.5 1.7h2l2.5-6-.7-1.6-6.1-3.5v-2l-1.8-1.8-5.7-2-2.7-2.7-2-3.2.5-1.4 3.4-1.8-.2-1.2-4.3-1.9-4.2-3.8-1.5 1.3h-6.4v-2.2l-1.3-.6.4-5.6-1.6-4.6.3-1.1h1.9l2.8-1.6 5.3-5.2 12.8 3 9.3-.8 3.4-1.1.6-2.4 3-1.9 5.6-.5 2.2 3.6 5.3 2.4h3.7l4-1.6 4.3.9h.3l-3.8 2.1-.4 1.3.2 1.6 2.7 1.7 2 3.4-1.1 2.1.4 1.6 2.3 2.3 1.1 3.7v1.2l-4.5 4.1 2.9 7.4 4.2-1.1 3.5 1.6 11.8 9.4 3.3 7 10.5-1 .4 1-1.5 1.4H384l.6 3.7 12.9 5.2v1.9Z"/><path id="VE-C" d="m265.9 219.1-3.8 2-6.4 9.9-5.5 1.5-6.2 4.1h-2.4c0-.1-3.8 1.5-3.8 1.5l-1.8 4.6 3.1 2.4-.4 6.6-1.9 2.3-1.9 5.4v3.8c-.1 0-1.2 1.9-1.2 1.9l-2.4 1.2-.7 1.9-5.6 4-5.2-2.3-7.8-1.3-3.7.8-1.2 2.1-1.6.5-5.6-1.2-2.1 2-1.4-1.1-3.3 1.1-3.2-1.1-6.8.9-1.6 1.3-16.5-3.8-2.3.5-3 5.1-1.9-.2-.8-2.2-4.1 1.1-1.4-1v-1.7c.1 0-6.8-6-6.8-6l-.4-2.7-10.5-11.8-5.9-8.6-8.1 1.6-1.3-1.9-3.6-1.3-1.8-2.4h-12.6l-4.6 4.2h-2.3l-1.3-1.7-16.3-.2-1.2-1.5H73l-6.6 2.3-6 .2-5.9-6.6-.7-3.3 1.2-2.4-2.9-2-4.7-.8.3-.8 6.6-.7 3.1 2.6 4.5.3 2.3-.8 1.2-2.7v-.2H68l2.8 2.2 2.2.3 1.1-.8 1.5.8 7.7-.8 4.9 1 2.7 2.2 6.4 1.8 9.8.9 1.9-.7.3-1.1h2.6c0 .1 3.2-3 3.2-3l3.7-1.5 1.8-5.4 5.4-.8 4.3-3.7h3.2c0-.1 4.1-3.2 4.1-3.2l3.7.3 10.3-7.7h12c0 .1 1.9 1.3 1.9 1.3l3.9.3 4.6 3.1 13.7-1.2 5 1.1 5.7-1.5 11 1.9 11.3-2.8 1.5 1.7 11.9 5.1 8.5.5 10.1 3.4 1.6-3.1 5-1.2 3.2 2.4 2.4.3.7 1.8.7.8Z"/><path id="VE-D" d="m223.2 134.8-1.9-1.3-4.2-.4 1.3-8.7-.9-2.5-5.6-.4-2.3-1.7v-1.4c.1 0 3-2.5 3-2.5l15.2-1.7 1.5 5.2 2.8-1.7 1.5 1 1.8-.5.1 3.5 2.4 3.5-.9 2.2.7 2.4 4.4 1.8 2 2 10.9.8h.1l1 6.1-2.3 2.7 2.8 3 .3 1.7-1 1 .9 4.4-4 5.7-11.2-5.3-.5-2.5 3.5-1 1.3-2v-1.9l-2.7-2.7-2.5-1.1-6.1-5.6h-2.7l-4.9-2.3-4.1.4Z"/><path id="VE-E" d="m220.2 207.5-11.3 2.8-11-1.9-5.7 1.5-5-1.1-13.7 1.2-4.6-3.1-3.9-.3-1.9-1.2h-12c0-.1-10.3 7.6-10.3 7.6l-3.7-.3-4.1 3.1h-3.2c0 .1-4.3 3.8-4.3 3.8l-5.4.8-1.8 5.4-3.7 1.5-3.2 3.1h-2.6c0-.1-.3.9-.3.9l-1.9.7-9.8-.9-6.4-1.8-2.7-2.2-4.9-1-5.7.8-3.5-.8-1.1.8-2.2-.3-2.8-2.2H65l.2-.7 3.6-1.6 13.7 2.3-4.5-4.9.6-5.4.8-.6 6.3-3.8 8.3-8.2 1.4-5.4-1.8-4 2.5-1.9 1.7-6.2 5-5.1 3.5-1.3 1.2-1.9 3.7-1.7-.3-1 1.9-2.8 1.5-.2 8.1-.8 2.6.8 1.3.2 9.2 7 5.7 2.4h5.8l6.1 3.2 2.3-.5 2.3.8 4.1 4.7.3 1.6 1.6.7.5 1.1-1.4 2.2 5.5 3.9 3.8 5 1.8.8 1.6-.3.4-7 2.3-2.3 3.4-1.3 2.6-6.2v-1.8h-.1l10.3.8 4.3-.7 3.8 2.4.5.4 1.6 1.2v2.7c-.1 0 5.1 2 5.1 2l4.6 5.1 3.6 1.5v2.8c-.1 0 1.6 4.3 1.6 4.3l.3.3Z"/><path id="VE-F" d="m327.7 343.9.3-7.1-1.1-1.4-.4-4.2-4.1-1.2-1.5.8-6.1-3.2-8.4-13.1-2.6-8.8 5-1.1.8-2.6-2.4-1.8v-1.8c-.1 0 1.2-.5 1.2-.5l.3-1.9-4.7-5 1.8-2.4-.4-1.1-7.2-1-3.4 3.4h-2l-1.9-2.4v-3.9c-.1 0 1.5-7.2 1.5-7.2l-.8-1.6-2.6-.7-5.3 1.5-2.2 5-4.1 5-2.6 1.2h-2.7c0-.1-4.1 1.6-4.1 1.6l-1.6-6.5-2.2.3-5.4 5.1-3.9 2-9.5.5-4.2 1.5-1.9-.3-1.4-1.5-3.5.3V282c-.1 0 .9-.5.9-.5l-.8-5.4-10-2.8v-1.2h.1l5.6-4 .7-1.9 2.4-1.2 1.1-1.9v-3.8c.1 0 2-5.4 2-5.4l1.9-2.3.4-6.6-3.1-2.4 1.8-4.6 3.8-1.6h2.4c0 .1 6.2-3.9 6.2-3.9l5.5-1.5 6.4-9.9 3.8-2 .7.7 2.6.3 3.5-3.1 5.5 1.6 3.9-1.1 4.9-5.8 5.4-1.9 4.6 2 1.5-.7 11.7 3 6.3 4.7 2.9.2 7.3-3.9 3.4-.2.6-2-2-1.4-.5-2.9 3.3-2.8 3.7.7 5.1-2.5h1.7c0 .1 4.7 4.4 4.7 4.4l4.5.5 3-1.9 4.2-5.1 5-1.6 4.3.5 11.5-7.5 1.4.7 2.6-.7 8.3 2.3 3.8-3.7 2.5-.6v.2h1.2l2.4-2.4.7-.3.4 3.4 4.3 5.4h6.1l5.3 3 2.5 4.7 3.6 1.4 2.7-1.9h5.6l4.3 7.1 4.1 1.8 5.4 1.5 1.5-1.7 5.3-1.7 4.1-3 2.5.4 1.1 3.1 2.1 1.4 2.8-.8 2.9-2.4 2 .7 2.7-1.5 11.2-.2-2.6 2.2-5.5.2-1.3 1.3-1.4 6.1-4.4 2-.2 1.6 1 3.1 3.5 4.3-1.6 2.5 2.9 2.5 7.7-.2 3.2 3.3-.7 1.5-7.9 6.6-5.9 1.4-2 2.7-6.7-1.3-1.3 1.8-3 .9-7.3-1.7 3.2 9.8v8.4h1.1v2.4l-5.7 4.7-.7 2.1-4.3 2 28.6 32.2.8 4.5-4.2 4.7-6.8 4.5-.8 3.2-1.7 2-4.1.8-8.1-.8-.3 3.9-6.2.7-.9 1v3.1l-1.3 1.5h-5.7l-4.6 3.9h-7l-4.9 2.2-10.2-2.9-4.9 5.7h-6.2l-1.8 2.2 2.7 8.1-1.9 3.9-2.6 1.9-3.3-.5-14.1-14.4h-3.2c0 .1-1.3 3.8-1.3 3.8l-1.5.3-4.2-3.4h-2.9l-1.2 1-5.2-1-5.1 3.2-1.7-1.1-1-4.5-3-2.7-7.1-1.1-7.4.8-2.6-2.7Z"/><path id="VE-G" d="m212.6 115.8-2.9 2.5v1.4c-.1 0 2.2 1.7 2.2 1.7l5.6.4.9 2.5-1.3 8.7 4.2.4 1.9 1.3-.3 1.8-5.4 3.3h-1.4c0-.1-2.9-3.3-2.9-3.3H212c0 .1-.8 1.9-.8 1.9v1.1l-3.8.2-10.5-5-.2-2.6 1.6-1.8-1.1-1.6-4.5 4.1-.9-.2-1-5.4 1.9-3.9-2-2.7.8-6.5 6.1-.4 2.4 2.5 7.9.7 4.7-1.2Z"/><path id="VE-H" d="m211.2 138.7 2.6 2.8.8 2.6-1.6 2.3-6.1 3 1.5 10.1 1.9 3.2v7.2l-6.5 8.7 1.1 1.8v5.8c.1 0-1.1.4-1.1.4v1.4h.1l-1.1-.9-3.8-2.4-4.3.7-10.3-.8v-.5l-2.8-1.8-1.5-3-2.7-1.2 5.8-3.2-1.9-5.1 1.9-3-2.6-2.3-.4-3-6.1-4.2v-2.7c-.1 0-5.3-12.9-5.3-12.9l.3-.4 2-3.5.2-4.3 1.1-.2 2.2-.7 4.5 3.3 4.2-2.4h2.1c0-.1.9 3.3.9 3.3l3.5-1.3 2.5-2.7h.4l4.5-4 1.1 1.6-1.6 1.8.2 2.6 10.5 5 3.8-.2z"/><path id="VE-I" d="m174.1 110.6-2.2-2.2-6 1.6-6.6-1.9-7.4.8-7-3.1-3.5 2.5-2.6-.3.4-1.1-19.4 7.5-5.6.3-7.8 2.3-2.3-.2h-4.4c0-.1-3.2-1.8-3.2-1.8l-4.2-6.3.9-3.1-.6-1-7.1-7.2 8.7-5.2 8-3.3 11.5-1.4 12.3-4.9 2.6-2.5 2.9-.3.2-2h2.6l2.7 2.6 5-.5.6-3.2-2.4-5.1-2.8-.4-11.7 3.2-.8-1 .7-5.3-2.4-2.6-.5-3.1 2.2-4.6 1.4-2.2 3.4-2.2 5.8-.7 3.2 3.9 2.2 10 4.7 10.8 2.8 1.5 4.7-1.5 2.3 1 3.1-1.5 8.7 2.8 7 .4 14.7 8.6 6 7.5v2.2l-1.2 1.3 1.4 1.4-1.5 3.9 3.4 7.4h-10.6c0 .1-3.2-2.2-3.2-2.2l-.3-2.8-5.4.7-2.2 2.1-.9.2Z"/><path id="VE-J" d="m298.5 211.2-1.5.7-4.6-2-5.4 1.9-4.9 5.8-3.9 1.1-5.5-1.6-3.5 3.1-2.6-.3-1.4-1.5-.7-1.8-2.4-.3-3.2-2.4-5 1.2-1.6 3.1-10.1-3.4-8.5-.5-11.9-5.1-1.8-2-1.8-4.3v-2.8c.1 0-3.5-1.5-3.5-1.5l-4.6-5.1-5.3-2v-2.7c.1 0-1.4-1.2-1.4-1.2l.6.5v-1.4c-.1 0 1.1-.4 1.1-.4v-5.8c-.1 0-1.2-1.8-1.2-1.8l6.5-8.7v-7.2l-1.9-3.2-1.5-10.1 6.1-3 1.6-2.3-.8-2.6-2.6-2.8v-.2l.8-1.8h1.2c0-.1 2.9 3 2.9 3h1.4c0 .1 5.4-3.1 5.4-3.1l.3-1.8 4.1-.4 4.9 2.3h2.7l6.1 5.6 2.5 1.1 2.7 2.7v1.9l-1.3 2-3.5 1 .5 2.5 11.2 5.3 4-5.7-.9-4.4 1-1-.3-1.7-2.8-3 2.3-2.7-1-6.1h2.9l6.2-2.5 3.6 2.6 6.1-.3 3.4.9 5.3-.9 4.9 1.6v.4h-.1l1.6 4.6-.4 5.6 1.3.6v2.2h6.4l1.5-1.3 4.2 3.8 4.3 1.9.2 1.2-3.4 1.8-.5 1.4 2 3.2 2.7 2.7 5.7 2 1.8 1.8v2l6.1 3.5.7 1.6-2.5 6h-2l-1.5-1.8h-6.3l-1.1 1.1-.8 2.8.8 2.7-1.7 6.1-10.1 13-.9 3.7 1.8 1.8 1.2.9Z"/><path id="VE-K" d="m171.3 133.3-.2 4.3-2 3.5-.8.9-3.1 2.3-3.1.7-2-1v-4.4l-1.1-1.1-4.4 6.6 1.2 2.2-1.3.3-1.2-1.9-.9.3.9 3.1-2.9-1.9-1.1.3.9 2.3-1.5-1.1-1.9.4-1.6 6-3.8-.6-.9.8-2.5-1.8 2.1-2.8v-2.2l-2.2 1.3h-2.5l-2.4 2.1-.6 1.7-3.5-4.4v-1.6l1.3-2.3 3.8-.6-.6-1.2-7-3.8-3.9-.2-3.1-2.4-2.7.8-2.6-.9v-2.3l-3.5-3-1.3.6-.6 3.5-.9.2v-.2l-5.8-2.1-2.2-2.5.6-1.3 6.9-4.3.7-3.5-2.3-1-1.1-4.4 2.2.2 7.8-2.3 5.6-.3 19.4-7.5-.4 1.1 2.6.3 3.5-2.5 7 3.1 7.4-.8 6.6 1.9 6-1.6 2.2 2.2h-.2l-2.1 2.4-3.2.7-2.1 1.9-.3 1.9 1.7 2.7.9 4.8h-4.1c0 .1-1.1 2.4-1.1 2.4l-2.6 1.8 3.1 3.5-.5 3.6 2 1.4.9.3.9-3 1.8-1.9h1.7c0 .1.3 0 .3 0Z"/><path id="VE-L" d="m113.1 170.5-1.9 2.8.3 1-3.7 1.7-1.2 1.9-3.5 1.3-5 5.1-1.7 6.2-2.5 1.9 1.8 4-1.4 5.4L86 210l-6.3 3.8-1 .7-2.1-2-.7-6.7-5.6-.9-4-3.8-4-.9v-1.5l4-4.3.2-5.2.9-1-2.3-5.1.8-.3 4.2.9.7-2.9 2.9-1.2 13.6-10.9-1.1-4 1.7-2.1h1.7l5.6 3.9 3.5-1.5h1.1l4 1.9 4.5 4.6 1.4-2.1 3.1 1.2h.2Z"/><path id="VE-M" d="m287.6 135.6-4.9-1.6-5.3.9-3.4-.9-6.1.3-3.6-2.6-6.2 2.4h-3l-10.9-.7-2-2-4.4-1.8-.7-2.4.9-2.2-2.4-3.5V118h-.1l.9-.4 1.7 1.6h3.8l5.5-3.1.2-2.2 1.7.2 2.7-1 12 .8 1.1-.3.4-2.6 1.5-1.2h1.9c0 .1 1.8 2 1.8 2l3.6.5-1.3 1.8.7 2 11.3 9.2 12.8 2.9-5.3 5.2-2.8 1.7h-1.9l-.2.6Z"/><path id="VE-N" d="m409.3 143.7-2.1 3.7-1.6 1.6.5 1.9 1.1 3.1v5.4c-.1 0 2.6 2 2.6 2l.4 5.3 5.9 1.5 2.6-1.2h.9c0 .1.5 2 .5 2v5.1c.1 0-1.3 5-1.3 5l-5.8 5.8-3.9 2.3-5.1.7-2.6 1.2-2.4 2.4h-1.2v-2.1l-12.9-5.2-.6-3.8h2.1l1.5-1.3-.4-1-10.5 1-3.3-7-11.8-9.4-3.5-1.6-4.2 1.1-2.9-7.4 4.5-4.1v-1.2l-1.1-3.7-2.3-2.3-.4-1.6 1.1-2.1-2-3.4-2.7-1.7-.2-1.6.4-1.3 3.8-2.1h.7l4.9-1.9 2-2.1h4.8l4.5-3.2 7.3 4.2 5.4.7 6 3.9 2.6.6 8.7-.4 1.2-2.3-.2-2.9 3-.2 1.7 1.8 2.4 9 2.3 3.3-.2 3.7Z"/><path id="VE-O" d="m353.5 106.6-2.4-.2-.6-1 1-1.2 1.9.2.2 2.2Zm-8.2-1.6h-2.8l-.6-1 3.3-.7.2 1.7Zm12.5-8.2-1.2 2-5.3 2.3h-3.8l-3.9-2.4-.6 1h-3.1l-3.6-1.8v-1.7l3.3-1.5 3 .2 2.9 2.4 2.2.2 2.5-1 .8-2.4 3.1-2.4 1.8.6 1.8 4.4Z"/><path id="VE-P" d="m168.8 141.6 5.2 12.9v2.7c.1 0 6.2 4.2 6.2 4.2l.4 3 2.6 2.3-1.9 3 1.9 5.1-5.8 3.2 2.7 1.2 1.5 3 2.8 1.8v2.3h.1l-2.6 6.2-3.4 1.3-2.3 2.3-.4 7-1.6.3-1.8-.8-3.8-5-5.5-3.9 1.4-2.2-.5-1.1-1.6-.7-.3-1.6-4.1-4.7-2.3-.8-2.3.5-6.1-3.2h-5.8l-5.7-2.4-9.2-7 3.6-5.8v-2.5l-2.2-.8-.4-1.7 3.8-3.7.8-2.5.5-1.5 2.4-2.2h2.5l2.3-1.2v2.2l-2.2 2.8 2.5 1.8.9-.8 3.8.6 1.6-6 1.9-.4 1.5 1.1-.9-2.3 1.1-.3 2.9 1.9.2-.9-1.1-.5v-1.7l.9-.3 1.2 1.9 1.3-.3-1.2-2.2 4.4-6.6 1.2 1.1v4.4l1.9 1 3.1-.7 3.1-2.3.5-.5Z"/><path id="VE-R" d="m400.1 126.1.2 2.9-1.2 2.3-8.7.4-2.6-.6-6-3.9-5.4-.7-7.3-4.2-4.5 3.1h-4.8l-2 2.2-4.9 1.9h-1l-4.3-.9-4 1.6h-3.7l-5.3-2.4-2.2-3.6 3.8-4.2 3.6-1.2 3.1-3.2 5 1.9h6.2l6.7-2.1-7.3-1.7-1-1.5-2.1.8-5.9-.2-3.2 1.5-1.8-3.5 1.7-1.1 1.2.9 7.9-1.1.6 1h3.6l.9-1 11.2.7 10-1.1 2.3-1.6 11.8.6 4.7-2 18.8 1.7 12.5-1.3v1.2c-.1 0-3.1 1.5-3.1 1.5l-10.3 1-3 3.5-13.3-1-4.9.9-1.4 1.1 1.5 1.1-.3 2.4-4.2.3-1.3 1.2-.3 3.4 1.6.7.4-3.4 3.8-.5 2.3-3.1 3.5 3.2.3 6.4 1.8-.6Z"/><path id="VE-S" d="m78.9 214.3-.6 5.4 4.5 4.9-13.7-2.3-3.6 1.6-.3.9-1.2 2.7-2.3.8-4.5-.3-3.1-2.6-6.6.7-.3.8h-2.5c0-.1-.4-1.9-.4-1.9l-1.2-.4-.2-15.4 1.1-3.7 3.1-.9.8-1.5-1.7-1.8-.2-7.2-2-2.3 3.6-1.8.2-1.5 9.7-3.5 1.9-1.8 1.7.3.2 1 3.5-1.2h.4c0-.1 2.3 4.9 2.3 4.9l-.9 1-.2 5.2-3.9 4.3v1.5l3.9.9 4 3.8 5.6.9.7 6.7 2.1 2h.2Z"/><path id="VE-T" d="m132.2 153.5-.8 2.5-3.8 3.7.4 1.7 2.2.8v2.5l-3.6 5.8-1.3-.2-2.6-.8-8.1.8-1.7.2-3.1-1.2-1.4 2.1-4.5-4.6-4-1.8h.2l.4-1.9-2-4.4-4.7-1.2.8-11.1 4.5 1.4 4.2-1.3 2.3-4.7 2.7-1.1-1-3.8.2-1.1.9-.2.6-3.5 1.3-.6 3.5 3v2.3l2.6.9 2.7-.8 3.1 2.4 3.9.2 7 3.8.6 1.2-3.8.6-1.3 2.3v1.6l3.5 4.4v-.3Z"/><path id="VE-U" d="m196.9 112.6.8 1.2-6.1.4-.8 6.5 2 2.7-1.9 3.9 1 5.4h.5c0 .1-2.5 2.8-2.5 2.8l-3.5 1.3-.9-3.5h-2.1c0 .1-4.2 2.5-4.2 2.5l-4.5-3.3-2.2.7-1.4.2h-1.7c0-.1-1.8 1.8-1.8 1.8l-.9 3-.9-.3-2-1.4.5-3.6-3.1-3.5 2.6-1.8 1.1-2.3h4.1c0-.1-.9-4.9-.9-4.9l-1.7-2.7.3-1.9 2.1-1.9 3.2-.7 2.1-2.3 1.1-.3 2.2-2.1 5.4-.7.3 2.8 3.2 2.3h10.6Z"/><path id="VE-V" d="m93.7 157.6 4.7 1.2 2 4.4-.4 1.9h-1.3l-3.5 1.4-5.6-3.9.3-2.9 3.8-2.2Zm-8.2-60.2 7.1 7.2.6 1-.9 3.1 4.2 6.3 3.2 1.7h4.4v.1l1.1 4.4 2.3 1-.7 3.5-6.9 4.3-.6 1.3 2.2 2.5 5.8 2.1-.2 1.2 1 3.8-2.7 1.1-2.3 4.7-4.2 1.3-4.5-1.4.7-2.1-1.7-6.1-3-3.3-1.7-.3-.8-5.3-3.6-3.3-4.3-6.5-.7-2.5 1-.8v-1.7c-.1 0-3.3-1.8-3.3-1.8l1-2.5-1.3-7 3.9.2 1.2-3.1-1.1-2.8h2.5l.7 3.1 1.5-.4.2-3ZM73.3 72l-7.1.8-2.7 1.6-1.8 3.9.7 5.1 1.2.5 2.5 5.7 3 4 4.6 1.4-.6 1.2-3.8-.7-.5 1 2.2 1.6 1.6 6.3 3 2.4-.6 5.6-2.9 4.6-5.3 4.4-2 6.3-4.2 1.8-.6 2.8-5.3 7.6 5.8 7.9v3.9l2 .1 6.4 4.3v2.9l-2 .4-.4 1.5 2.1.8 1 5.2 5.9 1.4 10.5-3.6 1.1 4-13.6 10.9-2.9 1.2-.7 2.9-4.2-.9-1.2.4-3.5 1.2-.2-1-1.7-.3-1.9 1.8-9.7 3.5-.2 1.5-3.6 1.8-7.6-8.7-4.8-18.5-6 .2-2.7-6-7.7 4.8H9.2l.5-2 2.7-2.3v-3.1l7.5-8.6 4.3-7.7-.5-6.6 2.2-4.3.9-10.5 2.3-5.1 4.5-5.5V105l6.2-8.8.6-2.4 1.4-1.4 6.5-.8 10.3-18.1 10.4-4 10.3-2 4.3-2.3 1.2 1.1-.6 1.9-2.2 1.1-9.2 2.6Z"/><path id="VE-W" d="m303.3 96.6 2.9 1.2 1.1 2-1 1.5-4.4.6-3.2-1-.2-3.1 4-1.8.8.5Zm81.6-13.1-1.3 1.6-1-1 .4-2.7h2.4c0 .1.4 1.7.4 1.7l-1 .4Zm-47.7-14.2-1 2.2-.6-2.5 1.5.4Zm-64.9-.3-3.8-2.1 1.2-1.3 3-.3 1.3-1.9 1.3.6.6 3.4-3.5 1.6Zm57-1h-1.6l-1.6-1.5 1.8-3.1h2.1c0-.1.7.8.7.8l.2 2.4-1.7 1.3Zm-72.1-5.6.5 4.4-1.8 2.4-3.6.4-5.7-1.6 7.3-1.1 1.4-2.3-1.6-2.2-1.5 3.3H249c0-.1-2.3-2.1-2.3-2.1l.6-1.9 7.6-1.7 2.2 2.3Zm-29.9-.7-2.6-.2v-1.2l1.3-.2-1.6-1.7 1.3-1.4 2.4 2.6-.7 2Zm-7.1-4.5-.2 3.2-3.2.5-1.1-2.1 1.9-1.7-3.6-1.8 2.4-.6 3.7 2.5Z"/><path id="VE-X" d="m265.5 110.8-.4 2.6-1.1.3-12-.8-2.7 1-1.9-.2-7.2-.6-3.2 3.9-1.4 1-1.8.5-1.5-1-2.8 1.7-1.5-5.2 5.2-.4 8-2.8 9.2-1 15.4.9Z"/><path id="VE-Y" d="m457.4 186.1-2.2-.3.3-1.6h1.8v1.9Zm-3.5-.8h-1.4c0 .1-.2-1.3-.2-1.3l2.2-.5-.5 1.8Zm16.5-4.3-.5 1.8-1.6.4-.6-.8v-1.1l2.8-.4Zm-1.7-.6-1-.6.9-.8.9.9zm-7.3-2.1-2.9 3.7-4.6 1.1v-1.6c.1 0 2.6-.2 2.6-.2l.3-1-1-1.3-2.9 1.7 1.4-2.5 6.6-1.7 1 .3-.4 1.5Zm3.5-1.7-1.5 1-.3-1.4zm2.4 1.6-3.3 3.4-2 .4 2.3-3.7h2.4c0-.1 2.7-2.7 2.7-2.7l.3.9-2.3 1.6Zm-6.5-3-1.6-.2-.9-2 3.7-3.4 1.7.3-.2 2.3-2.7 3.1Zm5.2-5.6-2.7-1.1.9-.9 2.7 1.4-.9.5Zm-9.7 4.1h-1.4l1.4-2.7 5.2-4v1.8l-5.2 4.8Zm7-7.9-1.7.3-.3-.9 1.5-2.2 1.5 1.3-1 1.4Zm4.9-1 1.3.8-.4 1.7-3.8-2.4 1.1-3 1.4.4-.9.9zm-6.8-3-1.4.8-.7-1 2.3-3.1-.8-4.4 1.2-1.5 3.3 2.5 1 2.6-5 4.1Zm-10.9-15-.4.9-1-.2-1.2-1.9.4-.5zm-21.5-3.9.8-.6-1-1.6 1.2-1.2 7.9 2.4-2.1-2.6.8-2 4.2 3 5.6 6.9 12.9 2.6 1.9 8.5-.6 1.6-1.5.7-1.2 3.1-6.9 2.2-.6 1.2.9.6 3.1-1.4.3.9 4.7-2.8-1.7 4.4-3.6 3.3-1 2.8 1.4 1.4-3.1 5-1.1 3.9.6.9 7.4 3.3 2-4.2 1.8.8 7.2-1.5 3.2 1.9 5.9.8.7-1.1 4.5-.8-3.1-.7v-.8l6.3-.2 7 1.9 5.3 3.8 3.6 5v1.6l-1.2 1.5h-1.9c0-.1-4.1 2.5-4.1 2.5l-.6 4.5-1 .8-3.2.3-6.1 4.3-11.2.2-2.7 1.5-2-.7-2.9 2.4-2.8.8-2.1-1.4-1.1-3.1-2.5-.4-4.1 3-5.3 1.7-1.5 1.7-5.4-1.5-4.1-1.8-4.3-7.2H427l-2.7 2-3.5-1.4-2.5-4.7-5.3-3h-6.1l-4.3-5.4-.7-3.5 2.3-.9 5.1-.7 3.9-2.3 5.8-5.8 1.5-5v-5.1h-.1l-.5-1.9h-.9c0-.1-2.6 1.1-2.6 1.1l-5.9-1.5-.4-5.3-2.7-2v-5.4c.1 0-1-3.1-1-3.1l-.5-1.9 1.6-1.6 2.1-3.7 1.4.6 1.7-8.9 3.8-2.3 3.4.9 9.3 8.9Z"/><path id="VE-Z" d="m327.7 343.9-4.1-2.7-2.8.6v2l1.3 2 1.9.4 3.1 6.4 6.5 6.4 8.6 5.3 1.5 2.7-.2 2.9-1.1 1 .2 12.5 4 4.4 4.5 8.4v5.2l-1.4 2.8.9 2.6 7 2 7.4-1.1 7.8.5 2.3 5.4-2.1 3.8-6.8 1.3-6.8 4.9h-4.7l-3.8 1.7-1.9 3.9-.9 8.5-6.4 5.5h-2.3l-.3-1.4h-2.4l-11.5 8.9-5.2-1.3-6.1 4.8-5.8 1.8-1.2 6.6-5.4.8-2.5 2.7-1.2 5.4-1.9.7-2.8-.6 2.7-4.3v-4.4l-1.4-2-2.9-.5-4.5.3-5.1 2.5-3.8 4.4-4.8 1.8-7.6-.3-20.5-17.7v-4l-1.2-.5-.7-8.3-1.6-1.6-4.4-11.7-.4-4.8-1.3-.8-1.5-3.7-.4-2.2 1.4-2.3-1.3-2.1-3.2-1.7-1.4-2.5-6-5.2h-2.5l-.3-2.5-2-2.3-8.9-1.2 14.9-13.1 2.6-.4-.3-2.4 4.8-4-.2-2.4-5.4-3.1-.4-5.3-1.4-1.5-5-.9-1.6-5.7-1-.6v-1.9c.1 0 1.8-1.4 1.8-1.4l-.8-1.8-5.2-4-.7-3.8.9-4.3-.6-2.3-1.7-1.1-.5-2.7v-2.4l1.4-1.9v-11.3l1.6-3.5h-1.6c0-.1-.3-1.5-.3-1.5l.3-6.6 6.2-4.6 1.3-2 .3-9.3 6.3-8.1 1.8-.3-.2-2.6-1.3-.2-.7-3.3 10 2.8.8 5.4-1.1.5v7.8c.1 0 3.6-.3 3.6-.3l1.4 1.5 1.9.3 4.2-1.5 9.5-.5 3.9-2 5.4-5.1 2.2-.3 1.6 6.5 4.1-1.8h2.7c0 .1 2.6-1.1 2.6-1.1l4.1-5 2.2-5 5.3-1.5 2.6.7.8 1.6-1.6 7.2v3.9c.1 0 2 2.4 2 2.4h2l3.4-3.4 7.2 1 .4 1.1-1.8 2.4 4.7 5-.3 1.9-1.4.5v1.8c.1 0 2.6 1.8 2.6 1.8l-.8 2.6-5 1.1 2.6 8.8 8.4 13.1 6.1 3.2 1.5-.8 4.1 1.2.4 4.2 1.1 1.4-.3 7.1Z"/></g></svg>