<?xml version="1.0" encoding="UTF-8"?>
<svg id="Layer_1" xmlns="http://www.w3.org/2000/svg" xmlns:amcharts="http://amcharts.com/ammap" version="1.1" viewBox="0 0 512 512">
  <!-- Generator: Adobe Illustrator 29.1.0, SVG Export Plug-In . SVG Version: 2.1.0 Build 142)  -->
  <g id="_x3C_defs">
    <amcharts:ammap bottomLatitude="0.644674" leftLongitude="-73.388293" projection="mercator" rightLongitude="-59.804557" topLatitude="12.544056"/>
  </g>
  <g>
    <path id="AW" d="M130.5,40.2l.7-.5.7,1.7,3.1,1.8,1.5,2.2-.6,1.7-1.7-.3-5.1-4.4,1.4-2.1Z"/>
    <path id="BQ" d="M196,53.7l-1,7.4-1.7-1.2-.6-4.4-4.2-2.3-.2-1.6,2.5-1,5.2,3.1Z"/>
    <path id="CW" d="M169.9,54.7l3.5,1.3,3.9,4.5-1.6.6-.3-1.1h-3.8c0,.1-4.2-3-4.2-3l-5.8-7.3v-1.4c.1,0,3.9.9,3.9.9l.7,3.3,3.7,2Z"/>
    <path id="VE-A" d="M247.6,113.7l-.2,2.2-5.5,3.1h-3.8l-1.7-1.6h0l.5-.6h0l3.2-3.9,7.2.6h.2Z"/>
    <path id="VE-B" d="M397.7,191.4l-2.5.6-3.8,3.7-8.3-2.3-2.6.7-1.4-.7-11.5,7.5-4.3-.5-5,1.6-4.2,5.1-3,1.9-4.5-.5-4.7-4.3h-1.7c0-.1-5.1,2.4-5.1,2.4l-3.7-.7-3.3,2.8.5,2.9,2,1.4-.6,2-3.4.2-7.3,3.9-2.9-.2-6.3-4.7-11.7-3h0l-1.2-.9h0l-1.8-1.8.9-3.7,10.1-13,1.7-6.1-.8-2.7.8-2.8,1.1-1h6.3c0,0,1.5,1.7,1.5,1.7h2l2.5-6-.7-1.6-6.1-3.5v-2l-1.8-1.8-5.7-2-2.7-2.7-2-3.2.5-1.4,3.4-1.8-.2-1.2-4.3-1.9-4.2-3.8-1.5,1.3h-6.4v-2.2l-1.3-.6.4-5.6-1.6-4.6h0l.3-1.1h1.9c0,0,2.8-1.6,2.8-1.6l5.3-5.2h0l12.8,3,9.3-.8,3.4-1.1.6-2.4,3-1.9,5.6-.5h0l2.2,3.6,5.3,2.4h3.7l4-1.6,4.3.9h.3l-3.8,2.1-.4,1.3.2,1.6,2.7,1.7,2,3.4-1.1,2.1.4,1.6,2.3,2.3,1.1,3.7v1.2l-4.5,4.1,2.9,7.4,4.2-1.1,3.5,1.6,11.8,9.4,3.3,7,10.5-1,.4,1-1.5,1.4h-2.1c0,0,.6,3.7.6,3.7l12.9,5.2h0v1.9Z"/>
    <path id="VE-C" d="M265.9,219.1l-3.8,2-6.4,9.9-5.5,1.5-6.2,4.1h-2.4c0-.1-3.8,1.5-3.8,1.5l-1.8,4.6,3.1,2.4-.4,6.6-1.9,2.3-1.9,5.4v3.8c-.1,0-1.2,1.9-1.2,1.9l-2.4,1.2-.7,1.9-5.6,4h0l-5.2-2.3-7.8-1.3-3.7.8-1.2,2.1-1.6.5-5.6-1.2-2.1,2-1.4-1.1-3.3,1.1-3.2-1.1-6.8.9-1.6,1.3-16.5-3.8-2.3.5-3,5.1-1.9-.2-.8-2.2-4.1,1.1-1.4-1v-1.7c.1,0-6.8-6-6.8-6l-.4-2.7-10.5-11.8-5.9-8.6-8.1,1.6-1.3-1.9-3.6-1.3-1.8-2.4h-12.6l-4.6,4.2h-2.3c0,0-1.3-1.7-1.3-1.7l-16.3-.2-1.2-1.5h-1.8c0,0-6.6,2.3-6.6,2.3l-6,.2-5.9-6.6-.7-3.3,1.2-2.4-2.9-2-4.7-.8h0l.3-.8,6.6-.7,3.1,2.6,4.5.3,2.3-.8,1.2-2.7h0v-.2h2.6l2.8,2.2,2.2.3,1.1-.8,1.5.8,7.7-.8,4.9,1,2.7,2.2,6.4,1.8,9.8.9,1.9-.7.3-1.1h2.6c0,.1,3.2-3,3.2-3l3.7-1.5,1.8-5.4,5.4-.8,4.3-3.7h3.2c0-.1,4.1-3.2,4.1-3.2l3.7.3,10.3-7.7h12c0,.1,1.9,1.3,1.9,1.3l3.9.3,4.6,3.1,13.7-1.2,5,1.1,5.7-1.5,11,1.9,11.3-2.8h0l1.5,1.7h0l11.9,5.1,8.5.5,10.1,3.4,1.6-3.1,5-1.2,3.2,2.4,2.4.3.7,1.8h0l.7.8Z"/>
    <path id="VE-D" d="M223.2,134.8l-1.9-1.3-4.2-.4,1.3-8.7-.9-2.5-5.6-.4-2.3-1.7v-1.4c.1,0,3-2.5,3-2.5h0l15.2-1.7h0l1.5,5.2,2.8-1.7,1.5,1,1.8-.5h0s.1,3.5.1,3.5l2.4,3.5-.9,2.2.7,2.4,4.4,1.8,2,2,10.9.8h.1l1,6.1-2.3,2.7,2.8,3,.3,1.7-1,1,.9,4.4-4,5.7-11.2-5.3-.5-2.5,3.5-1,1.3-2v-1.9l-2.7-2.7-2.5-1.1-6.1-5.6h-2.7l-4.9-2.3-4.1.4h0Z"/>
    <path id="VE-E" d="M220.2,207.5l-11.3,2.8-11-1.9-5.7,1.5-5-1.1-13.7,1.2-4.6-3.1-3.9-.3-1.9-1.2h-12c0-.1-10.3,7.6-10.3,7.6l-3.7-.3-4.1,3.1h-3.2c0,.1-4.3,3.8-4.3,3.8l-5.4.8-1.8,5.4-3.7,1.5-3.2,3.1h-2.6c0-.1-.3.9-.3.9l-1.9.7-9.8-.9-6.4-1.8-2.7-2.2-4.9-1-5.7.8-3.5-.8-1.1.8-2.2-.3-2.8-2.2h-2.5l.2-.7h0l3.6-1.6,13.7,2.3-4.5-4.9.6-5.4h0l.8-.6h0l6.3-3.8,8.3-8.2,1.4-5.4-1.8-4,2.5-1.9,1.7-6.2,5-5.1,3.5-1.3,1.2-1.9,3.7-1.7-.3-1,1.9-2.8h0l1.5-.2h0l8.1-.8,2.6.8h0l1.3.2h0l9.2,7,5.7,2.4h5.8l6.1,3.2,2.3-.5,2.3.8,4.1,4.7.3,1.6,1.6.7.5,1.1-1.4,2.2,5.5,3.9,3.8,5,1.8.8,1.6-.3.4-7,2.3-2.3,3.4-1.3,2.6-6.2h0v-1.8h-.1l10.3.8,4.3-.7,3.8,2.4h0l.5.4h0l1.6,1.2v2.7c-.1,0,5.1,2,5.1,2l4.6,5.1,3.6,1.5v2.8c-.1,0,1.6,4.3,1.6,4.3h0l.3.3Z"/>
    <path id="VE-F" d="M327.7,343.9l.3-7.1-1.1-1.4-.4-4.2-4.1-1.2-1.5.8-6.1-3.2-8.4-13.1-2.6-8.8,5-1.1.8-2.6-2.4-1.8v-1.8c-.1,0,1.2-.5,1.2-.5l.3-1.9-4.7-5,1.8-2.4-.4-1.1-7.2-1-3.4,3.4h-2l-1.9-2.4v-3.9c-.1,0,1.5-7.2,1.5-7.2l-.8-1.6-2.6-.7-5.3,1.5-2.2,5-4.1,5-2.6,1.2h-2.7c0-.1-4.1,1.6-4.1,1.6l-1.6-6.5-2.2.3-5.4,5.1-3.9,2-9.5.5-4.2,1.5-1.9-.3-1.4-1.5-3.5.3v-7.8c-.1,0,.9-.5.9-.5l-.8-5.4-10-2.8h0v-1.2h.1l5.6-4,.7-1.9,2.4-1.2,1.1-1.9v-3.8c.1,0,2-5.4,2-5.4l1.9-2.3.4-6.6-3.1-2.4,1.8-4.6,3.8-1.6h2.4c0,.1,6.2-3.9,6.2-3.9l5.5-1.5,6.4-9.9,3.8-2h0l.7.7h0l2.6.3,3.5-3.1,5.5,1.6,3.9-1.1,4.9-5.8,5.4-1.9,4.6,2,1.5-.7h0s11.7,3,11.7,3l6.3,4.7,2.9.2,7.3-3.9,3.4-.2.6-2-2-1.4-.5-2.9,3.3-2.8,3.7.7,5.1-2.5h1.7c0,.1,4.7,4.4,4.7,4.4l4.5.5,3-1.9,4.2-5.1,5-1.6,4.3.5,11.5-7.5,1.4.7,2.6-.7,8.3,2.3,3.8-3.7,2.5-.6h0v.2h0,1.2l2.4-2.4h0l.7-.3.4,3.4h0l4.3,5.4h6.1l5.3,3,2.5,4.7,3.6,1.4,2.7-1.9h5.6c0,0,4.3,7.1,4.3,7.1h0l4.1,1.8h0l5.4,1.5,1.5-1.7,5.3-1.7,4.1-3,2.5.4,1.1,3.1,2.1,1.4,2.8-.8,2.9-2.4,2,.7,2.7-1.5,11.2-.2h0l-2.6,2.2-5.5.2-1.3,1.3-1.4,6.1-4.4,2-.2,1.6,1,3.1,3.5,4.3-1.6,2.5,2.9,2.5,7.7-.2,3.2,3.3-.7,1.5-7.9,6.6-5.9,1.4-2,2.7-6.7-1.3-1.3,1.8-3,.9-7.3-1.7,3.2,9.8v8.4c.1,0,1.1,0,1.1,0v2.4l-5.7,4.7-.7,2.1-4.3,2,28.6,32.2.8,4.5-4.2,4.7-6.8,4.5-.8,3.2-1.7,2-4.1.8-8.1-.8-.3,3.9-6.2.7-.9,1v3.1c0,0-1.3,1.5-1.3,1.5h-5.7l-4.6,3.9h-7c0,0-4.9,2.2-4.9,2.2l-10.2-2.9-4.9,5.7h-6.2s-1.8,2.2-1.8,2.2l2.7,8.1-1.9,3.9-2.6,1.9-3.3-.5-14.1-14.4h-3.2c0,.1-1.3,3.8-1.3,3.8l-1.5.3-4.2-3.4h-2.9l-1.2,1-5.2-1-5.1,3.2-1.7-1.1-1-4.5-3-2.7-7.1-1.1-7.4.8-2.6-2.7Z"/>
    <path id="VE-G" d="M212.6,115.8l-2.9,2.5v1.4c-.1,0,2.2,1.7,2.2,1.7l5.6.4.9,2.5-1.3,8.7,4.2.4,1.9,1.3h0l-.3,1.8h0l-5.4,3.3h-1.4c0-.1-2.9-3.3-2.9-3.3h-1.2c0,.1-.8,1.9-.8,1.9h0v1.1h0l-3.8.2-10.5-5-.2-2.6,1.6-1.8-1.1-1.6-4.5,4.1h0l-.9-.2h0l-1-5.4,1.9-3.9-2-2.7.8-6.5,6.1-.4h0l2.4,2.5,7.9.7,4.7-1.2Z"/>
    <path id="VE-H" d="M211.2,138.7l2.6,2.8.8,2.6-1.6,2.3-6.1,3,1.5,10.1,1.9,3.2v7.2l-6.5,8.7,1.1,1.8v5.8c.1,0-1.1.4-1.1.4v1.4h.1l-1.1-.9h0l-3.8-2.4-4.3.7-10.3-.8h0v-.5h0l-2.8-1.8-1.5-3-2.7-1.2,5.8-3.2-1.9-5.1,1.9-3-2.6-2.3-.4-3-6.1-4.2v-2.7c-.1,0-5.3-12.9-5.3-12.9h0l.3-.4h0l2-3.5.2-4.3h0l1.1-.2h0l2.2-.7,4.5,3.3,4.2-2.4h2.1c0-.1.9,3.3.9,3.3l3.5-1.3,2.5-2.7h.4c0,0,4.5-4,4.5-4l1.1,1.6-1.6,1.8.2,2.6,10.5,5,3.8-.2h0v-.9Z"/>
    <path id="VE-I" d="M174.1,110.6l-2.2-2.2-6,1.6-6.6-1.9-7.4.8-7-3.1-3.5,2.5-2.6-.3.4-1.1-19.4,7.5-5.6.3-7.8,2.3h0l-2.3-.2h-4.4c0-.1-3.2-1.8-3.2-1.8l-4.2-6.3.9-3.1-.6-1-7.1-7.2h0l8.7-5.2,8-3.3,11.5-1.4,12.3-4.9,2.6-2.5,2.9-.3.2-2h2.6l2.7,2.6,5-.5.6-3.2-2.4-5.1-2.8-.4-11.7,3.2-.8-1,.7-5.3-2.4-2.6-.5-3.1,2.2-4.6,1.4-2.2,3.4-2.2,5.8-.7,3.2,3.9,2.2,10,4.7,10.8,2.8,1.5,4.7-1.5,2.3,1,3.1-1.5,8.7,2.8,7,.4,14.7,8.6,6,7.5v2.2l-1.2,1.3,1.4,1.4-1.5,3.9,3.4,7.4h-10.6c0,.1-3.2-2.2-3.2-2.2l-.3-2.8-5.4.7-2.2,2.1h0l-.9.2Z"/>
    <path id="VE-J" d="M298.5,211.2l-1.5.7-4.6-2-5.4,1.9-4.9,5.8-3.9,1.1-5.5-1.6-3.5,3.1-2.6-.3h0l-1.4-1.5h0l-.7-1.8-2.4-.3-3.2-2.4-5,1.2-1.6,3.1-10.1-3.4-8.5-.5-11.9-5.1h0l-1.8-2h0l-1.8-4.3v-2.8c.1,0-3.5-1.5-3.5-1.5l-4.6-5.1-5.3-2v-2.7c.1,0-1.4-1.2-1.4-1.2h0l.6.5h0v-1.4c-.1,0,1.1-.4,1.1-.4v-5.8c-.1,0-1.2-1.8-1.2-1.8l6.5-8.7v-7.2l-1.9-3.2-1.5-10.1,6.1-3,1.6-2.3-.8-2.6-2.6-2.8h0v-.2h0l.8-1.8h1.2c0-.1,2.9,3,2.9,3h1.4c0,.1,5.4-3.1,5.4-3.1h0l.3-1.8h0l4.1-.4,4.9,2.3h2.7l6.1,5.6,2.5,1.1,2.7,2.7v1.9l-1.3,2-3.5,1,.5,2.5,11.2,5.3,4-5.7-.9-4.4,1-1-.3-1.7-2.8-3,2.3-2.7-1-6.1h2.9c0,0,6.2-2.5,6.2-2.5l3.6,2.6,6.1-.3,3.4.9,5.3-.9,4.9,1.6h0v.4h-.1l1.6,4.6-.4,5.6,1.3.6v2.2h6.4l1.5-1.3,4.2,3.8,4.3,1.9.2,1.2-3.4,1.8-.5,1.4,2,3.2,2.7,2.7,5.7,2,1.8,1.8v2l6.1,3.5.7,1.6-2.5,6h-2l-1.5-1.8h-6.3c0,0-1.1,1.1-1.1,1.1l-.8,2.8.8,2.7-1.7,6.1-10.1,13-.9,3.7,1.8,1.8h0l1.2.9Z"/>
    <path id="VE-K" d="M171.3,133.3l-.2,4.3-2,3.5h0l-.8.9h0l-3.1,2.3-3.1.7-2-1v-4.4c0,0-1.1-1.1-1.1-1.1l-4.4,6.6,1.2,2.2-1.3.3-1.2-1.9-.9.3.9,3.1-2.9-1.9-1.1.3.9,2.3-1.5-1.1-1.9.4-1.6,6-3.8-.6-.9.8-2.5-1.8,2.1-2.8v-2.2c0,0-2.2,1.3-2.2,1.3h-2.5c0,0-2.4,2.1-2.4,2.1h0l-.6,1.7h0l-3.5-4.4v-1.6l1.3-2.3,3.8-.6-.6-1.2-7-3.8-3.9-.2-3.1-2.4-2.7.8-2.6-.9v-2.3l-3.5-3-1.3.6-.6,3.5-.9.2h0v-.2h0l-5.8-2.1-2.2-2.5.6-1.3,6.9-4.3.7-3.5-2.3-1-1.1-4.4h0l2.2.2h0l7.8-2.3,5.6-.3,19.4-7.5-.4,1.1,2.6.3,3.5-2.5,7,3.1,7.4-.8,6.6,1.9,6-1.6,2.2,2.2h-.2c0,0-2.1,2.4-2.1,2.4l-3.2.7-2.1,1.9-.3,1.9,1.7,2.7.9,4.8h-4.1c0,.1-1.1,2.4-1.1,2.4l-2.6,1.8,3.1,3.5-.5,3.6,2,1.4.9.3.9-3,1.8-1.9h1.7c0,.1.3,0,.3,0Z"/>
    <path id="VE-L" d="M113.1,170.5l-1.9,2.8.3,1-3.7,1.7-1.2,1.9-3.5,1.3-5,5.1-1.7,6.2-2.5,1.9,1.8,4-1.4,5.4-8.3,8.2-6.3,3.8h0l-1,.7h0l-2.1-2-.7-6.7-5.6-.9-4-3.8-4-.9v-1.5c0,0,4-4.3,4-4.3l.2-5.2.9-1-2.3-5.1h0l.8-.3h0l4.2.9.7-2.9,2.9-1.2,13.6-10.9-1.1-4h0l1.7-2.1h1.7c0,0,5.6,3.9,5.6,3.9l3.5-1.5h1.1c0,0,4,1.9,4,1.9l4.5,4.6,1.4-2.1,3.1,1.2h.2Z"/>
    <path id="VE-M" d="M287.6,135.6l-4.9-1.6-5.3.9-3.4-.9-6.1.3-3.6-2.6-6.2,2.4h-3c0,0-10.9-.7-10.9-.7l-2-2-4.4-1.8-.7-2.4.9-2.2-2.4-3.5v-3.5h-.1l.9-.4h0l1.7,1.6h3.8l5.5-3.1.2-2.2h0l1.7.2h0l2.7-1,12,.8,1.1-.3.4-2.6h0l1.5-1.2h1.9c0,.1,1.8,2,1.8,2l3.6.5-1.3,1.8.7,2,11.3,9.2,12.8,2.9h0l-5.3,5.2-2.8,1.7h-1.9c0,0-.2.6-.2.6Z"/>
    <path id="VE-N" d="M409.3,143.7l-2.1,3.7h0l-1.6,1.6.5,1.9h0l1.1,3.1v5.4c-.1,0,2.6,2,2.6,2l.4,5.3,5.9,1.5,2.6-1.2h.9c0,.1.5,2,.5,2h0v5.1c.1,0-1.3,5-1.3,5l-5.8,5.8-3.9,2.3-5.1.7h0l-2.6,1.2h0l-2.4,2.4h-1.2v-2.1h0l-12.9-5.2-.6-3.8h2.1c0,0,1.5-1.3,1.5-1.3l-.4-1-10.5,1-3.3-7-11.8-9.4-3.5-1.6-4.2,1.1-2.9-7.4,4.5-4.1v-1.2l-1.1-3.7-2.3-2.3-.4-1.6,1.1-2.1-2-3.4-2.7-1.7-.2-1.6.4-1.3,3.8-2.1h.7l4.9-1.9,2-2.1h4.8c0,0,4.5-3.2,4.5-3.2l7.3,4.2,5.4.7,6,3.9,2.6.6,8.7-.4,1.2-2.3-.2-2.9h0l3-.2,1.7,1.8,2.4,9,2.3,3.3-.2,3.7Z"/>
    <path id="VE-O" d="M353.5,106.6l-2.4-.2-.6-1,1-1.2,1.9.2.2,2.2ZM345.3,105h-2.8l-.6-1,3.3-.7.2,1.7ZM357.8,96.8l-1.2,2-5.3,2.3h-3.8c0,0-3.9-2.4-3.9-2.4l-.6,1h-3.1c0,0-3.6-1.8-3.6-1.8v-1.7c0,0,3.3-1.5,3.3-1.5l3,.2,2.9,2.4,2.2.2,2.5-1,.8-2.4,3.1-2.4,1.8.6,1.8,4.4Z"/>
    <path id="VE-P" d="M168.8,141.6l5.2,12.9v2.7c.1,0,6.2,4.2,6.2,4.2l.4,3,2.6,2.3-1.9,3,1.9,5.1-5.8,3.2,2.7,1.2,1.5,3,2.8,1.8h0v2.3h.1l-2.6,6.2-3.4,1.3-2.3,2.3-.4,7-1.6.3-1.8-.8-3.8-5-5.5-3.9,1.4-2.2-.5-1.1-1.6-.7-.3-1.6-4.1-4.7-2.3-.8-2.3.5-6.1-3.2h-5.8l-5.7-2.4-9.2-7h0s3.6-5.8,3.6-5.8v-2.5l-2.2-.8-.4-1.7,3.8-3.7.8-2.5h0l.5-1.5h0l2.4-2.2h2.5c0,0,2.3-1.2,2.3-1.2v2.2c0,0-2.2,2.8-2.2,2.8l2.5,1.8.9-.8,3.8.6,1.6-6,1.9-.4,1.5,1.1-.9-2.3,1.1-.3,2.9,1.9.2-.9-1.1-.5v-1.7l.9-.3,1.2,1.9,1.3-.3-1.2-2.2,4.4-6.6,1.2,1.1v4.4c0,0,1.9,1,1.9,1l3.1-.7,3.1-2.3h0l.5-.5Z"/>
    <path id="VE-R" d="M400.1,126.1l.2,2.9-1.2,2.3-8.7.4-2.6-.6-6-3.9-5.4-.7-7.3-4.2-4.5,3.1h-4.8c0,0-2,2.2-2,2.2l-4.9,1.9h-1l-4.3-.9-4,1.6h-3.7l-5.3-2.4-2.2-3.6h0l3.8-4.2,3.6-1.2,3.1-3.2,5,1.9h6.2c0,0,6.7-2.1,6.7-2.1l-7.3-1.7-1-1.5-2.1.8-5.9-.2-3.2,1.5-1.8-3.5,1.7-1.1,1.2.9,7.9-1.1.6,1h3.6l.9-1,11.2.7,10-1.1,2.3-1.6,11.8.6,4.7-2,18.8,1.7,12.5-1.3v1.2c-.1,0-3.1,1.5-3.1,1.5l-10.3,1-3,3.5-13.3-1-4.9.9-1.4,1.1,1.5,1.1-.3,2.4-4.2.3-1.3,1.2-.3,3.4,1.6.7.4-3.4,3.8-.5,2.3-3.1,3.5,3.2.3,6.4,1.8-.6Z"/>
    <path id="VE-S" d="M78.9,214.3l-.6,5.4,4.5,4.9-13.7-2.3-3.6,1.6h0l-.3.9h0l-1.2,2.7-2.3.8-4.5-.3-3.1-2.6-6.6.7-.3.8h-2.5c0-.1-.4-1.9-.4-1.9l-1.2-.4-.2-15.4,1.1-3.7,3.1-.9.8-1.5-1.7-1.8-.2-7.2-2-2.3h0l3.6-1.8.2-1.5,9.7-3.5,1.9-1.8,1.7.3.2,1,3.5-1.2h.4c0-.1,2.3,4.9,2.3,4.9l-.9,1-.2,5.2-3.9,4.3v1.5c0,0,3.9.9,3.9.9l4,3.8,5.6.9.7,6.7,2.1,2h.2Z"/>
    <path id="VE-T" d="M132.2,153.5l-.8,2.5-3.8,3.7.4,1.7,2.2.8v2.5l-3.6,5.8h0l-1.3-.2h0l-2.6-.8-8.1.8h0l-1.7.2h0l-3.1-1.2-1.4,2.1-4.5-4.6-4-1.8h.2s.4-1.9.4-1.9l-2-4.4-4.7-1.2h0l.8-11.1h0l4.5,1.4,4.2-1.3,2.3-4.7,2.7-1.1-1-3.8h0l.2-1.1h0l.9-.2.6-3.5,1.3-.6,3.5,3v2.3l2.6.9,2.7-.8,3.1,2.4,3.9.2,7,3.8.6,1.2-3.8.6-1.3,2.3v1.6l3.5,4.4h0v-.3Z"/>
    <path id="VE-U" d="M196.9,112.6l.8,1.2h0l-6.1.4-.8,6.5,2,2.7-1.9,3.9,1,5.4h.5c0,.1-2.5,2.8-2.5,2.8l-3.5,1.3-.9-3.5h-2.1c0,.1-4.2,2.5-4.2,2.5l-4.5-3.3-2.2.7h0l-1.4.2h-1.7c0-.1-1.8,1.8-1.8,1.8l-.9,3-.9-.3-2-1.4.5-3.6-3.1-3.5,2.6-1.8,1.1-2.3h4.1c0-.1-.9-4.9-.9-4.9l-1.7-2.7.3-1.9,2.1-1.9,3.2-.7,2.1-2.3h0l1.1-.3h0l2.2-2.1,5.4-.7.3,2.8,3.2,2.3h10.6Z"/>
    <path id="VE-V" d="M93.7,157.6l4.7,1.2,2,4.4-.4,1.9h-1.3c0,0-3.5,1.4-3.5,1.4l-5.6-3.9h0l.3-2.9,3.8-2.2ZM85.5,97.4l7.1,7.2.6,1-.9,3.1,4.2,6.3,3.2,1.7h4.4c0,0,0,.1,0,.1h0l1.1,4.4,2.3,1-.7,3.5-6.9,4.3-.6,1.3,2.2,2.5,5.8,2.1h0l-.2,1.2h0l1,3.8-2.7,1.1-2.3,4.7-4.2,1.3-4.5-1.4h0l.7-2.1-1.7-6.1-3-3.3-1.7-.3-.8-5.3-3.6-3.3-4.3-6.5-.7-2.5,1-.8v-1.7c-.1,0-3.3-1.8-3.3-1.8l1-2.5-1.3-7,3.9.2,1.2-3.1-1.1-2.8h2.5c0,0,.7,3.1.7,3.1l1.5-.4.2-3ZM73.3,72l-7.1.8-2.7,1.6-1.8,3.9.7,5.1,1.2.5,2.5,5.7,3,4,4.6,1.4-.6,1.2-3.8-.7-.5,1,2.2,1.6,1.6,6.3,3,2.4-.6,5.6-2.9,4.6-5.3,4.4-2,6.3-4.2,1.8-.6,2.8-5.3,7.6,5.8,7.9v3.9c0,0,2,.1,2,.1l6.4,4.3v2.9s-2,.4-2,.4l-.4,1.5,2.1.8,1,5.2,5.9,1.4,10.5-3.6h0l1.1,4-13.6,10.9-2.9,1.2-.7,2.9-4.2-.9h0l-1.2.4h0l-3.5,1.2-.2-1-1.7-.3-1.9,1.8-9.7,3.5-.2,1.5-3.6,1.8h0l-7.6-8.7-4.8-18.5-6,.2-2.7-6-7.7,4.8h-5.7s.5-2,.5-2l2.7-2.3v-3.1c0,0,7.5-8.6,7.5-8.6l4.3-7.7-.5-6.6,2.2-4.3.9-10.5,2.3-5.1,4.5-5.5v-2.8s6.2-8.8,6.2-8.8l.6-2.4,1.4-1.4,6.5-.8,10.3-18.1,10.4-4,10.3-2,4.3-2.3,1.2,1.1-.6,1.9-2.2,1.1-9.2,2.6Z"/>
    <path id="VE-W" d="M303.3,96.6l2.9,1.2,1.1,2-1,1.5-4.4.6-3.2-1-.2-3.1,4-1.8.8.5ZM384.9,83.5l-1.3,1.6-1-1,.4-2.7h2.4c0,.1.4,1.7.4,1.7l-1,.4ZM337.2,69.3l-1,2.2-.6-2.5,1.5.4ZM272.3,69l-3.8-2.1,1.2-1.3,3-.3,1.3-1.9,1.3.6.6,3.4-3.5,1.6ZM329.3,68h-1.6l-1.6-1.5,1.8-3.1h2.1c0-.1.7.8.7.8l.2,2.4-1.7,1.3ZM257.2,62.4l.5,4.4-1.8,2.4-3.6.4-5.7-1.6,7.3-1.1,1.4-2.3-1.6-2.2-1.5,3.3h-3.2c0-.1-2.3-2.1-2.3-2.1l.6-1.9,7.6-1.7,2.2,2.3ZM227.3,61.7l-2.6-.2v-1.2l1.3-.2-1.6-1.7,1.3-1.4,2.4,2.6-.7,2ZM220.2,57.2l-.2,3.2-3.2.5-1.1-2.1,1.9-1.7-3.6-1.8,2.4-.6,3.7,2.5Z"/>
    <path id="VE-X" d="M265.5,110.8l-.4,2.6-1.1.3-12-.8-2.7,1h0l-1.9-.2h0l-7.2-.6-3.2,3.9h0l-1.4,1h0l-1.8.5-1.5-1-2.8,1.7-1.5-5.2h0l5.2-.4,8-2.8,9.2-1,15.4.9Z"/>
    <path id="VE-Y" d="M457.4,186.1l-2.2-.3.3-1.6h1.8c0-.1,0,1.9,0,1.9h0ZM453.9,185.3h-1.4c0,.1-.2-1.3-.2-1.3l2.2-.5-.5,1.8ZM470.4,181l-.5,1.8-1.6.4-.6-.8v-1.1l2.8-.4ZM468.7,180.4l-1-.6.9-.8.9.9-.8.5ZM461.4,178.3l-2.9,3.7-4.6,1.1v-1.6c.1,0,2.6-.2,2.6-.2l.3-1-1-1.3-2.9,1.7,1.4-2.5,6.6-1.7,1,.3-.4,1.5ZM464.9,176.6l-1.5,1-.3-1.4,1.8.4ZM467.3,178.2l-3.3,3.4-2,.4,2.3-3.7h2.4c0-.1,2.7-2.7,2.7-2.7l.3.9-2.3,1.6ZM460.8,175.2l-1.6-.2-.9-2,3.7-3.4,1.7.3-.2,2.3-2.7,3.1ZM466,169.6l-2.7-1.1.9-.9,2.7,1.4-.9.5ZM456.3,173.7h-1.4l1.4-2.7,5.2-4v1.8l-5.2,4.8ZM463.3,165.8l-1.7.3-.3-.9,1.5-2.2,1.5,1.3-1,1.4ZM468.2,164.8l1.3.8-.4,1.7-3.8-2.4,1.1-3,1.4.4-.9.9,1.3,1.6ZM461.4,161.8l-1.4.8-.7-1,2.3-3.1-.8-4.4,1.2-1.5,3.3,2.5,1,2.6-5,4.1ZM450.5,146.8l-.4.9-1-.2-1.2-1.9.4-.5,2.2,1.7ZM429,142.9l.8-.6-1-1.6,1.2-1.2,7.9,2.4-2.1-2.6.8-2,4.2,3,5.6,6.9,12.9,2.6,1.9,8.5-.6,1.6-1.5.7-1.2,3.1-6.9,2.2-.6,1.2.9.6,3.1-1.4.3.9,4.7-2.8-1.7,4.4-3.6,3.3-1,2.8,1.4,1.4-3.1,5-1.1,3.9.6.9,7.4,3.3,2-4.2,1.8.8,7.2-1.5,3.2,1.9,5.9.8.7-1.1,4.5-.8-3.1-.7v-.8s6.3-.2,6.3-.2l7,1.9,5.3,3.8,3.6,5v1.6l-1.2,1.5h-1.9c0-.1-4.1,2.5-4.1,2.5l-.6,4.5-1,.8-3.2.3-6.1,4.3h0l-11.2.2-2.7,1.5-2-.7-2.9,2.4-2.8.8-2.1-1.4-1.1-3.1-2.5-.4-4.1,3-5.3,1.7-1.5,1.7-5.4-1.5h0l-4.1-1.8h0l-4.3-7.2h-5.6c0,0-2.7,2-2.7,2l-3.5-1.4-2.5-4.7-5.3-3h-6.1l-4.3-5.4h0l-.7-3.5,2.3-.9h0l5.1-.7,3.9-2.3,5.8-5.8,1.5-5v-5.1h-.1l-.5-1.9h-.9c0-.1-2.6,1.1-2.6,1.1l-5.9-1.5-.4-5.3-2.7-2v-5.4c.1,0-1-3.1-1-3.1h0l-.5-1.9,1.6-1.6h0l2.1-3.7h0l1.4.6,1.7-8.9,3.8-2.3,3.4.9,9.3,8.9Z"/>
    <path id="VE-Z" d="M327.7,343.9l-4.1-2.7-2.8.6v2c0,0,1.3,2,1.3,2l1.9.4,3.1,6.4,6.5,6.4,8.6,5.3,1.5,2.7-.2,2.9-1.1,1,.2,12.5,4,4.4,4.5,8.4v5.2c0,0-1.4,2.8-1.4,2.8l.9,2.6,7,2,7.4-1.1,7.8.5,2.3,5.4-2.1,3.8-6.8,1.3-6.8,4.9h-4.7c0,0-3.8,1.7-3.8,1.7l-1.9,3.9-.9,8.5-6.4,5.5h-2.3l-.3-1.4h-2.4l-11.5,8.9-5.2-1.3-6.1,4.8-5.8,1.8-1.2,6.6-5.4.8-2.5,2.7-1.2,5.4-1.9.7-2.8-.6,2.7-4.3v-4.4c0,0-1.4-2-1.4-2l-2.9-.5-4.5.3-5.1,2.5-3.8,4.4-4.8,1.8-7.6-.3-20.5-17.7v-4c0,0-1.2-.5-1.2-.5l-.7-8.3-1.6-1.6-4.4-11.7-.4-4.8-1.3-.8-1.5-3.7-.4-2.2,1.4-2.3-1.3-2.1-3.2-1.7-1.4-2.5-6-5.2h-2.5c0,0-.3-2.5-.3-2.5l-2-2.3-8.9-1.2,14.9-13.1,2.6-.4-.3-2.4,4.8-4-.2-2.4-5.4-3.1-.4-5.3-1.4-1.5-5-.9-1.6-5.7-1-.6v-1.9c.1,0,1.8-1.4,1.8-1.4l-.8-1.8-5.2-4-.7-3.8.9-4.3-.6-2.3-1.7-1.1-.5-2.7v-2.4c0,0,1.4-1.9,1.4-1.9v-11.3c0,0,1.6-3.5,1.6-3.5h-1.6c0-.1-.3-1.5-.3-1.5l.3-6.6,6.2-4.6,1.3-2,.3-9.3,6.3-8.1,1.8-.3-.2-2.6-1.3-.2-.7-3.3h0l10,2.8.8,5.4-1.1.5v7.8c.1,0,3.6-.3,3.6-.3l1.4,1.5,1.9.3,4.2-1.5,9.5-.5,3.9-2,5.4-5.1,2.2-.3,1.6,6.5,4.1-1.8h2.7c0,.1,2.6-1.1,2.6-1.1l4.1-5,2.2-5,5.3-1.5,2.6.7.8,1.6-1.6,7.2v3.9c.1,0,2,2.4,2,2.4h2l3.4-3.4,7.2,1,.4,1.1-1.8,2.4,4.7,5-.3,1.9-1.4.5v1.8c.1,0,2.6,1.8,2.6,1.8l-.8,2.6-5,1.1,2.6,8.8,8.4,13.1,6.1,3.2,1.5-.8,4.1,1.2.4,4.2,1.1,1.4-.3,7.1Z"/>
  </g>
</svg>