<?xml version="1.0" encoding="UTF-8"?>
<svg id="Layer_1" xmlns="http://www.w3.org/2000/svg" xmlns:amcharts="http://amcharts.com/ammap" version="1.1" viewBox="0 0 512 512">
  <!-- Generator: Adobe Illustrator 29.1.0, SVG Export Plug-In . SVG Version: 2.1.0 Build 142)  -->
  <g id="_x3C_defs">
    <amcharts:ammap bottomLatitude="-89.000292" leftLongitude="-169.522279" projection="mercator" rightLongitude="190.518061" topLatitude="83.646363"/>
  </g>
  <g>
    <path id="AE" d="M304.3,164.5h.2c0,0,0,.3,0,.3l.9-.2h1s.7,0,.7,0l.8-.9.9-.8.7-.8.2.4.2,1h-.6s0,.8,0,.8l.2.2-.5.3v.5s-.3.5-.3.5v.5s-.3.3-.3.3l-3.5-.6-.5-1.3v-.3Z"/>
    <path id="AF" d="M315.6,149.1l1.2.5.9-.2.2-.6.9-.2.7-.4.2-1.2,1-.3.2-.5.6.4h.4s.7,0,.7,0l.9.3.4.2.9-.5.4.3.4-.7h.7s.2-.2.2-.2v-.6c.1,0,.6-.5.6-.5l.6.3v.5c-.1,0,.2,0,.2,0v1.2c-.1,0,.4.5.4.5l.4-.3h.5c0-.1.7-.8.7-.8h.8c0,.1,1.2.1,1.2.1l.2.4-.7.2-.6.3-1.3.2-1.3.3-.7.6.3.6v.7c.1,0-.4.6-.4.6v.5c0,0-.3.5-.3.5h-1.1s.5.9.5.9l-.7.4-.5.8v.8c0,0-.4.4-.4.4h-.4c0-.1-.9,0-.9,0v.4h-1l-.7.8v1.2s-1.6.6-1.6.6h-.8c0-.1-.2.2-.2.2l-.7-.2-1.2.2-2-.7,1.1-1.2v-.9c0,0-1-.2-1-.2v-.9c0,0-.5-1.1-.5-1.1l.5-.8-.5-.2.3-1,.5-1.8Z"/>
    <path id="AL" d="M267.9,139.8v.5c-.1,0,0,.7,0,.7l.5.4v.4s-.4.2-.4.2v.5c0,0-.6.7-.6.7h-.2c0-.1,0-.4,0-.4l-.7-.5v-.7c-.1,0,0-1.1,0-1.1l.2-.5-.2-.2v-.5c0,0,.4-.8.4-.8v.3c0,0,.4-.1.4-.1l.3.4.3.2v.6Z"/>
    <path id="AM" d="M294.9,141l1.6-.2.2.4.4.3-.2.4.6.5-.3.5.5.4.5.2v1s-.4,0-.4,0l-.5-.9v-.2s-.5,0-.5,0l-.3-.4h-.2s-.5-.4-.5-.4l-.9-.4v-.8c.1,0,0-.5,0-.5Z"/>
    <path id="AO" d="M262.8,200.6l.3.9.3.7.3.4.4.6h.8c0,0,.4-.3.4-.3l.6.2.2-.3.3-.7h.7s0-.3,0-.3h.6s-.1.4-.1.4h1.4s0,.7,0,.7l.2.5-.2.7v.7c0,0,.5.4.5.4v1.4c0,0,.2-.1.2-.1h.5s.7-.1.7-.1h.5c0,0,.1.4.1.4v.6c-.1,0,0,.6,0,.6l-.2.4v.4c.1,0-2.3,0-2.3,0v3.8c0,0,.7,1,.7,1l.8.8-2.2.5-2.8-.2-.8-.6h-4.8c0,0-.2.1-.2.1l-.7-.6h-.8s-.7.2-.7.2l-.6.2v-.8c-.1,0,0-1.1,0-1.1l.4-1.1v-.5c0,0,.4-1.1.4-1.1l.3-.5.7-.8.4-.5v-.9c.1,0,0-.7,0-.7l-.4-.4-.3-.7-.3-.7v-.2c0,0,.4-.5.4-.5l-.4-1.1-.2-.8-.6-.7v-.2c.1,0,.6-.2.6-.2h.3s.4-.1.4-.1h3.5ZM258.3,200.4h-.3c0,.1-.3-.8-.3-.8l.5-.5.4-.2.4.4-.4.2-.2.3v.5Z"/>
    <path id="AQ" d="M124,318.5l-.6-1.6.7-.7,1.5.5,1.7.3,1.3.5,1.3-.4.7,2.2-.9-.3-1.4.2-1.5-.2-1.6.2-1.2-.8ZM102.4,325.8l1.1-1.1.7-1.5-1.4.7-1.5-.6-1.4-.7-.3,1.4,1.2,1.5,1.6.3ZM167.9,363.8l2.6-.4,2.5,1,.3-3.3.3-3.5-1.2-2.7-.6,2.3-.9,2.8-2.5-.7-2.6-.3.6,2.1v.3l1.5,2.4ZM184.3,364.6l2.5-1.5,2.2-1.7,1.9-1.8,1.8-2.2v-3.4s-.2-2.7-.2-2.7l-.5-3.7-1.5-2.5-1.8-1.2-1.7,1.2h-.6l-.8,2.4-.7,2.1-.5,2.3-.7,2.8-1,2.2-2.5,1.9-.2,2.9,1.5,2.4,2.8.4ZM156.5,318.8l1.3-.5,1.4-.5-.6,1.5h1.5c0,0,1.3-.7,1.3-.7l1.4-.5.3-1.4.2-1.5v-1.6c-.1,0-.5-1.6-.5-1.6l-.4-1.5-.5-1.5-.3-1.2-.6-1.2-1.1.5-.7,1.6v2.7s0,1.3,0,1.3l-.3,1.8h-1.4c0-.1-.8.3-.8.3l-1.3,1.4v1.6c0,0,1,1.1,1,1.1ZM97.2,324.7l.7.2-1.8-1.6-1.2-1-.9.9,1.6,1.1,1.5.4ZM467.5,512.5v-120.7l-.5-1.2-3.5,2-.3.6-1.5,4.9-1.7-4.9h-.1c0,0-.2-.2-.2-.2l-1.2,3.7v.4c-.1,0-2.3-3.7-2.3-3.7l-1,7.1h0c0-.1-2-3.1-2-3.1l-2.7-3.7-3.2,3-.9-3.5-.2-.9-3.4-2.4-.6-5.2-2.7-3.1-1.8-3-1.6-2.8-1.4-2.9-1-3.1-.6-3.3-1.6-2.5.6-2.7.5-2.6.2-3.2,1-3.6,2.2-.2,1.8-1.3,2.1-1-.5-2.5-2.2-.8-.6-2-.3-2-.7-2.1v-1.9s0-2.3,0-2.3l.3-1.8.5-2,.9-1.5.8-1.7.5-1.7,1.5-.9.7-1.5,1.5-.7.6-1.7.4-1.4.5-1.8.6-1.4v-1.5c.1,0-.7-1.1-.7-1.1l-1.2-.7-1.2-.9-1.3-.5-1.4-.3h-1.4c0,0-1.3-.1-1.3-.1h-1.4c0,0-1.3-.5-1.3-.5l-.9-1.2-1.3-.8-.6-1.3-1.4-.4-1.4-.3-1-.8-.9-1-1-.9-.8,1.1h-1.3c0,0-1.2-.6-1.2-.6l-1.6-.5-1.5-.6-1.3-.8-1.3-.7-.8-.9.2-1.1-.8-.9-1.3-.2h-1.5c0-.1-1.1,0-1.1,0h-1.5l-1.1.2h-1.5c0,0-1.3.2-1.3.2l-1-.5-.5-1-.4-1.2-.2-1.3-.7-.8v1.2s-.4,1.4-.4,1.4l-1.1.2-1.1.3h-2.5c0,.1-1.3.6-1.3.6l-1.1.5-1.1-.3-1-.3h-1.1l-1.1.5-1.2-.3-1.1-.4-1.1.2-.8.9-.9.9-1.2.2-1.5-.3-1.4-.8-.8-.8h-1.3c0,.1-.8-.8-.8-.8l-.6-.9-.9-.6-.9.6h-1.3c0,.1-.8,1-.8,1l-1,.8-1.3.4-1.3.4h-2.2c0,0-1.5-1.9-1.5-1.9l-.8-1-.9-.8-.8-.4-1.5,2.1-.8.8-.6,1-.8,1-1.2-.4-1.1.4h-1.3l-1.1.4-.9-.7-1-.2-.7.3h-1.1c0,0-1.2-.3-1.2-.3l-1.1.4-1.1-.2-1-.6-.6-1.4-.4-.8-.6,2-.9.8-1.3-.2-1.2.4-1.1.3-1.2-.3-.9.5-.7.5-.6,1-1,.6-1.2.8-.8,1.2-.3,1.2-.6,1.3-1.2.5-1.2.4h-1.3c0,.1-.7.5-.7.5l-.6,1.7-.3,1.2-.7,1.1-.6,1.1-.4,1.4-.6,1.5-1.4.7-1.4-.4-.9-1.2.6-1.5.6-1.4.2-1.4h-1.3c0,0-.2-1.3-.2-1.3l.9-1.3,1.1-.9v-1.5c.1,0,.2-.8.2-.8l-1-3.3h-1.2l-1.2-.2-1.1-.4-1.2-.4-1.1-.7-1,1.3-.9.6-1.1-.2-1-.9-.8-.8-1.4-.4-.7-.8-1-1v-1.3c-.1,0-1.1-.8-1.1-.8l-1.1-.3-1-.2-1.1.2-1.2.5-1,.6-1,.8-.2,1-1,.7h-1.1c0,0-.8.8-.8.8l-1.1,1.1-1.1-.4-.9.7-1,.7-.9.7-1.4.6-1.2.4-1.2,1.1-1.1.6-.4,1.4-1.2.8-.9-.9-.8-1.2-1.2.3-1-.8-.5-1.1-1.2-.5-.7,1.1-.6,1.8-.9.9-1.2.3-1.1.6-1,.9-1.2.4-1.2.5h-1.3c0,0-1.3,0-1.3,0h-1.4c0,.1-1.3.8-1.3.8l-.8-1-.6-1.2-1.3-.2-1.3-.4h-1.2c0,0-1.4,0-1.4,0l-1.3.4-1,1.3-.5-1.3-1.5-.2-1.2.9-.5,1.4-1.3.7-.7-1.2-.9-1.6-1.2.5-.9-.9-.7,1.2-1,.8-1.3.6-1.2.8-1.3.5-1.3.5-1.2.6-1.3,1.2-.5-1.5-1.3-.2-1.5.4-1.5.6-1.4-.2-.3-1.4-1.3-.4-.6,1.4v1.4s-1.5-.1-1.5-.1l-.6-1.2-1.4-.2-.9,1-.6,1.8-.9,1.5-1.2,1.2-1.3.9-1.2.8-.8,1.3-.4,1.7,1.2,1-.3,1.7-1.1,1.3-1,1.5-1.6,1.5-1.3,1.1-1.4,1.1-1.5,1-1.7.7-1.8.2-.8.4-1.6.7-1.6.9-1.1,2-1.4,1.6-1.4,1.6-2,1.3-1.7,1.3-.5,1.2-.2,4.5.3,2.4h2.3l2.4-1,2.3-.2v2.4l.5,2.3.8,2.4-1.8,1.8-2.6,1.3-2.4,1-2.2,1.6-2.3,1.7-3,.2-1.6,2.3-.8,3.6-2.4-2-2.9-1.1-2.9.2-2.1,2.3-2.4,2.2-2,2.8-1.9,2.7-1.4,3.4-.6-3.6-1.2-4.3-2.2-2.9-2-2.5-2.9-2.2-2.9-1.2-2.1-2.4-1.7-2.3-2.1-2-2.5-1.1-1.5-2.5-.3-2.4-1.4-2.1v-2.4s.1-2.4.1-2.4l1.7-1.5,2,.6,1.3-1.8-.7-1.9-1.3-1.5-1.8-.9-.4-2h2l1.9-.4,2.1.2,1.9-.2.9-2.1,1.6-1.1,1.5-1,1.6-.7,1.8-1.7.7-1.5.5-1.6,1.6-.6.7-1.4.6-1.7.2-2.2-.4-1.6v-1.5c0,0-.4-1.4-.4-1.4l-.2-3.4-.3-1.3-.6-1.2-.3-1.4-.3-1.3-.5-1.3-.9-1-1-.8-.6-1-.4-1.3.2-1.2.7-1.3.7-.9.6-1,1.1-.2.8-.7-.6-1v-1.1c0,0,0-1.1,0-1.1l.6-.8.9-.7.8-.6,1-.3.9.4.5-.6,1.2-.8.4-.9-.7-.7-.9.3-.7.8-.9.7-1,.3-.8.5-.7.9-1.1.2-.7.7-.6.8-.5,1.2-.9.8-.8.9-.8,1.1-.6.9-.6,1.4v1.2c.1,0,.4,1.3.4,1.3l-.2,1.2-.5,1.3-.6,1.2v1.3c-.1,0,0,1.3,0,1.3l.3,1.2.4,1.4.4,1.4.4,1.4v1.6c.1,0-.1,1.7-.1,1.7l-.7,1.2-1.2.9-1.5.6-1.7.5-1.4.6-1.2,1.1-1.2.9-1.6.4-.8-1.4-1.2-.9-1.6.4-1.2-1.6-.5,1.4-.9,1.6-1.4-.9-1.4-.5-1.5-.2-1-1.6-1.5.4-1.4-.7-.9-1.8-1,3.1-1.6.3-1.2-1-1.5.5-1.6.8-1.5.6-1.6-.2-.5-1.5-1.2-1.2-1.4-.6-1.5.2-1.5-.2-.9-.5.4,3,.3,1.5.7,1.6,1.5.3.6,1.5.8,1.5-.6,2-1.6-.8-1.6-.6-1.8-.2-1.5.8-1.7.3-1.4-1.2-1.6-.5-1.4-1.6-1.2,1.3-.8-1.5-.4-1.5-.8-1.3-1.3,1.5-1.4.8-1.5-.9-1.4.7-1.2,1.3-1.6.2h-1.7c0,0-1.7-.2-1.7-.2l-1.6.2-1.7-.4-1.6-.4-1.5.6h-1.6c0,0-1.6-.7-1.6-.7l-1.7.6-.8-.3-.9-.3-1.4.9-1.3,1-1.6,1.1-1.6.4h-1.7c0,0-1.4,1.3-1.4,1.3l-1.8.9-.7-1.6-1.5.8-.3,1.7.4,1.8v1.8s-1.7.5-1.7.5l-1.3,1.7-1.5,1.4-1.6,1.2-1.9.5-1-2.3-1.9.7-1.9.5-1.1-1.7-.6-.5.4,6.2.9,2,1.5,1.9.8,2.3,2.3.6,2.1.9,2.4.4,1.7,1.9,1.5,1.8.4,2.8-.9,2.4-1.9,2.8-2.1,2.3-1.7-2.6-2.7,1.2-2.9-.4,1.8,2.4.9,2.8,2,2.3.2,3.6-.4,3.4-.4,4-.2,4.7,3.2,2.3,1,4.5,3.8,2.8,4.6.5-.3,6.1-3.3,3.8-3.1,4.4-2.8-4.6-5-2.7-3.4,3.9-4.5-3.3-2.6-4.2-3.3-3.2-1.8-4-.6-1.4-.6-1.4v120.7h423ZM52.1,350.4l.7,2.2,1.5,2.3,2.3-.9-.3-2.8-.9-2.1-1.2-1.9-2.2-.9-.7,2.2.8,1.7v.4Z"/>
    <path id="AR" d="M166.7,271.5h-1.1c0,.1-.6-.6-.6-.6h-.7c0,0-1.3,0-1.3,0v-4.4l.5.9.6,1.5,1.5,1.2,1.6.5-.5,1ZM167.3,220.2l.7.9.5-1h1.3c0,0,.2.3.2.3l2.2,2.1,1,.2,1.4.9,1.2.5.2.6-1.2,2,1.2.4,1.3.2.9-.2,1.1-1,.2-1.1.6-.2.6.8v1s-1,.7-1,.7l-.8.5-1.3,1.3-1.6,1.8-.3,1.1-.3,1.4v1.4s-.2.3-.2.3v.9c0,0-.2.7-.2.7l1.5,1.2-.2,1,.7.6v.7c0,0-1.2,1.9-1.2,1.9l-1.7.8-2.4.3-1.3-.2.2.9-.2,1.1.2.8-.7.5-1.2.2-1.1-.6-.5.4.2,1.6.8.5.6-.5.4.8-1.1.5-.9,1-.2,1.6-.3.9h-1.1s-.9.9-.9.9l-.3,1.3,1.2,1.2,1.1.3-.4,1.6-1.4,1-.8,2.1-1.1.7-.5.9.4,1.9.8,1.1h-.5c0,0-1.1-.4-1.1-.4l-2.8-.3-.5-1.1v-1.4s-.8.1-.8.1l-.4-.7v-1.9c-.1,0,.8-.8.8-.8l.4-1.1v-.9c-.1,0,.5-1.5.5-1.5l.4-2.2v-1c-.1,0,.4-.3.4-.3v-.6c-.1,0-.7-.3-.7-.3l.4-.7-.5-.6-.3-1.8.5-.3-.2-1.9.3-1.6.3-1.3.7-.5-.4-1.5v-1.3s.9-.9.9-.9v-1.2s.6-1.4.6-1.4v-1.3s-.3-.3-.3-.3l-.5-2.4.7-1.4v-1.3c-.1,0,.3-1.2.3-1.2l.8-1.2.8-.8-.4-.5.2-.4v-2.2s1.2-.6,1.2-.6l.4-1.3v-.3c-.1,0,.8-1.1.8-1.1l1.5.3Z"/>
    <path id="AT" d="M263.6,129.4v.7c0,0-.8,0-.8,0l.2.4-.4,1.1-.2.3h-1s-.6.4-.6.4h-1c0-.1-1.7-.6-1.7-.6l-.3-.6-1.2.3v.3c-.1,0-.9-.2-.9-.2h-.6s-.5-.4-.5-.4l.2-.4v-.3s.3,0,.3,0l.6.5.2-.5h1c0,0,.8-.2.8-.2h.6c0,0,.4.4.4.4v-.3c.1,0,0-1.1,0-1.1l.4-.2.4-.8.9.6.7-.7h.4c0-.1.9.4.9.4h.5c0,0,.5.2.5.2v.2c0,0,0,.6,0,.6Z"/>
    <path id="AU" d="M414.5,246l1.1.5.6-.2.9-.3h.7c0,.1,0,2,0,2l-.4.5v1.3c-.1,0-.5-.4-.5-.4l-.8,1.1h-.2c0,0-.7-.1-.7-.1l-.7-1.4-.2-1-.7-1.4v-.7s.8.1.8.1ZM412.4,209.9l.4.9.8-.5.4.5.6.5v.5c-.1,0,.1,1,.1,1l.2.6h.3c0,.1.3,1.2.3,1.2v.6c-.1,0,.3.8.3.8l1.3.6.8.6.8.5-.2.3.7.8.5,1.4.5-.3.5.5.3-.2.2,1.3.8.8.5.5.9,1,.3,1v.7s0,.8,0,.8l.6,1.1v1.2c0,0-.3.6-.3.6l-.3,1.2v.8s-.2,1-.2,1l-.5,1.3-.9.7-.4,1.1-.4.7-.3,1.2-.5.7-.3,1.1-.2,1v.5c0,0-.6.5-.6.5h-1.3c0,0-1.1.7-1.1.7l-.5.6-.7.6-1-.7-.7-.3.2-.8-.6.3-1,1.1-1-.4-.7-.2h-.7c0-.1-1.1-.5-1.1-.5l-.8-.9-.2-1.1-.3-.7-.6-.6-1.1-.2.4-.7-.3-1.1-.6,1-1,.3.6-.8.2-.8.5-.7v-1c0,0-1,1.2-1,1.2l-.7.5-.4,1.1-.9-.6v-.8s-.7-1-.7-1l-.6-.5.2-.3-1.5-.8h-.8s-1.1-.7-1.1-.7h-2.1c0,.1-1.5.6-1.5.6l-1.3.5h-1.1c0,0-1.2.6-1.2.6l-1,.3-.2.7-.4.6h-1s-.7.2-.7.2l-1-.3-.8.2h-.8c0,0-.7.8-.7.8h-.3c0,0-.6.3-.6.3l-.6.5h-.9c0,0-.8,0-.8,0l-1.2-.9-.6-.3v-.8s.6-.2.6-.2l.2-.3v-.5s.1-1,.1-1v-.8c-.1,0-.8-1.4-.8-1.4l-.2-.8v-.8c0,0-.4-.9-.4-.9v-.4s-.5-.5-.5-.5v-1c-.1,0-.8-1-.8-1l-.2-.6.5.6-.4-1.2.6.4.3.5v-.7s-.6-1-.6-1v-.4c-.1,0-.4-.4-.4-.4v-.7c.1,0,.4-.3.4-.3l.2-.6v-.7c-.1,0,.4-.9.4-.9v1c0,0,.6-.9.6-.9l1-.4.6-.5.9-.5h.5c0,0,.3,0,.3,0l.9-.5h.7c0-.1.2-.4.2-.4h.3c0-.1.6,0,.6,0l1.2-.4.6-.5.3-.7.7-.6v-.5c0,0,0-.7,0-.7l.8-1,.5,1.1.5-.2-.4-.6.4-.6.5.3v-.9c.1,0,.8-.6.8-.6l.3-.5.6-.2v-.3s.5.1.5.1v-.3s.5-.2.5-.2l.6-.2.9.6.7.7h.7s.7.1.7.1l-.2-.7.6-1,.5-.3-.2-.3.5-.7.7-.4h.6c0,.1,1,0,1,0v-.6s-.9-.4-.9-.4l.6-.2.8.3.6.5,1,.3h.3c0-.1.7.2.7.2l.7-.3h.4c0,.1.3-.1.3-.1l.5.6-.3.6-.4.5h-.4s.1.5.1.5l-.3.6-.4.6v.3c0,0,1,.7,1,.7l.9.4.6.4.9.7h.3l.6.3.2.4,1.1.4.8-.4.2-.7.2-.5v-.7c.1,0,.5-1,.5-1l-.2-.6v-.4c0,0,0-.7,0-.7l.2-.9.2-.2-.2-.4.3-.6.2-.7v-.3s.5-.4.5-.4l.3.6v.7c0,0,.4.1.4.1v.5c0,0,.5.6.5.6v.7c0,0,0,.4,0,.4Z"/>
    <path id="AZ" d="M296.5,143l.3.4h.5s0,.2,0,.2l.5.9-.8-.2-.6-.7-.2-.6h.2ZM299.3,140.8h.5c0,.1.2-.3.2-.3l.7-.6.6.8.6,1.1h.5c0,0,.4.5.4.5h-1c0,.1-.2,1.3-.2,1.3l-.2.5-.4.4v.7s-.3,0-.3,0l-.7-.8.4-.7-.3-.4h-.4c0,.1-1.4,1.2-1.4,1.2v-1s-.6-.2-.6-.2l-.5-.4.3-.5-.6-.5.2-.4-.4-.3-.2-.4.3-.3.9.4h.6c0,0,.2,0,.2,0l-.6-.8.3-.2h.3c0,0,.8,1,.8,1Z"/>
    <path id="BA" d="M266,134.9h.4s-.3.7-.3.7l.6.6-.2.8h-.3c0,0-.2.2-.2.2l-.4.4-.2.9-1-.6-.4-.7-.4-.4-.5-.6-.3-.5-.6-.8.2-.7.4.4.3-.3h.5s1,.2,1,.2h.8s.5.3.5.3Z"/>
    <path id="BD" d="M352.6,167.3v.9s-.4-.2-.4-.2v1c0,0-.3-.7-.3-.7v-.6c0,0-.3-.6-.3-.6l-.5-.7h-1.1c0,0,.1.5.1.5l-.4.7-.5-.3-.2.2h-.3c0-.1-.5-.3-.5-.3l-.2-1-.4-1,.2-.8-.7-.3.3-.5.7-.5-.8-.7.4-.9.9.6h.6c0,0,.1,1,.1,1l1.1.2h1.1s.7.2.7.2l-.5,1.1h-.5c0,0-.4.8-.4.8l.6.7.2-.8h.3s.6,2,.6,2Z"/>
    <path id="BE" d="M247.6,123.5h.9c0,.1,1.1-.2,1.1-.2l.7.8.6.4v1.2c-.1,0-.4,0-.4,0v1c-.1,0-1.2-.8-1.2-.8h-.6c0,.1-.8-.7-.8-.7l-.5-.7h-.5s-.2-.7-.2-.7l.9-.4Z"/>
    <path id="BF" d="M240.3,182.4l-.8-.3h-.6s-.4.3-.4.3l-.5-.3-.2-.4-.5-.3v-.7c0,0,.2-.5.2-.5v-.4s.9-1,.9-1l.2-.8.3-.3.6.2.5-.2.2-.3.9-.5.2-.4,1.1-.5.6-.2.3.2h.8s0,.6,0,.6l.2.5.7.8v.6s1.4.3,1.4.3v.8s-.3.4-.3.4h-.6c0,.1-.2.6-.2.6h-.4c0,.1-1,.1-1,.1h-.5c0,0-.4.1-.4.1h-.5c0,0-2,0-2,0v.7s.1.9.1.9Z"/>
    <path id="BG" d="M270.3,136l.3.7h.5c0-.1.9.1.9.1h1.7c0,0,.6-.3.6-.3l1.4-.4.9.6.7.2-.6.7-.4,1.1.4.9-1-.2-1.2.5v.8s-1.1.1-1.1.1l-.8-.5-.9.4h-.9s0-1.1,0-1.1l-.6-.5.2-.2v-.2c-.1,0,0-.5,0-.5l.4-.5-.6-.7v-.6c-.1,0,.2-.4.2-.4Z"/>
    <path id="BI" d="M278.1,199v-1.4c0,0-.4-.5-.4-.5h.7c0,0,.4-.6.4-.6h.6c0,0,0,.5,0,.5l.3.3v.4s-.3.2-.3.2l-.5.6-.4.4h-.5Z"/>
    <path id="BJ" d="M246.8,186.4h-1c0,.1-.3-.7-.3-.7v-2.7c0,0-.2-.2-.2-.2v-.6s-.5-.4-.5-.4l-.4-.3.2-.6h.4c0-.1.2-.7.2-.7h.6c0-.1.3-.5.3-.5l.4-.3h.4s.9.7.9.7v.4s.2.7.2.7l-.2.5v.3c.1,0-.4.7-.4.7l-.4.4-.2.7v.8s0,1.9,0,1.9Z"/>
    <path id="BN" d="M377.9,188.4l.5-.4,1-.6v.6c0,0-.1.7-.1.7h-.6s-.2.4-.2.4l-.5-.6Z"/>
    <path id="BO" d="M169.8,220.1h-1.3c0,0-.5,1-.5,1l-.7-.9-1.5-.3-1,1.1-.9.2-.5-1.7-.6-1.4.4-1.2-.6-.5-.2-.9-.6-.8.7-1.3-.5-1,.3-.4-.2-.4.5-.6v-1s0-.8,0-.8l.3-.4-1-1.9h.9c0,.1.6,0,.6,0l.3-.4,1-.5.6-.4,1.5-.2v.9c-.1,0,0,.5,0,.5v.8c0,0,1.2,1.1,1.2,1.1l1.3.2.5.4.8.2.5.3h.7s.7.3.7.3v.7c0,0,.3.4.3.4v.5s-.3,0-.3,0l.5,1.4h2.3c0,0-.2.8-.2.8v.5c.1,0,.8.3.8.3l.3.8-.2,1-.3.5v.7c.1,0-.3.3-.3.3v-.4s-1.1-.6-1.1-.6h-1.1s-2,.3-2,.3l-.6,1.1v.7s-.5,1.5-.5,1.5l-.2-.3Z"/>
    <path id="BR" d="M175.9,230.8l1.6-1.8,1.3-1.3.8-.5,1-.7v-1s-.6-.8-.6-.8l-.6.2.2-.7.2-.8v-.7l-.4-.2-.4.2h-.4c0,0-.1-.5-.1-.5v-1.2c-.1,0-.3-.4-.3-.4l-.8-.3-.5.2-1.2-.2v-1.7c0,0-.3-.7-.3-.7l.4-.3v-.7c-.1,0,.2-.5.2-.5l.2-1-.3-.8-.6-.3v-.5c-.1,0,0-.7,0-.7h-2.3c0,0-.5-1.5-.5-1.5h.3s0-.5,0-.5l-.2-.4v-.7c0,0-.7-.4-.7-.4h-.7s-.5-.3-.5-.3l-.8-.2-.5-.4-1.3-.2-1.3-1.1v-.8c0,0,0-.5,0-.5v-.9c.1,0-1.4.2-1.4.2l-.6.4-1,.5-.3.4h-.6s-.9,0-.9,0l-.7.2h-.5c0-.1,0-1.9,0-1.9l-1,.7h-1s-.4-.7-.4-.7h-.8c0,0,.2-.6.2-.6l-.7-.7-.5-1.1.3-.2v-.5l.7-.3v-.6c-.1,0,.2-.4.2-.4v-.5c0,0,1.4-.8,1.4-.8l1-.2.2-.2h1.1c0,0,.5-3.2.5-3.2v-.5s-.2-.7-.2-.7l-.5-.4v-.8s.7-.2.7-.2h.2c0,.1,0-.3,0-.3h-.7c0-.1,0-.9,0-.9h2.3s.4-.4.4-.4l.3.4.2.7h.2c0-.1.6.5.6.5h.9c0,0,.2-.4.2-.4l.9-.3.5-.2v-.5c.1,0,1-.3,1-.3v-.2c0,0-1.1-.1-1.1-.1l-.2-.7v-.8s-.5-.3-.5-.3h.2c0-.1.9,0,.9,0l.9.3.3-.3.8-.2,1.3-.4.4-.4-.2-.3h.6c0,0,.3.2.3.2l-.2.5.4.2.3.5-.3.4-.2,1,.3.6v.5c0,0,.8.5.8.5h.6c0,0,.1-.2.1-.2h.4c0,0,.5-.3.5-.3l.4-.3h.6c0,0,.3,0,.3,0h.6c0,0,.1-.1.1-.1l-.2-.2v-.3c.1,0,.6.1.6.1h.6c0-.1.7.1.7.1l.5.2.4-.3h.3c0,0,.2.4.2.4h.6c0,0,.4-.5.4-.5l.4-.9.7-1.1h.4c0,0,.3.6.3.6l.7,2,.6.2v.8s-.9,1-.9,1l.4.4,2.1.2v1.2s.9-.8.9-.8l1.5.4,1.9.7.6.7-.2.6,1.4-.4,2.3.6h1.8s1.7.9,1.7.9l1.5,1.3.9.3h1c0,0,.4.4.4.4l.4,1.5.2.7-.5,2-.6.8-1.7,1.7-.8,1.3-.9,1h-.3s-.3.9-.3.9v2.3c0,0-.2,1.9-.2,1.9v.8c-.1,0-.5.5-.5.5l-.2,1.7-1.2,1.6-.2,1.3-1,.5-.3.8h-1.3s-1.8.5-1.8.5l-.8.6-1.3.4-1.4,1-1,1.3-.2,1,.2.7-.2,1.3-.3.6-.8.7-1.3,2.4-1,1.1-.8.6-.5,1.3-.8.8-.3-.8.5-.7-.7-.9-.9-.8-1.2-.9h-.4s-1.2-1-1.2-1h-.8Z"/>
    <path id="BS" d="M152.6,165.1h-.3c0,0-.3-.7-.3-.7l-.4-.4.3-.8h.4c0,0,.4,1.1.4,1.1v.7ZM152.2,161.5l-1.3.2v-.5c0,0,.5-.1.5-.1h.8s0,.4,0,.4ZM153.2,161.5l-.2.9-.2-.2v-.7s-.5-.5-.5-.5v-.2s.9.6.9.6Z"/>
    <path id="BT" d="M351.4,159.9l.5.4v.8c0,0-1,0-1,0h-1c0,0-.7.1-.7.1l-1.1-.5v-.3s.8-1,.8-1l.6-.3.8.3h.6s.5.4.5.4Z"/>
    <path id="BW" d="M273.8,215.7l.2.2.4.7,1.3,1.4h.5c0,.1,0,.6,0,.6l.3.8.9.2.8.6-1.7.9-1.1.9-.4.9-.4.5h-.6c0,.1-.2.7-.2.7v.4c-.1,0-.9.3-.9.3h-1c0,0-.6-.4-.6-.4l-.5-.2-.6.3-.3.6-.6.4-.6.6h-.8c0,.1-.3-.3-.3-.3v-.8c.1,0-.6-1.2-.6-1.2l-.3-.2v-3.7h1.2s0-4.5,0-4.5h.9s1.8-.5,1.8-.5l.5.5.7-.5h.4s.7-.3.7-.3h.2c0,0,.5,1.1.5,1.1Z"/>
    <path id="BY" d="M271.3,118.6h1.1s1.3-.7,1.3-.7l.3-1.1,1-.7v-.9c-.1,0,.6-.4.6-.4l1.3-.8,1.2.5.2.5.6-.2,1.1.5v1c.1,0-.1.6-.1.6l.7,1.3.5.4v.4c0,0,.7.3.7.3l.3.5-.5.4h-.9c0,0-.2.1-.2.1l.3.6.3,1.2h-1c0,.1-.4.5-.4.5v.9c0,0-.5-.2-.5-.2h-1.1c0,0-.3-.3-.3-.3l-.4.3-.4-.3h-.9s-1.3-.5-1.3-.5l-1.2-.2h-.9s-.6.6-.6.6h-.6c0,0,0-.8,0-.8l-.4-.9.7-.4v-.8s-.3-.7-.3-.7v-.9Z"/>
    <path id="BZ" d="M138.9,172.6v-.2s.1,0,.1,0h.2c0,.1.4-.6.4-.6h.2s0,.2,0,.2h.2s0,.3,0,.3l-.2.5v.2c.1,0,0,.4,0,.4h0c0,.1-.1.7-.1.7l-.2.3h-.2s-.2.5-.2.5h-.3v-1.4c0,0,.1-1,.1-1Z"/>
    <path id="CA" d="M127.9,39.8v-2.5c0,0,1.4.2,1.4.2l.7.4,1.4,2.1-.3,2.1-1.7,1.2-1-1.3-.5-2.2ZM133.4,45.1v-.6c.1,0-.7-1-.7-1h-2.4c0,0,.3,1.5.3,1.5l2.2.3.5-.2ZM148.6,64.8l1.3,2.1.3.2,1.3-.5h1.3c0,0,1.2.2,1.2.2v-1.1c-.1,0-2.1-2.3-2.1-2.3l-2.7-.5-.6.3v1.5ZM121.2,38.5l-1.1,1.8,2.6.2,1.9,1.9,1.9.6-.5-2.4-.9-2.8-3.2-2.2-2.3-.9v2.4c0,0,1.5,1.5,1.5,1.5ZM132.1,34.3h2.1c0,0-.9,1.6-.9,1.6v2.2s1.2,2.4,1.2,2.4l2.4.7,2.1-.4,2.2-4.5,1.6-1.9-1.4-2.1-.9-4.5-1.9-1.3-2-1.5-1.5-4-2.7.4.5,1.7-1.2.5-.8,2.2-.8,3.1.7,3,1.3,2.1ZM105.3,56.6l1.6.8,5.3-.5-2.4,2,.2,1.4h1.8c0-.1,3-2,3-2l4-.7.7-2.2-.2-2.3-1.2-.2-1,.8-.5-1.7-.4-2.4-1.2-.6-1.1,1.8,1.7,4.6-2.1-.4-2.1-2.8-3.3-1.7-1.1,1.4-1.6,4.7ZM114.8,39l-1.5-1.2-.6-.3-1.2,1.8v.8s1.9,0,1.9,0l1.4-1.1ZM114.2,44.2l.4-1.7-1.7-.9-1.7.6-1,1.8,1.7,1.8,2.2-1.6ZM126.4,58.1l1.9-.5.5-3.5v-2.5s-.9-2.3-.9-2.3v.7c0,0-1.7-.3-1.7-.3l-1.8,1.7-1.3-.2v3.7c0,0,2-.4,2-.4v2.7s1.2.7,1.2.7ZM125,77.2l-2.1-1.6-2-1.8-.4-2.6-.7-3.7-1.3-1.6-1.2-.6-1,.6.8,4-.6,1.6-1-3.8-1.1-1.3-1.3,2-1.6-2-2.6,1.2.6-1.9-1.2-.8-3.1,2.4-.8,1.6-1,2.8,2.1,1h1.8c0,0-2.7,1.4-2.7,1.4l.6,1.3h1.7c0,0,2.5-.2,2.5-.2l2.3.8-1.5.6-1.7-.2-1.8.6-.8.4,1.4,2.7,1-.4,1.6.9.6,1.5,2.1-.3,3-.5,2.2-1.1,1.4-.2,2,.9,2.1.5.4-1.2-.8-1.3,1.9-.3v-1.5ZM128.2,76.8l-.8,1.5-1,1,1.6,1.5,1-.4,1.6,1,.7-1.1-.7-1.3-.4-.6-.7-.6-1.2-1ZM120.9,64.5l-.9-.9-1.6.2-.4.6,1.8,2.8,1-2.7ZM132.9,70l1.3-2.9,1.4-.8,1.8-3.7-2.2-1-2.4-.2-1.2,1.2-.6,1.8v2s.7,3.4.7,3.4h1.3ZM140.1,60.3h2.4c0,0,3.4-.8,3.4-.8l1.5.5,1.8-.9.7-1.2-.3-1.9-1.3-1.8-1.9-.3-2.4.4-1.9,1-1.7-.4-1.6-.2-.7-1.1-1.3-1.1.3-1.9-1-1.7h-2.3s-1.3-1.7-1.3-1.7l-2.4-.3-.4,2.1,1.4,1.6,2.4.6,1.2,2.1v2.3c.1,0,.5,2.5.5,2.5l3.1,1.4,1.9.5ZM102.8,52.7l2.2-2.1,1.1-.2.9-1.8.2-4.1-1.6.8h-1.8c0,0-2.4,3.4-2.4,3.4l-2,3.8,1.6,1.1,1.9-.7ZM133,59.5l.6-1.7-.4-1.5-1-1.6-1.7,1.3-.6,2.1,1.4,1.2,1.7.3ZM129.5,64.3l-.3-1.2-2.1.5-1.4-.9-1.4,2,1.3,2.6-2.4-.5v1.3s2.9,3,2.9,3l.8,1.4,1.1.3,1.9-1.4.2-3.4-1.8-1.7,1.1-2ZM98.5,128.7l-.5-1-1.2-.7-.6-.9-.4-.6-1.1-.2-.7-.3-1.2-.4v.4c-.1,0,.4,1,.4,1l1.2.3.2.5,1.1.6.4.6,1.9.8.6-.2ZM149.5,96.2l-.8-.9-.9.2v-1.3c-.1,0-1.5-.9-1.5-.9l-1.3-1-.7-.7-.6.4-.2-1.2-.9-.2-.4,2.6-.2,2.1-1,1.3,1.6-.3.4,1.5,1.7-1.4,1.2-1.4.7,1.2,1.8.6,1-.8ZM99,74.1l3.1-1.8v-1.6l1.5-2.7,2.9-2.8,1.5-1-1.3-1.8-1.1-1.2-3-.2-1.7-.9-4,.7,1.1,2.6-1,2.7-.8,2.9-.5,1.6,2.7,2,.6,1.6ZM155.3,85.6v-.4c.1,0,.1-1.3.1-1.3l-.9-.9-1.1.4-.5,1.7.3,1.5,1.3-.2.8-.9ZM165.3,88.7l1.8,2.8,1.4,1.2,2.1-3.3.4-2.1-1.8-.2-1.7-2.8-1.9-.7-2.8-2.1,2.2-1.5-1.1-3.2-1-1.4-2.8-1.4-1.2-2.3-2.2.8-.2-1.6-1.6-1.8-2.6-2-1.1,1.6-2.3,1.1.2-2.5-2-4.2-3,1.7-1.1,3.2-.9-2.5.9-2.7-3,1.1-1.2,1.7-.9,3.5.4,3.8h1.7s-1.2,1.7-1.2,1.7l1,1.2,1.9.5,2.5,1,4.3.8,2.1-.4.6-1,.9,1.2,1,.2,1.2,2.1-.8.8,2.4,1.1,1.8,1.5.5,1.1.3,1.4-1.5,2.9-.4,1.4.4,1-2.4.4h-2.2c0,0-.8,2.1-.8,2.1l1,.9,3.4-.4v-.8s1.7,1.3,1.7,1.3l1.8,1.4-.4.7,1.4,1.3,2.5,1.5,3.2,1-.2-.9-1.2-1.5-1.7-2.3,2.9,2.1,1.5.7.4-1.9-.8-2.6-.5-.7-1.6-1.3-1.2-1.6v-1.7c.1,0,1.7-.4,1.7-.4ZM137.7,21l1,3.1,2.1,2.5,4.1-.5,2.6.8-1.8,2.5-.9-.7-3.2-.3.5,3.5,1.7,2.5-.3,2.2-2.1,1.5-1,2.3,1.9,1.1,1.6,3.6-3.1-2.4-.7.4.6,3.9-2.2,1.2v2.5c.1,0,2.4.3,2.4.3l1.7.6,3.5-.8,3.1,1.4,3.1-3v-1.3s-2,.2-2,.2l-.2-1.2,1.6-1.6.6-2.2,1.8-1.6,1.1-2-1-3,.8-1.1-1.6-.8,3.6-.7.8-1.3,2.4-1.1,2-5.6,1.9-2.1,2.8-4.7h-2.6s1.1-1.8,1.1-1.8l2.8-1.7,2.9-3.7v-2.4c0,0-2.1-2.5-2.1-2.5l-2.5-1.2-3.1-.8-2.5-.6-2.5-.6-3.4,1.7-.6-1.1-3.6.4-2.1,1.1-1.6,1.5-.9,4.9-1.3-2.5-1.5-.5-1.7,3.3-2.3,1.4-1.4.3-1.7,1.6.3,2.8,1.4,2.3ZM168.9,132.1l-.4-.8-.4.5.3.6,1.5.7h.4c0-.1.6-.8.6-.8h-1.1s-.9-.2-.9-.2ZM145,99.5l.3.7h.8c0,0,1.4-1.3,1.4-1.3v-.5s-1.6,0-1.6,0l-.9,1.2ZM171,127.3l-1.2-.8-1.5-.5-.4.2,1.1.9,1.5.6h.6s0-.4,0-.4ZM181.4,129.3l-.2-.9-.8.3.4-1.3-1.2-.6-.5.4-1-.5.4-.6-.8-.4-.8.6.8-1.6.6-1.2.2-.5h-.5c0,0-1,.6-1,.6l-.7,1.1-1.2,2.9-1,1.1.5.5-.7.6.2.5h2.3c0,0,1.3,0,1.3,0l1.1.4-.8.8h.7c0,0,1.4-1.4,1.4-1.4l.3.2-.3,1.4.8.3h.5c0,0,.5-1.6.5-1.6l-.4-1.1ZM172.5,131.3l-1.2,1.9-1.9.2-1.5-.8-.4-1.3-.4-1.9,1.1-1.2-1-.9-1.8.2-2.5,1.5-1.9,2.3-1,.3,1.4-1.6,1.7-2.3,1.5-.8,1-1.3h1.2c0-.1,1.8-.1,1.8-.1l2.5.4,2-.3,1.5-1.5,1.9-.7.8-.7.9-.7v-2.2c0,0-.6-.7-.6-.7l-.9-.3-.5-1.7-.8-.6-1.9-.5-1.1-1.2-1.6-1.2.5-1.3-1.3-2.6-1.5-2.9-.9-2.1-.8,1.1-1.1,2.5-1.7,1.2-.9-1.3-1.1-.4-.4-2.9v-2s-2.1-.2-2.1-.2l-.4-1-1.4-1.4-1.1-.9-1,.7-1.2-.2-2-.7-.8.6.4,3.8.5,2.1-1.4,2.4,1.4,1.7.8,1.9v1.4c0,0-.6,1.5-.6,1.5l-1.3,1.5-1.9,1,.8,1.1.6,3.1-.6,2-.9.6-1.7-1.8-.9-2.2-.4-2,.2-1.8-1.3-.2h-1.9c0-.1-1.2-1-1.2-1l-1.5-.6-.8-1-1.2-.8-2.2-.9-1.6.4-.5-1.7-.5-2.1-1.7-.4v-2.7c0,0,.5-1.9.5-1.9l1.3-2.8,1.4-2.1,1.4-.3v-1.7c0,0,1-1.1,1-1.1l1.7-.2,1.4-1.8.3-1.2,1.1-2.4.4-1.5,1.2.9,1.6-.5,2.3-2.1.2-1.5-.8-1.7.9-1.7v-1.6c0,0-1.6-1.7-1.6-1.7l-1.7-.5-1.7-.3v3.7c0,0-.9,2.7-.9,2.7l-1.2,2.2-1.1-2.1.4-2.4-1.4-2.1-1.6,2.6v-3.3s-2.2-.7-2.2-.7l1-1.7-1.6-4-1.2-1.6-1.6-.6-1.4,2.7v3.9c0,0,1.3,1.4,1.3,1.4l1.3,2.1-.5,3.2h-.9c0,0-.7,2.4-.7,2.4v-2.9s-1.8-1.1-1.8-1.1l-1,.6v2c.1,0-1.6,0-1.6,0l-1.8.5-2.1-1.4-1.3.3-1.2-1.7-.9-.8-.9.3h-1.4c0,.1-.8,1.2-.8,1.2l1.2,1.3-1.3,1.6-1.3-1.9-1,.5-3.2.4-2.1-.7,1.7-1.6-1.6-1.6-1.2.2-1.6-.6-2.7-1.2-1.8-1.4-1.4-.2-.4,1-1.4.5-.2-2.6-1.6,2.3-2-3.1-.8-.4-.3,1.6-.9.8-.8-1.4-1.9.9-1.8,1.5-1.7-.4-1.4,1-1,1.4-1.2-.3-1.8-1.6-2.2-.8v11.6s0,14.8,0,14.8h1.2c0,0,1.1.7,1.1.7l.8,1,1,1.5,1.1-1.3,1.2-.8.6,1.2.8.9,1.1,1,.7,1.6,1.2,2.5,2,1.3v1.3s-.6,1-.6,1v1s1.4,1.4,1.4,1.4l.2,1.6,1.5.8-.2,1.2.7,1.7,2.1.8.8.8,2.3,1.8h.2s3.3,0,3.3,0h29.2v-.7s.4,0,.4,0l.2,1,.4.3h.8c0,.1,1.2.4,1.2.4l1.1.5,1-.2,1.4.5.5-.7.7-.3.3-.4.3-.2,1.1.4h.8s.3.3.3.3l.4,1,1.3.3-.2.5.5.5-.2.7.5.2-.2.6h.3c0,0,.2-.2.2-.2l.2.4.9.2h.9s1,.2,1,.2l1.1.3.4.5.8,1.3-.4.5-1-.2-.6-1,.2,1-.6.9v.8c0,0,0,.4,0,.4l-.8.5-.6.9-.3.6h.6c0,.1.9-.4.9-.4l.5-.4h.3c0,0,.6,0,.6,0l.3-.2.6-.2,1-.2h0v-.5c-.1,0-.2,0-.2,0h-.4c0,0-.5,0-.5,0l.4-.6.4-.2.8-.2,1-.2.5.3.3-.4.4-.2h.3c0,.1,0,.1,0,.1l1.2-1.1.5-.3h1.8s2.2,0,2.2,0v-.4c.1,0,.5,0,.5,0l.5-.3.4-.8.4-1.3.9-1.3.4.5.8-.3.5.5v2.3l.8.9,1.3-.2h1.9c0,0-2,1.3-2,1.3v1.4s.9.1.9.1l1.3-1.2,1.2-.7,2.6-1,1.5-1.1-.8-.6v-1.2ZM150.1,101.5l.5-1.3-.3-.5h-.5c0,0-.5.7-.5.7v.2c0,0,.3.7.3.7l.5.2ZM90.3,116.8h0l.7-1-.7,1Z"/>
    <path id="CD" d="M279.9,189.6v1.4c0,0,.4.2.4.2l-.4.4-.5.3-.4.6-.2.5v.9c0,0-.3.4-.3.4v.9s-.3.3-.3.3v.7s-.2,0-.2,0v.6c-.1,0,.2.5.2.5v1.4c0,0,.3,1.1.3,1.1v.6c-.1,0,.1.7.1.7l.7.7.6,1.5h-.5c0-.1-1.6,0-1.6,0h-.3c0,.1-.3.9-.3.9l.3.5-.2,1.4v1.2c-.1,0,.2.2.2.2l.8.5.3-.2v1.3c.1,0-.8,0-.8,0l-.5-.7-.4-.5-.9-.2-.3-.6-.7.4-.9-.2-.4-.5h-.7c0-.1-.5,0-.5,0v-.4c0,0-.5,0-.5,0h-.5c0,0-.7.1-.7.1h-.5s-.3,0-.3,0v-1.4c0,0-.3-.4-.3-.4v-.7c0,0,0-.7,0-.7l-.2-.5v-.7s-1.5,0-1.5,0v-.4c.1,0-.5,0-.5,0v.2c0,0-.8,0-.8,0l-.3.7-.2.3-.6-.2-.4.2h-.8c0,0-.4-.5-.4-.5l-.3-.4-.3-.7-.3-.9h-3.5s-.4.1-.4.1h-.3s-.5.1-.5.1l-.2-.4h.3c0-.1,0-.6,0-.6l.2-.3.4-.2h.3c0,.1.4-.3.4-.3h.6s0,.3,0,.3l.4.2.7-.7.7-.6.3-.4v-1s.5-1.1.5-1.1l.5-.6.8-.6v-.4c.1,0,.2-.4.2-.4l.2-.4v-.7c0,0,0-1,0-1l.2-.7.4-.6v-.7c0,0,.2-.8.2-.8l.5-.6.6-.4,1,.4.7.4h.9c0,.1.9.3.9.3l.4-.7h.2c0,0,.5,0,.5,0l1.3-.6.5.2h.4s.2-.3.2-.3h.4c0-.1.9,0,.9,0h.8s.4,0,.4,0l.7,1h.5c0,.1.3,0,.3,0h.5c0,0,.7-.2.7-.2l.3.5,1,.8Z"/>
    <path id="CF" d="M261.6,185h1c0,0,.2-.4.2-.4h.2s.3.3.3.3l1.5-.4.5-.5.6-.4v-.4c-.1,0,.2-.1.2-.1h1.1c0,0,1.1-.5,1.1-.5l.8-1.3.6-.5.7-.2v.5c.1,0,.8.7.8.7v.5l-.2.5v.4c0,0,.5.3.5.3l.9.5.6.5v.4s.8.6.8.6l.5.5.3.7.9.5.2.4h-.4c0,.1-.8,0-.8,0h-.9c0-.1-.4,0-.4,0l-.2.3h-.4s-.5-.2-.5-.2l-1.3.6h-.5c0-.1-.2,0-.2,0l-.4.7-.9-.2h-.9c0-.1-.7-.5-.7-.5l-1-.4-.6.4-.5.6v.8c-.1,0-.9,0-.9,0l-.8-.2-.7.6-.6,1.1v-.3c-.1,0-.2-.5-.2-.5l-.5-.4-.4-.6v-.4c-.1,0-.7-.6-.7-.6v-.3c0,0,0-.5,0-.5v-.9c0,0,.4-.2.4-.2l.6-1.2Z"/>
    <path id="CG" d="M258.9,199.3l-.4-.4-.4.2-.5.5-1-1.2.9-.6-.4-.8.4-.3h.8c0-.1,0-.7,0-.7l.6.6h1c0,0,.4-.5.4-.5v-.8c.1,0,0-.9,0-.9l-.6-.7.5-1.4-.3-.2h-.9c0,0-.3-.5-.3-.5v-.5c0,0,1.6,0,1.6,0l1,.3.9.3v-.6c0,0,.7-1.1.7-1.1l.7-.6.8.2h.8c0,0,0,.8,0,.8l-.4.6-.2.7v1c-.1,0,0,.7,0,.7l-.2.4v.4s-.2.4-.2.4l-.8.6-.5.6-.5,1.1v1s-.3.4-.3.4l-.7.6-.7.7-.4-.2v-.3c0,0-.7,0-.7,0l-.4.4h-.3Z"/>
    <path id="CH" d="M254.9,130.4v.3s-.1.4-.1.4l.5.3h.6s0,.7,0,.7l-.5.3-.9-.2-.3.7h-.6c0,0-.2-.2-.2-.2l-.7.6h-.6c0,0-.5-.3-.5-.3l-.4-.7-.6.3v-.8s.9-1,.9-1v-.4s.5.2.5.2l.3-.3h1s.2-.4.2-.4l1.3.5Z"/>
    <path id="CI" d="M240.3,187.9h-.5s-.8-.2-.8-.2h-.8s-1.4.2-1.4.2l-.8.3-1.2.4h-.2s0-1,0-1h.1c0-.1,0-.6,0-.6l-.5-.5h-.4c0,0-.3-.4-.3-.4l.3-.5v-.6c-.1,0,0-.3,0-.3h.2v-.5c0,0,0-.2,0-.2v-.2c.1,0,.5-.1.5-.1l-.3-.9-.3-.5v-.4c0,0,.3,0,.3,0h.2c0-.1.3,0,.3,0h.9s.2-.3.2-.3h.2s.3-.1.3-.1l.2.5.3-.2.5-.2.5.3.2.4.5.3.4-.3h.6s.8.3.8.3l.3,1.7-.5,1-.3,1.3.5,1v.5Z"/>
    <path id="CL" d="M163,266.4v4.4h2c0,0-.4.9-.4.9l-1,.6h-.6c0,0-.7-.2-.7-.2l-.9-.6-1.2-.3-1.5-1.1-1.2-1.1-1.6-2.2,1,.4,1.7,1.3,1.6.7.6-.9.4-1.3,1.1-.8.8.2ZM163.5,219.4l.5,1.7.8-.2v.3c.1,0-.3,1.3-.3,1.3l-1.3.6v2.2s-.2.4-.2.4l.4.5-.8.8-.8,1.2-.4,1.2v1.3c.1,0-.6,1.4-.6,1.4l.5,2.4.3.3v1.3s-.7,1.4-.7,1.4v1.2s-.9.9-.9.9v1.3s.4,1.5.4,1.5l-.7.5-.3,1.3-.3,1.6.2,1.9-.5.3.3,1.8.5.6-.4.7.5.3v.6c.1,0-.4.3-.4.3v1c.1,0-.3,2.2-.3,2.2l-.6,1.5v.9c.1,0-.2,1.1-.2,1.1l-.9.8v1.9c.1,0,.5.7.5.7h.8c0-.1,0,1.3,0,1.3l.5,1.1,2.8.3,1.1.3h-1s-.6.5-.6.5l-1.1.7-.2,1.8h-.5s-1.3-.6-1.3-.6l-1.3-1.4h0l-1.5-1.1-.4-1.2.3-1.1-.6-1.2-.2-3.1.5-1.7,1.2-1.3-1.8-.5,1.1-1.5.4-2.7,1.3.6.6-3.3-.8-.4-.4,2-.7-.2.4-2.3.4-2.9.5-1-.3-1.5v-1.7c0,0,.4,0,.4,0l.7-2.3.8-2.3.5-2.1-.3-2.1.4-1.1v-1.7c-.1,0,.5-1.6.5-1.6l.2-2.5.4-2.7.4-2.8v-2c0,0-.3-1.7-.3-1.7l.6-.3.3-.6.6.8.2.9.6.5-.4,1.2.6,1.4Z"/>
    <path id="CM" d="M259,191.1h-.1c0,0-.7,0-.7,0l-.7-.2h-.6c0,0-1.9,0-1.9,0l.2-.9-.5-.8-.5-.2-.2-.5-.3-.2v-.3s.3-.8.3-.8l.6-1.1h.3s.7-.7.7-.7h.4s.7.5.7.5l.8-.4v-.5c.1,0,.4-.5.4-.5l.2-.6.6-.5.2-.8.2-.3.2-.6.3-.8,1-.9v-.4c0,0,.2-.2.2-.2l-.5-.5v-.4s.4,0,.4,0l.5.8v.8c0,0,0,.8,0,.8l.6,1.1h-.7s-.3,0-.3,0h-.5c0-.1-.3.4-.3.4l.7.7.5.2.2.5.4.8-.2.3-.6,1.2-.3.2v.9c0,0,0,.5,0,.5v.3c0,0,.5.6.5.6v.4c.1,0,.5.6.5.6l.5.4v.5c0,0,.2.3.2.3v.6c0,0-1-.3-1-.3l-1-.3h-1.5Z"/>
    <path id="CN" d="M373.8,169.8l.3.5-.5.5-.3.7-1,.6-1-.4v-1.1s.5-.6.5-.6l1.3-.3h.7ZM400.4,129.3l-1,.7h-1.8l-.5-1.7-1.4-1.3-2-.6-.4-1.8-.4-1.1-.4-.8-.7-1.9-1-.7-1.8-.6h-1.6c0,0-1.5.4-1.5.4l-1,1,.6.5v1.1s-.6.6-.6.6l-1.1,2v.8s-1.6,1.1-1.6,1.1l-1.4-.7-.6,1.4-.8,1.8.3.7.7-.2,1.2.3.9-.6.9.6,1.1,1.2v.6c-.1,0-1.1-.2-1.1-.2l-1.7.2-.8.5-.9,1.1-1.8.6-1.2.9-1.2-.3-.7-.2-.6,1.1.4.6.2.5-.8.5-.8.9-1.4.6h-1.8c0,0-1.9.6-1.9.6l-1.4.8-.5-.5h-1.4l-1.7-1-1.2-.2-1.6.2-2.4-.4h-1.3s-.7-.9-.7-.9l-.5-1.5-.7-.2-1.4-1-1.6-.2-1.4-.3-.4-.7.5-2-.8-1.4-1.7-.7-1-.9-.3-1.2h-.5c0,.1-.9,1.3-.9,1.3l-1,.2v1.8c0,0-.7.8-.7.8l-2.3-.6-.8,3-.6.4-2.3.7,1.1,2.8-.8.4v.9c0,0,0,.4,0,.4l-1.9.9-.4.6-1.5.2-.4,1-1.2-.2-.8.3-1.1.7.2.4-.3.3.3,1.4.4-.2.7.3v.6s.1.8.1.8l.2.4.9.7.3,1.1,1.9.6h0s1.6-.6,1.6-.6l1.2.6-.4,1.2-.7.9h-.5s0,0,0,0v.7c0,0,.4.7.4.7v.7s-.9-.2-.9-.2l.3,1.5,1.2.9,1.6.9.5-.3.9.4,1.2.9.7.2.4.6.9.3,1,.6,1.3.3h1.4c0,.1.7-.1.7-.1v1c.1,0,.9-1,.9-1l.6-.3.8.3h.6s.5.4.5.4l.9-.2,1.1-1,1.4-.9,1,.3.8-.6.5.8-.4.6,1.3.2h.7c0-.1.4.7.4.7l.5.3v1s0,1.1,0,1.1l-1.1,1.1v1.5c-.1,0,1.1-.2,1.1-.2l.3,1.2.7.2-.3,1.1.9.5.5.2.9-.4v.5s.1.3.1.3h.6s-.2-1.4-.2-1.4l.6-.2.6-.3h.9s1.1-.1,1.1-.1l1-.7.6.5,1.1.2-.2.7.6.5,1.2.3.6-.2,1.6.4-.3.5.3.9h.6c0,0,.4-1.4.4-1.4l1.2-.2,1.6-.6.7-.6.4.4.7-.6h1.3c0-.1,1.6-1.2,1.6-1.2l1.6-1.2,1.1-1.5,1-1.7.9-1.4h.7c0-.1.3-1.2.3-1.2l.2-1.1-.7-.4-.3-.7.7-.4v-1s-.8-1.1-.8-1.1l-.7-1.3-.5-1.4-1.3-.8.6-1,1.1-.7.5-.8,1.7-.4-.2-.8h-.8s-1-.6-1-.6l-1.3,1.1-.9-.4v-.7s-1-.2-1-.2l-.6-1,.6-.7h1.2c0,0,.7-1.1.7-1.1l1.3-1.1,1-.5.6.8-.9,1,.2.6-.6.7,1.3-.4.9-.7,1.6-.4,1-1,1.3-.8.8-1.1.6.5h1c0,0-.2-.8-.2-.8l1.8-.7.5-.9.8.9v-.8s.6,0,.6,0l.2-1.9-.3-1.4,1-.6,1.4.3.8-1.6.4-1.9.5-.6.6-1.6-1.9.5Z"/>
    <path id="CO" d="M155.1,193.9l-.5-.3-.6-.4-.3.2-1-.2-.3-.5h-.2s-1.2-.6-1.2-.6l-.2-.4h.4c0,0,0-.7,0-.7l.3-.4h.6c0,0,.5-.8.5-.8l.4-.6-.4-.3.2-.7-.3-1.1.3-.3-.2-1-.5-.6.2-.6h.4c0,0,.2-.3.2-.3l-.3-.7v-.2c.1,0,.7,0,.7,0l.9-.8h.5c0-.1,0-.5,0-.5l.2-1,.7-.6h.7s0-.3,0-.3h.9c0,0,.9-.5.9-.5l.5-.3.6-.6h.4c0,0,.3.4.3.4l-.2.4-.8.2-.3.6-.5.3-.3.4v.8c-.1,0-.5.7-.5.7h.6c0,0,.2.6.2.6l.3.3v.5c0,0,0,.4,0,.4v.2s.3,0,.3,0l.3.4h1.5c0-.1.7,0,.7,0l.8,1h.5c0-.1.8,0,.8,0h.7c0-.1.4,0,.4,0l-.2.6-.3.4v.8c0,0,.1.8.1.8l.3.3v.3s-.6.6-.6.6l.4.3.3.4.4,1.2h-.2c0,.1-.2-.5-.2-.5l-.3-.4-.4.4h-2.3s0,.7,0,.7h.7c0,.1,0,.6,0,.6h-.2c0-.1-.7,0-.7,0v.8s.5.4.5.4l.2.7v.5s-.6,3.2-.6,3.2l-.6-.6h-.4s.8-1.2.8-1.2l-.9-.5h-.7c0,.1-.4-.1-.4-.1l-.6.3h-.9c0-.1-.7-1.4-.7-1.4l-.5-.3-.4-.6-.8-.6h-.3Z"/>
    <path id="CR" d="M146.2,184.1l-.6-.3-.2-.2v-.2c.1,0,0-.3,0-.3l-.3-.3-.5-.2-.4-.2v-.3c0,0-.4-.2-.4-.2v.3c0,0-.2.3-.2.3l-.3-.3h-.4c0-.1-.2-.4-.2-.4v-.4s.2-.4.2-.4l-.3-.2.3-.2.2-.2.8.3.3-.2h.4c0,.1.2.3.2.3h.3c0,0,.3-.2.3-.2l.3.6.5.5.6.5h-.5c0,.1,0,.6,0,.6l.2.2h-.2c0,.1,0,.4,0,.4v.2c0,0-.2.2-.2.2Z"/>
    <path id="CU" d="M147,165.9h1c0,0,.9.1.9.1l1.1.4.5.5h1.1c0-.1.4.2.4.2l1,.8.7.6h.4s.7.2.7.2v.4c0,0,.8,0,.8,0l.9.5v.3c-.1,0-.9.2-.9.2h-.8c0,0-.8,0-.8,0h-1.7c0,.1.8-.6.8-.6l-.5-.3h-.8c0,0-.4-.4-.4-.4l-.3-.7h-.7s-1.1-.3-1.1-.3l-.4-.3-1.5-.2-.4-.2.4-.3h-1.2c0,0-.8.6-.8.6h-.5s-.2.3-.2.3h-.6c0,.1-.5,0-.5,0l.6-.4.3-.5.5-.3.6-.2h.9c0-.1.3-.3.3-.3Z"/>
    <path id="CY" d="M283.5,149.7l.8-.6-1.1.4h-.8s-.2.3-.2.3h0s-.6,0-.6,0l.3.6.6.2,1.2-.6h0c0-.1,0-.4,0-.4Z"/>
    <path id="CZ" d="M263.6,128.5l-.5-.3h-.5c0,0-.9-.5-.9-.5h-.4c0,.1-.7.9-.7.9l-.9-.6-.7-.8-.6-.4v-.8c-.1,0-.3-.5-.3-.5l.9-.4.4-.5.8-.4.3-.4.3.2.5-.2.6.6.9.2v.5c0,0,.6.4.6.4l.2-.5.8.2v.6c.1,0,1,.1,1,.1l.5.9h-.3s-.2.3-.2.3h-.3c0,0,0,.5,0,.5h-.2c0,0,0,.3,0,.3l-.4.2h-.5s-.2.4-.2.4Z"/>
    <path id="DE" d="M255.3,116.4v.8s1.2.5,1.2.5v.7s1.2-.4,1.2-.4l.7-.5,1.3.8.6.6.3,1-.3.5.4.7.3,1v.7c0,0,.4,1.2.4,1.2l-.5.2-.3-.2-.3.4-.8.4-.4.5-.9.4.2.5v.8c.1,0,.7.4.7.4l.7.8-.4.8-.4.2.2,1.1v.3c-.1,0-.5-.4-.5-.4h-.6c0,0-.8.3-.8.3h-1c0,0-.2.4-.2.4l-.6-.5h-.4c0,0-1.3-.4-1.3-.4l-.2.4h-1s.1-1.3.1-1.3l.6-1.2-1.7-.3-.6-.5v-.8c0,0-.2-.4-.2-.4v-1.2c.1,0,0-2,0-2h.7l.3-.7.3-1.8-.2-.7.2-.4h1c0-.1.2.3.2.3l.8-1-.3-.8v-1.2c0,0,.8.3.8.3l.8-.3Z"/>
    <path id="DJ" d="M294.3,178.8l.3.4v.5s-.7.3-.7.3l.5.3-.4.6-.3-.2h-.3c0,0-.7,0-.7,0v-.4s-.1-.3-.1-.3l.4-.6.4-.5h.5c0,.1.4-.2.4-.2Z"/>
    <path id="DK" d="M258.6,115.1l-.7,1.7-1.2-1.2-.2-.9,1.7-.7.4,1ZM256.5,113.3l-.3.8-.3-.2-.8,1.5.3,1-.8.3-.9-.3-.5-1.1v-2.1s.2-.6.2-.6l.3-.6h1c0-.1.4-.7.4-.7l.9-.6v1.1s-.4.7-.4.7v.6c.1,0,.8.3.8.3Z"/>
    <path id="DO" d="M159.4,170.2v-.2c.1,0,1.1,0,1.1,0l.7.3h.3s.2.4.2.4h.6s0,.3,0,.3h.5s.6.5.6.5l-.4.5-.6-.3h-.5c0,0-.4,0-.4,0l-.2.2h-.5c0,0-.2-.2-.2-.2l-.4.2-.5.8-.3-.2v-.4c0,0,0-.3,0-.3l-.3-.4.3-.2v-.5c0,0,0-.7,0-.7Z"/>
    <path id="DZ" d="M257.8,165.5l-4,2.4-3.4,2.5-1.7.6h-1.3c0,.1,0-.7,0-.7l-.5-.2-.7-.4-.3-.6-4-2.7-4-2.8-4.4-3.2v-.3s0,0,0,0v-1.6s1.9-1,1.9-1l1.2-.2,1-.4.5-.7,1.4-.5v-1c0,0,.7-.1.7-.1l.5-.5,1.5-.2.2-.5-.3-.3-.4-1.5v-.9c0,0-.5-.9-.5-.9l1.1-.8,1.3-.3.7-.6,1.1-.4,2-.3h1.9c0-.1.6,0,.6,0l1.1-.6h1.3s.5.3.5.3h.8c0,0-.2.7-.2.7l.2,1.4-.3,1.2-.7.8v1.1c.1,0,1.1.8,1.1.8v.3s.7.6.7.6l.5,2.5.4,1.2v.6c0,0-.1,1.1-.1,1.1v.6c0,0,0,.7,0,.7v.8c.1,0-.4.5-.4.5l.7.9v.6s.5.7.5.7l.5-.2.9.6.5.8Z"/>
    <path id="EC" d="M149.3,197.7l.6-.9-.3-.5-.4.5-.7-.5.2-.3-.2-1.1.4-.2.2-.7.4-.8v-.5c0,0,.6-.3.6-.3l.8-.5,1.2.7h.2s.3.5.3.5l1,.2.3-.2.6.4.5.3.2.9-.4.8-1.3,1.2-1.4.5-.7,1-.2.8-.7.5-.5-.6h-.5c0-.1-.5,0-.5,0v-.4s.3-.3.3-.3v-.5Z"/>
    <path id="EE" d="M272.2,110.5v-1.3c.1,0-.3.3-.3.3l-.7-.8v-1.3c-.1,0,1.4-.6,1.4-.6l1.5-.3,1.3.4h1.2c0,0,.2.3.2.3l-.8,1.3.3,2.1-.5.7h-1s-1-.8-1-.8l-.5-.3-1,.4Z"/>
    <path id="EG" d="M284.7,157.6l-.3.5-.3,1-.3.7-.3.2-.4-.4-.5-.6-.8-1.9h-.1c0,.1.5,1.5.5,1.5l.7,1.3.9,2,.4.7.4.7,1.1,1.4-.2.2v.8s1.4,1.1,1.4,1.1l.2.3h-13.9v-9.4l-.4-1.1.3-.8-.2-.6.4-.7h1.6s1.1.3,1.1.3l1.2.4.5.2.9-.4.5-.4h1c0-.1.8,0,.8,0l.3.7.3-.4.9.3h.9c0,0,.6-.3.6-.3l.8,2.3Z"/>
    <path id="ER" d="M293.4,179l-.4-.4-.5-.7-.5-.4-.3-.4-1-.5h-.8s-.3-.3-.3-.3l-.7.3-.7-.5-.4.9-1.4-.3v-.5c-.1,0,.4-1.8.4-1.8v-.8c.1,0,.5-.4.5-.4l.9-.2.6-.7.7,1.4.3,1.1.6.6,1.6,1.1.7.7.6.7.4.4.6.4-.4.3h-.5Z"/>
    <path id="ES" d="M233,139.7v-1.1c0,0-.4-.7-.4-.7l1.7-1.2,1.4.3h1.6s1.2.3,1.2.3h1c0,0,1.9,0,1.9,0l.5.6,2.2.7.4-.3,1.3.7,1.4-.2v.9c0,0-1.1,1-1.1,1l-1.5.3v.5c-.1,0-.8.9-.8.9l-.5,1.2.5.9-.7.7-.3,1-.9.3-.8,1.1h-1.5s-1.1,0-1.1,0l-.7.5-.4.5h-.6c0-.1-.4-.6-.4-.6l-.3-.8-1.1-.2v-.5c0,0,.3-.6.3-.6l.2-.4-.4-.4.3-1-.5-.9h.5c0-.1,0-.8,0-.8l.2-.2v-1.2s.6-.4.6-.4l-.3-.8h-.7c0,0-.2.1-.2.1h-.7s-.3-.8-.3-.8l-.5.2-.4.4Z"/>
    <path id="ET" d="M288.2,176.1l.7.5.7-.3.3.3h.8s1,.5,1,.5l.3.4.5.4.5.7.4.4-.4.5-.4.6v.3c0,0,.1.4.1.4h.7s.3,0,.3,0l.3.2-.3.4.4.7.4.6.4.4,3.8,1.4h1s-3.3,3.5-3.3,3.5h-1.5c0,0-1,.9-1,.9h-.8s-.3.4-.3.4h-.8l-.5-.4-1.1.5-.3.5h-.8c0,0-.3-.2-.3-.2h-.3s-.4,0-.4,0l-1.5-1h-.8l-.4-.4v-.7l-.6-.2-.7-1.3-.5-.3-.2-.5-.6-.6h-.7c0,0,.4-.8.4-.8h.6s.2-.4.2-.4v-1.1s.3-1.2.3-1.2l.6-.3v-.5c.1,0,.6-.9.6-.9l.7-.6.5-1.2.2-1,1.4.3.4-.9Z"/>
    <path id="FK" d="M171.7,264.9l1.4-1.1,1,.5.7-.8.9.8-.4.7-1.6.6-.5-.7-1,.9-.6-.9Z"/>
    <path id="FI" d="M277.3,80.4l-.2,2.3,1.8,2.1-1.1,2.3,1.4,3.3-.8,2.4,1.1,2-.5,1.7,1.7,1.8-.4,1.3-1.1,1.4-2.5,3.1-2.1.2-2.1.9-1.9.5-.7-1.3-1.1-.8.3-2.4-.6-2.3.6-1.5,1.1-1.7,2.7-2.9.8-.6v-1.2c-.1,0-1.8-1.3-1.8-1.3l-.4-1.1v-4.7s-1.9-2.2-1.9-2.2l-1.6-1.6.7-.9,1.3,1.7,1.5-.2,1.3.8,1.1-1.4.6-2.5,1.8-1.2,1.5,1.4-.5,2.3Z"/>
    <path id="FJ" d="M455.4,212.7v.6c-.1,0-.2,0-.2,0l-.7.3-.8.3-.2-.5.6-.3h.4c0,0,.7-.4.7-.4h.2ZM453,214.5l-.5-.2-.5.4v.5c.1,0,.8.2.8.2l.7-.2.2-.6-.4-.4-.3.2Z"/>
    <path id="FR" d="M254.9,139.3l-.4,1.2-.5-.3-.3-1.1.2-.6.8-.6.2,1.4ZM247.9,125.3l.8.9h.6c0-.1,1,.7,1,.7l.3.2h.3s.6.4.6.4l1.7.3-.6,1.2-.2,1.2-.3.3-.5-.2v.4s-.8,1-.8,1v.8s.5-.3.5-.3l.4.7v.5c0,0,.3.6.3.6l-.4.5.3,1.3.6.2v.7c-.1,0-1.2.9-1.2.9l-2.3-.4-1.7.5v1c-.1,0-1.5.2-1.5.2l-1.3-.7-.4.3-2.2-.7-.5-.6.6-1,.2-3.3-1.2-1.8-.9-.9-1.8-.7v-1.3c-.1,0,1.4-.4,1.4-.4l2,.5-.4-2,1.1.8,2.7-1.4.4-1.5,1-.4.2.7h.5s.5.8.5.8Z"/>
    <path id="GA" d="M256.7,198.4l-1.2-1.2-.8-1-.7-1.2v-.4s.3-.4.3-.4l.3-.8.2-.9h.4c0,0,1.7,0,1.7,0v-1.4s.5,0,.5,0l.7.2.7-.2h.1c0,0,0,.6,0,.6l.3.6h.9c0,0,.3.1.3.1l-.5,1.4.6.7v.9c.1,0,0,.8,0,.8l-.4.6h-1c0,0-.6-.6-.6-.6v.5c0,0-.9.1-.9.1l-.4.3.4.8-.9.6Z"/>
    <path id="GB" d="M237,117.3l-.6,1.4-.9-.4h-.7s.2-1,.2-1l-.2-1.1h1c0,0,1.3,1.2,1.3,1.2ZM240.1,108.6l-1.3,2.4,1.2-.3h1.3s-.3,1.8-.3,1.8l-1.1,1.9h1.2c0,.1,0,.4,0,.4l1,2.4.8.3.7,2.3.3.8,1.4.4v1.2c-.1,0-.7.6-.7.6l.5,1-1.1,1h-1.6s-2,.5-2,.5l-.5-.4-.8.9-1.1-.2-.8.7-.6-.4,1.7-1.9,1.1-.4h0l-1.8-.3-.3-.8,1.2-.6-.6-1,.2-1.3,1.7.2h0l.2-1.1-.8-1.2h0s-1.4-.4-1.4-.4l-.3-.6.4-.9-.4-.6-.6,1v-2c0,0-.7-1.1-.7-1.1l.4-2.2.9-1.8.9.2,1.4-.2Z"/>
    <path id="GE" d="M292.5,140.3l.2-.7-.3-1.1-.7-.6-.6-.2-.4-.5v-.2c.1,0,1.1.3,1.1.3l1.7.3,1.6.8.2.3.7-.3,1.1.3.4.6.7.4-.3.2.6.8-.2.2h-.6c0,0-.9-.5-.9-.5l-.3.3-1.6.2-1.1-.8h-1.3Z"/>
    <path id="GF" d="M181.9,190.8l-.4.4h-.6c0,0-.2-.2-.2-.2h-.3c0,0-.4.3-.4.3l-.5-.2.3-.5v-.5c.1,0,.3-.5.3-.5l-.5-.7v-.8c0,0,.5-1,.5-1h.4c0,.1.9.4.9.4l1.2,1,.2.5-.7,1.1-.4.9Z"/>
    <path id="GH" d="M244.9,186.8l-1.8.7-.7.4-1.1.3-1-.3v-.5c0,0-.5-1-.5-1l.3-1.3.5-1-.3-1.7-.2-.9v-.7s2.1,0,2.1,0h.5c0,0,.4-.1.4-.1h.5c0,0,0,.5,0,.5l.5.6v1.8c.1,0,.4.4.4.4l-.3,1.1v.6c0,0,.4.7.4.7l.3.4Z"/>
    <path id="GL" d="M188.7,9.5l3.9-5.7,4.1.4,1.5-3.8,4.2-1,9.4,1.3,7.4,7.8-2.2,3.5-4.5.4-6.3.9.6,1.5,4.2-.9,3.5,2.9,2.3-2.6,1,3-1.3,4.6,3-2.9,5.7-3.2,3.5,1.6.7,3.4-4.8,5.3-.7,1.6-3.8,1.2,2.7.3-1.4,4.8-.9,4v6.4s1.5,3.5,1.5,3.5l-1.8.2-1.9,1.6,2.2,2.6.3,4-1.3.4,1.5,3.8-2.6.3,1.4,1.7-.4,1.5-1.7.6h-1.6s1.5,2.7,1.5,2.7v1.7s-2.3-1.6-2.3-1.6l-.6,1,1.6,1,1.5,2.3.4,2.9-2.1.7-.9-1.4-1.5-2.1.4,2.5-1.4,1.8h3.1c0,.1,1.6.3,1.6.3l-3.2,2.9-3.2,2.6-3.4,1.1h-1.3s-1.2,1.2-1.2,1.2l-1.6,3.2-2.5,2h-.8c0,.1-1.6.8-1.6.8l-1.7.7-1,1.7v1.9s-.6,1.7-.6,1.7l-1.9,2.1.5,2-.5,2-.6,2.3h-1.7c0,.1-1.7-1.8-1.7-1.8h-2.4s-1.1-1.3-1.1-1.3l-.8-2.4-2-3.2-.6-1.7-.2-2.5-1.6-2.6.4-2.2-.8-1.1,1.2-3.6,1.8-1.2.5-1.4.2-2.6-1.3,1.2-.6.5-1.1.5-1.4-1.1v-2.3c0,0,.4-1.9.4-1.9h1.1c0,0,2.4.9,2.4.9l-2-2.3-1.1-1.3-1.2.5-1-.9,1.3-3.6-.7-1.5-.9-2.8-1.4-4.6-1.5-1.7v-1.9s-3.1-2.8-3.1-2.8l-2.5-.4-3.1.2-2.9.4-1.4-1.6-2-3.2,3.1-1.7,2.4-.3-5-1.4-2.6-2.3.2-2.2,4.4-2.9,4.3-3,.5-2.4-3.2-2.4,1-2.8,4.1-5.2,1.7-.8-.5-3.6,2.8-2.2,3.6-1.3h3.6c0,0,1.3,2.6,1.3,2.6l3.1-4.7,2.8,3.3,1.6.7,2.4,2.7-2.8-4.5.2-3.8Z"/>
    <path id="GM" d="M223.9,178.2l.2-.5h1.3s.3-.3.3-.3h.4s.5.3.5.3h.4s.4-.2.4-.2l.2.3-.5.3h-.5s-.5-.3-.5-.3l-.4.3h-.2s-.3.2-.3.2h-1.1Z"/>
    <path id="GN" d="M233.7,184.7h-.3s-.2.4-.2.4h-.3s-.2-.3-.2-.3v-.5c0,0-.4-.7-.4-.7h-.3c0,.1-.3.2-.3.2h-.3c0,0,0-.4,0-.4l-.2-.3v-.3s-.2-.5-.2-.5l-.3-.4h-.9l-.3.2h-.3s-.2.3-.2.3v.3c-.1,0-.8.5-.8.5l-.5-.7-.5-.5-.3-.2-.3-.2v-.5c-.1,0-.3-.3-.3-.3l-.3-.2.5-.6h.4s.3-.2.3-.2h.3l.2-.2v-.4c-.1,0,0-.1,0-.1v-.4s.6,0,.6,0l.8.3h.3s0-.2,0-.2h.6c0,0,.2,0,.2,0v.4c0,0,.3,0,.3,0l.3-.2h.2s.3.3.3.3h.5c0,0,.3-.2.3-.2l.4-.2.3-.2h.2s.3.3.3.3v.3c.1,0,.6.5.6.5l-.2.3v.4s.2-.1.2-.1h.1c0,.1,0,.5,0,.5l.4.3h-.2c0,0,0,.5,0,.5l.3.5.3.9h-.4c0,.1-.1.3-.1.3v.2c0,0,0,.5,0,.5h-.2Z"/>
    <path id="GQ" d="M254.8,192.5l-.2-.2.4-1.3h1.9s0,1.4,0,1.4h-1.7s-.4,0-.4,0Z"/>
    <path id="GR" d="M271.5,149l.6.5h.9c0,0,.9,0,.9,0v.3s.6-.2.6-.2v.4c-.1,0-1.8.1-1.8.1v-.2s-1.4-.3-1.4-.3l.2-.6ZM274.9,140.2l-.4,1-.3.2h-.7s-.6-.2-.6-.2l-1.4.4.8.9-.6.2h-.7l-.6-.8-.2.3.3.9.6.7-.4.3.7.7.6.4v.8s-.6-.5-.6-.5h-.5c0,0,.3.8.3.8h-.4c0,0-.4-.2-.4-.2l.5,1.7h-.2l-.2-.5h-.2s-.1.5-.1.5h-.2c0-.1,0-.4,0-.4l-.2-.4h-.3v.4c0,0,0,.1,0,.1l-.3-.2-.2-.4.2-.2-.2-.3-.2-.2h-.2s-.2-.4-.2-.4l.2-.2.2-.2h.2s.1-.1.1-.1h.2c0,0,.3.1.3.1h.2c0,0,.2-.2.2-.2h-.4s-.2-.1-.2-.1h-.5c0,.1-.5.1-.5.1l-.5-.7h0c0-.1,0-.4,0-.4l-.6-.5v-.4c0,0,.5-.7.5-.7v-.5c0,0,.5-.2.5-.2v-.4s.8-.1.8-.1l.4-.3h.6s.2-.2.2-.2h.2c0,0,.9,0,.9,0l.9-.4.8.5h1.1c0-.1,0-.9,0-.9l.6.4Z"/>
    <path id="GT" d="M137.8,177.5l-.6-.2h-.7s-.5-.3-.5-.3l-.6-.5v-.4s.2-.3.2-.3l-.2-.2.6-1h1.5s0-.4,0-.4h-.2c0,0-.1-.3-.1-.3l-.4-.3-.4-.4h.5v-.7h2.2s0,1,0,1v1.4c0,0,.3,0,.3,0l.4.2v-.2c.1,0,.4.2.4.2l-.5.5-.6.3v.2c0,0,0,.2,0,.2l-.2.3h-.3c0,0,0,.2,0,.2h-.2c0,.1-.4.4-.4.4v.2Z"/>
    <path id="GW" d="M225.9,180.7l-.6-.5h-.5c0,0-.3-.4-.3-.4v-.2s-.4-.3-.4-.3v-.3c0,0,.5-.2.5-.2h.4s.3,0,.3,0h2.2c0,0,0,.5,0,.5h-.1c0,.1.1.5.1.5l-.2.2h-.3l-.3.2h-.4s-.5.6-.5.6Z"/>
    <path id="GY" d="M173.4,183.9l.8.4.7.8v.6s.5,0,.5,0l.6.6.5.4-.2,1.1-.7.3v.3c0,0-.2.6-.2.6l.5.8h.4s.2.7.2.7l.7,1h-.3s-.6,0-.6,0l-.4.3-.5.2h-.4c0,0-.1.3-.1.3h-.6c0,0-.7-.6-.7-.6v-.5c0,0-.4-.6-.4-.6l.2-1,.3-.4-.3-.5-.4-.2.2-.5-.3-.3h-.6c0,0-.8-.8-.8-.8l.3-.3v-.5s.7-.2.7-.2l.3-.2-.4-.4v-.4c.1,0,1-.7,1-.7Z"/>
    <path id="HN" d="M141.1,178.4l-.2-.4h-.4c0-.1,0-.6,0-.6h-.2c0-.1-.2-.2-.2-.2h-.5c0,.1,0,0,0,0l-.4-.2-.3-.2h-.3c0-.1.2-.4.2-.4v-.2c0,0,0-.2,0-.2l.6-.3.5-.5h.1c0,0,.3-.2.3-.2h.3s.1,0,.1,0h.2c0,0,.5,0,.5,0h.5s.4-.2.4-.2h.1c0-.1.4,0,.4,0h.3c0,0,.3,0,.3,0h.2c0-.1.5,0,.5,0h.2s.4.3.4.3l.3.3.4.2.3.3h-.4s-.2.1-.2.1l-.4.2h-.3l-.3.2h-.2c0,0-.2-.2-.2-.2h-.1s-.2.3-.2.3h-.1s0,.2,0,.2l-.4.3h-.2c0,.1-.1.3-.1.3l-.3-.2-.3.3h-.2s-.3,0-.3,0v.6s-.1,0-.1,0v.3c-.1,0-.5,0-.5,0Z"/>
    <path id="HR" d="M265.8,133.2l.3.6.4.5-.5.6-.5-.4h-.8s-1-.3-1-.3h-.5s-.3.4-.3.4l-.4-.4-.2.7.6.8.3.5.5.6.4.4.4.7,1,.6v.3c-.1,0-1.2-.6-1.2-.6l-.7-.6-1.1-.5-1-1.2h.2c0-.1-.5-.8-.5-.8v-.6s-.8-.3-.8-.3l-.4.7-.3-.6v-.6s0,0,0,0h.8c0,0,.2-.2.2-.2l.4.3h.5s0-.4,0-.4l.4-.2v-.7c.1,0,1.1-.5,1.1-.5l.4.2.9.7,1,.3.4-.3Z"/>
    <path id="HT" d="M157.7,170h.7c0,0,1,.3,1,.3v.7c.1,0,0,.5,0,.5l-.3.2.3.4v.3s-.8-.2-.8-.2h-.6c0,0-.7,0-.7,0l-.5.2-.6-.4v-.4c.1,0,1.2.2,1.2.2h.9c0,.1.4-.2.4-.2l-.5-.5v-.5s-.7-.2-.7-.2l.3-.3Z"/>
    <path id="HU" d="M262.7,131.6l.4-1.1-.2-.4h.7s0-.7,0-.7l.6.4.4.2,1-.2v-.4c0,0,.6,0,.6,0l.6-.3h.1c0,.1.6-.1.6-.1l.3-.4h.4c0-.1,1.3.4,1.3.4l.3-.2.6.5v.5c0,0-.6.4-.6.4l-.6,1.2-.7,1.2-.9.3h-.7c0,0-.9.4-.9.4l-.4.3-1-.3-.9-.7-.4-.2-.2-.6h-.2Z"/>
    <path id="ID" d="M385.5,205.7h-.5s-1.6-.8-1.6-.8l1.1-.2.6.4.4.4v.3ZM389.9,205.6l-1,.3h-.1c0-.1.1-.5.1-.5l.5-.7,1.2-.5v.2c.1,0,.1.4.1.4l-.8.9ZM382.2,203.2l.4.3h.7c0,0,.3.4.3.4l-1.4.2-.8.2h-.6s.4-.7.4-.7h.6s.3-.4.3-.4ZM388.1,203.2l-.2.7-1.8.3h-1.6c0-.1,0-.6,0-.6l.9-.2.7.4h.8c0,0,1-.5,1-.5ZM371.3,201.6h2.3c0,.1.3-.4.3-.4l2.2.6.4.8,1.8.2,1.4.7-1.3.4-1.3-.5h-1.1s-1.2,0-1.2,0l-1.1-.2-1.4-.4h-.9c0-.1-.5,0-.5,0l-2.1-.5-.2-.5h-1.1c0,0,.8-1.2.8-1.2h1.4c0,0,.9.5.9.5h.5c0,0,.2.5.2.5ZM402,201l-.6.8v-.9c-.1,0,0-.4,0-.4l.2-.4.3.3v.6ZM393.2,197.8l-.4.4-.8-.2-.2-.5h1.2c0,0,.3.3.3.3ZM397,197.3l.4.9-1-.5h-1c0,0-.7,0-.7,0h-.8s.3-.7.3-.7h1.5c0,0,1.3.3,1.3.3ZM401.3,195.1l.3,1.9,1.2.7,1-1.2,1.3-.7h1l1,.4.9.4,1.3.2v3.8s0,3.8,0,3.8l-1-1-1.2-.2-.3.3h-1.5s.5-.9.5-.9l.7-.3-.3-1.3-.6-1-2.3-1h-1c0,0-1.8-1.2-1.8-1.2l-.3.6h-.5c0,.1-.3-.3-.3-.3v-.5s-.9-.6-.9-.6l1.3-.4h.8s-.1-.3-.1-.3h-1.7s-.5-.7-.5-.7l-1-.2-.5-.6,1.6-.3.6-.4,1.9.5.2.4ZM390.8,192.1l-.9,1.2-.9.2-1.1-.2h-2c0,0-1,.2-1,.2l-.2.9,1.1,1,.6-.5,2.2-.4v.5c0,0-.6-.2-.6-.2l-.5.7-1,.5,1.1,1.5-.2.4,1.1,1.3v.8s-.6.3-.6.3l-.5-.4.6-1-1.2.5-.3-.3.2-.5-.8-.7v-1.1c0,0-.7.4-.7.4v1.4c.1,0,.1,1.7.1,1.7l-.7.2-.5-.3.3-1.1-.2-1.1h-.5s-.4-.8-.4-.8l.5-.8.2-.9.6-1.8.2-.5,1-.9.9.3,1.5.2h1.3c0,0,1.2-.9,1.2-.9l.2.3ZM394.9,192.4v1c0,0-.7-.1-.7-.1l-.2.7.5.6h-.3c0,.1-.5-.6-.5-.6l-.3-1.5.2-.9.4-.4v.6c0,0,.8.1.8.1v.5ZM382.2,191.6l1.3,1.1h-1.4c0,.1-.4.9-.4.9v1.1c0,0-1.1.8-1.1.8v1.2s-.5,1.8-.5,1.8l-.2-.4-1.3.5-.5-.7h-.8c0,0-.6-.4-.6-.4l-1.4.4-.4-.6h-.8c0,0-1,0-1,0l-.2-1.6-.6-.3-.6-1-.2-1v-1.1c.1,0,.8-.8.8-.8l.2.8.8.7.8-.2h.8c0,0,.7-.5.7-.5h.6c0-.1,1.1.2,1.1.2l1-.2.6-1.6.5-.4.4-1.3h1.3l1,.2-.7,1.1.9,1.1-.2.5ZM368,200.6h-1.3s-1-1-1-1l-1.5-1-.5-.7-.9-1-.6-.9-.9-1.6-1-1-.3-1-.4-.9-1.1-.7-.6-1-.9-.7-1.2-1.3v-.6c-.1,0,.7,0,.7,0l1.8.2,1,1.1.9.8.6.5,1.1,1.3h1.2s1,.8,1,.8l.7,1,.9.5-.5,1,.7.4h.4s.2.8.2.8l.4.7h.9c0,.1.6.8.6.8l-.3,1.5v1.8Z"/>
    <path id="IE" d="M236.4,118.7l.2,1.4-.9,1.7-2.1,1.1-1.7-.3,1-2-.6-2,1.6-1.6.9-1,.2,1.1-.2,1.1h.7s.9.4.9.4Z"/>
    <path id="IL" d="M285.6,153.2l-.2.4-.4-.2-.2.9.3.2-.3.2v.4c0,0,.5-.2.5-.2v.5s-.6,2.2-.6,2.2l-.8-2.3.3-.5h0c0,0,.3-.7.3-.7l.2-1,.2-.4h0s.4,0,.4,0v-.2c.1,0,.4,0,.4,0v.6s-.1.2-.1.2h0Z"/>
    <path id="IN" d="M358.1,159.8v-.5c0,0-1.4-.2-1.4-.2l.4-.6-.6-.8-.8.6-1-.3-1.4.9-1.1,1-.9.2.5.4v.8c0,0-1,0-1,0h-1c0,0-.7.1-.7.1l-1.1-.5v-.3s-.1-1-.1-1l-.7.3v.6c0,0,0,.8,0,.8v.5c-.1,0-1.1,0-1.1,0l-1.4-.3h-.9c0-.1-.7-.8-.7-.8l-1.6-.2-1.5-.7-1.1-.6-1.1-.5.5-1.3.7-.6-1.6-1-1.2-.9-.3-1.5.8.2v-.7s-.4-.7-.4-.7v-.7h.6s.7-1,.7-1l.4-1.2-1.2-.6-1.6.6h0s0,0,0,0l-1.9-.6-.3-1.1-.9-.7-.7.2-.6.3h-.5c0,0,0,.1,0,.1l-1.3,1,.2.5h.4s1.3,1.1,1.3,1.1l-.8.7.2,2,1,.4h0s0,0,0,0l1,.7-1,.8v1s-1.1,1.4-1.1,1.4l-.7,1.4-1.2,1.4h-1.4c0-.1-1.3,1.3-1.3,1.3l.8.6v1c.1,0,.8.7.8.7l.2,1.1h-2.6s-.8.9-.8.9l1.4,1.1.3.5-.6.5,1.5,1.5.8.2,1.7-.8.2,1.2v1.5s.3,1.6.3,1.6l.5,2.4,1.1,1.7.2.8.3,1.5.6,1.1.4.6.5,1.2.5,1.7,1.1,1.1.5-.3.4-.8,1.1-.3-.4-.4.5-.9h.6c0,0,0-2.1,0-2.1l.5-1.1v-1c0,0-.3-1.6-.3-1.6l.4-.9h.5c0,0,1.1-.5,1.1-.5l.6-.3v-.6l1.2-.8.9-.8,1.3-1.5,1.7-.8.6-.7v-.9c0,0,1.4-.3,1.4-.3h.8s.2-.4.2-.4l-.2-1-.4-1,.2-.8-.7-.3.3-.5.7-.5-.8-.7.4-.9.9.6h.6c0,0,.1,1,.1,1l1.1.2h1.1s.7.2.7.2l-.5,1.1h-.5c0,0-.4.8-.4.8l.6.7.2-.8h.3s.6,2,.6,2l.6-.3v-.5c-.1,0,.1-.4.1-.4v-1.3s1,.3,1,.3l.5-1.1v-.6c0,0,.7-1.1.7-1.1v-.7s1.5-.9,1.5-.9l.8.2v-.8c0,0,.3-.2.3-.2Z"/>
    <path id="IQ" d="M297,148.6l.8.4v.8c0,0-.5.5-.5.5l-.3,1.1.8,1.3,1.4.8.6,1-.2,1h.4v.7s.7.7.7.7h-.7c0,0-.8-.2-.8-.2l-.9,1.3h-2.2c0-.1-3.3-2.8-3.3-2.8l-1.8-1-1.4-.4-.5-1.7,2.6-1.5.4-1.7v-1.1c-.1,0,.5-.4.5-.4l.6-.9.5-.2,1.4.2.4.4.6-.2.8,1.7Z"/>
    <path id="IR" d="M307,146.8l1-.3.8-.8h.8s.5-.2.5-.2h.8c0,.1,1.3.9,1.3.9l.9.2,1.3,1.3h.9c0,0,.1,1.3.1,1.3l-.5,1.8-.3,1,.5.2-.5.8.4,1.1v.9c0,0,1,.2,1,.2v.9c0,0-1,1.2-1,1.2l.6.7.5.8,1.1.6v1.2s.6.2.6.2v.6c0,0-1.6.7-1.6.7l-.4,1.5-2.2-.4-1.3-.3-1.3-.2-.5-1.6-.6-.2-.9.2-1.2.6-1.4-.4-1.2-1-1.1-.4-.8-1.3-.9-1.8-.6.2-.7-.4-.4.5-.6-.7v-.7h-.4l.2-1-.6-1-1.4-.8-.8-1.3.3-1.1.6-.5v-.8c0,0-.9-.4-.9-.4l-.8-1.7-.6-1.2.2-.5-.4-1.7.8-.4.2.6.6.7.8.2h.4s1.4-1.2,1.4-1.2h.4c0-.1.3.3.3.3l-.4.7.7.8h.3c0,0,.4,1,.4,1l1.1.3.8.7,1.7.3,1.8-.4v-.3Z"/>
    <path id="IS" d="M226.6,88.5l-.3,1.9,1.3,1.9-1.5,2.1-3.4,1.8-1,.5-1.5-.4-3.3-.8,1.2-1.2-2.6-1.3,2.1-.5v-.8c0,0-2.5-.7-2.5-.7l.8-1.9,1.8-.4,1.8,2,1.8-1.6,1.5.8,1.9-1.6,1.9.2Z"/>
    <path id="IT" d="M261.9,145.3l-.4,1.2.2.5-.2.8-.9-.5-.6-.2-1.6-.8.2-.8h1.4c0,.1,1.2,0,1.2,0h.9ZM254.5,140.8l.7,1.1-.2,2h-.5c0,0-.5.4-.5.4l-.4-.4v-1.8s-.3-.9-.3-.9h.6c0,0,.6-.4.6-.4ZM258.2,131.7l1.7.4v.8c-.1,0,.2.7.2.7l-.9-.2-1,.6v.8c0,0,0,.5,0,.5l.4.8,1.1.8.6,1.3,1.3,1.3h.9s.3.3.3.3l-.3.3,1.1.6.9.5,1,.8v.3c.1,0,0,.5,0,.5l-.7-.7-1-.3-.5,1,.9.6v.8c-.1,0-.6,0-.6,0l-.6,1.3h-.5c0,.1,0-.3,0-.3l.2-.8.3-.3-.5-.9-.4-.8-.5-.2-.3-.7-.8-.3-.5-.6h-.9c0-.1-.9-.8-.9-.8l-1.1-1-.8-.9-.4-1.6-.6-.2-1-.5-.5.2-.7.8h-.5c0,.1.1-.6.1-.6l-.6-.2-.3-1.3.4-.5-.3-.6v-.5c0,0,.6.4.6.4h.6c0,0,.7-.6.7-.6l.2.3h.6c0,0,.3-.7.3-.7l.9.2.5-.3v-.7c0,0,.8.2.8.2v-.3c.1,0,1.3-.3,1.3-.3l.3.6Z"/>
    <path id="JM" d="M152.5,171.7h.8c0,.1.6.4.6.4l.2.3h-.8s-.4.2-.4.2l-.7-.2-.7-.4v-.3c.1,0,.6,0,.6,0h.3Z"/>
    <path id="JO" d="M285.4,153.7l.2-.4,1.3.6,2.3-1.5.5,1.7-.2.2-2.4.7,1.2,1.4-.4.2-.2.5-.9.2-.3.5-.5.4-1.3-.2v-.2s.5-2.2.5-2.2v-.5s.1-.4.1-.4v-.8Z"/>
    <path id="JP" d="M401.9,151.2l.2.5-.7.9-.5-.4-.6.3-.3.8-.8-.4v-.7s.7-.8.7-.8l.7.2.5-.6.9.3ZM409.3,146.9l-.4,1.2.2.7-.6,1-1.5.7h-2.1c0,0-1.7,1.7-1.7,1.7l-.8-.5v-1.1s-2.1.3-2.1.3l-1.4.7h-1.4s1.2,1.1,1.2,1.1l-.8,2.4-.8.6-.6-.5.3-1.2-.7-.4-.5-1,1.1-.4.6-.9,1.2-.7.9-1,2.3-.4,1.3.3,1.2-2.6.8.7,1.7-1.5.7-.6.7-1.8-.2-1.7.5-1,1.2-.3.6,2.1v1.2s-1.1,1.5-1.1,1.5v1.5ZM412.8,136.1l.8.3.8-.7.3,1.8-1.7.4-1,1.6-1.8-1.1-.6,1.7h-1.3s-.2-1.5-.2-1.5l.6-1.2h1.3c0,0,.3-2.3.3-2.3l.3-1.3,1.4,1.7.9.5Z"/>
    <path id="KE" d="M291.8,194.7l.7,1-.8.5-.3.5h-.4c0,0-.2.9-.2.9l-.4.5-.2.8-.5.4-1.7-1.2v-.7c0,0-4.3-2.4-4.3-2.4h-.2c0-.1,0-1.4,0-1.4l.3-.5.6-.8.4-.9-.5-1.3v-.6c-.1,0-.7-.8-.7-.8l.7-.7.8-.8.6.2v.7l.4.4h.8l1.5,1h.4s.3,0,.3,0h.3c0,.1.8.2.8.2l.3-.5,1.1-.5.5.4h.8l-1,1.3v4.3Z"/>
    <path id="KG" d="M327,139.1l.3-.7.8-.2,1.9.5.2-.9.7-.3,1.7.7.4-.2h1.9s1.7.2,1.7.2l.6.6.7.2-.2.4-1.9.9-.4.6-1.5.2-.4,1-1.2-.2-.8.3-1.1.7.2.4-.3.3-2.2.2-1.5-.5h-1.3c0,.1.1-.8.1-.8l1.3.3.4-.5.9.2,1.5-1.1-1.4-.8-.8.4-.9-.6,1-1-.3-.2Z"/>
    <path id="KH" d="M365.3,181.2l-.5-.6-.6-1.2-.3-1.4.8-1,1.5-.2,1.1.2,1,.5.5-.8,1,.4.3.8v1.4c-.1,0-2.1.9-2.1.9l.5.7h-1.2c0,0-1,.6-1,.6l-1-.2Z"/>
    <path id="KP" d="M397.2,138.9l.2.3h-.4c0,0-.5.4-.5.4l-.4.5v1.1s-.6.3-.6.3l-.2.3-.4.5-.8.3-.5.4v.7s-.2.2-.2.2l.5.2.7.7-.2.4h-.5c0,0-.8.2-.8.2l-.5.7h-.5c0,0,0,0,0,0l-.6-.3v.3c-.1,0-.5.1-.5.1v-.3s-.3-.1-.3-.1l-.3-.2.3-.7.3-.2v-.3c-.1,0,.2-.8.2-.8v-.2c0,0-.8-.2-.8-.2l-.6-.4,1-1,1.3-.8.8-1.1.6.5h1c0,0-.2-.8-.2-.8l1.8-.7.5-.9.8.9Z"/>
    <path id="KR" d="M394.5,144.7l1,1.8.3,1v1.7s-.4.8-.4.8l-1.1.3-.9.6h-1.1c0,.1-.1-.7-.1-.7l.2-1.1-.5-1.5.9-.2-.8-1.3h0c0-.1.5,0,.5,0l.5-.7h.8c0,0,.5-.2.5-.2l.2-.4Z"/>
    <path id="XK" d="M268.1,139.5v.3c0,0-.2,0-.2,0v-.6c0,0-.4-.2-.4-.2l-.3-.4.2-.4h.3c0-.1.2-.6.2-.6h.2c0,0,.2.1.2.1h.2c0,.1.2.4.2.4h.2c0,0,.2.4.2.4h.2s-.1.4-.1.4v.2c-.1,0-.1.1-.1.1h-.3c0,0-.7.3-.7.3Z"/>
    <path id="KW" d="M300,157l.2.6v.3c-.1,0,.3,1,.3,1h-.8s-.3-.6-.3-.6h-1c0-.1.9-1.4.9-1.4h.8Z"/>
    <path id="KZ" d="M327,139.1l-.7.3-1.5,1.1-.5,1.1h-.4s-.3-.7-.3-.7h-1.5c0,0-.2-1.3-.2-1.3h-.6s0-1.6,0-1.6l-1.4-1.2h-2c0,.1-1.4.4-1.4.4l-1.1-1.5-1-.6-1.8-1.2h-.2c0-.1-3,.8-3,.8v5.9s-.6,0-.6,0l-.8-1.2-.8-.4-1.3.3-.5.5v-.4c0,0,.2-.7.2-.7l-.2-.6-1.4-.5-.5-1.5-.6-.4v-.5s1.1.2,1.1.2v-1.2s1-.3,1-.3l1,.2.2-1.6-.2-1.1h-1.2c0,0-1-.3-1-.3l-1.4.8-1.1.4-.6-.3v-.9c.1,0-.6-1.2-.6-1.2h-.9s-1-1.1-1-1.1l.7-1.3-.3-.4.9-2,1.2,1.1v-1.3c.1,0,2.6-2,2.6-2h1.8c0,0,2.6,1.2,2.6,1.2l1.4.8,1.2-.8h1.9s1.5.9,1.5.9l.3-.5h1.6c0,0,.3-.8.3-.8l-1.9-1.3,1.1-.9-.2-.5,1.1-.5-.8-1.3.5-.7,4.4-.7.6-.5,2.9-.8,1.1-.9,2.1.4.4,2.1,1.2-.5,1.5.7v1.1c0,0,1-.1,1-.1l2.9-1.9-.4.6,1.5,1.5,2.6,4.9.6-1,1.6,1.1,1.7-.5.6.3.6,1.1.8.4.5.8,1.5-.2.6,1.1-.9,1.2-1,.2v1.8c0,0-.7.8-.7.8l-2.3-.6-.8,3-.6.4-2.3.7,1.1,2.8-.8.4v.9c0,0-.6-.2-.6-.2l-.6-.6-1.7-.2h-1.9s-.4.1-.4.1l-1.7-.7-.7.3-.2.9-1.9-.5-.8.2-.3.7Z"/>
    <path id="LA" d="M367.3,176.9l.4-.5v-1c0,0-.9-1.1-.9-1.1v-1.2c0,0-1-1-1-1h-.9c0,0-.2.3-.2.3h-.7s-.4-.2-.4-.2l-1.2.7v-1.1s.3-1.3.3-1.3h-.8c0,0,0-.8,0-.8l-.5-.4.3-.5,1-.8v.3c.1,0,.7,0,.7,0l-.2-1.4.6-.2.7,1,.5,1.1h1.4s.5,1.1.5,1.1l-.8.3-.3.4,1.4.7,1,1.5.7,1.1.9.8.3.9-.2,1.2-1-.4-.5.8-1-.5Z"/>
    <path id="LB" d="M285.8,152.5h-.3s-.1.3-.1.3h-.4l.4-1.1.6-1h0c0,0,.5,0,.5,0l.2.6-.6.5-.3.8Z"/>
    <path id="LK" d="M339.8,184.9l-.2,1.2-.5.3-1,.3-.6-.9-.2-1.7.5-1.9.8.7.5.8.6,1.2Z"/>
    <path id="LR" d="M234.6,188.6h-.3s-1.2-.5-1.2-.5l-1.1-.9-1-.6-.8-.8.3-.4v-.3c0,0,.6-.6.6-.6l.5-.5h.3s.3-.2.3-.2l.5.7v.5c0,0,.2.3.2.3h.3s.2-.5.2-.5h.3s0,.4,0,.4v.6c.1,0-.1.5-.1.5l.3.3h.4c0,0,.5.6.5.6v.5s0,.1,0,.1v1Z"/>
    <path id="LS" d="M277.7,229.1l.4.4-.4.7-.2.4-.7.2-.2.4h-.4c0,.1-.9-.9-.9-.9l.6-.9.6-.5.5-.3.5.4Z"/>
    <path id="LT" d="M270.4,117.7v-.5c0,0,0-.6,0-.6l-.5-.3-1.2-.4-.3-1.7,1.3-.6h2c0,.1,1.2,0,1.2,0l.2.4h.6c0,.1,1.1,1.1,1.1,1.1v.9c.1,0-.9.7-.9.7l-.3,1.1-1.3.8h-1.1s-.3-.6-.3-.6l-.6-.2Z"/>
    <path id="LU" d="M250.8,125.8l.2.4v.8c0,0-.4,0-.4,0l-.3-.2v-1c.1,0,.4,0,.4,0Z"/>
    <path id="LV" d="M268.4,114.2v-1.6s.6-1.4.6-1.4l1.1-.7.9,1.6h.9s.2-1.7.2-1.7l1-.4.5.3,1,.8h1s.6.5.6.5v1c0,0,.5,1.3.5,1.3l-1.3.8-.7.4-1.1-1h-.6c0-.1-.2-.6-.2-.6l-1.2.2h-2c0-.1-1.3.5-1.3.5Z"/>
    <path id="LY" d="M261.1,166.3l-.8.5-.7-.7-1.9-.5-.5-.8-.9-.6-.5.2-.4-.7v-.6s-.7-.9-.7-.9l.5-.5v-.8c-.1,0,0-.7,0-.7v-.6c0,0,.1-1.1.1-1.1v-.6c0,0-.4-1.2-.4-1.2l.6-.3v-.6c.1,0,0-.6,0-.6l.8-.5.4-.4.6-.4v-1.1c0,0,1.4.5,1.4.5h.5c0-.1,1,.1,1,.1l1.6.6.5,1.2,1.1.3,1.7.6,1.3.7.6-.4.6-.6-.3-1.1.4-.7.8-.6.8-.2,1.6.3.4.6h.4s.4.2.4.2l1.2.2.3.5-.4.7.2.6-.3.8.4,1.1v11.9h-1.3s0,.5,0,.5l-4.7-2.4-4.7-2.4-1.2.7Z"/>
    <path id="MA" d="M242,153l-.4-1.5v-.9c0,0-.5-.9-.5-.9h-.5s-1.2-.3-1.2-.3h-1.1c0,.1-.7-.5-.7-.5h-.9s-.4.9-.4.9l-.8,1.5-.9.6-1.2.6-.8.9-.2.7-.4,1.2.3,1.7-1,1.1-.6.4-.9.9h-1.1c0,.1-.6.7-.6.7h0s-.7,1.4-.7,1.4l-.8.5-.4.8v.7s-.3.8-.3.8l-.4.2-.7.8-.4.9v.4c0,0-.3.7-.3.7l-.5.3v.6c0,0-.1.5-.1.5l.3-.4h4.6s-.2-1.8-.2-1.8l.3-.6h1.1c0-.1,0-3.4,0-3.4h3.9c0,0,0-1.9,0-1.9v-.3s0,0,0,0v-1.6s1.9-1,1.9-1l1.2-.2,1-.4.5-.7,1.4-.5v-1c0,0,.7-.1.7-.1l.5-.5,1.5-.2.2-.5-.3-.3Z"/>
    <path id="MD" d="M274.9,129.2l.3-.3.8-.2.9.5h.5c0,0,.5.5.5.5v.6c0,0,.3.3.3.3l.2.7.4.4v.3c0,0,.1.2.1.2h-.3c0,.1-.7,0-.7,0v-.2c-.1,0-.4.1-.4.1v.3c0,0-.2.5-.2.5l-.2.6-.3.2-.2-.8v-.7c.1,0,0-.8,0-.8l-.7-1-.4-.7-.4-.5-.4-.2Z"/>
    <path id="ME" d="M266.9,138.8v-.3c0,0-.6.8-.6.8v.5c0,0-.2-.1-.2-.1l-.3-.5-.5-.3v-.3c.1,0,.3-.9.3-.9l.4-.4.2-.2.3.3.2.2.4.2.4.3h0c0,.1-.2.5-.2.5h-.3Z"/>
    <path id="MG" d="M301.9,208.4l.3.5.3.8.2,1.5.3.6v.6c-.1,0-.3.4-.3.4l-.4-.7-.2.4.2.9v.5c-.1,0-.4.3-.4.3v1c0,0-.5,1.4-.5,1.4l-.6,1.7-.7,2.4-.4,1.8-.5,1.5-1,.3-1,.5-.7-.3-.9-.5-.3-.7v-1.1c0,0-.5-1-.5-1v-.9c-.1,0,.1-.9.1-.9l.5-.2v-.4s.6-.9.6-.9v-.8c.1,0-.2-.6-.2-.6l-.2-.8v-1.1c0,0,.3-.7.3-.7l.2-.8h.6s.7-.3.7-.3l.4-.2h.5s.7-.7.7-.7l1-.7.4-.6-.2-.5h.5c0,.1.6-.7.6-.7v-.7s.4-.5.4-.5l.4.5Z"/>
    <path id="MK" d="M267.9,139.8h.2s0-.3,0-.3l.7-.2h.3c0,0,.4-.2.4-.2h.5s.6.5.6.5v1c0,0-.1,0-.1,0l-.2.3h-.6s-.4.3-.4.3h-.8c0,.1-.5-.2-.5-.2l-.2-.7v-.5Z"/>
    <path id="ML" d="M229.4,176.5l.4-.2.2-.7h.4s.8.3.8.3l.7-.2h.5c0,0,.2-.2.2-.2h4.7s.3-.9.3-.9l-.2-.2-.6-5.3-.6-5.5h1.8s4,2.8,4,2.8l4,2.7.3.6.7.4.5.2v.8s1.3-.1,1.3-.1v2.8s-.6.8-.6.8v.8c-.1,0-1.1.2-1.1.2h-1.6c0,.1-.4.5-.4.5h-.8s-.8,0-.8,0l-.3-.2-.6.2-1.1.5-.2.4-.9.5-.2.3-.5.2-.6-.2-.3.3-.2.8-.9,1v.4s-.3.5-.3.5v.7c0,0-.4.2-.4.2l-.3.2-.2-.5h-.3c0,.1-.2.1-.2.1l-.2.3h-.9s-.3-.2-.3-.2h-.2c0,.1-.4-.2-.4-.2v-.4c0,0,0-.1,0-.1h-.3c0,.1,0-.3,0-.3l.2-.3-.5-.5v-.3c-.1,0-.4-.3-.4-.3h-.2s-.3.1-.3.1l-.4.2-.3.3h-.5c0,0-.3-.4-.3-.4h-.2s-.3.1-.3.1h-.2s0-.4,0-.4v-.4c0,0,0-.5,0-.5l-.4-.3-.2-.7v-.8Z"/>
    <path id="MM" d="M360.6,169.6l-.7.5h-.8c0,0-.5,1.4-.5,1.4l-.5.2.6,1.1.7.9.5.8-.4,1.1-.4.2.3.6.8,1v.7c.1,0,.1.6.1.6l.5,1.1-.6,1.1-.6,1.2v-.9c-.1,0,.2-.9.2-.9l-.4-.7v-1.3c0,0-.4-.6-.4-.6l-.4-1.4-.2-1.5-.5-1-.8.6-1.3.9h-.7c0-.1-.7-.4-.7-.4l.4-1.5-.2-1.1-.9-1.4v-.4c.1,0-.5-.2-.5-.2l-.8-1v-1c0,0,.3.2.3.2v-.9s.6-.3.6-.3v-.5c-.1,0,.1-.4.1-.4v-1.3s1,.3,1,.3l.5-1.1v-.6c0,0,.7-1.1.7-1.1v-.7s1.5-.9,1.5-.9l.8.2v-.8c0,0,.3-.2.3-.2v-.5c0,0,.6-.1.6-.1l.4.8.5.3v1s0,1.1,0,1.1l-1.1,1.1v1.5c-.1,0,1.1-.2,1.1-.2l.3,1.2.7.2-.3,1,.9.5.5.2.9-.4v.5s-1,.8-1,.8l-.3.5-.7.3Z"/>
    <path id="MN" d="M346.8,127.3l1.2-.3,2.2-1.6,1.8-.9,1,.6h1.2s.8.9.8.9h1.2c0,0,1.7.5,1.7.5l1.1-1.3-.5-1.1,1.2-2,1.3.8,1.1.2,1.4.5.2,1.4,1.7.8,1.1-.3,1.5-.2,1.2.2,1.2.9.7.9h1.1s1.5.3,1.5.3l1.1-.4,1.5-.3,1.7-1.3.7.2.6.6,1.4-.2-.6,1.4-.8,1.8.3.7.7-.2,1.2.3.9-.6.9.6,1.1,1.2v.6c-.1,0-1.1-.2-1.1-.2l-1.7.2-.8.5-.9,1.1-1.8.6-1.2.9-1.2-.3-.7-.2-.6,1.1.4.6.2.5-.8.5-.8.9-1.4.6h-1.8c0,0-1.9.6-1.9.6l-1.4.8-.5-.5h-1.4l-1.7-1-1.2-.2-1.6.2-2.4-.4h-1.3s-.7-.9-.7-.9l-.5-1.5-.7-.2-1.4-1-1.6-.2-1.4-.3-.4-.7.5-2-.8-1.4-1.7-.7-1-.9-.3-1.2Z"/>
    <path id="MR" d="M229.4,176.5l-.8-.8-.7-.9-.8-.3-.6-.4h-.7s-.6.3-.6.3h-.6c0-.1-.4.3-.4.3v-.7c-.1,0,.2-.6.2-.6v-1.2c.1,0,0-1.2,0-1.2v-.6c-.1,0,0-.6,0-.6l-.3-.6-.6-.5.3-.4h4.6s-.2-1.8-.2-1.8l.3-.6h1.1c0-.1,0-3.4,0-3.4h3.9c0,0,0-1.9,0-1.9l4.4,3.2h-1.8s.6,5.5.6,5.5l.6,5.3.2.2-.3.9h-4.7s-.2.3-.2.3h-.5c0,0-.7.2-.7.2l-.8-.3h-.4s-.2.7-.2.7l-.4.2Z"/>
    <path id="MW" d="M284.3,207.3l-.3.9.3,1.6h.4s.4.4.4.4l.5.9v1.6c.1,0-.4.3-.4.3l-.4.8-.8-.8v-.9c0,0,.2-.6.2-.6v-.5c0,0-.5-.3-.5-.3h-.3c0,.1-.7-.5-.7-.5l-.6-.3.4-1.1.4-.4-.2-1,.2-1,.2-.3-.3-1-.6-.5,1.1.2.2.3.4.6.3,1.6Z"/>
    <path id="MX" d="M129.5,162.4l-.5,1.1-.2.9v1.7c0,0-.2.6-.2.6l.2.7.4.6.2,1,.8.9.3.7.5.6,1.2.3.5.5,1-.3h.9c0-.1.9-.3.9-.3l.7-.2.7-.5.3-.7v-1c0,0,.3-.4.3-.4l.8-.3,1.2-.3h1s.7,0,.7,0l.3.3v.6s-.7.7-.7.7l-.3.8.2.2-.2.5-.3,1-.3-.3h-.2s-.2,0-.2,0l-.4.7h-.2c0-.1-.1,0-.1,0v.2s-1.1,0-1.1,0h-1.1v.7h-.5l.4.4.4.3v.3c.1,0,.3,0,.3,0v.4s-1.5,0-1.5,0l-.6,1,.2.2v.3c-.1,0-.2.4-.2.4l-1.3-1.3-.6-.4-1-.3h-.7c0,0-.9.5-.9.5h-.6c0,.1-.8-.2-.8-.2l-.9-.2-1.1-.6-.9-.2-1.3-.6-1-.6-.3-.3h-.7c0,0-1.2-.5-1.2-.5l-.5-.6-1.3-.7-.6-.8-.3-.6h.4c0-.1-.1-.5-.1-.5l.3-.3v-.4s-.4-.6-.4-.6v-.5c-.1,0-.5-.6-.5-.6l-1-1.3-1.2-1-.6-.8-1-.5-.2-.3.2-.8-.6-.3-.7-.6-.3-.9h-.6c0-.1-.7-.8-.7-.8l-.6-.6v-.4c0,0-.7-1-.7-1l-.4-1v-.5s-.8-.5-.8-.5h-.4c0,0-.7-.3-.7-.3l-.2.6.2.7v1c.1,0,.5.6.5.6l.9.9.2.3h.2c0,0,.2.6.2.6h.2s.2.8.2.8l.4.3.2.5.7.7.4,1.2.3.6.3.6v.7c0,0,.6,0,.6,0l.5.6.4.6v.2s-.5.5-.5.5h-.2s-.3-.8-.3-.8l-.8-.7-.8-.6-.6-.3v-.9s-.1-.7-.1-.7l-.6-.4-.8-.6-.2.2-.3-.3-.7-.3-.7-.8h0c0-.1.5,0,.5,0l.4-.5v-.6s-.9-1-.9-1l-.7-.4-.4-.8-.4-.9-.5-1.1-.5-1.2h1.3c0-.1,1.5-.3,1.5-.3v.3c-.1,0,1.7.7,1.7.7l2.7,1h2.3s.9,0,.9,0v-.6h2l.4.5.6.4.7.6.4.7.3.7.6.4,1,.4.7-1.1h1s.8.5.8.5l.6.9.4.8.7.8.3.9.3.6.9.4.8.3h.5Z"/>
    <path id="MY" d="M362.4,186.5v.6c0,0,.9-.1.9-.1l.4-.5h.3c0,.1.7.8.7.8l.5.8v.8c0,0,0,.5,0,.5v.4c.1,0,.2.7.2.7l.4.3.5,1v.4s-.9,0-.9,0l-1.1-.9-1.4-.9v-.6c-.1,0-.8-.8-.8-.8l-.2-1-.4-.6v-.9c.1,0-.1-.5-.1-.5l.2-.2,1,.5ZM383,188.5l-.9.4-1-.2h-1.3l-.4,1.3-.5.4-.6,1.6-1,.2-1.1-.3h-.6c0,.1-.7.7-.7.7h-.8c0,0-.8.2-.8.2l-.8-.7-.2-.8.9.4.9-.2.2-1,.5-.2,1.4-.3.8-.9.6-.7.5.6.2-.4h.6s0-.7,0-.7v-.6c0,0,1-.8,1-.8l.6-.9h.5s.6.6.6.6v.5c0,0,.8.3.8.3l1,.4v.5c0,0-.9,0-.9,0l.2.6Z"/>
    <path id="MZ" d="M284.3,207.3h.9c0,0,1.4.2,1.4.2l.3-.2h.8s.4-.4.4-.4h.7s1.3-.4,1.3-.4l.9-.7.2.5v1.2c0,0,0,1,0,1v1.9s.3.6.3.6l-.3.9-.5.8-.8.8-1.1.5-1.3.6-1.3,1.3-.5.2-.8.9-.5.3v.9c-.1,0,.5.9.5.9l.2.7v.4s.2,0,.2,0v1.2s-.2.6-.2.6l.3.2-.2.5-.5.5-1,.4-1.4.7-.5.5v.5c.1,0,.4,0,.4,0v.7c-.1,0-1,0-1,0v-.6c-.1,0-.3-.6-.3-.6v-.5c-.1,0,.1-1.4.1-1.4l-.3-.9-.6-1.8,1.2-1.4.3-.9h.2c0-.1.1-.8.1-.8l-.2-.4v-.9c0,0,.3-.9.3-.9v-1.5s-.6-.4-.6-.4h-.6c0,0-.3-.4-.3-.4l-.5-.3h-1s0-.4,0-.4v-.9c-.1,0,3.5-1,3.5-1l.7.6h.3c0-.1.5.2.5.2v.5c0,0-.2.6-.2.6v.9c0,0,.9.8.9.8l.4-.8.5-.3v-1.6c-.1,0-.6-.9-.6-.9l-.4-.4h-.4s-.3-1.5-.3-1.5l.3-.9Z"/>
    <path id="NA" d="M262.9,228.6l-.9-1-.5-1-.3-1.3-.3-.9-.4-2v-1.5s-.2-.7-.2-.7l-.5-.5-.6-1-.6-1.5-.3-.8-1-1.2v-.9c0,0,.5-.2.5-.2l.7-.2h.8s.7.6.7.6h.2c0,0,4.8-.1,4.8-.1l.8.6,2.8.2,2.2-.5,1-.3h.8c0,0,.5.3.5.3h0c0,.1-.7.4-.7.4h-.4s-.7.5-.7.5l-.5-.5-1.8.4h-.9s0,4.5,0,4.5h-1.2v8.6s-1.1.7-1.1.7h-.6c0,0-.7-.2-.7-.2h-.5c0,0-.2-.7-.2-.7l-.5-.4-.6.7Z"/>
    <path id="NC" d="M438.5,218.9l1,.8.6.6-.4.3-.6-.3-.8-.6-.8-.7-.8-.9-.2-.4h.5s.7.4.7.4l.5.4.4.3Z"/>
    <path id="NE" d="M246.2,179.7v-.8s-1.3-.3-1.3-.3v-.6s-.7-.8-.7-.8l-.2-.5v-.6c0,0,.8,0,.8,0l.4-.4h1.6c0-.1,1-.3,1-.3v-.8c.1,0,.7-.8.7-.8v-2.8s1.7-.6,1.7-.6l3.4-2.5,4-2.4,1.9.5.7.7.8-.5.3,2,.4.3v.4s.5.4.5.4l-.3.5-.5,2.5v1.6c0,0-1.6,1.1-1.6,1.1l-.5,1.6.5.4v.8s.8,0,.8,0v.6c-.1,0-.4,0-.4,0v.4s-.3,0-.3,0l-.8-1.3h-.3c0,0-.9.6-.9.6l-.9-.3h-.6c0,0-.3,0-.3,0h-.7s-.7.5-.7.5h-.6s-1.4-.6-1.4-.6l-.6.3h-.6s-.4-.5-.4-.5l-1.2-.4h-1.3c0,.1-.3.4-.3.4l-.2.7-.3.5v1.1c0,0-1-.7-1-.7h-.4s-.4.4-.4.4Z"/>
    <path id="NG" d="M253.7,188.1l-1.2.4h-.4c0,0-.5.2-.5.2h-.9s-.6-.8-.6-.8l-.4-.8-.8-.8h-.9s-1,0-1,0v-1.9c0,0,0-.8,0-.8l.2-.7.4-.4.6-.7v-.3c-.1,0,.1-.5.1-.5l-.3-.7v-.4s.1-1.1.1-1.1l.3-.5.2-.7.3-.3h1.3c0-.1,1.2.3,1.2.3l.4.5h.6s.6-.3.6-.3l1.4.6h.6s.7-.5.7-.5h.7s.3-.1.3-.1h.6c0,0,.9.4.9.4l.9-.7h.3c0,0,.8,1.4.8,1.4h.2s.5.4.5.4v.2c-.1,0-.2.4-.2.4l-1,.9-.3.8-.2.6-.2.3-.2.8-.6.5-.2.6-.3.5v.5c-.1,0-.9.4-.9.4l-.7-.5h-.4s-.7.7-.7.7h-.3s-.6,1.1-.6,1.1l-.3.8Z"/>
    <path id="NI" d="M142.9,180.7l-.4-.4-.5-.5-.3-.4-.5-.4-.6-.5v-.2c.1,0,.3.2.3.2h0c0,0,.4-.1.4-.1v-.3c.1,0,.3,0,.3,0v-.6s.3,0,.3,0h.2s.3-.3.3-.3l.3.2v-.2c.1,0,.3-.1.3-.1l.4-.3v-.3s.1,0,.1,0l.2-.3h.1s.2.2.2.2h.2c0,0,.3-.1.3-.1h.3l.4-.2.2-.2h.4s-.1.1-.1.1v.3c0,0,0,.4,0,.4l-.3.4v.5c-.1,0-.2.5-.2.5v.3c0,0,0,.5,0,.5h-.2c0,.1-.1.6-.1.6v.3c0,0-.2.3-.2.3v.3c0,0,.2.2.2.2l-.3.3h-.3c0,0-.2-.3-.2-.3h-.4c0-.1-.3,0-.3,0l-.8-.3-.2.2Z"/>
    <path id="NL" d="M250.8,119.4h1c0,0,.2.7.2.7l-.3,1.8-.3.7h-.7l.2,2-.6-.4-.7-.8-1.1.4h-.9c0-.1.6-.7.6-.7l1-2.8,1.6-.8Z"/>
    <path id="NO" d="M276.8,73.1l3.7,2.6-1.5.9,1.3,2.1-2,1.3-.9.3.5-2.3-1.5-1.4-1.8,1.2-.6,2.5-1.1,1.4-1.3-.8-1.5.2-1.3-1.7-.7.9h-.7c0,.1-.2,2.3-.2,2.3l-2.2-.5-.3,1.8h-1.1s-.8,2.2-.8,2.2l-1.2,3.3-1.8,4,.4.9-.4,1.1h-1.2s-.8,2.4-.8,2.4v3.4c0,0,.8,1.2.8,1.2l-.4,2.8-1,1.6-.5,1.3-.8-1.4-2.3,2.6-1.6.5-1.6-1.1-.4-2.5-.4-5.6,1.1-1.6,3.1-2.2,2.3-2.8,2.1-3.9,2.8-5.8,2-2.4,3.2-4.1,2.6-1.5,1.9.2,1.8-2.9,2.1.2,2.1-.7Z"/>
    <path id="NP" d="M347.2,159.8v.6c0,0,0,.8,0,.8v.5c-.1,0-1.1,0-1.1,0l-1.4-.3h-.9c0-.1-.7-.8-.7-.8l-1.6-.2-1.5-.7-1.1-.6-1.1-.5.5-1.3.7-.6.5-.3.9.4,1.2.9.7.2.4.6.9.3,1,.6,1.3.3h1.4Z"/>
    <path id="NZ" d="M447,246.2l.3.6.8-.6.3.7v.7l-.4.7-.8,1.2-.6.6.4.8h-.9s-1,.6-1,.6l-.3,1.1-.7,1.7-.9.8-.6.5h-1.1s-.8-.6-.8-.6h-1.3c0-.1-.2-.7-.2-.7l.6-1.2,1.5-1.6.8-.3.8-.6,1-.8.7-.8.5-1.2.4-.4.2-.9.8-.7.3.7ZM448.8,239.1l.9,1.5v-1s.6.4.6.4l.2,1.1.9.5h.8c0,.1.7-.4.7-.4l.6.2-.3,1.3-.4.9h-.9s-.3.4-.3.4v.7c.1,0,0,.3,0,.3l-.4.8-.6,1.1-.9.6-.2-.4-.5-.2.7-1.3-.4-.8-1.3-.6v-.5s.9-.5.9-.5l.2-1.1v-1c0,0-.5-1-.5-1v-.3s-.5-.6-.5-.6l-.9-1.3-.5-1h.4c0-.1.6.7.6.7l.9.4.3,1.3Z"/>
    <path id="OM" d="M312.8,168.5l-.4.9h-.5c0,0-.2.2-.2.2l-.2.6v.8c.1,0,0,.2,0,.2h-.5s-.7.5-.7.5v.6c-.1,0-.4.3-.4.3h-.7s-.5.3-.5.3v.5s-.6.3-.6.3h-.6c0-.1-.8.3-.8.3h-.5c0,0-.4-.8-.4-.8l-.9-2,3.5-1.2.8-2.5-.5-.9v-.5s.4-.5.4-.5v-.5s.5-.3.5-.3l-.2-.2v-.8c0,0,.7,0,.7,0l.5.9.7.5.9.2.7.2.5.7.3.4.4.2v.3s-.4.8-.4.8l-.2.4-.5.4ZM309.9,162.4l-.2.2-.2-.4.3-.4h.1c0,.1-.1.7-.1.7Z"/>
    <path id="PA" d="M152.1,185.3l-.4-.3-.3-.6.3-.3h-.3c0,0-.2-.5-.2-.5l-.6-.3h-.5c0,0-.2.5-.2.5l-.5.3h-.3s-.1.3-.1.3l.6.6-.3.2-.2.2h-.5c0,0-.2-.6-.2-.6l-.2.2h-.4c0,0-.2-.5-.2-.5h-.5c0,0-.3-.2-.3-.2h-.5v.3s-.2-.2-.2-.2v-.2c0,0,.2-.2.2-.2v-.2s.1-.1.1-.1l-.2-.2v-.5s.4-.1.4-.1l.4.4v.3s.4,0,.4,0h.1c0,0,.3.2.3.2h.6c0,0,.5-.4.5-.4l.7-.2.4-.4h.6c0,0,0,.2,0,.2h.7s.5.2.5.2l.4.4.4.3v.2c-.1,0,.1.7.1.7l-.2.4h-.4c0,0-.2.5-.2.5Z"/>
    <path id="PE" d="M161.9,214.6l-.3.6-.6.3-1.2-.7v-.5c-.1,0-2.4-1.2-2.4-1.2l-2.1-1.3-.9-.7-.5-1,.2-.3-1-1.6-1.2-2.2-1.1-2.4-.5-.5-.4-.9-.9-.8-.8-.5.4-.5-.6-1.1.4-.8.9-.7v.5c.1,0-.2.3-.2.3v.4s.5,0,.5,0h.5c0,.1.5.7.5.7l.7-.5.2-.8.7-1,1.4-.5,1.3-1.2.4-.8-.2-.9h.3c0-.1.8.4.8.4l.4.6.5.3.7,1.2h.9c0,.1.6-.2.6-.2l.4.2h.7c0-.1.9.4.9.4l-.8,1.2h.4s.6.6.6.6h-1.1c0,0-.2.1-.2.1l-1,.2-1.3.8v.5c0,0-.4.4-.4.4v.6c.1,0-.6.3-.6.3v.5l-.3.2.5,1.1.7.7-.2.5h.8c0,0,.4.7.4.7h1s1-.7,1-.7v1.8c0,0,.5.1.5.1l.7-.2,1,1.9-.3.4v.8c0,0,0,1,0,1l-.5.6.2.4-.3.4.5,1-.7,1.3Z"/>
    <path id="PG" d="M426.8,201.7h-.3c0,.1-.5-.3-.5-.3l-.5-.7-.3-.9h.2c0-.1.1.2.1.2l.4.3.6.7.6.4-.2.3ZM422.2,200.1h-.6c0,0-.2.4-.2.4l-.6.3-.6.3h-.6l-1-.3-.7-.3v-.4c0,0,1.1.2,1.1.2h.6c0,0,.2-.7.2-.7h.2s.1.6.1.6h.7c0,0,.3-.5.3-.5l.7-.4v-.7c-.1,0,.6,0,.6,0l.2.2v.6s-.4.7-.4.7ZM416.6,202.4l1,.8.8,1.3h.7s0,.5,0,.5l.9.2-.4.2,1.2.5v.3c-.1,0-.9,0-.9,0l-.3-.3h-1c0-.1-1.2-.3-1.2-.3l-.9-.8-.7-.6-.6-1-1.5-.5-1,.3-.7.4.2.9-.9.4-.7-.2h-1.2c0,0,0-3.9,0-3.9v-3.8s2,.8,2,.8l2.2.7.8.6.7.6.2.7,2,.7.3.6h-1.1c0,.1.3.9.3.9ZM423.6,199l-.4.3-.2-.7-.3-.5-.5-.4-.7-.5-.8-.3.3-.3.6.3.4.3.5.3.5.5.4.4v.6Z"/>
    <path id="PH" d="M392.2,183.9v.8c.1,0,.2.7.2.7l-.4,1.1-.4-1.2-.5.6.4.9-.3.5-1.4-.7-.3-.9.4-.6-.7-.6-.4.5h-.6s-.9.6-.9.6l-.2-.3.5-1,.7-.3.6-.4.4.5.9-.3.2-.5h.8s0-.9,0-.9l1,.6v.6c.1,0,.2.4.2.4ZM389.3,181.7l-.4.4-.4.8-.4.4-.7-.8.2-.3.3-.3v-.7c.1,0,.8,0,.8,0l-.2.8.9-1.1v1.1ZM382.9,182.8l-1.6,1.1.6-.8.9-.7.7-.8.6-1.2.2,1-.8.7-.6.8ZM386.9,179.7l.7.4h.7v.5s-.6.5-.6.5l-.7.4v-.6s0-.6,0-.6l-.2-.6ZM391.1,179.4l.3,1.3-.9-.3v.4s.3.7.3.7l-.6.3v-.8c0,0-.4,0-.4,0l-.2-.7h.7c0,0,0-.4,0-.4l-.7-.9h1.1s.3.5.3.5ZM386.5,178.3l-.3,1-.5-.6-.6-.9h1s.4.5.4.5ZM386.2,171.7l.7.4.4-.3v.3c.1,0,0,.5,0,.5l.4.9-.3,1-.7.4-.2,1,.3,1h.6c0,.1.5,0,.5,0l1.5.7v.7c-.1,0,.3.3.3.3v.6c-.1,0-1-.6-1-.6l-.4-.6-.3.4-.8-.7-1.1.2-.6-.3v-.5c0,0,.4-.3.4-.3l-.4-.3-.2.4-.6-.7-.2-.5v-1.2s.4.4.4.4v-1.9c.1,0,.5-1.1.5-1.1h.7Z"/>
    <path id="PK" d="M330.1,152.8l-.2-2,.8-.7-1.3-1.1h-.4s-.2-.5-.2-.5l1.3-1h0s-.8,0-.8,0l-1.3.3-.7.6.3.6v.7c.1,0-.4.6-.4.6v.5c0,0-.3.5-.3.5h-1.1s.5.9.5.9l-.7.4-.5.8v.8c0,0-.4.4-.4.4h-.4c0-.1-.9,0-.9,0v.4h-1l-.7.8v1.2s-1.6.6-1.6.6h-.8c0-.1-.2.2-.2.2l-.7-.2-1.2.2-2-.7.6.7.5.8,1.1.6v1.2s.6.2.6.2v.6c0,0-1.6.7-1.6.7l-.4,1.5,1.7-.2h1.9s2.2-.3,2.2-.3l.9,1,.4.9.9.3.8-.9h2.6s-.2-1.1-.2-1.1l-.7-.7v-1c-.1,0-.9-.6-.9-.6l1.3-1.4h1.4c0,.1,1.2-1.3,1.2-1.3l.7-1.4,1.1-1.4v-1s1-.8,1-.8l-1-.7h0s0,0,0,0l-1-.4Z"/>
    <path id="PL" d="M261.3,124l-.5-1.2v-.7c0,0-.2-1-.2-1l-.4-.7.3-.5-.3-1,.8-.6,1.8-.9,1.5-.7,1.2.3v.5c0,0,1.2,0,1.2,0l1.4.2h2.2s.6.2.6.2l.3.6v.9c0,0,.4.7.4.7v.8s-.7.4-.7.4l.4.9v.8s.6,1.6.6,1.6v.5c-.1,0-.7.2-.7.2l-1.1,1.5.3.8h-.3c0-.1-1.1-.8-1.1-.8l-.8.3-.6-.2-.7.4-.6-.6-.5.2h0c0-.1-.5-1-.5-1h-.9c0-.1-.1-.7-.1-.7l-.8-.2-.2.5-.6-.4v-.5c0,0-.8-.2-.8-.2l-.6-.6Z"/>
    <path id="PR" d="M165.8,171.7h.6c0,.1.2.4.2.4l-.3.3h-.9s-.7,0-.7,0v-.5c0,0,0-.2,0-.2h1Z"/>
    <path id="PS" d="M285.4,153.7v.8l-.2.4-.6.2v-.4c0,0,.4-.2.4-.2l-.3-.2.2-.9.4.2Z"/>
    <path id="PT" d="M233,139.7l.4-.4.5-.2.3.8h.7s.2-.2.2-.2h.7c0,0,.3.8.3.8l-.5.4v1.2s-.2.2-.2.2v.7s-.6.1-.6.1l.5.9-.3,1,.4.4-.2.4-.4.6v.5c0,0-.4.4-.4.4l-.6-.2-.6.2.2-1.1v-.9c-.1,0-.6-.1-.6-.1l-.3-.6v-1c0,0,.6-.5.6-.5v-.6c0,0,.3-.9.3-.9v-.7s-.3-.6-.3-.6v-.5Z"/>
    <path id="PY" d="M170,220.4l.5-1.5v-.7s.6-1.1.6-1.1l2-.4h1.1s1.1.7,1.1.7v.4s.4.7.4.7v1.7c0,0,1.2.2,1.2.2l.5-.2.8.3.2.4v1.2c.1,0,.2.5.2.5h.4c0,0,.4-.2.4-.2l.4.2v.7l-.2.8-.2.7-.2,1.2-1.1,1-.9.2-1.3-.2-1.2-.4,1.2-2-.2-.6-1.2-.5-1.4-.9-1-.2-2.2-2.1Z"/>
    <path id="QA" d="M303.4,163.9v-.9c0,0,.2-.7.2-.7h.3c0-.1.4.3.4.3v.8s-.2.8-.2.8h-.3c0,0-.4-.2-.4-.2Z"/>
    <path id="RO" d="M270.3,129.8l.5-.4.7.2h.8s.5.4.5.4l.4-.3.9-.2.3-.4h.5s.4.2.4.2l.4.5.4.7.7,1v.8s0,.7,0,.7l.2.8.5.3.5-.3.5.3v.4s-.5.4-.5.4l-.4-.2-.3,2-.7-.2-.9-.6-1.4.4-.6.4h-1.7c0,0-.9-.3-.9-.3h-.5c0,.1-.3-.5-.3-.5l-.2-.3.3-.3-.3-.2-.4.4-.7-.5v-.7c0,0-.8-.4-.8-.4v-.5c-.1,0-.8-.7-.8-.7l.9-.3.7-1.2.6-1.2.7-.4Z"/>
    <path id="RS" d="M268.2,134l.7.4v.7c0,0,.8.5.8.5l.4-.4.3.2-.3.3.2.3-.3.4v.6c.1,0,.7.7.7.7l-.4.5-.2.5v.2c.1,0,0,.2,0,.2h-.5s-.4.1-.4.1h0c0-.1.1-.3.1-.3v-.4c.1,0,0,0,0,0l-.2-.3h-.2c0,0-.2-.3-.2-.3h-.2c0-.1-.2-.3-.2-.3h-.2c0,0-.2.6-.2.6h-.3c0,.1,0,0,0,0l-.4-.3-.4-.2-.2-.2-.3-.3h.3c0,0,.2-.8.2-.8l-.6-.6.3-.7h-.4s.5-.6.5-.6l-.4-.5-.3-.6.9-.4h.7c0,0,.6.7.6.7v.5Z"/>
    <path id="RU_europe" d="M299,26.2l-2.6-.2,2.3-1.3h1.8c0,0,.2,1.9.2,1.9l.7-1.7,1.1-1.2,1.7,1.6-.5,1.1-1.6.9-1.1.5-.2,1.1-1.4,1.1-1.3-1.6.7-2.2ZM313.8,121.4l-.8-.3v-1.1s.4-.9.4-.9l.6-.6-.3-.7-.8-.4-.8.5-.8.6-.8-1-.5-.8-.5-1,1.3-.2,1.1-.3.7-1.1v-.9c-.1,0-1-.7-1-.7l.2-1,.9-1.1.7-1.5.7-2.1.6-3.7.8-8.4,2.2-1.7,2-2.3,1.6-1.3,1.6-1.6.9-1.7-.4-3.1-3.6-3.1-1.6-1-3.5-1-.6,1.1,1.2,1.9-1.3,2.1-1.3-1.9-1.7,1.3h-2.2c0,0-.8,1.2-.8,1.2l-1.5-.3,1.2-1.9-.9-.2-4.1,2.7-2.5,1.5-.3,1.9-1.8.6-.9-1v-1.7s1.5-.4,1.5-.4l-.7-1.8-3.3-1,.9,2-.6,1.8,1,1.8-.7,2-1.1-1-1.1-.2-2.7,2.8.8,2-1,.7-2.8-1.7-.7,1.1.7,1.2-.2,1.3-.9-.7-1.5-.8v-2.8c0,0-.2-1.3-.2-1.3l-1.9-2.1.9-.4,5.2,2.2,1.9-.8,1.3-1.5v-2c0,0-1-1.5-1-1.5l-4.4-3.6-3.2-.8-1.9-2-1.2,1.2-2,1.3-.9.3-.2,2.3,1.8,2.1-1.1,2.3,1.4,3.3-.8,2.4,1.1,2-.5,1.7,1.7,1.8-.4,1.3-1.1,1.4-2.5,3.1,1.2,1.1-1.3,1.3.2.4-.8,1.3.3,2.1-.5.7.6.5v1c.1,0,.5,1.3.5,1.3l1.2.5.2.5.6-.2,1.1.5v1c.1,0-.1.5-.1.5l.7,1.3.5.4v.4c0,0,.7.3.7.3l.3.5-.5.4h-.9c0,0-.2.1-.2.1l.3.6.3,1.2h.4c0,0,.3-.4.3-.4h.4c0,0,1.2,0,1.2,0l.8,1.1-.3.4v.6c0,0,1,0,1,0l.4.8v.4s1.5.6,1.5.6l.9-.3.7.9h.7s1.7.6,1.7.6v.5s-.5.9-.5.9l.3,1-.2.6h-1.1c0,.1-.6.6-.6.6v.8s1-.3,1-.3v.4s-1.7.7-1.7.7l.7.7-1,1.4-.9.3,1,1,1.3.6,1.5,1.4v-.2c.1,0,1.1.3,1.1.3l1.7.3,1.6.8.2.3.7-.3,1.1.3.4.6.7.4h.3c0,0,.8,1,.8,1h.5c0,.1.2-.3.2-.3l.7-.6-1.3-1.9v-1.1c.1,0-1-1.6-1-1.6l1.2-1.7,1.1-.3.5-1-.6-.3v-.9c.1,0-.6-1.2-.6-1.2h-.9c0,0-1-1.1-1-1.1l.7-1.3-.3-.4.9-2,1.2,1.1v-1.3c.1,0,2.6-2,2.6-2h1.8c0,0,2.6,1.2,2.6,1.2l1.4.8,1.2-.8h1.9s1.5.9,1.5.9l.3-.5h1.7c0,0,.3-.8.3-.8l-1.9-1.3h.2c0-.1-.1-.2-.1-.2l-.4-.8ZM305.3,69.2l-1.2.8.2,2,2.1,1,.3,1.6,3.8.5.7-.3-2.2-3-.2-3.2,1.8-3.8,1.8-4.1,3.7-4.3,3.6-2.2,4.2-2.4.8-1.6-.8-2-2.3.7-2,1.9-3.9.9-3.9,3.1-2.6,2.5.3,2-2.8,3.8,1.1.5-2.3,3.5v2.1ZM269.9,116.3l-1.2-.4-1.6.7-.3.9,1.4.2h2.2s0-.5,0-.5v-.6c.1,0-.4-.3-.4-.3Z"/>
    <path id="RU_asia" d="M410.6,62.6l1.7,1.6v1.1c.1,0-1.6,0-1.6,0l-2.4-.5-.2-.2,1.1-1.6,1.5-.4ZM367.1,40.7l.3-2.4-3-3.5-.9-.4-1,.7-2.1,7.8,6.6-2.2ZM419.4,59l1.4-1.8-3-1.2-2.2-.7-.3,1.5,2.2,1.8,1.9.4ZM455.2,74.4l1.5-.2,1.2-.9v-.5c.1,0-1.6-1.1-1.6-1.1h-1s-.2.1-.2.1l-1.5,1.5.2,1.1,1.3-.2ZM408.9,58.3h4.3c0,.1.9-3.3.9-3.3l-4.2-2.5-3.1-.2-1.6.9-.6,3.2,2.3,2.9,1.9-1.1ZM353.3,33.9l1.9,2.4,3.3,1.8,2.6-.8.3-5.7-2.7-6.7-2.3-3.8-2.5,1.7-3.1,5,1.6,1.4.9,4.8ZM464.7,87.2l-3.2-.4.3,2.2-.8-.7v-1.9c.1,0-3-3.1-3-3.1l-2.9-2.5-1.6-1.4-3.4-1.6-2.4.2-3.8-1-.5,1.5,1,2.1-1.5,1-2-2.9-2.2.4-2.2-.7h-2.1c0,0-1.6.8-1.6.8l-1.4-1v-2.5c.1,0-.8-1.5-.8-1.5l-2.3-.6-4.7.7-3.1-2.8-1-2.2-10.6-2.5-1.6,1.7.8,3.5-1.9-.5-.9,1-2.3-1.1-2,1-1.9-1.7-1.1,3.8-1.8-1.5-1.5-2.9.7-1.6-.5-2.5-1.9-2.2h-1.9s-2.5-.7-2.5-.7v3.1c0,0-5-.6-5-.6l-.3-1.9-3.8-.7-1.9.7-.5,1.1-.6-2.7-1.1.8-1.7-1.1-1.5-.6.9-1.3,3.1-2.5,1.3-1.4.3-2.5-.9-1.8-2.6-2.4h-3.4c0,0-1.1,1.2-1.1,1.2l-.3-2.5-2.7-.8,1.6-1.3-2-1.8-2.8,2.2-1.1,2.2-.3,2.2h-2.2c0,0-2.6,2.5-2.6,2.5l-1-1.1-3.1.5-.4,1.3-3.1.6-2.3,2.3h-1.3c0,.1-1.4,3.1-1.4,3.1l1,2.3-2.5.6-2.8-.2-2,.8v4.3c.1,0,1.2,3.2,1.2,3.2l-2.2-2.2-2.4.2-2,1.5.5,2.7-1.3-.7.5-3.6-.6-2.2h-.6c0,0,.3,2.9.3,2.9l-2.1,2.5,1.5,2.9-.9,3.5.3,1.9,1.3.3-.5,2.1.7,1.8-1,1.5-.3,1.5-1.3.8-.5,1.1-1.3-.4,2.3-4.3.5-2.1-1.3-2,.3-4.6-.4-2.5-.7-1.2,1.1-3.1-.2-2.2-3.1-1.1-.9.8-.8,3.5-2.2,3.3v1.1s.7,2.7.7,2.7l-.4,1.6,1.4.3v.7s1.2,1.7,1.2,1.7l-.8,1.7-.7-.6.4,3.1-.9,1.7-1.6,1.6-1.6,1.3-2,2.3-2.2,1.7-.8,8.4-.6,3.7-.7,2.1-.7,1.5-.9,1.1-.2,1,.9.7v.9c.1,0-.6,1.1-.6,1.1l-1.1.3-1.3.2.5,1,.5.8.8,1,.8-.6.8-.5.8.4.3.7-.6.6-.5.9v1.1s.8.3.8.3l.3.8h.1s1-.8,1-.8l-.2-.5,1.1-.5-.8-1.3.5-.7,4.4-.7.6-.5,2.9-.8,1.1-.9,2.1.4.4,2.1,1.2-.5,1.5.7v1.1c0,0,1-.1,1-.1l2.9-1.9-.4.6,1.5,1.5,2.6,4.9.6-1,1.6,1.1,1.7-.5.6.3.6,1.1.8.4.5.8,1.5-.2.6,1.1h.5c0-.1,1.2-.5,1.2-.5l2.2-1.6,1.8-.9,1,.6h1.2s.8.9.8.9h1.2c0,0,1.7.5,1.7.5l1.1-1.3-.5-1.1,1.2-2,1.3.8,1.1.2,1.4.5.2,1.4,1.7.8,1.1-.3,1.5-.2,1.2.2,1.2.9.7.9h1.1s1.5.3,1.5.3l1.1-.4,1.5-.3,1.7-1.3.7.2.6.6,1.4-.2,1.4.7,1.7-1.1v-.8s1-2,1-2l.7-.6v-1.1s-.7-.5-.7-.5l1-1,1.5-.4h1.6c0,0,1.8.5,1.8.5l1,.7.7,1.9.4.8.4,1.1.4,1.8,2,.6,1.4,1.3.5,1.7h1.8l1-.7,1.9-.5-.6,1.6-.5.6-.4,1.9-.8,1.6-1.4-.3-1,.6.3,1.4-.2,1.9h-.6s0,.9,0,.9l.2.3.2-.5,1.6-1.2.7.8h.7s1.6-1,1.6-1l.8-1,1.6-1.9,1.6-2,.4-1.2,1.8-2.5.5-2.9v-2.2c.1,0,1-1.9,1-1.9v-1.6s-1.7-2.2-1.7-2.2h-1.3c0-.1-.8.9-.8.9l-1.1-.4-.6-1.3-1.9-.3,4.5-4.9,3.8-4.3,3.9-.7,3.6.4,1.5-1.1,1.8.4v1.7c0,0,1.7-.2,1.7-.2l2.6-.6-1-1.4,2.9-4,3-.8,1,3,3-2.7.7-2.1,1.4-.2-.9,3.5-2.1,1.9-2,2.4-2.1,2.8-1.8.5v1c0,0-1.1,1.3-1.1,1.3l-.6,2.9.7,4.5.5,2.8.4,1.3,1.7-1.8.4-2,1.8-.5.4-2.3,2.1-1-.5-.9.5-1.7h1.1c0,0,.2-3.2.2-3.2l-1.3-.5v-.9s1.4-2.2,1.4-2.2l.4-1.5,1.6.3,1.1-1,.5.9,3.1-1.9,1.7,1.6.4-1.1,1.7-1.5,1.8-1.7,1-.3,3.3-1.9,2.2.6.3-.7v-1.1c-.1,0-.7-.7-.7-.7l-.7-2.2-1.1-1.4,1.5.2,1.5-1.2h0s.7-1.2.7-1.2l-.5-1.3,1.4-.7-.3,1.1.6,1,1.3-.4,1.2.5.3,1.2,1.6.8.9.9h1.1c0,0,.5-.5.5-.5v-2.7s2-.3,2-.3l1.2-1.2-2.3-2.8ZM413.6,127.9l-1.2-3.2-.5-1.9v-1.9s-.4-1.9-.4-1.9l-.3-1.3-.5.3.5.9-1.1.9v2.6c-.1,0,.6,1.8.6,1.8v2.5c0,0-.3,1.4-.3,1.4v1.9c.1,0,0,1.7,0,1.7l.2,1.4.8-1.3.9,1v-1.2s-1.1-1.8-1.1-1.8l.7-2.6,1.7.6Z"/>
    <path id="RW" d="M279.4,195l.5.7v.7c0,0-.4.1-.4.1h-.6c0,0-.4.6-.4.6h-.7c0,0,.1-.7.1-.7h.2c0,0,0-.8,0-.8l.3-.3h.3c0,.1.7-.2.7-.2Z"/>
    <path id="SA" d="M293.9,174.4l-.2-.5-.4-.4v-.5c0,0-.7-.4-.7-.4l-.6-1-.3-1-.8-.9-.5-.2-.8-1.2v-.9c-.1,0,0-.8,0-.8l-.7-1.4-.5-.5-.6-.3-.4-.7v-.3c0,0-.3-.7-.3-.7l-.3-.3-.5-1-.7-1.1-.6-.9h-.6s.2-.7.2-.7v-.5c0,0,.2-.5.2-.5l1.3.2.5-.4.3-.5.9-.2.2-.5.4-.2-1.2-1.4,2.4-.7.2-.2,1.4.4,1.8,1,3.3,2.7h2.2c0,.1,1,.2,1,.2l.3.6h.8s.5,1.1.5,1.1l.6.3.2.5.8.5v.5c0,0,0,.4,0,.4l.2.4.3.4.2.4.2.3.4.3h.3c0,0,.2.4.2.4v.3s.5,1.3.5,1.3l3.5.6.2-.3.5.9-.8,2.5-3.5,1.2-3.4.5-1.1.6-.8,1.3-.5.2-.3-.4h-.4c0,0-1.1,0-1.1,0h-.2c0-.1-1.4,0-1.4,0h-.3c0,.1-.5-.2-.5-.2l-.3.6v.5c.1,0-.4.4-.4.4Z"/>
    <path id="SB" d="M434.2,206l.3.4h-.8s-.4-.7-.4-.7l.7.3h.2ZM432.7,205.3h-.5s-.7,0-.7,0l-.2-.2v-.5c0,0,.9.2.9.2l.4.2.2.3ZM433.6,205l-.2.2-.9-1-.2-.7h.4l.4.9.5.6ZM431.5,203.5v.2c0,0-.9-.5-.9-.5l-.6-.4-.4-.4h.2c0-.1.5.2.5.2l1,.5.3.4ZM428.8,202.3h-.2c0,0-.5-.2-.5-.2l-.5-.5v-.2c0,0,.8.5.8.5l.5.4Z"/>
    <path id="SD" d="M283.6,182.6h-.2s0-.6,0-.6v-.4c-.1,0-.7-.5-.7-.5v-.9c-.1,0,0-.9,0-.9h-.5c0,0,0,.2,0,.2h-.7c0,0,.3.4.3.4v.7c.1,0-.5.7-.5.7l-.6.9h-.6c0,.1-1-.6-1-.6l-.4.2v.3c-.1,0-.7.2-.7.2v.2h-1.2l-.2-.2h-.8s-.4.2-.4.2h-.3c0-.1-.6-.8-.6-.8l-.2-.3-.9.2-.3.5-.3,1.1-.4.2h-.4c0,.1,0,0,0,0l-.4-.3v-.4c0,0,.1-.5.1-.5v-.5l-.7-.7v-.5c-.1,0-.1-.3-.1-.3l-.4-.3v-.7s-.3-.5-.3-.5h-.4c0,0,.1-.4.1-.4l.3-.5v-.5c-.1,0,.3-.4.3-.4l-.2-.3.3-.7.5-.9h1c0,0,0-4.8,0-4.8v-.5s1.4,0,1.4,0v-2.5h13.9l.4,1.2-.3.2.2,1.3.4,1.5.4.3.6.5-.6.7-.9.2-.4.4v.8c-.1,0-.6,1.8-.6,1.8v.5c.1,0,0,1,0,1l-.5,1.2-.7.6-.5.9v.5c-.1,0-.7.3-.7.3l-.3,1.2h0Z"/>
    <path id="SE" d="M269.7,90.7l-1.1,2,.2,1.7-1.9,2.1-2.3,2.2-.9,3.5.8,1.7,1.1,1.3-1.1,2.6-1.2.5-.4,3.7-.7,2-1.4-.2-.7,1.7h-1.4c0,0-.4-1.9-.4-1.9l-1-2.4-.9-3.1.5-1.3,1-1.6.4-2.8-.8-1.2v-3.4c0,0,.7-2.5.7-2.5h1.2s.4-1,.4-1l-.4-.9,1.8-4,1.2-3.3.8-2.2h1.1s.3-1.8.3-1.8l2.2.5.2-2.1h.7c0-.1,1.6,1.5,1.6,1.5l1.8,2.2v4.7s.4,1.1.4,1.1l-2,.8Z"/>
    <path id="SI" d="M259.9,132.2h1c0,.1.6-.3.6-.3h1s.2-.3.2-.3h.2s.2.6.2.6l-.9.5v.7c-.1,0-.5.2-.5.2v.5s-.5,0-.5,0l-.4-.3-.2.3h-.8c0,0,.3-.2.3-.2l-.3-.7v-.8Z"/>
    <path id="SJ" d="M272.7,43.3l-2.6,2.2-2.1-1.3.8-1.4-.7-1.8,2.4-1.2.5,2.2,1.7,1.3ZM265.1,32.1l3.9,4.7-3,2.4-.7,4.2-1,1-.6,4.4-1.4.2-2.5-3.2,1.1-1.9-1.8-1.6-2.3-5-.9-4.9,3.2-2.4.6,2.3h1.7c0,0,.4-2.4.4-2.4l1.7-.2,1.5,2.3ZM273.6,27.3l2.3,2.4-1.7,3.6-3.4.8-3.5-1.1-.2-1.8h-1.7c0-.1-1.3-3.3-1.3-3.3l3.6-2,1.7,1.7,1.2-2.1,3,1.8Z"/>
    <path id="SK" d="M265.8,126.9h0c0,.1.5-.1.5-.1l.6.6.7-.4.6.2.8-.3,1.1.7-.3.5-.2.7-.3.2-1.3-.5h-.4c0,.1-.3.5-.3.5l-.6.2h-.1c0-.1-.6.2-.6.2h-.5c0,0,0,.4,0,.4l-1,.2-.4-.2-.6-.4v-.6c-.1,0,0-.2,0-.2l.2-.4h.5s.4-.2.4-.2v-.2s.3,0,.3,0v-.4c0,0,.3,0,.3,0l.2-.3h.3Z"/>
    <path id="SL" d="M230.2,185.8h-.3c0,0-.8-.6-.8-.6l-.6-.6-.2-.4v-.9c-.1,0,.5-.5.5-.5v-.3c.1,0,.3-.3.3-.3h.3s.3-.2.3-.2h.9l.3.4.3.5v.3s.2.3.2.3v.4s.3,0,.3,0l-.5.5-.5.6v.3c0,0-.3.4-.3.4Z"/>
    <path id="SN" d="M224,177.7l-.5-.9-.6-.4.5-.2.6-.9.3-.6.4-.4h.6c0,.1.6-.2.6-.2h.7s.6.3.6.3l.8.3.7.9.8.8v.8c0,0,.3.7.3.7l.4.3v.5c.1,0,0,.4,0,.4h-.2c0,0-.6,0-.6,0h0c0,.1-.3.2-.3.2l-.8-.3h-.6s-2.2,0-2.2,0h-.3c0,.1-.4,0-.4,0l-.6.2-.2-.9h1.1s.3-.1.3-.1h.2s.4-.3.4-.3l.5.3h.5s.5-.3.5-.3l-.2-.3-.4.2h-.4s-.5-.3-.5-.3h-.4s-.3.3-.3.3h-1.3Z"/>
    <path id="SO" d="M303.7,179.9v-.3s-.5,0-.5,0l-.6.4h-.6c0,.1-.5.3-.5.3h-.4s-.7,0-.7,0l-.4.2h-.6c0,0-1,.4-1,.4h-1.3c0,.1-1.1.4-1.1.4h-.6s-.5-.5-.5-.5l-.2-.5-.4-.2-.4.6-.3.4.4.7.4.6.4.4,3.8,1.4h1s-3.3,3.5-3.3,3.5h-1.5c0,0-1,.9-1,.9h-.8s-.3.4-.3.4l-1,1.3v4.3s.7,1,.7,1l.3-.3.3-.6,1.3-1.4,1.1-.9,1.8-1.2,1.2-.9,1.4-1.6,1-1.3,1-1.7.7-1.5.6-1.3.3-1.3.3-.4v-.6s.1-.7.1-.7Z"/>
    <path id="SR" d="M176.5,186.7l1.4.2v-.2c.1,0,1.1,0,1.1,0l1.3.3-.6,1v.8c0,0,.6.7.6.7l-.2.5v.5c-.1,0-.4.5-.4.5l-.7-.2h-.6c0,.1-.5,0-.5,0v.3c-.1,0,0,.2,0,.2v.2c-.1,0-.7,0-.7,0l-.7-1-.2-.7h-.4s-.5-.9-.5-.9l.2-.6v-.3c0,0,.6-.3.6-.3l.2-1.1Z"/>
    <path id="SS" d="M283.6,182.6v.9s-.2.4-.2.4h-.6s-.4.7-.4.7h.7c0,0,.6.7.6.7l.2.5.5.3.7,1.3-.8.8-.7.7-.7.5h-.8l-.9.3-.7-.3-.5.3-1-.8-.3-.5-.7.2h-.5c0,0-.3.1-.3.1h-.5c0-.1-.7-1.1-.7-1.1l-.2-.4-.9-.5-.3-.7-.5-.5-.8-.6v-.4s-.7-.5-.7-.5l-.8-.5h.4c0-.1.4-.4.4-.4l.3-1.1.3-.5.9-.2.2.3.6.7h.3c0,.1.4-.1.4-.1h.8s.2.3.2.3h1.2v-.2s.6-.2.6-.2v-.3c.1,0,.6-.2.6-.2l1,.7h.6c0-.1.6-1,.6-1l.6-.7v-.7c-.1,0-.4-.3-.4-.3h.7c0,0,0-.3,0-.3h.5c0,0-.1,1-.1,1v.9c.1,0,.7.5.7.5v.4c.1,0,.1.6.1.6h.2Z"/>
    <path id="SV" d="M140.5,177.9v.3c-.1,0-.8,0-.8,0h-.4c0-.1-.5-.4-.5-.4h-.7c0,0-.3-.3-.3-.3v-.2s.4-.3.4-.3h.2c0-.1,0-.3,0-.3h.3c0,0,.3,0,.3,0l.3.2.4.2v.2s.6-.1.6-.1h.2c0,0,.2.2.2.2v.5Z"/>
    <path id="SY" d="M289.2,152.3l-2.3,1.5-1.3-.6h0s.2-.2.2-.2v-.6s.3-.8.3-.8l.6-.5-.2-.6h-.5c0,0-.1-1.2-.1-1.2l.3-.6.3-.3.3-.3v-.8c0,0,.4.3.4.3l1.3-.4.6.3h1s1.3-.6,1.3-.6h.6s1.3-.2,1.3-.2l-.6.9-.6.4v1.1c.1,0-.3,1.7-.3,1.7l-2.6,1.5Z"/>
    <path id="SZ" d="M281.3,226.1l-.2.6h-.7c0,.1-.7-.6-.7-.6v-.5s.3-.5.3-.5v-.4c.1,0,.5,0,.5,0l.6.2.2.6v.6Z"/>
    <path id="TD" d="M260.7,178.6v-.6c.1,0-.6,0-.6,0v-.8s-.5-.4-.5-.4l.5-1.6,1.5-1.1v-1.6c0,0,.5-2.5.5-2.5l.3-.5-.5-.4v-.4s-.5-.3-.5-.3l-.3-2,1.2-.7,4.7,2.4,4.7,2.4v4.9c0,0-1,0-1,0l-.5.9-.3.7.2.3-.4.4v.5c.1,0-.2.5-.2.5v.4c-.1,0,.3,0,.3,0l.2.5v.7s.4.3.4.3v.3s-.8.2-.8.2l-.6.5-.8,1.3-1.1.5h-1.1c0,0-.3,0-.3,0v.4c.1,0-.5.4-.5.4l-.5.5-1.5.4-.3-.3h-.2s-.2.3-.2.3h-1c0,0,.2-.2.2-.2l-.4-.8-.2-.5-.5-.2-.7-.7.3-.6h.5c0,.1.3,0,.3,0h.7s-.6-1.1-.6-1.1v-.8s0-.8,0-.8l-.5-.8Z"/>
    <path id="TF" d="M324.7,258.9l.8.6,1.1.2v.3s-.3.8-.3.8h-1.8c0,.1,0-.8,0-.8l.2-.7v-.4Z"/>
    <path id="TG" d="M245.9,186.5l-.9.2-.3-.4-.3-.7v-.6c0,0,.2-1.1.2-1.1l-.3-.4v-.9c-.1,0-.1-.9-.1-.9l-.5-.6v-.4c0,0,1.1,0,1.1,0l-.2.6.4.3.4.4v.6s.3.2.3.2v2.7c0,0,.2.8.2.8Z"/>
    <path id="TH" d="M364.2,179.4l-1.1-.5h-1s.2-.9.2-.9h-1s0,1.3,0,1.3l-.6,1.7-.4,1v.9c0,0,.8,0,.8,0l.5,1.1.2,1,.7.7h.7c0,.1.6.7.6.7l-.4.5h-.8c0,.1,0-.5,0-.5l-1-.5-.2.2-.5-.4-.2-.6-.6-.7-.6-.6-.2.7-.2-.7v-.7c.1,0,.5-1.1.5-1.1l.6-1.2.6-1.1-.5-1.1v-.6s-.1-.7-.1-.7l-.8-1-.3-.6.4-.2.4-1.1-.5-.8-.7-.9-.6-1.1.5-.2.5-1.3h.8c0,0,.7-.6.7-.6l.7-.3.5.4v.7c0,0,.9,0,.9,0l-.3,1.3v1.1s1.3-.7,1.3-.7l.4.2h.7s.2-.5.2-.5h.9c0,0,.9,1.1.9,1.1v1.2c0,0,1,1.1,1,1.1v1c0,0-.4.5-.4.5l-1.1-.2-1.5.2-.8,1,.3,1.4Z"/>
    <path id="TJ" d="M327.1,142.3l-.4.5-1.3-.3v.9c-.1,0,1.2-.1,1.2-.1l1.5.5,2.2-.2.3,1.4.4-.2.7.3v.6s.1.8.1.8h-2c0-.1-.7.5-.7.5h-.5c0,.1-.4.5-.4.5l-.5-.5v-1.2c.1,0-.2,0-.2,0v-.5c.1,0-.5-.3-.5-.3l-.5.5v.6c-.1,0-.3.2-.3.2h-.7s-.4.6-.4.6l-.4-.3-.9.5-.4-.2.7-1.5-.3-1.1-.9-.4.3-.7h1c0,0,.6-.8.6-.8l.4-1,1.6-.4-.2.7.2.4h.5Z"/>
    <path id="TL" d="M390.5,204.1v-.3c.1,0,1.1-.3,1.1-.3h.8s.4-.2.4-.2h.4c0,.1-.4.5-.4.5l-1.2.5-1,.3v-.4s-.1-.2-.1-.2Z"/>
    <path id="TM" d="M315.6,149.1v-1.2c-.1,0-1,0-1,0l-1.3-1.3-.9-.2-1.3-.8h-.8c0-.1-.5.1-.5.1h-.8s-.8.8-.8.8l-1,.3-.2-1,.2-1.6-.9-.5.3-1h-.8c0,0,.3-1.4.3-1.4l1.1.4,1-.5-.9-.9-.3-.9-.9.4v1.1c-.1,0-.5-1-.5-1l.5-.5,1.3-.3.8.4.8,1.2h.6c0,0,1.3,0,1.3,0l-.2-.8,1-.5,1-.9,1.6.8v1.3c.1,0,.6.3.6.3h1.3c0,0,.4.2.4.2l.6,1.6,1.3,1.1.8.7,1.2.7,1.6.6v.9s-.4,0-.4,0l-.6-.4-.2.5-1,.3-.2,1.2-.7.4-.9.2-.2.6-.9.2-1.2-.5Z"/>
    <path id="TN" d="M254.8,156.5l-.5-2.5-.7-.6v-.3s-1-.8-1-.8v-1.1c-.1,0,.6-.8.6-.8l.3-1.2-.2-1.4.2-.8,1.3-.6.8.2v.7s1-.5,1-.5v.3c0,0-.5.7-.5.7v.7s.4.4.4.4l-.2,1.2-.8.7.2.8h.6s.3.7.3.7l.4.2v1.1c0,0-.6.4-.6.4l-.4.4-.8.5v.6c.1,0,0,.6,0,.6l-.6.3Z"/>
    <path id="TR" d="M287,140.6l1.7.6,1.4-.2h1c0,.1,1.4-.7,1.4-.7h1.3c0,0,1.1.7,1.1.7l.2.5v.8c-.1,0,.8.4.8.4l.5.4-.8.4.4,1.7-.2.5.6,1.2-.6.2-.4-.4-1.4-.2-.5.2-1.3.2h-.6s-1.4.5-1.4.5h-1s-.6-.3-.6-.3l-1.3.4-.4-.3v.8c0,0-.4.3-.4.3l-.3.3-.4-.7.4-.5h-.7c0,.1-1-.2-1-.2l-.8.8-1.8.2-1-.8h-1.3c0,0-.3.6-.3.6l-.8.2-1.1-.8h-1.3s-.7-1.4-.7-1.4l-.9-.8.6-1.2-.7-.7,1.3-1.5h1.8c0,0,.5-1.2.5-1.2l2.2.2,1.4-1,1.4-.4h1.9s2.1,1.1,2.1,1.1ZM275.6,141.6l-1,.8-.4-.7v-.3s.3-.2.3-.2l.4-1-.6-.4,1.2-.5,1,.2v.6c.1,0,1.2.5,1.2.5l-.2.4h-1.4c0,0-.5.6-.5.6Z"/>
    <path id="TT" d="M171.2,181.1l.7-.2h.2s0,.9,0,.9h-1c0,.1-.2,0-.2,0l.3-.3v-.5Z"/>
    <path id="TW" d="M386.8,164.3l-.7,2-.5,1-.6-1.1v-.9c-.1,0,.6-1.3.6-1.3l.9-1,.5.4-.2.8Z"/>
    <path id="TZ" d="M283.5,194.8h.2c0,.1,4.3,2.5,4.3,2.5v.7c0,0,1.8,1.2,1.8,1.2l-.5,1.4v.7c0,0,.8.4.8.4v.3s-.3.7-.3.7v.4c0,0,0,.6,0,.6l.4.7.5,1.2.4.3-.9.7-1.3.5h-.7s-.4.3-.4.3h-.8s-.3.2-.3.2l-1.4-.3h-.9c0,0-.3-1.5-.3-1.5l-.4-.6-.2-.3-1.1-.2-.7-.4-.7-.2-.5-.2-.5-.3-.6-1.5-.7-.7-.2-.7v-.6c.1,0,0-1.1,0-1.1h.5c0,0,.4-.5.4-.5l.5-.6.3-.2v-.4s-.3-.3-.3-.3v-.5c0,0,.3-.1.3-.1v-.7c0,0-.4-.7-.4-.7h.4c0-.1,1.3-.1,1.3-.1h2.4Z"/>
    <path id="UA" d="M281,122.1h.4c0,0,.3-.4.3-.4h.4c0,0,1.2,0,1.2,0l.8,1.1-.3.4v.6c0,0,1,0,1,0l.4.8v.4s1.5.6,1.5.6l.9-.3.7.9h.7s1.7.6,1.7.6v.5s-.5.9-.5.9l.3,1-.2.6h-1.1c0,.1-.6.6-.6.6v.8s-1,.1-1,.1l-.8.6h-1.1c0,0-1,.7-1,.7l-.6.4.6.6.6.4h1.2c0-.1-.2.5-.2.5l-1.3.3-1.6,1-.6-.3.3-.8-1.3-.5.2-.3,1.3-.7-.2-.3-.2.2h-.2c0,0-1.8-.5-1.8-.5v-.6c0,0-1.2.2-1.2.2l-.4.9-.9,1.2-.5-.3-.5.3-.5-.3.3-.2.2-.6.3-.5v-.3c0,0,.2-.1.2-.1v.2c.1,0,.8,0,.8,0h.3c0-.1-.2-.3-.2-.3v-.3c0,0-.3-.4-.3-.4l-.2-.7-.4-.3v-.6c0,0-.4-.5-.4-.5h-.5c0,0-.9-.6-.9-.6l-.8.2-.3.3h-.5s-.3.4-.3.4l-.9.2-.4.3-.5-.4h-.8s-.7-.2-.7-.2l-.5.4v-.5c0,0-.7-.5-.7-.5l.2-.7.3-.5h.3c0,.1-.3-.7-.3-.7l1.1-1.5.6-.2v-.5c.1,0-.5-1.6-.5-1.6h.6c0,0,.6-.6.6-.6h.9s1.2.1,1.2.1l1.3.5h.9s.4.3.4.3l.4-.3.3.4h1.1c0,0,.5,0,.5,0v-.9c0,0,.4-.4.4-.4h1Z"/>
    <path id="UG" d="M281.1,194.9h-1.3s-.4.1-.4.1l-.7.4h-.3c0-.1,0-1,0-1l.3-.4v-.9c0,0,.3-.5.3-.5l.4-.6.5-.3.4-.4-.5-.2v-1.4c0,0,.6-.3.6-.3l.7.3.9-.3h.8l.7-.5.6.8v.6c.1,0,.7,1.3.7,1.3l-.4.9-.6.8-.3.5v1.2s-2.4,0-2.4,0Z"/>
    <path id="US" d="M90.3,116.8h0l-.6-.8-1-.7-.3-1.8-1.5-1.7-.6-2.1h-1.1c0-.1-1.9-.2-1.9-.2l-1.4-.6-2.4-2.4-1.1-.4-2.1-.8-1.6.2-2.3-1.1-1.4-1-1.3.5.2,1.6-.6.2-1.4.5-1,.8-1.3.5-.2-1.4.5-2.3,1.2-.7-.3-.6-1.5,1.3-.8,1.6-1.7,1.7.9,1.1-1.1,1.6-1.3.9-1.2.7-.3,1-1.8,1.1-.4,1-1.4.9-.8-.2-1.1.6-1.2.7-1,.7-2,.6-.2-.3,1.3-1,1.1-.6,1.3-1.1,1.5-.2.6-.9,1.6-1.3.3-.4.9-.8.2-1.7.6-1.3-1.4.7-.4-.4-.6.8-.8-1.1-.3.8-.4-1.1-1.2.9h-.7v-1.4c-.1,0,.1-.8.1-.8l-.8-.8-1.5.4-1-1.1-.8-.6v-1.4s-.9-1-.9-1l.5-1.4,1-1.4.4-1.3,1-.2.8.4.9-1.3.9.2.9-.8-.2-1.2-.7-.5.9-1.1h-.7s-1.2.6-1.2.6l-.4.6-.9-.6-1.7.3-1.7-.7-.5-1.1-1.5-1.6,1.7-1.2,2.6-1.4h1l-.2,1.5h2.5c0-.1-1-1.9-1-1.9l-1.4-1.1-.8-1.5-1.1-1.3-1.6-1,.7-1.7h2.1c0-.1,1.5-1.6,1.5-1.6l.3-1.6,1.2-1.6,1.1-.4,2.2-1.6,1.1.2,1.8-1.9,1.8.8.9,1.6.5-.7,2,.2v.8c0,0,1.7.6,1.7.6l1.2-.4,2.5,1.1,2.3.3.9.4,1.6-.6,1.8,1,1.3.5v11.6s0,14.8,0,14.8h1.2c0,0,1.1.7,1.1.7l.8,1,1,1.5,1.1-1.3,1.2-.8.6,1.2.8.9,1.1,1,.7,1.6,1.2,2.5,2,1.3v1.3s-.6,1-.6,1ZM164,131.2l-.5-.5-.8.3-.4-.5-.9,1.3-.4,1.3-.4.8-.5.3h-.4c0,0-.1.5-.1.5h-4s-.5.3-.5.3l-1.2,1.1v.2c.1,0,.2.6.2.6l-.9.5h-1c0-.1-.9-.2-.9-.2l-.6.2v.5h.1v.2s-1,1-1,1l-.9.5-.6.2-.7.4-.9.2h-.6c0,0-.7-.4-.7-.4l.4-.6.3-.6.6-.9v-.7c0,0-.3-.9-.3-.9l-.4-.2-.7.7h-.2s0-.4,0-.4l.6-.7v-.8c.1,0,0-.8,0-.8l-.9-.6-1-.3-.2.6-.3.2-.2.8v-.6c-.1,0-.6.4-.6.4l-.3.6-.3.8v.7c0,0,.3,1,.3,1v1.1s-.5.8-.5.8l-.2.2-.3.2h-.4s-.1,0-.1,0l-.3-.8v-.4s0-.4,0-.4v-.8c-.1,0,0-.9,0-.9l.3-1.1.6-1.3h-.2s-.9,1.1-.9,1.1l-.2-.2.5-.6.7-1.1.8-.2.9-.3.9.2h0s1-.1,1-.1l-.6-.7h-.3c0,0-.4-.1-.4-.1l-.2-.5-1.2.2-1,.4-.8-.6-.7-.2.4-.9-1,.6-.9.6-.9.4-.7-.6-1.2.4v-.3s.8-.7.8-.7l.8-.7,1.2-.6-1.4-.5-1,.2-1.1-.5-1.2-.3h-.8c0-.1-.4-.4-.4-.4l-.2-1h-.4s0,.7,0,.7h-32.5l.4,1.5.2,1.4-.3.5-.6-1.6-1.7-.6v.3c-.1,0,.2.8.2.8l.4,1.5.2,2.3v1.5c-.1,0-.3,1.5-.3,1.5l-.5,1.5.4,1.2v1.3s-.2,1.3-.2,1.3l.6.8.2,1.2.9,1.3.5.5v.3s.9,2,.9,2l1.1,1.4v.8c.1,0,.4.2.4.2h1.1c0,.1.4.5.4.5h.7c0,0,.1.5.1.5l.5.2.8.8.2.7h1.3c0-.1,1.5-.3,1.5-.3v.3c-.1,0,1.7.7,1.7.7l2.7,1h2.3s.9,0,.9,0v-.6h2l.4.5.6.4.7.6.4.7.3.7.6.4,1,.4.7-1.1h1s.8.5.8.5l.6.9.4.8.7.8.3.9.3.6.9.4.8.3h.5s-.2-.5-.2-.5v-.6c0,0,0-.9,0-.9l.3-.6.6-.6,1.2-.6,1.1-1,1-.3h.7c0,0,.9.2.9.2l1-.2.9.7h.9s.4-.2.4-.2l.4.2.2-.2-.3-.3v-.5s-.2-.4-.2-.4l.5-.2h.9c0,0,1,0,1,0l1.3-.2.7.3.6.6h.2c0,0,1.2-.5,1.2-.5l.5.2.9,1.1.3.7-.2.9.2.5.5,1,.6,1.1.4.3.2.6.6.2.4-.2.3-.8v-.5c0,0,0-.9,0-.9l-.6-1.5v-.6s-.5-.9-.5-.9l-.4-1.2-.2-.9.2-1,.6-.8.7-.7,1.3-.9.2-.5.6-.5h.6c0,0,.8-.9.8-.9l1.2-.4.7-1.1-.2-1.5v-.5c-.1,0-.5-.1-.5-.1v-1.4c0,0-.9-.5-.9-.5l.8.2-.3-.9.2-.6v1.2c.1,0,.7.6.7.6l-.4,1h.1c0,0,.7-1.1.7-1.1l.4-.6v-.6s-.3-.3-.3-.3l-.2-.8.4.4h.3c0,0,0,.5,0,.5l.9-1.2.3-1.1h-.3c0,0,.4-.5.4-.5v.2s.7,0,.7,0l1.6-.5-.3-.3-1.7.3,1-.4h.7c0,0,.5-.2.5-.2l.9-.3h.6s.8-.2.8-.2v-.4c0,0-.3-.4-.3-.4v.6c.1,0-.4,0-.4,0l-.4-.8v-.8s.2-.4.2-.4l.6-1,1.2-.5,1.2-.6,1.3-.8-.2-.5-.8-.9v-2.3ZM63.6,110.1l-.6.3-1.1.8.2,1,.6.6,1.2-.8,1-1-.5-.7h-.8ZM44.5,98.1l.9-.5v-.3c0,0-.9-.3-.9-.3v1.1ZM48.1,104.5l-1.2.4.7.6.8.4.7-.4v-.9c-.1,0-1-.2-1-.2ZM88.8,118.2l-1.1.2-.6-.3v.6c0,0,.1.9.1.9l.6.6.4.9.7.9h.5s-1-1.5-1-1.5l.3-2.2ZM60,168.7h-.4c0-.1-.1,0-.1,0h0c0,0,.1.2.1.2l.2.3h.4c0,0,0-.2,0-.2l-.3-.2ZM58.8,168.5h.6s0,0,0,0h-.6c0,0,0,0,0,0ZM61.3,169.9h-.2c0-.1-.4-.3-.4-.3h0s0,0,0,0v.2c0,0-.1.2-.1.2h0c0,.1.2.6.2.6v.3s.3.2.3.2l.2-.2.4-.2.5-.3h0c0,0-.3-.5-.3-.5l-.2-.2ZM58,167.7l-.3.2h0c0,0,.2.3.2.3h.4s0,0,0,0h0c0,0-.3-.5-.3-.5h-.1ZM56.1,167.1h-.2c0,.1,0,.2,0,.2l.4.2h.1c0-.1,0-.4,0-.4h-.3Z"/>
    <path id="UY" d="M175.9,230.8h.8c0-.1,1.2.9,1.2.9h.4s1.2.8,1.2.8l.9.8.7.9-.5.7.3.8-.5.9-1.3.8-.9-.3-.6.2-1.1-.6h-.8s-.7-.7-.7-.7v-.9c0,0,.3-.3.3-.3v-1.4s.3-1.4.3-1.4l.3-1.1Z"/>
    <path id="UZ" d="M321.8,146.6v-.9s-1.5-.6-1.5-.6l-1.2-.7-.8-.7-1.3-1.1-.6-1.6-.4-.3h-1.3c0,0-.4-.3-.4-.3v-1.3c-.1,0-1.7-.8-1.7-.8l-1,.9-1,.5.2.8h-1.3s0-5.9,0-5.9l3-1h.2c0,.1,1.8,1.3,1.8,1.3l1,.6,1.1,1.5,1.4-.2h2c0-.1,1.4,1,1.4,1v1.6c0,0,.5,0,.5,0l.2,1.3h1.5c0,0,.3.8.3.8h.4s.5-1.1.5-1.1l1.5-1.1.7-.3.3.2-1,1,.9.6.8-.4,1.4.8-1.5,1.1-.9-.2h-.5s-.2-.4-.2-.4l.2-.7-1.6.4-.4,1-.6.8h-1c0,0-.3.6-.3.6l.9.4.3,1.1-.7,1.5-.9-.3h-.7Z"/>
    <path id="VE" d="M159.8,179.9v.3s-.7.1-.7.1l.4.5v.6s-.5.7-.5.7l.4.9h.5c0,0,.3-.9.3-.9l-.4-.4v-.9c0,0,1.4-.5,1.4-.5l-.2-.6.4-.4.4.8h.8s.8.7.8.7v.4s1.1,0,1.1,0h1.3c0-.1.7.4.7.4h.9c0,.1.7-.2.7-.2v-.3s1.5,0,1.5,0h1.4s-1,.3-1,.3l.4.6h.9c0,0,.9.7.9.7l.2.9h.6s.5.3.5.3l-.9.7v.4c-.1,0,.3.4.3.4l-.3.2-.7.2v.5s-.3.3-.3.3l.8.9.2.3-.4.4-1.3.4-.8.2-.3.3-.9-.3-.9-.2h-.2c0,.1.5.4.5.4v.8s.1.7.1.7h1c0,.1,0,.3,0,.3l-.8.3v.5c-.1,0-.6.2-.6.2l-.9.3-.2.4h-.9c0,0-.6-.5-.6-.5l-.4-1.2-.3-.4-.4-.3.6-.6v-.3s-.4-.3-.4-.3l-.2-.8v-.8c0,0,.4-.4.4-.4l.2-.6-.4-.2h-.7c0,.1-.8,0-.8,0h-.5c0,.1-.8-.9-.8-.9l-.7-.2h-1.5c0,.1-.3-.3-.3-.3h-.3c0,0,0-.3,0-.3v-.4c.1,0,0-.5,0-.5l-.3-.3-.2-.5h-.6c0,0,.3-.8.3-.8v-.8c.1,0,.5-.4.5-.4l.5-.3.3-.6.8-.2Z"/>
    <path id="VN" d="M370.6,167.9l-1.6,1.1-1,1.2-.3.9.9,1.3,1.1,1.6,1.1.8.7,1,.5,2.2-.2,2.1-1,.8-1.3.8-1,1-1.5,1.1-.4-.8.3-.8-.9-.7,1-.5h1.2c0,0-.5-.8-.5-.8l2-.9v-1.4c.1,0-.1-.8-.1-.8l.2-1.2-.3-.9-.9-.8-.7-1.1-1-1.5-1.4-.7.3-.4.8-.3-.5-1.1h-1.4s-.5-1.2-.5-1.2l-.7-1,.6-.3h.9s1.1-.1,1.1-.1l1-.7.6.5,1.1.2-.2.7.6.5,1.2.3Z"/>
    <path id="VU" d="M440.9,213.2l-.4.2-.4-.5v-.3s.8.7.8.7ZM440,211.4l.2,1-.3-.2h-.2c0,0-.2-.3-.2-.3v-.9s.5.4.5.4Z"/>
    <path id="YE" d="M306.1,174l-.9.3-.2.5v.4s-1.2.5-1.2.5l-1.9.6-1.1.9h-.5c0,0-.4,0-.4,0l-.7.5-.8.2h-1c0,0-.3.1-.3.1l-.3.3h-.3c0,0-.2.4-.2.4h-.6s-.4.1-.4.1h-.8c0,0-.3-.8-.3-.8v-.7s-.2-.4-.2-.4l-.2-.9-.3-.5h.2c0,0-.1-.6-.1-.6v-.2c.1,0,0-.5,0-.5l.5-.4v-.5c-.1,0,.2-.6.2-.6l.5.3h.3c0-.1,1.4-.1,1.4-.1h.2c0,.1,1.1.2,1.1.2h.4c0,0,.3.3.3.3l.5-.2.8-1.3,1.1-.6,3.4-.5.9,2,.4.9Z"/>
    <path id="ZA" d="M280.7,229.5l-.2.2-.5.7-.3.7-.7,1-1.3,1.4-.8.8-.9.6-1.2.5h-.6c0,0-.2.5-.2.5l-.7-.2-.6.3-1.3-.3-.7.2h-.5c0,0-1.2.5-1.2.5l-1,.2-.7.5h-.5s-.5-.5-.5-.5h-.4s-.5-.7-.5-.7v.2c0,0-.2-.4-.2-.4v-.8s-.4-.9-.4-.9l.4-.3v-1.1s-.8-1.3-.8-1.3l-.6-1.1h0s-.8-1.7-.8-1.7l.6-.7.5.4.2.6h.5c0,0,.7.3.7.3h.6c0,0,1-.8,1-.8v-4.8l.3.2.7,1.2v.8c-.1,0,.2.5.2.5h.8c0-.1.6-.7.6-.7l.6-.4.3-.6.6-.3.5.2.6.4h1c0,0,.8-.2.8-.2v-.4c.1,0,.3-.6.3-.6h.6c0-.1.4-.6.4-.6l.4-.9,1.1-.9,1.7-.9h.5s.6.2.6.2l.4-.2h.6c0,.1.6,1.9.6,1.9l.3.9-.2,1.4v.5c.1,0-.5-.2-.5-.2h-.3c0,0-.1.5-.1.5l-.3.5v.5s.7.7.7.7h.7c0-.1.2-.7.2-.7h.9s-.3,1-.3,1v1.1c-.1,0-.4.6-.4.6l-.8.7ZM277.7,229.1l-.5-.4-.5.3-.6.5-.6.9.9,1h.4c0-.1.2-.6.2-.6l.7-.2.2-.4.4-.7-.4-.4Z"/>
    <path id="ZM" d="M282.2,204.5l.6.5.3,1-.2.3-.2,1,.2,1-.4.4-.4,1.1.6.3-3.6,1v.9c.1,0-.8.2-.8.2l-.7.5v.4c-.1,0-.6,0-.6,0l-1,1-.6.8h-.4s-.4-.1-.4-.1h-1.3c0-.1-.2-.2-.2-.2h0c0-.1-.5-.4-.5-.4h-.8c0,0-1,.2-1,.2l-.8-.8-.8-1v-3.8c0,0,2.5,0,2.5,0v-.4c-.1,0,0-.4,0-.4l-.2-.6v-.6c.1,0,0-.4,0-.4h.4s0,.4,0,.4h.5s.7,0,.7,0l.4.5.9.2.7-.4.3.6.9.2.4.5.5.7h.9s-.1-1.3-.1-1.3l-.3.2-.8-.5-.3-.2v-1.2c.1,0,.4-1.4.4-1.4l-.3-.5.3-.8h.3c0-.1,1.6-.3,1.6-.3h.5c0,.1.5.4.5.4l.5.2.7.2.7.4Z"/>
    <path id="ZW" d="M280.3,220.4h-.6c0-.1-.4,0-.4,0l-.6-.2h-.5s-.8-.6-.8-.6l-.9-.2-.3-.8v-.4s-.5-.1-.5-.1l-1.3-1.4-.4-.7-.2-.2-.5-1h1.3c0,.1.4.3.4.3h.4s.6-.8.6-.8l1-1h.4c0,0,.1-.5.1-.5l.7-.5.9-.2v.5c0,0,1.1,0,1.1,0l.5.3.3.3h.6c0,0,.6.5.6.5v1.5s-.2.9-.2.9v.9c0,0,.1.4.1.4v.7c-.1,0-.3.1-.3.1l-.3.9-1.2,1.4Z"/>
  </g>
</svg>