<?xml version="1.0" encoding="utf-8"?>
<!-- Generator: Adobe Illustrator 28.3.0, SVG Export Plug-In . SVG Version: 6.00 Build 0)  -->
<svg version="1.1" id="Layer_1" xmlns:amcharts="http://amcharts.com/ammap"
	 xmlns="http://www.w3.org/2000/svg" xmlns:xlink="http://www.w3.org/1999/xlink" x="0px" y="0px" viewBox="0 0 512 350"
	 style="enable-background:new 0 0 512 350;" xml:space="preserve">
<defs>
	
		<amcharts:ammap  bottomLatitude="-55.55" leftLongitude="-169.6" projection="mercator" rightLongitude="190.25" topLatitude="83.68">
		</amcharts:ammap>
</defs>
<g>
	<path id="AE" d="M314.4,209.4l0.3-0.1l0.1,0.4l1.1-0.2l1.2,0l0.9,0l1-1l1.1-1l0.9-1l0.3,0.5l0.2,1.2l-0.7,0l-0.1,1l0.3,0.2
		l-0.6,0.3l0,0.6l-0.4,0.6l0,0.6l-0.3,0.3l-4.3-0.8l-0.5-1.6L314.4,209.4z"/>
	<path id="AF" d="M328,190.9l1.4,0.7l1.1-0.2l0.3-0.8l1.1-0.3l0.8-0.5l0.3-1.4l1.2-0.3l0.2-0.6l0.7,0.5l0.4,0.1l0.8,0l1.1,0.4
		l0.4,0.2l1-0.6l0.5,0.3l0.5-0.8l0.8,0l0.2-0.3l0.1-0.7l0.6-0.6l0.8,0.4l-0.2,0.5l0.4,0.1l-0.1,1.5l0.6,0.6l0.5-0.4l0.6-0.2l0.9-0.8
		l1,0.1l1.5,0l0.3,0.5l-0.8,0.2l-0.7,0.3l-1.6,0.2l-1.5,0.4l-0.8,0.8l0.3,0.7l0.2,0.9l-0.7,0.7l0.1,0.7l-0.4,0.6l-1.3-0.1l0.6,1.1
		l-0.9,0.4l-0.6,1l0.1,1l-0.6,0.5l-0.5-0.2l-1.1,0.2l-0.2,0.5l-1.1,0l-0.8,0.9l0,1.4l-1.8,0.7l-1-0.1l-0.3,0.4l-0.8-0.2l-1.4,0.2
		l-2.4-0.8l1.3-1.5l-0.1-1.1l-1.1-0.3l-0.1-1.1l-0.5-1.3l0.6-0.9l-0.6-0.2l0.4-1.2L328,190.9z"/>
	<path id="AL" d="M270.6,179.6l-0.2,0.6l0.2,0.8l0.6,0.5l0,0.5l-0.5,0.3l-0.1,0.6l-0.7,0.9l-0.2-0.1l0-0.4l-0.8-0.6l-0.1-0.9
		l0.1-1.3l0.2-0.6l-0.2-0.3l-0.1-0.6l0.6-0.9l0.1,0.4l0.4-0.2l0.3,0.5l0.3,0.2L270.6,179.6z"/>
	<path id="AM" d="M303.1,181.1l2-0.3l0.3,0.5l0.5,0.3l-0.3,0.5l0.8,0.6l-0.4,0.6l0.6,0.5l0.6,0.3l0,1.3l-0.5,0.1l-0.6-1l0-0.3
		l-0.6,0l-0.4-0.5l-0.3,0l-0.6-0.5l-1.1-0.5l0.1-0.9L303.1,181.1z"/>
	<path id="AO" d="M264.5,252.9l0.3,1.1l0.4,0.8l0.3,0.5l0.5,0.7l0.9-0.1l0.5-0.2l0.8,0.2l0.2-0.4l0.4-0.8l0.9-0.1l0.1-0.2l0.7,0
		l-0.1,0.5l1.7,0l0,0.9l0.3,0.5l-0.2,0.9l0.1,0.9l0.5,0.5l-0.1,1.7l0.4-0.1l0.6,0l0.9-0.2l0.6,0.1l0.1,0.4l-0.2,0.7l0.2,0.7
		l-0.2,0.5l0.1,0.5l-2.9,0l-0.1,4.6l1,1.2l0.9,0.9l-2.6,0.6l-3.4-0.2l-1-0.7l-5.7,0.1l-0.2,0.1l-0.8-0.7l-0.9,0l-0.8,0.3l-0.7,0.3
		l-0.1-0.9l0.2-1.3l0.5-1.3l0.1-0.6l0.5-1.3l0.3-0.6l0.8-0.9l0.5-0.6l0.1-1.1l-0.1-0.8l-0.4-0.5l-0.4-0.9l-0.3-0.9l0.1-0.3l0.4-0.6
		l-0.4-1.4l-0.3-0.9l-0.7-0.9l0.1-0.3l0.6-0.2l0.4,0l0.5-0.2L264.5,252.9z M259,252.6l-0.4,0.1l-0.4-1.1l0.6-0.6l0.4-0.2l0.5,0.5
		l-0.5,0.3l-0.2,0.4L259,252.6z"/>
	<path id="AR" d="M148.7,338.2l-1.3,0.1l-0.7-0.9l-0.9-0.1l-1.5,0l0-5.3l0.5,1.1l0.7,1.8l1.8,1.4l2,0.6L148.7,338.2z M149.5,276.5
		l0.8,1.1l0.6-1.2l1.6,0.1l0.2,0.3l2.6,2.5l1.2,0.2l1.7,1.1l1.5,0.6l0.2,0.7l-1.4,2.4l1.4,0.4l1.6,0.2l1.1-0.3l1.3-1.2l0.2-1.4
		l0.7-0.3l0.7,0.9l0,1.3l-1.2,0.9l-1,0.6l-1.6,1.6l-1.9,2.2l-0.4,1.3l-0.4,1.7l0,1.7l-0.3,0.4l-0.1,1.1l-0.1,0.9l1.8,1.5l-0.2,1.2
		l0.9,0.8l-0.1,0.9l-1.4,2.3l-2.1,1l-2.8,0.4l-1.6-0.2l0.3,1.1l-0.3,1.4l0.3,0.9l-0.8,0.7l-1.5,0.3l-1.4-0.7l-0.5,0.5l0.2,1.9l1,0.6
		l0.8-0.6l0.4,1l-1.3,0.6l-1.1,1.2l-0.2,2l-0.3,1.1l-1.3,0l-1.1,1l-0.4,1.5l1.4,1.5l1.4,0.4l-0.5,1.9l-1.7,1.2l-0.9,2.5l-1.3,0.9
		l-0.6,1l0.5,2.3l0.9,1.3l-0.6-0.1l-1.3-0.4l-3.4-0.3l-0.6-1.3l0-1.7l-0.9,0.1l-0.5-0.8l-0.1-2.3l1.1-0.9l0.4-1.4l-0.2-1.1l0.8-1.8
		l0.5-2.7l-0.2-1.2l0.6-0.4l-0.2-0.7l-0.7-0.4l0.5-0.8l-0.6-0.7l-0.3-2.2l0.6-0.4l-0.2-2.3l0.3-1.9l0.4-1.6l0.8-0.7l-0.4-1.7l0-1.6
		l1.1-1.1l0-1.4l0.8-1.7l0-1.6l-0.4-0.3l-0.7-2.9l0.9-1.7l-0.1-1.6l0.5-1.5l0.9-1.5l1-1l-0.4-0.6l0.3-0.5l0-2.6l1.5-0.8l0.5-1.6
		l-0.2-0.4l1.2-1.4L149.5,276.5z"/>
	<path id="AT" d="M265.5,167.1l-0.1,0.9l-0.8,0l0.3,0.5l-0.5,1.3l-0.3,0.3l-1.2,0.1l-0.7,0.5l-1.2-0.2l-2-0.5l-0.3-0.7l-1.4,0.4
		l-0.2,0.4l-0.9-0.3l-0.7-0.1l-0.6-0.4l0.2-0.5l-0.1-0.4l0.4-0.1l0.7,0.6l0.2-0.6l1.2,0.1l1-0.4l0.7,0.1l0.4,0.4l0.1-0.4l-0.2-1.4
		l0.5-0.3l0.5-1l1.1,0.7l0.8-0.9l0.5-0.2l1.1,0.7l0.7-0.1l0.7,0.4l-0.1,0.3L265.5,167.1z"/>
	<path id="AU" d="M447.2,307.6l1.4,0.6l0.8-0.3l1.1-0.4l0.8,0.1l0.1,2.2l-0.5,0.7l-0.1,1.5l-0.5-0.5l-1,1.4l-0.3-0.1l-0.9-0.1
		l-0.9-1.7l-0.2-1.3l-0.8-1.6l0-0.9L447.2,307.6z M444.6,264.1l0.5,1.1l0.9-0.5l0.5,0.6l0.7,0.6l-0.1,0.6l0.3,1.3l0.2,0.7l0.4,0.2
		l0.4,1.3l-0.1,0.8l0.5,1l1.5,0.8l1,0.7l0.9,0.7l-0.2,0.4l0.8,0.9l0.6,1.6l0.6-0.3l0.6,0.7l0.3-0.2l0.2,1.6l1,0.9l0.7,0.6l1.1,1.3
		l0.4,1.3l0,0.9l-0.1,1l0.7,1.4l-0.1,1.4l-0.2,0.7l-0.4,1.4l0,0.9l-0.3,1.2l-0.6,1.5l-1,0.8l-0.5,1.3l-0.5,0.8l-0.4,1.5l-0.5,0.9
		l-0.4,1.3l-0.2,1.2l0.1,0.6l-0.8,0.6l-1.6,0.1l-1.3,0.7l-0.7,0.7l-0.9,0.8l-1.2-0.8l-0.9-0.3l0.2-0.9l-0.8,0.3l-1.2,1.3l-1.2-0.5
		l-0.8-0.3l-0.8-0.1l-1.4-0.5l-0.9-1.1l-0.3-1.3l-0.3-0.9l-0.7-0.7l-1.4-0.2l0.5-0.8l-0.3-1.3l-0.7,1.2l-1.3,0.3l0.7-1l0.2-1
		l0.5-0.8l-0.1-1.2l-1.2,1.4l-0.9,0.6l-0.5,1.4l-1.1-0.7l0-0.9l-0.9-1.2l-0.7-0.6l0.3-0.4l-1.8-1l-1,0l-1.4-0.8l-2.5,0.2l-1.8,0.6
		l-1.6,0.6l-1.4-0.1l-1.5,0.9l-1.2,0.4l-0.3,0.9l-0.5,0.7l-1.2,0l-0.9,0.2l-1.3-0.3l-1,0.2l-1,0.1l-0.8,0.9l-0.4-0.1l-0.7,0.5
		l-0.7,0.5l-1-0.1l-0.9,0l-1.5-1.1l-0.8-0.3l0-1l0.7-0.2l0.2-0.4l-0.1-0.6l0.2-1.2l-0.2-1l-0.7-1.7l-0.2-0.9l0.1-0.9l-0.6-1l0-0.5
		l-0.6-0.6l-0.2-1.2l-0.8-1.3l-0.2-0.7l0.6,0.7l-0.5-1.5l0.7,0.5l0.4,0.6l0-0.8l-0.7-1.2l-0.1-0.5l-0.3-0.5l0.2-0.9l0.3-0.4l0.2-0.8
		l-0.2-0.9l0.6-1.1l0.1,1.2l0.6-1l1.1-0.5l0.7-0.6l1.1-0.6l0.6-0.1l0.4,0.2l1.1-0.6l0.9-0.2l0.2-0.3l0.4-0.1l0.8,0l1.5-0.4l0.8-0.7
		l0.4-0.8l0.8-0.8l0.1-0.6l0-0.8l1-1.2l0.6,1.3l0.6-0.3l-0.5-0.7l0.4-0.7l0.6,0.3l0.2-1.1l0.8-0.7l0.3-0.6l0.7-0.2l0-0.4l0.6,0.2
		l0-0.4l0.6-0.2l0.7-0.2l1,0.7l0.8,0.9l0.9,0l0.9,0.1l-0.3-0.8l0.7-1.2l0.6-0.4l-0.2-0.4l0.6-0.8l0.9-0.5l0.7,0.2l1.2-0.3l0-0.7
		l-1-0.5l0.8-0.2l0.9,0.4l0.8,0.6l1.2,0.4l0.4-0.1l0.9,0.4l0.8-0.4l0.5,0.1l0.3-0.3l0.6,0.7l-0.4,0.8l-0.5,0.6l-0.5,0l0.2,0.6
		l-0.4,0.7l-0.5,0.7l0.1,0.4l1.1,0.8l1.1,0.5l0.7,0.5l1,0.9l0.4,0l0.7,0.4l0.2,0.5l1.4,0.5l0.9-0.5l0.3-0.8l0.3-0.7l0.2-0.8l0.4-1.2
		l-0.2-0.7l0.1-0.4l-0.2-0.8l0.2-1.1l0.3-0.3l-0.2-0.5l0.3-0.8l0.3-0.8l0-0.4l0.5-0.5l0.4,0.7l0.1,0.9l0.4,0.2l0.1,0.6l0.5,0.7
		l0.1,0.8L444.6,264.1z"/>
	<path id="AZ" d="M305.1,183.6l0.4,0.5l0.6,0l0,0.3l0.6,1l-1-0.2l-0.7-0.8l-0.2-0.7L305.1,183.6z M308.5,180.8l0.6,0.1l0.2-0.5
		l0.8-0.8l0.7,1l0.7,1.3l0.7,0.1l0.4,0.5l-1.2,0.1l-0.2,1.4l-0.2,0.6l-0.5,0.4l0,0.9l-0.4,0.1l-0.9-0.9l0.5-0.9l-0.4-0.5l-0.5,0.1
		l-1.7,1.3l0-1.3l-0.6-0.3l-0.6-0.5l0.4-0.6l-0.8-0.6l0.3-0.5l-0.5-0.3l-0.3-0.5l0.3-0.3l1.1,0.5l0.8,0.1l0.2-0.2l-0.7-1l0.4-0.3
		l0.4,0.1L308.5,180.8z"/>
	<path id="BA" d="M268.3,173.8l0.5,0l-0.4,0.9l0.7,0.8l-0.2,0.9l-0.3,0.1l-0.3,0.2l-0.5,0.5l-0.2,1.1l-1.3-0.7l-0.5-0.8l-0.5-0.4
		l-0.7-0.7l-0.3-0.6l-0.7-0.9l0.3-0.8l0.5,0.5l0.3-0.4l0.7,0l1.2,0.3l1,0L268.3,173.8z"/>
	<path id="BD" d="M372.6,212.8l0,1.1l-0.5-0.2l0.1,1.2l-0.4-0.8l-0.1-0.8l-0.3-0.7l-0.6-0.9l-1.3-0.1l0.1,0.6l-0.4,0.8l-0.6-0.3
		l-0.2,0.3l-0.4-0.2l-0.5-0.1l-0.2-1.3l-0.5-1.2l0.2-0.9l-0.9-0.4l0.3-0.6l0.9-0.6l-1-0.8l0.5-1.1l1.1,0.7l0.7,0.1l0.1,1.1l1.3,0.2
		l1.3,0l0.8,0.3l-0.7,1.3l-0.6,0.1l-0.4,0.9l0.8,0.8l0.2-1l0.4,0L372.6,212.8z"/>
	<path id="BE" d="M246.1,160.1l1,0.2l1.3-0.5l0.9,1l0.8,0.5l-0.2,1.5l-0.4,0.1l-0.2,1.2l-1.2-1l-0.7,0.2l-1-1l-0.7-0.9l-0.7,0
		l-0.2-0.8L246.1,160.1z"/>
	<path id="BF" d="M237.4,231l-1-0.4l-0.7,0.1l-0.5,0.4l-0.6-0.3l-0.2-0.5l-0.6-0.3l-0.1-0.8l0.4-0.6l0-0.5l1.1-1.2l0.2-1l0.4-0.4
		l0.7,0.2l0.6-0.3l0.2-0.4l1.1-0.6l0.3-0.5l1.3-0.6l0.8-0.2l0.4,0.3l0.9,0l-0.1,0.7l0.2,0.7l0.8,0.9l0,0.7l1.6,0.3l0,1l-0.3,0.4
		l-0.7,0.1l-0.3,0.6l-0.5,0.2l-1.2,0l-0.7-0.1l-0.5,0.2l-0.6-0.1l-2.5,0.1l0,0.8L237.4,231z"/>
	<path id="BG" d="M273.5,175l0.4,0.8l0.5-0.1l1.1,0.3l2.1,0.1l0.7-0.5l1.7-0.5l1,0.7l0.8,0.2l-0.7,0.8l-0.5,1.4l0.5,1.1l-1.2-0.3
		l-1.4,0.6l0,0.9l-1.3,0.2l-1-0.7l-1.1,0.5l-1-0.1l-0.1-1.2l-0.7-0.6l0.2-0.3l-0.2-0.2l0.2-0.6l0.5-0.6l-0.7-0.8l-0.1-0.7L273.5,175
		z"/>
	<path id="BI" d="M282.9,250.9l-0.1-1.7l-0.4-0.6l0.9,0.1l0.4-0.8l0.8,0.1l0.1,0.6l0.3,0.3l0,0.5l-0.3,0.3l-0.6,0.7l-0.5,0.5
		L282.9,250.9z"/>
	<path id="BJ" d="M245.2,235.8l-1.2,0.2l-0.3-1l0.1-3.3l-0.3-0.3l-0.1-0.7l-0.5-0.5l-0.4-0.4l0.2-0.8l0.5-0.2l0.3-0.6l0.7-0.1
		l0.3-0.4l0.5-0.4l0.5,0l1.1,0.8l-0.1,0.5l0.3,0.8l-0.3,0.6l0.1,0.4l-0.7,0.9l-0.4,0.4l-0.3,0.9l0,0.9L245.2,235.8z"/>
	<path id="BN" d="M403,238.2l0.6-0.5l1.2-0.8l-0.1,0.7l-0.1,0.9l-0.7,0l-0.3,0.5L403,238.2z"/>
	<path id="BO" d="M152.5,276.4l-1.6-0.1l-0.6,1.2l-0.8-1.1l-1.9-0.4l-1.2,1.4l-1,0.2l-0.6-2.1l-0.8-1.7l0.4-1.4l-0.7-0.6l-0.2-1.1
		l-0.7-1l0.9-1.6l-0.6-1.2l0.3-0.5l-0.3-0.5l0.6-0.7l0-1.2l0.1-1l0.3-0.5l-1.2-2.3l1.1,0.1l0.7,0l0.3-0.4l1.2-0.6l0.7-0.5l1.9-0.2
		l-0.2,1.1l0.2,0.6l-0.1,1l1.5,1.3l1.6,0.2l0.6,0.5l1,0.3l0.6,0.4l0.9,0l0.8,0.4l0.1,0.8l0.3,0.4l0,0.6l-0.4,0l0.5,1.7l2.7,0.1
		l-0.2,0.8l0.2,0.6l0.8,0.4l0.3,0.9l-0.3,1.2l-0.4,0.7l0.1,0.9l-0.4,0.3l0-0.5l-1.3-0.8l-1.3,0l-2.5,0.4l-0.7,1.3l0,0.8l-0.6,1.8
		L152.5,276.4z"/>
	<path id="BR" d="M159.9,289.2l1.9-2.2l1.6-1.6l1-0.6l1.2-0.9l0-1.3l-0.7-0.9l-0.7,0.3l0.3-0.9l0.2-0.9l0-0.8l-0.5-0.3l-0.5,0.2
		l-0.5-0.1l-0.2-0.6l-0.1-1.4l-0.3-0.5l-1-0.4l-0.6,0.3l-1.5-0.3l0.1-2.1l-0.4-0.8l0.4-0.3l-0.1-0.9l0.4-0.7l0.3-1.2l-0.3-0.9
		l-0.8-0.4l-0.2-0.6l0.2-0.8l-2.7-0.1l-0.5-1.7l0.4,0l0-0.6l-0.3-0.4l-0.1-0.8l-0.8-0.4l-0.9,0l-0.6-0.4l-1-0.3l-0.6-0.5l-1.6-0.2
		l-1.5-1.3l0.1-1l-0.2-0.6l0.2-1.1l-1.9,0.2l-0.7,0.5l-1.2,0.6l-0.3,0.4l-0.7,0l-1.1-0.1l-0.8,0.2l-0.6-0.2l0.1-2.2l-1.2,0.8l-1.2,0
		l-0.5-0.8l-0.9-0.1l0.3-0.6l-0.8-0.9l-0.6-1.3l0.4-0.3l0-0.6l0.9-0.4l-0.1-0.8l0.4-0.5l0.1-0.7l1.6-1l1.2-0.3l0.2-0.2l1.3,0.1
		l0.6-3.9l0-0.6l-0.2-0.8l-0.6-0.5l0-1l0.8-0.2l0.3,0.1l0-0.5l-0.8-0.1l0-0.9l2.8,0l0.5-0.5l0.4,0.4l0.3,0.8l0.3-0.2l0.8,0.7
		l1.1-0.1l0.3-0.4l1.1-0.3l0.6-0.2l0.2-0.6l1-0.4l-0.1-0.3l-1.2-0.1l-0.2-0.9l0.1-0.9l-0.6-0.4l0.3-0.1l1,0.2l1.1,0.4l0.4-0.3l1-0.2
		l1.6-0.5l0.5-0.5l-0.2-0.4l0.7-0.1l0.3,0.3l-0.2,0.6l0.5,0.2l0.3,0.7l-0.4,0.5l-0.2,1.2l0.4,0.7l0.1,0.7l0.9,0.7l0.7,0.1l0.2-0.3
		l0.4-0.1l0.6-0.2l0.5-0.4l0.8,0.1l0.3-0.1l0.8,0.1l0.1-0.3l-0.2-0.3l0.1-0.4l0.6,0.1l0.7-0.1l0.8,0.3l0.6,0.3l0.4-0.4l0.3,0.1
		l0.2,0.4l0.7-0.1l0.5-0.5l0.4-1l0.8-1.3l0.5-0.1l0.4,0.8l0.8,2.5l0.8,0.2l0,1l-1.1,1.2l0.4,0.4l2.5,0.2l0.1,1.4l1.1-0.9l1.8,0.5
		l2.4,0.9l0.7,0.8l-0.2,0.8l1.6-0.4l2.8,0.7l2.1-0.1l2.1,1.2l1.8,1.6l1.1,0.4l1.2,0.1l0.5,0.4l0.5,1.8l0.2,0.9l-0.6,2.3l-0.7,0.9
		l-2,2l-0.9,1.6l-1,1.2l-0.4,0l-0.4,1.1l0.1,2.7l-0.4,2.3l-0.2,1l-0.4,0.6l-0.3,2l-1.4,2l-0.2,1.6l-1.1,0.7l-0.3,0.9l-1.5,0
		l-2.2,0.6l-1,0.7l-1.6,0.4l-1.7,1.2l-1.2,1.5l-0.2,1.2l0.2,0.9l-0.3,1.6l-0.3,0.8l-1,0.9l-1.6,2.9l-1.2,1.3l-1,0.8l-0.6,1.6l-0.9,1
		l-0.4-1l0.6-0.8l-0.8-1.1l-1.1-0.9l-1.5-1.1l-0.5,0l-1.4-1.3L159.9,289.2z"/>
	<path id="BS" d="M131.7,210.2l-0.3,0.1l-0.4-0.9l-0.5-0.4l0.3-1l0.4,0.1l0.5,1.3L131.7,210.2z M131.3,205.8l-1.5,0.3l-0.1-0.6
		l0.7-0.1l0.9,0L131.3,205.8z M132.5,205.8l-0.2,1.1l-0.3-0.2l0-0.8l-0.6-0.6l0-0.2L132.5,205.8z"/>
	<path id="BT" d="M371.2,203.9l0.6,0.5l-0.1,1l-1.2,0l-1.2-0.1l-0.9,0.2l-1.3-0.6l0-0.3l0.9-1.2l0.8-0.4l1,0.4l0.7,0L371.2,203.9z"
		/>
	<path id="BW" d="M277.7,271.1l0.3,0.3l0.4,0.9l1.6,1.6l0.6,0.2l0,0.5l0.4,1l1.1,0.2l0.9,0.7l-2,1.1l-1.3,1.1l-0.5,1l-0.4,0.6
		l-0.8,0.1l-0.2,0.7l-0.1,0.5l-0.9,0.4l-1.2-0.1l-0.7-0.4l-0.6-0.2l-0.7,0.4l-0.3,0.7l-0.7,0.5l-0.7,0.7l-1,0.2l-0.3-0.6l0.1-1
		l-0.8-1.5l-0.4-0.2l0-4.5l1.4-0.1l0-5.3l1.1,0l2.2-0.5l0.5,0.6l0.9-0.6l0.4,0l0.8-0.3l0.3,0.1L277.7,271.1z"/>
	<path id="BY" d="M274.7,154.1l1.4,0l1.5-0.9l0.3-1.4l1.2-0.8l-0.1-1.1l0.9-0.4l1.5-1l1.5,0.6l0.2,0.6l0.7-0.3l1.4,0.6l0.1,1.2
		l-0.3,0.7l0.9,1.6l0.6,0.4l-0.1,0.4l1,0.4l0.4,0.6l-0.6,0.5l-1.1-0.1l-0.3,0.2l0.3,0.8l0.3,1.5l-1.2,0.1l-0.4,0.5l-0.1,1.1
		l-0.6-0.2l-1.3,0.1l-0.4-0.5l-0.5,0.4l-0.5-0.3l-1.1,0l-1.6-0.5l-1.4-0.2l-1.1,0.1l-0.8,0.6l-0.7,0.1l0-1l-0.4-1.1l0.8-0.5l0-0.9
		l-0.4-0.9L274.7,154.1z"/>
	<path id="BZ" d="M115.3,219.2l0-0.2l0.2-0.1l0.3,0.2l0.5-0.9l0.3,0l0,0.2l0.3,0l0,0.4l-0.2,0.6l0.1,0.2l-0.1,0.5l0.1,0.1l-0.2,0.7
		l-0.3,0.4l-0.3,0l-0.3,0.5l-0.4,0l0.1-1.7L115.3,219.2z"/>
	<path id="CA" d="M102,59.3l-0.1-3l1.8,0.3l0.8,0.5l1.7,2.5l-0.4,2.5l-2.1,1.4l-1.2-1.6L102,59.3z M108.6,65.7l0.2-0.8l-1-1.2
		l-2.8-0.1l0.4,1.9l2.7,0.4L108.6,65.7z M127,89.4l1.6,2.6l0.4,0.3l1.5-0.6l1.5,0.1l1.5,0.1l-0.1-1.3l-2.4-2.7l-3.2-0.5l-0.7,0.3
		L127,89.4z M93.9,57.7l-1.4,2.1l3.2,0.3l2.3,2.2l2.3,0.8l-0.6-2.9l-1.1-3.4l-3.8-2.7l-2.8-1l0.1,2.9L93.9,57.7z M107,52.6l2.6-0.1
		l-1.1,2l0,2.7l1.5,2.9l2.9,0.9l2.5-0.5l2.6-5.4l1.9-2.2l-1.7-2.5l-1.1-5.4l-2.3-1.6l-2.4-1.9l-1.8-4.8l-3.3,0.5l0.6,2.1l-1.5,0.6
		l-1,2.7l-1,3.8l0.9,3.7L107,52.6z M74.8,79.5l2,1l6.4-0.7l-2.9,2.4l0.2,1.7l2.2-0.1l3.6-2.3l4.8-0.8l0.9-2.6l-0.2-2.8L90.1,75
		l-1.3,1l-0.6-2.1L87.8,71l-1.5-0.7L85,72.5l2,5.6l-2.5-0.4l-2.5-3.4l-4-2l-1.3,1.7L74.8,79.5z M86.2,58.3l-1.8-1.5l-0.8-0.3
		l-1.5,2.2l0,1l2.4,0L86.2,58.3z M85.5,64.5l0.5-2l-2-1.1l-2.1,0.7l-1.1,2.2l2.1,2.1L85.5,64.5z M100.2,81.3l2.3-0.6l0.6-4.2l0-3
		l-1.1-2.8l-0.1,0.8l-2-0.4l-2.1,2.1l-1.5-0.2l0.1,4.5l2.3-0.4l0,3.3L100.2,81.3z M98.5,104.3l-2.6-2l-2.4-2.1l-0.4-3.1l-0.9-4.5
		l-1.6-1.9l-1.4-0.8L88,90.6l1,4.8l-0.7,1.9l-1.2-4.5l-1.3-1.6l-1.6,2.4l-2-2.4l-3.1,1.4l0.7-2.3l-1.4-0.9l-3.8,2.9l-1,1.9l-1.2,3.4
		l2.5,1.2l2.2-0.1l-3.3,1.7l0.7,1.6l2,0.1l3-0.3l2.7,1l-1.8,0.7l-2-0.2l-2.2,0.7l-0.9,0.4l1.7,3.2l1.3-0.4l1.9,1.1l0.8,1.8l2.5-0.4
		l3.6-0.6l2.7-1.3l1.6-0.2l2.4,1.1l2.6,0.6l0.5-1.4l-0.9-1.5l2.3-0.3L98.5,104.3z M102.4,103.8l-1,1.8l-1.2,1.3l1.9,1.8l1.2-0.4
		l1.9,1.2l0.9-1.4l-0.9-1.5l-0.4-0.8l-0.8-0.7L102.4,103.8z M93.5,89l-1.1-1.1l-1.9,0.2l-0.5,0.7l2.2,3.4L93.5,89z M108,95.6
		l1.5-3.5l1.7-0.9l2.1-4.4l-2.7-1.2l-2.9-0.2l-1.4,1.4l-0.7,2.1l0,2.4l0.9,4.1L108,95.6z M116.7,84l2.9-0.1l4.1-0.8l1.8,0.6l2.1-1.1
		l0.9-1.4l-0.3-2.3l-1.5-2.1l-2.3-0.4l-2.9,0.5l-2.2,1.2l-2.1-0.5l-1.9-0.2l-0.9-1.4l-1.6-1.3l0.3-2.2l-1.2-2l-2.8,0l-1.6-2
		l-2.9-0.4l-0.5,2.6l1.6,1.9l2.9,0.7l1.4,2.6l0.2,2.8l0.5,3l3.8,1.7L116.7,84z M71.7,74.8l2.6-2.6l1.3-0.3l1.1-2.1l0.2-4.9l-1.9,1
		l-2.2-0.1L70,69.9l-2.4,4.5l1.9,1.3L71.7,74.8z M108.2,82.9l0.8-2.1l-0.5-1.7l-1.2-2l-2,1.5l-0.8,2.5l1.7,1.4L108.2,82.9z
		 M104,88.7l-0.4-1.5l-2.5,0.6l-1.7-1.1l-1.7,2.4l1.6,3.2l-2.9-0.6l0,1.5l3.5,3.6l1,1.7l1.4,0.4l2.3-1.7l0.3-4.1l-2.1-2.1L104,88.7z
		 M66.6,166.3l-0.6-1.2l-1.4-0.9l-0.7-1l-0.5-0.8l-1.3-0.2l-0.9-0.3l-1.5-0.5l-0.1,0.5l0.5,1.2l1.5,0.4l0.3,0.6l1.3,0.8l0.4,0.8
		l2.3,1L66.6,166.3z M128.1,127.1l-1-1.1l-1,0.3l-0.1-1.5l-1.6-1l-1.5-1.1l-0.8-0.9l-0.7,0.5l-0.3-1.5l-1-0.3l-0.5,3.1l-0.2,2.6
		l-1.2,1.6l1.9-0.3l0.5,1.8l2-1.6l1.4-1.7l0.8,1.4l2.2,0.8L128.1,127.1z M67.2,100.6l3.7-2.1v-2l1.8-3.2l3.5-3.4l1.8-1.2l-1.5-2.1
		l-1.4-1.5l-3.6-0.3l-2-1.1l-4.8,0.8l1.4,3.1l-1.2,3.2l-1,3.5l-0.6,1.9l3.3,2.4L67.2,100.6z M135,114.4l0.2-0.5l0-1.6l-1.1-1.1
		l-1.3,0.5l-0.6,2.1l0.4,1.8l1.6-0.2L135,114.4z M147,118.2l2.2,3.3l1.7,1.4l2.5-4l0.4-2.5l-2.2-0.2l-2-3.4l-2.2-0.8l-3.3-2.5
		l2.6-1.8l-1.3-3.8l-1.2-1.7l-3.4-1.7l-1.5-2.8l-2.6,1l-0.2-1.9l-1.9-2.2l-3.1-2.4l-1.3,1.9l-2.8,1.3l0.2-3.1l-2.4-5.1l-3.6,2.1
		l-1.3,3.9l-1.1-3l1-3.2l-3.7,1.3l-1.5,2l-1.1,4.3l0.4,4.6l2,0l-1.5,2l1.2,1.5l2.3,0.6l3,1.2l5.2,0.9l2.6-0.5l0.8-1.2l1.1,1.4
		l1.2,0.2l1.5,2.5l-0.9,1l2.9,1.3l2.2,1.9l0.5,1.3l0.4,1.6l-1.8,3.5l-0.5,1.7l0.5,1.2l-2.9,0.4l-2.7,0.1l-0.9,2.5l1.2,1.1l4.1-0.5
		l0-1l2.1,1.6l2.1,1.7l-0.5,0.9l1.7,1.5l3,1.8l3.8,1.2l-0.2-1.1l-1.5-1.9l-2-2.7l3.5,2.5l1.8,0.8l0.5-2.2L149,125l-0.6-0.9l-1.9-1.5
		l-1.5-2l0.2-2L147,118.2z M113.8,36.6l1.2,3.7l2.5,3l5-0.5l3.2,1l-2.2,3.1l-1.1-0.9l-3.9-0.4l0.6,4.2l2,3l-0.4,2.6l-2.5,1.7
		l-1.1,2.8l2.3,1.3l1.9,4.3l-3.8-2.9l-0.9,0.5l0.7,4.7l-2.6,1.4l0.2,3l2.7,0.3l2.1,0.7l4.2-0.9l3.7,1.6l3.8-3.6l0-1.5l-2.4,0.2
		l-0.2-1.4l2-1.9l0.7-2.6l2.2-1.9l1.3-2.4l-1.2-3.6l1-1.3l-2-1l4.3-0.8l0.9-1.6l2.9-1.3l2.4-6.8l2.3-2.5l3.3-5.6l-3.1,0l1.3-2.2
		l3.4-2l3.5-4.5l0.1-2.9l-2.6-3l-3-1.5l-3.8-0.9l-3.1-0.8l-3.1-0.8l-4.1,2l-0.8-1.3l-4.3,0.5l-2.5,1.3l-1.9,1.8l-1.1,5.9l-1.5-3
		l-1.8-0.6l-2.1,4l-2.8,1.7l-1.7,0.3l-2.1,1.9l0.3,3.4L113.8,36.6z M151.3,170.4l-0.5-1l-0.5,0.6l0.4,0.7l1.8,0.9l0.5-0.1l0.7-0.8
		l-1.3,0.1L151.3,170.4z M122.6,131.1l0.3,0.8l1,0.1l1.7-1.7l0-0.6l-1.9,0L122.6,131.1z M153.9,164.6l-1.4-0.9l-1.9-0.5l-0.5,0.2
		l1.3,1l1.8,0.7l0.7,0L153.9,164.6z M166.5,167l-0.2-1.1l-1,0.4l0.4-1.6l-1.4-0.7l-0.7,0.5l-1.3-0.6l0.5-0.8l-1-0.5l-0.9,0.7
		l0.9-1.9l0.8-1.4l0.3-0.6l-0.7-0.1l-1.2,0.8l-0.9,1.3l-1.5,3.5l-1.2,1.3l0.6,0.6l-0.9,0.7l0.2,0.6l2.7,0.1l1.5-0.1l1.4,0.5l-1,1
		l0.8,0.1l1.6-1.8l0.4,0.3l-0.3,1.7l0.9,0.4l0.6-0.1l0.6-1.8L166.5,167z M155.8,169.5l-1.4,2.3L152,172l-1.8-1l-0.5-1.5l-0.4-2.3
		l1.3-1.4l-1.3-1.1l-2.1,0.2l-3,1.8l-2.3,2.8l-1.2,0.3l1.6-1.9l2-2.8l1.8-1l1.2-1.6l1.5-0.2l2.1,0l3,0.5l2.4-0.4l1.8-1.8l2.3-0.8
		l1-0.8l1-0.9l-0.1-2.6l-0.6-0.9l-1.1-0.3l-0.6-2l-0.9-0.8l-2.3-0.6l-1.3-1.4l-1.9-1.4l0.6-1.6l-1.6-3.2l-1.8-3.5l-1.1-2.5l-0.9,1.3
		l-1.4,3.1l-2,1.5l-1-1.6l-1.3-0.4l-0.5-3.5l0-2.4l-2.5-0.2l-0.4-1.1l-1.7-1.7l-1.3-1l-1.2,0.8l-1.5-0.3l-2.4-0.8l-1,0.7l0.5,4.6
		l0.6,2.6l-1.7,2.9l1.7,2l1,2.2l0.1,1.7l-0.8,1.8l-1.6,1.7l-2.3,1.2l1,1.3l0.7,3.7l-0.8,2.4l-1.1,0.7l-2.1-2.2l-1-2.6l-0.4-2.4
		l0.2-2.1l-1.5-0.2l-2.3-0.1l-1.5-1.1l-1.8-0.7l-1-1.2l-1.4-1l-2.6-1.1l-2,0.5l-0.7-2l-0.6-2.5l-2.1-0.5l0.1-3.2l0.5-2.3l1.5-3.3
		l1.7-2.5l1.6-0.4l0.1-2l1.1-1.4l2-0.2l1.6-2.2l0.4-1.5l1.4-2.9l0.4-1.8l1.5,1.1l2-0.5l2.8-2.5l0.2-1.8l-1-2l1.1-2l-0.1-2l-1.9-2
		l-2.1-0.6l-2-0.3l-0.1,4.4l-1,3.3l-1.5,2.7l-1.4-2.5l0.4-2.8l-1.7-2.5l-1.9,3.1l0-4l-2.6-0.8l1.3-2l-1.9-4.8l-1.4-2l-1.9-0.7
		l-1.7,3.2l-0.1,4.7l1.7,1.7l1.5,2.5l-0.6,3.9l-1.1-0.1l-0.9,3l0-3.5l-2.2-1.3l-1.3,0.7l0.2,2.4L100,113l-2.2,0.6l-2.5-1.7l-1.6,0.3
		l-1.4-2.1l-1.1-0.9l-1.1,0.4l-1.7,0.2l-0.9,1.3l1.4,1.6l-1.5,1.9l-1.5-2.2l-1.2,0.7l-3.8,0.4l-2.6-0.8l2-1.9l-1.9-2l-1.4,0.3
		l-1.9-0.7l-3.3-1.5l-2.2-1.7l-1.7-0.2l-0.5,1.2l-1.7,0.7l-0.2-3.1l-1.9,2.8l-2.4-3.7l-1-0.5l-0.3,2l-1.1,1l-1-1.7l-2.3,1l-2.1,1.8
		l-2.1-0.5l-1.7,1.3l-1.2,1.7l-1.5-0.4l-2.2-1.9l-2.6-1l0,14l0,17.9l1.4,0.1l1.4,0.8l1,1.2l1.3,1.8l1.4-1.5l1.4-0.9l0.8,1.4l1,1.1
		l1.3,1.2l0.9,1.9l1.4,3l2.4,1.6l0,1.6l-0.8,1.2l0,1.3l1.7,1.7l0.2,1.9l1.8,1l-0.2,1.4l0.8,2l2.6,0.9l1,1l2.7,2.1l0.2,0h4h4.2h1.4
		h4.3h4.2h4.2h4.2H99l4.8,0l2.9,0l0-0.8l0.5,0l0.3,1.2l0.4,0.4l1,0.1l1.4,0.3l1.4,0.7l1.1-0.3l1.7,0.5l0.6-0.8l0.8-0.3l0.3-0.5
		l0.3-0.3l1.3,0.4l1,0.1l0.3,0.3l0.5,1.2l1.6,0.3l-0.2,0.6l0.6,0.6l-0.2,0.8l0.6,0.3l-0.3,0.7l0.4,0.1l0.3-0.3l0.3,0.5l1.1,0.3
		l1.1,0l1.1,0.2l1.3,0.4l0.5,0.6l0.9,1.5l-0.5,0.7l-1.2-0.3l-0.7-1.2l0.2,1.3l-0.7,1.1l0.1,0.9l-0.1,0.5l-0.9,0.6l-0.7,1.1l-0.3,0.7
		l0.8,0.1l1.1-0.6l0.6-0.5l0.4-0.1l0.8,0.2l0.4-0.3l0.7-0.2l1.2-0.2v0v0l-0.1-0.6l-0.1,0l-0.4,0.1l-0.6-0.2l0.4-0.7l0.4-0.2l1-0.3
		l1.2-0.3l0.6,0.4l0.4-0.4l0.4-0.3l0.3,0.1l0,0l1.4-1.4l0.6-0.4l2.2,0l2.6,0l0.1-0.5l0.5-0.1l0.6-0.3l0.5-0.9l0.4-1.6l1.1-1.6
		l0.5,0.5l0.9-0.4l0.6,0.6l0,2.8l0.9,1.1l1.6-0.2l2.3-0.1l-2.5,1.6l0.1,1.7l1.1,0.1l1.6-1.4l1.4-0.8l3.1-1.2l1.8-1.3l-0.9-0.7
		L155.8,169.5z M128.7,133.6l0.6-1.6l-0.4-0.6l-0.6-0.1l-0.5,0.9l-0.1,0.2l0.4,0.9L128.7,133.6z M56.7,151.9L56.7,151.9l0.8-1.2
		L56.7,151.9z"/>
	<path id="CD" d="M285.1,239.7l-0.1,1.6l0.6,0.2l-0.5,0.5l-0.5,0.4l-0.5,0.7l-0.3,0.7l-0.1,1.1l-0.3,0.5l0,1.1l-0.4,0.4l-0.1,0.8
		l-0.2,0.1l-0.1,0.8l0.4,0.6l0.1,1.7l0.3,1.3l-0.1,0.7l0.3,0.8l0.8,0.8l0.8,1.8l-0.6-0.1l-1.9,0.2l-0.4,0.2l-0.4,0.9l0.3,0.6
		l-0.3,1.7l-0.2,1.4l0.4,0.3l1,0.6l0.4-0.3l0.1,1.6l-1.1,0l-0.6-0.8l-0.5-0.6l-1.1-0.2l-0.3-0.8l-0.9,0.5l-1.1-0.2l-0.5-0.7
		l-0.9-0.1l-0.7,0l-0.1-0.4l-0.5,0l-0.6-0.1l-0.9,0.2l-0.6,0l-0.4,0.1l0.1-1.7l-0.5-0.5l-0.1-0.9l0.2-0.9l-0.3-0.5l0-0.9l-1.7,0
		l0.1-0.5l-0.7,0l-0.1,0.2l-0.9,0.1l-0.4,0.8l-0.2,0.4l-0.8-0.2l-0.5,0.2l-0.9,0.1l-0.5-0.7l-0.3-0.5l-0.4-0.8l-0.3-1.1l-4.2,0
		l-0.5,0.2l-0.4,0l-0.6,0.2l-0.2-0.4l0.4-0.1l0-0.6l0.2-0.4l0.5-0.3l0.4,0.1l0.5-0.5l0.8,0l0.1,0.4l0.5,0.2l0.8-0.9l0.8-0.7l0.4-0.5
		l0-1.2l0.6-1.4l0.6-0.7l0.9-0.7l0.2-0.4l0-0.5l0.2-0.5l-0.1-0.8l0.2-1.2l0.3-0.9l0.4-0.8l0.1-0.9l0.1-1l0.6-0.7l0.8-0.5l1.2,0.5
		l0.9,0.5l1,0.1l1.1,0.3l0.4-0.9l0.2-0.1l0.6,0.1l1.6-0.7l0.6,0.3l0.5,0l0.2-0.3l0.5-0.1l1.1,0.1l0.9,0l0.5-0.1l0.9,1.2l0.6,0.2
		l0.4-0.2l0.7,0.1l0.8-0.3l0.3,0.6L285.1,239.7z"/>
	<path id="CF" d="M263,234.1l1.2-0.1l0.3-0.4l0.2,0l0.4,0.3l1.8-0.5l0.6-0.6l0.7-0.5l-0.1-0.5l0.4-0.1l1.4,0.1l1.3-0.7l1-1.6
		l0.7-0.6l0.9-0.2l0.2,0.6l0.8,0.9l0,0.6l-0.2,0.6l0.1,0.4l0.5,0.4l1.1,0.6l0.8,0.6l0,0.5l1,0.7l0.6,0.6l0.4,0.8l1.1,0.6l0.2,0.4
		l-0.5,0.1l-0.9,0l-1.1-0.1l-0.5,0.1l-0.2,0.3l-0.5,0l-0.6-0.3l-1.6,0.7l-0.6-0.1l-0.2,0.1l-0.4,0.9l-1.1-0.3l-1-0.1l-0.9-0.5
		l-1.2-0.5l-0.8,0.5l-0.6,0.7l-0.1,1l-0.9-0.1l-1-0.2l-0.8,0.7l-0.7,1.3l-0.1-0.4l-0.1-0.6l-0.6-0.5l-0.5-0.7l-0.1-0.5l-0.7-0.7
		l0.1-0.4l-0.1-0.6l0.1-1.1l0.3-0.3L263,234.1z"/>
	<path id="CG" d="M259.8,251.3l-0.5-0.5l-0.4,0.2l-0.6,0.6l-1.2-1.5l1.1-0.8l-0.5-0.9l0.5-0.4l1-0.2l0.1-0.6l0.8,0.7l1.2,0.1
		l0.4-0.7l0.2-0.9l-0.2-1.1l-0.7-0.8l0.6-1.6l-0.4-0.3l-1.1,0.1l-0.4-0.7l0.1-0.6l1.8,0.1l1.1,0.4l1.1,0.3l0.1-0.8l0.7-1.3l0.8-0.7
		l1,0.2l0.9,0.1l-0.1,0.9l-0.4,0.8l-0.3,0.9l-0.2,1.2l0.1,0.8l-0.2,0.5l0,0.5l-0.2,0.4l-0.9,0.7l-0.6,0.7l-0.6,1.4l0,1.2l-0.4,0.5
		l-0.8,0.7l-0.8,0.9l-0.5-0.2l-0.1-0.4l-0.8,0l-0.5,0.5L259.8,251.3z"/>
	<path id="CH" d="M255,168.4l0.1,0.4l-0.2,0.5l0.6,0.4l0.7,0.1l-0.1,0.8l-0.6,0.3l-1-0.3l-0.3,0.8l-0.7,0.1l-0.2-0.3l-0.8,0.7
		l-0.7,0.1l-0.6-0.4l-0.5-0.9l-0.7,0.3l0-0.9l1-1.2l0-0.5l0.6,0.2l0.4-0.4l1.2,0l0.3-0.5L255,168.4z"/>
	<path id="CI" d="M237.4,237.6l-0.6,0l-1-0.3l-0.9,0l-1.7,0.2l-1,0.4l-1.4,0.5l-0.3,0l0.1-1.2l0.1-0.2l0-0.6l-0.6-0.6l-0.4-0.1
		l-0.4-0.4l0.3-0.6l-0.1-0.7l0.1-0.4l0.2,0l0.1-0.6l-0.1-0.3l0.1-0.2l0.5-0.2l-0.3-1.1l-0.3-0.6l0.1-0.5l0.3-0.1l0.2-0.1l0.4,0.2
		l1.1,0l0.3-0.4l0.2,0l0.4-0.2l0.2,0.6l0.3-0.2l0.6-0.2l0.6,0.3l0.2,0.5l0.6,0.3l0.5-0.4l0.7-0.1l1,0.4l0.4,2l-0.6,1.2l-0.4,1.6
		l0.6,1.2L237.4,237.6z"/>
	<path id="CL" d="M144.3,332.1l0,5.3l1.5,0l0.9,0.1l-0.5,1l-1.2,0.8l-0.7-0.1l-0.8-0.2l-1-0.7l-1.5-0.4l-1.8-1.4l-1.4-1.3l-1.9-2.7
		l1.2,0.5l2,1.6l1.9,0.9l0.7-1.1l0.5-1.6l1.3-1L144.3,332.1z M144.9,275.6l0.6,2.1l1-0.2l0.2,0.4l-0.5,1.6l-1.5,0.8l0,2.6l-0.3,0.5
		l0.4,0.6l-1,1l-0.9,1.5l-0.5,1.5l0.1,1.6l-0.9,1.7l0.7,2.9l0.4,0.3l0,1.6l-0.8,1.7l0,1.4l-1.1,1.1l0,1.6l0.4,1.7l-0.8,0.7l-0.4,1.6
		l-0.3,1.9l0.2,2.3l-0.6,0.4l0.3,2.2l0.6,0.7l-0.5,0.8l0.7,0.4l0.2,0.7l-0.6,0.4l0.2,1.2l-0.5,2.7l-0.8,1.8l0.2,1.1l-0.4,1.4
		l-1.1,0.9l0.1,2.3l0.5,0.8l0.9-0.1l0,1.7l0.6,1.3l3.4,0.3l1.3,0.4l-1.3,0l-0.7,0.6l-1.3,0.8l-0.2,2.2l-0.6,0.1l-1.6-0.8l-1.6-1.6
		l0,0l-1.8-1.3l-0.4-1.5l0.4-1.3l-0.7-1.5l-0.2-3.7l0.6-2l1.5-1.6l-2.1-0.6l1.3-1.8l0.5-3.3l1.6,0.7l0.7-4l-0.9-0.5l-0.4,2.4
		l-0.9-0.3l0.4-2.7l0.5-3.5l0.7-1.3l-0.4-1.8l-0.1-2l0.6-0.1l0.9-2.8l1-2.7l0.6-2.5l-0.3-2.5l0.4-1.3l-0.2-2l0.8-2l0.3-3l0.5-3.2
		l0.4-3.4l-0.1-2.5l-0.3-2.1l0.7-0.4l0.4-0.8l0.7,1l0.2,1.1l0.7,0.6l-0.4,1.4L144.9,275.6z"/>
	<path id="CM" d="M259.9,241.4l-0.2-0.1l-0.8,0.2l-0.9-0.2l-0.7,0.1l-2.3,0l0.2-1.1l-0.6-0.9l-0.6-0.2l-0.3-0.6l-0.4-0.2l0-0.4
		l0.4-1l0.7-1.4l0.4,0l0.8-0.8l0.5,0l0.8,0.6l1-0.5l0.1-0.6l0.3-0.6l0.2-0.7l0.8-0.6l0.3-1l0.3-0.3l0.2-0.7l0.4-0.9l1.2-1.1l0.1-0.5
		l0.2-0.3l-0.6-0.6l0-0.5l0.4-0.1l0.6,0.9l0.1,1l-0.1,1l0.8,1.3l-0.8,0l-0.4,0.1l-0.6-0.1l-0.3,0.7l0.8,0.8l0.6,0.2l0.2,0.6l0.4,1
		l-0.2,0.4l-0.7,1.4l-0.3,0.3l-0.1,1.1l0.1,0.6l-0.1,0.4l0.7,0.7l0.1,0.5l0.5,0.7l0.6,0.5l0.1,0.6l0.1,0.4l-0.1,0.8l-1.1-0.3
		l-1.1-0.4L259.9,241.4z"/>
	<path id="CN" d="M397.6,217.9l-1.2,0.7l-1.2-0.5l0-1.3l0.7-0.7l1.5-0.4l0.8,0l0.3,0.6l-0.6,0.7L397.6,217.9z M422.1,163.6l2.5,0.7
		l1.7,1.5l0.6,2l2.2,0l1.2-0.8l2.3-0.6l-0.7,1.9l-0.5,0.8l-0.5,2.3l-1,2l-1.7-0.4l-1.2,0.7l0.4,1.7l-0.2,2.3l-0.7,0.1l0,1l-0.9-1.1
		l-0.6,1.1l-2.2,0.8l0.2,1l-1.2-0.1l-0.7-0.6l-1,1.3l-1.6,1l-1.2,1.2l-2,0.5l-1,0.9l-1.5,0.5l0.8-0.8l-0.3-0.7l1.1-1.2l-0.7-1
		l-1.2,0.7l-1.6,1.3l-0.9,1.2l-1.4,0.1l-0.7,0.8l0.7,1.2l1.2,0.3l0,0.8l1.1,0.5l1.6-1.3l1.3,0.7l0.9,0l0.2,0.9l-2,0.5l-0.7,0.9
		l-1.4,0.9l-0.7,1.2l1.5,0.9l0.6,1.7l0.9,1.5l1,1.3l0,1.2l-0.9,0.4l0.3,0.9l0.8,0.5l-0.2,1.3l-0.4,1.3l-0.8,0.1l-1,1.7l-1.1,2.1
		l-1.3,1.9l-1.9,1.4l-2,1.3l-1.6,0.2l-0.9,0.7l-0.5-0.5l-0.8,0.8l-2,0.8l-1.5,0.2l-0.5,1.6l-0.8,0.1l-0.4-1.1l0.3-0.6l-1.9-0.5
		l-0.7,0.2l-1.4-0.4l-0.7-0.6l0.2-0.9l-1.3-0.3l-0.7-0.6l-1.2,0.8l-1.4,0.2l-1.1,0l-0.8,0.4l-0.7,0.2l0.2,1.7l-0.8,0l-0.1-0.4l0-0.6
		l-1,0.4l-0.6-0.3l-1.1-0.6l0.4-1.3l-0.9-0.3l-0.3-1.4l-1.5,0.3l0.2-1.8l1.3-1.3l0.1-1.3l0-1.2l-0.6-0.4L380,203l-0.8,0.1l-1.5-0.2
		l0.5-0.7l-0.7-1l-1,0.7l-1.2-0.4l-1.6,1l-1.3,1.2l-1.1,0.2l-0.6-0.4l-0.7,0l-1-0.4l-0.8,0.4l-0.9,1.2l-0.1-1.3l-0.9,0.3l-1.7-0.2
		l-1.6-0.4l-1.1-0.7l-1.1-0.3l-0.5-0.8l-0.8-0.2l-1.4-1.1l-1.1-0.5l-0.6,0.4l-2-1.1l-1.4-1l-0.4-1.8l1,0.2l0.2,0l0.3-0.2l0.1-0.2
		l-0.3-0.3l0-0.6l-0.4,0l-0.3-0.2l0-0.4l0.2,0l-0.2-0.6l0.1-0.1l0.5,0l0.9-1.3l0.3-1.2l-0.5-0.4l-0.9-0.3l-0.8,0.2l-1.2,0.6
		l-1.6-0.5l-0.2-0.5l-0.7-0.3l-0.2-0.7l-1-0.8l-0.3-0.5l-0.2-1l0-0.7l-0.9-0.4l-0.5,0.2l-0.4-1.7l0.4-0.4l-0.2-0.4l1.4-0.9l1-0.4
		l1.5,0.2l0.5-1.2l1.8-0.2l0.5-0.7l2.2-1l0.2-0.4l-0.1-1.1l1-0.5l-1.3-3.4l2.8-0.8l0.7-0.4l1-3.7l2.8,0.7l0.8-0.9l0.1-2.1l1.2-0.2
		l1.1-1.4l0.6-0.2l0.4,1.5l1.2,1.1l2,0.8l1,1.7l-0.5,2.4l0.5,0.9l1.7,0.3l1.9,0.3l1.7,1.2l0.9,0.2l0.6,1.8l0.8,1.1l1.6,0l2.9,0.4
		l1.9-0.3l1.4,0.3l2.1,1.2l1.7,0l0.6,0.6l1.6-1l2.3-0.7l2.1-0.1l1.7-0.7l1-1l1-0.7l-0.2-0.6l-0.5-0.8l0.7-1.3l0.8,0.2l1.5,0.4
		l1.4-1.1l2.2-0.8l1-1.3l1-0.6l2.1-0.3l1.1,0.2l0.2-0.7l-1.3-1.5l-1.1-0.7l-1.1,0.8l-1.4-0.3l-0.8,0.3l-0.4-0.9l1-2.1l0.7-1.6
		l1.7,0.8l2-1.4l0-1l1.3-2.4l0.8-0.7l0-1.3l-0.8-0.6l1.2-1.2l1.8-0.4l1.9-0.1l2.1,0.7l1.2,0.9l0.9,2.3l0.5,1l0.5,1.4L422.1,163.6z"
		/>
	<path id="CO" d="M134.8,244.8l-0.6-0.3l-0.7-0.5l-0.4,0.2l-1.2-0.2l-0.3-0.6l-0.3,0l-1.4-0.8l-0.2-0.4l0.5-0.1l-0.1-0.7l0.3-0.5
		l0.7-0.1l0.6-0.9l0.5-0.7l-0.5-0.3l0.3-0.8l-0.3-1.3l0.3-0.4l-0.2-1.2l-0.6-0.8l0.2-0.7l0.5,0.1l0.3-0.4l-0.3-0.8l0.2-0.2l0.7,0
		l1.1-1l0.6-0.2l0-0.5l0.3-1.2l0.8-0.7l0.9,0l0.1-0.3l1.1,0.1l1.1-0.7l0.6-0.3l0.7-0.7l0.5,0.1l0.4,0.4l-0.3,0.5l-0.9,0.2l-0.4,0.7
		l-0.5,0.4l-0.4,0.5l-0.2,1l-0.4,0.8l0.7,0.1l0.2,0.7l0.3,0.3l0.1,0.6l-0.2,0.5l0,0.3l0.3,0.1l0.3,0.5l1.8-0.1l0.8,0.2l1,1.2
		l0.6-0.2l1,0.1l0.8-0.2l0.5,0.2l-0.3,0.8l-0.3,0.5l-0.1,1l0.3,0.9l0.4,0.4l0,0.3l-0.7,0.7l0.5,0.3l0.4,0.5l0.4,1.4l-0.3,0.2
		l-0.3-0.8l-0.4-0.4l-0.5,0.5l-2.8,0l0,0.9l0.8,0.1l0,0.5l-0.3-0.1l-0.8,0.2l0,1l0.6,0.5l0.2,0.8l0,0.6l-0.6,3.9l-0.7-0.7l-0.4,0
		l0.9-1.4l-1.1-0.7l-0.8,0.1l-0.5-0.2l-0.8,0.4l-1.1-0.2l-0.8-1.5l-0.7-0.4l-0.5-0.7l-0.9-0.7L134.8,244.8z"/>
	<path id="CR" d="M124,233l-0.8-0.3l-0.3-0.3l0.2-0.2l-0.1-0.3l-0.4-0.3l-0.6-0.3l-0.5-0.2l-0.1-0.4l-0.4-0.3l0.1,0.4l-0.3,0.3
		l-0.3-0.4l-0.5-0.1l-0.2-0.3l0-0.4l0.2-0.5l-0.4-0.2l0.3-0.3l0.2-0.2l0.9,0.4l0.3-0.2l0.4,0.1l0.2,0.3l0.4,0.1l0.3-0.3l0.4,0.8
		l0.5,0.6l0.7,0.6l-0.5,0.1l0,0.6l0.3,0.2l-0.2,0.2l0.1,0.3l-0.1,0.3L124,233z"/>
	<path id="CU" d="M125,211.1l1.2,0.1l1.1,0l1.3,0.5l0.6,0.6l1.3-0.2l0.5,0.4l1.2,0.9l0.9,0.7l0.5,0l0.8,0.3l-0.1,0.4l1,0.1l1.1,0.6
		l-0.2,0.4l-0.9,0.2l-1,0.1l-1-0.1l-2,0.1l0.9-0.8l-0.6-0.4l-0.9-0.1l-0.5-0.4l-0.3-0.9l-0.8,0.1l-1.3-0.4l-0.4-0.3l-1.8-0.2
		l-0.5-0.3l0.5-0.4l-1.4-0.1l-1,0.8l-0.6,0l-0.2,0.4l-0.7,0.2l-0.6-0.1l0.7-0.5l0.3-0.5l0.6-0.3l0.7-0.3l1.1-0.1L125,211.1z"/>
	<path id="CY" d="M289.4,191.6l1-0.7l-1.3,0.5l-1,0l-0.2,0.4l-0.1,0l-0.7,0.1l0.3,0.7l0.7,0.2l1.5-0.7l0-0.1L289.4,191.6z"/>
	<path id="CZ" d="M265.4,166.1l-0.7-0.4l-0.7,0.1l-1.1-0.7l-0.5,0.2l-0.8,0.9l-1.1-0.7l-0.8-0.9l-0.7-0.5l-0.1-0.9l-0.2-0.7l1-0.5
		l0.5-0.6l1-0.4l0.4-0.4l0.4,0.3l0.6-0.2l0.7,0.7l1.1,0.2l-0.1,0.6l0.8,0.5l0.2-0.6l1,0.2l0.1,0.7l1.1,0.1l0.7,1.1l-0.4,0l-0.2,0.4
		l-0.3,0.1l-0.1,0.5l-0.3,0.1l0,0.2l-0.5,0.2l-0.6,0L265.4,166.1z"/>
	<path id="DE" d="M255.5,151.5l0,0.9l1.4,0.6l0,0.9l1.4-0.5l0.8-0.7l1.6,1l0.7,0.8l0.3,1.2l-0.4,0.6l0.5,0.8l0.4,1.2l-0.1,0.8
		l0.6,1.4l-0.6,0.2l-0.4-0.3l-0.4,0.4l-1,0.4l-0.5,0.6l-1,0.5l0.2,0.7l0.1,0.9l0.7,0.5l0.8,0.9l-0.5,1l-0.5,0.3l0.2,1.4l-0.1,0.4
		l-0.4-0.4l-0.7-0.1l-1,0.4l-1.2-0.1l-0.2,0.6l-0.7-0.6l-0.4,0.1l-1.5-0.6l-0.3,0.5l-1.2,0l0.2-1.5l0.7-1.5l-2-0.4l-0.7-0.6l0.1-1
		l-0.3-0.5l0.2-1.5l-0.2-2.4l0.9,0l0.4-0.9l0.4-2.1l-0.3-0.8l0.3-0.5l1.2-0.1l0.3,0.5l1-1.2l-0.3-0.9l-0.1-1.4l1.1,0.3L255.5,151.5z
		"/>
	<path id="DJ" d="M302.4,226.6l0.3,0.4l0,0.6l-0.8,0.3l0.6,0.4l-0.5,0.8l-0.3-0.3l-0.3,0.1l-0.8,0l0-0.4l-0.1-0.4l0.5-0.7l0.5-0.6
		l0.6,0.1L302.4,226.6z"/>
	<path id="DK" d="M259.4,150l-0.8,2l-1.5-1.4l-0.2-1l2.1-0.8L259.4,150z M256.9,147.8l-0.3,1l-0.4-0.3l-1,1.8l0.4,1.2l-0.9,0.4
		l-1.1-0.3l-0.6-1.4l0-2.6l0.2-0.7l0.4-0.8l1.2-0.2l0.5-0.7l1.1-0.7l0,1.4l-0.4,0.8l0.2,0.7L256.9,147.8z"/>
	<path id="DO" d="M139.9,216.3l0.2-0.3l1.1,0l0.8,0.4l0.4,0l0.3,0.5l0.8,0l0,0.4l0.6,0.1l0.7,0.5l-0.5,0.6l-0.7-0.3l-0.6,0.1
		l-0.5-0.1l-0.3,0.3l-0.5,0.1l-0.2-0.4l-0.5,0.2l-0.6,1l-0.4-0.2l-0.1-0.4l0-0.4l-0.4-0.4l0.3-0.3l0.1-0.6L139.9,216.3z"/>
	<path id="DZ" d="M258.4,210.6l-4.8,2.9l-4.1,3l-2,0.7l-1.6,0.1l0-0.9l-0.7-0.2l-0.9-0.4L244,215l-4.8-3.3l-4.8-3.4l-5.3-3.8l0-0.3
		l0-0.1l0-1.9l2.3-1.2l1.4-0.2l1.2-0.4l0.5-0.8l1.7-0.6l0.1-1.2l0.8-0.1l0.6-0.6l1.9-0.3l0.3-0.6l-0.4-0.4l-0.5-1.8l-0.1-1l-0.5-1.1
		l1.4-0.9l1.5-0.3l0.9-0.7l1.4-0.5l2.4-0.3l2.3-0.1l0.7,0.3l1.3-0.7l1.5,0l0.6,0.4l1-0.1l-0.3,0.9l0.2,1.7l-0.3,1.4l-0.9,1l0.1,1.3
		l1.2,1l0,0.4l0.9,0.7l0.6,3l0.5,1.4l0.1,0.7l-0.2,1.3l0.1,0.7l-0.2,0.9l0.1,1l-0.6,0.7l0.8,1.1l0.1,0.7l0.5,0.9l0.7-0.3l1.1,0.7
		L258.4,210.6z"/>
	<path id="EC" d="M127.8,249.4l0.8-1.1l-0.3-0.6l-0.5,0.7l-0.8-0.6l0.3-0.4l-0.2-1.3l0.5-0.2l0.3-0.9l0.5-0.9l-0.1-0.6l0.8-0.3
		l1-0.6l1.4,0.8l0.3,0l0.3,0.6l1.2,0.2l0.4-0.2l0.7,0.5l0.6,0.3l0.2,1.1l-0.4,0.9l-1.5,1.5l-1.7,0.6l-0.9,1.2l-0.3,1l-0.8,0.6
		l-0.6-0.7l-0.6-0.2l-0.6,0.1l0-0.5l0.4-0.3L127.8,249.4z"/>
	<path id="EE" d="M275.8,144.3l0.2-1.6l-0.5,0.3l-0.9-1l-0.1-1.6l1.8-0.8l1.8-0.4l1.5,0.5l1.5-0.1l0.2,0.5l-1,1.6l0.4,2.5l-0.6,0.8
		l-1.2,0l-1.2-1l-0.6-0.3L275.8,144.3z"/>
	<path id="EG" d="M290.8,201.2l-0.4,0.6l-0.3,1.2l-0.4,0.8l-0.3,0.3l-0.5-0.5l-0.6-0.7l-1-2.3l-0.1,0.1l0.6,1.7l0.9,1.6l1.1,2.5
		l0.5,0.9l0.5,0.9l1.3,1.7l-0.3,0.3l0,1l1.6,1.4l0.2,0.3H288h-5.5h-5.7v-5.7v-5.6l-0.4-1.3l0.4-1l-0.2-0.7l0.5-0.8l1.9,0l1.4,0.4
		l1.4,0.5l0.7,0.3l1.1-0.5l0.6-0.5l1.2-0.1l1,0.2l0.4,0.8l0.3-0.5l1.1,0.4l1.1,0.1l0.7-0.4L290.8,201.2z"/>
	<path id="ER" d="M301.4,226.8l-0.5-0.5l-0.6-0.8l-0.6-0.5l-0.4-0.5l-1.2-0.6l-1,0l-0.3-0.3l-0.8,0.3l-0.9-0.7l-0.4,1.1l-1.6-0.3
		l-0.2-0.6l0.6-2.1l0.1-1l0.4-0.5l1-0.2l0.7-0.8l0.8,1.7l0.4,1.3l0.8,0.7l1.9,1.4l0.8,0.8l0.8,0.8l0.4,0.5l0.7,0.4L302,227
		L301.4,226.8z"/>
	<path id="ES" d="M228.6,179.6l0.1-1.4l-0.6-0.8l2-1.4l1.7,0.4l1.9,0l1.5,0.3l1.2-0.1l2.3,0.1l0.6,0.8l2.6,0.9l0.5-0.4l1.6,0.9
		l1.6-0.2l0.1,1.1l-1.3,1.3l-1.8,0.4l-0.1,0.6l-0.9,1l-0.5,1.5l0.6,1l-0.8,0.8l-0.3,1.2l-1.1,0.4l-1,1.4l-1.8,0l-1.3,0l-0.9,0.6
		l-0.5,0.7l-0.7-0.1l-0.5-0.6l-0.4-1l-1.3-0.3l-0.1-0.6l0.5-0.7l0.2-0.5l-0.5-0.5l0.4-1.2l-0.6-1.1l0.6-0.2l0.1-0.9l0.2-0.3l0-1.5
		l0.7-0.5l-0.4-0.9l-0.8-0.1l-0.2,0.2l-0.8,0l-0.4-0.9l-0.6,0.3L228.6,179.6z"/>
	<path id="ET" d="M295.1,223.3l0.9,0.7l0.8-0.3l0.3,0.3l1,0l1.2,0.6l0.4,0.5l0.6,0.5l0.6,0.8l0.5,0.5l-0.5,0.6l-0.5,0.7l0.1,0.4
		l0,0.4l0.8,0l0.3-0.1l0.3,0.3l-0.3,0.5l0.5,0.8l0.5,0.7l0.5,0.5l4.6,1.7l1.2,0l-4,4.2l-1.8,0.1l-1.3,1l-0.9,0l-0.4,0.4l-1,0
		l-0.6-0.5l-1.3,0.6l-0.4,0.6l-0.9-0.1l-0.3-0.2l-0.3,0l-0.4,0l-1.8-1.2h-1l-0.5-0.5v-0.8l-0.7-0.2l-0.8-1.5l-0.6-0.3l-0.2-0.6
		l-0.7-0.7l-0.9-0.1l0.5-0.8l0.8,0l0.2-0.4l0-1.3l0.4-1.5l0.7-0.4l0.1-0.6l0.6-1.1l0.9-0.7l0.6-1.4l0.2-1.2l1.6,0.3L295.1,223.3z"/>
	<path id="FK" d="M154.8,330.3l1.7-1.4l1.2,0.6l0.8-0.9l1.1,1l-0.4,0.8l-1.9,0.7l-0.6-0.8l-1.2,1L154.8,330.3z"/>
	<path id="FI" d="M281.9,108.2l-0.2,2.7l2.2,2.5l-1.3,2.8l1.6,4l-1,2.9l1.3,2.5l-0.6,2.1l2.1,2.1l-0.5,1.6l-1.3,1.7l-3,3.7l-2.6,0.2
		l-2.5,1l-2.3,0.6l-0.8-1.5l-1.4-0.9l0.3-2.9l-0.7-2.7l0.7-1.8l1.3-2l3.2-3.5l0.9-0.7l-0.1-1.4l-2-1.6l-0.5-1.4l0-5.6l-2.2-2.6
		l-1.9-1.9l0.8-1.1l1.6,2.1l1.8-0.2l1.5,0.9l1.3-1.7l0.7-3l2.2-1.4l1.8,1.6L281.9,108.2z"/>
	<path id="FJ" d="M496.4,267.4l-0.2,0.7l-0.1,0.1l-0.9,0.4l-0.9,0.3l-0.2-0.5l0.7-0.3l0.4-0.1l0.8-0.5L496.4,267.4z M493.5,269.6
		l-0.6-0.2l-0.5,0.5l0.1,0.7l0.8,0.2l0.9-0.2l0.2-0.8l-0.5-0.4L493.5,269.6z"/>
	<path id="FR" d="M255,179.1l-0.5,1.5l-0.6-0.4l-0.3-1.3l0.3-0.7l0.9-0.7L255,179.1z M246.5,162.2l1,1l0.7-0.2l1.2,1l0.3,0.2l0.4,0
		l0.7,0.6l2,0.4l-0.7,1.5l-0.2,1.5l-0.4,0.4l-0.6-0.2l0,0.5l-1,1.2l0,0.9l0.7-0.3l0.5,0.9l-0.1,0.6l0.4,0.8l-0.5,0.6l0.4,1.5
		l0.8,0.2l-0.2,0.8l-1.3,1.1l-2.8-0.5l-2.1,0.6l-0.2,1.2l-1.6,0.2l-1.6-0.9l-0.5,0.4l-2.6-0.9l-0.6-0.8l0.7-1.2l0.3-4l-1.5-2.2
		l-1-1.1l-2.2-0.8l-0.1-1.5l1.8-0.5l2.4,0.6l-0.4-2.4l1.3,0.9l3.3-1.7l0.4-1.8l1.2-0.5l0.2,0.8l0.7,0L246.5,162.2z"/>
	<path id="GA" d="M257.1,250.2l-1.5-1.4l-0.9-1.2l-0.9-1.5l0-0.5l0.3-0.4l0.3-1l0.3-1l0.5-0.1l2.1,0l0-1.7l0.7-0.1l0.9,0.2l0.8-0.2
		l0.2,0.1l-0.1,0.6l0.4,0.7l1.1-0.1l0.4,0.3l-0.6,1.6l0.7,0.8l0.2,1.1l-0.2,0.9l-0.4,0.7L260,248l-0.8-0.7l-0.1,0.6l-1,0.2l-0.5,0.4
		l0.5,0.9L257.1,250.2z"/>
	<path id="GB" d="M233.4,152.6l-0.8,1.7l-1.1-0.5l-0.9,0l0.3-1.3l-0.3-1.3l1.2-0.1L233.4,152.6z M237.2,142.1l-1.5,2.9l1.4-0.4
		l1.6,0l-0.4,2.1L237,149l1.5,0.2l0.1,0.3l1.3,2.9l1,0.4l0.9,2.7l0.4,0.9l1.7,0.4l-0.2,1.5l-0.7,0.7l0.6,1.2l-1.3,1.2l-1.9,0
		l-2.4,0.6l-0.7-0.4l-0.9,1l-1.3-0.3l-1,0.8l-0.8-0.4l2.1-2.3l1.3-0.5l0,0l-2.2-0.4l-0.4-0.9l1.5-0.7l-0.8-1.3l0.3-1.5l2.1,0.2h0
		l0.2-1.4l-0.9-1.5l0,0l-1.7-0.4l-0.3-0.7l0.5-1.1l-0.5-0.7l-0.8,1.2l-0.1-2.4l-0.7-1.3l0.5-2.7l1.1-2.2l1.1,0.2L237.2,142.1z"/>
	<path id="GE" d="M300.2,180.2l0.2-0.8l-0.4-1.3l-0.8-0.7l-0.8-0.2l-0.5-0.6l0.2-0.2l1.2,0.3l2.1,0.3l1.9,0.9l0.2,0.4l0.9-0.3
		l1.3,0.4l0.4,0.8l0.9,0.4l-0.4,0.3l0.7,1l-0.2,0.2l-0.8-0.1l-1.1-0.5l-0.3,0.3l-2,0.3l-1.4-0.9L300.2,180.2z"/>
	<path id="GF" d="M167,241.1l-0.5,0.5l-0.7,0.1l-0.2-0.4l-0.3-0.1l-0.4,0.4l-0.6-0.3l0.4-0.6l0.1-0.6l0.2-0.6l-0.5-0.8l-0.1-1
		l0.7-1.2l0.5,0.2l1,0.3l1.5,1.2l0.2,0.6l-0.8,1.3L167,241.1z"/>
	<path id="GH" d="M242.9,236.3l-2.2,0.8l-0.8,0.5l-1.3,0.4l-1.3-0.4l0.1-0.6l-0.6-1.2l0.4-1.6l0.6-1.2l-0.4-2l-0.2-1.1l0-0.8
		l2.5-0.1l0.6,0.1l0.5-0.2l0.7,0.1l-0.1,0.4l0.6,0.7l0,1l0.1,1.1l0.4,0.5l-0.3,1.3l0.1,0.7l0.4,0.9L242.9,236.3z"/>
	<path id="GL" d="M175.2,22.8l4.8-6.9l5,0.5l1.8-4.5l5-1.2l11.3,1.6l8.9,9.4l-2.6,4.2l-5.4,0.5l-7.6,1l0.7,1.8l5-1.1l4.3,3.5
		l2.7-3.1l1.2,3.6l-1.6,5.5l3.6-3.5l6.9-3.8l4.2,1.9l0.8,4.1l-5.8,6.4l-0.8,2l-4.5,1.4l3.3,0.4l-1.7,5.8l-1.1,4.8l0,7.7l1.7,4.2
		l-2.2,0.3l-2.3,2l2.6,3.2l0.3,4.9l-1.5,0.5l1.8,4.6l-3.1,0.4l1.6,2.1l-0.5,1.8l-2,0.8l-2,0l1.8,3.3l0,2.1l-2.8-1.9l-0.7,1.3
		l1.9,1.2l1.9,2.8l0.5,3.5l-2.5,0.8l-1.1-1.6l-1.7-2.5l0.5,3l-1.6,2.2l3.7,0.2l2,0.2l-3.8,3.5l-3.8,3.1l-4.1,1.3l-1.6,0l-1.5,1.4
		l-2,3.9l-3,2.5l-1,0.1l-1.9,0.8l-2,0.8l-1.2,2.1l0,2.3l-0.7,2.1l-2.3,2.5l0.6,2.4l-0.6,2.4L180,138l-2,0.2l-2.1-2.3l-2.8,0
		l-1.4-1.6l-0.9-2.9l-2.5-3.9l-0.7-2.1l-0.2-3l-2-3.2l0.5-2.6l-0.9-1.3l1.4-4.4l2.1-1.4l0.6-1.6l0.3-3.2l-1.6,1.4l-0.8,0.6l-1.3,0.6
		L164,106l-0.1-2.8l0.6-2.3l1.3-0.1l2.9,1.1l-2.4-2.7l-1.3-1.5l-1.4,0.6l-1.2-1.1L164,93l-0.9-1.8l-1.1-3.4l-1.7-5.5l-1.8-2.1l0-2.3
		l-3.8-3.4l-3-0.4l-3.8,0.2l-3.5,0.4l-1.6-1.9l-2.5-3.9l3.7-2l2.8-0.3l-6.1-1.7l-3.2-2.7l0.2-2.7l5.4-3.5l5.2-3.6l0.5-2.8l-3.8-2.9
		l1.2-3.4l4.9-6.2l2.1-1l-0.6-4.3l3.4-2.6l4.4-1.6l4.3-0.1l1.5,3.2l3.8-5.7l3.4,3.9l2,0.8l2.9,3.2l-3.4-5.4L175.2,22.8z"/>
	<path id="GM" d="M217.6,226l0.2-0.6l1.5,0l0.3-0.3l0.4,0l0.6,0.4l0.4,0l0.5-0.2l0.3,0.4l-0.6,0.3l-0.6,0l-0.6-0.3l-0.5,0.3l-0.3,0
		l-0.3,0.2L217.6,226z"/>
	<path id="GN" d="M229.5,233.8l-0.4,0l-0.3,0.6l-0.4,0l-0.3-0.3l0.1-0.6l-0.6-0.9l-0.4,0.2l-0.3,0l-0.4,0.1l0-0.5l-0.2-0.4l0-0.4
		l-0.3-0.6l-0.4-0.5l-1.1,0l-0.3,0.3l-0.4,0l-0.2,0.3l-0.2,0.4l-0.8,0.6l-0.6-0.8l-0.6-0.6l-0.4-0.2l-0.4-0.3l-0.2-0.6l-0.2-0.3
		L220,229l0.6-0.7l0.4,0l0.4-0.2l0.3,0l0.2-0.2l-0.1-0.5l0.2-0.2l0-0.5l0.7,0l1,0.4l0.3,0l0.1-0.2l0.8,0.1l0.2-0.1l0.1,0.5l0.2,0
		l0.4-0.2l0.2,0l0.4,0.4l0.6,0.1l0.4-0.3l0.5-0.2l0.3-0.2l0.3,0l0.3,0.3l0.2,0.4l0.6,0.6l-0.3,0.4l-0.1,0.5l0.3-0.1l0.2,0.2
		l-0.1,0.4l0.4,0.4l-0.3,0.1l-0.1,0.5l0.3,0.6l0.3,1.1l-0.5,0.2l-0.1,0.2l0.1,0.3l-0.1,0.6L229.5,233.8z"/>
	<path id="GQ" d="M254.9,243.2l-0.3-0.2l0.5-1.6l2.3,0l0,1.7l-2.1,0L254.9,243.2z"/>
	<path id="GR" d="M275,190.8l0.8,0.6l1.1-0.1l1.1,0.1l0,0.3l0.8-0.2l-0.2,0.5l-2,0.1l0-0.3l-1.7-0.3L275,190.8z M279.1,180.2
		l-0.4,1.2l-0.3,0.2l-0.9-0.1l-0.7-0.2l-1.7,0.5l1,1l-0.7,0.3l-0.8,0l-0.7-1l-0.3,0.4l0.3,1.1l0.7,0.9l-0.5,0.4l0.8,0.8l0.7,0.5l0,1
		l-0.7-0.6l-0.6,0.1l0.4,0.9l-0.5,0.1l-0.5-0.4l0.6,2l-0.3,0l-0.2-0.6l-0.3,0l-0.1,0.7l-0.2-0.2l0.1-0.4l-0.3-0.5h-0.3l0.1,0.4
		l-0.1,0.1l-0.3-0.3l-0.2-0.5l0.3-0.3l-0.2-0.4l-0.2-0.2l-0.2,0l-0.2-0.5l0.3-0.3l0.2-0.2l0.3,0.1l0.1-0.2l0.3-0.1l0.3,0.2l0.3,0.1
		l0.2-0.3l-0.5,0l-0.3-0.1l-0.6,0.1l-0.6,0l-0.6-0.8l-0.1-0.1l0.1-0.3l-0.7-0.6l-0.1-0.5l0.7-0.9l0.1-0.6l0.5-0.3l0-0.5l0.9-0.2
		l0.5-0.4l0.8,0l0.2-0.3l0.3-0.1l1,0.1l1.1-0.5l1,0.7l1.3-0.2l0-0.9L279.1,180.2z"/>
	<path id="GT" d="M113.9,225.1l-0.7-0.3l-0.9,0l-0.6-0.3l-0.8-0.6l0-0.4l0.2-0.3l-0.2-0.3l0.7-1.2l1.8,0l0-0.5l-0.2-0.1l-0.2-0.3
		l-0.5-0.3L112,220l0.6,0l0-0.8l1.3,0l1.3,0l0,1.2l-0.1,1.7l0.4,0l0.5,0.3l0.1-0.2l0.4,0.2l-0.6,0.6l-0.7,0.4l-0.1,0.3l0.1,0.3
		l-0.3,0.4l-0.3,0.1l0.1,0.2l-0.3,0.2l-0.5,0.4L113.9,225.1z"/>
	<path id="GW" d="M220,229l-0.8-0.6l-0.6-0.1l-0.3-0.4l0-0.2l-0.4-0.3l-0.1-0.3l0.7-0.2l0.5,0l0.4-0.2l2.6,0.1l0,0.5l-0.2,0.2
		l0.1,0.5l-0.2,0.2l-0.3,0l-0.4,0.2l-0.4,0L220,229z"/>
	<path id="GY" d="M156.9,232.8l0.9,0.5l0.9,0.9l0,0.7l0.5,0l0.8,0.7l0.6,0.5l-0.2,1.3l-0.9,0.4l0.1,0.3l-0.3,0.7l0.6,1l0.5,0
		l0.2,0.8l0.9,1.2l-0.3,0.1l-0.8-0.1l-0.5,0.4l-0.6,0.2l-0.4,0.1l-0.2,0.3l-0.7-0.1l-0.9-0.7l-0.1-0.7l-0.4-0.7l0.2-1.2l0.4-0.5
		l-0.3-0.7l-0.5-0.2l0.2-0.6l-0.3-0.3l-0.7,0.1l-1-1.1l0.4-0.4l0-0.7l0.9-0.2l0.4-0.3l-0.5-0.5l0.1-0.5L156.9,232.8z"/>
	<path id="HN" d="M117.9,226.2l-0.2-0.5l-0.4-0.1l0.1-0.6l-0.2-0.2l-0.3-0.1l-0.6,0.2l-0.1-0.2l-0.4-0.2l-0.3-0.3l-0.4-0.1l0.3-0.4
		l-0.1-0.3l0.1-0.3l0.7-0.4l0.6-0.6l0.1,0.1l0.3-0.3l0.4,0l0.1,0.1l0.2-0.1l0.7,0.1l0.7,0l0.5-0.2l0.2-0.2l0.5,0.1l0.3,0.1l0.4,0
		l0.3-0.1l0.6,0.2l0.2,0l0.4,0.3l0.4,0.3l0.5,0.2l0.4,0.4l-0.5,0l-0.2,0.2l-0.5,0.2l-0.4,0l-0.3,0.2l-0.3-0.1l-0.2-0.2l-0.1,0
		l-0.2,0.3l-0.1,0l0,0.3l-0.5,0.4l-0.3,0.2L120,225l-0.4-0.3l-0.3,0.4l-0.3,0l-0.3,0l0,0.7l-0.2,0l-0.2,0.3L117.9,226.2z"/>
	<path id="HR" d="M268.1,171.7l0.3,0.8l0.4,0.6l-0.5,0.8l-0.6-0.4l-1,0l-1.2-0.3l-0.7,0l-0.3,0.4l-0.5-0.5l-0.3,0.8l0.7,0.9l0.3,0.6
		l0.7,0.7l0.5,0.4l0.5,0.8l1.3,0.7l-0.2,0.3l-1.3-0.7l-0.8-0.7l-1.3-0.6l-1.2-1.4l0.3-0.1l-0.6-0.8l0-0.7l-0.9-0.3l-0.4,0.9
		l-0.4-0.7l0-0.7l0.1,0l1,0.1l0.3-0.3l0.5,0.3l0.6,0l0-0.6l0.5-0.2l0.1-0.8l1.1-0.5l0.4,0.3l1.1,0.9l1.2,0.4L268.1,171.7z"/>
	<path id="HT" d="M137.8,216l0.9,0.1l1.2,0.2l0.1,0.8l-0.1,0.6l-0.3,0.3l0.4,0.4l0,0.4l-0.9-0.3l-0.7,0.1l-0.9-0.1l-0.7,0.3
		l-0.8-0.5l0.1-0.5l1.3,0.2l1.1,0.1l0.5-0.3l-0.6-0.6l0-0.6l-0.9-0.2L137.8,216z"/>
	<path id="HU" d="M264.4,169.8l0.5-1.3l-0.3-0.5l0.8,0l0.1-0.9l0.7,0.5l0.5,0.2l1.2-0.3l0.1-0.4l0.6-0.1l0.7-0.3l0.2,0.1l0.7-0.3
		l0.3-0.5l0.5-0.1l1.5,0.6l0.3-0.2l0.8,0.6l0.1,0.6l-0.9,0.4l-0.7,1.4l-0.9,1.4l-1.1,0.4l-0.9-0.1l-1.1,0.5l-0.5,0.3l-1.2-0.4
		l-1.1-0.9l-0.4-0.3l-0.3-0.7L264.4,169.8z"/>
	<path id="ID" d="M412.3,259.1l-0.6,0l-1.9-1l1.3-0.3l0.7,0.4l0.5,0.4L412.3,259.1z M417.5,258.9l-1.2,0.3l-0.2-0.2l0.1-0.5l0.6-0.9
		l1.4-0.6l0.1,0.3l0,0.4L417.5,258.9z M408.3,256l0.5,0.4l0.9-0.1l0.4,0.6l-1.6,0.3l-1,0.2l-0.8,0l0.5-0.8l0.8,0L408.3,256z
		 M415.4,256l-0.2,0.8l-2.1,0.4l-1.9-0.2l0-0.5l1.1-0.3l0.9,0.4l0.9-0.1L415.4,256z M395.1,254.2l2.7,0.1l0.3-0.6l2.6,0.7l0.5,0.9
		l2.1,0.3l1.7,0.8l-1.6,0.5l-1.6-0.6l-1.3,0l-1.5-0.1l-1.3-0.3l-1.6-0.5l-1-0.1l-0.6,0.2l-2.6-0.6l-0.2-0.6l-1.3-0.1l1-1.4l1.7,0.1
		l1.1,0.6l0.6,0.1L395.1,254.2z M432.1,253.4l-0.7,1l-0.1-1.1l0.3-0.5l0.3-0.5l0.3,0.4L432.1,253.4z M421.5,249.5l-0.5,0.5l-1-0.3
		l-0.3-0.6l1.4-0.1L421.5,249.5z M426.1,249l0.5,1.1l-1.2-0.6l-1.2-0.1l-0.8,0.1l-1,0l0.3-0.8l1.7-0.1L426.1,249z M431.3,246.2
		l0.4,2.3l1.5,0.8l1.2-1.5l1.6-0.8l1.3,0l1.2,0.5l1,0.5l1.5,0.3l0,4.6l0,4.6l-1.3-1.2l-1.4-0.3l-0.3,0.4l-1.8,0l0.6-1.2l0.9-0.4
		l-0.4-1.5l-0.7-1.2l-2.7-1.2l-1.2-0.1l-2.1-1.3l-0.4,0.7l-0.5,0.1l-0.3-0.5l0-0.6l-1.1-0.7l1.5-0.5l1,0l-0.1-0.4l-2.1,0l-0.6-0.8
		l-1.3-0.3l-0.6-0.7l1.9-0.3l0.7-0.5l2.3,0.6L431.3,246.2z M418.7,242.6l-1.1,1.4l-1.1,0.3l-1.4-0.3l-2.4,0.1l-1.2,0.2l-0.2,1.1
		l1.3,1.3l0.8-0.6l2.6-0.5l-0.1,0.6l-0.6-0.2l-0.6,0.8l-1.2,0.5l1.3,1.8l-0.3,0.5l1.3,1.6l0,0.9l-0.8,0.4l-0.6-0.5l0.7-1.2l-1.4,0.5
		l-0.4-0.4l0.2-0.5l-1-0.8l0.1-1.4l-0.9,0.4l0.1,1.6l0.1,2l-0.9,0.2l-0.6-0.4l0.4-1.3l-0.2-1.4l-0.6,0l-0.4-1l0.6-0.9l0.2-1.1
		l0.7-2.1l0.3-0.6l1.2-1l1.1,0.4l1.8,0.2l1.6-0.1l1.4-1L418.7,242.6z M423.5,243l-0.1,1.2l-0.7-0.1l-0.2,0.9l0.6,0.7l-0.4,0.2
		l-0.6-0.9l-0.4-1.8l0.3-1.1l0.5-0.5l0.1,0.8l0.8,0.1L423.5,243z M408.2,242l1.6,1.3l-1.7,0.2l-0.5,1l0.1,1.3l-1.4,1l0,1.4l-0.5,2.2
		l-0.2-0.5l-1.6,0.6l-0.6-0.9l-1-0.1l-0.7-0.5l-1.7,0.5l-0.5-0.7l-0.9,0.1l-1.2-0.2l-0.2-1.9l-0.7-0.4l-0.7-1.2l-0.2-1.2l0.2-1.3
		l0.8-0.9l0.2,0.9l1,0.8l0.9-0.3l0.9,0.1l0.8-0.7l0.7-0.1l1.3,0.4l1.2-0.3l0.7-2l0.5-0.5l0.5-1.6l1.6,0l1.2,0.2l-0.8,1.3l1,1.3
		L408.2,242z M391.2,252.9l-1.6,0l-1.2-1.2l-1.8-1.2l-0.6-0.9l-1.1-1.1l-0.7-1.1l-1.1-2l-1.2-1.2l-0.4-1.2L381,242l-1.3-0.9
		l-0.7-1.2l-1.1-0.8l-1.5-1.6l-0.1-0.7l0.9,0.1l2.2,0.3l1.3,1.4l1.1,1l0.8,0.6l1.3,1.5l1.4,0l1.2,1l0.8,1.2l1.1,0.6l-0.6,1.1
		l0.8,0.5l0.5,0l0.2,1l0.5,0.8l1,0.1l0.7,0.9l-0.4,1.8L391.2,252.9z"/>
	<path id="IE" d="M232.7,154.2l0.2,1.7l-1.1,2.1l-2.5,1.4l-2-0.3l1.1-2.4l-0.7-2.4l1.9-1.9l1.1-1.1l0.3,1.3l-0.3,1.3l0.9,0
		L232.7,154.2z"/>
	<path id="IL" d="M292,195.9l-0.2,0.5l-0.5-0.2l-0.3,1.1l0.4,0.2l-0.4,0.2l-0.1,0.4l0.7-0.2l0,0.6l-0.7,2.6l-0.9-2.8l0.4-0.5
		l-0.1-0.1l0.4-0.8l0.3-1.3l0.2-0.4l0,0l0.5,0l0.1-0.3l0.4,0l0,0.7L292,195.9L292,195.9z"/>
	<path id="IN" d="M351.6,191.1l1.2-0.6l0.8-0.2l0.9,0.3l0.5,0.4l-0.3,1.2l-0.9,1.3l-0.5,0l-0.1,0.1l0.2,0.6l-0.2,0l0,0.4l0.3,0.2
		l0.4,0l0,0.6l0.3,0.3l-0.1,0.2l-0.3,0.2l-0.2,0l-1-0.2l0.4,1.8l1.4,1l2,1.1l-0.9,0.7l-0.5,1.5l1.4,0.6l1.3,0.8l1.8,0.9l1.9,0.2
		l0.8,0.8l1.1,0.1l1.7,0.4l1.2,0l0.2-0.6l-0.2-1l0.1-0.7l0.9-0.3l0.1,1.3l0,0.3l1.3,0.6l0.9-0.2l1.2,0.1l1.2,0l0.1-1l-0.6-0.5
		l1.1-0.2l1.3-1.2l1.6-1l1.2,0.4l1-0.7l0.7,1l-0.5,0.7l1.5,0.2l0.1,0.6l-0.5,0.3l0.1,1l-1-0.3l-1.8,1.1l0,0.9l-0.8,1.3l-0.1,0.8
		l-0.6,1.3l-1.1-0.4l-0.1,1.6l-0.3,0.5l0.1,0.6l-0.7,0.4l-0.7-2.4l-0.4,0l-0.2,1l-0.8-0.8l0.4-0.9l0.6-0.1l0.7-1.3l-0.8-0.3l-1.3,0
		l-1.3-0.2l-0.1-1.1l-0.7-0.1l-1.1-0.7l-0.5,1.1l1,0.8l-0.9,0.6l-0.3,0.6l0.9,0.4l-0.2,0.9l0.5,1.2l0.2,1.3l-0.2,0.6l-1,0l-1.7,0.3
		l0.1,1.1l-0.8,0.9l-2,1l-1.6,1.7l-1.1,0.9l-1.4,1l0,0.7l-0.7,0.4l-1.3,0.5l-0.7,0.1l-0.4,1.1l0.3,1.9l0.1,1.2l-0.6,1.4l0,2.4
		l-0.7,0.1l-0.6,1.1l0.4,0.5l-1.3,0.4l-0.5,1l-0.6,0.4l-1.3-1.3l-0.7-2l-0.5-1.4l-0.5-0.7l-0.8-1.4l-0.4-1.8l-0.2-0.9l-1.3-2
		l-0.6-2.8l-0.4-1.9l0-1.8l-0.3-1.4l-2.1,0.9l-1-0.2l-1.8-1.8l0.7-0.5l-0.4-0.6l-1.7-1.3l0.9-1l3.1,0l-0.3-1.3l-0.8-0.8l-0.2-1.2
		l-0.9-0.7l1.6-1.7l1.6,0.1l1.5-1.7l0.9-1.6l1.4-1.6l0-1.2l1.2-1l-1.1-0.8l-1.3-0.6l-0.3-2.4l0.3,0l0.1-0.3l0.4-0.1l0.2-0.4
		l-0.6-0.3l-0.8-0.6l-0.3-0.3l-0.4,0.1l-0.2-0.2l0-0.5l0.6-1l1.6-0.2l0.7-0.3l0.8-0.2l1,0.8l0.2,0.7l0.7,0.3l0.2,0.5L351.6,191.1z"
		/>
	<path id="IQ" d="M305.7,190.3l0.9,0.5l0.1,1l-0.7,0.6l-0.3,1.3l1,1.6l1.7,0.9l0.7,1.3l-0.2,1.2l0.5,0l0,0.9l0.8,0.9l-0.8-0.1
		l-1-0.1l-1,1.6l-2.6-0.1l-4-3.3l-2.1-1.2l-1.7-0.5l-0.6-2l3.1-1.8l0.5-2.1l-0.1-1.3l0.8-0.4l0.7-1.1l0.6-0.3l1.6,0.2l0.5,0.5
		l0.7-0.3L305.7,190.3z"/>
	<path id="IR" d="M317.7,188.2l1.2-0.3l1-1l0.9,0.1l0.6-0.3l1,0.2l1.6,0.9l1.1,0.2l1.6,1.6l1.1,0.1l0.1,1.5l-0.6,2.1l-0.4,1.2
		l0.6,0.2l-0.6,0.9l0.5,1.3l0.1,1.1l1.1,0.3l0.1,1.1l-1.3,1.5l0.7,0.9l0.6,1l1.4,0.7l0,1.4l0.7,0.3l0.1,0.7l-2,0.8l-0.5,1.8
		l-2.7-0.5l-1.5-0.4l-1.6-0.2l-0.6-1.9l-0.7-0.3l-1.1,0.3l-1.4,0.8l-1.7-0.5l-1.4-1.2l-1.4-0.5l-0.9-1.5l-1-2.2l-0.8,0.3l-0.9-0.5
		l-0.5,0.6l-0.8-0.9l0-0.9l-0.5,0l0.2-1.2l-0.7-1.3l-1.7-0.9l-1-1.6l0.3-1.3l0.7-0.6l-0.1-1l-0.9-0.5l-0.9-2.1l-0.8-1.4l0.3-0.6
		l-0.4-2.1l1-0.5l0.2,0.7l0.7,0.8l1,0.2l0.5-0.1l1.7-1.3l0.5-0.1l0.4,0.5l-0.5,0.9l0.9,0.9l0.4-0.1l0.4,1.3l1.3,0.4l1,0.9l2,0.3
		l2.2-0.5L317.7,188.2z"/>
	<path id="IS" d="M220.9,117.9l-0.3,2.3l1.6,2.3l-1.8,2.5l-4.1,2.2l-1.2,0.6l-1.9-0.5l-3.9-1l1.4-1.4l-3.1-1.6l2.5-0.6l-0.1-1
		l-3-0.8l1-2.3l2.1-0.5l2.2,2.4l2.2-1.9l1.8,1l2.3-1.9L220.9,117.9z"/>
	<path id="IT" d="M263.4,186.3l-0.5,1.4l0.2,0.5l-0.3,0.9l-1.1-0.7l-0.7-0.2l-2-0.9l0.2-0.9l1.7,0.2l1.4-0.2L263.4,186.3z
		 M254.5,180.9l0.8,1.3l-0.2,2.4l-0.6-0.1l-0.6,0.6l-0.5-0.5l-0.1-2.2l-0.3-1.1l0.8,0.1L254.5,180.9z M258.9,169.9l2,0.5l-0.2,1
		l0.3,0.9l-1.1-0.3l-1.2,0.7l0.1,1l-0.2,0.6l0.5,1l1.3,1l0.7,1.6l1.6,1.5l1.1,0l0.3,0.4l-0.4,0.4l1.3,0.7l1,0.6l1.2,1l0.1,0.3
		l-0.3,0.7l-0.8-0.9l-1.2-0.3l-0.6,1.2l1,0.7l-0.2,0.9l-0.6,0.1l-0.8,1.5l-0.6,0.1l0-0.5l0.3-1l0.3-0.4l-0.6-1.1l-0.4-0.9l-0.6-0.2
		l-0.4-0.8l-0.9-0.3l-0.6-0.8l-1-0.1l-1.1-0.8l-1.3-1.2l-1-1.1l-0.4-1.9l-0.7-0.2l-1.2-0.6l-0.7,0.3l-0.8,0.9l-0.6,0.1l0.2-0.8
		l-0.8-0.2l-0.4-1.5l0.5-0.6l-0.4-0.8l0.1-0.6l0.6,0.4l0.7-0.1l0.8-0.7l0.2,0.3l0.7-0.1l0.3-0.8l1,0.3l0.6-0.3l0.1-0.8l0.9,0.3
		l0.2-0.4l1.4-0.4L258.9,169.9z"/>
	<path id="JM" d="M131.6,218.1l1,0.1l0.8,0.4l0.2,0.4l-1,0l-0.4,0.2l-0.8-0.2l-0.8-0.5l0.2-0.3l0.6-0.1L131.6,218.1z"/>
	<path id="JO" d="M291.7,196.4l0.2-0.5l1.6,0.7l2.8-1.8l0.6,2l-0.3,0.3l-2.8,0.8l1.4,1.6l-0.5,0.3l-0.2,0.5l-1.1,0.2l-0.3,0.6
		l-0.6,0.5l-1.6-0.3l0-0.2l0.7-2.6l0-0.6l0.2-0.5L291.7,196.4z"/>
	<path id="JP" d="M432,193.4l0.2,0.6l-0.8,1l-0.6-0.5l-0.7,0.4l-0.4,1l-0.9-0.5l0-0.8l0.8-1l0.8,0.2l0.6-0.7L432,193.4z
		 M440.9,188.3l-0.5,1.4l0.2,0.9l-0.7,1.2l-1.8,0.8l-2.5,0.1l-2,1.9l-1-0.7l-0.1-1.3l-2.5,0.4l-1.7,0.8l-1.7,0l1.4,1.2l-0.9,2.8
		l-0.9,0.7l-0.7-0.6l0.3-1.5l-0.9-0.5l-0.6-1.2l1.3-0.5l0.7-1.1l1.4-0.9l1-1.2l2.8-0.5l1.5,0.4l1.5-3.1l0.9,0.8l2.1-1.8l0.8-0.7
		l0.9-2.2l-0.2-2.1l0.6-1.2l1.5-0.3l0.8,2.6l0,1.5l-1.3,1.8L440.9,188.3z M445.1,175.2l1,0.4l1-0.8l0.3,2.2l-2.1,0.5l-1.2,1.9
		l-2.2-1.3l-0.8,2.1l-1.6,0l-0.2-1.9l0.7-1.5l1.5-0.1l0.4-2.7l0.4-1.6l1.7,2.1L445.1,175.2z"/>
	<path id="KE" d="M299.4,245.8l0.8,1.2l-1,0.6l-0.3,0.6l-0.5,0.1l-0.2,1l-0.5,0.6l-0.3,0.9l-0.6,0.5l-2-1.4l-0.1-0.8l-5.1-2.9
		l-0.2-0.2l0-1.5l0.4-0.6l0.7-0.9l0.5-1l-0.6-1.6l-0.2-0.7l-0.7-1l0.9-0.8l1-0.9l0.7,0.2v0.8l0.5,0.5h1l1.8,1.2l0.4,0l0.3,0l0.3,0.2
		l0.9,0.1l0.4-0.6l1.3-0.6l0.6,0.5l1,0l-1.2,1.6L299.4,245.8z"/>
	<path id="KG" d="M341.8,178.9l0.3-0.8l0.9-0.3l2.3,0.7l0.2-1.1l0.8-0.4l2,0.8l0.5-0.2l2.3,0.1l2.1,0.2l0.7,0.7l0.9,0.3l-0.2,0.4
		l-2.2,1l-0.5,0.7l-1.8,0.2l-0.5,1.2l-1.5-0.2l-1,0.4l-1.4,0.9l0.2,0.4l-0.4,0.4l-2.7,0.3l-1.7-0.6l-1.5,0.1l0.1-1.1l1.5,0.3
		l0.5-0.6l1.1,0.2l1.8-1.3l-1.7-1l-1,0.5l-1-0.7l1.2-1.2L341.8,178.9z"/>
	<path id="KH" d="M387.9,229.6l-0.6-0.7l-0.7-1.5l-0.3-1.7l0.9-1.2l1.8-0.3l1.3,0.2l1.2,0.6l0.6-1l1.3,0.5l0.3,1l-0.2,1.7l-2.4,1.1
		l0.6,0.9l-1.5,0.1l-1.2,0.6L387.9,229.6z"/>
	<path id="KP" d="M426.3,178.6l0.2,0.3l-0.5-0.1l-0.6,0.6l-0.4,0.6l0.1,1.3l-0.7,0.4l-0.3,0.3l-0.5,0.5l-0.9,0.3l-0.6,0.5l0,0.8
		l-0.2,0.2l0.6,0.3l0.8,0.8l-0.2,0.4l-0.6,0.1l-1,0.1l-0.6,0.8l-0.6-0.1l-0.1,0.2l-0.7-0.3l-0.2,0.3l-0.4,0.1l0-0.3l-0.4-0.2
		l-0.4-0.3l0.4-0.8l0.3-0.2l-0.1-0.3l0.4-1l-0.1-0.3l-0.8-0.2l-0.7-0.5l1.2-1.2l1.6-1l1-1.3l0.7,0.6l1.2,0.1l-0.2-1l2.2-0.8l0.6-1.1
		L426.3,178.6z"/>
	<path id="KR" d="M423.1,185.6l1.2,2.1l0.4,1.1l0,2l-0.5,0.9l-1.3,0.3l-1.1,0.7l-1.3,0.1l-0.2-0.9l0.3-1.3l-0.6-1.8l1.1-0.3l-1-1.5
		l0.1-0.2l0.6,0.1l0.6-0.8l1-0.1l0.6-0.1L423.1,185.6z"/>
	<path id="XK" d="M270.8,179.3l-0.1,0.4l-0.2,0l-0.1-0.7l-0.3-0.2l-0.3-0.5l0.3-0.4l0.3-0.1l0.2-0.6l0.3-0.1l0.2,0.3l0.3,0.1
		l0.2,0.3l0.2,0.1l0.3,0.4l0.2,0l-0.2,0.5l-0.2,0.2l0,0.1l-0.3,0.1L270.8,179.3z"/>
	<path id="KW" d="M309.3,200.4l0.3,0.7l-0.1,0.4l0.5,1.2l-1,0l-0.4-0.8l-1.3-0.2l1-1.6L309.3,200.4z"/>
	<path id="KZ" d="M341.8,178.9l-0.8,0.4l-1.9,1.3l-0.6,1.3l-0.5,0l-0.4-0.9l-1.8-0.1l-0.3-1.5l-0.7,0l0.1-1.9l-1.7-1.4l-2.4,0.2
		l-1.7,0.3l-1.4-1.8l-1.2-0.7l-2.2-1.4l-0.3-0.2l-3.6,1.2l0.1,7.1l-0.7,0.1l-1-1.5l-1-0.5l-1.6,0.4l-0.6,0.6l-0.1-0.5l0.3-0.8
		l-0.3-0.7l-1.6-0.7l-0.6-1.7l-0.8-0.5l0-0.6l1.4,0.2l0.1-1.5l1.2-0.3l1.2,0.3l0.3-2l-0.3-1.3l-1.4,0.1l-1.2-0.5l-1.6,0.9l-1.3,0.4
		l-0.7-0.3l0.1-1.1l-0.9-1.4l-1.1,0.1l-1.2-1.4l0.8-1.6l-0.4-0.4l1.1-2.4l1.5,1.3l0.2-1.6l2.9-2.4l2.2-0.1l3.1,1.6l1.7,0.9l1.5-0.9
		l2.2,0l1.8,1.2l0.4-0.7l2,0.1l0.4-1.1l-2.3-1.6l1.4-1.1l-0.3-0.6l1.4-0.6l-1-1.6l0.6-0.8l5.3-0.8l0.7-0.6l3.5-0.9l1.3-1l2.5,0.5
		l0.4,2.5l1.5-0.6l1.8,0.8l-0.1,1.3l1.4-0.1l3.5-2.3l-0.5,0.8l1.8,1.8l3.2,5.8l0.8-1.2l1.9,1.3l2-0.6l0.8,0.4l0.7,1.3l1,0.4l0.6,0.9
		l1.8-0.3l0.8,1.3l-1.1,1.4l-1.2,0.2l-0.1,2.1l-0.8,0.9l-2.8-0.7l-1,3.7l-0.7,0.4l-2.8,0.8l1.3,3.4l-1,0.5l0.1,1.1l-0.9-0.3
		l-0.7-0.7l-2.1-0.2l-2.3-0.1l-0.5,0.2l-2-0.8l-0.8,0.4l-0.2,1.1l-2.3-0.7l-0.9,0.3L341.8,178.9z"/>
	<path id="LA" d="M390.3,224.3l0.5-0.7l0.1-1.2l-1.1-1.3l-0.1-1.5l-1.1-1.2l-1.1-0.1l-0.3,0.5l-0.8,0l-0.4-0.3l-1.5,0.9l0-1.3
		l0.3-1.6l-1-0.1l-0.1-0.9l-0.6-0.5l0.3-0.6l1.2-1l0.1,0.4l0.8,0l-0.2-1.7l0.7-0.2l0.8,1.2l0.6,1.4l1.7,0l0.5,1.3l-0.9,0.4l-0.4,0.5
		l1.7,0.9l1.2,1.7l0.9,1.3l1.1,1l0.4,1l-0.3,1.5l-1.3-0.5l-0.6,1L390.3,224.3z"/>
	<path id="LB" d="M292.1,194.9l-0.4,0l-0.1,0.3l-0.5,0l0.5-1.4l0.7-1.2l0-0.1l0.6,0.1l0.2,0.7l-0.8,0.6L292.1,194.9z"/>
	<path id="LK" d="M357.2,234l-0.2,1.5l-0.6,0.4l-1.2,0.3l-0.7-1.1l-0.3-2l0.6-2.3l1,0.8l0.7,1L357.2,234z"/>
	<path id="LR" d="M230.5,238.5l-0.4,0l-1.5-0.7l-1.3-1.1l-1.2-0.8l-1-0.9l0.3-0.5l0.1-0.4l0.6-0.8l0.7-0.7l0.3,0l0.4-0.2l0.6,0.9
		l-0.1,0.6l0.3,0.3l0.4,0l0.3-0.6l0.4,0l-0.1,0.4l0.1,0.7l-0.3,0.6l0.4,0.4l0.4,0.1l0.6,0.6l0,0.6l-0.1,0.2L230.5,238.5z"/>
	<path id="LS" d="M282.4,287.2l0.5,0.5l-0.4,0.8l-0.2,0.5l-0.8,0.3l-0.3,0.5l-0.5,0.2l-1.1-1.3l0.8-1l0.8-0.6l0.7-0.3L282.4,287.2z"
		/>
	<path id="LT" d="M273.6,153.1l-0.1-0.6l0.2-0.7l-0.6-0.4l-1.5-0.4l-0.3-2.1l1.6-0.8l2.4,0.2l1.4-0.3l0.2,0.5l0.8,0.2l1.4,1.2
		l0.1,1.1l-1.2,0.8l-0.3,1.4l-1.5,0.9l-1.4,0l-0.3-0.7L273.6,153.1z"/>
	<path id="LU" d="M250,162.8l0.3,0.5l-0.1,1l-0.4,0l-0.3-0.2l0.2-1.2L250,162.8z"/>
	<path id="LV" d="M271.2,148.9l0-1.9l0.7-1.6l1.3-0.9l1.1,2l1.1-0.1l0.3-2l1.2-0.5l0.6,0.3l1.2,1l1.2,0l0.7,0.6l0.1,1.3l0.5,1.5
		l-1.5,1l-0.9,0.4l-1.4-1.2l-0.8-0.2l-0.2-0.5l-1.4,0.3l-2.4-0.2L271.2,148.9z"/>
	<path id="LY" d="M262.4,211.6l-1,0.6l-0.8-0.8l-2.2-0.7l-0.6-1l-1.1-0.7l-0.7,0.3l-0.5-0.9l-0.1-0.7l-0.8-1.1l0.6-0.7l-0.1-1
		l0.2-0.9l-0.1-0.7l0.2-1.3l-0.1-0.7l-0.5-1.4l0.7-0.4l0.1-0.7l-0.2-0.7l1-0.6l0.4-0.5l0.7-0.5l0.1-1.3l1.7,0.6l0.6-0.1l1.2,0.3
		l1.9,0.7l0.7,1.5l1.3,0.3l2,0.7l1.5,0.8l0.7-0.4l0.7-0.8l-0.3-1.3l0.4-0.8l1-0.8l1-0.2l1.9,0.3l0.5,0.7l0.5,0l0.5,0.3l1.4,0.2
		l0.3,0.5l-0.5,0.8l0.2,0.7l-0.4,1l0.4,1.3v5.6v5.7v3l-1.6,0l0,0.6l-5.6-2.9l-5.6-2.9L262.4,211.6z"/>
	<path id="MA" d="M239.5,195.6l-0.5-1.8l-0.1-1l-0.5-1.1l-0.6,0l-1.5-0.4l-1.3,0.1l-0.9-0.7l-1,0l-0.4,1.1l-0.9,1.8l-1,0.7l-1.4,0.8
		l-0.9,1.1l-0.2,0.9l-0.5,1.4l0.4,2l-1.2,1.4l-0.7,0.4l-1.1,1.1l-1.3,0.2l-0.7,0.6l0,0l-0.9,1.6l-0.9,0.6l-0.5,1l0,0.8l-0.4,0.9
		l-0.5,0.2l-0.8,1l-0.5,1.1l0.1,0.5l-0.5,0.8l-0.5,0.4l-0.1,0.7l-0.1,0.6l0.3-0.5l5.5,0l-0.3-2.2l0.3-0.8l1.3-0.1l0-4l4.6,0.1l0-2.4
		l0-0.3l0-0.1l0-1.9l2.3-1.2l1.4-0.2l1.2-0.4l0.5-0.8l1.7-0.6l0.1-1.2l0.8-0.1l0.6-0.6l1.9-0.3l0.3-0.6L239.5,195.6z"/>
	<path id="MD" d="M279.1,166.9l0.3-0.3l0.9-0.2l1,0.7l0.6,0.1l0.6,0.6l-0.1,0.7l0.5,0.3l0.2,0.9l0.5,0.5l-0.1,0.3l0.3,0.2l-0.4,0.2
		l-0.8-0.1l-0.1-0.3l-0.3,0.2l0.1,0.4l-0.4,0.6l-0.2,0.7l-0.4,0.2l-0.3-0.9l0.1-0.9l0-0.9l-0.8-1.2l-0.4-0.9l-0.4-0.6L279.1,166.9z"
		/>
	<path id="ME" d="M269.4,178.4l-0.1-0.4l-0.6,0.9l0.1,0.6l-0.3-0.1l-0.4-0.6l-0.6-0.4l0.2-0.3l0.2-1.1l0.5-0.5l0.3-0.2l0.4,0.3
		l0.2,0.3l0.5,0.2l0.5,0.4l-0.1,0.2l-0.3,0.4L269.4,178.4z"/>
	<path id="MG" d="M311.5,262.3l0.4,0.6l0.4,1l0.2,1.7l0.4,0.7l-0.1,0.7l-0.3,0.4l-0.5-0.9l-0.3,0.4l0.3,1.1l-0.1,0.6l-0.4,0.3
		l-0.1,1.2l-0.6,1.7l-0.7,2.1l-0.9,2.9l-0.5,2.1l-0.6,1.8l-1.2,0.4l-1.2,0.7l-0.8-0.4l-1.1-0.6l-0.4-0.8l-0.1-1.4l-0.5-1.2l-0.1-1.1
		l0.3-1.1l0.7-0.3l0-0.5l0.7-1.1l0.1-1l-0.3-0.7l-0.3-0.9l-0.1-1.4l0.5-0.8l0.2-0.9l0.7-0.1l0.8-0.3l0.5-0.3l0.6,0l0.8-0.8l1.2-0.9
		l0.4-0.7l-0.2-0.6l0.6,0.2l0.8-1l0-0.9l0.5-0.6L311.5,262.3z"/>
	<path id="MK" d="M270.6,179.6l0.2,0l0.1-0.4l0.8-0.3l0.3-0.1l0.5-0.1l0.7,0l0.7,0.6l0.1,1.2l-0.3,0.1l-0.2,0.3l-0.8,0l-0.5,0.4
		l-0.9,0.2l-0.6-0.5l-0.2-0.8L270.6,179.6z"/>
	<path id="ML" d="M224.2,223.8l0.5-0.3l0.2-0.9l0.4,0l1,0.4l0.8-0.3l0.5,0.1l0.2-0.3l5.7,0l0.3-1l-0.2-0.2l-0.7-6.4l-0.7-6.6l2.2,0
		l4.8,3.4l4.8,3.3l0.3,0.7l0.9,0.4l0.7,0.2l0,0.9l1.6-0.1l0,3.4l-0.8,1l-0.1,0.9l-1.3,0.2l-1.9,0.1l-0.5,0.5l-0.9,0.1l-0.9,0
		l-0.4-0.3l-0.8,0.2l-1.3,0.6l-0.3,0.5l-1.1,0.6l-0.2,0.4l-0.6,0.3l-0.7-0.2l-0.4,0.4l-0.2,1L234,228l0,0.5l-0.4,0.6l0.1,0.8
		l-0.6,0.2l-0.3,0.2l-0.2-0.6l-0.4,0.2l-0.2,0l-0.3,0.4l-1.1,0l-0.4-0.2l-0.2,0.1l-0.4-0.4l0.1-0.4l-0.2-0.2l-0.3,0.1l0.1-0.5
		l0.3-0.4l-0.6-0.6l-0.2-0.4l-0.3-0.3l-0.3,0l-0.3,0.2l-0.5,0.2l-0.4,0.3l-0.6-0.1l-0.4-0.4l-0.2,0l-0.4,0.2l-0.2,0l-0.1-0.5
		l0.1-0.4l-0.1-0.6l-0.5-0.4l-0.3-0.8L224.2,223.8z"/>
	<path id="MM" d="M382.3,215.6l-0.8,0.6l-1,0.1l-0.6,1.6l-0.6,0.3l0.7,1.3l0.9,1.1l0.6,1l-0.5,1.3l-0.5,0.3l0.3,0.7l0.9,1.2l0.2,0.8
		l0,0.7l0.6,1.3l-0.8,1.3l-0.7,1.5l-0.1-1.1l0.4-1.1l-0.5-0.8l0.1-1.6l-0.6-0.7l-0.5-1.7l-0.3-1.8l-0.6-1.2l-0.9,0.7l-1.6,1
		l-0.8-0.1l-0.9-0.3l0.5-1.8l-0.3-1.4l-1.1-1.7l0.2-0.5l-0.8-0.2l-1-1.2l-0.1-1.2l0.5,0.2l0-1.1l0.7-0.4l-0.1-0.6l0.3-0.5l0.1-1.6
		l1.1,0.4l0.6-1.3l0.1-0.8l0.8-1.3l0-0.9l1.8-1.1l1,0.3l-0.1-1l0.5-0.3l-0.1-0.6l0.8-0.1l0.5,0.9l0.6,0.4l0,1.2l-0.1,1.3l-1.3,1.3
		l-0.2,1.8l1.5-0.3l0.3,1.4l0.9,0.3l-0.4,1.3l1.1,0.6l0.6,0.3l1-0.4l0,0.6l-1.2,1l-0.3,0.6L382.3,215.6z"/>
	<path id="MN" d="M365.6,164.6l1.5-0.4l2.7-1.9l2.2-1l1.2,0.7l1.5,0l0.9,1l1.4,0.1l2,0.6l1.4-1.5l-0.6-1.3l1.5-2.4l1.6,0.9l1.3,0.3
		l1.7,0.6l0.3,1.7l2,0.9l1.3-0.4l1.8-0.3l1.4,0.3l1.4,1.1l0.9,1.1l1.3,0l1.8,0.4l1.3-0.5l1.9-0.4l2.1-1.5l0.8,0.2l0.7,0.7l1.7-0.2
		l-0.7,1.6l-1,2.1l0.4,0.9l0.8-0.3l1.4,0.3l1.1-0.8l1.1,0.7l1.3,1.5l-0.2,0.7l-1.1-0.2l-2.1,0.3l-1,0.6l-1,1.3l-2.2,0.8l-1.4,1.1
		l-1.5-0.4l-0.8-0.2l-0.7,1.3l0.5,0.8l0.2,0.6l-1,0.7l-1,1l-1.7,0.7l-2.1,0.1l-2.3,0.7l-1.6,1l-0.6-0.6l-1.7,0l-2.1-1.2l-1.4-0.3
		l-1.9,0.3l-2.9-0.4l-1.6,0l-0.8-1.1l-0.6-1.8l-0.9-0.2l-1.7-1.2l-1.9-0.3l-1.7-0.3l-0.5-0.9l0.5-2.4l-1-1.7l-2-0.8l-1.2-1.1
		L365.6,164.6z"/>
	<path id="MR" d="M224.2,223.8l-0.9-1l-0.9-1.1l-0.9-0.4l-0.7-0.4l-0.8,0l-0.7,0.3l-0.7-0.1l-0.5,0.5l-0.1-0.8l0.4-0.7l0.2-1.4
		l-0.2-1.5l-0.2-0.7l0.1-0.7L218,215l-0.7-0.7l0.3-0.5l5.5,0l-0.3-2.2l0.3-0.8l1.3-0.1l0-4l4.6,0.1l0-2.4l5.3,3.8l-2.2,0l0.7,6.6
		l0.7,6.4l0.2,0.2l-0.3,1l-5.7,0l-0.2,0.3l-0.5-0.1l-0.8,0.3l-1-0.4l-0.4,0l-0.2,0.9L224.2,223.8z"/>
	<path id="MW" d="M290.3,260.9l-0.4,1.1l0.4,1.9l0.5,0l0.5,0.5l0.6,1l0.1,1.9l-0.6,0.3l-0.4,1l-0.9-0.9l-0.1-1l0.3-0.7l-0.1-0.6
		l-0.6-0.4l-0.4,0.1l-0.8-0.7l-0.7-0.4l0.4-1.3l0.4-0.5l-0.3-1.2l0.3-1.2l0.2-0.4l-0.4-1.2l-0.7-0.6l1.4,0.3l0.3,0.4l0.5,0.7
		L290.3,260.9z"/>
	<path id="MX" d="M104,206.9l-0.5,1.4l-0.2,1.1l-0.1,2.1l-0.1,0.7l0.2,0.8l0.4,0.7l0.3,1.2l0.9,1.1l0.3,0.9l0.6,0.7l1.5,0.4l0.6,0.6
		l1.2-0.4l1.1-0.1l1.1-0.3l0.9-0.3l0.9-0.6l0.3-0.9l0.1-1.3l0.2-0.4l1-0.4l1.5-0.4l1.3,0.1l0.9-0.1l0.3,0.3l0,0.7l-0.8,0.9l-0.3,0.9
		l0.3,0.3l-0.2,0.6l-0.4,1.2l-0.4-0.4l-0.3,0l-0.3,0l-0.5,0.9l-0.3-0.2l-0.2,0.1l0,0.2l-1.3,0l-1.3,0l0,0.8l-0.6,0l0.5,0.5l0.5,0.3
		l0.2,0.3l0.2,0.1l0,0.5l-1.8,0l-0.7,1.2l0.2,0.3l-0.2,0.3l0,0.4l-1.6-1.6l-0.7-0.5l-1.2-0.4l-0.8,0.1l-1.1,0.6l-0.7,0.1l-1-0.4
		l-1.1-0.3l-1.3-0.7l-1.1-0.2l-1.6-0.7l-1.2-0.7l-0.4-0.4l-0.8-0.1l-1.4-0.5l-0.6-0.7l-1.5-0.8l-0.7-0.9l-0.3-0.7l0.5-0.1l-0.1-0.4
		l0.3-0.4l0-0.5l-0.5-0.7l-0.1-0.6l-0.5-0.8l-1.2-1.5l-1.4-1.2l-0.7-1l-1.2-0.6l-0.3-0.4l0.2-1l-0.7-0.4l-0.8-0.8l-0.4-1.1l-0.8-0.1
		l-0.8-0.8l-0.7-0.8l-0.1-0.5l-0.8-1.2l-0.5-1.3l0-0.6l-1-0.7l-0.5,0.1l-0.8-0.5l-0.2,0.7l0.2,0.8l0.1,1.2l0.5,0.7l1.1,1.1l0.2,0.4
		l0.2,0.1l0.2,0.6l0.3,0l0.3,1l0.4,0.4l0.3,0.6l0.9,0.8l0.5,1.5l0.4,0.7l0.4,0.7l0.1,0.8l0.7,0.1l0.6,0.7l0.5,0.7l0,0.3l-0.6,0.6
		l-0.3,0l-0.4-0.9l-0.9-0.9l-1-0.7l-0.7-0.4l0-1.1l-0.2-0.8l-0.7-0.5l-1-0.7l-0.2,0.2l-0.4-0.4l-0.9-0.4l-0.8-0.9l0.1-0.1l0.6,0.1
		l0.5-0.6l0.1-0.7l-1.1-1.1l-0.8-0.4l-0.5-1l-0.5-1.1l-0.7-1.3l-0.6-1.5l1.6-0.1l1.8-0.2l-0.1,0.3l2.1,0.8l3.2,1.2l2.8,0l1.1,0
		l0-0.7l2.5,0l0.5,0.6l0.7,0.5l0.8,0.7l0.5,0.9l0.4,0.9l0.7,0.5l1.2,0.5l0.9-1.3l1.2,0l1,0.6l0.7,1.1l0.5,0.9l0.8,0.9l0.3,1.1
		l0.4,0.7l1.1,0.5l1,0.3L104,206.9z"/>
	<path id="MY" d="M384.5,235.9l0.1,0.7l0.9-0.2l0.5-0.6l0.3,0.1l0.8,0.9l0.6,0.9l0.1,0.9l-0.2,0.6l0.1,0.5l0.1,0.8l0.5,0.4l0.6,1.2
		l0,0.5l-1,0.1l-1.3-1l-1.7-1.1l-0.2-0.7l-0.8-0.9l-0.2-1.2l-0.5-0.8l0.2-1l-0.3-0.6l0.2-0.3L384.5,235.9z M409.3,238.3l-1,0.5
		l-1.2-0.2l-1.6,0l-0.5,1.6l-0.5,0.5l-0.7,2l-1.2,0.3l-1.3-0.4l-0.7,0.1l-0.8,0.7l-0.9-0.1l-0.9,0.3l-1-0.8l-0.2-0.9l1,0.5l1.1-0.3
		l0.3-1.2l0.6-0.3l1.7-0.3l1-1.1l0.7-0.9l0.6,0.7l0.3-0.5l0.7,0l0.1-0.9l0.1-0.7l1.1-1l0.7-1.1l0.6,0l0.7,0.7l0.1,0.6l0.9,0.4
		l1.2,0.4l-0.1,0.6l-0.9,0.1L409.3,238.3z"/>
	<path id="MZ" d="M290.3,260.9l1.1-0.1l1.7,0.4l0.4-0.2l1,0l0.5-0.4l0.8,0l1.5-0.6l1.1-0.8l0.2,0.6l-0.1,1.4l0.2,1.3l0.1,2.3
		l0.2,0.7l-0.4,1l-0.5,1l-0.9,0.9L296,269l-1.6,0.7l-1.6,1.6l-0.5,0.3l-1,1.1l-0.6,0.3l-0.1,1.1l0.7,1.1l0.3,0.9l0,0.5l0.2-0.1
		l0,1.5l-0.2,0.7l0.3,0.3l-0.2,0.6l-0.6,0.5l-1.2,0.5l-1.7,0.8l-0.6,0.6l0.1,0.7l0.4,0.1l-0.1,0.8l-1.1,0l-0.1-0.7l-0.2-0.7
		l-0.1-0.6l0.3-1.7l-0.4-1.1l-0.7-2.2l1.5-1.7l0.4-1.1l0.2-0.1l0.2-0.9l-0.2-0.4l0.1-1.1l0.3-1l0-1.9l-0.7-0.5l-0.7-0.1l-0.3-0.4
		l-0.7-0.3l-1.2,0l-0.1-0.5l-0.1-1l4.3-1.2l0.8,0.7l0.4-0.1l0.6,0.4l0.1,0.6l-0.3,0.7l0.1,1l0.9,0.9l0.4-1l0.6-0.3l-0.1-1.9l-0.6-1
		l-0.5-0.5l-0.5,0l-0.4-1.9L290.3,260.9z"/>
	<path id="NA" d="M264.6,286.6l-1.1-1.2l-0.6-1.2l-0.3-1.5l-0.3-1.1l-0.5-2.4l0-1.8l-0.2-0.8l-0.6-0.6l-0.7-1.2l-0.7-1.8l-0.3-0.9
		l-1.2-1.4l-0.1-1.1l0.7-0.3l0.8-0.3l0.9,0l0.8,0.7l0.2-0.1l5.7-0.1l1,0.7l3.4,0.2l2.6-0.6l1.2-0.3l0.9,0.1l0.6,0.3l0,0.1l-0.8,0.3
		l-0.4,0l-0.9,0.6l-0.5-0.6l-2.2,0.5l-1.1,0l0,5.3l-1.4,0.1l0,4.5l0,5.8l-1.3,0.8l-0.8,0.1l-0.9-0.3l-0.6-0.1l-0.2-0.7l-0.6-0.4
		L264.6,286.6z"/>
	<path id="NC" d="M476,274.9l1.2,0.9l0.7,0.7l-0.5,0.4l-0.8-0.4l-1-0.7l-0.9-0.8l-0.9-1.1l-0.2-0.5l0.6,0l0.8,0.5l0.6,0.5L476,274.9
		z"/>
	<path id="NE" d="M244.5,227.7l0-1l-1.6-0.3l0-0.7l-0.8-0.9l-0.2-0.7l0.1-0.7l0.9-0.1l0.5-0.5l1.9-0.1l1.3-0.2l0.1-0.9l0.8-1l0-3.4
		l2-0.7l4.1-3l4.8-2.9l2.2,0.7l0.8,0.8l1-0.6l0.3,2.4l0.5,0.4l0,0.5l0.6,0.5l-0.3,0.6l-0.5,3l-0.1,1.9l-1.8,1.4l-0.6,1.9l0.6,0.5
		l0,0.9l0.9,0l-0.1,0.7l-0.4,0.1l0,0.5l-0.3,0l-1-1.6l-0.3-0.1l-1.1,0.8l-1.1-0.4l-0.8-0.1l-0.4,0.2l-0.8,0l-0.8,0.6l-0.7,0
		l-1.7-0.7l-0.7,0.4l-0.7,0l-0.5-0.5l-1.4-0.5l-1.5,0.2l-0.4,0.3l-0.2,0.8l-0.4,0.6l-0.1,1.3l-1.1-0.8l-0.5,0L244.5,227.7z"/>
	<path id="NG" d="M253.5,237.9l-1.5,0.5l-0.5-0.1l-0.5,0.3l-1.1,0l-0.8-0.9l-0.5-1l-1-0.9l-1.1,0l-1.2,0l0.1-2.3l0-0.9l0.3-0.9
		l0.4-0.4l0.7-0.9l-0.1-0.4l0.3-0.6l-0.3-0.8l0.1-0.5l0.1-1.3l0.4-0.6l0.2-0.8l0.4-0.3l1.5-0.2l1.4,0.5l0.5,0.5l0.7,0l0.7-0.4
		l1.7,0.7l0.7,0l0.8-0.6l0.8,0l0.4-0.2l0.8,0.1l1.1,0.4l1.1-0.8l0.3,0.1l1,1.6l0.3,0l0.6,0.6l-0.2,0.3l-0.1,0.5l-1.2,1.1l-0.4,0.9
		l-0.2,0.7l-0.3,0.3l-0.3,1l-0.8,0.6l-0.2,0.7l-0.3,0.6l-0.1,0.6l-1,0.5l-0.8-0.6l-0.5,0l-0.8,0.8l-0.4,0l-0.7,1.4L253.5,237.9z"/>
	<path id="NI" d="M120.1,228.9l-0.5-0.5l-0.7-0.6l-0.3-0.5l-0.6-0.5l-0.7-0.7l0.2-0.2l0.2,0.2l0.1-0.1l0.4-0.1l0.2-0.3l0.2,0l0-0.7
		l0.3,0l0.3,0l0.3-0.4l0.4,0.3l0.1-0.2l0.3-0.2l0.5-0.4l0-0.3l0.1,0l0.2-0.3l0.1,0l0.2,0.2l0.3,0.1l0.3-0.2l0.4,0l0.5-0.2l0.2-0.2
		l0.5,0l-0.1,0.1l-0.1,0.3l0.1,0.5l-0.3,0.5l-0.2,0.6l0,0.6l0.1,0.4l0,0.6l-0.2,0.1l-0.1,0.6l0.1,0.4l-0.3,0.4l0.1,0.4l0.2,0.2
		l-0.3,0.3l-0.4-0.1l-0.2-0.3l-0.4-0.1l-0.3,0.2l-0.9-0.4L120.1,228.9z"/>
	<path id="NL" d="M250,155.1l1.2,0.1l0.3,0.8l-0.4,2.1l-0.4,0.9l-0.9,0l0.2,2.4l-0.8-0.5l-0.9-1l-1.3,0.5l-1-0.2l0.7-0.6l1.2-3.4
		L250,155.1z"/>
	<path id="NO" d="M281.3,99.4l4.4,3.1l-1.8,1.1l1.6,2.6l-2.4,1.6l-1.1,0.4l0.6-2.8l-1.8-1.6l-2.2,1.4l-0.7,3l-1.3,1.7l-1.5-0.9
		l-1.8,0.2l-1.6-2.1l-0.8,1.1l-0.9,0.2l-0.2,2.6l-2.7-0.6l-0.4,2.1l-1.4,0l-0.9,2.6l-1.4,4l-2.2,4.8l0.5,1.1l-0.5,1.3l-1.4-0.1
		l-0.9,3l0.1,4.1l0.9,1.5l-0.5,3.4l-1.2,1.9l-0.6,1.6l-0.9-1.7l-2.8,3.2l-1.9,0.6l-2-1.4l-0.5-3l-0.4-6.7l1.3-2l3.7-2.6l2.8-3.3
		l2.6-4.7l3.4-6.9l2.4-2.9l3.9-5l3.1-1.8l2.3,0.2l2.2-3.5l2.6,0.2L281.3,99.4z"/>
	<path id="NP" d="M366.1,203.8l-0.1,0.7l0.2,1l-0.2,0.6l-1.2,0l-1.7-0.4l-1.1-0.1l-0.8-0.8l-1.9-0.2l-1.8-0.9l-1.3-0.8l-1.4-0.6
		l0.5-1.5l0.9-0.7l0.6-0.4l1.1,0.5l1.4,1.1l0.8,0.2l0.5,0.8l1.1,0.3l1.1,0.7l1.6,0.4L366.1,203.8z"/>
	<path id="NZ" d="M486.3,307.8l0.3,0.8l1-0.8l0.4,0.8l0,0.8l-0.5,0.9l-0.9,1.4l-0.7,0.8l0.5,0.9l-1.1,0l-1.2,0.7l-0.4,1.3l-0.8,2
		l-1.1,0.9l-0.7,0.6l-1.3,0l-0.9-0.7l-1.5-0.1l-0.2-0.7l0.8-1.5l1.8-2l0.9-0.4l1-0.7l1.2-1l0.8-1l0.6-1.4l0.5-0.5l0.2-1l1-0.9
		L486.3,307.8z M488.5,299.2l1,1.8l0-1.2l0.6,0.5l0.2,1.3l1.1,0.6l1,0.1l0.8-0.7l0.7,0.2l-0.3,1.6l-0.4,1.1l-1.1,0l-0.4,0.6l0.1,0.8
		l-0.2,0.3l-0.5,1l-0.7,1.3l-1.1,0.8l-0.2-0.5l-0.6-0.3l0.8-1.5l-0.5-1l-1.5-0.7l0-0.7l1-0.6l0.2-1.4l-0.1-1.2l-0.6-1.2l0-0.3
		l-0.7-0.7l-1.1-1.5l-0.6-1.2l0.5-0.1l0.8,1l1.1,0.4L488.5,299.2z"/>
	<path id="OM" d="M324.7,214.2l-0.5,1l-0.6-0.1l-0.3,0.4l-0.2,0.8l0.2,1l-0.1,0.2l-0.7,0l-0.9,0.6l-0.1,0.7l-0.3,0.3l-0.9,0
		l-0.6,0.4l0,0.6l-0.7,0.4l-0.8-0.1l-0.9,0.5l-0.7,0.1l-0.5-1l-1.1-2.4l4.2-1.5l0.9-3l-0.6-1.1l0-0.6l0.4-0.6l0-0.6l0.6-0.3
		l-0.3-0.2l0.1-1l0.7,0l0.6,1.1l0.8,0.6l1,0.2l0.8,0.3l0.6,0.9l0.4,0.5l0.5,0.2l0,0.3l-0.5,0.9l-0.2,0.4L324.7,214.2z M321.2,206.9
		l-0.2,0.3l-0.3-0.5l0.4-0.5l0.2,0.1L321.2,206.9z"/>
	<path id="PA" d="M131.2,234.4l-0.5-0.4l-0.3-0.8l0.3-0.4l-0.4-0.1l-0.3-0.5l-0.7-0.4l-0.6,0.1l-0.3,0.5l-0.6,0.4l-0.3,0l-0.1,0.3
		l0.7,0.8l-0.4,0.2l-0.2,0.2l-0.7,0.1l-0.2-0.8l-0.2,0.2l-0.5-0.1l-0.3-0.6l-0.6-0.1l-0.4-0.2l-0.6,0l0,0.3L124,233l0.1-0.3l0.1-0.3
		l-0.1-0.3l0.2-0.2l-0.3-0.2l0-0.6l0.5-0.1l0.5,0.5l0,0.3l0.6,0.1l0.1-0.1l0.4,0.3l0.7-0.1l0.6-0.4l0.9-0.3l0.5-0.4l0.8,0.1
		l-0.1,0.1l0.8,0l0.6,0.2l0.5,0.4l0.5,0.4l-0.2,0.2l0.3,0.8l-0.3,0.4l-0.5-0.1L131.2,234.4z"/>
	<path id="PE" d="M142.9,269.7l-0.4,0.8l-0.7,0.4l-1.4-0.8l-0.1-0.6l-2.8-1.5l-2.5-1.6l-1.1-0.9l-0.6-1.2l0.2-0.4l-1.2-1.9l-1.4-2.6
		l-1.3-2.8l-0.6-0.6l-0.4-1l-1.1-0.9l-1-0.6l0.5-0.6l-0.7-1.3l0.4-1l1.1-0.9l0.2,0.6l-0.4,0.3l0,0.5l0.6-0.1l0.6,0.2l0.6,0.7
		l0.8-0.6l0.3-1l0.9-1.2l1.7-0.6l1.5-1.5l0.4-0.9l-0.2-1.1l0.4-0.1l0.9,0.7l0.5,0.7l0.7,0.4l0.8,1.5l1.1,0.2l0.8-0.4l0.5,0.2
		l0.8-0.1l1.1,0.7l-0.9,1.4l0.4,0l0.7,0.7l-1.3-0.1l-0.2,0.2l-1.2,0.3l-1.6,1l-0.1,0.7l-0.4,0.5l0.1,0.8l-0.9,0.4l0,0.6l-0.4,0.3
		l0.6,1.3l0.8,0.9l-0.3,0.6l0.9,0.1l0.5,0.8l1.2,0l1.2-0.8l-0.1,2.2l0.6,0.2l0.8-0.2l1.2,2.3l-0.3,0.5l-0.1,1l0,1.2l-0.6,0.7
		l0.3,0.5l-0.3,0.5l0.6,1.2L142.9,269.7z"/>
	<path id="PG" d="M462,254.2l-0.4,0.1l-0.6-0.5l-0.6-0.9l-0.3-1.1l0.2-0.1l0.2,0.4l0.4,0.3l0.7,0.9l0.7,0.5L462,254.2z M456.5,252.3
		l-0.7,0.1l-0.2,0.4l-0.8,0.3l-0.7,0.3l-0.8,0l-1.2-0.4l-0.8-0.4l0.1-0.4l1.3,0.2l0.8-0.1l0.2-0.7l0.2,0l0.1,0.7l0.8-0.1l0.4-0.5
		l0.8-0.5l-0.2-0.8l0.8,0l0.3,0.2l0,0.8L456.5,252.3z M449.7,255l1.3,0.9l0.9,1.5l0.8,0l-0.1,0.6l1.1,0.2l-0.4,0.3l1.5,0.6l-0.2,0.4
		l-0.9,0.1l-0.3-0.4l-1.2-0.2l-1.4-0.2l-1.1-0.9l-0.8-0.8l-0.7-1.2l-1.8-0.6l-1.2,0.4l-0.9,0.5l0.2,1l-1.1,0.5l-0.8-0.2l-1.5-0.1
		l0-4.6l0-4.6l2.5,1l2.6,0.8l1,0.7l0.8,0.7l0.2,0.8l2.4,0.9l0.3,0.8l-1.3,0.2L449.7,255z M458.1,250.9l-0.4,0.4l-0.3-0.8l-0.3-0.5
		l-0.6-0.5l-0.8-0.6l-1-0.4l0.4-0.3l0.8,0.4l0.5,0.3l0.6,0.3l0.6,0.6l0.5,0.5L458.1,250.9z"/>
	<path id="PH" d="M420.3,232.7l0.1,0.9l0.1,0.8l-0.5,1.3l-0.5-1.4l-0.7,0.7l0.5,1l-0.4,0.7l-1.7-0.8l-0.4-1l0.4-0.7l-0.9-0.7
		l-0.4,0.6l-0.7-0.1l-1,0.8l-0.2-0.4l0.6-1.2l0.9-0.4l0.8-0.5l0.5,0.6l1.1-0.4l0.2-0.6l1,0l-0.1-1.1l1.1,0.7l0.1,0.7L420.3,232.7z
		 M416.9,230.1l-0.5,0.5l-0.4,0.9l-0.4,0.4l-0.9-1l0.3-0.4l0.4-0.4l0.2-0.9l0.8-0.1l-0.2,1l1-1.4L416.9,230.1z M409.1,231.5
		l-1.9,1.4l0.7-1l1-0.9l0.8-1l0.7-1.4l0.3,1.2l-0.9,0.8L409.1,231.5z M413.9,227.8l0.8,0.4l0.9,0l0,0.6l-0.7,0.6l-0.9,0.4l0-0.7
		l0.1-0.7L413.9,227.8z M419,227.4l0.4,1.6l-1.1-0.4l0,0.5l0.3,0.9l-0.7,0.3l-0.1-1l-0.4-0.1l-0.2-0.9l0.8,0.1l0-0.5l-0.9-1.1l1.4,0
		L419,227.4z M413.4,226.1l-0.4,1.2l-0.6-0.7l-0.7-1.1l1.2,0.1L413.4,226.1z M413.1,218.1l0.9,0.4l0.4-0.4l0.1,0.4l-0.2,0.6l0.5,1.1
		l-0.4,1.2l-0.8,0.5l-0.2,1.2l0.3,1.2l0.8,0.2l0.6-0.2l1.8,0.8l-0.1,0.8l0.5,0.3l-0.1,0.7l-1.1-0.7l-0.5-0.8l-0.4,0.5l-0.9-0.9
		l-1.3,0.2l-0.7-0.3l0.1-0.6l0.4-0.4l-0.4-0.3l-0.2,0.5l-0.7-0.8l-0.2-0.6l-0.1-1.4l0.6,0.5l0.1-2.3l0.5-1.3L413.1,218.1z"/>
	<path id="PL" d="M262.7,160.6l-0.6-1.4l0.1-0.8l-0.4-1.2l-0.5-0.8l0.4-0.6l-0.3-1.2l1-0.7l2.2-1.1l1.8-0.8l1.4,0.4l0.1,0.6l1.4,0
		l1.7,0.3l2.6,0l0.7,0.3l0.3,0.7l0.1,1.1l0.4,0.9l0,0.9l-0.8,0.5l0.4,1.1l0,1l0.7,2l-0.2,0.6l-0.7,0.3l-1.3,1.8l0.4,1l-0.3-0.1
		l-1.3-0.8l-1,0.3l-0.7-0.2l-0.8,0.5l-0.7-0.8l-0.6,0.3l-0.1-0.1l-0.7-1.1l-1.1-0.1l-0.1-0.7l-1-0.2l-0.2,0.6l-0.8-0.5l0.1-0.6
		l-1.1-0.2L262.7,160.6z"/>
	<path id="PK" d="M344.6,189l-0.6,1l0,0.5l0.2,0.2l0.4-0.1l0.3,0.3l0.8,0.6l0.6,0.3l-0.2,0.4l-0.4,0.1l-0.1,0.3l-0.3,0l0.3,2.4
		l1.3,0.6l1.1,0.8l-1.2,1l0,1.2l-1.4,1.6l-0.9,1.6l-1.5,1.7l-1.6-0.1l-1.6,1.7l0.9,0.7l0.2,1.2l0.8,0.8l0.3,1.3l-3.1,0l-0.9,1
		l-1-0.4l-0.4-1.1l-1.1-1.2l-2.6,0.3l-2.3,0l-2,0.2l0.5-1.8l2-0.8l-0.1-0.7l-0.7-0.3l0-1.4l-1.4-0.7l-0.6-1l-0.7-0.9l2.4,0.8
		l1.4-0.2l0.8,0.2l0.3-0.4l1,0.1l1.8-0.7l0-1.4l0.8-0.9l1.1,0l0.2-0.5l1.1-0.2l0.5,0.2l0.6-0.5l-0.1-1l0.6-1l0.9-0.4l-0.6-1.1
		l1.3,0.1l0.4-0.6l-0.1-0.7l0.7-0.7l-0.2-0.9l-0.3-0.7l0.8-0.8L344.6,189z"/>
	<path id="PR" d="M147.6,218.1l0.7,0.1l0.3,0.3l-0.4,0.4l-1.1,0l-0.8,0.1l-0.1-0.6l0.2-0.2L147.6,218.1z"/>
	<path id="PS" d="M291.7,196.4l0,1l-0.2,0.5l-0.7,0.2l0.1-0.4l0.4-0.2l-0.4-0.2l0.3-1.1L291.7,196.4z"/>
	<path id="PT" d="M228.6,179.6l0.5-0.5l0.6-0.3l0.4,0.9l0.8,0l0.2-0.2l0.8,0.1l0.4,0.9l-0.7,0.5l0,1.5l-0.2,0.3l-0.1,0.9l-0.6,0.2
		l0.6,1.1l-0.4,1.2l0.5,0.5l-0.2,0.5l-0.5,0.7l0.1,0.6l-0.6,0.5l-0.7-0.2l-0.7,0.2l0.2-1.4l-0.1-1.1l-0.6-0.2l-0.3-0.7l0.1-1.2
		l0.6-0.7l0.1-0.7l0.3-1.1l0-0.8l-0.3-0.7L228.6,179.6z"/>
	<path id="PY" d="M152.7,276.7l0.6-1.8l0-0.8l0.7-1.3l2.5-0.4l1.3,0l1.3,0.8l0,0.5l0.4,0.8l-0.1,2.1l1.5,0.3l0.6-0.3l1,0.4l0.3,0.5
		l0.1,1.4l0.2,0.6l0.5,0.1l0.5-0.2l0.5,0.3l0,0.8l-0.2,0.9l-0.3,0.9l-0.2,1.4l-1.3,1.2l-1.1,0.3l-1.6-0.2l-1.4-0.4l1.4-2.4l-0.2-0.7
		l-1.5-0.6l-1.7-1.1l-1.2-0.2L152.7,276.7z"/>
	<path id="QA" d="M313.3,208.7l-0.1-1.1l0.4-0.8l0.4-0.2l0.4,0.5l0,0.9l-0.3,0.9l-0.4,0.1L313.3,208.7z"/>
	<path id="RO" d="M273.6,167.6l0.6-0.5l0.9,0.2l0.9,0l0.7,0.5l0.5-0.3l1-0.2l0.4-0.5l0.6,0l0.4,0.2l0.4,0.6l0.4,0.9l0.8,1.2l0,0.9
		l-0.1,0.9l0.3,0.9l0.6,0.4l0.7-0.3l0.6,0.3l0,0.5l-0.7,0.4l-0.4-0.2l-0.4,2.4l-0.8-0.2l-1-0.7l-1.7,0.5l-0.7,0.5l-2.1-0.1l-1.1-0.3
		l-0.5,0.1l-0.4-0.8l-0.3-0.3l0.3-0.3l-0.3-0.2l-0.4,0.4l-0.8-0.6l-0.1-0.8l-0.9-0.5l-0.2-0.6l-0.8-0.8l1.1-0.4l0.9-1.4l0.7-1.4
		L273.6,167.6z"/>
	<path id="RS" d="M271,172.7l0.9,0.5l0.1,0.8l0.8,0.6l0.4-0.4l0.3,0.2l-0.3,0.3l0.3,0.3l-0.3,0.4l0.1,0.7l0.7,0.8l-0.5,0.6l-0.2,0.6
		l0.2,0.2l-0.2,0.3l-0.7,0l-0.5,0.1l0-0.1l0.2-0.2l0.2-0.5l-0.2,0l-0.3-0.4l-0.2-0.1l-0.2-0.3l-0.3-0.1l-0.2-0.3l-0.3,0.1l-0.2,0.6
		l-0.3,0.1l0.1-0.2l-0.5-0.4l-0.5-0.2l-0.2-0.3l-0.4-0.3l0.3-0.1l0.2-0.9l-0.7-0.8l0.4-0.9l-0.5,0l0.5-0.8l-0.4-0.6l-0.3-0.8
		l1.1-0.5l0.9,0.1l0.8,0.8L271,172.7z"/>
	<path id="RU" d="M510.4,119.6l-1.4,1.5l-2.3,0.4l0,3.3l-0.6,0.7l-1.3-0.1l-1.1-1.1l-1.9-1l-0.3-1.5l-1.4-0.6l-1.6,0.4l-0.8-1.2
		l0.3-1.3l-1.7,0.8l0.6,1.6l-0.8,1.4l0,0l-1.8,1.5l-1.8-0.2l1.3,1.7l0.8,2.6l0.7,0.8l0.2,1.3l-0.4,0.8l-2.6-0.7l-4,2.3l-1.3,0.3
		l-2.2,2.1l-2.1,1.8l-0.5,1.3l-2-2l-3.7,2.2l-0.6-1l-1.4,1.2l-1.9-0.4l-0.5,1.8l-1.7,2.6l0.1,1.1l1.6,0.6l-0.2,3.8l-1.3,0.1
		l-0.6,2.1l0.6,1.1l-2.5,1.2l-0.5,2.7l-2.1,0.6l-0.4,2.4l-2,2.1l-0.5-1.6l-0.6-3.4l-0.8-5.4l0.7-3.5l1.2-1.6l0.1-1.2l2.2-0.6
		l2.5-3.4l2.4-2.9l2.5-2.3l1.1-4.2l-1.7,0.3l-0.9,2.5l-3.6,3.2l-1.2-3.6l-3.7,1l-3.5,4.8l1.2,1.7l-3.2,0.7l-2.2,0.3l0.1-2l-2.2-0.4
		l-1.8,1.4l-4.3-0.5l-4.7,0.8l-4.6,5.2l-5.4,5.9l2.2,0.3l0.7,1.5l1.4,0.5l0.9-1.2l1.6,0.2l2,2.6l0,2l-1.1,2.3l-0.1,2.7l-0.6,3.5
		l-2.1,3l-0.5,1.4l-1.9,2.4l-1.9,2.3l-0.9,1.2l-1.9,1.1l-0.9,0l-0.9-0.9l-1.9,1.4l-0.2,0.6l-0.2-0.3l0-1l0.7-0.1l0.2-2.3l-0.4-1.7
		l1.2-0.7l1.7,0.4l1-2l0.5-2.3l0.5-0.8l0.7-1.9l-2.3,0.6l-1.2,0.8l-2.2,0l-0.6-2l-1.7-1.5l-2.5-0.7l-0.5-2.2l-0.5-1.4l-0.5-1
		l-0.9-2.3l-1.2-0.9l-2.1-0.7l-1.9,0.1l-1.8,0.4l-1.2,1.2l0.8,0.6l0,1.3l-0.8,0.7l-1.3,2.4l0,1l-2,1.4l-1.7-0.8l-1.7,0.2l-0.7-0.7
		l-0.8-0.2l-2.1,1.5l-1.9,0.4L398,165l-1.8-0.4l-1.3,0l-0.9-1.1l-1.4-1.1l-1.4-0.3l-1.8,0.3l-1.3,0.4l-2-0.9l-0.3-1.7l-1.7-0.6
		l-1.3-0.3l-1.6-0.9l-1.5,2.4l0.6,1.3l-1.4,1.5l-2-0.6l-1.4-0.1l-0.9-1l-1.5,0l-1.2-0.7l-2.2,1l-2.7,1.9l-1.5,0.4l-0.6,0.2l-0.8-1.3
		l-1.8,0.3l-0.6-0.9l-1-0.4l-0.7-1.3l-0.8-0.4l-2,0.6l-1.9-1.3l-0.8,1.2l-3.2-5.8l-1.8-1.8l0.5-0.8l-3.5,2.3l-1.4,0.1l0.1-1.3
		l-1.8-0.8l-1.5,0.6l-0.4-2.5l-2.5-0.5l-1.3,1l-3.5,0.9l-0.7,0.6l-5.3,0.8l-0.6,0.8l1,1.6l-1.4,0.6l0.3,0.6l-1.4,1.1l2.3,1.6
		l-0.4,1.1l-2-0.1l-0.4,0.7l-1.8-1.2l-2.2,0l-1.5,0.9l-1.7-0.9l-3.1-1.6l-2.2,0.1l-2.9,2.4l-0.2,1.6l-1.5-1.3l-1.1,2.4l0.4,0.4
		l-0.8,1.6l1.2,1.4l1.1-0.1l0.9,1.4l-0.1,1.1l0.7,0.3l-0.6,1.2l-1.4,0.3l-1.4,2.1l1.3,1.9l-0.1,1.3l1.5,2.2l-0.8,0.8l-0.2,0.5
		l-0.6-0.1l-1-1.1l-0.4-0.1l-0.9-0.4l-0.4-0.8l-1.3-0.4l-0.9,0.3l-0.2-0.4l-1.9-0.9l-2.1-0.3l-1.2-0.3l-0.2,0.2l-1.8-1.7l-1.6-0.7
		l-1.2-1.2l1-0.3l1.2-1.7l-0.8-0.8l2.1-0.8l0-0.5l-1.3,0.3l0-0.9l0.7-0.6l1.4-0.2l0.2-0.7l-0.3-1.2l0.6-1.1l0-0.6l-2.1-0.7l-0.8,0
		l-0.9-1l-1.1,0.3l-1.8-0.8l0-0.4l-0.5-1l-1.1-0.1l-0.1-0.7l0.4-0.5l-0.9-1.3l-1.5,0.2l-0.4-0.1l-0.4,0.5l-0.5-0.1l-0.3-1.5
		l-0.3-0.8l0.3-0.2l1.1,0.1l0.6-0.5l-0.4-0.6l-1-0.4l0.1-0.4l-0.6-0.4l-0.9-1.6l0.3-0.7l-0.1-1.2l-1.4-0.6l-0.7,0.3l-0.2-0.6
		l-1.5-0.6l-0.5-1.5l-0.1-1.3l-0.7-0.6l0.6-0.8l-0.4-2.5l1-1.6l-0.2-0.5l1.6-1.6l-1.5-1.4l3-3.7l1.3-1.7l0.5-1.6l-2.1-2.1l0.6-2.1
		l-1.3-2.4l1-2.9l-1.6-4l1.3-2.8l-2.2-2.5l0.2-2.7l1.1-0.4l2.4-1.6l1.5-1.4l2.3,2.5l3.9,0.9l5.3,4.4l1.1,1.8l0.1,2.4l-1.6,1.9
		l-2.3,0.9l-6.3-2.7l-1,0.5l2.3,2.6l0.1,1.6l0.1,3.4l1.8,1l1.1,0.8l0.2-1.6l-0.9-1.4l0.9-1.3l3.4,2.1l1.2-0.8l-1-2.5l3.3-3.4
		l1.3,0.2l1.3,1.2l0.8-2.4l-1.2-2.2l0.7-2.2l-1-2.4l4,1.2l0.8,2.1l-1.8,0.5l0,2l1.1,1.2l2.2-0.8l0.3-2.3l3-1.8l4.9-3.3l1.1,0.2
		l-1.4,2.3l1.8,0.4l1-1.3l2.7-0.1l2.1-1.6l1.6,2.3l1.6-2.6l-1.5-2.3l0.7-1.3l4.2,1.2l2,1.3l5.1,4.4l0.9-2l-1.4-2.1l0-0.8l-1.7-0.4
		l0.5-1.9l-0.8-3.3l0-1.4l2.6-4l0.9-4.2l1.1-0.9l3.7,1.3l0.3,2.6l-1.3,3.7l0.9,1.4l0.5,3l-0.3,5.6l1.6,2.4l-0.6,2.5l-2.8,5.1
		l1.6,0.5l0.6-1.3l1.6-0.9l0.4-1.8l1.2-1.8l-0.8-2.2l0.7-2.6l-1.5-0.3l-0.3-2.2l1.1-4.2l-1.8-3.5l2.5-3l-0.3-3.3l0.7-0.1l0.7,2.6
		l-0.6,4.4l1.5,0.8l-0.6-3.2l2.4-1.8l2.9-0.2l2.6,2.6l-1.3-3.8l-0.1-5.2l2.5-1l3.4,0.2l3.1-0.7l-1.1-2.7l1.6-3.5l1.6-0.2l2.8-2.8
		l3.7-0.8l0.5-1.6l3.7-0.5l1.2,1.3l3.2-3.1l2.6,0.1l0.4-2.6l1.4-2.7l3.3-2.7l2.4,2.1l-1.9,1.6l3.2,1l0.4,3l1.3-1.5l4.1,0.1l3.2,2.9
		l1.1,2.2l-0.4,3l-1.6,1.6l-3.7,3l-1.1,1.6l1.8,0.7l2.1,1.3l1.3-1l0.7,3.2l0.6-1.3l2.3-0.8l4.5,0.8l0.3,2.3l5.9,0.7l0.1-3.8l3,0.9
		l2.3,0l2.3,2.6l0.7,3l-0.8,1.9l1.8,3.5l2.2,1.8l1.4-4.6l2.3,2l2.4-1.2l2.7,1.4l1-1.2l2.3,0.6l-1-4.2l1.9-2.1l12.8,3.1l1.2,2.7
		l3.7,3.4l5.7-0.8l2.8,0.7l1.2,1.8l-0.2,3l1.7,1.2l1.9-0.8l2.5-0.1l2.7,0.8l2.7-0.4l2.5,3.5l1.8-1.3l-1.1-2.6l0.6-1.8l4.5,1.2
		l2.9-0.2l4.1,1.9l2,1.7l3.5,3l3.7,3.7l-0.1,2.2l1,0.9l-0.3-2.6l3.8,0.5L510.4,119.6z M446.1,165.3l-1.4-3.9l-0.6-2.3l0-2.3
		l-0.5-2.3l-0.4-1.6l-0.6,0.3l0.6,1.1l-1.3,1.1l-0.1,3.2l0.8,2.2l-0.1,3l-0.3,1.6l0.2,2.3l-0.2,2l0.3,1.7l0.9-1.6l1.1,1.2l0-1.4
		l-1.4-2.1l0.9-3.1L446.1,165.3z M273,151.4l-1.5-0.4l-2,0.8l-0.3,1.1l1.7,0.3l2.6,0l-0.1-0.6l0.2-0.7L273,151.4z M496.2,100.9
		l1.8-0.3l1.5-1l0.1-0.6l-2-1.3l-1.2,0l-0.2,0.2l-1.8,1.8l0.3,1.4L496.2,100.9z M440.7,87.2l-1.3,2l0.2,0.3l2.9,0.5l2.1,0l-0.2-1.3
		l-2-1.9L440.7,87.2z M453.1,82.4l1.6-2.1l-3.6-1.5l-2.6-0.8l-0.3,1.8l2.6,2.2L453.1,82.4z M440.4,81.6l5.2,0.1l1.1-4.1l-5.1-3.1
		l-3.7-0.3l-1.9,1.1l-0.8,3.9l2.8,3.5L440.4,81.6z M315.7,94.7l-1.4,1l0.2,2.4l2.6,1.2l0.4,1.9l4.6,0.6l0.8-0.4l-2.7-3.6l-0.3-3.8
		l2.2-4.6l2.1-5l4.4-5.1l4.3-2.7l5-2.9l1-1.9l-1-2.4l-2.8,0.8l-2.4,2.3l-4.7,1.1l-4.7,3.7l-3.2,3l0.4,2.5l-3.4,4.6l1.3,0.6l-2.8,4.2
		L315.7,94.7z M390.1,60.4l0.4-2.9l-3.6-4.2l-1.1-0.5l-1.2,0.9l-2.6,9.4L390.1,60.4z M307.2,45.6l1.5,2l1.7-1.4l0.2-1.4l1.3-0.6
		l1.9-1.1l0.5-1.3l-2.1-1.9l-1.3,1.5l-0.8,2.1l-0.3-2.3l-2.2,0.1l-2.8,1.6l3.1,0.3L307.2,45.6z M373.5,52.2l2.3,2.9l3.9,2.1l3.1-0.9
		l0.3-6.9l-3.3-8.1l-2.7-4.6l-3.1,2.1l-3.7,6l1.9,1.7L373.5,52.2z"/>
	<path id="RW" d="M284.5,246.2l0.6,0.8l-0.1,0.8l-0.4,0.2l-0.8-0.1l-0.4,0.8l-0.9-0.1l0.1-0.8l0.2-0.1l0.1-0.8l0.4-0.4l0.3,0.1
		L284.5,246.2z"/>
	<path id="SA" d="M302,221.3l-0.2-0.6l-0.4-0.4l-0.1-0.6l-0.7-0.5l-0.8-1.2l-0.4-1.2l-1-1l-0.6-0.2l-0.9-1.4l-0.2-1.1l0.1-0.9
		l-0.8-1.7l-0.7-0.6l-0.8-0.3l-0.5-0.9l0.1-0.4l-0.4-0.8l-0.4-0.3l-0.6-1.2l-0.9-1.3l-0.7-1.1l-0.7,0l0.2-0.9l0.1-0.6l0.2-0.6
		l1.6,0.3l0.6-0.5l0.3-0.6l1.1-0.2l0.2-0.5l0.5-0.3l-1.4-1.6l2.8-0.8l0.3-0.3l1.7,0.5l2.1,1.2l4,3.3l2.6,0.1l1.3,0.2l0.4,0.8l1,0
		l0.6,1.4l0.7,0.4l0.2,0.6l1,0.7l0.1,0.6l-0.1,0.5l0.2,0.5l0.4,0.4l0.2,0.5l0.2,0.4l0.4,0.3l0.4-0.1l0.3,0.6l0.1,0.4l0.5,1.6
		l4.3,0.8l0.3-0.3l0.6,1.1l-0.9,3l-4.2,1.5l-4.1,0.6l-1.3,0.7l-1,1.6l-0.7,0.2l-0.4-0.5L307,220l-1.4-0.1l-0.3-0.1l-1.6,0l-0.4,0.1
		l-0.6-0.4l-0.4,0.7l0.1,0.6L302,221.3z"/>
	<path id="SB" d="M470.9,259.4l0.4,0.5l-1,0l-0.5-0.9l0.8,0.3L470.9,259.4z M469.1,258.6l-0.6,0l-0.9-0.1l-0.3-0.2l0.1-0.6l0.9,0.2
		l0.5,0.3L469.1,258.6z M470.2,258.2l-0.2,0.3l-1-1.2l-0.3-0.8h0.5l0.5,1.1L470.2,258.2z M467.7,256.4l0.1,0.3l-1.1-0.6l-0.8-0.5
		l-0.5-0.5l0.2-0.1l0.7,0.3l1.2,0.7L467.7,256.4z M464.4,255l-0.3,0.1l-0.6-0.3l-0.6-0.6l0.1-0.2l0.8,0.6L464.4,255z"/>
	<path id="SD" d="M289.5,231.2l-0.2,0l0-0.7l-0.2-0.5l-0.7-0.6l-0.2-1l0.2-1.1l-0.7-0.1l-0.1,0.3l-0.8,0.1l0.3,0.4l0.1,0.9l-0.8,0.8
		l-0.7,1l-0.7,0.1l-1.2-0.8l-0.5,0.3l-0.1,0.4l-0.7,0.3l0,0.3H281l-0.2-0.3l-1,0l-0.5,0.2l-0.4-0.1l-0.7-0.8l-0.2-0.4l-1,0.2
		l-0.4,0.7l-0.4,1.3l-0.5,0.3l-0.4,0.2l-0.1-0.1l-0.5-0.4l-0.1-0.4l0.2-0.6l0-0.6l-0.8-0.9l-0.2-0.6l0-0.3l-0.5-0.4l0-0.8l-0.3-0.6
		l-0.5,0.1l0.1-0.5l0.4-0.6l-0.2-0.6l0.5-0.4l-0.3-0.3l0.4-0.9l0.6-1.1l1.2,0.1l-0.1-5.9l0-0.6l1.6,0v-3h5.7h5.5h5.6l0.5,1.5
		l-0.3,0.3l0.2,1.5l0.5,1.8l0.5,0.4l0.8,0.5l-0.7,0.8l-1,0.2l-0.4,0.5l-0.1,1l-0.6,2.1l0.2,0.6l-0.2,1.2l-0.6,1.4l-0.9,0.7l-0.6,1.1
		l-0.1,0.6l-0.7,0.4l-0.4,1.5L289.5,231.2z"/>
	<path id="SE" d="M272.8,120.5l-1.4,2.4l0.2,2l-2.3,2.6l-2.7,2.7l-1,4.2l1,2.1l1.4,1.6l-1.3,3.1l-1.5,0.6l-0.5,4.5l-0.8,2.4
		l-1.7-0.2l-0.8,2l-1.6,0.1l-0.4-2.4l-1.2-2.9l-1.1-3.8l0.6-1.6l1.2-1.9l0.5-3.4l-0.9-1.5l-0.1-4.1l0.9-3l1.4,0.1l0.5-1.3l-0.5-1.1
		l2.2-4.8l1.4-4l0.9-2.6l1.4,0l0.4-2.1l2.7,0.6l0.2-2.6l0.9-0.2l1.9,1.9l2.2,2.6l0,5.6l0.5,1.4L272.8,120.5z"/>
	<path id="SI" d="M261,170.5l1.2,0.2l0.7-0.5l1.2-0.1l0.3-0.3l0.2,0l0.3,0.7l-1.1,0.5l-0.1,0.8l-0.5,0.2l0,0.6l-0.6,0l-0.5-0.3
		l-0.3,0.3l-1-0.1l0.3-0.2l-0.3-0.9L261,170.5z"/>
	<path id="SJ" d="M276.4,63.5l-3.2,2.7l-2.5-1.5l1-1.7l-0.9-2.2l2.9-1.4l0.6,2.6L276.4,63.5z M267.3,50l4.7,5.7l-3.6,2.9l-0.8,5.1
		l-1.2,1.3l-0.7,5.3l-1.7,0.2l-3-3.9l1.3-2.3l-2.1-1.9l-2.8-6l-1.1-5.9l3.9-2.9l0.8,2.8l2-0.1l0.5-2.7l2.1-0.3L267.3,50z
		 M277.4,44.2l2.8,2.9l-2.1,4.3l-4.1,0.9l-4.2-1.3l-0.3-2.2l-2-0.1L266,45l4.4-2.4l2.1,2.1l1.4-2.6L277.4,44.2z"/>
	<path id="SK" d="M268.1,164.2l0.1,0.1l0.6-0.3l0.7,0.8l0.8-0.5l0.7,0.2l1-0.3l1.3,0.8l-0.4,0.6l-0.3,0.9l-0.3,0.2l-1.5-0.6
		l-0.5,0.1l-0.3,0.5l-0.7,0.3l-0.2-0.1l-0.7,0.3l-0.6,0.1l-0.1,0.4l-1.2,0.3l-0.5-0.2l-0.7-0.5l-0.1-0.7l0.1-0.3l0.2-0.5l0.6,0
		l0.5-0.2l0-0.2l0.3-0.1l0.1-0.5l0.3-0.1l0.2-0.4L268.1,164.2z"/>
	<path id="SL" d="M225.2,235l-0.4-0.1l-1-0.6l-0.7-0.8l-0.2-0.5l-0.2-1.1l0.8-0.6l0.2-0.4l0.2-0.3l0.4,0l0.3-0.3l1.1,0l0.4,0.5
		l0.3,0.6l0,0.4l0.2,0.4l0,0.5l0.4-0.1l-0.7,0.7l-0.6,0.8l-0.1,0.4L225.2,235z"/>
	<path id="SN" d="M217.8,225.3l-0.6-1.1l-0.7-0.5l0.6-0.3l0.7-1l0.3-0.8l0.5-0.5l0.7,0.1l0.7-0.3l0.8,0l0.7,0.4l0.9,0.4l0.9,1.1
		l0.9,1l0.1,0.9l0.3,0.8l0.5,0.4l0.1,0.6l-0.1,0.4l-0.2,0.1l-0.8-0.1l-0.1,0.2l-0.3,0l-1-0.4l-0.7,0l-2.6-0.1l-0.4,0.2l-0.5,0
		l-0.7,0.2l-0.2-1.1l1.3,0l0.3-0.2l0.3,0l0.5-0.3l0.6,0.3l0.6,0l0.6-0.3l-0.3-0.4l-0.5,0.2l-0.4,0l-0.6-0.4l-0.4,0l-0.3,0.3
		L217.8,225.3z"/>
	<path id="SO" d="M313.8,228l0-0.4l-0.5,0l-0.7,0.5l-0.8,0.1l-0.7,0.2l-0.5,0l-0.8,0l-0.5,0.3l-0.7,0.1l-1.2,0.4l-1.5,0.2l-1.3,0.4
		l-0.7,0l-0.6-0.6l-0.3-0.6l-0.5-0.3l-0.5,0.8l-0.3,0.5l0.5,0.8l0.5,0.7l0.5,0.5l4.6,1.7l1.2,0l-4,4.2l-1.8,0.1l-1.3,1l-0.9,0
		l-0.4,0.4l-1.2,1.6l0,5.1l0.8,1.2l0.3-0.3l0.3-0.7l1.5-1.7l1.3-1.1l2.1-1.4l1.4-1.1l1.7-1.9l1.2-1.6l1.2-2.1l0.9-1.8l0.7-1.6
		l0.4-1.5l0.3-0.5l0-0.8L313.8,228z"/>
	<path id="SR" d="M160.5,236.2l1.7,0.3l0.2-0.3l1.1-0.1l1.5,0.4l-0.7,1.2l0.1,1l0.6,0.8l-0.2,0.6l-0.1,0.6l-0.4,0.6l-0.8-0.3
		l-0.7,0.1l-0.6-0.1l-0.1,0.4l0.2,0.3l-0.1,0.3l-0.8-0.1l-0.9-1.2l-0.2-0.8l-0.5,0l-0.6-1l0.3-0.7l-0.1-0.3l0.9-0.4L160.5,236.2z"/>
	<path id="SS" d="M289.5,231.2l0,1.1l-0.2,0.4l-0.8,0l-0.5,0.8l0.9,0.1l0.7,0.7l0.2,0.6l0.6,0.3l0.8,1.5l-1,0.9l-0.9,0.8l-0.9,0.6
		l-1,0l-1.1,0.3l-0.9-0.3l-0.6,0.4l-1.2-0.9l-0.3-0.6l-0.8,0.3l-0.7-0.1l-0.4,0.2l-0.6-0.2l-0.9-1.2l-0.2-0.4l-1.1-0.6l-0.4-0.8
		l-0.6-0.6l-1-0.7l0-0.5l-0.8-0.6l-1-0.6l0.4-0.2l0.5-0.3l0.4-1.3l0.4-0.7l1-0.2l0.2,0.4l0.7,0.8l0.4,0.1l0.5-0.2l1,0l0.2,0.3h1.4
		l0-0.3l0.7-0.3l0.1-0.4l0.5-0.3l1.2,0.8l0.7-0.1l0.7-1l0.8-0.8l-0.1-0.9l-0.3-0.4l0.8-0.1l0.1-0.3l0.7,0.1l-0.2,1.1l0.2,1l0.7,0.6
		l0.2,0.5l0,0.7L289.5,231.2z"/>
	<path id="SV" d="M117.2,225.6L117,226l-0.8,0l-0.5-0.1l-0.6-0.3l-0.8-0.1l-0.4-0.3l0-0.2l0.5-0.4l0.3-0.2l-0.1-0.2l0.3-0.1l0.4,0.1
		l0.3,0.3l0.4,0.2l0.1,0.2l0.6-0.2l0.3,0.1l0.2,0.2L117.2,225.6z"/>
	<path id="SY" d="M296.3,194.7l-2.8,1.8l-1.6-0.7l0,0l0.2-0.3l0-0.7l0.3-0.9l0.8-0.6l-0.2-0.7l-0.6-0.1l-0.1-1.3l0.3-0.7l0.4-0.4
		l0.4-0.4l0.1-1l0.5,0.3l1.6-0.5l0.8,0.3l1.2,0l1.6-0.7l0.8,0l1.6-0.3l-0.7,1.1l-0.8,0.4l0.1,1.3l-0.5,2.1L296.3,194.7z"/>
	<path id="SZ" d="M286.8,283.7l-0.3,0.7l-0.8,0.2l-0.8-0.9l0-0.5l0.4-0.6l0.1-0.5l0.4-0.1l0.7,0.3l0.2,0.7L286.8,283.7z"/>
	<path id="TD" d="M261.9,226.4l0.1-0.7l-0.9,0l0-0.9l-0.6-0.5l0.6-1.9l1.8-1.4l0.1-1.9l0.5-3l0.3-0.6l-0.6-0.5l0-0.5l-0.5-0.4
		l-0.3-2.4l1.4-0.8l5.6,2.9l5.6,2.9l0.1,5.9l-1.2-0.1l-0.6,1.1l-0.4,0.9l0.3,0.3l-0.5,0.4l0.2,0.6l-0.4,0.6l-0.1,0.5l0.5-0.1
		l0.3,0.6l0,0.8l0.5,0.4l0,0.3l-0.9,0.2l-0.7,0.6l-1,1.6l-1.3,0.7l-1.4-0.1l-0.4,0.1l0.1,0.5l-0.7,0.5l-0.6,0.6l-1.8,0.5l-0.4-0.3
		l-0.2,0l-0.3,0.4l-1.2,0.1l0.2-0.4l-0.4-1l-0.2-0.6L262,232l-0.8-0.8l0.3-0.7l0.6,0.1l0.4-0.1l0.8,0l-0.8-1.3l0.1-1l-0.1-1
		L261.9,226.4z"/>
	<path id="TF" d="M339,323.2l0.9,0.7l1.3,0.3l0,0.4l-0.4,1l-2.2,0.1l0-1.2l0.2-0.9L339,323.2z"/>
	<path id="TG" d="M244.1,236l-1.1,0.3l-0.3-0.5l-0.4-0.9l-0.1-0.7l0.3-1.3l-0.4-0.5l-0.1-1.1l0-1l-0.6-0.7l0.1-0.4l1.2,0l-0.2,0.8
		l0.4,0.4l0.5,0.5l0.1,0.7l0.3,0.3l-0.1,3.3L244.1,236z"/>
	<path id="TH" d="M386.6,227.3l-1.3-0.7l-1.2,0l0.2-1.1l-1.2,0l-0.1,1.6l-0.8,2.1l-0.5,1.3l0.1,1l0.9,0l0.6,1.3l0.3,1.2l0.8,0.8
		l0.9,0.2l0.7,0.7l-0.5,0.6l-0.9,0.2l-0.1-0.7l-1.2-0.6l-0.2,0.3l-0.6-0.5l-0.2-0.7l-0.8-0.8l-0.7-0.7l-0.2,0.8l-0.3-0.8l0.2-0.9
		l0.4-1.4l0.7-1.5l0.8-1.3l-0.6-1.3l0-0.7l-0.2-0.8l-0.9-1.2l-0.3-0.7l0.5-0.3l0.5-1.3l-0.6-1l-0.9-1.1l-0.7-1.3l0.6-0.3l0.6-1.6
		l1-0.1l0.8-0.6l0.8-0.3l0.6,0.5l0.1,0.9l1,0.1l-0.3,1.6l0,1.3l1.5-0.9l0.4,0.3l0.8,0l0.3-0.5l1.1,0.1l1.1,1.2l0.1,1.5l1.1,1.3
		l-0.1,1.2l-0.5,0.7l-1.3-0.2l-1.8,0.3l-0.9,1.2L386.6,227.3z"/>
	<path id="TJ" d="M341.9,182.6l-0.5,0.6l-1.5-0.3l-0.1,1.1l1.5-0.1l1.7,0.6l2.7-0.3l0.4,1.7l0.5-0.2l0.9,0.4l0,0.7l0.2,1l-1.5,0
		l-1-0.1l-0.9,0.8l-0.6,0.2l-0.5,0.4l-0.6-0.6l0.1-1.5l-0.4-0.1l0.2-0.5l-0.8-0.4l-0.6,0.6l-0.1,0.7l-0.2,0.3l-0.8,0l-0.5,0.8
		l-0.5-0.3l-1,0.6l-0.4-0.2l0.8-1.8l-0.3-1.3l-1-0.4l0.4-0.8l1.2,0.1l0.7-1l0.5-1.2l1.9-0.4l-0.3,0.9l0.2,0.5L341.9,182.6z"/>
	<path id="TL" d="M418.3,257.2l0.2-0.3l1.2-0.3l1,0l0.4-0.2l0.5,0.2l-0.5,0.4l-1.5,0.6l-1.2,0.4l0-0.4L418.3,257.2z"/>
	<path id="TM" d="M328,190.9l-0.1-1.5l-1.1-0.1l-1.6-1.6l-1.1-0.2l-1.6-0.9l-1-0.2l-0.6,0.3l-0.9-0.1l-1,1l-1.2,0.3l-0.3-1.3
		l0.2-1.9l-1.1-0.6l0.4-1.3L316,183l0.3-1.6l1.3,0.5l1.2-0.6l-1-1.1l-0.4-1.1l-1.1,0.5l-0.1,1.4l-0.4-1.2l0.6-0.6l1.6-0.4l1,0.5
		l1,1.5l0.7-0.1l1.6,0l-0.2-0.9l1.2-0.7l1.2-1.1l1.9,1l0.2,1.5l0.5,0.4l1.5-0.1l0.5,0.3l0.7,1.9l1.6,1.3l0.9,0.9l1.5,0.9l1.9,0.8
		l0,1.1l-0.4-0.1l-0.7-0.5l-0.2,0.6l-1.2,0.3l-0.3,1.4l-0.8,0.5l-1.1,0.3l-0.3,0.8l-1.1,0.2L328,190.9z"/>
	<path id="TN" d="M254.8,199.8l-0.6-3l-0.9-0.7l0-0.4l-1.2-1l-0.1-1.3l0.9-1l0.3-1.4l-0.2-1.7l0.3-0.9l1.5-0.7l1,0.2l0,0.9l1.2-0.6
		l0.1,0.3l-0.7,0.9l0,0.8l0.5,0.4l-0.2,1.5l-0.9,0.9l0.3,0.9l0.7,0l0.4,0.8l0.5,0.3l-0.1,1.3l-0.7,0.5l-0.4,0.5l-1,0.6l0.2,0.7
		l-0.1,0.7L254.8,199.8z"/>
	<path id="TR" d="M293.7,180.6l2,0.7l1.6-0.3l1.2,0.2l1.7-1l1.5-0.1l1.4,0.9l0.2,0.7l-0.1,0.9l1.1,0.5l0.6,0.5l-1,0.5l0.4,2.1
		l-0.3,0.6l0.8,1.4l-0.7,0.3l-0.5-0.5l-1.6-0.2l-0.6,0.3l-1.6,0.3l-0.8,0l-1.6,0.7l-1.2,0l-0.8-0.3l-1.6,0.5l-0.5-0.3l-0.1,1
		l-0.4,0.4l-0.4,0.4l-0.5-0.8l0.5-0.7l-0.9,0.1l-1.2-0.4l-1,1l-2.1,0.2l-1.1-0.9l-1.5-0.1l-0.3,0.7l-1,0.2l-1.4-0.9l-1.5,0l-0.8-1.8
		l-1-1l0.7-1.4l-0.9-0.9l1.6-1.8l2.2-0.1l0.6-1.4l2.7,0.2l1.7-1.2l1.6-0.5l2.3,0L293.7,180.6z M279.9,181.8l-1.2,1l-0.4-0.9l0-0.4
		l0.3-0.2l0.4-1.2l-0.7-0.5l1.4-0.6l1.2,0.3l0.2,0.7l1.2,0.6l-0.3,0.5l-1.7,0.1L279.9,181.8z"/>
	<path id="TT" d="M154.1,229.4l0.8-0.2l0.3,0l-0.1,1.1l-1.2,0.2l-0.3-0.1l0.4-0.4L154.1,229.4z"/>
	<path id="TW" d="M413.8,209.2l-0.9,2.5l-0.6,1.2l-0.7-1.3l-0.2-1.1l0.8-1.5l1.1-1.2l0.6,0.5L413.8,209.2z"/>
	<path id="TZ" d="M289.4,245.9l0.2,0.2l5.1,2.9l0.1,0.8l2,1.4l-0.7,1.7l0.1,0.8l0.9,0.5l0,0.4l-0.4,0.9l0.1,0.4l-0.1,0.7l0.5,0.9
		l0.6,1.4l0.5,0.3l-1.1,0.8l-1.5,0.6l-0.8,0l-0.5,0.4l-1,0l-0.4,0.2l-1.7-0.4l-1.1,0.1l-0.4-1.9l-0.5-0.7l-0.3-0.4l-1.4-0.3
		l-0.8-0.4l-0.9-0.2l-0.6-0.2l-0.6-0.4l-0.8-1.8l-0.8-0.8l-0.3-0.8l0.1-0.7l-0.3-1.3l0.6-0.1l0.5-0.5l0.6-0.7l0.3-0.3l0-0.5
		l-0.3-0.3l-0.1-0.6l0.4-0.2l0.1-0.8l-0.6-0.8l0.5-0.2l1.6,0L289.4,245.9z"/>
	<path id="UA" d="M286.4,158.4l0.5,0.1l0.4-0.5l0.4,0.1l1.5-0.2l0.9,1.3l-0.4,0.5l0.1,0.7l1.1,0.1l0.5,1l0,0.4l1.8,0.8l1.1-0.3
		l0.9,1l0.8,0l2.1,0.7l0,0.6l-0.6,1.1l0.3,1.2l-0.2,0.7l-1.4,0.2l-0.7,0.6l0,0.9l-1.1,0.2l-0.9,0.7l-1.3,0.1l-1.2,0.8l-0.7,0.5
		l0.8,0.7l0.7,0.5l1.4-0.1l-0.3,0.7l-1.5,0.3l-1.9,1.1l-0.8-0.4l0.3-0.9l-1.5-0.6l0.2-0.4l1.6-0.8l-0.2-0.4l-0.2,0.2l-0.2-0.1
		l-2.2-0.5l-0.1-0.8l-1.3,0.3l-0.5,1.1l-1.1,1.5l-0.6-0.3l-0.7,0.3l-0.6-0.4l0.4-0.2l0.2-0.7l0.4-0.6l-0.1-0.4l0.3-0.2l0.1,0.3
		l0.8,0.1l0.4-0.2l-0.3-0.2l0.1-0.3l-0.5-0.5l-0.2-0.9l-0.5-0.3l0.1-0.7l-0.6-0.6l-0.6-0.1l-1-0.7l-0.9,0.2l-0.3,0.3l-0.6,0
		l-0.4,0.5l-1,0.2l-0.5,0.3l-0.7-0.5l-0.9,0l-0.9-0.2l-0.6,0.5l-0.1-0.6l-0.8-0.6l0.3-0.9l0.4-0.6l0.3,0.1l-0.4-1l1.3-1.8l0.7-0.3
		l0.2-0.6l-0.7-2l0.7-0.1l0.8-0.6l1.1-0.1l1.4,0.2l1.6,0.5l1.1,0l0.5,0.3l0.5-0.4l0.4,0.5l1.3-0.1l0.6,0.2l0.1-1.1l0.4-0.5
		L286.4,158.4z"/>
	<path id="UG" d="M286.5,246.1l-1.6,0l-0.5,0.2l-0.8,0.4l-0.3-0.1l0-1.1l0.3-0.5l0.1-1.1l0.3-0.7l0.5-0.7l0.5-0.4l0.5-0.5l-0.6-0.2
		l0.1-1.6l0.6-0.4l0.9,0.3l1.1-0.3l1,0l0.9-0.6l0.7,1l0.2,0.7l0.6,1.6l-0.5,1l-0.7,0.9l-0.4,0.6l0,1.5L286.5,246.1z"/>
	<path id="US" d="M56.7,151.9L56.7,151.9l-0.8-0.9l-1.2-0.8l-0.4-2.2l-1.8-2.1l-0.8-2.5l-1.4-0.2l-2.3-0.1l-1.7-0.8l-2.9-2.8
		l-1.4-0.5l-2.5-1l-2,0.2l-2.8-1.3l-1.7-1.2l-1.6,0.6l0.3,2l-0.8,0.2l-1.6,0.6l-1.2,0.9l-1.6,0.6l-0.2-1.6l0.6-2.8l1.5-0.9l-0.4-0.7
		l-1.8,1.6l-1,1.9l-2,2l1,1.3l-1.3,1.9l-1.5,1.1l-1.4,0.8l-0.4,1.2l-2.2,1.3l-0.4,1.2l-1.7,1.1l-1-0.2l-1.3,0.7l-1.4,0.8l-1.2,0.8
		l-2.4,0.7L8,152.5l1.5-1.1l1.4-0.8l1.5-1.4l1.8-0.3l0.7-1l2-1.5l0.3-0.5l1-0.9l0.2-2l0.7-1.6l-1.6,0.8l-0.5-0.5l-0.8,1l-0.9-1.4
		l-0.4,1l-0.5-1.4l-1.4,1.1l-0.9,0l-0.1-1.6l0.3-1l-0.9-1l-1.8,0.5l-1.2-1.3l-1-0.7l0-1.6L6.3,134l0.5-1.7l1.2-1.7l0.5-1.6l1.1-0.2
		l1,0.5l1.1-1.5l1,0.3l1.1-1l-0.3-1.5l-0.8-0.6l1-1.3l-0.9,0l-1.5,0.7l-0.4,0.7l-1.1-0.7l-2,0.4L5.9,124l-0.6-1.3l-1.8-2l2-1.4
		l3.2-1.7h1.2l-0.2,1.8l3-0.1l-1.1-2.2l-1.7-1.4l-1-1.8l-1.4-1.6l-1.9-1.2l0.8-2l2.5-0.1l1.8-1.8l0.3-2l1.4-2l1.4-0.5l2.7-1.9
		l1.3,0.3l2.2-2.3l2.1,0.9l1,2l0.6-0.8l2.4,0.3l-0.1,1l2.2,0.7l1.4-0.4l3,1.3l2.7,0.4l1.1,0.5l1.9-0.7l2.1,1.2l1.5,0.6l0,14l0,17.9
		l1.4,0.1l1.4,0.8l1,1.2l1.3,1.8l1.4-1.5l1.4-0.9l0.8,1.4l1,1.1l1.3,1.2l0.9,1.9l1.4,3l2.4,1.6l0,1.6L56.7,151.9z M145.5,169.3
		l-0.6-0.6l-0.9,0.4l-0.5-0.5l-1.1,1.6l-0.4,1.6l-0.5,0.9l-0.6,0.3l-0.5,0.1l-0.1,0.5l-2.6,0l-2.2,0l-0.6,0.4l-1.4,1.4l0.1,0.3
		l0.1,0.8l-1.1,0.6l-1.2-0.2l-1.1-0.1l-0.7,0.2l0.1,0.6v0l0,0.2l-1.2,1.1l-1.1,0.5l-0.7,0.3l-0.8,0.5l-1,0.3l-0.7-0.1l-0.9-0.4
		l0.5-0.7l0.3-0.7l0.7-1.1l-0.1-0.8l-0.3-1.1l-0.5-0.2l-0.9,0.9l-0.3,0l-0.1-0.5l0.8-0.8l0.1-0.9l-0.1-0.9l-1-0.8l-1.2-0.4l-0.2,0.8
		l-0.3,0.2l-0.3,1l-0.1-0.7l-0.6,0.5l-0.4,0.7l-0.4,1l-0.1,0.8l0.5,1.2l0,1.3l-0.6,0.9l-0.3,0.3l-0.4,0.2l-0.5,0l-0.1-0.1l-0.4-1
		l0-0.5l0-0.5L117,177l0.3-1.1l0.3-1.4l0.7-1.5l-0.2,0l-1,1.3l-0.2-0.2l0.6-0.7l0.8-1.3l1-0.2l1.1-0.4l1.1,0.2l0,0l1.2-0.2l-0.7-0.8
		l-0.4-0.1l-0.4-0.1L121,170l-1.4,0.2l-1.3,0.5l-1-0.8l-0.8-0.3l0.5-1.1l-1.2,0.7l-1.1,0.7l-1.1,0.5l-0.9-0.7l-1.4,0.4l0-0.3l1-0.9
		l1-0.8l1.4-0.7l-1.7-0.5l-1.1,0.3l-1.4-0.7l-1.4-0.3l-1-0.1l-0.4-0.4l-0.3-1.2l-0.5,0l0,0.8l-2.9,0l-4.8,0h-4.8h-4.2h-4.2h-4.2
		h-4.3h-1.4h-4.2h-4l0.5,1.7l0.2,1.7l-0.3,0.5l-0.8-2l-2-0.7L65,167l0.4,1l0.4,1.8l0.3,2.7l-0.2,1.8l-0.2,1.8l-0.6,1.8l0.5,1.5
		l0,1.6l-0.3,1.5l0.8,1l0.2,1.5l1.1,1.5l0.6,0.6l-0.1,0.4l1.2,2.4l1.4,1.7l0.2,0.9l0.4,0.3l1.3,0.2l0.5,0.5l0.8,0.1l0.2,0.5l0.7,0.2
		l0.9,1l0.2,0.9l1.6-0.1l1.8-0.2l-0.1,0.3l2.1,0.8l3.2,1.2l2.8,0l1.1,0l0-0.7l2.5,0l0.5,0.6l0.7,0.5l0.8,0.7l0.5,0.9l0.4,0.9
		l0.7,0.5l1.2,0.5l0.9-1.3l1.2,0l1,0.6l0.7,1.1l0.5,0.9l0.8,0.9l0.3,1.1l0.4,0.7l1.1,0.5l1,0.3l0.6,0l-0.3-0.5l-0.1-0.8l0-1.1
		l0.3-0.7l0.8-0.8l1.4-0.7l1.3-1.2l1.2-0.4l0.9-0.1l1,0.4l1.2-0.2l1.1,0.9l1,0.1l0.5-0.3l0.5,0.2l0.3-0.2l-0.3-0.3l0-0.7l-0.3-0.4
		l0.6-0.3l1.1-0.1l1.3,0.2l1.6-0.2l0.9,0.4l0.7,0.8l0.3,0.1l1.4-0.7l0.6,0.2l1.1,1.4l0.4,0.9l-0.3,1.1l0.2,0.6l0.7,1.2l0.8,1.4
		l0.5,0.4l0.2,0.7l0.7,0.2l0.4-0.2l0.4-1l0.1-0.6l0-1.1l-0.7-1.8l0-0.7l-0.6-1.1l-0.5-1.4l-0.3-1.1l0.2-1.2l0.7-1l0.8-0.8l1.6-1.1
		l0.2-0.6l0.7-0.6l0.7-0.1l0.9-1l1.5-0.5l0.9-1.3l-0.2-1.7l-0.1-0.6l-0.4-0.1l-0.1-1.7l-1-0.6l0.9,0.3l-0.3-1.1l0.3-0.8l0.2,1.5
		l0.7,0.7l-0.4,1.2l0.1,0.1l0.8-1.4l0.5-0.7l0-0.7l-0.4-0.3l-0.3-1l0.5,0.5l0.3,0.1l0.1,0.5l1-1.4l0.3-1.3l-0.4-0.1l0.4-0.5l0,0.2
		l0.9,0l2-0.6l-0.4-0.4l-2.1,0.4l1.2-0.5l0.8-0.1l0.6-0.1l1-0.3l0.7,0l1-0.3l0.1-0.5l-0.4-0.4l0.1,0.7l-0.6,0l-0.5-1l0-1l0.2-0.4
		l0.7-1.2l1.5-0.6l1.5-0.7l1.5-1l-0.2-0.7l-0.9-1.1L145.5,169.3z M24.6,143.9l-0.8,0.4l-1.3,0.9l0.2,1.2l0.7,0.7l1.4-1l1.2-1.2
		l-0.6-0.8L24.6,143.9z M1.6,129.5l1-0.6l0.1-0.3l-1.1-0.3V129.5z M5.8,137.2l-1.4,0.5l0.9,0.8l0.9,0.5l0.9-0.4L7,137.5L5.8,137.2z
		 M55,153.6l-1.4,0.2l-0.7-0.3l-0.1,0.8l0.3,1l0.7,0.7l0.5,1.1l0.9,1.1l0.6,0l-1.2-1.9L55,153.6z M20.3,214.5l-0.5-0.1l-0.1,0.1
		l0,0.1l0.2,0.1l0.2,0.3l0.5-0.1l0.1-0.2L20.3,214.5z M18.8,214.2l0.8,0l0-0.2l-0.7-0.1L18.8,214.2z M21.8,215.9l-0.3-0.1l-0.5-0.3
		l-0.1,0l-0.1,0.1l0.1,0.3l-0.2,0.2l-0.1,0.2l0.2,0.5l0,0.4l0.4,0.2l0.2-0.2l0.5-0.2l0.6-0.3l0-0.1l-0.4-0.5L21.8,215.9z
		 M17.8,213.3l-0.4,0.2l0.1,0.1l0.2,0.3l0.5,0.1l0.1,0l0.1-0.1l-0.4-0.5L17.8,213.3z M15.6,212.5l-0.2,0.1l-0.1,0.1l0.5,0.3l0.2-0.1
		l0-0.4L15.6,212.5z"/>
	<path id="UY" d="M159.9,289.2l0.9-0.2l1.4,1.3l0.5,0l1.5,1.1l1.1,0.9l0.8,1.1l-0.6,0.8l0.4,1l-0.6,1.1l-1.6,1l-1-0.3l-0.8,0.2
		l-1.3-0.7l-1,0.1l-0.9-0.9l0.1-1.1l0.3-0.4l0-1.7l0.4-1.7L159.9,289.2z"/>
	<path id="UZ" d="M335.6,187.9l0-1.1l-1.9-0.8l-1.5-0.9l-0.9-0.9l-1.6-1.3l-0.7-1.9l-0.5-0.3l-1.5,0.1l-0.5-0.4l-0.2-1.5l-1.9-1
		l-1.2,1.1l-1.2,0.7l0.2,0.9l-1.6,0l-0.1-7.1l3.6-1.2l0.3,0.2l2.2,1.4l1.2,0.7l1.4,1.8l1.7-0.3l2.4-0.2l1.7,1.4l-0.1,1.9l0.7,0
		l0.3,1.5l1.8,0.1l0.4,0.9l0.5,0l0.6-1.3l1.9-1.3l0.8-0.4l0.4,0.2l-1.2,1.2l1,0.7l1-0.5l1.7,1l-1.8,1.3l-1.1-0.2l-0.6,0l-0.2-0.5
		l0.3-0.9l-1.9,0.4l-0.5,1.2l-0.7,1l-1.2-0.1l-0.4,0.8l1,0.4l0.3,1.3l-0.8,1.8l-1.1-0.4L335.6,187.9z"/>
	<path id="VE" d="M140.5,227.9l0,0.3l-0.8,0.2l0.5,0.7l0,0.7l-0.6,0.8l0.5,1.1l0.6-0.1l0.3-1l-0.4-0.5l-0.1-1.1l1.8-0.6l-0.2-0.7
		l0.5-0.5l0.5,1l1,0l0.9,0.8l0.1,0.5l1.3,0l1.5-0.1l0.8,0.6l1.1,0.2l0.8-0.4l0-0.4l1.8-0.1l1.7,0l-1.2,0.4l0.5,0.7l1.1,0.1l1.1,0.7
		l0.2,1.1l0.7,0l0.6,0.3l-1.1,0.8l-0.1,0.5l0.5,0.5l-0.4,0.3l-0.9,0.2l0,0.7l-0.4,0.4l1,1.1l0.2,0.4l-0.5,0.5l-1.6,0.5l-1,0.2
		l-0.4,0.3L151,239l-1-0.2l-0.3,0.1l0.6,0.4l-0.1,0.9l0.2,0.9l1.2,0.1l0.1,0.3l-1,0.4l-0.2,0.6l-0.6,0.2l-1.1,0.3l-0.3,0.4l-1.1,0.1
		l-0.8-0.7l-0.4-1.4L146,241l-0.5-0.3l0.7-0.7l0-0.3l-0.4-0.4l-0.3-0.9l0.1-1l0.3-0.5l0.3-0.8l-0.5-0.2l-0.8,0.2l-1-0.1l-0.6,0.2
		l-1-1.2l-0.8-0.2l-1.8,0.1l-0.3-0.5l-0.3-0.1l0-0.3l0.2-0.5l-0.1-0.6l-0.3-0.3l-0.2-0.7l-0.7-0.1l0.4-0.8l0.2-1l0.4-0.5l0.5-0.4
		l0.4-0.7L140.5,227.9z"/>
	<path id="VN" d="M394.3,213.6l-1.9,1.3l-1.2,1.4l-0.3,1l1.1,1.6l1.3,1.9l1.3,0.9l0.9,1.2l0.6,2.7l-0.2,2.5l-1.2,0.9l-1.6,0.9
		l-1.2,1.2l-1.8,1.3l-0.5-0.9l0.4-1l-1-0.8l1.2-0.6l1.5-0.1l-0.6-0.9l2.4-1.1l0.2-1.7l-0.3-1l0.3-1.5l-0.4-1l-1.1-1l-0.9-1.3
		l-1.2-1.7l-1.7-0.9l0.4-0.5l0.9-0.4l-0.5-1.3l-1.7,0l-0.6-1.4l-0.8-1.2l0.8-0.4l1.1,0l1.4-0.2l1.2-0.8l0.7,0.6l1.3,0.3l-0.2,0.9
		l0.7,0.6L394.3,213.6z"/>
	<path id="VU" d="M479,268.1l-0.5,0.2l-0.5-0.6l0.1-0.4L479,268.1z M477.9,265.8l0.2,1.2l-0.4-0.2l-0.3,0.1l-0.2-0.4l0-1.1
		L477.9,265.8z"/>
	<path id="YE" d="M316.6,220.9l-1,0.4l-0.3,0.7l0,0.5l-1.4,0.6l-2.3,0.7l-1.3,1l-0.6,0.1l-0.4-0.1l-0.8,0.6l-0.9,0.3l-1.2,0.1
		l-0.4,0.1l-0.3,0.4l-0.4,0.1l-0.2,0.4l-0.7,0l-0.5,0.2l-1-0.1l-0.4-0.8l0-0.8l-0.2-0.4l-0.3-1.1l-0.4-0.6l0.3-0.1l-0.1-0.7l0.2-0.3
		l-0.1-0.6l0.6-0.5l-0.1-0.6l0.4-0.7l0.6,0.4l0.4-0.1l1.6,0l0.3,0.1l1.4,0.1l0.5-0.1l0.4,0.5l0.7-0.2l1-1.6l1.3-0.7l4.1-0.6l1.1,2.4
		L316.6,220.9z"/>
	<path id="ZA" d="M286,287.7l-0.3,0.2l-0.6,0.8l-0.4,0.8l-0.8,1.2l-1.6,1.7l-1,1l-1.1,0.8l-1.5,0.7l-0.7,0.1l-0.2,0.5l-0.9-0.3
		l-0.7,0.3l-1.5-0.3l-0.9,0.2l-0.6-0.1l-1.5,0.7l-1.2,0.3l-0.9,0.6l-0.6,0l-0.6-0.6l-0.5,0l-0.6-0.8l-0.1,0.2l-0.2-0.5l0-1l-0.5-1.1
		l0.5-0.3l0-1.3l-0.9-1.5l-0.7-1.4l0,0l-1-2.1l0.7-0.8l0.6,0.4l0.2,0.7l0.6,0.1l0.9,0.3l0.8-0.1l1.3-0.8l0-5.8l0.4,0.2l0.8,1.5
		l-0.1,1l0.3,0.6l1-0.2l0.7-0.7l0.7-0.5l0.3-0.7l0.7-0.4l0.6,0.2l0.7,0.4l1.2,0.1l0.9-0.4l0.1-0.5l0.2-0.7l0.8-0.1l0.4-0.6l0.5-1
		l1.3-1.1l2-1.1l0.6,0l0.7,0.3l0.5-0.2l0.8,0.2l0.7,2.2l0.4,1.1l-0.3,1.7l0.1,0.6l-0.7-0.3l-0.4,0.1l-0.1,0.5l-0.4,0.6l0,0.5
		l0.8,0.9l0.8-0.2l0.3-0.7l1.1,0l-0.4,1.2l-0.2,1.3l-0.4,0.7L286,287.7z M282.4,287.2l-0.6-0.5l-0.7,0.3l-0.8,0.6l-0.8,1l1.1,1.3
		l0.5-0.2l0.3-0.5l0.8-0.3l0.2-0.5l0.4-0.8L282.4,287.2z"/>
	<path id="ZM" d="M287.8,257.6l0.7,0.6l0.4,1.2l-0.2,0.4l-0.3,1.2l0.3,1.2l-0.4,0.5l-0.4,1.3l0.7,0.4l-4.3,1.2l0.1,1l-1.1,0.2
		l-0.8,0.6l-0.2,0.5l-0.5,0.1l-1.2,1.2l-0.8,1l-0.5,0l-0.5-0.2l-1.6-0.2l-0.3-0.1l0-0.1l-0.6-0.3l-0.9-0.1l-1.2,0.3l-0.9-0.9l-1-1.2
		l0.1-4.6l2.9,0l-0.1-0.5l0.2-0.5l-0.2-0.7l0.2-0.7l-0.1-0.4l0.5,0l0.1,0.4l0.7,0l0.9,0.1l0.5,0.7l1.1,0.2l0.9-0.5l0.3,0.8l1.1,0.2
		l0.5,0.6l0.6,0.8l1.1,0l-0.1-1.6l-0.4,0.3l-1-0.6l-0.4-0.3l0.2-1.4l0.3-1.7l-0.3-0.6l0.4-0.9l0.4-0.2l1.9-0.2l0.6,0.1l0.6,0.4
		l0.6,0.2l0.9,0.2L287.8,257.6z"/>
	<path id="ZW" d="M285.6,276.7l-0.8-0.2l-0.5,0.2l-0.7-0.3l-0.6,0l-0.9-0.7l-1.1-0.2l-0.4-1l0-0.5l-0.6-0.2l-1.6-1.6l-0.4-0.9
		l-0.3-0.3l-0.5-1.2l1.6,0.2l0.5,0.2l0.5,0l0.8-1l1.2-1.2l0.5-0.1l0.2-0.5l0.8-0.6l1.1-0.2l0.1,0.5l1.2,0l0.7,0.3l0.3,0.4l0.7,0.1
		l0.7,0.5l0,1.9l-0.3,1l-0.1,1.1l0.2,0.4l-0.2,0.9l-0.2,0.1l-0.4,1.1L285.6,276.7z"/>
</g>
</svg>
