<?xml version="1.0" encoding="UTF-8"?>
<svg id="Layer_1" xmlns="http://www.w3.org/2000/svg" xmlns:amcharts="http://amcharts.com/ammap" version="1.1" viewBox="0 0 512 512">
  <!-- Generator: Adobe Illustrator 29.1.0, SVG Export Plug-In . SVG Version: 2.1.0 Build 142)  -->
  <g id="_x3C_defs">
    <amcharts:ammap bottomLatitude="-55.621433" leftLongitude="-169.522279" projection="mercator" rightLongitude="190.122401" topLatitude="83.646363"/>
  </g>
  <g>
    <path id="AE" d="M314.1,290.3h.3c0,0,0,.3,0,.3l1.1-.2h1.2s.8,0,.8,0l1-1,1.1-1,.9-1,.3.5.2,1.2h-.7s-.1,1-.1,1l.3.2-.6.3v.6s-.4.6-.4.6v.6s-.3.3-.3.3l-4.2-.8-.5-1.5v-.4Z"/>
    <path id="AF" d="M327.6,271.8l1.4.7,1.1-.2.3-.8,1.1-.3.8-.5.3-1.4,1.2-.3.2-.6.7.5h.4c0,0,.8,0,.8,0l1.1.4.4.2,1-.6.5.3.5-.8h.8s.2-.2.2-.2l.2-.7.6-.6.8.4-.2.5h.4c0,0-.1,1.6-.1,1.6l.6.6.5-.4.6-.2.9-.8h1c0,.1,1.5.1,1.5.1l.3.5-.8.2-.7.3-1.6.2-1.5.4-.8.8.3.7.2.9-.7.7v.7c0,0-.3.6-.3.6h-1.3c0,0,.6,1.1.6,1.1l-.9.4-.6,1v1c0,0-.5.5-.5.5l-.5-.2-1.1.2-.2.5h-1l-.8.9v1.4c0,0-1.9.7-1.9.7h-1c0-.1-.3.2-.3.2l-.8-.2-1.4.2-2.4-.8,1.3-1.5v-1.1c-.1,0-1.2-.3-1.2-.3v-1c-.1,0-.6-1.3-.6-1.3l.6-.9-.6-.2.4-1.2.6-2.1Z"/>
    <path id="AL" d="M270.5,260.6l-.2.6.2.8.6.5v.5s-.5.3-.5.3v.6c0,0-.7.9-.7.9h-.2c0-.1,0-.5,0-.5l-.8-.6v-.9c-.1,0,0-1.3,0-1.3l.2-.6-.2-.3v-.6c0,0,.5-.9.5-.9v.4c0,0,.5-.2.5-.2l.3.5.3.2v.7Z"/>
    <path id="AM" d="M302.8,262l2-.3.3.5.5.3-.3.5.8.6-.4.6.6.5.6.3v1.3s-.5,0-.5,0l-.6-1v-.3s-.6,0-.6,0l-.4-.5h-.3c0,0-.6-.5-.6-.5l-1-.5v-.9c.1,0-.1-.7-.1-.7Z"/>
    <path id="AO" d="M264.5,333.5l.3,1,.4.8.3.5.5.7h.9c0-.1.5-.3.5-.3l.8.2.2-.4.4-.8h.9c0,0,0-.3,0-.3h.7s-.1.5-.1.5h1.7s0,.9,0,.9l.3.5-.2.9v.9c.1,0,.6.5.6.5v1.7c0,0,.3-.1.3-.1h.6s.9-.2.9-.2h.6c0,0,.2.5.2.5l-.2.7.2.7-.2.5v.5c.1,0-2.8,0-2.8,0v4.6c0,0,.9,1.2.9,1.2l.9.9-2.6.6-3.4-.2-1-.7h-5.7c0,0-.2.2-.2.2l-.8-.7h-.9s-.8.2-.8.2l-.7.3v-.9c-.1,0,0-1.3,0-1.3l.5-1.3v-.6c0,0,.5-1.3.5-1.3l.3-.6.8-.9.5-.6v-1.1c.1,0,0-.8,0-.8l-.4-.5-.4-.9-.3-.8v-.3c0,0,.5-.6.5-.6l-.4-1.4-.3-.9-.7-.9v-.3c.1,0,.7-.2.7-.2h.4s.5-.1.5-.1h4.2ZM259,333.2l-.4.2-.4-1.1.6-.6.4-.2.5.5-.5.3-.2.4v.6Z"/>
    <path id="AR" d="M149.3,418.4h-1.3c0,.1-.7-.7-.7-.7h-.8c0,0-1.5,0-1.5,0v-5.3l.5,1.1.7,1.8,1.8,1.4,2,.6-.6,1.2ZM150.1,356.9l.8,1.1.5-1.2h1.6c0,0,.2.4.2.4l2.6,2.5,1.1.2,1.7,1.1,1.5.6.2.7-1.4,2.4,1.4.4,1.6.2,1.1-.3,1.3-1.2.2-1.4.7-.3.7.9v1.2s-1.2.9-1.2.9l-.9.6-1.6,1.5-1.9,2.2-.4,1.3-.4,1.7v1.7s-.3.4-.3.4v1.1c-.1,0-.2.9-.2.9l1.8,1.5-.2,1.2.9.8v.9c0,0-1.4,2.3-1.4,2.3l-2.1,1-2.8.4-1.5-.2.3,1.1-.3,1.4.3.9-.8.7-1.4.3-1.4-.7-.5.5.2,1.9.9.6.8-.6.4,1-1.3.6-1.1,1.2-.2,2-.3,1.1h-1.3s-1.1,1-1.1,1l-.4,1.5,1.4,1.5,1.3.4-.5,1.9-1.7,1.2-.9,2.5-1.3.9-.6,1,.5,2.3.9,1.3h-.6c0-.1-1.3-.5-1.3-.5l-3.4-.3-.6-1.3v-1.7s-.9.1-.9.1l-.5-.8v-2.3c-.1,0,1-.9,1-.9l.4-1.3-.2-1.1.7-1.8.5-2.7-.2-1.2.6-.4-.2-.7-.7-.4.5-.8-.6-.7-.3-2.2.6-.4-.2-2.3.3-1.9.4-1.6.8-.7-.4-1.7v-1.6s1.1-1.1,1.1-1.1v-1.4s.8-1.7.8-1.7v-1.6s-.4-.3-.4-.3l-.6-2.9.9-1.7v-1.6c-.1,0,.4-1.5.4-1.5l.9-1.5,1-1-.4-.6.3-.5v-2.6s1.5-.8,1.5-.8l.5-1.6-.2-.4,1.2-1.4,1.8.4Z"/>
    <path id="AT" d="M265.4,248.2v.9c-.1,0-.9,0-.9,0l.3.4-.5,1.3-.3.3h-1.2c0,0-.7.5-.7.5l-1.2-.2-2-.5-.3-.7-1.4.4-.2.4-.9-.3h-.7c0,0-.6-.4-.6-.4l.2-.5v-.4c0,0,.4-.1.4-.1l.7.6.2-.5h1.2c0,0,1-.3,1-.3h.7c0,0,.4.5.4.5v-.4c.1,0,0-1.4,0-1.4l.5-.3.5-1,1,.7.8-.9.5-.2,1.1.7h.7c0-.1.7.3.7.3v.3c-.1,0,0,.7,0,.7Z"/>
    <path id="AU" d="M446.1,387.9l1.4.6.8-.3,1.1-.4h.8c0,.1.1,2.3.1,2.3l-.5.7v1.5c-.1,0-.6-.5-.6-.5l-1,1.3h-.3c0-.1-.9-.2-.9-.2l-.9-1.6-.2-1.3-.8-1.6v-.9s1,.2,1,.2ZM443.5,344.7l.5,1.1.9-.5.5.6.7.6v.6c-.1,0,.2,1.2.2,1.2l.2.7.4.2.4,1.3v.8c-.1,0,.3,1,.3,1l1.5.8,1,.7.9.6-.2.4.8.9.5,1.6.6-.3.6.7.3-.2.2,1.6,1,.9.7.6,1.1,1.2.4,1.2v.9s0,1,0,1l.7,1.3v1.4c0,0-.3.7-.3.7l-.4,1.4v.9s-.2,1.2-.2,1.2l-.6,1.5-1,.8-.5,1.3-.5.8-.4,1.5-.5.9-.4,1.3-.2,1.2v.6c0,0-.7.6-.7.6h-1.6c0,0-1.3.8-1.3.8l-.6.7-.8.8-1.2-.8-.9-.3.2-.9-.8.3-1.2,1.3-1.2-.5-.8-.3h-.8c0-.1-1.4-.6-1.4-.6l-.9-1.1-.3-1.3-.3-.9-.7-.7-1.4-.2.5-.8-.3-1.3-.7,1.2-1.3.3.7-.9.2-1,.5-.8v-1.2c-.1,0-1.3,1.4-1.3,1.4l-.9.6-.5,1.4-1.1-.7v-.9s-.8-1.2-.8-1.2l-.7-.6.3-.4-1.8-1h-1s-1.4-.8-1.4-.8l-2.5.2-1.8.6-1.6.6h-1.3c0-.1-1.5.7-1.5.7l-1.2.4-.3.9-.5.7h-1.2s-.9.2-.9.2l-1.2-.3-1,.2h-1c0,0-.8,1-.8,1h-.4c0,0-.7.4-.7.4l-.7.5h-1c0,0-.9,0-.9,0l-1.5-1.1-.8-.3v-1s.7-.2.7-.2l.2-.4v-.6c0,0,.1-1.2.1-1.2l-.2-1-.7-1.7-.2-.9v-.9c0,0-.5-1-.5-1v-.5s-.7-.6-.7-.6l-.2-1.2-.8-1.2-.2-.7.6.7-.5-1.4.7.5.4.6v-.8s-.7-1.2-.7-1.2v-.5c-.1,0-.5-.5-.5-.5l.2-.9.3-.4.2-.8-.2-.9.6-1.1v1.1c.1,0,.7-1,.7-1l1.1-.5.7-.6,1.1-.6h.6c0-.1.4,0,.4,0l1.1-.6.9-.2.2-.3h.4c0-.1.8-.1.8-.1l1.5-.4.8-.7.4-.8.8-.7v-.6c0,0,.1-.8.1-.8l1-1.2.6,1.3.6-.3-.5-.7.4-.7.6.3.2-1.1.8-.7.3-.6.7-.2v-.4s.6.2.6.2v-.4s.6-.2.6-.2l.7-.2,1,.7.8.9h.9s.9.1.9.1l-.3-.8.7-1.2.6-.4-.2-.4.6-.8.9-.5.7.2,1.2-.3v-.7s-1.1-.5-1.1-.5l.7-.2.9.4.7.6,1.2.4h.4c0-.1.9.3.9.3l.8-.4h.5c0,.1.3-.2.3-.2l.6.7-.4.8-.5.6h-.5c0,0,.2.6.2.6l-.4.7-.5.7v.4c.1,0,1.2.8,1.2.8l1.1.5.7.5,1,.9h.4l.7.4.2.5,1.3.5.9-.5.3-.8.3-.6.2-.8.4-1.2-.2-.7v-.4c.1,0,0-.8,0-.8l.2-1.1.3-.3-.2-.5.3-.8.3-.8v-.4s.6-.5.6-.5l.4.7v.9c0,0,.4.2.4.2v.6c0,0,.6.7.6.7v.8c.1,0,0,.5,0,.5Z"/>
    <path id="AZ" d="M304.8,264.5l.4.5h.6s0,.3,0,.3l.6,1-1-.2-.7-.8-.2-.7h.3ZM308.2,261.8h.6c0,.1.2-.4.2-.4l.8-.8.7,1,.7,1.3h.7c0,0,.4.6.4.6h-1.2c0,.1-.2,1.6-.2,1.6l-.2.6-.5.4v.9s-.3,0-.3,0l-.9-.9.5-.9-.4-.5h-.5c0,.1-1.7,1.5-1.7,1.5v-1.3s-.7-.3-.7-.3l-.6-.5.4-.6-.7-.6.3-.5-.5-.3-.3-.5.3-.3,1,.5h.8c0,.1.2-.1.2-.1l-.7-1,.4-.3h.4c0,0,1,1.2,1,1.2Z"/>
    <path id="BA" d="M268.2,254.8h.5s-.4.9-.4.9l.7.8-.2.9h-.3c0,0-.3.3-.3.3l-.5.4-.2,1.1-1.2-.7-.5-.8-.5-.4-.6-.7-.3-.6-.7-.9.3-.8.5.5.3-.4h.7s1.2.3,1.2.3h1s.6.4.6.4Z"/>
    <path id="BD" d="M371.9,293.6v1.1s-.5-.2-.5-.2v1.2c0,0-.3-.8-.3-.8v-.8c0,0-.4-.7-.4-.7l-.6-.9h-1.3c0,0,.1.6.1.6l-.4.8-.6-.3-.2.3-.4-.2h-.5c0-.1-.2-1.4-.2-1.4l-.5-1.1.2-.9-.9-.4.3-.6.9-.6-1-.8.5-1.1,1.1.7h.7c0,0,.1,1.2.1,1.2l1.3.2h1.3s.8.2.8.2l-.6,1.3h-.6c0,0-.4,1-.4,1l.8.8.2-1h.4s.7,2.4.7,2.4Z"/>
    <path id="BE" d="M246.2,241.2l1,.2,1.3-.5.9,1,.8.5-.2,1.5h-.4c0,0-.2,1.3-.2,1.3l-1.2-1-.7.2-1-1-.7-.9h-.7s-.2-.8-.2-.8l1.1-.4Z"/>
    <path id="BF" d="M237.5,311.7l-1-.4h-.7c0,0-.5.4-.5.4l-.6-.3-.2-.5-.6-.3v-.8c0,0,.3-.6.3-.6v-.5s1.1-1.2,1.1-1.2l.2-1,.4-.4.7.2.6-.3.2-.4,1.1-.6.3-.5,1.3-.6.8-.2.4.3h.9s-.1.7-.1.7l.2.7.8.9v.7s1.7.3,1.7.3v1s-.3.4-.3.4h-.7c0,.1-.3.8-.3.8l-.5.2h-1.2s-.7-.1-.7-.1l-.5.2h-.6c0-.1-2.4,0-2.4,0v.8s.2,1.1.2,1.1Z"/>
    <path id="BG" d="M273.4,256l.4.8h.5c0-.1,1.1.2,1.1.2h2.1c0,.1.7-.4.7-.4l1.7-.5,1,.7.8.2-.7.8-.5,1.4.5,1.1-1.2-.3-1.4.6v.9s-1.3.2-1.3.2l-1-.7-1.1.5h-1c0,0-.1-1.3-.1-1.3l-.7-.6.2-.3-.2-.2.2-.6.5-.6-.7-.8v-.7c-.1,0,.2-.4.2-.4Z"/>
    <path id="BI" d="M282.8,331.5v-1.7c0,0-.4-.6-.4-.6h.9c0,.1.4-.7.4-.7h.7c0,0,0,.6,0,.6l.3.3v.5s-.3.3-.3.3l-.6.7-.5.5h-.6Z"/>
    <path id="BJ" d="M245.3,316.5l-1.2.2-.3-1v-3.2c0,0-.2-.3-.2-.3v-.7c0,0-.5-.5-.5-.5l-.4-.4.2-.8.5-.2.3-.6h.7c0-.1.3-.6.3-.6l.5-.4h.5s1.1.8,1.1.8v.5c0,0,.3.8.3.8l-.3.6v.4c.1,0-.5.9-.5.9l-.4.4-.3.9v.9s0,2.3,0,2.3Z"/>
    <path id="BN" d="M402.2,318.9l.6-.5,1.2-.8v.7c0,0-.1.9-.1.9h-.7s-.3.4-.3.4l-.6-.7Z"/>
    <path id="BO" d="M153,356.8h-1.6c0,0-.5,1.2-.5,1.2l-.8-1.1-1.8-.4-1.2,1.4-1,.2-.6-2.1-.8-1.7.4-1.4-.7-.6-.2-1.1-.7-1,.9-1.6-.6-1.2.3-.5-.3-.5.6-.7v-1.2s0-1,0-1l.3-.5-1.2-2.3h1c0,.1.7,0,.7,0l.3-.4,1.2-.6.7-.5,1.8-.2v1.1c-.1,0,0,.5,0,.5v1c-.1,0,1.4,1.3,1.4,1.3l1.6.2.6.5,1,.3.6.4h.9s.8.4.8.4v.8c0,0,.3.4.3.4v.6s-.4,0-.4,0l.5,1.7h2.7c0,0-.2.9-.2.9l.2.6.8.4.3.9-.3,1.2-.4.6v.8c.1,0-.3.3-.3.3v-.5s-1.3-.8-1.3-.8h-1.3s-2.5.4-2.5.4l-.7,1.3v.8s-.6,1.8-.6,1.8l-.2-.3Z"/>
    <path id="BR" d="M160.4,369.6l1.9-2.2,1.6-1.5.9-.6,1.2-.9v-1.2s-.7-.9-.7-.9l-.7.3.3-.9.2-.9v-.8l-.5-.3-.5.2h-.5c0,0-.2-.7-.2-.7v-1.4c-.1,0-.4-.5-.4-.5l-.9-.4-.6.3-1.5-.3v-2c0,0-.3-.8-.3-.8l.4-.3v-.8c-.1,0,.3-.6.3-.6l.3-1.2-.3-.9-.8-.4-.2-.6.2-.8h-2.7c0,0-.5-1.8-.5-1.8h.4s0-.6,0-.6l-.3-.4v-.8c0,0-.9-.4-.9-.4h-.9s-.6-.4-.6-.4l-1-.3-.6-.5-1.6-.2-1.5-1.3v-1c.1,0,0-.5,0-.5v-1.1c.1,0-1.7.2-1.7.2l-.7.5-1.2.6-.3.4h-.7s-1,0-1,0l-.8.2-.6-.2v-2.2c0,0-1.1.8-1.1.8h-1.2s-.5-.8-.5-.8h-.9c0,0,.3-.7.3-.7l-.8-.9-.6-1.3.4-.3v-.6l.9-.4v-.8c-.1,0,.2-.5.2-.5v-.7c.1,0,1.7-1,1.7-1l1.2-.3.2-.2h1.3c0,0,.6-3.8.6-3.8v-.6s-.2-.8-.2-.8l-.6-.5v-1s.8-.2.8-.2h.3c0,.1,0-.4,0-.4h-.8c0-.1,0-1,0-1h2.7s.5-.5.5-.5l.4.4.3.8.3-.2.8.7h1.1c0,0,.3-.5.3-.5l1-.3.6-.2.2-.6,1-.4v-.3c0,0-1.3-.1-1.3-.1l-.2-.9v-.9c0,0-.6-.4-.6-.4h.3c0-.1,1,0,1,0l1.1.4.4-.3,1-.2,1.6-.5.5-.5-.2-.4h.7c0,0,.3.3.3.3l-.2.6.5.2.3.7-.4.5-.2,1.2.4.7v.6c.1,0,1,.7,1,.7h.7c0,0,.2-.2.2-.2h.4c0,0,.6-.3.6-.3l.5-.4h.8c0,.1.3,0,.3,0h.8c0,.1.1-.2.1-.2l-.2-.3v-.4c.1,0,.7.1.7.1h.7c0-.1.8.2.8.2l.6.3.4-.4h.3c0,0,.2.5.2.5h.7c0-.1.5-.6.5-.6l.4-1,.8-1.3h.5c0,0,.3.7.3.7l.8,2.4.8.2v1s-1,1.1-1,1.1l.4.4,2.5.2v1.4c0,0,1.1-.9,1.1-.9l1.8.5,2.3.9.7.8-.2.8,1.6-.4,2.7.7h2.1c0,0,2.1,1.1,2.1,1.1l1.8,1.6,1.1.4h1.2c0,0,.5.5.5.5l.5,1.8.2.8-.6,2.3-.7.9-2,2-.9,1.6-1,1.2h-.4s-.4,1.1-.4,1.1v2.7c.1,0-.3,2.2-.3,2.2l-.2,1-.4.6-.3,2-1.4,1.9-.2,1.6-1.1.7-.3.9h-1.5s-2.2.6-2.2.6l-1,.7-1.6.4-1.7,1.2-1.2,1.5-.2,1.2.2.9-.3,1.6-.3.8-1,.9-1.6,2.9-1.2,1.3-1,.8-.6,1.6-.9,1-.4-1,.6-.8-.8-1.1-1.1-.9-1.5-1h-.5s-1.4-1.2-1.4-1.2l-.9.2Z"/>
    <path id="BS" d="M132.4,291h-.3c0,0-.4-.8-.4-.8l-.5-.4.3-1h.4c0,0,.5,1.3.5,1.3v.9ZM132,286.6l-1.5.3v-.6c-.1,0,.6-.1.6-.1h.9s0,.5,0,.5ZM133.1,286.6l-.2,1.1-.3-.2v-.8s-.6-.6-.6-.6v-.2s1.1.7,1.1.7Z"/>
    <path id="BT" d="M370.5,284.8l.6.5v1c-.1,0-1.2,0-1.2,0h-1.2c0-.1-.9.1-.9.1l-1.3-.6v-.3s.9-1.2.9-1.2l.8-.4,1,.4h.7s.6.5.6.5Z"/>
    <path id="BW" d="M277.6,351.6l.3.3.4.9,1.6,1.6.6.2v.5s.4,1,.4,1l1.1.2.9.7-2,1.1-1.3,1.1-.5,1-.4.6h-.8c0,.1-.2.9-.2.9v.5c-.1,0-1,.4-1,.4h-1.1c0,0-.7-.5-.7-.5l-.6-.2-.7.4-.3.7-.7.5-.7.7-1,.2-.3-.5v-1c.1,0-.7-1.5-.7-1.5l-.4-.2v-4.4h1.4c0,0,0-5.4,0-5.4h1s2.2-.6,2.2-.6l.5.6.9-.6h.4s.8-.3.8-.3h.3c0,.1.5,1.3.5,1.3Z"/>
    <path id="BY" d="M274.5,235.2h1.4s1.5-.9,1.5-.9l.3-1.4,1.2-.8v-1.1c-.1,0,.7-.4.7-.4l1.5-1,1.5.6.2.6.7-.3,1.4.6v1.2c.1,0-.2.7-.2.7l.9,1.6.6.4v.4c0,0,.9.4.9.4l.4.6-.5.5h-1.1c0,0-.3.1-.3.1l.3.8.3,1.5h-1.2c0,.1-.4.6-.4.6v1.1c0,0-.7-.2-.7-.2h-1.3c0,.1-.4-.4-.4-.4l-.5.4-.5-.3h-1.1s-1.6-.6-1.6-.6l-1.4-.2h-1.1c0,0-.8.7-.8.7h-.7c0,0,0-.9,0-.9l-.4-1.1.8-.5v-.9s-.4-.9-.4-.9v-1Z"/>
    <path id="BZ" d="M116,299.9v-.2s.2,0,.2,0l.3.2.5-.9h.3s0,.2,0,.2h.3s0,.4,0,.4l-.2.6v.2c.1,0,0,.5,0,.5h0c0,.1-.2.9-.2.9l-.3.4h-.3s-.3.5-.3.5h-.4v-1.6c.1,0,.1-1.2.1-1.2Z"/>
    <path id="CA" d="M102.8,140.9v-3c-.1,0,1.7.3,1.7.3l.8.5,1.7,2.5-.4,2.5-2.1,1.4-1.1-1.6-.6-2.6ZM109.4,147.3l.2-.7-1-1.2h-2.8c0,0,.4,1.8.4,1.8l2.6.4.6-.2ZM127.7,170.8l1.5,2.6.4.3,1.5-.6h1.5c0,.1,1.5.2,1.5.2v-1.3c-.1,0-2.6-2.7-2.6-2.7l-3.2-.5-.7.3v1.8ZM94.8,139.4l-1.4,2.1,3.1.3,2.3,2.2,2.3.8-.5-2.9-1.1-3.4-3.8-2.7-2.8-1v2.9c.1,0,1.8,1.7,1.8,1.7ZM107.8,134.2h2.6c0,0-1.1,1.9-1.1,1.9v2.7s1.5,2.9,1.5,2.9l2.9.9,2.5-.5,2.6-5.4,1.9-2.2-1.7-2.5-1.1-5.3-2.3-1.6-2.4-1.8-1.8-4.8-3.3.5.6,2.1-1.4.6-1,2.7-1,3.7.9,3.6,1.5,2.6ZM75.8,161l2,1,6.4-.7-2.9,2.4.2,1.7h2.1c0-.1,3.5-2.4,3.5-2.4l4.8-.8.9-2.6-.2-2.8-1.5-.3-1.3,1-.6-2.1-.5-2.9-1.5-.7-1.3,2.2,2,5.5-2.5-.4-2.5-3.4-4-2-1.3,1.7-1.9,5.6ZM87.1,139.9l-1.8-1.5-.8-.3-1.4,2.1v1s2.3,0,2.3,0l1.7-1.4ZM86.4,146.1l.5-2-2-1.1-2.1.7-1.1,2.1,2.1,2.1,2.6-1.9ZM101,162.8l2.3-.6.6-4.1v-3s-1.1-2.8-1.1-2.8v.8c-.1,0-2.1-.4-2.1-.4l-2.1,2.1-1.5-.2v4.5c0,0,2.4-.4,2.4-.4v3.2s1.5.9,1.5.9ZM99.4,185.7l-2.5-2-2.4-2.1-.4-3.1-.9-4.5-1.6-1.9-1.4-.8-1.2.7,1,4.8-.7,1.9-1.1-4.5-1.3-1.6-1.6,2.4-2-2.4-3.1,1.4.7-2.2-1.4-.9-3.8,2.9-1,1.9-1.2,3.4,2.5,1.2h2.2c0,0-3.3,1.7-3.3,1.7l.7,1.6h2c0,0,3-.3,3-.3l2.7,1-1.8.7-2-.2-2.2.7-.9.4,1.7,3.2,1.2-.4,1.9,1.1.8,1.8,2.5-.4,3.6-.6,2.6-1.3,1.6-.2,2.4,1.1,2.5.6.5-1.4-.9-1.5,2.3-.3.2-1.8ZM103.3,185.2l-1,1.8-1.2,1.2,1.9,1.8,1.1-.4,1.9,1.2.9-1.4-.9-1.5-.4-.8-.8-.7-1.5-1.2ZM94.4,170.4l-1.1-1.1-1.9.2-.5.7,2.2,3.4,1.2-3.2ZM108.8,177l1.5-3.5,1.7-.9,2.1-4.4-2.7-1.2-2.9-.2-1.4,1.4-.7,2.1v2.4s.9,4.1.9,4.1l1.6.2ZM117.4,165.5h2.9c0,0,4-.9,4-.9l1.8.6,2.1-1.1.9-1.4-.3-2.3-1.5-2.1-2.3-.4-2.9.5-2.2,1.2-2.1-.5-1.9-.3-.9-1.4-1.6-1.3.3-2.2-1.2-2h-2.8s-1.6-2-1.6-2l-2.9-.4-.5,2.6,1.6,1.9,2.9.7,1.4,2.6.2,2.8.5,3,3.7,1.7,2.3.6ZM72.7,156.3l2.6-2.5,1.3-.3,1.1-2.1.2-4.9-1.9,1h-2.2c0,0-2.9,4-2.9,4l-2.4,4.5,1.9,1.3,2.3-.9ZM109,164.4l.8-2.1-.5-1.7-1.2-2-2,1.5-.7,2.5,1.7,1.4,2,.4ZM104.8,170.2l-.4-1.4-2.5.6-1.7-1.1-1.7,2.4,1.6,3.2-2.9-.6v1.5s3.5,3.5,3.5,3.5l1,1.7,1.4.4,2.3-1.7.3-4.1-2.1-2,1.3-2.3ZM67.7,247.3l-.6-1.2-1.4-.9-.7-1-.5-.8-1.3-.2-.9-.3-1.5-.5v.5c-.1,0,.4,1.2.4,1.2l1.5.4.3.6,1.3.8.4.8,2.3,1,.7-.3ZM128.8,208.4l-1-1.1-1,.3v-1.5c-.1,0-1.7-1-1.7-1l-1.5-1.1-.8-.9-.7.5-.3-1.5-1-.3-.5,3.1-.2,2.6-1.2,1.6,1.9-.3.5,1.8,2-1.6,1.4-1.7.8,1.4,2.2.8,1.3-1ZM68.3,182l3.7-2.1v-1.9l1.7-3.2,3.5-3.4,1.8-1.2-1.5-2.1-1.4-1.5-3.6-.3-2-1.1-4.8.8,1.4,3.1-1.2,3.2-1,3.4-.6,1.9,3.2,2.4.7,1.9ZM135.6,195.7l.2-.5v-1.6s-1.1-1-1.1-1l-1.3.5-.6,2.1.4,1.8,1.6-.2.9-1.1ZM147.6,199.5l2.2,3.3,1.7,1.4,2.5-4,.4-2.5-2.2-.2-2-3.4-2.2-.8-3.3-2.5,2.6-1.8-1.3-3.8-1.2-1.7-3.4-1.7-1.5-2.8-2.6,1-.2-1.9-1.9-2.2-3.1-2.4-1.3,1.9-2.8,1.3.2-3-2.4-5-3.6,2-1.3,3.9-1.1-3,1-3.2-3.6,1.3-1.4,2-1.1,4.2.4,4.5h2s-1.5,2-1.5,2l1.2,1.5,2.3.6,3,1.2,5.1.9,2.5-.5.8-1.2,1.1,1.4,1.2.2,1.5,2.5-.9,1,2.9,1.3,2.2,1.8.5,1.3.4,1.6-1.8,3.5-.5,1.7.5,1.2-2.9.4h-2.6c0,0-.9,2.5-.9,2.5l1.2,1.1,4.1-.5v-.9s2,1.6,2,1.6l2.1,1.6-.5.9,1.7,1.5,3,1.8,3.8,1.2-.2-1-1.5-1.8-2-2.7,3.5,2.5,1.8.8.5-2.2-.9-3.2-.6-.9-1.9-1.5-1.5-2,.2-2,1.8-.5ZM114.5,118.4l1.2,3.7,2.5,3,4.9-.5,3.2,1-2.2,3-1.1-.9-3.8-.4.6,4.2,2,3-.4,2.6-2.5,1.7-1.1,2.7,2.3,1.3,1.9,4.3-3.8-2.9-.9.5.7,4.7-2.6,1.4.2,2.9,2.7.3,2.1.7,4.1-.9,3.7,1.6,3.8-3.6v-1.5s-2.4.2-2.4.2l-.2-1.4,2-1.9.7-2.6,2.2-1.9,1.3-2.4-1.2-3.6,1-1.3-1.9-.9,4.3-.8.9-1.6,2.9-1.3,2.4-6.8,2.3-2.5,3.3-5.6h-3.1c0,0,1.3-2.1,1.3-2.1l3.4-2,3.4-4.5v-2.9c0,0-2.5-3-2.5-3l-3-1.5-3.8-.9-3-.7-3-.8-4.1,2-.7-1.3-4.3.5-2.5,1.3-1.9,1.8-1.1,5.9-1.5-3-1.7-.6-2.1,4-2.8,1.7-1.6.3-2.1,1.9.3,3.3,1.6,2.8ZM151.9,251.4l-.5-1-.5.6.4.7,1.8.9h.5c0-.1.7-1,.7-1h-1.3c0,0-1-.2-1-.2ZM123.3,212.3l.3.8h1c0,0,1.6-1.6,1.6-1.6v-.6s-1.9,0-1.9,0l-1,1.4ZM154.5,245.7l-1.4-.9-1.9-.5-.5.2,1.3,1,1.8.7h.7s0-.4,0-.4ZM167,248.1l-.2-1.1-1,.4.4-1.6-1.4-.7-.6.5-1.2-.6.5-.8-.9-.5-.9.7.9-1.9.8-1.4.3-.6h-.7c0-.1-1.2.7-1.2.7l-.9,1.3-1.5,3.5-1.2,1.3.6.6-.9.7.2.6h2.7c0,0,1.5,0,1.5,0l1.4.5-1,1h.8c0,0,1.6-1.7,1.6-1.7l.4.3-.3,1.7.9.4h.6c0,0,.6-1.9.6-1.9l-.4-1.3ZM156.3,250.5l-1.4,2.3-2.3.3-1.8-1-.5-1.5-.4-2.2,1.3-1.4-1.2-1-2.1.2-3,1.8-2.3,2.7-1.2.3,1.6-1.9,2-2.8,1.8-1,1.2-1.6,1.5-.2h2.1s3,.5,3,.5l2.4-.4,1.8-1.8,2.3-.8,1-.8,1-.9v-2.6c-.1,0-.7-.9-.7-.9l-1.1-.3-.6-2-.9-.8-2.2-.6-1.3-1.4-1.9-1.4.6-1.6-1.6-3.1-1.8-3.5-1.1-2.5-.9,1.3-1.3,3-2,1.5-1-1.6-1.3-.4-.5-3.5v-2.4s-2.5-.2-2.5-.2l-.4-1.1-1.7-1.7-1.3-1-1.2.8-1.4-.3-2.4-.8-1,.7.5,4.6.6,2.6-1.7,2.9,1.7,2,1,2.2v1.7c.1,0-.7,1.8-.7,1.8l-1.6,1.7-2.3,1.1,1,1.3.7,3.7-.8,2.3-1.1.7-2.1-2.1-1-2.6-.4-2.4.2-2.1-1.5-.2h-2.3c0-.1-1.5-1.2-1.5-1.2l-1.8-.7-1-1.2-1.4-1-2.6-1.1-2,.5-.7-2-.6-2.5-2.1-.5v-3.2c0,0,.6-2.2.6-2.2l1.5-3.3,1.7-2.5,1.6-.4v-2c0,0,1.2-1.3,1.2-1.3l2-.2,1.6-2.2.4-1.5,1.4-2.9.4-1.8,1.5,1.1,2-.5,2.8-2.5.2-1.8-1-2,1-2v-1.9c0,0-2-2-2-2l-2.1-.6-2-.3v4.4c0,0-1.1,3.3-1.1,3.3l-1.5,2.7-1.4-2.5.4-2.8-1.7-2.5-1.9,3.1v-4s-2.6-.8-2.6-.8l1.2-2-1.9-4.8-1.4-2-1.9-.7-1.7,3.2v4.7c-.1,0,1.5,1.7,1.5,1.7l1.5,2.5-.6,3.9h-1.1c0-.1-.9,2.9-.9,2.9v-3.5s-2.2-1.3-2.2-1.3l-1.2.7.2,2.3h-2.1c0,0-2.2.5-2.2.5l-2.5-1.7-1.6.3-1.4-2.1-1.1-.9-1.1.4-1.7.2-.9,1.3,1.4,1.6-1.5,1.9-1.5-2.2-1.2.7-3.8.4-2.5-.8,2-1.9-1.9-2-1.4.3-1.9-.7-3.3-1.5-2.2-1.7-1.7-.2-.5,1.2-1.7.7-.2-3.1-1.9,2.8-2.4-3.7-1-.4-.3,2-1,1-1-1.7-2.3,1-2.1,1.8-2.1-.5-1.7,1.3-1.2,1.6-1.5-.4-2.2-1.9-2.6-1v13.9s0,17.8,0,17.8h1.4c0,0,1.4.9,1.4.9l1,1.2,1.2,1.8,1.4-1.5,1.4-.9.7,1.4.9,1.1,1.3,1.2.9,1.9,1.4,3,2.4,1.6v1.6s-.7,1.2-.7,1.2v1.2s1.7,1.7,1.7,1.7l.2,1.9,1.8,1-.2,1.4.8,2,2.5.9,1,.9,2.7,2.1h.2s4,0,4,0h35v-.8s.5,0,.5,0l.3,1.2.4.4h1c0,.1,1.4.5,1.4.5l1.4.7,1.1-.3,1.7.5.6-.8.8-.3.3-.5.3-.3,1.3.4h1c0,0,.3.3.3.3l.5,1.2,1.6.3-.2.6.6.6-.2.8.6.3-.3.7h.4c0,0,.3-.2.3-.2l.3.5,1.1.3h1.1s1.1.2,1.1.2l1.3.4.5.6.9,1.5-.5.7-1.1-.3-.7-1.2.2,1.2-.7,1.1v.9c0,0,0,.5,0,.5l-.9.6-.7,1-.3.7h.8c0,.1,1-.5,1-.5l.6-.5h.4c0,0,.8.1.8.1l.4-.3.7-.2,1.2-.2h0v-.6c-.1,0-.2,0-.2,0h-.4c0,.1-.6,0-.6,0l.4-.7.4-.2,1-.3,1.2-.3.6.4.4-.4.4-.3h.3c0,.1,0,.2,0,.2l1.4-1.4.6-.4h2.1s2.6,0,2.6,0v-.5c.1,0,.6-.1.6-.1l.6-.3.5-.9.4-1.6,1.1-1.6.5.5.9-.4.6.6v2.8l.9,1.1,1.6-.2h2.3c0,0-2.4,1.6-2.4,1.6v1.7c0,0,1.1.1,1.1.1l1.6-1.4,1.4-.8,3.1-1.2,1.7-1.3-.9-.7v-1.5ZM129.4,214.8l.6-1.6-.4-.6h-.6c0,0-.5.8-.5.8v.2c0,0,.3.9.3.9l.6.3ZM57.8,233.1h0l.8-1.2-.8,1.2Z"/>
    <path id="CD" d="M284.9,320.3v1.6c0,0,.5.2.5.2l-.5.5-.5.4-.5.7-.3.6v1.1c0,0-.4.5-.4.5v1.1s-.4.4-.4.4v.8c0,0-.2.1-.2.1v.8c-.1,0,.2.6.2.6v1.7c0,0,.3,1.3.3,1.3v.7c-.1,0,.1.8.1.8l.8.8.8,1.8h-.6c0-.1-1.9,0-1.9,0l-.4.2-.4.9.3.6-.3,1.7-.2,1.4.4.3,1,.6.4-.3v1.5c.1,0-1,0-1,0l-.6-.8-.5-.6-1.1-.2-.3-.7-.9.5-1.1-.2-.5-.6h-.9c0-.1-.7,0-.7,0v-.4c0,0-.6,0-.6,0h-.6c0,0-.9.1-.9.1h-.6s-.4,0-.4,0v-1.7c0,0-.4-.5-.4-.5v-.9c-.1,0,.1-.9.1-.9l-.3-.5v-.9s-1.7,0-1.7,0v-.5c.1,0-.6,0-.6,0v.2c0,0-.9,0-.9,0l-.4.8-.2.4-.8-.2-.5.2h-.9c0,.1-.5-.6-.5-.6l-.3-.5-.4-.8-.3-1h-4.2s-.5.2-.5.2h-.4s-.6.2-.6.2l-.2-.4.4-.2v-.6s.3-.4.3-.4l.5-.3h.4c0,.1.5-.4.5-.4h.8s0,.4,0,.4l.5.3.8-.9.8-.7.4-.4v-1.2s.6-1.4.6-1.4l.6-.7.9-.7.2-.4v-.5s.3-.5.3-.5v-.8c0,0,.1-1.2.1-1.2l.3-.9.4-.7v-.8c0,0,.2-1,.2-1l.6-.7.8-.5,1.2.5.9.5h1c0,.1,1,.4,1,.4l.4-.8h.2c0-.1.6,0,.6,0l1.6-.7.6.3h.5s.2-.4.2-.4h.5c0-.1,1.1,0,1.1,0h.9s.5-.1.5-.1l.8,1.2.6.2.4-.2h.7c0,0,.8-.2.8-.2l.3.6,1.2.9Z"/>
    <path id="CF" d="M263,314.8h1.2c0-.1.3-.5.3-.5h.2s.4.3.4.3l1.8-.5.6-.6.7-.5v-.5c-.1,0,.3-.1.3-.1h1.4c0,0,1.3-.6,1.3-.6l1-1.6.7-.6.9-.2.2.6.8.9v.6l-.2.6v.4c0,0,.6.4.6.4l1.1.6.8.6v.5s1,.7,1,.7l.6.6.4.8,1.1.6.2.4h-.5c0,.1-.9.1-.9.1h-1.1c0-.1-.5,0-.5,0l-.2.3h-.5s-.6-.3-.6-.3l-1.6.7h-.6c0-.1-.2,0-.2,0l-.4.8-1-.3h-1c0-.1-.9-.7-.9-.7l-1.2-.5-.8.5-.6.7v1c-.1,0-1,0-1,0l-1-.2-.8.7-.7,1.3-.2-.4v-.6c0,0-.7-.5-.7-.5l-.5-.7v-.5c-.1,0-.8-.7-.8-.7v-.4c.1,0,0-.6,0-.6v-1.1c.1,0,.4-.3.4-.3l.7-1.4Z"/>
    <path id="CG" d="M259.8,331.9l-.5-.5-.4.2-.6.6-1.2-1.5,1.1-.8-.5-.9.5-.4.9-.2v-.6c.1,0,.9.7.9.7h1.2c0,0,.4-.6.4-.6l.2-.9-.2-1.1-.7-.8.6-1.6-.4-.3h-1c0,.1-.4-.6-.4-.6v-.6c.1,0,1.9,0,1.9,0l1.1.4,1.1.3v-.8c.1,0,.8-1.3.8-1.3l.8-.7,1,.2h.9c0,0,0,.9,0,.9l-.4.7-.3.9-.2,1.2v.8c0,0-.2.5-.2.5v.5s-.2.4-.2.4l-.9.7-.6.7-.6,1.4v1.2s-.3.4-.3.4l-.8.7-.8.9-.5-.3v-.4c0,0-.9,0-.9,0l-.5.5h-.4Z"/>
    <path id="CH" d="M255,249.4v.4c0,0-.2.5-.2.5l.6.4h.7c0,0-.1.9-.1.9l-.6.3-1-.3-.3.8h-.7c0,0-.2-.3-.2-.3l-.8.7h-.7c0,0-.6-.3-.6-.3l-.5-.9-.7.3v-.9s1-1.2,1-1.2v-.5s.6.2.6.2l.4-.4h1.2s.3-.4.3-.4l1.5.6Z"/>
    <path id="CI" d="M237.5,318.2h-.6s-1-.3-1-.3h-.9s-1.7.3-1.7.3l-1,.4-1.4.5h-.3s.1-1.2.1-1.2v-.2c.1,0,0-.6,0-.6l-.6-.6h-.4c0,0-.4-.5-.4-.5l.3-.6v-.7c-.1,0,0-.4,0-.4h.2v-.6c0,0,0-.3,0-.3v-.2c.1,0,.7-.2.7-.2l-.3-1.1-.3-.6v-.5c.1,0,.4-.1.4-.1h.2c0-.1.4,0,.4,0h1.1s.3-.4.3-.4h.2s.4-.1.4-.1l.2.6.3-.2.6-.2.6.3.2.5.6.3.5-.4h.7c0,0,1,.3,1,.3l.4,2-.6,1.2-.4,1.6.6,1.2v.6Z"/>
    <path id="CL" d="M144.9,412.2v5.3h2.4c0,0-.5,1.1-.5,1.1l-1.2.8h-.7c0,0-.8-.3-.8-.3l-1-.7-1.5-.4-1.8-1.4-1.4-1.3-1.9-2.6,1.2.5,2,1.6,1.9.9.7-1.1.5-1.6,1.3-1,1,.3ZM145.5,356l.6,2.1,1-.2.2.4-.5,1.6-1.5.8v2.6s-.3.5-.3.5l.4.6-1,1-.9,1.5-.5,1.5v1.6c.1,0-.7,1.7-.7,1.7l.6,2.9.4.3v1.6s-.8,1.7-.8,1.7v1.4s-1,1.1-1,1.1v1.6s.4,1.7.4,1.7l-.8.7-.4,1.6-.3,1.9.2,2.3-.6.4.3,2.2.6.7-.5.8.7.4.2.7-.6.4.2,1.2-.5,2.7-.7,1.8.2,1.1-.4,1.3-1.1.9v2.3c.1,0,.6.8.6.8h.9c0-.1,0,1.5,0,1.5l.6,1.3,3.4.3,1.3.4h-1.2s-.7.6-.7.6l-1.3.8-.2,2.2h-.6c0,0-1.6-.7-1.6-.7l-1.6-1.6h0l-1.8-1.3-.4-1.4.4-1.3-.7-1.5-.2-3.7.6-2,1.5-1.6-2.1-.6,1.3-1.8.5-3.3,1.6.7.7-4-.9-.5-.4,2.4-.9-.3.4-2.7.5-3.4.6-1.2-.4-1.8v-2c-.1,0,.5,0,.5,0l.9-2.8,1-2.7.6-2.5-.3-2.5.4-1.3-.2-2,.8-1.9.3-3,.5-3.2.4-3.4v-2.4c-.1,0-.4-2.1-.4-2.1l.7-.4.4-.8.7,1,.2,1.1.7.6-.4,1.4.8,1.7Z"/>
    <path id="CM" d="M259.9,322.1h-.2c0,0-.8.1-.8.1l-.9-.2h-.7c0,0-2.3,0-2.3,0l.2-1.1-.6-.9-.6-.2-.3-.6-.4-.2v-.4s.4-1,.4-1l.7-1.4h.4s.8-.8.8-.8h.5s.8.6.8.6l1-.5v-.6c.1,0,.4-.6.4-.6l.2-.7.8-.6.3-1,.3-.3.2-.7.4-.9,1.2-1.1v-.5c0,0,.2-.3.2-.3l-.6-.6v-.5s.4,0,.4,0l.6.9v.9c0,0,0,.9,0,.9l.8,1.3h-.8s-.4,0-.4,0h-.6c0-.1-.3.5-.3.5l.8.8.6.2.2.6.4,1-.2.4-.7,1.4-.3.3v1.1c-.1,0,0,.6,0,.6v.4c-.1,0,.6.7.6.7v.5c.1,0,.6.7.6.7l.6.5v.6c0,0,.2.4.2.4v.8c-.1,0-1.2-.3-1.2-.3l-1.1-.4h-1.8Z"/>
    <path id="CN" d="M397.4,296.6l.3.6-.6.7-.3.9-1.2.7-1.2-.5v-1.3s.7-.7.7-.7l1.5-.4h.8ZM429.2,248l-1.2.8h-2.1l-.6-2-1.7-1.5-2.4-.7-.5-2.1-.5-1.4-.5-1-.9-2.3-1.2-.9-2.1-.7h-1.9c0,0-1.7.5-1.7.5l-1.2,1.2.8.6v1.3s-.8.7-.8.7l-1.3,2.4v1s-2,1.4-2,1.4l-1.7-.8-.7,1.6-1,2.1.4.9.8-.3,1.4.3,1.1-.8,1.1.7,1.3,1.5-.2.7-1.1-.2-2,.3-1,.6-1,1.3-2.1.8-1.4,1.1-1.4-.4-.8-.2-.7,1.3.5.8.2.6-1,.7-1,1-1.6.7h-2.1c0,0-2.3.7-2.3.7l-1.6,1-.6-.6h-1.7l-2.1-1.1-1.4-.3-1.9.3-2.9-.4h-1.6s-.8-1.1-.8-1.1l-.6-1.8-.9-.2-1.7-1.2-1.9-.3-1.7-.3-.5-.9.5-2.4-1-1.7-2-.8-1.2-1.1-.4-1.5-.6.2-1.1,1.4-1.2.2v2.1c0,0-.8.9-.8.9l-2.8-.7-1,3.6-.7.4-2.8.8,1.3,3.4-1,.5v1.1c.1,0,0,.4,0,.4l-2.2,1-.5.7-1.8.2-.5,1.2-1.5-.2-1,.4-1.3.9.2.4-.4.4.4,1.7.5-.2.9.4v.7c0,0,.2,1,.2,1l.3.5,1,.8.4,1.3,2.2.7h0s1.9-.7,1.9-.7l1.4.7-.5,1.4-.8,1.1h-.6c0,0,0,0,0,0v.9c0,0,.5.9.5.9v.8s-1.1-.2-1.1-.2l.4,1.8,1.4,1,2,1.1.6-.4,1.1.5,1.4,1,.8.2.5.8,1.1.3,1.1.7,1.6.4,1.6.2.9-.3v1.2c.1,0,1-1.2,1-1.2l.8-.4,1,.4h.7s.6.5.6.5l1.1-.2,1.3-1.2,1.6-1,1.2.4,1-.7.7,1-.5.7,1.5.2h.8c0-.1.5.8.5.8l.6.4v1.2s0,1.3,0,1.3l-1.3,1.3-.2,1.8,1.5-.3.3,1.4.9.3-.4,1.3,1,.6.6.3,1-.4v.6s.2.4.2.4h.8s-.2-1.7-.2-1.7l.7-.2.8-.4h1.1s1.4-.2,1.4-.2l1.2-.8.7.6,1.3.3-.2.9.7.6,1.4.4.7-.2,1.9.5-.3.6.4,1.1h.8c0,0,.5-1.7.5-1.7l1.5-.2,2-.8.8-.8.5.5.9-.7,1.6-.2,2-1.3,1.9-1.4,1.3-1.8,1.1-2.1,1-1.7h.8c0-.1.4-1.4.4-1.4l.2-1.3-.8-.5-.3-.9.9-.4v-1.2s-.9-1.3-.9-1.3l-.9-1.5-.6-1.7-1.5-.9.7-1.2,1.4-.9.7-.9,2-.5-.2-.9h-.9s-1.2-.7-1.2-.7l-1.6,1.3-1.1-.5v-.8s-1.2-.3-1.2-.3l-.7-1.2.7-.8h1.4c0,0,.9-1.3.9-1.3l1.6-1.3,1.2-.7.7,1-1.1,1.2.3.7-.7.8,1.5-.5,1-.8,2-.5,1.1-1.2,1.6-1,1-1.3.7.6h1.2c0,0-.2-.9-.2-.9l2.2-.8.6-1.1.9,1.1v-1s.7,0,.7,0l.2-2.3-.4-1.7,1.2-.7,1.7.4.9-2,.5-2.2.5-.8.7-1.9-2.3.6Z"/>
    <path id="CO" d="M135.4,325.4l-.6-.3-.7-.5-.4.2-1.2-.2-.3-.6h-.3s-1.4-.8-1.4-.8l-.2-.4h.5c0-.1,0-.8,0-.8l.3-.5h.7c0,0,.6-1,.6-1l.5-.7-.5-.3.3-.8-.3-1.3.3-.4-.2-1.2-.6-.8.2-.7h.5c0,.1.3-.3.3-.3l-.3-.8.2-.2h.7s1.1-.9,1.1-.9l.6-.2v-.5s.3-1.2.3-1.2l.8-.7h.9s.1-.3.1-.3h1.1c0,.1,1.1-.6,1.1-.6l.5-.3.7-.7h.5c0,0,.4.5.4.5l-.3.5-.9.2-.4.7-.5.4-.4.5-.2,1-.4.8h.7c0,0,.2.7.2.7l.3.3v.6c.1,0,0,.5,0,.5v.3c0,0,.4.1.4.1l.3.5h1.8c0-.1.8,0,.8,0l1,1.2.6-.2h1c0,0,.8,0,.8,0l.5.2-.3.8-.3.5v1c-.1,0,.2.9.2.9l.4.4v.3s-.7.7-.7.7l.5.3.4.5.4,1.4-.3.2-.3-.8-.4-.4-.5.5h-2.7s0,.8,0,.8h.8c0,.1,0,.7,0,.7h-.3c0-.1-.8,0-.8,0v1s.6.5.6.5l.2.8v.6s-.7,3.8-.7,3.8l-.7-.7h-.4s.9-1.5.9-1.5l-1.1-.7h-.8c0,.1-.5-.1-.5-.1l-.8.4-1-.2-.8-1.5-.7-.4-.4-.7-.9-.7h-.4Z"/>
    <path id="CR" d="M124.7,313.7l-.8-.3-.3-.3.2-.2v-.3c0,0-.4-.3-.4-.3l-.6-.3-.5-.2v-.4c0,0-.5-.3-.5-.3v.4c0,0-.2.3-.2.3l-.3-.4h-.5c0-.1-.2-.4-.2-.4v-.4s.2-.5.2-.5l-.4-.2.3-.3.2-.2.9.4.3-.2h.4c0,.1.2.4.2.4h.4c0,0,.3-.2.3-.2l.4.8.5.6.7.6h-.5c0,.1,0,.7,0,.7l.3.2-.2.2v.3c0,0,0,.3,0,.3v.3Z"/>
    <path id="CU" d="M125.7,291.9h1.2c0,.1,1.1.1,1.1.1l1.3.5.6.6,1.3-.2.5.4,1.2.9.9.7h.5s.8.3.8.3v.4c-.1,0,.9,0,.9,0l1.1.6-.2.3-.9.2h-.9c0,0-1,0-1,0h-2c0,.1.9-.7.9-.7l-.6-.4h-.9c0-.1-.5-.5-.5-.5l-.3-.9h-.8c0,0-1.3-.3-1.3-.3l-.4-.3-1.8-.2-.5-.3.5-.4h-1.4c0,0-1,.7-1,.7h-.6s-.2.4-.2.4l-.7.2h-.6c0-.1.7-.6.7-.6l.3-.5.6-.3.7-.3h1.1c0-.1.3-.3.3-.3Z"/>
    <path id="CY" d="M289.2,272.5l.9-.7-1.3.5h-1s-.2.4-.2.4h-.1s-.7,0-.7,0l.3.7.7.2,1.4-.7h0c0-.1-.1-.5-.1-.5Z"/>
    <path id="CZ" d="M265.4,247.2l-.7-.4h-.7c0,.1-1.1-.5-1.1-.5l-.5.2-.8.9-1-.7-.8-.9-.7-.5-.2-.9-.2-.7,1-.5.5-.6,1-.4.4-.4.4.3.6-.2.7.7,1,.2v.6c0,0,.7.5.7.5l.2-.6,1,.2v.7c.1,0,1.2.1,1.2.1l.6,1.1h-.4s-.2.4-.2.4h-.3c0,0,0,.6,0,.6h-.3c0,.1,0,.3,0,.3l-.5.2h-.6s-.2.4-.2.4Z"/>
    <path id="DE" d="M255.5,232.6v.9s1.5.6,1.5.6v.9s1.4-.5,1.4-.5l.8-.7,1.6.9.7.8.3,1.2-.4.6.5.8.4,1.2v.8c-.1,0,.5,1.4.5,1.4l-.6.2-.4-.3-.4.4-1,.4-.5.6-1,.5.2.7.2.9.7.5.8.9-.5,1-.5.3.2,1.4v.4c-.1,0-.6-.4-.6-.4h-.7c0,0-1,.3-1,.3h-1.2c0,0-.2.5-.2.5l-.7-.6h-.4c0,.1-1.5-.5-1.5-.5l-.3.5h-1.2s.2-1.5.2-1.5l.7-1.5-2-.4-.7-.6v-.9c0,0-.2-.5-.2-.5l.2-1.5-.2-2.4h.8l.4-.9.4-2.1-.3-.8.3-.5h1.2c0-.1.3.4.3.4l1-1.2-.3-.9v-1.4c0,0,1,.3,1,.3l.9-.4Z"/>
    <path id="DJ" d="M302.1,307.3l.3.4v.6s-.8.3-.8.3l.6.4-.5.8-.3-.3h-.3c0,.1-.8,0-.8,0v-.4s-.1-.4-.1-.4l.5-.7.5-.6h.6c0,.1.4-.2.4-.2Z"/>
    <path id="DK" d="M259.4,231.1l-.8,2-1.5-1.4-.2-1,2.1-.8.4,1.3ZM256.9,229l-.3,1-.4-.3-1,1.8.4,1.2-.9.4-1.1-.3-.6-1.4v-2.6s.2-.7.2-.7l.4-.8,1.2-.2.5-.7,1.1-.7v1.3c0,0-.5.8-.5.8l.2.7.8.4Z"/>
    <path id="DO" d="M140.6,297.1l.2-.3h1.1s.8.4.8.4h.4s.3.5.3.5h.8s0,.4,0,.4h.6c0,0,.7.6.7.6l-.5.6-.7-.3h-.6c0,0-.5,0-.5,0l-.3.3h-.5c0,0-.2-.3-.2-.3l-.5.2-.6,1-.4-.2v-.4c0,0,0-.4,0-.4l-.4-.4.3-.3v-.6c.1,0,0-.8,0-.8Z"/>
    <path id="DZ" d="M258.4,291.4l-4.8,2.9-4.1,2.9-2,.7h-1.6c0,.1,0-.8,0-.8l-.7-.2-.9-.4-.3-.7-4.7-3.3-4.7-3.3-5.3-3.8v-.3s0-.1,0-.1v-1.9s2.3-1.2,2.3-1.2l1.4-.2,1.1-.4.5-.8,1.6-.6v-1.2c0,0,.9-.1.9-.1l.6-.6,1.8-.3.3-.6-.4-.4-.5-1.8v-1c0,0-.6-1.1-.6-1.1l1.4-.9,1.5-.3.9-.7,1.4-.5,2.4-.3h2.3c0-.1.7.1.7.1l1.3-.7h1.5s.6.4.6.4h1c0-.1-.3.8-.3.8l.2,1.6-.3,1.4-.9.9v1.3c.1,0,1.3,1,1.3,1v.4s.9.7.9.7l.6,2.9.5,1.4v.7c0,0-.2,1.3-.2,1.3v.7c.1,0,0,.9,0,.9v1c.1,0-.4.6-.4.6l.8,1.1v.7c0,0,.6.9.6.9l.7-.3,1.1.7.6,1Z"/>
    <path id="EC" d="M128.5,330l.7-1-.3-.6-.5.7-.8-.6.3-.4-.2-1.3.5-.2.3-.9.5-.9v-.6c-.1,0,.7-.3.7-.3l1-.6,1.4.8h.3s.3.6.3.6l1.2.2.4-.2.7.5.6.3.2,1.1-.4.9-1.5,1.5-1.7.6-.9,1.2-.3.9-.8.6-.6-.7-.6-.2h-.6c0,.1,0-.4,0-.4l.4-.3-.2-.6Z"/>
    <path id="EE" d="M275.7,225.5l.2-1.6-.5.3-.9-1v-1.6c-.1,0,1.7-.8,1.7-.8l1.8-.4,1.5.5h1.5c0,0,.2.4.2.4l-1,1.6.4,2.5-.6.8h-1.2s-1.2-1-1.2-1l-.6-.3-1.2.5Z"/>
    <path id="EG" d="M290.6,282l-.4.6-.3,1.2-.4.8-.3.3-.5-.5-.6-.7-1-2.3h-.1c0,.1.6,1.8.6,1.8l.9,1.6,1.1,2.4.5.8.5.9,1.3,1.7-.3.3v1s1.7,1.4,1.7,1.4l.2.3h-16.7v-11.2l-.4-1.3.4-1-.2-.7.5-.8h1.9s1.4.4,1.4.4l1.4.5.7.3,1.1-.5.6-.5h1.2c0-.1,1,0,1,0l.4.8.3-.5,1.1.4h1.1c0,0,.7-.3.7-.3l.9,2.8Z"/>
    <path id="ER" d="M301.1,307.6l-.5-.5-.6-.8-.6-.5-.4-.5-1.2-.6h-1s-.3-.3-.3-.3l-.8.3-.9-.7-.4,1.1-1.6-.3-.2-.6.6-2.1v-1c.1,0,.6-.5.6-.5l1-.2.7-.8.8,1.7.4,1.3.8.7,1.9,1.4.8.8.8.8.4.5.7.4-.4.4h-.6Z"/>
    <path id="ES" d="M228.8,260.6v-1.3c0,0-.5-.8-.5-.8l2-1.4,1.7.4h1.9s1.5.3,1.5.3h1.2c0-.1,2.3,0,2.3,0l.6.7,2.6.9.5-.4,1.6.9,1.6-.2v1.1c0,0-1.3,1.2-1.3,1.2l-1.8.4v.6c-.1,0-1,1-1,1l-.5,1.5.5,1-.8.8-.3,1.2-1.1.4-1,1.4h-1.8s-1.3,0-1.3,0l-.9.6-.5.7h-.7c0-.1-.5-.7-.5-.7l-.4-1-1.3-.3v-.6c-.1,0,.4-.7.4-.7l.2-.5-.5-.5.4-1.2-.6-1.1.6-.2v-.9c0,0,.3-.3.3-.3v-1.4s.7-.5.7-.5l-.4-.9h-.8c0,0-.2.2-.2.2h-.8s-.4-.9-.4-.9l-.6.3-.5.5Z"/>
    <path id="ET" d="M294.8,304.1l.9.7.8-.3.3.3h1s1.2.6,1.2.6l.4.5.6.5.6.8.5.5-.5.6-.5.7v.4c.1,0,.1.4.1.4h.8s.3,0,.3,0l.3.3-.3.5.5.8.5.7.5.5,4.6,1.7h1.2s-4,4.2-4,4.2h-1.8c0,0-1.3,1-1.3,1h-.9s-.4.5-.4.5h-1l-.6-.5-1.3.6-.4.6h-.9c0-.1-.3-.3-.3-.3h-.3s-.4,0-.4,0l-1.8-1.2h-1l-.5-.5v-.8l-.7-.2-.8-1.5-.6-.3-.3-.6-.7-.7h-.9c0-.1.5-.9.5-.9h.7s.2-.5.2-.5v-1.3s.4-1.5.4-1.5l.7-.4v-.6c.1,0,.7-1.1.7-1.1l.8-.7.6-1.4.2-1.2,1.6.3.4-1.1Z"/>
    <path id="FK" d="M155.4,410.4l1.7-1.4,1.2.6.8-.9,1.1,1-.4.8-1.9.7-.6-.8-1.2,1-.7-1Z"/>
    <path id="FI" d="M281.7,189.6l-.2,2.7,2.2,2.5-1.3,2.8,1.6,4-.9,2.9,1.3,2.4-.6,2.1,2.1,2.1-.5,1.6-1.3,1.7-3,3.7-2.6.2-2.5,1-2.3.6-.8-1.5-1.4-.9.3-2.9-.7-2.7.7-1.8,1.3-2,3.2-3.5.9-.7-.2-1.4-2-1.6-.5-1.4v-5.6s-2.2-2.6-2.2-2.6l-1.9-1.9.8-1,1.6,2.1,1.8-.2,1.5.9,1.3-1.7.7-2.9,2.2-1.4,1.8,1.6-.6,2.8Z"/>
    <path id="FJ" d="M495.1,347.9l-.2.7h-.1c0,0-.9.4-.9.4l-.9.3-.2-.5.7-.3h.4c0,0,.8-.5.8-.5h.3ZM492.2,350.1l-.6-.2-.5.5v.6c.1,0,.9.2.9.2l.9-.2.2-.8-.5-.4-.4.2Z"/>
    <path id="FR" d="M254.9,260.1l-.5,1.5-.6-.4-.3-1.3.3-.7.9-.7.2,1.6ZM246.5,243.3l1,1,.7-.2,1.2,1,.3.2h.4s.7.5.7.5l2,.4-.7,1.5-.2,1.5-.4.4-.6-.2v.5s-1,1.2-1,1.2v.9s.7-.3.7-.3l.5.9v.6c0,0,.4.8.4.8l-.5.6.4,1.5.8.2-.2.8-1.3,1.1-2.8-.5-2,.6-.2,1.1-1.6.2-1.6-.9-.5.4-2.6-.9-.6-.7.7-1.2.3-4-1.5-2.1-1-1-2.2-.8v-1.5c-.1,0,1.7-.5,1.7-.5l2.4.5-.4-2.4,1.3.9,3.3-1.7.4-1.8,1.2-.5.2.8h.7s.7.9.7.9Z"/>
    <path id="GA" d="M257.1,330.8l-1.4-1.4-.9-1.2-.9-1.4v-.5s.4-.5.4-.5l.3-1,.3-1h.5c0,0,2,0,2,0v-1.7s.7,0,.7,0l.9.2.8-.2h.2c0,0-.1.7-.1.7l.4.7h1c0-.1.4.2.4.2l-.6,1.6.7.8.2,1.1-.2.9-.4.7h-1.2c0,0-.8-.7-.8-.7v.6c-.1,0-1.1.2-1.1.2l-.5.4.5.9-1.1.8Z"/>
    <path id="GB" d="M233.5,233.7l-.8,1.7-1.1-.5h-.9s.3-1.3.3-1.3l-.3-1.3h1.2c0-.1,1.5,1.4,1.5,1.4ZM237.3,223.3l-1.5,2.9,1.4-.4h1.5s-.4,2.1-.4,2.1l-1.3,2.3,1.5.2v.3c.1,0,1.4,2.9,1.4,2.9l1,.4.9,2.7.4.9,1.7.4-.2,1.5-.7.7.6,1.2-1.3,1.2h-1.9s-2.4.6-2.4.6l-.7-.4-.9,1-1.3-.3-1,.8-.7-.4,2.1-2.3,1.3-.5h0l-2.2-.4-.4-.9,1.5-.7-.8-1.2.3-1.5,2.1.2h0l.2-1.4-.9-1.5h0s-1.7-.5-1.7-.5l-.3-.7.5-1.1-.5-.7-.8,1.2v-2.4c0,0-.8-1.3-.8-1.3l.5-2.7,1.1-2.2,1.1.2,1.7-.2Z"/>
    <path id="GE" d="M300,261.2l.2-.8-.4-1.3-.8-.7-.8-.2-.5-.6.2-.2,1.2.3,2.1.3,1.9.9.2.4.9-.3,1.3.4.4.8.9.4-.4.3.7,1-.2.2h-.8c0-.1-1-.6-1-.6l-.3.3-2,.3-1.4-.9h-1.5Z"/>
    <path id="GF" d="M167.5,321.7l-.5.5h-.7c0,.1-.2-.3-.2-.3h-.3c0,0-.4.3-.4.3l-.6-.3.4-.6v-.6c.1,0,.4-.6.4-.6l-.5-.8v-1c-.1,0,.6-1.2.6-1.2l.5.2,1,.3,1.5,1.2.2.6-.8,1.3-.4,1Z"/>
    <path id="GH" d="M243,316.9l-2.2.8-.8.5-1.3.4-1.3-.4v-.6c0,0-.5-1.2-.5-1.2l.4-1.6.6-1.2-.4-2-.2-1.1v-.8s2.5,0,2.5,0h.6c0,.1.5-.1.5-.1h.7c0,.1-.1.6-.1.6l.6.7v2.1c.1,0,.5.5.5.5l-.3,1.3v.7c.1,0,.5.9.5.9l.3.5Z"/>
    <path id="GL" d="M175.7,104.6l4.7-6.8,4.9.5,1.8-4.5,5-1.2,11.2,1.6,8.8,9.3-2.6,4.2-5.4.5-7.6,1,.7,1.8,5-1.1,4.2,3.5,2.7-3.1,1.2,3.6-1.5,5.5,3.6-3.5,6.8-3.8,4.2,1.9.8,4.1-5.7,6.4-.8,2-4.5,1.4,3.3.4-1.6,5.8-1.1,4.8v7.7s1.7,4.2,1.7,4.2l-2.2.3-2.3,1.9,2.6,3.2.3,4.8-1.5.5,1.8,4.6-3.1.4,1.6,2.1-.5,1.8-2,.8h-2s1.8,3.3,1.8,3.3v2.1s-2.8-1.9-2.8-1.9l-.7,1.2,1.9,1.1,1.8,2.8.5,3.5-2.5.8-1.1-1.6-1.7-2.5.5,2.9-1.6,2.2,3.7.2,1.9.2-3.8,3.5-3.8,3.1-4.1,1.3h-1.6s-1.5,1.5-1.5,1.5l-2,3.8-3,2.5h-1c0,.1-1.9,1-1.9,1l-2,.8-1.2,2.1v2.3s-.7,2.1-.7,2.1l-2.3,2.5.6,2.4-.6,2.4-.7,2.8-2,.2-2.1-2.3h-2.8s-1.4-1.6-1.4-1.6l-.9-2.9-2.4-3.9-.7-2.1-.2-3-2-3.1.5-2.6-.9-1.3,1.4-4.3,2.1-1.4.6-1.6.3-3.1-1.6,1.4-.8.6-1.3.6-1.7-1.3v-2.8c0,0,.5-2.2.5-2.2h1.3c0,0,2.9,1.1,2.9,1.1l-2.4-2.7-1.3-1.5-1.4.6-1.2-1.1,1.6-4.3-.9-1.8-1.1-3.4-1.7-5.5-1.8-2.1v-2.3s-3.8-3.4-3.8-3.4l-3-.4-3.8.2-3.4.4-1.6-1.9-2.4-3.8,3.7-2,2.8-.3-6-1.7-3.2-2.7.2-2.7,5.3-3.4,5.2-3.6.5-2.8-3.8-2.9,1.2-3.3,4.9-6.2,2-1-.6-4.3,3.3-2.6,4.3-1.6h4.3c0,0,1.5,3.1,1.5,3.1l3.7-5.7,3.4,3.9,2,.8,2.9,3.2-3.3-5.4.2-4.6Z"/>
    <path id="GM" d="M217.8,306.7l.2-.6h1.5s.3-.4.3-.4h.4s.6.3.6.3h.4s.5-.2.5-.2l.3.4-.6.3h-.6s-.6-.3-.6-.3l-.5.3h-.3s-.3.2-.3.2h-1.3Z"/>
    <path id="GN" d="M229.6,314.4h-.4s-.3.5-.3.5h-.4s-.3-.3-.3-.3v-.6c0,0-.5-.9-.5-.9l-.4.2h-.3s-.4.1-.4.1v-.5s-.2-.4-.2-.4v-.4s-.3-.6-.3-.6l-.4-.5h-1.1l-.3.3h-.4s-.2.3-.2.3l-.2.4-.8.6-.6-.8-.5-.6-.4-.2-.4-.3-.2-.6-.2-.3-.4-.2.6-.7h.4s.4-.2.4-.2h.3l.2-.2v-.5c-.1,0,0-.2,0-.2v-.5s.7,0,.7,0l1,.4h.3s.1-.2.1-.2h.8c0,.1.2,0,.2,0v.5c0,0,.3,0,.3,0l.4-.2h.2c0,0,.4.4.4.4h.6c0,.1.4-.2.4-.2l.5-.2.3-.2h.3s.3.4.3.4l.2.4.6.6-.3.4v.5c0,0,.2-.1.2-.1l.2.2v.4c0,0,.4.4.4.4h-.3c0,.1-.1.6-.1.6l.3.6.3,1.1-.5.2v.2c-.1,0,0,.3,0,.3v.6h-.3Z"/>
    <path id="GQ" d="M254.9,323.8l-.3-.2.5-1.6h2.3s0,1.7,0,1.7h-2s-.5,0-.5,0Z"/>
    <path id="GR" d="M274.8,271.7l.8.6h1.1c0,0,1,0,1,0v.3s.7-.2.7-.2l-.2.5h-2c0,.1,0-.1,0-.1l-1.7-.3.3-.7ZM278.9,261.2l-.4,1.2-.3.2h-.9c0,0-.7-.2-.7-.2l-1.7.5,1,1-.7.3h-.8l-.7-.9-.3.4.3,1.1.7.9-.5.4.8.8.7.5v1s-.7-.6-.7-.6h-.6c0,.1.4,1,.4,1h-.5c0,0-.5-.3-.5-.3l.6,2h-.3l-.2-.6h-.3s-.1.7-.1.7l-.2-.2v-.4c0,0-.2-.5-.2-.5h-.3v.4c0,0,0,.1,0,.1l-.3-.3-.2-.5.3-.3-.2-.4-.2-.2h-.2s-.2-.5-.2-.5l.3-.3.2-.2h.3c0,0,.1-.2.1-.2h.3c0,0,.3.2.3.2h.3c0,0,.2-.2.2-.2h-.5s-.3-.1-.3-.1h-.6c0,.1-.6.2-.6.2l-.5-.8h0c0-.1,0-.4,0-.4l-.7-.6v-.5c0,0,.6-.9.6-.9v-.6c0,0,.5-.3.5-.3v-.5s.9-.2.9-.2l.5-.4h.8s.2-.3.2-.3h.3c0,0,1,0,1,0l1.1-.5,1,.7,1.3-.2v-.9s.7.5.7.5Z"/>
    <path id="GT" d="M114.7,305.8l-.7-.3h-.9s-.6-.3-.6-.3l-.8-.6v-.4s.2-.3.2-.3l-.2-.3.7-1.2h1.8s0-.5,0-.5h-.2c0,0-.2-.4-.2-.4l-.5-.3-.5-.5h.6v-.8h2.6s0,1.2,0,1.2v1.6c-.1,0,.3,0,.3,0l.5.3v-.2c.1,0,.5.2.5.2l-.6.6-.7.4v.3c-.1,0,0,.3,0,.3l-.3.4h-.3c0,0,0,.3,0,.3l-.3.2-.5.4v.2Z"/>
    <path id="GW" d="M220.2,309.7l-.8-.6h-.6c0,0-.3-.5-.3-.5v-.2s-.4-.3-.4-.3v-.3c0,0,.7-.2.7-.2h.5s.4-.1.4-.1h2.6c0,0,0,.5,0,.5l-.2.2v.5c.1,0-.1.2-.1.2h-.3l-.4.2h-.4s-.6.7-.6.7Z"/>
    <path id="GY" d="M157.4,313.5l.9.5.9.9v.7s.6,0,.6,0l.8.7.6.5-.2,1.3-.9.4v.3c0,0-.2.7-.2.7l.6,1h.4s.2.8.2.8l.9,1.2h-.3c0,0-.8,0-.8,0l-.5.4-.6.2h-.4c0,0-.2.3-.2.3h-.7c0,0-.9-.7-.9-.7v-.6c-.1,0-.5-.7-.5-.7l.2-1.2.4-.5-.3-.7-.5-.2.2-.6-.3-.3h-.7c0,0-.9-1-.9-1l.4-.4v-.7s.8-.2.8-.2l.3-.3-.5-.5v-.5c.1,0,1.2-.8,1.2-.8Z"/>
    <path id="HN" d="M118.6,306.9l-.2-.4h-.4c0-.1.1-.7.1-.7l-.2-.2h-.3c0-.1-.6,0-.6,0v-.2c0,0-.5-.2-.5-.2l-.3-.3h-.4c0-.1.3-.5.3-.5v-.3c-.1,0,0-.3,0-.3l.7-.4.6-.6h.1c0,0,.3-.2.3-.2h.4s.1,0,.1,0h.2c0,0,.7,0,.7,0h.7s.5-.2.5-.2l.2-.2h.4c0,0,.3.2.3.2h.4s.3-.2.3-.2l.6.2h.2s.4.3.4.3l.4.3.5.2.4.4h-.5s-.2.2-.2.2l-.5.2h-.4l-.3.2h-.3c0,0-.2-.3-.2-.3h-.1s-.2.4-.2.4h-.1s0,.3,0,.3l-.5.4-.3.2v.2c-.1,0-.6-.3-.6-.3l-.3.4h-.3s-.3,0-.3,0v.7s-.2,0-.2,0l-.2.3h-.4Z"/>
    <path id="HR" d="M268,252.7l.3.8.4.6-.5.7-.6-.4h-1s-1.2-.3-1.2-.3h-.7s-.3.5-.3.5l-.5-.5-.3.8.7.9.3.6.6.7.5.4.5.8,1.2.7-.2.3-1.3-.7-.8-.7-1.3-.6-1.2-1.4.3-.2-.6-.8v-.7s-.9-.3-.9-.3l-.4.9-.4-.7v-.7s0,0,0,0h1c0,0,.3-.3.3-.3l.5.3h.6s0-.5,0-.5l.5-.2v-.8c.1,0,1.3-.5,1.3-.5l.4.3,1.1.9,1.2.4.5-.3Z"/>
    <path id="HT" d="M138.5,296.8h.9c0,0,1.2.3,1.2.3v.8c.1,0,0,.6,0,.6l-.3.3.4.4v.4s-1-.3-1-.3h-.7c0,.1-.9,0-.9,0l-.7.3-.8-.5v-.5c.1,0,1.4.2,1.4.2h1.1c0,.1.5-.2.5-.2l-.6-.6v-.6s-.9-.2-.9-.2l.3-.4Z"/>
    <path id="HU" d="M264.3,250.8l.5-1.3-.3-.4h.8s.1-.9.1-.9l.7.5.5.2,1.2-.3v-.4c.1,0,.7,0,.7,0l.7-.3h.2c0,.1.7-.1.7-.1l.3-.5h.5c0-.1,1.5.5,1.5.5l.3-.2.8.6v.6c.1,0-.8.4-.8.4l-.7,1.4-.8,1.4-1.1.4h-.9c0,0-1.1.4-1.1.4l-.5.3-1.2-.4-1.1-.9-.4-.3-.3-.7h-.2Z"/>
    <path id="ID" d="M411.4,339.6h-.6s-1.9-1-1.9-1l1.3-.3.7.4.5.4v.4ZM416.6,339.5l-1.2.3-.2-.2v-.5c.1,0,.7-.9.7-.9l1.4-.6v.3c.1,0,.2.4.2.4l-.9,1.1ZM407.4,336.6l.5.4h.9c0-.1.4.5.4.5l-1.6.3-1,.2h-.8s.5-.8.5-.8h.8s.4-.5.4-.5ZM414.5,336.6l-.2.8-2.1.4-1.9-.2v-.5s1.1-.3,1.1-.3l.9.4h.9c0-.1,1.3-.6,1.3-.6ZM394.4,334.7h2.7c0,.1.3-.4.3-.4l2.6.7.5.9,2.1.3,1.7.8-1.6.5-1.5-.6h-1.3s-1.5,0-1.5,0l-1.3-.3-1.6-.5h-1c0-.1-.6,0-.6,0l-2.6-.6-.2-.6h-1.3c0-.1,1-1.5,1-1.5h1.7c0,0,1.1.6,1.1.6h.6c0,.1.2.6.2.6ZM431.1,333.9l-.7,1v-1.1c-.1,0,.1-.5.1-.5l.3-.5.3.4v.7ZM420.6,330.1l-.5.5-1-.3-.3-.6h1.4c0,0,.4.4.4.4ZM425.1,329.6l.5,1.1-1.2-.6h-1.2c0-.1-.8,0-.8,0h-1c0,0,.3-.8.3-.8h1.7c0,0,1.5.4,1.5.4ZM430.3,326.8l.4,2.3,1.5.8,1.2-1.5,1.6-.8h1.2l1.2.5,1,.5,1.5.3v4.6s0,4.6,0,4.6l-1.3-1.2-1.4-.3-.3.4h-1.8s.6-1.1.6-1.1l.9-.4-.4-1.5-.7-1.2-2.7-1.2h-1.2c0-.1-2.1-1.4-2.1-1.4l-.4.7h-.5c0,.1-.3-.4-.3-.4v-.6s-1.1-.7-1.1-.7l1.5-.5h1s-.1-.3-.1-.3h-2.1s-.6-.8-.6-.8l-1.3-.3-.6-.7,1.9-.3.7-.5,2.3.6.2.5ZM417.8,323.2l-1.1,1.4-1.1.3-1.4-.3h-2.3c0,0-1.2.3-1.2.3l-.2,1.1,1.3,1.2.8-.6,2.6-.5v.6c-.1,0-.7-.2-.7-.2l-.6.8-1.2.5,1.3,1.8-.3.5,1.3,1.6v.9s-.8.4-.8.4l-.6-.5.7-1.1-1.4.5-.4-.4.2-.5-1-.8v-1.4c.1,0-.8.4-.8.4v1.6c.1,0,.2,2,.2,2l-.9.2-.6-.4.4-1.3-.2-1.4h-.6s-.4-1-.4-1l.6-.9.2-1.1.7-2.1.3-.6,1.2-1,1.1.4,1.8.2h1.6c0,0,1.4-1.1,1.4-1.1l.2.3ZM422.6,323.6v1.2c0,0-.8-.1-.8-.1l-.2.8.6.7-.4.2-.6-.9-.4-1.8.3-1.1.5-.5v.8c.1,0,.9.1.9.1v.6ZM407.4,322.7l1.6,1.3-1.7.2-.5,1v1.3c0,0-1.3,1-1.3,1v1.4s-.6,2.1-.6,2.1l-.2-.5-1.6.6-.6-.9h-1c0,0-.7-.5-.7-.5l-1.7.5-.5-.7h-.9c0,0-1.2,0-1.2,0l-.2-1.9-.7-.4-.7-1.2-.2-1.2.2-1.3.8-.9.2.9,1,.8.9-.3h.9c0,.1.8-.6.8-.6h.7c0-.1,1.3.3,1.3.3l1.1-.3.7-1.9.5-.5.5-1.6h1.6l1.2.2-.8,1.3,1,1.3-.2.6ZM390.4,333.4h-1.6s-1.2-1.1-1.2-1.1l-1.8-1.1-.6-.8-1.1-1.1-.7-1-1.1-2-1.2-1.2-.4-1.2-.5-1.1-1.3-.9-.7-1.2-1.1-.8-1.5-1.5v-.7c-.1,0,.8,0,.8,0l2.2.3,1.2,1.4,1.1.9.8.6,1.3,1.5h1.4s1.2,1,1.2,1l.8,1.2,1.1.6-.6,1.1.8.5h.5s.2,1,.2,1l.5.8h1c0,.1.7,1,.7,1l-.4,1.7v2.2Z"/>
    <path id="IE" d="M232.8,235.3l.2,1.7-1.1,2.1-2.5,1.3-2-.3,1.1-2.4-.7-2.4,1.9-1.9,1.1-1.1.3,1.3-.3,1.3h.9s1.1.5,1.1.5Z"/>
    <path id="IL" d="M291.8,276.8l-.2.5-.5-.2-.3,1.1.4.2-.4.2v.4c0,0,.6-.2.6-.2v.6s-.7,2.6-.7,2.6l-.9-2.8.4-.5h0c0,0,.4-.9.4-.9l.3-1.3.2-.4h0s.5,0,.5,0v-.3c.1,0,.5,0,.5,0v.7s-.2.3-.2.3h0Z"/>
    <path id="IN" d="M378.6,284.6v-.6c-.1,0-1.6-.2-1.6-.2l.5-.7-.7-1-1,.7-1.2-.4-1.6,1-1.3,1.2-1.1.2.6.5v1c-.1,0-1.2,0-1.2,0h-1.2c0-.1-.9.1-.9.1l-1.3-.6v-.3s-.1-1.2-.1-1.2l-.9.3v.7c-.1,0,0,1,0,1l-.2.6h-1.2s-1.7-.3-1.7-.3h-1.1c0-.1-.8-.9-.8-.9l-1.9-.2-1.8-.9-1.3-.8-1.4-.6.5-1.5.9-.7-2-1.1-1.4-1-.4-1.8,1,.2v-.8s-.5-.9-.5-.9v-.9h.7c0,0,.8-1.2.8-1.2l.5-1.4-1.4-.7-1.9.7h0s0,0,0,0l-2.3-.7-.4-1.3-1-.8-.8.2-.7.3h-.6c0,0,0,.1,0,.1l-1.5,1.2.2.6h.5s1.5,1.3,1.5,1.3l-.9.8.3,2.4,1.2.5h0s0,0,0,0l1.1.8-1.2,1v1.2s-1.3,1.6-1.3,1.6l-.9,1.6-1.5,1.7h-1.6c0-.1-1.6,1.5-1.6,1.5l.9.7.2,1.2.8.8.3,1.3h-3.1s-.9,1-.9,1l1.7,1.3.4.6-.7.5,1.8,1.8,1,.2,2-.9.3,1.4v1.8s.4,1.9.4,1.9l.6,2.8,1.3,2,.2.9.3,1.8.7,1.4.5.7.5,1.4.7,2,1.3,1.3.6-.4.5-1,1.3-.4-.4-.5.6-1.1h.7c0,0,0-2.5,0-2.5l.6-1.4v-1.2c0,0-.4-1.9-.4-1.9l.4-1.1h.7c0,0,1.3-.6,1.3-.6l.7-.4v-.7l1.4-1,1.1-.9,1.6-1.7,2-1,.8-.9v-1.1c0,0,1.7-.3,1.7-.3h1s.2-.5.2-.5l-.2-1.2-.5-1.1.2-.9-.9-.4.3-.6.9-.6-1-.8.5-1.1,1.1.7h.7c0,0,.1,1.2.1,1.2l1.3.2h1.3s.8.2.8.2l-.6,1.3h-.6c0,0-.4,1-.4,1l.8.8.2-1h.4s.7,2.4.7,2.4l.7-.4-.2-.6.3-.5v-1.6c0,0,1.2.4,1.2.4l.6-1.3v-.8c0,0,.8-1.3.8-1.3v-.9s1.8-1.1,1.8-1.1l1,.3v-1c-.1,0,.4-.3.4-.3Z"/>
    <path id="IQ" d="M305.4,271.2l.9.5v1c.1,0-.6.6-.6.6l-.3,1.3,1,1.6,1.7.9.7,1.3-.2,1.2h.4v.9s.8.8.8.8h-.8c0,0-.9-.2-.9-.2l-1,1.5h-2.6c0-.1-4-3.4-4-3.4l-2.1-1.1-1.7-.4-.6-2,3.1-1.8.5-2.1v-1.3c-.1,0,.6-.4.6-.4l.7-1.1.6-.3,1.6.2.5.4.7-.3.9,2.1Z"/>
    <path id="IR" d="M317.4,269.1l1.2-.3,1-1h.9c0,0,.6-.3.6-.3l1,.2,1.6.9,1.1.2,1.6,1.6h1c0,0,.1,1.5.1,1.5l-.6,2.1-.4,1.2.6.2-.6.9.5,1.3v1c.1,0,1.2.3,1.2.3v1.1c.1,0-1.2,1.5-1.2,1.5l.7.8.6,1,1.3.7v1.4s.7.3.7.3v.7c.1,0-1.9.8-1.9.8l-.5,1.8-2.6-.5-1.5-.4-1.6-.2-.6-1.9-.7-.3-1.1.3-1.4.8-1.7-.5-1.4-1.2-1.4-.5-.9-1.5-1-2.1-.8.3-.9-.5-.5.6-.8-.8v-.9h-.5l.2-1.2-.7-1.3-1.7-.9-1-1.6.3-1.3.7-.6v-1c-.1,0-1-.5-1-.5l-.9-2.1-.8-1.4.3-.5-.4-2.1,1-.5.2.7.7.8,1,.2h.5c0,0,1.7-1.4,1.7-1.4h.5c0-.1.4.4.4.4l-.5.9.9.9h.3c0,0,.4,1.2.4,1.2l1.3.4,1,.9,2,.3,2.2-.5v-.4Z"/>
    <path id="IS" d="M221.1,199.3l-.3,2.2,1.6,2.3-1.8,2.5-4.1,2.2-1.2.6-1.9-.5-3.9-1,1.4-1.4-3.1-1.6,2.5-.6v-1c0,0-3-.8-3-.8l.9-2.2,2.1-.5,2.2,2.3,2.1-1.9,1.8,1,2.3-1.9,2.3.3Z"/>
    <path id="IT" d="M263.3,267.2l-.5,1.4.2.5-.3.9-1.1-.7-.7-.2-2-.9.2-.9,1.6.2,1.4-.2h1.1ZM254.5,261.8l.8,1.3-.2,2.4h-.6c0-.1-.6.5-.6.5l-.5-.5v-2.2c0,0-.4-1.1-.4-1.1h.8c0,0,.7-.5.7-.5ZM258.9,251l2,.5-.2,1,.3.9-1.1-.3-1.1.7v1c0,0,0,.6,0,.6l.5,1,1.3,1,.7,1.6,1.6,1.5h1.1s.3.4.3.4l-.4.4,1.3.7,1,.6,1.2,1v.3c.1,0-.1.7-.1.7l-.8-.9-1.2-.3-.6,1.2,1,.7-.2.9h-.6c0,.1-.8,1.6-.8,1.6h-.6c0,.1,0-.4,0-.4l.3-1,.3-.4-.5-1-.4-.9-.6-.2-.4-.8-.9-.3-.6-.7h-1c0-.1-1.1-1-1.1-1l-1.3-1.2-1-1.1-.4-1.9-.7-.2-1.1-.6-.6.3-.8.9h-.6c0,.1.2-.7.2-.7l-.8-.2-.4-1.5.5-.6-.4-.8v-.6c0,0,.7.4.7.4h.7c0,0,.8-.8.8-.8l.2.3h.7c0,0,.3-.9.3-.9l1,.3.6-.3v-.8c.1,0,1,.3,1,.3l.2-.4,1.4-.4.3.7Z"/>
    <path id="JM" d="M132.3,298.9h.9c0,.1.7.5.7.5l.2.4h-1s-.4.3-.4.3l-.8-.2-.8-.5.2-.3h.6c0-.1.3,0,.3,0Z"/>
    <path id="JO" d="M291.5,277.3l.2-.5,1.6.7,2.8-1.8.6,2-.3.2-2.8.8,1.4,1.6-.5.3-.2.5-1.1.2-.3.6-.6.5-1.6-.3v-.2s.7-2.6.7-2.6v-.6s.2-.5.2-.5v-1Z"/>
    <path id="JP" d="M431,274.3l.2.6-.8,1-.6-.5-.7.4-.4,1-.9-.5v-.8s.8-1,.8-1l.8.2.6-.7,1,.4ZM439.9,269.2l-.5,1.4.2.9-.7,1.2-1.8.8h-2.5c0,.1-2,2-2,2l-.9-.6v-1.3c0,0-2.5.4-2.5.4l-1.7.8h-1.6s1.4,1.3,1.4,1.3l-.9,2.8-.9.7-.7-.6.3-1.5-.9-.5-.6-1.1,1.3-.5.7-1.1,1.4-.9,1-1.2,2.8-.5,1.5.4,1.5-3.1.9.8,2.1-1.8.8-.7.9-2.2-.2-2.1.6-1.2,1.5-.3.8,2.6v1.5s-1.3,1.8-1.3,1.8v1.8ZM444,256.2l1,.4,1-.8.3,2.2-2.1.5-1.2,1.9-2.2-1.3-.8,2.1h-1.6s-.2-1.8-.2-1.8l.7-1.5h1.5c0-.1.4-2.8.4-2.8l.4-1.6,1.7,2.1,1.1.7Z"/>
    <path id="KE" d="M299.2,326.4l.8,1.1-1,.6-.3.6h-.5c0,.1-.2,1.1-.2,1.1l-.5.6-.3.9-.6.5-2-1.4v-.8c-.1,0-5.2-2.8-5.2-2.8l-.2-.2v-1.5s.4-.6.4-.6l.7-.9.5-1-.6-1.6-.2-.7-.7-1,.9-.8,1-.9.7.2v.8l.5.5h1l1.8,1.2h.4s.3,0,.3,0l.3.2h.9c0,.1.4-.5.4-.5l1.3-.6.6.5h1l-1.2,1.6v5.1Z"/>
    <path id="KG" d="M341.4,259.8l.3-.8.9-.3,2.3.7.2-1.1.8-.4,2,.8.5-.2h2.3c0,0,2.1.3,2.1.3l.7.7.9.3-.2.4-2.2,1-.5.7-1.8.2-.5,1.2-1.5-.2-1,.4-1.3.9.2.4-.4.4-2.7.3-1.7-.6h-1.5c0,.1.1-.9.1-.9l1.5.3.5-.6,1.1.2,1.8-1.3-1.7-1-1,.5-1-.7,1.2-1.2-.4-.2Z"/>
    <path id="KH" d="M387.2,310.3l-.6-.7-.7-1.5-.3-1.7.9-1.2,1.8-.3,1.3.2,1.2.6.6-1,1.2.5.3,1-.2,1.7-2.4,1.1.6.9h-1.5c0,.1-1.2.7-1.2.7l-1.2-.2Z"/>
    <path id="KP" d="M425.4,259.6l.2.3h-.5c0-.1-.6.5-.6.5l-.4.6v1.3c0,0-.7.4-.7.4l-.3.3-.5.5-.9.3-.6.5v.8s-.2.2-.2.2l.6.3.8.8-.2.4h-.6c0,.1-1,.2-1,.2l-.5.8h-.6c0,0,0,.1,0,.1l-.7-.3-.2.3h-.4c0,.1,0-.2,0-.2l-.4-.2-.4-.3.4-.8.3-.2v-.3c-.1,0,.2-1,.2-1v-.3c0,0-.9-.2-.9-.2l-.7-.5,1.1-1.2,1.6-1,1-1.3.7.6h1.2c0,0-.2-.9-.2-.9l2.2-.8.6-1.1.9,1.1Z"/>
    <path id="KR" d="M422.1,266.6l1.2,2.1.3,1.1v2s-.5.9-.5.9l-1.3.3-1.1.7h-1.3c0,.1-.2-.8-.2-.8l.3-1.3-.6-1.8,1-.3-1-1.5v-.2c0,0,.7,0,.7,0l.5-.8h1c0,0,.6-.2.6-.2l.2-.4Z"/>
    <path id="XK" d="M270.7,260.2v.4c0,0-.2,0-.2,0v-.7c0,0-.4-.2-.4-.2l-.3-.5.3-.4h.3c0-.1.2-.8.2-.8h.3c0-.1.2.2.2.2h.3c0,.1.2.4.2.4h.2c0,0,.3.4.3.4h.2s-.2.5-.2.5l-.2.2h0c0,.1-.3.2-.3.2l-.8.3Z"/>
    <path id="KW" d="M309,281.2l.3.7v.4c-.1,0,.3,1.2.3,1.2h-1s-.4-.7-.4-.7l-1.3-.2,1-1.5h.9Z"/>
    <path id="KZ" d="M341.4,259.8l-.8.4-1.9,1.3-.6,1.3h-.5s-.4-.9-.4-.9h-1.8c0,0-.3-1.6-.3-1.6h-.7s.1-1.9.1-1.9l-1.7-1.4-2.4.2-1.7.3-1.3-1.8-1.1-.7-2.2-1.4-.3-.2-3.6,1.2v7.1c0,0-.7,0-.7,0l-1-1.5-1-.5-1.6.4-.6.6v-.5c0,0,.3-.8.3-.8l-.3-.7-1.6-.7-.6-1.7-.8-.5v-.6c0,0,1.3.2,1.3.2v-1.4c0,0,1.2-.3,1.2-.3l1.2.3.3-2-.3-1.3h-1.4c0,.1-1.2-.4-1.2-.4l-1.6.9-1.3.4-.7-.3v-1.1c.1,0-.8-1.4-.8-1.4h-1c0,0-1.2-1.4-1.2-1.4l.8-1.6-.4-.4,1.1-2.4,1.5,1.3.2-1.6,2.9-2.4h2.2c0,0,3.1,1.5,3.1,1.5l1.7.9,1.5-.9h2.2s1.8,1.1,1.8,1.1l.4-.7h2c0,0,.4-1,.4-1l-2.3-1.6,1.4-1.1-.3-.6,1.4-.6-1-1.6.6-.8,5.3-.8.7-.6,3.5-.9,1.3-1,2.5.5.4,2.5,1.5-.6,1.8.8v1.3c-.1,0,1.2-.1,1.2-.1l3.5-2.3-.5.8,1.8,1.8,3.1,5.8.8-1.2,1.9,1.3,2-.6.8.4.7,1.3,1,.4.6.9,1.8-.3.7,1.3-1.1,1.4-1.2.2v2.1c0,0-.8.9-.8.9l-2.8-.7-1,3.6-.7.4-2.8.8,1.3,3.4-1,.5v1.1c.1,0-.8-.3-.8-.3l-.7-.7-2.1-.2h-2.3c0,0-.5.2-.5.2l-2-.8-.8.4-.2,1.1-2.3-.7-.9.3-.3.8Z"/>
    <path id="LA" d="M389.6,305.1l.5-.7v-1.2c0,0-1.1-1.3-1.1-1.3v-1.4c0,0-1.2-1.2-1.2-1.2h-1.1c0-.1-.3.4-.3.4h-.8s-.4-.2-.4-.2l-1.5.9v-1.3s.3-1.6.3-1.6h-.9c0,0,0-1,0-1l-.6-.5.3-.6,1.2-1v.4c.1,0,.9,0,.9,0l-.2-1.7.7-.2.8,1.2.6,1.4h1.7s.5,1.3.5,1.3l-.9.4-.4.5,1.7.9,1.2,1.7.9,1.3,1.1,1,.4,1-.3,1.4-1.2-.5-.6,1-1.2-.6Z"/>
    <path id="LB" d="M291.9,275.8h-.4s-.1.3-.1.3h-.5l.5-1.4.7-1.2h0c0,0,.6,0,.6,0l.2.7-.8.6-.3.9Z"/>
    <path id="LK" d="M356.6,314.7l-.2,1.5-.6.4-1.2.3-.7-1.1-.2-2,.6-2.3,1,.8.7,1,.7,1.5Z"/>
    <path id="LR" d="M230.6,319.1h-.4s-1.5-.7-1.5-.7l-1.3-1.1-1.2-.8-.9-.9.3-.5v-.4c0,0,.7-.8.7-.8l.7-.7h.3s.4-.2.4-.2l.6.9v.6c0,0,.2.3.2.3h.4s.3-.6.3-.6h.4s0,.4,0,.4v.7c.1,0-.2.6-.2.6l.4.4h.4c0,0,.6.7.6.7v.6s0,.2,0,.2v1.2Z"/>
    <path id="LS" d="M282.3,367.6l.5.5-.4.8-.2.5-.8.3-.3.5-.5.2-1.1-1.2.7-1,.8-.6.7-.3.6.5Z"/>
    <path id="LT" d="M273.5,234.2v-.6c-.1,0,0-.7,0-.7l-.6-.4-1.5-.4-.3-2.1,1.6-.8,2.4.2,1.4-.3.2.5.7.2,1.4,1.2v1.1c.1,0-1,.8-1,.8l-.3,1.4-1.5.9h-1.4s-.3-.8-.3-.8l-.7-.3Z"/>
    <path id="LU" d="M250,243.9l.3.5v.9c0,0-.5,0-.5,0l-.3-.2.2-1.2h.4Z"/>
    <path id="LV" d="M271.1,230v-1.9c0,0,.7-1.6.7-1.6l1.3-.9,1.1,1.9h1.1c0,0,.3-2.1.3-2.1l1.2-.5.6.3,1.2,1h1.2s.7.6.7.6v1.2c.1,0,.6,1.5.6,1.5l-1.5,1-.9.4-1.4-1.2-.7-.2-.2-.5-1.4.3-2.4-.2-1.6.8Z"/>
    <path id="LY" d="M262.4,292.4l-1,.6-.8-.8-2.2-.7-.6-1-1.1-.7-.7.3-.5-.9v-.7c0,0-.9-1.1-.9-1.1l.6-.6v-1c-.1,0,0-.9,0-.9v-.7c-.1,0,.1-1.3.1-1.3v-.7c0,0-.5-1.4-.5-1.4l.7-.4v-.7c.1,0,0-.7,0-.7l1-.6.4-.5.7-.5v-1.3c0,0,1.7.6,1.7.6h.6c0-.1,1.2.1,1.2.1l1.9.7.7,1.5,1.3.3,2,.7,1.5.8.7-.4.7-.7-.3-1.3.4-.8,1-.8,1-.2,1.9.3.5.7h.5s.4.3.4.3l1.4.2.3.5-.5.8.2.7-.4,1,.4,1.3v14.2h-1.6s0,.6,0,.6l-5.6-2.9-5.6-2.9-1.4.8Z"/>
    <path id="MA" d="M239.5,276.5l-.5-1.8v-1c0,0-.6-1.1-.6-1.1h-.6s-1.5-.4-1.5-.4h-1.3c0,.1-.8-.6-.8-.6h-1s-.4,1-.4,1l-.9,1.8-1,.7-1.4.8-.9,1.1-.2.9-.5,1.4.4,2-1.2,1.3-.7.4-1.1,1.1-1.3.2-.7.6h0s-.9,1.6-.9,1.6l-.9.6-.5,1v.8s-.4.9-.4.9l-.5.2-.8,1-.5,1.1v.5c0,0-.4.8-.4.8l-.5.4v.7c0,0-.1.6-.1.6l.3-.5h5.5s-.3-2.2-.3-2.2l.3-.8h1.3c0-.1,0-4.1,0-4.1h4.6c0,0,0-2.3,0-2.3v-.3s0-.1,0-.1v-1.9s2.3-1.2,2.3-1.2l1.4-.2,1.1-.4.5-.8,1.6-.6v-1.2c0,0,.9-.1.9-.1l.6-.6,1.8-.3.3-.6-.4-.4Z"/>
    <path id="MD" d="M279,248l.3-.3.9-.2,1,.7h.6c0,0,.6.6.6.6v.7c-.1,0,.4.3.4.3l.2.9.5.5v.3c0,0,.2.2.2.2h-.4c0,.1-.8,0-.8,0v-.3c-.1,0-.4.2-.4.2v.4c.1,0-.3.6-.3.6l-.2.7-.4.2-.3-.9.2-.9v-.9s-.9-1.2-.9-1.2l-.4-.9-.4-.6-.4-.2Z"/>
    <path id="ME" d="M269.4,259.4v-.4c0,0-.7.9-.7.9v.6c0,0-.2-.1-.2-.1l-.4-.6-.6-.4.2-.3.2-1.1.5-.4.3-.2.4.3.2.3.5.2.5.4v.2c-.1,0-.4.4-.4.4l-.4.2Z"/>
    <path id="MG" d="M311.2,342.8l.4.6.3.9.2,1.7.4.7v.7c-.1,0-.4.4-.4.4l-.5-.9-.3.4.3,1.1v.6c-.1,0-.5.3-.5.3v1.2c0,0-.6,1.7-.6,1.7l-.7,2.1-.9,2.8-.5,2.1-.6,1.8-1.1.4-1.2.7-.8-.4-1.1-.6-.4-.8v-1.4c0,0-.6-1.2-.6-1.2v-1.1c-.1,0,.1-1.1.1-1.1l.6-.3v-.5s.7-1.1.7-1.1v-.9c.1,0-.2-.7-.2-.7l-.3-.9v-1.4c-.1,0,.4-.8.4-.8l.2-.9h.7c0,0,.8-.4.8-.4l.5-.3h.6s.8-.8.8-.8l1.2-.9.4-.7-.2-.6.6.2.8-1v-.9s.5-.6.5-.6l.5.6Z"/>
    <path id="MK" d="M270.5,260.6h.2s0-.4,0-.4l.8-.3h.3c0,0,.5-.2.5-.2h.6s.7.6.7.6v1.2c.1,0-.2,0-.2,0l-.2.3h-.8s-.5.4-.5.4l-.9.2-.6-.5-.2-.8.2-.6Z"/>
    <path id="ML" d="M224.4,304.6l.5-.3.2-.9h.4s1,.4,1,.4l.8-.3h.5c0,0,.2-.2.2-.2h5.6s.3-1,.3-1l-.2-.2-.7-6.4-.7-6.6h2.2s4.7,3.3,4.7,3.3l4.7,3.3.3.7.9.4.7.2v.9s1.6-.1,1.6-.1v3.4s-.8,1-.8,1v.9c-.1,0-1.4.2-1.4.2h-1.9c0,.1-.5.6-.5.6h-.9c0,0-.9,0-.9,0l-.4-.3-.8.2-1.3.6-.3.5-1.1.6-.2.4-.6.3-.7-.2-.4.4-.2,1-1.1,1.2v.5s-.4.6-.4.6v.8c0,0-.5.2-.5.2l-.3.2-.2-.6-.4.2h-.2s-.3.4-.3.4h-1.1s-.4-.2-.4-.2h-.2c0,.1-.4-.3-.4-.3v-.4c0,0-.1-.2-.1-.2h-.3c0,.1,0-.3,0-.3l.3-.4-.6-.6-.2-.4-.3-.3h-.3s-.3.2-.3.2l-.5.2-.4.3h-.6c0-.1-.4-.5-.4-.5h-.2c0,0-.4.1-.4.1h-.2s0-.5,0-.5v-.4c0,0,0-.6,0-.6l-.5-.4-.3-.8v-.9Z"/>
    <path id="MM" d="M381.6,296.4l-.8.6h-1c0,0-.6,1.7-.6,1.7l-.6.3.7,1.3.9,1.1.6,1-.5,1.3-.5.3.3.7.9,1.1.2.8v.7s.5,1.3.5,1.3l-.8,1.3-.7,1.5v-1.1c-.1,0,.3-1.1.3-1.1l-.5-.8v-1.6c.1,0-.5-.7-.5-.7l-.5-1.7-.3-1.8-.6-1.2-.9.7-1.6,1h-.8c0-.1-.9-.5-.9-.5l.5-1.8-.3-1.4-1.1-1.7.2-.5-.8-.2-1-1.2v-1.2c0,0,.4.2.4.2v-1.1s.7-.4.7-.4l-.2-.6.3-.5v-1.6c0,0,1.2.4,1.2.4l.6-1.3v-.8c0,0,.8-1.3.8-1.3v-.9s1.8-1.1,1.8-1.1l1,.3v-1c-.1,0,.4-.3.4-.3v-.6c-.1,0,.7-.1.7-.1l.5.9.6.4v1.2s0,1.3,0,1.3l-1.3,1.3-.2,1.8,1.5-.3.3,1.4.9.3-.4,1.3,1,.6.6.3,1-.4v.6s-1.2,1-1.2,1l-.3.6-.8.3Z"/>
    <path id="MN" d="M365,245.7l1.5-.4,2.7-1.9,2.1-1,1.2.7h1.5s.9,1.1.9,1.1h1.4c0,0,2,.6,2,.6l1.4-1.5-.6-1.3,1.5-2.3,1.6.9,1.3.3,1.7.6.3,1.7,2,.9,1.3-.4,1.8-.3,1.4.3,1.4,1,.9,1.1h1.3s1.8.3,1.8.3l1.3-.5,1.9-.4,2.1-1.5.8.2.7.7,1.7-.2-.7,1.6-1,2.1.4.9.8-.3,1.4.3,1.1-.8,1.1.7,1.3,1.5-.2.7-1.1-.2-2,.3-1,.6-1,1.3-2.1.8-1.4,1.1-1.4-.4-.8-.2-.7,1.3.4.8.2.6-1,.7-1,1-1.6.7h-2.1c0,0-2.3.7-2.3.7l-1.6,1-.6-.6h-1.7l-2.1-1.1-1.4-.3-1.9.3-2.9-.4h-1.6s-.8-1.1-.8-1.1l-.6-1.8-.9-.2-1.7-1.2-1.9-.3-1.7-.3-.5-.9.5-2.4-1-1.7-2-.8-1.2-1.1-.4-1.5Z"/>
    <path id="MR" d="M224.4,304.6l-.9-1-.9-1.1-.9-.4-.7-.4h-.8s-.7.3-.7.3h-.7c0-.1-.5.3-.5.3v-.8c-.1,0,.3-.7.3-.7l.2-1.4-.2-1.5-.2-.7v-.7c.1,0-.2-.7-.2-.7l-.7-.6.3-.5h5.5s-.3-2.2-.3-2.2l.3-.8h1.3c0-.1,0-4.1,0-4.1h4.6c0,0,0-2.3,0-2.3l5.3,3.8h-2.2s.7,6.6.7,6.6l.7,6.4.2.2-.3,1h-5.6s-.2.3-.2.3h-.5c0,0-.8.2-.8.2l-1-.4h-.4s-.2.9-.2.9l-.5.3Z"/>
    <path id="MW" d="M290.1,341.4l-.4,1.1.4,1.9h.5s.5.4.5.4l.6,1v1.9c.1,0-.5.3-.5.3l-.4,1-.9-.9v-1c-.1,0,.2-.7.2-.7v-.6c0,0-.6-.4-.6-.4h-.4c0,.1-.8-.6-.8-.6l-.7-.4.4-1.3.4-.5-.3-1.2.3-1.2.2-.4-.4-1.2-.7-.6,1.4.3.3.4.5.7.4,1.9Z"/>
    <path id="MX" d="M104.8,287.7l-.5,1.4-.2,1.1v2c-.1,0-.2.7-.2.7l.2.8.4.7.3,1.2.9,1.1.3.8.6.7,1.5.4.6.6,1.2-.4h1.1c0-.1,1.1-.4,1.1-.4l.9-.3.9-.6.3-.9v-1.2c.1,0,.4-.4.4-.4l.9-.4,1.5-.3h1.2c0,0,.9,0,.9,0l.3.3v.7s-.8.9-.8.9l-.3.9.3.3-.2.6-.4,1.1-.4-.4h-.3s-.3,0-.3,0l-.5.9-.3-.2h-.2c0,0,0,.3,0,.3h-1.3s-1.3,0-1.3,0v.8h-.6l.5.5.5.3.2.3h.2c0,0,0,.6,0,.6h-1.8s-.7,1.2-.7,1.2l.2.3-.2.3v.4s-1.6-1.6-1.6-1.6l-.7-.5-1.1-.4h-.8c0,.1-1.1.7-1.1.7h-.7c0,.1-1-.2-1-.2l-1.1-.3-1.3-.7-1.1-.2-1.6-.7-1.2-.7-.4-.4h-.8c0,0-1.4-.6-1.4-.6l-.6-.7-1.5-.8-.7-.9-.3-.7h.5c0-.1-.1-.6-.1-.6l.3-.4v-.5s-.5-.7-.5-.7v-.6c-.1,0-.6-.8-.6-.8l-1.2-1.5-1.4-1.2-.7-1-1.2-.6-.3-.4.2-1-.7-.4-.8-.8-.4-1.1h-.8c0-.1-.8-1-.8-1l-.7-.8v-.5c0,0-.8-1.2-.8-1.2l-.5-1.2v-.6s-1-.6-1-.6h-.5c0,0-.8-.4-.8-.4l-.2.7.2.8v1.2c.1,0,.6.7.6.7l1,1.1.2.4h.2c0,.1.2.7.2.7h.3s.3,1,.3,1l.4.4.3.6.9.8.5,1.5.4.7.4.7v.8c0,0,.8,0,.8,0l.6.7.5.7v.3s-.6.6-.6.6h-.3s-.4-.9-.4-.9l-.9-.9-1-.7-.7-.4v-1.1s-.2-.8-.2-.8l-.7-.5-1-.7-.2.2-.4-.4-.9-.4-.8-.9h.1c0-.1.6,0,.6,0l.5-.6v-.7c0,0-1-1.1-1-1.1l-.8-.4-.5-1-.5-1.1-.7-1.3-.6-1.5h1.6c0-.1,1.8-.3,1.8-.3v.3c-.1,0,2,.8,2,.8l3.2,1.2h2.8s1.1,0,1.1,0v-.7h2.4l.5.6.7.5.8.7.5.8.4.9.7.5,1.2.5.9-1.3h1.2s1,.6,1,.6l.7,1.1.5.9.8.9.3,1.1.4.7,1.1.5,1,.3h.6Z"/>
    <path id="MY" d="M383.7,316.5v.7c.1,0,1-.2,1-.2l.5-.6h.3c0,.1.8,1,.8,1l.6.9v.9c0,0,0,.6,0,.6v.5c.1,0,.2.8.2.8l.5.4.6,1.2v.5s-1,0-1,0l-1.3-1-1.7-1.1-.2-.7-.8-.9-.2-1.2-.5-.8.2-1-.3-.6.2-.3,1.1.6ZM408.4,319l-1,.5-1.2-.2h-1.6l-.5,1.6-.5.5-.7,1.9-1.1.3-1.3-.4h-.7c0,.1-.8.8-.8.8h-.9c0-.1-.9.2-.9.2l-1-.8-.2-.9,1,.5,1.1-.3.3-1.2.6-.3,1.7-.3,1-1.1.7-.9.6.7.3-.5h.7s0-.8,0-.8v-.7c0,0,1.1-1,1.1-1l.7-1.1h.6s.7.7.7.7v.6c0,0,1,.4,1,.4l1.2.4v.6c-.1,0-1,0-1,0l.2.7Z"/>
    <path id="MZ" d="M290.1,341.4h1.1c0-.1,1.7.3,1.7.3l.4-.2h1s.5-.5.5-.5h.8s1.5-.5,1.5-.5l1.1-.8.2.6v1.4c0,0,.1,1.3.1,1.3v2.2c0,0,.3.7.3.7l-.4,1-.5,1-.9.9-1.3.6-1.6.7-1.6,1.6-.5.3-1,1-.6.3v1.1c-.1,0,.5,1.1.5,1.1l.3.9v.5s.3,0,.3,0v1.5s-.3.7-.3.7l.3.3-.2.6-.6.5-1.2.5-1.7.8-.6.6v.7c.1,0,.5.1.5.1v.8c-.1,0-1.2,0-1.2,0v-.7c-.1,0-.3-.7-.3-.7v-.6c-.1,0,.1-1.7.1-1.7l-.4-1.1-.7-2.1,1.5-1.7.4-1.1h.2c0-.1.2-1,.2-1l-.2-.4v-1.1c0,0,.3-1,.3-1v-1.9s-.7-.5-.7-.5h-.7c0-.1-.3-.5-.3-.5l-.7-.3h-1.2s0-.5,0-.5v-1c-.1,0,4.1-1.2,4.1-1.2l.8.7h.4c0-.1.6.2.6.2v.6c0,0-.2.7-.2.7v1c.1,0,1,.9,1,.9l.4-1,.6-.3v-1.9c-.1,0-.7-1-.7-1l-.5-.5h-.5s-.4-1.8-.4-1.8l.4-1.1Z"/>
    <path id="NA" d="M264.5,367l-1-1.2-.6-1.2-.3-1.5-.3-1.1-.5-2.4v-1.8s-.2-.8-.2-.8l-.5-.6-.7-1.2-.7-1.8-.3-.9-1.1-1.4v-1.1c0,0,.6-.3.6-.3l.8-.3h.9s.8.7.8.7h.2c0-.1,5.7-.2,5.7-.2l1,.7,3.4.2,2.6-.6,1.2-.3h.9c0,0,.6.4.6.4h0c0,.1-.8.5-.8.5h-.4s-.9.6-.9.6l-.5-.6-2.2.5h-1s0,5.4,0,5.4h-1.4v10.3s-1.3.8-1.3.8h-.8c0,.1-.9-.2-.9-.2h-.6c0-.1-.2-.8-.2-.8l-.6-.4-.7.8Z"/>
    <path id="NC" d="M474.8,355.4l1.2.9.7.7-.5.4-.8-.4-1-.7-.9-.8-.9-1.1-.2-.5h.6s.8.5.8.5l.6.5.5.4Z"/>
    <path id="NE" d="M244.5,308.4v-1s-1.6-.3-1.6-.3v-.7s-.8-.9-.8-.9l-.2-.7v-.7c.1,0,1,0,1,0l.5-.5h1.9c0-.1,1.2-.4,1.2-.4v-.9c.1,0,.9-1,.9-1v-3.4s2-.7,2-.7l4.1-2.9,4.8-2.9,2.2.7.8.8,1-.6.3,2.3.5.4v.5s.6.5.6.5l-.3.6-.5,3v1.9c0,0-1.9,1.4-1.9,1.4l-.6,1.9.6.5v.9s.9,0,.9,0v.7c-.1,0-.5,0-.5,0v.5s-.3,0-.3,0l-.9-1.6h-.3c0,0-1.1.7-1.1.7l-1.1-.4h-.8c0,0-.4.1-.4.1h-.8s-.8.6-.8.6h-.7s-1.7-.7-1.7-.7l-.7.4h-.7s-.5-.6-.5-.6l-1.4-.5-1.5.2-.4.3-.2.8-.4.6v1.3c0,0-1.2-.8-1.2-.8h-.5s-.5.4-.5.4Z"/>
    <path id="NG" d="M253.5,318.5l-1.5.5h-.5c0,0-.5.2-.5.2h-1.1s-.8-.9-.8-.9l-.5-1-1-.9h-1.1s-1.2,0-1.2,0v-2.3c0,0,0-.9,0-.9l.3-.9.4-.4.7-.9v-.4c-.1,0,.1-.6.1-.6l-.3-.8v-.5c0,0,.2-1.3.2-1.3l.4-.6.2-.8.4-.3,1.5-.2,1.4.5.5.5h.7s.7-.3.7-.3l1.7.7h.7s.8-.6.8-.6h.8s.4-.2.4-.2h.8c0,0,1.1.5,1.1.5l1.1-.8h.3c0,0,.9,1.6.9,1.6h.3s.6.5.6.5l-.2.3v.5c0,0-1.3,1.1-1.3,1.1l-.4.9-.2.7-.3.3-.3,1-.8.6-.2.7-.3.6v.6c-.1,0-1.1.5-1.1.5l-.8-.6h-.5s-.8.8-.8.8h-.4s-.7,1.4-.7,1.4l-.4,1Z"/>
    <path id="NI" d="M120.9,309.6l-.5-.5-.7-.6-.3-.5-.6-.4-.7-.6.2-.2.2.2h.1c0-.1.4-.2.4-.2l.2-.3h.2s0-.7,0-.7h.3s.3,0,.3,0l.3-.4.4.3v-.2c.1,0,.4-.2.4-.2l.5-.4v-.3s.2,0,.2,0l.2-.3h.1s.2.2.2.2h.3c0,0,.3-.1.3-.1h.4l.5-.2.2-.2h.5s-.1.2-.1.2v.3c0,0,0,.5,0,.5l-.3.5-.2.6v.6c0,0,0,.4,0,.4v.6s-.2.1-.2.1v.6c-.1,0,0,.4,0,.4l-.3.4v.4c0,0,.3.2.3.2l-.3.3h-.4c0,0-.2-.4-.2-.4h-.4c0-.1-.3,0-.3,0l-.9-.4-.2.2Z"/>
    <path id="NL" d="M250,236.2h1.2c0,0,.3.9.3.9l-.4,2.1-.4.9h-.8l.2,2.4-.8-.5-.9-1-1.3.5-1-.2.7-.6,1.2-3.4,1.9-1Z"/>
    <path id="NO" d="M281.1,180.8l4.4,3.1-1.8,1.1,1.5,2.6-2.4,1.6-1.1.4.6-2.8-1.8-1.6-2.2,1.4-.7,2.9-1.3,1.7-1.5-.9-1.8.2-1.6-2.1-.8,1-.9.2-.2,2.5-2.7-.6-.4,2.1h-1.4s-.9,2.6-.9,2.6l-1.4,4-2.2,4.8.5,1.1-.5,1.3h-1.4c0,0-.9,2.9-.9,2.9v4c0,0,1,1.5,1,1.5l-.5,3.4-1.2,1.9-.6,1.6-.9-1.7-2.8,3.1-1.9.6-1.9-1.4-.5-2.9-.4-6.7,1.3-1.9,3.7-2.6,2.8-3.3,2.6-4.7,3.4-6.9,2.4-2.8,3.9-5,3.1-1.8,2.3.2,2.1-3.5,2.6.2,2.5-.9Z"/>
    <path id="NP" d="M365.5,284.6v.7c-.1,0,0,1,0,1l-.2.6h-1.2s-1.7-.3-1.7-.3h-1.1c0-.1-.8-.9-.8-.9l-1.9-.2-1.8-.9-1.3-.8-1.4-.6.5-1.5.9-.7.6-.4,1.1.5,1.4,1,.8.2.5.8,1.1.3,1.1.7,1.6.4,1.6.2Z"/>
    <path id="NZ" d="M485,388.1l.3.8,1-.8.4.8v.8l-.5.9-.9,1.4-.7.8.5.9h-1.1s-1.2.8-1.2.8l-.4,1.3-.8,2-1.1.9-.7.6h-1.3s-.9-.7-.9-.7h-1.5c0-.1-.2-.9-.2-.9l.8-1.5,1.8-1.9.9-.4,1-.7,1.2-1,.8-1,.6-1.4.5-.5.2-1,1-.9.3.8ZM487.2,379.6l1,1.8v-1.2s.7.5.7.5l.2,1.3,1.1.6h.9c0,.1.8-.5.8-.5l.7.2-.3,1.6-.4,1h-1.1s-.4.5-.4.5v.8c.1,0,0,.3,0,.3l-.5,1-.7,1.3-1.1.7-.2-.5-.6-.3.8-1.5-.5-1-1.5-.7v-.7s1.1-.6,1.1-.6l.2-1.4v-1.1c0,0-.6-1.2-.6-1.2v-.3s-.6-.7-.6-.7l-1.1-1.5-.6-1.2h.5c0-.1.8.8.8.8l1.1.4.4,1.5Z"/>
    <path id="OM" d="M324.3,295l-.5,1h-.6c0,0-.3.3-.3.3l-.2.8.2,1v.2c-.1,0-.8,0-.8,0l-.9.6v.7c-.1,0-.5.3-.5.3h-.9s-.6.4-.6.4v.6s-.7.4-.7.4h-.8c0-.1-.9.4-.9.4h-.7c0,0-.5-.9-.5-.9l-1.1-2.4,4.2-1.5.9-3-.6-1.1v-.6s.4-.6.4-.6v-.6s.6-.3.6-.3l-.3-.2v-1c.1,0,.8,0,.8,0l.6,1,.8.6,1,.2.8.3.6.9.4.5.5.2v.3s-.5.9-.5.9l-.2.4-.6.5ZM320.9,287.7l-.2.3-.3-.5.4-.5h.2c0,.1-.1.8-.1.8Z"/>
    <path id="PA" d="M131.9,315.1l-.5-.4-.3-.8.3-.4h-.4c0,0-.3-.6-.3-.6l-.7-.4h-.6c0,0-.3.6-.3.6l-.6.4h-.3c0,0-.1.3-.1.3l.7.8-.4.2-.2.2h-.7c0,0-.2-.8-.2-.8l-.2.2h-.5c0,0-.3-.7-.3-.7h-.6c0,0-.4-.3-.4-.3h-.6v.3s-.2-.2-.2-.2v-.3c0,0,.2-.3.2-.3v-.3c0,0,.2-.2.2-.2l-.3-.2v-.6s.5-.1.5-.1l.5.5v.3s.5,0,.5,0h.1c0-.1.4.2.4.2h.7c0-.1.6-.5.6-.5l.9-.3.5-.4h.8c0,0,0,.2,0,.2h.8c0,0,.6.3.6.3l.5.4.5.4-.2.2.3.8-.3.4h-.5c0-.1-.2.6-.2.6Z"/>
    <path id="PE" d="M143.5,350.2l-.4.8-.7.4-1.4-.8v-.6c-.1,0-2.9-1.5-2.9-1.5l-2.5-1.6-1.1-.9-.6-1.2.2-.4-1.2-1.9-1.4-2.6-1.3-2.8-.6-.6-.4-1-1.1-.9-1-.6.5-.6-.7-1.3.4-1,1.1-.9.2.6-.4.3v.5s.6-.1.6-.1l.6.2.6.7.8-.6.3-.9.9-1.2,1.7-.6,1.5-1.5.4-.9-.2-1.1h.4c0-.1.9.5.9.5l.4.7.7.4.8,1.5,1,.2.8-.4.5.2h.8c0-.1,1.1.5,1.1.5l-.9,1.4h.4s.7.8.7.8h-1.3c0,0-.2.1-.2.1l-1.2.3-1.6,1v.7c-.1,0-.5.5-.5.5v.8c.1,0-.7.4-.7.4v.6l-.4.3.6,1.3.8.9-.3.6h.9c0,0,.5.8.5.8h1.2s1.2-.8,1.2-.8v2.2c0,0,.5.2.5.2l.8-.2,1.2,2.3-.3.5v1c0,0,0,1.2,0,1.2l-.6.7.3.5-.3.5.6,1.2-.9,1.6Z"/>
    <path id="PG" d="M460.9,334.8h-.4c0,.1-.6-.4-.6-.4l-.6-.9-.3-1.1h.2c0-.1.2.3.2.3l.4.3.7.9.7.5-.2.4ZM455.4,332.9h-.7c0,.1-.2.5-.2.5l-.8.3-.7.3h-.7l-1.2-.4-.8-.4v-.4c.1,0,1.4.2,1.4.2h.8c0-.1.2-.8.2-.8h.2s.1.7.1.7h.8c0-.1.4-.6.4-.6l.8-.5-.2-.8h.8s.3.2.3.2v.8s-.5.8-.5.8ZM448.7,335.6l1.3.9.9,1.5h.8s0,.6,0,.6l1.1.2-.4.3,1.5.6-.2.4h-.9c0,.1-.3-.3-.3-.3l-1.2-.2-1.4-.2-1.1-.9-.8-.8-.7-1.2-1.8-.6-1.2.4-.9.5.2,1-1.1.5-.8-.2h-1.5c0,0,0-4.7,0-4.7v-4.6s2.4,1,2.4,1l2.6.8,1,.7.8.7.2.8,2.3.9.3.7-1.3.2.3.9ZM457,331.5l-.4.4-.3-.8-.3-.5-.6-.5-.8-.6-1-.4.4-.3.8.4.5.3.6.3.6.6.5.4.2.7Z"/>
    <path id="PH" d="M419.4,313.4v.9c.1,0,.2.8.2.8l-.5,1.3-.5-1.4-.7.7.5,1-.4.7-1.7-.8-.4-1,.4-.7-.9-.7-.4.6h-.7c0,0-1,.7-1,.7l-.2-.4.6-1.2.9-.4.8-.5.5.6,1.1-.4.2-.6h1s0-1.1,0-1.1l1.1.7v.7c.1,0,.2.5.2.5ZM416,310.8l-.5.5-.4.9-.4.4-.9-1,.3-.4.4-.4.2-.9h.8c0,0-.2.9-.2.9l1-1.4v1.4ZM408.3,312.1l-1.9,1.3.7-1,1-.9.8-1,.7-1.4.3,1.2-.9.8-.7,1ZM413,308.5l.8.4h.9v.6s-.7.6-.7.6l-.9.4v-.7c0,0,0-.7,0-.7l-.2-.7ZM418.1,308.1l.4,1.6-1.1-.4v.5s.4.9.4.9l-.7.3v-1c0,0-.5,0-.5,0l-.2-.9h.8c0,.1,0-.4,0-.4l-.9-1.1h1.4s.4.6.4.6ZM412.5,306.8l-.4,1.2-.6-.7-.7-1.1h1.2c0,0,.5.6.5.6ZM412.2,298.9l.9.4.4-.4v.4c.1,0-.1.6-.1.6l.5,1-.4,1.2-.8.5-.2,1.2.3,1.1.7.2.6-.2,1.8.8v.8c-.1,0,.3.3.3.3v.7c-.1,0-1.2-.7-1.2-.7l-.5-.8-.4.5-.9-.9-1.3.2-.7-.3v-.6c0,0,.5-.4.5-.4l-.4-.3-.2.5-.7-.8-.2-.6v-1.4c0,0,.5.5.5.5v-2.3c.1,0,.6-1.3.6-1.3h.9Z"/>
    <path id="PK" d="M345,276.2l-.3-2.4.9-.8-1.5-1.3h-.5s-.2-.6-.2-.6l1.5-1.2h0c0,0-1,0-1,0l-1.5.4-.8.8.3.7.2.9-.7.7v.7c0,0-.3.6-.3.6h-1.3c0,0,.6,1.1.6,1.1l-.9.4-.6,1v1c0,0-.5.5-.5.5l-.5-.2-1.1.2-.2.5h-1l-.8.9v1.4c0,0-1.9.7-1.9.7h-1c0-.1-.3.2-.3.2l-.8-.2-1.4.2-2.4-.8.7.8.6,1,1.3.7v1.4s.7.3.7.3v.7c.1,0-1.9.8-1.9.8l-.5,1.8,2-.2h2.3s2.6-.3,2.6-.3l1.1,1.2.4,1.1,1,.4.9-1h3.1s-.3-1.3-.3-1.3l-.8-.8-.2-1.2-.9-.7,1.6-1.7h1.6c0,.1,1.5-1.5,1.5-1.5l.9-1.6,1.4-1.6v-1.2s1.2-1,1.2-1l-1.1-.8h0s0,0,0,0l-1.2-.5Z"/>
    <path id="PL" d="M262.6,241.7l-.6-1.4v-.8c.1,0-.2-1.2-.2-1.2l-.5-.8.4-.6-.3-1.2,1-.7,2.2-1.1,1.8-.8,1.4.4v.6c.1,0,1.5,0,1.5,0l1.7.3h2.6s.7.2.7.2l.3.7v1c0,0,.5.9.5.9v.9s-.9.5-.9.5l.4,1.1v1s.7,2,.7,2l-.2.6-.7.3-1.3,1.8.4,1h-.3c0-.1-1.3-.9-1.3-.9l-1,.3-.7-.2-.8.5-.7-.8-.6.3h0c0-.1-.6-1.2-.6-1.2h-1c0-.1-.1-.8-.1-.8l-1-.2-.2.6-.8-.5v-.6c0,0-1-.2-1-.2l-.7-.7Z"/>
    <path id="PR" d="M148.2,298.9h.7c0,.1.3.4.3.4l-.4.4h-1.1s-.8,0-.8,0v-.6c0,0,.1-.2.1-.2h1.2Z"/>
    <path id="PS" d="M291.5,277.3v1l-.2.5-.7.2v-.4c0,0,.4-.2.4-.2l-.4-.2.3-1.1.5.2Z"/>
    <path id="PT" d="M228.8,260.6l.5-.5.6-.3.4.9h.8s.2-.2.2-.2h.8c0,0,.4,1,.4,1l-.7.5v1.4s-.2.3-.2.3v.9c0,0-.7.2-.7.2l.6,1.1-.4,1.2.5.5-.2.5-.5.7v.6c.1,0-.4.5-.4.5l-.7-.2-.7.2.2-1.4v-1.1c-.1,0-.8-.2-.8-.2l-.3-.7v-1.2c.1,0,.7-.7.7-.7v-.7c.1,0,.4-1.1.4-1.1v-.8s-.3-.7-.3-.7v-.6Z"/>
    <path id="PY" d="M153.3,357.2l.6-1.8v-.8s.7-1.3.7-1.3l2.5-.4h1.3s1.3.8,1.3.8v.5s.4.8.4.8v2c0,0,1.4.3,1.4.3l.6-.3.9.4.3.5v1.4c.1,0,.3.6.3.6h.5c0,0,.5-.2.5-.2l.5.3v.8l-.2.9-.3.9-.2,1.4-1.3,1.2-1.1.3-1.6-.2-1.4-.4,1.4-2.4-.2-.7-1.4-.6-1.7-1.1-1.1-.2-2.6-2.5Z"/>
    <path id="QA" d="M313,289.5v-1.1c0,0,.3-.8.3-.8l.4-.2.4.5v.9s-.3.9-.3.9h-.4c0,.1-.4-.2-.4-.2Z"/>
    <path id="RO" d="M273.5,248.7l.6-.4.9.2h.9s.7.5.7.5l.5-.3,1-.2.4-.5h.6s.4.2.4.2l.4.6.4.9.8,1.2v.9s-.1.9-.1.9l.3.9.6.4.7-.3.6.3v.5s-.7.4-.7.4l-.4-.2-.4,2.4-.8-.2-1-.7-1.7.5-.7.5h-2.1c0-.1-1.1-.4-1.1-.4h-.5c0,.1-.4-.7-.4-.7l-.3-.3.3-.3-.4-.2-.4.4-.8-.6v-.8c-.1,0-1-.5-1-.5l-.2-.6-.8-.8,1.1-.4.8-1.4.7-1.4.9-.4Z"/>
    <path id="RS" d="M270.9,253.7l.9.5v.8c.1,0,.9.6.9.6l.4-.4.4.2-.3.3.3.3-.3.4v.7c.1,0,.8.8.8.8l-.5.6-.2.6.2.2-.2.3h-.6s-.5.1-.5.1h0c0-.1.2-.4.2-.4l.2-.5h-.2s-.3-.3-.3-.3h-.2c0,0-.2-.4-.2-.4h-.3c0-.1-.2-.4-.2-.4h-.3c0,.1-.2.7-.2.7h-.3c0,.1.1,0,.1,0l-.5-.4-.5-.2-.2-.3-.4-.3h.3c0,0,.2-1,.2-1l-.7-.8.4-.9h-.5s.5-.7.5-.7l-.4-.6-.3-.8,1.1-.5h.9c0,0,.8.9.8.9l.2.6Z"/>
    <path id="RU_europe" d="M307.7,124.6l-3.1-.3,2.7-1.6h2.1c0-.1.3,2.2.3,2.2l.8-2.1,1.3-1.5,2.1,1.9-.5,1.3-1.9,1.1-1.3.6-.2,1.4-1.6,1.4-1.5-1.9.8-2.6ZM325.5,238.6l-.9-.3v-1.3s.5-1.1.5-1.1l.7-.7-.4-.9-.9-.5-.9.6-1,.8-.9-1.2-.6-.9-.7-1.2,1.5-.2,1.3-.3.8-1.3-.2-1.1-1.1-.9.3-1.2,1.1-1.4.9-1.8.9-2.5.7-4.4.9-10,2.6-2,2.4-2.7,2-1.6,1.9-1.9,1-2-.5-3.7-4.3-3.7-1.9-1.2-4.2-1.2-.7,1.3,1.5,2.3-1.6,2.6-1.6-2.3-2.1,1.6h-2.6c0,.1-1,1.4-1,1.4l-1.7-.4,1.4-2.3-1.1-.2-4.9,3.3-2.9,1.8-.3,2.3-2.2.8-1.1-1.2v-2s1.8-.5,1.8-.5l-.8-2.1-3.9-1.2,1,2.4-.7,2.2,1.2,2.1-.8,2.4-1.3-1.2-1.3-.2-3.3,3.4.9,2.4-1.2.8-3.4-2.1-.9,1.3.8,1.4-.2,1.6-1.1-.8-1.8-1v-3.4c0,0-.2-1.6-.2-1.6l-2.3-2.6,1-.5,6.3,2.7,2.3-.9,1.6-1.9v-2.4c0,0-1.2-1.8-1.2-1.8l-5.3-4.3-3.9-.9-2.3-2.4-1.5,1.4-2.4,1.6-1.1.4-.2,2.7,2.2,2.5-1.3,2.8,1.6,4-.9,2.9,1.3,2.4-.6,2.1,2.1,2.1-.5,1.6-1.3,1.7-3,3.7,1.5,1.3-1.6,1.5.2.5-1,1.6.4,2.5-.6.8.7.6v1.2c.1,0,.6,1.5.6,1.5l1.5.6.2.6.7-.3,1.4.6v1.2c.1,0-.2.7-.2.7l.9,1.6.6.4v.4c0,0,.9.4.9.4l.4.6-.5.5h-1.1c0,0-.3.1-.3.1l.3.8.3,1.5h.5c0,0,.4-.4.4-.4h.4c0,.1,1.5-.1,1.5-.1l.9,1.3-.4.5v.7c.1,0,1.2.1,1.2.1l.5,1v.4s1.8.8,1.8.8l1.1-.3.9,1h.8s2.1.7,2.1.7v.6s-.6,1.1-.6,1.1l.3,1.2-.2.7-1.4.2-.7.6v.9s1.2-.3,1.2-.3v.5s-2,.8-2,.8l.8.8-1.2,1.7-1,.3,1.2,1.2,1.6.7,1.8,1.6.2-.2,1.2.3,2.1.3,1.9.9.2.4.9-.3,1.3.4.4.8.9.4h.4c0,0,1,1.2,1,1.2h.6c0,.1.2-.4.2-.4l.8-.8-1.5-2.2v-1.3c.1,0-1.1-1.9-1.1-1.9l1.4-2.1,1.4-.3.6-1.2-.7-.3v-1.1c.1,0-.8-1.4-.8-1.4h-1c0,0-1.2-1.4-1.2-1.4l.8-1.6-.4-.4,1.1-2.4,1.4,1.3.2-1.6,2.9-2.4h2.2c0,0,3.1,1.5,3.1,1.5l1.7.9,1.5-.9h2.2s1.8,1.1,1.8,1.1l.4-.7h2c0,0,.4-1,.4-1l-2.3-1.6.2-.2h-.2c0,0-.4-1-.4-1ZM315.3,176.1l-1.4,1,.2,2.4,2.5,1.2.4,1.9,4.6.6.8-.4-2.7-3.6-.3-3.8,2.2-4.6,2.1-4.9,4.4-5.1,4.3-2.7,5-2.9.9-1.9-1-2.4-2.7.8-2.4,2.3-4.7,1.1-4.6,3.7-3.1,2.9.4,2.4-3.4,4.5,1.3.6-2.8,4.2v2.6ZM272.9,232.6l-1.5-.4-1.9.8-.3,1.1,1.7.3h2.6s-.1-.7-.1-.7l.2-.7-.6-.4Z"/>
    <path id="RU_asia" d="M441.4,168.2l2,1.9.2,1.3h-2.1s-2.9-.5-2.9-.5l-.2-.3,1.3-2,1.8-.5ZM389.4,142l.4-2.9-3.6-4.2-1.1-.5-1.2.9-2.6,9.3,7.9-2.6ZM452,163.9l1.6-2.1-3.5-1.4-2.6-.8-.3,1.8,2.6,2.1,2.3.5ZM494.8,182.3l1.8-.3,1.5-1v-.6c.1,0-1.9-1.3-1.9-1.3h-1.2s-.2.2-.2.2l-1.8,1.8.3,1.4,1.5-.2ZM439.4,163.1l5.2.2,1.1-4.1-5.1-3-3.7-.3-1.9,1.1-.8,3.9,2.8,3.5,2.3-1.3ZM372.8,133.8l2.3,2.9,3.9,2.1,3.1-.9.3-6.8-3.2-8.1-2.7-4.5-3,2.1-3.7,5.9,1.9,1.6,1.1,5.7ZM506.3,197.6l-3.8-.5.3,2.6-.9-.9v-2.2c.1,0-3.6-3.7-3.6-3.7l-3.4-2.9-2-1.7-4-1.9-2.9.2-4.5-1.1-.6,1.8,1.1,2.5-1.7,1.2-2.4-3.5-2.7.4-2.7-.8h-2.5c0,.1-1.9.9-1.9.9l-1.7-1.1.2-3-1.2-1.8-2.8-.7-5.7.8-3.7-3.3-1.2-2.7-12.7-3-1.9,2,1,4.2-2.3-.6-1,1.2-2.7-1.4-2.4,1.2-2.3-2-1.4,4.6-2.2-1.8-1.8-3.5.8-1.9-.6-3-2.3-2.6h-2.2s-3-.8-3-.8v3.7c0,0-6-.7-6-.7l-.3-2.3-4.5-.8-2.2.8-.6,1.3-.7-3.2-1.3,1-2.1-1.3-1.7-.7,1.1-1.5,3.7-3,1.6-1.6.4-2.9-1.1-2.2-3.2-2.9h-4.1c0,0-1.3,1.4-1.3,1.4l-.4-3-3.2-1,1.9-1.6-2.4-2.1-3.3,2.7-1.3,2.7-.4,2.6h-2.6c0-.1-3.2,3-3.2,3l-1.1-1.3-3.7.5-.5,1.6-3.7.8-2.7,2.8-1.6.2-1.6,3.5,1.1,2.7-3.1.7-3.4-.2-2.4,1v5.2c.1,0,1.4,3.8,1.4,3.8l-2.6-2.6-2.9.2-2.4,1.8.6,3.2-1.5-.8.6-4.4-.7-2.6h-.7c0,.1.3,3.4.3,3.4l-2.5,3,1.8,3.5-1.1,4.2.3,2.2,1.5.3-.7,2.5.8,2.1-1.2,1.8-.4,1.8-1.5.9-.6,1.3-1.6-.5,2.8-5.1.6-2.5-1.6-2.4.3-5.6-.5-3-.9-1.4,1.3-3.7-.3-2.6-3.7-1.3-1,.9-.9,4.2-2.6,4v1.4s.8,3.3.8,3.3l-.5,1.9,1.7.4v.8s1.5,2.1,1.5,2.1l-.9,2-.8-.7.5,3.7-1,2-1.9,1.9-2,1.6-2.4,2.7-2.6,2-.9,10-.7,4.4-.9,2.5-.9,1.8-1.1,1.4-.3,1.2,1.1.9.2,1.1-.8,1.3-1.3.3-1.5.2.7,1.2.6.9.9,1.2,1-.8.9-.6.9.5.4.9-.7.7-.6,1.1v1.3s1,.3,1,.3l.4.9h.2c0,0,1.2-.9,1.2-.9l-.3-.6,1.4-.6-1-1.6.6-.8,5.3-.8.7-.6,3.5-.9,1.3-1,2.5.5.4,2.5,1.5-.6,1.8.8v1.3c-.1,0,1.2-.1,1.2-.1l3.5-2.3-.5.8,1.8,1.8,3.1,5.8.7-1.2,1.9,1.3,2-.6.8.4.7,1.3,1,.4.6.9,1.8-.3.7,1.3.6-.2,1.5-.4,2.7-1.9,2.1-1,1.2.7h1.5s.9,1.1.9,1.1h1.4c0,0,2,.6,2,.6l1.4-1.5-.6-1.3,1.5-2.3,1.6.9,1.3.3,1.7.6.3,1.7,2,.9,1.3-.4,1.8-.3,1.4.3,1.4,1,.9,1.1h1.3s1.8.3,1.8.3l1.3-.5,1.9-.4,2.1-1.5.8.2.7.7,1.7-.2,1.7.8,2-1.4v-1s1.3-2.4,1.3-2.4l.8-.7v-1.3s-.8-.6-.8-.6l1.2-1.2,1.7-.4h1.9c0,0,2.1.6,2.1.6l1.2.9.9,2.3.5,1,.5,1.4.5,2.1,2.4.7,1.7,1.5.6,2h2.1l1.2-.8,2.3-.6-.7,1.9-.5.8-.5,2.2-.9,2-1.7-.4-1.2.7.4,1.7-.2,2.3h-.7c0,0,0,1,0,1l.2.3.2-.6,1.9-1.4.9.9h.9s1.9-1.2,1.9-1.2l.9-1.1,1.9-2.3,1.9-2.3.5-1.4,2.1-3,.6-3.4v-2.6c.1,0,1.2-2.3,1.2-2.3v-2s-2.1-2.6-2.1-2.6l-1.5-.2-.9,1.2-1.4-.5-.7-1.5-2.2-.3,5.4-5.9,4.6-5.2,4.6-.8,4.3.5,1.7-1.4,2.2.4v2c-.1,0,2.1-.3,2.1-.3l3.1-.7-1.2-1.7,3.5-4.8,3.6-1,1.2,3.6,3.6-3.2.8-2.5,1.7-.3-1.1,4.2-2.5,2.3-2.4,2.9-2.5,3.4-2.2.6v1.2c0,0-1.3,1.5-1.3,1.5l-.7,3.5.8,5.3.6,3.4.5,1.5,2-2.1.4-2.3,2.1-.6.5-2.7,2.5-1.2-.6-1.1.6-2.1h1.3c0,0,.2-3.8.2-3.8l-1.6-.6v-1.1c0,0,1.6-2.6,1.6-2.6l.5-1.8,1.9.4,1.4-1.2.6,1,3.7-2.2,2,2,.5-1.3,2-1.8,2.2-2.1,1.2-.3,3.9-2.3,2.6.7.4-.8-.2-1.3-.6-.8-.8-2.6-1.3-1.7,1.8.2,1.8-1.5h0s.8-1.4.8-1.4l-.6-1.6,1.7-.8-.3,1.3.8,1.2,1.6-.4,1.4.6.3,1.5,1.9,1,1.1,1.1h1.3c0,0,.6-.6.6-.6v-3.2s2.3-.4,2.3-.4l1.4-1.5-2.8-3.3ZM445.1,246.4l-1.4-3.9-.6-2.3v-2.3s-.5-2.3-.5-2.3l-.4-1.6-.6.3.6,1.1-1.3,1.1v3.2c-.1,0,.7,2.2.7,2.2v2.9c0,0-.4,1.6-.4,1.6l.2,2.3-.2,2,.3,1.7.9-1.6,1.1,1.2v-1.4s-1.3-2.1-1.3-2.1l.9-3.1,2.1.7Z"/>
    <path id="RW" d="M284.3,326.8l.6.8v.8c0,0-.5.2-.5.2h-.7c0,0-.4.7-.4.7h-.9c0-.1.1-.9.1-.9h.2c0-.1,0-.9,0-.9l.4-.4h.3c0,.1.8-.3.8-.3Z"/>
    <path id="SA" d="M301.7,302.1l-.2-.6-.4-.4v-.6c-.1,0-.8-.5-.8-.5l-.8-1.2-.4-1.2-1-1-.6-.2-.9-1.4-.2-1v-.9c0,0-.7-1.7-.7-1.7l-.7-.6-.8-.3-.5-.9v-.3c0,0-.3-.8-.3-.8l-.4-.3-.5-1.2-.9-1.3-.7-1.1h-.7s.2-.9.2-.9v-.6c0,0,.2-.6.2-.6l1.6.3.6-.5.3-.6,1.1-.2.2-.5.5-.3-1.4-1.6,2.8-.8.3-.2,1.7.4,2.1,1.1,4,3.3h2.6c0,.1,1.3.3,1.3.3l.4.8h1s.6,1.3.6,1.3l.7.4.2.6,1,.7v.6c0,0,0,.5,0,.5l.2.5.4.4.2.5.2.4.4.3h.4c0-.1.3.5.3.5v.4c0,0,.6,1.5.6,1.5l4.2.8.3-.3.6,1.1-.9,3-4.2,1.5-4.1.6-1.3.7-1,1.5-.7.2-.4-.5h-.5c0,0-1.4,0-1.4,0l-.3-.2h-1.6s-.4.2-.4.2l-.6-.4-.4.7v.6c.1,0-.5.5-.5.5Z"/>
    <path id="SB" d="M469.7,340l.4.5h-1s-.5-.9-.5-.9l.8.3h.3ZM467.9,339.1h-.5s-.9-.1-.9-.1l-.3-.2v-.6c0,0,1,.2,1,.2l.5.3.2.4ZM469,338.7l-.2.3-1-1.2-.3-.8h.5l.5,1.1.6.7ZM466.5,336.9v.3c0,0-1-.6-1-.6l-.8-.5-.5-.5h.2c0-.1.6.2.6.2l1.2.6.3.5ZM463.2,335.5h-.3c0,0-.6-.2-.6-.2l-.6-.6v-.2c0,0,.9.6.9.6l.6.5Z"/>
    <path id="SD" d="M289.3,311.9h-.2s0-.7,0-.7l-.2-.5-.7-.6-.2-1,.2-1.1h-.7c0,0,0,.2,0,.2h-.8c0,0,.3.5.3.5v.9c.1,0-.7.8-.7.8l-.7,1h-.7c0,.1-1.2-.7-1.2-.7l-.5.3v.4c-.1,0-.9.3-.9.3v.3h-1.5l-.2-.3h-1c0,0-.5.2-.5.2h-.4c0-.1-.7-1-.7-1l-.2-.4-1,.2-.4.7-.4,1.3-.5.3-.4.2h-.1c0,0-.5-.5-.5-.5v-.4c0,0,.1-.6.1-.6v-.6l-.8-.9-.2-.6v-.3s-.5-.4-.5-.4v-.8s-.3-.6-.3-.6h-.5c0,0,.1-.4.1-.4l.4-.6-.2-.6.5-.4-.3-.3.4-.9.6-1.1h1.2c0,.1,0-5.7,0-5.7v-.6s1.6,0,1.6,0v-3h16.7l.5,1.5-.3.3.2,1.5.5,1.8.5.4.8.5-.7.8-1,.2-.4.5v1c-.1,0-.7,2.1-.7,2.1l.2.6-.2,1.2-.6,1.4-.8.7-.6,1.1v.6c-.1,0-.8.4-.8.4l-.4,1.5v.2Z"/>
    <path id="SE" d="M272.7,201.8l-1.4,2.4.2,2-2.2,2.6-2.7,2.7-1,4.2,1,2,1.3,1.6-1.3,3.1-1.5.6-.5,4.4-.8,2.4-1.7-.2-.8,2h-1.6c0,.1-.4-2.2-.4-2.2l-1.2-2.9-1.1-3.8.6-1.6,1.2-1.9.5-3.4-.9-1.5v-4c0,0,.8-3,.8-3h1.4c0,0,.5-1.2.5-1.2l-.5-1.1,2.2-4.8,1.4-4,.9-2.6h1.4s.4-2.1.4-2.1l2.7.6.2-2.5.9-.2,1.9,1.9,2.2,2.6v5.6s.5,1.4.5,1.4l-2.4,1Z"/>
    <path id="SI" d="M260.9,251.5l1.2.2.7-.5h1.2c0,0,.3-.4.3-.4h.2s.3.7.3.7l-1.1.5v.8c-.1,0-.6.2-.6.2v.6s-.5,0-.5,0l-.5-.3-.3.3h-1c0,0,.3-.3.3-.3l-.3-.9.2-1Z"/>
    <path id="SJ" d="M276.3,145.1l-3.1,2.7-2.5-1.5,1-1.7-.8-2.2,2.9-1.4.6,2.6,2,1.5ZM267.2,131.7l4.6,5.7-3.5,2.8-.8,5.1-1.2,1.2-.7,5.3-1.7.2-3-3.8,1.3-2.3-2.1-1.9-2.7-5.9-1.1-5.9,3.8-2.9.8,2.8h2c0-.1.5-2.8.5-2.8l2.1-.3,1.8,2.8ZM277.3,125.9l2.8,2.9-2.1,4.3-4.1.9-4.2-1.3-.3-2.2h-2c0-.1-1.5-3.9-1.5-3.9l4.3-2.4,2,2,1.4-2.6,3.6,2.1Z"/>
    <path id="SK" d="M268,245.2h0c0,.1.6-.2.6-.2l.7.8.8-.5.7.2,1-.3,1.3.8-.4.6-.3.9-.3.2-1.5-.6h-.5c0,.1-.3.6-.3.6l-.7.3h-.2c0-.1-.7.2-.7.2h-.6c0,0-.1.5-.1.5l-1.2.3-.5-.2-.7-.5v-.7c-.1,0,0-.3,0-.3l.2-.5h.6s.5-.2.5-.2v-.2s.3-.1.3-.1v-.5c0,0,.4,0,.4,0l.2-.4h.4Z"/>
    <path id="SL" d="M225.4,315.7h-.4c0-.1-1-.7-1-.7l-.7-.8-.2-.5-.2-1,.8-.6.2-.4.2-.3h.4s.3-.3.3-.3h1.1l.4.5.3.6v.4s.2.4.2.4v.5s.4,0,.4,0l-.7.7-.6.8v.4c0,0-.4.5-.4.5Z"/>
    <path id="SN" d="M218,306l-.6-1.1-.7-.5.6-.3.7-1,.3-.7.5-.5h.7c0,.1.7-.2.7-.2h.8s.7.4.7.4l.9.4.9,1.1.9,1v.9c0,0,.3.8.3.8l.5.4v.6c.1,0,0,.4,0,.4h-.2c0,0-.8,0-.8,0v.2c-.1,0-.4,0-.4,0l-1-.4h-.7s-2.6,0-2.6,0l-.4.2h-.5s-.7.2-.7.2l-.2-1.1h1.3s.3-.2.3-.2h.3s.5-.3.5-.3l.6.3h.6s.6-.3.6-.3l-.3-.4-.5.2h-.4s-.6-.4-.6-.4h-.4s-.3.4-.3.4h-1.5Z"/>
    <path id="SO" d="M313.5,308.7v-.4s-.6,0-.6,0l-.7.5h-.7c0,.1-.6.4-.6.4h-.4s-.8,0-.8,0l-.5.3h-.7c0,0-1.2.5-1.2.5l-1.5.2-1.3.4h-.7s-.6-.6-.6-.6l-.3-.6-.5-.3-.5.8-.3.5.5.8.5.7.5.5,4.6,1.7h1.2s-4,4.2-4,4.2h-1.8c0,0-1.3,1-1.3,1h-.9s-.4.5-.4.5l-1.2,1.6v5.1s.8,1.1.8,1.1l.3-.3.3-.7,1.5-1.7,1.3-1.1,2.1-1.4,1.4-1.1,1.7-1.9,1.2-1.6,1.2-2.1.9-1.8.7-1.6.4-1.5.3-.5v-.8s.1-.8.1-.8Z"/>
    <path id="SR" d="M161.1,316.9l1.7.3.2-.3h1.1c0-.1,1.5.3,1.5.3l-.7,1.2v1c.1,0,.7.8.7.8l-.2.6v.6c-.1,0-.5.6-.5.6l-.8-.3h-.7c0,.1-.6,0-.6,0v.4c-.1,0,0,.3,0,.3v.3c-.1,0-.9-.1-.9-.1l-.9-1.2-.2-.8h-.4s-.6-1-.6-1l.3-.7v-.3c0,0,.8-.4.8-.4l.2-1.3Z"/>
    <path id="SS" d="M289.3,311.9v1.1s-.2.4-.2.4h-.7s-.5.8-.5.8h.9c0,.1.7.8.7.8l.3.6.6.3.8,1.5-1,.9-.9.8-.9.6h-1l-1.1.3-.9-.3-.6.4-1.2-.9-.3-.6-.8.3h-.7c0,0-.4.1-.4.1l-.6-.2-.8-1.2-.2-.4-1.1-.6-.4-.8-.6-.6-.9-.7v-.5s-.8-.6-.8-.6l-1-.6.4-.2.5-.3.4-1.3.4-.7,1-.2.2.4.7.8h.4c0,.1.5-.1.5-.1h1c0,0,.2.3.2.3h1.4v-.3c0,0,.8-.3.8-.3v-.4c.1,0,.7-.3.7-.3l1.2.8h.7c0-.1.7-1.2.7-1.2l.8-.8v-.9c-.1,0-.5-.4-.5-.4h.8c0,0,0-.4,0-.4h.7c0,0-.2,1.1-.2,1.1l.2,1,.7.6.2.5v.7s.2,0,.2,0Z"/>
    <path id="SV" d="M117.9,306.3l-.2.3h-.8s-.5-.2-.5-.2l-.6-.3h-.8c0,0-.4-.4-.4-.4v-.2s.5-.4.5-.4l.3-.2v-.2c0,0,.3,0,.3,0h.4c0,.1.3.4.3.4l.4.2v.2c0,0,.7-.2.7-.2h.3c0,.1.2.3.2.3v.6Z"/>
    <path id="SY" d="M296.1,275.6l-2.8,1.8-1.6-.7h0s.2-.3.2-.3v-.7s.3-.9.3-.9l.8-.6-.2-.7h-.6c0,0-.1-1.4-.1-1.4l.3-.7.4-.4.4-.4v-1c0,0,.5.3.5.3l1.6-.5.7.3h1.2s1.6-.7,1.6-.7h.8s1.6-.2,1.6-.2l-.7,1.1-.8.4v1.3c.1,0-.4,2.1-.4,2.1l-3.1,1.8Z"/>
    <path id="SZ" d="M286.6,364.1l-.3.7-.8.2-.8-.8v-.5s.4-.6.4-.6v-.5c.1,0,.5-.1.5-.1l.7.3.2.7v.7Z"/>
    <path id="TD" d="M261.9,307.1v-.7c.1,0-.8,0-.8,0v-.9s-.6-.5-.6-.5l.6-1.9,1.8-1.4v-1.9c0,0,.6-3,.6-3l.3-.6-.6-.5v-.5s-.6-.4-.6-.4l-.3-2.3,1.4-.8,5.6,2.9,5.6,2.9v5.8c0,0-1.1-.1-1.1-.1l-.6,1.1-.4.9.3.3-.5.4.2.6-.4.6v.5c-.1,0,.4,0,.4,0l.3.6v.8s.5.4.5.4v.3s-.9.2-.9.2l-.7.6-1,1.6-1.3.7h-1.4c0,0-.4,0-.4,0v.5c.1,0-.6.5-.6.5l-.6.6-1.8.5-.4-.3h-.2s-.3.3-.3.3h-1.2c0,.1.2-.3.2-.3l-.4-1-.2-.6-.6-.2-.8-.8.3-.7h.6c0,.1.4,0,.4,0h.8s-.8-1.3-.8-1.3v-.9c0,0,0-.9,0-.9l-.6-.9Z"/>
    <path id="TF" d="M338.5,403.4l.9.7,1.3.3v.4c0,0-.3,1-.3,1h-2.2c0,.1,0-1,0-1l.2-.9v-.4Z"/>
    <path id="TG" d="M244.1,316.6l-1.1.3-.3-.5-.4-.9v-.7c-.1,0,.2-1.3.2-1.3l-.4-.5v-1.1c-.1,0-.1-1-.1-1l-.6-.7v-.4c.1,0,1.3,0,1.3,0l-.2.8.4.4.5.5v.7c0,0,.3.3.3.3v3.2c0,0,.3,1,.3,1Z"/>
    <path id="TH" d="M385.9,308.1l-1.3-.7h-1.2s.2-1.1.2-1.1h-1.2s-.1,1.6-.1,1.6l-.8,2.1-.5,1.3v1c0,0,1,0,1,0l.6,1.3.3,1.2.8.8.9.2.7.7-.5.6-.9.2v-.7c-.1,0-1.3-.6-1.3-.6l-.2.3-.6-.5-.2-.7-.7-.8-.7-.7-.2.8-.3-.8.2-.9.4-1.4.7-1.5.8-1.3-.6-1.3v-.7s-.1-.8-.1-.8l-.9-1.1-.3-.7.5-.3.5-1.3-.6-1-.9-1.1-.7-1.3.6-.3.6-1.6h1c0,0,.8-.7.8-.7l.8-.3.6.5v.9c0,0,1,0,1,0l-.3,1.6v1.3s1.5-.9,1.5-.9l.4.3h.8s.3-.6.3-.6h1.1c0,.1,1.1,1.3,1.1,1.3v1.4c0,0,1.2,1.3,1.2,1.3v1.2c0,0-.5.7-.5.7l-1.3-.2-1.8.3-.9,1.2.3,1.7Z"/>
    <path id="TJ" d="M341.4,263.6l-.5.6-1.5-.3v1.1c-.1,0,1.4-.1,1.4-.1l1.7.6,2.7-.3.4,1.7.5-.2.9.4v.7s.2,1,.2,1h-2.4c0-.1-.9.7-.9.7l-.6.2-.5.4-.6-.6v-1.5c.1,0-.3,0-.3,0l.2-.5-.8-.4-.6.6-.2.7-.2.3h-.8s-.5.8-.5.8l-.5-.3-1,.6-.4-.2.8-1.8-.3-1.3-1-.4.4-.8h1.2c0,0,.7-.9.7-.9l.4-1.2,1.9-.4-.3.9.2.5h.6Z"/>
    <path id="TL" d="M417.4,337.7l.2-.3,1.2-.3h1c0,0,.4-.2.4-.2l.5.2-.5.4-1.5.6-1.2.4v-.4s-.2-.3-.2-.3Z"/>
    <path id="TM" d="M327.6,271.8v-1.5c-.1,0-1.2,0-1.2,0l-1.6-1.6-1.1-.2-1.6-.9-1-.2-.6.3h-.9c0,0-1,1-1,1l-1.2.3-.3-1.2.2-1.9-1.1-.6.4-1.2h-.9c0-.1.3-1.7.3-1.7l1.3.5,1.2-.6-1-1.1-.4-1.1-1.1.5v1.4c-.1,0-.6-1.2-.6-1.2l.6-.6,1.6-.4,1,.5,1,1.5h.7c0,0,1.6-.1,1.6-.1l-.2-.9,1.2-.7,1.2-1.1,1.9,1,.2,1.5.5.4h1.5c0,0,.5.3.5.3l.7,1.9,1.6,1.3.9.8,1.5.9,1.9.8v1.1s-.5,0-.5,0l-.7-.5-.2.6-1.2.3-.3,1.4-.8.5-1.1.3-.3.8-1.1.2-1.4-.7Z"/>
    <path id="TN" d="M254.8,280.7l-.6-2.9-.9-.7v-.4s-1.2-1-1.2-1v-1.3c-.1,0,.7-.9.7-.9l.3-1.4-.2-1.6.3-.9,1.5-.7,1,.2v.9s1.2-.6,1.2-.6v.3c.1,0-.6.9-.6.9v.8s.5.4.5.4l-.2,1.5-.9.9.3.9h.7s.4.8.4.8l.5.3v1.3c0,0-.8.5-.8.5l-.4.5-1,.6.2.7v.7c-.1,0-.8.4-.8.4Z"/>
    <path id="TR" d="M293.4,261.6l2,.7,1.6-.3,1.2.2,1.7-1h1.5c0,0,1.4.8,1.4.8l.2.7v.9c-.1,0,.9.5.9.5l.6.5-1,.5.4,2.1-.3.6.8,1.4-.7.3-.5-.4-1.6-.2-.6.3-1.6.3h-.8s-1.6.6-1.6.6h-1.2s-.7-.3-.7-.3l-1.6.5-.5-.3v1c0,0-.5.4-.5.4l-.4.4-.5-.8.5-.7-.9.2-1.2-.4-1,1-2.1.2-1.1-.9h-1.5c0,0-.3.7-.3.7l-1,.2-1.4-.9h-1.5s-.8-1.7-.8-1.7l-1-1,.7-1.4-.9-.9,1.6-1.7h2.2c0,0,.6-1.5.6-1.5l2.7.2,1.7-1.2,1.6-.5h2.3s2.5,1.3,2.5,1.3ZM279.8,262.8l-1.2,1-.4-.9v-.4s.4-.2.4-.2l.4-1.2-.7-.5,1.4-.6,1.2.3.2.7,1.2.6-.3.5h-1.7c0,.1-.6.7-.6.7Z"/>
    <path id="TT" d="M154.7,310.1l.8-.2h.3c0,0,0,1.1,0,1.1l-1.2.2h-.3c0-.1.4-.5.4-.5v-.6Z"/>
    <path id="TW" d="M412.9,290l-.8,2.4-.6,1.2-.7-1.3-.2-1.1.8-1.5,1.1-1.2.6.5-.2.9Z"/>
    <path id="TZ" d="M289.2,326.6l.2.2,5.1,2.8v.8c.1,0,2.1,1.4,2.1,1.4l-.6,1.7v.8c0,0,1,.5,1,.5v.4s-.3.9-.3.9v.4c0,0,0,.7,0,.7l.5.9.6,1.4.5.3-1.1.8-1.5.6h-.8s-.5.4-.5.4h-1s-.4.2-.4.2l-1.7-.4h-1.1c0,.1-.4-1.8-.4-1.8l-.5-.7-.3-.4-1.4-.3-.8-.4-.9-.2-.6-.2-.6-.4-.8-1.8-.8-.8-.3-.8v-.7c.1,0-.1-1.3-.1-1.3h.6c0,0,.5-.6.5-.6l.6-.7.3-.3v-.5s-.3-.3-.3-.3v-.6c0,0,.3-.2.3-.2v-.8c0,0-.5-.8-.5-.8l.5-.2h1.5s2.9,0,2.9,0Z"/>
    <path id="UA" d="M286.2,239.4h.5c0,0,.4-.4.4-.4h.4c0,.1,1.5-.1,1.5-.1l.9,1.3-.4.5v.7c.1,0,1.2.1,1.2.1l.5,1v.4s1.8.8,1.8.8l1.1-.3.9,1h.8s2.1.7,2.1.7v.6s-.6,1.1-.6,1.1l.3,1.2-.2.7-1.4.2-.7.6v.9s-1.2.2-1.2.2l-.9.7h-1.3c0,.1-1.2.9-1.2.9l-.7.5.7.7.7.5h1.4c0-.1-.3.6-.3.6l-1.5.3-1.9,1.1-.8-.4.3-.9-1.5-.6.3-.4,1.6-.8-.2-.4-.2.2h-.2c0-.1-2.2-.6-2.2-.6v-.8c0,0-1.4.3-1.4.3l-.5,1.1-1.1,1.5-.6-.3-.7.3-.6-.4.4-.2.2-.7.4-.6v-.4c-.1,0,.2-.2.2-.2v.3c.1,0,1,0,1,0h.4c0-.1-.3-.4-.3-.4v-.3c0,0-.4-.5-.4-.5l-.2-.9-.5-.3v-.7c.1,0-.5-.6-.5-.6h-.6c0,0-1-.7-1-.7l-.9.2-.3.3h-.6s-.4.5-.4.5l-1,.2-.5.3-.7-.5h-.9s-.9-.2-.9-.2l-.6.4v-.6c-.1,0-.9-.6-.9-.6l.3-.9.4-.6h.3c0,.1-.4-.8-.4-.8l1.3-1.8.7-.3.2-.6-.7-2h.7c0,0,.8-.7.8-.7h1.1c0,0,1.4.1,1.4.1l1.6.5h1.1s.5.4.5.4l.5-.4.4.5h1.3c0-.1.6.1.6.1v-1.1c0,0,.5-.5.5-.5h1.2Z"/>
    <path id="UG" d="M286.3,326.7h-1.5s-.5.2-.5.2l-.8.4h-.3c0-.1,0-1.2,0-1.2l.3-.5v-1.1c0,0,.4-.6.4-.6l.5-.7.5-.4.5-.5-.6-.2v-1.6c0,0,.7-.4.7-.4l.9.3,1.1-.3h1l.9-.6.7,1,.2.7.6,1.6-.5,1-.7.9-.4.6v1.5s-2.9.1-2.9.1Z"/>
    <path id="US" d="M57.8,233.1h0l-.8-.9-1.2-.8-.4-2.2-1.8-2.1-.8-2.5-1.4-.2h-2.2c0,0-1.7-.8-1.7-.8l-2.9-2.8-1.3-.5-2.5-1-1.9.2-2.8-1.3-1.7-1.2-1.6.6.3,2-.8.2-1.6.6-1.2.9-1.6.6-.2-1.6.6-2.8,1.5-.9-.4-.7-1.8,1.6-1,1.9-2,2,1,1.3-1.3,1.9-1.5,1.1-1.4.8-.3,1.1-2.2,1.3-.4,1.2-1.6,1.1-1-.2-1.3.7-1.4.8-1.2.8-2.4.7-.2-.4,1.5-1.1,1.4-.8,1.5-1.4,1.7-.3.7-1,2-1.5.3-.5,1-.9.2-2,.7-1.6-1.6.8-.5-.5-.8,1-.9-1.4-.4,1-.5-1.4-1.4,1.1h-.9v-1.6c-.1,0,.1-1,.1-1l-.9-1-1.8.5-1.2-1.3-1-.7v-1.6s-1.1-1.2-1.1-1.2l.5-1.7,1.1-1.7.5-1.6,1.1-.2,1,.5,1.1-1.5,1,.3,1.1-1-.3-1.5-.8-.6,1-1.3h-.9s-1.5.8-1.5.8l-.4.7-1.1-.7-2,.4-2.1-.8-.6-1.3-1.8-2,2-1.4,3.1-1.7h1.2l-.2,1.7h3c0-.1-1.1-2.3-1.1-2.3l-1.7-1.4-1-1.8-1.4-1.6-1.9-1.2.8-2h2.5c0-.1,1.8-1.9,1.8-1.9l.3-2,1.4-2,1.4-.5,2.7-1.9,1.3.3,2.2-2.3,2.1.9,1,1.9.6-.8,2.4.3v1c0,0,2.1.7,2.1.7l1.4-.4,3,1.3,2.7.4,1.1.5,1.9-.7,2.1,1.2,1.5.6v13.9s0,17.8,0,17.8h1.4c0,0,1.4.9,1.4.9l1,1.2,1.2,1.8,1.4-1.5,1.4-.9.7,1.4.9,1.1,1.3,1.2.9,1.9,1.4,3,2.4,1.6v1.6s-.8,1.2-.8,1.2ZM146.1,250.4l-.6-.6-.9.4-.5-.5-1.1,1.6-.4,1.6-.5.9-.6.3h-.5c0,.1-.1.6-.1.6h-4.7s-.6.4-.6.4l-1.4,1.4v.3c.1,0,.2.8.2.8l-1.1.6-1.2-.2h-1.1c0,0-.7.2-.7.2v.6h.1v.2s-1.2,1.1-1.2,1.1l-1.1.5-.7.3-.8.5-1,.3h-.7c0,0-.9-.5-.9-.5l.5-.7.3-.7.7-1v-.8c0,0-.3-1.1-.3-1.1l-.5-.2-.9.9h-.3s0-.5,0-.5l.8-.8v-.9c.1,0,0-.9,0-.9l-1-.8-1.2-.4-.2.8-.3.2-.3,1v-.7c-.1,0-.7.5-.7.5l-.4.7-.4,1v.8c0,0,.4,1.2.4,1.2v1.3s-.6.9-.6.9l-.3.3-.4.2h-.5s-.1-.1-.1-.1l-.4-1v-.5s0-.5,0-.5l-.2-.9.3-1.1.3-1.4.7-1.5h-.2s-1,1.3-1,1.3l-.2-.2.6-.7.8-1.3,1-.2,1.1-.4,1.1.2h0s1.2-.2,1.2-.2l-.7-.8h-.4c0,0-.4-.1-.4-.1l-.3-.6-1.4.2-1.2.5-1-.8-.8-.3.5-1.1-1.2.7-1.1.7-1.1.5-.9-.7-1.4.4v-.3s1-.9,1-.9l1-.8,1.4-.7-1.7-.5-1.1.3-1.4-.7-1.4-.3h-1c0-.1-.4-.5-.4-.5l-.3-1.2h-.5s0,.8,0,.8h-39l.5,1.7.2,1.7-.3.5-.7-2-2-.7-.2.4.4,1,.4,1.8.3,2.7-.2,1.8-.2,1.8-.6,1.8.5,1.5v1.6c0,0-.3,1.5-.3,1.5l.7,1,.2,1.5,1.1,1.5.6.6v.4c0,0,1.1,2.4,1.1,2.4l1.4,1.7.2.9.4.3,1.3.2.5.5h.8c0,0,.2.6.2.6l.7.2.9,1,.2.9h1.6c0-.1,1.8-.3,1.8-.3v.3c-.1,0,2,.8,2,.8l3.2,1.2h2.8s1.1,0,1.1,0v-.7h2.4l.5.6.7.5.8.7.5.8.4.9.7.5,1.2.5.9-1.3h1.1s1,.6,1,.6l.7,1.1.5.9.8.9.3,1.1.4.7,1.1.5,1,.3h.5s-.3-.6-.3-.6v-.8c0,0,0-1.1,0-1.1l.3-.7.8-.8,1.4-.7,1.3-1.2,1.2-.4h.9c0-.1,1,.3,1,.3l1.2-.2,1,.8h1c0,0,.5-.3.5-.3l.5.2.3-.2-.3-.3v-.7s-.2-.4-.2-.4l.6-.3h1.1c0-.1,1.2,0,1.2,0l1.6-.2.9.4.7.8h.3c0,0,1.4-.7,1.4-.7l.5.2,1.1,1.3.4.9-.3,1.1.2.6.7,1.2.7,1.3.5.4.2.7.7.2.4-.2.4-.9v-.6c0,0,.1-1.1.1-1.1l-.7-1.8v-.7s-.6-1.1-.6-1.1l-.5-1.4-.3-1.1.2-1.2.7-1,.8-.8,1.5-1.1.2-.6.7-.6h.7c0-.1.9-1.1.9-1.1l1.5-.5.9-1.3-.2-1.7v-.6c-.1,0-.5-.1-.5-.1v-1.7c0,0-1-.6-1-.6l.9.3-.3-1.1.3-.8.2,1.5.7.7-.4,1.2h.1c0,0,.8-1.3.8-1.3l.5-.7v-.7s-.4-.3-.4-.3l-.3-1,.5.5h.3c0,0,.1.6.1.6l1-1.4.3-1.3h-.4c0,0,.4-.6.4-.6v.2s.9,0,.9,0l2-.6-.4-.4-2.1.4,1.2-.5h.8c0,0,.6-.2.6-.2l1-.3h.7s.9-.3.9-.3v-.5c.1,0-.3-.4-.3-.4v.7c.1,0-.4,0-.4,0l-.5-1v-1s.3-.4.3-.4l.7-1.1,1.5-.6,1.4-.7,1.5-1-.2-.6-.9-1.1v-2.8ZM25.8,225l-.8.4-1.3.9.2,1.2.7.7,1.4-1,1.2-1.2-.6-.8-.9-.2ZM2.9,210.7l1-.6v-.3c.1,0-1-.3-1-.3v1.3ZM7.2,218.4l-1.4.5.9.8.9.5.9-.4v-1.1c-.1,0-1.2-.3-1.2-.3ZM56.1,234.7l-1.4.2-.7-.3v.8c0,0,.2,1,.2,1l.7.7.5,1.1.8,1.1h.6s-1.2-1.9-1.2-1.9l.4-2.7ZM21.6,295.3h-.5c0-.1-.1,0-.1,0h0c0,0,.2.2.2.2l.2.3h.5c0-.1.1-.3.1-.3l-.4-.2ZM20.1,295h.8s0-.1,0-.1h-.7c0,0-.1.1-.1.1ZM23,296.7h-.3c0-.1-.5-.4-.5-.4h-.1s0,.1,0,.1v.3c0,0-.2.2-.2.2v.2c0,0,.2.5.2.5v.4s.3.2.3.2l.2-.2.5-.2.6-.3h0c0,0-.4-.6-.4-.6l-.2-.2ZM19.1,294.1l-.4.2h0c0,0,.2.4.2.4h.5c0,0,.1,0,.1,0h0c0,0-.4-.6-.4-.6h-.1ZM16.9,293.3l-.2.2h0c0,.1.5.4.5.4l.2-.2v-.4s-.3,0-.3,0Z"/>
    <path id="UY" d="M160.4,369.6l.9-.2,1.4,1.3h.5s1.5,1,1.5,1l1.1.9.8,1.1-.6.8.4,1-.6,1.1-1.6.9-1-.3-.8.2-1.3-.7h-1c0,0-.9-.9-.9-.9v-1.1c.1,0,.4-.4.4-.4v-1.7s.4-1.7.4-1.7l.4-1.3Z"/>
    <path id="UZ" d="M335.1,268.8v-1.1s-1.8-.8-1.8-.8l-1.5-.9-.9-.8-1.6-1.3-.7-1.9-.5-.3h-1.5c0,0-.5-.3-.5-.3l-.2-1.5-1.9-1-1.2,1.1-1.2.7.2.9h-1.6s0-7.1,0-7.1l3.6-1.2.3.2,2.2,1.4,1.1.7,1.3,1.8,1.7-.3,2.4-.2,1.7,1.4v1.9c-.1,0,.6,0,.6,0l.3,1.5h1.8c0,0,.4.9.4.9h.5s.6-1.3.6-1.3l1.9-1.3.8-.4.4.2-1.2,1.2,1,.7,1-.5,1.7,1-1.8,1.3-1.1-.2h-.6c0,0-.2-.5-.2-.5l.3-.9-1.9.4-.4,1.2-.7,1h-1.2c0,0-.4.7-.4.7l1,.4.3,1.3-.8,1.8-1.1-.4h-.8Z"/>
    <path id="VE" d="M141.1,308.6v.3s-.9.2-.9.2l.5.6v.7s-.6.8-.6.8l.5,1.1h.6c0,0,.3-1.1.3-1.1l-.4-.5v-1.1c0,0,1.7-.6,1.7-.6l-.2-.7.5-.5.5,1h1s.9.8.9.8v.5c0,0,1.3,0,1.3,0h1.5c0-.1.8.5.8.5l1.1.2.8-.4v-.4s1.8,0,1.8,0h1.7s-1.2.4-1.2.4l.5.7h1.1c0,.1,1.1.8,1.1.8l.2,1.1h.7s.6.3.6.3l-1.1.8v.5c-.1,0,.4.5.4.5l-.3.3-.9.2v.7s-.4.4-.4.4l.9,1.1.2.4-.5.5-1.6.5-1,.2-.4.3-1.1-.4-1-.2h-.3c0,.1.6.5.6.5v.9c0,0,.1.9.1.9h1.2c0,.1,0,.4,0,.4l-1,.4-.2.6-.6.2-1,.3-.3.4h-1.1c0,0-.8-.7-.8-.7l-.4-1.4-.4-.5-.5-.3.7-.7v-.3s-.4-.4-.4-.4l-.3-.9v-1c.1,0,.4-.5.4-.5l.3-.8-.5-.2-.8.2h-1c0,0-.6,0-.6,0l-1-1.2-.8-.2h-1.8c0,.1-.3-.4-.3-.4h-.3c0-.1,0-.4,0-.4l.2-.5v-.6c-.1,0-.4-.3-.4-.3l-.2-.7h-.7c0,0,.4-.9.4-.9l.2-1,.4-.5.5-.4.4-.7.9-.2Z"/>
    <path id="VN" d="M393.6,294.3l-1.9,1.3-1.2,1.4-.3,1,1.1,1.6,1.3,1.9,1.3.9.9,1.2.6,2.7-.2,2.5-1.2.9-1.6.9-1.1,1.2-1.8,1.3-.5-.9.4-1-1-.8,1.2-.6h1.5c0-.1-.6-1-.6-1l2.4-1.1.2-1.7-.3-1,.3-1.4-.4-1-1.1-1-.9-1.3-1.2-1.7-1.7-.9.4-.5.9-.4-.5-1.3h-1.7s-.6-1.4-.6-1.4l-.8-1.2.8-.4h1.1s1.4-.2,1.4-.2l1.2-.8.7.6,1.3.3-.2.9.7.6,1.4.4Z"/>
    <path id="VU" d="M477.7,348.6l-.5.2-.5-.6v-.4c0,0,.9.8.9.8ZM476.7,346.3l.2,1.2-.4-.2h-.3c0,0-.2-.3-.2-.3v-1.1s.6.4.6.4Z"/>
    <path id="YE" d="M316.2,301.6l-1,.4-.3.6v.5s-1.4.6-1.4.6l-2.2.7-1.3,1h-.6c0,0-.4,0-.4,0l-.8.6-.9.3h-1.2c0,0-.4.2-.4.2l-.3.4h-.4c0,.1-.2.5-.2.5h-.7s-.5.2-.5.2h-1c0,0-.4-.9-.4-.9v-.8s-.2-.4-.2-.4l-.3-1.1-.4-.6h.3c0,0-.1-.7-.1-.7l.2-.3v-.6c0,0,.6-.5.6-.5v-.6c-.1,0,.2-.7.2-.7l.6.4h.4c0-.1,1.6-.2,1.6-.2l.3.2h1.4c0,.1.5,0,.5,0l.4.5.7-.2,1-1.5,1.3-.7,4.1-.6,1.1,2.4.5,1Z"/>
    <path id="ZA" d="M285.9,368.1l-.3.2-.6.8-.4.8-.8,1.2-1.6,1.7-1,1-1.1.8-1.5.7h-.7c0,0-.2.6-.2.6l-.9-.3-.7.3-1.5-.3-.9.2h-.6c0,0-1.5.6-1.5.6l-1.2.3-.9.6h-.6s-.6-.6-.6-.6h-.5s-.6-.8-.6-.8v.2c0,0-.3-.5-.3-.5v-1s-.4-1.1-.4-1.1l.5-.3v-1.3s-1-1.5-1-1.5l-.7-1.4h0s-1-2.1-1-2.1l.7-.8.6.4.2.7h.6c0,.1.9.4.9.4h.8c0-.1,1.3-.9,1.3-.9v-5.8l.4.2.8,1.5v.9c-.1,0,.2.6.2.6l1-.2.7-.7.7-.5.3-.7.7-.4.6.2.7.4h1.1c0,0,.9-.3.9-.3v-.5c.1,0,.4-.7.4-.7h.8c0-.1.4-.7.4-.7l.5-1,1.3-1.1,2-1.1h.6s.7.3.7.3l.5-.2.7.2.7,2.1.4,1.1-.3,1.7v.6c.1,0-.6-.3-.6-.3h-.4c0,.1-.1.6-.1.6l-.4.6v.5s.9.9.9.9l.8-.2.3-.7h1.1s-.4,1.2-.4,1.2l-.2,1.3-.4.7-1,.8ZM282.3,367.6l-.6-.5-.7.3-.8.6-.8,1,1.1,1.2.5-.2.3-.5.8-.3.2-.5.4-.8-.5-.5Z"/>
    <path id="ZM" d="M287.6,338.2l.7.6.4,1.2-.2.4-.3,1.2.3,1.2-.4.5-.4,1.3.7.4-4.3,1.2v1c.1,0-.9.2-.9.2l-.8.6-.2.5h-.5c0,.1-1.2,1.3-1.2,1.3l-.8.9h-.5s-.5-.1-.5-.1l-1.6-.2h-.3c0-.1,0-.2,0-.2l-.6-.3h-.9c0,0-1.2.3-1.2.3l-.9-.9-.9-1.2v-4.6c0,0,3,0,3,0v-.5c-.1,0,0-.5,0-.5l-.2-.7.2-.7-.2-.4h.5s0,.5,0,.5h.7s.9,0,.9,0l.5.6,1.1.2.9-.5.3.7,1.1.2.5.6.6.8h1.1s-.1-1.5-.1-1.5l-.4.3-1-.6-.4-.3.2-1.4.3-1.7-.3-.6.4-.9.4-.2,1.9-.2h.6c0,.1.6.5.6.5l.6.2.9.2.8.4Z"/>
    <path id="ZW" d="M285.4,357.2l-.7-.2-.5.2-.7-.3h-.6s-.9-.7-.9-.7l-1.1-.2-.4-1v-.5s-.6-.2-.6-.2l-1.6-1.6-.4-.9-.3-.3-.5-1.2,1.6.2.5.2h.5s.8-1,.8-1l1.2-1.2h.5c0-.1.2-.6.2-.6l.8-.6,1.1-.2v.5c0,0,1.3,0,1.3,0l.7.3.3.4h.7c0,.1.7.6.7.6v1.9s-.3,1-.3,1v1.1c0,0,.2.4.2.4l-.2.9h-.2c0,.1-.4,1.2-.4,1.2l-1.5,1.7Z"/>
  </g>
</svg>