<svg xmlns="http://www.w3.org/2000/svg" xml:space="preserve" id="Layer_1" x="0" y="0" viewBox="0 0 512 350"><g><path id="AE" d="m314.4 209.4.3-.1.1.4 1.1-.2h2.1l1-1 1.1-1 .9-1 .3.5.2 1.2h-.7l-.1 1 .3.2-.6.3v.6l-.4.6v.6l-.3.3-4.3-.8-.5-1.6z"/><path id="AF" d="m328 190.9 1.4.7 1.1-.2.3-.8 1.1-.3.8-.5.3-1.4 1.2-.3.2-.6.7.5.4.1h.8l1.1.4.4.2 1-.6.5.3.5-.8h.8l.2-.3.1-.7.6-.6.8.4-.2.5.4.1-.1 1.5.6.6.5-.4.6-.2.9-.8 1 .1h1.5l.3.5-.8.2-.7.3-1.6.2-1.5.4-.8.8.3.7.2.9-.7.7.1.7-.4.6-1.3-.1.6 1.1-.9.4-.6 1 .1 1-.6.5-.5-.2-1.1.2-.2.5h-1.1l-.8.9v1.4l-1.8.7-1-.1-.3.4-.8-.2-1.4.2-2.4-.8 1.3-1.5-.1-1.1-1.1-.3-.1-1.1-.5-1.3.6-.9-.6-.2.4-1.2z"/><path id="AL" d="m270.6 179.6-.2.6.2.8.6.5v.5l-.5.3-.1.6-.7.9-.2-.1v-.4l-.8-.6-.1-.9.1-1.3.2-.6-.2-.3-.1-.6.6-.9.1.4.4-.2.3.5.3.2z"/><path id="AM" d="m303.1 181.1 2-.3.3.5.5.3-.3.5.8.6-.4.6.6.5.6.3v1.3l-.5.1-.6-1v-.3h-.6l-.4-.5h-.3l-.6-.5-1.1-.5.1-.9z"/><path id="AO" d="m264.5 252.9.3 1.1.4.8.3.5.5.7.9-.1.5-.2.8.2.2-.4.4-.8.9-.1.1-.2h.7l-.1.5h1.7v.9l.3.5-.2.9.1.9.5.5-.1 1.7.4-.1h.6l.9-.2.6.1.1.4-.2.7.2.7-.2.5.1.5h-2.9l-.1 4.6 1 1.2.9.9-2.6.6-3.4-.2-1-.7-5.7.1-.2.1-.8-.7h-.9l-.8.3-.7.3-.1-.9.2-1.3.5-1.3.1-.6.5-1.3.3-.6.8-.9.5-.6.1-1.1-.1-.8-.4-.5-.4-.9-.3-.9.1-.3.4-.6-.4-1.4-.3-.9-.7-.9.1-.3.6-.2h.4l.5-.2zm-5.5-.3-.4.1-.4-1.1.6-.6.4-.2.5.5-.5.3-.2.4z"/><path id="AR" d="m148.7 338.2-1.3.1-.7-.9-.9-.1h-1.5V332l.5 1.1.7 1.8 1.8 1.4 2 .6zm.8-61.7.8 1.1.6-1.2 1.6.1.2.3 2.6 2.5 1.2.2 1.7 1.1 1.5.6.2.7-1.4 2.4 1.4.4 1.6.2 1.1-.3 1.3-1.2.2-1.4.7-.3.7.9v1.3l-1.2.9-1 .6-1.6 1.6-1.9 2.2-.4 1.3-.4 1.7v1.7l-.3.4-.1 1.1-.1.9 1.8 1.5-.2 1.2.9.8-.1.9-1.4 2.3-2.1 1-2.8.4-1.6-.2.3 1.1-.3 1.4.3.9-.8.7-1.5.3-1.4-.7-.5.5.2 1.9 1 .6.8-.6.4 1-1.3.6-1.1 1.2-.2 2-.3 1.1h-1.3l-1.1 1-.4 1.5 1.4 1.5 1.4.4-.5 1.9-1.7 1.2-.9 2.5-1.3.9-.6 1 .5 2.3.9 1.3-.6-.1-1.3-.4-3.4-.3-.6-1.3v-1.7l-.9.1-.5-.8-.1-2.3 1.1-.9.4-1.4-.2-1.1.8-1.8.5-2.7-.2-1.2.6-.4-.2-.7-.7-.4.5-.8-.6-.7-.3-2.2.6-.4-.2-2.3.3-1.9.4-1.6.8-.7-.4-1.7v-1.6l1.1-1.1v-1.4l.8-1.7v-1.6l-.4-.3-.7-2.9.9-1.7-.1-1.6.5-1.5.9-1.5 1-1-.4-.6.3-.5v-2.6l1.5-.8.5-1.6-.2-.4 1.2-1.4z"/><path id="AT" d="m265.5 167.1-.1.9h-.8l.3.5-.5 1.3-.3.3-1.2.1-.7.5-1.2-.2-2-.5-.3-.7-1.4.4-.2.4-.9-.3-.7-.1-.6-.4.2-.5-.1-.4.4-.1.7.6.2-.6 1.2.1 1-.4.7.1.4.4.1-.4-.2-1.4.5-.3.5-1 1.1.7.8-.9.5-.2 1.1.7.7-.1.7.4-.1.3z"/><path id="AU" d="m447.2 307.6 1.4.6.8-.3 1.1-.4.8.1.1 2.2-.5.7-.1 1.5-.5-.5-1 1.4-.3-.1-.9-.1-.9-1.7-.2-1.3-.8-1.6v-.9zm-2.6-43.5.5 1.1.9-.5.5.6.7.6-.1.6.3 1.3.2.7.4.2.4 1.3-.1.8.5 1 1.5.8 1 .7.9.7-.2.4.8.9.6 1.6.6-.3.6.7.3-.2.2 1.6 1 .9.7.6 1.1 1.3.4 1.3v.9l-.1 1 .7 1.4-.1 1.4-.2.7-.4 1.4v.9l-.3 1.2-.6 1.5-1 .8-.5 1.3-.5.8-.4 1.5-.5.9-.4 1.3-.2 1.2.1.6-.8.6-1.6.1-1.3.7-.7.7-.9.8-1.2-.8-.9-.3.2-.9-.8.3-1.2 1.3-1.2-.5-.8-.3-.8-.1-1.4-.5-.9-1.1-.3-1.3-.3-.9-.7-.7-1.4-.2.5-.8-.3-1.3-.7 1.2-1.3.3.7-1 .2-1 .5-.8-.1-1.2-1.2 1.4-.9.6-.5 1.4-1.1-.7v-.9l-.9-1.2-.7-.6.3-.4-1.8-1h-1l-1.4-.8-2.5.2-1.8.6-1.6.6-1.4-.1-1.5.9-1.2.4-.3.9-.5.7h-1.2l-.9.2-1.3-.3-1 .2-1 .1-.8.9-.4-.1-.7.5-.7.5-1-.1h-.9l-1.5-1.1-.8-.3v-1l.7-.2.2-.4-.1-.6.2-1.2-.2-1-.7-1.7-.2-.9.1-.9-.6-1v-.5l-.6-.6-.2-1.2-.8-1.3-.2-.7.6.7-.5-1.5.7.5.4.6v-.8l-.7-1.2-.1-.5-.3-.5.2-.9.3-.4.2-.8-.2-.9.6-1.1.1 1.2.6-1 1.1-.5.7-.6 1.1-.6.6-.1.4.2 1.1-.6.9-.2.2-.3.4-.1h.8l1.5-.4.8-.7.4-.8.8-.8.1-.6v-.8l1-1.2.6 1.3.6-.3-.5-.7.4-.7.6.3.2-1.1.8-.7.3-.6.7-.2v-.4l.6.2v-.4l.6-.2.7-.2 1 .7.8.9h.9l.9.1-.3-.8.7-1.2.6-.4-.2-.4.6-.8.9-.5.7.2 1.2-.3v-.7l-1-.5.8-.2.9.4.8.6 1.2.4.4-.1.9.4.8-.4.5.1.3-.3.6.7-.4.8-.5.6h-.5l.2.6-.4.7-.5.7.1.4 1.1.8 1.1.5.7.5 1 .9h.4l.7.4.2.5 1.4.5.9-.5.3-.8.3-.7.2-.8.4-1.2-.2-.7.1-.4-.2-.8.2-1.1.3-.3-.2-.5.3-.8.3-.8v-.4l.5-.5.4.7.1.9.4.2.1.6.5.7.1.8z"/><path id="AZ" d="m305.1 183.6.4.5h.6v.3l.6 1-1-.2-.7-.8-.2-.7zm3.4-2.8.6.1.2-.5.8-.8.7 1 .7 1.3.7.1.4.5-1.2.1-.2 1.4-.2.6-.5.4v.9l-.4.1-.9-.9.5-.9-.4-.5-.5.1-1.7 1.3v-1.3l-.6-.3-.6-.5.4-.6-.8-.6.3-.5-.5-.3-.3-.5.3-.3 1.1.5.8.1.2-.2-.7-1 .4-.3.4.1z"/><path id="BA" d="M268.3 173.8h.5l-.4.9.7.8-.2.9-.3.1-.3.2-.5.5-.2 1.1-1.3-.7-.5-.8-.5-.4-.7-.7-.3-.6-.7-.9.3-.8.5.5.3-.4h.7l1.2.3h1.7"/><path id="BD" d="M372.6 212.8v1.1l-.5-.2.1 1.2-.4-.8-.1-.8-.3-.7-.6-.9-1.3-.1.1.6-.4.8-.6-.3-.2.3-.4-.2-.5-.1-.2-1.3-.5-1.2.2-.9-.9-.4.3-.6.9-.6-1-.8.5-1.1 1.1.7.7.1.1 1.1 1.3.2h1.3l.8.3-.7 1.3-.6.1-.4.9.8.8.2-1h.4z"/><path id="BE" d="m246.1 160.1 1 .2 1.3-.5.9 1 .8.5-.2 1.5-.4.1-.2 1.2-1.2-1-.7.2-1-1-.7-.9h-.7l-.2-.8z"/><path id="BF" d="m237.4 231-1-.4-.7.1-.5.4-.6-.3-.2-.5-.6-.3-.1-.8.4-.6v-.5l1.1-1.2.2-1 .4-.4.7.2.6-.3.2-.4 1.1-.6.3-.5 1.3-.6.8-.2.4.3h.9l-.1.7.2.7.8.9v.7l1.6.3v1l-.3.4-.7.1-.3.6-.5.2h-1.2l-.7-.1-.5.2-.6-.1-2.5.1v.8z"/><path id="BG" d="m273.5 175 .4.8.5-.1 1.1.3 2.1.1.7-.5 1.7-.5 1 .7.8.2-.7.8-.5 1.4.5 1.1-1.2-.3-1.4.6v.9l-1.3.2-1-.7-1.1.5-1-.1-.1-1.2-.7-.6.2-.3-.2-.2.2-.6.5-.6-.7-.8-.1-.7z"/><path id="BI" d="m282.9 250.9-.1-1.7-.4-.6.9.1.4-.8.8.1.1.6.3.3v.5l-.3.3-.6.7-.5.5z"/><path id="BJ" d="m245.2 235.8-1.2.2-.3-1 .1-3.3-.3-.3-.1-.7-.5-.5-.4-.4.2-.8.5-.2.3-.6.7-.1.3-.4.5-.4h.5l1.1.8-.1.5.3.8-.3.6.1.4-.7.9-.4.4-.3.9v3.2"/><path id="BN" d="m403 238.2.6-.5 1.2-.8-.1.7-.1.9h-.7l-.3.5z"/><path id="BO" d="m152.5 276.4-1.6-.1-.6 1.2-.8-1.1-1.9-.4-1.2 1.4-1 .2-.6-2.1-.8-1.7.4-1.4-.7-.6-.2-1.1-.7-1 .9-1.6-.6-1.2.3-.5-.3-.5.6-.7V264l.1-1 .3-.5-1.2-2.3 1.1.1h.7l.3-.4 1.2-.6.7-.5 1.9-.2-.2 1.1.2.6-.1 1 1.5 1.3 1.6.2.6.5 1 .3.6.4h.9l.8.4.1.8.3.4v.6h-.4l.5 1.7 2.7.1-.2.8.2.6.8.4.3.9-.3 1.2-.4.7.1.9-.4.3v-.5l-1.3-.8h-1.3l-2.5.4-.7 1.3v.8l-.6 1.8z"/><path id="BR" d="m159.9 289.2 1.9-2.2 1.6-1.6 1-.6 1.2-.9v-1.3l-.7-.9-.7.3.3-.9.2-.9v-.8l-.5-.3-.5.2-.5-.1-.2-.6-.1-1.4-.3-.5-1-.4-.6.3-1.5-.3.1-2.1-.4-.8.4-.3-.1-.9.4-.7.3-1.2-.3-.9-.8-.4-.2-.6.2-.8-2.7-.1-.5-1.7h.4v-.6l-.3-.4-.1-.8-.8-.4h-.9l-.6-.4-1-.3-.6-.5-1.6-.2-1.5-1.3.1-1-.2-.6.2-1.1-1.9.2-.7.5-1.2.6-.3.4h-.7l-1.1-.1-.8.2-.6-.2.1-2.2-1.2.8h-1.2l-.5-.8-.9-.1.3-.6-.8-.9-.6-1.3.4-.3v-.6l.9-.4-.1-.8.4-.5.1-.7 1.6-1 1.2-.3.2-.2 1.3.1.6-3.9v-.6l-.2-.8-.6-.5v-1l.8-.2.3.1v-.5l-.8-.1v-.9h2.8l.5-.5.4.4.3.8.3-.2.8.7 1.1-.1.3-.4 1.1-.3.6-.2.2-.6 1-.4-.1-.3-1.2-.1-.2-.9.1-.9-.6-.4.3-.1 1 .2 1.1.4.4-.3 1-.2 1.6-.5.5-.5-.2-.4.7-.1.3.3-.2.6.5.2.3.7-.4.5-.2 1.2.4.7.1.7.9.7.7.1.2-.3.4-.1.6-.2.5-.4.8.1.3-.1.8.1.1-.3-.2-.3.1-.4.6.1.7-.1.8.3.6.3.4-.4.3.1.2.4.7-.1.5-.5.4-1 .8-1.3.5-.1.4.8.8 2.5.8.2v1l-1.1 1.2.4.4 2.5.2.1 1.4 1.1-.9 1.8.5 2.4.9.7.8-.2.8 1.6-.4 2.8.7 2.1-.1 2.1 1.2 1.8 1.6 1.1.4 1.2.1.5.4.5 1.8.2.9-.6 2.3-.7.9-2 2-.9 1.6-1 1.2h-.4l-.4 1.1.1 2.7-.4 2.3-.2 1-.4.6-.3 2-1.4 2-.2 1.6-1.1.7-.3.9h-1.5l-2.2.6-1 .7-1.6.4-1.7 1.2-1.2 1.5-.2 1.2.2.9-.3 1.6-.3.8-1 .9-1.6 2.9-1.2 1.3-1 .8-.6 1.6-.9 1-.4-1 .6-.8-.8-1.1-1.1-.9-1.5-1.1h-.5l-1.4-1.3z"/><path id="BS" d="m131.7 210.2-.3.1-.4-.9-.5-.4.3-1 .4.1.5 1.3zm-.4-4.4-1.5.3-.1-.6.7-.1h.9zm1.2 0-.2 1.1-.3-.2v-.8l-.6-.6v-.2z"/><path id="BT" d="m371.2 203.9.6.5-.1 1h-1.2l-1.2-.1-.9.2-1.3-.6v-.3l.9-1.2.8-.4 1 .4h.7z"/><path id="BW" d="m277.7 271.1.3.3.4.9 1.6 1.6.6.2v.5l.4 1 1.1.2.9.7-2 1.1-1.3 1.1-.5 1-.4.6-.8.1-.2.7-.1.5-.9.4-1.2-.1-.7-.4-.6-.2-.7.4-.3.7-.7.5-.7.7-1 .2-.3-.6.1-1-.8-1.5-.4-.2V276l1.4-.1v-5.3h1.1l2.2-.5.5.6.9-.6h.4l.8-.3.3.1z"/><path id="BY" d="M274.7 154.1h1.4l1.5-.9.3-1.4 1.2-.8-.1-1.1.9-.4 1.5-1 1.5.6.2.6.7-.3 1.4.6.1 1.2-.3.7.9 1.6.6.4-.1.4 1 .4.4.6-.6.5-1.1-.1-.3.2.3.8.3 1.5-1.2.1-.4.5-.1 1.1-.6-.2-1.3.1-.4-.5-.5.4-.5-.3h-1.1l-1.6-.5-1.4-.2-1.1.1-.8.6-.7.1v-1l-.4-1.1.8-.5v-.9l-.4-.9z"/><path id="BZ" d="M115.3 219.2v-.2l.2-.1.3.2.5-.9h.3v.2h.3v.4l-.2.6.1.2-.1.5.1.1-.2.7-.3.4h-.3l-.3.5h-.4l.1-1.7z"/><path id="CA" d="m102 59.3-.1-3 1.8.3.8.5 1.7 2.5-.4 2.5-2.1 1.4-1.2-1.6zm6.6 6.4.2-.8-1-1.2-2.8-.1.4 1.9 2.7.4zM127 89.4l1.6 2.6.4.3 1.5-.6 1.5.1 1.5.1-.1-1.3-2.4-2.7-3.2-.5-.7.3zM93.9 57.7l-1.4 2.1 3.2.3 2.3 2.2 2.3.8-.6-2.9-1.1-3.4-3.8-2.7-2.8-1 .1 2.9zm13.1-5.1 2.6-.1-1.1 2v2.7l1.5 2.9 2.9.9 2.5-.5 2.6-5.4 1.9-2.2-1.7-2.5-1.1-5.4-2.3-1.6-2.4-1.9-1.8-4.8-3.3.5.6 2.1-1.5.6-1 2.7-1 3.8.9 3.7zM74.8 79.5l2 1 6.4-.7-2.9 2.4.2 1.7 2.2-.1 3.6-2.3 4.8-.8.9-2.6-.2-2.8-1.7-.3-1.3 1-.6-2.1-.4-2.9-1.5-.7-1.3 2.2 2 5.6-2.5-.4-2.5-3.4-4-2-1.3 1.7zm11.4-21.2-1.8-1.5-.8-.3-1.5 2.2v1h2.4zm-.7 6.2.5-2-2-1.1-2.1.7-1.1 2.2 2.1 2.1zm14.7 16.8 2.3-.6.6-4.2v-3l-1.1-2.8-.1.8-2-.4-2.1 2.1-1.5-.2.1 4.5 2.3-.4v3.3zm-1.7 23-2.6-2-2.4-2.1-.4-3.1-.9-4.5-1.6-1.9-1.4-.8-1.2.7 1 4.8-.7 1.9-1.2-4.5-1.3-1.6-1.6 2.4-2-2.4-3.1 1.4.7-2.3-1.4-.9-3.8 2.9-1 1.9-1.2 3.4 2.5 1.2 2.2-.1-3.3 1.7.7 1.6 2 .1 3-.3 2.7 1-1.8.7-2-.2-2.2.7-.9.4 1.7 3.2 1.3-.4 1.9 1.1.8 1.8 2.5-.4 3.6-.6 2.7-1.3 1.6-.2 2.4 1.1 2.6.6.5-1.4-.9-1.5 2.3-.3zm3.9-.5-1 1.8-1.2 1.3 1.9 1.8 1.2-.4 1.9 1.2.9-1.4-.9-1.5-.4-.8-.8-.7zM93.5 89l-1.1-1.1-1.9.2-.5.7 2.2 3.4zm14.5 6.6 1.5-3.5 1.7-.9 2.1-4.4-2.7-1.2-2.9-.2-1.4 1.4-.7 2.1v2.4l.9 4.1zm8.7-11.6 2.9-.1 4.1-.8 1.8.6 2.1-1.1.9-1.4-.3-2.3-1.5-2.1-2.3-.4-2.9.5-2.2 1.2-2.1-.5-1.9-.2-.9-1.4-1.6-1.3.3-2.2-1.2-2h-2.8l-1.6-2-2.9-.4-.5 2.6 1.6 1.9 2.9.7 1.4 2.6.2 2.8.5 3 3.8 1.7zm-45-9.2 2.6-2.6 1.3-.3 1.1-2.1.2-4.9-1.9 1-2.2-.1-2.8 4.1-2.4 4.5 1.9 1.3zm36.5 8.1.8-2.1-.5-1.7-1.2-2-2 1.5-.8 2.5 1.7 1.4zm-4.2 5.8-.4-1.5-2.5.6-1.7-1.1-1.7 2.4 1.6 3.2-2.9-.6v1.5l3.5 3.6 1 1.7 1.4.4 2.3-1.7.3-4.1-2.1-2.1zm-37.4 77.6-.6-1.2-1.4-.9-.7-1-.5-.8-1.3-.2-.9-.3-1.5-.5-.1.5.5 1.2 1.5.4.3.6 1.3.8.4.8 2.3 1zm61.5-39.2-1-1.1-1 .3-.1-1.5-1.6-1-1.5-1.1-.8-.9-.7.5-.3-1.5-1-.3-.5 3.1-.2 2.6-1.2 1.6 1.9-.3.5 1.8 2-1.6 1.4-1.7.8 1.4 2.2.8zm-60.9-26.5 3.7-2.1v-2l1.8-3.2 3.5-3.4 1.8-1.2-1.5-2.1-1.4-1.5-3.6-.3-2-1.1-4.8.8 1.4 3.1-1.2 3.2-1 3.5-.6 1.9 3.3 2.4zm67.8 13.8.2-.5v-1.6l-1.1-1.1-1.3.5-.6 2.1.4 1.8 1.6-.2zm12 3.8 2.2 3.3 1.7 1.4 2.5-4 .4-2.5-2.2-.2-2-3.4-2.2-.8-3.3-2.5 2.6-1.8-1.3-3.8-1.2-1.7-3.4-1.7-1.5-2.8-2.6 1-.2-1.9-1.9-2.2-3.1-2.4-1.3 1.9-2.8 1.3.2-3.1-2.4-5.1-3.6 2.1-1.3 3.9-1.1-3 1-3.2-3.7 1.3-1.5 2-1.1 4.3.4 4.6h2l-1.5 2 1.2 1.5 2.3.6 3 1.2 5.2.9 2.6-.5.8-1.2 1.1 1.4 1.2.2 1.5 2.5-.9 1 2.9 1.3 2.2 1.9.5 1.3.4 1.6-1.8 3.5-.5 1.7.5 1.2-2.9.4-2.7.1-.9 2.5 1.2 1.1 4.1-.5v-1l2.1 1.6 2.1 1.7-.5.9 1.7 1.5 3 1.8 3.8 1.2-.2-1.1-1.5-1.9-2-2.7 3.5 2.5 1.8.8.5-2.2-1.1-3-.6-.9-1.9-1.5-1.5-2 .2-2zm-33.2-81.6 1.2 3.7 2.5 3 5-.5 3.2 1-2.2 3.1-1.1-.9-3.9-.4.6 4.2 2 3-.4 2.6-2.5 1.7-1.1 2.8 2.3 1.3 1.9 4.3-3.8-2.9-.9.5.7 4.7-2.6 1.4.2 3 2.7.3 2.1.7 4.2-.9 3.7 1.6 3.8-3.6v-1.5l-2.4.2-.2-1.4 2-1.9.7-2.6 2.2-1.9 1.3-2.4-1.2-3.6 1-1.3-2-1 4.3-.8.9-1.6 2.9-1.3 2.4-6.8 2.3-2.5 3.3-5.6h-3.1l1.3-2.2 3.4-2 3.5-4.5.1-2.9-2.6-3-3-1.5-3.8-.9-3.1-.8-3.1-.8-4.1 2-.8-1.3-4.3.5-2.5 1.3-1.9 1.8-1.1 5.9-1.5-3-1.8-.6-2.1 4-2.8 1.7-1.7.3-2.1 1.9.3 3.4zm37.5 133.8-.5-1-.5.6.4.7 1.8.9.5-.1.7-.8-1.3.1zm-28.7-39.3.3.8 1 .1 1.7-1.7v-.6h-1.9zm31.3 33.5-1.4-.9-1.9-.5-.5.2 1.3 1 1.8.7h.7zm12.6 2.4-.2-1.1-1 .4.4-1.6-1.4-.7-.7.5-1.3-.6.5-.8-1-.5-.9.7.9-1.9.8-1.4.3-.6-.7-.1-1.2.8-.9 1.3-1.5 3.5-1.2 1.3.6.6-.9.7.2.6 2.7.1 1.5-.1 1.4.5-1 1 .8.1 1.6-1.8.4.3-.3 1.7.9.4.6-.1.6-1.8zm-10.7 2.5-1.4 2.3-2.4.2-1.8-1-.5-1.5-.4-2.3 1.3-1.4-1.3-1.1-2.1.2-3 1.8-2.3 2.8-1.2.3 1.6-1.9 2-2.8 1.8-1 1.2-1.6 1.5-.2h2.1l3 .5 2.4-.4 1.8-1.8 2.3-.8 1-.8 1-.9-.1-2.6-.6-.9-1.1-.3-.6-2-.9-.8-2.3-.6-1.3-1.4-1.9-1.4.6-1.6-1.6-3.2-1.8-3.5-1.1-2.5-.9 1.3-1.4 3.1-2 1.5-1-1.6-1.3-.4-.5-3.5v-2.4l-2.5-.2-.4-1.1-1.7-1.7-1.3-1-1.2.8-1.5-.3-2.4-.8-1 .7.5 4.6.6 2.6-1.7 2.9 1.7 2 1 2.2.1 1.7-.8 1.8-1.6 1.7-2.3 1.2 1 1.3.7 3.7-.8 2.4-1.1.7-2.1-2.2-1-2.6-.4-2.4.2-2.1-1.5-.2-2.3-.1-1.5-1.1-1.8-.7-1-1.2-1.4-1-2.6-1.1-2 .5-.7-2-.6-2.5-2.1-.5.1-3.2.5-2.3 1.5-3.3 1.7-2.5 1.6-.4.1-2 1.1-1.4 2-.2 1.6-2.2.4-1.5 1.4-2.9.4-1.8 1.5 1.1 2-.5 2.8-2.5.2-1.8-1-2 1.1-2-.1-2-1.9-2-2.1-.6-2-.3-.1 4.4-1 3.3-1.5 2.7-1.4-2.5.4-2.8-1.7-2.5-1.9 3.1v-4l-2.6-.8 1.3-2-1.9-4.8-1.4-2-1.9-.7-1.7 3.2-.1 4.7 1.7 1.7 1.5 2.5-.6 3.9-1.1-.1-.9 3v-3.5l-2.2-1.3-1.3.7.2 2.4-1.8-.6-2.2.6-2.5-1.7-1.6.3-1.4-2.1-1.1-.9-1.1.4-1.7.2-.9 1.3 1.4 1.6-1.5 1.9-1.5-2.2-1.2.7-3.8.4-2.6-.8 2-1.9-1.9-2-1.4.3-1.9-.7-3.3-1.5-2.2-1.7-1.7-.2-.5 1.2-1.7.7-.2-3.1-1.9 2.8-2.4-3.7-1-.5-.3 2-1.1 1-1-1.7-2.3 1-2.1 1.8-2.1-.5-1.7 1.3-1.2 1.7-1.5-.4-2.2-1.9-2.6-1v31.9l1.4.1 1.4.8 1 1.2 1.3 1.8 1.4-1.5 1.4-.9.8 1.4 1 1.1 1.3 1.2.9 1.9 1.4 3 2.4 1.6v1.6l-.8 1.2v1.3l1.7 1.7.2 1.9 1.8 1-.2 1.4.8 2 2.6.9 1 1 2.7 2.1h39.1v-.8h.5l.3 1.2.4.4 1 .1 1.4.3 1.4.7 1.1-.3 1.7.5.6-.8.8-.3.3-.5.3-.3 1.3.4 1 .1.3.3.5 1.2 1.6.3-.2.6.6.6-.2.8.6.3-.3.7.4.1.3-.3.3.5 1.1.3h1.1l1.1.2 1.3.4.5.6.9 1.5-.5.7-1.2-.3-.7-1.2.2 1.3-.7 1.1.1.9-.1.5-.9.6-.7 1.1-.3.7.8.1 1.1-.6.6-.5.4-.1.8.2.4-.3.7-.2 1.2-.2-.1-.6h-.1l-.4.1-.6-.2.4-.7.4-.2 1-.3 1.2-.3.6.4.4-.4.4-.3.3.1 1.4-1.4.6-.4h4.8l.1-.5.5-.1.6-.3.5-.9.4-1.6 1.1-1.6.5.5.9-.4.6.6v2.8l.9 1.1 1.6-.2 2.3-.1-2.5 1.6.1 1.7 1.1.1 1.6-1.4 1.4-.8 3.1-1.2 1.8-1.3-.9-.7zm-27.1-35.9.6-1.6-.4-.6-.6-.1-.5.9-.1.2.4.9zm-72 18.3.8-1.2z"/><path id="CD" d="m285.1 239.7-.1 1.6.6.2-.5.5-.5.4-.5.7-.3.7-.1 1.1-.3.5v1.1l-.4.4-.1.8-.2.1-.1.8.4.6.1 1.7.3 1.3-.1.7.3.8.8.8.8 1.8-.6-.1-1.9.2-.4.2-.4.9.3.6-.3 1.7-.2 1.4.4.3 1 .6.4-.3.1 1.6h-1.1l-.6-.8-.5-.6-1.1-.2-.3-.8-.9.5-1.1-.2-.5-.7-.9-.1h-.7l-.1-.4h-.5l-.6-.1-.9.2h-.6l-.4.1.1-1.7-.5-.5-.1-.9.2-.9-.3-.5v-.9h-1.7l.1-.5h-.7l-.1.2-.9.1-.4.8-.2.4-.8-.2-.5.2-.9.1-.5-.7-.3-.5-.4-.8-.3-1.1h-4.2l-.5.2h-.4l-.6.2-.2-.4.4-.1v-.6l.2-.4.5-.3.4.1.5-.5h.8l.1.4.5.2.8-.9.8-.7.4-.5v-1.2l.6-1.4.6-.7.9-.7.2-.4v-.5l.2-.5-.1-.8.2-1.2.3-.9.4-.8.1-.9.1-1 .6-.7.8-.5 1.2.5.9.5 1 .1 1.1.3.4-.9.2-.1.6.1 1.6-.7.6.3h.5l.2-.3.5-.1 1.1.1h.9l.5-.1.9 1.2.6.2.4-.2.7.1.8-.3.3.6z"/><path id="CF" d="m263 234.1 1.2-.1.3-.4h.2l.4.3 1.8-.5.6-.6.7-.5-.1-.5.4-.1 1.4.1 1.3-.7 1-1.6.7-.6.9-.2.2.6.8.9v.6l-.2.6.1.4.5.4 1.1.6.8.6v.5l1 .7.6.6.4.8 1.1.6.2.4-.5.1h-.9l-1.1-.1-.5.1-.2.3h-.5l-.6-.3-1.6.7-.6-.1-.2.1-.4.9-1.1-.3-1-.1-.9-.5-1.2-.5-.8.5-.6.7-.1 1-.9-.1-1-.2-.8.7-.7 1.3-.1-.4-.1-.6-.6-.5-.5-.7-.1-.5-.7-.7.1-.4-.1-.6.1-1.1.3-.3z"/><path id="CG" d="m259.8 251.3-.5-.5-.4.2-.6.6-1.2-1.5 1.1-.8-.5-.9.5-.4 1-.2.1-.6.8.7 1.2.1.4-.7.2-.9-.2-1.1-.7-.8.6-1.6-.4-.3-1.1.1-.4-.7.1-.6 1.8.1 1.1.4 1.1.3.1-.8.7-1.3.8-.7 1 .2.9.1-.1.9-.4.8-.3.9-.2 1.2.1.8-.2.5v.5l-.2.4-.9.7-.6.7-.6 1.4v1.2l-.4.5-.8.7-.8.9-.5-.2-.1-.4h-.8l-.5.5z"/><path id="CH" d="m255 168.4.1.4-.2.5.6.4.7.1-.1.8-.6.3-1-.3-.3.8-.7.1-.2-.3-.8.7-.7.1-.6-.4-.5-.9-.7.3v-.9l1-1.2v-.5l.6.2.4-.4h1.2l.3-.5z"/><path id="CI" d="M237.4 237.6h-.6l-1-.3h-.9l-1.7.2-1 .4-1.4.5h-.3l.1-1.2.1-.2v-.6l-.6-.6-.4-.1-.4-.4.3-.6-.1-.7.1-.4h.2l.1-.6-.1-.3.1-.2.5-.2-.3-1.1-.3-.6.1-.5.3-.1.2-.1.4.2h1.1l.3-.4h.2l.4-.2.2.6.3-.2.6-.2.6.3.2.5.6.3.5-.4.7-.1 1 .4.4 2-.6 1.2-.4 1.6.6 1.2z"/><path id="CL" d="M144.3 332.1v5.3h1.5l.9.1-.5 1-1.2.8-.7-.1-.8-.2-1-.7-1.5-.4-1.8-1.4-1.4-1.3-1.9-2.7 1.2.5 2 1.6 1.9.9.7-1.1.5-1.6 1.3-1zm.6-56.5.6 2.1 1-.2.2.4-.5 1.6-1.5.8v2.6l-.3.5.4.6-1 1-.9 1.5-.5 1.5.1 1.6-.9 1.7.7 2.9.4.3v1.6l-.8 1.7v1.4l-1.1 1.1v1.6l.4 1.7-.8.7-.4 1.6-.3 1.9.2 2.3-.6.4.3 2.2.6.7-.5.8.7.4.2.7-.6.4.2 1.2-.5 2.7-.8 1.8.2 1.1-.4 1.4-1.1.9.1 2.3.5.8.9-.1v1.7l.6 1.3 3.4.3 1.3.4h-1.3l-.7.6-1.3.8-.2 2.2-.6.1-1.6-.8-1.6-1.6-1.8-1.3-.4-1.5.4-1.3-.7-1.5-.2-3.7.6-2 1.5-1.6-2.1-.6 1.3-1.8.5-3.3 1.6.7.7-4-.9-.5-.4 2.4-.9-.3.4-2.7.5-3.5.7-1.3-.4-1.8-.1-2 .6-.1.9-2.8 1-2.7.6-2.5-.3-2.5.4-1.3-.2-2 .8-2 .3-3 .5-3.2.4-3.4-.1-2.5-.3-2.1.7-.4.4-.8.7 1 .2 1.1.7.6-.4 1.4z"/><path id="CM" d="m259.9 241.4-.2-.1-.8.2-.9-.2-.7.1H255l.2-1.1-.6-.9-.6-.2-.3-.6-.4-.2v-.4l.4-1 .7-1.4h.4l.8-.8h.5l.8.6 1-.5.1-.6.3-.6.2-.7.8-.6.3-1 .3-.3.2-.7.4-.9 1.2-1.1.1-.5.2-.3-.6-.6v-.5l.4-.1.6.9.1 1-.1 1 .8 1.3h-.8l-.4.1-.6-.1-.3.7.8.8.6.2.2.6.4 1-.2.4-.7 1.4-.3.3-.1 1.1.1.6-.1.4.7.7.1.5.5.7.6.5.1.6.1.4-.1.8-1.1-.3-1.1-.4z"/><path id="CN" d="m397.6 217.9-1.2.7-1.2-.5v-1.3l.7-.7 1.5-.4h.8l.3.6-.6.7zm24.5-54.3 2.5.7 1.7 1.5.6 2h2.2l1.2-.8 2.3-.6-.7 1.9-.5.8-.5 2.3-1 2-1.7-.4-1.2.7.4 1.7-.2 2.3-.7.1v1l-.9-1.1-.6 1.1-2.2.8.2 1-1.2-.1-.7-.6-1 1.3-1.6 1-1.2 1.2-2 .5-1 .9-1.5.5.8-.8-.3-.7 1.1-1.2-.7-1-1.2.7-1.6 1.3-.9 1.2-1.4.1-.7.8.7 1.2 1.2.3v.8l1.1.5 1.6-1.3 1.3.7h.9l.2.9-2 .5-.7.9-1.4.9-.7 1.2 1.5.9.6 1.7.9 1.5 1 1.3v1.2l-.9.4.3.9.8.5-.2 1.3-.4 1.3-.8.1-1 1.7-1.1 2.1-1.3 1.9-1.9 1.4-2 1.3-1.6.2-.9.7-.5-.5-.8.8-2 .8-1.5.2-.5 1.6-.8.1-.4-1.1.3-.6-1.9-.5-.7.2-1.4-.4-.7-.6.2-.9-1.3-.3-.7-.6-1.2.8-1.4.2h-1.1l-.8.4-.7.2.2 1.7h-.8l-.1-.4v-.6l-1 .4-.6-.3-1.1-.6.4-1.3-.9-.3-.3-1.4-1.5.3.2-1.8 1.3-1.3.1-1.3v-1.2l-.6-.4-.5-1-.8.1-1.5-.2.5-.7-.7-1-1 .7-1.2-.4-1.6 1-1.3 1.2-1.1.2-.6-.4h-.7l-1-.4-.8.4-.9 1.2-.1-1.3-.9.3-1.7-.2-1.6-.4-1.1-.7-1.1-.3-.5-.8-.8-.2-1.4-1.1-1.1-.5-.6.4-2-1.1-1.4-1-.4-1.8 1 .2h.2l.3-.2.1-.2-.3-.3v-.6h-.4l-.3-.2v-.4h.2l-.2-.6.1-.1h.5l.9-1.3.3-1.2-.5-.4-.9-.3-.8.2-1.2.6-1.6-.5-.2-.5-.7-.3-.2-.7-1-.8-.3-.5-.2-1v-.7l-.9-.4-.5.2-.4-1.7.4-.4-.2-.4 1.4-.9 1-.4 1.5.2.5-1.2 1.8-.2.5-.7 2.2-1 .2-.4-.1-1.1 1-.5-1.3-3.4 2.8-.8.7-.4 1-3.7 2.8.7.8-.9.1-2.1 1.2-.2 1.1-1.4.6-.2.4 1.5 1.2 1.1 2 .8 1 1.7-.5 2.4.5.9 1.7.3 1.9.3 1.7 1.2.9.2.6 1.8.8 1.1h1.6l2.9.4 1.9-.3 1.4.3 2.1 1.2h1.7l.6.6 1.6-1 2.3-.7 2.1-.1 1.7-.7 1-1 1-.7-.2-.6-.5-.8.7-1.3.8.2 1.5.4 1.4-1.1 2.2-.8 1-1.3 1-.6 2.1-.3 1.1.2.2-.7-1.3-1.5-1.1-.7-1.1.8-1.4-.3-.8.3-.4-.9 1-2.1.7-1.6 1.7.8 2-1.4v-1l1.3-2.4.8-.7v-1.3l-.8-.6 1.2-1.2 1.8-.4 1.9-.1 2.1.7 1.2.9.9 2.3.5 1 .5 1.4z"/><path id="CO" d="m134.8 244.8-.6-.3-.7-.5-.4.2-1.2-.2-.3-.6h-.3l-1.4-.8-.2-.4.5-.1-.1-.7.3-.5.7-.1.6-.9.5-.7-.5-.3.3-.8-.3-1.3.3-.4-.2-1.2-.6-.8.2-.7.5.1.3-.4-.3-.8.2-.2h.7l1.1-1 .6-.2v-.5l.3-1.2.8-.7h.9l.1-.3 1.1.1 1.1-.7.6-.3.7-.7.5.1.4.4-.3.5-.9.2-.4.7-.5.4-.4.5-.2 1-.4.8.7.1.2.7.3.3.1.6-.2.5v.3l.3.1.3.5 1.8-.1.8.2 1 1.2.6-.2 1 .1.8-.2.5.2-.3.8-.3.5-.1 1 .3.9.4.4v.3l-.7.7.5.3.4.5.4 1.4-.3.2-.3-.8-.4-.4-.5.5h-2.8v.9l.8.1v.5l-.3-.1-.8.2v1l.6.5.2.8v.6l-.6 3.9-.7-.7h-.4l.9-1.4-1.1-.7-.8.1-.5-.2-.8.4-1.1-.2-.8-1.5-.7-.4-.5-.7-.9-.7z"/><path id="CR" d="m124 233-.8-.3-.3-.3.2-.2-.1-.3-.4-.3-.6-.3-.5-.2-.1-.4-.4-.3.1.4-.3.3-.3-.4-.5-.1-.2-.3v-.4l.2-.5-.4-.2.3-.3.2-.2.9.4.3-.2.4.1.2.3.4.1.3-.3.4.8.5.6.7.6-.5.1v.6l.3.2-.2.2.1.3-.1.3z"/><path id="CU" d="m125 211.1 1.2.1h1.1l1.3.5.6.6 1.3-.2.5.4 1.2.9.9.7h.5l.8.3-.1.4 1 .1 1.1.6-.2.4-.9.2-1 .1-1-.1-2 .1.9-.8-.6-.4-.9-.1-.5-.4-.3-.9-.8.1-1.3-.4-.4-.3-1.8-.2-.5-.3.5-.4-1.4-.1-1 .8h-.6l-.2.4-.7.2-.6-.1.7-.5.3-.5.6-.3.7-.3 1.1-.1z"/><path id="CY" d="m289.4 191.6 1-.7-1.3.5h-1l-.2.4h-.1l-.7.1.3.7.7.2 1.5-.7v-.1z"/><path id="CZ" d="m265.4 166.1-.7-.4-.7.1-1.1-.7-.5.2-.8.9-1.1-.7-.8-.9-.7-.5-.1-.9-.2-.7 1-.5.5-.6 1-.4.4-.4.4.3.6-.2.7.7 1.1.2-.1.6.8.5.2-.6 1 .2.1.7 1.1.1.7 1.1h-.4l-.2.4-.3.1-.1.5-.3.1v.2l-.5.2h-.6z"/><path id="DE" d="M255.5 151.5v.9l1.4.6v.9l1.4-.5.8-.7 1.6 1 .7.8.3 1.2-.4.6.5.8.4 1.2-.1.8.6 1.4-.6.2-.4-.3-.4.4-1 .4-.5.6-1 .5.2.7.1.9.7.5.8.9-.5 1-.5.3.2 1.4-.1.4-.4-.4-.7-.1-1 .4-1.2-.1-.2.6-.7-.6-.4.1-1.5-.6-.3.5h-1.2l.2-1.5.7-1.5-2-.4-.7-.6.1-1-.3-.5.2-1.5-.2-2.4h.9l.4-.9.4-2.1-.3-.8.3-.5 1.2-.1.3.5 1-1.2-.3-.9-.1-1.4 1.1.3z"/><path id="DJ" d="m302.4 226.6.3.4v.6l-.8.3.6.4-.5.8-.3-.3-.3.1h-.8v-.4l-.1-.4.5-.7.5-.6.6.1z"/><path id="DK" d="m259.4 150-.8 2-1.5-1.4-.2-1 2.1-.8zm-2.5-2.2-.3 1-.4-.3-1 1.8.4 1.2-.9.4-1.1-.3-.6-1.4v-2.6l.2-.7.4-.8 1.2-.2.5-.7 1.1-.7v1.4l-.4.8.2.7z"/><path id="DO" d="m139.9 216.3.2-.3h1.1l.8.4h.4l.3.5h.8v.4l.6.1.7.5-.5.6-.7-.3-.6.1-.5-.1-.3.3-.5.1-.2-.4-.5.2-.6 1-.4-.2-.1-.4v-.4l-.4-.4.3-.3.1-.6z"/><path id="DZ" d="m258.4 210.6-4.8 2.9-4.1 3-2 .7-1.6.1v-.9l-.7-.2-.9-.4-.3-.8-4.8-3.3-4.8-3.4-5.3-3.8v-2.3l2.3-1.2 1.4-.2 1.2-.4.5-.8 1.7-.6.1-1.2.8-.1.6-.6 1.9-.3.3-.6-.4-.4-.5-1.8-.1-1-.5-1.1 1.4-.9 1.5-.3.9-.7 1.4-.5 2.4-.3 2.3-.1.7.3 1.3-.7h1.5l.6.4 1-.1-.3.9.2 1.7-.3 1.4-.9 1 .1 1.3 1.2 1v.4l.9.7.6 3 .5 1.4.1.7-.2 1.3.1.7-.2.9.1 1-.6.7.8 1.1.1.7.5.9.7-.3 1.1.7z"/><path id="EC" d="m127.8 249.4.8-1.1-.3-.6-.5.7-.8-.6.3-.4-.2-1.3.5-.2.3-.9.5-.9-.1-.6.8-.3 1-.6 1.4.8h.3l.3.6 1.2.2.4-.2.7.5.6.3.2 1.1-.4.9-1.5 1.5-1.7.6-.9 1.2-.3 1-.8.6-.6-.7-.6-.2-.6.1v-.5l.4-.3z"/><path id="EE" d="m275.8 144.3.2-1.6-.5.3-.9-1-.1-1.6 1.8-.8 1.8-.4 1.5.5 1.5-.1.2.5-1 1.6.4 2.5-.6.8h-1.2l-1.2-1-.6-.3z"/><path id="EG" d="m290.8 201.2-.4.6-.3 1.2-.4.8-.3.3-.5-.5-.6-.7-1-2.3-.1.1.6 1.7.9 1.6 1.1 2.5.5.9.5.9 1.3 1.7-.3.3v1l1.6 1.4.2.3h-16.8v-11.3l-.4-1.3.4-1-.2-.7.5-.8h1.9l1.4.4 1.4.5.7.3 1.1-.5.6-.5 1.2-.1 1 .2.4.8.3-.5 1.1.4 1.1.1.7-.4z"/><path id="ER" d="m301.4 226.8-.5-.5-.6-.8-.6-.5-.4-.5-1.2-.6h-1l-.3-.3-.8.3-.9-.7-.4 1.1-1.6-.3-.2-.6.6-2.1.1-1 .4-.5 1-.2.7-.8.8 1.7.4 1.3.8.7 1.9 1.4.8.8.8.8.4.5.7.4-.3.6z"/><path id="ES" d="m228.6 179.6.1-1.4-.6-.8 2-1.4 1.7.4h1.9l1.5.3 1.2-.1 2.3.1.6.8 2.6.9.5-.4 1.6.9 1.6-.2.1 1.1-1.3 1.3-1.8.4-.1.6-.9 1-.5 1.5.6 1-.8.8-.3 1.2-1.1.4-1 1.4h-3.1l-.9.6-.5.7-.7-.1-.5-.6-.4-1-1.3-.3-.1-.6.5-.7.2-.5-.5-.5.4-1.2-.6-1.1.6-.2.1-.9.2-.3v-1.5l.7-.5-.4-.9-.8-.1-.2.2h-.8l-.4-.9-.6.3z"/><path id="ET" d="m295.1 223.3.9.7.8-.3.3.3h1l1.2.6.4.5.6.5.6.8.5.5-.5.6-.5.7.1.4v.4h.8l.3-.1.3.3-.3.5.5.8.5.7.5.5 4.6 1.7h1.2l-4 4.2-1.8.1-1.3 1h-.9l-.4.4h-1l-.6-.5-1.3.6-.4.6-.9-.1-.3-.2h-.7l-1.8-1.2h-1l-.5-.5v-.8l-.7-.2-.8-1.5-.6-.3-.2-.6-.7-.7-.9-.1.5-.8h.8l.2-.4v-1.3l.4-1.5.7-.4.1-.6.6-1.1.9-.7.6-1.4.2-1.2 1.6.3z"/><path id="FK" d="m154.8 330.3 1.7-1.4 1.2.6.8-.9 1.1 1-.4.8-1.9.7-.6-.8-1.2 1z"/><path id="FI" d="m281.9 108.2-.2 2.7 2.2 2.5-1.3 2.8 1.6 4-1 2.9 1.3 2.5-.6 2.1 2.1 2.1-.5 1.6-1.3 1.7-3 3.7-2.6.2-2.5 1-2.3.6-.8-1.5-1.4-.9.3-2.9-.7-2.7.7-1.8 1.3-2 3.2-3.5.9-.7-.1-1.4-2-1.6-.5-1.4v-5.6l-2.2-2.6-1.9-1.9.8-1.1 1.6 2.1 1.8-.2 1.5.9 1.3-1.7.7-3 2.2-1.4 1.8 1.6z"/><path id="FJ" d="m496.4 267.4-.2.7-.1.1-.9.4-.9.3-.2-.5.7-.3.4-.1.8-.5zm-2.9 2.2-.6-.2-.5.5.1.7.8.2.9-.2.2-.8-.5-.4z"/><path id="FR" d="m255 179.1-.5 1.5-.6-.4-.3-1.3.3-.7.9-.7zm-8.5-16.9 1 1 .7-.2 1.2 1 .3.2h.4l.7.6 2 .4-.7 1.5-.2 1.5-.4.4-.6-.2v.5l-1 1.2v.9l.7-.3.5.9-.1.6.4.8-.5.6.4 1.5.8.2-.2.8-1.3 1.1-2.8-.5-2.1.6-.2 1.2-1.6.2-1.6-.9-.5.4-2.6-.9-.6-.8.7-1.2.3-4-1.5-2.2-1-1.1-2.2-.8-.1-1.5 1.8-.5 2.4.6-.4-2.4 1.3.9 3.3-1.7.4-1.8 1.2-.5.2.8h.7z"/><path id="GA" d="m257.1 250.2-1.5-1.4-.9-1.2-.9-1.5v-.5l.3-.4.3-1 .3-1 .5-.1h2.1v-1.7l.7-.1.9.2.8-.2.2.1-.1.6.4.7 1.1-.1.4.3-.6 1.6.7.8.2 1.1-.2.9-.4.7H260l-.8-.7-.1.6-1 .2-.5.4.5.9z"/><path id="GB" d="m233.4 152.6-.8 1.7-1.1-.5h-.9l.3-1.3-.3-1.3 1.2-.1zm3.8-10.5-1.5 2.9 1.4-.4h1.6l-.4 2.1-1.3 2.3 1.5.2.1.3 1.3 2.9 1 .4.9 2.7.4.9 1.7.4-.2 1.5-.7.7.6 1.2-1.3 1.2h-1.9l-2.4.6-.7-.4-.9 1-1.3-.3-1 .8-.8-.4 2.1-2.3 1.3-.5-2.2-.4-.4-.9 1.5-.7-.8-1.3.3-1.5 2.1.2.2-1.4-.9-1.5-1.7-.4-.3-.7.5-1.1-.5-.7-.8 1.2-.1-2.4-.7-1.3.5-2.7 1.1-2.2 1.1.2z"/><path id="GE" d="m300.2 180.2.2-.8-.4-1.3-.8-.7-.8-.2-.5-.6.2-.2 1.2.3 2.1.3 1.9.9.2.4.9-.3 1.3.4.4.8.9.4-.4.3.7 1-.2.2-.8-.1-1.1-.5-.3.3-2 .3-1.4-.9z"/><path id="GF" d="m167 241.1-.5.5-.7.1-.2-.4-.3-.1-.4.4-.6-.3.4-.6.1-.6.2-.6-.5-.8-.1-1 .7-1.2.5.2 1 .3 1.5 1.2.2.6-.8 1.3z"/><path id="GH" d="m242.9 236.3-2.2.8-.8.5-1.3.4-1.3-.4.1-.6-.6-1.2.4-1.6.6-1.2-.4-2-.2-1.1v-.8l2.5-.1.6.1.5-.2.7.1-.1.4.6.7v1l.1 1.1.4.5-.3 1.3.1.7.4.9z"/><path id="GL" d="m175.2 22.8 4.8-6.9 5 .5 1.8-4.5 5-1.2 11.3 1.6 8.9 9.4-2.6 4.2-5.4.5-7.6 1 .7 1.8 5-1.1 4.3 3.5 2.7-3.1 1.2 3.6-1.6 5.5 3.6-3.5 6.9-3.8 4.2 1.9.8 4.1-5.8 6.4-.8 2-4.5 1.4 3.3.4-1.7 5.8-1.1 4.8v7.7l1.7 4.2-2.2.3-2.3 2 2.6 3.2.3 4.9-1.5.5 1.8 4.6-3.1.4 1.6 2.1-.5 1.8-2 .8h-2l1.8 3.3V95l-2.8-1.9-.7 1.3 1.9 1.2 1.9 2.8.5 3.5-2.5.8-1.1-1.6-1.7-2.5.5 3-1.6 2.2 3.7.2 2 .2-3.8 3.5-3.8 3.1-4.1 1.3h-1.6l-1.5 1.4-2 3.9-3 2.5-1 .1-1.9.8-2 .8-1.2 2.1v2.3l-.7 2.1-2.3 2.5.6 2.4-.6 2.4-1 2.6-2 .2-2.1-2.3h-2.8l-1.4-1.6-.9-2.9-2.5-3.9-.7-2.1-.2-3-2-3.2.5-2.6-.9-1.3 1.4-4.4 2.1-1.4.6-1.6.3-3.2-1.6 1.4-.8.6-1.3.6-1.7-1.3-.1-2.8.6-2.3 1.3-.1 2.9 1.1-2.4-2.7-1.3-1.5-1.4.6-1.2-1.1L164 93l-.9-1.8-1.1-3.4-1.7-5.5-1.8-2.1v-2.3l-3.8-3.4-3-.4-3.8.2-3.5.4-1.6-1.9-2.5-3.9 3.7-2 2.8-.3-6.1-1.7-3.2-2.7.2-2.7 5.4-3.5 5.2-3.6.5-2.8-3.8-2.9 1.2-3.4 4.9-6.2 2.1-1-.6-4.3 3.4-2.6 4.4-1.6 4.3-.1 1.5 3.2L170 25l3.4 3.9 2 .8 2.9 3.2-3.4-5.4z"/><path id="GM" d="m217.6 226 .2-.6h1.5l.3-.3h.4l.6.4h.4l.5-.2.3.4-.6.3h-.6l-.6-.3-.5.3h-.3l-.3.2z"/><path id="GN" d="M229.5 233.8h-.4l-.3.6h-.4l-.3-.3.1-.6-.6-.9-.4.2h-.3l-.4.1v-.5l-.2-.4v-.4l-.3-.6-.4-.5h-1.1l-.3.3h-.4l-.2.3-.2.4-.8.6-.6-.8-.6-.6-.4-.2-.4-.3-.2-.6-.2-.3-.2-.3.6-.7h.4l.4-.2h.3l.2-.2-.1-.5.2-.2v-.5h.7l1 .4h.3l.1-.2.8.1.2-.1.1.5h.2l.4-.2h.2l.4.4.6.1.4-.3.5-.2.3-.2h.3l.3.3.2.4.6.6-.3.4-.1.5.3-.1.2.2-.1.4.4.4-.3.1-.1.5.3.6.3 1.1-.5.2-.1.2.1.3-.1.6z"/><path id="GQ" d="m254.9 243.2-.3-.2.5-1.6h2.3v1.7h-2.1z"/><path id="GR" d="m275 190.8.8.6 1.1-.1 1.1.1v.3l.8-.2-.2.5-2 .1v-.3l-1.7-.3zm4.1-10.6-.4 1.2-.3.2-.9-.1-.7-.2-1.7.5 1 1-.7.3h-.8l-.7-1-.3.4.3 1.1.7.9-.5.4.8.8.7.5v1l-.7-.6-.6.1.4.9-.5.1-.5-.4.6 2h-.3l-.2-.6h-.3l-.1.7-.2-.2.1-.4-.3-.5h-.3l.1.4-.1.1-.3-.3-.2-.5.3-.3-.2-.4-.2-.2h-.2l-.2-.5.3-.3.2-.2.3.1.1-.2.3-.1.3.2.3.1.2-.3h-.5l-.3-.1-.6.1h-.6l-.6-.8-.1-.1.1-.3-.7-.6-.1-.5.7-.9.1-.6.5-.3v-.5l.9-.2.5-.4h.8l.2-.3.3-.1 1 .1 1.1-.5 1 .7 1.3-.2v-.9z"/><path id="GT" d="m113.9 225.1-.7-.3h-.9l-.6-.3-.8-.6v-.4l.2-.3-.2-.3.7-1.2h1.8v-.5l-.2-.1-.2-.3-.5-.3-.5-.5h.6v-.8h2.6v1.2l-.1 1.7h.4l.5.3.1-.2.4.2-.6.6-.7.4-.1.3.1.3-.3.4-.3.1.1.2-.3.2-.5.4z"/><path id="GW" d="m220 229-.8-.6-.6-.1-.3-.4v-.2l-.4-.3-.1-.3.7-.2h.5l.4-.2 2.6.1v.5l-.2.2.1.5-.2.2h-.3l-.4.2h-.4z"/><path id="GY" d="m156.9 232.8.9.5.9.9v.7h.5l.8.7.6.5-.2 1.3-.9.4.1.3-.3.7.6 1h.5l.2.8.9 1.2-.3.1-.8-.1-.5.4-.6.2-.4.1-.2.3-.7-.1-.9-.7-.1-.7-.4-.7.2-1.2.4-.5-.3-.7-.5-.2.2-.6-.3-.3-.7.1-1-1.1.4-.4v-.7l.9-.2.4-.3-.5-.5.1-.5z"/><path id="HN" d="m117.9 226.2-.2-.5-.4-.1.1-.6-.2-.2-.3-.1-.6.2-.1-.2-.4-.2-.3-.3-.4-.1.3-.4-.1-.3.1-.3.7-.4.6-.6.1.1.3-.3h.4l.1.1.2-.1.7.1h.7l.5-.2.2-.2.5.1.3.1h.4l.3-.1.6.2h.2l.4.3.4.3.5.2.4.4h-.5l-.2.2-.5.2h-.4l-.3.2-.3-.1-.2-.2h-.1l-.2.3h-.1v.3l-.5.4-.3.2-.3.4-.4-.3-.3.4h-.6v.7h-.2l-.2.3z"/><path id="HR" d="m268.1 171.7.3.8.4.6-.5.8-.6-.4h-1l-1.2-.3h-.7l-.3.4-.5-.5-.3.8.7.9.3.6.7.7.5.4.5.8 1.3.7-.2.3-1.3-.7-.8-.7-1.3-.6-1.2-1.4.3-.1-.6-.8v-.7l-.9-.3-.4.9-.4-.7v-.7h.1l1 .1.3-.3.5.3h.6v-.6l.5-.2.1-.8 1.1-.5.4.3 1.1.9 1.2.4z"/><path id="HT" d="m137.8 216 .9.1 1.2.2.1.8-.1.6-.3.3.4.4v.4l-.9-.3-.7.1-.9-.1-.7.3-.8-.5.1-.5 1.3.2 1.1.1.5-.3-.6-.6v-.6l-.9-.2z"/><path id="HU" d="m264.4 169.8.5-1.3-.3-.5h.8l.1-.9.7.5.5.2 1.2-.3.1-.4.6-.1.7-.3.2.1.7-.3.3-.5.5-.1 1.5.6.3-.2.8.6.1.6-.9.4-.7 1.4-.9 1.4-1.1.4-.9-.1-1.1.5-.5.3-1.2-.4-1.1-.9-.4-.3-.3-.7z"/><path id="ID" d="M412.3 259.1h-.6l-1.9-1 1.3-.3.7.4.5.4zm5.2-.2-1.2.3-.2-.2.1-.5.6-.9 1.4-.6.1.3v.4zm-9.2-2.9.5.4.9-.1.4.6-1.6.3-1 .2h-.8l.5-.8h.8zm7.1 0-.2.8-2.1.4-1.9-.2v-.5l1.1-.3.9.4.9-.1zm-20.3-1.8 2.7.1.3-.6 2.6.7.5.9 2.1.3 1.7.8-1.6.5-1.6-.6h-1.3l-1.5-.1-1.3-.3-1.6-.5-1-.1-.6.2-2.6-.6-.2-.6-1.3-.1 1-1.4 1.7.1 1.1.6.6.1zm37-.8-.7 1-.1-1.1.3-.5.3-.5.3.4zm-10.6-3.9-.5.5-1-.3-.3-.6 1.4-.1zm4.6-.5.5 1.1-1.2-.6-1.2-.1-.8.1h-1l.3-.8 1.7-.1zm5.2-2.8.4 2.3 1.5.8 1.2-1.5 1.6-.8h1.3l1.2.5 1 .5 1.5.3v9.2l-1.3-1.2-1.4-.3-.3.4h-1.8l.6-1.2.9-.4-.4-1.5-.7-1.2-2.7-1.2-1.2-.1-2.1-1.3-.4.7-.5.1-.3-.5v-.6l-1.1-.7 1.5-.5h1l-.1-.4h-2.1l-.6-.8-1.3-.3-.6-.7 1.9-.3.7-.5 2.3.6zm-12.6-3.6-1.1 1.4-1.1.3-1.4-.3-2.4.1-1.2.2-.2 1.1 1.3 1.3.8-.6 2.6-.5-.1.6-.6-.2-.6.8-1.2.5 1.3 1.8-.3.5 1.3 1.6v.9l-.8.4-.6-.5.7-1.2-1.4.5-.4-.4.2-.5-1-.8.1-1.4-.9.4.1 1.6.1 2-.9.2-.6-.4.4-1.3-.2-1.4h-.6l-.4-1 .6-.9.2-1.1.7-2.1.3-.6 1.2-1 1.1.4 1.8.2 1.6-.1 1.4-1zm4.8.4-.1 1.2-.7-.1-.2.9.6.7-.4.2-.6-.9-.4-1.8.3-1.1.5-.5.1.8.8.1zm-15.3-1 1.6 1.3-1.7.2-.5 1 .1 1.3-1.4 1v1.4l-.5 2.2-.2-.5-1.6.6-.6-.9-1-.1-.7-.5-1.7.5-.5-.7-.9.1-1.2-.2-.2-1.9-.7-.4-.7-1.2-.2-1.2.2-1.3.8-.9.2.9 1 .8.9-.3.9.1.8-.7.7-.1 1.3.4 1.2-.3.7-2 .5-.5.5-1.6h1.6l1.2.2-.8 1.3 1 1.3zm-17 10.9h-1.6l-1.2-1.2-1.8-1.2-.6-.9-1.1-1.1-.7-1.1-1.1-2-1.2-1.2-.4-1.2-.5-1-1.3-.9-.7-1.2-1.1-.8-1.5-1.6-.1-.7.9.1 2.2.3 1.3 1.4 1.1 1 .8.6 1.3 1.5h1.4l1.2 1 .8 1.2 1.1.6-.6 1.1.8.5h.5l.2 1 .5.8 1 .1.7.9-.4 1.8z"/><path id="IE" d="m232.7 154.2.2 1.7-1.1 2.1-2.5 1.4-2-.3 1.1-2.4-.7-2.4 1.9-1.9 1.1-1.1.3 1.3-.3 1.3h.9z"/><path id="IL" d="m292 195.9-.2.5-.5-.2-.3 1.1.4.2-.4.2-.1.4.7-.2v.6l-.7 2.6-.9-2.8.4-.5-.1-.1.4-.8.3-1.3.2-.4h.5l.1-.3h.4v.7z"/><path id="IN" d="m351.6 191.1 1.2-.6.8-.2.9.3.5.4-.3 1.2-.9 1.3h-.5l-.1.1.2.6h-.2v.4l.3.2h.4v.6l.3.3-.1.2-.3.2h-.2l-1-.2.4 1.8 1.4 1 2 1.1-.9.7-.5 1.5 1.4.6 1.3.8 1.8.9 1.9.2.8.8 1.1.1 1.7.4h1.2l.2-.6-.2-1 .1-.7.9-.3.1 1.3v.3l1.3.6.9-.2 1.2.1h1.2l.1-1-.6-.5 1.1-.2 1.3-1.2 1.6-1 1.2.4 1-.7.7 1-.5.7 1.5.2.1.6-.5.3.1 1-1-.3-1.8 1.1v.9l-.8 1.3-.1.8-.6 1.3-1.1-.4-.1 1.6-.3.5.1.6-.7.4-.7-2.4h-.4l-.2 1-.8-.8.4-.9.6-.1.7-1.3-.8-.3h-1.3l-1.3-.2-.1-1.1-.7-.1-1.1-.7-.5 1.1 1 .8-.9.6-.3.6.9.4-.2.9.5 1.2.2 1.3-.2.6h-1l-1.7.3.1 1.1-.8.9-2 1-1.6 1.7-1.1.9-1.4 1v.7l-.7.4-1.3.5-.7.1-.4 1.1.3 1.9.1 1.2-.6 1.4v2.4l-.7.1-.6 1.1.4.5-1.3.4-.5 1-.6.4-1.3-1.3-.7-2-.5-1.4-.5-.7-.8-1.4-.4-1.8-.2-.9-1.3-2-.6-2.8-.4-1.9v-1.8l-.3-1.4-2.1.9-1-.2-1.8-1.8.7-.5-.4-.6-1.7-1.3.9-1h3.1l-.3-1.3-.8-.8-.2-1.2-.9-.7 1.6-1.7 1.6.1 1.5-1.7.9-1.6 1.4-1.6v-1.2l1.2-1-1.1-.8-1.3-.6-.3-2.4h.3l.1-.3.4-.1.2-.4-.6-.3-.8-.6-.3-.3-.4.1-.2-.2v-.5l.6-1 1.6-.2.7-.3.8-.2 1 .8.2.7.7.3.2.5z"/><path id="IQ" d="m305.7 190.3.9.5.1 1-.7.6-.3 1.3 1 1.6 1.7.9.7 1.3-.2 1.2h.5v.9l.8.9-.8-.1-1-.1-1 1.6-2.6-.1-4-3.3-2.1-1.2-1.7-.5-.6-2 3.1-1.8.5-2.1-.1-1.3.8-.4.7-1.1.6-.3 1.6.2.5.5.7-.3z"/><path id="IR" d="m317.7 188.2 1.2-.3 1-1 .9.1.6-.3 1 .2 1.6.9 1.1.2 1.6 1.6 1.1.1.1 1.5-.6 2.1-.4 1.2.6.2-.6.9.5 1.3.1 1.1 1.1.3.1 1.1-1.3 1.5.7.9.6 1 1.4.7v1.4l.7.3.1.7-2 .8-.5 1.8-2.7-.5-1.5-.4-1.6-.2-.6-1.9-.7-.3-1.1.3-1.4.8-1.7-.5-1.4-1.2-1.4-.5-.9-1.5-1-2.2-.8.3-.9-.5-.5.6-.8-.9v-.9h-.5l.2-1.2-.7-1.3-1.7-.9-1-1.6.3-1.3.7-.6-.1-1-.9-.5-.9-2.1-.8-1.4.3-.6-.4-2.1 1-.5.2.7.7.8 1 .2.5-.1 1.7-1.3.5-.1.4.5-.5.9.9.9.4-.1.4 1.3 1.3.4 1 .9 2 .3 2.2-.5z"/><path id="IS" d="m220.9 117.9-.3 2.3 1.6 2.3-1.8 2.5-4.1 2.2-1.2.6-1.9-.5-3.9-1 1.4-1.4-3.1-1.6 2.5-.6-.1-1-3-.8 1-2.3 2.1-.5 2.2 2.4 2.2-1.9 1.8 1 2.3-1.9z"/><path id="IT" d="m263.4 186.3-.5 1.4.2.5-.3.9-1.1-.7-.7-.2-2-.9.2-.9 1.7.2 1.4-.2zm-8.9-5.4.8 1.3-.2 2.4-.6-.1-.6.6-.5-.5-.1-2.2-.3-1.1.8.1zm4.4-11 2 .5-.2 1 .3.9-1.1-.3-1.2.7.1 1-.2.6.5 1 1.3 1 .7 1.6 1.6 1.5h1.1l.3.4-.4.4 1.3.7 1 .6 1.2 1 .1.3-.3.7-.8-.9-1.2-.3-.6 1.2 1 .7-.2.9-.6.1-.8 1.5-.6.1v-.5l.3-1 .3-.4-.6-1.1-.4-.9-.6-.2-.4-.8-.9-.3-.6-.8-1-.1-1.1-.8-1.3-1.2-1-1.1-.4-1.9-.7-.2-1.2-.6-.7.3-.8.9-.6.1.2-.8-.8-.2-.4-1.5.5-.6-.4-.8.1-.6.6.4.7-.1.8-.7.2.3.7-.1.3-.8 1 .3.6-.3.1-.8.9.3.2-.4 1.4-.4z"/><path id="JM" d="m131.6 218.1 1 .1.8.4.2.4h-1l-.4.2-.8-.2-.8-.5.2-.3.6-.1z"/><path id="JO" d="m291.7 196.4.2-.5 1.6.7 2.8-1.8.6 2-.3.3-2.8.8 1.4 1.6-.5.3-.2.5-1.1.2-.3.6-.6.5-1.6-.3v-.2l.7-2.6v-.6l.2-.5z"/><path id="JP" d="m432 193.4.2.6-.8 1-.6-.5-.7.4-.4 1-.9-.5v-.8l.8-1 .8.2.6-.7zm8.9-5.1-.5 1.4.2.9-.7 1.2-1.8.8-2.5.1-2 1.9-1-.7-.1-1.3-2.5.4-1.7.8h-1.7l1.4 1.2-.9 2.8-.9.7-.7-.6.3-1.5-.9-.5-.6-1.2 1.3-.5.7-1.1 1.4-.9 1-1.2 2.8-.5 1.5.4 1.5-3.1.9.8 2.1-1.8.8-.7.9-2.2-.2-2.1.6-1.2 1.5-.3.8 2.6v1.5l-1.3 1.8zm4.2-13.1 1 .4 1-.8.3 2.2-2.1.5-1.2 1.9-2.2-1.3-.8 2.1h-1.6l-.2-1.9.7-1.5 1.5-.1.4-2.7.4-1.6 1.7 2.1z"/><path id="KE" d="m299.4 245.8.8 1.2-1 .6-.3.6-.5.1-.2 1-.5.6-.3.9-.6.5-2-1.4-.1-.8-5.1-2.9-.2-.2v-1.5l.4-.6.7-.9.5-1-.6-1.6-.2-.7-.7-1 .9-.8 1-.9.7.2v.8l.5.5h1l1.8 1.2h.7l.3.2.9.1.4-.6 1.3-.6.6.5h1l-1.2 1.6z"/><path id="KG" d="m341.8 178.9.3-.8.9-.3 2.3.7.2-1.1.8-.4 2 .8.5-.2 2.3.1 2.1.2.7.7.9.3-.2.4-2.2 1-.5.7-1.8.2-.5 1.2-1.5-.2-1 .4-1.4.9.2.4-.4.4-2.7.3-1.7-.6-1.5.1.1-1.1 1.5.3.5-.6 1.1.2 1.8-1.3-1.7-1-1 .5-1-.7 1.2-1.2z"/><path id="KH" d="m387.9 229.6-.6-.7-.7-1.5-.3-1.7.9-1.2 1.8-.3 1.3.2 1.2.6.6-1 1.3.5.3 1-.2 1.7-2.4 1.1.6.9-1.5.1-1.2.6z"/><path id="KP" d="m426.3 178.6.2.3-.5-.1-.6.6-.4.6.1 1.3-.7.4-.3.3-.5.5-.9.3-.6.5v.8l-.2.2.6.3.8.8-.2.4-.6.1-1 .1-.6.8-.6-.1-.1.2-.7-.3-.2.3-.4.1v-.3l-.4-.2-.4-.3.4-.8.3-.2-.1-.3.4-1-.1-.3-.8-.2-.7-.5 1.2-1.2 1.6-1 1-1.3.7.6 1.2.1-.2-1 2.2-.8.6-1.1z"/><path id="KR" d="m423.1 185.6 1.2 2.1.4 1.1v2l-.5.9-1.3.3-1.1.7-1.3.1-.2-.9.3-1.3-.6-1.8 1.1-.3-1-1.5.1-.2.6.1.6-.8 1-.1.6-.1z"/><path id="XK" d="m270.8 179.3-.1.4h-.2l-.1-.7-.3-.2-.3-.5.3-.4.3-.1.2-.6.3-.1.2.3.3.1.2.3.2.1.3.4h.2l-.2.5-.2.2v.1l-.3.1z"/><path id="KW" d="m309.3 200.4.3.7-.1.4.5 1.2h-1l-.4-.8-1.3-.2 1-1.6z"/><path id="KZ" d="m341.8 178.9-.8.4-1.9 1.3-.6 1.3h-.5l-.4-.9-1.8-.1-.3-1.5h-.7l.1-1.9-1.7-1.4-2.4.2-1.7.3-1.4-1.8-1.2-.7-2.2-1.4-.3-.2-3.6 1.2.1 7.1-.7.1-1-1.5-1-.5-1.6.4-.6.6-.1-.5.3-.8-.3-.7-1.6-.7-.6-1.7-.8-.5v-.6l1.4.2.1-1.5 1.2-.3 1.2.3.3-2-.3-1.3-1.4.1-1.2-.5-1.6.9-1.3.4-.7-.3.1-1.1-.9-1.4-1.1.1-1.2-1.4.8-1.6-.4-.4 1.1-2.4 1.5 1.3.2-1.6 2.9-2.4 2.2-.1 3.1 1.6 1.7.9 1.5-.9h2.2l1.8 1.2.4-.7 2 .1.4-1.1-2.3-1.6 1.4-1.1-.3-.6 1.4-.6-1-1.6.6-.8 5.3-.8.7-.6 3.5-.9 1.3-1 2.5.5.4 2.5 1.5-.6 1.8.8-.1 1.3 1.4-.1 3.5-2.3-.5.8 1.8 1.8 3.2 5.8.8-1.2 1.9 1.3 2-.6.8.4.7 1.3 1 .4.6.9 1.8-.3.8 1.3-1.1 1.4-1.2.2-.1 2.1-.8.9-2.8-.7-1 3.7-.7.4-2.8.8 1.3 3.4-1 .5.1 1.1-.9-.3-.7-.7-2.1-.2-2.3-.1-.5.2-2-.8-.8.4-.2 1.1-2.3-.7-.9.3z"/><path id="LA" d="m390.3 224.3.5-.7.1-1.2-1.1-1.3-.1-1.5-1.1-1.2-1.1-.1-.3.5h-.8l-.4-.3-1.5.9v-1.3l.3-1.6-1-.1-.1-.9-.6-.5.3-.6 1.2-1 .1.4h.8l-.2-1.7.7-.2.8 1.2.6 1.4h1.7l.5 1.3-.9.4-.4.5 1.7.9 1.2 1.7.9 1.3 1.1 1 .4 1-.3 1.5-1.3-.5-.6 1z"/><path id="LB" d="M292.1 194.9h-.4l-.1.3h-.5l.5-1.4.7-1.2v-.1l.6.1.2.7-.8.6z"/><path id="LK" d="m357.2 234-.2 1.5-.6.4-1.2.3-.7-1.1-.3-2 .6-2.3 1 .8.7 1z"/><path id="LR" d="M230.5 238.5h-.4l-1.5-.7-1.3-1.1-1.2-.8-1-.9.3-.5.1-.4.6-.8.7-.7h.3l.4-.2.6.9-.1.6.3.3h.4l.3-.6h.4l-.1.4.1.7-.3.6.4.4.4.1.6.6v.6l-.1.2z"/><path id="LS" d="m282.4 287.2.5.5-.4.8-.2.5-.8.3-.3.5-.5.2-1.1-1.3.8-1 .8-.6.7-.3z"/><path id="LT" d="m273.6 153.1-.1-.6.2-.7-.6-.4-1.5-.4-.3-2.1 1.6-.8 2.4.2 1.4-.3.2.5.8.2 1.4 1.2.1 1.1-1.2.8-.3 1.4-1.5.9h-1.4l-.3-.7z"/><path id="LU" d="m250 162.8.3.5-.1 1h-.4l-.3-.2.2-1.2z"/><path id="LV" d="M271.2 148.9V147l.7-1.6 1.3-.9 1.1 2 1.1-.1.3-2 1.2-.5.6.3 1.2 1h1.2l.7.6.1 1.3.5 1.5-1.5 1-.9.4-1.4-1.2-.8-.2-.2-.5-1.4.3-2.4-.2z"/><path id="LY" d="m262.4 211.6-1 .6-.8-.8-2.2-.7-.6-1-1.1-.7-.7.3-.5-.9-.1-.7-.8-1.1.6-.7-.1-1 .2-.9-.1-.7.2-1.3-.1-.7-.5-1.4.7-.4.1-.7-.2-.7 1-.6.4-.5.7-.5.1-1.3 1.7.6.6-.1 1.2.3 1.9.7.7 1.5 1.3.3 2 .7 1.5.8.7-.4.7-.8-.3-1.3.4-.8 1-.8 1-.2 1.9.3.5.7h.5l.5.3 1.4.2.3.5-.5.8.2.7-.4 1 .4 1.3v14.3h-1.6v.6l-5.6-2.9-5.6-2.9z"/><path id="MA" d="m239.5 195.6-.5-1.8-.1-1-.5-1.1h-.6l-1.5-.4-1.3.1-.9-.7h-1l-.4 1.1-.9 1.8-1 .7-1.4.8-.9 1.1-.2.9-.5 1.4.4 2-1.2 1.4-.7.4-1.1 1.1-1.3.2-.7.6-.9 1.6-.9.6-.5 1v.8l-.4.9-.5.2-.8 1-.5 1.1.1.5-.5.8-.5.4-.1.7-.1.6.3-.5h5.5l-.3-2.2.3-.8 1.3-.1v-4l4.6.1v-4.7l2.3-1.2 1.4-.2 1.2-.4.5-.8 1.7-.6.1-1.2.8-.1.6-.6 1.9-.3.3-.6z"/><path id="MD" d="m279.1 166.9.3-.3.9-.2 1 .7.6.1.6.6-.1.7.5.3.2.9.5.5-.1.3.3.2-.4.2-.8-.1-.1-.3-.3.2.1.4-.4.6-.2.7-.4.2-.3-.9.1-.9v-.9l-.8-1.2-.4-.9-.4-.6z"/><path id="ME" d="m269.4 178.4-.1-.4-.6.9.1.6-.3-.1-.4-.6-.6-.4.2-.3.2-1.1.5-.5.3-.2.4.3.2.3.5.2.5.4-.1.2-.3.4z"/><path id="MG" d="m311.5 262.3.4.6.4 1 .2 1.7.4.7-.1.7-.3.4-.5-.9-.3.4.3 1.1-.1.6-.4.3-.1 1.2-.6 1.7-.7 2.1-.9 2.9-.5 2.1-.6 1.8-1.2.4-1.2.7-.8-.4-1.1-.6-.4-.8-.1-1.4-.5-1.2-.1-1.1.3-1.1.7-.3v-.5l.7-1.1.1-1-.3-.7-.3-.9-.1-1.4.5-.8.2-.9.7-.1.8-.3.5-.3h.6l.8-.8 1.2-.9.4-.7-.2-.6.6.2.8-1v-.9l.5-.6z"/><path id="MK" d="M270.6 179.6h.2l.1-.4.8-.3.3-.1.5-.1h.7l.7.6.1 1.2-.3.1-.2.3h-.8l-.5.4-.9.2-.6-.5-.2-.8z"/><path id="ML" d="m224.2 223.8.5-.3.2-.9h.4l1 .4.8-.3.5.1.2-.3h5.7l.3-1-.2-.2-.7-6.4-.7-6.6h2.2l4.8 3.4 4.8 3.3.3.7.9.4.7.2v.9l1.6-.1v3.4l-.8 1-.1.9-1.3.2-1.9.1-.5.5-.9.1h-.9l-.4-.3-.8.2-1.3.6-.3.5-1.1.6-.2.4-.6.3-.7-.2-.4.4-.2 1-1.1 1.2v.5l-.4.6.1.8-.6.2-.3.2-.2-.6-.4.2h-.2l-.3.4h-1.1l-.4-.2-.2.1-.4-.4.1-.4-.2-.2-.3.1.1-.5.3-.4-.6-.6-.2-.4-.3-.3h-.3l-.3.2-.5.2-.4.3-.6-.1-.4-.4h-.2l-.4.2h-.2l-.1-.5.1-.4-.1-.6-.5-.4-.3-.8z"/><path id="MM" d="m382.3 215.6-.8.6-1 .1-.6 1.6-.6.3.7 1.3.9 1.1.6 1-.5 1.3-.5.3.3.7.9 1.2.2.8v.7l.6 1.3-.8 1.3-.7 1.5-.1-1.1.4-1.1-.5-.8.1-1.6-.6-.7-.5-1.7-.3-1.8-.6-1.2-.9.7-1.6 1-.8-.1-.9-.3.5-1.8-.3-1.4-1.1-1.7.2-.5-.8-.2-1-1.2-.1-1.2.5.2v-1.1l.7-.4-.1-.6.3-.5.1-1.6 1.1.4.6-1.3.1-.8.8-1.3v-.9l1.8-1.1 1 .3-.1-1 .5-.3-.1-.6.8-.1.5.9.6.4v1.2l-.1 1.3-1.3 1.3-.2 1.8 1.5-.3.3 1.4.9.3-.4 1.3 1.1.6.6.3 1-.4v.6l-1.2 1-.3.6z"/><path id="MN" d="m365.6 164.6 1.5-.4 2.7-1.9 2.2-1 1.2.7h1.5l.9 1 1.4.1 2 .6 1.4-1.5-.6-1.3 1.5-2.4 1.6.9 1.3.3 1.7.6.3 1.7 2 .9 1.3-.4 1.8-.3 1.4.3 1.4 1.1.9 1.1h1.3l1.8.4 1.3-.5 1.9-.4 2.1-1.5.8.2.7.7 1.7-.2-.7 1.6-1 2.1.4.9.8-.3 1.4.3 1.1-.8 1.1.7 1.3 1.5-.2.7-1.1-.2-2.1.3-1 .6-1 1.3-2.2.8-1.4 1.1-1.5-.4-.8-.2-.7 1.3.5.8.2.6-1 .7-1 1-1.7.7-2.1.1-2.3.7-1.6 1-.6-.6h-1.7l-2.1-1.2-1.4-.3-1.9.3-2.9-.4h-1.6l-.8-1.1-.6-1.8-.9-.2-1.7-1.2-1.9-.3-1.7-.3-.5-.9.5-2.4-1-1.7-2-.8-1.2-1.1z"/><path id="MR" d="m224.2 223.8-.9-1-.9-1.1-.9-.4-.7-.4h-.8l-.7.3-.7-.1-.5.5-.1-.8.4-.7.2-1.4-.2-1.5-.2-.7.1-.7-.3-.8-.7-.7.3-.5h5.5l-.3-2.2.3-.8 1.3-.1v-4l4.6.1v-2.4l5.3 3.8h-2.2l.7 6.6.7 6.4.2.2-.3 1h-5.7l-.2.3-.5-.1-.8.3-1-.4h-.4l-.2.9z"/><path id="MW" d="m290.3 260.9-.4 1.1.4 1.9h.5l.5.5.6 1 .1 1.9-.6.3-.4 1-.9-.9-.1-1 .3-.7-.1-.6-.6-.4-.4.1-.8-.7-.7-.4.4-1.3.4-.5-.3-1.2.3-1.2.2-.4-.4-1.2-.7-.6 1.4.3.3.4.5.7z"/><path id="MX" d="m104 206.9-.5 1.4-.2 1.1-.1 2.1-.1.7.2.8.4.7.3 1.2.9 1.1.3.9.6.7 1.5.4.6.6 1.2-.4 1.1-.1 1.1-.3.9-.3.9-.6.3-.9.1-1.3.2-.4 1-.4 1.5-.4 1.3.1.9-.1.3.3v.7l-.8.9-.3.9.3.3-.2.6-.4 1.2-.4-.4h-.6l-.5.9-.3-.2-.2.1v.2h-2.6v.8h-.6l.5.5.5.3.2.3.2.1v.5h-1.8l-.7 1.2.2.3-.2.3v.4l-1.6-1.6-.7-.5-1.2-.4-.8.1-1.1.6-.7.1-1-.4-1.1-.3-1.3-.7-1.1-.2-1.6-.7-1.2-.7-.4-.4-.8-.1-1.4-.5-.6-.7-1.5-.8-.7-.9-.3-.7.5-.1-.1-.4.3-.4v-.5l-.5-.7-.1-.6-.5-.8-1.2-1.5-1.4-1.2-.7-1-1.2-.6-.3-.4.2-1-.7-.4-.8-.8-.4-1.1-.8-.1-.8-.8-.7-.8-.1-.5-.8-1.2-.5-1.3v-.6l-1-.7-.5.1-.8-.5-.2.7.2.8.1 1.2.5.7 1.1 1.1.2.4.2.1.2.6h.3l.3 1 .4.4.3.6.9.8.5 1.5.4.7.4.7.1.8.7.1.6.7.5.7v.3l-.6.6h-.3l-.4-.9-.9-.9-1-.7-.7-.4v-1.1l-.2-.8-.7-.5-1-.7-.2.2-.4-.4-.9-.4-.8-.9.1-.1.6.1.5-.6.1-.7-1.1-1.1-.8-.4-.5-1-.5-1.1-.7-1.3-.6-1.5 1.6-.1 1.8-.2-.1.3 2.1.8 3.2 1.2h3.9v-.7h2.5l.5.6.7.5.8.7.5.9.4.9.7.5 1.2.5.9-1.3h1.2l1 .6.7 1.1.5.9.8.9.3 1.1.4.7 1.1.5 1 .3z"/><path id="MY" d="m384.5 235.9.1.7.9-.2.5-.6.3.1.8.9.6.9.1.9-.2.6.1.5.1.8.5.4.6 1.2v.5l-1 .1-1.3-1-1.7-1.1-.2-.7-.8-.9-.2-1.2-.5-.8.2-1-.3-.6.2-.3zm24.8 2.4-1 .5-1.2-.2h-1.6l-.5 1.6-.5.5-.7 2-1.2.3-1.3-.4-.7.1-.8.7-.9-.1-.9.3-1-.8-.2-.9 1 .5 1.1-.3.3-1.2.6-.3 1.7-.3 1-1.1.7-.9.6.7.3-.5h.7l.1-.9.1-.7 1.1-1 .7-1.1h.6l.7.7.1.6.9.4 1.2.4-.1.6-.9.1z"/><path id="MZ" d="m290.3 260.9 1.1-.1 1.7.4.4-.2h1l.5-.4h.8l1.5-.6 1.1-.8.2.6-.1 1.4.2 1.3.1 2.3.2.7-.4 1-.5 1-.9.9-1.2.6-1.6.7-1.6 1.6-.5.3-1 1.1-.6.3-.1 1.1.7 1.1.3.9v.5l.2-.1v1.5l-.2.7.3.3-.2.6-.6.5-1.2.5-1.7.8-.6.6.1.7.4.1-.1.8h-1.1l-.1-.7-.2-.7-.1-.6.3-1.7-.4-1.1-.7-2.2 1.5-1.7.4-1.1.2-.1.2-.9-.2-.4.1-1.1.3-1v-1.9l-.7-.5-.7-.1-.3-.4-.7-.3h-1.2l-.1-.5-.1-1 4.3-1.2.8.7.4-.1.6.4.1.6-.3.7.1 1 .9.9.4-1 .6-.3-.1-1.9-.6-1-.5-.5h-.5l-.4-1.9z"/><path id="NA" d="m264.6 286.6-1.1-1.2-.6-1.2-.3-1.5-.3-1.1-.5-2.4v-1.8l-.2-.8-.6-.6-.7-1.2-.7-1.8-.3-.9-1.2-1.4-.1-1.1.7-.3.8-.3h.9l.8.7.2-.1 5.7-.1 1 .7 3.4.2 2.6-.6 1.2-.3.9.1.6.3v.1l-.8.3h-.4l-.9.6-.5-.6-2.2.5h-1.1v5.3l-1.4.1v10.3l-1.3.8-.8.1-.9-.3-.6-.1-.2-.7-.6-.4z"/><path id="NC" d="m476 274.9 1.2.9.7.7-.5.4-.8-.4-1-.7-.9-.8-.9-1.1-.2-.5h.6l.8.5.6.5z"/><path id="NE" d="M244.5 227.7v-1l-1.6-.3v-.7l-.8-.9-.2-.7.1-.7.9-.1.5-.5 1.9-.1 1.3-.2.1-.9.8-1v-3.4l2-.7 4.1-3 4.8-2.9 2.2.7.8.8 1-.6.3 2.4.5.4v.5l.6.5-.3.6-.5 3-.1 1.9-1.8 1.4-.6 1.9.6.5v.9h.9l-.1.7-.4.1v.5h-.3l-1-1.6-.3-.1-1.1.8-1.1-.4-.8-.1-.4.2h-.8l-.8.6h-.7l-1.7-.7-.7.4h-.7l-.5-.5-1.4-.5-1.5.2-.4.3-.2.8-.4.6-.1 1.3-1.1-.8h-.5z"/><path id="NG" d="m253.5 237.9-1.5.5-.5-.1-.5.3h-1.1l-.8-.9-.5-1-1-.9h-2.3l.1-2.3v-.9l.3-.9.4-.4.7-.9-.1-.4.3-.6-.3-.8.1-.5.1-1.3.4-.6.2-.8.4-.3 1.5-.2 1.4.5.5.5h.7l.7-.4 1.7.7h.7l.8-.6h.8l.4-.2.8.1 1.1.4 1.1-.8.3.1 1 1.6h.3l.6.6-.2.3-.1.5-1.2 1.1-.4.9-.2.7-.3.3-.3 1-.8.6-.2.7-.3.6-.1.6-1 .5-.8-.6h-.5l-.8.8h-.4l-.7 1.4z"/><path id="NI" d="m120.1 228.9-.5-.5-.7-.6-.3-.5-.6-.5-.7-.7.2-.2.2.2.1-.1.4-.1.2-.3h.2v-.7h.6l.3-.4.4.3.1-.2.3-.2.5-.4v-.3h.1l.2-.3h.1l.2.2.3.1.3-.2h.4l.5-.2.2-.2h.5l-.1.1-.1.3.1.5-.3.5-.2.6v.6l.1.4v.6l-.2.1-.1.6.1.4-.3.4.1.4.2.2-.3.3-.4-.1-.2-.3-.4-.1-.3.2-.9-.4z"/><path id="NL" d="m250 155.1 1.2.1.3.8-.4 2.1-.4.9h-.9l.2 2.4-.8-.5-.9-1-1.3.5-1-.2.7-.6 1.2-3.4z"/><path id="NO" d="m281.3 99.4 4.4 3.1-1.8 1.1 1.6 2.6-2.4 1.6-1.1.4.6-2.8-1.8-1.6-2.2 1.4-.7 3-1.3 1.7-1.5-.9-1.8.2-1.6-2.1-.8 1.1-.9.2-.2 2.6-2.7-.6-.4 2.1h-1.4l-.9 2.6-1.4 4-2.2 4.8.5 1.1-.5 1.3-1.4-.1-.9 3 .1 4.1.9 1.5-.5 3.4-1.2 1.9-.6 1.6-.9-1.7-2.8 3.2-1.9.6-2-1.4-.5-3-.4-6.7 1.3-2 3.7-2.6 2.8-3.3 2.6-4.7 3.4-6.9 2.4-2.9 3.9-5 3.1-1.8 2.3.2 2.2-3.5 2.6.2z"/><path id="NP" d="m366.1 203.8-.1.7.2 1-.2.6h-1.2l-1.7-.4-1.1-.1-.8-.8-1.9-.2-1.8-.9-1.3-.8-1.4-.6.5-1.5.9-.7.6-.4 1.1.5 1.4 1.1.8.2.5.8 1.1.3 1.1.7 1.6.4z"/><path id="NZ" d="m486.3 307.8.3.8 1-.8.4.8v.8l-.5.9-.9 1.4-.7.8.5.9h-1.1l-1.2.7-.4 1.3-.8 2-1.1.9-.7.6h-1.3l-.9-.7-1.5-.1-.2-.7.8-1.5 1.8-2 .9-.4 1-.7 1.2-1 .8-1 .6-1.4.5-.5.2-1 1-.9zm2.2-8.6 1 1.8v-1.2l.6.5.2 1.3 1.1.6 1 .1.8-.7.7.2-.3 1.6-.4 1.1h-1.1l-.4.6.1.8-.2.3-.5 1-.7 1.3-1.1.8-.2-.5-.6-.3.8-1.5-.5-1-1.5-.7v-.7l1-.6.2-1.4-.1-1.2-.6-1.2v-.3l-.7-.7-1.1-1.5-.6-1.2.5-.1.8 1 1.1.4z"/><path id="OM" d="m324.7 214.2-.5 1-.6-.1-.3.4-.2.8.2 1-.1.2h-.7l-.9.6-.1.7-.3.3h-.9l-.6.4v.6l-.7.4-.8-.1-.9.5-.7.1-.5-1-1.1-2.4 4.2-1.5.9-3-.6-1.1v-.6l.4-.6v-.6l.6-.3-.3-.2.1-1h.7l.6 1.1.8.6 1 .2.8.3.6.9.4.5.5.2v.3l-.5.9-.2.4zm-3.5-7.3-.2.3-.3-.5.4-.5.2.1z"/><path id="PA" d="m131.2 234.4-.5-.4-.3-.8.3-.4-.4-.1-.3-.5-.7-.4-.6.1-.3.5-.6.4h-.3l-.1.3.7.8-.4.2-.2.2-.7.1-.2-.8-.2.2-.5-.1-.3-.6-.6-.1-.4-.2h-.6v.3-.1l.1-.3.1-.3-.1-.3.2-.2-.3-.2v-.6l.5-.1.5.5v.3l.6.1.1-.1.4.3.7-.1.6-.4.9-.3.5-.4.8.1-.1.1h.8l.6.2.5.4.5.4-.2.2.3.8-.3.4-.5-.1z"/><path id="PE" d="m142.9 269.7-.4.8-.7.4-1.4-.8-.1-.6-2.8-1.5-2.5-1.6-1.1-.9-.6-1.2.2-.4-1.2-1.9-1.4-2.6-1.3-2.8-.6-.6-.4-1-1.1-.9-1-.6.5-.6-.7-1.3.4-1 1.1-.9.2.6-.4.3v.5l.6-.1.6.2.6.7.8-.6.3-1 .9-1.2 1.7-.6 1.5-1.5.4-.9-.2-1.1.4-.1.9.7.5.7.7.4.8 1.5 1.1.2.8-.4.5.2.8-.1 1.1.7-.9 1.4h.4l.7.7-1.3-.1-.2.2-1.2.3-1.6 1-.1.7-.4.5.1.8-.9.4v.6l-.4.3.6 1.3.8.9-.3.6.9.1.5.8h1.2l1.2-.8-.1 2.2.6.2.8-.2 1.2 2.3-.3.5-.1 1v1.2l-.6.7.3.5-.3.5.6 1.2z"/><path id="PG" d="m462 254.2-.4.1-.6-.5-.6-.9-.3-1.1.2-.1.2.4.4.3.7.9.7.5zm-5.5-1.9-.7.1-.2.4-.8.3-.7.3h-.8l-1.2-.4-.8-.4.1-.4 1.3.2.8-.1.2-.7h.2l.1.7.8-.1.4-.5.8-.5-.2-.8h.8l.3.2v.8zm-6.8 2.7 1.3.9.9 1.5h.8l-.1.6 1.1.2-.4.3 1.5.6-.2.4-.9.1-.3-.4-1.2-.2-1.4-.2-1.1-.9-.8-.8-.7-1.2-1.8-.6-1.2.4-.9.5.2 1-1.1.5-.8-.2-1.5-.1v-9.2l2.5 1 2.6.8 1 .7.8.7.2.8 2.4.9.3.8-1.3.2zm8.4-4.1-.4.4-.3-.8-.3-.5-.6-.5-.8-.6-1-.4.4-.3.8.4.5.3.6.3.6.6.5.5z"/><path id="PH" d="m420.3 232.7.1.9.1.8-.5 1.3-.5-1.4-.7.7.5 1-.4.7-1.7-.8-.4-1 .4-.7-.9-.7-.4.6-.7-.1-1 .8-.2-.4.6-1.2.9-.4.8-.5.5.6 1.1-.4.2-.6h1l-.1-1.1 1.1.7.1.7zm-3.4-2.6-.5.5-.4.9-.4.4-.9-1 .3-.4.4-.4.2-.9.8-.1-.2 1 1-1.4zm-7.8 1.4-1.9 1.4.7-1 1-.9.8-1 .7-1.4.3 1.2-.9.8zm4.8-3.7.8.4h.9v.6l-.7.6-.9.4v-.7l.1-.7zm5.1-.4.4 1.6-1.1-.4v.5l.3.9-.7.3-.1-1-.4-.1-.2-.9.8.1v-.5l-.9-1.1h1.4zm-5.6-1.3-.4 1.2-.6-.7-.7-1.1 1.2.1zm-.3-8 .9.4.4-.4.1.4-.2.6.5 1.1-.4 1.2-.8.5-.2 1.2.3 1.2.8.2.6-.2 1.8.8-.1.8.5.3-.1.7-1.1-.7-.5-.8-.4.5-.9-.9-1.3.2-.7-.3.1-.6.4-.4-.4-.3-.2.5-.7-.8-.2-.6-.1-1.4.6.5.1-2.3.5-1.3z"/><path id="PL" d="m262.7 160.6-.6-1.4.1-.8-.4-1.2-.5-.8.4-.6-.3-1.2 1-.7 2.2-1.1 1.8-.8 1.4.4.1.6h1.4l1.7.3h2.6l.7.3.3.7.1 1.1.4.9v.9l-.8.5.4 1.1v1l.7 2-.2.6-.7.3-1.3 1.8.4 1-.3-.1-1.3-.8-1 .3-.7-.2-.8.5-.7-.8-.6.3-.1-.1-.7-1.1-1.1-.1-.1-.7-1-.2-.2.6-.8-.5.1-.6-1.1-.2z"/><path id="PK" d="m344.6 189-.6 1v.5l.2.2.4-.1.3.3.8.6.6.3-.2.4-.4.1-.1.3h-.3l.3 2.4 1.3.6 1.1.8-1.2 1v1.2l-1.4 1.6-.9 1.6-1.5 1.7-1.6-.1-1.6 1.7.9.7.2 1.2.8.8.3 1.3h-3.1l-.9 1-1-.4-.4-1.1-1.1-1.2-2.6.3h-2.3l-2 .2.5-1.8 2-.8-.1-.7-.7-.3v-1.4l-1.4-.7-.6-1-.7-.9 2.4.8 1.4-.2.8.2.3-.4 1 .1 1.8-.7v-1.4l.8-.9h1.1l.2-.5 1.1-.2.5.2.6-.5-.1-1 .6-1 .9-.4-.6-1.1 1.3.1.4-.6-.1-.7.7-.7-.2-.9-.3-.7.8-.8z"/><path id="PR" d="m147.6 218.1.7.1.3.3-.4.4h-1.1l-.8.1-.1-.6.2-.2z"/><path id="PS" d="M291.7 196.4v1l-.2.5-.7.2.1-.4.4-.2-.4-.2.3-1.1z"/><path id="PT" d="m228.6 179.6.5-.5.6-.3.4.9h.8l.2-.2.8.1.4.9-.7.5v1.5l-.2.3-.1.9-.6.2.6 1.1-.4 1.2.5.5-.2.5-.5.7.1.6-.6.5-.7-.2-.7.2.2-1.4-.1-1.1-.6-.2-.3-.7.1-1.2.6-.7.1-.7.3-1.1v-.8l-.3-.7z"/><path id="PY" d="m152.7 276.7.6-1.8v-.8l.7-1.3 2.5-.4h1.3l1.3.8v.5l.4.8-.1 2.1 1.5.3.6-.3 1 .4.3.5.1 1.4.2.6.5.1.5-.2.5.3v.8l-.2.9-.3.9-.2 1.4-1.3 1.2-1.1.3-1.6-.2-1.4-.4 1.4-2.4-.2-.7-1.5-.6-1.7-1.1-1.2-.2z"/><path id="QA" d="m313.3 208.7-.1-1.1.4-.8.4-.2.4.5v.9l-.3.9-.4.1z"/><path id="RO" d="m273.6 167.6.6-.5.9.2h.9l.7.5.5-.3 1-.2.4-.5h.6l.4.2.4.6.4.9.8 1.2v.9l-.1.9.3.9.6.4.7-.3.6.3v.5l-.7.4-.4-.2-.4 2.4-.8-.2-1-.7-1.7.5-.7.5-2.1-.1-1.1-.3-.5.1-.4-.8-.3-.3.3-.3-.3-.2-.4.4-.8-.6-.1-.8-.9-.5-.2-.6-.8-.8 1.1-.4.9-1.4.7-1.4z"/><path id="RS" d="m271 172.7.9.5.1.8.8.6.4-.4.3.2-.3.3.3.3-.3.4.1.7.7.8-.5.6-.2.6.2.2-.2.3h-.7l-.5.1v-.1l.2-.2.2-.5h-.2l-.3-.4-.2-.1-.2-.3-.3-.1-.2-.3-.3.1-.2.6-.3.1.1-.2-.5-.4-.5-.2-.2-.3-.4-.3.3-.1.2-.9-.7-.8.4-.9h-.5l.5-.8-.4-.6-.3-.8 1.1-.5.9.1.8.8z"/><path id="RU" d="m510.4 119.6-1.4 1.5-2.3.4v3.3l-.6.7-1.3-.1-1.1-1.1-1.9-1-.3-1.5-1.4-.6-1.6.4-.8-1.2.3-1.3-1.7.8.6 1.6-.8 1.4-1.8 1.5-1.8-.2 1.3 1.7.8 2.6.7.8.2 1.3-.4.8-2.6-.7-4 2.3-1.3.3-2.2 2.1-2.1 1.8-.5 1.3-2-2-3.7 2.2-.6-1-1.4 1.2-1.9-.4-.5 1.8-1.7 2.6.1 1.1 1.6.6-.2 3.8-1.3.1-.6 2.1.6 1.1-2.5 1.2-.5 2.7-2.1.6-.4 2.4-2 2.1-.5-1.6-.6-3.4-.8-5.4.7-3.5 1.2-1.6.1-1.2 2.2-.6 2.5-3.4 2.4-2.9 2.5-2.3 1.1-4.2-1.7.3-.9 2.5-3.6 3.2-1.2-3.6-3.7 1-3.5 4.8 1.2 1.7-3.2.7-2.2.3.1-2-2.2-.4-1.8 1.4-4.3-.5-4.7.8-4.6 5.2-5.4 5.9 2.2.3.7 1.5 1.4.5.9-1.2 1.6.2 2 2.6v2l-1.1 2.3-.1 2.7-.6 3.5-2.1 3-.5 1.4-1.9 2.4-1.9 2.3-.9 1.2-1.9 1.1h-.9l-.9-.9-1.9 1.4-.2.6-.2-.3v-1l.7-.1.2-2.3-.4-1.7 1.2-.7 1.7.4 1-2 .5-2.3.5-.8.7-1.9-2.3.6-1.2.8h-2.2l-.6-2-1.7-1.5-2.5-.7-.5-2.2-.5-1.4-.5-1-.9-2.3-1.2-.9-2.1-.7-1.9.1-1.8.4-1.2 1.2.8.6v1.3l-.8.7-1.3 2.4v1l-2 1.4-1.7-.8-1.7.2-.7-.7-.8-.2-2.1 1.5-1.9.4-.9.7-1.8-.4h-1.3l-.9-1.1-1.4-1.1-1.4-.3-1.8.3-1.3.4-2-.9-.3-1.7-1.7-.6-1.3-.3-1.6-.9-1.5 2.4.6 1.3-1.4 1.5-2-.6-1.4-.1-.9-1h-1.5l-1.2-.7-2.2 1-2.7 1.9-1.5.4-.6.2-.8-1.3-1.8.3-.6-.9-1-.4-.7-1.3-.8-.4-2 .6-1.9-1.3-.8 1.2-3.2-5.8-1.8-1.8.5-.8-3.5 2.3-1.4.1.1-1.3-1.8-.8-1.5.6-.4-2.5-2.5-.5-1.3 1-3.5.9-.7.6-5.3.8-.6.8 1 1.6-1.4.6.3.6-1.4 1.1 2.3 1.6-.4 1.1-2-.1-.4.7-1.8-1.2h-2.2l-1.5.9-1.7-.9-3.1-1.6-2.2.1-2.9 2.4-.2 1.6-1.5-1.3-1.1 2.4.4.4-.8 1.6 1.2 1.4 1.1-.1.9 1.4-.1 1.1.7.3-.6 1.2-1.4.3-1.4 2.1 1.3 1.9-.1 1.3 1.5 2.2-.8.8-.2.5-.6-.1-1-1.1-.4-.1-.9-.4-.4-.8-1.3-.4-.9.3-.2-.4-1.9-.9-2.1-.3-1.2-.3-.2.2-1.8-1.7-1.6-.7-1.2-1.2 1-.3 1.2-1.7-.8-.8 2.1-.8v-.5l-1.3.3v-.9l.7-.6 1.4-.2.2-.7-.3-1.2.6-1.1v-.6l-2.1-.7h-.8l-.9-1-1.1.3-1.8-.8v-.4l-.5-1-1.1-.1-.1-.7.4-.5-.9-1.3-1.5.2-.4-.1-.4.5-.5-.1-.3-1.5-.3-.8.3-.2 1.1.1.6-.5-.4-.6-1-.4.1-.4-.6-.4-.9-1.6.3-.7-.1-1.2-1.4-.6-.7.3-.2-.6-1.5-.6-.5-1.5-.1-1.3-.7-.6.6-.8-.4-2.5 1-1.6-.2-.5 1.6-1.6-1.5-1.4 3-3.7 1.3-1.7.5-1.6-2.1-2.1.6-2.1-1.3-2.4 1-2.9-1.6-4 1.3-2.8-2.2-2.5.2-2.7 1.1-.4 2.4-1.6 1.5-1.4 2.3 2.5 3.9.9 5.3 4.4 1.1 1.8.1 2.4-1.6 1.9-2.3.9-6.3-2.7-1 .5 2.3 2.6.1 1.6.1 3.4 1.8 1 1.1.8.2-1.6-.9-1.4.9-1.3 3.4 2.1 1.2-.8-1-2.5 3.3-3.4 1.3.2 1.3 1.2.8-2.4-1.2-2.2.7-2.2-1-2.4 4 1.2.8 2.1-1.8.5v2l1.1 1.2 2.2-.8.3-2.3 3-1.8 4.9-3.3 1.1.2-1.4 2.3 1.8.4 1-1.3 2.7-.1 2.1-1.6 1.6 2.3 1.6-2.6-1.5-2.3.7-1.3 4.2 1.2 2 1.3 5.1 4.4.9-2-1.4-2.1v-.8l-1.7-.4.5-1.9-.8-3.3v-1.4l2.6-4 .9-4.2 1.1-.9 3.7 1.3.3 2.6-1.3 3.7.9 1.4.5 3-.3 5.6 1.6 2.4-.6 2.5-2.8 5.1 1.6.5.6-1.3 1.6-.9.4-1.8 1.2-1.8-.8-2.2.7-2.6-1.5-.3-.3-2.2 1.1-4.2-1.8-3.5 2.5-3-.3-3.3.7-.1.7 2.6-.6 4.4 1.5.8-.6-3.2 2.4-1.8 2.9-.2 2.6 2.6-1.3-3.8-.1-5.2 2.5-1 3.4.2 3.1-.7-1.1-2.7 1.6-3.5 1.6-.2 2.8-2.8 3.7-.8.5-1.6 3.7-.5 1.2 1.3 3.2-3.1 2.6.1.4-2.6 1.4-2.7 3.3-2.7 2.4 2.1-1.9 1.6 3.2 1 .4 3 1.3-1.5 4.1.1 3.2 2.9 1.1 2.2-.4 3-1.6 1.6-3.7 3-1.1 1.6 1.8.7 2.1 1.3 1.3-1 .7 3.2.6-1.3 2.3-.8 4.5.8.3 2.3 5.9.7.1-3.8 3 .9h2.3l2.3 2.6.7 3-.8 1.9 1.8 3.5 2.2 1.8 1.4-4.6 2.3 2 2.4-1.2 2.7 1.4 1-1.2 2.3.6-1-4.2 1.9-2.1 12.8 3.1 1.2 2.7 3.7 3.4 5.7-.8 2.8.7 1.2 1.8-.2 3 1.7 1.2 1.9-.8 2.5-.1 2.7.8 2.7-.4 2.5 3.5 1.8-1.3-1.1-2.6.6-1.8 4.5 1.2 2.9-.2 4.1 1.9 2 1.7 3.5 3 3.7 3.7-.1 2.2 1 .9-.3-2.6 3.8.5zm-64.3 45.7-1.4-3.9-.6-2.3v-2.3l-.5-2.3-.4-1.6-.6.3.6 1.1-1.3 1.1-.1 3.2.8 2.2-.1 3-.3 1.6.2 2.3-.2 2 .3 1.7.9-1.6 1.1 1.2v-1.4l-1.4-2.1.9-3.1zM273 151.4l-1.5-.4-2 .8-.3 1.1 1.7.3h2.6l-.1-.6.2-.7zm223.2-50.5 1.8-.3 1.5-1 .1-.6-2-1.3h-1.2l-.2.2-1.8 1.8.3 1.4zm-55.5-13.7-1.3 2 .2.3 2.9.5h2.1l-.2-1.3-2-1.9zm12.4-4.8 1.6-2.1-3.6-1.5-2.6-.8-.3 1.8 2.6 2.2zm-12.7-.8 5.2.1 1.1-4.1-5.1-3.1-3.7-.3-1.9 1.1-.8 3.9 2.8 3.5zM315.7 94.7l-1.4 1 .2 2.4 2.6 1.2.4 1.9 4.6.6.8-.4-2.7-3.6-.3-3.8 2.2-4.6 2.1-5 4.4-5.1 4.3-2.7 5-2.9 1-1.9-1-2.4-2.8.8-2.4 2.3-4.7 1.1-4.7 3.7-3.2 3 .4 2.5-3.4 4.6 1.3.6-2.8 4.2zm74.4-34.3.4-2.9-3.6-4.2-1.1-.5-1.2.9-2.6 9.4zm-82.9-14.8 1.5 2 1.7-1.4.2-1.4 1.3-.6 1.9-1.1.5-1.3-2.1-1.9-1.3 1.5-.8 2.1-.3-2.3-2.2.1-2.8 1.6 3.1.3zm66.3 6.6 2.3 2.9 3.9 2.1 3.1-.9.3-6.9-3.3-8.1-2.7-4.6-3.1 2.1-3.7 6 1.9 1.7z"/><path id="RW" d="m284.5 246.2.6.8-.1.8-.4.2-.8-.1-.4.8-.9-.1.1-.8.2-.1.1-.8.4-.4.3.1z"/><path id="SA" d="m302 221.3-.2-.6-.4-.4-.1-.6-.7-.5-.8-1.2-.4-1.2-1-1-.6-.2-.9-1.4-.2-1.1.1-.9-.8-1.7-.7-.6-.8-.3-.5-.9.1-.4-.4-.8-.4-.3-.6-1.2-.9-1.3-.7-1.1h-.7l.2-.9.1-.6.2-.6 1.6.3.6-.5.3-.6 1.1-.2.2-.5.5-.3-1.4-1.6 2.8-.8.3-.3 1.7.5 2.1 1.2 4 3.3 2.6.1 1.3.2.4.8h1l.6 1.4.7.4.2.6 1 .7.1.6-.1.5.2.5.4.4.2.5.2.4.4.3.4-.1.3.6.1.4.5 1.6 4.3.8.3-.3.6 1.1-.9 3-4.2 1.5-4.1.6-1.3.7-1 1.6-.7.2-.4-.5-.8-.6-1.4-.1-.3-.1h-1.6l-.4.1-.6-.4-.4.7.1.6z"/><path id="SB" d="m470.9 259.4.4.5h-1l-.5-.9.8.3zm-1.8-.8h-.6l-.9-.1-.3-.2.1-.6.9.2.5.3zm1.1-.4-.2.3-1-1.2-.3-.8h.5l.5 1.1zm-2.5-1.8.1.3-1.1-.6-.8-.5-.5-.5.2-.1.7.3 1.2.7zm-3.3-1.4-.3.1-.6-.3-.6-.6.1-.2.8.6z"/><path id="SD" d="M289.5 231.2h-.2v-.7l-.2-.5-.7-.6-.2-1 .2-1.1-.7-.1-.1.3-.8.1.3.4.1.9-.8.8-.7 1-.7.1-1.2-.8-.5.3-.1.4-.7.3v.3H281l-.2-.3h-1l-.5.2-.4-.1-.7-.8-.2-.4-1 .2-.4.7-.4 1.3-.5.3-.4.2-.1-.1-.5-.4-.1-.4.2-.6v-.6l-.8-.9-.2-.6v-.3l-.5-.4v-.8l-.3-.6-.5.1.1-.5.4-.6-.2-.6.5-.4-.3-.3.4-.9.6-1.1 1.2.1-.1-5.9v-.6h1.6v-3h16.8l.5 1.5-.3.3.2 1.5.5 1.8.5.4.8.5-.7.8-1 .2-.4.5-.1 1-.6 2.1.2.6-.2 1.2-.6 1.4-.9.7-.6 1.1-.1.6-.7.4-.4 1.5z"/><path id="SE" d="m272.8 120.5-1.4 2.4.2 2-2.3 2.6-2.7 2.7-1 4.2 1 2.1 1.4 1.6-1.3 3.1-1.5.6-.5 4.5-.8 2.4-1.7-.2-.8 2-1.6.1-.4-2.4-1.2-2.9-1.1-3.8.6-1.6 1.2-1.9.5-3.4-.9-1.5-.1-4.1.9-3 1.4.1.5-1.3-.5-1.1 2.2-4.8 1.4-4 .9-2.6h1.4l.4-2.1 2.7.6.2-2.6.9-.2 1.9 1.9 2.2 2.6v5.6l.5 1.4z"/><path id="SI" d="m261 170.5 1.2.2.7-.5 1.2-.1.3-.3h.2l.3.7-1.1.5-.1.8-.5.2v.6h-.6l-.5-.3-.3.3-1-.1.3-.2-.3-.9z"/><path id="SJ" d="m276.4 63.5-3.2 2.7-2.5-1.5 1-1.7-.9-2.2 2.9-1.4.6 2.6zM267.3 50l4.7 5.7-3.6 2.9-.8 5.1-1.2 1.3-.7 5.3-1.7.2-3-3.9 1.3-2.3-2.1-1.9-2.8-6-1.1-5.9 3.9-2.9.8 2.8 2-.1.5-2.7 2.1-.3zm10.1-5.8 2.8 2.9-2.1 4.3-4.1.9-4.2-1.3-.3-2.2-2-.1L266 45l4.4-2.4 2.1 2.1 1.4-2.6z"/><path id="SK" d="m268.1 164.2.1.1.6-.3.7.8.8-.5.7.2 1-.3 1.3.8-.4.6-.3.9-.3.2-1.5-.6-.5.1-.3.5-.7.3-.2-.1-.7.3-.6.1-.1.4-1.2.3-.5-.2-.7-.5-.1-.7.1-.3.2-.5h.6l.5-.2v-.2l.3-.1.1-.5.3-.1.2-.4z"/><path id="SL" d="m225.2 235-.4-.1-1-.6-.7-.8-.2-.5-.2-1.1.8-.6.2-.4.2-.3h.4l.3-.3h1.1l.4.5.3.6v.4l.2.4v.5l.4-.1-.7.7-.6.8-.1.4z"/><path id="SN" d="m217.8 225.3-.6-1.1-.7-.5.6-.3.7-1 .3-.8.5-.5.7.1.7-.3h.8l.7.4.9.4.9 1.1.9 1 .1.9.3.8.5.4.1.6-.1.4-.2.1-.8-.1-.1.2h-.3l-1-.4h-.7l-2.6-.1-.4.2h-.5l-.7.2-.2-1.1h1.3l.3-.2h.3l.5-.3.6.3h.6l.6-.3-.3-.4-.5.2h-.4l-.6-.4h-.4l-.3.3z"/><path id="SO" d="M313.8 228v-.4h-.5l-.7.5-.8.1-.7.2h-1.3l-.5.3-.7.1-1.2.4-1.5.2-1.3.4h-.7l-.6-.6-.3-.6-.5-.3-.5.8-.3.5.5.8.5.7.5.5 4.6 1.7h1.2l-4 4.2-1.8.1-1.3 1h-.9l-.4.4-1.2 1.6v5.1l.8 1.2.3-.3.3-.7 1.5-1.7 1.3-1.1 2.1-1.4 1.4-1.1 1.7-1.9 1.2-1.6 1.2-2.1.9-1.8.7-1.6.4-1.5.3-.5v-.8z"/><path id="SR" d="m160.5 236.2 1.7.3.2-.3 1.1-.1 1.5.4-.7 1.2.1 1 .6.8-.2.6-.1.6-.4.6-.8-.3-.7.1-.6-.1-.1.4.2.3-.1.3-.8-.1-.9-1.2-.2-.8h-.5l-.6-1 .3-.7-.1-.3.9-.4z"/><path id="SS" d="M289.5 231.2v1.1l-.2.4h-.8l-.5.8.9.1.7.7.2.6.6.3.8 1.5-1 .9-.9.8-.9.6h-1l-1.1.3-.9-.3-.6.4-1.2-.9-.3-.6-.8.3-.7-.1-.4.2-.6-.2-.9-1.2-.2-.4-1.1-.6-.4-.8-.6-.6-1-.7v-.5l-.8-.6-1-.6.4-.2.5-.3.4-1.3.4-.7 1-.2.2.4.7.8.4.1.5-.2h1l.2.3h1.4v-.3l.7-.3.1-.4.5-.3 1.2.8.7-.1.7-1 .8-.8-.1-.9-.3-.4.8-.1.1-.3.7.1-.2 1.1.2 1 .7.6.2.5v.7z"/><path id="SV" d="m117.2 225.6-.2.4h-.8l-.5-.1-.6-.3-.8-.1-.4-.3v-.2l.5-.4.3-.2-.1-.2.3-.1.4.1.3.3.4.2.1.2.6-.2.3.1.2.2z"/><path id="SY" d="m296.3 194.7-2.8 1.8-1.6-.7.2-.3v-.7l.3-.9.8-.6-.2-.7-.6-.1-.1-1.3.3-.7.4-.4.4-.4.1-1 .5.3 1.6-.5.8.3h1.2l1.6-.7h.8l1.6-.3-.7 1.1-.8.4.1 1.3-.5 2.1z"/><path id="SZ" d="m286.8 283.7-.3.7-.8.2-.8-.9v-.5l.4-.6.1-.5.4-.1.7.3.2.7z"/><path id="TD" d="m261.9 226.4.1-.7h-.9v-.9l-.6-.5.6-1.9 1.8-1.4.1-1.9.5-3 .3-.6-.6-.5v-.5l-.5-.4-.3-2.4 1.4-.8 5.6 2.9 5.6 2.9.1 5.9-1.2-.1-.6 1.1-.4.9.3.3-.5.4.2.6-.4.6-.1.5.5-.1.3.6v.8l.5.4v.3l-.9.2-.7.6-1 1.6-1.3.7-1.4-.1-.4.1.1.5-.7.5-.6.6-1.8.5-.4-.3h-.2l-.3.4-1.2.1.2-.4-.4-1-.2-.6-.5-.3-.8-.8.3-.7.6.1.4-.1h.8l-.8-1.3.1-1-.1-1z"/><path id="TF" d="m339 323.2.9.7 1.3.3v.4l-.4 1-2.2.1v-1.2l.2-.9z"/><path id="TG" d="m244.1 236-1.1.3-.3-.5-.4-.9-.1-.7.3-1.3-.4-.5-.1-1.1v-1l-.6-.7.1-.4h1.2l-.2.8.4.4.5.5.1.7.3.3-.1 3.3z"/><path id="TH" d="m386.6 227.3-1.3-.7h-1.2l.2-1.1h-1.2l-.1 1.6-.8 2.1-.5 1.3.1 1h.9l.6 1.3.3 1.2.8.8.9.2.7.7-.5.6-.9.2-.1-.7-1.2-.6-.2.3-.6-.5-.2-.7-.8-.8-.7-.7-.2.8-.3-.8.2-.9.4-1.4.7-1.5.8-1.3-.6-1.3v-.7l-.2-.8-.9-1.2-.3-.7.5-.3.5-1.3-.6-1-.9-1.1-.7-1.3.6-.3.6-1.6 1-.1.8-.6.8-.3.6.5.1.9 1 .1-.3 1.6v1.3l1.5-.9.4.3h.8l.3-.5 1.1.1 1.1 1.2.1 1.5 1.1 1.3-.1 1.2-.5.7-1.3-.2-1.8.3-.9 1.2z"/><path id="TJ" d="m341.9 182.6-.5.6-1.5-.3-.1 1.1 1.5-.1 1.7.6 2.7-.3.4 1.7.5-.2.9.4v.7l.2 1h-1.5l-1-.1-.9.8-.6.2-.5.4-.6-.6.1-1.5-.4-.1.2-.5-.8-.4-.6.6-.1.7-.2.3h-.8l-.5.8-.5-.3-1 .6-.4-.2.8-1.8-.3-1.3-1-.4.4-.8 1.2.1.7-1 .5-1.2 1.9-.4-.3.9.2.5z"/><path id="TL" d="m418.3 257.2.2-.3 1.2-.3h1l.4-.2.5.2-.5.4-1.5.6-1.2.4v-.4z"/><path id="TM" d="m328 190.9-.1-1.5-1.1-.1-1.6-1.6-1.1-.2-1.6-.9-1-.2-.6.3-.9-.1-1 1-1.2.3-.3-1.3.2-1.9-1.1-.6.4-1.3-1 .2.3-1.6 1.3.5 1.2-.6-1-1.1-.4-1.1-1.1.5-.1 1.4-.4-1.2.6-.6 1.6-.4 1 .5 1 1.5.7-.1h1.6l-.2-.9 1.2-.7 1.2-1.1 1.9 1 .2 1.5.5.4 1.5-.1.5.3.7 1.9 1.6 1.3.9.9 1.5.9 1.9.8v1.1l-.4-.1-.7-.5-.2.6-1.2.3-.3 1.4-.8.5-1.1.3-.3.8-1.1.2z"/><path id="TN" d="m254.8 199.8-.6-3-.9-.7v-.4l-1.2-1-.1-1.3.9-1 .3-1.4-.2-1.7.3-.9 1.5-.7 1 .2v.9l1.2-.6.1.3-.7.9v.8l.5.4-.2 1.5-.9.9.3.9h.7l.4.8.5.3-.1 1.3-.7.5-.4.5-1 .6.2.7-.1.7z"/><path id="TR" d="m293.7 180.6 2 .7 1.6-.3 1.2.2 1.7-1 1.5-.1 1.4.9.2.7-.1.9 1.1.5.6.5-1 .5.4 2.1-.3.6.8 1.4-.7.3-.5-.5-1.6-.2-.6.3-1.6.3h-.8l-1.6.7h-1.2l-.8-.3-1.6.5-.5-.3-.1 1-.4.4-.4.4-.5-.8.5-.7-.9.1-1.2-.4-1 1-2.1.2-1.1-.9-1.5-.1-.3.7-1 .2-1.4-.9h-1.5l-.8-1.8-1-1 .7-1.4-.9-.9 1.6-1.8 2.2-.1.6-1.4 2.7.2 1.7-1.2 1.6-.5h2.3zm-13.8 1.2-1.2 1-.4-.9v-.4l.3-.2.4-1.2-.7-.5 1.4-.6 1.2.3.2.7 1.2.6-.3.5-1.7.1z"/><path id="TT" d="m154.1 229.4.8-.2h.3l-.1 1.1-1.2.2-.3-.1.4-.4z"/><path id="TW" d="m413.8 209.2-.9 2.5-.6 1.2-.7-1.3-.2-1.1.8-1.5 1.1-1.2.6.5z"/><path id="TZ" d="m289.4 245.9.2.2 5.1 2.9.1.8 2 1.4-.7 1.7.1.8.9.5v.4l-.4.9.1.4-.1.7.5.9.6 1.4.5.3-1.1.8-1.5.6h-.8l-.5.4h-1l-.4.2-1.7-.4-1.1.1-.4-1.9-.5-.7-.3-.4-1.4-.3-.8-.4-.9-.2-.6-.2-.6-.4-.8-1.8-.8-.8-.3-.8.1-.7-.3-1.3.6-.1.5-.5.6-.7.3-.3v-.5l-.3-.3-.1-.6.4-.2.1-.8-.6-.8.5-.2h1.6z"/><path id="UA" d="m286.4 158.4.5.1.4-.5.4.1 1.5-.2.9 1.3-.4.5.1.7 1.1.1.5 1v.4l1.8.8 1.1-.3.9 1h.8l2.1.7v.6l-.6 1.1.3 1.2-.2.7-1.4.2-.7.6v.9l-1.1.2-.9.7-1.3.1-1.2.8-.7.5.8.7.7.5 1.4-.1-.3.7-1.5.3-1.9 1.1-.8-.4.3-.9-1.5-.6.2-.4 1.6-.8-.2-.4-.2.2-.2-.1-2.2-.5-.1-.8-1.3.3-.5 1.1-1.1 1.5-.6-.3-.7.3-.6-.4.4-.2.2-.7.4-.6-.1-.4.3-.2.1.3.8.1.4-.2-.3-.2.1-.3-.5-.5-.2-.9-.5-.3.1-.7-.6-.6-.6-.1-1-.7-.9.2-.3.3h-.6l-.4.5-1 .2-.5.3-.7-.5h-.9l-.9-.2-.6.5-.1-.6-.8-.6.3-.9.4-.6.3.1-.4-1 1.3-1.8.7-.3.2-.6-.7-2 .7-.1.8-.6 1.1-.1 1.4.2 1.6.5h1.1l.5.3.5-.4.4.5 1.3-.1.6.2.1-1.1.4-.5z"/><path id="UG" d="M286.5 246.1h-1.6l-.5.2-.8.4-.3-.1v-1.1l.3-.5.1-1.1.3-.7.5-.7.5-.4.5-.5-.6-.2.1-1.6.6-.4.9.3 1.1-.3h1l.9-.6.7 1 .2.7.6 1.6-.5 1-.7.9-.4.6v1.5z"/><path id="US" d="m56.7 151.9-.8-.9-1.2-.8-.4-2.2-1.8-2.1-.8-2.5-1.4-.2-2.3-.1-1.7-.8-2.9-2.8-1.4-.5-2.5-1-2 .2-2.8-1.3-1.7-1.2-1.6.6.3 2-.8.2-1.6.6-1.2.9-1.6.6-.2-1.6.6-2.8 1.5-.9-.4-.7-1.8 1.6-1 1.9-2 2 1 1.3-1.3 1.9-1.5 1.1-1.4.8-.4 1.2-2.2 1.3-.4 1.2-1.7 1.1-1-.2-1.3.7-1.4.8-1.2.8-2.4.7v-.3l1.5-1.1 1.4-.8 1.5-1.4 1.8-.3.7-1 2-1.5.3-.5 1-.9.2-2 .7-1.6-1.6.8-.5-.5-.8 1-.9-1.4-.4 1-.5-1.4L13 142h-.9l-.1-1.6.3-1-.9-1-1.8.5-1.2-1.3-1-.7v-1.6L6.3 134l.5-1.7 1.2-1.7.5-1.6 1.1-.2 1 .5 1.1-1.5 1 .3 1.1-1-.3-1.5-.8-.6 1-1.3h-.9l-1.5.7-.4.7-1.1-.7-2 .4-1.9-.8-.6-1.3-1.8-2 2-1.4 3.2-1.7h1.2l-.2 1.8 3-.1-1.1-2.2-1.7-1.4-1-1.8-1.4-1.6-1.9-1.2.8-2 2.5-.1 1.8-1.8.3-2 1.4-2 1.4-.5 2.7-1.9 1.3.3 2.2-2.3 2.1.9 1 2 .6-.8 2.4.3-.1 1 2.2.7 1.4-.4 3 1.3 2.7.4 1.1.5 1.9-.7 2.1 1.2 1.5.6v31.9l1.4.1 1.4.8 1 1.2 1.3 1.8 1.4-1.5 1.4-.9.8 1.4 1 1.1 1.3 1.2.9 1.9 1.4 3 2.4 1.6v1.6zm88.8 17.4-.6-.6-.9.4-.5-.5-1.1 1.6-.4 1.6-.5.9-.6.3-.5.1-.1.5h-4.8l-.6.4-1.4 1.4.1.3.1.8-1.1.6-1.2-.2-1.1-.1-.7.2.1.6v.2l-1.2 1.1-1.1.5-.7.3-.8.5-1 .3-.7-.1-.9-.4.5-.7.3-.7.7-1.1-.1-.8-.3-1.1-.5-.2-.9.9h-.3l-.1-.5.8-.8.1-.9-.1-.9-1-.8-1.2-.4-.2.8-.3.2-.3 1-.1-.7-.6.5-.4.7-.4 1-.1.8.5 1.2v1.3l-.6.9-.3.3-.4.2h-.5l-.1-.1-.4-1V177l.3-1.1.3-1.4.7-1.5h-.2l-1 1.3-.2-.2.6-.7.8-1.3 1-.2 1.1-.4 1.1.2 1.2-.2-.7-.8-.4-.1-.4-.1-.2-.5-1.4.2-1.3.5-1-.8-.8-.3.5-1.1-1.2.7-1.1.7-1.1.5-.9-.7-1.4.4v-.3l1-.9 1-.8 1.4-.7-1.7-.5-1.1.3-1.4-.7-1.4-.3-1-.1-.4-.4-.3-1.2h-.5v.8h-39l.5 1.7.2 1.7-.3.5-.8-2-2-.7-.5.5.4 1 .4 1.8.3 2.7-.2 1.8-.2 1.8-.6 1.8.5 1.5v1.6l-.3 1.5.8 1 .2 1.5 1.1 1.5.6.6-.1.4 1.2 2.4 1.4 1.7.2.9.4.3 1.3.2.5.5.8.1.2.5.7.2.9 1 .2.9 1.6-.1 1.8-.2-.1.3 2.1.8 3.2 1.2h3.9v-.7h2.5l.5.6.7.5.8.7.5.9.4.9.7.5 1.2.5.9-1.3h1.2l1 .6.7 1.1.5.9.8.9.3 1.1.4.7 1.1.5 1 .3h.6l-.3-.5-.1-.8v-1.1l.3-.7.8-.8 1.4-.7 1.3-1.2 1.2-.4.9-.1 1 .4 1.2-.2 1.1.9 1 .1.5-.3.5.2.3-.2-.3-.3v-.7l-.3-.4.6-.3 1.1-.1 1.3.2 1.6-.2.9.4.7.8.3.1 1.4-.7.6.2 1.1 1.4.4.9-.3 1.1.2.6.7 1.2.8 1.4.5.4.2.7.7.2.4-.2.4-1 .1-.6v-1.1l-.7-1.8v-.7l-.6-1.1-.5-1.4-.3-1.1.2-1.2.7-1 .8-.8 1.6-1.1.2-.6.7-.6.7-.1.9-1 1.5-.5.9-1.3-.2-1.7-.1-.6-.4-.1-.1-1.7-1-.6.9.3-.3-1.1.3-.8.2 1.5.7.7-.4 1.2.1.1.8-1.4.5-.7v-.7l-.4-.3-.3-1 .5.5.3.1.1.5 1-1.4.3-1.3-.4-.1.4-.5v.2h.9l2-.6-.4-.4-2.1.4 1.2-.5.8-.1.6-.1 1-.3h.7l1-.3.1-.5-.4-.4.1.7h-.6l-.5-1v-1l.2-.4.7-1.2 1.5-.6 1.5-.7 1.5-1-.2-.7-.9-1.1zM24.6 143.9l-.8.4-1.3.9.2 1.2.7.7 1.4-1 1.2-1.2-.6-.8zm-23-14.4 1-.6.1-.3-1.1-.3zm4.2 7.7-1.4.5.9.8.9.5.9-.4-.1-1.1zM55 153.6l-1.4.2-.7-.3-.1.8.3 1 .7.7.5 1.1.9 1.1h.6l-1.2-1.9zm-34.7 60.9-.5-.1-.1.1v.1l.2.1.2.3.5-.1.1-.2zm-1.5-.3h.8v-.2l-.7-.1zm3 1.7-.3-.1-.5-.3h-.1l-.1.1.1.3-.2.2-.1.2.2.5v.4l.4.2.2-.2.5-.2.6-.3v-.1l-.4-.5zm-4-2.6-.4.2.1.1.2.3.5.1h.1l.1-.1-.4-.5zm-2.2-.8-.2.1-.1.1.5.3.2-.1v-.4z"/><path id="UY" d="m159.9 289.2.9-.2 1.4 1.3h.5l1.5 1.1 1.1.9.8 1.1-.6.8.4 1-.6 1.1-1.6 1-1-.3-.8.2-1.3-.7-1 .1-.9-.9.1-1.1.3-.4v-1.7l.4-1.7z"/><path id="UZ" d="M335.6 187.9v-1.1l-1.9-.8-1.5-.9-.9-.9-1.6-1.3-.7-1.9-.5-.3-1.5.1-.5-.4-.2-1.5-1.9-1-1.2 1.1-1.2.7.2.9h-1.6l-.1-7.1 3.6-1.2.3.2 2.2 1.4 1.2.7 1.4 1.8 1.7-.3 2.4-.2 1.7 1.4-.1 1.9h.7l.3 1.5 1.8.1.4.9h.5l.6-1.3 1.9-1.3.8-.4.4.2-1.2 1.2 1 .7 1-.5 1.7 1-1.8 1.3-1.1-.2h-.6l-.2-.5.3-.9-1.9.4-.5 1.2-.7 1-1.2-.1-.4.8 1 .4.3 1.3-.8 1.8-1.1-.4z"/><path id="VE" d="M140.5 227.9v.3l-.8.2.5.7v.7l-.6.8.5 1.1.6-.1.3-1-.4-.5-.1-1.1 1.8-.6-.2-.7.5-.5.5 1h1l.9.8.1.5h1.3l1.5-.1.8.6 1.1.2.8-.4v-.4l1.8-.1h1.7l-1.2.4.5.7 1.1.1 1.1.7.2 1.1h.7l.6.3-1.1.8-.1.5.5.5-.4.3-.9.2v.7l-.4.4 1 1.1.2.4-.5.5-1.6.5-1 .2-.4.3H151l-1-.2-.3.1.6.4-.1.9.2.9 1.2.1.1.3-1 .4-.2.6-.6.2-1.1.3-.3.4-1.1.1-.8-.7-.4-1.4-.2-.4-.5-.3.7-.7v-.3l-.4-.4-.3-.9.1-1 .3-.5.3-.8-.5-.2-.8.2-1-.1-.6.2-1-1.2-.8-.2-1.8.1-.3-.5-.3-.1v-.3l.2-.5-.1-.6-.3-.3-.2-.7-.7-.1.4-.8.2-1 .4-.5.5-.4.4-.7z"/><path id="VN" d="m394.3 213.6-1.9 1.3-1.2 1.4-.3 1 1.1 1.6 1.3 1.9 1.3.9.9 1.2.6 2.7-.2 2.5-1.2.9-1.6.9-1.2 1.2-1.8 1.3-.5-.9.4-1-1-.8 1.2-.6 1.5-.1-.6-.9 2.4-1.1.2-1.7-.3-1 .3-1.5-.4-1-1.1-1-.9-1.3-1.2-1.7-1.7-.9.4-.5.9-.4-.5-1.3h-1.7l-.6-1.4-.8-1.2.8-.4h1.1l1.4-.2 1.2-.8.7.6 1.3.3-.2.9.7.6z"/><path id="VU" d="m479 268.1-.5.2-.5-.6.1-.4zm-1.1-2.3.2 1.2-.4-.2-.3.1-.2-.4v-1.1z"/><path id="YE" d="m316.6 220.9-1 .4-.3.7v.5l-1.4.6-2.3.7-1.3 1-.6.1-.4-.1-.8.6-.9.3-1.2.1-.4.1-.3.4-.4.1-.2.4h-.7l-.5.2-1-.1-.4-.8v-.8l-.2-.4-.3-1.1-.4-.6.3-.1-.1-.7.2-.3-.1-.6.6-.5-.1-.6.4-.7.6.4.4-.1h1.6l.3.1 1.4.1.5-.1.4.5.7-.2 1-1.6 1.3-.7 4.1-.6 1.1 2.4z"/><path id="ZA" d="m286 287.7-.3.2-.6.8-.4.8-.8 1.2-1.6 1.7-1 1-1.1.8-1.5.7-.7.1-.2.5-.9-.3-.7.3-1.5-.3-.9.2-.6-.1-1.5.7-1.2.3-.9.6h-.6l-.6-.6h-.5l-.6-.8-.1.2-.2-.5v-1l-.5-1.1.5-.3v-1.3l-.9-1.5-.7-1.4-1-2.1.7-.8.6.4.2.7.6.1.9.3.8-.1 1.3-.8v-5.8l.4.2.8 1.5-.1 1 .3.6 1-.2.7-.7.7-.5.3-.7.7-.4.6.2.7.4 1.2.1.9-.4.1-.5.2-.7.8-.1.4-.6.5-1 1.3-1.1 2-1.1h.6l.7.3.5-.2.8.2.7 2.2.4 1.1-.3 1.7.1.6-.7-.3-.4.1-.1.5-.4.6v.5l.8.9.8-.2.3-.7h1.1l-.4 1.2-.2 1.3-.4.7zm-3.6-.5-.6-.5-.7.3-.8.6-.8 1 1.1 1.3.5-.2.3-.5.8-.3.2-.5.4-.8z"/><path id="ZM" d="m287.8 257.6.7.6.4 1.2-.2.4-.3 1.2.3 1.2-.4.5-.4 1.3.7.4-4.3 1.2.1 1-1.1.2-.8.6-.2.5-.5.1-1.2 1.2-.8 1h-.5l-.5-.2-1.6-.2-.3-.1v-.1l-.6-.3-.9-.1-1.2.3-.9-.9-1-1.2.1-4.6h2.9l-.1-.5.2-.5-.2-.7.2-.7-.1-.4h.5l.1.4h.7l.9.1.5.7 1.1.2.9-.5.3.8 1.1.2.5.6.6.8h1.1l-.1-1.6-.4.3-1-.6-.4-.3.2-1.4.3-1.7-.3-.6.4-.9.4-.2 1.9-.2.6.1.6.4.6.2.9.2z"/><path id="ZW" d="m285.6 276.7-.8-.2-.5.2-.7-.3h-.6l-.9-.7-1.1-.2-.4-1v-.5l-.6-.2-1.6-1.6-.4-.9-.3-.3-.5-1.2 1.6.2.5.2h.5l.8-1 1.2-1.2.5-.1.2-.5.8-.6 1.1-.2.1.5h1.2l.7.3.3.4.7.1.7.5v1.9l-.3 1-.1 1.1.2.4-.2.9-.2.1-.4 1.1z"/></g></svg>