<svg xmlns="http://www.w3.org/2000/svg" xmlns:amcharts="http://amcharts.com/ammap" id="Layer_1" viewBox="0 0 512 512"><g id="_x3C_defs"><amcharts:ammap bottomLatitude="-89" leftLongitude="-169.522" projection="mercator" rightLongitude="190.518" topLatitude="83.646"/></g><g><path id="AE" d="M303.9 165.7h.2v.3l.9-.2h1.7l.8-.9.9-.8.7-.8.2.4.2 1h-.6v.8l.2.2-.5.2v.5l-.3.5v.5l-.3.3-3.5-.6-.4-1.3v-.3Z"/><path id="AF" d="m315.1 150.5 1.2.5.9-.2.2-.6.9-.2.7-.4.2-1.2 1-.3.2-.5.6.4h.9l.9.3.4.2.8-.5.4.3.4-.7h.7l.2-.2v-.6c.1 0 .6-.5.6-.5l.6.3v.5h.2v1.2c-.1 0 .3.5.3.5l.4-.3h.5c0-.1.7-.8.7-.8h.8c0 .1 1.2.1 1.2.1l.2.4-.7.2-.6.3-1.3.2-1.2.3-.7.6.3.6v.7c.1 0-.4.6-.4.6v.5l-.3.5h-1.1l.5.9-.7.4-.5.8v.8l-.4.4h-.4c0-.1-.9 0-.9 0v.4h-1l-.6.8v1.1l-1.6.6h-.8c0-.1-.2.2-.2.2l-.7-.2-1.2.2-1.9-.7 1.1-1.2v-.9l-1-.2v-.9l-.5-1.1.5-.8-.5-.2.3-1 .5-1.8Z"/><path id="AL" d="M267.9 141.3v.5c-.1 0 0 .7 0 .7l.5.4v.4l-.4.2v.5l-.6.7h-.2v-.4l-.6-.5v-1.7l.2-.5-.2-.2v-.5l.4-.8v.3l.4-.1.2.4.3.2v.6Z"/><path id="AM" d="m294.6 142.4 1.6-.2.2.4.4.3-.2.4.6.5-.3.5.5.4.5.2v1h-.4l-.5-.9v-.2h-.5l-.3-.4h-.2l-.5-.4-.9-.4v-.7c.1 0 0-.5 0-.5"/><path id="AO" d="m263 201.3.3.9.3.7.3.4.4.6h.8l.4-.3.6.2.2-.3.3-.7h.7v-.2h.6v.4h1.4v.7l.2.5-.2.7v.7l.5.4v1.4l.2-.1h.5l.7-.1h.5l.1.4v.6c-.1 0 0 .6 0 .6l-.2.4v.4h-2.3v3.8l.7 1 .8.8-2.1.5-2.8-.2-.8-.6h-4.7l-.2.1-.7-.5h-.8l-.7.2-.6.2v-.8c-.1 0 0-1.1 0-1.1l.4-1.1v-.5l.4-1.1.3-.5.7-.8.4-.5v-.9c.1 0 0-.7 0-.7l-.3-.4-.3-.7-.3-.7v-.2l.4-.5-.4-1.1-.2-.8-.6-.7v-.2c.1 0 .6-.2.6-.2h.3l.4-.1h3.4Zm-4.5-.2h-.3c0 .1-.3-.7-.3-.7l.5-.5.4-.2.4.4-.4.2-.2.3v.5Z"/><path id="AQ" d="m126 317.7-.6-1.6.7-.7 1.5.5 1.7.3 1.3.5 1.3-.4.7 2.2-.9-.3h-1.4c0 .1-1.4 0-1.4 0l-1.6.2-1.2-.8Zm-21.4 7.2 1.1-1.1.7-1.5-1.4.7-1.5-.6-1.4-.7-.2 1.4 1.2 1.5 1.6.3Zm64.7 37.5 2.6-.4 2.4 1 .3-3.3.3-3.5-1.2-2.7-.6 2.3-.9 2.8-2.5-.7-2.6-.3.6 2v.3l1.5 2.4Zm16.2.8 2.4-1.4 2.2-1.7 1.9-1.8 1.8-2.1v-3.3l-.2-2.7-.5-3.6-1.4-2.5-1.7-1.2-1.7 1.2h-.6l-.7 2.3-.7 2.1-.5 2.3-.7 2.7-1 2.2-2.5 1.8-.2 2.9 1.5 2.4 2.7.4ZM158 317.9l1.3-.5 1.4-.5-.6 1.5h1.5l1.3-.7 1.4-.5.3-1.4.2-1.4v-1.6c-.1 0-.5-1.6-.5-1.6l-.4-1.5-.5-1.5-.3-1.2-.6-1.2-1.1.5-.7 1.5v4l-.3 1.8h-1.3c0-.1-.8.3-.8.3l-1.3 1.4v1.5zm-58.5 5.9.7.2-1.8-1.6-1.2-1-.8.9 1.6 1.1zm365 65-3.4 1.9-.3.6-1.5 4.9-1.7-4.9h-.1l-.2-.2-1.2 3.7v.4c-.1 0-2.2-3.7-2.2-3.7l-1 7c0-.1-2-3.1-2-3.1l-2.7-3.7-3.2 3-.9-3.4-.2-.9-3.3-2.4-.6-5.1-2.7-3.1-1.7-2.9-1.6-2.8-1.4-2.9-1-3.1-.6-3.2-1.5-2.5.6-2.7.5-2.6.2-3.1 1-3.6 2.2-.2 1.8-1.3 2.1-.9-.5-2.5-2.2-.8-.5-2-.2-2-.7-2.1v-4.1l.3-1.8.5-1.9.8-1.4.8-1.7.5-1.7 1.5-.9.7-1.5 1.5-.6.5-1.7.4-1.4.5-1.8.6-1.3v-1.5c.1 0-.7-1.1-.7-1.1l-1.2-.7-1.2-.8-1.3-.5-1.4-.3h-1.4l-1.2-.1h-1.3l-1.3-.5-.9-1.2-1.3-.8-.6-1.3-1.3-.4-1.4-.3-1-.8-.9-1-1-.9-.7 1.1H421l-1.2-.6-1.6-.5-1.5-.6-1.3-.8-1.2-.7-.7-.9.2-1.1-.8-.9-1.3-.2h-1.5c0-.1-1.1 0-1.1 0h-1.5l-1 .2H405l-1.3.2-1-.5-.5-1-.4-1.2-.2-1.3-.7-.8v1.2l-.4 1.4-1 .2-1.1.3h-2.5c0 .1-1.2.6-1.2.6l-1 .5-1.1-.3-1-.3h-1l-1.1.5-1.2-.3-1-.4-1 .2-.8.9-.9.9-1.2.2-1.5-.3-1.4-.8-.8-.7h-1.3c0 .1-.8-.8-.8-.8l-.6-.9-.9-.6-.9.6h-1.3c0 .1-.8 1-.8 1l-1 .8-1.2.4-1.2.3h-2.2l-1.5-1.8-.8-1-.9-.8-.7-.4-1.5 2.1-.8.8-.6 1-.8 1-1.2-.4-1.1.4h-1.2l-1 .4-.9-.6-1-.2-.7.3h-1.1l-1.2-.3-1.1.4-1.1-.2-1-.6-.5-1.4-.4-.8-.6 1.9-.8.8-1.3-.2-1.1.4-1 .3-1.2-.3-.8.5-.7.5-.6 1-1 .6-1.1.8-.8 1.2-.3 1.2-.6 1.3-1.2.5-1.2.4h-1.3c0 .1-.7.5-.7.5l-.6 1.7-.3 1.2-.7 1-.6 1.1-.4 1.4-.6 1.5-1.3.7-1.3-.4-.9-1.2.5-1.5.6-1.3.2-1.4h-1.3l-.2-1.3.9-1.3 1.1-.9v-1.5c.1 0 .2-.8.2-.8l-1-3.3h-1.2l-1.1-.2-1.1-.4-1.1-.4-1.1-.7-1 1.3-.9.6-1.1-.2-1-.8-.8-.8-1.4-.4-.7-.8-1-1v-1.2c-.1 0-1-.8-1-.8l-1.1-.3-1-.2-1.1.2-1.2.4-1 .6-1 .8-.2 1-1 .7h-1.1l-.7.8-1 1.1-1.1-.4-.9.7-1 .7-.9.7-1.4.6-1.1.4-1.2 1.1-1 .6-.4 1.4-1.2.8-.9-.8-.8-1.2-1.2.3-1-.8-.5-1.1-1.2-.5-.7 1.1-.6 1.8-.9.9-1.2.3-1.1.6-1 .9-1.2.4-1.2.5h-4c0 .1-1.3.8-1.3.8l-.7-1-.5-1.1-1.2-.2-1.3-.4h-2.6l-1.2.4-1 1.3-.5-1.3-1.5-.2-1.2.9-.5 1.4-1.3.7-.7-1.2-.8-1.6-1.2.5-.9-.9-.7 1.2-1 .7-1.3.5-1.2.8-1.3.5-1.3.5-1.2.6-1.3 1.2-.5-1.5-1.3-.2-1.5.4-1.5.6-1.4-.2-.3-1.3-1.2-.3-.6 1.4v1.4l-1.4-.1-.6-1.2-1.4-.2-.8 1-.6 1.7-.9 1.5-1.2 1.2-1.3.9-1.2.8-.8 1.3-.4 1.7 1.2 1-.3 1.7-1.1 1.3-1 1.5-1.6 1.4-1.3 1.1-1.4 1.1-1.4.9-1.7.7-1.8.2-.8.4-1.6.7-1.6.9-1 2-1.4 1.5-1.4 1.6-2 1.3-1.7 1.3-.5 1.2-.2 4.4.3 2.3h2.3l2.4-1 2.3-.2v2.4l.5 2.3.8 2.4-1.8 1.8-2.6 1.3-2.4 1-2.2 1.6-2.3 1.6H197c0 .1-1.6 2.5-1.6 2.5l-.7 3.5-2.3-2-2.8-1.1-2.9.2-2.1 2.3-2.4 2.2-2 2.8-1.9 2.7-1.4 3.4-.6-3.6-1.1-4.2-2.2-2.9-2-2.4-2.8-2.2-2.9-1.2-2.1-2.4-1.7-2.3-2.1-1.9-2.5-1.1-1.5-2.5-.2-2.4-1.4-2.1v-2.4l.1-2.4 1.7-1.5 2 .6 1.3-1.8-.7-1.9-1.3-1.5-1.8-.9-.4-2h2l1.8-.4 2 .2 1.9-.2.9-2 1.6-1 1.5-1 1.5-.7 1.7-1.7.7-1.5.5-1.6 1.5-.6.7-1.4.6-1.7.2-2.2-.4-1.6v-1.5l-.4-1.4-.2-3.4-.3-1.3-.5-1.2-.3-1.3-.2-1.2-.5-1.3-.9-1-1-.8-.6-1-.4-1.3.2-1.1.7-1.3.7-.9.6-1 1.1-.2.8-.7-.5-.9v-2.1l.6-.8.8-.7.8-.6 1-.3.9.4.5-.6 1.2-.8.4-.9-.7-.7-.9.3-.7.8-.8.7-1 .3-.8.5-.7.8-1.1.2-.7.7-.6.8-.5 1.2-.9.8-.8.9-.7 1.1-.6.9-.6 1.3v1.2c.1 0 .4 1.3.4 1.3l-.2 1.2-.5 1.3-.5 1.2v1.3c-.1 0 0 1.3 0 1.3l.3 1.2.4 1.4.4 1.4.4 1.4v1.5c.1 0-.1 1.6-.1 1.6l-.7 1.2-1.1.8-1.5.5-1.6.5-1.4.6-1.2 1-1.2.9-1.5.4-.8-1.4-1.2-.9-1.6.4-1.2-1.6-.5 1.4-.9 1.5-1.4-.9-1.4-.5-1.5-.2-1-1.6-1.5.4-1.3-.7-.9-1.8-1 3-1.5.3-1.2-.9-1.4.5-1.6.8-1.5.6-1.6-.2-.5-1.4-1.2-1.2-1.4-.6-1.5.2-1.5-.2-.9-.5.4 2.9.2 1.5.7 1.6 1.5.3.6 1.5.7 1.5-.6 1.9-1.6-.8-1.6-.6-1.7-.2-1.5.8-1.6.3-1.3-1.2-1.6-.5-1.4-1.6-1.2 1.3-.7-1.4-.4-1.5-.7-1.3-1.2 1.5-1.4.7-1.5-.9-1.4.7-1.2 1.3-1.6.2h-1.7l-1.7-.2-1.6.2-1.7-.4-1.6-.4-1.5.6h-1.6l-1.5-.7-1.7.6-.8-.3-.9-.3-1.4.9-1.2.9-1.6 1-1.6.4h-1.7l-1.3 1.2-1.7.9-.7-1.5-1.5.8-.3 1.6.4 1.8v1.8l-1.7.5-1.3 1.7-1.5 1.4-1.5 1.1-1.8.5-1-2.3-1.8.7-1.9.5-1-1.6-.6-.5.4 6.1.9 2 1.5 1.8.7 2.2 2.3.6 2.1.9 2.4.4 1.7 1.9 1.5 1.8.4 2.8-.9 2.3-1.9 2.7-2.1 2.2-1.7-2.5-2.7 1.2-2.8-.4 1.8 2.4.9 2.8 1.9 2.3.2 3.5-.4 3.4-.4 3.9-.2 4.6 3.1 2.3 1 4.4 3.7 2.8 4.6.5-.3 6-3.2 3.8-3.1 4.3-2.8-4.6-4.9-2.7-3.3 3.8-4.5-3.3-2.6-4.2-3.3-3.2-1.7-4-.5-1.4-.6-1.4v119.2h417V388.5ZM55 349.2l.7 2.2 1.5 2.2 2.2-.9-.3-2.8-.9-2.1L57 346l-2.2-.9-.7 2.2.7 1.6v.3Z"/><path id="AR" d="M168.1 271.3H167c0 .1-.6-.6-.6-.6h-1.9v-4.4l.4.9.6 1.5 1.5 1.2 1.6.5-.5 1Zm.6-50.7.7.9.5-1h1.3l.2.3 2.1 2 .9.2 1.4.9 1.2.5.2.6-1.1 2 1.2.4 1.3.2.9-.2 1.1-1 .2-1.1.6-.2.6.7v1l-1 .7-.8.5-1.3 1.3-1.5 1.8-.3 1.1-.3 1.4v1.4l-.2.3v.9l-.2.7 1.5 1.2-.2 1 .7.6v.7l-1.2 1.9-1.7.8-2.3.3h-1.3c0-.1.2.7.2.7l-.2 1.1.2.8-.7.5-1.2.2-1.1-.6-.4.4.2 1.5.8.5.6-.5.3.8-1.1.5-.9 1-.2 1.6-.3.9H167l-.9.8-.3 1.2 1.1 1.2 1.1.3-.4 1.5-1.4 1-.8 2.1-1.1.7-.5.9.4 1.9.8 1.1h-.5l-1.1-.4-2.8-.3-.5-1.1v-1.4l-.8.1-.4-.7v-1.9c-.1 0 .8-.8.8-.8l.4-1.1v-.9c-.1 0 .5-1.5.5-1.5l.4-2.2v-1c-.1 0 .4-.3.4-.3v-.6c-.1 0-.7-.3-.7-.3l.4-.7-.5-.6-.3-1.8.5-.3-.2-1.9.3-1.6.3-1.3.7-.5-.4-1.4v-1.3l.9-.9v-1.2l.6-1.4v-1.3l-.3-.3-.5-2.4.7-1.4v-1.3c-.1 0 .3-1.2.3-1.2l.8-1.2.8-.8-.3-.5.2-.4v-2.1l1.2-.6.4-1.3v-.3c-.1 0 .8-1.1.8-1.1l1.5.3Z"/><path id="AT" d="M263.7 131v.7h-.7l.2.4-.4 1.1-.2.3h-1l-.6.4h-1c0-.1-1.7-.6-1.7-.6l-.3-.6-1.1.3v.3c-.1 0-.8-.2-.8-.2h-.6l-.5-.4.2-.4v-.3h.3l.6.5.2-.5h1l.8-.2h.6l.4.4v-.3c.1 0 0-1.1 0-1.1l.4-.2.4-.8.9.6.6-.7h.4c0-.1.9.4.9.4h.5l.5.2v.8Z"/><path id="AU" d="m412.7 246.1 1.1.5.6-.2.9-.3h.7v1.9l-.4.5v1.3c-.1 0-.5-.4-.5-.4l-.8 1.1h-.2l-.7-.1-.7-1.4-.2-1-.7-1.3v-.7l.8.1Zm-2.1-35.6.4.9.7-.4.4.5.6.5v.5c-.1 0 .1 1 .1 1l.2.6h.3c0 .1.3 1.2.3 1.2v.6c-.1 0 .3.8.3.8l1.3.6.8.6.8.5-.2.3.7.8.5 1.3.5-.3.5.5.3-.2.2 1.3.8.8.5.5.9 1 .3 1v1.5l.6 1.1v1.2l-.3.6-.3 1.2v.8l-.2 1-.5 1.2-.9.7-.4 1.1-.4.7-.3 1.2-.4.7-.3 1.1v1c-.1 0 0 .5 0 .5l-.7.5h-1.3l-1.1.7-.5.6-.7.6-1-.7-.7-.3.2-.8-.6.3-1 1.1-1-.4-.7-.2h-.7c0-.1-1.1-.5-1.1-.5l-.7-.9-.2-1.1-.3-.7-.6-.6-1.1-.2.4-.7-.3-1-.6 1-1 .3.6-.8.2-.8.4-.7v-1l-1 1.2-.7.5-.4 1.1-.9-.6v-.7l-.7-1-.6-.5.2-.3-1.5-.8h-.8l-1.1-.7h-2.1c0 .1-1.5.6-1.5.6l-1.3.5h-1.1l-1.2.6-1 .3-.2.7-.4.6h-1l-.7.2-1-.3-.8.2h-.8l-.7.8h-.3l-.6.3-.6.4h-1.6l-1.2-.9-.6-.3v-.8l.6-.2.2-.3V233c-.1 0-.7-1.4-.7-1.4l-.2-.8v-.8l-.4-.9v-.4l-.5-.5v-1c-.1 0-.8-1-.8-1l-.2-.6.5.6-.4-1.2.6.4.3.5v-.7l-.6-1v-.4c-.1 0-.4-.4-.4-.4v-.7c.1 0 .4-.3.4-.3l.2-.6v-.7c-.1 0 .4-.9.4-.9v.9l.6-.9.9-.4.6-.5.9-.5h.8l.9-.5h.7c0-.1.2-.4.2-.4h.3c0-.1.6 0 .6 0l1.2-.4.6-.5.3-.7.7-.6v-1.2l.8-1 .5 1 .5-.2-.4-.6.4-.6.5.3v-.9c.1 0 .8-.6.8-.6l.3-.5.6-.2v-.3l.5.1v-.3l.5-.2.6-.2.9.5.6.7h.7l.7.1-.2-.7.6-1 .5-.3-.2-.3.5-.7.7-.4h.6c0 .1 1 0 1 0v-.6l-.9-.4.6-.2.8.3.6.5 1 .3h.3c0-.1.7.2.7.2l.7-.3h.4c0 .1.3-.1.3-.1l.5.6-.3.6-.4.5h-.4l.1.5-.3.6-.4.6v.3l1 .7.9.4.6.4.8.7h.3l.6.3.2.4 1.1.4.8-.4.2-.6.2-.5v-.7c.1 0 .5-1 .5-1l-.2-.6v-1l.2-.9.2-.2-.2-.4.3-.6.2-.6v-.3l.5-.4.3.6v.7l.4.1v.5l.5.6v1.1Z"/><path id="AZ" d="m296.2 144.5.3.4h.5v.2l.5.9-.8-.2-.6-.7-.2-.6h.2Zm2.8-2.2h.5c0 .1.2-.3.2-.3l.7-.6.6.8.6 1.1h.5l.4.5h-1c0 .1-.2 1.3-.2 1.3l-.2.5-.4.3v.7h-.3l-.7-.8.4-.7-.3-.4h-.4c0 .1-1.4 1.2-1.4 1.2v-1l-.5-.2-.5-.4.3-.5-.6-.5.2-.4-.4-.3-.2-.4.3-.3.9.4h.8l-.6-.8.3-.2h.3l.8 1Z"/><path id="BA" d="M266.1 136.5h.4l-.3.7.6.6-.2.8h-.3l-.2.2-.4.4-.2.9-1-.6-.4-.7-.4-.4-.5-.6-.2-.5-.6-.8.2-.7.4.4.2-.3h.5l1 .2h.8l.5.3Z"/><path id="BD" d="M351.5 168.5v.9l-.4-.2v1l-.3-.6v-.6l-.3-.6-.5-.7h-1.1l.1.5-.4.7-.5-.3-.2.2h-.3c0-.1-.4-.2-.4-.2l-.2-1-.4-.9.2-.8-.7-.3.3-.5.7-.5-.8-.7.4-.9.9.6h.6l.1 1 1.1.2h1.1l.7.2-.5 1.1h-.5l-.4.8.6.7.2-.8h.3l.6 2Z"/><path id="BE" d="M247.9 125.2h.8c0 .1 1.1-.2 1.1-.2l.7.8.6.4v1.2h-.4v1c-.1 0-1.1-.8-1.1-.8h-.6c0 .1-.8-.7-.8-.7l-.5-.7h-.5l-.2-.7.9-.4Z"/><path id="BF" d="m240.8 183.4-.8-.3h-.5l-.4.3-.5-.2-.2-.4-.5-.3v-.7l.2-.5v-.4l.9-1 .2-.8.3-.3.6.2.5-.2.2-.3.9-.5.2-.4 1.1-.5.6-.2.3.2h.7v.6l.2.5.7.8v.6l1.4.3v.8l-.3.4h-.6c0 .1-.2.6-.2.6h-.4c0 .1-1 .1-1 .1H241v.7l.1.9Z"/><path id="BG" d="m270.3 137.5.3.7h.4c0-.1.9.1.9.1h1.7l.6-.3 1.4-.4.8.6.7.2-.6.7-.4 1.1.4.9-1-.2-1.2.5v.8l-1.1.1-.8-.5-.9.4h-.9v-1.1l-.6-.5.2-.2v-.2c-.1 0 0-.5 0-.5l.4-.5-.6-.7v-.6c-.1 0 .2-.4.2-.4Z"/><path id="BI" d="M278.1 199.7v-1.4l-.4-.5h.7l.4-.6h.6v.5l.2.3v.4l-.3.2-.5.6-.4.4h-.5Z"/><path id="BJ" d="M247.2 187.3h-1c0 .1-.3-.7-.3-.7v-2.7l-.2-.2v-.6l-.4-.4-.4-.3v-.6c.1 0 .5-.1.5-.1l.2-.5h.6c0-.1.3-.5.3-.5l.4-.3h.4l.9.7v.4l.2.7-.2.5v.3c.1 0-.4.7-.4.7l-.4.4-.2.7v2.6Z"/><path id="BN" d="m376.5 189.3.5-.4 1-.6v.6l-.1.7h-.6l-.2.4-.5-.6Z"/><path id="BO" d="M171.2 220.6h-1.3l-.5 1-.7-.9-1.5-.3-1 1.1-.8.2-.5-1.7-.6-1.4.4-1.2-.6-.5-.2-.9-.6-.8.7-1.3-.5-1 .3-.4-.2-.4.5-.6v-1.8l.3-.4-1-1.9h1.5l.3-.4 1-.5.6-.4 1.5-.2v.9c-.1 0 0 .5 0 .5v.8l1.2 1.1 1.3.2.5.4.8.2.5.3h.7l.7.3v.7l.3.3v.5h-.3l.4 1.4h2.2l-.2.7v.5c.1 0 .8.3.8.3l.3.8-.2 1-.3.5v.7c.1 0-.3.3-.3.3v-.4l-1.1-.6h-1.1l-2 .3-.6 1.1v.7l-.5 1.5z"/><path id="BR" d="m177.2 231.1 1.5-1.8 1.3-1.3.8-.5 1-.7v-1l-.6-.7-.6.2.2-.7.2-.8v-.7l-.4-.2-.4.2h-.4l-.1-.5v-1.1c-.1 0-.3-.4-.3-.4l-.8-.3-.5.2-1.2-.2v-1.7l-.3-.7.4-.3v-.7c-.1 0 .2-.5.2-.5l.2-1-.3-.8-.6-.3v-.5c-.1 0 0-.7 0-.7h-2.2l-.4-1.4h.3v-.5l-.2-.3v-.7l-.7-.4h-.7l-.5-.3-.8-.2-.5-.4-1.3-.2-1.3-1.1v-2.2c.1 0-1.4.2-1.4.2l-.6.4-1 .5-.3.4h-1.5l-.7.2h-.5v-1.9l-1 .7h-1l-.4-.7h-.8l.2-.6-.6-.7-.5-1 .3-.2v-.5l.7-.3v-.6c-.1 0 .2-.4.2-.4v-.5l1.4-.8 1-.2.2-.2h1l.5-3.1v-.5l-.2-.7-.5-.4v-.8l.7-.2h.2v-.3h-.7v-.8h2.3l.4-.4.3.4.2.7h.2c0-.1.6.5.6.5h.9l.2-.4.9-.3.5-.2v-.5c.1 0 1-.3 1-.3v-.2h-1l-.2-.7v-.8l-.5-.3h.2c0-.1.9 0 .9 0l.9.3.3-.3.8-.2 1.3-.4.4-.4-.2-.3h.6l.3.2-.2.5.4.2.3.5-.3.4-.2 1 .3.6v.5l.8.5h.6l.1-.2h.4l.5-.3.4-.3h1.5l.1-.1-.2-.2v-.3c.1 0 .6.1.6.1h.6c0-.1.7.1.7.1l.5.2.4-.3h.3l.2.4h.6l.4-.5.4-.9.7-1.1h.4l.3.6.6 2 .6.2v.8l-.8.9.4.3 2.1.2v1.2l.9-.8 1.5.4 1.9.7.6.7-.2.6 1.3-.4 2.3.6h1.7l1.7.9 1.5 1.3.9.3h1l.4.4.4 1.5.2.7-.5 1.9-.6.8-1.6 1.6-.7 1.3-.9 1h-.3l-.3.9v2.2l-.2 1.9v.8c-.1 0-.5.5-.5.5l-.2 1.6-1.2 1.6-.2 1.3-.9.5-.3.7h-1.3l-1.8.5-.8.6-1.3.4-1.4 1-1 1.3-.2 1 .2.7-.2 1.3-.3.6-.8.7-1.3 2.3-1 1.1-.8.6-.5 1.3-.8.8-.3-.8.5-.6-.7-.9-.9-.8-1.2-.9h-.4l-1.2-1h-.8Z"/><path id="BS" d="M154.1 166.3h-.3l-.3-.7-.4-.4.3-.8h.3l.4 1.1v.7Zm-.3-3.6-1.3.2v-.5l.5-.1h.8zm.9 0-.2.9-.2-.2v-.7l-.5-.5c0-.1.9.4.9.4Z"/><path id="BT" d="m350.4 161.2.5.4v.8h-2l-.7.1-1.1-.5v-.3l.7-1 .6-.3.8.3h.6l.5.4Z"/><path id="BW" d="m273.8 216.3.2.2.4.7 1.3 1.3h.5v.6l.3.8.9.2.7.6-1.6.9-1 .9-.4.8-.3.5h-.6c0 .1-.2.7-.2.7v.4c-.1 0-.9.3-.9.3h-.9l-.6-.4-.5-.2-.6.3-.3.6-.6.4-.6.6h-.8c0 .1-.3-.3-.3-.3v-.8c.1 0-.6-1.2-.6-1.2l-.3-.2v-3.7h1.1v-4.4h.9l1.8-.5.4.5.7-.5h.4l.7-.3h.2l.4 1.1Z"/><path id="BY" d="M271.3 120.3h1.1l1.3-.7.3-1.1 1-.6v-.9c-.1 0 .6-.3.6-.3l1.2-.8 1.2.5.2.5.6-.2 1.1.5v1c.1 0-.1.5-.1.5l.7 1.3.5.4v.4l.7.3.3.5-.5.4h-.9l-.2.1.3.6.3 1.2h-1c0 .1-.4.5-.4.5v.9l-.5-.2h-1l-.3-.3-.4.3-.4-.3h-.9l-1.3-.5h-1.2c0-.1-.9-.1-.9-.1l-.6.5h-.6v-.8l-.4-.9.7-.4v-.8l-.3-.7v-.9Z"/><path id="BZ" d="M140.7 173.7v-.2h.3c0 .1.4-.6.4-.6h.2v.2h.2v.3l-.2.5v.2c.1 0 0 .4 0 .4 0 .1-.1.7-.1.7l-.2.3h-.2l-.2.5h-.3v-2.4Z"/><path id="CA" d="M129.7 42.6v-2.4l1.4.2.7.4 1.4 2-.3 2.1-1.7 1.1-.9-1.3-.5-2.1Zm5.5 5.3v-.6c.1 0-.7-1-.7-1h-2.3l.3 1.4 2.2.3.5-.2Zm15 19.4 1.3 2.1.3.2 1.3-.5h1.2l1.2.2v-1.1c-.1 0-2.1-2.2-2.1-2.2l-2.7-.4-.6.3v1.5Zm-27-25.9-1.1 1.7 2.6.2 1.9 1.8 1.9.6-.5-2.3-.9-2.8-3.1-2.2-2.3-.8V40zm10.7-4.3h2.1l-.9 1.6v2.2l1.2 2.4 2.4.7 2.1-.4 2.1-4.4 1.6-1.8-1.4-2.1-.9-4.4-1.9-1.3-2-1.5-1.5-4-2.7.4.5 1.7-1.2.5-.8 2.2-.8 3.1.7 3 1.3 2.1Zm-26.4 22.1 1.6.8 5.2-.5-2.4 2v1.4h1.9l2.9-1.9 3.9-.7.7-2.2-.2-2.3-1.2-.2-1 .8-.5-1.7-.4-2.4-1.2-.6-1.1 1.8 1.7 4.6-2-.4-2.1-2.8-3.3-1.7-1.1 1.4-1.6 4.6Zm9.4-17.4-1.5-1.2-.6-.3-1.2 1.8v.8h1.9zm-.6 5.1.4-1.7-1.6-.9-1.7.6-.9 1.8 1.7 1.7 2.2-1.6Zm12 13.8 1.9-.5.5-3.4v-2.5l-.9-2.3v.7l-1.7-.3-1.7 1.7-1.2-.2v3.7l2-.4v2.7l1.2.7Zm-1.4 18.8-2.1-1.6-1.9-1.7-.4-2.6-.7-3.7-1.3-1.6-1.2-.6-1 .6.8 4-.6 1.5-.9-3.7-1.1-1.3-1.3 2-1.6-2L111 70l.6-1.8-1.2-.8-3.1 2.4-.8 1.5-1 2.8 2 1h1.8l-2.7 1.4.6 1.3h1.6l2.5-.2 2.2.8-1.5.6-1.6-.2-1.8.6-.8.4 1.4 2.6 1-.4 1.6.9.6 1.5 2.1-.3 2.9-.5 2.2-1.1 1.3-.2 2 .9 2.1.5.4-1.2-.7-1.3 1.9-.3v-1.5Zm3.2-.4-.8 1.5-1 1 1.6 1.5.9-.4 1.6 1 .7-1.1-.7-1.3-.3-.6-.7-.6-1.2-1Zm-7.3-12.2-.9-.9-1.6.2-.4.6 1.8 2.8 1-2.6Zm11.9 5.5 1.2-2.9 1.4-.8 1.7-3.6-2.2-1h-2.4c0-.1-1.2 1-1.2 1l-.6 1.7v2l.7 3.4h1.3Zm7.1-9.5h2.4l3.3-.7 1.5.5 1.7-.9.7-1.2-.3-1.9-1.2-1.7-1.9-.3-2.4.4-1.8 1-1.7-.4-1.6-.2-.7-1.1-1.3-1.1.3-1.8-1-1.6h-2.3l-1.3-1.6-2.4-.3-.4 2.1 1.3 1.5 2.4.6 1.2 2.1v2.3c.1 0 .5 2.5.5 2.5l3.1 1.4 1.9.5ZM105 55.3l2.2-2.1 1.1-.2.9-1.7.2-4-1.6.8H106l-2.4 3.3-2 3.7 1.6 1 1.9-.7Zm29.8 6.7.6-1.7-.4-1.4-1-1.6-1.7 1.2-.6 2 1.4 1.2zm-3.4 4.7-.3-1.2-2.1.5-1.4-.9-1.4 2 1.3 2.6-2.4-.5v1.2l2.9 2.9.8 1.4 1.1.3 1.9-1.4.2-3.4-1.8-1.7 1.1-1.9Zm-30.6 63.6-.5-1-1.2-.7-.6-.8-.4-.6-1.1-.2-.7-.3-1.2-.4v.4l.3 1 1.2.3.2.5 1 .6.3.6 1.9.8.6-.2Zm50.3-32.1-.8-.9-.9.2v-1.3c-.1 0-1.4-.8-1.4-.8l-1.3-.9-.7-.7-.6.4-.2-1.2-.8-.2-.4 2.5v2.1c-.1 0-1.2 1.3-1.2 1.3l1.6-.2.4 1.5 1.7-1.3 1.2-1.4.6 1.2 1.8.6 1-.8Zm-49.8-21.7 3.1-1.7v-1.6l1.4-2.7 2.8-2.8 1.5-1-1.2-1.7-1.1-1.2-3-.2-1.7-.9-3.9.7 1.1 2.6-1 2.7-.8 2.8-.5 1.6 2.7 1.9.6 1.6Zm55.5 11.3v-.4c.1 0 .1-1.3.1-1.3l-.9-.9-1.1.4-.5 1.7.3 1.5h1.3c0-.1.8-1 .8-1m9.9 3.1 1.8 2.7 1.4 1.2 2-3.3.4-2-1.8-.2-1.7-2.8-1.8-.7-2.7-2.1 2.1-1.5-1.1-3.1-1-1.4-2.8-1.4-1.2-2.3-2.2.8v-1.6c-.1 0-1.7-1.8-1.7-1.8l-2.6-1.9-1.1 1.5-2.3 1.1.2-2.5-2-4.2-2.9 1.7-1.1 3.2-.9-2.4.9-2.6-3 1.1-1.2 1.7-.9 3.5.4 3.7h1.6l-1.2 1.6 1 1.2 1.9.5 2.5 1 4.2.8 2.1-.4.6-1 .9 1.2 1 .2 1.2 2.1-.7.8 2.3 1.1 1.8 1.5.4 1.1.3 1.3-1.5 2.9-.4 1.4.4 1-2.4.4h-2.2l-.8 2.1 1 .9 3.4-.4v-.8l1.7 1.3 1.7 1.4-.4.7 1.4 1.2 2.5 1.5 3.1 1-.2-.9-1.2-1.5-1.6-2.2 2.9 2.1 1.5.7.4-1.8-.8-2.6-.5-.7-1.6-1.3-1.2-1.6v-1.6c.1 0 1.7-.4 1.7-.4Zm-27.3-66.8 1 3 2.1 2.4 4.1-.5 2.6.8-1.8 2.5-.9-.7-3.2-.3.5 3.4 1.6 2.5-.3 2.2-2.1 1.4-.9 2.3 1.9 1.1 1.6 3.5-3.1-2.4-.7.4.6 3.9-2.1 1.2v2.4c.1 0 2.3.3 2.3.3l1.7.6 3.4-.8 3 1.4 3.1-3v-1.2l-2 .2-.2-1.2 1.6-1.6.6-2.1 1.8-1.6 1.1-2-1-2.9.8-1.1-1.6-.8 3.5-.7.7-1.3 2.4-1.1 2-5.6 1.9-2 2.7-4.6h-2.5l1.1-1.7 2.8-1.7 2.8-3.7v-2.4l-2.1-2.5-2.5-1.2-3.1-.8-2.5-.6-2.5-.6-3.4 1.6-.6-1-3.5.4L150 9l-1.5 1.5-.9 4.9-1.3-2.5-1.4-.5-1.7 3.3-2.3 1.4-1.4.3-1.7 1.6.3 2.8 1.4 2.3Zm30.8 109.6-.4-.8-.4.5.3.6 1.5.7h.4c0-.1.6-.8.6-.8h-1.1l-.8-.2Zm-23.6-32.2.3.7h.8l1.4-1.3v-.5h-1.6l-.9 1.2Zm25.7 27.5-1.2-.7-1.5-.5-.4.2 1.1.8 1.5.6h.6v-.4Zm10.3 2v-.9c-.1 0-1 .3-1 .3l.4-1.3-1.2-.5-.5.4-1-.5.4-.6-.8-.4-.8.6.8-1.6.6-1.2.2-.5h-.5l-1 .6-.7 1-1.2 2.9-1 1.1.5.5-.7.6.2.5h3.5l1.1.4-.8.8h.7l1.3-1.4.3.2-.3 1.4.8.3h.5l.5-1.6-.4-1.1Zm-8.7 1.9-1.2 1.9-1.9.2-1.5-.8-.4-1.3-.4-1.8 1.1-1.2-1-.9-1.7.2-2.4 1.5-1.9 2.3-1 .3 1.3-1.6 1.7-2.3 1.5-.8 1-1.3h1.2c0-.1 1.7-.1 1.7-.1l2.5.4 2-.3 1.5-1.5 1.9-.7.8-.7.8-.7v-2.1l-.6-.7-.9-.3-.5-1.7-.7-.6-1.8-.5-1-1.2-1.5-1.2.5-1.3-1.3-2.6-1.5-2.9-.9-2.1-.8 1.1-1.1 2.5-1.7 1.2-.8-1.3-1.1-.4-.4-2.9v-2l-2-.2-.4-.9-1.4-1.4-1.1-.8-1 .7-1.2-.2-2-.7-.8.6.4 3.8.5 2.1-1.4 2.4 1.4 1.7.8 1.8v1.4l-.5 1.4-1.3 1.4-1.9.9.8 1 .6 3.1-.6 1.9-.9.6-1.7-1.8-.8-2.1-.4-2 .2-1.7-1.3-.2h-1.9c0-.1-1.2-1-1.2-1l-1.5-.6-.8-1-1.2-.8-2.2-.9-1.6.4-.5-1.6-.5-2.1-1.7-.4v-2.7l.5-1.9 1.3-2.7 1.4-2 1.3-.3v-1.7l1-1.1 1.7-.2 1.3-1.8.3-1.2 1.1-2.4.3-1.4 1.2.9 1.6-.4 2.3-2.1V87c.1 0-.7-1.6-.7-1.6l.9-1.7v-1.6l-1.6-1.6-1.7-.5-1.6-.3v3.6L144 86l-1.2 2.2-1.1-2 .3-2.3-1.4-2.1-1.6 2.5V81l-2.2-.7 1-1.7-1.6-4L135 73l-1.5-.6-1.4 2.7V79l1.3 1.4 1.2 2-.5 3.2h-.9l-.7 2.3V85l-1.8-1.1-1 .6v1.9h-1.6l-1.8.5-2-1.4-1.3.2-1.2-1.7-.9-.8-.9.3h-1.4c0 .1-.7 1.2-.7 1.2l1.2 1.3-1.3 1.5-1.2-1.8-1 .5-3.1.4-2.1-.7 1.6-1.5-1.6-1.6-1.1.2-1.6-.5-2.7-1.2-1.8-1.4-1.4-.2-.4 1-1.4.5-.2-2.5-1.5 2.3-2-3-.8-.4-.3 1.6-.9.8-.8-1.4-1.9.8-1.7 1.5-1.7-.4-1.4 1-1 1.4-1.2-.3-1.8-1.6-2.2-.8v26.1h1.1l1.1.7.8 1 1 1.5 1.1-1.3 1.2-.7.6 1.2.8.9 1.1 1 .7 1.6 1.2 2.4 2 1.3v1.3l-.6 1v1l1.4 1.4.2 1.6 1.5.8-.2 1.2.6 1.6 2.1.8.8.8 2.2 1.7h32.3v-.7h.4l.2 1 .4.3h.8c0 .1 1.2.4 1.2.4l1.1.5.9-.2 1.4.5.5-.7.7-.3.3-.4.3-.2 1.1.4h.8l.3.3.4 1 1.3.3-.2.5.5.5-.2.6.5.2-.2.6h.3l.2-.2.2.4.9.2h.9l.9.2 1 .3.4.5.8 1.3-.4.5-.9-.2-.6-1v1c.1 0-.4.9-.4.9v1.2l-.7.5-.5.9-.3.5h.6l.9-.4.5-.4h.9l.3-.2.6-.2 1-.2v-.5h-1.1l.3-.5.4-.2.8-.2 1-.2.5.3.3-.4.4-.2h.2v.1l1.2-1.1.5-.3h3.9v-.4h.5l.5-.3.4-.8.4-1.3.9-1.3.4.4.8-.3.5.5v2.3l.8.9 1.3-.2h1.9l-2 1.3v1.4l.9.1 1.3-1.2 1.2-.7 2.6-1 1.4-1.1-.7-.6v-1.2Zm-22.2-29.4.5-1.3-.3-.5h-.5l-.4.7v.2l.3.7.5.2Zm-59.1 15.1.6-1z"/><path id="CD" d="M279.8 190.5v1.3l.4.2-.4.4-.4.3-.4.6-.2.5v.9l-.3.4v.9l-.3.3v.7h-.2v.6c-.1 0 .2.5.2.5v1.4l.3 1.1v.6c-.1 0 .1.7.1.7l.7.6.6 1.5h-.5c0-.1-1.6 0-1.6 0h-.3c0 .1-.3.9-.3.9l.3.5-.2 1.4v1.2c-.1 0 .2.2.2.2l.8.5.3-.2v1.3h-.8l-.5-.6-.4-.5-.9-.2-.3-.6-.7.4-.9-.2-.4-.5h-.7c0-.1-.5 0-.5 0v-.4h-1l-.7.1h-.8v-1.4l-.3-.4v-1.4l-.2-.5v-.7h-1.4v-.4h-.5v.2h-.8l-.3.7-.2.3-.6-.2-.4.2h-.8l-.4-.5-.3-.4-.3-.7-.3-.9h-3.4l-.4.1h-.3l-.5.1-.2-.4h.3v-.6l.2-.3.4-.2h.3c0 .1.4-.3.4-.3h.6v.3l.4.2.7-.7.7-.6.3-.4v-1l.5-1.1.5-.6.8-.6v-.4c.1 0 .2-.4.2-.4l.2-.4v-1.7l.2-.7.3-.6v-.7l.2-.8.5-.6.6-.4 1 .4.7.4h.8c0 .1.9.3.9.3l.3-.7h.7l1.3-.6.5.2h.4l.2-.3h2.4l.7 1h.5c0 .1.3 0 .3 0h.5l.6-.2.3.5 1 .8Z"/><path id="CF" d="M261.8 185.9h1l.2-.4h.2l.3.3 1.5-.4.5-.5.6-.4v-.4c-.1 0 .2-.1.2-.1h1.1l1.1-.5.8-1.3.6-.5.7-.2v.5c.1 0 .8.7.8.7v.5l-.2.5v.4l.5.3.9.5.6.5v.4l.8.6.5.5.3.7.9.5.2.4h-.4c0 .1-.7 0-.7 0h-.9c0-.1-.4 0-.4 0l-.2.3h-.4l-.5-.2-1.3.6h-.5c0-.1-.2 0-.2 0l-.3.7-.9-.2h-.8c0-.1-.7-.5-.7-.5l-1-.4-.6.4-.5.6v.8h-.8l-.8-.2-.7.6-.6 1.1v-.3c-.1 0-.2-.5-.2-.5l-.5-.4-.4-.6v-.4l-.6-.6v-1.7l.4-.2.6-1.2Z"/><path id="CG" d="m259.1 200-.4-.4-.4.2-.5.5-1-1.2.9-.6-.4-.8.4-.3h.8v-.7l.6.6h1l.4-.5v-.8c.1 0 0-.9 0-.9l-.5-.7.5-1.3-.3-.2h-.9l-.3-.5v-.5h1.5l.9.3.9.3v-.6l.7-1.1.7-.6.8.2h.7v.8l-.3.6-.2.7v1c-.1 0 0 .7 0 .7l-.2.4v.4l-.2.4-.8.6-.5.6-.5 1.1v1l-.3.4-.7.6-.7.7-.4-.2v-.3h-.7l-.4.4h-.3Z"/><path id="CH" d="M255.2 132v.3l-.1.4.5.3h.6v.7l-.5.3-.9-.2-.3.7h-.6l-.2-.2-.6.6h-.6l-.5-.3-.4-.7-.6.3v-.8l.9-1v-.4l.5.2.3-.3h1l.2-.4 1.2.5Z"/><path id="CI" d="M240.7 188.8h-.5l-.8-.2h-.7l-1.4.2-.8.3-1.2.4h-.2v-1h.1v-.6l-.5-.5h-.4l-.3-.4.3-.5v-.6c-.1 0 0-.3 0-.3h.2v-.9c.1 0 .5-.1.5-.1l-.3-.9-.3-.5v-.4h.4c0-.1.3 0 .3 0h.9l.2-.3h.2l.3-.1.2.5h.3c0-.1.5-.3.5-.3l.5.3.2.4.5.2.4-.3h.5l.8.3.3 1.7-.5 1-.3 1.3.5 1v.5Z"/><path id="CL" d="M164.4 266.2v4.4h1.9l-.4.9-1 .6h-.6l-.7-.2-.8-.6-1.2-.3-1.5-1.1-1.2-1.1-1.6-2.2 1 .4 1.6 1.3 1.5.7.6-.9.4-1.3 1.1-.8.8.2Zm.5-46.3.5 1.7.8-.2v.3c.1 0-.3 1.3-.3 1.3l-1.3.6v2.1l-.2.4.3.5-.8.8-.8 1.2-.4 1.2v1.3c.1 0-.6 1.4-.6 1.4l.5 2.4.3.3v1.3l-.7 1.4v1.2l-.9.9v1.3l.4 1.4-.7.5-.3 1.3-.3 1.6.2 1.9-.5.3.3 1.8.5.6-.4.7.5.3v.6c.1 0-.4.3-.4.3v1c.1 0-.3 2.2-.3 2.2l-.6 1.5v.9c.1 0-.2 1.1-.2 1.1l-.9.8v1.9c.1 0 .5.7.5.7h.8v1.3l.5 1.1 2.8.3 1.1.3h-1l-.6.5-1 .7-.2 1.8h-.5l-1.3-.6-1.3-1.3-1.4-1.1-.4-1.2.3-1.1-.6-1.2v-3c-.1 0 .3-1.7.3-1.7l1.2-1.3-1.8-.5 1.1-1.5.4-2.7 1.3.6.6-3.3-.8-.4-.4 2-.7-.2.4-2.2.4-2.8.5-1-.3-1.4v-1.6h.4l.7-2.3.8-2.2.5-2.1-.3-2 .3-1.1v-1.6c-.1 0 .5-1.6.5-1.6l.2-2.5.4-2.6.4-2.8v-2l-.3-1.7.6-.3.3-.6.6.8.2.9.6.5-.4 1.2.6 1.4Z"/><path id="CM" d="M259.2 191.9h-.8l-.7-.2h-2.5l.2-.9-.5-.8-.5-.2-.2-.5-.3-.2v-.3l.3-.8.6-1.1h.3l.7-.7h.4l.6.5.8-.4v-.5c.1 0 .4-.5.4-.5l.2-.6.6-.5.2-.8.2-.3.2-.6.3-.7 1-.9v-.4l.2-.2-.5-.5v-.4h.4l.5.8v1.6l.6 1.1h-1.4c0-.1-.3.4-.3.4l.7.7.5.2.2.5.4.8-.2.3-.6 1.2-.3.2v1.7l.5.6v.4l.5.6.5.4v.5l.2.3v.6l-1-.3-.9-.3h-1.5Z"/><path id="CN" d="m372.6 170.9.3.5-.5.5-.3.7-1 .6-1-.4v-1l.5-.6 1.3-.3zm26.1-40-1 .7h-1.8l-.5-1.6-1.4-1.3-2-.6-.4-1.8-.4-1.1-.4-.8-.7-1.9-1-.7-1.7-.6h-1.5l-1.4.4-1 1 .6.5v1l-.6.6-1 2v.8l-1.6 1.1-1.4-.7-.6 1.3-.8 1.7.3.7.7-.2 1.1.3.9-.6.9.6 1.1 1.2v.6c-.1 0-1-.2-1-.2l-1.7.2-.8.5-.8 1.1-1.8.6-1.2.9-1.2-.3h-.7c0-.1-.6.9-.6.9l.4.6.2.5-.8.5-.8.8-1.4.6h-1.7l-1.9.6-1.3.8-.5-.5h-1.4l-1.7-.9-1.1-.2-1.5.2-2.4-.4h-1.3l-.7-.9-.5-1.5-.7-.2-1.4-1-1.6-.2-1.4-.3-.4-.7.4-2-.8-1.4-1.7-.6-1-.9-.3-1.2h-.5c0 .1-.9 1.3-.9 1.3l-1 .2v1.7l-.7.8-2.3-.6-.8 3-.6.4-2.3.7 1 2.8-.8.4v1.3l-1.8.8-.4.6-1.5.2-.4 1-1.2-.2-.8.3-1.1.7.2.4-.3.3.3 1.4h.4c0-.1.7.2.7.2v.6l.1.8.2.4.9.7.3 1.1 1.8.6 1.6-.6 1.2.6-.4 1.1-.7.9h-.5v.7l.4.7v.7l-.9-.2.3 1.5 1.1.9 1.6.9.5-.3.9.4 1.2.9.7.2.4.6.9.3.9.6 1.3.3h1.4c0 .1.7-.1.7-.1v1l.9-1 .6-.3.8.3h.6l.5.4.9-.2 1.1-1 1.3-.8 1 .3.8-.6.5.8-.4.6 1.2.2h.7l.4.7.5.3v2.1l-1.1 1.1v1.5c-.1 0 1.1-.2 1.1-.2l.3 1.2.7.2-.3 1 .9.5.5.2.9-.4v.5l.1.3h.6l-.2-1.4.6-.2.6-.3h.9l1.1-.1 1-.7.6.5 1.1.2-.2.7.6.5 1.2.3.6-.2 1.6.4-.3.5.3.9h.6l.4-1.4 1.2-.2 1.6-.6.7-.6.4.4.7-.6h1.3c0-.1 1.6-1.2 1.6-1.2l1.6-1.2 1.1-1.5.9-1.7.8-1.4h.6c0-.1.3-1.2.3-1.2l.2-1.1-.7-.4-.3-.7.7-.4v-1l-.8-1-.7-1.3-.5-1.4-1.2-.8.6-1 1.1-.7.5-.8 1.6-.4-.2-.8h-.7l-1-.6-1.3 1-.9-.4v-.7l-1-.2-.6-1 .6-.7h1.1l.7-1 1.3-1.1 1-.5.6.8-.9 1 .2.6-.6.7 1.2-.4.9-.7 1.6-.4.9-1 1.3-.8.8-1.1.6.5h1l-.2-.8 1.8-.7.5-.9.7.9v-.8h.6l.2-1.9-.3-1.4 1-.6 1.4.3.8-1.6.4-1.8.5-.6.6-1.6-1.9.5Z"/><path id="CO" d="m156.6 194.7-.5-.3-.6-.4-.3.2-1-.2-.3-.5h-.2l-1.2-.6-.2-.4h.4v-.7l.3-.4h.6l.5-.8.4-.6-.4-.3.2-.7-.3-1.1.2-.3-.2-1-.5-.6v-.6h.5l.2-.3-.3-.7v-.2h.7l.9-.8h.5v-.5l.2-1 .7-.5h.7v-.3h.9l.9-.5.5-.3.6-.6h.4l.3.4-.2.4-.7.2-.3.6-.5.3-.3.4v.8c-.1 0-.5.7-.5.7h.6l.1.6.3.3v1.1h.3l.3.4h1.5c0-.1.7 0 .7 0l.8 1h.5c0-.1.8 0 .8 0h.7c0-.1.4 0 .4 0l-.2.6-.3.4v.8l.1.8.3.3v.3l-.6.6.4.3.3.4.4 1.1h-.2c0 .1-.2-.5-.2-.5l-.3-.4-.4.4h-2.3v.7h.7v.6h-.2c0-.1-.7 0-.7 0v.8l.5.4.2.7v.5l-.6 3.2-.6-.6h-.3l.7-1.2-.9-.5h-1.1l-.6.3h-.9c0-.1-.7-1.4-.7-1.4l-.5-.3-.4-.5-.8-.5h-.3Z"/><path id="CR" d="m147.8 185-.6-.3-.2-.2v-.2c.1 0 0-.3 0-.3l-.3-.3-.5-.2h-.4v-.5l-.3-.2v.3l-.2.3-.3-.3h-.4c0-.1-.2-.4-.2-.4v-.4l.2-.4-.3-.2.3-.2.2-.2.8.3.3-.2h.4l.2.3h.3l.3-.2.3.6.4.5.5.5h-.5v.6l.2.2h-.2v.6l-.2.2Z"/><path id="CU" d="M148.6 167h1l.9.1 1.1.4.5.5h1.1c0-.1.4.1.4.1l1 .8.7.6h.4l.7.2v.3h.8l.9.5v.3c-.1 0-.9.2-.9.2h-3.3c0 .1.8-.6.8-.6l-.5-.3h-.7l-.4-.4-.3-.7h-.7l-1.1-.3-.3-.3-1.5-.2-.4-.2.4-.3h-1.1l-.8.6h-.5l-.2.3h-.6c0 .1-.5 0-.5 0l.6-.4.2-.5.5-.3.6-.2h.9c0-.1.3-.3.3-.3Z"/><path id="CY" d="m283.4 151 .8-.6-1.1.4h-.8l-.2.3h-.6l.3.6.6.2 1.2-.6v-.4Z"/><path id="CZ" d="m263.7 130.2-.5-.3h-.5l-.9-.4h-.4c0 .1-.6.9-.6.9l-.9-.6-.7-.8-.6-.4v-.8c-.1 0-.3-.5-.3-.5l.8-.4.4-.5.8-.4.3-.3.3.2.5-.2.6.6.9.2v.5l.6.4.2-.5.8.2v.6c.1 0 1 .1 1 .1l.5.9h-.3l-.2.3h-.3v.5h-.2v.2l-.4.2h-.5l-.2.4Z"/><path id="DE" d="M255.6 118.2v.8l1.2.5v.7l1.2-.4.6-.5 1.3.8.5.6.3 1-.3.5.4.7.3 1v.6l.4 1.2-.5.2-.3-.2-.3.3-.8.4-.4.5-.8.4.2.5v.8c.1 0 .7.4.7.4l.7.8-.4.8-.4.2.2 1.1v.3c-.1 0-.5-.4-.5-.4h-.6l-.8.3h-1l-.2.4-.6-.5h-.4l-1.2-.4-.2.4h-1l.1-1.2.6-1.2-1.7-.3-.5-.5v-.8l-.2-.4v-1.2c.1 0 0-1.9 0-1.9h.7l.3-.7.3-1.7-.2-.7.2-.4h1c0-.1.2.3.2.3l.8-1-.3-.7v-1.1l.8.3.7-.3Z"/><path id="DJ" d="m294 179.8.3.4v.5l-.7.3.5.3-.4.6-.3-.2h-.9v-.4l-.1-.3.4-.6.4-.5h.5c0 .1.4-.2.4-.2Z"/><path id="DK" d="m258.8 116.9-.7 1.6-1.2-1.1-.2-.8 1.7-.7zm-2.1-1.7-.3.8-.3-.2-.8 1.5.3 1-.7.3-.9-.3-.5-1.1v-2.1l.2-.6.3-.6h1c0-.1.4-.7.4-.7l.9-.6v1.1l-.4.7v.6c.1 0 .8.3.8.3Z"/><path id="DO" d="M160.9 171.3v-.2h1.1l.7.3h.3l.2.4h.6v.3h.5l.6.5-.4.5-.6-.3h-.9l-.2.2h-.4l-.2-.2-.4.2-.5.8-.3-.2v-.6l-.3-.4.3-.2v-1.2Z"/><path id="DZ" d="m258 166.7-4 2.4-3.4 2.4-1.6.5h-1.3v-.7l-.5-.2-.7-.4-.3-.6-3.9-2.7-3.9-2.8-4.4-3.1v-1.9l1.9-1 1.2-.2.9-.4.4-.7 1.4-.5v-1l.7-.1.5-.5 1.5-.2.2-.5-.3-.3-.4-1.5v-.8l-.5-.9 1.1-.8 1.3-.2.7-.6 1.1-.4 2-.3h1.9c0-.1.6 0 .6 0l1.1-.6h1.2l.5.3h.8l-.2.7.2 1.4-.3 1.2-.7.8v1c.1 0 1.1.8 1.1.8v.3l.7.6.5 2.4.4 1.2v.6l-.1 1.1v2.1c.1 0-.4.5-.4.5l.7.9v.5l.5.7.5-.2.9.6.5.8Z"/><path id="EC" d="m150.9 198.4.6-.9-.3-.5-.4.5-.7-.5.2-.3-.2-1 .4-.2.2-.7.4-.7v-.5l.6-.2.8-.5 1.2.7h.2l.3.5 1 .2.3-.2.6.4.5.3.2.9-.4.7-1.3 1.2-1.4.5-.7 1-.2.8-.7.5-.5-.6h-.5c0-.1-.5 0-.5 0v-.4l.3-.3v-.5Z"/><path id="EE" d="M272.3 112.3V111c.1 0-.3.3-.3.3l-.7-.8v-1.3c-.1 0 1.4-.6 1.4-.6l1.5-.3 1.3.4h1.2l.2.3-.8 1.3.3 2.1-.5.7h-1l-1-.8-.5-.3-1 .4Z"/><path id="EG" d="m284.6 158.9-.3.5-.2 1-.3.7-.3.2-.4-.4-.5-.6-.8-1.9h-.1c0 .1.5 1.5.5 1.5l.7 1.3.9 2 .4.7.4.7 1 1.4-.2.2v.8l1.4 1.1.2.3h-13.8v-9.3l-.3-1.1.3-.8-.2-.6.4-.6h1.5l1.1.3 1.2.4.5.2.9-.4.5-.4h1c0-.1.8 0 .8 0l.3.7.3-.4.9.3h.9l.6-.3.8 2.3Z"/><path id="ER" d="m293.2 180-.4-.4-.5-.7-.5-.4-.3-.4-1-.5h-.8l-.3-.3-.7.3-.7-.5-.4.9-1.3-.2v-.5c-.1 0 .4-1.8.4-1.8v-.8c.1 0 .5-.4.5-.4l.9-.2.6-.7.7 1.4.3 1.1.6.6 1.6 1.1.6.7.6.7.4.4.6.4-.4.3h-.5Z"/><path id="ES" d="M233.6 141.2v-1.1l-.4-.7 1.6-1.1 1.4.3h1.6l1.2.3h2.9l.5.6 2.1.7.4-.3 1.3.7 1.3-.2v.9l-1 1-1.5.3v.5c-.1 0-.8.8-.8.8l-.4 1.2.5.8-.7.7-.2 1-.9.3-.8 1.1h-2.6l-.7.5-.4.5h-.6c0-.1-.4-.6-.4-.6l-.3-.8-1.1-.2v-.5l.3-.5.2-.4-.4-.4.3-1-.5-.9h.5v-.8l.2-.2v-1.2l.6-.4-.3-.8h-.7l-.2.1h-.7l-.3-.8-.5.2-.4.4Z"/><path id="ET" d="m288 177.1.7.5.7-.3.3.3h.8l1 .5.3.4.5.4.5.7.4.4-.4.5-.4.6v.3l.1.4h.9l.3.2-.3.4.4.6.4.6.4.4 3.8 1.4h1l-3.3 3.5h-1.5l-1 .9h-.7l-.3.4h-.8l-.5-.4-1.1.5-.3.5h-.8l-.3-.2h-.7l-1.5-1h-.8l-.4-.4v-.6l-.6-.2-.7-1.3-.5-.3-.2-.5-.6-.6h-.7l.4-.7h.6l.2-.4v-1l.3-1.2.5-.3v-.5c.1 0 .6-.9.6-.9l.7-.6.5-1.2.2-1 1.3.2.4-.9Z"/><path id="FK" d="m173.1 264.7 1.4-1.1 1 .5.7-.7.9.8-.3.7-1.6.6-.5-.7-1 .8-.6-.8Z"/><path id="FI" d="m277.2 82.7-.2 2.2 1.8 2.1-1.1 2.3 1.3 3.3-.8 2.4 1 2-.5 1.7 1.7 1.8-.4 1.3-1.1 1.4-2.5 3.1-2.1.2-2 .9-1.9.5-.7-1.3-1.1-.8.3-2.4-.6-2.2.6-1.5 1.1-1.6 2.7-2.9.8-.6v-1.2c-.1 0-1.7-1.3-1.7-1.3l-.4-1.1v-4.6l-1.8-2.1-1.5-1.6.7-.9 1.3 1.7 1.5-.2 1.2.8 1.1-1.4.6-2.4 1.8-1.2 1.5 1.3-.5 2.3Z"/><path id="FJ" d="M453.1 213.2v.6h-.2l-.7.3-.7.3v-.5c-.1 0 .4-.2.4-.2h.4l.7-.4h.2Zm-2.4 1.8h-.5c0-.1-.4.3-.4.3v.5c.1 0 .8.1.8.1l.7-.2.2-.6-.4-.3-.3.2Z"/><path id="FR" d="m255.1 140.8-.4 1.2-.5-.3-.3-1 .2-.6.7-.6.2 1.3Zm-6.9-13.8.8.9h.6c0-.1 1 .7 1 .7l.3.2h.3l.5.4 1.7.3-.6 1.2v1.2c-.1 0-.5.3-.5.3l-.5-.2v.4l-.8 1v.8l.5-.3.4.7v.5l.3.6-.4.5.3 1.3.6.2v.7c-.1 0-1.2.9-1.2.9l-2.3-.4-1.7.5v.9c-.1 0-1.5.2-1.5.2l-1.3-.7-.4.3-2.1-.7-.5-.6.6-1 .2-3.3-1.2-1.8-.9-.9-1.8-.7v-1.3c-.1 0 1.4-.4 1.4-.4l1.9.5-.4-2 1.1.8 2.7-1.4.3-1.5 1-.4.2.6h.5l.5.8Z"/><path id="GA" d="m256.9 199.1-1.2-1.2-.8-1-.7-1.2v-.4l.3-.4.3-.8.2-.9h2.1v-1.4h.5l.7.2h.7c0-.1.1 0 .1 0v.5l.2.6h.9l.3.1-.5 1.3.5.7v.9c.1 0 0 .8 0 .8l-.4.5h-1l-.6-.6v.5l-.9.1-.4.3.4.8-.9.6Z"/><path id="GB" d="m237.5 119.1-.6 1.4-.9-.4h-.7l.2-1-.2-1.1h1l1.2 1.2Zm3.1-8.6-1.2 2.4 1.2-.3h1.3l-.3 1.8-1 1.9h1.2v.3l1 2.4.8.3.7 2.2.3.8 1.4.4v1.2c-.1 0-.7.6-.7.6l.5 1-1 1h-1.6l-2 .5-.5-.4-.8.9-1.1-.2-.8.7-.6-.4 1.7-1.9 1-.4-1.8-.3-.3-.7 1.2-.6-.6-1 .2-1.3 1.7.2.2-1.1-.8-1.2-1.4-.4-.3-.5.4-.9-.4-.6-.6 1v-2l-.7-1.1.4-2.2.9-1.8.9.2 1.4-.2Z"/><path id="GE" d="m292.2 141.8.2-.7-.3-1.1-.7-.6-.6-.2-.4-.5v-.2c.1 0 1.1.3 1.1.3l1.7.3 1.6.8.2.3.7-.2 1.1.3.4.6.7.4-.3.2.6.8-.2.2h-.6l-.9-.5-.3.2-1.6.2-1.1-.8h-1.2Z"/><path id="GF" d="m183.1 191.6-.4.4h-.6l-.2-.2h-.3l-.4.3-.5-.2.3-.5v-.5l.3-.5-.5-.7v-.8l.5-1h.4c0 .1.9.4.9.4l1.2 1 .2.5-.7 1.1-.4.9Z"/><path id="GH" d="m245.3 187.7-1.8.7-.6.4-1 .3-1-.3v-.5l-.4-1 .3-1.3.5-1-.3-1.7-.2-.9v-.7h2.5l.4-.1h.5v.5l.5.6v1.8c.1 0 .4.4.4.4l-.3 1v.6l.4.7.3.4Z"/><path id="GL" d="m189.8 12.7 3.9-5.6 4.1.4 1.5-3.7 4.1-1 9.3 1.3 7.3 7.7-2.1 3.4-4.4.4-6.2.8.6 1.5 4.1-.9 3.5 2.9 2.3-2.5 1 3-1.3 4.5 3-2.9 5.6-3.1 3.5 1.6.6 3.4-4.7 5.2-.7 1.6-3.7 1.2 2.7.3-1.4 4.8-.9 4v6.3l1.4 3.5-1.8.2-1.9 1.6 2.1 2.6.3 4-1.2.4 1.5 3.8-2.6.3 1.3 1.7-.4 1.5-1.6.6H217l1.5 2.7v1.7l-2.3-1.6-.6 1 1.6.9 1.5 2.3.4 2.9-2.1.7-.9-1.3-1.4-2.1.4 2.4-1.3 1.8h3.1c0 .1 1.6.3 1.6.3l-3.1 2.9-3.2 2.5-3.4 1.1h-1.3l-1.2 1.2-1.6 3.2-2.5 2h-.8c0 .1-1.5.8-1.5.8l-1.7.7-1 1.7v1.9l-.6 1.7-1.9 2 .5 1.9-.5 2-.6 2.3h-1.6c0 .1-1.7-1.8-1.7-1.8h-2.3l-1.1-1.3-.8-2.4-2-3.2-.6-1.7-.2-2.4-1.6-2.6.4-2.1-.8-1 1.1-3.6 1.7-1.2.5-1.3.2-2.6-1.3 1.2-.6.5-1 .5L181 81v-2.3l.4-1.9h1.1l2.4.9-2-2.2-1-1.2-1.2.5-1-.9 1.3-3.5-.7-1.5-.9-2.8-1.4-4.5-1.5-1.7V58l-3.1-2.8-2.5-.4-3.1.2-2.8.4-1.3-1.6-2-3.2 3-1.6 2.3-.3-5-1.4-2.6-2.3.2-2.2L164 40l4.2-3 .4-2.3-3.1-2.4 1-2.7 4-5.1 1.7-.8-.5-3.5 2.7-2.2 3.6-1.3h3.6l1.3 2.5 3.1-4.7 2.8 3.2 1.6.7 2.4 2.7-2.8-4.5.2-3.8Z"/><path id="GM" d="M224.5 179.2v-.5h1.4l.3-.3h.4l.5.3h.4l.4-.2.2.3-.5.3h-.5l-.5-.3-.4.3h-.2l-.3.2h-1.1Z"/><path id="GN" d="M234.3 185.6h-.3l-.2.4h-.3l-.2-.3v-.5l-.4-.7h-.3c0 .1-.2.2-.2.2h-.3v-.4l-.2-.3v-.3l-.2-.5-.3-.4h-.9l-.3.2h-.3l-.2.3v.3c-.1 0-.8.5-.8.5l-.5-.7-.5-.5h-.3c0-.1-.3-.4-.3-.4v-.5c-.1 0-.3-.3-.3-.3l-.3-.2.5-.6h.4l.3-.2h.3l.2-.2v-.9h.6l.8.3h.3v-.2h.8v.4h.3l.3-.2h.2l.3.3h.5l.3-.2.4-.2.3-.2h.2l.3.3v.3c.1 0 .6.5.6.5l-.2.3v.4l.2-.1h.1v.5l.4.3h-.2v.5l.3.5.3.9h-.4c0 .1-.1.3-.1.3v.7h-.2Z"/><path id="GQ" d="m255.1 193.4-.2-.2.4-1.3h1.9v1.4h-2.1Z"/><path id="GR" d="m271.5 150.4.6.5h1.8v.2l.6-.2v.4c-.1 0-1.8.1-1.8.1v-.2l-1.4-.3.2-.6Zm3.4-8.7-.4 1-.3.2h-.7l-.6-.2-1.4.4.8.9-.6.2h-.6l-.6-.8-.2.3.3.9.6.7-.4.3.6.7.6.4v.8l-.5-.5h-.5l.3.8h-.4l-.4-.2.5 1.6h-.2l-.2-.5h-.2l-.1.5h-.2v-.4l-.2-.4h-.3v.4l-.3-.2-.2-.4.2-.2v-.3c-.1 0-.3-.2-.3-.2h-.2l-.2-.4.2-.2v-.2h.4v-.2h.3l.3.2h.2l.2-.2h-.4l-.2-.1h-.5c0 .1-.5.1-.5.1l-.5-.7v-.4l-.6-.5v-.4l.5-.7v-.5l.4-.2v-.4l.8-.1.4-.3h.6l.2-.2h1.1l.9-.4.8.5h1.1v-.9z"/><path id="GT" d="m139.6 178.5-.6-.2h-.7l-.5-.3-.6-.5v-.3l.2-.3-.2-.2.6-1h1.5v-.4h-.2l-.1-.3-.4-.3-.4-.4h.5v-.7h2.2v2.4h.3l.4.2v-.2l.4.2-.5.5-.6.3v.4l-.2.3h-.3v.2h-.2c0 .1-.4.4-.4.4v.2Z"/><path id="GW" d="m226.5 181.7-.6-.5h-.5l-.3-.4v-.2l-.3-.2v-.3l.5-.2h2.8v.5h-.1v.5l-.2.2h-.3l-.3.2h-.4l-.5.6Z"/><path id="GY" d="m174.7 184.8.8.4.7.8v.6h.5l.6.6.5.4-.2 1-.7.3v.3l-.2.6.5.8h.4l.2.7.7 1h-.9l-.4.3-.5.2h-.4l-.1.3h-.6l-.7-.6v-.5l-.4-.6.2-1 .3-.4-.3-.5-.4-.2.2-.5-.3-.3h-.6l-.8-.8.3-.3v-.5l.7-.2.3-.2-.4-.4v-.4c.1 0 1-.7 1-.7Z"/><path id="HN" d="m142.8 179.4-.2-.4h-.4v-.6h-.2c0-.1-.2-.2-.2-.2h-.5c0 .1 0 0 0 0l-.4-.2-.2-.2h-.3l.2-.4v-.4l.6-.3.5-.5h.1l.3-.2h1.6l.4-.2h.1c0-.1.4 0 .4 0h.8c0-.1.5 0 .5 0h.2l.4.2.3.3.4.2.3.3h-.4l-.2.1-.4.2h-.3l-.3.2h-.2l-.2-.2h-.1l-.1.3h-.1v.2l-.4.3h-.2c0 .1-.1.3-.1.3l-.3-.2-.2.3h-.5v.6h-.1v.3h-.5Z"/><path id="HR" d="m265.9 134.8.3.6.4.5-.4.6-.5-.4h-.8l-1-.2h-.5l-.2.4-.4-.4-.2.7.6.8.2.5.5.6.4.4.4.7 1 .6v.3c-.1 0-1.2-.6-1.2-.6l-.7-.6-1.1-.5-1-1.2h.2c0-.1-.5-.8-.5-.8v-.6l-.8-.3-.4.7-.3-.6v-.6h.8l.2-.2.4.3h.5v-.4l.4-.2v-.7c.1 0 1-.4 1-.4l.4.2.9.7 1 .3z"/><path id="HT" d="M159.2 171.1h.7l1 .2v.7c.1 0 0 .5 0 .5l-.3.2.3.4v.3l-.8-.2h-1.2l-.5.2-.6-.4v-.4c.1 0 1.2.2 1.2.2h.9l.4-.2-.5-.5v-.5l-.7-.2.3-.3Z"/><path id="HU" d="m262.8 133.2.4-1.1-.2-.4h.7v-.7l.6.4.4.2 1-.2v-.3h.6l.6-.3h.1c0 .1.5-.1.5-.1l.3-.4h.4c0-.1 1.2.4 1.2.4l.2-.2.6.5v.5l-.6.4-.6 1.2-.7 1.1-.9.3h-.7l-.9.4-.4.2-1-.3-.9-.7-.4-.2-.2-.6h-.2Z"/><path id="ID" d="M384.1 206.4h-.5l-1.5-.8 1.1-.2.6.4.4.4v.3Zm4.3-.1-1 .3h-.1c0-.1.1-.5.1-.5l.5-.7 1.1-.5v.2c.1 0 .1.4.1.4l-.8.9Zm-7.6-2.4.4.3h.7l.3.4-1.3.2-.8.2h-.6l.4-.7h.6zm5.8 0-.2.6-1.7.3h-1.5v-.6l.9-.2.7.3h.8l1-.5Zm-16.6-1.5h2.2c0 .1.3-.4.3-.4l2.2.6.4.8 1.7.2 1.4.7-1.3.4-1.3-.5h-2.3l-1.1-.2-1.3-.4h-.9c0-.1-.5 0-.5 0l-2.1-.5-.2-.5h-1.1l.8-1.2h1.4l.9.5h.5l.2.5Zm30.3-.7-.6.8v-.9c-.1 0 0-.4 0-.4l.2-.4.3.3v.6Zm-8.7-3.2-.4.4-.8-.2-.2-.5h1.2l.3.3Zm3.8-.4.4.9-1-.5h-2.5l.3-.7h1.4l1.3.3Zm4.2-2.3.3 1.9 1.2.7 1-1.2 1.3-.7h1l1 .4.9.4 1.2.2v7.6l-1-1-1.2-.2-.3.3h-1.5l.5-.9.7-.3-.3-1.3-.6-1-2.3-1h-1l-1.7-1.2-.3.6h-.4c0 .1-.3-.3-.3-.3v-.5l-.9-.6 1.2-.4h.8v-.3h-1.7l-.5-.7-1-.2-.5-.6 1.6-.3.6-.4 1.9.5.2.4Zm-10.3-2.9-.9 1.1-.9.2-1.1-.2h-1.9l-1 .2-.2.9 1 1 .6-.5 2.2-.4v.5l-.6-.2-.5.7-1 .4 1.1 1.5-.2.4 1 1.3v.8l-.6.3-.5-.4.6-.9-1.1.4-.3-.3v-.4c.1 0-.7-.7-.7-.7v-1.1l-.7.4v1.3l.1 1.7-.7.2-.5-.3.3-1.1-.2-1.1h-.5l-.4-.8.5-.8.2-.9.6-1.7.2-.5 1-.9.9.3 1.5.2h1.3l1.1-.9.2.3Zm4 .3v1l-.7-.1-.2.7.5.6h-.3c0 .1-.5-.6-.5-.6l-.3-1.5.2-.9.4-.4v.6h.8v.5Zm-12.5-.8 1.3 1.1h-1.4c0 .1-.4.9-.4.9v1l-1.1.8v1.1l-.5 1.8-.2-.4-1.3.5-.5-.7h-.8l-.6-.4-1.4.4-.4-.6h-1.8l-.2-1.5-.6-.3-.6-1-.2-1V193c.1 0 .8-.8.8-.8l.2.8.8.6.7-.2h.7l.7-.5h.6l1.1.2.9-.2.6-1.6.4-.4.4-1.3h1.3l1 .2-.7 1 .9 1.1-.2.5Zm-14 8.9h-1.3l-1-.9-1.5-.9-.5-.7-.9-.9-.6-.9-.9-1.6-1-1-.3-1-.4-.9-1-.7-.6-1-.9-.6-1.2-1.3v-.6h.6l1.8.2 1 1.1.9.8.6.5 1.1 1.2h1.2l1 .8.7 1 .9.5-.5.9.7.4h.4l.2.8.4.6h.9c0 .1.6.8.6.8l-.3 1.4v1.8Z"/><path id="IE" d="m236.9 120.4.2 1.4-.9 1.7-2.1 1.1-1.6-.3.9-2-.6-2 1.6-1.6.9-.9.2 1.1-.2 1.1h.7z"/><path id="IL" d="m285.5 154.6-.2.4-.4-.2-.2.9h.3c0 .1-.3.3-.3.3v.4l.5-.2v.5l-.6 2.1-.8-2.3.3-.4.3-.7.2-1 .2-.3h.4v-.2h.4v.6l-.1.2Z"/><path id="IN" d="M357 161v-.5l-1.3-.2.4-.6-.5-.8-.8.6-1-.3-1.3.8-1.1 1-.9.2.5.4v.8h-2l-.7.1-1.1-.5v-.3l-.1-1-.7.3v1.9h-1.1l-1.4-.3h-.9c0-.1-.7-.8-.7-.8l-1.6-.2-1.5-.7-1.1-.6-1.1-.5.5-1.2.7-.6-1.6-.9-1.1-.9-.3-1.5.8.2v-.7l-.4-.7v-.7h.6l.7-1 .4-1.1-1.2-.6-1.6.6-1.9-.6-.3-1.1-.9-.7-.7.2-.6.3h-.5v.1l-1.3 1v.5h.5l1.3 1.1-.8.7.2 2 1 .4.9.7-1 .8v1l-1.1 1.3-.7 1.3-1.2 1.4h-1.3l-1.3 1.3.8.6v1c.1 0 .8.6.8.6l.2 1.1H324l-.8.8 1.4 1.1.3.5-.6.5 1.5 1.5h.8c0 .1 1.7-.6 1.7-.6l.2 1.2v1.5l.3 1.6.5 2.3 1.1 1.6.2.7.3 1.5.6 1.1.4.6.4 1.2.5 1.6 1.1 1.1.5-.3.4-.8 1.1-.3-.4-.4.5-.9h.6v-2.1l.5-1.1v-1l-.3-1.6.3-.9h.5l1-.5.6-.3v-.6l1.2-.8.9-.8 1.3-1.4 1.7-.8.6-.7v-.9l1.4-.3h.8l.2-.4-.2-1-.4-.9.2-.8-.7-.3.3-.5.7-.5-.8-.7.4-.9.9.6h.6l.1 1 1.1.2h1.1l.7.2-.5 1.1h-.5l-.4.8.6.7.2-.8h.3l.6 2 .6-.3v-.5c-.1 0 .1-.4.1-.4v-1.3l1 .3.5-1v-.6l.7-1.1v-.7l1.5-.9.8.2v-.8l.3-.2Z"/><path id="IQ" d="m296.7 150 .8.4v.8l-.5.5-.3 1.1.8 1.3 1.4.8.6 1-.2 1h.4v.7l.7.7h-.7l-.8-.2-.9 1.3h-2.2c0-.1-3.3-2.8-3.3-2.8l-1.7-.9-1.4-.4-.5-1.7 2.6-1.4.4-1.7v-1c-.1 0 .5-.4.5-.4l.6-.9.5-.2 1.3.2.4.4.6-.2.8 1.7Z"/><path id="IR" d="m306.6 148.3 1-.3.8-.8h.8l.5-.2h.8c0 .1 1.3.9 1.3.9l.9.2 1.3 1.3h.9l.1 1.3-.5 1.8-.3 1 .5.2-.5.8.4 1.1v.9l1 .2v.9l-1 1.2.6.7.5.8 1.1.6v1.1l.6.2v.6l-1.6.7-.4 1.5-2.2-.4-1.3-.3-1.3-.2-.5-1.6-.6-.2-.9.2-1.2.6-1.4-.4-1.2-1-1.1-.4-.8-1.2-.9-1.8-.6.2-.7-.4-.4.5-.6-.7v-.7h-.4l.2-1-.6-1-1.4-.8-.8-1.3.3-1.1.6-.5v-.8l-.8-.4-.8-1.7-.6-1.2.2-.5-.4-1.7.8-.4.2.6.6.7.8.2h.4l1.4-1.1h.4c0-.1.3.3.3.3l-.4.7.7.8h.3l.4 1 1.1.3.8.7 1.6.2 1.8-.4v-.3Z"/><path id="IS" d="m227.2 90.7-.3 1.9 1.3 1.9-1.5 2.1-3.3 1.8-1 .5-1.5-.4-3.2-.8 1.1-1.2-2.5-1.3 2.1-.5v-.8l-2.5-.6.8-1.8 1.8-.4 1.8 1.9 1.8-1.6 1.5.8 1.9-1.5 1.9.2Z"/><path id="IT" d="m262.1 146.7-.4 1.2.2.5-.2.7-.9-.5-.6-.2-1.6-.7.2-.8h1.4c0 .1 1.2 0 1.2 0h.9Zm-7.4-4.4.7 1.1-.2 2h-.5l-.5.4-.4-.4v-1.8l-.3-.9h.6zm3.7-9 1.7.4v.8c-.1 0 .2.7.2.7l-.9-.2-.9.6v1.3l.4.8 1.1.8.6 1.3 1.3 1.3h.9l.3.3-.3.3 1 .6.9.5 1 .8v.3c.1 0 0 .5 0 .5l-.6-.7-1-.2-.5 1 .8.6v.8h-.6l-.6 1.3h-.5v-.3l.2-.8.3-.3-.5-.9-.4-.8-.5-.2-.3-.7-.7-.3-.5-.6h-.9l-.9-.8-1.1-1-.8-.9-.4-1.6-.6-.2-.9-.5-.5.2-.7.7h-.5c0 .1.1-.6.1-.6l-.6-.2-.3-1.3.4-.5-.3-.6v-.5l.6.4h.6l.6-.6.2.3h.6l.3-.7.9.2.5-.3v-.7l.8.2v-.3c.1 0 1.3-.3 1.3-.3l.2.6Z"/><path id="JM" d="M154.1 172.8h.8c0 .1.6.4.6.4l.2.3h-.8l-.4.2-.6-.2-.7-.4v-.3h.9"/><path id="JO" d="m285.3 155 .2-.4 1.3.5 2.3-1.5.5 1.7-.2.2-2.3.7 1.2 1.3-.4.2-.2.5-.9.2-.3.5-.5.4-1.3-.2v-.2l.5-2.1v-.5l.1-.4v-.8Z"/><path id="JP" d="M400.2 152.6v.5c.1 0-.5.8-.5.8l-.5-.4-.6.3-.3.8-.8-.4v-.7l.6-.8.7.2.5-.6zm7.4-4.3-.4 1.2.2.7-.6 1-1.5.7h-2l-1.7 1.7-.8-.5v-1l-2.1.3-1.4.7h-1.4l1.2 1-.8 2.3-.7.6-.6-.5.3-1.2-.7-.4-.5-.9 1.1-.4.6-.9 1.2-.7.9-1 2.3-.4 1.2.3 1.2-2.6.8.7 1.7-1.5.7-.6.7-1.8-.2-1.7.5-1 1.2-.3.6 2.1v1.2l-1.1 1.5v1.5Zm3.4-10.7.8.3.8-.7.3 1.8-1.7.4-1 1.6-1.8-1.1-.6 1.7h-1.3l-.2-1.5.6-1.2h1.2l.3-2.3.3-1.3 1.4 1.7.9.5Z"/><path id="KE" d="m291.6 195.5.7.9-.8.5-.3.5h-.4l-.2.9-.4.5-.2.8-.5.4-1.7-1.2v-.7l-4.3-2.3h-.2v-1.3l.3-.5.6-.8.4-.8-.5-1.3v-.6c-.1 0-.7-.8-.7-.8l.7-.7.8-.8.6.2v.6l.4.4h.8l1.5 1h1c0 .1.8.2.8.2l.3-.5 1.1-.5.5.4h.8l-1 1.3v4.2Z"/><path id="KG" d="m326.4 140.6.3-.7.8-.2 1.9.5.2-.9.7-.3 1.7.7.4-.2h1.9l1.7.2.6.6.7.2-.2.4-1.8.8-.4.6-1.5.2-.4 1-1.2-.2-.8.3-1.1.7.2.4-.3.3-2.2.2-1.4-.5h-1.3c0 .1.1-.8.1-.8l1.3.3.4-.5h.9c0 .1 1.5-.9 1.5-.9l-1.4-.8-.8.4-.9-.6 1-1-.3-.2Z"/><path id="KH" d="m364.1 182.2-.5-.6-.6-1.2-.3-1.4.7-1 1.5-.2 1.1.2 1 .5.5-.8 1 .4.3.8v1.4c-.1 0-2.1.9-2.1.9l.5.7H366l-1 .6-1-.2Z"/><path id="KP" d="m395.6 140.4.2.3h-.4l-.5.4-.3.5v1.1l-.6.3-.2.3-.4.4-.8.2-.5.4v.6l-.2.2.5.2.7.7-.2.4h-.5l-.8.2-.5.7h-.5l-.6-.3v.3c-.1 0-.5.1-.5.1v-.3l-.3-.1-.3-.2.3-.6.3-.2v-.3c-.1 0 .2-.8.2-.8v-.2l-.8-.2-.5-.4.9-1 1.3-.8.8-1.1.6.5h1l-.2-.8 1.8-.7.5-.9.7.9Z"/><path id="KR" d="m392.9 146.2 1 1.7.3.9v1.6l-.4.8-1.1.3-.9.6h-1c0 .1-.1-.6-.1-.6l.2-1.1-.5-1.5.9-.2-.8-1.2c0-.1.5 0 .5 0l.5-.7h.8l.5-.2.2-.4Z"/><path id="XK" d="M268.1 141v.3h-.2v-.6l-.4-.2-.2-.4.2-.4h.3c0-.1.2-.6.2-.6h.2l.2.1h.2l.1.4h.2l.2.4h.2l-.1.4v.2c-.1 0 0 .1 0 .1h-.3l-.7.3Z"/><path id="KW" d="m299.7 158.3.2.6v.3c-.1 0 .3 1 .3 1h-.8l-.3-.6h-1c0-.1.9-1.4.9-1.4h.8Z"/><path id="KZ" d="m326.4 140.6-.7.3-1.5 1.1-.5 1.1h-.4l-.3-.7h-1.5l-.2-1.3h-.6v-1.6l-1.4-1.2h-2c0 .1-1.4.4-1.4.4l-1.1-1.4-.9-.6-1.8-1.2h-.2c0-.1-3 .8-3 .8v5.8h-.6l-.8-1.2-.8-.4-1.3.3-.5.5v-.4l.2-.6-.2-.5-1.3-.5-.5-1.4-.6-.4v-.5l1.1.2V136l1-.3 1 .2.2-1.6-.2-1h-1.2l-1-.3-1.3.7-1.1.4-.6-.3v-.9c.1 0-.6-1.1-.6-1.1h-.9l-1-1.1.7-1.3-.3-.4.9-2 1.2 1v-1.3c.1 0 2.5-2 2.5-2h1.8l2.6 1.2 1.4.7 1.2-.8h1.8l1.5.9.3-.5h1.6l.3-.8-1.9-1.3 1.1-.9-.2-.5 1.1-.5-.8-1.3.5-.7 4.3-.7.6-.5 2.9-.7 1-.8 2.1.4.4 2.1 1.2-.5 1.5.7v1.1l1-.1 2.9-1.9-.4.6 1.5 1.5 2.6 4.8.6-1 1.6 1.1 1.7-.5.6.3.6 1.1.8.3.5.8 1.5-.2.6 1.1-.9 1.2-1 .2v1.7l-.7.8-2.3-.6-.8 3-.6.4-2.3.7 1 2.8-.8.4v.9l-.6-.2-.6-.6-1.7-.2h-1.9l-.4.1-1.7-.7-.7.3-.2.9-1.9-.5-.8.2-.3.7Z"/><path id="LA" d="m366.1 177.9.4-.5v-1l-.9-1v-1.2l-1-1h-.9l-.2.3h-.7l-.3-.2-1.2.7v-1.1l.3-1.3h-.8v-.8l-.5-.4.2-.5 1-.8v.3h.7l-.2-1.4.6-.2.7 1 .5 1.1h1.4l.5 1.1-.7.3-.3.4 1.4.7 1 1.4.7 1.1.9.8.3.8-.2 1.2-1-.4-.5.8-1-.5Z"/><path id="LB" d="M285.6 153.8h-.3l-.1.3h-.4l.4-1.1.6-1h.5l.2.5-.6.5z"/><path id="LK" d="m338.9 185.8-.2 1.2-.5.3-1 .3-.6-.9-.2-1.7.5-1.9.8.6.5.8.6 1.2Z"/><path id="LR" d="M235.1 189.5h-.3l-1.2-.5-1.1-.9-1-.6-.8-.7.3-.4v-.3l.6-.6.5-.5h.2l.3-.2.5.7v.5l.1.2h.3l.2-.5h.3v1c.1 0-.1.5-.1.5l.3.3h.4l.5.6v1.6Z"/><path id="LS" d="m277.7 229.4.4.4-.4.6-.2.4-.6.2-.2.4h-.4c0 .1-.9-.9-.9-.9l.6-.8.6-.5.5-.3.5.4Z"/><path id="LT" d="M270.4 119.5v-1.1l-.5-.3-1.2-.4-.2-1.7 1.3-.6h1.9c0 .1 1.1 0 1.1 0l.2.4h.6c0 .1 1.1 1.1 1.1 1.1v.9c.1 0-.8.6-.8.6l-.3 1.1-1.3.7h-1.1l-.3-.6-.6-.2Z"/><path id="LU" d="m251.1 127.5.2.4v.8h-.4l-.3-.2v-1h.4Z"/><path id="LV" d="M268.5 116.1v-1.6l.6-1.3 1.1-.7.9 1.6h.9l.2-1.7 1-.4.5.3 1 .8h1l.6.5v1l.5 1.2-1.2.8-.7.3-1.1-1h-.6c0-.1-.2-.6-.2-.6l-1.1.2H270c0-.1-1.3.5-1.3.5Z"/><path id="LY" d="m261.3 167.4-.8.5-.7-.7-1.8-.5-.5-.8-.9-.6-.5.2-.4-.7v-.5l-.7-.9.5-.5v-.8c-.1 0 0-.7 0-.7v-.6l.1-1.1v-.6l-.4-1.2.6-.3v-1.2l.8-.5.4-.4.6-.4V154l1.4.5h.5c0-.1 1 .1 1 .1l1.5.6.5 1.2 1 .3 1.6.6 1.2.7.6-.3.6-.6-.3-1 .4-.7.8-.6.8-.2 1.6.3.4.6h.4l.4.2 1.2.2.3.4-.4.6.2.6-.3.8.3 1.1v11.7H272v.5l-4.6-2.4-4.6-2.4-1.2.7Z"/><path id="MA" d="m242.4 154.4-.4-1.5v-.8l-.5-.9h-.5l-1.2-.3h-1.1l-.7-.5h-.9l-.4.9-.8 1.5-.9.6-1.2.6-.7.9-.2.7-.4 1.2.3 1.7-1 1.1-.6.4-.9.9h-1.1c0 .1-.6.6-.6.6l-.7 1.3-.8.5-.4.8v.7l-.3.7-.4.2-.6.8-.4.9v.4l-.3.6-.4.3v.6l-.1.5.3-.4h4.5l-.2-1.8.3-.6h1.1v-3.4h3.8v-3.8l1.9-1 1.2-.2.9-.4.4-.7 1.4-.5v-1l.7-.1.5-.5 1.5-.2.2-.5z"/><path id="MD" d="m274.9 130.8.3-.3.8-.2.9.5h.5l.5.5v.6l.3.3.2.7.4.4v.2l.1.2h-.3c0 .1-.7 0-.7 0v-.2c-.1 0-.4.1-.4.1v.3l-.2.5-.2.6-.3.2-.2-.8v-.7c.1 0 0-.7 0-.7l-.7-1-.4-.7-.4-.5-.4-.2Z"/><path id="ME" d="M267 140.3v-.3l-.6.8v.5l-.2-.1-.3-.5-.5-.3v-.3c.1 0 .3-.9.3-.9l.4-.4h.2c0-.1.3.1.3.1l.2.2.4.2.4.3c0 .1-.2.5-.2.5h-.3Z"/><path id="MG" d="m301.5 209 .3.5.3.8.2 1.4.3.6v.6c-.1 0-.3.4-.3.4l-.4-.7-.2.4.2.9v.5c-.1 0-.4.3-.4.3v1l-.5 1.4-.6 1.7-.7 2.3-.4 1.7-.5 1.5-.9.3-1 .5-.7-.3-.9-.5-.3-.7v-1.1l-.5-1v-.9c-.1 0 0-.9 0-.9l.5-.2v-.4l.6-.9v-.8c.1 0-.2-.6-.2-.6l-.2-.8v-1.1l.3-.7.2-.8h.6l.6-.3.4-.2h.5l.7-.7 1-.7.3-.6-.2-.5h.5c0 .1.6-.7.6-.7v-.7l.4-.5z"/><path id="MK" d="M267.9 141.3h.1v-.3l.7-.2h.3l.4-.1h.5l.6.5v1h-.1l-.2.3h-.6l-.4.3h-.8c0 .1-.5-.2-.5-.2l-.2-.7v-.5Z"/><path id="ML" d="m229.9 177.5.4-.2.2-.7h.4l.8.3.7-.2h.4l.2-.2h4.7l.3-.9h-.2c0-.1-.6-5.4-.6-5.4l-.6-5.4h1.8l3.9 2.7 3.9 2.7.3.6.7.4.5.2v.8l1.3-.1v2.8l-.6.8v.7l-1.1.2h-1.6c0 .1-.4.5-.4.5h-1.4l-.3-.2-.6.2-1.1.5-.2.4-.9.5-.2.3-.5.2-.6-.2-.3.3-.2.8-.9 1v.4l-.3.5v.7l-.4.2h-.3c0 .1-.2-.4-.2-.4h-.3c0 .1-.2.1-.2.1l-.2.3h-.9l-.3-.2h-.1c0 .1-.4-.2-.4-.2v-.4h-.2v-.3l.2-.3-.5-.5v-.3c-.1 0-.4-.3-.4-.3h-.2l-.3.1-.4.2-.3.3h-.5l-.3-.4h-.2l-.3.1h-.2v-1.3l-.4-.3-.2-.7v-.7Z"/><path id="MM" d="m359.5 170.8-.7.5h-.8l-.5 1.4-.5.2.6 1.1.7.9.5.8-.4 1-.4.2.3.6.8.9v.7c.1 0 .1.6.1.6l.5 1.1-.6 1.1-.6 1.2v-.9c-.1 0 .2-.9.2-.9l-.4-.7v-1.3l-.4-.6-.4-1.4-.2-1.5-.5-1-.8.6-1.3.9h-.6c0-.1-.7-.4-.7-.4l.4-1.5-.2-1.1-.9-1.4v-.4c.1 0-.5-.2-.5-.2l-.8-1v-1l.3.2v-.9l.6-.3v-.5c-.1 0 .1-.4.1-.4v-1.3l1 .3.5-1v-.6l.7-1.1v-.7l1.5-.9.8.2v-.8l.3-.2v-.5h.6l.4.8.5.3v2.1l-1.1 1.1v1.5c-.1 0 1.1-.2 1.1-.2l.3 1.2.7.2-.3 1 .9.5.5.2.8-.4v.5l-1 .8-.2.5-.7.3Z"/><path id="MN" d="m345.8 129 1.2-.3 2.2-1.5 1.8-.9 1 .6h1.2l.8.9h1.2l1.7.5 1.1-1.3-.5-1.1 1.2-1.9 1.3.8 1.1.2 1.4.5.2 1.4 1.7.8 1.1-.3 1.5-.2 1.2.2 1.1.9.7.9h1.1l1.5.3 1.1-.4 1.5-.3 1.7-1.3.7.2.6.6h1.4c0-.1-.6 1.2-.6 1.2l-.8 1.7.3.7.7-.2 1.1.3.9-.6.9.6 1.1 1.2v.6c-.1 0-1-.2-1-.2l-1.7.2-.8.5-.8 1.1-1.8.6-1.2.9-1.2-.3h-.7c0-.1-.6.9-.6.9l.4.6.2.5-.8.5-.8.8-1.4.6h-1.7l-1.9.6-1.3.8-.5-.5h-1.4l-1.7-.9-1.1-.2-1.5.2-2.4-.4h-1.3l-.7-.9-.5-1.5-.7-.2-1.4-1-1.6-.2-1.4-.3-.4-.7.4-2-.8-1.4-1.7-.6-1-.9-.3-1.2Z"/><path id="MR" d="m229.9 177.5-.8-.8-.7-.9-.8-.3-.6-.4h-.6l-.6.3h-.6c0-.1-.4.3-.4.3v-.6l.2-.6v-1.1c.1 0 0-1.2 0-1.2v-.6c-.1 0 0-.6 0-.6l-.3-.6-.6-.5.3-.4h4.5l-.2-1.8.3-.6h1.1v-3.4h3.8v-1.9l4.4 3.1h-1.8l.6 5.4.6 5.2h.2c0 .1-.3 1-.3 1h-4.7l-.2.3h-.4l-.7.2-.8-.3h-.4l-.2.7-.4.2Z"/><path id="MW" d="m284.1 207.9-.3.9.3 1.5h.4l.4.4.5.9v1.5l-.4.3-.4.8-.8-.7v-.8l.2-.6v-.5l-.5-.3h-.3c0 .1-.7-.5-.7-.5l-.6-.3.4-1.1.4-.4-.2-1 .2-1 .2-.3-.3-1-.5-.5 1.1.2.2.3.4.5.3 1.6Z"/><path id="MX" d="m131.4 163.6-.5 1.1-.2.9v1.7l-.2.6.2.7.4.6.2 1 .8.9.3.7.5.6 1.2.3.5.5 1-.3h.9c0-.1.9-.3.9-.3l.7-.2.7-.5.3-.7v-1l.3-.4.8-.3 1.2-.3h1.7l.3.3v.6l-.7.7-.3.7.2.2-.2.5-.3.9-.3-.3h-.4l-.4.7h-.2c0-.1-.1 0-.1 0v.2h-2.2v.7h-.5l.4.4.4.3v.3h.3v.4h-1.5l-.6 1 .2.2v.3c-.1 0-.2.3-.2.3l-1.3-1.3-.6-.4-.9-.3h-.6l-.9.5h-.6c0 .1-.8-.2-.8-.2l-.9-.2-1.1-.6-.9-.2-1.3-.6-1-.6-.3-.3h-.6l-1.2-.5-.5-.6-1.2-.7-.6-.8-.3-.6h.4c0-.1-.1-.5-.1-.5l.3-.3v-.4l-.4-.6v-.5c-.1 0-.5-.6-.5-.6l-1-1.2-1.2-1-.6-.8-1-.5-.2-.3.2-.8-.6-.3-.7-.6-.3-.9h-.6c0-.1-.7-.8-.7-.8l-.5-.6v-.4l-.7-1-.4-1v-.5l-.8-.5h-.4l-.7-.3-.2.6.2.6v1c.1 0 .5.6.5.6l.9.9.2.3h.2l.1.5h.2l.2.8.4.3.2.5.7.7.4 1.2.3.6.3.6v.7h.6l.5.6.4.6v.2l-.5.5h-.2l-.3-.8-.8-.7-.8-.6-.6-.3v-.9l-.1-.7-.6-.4-.8-.6-.2.2-.3-.3-.7-.3-.7-.8h.5l.4-.5v-.6l-.8-.9-.7-.4-.4-.8-.4-.9-.5-1.1-.5-1.2h1.3c0-.1 1.5-.3 1.5-.3v.3c-.1 0 1.6.7 1.6.7l2.6 1h3.2v-.6h2l.4.5.6.4.7.6.4.7.3.7.6.4 1 .4.7-1h1l.8.5.6.9.4.8.7.7.3.9.3.6.9.4.8.3h.5Z"/><path id="MY" d="M361.3 187.4v.6l.9-.1.4-.5h.3c0 .1.7.8.7.8l.5.8v1.7c.1 0 .2.7.2.7l.4.3.5 1v.4h-.8l-1.1-.9-1.4-.9v-.6c-.1 0-.8-.8-.8-.8l-.2-1-.4-.6v-.8c.1 0-.1-.5-.1-.5l.2-.2.9.5Zm20.3 2-.9.4-1-.2h-1.3l-.4 1.3-.4.4-.6 1.6-.9.2-1.1-.3h-.6l-.7.7h-.7l-.7.2-.8-.6-.2-.8.8.4.9-.2.2-1 .5-.2 1.4-.2.8-.9.6-.7.5.6.2-.4h.6v-1.3l.9-.8.6-.9h.5l.6.6v.5l.8.3 1 .3v.5h-.9l.2.6Z"/><path id="MZ" d="M284.1 207.9h.9l1.4.2h.3c0-.1.8-.2.8-.2l.4-.4h.7l1.3-.4.9-.7.2.5v4.1l.2.6-.3.9-.5.8-.7.7-1.1.5-1.3.6-1.3 1.3-.4.2-.8.9-.5.3v.9l.5.9.2.7v.4h.2v1.2l-.2.6.3.2-.2.5-.5.5-1 .4-1.4.7-.5.5v.5h.4v.7h-1v-.6l-.3-.6v-.5l.1-1.4-.3-.9-.6-1.8 1.2-1.4.3-.9h.2c0-.1.1-.8.1-.8l-.2-.4v-.9l.3-.8V214l-.6-.4h-.6l-.2-.4-.5-.3h-1v-1.2c-.1 0 3.4-1 3.4-1l.7.6h.3c0-.1.5.2.5.2v.5l-.2.6v.8l.8.7.4-.8.5-.3v-1.5l-.6-.9-.4-.4h-.4l-.3-1.5.3-.9Z"/><path id="NA" d="m263 228.9-.9-1-.5-1-.3-1.3-.3-.9-.4-2v-1.5l-.2-.7-.5-.5-.6-1-.6-1.5-.3-.8-.9-1.2v-.9l.5-.2.7-.2h.8l.7.6h.2l4.7-.1.8.6 2.8.2 2.1-.5 1-.3h.8l.5.3-.7.4h-.4l-.7.5-.4-.5-1.8.4h-.9v4.4h-1.1v8.5l-1 .7h-.6l-.7-.2h-.5l-.2-.7-.5-.4-.6.6Z"/><path id="NC" d="m436.3 219.4 1 .8.6.6-.4.3-.6-.3-.8-.6-.7-.7-.8-.9-.2-.4h.5l.7.4.5.4.4.3Z"/><path id="NE" d="M246.5 180.7v-.8l-1.3-.3v-.6l-.7-.8-.2-.5v-.6h.8l.4-.4h1.6c0-.1 1-.3 1-.3v-.7l.7-.8v-2.8l1.6-.5 3.4-2.4 4-2.4 1.8.5.7.7.8-.5.3 1.9.4.3v.4l.5.4-.3.5-.4 2.5v1.6l-1.5 1.1-.5 1.6.5.4v.8h.7v.6h-.4v.4h-.3l-.8-1.3h-.3l-.9.6-.9-.3h-1.6l-.7.5h-.6l-1.4-.6-.6.3h-.6l-.4-.5-1.2-.4h-1.2c0 .1-.3.4-.3.4l-.2.7-.3.5v1.1l-1-.7h-.4l-.4.3Z"/><path id="NG" d="m253.9 189-1.2.4h-.4l-.4.2h-.9l-.6-.7-.4-.8-.8-.8h-1.9v-2.6l.2-.7.4-.4.6-.7v-.3c-.1 0 .1-.5.1-.5l-.3-.7v-.4l.1-1.1.3-.5.2-.7.3-.3h1.2c0-.1 1.2.3 1.2.3l.4.4h.6l.6-.3 1.4.6h.6l.7-.5h.7l.3-.1h.6l.9.4.9-.7h.3l.8 1.3h.2l.5.4v.2c-.1 0-.2.4-.2.4l-1 .9-.3.7-.2.6-.2.3-.2.8-.6.5-.2.6-.3.5v.5c-.1 0-.9.4-.9.4l-.6-.5h-.4l-.7.7h-.3l-.6 1.1-.3.8Z"/><path id="NI" d="m144.6 181.7-.4-.4-.5-.5-.3-.4-.5-.4-.6-.5v-.2c.1 0 .3.2.3.2l.4-.1v-.3h.3v-.6h.4l.2-.3.3.2h.1c0-.1.2-.3.2-.3l.4-.3v-.2h.1v-.3h.3l.2.2h.8l.4-.2.2-.2h.4v.8l-.3.4v.5c-.1 0-.2.5-.2.5v.8h-.2c0 .1-.1.6-.1.6v.3l-.2.3v.3l.2.2-.3.2h-.3l-.2-.3h-.7l-.8-.3-.2.2Z"/><path id="NL" d="M251.1 121.1h1l.2.7-.3 1.7-.3.7h-.7l.2 1.9-.6-.4-.7-.8-1.1.4h-.8c0-.1.6-.7.6-.7l1-2.8 1.6-.8Z"/><path id="NO" d="m276.7 75.5 3.6 2.6-1.5.9 1.3 2.1-2 1.3-.9.3.5-2.3-1.5-1.3-1.8 1.2-.6 2.4-1.1 1.4-1.2-.8-1.5.2-1.3-1.7-.7.9h-.7c0 .1-.2 2.2-.2 2.2l-2.2-.5-.3 1.7h-1.1l-.8 2.2-1.2 3.3-1.8 3.9.4.9-.4 1.1h-1.2l-.8 2.4v3.3l.8 1.2-.4 2.8-1 1.6-.5 1.3-.8-1.4-2.3 2.6-1.5.5-1.6-1.1-.4-2.4-.4-5.5 1.1-1.6 3.1-2.1 2.3-2.7 2.1-3.8 2.8-5.7 1.9-2.3 3.2-4.1 2.5-1.5 1.9.2 1.8-2.9 2.1.2 2.1-.7Z"/><path id="NP" d="M346.3 161v1.9h-1.1l-1.4-.3h-.9c0-.1-.7-.8-.7-.8l-1.6-.2-1.5-.7-1.1-.6-1.1-.5.5-1.2.7-.6.5-.3.9.4 1.2.9.6.2.4.6.9.3.9.6 1.3.3h1.4Z"/><path id="NZ" d="m444.7 246.3.3.6.8-.6.3.6v.6l-.4.7-.8 1.2-.6.6.4.8h-.9l-1 .6-.3 1.1-.7 1.7-.9.7-.6.5h-1.1l-.8-.6h-1.3c0-.1-.2-.7-.2-.7l.6-1.2 1.5-1.6.7-.3.8-.6 1-.8.7-.8.5-1.2.4-.4.2-.9.8-.7.3.6Zm1.9-7 .8 1.5v-1l.6.4.2 1.1.9.5h.8c0 .1.7-.4.7-.4l.6.2-.3 1.3-.4.9h-.9l-.3.4v.6c.1 0 0 .3 0 .3l-.4.8-.6 1-.9.6-.2-.4-.5-.2.7-1.3-.4-.8-1.2-.6v-.5l.9-.5.2-1.1v-.9l-.5-1v-.3l-.5-.6-.9-1.3-.5-1h.4c0-.1.6.7.6.7l.9.4.3 1.3Z"/><path id="OM" d="m312.3 169.6-.4.8h-.5l-.2.2-.2.6v.8c.1 0 0 .1 0 .1h-.5l-.7.5v.6c-.1 0-.4.3-.4.3h-.7l-.5.3v.5l-.6.3h-.6c0-.1-.8.3-.8.3h-.5l-.4-.8-.9-2 3.5-1.2.8-2.5-.5-.9v-.5l.4-.5v-.5l.5-.2-.2-.2v-.8h.7l.5.9.6.5.9.2.7.2.5.7.3.4.4.2v.3l-.4.7-.2.3-.5.4Zm-2.8-6-.2.2-.2-.4.3-.4h.1c0 .1-.1.6-.1.6Z"/><path id="PA" d="m153.7 186.2-.4-.3-.2-.6.3-.3h-.3l-.2-.5-.6-.3h-.5l-.2.5-.5.3h-.3l-.1.3.6.6h-.3c0 .1-.2.3-.2.3h-.5l-.2-.6v.2h-.5l-.2-.5h-.5l-.3-.2h-.5v.3l-.2-.2v-.2l.2-.2v-.2l.1-.1-.2-.2v-.5l.4-.1.4.4v.2h.5l.3.2h.6l.5-.4.7-.2.4-.3h.6v.2h.6l.5.2.4.3.4.3v.2c-.1 0 .1.7.1.7l-.2.3h-.4l-.1.5Z"/><path id="PE" d="m163.3 215.1-.3.6-.6.3-1.2-.7v-.5c-.1 0-2.4-1.2-2.4-1.2l-2.1-1.3-.9-.7-.5-1 .2-.3-1-1.6-1.1-2.2-1.1-2.3-.5-.5-.4-.9-.9-.8-.8-.5.4-.5-.6-1.1.4-.8.9-.7v.5c.1 0-.2.3-.2.3v.4h1c0 .1.5.7.5.7l.7-.5.2-.8.7-1 1.4-.5 1.3-1.2.4-.7-.2-.9h.3c0-.1.8.4.8.4l.4.5.5.3.7 1.2h.9c0 .1.6-.2.6-.2l.4.2h.7l.9.4-.7 1.2h.3l.6.6h-1l-.2.1-1 .2-1.3.8v.5l-.4.4v.6c.1 0-.6.3-.6.3v.5l-.3.2.5 1 .6.7-.2.5h.8l.4.7h1l1-.7v1.8l.5.1.7-.2 1 1.9-.3.4v1.8l-.5.6.2.4-.3.4.5 1-.7 1.3Z"/><path id="PG" d="M424.9 202.4h-.3c0 .1-.5-.3-.5-.3l-.5-.7-.2-.9h.2c0-.1.1.2.1.2l.4.3.6.7.5.4-.2.3Zm-4.6-1.6h-.6l-.2.4-.6.3-.6.3h-.6l-1-.3-.7-.3v-.4l1.1.2h.6l.2-.6h.2l.1.6h.7l.3-.5.6-.4v-.7h.6l.2.2v.6l-.4.7Zm-5.5 2.3 1 .8.8 1.2h.7v.5l.9.2-.3.2 1.2.5v.3h-.9l-.3-.3h-1c0-.1-1.2-.3-1.2-.3l-.9-.7-.7-.6-.6-1-1.5-.5-1 .3-.7.4v.9c.1 0-.8.4-.8.4l-.6-.2h-1.2v-7.6l2 .8 2.1.7.8.6.6.6.2.7 1.9.7.3.6h-1.1c0 .1.3.9.3.9Zm6.9-3.4-.4.3-.2-.7-.3-.4-.5-.4-.7-.5-.8-.3.3-.3.6.3.4.3.5.3.5.5.4.4v.6Z"/><path id="PH" d="M390.6 184.8v.8c.1 0 .2.7.2.7l-.4 1.1-.4-1.2-.5.6.4.9-.3.5-1.4-.7-.3-.8.4-.6-.7-.6-.4.5h-.5l-.9.6-.2-.3.5-1 .7-.3.6-.4.4.5.9-.3.2-.5h.8v-.9l.9.6v.6l.2.4Zm-2.7-2.2-.4.4-.4.7-.4.3-.7-.8.2-.3.3-.3v-.7h.8l-.2.8.9-1.1v1.1Zm-6.4 1.1-1.5 1.1.6-.8.8-.7.7-.8.6-1.2.2 1-.8.6zm3.9-3 .7.4h.7v.5l-.6.5-.7.4v-1.1l-.2-.6Zm4.2-.3.3 1.3-.9-.3v.4l.3.7-.6.3v-.8h-.4l-.2-.7h.7v-.4l-.7-.9h1.1l.3.5Zm-4.6-1.1-.3 1-.5-.6-.6-.9h1zm-.2-6.5.7.3.4-.3v.3c.1 0 0 .5 0 .5l.4.9-.3 1-.7.4-.2 1 .3.9h.6c0 .1.5 0 .5 0l1.4.7v.6c-.1 0 .3.3.3.3v.5c-.1 0-1-.6-1-.6l-.4-.6-.3.4-.7-.7-1.1.2-.6-.3v-.5l.4-.3-.3-.3v.4c-.1 0-.7-.7-.7-.7l-.2-.5v-1.1l.4.4v-1.9c.1 0 .5-1.1.5-1.1h.7Z"/><path id="PK" d="m329.4 154.1-.2-2 .8-.7-1.3-1.1h-.4l-.1-.5 1.3-1h-.8l-1.2.3-.7.6.3.6v.7c.1 0-.4.6-.4.6v.5l-.3.5h-1.1l.5.9-.7.4-.5.8v.8l-.4.4h-.4c0-.1-.9 0-.9 0v.4h-1l-.6.8v1.1l-1.6.6h-.8c0-.1-.2.2-.2.2l-.7-.2-1.2.2-1.9-.7.6.7.5.8 1.1.6v1.1l.6.2v.6l-1.6.7-.4 1.5 1.6-.2h1.9l2.1-.3.9 1 .3.9.8.3.8-.8h2.6l-.2-1.1-.6-.6v-1c-.1 0-.9-.6-.9-.6l1.3-1.4h1.3l1.2-1.3.7-1.3 1.1-1.3v-1l1-.8-.9-.7-1-.4Z"/><path id="PL" d="m261.5 125.7-.5-1.2v-.6l-.2-1-.4-.7.3-.5-.3-1 .8-.6 1.8-.9 1.5-.7 1.2.3v.5h1.2l1.4.2h2.1l.6.2.3.6v.9l.4.7v.8l-.7.4.4.9v.8l.6 1.6v.5c-.1 0-.7.2-.7.2l-1.1 1.5.3.8h-.3c0-.1-1.1-.8-1.1-.8l-.8.2-.5-.2-.7.4-.6-.6-.5.2c0-.1-.5-1-.5-1h-.9c0-.1-.1-.7-.1-.7l-.8-.2-.2.5-.6-.4v-.5l-.8-.2-.6-.6Z"/><path id="PR" d="M167.2 172.8h.6c0 .1.2.3.2.3l-.3.3h-1.6v-.7h1Z"/><path id="PS" d="M285.3 155v.8l-.2.4-.5.2v-.4l.3-.2h-.3c0-.1.2-1.1.2-1.1l.4.2Z"/><path id="PT" d="m233.6 141.2.4-.4.5-.2.3.8h.7l.2-.2h.7l.3.8-.5.4v1.2l-.2.2v.7l-.5.1.5.9-.3 1 .4.4-.2.4-.4.5v.5l-.4.4-.6-.2-.6.2.2-1.1v-.9c-.1 0-.6-.1-.6-.1l-.3-.6v-1l.6-.5v-.6l.3-.9v-.6l-.3-.6v-.5Z"/><path id="PY" d="m171.3 220.8.5-1.5v-.7l.6-1.1 2-.4h1.1l1.1.6v.4l.4.7v1.7l1.2.2.5-.2.8.3.2.4v1.1c.1 0 .2.5.2.5h.4l.4-.1.4.2v.7l-.2.8-.2.7-.2 1.1-1.1 1-.9.2-1.3-.2-1.2-.4 1.1-2-.2-.6-1.2-.5-1.4-.9-.9-.2-2.1-2Z"/><path id="QA" d="M303 165.1v-.9l.2-.7h.3c0-.1.4.3.4.3v.7l-.2.7h-.3l-.3-.2Z"/><path id="RO" d="m270.4 131.4.5-.4.7.2h.7l.5.4.4-.3.9-.2.3-.4h.5l.4.2.4.5.4.7.7 1v1.4l.2.8.5.3.5-.3.5.3v.4l-.5.3h-.4c0-.1-.3 1.8-.3 1.8l-.7-.2-.8-.6-1.4.4-.6.4h-1.7l-.9-.3h-.4c0 .1-.3-.5-.3-.5l-.2-.3.3-.3-.3-.2-.4.4-.7-.5v-.7l-.8-.4v-.5c-.1 0-.8-.7-.8-.7l.9-.3.7-1.1.6-1.2.7-.4Z"/><path id="RS" d="m268.3 135.6.7.4v.7l.8.5.4-.4.3.2-.3.3.2.3-.3.4v.6c.1 0 .7.7.7.7l-.4.5-.2.5v.2c.1 0 0 .2 0 .2h-.5l-.4.1c0-.1.1-.3.1-.3v-.4c.1 0 0 0 0 0l-.2-.3h-.2l-.1-.3h-.2l-.2-.3h-.2l-.2.6h-.3c0 .1 0 0 0 0l-.4-.3-.4-.2-.2-.2-.3-.3h.3l.2-.8-.6-.6.3-.7h-.4l.4-.6-.4-.5-.3-.6.9-.4h.7l.6.7v.5Z"/><path id="RU" d="m464.5 92.1-1.2 1.2-1.9.3v2.7l-.5.6h-1.1l-.9-1-1.5-.8-.3-1.2-1.2-.5-1.3.4-.6-1 .3-1.1-1.4.7.5 1.3-.7 1.2-1.5 1.2-1.5-.2 1 1.4.7 2.2.5.7v1c.1 0-.2.7-.2.7l-2.2-.5-3.2 1.9-1 .3-1.8 1.7-1.7 1.4-.4 1.1-1.7-1.6-3 1.8-.5-.9-1.1 1-1.6-.3-.4 1.5-1.4 2.2v.9l1.4.5-.2 3.1h-1.1l-.5 1.8.5.9-2 1-.4 2.2-1.7.5-.3 1.9-1.7 1.7-.4-1.3-.5-2.8-.6-4.4.6-2.9 1-1.3v-1l1.9-.5 2.1-2.8 2-2.4 2.1-1.9.9-3.5-1.4.2-.7 2-2.9 2.6-1-3-3 .8-2.9 4 1 1.4-2.6.6-1.8.2v-1.6l-1.7-.3-1.4 1.1-3.5-.4-3.8.7-3.8 4.3-4.4 4.9 1.8.3.6 1.2 1.1.4.7-1h1.3c0 .1 1.7 2.3 1.7 2.3v1.6l-.9 1.9v2.2l-.6 2.8-1.7 2.5-.4 1.2-1.6 1.9-1.6 1.9-.7.9-1.5.9h-.7l-.7-.7-1.6 1.2-.2.5-.2-.3v-.8h.6l.2-1.9-.3-1.4 1-.6 1.4.3.8-1.6.4-1.8.5-.6.6-1.6-1.9.5-1 .7h-1.8l-.5-1.6-1.4-1.3-2-.6-.4-1.8-.4-1.1-.4-.8-.7-1.9-1-.7-1.7-.6h-1.5l-1.4.4-1 1 .6.5v1l-.6.6-1 2v.8l-1.6 1.1-1.4-.7h-1.4c0 .1-.6-.5-.6-.5l-.7-.2-1.7 1.3-1.5.3-1.1.4-1.5-.3h-1.1l-.7-.9-1.1-.9-1.2-.2-1.5.2-1.1.3-1.6-.8-.2-1.4-1.4-.5-1.1-.2-1.3-.8-1.2 1.9.5 1.1-1.1 1.3-1.7-.5h-1.2l-.8-.9h-1.2l-1-.6-1.8.9-2.2 1.5-1.2.3h-.5c0 .1-.6-.9-.6-.9l-1.5.2-.5-.8-.8-.4-.6-1.1-.6-.3-1.7.5-1.6-1.1-.6 1-2.6-4.8-1.5-1.5.4-.6-2.9 1.9h-1.1v-1l-1.5-.7-1.2.5-.4-2.1-2.1-.4-1 .8-2.9.7-.6.5-4.3.7-.5.7.8 1.3-1.1.5.2.5-1.1.9 1.9 1.3-.3.9h-1.6l-.3.5-1.5-.9h-1.8l-1.2.8-1.4-.7-2.6-1.3h-1.8l-2.4 2.1v1.3c-.1 0-1.3-1-1.3-1l-.9 2 .3.4-.7 1.3 1 1.2h.9l.7 1.1v.9c-.1 0 .5.3.5.3l-.5 1-1.1.3-1.2 1.7 1.1 1.5v1.1c-.1 0 1.2 1.8 1.2 1.8l-.7.6-.2.4h-.5c0-.1-.8-1-.8-1h-.3l-.7-.4-.4-.6-1.1-.3-.7.2-.2-.3-1.6-.8-1.7-.3-1-.3v.2c-.1 0-1.6-1.4-1.6-1.4l-1.3-.6-1-1 .8-.3 1-1.4-.6-.7 1.7-.7v-.4l-1.1.3v-.8l.6-.5h1.1c0-.1.2-.7.2-.7l-.3-1 .5-.9v-.5l-1.7-.6h-.7l-.7-.8-.9.3-1.5-.6v-.4l-.4-.8h-.9v-.7l.3-.4-.7-1.1-1.2.2h-.4l-.3.3h-.4l-.3-1.3-.3-.6.2-.2h.9l.5-.4-.3-.5-.8-.3v-.4l-.4-.4-.7-1.3.2-.5v-1c-.1 0-1.2-.5-1.2-.5l-.6.2-.2-.5-1.2-.5-.4-1.2v-1l-.7-.5.5-.7-.3-2.1.8-1.3-.2-.4 1.3-1.3-1.2-1.1 2.5-3.1 1.1-1.4.4-1.3-1.7-1.8.5-1.7-1-2 .8-2.4-1.3-3.3 1.1-2.3-1.8-2.1.2-2.2.9-.3 2-1.3 1.2-1.2 1.9 2 3.2.8 4.4 3.6.9 1.5v2l-1.2 1.5-1.9.8-5.2-2.2-.9.4 1.9 2.1v1.3l.1 2.8 1.5.8.9.7v-1.3c.1 0-.6-1.2-.6-1.2l.7-1 2.8 1.7 1-.7-.8-2 2.7-2.8 1.1.2 1.1 1 .7-2-1-1.8.6-1.8-.9-1.9 3.2 1 .7 1.7-1.5.4v1.7l.9 1 1.8-.6.3-1.9 2.4-1.5 4-2.7.9.2-1.1 1.9 1.4.3.8-1.1h2.2l1.7-1.4 1.3 1.9 1.3-2.1-1.2-1.9.6-1.1 3.4 1 1.6 1 4.2 3.6.8-1.6-1.2-1.7v-.7l-1.4-.3.4-1.6-.6-2.7v-1.1l2.1-3.3.8-3.5.9-.8 3.1 1 .2 2.1-1.1 3 .7 1.2.4 2.5-.3 4.6 1.3 2-.5 2.1-2.3 4.2 1.3.4.5-1 1.3-.8.3-1.5 1-1.4-.7-1.8.5-2.1-1.3-.3-.3-1.8.9-3.4L329 74l2.1-2.5-.3-2.7h.6l.6 2.1-.5 3.6 1.2.7-.5-2.6 1.9-1.5 2.4-.2 2.1 2.1-1-3.2v-4.3c-.1 0 1.9-.8 1.9-.8l2.8.2 2.5-.5-.9-2.2 1.3-2.9h1.3c0-.1 2.3-2.4 2.3-2.4l3.1-.6.4-1.3 3-.4.9 1.1 2.6-2.6h2.1l.3-2.1 1.1-2.2 2.7-2.2 2 1.7-1.6 1.3 2.6.8.3 2.5 1.1-1.2h3.4l2.6 2.5.9 1.8-.3 2.4-1.3 1.3-3 2.4-.9 1.3 1.4.6 1.7 1.1 1-.8.6 2.6.5-1.1 1.9-.6 3.7.7.3 1.9 4.8.6v-3.1l2.5.7h1.9l1.9 2.1.5 2.5-.7 1.6 1.5 2.9 1.8 1.4 1.1-3.8 1.9 1.7 2-1 2.2 1.1.9-1 1.9.5-.8-3.5 1.5-1.7 10.5 2.5 1 2.2 3 2.8 4.7-.7 2.3.6 1 1.4v2.5c-.1 0 1.3.9 1.3.9l1.6-.7h2.1l2.2.6 2.2-.4 2 2.9 1.4-1-.9-2.1.5-1.5 3.7.9 2.4-.2 3.3 1.6 1.6 1.4 2.8 2.4 3 3v1.8l.7.7-.3-2.1 3.1.4 2.3 2.7Zm-52.7 37.4-1.2-3.2-.5-1.9v-1.9l-.4-1.9-.3-1.3-.5.3.5.9-1.1.9v2.6c-.1 0 .6 1.8.6 1.8v2.4l-.3 1.3v1.9c.1 0 0 1.7 0 1.7l.2 1.4.8-1.3.9 1V133l-1.1-1.7.7-2.5 1.7.6Zm-141.9-11.3-1.2-.4-1.6.7-.3.9 1.4.2h2.1v-1.1c.1 0-.4-.3-.4-.3m182.9-41.5 1.5-.2 1.2-.9v-.5l-1.6-1h-1l-.1.1-1.5 1.5.2 1.1 1.3-.2Zm-45.4-11.2-1.1 1.6.2.2 2.4.4h1.8l-.1-1.1L409 65l-1.5.4Zm10.1-3.9 1.3-1.8-2.9-1.2-2.2-.7-.3 1.5 2.2 1.8zm-10.4-.7h4.3c0 .1.9-3.2.9-3.2l-4.2-2.5-3.1-.2-1.5.9-.6 3.2 2.3 2.9 1.9-1ZM304.9 71.6l-1.2.8.2 2 2.1 1 .3 1.6 3.8.5.7-.3-2.2-2.9-.2-3.1 1.8-3.8 1.7-4.1 3.6-4.2 3.5-2.2 4.1-2.4.8-1.5-.8-2-2.3.7-2 1.9-3.9.9-3.8 3.1-2.6 2.4.3 2-2.8 3.7 1.1.5-2.3 3.4v2.1Zm61-28.1.3-2.4-2.9-3.5-.9-.4-1 .7-2.1 7.7 6.5-2.2ZM298 31.4l1.3 1.6 1.4-1.1.2-1.1 1-.5 1.6-.9.4-1.1-1.7-1.6-1.1 1.2-.7 1.7-.2-1.9h-1.8l-2.3 1.4 2.6.2-.7 2.2Zm54.3 5.4 1.9 2.4 3.2 1.7 2.5-.7.3-5.6-2.7-6.6-2.3-3.7-2.5 1.7-3 4.9 1.6 1.4.9 4.7Z"/><path id="RW" d="m279.3 195.8.5.6v.7l-.4.1h-.6l-.4.6h-.7l.1-.7h.2v-.8l.3-.3h.3c0 .1.7-.2.7-.2"/><path id="SA" d="M293.7 175.4v-.5c-.1 0-.5-.4-.5-.4v-.5l-.7-.4-.6-1-.3-1-.8-.8-.5-.2-.8-1.2v-.9c-.1 0 0-.7 0-.7l-.7-1.4-.5-.5-.6-.3-.4-.7v-.3l-.3-.7-.3-.3-.5-1-.7-1-.6-.9h-.6l.2-.7v-.5l.2-.5 1.3.2.5-.4.3-.5.9-.2.2-.5.4-.2-1.2-1.3 2.3-.7.2-.2 1.4.4 1.7.9 3.3 2.7h2.2c0 .1 1 .2 1 .2l.3.6h.8l.5 1.1.6.3.2.5.8.5v1.3c.1 0 .5.4.5.4l.2.4.2.3.3.3h.3l.2.4v.3l.5 1.3 3.5.6.2-.3.5.9-.8 2.5-3.5 1.2-3.3.5-1.1.5-.8 1.3-.5.2-.3-.4h-1.7c0-.1-1.3 0-1.3 0h-.3c0 .1-.5-.2-.5-.2l-.3.6v.5c.1 0-.4.4-.4.4Z"/><path id="SB" d="m432.1 206.7.3.4h-.8l-.4-.7.7.3zm-1.5-.7h-1.2l-.2-.2v-.5l.8.2.4.2zm1-.4-.2.2-.9-1-.2-.7h.4l.4.9zm-2.1-1.4v.2l-.9-.5-.6-.4-.4-.4h.2c0-.1.5.2.5.2l1 .5.3.4Zm-2.7-1.2h-.2l-.5-.2-.5-.5v-.2l.7.5z"/><path id="SD" d="M283.4 183.6h-.2v-1c-.1 0-.7-.5-.7-.5v-.8c-.1 0 0-.9 0-.9h-.5v.2h-.7l.3.4v.7l-.5.6-.6.8h-.6c0 .1-1-.6-1-.6l-.4.2v.3c-.1 0-.7.2-.7.2v.2h-1.2l-.2-.2h-.8l-.4.2h-.3c0-.1-.6-.8-.6-.8l-.2-.3-.8.2-.3.5-.3 1-.4.2h-.4c0 .1 0 0 0 0l-.4-.3v-.4l.1-.5v-.5l-.7-.7v-.5c-.1 0-.1-.3-.1-.3l-.4-.3v-.7l-.3-.5h-.4l.1-.4.3-.5v-.5c-.1 0 .2-.4.2-.4l-.2-.3.3-.7.5-.9h1v-5.2h1.3v-2.5H287l.4 1.2-.3.2.2 1.3.4 1.5.4.3.6.4-.6.7-.9.2-.4.4v.8c-.1 0-.6 1.8-.6 1.8v.5c.1 0 0 1 0 1l-.5 1.2-.7.6-.5.9v.5c-.1 0-.7.3-.7.3l-.3 1.2Z"/><path id="SE" d="m269.8 92.8-1.1 1.9.2 1.7-1.8 2.1-2.2 2.2-.8 3.5.8 1.7 1.1 1.3-1.1 2.6-1.2.5-.4 3.7-.7 2-1.4-.2-.7 1.6h-1.3l-.4-1.9-1-2.4-.9-3.1.5-1.3 1-1.6.4-2.8-.7-1.2v-3.3l.7-2.4h1.2l.4-1-.4-.9 1.8-3.9 1.2-3.3.8-2.2h1.1l.3-1.7 2.2.5.2-2.1h.7c0-.1 1.5 1.4 1.5 1.4l1.8 2.1v4.6l.4 1.1-2 .8Z"/><path id="SI" d="M260.1 133.8h1c0 .1.6-.3.6-.3h1l.2-.3h.2l.2.6-.9.4v.7c-.1 0-.5.2-.5.2v.5h-.5l-.4-.3-.2.3h-.8l.3-.2-.3-.7v-.8Z"/><path id="SJ" d="m272.7 46.1-2.6 2.2-2-1.2.8-1.4-.7-1.8 2.4-1.2.5 2.1 1.7 1.2ZM265.2 35l3.8 4.7-2.9 2.3-.6 4.2-1 1-.6 4.3-1.4.2-2.5-3.2 1.1-1.9-1.7-1.6-2.3-4.9-.9-4.9 3.2-2.4.6 2.3h1.7l.4-2.3 1.7-.2 1.5 2.3Zm8.4-4.7 2.3 2.4-1.7 3.5-3.4.7-3.4-1.1-.2-1.8h-1.7c0-.1-1.3-3.2-1.3-3.2l3.6-2 1.7 1.7 1.2-2.1 2.9 1.8Z"/><path id="SK" d="M265.9 128.6c0 .1.5-.1.5-.1l.6.6.7-.4.5.2.8-.2 1.1.7-.3.5-.2.7-.2.2-1.2-.5h-.4c0 .1-.3.5-.3.5l-.5.2h-.1c0-.1-.6.2-.6.2h-.5v.4l-1 .2-.4-.2-.6-.4v-.6c-.1 0 0-.2 0-.2l.2-.4h.5l.4-.2v-.2h.3v-.4h.3l.2-.3h.3Z"/><path id="SL" d="M230.8 186.7h-.3l-.8-.6-.6-.6-.2-.4v-.9c-.1 0 .5-.5.5-.5v-.3c.1 0 .3-.3.3-.3h.3l.3-.2h.9l.3.4.3.5v.3l.1.3v.4h.3l-.5.5-.5.6v.3l-.3.4Z"/><path id="SN" d="m224.7 178.7-.5-.9-.6-.4.5-.2.6-.8.3-.6.4-.4h.6c0 .1.6-.2.6-.2h.6l.6.3.8.3.7.9.8.8v.7l.3.7.4.3v.9h-.8c0 .1-.3.2-.3.2l-.8-.3h-3c0 .1-.4 0-.4 0l-.6.2-.2-.9h1.1l.3-.1h.2l.4-.3.5.3h.5l.5-.2-.2-.3-.4.2h-.4l-.5-.3h-.4l-.3.3h-1.3Z"/><path id="SO" d="M303.4 180.9v-.3h-.5l-.6.4h-.6c0 .1-.5.3-.5.3h-1.1l-.4.2h-.6l-1 .4h-1.3c0 .1-1.1.4-1.1.4h-.6l-.5-.5-.2-.5-.4-.2-.4.6-.3.4.4.6.4.6.4.4 3.8 1.4h1l-3.3 3.5h-1.5l-1 .9h-.7l-.3.4-1 1.3v4.2l.7.9.3-.3.3-.6 1.3-1.4 1.1-.9 1.7-1.1 1.2-.9 1.4-1.6 1-1.3 1-1.7.7-1.5.6-1.3.3-1.3.2-.4v-.6l.1-.7Z"/><path id="SR" d="m177.8 187.6 1.4.2v-.2h1.1l1.2.3-.6 1v.8l.6.7-.2.5v.5c-.1 0-.4.5-.4.5l-.7-.2h-.6c0 .1-.5 0-.5 0v.3c-.1 0 0 .2 0 .2v.2h-.7l-.7-1-.2-.6h-.4l-.5-.8.2-.6v-.3l.6-.3.2-1Z"/><path id="SS" d="M283.4 183.6v.9l-.2.4h-.6l-.4.7h.7l.6.6.2.5.5.3.7 1.3-.8.8-.7.7-.7.5h-.8l-.9.3-.7-.3-.5.3-1-.8-.3-.5-.6.2h-.5l-.3.1h-.5c0-.1-.7-1.1-.7-1.1l-.2-.4-.9-.5-.3-.7-.5-.5-.8-.6v-.4l-.6-.5-.8-.5h.4c0-.1.4-.3.4-.3l.3-1 .3-.5.8-.2.2.3.6.7h.3c0 .1.4 0 .4 0h.8l.2.3h1.2v-.2l.6-.2v-.3c.1 0 .6-.2.6-.2l1 .7h.6c0-.1.6-1 .6-1l.6-.6v-.7l-.4-.3h.7v-.3h.5l-.1.9v.8c.1 0 .7.5.7.5v.4c.1 0 .1.6.1.6h.2Z"/><path id="SV" d="M142.2 179v.3H141c0-.1-.5-.3-.5-.3h-.6l-.3-.3v-.2l.4-.3h.2v-.3h.6l.2.2.4.2v.2l.6-.1h.2l.2.2v.5Z"/><path id="SY" d="m289 153.7-2.3 1.5-1.3-.5.2-.2v-.6l.3-.8.6-.5-.2-.5h-.5l-.1-1.2.3-.6.3-.3.3-.3v-.8l.4.3 1.3-.4.6.3h1l1.3-.5h.6l1.3-.2-.6.9-.6.4v1c.1 0-.3 1.7-.3 1.7l-2.6 1.4Z"/><path id="SZ" d="m281.3 226.5-.2.6h-.7c0 .1-.7-.6-.7-.6v-.4l.3-.5v-.4h.4l.6.2.2.6v.6Z"/><path id="TD" d="M260.9 179.6v-.6h-.6v-.8l-.5-.4.5-1.6 1.5-1.1v-1.6l.5-2.5.3-.5-.5-.4v-.4l-.5-.3-.3-1.9 1.2-.7 4.6 2.4 4.6 2.4v4.8h-.9l-.5.9-.3.7.2.3-.4.4v.5c.1 0-.2.5-.2.5v.4h.3l.2.5v.7l.4.3v.3l-.7.2-.6.5-.8 1.3-1.1.5h-1.4v.4c.1 0-.5.4-.5.4l-.5.5-1.5.4-.3-.3h-.2l-.2.3h-1l.2-.2-.4-.8-.2-.5-.5-.2-.7-.7.3-.6h.5c0 .1.3 0 .3 0h.6l-.6-1.1v-1.6l-.5-.8Z"/><path id="TF" d="m324 258.9.7.6 1.1.2v.3l-.3.8h-1.8v-.8l.2-.7v-.4Z"/><path id="TG" d="m246.2 187.4-.9.2-.3-.4-.3-.7v-.6l.2-1-.3-.4v-.9c-.1 0-.1-.8-.1-.8l-.5-.6v-.4h1.1v.6c-.1 0 .2.3.2.3l.4.4v.6l.3.2v2.7z"/><path id="TH" d="m363 180.4-1-.5h-1l.2-.9h-1v1.3l-.6 1.7-.4 1v.8h.8l.5 1.1.2 1 .6.7h.7c0 .1.6.7.6.7l-.4.5h-.8v-.5l-.9-.5-.2.2-.5-.4-.2-.6-.6-.7-.6-.6-.2.7-.2-.6v-.7c.1 0 .5-1.1.5-1.1l.6-1.2.6-1.1-.5-1.1v-.6l-.1-.7-.8-.9-.3-.6.4-.2.4-1-.5-.8-.7-.9-.6-1.1.5-.2.5-1.3h.8l.7-.6.7-.3.5.4v.7h.8l-.3 1.3v1.1l1.2-.7.3.2h.7l.2-.5h.9l.9 1.1v1.2l1 1v1l-.4.5-1.1-.2-1.5.2-.7 1 .3 1.4Z"/><path id="TJ" d="m326.4 143.7-.4.5-1.3-.3v.9c-.1 0 1.1-.1 1.1-.1l1.4.5 2.2-.2.3 1.4h.4c0-.1.7.2.7.2v.6l.1.8h-2c0-.1-.7.5-.7.5h-.5c0 .1-.4.4-.4.4l-.5-.5v-1.2h-.2v-.5c.1 0-.5-.3-.5-.3l-.5.5v.6c-.1 0-.3.2-.3.2h-.7l-.4.6-.4-.3-.8.5-.4-.2.6-1.5-.2-1.1-.9-.4.3-.7h1l.6-.8.4-1 1.6-.4-.2.7.2.4h.5Z"/><path id="TL" d="M389 204.8v-.3c.1 0 1.1-.3 1.1-.3h.8l.4-.2h.4c0 .1-.4.5-.4.5l-1.2.5-1 .3v-.4l-.1-.2Z"/><path id="TM" d="M315.1 150.5v-1.2h-1l-1.3-1.3-.9-.2-1.3-.7h-.8c0-.1-.5.1-.5.1h-.8l-.8.8-1 .3-.2-1 .2-1.5-.9-.5.3-1h-.8l.3-1.4 1.1.4 1-.5-.8-.9-.3-.9-.9.4v1.1c-.1 0-.5-1-.5-1l.5-.5 1.3-.3.8.4.8 1.2h1.9l-.2-.8 1-.5 1-.9 1.6.8v1.2c.1 0 .6.3.6.3h1.3l.4.2.6 1.6 1.3 1 .8.7 1.2.7 1.5.6v.9h-.4l-.6-.4-.2.5-1 .3-.2 1.2-.7.4-.9.2-.2.6-.9.2-1.2-.5Z"/><path id="TN" d="m255.1 157.8-.5-2.4-.7-.6v-.3l-1-.8v-1c-.1 0 .6-.8.6-.8l.3-1.2-.2-1.4.2-.7 1.3-.6.8.2v.7l1-.5v.3l-.5.7v.7l.4.4-.2 1.2-.8.7.2.8h.6l.3.7.4.2v1.1l-.6.4-.4.4-.8.5v.6c.1 0 0 .6 0 .6l-.6.3Z"/><path id="TR" d="m286.9 142.1 1.7.6 1.4-.2h1c0 .1 1.4-.7 1.4-.7h1.2l1.1.7.2.5v.7c-.1 0 .7.4.7.4l.5.4-.8.4.4 1.7-.2.5.6 1.2-.6.2-.4-.4-1.3-.2-.5.2-1.3.2h-.6l-1.3.5h-1l-.6-.3-1.3.4-.4-.3v.8l-.4.3-.3.3-.4-.6.4-.5h-.7c0 .1-1-.2-1-.2l-.8.8-1.8.2-.9-.8h-1.2l-.3.5-.8.2-1.1-.8h-1.3l-.7-1.4-.8-.8.6-1.2-.7-.7 1.3-1.4h1.8l.5-1.2 2.2.2 1.4-1 1.4-.4h1.9l2 1.1Zm-11.3 1-1 .8-.4-.7v-.3l.3-.2.4-1-.6-.4 1.2-.5 1 .2v.6c.1 0 1.2.5 1.2.5l-.2.4h-1.4z"/><path id="TT" d="m172.5 182.1.7-.2h.2v.9h-1c0 .1-.2 0-.2 0l.3-.3v-.5Z"/><path id="TW" d="m385.3 165.5-.7 2-.5 1-.6-1.1v-.9c-.1 0 .6-1.2.6-1.2l.9-1 .5.4z"/><path id="TZ" d="M283.4 195.6h.2c0 .1 4.2 2.5 4.2 2.5v.7l1.7 1.2-.5 1.4v.7l.8.4v.3l-.3.7v1l.4.7.5 1.2.4.3-.9.7-1.3.5h-.7l-.4.3h-.8l-.3.2-1.4-.3h-.9l-.3-1.5-.4-.5-.2-.3-1.1-.2-.7-.4-.7-.2-.5-.2-.5-.3-.6-1.5-.7-.6-.2-.7v-.6c.1 0 0-1.1 0-1.1h.5l.4-.5.5-.6.3-.2v-.4l-.3-.3v-.5l.3-.1v-.7l-.4-.6h.4c0-.1 1.3-.1 1.3-.1h2.4Z"/><path id="UA" d="M280.9 123.8h.4l.3-.4h1.6l.7 1.1-.3.4v.6h1l.4.8v.4l1.4.6.9-.3.7.8h.7l1.7.6v.5l-.5.9.3 1-.2.6h-1.1c0 .1-.6.6-.6.6v.8l-1 .1-.8.5h-1.1l-1 .7-.5.4.6.6.6.4h1.2l-.2.5-1.3.3-1.6.9-.6-.3.3-.8-1.3-.5.2-.3 1.3-.7-.2-.3-.2.2h-.2l-1.8-.5v-.6l-1.2.2-.4.9-.9 1.2-.5-.3-.5.3-.5-.3.3-.2.2-.6.3-.5v-.3l.2-.1v.2h1.1c0-.1-.2-.3-.2-.3v-.2l-.3-.4-.2-.7-.4-.3v-.6l-.4-.5h-.5l-.9-.6-.8.2-.3.3h-.5l-.3.4-.9.2-.4.3-.5-.4h-.7l-.7-.2-.5.4v-.5l-.7-.5.2-.7.3-.5h.3l-.3-.7 1.1-1.5.6-.2v-.5c.1 0-.5-1.6-.5-1.6h.6l.6-.6h.9l1.2.1 1.3.4h.9l.4.3.4-.3.3.4h1.5v-.9l.4-.4h1Z"/><path id="UG" d="M281 195.7h-1.3l-.4.1-.7.4h-.3v-1l.3-.4v-.9l.3-.5.4-.6.4-.3.4-.4-.5-.2v-1.3l.5-.3.7.3.9-.3h.8l.7-.5.6.8v.6c.1 0 .6 1.3.6 1.3l-.4.8-.6.8-.3.5v1.2h-2.4Z"/><path id="US" d="m92.6 118.6-.6-.8-1-.6-.3-1.8-1.5-1.7-.6-2h-1.1c0-.1-1.8-.2-1.8-.2l-1.4-.6-2.4-2.3-1.1-.4-2-.8-1.6.2-2.3-1.1-1.4-1-1.3.5.2 1.6h-.6c0 .1-1.3.6-1.3.6l-1 .8-1.3.5-.2-1.3.5-2.3 1.2-.7-.3-.6-1.5 1.3-.8 1.6-1.7 1.6.8 1.1-1.1 1.6-1.2.9-1.2.7-.3.9-1.8 1.1-.4 1-1.4.9-.8-.2-1.1.6-1.2.7-1 .7-2 .6-.2-.3 1.3-.9 1.1-.6 1.2-1.1 1.4-.2.6-.9 1.6-1.3.3-.4.9-.8.2-1.7.6-1.3-1.3.7-.4-.4-.6.8-.8-1.1-.3.8-.4-1.1-1.2.9H56v-1.3l.1-.8-.7-.8-1.5.4-1-1.1-.8-.6v-1.3l-.9-1 .4-1.4.9-1.4.4-1.3.9-.2.8.4.9-1.2.8.2.9-.8-.2-1.2-.6-.5.9-1h-.7l-1.2.6-.4.6-.9-.6-1.6.3-1.7-.6-.5-1.1-1.5-1.6 1.6-1.2 2.6-1.4h1l-.2 1.4h2.4c0-.1-.9-1.9-.9-1.9l-1.4-1.1-.8-1.5-1.1-1.3-1.6-1 .6-1.7h2.1c0-.1 1.5-1.6 1.5-1.6l.3-1.6 1.2-1.6 1.1-.4 2.2-1.6 1.1.2 1.8-1.9 1.8.8.8 1.6.5-.7 2 .2v.8l1.7.6 1.2-.3 2.4 1.1 2.2.3.9.4 1.5-.6 1.8 1 1.3.5v26.1h1.1l1.1.7.8 1 1 1.5 1.1-1.3 1.2-.7.6 1.2.8.9 1.1 1 .7 1.6 1.2 2.4 2 1.3v1.3l-.6 1Zm72.8 14.2-.5-.5-.8.3-.4-.4-.9 1.3-.4 1.3-.4.8-.5.3h-.4l-.1.5h-3.9l-.5.3-1.2 1.1v.2c.1 0 .2.6.2.6l-.9.5h-1c0-.1-.9-.2-.9-.2l-.6.2v.5h.1v.2l-1 .9-.9.5-.6.2-.7.4-.8.2h-.6l-.7-.4.4-.6.3-.5.5-.9v-.6l-.3-.9-.4-.2-.7.7h-.2v-.4l.6-.6v-.7c.1 0 0-.7 0-.7l-.9-.6-1-.3-.2.6-.3.2-.2.8v-.6c-.1 0-.6.4-.6.4l-.3.5-.3.8v.7l.3 1v1l-.5.8-.2.2-.3.2h-.5l-.3-.8v-1.6c-.1 0 0-.9 0-.9l.3-1.1.6-1.3h-.2l-.9 1.1-.2-.2.5-.6.7-1.1h.8c0-.1.9-.5.9-.5l.9.2 1-.1-.6-.7h-.3l-.4-.1-.2-.5h-1.1c0 .1-1 .5-1 .5l-.8-.6-.7-.2.4-.9-1 .6-.9.6-.9.4-.7-.6-1.2.4v-.2l.8-.7.8-.7 1.2-.6-1.4-.5-.9.2-1.1-.5-1.2-.3h-.8c0-.1-.4-.4-.4-.4l-.2-1h-.4v.7h-32.1l.4 1.4.2 1.4-.3.5-.6-1.6-1.7-.6v.3c-.1 0 .2.8.2.8l.4 1.5.2 2.2v1.5c-.1 0-.3 1.5-.3 1.5l-.5 1.5.4 1.2v1.3l-.2 1.3.6.8.2 1.2.9 1.2.5.5v.3l.9 2 1.1 1.4v.8c.1 0 .4.2.4.2h1.1c0 .1.4.5.4.5h.6l.1.5.5.2.8.8.2.7h1.3c0-.1 1.5-.3 1.5-.3v.3c-.1 0 1.6.7 1.6.7l2.6 1h3.2v-.6h2l.4.5.6.4.7.6.4.7.3.7.6.4 1 .4.7-1h.9l.8.5.6.9.4.8.7.7.3.9.3.6.9.4.8.3h.5l-.2-.5v-1.5l.3-.6.6-.6 1.2-.6 1.1-1 1-.3h.7l.8.2 1-.2.9.7h.8l.4-.2.4.2.2-.2-.2-.3v-.5l-.2-.4.5-.2h1.9l1.3-.2.7.3.6.6h.2l1.2-.5.5.2.9 1.1.3.7-.2.9.2.5.5 1 .6 1.1.4.3.2.6.6.2.3-.2.3-.8v-1.4l-.6-1.5v-.6l-.5-.9-.4-1.1-.2-.9.2-1 .5-.8.7-.6 1.3-.9.2-.5.6-.5h.6l.8-.9 1.2-.4.7-1-.2-1.4v-.5h-.5v-1.4l-.8-.5.8.2-.2-.9.2-.6v1.2c.1 0 .7.6.7.6l-.4 1h.1l.7-1.1.4-.6v-.6l-.3-.3-.2-.8.4.4h.3v.5l.8-1.2.3-1.1h-.3l.4-.5v.2h.7l1.6-.5-.3-.3-1.7.3 1-.4h.7l.5-.2.9-.3h.6l.8-.2v-.4l-.3-.3v.6h-.4l-.4-.8v-.8l.2-.4.6-.9 1.2-.5 1.2-.6 1.2-.8-.2-.5-.8-.9v-2.3ZM66.3 112l-.6.3-1.1.8.2 1 .6.5 1.2-.8 1-1-.5-.7h-.8Zm-18.8-11.9.8-.5v-.3l-.8-.3zm3.5 6.4-1.1.4.7.6.8.4.7-.4v-.9c-.1 0-1-.2-1-.2Zm40.2 13.4-1.1.2-.5-.3v.6l.1.9.6.6.4.9.7.9h.5l-1-1.5.3-2.2Zm-28.4 50h-.4c0-.1-.1 0-.1 0l.1.2.2.3h.4v-.2l-.3-.2Zm-1.2-.3h.6zM64 171h-.2c0-.1-.4-.3-.4-.3v.2l-.1.2c0 .1.2.6.2.6v.3l.3.2.2-.2.4-.2.5-.3-.3-.5-.2-.2Zm-3.2-2.1-.3.2.1.3h.4l-.3-.5Zm-1.9-.7h-.2v.2l.4.2h.1v-.4z"/><path id="UY" d="M177.2 231.1h.8c0-.1 1.2.9 1.2.9h.4l1.2.8.9.8.7.9-.5.6.3.8-.5.9-1.3.8-.9-.3-.6.2-1.1-.6h-.8l-.7-.7v-.9l.3-.3v-1.4l.3-1.4z"/><path id="UZ" d="M321.2 148v-.9l-1.5-.6-1.2-.7-.8-.7-1.3-1-.6-1.6-.4-.3h-1.3l-.4-.2v-1.2c-.1 0-1.7-.8-1.7-.8l-1 .9-1 .5.2.8h-1.3v-5.8l3-1h.2c0 .1 1.8 1.3 1.8 1.3l.9.6 1.1 1.4 1.4-.2h2c0-.1 1.4 1 1.4 1v1.6h.5l.2 1.3h1.5l.3.8h.4l.5-1.1 1.5-1.1.7-.3.3.2-1 1 .9.6.8-.4 1.4.8-1.5 1.1h-.9c0-.1-.5-.1-.5-.1l-.2-.4.2-.7-1.6.4-.4 1-.6.8h-1l-.3.6.9.4.2 1.1-.6 1.5-.9-.3h-.6Z"/><path id="VE" d="M161.3 180.9v.3l-.7.1.4.5v.6l-.5.7.4.9h.5l.3-.9-.4-.4v-.9l1.4-.5-.2-.6.4-.4.4.8h.8l.8.7v.4h2.3c0-.1.7.4.7.4h.9c0 .1.6-.2.6-.2v-.3h2.9l-1 .3.4.6h.9l.9.7.2.9h.6l.5.2-.9.7v.4c-.1 0 .3.4.3.4l-.3.2-.7.2v.5l-.3.3.8.9.2.3-.4.4-1.3.4-.8.2-.3.3-.9-.3h-.9c0-.1-.2 0-.2 0l.5.3v.8l.1.7h1v.3l-.8.3v.5c-.1 0-.6.2-.6.2l-.9.3-.2.4h-.9l-.6-.5-.4-1.1-.3-.4-.4-.3.6-.6v-.3l-.4-.3-.2-.8v-.8l.3-.4.2-.6-.4-.2h-.7c0 .1-.8 0-.8 0h-.5c0 .1-.8-.9-.8-.9h-.7c0-.1-1.5 0-1.5 0l-.3-.4h-.3v-.7c.1 0 0-.5 0-.5l-.3-.3v-.5h-.7l.3-.7v-.8c.1 0 .5-.4.5-.4l.5-.3.3-.6.7-.2Z"/><path id="VN" d="m369.4 169.1-1.5 1.1-1 1.2-.3.8.9 1.3 1.1 1.6 1.1.7.7 1 .5 2.2-.2 2.1-1 .8-1.3.8-.9 1-1.4 1.1-.4-.7.3-.8-.9-.7 1-.5h1.2l-.5-.8 1.9-.9V179c.1 0-.1-.8-.1-.8l.2-1.2-.3-.8-.9-.8-.7-1.1-1-1.4-1.4-.7.3-.4.7-.3-.5-1.1h-1.4l-.5-1.1-.7-1 .6-.3h.9l1.1-.1 1-.7.6.5 1.1.2-.2.7.6.5 1.2.3Z"/><path id="VU" d="m438.7 213.8-.4.2-.4-.5v-.3l.8.7Zm-.8-1.9.2 1h-.3c0-.1-.2 0-.2 0l-.2-.3v-.9l.5.4Z"/><path id="YE" d="m305.7 175.1-.8.3-.2.5v.4l-1.2.5-1.9.6-1 .8h-.8l-.7.5-.7.2h-1l-.3.1-.3.3h-.3l-.2.4h-.6l-.4.1h-.8l-.3-.7v-.6l-.2-.4-.2-.9-.3-.5h.2l-.1-.6v-.2c.1 0 0-.5 0-.5l.5-.4v-.5c-.1 0 .2-.6.2-.6l.5.3h.3c0-.1 1.3-.1 1.3-.1h.2c0 .1 1.1.2 1.1.2h.4l.3.3.5-.2.8-1.3 1.1-.5 3.3-.5.9 2 .4.8Z"/><path id="ZA" d="m280.6 229.8-.2.2-.5.7-.3.7-.7 1-1.3 1.4-.8.8-.9.6-1.2.5h-.6l-.1.5-.7-.2-.6.3-1.3-.3-.7.2h-.5l-1.2.5-1 .2-.7.5h-.5l-.5-.5h-.4l-.5-.6v.2l-.2-.4v-.8l-.4-.9.4-.2v-1l-.8-1.3-.6-1.1-.8-1.7.6-.6.5.4.2.6h.5l.7.3h.6l1-.8v-4.8l.3.2.7 1.2v.8c-.1 0 .2.5.2.5h.8c0-.1.6-.7.6-.7l.6-.4.3-.6.6-.3.5.2.6.4h.9l.7-.2v-.4c.1 0 .3-.6.3-.6h.6c0-.1.3-.6.3-.6l.4-.8 1-.9 1.6-.9h.5l.6.2h.4c0-.1.6 0 .6 0l.6 1.8.3.9-.2 1.4v.5l-.5-.2h-.3l-.1.5-.3.5v.4l.7.7h.7c0-.1.2-.7.2-.7h.9l-.3 1v1.1c-.1 0-.4.6-.4.6l-.8.7Zm-2.9-.4-.5-.4-.5.3-.6.5-.6.8.9 1h.4c0-.1.2-.6.2-.6l.6-.2.2-.4.4-.6-.4-.4Z"/><path id="ZM" d="m282.1 205.2.5.5.3 1-.2.3-.2 1 .2 1-.4.4-.4 1.1.6.3-3.5 1v.8c.1 0-.8.2-.8.2l-.7.5v.4h-.6l-1 1-.6.8h-.4l-.4-.1h-1.3c0-.1-.2-.2-.2-.2l-.5-.4h-.8l-1 .2-.8-.8-.8-1v-3.8h2.5v-.8l-.2-.6v-.6c.1 0 0-.4 0-.4h.4v.4h1.2l.4.5.9.2.7-.4.3.6.9.2.4.5.5.6h.9v-1.3l-.3.2-.8-.5-.3-.2v-1.2c.1 0 .4-1.4.4-1.4l-.3-.5.3-.7h.3c0-.1 1.6-.3 1.6-.3h.5c0 .1.5.4.5.4l.5.2.7.2.7.4Z"/><path id="ZW" d="M280.2 220.8h-.6c0-.1-.4 0-.4 0l-.6-.2h-.5l-.7-.6-.9-.2-.3-.8v-.4l-.5-.1-1.3-1.3-.4-.7-.2-.2-.4-1h1.3c0 .1.4.3.4.3h.4l.6-.8 1-1h.4l.1-.5.7-.5.9-.2v.4h1l.5.3.2.3h.6l.6.5v1.5l-.2.8v.9l.1.4v.7c-.1 0-.3.1-.3.1l-.3.9z"/></g></svg>