<svg xmlns="http://www.w3.org/2000/svg" xmlns:amcharts="http://amcharts.com/ammap" id="Layer_1" viewBox="0 0 512 512"><g id="_x3C_defs"><amcharts:ammap bottomLatitude="18.158" leftLongitude="-63.491" projection="mercator" rightLongitude="-62.796" topLatitude="18.612"/></g><g><path id="AI-00" d="m197 364.2-26.7 1 10.6 9.6 16-10.6ZM3.6 27.5l.9 8.9 4.4-7.6z"/><path id="AI-WE" d="m282.8 484.5 28-15.3-.2-25.9-19.4 10.5-25.8 30.4z"/><path id="AI-TV" d="m385.6 414.4-13.1-10.9-11.6 15.2 25.8 4.9 2.9-5.9-4-3.4Z"/><path id="AI-TQ" d="m399.5 422.4 4.9-7.7-14.9 3.1-2.9 5.9 12.8-1.3Z"/><path id="AI-TF" d="m403.3 436-3.8-13.6-12.8 1.3-14.4 8v21.4l31.1-17.1Z"/><path id="AI-ST" d="m438.7 392.5-18.4-5v-11.6l-9.4 1.7-3 18.3-13.2.4-9.1 18.1 4 3.4 14.9-3.1 6.2-16.7z"/><path id="AI-SO" d="m372.3 431.6-14.6 3-21.5 4-25.6 4.6.2 25.9 8.8-6.6v-7.4L361 439l11.4-7.4Z"/><path id="AI-SH" d="m439.1 415.4.4-9.8h-7.6l6.8-13-28 5.5-6.2 16.7-4.9 7.7 3.8 13.6 35.8-20.6Z"/><path id="AI-SG" d="m357.8 434.7-2.1-10.2-19.4 14.3 21.5-4Z"/><path id="AI-NS" d="m385.6 414.4 9.1-18.1 13.2-.4 3-18.3-15.3 2.8-23 23.2 13.1 10.9Z"/><path id="AI-NH" d="m386.7 423.6-25.8-4.9-5.2 5.7 2.1 10.2 14.6-3 14.4-8Z"/><path id="AI-IH" d="m426.4 374.7 7.4 6 5.5-8z"/><path id="AI-GH" d="M372.3 438.7v-7l-11.3 7.4.5 9.9z"/><path id="AI-EE" d="m439.1 415.4 22.2-43.7-22 1-5.5 8-7.4-6-6.1 1.1v11.6l18.4 5-6.8 13h7.6l-.4 9.8Zm47.6-48.5 21.8-9.9-22.1-8-12.4 20.7 12.7-2.9Z"/><path id="AI-BP" d="M372.3 453.1v-14.4L361.5 449l-.5-9.9-41.4 16.1v7.4L334 477l38.3-24Z"/></g></svg>