<?xml version="1.0" encoding="UTF-8"?>
<svg id="Layer_1" xmlns="http://www.w3.org/2000/svg" xmlns:amcharts="http://amcharts.com/ammap" version="1.1" viewBox="0 0 512 512">
  <!-- Generator: Adobe Illustrator 29.1.0, SVG Export Plug-In . SVG Version: 2.1.0 Build 142)  -->
  <g id="_x3C_defs">
    <amcharts:ammap bottomLatitude="16.817" leftLongitude="-62.9937" projection="mercator" rightLongitude="-61.4479" topLatitude="17.929"/>
  </g>
  <g>
    <path id="AG-04" d="M387.1,360.4l-27.9,3.2-1.6,22.4-31.2,15.1,16.9,8.6,23.5,2.7-4.9,25.1,12.3-3.2,24.6-7.7v-7.1l-18.5-32.8,6.9-26.2Z"/>
    <path id="AG-05" d="M374,434.2l-12.3,3.2,4.9-25.1-23.5-2.7-10.5,38.2,48,12-6.6-25.6Z"/>
    <path id="AG-06" d="M427.6,440.2l-4.3-16.3-24.6,2.6-24.6,7.7,6.6,25.6,16.4-7.1,23.9,18.5,6.6-31Z"/>
    <path id="AG-08" d="M427.6,440.2l31.2-4.7-12.4-21.1,11.7-10.2-23.7,1.6-11.2,18.2,4.3,16.3Z"/>
    <path id="AG-07" d="M434.4,405.7l3.8-21.9-20.9-8.6-7.9,17.3-10.7,27v7.1l24.6-2.6,11.2-18.2Z"/>
    <path id="AG-03" d="M409.4,392.4l-22.3-32-6.9,26.2,18.5,32.8,10.7-27Z"/>
    <path id="AG-11" d="M53.2,507.3l2.4-1.9-1.5-2.6-.9,4.5h0Z"/>
    <path id="AG-10" d="M360.3,4.7l-11.2,16.8,15.2,13v42.2c-.1,0-25.2-61.3-25.2-61.3l-.5,12.3,21.1,61.9,41.2,30.2,24.7-17.2-14.8-60.7-46.5-17.5-3.8-19.8Z"/>
  </g>
</svg>