<svg xmlns="http://www.w3.org/2000/svg" xmlns:amcharts="http://amcharts.com/ammap" id="Layer_1" viewBox="0 0 512 512"><g id="_x3C_defs"><amcharts:ammap bottomLatitude="12.412" leftLongitude="-70.066" projection="mercator" rightLongitude="-69.866" topLatitude="12.623"/></g><path id="AW" d="m49.9 6.5-12 15L52.2 37l20.1 73.9-9.2 27.6L48.5 154l-.6 17.3-21.3 29.2 7.9 8.4 23.4 26.7 40.9 28.1 10.4 25.7 24.6 9.7 19.8 16.1-1.2 6.5-7.6-7.2 8.3 10.5 20.9 8.1 5 10.9 18.1-1.1 16.9 10.9 87.5 73.9 46.1 12.6-.3 9.2-19.4-6.5 29.5 17.3 26.6-1.5 20.1 14.5-7.9 2.4 38.1 8.8 11.1 21.1 2.5-5.5 17.3 4.7 17.3-6.4 2.9-7.4-15.3-47.9-5.6-1.4 3.5-9.1-34.9-94.3-18-4.7-31.7-40.9-18.3-7.3-3.1-10.6-18.8-15-2.3-20-25.6-13.2-16.8-23.2-22.3 5.3-3.1-16.3-69.8-34-14.5-22-43.6-39.8-22.4-39.5z"/></svg>