<svg xmlns="http://www.w3.org/2000/svg" xmlns:amcharts="http://amcharts.com/ammap" id="Layer_1" viewBox="0 0 512 512"><g id="_x3C_defs"><amcharts:ammap bottomLatitude="20.912" leftLongitude="-80.475" projection="mercator" rightLongitude="-72.712" topLatitude="27.934"/></g><g><path id="BS-HI" d="m233 81.7-1.3 3.9 1.4-2.5-.2-1.4Z"/><path id="BS-BI" d="m68.5 299.4-1.6-1 1.3 1.1h.2Zm-2.5-2.7-.7-.9-2-2zm-8.8-11.4v.2c-.1 0 0 .3 0 .3zm-46.3-.5-.6-.2.4.6v-.3Zm42.6-8.1h-.3l.1.1h.2Zm-46.1-9.4v-.3c.1 0-.4.6-.4.6l.4-.4Zm6.4-2.3-.2-.2-.2.3h.4Zm.9-.2h-.3v.2l.4-.2Zm4-1.9-.5.3h.4v-.3Zm2.1.2v-.4c-.1 0-.3.5-.3.5h.3Zm4.7-1.5h-.1v.2-.2Zm66.3-85.5c0 .1 0 0 0 0m.1-2.4h-.2l.2.5zm-.2-.6v.1Zm-1.1-2.5h-.2zm-1.2-4.3h-.2c0 .1.2.4.2.4zm-.6-1.7h-.2c0-.1 0 0 0 0zm-.6-1.4v.1Zm-.1-.4H88v.2-.2Zm-3.3-7.2v.4zm-.3-1h-.1l.4.7zm-.9-1-.6-.8.5 1.1v-.3Zm-1.2-2.1-.5-.3.6 1v-.7Zm-.8-1.6h-.1v.2-.2Zm.4-6.1h.1Zm3.8-5.4-3.5 4.7 2.5.3zm26.1-13.6v-.2l-.1.2zm-.5-.4c0 .1.1.2.1.2v-.2Zm-2.3-1h-.1v.2-.2Zm-15.8-.5h-.1c0-.1 0 0 0 0zm7.8-3.4v-.2c-.1 0 0 .2 0 .2m-5-.1h-.5c0-.1.1.2.1.2zm1.5-1h-.1c0-.1 0 0 0 0h.2Z"/><path id="BS-IN" d="m447.1 479.4 27.1-2.8 12.4-14.1v-12.7l-8.2 11.8-6.1 2.4-8.7-6.8-17.9 8.2-2.3 6.6zm38.8-35.5 8.6-5.5-5.2-4-5.5 3.8 2.1 5.6Z"/><path id="BS-MG" d="m479.7 378.7 25.3 2.2-24.9-8.9-.5 6.7Z"/><path id="BS-AK" d="M449.5 363.8v-2.3c.1 0-1.2 2.5-1.2 2.5zm8.9-.7-2.1-1.6h-3.7zm-24.2-9.3-11.1 2.5 8.8 12.7-25.6 23.1 26.5-21.5-2.2-15.3 3.5-1.5Z"/><path id="BS-CK" d="m401.3 364.8 4.6-7.6-6.6 9.1zm10.4-13.9-10.2-4.3 4.8 9.1 12.1 2.5 4.8-4.4-11.4-2.9Zm24.3-24 1.3 2.1 8.5-1.1-9.7-1Z"/><path id="BS-RI" d="m313.1 389.9-1.1-1.4.3 3.3zm-1.5-2.3-.4-1.9v1.8h.4Zm-1-5.3-.4-.7.4 1.3zm-2.7-2.9-1.1-2.5.4 2.2.7.2Zm-2.1-7.5-.5-1.3-.2.8.7.4Z"/><path id="BS-LI" d="m368.8 335.6-13-11.3-17.5-38.3 17 40-10.4-3.8 16.2 6.9L370 344z"/><path id="BS-RC" d="m373.4 286.1-4-2.5-6.2 2.7zm-20.9-9.4v-2c.1 0-.8 1.1-.8 1.1z"/><path id="BS-SS" d="m394 262.3.2-8.6-6 13.4z"/><path id="BS-CI" d="m339.4 248.5-26.9-34.1 20.8 30.2-6.4 9.3 14.2-.2-1.6-5.1Z"/><path id="BS-SE" d="m285.2 194.3-1-.5-2.7 12.5-8-.2 11.3 12.1z"/><path id="BS-CE" d="m284.8 181.2-9.9-9.5-1.2 1 10.8 11.1-.3 10 1 .5z"/><path id="BS-NE" d="m274.9 171.6-27.3-18.9-3.1 9.8 12.5.3 16.7 9.8z"/><path id="BS-HI1" d="m245.5 153.7-1.1.7 2.7-.2-1.6-.4Z" data-name="BS-HI"/><path id="BS-SW" d="m241.7 155.1-2.8 1.8 4-1.6-1.3-.2Z"/><path id="BS-EX" d="m324.9 304.2-7.3-2.2 8.4 3.8-1-1.6Zm-28.2-17.6-3.9 5.7 24.3 10.1z"/><path id="BS-BP" d="m274.6 265.3-5.3-9.7 4 9.1 1.4.6Zm-9.9-17.5L260 243l3.3 5.4zm-19.4-20.7L244 225l.2 2.2h1.1Z"/><path id="BS-SA" d="m184.2 286.8.6-.8-1.2-.2zm-6.1-6.1-1-.4-.2.4zm41.8-19.7h-1.5l1.1.7.3-.7Zm-24 .5-5.7-13.2-7.5 13.1-5.1 3.9 1.5 8.7 8.9-2-6.7 4.3 2.9 2.7 9.3-4.4-13 7.1 11.7 1.1 5.2-9.4-.5-4.9-4.9 2 4-9.1Z"/><path id="BS-MC" d="m182.7 261.4-.9-9.7 8.2-5.4-2.8-3.8-17.2 14.6 7.7 8.2 5.1-3.9Z"/><path id="BS-CS" d="m178.9 246.6-11 3.4.3 2.6zm-9 .3.6-2.5-5.5 1.9 4.8.6Zm6-6.2 1-1.6-3.3.6zm10.7-1.8-2.4-1.3-5.5 3.2 7.9-1.8Zm-21.6 5.5 18.7-14.1-.9-11.4-18.6 1.2-6.7 8.2 7.5 16Z"/><path id="BS-NS" d="M182.8 218.9 167 192v-9.9l-13.9-3.9 1.9 20.4-8.4 13.6 6.9 8.8-8.4 1.3 1-8.8-8.5 6.1 14 11.3 5.9-2.6 6.7-8.2z"/><path id="BS-BY" d="m176.3 162.8.3-.8-4.5 1.8zm1.4-21-3.9-5.2 2.4 4.8z"/><path id="BS-MI" d="m196 99.5-2.7-2.2.4 5 2.2-2.7Z"/><path id="BS-SO" d="m196.8 115-.4-1.2-1.1.8zm32.8-15.9-1-3.1-12.8 5.1.5 10-11.9 8.3 11.7 10.4 4-25.9 9.6-4.8Z"/><path id="BS-CO" d="m211.4 95.9-1.3.8 2 2.8zm.4-3.7 2-1.7h-.5zm3.5-4.8-2.6.6 2 2zm-12.6-10.6V78l.8.1zm11.3-4-4.4-2.3-3.1.7 2.9 6.9 11.4 4-5 19 12.8-5.1-1.8-12.5-12.9-10.6Z"/><path id="BS-NO" d="m209.5 70.5-18-15.3-22.9 2 26.2 1.6 11.7 12.4 3.1-.7Z"/><path id="BS-GC" d="m144.2 32.6.7.7.4-.6h-1.1Z"/><path id="BS-EG" d="m176 78.7-3-.6 1.6 2.8zm-4.7-8.8.3-4.3-36.1 4.6 4.1 8.6 31.1-3.2.5-5.6Z"/><path id="BS-WG" d="m135.8 66.3-1.6-.4.6 1.1 1-.8Zm-2.1 14 5.9-1.5-4.1-8.6-7.7-7.1-3.1 6.9 4.4 2.2-9.1 8.2-18.3-9.4 14.9 13.9 7.8.2.7-3 2.4 1.1 6.1-3Z"/><path id="BS-FP" d="m127.6 83.3-2.4-1.1-.7 3z"/><path id="BS-NP" d="m199.7 193.6 13.9-4.8-19.2 2.8z"/></g></svg>