<?xml version="1.0" encoding="UTF-8"?>
<svg id="Layer_1" xmlns="http://www.w3.org/2000/svg" xmlns:amcharts="http://amcharts.com/ammap" version="1.1" viewBox="0 0 512 512">
  <!-- Generator: Adobe Illustrator 29.1.0, SVG Export Plug-In . SVG Version: 2.1.0 Build 142)  -->
  <g id="_x3C_defs">
    <amcharts:ammap bottomLatitude="20.912131" leftLongitude="-80.474946" projection="mercator" rightLongitude="-72.712069" topLatitude="27.933781"/>
  </g>
  <g>
    <path id="BS-HI" d="M233,81.7l-1.3,3.9,1.4-2.5-.2-1.4Z"/>
    <path id="BS-BI" d="M68.5,299.4l-1.6-1,1.3,1.1h.2ZM66,296.7l-.7-.9-2-2,2.7,2.9ZM57.2,285.3v.2c-.1,0,0,.3,0,.3v-.5ZM10.9,284.8l-.6-.2.4.6v-.3ZM53.5,276.7h-.3s.1.1.1.1h.2ZM7.4,267.3v-.3c.1,0-.4.6-.4.6l.4-.4ZM13.8,265l-.2-.2-.2.3h.4ZM14.7,264.8h-.3c0-.1,0,.2,0,.2l.4-.2ZM18.7,262.9l-.5.3h.4c0,.1,0-.3,0-.3ZM20.8,263.1v-.4c-.1,0-.3.5-.3.5h.3ZM25.5,261.6h-.1c0,0,0,.2,0,.2v-.2ZM91.8,176.1h0,0c0,.1,0,0,0,0ZM91.9,173.7h-.2c0,0,.2.5.2.5v-.5ZM91.7,173.1h0c0,0,0,.1,0,.1h0ZM90.6,170.6h-.2.2c0,0,0,0,0,0ZM90.8,170h0c0,0,0,0,0,0h0ZM89.4,166.3h-.2c0,.1.2.4.2.4v-.4ZM88.8,164.6h-.2c0-.1,0,0,0,0h.2ZM88.2,163.2h0c0-.1,0,.1,0,.1h0ZM88.1,162.8h-.1c0,0,0,.2,0,.2v-.2ZM84.8,155.6h0c0,0,0,.4,0,.4v-.4ZM84.5,154.6h-.1s.4.7.4.7l-.3-.7ZM83.6,153.6l-.6-.8.5,1.1v-.3ZM82.4,151.5l-.5-.3.6,1v-.7ZM81.6,149.9h-.1c0,0,0,.2,0,.2v-.2ZM82,143.8h0c0,0,0,0,0,0h.1ZM85.8,138.4l-3.5,4.7,2.5.3,1-5ZM111.9,124.8v-.2c0,0-.1.2-.1.2h.1ZM111.4,124.4h0c0,.1.1.2.1.2v-.2ZM109.1,123.4h-.1c0,0,0,.2,0,.2v-.2ZM93.3,122.9h-.1c0-.1,0,0,0,0h.1ZM101.1,119.5v-.2c-.1,0,0,.2,0,.2h0ZM96.1,119.4h-.5c0-.1.1.2.1.2l.4-.2ZM97.6,118.4h-.1c0-.1,0,0,0,0h.2Z"/>
    <path id="BS-IN" d="M447.1,479.4l27.1-2.8,12.4-14.1v-12.7s-8.2,11.8-8.2,11.8l-6.1,2.4-8.7-6.8-17.9,8.2-2.3,6.6,3.7,7.4ZM485.9,443.9l8.6-5.5-5.2-4-5.5,3.8,2.1,5.6Z"/>
    <path id="BS-MG" d="M479.7,378.7l25.3,2.2-24.9-8.9-.5,6.7Z"/>
    <path id="BS-AK" d="M449.5,363.8v-2.3c.1,0-1.2,2.5-1.2,2.5l1.2-.2ZM458.4,363.1l-2.1-1.6h-3.7c0,0,5.8,1.6,5.8,1.6ZM434.2,353.8l-11.1,2.5,8.8,12.7-25.6,23.1,26.5-21.5-2.2-15.3,3.5-1.5Z"/>
    <path id="BS-CK" d="M401.3,364.8l4.6-7.6-6.6,9.1,2-1.5ZM411.7,350.9l-10.2-4.3,4.8,9.1,12.1,2.5,4.8-4.4-11.4-2.9ZM436,326.9l1.3,2.1,8.5-1.1-9.7-1Z"/>
    <path id="BS-RI" d="M313.1,389.9l-1.1-1.4.3,3.3.8-1.9ZM311.6,387.6l-.4-1.9v1.8c0,0,.4,0,.4,0ZM310.6,382.3l-.4-.7.4,1.3v-.6ZM307.9,379.4l-1.1-2.5.4,2.2.7.2ZM305.8,371.9l-.5-1.3-.2.8.7.4Z"/>
    <path id="BS-LI" d="M368.8,335.6l-13-11.3-17.5-38.3,17,40-10.4-3.8,16.2,6.9,8.9,14.9-1.2-8.4Z"/>
    <path id="BS-RC" d="M373.4,286.1l-4-2.5-6.2,2.7,10.2-.2ZM352.5,276.7v-2c.1,0-.8,1.1-.8,1.1l.8.9Z"/>
    <path id="BS-SS" d="M394,262.3l.2-8.6-6,13.4,5.8-4.8Z"/>
    <path id="BS-CI" d="M339.4,248.5l-26.9-34.1,20.8,30.2-6.4,9.3,14.2-.2-1.6-5.1Z"/>
    <path id="BS-SE" d="M285.2,194.3l-1-.5-2.7,12.5-8-.2,11.3,12.1.4-23.9Z"/>
    <path id="BS-CE" d="M284.8,181.2l-9.9-9.5-1.2,1,10.8,11.1-.3,10,1,.5-.4-13.1Z"/>
    <path id="BS-NE" d="M274.9,171.6l-27.3-18.9-3.1,9.8,12.5.3,16.7,9.8,1.2-1Z"/>
    <path id="BS-HI1" data-name="BS-HI" d="M245.5,153.7l-1.1.7,2.7-.2-1.6-.4Z"/>
    <path id="BS-SW" d="M241.7,155.1l-2.8,1.8,4-1.6-1.3-.2Z"/>
    <path id="BS-EX" d="M324.9,304.2l-7.3-2.2,8.4,3.8-1-1.6ZM296.7,286.6l-3.9,5.7,24.3,10.1-20.4-15.8Z"/>
    <path id="BS-BP" d="M274.6,265.3l-5.3-9.7,4,9.1,1.4.6ZM264.7,247.8l-4.7-4.8,3.3,5.4,1.4-.6ZM245.3,227.1l-1.3-2.1.2,2.2h1.1Z"/>
    <path id="BS-SA" d="M184.2,286.8l.6-.8-1.2-.2.6,1ZM178.1,280.7l-1-.4-.2.4h1.2ZM219.9,261h-1.5s1.1.7,1.1.7l.3-.7ZM195.9,261.5l-5.7-13.2-7.5,13.1-5.1,3.9,1.5,8.7,8.9-2-6.7,4.3,2.9,2.7,9.3-4.4-13,7.1,11.7,1.1,5.2-9.4-.5-4.9-4.9,2,4-9.1Z"/>
    <path id="BS-MC" d="M182.7,261.4l-.9-9.7,8.2-5.4-2.8-3.8-17.2,14.6,7.7,8.2,5.1-3.9Z"/>
    <path id="BS-CS" d="M178.9,246.6l-11,3.4.3,2.6,10.7-6ZM169.9,246.9l.6-2.5-5.5,1.9,4.8.6ZM175.9,240.7l1-1.6-3.3.6,2.3,1ZM186.6,238.9l-2.4-1.3-5.5,3.2,7.9-1.8ZM165,244.4l18.7-14.1-.9-11.4-18.6,1.2-6.7,8.2,7.5,16Z"/>
    <path id="BS-NS" d="M182.8,218.9l-15.8-26.9v-9.9c0,0-13.9-3.9-13.9-3.9l1.9,20.4-8.4,13.6,6.9,8.8-8.4,1.3,1-8.8-8.5,6.1,14,11.3,5.9-2.6,6.7-8.2,18.6-1.2Z"/>
    <path id="BS-BY" d="M176.3,162.8l.3-.8-4.5,1.8,4.2-1ZM177.7,141.8l-3.9-5.2,2.4,4.8,1.5.4Z"/>
    <path id="BS-MI" d="M196,99.5l-2.7-2.2.4,5,2.2-2.7Z"/>
    <path id="BS-SO" d="M196.8,115l-.4-1.2-1.1.8,1.5.4ZM229.6,99.1l-1-3.1-12.8,5.1.5,10-11.9,8.3,11.7,10.4,4-25.9,9.6-4.8Z"/>
    <path id="BS-CO" d="M211.4,95.9l-1.3.8,2,2.8-.7-3.6ZM211.8,92.2l2-1.7h-.5s-1.5,1.7-1.5,1.7ZM215.3,87.4l-2.6.6,2,2,.6-2.6ZM202.7,76.8v1.2s.8.1.8.1l-.8-1.3ZM214,72.8l-4.4-2.3-3.1.7,2.9,6.9,11.4,4-5,19,12.8-5.1-1.8-12.5-12.9-10.6Z"/>
    <path id="BS-NO" d="M209.5,70.5l-18-15.3-22.9,2,26.2,1.6,11.7,12.4,3.1-.7Z"/>
    <path id="BS-GC" d="M144.2,32.6l.7.7.4-.6h-1.1Z"/>
    <path id="BS-EG" d="M176,78.7l-3-.6,1.6,2.8,1.4-2.2ZM171.3,69.9l.3-4.3-36.1,4.6,4.1,8.6,31.1-3.2.5-5.6Z"/>
    <path id="BS-WG" d="M135.8,66.3l-1.6-.4.6,1.1,1-.8ZM133.7,80.3l5.9-1.5-4.1-8.6-7.7-7.1-3.1,6.9,4.4,2.2-9.1,8.2-18.3-9.4,14.9,13.9,7.8.2.7-3,2.4,1.1,6.1-3Z"/>
    <path id="BS-FP" d="M127.6,83.3l-2.4-1.1-.7,3,3.1-1.9Z"/>
    <path id="BS-NP" d="M199.7,193.6l13.9-4.8-19.2,2.8,5.3,2Z"/>
  </g>
</svg>