<svg xmlns="http://www.w3.org/2000/svg" xmlns:amcharts="http://amcharts.com/ammap" id="Layer_1" viewBox="0 0 512 512"><g id="_x3C_defs"><amcharts:ammap bottomLatitude="15.893" leftLongitude="-89.224" projection="mercator" rightLongitude="-87.491" topLatitude="18.497"/></g><g><path id="BZ-BZ" d="m339.3 260.7.5.9-.4.4-1.5-.2 1.4-1.2Zm-33.6-4.5.6 1v1.1c-.1 0-1.2.3-1.2.3v.5l-.3-.5zm99.9-1.6 1.6.3-1.3.4-.7-.4.3-.3Zm-10-2.8 1.4 1.4v.9c-.1 0-3 2.7-3 2.7l.2.7h-.7c0 .1 1.7-4.8 1.7-4.8v-.9c-.1 0 .5-.1.5-.1Zm-89.8-2.9v2.8l-.7.4v-2.6zm33.8-1.1h.9c0 .1.1.6.1.6l-.6.9-.9.2h-.1c0-.1.8-1.1.8-1.1l-.2-.7Zm6.9-.7.7.4.4 1.4-1 .6.2 1.4-.7 1.1.4 1.3-.5-.7-.8 1.2.7.8.3 1.7-1.5 2.1-1.2.3-.5-.3h.7l.8-2-.8-1.8.3-1.6-1.8-.4-.7 1.2-.5-.4.8-1.4-.9-.4.5-.6-.8-1.4 1.7-.9.4.9 1.4.5h-1.5c0 .1-.1 1.2-.1 1.2l2 .3.9-.5-.4-1.2.6-.8h-.6v-1.3c.1 0 1.2-.6 1.2-.6Zm-9.6-2.1-.4 1.5h-.6c0 .1 1-1.5 1-1.5m7-2.5.3 1.2-1.7 1.2zm-2.4-2.6.8.8-.3.5zm-6.3-1.2-.2 1.7 1 1.7-.4 3.1-.4-.5-.6.2.7-1.5-1.9-1.6-.6.3-.8 1.8 1.1 2.3.6.4 1.3-.2-1.9 1.5.9 2v1.5h.5l.4-.9 1.7.2.6-1-.4 1.4.3 1.4-.3.2-.5-1.2-.6.2-.4 1.6 2.5 1h-1.2c0 .1.1.7.1.7l-.8.3.7.4v.6l1.3.7-.5.7-.6.2.7.9.3 2.6-.9-1-.9-2.5.4-1-.7-.3.6-.9-.7-.3.5-.7-1.7-.5-1.6-1.9-1.6-7.7.3-2.6.6-.4.7-1.9v1.3l.5.5.9-1.8 1-.9Zm20.6-.1.7 1.5-1 .4-.6 1.7-.6-.3-.5 1.6-.6.8-.4-.2-.3.3-1.2-.4-1.1 2h-1.9c0 .1-.6-1.1-.6-1.1l-1.3-.4.4-1.1h2.9c0-.1 1.2.3 1.2.3l.8-1.5.6.4v.7c-.1 0 .6.4.6.4l.9-1.4-.5-.5.6-.3V240c-.1 0 1.8-1.5 1.8-1.5Zm-49.2-.9.4 2.6-.3.8-.6.2.6.2v2.3c-.1 0-1.6 1.3-1.6 1.3l.7-3.4-.8-2.8 1.7-1.1Zm32.8-.8.3.7-.7-.3zm9.5-.1.6.6h3.1l-.4 1.6-2.2 3.3-1.1.6-.9-.4-1.3.4 1-.7 1.1.5.7-.6-.4-.9-1.9-.6-.3-1.1.8-.7v.9l.9.5v-1.4c-.1 0 .2.5.2.5l.8-.3-1-.6v-1.5Zm-2.1-.1-.3 2-.7-1.8h1Zm-7-2.9-.5 2-.3-.9zm2.5.9h-.4c0-.1.7-.9.7-.9zm3.3-2 .5.5-.9.4.4-1Zm-5-3.4-.6 1.4-.3-.8zm-54.7-5.1 1 .8 1.3.2.5.7v.2c-.1 0 0 .5 0 .5l.8-.9.9-.5v.4c.1 0-1.7 1.3-1.7 1.3l-.9-1.6-2.2-.4.5-.7Zm66.5-2.8.3 1.6-1.2-1.3 1-.3Zm-42.6-1.9 1 2.9-1.7 1.1-.8-.7-.3-2.4.6-.7h1.1Zm-1.1-6 .7 1.8-1.7 2-.4-.5zm45.1-.7.8.6 1.3-.4-1.7 2.8 2.1 5.2-.4.8 2.1 5.2-.3.9 1.4 2.8-.8 3.1-.7.4-.3 1.9-1.3-.4.4-1.4.9-.6-1-1.5-2.3 1.1-1.2 2.7h-.7l.7-1.5v-1.1c-.1 0 1.2-1.2 1.2-1.2l-.7-2.1.8-4.3-.9-1.2 2.1-.6-.2-1.3.5-.9-.3-.9-1.2-1 .3-1.6-.5-1.5-.5-.4-1.1.4-1-.6 1.4-1-.7-.6 1.5-2.1Zm-44.6-.8-.5.4.2.5h-.8l.1-.5zm.1-1.4-.6 1.1h-.7l.3-.9zm.3-2-.5 1.6h-.5l.4-.5-1.2.8v-.6c-.1 0 1.8-1.3 1.8-1.3m-.9-.5.4.5-1 .4v-.6l.7-.3Zm103.4-.8 1.2.2.9 1.3-.9 2.4h-1l-3-1.2.7-1.4 2-1.2Zm-114.3-1.2.4.5h-.8c0 .1-.1-.3-.1-.3l.6-.2Zm59.8-.4v.4c.1 0-.7.5-.7.5l.7-1Zm-59.6-7.5.4.5h1l-.5.5-2-.4 1.2-.6Zm-3.4-3.1.8 2.2-.5 1-.8.3-1.1-1.8-1.1-.7v-.8h2.5Zm-9.7-1.4.2.7-.5.2zm16.9-.3 1 1.3h1.4c0 .1 3.1 3.7 3.1 3.7l2.2.9.6.8-.6 1.5-.9.3-.7 2.8.6 2.5 1.7-2v1.6l-.7 1.2h-.4l.3-.7-.6.6-1.1-.2v.6c-.1 0-1.1.1-1.1.1v-.8c.1 0 1.4-.1 1.4-.1v-.8l-1.6.5-1.1-1.4v-1.7l1.3-.8h1.1l-1.1-.4-1.3.9-.5-.5 1.9-1.1.9.6h.5c0-.1-.4-.3-.4-.3v-.6h-.9l-1.7.8 1.4-1.6 1-.3v-.6c-.1 0-2.7 1.9-2.7 1.9v-.6l1-1.1h-.8c0 .1 1-.3 1-.3l.8-1.1-.7.4-.2-.4-.2.6-1.1.7-1.5-.8-.3-.7-.5.6-.7-1.7-.8-.3.3-.7-.5.4-.7-.9v-1.4c.1 0 .9-.4.9-.4v.7h.6c0-.1-.4-.8-.4-.8l1-.8Zm-14-3 .9.2.8 1.3-.2.9-.8.7-1.4-.7.8-1.3-.4-.8.3-.4Zm76.2 0 .9.8.8-.2-.8.3v1.1h-.5v-1.1l-.9-.7.4-.2Zm-8.2-.6.5 1.2 1.3.3v1.2c.1 0-.4.4-.4.4l.6.9 1.8-.3 1.1-1.1.7.2v.7l-1 .4-.7 1.7h-.8l.9 1.4 2.2.5.3 1.2 2.6-1.5v1.3l-4.1 1.5.2 1.4-2.1 1.1-1.8 2.9-1 2.5v2.6l-1.4 1.1-1.3.3-.6 1.6-.9.7h-2.7l.1-1.6-1-1.5 1.3-.7-.4-.9-.9.3-.6 1.4-.4-.5h-.9c0 .1-.5.8-.5.8l-.7-.3.3 1.6-.8 1.2-.7.2.3-.7h-.9c0-.1-.2-.6-.2-.6h-1.4l-1.3 1 .2 1.4-.4 1h-.6c0 .1.6.6.6.6l-1.2 2 .5 1.8h1l-1.5 2.5 1 2-.3 1.2-1.6 2.7.3 1-.8.2-.6-.8-.5.7.4.9-.7-.2-.6 2h-.5l-.1 2.2.8.8-.6-.4-1.5.3.4 1 .7-.3.7 1.3h.8l-.5.6-1.9-.5-.2.6h-.8l-.5 1-.5-2 1.1-.6-.4-2.1 1.1-.5-.2-.6.8-.4v-2.2l.5.4.8-.2v-1.3l.6-.9-.6-.2v-1h.5l.4 1 .7-.3-.3-.5 1.3.2-.6-1.5h-1.1c0 .1-.8-.5-.8-.5h.8l.1-.4h-1.3l-.6-2.3.7-1.3-.5-.3v-1.1l2.4-4.5 2.4-2.9.6-2.7 1.5-1.2 1.1-2.8 1.8-2v-.6c-.1 0 1.4-1.5 1.4-1.5h.9c0 .1 1-1.7 1-1.7l.8.3-1.5 1.5.4 1.2-2.4 1.3-1 1.8.7.8 3.4-.4 1.4-.6.2-.7 3.8-1.2.5-1.6-1-1 1.1-2 .9.2 1.3-1.2 2.5-.3-.3-1.6h-1.6l.5-3.2h-1.5l-1-.8-1.6 2.6.3 1.5h-1l-1.6 2.3-1.6 1.3h-.7l2-1.4 1.5-2.3.6-2.7 1.9-1.7v-3h.1Zm-67-1.8v2c-.1 0-.9.3-.9.3v-1l.9-1.2Zm19.4-.9.5.8-.5.8h-.1l.1-.8-.9-.5.9-.2Zm-17.9-1.4.4 1.2-.9.5-.6-.3.5.6-.4.4-.5-.3.4-1.6 1-.5Zm-11.8-.8-.9 1.7h-.6l.2-1.3 1.3-.5Zm29.4-.8v.5c-.1 0 .7.5.7.5l-.5 1-1.9-1.4zm-23.2-.2v1l-1.1.7v-1.4l1.1-.4Zm74-.1 1.3 1.1-1.6-.6-.4.4-.5-.2 1.1-.6Zm-75.6 0 .3.4h-1.5zm80.3-5.4.4.6-.4-.5h-1l1-.2Zm-93.4-.7v.9c.1 0 .6.2.6.2l-.4.2v.8c.1 0-.6.1-.6.1l-.4-.4.8-.2-.8-.6h.7l-.5-.9h.5Zm.7-1.7v.5h1.2c0-.1-.3.5-.3.5h-1.5zm32.4-1.6h1.5c0 .1 2.1 1.8 2.1 1.8l.3 1.4v1.1c.1 0-.4.6-.4.6l-.5-.7h-.8c0-.1 1.7 1.2 1.7 1.2v1.3l-.4.9h.6l.2 1.4-.6.6-1.4-1.4.9-2.4h-.8v-.9l-1-.7.2-.9-1.6-2.2-1-.6 1.1-.5Zm6.4-3 .3 1.3-2.1 5.8 1-6.7.9-.4Zm-12.5-.7.9 1.1 2.2.2 1.1 2.1h-1.3l-.3-2h-1c0 .1.6.6.6.6l-2.5.2zm-1-.4.5.4-.7.5-.2-.6.5-.3Zm18.1-12v4l-1.3 2.6.5-1.9-.2-1.4 1-3.2Zm-11-1.3.6.4v3c.1 0-1-.4-1-.4l-1.9 1.1-3 3.8h-1.2c0 .1-2.7 3.8-2.7 3.8l1.5 1.3h-1.3c0-.1-.2-.7-.2-.7H292c0 .1 1.3-1.5 1.3-1.5h1.1l.1-.6.5-.3v-.7c-.1 0-1 .3-1 .3l-1.1-1.5-.2 1.2h-.9l-.7 1.8.6 1.1-1.2-1.3v.9c-.1 0-1.5 1.1-1.5 1.1l.3.5h-.7v.5l1.1.2.5-.7h.8c0 .1-.5-1.2-.5-1.2l.3-.3.5.4v1.3l-.7.3.3.6-2.6-.3-1.7 1.1-1-.3v-1.7l-.4 1-1.2.4v-.8l.8-.3.6-1.3h.8v1.4l.6.4 1.8-1.1 2.8-4.5 1.3-.7 1.2.6h.9c0-.1.4-1.9.4-1.9l1.8-.3 2.9-1.5 2.9-4.6Zm14.8-14.6-1.2 5.5.5 4.6-1.2 2.5-1.6.3.2-2.2.7-.5.8.5.7-1v-1.4l-1.2-1 1.2-5.8 1.2-1.6Zm-7.1-12.8 1.8.3-2 .3.7 1.7 2.5.2-1.3.6-3.5.3-.8-1 .2-.6.5.4v-1.5l1 .2 1-.7Zm-1.7-1.2 1.3.7v.5l-.7-.5-.4.4-.6-.6zm1.8-.6.7.8-.6-.4-.6.5v-.6c-.1 0 .6-.4.6-.4Zm.7-.2.6 1-1.1-.8zm-22.4-14.2-.4 2.1-.9.4-1 1.9-1 .7-1.8 5.2-1.2 7.4-.5.5.2 2-.8 3.7-1.1 11.5-1.6 8.6-2.4 4.5-1.1.9-.2 2.2-1.4.3-1.4 1.6-2.5-1.7-.5.6v1.6l1.2-.2-.7.7-1.4-.4-.4.4.2.9h1.8c0-.1.3.3.3.3l.6-.4-.4-1.4 1.6.5.6-.9-1.1 4.1-1.4.2-1 .8-1.2-.2-.3 1.1.3 1.5-.7 1.5.8 10.6 1.5.3.5 1.1 1.8 1.5 2.8.7 1.3 1.1 1.2-.4.8 1-.6 1.3 1.3 1.8 3.4 1.1 2.4-1.2 2.3 1.7-.2 1.5 1 .8.3 1.3-.8-.3-.5 1.6-.9-.3-1.5 1.1v1.4c.1 0-.3-1.5-.3-1.5l-2.1-.2-1.8-1.4-1.4-.2-1.3.7-1.6 2.1-1.7 4.3-.5 4.4-.6.5.4 1.3-1.7 4.9-1.9 9.8-3 10.5-1.3 8.1v19.7c-.1 0 .6 4.4.6 4.4l1.4 1.5-7.4 2.7h-8.7l-4.8-2.3h-31.1l1.3-1.3 4-4.9-.9-10.4 1.6-3.3-3-2.7v-27.9l-1.7-6.8-.4-15.3h-2.2l-1.3 2.7-.9 4.5-1.7.5-1.7-1.8h-2.2v-10h-.5l.5-22.1 2.6-8.1h2.9l9.1-3.1-.3-2.4-2.6-1.4.3-18 1.9-1.4V137l-1.6-2v-6.8l1.3-3.4.3-4.1 1.9-1.7 3.6-1.4 3.2-.7 8.4-.3v-.6l7.9-2.5 6.8-1 4-2.2 16.8 1.5 15.9.7v.3Z"/><path id="BZ-CY" d="m208.9 206.5 1.7 1.8 1.7-.5.9-4.5 1.3-2.7h2.2l.4 15.3 1.7 6.8v27.9l3 2.7-1.6 3.3.9 10.4-4 4.9-3.8 4-.6.5 2.2 4 2.6 3.2 3.5-.5v4.9h-2.6l-1.7 2.7-2.2 5.9-1.7 2.7-3.9 1.3-2.8 1.6-3.1 9.2-.2 11.9-5.2.2-.9 4 .4.5-8.2 4.9-1.3 4-2.2 3.1-1.3 4-3.9 4.9v3.6l-2.3 2.4h-.7l-.4 3.9-4.3.9v2.2l3 .9v2.2l-7.8 8.1-3.9 1.8-6.5 4.5-5.2 1.3-3 2.2-1.7 3.6-5.2 2.2-3.5-.4-1.7-2.7-3-.5-3.9 6.7H118l-1.7 2.7-3.5 2.2-3 6.3-5.5.5 1.1-17.7h.6l2.1-31.7h-.7l4.5-70.4v-52.4h-.1l5.2-1.7 1.7-3.6 4.8-2.7 3.9-3.2 5.2.5 1.3 1.4h20.3l3.9-1.4 2.2-2.7 1.3-2.7 1.7-1.4 2.2 1.8 12.1.5.9-2.3.9-.5 2.6 2.3h6.1l1.3-1.8 4.3-.9v-3.2l3.5-1.4 3-.5 3.5-2.3h5.2Z"/><path id="BZ-CZL" d="m319.7 123.1.7 1.2h-1l.2-1.2Zm-3.3-24-.6 1.2.4-2 1.8-3.8-1.6 4.5Zm12.1-14.8.2 1.8-.8.7v1c.1 0-1.3.4-1.3.4l.3.9-2.5-.4-1.2.9 1.5-2.1.5.5.4-.9-1-.5 1.1-.4.3-1.5 1 1.5 1.2-.4.2-1.3Zm1.6-4.7.3 1.5-1.1 1.1-.8-.2-.2-.6 1.3-.2v-.4c.1 0-.7.2-.7.2l1.1-.7-.5-.2-.8.8v-1c.1 0 1.4-.4 1.4-.4Zm2.7-.1-.2 4.5-.7.8-1.1.2-.6 1.4-1.3.3.2-.6.5.3v-.8l1.2-1.1-.3-.3-.9 1v-.7l-.5.3.4-1.8h1l.3-.7.6.6 1.1-.2-.5-.6-.6.3-1.5-.4 1.4-.6.4-1.2 1.2-.6Zm14.9-15.3 2.1 2.6-.9 1.2 1.5 2.6 1.3 6.8 1.1 2-.2 1.2h-1.2l-3.9 2.3-.8 1.6-3.3 3.3-1.3 4.3-1 1.4-.6 3.1-1.9 2.8-4.9 11.6-1.3.9-.3 1.2-3.2 4.3-.3 1.3-2.8 3-.7 2.4-1.2 1.4-2 1.2-1.5-.3-2.8 1-1.1-.7-.9-.2-1.3.7.2-.6-.5-.3.5-.9 1-.3 1.4 1 1.3-.8.2-.8.3.6.9-.4.3.5.8-.9v1.3l1.5.1.6-1.3-1.7-1.3.7-2h1l-.6.6.4.4h-.7c0 .1 1 .4 1 .4v-.5h1v-.8h.8l.9-1h.7l-.4-.6.9-1 .8.6.9-.8v-.4c.1 0-.5.2-.5.2l.4-.5v-1.2c-.1 0 .3-.1.3-.1l.3-2 1.1-.8-.2-.6.4-.3-.2-1.2h-.8v-.6c.1 0-2.7 5.3-2.7 5.3l-1 .7-.4-.2.5-.7-.6.5-.5 2.8-1.5.4v.9c-.1 0-.4-1.6-.4-1.6l1.7-2.9-1.2.7-.7 1.4-.2-1 1.6-2.2-.3-.7.9-2.6 1.9-2.2 1.1-3.9.8-.7v.6l.8-.2-.6-.5h.5l-.3-1.3.8-2 .6-.2v-1.2h.7v-.8l1.3-.9 1.9-2.8h.8c0-.1-.2-1.2-.2-1.2l-.6.4.7-1.5-.7-1.5-1.2 2.1.5-1.5h-.5c0-.1-.5 1.3-.5 1.3l-1.3 1v1.1c.1 0 .5-.7.5-.7l.3.3-.7 1.1h-.8c0 .1.5-2.2.5-2.2l-.5-3 1-1.1.2 1.2h1.7c0 .1 2.5-3.5 2.5-3.5l.9.9 1.5-.4.4-.7v-.5c-.1 0-.6.1-.6.1l.3-.6-1.4.2v-.7l-1 .7.2-2 1.8-.8.9-2.4 1.2-1 .9-2.6-.4-1.6.6-2.2 1.1.2.7-2.7 2.3-2.3.4-1.3.7-.2v-.7c-.1 0-.6.2-.6.2l.5-1.3h.6c0-.1-.3 1.2-.3 1.2l1.3-.6-.6-.2.7-.9.3-1.7ZM303.5 35l.9.5-.3 1.6-.6-.7zm-52-24.6 5.1.2 4.8-.8 1.7.4.3 1.1 2.7 2 .3 1.4 1 1.4-1 1.3-1.3.6-.2.7-1.2.3-.4 2.2-2.4 2.5-1.9 1.2-1.3.2-4.7 3.3-1.4.2L249 31v2.6c-.1 0 .4 1.9.4 1.9l2 2 3-.6 2.8-2 1 .2 2.7-1.4h2.4l.4.6-3.8 2.9-1.2 2.2v1.2l2.2.4.3-.6 5-1.9 1.9-1.3 3.7-.3 3.3-1.5.7.6 2-1.3 1.7 1.6-1.3.9.7 1.4 5.3-2.1-1.3 2 1.7-.4-3 1.6 1.2 1.2 2.2-2 4.9-.2 1.6-1.4 5.9-3.2 1.4-.6h3c0 .1 2.1-1.3 2.1-1.3l-.4 3.4h-.7v.3l.2 1.4.6.5.7-.4-1 7.8.7 1.5h-1l.1 1.3-.5.8.6.6.5-1.2.3.7h.8l.8 1-1.4-.3-.4.7 1.6.9v1l-.5.3-.5-.6-.3 1 .5 1.8-.3 5.4 1.1 3.8-2.2 15v2.2c.1 0-.6 1.3-.6 1.3v2.3c-.1 0-.9-.1-.9-.1l-.8 1.2-3.3 13.3-3.8 4.7-.6 3.4 1 1.3-.7.9.6.3-4.1 2.8-.5.9-15.9-.7-1.9-.2-15-13.8-6.9-7.7-9.1-5.9-1.7-3.6-3.9-12.7-5.6-4.1-8.8-3.7-2.7-2.1-7.4-.4.6-2.1 1-9.3L221 37v-5.1l3.7-8 2.2-8 6.8-6 1.6-.6 3.5.9 1 1.6 1 .4 1.6-.2 6.9-3h.8l1.5 1.9Z"/><path id="BZ-OW" d="m210.4 58.1 7.4.4 2.7 2.1 8.8 3.7 5.6 4.1 3.9 12.7 1.7 3.6 9.1 5.9 6.9 7.7 15 13.8-14.9-1.4-4 2.2-6.8 1-7.9 2.5v.6l-8.3.3-3.3.7-3.6 1.4-1.9 1.7-.3 4.1-1.3 3.4v6.8l1.6 2v2.7l-2 1.4-.3 18 2.6 1.4.3 2.4-9.1 3.1h-2.9l-2.6 8.1-.5 22.1h.5v10h-3l-3.5 2.3-3 .5-3.5 1.4v3.2l-4.3.9-1.3 1.8h-6.1l-2.6-2.3-.9.5-.9 2.3-12.1-.5-2.2-1.8-1.7 1.4-1.3 2.7-2.2 2.7-3.9 1.4H134l-1.3-1.4-5.2-.5-3.9 3.2-4.8 2.7-1.7 3.6-5.2 1.7-.2-92.2.4-25.2 3.2-4.3 4-.7 2.3-3.3 10-3.4h1.9c0-.1 5.5 4.5 5.5 4.5l2.6 4.5.6.2 1-.8 2.3 1 2.6-.9h1.1c0 .1 4.6 7 4.6 7l7.6 3.6.8 1.5 5 5.3v-6l-1-2.6.3-3.1 4-3 2.2-.8 2.4-3.8 3.2-2.1v-2.6c.1 0 2.7-3.2 2.7-3.2l1.6-4.5 2.7-2.5 7.6-3.2 1.3-2.3 1.1-5.5 3.9-6.5 2.1-6.8 4.5-7.5 3.5-2.5 1.1-2.4Z"/><path id="BZ-SC" d="m255.8 385.8.3 1.4-.9.3v-1.4c-.1 0 .6-.3.6-.3m14-1.2.6.8.7-.4v1l-2.2-.4-.3.6-.6-.2 1.7-1.4Zm12.3-15 .3.6-.7.7v-.6l-1-.7h1.3Zm-22-.5-.6 1.2-.5-.2v-.7c.1 0 1.1-.3 1.1-.3m24.5-4.2v.6h-.5zm-1.4-1.8v.9h-.4l.5-.9Zm8.4-2.2.4 1-.4-.2v.6l-.4.1zm-6.6-1.6.2.7h-.6zm2.9-1.5.8 1.4-1.2-.4.5-1Zm-1.4-1.1v1.1c.1 0-.5-.9-.5-.9zm0-1.1.5.2v1l-1.1-.8.6-.3Zm.3-2.9.5.3v.9c-.1 0-.9-.4-.9-.4l.5-.8Zm3.4-.7.3 1.1-.6 1.4.2-2-.3-.4h.4Zm-.4-3.6.6.5-.3.7zm59.6 0-1 .5-.2-.7.5-.6h1.1l-.3.8Zm6.6-5.5.5.5h-1.1c0 .1.6-.5.6-.5m-62.4-11.2.3.5-.5.3zm.1-2.1v.5c.1 0 .4-.4.4-.4l1 .3v.5c-.1 0-.5-.2-.5-.2v.6c.1 0-.7-.4-.7-.4v.9l-.9-.6.7-1.1Zm.7-1.7-.8 1.3.2-1.1zm7.8-2.8.8.2.5 1.3-1.4.8.4-1.4-.3-.4-.2 1-.4-.8.7-.8Zm-2.6-8.7.3.7-.7.3.5-1Zm4.3-2.3-.5.8.7 2.3-.8-.4-.3-2 .8-.7Zm3.3-2.8-1.3 2.5-.2 2.9-1.2 1.1-.2-1.2.8.5.5-1.3-.3-.3.4-1.1v-1.1c-.1 0-.7.7-.7.7v-.7l2.2-1.9Zm-2.2-11.8.5.6-1.2.3zm.8-1.5.2.4h-.9c0 .1-.3.9-.3.9v-.7l1-.5Zm6.3-.8 1.8.3-2.2.7-.8-.4zm-7.8-1.3v.6l-.9.4.9-1.1Zm.4-1.5-.2.7-.3-.3zm12.2-2.6v1.5c.1 0-.9.6-.9.6V292zm-2.4-16.3 1.3 1v2.2h-2.4l-1.6 1.2 1.2-3.8zm-46.7-2.6.7.8.5 4 1.6 2.8 2 .7 2.7-.6 1.1.8.7 6.2 1.1 1.7-.3 1.3.4 2.7 3.1 6.6v2.1c-.1 0-1.3 3.2-1.3 3.2l-1.6.9v.8c-.1 0-1.3-.7-1.3-.7l-2.5.6-4.4 2.8-.4 3.9-1.4 1.4.4 3 2.5 5.6 1.6 1.5h.6c0-.1-.9.7-.9.7v1.3l.8 1.5 1.5 1.2-.4.5.8.4-1 .4-2-.7-1.3.2-1.2 2.5-2.4.4v1.6l-.9 2.3-.7-2.3-1.5.4-1.5 1.3v3l-.6.6 1.3-.3.8-2.8 1.8-.9-1.4 1.1-.6 1.9 1 4.6 1.3 2.3-.5 2-.9.9-.7 2.1.6 5.4-.6 2.6-1 1.5-5.8 3.6-.5.8-.6 6.3-1.2.5-.6 2.5.7 3.3 1.2 2.7-.9 1-.4 1.8-1.2.5.8 2.1-1.8 1v-1c-.1 0-.9.3-.9.3l-.5-.6 2.6-3.2-.4-.7.4-3.5-.7-1.5 1-6-.4.2v-.5l.8-1 .3.7.8-.5V366l1.1-2.2 2-.6v-.5c-.1 0 .9-.6.9-.6l-.4-.7h2.3c0 .1 1.7-1.7 1.7-1.7l.3-2.1-1-1.2-1-.2-.6 1.6-1.6.7-1.8 1.9.2 1.7-.8 1.4h-.4v-.4l-.9.2-2.9 3.3.6 1.5-.7 1.3v1.8c.1 0 .9 1.2.9 1.2l-.5.8.2 1.3-.6 1.9-1.6.3-1.1 1.5.6.6 1.1-.2 1 1.8-1 1.1v-.7c.1 0-.5-.6-.5-.6l-2.6.6-.2.3-.7.3-.7 1.7-.8.4 2.7 1 .3-.5-1-.2-.6-1.6 1 .9 1.2-.5.7.4v.5c.1 0-1 1.4-1 1.4l-1.6.5.4 1.8-28.1-1.2-.4-1.8 2.6-1.3.4-2.7-.9-4.9-2.6-4.5-5.2-6.3 1.7-.7V360l-3-4-3.9-2.2-6.9-1.3-22.6.4v-3.6l3.9-4.9 1.3-4 2.2-3.1 1.3-4 8.2-4.9-.4-.5.9-4 5.2-.2.2-11.9 3.1-9.2 2.8-1.6 3.9-1.4 1.7-2.7 2.2-5.8 1.7-2.7h2.6v-5l-3.5.5-2.6-3.2-2.2-4 .6-.5 2.5-2.7h31.1l4.8 2.3h8.6l7.4-2.7Zm38.8-5 1.2 1-.6 1.3v-1.6l-1-.6h.3Zm-.6-1.6.3.8-.4.4v-1.3Z"/><path id="BZ-TOL" d="m200.9 449.8.2.7-.7.5-.2-.5.5.2.3-.8Zm3.5-.6.5.4h-1.3zm-2.8-.2.4.7-.8.4.5-1.1Zm-9.7 1.7-.9.5.5-.5-.4-.5.5-.2.3.6Zm8.6-2.9v.5h-.7l1.1.2-.3-.4.5-.2v.6l.6-.3.7.8.6-.9.5.7-1.1.4-.5-.5h-2.1l-.2-.7 1-.3Zm-6.9-.1.6.4-.4.5v.9h-.6v-.7l-.4.5-.5-.9 1.2-.6Zm1.2-.8.3.7h.4c0-.1-.6.9-.6.9l-.5-.5.4-1Zm6.3-.1 2.2 1-1.4.4v-.9c-.1 0-1.5-.3-1.5-.3l.8-.2Zm4.6-.3.4.7-1.2.4v-.4c-.1 0 .8-.6.8-.6Zm-11.8-.3-.5.6 1-.2-.8 1-.6-.9zm2.9-1.2v1.1l-1.1-.2.7-.3v-.5l-1 .5.3-.6h1.2Zm8.6-2.2-.4 1.5-.4-.4zm-9.3-.6-.2.6-.5-.2zm17.9-1.5-.3.8h-.7zm-13.6-.2.3 1.1-.7.2.7.2v.8l-.9.2-.2-.5.7-.4h-.4c0-.1-.8.4-.8.4v.8l-.9.3-.2-.5h.6l-.5-.6 1.7-.5-.4-.2.4-1 .7-.2Zm5.6-.3.2.8-.6-.2-.8.9-.6-.2.2-.6zm-5.2-.9 1.2.4h-1.7zm6.2-1.4.3.7-.8.7-.3-.8.4.4.3-.6h-.5zm.7-.3.2.9-.8-.5zm35-35.7.5.6-.3.9v-1.5Zm-1.5 0 1.1.2-.4 1.2-.8-.4v-.9Zm6.2-8.8.2 1.3-.9-1.4 2.1-1.2-1.5 1.3ZM180.3 353l22.6-.4 6.9 1.3 3.9 2.2 3 4v3.8l-1.7.7 5.2 6.3 2.6 4.5.9 4.9-.4 2.7-2.6 1.3.4 1.8 28.1 1.2h.7v.8l-2.9.4-.3 3.1-1.5 1 .2.8-.8 1.2.4 2.5-.4 2.1h-1.5l-.4-.7-1.1.5v2.2l-2-2h-.8l.9.5.6 3.4-1.1-.2.6 1.3-1.1.8v.7c.1 0 1.3.6 1.3.6l1.4-1.6.6.9-1.2.7-.6 1.2-.9-.4-1.6 1.4-.7-.5h.5v-.6l-.5-1.6-2.4 1.6v2.6c-.1 0-1 1.8-1 1.8l.3 1.6-.9.7-1.4 4.1-3.6 2.5-2.9 3.9-2.5 1.3-.6 1.4v4.3h-3.7c0 .1-2 .9-2 .9l-1.3 4.8-.7.8v-.8l-.9-1.4 1.4-1.7-.7-.6h-.8c0 .1-.8 1.6-.8 1.6h-1l.9-.8.6-1.5v-1.6l-1.6 1.5.8 1.4-.8.8-.7-.8-1.4.2-1-1.9-3.2-2.8h-2.4l-1.1.6-.5 1.3v1.2l.8.4v1.2c.1 0-1.2 1.7-1.2 1.7h-1c0-.1-.8-.9-.8-.9l-1.5.8v.6c.1 0-3.4.4-3.4.4l-1 .7 1.1.4-.3.6-5.1-.5-.6.4.6.9h-.9l-.7 1.7-2.4.6-.2 2.6 1.3 2.6-.4 1.4 1.2 1.9h.9c0 .1-2.7 1.6-2.7 1.6v1.8l-1.3.6v.8l1 1-.4 1-5 2-1 .9-2.1.5-.6.8-.4 2.8-1.4 1.7-.5 2.2-3.6.2-.9 1.8-1.4.5-.3.7-1.5.9-.4 4.3-.7 1.2-6.7 3.9-3.6 1.4-1.3 1.8-1.1.2-.5.6-.8 4.6 2.2 7.2 1.9 4-5 2h-1.8c0 .1-6.4-1-6.4-1l-2.3-1.2-3.5 1.2-.6-1.7-2.5-1.3-1.6.2-1 1.3-1.2-2.4-.8.7v2.5l-.8-.4v1l-.5-.2-1.4-1.6v1.8c-.1 0-.8-.3-.8-.3v.8h-.6l-1.3-2.4-.8-.4-3.3.6.5 1.1-.9.2v.7l-1.2-.6-1.3.2-1.3-1.2-2.9 1.8-1.9-.7-3.1-2.2h-.5c0 .1-.4 1.8-.4 1.8h-1.4l-4.2 1.6-.9-.5-.2-.9h-.6l-.3-5 1.4-14 5.1-78.5 5.5-.5 3-6.3 3.5-2.2 1.7-2.7h12.1l3.9-6.7 3 .4 1.7 2.7 3.5.4 5.2-2.2 1.7-3.6 3-2.2 5.2-1.3 6.5-4.5 3.9-1.8 7.8-8.1v-2.2l-3-.9v-2.2l4.3-.9.4-3.9h.7l2.3-2.4Z"/></g></svg>