<?xml version="1.0" encoding="UTF-8"?>
<svg id="Layer_1" xmlns="http://www.w3.org/2000/svg" xmlns:amcharts="http://amcharts.com/ammap" version="1.1" viewBox="0 0 512 512">
  <!-- Generator: Adobe Illustrator 29.1.0, SVG Export Plug-In . SVG Version: 2.1.0 Build 142)  -->
  <g id="_x3C_defs">
    <amcharts:ammap bottomLatitude="15.892503" leftLongitude="-89.224282" projection="mercator" rightLongitude="-87.491060" topLatitude="18.497391"/>
  </g>
  <g>
    <path id="BZ-BZ" d="M339.3,260.7l.5.9-.4.4-1.5-.2,1.4-1.2ZM305.7,256.2l.6,1v1.1c-.1,0-1.2.3-1.2.3v.5l-.3-.5.9-2.4ZM405.6,254.6l1.6.3-1.3.4-.7-.4.3-.3ZM395.6,251.8l1.4,1.4v.9c-.1,0-3,2.7-3,2.7l.2.7h-.7c0,.1,1.7-4.8,1.7-4.8v-.9c-.1,0,.5-.1.5-.1ZM305.8,248.9v2.8s-.7.4-.7.4v-2.6s.7-.6.7-.6ZM339.6,247.8h.9c0,.1.1.6.1.6l-.6.9-.9.2h-.1c0-.1.8-1.1.8-1.1l-.2-.7ZM346.5,247.1l.7.4.4,1.4-1,.6.2,1.4-.7,1.1.4,1.3-.5-.7-.8,1.2.7.8.3,1.7-1.5,2.1-1.2.3-.5-.3h.7s.8-2,.8-2l-.8-1.8.3-1.6-1.8-.4-.7,1.2-.5-.4.8-1.4-.9-.4.5-.6-.8-1.4,1.7-.9.4.9,1.4.5h-1.5c0,.1-.1,1.2-.1,1.2l2,.3.9-.5-.4-1.2.6-.8h-.6v-1.3c.1,0,1.2-.6,1.2-.6ZM336.9,245l-.4,1.5h-.6c0,.1,1-1.5,1-1.5ZM343.9,242.5l.3,1.2-1.7,1.2,1.4-2.4ZM341.5,239.9l.8.8-.3.5-.5-1.3ZM335.2,238.7l-.2,1.7,1,1.7-.4,3.1-.4-.5-.6.2.7-1.5-1.9-1.6-.6.3-.8,1.8,1.1,2.3.6.4,1.3-.2-1.9,1.5.9,2v1.5s.5,0,.5,0l.4-.9,1.7.2.6-1-.4,1.4.3,1.4-.3.2-.5-1.2-.6.2-.4,1.6,2.5,1h-1.2c0,.1.1.7.1.7l-.8.3.7.4v.6s1.3.7,1.3.7l-.5.7-.6.2.7.9.3,2.6-.9-1-.9-2.5.4-1-.7-.3.6-.9-.7-.3.5-.7-1.7-.5-1.6-1.9-1.6-7.7.3-2.6.6-.4.7-1.9v1.3l.5.5.9-1.8,1-.9ZM355.8,238.6l.7,1.5-1,.4-.6,1.7-.6-.3-.5,1.6-.6.8-.4-.2-.3.3-1.2-.4-1.1,2h-1.9c0,.1-.6-1.1-.6-1.1l-1.3-.4.4-1.1h2.9c0-.1,1.2.3,1.2.3l.8-1.5.6.4v.7c-.1,0,.6.4.6.4l.9-1.4-.5-.5.6-.3v-1.5c-.1,0,1.8-1.5,1.8-1.5ZM306.6,237.7l.4,2.6-.3.8-.6.2.6.2v2.3c-.1,0-1.6,1.3-1.6,1.3l.7-3.4-.8-2.8,1.7-1.1ZM339.4,236.9l.3.7-.7-.3.4-.4ZM348.9,236.8l.6.6h3.1l-.4,1.6-2.2,3.3-1.1.6-.9-.4-1.3.4,1-.7,1.1.5.7-.6-.4-.9-1.9-.6-.3-1.1.8-.7v.9l.9.5v-1.4c-.1,0,.2.5.2.5l.8-.3-1-.6v-1.5ZM346.8,236.7l-.3,2-.7-1.8h1ZM339.8,233.8l-.5,2-.3-.9.8-1.1ZM342.3,234.7h-.4c0-.1.7-.9.7-.9l-.3.9ZM345.6,232.7l.5.5-.9.4.4-1ZM340.6,229.3l-.6,1.4-.3-.8.9-.6ZM285.9,224.2l1,.8,1.3.2.5.7v.2c-.1,0,0,.5,0,.5l.8-.9.9-.5v.4c.1,0-1.7,1.3-1.7,1.3l-.9-1.6-2.2-.4.5-.7ZM352.4,221.4l.3,1.6-1.2-1.3,1-.3ZM309.8,219.5l1,2.9-1.7,1.1-.8-.7-.3-2.4.6-.7h1.1ZM308.7,213.5l.7,1.8-1.7,2-.4-.5,1.4-3.3ZM353.8,212.8l.8.6,1.3-.4-1.7,2.8,2.1,5.2-.4.8,2.1,5.2-.3.9,1.4,2.8-.8,3.1-.7.4-.3,1.9-1.3-.4.4-1.4.9-.6-1-1.5-2.3,1.1-1.2,2.7h-.7s.7-1.5.7-1.5v-1.1c-.1,0,1.2-1.2,1.2-1.2l-.7-2.1.8-4.3-.9-1.2,2.1-.6-.2-1.3.5-.9-.3-.9-1.2-1,.3-1.6-.5-1.5-.5-.4-1.1.4-1-.6,1.4-1-.7-.6,1.5-2.1ZM309.2,212l-.5.4.2.5h-.8s.1-.5.1-.5l1-.4ZM309.3,210.6l-.6,1.1h-.7s.3-.9.3-.9l1-.2ZM309.6,208.6l-.5,1.6h-.5c0,0,.4-.5.4-.5l-1.2.8v-.6c-.1,0,1.8-1.3,1.8-1.3ZM308.7,208.1l.4.5-1,.4v-.6l.7-.3ZM412.1,207.3l1.2.2.9,1.3-.9,2.4h-1c0,0-3-1.2-3-1.2l.7-1.4,2-1.2ZM297.8,206.1l.4.5h-.8c0,.1-.1-.3-.1-.3l.6-.2ZM357.6,205.7v.4c.1,0-.7.5-.7.5l.7-1ZM298,198.2l.4.5h1s-.5.5-.5.5l-2-.4,1.2-.6ZM294.6,195.1l.8,2.2-.5,1-.8.3-1.1-1.8-1.1-.7v-.8c-.1,0,2.5,0,2.5,0ZM284.9,193.7l.2.7-.5.2.3-.9ZM301.8,193.4l1,1.3h1.4c0,.1,3.1,3.7,3.1,3.7l2.2.9.6.8-.6,1.5-.9.3-.7,2.8.6,2.5,1.7-2v1.6s-.7,1.2-.7,1.2h-.4l.3-.7-.6.6-1.1-.2v.6c-.1,0-1.1.1-1.1.1v-.8c.1,0,1.4-.1,1.4-.1v-.8s-1.6.5-1.6.5l-1.1-1.4v-1.7s1.3-.8,1.3-.8h1.1l-1.1-.4-1.3.9-.5-.5,1.9-1.1.9.6h.5c0-.1-.4-.3-.4-.3v-.6c.1,0-.9,0-.9,0l-1.7.8,1.4-1.6,1-.3v-.6c-.1,0-2.7,1.9-2.7,1.9v-.6s1-1.1,1-1.1h-.8c0,.1,1-.3,1-.3l.8-1.1-.7.4-.2-.4-.2.6-1.1.7-1.5-.8-.3-.7-.5.6-.7-1.7-.8-.3.3-.7-.5.4-.7-.9v-1.4c.1,0,.9-.4.9-.4v.7h.6c0-.1-.4-.8-.4-.8l1-.8ZM287.8,190.4l.9.2.8,1.3-.2.9-.8.7-1.4-.7.8-1.3-.4-.8.3-.4ZM364,190.4l.9.8.8-.2-.8.3v1.1h-.5v-1.1l-.9-.7.4-.2ZM355.8,189.8l.5,1.2,1.3.3v1.2c.1,0-.4.4-.4.4l.6.9,1.8-.3,1.1-1.1.7.2v.7s-1,.4-1,.4l-.7,1.7h-.8s.9,1.4.9,1.4l2.2.5.3,1.2,2.6-1.5v1.3s-4.1,1.5-4.1,1.5l.2,1.4-2.1,1.1-1.8,2.9-1,2.5v2.6l-1.4,1.1-1.3.3-.6,1.6-.9.7h-2.7s.1-1.6.1-1.6l-1-1.5,1.3-.7-.4-.9-.9.3-.6,1.4-.4-.5h-.9c0,.1-.5.8-.5.8l-.7-.3.3,1.6-.8,1.2-.7.2.3-.7h-.9c0-.1-.2-.6-.2-.6h-1.4s-1.3,1-1.3,1l.2,1.4-.4,1h-.6c0,.1.6.6.6.6l-1.2,2,.5,1.8h1l-1.5,2.5,1,2-.3,1.2-1.6,2.7.3,1-.8.2-.6-.8-.5.7.4.9-.7-.2-.6,2h-.5s-.1,2.2-.1,2.2l.8.8-.6-.4-1.5.3.4,1,.7-.3.7,1.3h.8s-.5.6-.5.6l-1.9-.5-.2.6h-.8s-.5,1-.5,1l-.5-2,1.1-.6-.4-2.1,1.1-.5-.2-.6.8-.4v-2.2s.5.4.5.4l.8-.2v-1.3s.6-.9.6-.9l-.6-.2v-1h.5s.4,1,.4,1l.7-.3-.3-.5,1.3.2-.6-1.5h-1.1c0,.1-.8-.5-.8-.5h.8c0,0,.1-.4.1-.4h-1.3s-.6-2.3-.6-2.3l.7-1.3-.5-.3v-1.1s2.4-4.5,2.4-4.5l2.4-2.9.6-2.7,1.5-1.2,1.1-2.8,1.8-2v-.6c-.1,0,1.4-1.5,1.4-1.5h.9c0,.1,1-1.7,1-1.7l.8.3-1.5,1.5.4,1.2-2.4,1.3-1,1.8.7.8,3.4-.4,1.4-.6.2-.7,3.8-1.2.5-1.6-1-1,1.1-2,.9.2,1.3-1.2,2.5-.3-.3-1.6h-1.6l.5-3.2h-1.5s-1-.8-1-.8l-1.6,2.6.3,1.5h-1l-1.6,2.3-1.6,1.3h-.7l2-1.4,1.5-2.3.6-2.7,1.9-1.7v-3c-.1,0,.1,0,.1,0ZM288.8,188v2c-.1,0-.9.3-.9.3v-1l.9-1.2ZM308.2,187.1l.5.8-.5.8h-.1s.1-.8.1-.8l-.9-.5.9-.2ZM290.3,185.7l.4,1.2-.9.5-.6-.3.5.6-.4.4-.5-.3.4-1.6,1-.5ZM278.5,184.9l-.9,1.7h-.6l.2-1.3,1.3-.5ZM307.9,184.1v.5c-.1,0,.7.5.7.5l-.5,1-1.9-1.4,1.7-.6ZM284.7,183.9v1s-1.1.7-1.1.7v-1.4s1.1-.4,1.1-.4ZM358.7,183.8l1.3,1.1-1.6-.6-.4.4-.5-.2,1.1-.6ZM283.1,183.8l.3.4h-1.5c0,0,1.2-.4,1.2-.4ZM363.4,178.4l.4.6-.4-.5h-1s1-.2,1-.2ZM270,177.7v.9c.1,0,.6.2.6.2l-.4.2v.8c.1,0-.6.1-.6.1l-.4-.4.8-.2-.8-.6h.7s-.5-.9-.5-.9h.5ZM270.7,176v.5h1.2c0-.1-.3.5-.3.5h-1.5s.6-1,.6-1ZM303.1,174.4h1.5c0,.1,2.1,1.8,2.1,1.8l.3,1.4v1.1c.1,0-.4.6-.4.6l-.5-.7h-.8c0-.1,1.7,1.2,1.7,1.2v1.3l-.4.9h.6s.2,1.4.2,1.4l-.6.6-1.4-1.4.9-2.4h-.8v-.9l-1-.7.2-.9-1.6-2.2-1-.6,1.1-.5ZM309.5,171.4l.3,1.3-2.1,5.8,1-6.7.9-.4ZM297,170.7l.9,1.1,2.2.2,1.1,2.1h-1.3c0,0-.3-2-.3-2h-1c0,.1.6.6.6.6l-2.5.2.3-2.2ZM296,170.3l.5.4-.7.5-.2-.6.5-.3ZM314.1,158.3v4l-1.3,2.6.5-1.9-.2-1.4,1-3.2ZM303.1,157l.6.4v3c.1,0-1-.4-1-.4l-1.9,1.1-3,3.8h-1.2c0,.1-2.7,3.8-2.7,3.8l1.5,1.3h-1.3c0-.1-.2-.7-.2-.7h-1.9c0,.1,1.3-1.5,1.3-1.5h1.1c0,0,.1-.6.1-.6l.5-.3v-.7c-.1,0-1,.3-1,.3l-1.1-1.5-.2,1.2h-.9c0,0-.7,1.8-.7,1.8l.6,1.1-1.2-1.3v.9c-.1,0-1.5,1.1-1.5,1.1l.3.5h-.7c0-.1,0,.5,0,.5l1.1.2.5-.7h.8c0,.1-.5-1.2-.5-1.2l.3-.3.5.4v1.3s-.7.3-.7.3l.3.6-2.6-.3-1.7,1.1-1-.3v-1.7l-.4,1-1.2.4v-.8s.8-.3.8-.3l.6-1.3h.8s0,1.4,0,1.4l.6.4,1.8-1.1,2.8-4.5,1.3-.7,1.2.6h.9c0-.1.4-1.9.4-1.9l1.8-.3,2.9-1.5,2.9-4.6ZM317.9,142.4l-1.2,5.5.5,4.6-1.2,2.5-1.6.3.2-2.2.7-.5.8.5.7-1v-1.4s-1.2-1-1.2-1l1.2-5.8,1.2-1.6ZM310.8,129.6l1.8.3-2,.3.7,1.7,2.5.2-1.3.6-3.5.3-.8-1,.2-.6.5.4v-1.5s1,.2,1,.2l1-.7ZM309.1,128.4l1.3.7v.5l-.7-.5-.4.4-.6-.6.4-.5ZM310.9,127.8l.7.8-.6-.4-.6.5v-.6c-.1,0,.6-.4.6-.4ZM311.6,127.6l.6,1-1.1-.8.5-.2ZM289.2,113.4l-.4,2.1-.9.4-1,1.9-1,.7-1.8,5.2-1.2,7.4-.5.5.2,2-.8,3.7-1.1,11.5-1.6,8.6-2.4,4.5-1.1.9-.2,2.2-1.4.3-1.4,1.6-2.5-1.7-.5.6v1.6s1.2-.2,1.2-.2l-.7.7-1.4-.4-.4.4.2.9h1.8c0-.1.3.3.3.3l.6-.4-.4-1.4,1.6.5.6-.9-1.1,4.1-1.4.2-1,.8-1.2-.2-.3,1.1.3,1.5-.7,1.5.8,10.6,1.5.3.5,1.1,1.8,1.5,2.8.7,1.3,1.1,1.2-.4.8,1-.6,1.3,1.3,1.8,3.4,1.1,2.4-1.2,2.3,1.7-.2,1.5,1,.8.3,1.3-.8-.3-.5,1.6-.9-.3-1.5,1.1v1.4c.1,0-.3-1.5-.3-1.5l-2.1-.2-1.8-1.4-1.4-.2-1.3.7-1.6,2.1-1.7,4.3-.5,4.4-.6.5.4,1.3-1.7,4.9-1.9,9.8-3,10.5-1.3,8.1v19.7c-.1,0,.6,4.4.6,4.4l1.4,1.5h0l-7.4,2.7h-8.7l-4.8-2.3h-31.1l1.3-1.3h0l4-4.9-.9-10.4,1.6-3.3-3-2.7v-27.9l-1.7-6.8-.4-15.3h-2.2l-1.3,2.7-.9,4.5-1.7.5-1.7-1.8h-2.2v-10h-.5s.5-22.1.5-22.1l2.6-8.1h2.9l9.1-3.1-.3-2.4-2.6-1.4.3-18,1.9-1.4v-2.7l-1.6-2v-6.8l1.3-3.4.3-4.1,1.9-1.7,3.6-1.4,3.2-.7,8.4-.3v-.6c0,0,7.9-2.5,7.9-2.5l6.8-1,4-2.2h0l16.8,1.5h0l15.9.7h0v.3Z"/>
    <path id="BZ-CY" d="M208.9,206.5l1.7,1.8,1.7-.5.9-4.5,1.3-2.7h2.2l.4,15.3,1.7,6.8v27.9l3,2.7-1.6,3.3.9,10.4-4,4.9h0l-3.8,4h0l-.6.5,2.2,4,2.6,3.2,3.5-.5v4.9h-2.6l-1.7,2.7-2.2,5.9-1.7,2.7-3.9,1.3-2.8,1.6-3.1,9.2-.2,11.9-5.2.2-.9,4,.4.5-8.2,4.9-1.3,4-2.2,3.1-1.3,4-3.9,4.9v3.6h0l-2.3,2.4h-.7s-.4,3.9-.4,3.9l-4.3.9v2.2l3,.9v2.2l-7.8,8.1-3.9,1.8-6.5,4.5-5.2,1.3-3,2.2-1.7,3.6-5.2,2.2-3.5-.4-1.7-2.7-3-.5-3.9,6.7h-12.1l-1.7,2.7-3.5,2.2-3,6.3-5.5.5h0l1.1-17.7h.6s2.1-31.7,2.1-31.7h-.7s4.5-70.4,4.5-70.4v-52.4h-.1l5.2-1.7,1.7-3.6,4.8-2.7,3.9-3.2,5.2.5,1.3,1.4h20.3l3.9-1.4,2.2-2.7,1.3-2.7,1.7-1.4,2.2,1.8,12.1.5.9-2.3.9-.5,2.6,2.3h6.1l1.3-1.8,4.3-.9v-3.2l3.5-1.4,3-.5,3.5-2.3h5.2Z"/>
    <path id="BZ-CZL" d="M319.7,123.1l.7,1.2h-1l.2-1.2ZM316.4,99.1l-.6,1.2.4-2,1.8-3.8-1.6,4.5ZM328.5,84.3l.2,1.8-.8.7v1c.1,0-1.3.4-1.3.4l.3.9-2.5-.4-1.2.9,1.5-2.1.5.5.4-.9-1-.5,1.1-.4.3-1.5,1,1.5,1.2-.4.2-1.3ZM330.1,79.6l.3,1.5-1.1,1.1-.8-.2-.2-.6,1.3-.2v-.4c.1,0-.7.2-.7.2l1.1-.7-.5-.2-.8.8v-1c.1,0,1.4-.4,1.4-.4ZM332.8,79.5l-.2,4.5-.7.8-1.1.2-.6,1.4-1.3.3.2-.6.5.3v-.8c0,0,1.2-1.1,1.2-1.1l-.3-.3-.9,1v-.7s-.5.3-.5.3l.4-1.8h1l.3-.7.6.6,1.1-.2-.5-.6-.6.3-1.5-.4,1.4-.6.4-1.2,1.2-.6ZM347.7,64.2l2.1,2.6-.9,1.2,1.5,2.6,1.3,6.8,1.1,2-.2,1.2h-1.2c0,0-3.9,2.3-3.9,2.3l-.8,1.6-3.3,3.3-1.3,4.3-1,1.4-.6,3.1-1.9,2.8-4.9,11.6-1.3.9-.3,1.2-3.2,4.3-.3,1.3-2.8,3-.7,2.4-1.2,1.4-2,1.2-1.5-.3-2.8,1-1.1-.7-.9-.2-1.3.7.2-.6-.5-.3.5-.9,1-.3,1.4,1,1.3-.8.2-.8.3.6.9-.4.3.5.8-.9v1.3s1.5.1,1.5.1l.6-1.3-1.7-1.3.7-2h1c0,0-.6.6-.6.6l.4.4h-.7c0,.1,1,.4,1,.4v-.5h1c0-.1,0-.8,0-.8h.8c0,0,.9-1,.9-1h.7c0,0-.4-.6-.4-.6l.9-1,.8.6.9-.8v-.4c.1,0-.5.2-.5.2l.4-.5v-1.2c-.1,0,.3-.1.3-.1l.3-2,1.1-.8-.2-.6.4-.3-.2-1.2h-.8v-.6c.1,0-2.7,5.3-2.7,5.3l-1,.7-.4-.2.5-.7-.6.5-.5,2.8-1.5.4v.9c-.1,0-.4-1.6-.4-1.6l1.7-2.9-1.2.7-.7,1.4-.2-1,1.6-2.2-.3-.7.9-2.6,1.9-2.2,1.1-3.9.8-.7v.6s.8-.2.8-.2l-.6-.5h.5c0,0-.3-1.3-.3-1.3l.8-2,.6-.2v-1.2h.7v-.8s1.3-.9,1.3-.9l1.9-2.8h.8c0-.1-.2-1.2-.2-1.2l-.6.4.7-1.5-.7-1.5-1.2,2.1.5-1.5h-.5c0-.1-.5,1.3-.5,1.3l-1.3,1v1.1c.1,0,.5-.7.5-.7l.3.3-.7,1.1h-.8c0,.1.5-2.2.5-2.2l-.5-3,1-1.1.2,1.2h1.7c0,.1,2.5-3.5,2.5-3.5l.9.9,1.5-.4.4-.7v-.5c-.1,0-.6.1-.6.1l.3-.6-1.4.2v-.7l-1,.7.2-2,1.8-.8.9-2.4,1.2-1,.9-2.6-.4-1.6.6-2.2,1.1.2.7-2.7,2.3-2.3.4-1.3.7-.2v-.7c-.1,0-.6.2-.6.2l.5-1.3h.6c0-.1-.3,1.2-.3,1.2l1.3-.6-.6-.2.7-.9.3-1.7ZM303.5,35l.9.5-.3,1.6-.6-.7v-1.4ZM251.5,10.4l5.1.2,4.8-.8,1.7.4.3,1.1,2.7,2,.3,1.4,1,1.4-1,1.3-1.3.6-.2.7-1.2.3-.4,2.2-2.4,2.5-1.9,1.2-1.3.2-4.7,3.3-1.4.2-2.6,2.4v2.6c-.1,0,.4,1.9.4,1.9l2,2,3-.6,2.8-2,1,.2,2.7-1.4h2.4c0,0,.4.6.4.6l-3.8,2.9-1.2,2.2v1.2s2.2.4,2.2.4l.3-.6,5-1.9,1.9-1.3,3.7-.3,3.3-1.5.7.6,2-1.3,1.7,1.6-1.3.9.7,1.4,5.3-2.1-1.3,2,1.7-.4-3,1.6,1.2,1.2,2.2-2,4.9-.2,1.6-1.4,5.9-3.2,1.4-.6h3c0,.1,2.1-1.3,2.1-1.3l-.4,3.4h-.7c0-.1,0,.3,0,.3l.2,1.4.6.5.7-.4-1,7.8.7,1.5h-1c0,0,.1,1.3.1,1.3l-.5.8.6.6.5-1.2.3.7h.8c0,0,.8,1,.8,1l-1.4-.3-.4.7,1.6.9v1l-.5.3-.5-.6-.3,1,.5,1.8-.3,5.4,1.1,3.8-2.2,15v2.2c.1,0-.6,1.3-.6,1.3v2.3c-.1,0-.9-.1-.9-.1l-.8,1.2-3.3,13.3-3.8,4.7-.6,3.4,1,1.3-.7.9.6.3-4.1,2.8-.5.9h0l-15.9-.7h0l-1.9-.2h0l-15-13.8-6.9-7.7-9.1-5.9-1.7-3.6-3.9-12.7-5.6-4.1-8.8-3.7-2.7-2.1-7.4-.4h0l.6-2.1,1-9.3,8.8-10.1v-5.1s3.7-8,3.7-8l2.2-8,6.8-6,1.6-.6,3.5.9,1,1.6,1,.4,1.6-.2,6.9-3h.8c0,0,1.5,1.9,1.5,1.9Z"/>
    <path id="BZ-OW" d="M210.4,58.1l7.4.4,2.7,2.1,8.8,3.7,5.6,4.1,3.9,12.7,1.7,3.6,9.1,5.9,6.9,7.7,15,13.8h0l-14.9-1.4h0l-4,2.2-6.8,1-7.9,2.5v.6c0,0-8.3.3-8.3.3l-3.3.7-3.6,1.4-1.9,1.7-.3,4.1-1.3,3.4v6.8l1.6,2v2.7l-2,1.4-.3,18,2.6,1.4.3,2.4-9.1,3.1h-2.9l-2.6,8.1-.5,22.1h.5v10h-3l-3.5,2.3-3,.5-3.5,1.4v3.2l-4.3.9-1.3,1.8h-6.1l-2.6-2.3-.9.5-.9,2.3-12.1-.5-2.2-1.8-1.7,1.4-1.3,2.7-2.2,2.7-3.9,1.4h-20.3l-1.3-1.4-5.2-.5-3.9,3.2-4.8,2.7-1.7,3.6-5.2,1.7h0l-.2-92.2.4-25.2,3.2-4.3,4-.7,2.3-3.3,10-3.4h1.9c0-.1,5.5,4.5,5.5,4.5l2.6,4.5.6.2,1-.8,2.3,1,2.6-.9h1.1c0,.1,4.6,7,4.6,7l7.6,3.6.8,1.5,5,5.3v-6c0,0-1-2.6-1-2.6l.3-3.1,4-3,2.2-.8,2.4-3.8,3.2-2.1v-2.6c.1,0,2.7-3.2,2.7-3.2l1.6-4.5,2.7-2.5,7.6-3.2,1.3-2.3,1.1-5.5,3.9-6.5,2.1-6.8,4.5-7.5,3.5-2.5,1.1-2.4Z"/>
    <path id="BZ-SC" d="M255.8,385.8l.3,1.4-.9.3v-1.4c-.1,0,.6-.3.6-.3ZM269.8,384.6l.6.8.7-.4v1s-2.2-.4-2.2-.4l-.3.6-.6-.2,1.7-1.4ZM282.1,369.6l.3.6-.7.7v-.6l-1-.7h1.3ZM260.1,369.1l-.6,1.2-.5-.2v-.7c.1,0,1.1-.3,1.1-.3ZM284.6,364.9v.6c.1,0-.5,0-.5,0l.5-.6ZM283.2,363.1v.3s0,.6,0,.6h-.4c0,0,.5-.9.5-.9ZM291.6,360.9l.4,1-.4-.2v.6s-.4.1-.4.1l.4-1.5ZM285,359.3l.2.7h-.6c0,0,.4-.7.4-.7ZM287.9,357.8l.8,1.4-1.2-.4.5-1ZM286.5,356.7v1.1c.1,0-.5-.9-.5-.9l.5-.2ZM286.5,355.6l.5.2v1s-1.1-.8-1.1-.8l.6-.3ZM286.8,352.7l.5.3v.9c-.1,0-.9-.4-.9-.4l.5-.8ZM290.2,352l.3,1.1-.6,1.4.2-2-.3-.4h.4ZM289.8,348.4l.6.5-.3.7-.3-1.2ZM349.4,348.4l-1,.5-.2-.7.5-.6h1.1c0,0-.3.8-.3.8ZM356,342.9l.5.5h-1.1c0,.1.6-.5.6-.5ZM293.6,331.7l.3.5-.5.3.2-.8ZM293.7,329.6v.5c.1,0,.4-.4.4-.4l1,.3v.5c-.1,0-.5-.2-.5-.2v.6c.1,0-.7-.4-.7-.4v.9l-.9-.6.7-1.1ZM294.4,327.9l-.8,1.3.2-1.1.6-.2ZM302.2,325.1l.8.2.5,1.3-1.4.8.4-1.4-.3-.4-.2,1-.4-.8.7-.8ZM299.6,316.4l.3.7-.7.3.5-1ZM303.9,314.1l-.5.8.7,2.3-.8-.4-.3-2,.8-.7ZM307.2,311.3l-1.3,2.5-.2,2.9-1.2,1.1-.2-1.2.8.5.5-1.3-.3-.3.4-1.1v-1.1c-.1,0-.7.7-.7.7v-.7s2.2-1.9,2.2-1.9ZM305,299.5l.5.6-1.2.3.7-.9ZM305.8,298l.2.4h-.9c0,.1-.3.9-.3.9v-.7l1-.5ZM312.1,297.2l1.8.3-2.2.7-.8-.4,1.2-.6ZM304.3,295.9v.6l-.9.4.9-1.1ZM304.7,294.4l-.2.7-.3-.3.5-.4ZM316.9,291.8v1.5c.1,0-.9.6-.9.6v-1.9s.9-.2.9-.2ZM314.5,275.5l1.3,1v2.2s-2.4,0-2.4,0l-1.6,1.2,1.2-3.8,1.5-.6ZM267.8,272.9l.7.8.5,4,1.6,2.8,2,.7,2.7-.6,1.1.8.7,6.2,1.1,1.7-.3,1.3.4,2.7,3.1,6.6v2.1c-.1,0-1.3,3.2-1.3,3.2l-1.6.9v.8c-.1,0-1.3-.7-1.3-.7l-2.5.6-4.4,2.8-.4,3.9-1.4,1.4.4,3,2.5,5.6,1.6,1.5h.6c0-.1-.9.7-.9.7v1.3l.8,1.5,1.5,1.2-.4.5.8.4-1,.4-2-.7-1.3.2-1.2,2.5-2.4.4v1.6s-.9,2.3-.9,2.3l-.7-2.3-1.5.4-1.5,1.3v3s-.6.6-.6.6l1.3-.3.8-2.8,1.8-.9-1.4,1.1-.6,1.9,1,4.6,1.3,2.3-.5,2-.9.9-.7,2.1.6,5.4-.6,2.6-1,1.5-5.8,3.6-.5.8-.6,6.3-1.2.5-.6,2.5.7,3.3,1.2,2.7-.9,1-.4,1.8-1.2.5.8,2.1-1.8,1v-1c-.1,0-.9.3-.9.3l-.5-.6,2.6-3.2-.4-.7.4-3.5-.7-1.5,1-6-.4.2v-.5c0,0,.8-1,.8-1l.3.7.8-.5v-3.5c0,0,1.1-2.2,1.1-2.2l2-.6v-.5c-.1,0,.9-.6.9-.6l-.4-.7h2.3c0,.1,1.7-1.7,1.7-1.7l.3-2.1-1-1.2-1-.2-.6,1.6-1.6.7-1.8,1.9.2,1.7-.8,1.4h-.4c0,.1,0-.4,0-.4l-.9.2-2.9,3.3.6,1.5-.7,1.3v1.8c.1,0,.9,1.2.9,1.2l-.5.8.2,1.3-.6,1.9-1.6.3-1.1,1.5.6.6,1.1-.2,1,1.8-1,1.1v-.7c.1,0-.5-.6-.5-.6l-2.6.6-.2.3-.7.3-.7,1.7-.8.4,2.7,1,.3-.5-1-.2-.6-1.6,1,.9,1.2-.5.7.4v.5c.1,0-1,1.4-1,1.4l-1.6.5.4,1.8h0l-28.1-1.2-.4-1.8,2.6-1.3.4-2.7-.9-4.9-2.6-4.5-5.2-6.3,1.7-.7v-3.8l-3-4-3.9-2.2-6.9-1.3-22.6.4h0v-3.6l3.9-4.9,1.3-4,2.2-3.1,1.3-4,8.2-4.9-.4-.5.9-4,5.2-.2.2-11.9,3.1-9.2,2.8-1.6,3.9-1.4,1.7-2.7,2.2-5.8,1.7-2.7h2.6v-5l-3.5.5-2.6-3.2-2.2-4,.6-.5h0l2.5-2.7h31.1l4.8,2.3h8.6l7.4-2.7ZM306.6,267.9l1.2,1-.6,1.3v-1.6s-1-.6-1-.6h.3ZM306,266.3l.3.8-.4.4v-1.3Z"/>
    <path id="BZ-TOL" d="M200.9,449.8l.2.7-.7.5-.2-.5.5.2.3-.8ZM204.4,449.2l.5.4h-1.3c0,0,.8-.4.8-.4ZM201.6,449l.4.7-.8.4.5-1.1ZM191.9,450.7l-.9.5.5-.5-.4-.5.5-.2.3.6ZM200.5,447.8v.5c-.1,0-.7,0-.7,0l1.1.2-.3-.4.5-.2v.6s.6-.3.6-.3l.7.8.6-.9.5.7-1.1.4-.5-.5h-2.1l-.2-.7,1-.3ZM193.6,447.7l.6.4-.4.5v.9c.1,0-.6,0-.6,0v-.7l-.4.5-.5-.9,1.2-.6ZM194.8,446.9l.3.7h.4c0-.1-.6.9-.6.9l-.5-.5.4-1ZM201.1,446.8l2.2,1-1.4.4v-.9c-.1,0-1.5-.3-1.5-.3l.8-.2ZM205.7,446.5l.4.7-1.2.4v-.4c-.1,0,.8-.6.8-.6ZM193.9,446.2l-.5.6,1-.2-.8,1-.6-.9.9-.5ZM196.8,445v1.1l-1.1-.2.7-.3v-.5c0,0-1,.5-1,.5l.3-.6h1.2ZM205.4,442.8l-.4,1.5-.4-.4.8-1.1ZM196.1,442.2l-.2.6-.5-.2.7-.4ZM214,440.7l-.3.8h-.7c0,0,1-.8,1-.8ZM200.4,440.5l.3,1.1-.7.2.7.2v.8c0,0-.9.2-.9.2l-.2-.5.7-.4h-.4c0-.1-.8.4-.8.4v.8c0,0-.9.3-.9.3l-.2-.5h.6c0,0-.5-.6-.5-.6l1.7-.5-.4-.2.4-1,.7-.2ZM206,440.2l.2.8-.6-.2-.8.9-.6-.2.2-.6,1.6-.7ZM200.8,439.3l1.2.4h-1.7c0,0,.5-.4.5-.4ZM207,437.9l.3.7-.8.7-.3-.8.4.4.3-.6h-.5c0,0,.6-.4.6-.4ZM207.7,437.6l.2.9-.8-.5.6-.4ZM242.7,401.9l.5.6-.3.9v-1.5ZM241.2,401.9l1.1.2-.4,1.2-.8-.4v-.9ZM247.4,393.1l.2,1.3-.9-1.4,2.1-1.2-1.5,1.3ZM180.3,353l22.6-.4,6.9,1.3,3.9,2.2,3,4v3.8l-1.7.7,5.2,6.3,2.6,4.5.9,4.9-.4,2.7-2.6,1.3.4,1.8,28.1,1.2h.7v.8c0,0-2.9.4-2.9.4l-.3,3.1-1.5,1,.2.8-.8,1.2.4,2.5-.4,2.1h-1.5c0,0-.4-.7-.4-.7l-1.1.5v2.2l-2-2h-.8c0,0,.9.5.9.5l.6,3.4-1.1-.2.6,1.3-1.1.8v.7c.1,0,1.3.6,1.3.6l1.4-1.6.6.9-1.2.7-.6,1.2-.9-.4-1.6,1.4-.7-.5h.5c0,0,0-.6,0-.6l-.5-1.6-2.4,1.6v2.6c-.1,0-1,1.8-1,1.8l.3,1.6-.9.7-1.4,4.1-3.6,2.5-2.9,3.9-2.5,1.3-.6,1.4v4.3h-3.7c0,.1-2,.9-2,.9l-1.3,4.8-.7.8v-.8c0,0-.9-1.4-.9-1.4l1.4-1.7-.7-.6h-.8c0,.1-.8,1.6-.8,1.6h-1l.9-.8.6-1.5v-1.6c0,0-1.6,1.5-1.6,1.5l.8,1.4-.8.8-.7-.8-1.4.2-1-1.9-3.2-2.8h-2.4c0,0-1.1.6-1.1.6l-.5,1.3v1.2l.8.4v1.2c.1,0-1.2,1.7-1.2,1.7h-1c0-.1-.8-.9-.8-.9l-1.5.8v.6c.1,0-3.4.4-3.4.4l-1,.7,1.1.4-.3.6-5.1-.5-.6.4.6.9h-.9c0,0-.7,1.7-.7,1.7l-2.4.6-.2,2.6,1.3,2.6-.4,1.4,1.2,1.9h.9c0,.1-2.7,1.6-2.7,1.6v1.8c0,0-1.3.6-1.3.6v.8c0,0,1,1,1,1l-.4,1-5,2-1,.9-2.1.5-.6.8-.4,2.8-1.4,1.7-.5,2.2-3.6.2-.9,1.8-1.4.5-.3.7-1.5.9-.4,4.3-.7,1.2-6.7,3.9-3.6,1.4-1.3,1.8-1.1.2-.5.6-.8,4.6,2.2,7.2,1.9,4-5,2h-1.8c0,.1-6.4-1-6.4-1l-2.3-1.2-3.5,1.2-.6-1.7-2.5-1.3-1.6.2-1,1.3-1.2-2.4-.8.7v2.5s-.8-.4-.8-.4v1s-.5-.2-.5-.2l-1.4-1.6v1.8c-.1,0-.8-.3-.8-.3v.8c0,0-.6,0-.6,0l-1.3-2.4-.8-.4-3.3.6.5,1.1-.9.2v.7s-1.2-.6-1.2-.6l-1.3.2-1.3-1.2-2.9,1.8-1.9-.7-3.1-2.2h-.5c0,.1-.4,1.8-.4,1.8h-1.4s-4.2,1.6-4.2,1.6l-.9-.5-.2-.9h-.6c0,0-.3-5-.3-5l1.4-14,5.1-78.5h0l5.5-.5,3-6.3,3.5-2.2,1.7-2.7h12.1l3.9-6.7,3,.4,1.7,2.7,3.5.4,5.2-2.2,1.7-3.6,3-2.2,5.2-1.3,6.5-4.5,3.9-1.8,7.8-8.1v-2.2l-3-.9v-2.2l4.3-.9.4-3.9h.7s2.3-2.4,2.3-2.4Z"/>
  </g>
</svg>