<?xml version="1.0" encoding="UTF-8"?>
<svg id="Layer_1" xmlns="http://www.w3.org/2000/svg" xmlns:amcharts="http://amcharts.com/ammap" version="1.1" viewBox="0 0 512 512">
  <!-- Generator: Adobe Illustrator 29.1.0, SVG Export Plug-In . SVG Version: 2.1.0 Build 142)  -->
  <g id="_x3C_defs">
    <amcharts:ammap bottomLatitude="32.246650" leftLongitude="-64.887379" projection="mercator" rightLongitude="-64.647032" topLatitude="32.390463"/>
  </g>
  <g>
    <path id="BM-SA" d="M15.7,373.1l-.8,1.2-1-.3.2-2.2v-1.6c0,0,1.4-1.3,1.4-1.3l1-1.5.2.9.5,1.4-1.1.3-.8,1.5.5,1.6ZM15.2,379l1.2.9.9-.4.2-1.6-.7-1,.3-.9.2-1.2.2-2,1.4-.5,1.3-.7,1.3-.4,1.7.8,1.6,1.3,1.7,1,1.1,1.1.8.6,1.9.7.9,1.3.2,1.8.6,1.1,1.1.3,2,.3,1.2.4.9,1.3,1.7,1.2,2.5-.4,2.1-.8,1.7.4,1.7,1,2.6.6,2.1,1.7,1.4,1.4,1.7.8h2.1c0,0,2,.6,2,.6l1.8.2,1.7.7,1.9.2,1.4.4,1.4.3.8.9,2,.3v-1.4c0,0-1.3-.8-1.3-.8l-.5-1.2,1.1-.5,1.4-.4,1.7.8,1.2.5,1.4-.3h1.9l1.9.2,1.4.7,1.9.4,1.9,1.1,1.4.8.7,1.2-.5,1.4-.9.9-1.2.3-2.3.5-2.1.2-3.2-.3-3.4-.2-2.4-.4-2.6-.5-2.4-.8-2-1.5-1.3-1.7-1-.4h-1.9l-1.9.4-2.9-.4-1.1-.6-1.9-.3-1.7-.7-.7.4.3,1.8,1.2,1.2-17.8,8.3-1.4-2.8-12.5,7.1-.9-2.5-1.3-3.7-.9-5.1-1.4-2.7-1-3.3-1.3-3-.8-3.1-.8-2.8-.7-2-.5-1.9-1.3-.9-.4-1.9-.8-1.3-.9-1.6-1.3-1.5.2-2-.2-.9-1.6-.3-.2-1.1,1.3-.4,1.4-.4-.3-1.1-.2-1,1-.2,2.9-1.2,2.1-.4,1.7-1.1,1.2-.2v1.5c0,0-1.3.7-1.3.7l-1.7.7-1.4.6-.6.8-.7,1.2-.7,1.6.5.9,1.2.2,1.3,1,.2,2,1.1,1.6.2,2,.3,2.9,1.3,1,.6,1.4,1.5,1.1ZM18.7,356.5h-1c0,0-1-.2-1-.2l.2-.6.5-.2h1.4c0,0,.5-1.2.5-1.2h.7c0,0,0,.9,0,.9v.5c0,0-.7.4-.7.4l-.6.3ZM23.4,350.1l-1.1,1-1.1-.8.5-.5.5-.6v-1.6c0,0,.8-1.4.8-1.4l.5.5.4.4v1.2l-.7.5v1.3ZM13.5,305.6l-.7.3-1-.4v-1c0,0,1.4-.3,1.4-.3l.5.7-.2.6ZM70.4,301.5l.4,1.1-1.5.7-.3,1.1-.6.6-.7.8-.7.4-1.3.7-.7.4-.5-.3v-2l1-.6.5-1.6.8-.4,1.6-.5h1c0,0,.9-.3.9-.3ZM47,308.7l1,1,1.1.5,1.5-.2.9-.3,1.7.5,1.7-.4,1.3-.7.9-.7,1.3-.8.8-.4,1.9.4,1,.7v1c0,0,0,1.1,0,1.1l-1.3,1.2-.6,1.1-1.6,1.4-.7,2.2-.2,2.2.8,1.5.8,1,1,.8,1.4.4,1.1.6,1.1,1.1,1,1.1.8,1.3-.9.4-.8-1.4-.8-1-1.8-1.3h-1.4v1.6l.8,1.4.6,1.8-2.7-.4h-2c0,0-1,.7-1,.7l1,1.5v1.7h-2.3l-.5.4-1,.9-.8.9-1.3.3-1.1.9-.8.8-2,.2-2.3.2-1.4.4-.4,1.5.5,1.7.4,2-.2,1.8-1,1.5-1.3,1.8-.8,1.4-.7,1.5-1.4,2.1-.8,2.2v2c0,0-.2,2.1-.2,2.1l-.7.8-.2,1,1.4.4.6.4.2.9-.5.9,1.2.4,1,.2.7,1.7.2,1.9-.9,1.2h-2.4c0,0-1.4,0-1.4,0l-1,.9-1.1,1.2-1-.4-1.9.8-1.2.8-1.7.8-1.1.2-1.4-.2-.3-.9.5-1.3.8-.9.5-.9.8-1.6,1-.7.8-1.2.8-1.2v-1.4c0,0-.7-.5-.7-.5l-1.4,1.1-1,1.8-1.1.8-1.9.5-1.1.6-2.3.2-1.1-.3-.2-1.2.6-1.1.3-1.5.3-1.2,1-.3,2.3-.4,1.1-.3.5-1.4.2-.9.9-1.2.3-1.8.4-1.8,1.1-1,1.1-.4.5-2-.3-2-1.1-2-1.8-.6-1.5.6-1.1-.4,1.5-.5.5-1.2.5-2.3v-1.7c0,0,.8-1.5.8-1.5l.8-1.2-.5-1.3-1.4-.7-.6-1.5.2-2.1,1-.8v-3.1c0,0-.6-2.7-.6-2.7l-.6-1.8-.5-1-1.5-1.1-1.3-1.5-.5-2.2-1.2-3.2-1.5-2.2-.7-1.5-.7-1.3h-1.9c0,0-1-.8-1-.8l.5-1.2.9-.5.9-.5.8-.4,2,2.1,1.5,1.2,3.4,1,2.1.5,3.1-.4,2.4.2,2-.8,1.1-2.2,1.4-2.5.9-.7,1.7-.7.3-2.1-1.6-.9-1.1-1.2.9-1.3,2-.4,1.1-.5.6-1,1.8-1.3,1.2-.6h2.7c0,0,.5,1.2.5,1.2l-.9.4h-1.5c0,0-1.3.9-1.3.9l-1.1.4-.2,2.2-.6,1.4,1.1.3,1.7.6,1,.9,1.1,1.7v2.2c0,0-.6,1-.6,1l-.2,2.2ZM74.5,302.7h-1.6c0,.1-.7-1.1-.7-1.1l-.5-.7-.9-.9v-2.7c0,0,1.3-1.6,1.3-1.6l1.3-1,1.4-1.6,1.7-.7,1.4-1.4v-2.1c.1,0,.7-.6.7-.6l.3,1.5.4.8.3,1.6.4.7v1.2c0,0-1.1.4-1.1.4l-.8.5.3.7.5.7.6.4-.9,1.2-.8.8-1.2,1.6-.4,1.6-1.4.7ZM97.5,284.8l.9,1v.8c0,0-.9-.1-.9-.1l-1.1.3-.3,1.3-.7,1.3-1.1-.2-.9-1.3-.9-.4h-4.2l-1.2.6-1.1.6-1.4.3h-1.4c0,0-.7-.7-.7-.7l.8-2.2.7-1.4,1.3-.7,1.3-.4h1.1c0-.1,1.2.9,1.2.9l1.4.6.9.6h1.4c0,0,.3-1.3.3-1.3l-.6-1.3-1.4-1.3-1.1-.6h-1.4c0-.1-.6-.7-.6-.7l.2-1,.9-1.1.8-.9,1-1.4.6-1.8.9-1.6,1.9-.7,1.5-.6,1.8-1.2,1-.4h1.8c0,0,.3.7.3.7l-.3,1-.8,2.1-.9.7-.9,3.5-.3,1.8.2,1.7v1.6l.2,1.5.3.6ZM119.5,246.3v1.6c0,0-.6,1.1-.6,1.1l-.6,1.1v1.5c0,0-.6,1.6-.6,1.6l-1.1.2h-.6c0,0-1.1-.4-1.1-.4l-1.4.2.6.9.6,1-.4.7-.7.7-.3,1.8v3c-.1,0-.9.7-.9.7h-1.3c0,0-1.1,1.8-1.1,1.8h-1.4c0,0-.8.5-.8.5l-.9,1-1,.6-1.1.7-1.1.9-1.4.5-1.3.5-1-.7-.4-.7.3-.8.3-1v-1.3l.7-1.5,1-1,1.8-1.1.6-1.2,1.4-.3.8-1.4v-1.8c0,0,.4-1.4.4-1.4l1.2-1.8,1.2-.7.6-1.2.6-2.1.7-.7h1c0-.1.8-.4.8-.4l-.5-1-.8-.9.4-.7,1.2.4.4.8,1.2.3.8-1,.8-.7,1.1-.2,1.5.5.3,1.3Z"/>
    <path id="BM-SO" d="M18.3,405.5l12.5-7.1,1.4,2.8,17.8-8.3.3,1.1.4,1.3-.5,1.2-.2,1.9.5,2.7.4,1.4,1.4,1.1.2,2-.5,1.2-1,.9-.2,2,.2,1.2v1.9l-.2,2.1-.2,1.8-1.3,1-.5,1.7.8,1.8,1.4.2,1.1,1.1,1.4.7v1.1c0,0-.2.7-.2.7h-1.4c0,0-.2.9-.2.9l1.1,1.4h.8c0,0,1.8,0,1.8,0l.9.3,1,.3,1.3-.6.9.4,1.3.8,1.1,1.8,2,1.2,1.2,1.6v2c0,0,1.4,1.1,1.4,1.1l1.3.2,2,.2.8-1.2.5-1.1,1.1-.6,1.7.8,1.6.9,1.3.4,1.7.8h2.1c0,0,1.2-.4,1.2-.4l2.5-.8,3.2.3,1.1-1.2,1.4-.6,1.7.4,1.2.5,2.3-.4,2.3-.4,2.3-.8,2.1-.4,2.3-1.2,1.3-1.9.2-.7.9-.2.4,1.9h2.2l3.3-.4,1.4-.9h3.1c0,0,1.7-1.1,1.7-1.1l2.1-.2h4.4l1.2-.4,1.4-.6v-1.7c0,0-1.4-.9-1.4-.9h-2.4c0,0-2.3,0-2.3,0l.2-1.3,1.2-.5,1-.4h2.3c0,0,.9-.5.9-.5h2.3c0,0,1.1-.6,1.1-.6l1.4-.8.5-1.1.8-1.8.5-1.4,1.6-.9,2.3.2,2.3.3,1.7.3,1.8-.2,1.7,4.7,3.2-.2,11.1,14.2h0s-1.8.5-1.8.5l-1.8.4h-2c0,0-1.1,1.1-1.1,1.1l-1.4,1.1-2.1,1.6-2,.4-3.2.3-1.6.5-1.1,2-1.1,1.7-1.6,1.5-1.3-.2-1-.6-1.4-.7-1.6.4-1.8.9-2.5.4-1.8,1.2-2.2,1.3-2.1,1.4-.4,1.6h-1c0,0-1.6-.5-1.6-.5l-1.1.2-1.9-.4-.8-2-1.4.4-.6,1.2-.3,1.9-1.2.5-1.9-.5-.4-1.4-.5-1-1.1,1.1-1,.7h-1.7l-.8-1.5-2.2-1.2h-3.3l-4-.2-2.7.2-3.7-.3-4.1-.4h-4c0,0-4.1,0-4.1,0l-1.8.6-1.9,1.2-1.8.6-3.4.2-2.9.4-1.9.3-.2.8-.6.5-.7-.5-.4-1-.9-.6-1.4-.4-1.7-.2h-2.5c0,0-1.1-1-1.1-1l-1.1-.9-1.1-1.8-1.1-1.1-1.1-.4h-1c0,0-1.1-.4-1.1-.4l-.7-.8-1.5-.4-1,.2-.9-1.3-1.2-.8-1.6-.4-1.1-.4-.5-.9-.6-1.2-.6-.9-.6-1.2-.9-.5-1.2-.3-1.4-1.6-1.4-1-1.3-1.8-2-2.5-2-2-1.7-.8-.8-1.3-.7-1.2-1.5-.4-.9-2.2-.8-1.3v-2.6c0,0-1-1-1-1l-.2-1.5-.5-2.7-.7-2.5-.5-2.7h0Z"/>
    <path id="BM-WA" d="M113.6,387.2l-.6,1.4-1-.7.3-1.2.6-1.4,1-1.2.2.9.6.3.5.9-1.2.4-.4.8ZM135,383.7h-1.5l-1.6-.6-.5-1.2-.4-1.4.5-1.3h1.7c0,0,.5,1,.5,1l1.1.4.8.6.3,1.7-.8.8ZM152.4,380.5l-.5,1.4-.5.2-1.2-1.4h-1.8c0,0-2,1.1-2,1.1l-.7,1.1-1.6,2.2v-1.2c0,0-1.1,0-1.1,0l-.8,1.2-1.3,1.2-1.4.6-2.5.4-1.5-.4,2.2-1.7,1.3-2,2.3-2,1.8-1.1,1.8-.8h2.6l1-.3.8-1.6.8,1.4.7.6,2,.9ZM214.5,401.4l-2.9,1.5-3.2,1.1-1.5.2-1.4.9-1.9,1.2-1.9,1.2-2.8,1.8-2.8,1.5h-1.7c0,0-1.9.4-1.9.4l-1.7,1.2-1,1.7-2.1,1.2-2,.9-2.9,1.3-2.2.9-2,1.6-2.1,1.3-2.1,1.7-2,1.1-1.8,1-2.6,1.5-1.7,1.3-3,1.3-1.5,1.5-1.1,1.6-1.6,1.4-11.1-14.2-3.2.2-1.7-4.7h2.6l1.8-.8-.2-1.2-1.3-.4-.8.3-.5.5-.7-1.1-1-.5h-2.4c0,0-1.1,1.3-1.1,1.3l-.7.4-1-.7-.5-1h-1.1c0,0-1.9.2-1.9.2l-.9-.9-.2-1.5-.2-1.4h-1c0,0-.5.9-.5.9v1.3c0,0-.3,1.1-.3,1.1l-.8.6h-2.4l-.7,1.1-2,.7h-1.4l-.9.4-1.2.4-1-.6.3-1.2.8-.8,1.1-.5.3-.9-.4-.7-.8-.5v-.6c0,0,.9-.4.9-.4l.8-.8.5-.7.4-.9.4-1-1.1-.5-1.1-.3-.7-.9.9-.4,1.1-.5,1-.4.6-1.1.7-.4,1.1.5,1.1.2.6-.5,1.3-.4h1.7c0,0,1.5.9,1.5.9l3.2.3,2-.2,1.1-.6,2-.8,1.1-.7.9-1,1.7-.8h2.2c0,0,1.6-1.4,1.6-1.4l1.7-1.5,2.6-.8,2.7-1,2.7-1.1,1-2,1.3-.9,2.7-1.2,1.6-.4,2.1-.6,1.3-1.1,1.3-.4,3.3-.3.9-1,1.4-1.4,2.1-1.3,1.4-.7h2l.8-1.9,2-1.9,2-1.8,1.6-1.2,1.3-1.4,3.1-2.3.8-1.3,1.7-1.7,25.1,31.3h-.2c0,.1-1.1,1.5-1.1,1.5l-2.8.4-1.8,1.2ZM146.5,362.8l-.5.7-1.4-.2-.9,1.1-1,.4-1.1-1.1-.6-.7-1.1-1.2-.7-1.2.5-1,1.5-.3,1.5-.2,1.4-.4,1,1.1.3.7.4.9.6,1.4ZM163.7,358.4l2,1,1.3.2,1.9-.3h2v1.6l-.9.9-.3.8-1.1.9-1.1.4-1.2-.5-.6-1-.6-1.5-1.1-.7-1-.6-1.2-.4-.6,1,.5,1,.2,1-.5.9-.6.4-.8-2.2-.2-1.3-.9-1.1-1.3-.5-1.4-1.1.2-.7.8-.2,1.3.4,1.6.2,2.2.2,1.4,1.4ZM135.5,363.1h-1.7c0,0-.4-1.2-.4-1.2l.9-.9v-1.5l.2-1.7-.8-.9.3-2,1.9.2.2,1.1-.5.7.5.8.7,1.2v1c0,0-.3,1.3-.3,1.3l-.9,1.9ZM153.7,351.6l-.5,1.6-1.9.8-1.6,1-1.4-.5-1.1-.4-.8.7-.8.6-1.7-.6-1.4-.3-2.6-.3-1.4-.4-2-.2-1-.9-.9-.4.8-.4,3.1-.2,1.8.4h2.6c0,0,3.8.4,3.8.4l1.6-.4,1-.3.9-.2h1.5c0,0,.4-.3.4-.3l.8-1.6,1,.4v.8c0,0-.5.7-.5.7ZM126.3,358.7l-1.9.6-1.2-.8-.6-1,.8-1,.4-1.4.6-1.5v-1.8c0,0-.9-.4-.9-.4l-1.3-1.2,1.3-.6h1.6l1.7.4,1.7.2.4,1.3.9.5,1,.3.2,1.8-.8.3-1.2.9-1.2,1.4-1.4,2Z"/>
    <path id="BM-PA" d="M176.5,359.9l.6.8h5.1c0,0,2,.2,2,.2l1.1.8,1.2.6.7,1.1-.7.9-1.3.2-.9,1.3-1.7,1.7.2,2h-.9l-.2-1.1-1.1-1.2-1.2-1.6-.8-1.5-1.2-.4-.7-.7-1-1.2-.8-.9.3-1h1.1ZM276.1,346.1l-1.5,1.7-.7.8-.9,1-.5-.4.2-1.3.8-.7-.3-.6-2-.4-.8.3-.9,1.2-.2,1,1.3.9,1,1.7v1.6c0,0-1.1,1.5-1.1,1.5l-1.4,1.2-2.3,2.1-2.6,1.6-2,.2-1.7.8-1.7,1.6-1,1.1-1.9,2.1-.7,2.7-1.5,3.1-1.6,2-2.1,2.5-1.4,2.6-.6,1.6-1.6,1.1-1.7.8-1.3,1.1-1.4,1-1.1,2.1-2,2.5-1.9,1-2.6,2.4-2.6,2.7-2.8,1.8-3.5.7-2.5.2-2.6,1.6-25.1-31.3,1.7-.6h4.1c0,0,1.7-.4,1.7-.4l.6-1-.2-1-.8-.9-.8-1.3-.5-1.7-.2-.8.8-.3,1.2.8.3,1.3,1.5.8,1.3.5,1.1-.7.8.2h1.7c0,0,2.4-1.1,2.4-1.1l2.3-.9,2-1,1.7-.3.8.5,2.7-.3,1.4-.9,1.2-1.4,1.4-2.9,1-2.8,1.4-1,2.2-.6,1.5-1.9,1.1-1.4h1.9c0,0,.9.7.9.7l2.6.5,1.7-1.9.4-2-.2-2.1.8-1.5,2.9-.6,2-.3,3.2-.7.8-1.3,21-12.3,9.9,17.1-.7.6-.6,1.4-1.7,1.5-1.5.6Z"/>
    <path id="BM-PE" d="M167.4,336.1l-.9,1.3-.9-.4v-1.1l.7-.4.6-.8-.5-1-.3-.7v-1.4c0,0,1.7,0,1.7,0l-.5,1.2.5.8v1.2c0,0-.4,1.2-.4,1.2ZM173.8,301.7l.3,1.1,1.4.9h1.4l1.4-.6.9.5.4,1.2,1.7.5,1.1-.5h1.2c0,0,1.1.9,1.1.9l1.4.5,2-.7,2.6.4,2.4.5,4.1-.4,3.8.9,2.2.3h5.9c0,0,1.6-.7,1.6-.7l1.2-.9,2.4.2,1.4-.2,1.6-.4h2l2-.6,1.6.4,1.8.3,2.2-.9h3c0,0,2.2,0,2.2,0l1.2-1.2,1.4-.5h2.9c0,0,9.2,33.7,9.2,33.7l-1.3-.3h-3.1c0,0-2.7.4-2.7.4l-1.4,1.3-2.9.8-1.4.2-4.4-14.3-16.7,2.2,3.5,15.9-.5,1.5-.8,1-1.1-.7-1.3-1.2h-1.6c0,0-2.6,1-2.6,1l-1.3.8-4.4.2-2.4.2-1-1.8.2-.8,1-.6.3-.9-.8-1.1h-1.9c0,0-1.3.6-1.3.6l-.6,1.3-1.4.4-.8-1-.8-1.2-1.5-.7-2.1-1.4-1.3-1-1.5-.4-1.4.4-.4,1.5-1.4.7h-2.5c0,0-1.4.7-1.4.7l-1.4.5-1.8.4h-1.4l-1.4-1-.9-1.2-.4-2v-3c0,0-.9-.8-.9-.8l-.2-1.4,1.1-.6,1.7.3,1.2-.4.8-.8.4-.8-.6-.8-.2-.6h1l1.1,1.1.4.8.2,1.5,1.5,1.2.6-.4.8-.5,1,1.1-.2,1.1-.5.6.4,1.2h1.3c0,0,1.3-.4,1.3-.4l.5-1.2v-1.5c0,0-.7-.6-.7-.6l-1.1-.5-.6-.8-1.3-.5v-1.6c0,0-.5-1.2-.5-1.2l-1.1-1.2-2.1-.2-1.2.4-1.6.7-1.2.3-.8-.7-.4-1.7-.8-.5.3-1.2v-1.8c0,0-.7-1.3-.7-1.3l-1.1-.4-1-1.1v-.6c0,0,1.4-.4,1.4-.4h2l1.2.8,1.1.9,1.4.9,1.8-.2h2l1-.7v-1.5c0,0-1.7-.9-1.7-.9l-1.4-.3-1.1-1-1.2-1.4-1.7-1.1-1.9.2-2.1.2-.5,1.4-1.1,1.6-1.2.2.2-1.1v-1.9c0,0-1-.6-1-.6l-1.2,1.6-1.5,1.9-1.6,1.6-1.3,1.7-1.6.7-1.9.6-1.4-.3,1.4-.9.8-.7.3-1,.6-1.4-.5-1-.6-1.6-1.5-1.2-.3-1.2-.8-1.3-.9.5-1,.8h-1.3l-.8-.5-1.1-.3-.5-1.6.2-.7.5-1.4.5-1,.8-.7,1.9-.3.8-.5-.3-1.2-1.7-.2-1.1-.5,1-1.2,1.2-.8,1.7.5,1.3.4,2-.7h3l4.3-.4,3.2-.3,2.3.4,2.3,1Z"/>
    <path id="BM-HA" d="M320.3,269.3l-7.2,4.6-5.6-8.3,1.3-1.3,1.5-.5h3.8l2.6.2,1.1.6.8,1.1,1.7,3.7ZM341.8,239.4l-1.7.2-.2-1.6-.7-1.2-.8-.6.9-1.2.7-.7,1.8-1,.4.7-.4,1-.6.4v1.3c0,0,.8.7.8.7l.2,1.2-.6.9ZM383.7,262.9l-1.3.3-15-13.4,1.1-1.3.9-.9,1.8-1.2.6-1.2.8-1.4.8-1.7,1.1-1,.6-1.3,2-2,1.7-.4.6-.9,1.9-1,.9-1.2,1.7-1.5,1.7-1.2,17.6,19.3-2.3,1.4-2.4,1.7-2.6.6-1.4,2.2-2.2,1.2-1.4.6-2,.2-2,1.8-2.3,1.1-1.2,1.5ZM372.8,223.7h-.6c0,0-.6-.2-.6-.2v-.8c-.1,0-.3-.8-.3-.8l-.2-.7,1,.3.7.4.3.9-.3.8ZM380.9,205.9l-.6,1-.8.4-.8-.4-.9.7-.2,1.2,1.1.8,1.5.7,1.2,1.2,1.4.2,1.4.9.4,1.8,1.3,1.8,2.1.3,3.8.3,1.5.7,1.7,1.1,1.5,1.6,2.3,1.8,2.6,1.8.9.4-11.5,8.7-3.6-2.6,1.1-1.4v-1.5c.1,0-1.7-1.1-1.7-1.1l-1.4-.9-1.1-.5-1.6-.2-.4-1-1.4-1.2-1.2.3h-1.8c0,0-1-.9-1-.9l-.7-1-.5-.7.6-1.2.8-1.1.2-1.3-.8-1.1-.8-.8-.5-1.2-.8-1.5-1.8-.4h-1c0,0-.6-1.2-.6-1.2l.5-.7-.5-1.3-.8-.8-1-.3-2.3.4-1.4.4h-2.9l-2.3,1-.7.4-1.7.4-1.4,1.1,1,.5,1.6.6.2,1.2-1.2.8h-2.5c0,0-1.5,1.9-1.5,1.9l-1.6,1.6-1.8,1.2-1.1.3-1.9.2h-1.3c0,0-2.3.9-2.3.9l-1.2.8-1.4,1.1-1.1,1.3-1.1.4h-2.5c0,0-.7,1-.7,1l-.5,1.8-.7,1.9-1.7,1.6-1,1.1-.9.8-1.2.7-1.1,1.2-.2.7-.5,1h-.8c0,0-.7-.7-.7-.7l-2.3.2-.8.7-2,1.1-.4,1.4,1.6.9.9,1.4-.2,1.7-1.1.2-.9.9-.8.7-.7,1.3h-1.8c0,0-1.2.6-1.2.6l-.3,1.3-.3,1.5,1,1.2,1.1,1,.3,1.5-.7.4-2.1.4-.2.6v1.2c.1,0-.3,1.2-.3,1.2l-.8.8v1.5l-1.2.8-.8-.4-1.1-.3-.8,1.1,1.2.8,1.6.3,3.4.2,2.1.3.6,1.2-.6.9h-1.4l-1.7-.8h-2.6c0,0-1.7-.4-1.7-.4l-1.4-.5-1.2-1-1.2-.9-.8-1.7.4-2.2.8-1.3.5-2,.5-2.3.6-1.4.6-1.6.3-1.2,1.3-1.7,1-1.4.8-1.8.6-1.6-.5-1.4-1-.9h-2c0,0-.5,1.4-.5,1.4l-1.4.8-.2-1.2.2-2.5,1.1-.7,1.2-1.1.5-2.7.4-2,1.1-1,.5-1.2-.8-.4v-1.6c0,0,.6-1.4.6-1.4l1.6-.3.8-1.7,1.2-1.1.9-.6.2-2.1.3-3.5-.8-1.2.2-1.6,1.4-.9,1.7-1.1,1.9-1.1,1.9-.8,4.1-.2,2.1-.4,2.9-.4.8-.4,1.4-1.6,1.7-2,1.6-1.5,2.3-.2,2.4-.2,2-1.2,1.6-1.2,1.3-.7h1.7c0,0-.2-2-.2-2l-1-1.3-.9-1.5,1.6-1,2-.5.9-.6,1-1,.3-2,.9-1.2h1.9l1.6-.4.6-1.9-.2-3,.6-1.7.9-1.2h1l.3.8.9,1.1.7,2.1,1.1,1.3,1.1.7,2.4.7,2.8.4,2.7,2.2,2.2,1.5.4,2.2.2,2.4.3,2.6,1.2,1.7.3,1.4v1.8l1.7.7,1.4.5,1.6.9-.4,1.1-1.1.6-.6,1.2Z"/>
    <path id="BM-DE" d="M460.4,226.3h-.9c0,0-.6-.2-.6-.2l-1.6-.3v-.7s1-.4,1-.4l.7-.2.5-.4.9-.7h.9c0,.1.6,1.1.6,1.1l-.3.8-1.1,1.1ZM451.4,222.7l.9.3h.6c0,0,.4,1.7.4,1.7l-.9,1.2-1.3.3-1.5.6-2,.2-.3,1.2v1.8l-.3,1.8-1,1.2-1.5.5-1.1.9h-1.6c0,0-1.4.8-1.4.8l-2.4.5-1.6.5-1.5.4-1.7-.4-1,1-1.1.9-.5,2-1.1.4-1,.4v1l-1.2.9-1.8.4-3.5.4-1.1.7-1.6.5-2.2,1.2-1.9.8-1.7,1-3,.5-2.5.4-1.6.7-2.4.6-.8.5-17.6-19.3,1.6-1.4,3.6,2.6,11.5-8.7,1.3.6,2.3.8,2.6.3,4.4.4,2.3.9,1,1.7.2,3,.5,1.7-.5,1-1.1,1.4-1.3.5-.4.9.4,1.2.5.7.5,1,1.2-.3.4-1.8.5-1.8,1.4-.7h2.4l1,1.2,1.1.8,1.6-1.1,1.9.3h1.2v-1.2c-.1,0-1.1-.4-1.1-.4l-.2-1h1.1l1.1.3,2.3.2,1.3-1,1-.8,1.3-1.6,1.1-.8h1.9l.9,1.4,1.2.8,2.3-.6,1.5-1.6,1.3-2.6,1.3-2,1.6-1.1,2.3.3.9-.9.7-1.2ZM459.4,220.5l-.7.8-.6-.7-1.2-.2h-1c0,0-.7-.5-.7-.5l.8-.9h1.3l1.7-.2.6,1-.3.8ZM480.1,202.2v2.4c0,0,0,3,0,3l-.8.5-.4-.7v-.8l-.3-1.8-.5-.4h-1.8c0,.1-2.3,0-2.3,0h-2.1l-.5-1,1.2-1.3.7-1.1,2.2-.2,1.3-.6,1.4-.3,1.6,1,.2,1.4ZM365.1,171.1l1.2.4.3-.4.4-.6h.7l.5.4.4,1.3-.2,2v1c0,0-.6.5-.6.5h-1.7c0,0-.7.4-.7.4h-1.6c0,0-.7-.4-.7-.4l-.6-.9v-1.6c0,0,1-.9,1-.9l.2-.4.6-1.4h.5c0,0,.3.6.3.6ZM481.1,154.6l-.9.4-.4-1.1-2-.3v-1.3l2.3-.6.2,1.2.5.4.3,1.2ZM502,141.3l1.4.5.8-.9h.8l1.1.7.7,1.3-.7,1.4-1.6.7-.5.7,1.6.5,1.1.3.8,1.2.2,1.8.7.9.9.8.3,1.2-.5.9-1.1.3-1.4.6-1,1.7-.8,2.7.5,1.2.4,1.5-.5,2-1.1.9-1.1,1.3-.3,1.4-.2,1.9-1,.6-.9.5-.6,1.5h-1v-1.4c0,0-.2-1.6-.2-1.6l-1.7-.3-1.4-.3-1.4-.6-1,.6-1.8.2-1.8.4-1.4.5-.8-.4-1.5-.4h-1.4c0,0-1.6,1.2-1.6,1.2l-.6,2.9-.2,3-.8,2.3.2,2.1,1.8,1.8,1.2,1.9,1.6.3.8,1.2,1.3,1.2,1.2,1.3,1.2-.7,1.1-.4.2,1.2-.3,1.3-1.1,1-.5,1.6.5,1.2.4,1.3.8,1.8,2,1.4,1.1.4,2.1,1.5,1.5,1.3.2,1.5,1.3,1.2v1.7l-1.6-.2-.6-.7-.2-2-1.3-.7-.8-1.4h-1.2l-1.4.2-1.1.4-.8,1.5-.8.2-.5-1.1.5-1.2.5-1.6.8-.3.3-1.1-1.6-.5h-1.7l-2.1.2-.8,1-.3,1.2-.8-.4-.7-1.9-.3-2.3-.8-2-.8-1.2-.2-1.3-.8-1.4-1-1.6-1.1-1.8-1.2-1.2-2,.4-.5-2-.3-3.6-1.8-2.1-1.8-1.4-2.9-2-2.6-.6-1.6-2-3-2.1-5-2.8-5.1-.6-3.1-1.1-4.4-1.1-3.2-.5-3.1.2-2.3.6-3.3,1.2-1.4,1.3v4.7l.2,6.9.4,2.5.3,2.5-.2,2-.5.7-1.3,1.1-1.7.4-1.6-1.5.3-3.1-.2-5.9-.4-2.8-.2-5.4-1.1-2.4-.5-2.2-.8-1.1-1.4-1.5-1.7-.5-2.7-.7-2.2.3-2.3.3-2.6,1-2.7.7-2.6.6-2.6,1.4-3.1,2.5-1.1,2.8-2.2,2.4-1.4,1.1h-2.6c0,0-1.1-.4-1.1-.4l-1,.6-.8,1.2-1.7-.4-.8-.2-.7-1.2-1.1-3.2-1.1-1.4-.8-2-.4-2.4.5-2.6,1.9-.4,1.7-.8,2-1,2.3-1.1,2.3-1.2,2.9-1.1,2.3-.6,2.5-.8,2.9-1.6,1.7-1.2,2.3-1.6.8-1.4,1.4-1.5,2.6-1,2.1-.2,2.6.4,3.3.6h3.2c0,0,2.2-1.8,2.2-1.8l1-1.2.5-1h1.1c0,0,1.6,0,1.6,0l2.1.2h1.7c0,0,1.4.9,1.4.9l2-.2,1.5-.2.8.7,1.4.8,2.9-.4,1.1,1.2.8.6.8-.4,1.1-.8,1.4-.8,2.3-.4h1.7l2.3.5,1.5.9,1.4,2h1.4c0,0,2.2-.7,2.2-.7l1.7-.7,2.4.9h2c0,0,2.9.5,2.9.5h2.3c0,0,1.3,1,1.3,1l-.2,2.7-1.3,1.2-1.7,1.2-.9,2.4,1.1,1.6,2.6.3,1.4-.8,1.2.5.8,1,1.1-.7,2.3-.2.8,1.1.9,1h1.6l-.5-2.1-.8-1.2,1.1-1.9,1.1-.4,2-.4,3.2-.4h1.7c0,0,2.4.2,2.4.2l1.4-2,1.4-.9h1.4c0,0,1.6-.8,1.6-.8l-.3-1.4-1.4-.9-1.7,1-1.1.6h-1.7c0,0-1.1,1.4-1.1,1.4l-1.1,1h-1.2l-.4-.9-.8-.8-.8-1,.6-.9h1.1l.8-1.8-.7-1-.5-1.2.5-1.2,1.4-.4,2.3-.4h3c0,0,1.7,0,1.7,0l.8-.8.8-.6h1.4c0,0,.8,1,.8,1ZM479.9,139.6l1,.9,2.1.6h2.4c0,0,.8,1.2.8,1.2l-.2,1.3-1.5.6-1,.6-1.1.4-1.1-.6-1.1.4-1.2.4h-3.8l-2.2-.7h-2.3c0,0-2.4-1.2-2.4-1.2l-2-.6-1.4-.6-1.1-.5-1.6-.5-.9-1.1v-4.2c0,0,.8-.4.8-.4l.5.5v1.2l-.2,1.3.7.5h2.1c0,0,1.5,1.1,1.5,1.1l1.6.2.4-.4.2-1.3-.4-1.2-.8-.3-.8-.7.5-.8,1.4-.2,1.1,1,.6,1.2,1.5,1.2,2.6.4h3.8c0,0,1.6.4,1.6.4ZM488.3,136.1v1.4l-1.1.4-1.4-.3-.4-1-1-.6h-1.7c0,0-1-.9-1-.9l-1-.6-1.4-1.2-1.7-.4-2.8-.2-.6-.4.5-1.1.6-.9,1-.4,1.9-.4.7-.9,1.4-.3,1.4,1.2,1.4,1.1.8,1.1,2,1.4,1.1,1.2,1.3,1.6ZM477.6,127.5l-.5.6-1-.4-.8-.7-.5-.8.9-.4,1.1-.9,1.3.5-.4,1.3-.2.6ZM453,98.6l1.4,1.2,2,2,2,3,2.5,1.5,1.3,1.6,2.5,3.1,1.2,1.8,1.6,1.1,1.4,1.7,2.2,2,2,1.3,1.8,1.2,1,1.5.5,1.5-.9.7h-4.1l-3.6-.3-1.5-.9-1.4-.8-2.1-.6-1.7-1.4-1.2-1.2-2.8-.6-4.4-11.2-16,5,3.1,11.5-1.5.8-2.7,1.1-1.8.6-3.4.4-1.7.9-2.4.4v1.3c0,0,0,.5,0,.5h-1.2c0,0-1.1.5-1.1.5l-1,.8-1.4.9-3.4.2-2.1.2-.9-1.3-.6-.5.8-1,1-.6,1-.6.5-.7-.8-.9-1.4-.4-1.2.8-.8.7-1,.4-1.1.2-.4.9-.2.8-1.2,1.3-1.5.4-1.4.9-.4,1.1,1.6.7,2.1.7,2.1.5,1.7.4,1.1.2,1.5-.6,1-1.2h1.1c0,0,1.5.4,1.5.4l1.3.7,1.1,1.6.2,2.1-.7,2.1-2.3-.3-1.4-.3-.5-1-1.2-.7-1,.5-.3,1.2-.9.8-1,.7-1.2.6-1.1-.8-1.1.3.3,1.2.4.9-.8.5-3.2.7-1.3.2-.9.7-1.1-1.1-1.1-.9-1.2,1.5-.7,1.6-1.3,1.1-2.5,1.2-1.7.9-2.2.2-3.6.2-1.7.9-1.8,1-1.4.9-3.2.9-1.6.4-.9.8-1.6,1.3-1.7.3-1.7,1.3-1.5,1.4.3,2.1-.2,1.1-1.5.4-2.3.4h-1.5c0,0-1.2.9-1.2.9l-1.4,1.1-.4-.7.8-1.1.6-1.2.6-1.9,1.2-.8,1.2-.4,2.7-.6.6-1.3-.3-.5-.5-.7-1.6.7-1.7.6.3-1.4.8-.6.5-1.3,1.1-1.2,1.3-1.2,1.5-1.5,2-1.6,1.4-1,1.7-.7,2.3-.7,2.4-.6,1.4-.9.8-.8.8-1.1,2.5-.7,1-.6,2-1.1.8-1.1,1-1.3,1.4-2,1.8-1.2,3.1-.9.8-1.9,2-1.4,2.1-1.7,2.3-1.2,2.6-1.5,1.9-1.2,1.6-.9,1.4-1.3,1.4-.5,1.8-1.2,1.4-1.5,1.6-.6,1.4-1.2,1.8-.7,1.7-1.5,1.9-1.9,1.3-1.9.9-1.1,1.7-.5.5-1.2,1-1.8.9-1.3,1.2-1,1.4-2,1.4-.5.8-.2,1.7-1.3,1.7-.5,1.4-.9.2-1.3.8-.9.8.8,1,.6,1.6-.4v-1.2c0,0-.3-1.6-.3-1.6l.8-.2,2.1-.4,1.4-.9,1.3.2.2,2,.6,1.9ZM2.4,60,2.4,60"/>
    <path id="BM-SM" d="M382.4,263.2h-.5c0,.1-2.3,1.9-2.3,1.9l-2.2,1.9-2,1.3-.8,1.7v1.1c0,0-1.3,1-1.3,1l-1.7.7-.9,2-1.1,2.1-.5,2.8-1.1.8-1.9,2.8h-2.6l-2.9.4-2.2.8-1.8.3-2.9.4-.7,1.5-.2,2.6-1.4,1.2-1.7.2-.5-1.5-1.3-.6-1.6.8-2.9,1.2-2.6,1.6-.4,2.5,1.1.3,1.4-1,1.1-1.5,1.4-.9,2.3-.5,1.1.4-.3.6-1.8,2.1-1.1,1.1-1.3.9-1.7,1-.9.4-1,.8-2.3,1-2.6.4-1.7,1-1.8.8-1.9.6-2.1.5-.8,1.2-1.7,2.2-2.2.8-2,1.9-1.7,1-1.5,1.8-.7,1.6-1,1.4-.8.8-.8.6-.3-1.3-1.1-.7-22.8-33.9,2.6-1.2.8-1.6,1.1-1.2,2.6-.5,1.5-1.2,1.4-2.6.6-2.5,1.7-1.1,1.8-.3,2.4-2.2,5.6,8.3,7.2-4.6-1.7-3.7h1.5l.6-.3.8-1.2.7-1.4,1.6-.2,1.2.8,1.9.9,2.2.5,1.6,1,1.9.5,1.8-.9,2.1-.6h2l2.4-.2,2.9-.2h6c0,0,2.5-.2,2.5-.2l1.2.4.9.9,1.3.5,1.1.8,2.2,1.2,1.3.7h1.5c0,0,2.6-.3,2.6-.3l.9-1,1.1-1.8,1-1.1-.3-1.4-.8-1.5-1-1.1-.5-1.2v-2.4l.5-.9,1-1.3.4-2v-2c0,0,1-1.1,1-1.1l15,13.4Z"/>
    <path id="BM-SG" d="M456.8,118.1l-2.5-.9h-2.7l-2.6.4-2.3.8-1.3.9h-1.4l-1.6.7-1,2-1.7,1.2-.3.2-3.1-11.5,16-5,4.4,11.2Z"/>
  </g>
</svg>