<?xml version="1.0" encoding="UTF-8"?>
<svg id="Layer_1" xmlns="http://www.w3.org/2000/svg" xmlns:amcharts="http://amcharts.com/ammap" version="1.1" viewBox="0 0 512 512">
  <!-- Generator: Adobe Illustrator 29.1.0, SVG Export Plug-In . SVG Version: 2.1.0 Build 142)  -->
  <g id="_x3C_defs">
    <amcharts:ammap bottomLatitude="18.3062889" leftLongitude="-64.7904602" projection="mercator" rightLongitude="-64.2703595" topLatitude="18.7495909"/>
  </g>
  <path id="VG" d="M164.4,483.5l.2-2.8,4.2,1.6,1.5-3.3,4.1,2.2-.3-3.6-.2-3.5,9.7-5.2,3.4.9-1,2.2,3.9-1.4,3.5,2.4.2-6.4-14.2-2.2-.4,4.3-5.4-2.4-3.5,2.3-5.8-3.5.2,4.1,7.1,2.6-5.3,4.7-5.2-4.2.4,6.2-3.5,1.6,6.5,3.4ZM217.5,452.5l-1.2-22.2-3.7,3.7-3.2-5-2.9,2.8-6.3-6.8,4.9,6.1-1.2,2.1-8.8,1.1-3.3-4-8.9,1.3,2.4,2.4-2.7,1.7-10.1.4,7.6,5.3,2.3-3.4,6.8,5.2,4.6-5.9,12.7-.8,4,3.8-.8,3.8,3.6,6.2-2.1,6.8,7.9,2-1.7-6.7ZM50.9,403.7l4.2-3.7,9.3-1.7-2.7-2.1-15,2.5-10.8,6,14.7,1.7,2-1.1-1.8-1.7ZM300.5,399.8l1.8,4.2,6.5,1.3-4.1-6.8,5.8.6,1.5-3.3-9.2-.8-10.7,6.2,8.4-1.3ZM273.9,419.2l3.1-1.4,4.6,4.3,2.3-5-2.6-3.4-8-1.5.5-5.3,3.4-2.5-8.6-6.9-1.8,10,5.9,4.9,1.1,6.8ZM441.5,28.5l-10.9,8.3-12.2-3.8-9.6,2.6-18.9-6.8-6.9,4.3-9.3,1.1-6.1-2.4-4.9,5.7,17,18.7,10.2-4.7,7.5,5.3,10.7-3.2,3.2,3.1,22.8,4.4,17.7.4,13.1,3.6.4,4.7,23,11.2,9.8,9.4,6-1.4-1.3-14.3-15-19.8-7.4-7.7-4.6-.8-5-7.1-4.3.2-3.7-4.6-10.4-4-11-2.4ZM353.7,327.6l17-10.5,21,.9v-5.2c0,0-3.3-2.3-3.3-2.3l4.5-10.7,6.2,1,3.8,3.8,5.8-5.1,4.4,2.2,8.5-2.5.4-4,6.2-4.2,9,1.4,12.3-3.7.9-3.7,6.7-3.9-7.1.3-2.2,2.8-10.5-1-9.1,6.4,1.4-7.5-7.8.6-2.2,6.8,3.7,3.5-27,3.4,2.1-8.3-3.1-2.4-6.9,2.1-6.7-8.8-4.2,2.6-13.8-.9,5.6,5.2-4.5,9.5.9,20.6-6.7,6-6.6-2.6-3.5,6.3-7.4-1.9-4.9,3.8,6.1,4.6v4.4c0,0,1.9-1,1.9-1l-7.6,7.6-.3,11.2-2.9,5,2.4,2.2,7.9-5.4,8.1,1.3,4.6-2.6-5.8-8.7,3-18.3ZM218.2,317.1l7.3-4.6-1-5.9-3.9.7-4.3-4.7-2.3,2.4,1.3,4.6-11.8-15.2-3.5,4.2,4.7.3,1.4,5.2-5,5.9,8.5,2,3.3,10.4,4.3-1.4,1.1-4ZM99.2,398.9l8.1-1.8,7.5,8,6.8-.7,11.9-10.1,10.6.3,6.6-9.2-1.8,4.6,3.2-.2-.9-12.9,2.9.2-.4,3.7,14.2.4,5.8-7.8-3.3,1.5-3.8-6.6,4.7-4.7-5.8-2.1,3.6-3.2,4.1,2.7.3-3.3,7.3,5.8.9,4.2,5.3.3,6.2,6.9,5.3-4.7,2.5,3.7,5-1,5.4-5.6-4.8,3.8-2.7-1.7,3.3-1.1.9-4.6,5.6,3,1.3-5.8,4.8-2.1-.5-4-4-1.2.7-5.5,5.4-2.4,6.6,2.3,2-3.8-4.3-8.1-.6-8.2-11.6-1-12.2,9.2-5.1-2.2-.9,4.9-3.2,1.4-6.7-2-4-7.6-3.1,5.4-5.9,1.2-30.7-5.4-1.4,5.6-7.8-.4,5.7,3.3-1.2,6-11-4.3-4.3,11.1,2.9,4.3,3.4-.3v5.7s-12.6,6.1-12.6,6.1l-1,9.4-5.4,7.4-8.4,4.3-12.6-2.2-2.5,6.1-4.4-.7-10.8,5.4,16.2.8,1.2,2.5,11.7-2.9ZM27.4,343.6l5.5,5.1,2.9-7.6,3.1.3,4.9,7.2,8,2.8,6-2.1-2.3-3.9h4.4c0,0,5.2,4.1,5.2,4.1l2-4.6-1.1-3.2-6.2-2.4,2.7-1.9-2.7-5.7-25.8-4.6-7.6,9.5-7,.7-.4,3.6-10.9,1.4,5.5,4,14-2.6ZM246.3,345.9l8.5,2.2,4.6,11.3,7.4-6.1-1.8-9-9.9-8-5.1,5.5-3-1.9.6-3.3-10.7,3.8-3-1.8.2-4.1-4.4.4v7.1c.1,0,11.3,6.1,11.3,6.1l2.3-3.8,3.1,1.6ZM251.3,313.4l5.5-15.4-2.6.6-3.3-4,.8-5.6-8.1,2.6,3.1,6.9-2.8,6.8,4.7,4-3.3,3.6,4.2,1.7-2.8,5.2-3.6.4,1.9,8.7,11.4-9.8-5.1-5.8Z"/>
</svg>