<svg xmlns="http://www.w3.org/2000/svg" xmlns:amcharts="http://amcharts.com/ammap" id="Layer_1" viewBox="0 0 512 512"><g id="_x3C_defs"><amcharts:ammap bottomLatitude="41.731" leftLongitude="-141.007" projection="mercator" rightLongitude="-52.647" topLatitude="83.117"/></g><g><path id="CA-AB" d="M199.9 456.8h-17.3v-.3l-.5-.8-.7-.3-.9-1.2v-1l-.7-.3.4-.9-.2-1.3v-.6c.1 0-.4-2.3-.4-2.3l-.9-1.2-.4-.3-.5.2-.4-.5-.2-.6-1.2-.9.2-.4v-.4c-.1 0-.9-.7-.9-.7l-.9-.4-.2-.7-.9-.6-.3-.9-1.1-1.4-.5-1h-.4l-.3.5h-.4l-.5-1.2-.9-1.1-.3-.8h-1.1l-.7-.4-.3-.4.4-.8-1.2-.7-.2.5-.7.2v-.7l-.6-1v-.6l-.5-1.2-.7-.2-.2-.8-.4-.3-.2-.6-.8-.6v.7c-.1 0-1.1-.5-1.1-.5l-.6-1h-1.2c0-.1-.6-1-.6-1l-.3-.2v-.7h.6c0-.1-.3-.6-.3-.6l-.4-.2-.4-.9v-48.1h42.6v81.2Z"/><path id="CA-BC" d="M141 375.6h16.3v48.1l.4.9.4.2.3.5c0 .1-.7.2-.7.2v.7c.1 0 .4.2.4.2l.6.9h1.2c0 .1.6 1.1.6 1.1l1 .5v-.7c.1 0 .9.6.9.6l.2.6.4.3.2.8.7.2.6 1.2v.6l.4 1v.7l.7-.2.2-.5 1.1.7-.4.8.3.4.7.5h1.1l.3.7.9 1.1.5 1.2h.4l.3-.5h.4l.5.9 1.1 1.4.3.9.9.6.2.7.9.4.7.7v.4c.1 0 0 .4 0 .4l1.2.9.2.6.4.5.5-.2.4.3.9 1.2.6 2.3v.6c-.1 0 0 1.3 0 1.3l-.4.9.7.3v1l1 1.2.7.3.6.8v.3h-37.2l-.6-.5h-.3l-.2.5h-.2v-.4c-.1 0 0-.5 0-.5h-.4l-.2-.8 1.2-.2.3-.7-.6.5h-1.1c0-.1.4-2.3.4-2.3l-.6.7v.8h-.5l-.4.4-1.5-.6-.6-.7v-.4c-.1 0 .2-.5.2-.5h.3c0 .1.5 1 .5 1h.3l.7-.6h-.8c0 .1-.5-.4-.5-.4v-1.6c-.1 0 .4-.7.4-.7l-.2-.4-.5-.3.3.7-.4.5v.8c-.1 0-.8.5-.8.5h-.6c0 .1-.9 0-.9 0l-1.3-1.4-.6-1.8-.2-.4h-.2v-.4l.8-1.5v-1.6l-.3.4v1l-.5 1-.6.3h-1.1c0-.1-.2-.4-.2-.4v-.8l-.4 1.1h-.4c0 .1-.3-.1-.3-.1h-.8c0 .1-2.1-.3-2.1-.3v-.4c.1 0 2.4-.5 2.4-.5l-.4-.2-1.7.3h-.6v-.4l.6-.8-.6-.2.2-.6v-.7c-.1 0-.6 1-.6 1l-1.8.3-1.3-.5-1.5-1.4v-.8l.3-1.1 1.2-1.5 2.8-.4h-2.8l-.4.2-.9 1.4h-.3l-.6-1.3v-1l.5-1.2h-.6v-.6l.2-.7 1.5-1.1.8-.3.3.6.7.2 1.3 1.6-.8-1.1-.2-.6-.8-.4-.3-.6v-.6l.8-.8.2-.4-.2-.9v.9l-.2.5-1.9 2-.8.3-.5.5-1.1 3.2-.4-1.4-.7-1.1 1.4-1.1v-.9l.4-.6h-.4l-1 1.3.6-3.1.3-.7-1.3.6-.4-.4-.3-1.9-.5-.7-.9-.6-.9-.3-.4-1.2.2-.8.4-.4.4-.2h.3l-.2 1.1 1.5 1h.3l.5-.3 1 .3.9 1v-.4l-1.2-1.1h-1.3l-.7-.5-.4-1.4.2-.5.8-.3-.5-.4h-.2l-.8.6h-.3l-1.1 1.3-.2 1.6-.9.5-.4.7-1.1-1.1-.4-1-.7-.2-.8-.6-.3-.5.4-1 .6-.8.2-1.1 1.1-.2.7-.5h-1.2l-.8.4-.9-.6-.5-.6v-.5c-.1 0 .2-1.7.2-1.7l.6-.6 1.4-3.2 1.4-2.2-.6.2-.4-.9-.2 1.8-.9 1.9-.2-.4.4-1.2v-.7l-.4-2 .3-2.4-.4-1.2-.5.2-.8-.3-.3-.8-.7-.3-.4-.6-1.5-.5-2.1-1.5h-1.1v-.7l-.2-.4v-.4l-.9-.5.3-1.3-1.3-.4.5-.9-5.1-9.1v-.6l-1.7-2.4-2-1.6-.6-1.5-1.5-1.4-.6-.3-.5-1.3V380l-1.7-1.8-2 1.1-1.6.5.3.6v.4c-.1 0-.4.2-.4.2h-.5v1.5l-.5 1.1h-1l-2 1.4-.7.7h-.4l.2-.7-.5-1.9-4.4-4.6-.3-1-1.5-.9h64.9Zm-27.2 39.5.2-.8.6-1.2-.5-2.7v-.9c.1 0 .5-.8.5-.8l-.4 1.5.4 3zm-1.6 1.9 1.5-1.9v.6l-.6 1-.8.5-.2-.2Zm-1.4 2.1v-.5c-.1 0 0-.7 0-.7h.6v.4l-.7.7Zm-7.4 2.6.4.4 1.1-.2.6 1v.8l-1.7 1.1v.3c.1 0 1.6-.2 1.6-.2l.3-1.3v-1.3h.7l1.2-.7v1.1c-.1 0-.9 2-.9 2l-.3 2.9-.2.3-1.4.5h-.7l-1-.9.2-.4 1.1.2-1-.9-.7-.4-1-2.4v-1.2l.1-1.1 1.7.2Zm10.3 1.2-.6.8h-.4c0-.1-.5-.7-.5-.7h-.2v.7l-.3-.3.2-.7.8-.7.6.3.3.6Zm1.6 5.7h-.4l-.9-1.3-.7-.4-.9-1 .3-.6 2.2 1.4.8 1.4zm2.9.3h-.5l-.2-.2.4-1.3.3.5zm2.7 1.3.2 3-.7 1.6-.2-.5-.2-1.7v-1.2l-.3.6h-.3l-.5-.5-.7-1.5.6-2.2.7.4 1 .8.3 1.2Zm-13.7-1.8.4.7v1.3l-.6.3-.4-.2-.4.2 1 .9 1.2.4-.6.9.7 1.1h.7l-.3.8h.8l.1.6-.4.5-.9-.6-.6-1.1-2.6-2.7-.4-1.1.5-.2v-.3l-1.4-.5-.3-.5 1.7-.2 1.1-.5.6.3Zm10.4 1.4-.4-.2-.4-.7v-.4h.2zm1.6 3.4v.3c-.1 0-.9-1-.9-1l-.4-.8v-.6l1.1 1.1.2.4zm2.4.8h-.3l.1-.5v-1.6c-.1 0 .2-.6.2-.6h.5zm-11.3 3-.3-.4v-.9l.4.4v.9Zm13.2 3.3h-.5l-.4-1 .5-.6.5.8v.8Zm3.1 5.7 2.1.8 4.6 1 .6.3 1.1 2 1.3 1.8v.3c.1 0 0 .3 0 .3l.4.7.8.7 2.8 1.3.8.9 1.4 3.2.2-.7h.2c0 .1.5 1.5.5 1.5v.3c-.1 0-.7-.1-.7-.1l-.5.7-1.5-.4-3.3-1.3-1.8-1.1v-.4l1.2-1.3.2-1.2-.5 1.3h-1.9c0 .1-.5.5-.5.5l-1.4-1 .8-.6h-.4l-.5-.6-.5.2v-.3c-.1 0 0-.7 0-.7l-.4.2-.3-.3h-.6c0-.1-.3.3-.3.3l-.6-.5-.3.4-.2-1v-.3l1.8-.5h-.9l-.5-.3h-.3l-.7-1-.9-.4-.3.4h-.6l-.3-.4v-.8l-.2-.4-.2.4h-.3c0 .1-.5-.6-.5-.6h-.9l-.4.3h-.4l.1-1.1-.5-.4.2-.7 1.1-.2.7.5-.2-.9.3-.3-1.2-.2v.5l-.5.2h-.8l-.9-.7-.4-.6v-.3l.5-.6 1.4-.2.9.3 2.2 1.2Zm8.6 3.6v.4l-.7-1.8.2-.7.4.2.5 1.1-.5.8Zm.9.4-.1-.7v-.6c.1 0 .5.9.5.9l-.3.4Zm-7.1 2.8h-.4l-.8-.7.2-.4v-.4c-.1 0 .3-.2.3-.2l.4.2.4.6v.9Zm10.6.5c0 .1-.9-.4-.9-.4l-1.2-1.1h.1c0-.1.9.2.9.2zm-8.3 1.2v.6c.1 0-.6-.2-.6-.2v-.5l.6.2Zm11.6 3-.7-.4-.6-1 1.3 1.3Zm-.2.9-.2.2h-.2c0-.1-.3-1.3-.3-1.3l.5.4c0 .1.3.7.3.7z"/><path id="CA-MB" d="m289.6 401.2-10.3 11.7-9.6 11.5-6.5 6.6v25.9h-26.5l-2.7-47.7v-33.5h30.8v6.2l-.3 1.5-.4.2.8.4.4 1.2h.4l.7 1 .6.2-.2 3.4.3-.7.3-2 .4-.9.3-.2h1.2l1.3.1h.9l.4.2.3 1.9 2.8 9.4-.2.9-.6 1.3-.8.9 1.5-.9h.7l-.2.5 1.4-.7 3.9-1.4h.9c0-.1 1.3.1 1.3.1l3.4 1.9 3.6 1Z"/><path id="CA-NB" d="M395.7 475.6v.2h-.5l-.7.8-.7.2-.6-.9.2.8-.8 1.1h-.5l-2.8 1.8-1.4.7h-.3l-.7-.6.4-.6-.7.5.3.5-.2.2-1.3.8-.3-.3-1.5.5-.2-.5h-.7l-.7-.3-.3.3-.7-.7.2-.6-.3-.6.3-.3v-.4l-.7-.1-.9-.7.2-1.2-.2-7.1-1.8-1.6h-.5v.2l-1.9.7-.7-.2-.2-.4 1.8-.8.8-.7.2-.4v-2.2h1.1v-.4h2.1v.4c.1 0 1.1.5 1.1.5l.2-.2 1.1-.2h.5c0 .1.1-.3.1-.3l.9-.4h.3l.9-.3h.3l.6.5 1.5.5.4.3.4 1 .3.2h.5c0-.1 1.1-.9 1.1-.9l1-.2-.2.3h.7l.7.4-.6 1-.3 1.3-1.7 1.7.5.3.6-.2.9.2-.3 1.1.4 1.2.4.2.3 1.9.4.3v.4l1.5.1 1.4.5.2.2-1 .5Zm-1.9-12.1-.5.3.4-.7v.3Zm-.1.4v.5c-.1 0-.5.4-.5.4h-.3v-.7h.7Zm-9.6 19.7-.6.3.4-1.1h.2v.7Z"/><path id="CA-NL" d="M425.2 440.6v-3.8h-28.4v-.3h.4l-.4-1.6-.7-.6v-.3l-.5-.2v-.2l.7-.7 2.1-.7-.6-.6v-1.3l-.5-1h-.2l-.8.2-.3 1.3-.7.3-.2.3v1.8l.3 1.2v1.3c-.1 0-.7.7-.7.7l-.3 1.7.2.8-.9.8h-.4l-.4-.9.3-.6-1.3-1.6-.9-.7-1.3-.3-.6.9-.8-.2-.2.4h-.2l-.7-.4-.3-.7-.8-.6-.3 1-.3-.2-.2-.8.3-.9v-1.7c-.1 0 .4-1.7.4-1.7l-.5-.8h-.2l-.2.4-.4.2-.3 1.4-.5.3h-.6l-.5-.5v-1.2l.4-1.1v-2c.1 0-.5-.4-.5-.4l-.4-.9-1.3-.5v-1.3l-1.2-1.9 1.1-1.3-.4-1.6v-.7l.3-.1 1.1.4.2-.5.4-.2v-.3l-1.1-2.4v-.7h.5l.6.9 1.3 1.2.6.2.3-.4-.4-2.4v-.6l-.2-.6v-.3l2.7 2.7 1.2.4.4.8.5.4 2.4.2h3.3l1.8.6h.9c0 .1 1-2.4 1-2.4l-.3-.9v-.4l1.9-1.5-.2-1.3-.6-.2-.5-.4-1.2-2v-.5l.6-.5v-.3l-1.9-.5v-.4l.4-.5-.9-.7v-.7l.7-.3v-.3c.1 0-.7-1.8-.7-1.8l.9-1.4v-1c.1 0 .6-1.6.6-1.6l-.2-.7.2-.6V396l.5-.9v-.4l-.4.2h-.3l-.7-.8h-.4c0 .1-.8-1.7-.8-1.7l-.7-.7v-.4l1.2-1.7 1.1-.8v-.8h-.9v-.7l.4-.3 2-.6-.4-.6-.6-.3-2 .8-.4-.8-2.4-.7v-.6l.3-.2 1.6.4.3-.2-.7-.8-.2-.9v-1.4l.6-.6v-.3l-.3-.1-1.1.5-.4-.6v-2.3c.1 0 .7-.9.7-.9l-.7-.5-.2-.4 1-.6v-.3c.1 0-.6-.5-.6-.5l-.2-.5 1-.5.8.7v.5l-.4.7-1 .7h.2c0 .1.7-.3.7-.3l1.2-.2.4.8v1.1l-.2.9.7-.7.5 1.5.8 1.1-.9.9v.2c.1 0 .8.3.8.3v.6l.6-.5h.4l.5 1.2-.4.7-.6.3-1.4.2v.2h.8l1.7-.4h.6l.1.2-.4.3.4.8-.3.5h1l.8 1.7-1 1-1.2.8-.6 1h.3l1.1-1.1h.3v.5l1.7-.7h.6v.1l-.3 1.3-.6 1-1.1.6-.8.9h.2l1.7-.9 1.4-.2.8 1.5h.8l.7.5.3.4-.4.7.3.8-.2.5-1.6 1h-.7l.4.3h1.3l.7.2.3.4-.5 1 .5.4h1c0 .1 1.3 1.5 1.3 1.5l-.2 1.2v1.3l-.6.2-2.3-.3-1.3-.5v-.2l.3-.4-.9.2.4.6 1.2.5.5.6h.6l.5.5-.7.2-.5.4.3.2 1.8.3.4.2-1.2.6v.4l.6.2h.8l.3 1.2-.6.2v.2l1.1.3.4.7h.4l.7-.7h.4v.5l.6.5v.7c.1 0 .5-.6.5-.6l.6.2-.3 1 .9 1.3-.7.9-.4 1.2-.7 1 1.7-1.3 1.2-.2.7-.4.3.3v.5l.4.2.4-.2.3.2-1.3 1.7-.4 1 1.7-1.8.7-1.1h.7c0 .1.4.4.4.4l.9 2.3 1.6.5.7-.3v-.4h1.1v.8c.1 0 .6.4.6.4l.9.5h.6l.3.4-.7 1.1-.6.4-1.9.3-.3.5-.9.4-.8 1.3h-1.2c0 .1-.5.6-.5.6l-1.9.9h-1.4l-1 .7-.4 1-1.1-.4v.3c.1 0 1.3.9 1.3.9l-.8.7v.2l.2.1-.4.4v.2l.8-.3 1.4-1.4.9-.2 1.3-.8 1.7-1.7 1.1-.7 1.4-.5 1.7-.3-.6-.3h-1.1l-.2-.3.7-.4 3.3.5.9 1.7.3 1-.5.6-1.2.7.6.4.2.7 1.4-1.5.7-.5 1.6-.2.5 1 1 .3 1.1 1.7.3.9-.4 1.5.3.9-.2 1 .3.7-2.1.5v.2h1l1.3.4.2.3-.3.4-1-.2 1.4 1.1v.7l-2.5 2.4-3 2.3h-.5Zm-19.7-44.9.4.2v.9h-.6l-.8-.6-.2-.4.7-.2.5.2Zm3.2 11.8v.2l-.8-.2v-.5c.1 0 .4-.2.4-.2l.5.3v.5Zm24 30h-.2v-.3l.5-.4v.5l-.4.3Zm-.5 2.4-.5 1-1.9.4v.5l.1.4h.7l.2.2v.9l-.3.9-1 1-.4 1.2-1.1 1.4v.7c-.1 0-1.2 1.7-1.2 1.7v.8l-.5.8.2.4v.6l1.8-2.1.6-1 .3-.2.2.3-.2.8 1-.5.7.4 1.1-.2-.3.6-1.9 1.2-.4.6.7-.4h.5v.6l-.8.8 1.2-.4.6.5 1.3-.4v.8c.1 0 .4-.3.4-.3v-.7h.2v.7c.1 0-.5 1.6-.5 1.6v.6l.4-.3v-.5l.3-.3.6-.4v.3h.2l2-1.7h.1v1.3l.4-.6 1.7-.2 1.4.8.2.4v.8l-.8.7-.6.9-1.1.7 1.3-.2-.5.7 1.1.2v.2l-.4.8-1.4.9 1.3-.4.3-.3h.8l.6-.5h.8l.7-.6v.2c.1 0 0 .8 0 .8l-.4.7-.8.3-.3.4-.9.6.2.2v.5l-1.3.4h1l-.2.6-.7.9.4.9h.7l.4-.5.9-1.6 1.5-1 .2.2-1.2 2.4v1.4l.1.4.8-.6.7-1.4.3.2.2 1.2v.8c-.1 0-1.1 2-1.1 2v.6c.1 0-.2 1.2-.2 1.2l-.7 1h-.4l-.5-.4-.9.5h-.2v-3.2l-1.8 1.9h-.4l-.3-.3.3-1.3 1-2.2-.6-2-.9-.7-1.3 2.9-.3.2.4-1.1-.8.9h-.9c0 .1-1 1.5-1 1.5l-.2.8-.8.9h-.9l-1.1.2-.7-.4v-.6c.1 0 .5-.3.5-.3l1.5-.6 1.3-1.8 1.4-.8.4-.6-.7.3-.5-.2h-1.2l-.3 1-.6.2-1.2-.4-1.1.2 1.1-.6v-1.4l-.7.4-.4-.2-.6.8-2.2.6-3-.4h-.8l-1.1-.3h-1.7v-.4l-1.2.7-2.1.4-.6-.4-.3-.6-.2-1 .4-.7 1.3-1 1.5-1.6 1.2-.7h-1.7c0-.1-1.9 0-1.9 0v-.2l1.4-1.2-.3.6.3.3h.5l1-2.6.4-.5h.9c0 .1.6.6.6.6h.3l-.5-.6.5-1-.9-.2v-.8l.4-.7.4-.3.7.5h.3c0-.1-.5-.8-.5-.8v-.7c-.1 0 2-5.3 2-5.3l.4-.7h.6l-.5-.6 1-1.1.2-.6v-.5c-.1 0 .8-.8.8-.8l.6-1.4 2.8-1.6h.5l.2.4.7.3v-.3c.1 0 0-.3 0-.3h.1c0-.1.6-.3.6-.3l.3.2v.2Zm-.3 5.5h-.4l.1-.4h.6c0-.1-.3.4-.3.4m6.1 6.5.5.5-1.3.4v-.8l.4.2.3-.4h.2Zm-1.9 1-1 .6-.3-.5.2-.2.3.2.7-.5v.3Zm1.4 13.8-.4.2.5-1.1.4-.4-.4 1.3Z"/><path id="CA-NS" d="m408.2 476 1-.2v.2l-.7.4.3.3-.5.5v.3c.1 0 .7-.3.7-.3h.8l1.2-1.3-1 .2h-.1c0-.1.7-.8.7-.8v-.3l.3-.5.9-.7.3.7h.6l1 .2v.3l-.3.6.5.3c0 .1-.7.5-.7.5l-1.6 1.4-1.2.4h-.8c0-.1-1.8.1-1.8.1l-.7-.9-.2-1.4v-.7l.4-.7.7-.8 1.6-3.1 1.3-1.3h.7v.5l.4 1.2-.6 2v.9l-.4.6-2.3 1.4Zm-13.7.7.7-.8h.5v-.3l1.4.9h.8l.9.6h1.6c0-.1.9 0 .9 0l-.2.6h.7l.4.2 2.2-1.5.3.9.4.4h.5l.7-.2.6.7.3.8-.8.5h1.5c0 .1.3.5.3.5l-.3.4h-.3c0-.1-.5 0-.5 0l-5.2 2.4-2.2.8h-.5l-.6.4h-.6l-.6-.2.3.8-.3.4-.9-.2-.8-.8-.4.9-.3-.6-.5.2-.2.6.3.7-.3.3h-.2l-.4.6-.5.3-1.2 1.6-1 .8h-.6l-.4.3v.7h-.4l-.2.3-.4-.2h-.4c0 .1-.3 0-.3 0l-.6-1.4h-.4c0-.1-.3.3-.3.3l-.4-.4-.3-1.9.4-1.3 1-1.2h-.3l-.9.8.5-.8.4-.3 1.3-.4.5-.5-1 .4.3-.4 3.2-2.2 1.9-.8.2-.3-.2-.2.5.2v1l.4.1.4.5-.2-.7.4-.4 1.5-.6h1.2l.4-.3-1.1-.2h-1.2l-.8-.1H394c0 .1-1.1 0-1.1 0l-.6.5-.7-.3.4-.6 1.1-.9 1-1.3Zm14.3 2.1h-.2l-.3-.4h.7zm-22.6 7.1-.2.2.5-.8zm27.6 2.1-1.1.2-.3-.3h1.1l.6-.3z"/><path id="CA-NT" d="M199.9 132.9v7.8l-1.8.6-1.4-.3-1.8-1.6-.3.2-.9 1.9-.4.3-1-.2-1.6-1.7-1.8.5-1.9 1-.7.2-.5-1.1.6-1.6 1.3-1.2 2.7-1.7 2.2-.6.8-.6.5-.9 1.4-1.4.8-.6 1.1-.5h.9l1.7 1.5Zm0 12.7v3.3l-3.2 1.5-.5.5.2.6.4.4h2.2l.3 1.2v1.8l-.3 2-2.1 1.5-.9.4h-.7c0-.1-.7 0-.7 0l-3.1 1.6h-1l-.8-.4-1.2-1.6-1.2-.6-1-1.1-.2-1 .4-1-.7-3.6v-1l.4-1.1 1.6-.6 2.1-1.3 4.7-1.7 1.4.2.6-.3h1.1c0-.1 1.9.1 1.9.1Zm-16.3 6.8-1.2.7h-.8l-1.4-1-1.6-3-.2-1.1.6-.2 1.2-1.3 1.2-.8.2 1.5h.4c0 .1.4.5.4.5l.8 1.3.6.2.6 1.4v.4l-.9 1.2Zm-7.4 7.7.3.8v.6c-.1 0-.6.5-.6.5l-2.5 1.7-.5.8.2.7 1.8 2.5.2.6-.4.6-.8-.2-.6.3v.5l1 1.7.3 1.4-1.2 1.8-1.1.6-2.3.8-.2 2.9-.5 1.4-.8.5h-.6l-1.5-1.3-.6-1.1v-.7c-.1 0 .1-2.3.1-2.3l.8-3.9-.2-.4h-.3l-1.4.8-.4.4-.5 1.4-.3 2.1-.5.4h-.7l-.3.2v.9l.6.8v1.5l-.7 1-.8 2.4-.4.4h-.4l-.3-.6-1.2-3.2-.2.2-.3.8v2.2l-.4.7v.3l.8.8v1.3h-.3l-.5 1.2-.8 1h-1.1c0 .1-1.1.6-1.1.6l-.7-3.2-.3-.5-.6-2.3-.3-.3-.2.3-.5 2.5-.8.6h-.9l-1.1-.6-.9-.3-.6.3-1.5 1.3h-.6c0-.1-.5-1.1-.5-1.1v-.4l.4-.9-.3-.7v-.7h-.3l-.9.5.5-1.7 1.1-2.3.7-.9 3.2-.7.2-.2 2-3.8 2.6-2.5.7-2.1.5-.5 1.6-2.7 2.2-3.2 1-1.2 1.1-.5 3.5-.9 2.5 1.2h.6l.6-.8.4.2.9.2.6-.8-.3-.4-1.1-.7v-.7l.8-1.3 1.4-.4h.6l.7.6.9 1.1 2 1.9Zm8.5 11.8-.6.6-4.4-.9-.4-.7.8-1.1 1-.5 2.3-.4.8.4.8.9v.8c.1 0-.2.7-.2.7Zm15.2 21.4v11.5l-1.6.6-.7.5-.9 1.5-.8.8-3.4 2.2-3.4 1.4-2.1.2-2.1-.4-1.4-.9-1.8-1.8-.5-1.1.3-.7.8-.8 1.1-.8 2.3-1 2.1-1.6.7-.3 2-.3 1 .2 1.2-.3 1.8-1.8.8-1.1.2-.5-.3-.5h-.4l-1.9 1.5h-.7l-1.8.6h-.2l-1-1.1-.5-.2-.5.4-.6 1.1-.4.2-3.2.6-.4-.3-.2-.5-.2-1.6v-.8c.1 0 .5-1 .5-1l1.2-1.6h-.5l-1.2.7-.6-1-.6 3.3-.5-.2-.6-.5h-.3l.7 1.7v.5l-.4.9-2.4 1.8-.5-.5-.6-1.5-.6-.2-.5.6-.3 1.2-.5.7-1.8-1.2-1.4-2.2-1.6.3h-.7l-2.1-.9-.4-1.1.4-1.4.5-1.1.6-.6.4-.2h1.1c0-.1 2.9-.2 2.9-.2l.6-.2 3.2-2.1.8-1v-.5l-3.8 1.7-1.7.4-2.6-.3-.5-.3v-.5c-.1 0 .7-1.7.7-1.7l.7-.4 1.8-.6 2.3-.6h1.5l1.3-.5.8-.5-5.7.3-1.3-.8v-.5l.4-1-.3-1v-.4l.7-.8 1-.9h.6c0-.1 1.2.2 1.2.2l3.5.3h.7c0-.1-1.1-.8-1.1-.8l-3.3-.7v-.8c-.1 0 0-1.2 0-1.2l.8-1.3 2.5-1.1 1-.2h1l1 .6.4.4.3 1 .2 1.7.6 1.3.4.4 2.8-.9.8.2 1.2.8 1.5 2.3 2 2.3v.5l-.8.8v.3c-.1 0 0 .2 0 .2l2.2.2 1.2 3.6.5.7.5.4h.7l.7-.2 3.1.4Zm0-12.3-1-1.1-.3-1.1.2-.9 1.1-1.1v4.3Zm-35.5 11.6-1.2 1.1h-.9c0-.1-1.1-.9-1.1-.9l-.9-.3-.3-.3v-.3l.7-1.4 2.6-3.6 2.1-1.5 1.6-2.1h.5l.5.2v.4l-.5 2-2.6 6.2-.4.5Zm-11.7-2.8h-.3l-.4-.1v-.4l.9-1.2v-1l.1-.4.3-.2.2.5-.2 1.6-.7 1.2Zm5.7 26.8 1.1-1.4h1.1l.2.5v2.4c.1 0 1.7-2.7 1.7-2.7l.9-.8 1.5-.3h1l1.9.5 1.3.9 1.1 1.1 4.2 5.4 1.4 1.2.5.7.4 1.2v1.2l-.5.7-2 1.4-2.1 1-2.5 2.1-1.7 1-2.2 2-4.2 3.1-.7 1.1-1.2 3.5-.4.8-1.1.8-1.4.2-.4.2v1.2l-.8 3.3-.3 3.5-.8 1.7-1.3.8-2.3.8-.6-.8h-.5l-1.7 2.4-1.7 1-1.2 1.3H144l-.5-.3-.8-1.3-1.2-3.7-1.4-2.5-3.2-2.1-2.3-1.9-2 .2-.3-.2.3-1v-1.2l.8-.6-.2-.4v-.6l.5-.7.6-1.6 1.7-2.3-.2-.8.3-2.9.2-.3 1.5-.9v-1.2l-.6-.3-.3-.5v-1l1-1.7.7-2.6 1.3-1.6.4-1.8 1-1.9-.3-.9-.9-.4-.4-.7-1.6-5.4-.6-1.2v-.3l5.3-1.4 3.6-.4 3.7-1.2h1l.8.2 3.2 2.8 2.6 1.6 1.6.3-.7 1.2v.7Zm41.5 17v40.1h-10.6v1.1l-.6 1h-1v-2.1h-17.8v1.4l1.6 2.4.2.6h-.9l-1.1-1.9-.4-3.1.3-.6 2.5-.9 4.4-1 4-.7h1.8l1.1.4 3 .2 2.4.5 1.6-.4.3-.3h1.7l.6-.4-.4-.5-1.7-1.2-4.4-2.2-2.6-1h-.9l-1.6.2-2.2.7-4.9.5-1.4-.5-2.8.3-2.5-.3-2.9-3.3-.5-1 .5-.9 1.9-1.6 2.1-.7 3.8-1.7 2.3-.6-.7-.6v-.4l.3-.2 1.1-.2 1.1.3h.6l.2-.4v-.2c-.1 0-1.2-.5-1.2-.5l-5.1 1.4h-2.4c0 .1-1.6.7-1.6.7h-.9l-1.1-.6-.2-.4.3-.8 1.1-.5.6-1.3-2.7.3h-.9c0-.1-1.2-.6-1.2-.6l-.5-1.1.2-3 1.5-2.5.9-.5.7-.8v-.7c-.1 0-1.1-1.6-1.1-1.6l.5-1.5 3.5-4.3 1.3-1.2 1.2-.7 1.7-1.4 4.3-2.3 3.9-2.4 1.4.6.4.5.3 1 .3 2.3v1.6l-.2 1.4-1.8 3.8.3.2h.5c0-.1 1.6-1 1.6-1l1.1-.3.3.4h.2l.3-.7v-1.8l.9-1.8.4-.5.6-.2h1.4c0 .1 3 1.6 3 1.6l2.5 1.8.8.8v.6l-.4 1.4-1.1 1.9-1.2 1.1.6.3.4.5 1.5-2.2h.2v1.2h.5c0-.1.8-1.1.8-1.1l.8-1.4 1.1-.9.3-.5 1-.4v-1.4l-1.5-1.5-.6-1.2v-.9c.1 0 2.9.4 2.9.4ZM154.4 279v18.4l17.4 13.8 17.4 13.1h7.8l4.9 6.1 1.3.9 1 .3 29.7 5.4v38.5h-93l-.3-.3h-.6v-.7l-.8-1.7-.2-1.1v-.2l-.8-.2-.8-1.5v-.3l.4-.8-.3-1.4h-1l-.3.8H135c0 .1-.7.6-.7.6l-1.6-.4-.8-.4-.4.7-.7-.5h-.3v.5l-.3.2h-1c0-.1-.6.2-.6.2h-.8l-.4-2.5h-.5l-.2-.2.3-.5v-1l-.2-1.2-.4-.8-.6-.4-1.3-.2-.8-.8-.8-.8-.2-.9-.7-.5-.8-1.5-.7-.8h-.5l-.6.5-.4-.5h-1l-.5-.3v-.6l-.2-.7.2-.7-.2-.5.5-.6-1.3-1v-.7c-.1 0-.6-.4-.6-.4l-.4-1.1v-.9l.5-1.2-.9-.3-.3-.9-1-.8v-.4c.1 0 1-.8 1-.8l.3-.8-.2-.7-.4-.6-.4-.2-.2-.6-.6.2-.3-.2.2-.3.6-.3v-.2l-.7-.3-2-1.6-.7-1.3v-.7l-.8-2-1.1-.6-1 .8h-.9l.3-1.5-.7-.4-.9-1.2-.9-.6-1.1-.3v-.3l.4-.6v-.7l.6-1-.7-.4v-.8c-.1 0-.3-.1-.3-.1l-.5.2-.3-.4v-.2l.8-.6.2-.6.8-1.1.6-1.6-.4-1.2-1.1-1.5v-.3l.9-.7v-.2l-.1-.2h-.5l-.6-.4-.9 1.1-.3.2-.3-.2.2-.7v-.3l-1.3.2-.8.5-.9-.2-.2-1.3.5-.9v-1.1l-.9-.2v-.2l.2-1.2h.4v-1.3l-.5-.9-.2-.9v-.9l-1-1.4v-.7c-.1 0-9.1-.1-9.1-.1l-.2-.8v-1l.5-1.4-.3-1.3v-1l-.2-1-.7-.7-.2-.9v-13.2l1.4.2 1.1.6 2.1 1.6h.4c0 .1.1 0 .1 0l-.9-1.7-.9-.6-1.1-.4v-.8c-.1 0 1.3-.2 1.3-.2v-.2l-.7-.3-.7-.7.9-2.4.3.2.5-.6.9.4.2-.2v-1.2c.1 0 .5-.5.5-.5l1.2-.2 1.5.2h.2c0-.1-.2-1.3-.2-1.3l.2-1.1.2-.2.7.2.7 1.4.8.4v.3l-1.2 3.1 2-1.4 2.3-.8.6-.9.5-1.5.3-.3h1.8l-.3-.4h-.4l.3-.6.7-.2.4.5h.3l1-.6 2.1-2h.5l.4.2h.3l.9-1.9 1.1-.9.7-.2 1.4.7h1l.9-1.3h.2l.6 1.1v.4l-.5 1-3.5 2.7-1.6 1.6-4.7 1.4-.8 1.6-.9 1.1-.6.4-.9.2-.6.7-2.6 4.3.3.9.6.4h.3l-.8-.9v-.3l2.6.4.7-.7v-.2h-.7v-.3c-.1 0-.3-1.1-.3-1.1l.2-.8.7-.7.8-.3 1.9-1.5.6-1v-.4c-.1 0 0-.4 0-.4l1-.4.9.3.2.2v.7l.6-1.1h.4l.2.3v.8c.1 0 .2 1.9.2 1.9l.4-1.3 1.5-3 .7-1.1 1-.8 2.3-1.3 2-.7.9-1-.2 1.1-.9.5v.4l.2 1 .2.2.9-.6 2-2.6.5-1.8.8-.7 1.4-.8.3-.5-1.2-.4-.3-.5.2-.4-.8-.7.2-1.3.6-.6 1 .7 2.2 2.8 1.3 2.9.7 2.6.6 1.5 2.3 3.2 1.4 1.1.9.3h.6l.9-.9v-.6l-.8-1.8v-.4l.6-.9v-1.2l.6.1 1.3-2.1-.9-.5 1-.7.2-.5.6-.4.5.5v2.4c-.1 0 .2 1.9.2 1.9l.2.4 1 .5v.5l-1.5 2.8.2.6.4.2h1.3l2.2-.2.7-1.3.6-.5.6-3 .5-.4h.7c0 .1 3 0 3 0l2.3.5 2.4 1.4 1.2 1.2Z"/><path id="CA-NU" d="m372.5 14.7 3.5.6 1.1-.2 1.3 1.5.8.2 1.3-.3.9.4 3.5.3.7.6v.7l-.8 1.5-1 1.5-6.5 4.8-.5.8 1.3.2 1.9-.2 1.4-.5 1.7-1.6h.6l1.1-.9 2.1-2.2 1.7-1.2.8.5.6.8h.4l.8-3 .6-.5h.3l.5.9 1.2 3.3h.3l1.3-1.5.6-.2 1.5.6.6.7v.7c.1 0-.6 2-.6 2l.2.6.9 1.4 1.3 2.9V31l-.7 2.2v.5l3.3-2.3 3.3 1 .9.7.4.8.8 3.2-.3 1.9-1.5 3-1.5 2.3-.9 2.1-1.4 1.1-4.7 4.9-2.3 1.6-1.3 1.5-.6.3-2.8-.3-.7.8-.4 1.4-.9.7-1.3.5-2.6.4-1.2 3.8-7.6 5.5v.9c-.1 0 .6.4.6.4l1-.4 11-6.6 2.1-.4 2 .5-.2 1.6-2.8 4.4-3.5 3.9-1.8 2.9-4.5 4.9-3.6 4.8-1.4 2.4-1.9 4.2-.6 1-.8.4-.9-.2-.8-.6-2.4-3.6 2.1 6.7-.2 1.1-3.6 1.2-1.6 1-.8.2-.6-.2h-.6c0 .1-.5.5-.5.5v.4l.5.5 1.4.4 3.2-1.3h.5l.8.7v.6l-.8 1.8-2.5 2.1h.3c0 .1.7.9.7.9v.7l-1.2 2.1-2.5 1.4-1.1.3-.9-.2-4.3-3.2-1.5-.5-1.4-.8h-1.1c0 .1-1.1 1.1-1.1 1.1l.5.5 2.1.9 1.7.2.7.3 1 2.7v1.1c.1 0-.3 1.8-.3 1.8l-.3.4-.4.2h-1.7c0-.1-.6.1-.6.1l-.7.6-.9.3H350c0-.1-2 .8-2 .8l-1 .2-1.1-.4-1.2-1-1.3-.5-2.2-.4.2.6.8.2 1.6 1.5.8 2 .7.3 1.5 1.6 1.1.3 1.1.6 1.6-.7h1.1c0 .1-.2 4.1-.2 4.1l-.5.4h-2.5l-1.2-.6-.5-.6-1.2-.7-1 .4h-1l-.6.3h-1l-2.7.7h-1.4l-1-.4h-1.2c0-.1-1.4 0-1.4 0v.5l.7.1.9.7.8 1.1.7.5 1.6-.8 2.9-.9h1.3c0-.1 1.1.2 1.1.2l1.3 1.1.7 1.5 1.7.2 1.3.5 2 2.2.6.2.2.6-.4 1.4v.8l-1.5 1.6-2.2.5-2.4-.2-1.7.2-.2.2 1.2.4 2.8 1.9 1.1 1 .2.6-1.5 2.2-1.3 4.4-.4.3h-1.6l-1.5 1.1-1.1.2-2.1-.4h-2.4l-.3 2.1.2 4.6v1.9c-.1 0-1 2.1-1 2.1l-.9.9-1.6.7h-1.1l-3.3.6h-1.6l-1.2-.3-1.3-.9-2.1-2.4-1.2-.9v.5l.7 1.4 1 1.3v.4l-1 .6-1 .3h-1.2v.2l1 1.3.4.2.9-.2 1.1-.8.7-.2 1.4.2.5.3 1.9 1.9 1.3-.9h1.8l.7.7.3 2.5-.2.9.4.8 1 .8.8.2 1.4-1.6.4-.3h.3l1.2 2.4v1.8l-.5 2.1-.7 1.3-2.8 2.2-1.5 1.7-1 .8-1.9 1.1-1 .2-2.1 1.1h-.5l-.7-.1v-.6c-.1 0 .5-2.8.5-2.8v-.7l-.6-1.1-.8-.8-.8.2-.5.3h-.5l-.5-.1-.5-.5-.9-2-.3-.3h-.4l-.4-.2-.9-1.3 1.1 2.7.2 1.1v.9c-.1 0-5 .5-5 .5l-2.1-.3-.4-.8-1-3.3-.2 5.8-3.7.9-.9-.2-1.4-.6-1.9-1.6-.8-1-.7-1.7-.5 1.2-.5 2.5-2.9-1.3-.6-2.5v3.6l-2.6-.5h-1.2c0 .1-.4-3.1-.4-3.1v-3.6l-.6 2.3.3 4.2-1.1-.7-2.4-.3-.9-.3.3-6.2 3.1-3.1.9-1.5.7-.6 1.1-.4 1.4-.2.9.2 1.1-.2 1.3-.6.9-.2.2-.2-1.6-2.8-1.1-.3-.7-.9-1.5-4-.7-2.4.3-1.3 1.1-1 1.1-.7 1.1-.4h.9l2.7 1.7.9 1.3 1.9 4.7.6.9 2.7 1.7.9.3 3.3-.6 1.1-.5.5-.6.6-1.4 1-1.4 1.5-2.9.8-2.4.5-2.9-.5.6-3.1 6.9-1.5 1.8-.6.3h-1l-1.4-.9-1.6 1.2-1-.3-.9-.9v-4.1l-1.1-3.3 1.2-1.7 1-1.1 1.8-2.8h.4l1.3.4-1.4-1.6-1.5.2.5-6.1-1 4.6-1.7 3.5-.7.7-2.7.6.7-2.2.6-3.3-.6 1.2-1.5 1.8-1.1 1-.9.5h-1.8c0-.1-.9-1-.9-1l.3-2.3v-2.8l2.3-5.3.6-2.4 2.4-1.1 2.3-.4 2-1.3 1-.2.9.6 3.7 1 2.7 1.5 1.2-1.6h2.3l1.2-.4 1.6-1.9v-.6h-.5l-.6.3-.9.8-.9.5h-.9l-1.8-.8h-3.1c0-.1-1.6-.5-1.6-.5l-.7-.3-.4-.5-.7-1.7.2-.7.6-.4h.5l1.8 1.3h1.1c0 .1-.4-.7-.4-.7l-2.3-3.1-3.8-9-.8-1.2-.8-.6-2.4-.8-.5-.5-1.2-2.5-.3-4.2-.5-2.6.5-3.4.8-1.5 4.9 1.2 2.1-.2 2.6.4 1.4.8 1.6 2 1.4 2.3 1.4 1.5 1.3 2.1 1.4 3 1.5 2.3 1 .8 1.8.9 1.6.3h.8c0-.1.9-.8.9-.8l.6-.8-.7-.2h-1.8l-1.3-.3-1.5-2.3-2.1-4.1-2-2.7-1.5-2.7-1.2-2.6v-1.1c-.1 0 .8-.8.8-.8l1.1-.6 6.6-1.8 4-2.1 1.6-2.5.2-.6 5.3-3.6 3.7-1.3 1.4-.2 1.3-.6v-.4l-1.1-.5-1.2-.2H337l-2.3-.4-.7-.8.4-2.5.7-1.9.8-1.5 3.2-4.3 2.2-1.8.6-1.3-4.6 2.8-1.6 2-1.6 3-.8.9-.6-.2-.5.3-.5.8-.4 1.4-.6 3.5-.9 1.8-1.6 2.1-3.7 2.9-1.2.7h-1.1c0 .1-3.5 1.7-3.5 1.7h-1l-1.2-.4.5-1.4 1.8-2.6.5-1.2-1.2.3-1.2.7-2.6.6-1 1.1-1 1.9-.8 1.2-.6.5-.8.3H307c0 .1-.7 0-.7 0l-1.8-1.4-1.6.5h-.7l-1.2-1.1-.4-.7v-.9l.7-1.7.8-1.6 2.6-3.6 1.7-1.7 2.4-1.5 5.7-1.7.3-1.2-5.7 1.4-4.9 1.7-.8.6-1.1 1.7-4.7 7.5-1.6.4-1.2-.5-4.5-4.1-.9-2.3.4-.7 3.2-1.6 4.4.3 2-.3 1.9-1 2.8-2.4 3.1-3.4.6-1.1-1.1-.2-.8.3-2 1.2-3.2 3.3-2.8 1.2-6.9.6-2.2.9-1-.2-.7-.9-.8-1.6v-1.3c.1 0 1.8-1.5 1.8-1.5l1.3-.4.2-.3-1.8-1.5-.2-.8 1.1-1.7 2.3-2.5 1.1-.8 2.1-.5 2.2.3v-.5l-2.1-1-1.6-.2-2.1.7-5.6 4h-.5c0-.1-.8-.8-.8-.8l.2-1 3-4.3v-.7h-2.1l-.6-.2-.6-.5-.9.5-1.1 1.4-.8.6-.5-.2-1.2-1.7.2-1.4 1.8-3.1 1.2-1.2 1.9-1.5 1.4-.5h2.3l1.1-.7 2.2-3.1 1.3-1.3 2.1-1.1 1.8.4 1 1 .8 1.7.9 1.3v-1l.8-1.3.9-.5 1.1.2.9.6 1.2 1.5 1 .7h.5l.6-.9h1.5l-.5-1.3-.6-.6-5.4-4.4v-1c-.1 0 1.7-.9 1.7-.9l1.1-1.1.5-.3 2.2-3.6 1.6-1.4.6.4.8 1.3.8.8 2.3.7 1 .8 2.5 5.8 1 1.5.6.5 1.2.3v-.8c.1 0-1.3-2-1.3-2l-.4-1.2.2-1 .3-.5h.4l1.1.9 2.9 3.1 4.4 3.6 1.7.8 2.9 3.8h.2l-.9-2.5-2.1-2.9-5.7-5.1-2.3-2.7-1.1-1.8-.8-1.9v-1l.8-1.2 1-1 1.3-.4.2-.4-1.2-1.5-.7-1.3v-.9l1.4-.7.9.2 1.7 1.6 1.4.8.2-.5-1.4-4.3v-1c-.1 0 0-.6 0-.6l.5-.6 1.5.3 2.5 2.1 4.4 1.1 1.2-.2-.2-.5-1.8-1.3-1.9-1.8-.8-1.1-1.3-2.7v-.6l1.1-.9 3 .2 2.8 1.5 2.4-.5 1.5.4.6.4 1.1 1.6 3.4 5.6 1.2 4 .6.5 1.1-1.2.8-1.2-.3-1.2-1.9-2.7-1.4-3.1-2.1-3.6-.9-3.1 5.9-1.4 5.7 1.2.9.8 2.1 4.7 1.8 2.7 2.6 1.7-.5-1.1-2-3-.9-2.1.2-2.5.3-.8 2.2-2.9 3.2-.9.4.2 2.5 4.4 1.2 1.8.8.7v-.3l-1.1-2-.9-1.1v-.7l1.4-2.2.9-.5 3.8-.6.4.2.4.6.9 2.4.3.3Zm-95.4 58.5.6 2.3 2.1 5.4.9 1.9 1.6 2.4.2.9v1.6l.4.5 1.4.7 1.5 1.3h.3l.5-.8.6-.2.8.2.4.5.4 1.8-.3.9.2 1.2-.3 1.8v.7l.8 1.6.7.8 1.4.9h.9l.6.5-.2-1.4-.5-1.5-1-.8-.2-2.3v-1l.6-.8.4-.3h1.3l.7.3 1.2 1.1.2 4.7-1 1.3-.2.9 2.5 1.3h.5l1 3.7-.7 5.6-.6 1.9.2.2 1.4-.5 1.2-1.3 1.3.3.4.3.2.4.7 3 .2-.2.6-2 .5-1 2.6 6.7v1l-1 1.7-3.4 2.5-1.5 1.4-1.1 1.4-.8-.2-.2.2-.5 2.4-2.3 4.1-1-.7-.3-1-.2-3.1.6-3.4-.9 1.1-.5 1.4v4.1l-.1 1.1-.3.5v.4c.1 0 1.1.8 1.1.8v1.7l-.2.9-.5.4-.6-.4-1.3-2.3h-.5c0 .1-.1.4-.1.4l.5 2.6v1.5l-.5 3.2-.4 1.2h-.6l-.5-.5-4-8.4-.2 1.2 2 5.7.4 1.6v1l-1.5-1.6-.7-1.1-.5-.5-.7-.3h-.7l-.7.1v.3c-.1 0 .9 1.3.9 1.3l.3 1.3-.3.4-1 .3-1.3-.2-2.1-.6-2.1-1-1.9-1.6-1.4-1.6-.6-.9-.2-.6.5-.6 1.8-.7 1.8-.5-.3-.4-3.3-.9-1.1-.2-.6.2h-.7c0-.1-.5-.9-.5-.9l-1-2.4v-.4l.3-.2 1.5.2h.2c0-.1-.8-.9-.8-.9l-2.4-1.4-.9-1.3-.2-.5v-1l.9-1 2.8-2.3 1-.4h1l.7-.7.6-2.2 2.9-.8 2.2-1 .2-.3-1.7.2-2.4-.2-1-1.5-.7-.3h-.8l-.9.5-1.5 1.4-.7.3-1.6 1.5h-.5c0-.1-.3-.6-.3-.6l.3-1 .4-.7v-.2l-.7-.1h-.7l-.5.3-1.9 1.3-1.1 1-.9-1.5-1.4-.8-.3-.6.3-2.5.4-.5 1.1-.4 3.3-2.3.5-1.6-.8.3-1.7 1.2-1.4.6H261l-.8-.2-.5-.3-.6-.7-2-3.4-.5-1.7-.2-2.6-.6-2.8 4.2 1.7 1.7.3h3.2c0 .1.1 0 .1 0v-2.1c.1 0 1.5-1.3 1.5-1.3l-1.4-.2-2.6 1.7h-.9l-1-2.4-1.1.4-.5-.2-1.2-1.1-.4-1.2.3-1 .9-.7h.4l1.1.4h.8l-2.6-4.8v-3.6l1-.8h.9c0-.1.9.8.9.8h1.2c0 .1.9 1.2.9 1.2l.6 2h.7l1.1.3h2.4l-.4-.7-.7-.6-1.7-.8-.8-2.9-1.7-1.5-1.4-.8v-.7l1-3.7 1.2-1.3 2 .5 1.3-.7 1.7-1.3 1.6.6h.4l.2-.5.2-1.5-.7-1.5h-2.1c0-.1-.9-.4-.9-.4l-.4-.4-.2-2.1.2-.7.5-.3h1.9l1.2-.4 1.3.5 2.7 1.9.9 1 .9 1.6.5 1.4Zm-29.5 29.9v4.7l-.2 1.2-.4.3-1.2-.9-.4-.5v-1.3c-.1 0-.9-1.1-.9-1.1l-1.5.2h-.6c0-.1-.2-.5-.2-.5l-.3-2.5.3-2.3 1.1-1.2h.3l1.3.3h1.2l.6.4.5.7zm-19.7 15.8 1 .5 1.2 1.5 1.1 3.1v1.5l-.3 1.3.6.6v1.4l.7-1.2v-1.7c.1 0 1.9-1.5 1.9-1.5l.4-.2.7.2 1.7 2.2.7.2.5.8-.5 2.5v.5l1 .4 2.1-.8 1.8 2 1 2.4.7.8v.4c.1 0-.3 1.5-.3 1.5l-.7 1.2.3 1v1.9l.9.5 1.8 3.4.3.9.2 1.5-.7 2.9-2.1.7-1.3.6-1.4-.8-1.3-1.2-.4-.8-.4-1.3-.2-1.9-.6-.9-.5-1.3h-1c0-.1-2.3-1.5-2.3-1.5l-1-.3h-1l-1.4.6-.5-.6-.2-.7.2-1.3-4 1.1-1.1 1.2-1.6-.2-.8-.5-1.1-1.2-.9-2.5v-1.1l.3-.7.4-.4h.4c0-.1 2.2.7 2.2.7l1.9.4.8-.4.4-1.2-.4-.6-1.8-.3.4-.6 1.6-.6.8-1-.6-.7h-2.1c0 .1-.8-.3-.8-.3v-.7c.1 0 1.3-2 1.3-2v-.4l-1.2-1.6-1 .8-1.5 2.9-.3.4h-.3l-.3-.5v-.6l1-3v-.8l-.7-.5-1.7.4h-1l-.1-.6v-2.3l.6-3.1.2-.5 2.3.3 3.8-.9h1.1l1.2.8Zm30.8 17.4 1 .6 1.7-.2 2.3 1.8.5.8v1c.1 0-1.5 1.7-1.5 1.7l-.3.8 1 1 .5.9.2 1.3-.7 1.7-.5.5h-1l-.9.8-1.4.8-2 .3-1.5 1.2h-.7c0 .1-.3-1-.3-1l.2-1-.3-.5-1.4-1-.8-1.4-.2-.8 1.8-.3.8-.3.4-.7-1.6-1.1-2.1-.6v-.7l-1-1.3v-1.3l-.9-.9-.3-1v-.9l1.1-.9-1-2.9-.2-1.8.5-.7 2.6.2.9.3 1.9 1.4 1.5.7.5.5.9 1.5v1l.3.4Zm-58.8 4.4v-7.8l.8.8.7 1.3.6.2.2.3.4 1.6v1.8c.1 0-.1 1.5-.1 1.5l-.4.4-1 .3-1.3-.4Zm29.8 3.7-.5.4-.6-.2v-.9l.6-1.3.9-.5.4 1.1-.9 1.5Zm-29.8 4.5v-3.3l1.5.2.2.5-.7 2zm35.4 4.7-.6.2h-1.1l-1.3-.8-.3-.8V150l2.3-.4 1.2.2 1.9 1.3.6 1 .2.9h-1.7c0 .1-.8.3-.8.3l-.5.4Zm26.4-2 1.1.8 1.2-.4h1.2l2.8.3 1.8-.2 1.2.6.7 1.6-.9.6-.9 3.2h-.8l-.4.3-2.4-.4-6.7-.2-1.2-2.2v-.7l.3-1.4 2.2-1.6.8-.2Zm-38.6 12.8-.7.3-2.1-1.1-1.5-3.3-.8-3.4-.4-.8v-1.2c-.1 0-.9-2-.9-2v-.3c.1 0 .9-.3.9-.3l1.2.4 1.3 1.9 1.2 2.7.2 1.7h.8c0 .1 1 1.6 1 1.6l.4 1.7-.2 1.7-.3.4Zm62.7-2.4-1.1 1.1h-.6l-3.3-2.3-.7-1.1-.2-1.8.2-2.5.6-.7.8-.2 1.8.5 1.1.7 1.4 2 .5 1v1.2c.1 0 0 1.3 0 1.3zm-19 6.8.8.2.7-.3h.6l.9.8.8 1.2.8.8v1.9c.1 0-1.3 4.1-1.3 4.1l2.3-3.2 1.2.3 1.8-.2 2.2-1.1 1-.2h1l.8.4 1.6 1.5.6.7.3.9-.3.6-3.3-.8-.2.2v.8c.1 0 .5.2.5.2l2 .2 6.7 2.5.3.8v.3l-.8.9-3.9.6-2.2-.5-1.8-.8-.6.2.5 1.1 1.1.3.9.6.4.5 2 .4.9 1.5h.5l.5.8.4 1.2.2.2.6-.2 1 1.1.3.6-.2 1.1-.4.9-1.1 1.1v.3l1.2-.1h.2c0 .1 1.5 2 1.5 2h.2l.1-.2v-.7c.1 0 0-2.1 0-2.1l.3-.4.6-.2.3.2 1.6 2.3 2-1.1.8 1.5.7-1.8.5-.5 1.9 2.2 1.1.5 1.3 1 1.2.2.2-.8-.7-1 .4-.5 1.7-.9h.9c0 .1 1.6-1.1 1.6-1.1h1.6c0-.1 2.5-2.3 2.5-2.3l.4-.7h.8c0 .1 2.2 1.2 2.2 1.2h.6l3.2-1.4h.9l3.8 1.3.5.4v1.1l.6.4h2l.9.2.9 1.1v.3l-.7.9v.2c.1 0 2.3.3 2.3.3l.3.2.7 2.6v.6l-.5 1-1.5 1.3-1.6 1.1v.3c-.1 0 .4.5.4.5l.5.2 2-.5.6.5.5 1.2-.5.6-1.9.8-1.1-1-.4-.2h-.2l.8 1.8-.3.8v1.5l-.3 1.2-4 .2-1.6 1-.9.4h-.6l-2-.9H316l-.8-.5-.5-1-.3-1v-2l-.4-.2-.8-.9-.5-.3v.9l.7.8v.6l-.1 1.5-.6 1.4-.4.3h-1.1l-1.6.8h-.8c0 .1-1 0-1 0l-.6-.4-.8-1h-.2l-.1 1.2-.2.2h-.3l-.5-.4-.4-.9h-.1l-.3 1.1-1.1.6h-.6l-.7-.7-1 .4-1.7-.7.3 1.1-.4.2-2.5-.4-1 .5-3.5-.4-.3-.2-.2-1 .9-3.5-.8-.8-.6.5-.4 1.4-.3.4-.4-1.6h-.2l-.3.7-.2.2h-.3v1.6l-.3.5-1.3.9h-1.9l-1.5-.8h-.8l-1-1.4-.8-.3.4-1.7-1.1 1.3v.4c-.1 0 0 1 0 1l-.9-.3-.9.2-.5-.7-.9-.7-.4-.8-.9-4.2v-.3l.5-.5v-.4l-1.2-1.8-.3-1.1V196l1.4-4.3-.5-3.3-2.2-4.7-1.6-4.3-.4-.2h-.5c0 .1-1.1 1-1.1 1l-.4.7-3.1-.2-.9-.3h-.6l-1.1.7H263c0-.1-.7-1.9-.7-1.9l-1.7-1-.5-.5-.3-.7v-.5c.1 0 1.1-.4 1.1-.4l.6-.9-.9.3h-.4l-2.8-2.5-1-.7v-1.2l.9.7h.4l.6-.2.2-.4-1.6-1.7-.2-.5.2-1.1.3-.3 1.3-.4 1.3-.9.9-.3h.9l2.2.9 3.5 2Zm19.5 7.5-.2.2h-.6c0-.1-.2.1-.2.1l-.8-.7-1.7-3.9v-1c.1 0 .6-.4.6-.4l1.2-.5h.8l1.1 1.8v.7l-.5 1.3v1.3l.4 1Zm-86.4 28.5v-11.5l3.9.6h.3c0-.1.2-.6.2-.6l.2-1.4-.2-1.3-3.6-2.8-.3-1.2 1.8-1.6v-1.6c.1 0-.1-.6-.1-.6l-1-1.2-.8-.2-.4-.4v-4.3l.6-.8 2.2-4.4 1-1 1.1-.2 1.2 1.2h.3l.1.4-.2 1.1-.5 1.3v.4l.3.9.2 1.8 1.4 2 .3 1.7-1.1 2.1v.9l.9.2.6-.2h.7c0 .1.5 1.2.5 1.2v1c-.1 0-1.3 2.4-1.3 2.4h.3c0 .1.1 0 .1 0l.9-1.3.7-.4h.5l.9.2.7.8.6 2.9v-1.8l1-.6-.6-.9v-1.4c-.1 0 .6-1.3.6-1.3l.6-.5h.6c0-.1 2.1.8 2.1.8l1.2 1.1.6 3.5-.2 2-.7 2.2v1.5c-.1 0-.8 3.7-.8 3.7l-1 1.7-2.1 1.2-1.6 1.2-.8.2-1.3-.4-1.5-.8-.9.2-.9.6h-1.1l-1.2-.7.5-.5v-.3c-.1 0-.8-.4-.8-.4l-2.9 3-2.1.5Zm37.4-29.9h-1.1l-.5-.1v-.3l.4-.4 1.5-.7.9-1.3.3-.2 1.1-.2 1.5.3-2 1.6zm15 2.1-.2 2.4.9 2.8v1.3l-.4 1-.2 1.3.2 2.2-.4.8-.8.7v.4c.1 0 2.1 1.1 2.1 1.1v2.1l.3 2.2h-.1l-1.2-1.5-1 1.6v2.6c.1 0 .7 1.2.7 1.2v1.1h-.6l-.5-.5-.3-.8-.2.4v.4l.4.7.2.8-.7.5h-.7l-1.7.4-.6-.2h-1.4l-.7-.5h-.4l-.9 1.1-2.6-.4-.5-1-.5-2v-.5l1.4-.3v-.2l-2.5-1.7v-1l1.9-.9 1.3-1.8.8-.7v-.4l.8-.4 1.6-.2v-.5l-3 .3-4.2 1-1.3.5-1.1-.3-4.8 1.6-.5-.5-.4-1 .3-.7 1.3-1.3.7-1.1v-.6l.5-1.1.9-.2 1.5.9.8.9.7.4h.6l.6-.7-1.2.3-.7-1.1-.4-1.3.3-1.3-1.2-.3-.5-.6-.2-.7.4-1.2 1-1.2v-.3h-1.6l-.3-.2-.6-.8v-.8c.1 0 1.2-1.9 1.2-1.9l.3-.2h.5l1.1.5 1.2 1.4.4 1.8 4 5.1.4.4.7.3.7-.3v-.3l-1.2-1.2-.6-1.6v-.3h1.4c0 .1 1.1-.1 1.1-.1l-1.2-.4-.8-.5h-.8l-1-.8.2-.5 1.3-.4.3-.4-.8-.8-2-.7-.7-.7-.3-.7.3-.9 1.1-1.1.8-.5 1.4-.4h1.1l.6.2 1.4 1.9.7 1.2 1.2-.2-.6-2.7 1.3-1.5.8.5 1.2 1.7 1.8 1 .4.4zm-26.9-2.1h.2l1.1-.3.6 1.1 2.3 1.6v.3l-.1.5-1 1-.7.3H224l-.9-3.7v-1.2l.3-.4 1.3-.7h.6l.3.2v.3c.1 0-.1 1-.1 1Zm7.6 10.2.9 1.3-1.3.8-.4.5-.7 1.5-1.5.3h-1.6l.3-1 .9-1.7-.7-.7-2.4 1.2-.9-.7.8-1.8-1.9-.2-.7-1.1.2-1.3 5.3-2.3h1.6l.6.5.4 3.3.3.2.8 1.3Zm98.7 1.6v1h-.3l-1 .7h-.8l-.4-.2-.3-.7.6-1.3 2.3-3.3.7.7-.4 1.4-.5.7v1Zm-65.9 3h-.4l-.5-.4-.6-2.8.3-.4h.4l.9-.7.3.4.7 3.2v.4c-.1 0-1 .3-1 .3Zm-6.6 4.1-.3.6h-.3l-.5-.5-.5.2-1.1 1.9-.6.2-.2-.2-.5-1.5.2-.7 2-1.3.4-.4.3-.8.9.7.8 1-.5.7Zm10.8 8.1.3 1.2v1.6l-.4 3-1.8.4h-2.3c0 .1-.7 0-.7 0l-.5-.3-2.1-2.2-2.5-.6-1-1.7-.4-.3-.4.5-.5-1.3h-.7c0 .1-.2-.5-.2-.5v-1.1c.1 0 .9-1.9.9-1.9l.9-.5.3-1v-1l.7-1.4 1.2-1.4 2.6-1.6h.7c0-.1 1 0 1 0l.9.5 2.2 2.9.7 1.2 1.1 3.5-.2 1.8Zm-45.1-.1h-.8l-1.4-.4-1.1-1.4 1-3.4.7-1.1.5-.3h1.2l1 1 .4 2 .4 1.1v.8l-.7 1-1.3.7Zm37.6 8.6h-.6l-1.4-.7-.3-.5.8-.9h.6l.7.8.3.7v.5Zm-8.7-.4-1.3 1-.4-.7 1.4-1.9.5.8-.3.8Zm17.8 5.8 2.5 1.2 1.5 1.7 2.5-.9 2.3.3 2 .9.7.7.4.6v.7c-.1 0-.9 2.1-.9 2.1l-.8 1.6-.7.8-1.3 3.3-1.3 1 .5.6v.7c-.1 0-1.5 3.4-1.5 3.4l-1.4 2.3-.5.4h-.7c0 .1-4-1.1-4-1.1h-1l-2.7.6 1.9 1.3.8 1.6.2.8v1.1l-1.4 2.4-.7 3.1-.5.4-1.5-.6-2.2.4-.8-.2v-2.1c.1 0-.2-4.5-.2-4.5l-1.3-4-.2-1.5v-12c-.1 0 .1-.5.1-.5l.8-.4 1.7 1.1.8.4h.5l-.9-.8-.7-1.4-.3-1.2v-1.6l.7-.9 1-.7 1.1-.4 2.3-.3.7.2 1-.8.6-.2 1 .3Zm-21.7 4.5-1.2.3h-.6c0-.1-.5.5-.5.5h-.7l-1.4-.7-.5-.5.3-.5 1.5-.6.4-.6.4-.2 1-.2 2.2-1.1h1.5l.2.5-.4 1-1.7 1.8zm-7.4-1.2 3.6 3.3 4.3-1.3 1.4-.9h1.1c0-.1 1.5.5 1.5.5l.5.8.4 1.3v.6l-.6 1.1-1 .4-.4.6-.5-.2v.5c-.1 0 0 .5 0 .5l.5-.3h.5c0 .1.5 1 .5 1l-.2.5-2.2 1.5-2.5 3.5-.3.6v.8h.2l.8-.8 1-.6h1.3c0 .1.7.6.7.6l.6.8v.3c.1 0-.2.8-.2.8l.6.4.7 1.1v.7l-.3 1.1v.2c.1 0 1.2-.9 1.2-.9l.8-.4.6.2.4 2.1v1.7c-.1 0-.8 1.3-.8 1.3l-.7.3.6.7.3.9v.8c-.1 0-.7 1.4-.7 1.4l.6 1.1v1.8l-1.4.6-1.2 1.6-1 .5h-.5l-2.6-.4-.4-.7-.2-1.9-.6 1.1 1 2.9v1.6c.1 0-.8 1.2-.8 1.2l-1.1.6-.5-.2-.9-.7h-.8l-.2-.2-.8-2.3-1.4-2.7-2.5-3.4-1.1-2.1-.5-.5-1.2-.3-.5-1-.5-.5h-.5l-.8.5-1-.5-1.1-2.4-1.8-1.5-1.3-2.4v-1.1l.7-2 .9-1.2.6-.2 1.2.3.4.6.3 1.1.9.9.8 2 .3.4h.8c0 .1 2.6-.7 2.6-.7l.2-.5.2-2.5.7 1.1h.2c0 .1.3-.1.3-.1v-.8c.1 0-.5-1.9-.5-1.9l-.4-.5h-.5c0 .1-.4-.1-.4-.1v-.9l.4-.8.4-.2.5.2.7.6h.4c0 .1.6 0 .6 0l-.8-.4-1.1-1.5-.5-.3-.9.9-1.3.4-2.4-2.3-.3-.8.3-.7.6-.6 1.5-.4.5.4 1.4 1.8-.4-1.9-.7-.6-.7-1.2v-1.5l.2-.2 1.8-.6 1.3.6h.8l.3-.7v-.2c-.1 0-1 .2-1 .2l-.3-.7.4-.6.6-.3Zm57.1 41.6.2.3 1-.4 2.9-1.8h2.3l.4.2-.3.8v.3l.8.7.3-1.2.5-4.6v-2l-.1-.6-.6-.4h-1.2l-.9-.5-1.1-2.3-1.3-1.6.2-.5 1.3-1.1.6-1.6.4-.3 1.3.2 3.1 2.4-.3-.7-1.3-1.3-.8-1.7v-.3c.1 0 .8-.3.8-.3v-.4l-.9-.4-1.3.3-.8-.5-1.2-2.6v-1.7c-.1 0 0-1.4 0-1.4l1-1.8h.5c0-.1 1.2.4 1.2.4l3.1 1.8v-.6l-3.6-2.4-1.2-.6-.3-.9 1.9-3.4 1.7-.8.9-1h1.4l1.3.6-.6-1.4v-.3l.8-.7 1.4-.8 1.7-.7.8-.6.8-.2h1.9c0-.1 1.1 0 1.1 0l1.5.5.9.9.7 2.3.4 2.5.5 1 .9.6.6.6.3.7v2.8l.7 1.6.7.7-.2.8-3.9 5.7v.5l2-2.5h.6l-.4 1.7-1 1.8 1.1 1.5-.2.2h-.5l-.3.2v2.3l.5-.3 1.8-3 .9-.8h.3l1 .4-1-2.2.3-.9.9-.7h.2c0 .1.5 1.6.5 1.6l.3.2.7-.3.4-.8 1.4 1.7v3.2l1 1.5.8.7-.2-.7-.4-.5-.6-1.8.2-2.3.5-1.2 1.1 1h1.3l1.7 1.4h.9v-.5l-.7-.3-2.5-1.7-.7-1.1v-.5c-.1 0 .1-1.4.1-1.4l1.8-1.7 1.1-.5 2.1-.2 1.5.2.8.4 2.2 1.8.4.2 1.1-.2h.6l1.7 1.4.7 1.5.3 1.5v.6l-1.5 2.6-.6.4-1.6 4 .4-.4.9-2.4 1.9-2 1-.5h.9l1.4.5.5.4.2 1.4-.4 1.3-2.5 1.6-1.3.2v.2l1 .3h1.1c0-.1-.5 1.3-.5 1.3l-.2.9v1.3c.1 0-.7 2.3-.7 2.3l.2.2 1-1.6.7-3.3.5-.9.4-.3h1.1c0-.1.6-1 .6-1l.5-.3.7.3v.4l-.7 1.6-1.4 2.6.6-.3 1.5-2.2.4.8.6.6.4 1.4.9 1.2v-.9l-.6-1.8v-.7c.1 0 1.7-1.9 1.7-1.9l1.4 1h.9l2.1.6 1.8 1.3.5.8.6 1.7v.5c-.1 0-.9 1.2-.9 1.2l-.8.8-1.1-.2h-.3c0 .1-1.5 2.2-1.5 2.2l-1.4 1.4h1.4l1.3-2.4 1.1-.4 1.6.9h.8l.6-1 .9-.8.7.7v2c.1 0-.4 1.4-.4 1.4l-1.1 1.5-.7.6-1.7.8-.6 1-.7.7.5.5h.2l.7-1.4.6-.6h.2l.4.7v1l-.7 3.8.5-1 1.4-4.7.6-.8 1.2-1.2 2-1.2.6-.2h.7c0 .1.4.8.4.8h1.7l3.6 2.5.4.9v.5l-.5.8-.7.4-.9.9-2.5.8-1.1.8-1.5 1.5v.4l.6.2.5-.2.7-1 .6-.4 2.4-.6h.6l.2.8-1.2 2.1.5.3h.7c0 .1 1.1-1.4 1.1-1.4h.4l.7-.6v-.2l-.4-.4v-.2l.5-1.3.4-.4h.3l.9.4 2.3 3.5.6 2.5-.2.8h-.5c0 .1-2-.6-2-.6h-.9l-.7.6-.4.8-.4.2h-1.3l-.7.3-1.7.9v.4h.7l1.2-.6 1.2-.2 1.9 1.2.6.2.8-.2 2.1.2.8.5 1.4 1.3.2 1.4v.3c-.1 0-.5.2-.5.2l-2.3-.4-.6.2-1.2-.4-.7-.6-1.1.5-.9-.4-.9.3-1.8 1.3.2.2 2.5-1.1h.5l2 1.3.3.3v1.2l-.6 1.8-1.9-.7h-.5l-1.2.4-2.1-.7h-.5l2 1.3 2.3.3.5.3.2.3v.8l.5.8.4.3 1.2-.3.9.6 1.1.4h2.1c0 .1-.2.4-.2.4l-1 .6-.2.6.9 1.3-.4 1.7.8-.7.3 1.1.2-.9V295c-.1 0 .3-.5.3-.5l1.4-.3-.3 2.7-.6 1.5-.5.5.4.3h.2l.2-.2.5-1.2 1-1.2h.2l-.1 1.3.5.4.7-.7.8.2v2.3c-.1 0 .5 1 .5 1l-.2-1.8v-.5c.1 0 1.6-1.7 1.6-1.7l.4-.2h.2c0 .1.4.6.4.6l-.8 1.1-.2.8.2.4h.8l.8-.6.5.3 1.6 2.1.6-.4.7 1-1 .8.3 1.6h-2.9l.5.4.9.2v.5h2.3v-.6l1-.7 1.2.5 1.2 1.1-.5.7-.4 1.6-1.9 2.2h.3l2.9-1.4.8.2.2-.2 1.4.5 1.1-1.5.7.3 2.9 4v.4l-1 .5-.8-.9-.8-.4h-.5l-.5.4 2 1.5.3 1v.4l-1.2.6h-.4l-.9-.3-.9-.8h-.8l.6 1-.5.9 1.2.8.9.8v.3c.1 0-.9.3-.9.3l-1.5-.3v.2c-.1 0 .6.7.6.7l.3 1.2-.4.3-.5.8-.2.9h-.7l-.6.3-.9-.4-1.2-2 .2 1.5-1 .4c0 .1 1.3.6 1.3.6v4c-.1 0-.3 1.1-.3 1.1l-.9 1.9-.6-.6-.7-1.2h-.7c0-.1-.4.4-.4.4l-.8-1.1.3-2.3-.9 1.5-.4 1.4-2.4-3.5-.3-1.1-1-2v-.6l.9-1.2.7-.5.8-.3.8-1.9.5-.8.5-.5h-.3l-.6.3-1.5 2.2-1.8.9h-1.7l-.3-.3v-.7c.1 0 1-1.2 1-1.2h-.1l-.7.7h-.9l-.6-.7-1.1-.8-1-1.9-.3-1-.8-.8h-.1l.2.9-.5.2h-.5l-.5-.5v.5l.5.9v1.2l-.1.1h-.6l-.8-1-1.3-1v.2l.7 2.1 2.2 2.5-.4.8-.3.3h-.9l-1.2-.4-.6-.5-.8-1.2-1.3-1.3-1.2.5 1.2.3 1.1 1v.4l-.2.5v.6l.3.7.3.5.9.4v.2c.1 0-.3 1.6-.3 1.6v.6l1-.6.6-.2.7.6.4 1.1.8.4-.9 1 .7.4.5.6.4 1.6h.4l.2.1.6 2.6.3-1.9 1.8 1.5v.3l-.3.5.4.6h.3c0-.1.5-1.2.5-1.2l.4-.4.7.3 1.1 1.5.3-.2.7.9-1.1 1.3h1.5l.4.2v.5l-.5 1.3h-1.3c0-.1-.4 0-.4 0v.2l1 .6.8 1.4v.6l.6.2 1.4-.2v.7l-.5.4h.7l.3.2.7 1.8-.6.3.3 2.1v1.9l-.7.2-1.1-3.4-1.1-1.6.4 1.5.4 2.6-.3.7 1.7 3.2-.3.3h-.5l-1.1-.6v.2c-.1 0 .4 2.2.4 2.2v.5l-.3.2-2-2.3-.7-.6-.4.2-1.7-1.9v1l-.8-.3-1-2.2v1.7h-.2l-.3-.9-.9-.9-.2-.6h-.7c0 .1-.3-.2-.3-.2l-2.7-3.8.7 3-.5-.3-1.7-1.8-1.1-.9-1.6-.3-.2.5.5 1 1.8 2.3 1 1.7 1 .6 1 .2-.3.8 1.6.9 1.6 2 1.4.9 1.5 2.8 1.3.9-.2.7-.5.3.3 1.7-1.1.4-2-1.3-1.6-.5-1.1-.7-4.7-1-2.5-1.5-1-1.4-.8-1.6-.3-.2-.8-.2-1.2.3h-.7l-1.4-1-1-.4-1.3-.9.7-1.1-1.3.7-.4-.2-1.1-1.1-1-1.6-.6-.6c0-.1 1.5-.3 1.5-.3l.7-.7.3-.7h-.6l-.9-1.2-.5-.2-1.6.2-.3-.2.5-1.6-1.2.7h-.2l-.8-2-1-.9-1.5-2.1-.8-.6.8-1.8h-.6l-.9-.2-.4.3h-.8l-.2 1v.3c-.1 0-.5.1-.5.1l-.3-1.8-.3-.2-1.1-.2-.7-1.8h-.2l-.6.3h-.4v.3l1.2 2.1-.2.6-1.6.4-1.1-.3-.7-.5-1 .2-.2 1.3-1.5.2-1.2.7h-.7l-.7.6h-.6l-.7-.3-1.6-.3-1-.6h-.6l-1.2-1.3-.7-1.6.4-2.7.4-.8.5-.5 1.8-.9.4-.4-.4-1.6.6-1h.3l.7.2 1.3.2 1.3.5 2.8 1.5 1.3 1.7v.4l-.3 1.1.6.6.4-1.7-.4-.9-1.4-1.6v-.4c-.1 0 .3-.2.3-.2l1.7.4h.6l.8-1.1h2.1l.4-.2.7-.9 1.1-.3 1.9.3v-.6l-.8-2.3-1.2-1.1-1-1.4-.5-.9v-.7l.1-.4 1.9-1.6 1.5-1.6 1.3-1.8 1.1-.6.4-1.7.7-1.6 1.8-1.1.6-1.3v-.3l-.6-.6-1.6-5.2-1.4-3.4-1.1-1.8.2-1c0-.1-1.4.7-1.4.7l-.8-.8-.3-.8.4-1.7-.2-1.3-.5-.3h-.6l-.2.1.6 1.4v.4h-1.3l-.7-.5-1-1.5-.2-1.2h-.5c0 .1-.4 0-.4 0v-.2l.6-1.1-.3-.3h-.5l-.1-.3 1-1-.6-.2-1.1 1.5-.5.4-.6-.5-.4-.2h-.3l-.4.9-2.6 1.9-.7.4h-.8l-.1-.8.3-3 .8-.5 1.2.3h.6l1.2-1.6v-.6l-.5-1.3-1.1-.8-1.5-.7-.2-.3-.2-.6v-.9l.2-.4 1-.5-.8-.3h-.4l-1 1.4-.7-.5h-.4l-.5-.5 1.1-1.1v-.4l-.4-.6-1.1-.4-1.1.2h-.4c0-.1-.8-5-.8-5h-.3c0-.1-1.3.2-1.3.2h-.5c0-.1-1.4-1.7-1.4-1.7l-.9-1.4-.6-1.5-.4-.3-1.2 1.6-.3 1 .2.4 1.4.6.4.4.7 2.4-.2 1.2-1.2 1.1-.9.4h-.9l-2.8-1.3-1-.2-1.2-.5h-.7l-1.2-.5-2-.3-.4.2.5.6.5.3h.4l.6.5 1.2 1.6.4 1-.3.5-2.7-2.6-2.4 1.3h-.7l-3.6-2.1-1.6.6h-1.4l-2.8-.5-1-.4-.6-.6-2.2-.4-1.5.9-1.8-.9-.5-.5-.7-1.8v-.8l.4-1.5-1.3.9-1.8-.3-.2.2.5.9-.7.2-1.1-.2h-.5l-.9 1h-.3l-2.1-2.5-1.1-.4-.8-.7-1.5-3-.7-3.1-.4-.9 3.2.2.8.2.9.6 1.1.4h.8l2.8-.5.2-.3-1.8-1.3-1.3-1.3-.8-.2-2.3-.2-2.1-.6-1.4-.9-1.7-1.5-.4-1.7-.6-4.9.4-1.4 1.1-1.5v-.2l-.7-.5-.2-.6v-1.7l.2-1.4 2-4.8.6-4.4 1.1-2.1.9-.9.2-1.3 2.3-2.9 1.9-1.9 1.1-.6 3-1.1 1.5-.3h1.9l3.6.7.4.5.3.9-1.1 1.8-2 2.1-1.4 2.2-2.7 6.5v2.1c-.1 0 1.3 3.7 1.3 3.7v4.7l.4 3.1.8 1.7 2.1 2.9 2 2.1.2.6-1.6 1.7-2.3.8-1 .9-1.7 1.1Zm30.1-37.1.7.2 4.6-.4 1 .3 3.6 2.2.9 2.1 1.1.7.4.8.4 1.4 1.2 1.1v1.2l.9 1.7-.4.6-.9.3-2.6-.3-3.5-.8-2 .2-3.5 1.6-1.6.2-1.4-1-.7-1-.9-4.9-.5-.3-1.4-.4-.7-.9-.2-1.4v-.6c.1 0 .4-.2.4-.2l-.4-.8v-.9c-.1 0 0-2 0-2l.4-.6h1.5c0-.1 1.2.8 1.2.8h1l1.5.8ZM220 234.5h-.2l-.4-.3-2.7-3.8-.5-1.6-1.5-1.6-1.7-1v-.5c-.1 0 .4-1.3.4-1.3l.9-1.5 4.7-1.1h.8l.9.3 1.2 1.5.5.2.3.3.4 1.1-.3 3.4-.7 2.1-.8 1.2v.7c-.1 0-1.4 1.7-1.4 1.7ZM170.7 278h.9l-.2-.6-1.6-2.4v-1.4h17.9v2.1h1l.6-1v-1.1h10.6v-40.1l1.7 1.5 1.1 1.4 1 .7.7 1v.8c-.1 0 .9.6.9.6l2 9.1.4 2.4 1.1 1.2.5.2.5-1.2 1.4-1.4v-.9c-.1 0 .2-.1.2-.1l-1-1.8-.7-1.7-.4-2.1v-2c-.1 0-.6-1.1-.6-1.1v-1l-1.3-7.5v-1.1c.1 0 1.3-.5 1.3-.5l-.6-1v-.3l.2-.7 1.3.3 2.6 2 .7-1.2h.5c0 .1 1.5 1.2 1.5 1.2l1.7 1.8 1.1.9.8 1.2.9 2v.7l.4 1.5.4 3.1 1.5 6.1 2.1 5.5v2.6c.1 0-.8 3.3-.8 3.3l.2.9 1.5 1.8.9 2.1 1.6 1.7 1.2.8.9.8h.2v-.4l-.3-1v-.4h.1l1.3 1.7 3.2 3h.2c0 .1 1.1 0 1.1 0l.5 1.8 1.8-.2.5.5.6 3v1.9c-.1 0-.3.4-.3.4h-.3c0 .1-.7 0-.7 0l-.5-.4-.6-1.7-.7 1.9-.9-.5-1.4-1.3-.7.4-1.1 1.2.3 1.2v.6c-.1 0-.4.3-.4.3l-1.3-.2-1.9-1.5-.5.5 1.8 2.1v1.3l-.3 2 1-1.6 1.9-1.6h1.3c0-.1.5.1.5.1l.3.7-.4.8v1l.3.3h.5l.4.7-.3 1.9-2.7 1.6-1.1.3-.7.5h-1.1l-1.3.2-2.6-.7-1.2-.7-.9.7-2.3-.6-.3-.4.6-1.2v-.3l-3.3-.9h-.9l-1.1-.5-.3-.4v-1.9l-.8-.8h-.5l-.8 1.2-.8 2-1.7 2.1-1.8.6-2.1.2-.8.4-1.7 1.6-2.2 1-2.1.5-3.8.6-.5-.2h-.7l-.8.6-7.3.7h-.5c0-.1-.4-.6-.4-.6l-1.4-2.7-.3-.8v-1.4c.1 0-.3-2.8-.3-2.8l-1.6-.7-1.1-.2h-3.6l-2-.2-2.1-.7-1.9-1.2-.3-1-1-1.7Zm85.5-43.8h-.7c0 .1-.6-.9-.6-.9v-1.9l.3-.4.7-.5 1.1 1.7-.3 1.6zm8.6 141.4H234v-38.5l-29.7-5.4-1-.3-1.3-.9-4.9-6h-7.8l-17.4-13.2-17.4-13.8v-18.4l2.3 2.3 1.2.5 4.2 1 3.3 2.6 3.7 1.5h.9l2.6.4 1.6.5-.8-1.4v-.2l1.3.2.2-.3h.3l1.5.6 1.9 1.1 1.6 1.2 1.7 2.3.5 1.4.5.4-.2 1.1-.3.5-.8.2-2.1-.3-.4.9-1.2.7-.3.5v.7l-1 1.1v.2l1.2.9h.5c0 .1.7 0 .7 0l2.5.9 1.6.3 5.9.3 1.1-.6 2.8-.3 1.6-.7.2.3h.7l2.6-1.8h.7l.6-.4.6 1.2.4.2.9 1.5h1.7l.8.5.4 2.2.4.8.6-1.8v-.3h.4l.5 1.3.6.9 1.5 1.6.3 1-.4.7-1 .5h-.5l-.6-.5 3.1 4.4 1.2 2.1.9 1-1.9-3.7v-2.6l.4-.2.5.7h.3v-.1l1 .7-.8-1.9.3-.5-.9-1.1-.4-.8-.3-1.2v-1.4l-1.3-2.1v-1.3l.8-1v-.6c.1 0-.1-.9-.1-.9l1.2-.3h.3c0 .1 1.4-.6 1.4-.6h.9l.6-.4.5-.8 1 .2v-1.4l.7-.7h.6l.9-.7.6-1v-.8c.1 0 0-.2 0-.2l-.7-.3-2.2 1.4-.4.6-.3 1.2-1-.3h-.4c0 .1-.9 1-.9 1h-.6l-1.4-.3-.5.5.3 1-.2.3-2.5.2-1.7-1.6 1.7-3.6 2.3-.4 1.4-.5 5.4-2.7 1.6.7.5.4.6 1.3.5 3 .2.5 1.2 1.3h.2c0 .1.4-.1.4-.1l.2.7h.6l.5.2v.9l.7 1 1.2.4h1.2c0-.1 1-.4 1-.4l.8-.5 2.7 3 2.2 1.3 1.1-.2h.7l1.4.7 3-1.2 1.4-.2.3-.2 2.9.3 1.3.3 1.4.7h1l1-.6 1.2-.3-.2-.5-1-1.2v-.9l.3-.3.9 1 2.1 3.1 1.4.9.7.2.8-.6.5-.7v-.8l-.2-.7-1.4-1.2-.8-.2-1.6.9-.4-.2-1.3-2.2v-.2l.5.2v-.2l-1.1-2.7.8-.2 1.1.7 1.8-.8-.5-.7v-.9l.4-.1.8.6h.4l.6-.2.6.5 1.2 2.3h1.5l.8-.6-1.2 3.1.8-.3.4-1 2-1.1-1 6-.7 1.8v.5l.8 1.5.2 1.1h.6l1.2-.5v.2c.1 0-.2 1.3-.2 1.3l.9-.3.6.7v1.6l-.4.4h-1.1c0 .1-1.1-.4-1.1-.4l-.3.3h-.5l-.6-.8-.3.2.3.7 2 2.7.3.6v.8c.1 0 .3-.8.3-.8l-1.2-1.9v-.7l.2-.2 1.5.4h.6l.4-.4.2-.3.4-3.1-.9-3.9-.7-1.1v-.4l.7-3.2.3-.4h.6l.5-.3 1.1.5.5-.3 1.5-1.8 1.9-2.8 1.2-.8.9-.9-.8-.2-.2-3-.4-1-.4-.4-.2.2-.4 1.9-.3.4-1.8.5-.5-.4v-.3l.1-1.3 2-2.5v-.2h-.6v-.2c-.1 0-.3-1.1-.3-1.1v-.9c.1 0 .5-.3.5-.3l2.3-.9-.9 2 .3.3 1.4-1.8h-.5v-1.3l-.5-.5-1.6.9h-1.1c0-.1-.6-.9-.6-.9l-.9-1.6h-.3l-.5.9-2-1.1-1.3-1.1-1.6-.6-.7-.9-1.6-3.2-.3-1.1v-1.5l1.1-2.3.7-.6h.3l.7.2-.5-.9.4-1-1.3.7h-.3l-.4-.5-.8-1.7.3-3.4-.2-.8.4-.7v-.8c-.1 0 .6-1.3.6-1.3l.9-1 .6.3.8.9h.4c0 .1.3-.1.3-.1l.7-2.1-.2-.2h-1.4c0-.1-.2-.3-.2-.3l-.2-.6 1.1-1.5.4-1.2 1.3-1.7 2-1.1h.8l.3.9v.9l.8 1.1h2.1l.3.3v1.4l2.1 2.4 1 1.7.4 1 .3 2.5v2l-.4.8.8.7.6 1 1.2 1.1.6 1.8.7 1.3v1.1l.3.2h.2c0-.1.5-.7.5-.7l.4.5.6 1.5-.2.4-1 .2-1.1-.5-.7-.9h-.1l-.8 1.7.3.3h1.4l.6.6-1.3 1.8-2.6 2.8.4.2 1.3-.4h.8c0 .1.3.4.3.4v.2c-.1 0 0 .4 0 .4l1.3.9.8-.2 1.4-1.3h.8l.2.2v.2l-1.2 1.2.6-.2 1.4.3h1.2l.9.5v.2c.1 0-1 .4-1 .4l-.3.4-.3 1.2-.3.3h-.5c0-.1-.2-.6-.2-.6l-.7.2v.2l2 2.2.7 1.9.5.8-.3.7v1.5c.1 0-.1 2.5-.1 2.5l1.6 2.5 1.3-2.7v-1.6l.5-1.3.5-3.3 1.6-2.9.3-.2h.6l1.8 2.5 1.8 1.7.8 1.2.3 1.2.6 3v1.2l-.3 1.1h-.9l-.5-1-.5.6v3.9c.1 0 .6 2.1.6 2.1l.8 1.6 2.1 3 .3 1.6.3.4h.4l1.5-2 .5-.5.6-.2.5-.7.4-2.6.3-1 1.9-3.1.9-4.3v-1.5l.2-1.1.8-1.2.9.4 1.7-.4v-.2l-1-.6v-.8l.4-.5.4-.2.2-1.3-1.1-1.1h-.7l-.5-.8-.2-1.5v-2.4l-.3-1.3.2-1.5-.4-.7.5-.2 1 .5h.7l1.6-.6h1.4l2.8 1.8h4.5c0 .1 1 .7 1 .7v.5l-.5.8-1.1.5.5.4 1.4.6.4 1.4v.6l1.1-.3.9.2 1.4.7.4.7-1.2 1.6-1.4 1.1v.3h1.1l1.3.3.5.8v1.4l-1.1 1.2-1.7 1.1h-.4l-.4-.5h-.4l-.8.2h-.4l-.2.1v.3l.6 1v.7l.8 1.7h.3l.6-.6-.4 2.3.5 1.4 2.4 3 .5 1.1v1.6l-.7 3.2-.7.7-1.3.3-1.2 2.3-1.9 1.9-1.3.4-1.5 1.7-1 .2-.3-.2-.3-1-1.5-2.6h-.9l-.7-.9.4-.3-1.1-1.4-.7-.5h-.7c0-.1-.8.7-.8.7l-.3.7.4.2.7-.7h.5l.4.4 1.4 2.1.4.3.6 1.7 1.1 2.5v.5c.1 0-.2.3-.2.3l-1.8-.8-.5.4-.3.8-.6-.3-2-1.2-1.5-2.3-.7-.3-.8.4h-1.2c0 .1-2.7.1-2.7.1h-.1c0 .1.2.7.2.7l-.2.4.3.6.4.4 2 1 .5.4.2.7-.4 1-4.4 6-.9.9-1.6.2h-1.2c0-.1-3-2.8-3-2.8l-.3-.7-1.5-.6-1.4-1.3-1.4-.8h-.8l.4.7h-.2l-1-.1-.9-.5h-.8l-2.1-.4H278v.2l.6.6 1 .7v-.7l.2-.2 1.6.4 2.9 1.1 1.4 1.4 1.5 2.1 1.1 1 3.3.7 3.4.2 1.2.4.3.3v1.4l-1.1 2.4-2.6 4.2-.5 1.5-.5.6-2.3 1.7-.7.2-1-.4-.6-.8.4 1.3c0 .1-1.2-.6-1.2-.6l-.4.2-.5-.2-.6-.7-.2-.8-1 .4h-.2c0 .1.5.6.5.6l.4 1.2h-.3c0 .1-1.1-.2-1.1-.2l.7 1.7-1 1.6-.5.2-.7-.4h-.3l-.5.7h-1l-2.5-1.2-1.6-.3h-.1c0-.1.1-.5.1-.5h-.2l-.5.3h-1l-4.6-2.4-1.1-1.1.4 1-.3 1 .4.7.6.3h.6l-.5-.6v-.4c-.1 0 0 0 0 0l5.2 2.5-1.3 1.3h.7l1.9-1.4.7.4 1.5 1.5 1.5.6 1 .9.2.5v2.3l-.3.9-1.4.5-1 1h-.4c0 .1-2.5-.4-2.5-.4h-.3l-.4.3h-.7v.5l.3.6.7.4.8.2v.5l-.2.5-1.1-.4-.2.2h-.7l-.2.2-.2.7-.7.8v.3l.6.7.4 1-1.4-1.3-1.4-.5.9.7.4.6-.7.6.2.5-.2.3-.4.2h-.8v.2l.4.5-.3.3h-1.1l.4.8.8.7-1.7 1.5-.9 1.1v.3c-.1 0 .1.9.1.9l-.2.3h-.5v1.5l-1.8 4.7-.3.5h-.5l-.4.4.5.7-.5 3.6Zm-23.6-108.2c0 .1-1.3-.7-1.3-.7l-.2-1.3.2-.3.9.3.7.7-.2.2v1.1Zm57 4.8h1.3l.4 1.2-.2.3-.8.2-1.1-.4h-.3c0 .1-.6 0-.6 0l-.6-.8v-.3l.9-.6.8.4Zm-44.8 5.8h.1c0 .1.4-.4.4-.4h.3l1.5 2 .8.5 1.7 1.5 1.5 3.8.9 1.5.7.7.9-.7.5.8-.8.9h-.9c0 .1-.9 1.4-.9 1.4l-.6.2-1.6 1.6h-.8c0 .1-1.7-.8-1.7-.8h-1.1c0 .1-.9 0-.9 0l-1.8-1.5-1.5-.8-.4-1.2-.9.5h-.7l-.5-.5-.3-1.1-.7.2v.6c-.1 0-1.1-.2-1.1-.2l-.5-.5-.5-1.4.5-1.2 2.3-.4.8-.6.9-1.1.2-.6-.5-1.3v-.2h.5l-.4-.6v-.6h.3l.4.2.7 1 .8.3-.5-.7-.6-1.9.3-1.4.7-.7 1.2-.4.4.3 1.2 1.3v.5c.1 0-.2.4-.2.4v.3Zm76.7-1.7.3.9-.8 1-1.4.3-.7-.3.3 1v.6l-.8-.3-.4-.7h-.4l-.5-.7-1.4-.3v-.2l.2-.6h.3c0-.1.8 0 .8 0l.2-.7h.9l.4.7h.7l1.6-.9.7.3Zm6 .9.3.9-.3.4-1.8 1.3h-.4c0 .1-.5 0-.5 0l-.8.2 1.1-1.9h.8c0-.1.2-.4.2-.4h.2l.1-.5.3-.3.7.3Zm43.1 2.1-1.2-.5v-.4l.9-.8h.6l.3.5-.7 1.1Zm-117.6-.4.6.8-.2 1.6-.6.5h-.6c0-.1.3-.8.3-.8v-1.2l-.1-.5-.4-.3v1.4l-.4 1.2-.4-.5v-.9l.5-1.7.3-.2h.4l.8.6Zm-24.1 2.1h-.4v-.5l.4-.5-.6-.7.2-.4.9.4.4 1-.4.2-.4.6Zm103 3.1h-.9l-.5-.6-.2-1 .2-1.6.7-.4.8.3h1.1l.3.6v.5l-.6.7-.4 1.1-.4.4Zm-56.3-3.3v.8l-.3 1-.3.2-.7-1.4.7-.7h.3c0 .1.1 0 .1 0v.2Zm46.9 6.8h-.3l-.3-.1-.2-.8.7-1.5.4-.5 1-.6.4-1.2v-.2c.1 0 .6-.1.6-.1v-.8c-.1 0 0-.3 0-.3l.8-.5h.5l.4 1-1.3 1.9-1.1 2.3-.3.4-1.5.8Zm-48.1-4.4h-.3c0 .1-.5-.8-.5-.8h-.4l.1-.8.3-.2h.3l.3.6zm-40.5 2.4v.7l-.9-.4-.2-.7.4-.9.5.5.2.9Zm-.9 2.5v.4c-.1 0-.8.6-.8.6l-.4-.8-.4.3V286l.1-.4h.6l.9 1.2v.3c.1 0 0 1.1 0 1.1Zm-7 2.6-2-1.1 1-1.1.3-.6.8.3.4.5v1.2l-.3.2zm114.9 2.7h-.3l-1.9-2v-1.3c.1 0 .5-.6.5-.6h.9l.4.5.8 2.2v.2c-.1 0 0 .5 0 .5l-.3.5Zm-126.3-.6h-.7c0-.1-.6-.6-.6-.6l-.8-.9v-.3l.6-.3 1.3.2.7 1.1v.5l-.4.3Zm108.8 2.4h-.3c0 .1-.5-.5-.5-.5v-1.1l.9-.2.5 1-.7.9Zm14.1-1.5 2.2 1 .3.7v1.1l-.2 1.3.2 3.7-.5 2-.8 1-1.6.9-3.9.5-1.1-.2-.6-.8-.3-1-.6-3.1.3-1.9.4-1.1 1.6-3.2.6-.5 1-.5h.8c0 .1 1.3-.2 1.3-.2l.8.2Zm-46.5 6.7-.5-.2-.8-1v-.7l.2-1.2-.5-1 .3-1 .8-1.3.6.2.6 1.2v3.4c.1 0-.3 1.2-.3 1.2l-.5.5Zm-96.8-2.9h-.2l-.6-.6v-.6c.1 0 .7.6.7.6v.6Zm152.1 2.4h-3.2l-.9-.5-.7-1.8.2-.9 1.4-.3 2.1.8 1.6.2.2.3v2c.1 0-.8.1-.8.1Zm-151.5-2.3h.8l.3.5v.6l-.8-.4-.3-.3v-.3Zm5.4 6.5-.2.9-.9-1.2v-2.2c.1 0 .4-.4.4-.4l.2.5v1.2l.4.5v.7Zm192.7 3.8-.5.3-.3-.4 1.1-1.2h.9c0-.1 0 0 0 0l-.4.5-.8.9Zm-193.5.6h1.2l-.1.9-.5.7zm106.4 7.7h.7v.3l-.5.6-.7-.8v-.6l.4.5Zm-2.6 5.1 1.1.6 1 .2-.4.9-.7-.3-.5-.5-.2.5h-.6v-.5l.4-.5-.5-.3-.8.4-.5-.2v-1.5c-.1 0-1.4-1.6-1.4-1.6v-.4l.2-.3 1.2.6 1.4 1.2.4.5v.3l-.3.6.2.4Zm-4 2.3h-.5l-.6-1.2-.7-.7-.3-1.9v-.8c.1 0 .6-.1.6-.1l.4.2.8 1.6.7 2.1-.3.8Zm-1.1 3.2h.3l1-1.9h.5c0-.1 1 .8 1 .8l.8 1.5 2.5.9.4.3.9 1.5.9.6 1.4 1.2 1.7.6.9.8 1.1 2.2.5 2.1v.7l-1 1.1c0 .1.7 0 .7 0l1.6-.5 1.3.4.4-.7h.4c0 .1 1.1 1.6 1.1 1.6v.2h-.4l.9.4.8.6-.2.4-2.8 2.7-.4.2-3.9-1.9-1.8-.4-.4-2.1-.4-.3-2-.6v-1l-.1-.3h-1c0 .1-1.2 1-1.2 1l-.3 1.8-.3.6-1.2 1.5-.5.4-.7.3-.8 1.9-.5.8-1.4 1.1-1.8.7-.4-.2-.9-4.9-.2-.4-2.3.4h-1.2l-1.4.8-1-.2-.2-.8 1.1-2.2 2.2-1.5.7-.8-.4-2.3V334l.7-4.4.5-5.3.5-1.8.6-1.3 1.1-.9.5.8.9.5.3.5.3 1.3-.6 1.2.8.7.6 1.8Zm31 12.6-.3.4-.9-.2-.2-.3v-.2c.1 0 1.1-.2 1.1-.2h.6l-.3.4Zm4.1 5.8h-.5l-.6-.1-1.9-1.7 1-.9 1.6 1 .5.7v1Zm-5.1-.8.4.4h.4l.7 1.3v.5l-.5.7-1.2.5-1.3-1.2-1.2-1.7v-.3c.1 0 1.3-.4 1.3-.4l1.5.2Zm-17.5 4.9.2.7-.3 1.4-.4.7-1.9 2.3-1.9 1.8h-.5l-1.1-.3-1.4.7-.3-1.3-.6-.9v-.5l.7-1.1 1.5-3.1.4-.2 1.4.4 1.1-.7h1.1l1-.3 1 .2Zm49.7 3.8h-.9l-1-.4-.3-.5v-.5l-.6-.8-.6-.3-.4-.5 1.6.3 1.7 1 .7 1.4-.3.3Zm-15.6-.7h-1.1l-1.1-.5-.5-.5 2.2.4.4.2v.4Zm39 .6h1.3l.2.2.2.4-.3.6-.8.3-1-.3-.2-.3v-.2c.1 0 .6-.2.6-.2zm-62.7 1.3.3.3.8 1.3-.2 2-1.5 3.4-.4.4h-.2l-1.9-2v-2.6l.4-.9 1.1-1.6 1.6-.2Zm61.9 4.9h.3l.5.9-.2.4-1.1-.6-.3-.9v-.3c.1 0 .5-.1.5-.1l.4.6Zm-119.4.3h-.2l-.5-.7h.5c0-.1.4.3.4.3zm120.2 4.3h-.2l-.3-.4-1.9-1.4-.2-.8 1.3-.3 1.4.2.5.6v1.1c-.1 0-.7.9-.7.9Zm-58.4 5.6h-.6l.2-.4 1.6-.4-.2.3-1.1.5Zm43.9 4.2h-.4l-.2-.1v-.5l1.2-2.4.7.4.4.8-.4.9zm16.3-1.1v.6c-.1 0-1.4-.7-1.4-.7l-.3-.3v-.8c-.1 0 .7-.1.7-.1zm-66.7 5.1h-.4l.4-.7.5-.2.2.2zm-.9 1.2h-.2l.1-.4.4-.4h.2v.3l-.4.5Zm47.4 4.9-.3.6h-.6l.2-1.5h.5l.1.9Zm-45 12.3h-.3l-.1.6v-.8l.3-.5v.7Zm-.6 5.8h-.1c0 .1-.2 0-.2 0l.2-.7.3.2zm1.4.9h-.3l.1-.6v-.4c-.1 0 0-.1 0-.1l.3.7-.2.4Zm2.5 3.1-1 2.9h-.2l-.2-.3.6-1.6-.2-.6-1 2.1-.4.5h-.5l-.7.5 1.1-2.2-.2-.3-1.5 2-.4-.3 2.1-3.2.2-1.6v.7c.1 0-.3 2-.3 2l.6-.7.5-2.5.6.6.2.5.5.2.2.8v.4Zm-4.4.4h-.5l.1-.6.9-.6h.4l.7-.8-.5 1.1-1.2.9Zm4.9.5h-.4l.5-1.8.3-.4h.2v1.4l-.7.9Zm-4.7 20.9v.2h-.3l-.3-.5h.1c0-.1.3 0 .3 0zm-3.4 3.9h-.3l-1.3-.2-3.2-1.3-.7-.4v-.3c-.1 0 .7-1 .7-1l2.2-.3h.9c0 .1 1.6 2.1 1.6 2.1l.2.6v.6Zm5.7 5.6h-.6l-.5-.4 1.3-.6h.3z"/><path id="CA-ON" d="M329.7 444.1V466l-.2.5.5 2.2 1.8 3.3 1 1.3 1.4.5 3.3.7 1.3.8.6 1 .9.6h.4l.1-.4h.4l.7 1.4.5.6.6.3h1.7l.4.4 1.2-.2 3.2-1.2h1.2l.8.5-.3 1.5.6.6-1.6 1.3h-.6l-1.4.6-2.6 2.4-1.1.7-1.5.6-1.2.3-1.3.9h-.2v-.2l.6-.5-.4.3-.2-.3-1.1.2-1.1.5 1.1-.3v.3h.2v-.2c.1 0 .8-.2.8-.2h.1v.8l1-.3-.8.9h.7l-.7.4h-.7v-.4l-.3.2h-.2c0-.1.2-.3.2-.3h-1l-.3-.3-.6-.2-.2.2-5.4.9-1.7 1.2h-.4l-.5.6-.8 1.5.2.3 1.7.3 1.2-.5v1.1l.5 1.1-.5.3h-1.4c0-.1-3 .3-3 .3l-.5.2-1 .9 1.7.3h-.1l-4-.6-1.6.2-1.4 1.1-.6 1.1v-.3l-2.3 1.2-.4 1-.6-.6-1.2.2-.7-.4v-1.3c.1 0 1-.5 1-.5l1.4-1.4.5-2.3 1.4-.7 1.3-1.1.2-.4v-1c.1 0 .1-3.4.1-3.4l.6-1.4.7-.6.5-1.1v-.9l-.3-.7v-.4l-.4-.2-.6-.9-.5-.3v-.2h1.8v.5c-.1 0 .1.8.1.8l.5.4v.3h.3l.4-.3v.6c-.1 0-.7.6-.7.6l.7-.2.3.2v1l.4-.5.5-.2.3.5.6.4 1.6.5.3-.5v-.5l-.4-.9.8-.3v.3l.4.3h.6v-.6l-.3.3-.2-.7h-.3c0-.1-.8-1-.8-1l.3-.3-.5-.4.3-.5v-.4l-.5-.1v.3l-.7-.3-.3-1.3v.2h-.4l-1.3-2.2h-1.5v-.4l-.3.3h-.9c0-.1-.6 0-.6 0l-.2-.5.4-.2-.3-.3-.6.4v-.3l-1.8-.2-.7-.4h-1.2c0 .1-.3 0-.3 0l-1.3.2-3.5-.7-.2-.2-.9-.2v-.9l-.3-.3-1.1.3-.3.2-.3-.6.6-.9h-.2c0-.1-.2.2-.2.2v-.7l.7-.5-.5-.4h-.6c0 .1-.6-.4-.6-.4l.8-2-.5-.7-.9-.7-.3-.6.7-2h-3.2l-1.3-.5-.8-1.1-.8-2.5-.8-1.1h-.5l-.5-.3-.5.2h-1.7l-3.2-1.2-.2-.3h-1v.9l.5.6v.6c-.1 0-.5.6-.5.6l-.9.2-.2.6h-.2v-.4l1-1.4-.3-.7h-.5l-.2 1.2-.3.4-.5 1.4-.8.3.7-1.6-1.8.8v.9l-.6 1.2h-.4c0 .1-.6.8-.6.8h-1.8l-.4-.7h-2.8l-.4-.5h-.8l-1.5.9h-.6l-1.4-.9-.6-.7-.7-.2h-.5l-.2.4h-.3l-.4-1-2.1-1.1h-1.6l-.4.3-1 .2-.4-.2-.2-.4-.9-.3-2.4-.5-.4-.4-.4-1.3-.2-2-.4-.3h-.9v-23.5l6.5-6.6 9.6-11.5 10.3-11.7.5.3 1.6 1.6 1.6 1.1 2.5 3.4 2.4.8 4 1.7 1.3.7 1.1 1.3.8.6v.4l-.6 1.6.6-1.1.7-.5 2.3.2 2.6-.4 3 .7h1c0-.1.5.4.5.4h1.2l.8.7.4.5.4 1.4-.8 3.4v.8l.8 1.4.4 1.6-.2 1.5v2.5c.1 0-.3.7-.3.7v.9c-.1 0 0 .5 0 .5l1 1.1 1.8 2.7v.5c.1 0 0 .3 0 .3l-.9.7h1.2l.4.1.8.8 1.3.8 1.3 1.5.9 2.5-1.7 1.8 1.6-1.2.5-.2h.4l.7.3 1.1.7 1.4 1.7Zm0-.3-.8-1v-.5l.1-1.1.7-1.3zm-36.2 14.8h-.2v-.8l.6-.2.6.2-.2.5-.9.3Zm1.7-.2h-.5v-.5h.3zm8.4 6.5h-1.2l.3-.3h.5l.7.2-.3.2Zm7.9 9.7h-.3c0 .1-.1.4-.1.4h-.3l-.5-1.2h.2c0-.1.7 0 .7 0l.4.4v.3Zm2 1.8h-.2l-.4-.2.4-.5.5.2zm2.2-.6v.4l.2.3h.4l.6.3v-.3l-.2-.3.2-.3.8-.3.8.7.4-.5h.5c0-.1.4.4.4.4l.2.9.5-.9h.1v.6h.4l-.4.9-.6.7h-.2l-.4-.1.5-.2.4-.5-1.3.8-.9-.6-1.6-.7-1.3-.2-1.2-.6.2-.4.3.2zm4.4 3.1-.2-.2.5-.2zm6.8 4-.3-.3h.3zm16.3 3.8-.2.2h-.3v-.2l.3-.4.9-.2-.6.6Zm-1.4.1h-.5l.7-.4zm-25.3 13.9h-.2l.1-.5v.5Z"/><path id="CA-PE" d="M396.7 472.8h.3l.2-.6 1 .4h.4l1 .5 4.1-.4.6.4-2.1 1.3v1.1l.2.2h-.2c0 .1-1.2.2-1.2.2l-.3-.2v-.4h-.6l.5-.3-.3-.4h-.3l-.2-.2v-.3l.3-.3-1.2.7h.5l-.3.2-1.8-.4-.7-.8.2-.2-1.5-.2V472c-.1 0-1.2-.3-1.2-.3v-.3l.1-.5 1.5-1.8v.9l-.4.9.8.8.2.4-.2.4.4.2Z"/><path id="CA-QC" d="m393.2 373-1 .5.2.5.7.5v.3c-.1 0-1.1.6-1.1.6l.2.4.7.5-.6.9v2.3c-.1 0 .3.6.3.6l1.1-.5h.3v.4l-.5.6v1.4l.1.9.7.8-.3.2-1.6-.4-.3.2v.6l2.3.7.4.8 2-.8.6.3.4.6-2 .6-.5.3v.7h.8v.8c.1 0-.9.8-.9.8l-1.3 1.7v.4l.7.7.8 1.9h.4c0-.1.7.6.7.6h.3l.5-.1v.4l-.7.9v1.2l-.2.6.2.7-.5 1.6v1c-.1 0-1 1.4-1 1.4l.8 1.8v.3c-.1 0-.9.3-.9.3v.7l1 .7-.4.5v.4l1.8.5v.3l-.5.5v.5l1.2 2 .5.4.6.2.2 1.3-1.8 1.5v.4l.2.9-1 2.6h-.9c0-.1-1.8-.8-1.8-.8h-3.3l-2.4-.1-.5-.4-.4-.8-1.2-.4-2.6-2.7v.3l.2.6v.6l.3 2.4-.3.4-.6-.2-1.3-1.2-.6-.9h-.5v.6l1.1 2.4v.3l-.4.2-.2.5-1.1-.4h-.3v.9l.4 1.6-1.1 1.3 1.2 1.9v1.3l1.3.5.4.9.6.4v2c-.1 0-.5 1.1-.5 1.1v1.2l.4.4h.6l.5-.2.3-1.4.4-.2.2-.4h.2l.5.9-.5 1.7v1.7c.1 0-.2.9-.2.9l.2.8.3.2.3-1 .8.6.3.7.7.4h.2l.2-.3.8.2.6-.9 1.3.3.9.7 1.3 1.6-.3.6.4 1h.4l.9-.9-.2-.8.3-1.7.6-.7v-1.3c.1 0-.2-1.2-.2-1.2v-1.8l.2-.3.7-.3.3-1.3.8-.2h.2l.5 1v1.3l.6.6-2.1.7-.7.7v.2l.5.2v.3l.8.6.4 1.6h-.5l.1.3h28.4v3.9l-.9-.2h-.7l-1.3.4-1.1.7-2.1.2-2.8 3.5-.9.7-1 1.2-.9.5-.3.7-.8.4-2.2.2-.8-.2-.6.3h-1.4l-1.9.7-.8-.9-3.4-.5H399l-.4.4h-1.5c0-.1-1.1-.5-1.1-.5l-1.3.3-1.4-.3-1.5.2-1.7-.3-2.1.4-.8-.2-.7.6h-1.6l-1 .9-.9.5-1.2 2.6v1c-.1 0-.6.7-.6.7l-2.9.6-1 .4.3.3-1.4.6-.5.8-1.1.7-1.3 1.6-.6 1.2-.7.9-.5.3h-.8l-2.3-1.1-2.7-.6.8.6h1.4l2.7 1.2.4.5-.6 1.7-.4.6-1.9 2-1.1 1.8-1.7 1.3-.6.8-2.1.8h-.5l-1.4.7-.2.5-1.8 1.2-1.3.5-.2.5-.5.3-1.4 2-1 .2-.8.9-.6.4-1.2-.2 1.3.6v.5c.1 0-.4.1-.4.1l-1 .7-.6-.6.3-1.5-.8-.4h-1.2l-3.2 1.1-1.2.2-.4-.4h-.5c0-.1-1.2 0-1.2 0l-.6-.3-.5-.6-.7-1.4h-.4l-.1.5h-.4l-.9-.6-.6-1-1.3-.8-3.3-.7-1.4-.5-1-1.3-.6-1.4-.9-1.2-.8-2.4v-.5l.1-.5v-21.9l.7 1.1-.7-1.4v-3.9l.8-.6h.2l.1.5 1 .6.6 1.8.2-1.2.5-.8-1.1-1.6v-.3l.2-.2.4-1.1.5-.5.7-1.2.4-.3-.3-.3v-1.3c-.1 0-.9-1.1-.9-1.1v-1.4l-.8-1.3-.9-4.4v-.4l.3-.7h.4l-.6-.8.3-.5-.3-.4-.7-.3h.3c0-.1.1-.5.1-.5l-.9-.7-1-2.5-.5-.5 5.3-2.5 3-2.1 2.6-2.8 1.7-2.5.5-.8.4-1.9v-2.7c.1 0-.1-3.7-.1-3.7l-1.4-4.6-1.1-2.1-1.7-1.8-2-1.3-1.4-1.5-.5-.2-.2-.7.4-1.8 1.5-2.5 1-.9.4-.6-.4-.8.5-.9v-.8h.6l.8.9h.2l-.6-1 .7-.9-.2-1.1.4-.8v-.2l-1.1-.2-.2-.2.6-.5-1-2.4.4-.7.4-.3v-.2l-.9-.1-.3-.5.6-1.3.3-.2c0-.1-1.1.2-1.1.2l-.5-.3h-.8l1.5-2.3.4-1.1v-2l.9-1.1-1.6-1.5-.6-.9-.5-3.4.3-1.3 2-1.6 1-.4 2.1.4 4.5 1.9.6.6-.6.5c0 .1 1.3-.8 1.3-.8l.6-.2 1.4.4 1.7 1.4-.2-.6.2-.3 4-2.4 1.7 1.4 1.8 1.8h.8l.2.9-.6 1.7h.2l.9-.7 1.2.8.8 1.4-.2.3-.7.4h.1c0 .1.8 0 .8 0l.7-.7 1 .6v.4l-.5.4-.4.8.9.2-.4.4v.3l1.3 1.6h1.1c0 .1 1.9.9 1.9.9h.8c0 .1 1.1-.1 1.1-.1l.5.4v.9l.3.4.4.2 1.2-.5.4-1.2h.5l.4 1v.7l-1 1.4-.5 1.8v1.3l.5 1.1-.2 1.1-.5.4h-3.6v.4c.1 0 3.6.3 3.6.3l.3.2.4.8.2 1.2-.5 1.6v1.2h1.2l.2.3-.5 1 .2.8-.5 1.8-.5.4-.6-1.1-.4.8-1.2.5v.2l1.6.6 2.2-1.6 2.4-.2 1 .7.4.7.2 1.2.3.3v1.3l-.5 1.9-.5.7-2 .9-.4.5 1.1-.6 1.2-.3.3-.3.5-1 .5-1.8.3-.6h.4l.6 1.4-.7 1.3.9-1.1.4-1.1.3 1.3v2l.5-1.8 2.3-1.8 1.3-.5.5-.5.4-1.2.7-.8.5.2.6.9.4 1.9.3-1.1-.5-2 .8-.2c0-.1-.4-.6-.4-.6l.3-.5h.6v-.4h1.4v-.2l-1-.4-.4-.9h.2c0-.1.2 0 .2 0l.4-1.1.4.3-.3-1.3h.5l1.2.8h.2l-.6-.7-1-.6-.3-.9.2-1.1.6-.4 1 .6v-.2c.1 0-.4-.5-.4-.5v-.7l1-2.9.5-.7h.5l.3.2Zm12 83.2h-1.8l-3.5-.9-2.2-1.1-.9-1.3-2.8-1.5-.2-.4.5-.3h1c0-.1 3.6.7 3.6.7l1.8.7 4.4 2.8.5.9-.4.3Zm-20.9 6.9-.9.4v.4c-.1 0-.6-.1-.6-.1l-1.1.2-.2.2-.9-.5v-.4h-2.3v.4h-1.1v2.2l-.2.4-.8.7-1.8.8v-.8l-.8-.2-3.3 4.7-.3 1.7-.8 1.2-.2 1.2v.9l-.4.6v.4l-1.3 1.1v.7l-.4.1-.3.8h-.1l-.4-.4-.6.4-.8-.2-.4.5-.4 1.2h-13.6l1.9-1.1.9-.3 1.2-.9.9-.2.4-1.3 1.3-2.3.7-.6 1.1-.5 1-1.1 1.1-.6.6-.7.9-.5h1c0-.1 1.7-.8 1.7-.8l.5-.4 2.7-1.3 1.9-2.2.2-.6 1.9-2.2.5-.9.7-.5 1.4-1.4 1.9-1.2 1.3-1.1 2.9-1.5 4.1-1.7 1.8-.6 2.8-.3 2.9.5 1.1.6 1.5 1.5v.4l-1.3-.2 1.1 1v.9l-.4.8-1.2.4-.8 1-1.9 1.1h-.9l-1.9-1.1-.7.5h-1.6c0-.1-1.1.5-1.1.5Zm20.4 4.6.6.2-.3.2h-.7l.4-1.3 1.6-1.3h.7l-.3.4h-.5l-.4.4-.9 1v.4Zm-38.8 2.6h-.4l.6-.5.6-.2-.9.8Zm-10.8 8.6-1.7.2.5-.5.7-.3.7-.9h.2l-.4 1.4Zm-.6-.7h-.7l.6-.5h.7c0-.1-.5.5-.5.5Z"/><path id="CA-SK" d="M236.7 456.8h-36.8v-81.2H234v33.5z"/><path id="CA-YT" d="M87.2 287v13.2l.2.9.7.7.3 1v1l.3 1.3-.5 1.4v1l.2.8h9c0 .1.1.8.1.8l1 1.4v.9l.1.9.5.9v1.2l-.4.1-.3 1.2v.2l.9.2v1.1l-.4.9.2 1.3.9.2.8-.5 1.2-.2v.3l-.1.7.3.2.3-.2.9-1.1.6.4h.5l.1.1v.2l-.8.7v.3l1 1.5.4 1.2-.6 1.6-.8 1.1-.2.6-.7.6v.2l.2.4.5-.2h.2c0 .1.1.9.1.9l.7.4-.6 1v.7l-.4.6v.3l1.2.3.9.6.9 1.2.7.4-.3 1.4h.9l1-.7 1.1.6.8 2v.7l.7 1.3 2 1.6.7.3v.2l-.6.3-.2.3.3.2.6-.2.2.6.4.2.4.6.2.7-.3.8-.8.8v.4c-.1 0 .8.8.8.8l.3.9.9.3-.4 1.2v.9l.4 1.1.4.4v.7c.1 0 1.4 1 1.4 1l-.5.6.2.5-.2.7.3.7v.6l.4.2h1l.4.6.6-.4h.5l.7.7.8 1.5.7.5.2.9.8.8.8.8 1.3.2.6.4.4.8.2 1.2v1l-.3.5.2.2h.5l.4 2.5h.8l.6-.3h1c0 .1.3 0 .3 0v-.4h.3l.7.5.4-.7.8.4 1.6.4.7-.5h1.2c0-.1.3-1 .3-1h1l.3 1.5-.5.8v.3l.9 1.5.7.2v.2l.3 1.1.8 1.7v.7h.5l.3.3H76.3l-.5-.7.5-2.2h-2.5c0 .1-1.3 1.4-1.3 1.4l-2-1-.3.7-2-.7v-95.1l2.5.6 1.8-.2 3.4 1.3L78 282l3.5 2.7 2.6 1.5.8.2 1.5.7h1.2Zm-11-8.1-.4.5-.7-.7.6-.6h.3l.8.7-.7.2Z"/></g></svg>