<?xml version="1.0" encoding="UTF-8"?>
<svg id="Layer_1" xmlns="http://www.w3.org/2000/svg" xmlns:amcharts="http://amcharts.com/ammap" version="1.1" viewBox="0 0 512 512">
  <!-- Generator: Adobe Illustrator 29.1.0, SVG Export Plug-In . SVG Version: 2.1.0 Build 142)  -->
  <g id="_x3C_defs">
    <amcharts:ammap bottomLatitude="41.730628" leftLongitude="-141.007366" projection="mercator" rightLongitude="-52.646682" topLatitude="83.116658"/>
  </g>
  <g>
    <path id="CA-AB" d="M199.9,456.8h-17.3v-.3s-.5-.8-.5-.8l-.7-.3-.9-1.2v-1c0,0-.7-.3-.7-.3l.4-.9-.2-1.3v-.6c.1,0-.4-2.3-.4-2.3l-.9-1.2-.4-.3-.5.2-.4-.5-.2-.6-1.2-.9.2-.4v-.4c-.1,0-.9-.7-.9-.7l-.9-.4-.2-.7-.9-.6-.3-.9-1.1-1.4-.5-1h-.4s-.3.5-.3.5h-.4s-.5-1.2-.5-1.2l-.9-1.1-.3-.8h-1.1c0,0-.7-.4-.7-.4l-.3-.4.4-.8-1.2-.7-.2.5-.7.2v-.7s-.6-1-.6-1v-.6c0,0-.5-1.2-.5-1.2l-.7-.2-.2-.8-.4-.3-.2-.6-.8-.6v.7c-.1,0-1.1-.5-1.1-.5l-.6-1h-1.2c0-.1-.6-1-.6-1l-.3-.2v-.7c-.1,0,.6,0,.6,0h0c0-.1-.3-.6-.3-.6l-.4-.2-.4-.9v-48.1h42.6v81.2Z"/>
    <path id="CA-BC" d="M141,375.6h16.3v48.1s.4.9.4.9l.4.2.3.5h0c0,.1-.7.2-.7.2v.7c.1,0,.4.2.4.2l.6.9h1.2c0,.1.6,1.1.6,1.1l1,.5v-.7c.1,0,.9.6.9.6l.2.6.4.3.2.8.7.2.6,1.2v.6c0,0,.4,1,.4,1v.7s.7-.2.7-.2l.2-.5,1.1.7-.4.8.3.4.7.5h1.1c0,0,.3.7.3.7l.9,1.1.5,1.2h.4s.3-.5.3-.5h.4s.5.9.5.9l1.1,1.4.3.9.9.6.2.7.9.4.7.7v.4c.1,0,0,.4,0,.4l1.2.9.2.6.4.5.5-.2.4.3.9,1.2.6,2.3v.6c-.1,0,0,1.3,0,1.3l-.4.9.7.3v1c0,0,1,1.2,1,1.2l.7.3.6.8v.3h-37.2l-.6-.5h-.3c0,0-.2.5-.2.5h-.2v-.4c-.1,0,0-.5,0-.5h-.4s-.2-.8-.2-.8l1.2-.2.3-.7-.6.5h-1.1c0-.1.4-2.3.4-2.3l-.6.7v.8s-.5,0-.5,0l-.4.4-1.5-.6-.6-.7v-.4c-.1,0,.2-.5.2-.5h.3c0,.1.5,1,.5,1h.3s.7-.6.7-.6h-.8c0,.1-.5-.4-.5-.4v-1.6c-.1,0,.4-.7.4-.7l-.2-.4-.5-.3.3.7-.4.5v.8c-.1,0-.8.5-.8.5h-.6c0,.1-.9,0-.9,0l-1.3-1.4-.6-1.8-.2-.4h-.2c0,0,0-.4,0-.4l.8-1.5v-1.6s-.3.4-.3.4v1s-.5,1-.5,1l-.6.3h-1.1c0-.1-.2-.4-.2-.4v-.8c0,0-.4,1.1-.4,1.1h-.4c0,.1-.3-.1-.3-.1h-.8c0,.1-2.1-.3-2.1-.3v-.4c.1,0,2.4-.5,2.4-.5l-.4-.2-1.7.3h-.6c0,0,0-.4,0-.4l.6-.8-.6-.2.2-.6v-.7c-.1,0-.6,1-.6,1l-1.8.3-1.3-.5-1.5-1.4v-.8s.3-1.1.3-1.1l1.2-1.5,2.8-.4h-2.8s-.4.2-.4.2l-.9,1.4h-.3c0,0-.6-1.3-.6-1.3v-1c0,0,.5-1.2.5-1.2h-.6s0-.6,0-.6l.2-.7,1.5-1.1.8-.3.3.6.7.2,1.3,1.6-.8-1.1-.2-.6-.8-.4-.3-.6v-.6s.8-.8.8-.8l.2-.4-.2-.9v.9s-.2.5-.2.5l-1.9,2-.8.3-.5.5-1.1,3.2-.4-1.4-.7-1.1,1.4-1.1v-.9c0,0,.4-.6.4-.6h-.4c0,0-1,1.3-1,1.3l.6-3.1.3-.7-1.3.6-.4-.4-.3-1.9-.5-.7-.9-.6-.9-.3-.4-1.2.2-.8.4-.4.4-.2h.3c0,0-.2,1.1-.2,1.1l1.5,1h.3c0,0,.5-.3.5-.3l1,.3.9,1v-.4c0,0-1.2-1.1-1.2-1.1h-1.3s-.7-.5-.7-.5l-.4-1.4.2-.5.8-.3-.5-.4h-.2l-.8.6h-.3c0,0-1.1,1.3-1.1,1.3l-.2,1.6-.9.5-.4.7-1.1-1.1-.4-1-.7-.2-.8-.6-.3-.5.4-1,.6-.8.2-1.1,1.1-.2.7-.5h-1.2s-.8.4-.8.4l-.9-.6-.5-.6v-.5c-.1,0,.2-1.7.2-1.7l.6-.6,1.4-3.2,1.4-2.2-.6.2-.4-.9-.2,1.8-.9,1.9-.2-.4.4-1.2v-.7s-.4-2-.4-2l.3-2.4-.4-1.2-.5.2-.8-.3-.3-.8-.7-.3-.4-.6-1.5-.5-2.1-1.5h-1.1c0,0,0-.7,0-.7l-.2-.4v-.4c0,0-.9-.5-.9-.5l.3-1.3-1.3-.4.5-.9-5.1-9.1v-.6c0,0-1.7-2.4-1.7-2.4l-2-1.6-.6-1.5-1.5-1.4-.6-.3-.5-1.3v-1.1c0,0-1.7-1.8-1.7-1.8l-2,1.1-1.6.5.3.6v.4c-.1,0-.4.2-.4.2h-.5s0,1.5,0,1.5l-.5,1.1h-1s-2,1.4-2,1.4l-.7.7h-.4c0,0,.2-.7.2-.7l-.5-1.9-4.4-4.6-.3-1-1.5-.9h64.9ZM113.8,415.1l.2-.8.6-1.2-.5-2.7v-.9c.1,0,.5-.8.5-.8l-.4,1.5.4,3-.8,1.9ZM112.2,417l1.5-1.9v.6s-.6,1-.6,1l-.8.5-.2-.2ZM110.8,419.1v-.5c-.1,0,0-.7,0-.7h.6c0,.1,0,.4,0,.4l-.7.7ZM103.4,421.7l.4.4,1.1-.2.6,1v.8s-1.7,1.1-1.7,1.1v.3c.1,0,1.6-.2,1.6-.2l.3-1.3v-1.3c0,0,.7,0,.7,0l1.2-.7v1.1c-.1,0-.9,2-.9,2l-.3,2.9-.2.3-1.4.5h-.7s-1-.9-1-.9l.2-.4,1.1.2-1-.9-.7-.4-1-2.4v-1.2c0,0,.1-1.1.1-1.1l1.7.2ZM113.7,422.9l-.6.8h-.4c0-.1-.5-.7-.5-.7h-.2c0,.1,0,.7,0,.7l-.3-.3.2-.7.8-.7.6.3.3.6ZM115.3,428.6h-.4c0,0-.9-1.3-.9-1.3l-.7-.4-.9-1,.3-.6,2.2,1.4.8,1.4-.4.5ZM118.2,428.9h-.5s-.2-.2-.2-.2l.4-1.3.3.5v1ZM120.9,430.2l.2,3-.7,1.6-.2-.5-.2-1.7v-1.2c0,0-.3.6-.3.6h-.3s-.5-.5-.5-.5l-.7-1.5.6-2.2.7.4,1,.8.3,1.2ZM107.2,428.4l.4.7v1.3c0,0-.6.3-.6.3l-.4-.2-.4.2,1,.9,1.2.4-.6.9.7,1.1h.7s-.3.8-.3.8h.8c0,0,.1.6.1.6l-.4.5-.9-.6-.6-1.1-2.6-2.7-.4-1.1.5-.2v-.3s-1.4-.5-1.4-.5l-.3-.5,1.7-.2,1.1-.5.6.3ZM117.6,429.8l-.4-.2-.4-.7v-.4s.2,0,.2,0l.6,1.3ZM119.2,433.2v.3c-.1,0-.9-1-.9-1l-.4-.8v-.6s1.1,1.1,1.1,1.1l.2.4v.6ZM121.6,434h-.3c0,0,.1-.5.1-.5v-1.6c-.1,0,.2-.6.2-.6h.5s-.5,2.7-.5,2.7ZM110.3,437l-.3-.4v-.9s.4.4.4.4v.9ZM123.5,440.3h-.5l-.4-1,.5-.6.5.8v.8ZM126.6,446l2.1.8,4.6,1,.6.3,1.1,2,1.3,1.8v.3c.1,0,0,.3,0,.3l.4.7.8.7,2.8,1.3.8.9,1.4,3.2.2-.7h.2c0,.1.5,1.5.5,1.5v.3c-.1,0-.7-.1-.7-.1l-.5.7-1.5-.4-3.3-1.3-1.8-1.1v-.4c0,0,1.2-1.3,1.2-1.3l.2-1.2-.5,1.3h-1.9c0,.1-.5.5-.5.5l-1.4-1,.8-.6h-.4c0,0-.5-.6-.5-.6l-.5.2v-.3c-.1,0,0-.7,0-.7l-.4.2-.3-.3h-.6c0-.1-.3.3-.3.3l-.6-.5-.3.4-.2-1v-.3c0,0,1.8-.5,1.8-.5h-.9c0,0-.5-.3-.5-.3h-.3s-.7-1-.7-1l-.9-.4-.3.4h-.6s-.3-.4-.3-.4v-.8c0,0-.2-.4-.2-.4l-.2.4h-.3c0,.1-.5-.6-.5-.6h-.9l-.4.3h-.4s.1-1.1.1-1.1l-.5-.4.2-.7,1.1-.2.7.5-.2-.9.3-.3-1.2-.2v.5c0,0-.5.2-.5.2h-.8s-.9-.7-.9-.7l-.4-.6v-.3s.5-.6.5-.6l1.4-.2.9.3,2.2,1.2ZM135.2,449.6v.4s-.7-1.8-.7-1.8l.2-.7.4.2.5,1.1-.5.8ZM136.1,450h0c0,0-.1-.7-.1-.7v-.6c.1,0,.5.9.5.9l-.3.4ZM129,452.8h-.4c0,0-.8-.7-.8-.7l.2-.4v-.4c-.1,0,.3-.2.3-.2l.4.2.4.6v.9ZM139.6,453.3h0c0,.1-.9-.4-.9-.4l-1.2-1.1h.1c0-.1.9.2.9.2l1.1,1.3ZM131.3,454.5v.6c.1,0-.6-.2-.6-.2v-.5c0,0,.6.2.6.2ZM142.9,457.5l-.7-.4-.6-1,1.3,1.3ZM142.7,458.4l-.2.2h-.2c0-.1-.3-1.3-.3-1.3l.5.4h0c0,.1.3.7.3.7h-.1Z"/>
    <path id="CA-MB" d="M289.6,401.2l-10.3,11.7-9.6,11.5-6.5,6.6v23.4h0v2.5s-26.5,0-26.5,0h0l-2.7-47.7v-33.5h0,30.8s0,6.2,0,6.2l-.3,1.5-.4.2.8.4.4,1.2h.4s.7,1,.7,1l.6.2-.2,3.4.3-.7.3-2,.4-.9.3-.2h1.2c0,0,1.3.1,1.3.1h.9c0,0,.4.2.4.2l.3,1.9,2.8,9.4-.2.9-.6,1.3-.8.9,1.5-.9h.7c0,0-.2.5-.2.5l1.4-.7,3.9-1.4h.9c0-.1,1.3.1,1.3.1l3.4,1.9,3.6,1Z"/>
    <path id="CA-NB" d="M395.7,475.6v.2c0,0-.5,0-.5,0l-.7.8h0l-.7.2-.6-.9.2.8-.8,1.1h-.5c0,0-2.8,1.8-2.8,1.8l-1.4.7h-.3s-.7-.6-.7-.6l.4-.6-.7.5.3.5-.2.2-1.3.8-.3-.3-1.5.5-.2-.5h-.2c0,0-.5,0-.5,0l-.7-.3-.3.3-.7-.7.2-.6-.3-.6.3-.3v-.4s-.7-.1-.7-.1l-.9-.7.2-1.2-.2-7.1-1.8-1.6h-.5s0,.2,0,.2l-1.9.7-.7-.2-.2-.4h0l1.8-.8.8-.7.2-.4v-2.2h1.1v-.4h2.1v.4c.1,0,1.1.5,1.1.5l.2-.2,1.1-.2h.5c0,.1.1-.3.1-.3l.9-.4h.3c0,0,.9-.3.9-.3h.3s.6.5.6.5l1.5.5.4.3.4,1,.3.2h.5c0-.1,1.1-.9,1.1-.9l1-.2-.2.3h.7s.7.4.7.4l-.6,1-.3,1.3-1.7,1.7.5.3.6-.2.9.2-.3,1.1.4,1.2.4.2.3,1.9.4.3v.4c0,0,1.5.1,1.5.1l1.4.5.2.2-1,.5h0ZM393.8,463.5l-.5.3.4-.7v.3ZM393.7,463.9v.5c-.1,0-.5.4-.5.4h-.3s0-.7,0-.7h.7ZM384.1,483.6l-.6.3.4-1.1h.2c0,0,0,.7,0,.7Z"/>
    <path id="CA-NL" d="M425.2,440.6v-3.8s-28.4,0-28.4,0v-.3c-.1,0,.4,0,.4,0l-.4-1.6-.7-.6v-.3c0,0-.5-.2-.5-.2v-.2s.7-.7.7-.7l2.1-.7-.6-.6v-1.3s-.5-1-.5-1h-.2c0,0-.8.2-.8.2l-.3,1.3-.7.3-.2.3v1.8s.3,1.2.3,1.2v1.3c-.1,0-.7.7-.7.7l-.3,1.7.2.8-.9.8h-.4c0,0-.4-.9-.4-.9l.3-.6-1.3-1.6-.9-.7-1.3-.3-.6.9-.8-.2-.2.4h-.2s-.7-.4-.7-.4l-.3-.7-.8-.6-.3,1-.3-.2-.2-.8.3-.9v-1.7c-.1,0,.4-1.7.4-1.7l-.5-.8h-.2c0,0-.2.4-.2.4l-.4.2-.3,1.4-.5.3h-.6c0,0-.5-.5-.5-.5v-1.2c0,0,.4-1.1.4-1.1v-2c.1,0-.5-.4-.5-.4l-.4-.9-1.3-.5v-1.3s-1.2-1.9-1.2-1.9l1.1-1.3-.4-1.6v-.7s.3-.1.3-.1l1.1.4.2-.5.4-.2v-.3s-1.1-2.4-1.1-2.4v-.7s.5,0,.5,0l.6.9,1.3,1.2.6.2.3-.4-.4-2.4v-.6c0,0-.2-.6-.2-.6v-.3c0,0,2.7,2.7,2.7,2.7l1.2.4.4.8.5.4,2.4.2h3.3c0,0,1.8.6,1.8.6h.9c0,.1,1-2.4,1-2.4l-.3-.9v-.4c0,0,1.9-1.5,1.9-1.5l-.2-1.3-.6-.2-.5-.4-1.2-2v-.5s.6-.5.6-.5v-.3c0,0-1.9-.5-1.9-.5v-.4c0,0,.4-.5.4-.5l-.9-.7v-.7c0,0,.7-.3.7-.3v-.3c.1,0-.7-1.8-.7-1.8l.9-1.4v-1c.1,0,.6-1.6.6-1.6l-.2-.7.2-.6v-1.2c0,0,.5-.9.5-.9v-.4c0,0-.4.2-.4.2h-.3c0,0-.7-.8-.7-.8h-.4c0,.1-.8-1.7-.8-1.7l-.7-.7v-.4s1.2-1.7,1.2-1.7l1.1-.8v-.8c-.1,0-.9,0-.9,0v-.7s.4-.3.4-.3l2-.6-.4-.6-.6-.3-2,.8-.4-.8-2.4-.7v-.6c0,0,.3-.2.3-.2l1.6.4.3-.2-.7-.8-.2-.9v-1.4c0,0,.6-.6.6-.6v-.3s-.3-.1-.3-.1l-1.1.5-.4-.6v-2.3c.1,0,.7-.9.7-.9l-.7-.5-.2-.4,1-.6v-.3c.1,0-.6-.5-.6-.5l-.2-.5,1-.5h0l.8.7v.5c0,0-.4.7-.4.7l-1,.7h.2c0,.1.7-.3.7-.3l1.2-.2.4.8v1.1c0,0-.2.9-.2.9l.7-.7.5,1.5.8,1.1-.9.9v.2c.1,0,.8.3.8.3v.6s.6-.5.6-.5h.4c0,0,.5,1.2.5,1.2l-.4.7-.6.3-1.4.2v.2c.1,0,.8,0,.8,0l1.7-.4h.6c0,0,.1.2.1.2l-.4.3.4.8-.3.5h.4c0,0,.6,0,.6,0l.8,1.7-1,1-1.2.8-.6,1h.3s1.1-1.1,1.1-1.1h.3c0,0,0,.5,0,.5l1.7-.7h.6s0,.1,0,.1l-.3,1.3-.6,1-1.1.6-.8.9h.2c0,0,1.7-.9,1.7-.9l1.4-.2.8,1.5h.8c0,0,.7.5.7.5l.3.4-.4.7.3.8-.2.5-1.6,1h-.7s.4.3.4.3h1.3s.7.2.7.2l.3.4-.5,1,.5.4h1c0,.1,1.3,1.5,1.3,1.5l-.2,1.2v1.3c0,0-.6.2-.6.2l-2.3-.3-1.3-.5v-.2c0,0,.3-.4.3-.4l-.9.2.4.6,1.2.5.5.6h.6c0,0,.5.5.5.5l-.7.2-.5.4.3.2,1.8.3.4.2-1.2.6v.4s.6.2.6.2h.8c0,0,.3,1.2.3,1.2l-.6.2v.2s1.1.3,1.1.3l.4.7h.4s.7-.7.7-.7h.4c0,.1,0,.5,0,.5l.6.5v.7c.1,0,.5-.6.5-.6l.6.2-.3,1,.9,1.3-.7.9-.4,1.2-.7,1,1.7-1.3,1.2-.2.7-.4.3.3v.5s.4.2.4.2l.4-.2.3.2-1.3,1.7-.4,1,1.7-1.8.7-1.1h.7c0,.1.4.4.4.4l.9,2.3,1.6.5.7-.3v-.4c.1,0,1.1,0,1.1,0v.8c.1,0,.6.4.6.4l.9.5h.6c0,0,.3.4.3.4l-.7,1.1-.6.4-1.9.3-.3.5-.9.4-.8,1.3h-1.2c0,.1-.5.6-.5.6l-1.9.9h-1.4l-1,.7-.4,1-1.1-.4v.3c.1,0,1.3.9,1.3.9l-.8.7v.2c0,0,.2.1.2.1l-.4.4v.2c0,0,.8-.3.8-.3l1.4-1.4.9-.2,1.3-.8,1.7-1.7,1.1-.7,1.4-.5,1.7-.3-.6-.3h-1.1c0,0-.2-.3-.2-.3l.7-.4,3.3.5.9,1.7.3,1-.5.6-1.2.7.6.4.2.7,1.4-1.5.7-.5,1.6-.2.5,1,1,.3,1.1,1.7.3.9-.4,1.5.3.9-.2,1,.3.7-2.1.5v.2c-.1,0,1,0,1,0l1.3.4.2.3-.3.4-1-.2,1.4,1.1v.7s-2.5,2.4-2.5,2.4l-3,2.3h-.5ZM405.5,395.7l.4.2v.9c0,0-.6,0-.6,0l-.8-.6-.2-.4.7-.2.5.2ZM408.7,407.5v.2c0,0-.8-.2-.8-.2v-.5c.1,0,.4-.2.4-.2l.5.3v.5ZM432.7,437.5h-.2c0,0,0-.3,0-.3l.5-.4v.5c0,0-.4.3-.4.3ZM432.2,439.9l-.5,1-1.9.4v.5c0,0,.1.4.1.4h.7s.2.2.2.2v.9s-.3.9-.3.9l-1,1-.4,1.2-1.1,1.4v.7c-.1,0-1.2,1.7-1.2,1.7v.8c0,0-.5.8-.5.8l.2.4v.6c0,0,1.8-2.1,1.8-2.1l.6-1,.3-.2.2.3-.2.8,1-.5.7.4,1.1-.2-.3.6-1.9,1.2-.4.6.7-.4h.5c0,0,0,.6,0,.6l-.8.8,1.2-.4.6.5,1.3-.4v.8c.1,0,.4-.3.4-.3v-.7s.2,0,.2,0v.7c.1,0-.5,1.6-.5,1.6v.6s.4-.3.4-.3v-.5s.3-.3.3-.3l.6-.4v.3s.2,0,.2,0l2-1.7h.1s0,1.3,0,1.3l.4-.6,1.7-.2,1.4.8.2.4v.8s-.8.7-.8.7l-.6.9-1.1.7,1.3-.2-.5.7,1.1.2v.2s-.4.8-.4.8l-1.4.9,1.3-.4.3-.3h.4c0,0,.4,0,.4,0l.6-.5h.8c0,0,.7-.6.7-.6v.2c.1,0,0,.8,0,.8l-.4.7-.8.3-.3.4-.9.6.2.2v.5s-1.3.4-1.3.4h1s-.2.6-.2.6l-.7.9.4.9h.4s.3,0,.3,0l.4-.5.9-1.6,1.5-1,.2.2-1.2,2.4v1.4c0,0,.1.4.1.4l.8-.6.7-1.4.3.2.2,1.2v.8c-.1,0-1.1,2-1.1,2v.6c.1,0-.2,1.2-.2,1.2l-.7,1h-.4s-.5-.4-.5-.4l-.9.5h-.2s0-3.2,0-3.2l-1.8,1.9h-.4c0,0-.3-.3-.3-.3l.3-1.3,1-2.2-.6-2-.9-.7-1.3,2.9-.3.2.4-1.1-.8.9h-.9c0,.1-1,1.5-1,1.5l-.2.8-.8.9h-.9c0,0-1.1.2-1.1.2l-.7-.4v-.6c.1,0,.5-.3.5-.3l1.5-.6,1.3-1.8,1.4-.8.4-.6-.7.3-.5-.2h-1.2s-.3,1-.3,1l-.6.2-1.2-.4-1.1.2,1.1-.6v-1.4s-.7.4-.7.4l-.4-.2-.6.8-2.2.6-3-.4h-.8s-1.1-.3-1.1-.3h-1.7s0-.4,0-.4l-1.2.7-2.1.4-.6-.4-.3-.6-.2-1,.4-.7,1.3-1,1.5-1.6,1.2-.7h-1.7c0-.1-1.9,0-1.9,0v-.2s1.4-1.2,1.4-1.2l-.3.6.3.3h.5s1-2.6,1-2.6l.4-.5h.9c0,.1.6.6.6.6h.3s-.5-.6-.5-.6l.5-1-.9-.2v-.8c0,0,.4-.7.4-.7l.4-.3.7.5h.3c0-.1-.5-.8-.5-.8v-.7c-.1,0,2-5.3,2-5.3l.4-.7h.6c0,0-.5-.6-.5-.6l1-1.1.2-.6v-.5c-.1,0,.8-.8.8-.8l.6-1.4,2.8-1.6h.5s.2.4.2.4l.7.3v-.3c.1,0,0-.3,0-.3h.1c0-.1.6-.3.6-.3l.3.2v.2ZM431.9,445.4h-.4s.1-.4.1-.4h.6c0-.1-.3.4-.3.4ZM438,451.9l.5.5-1.3.4v-.8s.4.2.4.2l.3-.4h.2ZM436.1,452.9l-1,.6-.3-.5.2-.2.3.2.7-.5v.3ZM437.5,466.7l-.4.2.5-1.1.4-.4-.4,1.3Z"/>
    <path id="CA-NS" d="M408.2,476l1-.2v.2s-.7.4-.7.4l.3.3-.5.5v.3c.1,0,.7-.3.7-.3h.8s1.2-1.3,1.2-1.3l-1,.2h-.1c0-.1.7-.8.7-.8v-.3c0,0,.3-.5.3-.5l.9-.7.3.7h.6c0,0,1,.2,1,.2v.3c0,0-.3.6-.3.6l.5.3h0c0,.1-.7.5-.7.5l-1.6,1.4-1.2.4h-.8c0-.1-1.8.1-1.8.1l-.7-.9-.2-1.4v-.7c0,0,.4-.7.4-.7l.7-.8,1.6-3.1,1.3-1.3h.7s0,.5,0,.5l.4,1.2-.6,2v.9c0,0-.4.6-.4.6l-2.3,1.4ZM394.5,476.7l.7-.8h.5c0,0,0-.3,0-.3h0l1.4.9h.8c0,0,.9.6.9.6h1.6c0-.1.9,0,.9,0l-.2.6h.7c0,0,.4.2.4.2l2.2-1.5.3.9.4.4h.5c0,0,.7-.2.7-.2l.6.7.3.8-.8.5h1.5c0,.1.3.5.3.5l-.3.4h-.3c0-.1-.5,0-.5,0l-5.2,2.4-2.2.8h-.5s-.6.4-.6.4h-.6s-.6-.2-.6-.2l.3.8-.3.4-.9-.2-.8-.8-.4.9-.3-.6-.5.2-.2.6.3.7-.3.3h-.2c0,0-.4.6-.4.6l-.5.3-1.2,1.6-1,.8h-.6s-.4.3-.4.3v.7c0,0-.4,0-.4,0l-.2.3-.4-.2h-.4c0,.1-.3,0-.3,0l-.6-1.4h-.4c0-.1-.3.3-.3.3l-.4-.4-.3-1.9.4-1.3,1-1.2h-.3s-.9.8-.9.8l.5-.8.4-.3,1.3-.4.5-.5-1,.4.3-.4,3.2-2.2,1.9-.8.2-.3-.2-.2.5.2v1c0,0,.4.1.4.1l.4.5-.2-.7.4-.4,1.5-.6h1.2c0,0,.4-.3.4-.3l-1.1-.2h-1.2c0,0-.8-.1-.8-.1h-1.1c0,.1-1.1,0-1.1,0l-.6.5-.7-.3.4-.6,1.1-.9,1-1.3ZM408.8,478.8h-.2c0,0-.3-.4-.3-.4h.7c0,0-.2.4-.2.4ZM386.2,485.9l-.2.2.5-.8-.3.6ZM413.8,488l-1.1.2-.3-.3h1.1s.6-.3.6-.3l-.3.4Z"/>
    <path id="CA-NT" d="M199.9,132.9v7.8h0l-1.8.6-1.4-.3-1.8-1.6-.3.2-.9,1.9-.4.3-1-.2-1.6-1.7-1.8.5-1.9,1-.7.2-.5-1.1.6-1.6,1.3-1.2,2.7-1.7,2.2-.6.8-.6.5-.9,1.4-1.4.8-.6,1.1-.5h.9s1.7,1.5,1.7,1.5ZM199.9,145.6v3.3h0l-3.2,1.5-.5.5.2.6.4.4h1.8c0,0,.4,0,.4,0l.3,1.2v1.8s-.3,2-.3,2l-2.1,1.5-.9.4h-.7c0-.1-.7,0-.7,0l-3.1,1.6h-1s-.8-.4-.8-.4l-1.2-1.6-1.2-.6-1-1.1-.2-1,.4-1-.7-3.6v-1c0,0,.4-1.1.4-1.1l1.6-.6,2.1-1.3,4.7-1.7,1.4.2.6-.3h1.1c0-.1,1.9.1,1.9.1ZM183.6,152.4l-1.2.7h-.8s-1.4-1-1.4-1l-1.6-3-.2-1.1.6-.2,1.2-1.3,1.2-.8.2,1.5h.4c0,.1.4.5.4.5l.8,1.3.6.2.6,1.4v.4s-.9,1.2-.9,1.2ZM176.2,160.1l.3.8v.6c-.1,0-.6.5-.6.5l-2.5,1.7-.5.8.2.7,1.8,2.5.2.6-.4.6-.8-.2-.6.3v.5c0,0,1,1.7,1,1.7l.3,1.4-1.2,1.8-1.1.6-2.3.8-.2,2.9-.5,1.4-.8.5h-.6l-1.5-1.3-.6-1.1v-.7c-.1,0,.1-2.3.1-2.3l.8-3.9-.2-.4h-.3s-1.4.8-1.4.8l-.4.4-.5,1.4-.3,2.1-.5.4h-.7s-.3.2-.3.2v.9s.6.8.6.8v1.5l-.7,1-.8,2.4-.4.4h-.4s-.3-.6-.3-.6l-1.2-3.2-.2.2-.3.8v2.2s-.4.7-.4.7v.3c0,0,.8.8.8.8v1c0,0,0,.3,0,.3h-.3s-.5,1.2-.5,1.2l-.8,1h-1.1c0,.1-1.1.6-1.1.6l-.7-3.2-.3-.5-.6-2.3-.3-.3-.2.3-.5,2.5-.8.6h-.9s-1.1-.6-1.1-.6l-.9-.3-.6.3-1.5,1.3h-.6c0-.1-.5-1.1-.5-1.1v-.4s.4-.9.4-.9l-.3-.7v-.7c0,0-.3,0-.3,0l-.9.5.5-1.7,1.1-2.3.7-.9,3.2-.7.2-.2,2-3.8,2.6-2.5.7-2.1.5-.5,1.6-2.7,2.2-3.2,1-1.2,1.1-.5,3.5-.9,2.5,1.2h.6c0,0,.6-.8.6-.8l.4.2.9.2.6-.8-.3-.4-1.1-.7v-.7s.8-1.3.8-1.3l1.4-.4h.6c0,0,.7.6.7.6l.9,1.1,2,1.9ZM184.7,171.9l-.6.6-4.4-.9-.4-.7.8-1.1,1-.5,2.3-.4.8.4.8.9v.8c.1,0-.2.7-.2.7ZM199.9,193.3v11.5h0l-1.6.6-.7.5-.9,1.5-.8.8-3.4,2.2-3.4,1.4-2.1.2-2.1-.4-1.4-.9-1.8-1.8-.5-1.1.3-.7.8-.8,1.1-.8,2.3-1,2.1-1.6.7-.3,2-.3,1,.2,1.2-.3,1.8-1.8.8-1.1.2-.5-.3-.5h-.4c0,0-1.9,1.5-1.9,1.5h-.7s-1.8.6-1.8.6h-.2s-1-1.1-1-1.1l-.5-.2-.5.4-.6,1.1-.4.2-3.2.6-.4-.3-.2-.5-.2-1.6v-.8c.1,0,.5-1,.5-1l1.2-1.6h-.5c0,0-1.2.7-1.2.7l-.6-1-.6,3.3-.5-.2-.6-.5h-.2c0,0-.1,0-.1,0l.7,1.7v.5s-.4.9-.4.9l-2.4,1.8-.5-.5-.6-1.5-.6-.2-.5.6-.3,1.2-.5.7-1.8-1.2-1.4-2.2-1.6.3h-.7c0,0-2.1-.9-2.1-.9l-.4-1.1.4-1.4.5-1.1.6-.6.4-.2h1.1c0-.1,2.9-.2,2.9-.2l.6-.2,3.2-2.1.8-1v-.5c0,0-3.8,1.7-3.8,1.7l-1.7.4-2.6-.3-.5-.3v-.5c-.1,0,.7-1.7.7-1.7l.7-.4,1.8-.6,2.3-.6h1.5s1.3-.5,1.3-.5l.8-.5-5.7.3-1.3-.8v-.5s.4-1,.4-1l-.3-1v-.4c0,0,.7-.8.7-.8l1-.9h.6c0-.1,1.2.2,1.2.2l3.5.3h.7c0-.1-1.1-.8-1.1-.8l-3.3-.7v-.8c-.1,0,0-1.2,0-1.2l.8-1.3,2.5-1.1,1-.2h1c0,0,1,.6,1,.6l.4.4.3,1,.2,1.7.6,1.3.4.4,2.8-.9.8.2,1.2.8,1.5,2.3,2,2.3v.5s-.8.8-.8.8v.3c-.1,0,0,.2,0,.2l2.2.2,1.2,3.6.5.7.5.4h.7s.7-.2.7-.2l3.1.4ZM199.9,181l-1-1.1-.3-1.1.2-.9,1.1-1.1h0v4.3ZM164.4,192.6l-1.2,1.1h-.9c0-.1-1.1-.9-1.1-.9l-.9-.3-.3-.3v-.3s.7-1.4.7-1.4l2.6-3.6,2.1-1.5,1.6-2.1h.5s.5.2.5.2v.4c0,0-.5,2-.5,2l-2.6,6.2-.4.5ZM152.7,189.8h-.3c0,0-.4-.1-.4-.1v-.4c0,0,.9-1.2.9-1.2v-1c0,0,.1-.4.1-.4l.3-.2.2.5-.2,1.6-.7,1.2ZM158.4,216.6l1.1-1.4h1.1c0,0,.2.5.2.5v2.4c.1,0,1.7-2.7,1.7-2.7l.9-.8,1.5-.3h1s1.9.5,1.9.5l1.3.9,1.1,1.1,4.2,5.4,1.4,1.2.5.7.4,1.2v1.2s-.5.7-.5.7l-2,1.4-2.1,1-2.5,2.1-1.7,1-2.2,2-4.2,3.1-.7,1.1-1.2,3.5-.4.8-1.1.8-1.4.2-.4.2v1.2c0,0-.8,3.3-.8,3.3l-.3,3.5-.8,1.7-1.3.8-2.3.8-.6-.8h-.5s-1.7,2.4-1.7,2.4l-1.7,1-1.2,1.3h-1.1s-.5-.3-.5-.3l-.8-1.3-1.2-3.7-1.4-2.5-3.2-2.1-2.3-1.9-2,.2-.3-.2.3-1v-1.2s.8-.6.8-.6l-.2-.4v-.6s.5-.7.5-.7l.6-1.6,1.7-2.3-.2-.8.3-2.9.2-.3,1.5-.9v-.3c0,0,0-.9,0-.9l-.6-.3-.3-.5v-1c0,0,1-1.7,1-1.7l.7-2.6,1.3-1.6.4-1.8,1-1.9-.3-.9-.9-.4-.4-.7-1.6-5.4-.6-1.2v-.3c0,0,5.3-1.4,5.3-1.4l3.6-.4,3.7-1.2h1c0,0,.8.2.8.2l3.2,2.8,2.6,1.6,1.6.3-.7,1.2v.7ZM199.9,233.6v40.1s-10.6,0-10.6,0v1.1l-.6,1h-1s0-2.1,0-2.1h-17.8s0,1.4,0,1.4l1.6,2.4.2.6h-.9l-1.1-1.9-.4-3.1.3-.6,2.5-.9,4.4-1,4-.7h1.8c0,0,1.1.4,1.1.4l3,.2,2.4.5,1.6-.4.3-.3h1.7s.6-.4.6-.4l-.4-.5-1.7-1.2-4.4-2.2-2.6-1h-.9c0,0-1.6.2-1.6.2l-2.2.7-4.9.5-1.4-.5-2.8.3-2.5-.3-2.9-3.3-.5-1,.5-.9,1.9-1.6,2.1-.7,3.8-1.7,2.3-.6-.7-.6v-.4s.3-.2.3-.2l1.1-.2,1.1.3h.6c0,0,.2-.4.2-.4v-.2c-.1,0-1.2-.5-1.2-.5l-5.1,1.4h-2.4c0,.1-1.6.7-1.6.7h-.9s-1.1-.6-1.1-.6l-.2-.4.3-.8,1.1-.5.6-1.3-2.7.3h-.9c0-.1-1.2-.6-1.2-.6l-.5-1.1.2-3,1.5-2.5.9-.5.7-.8v-.7c-.1,0-1.1-1.6-1.1-1.6l.5-1.5,3.5-4.3,1.3-1.2,1.2-.7,1.7-1.4,4.3-2.3,3.9-2.4,1.4.6.4.5.3,1,.3,2.3v1.6s-.2,1.4-.2,1.4l-1.8,3.8.3.2h.5c0-.1,1.6-1,1.6-1l1.1-.3.3.4h.2c0,0,.3-.7.3-.7v-1.8s.9-1.8.9-1.8l.4-.5.6-.2h1.4c0,.1,3,1.6,3,1.6l2.5,1.8.8.8v.6c0,0-.4,1.4-.4,1.4l-1.1,1.9-1.2,1.1.6.3.4.5,1.5-2.2h.2c0,0,0,0,0,0v1.2c0,0,.3,0,.3,0h.2c0-.1.8-1.1.8-1.1l.8-1.4,1.1-.9.3-.5,1-.4v-1.4s-1.5-1.5-1.5-1.5l-.6-1.2v-.9c.1,0,2.9.4,2.9.4ZM154.4,279v18.4s17.4,13.8,17.4,13.8l17.4,13.1h7.8c0,0,4.9,6.1,4.9,6.1l1.3.9,1,.3,29.7,5.4v38.5h-93l-.3-.3h-.6c0,0,0-.7,0-.7l-.8-1.7-.2-1.1v-.2c0,0-.8-.2-.8-.2l-.8-1.5v-.3c0,0,.4-.8.4-.8l-.3-1.4h-1c0,0-.3.8-.3.8h-1.2c0,.1-.7.6-.7.6l-1.6-.4-.8-.4-.4.7-.7-.5h-.3c0,0,0,.5,0,.5l-.3.2h-1c0-.1-.6.2-.6.2h-.8c0,0-.4-2.5-.4-2.5h-.5s-.2-.2-.2-.2l.3-.5v-1s-.2-1.2-.2-1.2l-.4-.8-.6-.4-1.3-.2-.8-.8-.8-.8-.2-.9-.7-.5-.8-1.5-.7-.8h-.5s-.6.5-.6.5l-.4-.5h-1c0,0-.5-.3-.5-.3v-.6c0,0-.2-.7-.2-.7l.2-.7-.2-.5.5-.6-1.3-1v-.7c-.1,0-.6-.4-.6-.4l-.4-1.1v-.9s.5-1.2.5-1.2l-.9-.3-.3-.9-1-.8v-.4c.1,0,1-.8,1-.8l.3-.8-.2-.7-.4-.6-.4-.2-.2-.6-.6.2-.3-.2.2-.3.6-.3v-.2s-.7-.3-.7-.3l-2-1.6-.7-1.3v-.7c0,0-.8-2-.8-2l-1.1-.6-1,.8h-.9c0,0,.3-1.5.3-1.5l-.7-.4-.9-1.2-.9-.6-1.1-.3v-.3c0,0,.4-.6.4-.6v-.7s.6-1,.6-1l-.7-.4v-.8c-.1,0-.3-.1-.3-.1l-.5.2-.3-.4v-.2s.8-.6.8-.6l.2-.6.8-1.1.6-1.6-.4-1.2-1.1-1.5v-.3c0,0,.9-.7.9-.7v-.2s-.1-.2-.1-.2h-.5s-.6-.4-.6-.4l-.9,1.1-.3.2-.3-.2.2-.7v-.3c0,0-1.3.2-1.3.2l-.8.5-.9-.2-.2-1.3.5-.9v-1.1c0,0-.9-.2-.9-.2v-.2s.2-1.2.2-1.2h.4c0-.1,0-1.3,0-1.3l-.5-.9-.2-.9v-.9s-1-1.4-1-1.4v-.7c-.1,0-9.1-.1-9.1-.1l-.2-.8v-1s.5-1.4.5-1.4l-.3-1.3v-1s-.2-1-.2-1l-.7-.7-.2-.9v-13.2h0l1.4.2,1.1.6,2.1,1.6h.4c0,.1.1,0,.1,0l-.9-1.7-.9-.6-1.1-.4v-.8c-.1,0,1.3-.2,1.3-.2v-.2c0,0-.7-.3-.7-.3l-.7-.7.9-2.4.3.2.5-.6.9.4.2-.2v-1.2c.1,0,.5-.5.5-.5l1.2-.2,1.5.2h.2c0-.1-.2-1.3-.2-1.3l.2-1.1.2-.2.7.2.7,1.4.8.4v.3c0,0-1.2,3.1-1.2,3.1l2-1.4,2.3-.8.6-.9.5-1.5.3-.3h1.3c0,0,.5,0,.5,0l-.3-.4h-.4c0,0,.3-.6.3-.6l.7-.2.4.5h.3s1-.6,1-.6l2.1-2h.5c0,0,.4.2.4.2h.3c0,0,.9-1.9.9-1.9l1.1-.9.7-.2,1.4.7h1c0,0,.9-1.3.9-1.3h.2s.6,1.1.6,1.1v.4l-.5,1-3.5,2.7-1.6,1.6-4.7,1.4-.8,1.6-.9,1.1-.6.4-.9.2-.6.7-2.6,4.3.3.9.6.4h.3c0,0-.8-.9-.8-.9v-.3c0,0,2.6.4,2.6.4l.7-.7v-.2s-.7,0-.7,0v-.3c-.1,0-.3-1.1-.3-1.1l.2-.8.7-.7.8-.3,1.9-1.5.6-1v-.4c-.1,0,0-.4,0-.4l1-.4.9.3.2.2v.7c0,0,.6-1.1.6-1.1h.4c0,0,.2.3.2.3v.8c.1,0,.2,1.9.2,1.9l.4-1.3,1.5-3,.7-1.1,1-.8,2.3-1.3,2-.7.9-1-.2,1.1-.9.5v.4c0,0,.2,1,.2,1l.2.2.9-.6,2-2.6.5-1.8.8-.7,1.4-.8.3-.5-1.2-.4-.3-.5.2-.4-.8-.7.2-1.3.6-.6,1,.7,2.2,2.8,1.3,2.9.7,2.6.6,1.5,2.3,3.2,1.4,1.1.9.3h.6s.9-.9.9-.9v-.6s-.8-1.8-.8-1.8v-.4s.6-.9.6-.9v-1.2c0,0,.6.1.6.1l1.3-2.1-.9-.5,1-.7.2-.5.6-.4.5.5v2.4c-.1,0,.2,1.9.2,1.9l.2.4,1,.5v.5c0,0-1.5,2.8-1.5,2.8l.2.6.4.2h1c0,0,.3,0,.3,0l2.2-.2.7-1.3.6-.5.6-3,.5-.4h.7c0,.1,3,0,3,0l2.3.5,2.4,1.4,1.2,1.2Z"/>
    <path id="CA-NU" d="M372.5,14.7l3.5.6,1.1-.2,1.3,1.5.8.2,1.3-.3.9.4,3.5.3.7.6v.7s-.8,1.5-.8,1.5l-1,1.5-6.5,4.8-.5.8,1.3.2,1.9-.2,1.4-.5,1.7-1.6h.6c0,0,1.1-.9,1.1-.9l2.1-2.2,1.7-1.2.8.5.6.8h.4c0,0,.8-3,.8-3l.6-.5h.3c0,0,.5.9.5.9l1.2,3.3h.3s1.3-1.5,1.3-1.5l.6-.2,1.5.6.6.7v.7c.1,0-.6,2-.6,2l.2.6.9,1.4,1.3,2.9v1.1s-.7,2.2-.7,2.2v.5s3.3-2.3,3.3-2.3l3.3,1,.9.7.4.8.8,3.2-.3,1.9-1.5,3-1.5,2.3-.9,2.1-1.4,1.1-4.7,4.9-2.3,1.6-1.3,1.5-.6.3-2.8-.3-.7.8-.4,1.4-.9.7-1.3.5-2.6.4-1.2,3.8-7.6,5.5v.9c-.1,0,.6.4.6.4l1-.4,11-6.6,2.1-.4,2,.5-.2,1.6-2.8,4.4-3.5,3.9-1.8,2.9-4.5,4.9-3.6,4.8-1.4,2.4-1.9,4.2-.6,1-.8.4-.9-.2-.8-.6-2.4-3.6,2.1,6.7-.2,1.1-3.6,1.2-1.6,1-.8.2-.6-.2h-.6c0,.1-.5.5-.5.5v.4s.5.5.5.5l1.4.4,3.2-1.3h.5c0,0,.8.7.8.7v.6s-.8,1.8-.8,1.8l-2.5,2.1h.3c0,.1.7.9.7.9v.7s-1.2,2.1-1.2,2.1l-2.5,1.4-1.1.3-.9-.2-4.3-3.2-1.5-.5-1.4-.8h-1.1c0,.1-1.1,1.1-1.1,1.1l.5.5,2.1.9,1.7.2.7.3,1,2.7v1.1c.1,0-.3,1.8-.3,1.8l-.3.4-.4.2h-1.7c0-.1-.6.1-.6.1l-.7.6-.9.3h-1.7c0-.1-2,.8-2,.8l-1,.2-1.1-.4-1.2-1-1.3-.5-2.2-.4.2.6.8.2,1.6,1.5.8,2,.7.3,1.5,1.6,1.1.3,1.1.6,1.6-.7h1.1c0,.1-.2,4.1-.2,4.1l-.5.4h-2.5l-1.2-.6-.5-.6-1.2-.7-1,.4h-1c0,0-.6.3-.6.3h-1s-2.7.7-2.7.7h-1.4s-1-.4-1-.4h-1.2c0-.1-1.4,0-1.4,0v.5c0,0,.7.1.7.1l.9.7.8,1.1.7.5,1.6-.8,2.9-.9h1.3c0-.1,1.1.2,1.1.2l1.3,1.1.7,1.5,1.7.2,1.3.5,2,2.2.6.2.2.6-.4,1.4v.8s-1.5,1.6-1.5,1.6l-2.2.5-2.4-.2-1.7.2-.2.2,1.2.4,2.8,1.9,1.1,1,.2.6-1.5,2.2-1.3,4.4-.4.3h-1.6s-1.5,1.1-1.5,1.1l-1.1.2-2.1-.4h-2.4s-.3,2.1-.3,2.1l.2,4.6v1.9c-.1,0-1,2.1-1,2.1l-.9.9-1.6.7h-1.1s-3.3.6-3.3.6h-1.6s-1.2-.3-1.2-.3l-1.3-.9-2.1-2.4-1.2-.9v.5s.7,1.4.7,1.4l1,1.3v.4c0,0-1,.6-1,.6l-1,.3h-1.2s0,.2,0,.2l1,1.3.4.2.9-.2,1.1-.8.7-.2,1.4.2.5.3,1.9,1.9,1.3-.9h1.8s.7.7.7.7l.3,2.5-.2.9.4.8,1,.8.8.2,1.4-1.6.4-.3h.3c0,0,1.2,2.4,1.2,2.4v1.8c0,0-.5,2.1-.5,2.1l-.7,1.3-2.8,2.2-1.5,1.7-1,.8-1.9,1.1-1,.2-2.1,1.1h-.5c0,0-.7-.1-.7-.1v-.6c-.1,0,.5-2.8.5-2.8v-.7s-.6-1.1-.6-1.1l-.8-.8-.8.2-.5.3h-.5c0,0-.5-.1-.5-.1l-.5-.5-.9-2-.3-.3h-.4c0,0-.4-.2-.4-.2l-.9-1.3,1.1,2.7.2,1.1v.9c-.1,0-5,.5-5,.5l-2.1-.3-.4-.8-1-3.3-.2,5.8-3.7.9-.9-.2-1.4-.6-1.9-1.6-.8-1-.7-1.7-.5,1.2-.5,2.5-2.9-1.3-.6-2.5v3.6s-2.6-.5-2.6-.5h-1.2c0,.1-.4-3.1-.4-3.1v-3.6c0,0-.6,2.3-.6,2.3l.3,4.2-1.1-.7-2.4-.3-.9-.3.3-6.2,3.1-3.1.9-1.5.7-.6,1.1-.4,1.4-.2.9.2,1.1-.2,1.3-.6.9-.2.2-.2-1.6-2.8-1.1-.3-.7-.9-1.5-4-.7-2.4.3-1.3,1.1-1,1.1-.7,1.1-.4h.9s2.7,1.7,2.7,1.7l.9,1.3,1.9,4.7.6.9,2.7,1.7.9.3,3.3-.6,1.1-.5.5-.6.6-1.4,1-1.4,1.5-2.9.8-2.4.5-2.9-.5.6-3.1,6.9-1.5,1.8-.6.3h-1c0,0-1.4-.9-1.4-.9l-1.6,1.2-1-.3-.9-.9v-4.1s-1.1-3.3-1.1-3.3l1.2-1.7,1-1.1,1.8-2.8h.4s1.3.4,1.3.4l-1.4-1.6-1.5.2.5-6.1-1,4.6-1.7,3.5-.7.7-2.7.6.7-2.2.6-3.3-.6,1.2-1.5,1.8-1.1,1-.9.5h-1.8c0-.1-.9-1-.9-1l.3-2.3v-2.8l2.3-5.3.6-2.4,2.4-1.1,2.3-.4,2-1.3,1-.2.9.6,3.7,1,2.7,1.5,1.2-1.6h2.3c0,0,1.2-.4,1.2-.4l1.6-1.9v-.6c.1,0-.5,0-.5,0l-.6.3-.9.8-.9.5h-.9c0,0-1.8-.8-1.8-.8h-3.1c0-.1-1.6-.5-1.6-.5l-.7-.3-.4-.5-.7-1.7.2-.7.6-.4h.5c0,0,1.8,1.3,1.8,1.3h1.1c0,.1-.4-.7-.4-.7l-2.3-3.1-3.8-9-.8-1.2-.8-.6-2.4-.8-.5-.5-1.2-2.5-.3-4.2-.5-2.6.5-3.4.8-1.5,4.9,1.2,2.1-.2,2.6.4,1.4.8,1.6,2,1.4,2.3,1.4,1.5,1.3,2.1,1.4,3,1.5,2.3,1,.8,1.8.9,1.6.3h.8c0-.1.9-.8.9-.8l.6-.8-.7-.2h-1.8c0,0-1.3-.3-1.3-.3l-1.5-2.3-2.1-4.1-2-2.7-1.5-2.7-1.2-2.6v-1.1c-.1,0,.8-.8.8-.8l1.1-.6,6.6-1.8,4-2.1,1.6-2.5.2-.6,5.3-3.6,3.7-1.3,1.4-.2,1.3-.6v-.4c0,0-1.1-.5-1.1-.5l-1.2-.2h-2.6s-2.3-.4-2.3-.4l-.7-.8.4-2.5.7-1.9.8-1.5,3.2-4.3,2.2-1.8.6-1.3-4.6,2.8-1.6,2-1.6,3-.8.9-.6-.2-.5.3-.5.8-.4,1.4-.6,3.5-.9,1.8-1.6,2.1-3.7,2.9-1.2.7h-1.1c0,.1-3.5,1.7-3.5,1.7h-1c0,0-1.2-.4-1.2-.4l.5-1.4,1.8-2.6.5-1.2-1.2.3-1.2.7-2.6.6-1,1.1-1,1.9-.8,1.2-.6.5-.8.3h-3.1c0,.1-.7,0-.7,0l-1.8-1.4-1.6.5h-.7c0,0-1.2-1.1-1.2-1.1l-.4-.7v-.9c0,0,.7-1.7.7-1.7l.8-1.6,2.6-3.6,1.7-1.7,2.4-1.5,5.7-1.7.3-1.2-5.7,1.4-4.9,1.7-.8.6-1.1,1.7-4.7,7.5-1.6.4-1.2-.5-4.5-4.1-.9-2.3.4-.7,3.2-1.6,4.4.3,2-.3,1.9-1,2.8-2.4,3.1-3.4.6-1.1-1.1-.2-.8.3-2,1.2-3.2,3.3-2.8,1.2-6.9.6-2.2.9-1-.2-.7-.9-.8-1.6v-1.3c.1,0,1.8-1.5,1.8-1.5l1.3-.4.2-.3-1.8-1.5-.2-.8,1.1-1.7,2.3-2.5,1.1-.8,2.1-.5,2.2.3v-.5c0,0-2.1-1-2.1-1l-1.6-.2-2.1.7-5.6,4h-.5c0-.1-.8-.8-.8-.8l.2-1,3-4.3v-.7c0,0-2.1,0-2.1,0l-.6-.2-.6-.5-.9.5-1.1,1.4-.8.6-.5-.2-1.2-1.7.2-1.4,1.8-3.1,1.2-1.2,1.9-1.5,1.4-.5h2.3s1.1-.7,1.1-.7l2.2-3.1,1.3-1.3,2.1-1.1,1.8.4,1,1,.8,1.7.9,1.3v-1c0,0,.8-1.3.8-1.3l.9-.5,1.1.2.9.6,1.2,1.5,1,.7h.5s.6-.9.6-.9h1.5s-.5-1.3-.5-1.3l-.6-.6-5.4-4.4v-1c-.1,0,1.7-.9,1.7-.9l1.1-1.1.5-.3,2.2-3.6,1.6-1.4.6.4.8,1.3.8.8,2.3.7,1,.8,2.5,5.8,1,1.5.6.5,1.2.3v-.8c.1,0-1.3-2-1.3-2l-.4-1.2.2-1,.3-.5h.4s1.1.9,1.1.9l2.9,3.1,4.4,3.6,1.7.8,2.9,3.8h.2c0,0-.9-2.5-.9-2.5l-2.1-2.9-5.7-5.1-2.3-2.7-1.1-1.8-.8-1.9v-1s.8-1.2.8-1.2l1-1,1.3-.4.2-.4-1.2-1.5-.7-1.3v-.9s1.4-.7,1.4-.7l.9.2,1.7,1.6,1.4.8.2-.5-1.4-4.3v-1c-.1,0,0-.6,0-.6l.5-.6,1.5.3,2.5,2.1,4.4,1.1,1.2-.2-.2-.5-1.8-1.3-1.9-1.8-.8-1.1-1.3-2.7v-.6c0,0,1.1-.9,1.1-.9l3,.2,2.8,1.5,2.4-.5,1.5.4.6.4,1.1,1.6,3.4,5.6,1.2,4,.6.5,1.1-1.2.8-1.2-.3-1.2-1.9-2.7-1.4-3.1-2.1-3.6-.9-3.1,5.9-1.4,5.7,1.2.9.8,2.1,4.7,1.8,2.7,2.6,1.7-.5-1.1-2-3-.9-2.1.2-2.5.3-.8,2.2-2.9,3.2-.9.4.2,2.5,4.4,1.2,1.8.8.7v-.3s-1.1-2-1.1-2l-.9-1.1v-.7c0,0,1.4-2.2,1.4-2.2l.9-.5,3.8-.6.4.2.4.6.9,2.4.3.3ZM277.1,73.2l.6,2.3,2.1,5.4.9,1.9,1.6,2.4.2.9v1.6s.4.5.4.5l1.4.7,1.5,1.3h.3c0,0,.5-.8.5-.8l.6-.2.8.2.4.5.4,1.8-.3.9.2,1.2-.3,1.8v.7c0,0,.8,1.6.8,1.6l.7.8,1.4.9h.9c0,0,.6.5.6.5l-.2-1.4-.5-1.5-1-.8-.2-2.3v-1c0,0,.6-.8.6-.8l.4-.3h1.3s.7.3.7.3l1.2,1.1.2,4.7-1,1.3-.2.9,2.5,1.3h.5c0,0,1,3.7,1,3.7l-.7,5.6-.6,1.9.2.2,1.4-.5,1.2-1.3,1.3.3.4.3.2.4.7,3,.2-.2.6-2,.5-1,2.6,6.7v1c0,0-1,1.7-1,1.7l-3.4,2.5-1.5,1.4-1.1,1.4-.8-.2-.2.2-.5,2.4-2.3,4.1-1-.7-.3-1-.2-3.1.6-3.4-.9,1.1-.5,1.4v4.1s-.1,1.1-.1,1.1l-.3.5v.4c.1,0,1.1.8,1.1.8v1.7c0,0-.2.9-.2.9l-.5.4-.6-.4-1.3-2.3h-.5c0,.1-.1.4-.1.4l.5,2.6v1.5c0,0-.5,3.2-.5,3.2l-.4,1.2h-.6s-.5-.5-.5-.5l-4-8.4-.2,1.2,2,5.7.4,1.6v.7c0,0,0,.3,0,.3l-1.5-1.6-.7-1.1-.5-.5-.7-.3h-.7c0,0-.7.1-.7.1v.3c-.1,0,.9,1.3.9,1.3l.3,1.3-.3.4-1,.3-1.3-.2-2.1-.6-2.1-1-1.9-1.6-1.4-1.6-.6-.9-.2-.6.5-.6,1.8-.7,1.8-.5-.3-.4-3.3-.9-1.1-.2-.6.2h-.7c0-.1-.5-.9-.5-.9l-1-2.4v-.4s.3-.2.3-.2l1.5.2h.2c0-.1-.8-.9-.8-.9l-2.4-1.4-.9-1.3-.2-.5v-1s.9-1,.9-1l2.8-2.3,1-.4h1s.7-.7.7-.7l.6-2.2,2.9-.8,2.2-1,.2-.3-1.7.2-2.4-.2-1-1.5-.7-.3h-.8s-.9.5-.9.5l-1.5,1.4-.7.3-1.6,1.5h-.5c0-.1-.3-.6-.3-.6l.3-1,.4-.7v-.2c0,0-.7-.1-.7-.1h-.7s-.5.3-.5.3l-1.9,1.3-1.1,1-.9-1.5-1.4-.8-.3-.6.3-2.5.4-.5,1.1-.4,3.3-2.3.5-1.6-.8.3-1.7,1.2-1.4.6h-1.1s-.8-.2-.8-.2l-.5-.3-.6-.7-2-3.4-.5-1.7-.2-2.6-.6-2.8,4.2,1.7,1.7.3h3.2c0,.1.1,0,.1,0v-2.1c.1,0,1.5-1.3,1.5-1.3l-1.4-.2-2.6,1.7h-.9s-1-2.4-1-2.4l-1.1.4-.5-.2-1.2-1.1-.4-1.2.3-1,.9-.7h.4c0,0,1.1.4,1.1.4h.8s-2.6-4.8-2.6-4.8v-3.6c0,0,1-.8,1-.8h.9c0-.1.9.8.9.8h1.2c0,.1.9,1.2.9,1.2l.6,2h.7s1.1.3,1.1.3h2.4s-.4-.7-.4-.7l-.7-.6-1.7-.8-.8-2.9-1.7-1.5-1.4-.8v-.7s1-3.7,1-3.7l1.2-1.3,2,.5,1.3-.7,1.7-1.3,1.6.6h.4c0,0,.2-.5.2-.5l.2-1.5-.7-1.5h-2.1c0-.1-.9-.4-.9-.4l-.4-.4-.2-2.1.2-.7.5-.3h1.9s1.2-.4,1.2-.4l1.3.5,2.7,1.9.9,1,.9,1.6.5,1.4ZM247.6,103.1v4.7s-.2,1.2-.2,1.2l-.4.3-1.2-.9-.4-.5v-1.3c-.1,0-.9-1.1-.9-1.1l-1.5.2h-.6c0-.1-.2-.5-.2-.5l-.3-2.5.3-2.3,1.1-1.2h.3c0,0,1.3.3,1.3.3h1.2c0,0,.6.4.6.4l.5.7.4,2.5ZM227.9,118.9l1,.5,1.2,1.5,1.1,3.1v1.5s-.3,1.3-.3,1.3l.6.6v1.4c0,0,.7-1.2.7-1.2v-1.7c.1,0,1.9-1.5,1.9-1.5l.4-.2.7.2,1.7,2.2.7.2.5.8-.5,2.5v.5c0,0,1,.4,1,.4l2.1-.8,1.8,2,1,2.4.7.8v.4c.1,0-.3,1.5-.3,1.5l-.7,1.2.3,1v1.9c0,0,.9.5.9.5l1.8,3.4.3.9.2,1.5-.7,2.9-2.1.7-1.3.6-1.4-.8-1.3-1.2-.4-.8-.4-1.3-.2-1.9-.6-.9-.5-1.3h-1c0-.1-2.3-1.5-2.3-1.5l-1-.3h-1c0,0-1.4.6-1.4.6l-.5-.6-.2-.7.2-1.3-4,1.1-1.1,1.2-1.6-.2-.8-.5-1.1-1.2-.9-2.5v-1.1s.3-.7.3-.7l.4-.4h.4c0-.1,2.2.7,2.2.7l1.9.4.8-.4.4-1.2-.4-.6-1.8-.3.4-.6,1.6-.6.8-1-.6-.7h-2.1c0,.1-.8-.3-.8-.3v-.7c.1,0,1.3-2,1.3-2v-.4s-1.2-1.6-1.2-1.6l-1,.8-1.5,2.9-.3.4h-.3s-.3-.5-.3-.5v-.6s1-3,1-3v-.8s-.7-.5-.7-.5l-1.7.4h-1s-.1-.6-.1-.6v-2.3l.6-3.1.2-.5,2.3.3,3.8-.9h1.1c0,0,1.2.8,1.2.8ZM258.7,136.3l1,.6,1.7-.2,2.3,1.8.5.8v1c.1,0-1.5,1.7-1.5,1.7l-.3.8,1,1,.5.9.2,1.3-.7,1.7-.5.5h-.7c0,0-.3,0-.3,0l-.9.8-1.4.8-2,.3-1.5,1.2h-.7c0,.1-.3-1-.3-1l.2-1-.3-.5-1.4-1-.8-1.4-.2-.8,1.8-.3.8-.3.4-.7-1.6-1.1-2.1-.6v-.7c0,0-1-1.3-1-1.3v-1.3c0,0-.9-.9-.9-.9l-.3-1v-.9s1.1-.9,1.1-.9l-1-2.9-.2-1.8.5-.7,2.6.2.9.3,1.9,1.4,1.5.7.5.5.9,1.5v1s.3.4.3.4ZM199.9,140.7v-7.8h0l.8.8.7,1.3.6.2.2.3.4,1.6v1.8c.1,0-.1,1.5-.1,1.5l-.4.4-1,.3-1.3-.4ZM229.7,144.4l-.5.4-.6-.2v-.9s.6-1.3.6-1.3l.9-.5.4,1.1-.9,1.5ZM199.9,148.9v-3.3h0l1.5.2.2.5-.7,2-1,.6ZM235.3,153.6l-.6.2h-1.1c0,0-1.3-.8-1.3-.8l-.3-.8v-2.2s2.3-.4,2.3-.4l1.2.2,1.9,1.3.6,1,.2.9h-1.7c0,.1-.8.3-.8.3l-.5.4ZM261.7,151.6l1.1.8,1.2-.4h1.2s2.8.3,2.8.3l1.8-.2,1.2.6.7,1.6-.9.6-.9,3.2h-.8s-.4.3-.4.3l-2.4-.4-6.7-.2-1.2-2.2v-.7c0,0,.3-1.4.3-1.4l2.2-1.6.8-.2ZM223.1,164.4l-.7.3-2.1-1.1-1.5-3.3-.8-3.4-.4-.8v-1.2c-.1,0-.9-2-.9-2v-.3c.1,0,.9-.3.9-.3l1.2.4,1.3,1.9,1.2,2.7.2,1.7h.8c0,.1,1,1.6,1,1.6l.4,1.7-.2,1.7-.3.4ZM285.8,162l-1.1,1.1h-.6s-3.3-2.3-3.3-2.3l-.7-1.1-.2-1.8.2-2.5.6-.7.8-.2,1.8.5,1.1.7,1.4,2,.5,1v1.2c.1,0,0,1.3,0,1.3l-.5.8ZM266.8,168.8l.8.2.7-.3h.6c0,0,.9.8.9.8l.8,1.2.8.8v1.9c.1,0-1.3,4.1-1.3,4.1l2.3-3.2,1.2.3,1.8-.2,2.2-1.1,1-.2h1c0,0,.8.4.8.4l1.6,1.5.6.7.3.9-.3.6-3.3-.8-.2.2v.8c.1,0,.5.2.5.2l2,.2,6.7,2.5.3.8v.3c0,0-.8.9-.8.9l-3.9.6-2.2-.5-1.8-.8-.6.2.5,1.1,1.1.3.9.6.4.5,2,.4.9,1.5h.5c0,0,.5.8.5.8l.4,1.2.2.2.6-.2,1,1.1.3.6-.2,1.1-.4.9-1.1,1.1v.3c0,0,1.2-.1,1.2-.1h.2c0,.1,1.5,2,1.5,2h.2s.1-.2.1-.2v-.7c.1,0,0-2.1,0-2.1l.3-.4.6-.2.3.2,1.6,2.3,2-1.1.8,1.5.7-1.8.5-.5,1.9,2.2,1.1.5,1.3,1,1.2.2.2-.8-.7-1,.4-.5,1.7-.9h.9c0,.1,1.6-1.1,1.6-1.1h1.6c0-.1,2.5-2.3,2.5-2.3l.4-.7h.8c0,.1,2.2,1.2,2.2,1.2h.6c0,0,3.2-1.4,3.2-1.4h.9s3.8,1.3,3.8,1.3l.5.4v1.1c0,0,.6.4.6.4h2s.9.2.9.2l.9,1.1v.3s-.7.9-.7.9v.2c.1,0,2.3.3,2.3.3l.3.2.7,2.6v.6s-.5,1-.5,1l-1.5,1.3-1.6,1.1v.3c-.1,0,.4.5.4.5l.5.2,2-.5.6.5.5,1.2-.5.6-1.9.8-1.1-1-.4-.2h-.2c0,0,.8,1.8.8,1.8l-.3.8v1.5s-.3,1.2-.3,1.2l-4,.2-1.6,1-.9.4h-.6c0,0-2-.9-2-.9h-1.4c0,0-.8-.5-.8-.5l-.5-1-.3-1v-2c0,0-.4-.2-.4-.2l-.8-.9-.5-.3v.9c0,0,.7.8.7.8v.6c0,0-.1,1.5-.1,1.5l-.6,1.4-.4.3h-1.1s-1.6.8-1.6.8h-.8c0,.1-1,0-1,0l-.6-.4-.8-1h-.2s-.1,1.2-.1,1.2l-.2.2h-.3s-.5-.4-.5-.4l-.4-.9h-.1s-.3,1.1-.3,1.1l-1.1.6h-.6s-.7-.7-.7-.7l-1,.4-1.7-.7.3,1.1-.4.2-2.5-.4-1,.5-3.5-.4-.3-.2-.2-1,.9-3.5-.8-.8-.6.5-.4,1.4-.3.4-.4-1.6h-.2s-.3.7-.3.7l-.2.2h-.3c0-.1,0,1.6,0,1.6l-.3.5-1.3.9h-1.2c0,0-.7,0-.7,0l-1.5-.8h-.8s-1-1.4-1-1.4l-.8-.3.4-1.7-1.1,1.3v.4c-.1,0,0,1,0,1l-.9-.3-.9.2-.5-.7-.9-.7-.4-.8-.9-4.2v-.3s.5-.5.5-.5v-.4c0,0-1.2-1.8-1.2-1.8l-.3-1.1v-1.8s1.4-4.3,1.4-4.3l-.5-3.3-2.2-4.7-1.6-4.3-.4-.2h-.5c0,.1-1.1,1-1.1,1l-.4.7-3.1-.2-.9-.3h-.6c0,0-1.1.7-1.1.7h-1.2c0-.1-.7-1.9-.7-1.9l-1.7-1-.5-.5-.3-.7v-.5c.1,0,1.1-.4,1.1-.4l.6-.9-.9.3h-.4c0,0-2.8-2.5-2.8-2.5l-1-.7v-1.2s.9.7.9.7h.4c0,0,.6-.2.6-.2l.2-.4-1.6-1.7-.2-.5.2-1.1.3-.3,1.3-.4,1.3-.9.9-.3h.9s2.2.9,2.2.9l3.5,2ZM286.3,176.3l-.2.2h-.6c0-.1-.2.1-.2.1l-.8-.7-1.7-3.9v-1c.1,0,.6-.4.6-.4l1.2-.5h.8s1.1,1.8,1.1,1.8v.7c0,0-.5,1.3-.5,1.3v1.3c0,0,.4,1,.4,1ZM199.9,204.8v-11.5h0l3.9.6h.3c0-.1.2-.6.2-.6l.2-1.4-.2-1.3-3.6-2.8-.3-1.2,1.8-1.6v-1.6c.1,0-.1-.6-.1-.6l-1-1.2-.8-.2-.4-.4h0v-4.3h0l.6-.8,2.2-4.4,1-1,1.1-.2,1.2,1.2h.3c0,0,.1.4.1.4l-.2,1.1-.5,1.3v.4s.3.9.3.9l.2,1.8,1.4,2,.3,1.7-1.1,2.1v.9s.9.2.9.2l.6-.2h.7c0,.1.5,1.2.5,1.2v1c-.1,0-1.3,2.4-1.3,2.4h.3c0,.1.1,0,.1,0l.9-1.3.7-.4h.5c0,0,.9.2.9.2l.7.8.6,2.9v-1.8c0,0,1-.6,1-.6l-.6-.9v-1.4c-.1,0,.6-1.3.6-1.3l.6-.5h.6c0-.1,2.1.8,2.1.8l1.2,1.1.6,3.5-.2,2-.7,2.2v1.5c-.1,0-.8,3.7-.8,3.7l-1,1.7-2.1,1.2-1.6,1.2-.8.2-1.3-.4-1.5-.8-.9.2-.9.6h-1.1c0,0-1.2-.7-1.2-.7l.5-.5v-.3c-.1,0-.8-.4-.8-.4l-2.9,3-2.1.5ZM237.3,174.9h-1.1c0,0-.5-.1-.5-.1v-.3s.4-.4.4-.4l1.5-.7.9-1.3.3-.2,1.1-.2,1.5.3-2,1.6-2.1,1.3ZM252.3,177l-.2,2.4.9,2.8v1.3l-.4,1-.2,1.3.2,2.2-.4.8-.8.7v.4c.1,0,2.1,1.1,2.1,1.1v2.1s.3,2.2.3,2.2h-.1s-1.2-1.5-1.2-1.5l-1,1.6v2.6c.1,0,.7,1.2.7,1.2v1.1c.1,0-.6,0-.6,0l-.5-.5-.3-.8-.2.4v.4c0,0,.4.7.4.7l.2.8-.7.5h-.7s-1.7.4-1.7.4l-.6-.2h-1.4s-.7-.5-.7-.5h-.4c0,0-.9,1.1-.9,1.1l-2.6-.4-.5-1-.5-2v-.5c0,0,1.4-.3,1.4-.3v-.2s-2.5-1.7-2.5-1.7v-1c0,0,1.9-.9,1.9-.9l1.3-1.8.8-.7v-.4c0,0,.8-.4.8-.4l1.6-.2v-.5c0,0-3,.3-3,.3l-4.2,1-1.3.5-1.1-.3-4.8,1.6-.5-.5-.4-1,.3-.7,1.3-1.3.7-1.1v-.6c0,0,.5-1.1.5-1.1l.9-.2,1.5.9.8.9.7.4h.6c0,0,.6-.7.6-.7l-1.2.3-.7-1.1-.4-1.3.3-1.3-1.2-.3-.5-.6-.2-.7.4-1.2,1-1.2v-.3c-.1,0-1.6,0-1.6,0l-.3-.2-.6-.8v-.8c.1,0,1.2-1.9,1.2-1.9l.3-.2h.5s1.1.5,1.1.5l1.2,1.4.4,1.8,4,5.1.4.4.7.3.7-.3v-.3c0,0-1.2-1.2-1.2-1.2l-.6-1.6v-.3c.1,0,.5,0,.5,0h.9c0,.1,1.1-.1,1.1-.1l-1.2-.4-.8-.5h-.8s-1-.8-1-.8l.2-.5,1.3-.4.3-.4-.8-.8-2-.7-.7-.7-.3-.7.3-.9,1.1-1.1.8-.5,1.4-.4h1.1s.6.2.6.2l1.4,1.9.7,1.2,1.2-.2-.6-2.7,1.3-1.5.8.5,1.2,1.7,1.8,1,.4.4v.5ZM225.4,174.9h.2c0,0,1.1-.3,1.1-.3l.6,1.1,2.3,1.6v.3c0,0-.1.5-.1.5l-1,1-.7.3h-3.4c0,0-.4,0-.4,0l-.9-3.7v-1.2s.3-.4.3-.4l1.3-.7h.6l.3.2v.3c.1,0-.1,1-.1,1ZM233,185.1l.9,1.3-1.3.8-.4.5-.7,1.5-1.5.3h-1.6s.3-1,.3-1l.9-1.7-.7-.7-2.4,1.2-.9-.7.8-1.8-1.9-.2-.7-1.1.2-1.3,5.3-2.3h1.6c0,0,.6.5.6.5l.4,3.3.3.2.8,1.3ZM331.7,186.7v1s-.3,0-.3,0l-1,.7h-.8c0,0-.4-.2-.4-.2l-.3-.7.6-1.3,2.3-3.3.7.7-.4,1.4-.5.7v1ZM265.8,189.7h-.4s-.5-.4-.5-.4l-.6-2.8.3-.4h.4s.9-.7.9-.7l.3.4.7,3.2v.4c-.1,0-1,.3-1,.3ZM259.2,193.8l-.3.6h-.3s-.5-.5-.5-.5l-.5.2-1.1,1.9-.6.2-.2-.2-.5-1.5.2-.7,2-1.3.4-.4.3-.8.9.7.8,1-.5.7ZM270,201.9l.3,1.2v1.6c0,0-.4,3-.4,3l-1.8.4h-2.3c0,.1-.7,0-.7,0l-.5-.3-2.1-2.2-2.5-.6-1-1.7-.4-.3-.4.5-.5-1.3h-.7c0,.1-.2-.5-.2-.5v-1.1c.1,0,.9-1.9.9-1.9l.9-.5.3-1v-1s.7-1.4.7-1.4l1.2-1.4,2.6-1.6h.7c0-.1,1,0,1,0l.9.5,2.2,2.9.7,1.2,1.1,3.5-.2,1.8ZM224.9,201.8h-.8c0,0-1.4-.4-1.4-.4l-1.1-1.4,1-3.4.7-1.1.5-.3h1.2c0,0,1,1,1,1l.4,2,.4,1.1v.8c0,0-.7,1-.7,1l-1.3.7ZM262.5,210.4h-.6s-1.4-.7-1.4-.7l-.3-.5.8-.9h.6l.7.8.3.7v.5ZM253.8,210l-1.3,1-.4-.7,1.4-1.9.5.8-.3.8ZM271.6,215.8l2.5,1.2,1.5,1.7,2.5-.9,2.3.3,2,.9.7.7.4.6v.7c-.1,0-.9,2.1-.9,2.1l-.8,1.6-.7.8-1.3,3.3-1.3,1,.5.6v.7c-.1,0-1.5,3.4-1.5,3.4l-1.4,2.3-.5.4h-.7c0,.1-4-1.1-4-1.1h-1s-2.7.6-2.7.6l1.9,1.3.8,1.6.2.8v1.1c0,0-1.4,2.4-1.4,2.4l-.7,3.1-.5.4-1.5-.6-2.2.4-.8-.2v-2.1c.1,0-.2-4.5-.2-4.5l-1.3-4-.2-1.5v-12c-.1,0,.1-.5.1-.5l.8-.4,1.7,1.1.8.4h.5s-.9-.8-.9-.8l-.7-1.4-.3-1.2v-1.6c0,0,.7-.9.7-.9l1-.7,1.1-.4,2.3-.3.7.2,1-.8.6-.2,1,.3ZM249.9,220.3l-1.2.3h-.6c0-.1-.5.5-.5.5h-.7c0,0-1.4-.7-1.4-.7l-.5-.5.3-.5,1.5-.6.4-.6.4-.2,1-.2,2.2-1.1h1.5c0,0,.2.5.2.5l-.4,1-1.7,1.8-.5.3ZM242.5,219.1l3.6,3.3,4.3-1.3,1.4-.9h1.1c0-.1,1.5.5,1.5.5l.5.8.4,1.3v.6s-.6,1.1-.6,1.1l-1,.4-.4.6-.5-.2v.5c-.1,0,0,.5,0,.5l.5-.3h.5c0,.1.5,1,.5,1l-.2.5-2.2,1.5-2.5,3.5-.3.6v.6s0,.2,0,.2h.2c0,0,.8-.8.8-.8l1-.6h1.3c0,.1.7.6.7.6l.6.8v.3c.1,0-.2.8-.2.8l.6.4.7,1.1v.7s-.3,1.1-.3,1.1v.2c.1,0,1.2-.9,1.2-.9l.8-.4.6.2.4,2.1v1.7c-.1,0-.8,1.3-.8,1.3l-.7.3.6.7.3.9v.8c-.1,0-.7,1.4-.7,1.4l.6,1.1v1.8s-1.4.6-1.4.6l-1.2,1.6-1,.5h-.5c0,0-2.6-.4-2.6-.4l-.4-.7-.2-1.9-.6,1.1,1,2.9v1.6c.1,0-.8,1.2-.8,1.2l-1.1.6-.5-.2-.9-.7h-.8s-.2-.2-.2-.2l-.8-2.3-1.4-2.7-2.5-3.4-1.1-2.1-.5-.5-1.2-.3-.5-1-.5-.5h-.5c0,0-.8.5-.8.5l-1-.5-1.1-2.4-1.8-1.5-1.3-2.4v-1.1c0,0,.7-2,.7-2l.9-1.2.6-.2,1.2.3.4.6.3,1.1.9.9.8,2,.3.4h.8c0,.1,2.6-.7,2.6-.7l.2-.5.2-2.5.7,1.1h.2c0,.1.3-.1.3-.1v-.8c.1,0-.5-1.9-.5-1.9l-.4-.5h-.5c0,.1-.4-.1-.4-.1v-.9s.4-.8.4-.8l.4-.2.5.2.7.6h.4c0,.1.6,0,.6,0l-.8-.4-1.1-1.5-.5-.3-.9.9-1.3.4-2.4-2.3-.3-.8.3-.7.6-.6,1.5-.4.5.4,1.4,1.8-.4-1.9-.7-.6-.7-1.2v-1.5s.2-.2.2-.2l1.8-.6,1.3.6h.8c0,0,.3-.7.3-.7v-.2c-.1,0-1,.2-1,.2l-.3-.7.4-.6.6-.3ZM299.6,260.7l.2.3,1-.4,2.9-1.8h2.3s.4.2.4.2l-.3.8v.3c0,0,.8.7.8.7l.3-1.2.5-4.6v-2c0,0-.1-.6-.1-.6l-.6-.4h-1.2s-.9-.5-.9-.5l-1.1-2.3-1.3-1.6.2-.5,1.3-1.1.6-1.6.4-.3,1.3.2,3.1,2.4-.3-.7-1.3-1.3-.8-1.7v-.3c.1,0,.8-.3.8-.3v-.4c0,0-.9-.4-.9-.4l-1.3.3-.8-.5-1.2-2.6v-1.7c-.1,0,0-1.4,0-1.4l1-1.8h.5c0-.1,1.2.4,1.2.4l3.1,1.8v-.6c0,0-3.6-2.4-3.6-2.4l-1.2-.6-.3-.9,1.9-3.4,1.7-.8.9-1h1.4s1.3.6,1.3.6l-.6-1.4v-.3s.8-.7.8-.7l1.4-.8,1.7-.7.8-.6.8-.2h1.9c0-.1,1.1,0,1.1,0l1.5.5.9.9.7,2.3.4,2.5.5,1,.9.6.6.6.3.7v2.8s.7,1.6.7,1.6l.7.7-.2.8-3.9,5.7v.5s2-2.5,2-2.5h.6c0,0-.4,1.7-.4,1.7l-1,1.8,1.1,1.5-.2.2h-.5c0,0-.3.2-.3.2v2.3s.5-.3.5-.3l1.8-3,.9-.8h.3c0,0,1,.4,1,.4l-1-2.2.3-.9.9-.7h.2c0,.1.5,1.6.5,1.6l.3.2.7-.3.4-.8,1.4,1.7v3.2s1,1.5,1,1.5l.8.7-.2-.7-.4-.5-.6-1.8.2-2.3.5-1.2,1.1,1h1.3s1.7,1.4,1.7,1.4h.9s0-.5,0-.5l-.7-.3-2.5-1.7-.7-1.1v-.5c-.1,0,.1-1.4.1-1.4l1.8-1.7,1.1-.5,2.1-.2,1.5.2.8.4,2.2,1.8.4.2,1.1-.2h.6c0,0,1.7,1.4,1.7,1.4l.7,1.5.3,1.5v.6c0,0-1.5,2.6-1.5,2.6l-.6.4-1.6,4,.4-.4.9-2.4,1.9-2,1-.5h.9s1.4.5,1.4.5l.5.4.2,1.4-.4,1.3-2.5,1.6-1.3.2v.2c0,0,1,.3,1,.3h1.1c0-.1-.5,1.3-.5,1.3l-.2.9v1.3c.1,0-.7,2.3-.7,2.3l.2.2,1-1.6.7-3.3.5-.9.4-.3h1.1c0-.1.6-1,.6-1l.5-.3.7.3v.4s-.7,1.6-.7,1.6l-1.4,2.6.6-.3,1.5-2.2.4.8.6.6.4,1.4.9,1.2v-.9s-.6-1.8-.6-1.8v-.7c.1,0,1.7-1.9,1.7-1.9l1.4,1h.9c0,0,2.1.6,2.1.6l1.8,1.3.5.8.6,1.7v.5c-.1,0-.9,1.2-.9,1.2l-.8.8-1.1-.2h-.3c0,.1-1.5,2.2-1.5,2.2l-1.4,1.4h1.4s1.3-2.4,1.3-2.4l1.1-.4,1.6.9h.8s.6-1,.6-1l.9-.8.7.7v2c.1,0-.4,1.4-.4,1.4l-1.1,1.5-.7.6-1.7.8-.6,1-.7.7.5.5h.2s.7-1.4.7-1.4l.6-.6h.2s.4.7.4.7v1s-.7,3.8-.7,3.8l.5-1,1.4-4.7.6-.8,1.2-1.2,2-1.2.6-.2h.7c0,.1.4.8.4.8h1.7s3.6,2.5,3.6,2.5l.4.9v.5s-.5.8-.5.8l-.7.4-.9.9-2.5.8-1.1.8-1.5,1.5v.4s.6.2.6.2l.5-.2.7-1,.6-.4,2.4-.6h.6s.2.8.2.8l-1.2,2.1.5.3h.7c0,.1,1.1-1.4,1.1-1.4h.4c0,0,.7-.6.7-.6v-.2c0,0-.4-.4-.4-.4v-.2s.5-1.3.5-1.3l.4-.4h.3s.9.4.9.4l2.3,3.5.6,2.5-.2.8h-.5c0,.1-2-.6-2-.6h-.9c0,0-.7.6-.7.6l-.4.8-.4.2h-1.3s-.7.3-.7.3l-1.7.9v.4c0,0,.7,0,.7,0l1.2-.6,1.2-.2,1.9,1.2.6.2.8-.2,2.1.2.8.5,1.4,1.3.2,1.4v.3c-.1,0-.5.2-.5.2l-2.3-.4-.6.2-1.2-.4-.7-.6-1.1.5-.9-.4-.9.3-1.8,1.3.2.2,2.5-1.1h.5c0,0,2,1.3,2,1.3l.3.3v1.2s-.6,1.8-.6,1.8l-1.9-.7h-.5c0,0-1.2.4-1.2.4l-2.1-.7h-.5s2,1.3,2,1.3l2.3.3.5.3.2.3v.8s.5.8.5.8l.4.3,1.2-.3.9.6,1.1.4h1.5c0,0,.5,0,.5,0h.1c0,.1-.2.4-.2.4l-1,.6-.2.6.9,1.3-.4,1.7.8-.7.3,1.1.2-.9v-1.1c-.1,0,.3-.5.3-.5l1.4-.3-.3,2.7-.6,1.5-.5.5.4.3h.2s.2-.2.2-.2l.5-1.2,1-1.2h.2s-.1,1.3-.1,1.3l.5.4.7-.7.8.2v2.3c-.1,0,.5,1,.5,1l-.2-1.8v-.5c.1,0,1.6-1.7,1.6-1.7l.4-.2h.2c0,.1.4.6.4.6l-.8,1.1-.2.8.2.4h.8s.8-.6.8-.6l.5.3,1.6,2.1.6-.4.7,1-1,.8.3,1.6h-2.9s.5.4.5.4l.9.2v.5c0,0,2.3,0,2.3,0v-.6c0,0,1-.7,1-.7l1.2.5,1.2,1.1-.5.7-.4,1.6-1.9,2.2h.3s2.9-1.4,2.9-1.4l.8.2.2-.2,1.4.5,1.1-1.5.7.3,2.9,4v.4s-1,.5-1,.5l-.8-.9-.8-.4h-.5s-.5.4-.5.4l2,1.5.3,1v.4s-1.2.6-1.2.6h-.4s-.9-.3-.9-.3l-.9-.8h-.8s.6,1,.6,1l-.5.9,1.2.8.9.8v.3c.1,0-.9.3-.9.3l-1.5-.3v.2c-.1,0,.6.7.6.7l.3,1.2-.4.3-.5.8-.2.9h-.5c0,0-.2,0-.2,0l-.6.3-.9-.4-1.2-2,.2,1.5-1,.4h0c0,.1,1.3.6,1.3.6v4c-.1,0-.3,1.1-.3,1.1l-.9,1.9-.6-.6-.7-1.2h-.7c0-.1-.4.4-.4.4l-.8-1.1.3-2.3-.9,1.5-.4,1.4-2.4-3.5-.3-1.1-1-2v-.6c0,0,.9-1.2.9-1.2l.7-.5.8-.3.8-1.9.5-.8.5-.5h-.3c0,0-.6.3-.6.3l-1.5,2.2-1.8.9h-1.7s-.3-.3-.3-.3v-.7c.1,0,1-1.2,1-1.2h-.1c0,0-.7.7-.7.7h-.9c0,0-.6-.7-.6-.7l-1.1-.8-1-1.9-.3-1-.8-.8h-.1c0,0,.2.9.2.9l-.5.2h-.5c0,0-.5-.5-.5-.5v.5s.5.9.5.9v1.2s-.1.1-.1.1h-.6c0,0-.8-1-.8-1l-1.3-1v.2c0,0,.7,2.1.7,2.1l2.2,2.5-.4.8-.3.3h-.9c0,0-1.2-.4-1.2-.4l-.6-.5-.8-1.2-1.3-1.3-1.2.5,1.2.3,1.1,1v.4c0,0-.2.5-.2.5v.6s.3.7.3.7l.3.5.9.4v.2c.1,0-.3,1.6-.3,1.6v.6c0,0,1-.6,1-.6l.6-.2.7.6.4,1.1.8.4-.9,1,.7.4.5.6.4,1.6h.4c0,0,.2.1.2.1l.6,2.6.3-1.9,1.8,1.5v.3c0,0-.3.5-.3.5l.4.6h.3c0-.1.5-1.2.5-1.2l.4-.4.7.3,1.1,1.5.3-.2.7.9-1.1,1.3h1.5s.4.2.4.2v.5c0,0-.5,1.3-.5,1.3h-1.3c0-.1-.4,0-.4,0v.2c0,0,1,.6,1,.6l.8,1.4v.6c0,0,.6.2.6.2l1.4-.2v.7s-.5.4-.5.4h.7s.3.2.3.2l.7,1.8-.6.3.3,2.1v1.9c0,0-.7.2-.7.2l-1.1-3.4-1.1-1.6.4,1.5.4,2.6-.3.7,1.7,3.2-.3.3h-.5c0,0-1.1-.6-1.1-.6v.2c-.1,0,.4,2.2.4,2.2v.5s-.3.2-.3.2l-2-2.3-.7-.6-.4.2-1.7-1.9v.9c0,0,0,.1,0,.1l-.8-.3-1-2.2v1.7c0,0-.2,0-.2,0l-.3-.9-.9-.9-.2-.6h-.7c0,.1-.3-.2-.3-.2l-2.7-3.8.7,3-.5-.3-1.7-1.8-1.1-.9-1.6-.3-.2.5.5,1,1.8,2.3,1,1.7,1,.6,1,.2-.3.8,1.6.9,1.6,2,1.4.9,1.5,2.8,1.3.9-.2.7-.5.3.3,1.7-1.1.4-2-1.3-1.6-.5-1.1-.7-4.7-1-2.5-1.5-1-1.4-.8-1.6-.3-.2-.8-.2-1.2.3h-.7c0,0-1.4-1-1.4-1l-1-.4-1.3-.9.7-1.1-1.3.7-.4-.2-1.1-1.1-1-1.6-.6-.6h0c0-.1,1.5-.3,1.5-.3l.7-.7.3-.7h-.6c0,0-.9-1.2-.9-1.2l-.5-.2-1.6.2-.3-.2.5-1.6-1.2.7h-.2c0,0-.8-2-.8-2l-1-.9-1.5-2.1-.8-.6.8-1.8h-.6c0,0-.9-.2-.9-.2l-.4.3h-.8c0,0-.2,1-.2,1v.3c-.1,0-.5.1-.5.1l-.3-1.8-.3-.2-1.1-.2-.7-1.8h-.2c0,0-.6.3-.6.3h-.4s0,.3,0,.3l1.2,2.1-.2.6-1.6.4-1.1-.3-.7-.5-1,.2-.2,1.3-1.5.2-1.2.7h-.7s-.7.6-.7.6h-.6s-.7-.3-.7-.3l-1.6-.3-1-.6h-.6s-1.2-1.3-1.2-1.3l-.7-1.6.4-2.7.4-.8.5-.5,1.8-.9.4-.4-.4-1.6.6-1h.3c0,0,.7.2.7.2l1.3.2,1.3.5,2.8,1.5,1.3,1.7v.4c0,0-.3,1.1-.3,1.1l.6.6.4-1.7-.4-.9-1.4-1.6v-.4c-.1,0,.3-.2.3-.2l1.7.4h.6c0,0,.8-1.1.8-1.1h2.1c0,0,.4-.2.4-.2l.7-.9,1.1-.3,1.9.3v-.6s-.8-2.3-.8-2.3l-1.2-1.1-1-1.4-.5-.9v-.7c0,0,.1-.4.1-.4l1.9-1.6,1.5-1.6,1.3-1.8,1.1-.6.4-1.7.7-1.6,1.8-1.1.6-1.3v-.3c0,0-.6-.6-.6-.6l-1.6-5.2-1.4-3.4-1.1-1.8.2-1h0c0-.1-1.4.7-1.4.7l-.8-.8-.3-.8.4-1.7-.2-1.3-.5-.3h-.6s-.2.1-.2.1l.6,1.4v.4c0,0-1.3,0-1.3,0l-.7-.5-1-1.5-.2-1.2h-.5c0,.1-.4,0-.4,0v-.2c0,0,.6-1.1.6-1.1l-.3-.3h-.5c0,0-.1-.3-.1-.3l1-1-.6-.2-1.1,1.5-.5.4-.6-.5-.4-.2h-.3c0,0-.4.9-.4.9l-2.6,1.9-.7.4h-.8c0,0-.1-.8-.1-.8l.3-3,.8-.5,1.2.3h.6c0,0,1.2-1.6,1.2-1.6v-.6c0,0-.5-1.3-.5-1.3l-1.1-.8-1.5-.7-.2-.3-.2-.6v-.9s.2-.4.2-.4l1-.5-.8-.3h-.4s-1,1.4-1,1.4l-.7-.5h-.4c0,0-.5-.5-.5-.5l1.1-1.1v-.4s-.4-.6-.4-.6l-1.1-.4-1.1.2h-.4c0-.1-.8-5-.8-5h-.3c0-.1-1.3.2-1.3.2h-.5c0-.1-1.4-1.7-1.4-1.7l-.9-1.4-.6-1.5-.4-.3-1.2,1.6-.3,1,.2.4,1.4.6.4.4.7,2.4-.2,1.2-1.2,1.1-.9.4h-.9c0,0-2.8-1.3-2.8-1.3l-1-.2-1.2-.5h-.7c0,0-1.2-.5-1.2-.5l-2-.3-.4.2.5.6.5.3h.4s.6.5.6.5l1.2,1.6.4,1-.3.5-2.7-2.6-2.4,1.3h-.7c0,0-3.6-2.1-3.6-2.1l-1.6.6h-1.4s-2.8-.5-2.8-.5l-1-.4-.6-.6-2.2-.4-1.5.9-1.8-.9-.5-.5-.7-1.8v-.8c0,0,.4-1.5.4-1.5l-1.3.9-1.8-.3-.2.2.5.9-.7.2-1.1-.2h-.5c0,0-.9,1-.9,1h-.3c0,0-2.1-2.5-2.1-2.5l-1.1-.4-.8-.7-1.5-3-.7-3.1-.4-.9,3.2.2.8.2.9.6,1.1.4h.8c0,0,2.8-.5,2.8-.5l.2-.3-1.8-1.3-1.3-1.3-.8-.2-2.3-.2-2.1-.6-1.4-.9-1.7-1.5-.4-1.7-.6-4.9.4-1.4,1.1-1.5v-.2s-.7-.5-.7-.5l-.2-.6v-1.7c0,0,.2-1.4.2-1.4l2-4.8.6-4.4,1.1-2.1.9-.9.2-1.3,2.3-2.9,1.9-1.9,1.1-.6,3-1.1,1.5-.3h1.9c0,0,3.6.7,3.6.7l.4.5.3.9-1.1,1.8-2,2.1-1.4,2.2-2.7,6.5v2.1c-.1,0,1.3,3.7,1.3,3.7v4.7c0,0,.4,3.1.4,3.1l.8,1.7,2.1,2.9,2,2.1.2.6-1.6,1.7-2.3.8-1,.9-1.7,1.1ZM329.7,223.6l.7.2,4.6-.4,1,.3,3.6,2.2.9,2.1,1.1.7.4.8.4,1.4,1.2,1.1v1.2c0,0,.9,1.7.9,1.7l-.4.6-.9.3-2.6-.3-3.5-.8-2,.2-3.5,1.6-1.6.2-1.4-1-.7-1-.9-4.9-.5-.3-1.4-.4-.7-.9-.2-1.4v-.6c.1,0,.4-.2.4-.2l-.4-.8v-.9c-.1,0,0-2,0-2l.4-.6h1.5c0-.1,1.2.8,1.2.8h1c0,0,1.5.8,1.5.8ZM220,234.5h-.2c0,0-.4-.3-.4-.3l-2.7-3.8-.5-1.6-1.5-1.6-1.7-1v-.5c-.1,0,.4-1.3.4-1.3l.9-1.5,4.7-1.1h.8s.9.3.9.3l1.2,1.5.5.2.3.3.4,1.1-.3,3.4-.7,2.1-.8,1.2v.7c-.1,0-1.4,1.7-1.4,1.7ZM170.7,278h.9l-.2-.6-1.6-2.4v-1.4c0,0,17.9,0,17.9,0v2.1s1,0,1,0l.6-1v-1.1h10.6v-40.1h0l1.7,1.5,1.1,1.4,1,.7.7,1v.8c-.1,0,.9.6.9.6l2,9.1.4,2.4,1.1,1.2.5.2.5-1.2,1.4-1.4v-.9c-.1,0,.2-.1.2-.1l-1-1.8-.7-1.7-.4-2.1v-2c-.1,0-.6-1.1-.6-1.1v-1s-1.3-7.5-1.3-7.5v-1.1c.1,0,1.3-.5,1.3-.5l-.6-1v-.3c0,0,.2-.7.2-.7l1.3.3,2.6,2,.7-1.2h.5c0,.1,1.5,1.2,1.5,1.2l1.7,1.8,1.1.9.8,1.2.9,2v.7c0,0,.4,1.5.4,1.5l.4,3.1,1.5,6.1,2.1,5.5v2.6c.1,0-.8,3.3-.8,3.3l.2.9,1.5,1.8.9,2.1,1.6,1.7,1.2.8.9.8h.2c0,0,0-.4,0-.4l-.3-1v-.4s.1,0,.1,0l1.3,1.7,3.2,3h.2c0,.1,1.1,0,1.1,0l.5,1.8,1.8-.2.5.5.6,3v1.9c-.1,0-.3.4-.3.4h-.3c0,.1-.7,0-.7,0l-.5-.4-.6-1.7-.7,1.9-.9-.5-1.4-1.3-.7.4-1.1,1.2.3,1.2v.6c-.1,0-.4.3-.4.3l-1.3-.2-1.9-1.5-.5.5,1.8,2.1v1.3s-.3,2-.3,2l1-1.6,1.9-1.6h1.3c0-.1.5.1.5.1l.3.7-.4.8v1c0,0,.3.3.3.3h.5s.4.7.4.7l-.3,1.9-2.7,1.6-1.1.3-.7.5h-1.1c0,0-1.3.2-1.3.2l-2.6-.7-1.2-.7-.9.7-2.3-.6-.3-.4.6-1.2v-.3s-3.3-.9-3.3-.9h-.9c0,0-1.1-.5-1.1-.5l-.3-.4v-1.9c0,0-.8-.8-.8-.8h-.5s-.8,1.2-.8,1.2l-.8,2-1.7,2.1-1.8.6-2.1.2-.8.4-1.7,1.6-2.2,1-2.1.5-3.8.6-.5-.2h-.7c0,0-.8.6-.8.6l-7.3.7h-.5c0-.1-.4-.6-.4-.6l-1.4-2.7-.3-.8v-1.4c.1,0-.3-2.8-.3-2.8l-1.6-.7-1.1-.2h-3.6c0,0-2-.2-2-.2l-2.1-.7-1.9-1.2-.3-1-1-1.7ZM256.2,234.2h-.7c0,.1-.6-.9-.6-.9v-1.9c0,0,.3-.4.3-.4l.7-.5,1.1,1.7-.3,1.6-.5.4ZM264.8,375.6h-30.8s0-38.5,0-38.5l-29.7-5.4-1-.3-1.3-.9-4.9-6h-7.8c0,0-17.4-13.2-17.4-13.2l-17.4-13.8v-18.4h0l2.3,2.3,1.2.5,4.2,1,3.3,2.6,3.7,1.5h.9s2.6.4,2.6.4l1.6.5-.8-1.4v-.2s1.3.2,1.3.2l.2-.3h.3s1.5.6,1.5.6l1.9,1.1,1.6,1.2,1.7,2.3.5,1.4.5.4-.2,1.1-.3.5-.8.2-2.1-.3-.4.9-1.2.7-.3.5v.7c0,0-1,1.1-1,1.1v.2s1.2.9,1.2.9h.5c0,.1.7,0,.7,0l2.5.9,1.6.3,5.9.3,1.1-.6,2.8-.3,1.6-.7.2.3h.7c0,0,2.6-1.8,2.6-1.8h.7l.6-.4.6,1.2.4.2.9,1.5h1.7s.8.5.8.5l.4,2.2.4.8.6-1.8v-.3c.1,0,.4,0,.4,0l.5,1.3.6.9,1.5,1.6.3,1-.4.7-1,.5h-.5c0,0-.6-.5-.6-.5l3.1,4.4,1.2,2.1.9,1-1.9-3.7v-2.6c0,0,.4-.2.4-.2l.5.7h.3c0,0,0-.1,0-.1l1,.7-.8-1.9.3-.5-.9-1.1-.4-.8-.3-1.2v-1.4s-1.3-2.1-1.3-2.1v-1.3s.8-1,.8-1v-.6c.1,0-.1-.9-.1-.9l1.2-.3h.3c0,.1,1.4-.6,1.4-.6h.9c0,0,.6-.4.6-.4l.5-.8,1,.2v-1.4c0,0,.7-.7.7-.7h.6c0,0,.9-.7.9-.7l.6-1v-.8c.1,0,0-.2,0-.2l-.7-.3-2.2,1.4-.4.6-.3,1.2-1-.3h-.4c0,.1-.9,1-.9,1h-.6c0,0-1.4-.3-1.4-.3l-.5.5.3,1-.2.3-2.5.2-1.7-1.6,1.7-3.6,2.3-.4,1.4-.5,5.4-2.7,1.6.7.5.4.6,1.3.5,3,.2.5,1.2,1.3h.2c0,.1.4-.1.4-.1l.2.7h.6s.5.2.5.2v.9s.7,1,.7,1l1.2.4h1.2c0-.1,1-.4,1-.4l.8-.5,2.7,3,2.2,1.3,1.1-.2h.7c0,0,1.4.7,1.4.7l3-1.2,1.4-.2.3-.2,2.9.3,1.3.3,1.4.7h1s1-.6,1-.6l1.2-.3-.2-.5-1-1.2v-.9c0,0,.3-.3.3-.3l.9,1,2.1,3.1,1.4.9.7.2.8-.6.5-.7v-.8c0,0-.2-.7-.2-.7l-1.4-1.2-.8-.2-1.6.9-.4-.2-1.3-2.2v-.2l.5.2v-.2s-1.1-2.7-1.1-2.7l.8-.2,1.1.7,1.8-.8-.5-.7v-.9c0,0,.4-.1.4-.1l.8.6h.4c0,0,.6-.2.6-.2l.6.5,1.2,2.3h1.5c0,0,.8-.6.8-.6l-1.2,3.1.8-.3.4-1,2-1.1-1,6-.7,1.8v.5s.8,1.5.8,1.5l.2,1.1h.6s1.2-.5,1.2-.5v.2c.1,0-.2,1.3-.2,1.3l.9-.3.6.7v1.6s-.4.4-.4.4h-1.1c0,.1-1.1-.4-1.1-.4l-.3.3h-.5s-.6-.8-.6-.8l-.3.2.3.7,2,2.7.3.6v.8c.1,0,.3-.8.3-.8l-1.2-1.9v-.7c0,0,.2-.2.2-.2l1.5.4h.6c0,0,.4-.4.4-.4l.2-.3.4-3.1-.9-3.9-.7-1.1v-.4c0,0,.7-3.2.7-3.2l.3-.4h.6s.5-.3.5-.3l1.1.5.5-.3,1.5-1.8,1.9-2.8,1.2-.8.9-.9-.8-.2-.2-3-.4-1-.4-.4-.2.2-.4,1.9-.3.4-1.8.5-.5-.4v-.3c0,0,.1-1.3.1-1.3l2-2.5v-.2s-.6,0-.6,0v-.2c-.1,0-.3-1.1-.3-1.1v-.9c.1,0,.5-.3.5-.3l2.3-.9-.9,2,.3.3,1.4-1.8h-.5c0,0,0-1.3,0-1.3l-.5-.5-1.6.9h-1.1c0-.1-.6-.9-.6-.9l-.9-1.6h-.3s-.5.9-.5.9l-2-1.1-1.3-1.1-1.6-.6-.7-.9-1.6-3.2-.3-1.1v-1.5s1.1-2.3,1.1-2.3l.7-.6h.3c0,0,.7.2.7.2l-.5-.9.4-1-1.3.7h-.3c0,0-.4-.5-.4-.5l-.8-1.7.3-3.4-.2-.8.4-.7v-.8c-.1,0,.6-1.3.6-1.3l.9-1,.6.3.8.9h.4c0,.1.3-.1.3-.1l.7-2.1-.2-.2h-1.4c0-.1-.2-.3-.2-.3l-.2-.6,1.1-1.5.4-1.2,1.3-1.7,2-1.1h.8c0,0,.3.9.3.9v.9c0,0,.8,1.1.8,1.1h2.1s.3.3.3.3v1.4c0,0,2.1,2.4,2.1,2.4l1,1.7.4,1,.3,2.5v2c0,0-.4.8-.4.8l.8.7.6,1,1.2,1.1.6,1.8.7,1.3v1.1s.3.2.3.2h.2c0-.1.5-.7.5-.7l.4.5.6,1.5-.2.4-1,.2-1.1-.5-.7-.9h-.1c0,0-.8,1.7-.8,1.7l.3.3h1.4s.6.6.6.6l-1.3,1.8-2.6,2.8.4.2,1.3-.4h.8c0,.1.3.4.3.4v.2c-.1,0,0,.4,0,.4l1.3.9.8-.2,1.4-1.3h.8c0,0,.2.2.2.2v.2c0,0-1.2,1.2-1.2,1.2l.6-.2,1.4.3h1.2l.9.5v.2c.1,0-1,.4-1,.4l-.3.4-.3,1.2-.3.3h-.5c0-.1-.2-.6-.2-.6l-.7.2v.2c0,0,2,2.2,2,2.2l.7,1.9.5.8-.3.7v1.5c.1,0-.1,2.5-.1,2.5l1.6,2.5,1.3-2.7v-1.6c0,0,.5-1.3.5-1.3l.5-3.3,1.6-2.9.3-.2h.6s1.8,2.5,1.8,2.5l1.8,1.7.8,1.2.3,1.2.6,3v1.2c0,0-.3,1.1-.3,1.1h-.9s-.5-1-.5-1l-.5.6v3.9c.1,0,.6,2.1.6,2.1l.8,1.6,2.1,3,.3,1.6.3.4h.4c0,0,1.5-2,1.5-2l.5-.5.6-.2.5-.7.4-2.6.3-1,1.9-3.1.9-4.3v-1.5c0,0,.2-1.1.2-1.1l.8-1.2.9.4,1.7-.4v-.2l-1-.6v-.8c0,0,.4-.5.4-.5l.4-.2.2-1.3-1.1-1.1h-.7c0,0-.5-.8-.5-.8l-.2-1.5v-2.4c0,0-.3-1.3-.3-1.3l.2-1.5-.4-.7.5-.2,1,.5h.7s1.6-.6,1.6-.6h1.4c0,0,2.8,1.8,2.8,1.8h4.5c0,.1,1,.7,1,.7v.5c0,0-.5.8-.5.8l-1.1.5.5.4,1.4.6.4,1.4v.6c0,0,1.1-.3,1.1-.3l.9.2,1.4.7.4.7-1.2,1.6-1.4,1.1v.3s1.1,0,1.1,0l1.3.3.5.8v1.4c0,0-1.1,1.2-1.1,1.2l-1.7,1.1h-.4s-.4-.5-.4-.5h-.4c0,0-.8.2-.8.2h-.4s-.2.1-.2.1v.3s.6,1,.6,1v.7s.8,1.7.8,1.7h.3c0,0,.6-.6.6-.6l-.4,2.3.5,1.4,2.4,3,.5,1.1v1.6s-.7,3.2-.7,3.2l-.7.7-1.3.3-1.2,2.3-1.9,1.9-1.3.4-1.5,1.7-1,.2-.3-.2-.3-1-1.5-2.6h-.9c0,0-.7-.9-.7-.9l.4-.3-1.1-1.4-.7-.5h-.7c0-.1-.8.7-.8.7l-.3.7.4.2.7-.7h.5c0,0,.4.4.4.4l1.4,2.1.4.3.6,1.7,1.1,2.5v.5c.1,0-.2.3-.2.3l-1.8-.8-.5.4-.3.8-.6-.3-2-1.2-1.5-2.3-.7-.3-.8.4h-1.2c0,.1-2.7.1-2.7.1h-.1c0,.1.2.7.2.7l-.2.4.3.6.4.4,2,1,.5.4.2.7-.4,1-4.4,6-.9.9-1.6.2h-1.2c0-.1-3-2.8-3-2.8l-.3-.7-1.5-.6-1.4-1.3-1.4-.8h-.8s.4.7.4.7h-.2s-1-.1-1-.1l-.9-.5h-.8c0,0-2.1-.4-2.1-.4h-1.7c0,0,0,.2,0,.2l.6.6,1,.7v-.7c0,0,.2-.2.2-.2l1.6.4,2.9,1.1,1.4,1.4,1.5,2.1,1.1,1,3.3.7,3.4.2,1.2.4.3.3v1.4s-1.1,2.4-1.1,2.4l-2.6,4.2-.5,1.5-.5.6-2.3,1.7-.7.2-1-.4-.6-.8.4,1.3h0c0,.1-1.2-.6-1.2-.6l-.4.2-.5-.2-.6-.7-.2-.8-1,.4h-.2c0,.1.5.6.5.6l.4,1.2h-.3c0,.1-1.1-.2-1.1-.2l.7,1.7-1,1.6-.5.2-.7-.4h-.3s-.5.7-.5.7h-1c0,0-2.5-1.2-2.5-1.2l-1.6-.3h-.1c0-.1.1-.5.1-.5h-.2c0,0-.5.3-.5.3h-1s-4.6-2.4-4.6-2.4l-1.1-1.1.4,1-.3,1,.4.7.6.3h.6s-.5-.6-.5-.6v-.4c-.1,0,0,0,0,0l5.2,2.5-1.3,1.3h.7c0,0,1.9-1.4,1.9-1.4l.7.4,1.5,1.5,1.5.6,1,.9.2.5v2.3c0,0-.3.9-.3.9l-1.4.5-1,1h-.4c0,.1-2.5-.4-2.5-.4h-.3s-.4.3-.4.3h-.7c0,0,0,.5,0,.5l.3.6.7.4.8.2v.5c0,0-.2.5-.2.5l-1.1-.4-.2.2h-.7l-.2.2-.2.7-.7.8v.3s.6.7.6.7l.4,1-1.4-1.3-1.4-.5.9.7.4.6-.7.6.2.5-.2.3-.4.2h-.8s0,.2,0,.2l.4.5-.3.3h-1.1c0,0,.4.8.4.8l.8.7-1.7,1.5-.9,1.1v.3c-.1,0,.1.9.1.9l-.2.3h-.5c0,0,0,0,0,0v1.5c0,0-1.8,4.7-1.8,4.7l-.3.5h-.5s-.4.4-.4.4l.5.7-.5,3.6ZM241.2,267.4h0c0,.1-1.3-.7-1.3-.7l-.2-1.3.2-.3.9.3.7.7-.2.2v1.1ZM298.2,272.2h1.3c0,0,.4,1.2.4,1.2l-.2.3-.8.2-1.1-.4h-.3c0,.1-.6,0-.6,0l-.6-.8v-.3l.9-.6.8.4ZM253.4,278h.1c0,.1.4-.4.4-.4h.3l1.5,2,.8.5,1.7,1.5,1.5,3.8.9,1.5.7.7.9-.7.5.8-.8.9h-.9c0,.1-.9,1.4-.9,1.4l-.6.2-1.6,1.6h-.8c0,.1-1.7-.8-1.7-.8h-1.1c0,.1-.9,0-.9,0l-1.8-1.5-1.5-.8-.4-1.2-.9.5h-.7c0,0-.5-.5-.5-.5l-.3-1.1-.7.2v.6c-.1,0-1.1-.2-1.1-.2l-.5-.5-.5-1.4.5-1.2,2.3-.4.8-.6.9-1.1.2-.6-.5-1.3v-.2c0,0,.5,0,.5,0l-.4-.6v-.6s.3,0,.3,0l.4.2.7,1,.8.3-.5-.7-.6-1.9.3-1.4.7-.7,1.2-.4.4.3,1.2,1.3v.5c.1,0-.2.4-.2.4v.3ZM330.1,276.3l.3.9-.8,1-1.4.3-.7-.3.3,1v.6s-.8-.3-.8-.3l-.4-.7h-.4c0,0-.5-.7-.5-.7l-1.4-.3v-.2c0,0,.2-.6.2-.6h.3c0-.1.8,0,.8,0l.2-.7h.9c0,0,.4.7.4.7h.7s1.6-.9,1.6-.9l.7.3ZM336.1,277.2l.3.9-.3.4-1.8,1.3h-.4c0,.1-.5,0-.5,0l-.8.2,1.1-1.9h.8c0-.1.2-.4.2-.4h.2c0,0,.1-.5.1-.5l.3-.3.7.3ZM379.2,279.3l-1.2-.5v-.4c0,0,.9-.8.9-.8h.3s.3,0,.3,0l.3.5-.7,1.1ZM261.6,278.9l.6.8-.2,1.6-.6.5h-.6c0-.1.3-.8.3-.8v-1.2c0,0-.1-.5-.1-.5l-.4-.3v1.4s-.4,1.2-.4,1.2l-.4-.5v-.9s.5-1.7.5-1.7l.3-.2h.4s.8.6.8.6ZM237.5,281h-.4c0,0,0-.5,0-.5l.4-.5-.6-.7.2-.4.9.4.4,1-.4.2-.4.6ZM340.5,284.1h-.9c0,0-.5-.6-.5-.6l-.2-1,.2-1.6.7-.4.8.3h1.1c0,0,.3.6.3.6v.5c0,0-.6.7-.6.7l-.4,1.1-.4.4ZM284.2,280.8v.8c0,0-.3,1-.3,1l-.3.2-.7-1.4.7-.7h.3c0,.1.1,0,.1,0v.2ZM331.1,287.6h-.3c0,0-.3-.1-.3-.1l-.2-.8.7-1.5.4-.5,1-.6.4-1.2v-.2c.1,0,.6-.1.6-.1v-.8c-.1,0,0-.3,0-.3l.8-.5h.5s.4,1,.4,1l-1.3,1.9-1.1,2.3-.3.4-1.5.8ZM283,283.2h-.3c0,.1-.5-.8-.5-.8h-.4c0,0,.1-.8.1-.8l.3-.2h.3c0,0,.3.6.3.6l.2,1.2ZM242.5,285.6v.7c0,0-.9-.4-.9-.4l-.2-.7.4-.9.5.5.2.9ZM241.6,288.1v.4c-.1,0-.8.6-.8.6l-.4-.8-.4.3v-2.6c0,0,.1-.4.1-.4h.6s.9,1.2.9,1.2v.3c.1,0,0,1.1,0,1.1ZM234.6,290.7l-2-1.1,1-1.1.3-.6.8.3.4.5v1.2s-.3.2-.3.2l-.2.6ZM349.5,293.4h-.3c0,0-1.9-2-1.9-2v-1.3c.1,0,.5-.6.5-.6h.9s.4.5.4.5l.8,2.2v.2c-.1,0,0,.5,0,.5l-.3.5ZM223.2,292.8h-.7c0-.1-.6-.6-.6-.6l-.8-.9v-.3s.6-.3.6-.3l1.3.2.7,1.1v.5c0,0-.4.3-.4.3ZM332,295.2h-.3c0,.1-.5-.5-.5-.5v-.3s0-.8,0-.8l.9-.2.5,1-.7.9ZM346.1,293.7l2.2,1,.3.7v1.1c0,0-.2,1.3-.2,1.3l.2,3.7-.5,2-.8,1-1.6.9-3.9.5-1.1-.2-.6-.8-.3-1-.6-3.1.3-1.9.4-1.1,1.6-3.2.6-.5,1-.5h.8c0,.1,1.3-.2,1.3-.2l.8.2ZM299.6,300.4l-.5-.2-.8-1v-.7c0,0,.2-1.2.2-1.2l-.5-1,.3-1,.8-1.3.6.2.6,1.2v3.4c.1,0-.3,1.2-.3,1.2l-.5.5ZM202.8,297.5h-.2s-.6-.6-.6-.6v-.6c.1,0,.7.6.7.6v.6ZM354.9,299.9h-3.2c0,0-.9-.5-.9-.5l-.7-1.8.2-.9,1.4-.3,2.1.8,1.6.2.2.3v2c.1,0-.8.1-.8.1ZM203.4,297.6h.8s.3.5.3.5v.6c0,0-.8-.4-.8-.4l-.3-.3v-.3ZM208.8,304.1l-.2.9-.9-1.2v-2.2c.1,0,.4-.4.4-.4l.2.5v1.2s.4.5.4.5v.7ZM401.5,307.9l-.5.3-.3-.4,1.1-1.2h.9c0-.1,0,0,0,0l-.4.5-.8.9ZM208,308.5h1.2c0,0-.1.9-.1.9l-.5.7-.6-1.6ZM314.4,316.2h.7c0,.1,0,.3,0,.3l-.5.6-.7-.8v-.6c0,0,.4.5.4.5ZM311.8,321.3l1.1.6,1,.2-.4.9-.7-.3-.5-.5-.2.5h-.6c0-.1,0-.5,0-.5l.4-.5-.5-.3-.8.4-.5-.2v-1.5c-.1,0-1.4-1.6-1.4-1.6v-.4s.2-.3.2-.3l1.2.6,1.4,1.2.4.5v.3s-.3.6-.3.6l.2.4ZM307.8,323.6h-.5c0,0-.6-1.2-.6-1.2l-.7-.7-.3-1.9v-.8c.1,0,.6-.1.6-.1l.4.2.8,1.6.7,2.1-.3.8ZM306.7,326.8h.3c0,0,1-1.9,1-1.9h.5c0-.1,1,.8,1,.8l.8,1.5,2.5.9.4.3.9,1.5.9.6,1.4,1.2,1.7.6.9.8,1.1,2.2.5,2.1v.7s-1,1.1-1,1.1h0c0,.1.7,0,.7,0l1.6-.5,1.3.4.4-.7h.4c0,.1,1.1,1.6,1.1,1.6v.2s-.4,0-.4,0l.9.4.8.6-.2.4-2.8,2.7-.4.2-3.9-1.9-1.8-.4-.4-2.1-.4-.3-2-.6v-1c0,0-.1-.3-.1-.3h-1c0,.1-1.2,1-1.2,1l-.3,1.8-.3.6-1.2,1.5-.5.4-.7.3-.8,1.9-.5.8-1.4,1.1-1.8.7-.4-.2-.9-4.9-.2-.4-2.3.4h-1.2c0,0-1.4.8-1.4.8l-1-.2-.2-.8,1.1-2.2,2.2-1.5.7-.8-.4-2.3v-1.9c0,0,.7-4.4.7-4.4l.5-5.3.5-1.8.6-1.3,1.1-.9.5.8.9.5.3.5.3,1.3-.6,1.2.8.7.6,1.8ZM337.7,339.4l-.3.4-.9-.2-.2-.3v-.2c.1,0,1.1-.2,1.1-.2h.6c0,0-.3.4-.3.4ZM341.8,345.2h-.5c0,0-.6-.1-.6-.1l-1.9-1.7,1-.9,1.6,1,.5.7v1ZM336.7,344.4l.4.4h.4s.7,1.3.7,1.3v.5s-.5.7-.5.7l-1.2.5-1.3-1.2-1.2-1.7v-.3c.1,0,1.3-.4,1.3-.4l1.5.2ZM319.2,349.3l.2.7-.3,1.4-.4.7-1.9,2.3-1.9,1.8h-.5c0,0-1.1-.3-1.1-.3l-1.4.7-.3-1.3-.6-.9v-.5s.7-1.1.7-1.1l1.5-3.1.4-.2,1.4.4,1.1-.7h1.1c0,0,1-.3,1-.3l1,.2ZM368.9,353.1h-.9s-1-.4-1-.4l-.3-.5v-.5c0,0-.6-.8-.6-.8l-.6-.3-.4-.5,1.6.3,1.7,1,.7,1.4-.3.3ZM353.3,352.4h-1.1s-1.1-.5-1.1-.5l-.5-.5,2.2.4.4.2v.4ZM392.3,353h1.3c0,0,.2.2.2.2l.2.4-.3.6-.8.3-1-.3-.2-.3v-.2c.1,0,.6-.2.6-.2v-.5ZM329.6,354.3l.3.3.8,1.3-.2,2-1.5,3.4-.4.4h-.2s-1.9-2-1.9-2v-2.6s.4-.9.4-.9l1.1-1.6,1.6-.2ZM391.5,359.2h.3c0,0,.5.9.5.9l-.2.4-1.1-.6-.3-.9v-.3c.1,0,.5-.1.5-.1l.4.6ZM272.1,359.5h-.2s-.5-.7-.5-.7h.5c0-.1.4.3.4.3l-.2.4ZM392.3,363.8h-.2c0,0-.3-.4-.3-.4l-1.9-1.4-.2-.8,1.3-.3,1.4.2.5.6v1.1c-.1,0-.7.9-.7.9ZM333.9,369.4h-.6c0,0,.2-.4.2-.4l1.6-.4-.2.3-1.1.5ZM377.8,373.6h-.4c0,0-.2-.1-.2-.1v-.5s1.2-2.4,1.2-2.4l.7.4.4.8-.4.9-1.3.9ZM394.1,372.5v.6c-.1,0-1.4-.7-1.4-.7l-.3-.3v-.8c-.1,0,.7-.1.7-.1l1,1.3ZM327.4,377.6h-.4c0,0,.4-.7.4-.7l.5-.2.2.2-.7.7ZM326.5,378.8h-.2c0,0,.1-.4.1-.4l.4-.4h.2c0,.1,0,.3,0,.3l-.4.5ZM373.9,383.7l-.3.6h-.6c0,0,.2-1.5.2-1.5h.5s.1.9.1.9ZM328.9,396h-.3s-.1.6-.1.6v-.8s.3-.5.3-.5v.7ZM328.3,401.8h-.1c0,.1-.2,0-.2,0l.2-.7.3.2-.2.5ZM329.7,402.7h-.3c0,0,.1-.6.1-.6v-.4c-.1,0,0-.1,0-.1l.3.7-.2.4ZM332.2,405.8l-1,2.9h-.2s-.2-.3-.2-.3l.6-1.6-.2-.6-1,2.1-.4.5h-.5s-.7.5-.7.5l1.1-2.2-.2-.3-1.5,2-.4-.3,2.1-3.2.2-1.6v.7c.1,0-.3,2-.3,2l.6-.7.5-2.5.6.6.2.5.5.2.2.8v.4ZM327.8,406.2h-.5c0,0,.1-.6.1-.6l.9-.6h.4c0,0,.7-.8.7-.8l-.5,1.1-1.2.9ZM332.7,406.7h-.4c0,0,.5-1.8.5-1.8l.3-.4h.2s0,1.4,0,1.4l-.7.9ZM328,427.6v.2s-.3,0-.3,0l-.3-.5h.1c0-.1.3,0,.3,0l.2.3ZM324.6,431.5h-.3c0,0-1.3-.2-1.3-.2l-3.2-1.3-.7-.4v-.3c-.1,0,.7-1,.7-1l2.2-.3h.9c0,.1,1.6,2.1,1.6,2.1l.2.6v.6ZM330.3,437.1h-.6s-.5-.4-.5-.4l1.3-.6h.3c0,0-.5,1-.5,1Z"/>
    <path id="CA-ON" d="M329.7,444.1v21.9s-.2.5-.2.5l.5,2.2,1.8,3.3,1,1.3,1.4.5,3.3.7,1.3.8.6,1,.9.6h.4s.1-.4.1-.4h.4s.7,1.4.7,1.4l.5.6.6.3h1.2c0,0,.5,0,.5,0l.4.4,1.2-.2,3.2-1.2h1.2c0,0,.8.5.8.5l-.3,1.5.6.6h0l-1.6,1.3h-.6l-1.4.6-2.6,2.4-1.1.7-1.5.6-1.2.3-1.3.9h-.2s0-.2,0-.2l.6-.5-.4.3-.2-.3-1.1.2-1.1.5,1.1-.3v.3s.2,0,.2,0v-.2c.1,0,.8-.2.8-.2h.1c0,.1,0,.8,0,.8l1-.3-.8.9h.7c0,0,0,0,0,0l-.7.4h-.7s0-.4,0-.4l-.3.2h-.2c0-.1.2-.3.2-.3h-1s-.3-.3-.3-.3h0c0,0-.6-.2-.6-.2l-.2.2-5.4.9-1.7,1.2h-.4c0,0-.5.6-.5.6l-.8,1.5.2.3,1.7.3,1.2-.5v1.1c0,0,.5,1.1.5,1.1l-.5.3h-1.4c0-.1-3,.3-3,.3l-.5.2-1,.9,1.7.3h-.1s-4-.6-4-.6l-1.6.2-1.4,1.1-.6,1.1v-.3s-2.3,1.2-2.3,1.2l-.4,1-.6-.6-1.2.2-.7-.4v-1.3c.1,0,1-.5,1-.5l1.4-1.4.5-2.3,1.4-.7,1.3-1.1.2-.4v-1c.1,0,.1-3.4.1-3.4l.6-1.4.7-.6.5-1.1v-.9l-.3-.7v-.4s-.4-.2-.4-.2l-.6-.9-.5-.3v-.2s1.8,0,1.8,0v.5c-.1,0,.1.8.1.8l.5.4v.3s.3,0,.3,0l.4-.3v.6c-.1,0-.7.6-.7.6l.7-.2.3.2v1c0,0,.4-.5.4-.5l.5-.2.3.5.6.4,1.6.5.3-.5v-.5s-.4-.9-.4-.9l.8-.3v.3s.4.3.4.3h.6s0-.6,0-.6l-.3.3-.2-.7h-.3c0-.1-.8-1-.8-1l.3-.3-.5-.4.3-.5v-.4s-.5-.1-.5-.1v.3s-.7-.3-.7-.3l-.3-1.3v.2c-.1,0-.4,0-.4,0l-1.3-2.2h-1.2c0,0-.3,0-.3,0v-.4c0,0-.3.3-.3.3h-.9c0-.1-.6,0-.6,0l-.2-.5.4-.2-.3-.3-.6.4v-.3s-1.8-.2-1.8-.2l-.7-.4h-1.2c0,.1-.3,0-.3,0l-1.3.2-3.5-.7-.2-.2-.9-.2v-.9s-.3-.3-.3-.3l-1.1.3-.3.2-.3-.6.6-.9h-.2c0-.1-.2.2-.2.2v-.7c0,0,.7-.5.7-.5l-.5-.4h-.6c0,.1-.6-.4-.6-.4l.8-2-.5-.7-.9-.7-.3-.6.7-2h-3.2c0,0-1.3-.5-1.3-.5l-.8-1.1-.8-2.5-.8-1.1h-.5c0,0-.5-.3-.5-.3l-.5.2h-1.7s-3.2-1.2-3.2-1.2l-.2-.3h-1c0,0,0,.9,0,.9l.5.6v.6c-.1,0-.5.6-.5.6l-.9.2-.2.6h-.2c0,.1,0-.4,0-.4l1-1.4-.3-.7h-.5c0,0-.2,1.2-.2,1.2l-.3.4-.5,1.4-.8.3.7-1.6-1.8.8v.9c0,0-.6,1.2-.6,1.2h-.4c0,.1-.6.8-.6.8h-1.8c0,0-.4-.7-.4-.7h-2.8c0,0-.4-.5-.4-.5h-.3c0,0-.5,0-.5,0l-1.5.9h-.6l-1.4-.9-.6-.7-.7-.2h-.5c0,0-.2.4-.2.4h-.3l-.4-1-2.1-1.1h-1.6s-.4.3-.4.3l-1,.2-.4-.2-.2-.4-.9-.3-2.4-.5-.4-.4-.4-1.3-.2-2-.4-.3h-.9c0-.1,0-23.5,0-23.5l6.5-6.6,9.6-11.5,10.3-11.7h0l.5.3,1.6,1.6,1.6,1.1,2.5,3.4,2.4.8,4,1.7,1.3.7,1.1,1.3.8.6v.4s-.6,1.6-.6,1.6l.6-1.1.7-.5,2.3.2,2.6-.4,3,.7h1c0-.1.5.4.5.4h1.2c0,0,.8.7.8.7l.4.5.4,1.4-.8,3.4v.8s.8,1.4.8,1.4l.4,1.6-.2,1.5v2.5c.1,0-.3.7-.3.7v.9c-.1,0,0,.5,0,.5l1,1.1,1.8,2.7v.5c.1,0,0,.3,0,.3l-.9.7h1.2c0,0,.4.1.4.1l.8.8,1.3.8,1.3,1.5.9,2.5-1.7,1.8,1.6-1.2.5-.2h.4c0,0,.7.3.7.3l1.1.7,1.4,1.7ZM329.7,443.8l-.8-1v-.5c0,0,.1-1.1.1-1.1l.7-1.3h0v3.9ZM293.5,458.6h-.2c0-.1,0-.8,0-.8l.6-.2.6.2-.2.5-.9.3ZM295.2,458.4h-.5s0-.5,0-.5h.3c0,0,.2.5.2.5ZM303.6,464.9h-.8c0,0-.4,0-.4,0l.3-.3h.5c0,0,.7.2.7.2l-.3.2ZM311.5,474.6h-.3c0,.1-.1.4-.1.4h-.3c0,0-.5-1.2-.5-1.2h.2c0-.1.7,0,.7,0l.4.4v.3ZM313.5,476.4h-.2c0,0-.4-.2-.4-.2l.4-.5.5.2-.3.5ZM315.7,475.8v.4s.2.3.2.3h.4s.6.3.6.3v-.3s-.2-.3-.2-.3l.2-.3.8-.3.8.7.4-.5h.5c0-.1.4.4.4.4l.2.9.5-.9h.1c0,.1,0,.6,0,.6h.4c0,0-.4.9-.4.9l-.6.7h-.2c0,0-.4-.1-.4-.1l.5-.2.4-.5-1.3.8-.9-.6-1.6-.7-1.3-.2-1.2-.6.2-.4.3.2,1.2-.3ZM320.1,478.9l-.2-.2.5-.2-.3.4ZM326.9,482.9l-.3-.3h.3v.3ZM343.2,486.7l-.2.2h-.3s0-.2,0-.2l.3-.4.9-.2-.6.6ZM341.8,486.8h-.5s.7-.4.7-.4l-.2.4ZM316.5,500.7h-.2c0,0,.1-.5.1-.5v.5Z"/>
    <path id="CA-PE" d="M396.7,472.8h.3c0,0,.2-.6.2-.6l1,.4h.4s1,.5,1,.5l4.1-.4.6.4-2.1,1.3v1.1c0,0,.2.2.2.2h-.2c0,.1-1.2.2-1.2.2l-.3-.2v-.4c-.1,0-.6,0-.6,0l.5-.3-.3-.4h-.3s-.2-.2-.2-.2v-.3s.3-.3.3-.3l-1.2.7h.5c0,0-.3.2-.3.2l-1.8-.4-.7-.8.2-.2-1.5-.2v-1.1c-.1,0-1.2-.3-1.2-.3v-.3c0,0,.1-.5.1-.5l1.5-1.8v.9c0,0-.4.9-.4.9l.8.8.2.4-.2.4.4.2Z"/>
    <path id="CA-QC" d="M393.2,373l-1,.5.2.5.7.5v.3c-.1,0-1.1.6-1.1.6l.2.4.7.5-.6.9v2.3c-.1,0,.3.6.3.6l1.1-.5h.3c0,.1,0,.4,0,.4l-.5.6v1.4c0,0,.1.9.1.9l.7.8-.3.2-1.6-.4-.3.2v.6c0,0,2.3.7,2.3.7l.4.8,2-.8.6.3.4.6-2,.6-.5.3v.7s.8,0,.8,0v.8c.1,0-.9.8-.9.8l-1.3,1.7v.4s.7.7.7.7l.8,1.9h.4c0-.1.7.6.7.6h.3c0,0,.5-.1.5-.1v.4c0,0-.7.9-.7.9v1.2c0,0-.2.6-.2.6l.2.7-.5,1.6v1c-.1,0-1,1.4-1,1.4l.8,1.8v.3c-.1,0-.9.3-.9.3v.7c0,0,1,.7,1,.7l-.4.5v.4c0,0,1.8.5,1.8.5v.3c0,0-.5.5-.5.5v.5s1.2,2,1.2,2l.5.4.6.2.2,1.3-1.8,1.5v.4c0,0,.2.9.2.9l-1,2.6h-.9c0-.1-1.8-.8-1.8-.8h-3.3c0,0-2.4-.1-2.4-.1l-.5-.4-.4-.8-1.2-.4-2.6-2.7v.3c0,0,.2.6.2.6v.6c0,0,.3,2.4.3,2.4l-.3.4-.6-.2-1.3-1.2-.6-.9h-.5c0,0,0,.6,0,.6l1.1,2.4v.3s-.4.2-.4.2l-.2.5-1.1-.4h-.3c0,.1,0,.9,0,.9l.4,1.6-1.1,1.3,1.2,1.9v1.3s1.3.5,1.3.5l.4.9.6.4v2c-.1,0-.5,1.1-.5,1.1v1.2c0,0,.4.4.4.4h.6c0,0,.5-.2.5-.2l.3-1.4.4-.2.2-.4h.2c0,0,.5.9.5.9l-.5,1.7v1.7c.1,0-.2.9-.2.9l.2.8.3.2.3-1,.8.6.3.7.7.4h.2s.2-.3.2-.3l.8.2.6-.9,1.3.3.9.7,1.3,1.6-.3.6.4,1h.4c0,0,.9-.9.9-.9l-.2-.8.3-1.7.6-.7v-1.3c.1,0-.2-1.2-.2-1.2v-1.8s.2-.3.2-.3l.7-.3.3-1.3.8-.2h.2c0,0,.5,1,.5,1v1.3s.6.6.6.6l-2.1.7-.7.7v.2s.5.2.5.2v.3c0,0,.8.6.8.6l.4,1.6h-.5c0,0,.1.3.1.3h28.4c0,0,0,3.9,0,3.9h0l-.9-.2h-.7c0,0-1.3.4-1.3.4l-1.1.7-2.1.2-2.8,3.5-.9.7-1,1.2-.9.5-.3.7-.8.4-2.2.2-.8-.2-.6.3h-1.4s-1.9.7-1.9.7l-.8-.9-3.4-.5h-1.8c0,0-.4.4-.4.4h-1.5c0-.1-1.1-.5-1.1-.5l-1.3.3-1.4-.3-1.5.2-1.7-.3-2.1.4-.8-.2-.7.6h-1.6c0,0-1,.9-1,.9l-.9.5-1.2,2.6v1c-.1,0-.6.7-.6.7l-2.9.6-1,.4.3.3-1.4.6-.5.8-1.1.7-1.3,1.6-.6,1.2-.7.9-.5.3h-.8c0,0-2.3-1.1-2.3-1.1l-2.7-.6.8.6h1.4c0,0,2.7,1.2,2.7,1.2l.4.5-.6,1.7-.4.6-1.9,2-1.1,1.8-1.7,1.3-.6.8-2.1.8h-.5c0,0-1.4.7-1.4.7l-.2.5-1.8,1.2-1.3.5-.2.5-.5.3-1.4,2-1,.2-.8.9-.6.4-1.2-.2,1.3.6v.5c.1,0-.4.1-.4.1l-1,.7h0l-.6-.6.3-1.5-.8-.4h-1.2c0,0-3.2,1.1-3.2,1.1l-1.2.2-.4-.4h-.5c0-.1-1.2,0-1.2,0l-.6-.3-.5-.6-.7-1.4h-.4s-.1.5-.1.5h-.4s-.9-.6-.9-.6l-.6-1-1.3-.8h0l-3.3-.7-1.4-.5-1-1.3-.6-1.4-.9-1.2-.8-2.4v-.5c0,0,.1-.5.1-.5v-21.9h0l.7,1.1-.7-1.4h0v-3.9h0l.8-.6h.2s.1.5.1.5l1,.6.6,1.8.2-1.2.5-.8-1.1-1.6v-.3s.2-.2.2-.2l.4-1.1.5-.5.7-1.2.4-.3-.3-.3v-1.3c-.1,0-.9-1.1-.9-1.1v-.7c0,0,0-.7,0-.7l-.8-1.3-.9-4.4v-.4c0,0,.3-.7.3-.7h.4c0,0-.6-.8-.6-.8l.3-.5-.3-.4-.7-.3h.3c0-.1.1-.5.1-.5l-.9-.7-1-2.5-.5-.5,5.3-2.5,3-2.1,2.6-2.8,1.7-2.5.5-.8.4-1.9v-2.7c.1,0-.1-3.7-.1-3.7l-1.4-4.6-1.1-2.1-1.7-1.8-2-1.3-1.4-1.5-.5-.2-.2-.7.4-1.8,1.5-2.5,1-.9.4-.6-.4-.8.5-.9v-.8s.6,0,.6,0l.8.9h.2c0,0-.6-1-.6-1l.7-.9-.2-1.1.4-.8v-.2c0,0-1.1-.2-1.1-.2l-.2-.2.6-.5-1-2.4.4-.7.4-.3v-.2c0,0-.9-.1-.9-.1l-.3-.5.6-1.3.3-.2h0c0-.1-1.1.2-1.1.2l-.5-.3h-.8s1.5-2.3,1.5-2.3l.4-1.1v-2s.9-1.1.9-1.1l-1.6-1.5-.6-.9-.5-3.4.3-1.3,2-1.6,1-.4,2.1.4,4.5,1.9.6.6-.6.5h0c0,.1,1.3-.8,1.3-.8l.6-.2,1.4.4,1.7,1.4-.2-.6.2-.3,4-2.4,1.7,1.4,1.8,1.8h.8s.2.9.2.9l-.6,1.7h.2s.9-.7.9-.7l1.2.8.8,1.4-.2.3-.7.4h.1c0,.1.8,0,.8,0l.7-.7,1,.6v.4c0,0-.5.4-.5.4l-.4.8.9.2-.4.4v.3s1.3,1.6,1.3,1.6h1.1c0,.1,1.9.9,1.9.9h.8c0,.1,1.1-.1,1.1-.1l.5.4v.9c0,0,.3.4.3.4l.4.2,1.2-.5.4-1.2h.3c0,0,.2,0,.2,0l.4,1v.7s-1,1.4-1,1.4l-.5,1.8v1.3s.5,1.1.5,1.1l-.2,1.1-.5.4h-.7c0,0-2.9,0-2.9,0v.4c.1,0,3.6.3,3.6.3l.3.2.4.8.2,1.2-.5,1.6v1.2s1.2,0,1.2,0l.2.3-.5,1,.2.8-.5,1.8-.5.4-.6-1.1-.4.8-1.2.5v.2s1.6.6,1.6.6l2.2-1.6,2.4-.2,1,.7.4.7.2,1.2.3.3v.6c0,0,0,.7,0,.7l-.5,1.9-.5.7-2,.9-.4.5,1.1-.6,1.2-.3.3-.3.5-1,.5-1.8.3-.6h.4c0,0,.6,1.4.6,1.4l-.7,1.3.9-1.1.4-1.1.3,1.3v2s.5-1.8.5-1.8l2.3-1.8,1.3-.5.5-.5.4-1.2.7-.8.5.2.6.9.4,1.9.3-1.1-.5-2,.8-.2h0c0-.1-.4-.6-.4-.6l.3-.5h.6c0,0,0-.4,0-.4h.8c0,0,0,0,0,0h.6s0-.2,0-.2l-1-.4-.4-.9h.2c0-.1.2,0,.2,0l.4-1.1.4.3-.3-1.3h.5c0,0,1.2.8,1.2.8h.2c0,0-.6-.7-.6-.7l-1-.6-.3-.9.2-1.1.6-.4,1,.6v-.2c.1,0-.4-.5-.4-.5v-.7c0,0,1-2.9,1-2.9l.5-.7h.5s.3.2.3.2ZM405.2,456.2h-1.8c0,0-3.5-.9-3.5-.9l-2.2-1.1-.9-1.3-2.8-1.5-.2-.4.5-.3h1c0-.1,3.6.7,3.6.7l1.8.7,4.4,2.8.5.9-.4.3ZM384.3,463.1l-.9.4v.4c-.1,0-.6-.1-.6-.1l-1.1.2-.2.2-.9-.5v-.4h-2.3v.4h-1.1v2.2s-.2.4-.2.4l-.8.7-1.8.8h0v-.8s-.8-.2-.8-.2l-3.3,4.7-.3,1.7-.8,1.2-.2,1.2v.9s-.4.6-.4.6v.4c0,0-1.3,1.1-1.3,1.1v.7c0,0-.4.1-.4.1l-.3.8h-.1s-.4-.4-.4-.4l-.6.4-.8-.2-.4.5-.4,1.2h-13.6s1.9-1.1,1.9-1.1l.9-.3,1.2-.9.9-.2.4-1.3,1.3-2.3.7-.6,1.1-.5,1-1.1,1.1-.6.6-.7.9-.5h1c0-.1,1.7-.8,1.7-.8l.5-.4,2.7-1.3,1.9-2.2.2-.6,1.9-2.2.5-.9.7-.5,1.4-1.4,1.9-1.2,1.3-1.1,2.9-1.5,4.1-1.7,1.8-.6,2.8-.3,2.9.5,1.1.6,1.5,1.5v.4s-1.3-.2-1.3-.2l1.1,1v.9s-.4.8-.4.8l-1.2.4-.8,1-1.9,1.1h-.9c0,0-1.9-1.1-1.9-1.1l-.7.5h-1.6c0-.1-1.1.5-1.1.5ZM404.7,467.7l.6.2-.3.2h-.7c0,0,.4-1.3.4-1.3l1.6-1.3h.7s-.3.4-.3.4h-.5s-.4.4-.4.4l-.9,1v.4ZM365.9,470.3h-.4c0,0,.6-.5.6-.5l.6-.2-.9.8ZM355.1,478.9l-1.7.2.5-.5.7-.3.7-.9h.2s-.4,1.4-.4,1.4ZM354.5,478.2h-.7c0,0,.6-.5.6-.5h.7c0-.1-.5.5-.5.5Z"/>
    <path id="CA-SK" d="M236.7,456.8h-36.8v-81.2h34.1v33.5s2.7,47.7,2.7,47.7Z"/>
    <path id="CA-YT" d="M87.2,287v13.2s.2.9.2.9l.7.7.3,1v1s.3,1.3.3,1.3l-.5,1.4v1s.2.8.2.8h9c0,.1.1.8.1.8l1,1.4v.9s.1.9.1.9l.5.9v1.2c0,0-.4.1-.4.1l-.3,1.2v.2s.9.2.9.2v1.1c0,0-.4.9-.4.9l.2,1.3.9.2.8-.5,1.2-.2v.3c0,0-.1.7-.1.7l.3.2.3-.2.9-1.1.6.4h.5s.1.1.1.1v.2s-.8.7-.8.7v.3c0,0,1,1.5,1,1.5l.4,1.2-.6,1.6-.8,1.1-.2.6-.7.6v.2s.2.4.2.4l.5-.2h.2c0,.1.1.9.1.9l.7.4-.6,1v.7s-.4.6-.4.6v.3c0,0,1.2.3,1.2.3l.9.6.9,1.2.7.4-.3,1.4h.9c0,0,1-.7,1-.7l1.1.6.8,2v.7c0,0,.7,1.3.7,1.3l2,1.6.7.3v.2s-.6.3-.6.3l-.2.3.3.2.6-.2.2.6.4.2.4.6.2.7-.3.8-.8.8v.4c-.1,0,.8.8.8.8l.3.9.9.3-.4,1.2v.9s.4,1.1.4,1.1l.4.4v.7c.1,0,1.4,1,1.4,1l-.5.6.2.5-.2.7.3.7v.6c0,0,.4.2.4.2h1c0,0,.4.6.4.6l.6-.4h.5s.7.7.7.7l.8,1.5.7.5.2.9.8.8.8.8,1.3.2.6.4.4.8.2,1.2v1s-.3.5-.3.5l.2.2h.5s.4,2.5.4,2.5h.8c0,0,.6-.3.6-.3h1c0,.1.3,0,.3,0v-.4c0,0,.3,0,.3,0l.7.5.4-.7.8.4,1.6.4.7-.5h1.2c0-.1.3-1,.3-1h1c0,0,.3,1.5.3,1.5l-.5.8v.3c0,0,.9,1.5.9,1.5l.7.2v.2c0,0,.3,1.1.3,1.1l.8,1.7v.7c0,0,.5,0,.5,0l.3.3h-64.9s-.5-.7-.5-.7l.5-2.2h-2.5c0,.1-1.3,1.4-1.3,1.4l-2-1-.3.7-2-.7v-95.1l2.5.6,1.8-.2,3.4,1.3,2.1,2.4,3.5,2.7,2.6,1.5.8.2,1.5.7h1.2ZM76.2,278.9l-.4.5-.7-.7.6-.6h.3s.8.7.8.7l-.7.2Z"/>
  </g>
</svg>