<svg xmlns="http://www.w3.org/2000/svg" xmlns:amcharts="http://amcharts.com/ammap" id="Layer_1" viewBox="0 0 512 512"><g id="_x3C_defs"><amcharts:ammap bottomLatitude="10.044" leftLongitude="-84.952" projection="mercator" rightLongitude="-59.419" topLatitude="27.238"/></g><g><path id="AG" d="m454 279.3.3.4.5.4.2.3.2.8-.2.3v.7c.1 0 0-.2 0-.2h-.4c0-.1 0 0 0 0v.2c-.1 0-.2-.2-.2-.2v-.2c-.1 0-.3-.1-.3-.1h-.2l-.5-.4h-.2l-.4.2.2-.7h.1c0 .1.3 0 .3 0v-.3l.1-.3-.2-.3h.1v-.4l-.2-.3h-.3v-.4h.2v-.1h.2c0-.1.4.5.4.5h.5Zm-1.2.8v-.2c-.1 0-.2-.3-.2-.3l-.3-.3.3-.4v.8h-.1l-.1-.4h-.1c0 .1.4.5.4.5 0 .1.2.3.2.3v.2zm-.5 10.9h-.3v.1l.2-.3c0-.1.2-.2.2-.2h-.1.3l.1.2h.4c0-.1-.2-.2-.2-.2h.1-.2l.2-.4c0-.1.2-.2.2-.2 0-.1.3-.3.3-.3h.2c0 .1.4 0 .4 0v.2h.2v.2l.3.2c0 .1 0 0 0 0 0 .1-.2.2-.2.2h.2v.3h.3v-.2l.3-.4v.2l-.1.1v.2l.2-.1h.3v-.2h.2l-.2.2h-.3v.2h.3v.3c0-.1.3-.2.3-.2 0 .1.2 0 .2 0h.1-.1.5-.1c0 .1.2 0 .2 0v.2h-.2v.2h-.1v-.1c0 .1-.2.2-.2.2l-.2.2h.2c0-.1.2 0 .2 0h.2c0-.1 0 0 0 0h.1-.1v.3c0 .1-.1.1-.1.1l-.1.1h-.4l-.4-.2h-.2v.3l.2.2c0 .1 0 0 0 0v.3h-.3c0 .1-.3 0-.3 0 0-.1-.2 0-.2 0h-.2l.2-.3c0-.1-.2-.1-.2-.1v.2c-.1 0 0 .1 0 .1l-.3-.2h-.2c0 .1-.4.2-.4.2v-.2h-.2c0-.1-.3 0-.3 0 0-.1-.4 0-.4 0h-.2v-.5h.1v-.5c-.1 0 0 .1 0 .1v-.4h-.4l.3-.2h.2l.1-.2Zm-8.9 3.2v.3-.2Z"/><path id="AI" d="M432 267.3h.2l.1.1h-.2c0 .1-.2.1-.2.1v.2h-.3v-.3h.2Zm-6 .3h.4l-.3.2h-.2v-.1Zm3.2 1.7v-.1l.5-.3v-.2h-.1l.4-.3.5-.2h.5c0 .1.2 0 .2 0h.2l.2-.3v.2l-.4.3v.2h.1v.2h-.1v.1h-.3v.3l-.5.1c0 .1-.2.1-.2.1 0 .1-.3.2-.3.2l-.2.3h-.2l-.3.1v-.2h-.2l-.3.1h-.1v-.1.2h-.6l.2-.2h.1l.2-.2h.2v-.2h.8Z"/><path id="AW" d="M298.5 380.5h.1l.1.2v.4h.2l.2.3h.2v.4l.2.3v.7h-.1v-.1h-.2v-.1h-.3v-.1h-.2v-.3l-.1-.1-.1-.2h-.1c0-.1-.2-.2-.2-.2h-.1v-.1h-.2v-.3h-.2v-.4l.2-.2c0-.1.2-.3.2-.3v-.8l-.2-.1c0-.1.1-.2.1-.2 0 .1.2.2.2.2l.1.1v.2c.1 0 .2.2.2.2l.2.3h.1l.1.3h.2l.1.2v.1Z"/><path id="BS" d="m138.9 83.4.2.2-.2.2h-.3c0-.1.3-.4.3-.4m.3.2.3.3-.6-.2h.2Zm.7.6h.4c0 .1-.6 0-.6 0zm4.8 2.3h.5l-.3.3zm-2.8 1.3v.5l-.6.2-.3 1.3v-1h-.2l1.1-.9Zm9.3.8 1 .5h-.7c0-.1-.2-.5-.2-.5Zm9.7 11.9-.4.2v-.2l-.4-.1h.6c0-.1.3-1.2.3-1.2l-.4-.3v.3l-.5-.2.3-.4h-.3l.3-.3.8.3.2-.2v.3h.4l-.4.2v.3c.1 0 .6-.3.6-.3v-.5c.1 0-.1-.8-.1-.8v.2h-.7v-.4h-.8l-.2-.2v.2h-.4v-.2l-.4.3v-.2h-.6v-.2h-.4l-.4-.4v-.5l.4-.7v-.2h-.4l-.2-.7-.4.5h-.9l-.6-.9v-1.4l-.3-.4h-.3.3v-.3l-1.1-1.2-1.8.4-1.7-.9-.4.4-.3-.4h-1l-.5-.3h1.1l2.7.4.8-.2V90l2.8 2.3 1.1 1.5 1.4.9v.3l.7.1-.6.5-.4-.7.2.7.7.8.9.5h1c0-.1 1.9 1.2 1.9 1.2l.6-.2-.3.9.3.4-.3.4v1.2h.3v.6l.4.4.4-.2v.4h-.6v.5c-.1 0 .2.4.2.4l.5-.3-.3.9h-.3l-.4.5-.2-.4h.5l-.2-.4-1.3.5-1.3 1.7v2.1l-.4 1.3.3 3.9-.6.3-.8-1.3-.5-.3.2-.8-.2-.4h-1.4l-.8-.5v-.5l.3.1v.3c-.1 0 .5-.2.5-.2l.2-.2-.2-.2.8-.7 1.1-.5 1.1-1.1-.6-.2.3-.4v-.5h-.5v.3l-.3-.2 1.1-1.1-.2-.2.2-.2-.2-.4-.8-.5.7-.3v-.5c.1 0 .3.2.3.2h.7v-.4h-.9v-.7l-.4-.2v-.2l.5.2.5-.5h.3v-.3l-.2.2Zm-13.3-9.4h.2c0 .1-.2.2-.2.2zm-.6 0 .2.2h-.2zm7.5.8-.6-.3v-.4l.4.2-.2.2.3.3Zm2.5-.1.6.6h-.4c0-.1-.2-.6-.2-.6m-10.5.2.2.4h-.3zm-.3.3.2.2h-.2zm11.3 0 .2.2h-.3zm-2.6.3.3.2-.5-.3h.3Zm-8.4 3.5-1.6-.3-2.1.3-1.6.5-3.4.3-3.6 1.3-1.5 1h-.6l-1.4-.2-4.5-3.9.2-.3 1.6 1-.3-.6h-.3l.3-.1.6.9h.4l.2.7.4.3v-.3h.4v.8l1.4.8v-.6h.5v-.3l.2.2h.5v-.7h.7v-.5l1-1.1-.2-.2.4-.5v-.4l-.5.2v-.3c-.1 0-.5.3-.5.3v-.2c-.1 0 .3-.1.3-.1v-.2h.4v-.8l.5-.5.3.8h.2c0-.1-.2.6-.2.6l.4.3.8-.4 1 .8.2-.5v.4c.1 0 .5.2.5.2v-.3l.3.5h1c0-.1.2 0 .2 0l.3-.2.2.3.6-.9v.4l.7.2 1.1-.3v-.4l.8.7.5-.6.8-.2 1.3.3.5-.4.2.3v-.4l.2.2.3-.2v-.7c.1 0 .5.6.5.6v.8c-.1 0 0 .6 0 .6l.6.2.3.5-1.1.6-.6-.5Zm11.4-2.8v-.5l.5 1h-.4c0-.1-.1-.5-.1-.5m-22.3-.2.2.6h-.3zm.6.1v.5h-.4v-.4l.3.3v-.4Zm-1 .6h.3l-.4.4v-.4Zm4.4 0 .5.4v.4l-.6-.3v-.4h.1Zm23 2-1.2-.5-.4-.4h.2l1.4 1Zm-6.6.7V96c-.1 0 .1-.2.1-.2v.8-.2l.1.5h-.3v-.4Zm-7.7-.5v.3h-.3zm-.1.3h.1c0 .1-.3.4-.3.4h-1zm-.4.5.6-.3.2.2-.6 1.2-.8-1h.6Zm-15.2-.3.2.5-.2-.3h-.2c0 .1.2-.2.2-.2m-2.7.3.3.2h-.3zm27.8.1.5.4v.3zm-9.2.3v.4l-.3.8-.3-.5.3-.3v.4zm-18.5.5.4-.5-.2.7h-.2Zm1.1-.5-.3.4.2.6-.4-.2v-.4zm-.5.2-.2.6v-.4zm30 .3v.2c.1 0 0 0 0 0v.3c-.1 0-.2-.3-.2-.3l.3-.2Zm4.1 1.4.4-1.3v.5zm-6.5-.9.7.2-.6.2v-.4Zm1.5.7v.2l-.3-.3.2-.5h.4l-.2.6Zm-.5 1.3v-.3c.1 0 0 .1 0 .1l-.2-.3h.4l-.2-.3h-.5v-.5l.6.3V99c.1 0 .7.6.7.6l-.3.8h-.5Zm5.5-1.1v1.5l-.3-1.1zm-4.6.3v.7l-.2-.2.2-.4Zm-1.2 1.6-.2.4.5-1.1h.6c0-.1-.2.3-.2.3h-.4v.3h-.4Zm.9-.1h-.3l.5-.5.2.3zm.1.7h.2v.6l-.4.2v-.7l-.4.2-.3-.6.3.3v-.3l.2.2.2-.2v.4Zm-1.1-.1v.3h.3-.2c0 .1-.3.1-.3.1v-.4Zm.1 1.4v.2h-.2l.2-.4-.2-.4h-.3v.2l-.3-.2.7-.2v.8Zm-5.3.5-.3-.8.8.7-.5.5v.5h-.4l.3-.9Zm.2 1.3v.2l-.2-.1h.2Zm-6.8 8.6.3.2h-.6zm1.6 1.8.2 1-.8-.5-.5-1.1-.2.2v-1.1l.9 1.5zm-27.3-.8.3 1-.2-.2-.4.3.2-.9Zm-.8 1.2 1 .6h-.9c0-.1-.2.2-.2.2v-.8h.2Zm59.9 15.2.2-2-.6-1.1-1-.5-1.8-1.8-.9-1.5-2.7-.6-1.7-1.2-.3-.6h-.9l-.9-.2-.9.3-.6.4-.4.9-1.1 1.2 1.7-2.8.8-1.9-.3-.5 1.3.2h-.7v.6l.8.3.4.9h.4v-.2l.3.7 1.7 1.4 1.7.8 1.2-.2 2 2.7 2.2 1.2.7.7v2l-.5 1.4-.4.4.4 1.2v1.1l-1.1 2 1 2.8-.6-.4-1.1-2.2-1.1-.8-.8-.2-.4-1v-.2l1.7 1.2 1-.3.2-.3-.2-.3.4.2.5-.6-.3-.9h-.4v.9l-.5-.6.2-1.5 1-1.1Zm-11.6-11.6.4.3h-1.3zm-1.8.8 1-.4-1.4.5h.4Zm-16.3-.2v.8l-.5.4zm-1.6 2.6v-.3l.6-.2.2-.5v.6zm-.6-.9-.3.7H147l.3-.3h.9c0 .1.3-.4.3-.4m.3.6v.2l-.4.2zm-6.2 1.7.2.6h-.2zm.3.6.2.4-.2.2-.2-.2h.2c0-.1-.3-.2-.3-.2h.4Zm-.1.7.3.2h-.3zm3.1 4.5h-.2c0 .1-.2 1.4-.2 1.4l.3.2v-.3l.6.3-.2.8.3.9 3.5 4.6.2.6-.4 1.1.8 2.3-.3.6-1.6.3-1 .7-.4-.3v.3l-.2.2.7.2-.5.6v.2c.1 0-1 .7-1 .7l-.5-.5v.3c-.1 0-1.2.6-1.2.6l.6.5v.2h-.7l-1.1-2h-.6c0-.1-.9-.9-.9-.9l.2-.6.8-.9v-.5l-1.5 1.5-.8-.3-2.4-1.6-1.6-1.6 1.4-1v-.4h.4l-.5-.4.4-.6.4.8v-.6h.4v-.5l.5-.3-.2-.4.5-.3v-.3h.2l.4-.9.7-.4.7-1.1-.2-.9.5-.6v-1.5c.1 0-.9-2.3-.9-2.3v-1l1.4.3-.2.2.6.3v.3l.7-.1.5.2.2-.2-.5-.2.5-.3.2.2.4-.2.7 1.1-.4.8.4.2v-.3l.2.2.2.6Zm8.9-.2 1.6-.4.5.2.4-.4 1.1.3 1 .7-.3.4-1.4.3-.8.5-.4-.2-1 .3-1.9-.7 1.1-1Zm12.9 5-.2.5.4-1zm.1 1.9v.6c-.1 0-.3-.4-.3-.4zm24.5 6.1.9 1.4 1.9 1.5 1.2 2.1.4 1.3-.7-.5-1.1.4h-.6c0-.1-.7.5-.7.5l-1.3-.7 2.4-1.2.2-1-.4-.8-.9-.2-2.4-4.6h-1l.2-.8-.3-.8-1.1-.9h-.5c0 .1-.5-.7-.5-.7l1.4-.3 1.2 1.1v1.3l1 1.1.7 1.7Zm-55.6-5v.3h.4v.4l-.7.4-.3-.4.6-.6Zm31.1.7.3.5-.3.8zm16.1 1.2 1.5.4-.9.2-.7-.6Zm-15.5.6.3.3v.7l-.6-.6.3-.5Zm.4 1.1.2.9h-.2l-.2-.8h.2Zm-18.5 3.7-.9.5-.4-.2.3-.5h-.5c0 .1.8-.6.8-.6h-.2c0-.1.2-.4.2-.4h.6v-.5l.6-.3.6 1.8-1 .2Zm-2.8 0v-.3l1.1-.2-.2.5-.5.3-.3-.3Zm-.2-.1v.3h-.3l.3-.2Zm-.6.2h.2c0 .1-.2.3-.2.3l-.4-.2.3-.2Zm26.1.3v.2h-.3.3Zm-25.5 0h.2c0 .1-1.1.4-1.1.4l.8-.4Zm5 1.7v.3h-.7l-.6.7h-.4l-.2.6-.7.3.4.3h.8l-.5 1.6-.7-.3-.2.2h-.5c0-.1-.2 0-.2 0l.6.3-.8.5-.8-.7v-.6h-.4l-.7-.4v-.3l.7.1-.6-1.2h1l.9-1.8 1.1-.8 1.7-.7.3 1 .7.3-.2.2Zm-2.7-1.2-.5.4-.7-.2h.5l.1-.2.9-.2-.4.2Zm23.8.1.3.6-.4-.2v-.4Zm-28.1 1 .9-.8.6.2-.7.6.3.4h-.6l-.4.3-1.2-1.2v-.3l.4.6.3-.5 1.1-.3-1.2.8zm2.2-.7.3.3.8-.2.4.2-.4.5-.4-.3-.5.2v.2l.5.2-.4.3v.6l-1.9.7-.6-.6v-.3c.1 0 .7.2.7.2l.5-.5h.7v-.6l.3-.4h-.5l.4-.4Zm26 .2.2.5-.3-.2v-.3Zm.8 1-.3-.2h.3v.3h-.1Zm-23.1.7.3-.6h.7l-.5.6h-.8c0 .1.3 0 .3 0m-1.9 7h-.3v-.7l.4-.6.2-.2-.9-.2.4-.3h-.4c0-.1.3-.6.3-.6l-.6-.5h.8c0-.1.3-.7.3-.7l.6-.3h.8l.7-1.6.6-.4.5-1.3.5-.3 1 2.2.8 4.3-.5 2.1-.9-1-1.3.8-.2-.3-.7-.3v-.5c-.1 0-1.9.3-1.9.3Zm25.3-7.4.2.3h-.2zm-22.6.4-.2.5-.3-.3.6-.2Zm-.8.2h.3v.4h-.7v-.2h.5Zm-.1 1-.4-.2v-.3h.8v.3c.1 0-.4.3-.4.3Zm60 2.6.3-.6-.3-1 .4-.8 1.2-.5.6 1.4-1.1 2.4h-1.6c0 .1.5-.9.5-.9m-33.7.6-1.1-1.6-.2-.9-.5-.2v-.6c.1 0 1.9 3.2 1.9 3.2Zm.4.7-.3-.2v-.5zm1.3 1.4.3.3-.3.2-.2-.3zm20.8.6v-.5c.1 0 .7.3.7.3l-.3.7-.3-.6Zm-46.2 1.9-.5.5-.8.2v-.7c-.1 0-.6-.1-.6-.1l-.2-.6 1.6-1.3.2.4.8.5zm-4.1-1.8.3.2v.2h-.7l.5-.4Zm1.9.2h.3v.5h-.9c0 .1.5.3.5.3v.3l-1.1-.4.2-.3-.8-.2.7-.2v-.2c-.1 0 1.1.1 1.1.1Zm28.7 0v.3h-.1v-.3Zm-31.3.2.2.4-.5-.2.2-.2Zm-.1.4h.2c0 .1-.3.3-.3.3l.2-.3Zm.7.4h-.2l.3-.1-.3-.2h.4c0-.1.4.5.4.5zm31.8 0v-.2l1.1.9zm-31.1.7h-.6l-.4-.7.8.3.5-.6v.3h1.2v.4h.5v.7l-.1.1-.8-.8h-1.1Zm-1.7-.6.3.2h-.3zm34 .5.2.2h-.3v-.2Zm-2.5.2.2.5-.3-.2v-.3Zm-29.1.7v.3h-.6c0 .1.3-.9.3-.9l.3.5Zm31.7 1.1-.5-.5v-1l.4.4h.4l-.5.6.3.3v.2Zm23-1.4.7.2-.2 1.3-.5.2-.7-.5h-1.5v-.2l.5-.4 1.8-.5Zm-16.9 5 .4.4.6-.4 2.4 1 .4.4h-1c0-.1-.4-.4-.4-.4l-.5.2-.3-.2v.2c-.1 0-.5-.5-.5-.5h-.9v-.1h.2l-.5-.3h-1.5c0-.1-.5-1.2-.5-1.2h-.3l-.3-.3v.2c-.1 0-.7-.8-.7-.8l-1-.5-1.4-.3-.2.5-.2-.4.5-.2-.5-.6.4-.6v-.5l.3.3.2-.3 1.2 1.2h.3v.4l1.3 1.3.7.5.2-.2 1.3 1.5h.3Zm11 1.8.9 1.7v1.8l.5 1.5.8.7 1.6.2 1.6 2 .5 2.5-.6.6-1.9-4.2-1-.5-1.8-.4-.5-.5-1.9-1 .5-.6v.5h.7l.3.3v.4l.6.7h.9v-.3l-1.3-1-.2-.4v-.8l.8-.7v-.3h-.4v-1l-.2-.6-.5.2.4-.3v-.2l-1.3-.5v-.4c.1 0-.3-.3-.3-.3v-.6l-.6-.6v-.7c.1 0-.5-.8-.5-.8v-.4h-.3l-.5.5.4-1.2-.2-.2-.4.4-.2-.2.3-.6-.3-.4.3-.2 1 1 .2.8 1.2 1.3.3 1.6 1 1.5Zm-11.1-2.6-.7-.3-.4-.5zm-2 .3.2.2v.3l.2.2h-.6l-.2-.3.3-.3Zm-.8.4v.3l-.2-.3zm-.4.1h.2l-.3.3v-.2c-.1 0 0-.1 0-.1Zm-1 .1.2.2h-.3v-.2Zm3.2.2-.4.2v-.2zm12 5.4v.5l-.4-.3h.4Zm-2.3.1.2.2h-.3c0-.1.1-.2.1-.2m.6 0v.2h-.4l.4-.3Zm28 2.4h-.2c0 .1-.9-.4-.9-.4l2.1-.3 1 .3-1.3.4h-.6Zm-5.3 7.8-1 .7-.3-.6-1.2.6v-.4h-.3l-.5-.5v.4c-.1 0-.3-.5-.3-.5l-.3.2v-.3l-.8.6v-1l-.9-1-.4-1h.8c0-.1 1.4.5 1.4.5l.7 1.1h.7l.3.5.2-.2.4.2.3-.3 1.7.5-.8.5Zm3.4-.7v-.2c.1 0 .3.2.3.2l-.2.6-.3-.2zm-.6 5 .4-1.1v-.5c-.1 0-.9-.8-.9-.8h-.5v.4l-.2-.3-.4.3v-.2h-.5l.4-.3v-.2c-.1 0-.4.2-.4.2l-.3-.4-.2.3h-.1v-.5l.9-.6-.6-.5h.4l1.3-.2h-.5v-.6l.5.4.7-.3v.7l.3-.2-.3.7-.2-.7-.3.2v.2l.2.6.6-.2.5 2.6-.5 1.1-.8.9h-.3l-1.3 2.4-2.2.9h-.4c0-.1-.9 1.4-.9 1.4l-.4.3h-.8l-.8.8.3-.6-.2-.5.6-.3 1 .2.4-.6h-.2v-.1l.4-.4-.3-.2.2-.4 1.8-.6.2-.6-.3-.4 1.7-.3v-.9l1.6-.3.5-.4Zm-7.6-3.1-1.6 1.9.2-.8 1.1-.8.6-1-.2.6Zm-29.4 3.2.2.5h-.2zm53.9 2.3-1 .7-1-.7h-1.1l.6-.7.2-1.2.7.5.3-.4 2.2 1 .4-.2-.4-.3 2.6.8.7.6h.5l.5.4-1 1.1-1.7-1.5h-1.1c0-.1-.7 0-.7 0l-.2-.3h-.6Zm-53.5-.6.3 1.1-.4-.6v-.5Zm.9 1.9v.2h-.4.4Zm.4.6.2.7h-.3v-.7Zm.4 1.1.5.9-.5.2-.4-.8h.3v-.4l.2.2Zm.5.9.3.5-.5-.2zm52.7 14.4h-.5l-1.7 1-.4-1.7 1.6-1.1 1.5 1-.4.7Zm-14.2 9.7-.3-.7.7-.2.3-.7-.4-1 .8.3 1-.4.5-.4.5-1h1.6l.8-1 .8 1.4.8.5.9.2 1.7-.6.7-.5 1.4-2.7 1.1-.3-.2 2.8-.4 1-.9.8-1.5 2.9-1.7.2-.6-.3-.6.5v-.4h.5-.2c0-.1-1 .1-1 .1l-.7.6h-.9l-1 .2-.9-.4h-1.7l-.4.6-.6-.5-.2-1.1Z"/><path id="BB" d="M498.5 368h.1v.1c0 .1.2.2.2.2h.1l.1.1h.1v.2l-.2.4h-.1c0 .1-.1.4-.1.4v.2l-.6.5h-.2l-.2.3-.3.1h-.3v-.2h-.6l-.5-.2h-.5v-.2l-.4-.2c0-.1-.1-.3-.1-.3v-2.6l-.1-.4v-.4l.2-.4.4-.2h.1l.1.2.4.4v.1l.2.3v.7h.2l.3.6h.2c0 .1.3.2.3.2l.3.2h.1v.1h.2l.2.2h.2Z"/><path id="CU" d="M89.8 167.3h-.7v-.6l.9-.3.2.7.4-.2v.4l.4.2-.5.2zm7.7 1.5h-.3l-.2-.4-2-.5v-.3l.9-.1v.4h.9l.7.5.5-.2-.2-.3h.2l.2.7-.6.3h-.1Zm51.1 19-.9-1.7.5.2 1 2 .9.8-.9-.2-.7-1.2Zm-57.7-19.3.5-.3v.7c.1 0 .7.5.7.5h-2l-1.3.9-.3-.3 1.9-.8.3-.3h-.2l.5-.2Zm4.8-.1-.6.5.2-.4h.4Zm7.3 1.4h.4c0-.1.5.4.5.4l.9.3v.3l-.6.2v.5h-.6v-.8l-.1-.1v.2l-.6-.5.2-.5Zm2.4 1.3.5-.4.5 1-.2.2-.8-.7Zm1.2.4.3-.4h.2v.8h-.5zm1.9 2.3-.4-.7.5-.3h1v1l-.6-.3-.2-.4-.3.6ZM80.8 192l.6-.2-.2-.5.2-.5-.6-.7v-.9l-.5-.4h-1.1l-.2-.3h-.7l-1.1.5v-.4h-.7v-.3l-.5.5-.5-.5v.3c-.1 0-1.5-.2-1.5-.2v.5l-.3.2-.2-.3h-.8l-.6-.4-.3-1.1-1.7-.4-1.5-1-1.1-.3v-.7l-.8.2-.4-.7.2-.5.6-.3h5.7l1.2-.5h1l.5-.2.5-.4v-1.8l-.6-.2-1.5-1.2-2.2-.8-4.4.5-1.9-.6-2.7.2-3.4-.2-.6.4-.2-.4-1.2.2-2.4-.5-.4.3v1.2c-.1 0-.8.6-.8.6l-.9.3-.9.8h-.7l-.5.6-1.7.6-.7.9-1 2.2-.8.3-1.3-.4-.5.5v.6l-.7.6.2.4-1 .9-2.2.7-.8-.3-1-1-1.6 1.4-.4-.5-.2.4h-.5c0-.1-1.2.2-1.2.2l-.5-.3-.6.3-.9-.2-.8.2-.9.9v1.1h-.4v.5l.4.6-.6.7v.7l-.6.7-1.3-.5-3 .7-3.3 2.6-1.4.3v-1c-.1 0 1-1.6 1-1.6l-.3-.7-.5-.3h-1.1c0-.1-2.4.7-2.4.7l-1 .4-1.3 1.3-2.3-.3-.7-.8.6-1.1.4.6h.6c0 .1.9-.2.9-.2l-.5-.4c0-.1.4-.2.4-.2h.3v.6h.3l1.5-.9 2.6-.9 1.3-.9h.6v.4l.6.2 1.2-.7.6.2.2.5.4.3.4-.5h.6c0 .1.2-1.1.2-1.1h-.3l-.4.9H25v-1.1h-.6c0-.1.3-1 .3-1l-.9-.2v-.3l-.3.2-.2-1.2-.3-.2 1.1-3.5.8-.4.7-1.1-.2-.5 1.8-.7-.3-1.2 1.1-.2.5.3V180h.6v.3h.2l.2-.4-.2-.4.6-.2.4.2.2-1.1h-.3l-.4.4v-.3l.7-.4.3.7.5.3 1-1.1h.5c0-.1.3.2.3.2l.2-.6h1.5l1.7-.8.2-.6 1 .5.6-.4-.3-.3.2-.2h1.3c0 .1.3-.7.3-.7l.5-.2v.3h.6l.5-.5v-.7l.4-.2h.3l-.4.3 1.2.7.7-1.3 2.4-1.4 1 .3-.5.8v.3h.6l.4-.6-.3-.5.7-.4 4.5-.5h2.9l2.5-.4 1.2-.4.8-.7h.9c0-.1 1.1-1.1 1.1-1.1h.6l.7-.4 1.9-.3 2.5.2 1.4-.3 1.6.6 3 .2h3.4c0-.1 1 .2 1 .2l.4.7v.6l-.8.5.3.3 1.1-.2.5-1h.6c0 .1 2.8-.8 2.8-.8l2.8-1.5.4.3h-.8l-.3.4h-.5c0-.1-1.1.5-1.1.5l-.4.5.5.3 1.2 1.5 1.1.4h.4c0-.1.7-1.3.7-1.3l1-.4.2.2h.7l-.2.4.6.4 3.7-.8 1.9.2.3-.2.3-1.2h.3l.4.2h-.3l-.4 1.2.6.4v.4l.7.2.4.9h1l1.4 1h.8v-.9l.3.2.9-.2.5-.5h.2l.4-.4.2.7-.3.3.2.3.4-.3v.6l-2-.2-.4.2.2.4 1.3.7 2.1-.7-.4-.4.5-.2.6.6.9.2 1-.3v.7l.6.9h.8l.5.6h.3v-.7h.5l.3-.4-.5-.6.4-.6.2.3-.2.3h.4l.1.3-.2.5.7-.3.2.2-.4.6h-1.1v.6c-.1 0 .2.8.2.8h1.1c0-.1 1.8 1 1.8 1l.6-.5.5.2.7 2.1.5.2.6.9.6 1.3.4.4.3-.6h.2v.5l.9.8.2.6.5.2.3.6 1.6.6.6.5.5-.3 1.2.3.4-.5 1 .4 1.1-.5 1.5.3 1.3-.3 1 .4.9-.2.3.3v1.1c.1 0 1 .4 1 .4l.2-1-.5-.7h.7l.5.5h.3l.3.5h.4l.6.4h.8c0 .1.8 1 .8 1h.9c0 .1.5 0 .5 0v.4c.1 0 .9.1.9.1l.7.5.2.8h.3c0-.1.3.5.3.5h.8l.6.5h1.1l.5.5h1c0 .1.7.6.7.6l1.3 2.3h.4l.9 1.1.4 1h.4l.4-.9-.3-.5.2-.7.9.2.2-.2-.4-.3.2-.8-.4-.3v.7l-.3-.5-.3.5-.6-.2-.9-.7-.2-1.5-.6-.5v.3h-.5l-.8-1.1-.3.3-.4-.3v-.3l.5.4.3-.7h.5l-1.4-1.8h-.4l-.4.2-1.5-.7-.2.2-1-1.5-1.1-.3.6-.4v-.5l-.8.4H137l-.4.3v-.9c-.1 0-.9.3-.9.3h-1.4c0-.1-.3-.7-.3-.7l-1.8-.4v-.7c.1 0 .7.1.7.1l-.3-.5-.2.2-.3-.2-.3.9h-.4l.3-.7-.6-.9 1.1.2v.3c.1 0 .6-.2.6-.2v.2h.6l.8.4h1.6l.9-.6h.8l.7.4.2.2h-.4l.2.3h.3l1.3 1.6.6.2.6-.4.5.4v-.2h.3l1 .4.6.7.5 1.8.8.4v-.8h.2l.6.4.2.4-.6.2v.4l1 .1.3.7.4-.2-.2-.4h.4v.2h.7c0 .1-.2.6-.2.6h-.5v.2l1.3.6-.2.6.2.4.9.2.6.7.3-.3.8.4.3-.3h.4l.5 1.2-.5.4v.9h.4l-.8.3.3.7h.4v-.7l.4-.5v.5l.4.1-.5.8h-.4c0 .1-.7-.4-.7-.4l-.3.3-1.2-1.4h-.8l-.4.3-.8.2.7 1.2.6.2.3-.2.5 1.6 1.2.3.3.3h1.7l.9.5.4-.4h.6l1.1 2.4 1.1.2.4-.6-.3-.4h-.4l-.4-.7.3-.6h-.6l-.4-.4.2-.8.7.7 1.2.3.6.6 1.9.9.7.7h.4v.4l.7.5-.2.6h-.4l-.3.6-.6-.6-1.6-.8-.4.4-.4-.4h-1l.1.4 1 .6.8.2.4-.2.7.5-.7.3-.2-.2-.4.5.3.9 1 .2 1.1-.4.3-1.4.8-1.1.4.2 2.2 2.7 1.9.8.7.6-.3.9h-.5c0-.1-.8 0-.8 0v.3c.1 0-.2.4-.2.4l.2.2 1.4-1 .3-.9.5.4 2.3.3.4.4v.3c.1 0-.7.5-.7.5l-1-.3-.2.5h.6l.5.5.6.2v-.5c.1 0-.2-.4-.2-.4l.3-.2 1.3.5.5-.2.2.3-.2.7-1.2.6 1.4.6h.2l.9-.9-.9-.3v-.6l.2-.3h.9l2.2.2 3.9 2 .4.5v1c-.1 0 .2.2.2.2l.3-.2v-.4c-.1 0 1.4.5 1.4.5l4.2-.9h1.8c0 .1.7.6.7.6v.7h1.1l.9 1.4-.8 1.8-.8.7-.8-.8h-.5c0-.1-.5 0-.5 0v.8h.3v.5l.2-.3h.4l.3-.3 1.4.2.6.4v.4h.5v.7h-.6l-.8-1.1h-.8v.4h-.4c0-.1-.3.2-.3.2l-.2-.4-.4.2-.7-.2.2.6-.4.7v.6l.4.9 1 .3 1.1-1.4h.5l.1-.3.3.3v.7l-.4.2h.6l.5-.7v-.4h.5l.3-.4.2.2v.9h-.8l-.6 1 .7-.2.7.4.9-.3.3.3v-.5c.1 0-.5-.5-.5-.5l.8-.2 1.5.4v.5h-.4l1 1 .6-.3v-.3h-.3l-.3-.7.6.2 1.1-.2 2.4.7h2.4l.8.5h1l.2.5.5.3h1.8l.2.2v1.1l3 2 1.5 2.4h.7c0-.1 1.3.9 1.3.9h1.4l.3-.3 1.2-.2 1.6 1.3.3.9-.3.7-1.4.8-.2.9-.7.5-1.7-.3-4.1.7h-.8c0-.1-.7.1-.7.1l-1.2-.2-1.8.2-2.7 1.7-.6.7-3.3.6v-.6c-.1 0 .4-.2.4-.2l.3-.4v-.6c-.1 0 .5-.2.5-.2v-.4h.3l-.2-.8h-.3l-.3.4-1 .4v.3l.7.4-.5.3.2.5-.6.3v.5l-2.2.5h-2.1l-.5-.5-1 .4-2.1-.3-1.7-.9-.2-.4-.8.2-3.7-.3-1.2.2-4.2-.8h-.9c0 .1-1.4.7-1.4.7l-.7-.2-3.6.5-1.8-.4-2.3.6h-1.4c0-.1-1.1.6-1.1.6l-1.3.3-5.2-.3-.5-.2h-.5l-.2.3.3.3-.8.6h-1.3c0 .1-.4-.2-.4-.2l-1.2.4h-1.9l-1.3.4-1.2-.3v-.8l.6-.9h.5l1.5-2.5.6-.3-.3-.3v-.2l.9.2.6-.4.7-.9.8-.4.9-.8 2.1-.7.4-.4v-.6h.5l.2.4.8-.3.5-.9.9-.8v-.9h.3l.2-.8-.6-1-1.2-.5-.3-.4-.2.4-.8-.2v-.9l.6-.3.3-.6-.8-.5h-.3v.4l-1-1.3-.4-.2-1.6.4-.8.5-1.8-.5-3.5.2-1.9-.8h-1l-.4.6-2.2-.2-1.9-1.2-.4-.8-.7-.7h-.8l-.4-1.3-.8-.2-.8-.8h-.7l-.4-.3v-.5l-1.6-.9-.2-2.7-.4-.7v-1.2h.2l.2-.4-.7-.2-.3-1.9-.9-2-1.4-1.5H131c0-.1-.6.4-.6.4l.2-.8.5-.5 1 .2-.6-.8-.5-.3-1.9.3-.7.3v.3c-.1 0-1.2-.2-1.2-.2l-2.1.2-1.3.7-1.6.3-1.7-.4-1.2-.8-1 .2-.8-.2-1-.9-.7.5-.4-.5h-.6v-.3l-.4-.4-.9-.3-1 .3-.9-.8h-1l-.2 1-1.2-1.4v-.3h-.3v.5c-.1 0-2.3-.5-2.3-.5l-.3-1.1-2-.3-2.8-1.5-1-1.3-1.3-1.1v-.4l-.7-.1v-.7h.5l.3-.5-.4-.7h-.4v-.6l-.8-.5h-.9l-.2.4 1.6 1.6v.8l-1.2-.4-1.5.4-2.9-.3-2.3.4h-1.8c0-.1-1.5-.6-1.5-.6l-1.2-.7-.6-1.4v-1l-.8-1.2h-.5l-.2.3.4 1.2-.2 1.4.2 1.1-.3.7h-.2c0-.1.3-.4.3-.4v-.6l-.7-.8-.5.4v.5h-.8l-.5.3v.9l.6.2-.5.2-.9-.2Zm41.7-11.1h-.2v-.5l-.5.2v-.5l1.2.3v-.4c.1 0-.5-.1-.5-.1l1.1-.4.5.2.5-.3v-.4l2.4.2v.4l-.7.3v-.5h-1.2l-.8.6.2.4-.5-.4-.2.5h-.3l.6 1.1.7.3h-.7l-.9-.9h-.7Zm-9.4-6.2v.2h-.6l.2-.4h.4Zm0 .3.7.2v.3c-.1 0-.8.1-.8.1v-.6Zm5.4 3.9-.5-.4-.7.2-.5-.5-.7-.2-.8-1.6-.9.3-.3-.2v-.3l1.1-.2.9 1.1 3 1.7 1.1 1.4h-.4l-.3-.7zm-.4.8v-.3h-.3l.2-.7v.5l1 1.2h-.2c0 .1-.5-.2-.5-.2l.3-.4h-.5Zm8.1 1-.2.4.4.7.7-.2v.3c.1 0 .6.2.6.2l.6-.2v.3c-.1 0 .3.3.3.3l.5-.2.5.3h.3l.1-.5v.6c.1 0-.7.3-.7.3l-2.4-.9-.6.3-.5-1 .4-1.4h.2l-.3.9ZM47 201.6l-.3-.4.2-.4-.6-.7 1.9 1.7h.7l.5.2.6-.3v-.4h.5l.2-.6-.4-.2-.6-1.4-.4-.2-1.2-1.9.7-1.4 2.1-1.6-.4-.2-.6.2.5-.3 1.1.4h1.4l1.7.7.3-.2.9.4.3.5-.4.4.2.8 1.4.6v.3l.6.4-.6 1.6.8.4v.6l.4.3v.4l-1.6 1.2-4.9 1.6-3.7-.6-.7-1.1h-.5l-.3-.7Zm108.1-4.6h-.4l-.4-.5-1.5-.2v-.3c.1 0 .5.2.5.2l.5-.2-.6-.4-.4-1 .7-.4.8.6.9 1.4.8.3-.2.3-.6.2Z"/><path id="GP" d="M457.8 315.9h.1v.2h-.2l.2-.2Zm-.8-.5.2.1c0 .1.2.2.2.2v.2h-.5v-.4h.1l.1-.2Zm.7-.2h.2v.2h-.2zm.5-.1v.2h.1l-.2.1v.2h-.2c0 .1-.3 0-.3 0v-.2h.4v-.4Zm5.6-2.4.4.3h.2v.1h.2v.3l.6.5v.9h-.2c0 .1-.5.5-.5.5h-.7c0 .1-.7-.1-.7-.1l-.2-.2-.2-.2c0-.1-.2-.8-.2-.8l.3-.2v-.5h.2v-.2h.1l.2-.3h.3Zm3.2-3.3v.1h-.4.4Zm1.9-3.5v.4c.1 0-.4.2-.4.2l-.4.3h-.5l-.4.3v-.2l.1-.2h.2v-.2h.3l.2-.2h.3c0-.1 0 0 0 0l.2-.1c0-.1.2-.1.2-.1Zm-8.7-3.2v.2c0 .1.4.1.4.1v.2h.2l.2.2.3.2.2.9v.3c-.1 0-.2.4-.2.4v.3c.1 0 .5.5.5.5h.2v.2h.8l.2.2h.1l.5.2c0 .1.1.1.1.1l.4.7.6.3h.1l.5.2h-1.6c0-.1-.7.1-.7.1h-.8l-.6.2-.2.2h-.2l-.2.1h-.6c0 .1-.3.1-.3.1h-.2c0 .1-.4 0-.4 0h-.4v-.2h-.4v-.4h-.2l-.2-.4v.4h.2v.2h-.3v-.3h-.2l-.3-.1v.3c-.1 0-.1.2-.1.2l-.1.3v.2h.2c0 .1-.1.2-.1.2v.2h.2v.2l.3.2-.2.3.2.2v1.5l-.9.7v.4h-.3c0 .1-.3 0-.3 0l-.2.2h-.1l-.2.2h-.5v-.6l-.6-.6v-.4l-.5-.6v-1.2c0-.1-.2-.2-.2-.2v-.7h-.1v-.3c0-.1.1-.5.1-.5v-.3l-.4-.3v-.5h-.2.1v-.6h.1l-.1-.2.2-.2v-.2l.2-.2v-.2l.3-.1h.2l.1-.1h.4v.3h.1v.2h.4l.2.3.3.1h.5c0 .1.1.1.1.1l.3.2h.4l-.2.4h-.1c0-.1 0 0 0 0h-.1v.2h.3v.1h.2v-.2l.1.2c0 .1.1.2.1.2h.2v-.4h.6v-.3h.1l.1-.2v-.7h.3l.3-.2h-.1c0-.1.1-.2.1-.2v-.2l-.2-.2-.3-.1-.2-.8.2-.5h.2v-.2h.2v-.3h.3c0-.1.2-.5.2-.5h.2Z"/><path id="KN" d="M435.8 287.3h-.5c0-.1-.2-.1-.2-.1v-.3c-.1 0-.7-.3-.7-.3l-.3-.3h-.2v-.4l-.3-.2v-.5h.2l.2-.2h.4c0-.1.2-.1.2-.1v.2h.3l.2.1.5.4h.2v.1h.1l.2.3v.1l.3.3v.3l.2.2v.2h.1v.3h.1c0 .1.3.3.3.3v.1h.1v.3-.1h.2v.7h-.2v.2h-.1v-.2l.1-.2v-.4l-.2-.2h-.2v-.1c0-.1-.3-.1-.3-.1h-.1c0-.1 0 0 0 0v-.2h-.5Zm3.9 3v.4l-.2.2h-.6c0 .1-.3.2-.3.2h-.2l-.2-.3v-.1l-.2-.4v-.8l.2-.3v-.2l.2-.1v-.1h.7v.2h.4l.2.3v.7Z"/><path id="BL" d="M433.5 274.6v.2h.2c0 .1 0 0 0 0v.3-.3h.2v.1h.1v.2l.2-.1v.2c0 .1-.1 0-.1 0h-.2v.3h-.2c0-.1-.1 0-.1 0h-.1c0-.1 0 0 0 0l-.2-.3h-.1v-.2l-.2-.2h-.1.2Zm-.7-.6h.2v.1h-.2Z"/><path id="MF" d="M430.5 270.7h.1v.2l-.2.1v.3l.2.2v.1l.2.2v.3h-.5l-.3-.2h-.2l-.3.3h-1.3l.1-.3h.4l.3-.2v.3h.5c0-.1.1-.3.1-.3v-.3h.1-.1.2v-.3c.1 0 .3.1.3.1v-.2h.3Zm1.1 0v.2h-.4c0-.1.1-.2.1-.2h.2Z"/><path id="BQ" d="M431.1 282.6v.2h.2v.2c0 .1.2.1.2.1l.4.3c0 .1-.2.4-.2.4h-.6v-.4h-.2v-.2h-.2.2v-.5h.1Zm-4.9-2.3v.5c-.1 0 0 .1 0 .1h.6l.2-.3h-.1v-.3h-.7m-96.6 107.4v.3h.5v-.3h-.5m-1.6-2.6v.2c-.1 0-.1.4-.1.4v.2c-.1 0 0 .2 0 .2v.4l.3.1h1l.4.2.4.3.5 1c0 .1-.3.6-.3.6l.2.3v.7l.3.3v.3c.1 0 .3.2.3.2h.2l.3-.4v-.8h-.3c0-.1.3-.4.3-.4h.1v.2h.2l.3-.5v-.3l-.3-.7v-.4l.3-.2v-.2l-.3-.1h-.3l-.7-.2h-.3l-.1-.2-.6-.2-.6-.5-.3-.5h-.6c0-.1-.3.1-.3.1Z"/><path id="CW" d="m313.8 383.3.3.2h.1c0 .1.3.3.3.3l.3.2h.3l.2.2v.3c.1 0 .3.1.3.1v1.1h.1c0 .1.1.3.1.3v.2c.1 0 .4.2.4.2l.2.2.3.2v.2c.1 0 .3.1.3.1h.8l.2.1h1.1l.3.2h.1c0 .1.2.2.2.2l.1.4v.4c.1 0 .3.3.3.3l.2.2.2.3.4.3h-.8v.1h-.3v-.1h-.2l-.2-.1h-.1l-.1-.1v-.2l-.2-.2h-.1v-.2h-.2l-.1-.2h-.1l-.3-.2h-.4l-.3-.2c0-.1-.2-.2-.2-.2l-.2-.1v-.3c0-.1-.2-.3-.2-.3v-.2h-.1v-.1h-.1c0-.1-.2-.2-.2-.2h-.1v.2h-.3c0-.1-.1-.2-.1-.2v-.2h-.1v-.3h-.2v-.2l-.1-.1h-.1v-.2h-.2v-.1c0-.1-.1-.2-.1-.2l-.1-.2v-1.9h.2Z"/><path id="SX" d="M428.3 272.2h.4l.5.1h.2l.3-.3h.2l.3.1h.5v.1c0 .1-.2.3-.2.3v.1h-.1v.2l-.3.3v-.2h-.1v-.2h-.2v.2c0-.1-.1 0-.1 0h-.1c0-.1 0 0 0 0 0-.1-.2 0-.2 0v-.2l-.3-.1v.2l-.3-.2c0-.1-.2-.2-.2-.2Z"/><path id="KY" d="m112.4 238.3-.6.5-2.7.7 2.7-1.4zm-4.6 1-.9.2-1.1.6h-.8l1.2-.9 1.4-.3zm-23 7.9-1.1.2-.7.6-1.4-.3-.7.3-.2-.3.2-1.4-.7-.6.6-.4.5.2-.3.2.4.7-.2.4.4.6 1-.2v-.6l.7.2v-.4l-.3-.2v-.3c.1 0 .8.5.8.5h2.6c0-.1.2.1.2.1l-.3.9h-1.4Z"/><path id="DM" d="M464.4 325.7v.2c.1 0 0 .7 0 .7v.2l-.1.1-.1.6h-.2c0 .1-.4.2-.4.2h-.2c0-.1-.2 0-.2 0v.3c-.1 0-.4.1-.4.1v.2l-.5.1h-.4c0-.1.2-.2.2-.2v-.3c.1 0-.2-.2-.2-.2v-.9l-.3-.2v-.3l-.1-.3v-.2c.1 0 0-.3 0-.3l-.4-.6-.3-.2v-.3l-.2-.4-.3-.2v-.7l-.3-.3v-.2l-.2-.5v-.2l.3-.1v-.3c.1 0 0-.3 0-.3h-.3v-.1h.2v-.8h.7l.3.2v.2h.1l.2.4h.5c0-.1.2 0 .2 0h.4v.1h.5v.3h.2v.7h.4v.4h.3v.3l.2.2v.3l.1.2v.3l-.2.2c0 .1.2 0 .2 0v.5h-.1c0 .1.2.2.2.2v.2l-.2.1c0 .1.2.2.2.2h-.1v.7Z"/><path id="DO" d="M310.8 264.5h-.2l-.2.3h-2l-1.7.4-1.3-.9h-.6l-.3.9-.6-.2-.2-.7-.3-.2-3.6-.3-1.1.7-1.4.3-1.2 2.1-.5.4-.9 1.3h-1c0-.1-.5.2-.5.2l-.6-.3-1.2.2-1.1-.2-2.1.9-1.1-.3 1.1-.2-1.7-1.1.4-.7v-1.2l-.2-.7-.6-.3-1.5-.2-.4.4v.5c.1 0-.3.6-.3.6l-1.1.2-.4-.2-.5.5.1-.3h-.3l-1.2 1.4-1 .5-.8-1-1.2-.3-.9 1.1 1 2.1-.3.9-2.5 3.7-1.3 1.5h-.2v.4l-.8.6-.9 2.5-.9 1.4-1-1.2-.5-1.3-.7-.6-1.3-.2-1.1.2-.5-.2.5-.3.2-.6h.3l.2-.5-.9-1.3.4-.6-.3-.8-1.6-1.1.5-1.3-.3-.4v-.7h-.1v-.4h-.5v-.3l1.7-3.1-1.9-.7-.7-.4-.3-.6-1.2-.6-.2-.6h.6v-.4l-1.7-2-.8-.4.8-.6.7.4.4-.3.5.4.2-.2h1c0 .1.2-1 .2-1l1.3-.7.3-3.2h-.3l-.6-.5-.3-.9-1.1-.3v.2h-.4v.2h-.4c0 .1-.1-.2-.1-.2l1-.9v.2c.1 0 .7-.2.7-.2l.2.2.3-.8h.2l.2-.3h.2l.7-.5-.2-.2h.3l-.1-.4 1-.2.2-.4-.2-.2h.3v-.5h.2l-.3-.2h.4c0-.1-.2-.5-.2-.5h.3l-.3-.6-1.1-.2-.5-.7v.3c-.1 0-.3-.3-.3-.3h-.2l-.7-1 .7-.2.7-.6.3.2v-.7l.4-1-.3-.6v-.8h-.1l-.4-1-.5-.4v-1l.2-.3-.5-1 .3-.2.2.2v-.5c.1 0-.4-.8-.4-.8v-.5c.1 0-.4.7-.4.7v-.4l.5-.7 1.6-.9v-.9c.1 0 .6.4.6.4l.3-.4.7-.2h1.8l2.1 1.1 2.5.6.7-.2v-.6l.7.3h.2c0-.1 1.2-.2 1.2-.2l.8-1.1.9-.3 1.3.5-.2.2h.5l-.2-.2.2-.2 1 .3h.8v.2l.9.7v.5c.1 0 .8-.2.8-.2l.8.8h.2c0-.1 1.2.7 1.2.7h.2c0-.1.6.2.6.2l.6-.2.6.2.3-.5h1.2l1 .6.8 1.1 1.6 1 2.3.4 1-.2.9-1h1.6l1.1.6.3.6-.4 1.4.7.8-.2 1.1.7 1.6 1.1 1.3.8.5h.6c0 .1 2.2-.3 2.2-.3l.9-.6h2l.3.3.3-.2 1.6.8v-.5c.1 0 1.5-.7 1.5-.7l.2-.4.5.2-.7 1.3 1.9-.2-.2.7-.9.6-.4 1.1-1.9-.5-.2.2h-1.2v.2l-1.2-.5-2.9-.3-.3 1.8.4 1.1 1-.3.6.3.6-.2.9.4.3-.5h.5c0-.1.6.2.6.2v.5l.8.3h.6c0-.1.9.6.9.6l.7-.2.4.4h.9c0-.1.2.2.2.2v-.7c.1 0-.2-.1-.2-.1h.2c0-.1.5.5.5.5l1 .5h1l.2-.3-.2-.3h.6l.3-.3h1l1 .8h.6l1.1.4 1.4.9 1.4 1.7 1.5 1.3h.4l1.2.9 1.4 1.5.9.4.4.7-1 2.1-1.3 1.5-.3 1.6-.5.2-2-.9-.3.2.2.8-.8 1.5v.9h-1.7l-.3-.2-.2.4v-.6l-1.1-2.1-.5-.7-1.1-.5-1.1-.3-.4.3-2 .2-1.9-.6-.5-.7-1.9.2Zm5.7 1.2.3.8-.6-.3zm8.2 5.3-1.2-.4-.9.3-1.3-.4-.5-1 .3-.2 2.2.8h1l.5.5v.5Zm-55.3 10.8-.9.5h-.5c0-.1.6-1.5.6-1.5l1 .7-.2.4Z"/><path id="GD" d="M461.7 380.4v.1h-.1v-.1Zm-1.1.4h.4v.3l.2.2v.8h-.4v.2h-.6v.2-.2h.1c0-.1.1-.1.1-.1v-.2h-.2v-.2l.3.1v-.1h.3v-.7Zm1.2-.1v.2h-.2c0-.1.2-.3.2-.3Zm-1.9 2.1v.1h-.1Zm-.1.1v.2h-.1v-.2Zm-1.3 1.8v.2h-.1v-.2Zm-.6 0c0 .1-.1.3-.1.3h-.2c0-.1.2-.3.2-.3v-.2Zm.2.5v.2h-.2c0-.1.2-.2.2-.2m-1.1 4.7v.2h-.3v.2h-.1c0 .1-.3.2-.3.2h-.3v.2h-.2v.3-.1h-.1l-.2-.1h-.1l-.3.3h-.2l-.2-.1c0-.1-.2-.1-.2-.1h-.3.2l.2-.2.4-.2v-.7c0-.1-.2-.3-.2-.3l.1-.2v-.3h.2v-.7l.2-.1v-.3l.2-.1v-.2l.2-.2h.2l.1-.3h.1v-.2h.2l.4-.3h.1l.2.2h.8v.3c-.1 0 0 .1 0 .1v1.5h-.3l-.1.2v.3l.2.3h-.1v.5Z"/><path id="HT" d="m246.8 232.4.9.9h-1.4l-2.4-.7h-1.1l-1.8-.7 3.2-.5zm4.1 30h.4l.3-.2.8.5.5-.2v-.5l.3-.4-.5-.9h.2l.5-.6v-.4l-1.4-.7h-1.1c0-.1-.3-.9-.3-.9l-1.4-.3-2.1-2.9-1.5-.7-.2-.8-1.6-1.1.2-.7.7-.3h.8l.6-.4v-.3l-1.2-.7-.7-1.1.9-.2-.2-.2-.2.2h-.2l.4-.8v-.2c-.1 0 .4.1.4.1l.2-.3.2.2.2-.2-.2-.2v-.4h-.5l-.1-.4v.3c-.1 0-.2-.5-.2-.5l.3-.4.7.2.2-.4-.4-.3.2-.5.3.7.4-.2-.3-.5v-.6l-.8.2-.5-.2-.7-1-.8-.6-2.2-.9-.7-.5v-.2l-.3.2-.9-.6-.8-.2-.5.4-1.4-.8-.5.7h-2.5c0 .1-.5-.1-.5-.1l-1.2-1.1v-1.1l.5-1.1h.8v-.4l-.7-.2.3-.3h1.2c0 .1 1.4-.4 1.4-.4l2-1.3 2.5.4v-.3h1.2l.3.3.2-.3 3.1-.5 2.3.7.8.5h.8l1 .9h.4l.2.6v-.3l.9.3.3-.3.6.6.4-.3v.4l.8.5.2.5h-.3v.5l.4.3.2-.6-.2-.6 1.1.2v-.3h.3v-.3h.9v.9h1v-.3h.3l.3.5h1.1l-.2.2h-.2l.2.3.6-.6v.6l-.4.2.2.2.9-.3.3.2v-.7h.6l.3.3.2-.2 1.6.2v.5l-.6.2-.2.2.3.2.7-.3.4.5.2-.5-.6-.3v-.5l1.6.2.5 1-.2.3v1l.5.4.4 1h.2v.8l.3.6-.4 1v.7l-.3-.2-.7.6-.7.2.7 1.1h.2l.2.2v-.3c.1 0 .6.7.6.7l1.1.2.3.5h-.3l.2.5h-.4c0 .1.3.3.3.3h-.2v.5h-.3l.2.2-.2.4-1 .2v.3h-.1l.2.2-.7.6h-.2l-.2.3h-.2l-.3.7-.2-.2-.6.2v-.2c-.1 0-1.1.9-1.1.9v.3c.1 0 .5-.1.5-.1v-.3h.4v-.1l1.1.3.3.9.6.6h.3l-.3 3.1-1.3.7-.2 1.1h-1c0-.1-.2 0-.2 0l-.5-.4-.4.3-.7-.4-.8.6.8.4 1.7 2v.3l-.6.1.2.6 1.2.6.3.6.7.4 1.9.7-1.8 3.1v.3h.4v.4h.4v.7l.2.4-.5 1.3-3.3-3.2-1.4-.5-.2.2-.8-.6-3.1.3-3.1-.3-2.7.4-.5-.4-.2.3.3.7-.2.2-1.7-.4-1.4.3-.7-.2-.2.2.2.3h-.6v.2h-.6c0 .1-1.4 0-1.4 0l-2.2-.7h-1.5l-1.6-.5h-1.8l-.2-.4-1.7.3.4-.8-.7-.3h.2v-.2h-.3v.2l-.3.2.2.2-1.1-.3v.2h-.7l-.3.5h-.5l-.3-.6h-.4v.9l-.3-.4-.2.4h-.5l.3-.6v-.2c-.1 0-.6.1-.6.1v.5l-.5.3.2-.9-.5.6v-.3h-.4v.5c-.1 0-2.4 1.2-2.4 1.2l-.4.6v.4l1.2 1.1-.2.4h-1.7c0 .1-.5 0-.5 0l-.3-1-1.1-1.6h-.4v-.4l-1.6-1.3-1.4-.5-1.2-.8h-.6l-1 .5-1.1-.2-.6-.4v-.3l-.9-.3v-1l-.6-.4.5-1.1v-.4c-.1 0 .2-.5.2-.5v-.3l.5-.9-.2-.8.6-.2.2-.3.4.2 1.3-.5.3.3.3-.4h1c0-.1 1.4.2 1.4.2l1.4 1.1 2.6.3.4.6h1.2l1 .6 1.3-.3h-.2c0-.1.5-.5.5-.5l2.7-.2-.5.7h-1.4l-.4-.3v.2l-.7.1h1.2l-.2.7.2.2h1.4l1.1-.6h1.4l3.3.9h2.3l.7.2.5.6 1.1-.4h1.5l1.3.3v.5l.9-.4 2.1.4.8-.2.4-.4.5-1.4.9-.7h1l.2.3h1.6Zm-7-3.1h-.3v-.5l-3.1-.5-2.4-1.5-1.7-.3-1.5-1.4v-.6l.8-.6h1.1l1.3.6 1.4.2 2.3 1.4 1.7.4h-.2l.9 1 .3 1-.5.2.2.4-.2.2Zm-18 1.1 1.2.3v.4l-.8.5-.9-.3v-.5zm1.3 10.7 1.1.5.8-.3.5.6-.3.2h-1.7l-.6-.7v-.3Z"/><path id="JM" d="m169.6 274.2-.3-.4h-1.2l-.8-.6-1.1 2.4-.4.6-.6.2-.3-.3-.5.2-.2-.2-.6.2.2-.6-.6-.6-1.3.3-.7 1.1.4.5h-.6v.2l.9 1.4-.4.5h-.6l-2.1-1.4-.7-.9-1.6-.8-1.9.4-1.1-.5-3.3.3v-.2l-1-.6v-.5c-.1 0-.9-.4-.9-.4l.2-1.1-.2-.3-.8-.4h-1l-1-1.5-.8-.4v-.8l-.5-.7-2.1-.3-1.5.4-.4-.5-1.8-.4-.2-.6.5-.4V266l.5.1.4-.7h.5v-.3l1.1-.9h.9v.4l.4-.5.9.3 1.7-.3 1.3.4.2-1.2 1.4-.5 2.3.3.8.5.4-.2.5.3 1.6-.2 1.7.2.2.2.3-.2.6.4v-.2c.1 0 1.1.2 1.1.2l.8-.3 1.7.4.4.3h.5l1.2.5 1.3-.2 1.7.4.3-.3h.8v.8l1.6.8v.4l.5.9.6-.2.5.3h.7l.8.7.9-.2.5.6 1 .2.7-.2.6.6.2-.2 1.9.7 1.2 2.1v.7l.7.9v.5l.7.1.4.5-2.4.9h-.2v-.5l-.4.6-1.1-.4-2.4.6-.7-.5h-.8l-.9-1.2-1.3-.4Z"/><path id="LC" d="m468.3 356.7-.6-.5v-.2l-.2-.1.3-.3v-.6l-.4-.2v-.4l.3-.5c0-.1.1-.2.1-.2v-.4h.2l.1-.3.2-.2v-.3h.3v-.5h.1v-.2h.2c0 .1.1 0 .1 0h-.2v-.2h.3l.3-.2v-.6h.3v-.3h-.2.2l.2-.3h.3c0 .1 0 0 0 0h.1v.3h-.2v.3h.1v.2l.2-.1.3.3v.2h-.3.1l-.1.2h.2v.2h.1v.5h.2v.7h.1v.5h-.2l.2.3h-.2c0 .1.2.3.2.3v.2h-.3l-.1.1h.3-.1v.2h.2-.2v.3l-.2.2h.1-.3v.2h.2-.2v.5c-.1 0 0 0 0 0 0 .1 0 0 0 0v.2h-.2v.1l-.2-.2h-.2c0 .1.1.2.1.2l-.3.4c0 .1-.2.3-.2.3l.2.3h-.4l.1-.2v-.2h-.5c0-.1-.2-.1-.2-.1v-.3h-.9v-.3Z"/><path id="MS" d="M446.6 299.5h-.3v-.3l-.1-.1v-.2l-.4-.2v-.4l.2-.2v-.6h.2v-.3h.3v.7h.1v1.5h.1v.3h-.3Z"/><path id="MQ" d="M468.1 343.1h-.2l-.2-.2h-.2v-.4h-.2l.1-.3h-.3v-.3h.2c0-.1.2-.3.2-.3h.2v-.2h.2c0-.1 0 0 0 0v.2l.2-.1c0 .1-.1.2-.1.2 0 .1.2 0 .2 0h.1c0 .1 0 0 0 0h.4l.2-.1v-.2h-.3v-.2c0-.1 0 0 0 0 0-.1-.2-.2-.2-.2v-.2h.1l-.1-.1v-.2h-.3v.4h-.1v-.2h-.5l-.4-.5-.4-.2h-.1v-.2h-.2c0-.1-.2-.5-.2-.5l-.3-.4v-.4c-.1 0 0-.5 0-.5v-.2l-.4-.4v-.3h-.3l-.2-.4v-.5l.3-.6.5-.2c0-.1.6-.2.6-.2h.4l.6.3v.2c.1 0 .6.2.6.2v.2h.6v.1h.2v.3h.3v.2l.3.4h.2v.1l.3.2c0 .1.1.3.1.3v.2l.2-.4h.2l.2-.1h.2c0-.1.1 0 .1 0l.3-.3h.2v.3-.3c-.1 0-.4.1-.4.1l.2.2-.2.2h.1v.2h-.4v-.2h-.2c0-.1-.2-.1-.2-.1h-.1v.2h.1c0 .1-.1 0-.1 0v.2l.2.2c0-.1.1-.1.1-.1l-.2.2h.2l.2-.1v.2h.2l-.2.2h-.3v.2h-.2c0-.1-.1.2-.1.2l.3.3.3-.2h.1v.1c0-.1.2 0 .2 0v.2h-.1c0 .1-.1.2-.1.2h-.1.2c0 .1.1.1.1.1v.2h-.1v.2h.4c0-.1.1 0 .1 0h-.2c0 .1.2.3.2.3v.3h.4v.2h.2l-.2.1c0 .1.2 0 .2 0h-.1c0 .1.2 0 .2 0 0 .1.3 0 .3 0l-.2.4.2.2c0 .1-.2.1-.2.1h.2v.2h-.2v.2h.2v.4l.1.2c0 .1-.1.2-.1.2l.3.2h-.2v.3l-.2.1v.2h-.1l-.1-.1.1.1c0 .1.1.1.1.1h-.2l-.2.3h-.4v-.1h-.2v-.2h-.2c0-.1.3-.5.3-.5v-.3c0-.1.1 0 .1 0v-.1h-.1v-.1h-.1l-.5.5-.2-.2v-.2l-.4.1h-.6c0-.1-.2 0-.2 0v-.3c-.1 0-.2.2-.2.2h-.3v-.2l-.2.2-.3-.2h-.4c0 .1-.2.5-.2.5Z"/><path id="PR" d="m372.5 273.9-1.6.7-.5-.2v-.2c.1 0-.5-.2-.5-.2l-.6.7-.7-.4h-.3v-.3l-.6-.3-.7.2-.4.6-1.5-1.1-2.9.6-.2-.4-.9.3-1-.5-.6.3-.2-.6-.7.4h.4v.2l-.9.5h-1.3v-.3l-.4-.2v.2l.3.2-.4.2.2.3h-.6l-.6-.9h-.3v.2l-.2-.3h-.9l-.8.6-1.4-.4-.2.2.2.4h-.2l-.4-1.1.8-.7-.7-.3.5-.7-.3-.2.4-.6v-1.1l.5-.8-.4-.4-.3-1.2-.8-.3-.7-1.3 2.1-1v-1.5l.4-.4.9-.2 3.4.6 2.4-.2 1.5.4.6-.4h1l3.2.4 1.1-.5 1.6.4h2.5l.3.5.6-.3v.4h.6v.3l.5-.2-.8-.7 1.9.6h.4l.2-.3 1.3.3.5-.2 1.2.4.4.5.5-.2v.3c-.1 0 .4-.2.4-.2l.5.7.4-.2.2.3.7.2 1.1-.4-.4.8.2.8-.2.3.2.7h.4l.3.6h-.3l.1.4-.6-.5v.7l-.6-.1-.5.2v.3l-.7-.2-.7.7-.6 1.7-.8.2v.8h-.6l-.9.6h-1.2c0 .1-.5 0-.5 0l-.7.6-.4-.3Zm13.9-7.7.4.5v-.2c.1 0 .9.1.9.1l.5.6h-.3v.3l-.7-.4.4.4v.2c-.1 0-1-.9-1-.9v-.6Zm-4 4.7 2.9-.9 2.5.5-.5.2-.2-.2-.7.5h-.2l.3-.2-.4-.2-.2.5h-.7c0-.1-.3.2-.3.2h-.3l-.2.2-.6-.2-1 .3-.9-.4v-.3h.6Zm-45.5.8h-.2l.2-.7h.4c0-.1 1-.2 1-.2l.3.4v.4l-.7.5-1.1-.5Z"/><path id="TC" d="m259.7 193.4 1.5.4h-.2l.2 1.4.5.6h.5v.6l-1.1.5-.7-.2v-.3l-.9-.6h-.6v-.2l.6-.3h-.4c0-.1.2-.5.2-.5l-.3-.3v-.6l.1-.3.9-.2Zm1.9 1.8v-.3h-.3v-1.1l.7.5h-.2c0 .1.3 1.1.3 1.1l-.2.3-.3-.4Zm-3-1.3v.6h-.4v-.5zm-4.7 2.1.6.7.5.2 1.1-.2.4-.6.5.3-1 1.1-.6-.2-.5.2-.3-.3-.3.6-.8-.4-.8.2v-1.1l.3-1.3.7.7Zm8.1 1.5-.4-.4h-.5l.5-.6h.5v-.9h.3c0-.1.7.4.7.4h1.7l.2-.1.8.4.4 2-.4.3-1.2.2-.3-.2h-.2v-.4h-.5l-.2-.4-.3.2-.6-.2-.2.5v-.4l-.7-.2.2-.3Zm6.2.6 1.4.2.2.4-.5 2-.2-.2v-.6c.1 0-.4.9-.4.9l-.6.2-.7-.4v-.4h.3v-.8h-.6l-.3-.6-.6.5-.3-.4.8-.6-.2-.9.3-.3.3.4.3-.3.7.6Zm-16.8.4-.4 1.3-.7.5.4-1.5.8-.3Zm16.8 4.2.2-.5.6.3v-.7c-.1 0 .2-.5.2-.5v1.7h-.6l-.3-.4Zm7.6.7v-.5l.3-.4v1.6c.1 0-.2.3-.2.3l-.2-.5v-.5Z"/><path id="TT" d="M475.6 406.6h-.7l-.4.4-.5-.2-.8.9-1.2-.2v-.5h.7l.6-.9 1.6-1v-.2l1.7-.7h.5l.4.1h.2c0-.1-.2-.4-.2-.4l.6-.2.2.6-.3.3.2.2-.2.7-.3-.2v.5h-.6l-.2.5-1.2.7Zm-15.4 16.7v-.8l-.4-.4-.2-.8.7-2.4-.5-1.4-1-1.1-1.2-.3-.5.5v-.3h-.6v-.6c-.1 0 1.1-.7 1.1-.7l2.2-.3.2.2.2-.4.2.2.4-.2.2.3.2-.4.8-.2.2-.4 2.7.4 3.8-1 2.2.2-1.7 2.5h-.5l-.2.4.5 3-.5.3v1l.7 2.2.2.2h.4l-.6.8v1.6c-.1 0 .1 1.5.1 1.5l-.6-.3-.8.7-1.9.8-2.3-.2-1.5.3h-4l-1 .3-1.3-.6-1.6.2-.5-.2-1.7.8h-.6l.4-.8 1.4-.4.2-.6 2.4-.6v-.4l.8-.2.5-.4v-.5l1.6.3 1.2-.5.6-.9-.2-.4Z"/><path id="VC" d="M464.6 368.4v-.1h-.1v-.3h-.1v-1h.1v-.5h.2v-.1h.1v-.3h.2v-.3l.2-.2c0-.1.1-.2.1-.2l.1-.3h.1l.2-.2h.6l.1.2h.3v.5l.2.1v.2l.2.7v.9h-.2v1.7c0 .1-.2.1-.2.1v.2h-.2v.1h-.3c0-.1-.3-.3-.3-.3h-.2v-.3h-.1Zm0 3.3v.2h-.6c0-.1-.3-.1-.3-.1h.2c0-.1 0 0 0 0h.4l.2-.3h-.1c0-.1.3-.3.3-.3l.2-.2h.2v-.2h.1v.2l-.4.2h.2v.3l-.2.2v.2Zm-.1.3-.2.1.1-.1Zm2.2.1v.2zm-2.3 0-.1.3h-.4l.2-.1v-.2h.2Zm1.9.2v.3h.1-.2v-.3Zm-.5 1.2v.2l-.2.2v.2c0 .1-.1.3-.1.3v-.2c-.1 0 0-.2 0-.2l.1-.3h.1Zm-2 2-.1.1c0-.1.1-.1.1-.1m-1 1.7v-.4h-.1v-.2l.2.2v-.2h.3v.4h-.2v.5h-.4c0-.1-.1-.2-.1-.2h.3c0-.1 0 0 0 0Zm-1.2 1.1h.1l.1.2h-.1v.2h-.1zm-.4.9v.1h-.2l-.3.2h-.3v-.2h.2v-.2h-.1.2v-.1.1l.4.1Zm.3.2h.2v.1h-.1Z"/><path id="VG" d="m406 258.5.6.5v.5l-.8-.6h-1.5c0-.1-.3-.5-.3-.5l1.6-.2.5.2Zm-1.9 4.9v-.2l.8.3.3-.3h.7l-1.3.3v.4l-.7.2v.5l-.4.1v-.7l.6-.2v-.5Zm-2.2.6h-.2v-.7.7Zm-1-.5.4.2-.2.3-.3-.2v-.3Zm1.1 1.2-.6-.3-.5.6-.6-.3v.5h-.4v.3l-.6.3h-1c0-.1.7-.4.7-.4l.4-.5v-.4h.2v-.3l1.1.2.6-.3v.3h.8v.3Zm-4.4-.6h.5l.2.4h-1.1l.5-.4Zm4.6 1.4.2.5-.3-.3v-.2Zm-1.4.5h.3v.7l-.3-.4h-.7l.6-.2Zm-.4.8.3.2-.7.2.3-.2v-.2h.2Z"/><path id="VI" d="M395.5 267.1h-.8l-.4-.7-.7.3-.5-.5-.7.2-.3-.3 1.7-.4.5.4-.2-.5 1.5.7.3.5h.3l-.3.2h-.5c0-.1.1 0 .1 0Zm2.3-1.3 1 .2.5.5h-.3l-.1-.3-.2.2v-.3l-.2.3h-.2c0-.1.3.4.3.4v.5l-1-.5h-.4v.3-.2c-.1 0-.5.1-.5.1l-.2-.3.2-.5h.8l-.1-.4h.2Zm0 13.7-.6-.4v.3H395l-.3.3.3-.6V278l.2-.2.8.2 1.1-.4.4.3.2-.3.9.8.8-.4 1.7.2-2.4 1h-.9z"/></g></svg>