<?xml version="1.0" encoding="UTF-8"?>
<svg id="Layer_1" xmlns="http://www.w3.org/2000/svg" xmlns:amcharts="http://amcharts.com/ammap" version="1.1" viewBox="0 0 512 512">
  <!-- Generator: Adobe Illustrator 29.1.0, SVG Export Plug-In . SVG Version: 2.1.0 Build 142)  -->
  <g id="_x3C_defs">
    <amcharts:ammap bottomLatitude="7.199155" leftLongitude="-117.150141" projection="mercator" rightLongitude="-77.227391" topLatitude="32.781686"/>
  </g>
  <g>
    <path id="BZ" d="M355.3,291v-1.9c0,0,1.4-.6,1.4-.6l2.2,1.5,4.4-7.8,2.3-.2v1.9s2.4,0,2.4,0l-.2,3.5-2,5.6,1.1,2-1.3,4.6.7,1.2-1.4,6.5-2.4,3.4-2.2.4-2.5,4.4h-3.7l1-14.4v-10.2Z"/>
    <path id="CR" d="M431.5,411.8l-6.7-2.8-2.5-2.6,1.4-2.2-.4-2.7-3.4-3-4.8-2.4-4.3-1.6-.8-3.7-3.3-2.2.8,3.7-2.5,2.9-2.8-3.4-4-1.2-1.7-2.5v-3.8c0,0,1.7-4,1.7-4l-3.5-1.8,2.8-2.4,1.8-1.6,8.1,3.3,2.8-1.6,3.9,1.1,2.1,2.6,3.6.8,2.9-2.6,3.2,6.8,4.8,5,5.8,5.3-4.8,1.1v5c0,0,2.6,1.8,2.6,1.8l-1.8,1.5.5,2.2-1,2.5-.7,2.5Z"/>
    <path id="GT" d="M343.5,342.9l-6.3-2.2-7.7-.2-5.6-2.5-6.6-5.2.3-3.7,1.4-3-1.7-2.4,5.9-10.4h15.8s.4-4.4.4-4.4l-2-.8-1.4-2.8-4.6-2.9-4.6-4.3h5.6v-7.3h22.9c0,.1,0,10.3,0,10.3l-1,14.4h3.7l4.1,2.3,1.1-1.9,3.6,1.6-5.6,4.9-5.9,3.6-.9,2.4,1,2.5-2.6,3.3-2.9.7.7,1.5-2.3,1.4-4.2,3.2-.4,1.8Z"/>
    <path id="HN" d="M377.8,352.4l-2.1-3.9-3.8-1.1.9-5.1-1.7-1.4-2.6-.9-5.4,1.5-.4-1.7-3.7-2-2.6-2.5-3.7-1.1,2.6-3.3-1-2.5.9-2.4,5.9-3.6,5.6-4.9,1.3.5,2.7-2.2,3.5-.2,1.1,1,1.9-.6,5.7,1.1,5.7-.4,4-1.4,1.5-1.4,3.9.7,2.9.9,3.2-.3,2.5-1.1,5.6,1.8,2,.3,3.7,2.4,3.6,2.9,4.5,1.9,3.3,3.5-4.2-.3-1.7,1.7-4.3,1.7h-3.1l-2.7,1.6-2.5-.6-2.1-1.9-1.3.4-1.6,3h-1.2c0-.1-.2,2.5-.2,2.5l-4.3,3.5-2.2,1.5-1.3,1.6-3.7-2.6-2.6,3.3h-2.6c0,0-2.9.2-2.9.2l.3,6.2h-1.8c0,0-1.5,3-1.5,3l-3.8.5Z"/>
    <path id="MX" d="M256.6,184.3l-4.8,11.9-2.2,9.7-.9,18-1.2,6.5,2.2,7.2,3.8,6.5,2.5,10.2,8.2,9.7,2.9,7.4,4.8,6.4,13.1,3.5,5.1,5.4,10.8-3.6,9.4-1.3,9.2-2.3,7.8-2.2,7.8-5.3,2.9-7.6,1-11,2.2-3.8,8.3-3.5,13.1-3,10.9.4,7.5-1.1,2.9,2.8-.4,6.3-6.6,7.8-2.9,8,2.2,2.2-1.8,5.6-3.1,10.1-3.1-3.3-2.6.2-2.3.2-4.4,7.8-2.2-1.5-1.5.6v1.9c0,0-11.3-.1-11.3-.1h-11.5v7.3h-5.6l4.6,4.3,4.6,2.9,1.4,2.8,2,.8-.4,4.3h-15.8s-5.9,10.4-5.9,10.4l1.7,2.4-1.4,3-.3,3.7-14-13.7-6.4-4.1-10.1-3.3-6.9.9-9.9,4.8-6.2,1.3-8.7-3.3-9.2-2.5-11.5-5.9-9.2-1.8-14-5.9-10.3-6.2-3.1-3.4-6.9-.7-12.6-4.1-5.2-5.9-13.3-7.4-6.2-8.2-2.9-6.4,4.1-1.3-1.3-3.7,2.9-3.4v-4.6s-4.1-5.9-4.1-5.9l-1.1-5.3-4.1-6.7-10.9-13.3-12.4-10.5-6-8.4-10.6-5.5-2.2-3.3,1.9-8.5-6.3-3.2-7.3-6.7-3.1-9.6-6.6-1.1-7.1-7.3-5.8-6.8-.5-4.4-6.6-10.7-4.4-10.9.2-5.5-8.9-5.7-4.1.6-7-4-2,5.9,2,6.9,1.2,10.7,4.3,5.9,9.2,9.7,2,3.3,1.9,1,1.6,4.8,2.2-.2,2.5,9,3.7,3.5,2.6,4.9,7.8,7,4.1,12.7,3.7,5.9,3.4,6.3.7,7.1,5.9.4,5,6.1,4.5,6-.3,2.4-5.2,4.9h-2.2s-3.3-8.2-3.3-8.2l-8.1-7.6-8.9-6.5-6.3-3.4.4-9.9-1.8-7.4-5.9-4.2-8.5-6.1-1.6,1.8-3.1-3.6-7.6-3.3-7.3-8.1.9-1.1,5.1.8,4.6-5.2.5-6.3-9.5-10-7.2-3.9-4.6-8.8-4.6-9.3-5.7-11.5-5-13,14-1.1,15.7-1.6-1.1,2.8,18.6,7.1,28.2,10.2h24.6c0-.1,9.8-.1,9.8-.1v-5.9h21.4l4.5,5.2,6.3,4.5,7.3,6.3,4.1,7.4,3.1,7.7,6.4,4.3,10.3,4.2,7.7-11.1,10.1-.3,8.7,5.6,6.2,9.6,4.3,8.2,7.3,7.9,2.7,9.6,3.5,6.5,9.6,4.2,8.8,3,4.8-.4Z"/>
    <path id="NI" d="M397.6,376.2l-4.3-4-5.8-5.1-2.7-4.2-5.2-3.9-6.2-5.7,1.4-1.9,2.1,1.9.9-.9,3.8-.5,1.5-2.9h1.8c0,0-.3-6.3-.3-6.3l2.9-.3h2.6c0,0,2.6-3.3,2.6-3.3l3.7,2.6,1.3-1.6,2.2-1.5,4.3-3.5.2-2.6h1.2c0,.1,1.6-2.9,1.6-2.9l1.3-.4,2.1,1.9,2.5.6,2.7-1.6h3.1l4.3-1.7,1.7-1.7,4.2.3-1.1,1.2-.6,2.8,1.2,4.6-2.8,4.3-1.3,5.1-.4,5.6.7,3.2.3,5.7-1.9,1.2-1.1,5.4.8,3.3-2.6,3.2.6,3.3,1.8,2.1-2.9,2.6-3.6-.8-2.1-2.6-3.9-1.1-2.8,1.6-8.1-3.3-1.8,1.6Z"/>
    <path id="PA" d="M494.2,424.2l-4.1-3.6-2.6-6.7,3-3.3-3.1-.8-2.3-4.1-6.2-3.4-5.4.8-2.5,4.3-5,3.1-2.7.4-1.2,2.6,5.9,6.7-3.3,1.6-1.8,1.8-5.7.6-2.2-7.4-1.6,2.1-4.1-.7-2.5-5-5.1-.8-3.2-1.5h-5.3l-.4,2.7-1.4-1.8.7-2.5,1-2.5-.5-2.2,1.8-1.5-2.6-1.8v-5c0,0,4.7-1.1,4.7-1.1l4.4,4.4-.3,2.6,4.9.5,1.2-1,3.4,3.1,6.1-.9,5.2-3.1,7.5-2.5,4.2-3.7,6.8.7-.5,1.2,6.9.4,5.5,2.2,4,3.7,4.7,3.4-1.5,1.8,2.9,7.3-2.3,3.7-4-.9-1.6,6Z"/>
    <path id="SV" d="M371.9,347.4l-1.4,2.9-7.1-.2-4.4-1.2-5.1-2.5-6.9-.8-3.5-2.7.4-1.8,4.2-3.2,2.3-1.4-.7-1.5,2.9-.7,3.7,1.1,2.6,2.5,3.7,2,.4,1.7,5.4-1.5,2.6.9,1.7,1.4-.9,5.1Z"/>
  </g>
</svg>