<svg xmlns="http://www.w3.org/2000/svg" xmlns:amcharts="http://amcharts.com/ammap" id="Layer_1" viewBox="0 0 512 512"><g id="_x3C_defs"><amcharts:ammap bottomLatitude="8.033" leftLongitude="-85.951" projection="mercator" rightLongitude="-82.556" topLatitude="11.217"/></g><g><path id="CR-A" d="m194 42.1 10.3 6 5.2-1.7 1.5 2.7 10.8 4.6 4.9 5.4 2.1 1.2h3.1c0-.1 2.2-2.1 2.2-2.1l3.7-1.1 3-2.2 2 2.9-1 3.9 1.5 1 2.2 4 4 .6 2.2 3.1 4.9.9 4.2 2.7.6 4-1.1 2.3-2.2.6.3.9 4.4 2.5.8 2.2 1.6-1.2 5.2.3-1 29.6-.3 60.8.7 14.9-2 7.7-.8 1.7-2.2 2 1.1 3.4h-1.7l-2.2.9-4.7 4.2-2.5 1-12.9 1.8-4.4-2-11.6 1.3-6.2 4-2.3 2.3-2 .6-4.1 6.6h-1.9l-2.8-1.6-1-2.9-10.7-1.3-1.1-1.9.2-2.7 1.1-1.4 1.8-.6 3-5.2 4.7-.3 4.1-4.6 3.3-1.2.7-2.6-.3-2.7-2.3-2.3-7.8-.4-1.1-4.8-2.1-1-3.2-6.1v-8.4l-1.7-1.1 3.6-7.2-.8-2.9-3.3-3.8-1.5-.5-7.4 3-4.9-3.4-2.6-3.7 2.9-6.4.9-.6-1.9-3 .7-7.8 6.4-.2-.8-2.6-2.3-.7-1.7-2.3-2.6.2v-3.5l-2.4-.3-2.3-1.4-3.1-2.1-3.5-3.7-4.2-2.3h-5.9l-1.7-2.6-4.9-3.9-3.1-3.9-2.9-10.1-11.2-3.9H128l-2.8-3.9-2.8-1.8-2.8-.7-14.1.7-1.5-1.4-1.6-6.8-7.2-3.3-2.4-2.2-2.7-6.4-5.5-8.5.9-1.5 4.8-1.8 2-1.7 2.9-6.4h3.5l1.5-1.2h1.5l2.3 2.9 2.4 1.7h1.8l1.6-9 7.7 4 42.7 16 34.5-20.3Z"/><path id="CR-C" d="m301.4 179.3 23.5 12.7 24.9 11.3h43.7l-.9 1.3-2 .9-.7 3.2-2.1.4.7 6.2 1.1 2.5-.2 4.4 1.1 2.9-12.1 15.3-1.4 2.5-1.1 6.7L362 262l2 4.2v4.1l1.3 4.5-3.3-1.5-4.8-4.1-4.8-1.5-8.7-5.6-1.6.2-1.9 2.5-2.3 1.5-1.8-.9-3 .7-1.7-.4-.7-1.6-3.2-.8-.6-2.2.4-1.9-1.4.2-7.7-2.6-1.9-1.4-1.4-6-4.8-.2-3.4-2.8-1.3.7-2.8-2.4h-1.5c0-.1-.6-1-.6-1V240l-3.6-1.6-3.1-6.3-5 2.8-4.4.7-3.9-.9.7-1.4-.2-2 8-4.5 3.9-6.6.6-2.5-.7-.8-3.9.3.2-2.2 4-3.7.2-2.3 7.3-1.4 2.2.4 2.6-.5 2.7-2.6 2.4.9 2.6-.8.7-1.3-2.6-9.3-2.3-2.1-4.6-2.5-3-10.5Z"/><path id="CR-G" d="m71 29.8 15.5 5.7h8.3l14.3 7.1-1.6 9h-1.8l-2.4-1.7L101 47h-1.5L98 48.1h-3.5l-2.9 6.4-2 1.7-4.8 1.8-.9 1.5 5.5 8.5 2.7 6.4 2.4 2.2 7.2 3.3 1.6 6.8 1.5 1.4 14.1-.7 2.8.7 2.8 1.8 2.8 3.8h5.7l11.2 4 2.9 10.1 3.1 3.9 4.9 3.9 1.7 2.6h5.9l4.2 2.3 3.5 3.7 3.1 2.1 2.3 1.4 2.3.3v3.5l-2 .8h-2.2c0-.1-5.6-6.3-5.6-6.3l-5.3-3.6-2.2-.3-.4-2.7-.7.4-2.3-1-.4 1.5-1.5.5-.9-.8-2.3-.2-.3.8h-2.8l6.6 5.5 1.3.3v-1.3c-.1 0 1.6.3 1.6.3l1.8 2 2.5 1.3 4.3 1 2.1 1.5.3 3 3.4.5 5.9 2.6-.7 7.8 1.9 3-.9.6-2.9 6.4-2.4-2-3.3-1-2.6 1.2-2.4 3.3-1 5.3-2.5 6.8.8 5.3-3 .7-3.2 2.9.6 2.9-1.9 3.3h-1.9l-14.3-6.8h-2.8l.5 5.4-1.4-.3-3-3.4.2-.6 2.3.8.6-.6-.4-.9-.9.4-4.4-1.7-4.2 2.3-9.8-2.7-2.4-1.9-1.1-3.4.7-2.4-.9-1.5-1.2-1.7-6-3.4.8-2.4-3.7-3.1-.4-1.1-1.1-1h-4.1c0-.1-1.4.8-1.4.8l-2.1-.7 2.1 1.6 3.6-1 2 .5 2 2.6 1.9 1.2.4 4.3 2.8 1 3.1 2.6.3 6.3-.9 3.9 1 3.9 1.7 2.8-1.8-1.7-2.6-1-2.8.7-.9.9 2-.5.5.7-1 1.4 1.7-1.1.2-1 3.2.9.2 1-.8.2 1.1 1-.7.8.4 1.3.4-.4 2.7 2.5 3.2 1.4 3.2 4.2 1.6.8 1.4-.5v2.3c-.1 0-3.7-1.4-3.7-1.4l-1.5-1.9-1.6.9 1.5.5 1.9 2.4 1-.3 1.1 1.5-1.9 4.8-1.7 1.7-4.5.2-.8.9-8.3 1.7-2.3 2.2v2.2l1.6 1.2 9.4 2.3 3.4 6 3.2.4-3 6.7.5 3.9-1.7 3.8-4.1 4.4-5.5-3.8.6-1.7-.9-2.3-5.3-3.8-3.2-.8-1.2-1.7-3.3-2-5.2-1.8-1 .9h-1.3c0-.1-4.6-2.2-4.6-2.2l-1.9.3-.5 1.2-1 .3-2.7-1.5-.7-1.3-2.8 1.1v-1.3c-.1 0-1.6-1.2-1.6-1.2l-1.9.6-3.5-.7-1.6.4-3.8-2h-4.5l-.7-1.3-1.8-1-1.5.4-.2.8-2.1-1.1 1-1.5-.3-2.1-2.4-5.1-3.3-4.6-4.9-4.5-1.7-3.8-5.3-6.2-2-6.9-2.7-5.9-2.3-3.1-.2-3.7-1.7-3.7.3-3-.8-2.9 2.5-2.7-3.1-5.1-2.3-1.1.5-1.8 3-.9 3.7-6.3.7.8h2.3l1.4-3.6-.4-2 1.3.8 1.6-1.6-.7-3.6-2.3-1.9-.8-2 .6-.6-1.4-1.9 2.3-.4 2.3-3.4 1.7.2 1.3 1.7h1l5.8-4.3 1.3.7.9-1.1-.5-2 2.7-.6.4-2h3.2l.9-2.2 1 .2 1.9-3.4-.7-1-2.9-1-3.2 1.5v1.7l-.9 1.2-1.6.9-.8-.3 1.2-1.1.3-2.5 1.9-1.3-1.4-.5 1.4-.8.2-1.7 1.1.3 1.9-1.7-1.9-7.2 1-6-4-5.7-2.1.2-.6-.8-5.9-1.1-1.9.6-.9 1.3-4.6-1.7-1.4-2.6v-1c.1 0 2.3.5 2.3.5l-.8-2.4-1.9.5-6.9-1-1.6-3-7.8-3.4-4.6.8 12-4.6.8-1.6-2.9-2 2-.3 7.1.8.9 1-.6 1 .3 1.5 2.3 1.4 1.8-.3-1.1-2.6 2.3-1.2h1.9l.3.9 2.6-.9 3.2.5.2 1.2 1.4.7.4-1.8 1.3-.9-2.4-1.7.3-.7 1.3.2.2-.7 1.8-.3.7-1.7-4.9-4.8-3.6-1.5-1.2-1.5 1.1-1.6h1.2l.4-1.6 1.3-.2 1.8 2.2 3.2.6 2.9-1.4.6-1.3-.3-2.5-2.5-2.1h-1.2L56 25.3l1.1-3 1.3-.5 7.4 1.3 5.6 6.8Z"/><path id="CR-H" d="m290.3 85.8 1.6 2.8 4.6 2.6 1.2 2.5 3.7 1 1.1 2h1.1c0 .1 4-1.8 4-1.8l5 .3 3.4-3.6 4.1-.4 3.3-3.4 4.9-.3 2.3 1-.7 2.9 5.2 4.5.9 2-8.8-.2-1.8 1.7-3.4.5-2.8 3.8h-2.1c0-.1-1.1 2.2-1.1 2.2l-.3 4.5 1.7 2.9-1.9 4.3v2.9l2.8 8.1-1.1 3 .5 1.8-1.6 1.1h-2.3l-2.7 3.9-.4 2.1 1.4 3.9 2.1 2.8 1 8.3-5.1 10.9-3.2 4.2-2.8 1.9-7.1 4.8-1.3 1.7v6.9c-.1 0-1.4 1.6-1.4 1.6l-4.3.6-1.1 3.5 2.7 4.1-1.2 4.4-1.9 2.2-4.6 2.3h-2.2l-5.4 1.5-2.9-.7-2.7.9-5.2-1.2-1.1-3.4 2.2-2 .8-1.7 2-7.7-.7-14.9.3-60.8 1-29.6 3.3-.3.9 2.7 1.3.3 2.1-1 4.8 1.6.9-.3 1.1-2.1 2.6.6.9-2.1 1.9.9Z"/><path id="CR-L" d="m349.8 76.1 2.8 9.3-2.8.4-2.9-8.3-1 2.5 2.8 8.4v3c-.1 0-1.5 2.4-1.5 2.4l-2.5 1 2.9-.4 1.9-2.2 1 2.7 2.4-6.9 1.6 7.5 7.8 18.3-.2 3.1 2.6 6.1-1.7-7 4.6 11.3 8.7 15.2 6.6 9.3 3.6 3.6v.7l-1.8-.4 3.1 1.5 4.7 5.8 5.8 9.2-.3 2.2 1.2-.6-1.6-4.7 7.8 9.6.6 3.1 1 .3-.6-1.8 8.7 10.1 7.8 10.4 2.3 1.1 4.3-2 4.8 2.1-.4 3.6 3.1 5.3 3.5 3.7-.6.9 1.3.4 17.4 22.6 3.9 2 3.7-1.2-1 3.4 3.3 6.7 2.4 2.6 2.7.7 1.7-.4 5.9 2.5 3-.5 3.2 1.1 1.8-.8 3.9.5 1 1-.2 1.6 2 3.1 6.9 4 1 3.9-1.5-.4-1.9-2.7h-2.9l-.7 1.1.8 3.2-1.8 4.4h-2.7l-2.1.9-1.6-2.4-2.2 1.4-.5-1.2h-3.5v-1.5l-1.2-1.2 1.3-1-.4-.6-1.6-1.5-.7 1.5-2.6-2.1.4-1.7-1.7-.4-.9-1.6-2.7-.4-3.7-2.8-2.6 1-3.7-3.1-3.9.6-.7 2.1-1.7 1.2-1.2 3.6.4 2 1.9.4-.2 4.2.6.7h1.6l-.4 1.2.9-.4 1.7 1.6-13.8 3.9.2 54.3.2 3.3.7 1.1.3 1.7-3.8-1.1-2-1.5-1.5-2.9-1.5-8.4-2.1-1.1-7.5-1.6.2-3.2-1.8-3.7-.3-4.7-11-4.9-5.4-6.4-5.4.9-2.4-.6-1.9-2.7-4.8-1.5-3.8-3.5-2.9-1.6-2.6 1.7-1 3.6-2.9-.2-3.8 2.3-.4-1.8-1.4-1.4-2.6-1-3.4-2.5-4.6-10-1-4.6-2.4-2.2-1.2-4.5v-4.1l-2-4.2 13.9-12.4 1.1-6.7 1.4-2.5 12.1-15.3-1.1-2.9.2-4.4-1.1-2.5-.7-6.2 2.1-.4.7-3.2 2-.9.9-1.3h-43.7l-24.9-11.3-23.5-12.7 2.6-6.2 2.8-1.9 3.2-4.2 5.1-10.9-1-8.3-2.1-2.8-1.4-3.9.4-2.1 2.7-4h2.3l1.6-1.1-.5-1.8 1.1-3-2.8-8.1v-2.9l1.9-4.3-1.7-2.9.3-4.5 1.1-2.3h2.1c0 .1 2.8-3.6 2.8-3.6l3.4-.5 1.8-1.7 8.8.2-.9-2-5.2-4.5.7-2.9-2.3-1 5.9-2.8 2.2.5 2.6-.5 1.2-.6 1.6-2.4.3-1.5-1.4-4 .4-4.5-1.5-2.7.6-2.3-2.5-3v-.9c.1 0 3.2.8 3.2.8l3 2.7 2.5 2.8 3.5 6.6Z"/><path id="CR-LA" d="m178.2 131.5 2.6-.2 1.7 2.3 2.3.7.8 2.6-6.4.2-5.9-2.6-3.4-.5-.3-3-2.1-1.5-4.3-1-2.5-1.3-1.8-2-1.8-.3v1.3c.1 0-1.2-.3-1.2-.3l-6.6-5.5h2.8l.3-.8 2.3.2.9.8 1.5-.5.4-1.5 2.3 1 .7-.4.4 2.7 2.2.3 5.3 3.6 5.6 6.2h2.2c0 .1 2-.7 2-.7Z"/><path id="CR-P" d="m308.9 391-1.5-.2v-1.9c.1 0 3 .1 3 .1l-1.4 1.9Zm39-32h-.8l-.5-2.8.7-.4 1.1 1.7zm-.5-5.2-.7.9-.9-.6v-7.3l-1.6-4.3h1.4l1.5 4.2-.2 2.5 1.2 3.8-.8.8ZM162.5 211.7h-2.8c0 .1-1.2-1-1.2-1l1.7-.9-.2-.9 2.5.3v2.4Zm-24.4-8.4 1.9 1.8h-2.7l-.9.7-1.9-1.8.5-.7zm8.9-.6 5.2 2h-2.4c0 .1-5.2-1.5-5.2-1.5zm-16.3 2.8 2 .7 2.1-.7 1 1.6 3-1.6 3.5 2.2 2.7 3.3 7.4-.2 5.5 2.4.8 2.8-2.4 2.2-.3 1 1.6 2.1h.7l.2 1.2 1.5.9-1.4.2-1.5 1.4.2 1 2.1 1.3 2.6-.9 2.1.2 2 .5-.2.9-1.6.6-.4.9-2.3.2-1.1 2.2-2.5.7.2 1.1-1.6 3.3-2.7.3-.4 4.2-.9.5-1.7-.5-3.1-2.3-2.1.9-1.1 1.6v2l2.4 1.8-2 2.1-2.4.6-1.7 1.7-2 .8-2.1 2.4-3.2 10.4-.6 1.2-2.1.7-.3 1.8-.9-1.7-2.4-.9-1.3-1.3-.8-5.3-8.1-8.4-1.3-3.6-3.3-4.7 4.1-4.4 1.7-3.8-.5-3.9 3-6.7-3.2-.4-3.4-6-9.4-2.3-1.6-1.2v-2.2l2.3-2.2 8.3-1.7.8-.9 4.5-.2 1.7-1.7 1.9-4.8.5 1.2 4.2 3.2 1.7.4 1.3 1.6Zm-5.9-20.7h1.5c0-.1 4.9 1.7 4.9 1.7l-.3.6-2.5-.2-4-.7-.9-.8.4 1.3 1.9 1h2.6c0-.1 1.2 1.2 1.2 1.2l1.8-.7 1.4.5-1.1 1.3-2.7 1.1-3.8.5-2.3-.2-2.3-1.1-2.2-4.7.4-.7 3-1 3.1 1Zm51.9-30 2.6 3.7 4.9 3.4 7.4-3 1.5.5 3.3 3.8.8 2.9-3.6 7.2 1.7 1.1v8.4l3.1 6.1 2.1 1 1.1 4.8 7.8.4 2.3 2.3.3 2.7-.7 2.6-3.3 1.2-4.1 4.6-4.7.3-3 5.2-1.8.6-1.1 1.4-.2 2.7 1.1 1.9 10.7 1.3 1 2.9 2.8 1.6-1.5 1.7v1.9h2.4l1.2 3.4h2.1l1 1.5-2.7 2.4-3.5-.2-1 .6-.4 4.3 1.2 3.5-.3 3.5.7 1.9 3.4 3.7.8 5.4 2 2.4 3.7 1.2 9.7-1 .7 2.1 1.5 1.2 5.4-6.9-1.2-2.9 1.1-1.8 3.4.5 7.1-.5 2.5-1.8 3.4 2.2 4.1 1.4 4.4-.2 3.2 1.6 4.6-1.6 3.1.3 1.2.6.8 1.7-.5 4.6 1.7 2.6 1.7.6 2.9-1.2 3.2 1.3v8c-.1 0 2.4 1 2.4 1l2 3.1 5.5 3.5 1.4 3.5 2.2-.5 1.4 3.4 2.8 2.6 2.7-.5 2.1-2.7 2.4.5 2.2 6.2 3.7 3.3 3.3.8-1.5 3.4.5 7.4 4 3.3 4.9 2.5 3.8.7 3.3-4 4.9 3.4 6.1 11.4 6.3 2.5 2.4 3.3 8.8 4.3 3.1-.4 3.8-2.4 1.1-2.4v-3l2.2-2.2 1.2-3.2-1.1-3.3h-3.1l-2.1-.8-1.5-1.3v-.9c.1 0 1.8-2.4 1.8-2.4v-4.1c.1 0 4.5-4.4 4.5-4.4l2.2-4.6 5.5-7.1 2.6 1 1.4 1.4.4 1.8 3.8-2.3 2.9.2 1-3.6 2.6-1.7 2.9 1.6 3.8 3.5 4.8 1.5 1.9 2.7 2.4.6 5.4-.9 5.4 6.4 11 4.9.3 4.7 1.8 3.7-.2 3.2 7.5 1.6 2.1 1.1 1.5 8.4 1.5 2.9 2 1.5 3.8 1.1-.3-1.7 4.5-2.1 1.8.2 2.6 4.4 7.6 4.8 2.3 2.5 5.4 1.4 2.6 1.9 1.6 3.9 2.9 2.6v1.6l-.2.9-4.4 2.4-3.5 4.5-5.2 1.1-2 1.6-5 .9-2.3 1.2-2 3.1 2.3 2.7-.4 1.5-3.3 1.7-.2 1.7-3.3 1.2.5 1.2-.6 1.7 3 4.8 4.7 3.3 1.8 4.3 3.5 4.9-1.1 2.2.8 1.2.8 5.5-2.1 2.9.7 5.9-2.1 6-1.6 2.3-2.8 1.7-3.2.8-4.1-.4-9.5 9.9-7.8 3.5-.7 1.4 1.1 2.7 3.4 1.3 4.4 4.3 2.6-.7 5 1.8 1.2 4.1-.3 4.4 3.5 2.5v5.5c-.1 0 2.4 6.6 2.4 6.6l-.8 11.4-1.7-.6-1.7-2.8.2-2.3 1.4-.8.4-1.1-.2-3.4-2.6-4-2.5-6.9-5.2-7.7-2.7-2.7-2.8-1.1-7.7-5.9-7.3-4.2-4.5-4.6-.2-2 .9-2.6 4.8-3.9.3-2.4 1.5-1.9-2.8-5.3-4.1-4.7-1.4-3.7 1.1.4 1.1 1.9h.5l-.6-1.7h2.2l1.7-1.8h1.2l-1.5-.5-3.1 1.3-3.1-2.7-3.6-4.8-.2-1.1 1.2-2.3 1 1.7 1.4.7-.6 1.4.6.7-.8 1.1.7 1.2 2.9-2 1.4.4.5-.7-1-.9-1 .2-3.2-4.9-2.1-1.6-.7.5-.9-.5-.2.5 1.2.8-.8 1.7-3.3-1.3h-1.3c0 .1-.6-1.3-.6-1.3h-2.1l-.8 1.7-2.7-4.3-1.2.4-2.9-.6-1.1.8-1.9-2.4-3.6-1.9.5-4 1.1-2.1-.9-.5-1.2.7-2.1-1.8-3.7-.2-.7-1.5-1.5 2.3-2.4-.6-2.7 2.7h-1.9l-.3-.8-3.4-.4-2.4.6-.9 1.3v2.3c.1 0 2-.3 2-.3l.7.9-.2 1.6 1.1-.5 3.1 2.7 1.1 2.1-.4 3.2 4.9 5.1 4.3 2.8 2-.3 4 1.5 3.2 3.6 2 1.1.8-1.2.4.5-.6 6.7 3 3.7-2.2 2.7 1.8 3.5-1.2 3.2.5 2.3-2.1 2.3-12.9-4.9-8.2-4-10.1-1.6-7.7.8-4.6-2.8-1.5-2.9-5-3.6-10.4-11.2-1.8-1-1.2.9-2.2-4.5 1.4-3.7 2.1-1.9.7-3.9 1.6-1.4 5.9-.8 1.2-.9.8-4.5 2.4-2.1-.9-.6-.7.5v-3.1l3.3-1 .9-1.4.8.5-.5-1.9 3.6-.7 1.2.4 1.2-.9-.3-.9-.9.2v-1.3c-.1 0-1.6 1.9-1.6 1.9l-3.8-.3-.9 2.7-1.9.7-1.9-2.1 3.7-3.9 3.6-3 1.6-.4 4.3 1.3-1.9-2v-1.2l.8.6 5.8-.4-1.4 4.5-.8 1-2.7.8-.6 2.4h-.8c0-.1.8.8.8.8h1.2c0-.1.7-2.3.7-2.3l2.4-1.1 1.4-4.6 1.6.3 4.8-2-.9-1-4.2 1.9v-2.2l-2.7 1.1-3.4-.2-2.4-1.4-.6.4-.2 2.7-1.1-2-2.5-1.3h-2.9l1.1-3.8 2.5 1.4 3.9.6 2.8 1.6-.4-1.8-1.2-1.2.6-1 2.6.3v-.7c.1 0-2.5-.5-2.5-.5l-2.4 2.4-4.8-2.3-.2-1.1 2.8 1.8 1.1-.3-2.7-1.2-.9-1.4-2.9.7 2.6-3.5v-4.3l-1.8-5.7.3-1 2.3-.4-1.9-.7-.5-1.4.6-1.8-2.7-1.4-2.4-2.4-1.2.7-.9-1.9-1.9-1.2v-1.1l-1-.3-7.2-8.4h-2l-1 1.2-1.1-.6.7-.9-.9-4.4-4.7-3.3-6.8-2.3-.3-2.1-7.5-6.7-.4-1.2-.9.5-2.8-2.1-.2-.9-.6.6-13.7-6.7-.2-2.2-1.3 1.7-6.8-3.3-4.1-1-1.8.9-.8-2-2.3 1-1.5-2.3-3.1-.3 1.9-1.6-.8-2.2.5-.8-5-4.9-4-1.7-3-4.1-.8.3.4.8 2.7 3.2 4.1 1.6v1l-5.2-1.9-2.9-3.1-4.1-.6 3.3 1.2v.9l-6.5-1.1-2.3-1.5v-1.3c-.1 0-1.5.7-1.5.7v.8l-8.7-2.5-2.1.2-1.4-1.5-1.5.5-8.4-2.1-6.5 1.6-1.8-2.4.8-.9-.3-.7-1.6.6-1.4-1 .5 1.3-1.5-1.6-5.9-3.6-3.1-5.7-1.2-.8-1.3.3-1.2-1.2.6-2.3-1.7-1.2-1.6.4-.3-.8 1-1.1.2-1.5-1-1.2.3-2.2 1.5-1.5.8-2.1 3.4-3.1.9-2.4-.8-3.7-6.9-8.8-2.5-1.5-.2-.8.7-.2-.9-1.4-4-3.2 2.5-4-3.5-3.1-.6-3.7-1.3-.8-4-.6-10.4.7v-1l3.8-1-4.3-1-10-6.4-.3-1.1-1.4.3-1.9-2.9-3.5-.8v-.7l1.5-.3-1.3-2.8-4.3-1.6-3.6-3.8-3.6-1.9-1.9 1.1-.9-.5-.5-5.4h2.8l14.3 6.7h1.9l1.9-3.4-.6-2.9 3.2-2.9 3-.7-.8-5.3 2.5-6.8 1-5.3 2.4-3.3 2.6-1.2 3.3 1 2.4 2Z"/><path id="CR-SJ" d="m301.4 179.3 3 10.5 4.6 2.5 2.3 2.1 2.6 9.3-.7 1.3-2.6.8-2.4-.9-2.7 2.6-2.6.5-2.2-.4-7.3 1.4-.2 2.3-4 3.7-.2 2.2 3.9-.3.7.8-.6 2.5-3.9 6.6-8 4.5.2 2-.7 1.4 3.9.9 4.4-.7 5-2.8 3.1 6.3 3.7 1.6v3.7l.5.8h1.5c0 .1 2.8 2.5 2.8 2.5l1.3-.7 3.4 2.8 4.8.2 1.4 6 1.9 1.4 7.7 2.6 1.4-.2-.4 1.9.6 2.2 3.2.8.7 1.6 1.7.4 3-.7 1.8.9 2.3-1.5 1.9-2.5 1.6-.2 8.7 5.6 4.8 1.5 4.8 4.1 3.3 1.5 2.4 2.2 1 4.6 4.6 10 3.4 2.5-5.5 7.1-2.2 4.6-4.4 4.4v4.1c-.1 0-1.8 2.4-1.8 2.4v.9c-.1 0 1.4 1.3 1.4 1.3l2 .9h3.1l1.1 3.3-1.2 3.2-2.1 2.2v3l-1.1 2.4-3.8 2.4-3.1.3-8.8-4.3-2.4-3.3-6.3-2.5-6.1-11.4-4.9-3.4-3.3 4-3.8-.7-4.9-2.5-4-3.3-.5-7.4 1.5-3.4-3.3-.8-3.7-3.3-2.2-6.2-2.3-.5-2.1 2.7-2.7.5-2.8-2.6-1.4-3.4-2.2.5-1.4-3.5-5.5-3.5-2-3.1-2.6-1v-8c.1 0-3.1-1.3-3.1-1.3l-2.9 1.2-1.7-.6-1.7-2.6.5-4.6-.8-1.7-1.2-.6-3.1-.3-4.6 1.6-3.2-1.6-4.4.2-4.1-1.4-3.4-2.2-2.5 1.8-7.1.5-3.4-.5-1.1 1.8 1.2 2.9-5.4 6.9-1.5-1.2-.7-2.1-9.7 1-3.7-1.2-2-2.4-.8-5.4-3.4-3.7-.7-1.9.4-3.5-1.2-3.5.4-4.3 1-.6 3.5.2 2.7-2.4-1-1.6h-2.1l-1.2-3.3H207v-1.9l1.5-1.7h1.9l4.1-6.6 2-.6 2.3-2.3 6.2-4 11.6-1.3 4.4 2 12.9-1.8 2.5-1 4.7-4.2 2.2-1h1.7l5.2 1.3 2.7-.9 2.9.7 5.4-1.6h2.2l4.6-2.3 1.9-2.2 1.2-4.4-2.7-4.1 1.1-3.5 4.3-.6 1.2-1.6v-6.9c.1 0 1.4-1.7 1.4-1.7l7.1-4.8-2.6 6.2Z"/></g></svg>