<?xml version="1.0" encoding="UTF-8"?>
<svg id="Layer_1" xmlns="http://www.w3.org/2000/svg" xmlns:amcharts="http://amcharts.com/ammap" version="1.1" viewBox="0 0 512 512">
  <!-- Generator: Adobe Illustrator 29.1.0, SVG Export Plug-In . SVG Version: 2.1.0 Build 142)  -->
  <g id="_x3C_defs">
    <amcharts:ammap bottomLatitude="8.032572" leftLongitude="-85.950620" projection="mercator" rightLongitude="-82.556099" topLatitude="11.217063"/>
  </g>
  <g>
    <path id="CR-A" d="M194,42.1l10.3,6,5.2-1.7,1.5,2.7,10.8,4.6,4.9,5.4,2.1,1.2h3.1c0-.1,2.2-2.1,2.2-2.1l3.7-1.1,3-2.2,2,2.9-1,3.9,1.5,1,2.2,4,4,.6,2.2,3.1,4.9.9,4.2,2.7.6,4-1.1,2.3-2.2.6.3.9,4.4,2.5.8,2.2,1.6-1.2,5.2.3h0l-1,29.6-.3,60.8.7,14.9-2,7.7-.8,1.7-2.2,2,1.1,3.4h-1.7c0,0-2.2.9-2.2.9l-4.7,4.2-2.5,1-12.9,1.8-4.4-2-11.6,1.3-6.2,4-2.3,2.3-2,.6-4.1,6.6h-1.9s-2.8-1.6-2.8-1.6l-1-2.9-10.7-1.3-1.1-1.9.2-2.7,1.1-1.4,1.8-.6,3-5.2,4.7-.3,4.1-4.6,3.3-1.2.7-2.6-.3-2.7-2.3-2.3-7.8-.4-1.1-4.8-2.1-1-3.2-6.1v-8.4s-1.7-1.1-1.7-1.1l3.6-7.2-.8-2.9-3.3-3.8-1.5-.5-7.4,3-4.9-3.4-2.6-3.7h0l2.9-6.4.9-.6-1.9-3,.7-7.8h0l6.4-.2-.8-2.6-2.3-.7-1.7-2.3-2.6.2h0v-3.5c0,0-2.4-.3-2.4-.3l-2.3-1.4-3.1-2.1-3.5-3.7-4.2-2.3h-5.9c0,0-1.7-2.6-1.7-2.6l-4.9-3.9-3.1-3.9-2.9-10.1-11.2-3.9h-5.7c0,0-2.8-3.9-2.8-3.9l-2.8-1.8-2.8-.7-14.1.7-1.5-1.4-1.6-6.8-7.2-3.3-2.4-2.2-2.7-6.4-5.5-8.5.9-1.5,4.8-1.8,2-1.7,2.9-6.4h3.5c0,0,1.5-1.2,1.5-1.2h1.5s2.3,2.9,2.3,2.9l2.4,1.7h1.8s1.6-9,1.6-9h0l7.7,4,42.7,16,34.5-20.3Z"/>
    <path id="CR-C" d="M301.4,179.3l23.5,12.7,24.9,11.3h43.7l-.9,1.3-2,.9-.7,3.2-2.1.4.7,6.2,1.1,2.5-.2,4.4,1.1,2.9-12.1,15.3-1.4,2.5-1.1,6.7-13.9,12.4,2,4.2v4.1s1.3,4.5,1.3,4.5h0l-3.3-1.5-4.8-4.1-4.8-1.5-8.7-5.6-1.6.2-1.9,2.5-2.3,1.5-1.8-.9-3,.7-1.7-.4-.7-1.6-3.2-.8-.6-2.2.4-1.9-1.4.2-7.7-2.6-1.9-1.4-1.4-6-4.8-.2-3.4-2.8-1.3.7-2.8-2.4h-1.5c0-.1-.6-1-.6-1v-3.7c0,0-3.6-1.6-3.6-1.6l-3.1-6.3-5,2.8-4.4.7-3.9-.9.7-1.4-.2-2,8-4.5,3.9-6.6.6-2.5-.7-.8-3.9.3.2-2.2,4-3.7.2-2.3,7.3-1.4,2.2.4,2.6-.5,2.7-2.6,2.4.9,2.6-.8.7-1.3-2.6-9.3-2.3-2.1-4.6-2.5-3-10.5Z"/>
    <path id="CR-G" d="M71,29.8l15.5,5.7h8.3s14.3,7.1,14.3,7.1h0l-1.6,9h-1.8s-2.4-1.7-2.4-1.7l-2.3-2.9h-1.5s-1.5,1.1-1.5,1.1h-3.5c0,0-2.9,6.4-2.9,6.4l-2,1.7-4.8,1.8-.9,1.5,5.5,8.5,2.7,6.4,2.4,2.2,7.2,3.3,1.6,6.8,1.5,1.4,14.1-.7,2.8.7,2.8,1.8,2.8,3.8h5.7c0,0,11.2,4,11.2,4l2.9,10.1,3.1,3.9,4.9,3.9,1.7,2.6h5.9c0,0,4.2,2.3,4.2,2.3l3.5,3.7,3.1,2.1,2.3,1.4,2.3.3v3.5h0l-2,.8h-2.2c0-.1-5.6-6.3-5.6-6.3l-5.3-3.6-2.2-.3-.4-2.7-.7.4-2.3-1-.4,1.5-1.5.5-.9-.8-2.3-.2-.3.8h-2.8s6.6,5.5,6.6,5.5l1.3.3v-1.3c-.1,0,1.6.3,1.6.3l1.8,2,2.5,1.3,4.3,1,2.1,1.5.3,3,3.4.5,5.9,2.6h0l-.7,7.8,1.9,3-.9.6-2.9,6.4h0l-2.4-2-3.3-1-2.6,1.2-2.4,3.3-1,5.3-2.5,6.8.8,5.3-3,.7-3.2,2.9.6,2.9-1.9,3.3h-1.9c0,0-14.3-6.8-14.3-6.8h-2.8c0,0,.5,5.4.5,5.4h0l-1.4-.3-3-3.4.2-.6,2.3.8.6-.6-.4-.9-.9.4-4.4-1.7-4.2,2.3-9.8-2.7-2.4-1.9-1.1-3.4.7-2.4-.9-1.5-1.2-1.7-6-3.4.8-2.4-3.7-3.1-.4-1.1-1.1-1h-4.1c0-.1-1.4.8-1.4.8l-2.1-.7,2.1,1.6,3.6-1,2,.5,2,2.6,1.9,1.2.4,4.3,2.8,1,3.1,2.6.3,6.3-.9,3.9,1,3.9,1.7,2.8-1.8-1.7-2.6-1-2.8.7-.9.9,2-.5.5.7-1,1.4,1.7-1.1.2-1,3.2.9.2,1-.8.2,1.1,1-.7.8.4,1.3.4-.4,2.7,2.5,3.2,1.4,3.2,4.2,1.6.8,1.4-.5v2.3c-.1,0-3.7-1.4-3.7-1.4l-1.5-1.9-1.6.9,1.5.5,1.9,2.4,1-.3,1.1,1.5h0l-1.9,4.8-1.7,1.7-4.5.2-.8.9-8.3,1.7-2.3,2.2v2.2s1.6,1.2,1.6,1.2l9.4,2.3,3.4,6,3.2.4-3,6.7.5,3.9-1.7,3.8-4.1,4.4h0l-5.5-3.8.6-1.7-.9-2.3-5.3-3.8-3.2-.8-1.2-1.7-3.3-2-5.2-1.8-1,.9h-1.3c0-.1-4.6-2.2-4.6-2.2l-1.9.3-.5,1.2-1,.3-2.7-1.5-.7-1.3-2.8,1.1v-1.3c-.1,0-1.6-1.2-1.6-1.2l-1.9.6-3.5-.7-1.6.4-3.8-2h-4.5c0,0-.7-1.3-.7-1.3l-1.8-1-1.5.4-.2.8-2.1-1.1,1-1.5-.3-2.1-2.4-5.1-3.3-4.6-4.9-4.5-1.7-3.8-5.3-6.2-2-6.9-2.7-5.9-2.3-3.1-.2-3.7-1.7-3.7.3-3-.8-2.9,2.5-2.7-3.1-5.1-2.3-1.1.5-1.8,3-.9,3.7-6.3.7.8h2.3s1.4-3.6,1.4-3.6l-.4-2,1.3.8,1.6-1.6-.7-3.6-2.3-1.9-.8-2,.6-.6-1.4-1.9,2.3-.4,2.3-3.4,1.7.2,1.3,1.7h1s5.8-4.3,5.8-4.3l1.3.7.9-1.1-.5-2,2.7-.6.4-2h3.2s.9-2.2.9-2.2l1,.2,1.9-3.4-.7-1-2.9-1-3.2,1.5v1.7s-.9,1.2-.9,1.2l-1.6.9-.8-.3,1.2-1.1.3-2.5,1.9-1.3-1.4-.5,1.4-.8.2-1.7,1.1.3,1.9-1.7-1.9-7.2,1-6-4-5.7-2.1.2-.6-.8-5.9-1.1-1.9.6-.9,1.3-4.6-1.7-1.4-2.6v-1c.1,0,2.3.5,2.3.5l-.8-2.4-1.9.5-6.9-1-1.6-3-7.8-3.4-4.6.8,12-4.6.8-1.6-2.9-2,2-.3,7.1.8.9,1-.6,1,.3,1.5,2.3,1.4,1.8-.3-1.1-2.6,2.3-1.2h1.9c0,0,.3.9.3.9l2.6-.9,3.2.5.2,1.2,1.4.7.4-1.8,1.3-.9-2.4-1.7.3-.7,1.3.2.2-.7,1.8-.3.7-1.7-4.9-4.8-3.6-1.5-1.2-1.5,1.1-1.6h1.2s.4-1.6.4-1.6l1.3-.2,1.8,2.2,3.2.6,2.9-1.4.6-1.3-.3-2.5-2.5-2.1h-1.2c0,0,10.6-17.6,10.6-17.6l1.1-3,1.3-.5,7.4,1.3,5.6,6.8Z"/>
    <path id="CR-H" d="M290.3,85.8l1.6,2.8,4.6,2.6,1.2,2.5,3.7,1,1.1,2h1.1c0,.1,4-1.8,4-1.8l5,.3,3.4-3.6,4.1-.4,3.3-3.4,4.9-.3h0l2.3,1-.7,2.9,5.2,4.5.9,2-8.8-.2-1.8,1.7-3.4.5-2.8,3.8h-2.1c0-.1-1.1,2.2-1.1,2.2l-.3,4.5,1.7,2.9-1.9,4.3v2.9c0,0,2.8,8.1,2.8,8.1l-1.1,3,.5,1.8-1.6,1.1h-2.3s-2.7,3.9-2.7,3.9l-.4,2.1,1.4,3.9,2.1,2.8,1,8.3-5.1,10.9-3.2,4.2-2.8,1.9h0l-7.1,4.8-1.3,1.7v6.9c-.1,0-1.4,1.6-1.4,1.6l-4.3.6-1.1,3.5,2.7,4.1-1.2,4.4-1.9,2.2-4.6,2.3h-2.2s-5.4,1.5-5.4,1.5l-2.9-.7-2.7.9-5.2-1.2h0l-1.1-3.4,2.2-2,.8-1.7,2-7.7-.7-14.9.3-60.8,1-29.6h0l3.3-.3.9,2.7,1.3.3,2.1-1,4.8,1.6.9-.3,1.1-2.1,2.6.6.9-2.1,1.9.9Z"/>
    <path id="CR-L" d="M349.8,76.1l2.8,9.3-2.8.4-2.9-8.3-1,2.5,2.8,8.4v3c-.1,0-1.5,2.4-1.5,2.4l-2.5,1,2.9-.4,1.9-2.2,1,2.7,2.4-6.9,1.6,7.5,7.8,18.3-.2,3.1,2.6,6.1-1.7-7,4.6,11.3,8.7,15.2,6.6,9.3,3.6,3.6v.7s-1.8-.4-1.8-.4l3.1,1.5,4.7,5.8,5.8,9.2-.3,2.2,1.2-.6-1.6-4.7,7.8,9.6.6,3.1,1,.3-.6-1.8,8.7,10.1,7.8,10.4,2.3,1.1,4.3-2,4.8,2.1-.4,3.6,3.1,5.3,3.5,3.7-.6.9,1.3.4,17.4,22.6,3.9,2,3.7-1.2-1,3.4,3.3,6.7,2.4,2.6,2.7.7,1.7-.4,5.9,2.5,3-.5,3.2,1.1,1.8-.8,3.9.5,1,1-.2,1.6,2,3.1,6.9,4,1,3.9-1.5-.4-1.9-2.7h-2.9c0,0-.7,1.1-.7,1.1l.8,3.2-1.8,4.4h-2.7s-2.1.9-2.1.9l-1.6-2.4-2.2,1.4-.5-1.2h-3.5c0,0,0-1.5,0-1.5l-1.2-1.2,1.3-1-.4-.6-1.6-1.5-.7,1.5-2.6-2.1.4-1.7-1.7-.4-.9-1.6-2.7-.4-3.7-2.8-2.6,1-3.7-3.1-3.9.6-.7,2.1-1.7,1.2-1.2,3.6.4,2,1.9.4-.2,4.2.6.7h1.6c0,0-.4,1.2-.4,1.2l.9-.4,1.7,1.6-13.8,3.9.2,54.3.2,3.3.7,1.1h0l.3,1.7-3.8-1.1-2-1.5-1.5-2.9-1.5-8.4-2.1-1.1-7.5-1.6.2-3.2-1.8-3.7-.3-4.7-11-4.9-5.4-6.4-5.4.9-2.4-.6-1.9-2.7-4.8-1.5-3.8-3.5-2.9-1.6-2.6,1.7-1,3.6-2.9-.2-3.8,2.3-.4-1.8-1.4-1.4-2.6-1h0l-3.4-2.5-4.6-10-1-4.6-2.4-2.2h0l-1.2-4.5v-4.1s-2-4.2-2-4.2l13.9-12.4,1.1-6.7,1.4-2.5,12.1-15.3-1.1-2.9.2-4.4-1.1-2.5-.7-6.2,2.1-.4.7-3.2,2-.9.9-1.3h-43.7l-24.9-11.3-23.5-12.7h0l2.6-6.2h0l2.8-1.9,3.2-4.2,5.1-10.9-1-8.3-2.1-2.8-1.4-3.9.4-2.1,2.7-4h2.3s1.6-1.1,1.6-1.1l-.5-1.8,1.1-3-2.8-8.1v-2.9c0,0,1.9-4.3,1.9-4.3l-1.7-2.9.3-4.5,1.1-2.3h2.1c0,.1,2.8-3.6,2.8-3.6l3.4-.5,1.8-1.7,8.8.2-.9-2-5.2-4.5.7-2.9-2.3-1h0l5.9-2.8,2.2.5,2.6-.5,1.2-.6,1.6-2.4.3-1.5-1.4-4,.4-4.5-1.5-2.7.6-2.3-2.5-3v-.9c.1,0,3.2.8,3.2.8l3,2.7,2.5,2.8,3.5,6.6Z"/>
    <path id="CR-LA" d="M178.2,131.5l2.6-.2,1.7,2.3,2.3.7.8,2.6-6.4.2h0l-5.9-2.6-3.4-.5-.3-3-2.1-1.5-4.3-1-2.5-1.3-1.8-2-1.8-.3v1.3c.1,0-1.2-.3-1.2-.3l-6.6-5.5h2.8s.3-.8.3-.8l2.3.2.9.8,1.5-.5.4-1.5,2.3,1,.7-.4.4,2.7,2.2.3,5.3,3.6,5.6,6.2h2.2c0,.1,2-.7,2-.7Z"/>
    <path id="CR-P" d="M308.9,391l-1.5-.2v-1.9c.1,0,3,.1,3,.1l-1.4,1.9ZM347.9,359h-.8s-.5-2.8-.5-2.8l.7-.4,1.1,1.7-.5,1.5ZM347.4,353.8l-.7.9-.9-.6v-7.3c0,0-1.6-4.3-1.6-4.3h1.4c0,0,1.5,4.2,1.5,4.2l-.2,2.5,1.2,3.8-.8.8ZM162.5,211.7h-2.8c0,.1-1.2-1-1.2-1l1.7-.9-.2-.9,2.5.3v2.4ZM138.1,203.3l1.9,1.8h-2.7c0,0-.9.7-.9.7l-1.9-1.8.5-.7h3.1ZM147,202.7l5.2,2h-2.4c0,.1-5.2-1.5-5.2-1.5l2.4-.5ZM130.7,205.5l2,.7,2.1-.7,1,1.6,3-1.6,3.5,2.2,2.7,3.3,7.4-.2,5.5,2.4.8,2.8-2.4,2.2-.3,1,1.6,2.1h.7s.2,1.2.2,1.2l1.5.9-1.4.2-1.5,1.4.2,1,2.1,1.3,2.6-.9,2.1.2,2,.5-.2.9-1.6.6-.4.9-2.3.2-1.1,2.2-2.5.7.2,1.1-1.6,3.3-2.7.3-.4,4.2-.9.5-1.7-.5-3.1-2.3-2.1.9-1.1,1.6v2c0,0,2.4,1.8,2.4,1.8l-2,2.1-2.4.6-1.7,1.7-2,.8-2.1,2.4-3.2,10.4-.6,1.2-2.1.7-.3,1.8-.9-1.7-2.4-.9-1.3-1.3-.8-5.3-8.1-8.4-1.3-3.6-3.3-4.7h0l4.1-4.4,1.7-3.8-.5-3.9,3-6.7-3.2-.4-3.4-6-9.4-2.3-1.6-1.2v-2.2s2.3-2.2,2.3-2.2l8.3-1.7.8-.9,4.5-.2,1.7-1.7,1.9-4.8h0l.5,1.2,4.2,3.2,1.7.4,1.3,1.6ZM124.8,184.8h1.5c0-.1,4.9,1.7,4.9,1.7l-.3.6-2.5-.2-4-.7-.9-.8.4,1.3,1.9,1h2.6c0-.1,1.2,1.2,1.2,1.2l1.8-.7,1.4.5-1.1,1.3-2.7,1.1-3.8.5-2.3-.2-2.3-1.1-2.2-4.7.4-.7,3-1,3.1,1ZM176.7,154.8l2.6,3.7,4.9,3.4,7.4-3,1.5.5,3.3,3.8.8,2.9-3.6,7.2,1.7,1.1v8.4s3.1,6.1,3.1,6.1l2.1,1,1.1,4.8,7.8.4,2.3,2.3.3,2.7-.7,2.6-3.3,1.2-4.1,4.6-4.7.3-3,5.2-1.8.6-1.1,1.4-.2,2.7,1.1,1.9,10.7,1.3,1,2.9,2.8,1.6h0l-1.5,1.7v1.9c0,0,2.4,0,2.4,0l1.2,3.4h2.1c0,0,1,1.5,1,1.5l-2.7,2.4-3.5-.2-1,.6-.4,4.3,1.2,3.5-.3,3.5.7,1.9,3.4,3.7.8,5.4,2,2.4,3.7,1.2,9.7-1,.7,2.1,1.5,1.2,5.4-6.9-1.2-2.9,1.1-1.8,3.4.5,7.1-.5,2.5-1.8,3.4,2.2,4.1,1.4,4.4-.2,3.2,1.6,4.6-1.6,3.1.3,1.2.6.8,1.7-.5,4.6,1.7,2.6,1.7.6,2.9-1.2,3.2,1.3v8c-.1,0,2.4,1,2.4,1l2,3.1,5.5,3.5,1.4,3.5,2.2-.5,1.4,3.4,2.8,2.6,2.7-.5,2.1-2.7,2.4.5,2.2,6.2,3.7,3.3,3.3.8-1.5,3.4.5,7.4,4,3.3,4.9,2.5,3.8.7,3.3-4,4.9,3.4,6.1,11.4,6.3,2.5,2.4,3.3,8.8,4.3,3.1-.4,3.8-2.4,1.1-2.4v-3c0,0,2.2-2.2,2.2-2.2l1.2-3.2-1.1-3.3h-3.1s-2.1-.8-2.1-.8l-1.5-1.3v-.9c.1,0,1.8-2.4,1.8-2.4v-4.1c.1,0,4.5-4.4,4.5-4.4l2.2-4.6,5.5-7.1h0l2.6,1,1.4,1.4.4,1.8,3.8-2.3,2.9.2,1-3.6,2.6-1.7,2.9,1.6,3.8,3.5,4.8,1.5,1.9,2.7,2.4.6,5.4-.9,5.4,6.4,11,4.9.3,4.7,1.8,3.7-.2,3.2,7.5,1.6,2.1,1.1,1.5,8.4,1.5,2.9,2,1.5,3.8,1.1-.3-1.7h0l4.5-2.1,1.8.2,2.6,4.4,7.6,4.8,2.3,2.5,5.4,1.4,2.6,1.9,1.6,3.9,2.9,2.6v1.6c0,0-.2.9-.2.9l-4.4,2.4-3.5,4.5-5.2,1.1-2,1.6-5,.9-2.3,1.2-2,3.1,2.3,2.7-.4,1.5-3.3,1.7-.2,1.7-3.3,1.2.5,1.2-.6,1.7,3,4.8,4.7,3.3,1.8,4.3,3.5,4.9-1.1,2.2.8,1.2.8,5.5-2.1,2.9.7,5.9-2.1,6-1.6,2.3-2.8,1.7-3.2.8-4.1-.4-9.5,9.9-7.8,3.5-.7,1.4,1.1,2.7,3.4,1.3,4.4,4.3,2.6-.7,5,1.8,1.2,4.1-.3,4.4,3.5,2.5v5.5c-.1,0,2.4,6.6,2.4,6.6l-.8,11.4-1.7-.6-1.7-2.8.2-2.3,1.4-.8.4-1.1-.2-3.4-2.6-4-2.5-6.9-5.2-7.7-2.7-2.7-2.8-1.1-7.7-5.9-7.3-4.2-4.5-4.6-.2-2,.9-2.6,4.8-3.9.3-2.4,1.5-1.9-2.8-5.3-4.1-4.7-1.4-3.7,1.1.4,1.1,1.9h.5c0,0-.6-1.7-.6-1.7h2.2s1.7-1.8,1.7-1.8h1.2c0,0-1.5-.5-1.5-.5l-3.1,1.3-3.1-2.7-3.6-4.8-.2-1.1,1.2-2.3,1,1.7,1.4.7-.6,1.4.6.7-.8,1.1.7,1.2,2.9-2,1.4.4.5-.7-1-.9-1,.2-3.2-4.9-2.1-1.6-.7.5-.9-.5-.2.5,1.2.8-.8,1.7-3.3-1.3h-1.3c0,.1-.6-1.3-.6-1.3h-2.1c0,0-.8,1.7-.8,1.7l-2.7-4.3-1.2.4-2.9-.6-1.1.8-1.9-2.4-3.6-1.9.5-4,1.1-2.1-.9-.5-1.2.7-2.1-1.8-3.7-.2-.7-1.5-1.5,2.3-2.4-.6-2.7,2.7h-1.9c0,0-.3-.8-.3-.8l-3.4-.4-2.4.6-.9,1.3v2.3c.1,0,2-.3,2-.3l.7.9-.2,1.6,1.1-.5,3.1,2.7,1.1,2.1-.4,3.2,4.9,5.1,4.3,2.8,2-.3,4,1.5,3.2,3.6,2,1.1.8-1.2.4.5-.6,6.7,3,3.7-2.2,2.7,1.8,3.5-1.2,3.2.5,2.3-2.1,2.3-12.9-4.9-8.2-4-10.1-1.6-7.7.8-4.6-2.8-1.5-2.9-5-3.6-10.4-11.2-1.8-1-1.2.9-2.2-4.5,1.4-3.7,2.1-1.9.7-3.9,1.6-1.4,5.9-.8,1.2-.9.8-4.5,2.4-2.1-.9-.6-.7.5v-3.1c0,0,3.3-1,3.3-1l.9-1.4.8.5-.5-1.9,3.6-.7,1.2.4,1.2-.9-.3-.9-.9.2v-1.3c-.1,0-1.6,1.9-1.6,1.9l-3.8-.3-.9,2.7-1.9.7-1.9-2.1,3.7-3.9,3.6-3,1.6-.4,4.3,1.3-1.9-2v-1.2c0,0,.8.6.8.6l5.8-.4-1.4,4.5-.8,1-2.7.8-.6,2.4h-.8c0-.1.8.8.8.8h1.2c0-.1.7-2.3.7-2.3l2.4-1.1,1.4-4.6,1.6.3,4.8-2-.9-1-4.2,1.9v-2.2c0,0-2.7,1.1-2.7,1.1l-3.4-.2-2.4-1.4-.6.4-.2,2.7-1.1-2-2.5-1.3h-2.9s1.1-3.8,1.1-3.8l2.5,1.4,3.9.6,2.8,1.6-.4-1.8-1.2-1.2.6-1,2.6.3v-.7c.1,0-2.5-.5-2.5-.5l-2.4,2.4-4.8-2.3-.2-1.1,2.8,1.8,1.1-.3-2.7-1.2-.9-1.4-2.9.7,2.6-3.5v-4.3c0,0-1.8-5.7-1.8-5.7l.3-1,2.3-.4-1.9-.7-.5-1.4.6-1.8-2.7-1.4-2.4-2.4-1.2.7-.9-1.9-1.9-1.2v-1.1c0,0-1-.3-1-.3l-7.2-8.4h-2c0,0-1,1.2-1,1.2l-1.1-.6.7-.9-.9-4.4-4.7-3.3-6.8-2.3-.3-2.1-7.5-6.7-.4-1.2-.9.5-2.8-2.1-.2-.9-.6.6-13.7-6.7-.2-2.2-1.3,1.7-6.8-3.3-4.1-1-1.8.9-.8-2-2.3,1-1.5-2.3-3.1-.3,1.9-1.6-.8-2.2.5-.8-5-4.9-4-1.7-3-4.1-.8.3.4.8,2.7,3.2,4.1,1.6v1s-5.2-1.9-5.2-1.9l-2.9-3.1-4.1-.6,3.3,1.2v.9c0,0-6.5-1.1-6.5-1.1l-2.3-1.5v-1.3c-.1,0-1.5.7-1.5.7v.8c0,0-8.7-2.5-8.7-2.5l-2.1.2-1.4-1.5-1.5.5-8.4-2.1-6.5,1.6-1.8-2.4.8-.9-.3-.7-1.6.6-1.4-1,.5,1.3-1.5-1.6-5.9-3.6-3.1-5.7-1.2-.8-1.3.3-1.2-1.2.6-2.3-1.7-1.2-1.6.4-.3-.8,1-1.1.2-1.5-1-1.2.3-2.2,1.5-1.5.8-2.1,3.4-3.1.9-2.4-.8-3.7-6.9-8.8-2.5-1.5-.2-.8.7-.2-.9-1.4-4-3.2,2.5-4-3.5-3.1-.6-3.7-1.3-.8-4-.6-10.4.7v-1c0,0,3.8-1,3.8-1l-4.3-1-10-6.4-.3-1.1-1.4.3-1.9-2.9-3.5-.8v-.7s1.5-.3,1.5-.3l-1.3-2.8-4.3-1.6-3.6-3.8-3.6-1.9-1.9,1.1-.9-.5h0l-.5-5.4h2.8c0,0,14.3,6.7,14.3,6.7h1.9c0,0,1.9-3.4,1.9-3.4l-.6-2.9,3.2-2.9,3-.7-.8-5.3,2.5-6.8,1-5.3,2.4-3.3,2.6-1.2,3.3,1,2.4,2Z"/>
    <path id="CR-SJ" d="M301.4,179.3l3,10.5,4.6,2.5,2.3,2.1,2.6,9.3-.7,1.3-2.6.8-2.4-.9-2.7,2.6-2.6.5-2.2-.4-7.3,1.4-.2,2.3-4,3.7-.2,2.2,3.9-.3.7.8-.6,2.5-3.9,6.6-8,4.5.2,2-.7,1.4,3.9.9,4.4-.7,5-2.8,3.1,6.3,3.7,1.6v3.7c0,0,.5.8.5.8h1.5c0,.1,2.8,2.5,2.8,2.5l1.3-.7,3.4,2.8,4.8.2,1.4,6,1.9,1.4,7.7,2.6,1.4-.2-.4,1.9.6,2.2,3.2.8.7,1.6,1.7.4,3-.7,1.8.9,2.3-1.5,1.9-2.5,1.6-.2,8.7,5.6,4.8,1.5,4.8,4.1,3.3,1.5h0l2.4,2.2,1,4.6,4.6,10,3.4,2.5h0l-5.5,7.1-2.2,4.6-4.4,4.4v4.1c-.1,0-1.8,2.4-1.8,2.4v.9c-.1,0,1.4,1.3,1.4,1.3l2,.9h3.1s1.1,3.3,1.1,3.3l-1.2,3.2-2.1,2.2v3c0,0-1.1,2.4-1.1,2.4l-3.8,2.4-3.1.3-8.8-4.3-2.4-3.3-6.3-2.5-6.1-11.4-4.9-3.4-3.3,4-3.8-.7-4.9-2.5-4-3.3-.5-7.4,1.5-3.4-3.3-.8-3.7-3.3-2.2-6.2-2.3-.5-2.1,2.7-2.7.5-2.8-2.6-1.4-3.4-2.2.5-1.4-3.5-5.5-3.5-2-3.1-2.6-1v-8c.1,0-3.1-1.3-3.1-1.3l-2.9,1.2-1.7-.6-1.7-2.6.5-4.6-.8-1.7-1.2-.6-3.1-.3-4.6,1.6-3.2-1.6-4.4.2-4.1-1.4-3.4-2.2-2.5,1.8-7.1.5-3.4-.5-1.1,1.8,1.2,2.9-5.4,6.9-1.5-1.2-.7-2.1-9.7,1-3.7-1.2-2-2.4-.8-5.4-3.4-3.7-.7-1.9.4-3.5-1.2-3.5.4-4.3,1-.6,3.5.2,2.7-2.4-1-1.6h-2.1c0,0-1.2-3.3-1.2-3.3h-2.5c0,0,0-1.9,0-1.9l1.5-1.7h1.9s4.1-6.6,4.1-6.6l2-.6,2.3-2.3,6.2-4,11.6-1.3,4.4,2,12.9-1.8,2.5-1,4.7-4.2,2.2-1h1.7c0,0,5.2,1.3,5.2,1.3l2.7-.9,2.9.7,5.4-1.6h2.2s4.6-2.3,4.6-2.3l1.9-2.2,1.2-4.4-2.7-4.1,1.1-3.5,4.3-.6,1.2-1.6v-6.9c.1,0,1.4-1.7,1.4-1.7l7.1-4.8h0l-2.6,6.2Z"/>
  </g>
</svg>