<?xml version="1.0" encoding="UTF-8"?>
<svg id="Layer_1" xmlns="http://www.w3.org/2000/svg" xmlns:amcharts="http://amcharts.com/ammap" version="1.1" viewBox="0 0 512 512">
  <!-- Generator: Adobe Illustrator 29.1.0, SVG Export Plug-In . SVG Version: 2.1.0 Build 142)  -->
  <g id="_x3C_defs">
    <amcharts:ammap bottomLatitude="19.825899" leftLongitude="-84.951889" projection="mercator" rightLongitude="-74.132223" topLatitude="23.276752"/>
  </g>
  <g>
    <path id="CU-16" d="M159,177.9l-19-1.5-.5,5.9-14.8,5.5,2,13.3,33.7,5.6-1.5-28.8Z"/>
    <path id="CU-05" d="M255.2,195.3l-2.9,1,14,8.3-11.1-9.3ZM250.2,192.6l-2.2-2.2-.2,1.9,2.3.3ZM239.7,187.3l-1.8,1.9,2.8-.9-1.1-1ZM243.2,190l.8-2.1-1.9-.4,1.2,2.5ZM224.2,186.3h-4.4l5.3,1.3-.9-1.3ZM214.9,187l-6.3-4.7-7.1,9.3,7.4,3.3,3,13.4,4.7-1.2,7.4-.4,10.5,31.3,11.8-3.1v-9.4s18.4-1.9,18.4-1.9l-2.5-11.9-20.1-17.2,2.9-3.8-5.6,2.4-5.9-5.4-10.6,2.3-8-3ZM232.7,182.8l-1.4.5,1.8,1.1-.4-1.6ZM229.2,181.9l-2.5-2.4-1.2,1.2,3.6,1.2ZM224.5,181.4l-1.3-2.7-1.5.3,2.8,2.4ZM218.5,178.3h-3.1c0-.1-.7.6-.7.6l3.8-.6Z"/>
    <path id="CU-04" d="M165.1,232.1l-1.8-.7.3,1.1,1.5-.4ZM197.2,176.8l-5.8,3.3,7.6-2.1-1.8-1.3ZM211.7,176.1l-2.5.7,5-.5-2.5-.2ZM205.4,175.7h-1.4c0-.1-.4,1-.4,1l1.8-1ZM181.7,183.1l-4.6-3.9,6.2-4.1-17.3,8.2-7.1-5.4,1.5,28.8-1.5,5.5-21.9,3.3,16.1,10.5,26,1.6,1.6,4.5.5-10.9,4.8,9.6,22.5,1.6-15.9-14.8,19.3-9.2-3-13.4-7.4-3.3,7.1-9.3-.8-4.5-26.2,5.3ZM203.2,175.8l-6.8-1,5.5,1.8,1.3-.8ZM194.1,172.5l-1.4.4,3.3.8-1.9-1.3Z"/>
    <path id="CU-15" d="M113.7,206.3l-.3-.8-.5.6.9.2ZM121,207.1l.5-1.2-.8-2.5.3,3.7ZM120.2,182.3l-.2-.3-18.5,4.4-1.5,8.8,7,9.7,2.9-4.7,16.8.9-2-13.3-4.5-5.4Z"/>
    <path id="CU-03" d="M140,176.4l-20,5.6.2.3,4.5,5.4,14.8-5.5.5-5.9Z"/>
    <path id="CU-13" d="M420,308.2l-4.3-3.5-6.1,6.6-8.4,3.5-4.5,15.3-21.1,2.3-5,5.6,37.9-5.1,37.4,5.3-4.9-8.7,5.2-17.5-.8-6.1-19.7,6.8-5.8-4.6Z"/>
    <path id="CU-10" d="M403.5,271.6l-8.8-1.7-1.4,5-.3-5h-8.6c0,.1,2.9-3.3,2.9-3.3l-9.8,2.4,3.4-4.4-6.1-2.9-7.1,2-8.7,20.6-6.6-4-17.9,17.1,22.5.4,13.2-1.1,14.8.8,2.2-12.1,7-.4,9.4-13.4Z"/>
    <path id="CU-11" d="M441.2,296.1l-1.4-2.2-2.8.3,4.2,1.8ZM412.1,278.9l-8.5-7.3-9.4,13.4-7,.4-2.2,12.1,24.7,13.8,6.1-6.6,4.3,3.5,5.8,4.6,19.7-6.8.8,6.1,24.4.8,5.6-7.3-12.9-7-25.2.8-3.7-4.7-4.2,4.1-2.1-6.8,10,.7-8.8-3.3,5.9-8.5-23.4-1.9Z"/>
    <path id="CU-12" d="M338.7,339.5l32-1.6,5-5.6,21.1-2.3,4.5-15.3,8.4-3.5-24.7-13.8-14.8-.8-13.2,1.1,10.2,16.9-21.5,13.6-6.9,11.3Z"/>
    <path id="CU-14" d="M501.6,319.2l-10.6-.6-14.7-13.1-5.6,7.3-24.4-.8-5.2,17.5,4.9,8.7,13.2-8.7v8s12.7-6.8,12.7-6.8l24.8-1.5,4.9-10Z"/>
    <path id="CU-09" d="M309.2,305.2l-3.6-2,6.2,3.9-2.5-2ZM300.4,300.6h-1.6s.9.7.9.7l.7-.7ZM298,300.8l-1.1-.5.4.6h.7ZM305,297.1l-3.1,1.2,5-1.1-1.9-.2ZM323.8,230.7l-.8.2-7.7,7.7,3.1,7.7-5.3-2.4-15.6,13.9,7,24.2,19.2,15.9,10.7-.7,17.9-17.1,6.6,4,8.7-20.6,7.1-2-6.5-7.3-3.3,6.2-4.4.2-4.8-6.6,9.6,2.8.9-5.4-19.9-13.1,10.7,13.8-4.3-.4-1.2-5.8-13.5-1.4-2.5-7.9-3.7,4.7-8.1-10.7ZM331.8,231.2l11.6,6.4-.8-6.2-10.8-.3ZM337.8,226.2l-3.5-5.8-2.1-.6,5.6,6.4ZM327.3,223.3l.6-3.1-2-.8.7,1.4v1.8c0,0-1.5,3.3-1.5,3.3l7.9,4.1-.2-6.3-5.5-.5ZM317.7,213.4l-5.2,1.6,3,.2.4,3.2,1.5-1.6,1.5,2.8,3.2.4,3.3,1.8.8-.8-1.6-.3-1-1.1-2.4-5.1-3.6-1.2Z"/>
    <path id="CU-08" d="M292.5,297.2l-3.4-1.3,1.6,1.6,1.9-.3ZM284.6,292.6l-1.7.3,5.3,2-3.6-2.3ZM282,291.5l.5-1.4-4.9-1.2,4.4,2.6ZM272.9,283.5h-1.9c0,.1,6.2,5.4,6.2,5.4l-4.3-5.4ZM266.1,278.4l-2.6-.5,4.4,2.4-1.8-1.9ZM284.5,215.3l-5.5,13.9,4,5.6-7.4,12.4,7.4,7.4,9.1-2,5.4,5.2,15.6-13.9,5.3,2.4-3.1-7.7,7.7-7.7-38.5-15.5ZM293.6,208.3h-1.8v1.1c0,0,1.8-1.1,1.8-1.1ZM310.7,208.2h-15.7c0,0,18.9,5.1,18.9,5.1l-3.2-5.1Z"/>
    <path id="CU-07" d="M265.6,214.6l-3.4-2.9,2.5,11.9-18.5,1.9v9.4s-11.7,3.1-11.7,3.1l-3.5,5.6,38.8,13.4,13.2-2.3-7.4-7.4,7.4-12.4-4-5.6,5.5-13.9-18.9-.7ZM271.8,204.2l1.3-1-2.2.2.8.8ZM283,203l-.7-1-5-.2,5.7,1.1Z"/>
    <path id="CU-01" d="M73.2,236.6h-1.8s2.8.2,2.8.2l-1-.2ZM97.6,185.1l-5.2,1-1.1,3-2.6-3.6-7.6,6.2h-6.4s-20.5,9.4-20.5,9.4l-3.3-1.3-17.7,25,7.2,9.1-10.6-1.3-19.4,9.2,20.5-3.6-.6,8.2,21.8-7.5,4.7-12.4,23.2-.7,26.9-20.9-7-9.7,1.5-8.8-3.9-1.3Z"/>
    <path id="CU-99" d="M140.6,256.1l5.2-3.5-6.4,3.4h1.2ZM150.5,252.6l1.4-1.3-4.4,1.2h3ZM171.1,251.2l2.1-2.3-8.6,5.5,6.5-3.2ZM105.5,238.2l-9.8,4.4,5.3,13.8-10.6-3.3,5.2,7.9,24.5-6.2-6.8-14-7.7-2.5ZM117.1,238.8l-1.9-1.6-1,.3,3,1.3Z"/>
    <path id="CU-06" d="M216.7,207.1l-4.7,1.2-19.3,9.2,15.9,14.8,5.6.6-.6-7.4,17.5,18,3.5-5.6-10.5-31.3-7.4.4Z"/>
  </g>
</svg>