<svg xmlns="http://www.w3.org/2000/svg" xmlns:amcharts="http://amcharts.com/ammap" id="Layer_1" viewBox="0 0 512 512"><g id="_x3C_defs"><amcharts:ammap bottomLatitude="15.207" leftLongitude="-61.48" projection="mercator" rightLongitude="-61.24" topLatitude="15.64"/></g><g><path id="DM-11" d="m213 159.7-61.7-33.2-23.1 2.5 13.3 55.6 18.6 17.4 55.2-32.4z"/><path id="DM-10" d="m302.1 341.2-7.8-68.5-37.2 17.5-53.3-.5 24.9 88.2 73.4-36.8Z"/><path id="DM-09" d="m281.2 495.4 31.3-36.5L358 451l22.8-40.5 2.9-54.5-60.2 18.4-53.8 72.4 1.1 11.5 10.3 37Z"/><path id="DM-08" d="m250.4 503.3 30.8-7.9-10.3-37-19.2 9.1-1.2 35.8Z"/><path id="DM-07" d="m269.8 446.9-18.4-7.5.2 28.2 19.2-9.1-1.1-11.5Z"/><path id="DM-06" d="m313.5 226.7-23.1-29.3-75.1-27.9-55.2 32.4 43.7 87.8 53.3.5 37.2-17.5 19.1-46Z"/><path id="DM-05" d="m145 8.7-22.1 63 29.7 7.2-29.7 32.2 5.4 17.9 23.1-2.5 61.7 33.2-12.8-87.1-23.4-19.2L167 9.6z"/><path id="DM-04" d="m323.6 374.5-21.5-33.3-73.4 36.8 22.7 61.3 18.4 7.5 53.8-72.4Z"/><path id="DM-03" d="m383.8 356 5.3-78.8-15.2-7.9-6.3-117.6-7 39.4-47.2 35.6-19.1 46 7.8 68.5 21.5 33.3 60.2-18.4Z"/><path id="DM-02" d="m367.6 151.7-43.4-80-55.2-22-30.3 11.5-45.9-46.3-25.9-5.3 9.9 43.8 23.4 19.2 12.8 87.1 2.3 9.9 75.1 27.9 23.1 29.3 47.2-35.6 7-39.4Z"/></g></svg>