<?xml version="1.0" encoding="UTF-8"?>
<svg id="Layer_1" xmlns="http://www.w3.org/2000/svg" xmlns:amcharts="http://amcharts.com/ammap" version="1.1" viewBox="0 0 512 512">
  <!-- Generator: Adobe Illustrator 29.1.0, SVG Export Plug-In . SVG Version: 2.1.0 Build 142)  -->
  <g id="_x3C_defs">
    <amcharts:ammap bottomLatitude="15.2074513" leftLongitude="-61.4799213" projection="mercator" rightLongitude="-61.2403035" topLatitude="15.6400639"/>
  </g>
  <g>
    <path id="DM-11" d="M213,159.7l-61.7-33.2-23.1,2.5,13.3,55.6,18.6,17.4,55.2-32.4-2.3-9.9Z"/>
    <path id="DM-10" d="M302.1,341.2l-7.8-68.5-37.2,17.5-53.3-.5,24.9,88.2,73.4-36.8Z"/>
    <path id="DM-09" d="M281.2,495.4l31.3-36.5,45.5-7.9,22.8-40.5,2.9-54.5-60.2,18.4-53.8,72.4,1.1,11.5,10.3,37Z"/>
    <path id="DM-08" d="M250.4,503.3l30.8-7.9-10.3-37-19.2,9.1-1.2,35.8Z"/>
    <path id="DM-07" d="M269.8,446.9l-18.4-7.5.2,28.2,19.2-9.1-1.1-11.5Z"/>
    <path id="DM-06" d="M313.5,226.7l-23.1-29.3-75.1-27.9-55.2,32.4,43.7,87.8,53.3.5,37.2-17.5,19.1-46Z"/>
    <path id="DM-05" d="M145,8.7l-22.1,63,29.7,7.2-29.7,32.2,5.4,17.9,23.1-2.5,61.7,33.2-12.8-87.1-23.4-19.2-9.9-43.8-22-.9Z"/>
    <path id="DM-04" d="M323.6,374.5l-21.5-33.3-73.4,36.8,22.7,61.3,18.4,7.5,53.8-72.4Z"/>
    <path id="DM-03" d="M383.8,356l5.3-78.8-15.2-7.9-6.3-117.6-7,39.4-47.2,35.6-19.1,46,7.8,68.5,21.5,33.3,60.2-18.4Z"/>
    <path id="DM-02" d="M367.6,151.7l-43.4-80-55.2-22-30.3,11.5-45.9-46.3-25.9-5.3,9.9,43.8,23.4,19.2,12.8,87.1,2.3,9.9,75.1,27.9,23.1,29.3,47.2-35.6,7-39.4Z"/>
  </g>
</svg>