<?xml version="1.0" encoding="UTF-8"?>
<svg id="Layer_1" xmlns="http://www.w3.org/2000/svg" xmlns:amcharts="http://amcharts.com/ammap" version="1.1" viewBox="0 0 512 512">
  <!-- Generator: Adobe Illustrator 29.1.0, SVG Export Plug-In . SVG Version: 2.1.0 Build 142)  -->
  <g id="_x3C_defs">
    <amcharts:ammap bottomLatitude="17.471463" leftLongitude="-72.004173" projection="mercator" rightLongitude="-68.322347" topLatitude="19.932499"/>
  </g>
  <g>
    <path id="DO-01" d="M280.3,295.3v-1.4c.1,0,1.6-1.5,1.6-1.5v-3.4c0,0-4.8-4.8-4.8-4.8l1.7-.9.7-3.3,1.1-.8,1.5.6,1.1,2.9,2.9,2.7,6.8-1.8,2,1.3-1,4.7h0l-1.1-.2-4,2-2.9,2.6-5.5,1.3Z"/>
    <path id="DO-02" d="M158.8,216.5l3.8-2.1,3.1,3.1-1,1.9.2,2.1,2.4,2.4v1.2l-1.7.7.2,6,2.1,2.6-.2,1.9.8,1.3,4,2.7,3.6,5.3,2.6-.2,3.6,1,3,2.6.8,2.5v4.1l-.5,3.1-1.4,1.6h0l3.3,2.4,1.4,2.4.2,4-1.7,2.6.5,1,5.5,3.8,2.1,4.8,3.1-.5.7,1.7,4.5,1.2,1.9,2.6,3.3.5.7,1.2-.7.5v1.4l1.2.7v1.4l1.2,1.9-.2,1.7,2.3,1.6h0l1,1.8v1.9l-2.6,3.5-.2,3.6.7,3.3-1.4,3.3-5.5,1.6-5.3.2-.7.7h0l-1.1-.9v-1.1l1.6-3.4,1.1-.3-.4-4.2.9-2.4-1.6-6.8-2.7-1.8-9.3-1.8-2.3.3-.9,1.9-2.1.9,1,3.7-3.2,4-2.3,1.2-6.7.2v-1c-.1,0-1.3-.3-1.3-.3l-1.1.7.2,1.2-2.4,1.6v-.7c.1,0-.8,0-.8,0l.9-1.1-1.9-.7-.3.9-1.8.7-1.1,1.7v1.9c-.1,0-1.9,2.3-1.9,2.3l-4.6,4.4-5.6,2.1-1.5-1.4h0l1.4-1.2,1.2-4.3-.5-2.1-2.6-3.8,1.7-1.4v-1.2l-1.9-1.2-2.6,2.1-2.9-1-1.2-2.4-2.1.2-1.7-3.8,4.1-1.6,1.2-5.5,2.4-.5,1-1.2-.7-2.4-3.6-2.2-1.9-4.3h0l1.4.5,1.2,2.9,4.3-2.1-2.6-2.6-16.5-5.8-4.1-3.8-.7-1.6h3.4c0-.1,3.2-3.5,3.2-3.5h1.4l1.6-3.9h2.4c0,0,2.6-1.6,2.6-1.6l-.2-1.7-1.4-1.4v-1.2l2.1-1.2-1.4-2.9-.2-3.8,2.1-2.1h1.7s1,.7,1,.7l1.7,4.3h1s4.1-7.3,4.1-7.3v-1.7l-2.6-6.9,1.4-.9,1.4-2.8-.2-2.6,2.6-.9,1-1.7,3.3-.7,1-1.4-1.2-2.9,4.1-.7.7-.9-.3-2.4Z"/>
    <path id="DO-03" d="M72.8,263.8l3.6,2.4,2.6.7,4.8-.4,3.6,1.9.7,1.4,1.9-.9,1.7.5.2,1.4,4.8,1,2.6-1.9h1.2s1.7-1.9,1.7-1.9l8.1.8,8.6-3,3.1,1,.7,2h0l.7,1.6,4.1,3.8,16.5,5.8,2.6,2.6-4.3,2.1-1.2-2.9-1.4-.5h0l-1,1.4,1.2,2.1-3.3-.3,1,1.2-.5,2.6-3.3.7-.5,2.4-1.7.5-1.2-1-3.1,2.8-2.6-.2-.2.9,2.4,1-.2.9-7.6,3-1.9,2.4-.2,3.8,1.2.7-.5,1.2h0l-5.7.4-1.9-2.1-1.7-5.7-2.1-1.4-1.9-2.6h-2.6s-7.9,5.2-7.9,5.2h-1.2s-6.4-5.3-6.4-5.3l-3.8-1.9-5.5-1-15-7.4-1.2-1.9-.5-5,3.6-8.3v-4l5.3-.9,4.1-1.6Z"/>
    <path id="DO-04" d="M139.7,281.3l1.9,4.3,3.6,2.2.7,2.4-1,1.2-2.4.5-1.2,5.5-4.1,1.6,1.7,3.8,2.1-.2,1.2,2.4,2.9,1,2.6-2.1,1.9,1.2v1.2l-1.7,1.4,2.6,3.8.5,2.1-1.2,4.3-1.4,1.2h0l-1.1-.9-.7-3-2.1-1.9-3.3-1.6-1.5.4-.2-.7-3.5-1.6-1.9.5v1c0,0,1.4-.9,1.4-.9l.6.6-5.4,4.9-.9,3.7,3.5,5.1-1.2,1.3,2.6,2.7.8,2.9,1.6,1.7-1.1,1.6-1.1,4.9-3.1,5.7-1.4.5-1.5,1.9v1.2c0,0-2.8,2-2.8,2v2.7s-.9.1-.9.1l-2.6,2.7-5.5,9.1-2.4,2.9-4.9,3.8-2.1,3.8-.8-1.1h0l-.2-1.6.7-.9-.5-3.1-.9-.7-.2-2-3.2-4h-1.7l-.8,2.6-2.2.7-2.5-3.1-1.4-1-1.1.2-.6-2-1.6-1.2h-2.8l-.9-1.2.5-6.1,1.6.8,1.7-.5,2.5-3.3h0v-4.3h0l-2.2-3.6,2.8-.2.8-1.8-3.6-2.6-2.9-.3h0l.4-4.3,1.2-1.7,1.9-.5,1.9,1,4.1-.2-1.9-6.4-3.6-6.9v-.9l3.6-4.7,3.8,2.9,8.6,1.2,5.7-1.6,3.3-4.3.5-1.9h0l.5-1.2-1.2-.7.2-3.8,1.9-2.4,7.6-3,.2-.9-2.4-1,.2-.9,2.6.3,3.1-2.8,1.2,1,1.7-.5.5-2.4,3.3-.7.5-2.6-1-1.2,3.3.3-1.2-2.1.9-1.4Z"/>
    <path id="DO-05" d="M46.2,124l3.1,2.4,2.4-.2,7.6,3.1,11.5-.4,2.4-1.4,3.3.3,1.2,3.8,5.7,2.9,1.7,2.2,4.1,1.7h0v1l-3.6,3.8-1.4,2.9.7,8.8-2.6,2.4.2,10.3-3.6.7-3.3-.7.5,2.4,2.6,1.9.5,1.2h0l-3.6,4.3-4.1-1.7-1.9.5-2.6-1.4-1.2,1.2-.5,3.6h-2.1s-3.1,3.1-3.1,3.1h0l-4-.3-.3-.7-3.1-.7-2.4-2v-1.1l-2.2-1v-1.4c-.1,0-1,2.2-1,2.2l-1.1-2.1-1.1.4-.9-.8.3-1.3-1-.3.3-1.7-1.4-2.5-2.3-1.4,1.9-1,2.6-.2.6-2.1,3-1.7.9.5.5-1.3,1.8,1.7h.9l-.5-5.1,2.5-5.3v-2.5s-2-3.6-2-3.6l.7-5.1h-1.5c0,.1-.4-2.8-.4-2.8h-1.4v-2.5s-4.1-4.6-4.1-4.6l-.3-7,1.2-1.2Z"/>
    <path id="DO-06" d="M249.1,144.9l1.2,1.4,4.5,1.7.5,1.2,1.7-.2,1.2.7,1.9,6.2-.7,4.8,1,.7,3.3,7.9,8.8,1,1,.7-.2,4.3,1.4,1.4,6.2,1.2,5,2.2,8.1,2.2,5,3.6,7.4,1h0l2.4-3.1,6.7,1.2,2.1-.5,1.2,1.4h4.1s-.2,1-.2,1h-1s-1.2,1.4-1.2,1.4l-.7,2.9h-1s-.2.9-.2.9l-1.4-.5-.5.9-1.2.2v1.4l-2.2,1.4h-1.4s0,1.4,0,1.4l1.4,1.7,1,2.9h-3.1s-.7.7-.7.7h0l-4.1-1-2.9,1.2-4.1-.5-2.6,1.2-2.9-1v6.4l-1,.7-4.5-.3h0l1.7-7.6-4.1-1-4.5-2.9h-1.2s-2.4,1.7-2.4,1.7l-1.7-1.2-5.5-1.5-2.4-2.2h-1.7s-.7-1.4-.7-1.4l-2.4,1.2-.7-1-1.7-.2-1.4,1.7-.7-.2h0v-1.9h0l-1.4.5-1.2,2.1v-1.7l-2.6.5.5-1.7-1-.2-2.6,2.4-.7-1-.7,1.7-2.4-.7-.7-1.2-1.4.5-.5-1.2-3.8.2-.7.5.5,1h-.9s-1-1.9-1-1.9l-3.6-1.9-3.6-3.6-1.9-3.6h0l-1.2-4.8,3.1-4v-2.4l1.2-2.6-.2-1.7,2.2-8.3,3.8-2.8,6.4-2.8v-.7l-1.9-.7-.5-1.2.7-1.4,4.3-1.9.2-1.9-1.2-1.2h0l2.9.3Z"/>
    <path id="DO-08" d="M392.3,208.7l1.1.4,2.5,4.2h2.2c0,.1.5,1.8.5,1.8l4.3,2.1,6.9-.5,1.2-1.7-1.5-2.1,1.4-.6,2.4.8,2.2-2.5,2,.7,1.6-.8,3.5.7,7,4.9,3.8-.5,3,2,2.8.2h0v2.4l-1.2-.5-.2,2.1-1.2-.5-.7,1.4-1.9.2-.2,3.8-2.6,1.7,4.5,10.3-.2,6.2-6,5-2.1,4-3.3-.5-3.8.7-.2,3.8-1,.9,1.2,2.9h0l-4.5-.7-4.3,9-2.1,2.8-4.1,3.1-.5,1.7-2.6,2.6-2.9.9h0l.7-5.7,1.2-.5-.5-.9h-3.8s-2.9,1.1-2.9,1.1l-3.6-1.9-1.2-2.9-3.8-2.6-2.1-.7-2.9.7-.7-1.7-1.9-.7h0l.2-2.4,2.4-1.4,2.4-14.5-1.2-2.6-4.1-5-4.5-1.9-.7-2.4-2.1-1-1.7-4.1-1.4-1.4v-1.4l1.2-5.9,1.2-.2,9.5,5.5,7.6,1,.7-1.2-.2-1.7-5-4.3-1.9-3.3-.2-2.6,1.9-.5,1.4-1.5h0l1.3,1.4,1.7-.3.9-.3,3.9-.2.7.8-.3,1,1.1.4,1-1.5v-3.4c-.1,0-1-1.1-1-1.1l-1.6.4,1.7-.9Z"/>
    <path id="DO-09" d="M228.1,114.2l2,3,6,4.9,5.7,2.5,5.5.2,7.5,2.7h3.3c0,0,7.1-1.4,7.1-1.4h0l-.2,4.8-1.2,2.6-8.8,4.5-4.5-.7-.7.5.5,3.6-1.2,3.6h0l-2.9-.3h0l-3.3-3.8v-3.4l-2.4-1.2-4.3.9-1.2,1.7-1.4.5-2.2,5.5-1.2.5-2.1-1.4-.7-3.4-2.6-.5-2.9-2.4-3.1,7.1.2,3.4-1.2,1.9v1.9l1.9,2.9v1.7l-1.7,3.6-2.6,10h0l-1.4,2.1h-3.1s-.5-5-.5-5l-2.1-4.1-2.4,2.6-2.1.2-6.4-.8-1.4-2.2h0l1.4-2.1,2.6.7-1.7-6,1.7-3.8-.2-3.6,5-3.3v-2.9h0l1.4-1.2.5-5.5,2.2-2.6-.7-3.1,1-1.7-.5-2.2,1.4-.5-.2-1.2,1.2-1.2,1.9,1,.7-.7h1.7s.5.7.5.7l.2-1.7,2.2.3,1-.7,1.4,1.9h1s.7-1.2.7-1.2l.9,1,.2-1.2,1,1.2.9-.2-.9-1.4,3.3-.9-.9-3.4,1.4-3.3h0Z"/>
    <path id="DO-30" d="M383,212.5l-1.4,1.5-1.9.5.2,2.6,1.9,3.3,5,4.3.2,1.7-.7,1.2-7.6-1-9.5-5.5-1.2.2-1.2,5.9v1.4l1.4,1.4,1.7,4.1,2.1,1,.7,2.4,4.5,1.9,4.1,5,1.2,2.6-2.4,14.5-2.4,1.4-.2,2.4h0l-2.6,2.4-3.1.2-1.2,3.8.5,3.3h-1.4s-.2,1.4-.2,1.4l-4.3,3.3-1,2.1-2.6-4.3-1.9-6.2-2.1-1.4-1.2-4-2.1-3.6-1.4-.7-.2-.9,1.7-2.1-1-1.4v-3.8l-1.4-4.1-2.1-1-.5-1.2,1-4.5h0l1-.7.2-1.7,1-.2,2.2-2.8,2.6-.7,1-2.4,1.9-.2,1-3.1-2.4-.7-3.8.7-6-2.9-10-5.5-1.7-1.9-3.3-1.4-2.4-2.2-3.8-1.2-1.2-1.9h0l3.1-10.2h0l1.5.3,5.1-1.8,2.2,1.4,6.3-1.1,1.1,1.8,3.5-.5,1.7,1.6,1.6-.8.4-2.9-5.2.4,3.8-1.1,4.8-.2,4.1,2.6-.3,2.4.8,1.3,3.4.8,1.5,1.2,4.3-.7,1.9,1.9,2.2.5,2.4,2.1,4.2-1.6h1l1.4,1.5Z"/>
    <path id="DO-10" d="M37.8,258.9h5.4s11.7,2.5,11.7,2.5l7.6-.2,2.6,1.2,7.6,1.5h0l-4.1,1.6-5.3.9v4l-3.6,8.3.5,5,1.2,1.9,15,7.4,5.5,1,3.8,1.9,6.4,5.3h1.2s7.9-5.2,7.9-5.2h2.6s1.9,2.6,1.9,2.6l2.1,1.4,1.7,5.7,1.9,2.1,5.7-.4h0l-.5,1.9-3.3,4.3-5.7,1.6-8.6-1.2-3.8-2.9-3.6,4.7v.9l3.6,6.9,1.9,6.4-4.1.2-1.9-1-1.9.5-1.2,1.7-.4,4.3h0l-9.7-8.8-5.2-.5-5.9-2.7-5.6-.9-6.5-5.1-1.7-2.1-5-1.7h0l4.2-7.1-13.5-5.4-1.2-2-3.5-.8-1.9-4.3-8.2-3.9-1.3-3.9,4.5-.8v-1.8c-.1,0-10.1-10.6-10.1-10.6l-1.6-3.6h-1.1l-1.4-2-1.9.3-1.1-1,3.5-1.6,2.1-2.9,5.1,3,2-2h1.2l2.8,1.7.5,1.3h.9c0-.1.6-1.4.6-1.4l2.3.3,1,.9,2.3-.7,1.6.4,1.1-.7-.4-3.6,1-3Z"/>
    <path id="DO-11" d="M442.3,327.1l8.1,3.8h2.6c0,0-.2-.7-.2-.7l2.1.3.7,1.2,2.4.9,6.7-.3,3.4,3.2.6,3.3-1.1.7-1.4-1.2-7.4-1.6-5.9,2.3-9-3.1v-1.2c0,0-3.7-3.9-3.7-3.9l.2-2.3,2-1.3ZM439.1,217.8l6,2.6,6.3,4.3,6.5,6.4,3.9,5.4,1.8,1,.6,1.3,2.1,1.2,5.2,5.5,1.7,1.2,1.1-1,.9.5.3,1.1,4.3,3.9,2.7.9,3.7,4.7,2.6,1.4,2.9,3.5,1.3.8,1.1-.7,4.7,3.2,2.5,3.4-.5.8.8.5-.2,1.7h-.9c0,0,.7,1.1.7,1.1l-7.3,12.6-1.6.4-1.2,4.4-2.9,1.9-2.9,3.3-.9,9.1-1.9,2.4-3.3,1-9.1-2.9-4.9-3.2-2.3,1.1-.6,2.1,1.7,2.1.2,1.4-1.9,4.2-1.6,1.6-1.9,4.9v6.4c-.1,0-2.5-1.1-2.5-1.1l-3.9,1.1-4-.5-2.5,1.4,1.1-1.9-1.9-.8-.6.7.9,1.4-1.7.7.5-1.2-.5-3.1-7.9-14.5-3-2.2-1-3.1-7.9-3.7h0l1.3-2.4.2-5,1.4-.7-.2-.9,4.3-7.6-.5-5.5-3.6-2.4-2.6-4.3-1.2-.5-.2-3.3-1.7-1v-1.4l-1.4-1-.2-1.2h0l-1.2-2.9,1-.9.2-3.8,3.8-.7,3.3.5,2.2-4,6-5,.2-6.2-4.5-10.3,2.6-1.7.2-3.8,1.9-.2.7-1.4,1.2.5.2-2.1,1.2.5v-2.4h0Z"/>
    <path id="DO-07" d="M79.1,172.9l5.5,1.7,1.7,2.4.2,2.9,5,3.8h1.4s7.6,4.3,7.6,4.3h0l-1,.9-.7,6.4.5,1.7-.7.9-1.7.9h-2.9s-1.9,1.6-1.9,1.6h-.9s-.2-1-.2-1h-1.7s-2.4-2.4-2.4-2.4l-4.5-.7-1.4.5-2.4,3.6.2,2.9-3.6,7.4-.2,3.1-1.9.7-5.7-1-6.4,7.3.5,1.2,1,.2-.2,2.4-2.1,3.6-.2,2.9,2.4-1.2-.2,5,.7,2.6-2.1,3.3,1.9,1.2.9,2.1,2.9,1,1.9,1.7.2,1.2-1.7,2.8,2.1,3.6,5,1.2,1,3.3-1.9,4.7h0l-7.6-1.5-2.6-1.2-7.6.2-11.7-2.4h-5.4s.7-1.3.7-1.3h1.6s.3-2,.3-2l6.1-2.4,2-11.5-.4-9.9-1.6-.4-.3-1.8-3.9-2.2-1.8-6.7-1.3-.5-.5.8-4.4-2.2-.8.8-.5-1-2.4,2.2-.9-1.2v2.2s-1.9-.3-1.9-.3l-.6,1-.7-2.5,1.4.2v-2c-.1,0,1.1-.5,1.1-.5v-.9c-.1,0,1.5.5,1.5.5l.4-2.1,1,.3,1.5-2.1.7,1.7,2.9-.7,1-.9v1.2c.1,0,1.5.4,1.5.4l-.4-2,2-.8-1-.7,1.6-2,1.3.7-.4-1,1.9-1.8,1.3.7.4-1.1,2.9-1.4-.6-.5.6-1,.9.7,1.1-1-1.5-.5v-.9c0,0,2-.4,2-.4l-1.3-1.7.3-.7,1-.7,1.8.9.6-.9-.4-1.1,2.5.5,1.3-.8,1.1-2.4-1.2-.8,1.9-.8-1-.9.6-.5-.5-1.5,1.7-.2-1.9-1,2.5-.7.3-.7-1.6-.9v-1.3c0,0,2.2-.7,2.2-.7l-1.8-2.8h0l3.1-3.1h2.1s.5-3.6.5-3.6l1.2-1.2,2.6,1.4,1.9-.5,4.1,1.7,3.6-4.3Z"/>
    <path id="DO-12" d="M409.8,302l2,2.3.4,3.1-4.3-2,1.1-3.3h.8ZM398.9,281.1l2.9-.9,2.6-2.6.5-1.7,4.1-3.1,2.1-2.8,4.3-9,4.5.7h0l.2,1.2,1.4,1v1.4l1.7,1,.2,3.3,1.2.5,2.6,4.3,3.6,2.4.5,5.5-4.3,7.6.2.9-1.4.7-.2,5-1.3,2.4h0l-5.2-1.3-.8.5-1.5-1.2-1.9.8-.8,1.2-14,1.1h0l-1.2-6-3.8-5.5,1-3.1,2.1-2.1.7-2.1Z"/>
    <path id="DO-13" d="M195.8,163l1.4,2.2,6.4.8,2.1-.2,2.4-2.6,2.1,4.1.5,5h3.1s1.4-2.1,1.4-2.1h0l1.2,4.5,1.9,1.7,2.1,5.3,1.7,2.2,6.9-.4h0l1.9,3.6,3.6,3.6,3.6,1.9,1,1.9h.9s.7.2.7.2l-.2.7-1.7-.5-.7,2.1-1.4.7-4.5-.3-2.1,2.8-2.9.9-1.9,3.6h0v-3.1l-5.5-2.4-1.9,1.2-.2,2.1-2.4,1.9-1.9-1-3.6.5-2.9,2.6,2.1,8.6v3.6s-3.6,1.7-3.6,1.7l-.5,1.7-3.3,3.5-3.8,2.1-1.7,3.6.2,1.4,4.8,4.1,1.4,3.6,3.8,4.3h0l-.7,1.7.7,3.3-2.6,1.4-1,1.7.2,2.1h-2.6s-2.6,1.9-2.6,1.9v2.9l-3.6.5-3.1-1-6.9,1.1h0l1.4-1.6.5-3.1v-4.1l-.8-2.5-3-2.6-3.6-1-2.6.2-3.6-5.3-4-2.7-.8-1.3.2-1.9-2.1-2.6-.2-6,1.7-.7v-1.2l-2.4-2.4-.2-2.1,1-1.9-3.1-3.1-3.8,2.1h0l-1.9-4.3-1.4-1h0l1-2.1-1.2-3.3.2-1.4,3.3.3,2.6-3.1,2.1.2,1.9-1.4,2.1-.5,1.7-3.6,4.8-.7,5.3-3.1.5-3.1,1.9-3.1,1.4,2.2,2.6,1,1.2-.5,1-1.2-1-.7.2-1.7-.9-.7,1-1.7-.5-1.4.7-.9-.7-1.4.7-1.2-9.3-4.1-.5-.7h1.9s0-.7,0-.7l-1.4-.7-.5-1.9h1.9s.5-.9.5-.9l2.2-.9,3.3.3,1-2.4,4.3-1.2,2.6-1.7h2.4Z"/>
    <path id="DO-14" d="M279.3,118.7l5.7,1.2,2.2,3.1,1.2-.3.9,1.1,1.9.4,2.2,5.6-2.8,8.3,2.1,3.7,2.7,1.6-1,7.6.5,2,3.5,6.6v2l4.2,4.1,2.4,4.3,3.2,3h0l.2,1.9,2.1,1.9-3.1-.7,1.2,1.4-.2.7-1.9-1.2-1,.2,1.7,4.3-1,1.7-1.7-.5-.2,1.9,1.9,1.2.2,1.2h0l-7.4-1-5-3.6-8.1-2.2-5-2.2-6.2-1.2-1.4-1.4.2-4.3-1-.7-8.8-1-3.3-7.9-1-.7.7-4.8-1.9-6.2-1.2-.7-1.7.2-.5-1.2-4.5-1.7-1.2-1.4h0l1.2-3.6-.5-3.6.7-.5,4.5.7,8.8-4.5,1.2-2.6.2-4.8h0l4.8-6,4.7-1.1,3.5.4.9-.7Z"/>
    <path id="DO-28" d="M206.5,244.6l-3.8-4.3-1.4-3.6-4.8-4.1-.2-1.4,1.7-3.6,3.8-2.1,3.3-3.5.5-1.7,3.6-1.7v-3.6s-2.1-8.6-2.1-8.6l2.9-2.6,3.6-.5,1.9,1,2.4-1.9.2-2.1,1.9-1.2,5.5,2.4v3.1h0l.5,2.1,2.6,2.9-.2,5.7,4.8,1.7.5,2.9,11.9,9.9,1.9,2.8.6,2.5h0l-3.2,2.2-.5,5.2h0l-4.1,1.9-2.9,2.6.7,3.8-2.6,3.6-2.2,1.2-2.2-1.6h0l-6.6-3.9-7.6,1.6-2.4-2.4-3.1-1.2-1.9-2.6-2.9-1Z"/>
    <path id="DO-15" d="M72.5,86.4l4.9,1.1,1.6-.6,14.7,7.3,8,1.5,2.4-.3,3.6,2.3,3,.6,3.7-1.1h0l1,1.1-.5,2.2,1,4.3,10.3,4.4h0l-3.1,10,1.2,3.8v3.8l-1-.7-.7.7-2.2-.5-.5,1.4,1.7,3.8.2,3.1-.5,2.1-1.9,2.6h0l-3.8-1.5-1.2,2.4-1.4.2-1.9-1.7h-2.9s-2.9-2.9-2.9-2.9l-1.7,1.7-1.4-.2-4.3,2.8-3.3-.7-1.2,1.2v-1.2l-3.1-2.4.2-1.2-1.2.2.2,1.9-.7.2h0l-4.1-1.7-1.7-2.2-5.7-2.9-1.2-3.8-3.3-.3-2.4,1.4-11.5.4-7.6-3.2-2.4.2-3.1-2.4h0v-2.8c0,0-2.8-2.1-2.8-2.1l.4-1.3-1-.9v-.8c.1,0,3.5-.7,3.5-.7l1-3.1-.8-1.8-.7.5-2.2-4.2.8-.4-.3-2h-.9s-1,1.8-1,1.8l-1.4.6.2,1.4-.8-.4.3-2.7,4.1-3.6.3-1.1,3.6-.7,3.4-1.7.2-1.3,1.9-.5,2.2-1.8,1-2.2-1-3.4,2-.3,1,2,1.1.5,1.6-1.1.3-1.8h2s2.6-1.3,2.6-1.3l2.5.6,3.3-.8Z"/>
    <path id="DO-29" d="M310.4,202.6l4.5,2.6,4.3,4.8,5.7,2.2,1.2,1.4h0l1.2,1.9,3.8,1.2,2.4,2.2,3.3,1.5,1.7,1.9,10,5.5,6,2.9,3.8-.7,2.4.7-1,3.1-1.9.2-1,2.4-2.6.7-2.1,2.8-1,.2-.2,1.7-1,.7h0l-.2-1-1.9-.7-3.1,3.5-4.5,6.9-2.4,7.8-3.3,5h0l-5.6-2h-2.4l-1,2-4.5,1.5-2.6-.2-2.8.9-1.4-.5-2.9,2.1-1.2,3.8-4.3,3.1-.7-1.9.2-2.1-1.2-2.6h-2.4s-.5-.7-.5-.7l.2-4-1.4-.5-1.2.7-3.6-7.2-3.3.2-3.6,1.6-5.5-2.2.2,2.6-.9,1.2-1.7.2-1.4,1.9-4.3-.5-2.4,1.4-3.1-2.9h-6.2s-5-8.1-5-8.1l-1.4-.2-1.2.7h0l-3.3-3.6-3.1-.5-4.8-5.7h0l.5-5.2,3.2-2.2h0l3-2,9.1.5,1.9-3.3h2.6s2.6-1.6,2.6-1.6h1s1,1.4,1,1.4l2.6.3,2.1-3.3,5.3,3.4,2.4.3,3.6-5,2.2-5.2.2-3.6-1-.7-.5-2.1,2.4-4.8h0l4.5.3,1-.7v-6.4l2.9,1,2.6-1.2,4.1.5,2.9-1.2,4.1,1Z"/>
    <path id="DO-16" d="M58.5,427.2l.9,1.2-1.5-.3v-.7c-.1,0,.6-.2.6-.2ZM74.8,407.9l3.2,1.6,1.8,3.2h1.9l-1,1.8-2.9,2.5-6.3,1.7-1.1-1.8,2.1-5.8,1.3-.8,1-2.4ZM48.2,314l5,1.7,1.7,2.1,6.5,5.1,5.6.9,5.9,2.7,5.2.5,9.7,8.8h0l2.9.3,3.6,2.6-.8,1.8-2.8.2,2.2,3.6h0v4.3h0l-2.5,3.3-1.7.5-1.6-.8-.5,6.1.9,1.2h2.8l1.6,1.2.6,2,1.1-.2,1.4,1,2.5,3.1,2.2-.7.8-2.6h1.7l3.2,4,.2,2,.9.7.5,3.1-.7.9.2,1.6h0l-.8.9v3s-1.3,1-1.3,1l-.7-.7-1.2.6-2.4,3.3-2.6,5.1-3.3,12-2,2-2.4,6h-1l-1.3,1.9-2.6-2.8-.4-2-3.7-3.4-3.3-8.9-4.8-4.3-3.1-1.2-6.2-.3-8,1.6-3.6-1.7,3.8-2.2,1-3.7,2.4.3,1-3.7-2.4-3.7-1.1-3.5-2.7-2.3,1.9-.9.9-2.5-2.3-6.2-3.6-3.3-2.8-1.4-2.3-2.6-2.2-.7.6-1.7,1.5-1,.3-2.3,1.1-1.8-.8-1.4.6-.9-1.3-.5-.7-1.7,1-2.7-1-.9-2.4-3.4.4-.9-1.5.4-1.5-1.7.8-2.2,1.3-.7.4-3.1,1.5-.9v-1.7l4.2-7.3Z"/>
    <path id="DO-17" d="M230.2,284.4h3.1c0,.1,1.8,1.1,1.8,1.1l.3,1.1,1.9,1v.9l1.7.5.5,2.9,3.1-.2v2.6l1,.2-.5.9h1s1-1.7,1-1.7v1.7l1.4-.5,1.9,1-1.2,1.2-.7-1.2v2.6l-2.6,1.9-3.1-.3-1.2,2.1,1.7-.5.7,3.6,1.2-.9,1.9.5.7,4.3,3.6,3.1,1.2,3.3,2.9,1.2-.7,4.5,1.2,1h0l-1.3.6-2.6-1-3.7,1.9-5.4-2.2-7.3,1.7-8-1.6-15.2,6.1-2.8-1.9h-5c0-.1.9-2.1.9-2.1l1.1-.4v.8-.6c-.1,0-1,.3-1,.3l-.4,1.3.7.3.6-1.2,1.5,1,.6-.7,1.5.5,2.9-1.2-2.2-1.3h-1.9l-2.3-2.9-3.3-1.2-1.1-1.6h0l.7-.7,5.3-.2,5.5-1.6,1.4-3.3-.7-3.3.2-3.6,2.6-3.5v-1.9l-1-1.8h0l.3-2.8.9-1.3,2.6-.6,4.4-2.6,4.3-.8,3.8-4.6Z"/>
    <path id="DO-18" d="M142.6,83.6l3.1.2,6,3.5,1.7-1.5,3.7,1.8,2.5-.2h1.5s1.6.5,1.6.5l1.9-.9,1.3.4.5,2.3,1.5,1h1.7s4.4,5.7,4.4,5.7l-.9,1.3.4.6,1.3-1,3.4-.2,2.2,1.6v.8s2.5.8,2.5.8l1.1,1.2-.5.4.5.7,1.4-.7,4.3,2.7,1.3,1.7h1.5l1,1.4,1.6-1,4.3,2.1,4.1-1.4,1.3,1.4h3.3l.7-.2-.3-1.1,1.2-2.3,3.6-.7,4.8.4,4.7,4.3h1.7s3.7,5.2,3.7,5.2h0l-1.4,3.3.9,3.4-3.3.9.9,1.4-.9.2-1-1.2-.2,1.2-.9-1-.7,1.2h-1s-1.4-1.9-1.4-1.9l-1,.7-2.2-.3-.2,1.7-.5-.7h-1.7s-.7.7-.7.7l-1.9-1-1.2,1.2.2,1.2-1.4.5.5,2.2-1,1.7.7,3.1-2.2,2.6-.5,5.5-1.4,1.2h0l-6.4-2.9-5.3-1-1-2.6,1.4-5-.5-2.2-9.8-5.1-.5,1.2,1.2,5-.5,1.4-1,1.2-3.6,1.4-1.2-.5-1-2.2-2.1-.3-5.3-4.8-1,.9-6-2.2h0l-5.3-.3-2.1-1.4-1,.5-2.1-2.2-.2-1.2-3.8-1.7-2.9-2.9-5,.7-2.9-1.2-1-2.9-6.2-1.2-3.6-1.7h0l-10.3-4.4-1-4.3.5-2.2-1-1.1h0l1.2-.7.6-2.5-.4-1.5,2.9,2.2,1.7.4,1.1-1.4,5,.8,1.1-1,4.4-1.3,1.4-1.3-.2-2.4,2.3-1.5.4-1.1,6.5-2Z"/>
    <path id="DO-19" d="M215.4,170.1l2.6-10,1.7-3.6v-1.7l-1.9-2.9v-1.9l1.2-1.9-.2-3.4,3.1-7.1,2.9,2.4,2.6.5.7,3.4,2.1,1.4,1.2-.5,2.2-5.5,1.4-.5,1.2-1.7,4.3-.9,2.4,1.2v3.4l3.3,3.8h0l1.2,1.2-.2,1.9-4.3,1.9-.7,1.4.5,1.2,1.9.7v.7l-6.4,2.8-3.8,2.8-2.2,8.3.2,1.7-1.2,2.6v2.4l-3.1,4,1.2,4.8h0l-6.9.4-1.7-2.2-2.1-5.3-1.9-1.7-1.2-4.5Z"/>
    <path id="DO-20" d="M380.1,163.7l1.1.9,1.3-.4.3.9-4.8,7-.2,1.9,3,.7,1.6-.2,1.5-1.5,2.4.6,2.4-1.6,2.6.7v2.1c-.1,0-1.6,2.8-1.6,2.8l-6.2,4.5-1.6,7-1.5.5-6.2-.7-2.1-1.5-.6.7-1.4-1-.7.5-2.4-1.3-1.2,1.4-8.2-.3-.6,1.6-1.1-1.2-2.2.4-1.3-1.4-4-1.1h-3.3c0,.1-1-.8-1-.8l-1.1.7-1.7-.8-3.9.3-8.7-1.9-1,.7v5.7c.1,0-1.7,6.2-1.7,6.2l1.1,4.4-.7.8,1.1,1.9,1.9.4h0l-3.1,10.2h0l-1.2-1.4-5.7-2.2-4.3-4.8-4.5-2.6h0l.7-.7h3.1s-1-2.8-1-2.8l-1.4-1.7v-1.4h1.4s2.1-1.4,2.1-1.4v-1.4l1.2-.2.5-.9,1.4.5.2-.9h1s.7-2.9.7-2.9l1.2-1.4h1s.2-.9.2-.9h-4.1s-1.2-1.5-1.2-1.5l-2.1.5-6.7-1.2-2.4,3.1h0l-.2-1.2-1.9-1.2.2-1.9,1.7.5,1-1.7-1.7-4.3,1-.2,1.9,1.2.2-.7-1.2-1.4,3.1.7-2.1-1.9-.2-1.9h0l4.2,2.3,4.3.8,5.2-1.2,2.2-1.4,8.7-.6,1.8-1v-1.4c0,0,1.6.2,1.6.2v-.9l1,.3,1.3-1.2,1.1.7,1.4-.7,5.4.6,3.3-.7,1.7,1,1.4-.7,1.7,1.7,1.9-1.2,2.8,2,1.6-.4,1.1,1.1h2.3s.8,1.7.8,1.7l2.5,1.1,1.1-3.4,4.4-3.2,3-.5-.2-.8,1-.9,1.3.6,1.6-3h.7Z"/>
    <path id="DO-21" d="M244.3,242.7l4.8,5.7,3.1.5,3.3,3.6h0l-1.2,1.4v1.4l2.1,3.1.5,4.8,2.4,3.6-.2.9-1.2-1-1,.2-.5,3.8,1.2,1,1.7,4.5,1,.2.9,5,.5.9,1.4.2,1.9-.2v-.9l.7-.2,2.4,2.6,1.2,3.1-2.4.9.2.7h1.9s-.2,2.6-.2,2.6l1.7-1.9h1.2s1,1.4,1,1.4l1.2.2,1.9-2.1-.2,2.6.7-.2.2,1.4,1,.7-.7,2.1h0l-1.1,1-.6-.4.2.9-2.7,4.3-2.1,1.8-4.2,8.2-3.2,1.9-.3,1.5-3.1,3.2-2.1,4.2-1,.6-1.4-1.1-1.5.6h0l-1.2-1,.7-4.5-2.9-1.2-1.2-3.3-3.6-3.1-.7-4.3-1.9-.5-1.2.9-.7-3.6-1.7.5,1.2-2.1,3.1.3,2.6-1.9v-2.6s.7,1.2.7,1.2l1.2-1.2-1.9-1-1.4.5v-1.7l-1,1.7h-1s.5-.9.5-.9l-1-.2v-2.6l-3.1.2-.5-2.8-1.7-.5v-.9l-1.9-1-.3-1.1-1.8-1h-3c0-.1-.8-2.6-.8-2.6l-2.4-2.7,2-7.7v-3.5l-1.7-2.7v-2.1c.1,0,2-3.2,2-3.2l.2-3.2,1.6-2.8h0l2.2,1.6,2.2-1.2,2.6-3.6-.7-3.8,2.9-2.6,4.1-1.9Z"/>
    <path id="DO-31" d="M206.5,244.6l2.9,1,1.9,2.6,3.1,1.2,2.4,2.4,7.6-1.6,6.6,3.9h0l-1.6,2.8-.2,3.2-1.8,3.2v2.1c-.1,0,1.5,2.7,1.5,2.7v3.5l-2,7.7,2.4,2.7.8,2.4h0l-3.8,4.6-4.3.8-4.4,2.6-2.6.6-.9,1.3-.3,2.8h0l-2.3-1.6.2-1.7-1.2-1.9v-1.4l-1.2-.7v-1.4s.7-.5.7-.5l-.7-1.2-3.3-.5-1.9-2.6-4.5-1.2-.7-1.7-3.1.5-2.1-4.8-5.5-3.8-.5-.9,1.7-2.6-.2-4-1.4-2.4-3.3-2.4h0l6.9-1.1,3.1,1,3.6-.5v-2.9l2.6-1.9h2.6s-.2-2.1-.2-2.1l1-1.7,2.6-1.4-.7-3.3.7-1.7Z"/>
    <path id="DO-22" d="M100.6,188l1.9,2.6,3.8-.7,3.3,1.2,1.9-.7,1.9.5h0l2.4,1.9,3.6.5,4.1,1.7,1.4,2.2,2.4,1.2.5,5.2,3.6,2.9,6,1.9,1.4,3.3,2.1.5,4.3-3.3,1.9.7,2.2-.7,6.2,2.2h0l1.4,1,1.9,4.3h0l.2,2.4-.7.9-4.1.7,1.2,2.9-1,1.4-3.3.7-.9,1.7-2.6.9.2,2.6-1.4,2.8-1.4.9,2.6,6.9v1.7l-4.1,7.3h-1l-1.7-4.3-1-.7h-1.7s-2.1,2.1-2.1,2.1l.2,3.8,1.4,2.9-2.2,1.2v1.2l1.4,1.4.2,1.7-2.6,1.6h-2.4c0,0-1.6,4-1.6,4h-1.4l-3.2,3.4h-3.4c0,.1-.7-1.9-.7-1.9l-3.1-1-8.6,3-8.1-.8-1.7,1.9h-1.2s-2.6,1.9-2.6,1.9l-4.8-1-.2-1.4-1.7-.5-1.9.9-.7-1.4-3.6-1.9-4.8.4-2.6-.7-3.6-2.4h0l1.9-4.7-1-3.3-5-1.2-2.1-3.6,1.7-2.8-.2-1.2-1.9-1.7-2.9-1-.9-2.1-1.9-1.2,2.1-3.3-.7-2.6.2-5-2.4,1.2.2-2.9,2.1-3.6.2-2.4-1-.2-.5-1.2,6.4-7.3,5.7,1,1.9-.7.2-3.1,3.6-7.4-.2-2.9,2.4-3.6,1.4-.5,4.5.7,2.4,2.4h1.7s.2,1,.2,1h.9s1.9-1.7,1.9-1.7h2.9s1.7-.9,1.7-.9l.7-.9-.5-1.7.7-6.4,1-.9Z"/>
    <path id="DO-23" d="M350,242.6l-1,4.5.5,1.2,2.1,1,1.4,4.1v3.8s.9,1.4.9,1.4l-1.7,2.1.2.9,1.4.7,2.1,3.6,1.2,4,2.1,1.4,1.9,6.2,2.6,4.3,1-2.1,4.3-3.3.2-1.4h1.4s-.5-3.3-.5-3.3l1.2-3.8,3.1-.2,2.6-2.4h0l1.9.7.7,1.7,2.9-.7,2.1.7,3.8,2.6,1.2,2.9,3.6,1.9,2.9-1.2h3.8s.5,1,.5,1l-1.2.5-.7,5.7h0l-.7,2.1-2.1,2.1-1,3.1,3.8,5.5,1.2,6h0l-13.3-3.8-1.9-1.5.7-.3-.6-2-1.4-.8-3.5,1.4h-4.4c0,0-3.8,1.3-3.8,1.3l-2.1-.9.2-.9-.6-.2-.8.5.6,1.1-1.9,1.5h-11.8c0-.1-11.9,2.9-11.9,2.9h-2.7s0-6.2,0-6.2l1.2-.5.2-2.4-6.2-.5-4.1-2.4-1.2-3.1-1.7-1,1.9-1.7,3.3-6.6-1.2-2.1,1-3.8-1.7.7-.5-1.4,2.6-3.2h0l3.3-5,2.4-7.8,4.5-6.9,3.1-3.5,1.9.7.2,1Z"/>
    <path id="DO-24" d="M240.2,194.3l-.5-1,.7-.5,3.8-.2.5,1.2,1.4-.5.7,1.2,2.4.7.7-1.7.7,1,2.6-2.4,1,.2-.5,1.7,2.6-.5v1.7l1.2-2.1,1.4-.5h0v1.9h0l.7.2,1.4-1.7,1.7.2.7,1,2.4-1.2.7,1.4h1.7s2.4,2.2,2.4,2.2l5.5,1.5,1.7,1.2,2.4-1.7h1.2s4.5,2.9,4.5,2.9l4.1,1-1.7,7.6h0l-2.4,4.8.5,2.1,1,.7-.2,3.6-2.2,5.2-3.6,5-2.4-.3-5.3-3.4-2.1,3.3-2.6-.3-1-1.4h-1s-2.6,1.6-2.6,1.6h-2.6s-1.9,3.3-1.9,3.3l-9.1-.5-3,2h0l-.6-2.5-1.9-2.8-11.9-9.9-.5-2.9-4.8-1.7.2-5.7-2.6-2.9-.5-2.1h0l1.9-3.6,2.9-.9,2.1-2.8,4.5.3,1.4-.7.7-2.1,1.7.5.2-.7-.7-.2Z"/>
    <path id="DO-25" d="M162.4,124.6l6,2.2,1-.9,5.3,4.8,2.1.3,1,2.2,1.2.5,3.6-1.4,1-1.2.5-1.4-1.2-5,.5-1.2,9.8,5.1.5,2.2-1.4,5,1,2.6,5.3,1,6.4,2.9h0v2.9l-5,3.3.2,3.6-1.7,3.8,1.7,6-2.6-.7-1.4,2.1h-2.4s-2.6,1.6-2.6,1.6l-4.3,1.2-1,2.4-3.3-.3-2.2.9-.5.9h-1.9s.5,1.9.5,1.9l1.4.7v.7h-1.9s.5.7.5.7l9.3,4.1-.7,1.2.7,1.4-.7.9.5,1.4-1,1.7.9.7-.2,1.7,1,.7-1,1.2-1.2.5-2.6-1-1.4-2.2-1.9,3.1-.5,3.1-5.3,3.1-4.8.7-1.7,3.6-2.1.5-1.9,1.4-2.1-.2-2.6,3.1-3.3-.3-.2,1.4,1.2,3.3-1,2.1h0l-6.2-2.2-2.2.7-1.9-.7-4.3,3.3-2.1-.5-1.4-3.3-6-1.9-3.6-2.9-.5-5.2-2.4-1.2-1.4-2.2-4.1-1.7-3.6-.5-2.4-1.9h0l1-7.4-1.2-2.6-1.7-.5-1-2.2.5-.9,1.4-.2-.5-3.1.7-2.9-1.4-2.4,1.2-.2.7-1.9,1.7.7-.2-3.1,3.3-2.6,3.8-.9,1,1.9h1.7s.2-1.7.2-1.7l1.9-.2v-.7l1.9.2,1-2.6,1.9-.9,2.4.2,1.2-1.4-2.1-.7.5-1.7-1.4-1.7,1.4-.5,1-1.9h0l7.4,3.9,4.5-.2,2.1-2.6,1.4,1.9,3.3,1,1.9-.9,5,.3,1.4-1.9-3.1-1.5-1.4-2.2,1.9-7.4-2.6-.7-.5-1.2-.7.5-1.7-1.4.5-1.7-1.2-1.2v-1.7l6,3.4,3.1-5.5.7-5.3Z"/>
    <path id="DO-26" d="M89.1,138.3l.7-.2-.2-1.9,1.2-.2-.2,1.2,3.1,2.4v1.2l1.2-1.2,3.3.7,4.3-2.8,1.4.2,1.7-1.7,2.9,2.9h2.9l1.9,1.7,1.4-.2,1.2-2.4,3.8,1.5h0v2.9l1,1,.7,3.4,4.3.7,3.1,1.9,5.5-.2h0l-1,1.9-1.4.5,1.4,1.7-.5,1.7,2.1.7-1.2,1.4-2.4-.2-1.9.9-1,2.6-1.9-.2v.7l-1.9.2-.2,1.7h-1.7s-1-1.9-1-1.9l-3.8.9-3.3,2.6.2,3.1-1.7-.7-.7,1.9-1.2.2,1.4,2.4-.7,2.9.5,3.1-1.4.2-.5.9,1,2.2,1.7.5,1.2,2.6-1,7.4h0l-1.9-.5-1.9.7-3.3-1.2-3.8.7-1.9-2.6h0l-7.6-4.3h-1.4s-5-3.9-5-3.9l-.2-2.9-1.7-2.4-5.5-1.7h0l-.5-1.2-2.6-1.9-.5-2.4,3.3.7,3.6-.7-.2-10.3,2.6-2.4-.7-8.8,1.4-2.9,3.6-3.8v-1Z"/>
    <path id="DO-32" d="M255.5,252.5l1.2-.7,1.4.2,5,8.1h6.2s3.1,2.9,3.1,2.9l2.4-1.4,4.3.5,1.4-1.9,1.7-.2.9-1.2-.2-2.6,5.5,2.2,3.6-1.6,3.3-.2,3.6,7.2,1.2-.7,1.4.5-.2,4,.5.7h2.4s1.2,2.6,1.2,2.6l-.2,2.1.7,1.9,4.3-3.1,1.2-3.8,2.9-2.1,1.4.5,2.8-.9,2.6.2,4.5-1.5,1-2h2.4l5.6,2h0l-2.6,3.2.5,1.4,1.7-.7-1,3.8,1.2,2.1-3.3,6.6-1.9,1.7,1.7,1,1.2,3.1,4.1,2.4,6.2.5-.2,2.4-1.2.5v6.1h0l-2.6-.7-6-5.2-3.7-.2-1.6,1.3.9,4.5-1.3.9-4.4-1.4-1.5-2.4-.3-2.6-2.3-1.1-11.4-1.6-12.6-.2h0l1-4.7-2-1.3-6.8,1.8-2.9-2.7-1.1-2.9-1.5-.6-1.1.8-.7,3.3-1.7.9,4.7,4.8v3.4c0,0-1.4,1.5-1.4,1.5v1.4h-.1l-1.7.7-1.9-.4h0l.7-2.1-1-.7-.2-1.4-.7.2.2-2.6-1.9,2.1-1.2-.2-1-1.4h-1.2s-1.7,1.9-1.7,1.9l.2-2.6h-1.9s-.2-.7-.2-.7l2.4-.9-1.2-3.1-2.4-2.6-.7.2v.9l-1.9.2-1.4-.2-.5-.9-.9-5-1-.2-1.7-4.5-1.2-1,.5-3.8,1-.2,1.2,1,.2-.9-2.4-3.6-.5-4.8-2.1-3.1v-1.4l1.2-1.4Z"/>
    <path id="DO-27" d="M126.4,109.1l3.6,1.7,6.2,1.2,1,2.9,2.9,1.2,5-.7,2.9,2.9,3.8,1.7.2,1.2,2.1,2.2,1-.5,2.1,1.4,5.3.3h0l-.7,5.3-3.1,5.5-6-3.4v1.7l1.2,1.2-.5,1.7,1.7,1.4.7-.5.5,1.2,2.6.7-1.9,7.4,1.4,2.2,3.1,1.5-1.4,1.9-5-.3-1.9.9-3.3-1-1.4-1.9-2.1,2.6-4.5.2-7.4-3.9h0l-5.5.2-3.1-1.9-4.3-.7-.7-3.4-1-1v-2.9h0l1.9-2.6.5-2.1-.2-3.1-1.7-3.8.5-1.4,2.2.5.7-.7,1,.7v-3.8l-1.2-3.8,3.1-10Z"/>
  </g>
</svg>