<?xml version="1.0" encoding="UTF-8"?>
<svg id="Layer_1" xmlns="http://www.w3.org/2000/svg" xmlns:amcharts="http://amcharts.com/ammap" version="1.1" viewBox="0 0 512 512">
  <!-- Generator: Adobe Illustrator 29.1.0, SVG Export Plug-In . SVG Version: 2.1.0 Build 142)  -->
  <g id="_x3C_defs">
    <amcharts:ammap bottomLatitude="13.740021" leftLongitude="-92.234204" projection="mercator" rightLongitude="-88.230725" topLatitude="17.815697"/>
  </g>
  <g>
    <path id="GT-QC" d="M224.8,318.3l3-8.2-26-7.6,12.2-15.7-6.6-15.4-18.9-11.5,9.9-14.1-3.6-12.2,14.9-9.1,19,4.1,2.4-8.2-63.1,1.1-24.8,49.6-11,5.9-2.8,12.5,16.8,13.8.6,11.3-15.7,3.5,15.3,42.1,11,10.1,12.7-13.4,36.9,4.1-24.7-29.2.7-13,33.6,5.6,8.1-6.2Z"/>
    <path id="GT-ZA" d="M381.3,341.1l-7.3-27.1-45.6,14.1-31.4,2.4,13.1,27-8,6.9,11.3,11.5,7.6-14.5,55.5-1.4,4.9-18.9Z"/>
    <path id="GT-JU" d="M272.2,501l-2.2-11.8,10.3-12.9,21.6-14.5,10.2,2.6,6.7-15.7,19.1-7.4-7.6-18.4,10.9-4.4-2-12-19.9-6.4-23,16.8-19.2.4-16.1,21.5,15.3,9.9-.2,11.9-11.2,11-15.6-3.9,5.9,26.3,17,7.1Z"/>
    <path id="GT-JA" d="M302.1,364.4l-43.3,24.1-8.8,19.1,18.1-.6,8.8,10.2,19.2-.4,23-16.8,2.1-21.7-8-2.4-11.3-11.5Z"/>
    <path id="GT-CQ" d="M376.5,360l-55.5,1.4-7.6,14.5,8,2.4-2.1,21.7,19.9,6.4,2,12,15.5.9,13.4-18.8,9.8-1,1.8-15.1-10.1-16.7,5-7.7Z"/>
    <path id="GT-IZ" d="M381.3,341.1l20-8.3,86.8-70-44.4-29.3,13.5,14.7-7.9-.7-6,18.1-20.5-18.8-51.8-5.7-18.5,5.4-30.6,36,8.4,9.5-6.8,21,4.8,15,45.6-14.1,7.3,27.1Z"/>
    <path id="GT-SR" d="M277,417.2l-8.8-10.2-18.1.6-11.9,2.1-6.4,20-14,8.6-2.6,5.2,8.2,1.2-12.8,17.4v16.1s44.6,15.7,44.6,15.7l-5.9-26.3,15.6,3.9,11.2-11,.2-11.9-15.3-9.9,16.1-21.5Z"/>
    <path id="GT-PR" d="M302.1,364.4l8-6.9-13.1-27-11,.4-38.1,31.9-11.1-1.1,7,17.7,15,9.1,43.3-24.1Z"/>
    <path id="GT-TO" d="M131.2,318.2l-23.5,12.8-8.1,7.7,18.5,32.7,28.3-11.1-15.3-42.1Z"/>
    <path id="GT-SO" d="M157.5,370.4l-11-10.1-28.3,11.1-4.8,9.3.9,14.7,10.6-5,29.5,15.2,3.1-35.3Z"/>
    <path id="GT-SA" d="M207.9,413l3.7-21-17-15.8-14.5,34.4,8.1,10.1,19.6-7.6Z"/>
    <path id="GT-SU" d="M154.4,405.7l-29.5-15.2-10.6,5-.9-14.7-4.7,3.2-11.3,21-5.8,50,15,8.3,13.2-36.7,28,9.9,6.9-18.9-.3-11.9Z"/>
    <path id="GT-GU" d="M236.8,361.7l-29.7-.6-12.4,15,17,15.8-3.7,21,9.9,25.3,14-8.6,6.4-20,11.9-2.1,8.8-19.1-15-9.1-7-17.7Z"/>
    <path id="GT-ES" d="M207.9,413l-19.6,7.6-8.1-10.1-10.1,12.7-15.3-5.7-6.9,18.9-28-9.9-13.2,36.7,41.8,14.3,62.1.7v-16.1s12.9-17.4,12.9-17.4l-8.2-1.2,2.6-5.2-9.9-25.3Z"/>
    <path id="GT-CM" d="M207.1,361.1l-36.9-4.1-12.7,13.4-3.1,35.3.3,11.9,15.3,5.7,10.1-12.7,14.5-34.4,12.4-15Z"/>
    <path id="GT-AV" d="M352.6,246.6l-52.6-6-13.7-12.3-55-7.9h0c0,0-2.4,8.3-2.4,8.3l-19-4.1-14.9,9.1,3.6,12.2-9.9,14.1,18.9,11.5,6.6,15.4-12.2,15.7,26,7.6-3,8.2,22.3,6.6,7.1-10.6,34.6.9-2.8,15.7,11-.4,31.4-2.4-4.8-15,6.8-21-8.4-9.5,30.6-36Z"/>
    <path id="GT-SM" d="M96.5,323.3l-11.5-15.5-37.9,8.4-7.1-20.9-12.2,21.8,15.9,23.7-9.3,9.3-.8,37.3-9.9,16.4,9.7,7,16.8-5.2-14-12.5,35.3-12.2,24.9-57.6Z"/>
    <path id="GT-RE" d="M108.7,383.9l-18.8,6-2.4-9.2-18.6,25.8-18.6-.9-16.8,5.2,58.1,44,5.8-50,11.3-21Z"/>
    <path id="GT-QZ" d="M107.8,331l-11.2-7.8-24.9,57.6-35.3,12.2,14,12.5,18.6.9,18.6-25.8,2.4,9.2,18.8-6,4.7-3.2,4.8-9.3-18.5-32.7,8.1-7.7Z"/>
    <path id="GT-PE" d="M172,11l-3.4,68.2-51.5-.2,18.3,8.9,25.9,32.8,36.9,19.5,11.8,31.7,27.5,7.7-6.1,40.8,55,7.9,13.7,12.3,52.6,6,18.5-5.4,8.7-230-207.8-.2Z"/>
    <path id="GT-HU" d="M131.2,318.2l15.7-3.5-.6-11.3-16.8-13.8,2.8-12.5,11-5.9,24.8-49.6-85.9,1.1-42.2,72.7,7.1,20.9,37.9-8.4,11.5,15.5,11.2,7.8,23.5-12.8Z"/>
    <path id="GT-BV" d="M286.1,330.9l2.8-15.7-34.6-.9-7.1,10.6-22.3-6.6-8.1,6.2-33.6-5.6-.7,13,24.7,29.2,29.7.6,11.1,1.1,38.1-31.9Z"/>
  </g>
</svg>