<svg xmlns="http://www.w3.org/2000/svg" xmlns:amcharts="http://amcharts.com/ammap" id="Layer_1" viewBox="0 0 512 512"><g id="_x3C_defs"><amcharts:ammap bottomLatitude="18.021" leftLongitude="-74.481" projection="mercator" rightLongitude="-71.622" topLatitude="20.09"/></g><g><path id="HT-SE" d="m366.9 379.5-102.5 10.1-2.6 18.7.8 7.3 163-10.4 51.4 36.3 9.6-46.7-119.7-15.4Z"/><path id="HT-OU" d="m295.2 320.3-4.5-23.2-78.3-20.1 82.8 43.4Zm49.6-47.8-29.6 3 65.4 48-4.1 28.1-122.2 13.2 10.1 24.9 102.5-10.1L486.6 395l-50.3-55.9 38-15-99.8-34.3-29.7-17.2Z"/><path id="HT-ND" d="m429.7 133.8-90-30.3-19.2 12.8 33.6 48.7 27-4.1 22.1 48.6 38.5-6.2-23-42.5 10.9-27Z"/><path id="HT-NE" d="m480.3 134.2-50.6-.4-10.9 27 23 42.5 24.6 10.8 15.3-.5-1.4-79.5Z"/><path id="HT-CE" d="m466.3 214.1-24.6-10.8-38.5 6.2-8.2 78.2-20.5 1.9 99.8 34.3 11.1-33.7-23.9-18.5 39.4-45.6-19.2-12.5-15.3.5Z"/><path id="HT-AR" d="M320.5 116.3 243 149.1l73.4 33.8-18.1 39.5 16.7 20.9-19.4 7.4 19.5 24.7 29.6-3 29.7 17.2 20.5-1.9 8.2-78.2-22.1-48.6-27 4.1-33.6-48.7Z"/><path id="HT-SD" d="m143.1 429.2 4.7 8 15.5-.7zM112 444l39.5-42.6 111.1 14.2-.8-7.3-18-24.6-81.1-10.6-35.2-2.2-116.4 11.7L112 443.9Z"/><path id="HT-NO" d="m303 90.9-68.1 1.2-52.4 39.4 60.5 17.7 77.5-32.8 19.2-12.8L303 91Zm2.3-22.9-34.4 1.1 56 14.1-21.5-15.3Z"/><path id="HT-NI" d="m254.2 364.7-119-15.7-7.8 21.9 35.2 2.2 81.1 10.6 18 24.6 2.6-18.7z"/><path id="HT-GA" d="m139.6 338.5-14.3-5 4.7 7.4zm-77.5-10.6-45 7.7-5.9 47.1L127.6 371l7.8-21.9-73.2-21.2Z"/></g></svg>