<?xml version="1.0" encoding="UTF-8"?>
<svg id="Layer_1" xmlns="http://www.w3.org/2000/svg" xmlns:amcharts="http://amcharts.com/ammap" version="1.1" viewBox="0 0 512 512">
  <!-- Generator: Adobe Illustrator 29.1.0, SVG Export Plug-In . SVG Version: 2.1.0 Build 142)  -->
  <g id="_x3C_defs">
    <amcharts:ammap bottomLatitude="18.020528" leftLongitude="-74.480910" projection="mercator" rightLongitude="-71.621754" topLatitude="20.089566"/>
  </g>
  <g>
    <path id="HT-SE" d="M366.9,379.5l-102.5,10.1-2.6,18.7.8,7.3,163-10.4,51.4,36.3,9.6-46.7-119.7-15.4Z"/>
    <path id="HT-OU" d="M295.2,320.3l-4.5-23.2-78.3-20.1,82.8,43.4ZM344.8,272.5l-29.6,3,65.4,48-4.1,28.1-122.2,13.2,10.1,24.9,102.5-10.1,119.7,15.4-50.3-55.9,38-15-99.8-34.3-29.7-17.2Z"/>
    <path id="HT-ND" d="M429.7,133.8l-90-30.3-19.2,12.8,33.6,48.7,27-4.1,22.1,48.6,38.5-6.2-23-42.5,10.9-27Z"/>
    <path id="HT-NE" d="M480.3,134.2l-50.6-.4-10.9,27,23,42.5,24.6,10.8,15.3-.5-1.4-79.5Z"/>
    <path id="HT-CE" d="M466.3,214.1l-24.6-10.8-38.5,6.2-8.2,78.2-20.5,1.9,99.8,34.3,11.1-33.7-23.9-18.5,39.4-45.6-19.2-12.5-15.3.5Z"/>
    <path id="HT-AR" d="M320.5,116.3l-77.5,32.8,73.4,33.8-18.1,39.5,16.7,20.9-19.4,7.4,19.5,24.7,29.6-3,29.7,17.2,20.5-1.9,8.2-78.2-22.1-48.6-27,4.1-33.6-48.7Z"/>
    <path id="HT-SD" d="M143.1,429.2l4.7,8,15.5-.7-20.2-7.3ZM112,444l39.5-42.6,111.1,14.2-.8-7.3-18-24.6-81.1-10.6-35.2-2.2-116.4,11.7,100.9,61.3Z"/>
    <path id="HT-NO" d="M303,90.9l-68.1,1.2-52.4,39.4,60.5,17.7,77.5-32.8,19.2-12.8-36.7-12.6ZM305.3,68l-34.4,1.1,56,14.1-21.5-15.3Z"/>
    <path id="HT-NI" d="M254.2,364.7l-119-15.7-7.8,21.9,35.2,2.2,81.1,10.6,18,24.6,2.6-18.7-10.1-24.9Z"/>
    <path id="HT-GA" d="M139.6,338.5l-14.3-5,4.7,7.4,9.6-2.4ZM62.1,327.9l-45,7.7-5.9,47.1,116.4-11.7,7.8-21.9-73.2-21.2Z"/>
  </g>
</svg>