<?xml version="1.0" encoding="UTF-8"?>
<svg id="Layer_1" xmlns="http://www.w3.org/2000/svg" xmlns:amcharts="http://amcharts.com/ammap" version="1.1" viewBox="0 0 512 512">
  <!-- Generator: Adobe Illustrator 29.1.0, SVG Export Plug-In . SVG Version: 2.1.0 Build 142)  -->
  <g id="_x3C_defs">
    <amcharts:ammap bottomLatitude="12.984061" leftLongitude="-89.350244" projection="mercator" rightLongitude="-83.126949" topLatitude="16.517355"/>
  </g>
  <g>
    <path id="HN-AT" d="M146.6,159.2l-2.2,1.7.9,2.5,5.5,5.5,2.4,1.5,3,1,3.1-.6,1-2.1,3-.4,1.4-2.4,12.7,3.8,13.4,2.2h3.1s3.9,1.3,3.9,1.3l4.5.5,1.9-.7,4.2-.3,4.2-2.6.2.8.7-.7,3.7.9h3.6c0,0,3.2-.7,3.2-.7l8.9-.8,1.1-.6h0l.9,1.3,2.6,1.6-.7.7.7,3.6,2.5.9.9,1,.2,2.2,1.9.2.5.5v5.6s-4,1.2-4,1.2l-.9,1h0l-3.9-1.3-3.9,1-1-.9-3.2.5-5.3-1.4-10.1,4.8-2.9-.5-.7-.6-1.5,1.1-1.9-.5-.2-1.4h-.5c0-.1-3.1.9-3.1.9l-.9-.4-1.6,1.2h-3.7s-1-.7-1-.7l-2,2.3-2.7,1.6-.5,1.9-2,1.2h-1.4c0,0-1.2,1.4-1.2,1.4h-3.5c0-.1-2.1,3.1-2.1,3.1l-1.1-.5-2,.3-2.4-1.1h-1.9c0,0-1.3-1-1.3-1l-1.8.6-.8-1-1.4-.4-2.8,1.5-.8-1.3-.6.3v-.6s-1.7-.8-1.7-.8v-1.2c-.1,0-1.1-.6-1.1-.6l.5-.5-.6-.7.4-2.7h-1.1c0-.1-.8-1.2-.8-1.2l-4.2,2.5-1-.7-3.8,1.2h-4c0,0-1.2-2-1.2-2l-1.9-1.4-.6-1.5-.7-6.7-1-.7-.2-1-1.8-.3-1.4-1-.8-1.3-2-.3v-1.5h-.1v-.8c0,0,1.5-.5,1.5-.5l-1.4-3-1,1.1.4-1.2-.7-1.1h-.9s.4-1.9.4-1.9l1.1.3-.2-1.6,1.1.4v-1.8c-.1,0,.3-.4.3-.4l-.5-1,1.8-2.1.8.3.7-.5.7-3h0l1.4.2,4.6,2.3.7-.4-.4,1.1,1,.6.5-.3-.4-2.4,3-1.8Z"/>
    <path id="HN-CH" d="M157.5,372.4l1.3.7.3,1.4-1.1,1.5-.4,1.4h-.6s-.5-2.4-.5-2.4l.7-.8.2-1.7ZM157.8,345.4l-.5-1.2,1.2-3.7-.5-2,1.4-.6,3.2.9,1.6-.3-1,1.9v1.4s.5,0,.5,0l.7,1.5,1.3.4.2,1.1,3.8-.4,2.5.9,2.3-.7,3.4,1.6h0l-.9,4.2h1.9c0,.1,1.2,1.9,1.2,1.9v2.4c0,0,1.3,1.2,1.3,1.2l4.7-.5-.3,1.7.6,1.6,1.8,1,.2-.7,1.1.7,1.3-1.5,2-.3v-1.2c0,0,1.4-1,1.4-1l.3-1.9,1.1-.8h1.3s2.7-2.6,2.7-2.6l.8-1.5v-2.1c0,0,.6.9.6.9l2.8-.5.3.7,2.7-1.3.9-1.2h1.6c0,0,1.1.5,1.1.5l1.2-2.4.4.5,1.4-.4h0l-1.1,3,2.7,1.7-1.4,5.2,1.4.9.4,1,.7,5.9,1.2,3.6-1.7,3.4.5,1.1,2.1.9.5,5.7-2.9,2.4-1.3.3-5.1-3.2h-.8c0,0-2.9,1-2.9,1l-1,1.6-2.5,1.5-.3,2.8-1.4,3.2.9,3-1.2,2,1.2,2.6-2.7,2.5-.6,2.3-4.2,2.3-.8-.3-.8,1.6-1.4.2-1.4-1h-1.5c0-.1-18,.8-18,.8l-.5-.8,1.4-1.7,1.7-.7-2.9.5-2.7-1.8-1.9-3,3.1-1.6-1.9.6-.2-.6-2.7-1.1-3,.3-.2-4.1-2.2-4.9.7-.9h.8c0,0,0-.5,0-.5l-1.2.3-1.6-2-2.4-1.3-.7.2v-.6c0,0,1-1.9,1-1.9l1.3-.5,1.1,2.3h1.1c0-.1,1.5-3.1,1.5-3.1l1,.5.4-.5-.5.2-1.1-.7-.3-1.5-.8-.3v-1.1l2.6.3,1.2-1.4h1.7c0,.1.5-1.6.5-1.6h0l.4-.9,1.8-.4,1.1-2.9-2.1-3.1.5-3.4-3.2-2-1.3-3.5-1-.4,1.3-3.7-3.3-1.9-.5-1.1Z"/>
    <path id="HN-CL" d="M275.5,150.9l10.2,1.6,7.1,1.8,2,.6,1.6,1.5,1.1-.6,2.1.9.4,1.1.6-.4,5.4,3.4,10.1,4h2.8c0,0,4.4-1.4,4.4-1.4l6.4.2,7.2-1,4.5-1.7,4.5-3.8,4.3-2.3,1.7-.3,4.1.6h0v76h0l-8.1-9.3-11-2.7-11.4-15.7-11.3-4.1-6.7-6.4-8.8-4.4-2,1.3-1-.2-1.4-1.4-1.8.7v1.7s-2,.7-2,.7l-1.8,2.3-2.2-.5-.4-.6h-1.6c0,.1-.6.8-.6.8l.4,1.6-3.3,3.3-1.3.2-1.4,1.6-.3,1.3-3.4,1.9-1-.2-.6,1-1,.2-.8-.9-2.9-.3-.3,1-.9-.4-1.9,1.4-2,.4-1.3-.3-5.3-3.3h0v-2.5c0,0-.7-.9-.7-.9l1-.9-.4-1,.6-2.3-.9-1.8.7-.5h-1.8c0,.1-.1.9-.1.9l-2.3-1.5-3.4-.7-5.9,1-3-2.5-1.8-.5h0l.9-1,4-1.1v-5.6s-.5-.5-.5-.5l-1.9-.2-.2-2.2-.9-1-2.5-.9-.7-3.6.7-.7-2.6-1.6-.9-1.3h0l1.6-.2,6.3,3.1,1.5-.7,2.9.5,2.1-1.8,3.8-.9,5.1-4.8,1.7-.9,3.4-.6,2.9-1.3,4.6.6,6.2-.6,4-1.8,3.1-2.8,2.4,1.8,1.8-.5,1.3-2.2,1.3-.2-.2-.9-3.1-1.2h-1.7c0,0-1.1,1.1-1.1,1.1l.4.8-2.8,2.3.8-2.9-.7-1.9-1.5-.5-3.6.5-2.3-1.5,1.1-.5Z"/>
    <path id="HN-CM" d="M135.2,235.7h3.1c0,0,2.5-1,2.5-1l1.6.5,1-.4,1.2,1,.8-1.1,2-.3-.4-1h1.2l.8-1.1,1.6-.3,2.6,2.7v2.7c.1,0,.7,1,.7,1l1.5.5-.2.7h1s-.1,2-.1,2l.8.8-.5.7.6,1.6,1.8.4,1.8-.4,2.1-2.3,1.4-.3,1.2.9h2.4c0-.1,1.1,1.3,1.1,1.3l.8-1h1s1,1.5,1,1.5l3.6,1.6v.5h.1l-.6.6,1.1.8v1c-.1,0-2.7.2-2.7.2l-1.4,1.7-.2,1.1,1.3,2,.2,2.5-.6,2.4h-.9c0,.1-.2,1.6-.2,1.6l.4.6-1.9.6v.5c.1,0-1.1.9-1.1.9h-.9l.2,1.3-1.1-.4.3,1.8-.9,3.2h-1.7s-.6-.8-.6-.8h-3.2c0-.1-.1,3.6-.1,3.6l-4.8,4.4,1.3,3.8,1.1.2,1.9,1.6h1s0,1.5,0,1.5l-1.3.8,1.8.3.9,1.3-1.6,4.3-2.8.9-2.3,3.7.8,2,3.9,1.9-.9.5.3,1-3.4,1.1-1.2,2.7-5.1,3.4-3-.5-.8.4-2.2,2.6v1.9h0-2.7s-2.8,3.2-2.8,3.2l-.3-1.6.5-1.3-.8-1.8-1.3.8-1.8-3-3.6-.5v-1.3s1.2-.8,1.2-.8l-1.4-2.2-2.8-.8-.6-1.9,1.2-1v.5c0,0,2.8-1.2,2.8-1.2l.4.7,2.5-.2.5-.8,2.7-.4,1.4-1.2.9.6.4-.8.5.3.2-.4.4.5.9-.5-.2-.9.5.2.6-.6-.8-1.6.7-.7-.8-.3.2-2.1-1-1.7.2-.9-4.2,2.1-4-1.9h-2.1c0-.1-.5-1.6-.5-1.6l-3.4-.2-1.4-2.6h0l.7-.5-.3-1.2-3-3.8-1-.5-.2-2.6-3.1-1-1.5-5.6h-1.9s-.7-.9-.7-.9l-4.2-1.2-1.5.2-1.3-2h0l1.9-1.6-2.4-3,3-3.4,1.6-.7,2.6-2.7h1.1s6.8-4.9,6.8-4.9l3.1-2.7.9-1.5h1.2c0,0,1-1.1,1-1.1l.4.3.8-1.5,1.1.3.5-1.4,2.3-.7,1.2-2.1-.8-1.3.2-1.6Z"/>
    <path id="HN-CP" d="M53.5,212.1l4.4,4.7-.9,2.2,2.6,2,.9,2.1,2.5,1.2-1,.6-.4,2.6,1.6,1.6.6,2.1-1.5.6-1.5,1.6-.4,3.9-1.8,3.9,1.1,2.5,3.3-.7.5.3-.2.6h0l.5,1.6-.9,1.4.5,1.5h-.8c0,0,0,1.7,0,1.7l-1.4.9-.9,4,1.1.7.7,2.2-.4.7.9,1.2v.9s-2.3-.4-2.3-.4l-.8.9-3.4.4-4.6-1-.9,1.3,2,4.2,1.7.7,1.6,2.6-2,1.4-1.6,3.7h0l-2.9,1.4h-1.6c0-.1.6,2.6.6,2.6l-1.7.5-.6-1.2-3.3-.6-1.7-1.9.3-1.3-1.5-.5.5-.3.4-2.6-6-4.9-1.3-4.8-4.5-.2-1.3-.8-4.4,1.4h0l.6-1.5-2.7-1.5-.3-3.7-4.4-5.2-.3-2.1.3-1.8,2.5-1.3,2.2-3.6.7-3.1-2.3-1.7,2.1-5,15-5.9,11.3-9.8,5.2-2.8Z"/>
    <path id="HN-CR" d="M136.2,159.9l-.7,3-.7.5-.8-.3-1.8,2.1.5,1-.5.4v1.8c.1,0-.9-.4-.9-.4l.2,1.6-1.1-.3-.4,1.9h.9s.7,1.1.7,1.1l-.4,1.2,1-1.1,1.4,3-1.5.5v.8h0l-.7,1-1.5-1.2-.3,1.6-1.6.6-1,1.2,2.5-.4v.6l-1.4.3-.3,1.8.7.4,1-.9-.2,1.7.8.5,1.8-.2v1.7s.8.8.8.8v1.4s-1.5,0-1.5,0l.8,2.1-1.6-1-.8.2.5,1.6-1.3,1,.8,2.4-1.4-.8-.6.2.4,1-.7,1.3,1,.7-.3,1.3,1.3.6v1.2c.1,0-1,1.5-1,1.5l-.8-1.7-2.3.4,3.1,1.8.4,2.3h-1.5s-.7,2.4-.7,2.4l-2.4,2.1,1.1.6v.6c-.1,0-1.5-.7-1.5-.7l-.8,1.8h-1.7s.8,1.5.8,1.5h-1.3c0,0-.4.9-.4.9l1.3.5v1c-.1,0-1.8.2-1.8.2l-.3,1.8.2,1.4,1.1-.7v3.5s1.9.8,1.9.8l2.5-.2.5,1.1.9.3v1.1c0,0,2.1-.2,2.1-.2l.5.8.9-.5.5.7-.2.8,1.3.2.9-.6,2.9,2.5-.5.8.5,1.4-.9.8-.3,2.2,1.2,2.4-.5.5h0l-.2,1.6.8,1.3-1.2,2.1-2.3.7-.5,1.4-1.1-.3-.8,1.5-.4-.3-1,1h-1.2c0,0-.9,1.5-.9,1.5l-3.1,2.7-6.8,4.9h-1.1s-.9-2.3-.9-2.3l.7-4.3-.8-.7h-1.6c0-.1.5-.7.5-.7l-.7-.9v-.7c.1,0-.6.3-.6.3l.9-2-2.5.7,2.5-11.4-1.1-1.2-3.6-.9-2.9-3.3,3-3.6,1.4-3.2-3.2-.4-.8-2.6-1.1-1.3-.6-9-1.3-.5-1.4.5-1.7-1.1-.7-1.1-3-.9-1-2.6.5-4.6-15.9-4.6h0l6.4-5.1,2.1-2.6.9-1.5v-1.3c-.1,0,.8-.8.8-.8l.6.7,4.6-1.7.4-1.7-.5-.7,2-.2,4.8,3.2,3.1-.3,1.5-1.6v-.8h-.5c0-.1.7-1.3.7-1.3l1.1-.2.8-1.3,2.3-1.3v-1.5l3.9-.3,1.9-1.4,1.8-.3,2.3-2.4.5.4.9-.3,1-1.9-.6.4.2-.7h-1.2c0,0-1.4,1.5-1.4,1.5v.7c0,0-.4-.6-.4-.6l-2.1-.3.8-1.7h3.9s2.8-2.1,2.8-2.1l2.2-.2.8-.6,6.1.4.9-.3,1.2-1.9Z"/>
    <path id="HN-EP" d="M216.8,284.5l3.4,1,1.1.9.7-.9h1.5c0,.1,1.3,1.4,1.3,1.4l.5,1.6.9-.7,6,1.3,1.7,2.3,3,.3,1.3,1.5.6,2.1,7.9.3,6.5-4.4,3.4-.9,4.4-.3,2.8,6.6,5.9,1.6v-1.4c0,0,.7-.5.7-.5l2.5.6,3.4,7.1,3.2.8,1.8,2.8,1,.6h1.8l1.2-3.2,2.9-1.4,2.1,1.5,1.5.3,1.9-2.9,1.6,1,2.4-.5,3.5,1.2h.6s.7-1.4.7-1.4l1.4,1.9,1.4.6,1.4,2.4-.9,1.7.2,1,2.9,1.6.6,1.4h0l-.6,1.4-1,.2-1,1.4-2,1.2h-2.4c0-.1-.5,1.7-.5,1.7l-1.2,1-2.4-.8-1.7,1.5-2.1.9v3.7c.1,0-.5,2.6-.5,2.6l1.8,1.2.4,1-.4,1.2-1,.7-1.2-1-1.6.4-2.2-.3-2.1-2.8v-2.1c0,0-.5-.8-.5-.8l-2.9-.7-1.1,1.8-1.5-.7-2.2-2.5-5.4-4.2-.6-1.5.2-1.3,1.3-3-.3-1.3h-.7c0-.1-1.3.5-1.3.5l-4.7.4-4.7,2.6v1c-.1,0,1.2,1,1.2,1v.6c-.1,0-1.8,1.2-1.8,1.2l-2.4.6.2,2-2.9,2.3-2.4,3.6-1.9,1.3-.4,1.1-1.6.8v2.6c0,0-1.7,2.7-1.7,2.7l-2,1.6h-1.5c0,0-.9-.7-.9-.7l-1.4.9h-3.1s-1.5-2-1.5-2l-1.8,1-2,.2-1.4-.6-1.8-1.9h-1.7c0,0-1.3.9-1.3.9l-5.2.8-5.9-.7-2.1,1.1h-1.7c0,0-.4,2-.4,2l.5,2.4-.7,2.3h0l-1.4.4-.4-.4-1.2,2.4-1.1-.6h-1.6c0,0-.9,1.3-.9,1.3l-2.7,1.3-.3-.7-2.8.5-.5-.9v2.1c-.1,0-.9,1.5-.9,1.5l-2.7,2.5h-1.3s-1.1.9-1.1.9l-.3,1.9-1.3,1v1.2c0,0-2.1.3-2.1.3l-1.3,1.5-1.1-.7-.2.7-1.8-1-.6-1.6.3-1.7-4.7.5-1.3-1.2v-2.4c0,0-1.3-1.8-1.3-1.8h-1.9c0-.1.9-4.4.9-4.4h0l2.2-1.5,4.9,2.6-.6-1.5,1.3-2.2,1.2-.8-2.3-3.4v-3.7c0,0,.6-.1.6-.1v-.7s1.2.3,1.2.3l2.1,2.2,3.5.3,1.6-1.1,1.6-2.7.4-2.2-.4-1,.6-2.2-.8-2,1.3-1.9-.8-2.4.4-.3,2.9,1.3,2.7-3-.4-.9h.7s0-4.1,0-4.1l-2.8-1-.2-1.8-1.9-1.2-1.4-2.1,1.1-1.4,4.8,1,1.3-2.4-2.6-1.2.4-.9,1.9-1.3-.4-.8.5-.4v-1.5s2.8-2.3,2.8-2.3l1.5-2.6h1.1s-.2-3.2-.2-3.2l9.3-7.4Z"/>
    <path id="HN-FM" d="M175.6,246.9l1.2.5.5-1.1-.2-1.4-1.4-.3.3-1-.9-1.4,2.7-2.4v-3.2c-.1,0,.9-1.3.9-1.3l2.8-.3.3-.5h2.1c0,0,2.2,1.4,2.2,1.4l4.3-.8,3.3.7h0l2.1,3.3,2.4.6.3,1,2.3,1.1-.7.3-1.8,3.1.3,2.2,1.1.7.9,2.2-.2,2.4,1.5.8-.8,2.4,1.9,2,2,6.3,2.6,2.4h1.9s.6,1.4.6,1.4l2.2,1.4.7,1.6,1.3.8-.7,3.8.6,1.8,1,.3-.3,2.2,1.9,3.8-.2,1h0l-9.3,7.4.2,3.3h-1.1s-1.5,2.5-1.5,2.5l-2.8,2.3v1.5s-.5.4-.5.4l.4.8-1.9,1.3-.4.9,2.6,1.2-1.3,2.4-4.8-1-1.1,1.4,1.4,2.1,1.9,1.2.2,1.8,2.8,1v4.1s-.7,0-.7,0l.4.9-2.7,3-2.9-1.3-.4.3.8,2.4-1.3,1.9.8,2-.6,2.2.4,1-.4,2.2-1.6,2.7-1.6,1.1-3.5-.3-2.1-2.2-1.3-.3v.7s-.5.1-.5.1v3.7c0,0,2.3,3.4,2.3,3.4l-1.2.8-1.3,2.2.6,1.5-4.9-2.6-2.2,1.5h0l-3.4-1.6-2.3.7-2.5-.9-3.8.4-.2-1.1-1.3-.4-.7-1.5h-.6c0,0,0-1.3,0-1.3l1-1.9-1.5.3-3.2-.9-1.4.6.5,2-1.2,3.7.5,1.2h0l-4.8-1.8-2.3-2.2-3.2.3-3.7-2.2-1.7.3.4-6.9h0l2.1-3.3v-1.5c0,0,1-.8,1-.8l.7-5.3-.5-.7.4-.8-1-1.5-.8-7h0v-1.9s2.1-2.6,2.1-2.6l.8-.4,3,.5,5.1-3.4,1.2-2.7,3.4-1.1-.3-1,.9-.5-3.9-1.9-.8-2,2.3-3.7,2.8-.9,1.6-4.3-.9-1.3-1.8-.3,1.3-.8v-1.5s-1,0-1,0l-1.9-1.6-1.1-.2-1.3-3.8,4.8-4.4v-3.7c.1,0,3.3.1,3.3.1l.6.8h1.7s.9-3.2.9-3.2l-.3-1.8,1.1.4-.2-1.3h.9l1.2-.9v-.5c-.1,0,1.8-.6,1.8-.6l-.4-.6.2-1.5h.9c0-.1.6-2.5.6-2.5l-.2-2.5-1.3-2,.2-1.1,1.4-1.7,2.6-.2v-1c.1,0-.9-.8-.9-.8l.6-.6Z"/>
    <path id="HN-GD" d="M429.3,196l2,.9,1.4,4.6-1,1.1-.8-3.8-1.9-2,.4-.8ZM356,154.9l17,6.7,10,2.6.6.5-1,.8-.7,3.6.7,1.7,1.3,1.2,2.5-1-.4-1.6.4-.8,1.5,1.2.9,1.7h1.9c0-.1.7,0,.7,0l1.8-.3-.7-.9,1.2-1.5.5.3-.6.7h.8l.2-.8.8.2v-1.3c0,0-.9-.2-.9-.2l-1-1.1-9.5-2.3,15.5,3.2,11.7.7,17.2,14.1,16.4,15,6.8,4.2,6.3,1.9-1,1.5-1.4.4-4.2-3.5-2-1-3.9-1.3h-3.3c0-.1-1-1.1-1-1.1l1.1.2-.5-1.7-2.4-1.7-.3-1.1-.4,1.1h-.9c0,.1.4-.3.4-.3l-5.3-2.4-2.4,2.8v.9s-1-.5-1-.5l-1,1.2h-1.9c0-.1,1.4,3.1,1.4,3.1l-1.1.9-.8-.5-.9.5,1,1.2-.2.5h-1.1c0-.1,0,.7,0,.7l3.1,4.5,1.7.7h2c0-.1,0,.3,0,.3l1.4.6.6-.5v-1.1l-1.6-2.9v-1c.1,0,2.1-.5,2.1-.5l.2-.7,4.2.7,4.4,3.3,1.4.5,1.5,1.7,1.3.7h2.3c0,.1.7,1.3.7,1.3l1.8,1-.2.8-1.7,1.2h1.7s.9-.5.9-.5l.2-.9.6.2,1.4,2-.9,2.3.8,1.8-.5.4.3.7.5-1,.2.7h.7s-.2-.9-.2-.9l2.1,1,1.2-.5.5-2.5,4.5-2.3.6-1-.3-1.4,1.3-1.1v1.1s3.4-.2,3.4-.2l.2.9,1.9-.4,1,.6.2-1h-1.7c0,0,0-1.1,0-1.1h-1.3c0,0-.8-.8-.8-.8l-2.4,1.3-.2-.7-1.6-.4-.6-.8-.5.8-.7-1.5-1.5-.9-3.7-1.1v-1.4l1.7-2,2.4,2.2,5.4,2.9,12.2,3.9,6.1,2.6,2.8,4.3,2.4,6.9,2.7,3.8,5.5,3.8,5.2,1.7h1.7s0,.6,0,.6h.8s-.5.8-.5.8l-1.2-.4-1.6.5-3.3-.3-2.2,1-3-.3-.8.8-.7-.5,1.1-.9v-.6c-.1,0-1.9.4-1.9.4l-3.3-1.3-.9,1.2-.9-1.2-3.1-1.3v1.5c-.1,0-1.6,1.5-1.6,1.5l-3.5,1.1-1.3-1v-1.1s-1.1-.2-1.1-.2l-1.6,1.9-1.1-.5.5,1.6-1.3-.6-.3,1,.8,1.5-1.4-.2.6,1-1.4.3-.2,2.2-2.6-.4-.4.4.3.7-1.7.5.4.8-.8,1.1.2.9-.7-.3-.2-1.1-1.1-.2-3.4,1.2-.9-.5v1.1c0,0-1.4.8-1.4.8l1.2.5v1c-.1,0-2.8-.5-2.8-.5l.2,1.3-1.7-.6-.5,1.8-1.8-1-.8,1.4-2-.5,1.6,1.5h-2.9c0,.1-1.3,1.5-1.3,1.5l-2.1.4-.4-1.3-.6-.2v1.5c0,0-.8.3-.8.3l-1.5-1.1-1.5.3.4,2.1-1.8-.6-2,.9-1.9-.8-1.9.9-1.3-.3-.4-1.8-2.7.9-.4-2.4-2.1-.2-.4,1.1,1.5,2.7v1.3c0,0-2.4-.3-2.4-.3l-1.4,1-2.7.5-3.9-1.9.5-1.4-1.3-.5-2.3,1.8.7,2.8-.2,1.3.6.6-2,1.6-1.4-.4-1-1.8-1.4.9-1.7-.4-.2-.8.6-1.3-1.7-.8-1.5,2.8-2,1.9v.9c-.1,0-2,.9-2,.9h-2c0,.1-.9,1.4-.9,1.4l-2.3-.5-1-1.1-1.9.5-.2-1.1,1-1-2.9.6-.7-.6-1,.3-.7-.6-3.4-.4-.4-.9-1.8.4-1.7-1.6-1.2,2.1h-.7c0,0-.6-2.3-.6-2.3l-2.8-1.9-.2-2.7-1,.5-.8-.7,1.2-.4v-1.2c.1,0-2.1-1.4-2.1-1.4l-.8-2.1-2.2-1.1-3.2,1.3h-3.5c0,0-2,4.1-2,4.1l-2.6.5-2.8,2.2h0l.2-27.8h0v-76h0Z"/>
    <path id="HN-IN" d="M108.7,265.1l1.3,2,1.5-.2,4.2,1.2.7.8h1.9s1.5,5.6,1.5,5.6l3.1,1,.2,2.6,1,.5,3,3.8.3,1.2-.7.5h0l-4.8,3.8-3.3-.6.2,1.3-.7.7,1,2-.2,1.3-1.5.5-.6,2.3-2,.7-.5,2.6h-3.2c0,0-1.2.5-1.2.5l-3.6,2.8v1.5c0,0-1.1,1.6-1.1,1.6l-3,1.2-2,1.6-3.3,4.4h-1c0-.1.6,1.3.6,1.3l1.9,1.4-.8,4.6h0l-.3,4.2-3.2,2.7-7.9,2.6-1.9-1.4-4.1.5-.9,1.2h-2s-.2.9-.2.9l-2.3-.7v-1.6c0,0-1.4-2.6-1.4-2.6l.3-2.4h.9c0,0,0-1,0-1h.5c0,.1.3-.8.3-.8l.9-.4-.3-1.1.9-.2.5-1h1.4c0-.1.5-.8.5-.8l4.4-1.7,1.6-1.2,1.1-1.7h1.7c0-.1-.2-1.7-.2-1.7l1.4-1.1-.6-2.3.3-1.7-.7-.7.7-4.1-1-1.1-4.2-.3-2.9-1.5-.2-1,1.1-2-1.3-6.5-.8-.4-1.5.3-3.6-3.5.4-.4-.2-3.8,3.7-1.8,1.7.5,4-.2,2.8-2.3-.2-2.1,2-3-.5-4.3-1.4-2.7.3-.2h0l7.4.7,1.7-.8,5.8-.3,4.7,1.2,1.7-1.5Z"/>
    <path id="HN-IB" d="M235.1,156l.3.8-.4.4-.5-.4.7-.8ZM236.9,154.7l.7.4-.6,1.1-.9-.9.8-.6ZM203.8,142.9l1.3.6-1.3,2.5-.6-.8-.7.2-4.1,2.1-2.7-1,.7-1.6,2.9-.6.6-1.1,2.1.5,1.8-.7ZM252.9,117.4l4.2.6,2.2-.5.6.6h-1.1c0-.1-1.8,1.2-1.8,1.2l-1-1h-2.4c0,0-.5.8-.5.8l-1.7-.3-.3.6-1.4.2-1,1-1.1-.3-1.6.7-1.4-.4.4.8-.6.3-.4-.5-.4,1.5-.5-.4-1.1.2v.6s-1.8-.2-1.8-.2l-4.1,2.3v1s-.9.2-.9.2v-.7c0,0-2.8,1.5-2.8,1.5h-1.6c0,0-4.1,3.7-4.1,3.7l.7-3.7,3.8-2.8,1.8-.9,1,.2,1.3-1.1h.8c0,.1,2-1,2-1h1.6c0,0,3.3-2.2,3.3-2.2l.4.3,4.2-1.7,5.2-.8ZM263.7,116l1.7.3-1.5,1.2-.8-.5-1.4.6.7-1.1,1.3-.5ZM286.7,110.2l2,1.2.7-.5.3,1.4-2.3.7v1.3c0,0-1.1,1.3-1.1,1.3l-1-.4-2.5,1.3.5.4-4.3,3,1.6-4.3h1.2c0,.1.6-2.3.6-2.3h.6s1.2-1.8,1.2-1.8l1.3.3v-.9c0,0,1-.6,1-.6Z"/>
    <path id="HN-LP" d="M126.8,284.3l1.4,2.6,3.4.2.5,1.5h2.1c0,.1,4,2,4,2l4.2-2.1-.2.9,1,1.7-.2,2.1.8.3-.7.7.8,1.6-.6.6-.5-.2.2.9-.9.5-.4-.5-.2.4-.5-.3-.4.8-.9-.6-1.4,1.2-2.7.4-.5.8-2.5.2-.4-.7-2.7,1.2v-.5c0,0-1.3,1-1.3,1l.6,1.9,2.8.8,1.4,2.2-1.2.8v1.3s3.6.5,3.6.5l1.8,3,1.3-.8.8,1.8-.5,1.3.3,1.6,2.8-3.2h2.7s.8,6.9.8,6.9l1,1.5-.4.8.5.7-.7,5.3-1.1.8v1.5c0,0-2,3.3-2,3.3h-1.9s-1.9-1.7-1.9-1.7l-3.9.7h0l-.4-2-4-2.5-2.4.4-4.3-1.3h-2s-1.8,1.1-1.8,1.1l-2.3-.9-4.2,2.4-.4-1.5-4.2-6v-1.6s-3-.7-3-.7l-4.3,1.3-2.8-1.2-1.4.2h0l.8-4.6-1.9-1.4-.6-1.4h1c0,.1,3.3-4.3,3.3-4.3l2-1.6,3-1.2,1-1.6v-1.5c0,0,3.6-2.8,3.6-2.8l1.2-.6h3.2c0,0,.5-2.5.5-2.5l2-.7.6-2.3,1.5-.5.2-1.3-1-2,.7-.7-.2-1.3,3.3.6,4.8-3.8Z"/>
    <path id="HN-LE" d="M63.3,244.1h1.9c0,.1.8-.6.8-.6l.2-1.6,4.3,1.1,1.8,5.1,3.5,5,1.4-.6,1.2-2.8,1-.5,2,.7.6,1.1h2.6c0-.1,1.2,1,1.2,1l-2,4.4,1.3,2.8,1.5,1.2,3-1.2-.3,4-2.1,2.5h0l-.3.2,1.4,2.7.5,4.3-2,3,.2,2.1-2.8,2.3-4,.2-1.7-.5-3.7,1.8.2,3.8-.4.4,3.6,3.5,1.5-.3.8.4,1.3,6.5-1.1,2,.2,1,2.9,1.5,4.2.3,1,1.1-.7,4.1.7.7-.3,1.7.6,2.3-1.4,1.1.2,1.6h-1.7c0,.1-1.1,1.9-1.1,1.9l-1.6,1.2-4.4,1.7-.5.7h-1.4c0,.1-.5,1.2-.5,1.2l-.9.2.3,1.1-.9.4-.3.9h-.5c0-.1,0,.8,0,.8h-.9c0,0,.8-1.8.8-1.8l-2.1-1.6-3.3.2-1.9-2.3-1.5.3-1.7-1.3-4.2.7-5.7-6.1-5.2.3-3.9-8-2.7-1.1-.8-.9h-3.8c0,0-.8-.6-.8-.6h0l-.2-2.9.6-1.2-1.2-2.4,2.1-1,.7-2.4,3.1-.4,1.7-.8.8-1.4v-2.9s1.6.3,1.6.3l.2.7,1.5,1.1h2.5c0,0-1.6-1.5-1.6-1.5l.5-2,1.9,1.2,4.7-2.2-.2-1.2.5-.4v-1.2c-.1,0,1.2-3.1,1.2-3.1l.2-1.9-.7-.7-2.3.3-2-.7h0l1.6-3.7,2-1.4-1.6-2.6-1.7-.7-2-4.2.9-1.3,4.6,1,3.4-.4.8-.9,2.2.4v-.9s-.9-1.2-.9-1.2l.4-.7-.7-2.2-1.1-.7.9-4,1.4-.9v-1.7s.8,0,.8,0l-.5-1.5.9-1.4-.5-1.6Z"/>
    <path id="HN-OC" d="M23.5,261l4.4-1.4,1.3.8,4.5.2,1.3,4.8,6,4.9-.4,2.6-.5.3,1.5.5-.3,1.3,1.7,1.9,3.3.6.6,1.2,1.7-.5-.6-2.7h1.6c0,.1,2.9-1.3,2.9-1.3h0l2,.7,2.3-.3.7.7-.2,1.9-1.4,3.1v1.2c.1,0-.4.4-.4.4l.2,1.2-4.7,2.2-1.9-1.2-.5,2,1.6,1.5h-2.5c0,0-1.5-1-1.5-1l-.2-.7-1.5-.3v2.9s-.9,1.4-.9,1.4l-1.7.8-3.1.4-.7,2.4-2.1,1,1.2,2.4-.6,1.2.2,2.9h0l-.8-.2v-1c.1,0-1.1-2.1-1.1-2.1l-3-1.9v-2.9c0,0-1.3-1.5-1.3-1.5l-3.8-1.6-3.7.8-2.5-.3-4-2.9-6.5-1.2-4.1-2.7v-3.6c0,0,4.3-2.3,4.3-2.3v-.9c-.1,0,1.3-1.1,1.3-1.1l.6-1.6,2.7-3.2,1.8-.6,3.2,1.1h1.8c0-.1.7-2.6.7-2.6l-.5-5,1.5-2.9Z"/>
    <path id="HN-OL" d="M256.6,201.9l5.3,3.3,1.3.3,2-.4,1.9-1.4.9.4.3-1,2.9.3.8.9,1-.2.6-1,1,.2,3.4-1.9.3-1.3,1.4-1.6,1.3-.2,3.4-3.3-.4-1.6.6-.7h1.6c0-.1.4.5.4.5l2.2.4,1.8-2.3,2-.7v-1.7s1.8-.7,1.8-.7l1.4,1.4,1,.2,2-1.3,8.8,4.4,6.7,6.4,11.3,4.1,11.4,15.7,11,2.7,8.1,9.3h0v27.8h-.1l-2.6,2.2.4,1.1-.7,1.3h-.9c0,0-.7.8-.7.8l2.1,2.4-1.3,1.6,1.4.7-1.6,2.4-1.9,1.5-1.7.4-3-2.5-2,1.1.8,1.5v2.9c.1,0-.8,1.9-.8,1.9l-2.2,2.3-2.3,5.9-1.5,1.9,1.7.8.2,1.7.9.9.7-.2.2,1.8,1.6,1-2.1,3.5-.7.2-.4-.7h-6.5s-1.5.7-1.5.7l-1.7-.5-1.7.8-1.5,2.5h-.8c0-.1-.2-.9-.2-.9l-.7.2.4,1.2-.4,2.7-1.7,1.6.3,1.6-2.5,2.5-1.2.2-1.1-.6-1.1,1.7h-.7c0,0-.2.9-.2.9l-.9-1-.2,1.3-.8-.7-1.4,3.3h-2.7c0-.1-.4-1.5-.4-1.5l-1.1.2h0l-.6-1.4-2.9-1.6-.2-1,.9-1.7-1.4-2.4-1.4-.6-1.4-1.9-.7,1.3h-.6s-3.5-1.2-3.5-1.2l-2.4.5-1.6-1-1.9,2.9-1.5-.3-2.1-1.5-2.9,1.4-1.2,3.2h-1.8l-1-.6-1.8-2.8-3.2-.8-3.4-7.1-2.5-.6-.6.5v1.4c0,0-6-1.6-6-1.6l-2.8-6.6-4.4.3-3.4.9-6.5,4.4-7.9-.3-.6-2.1-1.3-1.5-3-.3-1.7-2.3-6-1.3-.9.7-.5-1.6-1.3-1.3h-1.5c0-.1-.7.7-.7.7l-1.1-.9-3.4-1h0l.2-1-1.9-3.8.3-2.2-1-.3-.6-1.8.7-3.8-1.3-.8-.7-1.6-2.2-1.4-.6-1.4h-1.9s-2.6-2.4-2.6-2.4l-2-6.3-1.9-2,.8-2.4-1.5-.8.2-2.4-.9-2.2-1.1-.7-.3-2.2,1.8-3.1.7-.3-2.3-1.1-.3-1-2.4-.6-2.1-3.3h0l1.7-2.3,3.6.2.4-2.3,3-1.1v-3.2c.1,0,1.4-1.2,1.4-1.2l.2-.7-.5-.3.8-1.2-1.1-5.9.3-1.4,3.7-1.9.2-1.2,1.9.6,1.4-1.5,1.1.6.7,1.5,4.2.4,2.9-1.5v-.8c0,0,1.2-.9,1.2-.9l.2-2.7,1.3-.4,1.2.4,1.5-1.3,3.8-1.4,2.4-1.8,1.3.4,1.9-.9v-.8c.1,0,3,.8,3,.8l1,2.1h1.6c0,0,1.6,3.8,1.6,3.8h.9c0,.1,10.1-5.1,10.1-5.1l4.2-2.8Z"/>
    <path id="HN-SB" d="M79.7,191.2l15.9,4.6-.5,4.6,1,2.6,3,.9.7,1.1,1.7,1.1,1.4-.5,1.3.5.6,9,1.1,1.3.8,2.6,3.2.4-1.4,3.2-3,3.6,2.9,3.3,3.6.9,1.1,1.2-2.5,11.4,2.5-.7-.9,2,.8-.3v.7c-.1,0,.5.9.5.9l-.5.6h1.6c0,.1.8.8.8.8l-.7,4.3.9,2.4h0l-2.6,2.7-1.6.7-3,3.4,2.4,3-1.9,1.6h0l-1.7,1.5-4.7-1.2-5.8.3-1.7.8-7.4-.7h0l2.1-2.5.3-4-3,1.2-1.5-1.2-1.3-2.8,2-4.4-1.2-1.2h-2.6c0,.1-.6-1-.6-1l-2-.7-1,.5-1.2,2.8-1.4.6-3.5-5-1.8-5.1-4.3-1.1-.2,1.6-.8.8h-1.9c0-.1.2-.7.2-.7l-.5-.3-3.3.7-1.1-2.5,1.8-3.9.4-3.9,1.5-1.6,1.5-.6-.6-2.1-1.6-1.6.4-2.6,1-.6-2.5-1.2-.9-2.1-2.6-2,.9-2.2-4.4-4.7h0l6.1-3.9,6.7-6.3,2.7-1.2,10.7-9.5Z"/>
    <path id="HN-VA" d="M143.4,376l2,.7v2.6s-1.4.7-1.4.7l-2.1-.2-.6-2.3h.6s.2-1.3.2-1.3l1.3-.4ZM140.7,373.3l.6,1.1-1,1.1-.5-.9.8-1.4ZM148.5,371.1h1.2c0,0,.3.8.3.8l1.3.6-2.7.6v-1.1c0,0-.7-.5-.7-.5l.5-.3ZM146.9,369.3l1.8.4.4.6.7.2-2.7.6,1.5,1-.4,3-1.3-.4-1.5.5-2.4-.9-1.1-1.4v-1c0,0,.5-.3.5-.3l-.3-1.3.6.3,1-1,1.2.8,1.9-1.3ZM157.9,367.4l-.2.6.6.3.6-.3.3.8h1c0,0-.8,1-.8,1l-2,.2-.6-1.1.3-1.1.8-.4ZM158.2,366.5l.8.2-.5.8,1.3.2.6.9h-.9c0,.1-.3-.7-.3-.7h-1.1c0,.1.1-1.4.1-1.4ZM159.2,367.1v-.6c0,0-1.1-.2-1.1-.2l-.4.9-1.1.4v3.7c-.1,0-2.6-1.5-2.6-1.5l.5-.8-1.1.6.2.7h.7c0,0,.2,1,.2,1l-.6.3-.2-.4-.5.9-1.2.4-2-1.3.9-1.1-1,.4-1-.9-2.2-.4-1.5.6.8-2.1-1.8-1,.2-.5h.7c0,.1-.4-1.3-.4-1.3l.9-1.8-.3-.3-.6-.4-2.5,1.1-.4,1.4h.7c0,.1.3,1.6.3,1.6l-1,1,.2,1.2h-1.1c0-.1-.5,1.6-.5,1.6l-1.2-.2v.5s-1.8.2-1.8.2v.5c0,0-2.4,0-2.4,0l-1.5-1.5-2.7-.8-1-1.5h1.3c0,0,.7-1.1.7-1.1h1c0,0,1.4-1.3,1.4-1.3l2.5-.4.6-1.9-.3-3.2-2.1-.3-.4-.6-1,.7-1.3-.2-.8-1.2.5-.6-.2-2.1.6-.7-.4-.4.8-.3,1.6-2.5.3-7.1,1.6-1.9.5-1.3-.6-1.4,1.9-2.8v-2.9c0,0-1.4-.6-1.4-.6l-1.3-1.4h0l3.9-.7,1.9,1.6h1.9s-.4,6.9-.4,6.9l1.7-.3,3.7,2.2,3.2-.3,2.3,2.2,4.8,1.7h0l.5,1.1,3.3,1.9-1.3,3.7,1,.4,1.3,3.5,3.2,2-.4,3.4,2.1,3.1-1.1,2.9-1.8.4-.4.9h0l-.8,1.5-1.5-.2-1.1,1.3-.2-1.5.7-2.3.9.5,1.4-.3-1.2-.2.3-1-.9.4v-.8c0,0-.8.6-.8.6l-.5,1.5-1.2-.9Z"/>
    <path id="HN-YO" d="M135.2,235.7l.5-.5-1.2-2.4.3-2.2.9-.8-.5-1.4.5-.8-2.9-2.5-.9.6-1.3-.2.2-.8-.5-.7-.9.5-.5-.8-2.1.2v-1.1c0,0-1-.3-1-.3l-.5-1.1-2.5.2-2-.8v-3.5s-1,.7-1,.7l-.2-1.4.3-1.8,1.7-.2v-.9c.1,0-1.2-.5-1.2-.5l.4-.8h1.3c0,0-.8-1.6-.8-1.6h1.7s.8-1.8.8-1.8l1.4.7v-.6c.1,0-1-.6-1-.6l2.4-2.1.7-2.3h1.5s-.4-2.4-.4-2.4l-3.1-1.8,2.3-.4.8,1.7,1.2-1.5v-1.2c-.1,0-1.5-.6-1.5-.6l.3-1.3-1-.7.7-1.3-.4-1,.6-.2,1.4.8-.8-2.4,1.3-1-.5-1.6.8-.2,1.6,1-.8-2.1h1.4s0-1.5,0-1.5l-.8-.8v-1.7s-1.9.2-1.9.2l-.8-.5.2-1.7-1,.9-.7-.4.3-1.8,1.4-.3v-.6s-2.5.4-2.5.4l1-1.2,1.6-.6.3-1.6,1.5,1.2.7-1h0v1.5c.1,0,2.1.3,2.1.3l.8,1.3,1.4,1,1.8.3.2,1,1,.7.7,6.7.6,1.4,1.9,1.4,1.2,1.9h4c0,0,3.8-1.1,3.8-1.1l1,.7,4.2-2.5.8,1.1h1.1c0,.1-.4,2.8-.4,2.8l.6.7-.5.5.9.6v1.2c.1,0,1.9.8,1.9.8v.6s.7-.3.7-.3l.8,1.3,2.8-1.5,1.4.4.8,1,1.8-.6,1.3.9h1.9c0,0,2.4,1.2,2.4,1.2l2-.3,1.1.5,2.1-3.2h3.5c0,.1,1.2-1.2,1.2-1.2h1.3c0,0,2-1.3,2-1.3l.5-1.9,2.7-1.6,2-2.3,1,.7h3.7s1.6-1.2,1.6-1.2l.9.4,3.1-1h.5c0,.1.2,1.5.2,1.5l1.9.5,1.5-1.1.7.6,2.9.5,10.1-4.8,5.3,1.4,3.2-.5,1,.9,3.9-1,3.9,1.3h0l1.8.5,3,2.5,5.9-1,3.4.7,2.3,1.5v-.8c.1,0,1.9-.1,1.9-.1l-.6.5.9,1.8-.6,2.3.4,1-1,.9.7.9v2.5h0l-4.2,2.8-10.1,5.2h-.9c0-.1-1.6-3.9-1.6-3.9h-1.6c0,0-1-2.2-1-2.2l-2.9-.8v.8c-.1,0-2,.9-2,.9l-1.3-.4-2.4,1.8-3.8,1.4-1.5,1.3-1.2-.4-1.3.4-.2,2.7-1.1.9v.8c0,0-3,1.5-3,1.5l-4.2-.4-.7-1.5-1.1-.6-1.4,1.5-1.9-.6-.2,1.2-3.7,1.9-.3,1.4,1.1,5.9-.8,1.2.5.3-.2.7-1.3,1.2v3.2c-.1,0-3.1,1.1-3.1,1.1l-.4,2.3-3.6-.2-1.7,2.3h0l-3.3-.7-4.3.8-2.2-1.3h-2.1c0,0-.3.4-.3.4l-2.8.3-1,1.3v3.2c.1,0-2.6,2.4-2.6,2.4l.9,1.4-.3,1,1.4.3.2,1.4-.5,1.1-1.2-.5h0v-.5c-.1,0-3.7-1.6-3.7-1.6l-1-1.5h-1s-.8,1.1-.8,1.1l-1.1-1.5h-2.4c0,.1-1.2-.7-1.2-.7l-1.4.3-2.1,2.3-1.8.4-1.8-.4-.6-1.6.5-.7-.8-.8v-2.1c.1,0-.9,0-.9,0l.2-.7-1.5-.5-.6-1v-2.7c-.1,0-2.8-2.7-2.8-2.7l-1.6.3-.8,1.1h-1.2l.4,1-2,.3-.8,1.1-1.2-1-1,.4-1.6-.5-2.5,1.1h-3.1Z"/>
  </g>
</svg>