<svg xmlns="http://www.w3.org/2000/svg" xmlns:amcharts="http://amcharts.com/ammap" id="Layer_1" viewBox="0 0 512 512"><g id="_x3C_defs"><amcharts:ammap bottomLatitude="17.706" leftLongitude="-78.369" projection="mercator" rightLongitude="-76.183" topLatitude="18.525"/></g><g><path id="JM-03" d="m485.2 283.1-60.9-6.1-22.1-12.1 2.6 22.3-9.2 11.6 12.2 14.6 53.6 1.6 39.2-12.8-15.4-19Z"/><path id="JM-02" d="m374.6 249.6-27.2-2.3-3.8 28.4 8.9 8.3 8.4 4.9 12.8-5.9 6.4 10.1-23.6 4 39.2 1.6 9.2-11.6-2.6-22.3-22.4-2.1-5.3-13.2Z"/><path id="JM-05" d="m385.7 219.4-20.3-3.9-22.9-29.7-39.2-1 16.5 40.4 9.8-.2 17.9 22.3 27.2 2.3 11.2-30.2Z"/><path id="JM-14" d="M347.4 247.3 329.5 225l-9.8.2-48 13.2 17.1 70.8 15.7-3.4 5.8 12.4 21.5 3.1 20.6-37.3-8.9-8.3 3.8-28.4Z"/><path id="JM-06" d="m303.2 184.9-88.4-14.8-5.8 66 62.7 2.4 48-13.2z"/><path id="JM-04" d="m485.2 283.1-21.1-37.6-78.4-26.1-11.2 30.2 5.3 13.2 22.4 2.1 22.1 12.1z"/><path id="JM-01" d="m380 293.1-6.4-10.1-12.8 5.9 19.1 4.2Z"/><path id="JM-10" d="m112.8 212.5-40-10-55 9.6-6.4 7.6L19 230l65 8.7 19.2 31.7 15.4-34.1-5.7-23.7Z"/><path id="JM-07" d="m214.8 170.1-60.5-7.2-10.3 64.2 31.6 3.2 33.4 5.8z"/><path id="JM-08" d="m117.1 160-21.9 17 17.6 35.5 5.7 23.7 25.6-9.2 10.3-64.2-37.3-2.9Z"/><path id="JM-11" d="m175.7 230.2-31.6-3.2-25.6 9.2-15.4 34.1 26.6 7.9 1.3 15.9 24.4 22.3 37.2-.5-16.9-85.6Z"/><path id="JM-12" d="m209.1 236.1-33.4-5.8 16.9 85.6 38 .9 8-10.4-29.6-70.2Z"/><path id="JM-09" d="m95.2 177-51.6.6-23.4 19.1-2.4 15.4 55-9.6 40 10z"/><path id="JM-13" d="m283.6 352 3.9-14.6-16.9-1.6 9.3-1.4 9-25.1-17.1-70.8-62.7-2.4 29.6 70.2-8 10.4z"/></g></svg>