<?xml version="1.0" encoding="UTF-8"?>
<svg id="Layer_1" xmlns="http://www.w3.org/2000/svg" xmlns:amcharts="http://amcharts.com/ammap" version="1.1" viewBox="0 0 512 512">
  <!-- Generator: Adobe Illustrator 29.1.0, SVG Export Plug-In . SVG Version: 2.1.0 Build 142)  -->
  <g id="_x3C_defs">
    <amcharts:ammap bottomLatitude="17.705724" leftLongitude="-78.368846" projection="mercator" rightLongitude="-76.183159" topLatitude="18.525310"/>
  </g>
  <g>
    <path id="JM-03" d="M485.2,283.1l-60.9-6.1-22.1-12.1,2.6,22.3-9.2,11.6,12.2,14.6,53.6,1.6,39.2-12.8-15.4-19Z"/>
    <path id="JM-02" d="M374.6,249.6l-27.2-2.3-3.8,28.4,8.9,8.3,8.4,4.9,12.8-5.9,6.4,10.1-23.6,4,39.2,1.6,9.2-11.6-2.6-22.3-22.4-2.1-5.3-13.2Z"/>
    <path id="JM-05" d="M385.7,219.4l-20.3-3.9-22.9-29.7-39.2-1,16.5,40.4,9.8-.2,17.9,22.3,27.2,2.3,11.2-30.2Z"/>
    <path id="JM-14" d="M347.4,247.3l-17.9-22.3-9.8.2-48,13.2,17.1,70.8,15.7-3.4,5.8,12.4,21.5,3.1,20.6-37.3-8.9-8.3,3.8-28.4Z"/>
    <path id="JM-06" d="M303.2,184.9l-88.4-14.8-5.8,66,62.7,2.4,48-13.2-16.5-40.4Z"/>
    <path id="JM-04" d="M485.2,283.1l-21.1-37.6-78.4-26.1-11.2,30.2,5.3,13.2,22.4,2.1,22.1,12.1,60.9,6.1Z"/>
    <path id="JM-01" d="M380,293.1l-6.4-10.1-12.8,5.9,19.1,4.2Z"/>
    <path id="JM-10" d="M112.8,212.5l-40-10-55,9.6-6.4,7.6,7.6,10.3,65,8.7,19.2,31.7,15.4-34.1-5.7-23.7Z"/>
    <path id="JM-07" d="M214.8,170.1l-60.5-7.2-10.3,64.2,31.6,3.2,33.4,5.8,5.8-66Z"/>
    <path id="JM-08" d="M117.1,160l-21.9,17,17.6,35.5,5.7,23.7,25.6-9.2,10.3-64.2-37.3-2.9Z"/>
    <path id="JM-11" d="M175.7,230.2l-31.6-3.2-25.6,9.2-15.4,34.1,26.6,7.9,1.3,15.9,24.4,22.3,37.2-.5-16.9-85.6Z"/>
    <path id="JM-12" d="M209.1,236.1l-33.4-5.8,16.9,85.6,38,.9,8-10.4-29.6-70.2Z"/>
    <path id="JM-09" d="M95.2,177l-51.6.6-23.4,19.1-2.4,15.4,55-9.6,40,10-17.6-35.5Z"/>
    <path id="JM-13" d="M283.6,352l3.9-14.6-16.9-1.6,9.3-1.4,9-25.1-17.1-70.8-62.7-2.4,29.6,70.2-8,10.4,52.9,35.3Z"/>
  </g>
</svg>