<?xml version="1.0" encoding="UTF-8"?>
<svg id="Layer_1" xmlns="http://www.w3.org/2000/svg" xmlns:amcharts="http://amcharts.com/ammap" version="1.1" viewBox="0 0 512 512">
  <!-- Generator: Adobe Illustrator 29.1.0, SVG Export Plug-In . SVG Version: 2.1.0 Build 142)  -->
  <g id="_x3C_defs">
    <amcharts:ammap bottomLatitude="14.530910" leftLongitude="-118.365366" projection="mercator" rightLongitude="-86.723663" topLatitude="32.719388"/>
  </g>
  <g>
    <path id="MX-AGU" d="M252.4,294.5l-1.5-2.2,3.5-6.7,4-1.9,1-1.4,4.6,3.3,1.1,2.8h0v1.4s1.2,1.3,1.2,1.3l-2.7,1.2-2.1,2.6-2.7.7-2.5-1.5-2.7-.2-1.3.7Z"/>
    <path id="MX-BCN" d="M73.2,186.1h-.4l-1.8,1.2v-1c0,0,2.3-2.5,2.3-2.5l-.5,1.4.4.8ZM56,178.5l.9,4.3-.4,1.9h-.7c0,0-.8-1-.8-1l-1.2.2,1.8-2.4-.3-1.4.8-1.5ZM92.6,173.1l2.2,1.5-.3.3-1.9-1.8ZM98,172.2v1s-.7,0-.7,0l-.2-1h.9ZM7.9,163.9l-.3,1.5.8.8v1.8c.1,0-.7,1.5-.7,1.5l-1.4-4.8,1.6-.8ZM82.2,157.4l2.6,1.6.7,1.4-.3,1.3,3.2.6v2.7c-.1,0,1,1.3,1,1.3l-.2,1.2-5.2-5.2-.9-.2-1.4-2.2.5-2.6ZM62.3,103.4h-1.7c0,0-1.9,4.1-1.9,4.1l.9,1.3-.7,4.8,3.6,2.4h0l.3,3.6-1.2,2.4-.6,6,1.2,2.2-.3.8,1.8,1.2.3,5.5,1.1,2.5-.6,5.5,2.1,4.1,2,1.6.3,1.7.8.7,1-.5,1.1.5,9,8.3-.3,1.4,1.8,2.6-.3,1.9.5,1.1,1.5-1.1.9.8.3,1.9,1.5-.7.7.4,1.8,5.6,1.6.9,1.5-.4.9.6-.4,2.7,1.2,1.8.4,5.5h0l-1-1.2h-20c0,0-.1-1.5-.1-1.5l.5.8.5-.9-1-.3-.2-1.1,1-1.9-1.1-.6,1.2-3.8-1.8-1.8v-1.3s-1.7-.3-1.7-.3l-2.4-4-2.7-1.5-.8-2.4h-1.1c0,0-.7-1.5-.7-1.5l-3.3-3.2-3.8-1.2-1-1.6-3.3-2-.8.2-3-2.5v-2.5s-1.8-1.4-1.8-1.4v-5.7c0,0-2.2-2.4-2.2-2.4l-.4-1.4.2.8-.9-.2.2.9-.7-1.3v-5.6s-3.4-3.4-3.4-3.4l-1.1-.2.5-3.3-.9-1.7-2.5-3.4-2.6-2.2.6-2-1.5-1.6,1.3.5.8-2.2-4.2-3.3-.6-3.7-1.9-1.3-1.3-3.7v-.8s38-3.5,38-3.5l-1.4,1.9v2.2Z"/>
    <path id="MX-BCS" d="M63.5,349.9l.9.2-1.1.4.2-.6ZM122.7,341.7l1.1,1.1-.5,1.4-1.5-1.4,1-1.1ZM139.4,248.7l2,4.1-1.4-.8-.6-3.3ZM106.9,246.1h2c0,.1,1.8,1.5,1.8,1.5l.6,2.1-4.4-3.5ZM132.6,245.9l1.1,1-.6,1.3-1-1.4.5-.9ZM127.2,236l2.1,1.6.6,2.3-2-1.2-1-1.8.2-.9ZM104.7,233.2l-1,5.4.4.8-.8,1.1,2.5,5.4-1.8-2,.6-.6-.6-1.3-2-.5,2.7-8.3ZM126.1,225.5l.2,2.1-.7-1.2.5-.9ZM121.6,219.3v1.7c0,0-.8-.5-.8-.5l-1.8,3.1.8-3.8,1.8-.5ZM87.3,207.7l1.3,1.2-1.8-.7.5-.5ZM105.3,198.3l.7.6-.2.8-.5-1.4ZM108.5,194.9l.4.4h-.6s.1-.4.1-.4ZM72.8,186.1h20.9c0,0,1,1.3,1,1.3h0l2.7,4.1,3.7,1.7,2.3,6,1.6,1.3,2.5.8-1,2.1,2.2,2.5-.5,2,2,2.7.6.5,1-.9-2.2-2.3-.6-2.9.5-.3,4.1,3.5v2.6c.1,0,1.8.5,1.8.5l-.4,1.8,1.3,1.7-.2,1.1,1.2,3.3-.6,1.9.8,3.3,1.3.8,1.7,3.5,1.6.2,1.7,6.4,2.3,2.3,1.2,2.2.3,2.1-1,1.7v1.9c-.1,0,1.9,5.1,1.9,5.1l1,.9,3.5.5-1.5.2v.9c.1,0,1.2,0,1.2,0l.8-1.1-.4-2.7,1.4-.2.9,1.6,2.7,1.6.4,2,2.4-.4v2.5s2,2,2,2v2.3s3.7,2,3.7,2l.8,2.5-.7,3.6-6.2,5.1-1.7.4-1.5-1.3-1.7-6.2-2.7-4.4-3.9-2.1-7.3-7.3-8.4-5.2-1.1-2.6-2.6.9-.4-2.2-1.2-1.7-2.9-.6-.2-3.5-.4,3h-.5l-.2-2.6,1-1.3-.4-1.7,1.2-2.5.2-5.7-2.1-6.7-1.8-1.5-1.6-3-1.4.2-2.9-1.5-4.4-3.8,1.5.5-3.2-1.8v-.8c.1,0-1.6-2.6-1.6-2.6l-.2.7-1-.4,1.5-1.1-.3-2.6-.6,2.4-1,.6v1.2s-2.5-1-2.5-1l.2-.4h-.9c0,.1-1.2,2-1.2,2h-1c0,0-2-1.4-2-1.4l-1-2.3-1.1-.8-1.4-.4-.7.5-2.2-2.6-4.7-1-.8-.9-.3-3.2-3.6-2-1.8-2.9-.8.3-1.7-1-1.2-2.3,9.1,1.3,2.4-.7.4-1.2.5.2-.3,1.6.5.8,3.1,2.2.7-1.2,1.3.5,1.5,1.9.4-.7-1-1v-.7c0,0,.6.2.6.2l-.3-2.3-1.1-.9-.5,1.9-2,.8-1-.8h.5s-.5-1.3-.5-1.3l.7-1.1-.3-1.2Z"/>
    <path id="MX-CAM" d="M429.9,343.2v.9c-.1,0-1.1-.2-1.1-.2l-1,1.3-.3-.4-1.5.9-1-.3,5.1-2.1ZM448,309.4v4.6c-.1,0,2.5.3,2.5.3l.6,1.3,1.6.5,1.3-1,3.3,5.9,2.4,1.3,2.7,3.8.8,2.5h0l4.2,3.8,2.2,2.9v3.7c-.1,0-1.1.8-1.1.8l-.4,4.8,1,3.2v4.9c.1,0-1.8,2.6-1.8,2.6l.2,1.6h0v2.1s-29,0-29,0h0v-1s-2.9-.7-2.9-.7l-2.5-2-2.3-.5h-1.8c0,0-.2,2.5-.2,2.5l-1.9.5-3.2-1-2.7-2.4-2.3-5.1-.6.2-2-1.3-1.1-2.9h0l8.2-.7,1.5,1.4-.4.7-1-.8-.9.3v1.4s1-.8,1-.8l1.3,1,4.3,1.1,4.3-1.9,1.1-2.9-.8-1.1h-1.3c0,0,.8-2,.8-2l-2.7,2.1,1.6-1.6,7.3-4.5,3.1-2.9.5-5.8,4-4.7-.6-1.7-.2-7.3,1.9-5Z"/>
    <path id="MX-CHP" d="M389.2,388v-.4h.1l.7.5h-.8ZM389,385.5v-.5h0l.3-2.3-.7-2.4,1.4-4,1.9-1.7,1.2-4.7h0l4.2-3.1h0l3.6-5.4.5-4.5,1.4-.6,2.7,1.8h1.8c0,0-1,3.3-1,3.3l1.3,1.4-.2,1.2h1.6c0,0,1.7,2.5,1.7,2.5l6.8-5.2,2.1-.8.3-2.1,2.3.3.4-1.2,1.2.8,1.9-.3.7,2.1,1.6.8.8,2.1-.5,1.7,3.7,1.5.7,1.1-.8.8h0v.7c0,0,1,.7,1,.7h1.1s3.4,4.5,3.4,4.5l5.5,2.8,1.1,3.4h.5c0,0-.2.7-.2.7l3.3.9-.4,5.7-20.3-.2-7.7,13.3,2.4,3.2-1.4,1.4v1.6c0,0-.6.9-.6.9l.6,2.7-1.2,2.2-9.8-10.4-11-9.5-6.2-3.8h1.2c0,0-.6-1.5-.6-1.5l-2.9-.6-.6-1.4Z"/>
    <path id="MX-CHH" d="M242.7,166.9l-1.4,2.6,1.1.6v.7s-1.4.6-1.4.6l-1.1,2.5-1.9,1.1-1.4,2.4-.4.7.5.9-2.3,5.2-1.5-.2v1s.7.1.7.1l.3.9-1.4.5.6,2.9-.7.7.5,2.9.9.8.3,6.7,1.5.9-.3,1-2.6,1.2.2,1.3,2,2.4h-1.7s-.4-.6-.4-.6l-3.5.8-3.1-1.5-.7.7,1.3.5v.6s-1.6.2-1.6.2l-1.7,1.3-1.2,1.9v1.3s-2.5.6-2.5.6l-2.9-2.1-2.8-.5-1.7,1.5-3.6-.2-.7-1.2-1,.2-2.1-1.5h-1.2c0-.1-1.6-2.2-1.6-2.2l-3.1-1.5-.6,1.2-1.1.4-1.5,5.6.8,1.3-2,1.5v.9h-.9c0,.1.2,1.5.2,1.5l-1.7,2.7,1,2.2-1.3,2.2-3,2.7-.8-.9-3.3-1-.2-.8-1.7.9h0l-3.5-6.9-5.9-1.3-2.8-7.3-.9-.6v-3.9c0,0-.6-1.5-.6-1.5h-1.2s0-1.8,0-1.8h-3.5c0-.1-2.4,0-2.4,0l-2.2-1.2.9-5.8-2-4.8-2.1-1.5.2-2.6-1.3-1.9-1.1-.5v-2.2c.1,0-1-1.1-1-1.1l.7-.9,2.5-.8,1.9.9,3.2-2.3-2.4-1.7-.3-3.1,1.1-2.3-.3-4.1.9-.8v-1.7c0,0,1.1-.7,1.1-.7l.4-6.4-.4-3.9-1-1.2,1.2-5.4-.9-.8.6-2.1-1.9-5.6.4-1.5-.7-.6v-1.5c0,0-1.8-1.7-1.8-1.7l1-.4.3-1.9-1.5-4,.6-.8-.7-.7h8.9v-8.3h26.5l1.6.6,1.2,1,2.3,4.3,3.9,1.9,2.8,3.6,2.7,1.6.8,1.7,2.2,1.6.2.9,4.5,2,3.4,3.3.7,3.3,2.3,2.7.5,6.1,2.2,4.3,2.4,2.3,2.3.8,1.1,1.9,1.8,1.2,4.3,1.1,1,1.5,2.6.4,2.7,2.4Z"/>
    <path id="MX-COA" d="M298.7,189.4l-2.7,1.7-5.8-.4-2.1,3.5v1.9c0,0-4,.6-4,.6l-.8.7-1.2,1.9.2,2.1,1.8,1.3.8-2,1.7,1,.3,3.2-.5,1.4-1.4,1.9h-2s-1.6,1-1.6,1l-2.2.2-2.7,3.8v.8s4.6,4.3,4.6,4.3l.7,2,1.7,1.2-.6,1.8.7,2.7,2.6.6.6,2.4,2.6,1.7-.3.7,2.3.4,1.1,1.3-.8,1.4-3.4-.6-.8-1h-1.1c0-.1-1.5,1-1.5,1l-1.1,2,.6,3.2-1.7.5v1.3s1.3,2.6,1.3,2.6l-.6,2.1h0l-1.3-.3-1.5.9-1.3-.5-2.9-3.7-1.9-.2-3.8.9-.4-2.2h-1.7c0,0-2.6-2.9-2.6-2.9l-3.2-1.7-5.9-.4-3.4.7-.4,1.4h0l-2.3,1.9-.2,2.8-3.5-.8-3-1.8-.7-2.5-3-3.7-.4-2,2.3-1.1-1.7-2,2.3-3.8-.8-2.8v-2.7c.1,0-.9-2.5-.9-2.5l.2-2.7-.9-2.5-2-2.1-3.1-1.6h0l-2-2.4-.2-1.3,2.6-1.2.3-1-1.5-.9-.3-6.7-.9-.8-.5-2.9.7-.7-.6-2.9,1.4-.5-.3-.9h-.7c0-.1,0-1.1,0-1.1l1.5.2,2.3-5.2-.5-.9.4-.7,1.4-2.4,1.9-1.1,1.1-2.5,1.4-.6v-.7s-1.1-.6-1.1-.6l1.4-2.6h0l.9-.3.8,1.1h2.6c0,0,1.9-3.6,1.9-3.6l2-.8-.6-.7.4-1.6,1-.9.2-2.2,2.2-4h2s.5-.7.5-.7l1.7.3,1.4-2,3.2,1.6,4.6-.3,2.8,1,1.6-1v.9c.1,0,1.4-.5,1.4-.5v.7c.1,0,.9-.2.9-.2l.5,2,1,.2-.2,1,.4.3.6-1v1.9s2.9,1.1,2.9,1.1l.8,1.6,3.4,2.3.3,1.3,1.5,1.1.5,2.9,1.8,2.5.6,2.6,1.6,1.4.2,1.2.8.2-.5.4,1.2,3.7,1.3,1.5,2,.9,2.3,2.9,1.6,3.9Z"/>
    <path id="MX-COL" d="M241,340.2l-1.6,1.4h-.9s0,1.1,0,1.1l-1.6,1.8h0l-3.5-2.8-5.8-2.6.2-1.3-.7-.4-1.2.6-4.1-1.6.3-.3h1.2s.9-1.1.9-1.1l1.1.2.9-.9,4.2-.2,2-1.5h2.9c0,0,4-2.4,4-2.4l.2,2.5,1.4,1.3-.6,3.9.5,2.2Z"/>
    <path id="MX-DF" d="M314.1,338.3l-2.1.5-.6-.5-1.2.8-1.7-.6h0l-1.7-3.4,2-1.7,1.8-2.8,1.5,3.1,2,2.1v2.6Z"/>
    <path id="MX-DUR" d="M183.2,225.8l1.7-.9.2.8,3.3,1,.8.9,3-2.7,1.3-2.2-1-2.2,1.7-2.7-.2-1.3h.9v-1l2-1.5-.8-1.3,1.5-5.6,1.1-.4.6-1.2,3.1,1.5,1.6,2h1.2c0,.1,2.1,1.7,2.1,1.7l1-.2.7,1.2,3.6.2,1.7-1.5,2.8.5,2.9,2.1,2.5-.6v-1.3s1.2-1.9,1.2-1.9l1.7-1.3,1.6-.2v-.6s-1.2-.5-1.2-.5l.7-.7,3.1,1.5,3.5-.8.4.6h1.7s3.1,1.6,3.1,1.6l2,2.1.9,2.5-.2,2.7,1.1,2.5v2.7c-.1,0,.6,2.8.6,2.8l-2.3,3.8,1.7,2-2.3,1.1.4,2,3,3.7.7,2.5,3,1.8,3.5.8.2-2.8,2.3-1.9h0l.2,1.4,2.2,1.9-.5,3.1.8.3.6,2.5-.6.3.2.9-4.9.2-.5.6-2.3-1-2.1.4-3.9-.6-5.6,6-1.5.5.9,7.9-3.2,3.3-.9,4.8-1.2,2,.4,6.3-2.2,1.3-1.4,2.9h0l-2.4,1.7-5.3-4.9-1.8,2.1-1.4-2.9,2.1-1.7.3-1.3-1.1-.2-.4-1.6-2.2-.5-1-1.1-2,1-1.4-1.7h0l-1.3-1.4-2.2.2-1.7-4.2-.8-4.2-2.3-3.1-1.2-4.7-1.9-4.1-2.2-1.6-2.5-.7-2.2,2-2.2.3-3.1-7.6-.8-.2-.6-1.6h-1.8c0,.1-.8-.5-.8-.5l.2-.9-2.2-3.4.4-4.5.8-2-.7-.8,1.8-1.9-.6-.8Z"/>
    <path id="MX-GUA" d="M299.6,297.4l.2,1.6-.7,1.2,1.6.4-.5,1.6-2,1.2-1.1-1.1-1,.4-1.4,2.1-.4,1.9-.5-.3-.6.9-5.6.4-.5.9-.4,2.4,1.1,2v1.7s2.4,3.1,2.4,3.1h0l.2,4-2,.9-1.2,1.5v-1.1c-.1,0-2.2.9-2.2.9l-5-.6-.3-1.8h-2.3c0,.1-1,1.3-1,1.3l-2.7-.6-.6-3.5,1.1.2-1.5-1.6-2.6.3-1.3,1.8-2.3-.4-.7.4-.8-.3-.2-2-1.5-.6h0l1.4-3.9-2.4-2.9,2.5-2.7,1.2-2.5,1.6-1.2,1-2.6,1.2-.3.4-.9-.6-1.8.9-3.9.8-.9-.5-.5.8-.8h0l.6.4.5-.6h0l7.7,2.2,4.9,3.2,2.7-.4.3-1.9.7-.5,2.5.8,3.5,3,1.4-.4,1.4.6,1.7-.8Z"/>
    <path id="MX-GRO" d="M289.6,338.5l.2,1.9-1.1,3.9,1.4,2.2-1.2,1.6,2.2.5,1.1,1.9,2-1.6,1.6-.4-.2-1.2,4.6-.6.3-1,1.1-.2-.2-1.1,2.3,1.1,1-.2h0v1.2c0,0,1.6.4,1.6.4l1.3,1.7,3.5.4,1.5,1.5h0v.8s1.7,1.1,1.7,1.1l.8,1.4h1.9c0-.1-.4,1-.4,1l2.7,1.1v.7c0,0,2.8-.7,2.8-.7l2,1.8h0l-1.2,3.4,1.7,3.8.4,2.9-.7,1.8,1.8.8.2,1.9,1.4,1.9-.6,1.8-1.9,1.1v.9c-.1,0-2.7,2.3-2.7,2.3l-.3,1.3-2.9,2.2h0l-3.5-3.9-2.1.3-6.7-2-5.5-.8-3.1-1.8.2-.7-.9.4-1.3-1.4-16.8-6-2.3-2.5-3.9-1.7-.4-1.2-2.6-1.1-2.5-3.5-3.8-1.8-1.7.4h0l-.4-3.3,4.1-1.7h1.5c0,0-1-.1-1-.1l-.3-3.7.2-.7,1-.5.3.5.8-1v.7s1.8-.6,1.8-.6l2,1.8,3.6-.9,4.4.7.8,1.6,1.3-.6,3.6,2.1.5-.6-1.8-2.4-1-4.7,1-1.2.6,1,2.8-3.7,1.4-.9Z"/>
    <path id="MX-HID" d="M319.3,299.2l.7.6-.2,1.7,1.2,1.1,3.4.3,1.6,2.2-1.2,1.6-.2,2.5h-.9c0,.1-1.1-.7-1.1-.7l-2.1,2.2-.7,4.4.7,1.6.9.5,5.9-5,1.4.4h0v1.9s-2.3,2.5-2.3,2.5l-2.3,1.2.4.9,1.3-.3.3,1.4-1.5,5,.4,3h0l-1.5-.3-1.4,1.7-5.1,1.1h0l.9-4.6-3.7.4-1.1,1.6h-.6c0,0-.5-1.8-.5-1.8l1.2-.7.4-3.5-4.5,1.5-.3,2.4-.4.5-1.3-.6v1.4c-.1,0-.9.6-.9.6l-.2-2.4-1.4-2,.4-.6-1-2-3.4-1-2.4-1.8h0l.6-4.1,4.9-2.2-.4-1.3,2-2.6.6-3.1,1-.9.8.4,2.6-.8.8-2h0l1.4-.5.7,1.5,1.5.7.9-1.5.6.8,1.8-3h1.1Z"/>
    <path id="MX-JAL" d="M252.4,294.5l1.3-.7,2.7.2,2.5,1.5,2.7-.7,2.1-2.6,2.7-1.2-1.2-1.3v-1.4h0l2.2.6,4.5,2.9h0l-.8.8.5.5-.8.9-.9,3.9.6,1.8-.4.9-1.2.3-1,2.6-1.6,1.2-1.2,2.5-2.5,2.7,2.4,2.9-1.4,3.9h0l-6.8,1-5.4,3.7-2.5-1.1-.2.7h-.8s-.3,3-.3,3h2c0-.1,2.4.9,2.4.9l.4,1.4-.8,1,1.2,2.6-.4,1.6h2.1s.4,1.4.4,1.4l-2,3h-2.3c0,0-4.9,4.2-4.9,4.2l-1.3-1.1-1.4,1.1h-2c0,0-.5-2.1-.5-2.1l.6-3.9-1.4-1.3-.2-2.5-4,2.5h-2.9c0,0-2,1.4-2,1.4l-4.2.2-.9.9-1.1-.2-.9,1.1h-1.2s-2.1-.6-2.1-.6l.2-1-1.3.2-2.5-1.8-.9-2.8-3.8-3.5-3.4-5.5v-2.2c0,0-2-2-2-2l-.3-1,1.3-1,4.7-.7.9-.7.4-1-1-1.3h0l2.8-3.5h2.2s2.8-1.7,2.8-1.7l1.7,1.4,1.9.5,4.9,5.3-1.2-3.5.8-.5.9-5.4h2.5c0-.1,3.7-2,3.7-2l.4-4.1-2-3.5-2.8-.4-.6-2.7-1.8-1.1-1,.3-.3-1.9.7-3.4h0l.7-.8.9.2.2-1.9,2-.7-.2,2.6,1.1-.7.6-.7-1.1-3.8,3-1.2,1.1.6-2.8,4.9v2.1s.7,1.1.7,1.1h.7c0,.1.2-.6.2-.6v-4.4l2.6-.8,1.8,1.2.4,1.2-2.4,4.6.3.7,3.5-.3,2.1-2.3-.8-.6.2-1.2,1.2-.5h1.4c0,.1-.2,1.6-.2,1.6l2,.6-1.2,4-3.3,1.6-3,2.4v2.7c0,0-2.2,1.5-2.2,1.5l.5,1.6h1.7c0,.1.2,1.1.2,1.1l-3.3,1.8,1.7.7,1.5,1.9h1.4c0-.1,1.8.9,1.8.9l2.2-.8,1.1.3,1-.6.6-1.6h1.8s3.7-2.7,3.7-2.7l.9-2.5-1.8-1.1-.4-2.6Z"/>
    <path id="MX-MEX" d="M298.4,317.7l2.4,1.8,3.4,1,1,2-.4.6,1.4,2,.2,2.4.8-.6v-1.4c.1,0,1.5.6,1.5.6l.4-.5.3-2.4,4.5-1.5-.4,3.6-1.2.7.5,1.7h.6c0,0,1.1-1.6,1.1-1.6l3.7-.4-.9,4.6h0l1.4,1.4h0l.6,7.3h0l-2.2,1.4-1.6-.6-1.2-1.5h0v-2.6s-2-2.1-2-2.1l-1.5-3.1-1.8,2.8-2,1.7,1.7,3.4h0l-3.9,6.7h0l-1,.2-2.3-1.1.2,1.1-1.1.2-.3,1-4.6.6.2,1.2-1.6.4-2,1.6-1.1-1.9-2.2-.5,1.2-1.6-1.4-2.2,1.1-3.9-.2-1.9h0l3.3-6.2-.3-3.3-1-1.5,2-.6,1-2.4-.5-2.4h0l1.6-.2,1.2-1.3-.5-1.7h1.1c0,.1.7-1.2.7-1.2Z"/>
    <path id="MX-MIC" d="M263.6,316.7l1.5.6.2,2,.8.3.7-.4,2.3.4,1.3-1.8,2.6-.3,1.5,1.6-1.1-.2.6,3.5,2.7.6,1-1.2h2.3c0-.1.3,1.7.3,1.7l5,.6,2.1-.9v1.1c.1,0,1.3-1.5,1.3-1.5l2-.9-.2-4h0l3.7,4.2h0l.5,2.4-1,2.4-2,.6,1,1.5.3,3.3-3.3,6.2h0l-1.4.9-2.8,3.7-.6-1-1,1.2,1,4.7,1.8,2.4-.5.6-3.6-2.1-1.3.6-.8-1.6-4.4-.7-3.6.9-2-1.8-1.8.6v-.7s-.8,1-.8,1l-.3-.5-1,.5-.2.7.3,3.7,1,.2h-1.5c0,0-4.1,1.6-4.1,1.6l.4,3.3h0l-.7.8-18.5-5.8-2.4-1.5-1.1-2.6-1.8-1.4-.8-1.7h0l1.6-1.8v-1.1s.9,0,.9,0l1.6-1.4h2c0,0,1.4-1.1,1.4-1.1l1.3,1.1,4.9-4.1h2.3c0,0,2-3.1,2-3.1l-.4-1.4h-2.1s.4-1.6.4-1.6l-1.2-2.6.8-1-.4-1.4-2.4-1h-2c0,.1.3-2.8.3-2.8h.8s.2-.8.2-.8l2.5,1.1,5.4-3.7,6.8-1Z"/>
    <path id="MX-MOR" d="M308.6,338.4l1.7.6,1.2-.8.6.5,2.1-.5h0l1.2,1.5,1.6.6,2.2-1.4h0l-1.7,4.5.8,4.9-.3.5-2.1-1.6-3.4,3h0l-1.5-1.5-3.5-.4-1.3-1.7-1.7-.4v-1.2h0l3.9-6.7Z"/>
    <path id="MX-NA" d="M197.8,300.4l-.4.8-.3-.4.7-.3ZM194.5,297.7l1.2.6-.4.7-1.7-.9.9-.5ZM191.1,294.4l1.7.4.6,1.7-1.9-.6-.4-1.6ZM206.4,279.5l1.1,6.5-2.2-5.7,1.3.8-.2-1.6ZM211,271.5l1.4,1.7,2-1,1,1.1,2.2.5.4,1.6,1.1.2-.3,1.3-2.1,1.7,1.4,2.9,1.8-2.1,5.3,4.9,2.4-1.7h0l.9,2.6h0l-.7,3.4.3,1.9,1-.3,1.8,1.1.6,2.7,2.8.4,2,3.5-.4,4.1-3.7,1.8h-2.5c0,.1-.9,5.5-.9,5.5l-.8.5,1.2,3.5-4.9-5.3-1.9-.5-1.7-1.4-2.8,1.7h-2.2s-2.8,3.5-2.8,3.5h0l-.8-1.1-.9.4-1.9-.6,3.3-4.5.6.2.7-1-.3-4.4.8-2.5-4-2.3-2.8-5.4-.3-3.7.5-.2,2.1,1.9.2-1-1.7-.6v-1c0,0-.6,0-.6,0l-.8-6.2h0l3.5,1.1v-1.8c0,0-1.4-2.7-1.4-2.7l2.2-4.5Z"/>
    <path id="MX-NLE" d="M300.5,191.1l-1.2,1.3-1.8.5-.4,1.6,2.9.4-.7,1.5.8.5v2.4s.7.7.7.7l.3,2-1.5,2.4v.7c0,0,2.1.9,2.1.9l-.4,2.8,1.5.5.5,1.2h1.2c0,.1,1.9,4.3,1.9,4.3h.9c0,0,.7,1.6.7,1.6l1.3-.4.4,1.7-.6.2,2.8,1,1.2,1.8,5.5-.7.6,1.6v6.4c0,0,2.1,1.4,2.1,1.4l-4.1,3.9-2.8.5-1.1,2h-1.8c0-.1-.7-.9-.7-.9l-1.9,1.8.8,1.6-1.7,2.6-.7.3-.5-.9-1.7,2h-1.1c0,0-.8,1.3-.8,1.3l-3.1,1.7-.4,1.3h1.3c0,.1.8,1.8.8,1.8l-.5,4.3,3.3,5.6-1.4-.3-1.6,1.6-2.1-.3-1.5.8-1.6,3.5v2.9c.1,0-1.8-.2-1.8-.2l-.4,1.8h0l-2.5-.5-1.5,1.8-1.7-1.4-.8-4.4.7-3.5-.7-1.5v-2.8c.1,0-3.2-5.9-3.2-5.9l.8-1v-1.4c-.1,0-1.6-.2-1.6-.2l-1.1-1.5h0l.3-.3h0l.6-2.1-1.3-2.6v-1.3s1.8-.5,1.8-.5l-.6-3.2,1.1-2,1.5-1.1h1.1c0,.1.8,1.1.8,1.1l3.4.6.8-1.4-1.1-1.3-2.3-.4.3-.7-2.6-1.7-.6-2.4-2.6-.6-.7-2.7.6-1.8-1.7-1.2-.7-2-4.6-4.3v-.8s2.7-3.8,2.7-3.8l2.2-.2,1.6-1.1h2s1.4-1.8,1.4-1.8l.5-1.4-.3-3.2-1.7-1-.8,2-1.8-1.3-.2-2.1,1.2-1.9.8-.7,3.9-.6v-1.9c0,0,2.2-3.5,2.2-3.5l5.8.4,2.7-1.7h0l1.8,1.7Z"/>
    <path id="MX-OAX" d="M349.1,349l1.1-3.4,1.4,1-.4.8.8,2.3,2.9,1.2.6,1.2h.9c0,0-.3.6-.3.6l2-.3,3.2.8.5,3.2-1.6,2.8,1.5,4,3.8-.2,5.2-2.5.9.5-1.2,1.6,4.3,4.5.2,1.8,18,1.1h0l-1.2,4.7-1.9,1.7-1.4,4,.7,2.4-.3,2.3h0l-1.5.8-1.8-.8-.6-1-1.1,1.3.7.6,2.8.2,1.9,1.4h0v.4h-.1l-4.8-1.9-4.9-.7,2.2-2-1.5-.5-2.2,1.4.6-.8-1.4-1.6-1.1.3-.8,1.4h-.8s-1.1,1.6-1.1,1.6l5.3.3-6,.4-2.1.8-2.4,2.6-8.4,2.5-4.4,2.3-5,.4-4.8-1.3-5.5-3-8.9-.9-7-4.2-5.4-1.4h0l2.9-2.2.3-1.3,2.6-2.3v-.9c.1,0,2-1.1,2-1.1l.6-1.8-1.4-1.9-.2-1.9-1.8-.8.7-1.8-.4-2.9-1.7-3.8,1.2-3.4h0l3.1-2,3.1-.4,2.6,1.1,1.1-1.3-1.8-1.5,1.3-2.7,2-.6.4.8-.8,1.1,2.9,4.5,2.8-3.4,3.2.4,1.2-1.5,2.5-.5,1.7-2.7Z"/>
    <path id="MX-PUE" d="M328.7,312.4l1.8-3.8h2s0,1.2,0,1.2l-.8.5,1.2.4v1.1c-.1,0,2.1,2,2.1,2l-.9,1.6-1-.6-.7.5.3,4,1.7.2.9,1.2,2.3-2.5,4.5,1.6-4,9.4.7,3,5,1.9.4,1.2-.4.5h-3c0-.1.2,4.3.2,4.3l-1.2,1.9v1.9l.8,1.2,2.4.7,1.1,2.4h.9c0,0,1.5-1.1,1.5-1.1l1.6.5,1.2,1.4h0l-1.7,2.7-2.5.5-1.2,1.5-3.2-.4-2.8,3.4-2.9-4.5.8-1.1-.4-.8-2,.6-1.3,2.7,1.8,1.5-1.1,1.3-2.6-1.1-3.1.4-3.1,2h0l-2-1.8-2.7.7v-.7c0,0-2.7-1.1-2.7-1.1l.4-1.1h-1.9c0,.1-.8-1.3-.8-1.3l-1.7-1.1v-.8h0l3.4-3,2.1,1.6.3-.5-.8-4.9,1.7-4.5h0l-.6-7.3h1.2c0,0,3.8,4.1,3.8,4.1l2.6,1.4,2.5-1.8,1.8.6,1.7-2,2.7-.5.2-.7-2-2h-1.9s0-1.1,0-1.1l-3-2.8-1.7,1.3-1.3-.2h0l-.4-3,1.5-5-.3-1.4-1.3.3-.4-.9,2.3-1.2,2.4-2.5v-1.9Z"/>
    <path id="MX-QUE" d="M311.3,301.2l-.8,2-2.6.8-.8-.4-1,.9-.6,3.1-2,2.6.4,1.3-4.9,2.2-.6,4.1h0l-.8,1.3h-1.1c0-.1.5,1.6.5,1.6l-1.2,1.3-1.6.2h0l-3.7-4.2h0l-2.4-3.1v-1.7s-1.1-2-1.1-2l.4-2.4.5-.9,5.6-.4.6-.9.5.3.4-1.9,1.4-2.1,1-.4,1.1,1.1,2-1.2.5-1.6-1.6-.4.7-1.2-.2-1.6h0l-.4-.4,1.6-.8,1.7,2.2h3.2c0,0,.7-1.7.7-1.7l1.2-.3,3.7,4.6Z"/>
    <path id="MX-ROO" d="M505.7,312.9l-1.4,2.6-2.8,2.8-.3-2.3,1.4-2.4,1.4.2,1.7-.9ZM467.5,357l-.2-1.6,1.9-2.6v-4.9c-.1,0-1.1-3.2-1.1-3.2l.4-4.8,1-.8v-3.7c.1,0-2-2.9-2-2.9l-4.2-3.8h0l1-3h2.2c0-.1,2.4-1.6,2.4-1.6l2.3-.3,1.2-1.1.7.6,1.2-1.6,4.6-1.9,1.1-2.1,1.5,1-.2-1.4.9-1.7h3.4c0,0,5-3.3,5-3.3l2.3-5.3-.8-2.6.9-3-.2-3.3h0l4.8,1.1,1.9-.9.2-1.9,1.5.5,1.9,2.6.6,2.6.9-1.5-.5-1.2h.4c0,.1-.2,3.8-.2,3.8l.9,1-3.3,6.6-4.6,4.2-2.7,4.2-.9,2.5.8,3.2-.4.9-.5.5.9-1.4-.4-.6-.6,1.9-1.3.3-1,1.7-1.5.3v1.2c-.1,0,1,.6,1,.6v1s.9-.8.9-.8l1.4.2.4-.8,1.4.4-.5,1.6-1.2,1.2-.2-.5-1.6.9-.8,2.4,1.1.5,1.3-1.8h.8c0-.1-.2.7-.2.7l.8-.8-1.4,1.7-4.8,16.7-.9-.3.3-2.1-.9-.7v-.6c.1,0-2.2-1.3-2.2-1.3l1.3-2.6-1.1-3.2-2.1,2.5h.6c0-.1-2,3.6-2,3.6h-3l-.6.5-2.9,6.6-2.3,2.2v1c0,0-2.8-2.2-2.8-2.2l-2,1ZM499.5,296.2l-2.7,1.3-.9-.8,2,.3,1.6-.8Z"/>
    <path id="MX-SLP" d="M282.7,245.8l1.1,1.5,1.5.2v1.4c.1,0-.7,1-.7,1l3.3,5.9v2.8c-.1,0,.5,1.5.5,1.5l-.7,3.5.8,4.4,1.7,1.4,1.5-1.8,2.5.5h0l1.6,3.2v4.2c0,0,.7,1,.7,1l6.1,1.5,1-1.3,2.8,2.1,2.5,4.1h3.8c0,0,.4-.4.4-.4l1.2.8,2-.2h0l.5.8,4.3.8,1.2,2.7-2.3.5v2s-1.8.3-1.8.3l1,.2-.2,1.3,1.4,1.4-2.8,2,.6,2.1h.8c0,.1,0,2.2,0,2.2h-1.1s-1.8,3-1.8,3l-.6-.8-.9,1.5-1.5-.7-.7-1.5-1.4.5h0l-3.7-4.6-1.2.3-.7,1.7h-3.2c0,0-1.7-2.3-1.7-2.3l-1.6.8.4.4h0l-1.7.8-1.4-.6-1.4.4-3.5-3-2.5-.8-.7.5-.3,1.9-2.7.4-4.9-3.2-7.7-2.2h0l1.8-4.6-.9-2.4,2.2-5.6-1.7-1.6-3.7,3.3-2.8.4-1.5-2.5-2.1-.6-3.9-3.1.8-4.3-.7-3.5,1-1.2,1.5.6,1.9-.4.9-1.6,3.7-1.9,2.2-3.2,3-1,1.4-2.8-.6-.7.5-2.2,2.4-1.2,1.1-2.4,1.6-.3,1.9-3.1Z"/>
    <path id="MX-SIN" d="M167.7,237l1.2.9.2,3-1.4-2.1v-1.8ZM164.6,235.7l3.2,3.5.5,1.6-3.6-5.1ZM150.7,214.8h.6c0,0,0,1.1,0,1.1l1.1.9.3-1.1-1.2-1.9h0v-1.1c0,0,.2,1.2.2,1.2l.6-.5,1.1,1.7,3.9-2.2.4-2.1,2.6-.6,1.3-2.4,1.2-.3-.2-1.6,2.2-3.6h3.5c0,.1,0,1.9,0,1.9h1.2s.7,1.5.7,1.5v3.9s.8.6.8.6l2.8,7.3,5.9,1.3,3.5,6.9h0l.6.8-1.8,1.9.7.8-.8,2-.4,4.5,2.2,3.4-.2.9.8.6h1.8c0-.1.6,1.5.6,1.5l.8.2,3.1,7.6,2.2-.3,2.2-2,2.5.7,2.2,1.6,1.9,4.1,1.2,4.7,2.3,3.1.8,4.2,1.7,4.2,2.2-.2,1.3,1.4h0l-2.2,4.5,1.5,2.7v1.8c0,0-3.6-1.1-3.6-1.1h0l-.6-2.6v4.4c0,0-2.3-3.7-2.3-3.7l-8.6-8.6,1.1.4-.9-.7-.7.3-1.5-3.3-4.5-4.5-1.3-3.2-4.7-4.4h.8c0-.1-.2-.8-.2-.8l-.8.4-9.4-6.4,4.6,2.9.5-1.3-1.1-2h-.8s0,.9,0,.9l-.7.2-.7-.9-1,.2-1.1-1.5-2.5-.9-1.3-2.4,1.2.6.4-.7-.7-.8.3-2.3-1.1-2.1-1.5-.4-1.4-1.6h-1v-.7c0,0-.7-.4-.7-.4l-.4,1.3-1.2-1.4-3.4-1.7v-.7c0,0-.7.2-.7.2l-1-1.5.2-1.2-1.8-.4-.4,1.8-1-.8-1.1.8-1.2-1.3,1-.9,1.2.3.9-.8-.2-.8-1.3.4-.5,1.2h-1.5s-1.3-1.7-1.3-1.7l.8,1.5-2.8-1h1.2s0-1.3,0-1.3l-2-.7-.5-3.4,3.1-6.2-.9,2.6.5.2.9-3Z"/>
    <path id="MX-SON" d="M151.3,214.9h-.6c0,0,.6,0,.6,0ZM128.8,196.5l.9,1.4-.9-.6v-.8ZM102.3,163.1l1.4,4.1-1.8,4.6-4.3-2.3,1.4-1.3-.2-2,.8-2.4,2.7-.6ZM65.1,117.1l.5.5-.9-.3.4-.2ZM62.7,116l1.9,1.8.2,1.1-2.2-1.3v-1.7ZM157.7,125l.7.7-.6.8,1.5,4-.3,1.9-1,.4,1.7,1.7v1.5c0,0,.7.6.7.6l-.4,1.5,1.9,5.6-.6,2.1.9.8-1.2,5.4,1,1.2.4,3.9-.4,6.4-1.1.8v1.7c0,0-1,.8-1,.8l.3,4.1-1.1,2.3.3,3.1,2.4,1.7-3.2,2.3-1.9-.9-2.5.8-.7.9,1.1,1.1v2.2c-.1,0,1,.5,1,.5l1.3,1.9-.2,2.6,2.1,1.5,2,4.8-.9,5.8,2.2,1.2h2.4c0-.1-2.2,3.4-2.2,3.4l.2,1.6-1.2.3-1.3,2.4-2.6.6-.4,2.1-3.9,2.2-1.1-1.7-.6.5-.2-1.2v1.1h0l-.4.3-3-4.9-1.5-.7h.7c0-.1-.8-1.2-.8-1.2l-.7-.3-.2,1.1-2,.4-2.3-1.3-2.1-4.3.7.8-.3-2.1-1.1-.9-1.1.6-3.8-1.2-2.8-2.4v-1.5s-1.2-.4-1.2-.4l-1.2-4.1.9-1.1-.6.4.5-1.2-.4-1.5,1-.7-4.5-1.8-1,.5.2,1.2-1.4-.9v-.9c-.1,0-1.8.3-1.8.3l-1.6-1.1-1.6-1.5-2.9-5-4-1.7-.8-2.4-2.8-3.1.7-.4.3.7.4-.8-2.8-1.2-1.1-1.7-1.2-.3v-2.6c.1,0-.9-1.2-.9-1.2v-2.3c0,0-2.9-.7-2.9-.7l.5-2.5-3.2-4.2-1.3-3.2-1.3-.5-.4-5.6-1.2-1.2-.7-3.2-1.5-1.3-1.6-2.9-.6-2.2,1.2-4.6-.6-2.2-2.2-1.5-.5.5-5.7-1.5-.5-3-3.9-2.4-1.1.5.2.7-1.2,1.3h-1.8c0,0-7-4.9-7-4.9l-3.3-1.2h0l-3.6-2.4.7-4.8-.9-1.3,1.9-4h1.7c0,0,59.1,21.5,59.1,21.5h36.3Z"/>
    <path id="MX-TAB" d="M415.1,345.3l1.1,2.9,2,1.3.6-.2,2.3,5.1,2.7,2.4,3.2,1,1.9-.5.2-2.4h1.8c0,0,2.3.4,2.3.4l2.5,2,2.9.7v1h0v9.1c-.1,0-6.8.1-6.8.1h0l.8-.8-.7-1.1-3.7-1.5.5-1.7-.8-2.1-1.6-.8-.7-2.1-1.9.3-1.2-.8-.4,1.2-2.3-.3-.3,2.1-2.1.8-6.8,5.2-1.7-2.4h-1.6c0,0,.2-1.2.2-1.2l-1.3-1.4,1-3.4h-1.8c0,0-2.7-1.8-2.7-1.8l-1.4.6-.5,4.5-3.6,5.4h0l-1.2-.5-.8-4.7-2.9-1.3-2.5-2.1-.7-4.9,1.3-.4-1.4-.2,1.2-.6h0l2.8-1v.8c0,0,1.8-.3,1.8-.3l.6-1.1h2.1c0,0,.3-1.1.3-1.1l2.8-.6h3.4c0-.1.6.1.6.1l-.4.9h1.5c0,0-.9-.9-.9-.9l3.9-.3,3.3-2.8,3.3-.6Z"/>
    <path id="MX-TAM" d="M336.5,233.7l-1.5,4.5v-1.4s1.5-3.1,1.5-3.1ZM331,285l-1.3.9-2-2.4-2.6-1.1-.5-.8-1.6.2v.9c-.1,0-1.4.3-1.4.3l-1.5-.8-3.7.8h0l-2,.2-1.2-.7-.4.5h-3.9c0,0-2.5-4.2-2.5-4.2l-2.8-2.1-1,1.3-6.1-1.5-.8-1v-4.2c0,0-1.5-3.2-1.5-3.2h0l.4-1.8,2,.2v-2.9c-.1,0,1.4-3.5,1.4-3.5l1.5-.8,2.1.3,1.6-1.6,1.4.3-3.3-5.6.5-4.3-.8-1.7h-1.3c0-.1.4-1.4.4-1.4l3.1-1.7.8-1.3h1.1c0,0,1.7-1.9,1.7-1.9l.5.9.7-.3,1.7-2.6-.8-1.6,1.9-1.8.7.8h1.8c0,.1,1.1-1.9,1.1-1.9l2.8-.5,4.1-3.9-2.2-1.4v-6.4c0,0-.5-1.6-.5-1.6l-5.5.7-1.2-1.8-2.8-1,.6-.2-.4-1.7-1.3.4-.7-1.7h-.9c0,0-1.9-4.1-1.9-4.1h-1.2c0-.1-.5-1.3-.5-1.3l-1.5-.5.4-2.8-2-.9v-.7c0,0,1.5-2.4,1.5-2.4l-.3-2-.7-.7v-2.4s-.8-.5-.8-.5l.7-1.5-2.9-.4.4-1.6,1.8-.5,1.2-1.3h0l2,.5,1.3,1.4-.2,1.1.7.3-.8,3.1,1.4,1.1v4s2.5,2.9,2.5,2.9l1.8,5.6,1.2,1.1-.3.8.6.6,4.3.5,2,2,3.7.5,3.9,3h6.2c0-.1.7.5.7.5h1.8s3.5,3.2,3.5,3.2l1-.2.4-1.4,3.2-.4-.8,5.5-3.6,7-.5-.2,1-2.7-2.2-1.3-.6.7,1.2,1.2-1,.4.4.9-.5.2-.2-.9-.5.4-.2-1.1-1.1-.2-.4,1.9h-1s1.8,1.6,1.8,1.6l-1.3,3.3,1.5.9-1.4,1.4.6,3.6-.5,2.7-.4-1.2-1.2-.2-.3.9.7,3,.9-1.6.2,2-.4,4-.6.2.6.3.4,7,.2-1.9-.5,15.3-2,4.7.6.5-.2,2.4,1.3,3.1Z"/>
    <path id="MX-TLA" d="M325.2,327.9l1.3.2,1.7-1.3,3,2.8v1.1c0,0,1.8,0,1.8,0l2,2-.2.7-2.7.5-1.7,2-1.8-.6-2.5,1.8-2.6-1.4-3.8-4h-1.2c0,0-1.4-1.4-1.4-1.4h0l5.1-1.1,1.4-1.7,1.5.3Z"/>
    <path id="MX-VER" d="M337.2,298l-1,1.9v-1c0,0,1-1,1-1ZM333.8,292l4.6,4.6-1.8,4.8.9-4.3-3.7-4.3-1.2-2.8,1.2,1.9ZM316.5,282.9l3.7-.8,1.5.8,1.2-.3v-.9c.1,0,1.7-.2,1.7-.2l.5.8,2.6,1.1,2,2.4,1.3-.9h0l1.8,9.9,1.7,3.3,1.3.3v1.9c0,0,4.9,11.3,4.9,11.3l11.5,13.7,1.1,4.7,1,1.3.3,2.8,2.6,1.8,1,2.3,1.5.2,1.2,3.3,2.2,1.1v.5s-1.9-.9-1.9-.9l.9,1.3-.6.4,1.7-.5v-.8c.1,0,3,1.2,3,1.2l6,.2,2.3,2.2,3.8.8.9,2.1,1.8,1.8.4,1.5,1.7.8,7-1.4h0l-1.2.6,1.4.2-1.3.4.7,4.9,2.5,2.1,2.9,1.3.8,4.7,1.2.5h0l-4.2,3.1h0l-18-1.1-.2-1.8-4.3-4.5,1.2-1.6-.9-.5-5.2,2.6-3.8.2-1.5-4,1.6-2.8-.5-3.2-3.2-.8-2,.3.3-.6h-.9c0,0-.6-1.2-.6-1.2l-2.9-1.3-.8-2.3.4-.8-1.4-1-1.1,3.4h0l-1.2-1.4-1.6-.5-1.5,1.2h-.9c0,0-1.1-2.5-1.1-2.5l-2.4-.7-.8-1.2v-1.9l1.2-1.9-.2-4.4h3c0,.1.4-.4.4-.4l-.4-1.2-5-1.9-.7-3,4-9.4-4.5-1.6-2.3,2.5-.9-1.2-1.7-.2-.3-4,.7-.5,1,.6.9-1.6-2.2-2v-1.1c.1,0-1-.4-1-.4l.8-.5v-1.1s-2,0-2,0l-1.8,3.8h0l-1.4-.4-5.9,5-.9-.5-.7-1.6.7-4.4,2.1-2.2,1.1.9h.9c0-.1.2-2.6.2-2.6l1.2-1.6-1.6-2.2-3.4-.3-1.2-1.1.2-1.7-.7-.6h0v-2.1c0,0-.9-.1-.9-.1l-.6-2.1,2.8-2-1.4-1.4.2-1.3-1-.2,1.8-.3v-2s2.2-.5,2.2-.5l-1.2-2.7-4.3-.8-.5-.7Z"/>
    <path id="MX-YUC" d="M492.9,297.9l.2,3.3-.9,3,.8,2.6-2.3,5.3-5,3.4h-3.4c0,0-.9,1.7-.9,1.7l.2,1.4-1.5-1-1.1,2.1-4.6,1.9-1.2,1.6-.7-.6-1.2,1.1-2.3.3-2.4,1.5h-2.2c0,.1-1,3.1-1,3.1h0l-.8-2.5-2.7-3.8-2.4-1.3-3.3-5.9-1.3,1-1.6-.5-.6-1.3-2.6-.3v-4.6h.1l.8-2.6-1.3,2.6.2-1,1.3-2.7,7.8-3.9,15.6-2.4,3.2-1.2.4-.9,5.5-.6,2.3-1.2,4.6,1.1,1,.9h2.8c0,.1-2.4-.4-2.4-.4l3.3.8Z"/>
    <path id="MX-ZAC" d="M252.8,237.4l.4-1.4,3.4-.7,5.9.4,3.2,1.7,2.6,3h1.7c0,0,.4,2.2.4,2.2l3.8-.9,1.9.2,2.9,3.7,1.3.5,1.5-.9,1.3.3h0l-.3.3h0l-1.9,3.1-1.6.3-1.1,2.4-2.4,1.2-.5,2.2.6.7-1.4,2.8-3,1-2.2,3.2-3.7,1.9-.9,1.6-1.9.4-1.5-.6-1,1.2.7,3.5-.8,4.3,3.9,3.1,2.1.6,1.5,2.5,2.8-.4,3.7-3.3,1.7,1.6-2.2,5.6.9,2.4-1.8,4.6h0l-.5.6-.6-.4h0l-4.5-2.9-2.2-.6h0l-1.1-2.8-4.6-3.3-1,1.4-4,1.9-3.5,6.7,1.5,2.2h0l.4,2.6,1.8,1.1-.9,2.5-3.7,2.7h-1.8s-.6,1.6-.6,1.6l-1,.6-1.1-.3-2.2.8-1.8-1h-1.4c0,.1-1.5-1.8-1.5-1.8l-1.7-.7,3.3-1.8-.2-1h-1.7c0-.1-.5-1.7-.5-1.7l2.2-1.5v-2.7c0,0,3.1-2.4,3.1-2.4l3.3-1.6,1.2-4-2-.6.2-1.5h-1.4c0-.1-1.2.4-1.2.4l-.2,1.2.8.6-2.1,2.3-3.5.3-.3-.7,2.4-4.6-.4-1.2-1.8-1.2-2.6.8v4.4l-.2.7h-.7c0-.1-.8-1.2-.8-1.2v-2.1s2.8-4.9,2.8-4.9l-1.1-.6-3,1.2,1.1,3.8-.6.7-1.1.7.2-2.6-2,.7-.2,1.9-.9-.2-.7.8h0l-.9-2.6h0l1.4-2.9,2.2-1.3-.4-6.3,1.2-2,.9-4.8,3.2-3.3-.9-7.9,1.5-.5,5.6-6,3.9.6,2.1-.4,2.3,1,.5-.6,4.9-.2-.2-.9.6-.3-.6-2.5-.8-.3.5-3.1-2.2-1.9-.2-1.4Z"/>
  </g>
</svg>