<?xml version="1.0" encoding="UTF-8"?>
<svg id="Layer_1" xmlns="http://www.w3.org/2000/svg" xmlns:amcharts="http://amcharts.com/ammap" version="1.1" viewBox="0 0 512 512">
  <!-- Generator: Adobe Illustrator 29.1.0, SVG Export Plug-In . SVG Version: 2.1.0 Build 142)  -->
  <g id="_x3C_defs">
    <amcharts:ammap bottomLatitude="10.707200" leftLongitude="-87.690700" projection="mercator" rightLongitude="-82.737853" topLatitude="15.026286"/>
  </g>
  <g>
    <path id="NI-AN" d="M416.9,180.2h-.9c0-.1.7-.9.7-.9l-.4-.8,1.7-1.2.3,1.1-1.3,1.8ZM499.2,102l.3,3.6-1.4,2.4h-2.3c0,.1-1.8-.8-1.8-.8l-1.9.6,1.5-1.5,2.1-4.1,3.5-.2ZM458.8,43.6l-.8,1.6-.3-1.1-.8.5v-.9c0,0,2.1-1.1,2.1-1.1l-.2.9ZM438.3,42.2l1,.3.5-1.4,4.1,1.6,2.2-.4.2.8-1.3,1.1.9.6.9-1,3.7.3,2.7-1.3,1.8.3,1.8,1.3v1.2c0,0-.9.2-.9.2l.4-.9-.5.3-2.2-1.3-.9,1.5,1-.4-.3,1-5.9,6.5-1.3,5.2-2.8,6.5-2.6-.2,1.9-2.1v-.5c0,0-1.3.5-1.3.5l.5-2.2,2.9.8-1.5-3.8-.4-3.5-.9-1.2-2.3.2-1.6,1-3,5.2-2.5-.7,1.1,1v2s-2,1.7-2,1.7l.7.6,1-1,.2,1.2,1.1-.5,1.3,4.8,2.8,2.3,2.4-.2.3-1.2-.8-1.3-2.8-.5v-.5c0,0,2.6.2,2.6.2l2,2-.6-2.4,1-.7,3.7,18.2,4.1,12.9-.7-1.3h-1.8c0,.1-1.3-.9-1.3-.9l-.3-2.4-1.9-2.9h-.7s0,1.1,0,1.1l1.1.6-.3,1.9,1.1-.4.5,5.2,2.2-.6.7-.9,1.5,2.4h1c0-.1,1.8,12.2,1.8,12.2l-2,6.2-6,12.1,2.1-4.9v-2s2-6.3,2-6.3l-2.5-3.2.2-.6,1,1,.2-.6-3.8-6.7-.9-.2-.9,1.7,2.4,3-4.4-2.4,1.7,3.5-1.4.2-.3-1.1-1.3.5-.2,1,1.4,1.6,1.4-1.3-.4,3.5.9,2.4,1.2.6v-1.2c0,0,2.1,1.4,2.1,1.4v-1.1c0,0,.7.3.7.3l-.6,2,1.3,1-.3.9v1.4c.1,0-1,2.5-1,2.5l-1.1-.6-1.6,1.8,2.7-.8-2.3,5.8-4.5,4.6-.9,2.2-2.7,3.1h-1c0,0-2,1.9-2,1.9l-2.1,3.3-.7,2.7-1.3-2.1v-1.5c0,0,2.2-1.8,2.2-1.8l.4-1.7-1.8,1.4-2.9-3.6.9-2.3-1.5-1.1v-1.3c.1,0-1.7-.2-1.7-.2l.5-.6-.7-3.5-3.6-1.2-1.4-4.7,1.5-.3-.5-.5,1-2.4-3.9-2.9v-2s-1.2-.2-1.2-.2l-1.2-3.7-1.1-.2-.9.9-2.3-1-2.2.7-6.4-3.1.9,1.1,2.3,1,3.5,1.7,1.4-.7,2.2,1,1.5-.9.6.5.9,3.1,1.2.4.2,1.8,3.7,3-.9,1.7-1,.3.3,3.4,1.3,2.3,3.4,1.1.9,2.3-.5,1.8,1.6.3-.2,1.1,1.4,1-.7,2.1,3,3.5-.4,1-1.3.5-.5-1.3-3.1-1.3-1.4,2.6.2,1.2,2.7-.6.7.5-1,2,.5,1.5,2.4-.5,1.2.5-.9,4.8.4,1.5-2.7,5.4-1.9,8.5-2.4,16.4-1.2-3.5,1.2-4.7-.6-1.8,2-3.2-1.2-2.3-3.2,1.1.6,1.2,1.1.4-.3.7-1.4.6-2.5-.5-1.6.6-.6,2.2-2.5-3.2-.5-3.1-2.4-.9-2.2-2.6-.4-2.1-.5.5,1,3.5,3.9,2.3.8,3.1,2.3,2.8-1.3.4,1.9.4,2.4,4.3,1.4.5-.2.8h2.2c0,0,.3,1.5.3,1.5l-.8.5-.8-1v1s2.9,1.4,2.9,1.4v1c0,0-1.6-.2-1.6-.2l1.8,1.7-2.3,5.8-1.9-2-2.5-.4,3.2,2.2-.7,1.2,1.3-1-.7,5.3-.9.5.5-1.7-1.4.2-1.8,2.5h-1.7s-.7,2.2-.7,2.2l-1.4-.3-4,2.8-.8-.2-.4-2.5-3.9-1.1h-3.1s-.9-1.9-.9-1.9l-2.5-2.6-1.9-.6-.2-2.4-3.1-3.5v-1.1c0,0,1.7-1.7,1.7-1.7l-.9-3.2-2.1-2.4-3.6-1.3-2.3,1.4-1.9-.2,1.5.9,2.6-1.6,3.6,1.4,1.8,2.6.4,2.2-1.3,1.2-.3,1.9,3.3,3.5-.4,3.2-1.8.5-2.5,1.8-2.2.6-2.1-1.6h-4.8c0-.1-1.7.5-1.7.5l-2.1-1.5-2-.4-1.4-1.1.6-1-1.8-.3-.7.6-.3-.8-1.8-.6-2.4.8-.9-1.2-1.7,1.2-1.9.2-6.2-2.3-1.5,1.3-.5,1.5h1c0,.1,0-1.2,0-1.2l1.3-.8,4.8,2.1h2.8c0,0,1.5-1.2,1.5-1.2l1.1,1,2.7-.8,1.4,1.2,1.5-.5v1c0,0,2.1,1.6,2.1,1.6l4.7,2.1,4-.8,4.3,1.8,7.4-3.6,3.4,2.7.9,2.3,7,.7.4,2.1,1.3,1,4.6-2.6h1.6s.9-2.3.9-2.3l2.5,2.9,2.3-3.6-1.2,14,2.9,24.4h0l-9.9-.4-17.6-11.7-.5-1.3,3.1-6.1-.8-1.1-2.6-.2-2.5-1.9h-4.3s-16-2.7-16-2.7l-2.9-1.1-10.3,1-3.5,2.2-.9-.2-1.2-1.7-2.1.6-1.4-.5-3,2.7-20.8.5-20.7,3-5.6,7.8-7.2,2.1-3.1,4.1-8.7-.6-4.5-1-4.9,3.4h0l-1.6-2-.4-1.8.6-1.4,3.6-2.2-.3-.8,1.3-2-.3-1.4-4.2.5-1,.9-.3,1.6-1.4-1.6h-2.1c0,.1-.5,2.7-.5,2.7l-1.6-2.1-1.3,1.4-1.2-.2-1,1.4h-1.8s-1.7,1.6-1.7,1.6l-3.6-2.1-.8-1.9-1.5-.3-2.5-2.6-2.7.6-2.3-1.6-2.1-3.6-2.4-1.2-1.4-2.6-4.4-4.7-1.9-5.4h0l-.6-1.8.7-2.1,6.5-5.3,2.9-1,1.3-2.1v-2.5c-.1,0,1.5-4.9,1.5-4.9l-3.4-4.5.5-1.4,3-2.2,1.2-5.5,7.6-.2,13.5-8.8,9.6,4.8,20.3-33-1.3-5.9,3.8-19.6-11.6-.7-5.1-6v-1.2c-.1,0,1.5-.9,1.5-.9l-.6-3.5,1.9-3.7-1-1.6-1.5-.2-1.4-1.7.6-1.4-.7-1.3,1.6-3.6-.3-1.3-2.1-1.5h-1.3c0,0-1.4-.4-1.4-.4l1.6-2-2.3-2.2v-1.3c0,0,1.7-.4,1.7-.4l.8-1.5-.5-1.4,4-3.7,2.6-1.7,3.2-.7,1.6-4,1.3-1.2,3.8.2,4-1.6,1.6.6,2,3.4,2.7,1.8-.2,1.5-1.5.4,1,.8,1.2-.6.2,3.3,3.4,2.3.7,2.7h.9c0,0,1.5-2.6,1.5-2.6l2.1,1.9,2.2-.5.5,1,4.2.4.8.8,1.2-.3.9.7,3.5-.8-1.2,1.2.2,1.3,2.3-.6,1.3,1.4,2.9.7,1.1-1.6,2.4-.2,2.3-1.2.2-1.1,2.5-2.4,1.8-3.5,2.1,1-.8,1.6.3,1,2.1.5,1.7-1.1,1.3,2.1,1.7.5,2.4-2-.8-.7.3-1.6-.8-3.5,2.8-2.2,1.6.6-.6,1.7,4.8,2.4,3.3-.6,1.7-1.2,3,.4v-1.5c0,0-1.9-3.3-1.9-3.3l.5-1.4,2.6.2.5,2.9,3.3-1.1.5,2.2,1.6.4,2.3-1.1,2.3.9,2.5-1.1,2.2.8-.4-2.6,1.8-.4,1.9,1.3.9-.3.4-1.8.8,1.9,2.5-.5,1.6-1.7,3.9-.3-2.2-1.4.3-.5,2,.8,1-1.7,2.1,1.3.6-2.2,2.1.8-.3-1.6,3.3.6.2-1.2-1.4-.6,1.8-1v-1.3c0,0,1,.6,1,.6l4.2-1.5,1.3.2.3,1.3.9.3-.3-1.1,1-1.3-.5-1,2-.6-.3-1.2,3.6.3.2-2.6,1.7-.4-.7-1.2,1.7.3-1-2.3.4-.7,1.6.7-.3-2.3,1.1,1,1.1-1.9,1.4-.5.8.4v1.3s1.5,1.2,1.5,1.2l1.2-.3,1.6-1.1h1.5s1.6-1.5,1.6-1.5l.2-2.5,3.8,1.6.6,1.1Z"/>
    <path id="NI-AS" d="M403.3,357.5v.5c0,0-2.3-1.7-2.3-1.7l-.7-2.9v-4.7c.1,0,2.5-4.2,2.5-4.2h.8c0,0-1.7,3.3-1.7,3.3l-.3,3.6.4,3.3,1.3,2.8ZM268.3,237.3l4.9-3.4,4.5,1,8.7.6,3.1-4.1,7.2-2.1,5.6-7.8,20.7-3,20.8-.5,3-2.7,1.4.5,2.1-.6,1.2,1.7.9.2,3.5-2.2,10.3-1,2.9,1.1,16,2.7h4.3s2.5,1.9,2.5,1.9l2.6.2.8,1.1-3.1,6.1.5,1.3,17.6,11.7,9.9.4h0l3,11.8-.9,1.4-1-.4.5-3-.4-1.1-.7.4.7.4-.7,1.7.5,2.3-6.3-1.6-.2.7,1.5.9-.5.4-3.3-1.6-1.4.8-4.3-1.4.3-1.6-2.9-1.3-.8.5-.8-1.1-1.3.9-.4-1.3-1.9-1.3-.5-1.9-6.8-2.9-.3-2.6-2.6-3.1,1.1-1.1-1.4-3.7-1.8-.4.8-1-.3-1.9-1.7-.6-1.8-2.1.3-2.5-7.2-4.7v2.3c.1,0-3.3.3-3.3.3l-2.3,1.6-2.5-1.5-.4,1.8-4.8,1.2-.7,2.3,3,1.7-1.5.4-1.2,2.4-8.2,1-6.7,3.5-3.5,5.1-3.3,2.4-1.7.4-1,1.1-2.3-2.7-4.7-1.3-1.9-1.8-5.5-.2-1.2,1.6,1.2-1.1h4.8c0,0,2.3,2.1,2.3,2.1l4.4.9,1.5,2.7,1.9.6,1.1-1.3,1.9-.5,3.4-2.6,2.8-4.6,3-1,4-2.6,6.9-.6,1.6-.9.9-2.1,1.3.2.3-1.5-2.7-1.2.5-2.2,5.2-.6-.2-2,1.7,1.4,3-1.8,1.2.7.6-.9h1.8s0-1.6,0-1.6l5.8,3.5v2.8c0,0,2.3,2.6,2.3,2.6h1.2s-.7,1.2-.7,1.2l.9.8-1,1,2,.5,1.2,1.9.5,1.3-1.3,1.4,2.7,3,.5,3.1,6.7,2.5.4,2,2.8,3.2.9-.7,1.4,1.1.7-.8,2,1-.4,1.3.7.6,10,1.9.2-.7-1.7-1.3h.7c0,.1,3.9,1.7,3.9,1.7h2.1s.2,1.8.2,1.8h.8c0-.1.4-2.3.4-2.3l.5-.4.2.6-1.1,3.3-2.2,14.5-.9,10.1.4,4.4,2.1,7.1,3.1,4.2-.4,7.5-1.1.7-4.8-.8-4.9,1.3-1.5,1.4-1-1.1,3-4.5-3.4-6.4.2-7.7.6-1.1.2,1.7h4.3s2.2-2.7,2.2-2.7l-.5-9.5,1.8-5.1-1.7-.2,2-2.8-.4-4.3-6.6-2.2-1.3,1.6-2.4.7-.5-6.8-3.2-1.7-1.4,2.9,1.2,2,1.9.2-.4.8-2.7.2-7.9-3.4-4,1.6-.3,2.5h-2.4c0,0-1.1,2-1.1,2l-1.3-.5-1.3.5-3.3-2-1-1.4-.9.9-1.7-.2-1.5-2.2v-1c.1,0-1.2-.3-1.2-.3l-2.1-1.3-3.8-.8-1,1.6-1.7.2,1.7.2,1.1-1.7,3.1.8,3.3,1.7v1.2s1.7,2,1.7,2l2.1.5.8-1,2.1,2.3,2.5,1.2,1.6-.6.6.8,1.5-2.2h2.7c0-.1.3-2.8.3-2.8l3-1.3,1.4.3,5.5,2.6,2.3.6,2.7-.3,1.1,1v.8c-.1,0-3.7-.5-3.7-.5l-6.9-2.9-1.2.9v1.8c.1,0,3.8-1.1,3.8-1.1l-.2,1.9-1,.5,1.8.7-.3,1.4h3s1.2-2.3,1.2-2.3l1.5-.3,3.2,1.8-.3,3.5,2.7.3.6,2.1-.6,1.6,2.4,3-.6,3.4.7,3.1-1.3-.2-1.4,2h-1.8c0-.1,0,1.3,0,1.3l-5.5,3.8-4.7.6-2.5,2v5.4c0,0,.8.3.8.3l1.7-1.5.3.6,1-.2.6,2.1.9,5.7-1.1,2.7.6,3.2,1.6,1.5,4-1.7.5.4-1,6.2h.5c0,0,1.2-5.8,1.2-5.8l2.3-2.4,1,.7-3.1,4.4-3.1,8-1.1,8.8.5,12.3-2.5-2.1-1.6-4.1-.6.2.5-.9,1.2-1.3v.7c.1,0,1.9.4,1.9.4l.2-1.8-.9-1v-.7s.8.3.8.3l-1.6-3.7-2.5-2.2-.5.4,2.2,1.7,1.2,2.5-2.9,5.8-.5-5.1-1.7-2.6,1.6-.6-.2-.9-2.1,1.1-4-1-3.7.4-.2-1.8-.8,1.8-1.9-1.2,1.3,1.5,1.2.2-.2.6-3.8,1.4-.3,1.7-3.4.2-3.2,3.7-3-2.1-1.4,1-1.7-1.3-2.4,1.1-1.8-2-2.5-1.3-3.2,1-1.7-3.5-2-.9-1.5.5-.7-1-4.2.2-1.7-2h-1.4s-1.4-1.1-1.4-1.1l-1.7-2.7-1.4-3.3,2.4-2.1v-1.2c.1,0-3.4-7-3.4-7l-3-.4.9,1,2.2.2,1.3,3.3.6.7.8,2.4-2.4,3.4,2.4,5.4,1.7,1.6-3.6.4-3.4,2.7-7.7,2,8.5-1.6,3.3-2.4,5-.8,1.3,1.8,1.1.4v2.6c0,0,.8,1.2.8,1.2l-2.3,4.3v1.4c0,0-1.1,1.4-1.1,1.4l1.8-1.5.9-3.6,1.2-1.7-.9-1.8v-2s2.7-.8,2.7-.8l1.3.9,1.2-.5,2,.7,1.3,3.4.8.6,1.9-1,1.3-.3.4.8,1.7.4,2.3,2.8,2.2-1.2,1.2.8,2.1-.7,3.4,2,3-4,4-.2-.2-1.7,2.5-.3,4.3-2h2.3c0,0,3.6,2,3.6,2l.9,2.6.5,6.6-.5.3-.5-.8-.9.9-1.6-1.7-2.8-.3,2.4.4,2.4,2.6v3.9c0,0-1,.9-1,.9l-.2,1.7.7.8-1.9,2.3-1.3.5-.5,2.4-2.3,1.3-1.2,1.9,2.4,1.2v2.3c-.1,0,1,1.5,1,1.5l2,.8.5,1.3,3.8-.5-.9-2.4,1.1-4.4,3,1.6,2.8,9.6,1,6.5-1-1.2-.8.4,2.3,1.9.5,5.4,1,.5v1.2c.1,0-.5,1.3-.5,1.3l-2.4-1.1-1.2.4-2.8,3.5-3.7.4-2,4.6-2.3-.3.8.9,1.1-.3-.6,3.6-1.8,3.2-2.7-.3-1.5,1.6-2.3,5.2-.5,8.6,2.2,8.1.5,4.2,5.2,13.5,6.5,9-2.8-1.9-5.8-8.5h-1.8c0,0-2.8-.5-2.8-.5l-1.7,1-.5-.3-1.9-6.9-1.9,1-2.1-.4v.7s-1.8.5-1.8.5l-1.8-.7-1.1,1.2-3.8,1.3-1.8-1.9-.5-1.8.5-.9-1.4-.3-2.5,1-4.1-.5-5.3-2-5.1-7.7-11-5.3-.8-1.4.3-4.3-.6-1.7-5.5-2.3-6.6-4.5-5.6-1.4-1.4-1-1.3-11.3.7-2.9,2.4-3.9.2-2.1-3.2-5.2,1-5.8-2.3-1-2.6-8.8h0l5.7-.2.4-1.6-2-2.4-.5-2.3-13.3-5.6-2.2-2.2-1.2-10.3-2.7-4.5-2.5-8.7,1.4-4.3-3.8-6.5-2.8-2.9-2-4.8v-1.1s2.3-3.1,2.3-3.1v-1.5c0,0,1.1-.7,1.1-.7l-3.7-2-2.2-5.9-1-.5-.4-2.2-3.5-2.9-2.3-3.7h0l-1.5-1v-3.5c0,0-1.4-4.5-1.4-4.5l-3.6-3.7-2.4-1.2-4.1,2.1h0l-2-1.9-4.3.4v-2.3s-1.7-4.3-1.7-4.3l1-4.3-2.6-4.9,2.9-5.9h1c0,0,1.2,2.7,1.2,2.7l.8-4.6,2.5-1.7,2.2-3.6Z"/>
    <path id="NI-BO" d="M267.2,267.3l4.1-2.1,2.4,1.2,3.6,3.7,1.5,4.5v3.5c0,0,1.4,1,1.4,1h0l-5.8,9.4-.8,6.7-4.2,5.7-2.6.6-1.5,1.3-2.2-1.2-3.4,1.3-2,1.2-3.1,3.5-5.3,3.3-1.8-.9-1.7,1.3-8.7,1.4-3.1.2-1.5-1-1.7,1-1.8-.7-4.3.3-3.5,1.1-2.3,3.4-.9,6.3-3.3,1.9-.6,1v3.8c-.1,0-3.8,6.2-3.8,6.2l.7,3.9h0l-2.6-.7-.9-2.5h-3.5s-2-1-2-1l-1.3-1.7-1.2.3h0l-.4-1.7-5.2-1.6-.4-3,.5-.6-.8-1.1h0l-.2-1.6,1-.9-.6-1,2.1-3.3-7.7-6.2-2.4-2.8.7-2.9,1.1-1-6.2-7.3-.4-1.2.6-.5-1.3-2.3,1.3-2.4h0l3.6-3.2,4.8-2.3.7-2.1-.4-2.6.8-.3,10.5-.7,7.2-2,6,1.2,2.3-1.6,1.5.3,1.2-1h2s2.2-3,2.2-3h2.9l1.2-.8,2.8.6,2.4,1.6,1.2-1.5,3.5-2.1,3.4,1.8.9,2.3,1-.9,2.2.2,1.2,1.3,3.7.8-.2,2.2h2.1c0,.1.9-.7.9-.7l2.8,4.2,1.8-.6,2.6.3.5-3.1,2.1.3.5-.7-.7-3.3,3.2-3.7-.9-2.5,1-.5-.2-1.2,1.2-2.2Z"/>
    <path id="NI-CA" d="M150.8,348.5l8.5,3.3,1,2.2,2.7,1.2-1.2,3.3,1.3.2-.4,1.1,6.1.6,1.1,1.3h0l-1,.5.2,1.9-.8.6,1.3,3.4-.9,1.5.2,2.7-.7.7-2.3.2-.4.7.5,3.1-.6,2.7,2.1,3.6h0l-3.3,3.4-1.5,4.3-1.5,1.1h0l-7.6-6-9.3-4.9-3.5-4.5-5.7-4.5h0l1.4-1.3-1.2-2.8.5-1,4.1-2.3,2-2.3.8-2.4,8.1-11.4Z"/>
    <path id="NI-CI" d="M63.5,297.4l1.5,1.7,6.6,2.9h0l3.3,3.7h0l-12.3-7.5.8-.8ZM47.2,250.5l-4.2-.2-1.3-1.3,7.2-3.9,4.6.7,1.4,1-3.5,1.9-1.2,1.5-2.9.3ZM103.8,216.6h1.2c0,0,3.2.4,3.2.4l.9,3.2-.8,3.2h0l-1.4,1.4-1.6,3.5v3.2s.9,2.6.9,2.6h0l1.8,4.1.4,3.3,4.4,6.6-.6,4.7,1.8,7.1-1.7,5.6-3,2.4-10.8,1.2-.8,4.5-2.7,2.2-2.4.7-3.6,5.3-2.8,1.9-.2,6.2-.9,1.8-8.5,4.3-2.2,1.9-5.8,1h0l-1.9.3-1.1-.9,1-.6-1.8-1-1.3-4.5-.5.9-1.6-.3,2,2.5-.5,1.4-4.9-6.6-3.1-2.6-3-1.4h2.7c0,0,.5-.9.5-.9h-2.9c0,.1-.8-1.1-.8-1.1l-1.9-.5,1.6,1.6-.3.5-3.6-2.8h1.7c0,0-.7-2.5-.7-2.5l1.8-1.3-.7-.2v-2.4c0,0-.7,2.5-.7,2.5l-1.5,1.4-.4,2-2.1-1.5.2-.9-3-4.8-3.8-2.3.6-.7-5.4-4,.6-.4,1.9,1.4h2.6c0,0-2.6-1.7-2.6-1.7l.9-2.5-2,.9-1.4-1.6v-.8c.1,0-.9.3-.9.3l-1.2-2.3.6-.8-.8-.2.5-2.6-4.4,1.1-.7.9,1.1-.3,1.6,1.3v1.8c-.1,0,1.5.6,1.5.6l2.3,2.8v1.5l-3.6-3.1-12.5-7.7-3.8-3.4-.3-1.7,1.3-4.1,1.6-2.5,3.3-1.4,1.8-1.8,3.2-6.5-1,3.6h3.1c0,0,3.9,2.7,3.9,2.7l3,3.1,1.1,2.4-1.1-.3-.4,1.4,2,2.4,6.3,2,2.6-.6,1.4,3.2-.5-3.2h2.1c0-.1.8,1.1.8,1.1l2,1,.7,2.1h.5c0,0-.8-2.6-.8-2.6l-2-1,.7-1.2,2.1-.4,2.7,2.8,4.9-1.2.9,1.6h3c0,0,1.8,2.8,1.8,2.8l5.1,2.4,1.1-2.7,3.1.4v-.5c0,0-3.2-.3-3.2-.3l-1,1.8-1,.4-3.6-1.7-1.8-3.1-2.9-.3-1-1.8.9-1.9,4,1.5,1-.3.3-.9-2.1.4-3.4-1.3-.7.3-.8,2.4-4.5,1.4-2.2-3.3,4.7-3-2.7-1.7,19.3-1.3h1.8c0,.1,1.8,1.4,1.8,1.4l2.1-.4.6-1.7.9.4,2.1-1.6,1.3.2,1.8-1.7.6-2.7,3.4-3.1-1.5-3.2,1.5-2.4-1.1-3.7,1.2-2.1.8-5.4,3-1.9,1.2-1.9,4.5-1.2,5.6,3.8Z"/>
    <path id="NI-CO" d="M266.2,380.6l-.6,1.4-1.3-3.7-2.1-1.2v-2s-1.2-1.4-1.2-1.4l-1.1.4-.9-.8v-1.1s-.8-.7-.8-.7h0l-1-2.3-3.3-.8h0l-3.5-1.6-5.7-6.9-3.7-2.4h0l-2.1-.4h0l-4-1.2-.9,1.6-2.2-1.8h-1.2s-5.6-8.6-5.6-8.6l-4.1-4.5-3.5-1.4-3.8,1.4-1.4-.9.8-.9-1.6-.7h0l-.7-3.9,3.6-6.2v-3.8c.1,0,.7-1,.7-1l3.3-1.9.9-6.3,2.3-3.4,3.5-1.1,4.3-.3,1.8.7,1.7-.9,1.5,1,3.1-.2,8.7-1.4,1.7-1.3,1.8.9,5.3-3.3,3.1-3.5,2-1.2,3.4-1.3,2.2,1.2,1.5-1.3,2.6-.6,4.2-5.7.8-6.7,5.8-9.4h0l2.3,3.7,3.5,2.9.4,2.2,1,.5,2.2,5.9,3.7,2-1.1.7v1.5c0,0-2.1,3.1-2.1,3.1v1.1s2,4.8,2,4.8l2.8,2.9,3.8,6.5-1.4,4.3,2.5,8.7,2.7,4.5,1.2,10.3,2.2,2.2,13.3,5.7.5,2.3,2,2.4-.4,1.6-5.7.2h0l-12.5-1.2-8.1,1.9-5.9,3.1-1.7,2.2-6.6,2.2-.5,1.5-1.1.5.5,1.7-.9,1.1-1.6.3-2.6,3.2-2.2-.9-.5,1.4-1.6,1.4-2.4.4-1.4,2.7Z"/>
    <path id="NI-ES" d="M108.3,223.4l9.1-8.8,6.2-12.2,1.9-1.8h2.2c0,0,8.2,2.7,8.2,2.7l13.2-3,4,.3,2,.8,1.8,3.6h0l-1.2,2.2.2,2.3-.8,1.4,1.1,7.9-1.6.7.6,1.8-2.3,4.4,2.9,2.7,1.3,2.6,3.4,3.4,6.9,3.2.4,3.1h0l-3.4,2.3.5,1.2-2.7,5.4-4.4,1-5.1,2.9-.8,5.3h0l-7.9-1.2-6.4-2.8-1.3-1.2-.7-2.3,2.2-4.6.7-4-6.7-10-7.7-.6-3.9,1.1-5.2,2.7-4.5-2.2-4.4.3h0l-.9-2.6v-3.2s1.6-3.5,1.6-3.5l1.4-1.4Z"/>
    <path id="NI-GR" d="M193.7,368.6l.4.5h0l3.4.3.2-.9.8.3,1.3,3.5-.2,1.8-1.4.5-4.6-.6-2.5.9v-1.4s.5.7.5.7l.5-.5-1.8-1.9,1.7-1.9-.2-1,1.3-.5h0l.6.3ZM182,338.3l1-2v-1.9c0,0,4,.1,4,.1l2.2-.7v1s1.6.3,1.6.3l-5.7,11.8-.2,2.1.6,4.6,3.2.8,1.2,2.1-.3.7-2.7-1.7-.7.6.3,2.5,1.1.3,2.7,6.2-.9,1.1.6,2.8-1.1,1.5h-1c0-.1-1.6,1.5-1.6,1.5l.4,2.2.9,1.3,1.1.2-.2.8h0l-6.2,2.6-3.9-.6-2.8,3.4-3.5.4-1.7,1.2-2.8-.4h0l-2.1-3.6.6-2.7-.5-3.1.4-.7,2.3-.2.7-.7-.2-2.7.9-1.5-1.3-3.4.8-.6-.2-1.9,1-.5h0l1.7-5.1,2.3-3.3.3-2.2,2.3-.7,5.2-7.4.3-4.6ZM178,330.5h1.9s6.4-2.2,6.4-2.2l3.2-3.7,4,1.6h0l.8,1.1-.5.6.4,3,5.2,1.6.4,1.7h0l-2.4,1.3-1-.4-.3,1.4-2,.6-2-.5-1.9-2.9h-6.8c0,0-3.8-1.4-3.8-1.4h0l-1.5-1.8Z"/>
    <path id="NI-JI" d="M274.3,82h1.3c0,0,2.1,1.4,2.1,1.4l.3,1.3-1.6,3.6.7,1.4-.6,1.4,1.4,1.7,1.5.2,1,1.6-1.9,3.7.6,3.5-1.6.9v1.2c.1,0,5.2,6,5.2,6l11.6.7-3.8,19.6,1.3,5.9-20.3,33-9.6-4.8-13.5,8.8-7.6.2-1.2,5.5-3,2.2-.5,1.4,3.4,4.5-1.6,4.9v2.5c.1,0-1.1,2.1-1.1,2.1l-2.9,1-6.5,5.3-.7,2.1.6,1.8h0l-5.6,4.4-4.1.6-2.2,1.1-3.7,6.9-6.8,6.9-2.9,4.7-3.4,1-11.8,11-1.9.6-5.2-.8-.4,2.4-3.7-.2-1.7-3.8-5.8-.6h0l-.4-3.1-6.9-3.2-3.4-3.4-1.3-2.6-2.9-2.7,2.3-4.4-.6-1.8,1.6-.7-1.1-7.9.8-1.4-.2-2.3,1.2-2.2h0l2.2-3.4,1.9-1.5h5.7c0,0,3.6-2.1,3.6-2.1l1.2-3.3,1.1-.7h3.7s1.4-1.8,1.4-1.8l3.1.5,3.9,2.6.9,1.4,2,.7.7-2.2,2.3-2.2h2.7s1.8-1.2,1.8-1.2l1,.6.4-.8-.9-1.4,1.7-2-1.7-.5.8-2.5-.9-2.7,1.2-1.5v-3.9l2.4-4.6v-2.5c0,0,1-1.9,1-1.9l-1-3.6,2-1.6,1.6-2.8h0l1.2-.8.5-1.5-.4-1.3-2.2-1.5,1.1-8.4,2-.5,2-1.9,2.9,1,1.5-1.2.6-2.3h2.9c0,.1,2.4-1.3,2.4-1.3l1-1.6,1.5-.4.6-1.7,1.5-.3.5,1.7,3.3.2,1.7-4,1,.8.2-1.5,1.1,1.3.3-1.2h.9c0,.1,1.4-1.9,1.4-1.9l1.3.8,1.4-.2,3.1-3-.3-2,2-2,.5-3.4-.5-1.4.9-.2.3,1h1c0,.1,1.8-2.9,1.8-2.9l2.1-1,2,.6,1.8-.9h8s.5.9.5.9l.8-.3,2.5-4.3-2-1.2-.3-2.2-.9.3-1.1-1.1-.3-2-2.1-1,1.8-2.3,2.8-7.2,2.7-2.9,1.1-2.4-.2-3.6-1-1.9,2.4-1.4,1.2.6,1.9,2.5,2.5-.4,2.3-1.8,1.7-3.4Z"/>
    <path id="NI-LE" d="M131.6,309.6h-.2c0,0-.5-1.6-.5-1.6h1.7c0,0-.4,1-.4,1h0l-.6.6ZM106.2,234l4.4-.3,4.5,2.2,5.2-2.7,3.9-1.1,7.7.6,6.7,10-.7,4-2.2,4.5.7,2.3,1.3,1.2,6.4,2.8,7.9,1.2h0l.2,7.1-1,7.3.5,2.9-.9,4.6h0l-3.7.9-1.3,1.9-1.6.9-2.4,6.3.5.9-.8.2.8.6-.5.7.6.9h0l.2.3h0l1.5.7-.7,2.6-1.9-.7-7.9,2.8-1.5,1.1-1.6,3.3-1.6,1.4h-3.4s-4.7-2.1-4.7-2.1l-.3-.6.7-.4-.7-.9-2.9,1.9.7,1.6-.5,3,1.9,4,4.5,1.2,2.5,1.7,3.9,1.2h0l-3.4,2.8h0l-2.3,5.3,3.2,2-.4,3.6-7.7,5.7-3.5-.7-3.1,1.2-.5,1.1,1.1,4.1-2.7,2.1h0l-5-8.4-1.4-4.8-.8-.6-1.2-3.2h.6c0,0-.7-1.9-.7-1.9l-16.7-10.4-11.2-8.2h0l-3.3-3.7h0l-2.8-3.4h0l5.8-1,2.2-1.9,8.5-4.3.9-1.8.2-6.2,2.8-1.9,3.6-5.3,2.4-.7,2.7-2.2.8-4.5,10.8-1.2,3-2.4,1.7-5.6-1.8-7.1.6-4.7-4.4-6.6-.4-3.3-1.9-4.1Z"/>
    <path id="NI-MD" d="M103.8,178.8l2.4-1.1,8.6,1.4,1.6,1.3.2,2.8.7.9,2.7,1.4,1.4-.2,1.1,1.1,4.6-2.1,3.7-.4,10.1,1.9,1,.7,4.6-1.3,4.7-3.1h3.3s2.9,1.3,2.9,1.3l3.9-1,6.3,5.1.9,1.3.3,2.2,3.8,3.1h0l-1.1.7-1.2,3.3-3.6,2.2h-5.7c0,0-1.9,1.5-1.9,1.5l-2.2,3.4h0l-1.8-3.6-2-.8-4-.3-13.2,3-8.2-2.7h-2.2c0,0-1.9,1.9-1.9,1.9l-6.2,12.2-9.1,8.8h0l.8-3.2-.9-3.2-3.2-.3h0l4.2-2.8.4-3-.8-4.5-2.5-1.1-.6-1.3,2-4.1-1.5-4.4-.8-7.3-.5-1.2-1.7-1,1.7-6.3-1.1-.9Z"/>
    <path id="NI-MN" d="M130.6,316.1l6.7,3.6,2.1-2.4,2.4-1.5h5.5l3.1,4.6-.3,2.4-2.8,2.1-.9,3.1,7.1.3,3.1-1.8h9.2l.3-8,1.2-2.1.6-4-4.6-1.8-1.8.6-3.1,4-2.1.3v-4.6l-5.5-8.9-.9-5.2-1.8-3.1-5.4.4h0l-.2-.2h0l-.6-.9.5-.7-.8-.6.8-.2-.5-.9,2.4-6.3,1.6-.9,1.3-1.9,3.7-.9h0l8.6,1.3,3.9,2.9,2-.6,1.7.5,5.2,4.7,9.1,3.7h0l-1.3,2.4,1.3,2.3-.6.5.4,1.2,6.2,7.3-1.1,1-.7,2.9,2.4,2.8,7.7,6.2-2.1,3.3.6,1-1,.9.2,1.6h0l-4-1.6-3.2,3.7-6.4,2.2h-1.9s-3-.9-3-.9l-3,1.4-4.9.6-1.9,2.6-2.9.9-3.1,4.4,3.3,3.7-1.7,2.9-4.3,1.9-3.4-3-2.3,3.5h0l-8.1,11.4-.8,2.4-2,2.3-4.1,2.3-.5,1,1.2,2.8-1.4,1.3h0l-7.5-5.9-1.7-4.4-3.7-4.5-4-3.3-2.3-5.5-4.6-5.2h0l2.7-2.1-1.1-4.1.5-1.1,3.1-1.2,3.6.7,7.7-5.7.4-3.6-3.2-2,2.3-5.3h0l3.3-2.7Z"/>
    <path id="NI-MS" d="M178,330.5l1.5,1.8h0l1,1.9v1.8c-.1,0,1.8.3,1.8.3l-1.2,1.4.2.7h.8c0-.1-.3,4.5-.3,4.5l-5.2,7.4-2.3.7-.3,2.2-2.3,3.3-1.7,5.1h0l-1.1-1.3-6.1-.6.4-1.1-1.3-.2,1.2-3.3-2.7-1.2-1-2.2-8.5-3.3h0l2.3-3.5,3.4,3,4.3-1.9,1.7-2.9-3.3-3.7,3.1-4.4,2.9-.9,1.9-2.6,4.9-.6,3-1.4,3,.9Z"/>
    <path id="NI-MT" d="M227.2,206.2l1.9,5.4,4.4,4.7,1.4,2.6,2.4,1.2,2.1,3.6,2.3,1.6,2.7-.6,2.5,2.6,1.5.3.8,1.9,3.6,2.1,1.7-1.6h1.8s1-1.4,1-1.4l1.3.2,1.3-1.4,1.6,2.1.5-2.5h2.1c0-.1,1.4,1.5,1.4,1.5l.3-1.6,1-.9,4.2-.5.3,1.4-1.3,2,.3.8-3.6,2.2-.6,1.4.4,1.8,1.6,2h0l-2.3,3.4-2.5,1.7-.8,4.6-1.2-2.8h-1c0,0-2.9,5.9-2.9,5.9l2.6,4.9-1,4.3,1.6,4.3v2.3s4.4-.4,4.4-.4l2,1.9h0l-1.2,2.2.2,1.2-1,.5.9,2.5-3.2,3.7.7,3.3-.5.7-2.1-.3-.5,3.1-2.6-.3-1.8.6-2.8-4.2-.9.9h-2.1c0-.1.2-2.4.2-2.4l-3.7-.8-1.2-1.3-2.2-.2-1,.9-.9-2.3-3.4-1.8-3.5,2.1-1.2,1.5-2.4-1.6-2.8-.6-1.2.8h-2.9l-2.2,3h-2s-1.2,1-1.2,1l-1.5-.3-2.3,1.6-6-1.2-7.2,2-10.5.7-.8.3.4,2.6-.7,2.1-4.8,2.3-3.6,3.2h0l-9.1-3.7-5.2-4.7-1.7-.5-2,.6-3.9-2.9-8.6-1.3h0l.9-4.6-.5-2.9,1-7.3-.2-7.1h0l.8-5.3,5.1-2.9,4.4-1,2.7-5.4-.5-1.2,3.4-2.3h0l5.8.6,1.7,3.8,3.7.2.4-2.4,5.2.8,1.9-.6,11.8-11,3.4-1,2.9-4.7,6.8-6.9,3.7-6.9,2.2-1.1,4.1-.6,5.6-4.4Z"/>
    <path id="NI-NS" d="M178.1,136l.2,1.2-1.8,5.2.8,1.8,6.7,5.1,2.7,3.1,1.9.8,1.3-2.2,3.6.9.7,1v2.6c0,0,2.5,3.4,2.5,3.4l2.7.4,2-.5,1.5,1.3h0l-1.6,2.8-2,1.6,1,3.6-1.1,1.9v2.5c0,0-2.3,4.6-2.3,4.6v3.9l-1.2,1.5.9,2.7-.8,2.5,1.7.5-1.7,2,.9,1.4-.4.8-1-.6-1.8,1.3h-2.7s-2.3,2.1-2.3,2.1l-.7,2.2-2-.7-.9-1.4-3.9-2.6-3.1-.5-1.4,1.8h-3.7s-3.8-3.1-3.8-3.1l-.3-2.2-.9-1.3-6.3-5.1-3.9,1-2.9-1.2h-3.3s-4.7,3.1-4.7,3.1l-4.6,1.3-1-.7-10.1-1.9-3.7.4-4.6,2.1-1.1-1.1-1.4.2-2.7-1.4-.7-.9-.2-2.8-1.6-1.3-8.6-1.4-2.4,1.1h0l-2.1-.8-.2-1.2,2.2-5-.5-3.5.5-2.3h2.1c0-.1,2.6-1.4,2.6-1.4l6.1.9,4.2-.3,6.2-1.9,1.3.3,1.2,1.7,2.3,1.2,2.5-.2,2.2-1.2,1.8,2.4h3.8s1.7-1.1,1.7-1.1l1.1.9h1.8c0,0,2.4-2,2.4-2l2-3.3v-3.2c0,0,2.1-1,2.1-1l.4-1.4,2.3-1.5,2.9-4.4,3.6-2.8-.2-2.4,2.9-.7,2.1-1.5v-.8c.1,0-1.4-1.2-1.4-1.2v-1.2c.1,0,5.8-3.2,5.8-3.2l5.7-.5,2.2-.8.6.6Z"/>
    <path id="NI-RI" d="M221.5,388l-.5,2.4.4,3.3,1.6,2.8,3.8-.4,1.8.7.5-.9.8.7,1.5,3.5-.3,3.5-2.2,1.6-3,.8-2.5-.9-2.2-2.4-.8-2.3.2-2.6-1.9-1.6-3.2-.3v1s-1,.5-1,.5l-1.3-.7-2.8,1.3-4.1-3,2-5,3.8-2.3,7.1-1.6,2.3,2.1h0ZM188.4,376.5l2.9,3.2-1.1-4.5,1.4.7,1.3,7.7,1.5,4.6,4.2,6.4,1.4,8.3,1.7,3.8,3.5,4.6,1.7.7,3.3,4.8,4.4,4.1h1.3c0,0,.6-.6.6-.6l1.6.3,3.9,2,2.3,2.5,1.5.3,2.2,2.1h1.8s3.6,1.9,3.6,1.9l7.9.8,2.1,1.1,2.6-.3,5.9,3.7,1.5-.3,2.1,1.2h2.6c0-.1.3,3.7.3,3.7h0l-16.5-8h-5.6s-10.4-3.8-10.4-3.8l-4.2-4.1-4.6-1.3-.9.4-7.8,13.9h-1.4c0-.1-1.2-1.2-1.2-1.2h-2.1s-2.1-1.7-2.1-1.7h-1.3c0,.1-2-2.1-2-2.1l-.2-2.3-1.7-3-6-5.9.3-1.4-1.4-.3v-1.1s-1.4,0-1.4,0l-1.4-2.9-1.8-.7-1.8-2.4-1.9-1.2-2.4-.2-1.3-2.5-2.8-1.4.3-1-3.2-1.9-1.8-2.8-4.2-3.2-2.8-.8-1.7-4.1h0l1.5-1.1,1.5-4.3,3.3-3.4h0l2.8.4,1.7-1.2,3.5-.4,2.8-3.4,3.9.6,6.2-2.6Z"/>
    <path id="NI-SJ" d="M283.4,429.7h0l-.3,1.1,1.3.6-.3.6h-1s-3.4-3.4-3.4-3.4l1.7,1.1h2.1ZM278.9,428.6h-1.8s0-1.8,0-1.8l1.3-.6v1.9h0l.5.6ZM270.5,426.9l-.7,2.5-.7-1.2.6-1.6,1-.6v1ZM273.4,424.2l1.3,1.2.9,2.3-1.8.4-2.2,1.6-1-2.1.8-1.6-.4-1.3,2.4-.4ZM266.2,380.6l1.4-2.7,2.4-.4,1.6-1.4.5-1.4,2.2.9,2.6-3.2,1.6-.3.9-1.1-.5-1.7,1.1-.5.5-1.5,6.6-2.2,1.7-2.2,5.9-3.1,8.1-1.9,12.5,1.2h0l2.6,8.8,2.3,1-1,5.8,3.2,5.2-.2,2.1-2.4,3.9-.7,2.9,1.3,11.3,1.4,1,5.6,1.4,6.6,4.5,5.5,2.3.6,1.7-.3,4.3.8,1.4,11,5.3,5.1,7.7,5.3,2,4.1.5,2.5-1,1.4.3-.5.9.5,1.8,1.8,1.9,3.8-1.3,1.1-1.2,1.8.7,1.8-.5v-.7s2,.4,2,.4l1.9-1,1.9,6.9.5.3,1.7-1,2.8.6h0l3.1,2,4.1,6.4,3.1,2.5v1.3c.1,0,1.8,0,1.8,0l-1.4-1.9h3.3c0,0,1.6,2.7,1.6,2.7l-.4,1.5,1,1.8-.3,3,.7,3.7-1.9,2h-3.2s-4.5,2.1-4.5,2.1h-2.7s-2.2,2.3-2.2,2.3l-2.8.3-2.3,2.4-3.4-.2-2.7,1.3h-.7c0,0-.7-1.4-.7-1.4l-2.5-.7-.8-1.7-3.1-1.8-1.7-2.5h-1c0,.1-.3,1.4-.3,1.4l-1.8-.4-1.3,1.6-3.2-1.1-2.3.5-.6-1.8h-5.7s-1.1.9-1.1.9l-.6-1.4-2-.8-1.2-1.5,1.8-.7v-3.9l-2.8-1.8-3.3-.6-1.5-2.1-2.7-.4-2.4-3.4.7-2.6-1.3-1.9-6,3.5h-2.1c0,0-4.7-4.3-4.7-4.3l-7.3-3.1-1-1.8-3.5,1.1-6.9-4-23.2,13.7-27.1-10.2h0l-.3-3.8h0l1.3-1.1,4.2,2.5,2-.5,3.7.4.7,1.3,1.9.5,4-.5,1.2,2.3,4.5-.9,2.5,2.7,5.1-1.9h3.2c0,.1,3.8-2.7,3.8-2.7h1.7c0,.1-1-.5-1-.5l1.2-2.9-1.9-3.4.3-6.6-.5-.7.7-1.4-1-.8-.9-4.7-6.3-3.2.8-.6-.4-1.8-2.8-1.1-.6-1.6-.5-4.6.5-.8-.7-1.4-.5-.3-2,1.8-2.1-3.7v-1.3c.1,0-3.5-3-3.5-3l-2.5-3.9-2.9-1.9-1.2-3.2-2.5-3.5-1.4-.2v-1.2Z"/>
  </g>
</svg>