<svg xmlns="http://www.w3.org/2000/svg" xmlns:amcharts="http://amcharts.com/ammap" id="Layer_1" viewBox="0 0 512 512"><g id="_x3C_defs"><amcharts:ammap bottomLatitude="7.204" leftLongitude="-83.047" projection="mercator" rightLongitude="-77.174" topLatitude="9.631"/></g><g><path id="PA-1" d="m89.6 213-.7 2.1-2.7-.3-2.9 1.5-1.9 3.4-1-3.9-2.1-.4.2-1.9 1.4.5.3-2.8-3.6-2.1-3-.3-.3-1.8-1.7-.6-1.1.6-1.5-.9V204l3.7-2.4-1.9-3 .4-1.3-2-.8-1.5.8-.4 1.9-3.2 5.6h-1.9l-.8 1.2-2.3.8 1.4 1.5 5 1.2 1.8 1.7 1.5 4-1.1.9-1.3 5.5-1.3-.2-6-2.3-3.7-2.2-2.3.3-1.6 1.5-2.9-3.4-2.5-.7-2.4.9-1.2-.6-1 1.9-3.4-1.4-2-.3-.7-1.3 1.1-2.6-2.1-2v-1.5l-2.8-1.6h-2.2l-1.5-2.1-1.5-.3-3.6-2.1-.8-2.5-3.5 1.4-.7-.4v-7.7l-.3-25.4 7.5-1.8-.9-2.1-1.2-.4.3-2.5-1.3-1.1.8-2.2 1.3-.3.4-1.7 1.8-.2 2.2 1.9 1-.6 4 1.4.5 1.6 3.9 2.6v1.8c.1 0 1.7 1.2 1.7 1.2l3.4.3 2.6-1 .7-2.2-.5-1.4 1.3-.8 1.4.7 1-1.7 2 1.6 7.9 7.1 4.7 4 3 .3-.2 2.8-2.1 1.4-.6 2.7 3 2.1-1.2 2.6-2.7-.7v1.3l2 1.6.5 2.1 2.6 2.8 2.1.6.7-1.1 1.9.2 1.7 1.6 3.6-3.8 3.2 3.5.9 2.4-1.6.4-1.2-1.5-2.5-.5-1.8.4-1.2 1.6v4.7l2 1-.3 6.2 3.1 1.7 3.7-.2 2.8.4.2 1.5 2 3.2 2 .3Zm-16.1-43.6 1.3.6.3 1.7 1.8 2.6-.3 1.7-1.4.6-4.1-1.8-.9-2-1.2-.3.8-2.1 3.8-1Zm6.3 6.7 1.8 1.5h2.6l2.1 2.4 1.1-.3 1.7 1-.9 1.3-2.5 1.3-.8 2-1.7-3.4-3-.7 1.7-2.6-2.7-.4.5-1.9Zm-7.6 5.4 2.6 1.3 1.8 2.5-2.3 1.6-.2 1.8-2.4-2.2-.3-1.7.8-3.4Zm13.9 5.2.7.4 1.6 3.3 1.4 1.6-1.3 2.1-2.3.9-2.9-1.7v-2.8l1.3-3.4 1.5-.5Zm6.3 4.7 3.2 2.8-1.6 1.5-2-2.4.4-2Zm4.2 19.1-1 .9-.4 2.1-3 2.2-1.8-.4-.2-2 .6-1.1 5.8-1.8Z"/><path id="PA-2" d="m202.6 237.4 2.4-.2.6-1.6 1.9-.2-1.6-3.6.3-2.2 1.4-2.1-.4-1.5 5.2-2.7.4.9h4.1l1.8-2.2.2-4.2-1.1-1.9.9-.8.4-3.2 5 1.6h1.8c0-.1 1.8 1.8 1.8 1.8l1.8.6h2c0-.1 2.8.8 2.8.8l.8-2 9.9-5.2 2.1-.2.4-3.8-.5-3.1 2.7 2.3-.3.7 1 3.8 3.2.7-.7 1.8.7.9-1.1 2-1.7 1.7 1.1 9.2 2.5 3 1 2.9.3 3.1-.6 2.8 1.5 4.7-.9 3.8 1.6 2.2-.5 3.8 2 2.5 1.2 3.4-5.6 3.2-4.6 3-5.7 2.5h-3.6l-1.8-.5-1.8.6-2.1-.2-1.6.9h-2.8l-3.1 3.5-.5 1.6-2 .7v2.6c-.1 0-.8 1-.8 1v3.5l.6 2.5-.3 1.2h-1l-.4-.9-.9.3-1.1-.8-2.6.2-1.7-1.3h-3.4c0-.1-1.2.8-1.2.8l-3.8-.4-.2-1.5-2.8-2.6 2.1-6.2-.4-1.5 1.6-2.7.7-2.5-3-1.1-1.3-1.7V259c-.1 0-2.1-2.1-2.1-2.1l-.8-3.2-2.5-2.1v-1.8l-1.1-1.7-3-2.6 1.4-1.6 2 1.4 1.8-1.9 1.3-2.9.2-2.8Z"/><path id="PA-3" d="m342.8 159.4-.7 6.5-1.1-.4-3.3 2.3-2.6 5.7-2.2.5-4 2.8-.5.8-1.2-1.6 1-2.3-1.5-1.6.8-1.3-2-.9-1.8-1.6-3.6 2.1-1.1-1.2h-1.6l.3-2.4-1.5-1.4.7-1.6-1.5-.9-1.5 1.3-2.5-1.7-2.5 2.9-2-.2-2.1.8-.9 5-.9.9-1.1 3 .4 2.8-.6.9-1.3 1.8v.5l-.7 3.1v.6l-.3 1.4v-.2c-.1 0-1.7 1.9-1.7 1.9l-.4 1.9-2.3-.4-.9 2.3v1.9l-1.1.5-1.5 3.8h-.1c0 .1-.4 0-.4 0h-2.2c0-.1-1.8-.9-1.8-.9l-1.7 1-2.4-.8-1.5-1.4v-3c-.1 0-2.8-1.4-2.8-1.4l-1.3.3-2.1-.7-3.3.4-2 2.2v3.3c-.1 0-2.7 2-2.7 2l2.3 4.9-.3 2.8-.7 1.8-2.3 1.1-5-.5-3.4-2.3-2 2.5-1.7.6-3.2-.7-1-3.8.3-.7-2.7-2.3.5 3.1-.4 3.8-2.1.2-9.9 5.2-.8 2-2.8-1h-2c0 .1-1.8-.5-1.8-.5l-1.8-1.9h-1.8c0 .1-5-1.5-5-1.5l-.4 3.2-.9.8 1.1 1.9-.2 4.2-1.8 2.2h-4.1l-.4-1-5.2 2.7.4 1.5-1.4 2.1-.3 2.2 1.6 3.6-1.9.2-.6 1.6-2.4.2 1.6-1.7-.3-1.8-1.5-1.4-.8-2.5 2.4-1.8-.8-2-3.2-3.5-2.2.5-5.2-2.3-1.1-1.5v-2.4h.3l.8-.2 3-.7 2.1-2.2 1.1-2 1.4-.7.8-2 2.4-2 2.9-.7.2-1.2 1.7-.4 3.1-2.3 2.2-.7 2.6-1.6 4-1.5 3.3-1.7h2.5l1.1-.8 2.5-.4 1.3-1.1h4.2l1.6-.9h3.7l.9-1.1 3.1-.2.7-1.1 5.2-.8 2-1.2 2-.2 3.7-2.1 1.6-2.5 2.5-2.6 2.5-1.8 2.4-4.1 2.7-.4v4.6l2.5.2v-1.8l3-2.4-.4-2.3 1.1-1.4 2.6 1.5 1.7-.8 2.2-2.9 2.4-1.2 2.1-.3 1.5-1.8v-1.3l3-1.7.2-1.6 2.7-2.8-1.1-1.8 1.9-1.3 2.1-2.3 2.6.9 3.2-2.1 2.1 1.5-.8 1.8 3.7.3 4.1-1.1 1.4 1.1 4.1.5 1.6.7 3.2-.4 2.2 1.2 1.5-.4 4.1 2 2.9.4 2.5-1.4 1.5.6 5.2-1 .8.3Zm-57.4 38h-.3.2Z"/><path id="PA-4" d="m132.9 260.6-.9 1.9.7 1.9-3-.8.3.8.7 1.9h1.2l1 .5v-2.3l1.3-.9 1.1 1.7-1.3 2.6 2.4 1.5-.8 1.6-1.6 1 .2 2.3-1.1.8-1 .8-2.6 2.4v1.4l-1.2 3.9-.2 2.6-1.1 1.3.9 1-1.9 3.3-1.6-.7-3.1-3.7-.5-1.8 1-1v-2.2l-2.8-4.5-2.2-2v4.4h-1.9l-2.7-1.8-2.8-.7-5.8-2-2.8-.3-1.9-1-6.5-1.6h-3.2c0 .1-1.8-.3-1.8-.3l-2.4 1.7-1.8-1.5-.7 1.3-2.2.2-.5-1.3h-1.9l1-3.8-1.1-2 1.2-2.7-1-2.5-1.3 1.3-.7 2.8-2.1.9-3.4-2.9h-2.3l-1.2 3.1-3.2-.4-2 .7-1.5-1.2-1.1-1.9-1.8 2.7-2.3 1.5-2.8-1.3-9.5-2.9-1.7-.8-5.8.4-1.9.9-6.6 1.6-2.3 1.7-1.3 2.2-.4 2.4.3 3-.2 2.7.3 3 1.4 2.3.3 1.9-2 3.2-1.6-.6.5-5.6-1.4-3.3v-4.5c-.1 0-2-1.2-2-1.2l.5-2.7-1.4-2.7-2.6-1.4-1.3 1.2-1.1-1.7-2.2-1.3-1.7-.3v-2.3l1.4-.8h1.8l2.4-1.9 3-3.7 1.5-1.3 1.2.4 2.9-.7 1.6-1 1.6-2.8.5-2-.4-3.4 1.1-1.4-.2-5.4-2-2.8-1.1-2.6-2.7-1.9-1.7-2.8.5-2.1 1.5-.3.5-1.5 1.6-.5-.9-3.1 1.8-1.7 2.8-.4 1.7-1.2 3.1-.6 2-2.6 1.6-.9.7 1.3 2 .3 3.4 1.4 1-1.9 1.2.6 2.4-.9 2.5.7 2.9 3.4 1.6-1.5 2.3-.3 3.7 2.2 6 2.3 3.5 1.2 2.6.2 3.3 4.1 2.1-.2 2.9.6h4.6c0 .1.2 9 .2 9l-.2 4.7-1.2 2.7 2.8.9-1.5 1.3-.8 3-2 2.1.4 3.4 6.8-1.4 1.2-1.8 1.7 2.3.5 2.5.9.7 1.7-.6.7 3-.6 2.2 1.9 2.2h1.4l.5 1.4 3.1-1.1 1.9.4 3.6-.4h3.8c0 .1-.3 3-.3 3l2.4 2.1 1.2.3 3.3-.5 1.7 1.4 1.9-3.1 2.6.6.9 1.2 1.9-2.4 1.1-.3 1.4-4.2 1.8-2.3 1.7 1.4Zm-.2 8.8-2.4.5v1.2c.1 0 2.9.6 2.9.6l.3-2zm.2-8.8 2.9-1.7 1.9 2.5.5 4.2-1.7-.6-.6-2.2-3-1v-1.1Zm-64 4 1.3.4 1.1 1.9-2.2.3-.8-1.4zm-1.2 2.3 2.1 1-.9 1.9-2.3-2 1.1-.8Zm-1.2.9 1.9 1.8-.4 1.6-3 .4-1.5 1-2.9-2.4 3.6-2.2 2.3-.3Zm6.2 3.8 3.4.9-2.6 2.5-3.3-1.5zm-3.1 7.8-.6 3.8-3.4.6.4-1.6 1.4-2z"/><path id="PA-5" d="m429.8 199.2 1.7-.3 3.6 1.7 2.4 2.7 1.9 1.3 1.7.4.2 1.8 4 2.9-.3 1 1.5 2.5 1.4 1.5h1.5l1.3 1.5 3.9 1.6 1.4 1.2.3 1.8 3 1.7.6 3-1.2.9-1.3-.8-3.1.7-2.2 2.4-4.1 1.2-.5 2.1-2.1 2-.5 1.8-2.5 1.2-.7 1.3.2 2.3.9 2.6 1.9 1.2.7 1.4-1.4 1.8 2.3 1.8 1.3-.4.3 2.5 1.6.9.8 3-1 1 1.1 2 .8 3.6 1.2 1.9 1.3.4.9 2.6 1.7 1.1.5 2.2 1.2.2 4.6 1.8 3.1 2.4 1.1 3 .2 4 1.7-.4 1.9 1.6 1.3 2.2h.9l3.4-1.7 2.5.3 2-.5v-1.2c-.1 0 2.2-1.7 2.2-1.7l4.2-.3 1.3-1 9.4-2.1v1.6l1.5 1v1.2c-.1 0 .8 3.4.8 3.4l-.7 2.9.8 2.6 1.5 1.6.7 4 1.4 2.1-1.1.9-2.8.2-2.6-.5-2.7 1.1-1.6-.3-1.7.8-2.4 3v4.1l2.5 4.7v2l-1.7-.3-1.9 1.3-2.1 2.3-1.3-.5-1.8 2.4-2.2 2.2-1.8.4-.2 1.7-1.3 2.9-1.9.2-1.9 2.1v1.5c-.1 0-3 3.6-3 3.6l-2.1-.8-1.9-2.1-.3-2-1.5-3.2-1-5-2.7-2.1-1.4-2.3-2.1-.7-1.8 1.3-.7 4.5-1 2.1.7 2.2 3.5 8.6-.9 2.9-1.7.8-1.1 1.4-4.4-.2-1.9 5.5-1.7 5.9-2 7.9h-1.1c0-.1-4.6-3.7-4.6-3.7l-2.4-2.3-1.8-1v-1.4l-1.7-1-1.5-4.9-.5-2.6-2.4.6-1.6-2.5-1.4-.2-2.2-2.5.4-1.1-4.7-2.8.8-1.8.3-2.6-1.3-.6-2 .9.9-3.2-3.1-2v-1.8l-2.7-.8-2.4-3.1 1.4-1.2v-2l-4.6-8.3-.7-2.8-4.1-2.9-1.6-4.7-1-1.4.2-2.4-2.1-3.5v-1.8l2-3 1.3 2.4 1.8 1 1-.5 3 .9 3.2-1.8 3.2-2.6 1.2-2.9.2-3.3-1.9-.9-.8-1.6-2.4-2.6 2.1-.3 1.3-1.5-.5-1 1.6-1.4 1.8 2.2 2.5-.8 1.6-2-.7-2.6 2.7-4.4.3-2.7 1.7 1.1.3 2.4.9 1.4 2.5 1.6h1l2.6 3.1.9 2v1.7l1.6 2.7 3.6.5.4-1.1 1.9-1.2-4.4-.3-1.8-1.3-.5-3.3-1.8-2.7-.4-1.7-1.8-3.7v-2.5l-2.8-3.4-.3-1.2 1.4-2.1-2.5-2.4v1.8l1.6 1.1-1.1 1.8 1.6 3.1.4 2.2-.7.8-3.1-4.5-1.7-.4-2.2 1.7v3.2c.1 0-2.3.9-2.3.9l-.5.9h-3.2c0 .1-.7-1.7-.7-1.7l3.1-2.7-3.2-1-1.6 1.3-1.4-.2-1.2-2.3-2.3 1.4-1.8 2.5-.8-.6-.3-5.6-1.8-4-.3 2.6 1.3 2.4v4.4l1.8 1.8.2 1.3-1.4 1.4-.3 3.5-1.2-1.3-1.6.4v-4.4c-.1 0-1.8-6.1-1.8-6.1l-1.6-2.2v-1.6c-.1 0-1.4-1.5-1.4-1.5l-1.1-5.6 1.2-.9.3-2.7-2-1.9-1.3-3.1.8-3.2 1.8-.9.5-3.2-.6-1.4 2.8-1.9h1.6l2.2-.9 3.6.5 1.1 2.1 1.3 1 2.6-1.7-.2-1.4 1-1.4 1.6.3 2.9-2.7h2.7l2.7 1.3 2-4.1-.2-1.3 3.7-1.7-.3-2.6 1.5-2.2.9-2.4 2-.7 1-4.3Zm-16.1 93.4-1.5-.8-1.8 1-1.5 1.6h-2.5c0 .1-.9 1.7-.9 1.7l.8 1.7-.7 1.9 1.6 3.7h1.8l.1 1.7 1.6 2.8.6 3.1 2.9 4.6 2.3 2.6 2 1.6 3-1.2 1.7.5 2.6 2.1 1-.4.4 2.7 1.2 3.3 1.7-.9v-1.3c.1 0 1.5-.8 1.5-.8h1l1 1.6.6.6h.4l.9-.2 1-.7.5-.8.9-.5.6-.6v-4.6l-1-4.9.8-2.1-1-2.8h-1.4l-.7-3.3-.7-.9-1.2-5-1.3-3.5-.9-.6-3.7 2.9-.8-4-1.8-1-1.3-4-.5-.5-2.3-2.2-.4-1.7-1-.8-1.3-.7-3.8 2.4v1.1l2.1 1.1v3.9c.1 0-.1.7-.1.7h-.2c0 .1-.4.2-.4.2h-.9z"/><path id="PA-6" d="m208.5 281.5 3.8.4 1.2-.9h3.4c0 .1 1.7 1.4 1.7 1.4l2.6-.2 1.1.8h.9c0-.1.3.8.3.8l.9.2 1.3 1.2.4 2.1 1.8 2.4 4.8 2.1 1.7-.5-2.3 1.4.8 1.3-2.2 2.1-3 1.5-2.5-.6-4 3.6-1.5 4.6-.8.9-2.7.8-1.5 1.5 1.2 4.1 1.3.8.5 2.7-1.9 4.2-3.6.8-3.8 6.3-4.4 5.4-.7.3-2.6-2.6-3.7-.6-1.8-2-5.8-9.7-.7-3.8.6-1.1-2.1-1.4h-2.8l2.4-9.5 2.3-4.5 2.7.3 1.3-3.1 1-.3 1.8-4.5-1.2-1.1-.6-2.3.5-.7 3.6.3 3.4-1 2-1.7.9-2.2 1.4-.4 2.5.7Z"/><path id="PA-7" d="m234.4 291.2 3.4 5.5.7 3.2 2.6 3.1 2.1 1.6 3.1 1.6 3 3.9 4.8 4 .9 2.1 2.7 2.6 1.8 2.4 1.1.4 2.1 4.6.2 1.9 1.7 1.8 1.5 2.8-.7 1.2v2.6c.1 0-2.6 1.7-2.6 1.7l-2.2-.3-3.4 2.1h-3c0-.1-2.7 1.4-2.7 1.4l-2.6-1.8-.8.7h-3l-3.1-.8-1.5 1.4-2.4 1.1-3.5 3.4.8 2.7 1.1 1.2-4.2 1.2-.7 1.6-1.5 1.1-1.1 2.5-6.5-.6-1.1 1.1-3.6-.4-1.7.8-2.6.2-.4-4.3-2.6-1-1.9-2.3v-3l-1.2-1.8-2.6-1.3.8-1.8-2.2-3.4.9-1.5-1-1.5v-1.8l.7-.3 4.4-5.4 3.8-6.3 3.6-.8 1.9-4.2-.5-2.7-1.3-.8-1.2-4.1 1.5-1.5 2.7-.8.8-.9 1.5-4.6 4-3.6 2.5.6 3-1.5 2.2-2.1-.8-1.3 2.3-1.4Z"/><path id="PA-8" d="m291.4 197.7 1.5-3.8 1.1-.5v-1.9l.9-2.3 2.3.4.4-1.9 1.5-1.9v.2c.1 0 .4-1.4.4-1.4v-.6l.7-3.1v-.5l1.3-1.8.6-.9-.4-2.8 1.1-3 .9-.9.9-5 2.1-.8 2 .2 2.5-2.9 2.5 1.7 1.5-1.3 1.5.9-.7 1.6 1.5 1.4-.3 2.4h1.6l1.1 1.2 3.6-2.1 1.8 1.6 2 .9-.8 1.3 1.5 1.6-1 2.3 1.2 1.6-1.6.8v2.1l2.6.3 3.1-1.9 2.2-.7 1.8.6 2.1-.6 2 .4 1.2 1.2-.6 1.3 2.2.6 3.9.3 3.2-.6 1.7-.8 3.7.2 1.5-1.4-.2-1.5 1.6-2.1 2.4 1.1 3.9-2.5 6.2 1.8 2.4-1.9 1.9.6 2.2 2.4 2.5 1.2 1.2 1.4 6.3-.6 2-1.9h1.6c0 .1.2 3.1.2 3.1l2 1.1 1.2 3.2 1.2 1.4 2.9.7.6-2.4 1.6-.7 1.4 1.8 2.7.7.9-.9 2.2-.6 1.3 3.2-.3 1.2 4 2.3 2.3-1 3.2.2 4.5 1.1 3.6 1.6.4 2.4 1.1 1-.3 1.8 1.7.9-1 4.3-2 .7-.9 2.4-1.5 2.2.3 2.6-3.7 1.7.2 1.3-2 4.1-2.7-1.4h-2.7l-2.9 2.8-1.6-.3-1 1.4.2 1.4-2.6 1.7-1.3-1-1.1-2.1-3.6-.5-2.2.9h-1.6l-2.8 1.9.6 1.4-.5 3.2-1.8.9-.8 3.2 1.3 3.1 2 1.9-.3 2.7-1.2.9 1.1 5.6 1.3 1.5v1.6c.1 0 1.7 2.2 1.7 2.2l1.6 6.1v4.4c.1 0-4-7.6-4-7.6l-2.3-.8-.2-2.4.3-3.8-1.1-1.7-1.8-1.2-.4-1.6 1.1-4.3-.6-1.2-4.4-2.2-.3-1.2-1.7-.9-1.2 1.3-1.9-2.9h-2l-1.5-1.4v-2c.1 0-1.8-.2-1.8-.2l-4.1-2-.6-3.2-1.1-.6-2.2 1.7-.9-1.5h-3l-1.6-1.4-1.3-2.9-.4-2.2-2.2-1.7v-1l-4.5-1.3-6.2-3.3-.9.3-2.4-1.2-8.6-2.1H332l-7.2-.8h-4.9l-10.7 1.3-1 .4-2.7 2.9-2.4 1.8h-1.8l-1.5-3.6-2.8-2.7-2.3-1.4-2.4-2.5-1.5-3.2h.1Zm-6-.3h-.3zm71.5 54.2 1.4.9 2.9.8v2.4c.1 0 1.9 1.3 1.9 1.3l.2 1.4-1.5.8 1.3 3.3-1.5 3.8-3.2-.3-.9-.7-2.6 2.6-2.3-1.2-.7-1.5 1.4-.6V262l-1.4-1.7 1-2.1-1.1-3.3v-2.1h3.9zm-16.9 3.6 2.7 3.1-.7 1.4-2.2-1.2-.9-1.7 1.1-1.5Zm25.6 5-2.4-.5.9-2 1.3 1.1zm-24.7 4.5 1.7 2.6.3 2.7h-1.8l-1.6 4-1.9-3 1.5-3-.4-1.4z"/><path id="PA-9" d="M191.6 216.8v2.4l1.1 1.5 5.2 2.3 2.2-.5 3.2 3.5.8 2-2.4 1.8.8 2.5 1.5 1.4.3 1.8-1.6 1.7-.2 2.8-1.3 2.8-1.8 1.9-2-1.4-1.4 1.6 3 2.6 1 1.7v1.8l2.6 2.1.8 3.2 1.9 2.1v2.9c.1 0 1.4 1.7 1.4 1.7l3 1.1-.7 2.5-1.6 2.7.4 1.5-2.1 6.2 2.8 2.6.2 1.5-2.5-.7-1.4.4-.9 2.2-2 1.7-3.4 1-3.6-.3-.5.7.6 2.3 1.2 1.1-1.8 4.5-1 .3-1.3 3.1-2.7-.3-2.3 4.5-2.4 9.5h2.8l2.1 1.4-.6 1.1.7 3.8 5.8 9.7 1.8 2 3.7.6 2.6 2.6v1.8l.9 1.5-.9 1.5 2.2 3.4-.8 1.8 2.6 1.3 1.2 1.8v3l1.9 2.3 2.6 1 .4 4.3h-1.8l-3.1 1.1-3.3.9-5.5-.9-2.1.9-2.2-.7-.6.6-4.3.3-.9-3-3.5-1.5 1.6-1.8-.5-1.6.9-2.1 2.1-.6-.2-1.7-1.7-3.2-1.1-1.1-.4-1.9 1.4-1.6-2.6-3.8-2-1.1 1-1.5.3-3.9-2.1-2.2.5-1.1-2.7-3-2.6-1.1-1.3-2.1 1.8-1.7-1.6-2 1.4-2.6h-1.8l-2.8-1.8.2-2.1 2-2.4v-3.5l-1.2-.6-2.8 2.6-2.5-.2-3.1-1.3-.6 3 1.2 1.3v2.7c.1 0-.9 2.3-.9 2.3l-2.4 1.5-.9 1.8h2.1v1.5l-1.2 2.2 1 1.4-.9 2.5-1.7 1.3-1.5-1.7-2.7-.4-1.6-2.3H153l-4-1.3-3.5-.4-.5-1.4-2.6-1.1-3.7.3-2.2-1.7 2.9-1.5v-1.3c-.1 0-3.6-.8-3.6-.8l-1.6 1.3-.8-3-1.5-.8.8-6.3H130l1.5-1.9-1.9-.3-.7-3.5-1.4-.9-1.2-2.8-1.7-2.1 1.6.7 1.9-3.3-.9-1 1.1-1.3.2-2.6 1.2-3.9v-1.4l2.6-2.4 1 2.6h2.7c0-.1.7.8.7.8l2.5-1.1.2-1.5-1.6-1.7-1.7 1.3-2.8-1.3 1.1-.8-.2-2.3 1.6-1 .8-1.6 1.5-1.3-.3-1.8-1.1-1.2 1.7.6-.5-4.2-1.9-2.5v-1.9l1.2-.7 1.9.7h2.2c0-.1 1.3.9 1.3.9l.9-3.2h1.8l.4-2 1.8-3.2 1.4.3 1.5 3.6 1.6.4-1.5-5.4 2.1-2.4.9 1.5 2.1-.8 1.4 2-1.4 2.6 3.6.4-1.4-2.7 1.8-.2 1.8 4.1 3.3.2 1.8-1.4v-4.1c.1 0-1-1.1-1-1.1l-1.5.2-.7-2.1-2.1-3.5v-4.5l.5-2.8 1-1.8-.9-4.2 1.2-2.6 8.4-2 3.8-.2 1-1 2.6-.8 2.7-.2 3.3-1.7 1-1h2.6l1.4-1.6 1.8.3Zm-47.5 51.6-1.8-1.4-1.1-2.5-1.7 3.8-1.2.3 1.5 2.3h2.3c0 .1 2-2.5 2-2.5m3.9-9.8-.7 1.3-1.1 1.3-1.5-1.1-.4.9.3.7 1.4.2 2.9 1.7h.6l2.1-.4 1.1-2-.3-1.5-.8-.2-.5-.8h-2.2l-.4-1-.7.9Zm22 52.8 2.1 1.4v2.5l-1.5-.2-.5-3.8Zm-56 32.1-3.2-3.1-2.7-2.1-.8-3.6-1.4-2.1 2.3-.3 1.8-3.2v-1.7l1.2-1.5 2-.4 1.5-2.2 1.8-1.7 2.9 1 .6 2.8v2l1.3 2.9 2.2-.3.6 2.4-.5 1.1-2.6.7-1.1 4.7 1.7 1.1 1.5 3.2h1.6c0 .1 3-.7 3-.7l2.4 3.5.7 2.4-1.7-.2-2.4.9-4.1-2-2.7-.8-3-.2-1.3-.7-1.5-2.1Zm58.9-16.7 3.5.2 1 .6-1.1 2.4-2.1 1.4-3.4-1.7-5.8 4.8-2.5.4-1-2.7 1.6-.8 3.5-.4 1.8-2.5 4.6-1.8Zm-9.6.5 2.2 1.5-3.3.9 1.2-2.3Zm-51.4 23.8 2.6.2.3 2.1-1.5 2.1-1.6-2.5v-2Z"/><path id="PA-10" d="m291.3 197.8 1.5 3.2 2.4 2.5 2.3 1.4 2.8 2.7.4 1.9 1.8 3.9-.6 1.9-4.2.7-1.5.7h-3.1l-3.5 1.6-2.4 1.4-.9 2.3-1.3 1.4-.5 2.2.8.7.2 2.2 1.4 1.4-1.2 1.6.4 1.3-1.3 1.4-4.4 1.8-1.1 1.2 1.7 1.4 2.4 1.1 5-.8-4.8 4-6.7 1.9-1 1.9-2.2.8-1.1 1.2-2.5 1.2-1.3 2.6-5.3 3.5-3.3 1.7-1.2-3.4-2-2.5.5-3.8-1.6-2.2.9-3.8-1.5-4.7.6-2.8-.3-3.1-1-2.9-2.5-3-1.1-9.2 1.7-1.7 1.1-2-.7-.9.7-1.8 1.7-.6 2-2.6 3.4 2.3 5 .5 2.3-1.1.7-1.8.3-2.8-2.3-4.9 2.5-2v-3.3c.1 0 2.2-2.2 2.2-2.2l3.3-.4 2.1.7 1.3-.3 2.7 1.4v3c.1 0 1.7 1.4 1.7 1.4l2.4.8 1.7-1 1.8.8h2.2c0 .1.4.3.4.3Z"/><path id="PA-EM" d="m497.6 276.7-9.4 2.1-1.3 1-4.2.3-2.3 1.7v1.2c.1 0-1.8.5-1.8.5l-2.5-.3-3.4 1.8h-.9l-1.3-2.2-1.9-1.6-1.7.4-.2-4-1.1-3-3.1-2.4-4.6-1.8-1.2-.2-.5-2.2-1.7-1.1-.9-2.6-1.3-.4-1.2-1.9-.8-3.6-1.1-2 1-1-.8-3-1.6-.9-.3-2.5-1.3.4-2.3-1.8 1.4-1.8-.7-1.4-1.9-1.2-.9-2.6-.2-2.3.7-1.3 2.5-1.2.5-1.8 2.1-2 .5-2.1 4.1-1.2 2.2-2.4 3.1-.7 1.3.8 3.8 1.2 2.8 1.8 1.4 3.3h1.3l2 1.2.3 1.1-1.1 2.3 2.3 3.4 1.2.6 1.7-.7 1.3.5 1.9 4.5 1.7 1.6 1.5 2.2v1.7c.1 0 3.5.1 3.5.1l2 3.2 1.4 1.2 2.5 4.8-.8 2.8 1.7 3.1.2 2 1.7 1.8.5 2.1 2.1.4 1.2 1.3.8 2.7Zm-77.3 8.3.4 1.7 2.3 2.2.5.5 1.3 4 1.8 1 .8 4 3.7-2.9.9.6 1.3 3.5 1.2 5 .7.9.7 3.2h1.4l1 2.9-.8 2.1 1.1 4.9v4.6l-.7.6-.9.5-.5.8-1 .7-.9.3h-.4l-.6-.7-1-1.7h-1l-1.4.8v1.3c-.1 0-1.8.9-1.8.9l-1.2-3.3-.4-2.7-1 .4-2.6-2.1-1.7-.5-3 1.2-2-1.6-2.3-2.6-2.9-4.6-.6-3.1-1.6-2.8v-1.6h-1.9l-1.6-3.7.7-1.9-.8-1.7.9-1.6h2.5c0-.1 1.5-1.8 1.5-1.8l1.8-1 1.5.8 1 .3h1.5c0-.1.3-.8.3-.8v-3.9c-.1 0-2.3-1.1-2.3-1.1v-1.1l3.9-2.4 1.3.7 1 .8Z"/><path id="PA-KY" d="m479.3 247.2-1.7-1.6-1.9-4.5-1.3-.5-1.7.7-1.2-.6-2.3-3.4 1.1-2.3-.3-1.1-2-1.2h-1.3l-1.4-3.3-2.8-1.8-3.8-1.2 1.2-.9-.6-3-3-1.7-.3-1.8-1.4-1.2-3.9-1.6-1.3-1.5h-1.5l-1.4-1.5-1.5-2.5.3-1-4-2.9-.2-1.8-1.7-.4-1.9-1.3-2.4-2.7-3.6-1.7-1.7.3-1.7-.9.3-1.8-1.1-1-.4-2.4-3.6-1.6-4.5-1.1-3.2-.2-2.3 1-4-2.3.3-1.2-1.3-3.2-2.2.6-.9.9-2.7-.7-1.4-1.8-1.6.7-.6 2.4-2.9-.7-1.2-1.4-1.2-3.2-2-1.1-.2-3h-1.6c0-.1-2 1.7-2 1.7l-6.3.6-1.2-1.4-2.5-1.2-2.2-2.4-1.9-.6-2.4 1.9-6.2-1.8-3.9 2.5-2.4-1.1-1.6 2.1.2 1.5-1.5 1.4-3.7-.2-1.7.8-3.2.6-3.9-.3-2.2-.6.6-1.3-1.2-1.2-2-.4-2.1.6-1.8-.6-2.2.7-3.1 1.9-2.7-.3V178l1.7-.8.5-.8 4-2.8 2.2-.5 2.6-5.7 3.3-2.3 1.1.4.7-6.5 4.1-.7h5.1l-.6 1.7-1.6.8h-4.3c0 .1-1.9 2.4-1.9 2.4l-.2 2.4 1.8 3.5 1.3-.9 2 .6 2-1.2 2.5-.3 3.6 1.3.4 1.5 4.5.3 2.1-1.5.6.9 3-.7.3-1.2 2.1.7 3.1-1.2 1 1.3 4.3 1.6.9-.8 4.8.9 1.7-1.8 1.9.4 3.2 1.8h3.6l.4 1h3.1l.8 1.7 5.8 2.5h2c0 .1 2 1.9 2 1.9l3.9 1.2.5.7 3.5 1.8h3.2c0-.1 3.7 1.4 3.7 1.4l2 1.6 4.8.6 1.6 1v1.1l1.9 1 .5 1.4 4.6 2.9 1.2 2.9 3.7 3.2 1.3.7 1.2-1.5 1.1 1.6 3.1 2.2v2l4.7 3-.7 3.2 3 3.5.7 2.2 1.7.5 4.3 4.8 1.5.9.6-1.7 2.2 2.7 1.8 1.2v2.2c.1 0 2.8-.3 2.8-.3v2.6c.1 0-.5 2.3-.5 2.3l5.6 3.2 4.4 1.1 1.2-1.1 1.7-.2.5 2.3-.6 2.9-3.9 3.9-1.6 3.8Z"/><path id="PA-NB" d="m163 225-1.2 2.6.9 4.2-1 1.8-.5 2.8v4.5l2 3.5.7 2.1 1.5-.2 1.1 1.1v4.1c-.1 0-2 1.4-2 1.4l-3.3-.2-1.8-4.1-1.8.2 1.4 2.7-3.6-.4 1.4-2.6-1.4-2-2.1.8-.9-1.5-2.1 2.4 1.5 5.4-1.6-.4-1.5-3.6-1.4-.3-1.8 3.2-.4 1.9h-1.8l-.9 3.3-1.3-1h-2.2c0 .1-1.9-.6-1.9-.6l-1.1.7v1.9l-3 1.7-1.8-1.4-1.8 2.3-1.4 4.2-1.1.3-1.9 2.4-.9-1.2-2.6-.6-1.9 3.1-1.7-1.4-3.3.5-1.2-.3-2.4-2.1.3-2.9h-3.8c0-.1-3.6.3-3.6.3l-1.9-.4-3.1 1.1-.5-1.4h-1.4l-1.9-2.2.6-2.2-.7-3-1.7.6-.9-.7-.5-2.5-1.7-2.3-1.2 1.8-6.8 1.4-.4-3.4 2-2.1.8-3L86 244l-2.8-.9 1.2-2.7.2-4.7-.2-8.8h-4.6c0-.1-2.9-.7-2.9-.7l-2.1.2-3.3-4.1-2.6-.2-3.5-1.2 1.3.2 1.3-5.5 1.1-.9-1.5-4-1.8-1.7-5-1.2-1.4-1.5 2.3-.8.8-1.2h1.9l3.2-5.6.4-1.9 1.5-.8 2 .8-.4 1.3 1.9 3-3.7 2.4v2.1l1.5.9 1.1-.6 1.7.6.3 1.8 3 .3 3.6 2.1-.3 2.8-1.4-.5-.2 1.9 2.1.4 1 3.9 1.9-3.4 2.9-1.5 2.7.3.7-2.1.6.4.2 2 1.8.4 3-2.2.4-2.1 1-.9 1.6 1.4 3.7-.3.9-.8.2-3 1.9.6.8 1.8 2.9-.6 2.5.7 2.1 1.9 1.5-.8 1.3-2.9-1.1-2.4-3.8-1.2-3.1-3.1-1-2.5-2-1.8-4-2.2 2.2-1.1 1.3 1.1 2-1.5-2.8-.6-.2-1.9h3.1l2.3 3.5 2.1 1.5-.8 1.6 1.2 3.1 5.3.6 1.1 1.6 2.6 1.2 2 3.8 4 5 5.1 5.5 4.4 3.7 3.1 1.6 1.7-.8 3.9 1.2 1.7-.7 2.8.5 2.2 1.2 2.5-.3 2.2.4 1-.9 4.2-.3 1.7.9Zm-14 33.7h2.2l.5.8.8.2.3 1.5-1.1 2-2.1.4h-.6l-2.9-1.6-1.4-.2-.3-.7.4-.9 1.5 1.1 1.1-1.3.7-1.3.7-.9.4 1Zm-12.7 10.5-2.4-1.5 1.3-2.6-1.1-1.7-1.3.9v2.3l-1-.4h-1.2l-.7-1.9-.3-.8 3 .8-.7-1.9.9-1.9v1.1l3 1 .6 2.2 1.1 1.2.3 1.8-1.5 1.3Zm7.8-.8-2 2.6h-2.3c0-.1-1.5-2.5-1.5-2.5l1.2-.3 1.7-3.8 1.1 2.5 1.8 1.4Zm-10.5 1.3-.3 2-2.8-.6v-1.2c-.1 0 2.3-.5 2.3-.5zm-.5 5.2 2.8 1.3 1.7-1.3 1.6 1.7-.2 1.5-2.5 1.1-.7-.9h-2.7c0 .1-1-2.5-1-2.5l1-.8Z"/></g></svg>