<?xml version="1.0" encoding="UTF-8"?>
<svg id="Layer_1" xmlns="http://www.w3.org/2000/svg" xmlns:amcharts="http://amcharts.com/ammap" version="1.1" viewBox="0 0 512 512">
  <!-- Generator: Adobe Illustrator 29.1.0, SVG Export Plug-In . SVG Version: 2.1.0 Build 142)  -->
  <g id="_x3C_defs">
    <amcharts:ammap bottomLatitude="10.0424809" leftLongitude="-61.9314175" projection="mercator" rightLongitude="-60.4924983" topLatitude="11.3625022"/>
  </g>
  <g>
    <path id="TT-TOB" d="M502,24.2l-55.4,16.9-58.2,47.3,15.5,7.4,94.6-44,3.5-27.5Z"/>
    <path id="TT-POS" d="M156,262.4l-13.2,3.1,18.7,11.2-5.5-14.3Z"/>
    <path id="TT-CHA" d="M205.9,301.7l-14.3-.3-10.9.5-7.4,9.6v5.5s29,6.3,29,6.3l3.7-21.6Z"/>
    <path id="TT-SFO" d="M180.5,410.7l4.8-18.1h-11.1c0,.1-10.6,21.6-10.6,21.6l16.9-3.5Z"/>
    <path id="TT-TUP" d="M275,216.7h-63.4c0,0,4,23.7,4,23.7l-29.8,3.1,5.8,57.9,14.3.3,45.4-9.2,13.2-11.9-4.5-31.3-8.8-3.8,28.8-16.4-5-12.4ZM239,286.7l-7.4-2.3,3.5-14.3,3.8,16.6Z"/>
    <path id="TT-PTF" d="M87.4,443.9l5.4,8.4,7.3-1.7,14.1-16.1-3-6.3-23.8,15.7Z"/>
    <path id="TT-PED" d="M202.4,477l2.2-51.4-24-14.8-16.9,3.5-10.8,3.3,18.2,19.4-12.4,41.3,43.8-1.2Z"/>
    <path id="TT-CTT" d="M266.1,340.5l-7.3-3.5,2.7-16.7-10.1-27.9-45.4,9.2-3.7,21.6-29-6.3-9,32.9,9.9,42.8h11.1c0-.1,40.7-8.3,40.7-8.3l23.8,9.2,16.3-53.1Z"/>
    <path id="TT-PRT" d="M249.8,393.6l-23.8-9.2-40.7,8.2-4.8,18.1,24,14.8-2.2,51.4,70.5-.8-5-55.1-18.1-27.4Z"/>
    <path id="TT-SJL" d="M191.6,301.4l-5.8-57.9,29.8-3.1-4-23.7-16.6,12.8-14.6,4.9v-7.5l-2.1,4.9-4.4-4.4-10.4,7-7.5,28.1,5.5,14.3,11.7,34.7,7.4-9.6,10.9-.5Z"/>
    <path id="TT-MRC" d="M321.6,337.9l-55.6,2.6-16.3,53.1,18.1,27.4,5,55.1,27.3-7.1,20.3-14.4,16-.9-2.4-38.9,14.5-29.3-19.3-18.6-7.7-29Z"/>
    <path id="TT-SGE" d="M321.6,337.9l-1.4-16.5,10.1-8.7-6.7-53.1,29-28.5,14.9-26.2-59.9,2.2-32.6,9.6,5,12.4-28.8,16.4,8.8,3.8,4.5,31.3-13.2,11.9,10.1,27.9-2.7,16.7,7.3,3.5,55.6-2.6Z"/>
    <path id="TT-ARI" d="M239,286.7l-3.8-16.6-3.5,14.3,7.4,2.3Z"/>
    <path id="TT-SIP" d="M23.6,487.8l33.8-14.9,37.5.9,22.1,9.2,41.6-4.9,12.4-41.3-18.2-19.4-37.2-2.5-4.3,13.2,3,6.3-14.1,16.1-7.3,1.7-5.4-8.4-34.5,11.7-43,27.2,13.6,5Z"/>
    <path id="TT-DMN" d="M93.5,261.5l2.8-7.9-7.9,7.1,5.1.8ZM156,262.4l7.5-28.1-39.2,2.5-22.9,14.6,3.9,6.1,37.6,8.1,13.2-3.1Z"/>
  </g>
</svg>