<svg xmlns="http://www.w3.org/2000/svg" xmlns:amcharts="http://amcharts.com/ammap" id="Layer_1" viewBox="0 0 512 512"><g id="_x3C_defs"><amcharts:ammap bottomLatitude="10.042" leftLongitude="-61.931" projection="mercator" rightLongitude="-60.492" topLatitude="11.363"/></g><g><path id="TT-TOB" d="m502 24.2-55.4 16.9-58.2 47.3 15.5 7.4 94.6-44 3.5-27.5Z"/><path id="TT-POS" d="m156 262.4-13.2 3.1 18.7 11.2z"/><path id="TT-CHA" d="m205.9 301.7-14.3-.3-10.9.5-7.4 9.6v5.5l29 6.3 3.7-21.6Z"/><path id="TT-SFO" d="m180.5 410.7 4.8-18.1h-11.1c0 .1-10.6 21.6-10.6 21.6z"/><path id="TT-TUP" d="M275 216.7h-63.4l4 23.7-29.8 3.1 5.8 57.9 14.3.3 45.4-9.2 13.2-11.9-4.5-31.3-8.8-3.8 28.8-16.4zm-36 70-7.4-2.3 3.5-14.3 3.8 16.6Z"/><path id="TT-PTF" d="m87.4 443.9 5.4 8.4 7.3-1.7 14.1-16.1-3-6.3z"/><path id="TT-PED" d="m202.4 477 2.2-51.4-24-14.8-16.9 3.5-10.8 3.3 18.2 19.4-12.4 41.3 43.8-1.2Z"/><path id="TT-CTT" d="m266.1 340.5-7.3-3.5 2.7-16.7-10.1-27.9-45.4 9.2-3.7 21.6-29-6.3-9 32.9 9.9 42.8h11.1c0-.1 40.7-8.3 40.7-8.3l23.8 9.2 16.3-53.1Z"/><path id="TT-PRT" d="m249.8 393.6-23.8-9.2-40.7 8.2-4.8 18.1 24 14.8-2.2 51.4 70.5-.8-5-55.1-18.1-27.4Z"/><path id="TT-SJL" d="m191.6 301.4-5.8-57.9 29.8-3.1-4-23.7-16.6 12.8-14.6 4.9v-7.5l-2.1 4.9-4.4-4.4-10.4 7-7.5 28.1 5.5 14.3 11.7 34.7 7.4-9.6 10.9-.5Z"/><path id="TT-MRC" d="m321.6 337.9-55.6 2.6-16.3 53.1 18.1 27.4 5 55.1 27.3-7.1 20.3-14.4 16-.9-2.4-38.9 14.5-29.3-19.3-18.6-7.7-29Z"/><path id="TT-SGE" d="m321.6 337.9-1.4-16.5 10.1-8.7-6.7-53.1 29-28.5 14.9-26.2-59.9 2.2-32.6 9.6 5 12.4-28.8 16.4 8.8 3.8 4.5 31.3-13.2 11.9 10.1 27.9-2.7 16.7 7.3 3.5 55.6-2.6Z"/><path id="TT-ARI" d="m239 286.7-3.8-16.6-3.5 14.3 7.4 2.3Z"/><path id="TT-SIP" d="m23.6 487.8 33.8-14.9 37.5.9L117 483l41.6-4.9 12.4-41.3-18.2-19.4-37.2-2.5-4.3 13.2 3 6.3-14.1 16.1-7.3 1.7-5.4-8.4L53 455.5l-43 27.2 13.6 5Z"/><path id="TT-DMN" d="m93.5 261.5 2.8-7.9-7.9 7.1zm62.5.9 7.5-28.1-39.2 2.5-22.9 14.6 3.9 6.1 37.6 8.1 13.2-3.1Z"/></g></svg>