<?xml version="1.0" encoding="UTF-8"?>
<svg id="Layer_1" xmlns="http://www.w3.org/2000/svg" xmlns:amcharts="http://amcharts.com/ammap" version="1.1" viewBox="0 0 512 512">
  <!-- Generator: Adobe Illustrator 29.1.0, SVG Export Plug-In . SVG Version: 2.1.0 Build 142)  -->
  <g id="_x3C_defs">
    <amcharts:ammap bottomLatitude="14.052495" leftLongitude="-124.541947" projection="mercator" rightLongitude="-57.307277" topLatitude="49.390806"/>
  </g>
  <g>
    <path id="divider2" d="M389.9,354.9v-26.3l27-43.7h-.2c0,0-27,43.6-27,43.6v26.3h-39.5v-26.3l27-43.7h-.1c0,0-27,43.6-27,43.6v26.3h-57.9v-7.7l-.2-.3-6.2-10.9v-.2h-57.4v.2h57.2l6.4,11.2v7.6h-63.6v.2h63.6v46.3h.2v-46.3h57.9v46.3h.2v-46.3h39.5v46.3h.2v-46.3h43.3v46.3h.2v-46.3h67.9v-.2h-111.3Z"/>
    <path id="divider1" d="M164.6,320.3h-29.6l-23-23.4-49.5-15.5v.2l49.4,15.5,23,23.4h0v18.9l29.9,26.8.2-.2-29.9-26.7v-18.8h29.4l36.7,31.8v15.8s.2,0,.2,0v-15.8l-36.8-31.9Z"/>
    <path id="AS" d="M241.4,347.8l-.7-.4-.2-.9h-.4s-.2-.2-.2-.2l-.4.3-.9-.4v-.5c.1,0,.7-.5.7-.5h.4c0,0,0-.4,0-.4l.5-.2.9.2.5-.2.4.4,1.1-.6.8-.9,1.1-.7.3-.5v.7c0,0,1.2-.1,1.2-.1l2.3.4.2-.4h.6s-.1.9-.1.9l-1.2.7h-.4v-.4s-.7-.2-.7-.2l-.4.5-1.1.4-.3-.3v-.3c.1,0,0-.4,0-.4l-.8.3.4.4v.3s-1,1.1-1,1.1h-.4c0,0-1.1,1.8-1.1,1.8h-.5c0-.1-.3.5-.3.5l-.4-.5ZM250.1,344.2l.4.3-.3.2h-.3c0-.1.2-.5.2-.5ZM269.5,341.9l1.7.5-1.5.8-.5-1.2h.3ZM271.3,342.4l.6-.5.4.9-.2.4-.8-.9ZM276.4,344.2l.4.3.7-.2h.3c0,.1.3-.2.3-.2l.4.2h1c0,0,.3.2.3.2l-.3.7v.9s-1.7-.2-1.7-.2l-.8.8-.5-.3-.3-.9-.7-.8.7-.5Z"/>
    <path id="FM" d="M421.8,381.2v.2s.4.4.4.4v.8l.9.6h.5c0,0,.5.8.5.8l.5-.3v-.6c.1,0,.6-.3.6-.3v-.3c.1,0,1.7.3,1.7.3v.4s.4.5.4.5l-.4.2v.4c-.1,0-.6.3-.6.3l-.4-.5h-.5l-.4.3v.2s.2.3.2.3l-.7,2.4-1.2.6-.4.4-.3-.2-.4.5.7.2.2.3-.2.2.8.4-.9.9-.5.3h-.4l-.2-.2-1-.5-.2-.4-.7-.5-.5,1h-.2s0-.9,0-.9l-.4-.8h-1v.8l.5.2v.5c-.1,0-.4.1-.4.1l-1,.4h-.7s-1.3-1.4-1.3-1.4l-.2,1.7h-.7c0-.1-1.6,0-1.6,0l-.6-.6.2-.6v-.8c-.1,0-.8-.4-.8-.4v1c-.1,0-.7-.1-.7-.1l-.6.2-.3-.4-1.7-.3-.5-.4-2.4-3.5.9-1.7-.5-.4-.5-1.1-.4.2-.5-.3v-.4s.4-.1.4-.1h.3s.4.4.4.4l.5-.2.3-.7-.7-.2-.3-.4v-1.4c0,0,0-.7,0-.7l-1-.3-.8.6-.2.8h-.6c0,0,.1-.6.1-.6l-.4-.4.5-1.1h-.6c0,0-.4.5-.4.5l-.8.2v-1s-.3-.6-.3-.6l.3-.2-.5-1.3v-1c-.1,0,.1-.8.1-.8h.6c0,0,.5-.4.5-.4l1.9-1.2h.5s.3.4.3.4l.4-.3-1-.8.2-.4h.7s.5.2.5.2l.6-.4.9,1.6.5.3h1c0,.1.8-2.5.8-2.5l-1.2-1.3.5-.6v-1h.4l.6.5h.7c0-.1.7,1,.7,1v1.9h.6v-1.3l.5-.5.7.3.5.6h.3c0-.1.4-.7.4-.7v-.6c-.1,0,0-.2,0-.2l2.3,2.4h.6s.2-1.2.2-1.2l.9-.5h1l.4.2-.5.6.6.3h1.2l.2.4-.2,1.2.5,1.1-.3.9h.3c0,0,0,.7,0,.7l.4.2h1.1c0-.1.4.1.4.1v.4c0,0,0,.2,0,.2l.2.3.9-.5.2-.5v-.6s.1-.2.1-.2l.3-.2h.4s.4-.3.4-.3h.4c0,.1-.2.6-.2.6h-.2v.6s.8.4.8.4v.4c.1,0-.2.8-.2.8l.5.6v.6l.5,1.3-.2.8.3.5h.3l.2.2v.4c.1,0,0,.3,0,.3l-1.6,1.2-.6-1.5-1,.3h-.9l-.5.8-.5-.4h-.4ZM398.6,376.3h-.4c0,0-.5-1.2-.5-1.2l-.5-2.6v-.2c.1,0,.4,0,.4,0v-.5h.3c0-.1-.2-.3-.2-.3v-.3c0,0,.4,0,.4,0v-.5c0,0,.8-.5.8-.5l.3-.5h.3c0-.1.4,0,.4,0v-.3s.3-.3.3-.3h.3s.3-.6.3-.6l.8-.3v-.3c.1,0,.6.2.6.2h.3c0-.1-.2-.6-.2-.6h-.8l-2.3,1.6-1.5,1.4-.9,1.8.3,1.9.7,1.8.3.6h.6c0-.1.1-.4.1-.4ZM398.9,378.5l.3-.3h-.3s-.1-.3-.1-.3l.3-.5-.5.2v-.9c.1,0-.4.4-.4.4v.7c.1,0,1.2,2.3,1.2,2.3l.3,1.3.6.2v-.4l-.6-.8-.8-1.9ZM412.3,367.4l.3.2.4-.3v-.6l-.2-.2-.3.2-.2-.4-.9.2-.4.3v.6l.3.4h.3l.8-.3ZM415.1,365.8l-.3-.6h-.5v.5l.3.3.4-.2ZM416.9,365.6l1.1-.4v-1l-.3-.5h-.4l-.3.3-.7.4v.3h.2c0,.1-.2.4-.2.4v1c-.1,0,.3.4.3.4l.2-.2v-.6ZM421.3,367.8l.2-.2v-.3l-.3-.5-.7.4v.4l.5.3h.3s0,0,0,0ZM422.4,366.8l.3-.3h.3v-.2l-.3-.4h-.4l-.9.5v.3c-.1,0,.5.2.5.2h.5ZM422,371.8l-.8.9v.3l.8.5.6-.3.2-.3v-.2l-.4-.4v-.2c.1,0,.4.2.4.2l.4-.3v-.6l.3-.6v-.6c-.1,0-.7.2-.7.2l-.4.5-.3,1Z"/>
    <path id="GU" d="M365.4,398.3l.6-.2,1.2-1.5-.2-.5.9-.4.5-.4.8-.6.5-1.6.2-1.8v-1.2s-.5-.4-.5-.4l.6-.5v-2.8c-.1,0,.4-2,.4-2l1-1.6v-.9s.6-.6.6-.6l.9.2.9-1.2,1-.3,1.4-1.6,1.2-.5,1.5-1.9,1.7-1,.5-1.1.5-.4,1.7-.7.9-1.3.9-2.8.5-.9.5-1.5v-.9c0,0-2.3,0-2.3,0l-1.3-.2-.8-1.6-1.1-.9-.2-.9-1.7-1.3h-1.1c0,0-.5.3-.5.3l-1.2,2.4-.3.9v1.9c0,0-.5,1.3-.5,1.3l-.4.3-1.9,3.4-.2,1.3.2.8-.3.6-.8.3-1-.2-.8.5-.2.6.4.8-.5.6h-.5c0,.1-.9,0-.9,0l-.5.4-1.7-.3-.9.6h-.6c0-.1-.9.5-.9.5l-1.3.4-.5,1.9h-1.2c0,0,0,.6,0,.6l.5.2-.4,1.7-.5-.9v-1.3s-1.6,0-1.6,0l-1.3-.5h-.9c0,0,0,.7,0,.7l1.3.8.5,1.1,1.5,1.1.3.9v.7s-.8.6-.8.6l-.6,2.6-.8,1.3.7.2,1.1,2.3-.2.6v.5c.1,0,.6.3.6.3l-.4,1.6.5,1.2,1.2,1.4,2.7.9h.6s.8.1.8.1Z"/>
    <path id="MH" d="M474,375.2v.2c0,0,0,.3.2.3s0,.2,0,.2v.3h-.3l-.3-.2-.2-.3s-.1-.3-.1-.3-.2-.4-.2-.4v-.4s-.2-.2-.2-.2l-.5-.2h-.4s-.6,0-.6,0l-.4-.2-.4-.2-.3-.2h-.5c0-.1-.2-.3-.2-.3,0,0,.5,0,.5,0s.2-.1.2-.1h.2s.3,0,.3,0h.4c0,.1.3.2.3.2,0,0,.4-.2.5-.2,0,0,.4-.3.4-.3s.1.3.2.4c0,0,.2.2.2.2l.2.3.2.2.3.2.2.2v.2h-.1c0,.1,0,.2,0,.3,0,0,.2.2.2.2h.1ZM476.1,380.6l.2-.2.2-.3v-.3s-.2-.2-.2-.3,0-.2,0-.2l-.2-.2s-.1-.2,0-.3c0,0,0-.2,0-.2s-.2-.2-.2-.2h-.8c0-.1,0-.2-.2-.2s-.2,0-.2,0,0,.3,0,.3l.3.2.3.2.3.2.2.2s0,.3,0,.4.1.5.1.5l.2.2h.2ZM478.7,382.6s.1-.1.2-.2c0,0,.2-.2.2-.2s.1-.3.1-.3h.2c0-.1,0-.3,0-.4,0,0,0-.3,0-.3v-.2s0-.1,0-.1h-.2l-.2.3-.2.2h-.3s-.2.1-.2.1h-.4s-.3,0-.3,0l-.2.2v.3c.1,0,.4.2.4.2h.4c0,.1.2.3.2.3h.1c0,0,.1,0,.1,0ZM464.9,375.4v-.2c0,0,.1-.2,0-.2s-.3-.2-.3-.2v-.2l-.2-.2s-.2-.1-.2-.2c0,0-.3-.2-.3-.2h-.2v.2c0,0,.5.1.5.1,0,0,.1.2.2.2,0,0,0,.1,0,.1s-.2,0-.2,0v-.2c-.1,0-.4-.1-.4-.1,0,0,0,.1,0,.2,0,0,.2.3.3.3,0,0,.2.2.3.2s.3.2.3.2h.2ZM467.1,375.4h.2v-.3h-.2c0-.1-.2,0-.2,0v.2h.2ZM466.1,370.4v-.2c.1,0,0-.2,0-.2,0,0,0-.1,0-.2,0,0-.2-.3-.2-.3,0,0-.3,0-.3,0,0,0,0,.1,0,.2,0,0,0,.1,0,.3s.3.3.3.3h.2ZM443.7,371.6s0-.1,0-.2-.1-.2-.1-.2c0,0-.2,0-.2-.1,0,0-.2-.2-.3-.2s-.4,0-.4,0h-.2c0,0,0,.2,0,.3,0,0,.2.2.2.2,0,0,.2,0,.2.1,0,0,.2.2.3.2,0,0,.2,0,.2,0h.2ZM449.9,364.2l.2-.3v-.3c.1,0,0-.3,0-.3l-.2-.4-.4-.2h-.3c0-.1-.3-.1-.3-.1l-.3.2s-.2.2-.2.3,0,.3,0,.3l.2.3.2.3v.3c.1,0,.4.1.4.1h.2v-.2c0,0,0-.2,0-.2,0,0-.2,0-.3-.2,0,0-.3-.3-.3-.3v-.2c-.1,0,0-.2,0-.2l.3-.2h.3c0,0,.2,0,.2,0l.2.2v.2c0,0,.2.3.2.3v.2c-.1,0-.1.2-.1.2h.1ZM463.8,363.5s0,0,.1,0,0-.1,0-.1c0,0,0-.2,0-.2,0,0-.1-.3-.1-.3h-.2c0-.1-.2-.4-.2-.4,0,0-.1-.1-.2-.1s-.3,0-.3,0c0,0-.2,0-.2,0,0,0-.2,0-.3,0,0,0-.2.2-.2.2l-.2.2v.3c0,0,.1.2.1.2h.2c0,.1.3.3.3.3,0,0,.3,0,.3,0,0,0,.2-.2.2-.2,0,0,0-.1,0-.1,0,0-.3,0-.4,0,0,0-.4,0-.4,0,0,0-.2-.2-.2-.2s0-.3,0-.3h.2c0,0,.4,0,.4,0h.2c0,.1.2.3.2.3,0,0,.2.2.2.2,0,0,0,.2,0,.2h0ZM467.9,365.3h.4c0,0,0-.4,0-.4,0,0-.1-.1-.2-.1s-.4,0-.4,0-.3,0-.3,0-.3,0-.3,0c0,0,0,0,0,.1s0,.2,0,.2h.7ZM470.7,363.4h-.3c0,0-.1.1-.1.1,0,0,0,.2,0,.1,0,0-.2-.2-.2-.2,0,0-.1-.2-.2-.2h-.3v.2h0c0,.1.4.1.4.1l.3.2h-.2c0,.1-.2.3-.2.3v.3c0,0,0,.4,0,.4,0,0-.1.1-.2.1s-.3-.1-.3-.1l-.3-.2v-.3c0,0,0-.3,0-.3v-.2h.2v-.2c0,0,0-.1,0-.1s-.3.1-.3.1v.4c0,0,0,.4,0,.4v.4c0,0,.4.3.4.3h.2c0,.1.3.2.3.2h.3c0-.1.1-.5.1-.5v-.4c0,0,.3-.2.3-.2l.2-.2.2-.2v-.2c0,0,0-.1,0-.1ZM472.4,364.4h.2c0-.1.2-.3.2-.3v-.3c0,0-.4-.2-.4-.2h-.3l-.2.2v.2h.2c0,0,0,.3,0,.3h.1c0,.1.1.1.1.1h0s0,0,0,0ZM484.6,359.9h-.2c0,0-.1,0-.1,0h-.2s0,.2,0,.2c0,0,0,.1,0,.2,0,0,0,.1,0,.1h.2c0-.1.1-.2.1-.2h0v-.3h0ZM482.9,364.9h.3c0,0,.2-.1.2-.1,0,0,0-.1,0-.2s-.1-.2-.2-.3c0,0-.2-.2-.2-.2,0,0-.2,0-.2,0,0,0,0,.2,0,.2v.6ZM482.6,365.3v-.3s0-.3,0-.3c0,0-.2-.1-.2-.1h-.3s-.2.1-.2.1v.2c0,0,0,.1,0,.1l.2.2h.1c0,0,.2,0,.2,0h.1ZM483.9,368h-.2c0,0-.2.1-.2.1,0,0,0,.3,0,.3s-.1.2-.1.2v.2c0,0,0,.3,0,.3,0,0,0,.1.1.1,0,0,.3,0,.3,0h.2s0-.2,0-.2v-.5c-.1,0,0-.2,0-.2v-.2c0,0-.2-.2-.2-.2ZM480.4,371.2s.2,0,.3,0c0,0,.1-.2.1-.2,0,0,0-.2,0-.3s-.2-.1-.3-.2-.3-.2-.3-.2l-.2-.2s-.1,0-.2,0c0,0-.2,0-.2,0v.2c-.1,0,0,.3,0,.3,0,0,0,.1.1.2,0,0,.3.3.3.3l.2.2h.3ZM483.8,373.1h.5c0-.1.2-.2.2-.2h.4c0,.1.1.1.1.1v-.2c.1,0,0-.3,0-.3l-.2-.2-.3-.2h-.2l-.3.2h-.3c0,0-.3-.1-.3-.1h-.2l-.2.2v.2c.1,0,.4.2.4.2v.2s.3.1.3.1ZM484.2,373.8v-.2c-.1,0-.3-.1-.3-.1l-.3.2v.2c0,0,0,.2,0,.2l.3.2h.1c0,.1.1.3.1.3v.2c.1,0,.3,0,.3,0v-.2c.1,0,.1-.3.1-.3s-.2-.3-.2-.3v-.2ZM489.5,377s-.1-.3,0-.3,0-.3,0-.3c0,0,.1-.3.1-.3v-.3c-.1,0-.6-.3-.6-.4s-.4-.2-.4-.2c0,0-.3-.1-.4-.1s-.3,0-.4,0c0,0,0,.2,0,.2,0,0,.1.3.1.3s.1.2.1.2.2.2.3.3c0,0,.3.4.3.4l.3.2.3.2h.2s0,0,0,0ZM489.3,378.6s.2-.1.2-.1,0-.3,0-.3v-.2c0,0-.2-.2-.2-.2l-.2-.2s-.2,0-.2,0v.2l.2.2v.2s-.1,0-.1,0h-.2c0-.1-.1,0-.1,0v.2c.1,0,.5.3.5.3h.2s0,0,0,0ZM489.4,383l-.3-.2h-.2s-.2.1-.2.1v.2s.2,0,.2.1.2,0,.2,0l.2.2.4.2h.3c0-.1.1-.2.2-.3,0,0,0-.2,0-.2,0,0-.3-.1-.3-.1,0,0-.4,0-.4,0h-.1ZM491.1,383.4l.2.2s.2,0,.3.1.3.1.3.1h.2s.2,0,.2,0v-.2c.1,0,.3,0,.3,0h.3c0,0,.2-.2.2-.2v-.2h-.2c0-.1-.3.1-.3.1h-.3c0,.1-.2.1-.2.1l-.2-.2h-.2c0-.1-.2-.2-.2-.2h-.2c0,.1-.2.2-.2.2v.2ZM494.1,388.7v-.2s-.2-.2-.2-.2v-.3c0,0-.1-.4-.1-.4l-.2-.3-.6-.2h-.9c0,.1-.2.4-.2.4v.4c0,0,.2.2.2.3,0,0,.4,0,.4,0,0,0,.2-.1.3-.1s.4,0,.4,0,.3,0,.3,0l.2.3v.2c0,0,.2,0,.2,0h.1ZM481.8,387.2v-.2s-.2,0-.2,0h-.2v.3l.2.2v.2c.1,0,.1.3.1.3v.2c0,0-.1.3-.1.3v.2c0,0,.2.2.2.2l.2.2v.2c0,0,.3.1.3.1h.2s0-.3,0-.3v-.3s.2-.2.2-.2v-.3c0,0,0-.2,0-.2l-.4-.2-.3-.2-.2-.2v-.3ZM478.4,394.4h-.2c0-.1-.2,0-.2,0v.2c0,0,0,.2,0,.2,0,0,.2.2.2.2s.2,0,.2,0h.2c0-.1,0-.3,0-.3v-.2h-.1c0-.1-.1,0-.1,0v.2s-.2,0-.2,0v-.2c0,0,.1-.2.1-.2Z"/>
    <path id="MP" d="M387,302.7l-.2-.4h-.3l-.4.2-.2.4.2.6.4.3-.3,1.2-.6-.5h-.9s-.7-.6-.7-.6l.4-1.7.4-.8v-1.4c0,0,2.5-1.7,2.5-1.7l.7-.9.7-.5.8.6v.5s-.1.2-.1.2h-.6s-.1.8-.1.8l-.8.6-.4,1.6.6,1-.3.5h-.5ZM382.3,311h.4c0,0-.1-.4-.1-.4l.5-1.8-.2-.6-.7-.6v-.7c0,0,.3-.5.3-.5v-1c0,0-.3-.6-.3-.6l-.4-.2-1.8,2.1-.6,1.5.5,1.1h.5s.3.7.3.7l.4.3.3,1.7h.2c0,.1.7-.9.7-.9ZM379.3,314.8v-.3c-.1,0-1.5.4-1.5.4v.3c-.1,0,0,.4,0,.4l.9-.2.6-.6ZM365.5,344.9v-.3s.3-.5.3-.5l1.5-.2.3-.4v-1.1c.1,0-1.5-.5-1.5-.5l-2.1,1.1-1.4.2-1.5,2.2h.2c0,0,.9-.8.9-.8l.7.4v.8c.1,0,1.8-.2,1.8-.2l.4-.5h.4Z"/>
    <path id="PR" d="M279.8,379l2.3.6.4-.2.5.4-2,.6-.7-.3-.2.3-1.8.7-.7-.3-1.6.4-.6-.2-.3-.4v-.5s3.3-.7,3.3-.7v-.3c.1,0,1.3-.1,1.3-.1ZM281.2,374l.5.6.2-.3,1,.2.6.3.2.4-.5.4-.4-.4h-.6c0-.1.5.4.5.4l-.2.3-1.1-1.2-.4-.7h.2ZM236.9,369.6h1.8c0,.1,1,.6,1,.6l1.7.2,1.1-.2h1c0,.1,1,0,1,0l1.2.5h.8c0,0,.2-.2.2-.2l.6-.2h1.3c0-.1,1.1.2,1.1.2l.6-.2h.9c0,.1,1.7.6,1.7.6l.5-.5,1-.2,2.9.6.4-.2,1.3.4h.9c0-.1.4.4.4.4l.8-.4.3-.2,2.2.5.4.3h.6s.2-.4.2-.4l1.7.4.6-.2.7.4h1c0,.1.5.7.5.7l.6-.3.5.2v.4l.6.4h.2c0,.1.5-.2.5-.2l.6.6h.9c0,.1.5-.4.5-.4l.7-.2v.6s-.5.5-.5.5l.2.4v.7s0,.7,0,.7l.4.8.5.6-.6.4-.5.3-.8-.2-.7.3-.6.2-.5.2-1.1,1.4-.5,1.7-1,.3.2.6v.5c-.1,0-.7.2-.7.2l-.7.5-.8.3-1.6.2-.7-.3h-.4c0,.1-.6.8-.6.8l-.8-.4-2,1-.4-.5-.8-.4-.7.4-.2.5-1.3-.4-.9-1-1,.3-.6.8-2-1.4h-1c0,0-2,.8-2,.8l-1.1-.6-1.1.4-1.3-.7h-.6c0,0-1,.5-1,.5l-1.2.6h-.9c0,0-.9,0-.9,0l-.3.5v.2c-.1,0-1-.1-1-.1l-1.2-1.1h-1c0,0-.4-.1-.4-.1l-1.1.8-1.4-.2-.5-.3-.3.3.2.5h-.3s-.5-.5-.5-.5v-.9s.2-.3.2-.3l.8-.3v-.3c.1,0-.8-.4-.8-.4l.2-1.2.5-.8v-.6c-.1,0,0-.8,0-.8l.8-1-.5-.6-.5-1.6-1.1-.3-.9-1.7,1.5-.5,1.3-.8v-.5c.1,0-.2-.9-.2-.9v-.5c.1,0,.8-.5.8-.5l1.2-.2Z"/>
    <path id="PW" d="M407.5,343l.6.9-.4.6-1,.7h-.6c0,0,.4-.9.4-.9l-.3-1.2h1.2ZM425.7,317.2l.2.3h.4c0,0,.1-.3.1-.3h.6s0-.2,0-.2l-1.3-.4h-.3c0,0,0,.1,0,.1l.4.5ZM413.4,332.2h.3l.5-.3.2-.6-.5.5-.5-.9-.2-.4-.4-.4.8,1.4v.7ZM414.7,336.6h.4c0-.1-.2-.3-.2-.3v-.9c.1,0-.7.3-.7.3l-.9,1.4-1.1.7v1.3c0,0-.2.3-.2.3l.3.6.2-.2.2-.3v-.3s.6,0,.6,0l.6-.4.9-.8v-.3c.1,0,0-.2,0-.2v-.2c-.1,0-.4,0-.4,0v-.4c-.1,0,0-.4,0-.4ZM415,327.9h.3c0,0,0-.3,0-.3h-.2c0,0-.3-.2-.3-.2l-.2.3v.2s0,.4,0,.4h.4c0,0,.2-.2.2-.2ZM414.7,334.9l-.6-.3.3.7.7-.2.5-.4v-.2s-.9.5-.9.5ZM429.4,317.1l-.6-.2-.7.3-1.2.3-.3.4-1.3-.3-.6.2h.9c0,.1.3.3.3.3h0c0,.1.2.6.2.6h.4c0-.1.4.2.4.2l.5,1.4h.2c0,.1.8,0,.8,0l.5-.4h-.2c0-.1-.3-.4-.3-.4v-.4c0,0,.8.6.8.6l.7-1.1-.6-.9v-.6ZM425.9,322l-.4.2-.4-1,.2-.7h.2c0-.1.1.2.1.2h.2c0-.1,0-1,0-1v-.2c-.1,0-1.3-.4-1.3-.4l-.2-.4v-.5c-.1,0-.2.4-.2.4l.2.6.9.8-.2.2h-.2c0,0,0,1.3,0,1.3h-.3c0,.1-.4.4-.4.4h-.1s-.8.5-.8.5l-.4,1-.6.3h0c0,0,0-.4,0-.4l-.2-.6.3-.2v-.4s-.3-.3-.3-.3l-.8.3-.3.6.3.4-.2.9-.6-.4-1.4-.6v.3c.1,0,.7.5.7.5h.5s.3.2.3.2v.8s.3.3.3.3l.8-.2.8-1,.3.5,1.2-1.8.5-.3h.3s.1.5.1.5l.7.6h.2c0,0,0-1.1,0-1.1l-.2-.2ZM422.1,329.8l-.5-.7.3-.7v-.5s-.2-.3-.2-.3v-.8c-.1,0-.5.7-.5.7l-.2.5.2.6h-.2c0,.1-.3.2-.3.2l-.3-.2h-.3s-.2-.2-.2-.2v-.4c.1,0,.5-.3.5-.3l.2-.4-.5.2-.6.2-.3-.2v.4c-.1,0,0,.3,0,.3l.3.3-.2.3v.3c0,0,.5.5.5.5h.4c0,.1.8-.1.8-.1v-.2c0,0,.3,0,.3,0l.4.6.4.2v-.4ZM437.8,300.4l-.3-2v-1.2c0,0,.1-.5.1-.5v-.6c.1,0-.3-.6-.3-.6l-.4-.4v-.4l-.7-.4-.5.5-.2.7.5.6.3.7.3,1.4.2.4.3.4-.4.9-1.3,1.6h-.5c0,0-1.1-.4-1.1-.4l-.9.6-.7.9-1-.2-.3.5.3,1.1v.8c0,0-.7.4-.7.4l-.4-.2-.4,1.4h-.8c0-.1-.1,0-.1,0l.2.5-.2,1,.3.3-.4.6h-.9c0,0-.1.5-.1.5v.8s-.2.9-.2.9l-.9.8.5.4h.4c0-.1.2,0,.2,0l-.3.6,1.8,1.2-.2.7.2,1.7-.2.7,1.1.4.2.3.4.5.3.3-.3.7h.5c0-.1.7-.3.7-.3l-.2-.3-.5-.2-.4-.9.8.2.9-.2.4-.5-.2-.3.2-.2h.6v.9s.2.4.2.4h.5c0,0,0-.5,0-.5l.4-.2-.4-1.7.2-1v-1.4c0,0,.5-.8.5-.8h.5c0,0,.1-.6.1-.6v-.6c-.1,0,.2-.6.2-.6l1.4-1.2v-.3c0,0-.3-.6-.3-.6l-.7-.5-.4-.9.6-.4.9-.8-.2-.9v-.4c.1,0,.4-1.2.4-1.2l.2-.9v-1.4ZM420.5,331.1v.6c0,0,0,.1,0,.1l.5-.2-.4-.2v-.3ZM416.2,321.3l-.4-.4v.5c0,0,.6.5.6.5h.9s.2-.2.2-.2h-1.2c0-.1-.1-.4-.1-.4ZM415.4,332.6l-.3.5-.6.2h1.5c0-.1-.1-.6-.1-.6h-.5Z"/>
    <path id="VI" d="M324.7,392.9l-1.1,1-1.6-.2-1.5.3-2.3.9-.8-.5h-1.5c0,0-1,.2-1,.2l-.9.6h-.4c0,0-.1-.2-.1-.2v-.3s.5-.4.5-.4l.2-.8.3-.3.2-.8-.6-2v-.8s1.3-1.4,1.3-1.4h.4c0,0,2.1.6,2.1.6l1.4-.4.5-.7h1s1.1-.5,1.1-.5l1.6.6.7.4v-.7s.7.2.7.2l.3,1,.7.2,1.2,1,1.4-.2,1.4-.7h.6c0,0,.6-.1.6-.1l1.3.3,1.3-.2.6.2h2.8c0,0,.5.3.5.3l-.6.6h-2c0,0-.8.9-.8.9l-2,.8-1.3.2-1.8,1-1.7.2-.9.4-.6-.3h-.9s-.5-.2-.5-.2ZM305.8,365.7l.3.2,1-.6h.4l1,.5.4.9.3-.2h.2c0,.1,0,.8,0,.8l.5-.2.4-.6,1.6-.4.6.4-.2.3v.8c.1,0,1.5.7,1.5.7h.9c0-.1,1.1.6,1.1.6l-.2-.7-.3-.2,1-.3h.9c0,0,.8.6.8.6v-.3s.6-.1.6-.1v-.6c0,0-1,0-1,0h0c0-.1.5-.4.5-.4v-.2c0,0-.9-.4-.9-.4l-.8-.8-3.2-1.3-1.8-1.1,1.2,1.2-.3.6-.9-.5-.6-.7-.3.4h-2.1c0-.1-.6,0-.6,0l-.3.6-.6-.4-.3.3-1.7.2-.3.4h-.4c0,.1.9,1,.9,1l.9-.2ZM310.2,368.4v-.9c.1,0,.6-.2.6-.2l.3.3-.3-.9-1.2,1.2.2.6h.3ZM328.1,368.9v-1.9c0,0,0-.3,0-.3l-.8-.6-.2-.5h.1c0-.1.5.4.5.4l.3-.3v-.6c.1,0,.7-.1.7-.1v.7c0,0,.9-.1.9-.1l.4.4-.2.5.5.2.7-.9-.2-.3-.4-.3h-.7s-1-1-1-1h-.8l-.7-.4h-1c0,0-.7-.3-.7-.3h-.7c0,0-.2.2-.2.2l.5.4-.3.5h-1.4c0,.1-1.1.6-1.1.6l-.2-.3h-.2v.8l-.7.4v1.1c0,0,1,.9,1,.9l.6-.6h.7c0-.1.3.2.3.2l1-.6.8.6.9-.2v.5c.1,0,.5.2.5.2h.8s.3.7.3.7v-.2Z"/>
    <path id="US-AK" d="M66.4,303.8l2.1,3.9,1.3-1.7,4.8.5-.2,2,4.4,1.5,2.9-.9,6,2.7,5.5.8,2.2,1.1,3.8-1.4,4.3,2.5,3.1,1.2h0v28.1s0,36,0,36l2.8.2,2.8,1.6,2,2.5,2.5,3.7,2.8-3.1,2.9-1.8,1.5,2.9,1.9,2.3,2.6,2.5,1.8,3.9,2.9,6,4.8,3.3v3.2c0,0-1.5,2.4-1.5,2.4l-1.6-1.9-2.5-1.6-.8-4.4-3.7-4.2-1.5-5-2.7-.3h-4.5c0-.1-3.3-1.7-3.3-1.7l-5.9-5.7-2.7-1.1-5-2-3.9.5-5.6-2.6-3.4-2.5-3.2,1.2.6,4-1.6.4-3.3,1.2-2.5,1.9-3.2,1.2-.4-3.3,1.3-5.6,3-1.8-.8-1.5-3.6,3.3-1.9,3.8-4.1,4,2.1,2.7-2.7,3.9-3.1,2.2-2.8,1.6-.7,2.3-4.4,2.7-.9,2.4-3.3,2.2-2-.4-2.7,1.4-2.9,1.7-2.4,1.6-4.9,1.4-.4-.8,3.1-2.3,2.8-1.5,3-2.8,3.5-.6,1.4-2.1,3.9-3.1.6-1.1,2.1-1.9.5-4.1,1.4-3.2-3.3,1.7-.9-.9-1.5,2-1.9-2.8-.8,2-1.1-2.7-2.8,2.2h-1.7s-.2-3.3-.2-3.3l.5-2-1.8-2-3.7,1.1-2.4-2.7-1.9-1.4v-3.3s-2.2-2.5-2.2-2.5l1.1-3.5,2.3-3.4,1-3.2,2.3-.5,2,1,2.3-3.1,2.1.5,2.2-2-.5-3-1.6-1.2,2.1-2.6h-1.7c0,0-3,1.5-3,1.5l-.9,1.5-2.2-1.5-4,.7-4.2-1.6-1.2-2.7-3.6-4,4-2.9,6.3-3.5h2.3l-.4,3.5,6-.3-2.3-4.4-3.5-2.8-2-3.7-2.7-3.2-3.9-2.4,1.6-4.1,5.1-.3,3.6-3.6.7-4,2.9-4,2.8-1,5.4-3.8,2.6.6,4.4-4.7,4.3,1.9ZM19,358.9l1.8,1.2,1.8-.7,2.3,1.7,2.8.9-.2.7-2.2,1.3-2.2-1.4-1.1-1.1-2.5.4-.7-.6.2-2.4ZM36.5,382.3l-1.7.9-1.9-1.1-1.7-1.5,2.8-1,2.3.5.3,2.2ZM72.3,397.5l-2.8,2-1.5-1.3-.4-2.5,2.6-1.9,1.5-.8,1.9.4,1.2,1.7-2.5,2.5Z"/>
    <path id="US-AL" d="M294.6,243l1.9,10.9,1.7,8.6,1,2.7.6,1.5-1.2,1.5-.4,2.7.4,1.6-.2,1.5-.2,1.4.5,1.1.4,1h-14.9s-4.2.5-4.2.5v.6c-.1,0,1.5,2,1.5,2l-.4,1.7-.5,1.2-6.5-.9-.2-13,1.3-13.8,1.3-11.4-.5-1.7h18.5Z"/>
    <path id="US-AR" d="M265.2,233.8v.7c0,0-.8,1.3-.8,1.3l-1.3.9-.3,1.5-1.2,1.2v2.6c0,0-.7.8-.7.8v.7c-.1,0-1.4.7-1.4.7v1.3s-1,2.4-1,2.4l-.8.5-1.3,1.2-.8,1.8-1.6,3-.2,2.1.8,2.3-.4,1.7-6.2-.3-8,.3h-7s.4-4.9.4-4.9h-1.7s-1.4,0-1.4,0l-.4-.6.2-7.7v-8.6c.1,0-1.3-9.5-1.3-9.5h8.9c0,.1,8.1.2,8.1.2h7.7s8.3.6,8.3.6l.6,1.1-.8,1-.8,1-.4.9h4.8Z"/>
    <path id="US-AZ" d="M123.8,225v49.7s-14.4,0-14.4,0l-16.6-6-11-4.2.7-1.7h1s.8-1.7.8-1.7l-1.3-1.2-.3-1.3-.4-1.5,1.4-2,.6-4,2.2-1.8-1.4-1.7-.9-1.7-.6-1.5-.4-1.2v-.8c-.1,0,.3-1.7.3-1.7l-.4-1.7-.2-1.7v-1.9s-.6-1.2-.6-1.2l.5-1.1h1.5l1.4.6,1,.4.5-1.4.3-.3v-7.3c0,0,11.7-.1,11.7-.1h14s10.6,0,10.6,0Z"/>
    <path id="US-CA" d="M43.9,177.9v28.6s13.8,12.5,13.8,12.5l13.1,12,12.2,11.3v.8c.1,0,.5,1.2.5,1.2l.6,1.5.9,1.7,1.4,1.7-2.2,1.8-.6,4-1.4,2,.4,1.5.3,1.3,1.3,1.2-.8,1.7h-1s-9.3.9-9.3.9l-8.3.7-.9-3.2-3.1-4.5-7.8-5.2-2.9-.3-3.2-2.8-5.8-.7-1.9-1.4-.9-4.9-7.1-9-6.1-12.6.3-2.1-3.2-3-5.6-7.8-1-7.7-3.9-5.2,1.6-8-.3-8.3h30.7Z"/>
    <path id="US-CO" d="M174.8,197.1v14.5c0,0,0,13.5,0,13.5h-7s-8.7,0-8.7,0h-12.4s-11.5,0-11.5,0h-11.4v-37.4c0,0,7.3,0,7.3,0h21.9s7.3,0,7.3,0h14.6v9.3s0,.3,0,.3Z"/>
    <path id="US-CT" d="M395.5,177.7v5.3c0,0-.4,1.4-.4,1.4l-3.2.5-4.2.5-5.7,2.3-.3-1.2,1.6-.9-.6-.8.4-7.4,5.6.2,6.8.2Z"/>
    <path id="US-DC" d="M357.3,208.5v-.5s-.6-.8-.6-.8l.6-.4.9,1-.9.8Z"/>
    <path id="US-DE" d="M369.2,199l-1.1,1,.2,1.8,1.5,5.1,2,4.8h-4.9l-.5-11.9.6-.8.7-.4,1.6.5Z"/>
    <path id="US-FL" d="M324.8,279.8l1,6.1,2.8,6.8,3.3,6.2v3.2l3.2,8.4.3,7.2-1.5,7-3.1,1.4-3.6-1-1.2-3.5-2.8-1.9-3.9-7-3.6-5.9-.7-3.9,1.3-5-1.7-4.6-4.7-5-4.2-3.2-8.2,3.5-1.7-2.3-6.9-3.8-8.2,1.1.5-1.2.4-1.7-1.7-2v-.6c.1,0,4.3-.5,4.3-.5h14.9s1.1,2.2,1.1,2.2l7.3.4,11.8,1.3.5,1.5.9-.8v-2.9s.9-.3.9-.3l1.4.6,1.5.2Z"/>
    <path id="US-GA" d="M313.2,243.1l-.8.7-1.2,1.7,2,1.5,1.3.5,1.4,2.8.9,1.6,2.5,2.1.5,1.1,1.7,1.4.9,2.1,2.3,1.7.5,2,.4,1-.2.6,1.4.9.7,1.6v1.6s.7.3.7.3l1.3.4-3.2,6.2-1.4,4.8-1.5-.2-1.4-.6-.9.3v2.9s-1,.8-1,.8l-.5-1.5-11.8-1.3-7.3-.4-1.1-2.3-.4-1-.5-1.1.2-1.4.2-1.5-.4-1.6.4-2.7,1.2-1.5-.6-1.5-1-2.7-1.7-8.6-1.9-10.9h5.6c0,0,3.9,0,3.9,0h9.1Z"/>
    <path id="US-HI" d="M148.5,333.7l-1.1,1-1.4-.3-1.7-1.3.6-1,1.4-.8h2.2s.4.7.4.7l-.4,1.8ZM163.9,339l.8,1.5-1.5.4-1-.7h-.5c0,.1-.2.2-.2.2h-1.2s-1.5-2.7-1.5-2.7l1.4-.2,1.5-1,1.3,2.3h1ZM173.4,342l-1.4,1-4.1-.6.4-1.2,5.1.8ZM174.6,343.2l1.2,1.2,1.7-.4,2.5,1.6v.8s-.8.7-.8.7l-2.9.4-.7-2-1.3-.2-.8-1.3.4-.8h.7ZM184.6,362.5l-.9,1.4-2.4-1.1v-3.1c0,0-1.6-3.7-1.6-3.7l2.2-2.6-.7-1.5.2-.9.4-.2,6,2.8,1.1,1.2.2,1.3.7.2.3.9,1.4,1.2-2.4,2-2.4.6-2.1,1.5Z"/>
    <path id="US-IA" d="M253.8,163v.5c.1,0,1.1,1.6,1.1,1.6l-.7.8v2.1s.3.9.3.9l.5,1.6,2.4,1,.7,1.5.4.8.9.5.3,1.1,1.2.8.8.8-.4,2.6-1.4,2.2-.5.7-1.7.6-2.5.5-.7,1.7.9.8.3,1.5-1,1.7-.5,1.5-1.9,1.4v1.7c-.1,0-1.2-.8-1.2-.8l-1.4-1.5-8,.2h-8.4c0,0-6.5,0-6.5,0h-6.6s-.5-1.7-.5-1.7l.2-1.7-.2-1.7-.8-2.8-.5-1.2-.5-.3v-2.3c0,0-.5-1.6-.5-1.6l-1.3-1.8v-.8s-.4-1.6-.4-1.6l-.3-1v-.9s-1.2-1.1-1.2-1.1l.6-1.6.4-1.6.2-1.1-.9-1.3v-2.4s1,0,1,0h8s9.9-.1,9.9-.1h10.7c0,0,9.6.1,9.6.1Z"/>
    <path id="US-ID" d="M108.9,152.8l.3.2v24.8s-21.8,0-21.8,0h-21.8c0,0,.1-17.9.1-17.9l.6-2.9-.6-1.3-1.4-.7v-1.6s1-2.3,1-2.3l1.6-2,1-3.3,1-2.7.7-1.3-.4-1.6-1.2-.9-1.7-2v-1.9c0,0-.6-1.6-.6-1.6l-.2-14.9v-14s7.1,0,7.1,0l.6,11.5,1.9,2.9v1.9s1.3,1.7,1.3,1.7l1.7,1,1.2,1.7,2,3.3,1.9,1.5h2.2c0,.1-.8,2.4-.8,2.4l-.7,2.8.6,2.7-.9.7v2.7c0,0,1.4,1,1.4,1l1.4-1.2.7-1.5.9.3.9,1.4.8,3.3,1.3,1.3.5,2.7.4.7,1.5.3.9,1.5,1.3,2.6,1.3-1.4,2.4.4.2-1,4.1.6,1.7-.3,1-2,.8.3.7,1.4.8.6Z"/>
    <path id="US-IL" d="M278.8,173h0s0,2.6,0,2.6l2,5.1h0v11.2s0,11,0,11l-.8,2.6.6.7.4,1.6v1.3c0,0-.7.6-.7.6l-.5,1.5-1.5,2-1,2.5-.2,1.9v.7s-.8,1.3-.8,1.3l.6.9-1.3.7-1.7.8.3,2-1,.8-1.8-.8-1.9-.5-.5.9.3,1.4-1.3-1.4-.8.2-.9-2.2.3-1.4-.5-2.2-.7-.3-1.9-2h-.8s-1.4-1.3-1.4-1.3l-1-1.4.5-1.6.7-1.4.4-1.7-1.4-1.5-1.4.6-.8-.4v-1.6c-.1,0-.7-1.8-.7-1.8l-.7-.4-1.7-1.3-1.4-1.6-1.2-1.9-.7-2.8.6-2.4v-1.7c.1,0,2-1.4,2-1.4l.5-1.5,1-1.7-.3-1.5-.9-.8.7-1.7,2.5-.5,1.7-.6.5-.7,1.4-2.2.4-2.6-.8-.8-1.2-.8-.3-1.1-.9-.5-.4-.8h15.1s5.6.1,5.6.1h0s0,0,0,0Z"/>
    <path id="US-IN" d="M300.6,181v8.7s0,9.3,0,9.3v6.5s-.5.4-.5.4l.6,1.9-.3.7h-1.2s-1.1.8-1.1.8l-1.7-.3-.2,1.8-1,.7-1,1.6-1,.3-1.6,2.7-1.5-.8-.5-1.1-1.3,1.8-.8,1-1.6-1.1-1.7.9-.5.9-2.2-1.4-1.6,1-1.9-.7v1c0,0-1-.2-1-.2l.2-1.9,1-2.5,1.5-2,.5-1.5.6-.6v-1.3c0,0-.3-1.6-.3-1.6l-.6-.7.8-2.6v-11s0-11.2,0-11.2h0l.7.7h2.5c0,0,2-1.1,2-1.1h7.8s6.9,0,6.9,0v.8Z"/>
    <path id="US-KS" d="M229,225h-6.4s-13.1,0-13.1,0h-13.1s-7.3,0-7.3,0h-7.3s-6.9,0-6.9,0v-13.5s0-14.5,0-14.5h49.1l1.7,1.3h.9s.2,1.4.2,1.4l-1,1.7.5.9.9,2,1.9.9v10c0,0-.1,9.8-.1,9.8Z"/>
    <path id="US-KY" d="M316.8,212v.9c.1,0,0,1.9,0,1.9l.9,1.4.4,1.4,1.1,1.2.7,1.1,1.4.2-2.9,2.7-2.3,1.1-.2.7-.8,1-2,1.1-.6.9-1.5.6-2.1.5-4.9.3-6.4-.4h-2.1c0,.1-4.2-.1-4.2-.1h-4.3c0,0-3.9-.1-3.9-.1l-4.6.3-.2-.4h-1.4s0,1.4,0,1.4h-10.4c0,0,1.6-1,1.6-1l1.2-.8v-1.4c-.1,0,0-.9,0-.9l-.3-1.4.5-.9,1.9.5,1.8.8,1-.8-.3-2,1.7-.8,1.3-.7-.6-.9.8-1.3v-.7s.9.2.9.2v-1c0,0,1.9.7,1.9.7l1.6-1,2.2,1.4.5-.9,1.7-.9,1.6,1.1.8-1,1.3-1.8.5,1.1,1.5.8,1.6-2.7,1-.3,1-1.6,1-.7.2-1.8,1.7.3,1.1-.8h1.2s.3-.7.3-.7l-.6-1.9.4-.4,2.5.2,1.3.9,1.9,2.1,1.5.7,1.1.8,1.7-.3,1.3.5,1.6-.5,1.4-.2.6,1.3,1.4.9Z"/>
    <path id="US-LA" d="M254.3,260.3l.5.5-.7,1.2,1.1,1.8-.3,1.1.9,1.5-1,.9-.3,1.6-1.4,1.3-.7,1.8-.7,2-.9,1,.3,2.1,6.4.3h6.9s-.2,1.4-.2,1.4l-.5,1.4.5,1.1,1,1,.3,1.4v.8c.1,0-.7,3.5-.7,3.5l2.3,5-10,.3-6.2-1.7-4.2-1.7-5.6-1.1-6.3-.2-.6-1.1.7-1.2,1.1-1.1v-1.7s-.5-.6-.5-.6l.6-2,.5-.9.7-3.1-.6-1.2-.8-1.9-.6-2-.4-1.3-1.2-1-.4-9.2h7s8-.3,8-.3l6.2.3Z"/>
    <path id="US-MA" d="M402.7,169.3v5.2c0,0,2.3,5.2,2.3,5.2l3,.2-.8-3.6,2.2,2.2-.6,2.8-4.9,1.6-3.5-.2-.2-1.5-1.1-1.1-.5-2.6h-3.1c0,.1-6.8-.1-6.8-.1l-5.6-.2,1.6-6.8,6,.2h8.8c0,0,.8-.9.8-.9l1.5-.7.9.2Z"/>
    <path id="US-MD" d="M366.4,199.7l.5,11.9h4.9l.4.8-2.8,3.2h-1.7c0,.1-.6.8-.6.8l-3.7-4.4-.3-7-1.2,3.3v8c.1,0-4.3-2.7-4.3-2.7l-.4-1.3-1.2.4-1-.5.8-2.1,1.2-.9v-.8c.1,0,1.1-.8,1.1-.8l-.9-1-.6.4-1.4-1-1.5-.6.5-1-1-.7-1.1-.3-.6-1.2-.9-1.3-2.3-.8-1.4.7-.8.7-2.2-.4-1,1-1.4.4-1.3,1.1-1.1.8v-4.8c0,0,6.8,0,6.8,0h2.3s5.2,0,5.2,0h6.2s6.4,0,6.4,0Z"/>
    <path id="US-ME" d="M403.9,167.1h-.8c0,.1-.3-1.3-.3-1.3l-1.3-1.5.3-1-.9-18.5,3-1.8,2.6-4.7,2.2-8.2,5.6-8.1,2.4,2.8,4.9-1.8,3.2,3.1v14.4s4.8,5.8,4.8,5.8v4.4c.1,0-7,3.2-7,3.2l-7.1,2.4-8.3,6.1-3.2,4.7Z"/>
    <path id="US-MI" d="M302.5,131.7h0l2.4.3h0l-.9,1,3.6,4.2-6.4.9h-.2s-5.7-1.2-5.7-1.2l-5.7,2.1-5,.9-4.3,6.6h-.2c0,0,0,0,0,0l-1-1.2.5-1.7h-1.6c0,0,.3-1.8.3-1.8l.4-.8-.6-1.5-1.7-.7-.4-1.7h-1.4c0-.1-2.1-.1-2.1-.1l-4.2-1.9-6.4-1.9-.6-1.9-1.1-.3h0s-.4.2-.4.2h0c0,0,0,0,0,0l5.6-2.7,5.9-3.5,6.4-3.5-2.3,5.6,4.1,1.4,5.1,4,6.5-2.4,7.2-.9,1.5,3,2.2.4.5-1ZM318.1,168.1h-.2c0,.1-3.4,5.6-3.4,5.6l-1.6,3.4h0l-2.5,3.8h-2.8c0,0-3.3,0-3.3,0h-3.7c0,0,0-.7,0-.7h-6.9s-7.8,0-7.8,0h0l1.5-1.3,3-4.8.2-6.5-2.4-6.2.4-4.3,1.9-5,1.8-3.4,2.9-2.5.7,3.4,1.3-5.1,1.6-1.1,1-4,6.2,2.1,5.4,4,.6,4.7-.7,4.6-4,4,.4,2.5h1.4c0,0,4.5-4.3,4.5-4.3l2.7,1,1.3,5.8.4,4.1h.2Z"/>
    <path id="US-MN" d="M265.7,116h0s-7.4,3.6-7.4,3.6l-5.2,4.3-4.9,4.5v1.6s-1.9.6-1.9.6v5.9c0,0-.2,0-.2,0l-1.8,1.2-1.6,1-1,1.9,1.5,1.9-.5,2.6v2.8s-.2,2.3-.2,2.3l2.1,2h.9c0,0,2.4,1.5,2.4,1.5l.8.7.5,1.1,1.8,1.7,2.5,1.5.2.8v2.4s.2,1.1.2,1.1l-9.6-.2h-10.7c0,0-9.9.2-9.9.2h-8s.1-9.4.1-9.4l-.9-9.8-1.3-.8-.7-1.6.4-1.4,1.6-1.2v-1.5c.1,0,.1-1.9.1-1.9l-.5-1.6-.6-1.7-.4-2.1v-2.4c0,0-.3-.6-.3-.6l-.3-3.1v-1.4s-.2-1.3-.2-1.3l-.4-2.2-.9-2.2-.9-2v-2c-.1,0-.2-2.1-.2-2.1l.2-1.4v-1.3s-.6-1.6-.6-1.6v-1.1c-.1,0,15,0,15,0v-4.3s2.5,0,2.5,0l1.3,6.1,2.3,1.9,5.1.7,7.4,1.8,7.1,3.4,5.9-1.4,9,2.8Z"/>
    <path id="US-MO" d="M252.3,193.6l-.6,2.4.7,2.8,1.2,1.9,1.4,1.6,1.7,1.3.7.4.6,1.8v1.6c.1,0,1,.4,1,.4l1.4-.6,1.4,1.5-.4,1.7-.7,1.4-.5,1.6,1,1.4,1.4,1.3h.8s1.9,2.1,1.9,2.1l.7.3.5,2.2-.3,1.4.9,2.2.8-.2,1.3,1.4-.2.9v1.4c.1,0-1,.8-1,.8l-1.6,1-.2.9-.4,1.3-.6,2.2h-4.8l.4-.9.8-1,.8-1-.6-1.1-8.3-.5h-7.7s-8.1,0-8.1,0h-8.9c0-.1,0-4.3,0-4.3h0v-9.8c0,0,.1-10,.1-10l-1.9-.9-.9-2-.5-.9,1-1.7-.2-1.4h-.9s-1.7-1.2-1.7-1.2l-1-2-1.1-1.2-1.2-1.5v-.8c-.1,0,6.4,0,6.4,0h6.5s8.4,0,8.4,0l8-.2,1.4,1.5,1,.8Z"/>
    <path id="US-MS" d="M276.1,242.9l.5,1.7-1.3,11.4-1.3,13.8.2,13-4.5,1.9h-4.2c0-.1-.1-1-.1-1l-.3-1.4-1-1-.5-1.1.5-1.4.2-1.4h-6.9s-6.4-.3-6.4-.3l-.3-2.1.9-1,.7-2,.7-1.8,1.4-1.3.3-1.6,1-.9-.9-1.5.3-1.1-1.1-1.8.7-1.2-.5-.5.4-1.7-.8-2.3.2-2.1,1.6-3,.8-1.8,1.3-1.2.8-.5,1-2.4v-1.3s1.3-.7,1.3-.7v-.7h7.3l8,.2Z"/>
    <path id="US-MT" d="M160.4,137.9l-.4,9.5h-12.2c0-.1-13.1,0-13.1,0h-11.3c0-.1-14.4,0-14.4,0v5.2s-.1.4-.1.4l-.8-.6-.7-1.4-.8-.3-1,2-1.7.3-4.1-.6-.2,1-2.4-.4-1.3,1.4-1.3-2.6-.9-1.5-1.5-.3-.4-.7-.5-2.7-1.3-1.3-.8-3.3-.9-1.4-.9-.3-.7,1.5-1.4,1.2-1.3-1v-2.7c0,0,.8-.7.8-.7l-.6-2.7.7-2.8.8-2.3h-2.2c0-.1-1.9-1.6-1.9-1.6l-2-3.3-1.2-1.7-1.7-1-1.4-1.7v-1.9s-1.9-2.9-1.9-2.9l-.6-11.5h21.8s21.8,0,21.8,0h21.8s21.8,0,21.8,0v20c.1,0,.5,12.8.5,12.8Z"/>
    <path id="US-NC" d="M365.8,229l1,9-4.6,6.6-7.2,3.4-6.2,4.4-2.6.5-8.2-8.3h-8.1c0,0,0-1.1,0-1.1l-1.1-1.5-.7.6v-.8c0,0-3.5-.4-3.5-.4h-6.7c0,0-3.9,1.4-3.9,1.4l-.7.3h-9.1c0,0,.2-1.9.2-1.9l1.5-.6.5-1,1-1.1,1.5-.2,1.7-.4,1.7-.8.7-.8,1.4-.7v-.6s1.8-1.2,1.8-1.2l.6.8,2.7-1.7,1.3.2,1.1-1.5,1.5-.4v-1.3c0,0,.1-1.1.1-1.1l12.3.4h14.5s7.7,0,7.7,0h7.8Z"/>
    <path id="US-ND" d="M210,105.1v1.1c.1,0,.8,1.6.8,1.6v1.3s-.3,1.4-.3,1.4v2.1c0,0,.2,2,.2,2l.9,2,.9,2.2.4,2.2v1.3c.1,0,.2,1.4.2,1.4l.3,3.1.2.6v2.4c0,0,.4,2.1.4,2.1l.6,1.7.5,1.6v1.9s-13.9.6-13.9.6h-11.8s-15,0-15,0h-13.9s-.4-12.8-.4-12.8v-20c-.1,0,25.2,0,25.2,0h24.8Z"/>
    <path id="US-NE" d="M215.7,173.1l.3,1,.5,1.6v.8s1.3,1.8,1.3,1.8l.5,1.6v2.3c0,0,.6.3.6.3l.5,1.2.8,2.8.2,1.7-.2,1.7.5,1.7v.8c.1,0,1.4,1.5,1.4,1.5l1.1,1.2,1,2h-49.1v-9.6s-14.5,0-14.5,0v-19.5c0,0,14.2,0,14.2,0h25.6l1.9,1.3,2.7.8.6-.5h1.7s2.6,0,2.6,0l1.9,1.3,2,.8.3.8.6.5h1.2Z"/>
    <path id="US-NH" d="M403.9,167.1l-1.2,2.2-.9-.2-1.5.7-.8,1h-8.8c0,0-.6-1.1-.6-1.1l.6-1.3.2-2.6.2-.6.2-2.4.8-2,.6-.9.9-2.4.2-1.6.2-1,1.4-.5,1.6-1.2.3-1.3-.5-1.5.9-2.8h0s.7-2.5.7-2.5l2.4-.3.9,18.5-.3,1,1.3,1.5.3,1.4h.8Z"/>
    <path id="US-NJ" d="M380.1,187.9l-2.5,4.7,1.8.4-1.3,6.8-5.3,7.2-.5-2.4-1.6-.5-1.7-2.5h-.6c0,.1-.2-1.7-.2-1.7l1.1-1,1.5-.9.5-.6,1.7-1.3.9-1-2.3-2.5v-1c-.1,0-.9-.3-.9-.3v-1.5s.9-1.2.9-1.2l-.4-1.3,1.2-.8,1.3-2.2.9-.4,5.6,3.8Z"/>
    <path id="US-NM" d="M167.9,225v4.5s0,23.3,0,23.3v16.3h-26.5v.7c0,0,.9,1.4.9,1.4h-12.6v3.5c0,0-5.9,0-5.9,0v-49.7s11.4,0,11.4,0h11.5s12.4,0,12.4,0h8.7Z"/>
    <path id="US-NV" d="M87.4,177.9v47.1s0,7.3,0,7.3l-.3.3-.5,1.4-1-.4-1.4-.6h-1.5l-.5,1.1.6,1.2v1.9s.1,1.7.1,1.7l.4,1.7-.4,1.7-12.2-11.3-13.1-12-13.8-12.5v-28.6s21.7,0,21.7,0h0s21.8,0,21.8,0Z"/>
    <path id="US-NY" d="M384.7,170.5l-1.6,6.8-.4,7.4.6.8-1.6.9.3,1.2,10.3-1.3,2.2,1.8-10.2,2.9h-4.6s.5-3.2.5-3.2l-5.6-3.8-1.2-.7-1.2-.7-.5-1.4.2-1.1-.9-.9-1.6-1.5h-9.9s-10.6,0-10.6,0h-11.4v-2.7l6.3-5.9v-1c-.1,0-.1,0-.1,0l-1-2.9,3.8-1.3,5.7.4,6,.8,5.5-3.3-.4-3.9-.8-1.6h0s0,0,0,0l7.5-6.9,3.3-1.9h11.1c0,0-.2,2-.2,2l-.3,1.3.2,3,.4,1.5-.7,2.1.7,2.6-.5,1.5v.4c.1,0,1.2,0,1.2,0l-.3,8.2Z"/>
    <path id="US-OH" d="M331.9,191l-1,.5.3,1.2-.3,2.2-.8,2.5-.7,2v1c-.1,0-2.1,2.1-2.1,2.1l-.8.5-1,.3-.9-.2-1.6,1.6-.3,1.7-.2.9-.6.4v-1c0,0-1.1-.2-1.1-.2l-1,2v2.1c-.1,0-1.1,1.3-1.1,1.3l-1.8.2-1.4-.9-.6-1.3-1.4.2-1.6.5-1.3-.5-1.7.3-1.1-.8-1.5-.7-1.9-2.1-1.3-.9-2.5-.2v-6.5s.1-9.3.1-9.3v-8.7s3.8,0,3.8,0h6.1c0,0,4.5,1.9,4.5,1.9l3.6.5,5.3-1.3,4.3-2.7,3.8-1.3v13Z"/>
    <path id="US-OK" d="M229,229.1l1.4,9.5v8.6c-.1,0-.4,7.7-.4,7.7l-3.1-1.7-2-.9-1.7.6h-2.6c0,0-1.5,0-1.5,0l-1.2.7-1.2.4-1.1-.4-2.4.5-1.1-1.5-1.1,1.3-2-.6-2-1.4-2.2.9-1-2.1-3.4.2-2.2-.5-2.4-.6-1.1-1.8-1.9.6-1.2-.7-1.7-1v-17.3h-21.9v-4.5s7,0,7,0h6.9s7.3,0,7.3,0h7.3s13.1,0,13.1,0h13.1s6.4,0,6.4,0h0v4.2Z"/>
    <path id="US-OR" d="M66.4,137.4l1.7,2,1.2.9.4,1.6-.7,1.3-1,2.7-1,3.3-1.6,2-1,2.3v1.6s1.4.7,1.4.7l.6,1.3-.6,2.9v17.8c-.1,0-.1,0-.1,0h-21.7s-30.7,0-30.7,0l-2.3-5.5,2.2-10.7.5-11.4,1.3-15.7h1.5c0-.1,2.2,0,2.2,0l1.8,1,2.1.6,1.4,2,.2,1.7.5,1.5,1.7.4h1.8s2.8-1.1,2.8-1.1l1.7-.3,2.6.4,1.1.5,1.5-.4,1.7-.8h3.3c0,.1,2.7-1,2.7-1l1.4-.9,1.9.5,2.6-1.1h15Z"/>
    <path id="US-PA" d="M374.5,184.1l-.9.4-1.3,2.2-1.2.8.4,1.3-.9,1.2v1.5s.8.3.8.3v1c.1,0,2.4,2.5,2.4,2.5l-.9,1-1.7,1.3-.5.6-1.5.9-1.6-.5-.7.4-.6.8h-6.4s-6.2,0-6.2,0h-5.2s-2.3,0-2.3,0h-6.8s-7.6,0-7.6,0v-21.7h0l5.5-2.8h0s0,2.6,0,2.6h31.9s1.6,1.5,1.6,1.5l.9.9-.2,1.1.5,1.4,1.2.7,1.2.7Z"/>
    <path id="US-RI" d="M400.4,182.8l-5.4,1.7.4-1.4v-5.3c0,0,3-.1,3-.1l.5,2.6,1.1,1.1.2,1.5Z"/>
    <path id="US-SC" d="M346.2,252.9l-2.9,6.1-6.4,5.3-7.6,4.4-1.3-.4-.7-.3v-1.6s-.7-1.6-.7-1.6l-1.4-.9.2-.6-.4-1-.5-2-2.3-1.7-.9-2.1-1.7-1.4-.5-1.1-2.5-2.1-.9-1.6-1.4-2.8-1.3-.5-2-1.5,1.2-1.7.8-.7.7-.3,3.9-1.5h6.7c0,0,3.4.5,3.4.5v.8c0,0,.8-.6.8-.6l1.1,1.5v1s8.1,0,8.1,0l8.2,8.3Z"/>
    <path id="US-SD" d="M215.7,163h-1s0,2.4,0,2.4l.9,1.3-.2,1.1-.4,1.6-.6,1.6,1.2,1.1v.9s-1.2-.1-1.2-.1l-.6-.5-.3-.8-2-.8-1.9-1.3h-2.6c0,.1-1.7,0-1.7,0l-.6.5-2.7-.8-1.9-1.3h-39.8l-.2-20.6.4-9.5h13.9s15,0,15,0h11.8s13.9-.5,13.9-.5v1.5c-.1,0-1.8,1.2-1.8,1.2l-.4,1.4.7,1.6,1.3.8.9,9.8v9.4Z"/>
    <path id="US-TN" d="M308.9,228.6l10.9.3,3.7-.2-.2,1.1v1.3c0,0-1.4.4-1.4.4l-1.1,1.5-1.3-.2-2.7,1.7-.6-.8-1.8,1.2v.6s-1.4.7-1.4.7l-.7.8-1.7.8-1.7.4-1.5.2-1,1.1-.5,1-1.5.6-.2,1.9h-3.9c0,0-5.6,0-5.6,0h-9.4c0-.1-9.2-.1-9.2-.1l-8-.2h-7.2l.8-.8v-2.6c0,0,1.1-1.2,1.1-1.2l.3-1.5,1.3-.9.7-1.3v-.7c0,0,.6-2.2.6-2.2l.4-1.3.2-.9h10.4c0,0,0-1.3,0-1.3h1.4s.2.4.2.4l4.6-.3h3.9s4.3.1,4.3.1l4.2.2h2.1c0-.1,6.4.3,6.4.3l4.9-.3Z"/>
    <path id="US-TX" d="M230.1,254.9l.4.6h1.4c0-.1,1.7,0,1.7,0l-.4,4.9.4,9.2,1.2,1,.4,1.3.6,2,.8,1.9.6,1.2-.7,3.1-.5.9-.6,2,.5.6v1.7s-1.1,1.1-1.1,1.1l-.7,1.2.6,1.1-6.2,1.7-6.6,6.2-7.2,3.6-4,3.9-1.7,3.7v5.6c0,0,.3,3.9.3,3.9l1.4,2.7-2.8.2-5.2-1.8-5.7-2.5-2-3.8-1.6-5.7-4.3-4.7-2.5-4.8-3.7-5.7-5.1-3.3-6,.2-4.6,6.6-6-2.5-3.8-2.5-1.8-4.6-2.4-4.4-4.3-3.7-3.7-2.7-2.7-3-.8-1.4v-.7c0,0,6.5,0,6.5,0h19.9v-39.6h21.9v17.3l1.7,1,1.2.7,1.9-.6,1.1,1.8,2.4.6,2.2.5,3.4-.2,1,2.1,2.2-.9,2,1.4,2,.6,1.1-1.3,1.1,1.5,2.4-.5,1.1.4,1.2-.4,1.2-.7h1.5s2.6,0,2.6,0l1.7-.6,2,.9,3.1,1.7Z"/>
    <path id="US-UT" d="M123.8,187.5v37.4c0,0-10.5,0-10.5,0h-14s-11.8.1-11.8.1v-47.1s21.7,0,21.7,0v9.5s14.6.2,14.6.2Z"/>
    <path id="US-VA" d="M363.7,223.4l2.1,5.6h-7.8s-7.7.1-7.7.1h-14.5s-12.3-.4-12.3-.4l-3.7.2-10.8-.3,2.1-.5,1.5-.6.6-.9,2-1.1.8-1,.2-.7,2.3-1.1,2.9-2.7.3,1.6.8.8,1.1.7,2.3-1.1.9.6,2.7-.8.2-.8.8.3.9-.7h1c0,.1,1.2-.6,1.2-.6l.2-.8v-1.1c-.1,0,.9-1.6.9-1.6l1.4-1.2.4-1.4,1.3-1.6.7-2,1,.7,1.1.7,1-.4.3-.8.7-1.2.8-1.3.5.4,1.1-1.2,1.4-1.2.9-.9.6-2.5,3.7,2.5.8-1.8,1.1.3,1,.7-.5,1,1.5.6,1.4,1,.6.8v.5s-.2.8-.2.8l-1.2.9-.8,2.1,1,.5,1.2-.4.4,1.3,4.6,5.2,1.4,4.4v.3ZM369.4,215.7h-1.7c0,.1-.6.8-.6.8l-2.5,6.2.7.4,4.1-7.3Z"/>
    <path id="US-VT" d="M390.7,170.7l-6-.2.3-8.2h-1c0,0-.1-.5-.1-.5l.5-1.5-.7-2.6.7-2.1-.4-1.5-.2-3,.3-1.3.2-2.1h13.4s0,0,0,0l-.9,2.8.5,1.5-.3,1.3-1.6,1.2-1.4.5-.2,1-.2,1.6-.9,2.4-.6.9-.8,2-.2,2.4-.2.6-.2,2.6-.6,1.3.6,1Z"/>
    <path id="US-WA" d="M65.6,105.1v14s.2,14.9.2,14.9l.7,1.6v1.9c0,0-15.1,0-15.1,0l-2.6,1.1-1.9-.5-1.4.9-2.7,1.1h-3.3c0-.1-1.7.7-1.7.7l-1.5.4-1.1-.5-2.6-.4-1.7.3-2.8,1.1h-1.8s-1.7-.4-1.7-.4l-.5-1.5-.2-1.7-1.4-2-2.1-.6-1.8-1h-2.2s-1.5,0-1.5,0l-2-8.8-1.2-10.4,10.2,2,3.2,8.4,1.8-2.8-1.2-8.9-3.5-9.1h21.7s21.7,0,21.7,0Z"/>
    <path id="US-WI" d="M259.8,131.3h0c0,0,.5-.2.5-.2h0s1.1.4,1.1.4l.6,1.9,6.4,1.9,4.2,1.9h2.1s1.4.2,1.4.2l.4,1.7,1.7.7.6,1.5-.4.8-.3,1.7h1.6c0,0-.5,1.8-.5,1.8l1,1.2h0s.2,0,.2,0h0c0,.1-2.9,3.8-2.9,3.8l1,1.2,5.4-6.6h1.1s-3.8,7.9-3.8,7.9l-1.6,7.1-1.4,5.7.9,4.9-.2,2.4h0s-5.6,0-5.6,0h-7.6s-7.4,0-7.4,0l-.7-1.5-2.4-1-.5-1.6-.3-.9v-2.1s.6-.8.6-.8l-1-1.6v-.5c-.1,0-.3-1.1-.3-1.1v-2.4s-.3-.8-.3-.8l-2.5-1.5-1.8-1.7-.5-1.1-.8-.7-2.4-1.5h-.9c0,0-2.1-2.1-2.1-2.1l.2-2.3v-2.8s.6-2.6.6-2.6l-1.5-1.9,1-1.9,1.6-1,1.8-1.2h.2s0-5.9,0-5.9l1.9-.6h0l7.3-2.2,4.4,3.6Z"/>
    <path id="US-WV" d="M339.5,199.8v4.8c0,0,1.1-.8,1.1-.8l1.3-1.1,1.4-.4,1-1,2.2.4.8-.7,1.4-.7,2.3.8.9,1.3.6,1.2-.8,1.8-3.7-2.5-.6,2.5-.9.9-1.4,1.2-1.1,1.2-.5-.4-.8,1.3-.7,1.2-.4.8-1,.4-1.1-.7-1-.7-.7,2-1.2,1.6-.4,1.4-1.4,1.2-1,1.6v1.1c.1,0,0,.8,0,.8l-1.2.7h-1c0-.1-.9.5-.9.5l-.8-.3-.2.8-2.7.8-.9-.6-2.3,1.1-1.1-.7-.8-.8-.3-1.6-1.4-.2-.7-1.1-1.1-1.2-.4-1.4-.9-1.4v-1.9c0,0,0-.9,0-.9l1.8-.2,1-1.3v-2.1c.1,0,1.1-2,1.1-2l1,.2v1c0,0,.7-.4.7-.4l.2-.9.3-1.7,1.6-1.6.9.2,1-.3.8-.5,2-2.1v-1c.1,0,.8-2,.8-2l.8-2.5.3-2.2-.3-1.2,1-.5v8.8h7.6Z"/>
    <path id="US-WY" d="M160.1,147.4l.2,20.6v19.5c0,0-7.3,0-7.3,0h-14.6s-7.3,0-7.3,0h-7.3l-14.6-.2v-9.5s0-24.8,0-24.8l-.3-.2v-.4c.1,0,.1-5.2.1-5.2h14.4c0,0,11.3,0,11.3,0h13.1c0,0,12.2,0,12.2,0Z"/>
  </g>
</svg>