<?xml version="1.0" encoding="UTF-8"?>
<svg id="Layer_1" xmlns="http://www.w3.org/2000/svg" xmlns:amcharts="http://amcharts.com/ammap" version="1.1" viewBox="0 0 512 512">
  <!-- Generator: Adobe Illustrator 29.1.0, SVG Export Plug-In . SVG Version: 2.1.0 Build 142)  -->
  <g id="_x3C_defs">
    <amcharts:ammap bottomLatitude="14.052495" leftLongitude="-124.541947" projection="mercator" rightLongitude="-67.118615" topLatitude="49.390806"/>
  </g>
  <g>
    <path id="divider1" d="M191.5,330.6h-34.3l-26.7-27.1-57.4-17.9v.2l57.3,17.9,26.7,27.1h0v21.9l34.7,31,.2-.2-34.6-30.9v-21.8h34.1l42.5,36.9v18.3s.2,0,.2,0v-18.3l-42.6-37Z"/>
    <path id="divider2" d="M406.5,370.6v-30.6l31.5-50.9h-.2c0-.1-31.5,50.8-31.5,50.8v30.7h-67.5v-8.9l-.2-.4-7.2-12.7v-.2h-66.9v.2h66.7l7.5,13.1v8.9h-74.2v.2h74.2v54h.2v-54h67.5v54h.2v-54h52.2v-.2h-52.2Z"/>
    <path id="AS" d="M280.6,362.5l-.8-.5-.2-1.1h-.5s-.2-.3-.2-.3l-.4.3-1.1-.4.2-.5.7-.6h.5c0,0,0-.4,0-.4l.6-.3,1.1.2.6-.2.4.4,1.3-.7,1-1.1,1.3-.8.3-.5v.9c0,0,1.4-.2,1.4-.2l2.7.5.3-.5h.7s-.1,1-.1,1l-1.3.8h-.5v-.4c0,0-.8-.2-.8-.2l-.5.6-1.3.4-.4-.3v-.3c.1,0,0-.5,0-.5l-1,.3.4.5v.4s-1.2,1.3-1.2,1.3h-.5c0,.1-1.2,2.1-1.2,2.1h-.6c0-.1-.4.6-.4.6l-.5-.5ZM290.6,358.3l.5.3-.3.2-.4-.2.2-.4ZM313.2,355.7l1.9.6-1.8.9-.5-1.3h.4ZM315.3,356.2l.7-.5.4,1.1-.2.5-.9-1ZM321.2,358.3l.5.3.8-.3h.4c0,.1.4-.2.4-.2l.5.2h1.2c0,0,.4.3.4.3l-.3.8v1s-1.9-.2-1.9-.2l-1,.9-.6-.3-.3-1-.8-.9.9-.6Z"/>
    <path id="GU" d="M424.4,421.1l.7-.2,1.4-1.7-.3-.6,1.1-.5.6-.4.9-.7.6-1.8.2-2.1v-1.4s-.6-.4-.6-.4l.7-.6v-3.2c-.1,0,.5-2.4.5-2.4l1.1-1.9v-1s.7-.7.7-.7l1.1.2,1-1.4,1.1-.4,1.6-1.8,1.4-.5,1.8-2.2,2-1.2.6-1.3.5-.5,2-.8,1-1.5,1.1-3.3.6-1.1.6-1.8v-1c0,0-2.7,0-2.7,0l-1.6-.2-.9-1.9-1.3-1.1-.3-1-1.9-1.5h-1.2c0,0-.6.4-.6.4l-1.4,2.8-.3,1v2.2c0,0-.5,1.6-.5,1.6l-.4.4-2.2,3.9-.2,1.5.2.9-.3.7-1,.4-1.2-.3-.9.6-.3.7.5.9-.6.7-.6.2-1-.2-.6.5-1.9-.3-1,.7-.7-.2-1.1.8-1.5.5-.6,2.2h-1.4c0-.1,0,.7,0,.7l.6.3-.5,2-.5-1v-1.5s-1.8,0-1.8,0l-1.5-.6h-1.1c0,0,0,.8,0,.8l1.5.9.5,1.3,1.7,1.3.4,1v.8s-.9.7-.9.7l-.7,3-1,1.6.8.2,1.3,2.6-.3.7v.6c.1,0,.7.3.7.3l-.5,1.8.6,1.4,1.4,1.6,3.2,1.1h.7s1,.1,1,.1Z"/>
    <path id="MP" d="M449.5,310.1l-.3-.5h-.4l-.5.3-.3.5.2.7.4.3-.4,1.3-.7-.5h-1.1s-.9-.7-.9-.7l.5-1.9.5-1v-1.7c0,0,2.9-1.9,2.9-1.9l.8-1,.8-.6.9.7v.6s-.2.2-.2.2h-.6s-.1.9-.1.9l-1,.7-.4,1.9.7,1.2-.3.6h-.6ZM444,319.8h.5c0,0-.2-.4-.2-.4l.5-2.1-.2-.7-.9-.7v-.9c0,0,.4-.6.4-.6v-1.2c0,0-.3-.7-.3-.7l-.5-.2-2.1,2.4-.7,1.7.5,1.3h.6s.3.8.3.8l.5.3.4,2h.3c0,.1.8-1.1.8-1.1ZM440.5,324.2l-.2-.3-1.6.5-.2.3.2.4,1-.2.7-.7ZM424.5,359.1v-.4s.4-.6.4-.6l1.8-.2.3-.5v-1.3c.1,0-1.8-.6-1.8-.6l-2.4,1.3-1.6.2-1.7,2.5h.2c0,0,1-.9,1-.9l.9.4v1c.1,0,2.1-.3,2.1-.3l.5-.6.4-.2Z"/>
    <path id="PR" d="M325.1,398.6l2.7.7.4-.2.6.4-2.3.7-.8-.4-.2.3-2,.8-.9-.3-1.8.5-.7-.2-.3-.4v-.5s3.9-.9,3.9-.9l.2-.3h1.3ZM326.7,392.9l.6.7.2-.3,1.1.2.6.4.2.4-.5.4-.5-.5h-.6c0-.1.6.5.6.5l-.2.4-1.3-1.3-.4-.9h.3ZM275.3,387.8h2.1c0,.1,1.1.8,1.1.8l2,.2,1.3-.3,1.1.2,1.2-.2,1.4.6h.9c0,0,.2-.3.2-.3l.7-.2h1.5c0-.1,1.3.2,1.3.2l.7-.2,1,.2,2,.5.6-.6,1.1-.2,3.4.7.4-.3,1.5.5h1c0-.1.4.5.4.5l.9-.4.4-.3,2.5.6.4.3h.7s.3-.5.3-.5l1.9.5.6-.3.8.5,1.2.2.6.7.7-.4.6.3v.4l.7.5h.2c0,.1.6-.2.6-.2l.7.7,1.1.2.5-.6.8-.2v.7s-.5.6-.5.6l.3.4v.8s0,.8,0,.8l.5.9.6.7-.6.5-.6.3-1-.2-.8.3-.7.2-.6.2-1.3,1.6-.5,2-1.2.3.2.7-.2.6-.7.2-.8.5-1,.4-1.8.2-.8-.4h-.4c0,.1-.7.9-.7.9l-.9-.5-2.4,1.2-.4-.6-.9-.5-.8.5-.2.6-1.5-.5-1-1.1-1.2.3-.7,1-2.3-1.6h-1.2c0,0-2.3.9-2.3.9l-1.3-.7-1.3.5-1.6-.8h-.7c0,0-1.1.6-1.1.6l-1.4.7h-1c0,0-1.1,0-1.1,0l-.3.5v.2c-.1,0-1.1-.1-1.1-.1l-1.4-1.2h-1.2c0,0-.5-.1-.5-.1l-1.3.9-1.6-.3-.6-.3-.4.4.3.6h-.3s-.6-.6-.6-.6v-1.1s.2-.4.2-.4l.9-.3v-.4c.1,0-1-.5-1-.5l.2-1.4.6-.9v-.8c-.1,0-.1-.9-.1-.9l1-1.2-.6-.7-.6-1.8-1.2-.4-1.1-2,1.7-.6,1.5-.9.2-.6-.4-1v-.6c.1,0,.9-.6.9-.6l1.4-.2Z"/>
    <path id="VI" d="M377.2,414.7l-1.3,1.2-1.8-.3-1.7.3-2.7,1.1-.9-.5h-1.7c0,0-1.1.2-1.1.2l-1,.7h-.5c0,0-.2-.3-.2-.3v-.4s.6-.5.6-.5l.3-.9.4-.3.2-.9-.7-2.4v-1s1.5-1.6,1.5-1.6h.5c0,0,2.5.7,2.5.7l1.6-.5.6-.8h1.1s1.3-.6,1.3-.6l1.9.7.8.5v-.8s.8.3.8.3l.4,1.2.8.2,1.3,1.1,1.6-.3,1.6-.8h.7c0,.1.7-.1.7-.1l1.5.4,1.5-.2.7.3h3.2c0,0,.5.3.5.3l-.7.7h-2.3c0,0-.9,1-.9,1l-2.3.9-1.5.2-2.1,1.1-2,.3-1,.4-.7-.4h-1s-.6-.2-.6-.2ZM355.2,383.2l.3.2,1.2-.7h.5l1.1.6.5,1,.3-.2h.2c0,.1,0,.9,0,.9l.6-.3.4-.7,1.9-.4.6.4-.2.4.2.9,1.6.8,1-.2,1.2.8-.2-.8-.4-.3,1.2-.4h1c0,0,.9.7.9.7v-.4s.7-.2.7-.2v-.7c0,0-1.2,0-1.2,0v-.2c0,0,.5-.3.5-.3v-.2c0,0-1-.5-1-.5l-.9-1-3.8-1.5-2.1-1.3,1.4,1.4-.4.7-1.1-.6-.7-.8-.3.4-2.5-.2-.7.2-.3.7-.7-.4-.3.4-1.9.3-.3.5-.5.2,1,1,1.1-.3ZM360.3,386.4l.2-1,.6-.2.4.4-.3-1-1.4,1.4.3.7h.3ZM381.1,387v-2.2c0,0,0-.3,0-.3l-1-.7-.2-.5.2-.2.6.6.3-.4v-.7c.1,0,.8-.1.8-.1v.9c0,0,1-.1,1-.1l.5.5-.3.6.5.3.8-1-.2-.3-.5-.3h-.8s-1.1-1.1-1.1-1.1h-.9l-.8-.5h-1.1c0,0-.8-.3-.8-.3h-.9c0,0-.2.2-.2.2l.6.5-.3.5h-1.6c0,.1-1.2.7-1.2.7l-.3-.4h-.2v.9l-.8.4v1.2c0,0,1.2,1,1.2,1l.7-.7h.8c0-.1.3.3.3.3l1.1-.7,1,.7,1-.2.2.6.4.3h.9s.3.8.3.8l.2-.2Z"/>
    <path id="US-AK" d="M77.6,311.4l2.4,4.6,1.5-1.9,5.6.6-.2,2.3,5,1.7,3.4-1,7,3.1,6.4.9,2.5,1.3,4.4-1.6,5,2.9,3.6,1.3h0v32.6s0,41.7,0,41.7l3.3.2,3.2,1.8,2.3,2.9,2.9,4.2,3.2-3.6,3.3-2.1,1.7,3.4,2.2,2.6,3,2.9,2.1,4.5,3.4,6.9,5.6,3.8v3.7c0,0-1.7,2.8-1.7,2.8l-1.8-2.2-2.9-1.8-.9-5.1-4.3-4.9-1.8-5.8-3.2-.4-5.2-.2-3.9-1.8-6.8-6.6-3.2-1.2-5.8-2.4-4.6.6-6.5-3-3.9-2.9-3.7,1.4.7,4.6-1.8.4-3.8,1.4-2.9,2.2-3.7,1.4-.5-3.8,1.5-6.5,3.5-2.1-.9-1.7-4.2,3.8-2.3,4.4-4.8,4.6,2.4,3.1-3.1,4.5-3.6,2.6-3.3,1.9-.8,2.7-5.2,3.1-1,2.8-3.9,2.5-2.3-.4-3.1,1.6-3.4,2-2.7,1.9-5.7,1.6-.5-1,3.6-2.7,3.2-1.8,3.5-3.2,4.1-.7,1.6-2.4,4.6-3.6.7-1.2,2.4-2.2.6-4.7,1.7-3.7-3.8,1.9-1.1-1.1-1.8,2.3-2.2-3.2-.9,2.3-1.2-3.2-3.3,2.6h-2s-.3-3.8-.3-3.8l.6-2.4-2.1-2.3-4.3,1.3-2.8-3.1-2.3-1.6v-3.8s-2.6-2.9-2.6-2.9l1.3-4,2.7-4,1.2-3.7,2.7-.5,2.3,1.2,2.7-3.5,2.4.6,2.5-2.3-.6-3.4-1.8-1.4,2.4-3h-2c0,0-3.5,1.8-3.5,1.8l-1,1.7-2.6-1.7-4.7.9-4.8-1.8-1.4-3.1-4.2-4.6,4.6-3.4,7.4-4h2.7l-.4,4.1,7-.3-2.7-5.1-4.1-3.2-2.4-4.3-3.2-3.7-4.5-2.8,1.8-4.7,5.9-.3,4.2-4.2.8-4.6,3.4-4.6,3.2-1.1,6.3-4.4,3,.7,5.1-5.4,5,2.2ZM22.6,375.4l2,1.4,2.1-.8,2.7,2,3.3,1-.3.8-2.5,1.5-2.5-1.6-1.3-1.3-2.9.4-.8-.6.2-2.8ZM42.9,402.5l-2,1-2.2-1.2-2-1.8,3.3-1.1,2.6.6.3,2.5ZM84.4,420.1l-3.3,2.3-1.7-1.6-.5-2.9,3-2.2,1.8-.9,2.2.4,1.4,1.9-2.9,2.9Z"/>
    <path id="US-AL" d="M342.3,241l2.2,12.7,2,10,1.2,3.1.7,1.8-1.4,1.7-.5,3.1.5,1.9-.2,1.7-.2,1.6.5,1.3.4,1.2h-17.3c0,0-4.8.6-4.8.6v.7c-.1,0,1.8,2.4,1.8,2.4l-.4,1.9-.6,1.3-7.5-1.1-.3-15,1.5-16,1.5-13.2-.6-2h21.5Z"/>
    <path id="US-AR" d="M308.2,230.2v.9c0,0-1,1.5-1,1.5l-1.5,1-.3,1.7-1.3,1.4v3c0,0-.9,1-.9,1l-.2.8-1.5.8v1.5s-1.2,2.7-1.2,2.7l-1,.6-1.5,1.4-.9,2.1-1.8,3.5-.2,2.4,1,2.6-.4,2-7.1-.3-9.2.3h-8.2s.5-5.7.5-5.7h-2s-1.6,0-1.6,0l-.4-.7.2-8.9.2-10-1.7-11,10.3.2h9.4s8.9,0,8.9,0l9.6.6.7,1.3-1,1.1-1,1.1-.5,1h5.5Z"/>
    <path id="US-AZ" d="M144.2,220v57.6s-16.7,0-16.7,0l-19.3-7-12.8-4.8.8-1.9h1.1s.9-2,.9-2l-1.5-1.4-.3-1.5-.4-1.8,1.7-2.3.7-4.6,2.6-2.1-1.6-2-1.1-1.9-.7-1.8-.5-1.4-.2-.9.5-2-.4-2-.2-2v-2.2s-.7-1.4-.7-1.4l.6-1.3h1.8l1.6.7,1.2.4.6-1.6.4-.3v-8.4c0,0,13.6-.2,13.6-.2h16.3s12.3,0,12.3,0Z"/>
    <path id="US-CA" d="M51.5,165.5v33.2s15.9,14.5,15.9,14.5l15.2,13.9,14.2,13.2.2.9.5,1.4.7,1.8,1.1,1.9,1.6,2-2.6,2.1-.7,4.6-1.7,2.3.4,1.8.3,1.5,1.5,1.4-.9,2h-1.1s-10.7,1-10.7,1l-9.6.8-1-3.7-3.6-5.2-9-6.1-3.4-.4-3.7-3.2-6.7-.8-2.2-1.7-1-5.6-8.2-10.4-7-14.6.3-2.5-3.7-3.5-6.5-9-1.2-8.9-4.5-6,1.8-9.2-.3-9.7h35.7Z"/>
    <path id="US-CO" d="M203.4,187.7v16.8c0,0,0,15.6,0,15.6h-8.1s-10.1,0-10.1,0h-14.4s-13.4,0-13.4,0h-13.2v-43.4c0,0,8.4,0,8.4,0h25.4s8.5,0,8.5,0h16.9v10.8s0,.3,0,.3Z"/>
    <path id="US-CT" d="M459.3,165.2v6.2c0,0-.4,1.6-.4,1.6l-3.7.6-4.9.6-6.6,2.6-.3-1.4,1.8-1.1-.7-1,.5-8.6,6.5.2,7.9.3Z"/>
    <path id="US-DC" d="M414.9,200.9v-.6s-.7-.9-.7-.9l.7-.5,1.1,1.1-1.1,1Z"/>
    <path id="US-DE" d="M428.8,189.9l-1.3,1.1.2,2.1,1.8,5.9,2.3,5.5h-5.6l-.6-13.8.7-.9.8-.5,1.8.6Z"/>
    <path id="US-FL" d="M377.3,283.6l1.1,7.1,3.2,7.9,3.8,7.2v3.7l3.7,9.7.4,8.4-1.8,8.1-3.5,1.6-4.2-1.1-1.3-4.1-3.2-2.2-4.5-8.1-4.1-6.9-.8-4.6,1.5-5.8-1.9-5.4-5.5-5.8-4.8-3.7-9.5,4.1-1.9-2.7-8-4.4-9.6,1.2.6-1.3.4-1.9-1.9-2.4v-.7c.1,0,5-.6,5-.6h17.3c0,0,1.3,2.6,1.3,2.6l8.5.5,13.7,1.5.6,1.7,1.1-.9v-3.4s1-.3,1-.3l1.7.7,1.8.2Z"/>
    <path id="US-GA" d="M363.9,241l-.9.9-1.4,1.9,2.3,1.7,1.5.6,1.6,3.2,1,1.8,2.9,2.4.6,1.3,2,1.6,1,2.4,2.7,2,.6,2.3.5,1.1-.3.7,1.6,1.1.8,1.9v1.9s.8.4.8.4l1.5.5-3.7,7.2-1.6,5.6-1.8-.2-1.7-.7-1,.3v3.4s-1.1.9-1.1.9l-.6-1.7-13.7-1.5-8.5-.5-1.3-2.6-.4-1.2-.5-1.3.2-1.6.2-1.7-.5-1.9.5-3.1,1.4-1.7-.7-1.8-1.2-3.1-2-10-2.2-12.7h6.5c0,0,4.5,0,4.5,0h10.5Z"/>
    <path id="US-HI" d="M172.9,346.2l-1.3,1.1-1.6-.4-2-1.6.7-1.2,1.6-1h2.5s.5.8.5.8l-.4,2.1ZM190.7,352.2l.9,1.8-1.8.5-1.1-.8-.6.2h-.3c0,.1-1.4,0-1.4,0l-1.8-3.1,1.7-.2,1.8-1.2,1.5,2.7,1.2.2ZM201.7,355.8l-1.6,1.2-4.7-.7.4-1.4,5.9.9ZM203.1,357.2l1.4,1.4,2-.4,2.8,1.9v.9c0,0-1,.8-1,.8l-3.3.5-.8-2.3-1.5-.2-.9-1.5.4-.9h.8ZM214.7,379.5l-1,1.7-2.8-1.2v-3.6c-.1,0-1.8-4.3-1.8-4.3l2.5-3.1-.8-1.8.2-1.1.5-.2,7,3.3,1.2,1.4.2,1.5.8.2.4,1,1.6,1.4-2.7,2.4-2.8.7-2.5,1.7Z"/>
    <path id="US-IA" d="M294.9,148.1v.6c.1,0,1.2,1.8,1.2,1.8l-.8.9v2.4s.4,1,.4,1l.5,1.8,2.8,1.1.8,1.7.5.9,1,.6.4,1.2,1.3.9.9,1-.4,3-1.6,2.6-.6.8-1.9.7-2.9.5-.8,1.9,1,.9.4,1.7-1.1,1.9-.6,1.7-2.2,1.7-.2,2-1.2-.9-1.6-1.8-9.2.2h-9.7c0,0-7.6,0-7.6,0h-7.6s-.6-2-.6-2l.2-2-.2-1.9-.9-3.2-.6-1.3-.6-.4v-2.6c0,0-.6-1.9-.6-1.9l-1.5-2.1v-.9s-.5-1.9-.5-1.9l-.4-1.1v-1s-1.4-1.3-1.4-1.3l.7-1.9.4-1.8.2-1.2-1.1-1.5v-2.8s1.1,0,1.1,0h9.2s11.5-.1,11.5-.1h12.4c0,0,11.1.1,11.1.1Z"/>
    <path id="US-ID" d="M126.9,136.4l.3.2v28.8s-25.2,0-25.2,0h-25.3c0,0,.1-20.8.1-20.8l.7-3.3-.7-1.5-1.6-.8v-1.9s1.2-2.7,1.2-2.7l1.8-2.4,1.2-3.8,1.1-3.1.9-1.6-.4-1.8-1.4-1-2-2.3v-2.2c0,0-.7-1.9-.7-1.9l-.2-17.2v-16.2s8.3,0,8.3,0l.7,13.4,2.2,3.3v2.3s1.6,2,1.6,2l2,1.2,1.4,1.9,2.4,3.8,2.2,1.8h2.5c0,.1-.9,2.8-.9,2.8l-.8,3.2.7,3.1-1,.8v3.1c0,0,1.6,1.2,1.6,1.2l1.7-1.4.9-1.7,1,.3,1,1.7,1,3.8,1.5,1.5.5,3.1.5.9,1.7.3,1,1.7,1.5,3.1,1.6-1.6,2.8.4.2-1.2,4.8.7,1.9-.4,1.2-2.4.9.3.8,1.7.9.7Z"/>
    <path id="US-IL" d="M323.9,159.7h0s0,3,0,3l2.3,6h0v13s0,12.7,0,12.7l-1,3,.7.8.4,1.8v1.5c0,0-.8.7-.8.7l-.6,1.8-1.8,2.3-1.2,2.9-.3,2.2v.8c0,0-.9,1.5-.9,1.5l.7,1-1.5.8-1.9.9.3,2.3-1.1.9-2-1-2.3-.6-.6,1,.3,1.6-1.5-1.6-.9.3-1.1-2.6.3-1.6-.6-2.6-.9-.3-2.2-2.3h-1s-1.7-1.6-1.7-1.6l-1.2-1.6.5-1.9.8-1.6.5-2-1.6-1.7-1.6.7-1-.5v-1.8c-.1,0-.8-2.1-.8-2.1l-.8-.5-1.9-1.5-1.6-1.9-1.4-2.3-.8-3.3.7-2.7.2-2,2.2-1.7.6-1.7,1.1-1.9-.4-1.7-1-.9.8-1.9,2.9-.5,1.9-.7.6-.8,1.6-2.6.4-3-.9-1-1.3-.9-.4-1.2-1-.6-.5-.9h17.5s6.5.1,6.5.1h0s0,0,0,0Z"/>
    <path id="US-IN" d="M349.2,169v10.1s0,10.8,0,10.8v7.6c0,0-.5.5-.5.5l.7,2.2-.4.8h-1.4s-1.3,1-1.3,1l-2-.4-.2,2.1-1.2.8-1.1,1.8-1.2.3-1.9,3.2-1.7-.9-.5-1.3-1.5,2.1-.9,1.2-1.8-1.3-2,1-.6,1-2.6-1.6-1.8,1.2-2.2-.8v1.2c0,0-1.2-.3-1.2-.3l.3-2.2,1.2-2.9,1.8-2.3.6-1.8.7-.7v-1.5c0,0-.4-1.8-.4-1.8l-.7-.8,1-3v-12.7s0-13,0-13h0l.8.8h2.9c0,0,2.3-1.3,2.3-1.3h9.1c0,0,8,0,8,0v.9Z"/>
    <path id="US-KS" d="M266.2,220h-7.4s-15.2,0-15.2,0h-15.2s-8.5,0-8.5,0h-8.5s-8,0-8,0v-15.6s0-16.8,0-16.8h56.9l2,1.5h1.1s.2,1.6.2,1.6l-1.2,2,.6,1,1,2.3,2.2,1v11.5c0,0-.2,11.4-.2,11.4Z"/>
    <path id="US-KY" d="M368,204.9l.2,1v2.2c0,0,.9,1.7.9,1.7l.4,1.6,1.2,1.4.9,1.3,1.6.2-3.4,3.2-2.6,1.2-.2.9-.9,1.1-2.3,1.3-.8,1-1.7.7-2.4.6-5.7.3-7.5-.4h-2.4c0,.1-4.9-.2-4.9-.2h-5c0,0-4.6-.1-4.6-.1l-5.3.3-.3-.5h-1.7s0,1.7,0,1.7h-12.1c0,0,1.9-1.2,1.9-1.2l1.3-.9-.2-1.7.3-1.1-.3-1.6.6-1,2.3.6,2,1,1.1-.9-.3-2.3,1.9-.9,1.5-.8-.7-1,1-1.5v-.8c0,0,1,.3,1,.3v-1.2c0,0,2.3.8,2.3.8l1.8-1.2,2.6,1.6.6-1,2-1,1.8,1.3.9-1.2,1.5-2.1.5,1.3,1.7.9,1.9-3.2,1.2-.3,1.1-1.8,1.2-.8.2-2.1,2,.4,1.3-1h1.4s.4-.8.4-.8l-.7-2.2.5-.5,2.9.3,1.5,1,2.3,2.4,1.8.8,1.3.9,2-.3,1.5.6,1.8-.6,1.6-.2.7,1.5,1.6,1Z"/>
    <path id="US-LA" d="M295.5,261l.6.6-.8,1.4,1.2,2.1-.3,1.2,1.1,1.7-1.2,1-.4,1.9-1.6,1.5-.8,2.1-.8,2.4-1,1.1.3,2.5,7.5.3h8s-.2,1.7-.2,1.7l-.6,1.6.5,1.2,1.1,1.1.3,1.6.2,1-1,4,2.6,5.8-11.6.4-7.2-2-4.9-2-6.4-1.3-7.3-.3-.7-1.3.9-1.4,1.3-1.3v-1.9s-.6-.6-.6-.6l.7-2.3.5-1.1.8-3.6-.7-1.3-1-2.2-.7-2.3-.5-1.5-1.4-1.1-.5-10.7h8.2s9.2-.3,9.2-.3l7.1.3Z"/>
    <path id="US-MA" d="M467.6,155.5v6.1c0,0,2.7,6,2.7,6l3.5.3-.9-4.1,2.5,2.5-.7,3.2-5.7,1.8-4.1-.2-.2-1.7-1.3-1.3-.6-3h-3.6c0,.1-7.9-.1-7.9-.1l-6.5-.2,1.8-7.9,7,.2h10.2c0,0,.9-1,.9-1l1.8-.8,1,.2Z"/>
    <path id="US-MD" d="M425.5,190.7l.6,13.8h5.6l.5,1-3.3,3.7-2,.2-.7.7-4.3-5.1-.4-8.1-1.4,3.8v9.3c.1,0-4.9-3.2-4.9-3.2l-.5-1.5-1.4.5-1.1-.6,1-2.4,1.4-1,.2-.9,1.1-1-1.1-1.1-.7.5-1.6-1.2-1.8-.7.6-1.2-1.1-.8-1.2-.4-.7-1.4-1-1.6-2.6-.9-1.6.8-.9.8-2.5-.4-1.1,1.1-1.7.4-1.5,1.3-1.3,1v-5.5c0,0,7.9,0,7.9,0h2.7s6,0,6,0h7.2c0,0,7.4,0,7.4,0Z"/>
    <path id="US-ME" d="M469,152.9h-.9c0,.1-.4-1.5-.4-1.5l-1.6-1.7.3-1.1-1.1-21.5,3.5-2.1,3-5.5,2.6-9.5,6.4-9.3,2.8,3.3,5.7-2.1,3.8,3.6v16.7s5.5,6.8,5.5,6.8v5.1c.1,0-8.1,3.8-8.1,3.8l-8.2,2.8-9.6,7-3.7,5.4Z"/>
    <path id="US-MI" d="M351.5,111.9h0l2.8.4h0l-1.1,1.2,4.2,4.9-7.5,1.1h-.3c0,0-6.7-1.3-6.7-1.3l-6.6,2.4-5.7,1.1-5,7.7h-.2c0,0,0,0,0,0l-1.1-1.4.6-1.9h-1.9c0-.1.4-2.1.4-2.1l.5-1-.7-1.7-2-.8-.5-2-1.7-.2h-2.4s-4.9-2.2-4.9-2.2l-7.4-2.2-.7-2.2-1.3-.4h0s-.5.2-.5.2h0c0,0,0,0,0,0l6.5-3.1,6.8-4,7.5-4.1-2.7,6.5,4.8,1.6,6,4.7,7.5-2.7,8.3-1.1,1.8,3.4,2.6.5.5-1.2ZM369.6,154h0l-.2.2-4,6.3-1.9,4h0l-2.9,4.4h-3.2c0,0-3.8,0-3.8,0h-4.3c0,0,0-.8,0-.8h-8c0,0-9.1,0-9.1,0h0l1.7-1.6,3.4-5.5.2-7.6-2.8-7.2.4-5,2.2-5.8,2.1-4,3.4-2.9.8,4,1.5-5.9,1.9-1.2,1.2-4.6,7.2,2.4,6.3,4.7.7,5.4-.8,5.4-4.7,4.7.4,2.9h1.7c0,0,5.2-5,5.2-5l3.1,1.2,1.5,6.8.4,4.7.2-.2Z"/>
    <path id="US-MN" d="M308.7,93.6h0s-8.6,4.2-8.6,4.2l-6,5-5.7,5.2v1.8s-2.3.7-2.3.7v6.9c0,0-.2,0-.2,0l-2.1,1.3-1.8,1.2-1.2,2.2,1.8,2.3-.6,3v3.2s-.3,2.6-.3,2.6l2.5,2.3h1c0,.1,2.7,1.8,2.7,1.8l1,.8.6,1.3,2.1,2,2.9,1.7.3,1v2.8s.2,1.3.2,1.3l-11.1-.2h-12.4c0,0-11.5.2-11.5.2h-9.2s.1-11,.1-11l-1-11.4-1.5-.9-.8-1.9.5-1.6,1.9-1.3v-1.8c.1,0,.2-2.2.2-2.2l-.5-1.9-.7-2-.4-2.5v-2.8c0,0-.4-.7-.4-.7l-.3-3.6v-1.7s-.2-1.5-.2-1.5l-.4-2.5-1-2.6-1-2.3v-2.3c-.1,0-.3-2.5-.3-2.5l.3-1.6v-1.5c0,0-.7-1.8-.7-1.8v-1.3c-.1,0,17.4,0,17.4,0v-5s2.9,0,2.9,0l1.5,7.1,2.6,2.2,5.9.8,8.6,2,8.2,3.9,6.9-1.7,10.4,3.3Z"/>
    <path id="US-MO" d="M293.2,183.6l-.7,2.7.8,3.3,1.4,2.3,1.6,1.9,1.9,1.5.8.5.7,2.1v1.8c.1,0,1.1.5,1.1.5l1.6-.7,1.6,1.7-.5,2-.8,1.6-.5,1.9,1.2,1.6,1.7,1.5h1s2.2,2.4,2.2,2.4l.9.3.6,2.6-.3,1.6,1.1,2.6.9-.3,1.5,1.6-.3,1.1.2,1.7-1.3.9-1.9,1.1-.2,1-.5,1.5-.7,2.5h-5.5l.5-1,1-1.1,1-1.1-.7-1.3-9.6-.6h-8.9s-9.4,0-9.4,0l-10.3-.2v-4.8c0,0,0,0,0,0v-11.4c0,0,.2-11.5.2-11.5l-2.2-1-1-2.3-.6-1,1.2-2-.2-1.6h-1.1s-2-1.4-2-1.4l-1.1-2.4-1.3-1.4-1.4-1.7-.2-.9h7.6s7.6,0,7.6,0h9.7c0,0,9.2-.3,9.2-.3l1.6,1.8,1.2.9Z"/>
    <path id="US-MS" d="M320.8,240.8l.6,2-1.5,13.2-1.5,16,.3,15-5.2,2.2-4.9-.2-.2-1-.3-1.6-1.1-1.1-.5-1.2.6-1.6.2-1.6h-8s-7.5-.3-7.5-.3l-.3-2.5,1-1.1.8-2.4.8-2.1,1.6-1.5.4-1.9,1.2-1-1.1-1.7.3-1.2-1.2-2.1.8-1.4-.6-.6.4-2-1-2.6.2-2.4,1.8-3.5.9-2.1,1.5-1.4,1-.6,1.1-2.7v-1.5s1.5-.8,1.5-.8l.2-.8h8.3l9.3.2Z"/>
    <path id="US-MT" d="M186.7,119l-.4,11h-14.1c0-.1-15.2,0-15.2,0h-13.2c0-.1-16.7,0-16.7,0v6s-.1.4-.1.4l-.9-.7-.8-1.7-.9-.3-1.2,2.4-1.9.4-4.8-.7-.2,1.2-2.8-.4-1.6,1.6-1.5-3.1-1-1.7-1.7-.3-.5-.9-.5-3.1-1.5-1.5-1-3.8-1-1.7-1-.3-.9,1.7-1.7,1.4-1.5-1.2v-3.1c0,0,.9-.8.9-.8l-.7-3.1.8-3.2.9-2.7h-2.5c0-.1-2.2-1.9-2.2-1.9l-2.4-3.8-1.4-1.9-2-1.2-1.6-2v-2.3s-2.2-3.3-2.2-3.3l-.7-13.4h25.3s25.3,0,25.3,0h25.3s25.3,0,25.3,0v23.2c.1,0,.6,14.9.6,14.9Z"/>
    <path id="US-NC" d="M424.9,224.7l1.2,10.4-5.4,7.6-8.3,3.9-7.2,5.1-3,.6-9.5-9.7h-9.4c0,0,0-1.3,0-1.3l-1.3-1.7-.9.7v-.9c0,0-4-.5-4-.5h-7.8c0,0-4.6,1.7-4.6,1.7l-.9.3h-10.5c0,0,.2-2.3.2-2.3l1.8-.6.6-1.1,1.2-1.2,1.7-.3,2-.5,1.9-.9.8-.9,1.6-.8v-.8s2.1-1.4,2.1-1.4l.7.9,3.1-2,1.5.2,1.3-1.8,1.7-.4v-1.5c0,0,.1-1.3.1-1.3l14.3.4h16.9c0,0,9,0,9,0h9.1Z"/>
    <path id="US-ND" d="M244.2,81v1.3c.1,0,.9,1.8.9,1.8v1.5c0,0-.3,1.6-.3,1.6v2.5c.1,0,.3,2.3.3,2.3l1,2.3,1,2.6.4,2.5.2,1.5v1.7s.4,3.6.4,3.6l.3.7v2.8c0,0,.5,2.5.5,2.5l.7,2,.5,1.9v2.2s-16.1.7-16.1.7h-13.7s-17.3,0-17.3,0h-16.2c0,0-.4-14.8-.4-14.8v-23.2c-.1,0,29.2,0,29.2,0h28.8Z"/>
    <path id="US-NE" d="M250.7,159.8l.4,1.1.5,1.9v.9s1.5,2.1,1.5,2.1l.5,1.9v2.6c0,0,.7.4.7.4l.6,1.3.9,3.2.2,1.9-.2,2,.6,2,.2.9,1.4,1.7,1.3,1.4,1.1,2.4h-56.9v-11.1s-16.9,0-16.9,0v-22.6c0,0,16.5,0,16.5,0h29.7l2.2,1.5,3.1.9.7-.5h2s3,0,3,0l2.2,1.5,2.3,1,.4,1,.7.5,1.4.2Z"/>
    <path id="US-NH" d="M469,152.9l-1.4,2.6-1-.2-1.8.8-.9,1.1h-10.2c0,0-.7-1.3-.7-1.3l.7-1.5.2-3,.3-.7.3-2.7.9-2.3.7-1,1-2.8.2-1.9.3-1.1,1.6-.6,1.9-1.4.3-1.5-.6-1.7,1-3.2h0s.9-3,.9-3l2.8-.4,1.1,21.5-.3,1.1,1.6,1.7.4,1.6h.9Z"/>
    <path id="US-NJ" d="M441.4,177.1l-2.9,5.4,2.1.5-1.5,7.9-6.2,8.4-.6-2.8-1.9-.6-2-2.9h-.7c0,.1-.2-2-.2-2l1.3-1.1,1.7-1,.6-.7,2-1.5,1.1-1.2-2.7-2.9-.2-1.2-.9-.3v-1.8s1-1.4,1-1.4l-.5-1.5,1.4-1,1.5-2.5,1-.5,6.5,4.4Z"/>
    <path id="US-NM" d="M195.3,220v5.2s0,27,0,27v18.9h-30.7v.8c0,0,1,1.6,1,1.6h-14.6v4.1c-.1,0-6.9,0-6.9,0v-57.6s13.2,0,13.2,0h13.4s14.4,0,14.4,0h10.1Z"/>
    <path id="US-NV" d="M102,165.4v54.6s0,8.4,0,8.4l-.4.3-.6,1.6-1.2-.4-1.6-.7h-1.8l-.6,1.3.8,1.4v2.2s.2,2,.2,2l.4,2-.5,2-14.2-13.2-15.2-13.9-16-14.5v-33.2s25.1,0,25.1,0h0s25.3,0,25.3,0Z"/>
    <path id="US-NY" d="M446.7,156.9l-1.8,7.9-.5,8.6.7,1-1.8,1.1.3,1.4,12-1.5,2.5,2.1-11.8,3.3h-5.4s.6-3.7.6-3.7l-6.5-4.4-1.4-.8-1.4-.8-.5-1.6.2-1.2-1-1-1.8-1.8h-11.5s-12.3,0-12.3,0h-13.2v-3.1l7.3-6.8-.2-1.1h0s-1.2-3.4-1.2-3.4l4.4-1.5,6.7.4,6.9,1,6.3-3.8-.5-4.5-1-1.8h0s0,0,0,0l8.8-8.1,3.8-2.2h12.9c0,0-.2,2.3-.2,2.3l-.3,1.5.2,3.5.5,1.8-.9,2.4.8,3.1-.5,1.7.2.4h1.2c0,0-.4,9.6-.4,9.6Z"/>
    <path id="US-OH" d="M385.5,180.6l-1.2.6.3,1.4-.4,2.5-.9,2.9-.8,2.4v1.1c-.1,0-2.4,2.5-2.4,2.5l-1,.5-1.1.3-1-.2-1.9,1.9-.3,2-.3,1.1-.8.4v-1.2c-.1,0-1.2-.3-1.2-.3l-1.2,2.4v2.4c-.1,0-1.2,1.5-1.2,1.5l-2.1.3-1.6-1-.7-1.5-1.6.2-1.8.6-1.5-.6-2,.3-1.3-.9-1.8-.8-2.3-2.4-1.5-1-2.9-.3v-7.6c0,0,.1-10.8.1-10.8v-10.1s4.4,0,4.4,0h7c0,0,5.2,2.2,5.2,2.2l4.2.6,6.1-1.5,5-3.1,4.4-1.5v15Z"/>
    <path id="US-OK" d="M266.2,224.8l1.7,11-.2,10-.2,8.9-3.6-2-2.4-1.1-1.9.7h-3c0-.1-1.8,0-1.8,0l-1.4.8-1.4.4-1.2-.5-2.8.5-1.3-1.7-1.3,1.5-2.3-.7-2.4-1.6-2.5,1-1.1-2.4-3.9.2-2.5-.5-2.8-.7-1.3-2.1-2.2.7-1.4-.8-2-1.1v-20h-25.4v-5.2s8.1,0,8.1,0h8s8.5,0,8.5,0h8.5s15.2,0,15.2,0h15.2s7.4,0,7.4,0h0v4.8Z"/>
    <path id="US-OR" d="M77.6,118.5l2,2.3,1.4,1,.4,1.8-.9,1.6-1.1,3.1-1.2,3.8-1.8,2.4-1.2,2.7v1.9s1.6.8,1.6.8l.7,1.5-.7,3.3v20.7c-.1,0-.1,0-.1,0h-25.1c0,0-35.7,0-35.7,0l-2.7-6.4,2.6-12.4.6-13.3,1.5-18.2,1.8-.2h2.6c0,0,2.1,1.2,2.1,1.2l2.5.7,1.6,2.3.2,2,.6,1.7,2,.5h2.1s3.3-1.3,3.3-1.3l1.9-.4,3,.5,1.3.6,1.8-.4,1.9-1,3.8.2,3.1-1.3,1.7-1,2.2.5,3-1.3h17.5Z"/>
    <path id="US-PA" d="M434.9,172.6l-1,.5-1.5,2.5-1.4,1,.5,1.5-1,1.4v1.8s.9.3.9.3l.2,1.2,2.7,2.9-1.1,1.2-2,1.5-.6.7-1.7,1-1.8-.6-.8.5-.7.9h-7.4s-7.2,0-7.2,0h-6s-2.7,0-2.7,0h-7.8s-8.8,0-8.8,0v-25.2h0l6.4-3.3h0s0,3.1,0,3.1h37s1.8,1.8,1.8,1.8l1,1-.2,1.2.5,1.6,1.4.8,1.4.8Z"/>
    <path id="US-RI" d="M465,171.1l-6.2,2,.5-1.6v-6.2c0,0,3.5-.1,3.5-.1l.6,3,1.3,1.3.2,1.7Z"/>
    <path id="US-SC" d="M402.1,252.4l-3.3,7.1-7.4,6.2-8.8,5-1.5-.5-.8-.4v-1.9s-.8-1.9-.8-1.9l-1.6-1.1.3-.7-.5-1.1-.6-2.3-2.7-2-1-2.4-2-1.6-.6-1.3-2.9-2.4-1-1.8-1.6-3.2-1.5-.6-2.3-1.7,1.4-1.9.9-.9.9-.3,4.6-1.8h7.8c0,0,4,.6,4,.6v.9c0,0,.9-.7.9-.7l1.3,1.7v1.2s9.4,0,9.4,0l9.5,9.7Z"/>
    <path id="US-SD" d="M250.7,148.1h-1.1s0,2.8,0,2.8l1.1,1.5-.2,1.2-.4,1.8-.7,1.9,1.4,1.3v1s-1.4-.2-1.4-.2l-.7-.5-.4-1-2.3-1-2.2-1.5h-3c0,.1-2,0-2,0l-.7.5-3.1-.9-2.2-1.5h-46.2l-.2-23.9.4-11h16.2c0,0,17.3-.1,17.3-.1h13.7s16.1-.6,16.1-.6v1.8c-.1,0-2,1.3-2,1.3l-.5,1.6.8,1.9,1.5.9,1,11.4v10.9Z"/>
    <path id="US-TN" d="M358.8,224.2l12.6.4,4.3-.2-.2,1.3v1.5c0,0-1.6.4-1.6.4l-1.3,1.8-1.5-.2-3.1,2-.7-.9-2.1,1.4v.8s-1.6.8-1.6.8l-.8.9-1.9.9-2,.5-1.7.3-1.2,1.2-.6,1.1-1.8.6-.2,2.2h-4.5c0,.1-6.5,0-6.5,0h-10.9c0-.1-10.6-.1-10.6-.1l-9.3-.2h-8.3l1-1v-3c0,0,1.2-1.4,1.2-1.4l.3-1.7,1.5-1,.9-1.5v-.9c0,0,.7-2.5.7-2.5l.5-1.5.2-1h12.1c0,0,0-1.6,0-1.6h1.7s.3.5.3.5l5.3-.3h4.6c0,0,5,.1,5,.1l4.9.3h2.4c0-.1,7.5.3,7.5.3l5.7-.3Z"/>
    <path id="US-TX" d="M267.4,254.7l.4.7h1.6c0-.1,2,0,2,0l-.5,5.7.5,10.7,1.4,1.1.5,1.5.7,2.3,1,2.2.7,1.3-.8,3.6-.5,1.1-.7,2.3.6.6v1.9s-1.3,1.3-1.3,1.3l-.9,1.4.7,1.3-7.2,2-7.7,7.1-8.4,4.1-4.6,4.5-1.9,4.3v6.5c0,0,.3,4.5.3,4.5l1.6,3.2-3.3.3-6-2.1-6.6-2.9-2.4-4.4-1.9-6.6-5-5.4-2.9-5.6-4.2-6.6-6-3.9-6.9.2-5.3,7.6-7-2.9-4.4-2.9-2.1-5.3-2.8-5.1-5-4.3-4.3-3.1-3.1-3.5-.9-1.6v-.8c0,0,7.5,0,7.5,0h23.1v-45.9h25.4v20l2,1.1,1.4.8,2.2-.7,1.3,2.1,2.8.7,2.5.5,3.9-.2,1.1,2.4,2.5-1,2.4,1.6,2.3.7,1.3-1.5,1.3,1.7,2.8-.5,1.2.5,1.4-.4,1.4-.8h1.8s3,0,3,0l1.9-.7,2.4,1.1,3.6,2Z"/>
    <path id="US-UT" d="M144.1,176.6v43.4c0,0-12.2,0-12.2,0h-16.3s-13.6.1-13.6.1v-54.6s25.2,0,25.2,0v11s16.9.3,16.9.3Z"/>
    <path id="US-VA" d="M422.4,218.2l2.4,6.5h-9.1c0,0-9,.1-9,.1h-16.9c0,0-14.3-.5-14.3-.5l-4.3.2-12.6-.4,2.4-.6,1.7-.6.8-1,2.3-1.3.9-1.1.2-.9,2.6-1.2,3.4-3.2.4,1.8,1,1,1.3.9,2.7-1.3,1,.7,3.2-.9.2-1,1,.4,1-.8,1.2.2,1.3-.8.2-1v-1.2c-.1,0,1-1.8,1-1.8l1.6-1.4.4-1.6,1.5-1.9.8-2.3,1.1.8,1.3.8,1.2-.4.4-1,.8-1.3.9-1.5.6.4,1.3-1.4,1.7-1.4,1-1.1.7-2.9,4.3,3,1-2,1.2.4,1.1.8-.6,1.2,1.8.7,1.6,1.2.7.9v.6s-.2.9-.2.9l-1.4,1-1,2.4,1.1.6,1.4-.5.5,1.5,5.3,6,1.6,5.1v.3ZM429,209.2l-2,.2-.7.7-2.9,7.2.8.4,4.8-8.5Z"/>
    <path id="US-VT" d="M453.7,157.1l-7-.2.4-9.5h-1.2c0,0-.2-.5-.2-.5l.5-1.7-.8-3.1.9-2.4-.5-1.8-.2-3.5.3-1.5.2-2.4h15.6s0,0,0,0l-1,3.2.6,1.7-.3,1.5-1.9,1.4-1.6.6-.3,1.1-.2,1.9-1,2.8-.7,1-.9,2.3-.3,2.7-.3.7-.2,3-.7,1.5.7,1.2Z"/>
    <path id="US-WA" d="M76.6,81v16.2s.3,17.2.3,17.2l.8,1.9v2.2c0,0-17.5,0-17.5,0l-3,1.3-2.2-.5-1.7,1-3.1,1.3-3.8-.2-1.9,1-1.8.4-1.3-.6-3-.5-1.9.4-3.3,1.3h-2.1s-2-.4-2-.4l-.6-1.7-.2-2-1.6-2.3-2.5-.7-2.1-1.1h-2.6c0,0-1.8.1-1.8.1l-2.3-10.2-1.4-12,11.8,2.3,3.7,9.8,2.1-3.3-1.4-10.3-4-10.5h25.1c0,0,25.1,0,25.1,0Z"/>
    <path id="US-WI" d="M301.9,111.4h0c0,0,.5-.2.5-.2h0s1.3.4,1.3.4l.7,2.2,7.4,2.2,4.9,2.2h2.4s1.6.2,1.6.2l.5,2,2,.8.8,1.7-.5,1-.4,2h1.9c0,.1-.6,2-.6,2l1.1,1.4h0s.2,0,.2,0h0c0,.1-3.3,4.4-3.3,4.4l1.1,1.4,6.2-7.7h1.3s-4.4,9.1-4.4,9.1l-1.9,8.2-1.6,6.6,1.1,5.6-.2,2.8h0s-6.5,0-6.5,0h-8.8s-8.6,0-8.6,0l-.8-1.7-2.8-1.1-.5-1.8-.3-1v-2.4s.7-.9.7-.9l-1.1-1.8v-.6c-.1,0-.3-1.3-.3-1.3v-2.8s-.3-1-.3-1l-2.9-1.7-2.1-2-.6-1.3-1-.8-2.7-1.7h-1c0-.1-2.5-2.4-2.5-2.4l.3-2.6v-3.2s.6-3,.6-3l-1.8-2.3,1.2-2.2,1.8-1.2,2.1-1.3h.3s0-6.8,0-6.8l2.2-.7h0l8.5-2.6,5.1,4.2Z"/>
    <path id="US-WV" d="M394.3,190.8v5.5c0,0,1.2-1,1.2-1l1.5-1.3,1.7-.4,1.1-1.1,2.5.4.9-.8,1.6-.8,2.6.9,1,1.6.7,1.4-.9,2-4.3-3-.7,2.9-1.1,1.1-1.7,1.4-1.3,1.4-.6-.4-.9,1.5-.8,1.3-.4,1-1.2.4-1.3-.8-1.1-.8-.8,2.3-1.4,1.9-.4,1.6-1.6,1.4-1.1,1.8v1.3c.1,0,0,1,0,1l-1.3.8-1.2-.2-1,.8-1-.4-.2,1-3.1.9-1-.7-2.7,1.3-1.3-.9-1-1-.4-1.8-1.6-.2-.9-1.3-1.2-1.4-.4-1.6-1-1.7v-2.2c0,0,0-1,0-1l2.1-.3,1.1-1.5v-2.4c.1,0,1.3-2.4,1.3-2.4l1.1.3v1.2c.1,0,.9-.4.9-.4l.3-1.1.3-2,1.9-1.9,1,.2,1.1-.3,1-.5,2.3-2.5v-1.1c.1,0,1-2.4,1-2.4l.9-2.9.4-2.5-.3-1.4,1.2-.6v10.2h8.8Z"/>
    <path id="US-WY" d="M186.2,130l.2,23.9v22.6c0,0-8.4,0-8.4,0h-16.9s-8.5,0-8.5,0h-8.5l-16.9-.3v-11s0-28.8,0-28.8l-.3-.2.2-.4v-6s16.6,0,16.6,0h13.2c0,.1,15.2,0,15.2,0h14.1Z"/>
  </g>
</svg>