<svg xmlns="http://www.w3.org/2000/svg" xmlns:amcharts="http://amcharts.com/ammap" id="Layer_1" viewBox="0 0 512 512"><g id="_x3C_defs"><amcharts:ammap bottomLatitude="14.052" leftLongitude="-124.542" projection="mercator" rightLongitude="-67.119" topLatitude="49.391"/></g><g><path id="divider1" d="M191.5 330.6h-34.3l-26.7-27.1-57.4-17.9v.2l57.3 17.9 26.7 27.1v21.9l34.7 31 .2-.2-34.6-30.9v-21.8h34.1l42.5 36.9V386h.2v-18.3l-42.6-37Z"/><path id="divider2" d="M406.5 370.6V340l31.5-50.9h-.2c0-.1-31.5 50.8-31.5 50.8v30.7h-67.5v-8.9l-.2-.4-7.2-12.7v-.2h-66.9v.2h66.7l7.5 13.1v8.9h-74.2v.2h74.2v54h.2v-54h67.5v54h.2v-54h52.2v-.2h-52.2Z"/><path id="AS" d="m280.6 362.5-.8-.5-.2-1.1h-.5l-.2-.3-.4.3-1.1-.4.2-.5.7-.6h.5v-.4l.6-.3 1.1.2.6-.2.4.4 1.3-.7 1-1.1 1.3-.8.3-.5v.9l1.4-.2 2.7.5.3-.5h.7l-.1 1-1.3.8h-.5v-.4l-.8-.2-.5.6-1.3.4-.4-.3v-.3c.1 0 0-.5 0-.5l-1 .3.4.5v.4l-1.2 1.3h-.5c0 .1-1.2 2.1-1.2 2.1h-.6c0-.1-.4.6-.4.6zm10-4.2.5.3-.3.2-.4-.2.2-.4Zm22.6-2.6 1.9.6-1.8.9-.5-1.3h.4Zm2.1.5.7-.5.4 1.1-.2.5-.9-1Zm5.9 2.1.5.3.8-.3h.4c0 .1.4-.2.4-.2l.5.2h1.2l.4.3-.3.8v1l-1.9-.2-1 .9-.6-.3-.3-1-.8-.9.9-.6Z"/><path id="GU" d="m424.4 421.1.7-.2 1.4-1.7-.3-.6 1.1-.5.6-.4.9-.7.6-1.8.2-2.1v-1.4l-.6-.4.7-.6v-3.2c-.1 0 .5-2.4.5-2.4l1.1-1.9v-1l.7-.7 1.1.2 1-1.4 1.1-.4 1.6-1.8 1.4-.5 1.8-2.2 2-1.2.6-1.3.5-.5 2-.8 1-1.5 1.1-3.3.6-1.1.6-1.8v-1h-2.7l-1.6-.2-.9-1.9-1.3-1.1-.3-1-1.9-1.5h-1.2l-.6.4-1.4 2.8-.3 1v2.2l-.5 1.6-.4.4-2.2 3.9-.2 1.5.2.9-.3.7-1 .4-1.2-.3-.9.6-.3.7.5.9-.6.7-.6.2-1-.2-.6.5-1.9-.3-1 .7-.7-.2-1.1.8-1.5.5-.6 2.2h-1.4v.7l.6.3-.5 2-.5-1v-1.5h-1.8l-1.5-.6h-1.1v.8l1.5.9.5 1.3 1.7 1.3.4 1v.8l-.9.7-.7 3-1 1.6.8.2 1.3 2.6-.3.7v.6c.1 0 .7.3.7.3l-.5 1.8.6 1.4 1.4 1.6 3.2 1.1h.7l1 .1Z"/><path id="MP" d="m449.5 310.1-.3-.5h-.4l-.5.3-.3.5.2.7.4.3-.4 1.3-.7-.5h-1.1l-.9-.7.5-1.9.5-1v-1.7l2.9-1.9.8-1 .8-.6.9.7v.6l-.2.2h-.6l-.1.9-1 .7-.4 1.9.7 1.2-.3.6h-.6Zm-5.5 9.7h.5l-.2-.4.5-2.1-.2-.7-.9-.7v-.9l.4-.6v-1.2l-.3-.7-.5-.2-2.1 2.4-.7 1.7.5 1.3h.6l.3.8.5.3.4 2h.3c0 .1.8-1.1.8-1.1Zm-3.5 4.4-.2-.3-1.6.5-.2.3.2.4 1-.2.7-.7Zm-16 34.9v-.4l.4-.6 1.8-.2.3-.5v-1.3c.1 0-1.8-.6-1.8-.6l-2.4 1.3-1.6.2-1.7 2.5h.2l1-.9.9.4v1c.1 0 2.1-.3 2.1-.3l.5-.6.4-.2Z"/><path id="PR" d="m325.1 398.6 2.7.7.4-.2.6.4-2.3.7-.8-.4-.2.3-2 .8-.9-.3-1.8.5-.7-.2-.3-.4v-.5l3.9-.9.2-.3h1.3Zm1.6-5.7.6.7.2-.3 1.1.2.6.4.2.4-.5.4-.5-.5h-.6c0-.1.6.5.6.5l-.2.4-1.3-1.3-.4-.9h.3Zm-51.4-5.1h2.1c0 .1 1.1.8 1.1.8l2 .2 1.3-.3 1.1.2 1.2-.2 1.4.6h.9l.2-.3.7-.2h1.5c0-.1 1.3.2 1.3.2l.7-.2 1 .2 2 .5.6-.6 1.1-.2 3.4.7.4-.3 1.5.5h1c0-.1.4.5.4.5l.9-.4.4-.3 2.5.6.4.3h.7l.3-.5 1.9.5.6-.3.8.5 1.2.2.6.7.7-.4.6.3v.4l.7.5h.2c0 .1.6-.2.6-.2l.7.7 1.1.2.5-.6.8-.2v.7l-.5.6.3.4v1.6l.5.9.6.7-.6.5-.6.3-1-.2-.8.3-.7.2-.6.2-1.3 1.6-.5 2-1.2.3.2.7-.2.6-.7.2-.8.5-1 .4-1.8.2-.8-.4h-.4c0 .1-.7.9-.7.9l-.9-.5-2.4 1.2-.4-.6-.9-.5-.8.5-.2.6-1.5-.5-1-1.1-1.2.3-.7 1-2.3-1.6h-1.2l-2.3.9-1.3-.7-1.3.5-1.6-.8h-.7l-1.1.6-1.4.7h-2.1l-.3.5v.2c-.1 0-1.1-.1-1.1-.1l-1.4-1.2h-1.2l-.5-.1-1.3.9-1.6-.3-.6-.3-.4.4.3.6h-.3l-.6-.6V404l.2-.4.9-.3v-.4c.1 0-1-.5-1-.5l.2-1.4.6-.9v-.8c-.1 0-.1-.9-.1-.9l1-1.2-.6-.7-.6-1.8-1.2-.4-1.1-2 1.7-.6 1.5-.9.2-.6-.4-1v-.6c.1 0 .9-.6.9-.6l1.4-.2Z"/><path id="VI" d="m377.2 414.7-1.3 1.2-1.8-.3-1.7.3-2.7 1.1-.9-.5h-1.7l-1.1.2-1 .7h-.5l-.2-.3v-.4l.6-.5.3-.9.4-.3.2-.9-.7-2.4v-1l1.5-1.6h.5l2.5.7 1.6-.5.6-.8h1.1l1.3-.6 1.9.7.8.5v-.8l.8.3.4 1.2.8.2 1.3 1.1 1.6-.3 1.6-.8h.7c0 .1.7-.1.7-.1l1.5.4 1.5-.2.7.3h3.2l.5.3-.7.7h-2.3l-.9 1-2.3.9-1.5.2-2.1 1.1-2 .3-1 .4-.7-.4h-1l-.6-.2Zm-22-31.5.3.2 1.2-.7h.5l1.1.6.5 1 .3-.2h.2v.9l.6-.3.4-.7 1.9-.4.6.4-.2.4.2.9 1.6.8 1-.2 1.2.8-.2-.8-.4-.3 1.2-.4h1l.9.7v-.4l.7-.2v-.7h-1.2v-.2l.5-.3v-.2l-1-.5-.9-1-3.8-1.5-2.1-1.3 1.4 1.4-.4.7-1.1-.6-.7-.8-.3.4-2.5-.2-.7.2-.3.7-.7-.4-.3.4-1.9.3-.3.5-.5.2 1 1 1.1-.3Zm5.1 3.2.2-1 .6-.2.4.4-.3-1-1.4 1.4.3.7h.3Zm20.8.6v-2.5l-1-.7-.2-.5.2-.2.6.6.3-.4v-.7c.1 0 .8-.1.8-.1v.9l1-.1.5.5-.3.6.5.3.8-1-.2-.3-.5-.3h-.8l-1.1-1.1h-.9l-.8-.5h-1.1l-.8-.3h-.9l-.2.2.6.5-.3.5h-1.6c0 .1-1.2.7-1.2.7l-.3-.4h-.2v.9l-.8.4v1.2l1.2 1 .7-.7h.8c0-.1.3.3.3.3l1.1-.7 1 .7 1-.2.2.6.4.3h.9l.3.8.2-.2Z"/><path id="US-AK" d="M77.6 311.4 80 316l1.5-1.9 5.6.6-.2 2.3 5 1.7 3.4-1 7 3.1 6.4.9 2.5 1.3 4.4-1.6 5 2.9 3.6 1.3v74.3l3.3.2 3.2 1.8 2.3 2.9 2.9 4.2 3.2-3.6 3.3-2.1 1.7 3.4 2.2 2.6 3 2.9 2.1 4.5 3.4 6.9 5.6 3.8v3.7l-1.7 2.8-1.8-2.2-2.9-1.8-.9-5.1-4.3-4.9-1.8-5.8-3.2-.4-5.2-.2-3.9-1.8-6.8-6.6-3.2-1.2-5.8-2.4-4.6.6-6.5-3-3.9-2.9-3.7 1.4.7 4.6-1.8.4-3.8 1.4-2.9 2.2-3.7 1.4-.5-3.8 1.5-6.5 3.5-2.1-.9-1.7-4.2 3.8-2.3 4.4-4.8 4.6 2.4 3.1-3.1 4.5-3.6 2.6-3.3 1.9-.8 2.7-5.2 3.1-1 2.8-3.9 2.5-2.3-.4-3.1 1.6-3.4 2-2.7 1.9-5.7 1.6-.5-1 3.6-2.7 3.2-1.8 3.5-3.2 4.1-.7 1.6-2.4 4.6-3.6.7-1.2 2.4-2.2.6-4.7 1.7-3.7-3.8 1.9-1.1-1.1-1.8 2.3-2.2-3.2-.9 2.3-1.2-3.2-3.3 2.6h-2l-.3-3.8.6-2.4-2.1-2.3-4.3 1.3-2.8-3.1-2.3-1.6v-3.8l-2.6-2.9 1.3-4 2.7-4 1.2-3.7 2.7-.5 2.3 1.2 2.7-3.5 2.4.6 2.5-2.3-.6-3.4-1.8-1.4 2.4-3h-2l-3.5 1.8-1 1.7-2.6-1.7-4.7.9-4.8-1.8-1.4-3.1-4.2-4.6 4.6-3.4 7.4-4H49l-.4 4.1 7-.3-2.7-5.1-4.1-3.2-2.4-4.3-3.2-3.7-4.5-2.8 1.8-4.7 5.9-.3 4.2-4.2.8-4.6 3.4-4.6L58 319l6.3-4.4 3 .7 5.1-5.4 5 2.2Zm-55 64 2 1.4 2.1-.8 2.7 2 3.3 1-.3.8-2.5 1.5-2.5-1.6-1.3-1.3-2.9.4-.8-.6zm20.3 27.1-2 1-2.2-1.2-2-1.8 3.3-1.1 2.6.6zm41.5 17.6-3.3 2.3-1.7-1.6-.5-2.9 3-2.2 1.8-.9 2.2.4 1.4 1.9-2.9 2.9Z"/><path id="US-AL" d="m342.3 241 2.2 12.7 2 10 1.2 3.1.7 1.8-1.4 1.7-.5 3.1.5 1.9-.2 1.7-.2 1.6.5 1.3.4 1.2h-17.3l-4.8.6v.7c-.1 0 1.8 2.4 1.8 2.4l-.4 1.9-.6 1.3-7.5-1.1-.3-15 1.5-16 1.5-13.2-.6-2h21.5Z"/><path id="US-AR" d="M308.2 230.2v.9l-1 1.5-1.5 1-.3 1.7-1.3 1.4v3l-.9 1-.2.8-1.5.8v1.5l-1.2 2.7-1 .6-1.5 1.4-.9 2.1-1.8 3.5-.2 2.4 1 2.6-.4 2-7.1-.3-9.2.3H271l.5-5.7h-3.6l-.4-.7.2-8.9.2-10-1.7-11 10.3.2h18.3l9.6.6.7 1.3-1 1.1-1 1.1-.5 1h5.5Z"/><path id="US-AZ" d="M144.2 220v57.6h-16.7l-19.3-7-12.8-4.8.8-1.9h1.1l.9-2-1.5-1.4-.3-1.5-.4-1.8 1.7-2.3.7-4.6 2.6-2.1-1.6-2-1.1-1.9-.7-1.8-.5-1.4-.2-.9.5-2-.4-2-.2-2V232l-.7-1.4.6-1.3h1.8l1.6.7 1.2.4.6-1.6.4-.3v-8.4l13.6-.2h28.6Z"/><path id="US-CA" d="M51.5 165.5v33.2l15.9 14.5 15.2 13.9 14.2 13.2.2.9.5 1.4.7 1.8 1.1 1.9 1.6 2-2.6 2.1-.7 4.6-1.7 2.3.4 1.8.3 1.5 1.5 1.4-.9 2h-1.1l-10.7 1-9.6.8-1-3.7-3.6-5.2-9-6.1-3.4-.4-3.7-3.2-6.7-.8-2.2-1.7-1-5.6-8.2-10.4-7-14.6.3-2.5-3.7-3.5-6.5-9-1.2-8.9-4.5-6 1.8-9.2-.3-9.7h35.7Z"/><path id="US-CO" d="M203.4 187.7v32.4h-59.2v-43.4h59.2v11.1Z"/><path id="US-CT" d="M459.3 165.2v6.2l-.4 1.6-3.7.6-4.9.6-6.6 2.6-.3-1.4 1.8-1.1-.7-1 .5-8.6 6.5.2 7.9.3Z"/><path id="US-DC" d="M414.9 200.9v-.6l-.7-.9.7-.5 1.1 1.1-1.1 1Z"/><path id="US-DE" d="m428.8 189.9-1.3 1.1.2 2.1 1.8 5.9 2.3 5.5h-5.6l-.6-13.8.7-.9.8-.5 1.8.6Z"/><path id="US-FL" d="m377.3 283.6 1.1 7.1 3.2 7.9 3.8 7.2v3.7l3.7 9.7.4 8.4-1.8 8.1-3.5 1.6-4.2-1.1-1.3-4.1-3.2-2.2-4.5-8.1-4.1-6.9-.8-4.6 1.5-5.8-1.9-5.4-5.5-5.8-4.8-3.7-9.5 4.1-1.9-2.7-8-4.4-9.6 1.2.6-1.3.4-1.9-1.9-2.4v-.7c.1 0 5-.6 5-.6h17.3l1.3 2.6 8.5.5 13.7 1.5.6 1.7 1.1-.9v-3.4l1-.3 1.7.7 1.8.2Z"/><path id="US-GA" d="m363.9 241-.9.9-1.4 1.9 2.3 1.7 1.5.6 1.6 3.2 1 1.8 2.9 2.4.6 1.3 2 1.6 1 2.4 2.7 2 .6 2.3.5 1.1-.3.7 1.6 1.1.8 1.9v1.9l.8.4 1.5.5-3.7 7.2-1.6 5.6-1.8-.2-1.7-.7-1 .3v3.4l-1.1.9-.6-1.7-13.7-1.5-8.5-.5-1.3-2.6-.4-1.2-.5-1.3.2-1.6.2-1.7-.5-1.9.5-3.1 1.4-1.7-.7-1.8-1.2-3.1-2-10-2.2-12.7H364Z"/><path id="US-HI" d="m172.9 346.2-1.3 1.1-1.6-.4-2-1.6.7-1.2 1.6-1h2.5l.5.8-.4 2.1Zm17.8 6 .9 1.8-1.8.5-1.1-.8-.6.2h-.3c0 .1-1.4 0-1.4 0l-1.8-3.1 1.7-.2 1.8-1.2 1.5 2.7 1.2.2Zm11 3.6-1.6 1.2-4.7-.7.4-1.4zm1.4 1.4 1.4 1.4 2-.4 2.8 1.9v.9l-1 .8-3.3.5-.8-2.3-1.5-.2-.9-1.5.4-.9h.8Zm11.6 22.3-1 1.7-2.8-1.2v-3.6c-.1 0-1.8-4.3-1.8-4.3l2.5-3.1-.8-1.8.2-1.1.5-.2 7 3.3 1.2 1.4.2 1.5.8.2.4 1 1.6 1.4-2.7 2.4-2.8.7z"/><path id="US-IA" d="M294.9 148.1v.6c.1 0 1.2 1.8 1.2 1.8l-.8.9v2.4l.4 1 .5 1.8 2.8 1.1.8 1.7.5.9 1 .6.4 1.2 1.3.9.9 1-.4 3-1.6 2.6-.6.8-1.9.7-2.9.5-.8 1.9 1 .9.4 1.7-1.1 1.9-.6 1.7-2.2 1.7-.2 2-1.2-.9-1.6-1.8-9.2.2h-24.9l-.6-2 .2-2-.2-1.9-.9-3.2-.6-1.3-.6-.4v-2.6l-.6-1.9-1.5-2.1v-.9l-.5-1.9-.4-1.1v-1l-1.4-1.3.7-1.9.4-1.8.2-1.2-1.1-1.5v-2.8h10.3l11.5-.1h12.4l11.1.1Z"/><path id="US-ID" d="m126.9 136.4.3.2v28.8H76.7l.1-20.8.7-3.3-.7-1.5-1.6-.8v-1.9l1.2-2.7 1.8-2.4 1.2-3.8 1.1-3.1.9-1.6-.4-1.8-1.4-1-2-2.3v-2.2l-.7-1.9-.2-17.2V80.9H85l.7 13.4 2.2 3.3v2.3l1.6 2 2 1.2 1.4 1.9 2.4 3.8 2.2 1.8h2.5c0 .1-.9 2.8-.9 2.8l-.8 3.2.7 3.1-1 .8v3.1l1.6 1.2 1.7-1.4.9-1.7 1 .3 1 1.7 1 3.8 1.5 1.5.5 3.1.5.9 1.7.3 1 1.7 1.5 3.1 1.6-1.6 2.8.4.2-1.2 4.8.7 1.9-.4 1.2-2.4.9.3.8 1.7.9.7Z"/><path id="US-IL" d="M323.9 159.7v3l2.3 6v25.7l-1 3 .7.8.4 1.8v1.5l-.8.7-.6 1.8-1.8 2.3-1.2 2.9-.3 2.2v.8l-.9 1.5.7 1-1.5.8-1.9.9.3 2.3-1.1.9-2-1-2.3-.6-.6 1 .3 1.6-1.5-1.6-.9.3-1.1-2.6.3-1.6-.6-2.6-.9-.3-2.2-2.3h-1l-1.7-1.6-1.2-1.6.5-1.9.8-1.6.5-2-1.6-1.7-1.6.7-1-.5v-1.8c-.1 0-.8-2.1-.8-2.1l-.8-.5-1.9-1.5-1.6-1.9-1.4-2.3-.8-3.3.7-2.7.2-2 2.2-1.7.6-1.7 1.1-1.9-.4-1.7-1-.9.8-1.9 2.9-.5 1.9-.7.6-.8 1.6-2.6.4-3-.9-1-1.3-.9-.4-1.2-1-.6-.5-.9h17.5l6.5.1Z"/><path id="US-IN" d="M349.2 169v28.5l-.5.5.7 2.2-.4.8h-1.4l-1.3 1-2-.4-.2 2.1-1.2.8-1.1 1.8-1.2.3-1.9 3.2-1.7-.9-.5-1.3-1.5 2.1-.9 1.2-1.8-1.3-2 1-.6 1-2.6-1.6-1.8 1.2-2.2-.8v1.2l-1.2-.3.3-2.2 1.2-2.9 1.8-2.3.6-1.8.7-.7v-1.5l-.4-1.8-.7-.8 1-3v-25.7l.8.8h2.9l2.3-1.3h17.1v.9Z"/><path id="US-KS" d="M266.2 220h-62.8v-32.4h56.9l2 1.5h1.1l.2 1.6-1.2 2 .6 1 1 2.3 2.2 1v11.5l-.2 11.4Z"/><path id="US-KY" d="m368 204.9.2 1v2.2l.9 1.7.4 1.6 1.2 1.4.9 1.3 1.6.2-3.4 3.2-2.6 1.2-.2.9-.9 1.1-2.3 1.3-.8 1-1.7.7-2.4.6-5.7.3-7.5-.4h-2.4c0 .1-4.9-.2-4.9-.2h-5l-4.6-.1-5.3.3-.3-.5h-1.7v1.7h-12.1l1.9-1.2 1.3-.9-.2-1.7.3-1.1-.3-1.6.6-1 2.3.6 2 1 1.1-.9-.3-2.3 1.9-.9 1.5-.8-.7-1 1-1.5v-.8l1 .3v-1.2l2.3.8 1.8-1.2 2.6 1.6.6-1 2-1 1.8 1.3.9-1.2 1.5-2.1.5 1.3 1.7.9 1.9-3.2 1.2-.3 1.1-1.8 1.2-.8.2-2.1 2 .4 1.3-1h1.4l.4-.8-.7-2.2.5-.5 2.9.3 1.5 1 2.3 2.4 1.8.8 1.3.9 2-.3 1.5.6 1.8-.6 1.6-.2.7 1.5z"/><path id="US-LA" d="m295.5 261 .6.6-.8 1.4 1.2 2.1-.3 1.2 1.1 1.7-1.2 1-.4 1.9-1.6 1.5-.8 2.1-.8 2.4-1 1.1.3 2.5 7.5.3h8l-.2 1.7-.6 1.6.5 1.2 1.1 1.1.3 1.6.2 1-1 4 2.6 5.8-11.6.4-7.2-2-4.9-2-6.4-1.3-7.3-.3-.7-1.3.9-1.4 1.3-1.3v-1.9l-.6-.6.7-2.3.5-1.1.8-3.6-.7-1.3-1-2.2-.7-2.3-.5-1.5-1.4-1.1-.5-10.7h8.2l9.2-.3 7.1.3Z"/><path id="US-MA" d="M467.6 155.5v6.1l2.7 6 3.5.3-.9-4.1 2.5 2.5-.7 3.2-5.7 1.8-4.1-.2-.2-1.7-1.3-1.3-.6-3h-3.6c0 .1-7.9-.1-7.9-.1l-6.5-.2 1.8-7.9 7 .2h10.2l.9-1 1.8-.8 1 .2Z"/><path id="US-MD" d="m425.5 190.7.6 13.8h5.6l.5 1-3.3 3.7-2 .2-.7.7-4.3-5.1-.4-8.1-1.4 3.8v9.3c.1 0-4.9-3.2-4.9-3.2l-.5-1.5-1.4.5-1.1-.6 1-2.4 1.4-1 .2-.9 1.1-1-1.1-1.1-.7.5-1.6-1.2-1.8-.7.6-1.2-1.1-.8-1.2-.4-.7-1.4-1-1.6-2.6-.9-1.6.8-.9.8-2.5-.4-1.1 1.1-1.7.4-1.5 1.3-1.3 1v-5.5h31.2Z"/><path id="US-ME" d="M469 152.9h-.9c0 .1-.4-1.5-.4-1.5l-1.6-1.7.3-1.1-1.1-21.5 3.5-2.1 3-5.5 2.6-9.5 6.4-9.3 2.8 3.3 5.7-2.1 3.8 3.6v16.7l5.5 6.8v5.1c.1 0-8.1 3.8-8.1 3.8l-8.2 2.8-9.6 7-3.7 5.4Z"/><path id="US-MI" d="m351.5 111.9 2.8.4-1.1 1.2 4.2 4.9-7.5 1.1h-.3l-6.7-1.3-6.6 2.4-5.7 1.1-5 7.7h-.2l-1.1-1.4.6-1.9H323c0-.1.4-2.1.4-2.1l.5-1-.7-1.7-2-.8-.5-2-1.7-.2h-2.4l-4.9-2.2-7.4-2.2-.7-2.2-1.3-.4-.5.2 6.5-3.1 6.8-4 7.5-4.1-2.7 6.5 4.8 1.6 6 4.7 7.5-2.7 8.3-1.1 1.8 3.4 2.6.5.5-1.2Zm18.1 42.1-.2.2-4 6.3-1.9 4-2.9 4.4h-11.3v-.8h-17.1l1.7-1.6 3.4-5.5.2-7.6-2.8-7.2.4-5 2.2-5.8 2.1-4 3.4-2.9.8 4 1.5-5.9 1.9-1.2 1.2-4.6 7.2 2.4 6.3 4.7.7 5.4-.8 5.4-4.7 4.7.4 2.9h1.7l5.2-5 3.1 1.2 1.5 6.8.4 4.7.2-.2Z"/><path id="US-MN" d="m308.7 93.6-8.6 4.2-6 5-5.7 5.2v1.8l-2.3.7v6.9h-.2l-2.1 1.3-1.8 1.2-1.2 2.2 1.8 2.3-.6 3v3.2l-.3 2.6 2.5 2.3h1c0 .1 2.7 1.8 2.7 1.8l1 .8.6 1.3 2.1 2 2.9 1.7.3 1v2.8l.2 1.3-11.1-.2h-12.4l-11.5.2h-9.2l.1-11-1-11.4-1.5-.9-.8-1.9.5-1.6 1.9-1.3v-1.8c.1 0 .2-2.2.2-2.2l-.5-1.9-.7-2-.4-2.5v-2.8l-.4-.7-.3-3.6v-1.7l-.2-1.5-.4-2.5-1-2.6-1-2.3v-2.3c-.1 0-.3-2.5-.3-2.5l.3-1.6v-1.5l-.7-1.8V81H262v-5h2.9l1.5 7.1 2.6 2.2 5.9.8 8.6 2 8.2 3.9 6.9-1.7 10.4 3.3Z"/><path id="US-MO" d="m293.2 183.6-.7 2.7.8 3.3 1.4 2.3 1.6 1.9 1.9 1.5.8.5.7 2.1v1.8c.1 0 1.1.5 1.1.5l1.6-.7 1.6 1.7-.5 2-.8 1.6-.5 1.9 1.2 1.6 1.7 1.5h1l2.2 2.4.9.3.6 2.6-.3 1.6 1.1 2.6.9-.3 1.5 1.6-.3 1.1.2 1.7-1.3.9-1.9 1.1-.2 1-.5 1.5-.7 2.5h-5.5l.5-1 1-1.1 1-1.1-.7-1.3-9.6-.6h-18.3l-10.3-.2v-16.2l.2-11.5-2.2-1-1-2.3-.6-1 1.2-2-.2-1.6h-1.1l-2-1.4-1.1-2.4-1.3-1.4-1.4-1.7-.2-.9h24.9l9.2-.3 1.6 1.8 1.2.9Z"/><path id="US-MS" d="m320.8 240.8.6 2-1.5 13.2-1.5 16 .3 15-5.2 2.2-4.9-.2-.2-1-.3-1.6-1.1-1.1-.5-1.2.6-1.6.2-1.6h-8l-7.5-.3-.3-2.5 1-1.1.8-2.4.8-2.1 1.6-1.5.4-1.9 1.2-1-1.1-1.7.3-1.2-1.2-2.1.8-1.4-.6-.6.4-2-1-2.6.2-2.4 1.8-3.5.9-2.1 1.5-1.4 1-.6 1.1-2.7v-1.5l1.5-.8.2-.8h8.3l9.3.2Z"/><path id="US-MT" d="m186.7 119-.4 11h-14.1c0-.1-15.2 0-15.2 0h-13.2c0-.1-16.7 0-16.7 0v6l-.1.4-.9-.7-.8-1.7-.9-.3-1.2 2.4-1.9.4-4.8-.7-.2 1.2-2.8-.4-1.6 1.6-1.5-3.1-1-1.7-1.7-.3-.5-.9-.5-3.1-1.5-1.5-1-3.8-1-1.7-1-.3-.9 1.7-1.7 1.4-1.5-1.2v-3.1l.9-.8-.7-3.1.8-3.2.9-2.7h-2.5c0-.1-2.2-1.9-2.2-1.9l-2.4-3.8-1.4-1.9-2-1.2-1.6-2v-2.3l-2.2-3.3L85 81h101.2v23.2c.1 0 .6 14.9.6 14.9Z"/><path id="US-NC" d="m424.9 224.7 1.2 10.4-5.4 7.6-8.3 3.9-7.2 5.1-3 .6-9.5-9.7h-9.4v-1.3l-1.3-1.7-.9.7v-.9l-4-.5h-7.8l-4.6 1.7-.9.3h-10.5l.2-2.3 1.8-.6.6-1.1 1.2-1.2 1.7-.3 2-.5 1.9-.9.8-.9 1.6-.8v-.8l2.1-1.4.7.9 3.1-2 1.5.2 1.3-1.8 1.7-.4v-1.5l.1-1.3 14.3.4h35Z"/><path id="US-ND" d="M244.2 81v1.3c.1 0 .9 1.8.9 1.8v1.5l-.3 1.6v2.5c.1 0 .3 2.3.3 2.3l1 2.3 1 2.6.4 2.5.2 1.5v1.7l.4 3.6.3.7v2.8l.5 2.5.7 2 .5 1.9v2.2l-16.1.7h-47.2l-.4-14.8V81h58Z"/><path id="US-NE" d="m250.7 159.8.4 1.1.5 1.9v.9l1.5 2.1.5 1.9v2.6l.7.4.6 1.3.9 3.2.2 1.9-.2 2 .6 2 .2.9 1.4 1.7 1.3 1.4 1.1 2.4h-56.9v-11.1h-16.9v-22.6h46.2l2.2 1.5 3.1.9.7-.5h5l2.2 1.5 2.3 1 .4 1 .7.5 1.4.2Z"/><path id="US-NH" d="m469 152.9-1.4 2.6-1-.2-1.8.8-.9 1.1h-10.2l-.7-1.3.7-1.5.2-3 .3-.7.3-2.7.9-2.3.7-1 1-2.8.2-1.9.3-1.1 1.6-.6 1.9-1.4.3-1.5-.6-1.7 1-3.2.9-3 2.8-.4 1.1 21.5-.3 1.1 1.6 1.7.4 1.6h.9Z"/><path id="US-NJ" d="m441.4 177.1-2.9 5.4 2.1.5-1.5 7.9-6.2 8.4-.6-2.8-1.9-.6-2-2.9h-.7c0 .1-.2-2-.2-2l1.3-1.1 1.7-1 .6-.7 2-1.5 1.1-1.2-2.7-2.9-.2-1.2-.9-.3v-1.8l1-1.4-.5-1.5 1.4-1 1.5-2.5 1-.5 6.5 4.4Z"/><path id="US-NM" d="M195.3 220v51.1h-30.7v.8l1 1.6H151v4.1h-6.9V220h51.1Z"/><path id="US-NV" d="M102 165.4v63l-.4.3-.6 1.6-1.2-.4-1.6-.7h-1.8l-.6 1.3.8 1.4v2.2l.2 2 .4 2-.5 2-14.2-13.2L67.3 213l-16-14.5v-33.2h50.4Z"/><path id="US-NY" d="m446.7 156.9-1.8 7.9-.5 8.6.7 1-1.8 1.1.3 1.4 12-1.5 2.5 2.1-11.8 3.3h-5.4l.6-3.7-6.5-4.4-1.4-.8-1.4-.8-.5-1.6.2-1.2-1-1-1.8-1.8h-37v-3.1l7.3-6.8-.2-1.1-1.2-3.4 4.4-1.5 6.7.4 6.9 1 6.3-3.8-.5-4.5-1-1.8 8.8-8.1 3.8-2.2h12.9l-.2 2.3-.3 1.5.2 3.5.5 1.8-.9 2.4.8 3.1-.5 1.7.2.4h1.2l-.4 9.6Z"/><path id="US-OH" d="m385.5 180.6-1.2.6.3 1.4-.4 2.5-.9 2.9-.8 2.4v1.1c-.1 0-2.4 2.5-2.4 2.5l-1 .5-1.1.3-1-.2-1.9 1.9-.3 2-.3 1.1-.8.4v-1.2c-.1 0-1.2-.3-1.2-.3l-1.2 2.4v2.4c-.1 0-1.2 1.5-1.2 1.5l-2.1.3-1.6-1-.7-1.5-1.6.2-1.8.6-1.5-.6-2 .3-1.3-.9-1.8-.8-2.3-2.4-1.5-1-2.9-.3v-7.6l.1-10.8v-10.1h11.4l5.2 2.2 4.2.6 6.1-1.5 5-3.1 4.4-1.5v15Z"/><path id="US-OK" d="m266.2 224.8 1.7 11-.2 10-.2 8.9-3.6-2-2.4-1.1-1.9.7h-3c0-.1-1.8 0-1.8 0l-1.4.8-1.4.4-1.2-.5-2.8.5-1.3-1.7-1.3 1.5-2.3-.7-2.4-1.6-2.5 1-1.1-2.4-3.9.2-2.5-.5-2.8-.7-1.3-2.1-2.2.7-1.4-.8-2-1.1v-20h-25.4v-5.2h70.9v4.8Z"/><path id="US-OR" d="m77.6 118.5 2 2.3 1.4 1 .4 1.8-.9 1.6-1.1 3.1-1.2 3.8-1.8 2.4-1.2 2.7v1.9l1.6.8.7 1.5-.7 3.3v20.7H15.9l-2.7-6.4 2.6-12.4.6-13.3 1.5-18.2 1.8-.2h2.6l2.1 1.2 2.5.7 1.6 2.3.2 2 .6 1.7 2 .5h2.1l3.3-1.3 1.9-.4 3 .5 1.3.6 1.8-.4 1.9-1 3.8.2 3.1-1.3 1.7-1 2.2.5 3-1.3h17.5Z"/><path id="US-PA" d="m434.9 172.6-1 .5-1.5 2.5-1.4 1 .5 1.5-1 1.4v1.8l.9.3.2 1.2 2.7 2.9-1.1 1.2-2 1.5-.6.7-1.7 1-1.8-.6-.8.5-.7.9h-39.9v-25.2l6.4-3.3v3.1h37l1.8 1.8 1 1-.2 1.2.5 1.6 1.4.8 1.4.8Z"/><path id="US-RI" d="m465 171.1-6.2 2 .5-1.6v-6.2l3.5-.1.6 3 1.3 1.3.2 1.7Z"/><path id="US-SC" d="m402.1 252.4-3.3 7.1-7.4 6.2-8.8 5-1.5-.5-.8-.4v-1.9l-.8-1.9-1.6-1.1.3-.7-.5-1.1-.6-2.3-2.7-2-1-2.4-2-1.6-.6-1.3-2.9-2.4-1-1.8-1.6-3.2-1.5-.6-2.3-1.7 1.4-1.9.9-.9.9-.3 4.6-1.8h7.8l4 .6v.9l.9-.7 1.3 1.7v1.2h9.4l9.5 9.7Z"/><path id="US-SD" d="M250.7 148.1h-1.1v2.8l1.1 1.5-.2 1.2-.4 1.8-.7 1.9 1.4 1.3v1l-1.4-.2-.7-.5-.4-1-2.3-1-2.2-1.5h-3c0 .1-2 0-2 0l-.7.5-3.1-.9-2.2-1.5h-46.2l-.2-23.9.4-11H203l17.3-.1H234l16.1-.6v1.8c-.1 0-2 1.3-2 1.3l-.5 1.6.8 1.9 1.5.9 1 11.4v10.9Z"/><path id="US-TN" d="m358.8 224.2 12.6.4 4.3-.2-.2 1.3v1.5l-1.6.4-1.3 1.8-1.5-.2-3.1 2-.7-.9-2.1 1.4v.8l-1.6.8-.8.9-1.9.9-2 .5-1.7.3-1.2 1.2-.6 1.1-1.8.6-.2 2.2h-4.5c0 .1-6.5 0-6.5 0h-10.9c0-.1-10.6-.1-10.6-.1l-9.3-.2h-8.3l1-1v-3l1.2-1.4.3-1.7 1.5-1 .9-1.5v-.9l.7-2.5.5-1.5.2-1h12.1v-1.6h1.7l.3.5 5.3-.3h4.6l5 .1 4.9.3h2.4c0-.1 7.5.3 7.5.3l5.7-.3Z"/><path id="US-TX" d="m267.4 254.7.4.7h1.6c0-.1 2 0 2 0l-.5 5.7.5 10.7 1.4 1.1.5 1.5.7 2.3 1 2.2.7 1.3-.8 3.6-.5 1.1-.7 2.3.6.6v1.9L273 291l-.9 1.4.7 1.3-7.2 2-7.7 7.1-8.4 4.1-4.6 4.5-1.9 4.3v6.5l.3 4.5 1.6 3.2-3.3.3-6-2.1-6.6-2.9-2.4-4.4-1.9-6.6-5-5.4-2.9-5.6-4.2-6.6-6-3.9-6.9.2-5.3 7.6-7-2.9-4.4-2.9-2.1-5.3-2.8-5.1-5-4.3-4.3-3.1-3.1-3.5-.9-1.6v-.8h30.6v-45.9h25.4v20l2 1.1 1.4.8 2.2-.7 1.3 2.1 2.8.7 2.5.5 3.9-.2 1.1 2.4 2.5-1 2.4 1.6 2.3.7 1.3-1.5 1.3 1.7 2.8-.5 1.2.5 1.4-.4 1.4-.8h4.8l1.9-.7 2.4 1.1 3.6 2Z"/><path id="US-UT" d="M144.1 176.6V220h-28.5l-13.6.1v-54.6h25.2v11l16.9.3Z"/><path id="US-VA" d="m422.4 218.2 2.4 6.5h-9.1l-9 .1h-16.9l-14.3-.5-4.3.2-12.6-.4 2.4-.6 1.7-.6.8-1 2.3-1.3.9-1.1.2-.9 2.6-1.2 3.4-3.2.4 1.8 1 1 1.3.9 2.7-1.3 1 .7 3.2-.9.2-1 1 .4 1-.8 1.2.2 1.3-.8.2-1v-1.2c-.1 0 1-1.8 1-1.8l1.6-1.4.4-1.6 1.5-1.9.8-2.3 1.1.8 1.3.8 1.2-.4.4-1 .8-1.3.9-1.5.6.4 1.3-1.4 1.7-1.4 1-1.1.7-2.9 4.3 3 1-2 1.2.4 1.1.8-.6 1.2 1.8.7 1.6 1.2.7.9v.6l-.2.9-1.4 1-1 2.4 1.1.6 1.4-.5.5 1.5 5.3 6 1.6 5.1v.3Zm6.6-9-2 .2-.7.7-2.9 7.2.8.4z"/><path id="US-VT" d="m453.7 157.1-7-.2.4-9.5h-1.2l-.2-.5.5-1.7-.8-3.1.9-2.4-.5-1.8-.2-3.5.3-1.5.2-2.4h15.6l-1 3.2.6 1.7-.3 1.5-1.9 1.4-1.6.6-.3 1.1-.2 1.9-1 2.8-.7 1-.9 2.3-.3 2.7-.3.7-.2 3-.7 1.5.7 1.2Z"/><path id="US-WA" d="M76.6 81v16.2l.3 17.2.8 1.9v2.2H60.2l-3 1.3-2.2-.5-1.7 1-3.1 1.3-3.8-.2-1.9 1-1.8.4-1.3-.6-3-.5-1.9.4-3.3 1.3h-2.1l-2-.4-.6-1.7-.2-2-1.6-2.3-2.5-.7-2.1-1.1h-2.6l-1.8.1-2.3-10.2-1.4-12 11.8 2.3 3.7 9.8 2.1-3.3-1.4-10.3-4-10.5h50.2Z"/><path id="US-WI" d="m301.9 111.4.5-.2 1.3.4.7 2.2 7.4 2.2 4.9 2.2h2.4l1.6.2.5 2 2 .8.8 1.7-.5 1-.4 2h1.9c0 .1-.6 2-.6 2l1.1 1.4h.2c0 .1-3.3 4.4-3.3 4.4l1.1 1.4 6.2-7.7h1.3l-4.4 9.1-1.9 8.2-1.6 6.6 1.1 5.6-.2 2.8h-23.9l-.8-1.7-2.8-1.1-.5-1.8-.3-1v-2.4l.7-.9-1.1-1.8v-.6c-.1 0-.3-1.3-.3-1.3v-2.8l-.3-1-2.9-1.7-2.1-2-.6-1.3-1-.8-2.7-1.7h-1c0-.1-2.5-2.4-2.5-2.4l.3-2.6v-3.2l.6-3-1.8-2.3 1.2-2.2 1.8-1.2 2.1-1.3h.3v-6.8l2.2-.7 8.5-2.6 5.1 4.2Z"/><path id="US-WV" d="M394.3 190.8v5.5l1.2-1 1.5-1.3 1.7-.4 1.1-1.1 2.5.4.9-.8 1.6-.8 2.6.9 1 1.6.7 1.4-.9 2-4.3-3-.7 2.9-1.1 1.1-1.7 1.4-1.3 1.4-.6-.4-.9 1.5-.8 1.3-.4 1-1.2.4-1.3-.8-1.1-.8-.8 2.3-1.4 1.9-.4 1.6-1.6 1.4-1.1 1.8v1.3c.1 0 0 1 0 1l-1.3.8-1.2-.2-1 .8-1-.4-.2 1-3.1.9-1-.7-2.7 1.3-1.3-.9-1-1-.4-1.8-1.6-.2-.9-1.3-1.2-1.4-.4-1.6-1-1.7v-3.2l2.1-.3 1.1-1.5v-2.4c.1 0 1.3-2.4 1.3-2.4l1.1.3v1.2c.1 0 .9-.4.9-.4l.3-1.1.3-2 1.9-1.9 1 .2 1.1-.3 1-.5 2.3-2.5v-1.1c.1 0 1-2.4 1-2.4l.9-2.9.4-2.5-.3-1.4 1.2-.6v10.2h8.8Z"/><path id="US-WY" d="m186.2 130 .2 23.9v22.6h-42.3l-16.9-.3v-39.8l-.3-.2.2-.4v-6h29.8c0 .1 15.2 0 15.2 0h14.1Z"/></g></svg>