<svg xmlns="http://www.w3.org/2000/svg" xmlns:amcharts="http://amcharts.com/ammap" id="Layer_1" viewBox="0 0 512 512"><g id="_x3C_defs"><amcharts:ammap bottomLatitude="18.958" leftLongitude="-171.798" projection="mercator" rightLongitude="-67.119" topLatitude="71.359"/></g><g><path id="US-AK" d="m85.2 57.7 3.5 6.6 2.1-2.8 8.1.9-.3 3.3 7.3 2.4 4.9-1.4 10.1 4.5 9.2 1.3 3.7 1.8 6.4-2.3 7.3 4.2 5.2 1.9V186l4.7.3 4.7 2.7 3.3 4.2 4.3 6.2 4.7-5.2 4.8-3.1 2.5 4.9 3.2 3.8 4.4 4.1 3 6.5 4.9 10.1 8.2 5.5v5.3c.1 0-2.5 4-2.5 4l-2.6-3.1-4.2-2.7-1.4-7.5-6.2-7.1-2.6-8.4-4.6-.6-7.6-.2-5.6-2.6-9.9-9.7-4.6-1.8-8.4-3.4-6.6.8-9.4-4.4-5.7-4.2-5.3 2.1 1 6.7-2.7.6-5.5 2-4.2 3.2-5.3 2-.7-5.5 2.2-9.5 5.1-3-1.3-2.5-6.1 5.5-3.3 6.5-6.9 6.8 3.5 4.5-4.5 6.6-5.2 3.8-4.8 2.7-1.2 3.9-7.5 4.5-1.5 4-5.6 3.6-3.3-.7-4.5 2.4-4.9 2.9-4 2.8-8.2 2.4-.8-1.4 5.2-3.9 4.7-2.6 5.1-4.6 6-1 2.4-3.5 6.6-5.2 1.1-1.8 3.5-3.1.8-6.8 2.4-5.4-5.5 2.8-1.5-1.6-2.6 3.3-3.1-4.7-1.3 3.3-1.8-4.6-4.8 3.7h-2.9l-.4-5.5.9-3.5-3.1-3.4-6.2 1.8-4-4.5-3.3-2.3v-5.6l-3.7-4.2 1.9-5.8 3.9-5.8 1.7-5.4 3.9-.8 3.3 1.7 3.9-5.1 3.5.9 3.7-3.3-.9-5-2.7-2 3.6-4.3h-2.9c0 .1-5.1 2.6-5.1 2.6l-1.5 2.5-3.8-2.5-6.8 1.3-7-2.7-2-4.5-6.1-6.7 6.7-4.9 10.7-5.8h3.9l-.7 6 10.1-.5-3.9-7.4-5.9-4.7-3.4-6.2-4.6-5.4-6.6-4.1 2.7-6.9 8.5-.4 6.1-6.1 1.1-6.7 4.9-6.7 4.7-1.6 9.1-6.4 4.4 1 7.4-7.9 7.3 3.1Zm-80 92.9 3 2.1 3-1.1 3.9 2.8 4.8 1.4-.4 1.2-3.6 2.2-3.7-2.3-1.8-1.9-4.2.6-1.1-.9.3-4.1ZM34.7 190l-2.9 1.5-3.1-1.8-2.9-2.6 4.7-1.7 3.8.9.5 3.7ZM95 215.6l-4.8 3.3-2.5-2.3-.7-4.1 4.4-3.2 2.6-1.4 3.2.6 2 2.8-4.2 4.2Z"/><path id="US-AL" d="m418.3 371.2 1.2 7.2 1.1 5.7.7 1.8.4 1-.8 1-.3 1.8.3 1.1v1c-.1 0-.2.9-.2.9l.3.7.2.7h-9.8l-2.7.4v.4l1 1.3-.3 1.1-.3.8-4.3-.6-.2-8.5.8-9.1.9-7.5-.3-1.1h12.2Z"/><path id="US-AR" d="M398.9 365.1v.5l-.5.8-.8.6-.2 1-.8.8v1.7l-.5.5v.5l-1 .4v.8l-.7 1.6-.6.3-.8.8-.5 1.2-1 2v1.4c-.1 0 .4 1.5.4 1.5l-.2 1.1-4.1-.2-5.2.2h-4.6l.3-3.3h-2l-.2-.4v-5c.1 0 .2-5.7.2-5.7l-1-6.2h5.8l5.3.1h5.1l5.5.4.4.7-.5.6-.5.6-.3.6h3.1Z"/><path id="US-AZ" d="M306 359.3V392h-9.5l-10.9-4-7.2-2.7.4-1.1h.6l.5-1.1-.8-.8-.2-.9-.2-1 .9-1.3.4-2.6 1.5-1.2-.9-1.1-.6-1.1-.4-1-.3-.8v-.5l.2-1.1-.2-1.1v-1.1c-.1 0 0-1.3 0-1.3l-.4-.8.3-.7h1l.9.4.7.2.3-.9.2-.2v-4.8h23.9Z"/><path id="US-CA" d="M253.4 328.4v18.8l9 8.2 8.6 7.9 8.1 7.5v.5l.4.8.4 1 .6 1.1.9 1.1-1.5 1.2-.4 2.6-.9 1.3.2 1 .2.9.8.8-.5 1.1h-.6l-6.1.6-5.5.4-.6-2.1-2-3-5.1-3.4-1.9-.2-2.1-1.8-3.8-.4-1.2-.9-.6-3.2-4.7-5.9-4-8.3.2-1.4-2.1-2-3.7-5.1-.7-5-2.6-3.4 1-5.2-.2-5.5h20.2Z"/><path id="US-CO" d="M339.5 341v18.4h-33.6v-24.6h33.6v6.3Z"/><path id="US-CT" d="M484.6 328.3v3.5l-.3.9-2.1.3-2.8.3-3.7 1.5-.2-.8 1-.6-.4-.5.3-4.9h3.7c0 .1 4.5.3 4.5.3"/><path id="US-DC" d="M459.5 348.5v-.4l-.4-.5.4-.3.6.6-.6.5Z"/><path id="US-DE" d="m467.3 342.3-.7.6v1.2c.1 0 1.1 3.3 1.1 3.3l1.3 3.1h-3.2l-.4-7.8.4-.5.4-.3 1 .3Z"/><path id="US-FL" d="m438.1 395.4.6 4 1.8 4.5 2.2 4.1v2.1l2.1 5.5.2 4.8-1 4.6-2 .9-2.4-.6-.8-2.3-1.8-1.2-2.5-4.6-2.4-3.9-.4-2.6.8-3.3-1.1-3-3.1-3.3-2.7-2.1-5.4 2.3-1.1-1.5-4.5-2.5-5.4.7.3-.8.3-1.1-1.1-1.3v-.4l2.8-.3h9.8l.7 1.5 4.8.3 7.8.8.4 1 .6-.5v-1.9l.6-.2 1 .4h1Z"/><path id="US-GA" d="m430.5 371.3-.5.5-.8 1.1 1.3 1 .8.4.9 1.8.6 1 1.7 1.4.3.7 1.1.9.6 1.4 1.5 1.1.3 1.3.3.6-.2.4.9.6.5 1.1v1.1l.4.2.8.3-2.1 4.1-.9 3.2h-1c0-.1-1-.5-1-.5l-.6.2v1.9l-.6.5-.4-1-7.8-.8-4.8-.3-.7-1.5-.2-.7-.3-.7v-.9c.1 0 .2-1 .2-1l-.3-1.1.3-1.8.8-1-.4-1-.7-1.8-1.1-5.7-1.2-7.2h12.3Z"/><path id="US-HI" d="m64.6 442.1-.6.5-.7-.2-.9-.7.3-.5.7-.4h1.1l.2.4-.2.9Zm7.8 2.7.4.8-.8.2-.5-.4h-.3l-.1.1h-.6l-.8-1.4h.7l.8-.6.6 1.2h.5Zm4.9 1.5-.7.5-2.1-.3.2-.6zm.6.6.6.6.9-.2 1.2.8v.4l-.4.4-1.4.2-.3-1h-.7c0-.1-.4-.8-.4-.8l.2-.4zm5 9.8-.4.7-1.2-.5v-1.6l-.8-1.9 1.1-1.3-.3-.8v-.5h.3l3 1.4.5.6v.6h.5l.2.4.7.6-1.2 1-1.2.3-1.1.8Z"/><path id="US-IA" d="M391.4 318.6v.4l.7 1-.4.5v1.4l.2.6.3 1 1.6.6.5 1 .3.5.6.3.2.7.8.5.5.6-.3 1.7-.9 1.4-.3.5-1.1.4-1.6.3-.4 1.1.6.5.2 1-.6 1.1-.3 1-1.2.9v1.1l-.8-.5-.9-1h-5.2c0 .1-5.5.2-5.5.2h-8.6l-.3-1.1v-1.1c.1 0 0-1.1 0-1.1l-.5-1.8-.3-.8-.3-.2v-1.5l-.3-1.1-.9-1.2v-.5l-.3-1.1-.2-.6v-.6l-.8-.7.4-1.1.2-1v-.7c.1 0-.5-.9-.5-.9v-1.6h25.6Z"/><path id="US-ID" d="M296.2 311.9h.2v16.4h-28.7v-11.7l.5-1.9-.4-.9-.9-.4v-1.1l.7-1.5 1-1.3.7-2.2.6-1.8.5-.9-.3-1-.8-.6-1.1-1.3v-1.2l-.4-1.1v-9.8c-.1 0-.2-9.2-.2-9.2h4.7l.4 7.6 1.3 1.9v1.3l.9 1.1 1.1.7.8 1.1 1.3 2.2 1.2 1h1.4l-.5 1.6-.5 1.8.4 1.8-.6.4v1.8l.9.7.9-.8.5-1 .6.2.6.9.5 2.2.8.8.3 1.8.3.5 1 .2.6 1 .8 1.7.9-.9 1.6.2v-.7c.1 0 2.8.4 2.8.4l1.1-.2.7-1.3.5.2.5.9.5.4Z"/><path id="US-IL" d="M407.9 325.1v1.7l1.3 3.4v14.6l-.5 1.7.4.5.3 1v.8l-.4.4-.3 1-1 1.3-.7 1.6-.2 1.2v.4l-.5.8.4.6-.8.4-1.1.5.2 1.3-.6.5-1.2-.6-1.3-.3-.3.6.2.9-.9-.9-.5.2-.6-1.5.2-.9-.4-1.5-.5-.2-1.3-1.3h-.5l-.9-.9-.7-.9.3-1.1.4-.9.3-1.1-.9-1-.9.4-.5-.3v-1l-.5-1.2-.4-.3-1.1-.8-.9-1.1-.8-1.3-.4-1.9.4-1.6v-1.1l1.3-.9.3-1 .6-1.1-.2-1-.6-.5.4-1.1 1.6-.3 1.1-.4.3-.5.9-1.4.3-1.7-.5-.6-.8-.5-.2-.7-.6-.3-.3-.5h13.6Z"/><path id="US-IN" d="M422.2 330.4v16.1l-.3.3.4 1.3-.2.5h-.8l-.7.5-1.1-.2v1.2c-.1 0-.8.4-.8.4l-.6 1-.7.2-1.1 1.8-1-.5-.3-.7-.8 1.2-.5.7-1-.7-1.1.6-.4.6-1.5-.9-1 .7-1.2-.5v.7l-.7-.2.2-1.2.7-1.6 1-1.3.3-1 .4-.4v-.8l-.2-1-.4-.5.5-1.7v-14.6l.4.4h1.6l1.3-.7h9.7v.5Z"/><path id="US-KS" d="M375.1 359.3h-35.5v-18.4h32.3l1.1.8h.6l.1.9-.7 1.1.4.6.6 1.3 1.3.6v12.9Z"/><path id="US-KY" d="M432.9 350.8v1.9l.6.9.2.9.7.8.5.7h.9c0 .1-1.9 1.9-1.9 1.9l-1.5.7v.5c-.1 0-.6.6-.6.6l-1.3.7-.4.6-1 .4-1.4.3-3.2.2-4.2-.3h-9.6l-3 .2-.2-.3h-1v.9h-6.9l1.1-.7.8-.5v-1.5l-.2-.9.3-.6 1.3.3 1.2.6.6-.5-.2-1.3 1.1-.5.8-.4-.4-.6.5-.8v-.4l.6.2v-.7l1.3.5 1-.7 1.5.9.4-.6 1.1-.6 1 .7.5-.7.8-1.2.3.7 1 .5 1.1-1.8.7-.2.6-1 .7-.4V349c.1 0 1.2.2 1.2.2l.7-.5h.8l.2-.5-.4-1.3.3-.3h1.6c0 .1.8.7.8.7l1.3 1.4 1 .4.7.5 1.1-.2.8.4 1-.3h.9c0-.1.4.8.4.8l.9.6Z"/><path id="US-LA" d="m391.8 382.6.3.3-.4.8.7 1.2-.2.7.6 1-.7.6-.2 1.1-.9.9-.4 1.2-.4 1.3-.6.6.2 1.4 4.2.2h4.5l-.1.9-.3.9.3.7.6.6.2.9v.5l-.5 2.3 1.5 3.3-6.6.2-4.1-1.1-2.8-1.1-3.7-.7-4.2-.2-.4-.7.5-.8.7-.7v-1.1l-.3-.4.4-1.3.3-.6.5-2-.4-.8-.6-1.3-.4-1.3-.3-.9-.8-.6-.3-6h4.6l5.2-.2 4.1.2Z"/><path id="US-MA" d="M489.4 322.7v3.4l1.5 3.4 2 .2-.5-2.3 1.4 1.4-.4 1.8-3.2 1h-2.3c0-.1-.1-1.1-.1-1.1l-.8-.7-.4-1.7h-10.2c0-.1 1-4.6 1-4.6h4c0 .1 5.8.2 5.8.2l.5-.6 1-.4h.6Z"/><path id="US-MD" d="m465.5 342.7.4 7.8h3.2l.3.6-1.9 2.1h-1.1l-.4.5-2.4-2.9-.2-4.6-.8 2.2v5.3l-2.8-1.8-.3-.9-.8.3-.6-.3.5-1.4.8-.6v-.5l.7-.5-.6-.6-.4.3-.9-.7-1-.4.4-.7-.6-.5-.7-.2-.4-.8-.6-.9-1.5-.5-.9.5-.5.5-1.4-.2-.6.6-.9.2-.8.7-.7.5v-3.1h17.7Z"/><path id="US-ME" d="M490.2 321.3h-.5l-.2-.8-.9-1 .2-.7-.6-12.2 2-1.2 1.7-3.1 1.5-5.4 3.7-5.3 1.6 1.9 3.2-1.2 2.1 2v9.5l3.1 3.8v2.9l-4.6 2.1-4.7 1.6-5.4 4-2.1 3.1Z"/><path id="US-MI" d="m423.5 298 1.6.2-.6.7 2.4 2.8-4.2.6h-.2l-3.8-.8-3.7 1.4-3.3.6-2.8 4.3h-.1l-.6-.8.4-1.1h-1.1l.2-1.2.3-.5-.4-1-1.1-.4-.3-1.1h-2.3l-2.8-1.2-4.2-1.2-.4-1.3-.8-.2-.3.1 3.7-1.8 3.9-2.3 4.2-2.3-1.5 3.7 2.7.9 3.4 2.7 4.3-1.5 4.7-.6 1 1.9 1.5.3.3-.7Zm10.3 23.9h-.1l-2.3 3.7-1.1 2.3-1.6 2.5h-6.5v-.5h-9.7l1-.9 1.9-3.1v-4.3c.1 0-1.5-4.1-1.5-4.1l.2-2.8 1.3-3.3 1.2-2.3 1.9-1.6.4 2.3.8-3.3 1.1-.7.7-2.6 4.1 1.4 3.6 2.7.4 3.1-.4 3.1-2.6 2.7.2 1.7h1l3-2.9 1.8.7.9 3.8.2 2.7h.1Z"/><path id="US-MN" d="m399.2 287.6-4.9 2.4-3.4 2.8-3.3 3v1l-1.3.4v3.9h-.1l-1.2.8-1 .7-.7 1.3 1 1.3-.4 1.7v1.8l-.2 1.5 1.4 1.3h.6l1.6 1 .5.5.3.7 1.2 1.1 1.6 1 .2.5v1.6l.1.7h-6.3c0-.1-7 0-7 0h-11.7v-6.2l-.5-6.5-.8-.5-.5-1.1.3-.9 1.1-.8v-2.3l-.3-1.1-.4-1.1-.2-1.4v-1.6l-.2-.4-.2-2.1v-.9l-.1-.8-.2-1.4-.6-1.5-.6-1.3v-1.3l-.1-1.4.2-.9v-.8l-.4-1v-.7h9.9v-2.8h1.6l.8 4 1.5 1.2 3.4.4 4.9 1.2 4.7 2.2 3.9-.9 5.9 1.9Z"/><path id="US-MO" d="m390.5 338.7-.4 1.6.4 1.9.8 1.3.9 1.1 1.1.8.4.3.4 1.2v1l.6.3.9-.4.9 1-.3 1.1-.4.9-.3 1.1.7.9.9.9h.5l1.3 1.4.5.2.4 1.5-.2.9.6 1.5.5-.2.9.9-.2.6v.9l-.7.5-1.1.6v.6c-.1 0-.4.8-.4.8l-.4 1.4h-3.1l.3-.6.5-.6.5-.6-.4-.7-5.5-.4h-16.2v-15.7l-1.3-.6-.6-1.3-.4-.6.7-1.1v-.9h-.8l-1.1-.8-.6-1.3-.7-.8-.8-1v-.5h19.2c0-.1.9.9.9.9l.7.5Z"/><path id="US-MS" d="m406.1 371.1.3 1.1-.9 7.5-.8 9.1.2 8.5-2.9 1.2h-2.8v-.6l-.2-.9-.6-.6-.3-.7.3-.9v-.9H394l-4.2-.2-.2-1.4.6-.6.4-1.3.4-1.2.9-.9.2-1.1.7-.6-.6-1 .2-.7-.7-1.2.4-.8-.3-.3.2-1.1-.6-1.5v-1.4c.1 0 1.2-2 1.2-2l.5-1.2.8-.8.6-.3.6-1.6v-.8l.9-.4v-.5h10.1Z"/><path id="US-MT" d="m330 302-.2 6.2h-33.5v3.6l-.5-.4-.5-.9-.5-.2-.7 1.3-1.1.2-2.7-.4v.7c-.1 0-1.7-.2-1.7-.2l-.9.9-.8-1.7-.6-1-1-.2-.3-.5-.3-1.8-.8-.8-.5-2.2-.6-.9-.6-.2-.5 1-.9.8-.9-.7v-1.8l.5-.4-.4-1.8.5-1.8.5-1.5h-1.4l-1.2-1.1-1.3-2.2-.8-1.1-1.1-.7-.9-1.1v-1.3l-1.3-1.9-.4-7.6h57.2v13.1l.3 8.4Z"/><path id="US-NC" d="m465.1 362 .7 5.9-3.1 4.3-4.7 2.2-4.1 2.9-1.7.3-5.4-5.5h-5.3v-.7l-.7-1-.5.4v-.5l-2.3-.3h-4.4l-2.6 1-.5.2h-6l.1-1.3 1-.4.3-.6.7-.7 1-.2 1.1-.3 1.1-.5.5-.5.9-.5v-.4l1.2-.8.4.5 1.8-1.1h.8c0 .1.7-.9.7-.9l1-.3v-1.5l8.1.3h19.9"/><path id="US-ND" d="M362.6 280.5v.7l.5 1v.8l-.2.9v1.4l.1 1.3.6 1.3.6 1.5.2 1.4v.8l.1.9.2 2.1.2.4v1.6l.3 1.4.4 1.1.3 1.1v1.3l-9.1.4H330l-.2-8.4v-13.1h32.8Z"/><path id="US-NE" d="m366.4 325.2.2.6.3 1.1v.5l.9 1.2.3 1.1v1.5l.4.2.3.8.5 1.8v1.1c.1 0 0 1.1 0 1.1l.3 1.1v.5l.9 1 .7.8.6 1.3h-32.3v-6.3h-9.6v-12.8H356l1.2.8 1.8.5.4-.3h2.8l1.2.8 1.3.5.2.5.4.3h.8Z"/><path id="US-NH" d="m490.2 321.3-.8 1.5h-.6c0-.1-1 .3-1 .3l-.5.6h-5.8l-.4-.7.4-.8v-1.7c.1 0 .3-.4.3-.4l.2-1.6.5-1.3.4-.6.6-1.6v-1.1c.1 0 .3-.7.3-.7l.9-.3 1.1-.8.2-.8-.4-1 .6-1.8.5-1.7 1.6-.2.6 12.2-.2.7.9 1 .2.9h.5Z"/><path id="US-NJ" d="m474.5 335-1.7 3.1 1.2.3-.8 4.5-3.5 4.8-.4-1.6-1.1-.3-1.1-1.6h-.4l-.1-1.1.7-.6 1-.6.3-.4 1.1-.8.6-.7-1.5-1.6v-.7l-.6-.2v-1l.6-.8-.3-.8.8-.6.8-1.4.6-.3 3.7 2.5Z"/><path id="US-NM" d="M334.9 359.4v29h-17.4v.5l.6.9h-8.3v2.3h-3.9v-32.7h29"/><path id="US-NV" d="M282 328.4v35.8l-.2.2-.3.9-.7-.2-.9-.4h-1l-.3.7.4.8v2.4l.2 1.1-.3 1.1-8.1-7.5-8.6-7.9-9-8.2v-18.8h28.7Z"/><path id="US-NY" d="m477.5 323.5-1 4.5-.3 4.9.4.5-1 .6.2.8 6.8-.8 1.4 1.2-6.7 1.9h-3.1l.3-2.1-3.7-2.5-.8-.5-.8-.4-.3-.9v-.7c.1 0-.4-.6-.4-.6l-1-1h-21v-1.7l4.1-3.9v-.6l-.7-1.9 2.5-.8 3.8.2 3.9.5 3.6-2.2-.3-2.6-.5-1 5-4.6 2.2-1.2h7.3l-.1 1.3-.2.9v2c.1 0 .4 1 .4 1l-.5 1.4.4 1.7-.3 1v.2h.8l-.2 5.4Z"/><path id="US-OH" d="m442.8 337-.7.3.2.8-.2 1.4-.5 1.6-.5 1.3v.6l-1.4 1.4-.5.3-.7.2h-.6c0-.1-1.1.9-1.1.9l-.2 1.1-.2.6-.4.2v-.7l-.7-.1-.7 1.3v1.4l-.7.8-1.2.2-.9-.6-.4-.9h-.9c0 .1-1 .4-1 .4l-.8-.4-1.1.2-.7-.5-1-.4-1.3-1.4-.8-.6h-1.6v-16.2h6.5l3 1.3 2.4.3 3.5-.8 2.8-1.8 2.5-.9v8.5Z"/><path id="US-OK" d="m375.1 362.1 1 6.2v5.7l-.2 5-2.1-1.1-1.3-.6-1.1.4h-2.7l-.8.5-.8.2-.7-.3-1.6.3-.7-1-.7.8-1.3-.4-1.3-.9-1.4.6-.6-1.4h-2.2c0 .1-1.4-.2-1.4-.2l-1.6-.4-.7-1.2-1.3.4-.8-.5-1.1-.6v-11.4h-14.4v-3h40.1v2.7Z"/><path id="US-OR" d="m268.2 301.7 1.1 1.3.8.6.3 1-.5.9-.6 1.8-.7 2.2-1 1.3-.7 1.5v1.1l.9.4.4.9-.4 1.9v11.7h-34.5l-1.5-3.6 1.5-7 .3-7.5.9-10.3h2.5l1.2.6 1.4.4.9 1.3v1.1c.1 0 .5 1 .5 1l1.1.3h1.2l1.9-.7 1.1-.2 1.7.3.8.4 1-.2 1.1-.5h2.2l1.8-.7.9-.6 1.2.3 1.7-.7h9.9Z"/><path id="US-PA" d="m470.8 332.5-.6.3-.8 1.4-.8.6.3.8-.6.8v1l.5.2v.7l1.6 1.6-.6.7-1.1.8-.3.4-1 .6-1-.3-.4.3-.4.5h-22.7v-14.3l3.6-1.9v1.7h21l1 1 .6.6v.7c-.1 0 .2.9.2.9l.8.4.8.5Z"/><path id="US-RI" d="m487.9 331.6-3.5 1.1.3-.9v-3.5h2l.4 1.7.8.7v1Z"/><path id="US-SC" d="m452.2 377.7-1.9 4-4.2 3.5-5 2.9-.8-.3-.4-.2v-1.1l-.5-1.1-.9-.6.2-.4-.3-.6-.3-1.3-1.5-1.1-.6-1.4-1.1-.9-.3-.7-1.7-1.4-.6-1-.9-1.8-.8-.4-1.3-1 .8-1.1.5-.5.5-.2 2.6-1h4.4l2.2.3v.5l.5-.4.7 1v.7h5.3l5.4 5.5Z"/><path id="US-SD" d="M366.4 318.6h-.6v1.6l.6.9v.7c-.1 0-.4 1-.4 1l-.4 1.1.8.7v.6h-.8l-.4-.3-.2-.5-1.3-.5-1.2-.8h-2.8l-.4.3-1.8-.5-1.2-.8h-26.2v-13.6c-.1 0 .1-6.2.1-6.2H357l9.1-.4v1l-1.2.8-.3.9.5 1.1.8.5.6 6.5v6.2Z"/><path id="US-TN" d="m427.7 361.7 7.1.2h2.4c0-.1-.1.6-.1.6v.8l-.9.3-.7 1h-.8c0-.1-1.8 1-1.8 1l-.4-.5-1.2.8v.4l-.9.5-.5.5-1.1.5-1.1.3-1 .2-.7.7-.3.6-1 .4v1.2h-6.4l-6.2-.1h-11.3c0-.1-4.7-.1-4.7-.1l.5-.5v-1.7l.7-.8.2-1 .8-.6.5-.8v-.5l.4-1.4.3-.8v-.6h7v-.9h.9l.2.3 3-.2h5.4l2.8.2h1.4l4.2.2 3.2-.2Z"/><path id="US-TX" d="m375.8 379 .2.4h2l-.3 3.2.3 6 .8.6.3.9.4 1.3.6 1.3.4.8-.5 2-.3.6-.4 1.3.4.4v1.1l-.7.7-.5.8.4.7-4.1 1.1-4.4 4-4.8 2.3-2.6 2.6-1.1 2.4v3.7l.2 2.6.9 1.8-1.9.2-3.4-1.2-3.7-1.6-1.3-2.5-1.1-3.8-2.8-3.1-1.7-3.2-2.4-3.7-3.4-2.2h-3.9c0 .1-3 4.4-3 4.4l-4-1.6-2.5-1.7-1.2-3-1.6-2.9-2.9-2.4-2.5-1.8-1.7-2-.5-.9v-.5h17.4v-26h14.4v11.4l1.1.6.8.5 1.3-.4.7 1.2 1.6.4 1.4.3h2.2c0-.1.6 1.3.6 1.3l1.4-.6 1.3.9 1.3.4.7-.8.7 1 1.6-.3.7.3.8-.2.8-.5h2.7l1.1-.4 1.3.6 2.1 1.1Z"/><path id="US-UT" d="M305.9 334.7v24.6h-23.8v-31h14.3v6.2l9.6.2Z"/><path id="US-VA" d="m463.7 358.3 1.4 3.7h-19.8l-8.1-.3h-2.4c0 .1-7.1 0-7.1 0l1.4-.3 1-.4.4-.6 1.3-.7.5-.6v-.5c.1 0 1.6-.7 1.6-.7l1.9-1.8.2 1 .5.5.7.5 1.5-.7.6.4 1.8-.5v-.5c.1 0 .6.2.6.2l.6-.4h.7l.8-.4v-.5c.1 0 0-.7 0-.7l.7-1 .9-.8.2-.9.8-1.1.5-1.3.6.5.7.4.7-.2.2-.6.5-.8.5-.9.3.3.7-.8.9-.8.6-.6.4-1.6 2.5 1.7.5-1.2.7.2.6.5-.4.7 1 .4.9.7.4.5v.4l-.1.5-.8.6-.5 1.4.6.3.8-.3.3.9 3 3.4.9 2.9v.2Zm3.8-5.1h-1.1l-.4.5-1.6 4.1.4.2z"/><path id="US-VT" d="M481.5 323.6h-4c0-.1.2-5.5.2-5.5h-.7v-.3l.3-1-.4-1.7.5-1.4-.3-1v-2c-.1 0 0-.9 0-.9v-1.4h8.9l-.6 1.8.4 1-.2.8-1.1.8-.9.3-.2.7v1.1c-.1 0-.7 1.6-.7 1.6l-.4.6-.5 1.3-.2 1.6v.4c-.1 0-.3 1.7-.3 1.7l-.4.8.4.7Z"/><path id="US-WA" d="M267.6 280.5v9.2l.2 9.8.4 1.1v1.2h-9.9l-1.7.7-1.2-.3-.9.6-1.8.8h-2.2l-1.1.5-1 .2-.8-.4-1.7-.3-1.1.2-1.9.7h-1.2l-1.1-.2-.4-1v-1.1c-.1 0-1-1.3-1-1.3l-1.4-.4-1.2-.6h-2.5l-1.3-5.8-.8-6.8 6.7 1.3 2.1 5.5 1.2-1.9-.8-5.8-2.3-6h28.6Z"/><path id="US-WI" d="m395.4 297.7.3-.1.8.2.4 1.3 4.2 1.2 2.8 1.2h1.4l.9.1.3 1.1 1.1.4.4 1-.3.5-.2 1.1h1.1l-.4 1.2.6.8h.1l-1.9 2.5.7.8 3.5-4.3h.7l-2.5 5.2-1.1 4.6-.9 3.7.6 3.2v1.6h-13.7l-.5-1-1.6-.6-.3-1-.2-.6v-1.4l.4-.5-.6-1v-.4l-.2-.7v-1.6l-.2-.5-1.6-1-1.2-1.1-.3-.7-.5-.5-1.6-1h-.6l-1.4-1.4v-1.5c.1 0 .2-1.8.2-1.8l.4-1.7-1-1.3.7-1.3 1-.7 1.2-.8h.2V297l1.3-.4 4.8-1.5 2.9 2.4Z"/><path id="US-WV" d="M447.8 342.7v3.1l.7-.5.8-.7.9-.2.6-.6 1.4.2.5-.5.9-.5 1.5.5.6.9.4.8-.5 1.2-2.5-1.7-.4 1.6-.6.6-.9.8-.7.8-.3-.3-.5.9-.5.8-.2.6-.7.2-.7-.4-.6-.5-.5 1.3-.8 1.1-.2.9-.9.8-.7 1v1.2l-.8.5h-.7l-.6.4-.5-.2v.5c-.1 0-1.9.5-1.9.5l-.6-.4-1.5.7-.7-.5-.5-.5-.2-1h-.9c0-.1-.5-.8-.5-.8l-.7-.8-.2-.9-.6-.9v-1.9l1.2-.2.6-.8v-1.4l.8-1.3h.6v.8l.4-.2.2-.6.2-1.1 1.1-1.1h.6c0 .1.7 0 .7 0l.5-.3 1.3-1.4v-.6l.5-1.3.5-1.6.2-1.4-.2-.8.7-.3v5.8h5Z"/><path id="US-WY" d="M329.8 308.3v13.6c.1 0 .2 12.8.2 12.8h-24l-9.6-.2V312h-.2v-3.8h33.5Z"/></g></svg>