<?xml version="1.0" encoding="UTF-8"?>
<svg id="Layer_1" xmlns="http://www.w3.org/2000/svg" xmlns:amcharts="http://amcharts.com/ammap" version="1.1" viewBox="0 0 512 512">
  <!-- Generator: Adobe Illustrator 29.1.0, SVG Export Plug-In . SVG Version: 2.1.0 Build 142)  -->
  <g id="_x3C_defs">
    <amcharts:ammap bottomLatitude="18.957602" leftLongitude="-171.797738" projection="mercator" rightLongitude="-67.118615" topLatitude="71.358823"/>
  </g>
  <g>
    <path id="US-AK" d="M85.2,57.7l3.5,6.6,2.1-2.8,8.1.9-.3,3.3,7.3,2.4,4.9-1.4,10.1,4.5,9.2,1.3,3.7,1.8,6.4-2.3,7.3,4.2,5.2,1.9h0v47.3s0,60.6,0,60.6l4.7.3,4.7,2.7,3.3,4.2,4.3,6.2,4.7-5.2,4.8-3.1,2.5,4.9,3.2,3.8,4.4,4.1,3,6.5,4.9,10.1,8.2,5.5v5.3c.1,0-2.5,4-2.5,4l-2.6-3.1-4.2-2.7-1.4-7.5-6.2-7.1-2.6-8.4-4.6-.6-7.6-.2-5.6-2.6-9.9-9.7-4.6-1.8-8.4-3.4-6.6.8-9.4-4.4-5.7-4.2-5.3,2.1,1,6.7-2.7.6-5.5,2-4.2,3.2-5.3,2-.7-5.5,2.2-9.5,5.1-3-1.3-2.5-6.1,5.5-3.3,6.5-6.9,6.8,3.5,4.5-4.5,6.6-5.2,3.8-4.8,2.7-1.2,3.9-7.5,4.5-1.5,4-5.6,3.6-3.3-.7-4.5,2.4-4.9,2.9-4,2.8-8.2,2.4-.8-1.4,5.2-3.9,4.7-2.6,5.1-4.6,6-1,2.4-3.5,6.6-5.2,1.1-1.8,3.5-3.1.8-6.8,2.4-5.4-5.5,2.8-1.5-1.6-2.6,3.3-3.1-4.7-1.3,3.3-1.8-4.6-4.8,3.7h-2.9s-.4-5.5-.4-5.5l.9-3.5-3.1-3.4-6.2,1.8-4-4.5-3.3-2.3v-5.6s-3.7-4.2-3.7-4.2l1.9-5.8,3.9-5.8,1.7-5.4,3.9-.8,3.3,1.7,3.9-5.1,3.5.9,3.7-3.3-.9-5-2.7-2,3.6-4.3h-2.9c0,.1-5.1,2.6-5.1,2.6l-1.5,2.5-3.8-2.5-6.8,1.3-7-2.7-2-4.5-6.1-6.7,6.7-4.9,10.7-5.8h3.9l-.7,6,10.1-.5-3.9-7.4-5.9-4.7-3.4-6.2-4.6-5.4-6.6-4.1,2.7-6.9,8.5-.4,6.1-6.1,1.1-6.7,4.9-6.7,4.7-1.6,9.1-6.4,4.4,1,7.4-7.9,7.3,3.1ZM5.2,150.6l3,2.1,3-1.1,3.9,2.8,4.8,1.4-.4,1.2-3.6,2.2-3.7-2.3-1.8-1.9-4.2.6-1.1-.9.3-4.1ZM34.7,190l-2.9,1.5-3.1-1.8-2.9-2.6,4.7-1.7,3.8.9.5,3.7ZM95,215.6l-4.8,3.3-2.5-2.3-.7-4.1,4.4-3.2,2.6-1.4,3.2.6,2,2.8-4.2,4.2Z"/>
    <path id="US-AL" d="M418.3,371.2l1.2,7.2,1.1,5.7.7,1.8.4,1-.8,1-.3,1.8.3,1.1v1c-.1,0-.2.9-.2.9l.3.7.2.7h-9.8s-2.7.4-2.7.4v.4c0,0,1,1.3,1,1.3l-.3,1.1-.3.8-4.3-.6-.2-8.5.8-9.1.9-7.5-.3-1.1h12.2Z"/>
    <path id="US-AR" d="M398.9,365.1v.5c0,0-.5.8-.5.8l-.8.6-.2,1-.8.8v1.7c0,0-.5.5-.5.5v.5c0,0-1,.4-1,.4v.8s-.7,1.6-.7,1.6l-.6.3-.8.8-.5,1.2-1,2v1.4c-.1,0,.4,1.5.4,1.5l-.2,1.1-4.1-.2-5.2.2h-4.6s.3-3.3.3-3.3h-1.1s-.9,0-.9,0l-.2-.4v-5c.1,0,.2-5.7.2-5.7l-1-6.2h5.8c0,0,5.3.1,5.3.1h5.1s5.5.4,5.5.4l.4.7-.5.6-.5.6-.3.6h3.1Z"/>
    <path id="US-AZ" d="M306,359.3v32.7s-9.5,0-9.5,0l-10.9-4-7.2-2.7.4-1.1h.6s.5-1.1.5-1.1l-.8-.8-.2-.9-.2-1,.9-1.3.4-2.6,1.5-1.2-.9-1.1-.6-1.1-.4-1-.3-.8v-.5c0,0,.2-1.1.2-1.1l-.2-1.1v-1.1c-.1,0,0-1.3,0-1.3l-.4-.8.3-.7h1l.9.4.7.2.3-.9.2-.2v-4.8s7.7,0,7.7,0h9.2s7,0,7,0Z"/>
    <path id="US-CA" d="M253.4,328.4v18.8s9,8.2,9,8.2l8.6,7.9,8.1,7.5v.5c0,0,.4.8.4.8l.4,1,.6,1.1.9,1.1-1.5,1.2-.4,2.6-.9,1.3.2,1,.2.9.8.8-.5,1.1h-.6s-6.1.6-6.1.6l-5.5.4-.6-2.1-2-3-5.1-3.4-1.9-.2-2.1-1.8-3.8-.4-1.2-.9-.6-3.2-4.7-5.9-4-8.3.2-1.4-2.1-2-3.7-5.1-.7-5-2.6-3.4,1-5.2-.2-5.5h20.2Z"/>
    <path id="US-CO" d="M339.5,341v9.5c0,0,0,8.9,0,8.9h-4.6s-5.7,0-5.7,0h-8.2s-7.6,0-7.6,0h-7.5v-24.6s4.8,0,4.8,0h14.4s4.8,0,4.8,0h9.6v6.1s0,.2,0,.2Z"/>
    <path id="US-CT" d="M484.6,328.3v3.5s-.3.9-.3.9l-2.1.3-2.8.3-3.7,1.5-.2-.8,1-.6-.4-.5.3-4.9h3.7c0,.1,4.5.3,4.5.3Z"/>
    <path id="US-DC" d="M459.5,348.5v-.4s-.4-.5-.4-.5l.4-.3.6.6-.6.5Z"/>
    <path id="US-DE" d="M467.3,342.3l-.7.6v1.2c.1,0,1.1,3.3,1.1,3.3l1.3,3.1h-3.2l-.4-7.8.4-.5.4-.3,1,.3Z"/>
    <path id="US-FL" d="M438.1,395.4l.6,4,1.8,4.5,2.2,4.1v2.1l2.1,5.5.2,4.8-1,4.6-2,.9-2.4-.6-.8-2.3-1.8-1.2-2.5-4.6-2.4-3.9-.4-2.6.8-3.3-1.1-3-3.1-3.3-2.7-2.1-5.4,2.3-1.1-1.5-4.5-2.5-5.4.7.3-.8.3-1.1-1.1-1.3v-.4c0,0,2.8-.3,2.8-.3h9.8s.7,1.5.7,1.5l4.8.3,7.8.8.4,1,.6-.5v-1.9s.6-.2.6-.2l1,.4h1Z"/>
    <path id="US-GA" d="M430.5,371.3l-.5.5-.8,1.1,1.3,1,.8.4.9,1.8.6,1,1.7,1.4.3.7,1.1.9.6,1.4,1.5,1.1.3,1.3.3.6-.2.4.9.6.5,1.1v1.1s.4.2.4.2l.8.3-2.1,4.1-.9,3.2h-1c0-.1-1-.5-1-.5l-.6.2v1.9s-.6.5-.6.5l-.4-1-7.8-.8-4.8-.3-.7-1.5-.2-.7-.3-.7v-.9c.1,0,.2-1,.2-1l-.3-1.1.3-1.8.8-1-.4-1-.7-1.8-1.1-5.7-1.2-7.2h3.7c0,0,2.6,0,2.6,0h6Z"/>
    <path id="US-HI" d="M64.6,442.1l-.6.5-.7-.2-.9-.7.3-.5.7-.4h1.1s.2.4.2.4l-.2.9ZM72.4,444.8l.4.8-.8.2-.5-.4h-.3c0,0-.1.1-.1.1h-.6s-.8-1.4-.8-1.4h.7c0,0,.8-.6.8-.6l.6,1.2h.5ZM77.3,446.3l-.7.5-2.1-.3.2-.6,2.6.4ZM77.9,446.9l.6.6.9-.2,1.2.8v.4s-.4.4-.4.4l-1.4.2-.3-1h-.7c0-.1-.4-.8-.4-.8l.2-.4h.3ZM82.9,456.7l-.4.7-1.2-.5v-1.6s-.8-1.9-.8-1.9l1.1-1.3-.3-.8v-.5c0,0,.3,0,.3,0l3,1.4.5.6v.6c0,0,.5,0,.5,0l.2.4.7.6-1.2,1-1.2.3-1.1.8Z"/>
    <path id="US-IA" d="M391.4,318.6v.4c0,0,.7,1,.7,1l-.4.5v1.4s.2.6.2.6l.3,1,1.6.6.5,1,.3.5.6.3.2.7.8.5.5.6-.3,1.7-.9,1.4-.3.5-1.1.4-1.6.3-.4,1.1.6.5.2,1-.6,1.1-.3,1-1.2.9v1.1c0,0-.8-.5-.8-.5l-.9-1h-5.2c0,.1-5.5.2-5.5.2h-4.3s-4.3,0-4.3,0l-.3-1.1v-1.1c.1,0,0-1.1,0-1.1l-.5-1.8-.3-.8-.3-.2v-1.5s-.3-1.1-.3-1.1l-.9-1.2v-.5s-.3-1.1-.3-1.1l-.2-.6v-.6s-.8-.7-.8-.7l.4-1.1.2-1v-.7c.1,0-.5-.9-.5-.9v-1.6s.6,0,.6,0h5.2s6.5,0,6.5,0h7s6.3,0,6.3,0Z"/>
    <path id="US-ID" d="M296.2,311.9h.2c0,.1,0,16.4,0,16.4h-14.3c0,0-14.4,0-14.4,0v-11.7c0,0,.5-1.9.5-1.9l-.4-.9-.9-.4v-1.1s.7-1.5.7-1.5l1-1.3.7-2.2.6-1.8.5-.9-.3-1-.8-.6-1.1-1.3v-1.2s-.4-1.1-.4-1.1v-9.8c-.1,0-.2-9.2-.2-9.2h4.7s.4,7.6.4,7.6l1.3,1.9v1.3s.9,1.1.9,1.1l1.1.7.8,1.1,1.3,2.2,1.2,1h1.4c0,0-.5,1.6-.5,1.6l-.5,1.8.4,1.8-.6.4v1.8c0,0,.9.7.9.7l.9-.8.5-1,.6.2.6.9.5,2.2.8.8.3,1.8.3.5,1,.2.6,1,.8,1.7.9-.9,1.6.2v-.7c.1,0,2.8.4,2.8.4l1.1-.2.7-1.3.5.2.5.9.5.4Z"/>
    <path id="US-IL" d="M407.9,325.1h0s0,1.7,0,1.7l1.3,3.4h0v7.4s0,7.2,0,7.2l-.5,1.7.4.5.3,1v.8s-.4.4-.4.4l-.3,1-1,1.3-.7,1.6-.2,1.2v.4s-.5.8-.5.8l.4.6-.8.4-1.1.5.2,1.3-.6.5-1.2-.6-1.3-.3-.3.6.2.9-.9-.9-.5.2-.6-1.5.2-.9-.4-1.5-.5-.2-1.3-1.3h-.5s-.9-.9-.9-.9l-.7-.9.3-1.1.4-.9.3-1.1-.9-1-.9.4-.5-.3v-1c0,0-.5-1.2-.5-1.2l-.4-.3-1.1-.8-.9-1.1-.8-1.3-.4-1.9.4-1.6v-1.1c0,0,1.3-.9,1.3-.9l.3-1,.6-1.1-.2-1-.6-.5.4-1.1,1.6-.3,1.1-.4.3-.5.9-1.4.3-1.7-.5-.6-.8-.5-.2-.7-.6-.3-.3-.5h9.9s3.7,0,3.7,0h0s0,0,0,0Z"/>
    <path id="US-IN" d="M422.2,330.4v5.7s0,6.1,0,6.1v4.3s-.3.3-.3.3l.4,1.3-.2.5h-.8s-.7.5-.7.5l-1.1-.2v1.2c-.1,0-.8.4-.8.4l-.6,1-.7.2-1.1,1.8-1-.5-.3-.7-.8,1.2-.5.7-1-.7-1.1.6-.4.6-1.5-.9-1,.7-1.2-.5v.7s-.7-.2-.7-.2l.2-1.2.7-1.6,1-1.3.3-1,.4-.4v-.8s-.2-1-.2-1l-.4-.5.5-1.7v-7.2s0-7.4,0-7.4h0l.4.4h1.6s1.3-.7,1.3-.7h5.2s4.5,0,4.5,0v.5Z"/>
    <path id="US-KS" d="M375.1,359.3h-4.2s-8.6,0-8.6,0h-8.6s-4.8,0-4.8,0h-4.8s-4.5,0-4.5,0v-8.9s0-9.5,0-9.5h32.3l1.1.8h.6s.1.9.1.9l-.7,1.1.4.6.6,1.3,1.3.6v6.5c0,0,0,6.4,0,6.4Z"/>
    <path id="US-KY" d="M432.9,350.8v.6c0,0,0,1.3,0,1.3l.6.9.2.9.7.8.5.7h.9c0,.1-1.9,1.9-1.9,1.9l-1.5.7v.5c-.1,0-.6.6-.6.6l-1.3.7-.4.6-1,.4-1.4.3-3.2.2-4.2-.3h-1.4c0,0-2.8,0-2.8,0h-2.8c0,0-2.6,0-2.6,0l-3,.2-.2-.3h-1s0,.9,0,.9h-6.9c0,0,1.1-.7,1.1-.7l.8-.5v-.9c0,0,0-.6,0-.6l-.2-.9.3-.6,1.3.3,1.2.6.6-.5-.2-1.3,1.1-.5.8-.4-.4-.6.5-.8v-.4s.6.2.6.2v-.7s1.3.5,1.3.5l1-.7,1.5.9.4-.6,1.1-.6,1,.7.5-.7.8-1.2.3.7,1,.5,1.1-1.8.7-.2.6-1,.7-.4v-1.2c.1,0,1.2.2,1.2.2l.7-.5h.8s.2-.5.2-.5l-.4-1.3.3-.3h1.6c0,.1.8.7.8.7l1.3,1.4,1,.4.7.5,1.1-.2.8.4,1-.3h.9c0-.1.4.8.4.8l.9.6Z"/>
    <path id="US-LA" d="M391.8,382.6l.3.3-.4.8.7,1.2-.2.7.6,1-.7.6-.2,1.1-.9.9-.4,1.2-.4,1.3-.6.6.2,1.4,4.2.2h4.5s-.1.9-.1.9l-.3.9.3.7.6.6.2.9v.5c0,0-.5,2.3-.5,2.3l1.5,3.3-6.6.2-4.1-1.1-2.8-1.1-3.7-.7-4.2-.2-.4-.7.5-.8.7-.7v-1.1s-.3-.4-.3-.4l.4-1.3.3-.6.5-2-.4-.8-.6-1.3-.4-1.3-.3-.9-.8-.6-.3-6h4.6s5.2-.2,5.2-.2l4.1.2Z"/>
    <path id="US-MA" d="M489.4,322.7v3.4s1.5,3.4,1.5,3.4l2,.2-.5-2.3,1.4,1.4-.4,1.8-3.2,1h-2.3c0-.1-.1-1.1-.1-1.1l-.8-.7-.4-1.7h-2c0,0-4.5,0-4.5,0h-3.7c0-.1,1-4.6,1-4.6h4c0,.1,5.8.2,5.8.2l.5-.6,1-.4h.6Z"/>
    <path id="US-MD" d="M465.5,342.7l.4,7.8h3.2l.3.6-1.9,2.1h-1.1c0,0-.4.5-.4.5l-2.4-2.9-.2-4.6-.8,2.2v5.3c0,0-2.8-1.8-2.8-1.8l-.3-.9-.8.3-.6-.3.5-1.4.8-.6v-.5c0,0,.7-.5.7-.5l-.6-.6-.4.3-.9-.7-1-.4.4-.7-.6-.5-.7-.2-.4-.8-.6-.9-1.5-.5-.9.5-.5.5-1.4-.2-.6.6-.9.2-.8.7-.7.5v-3.1s4.5,0,4.5,0h1.5s3.4,0,3.4,0h4.1s4.2,0,4.2,0Z"/>
    <path id="US-ME" d="M490.2,321.3h-.5c0,0-.2-.8-.2-.8l-.9-1,.2-.7-.6-12.2,2-1.2,1.7-3.1,1.5-5.4,3.7-5.3,1.6,1.9,3.2-1.2,2.1,2v9.5s3.1,3.8,3.1,3.8v2.9c0,0-4.6,2.1-4.6,2.1l-4.7,1.6-5.4,4-2.1,3.1Z"/>
    <path id="US-MI" d="M423.5,298h0l1.6.2h0l-.6.7,2.4,2.8-4.2.6h-.2s-3.8-.8-3.8-.8l-3.7,1.4-3.3.6-2.8,4.3h-.1s0,0,0,0l-.6-.8.4-1.1h-1.1c0,0,.2-1.2.2-1.2l.3-.5-.4-1-1.1-.4-.3-1.1h-.9c0,0-1.4,0-1.4,0l-2.8-1.2-4.2-1.2-.4-1.3-.8-.2h0s-.3.1-.3.1h0s0,0,0,0l3.7-1.8,3.9-2.3,4.2-2.3-1.5,3.7,2.7.9,3.4,2.7,4.3-1.5,4.7-.6,1,1.9,1.5.3.3-.7ZM433.8,321.9h-.1c0,0-2.3,3.7-2.3,3.7l-1.1,2.3h0l-1.6,2.5h-1.8c0,0-2.2,0-2.2,0h-2.5s0-.5,0-.5h-4.5s-5.2,0-5.2,0h0l1-.9,1.9-3.1v-4.3c.1,0-1.5-4.1-1.5-4.1l.2-2.8,1.3-3.3,1.2-2.3,1.9-1.6.4,2.3.8-3.3,1.1-.7.7-2.6,4.1,1.4,3.6,2.7.4,3.1-.4,3.1-2.6,2.7.2,1.7h1c0,0,3-2.9,3-2.9l1.8.7.9,3.8.2,2.7h.1Z"/>
    <path id="US-MN" d="M399.2,287.6h0s-4.9,2.4-4.9,2.4l-3.4,2.8-3.3,3v1s-1.3.4-1.3.4v3.9c0,0-.1,0-.1,0l-1.2.8-1,.7-.7,1.3,1,1.3-.4,1.7v1.8s-.2,1.5-.2,1.5l1.4,1.3h.6c0,0,1.6,1,1.6,1l.5.5.3.7,1.2,1.1,1.6,1,.2.5v1.6s.1.7.1.7h-6.3c0-.1-7,0-7,0h-6.5c0,0-5.2,0-5.2,0v-6.2c0,0-.5-6.5-.5-6.5l-.8-.5-.5-1.1.3-.9,1.1-.8v-1c0,0,0-1.3,0-1.3l-.3-1.1-.4-1.1-.2-1.4v-1.6c0,0-.2-.4-.2-.4l-.2-2.1v-.9s-.1-.8-.1-.8l-.2-1.4-.6-1.5-.6-1.3v-1.3c0,0-.1-1.4-.1-1.4l.2-.9v-.8s-.4-1-.4-1v-.7c0,0,9.9,0,9.9,0v-2.8s1.6,0,1.6,0l.8,4,1.5,1.2,3.4.4,4.9,1.2,4.7,2.2,3.9-.9,5.9,1.9Z"/>
    <path id="US-MO" d="M390.5,338.7l-.4,1.6.4,1.9.8,1.3.9,1.1,1.1.8.4.3.4,1.2v1c0,0,.6.3.6.3l.9-.4.9,1-.3,1.1-.4.9-.3,1.1.7.9.9.9h.5s1.3,1.4,1.3,1.4l.5.2.4,1.5-.2.9.6,1.5.5-.2.9.9-.2.6v.9c0,0-.7.5-.7.5l-1.1.6v.6c-.1,0-.4.8-.4.8l-.4,1.4h-3.1l.3-.6.5-.6.5-.6-.4-.7-5.5-.4h-5.1s-5.3,0-5.3,0h-5.8c0,0,0-2.8,0-2.8h0v-6.4s0-6.5,0-6.5l-1.3-.6-.6-1.3-.4-.6.7-1.1v-.9c-.1,0-.8,0-.8,0l-1.1-.8-.6-1.3-.7-.8-.8-1v-.5c0,0,4.2,0,4.2,0h4.3s5.5,0,5.5,0h5.2c0-.1.9.9.9.9l.7.5Z"/>
    <path id="US-MS" d="M406.1,371.1l.3,1.1-.9,7.5-.8,9.1.2,8.5-2.9,1.2h-2.8c0,0,0-.6,0-.6l-.2-.9-.6-.6-.3-.7.3-.9v-.9c.1,0-4.4,0-4.4,0l-4.2-.2-.2-1.4.6-.6.4-1.3.4-1.2.9-.9.2-1.1.7-.6-.6-1,.2-.7-.7-1.2.4-.8-.3-.3.2-1.1-.6-1.5v-1.4c.1,0,1.2-2,1.2-2l.5-1.2.8-.8.6-.3.6-1.6v-.8s.9-.4.9-.4v-.5h10.1Z"/>
    <path id="US-MT" d="M330,302l-.2,6.2h-8c0,0-8.6,0-8.6,0h-7.5c0,0-9.4,0-9.4,0v3.4s0,.2,0,.2l-.5-.4-.5-.9-.5-.2-.7,1.3-1.1.2-2.7-.4v.7c-.1,0-1.7-.2-1.7-.2l-.9.9-.8-1.7-.6-1-1-.2-.3-.5-.3-1.8-.8-.8-.5-2.2-.6-.9-.6-.2-.5,1-.9.8-.9-.7v-1.8c0,0,.5-.4.5-.4l-.4-1.8.5-1.8.5-1.5h-1.4c0,0-1.2-1.1-1.2-1.1l-1.3-2.2-.8-1.1-1.1-.7-.9-1.1v-1.3s-1.3-1.9-1.3-1.9l-.4-7.6h14.3s14.3,0,14.3,0h14.3s14.3,0,14.3,0v13.1c0,0,.3,8.4.3,8.4Z"/>
    <path id="US-NC" d="M465.1,362l.7,5.9-3.1,4.3-4.7,2.2-4.1,2.9-1.7.3-5.4-5.5h-5.3c0,0,0-.7,0-.7l-.7-1-.5.4v-.5s-2.3-.3-2.3-.3h-4.4s-2.6,1-2.6,1l-.5.2h-6s.1-1.3.1-1.3l1-.4.3-.6.7-.7,1-.2,1.1-.3,1.1-.5.5-.5.9-.5v-.4s1.2-.8,1.2-.8l.4.5,1.8-1.1h.8c0,.1.7-.9.7-.9l1-.3v-.8c0,0,0-.7,0-.7l8.1.3h9.6s5.1,0,5.1,0h5.2Z"/>
    <path id="US-ND" d="M362.6,280.5v.7c0,0,.5,1,.5,1v.8s-.2.9-.2.9v1.4c0,0,.1,1.3.1,1.3l.6,1.3.6,1.5.2,1.4v.8c0,0,.1.9.1.9l.2,2.1.2.4v1.6c0,0,.3,1.4.3,1.4l.4,1.1.3,1.1v1.3s-9.1.4-9.1.4h-7.8s-9.8,0-9.8,0h-9.2s-.2-8.4-.2-8.4v-13.1c0,0,16.5,0,16.5,0h16.3Z"/>
    <path id="US-NE" d="M366.4,325.2l.2.6.3,1.1v.5s.9,1.2.9,1.2l.3,1.1v1.5s.4.2.4.2l.3.8.5,1.8v1.1c.1,0,0,1.1,0,1.1l.3,1.1v.5c0,0,.9,1,.9,1l.7.8.6,1.3h-32.3v-6.3s-9.6,0-9.6,0v-12.8s9.3,0,9.3,0h16.8l1.2.8,1.8.5.4-.3h1.1s1.7,0,1.7,0l1.2.8,1.3.5.2.5.4.3h.8Z"/>
    <path id="US-NH" d="M490.2,321.3l-.8,1.5h-.6c0-.1-1,.3-1,.3l-.5.6h-5.8c0,0-.4-.7-.4-.7l.4-.8v-1.7c.1,0,.3-.4.3-.4l.2-1.6.5-1.3.4-.6.6-1.6v-1.1c.1,0,.3-.7.3-.7l.9-.3,1.1-.8.2-.8-.4-1,.6-1.8h0s.5-1.7.5-1.7l1.6-.2.6,12.2-.2.7.9,1,.2.9h.5Z"/>
    <path id="US-NJ" d="M474.5,335l-1.7,3.1,1.2.3-.8,4.5-3.5,4.8-.4-1.6-1.1-.3-1.1-1.6h-.4c0,0-.1-1.1-.1-1.1l.7-.6,1-.6.3-.4,1.1-.8.6-.7-1.5-1.6v-.7c0,0-.6-.2-.6-.2v-1s.6-.8.6-.8l-.3-.8.8-.6.8-1.4.6-.3,3.7,2.5Z"/>
    <path id="US-NM" d="M334.9,359.4v3s0,15.3,0,15.3v10.7h-17.4v.5c0,0,.6.9.6.9h-8.3v2.3c0,0-3.9,0-3.9,0v-32.7s7.5,0,7.5,0h7.6s8.2,0,8.2,0h5.7Z"/>
    <path id="US-NV" d="M282,328.4v31s0,4.8,0,4.8l-.2.2-.3.9-.7-.2-.9-.4h-1l-.3.7.4.8v1.3s0,1.1,0,1.1l.2,1.1-.3,1.1-8.1-7.5-8.6-7.9-9-8.2v-18.8s14.3,0,14.3,0h0s14.4,0,14.4,0Z"/>
    <path id="US-NY" d="M477.5,323.5l-1,4.5-.3,4.9.4.5-1,.6.2.8,6.8-.8,1.4,1.2-6.7,1.9h-3.1s.3-2.1.3-2.1l-3.7-2.5-.8-.5-.8-.4-.3-.9v-.7c.1,0-.4-.6-.4-.6l-1-1h-6.5s-7,0-7,0h-7.5v-1.7l4.1-3.9v-.6c0,0,0,0,0,0l-.7-1.9,2.5-.8,3.8.2,3.9.5,3.6-2.2-.3-2.6-.5-1h0s0,0,0,0l5-4.6,2.2-1.2h7.3s-.1,1.3-.1,1.3l-.2.9v2c.1,0,.4,1,.4,1l-.5,1.4.4,1.7-.3,1v.2c0,0,.8,0,.8,0l-.2,5.4Z"/>
    <path id="US-OH" d="M442.8,337l-.7.3.2.8-.2,1.4-.5,1.6-.5,1.3v.6c0,0-1.4,1.4-1.4,1.4l-.5.3-.7.2h-.6c0-.1-1.1.9-1.1.9l-.2,1.1-.2.6-.4.2v-.7c0,0-.7-.1-.7-.1l-.7,1.3v1.4c0,0-.7.8-.7.8l-1.2.2-.9-.6-.4-.9h-.9c0,.1-1,.4-1,.4l-.8-.4-1.1.2-.7-.5-1-.4-1.3-1.4-.8-.6h-1.6c0-.1,0-4.4,0-4.4v-6.1s0-5.7,0-5.7h2.5c0,0,2.2,0,2.2,0h1.8c0,0,3,1.3,3,1.3l2.4.3,3.5-.8,2.8-1.8,2.5-.9v8.5Z"/>
    <path id="US-OK" d="M375.1,362.1l1,6.2v5.7c0,0-.2,5-.2,5l-2.1-1.1-1.3-.6-1.1.4h-1.7c0,0-1,0-1,0l-.8.5-.8.2-.7-.3-1.6.3-.7-1-.7.8-1.3-.4-1.3-.9-1.4.6-.6-1.4h-2.2c0,.1-1.4-.2-1.4-.2l-1.6-.4-.7-1.2-1.3.4-.8-.5-1.1-.6v-11.4h-14.4v-3s4.6,0,4.6,0h4.5s4.8,0,4.8,0h4.8s8.6,0,8.6,0h8.6s4.2,0,4.2,0h0v2.7Z"/>
    <path id="US-OR" d="M268.2,301.7l1.1,1.3.8.6.3,1-.5.9-.6,1.8-.7,2.2-1,1.3-.7,1.5v1.1s.9.4.9.4l.4.9-.4,1.9v11.7c0,0,0,0,0,0h-14.3s-20.2,0-20.2,0l-1.5-3.6,1.5-7,.3-7.5.9-10.3h1c0,0,1.5,0,1.5,0l1.2.6,1.4.4.9,1.3v1.1c.1,0,.5,1,.5,1l1.1.3h1.2s1.9-.7,1.9-.7l1.1-.2,1.7.3.8.4,1-.2,1.1-.5h2.2c0,0,1.8-.7,1.8-.7l.9-.6,1.2.3,1.7-.7h9.9Z"/>
    <path id="US-PA" d="M470.8,332.5l-.6.3-.8,1.4-.8.6.3.8-.6.8v1s.5.2.5.2v.7c0,0,1.6,1.6,1.6,1.6l-.6.7-1.1.8-.3.4-1,.6-1-.3-.4.3-.4.5h-4.2s-4.1,0-4.1,0h-3.4s-1.5,0-1.5,0h-4.5s-5,0-5,0v-14.3h0l3.6-1.9h0s0,1.7,0,1.7h21s1,1,1,1l.6.6v.7c-.1,0,.2.9.2.9l.8.4.8.5Z"/>
    <path id="US-RI" d="M487.9,331.6l-3.5,1.1.3-.9v-3.5s2,0,2,0l.4,1.7.8.7v1Z"/>
    <path id="US-SC" d="M452.2,377.7l-1.9,4-4.2,3.5-5,2.9-.8-.3-.4-.2v-1.1s-.5-1.1-.5-1.1l-.9-.6.2-.4-.3-.6-.3-1.3-1.5-1.1-.6-1.4-1.1-.9-.3-.7-1.7-1.4-.6-1-.9-1.8-.8-.4-1.3-1,.8-1.1.5-.5.5-.2,2.6-1h4.4s2.2.3,2.2.3v.5s.5-.4.5-.4l.7,1v.7s5.3,0,5.3,0l5.4,5.5Z"/>
    <path id="US-SD" d="M366.4,318.6h-.6s0,1.6,0,1.6l.6.9v.7c-.1,0-.4,1-.4,1l-.4,1.1.8.7v.6s-.8,0-.8,0l-.4-.3-.2-.5-1.3-.5-1.2-.8h-1.7c0,0-1.1,0-1.1,0l-.4.3-1.8-.5-1.2-.8h-26.2v-13.6c-.1,0,.1-6.2.1-6.2h9.2s9.8,0,9.8,0h7.8s9.1-.4,9.1-.4v1c0,0-1.2.8-1.2.8l-.3.9.5,1.1.8.5.6,6.5v6.2Z"/>
    <path id="US-TN" d="M427.7,361.7l7.1.2h2.4c0-.1-.1.6-.1.6v.8c0,0-.9.3-.9.3l-.7,1h-.8c0-.1-1.8,1-1.8,1l-.4-.5-1.2.8v.4s-.9.5-.9.5l-.5.5-1.1.5-1.1.3-1,.2-.7.7-.3.6-1,.4v1.2c-.1,0-2.7,0-2.7,0h-3.7c0,0-6.2-.1-6.2-.1h-11.3c0-.1-4.7-.1-4.7-.1l.5-.5v-1.7c0,0,.7-.8.7-.8l.2-1,.8-.6.5-.8v-.5c0,0,.4-1.4.4-1.4l.3-.8v-.6c.1,0,7,0,7,0v-.9s.9,0,.9,0l.2.3,3-.2h2.6s2.8,0,2.8,0l2.8.2h1.4c0,0,4.2.2,4.2.2l3.2-.2Z"/>
    <path id="US-TX" d="M375.8,379l.2.4h.9c0,0,1.1,0,1.1,0l-.3,3.2.3,6,.8.6.3.9.4,1.3.6,1.3.4.8-.5,2-.3.6-.4,1.3.4.4v1.1s-.7.7-.7.7l-.5.8.4.7-4.1,1.1-4.4,4-4.8,2.3-2.6,2.6-1.1,2.4v3.7s.2,2.6.2,2.6l.9,1.8-1.9.2-3.4-1.2-3.7-1.6-1.3-2.5-1.1-3.8-2.8-3.1-1.7-3.2-2.4-3.7-3.4-2.2h-3.9c0,.1-3,4.4-3,4.4l-4-1.6-2.5-1.7-1.2-3-1.6-2.9-2.9-2.4-2.5-1.8-1.7-2-.5-.9v-.5c0,0,4.3,0,4.3,0h13.1v-26h14.4v11.4l1.1.6.8.5,1.3-.4.7,1.2,1.6.4,1.4.3h2.2c0-.1.6,1.3.6,1.3l1.4-.6,1.3.9,1.3.4.7-.8.7,1,1.6-.3.7.3.8-.2.8-.5h1s1.7,0,1.7,0l1.1-.4,1.3.6,2.1,1.1Z"/>
    <path id="US-UT" d="M305.9,334.7v24.6s-6.9,0-6.9,0h-9.2s-7.7,0-7.7,0v-31s14.3,0,14.3,0v6.2s9.6.2,9.6.2Z"/>
    <path id="US-VA" d="M463.7,358.3l1.4,3.7h-5.1s-5.1,0-5.1,0h-9.6s-8.1-.3-8.1-.3h-2.4c0,.1-7.1,0-7.1,0l1.4-.3,1-.4.4-.6,1.3-.7.5-.6v-.5c.1,0,1.6-.7,1.6-.7l1.9-1.8.2,1,.5.5.7.5,1.5-.7.6.4,1.8-.5v-.5c.1,0,.6.2.6.2l.6-.4h.7c0,0,.8-.4.8-.4v-.5c.1,0,0-.7,0-.7l.7-1,.9-.8.2-.9.8-1.1.5-1.3.6.5.7.4.7-.2.2-.6.5-.8.5-.9.3.3.7-.8.9-.8.6-.6.4-1.6,2.5,1.7.5-1.2.7.2.6.5-.4.7,1,.4.9.7.4.5v.4s-.1.5-.1.5l-.8.6-.5,1.4.6.3.8-.3.3.9,3,3.4.9,2.9v.2ZM467.5,353.2h-1.1c0,0-.4.5-.4.5l-1.6,4.1.4.2,2.7-4.8Z"/>
    <path id="US-VT" d="M481.5,323.6h-4c0-.1.2-5.5.2-5.5h-.7c0,0,0-.3,0-.3l.3-1-.4-1.7.5-1.4-.3-1v-2c-.1,0,0-.9,0-.9v-1.4c.1,0,8.9,0,8.9,0h0s-.6,1.8-.6,1.8l.4,1-.2.8-1.1.8-.9.3-.2.7v1.1c-.1,0-.7,1.6-.7,1.6l-.4.6-.5,1.3-.2,1.6v.4c-.1,0-.3,1.7-.3,1.7l-.4.8.4.7Z"/>
    <path id="US-WA" d="M267.6,280.5v9.2s.2,9.8.2,9.8l.4,1.1v1.2s-9.9,0-9.9,0l-1.7.7-1.2-.3-.9.6-1.8.8h-2.2c0,0-1.1.5-1.1.5l-1,.2-.8-.4-1.7-.3-1.1.2-1.9.7h-1.2s-1.1-.2-1.1-.2l-.4-1v-1.1c-.1,0-1-1.3-1-1.3l-1.4-.4-1.2-.6h-1.5s-1,0-1,0l-1.3-5.8-.8-6.8,6.7,1.3,2.1,5.5,1.2-1.9-.8-5.8-2.3-6h14.3s14.3,0,14.3,0Z"/>
    <path id="US-WI" d="M395.4,297.7h0s.3-.1.3-.1h0s.8.2.8.2l.4,1.3,4.2,1.2,2.8,1.2h1.4s.9.1.9.1l.3,1.1,1.1.4.4,1-.3.5-.2,1.1h1.1c0,0-.4,1.2-.4,1.2l.6.8h0s.1,0,.1,0h0c0,0-1.9,2.5-1.9,2.5l.7.8,3.5-4.3h.7s-2.5,5.2-2.5,5.2l-1.1,4.6-.9,3.7.6,3.2v1.6h-.1s-3.7,0-3.7,0h-5s-4.9,0-4.9,0l-.5-1-1.6-.6-.3-1-.2-.6v-1.4s.4-.5.4-.5l-.6-1v-.4c0,0-.2-.7-.2-.7v-1.6s-.2-.5-.2-.5l-1.6-1-1.2-1.1-.3-.7-.5-.5-1.6-1h-.6c0,0-1.4-1.4-1.4-1.4v-1.5c.1,0,.2-1.8.2-1.8l.4-1.7-1-1.3.7-1.3,1-.7,1.2-.8h.2s0-3.9,0-3.9l1.3-.4h0l4.8-1.5,2.9,2.4Z"/>
    <path id="US-WV" d="M447.8,342.7v3.1s.7-.5.7-.5l.8-.7.9-.2.6-.6,1.4.2.5-.5.9-.5,1.5.5.6.9.4.8-.5,1.2-2.5-1.7-.4,1.6-.6.6-.9.8-.7.8-.3-.3-.5.9-.5.8-.2.6-.7.2-.7-.4-.6-.5-.5,1.3-.8,1.1-.2.9-.9.8-.7,1v.7c0,0,0,.5,0,.5l-.8.5h-.7c0,0-.6.4-.6.4l-.5-.2v.5c-.1,0-1.9.5-1.9.5l-.6-.4-1.5.7-.7-.5-.5-.5-.2-1h-.9c0-.1-.5-.8-.5-.8l-.7-.8-.2-.9-.6-.9v-1.3c0,0,0-.6,0-.6l1.2-.2.6-.8v-1.4c0,0,.8-1.3.8-1.3h.6c0,.1,0,.8,0,.8l.4-.2.2-.6.2-1.1,1.1-1.1h.6c0,.1.7,0,.7,0l.5-.3,1.3-1.4v-.6c0,0,.5-1.3.5-1.3l.5-1.6.2-1.4-.2-.8.7-.3v5.8h5Z"/>
    <path id="US-WY" d="M329.8,308.3v13.6c.1,0,.2,12.8.2,12.8h-14.4s-4.8,0-4.8,0h-4.8l-9.6-.2v-6.2s0-16.3,0-16.3h-.2c0-.1,0-.4,0-.4v-3.4s9.4,0,9.4,0h7.5c0,0,8.6,0,8.6,0h8Z"/>
  </g>
</svg>