<svg xmlns="http://www.w3.org/2000/svg" id="Layer_1" viewBox="0 0 512 512"><path id="US-AK" d="m76 303 1.4 4 1.4-1.4 4.4 1.1-.4 1.9 4 1.9 2.9-.5 5.5 3.1 5.2 1.1 2.1 1.2 3.7-1.2 4.1 2.5 3 1.2v29.2c-.1 0-.3 42.3-.3 42.3l3.5.2 3.5 2 2.6 3.1 3.4 4.6 3.4-4.1 3.5-2.5 2.2 3.6 2.7 2.8 3.6 3 2.8 4.9 4.6 7.6 7.1 3.7.6 4.4-1.8 3.6-2.5-2.4-3.7-1.9-1.7-6-5.4-5.2-2.5-6.5-3.6-.2h-6c0 .1-4.5-1.7-4.5-1.7l-7.8-7.3-3.5-1.4-6.3-2.6-5 .5-6.9-3.6-4-3.4-4 1.2.3 5.1-2 .3-4.3 1.1-3.4 2.1-4.2 1v-4.3l2.5-6.8 4-1.8-.8-1.9-4.9 3.5-3 4.5-5.9 4.3 2.2 3.8-4.2 4.6-4.5 2.3-4.1 1.5-1.5 2.9-6.6 2.5-1.8 3-5.1 2-2.5-1.1-4 1.1-4.5 1.4-3.8 1.5-7.2.2-.3-1.3 5.1-2 4.3-1.1 5-2.7 4.9.3 2.5-2.4 6.1-3 1.1-1.2 3.2-1.9 1.6-5.2 2.6-3.8-4.6 1.3-.9-1.4-2.5 2.1-1.6-4-1.5 2.3-.6-3.8-4.2 2-2.2-.5.7-4.2 1.3-2.4-1.7-3-4.9.2-2.1-4.1-1.9-2.3 1.1-4-1.8-3.7 2.4-3.7 3.8-3.2 2.2-3.4 2.8.2 1.9 1.7 3.5-2.8 2.2 1.2 3-1.7.2-3.5-1.5-1.7 3-2.3-1.9-.4-3.7.8-1.4 1.4-2.1-2.2-4.7-.4-4.1-3-.4-3.3-2.6-5.4 5.1-1.8 7.7-1.7 2.4.6-1.4 3.6 6.4 1.3-1.3-5.2-2.9-3.8-1.1-4.3-1.9-4-3.2-3.5 2.7-3.5 5 1.1 4.4-2.6 1.6-3.6 3.7-3.1 2.8-.3 5.8-2.5 2.3 1 4.9-3.6 3.7 2.4Zm-62.4 43.3 1.5 2h2.2l1.9 2.7 2.8 2-.5.7-2.9.7-1.9-2.3-.8-1.7-2.9-.6-.5-.9zm11.7 33.5-2.4.5-1.9-2-1.5-2.5 3.7-.2 2.6 1.4-.4 2.8Zm41.7 29-4.2 2.1-1.7-2.1v-3.4l3.7-2 2.1-.8 2.4.8 1.3 2.4-3.7 2.9Z"/><path id="US-AL" d="m373.3 259.6 3.8 12.9 3.4 10.3 1.7 3.2 1 1.8-1.3 2.1v3.5l.6 1.9v3.7l.7 1.3.6 1.2-18.8 2.1-5.2 1.1v.8l2.3 2.4-.3 2.2-.5 1.5-8.4-.5-1.7-16.4.2-17.2.4-14-.8-2 11-1 11.3-1.1Z"/><path id="US-AR" d="M337.1 251.8v.9l-.8 1.6-1.5 1.1-.2 1.8-1.3 1.5.3 3.1-.9 1.1v.9c-.1 0-1.6.9-1.6.9v1.5l-.9 2.9-1 .7-1.5 1.5-.8 2.3-1.7 3.8v2.5l1.1 2.8-.3 2.1h-7.6l-9.8.7-8.7.2.4-6.1h-2.1l-1.7.2-.5-.7v-9.4l.1-10.4-1.9-11.3h10.5l9.5-.4 9.1-.4h9.8l.8 1.4-.9 1.2-.9 1.2-.5 1.1 5.6-.4Z"/><path id="US-AZ" d="m170.8 235.2-8.7 60-18.1-2.8-19.3-11.2-12.5-7.8 1.2-1.8 1.2.3 1.4-1.9-1.3-1.8v-3.5l2.2-2.1 1.7-4.7 3.1-1.6-1.2-2.3-.7-2.2-.3-2-.2-1.5v-1l1-1.9v-2.1l.2-2.1.5-2.3-.5-1.6.9-1.2 1.8.4 1.5 1.1 1.1.6.9-1.5.4-.3 1.6-8.4 13.6 2.4 16.2 2.8z"/><path id="US-CA" d="m92.9 164.8-8.4 30.9 11.7 17.9 11.7 17.3 11.4 16.4v1l.2 1.5.3 2 .7 2.2 1.2 2.3-3.1 1.6-1.7 4.7-2.2 2.1v3.5l1.3 1.8-1.4 1.9-1.2-.3-11.5-1.3-10.2-1.5-.2-4.1-2.4-6.3-7.7-8.5-3.4-1.3-2.9-4.2-6.6-2.6-1.7-2.3.5-5.9-5.2-12.6-2.6-16.3 1-2.3-2.5-4.5-3.5-10.5 1.5-8.6-2.4-6.9L58 164l2.5-8.8 32.2 9.6Z"/><path id="US-CO" d="m232.5 209.6-1 16.4-1 15.6-8.2-.6-10.2-.9-14.5-1.5-13.4-1.6-13.3-1.8 6-42.3 8 1.1 8 1 16.1 1.8 8.1.8 16.1 1.3-.7 10.3v.3Z"/><path id="US-CT" d="m472.9 164.2 1.6 5.6v1.6l-3.4 1.4-4.4 1.7-5.5 4-.6-1.2 1.4-1.4-.8-.7-1.6-8 6-1.3 7.2-1.7Z"/><path id="US-DC" d="M439.4 207.7v-.6l-1-.8.6-.6 1.3.9-.9 1.2Z"/><path id="US-DE" d="m450.3 194.3-.9 1.4.7 2 3 5.2 3.5 4.8-5.5 1.3-3.6-13.1.4-1 .6-.6h1.9Z"/><path id="US-FL" d="m416.6 299.7 2.5 7.6 5 8.2 5.6 7.3.7 4.2 6.1 10.2 2.1 9.5-.4 9.7-3.8 2.6-5.1-.5-2.3-4.5-4.1-1.9-6.6-8.5-5.9-7.2-1.6-5 .7-6.8-3.1-5.7-7-5.6-5.9-3.3-9.9 5.8-2.5-2.7-9.3-3.8-10.4 2.4.5-1.5.3-2.2-2.4-2.4v-.8l5.3-1.1 18.8-2.1 1.8 2.7 9.3-.7 15.2-.6 1 1.8 1-1.1-.6-3.7 1-.5 1.9.5h2Z"/><path id="US-GA" d="m395.5 256.8-.8 1-1.1 2.2 2.6 1.4 1.6.4 2.1 3.1 1.3 1.7 3.5 2 .8 1.2 2.4 1.4 1.4 2.4 3.2 1.7 1 2.3.7 1.1-.2.8 1.9.9 1.2 1.8.3 2 .9.3 1.6.3-2.7 8.4-.8 6.3h-2c0 .1-1.9-.4-1.9-.4l-1 .5.6 3.7-1 1.1-1-1.8-15.2.6-9.3.7-1.8-2.7-.6-1.2-.7-1.3V295l-.7-1.9v-3.5l1.4-2.1-1-1.8-1.7-3.2-3.4-10.3-3.8-12.9 6.8-.7 4.6-.7 10.9-1.4Z"/><path id="US-HI" d="M194.4 357.7H193l-.8-1.1-.4-2 1.1-.4 1.5.2 1.6 1.4v.8l-1.5 1.1Zm8.3 13.3-.3 1.6-1.4-.6-.3-1.1-.5-.2h-.2l-.9-.8.5-3 1.2.8 1.8.2-.5 2.5.7.7Zm5.4 8.1h-1.7l-2.8-3 1-.7 3.4 3.6Zm.1 1.7.2 1.6 1.6.8.9 2.7-.4.6h-1.1l-2.4-1.4.7-1.9-.9-.9.2-1.5.8-.3.6.3Zm-3.9 21-1.6.6-1.3-2.3 1.8-2.5 1.1-3.8 3.3-.8.4-1.6.7-.6h.4c0 .1 3 5.9 3 5.9v1.6c.1 0-.5 1.1-.5 1.1l.5.6-.2.9.4 1.8-3.1.2-2.3-1h-2.6Z"/><path id="US-IA" d="M319.3 172.8v.6c.1 0 1.2 1.6 1.2 1.6l-.7.8v2.2c.1 0 .5.9.5.9l.6 1.7 2.6.9.9 1.6.5.8 1 .5.4 1.1 1.3.8.9.9-.2 2.9-1.3 2.5-.5.8-1.8.7-2.7.7-.6 1.9 1 .8.4 1.6-1 1.9-.5 1.6-2 1.7v2l-1.2-.8-1.6-1.7-8.9.6-9.4.3h-7.3c0 .1-7.3.2-7.3.2l-.5-1.9.2-1.9-.2-1.8-.8-3.1-.5-1.3-.6-.3v-2.5l-.6-1.8-1.4-2v-.9l-.5-1.8-.3-1.1v-1l-1.3-1.2.6-1.8.4-1.7.2-1.2-1-1.4v-2.6h9.6l10.6-.3 11.4-.4 10.2-.3Z"/><path id="US-ID" d="m166.8 153.4.2.2-4.4 26.3-23.4-4.2-23.3-5.2 4.5-18.7 1.4-2.8-.3-1.5-1.2-1 .4-1.7 1.6-2.1 2.1-1.7 1.8-3.1 1.6-2.5 1.1-1.2v-1.7l-1.1-1.1-1.3-2.4.5-1.9-.3-1.8 3.2-14.7 3.1-13.5 6.9 1.6-1.9 11.2 1.3 3.2-.4 1.9 1 2 1.4 1.4.9 1.9 1.3 3.7 1.6 1.9 2.2.6-1.3 2.2-1.3 2.6v2.8l-.9.5-.5 2.7 1.1 1.3 1.7-1 1.1-1.3.8.5.6 1.6.2 3.5 1.1 1.6v2.8l.2.9 1.5.6.6 1.7.8 3 1.7-1.2 2.4.8.4-1 4.1 1.4h1.8l1.4-2 .8.4.5 1.6.7.7Z"/><path id="US-IL" d="m347 181.6.3 2.8 2.7 5.4 1.1 12.3 1.1 12.3-.7 3 .8.7.6 1.8v1.4l-.6.7-.4 1.8-1.5 2.5-.9 3v3l-.8 1.6.8.9-1.4.9-1.8 1.1.5 2.3-1 1-2.1-.8-2.3-.4-.5 1.1.5 1.6-1.6-1.5-.9.3-1.3-2.5.2-1.6-.8-2.5-.9-.3-2.4-2.2h-1l-1.8-1.4-1.3-1.5.4-1.9.7-1.6.3-2-1.7-1.6-1.5.8-1-.4-.2-1.8-.8-2-.8-.4-2-1.3-1.7-1.7-1.5-2.1-.9-3.2.6-2.7v-2l2.1-1.7.5-1.6 1-1.9-.4-1.6-1-.8.6-1.9 2.7-.7 1.8-.7.5-.8 1.3-2.5.2-2.9-.9-.9-1.3-.8-.4-1.1-1-.5-.5-.8 8.1-.5 8.2-.6 6.1-.4Z"/><path id="US-IN" d="m371.6 187.8 1.2 9.6 1.2 10.3.9 7.3-.4.6.9 2.1-.3.8-1.4.2-1.2 1.1-2-.2v2.1l-1 .9-.9 1.9-1.1.5-1.5 3.4-1.8-.7-.7-1.2-1.2 2.3-.8 1.3-1.9-1.1-1.8 1.2-.5 1.1-2.7-1.4-1.7 1.3-2.2-.6v1.2l-1.1-.2v-2.2l1-3 1.5-2.5.4-1.8.6-.7V220l-.7-1.8-.8-.7.7-3-1.1-12.3-1.1-12.3.8.6 2.7-.3 2-1.4 8.6-.9 7.5-.9v.8Z"/><path id="US-KS" d="M293.9 243.1H271l-15.4-.4-8.6-.3-8.5-.4-8.1-.5 1-15.6 1-16.4 14.3.8 10.7.4 18.9.4h11.3l2 1.4h1.1l.3 1.5-1.1 2 .6 1 1 2.2 2.2 1v11.4l.2 11.4Z"/><path id="US-KY" d="m394.4 219.8.3 1 .2 2.2 1.2 1.5.6 1.5 1.4 1.2 1 1.1h1.7l-2.9 3.6-2.5 1.6v.9l-.8 1.2-2.1 1.6-.6 1.1-1.7.9-2.4.9-5.7 1.1-7.6.5-2.4.4-4.9.3-5 .4-4.6.4-5.3.8-.3-.5-1.7.2.2 1.7-12.3.9 1.8-1.3 1.3-1-.3-1.7.2-1.1-.5-1.6.5-1.1 2.3.4 2.1.8 1-1-.5-2.3 1.8-1.1 1.4-.9-.8-.9.8-1.6v-.8c-.1 0 1 .2 1 .2v-1.2l2.2.6 1.7-1.3 2.7 1.4.5-1.1 1.8-1.2 1.9 1.1.8-1.3 1.2-2.3.7 1.2 1.8.7 1.5-3.4 1.1-.5.9-1.9 1.1-.9v-2.1l1.9.2 1.2-1.1 1.4-.2.3-.8-.9-2.1.4-.6h2.9c0-.1 1.6.7 1.6.7l2.5 2.1 1.9.5 1.4.7 1.9-.6 1.5.4 1.7-.8 1.5-.4.9 1.4 1.7.8Z"/><path id="US-LA" d="m325.9 284.7.7.6-.7 1.6 1.4 2.1-.3 1.3 1.3 1.8-1.2 1.2-.3 2-1.7 1.8-.7 2.3-.7 2.6-1.1 1.3.5 2.7h8.2l8.7-.6v1.8c-.1 0-.6 1.8-.6 1.8l.7 1.3 1.3 1.2.5 1.8.2 1.1-.8 4.6 3.4 6.3-13 1.3-8.2-1.8-5.6-2-7.2-1.1h-8.2l-.8-1.5.9-1.6 1.4-1.5v-2.2l-.7-.7.7-2.6.6-1.2.8-4-.9-1.4-1.1-2.4-.8-2.5-.6-1.6-1.5-1.2-.8-11.5 8.7-.2 9.8-.7h7.6Z"/><path id="US-MA" d="m477.9 153.3 1.5 5.5 4.1 4.7 3.3-.7-1.9-3.5 3 1.6.2 3.1-4.7 3.2-3.8.9-.7-1.5-1.5-.8-1.3-2.5-3.2 1-7.2 1.7-6 1.3-.2-7.6 6.3-1.5 9.2-2.4.5-1.2 1.4-1.1h1Z"/><path id="US-MD" d="m447.4 195.7 3.6 13.1 5.5-1.3.7.8-2.3 4.3-1.9.6-.5.9-5.3-4-2.1-7.7-.5 4 2.1 9-5.6-2-.8-1.4-1.2.7-1.2-.3.4-2.5 1.2-1.3v-.9l.8-1.2-1.3-.9-.6.6-1.8-.8-1.9-.3.4-1.2-1.2-.6h-1.3c0-.1-.9-1.3-.9-1.3l-1.3-1.3-2.7-.3-1.4 1.1-.7 1h-2.5l-.9 1.3-1.5.7-1.2 1.5-1.1 1.2-.9-5.3 7.5-1.4 2.6-.5 5.7-1.2 6.9-1.4 7.1-1.6Z"/><path id="US-ME" d="m478.6 150.6-.8.3-.8-1.3-1.8-1.1v-1.1l-6.3-18.5 2.5-2.7 1.2-5.4-.2-8.7 3.1-9.4 3.2 2 4.2-3.2 4.1 2 4.5 14 6.6 4.3 1.5 4.3-6.1 5.5-6.4 4.6-6.6 8.7-1.9 5.8Z"/><path id="US-MI" d="M367.2 135.8h2.5l-.8 1.2 4.3 3.8-6.4 1.8h-.3l-6-.4-5.6 2.8-5 1.5-3.8 7.2h-.2l-1.1-1.2.4-1.8h-1.7l.2-1.7.4-.9-.8-1.4-1.8-.5-.6-1.7h-1.5l-2.1.1-4.5-1.6-6.7-1.5-.7-1.9-1.2-.3-.4.2 5.5-3.1 5.6-3.9 6.2-4.1-1.9 5.9 4.3 1 5.6 3.6 6.3-3.1 7.1-1.8 1.9 2.8 2.3.2.3-1.1Zm21.4 35.4-.2.2-2.8 6.4-1.2 4-2.1 4.5-3 .5-3.6.5-4.1.6v-.8c-.1 0-7.6.9-7.6.9l-8.6.9 1.5-1.6 2.7-5.5-.5-7-3.3-6.3v-4.6l1.4-5.4 1.5-3.8 2.7-2.9 1.1 3.5.7-5.4 1.5-1.3.6-4.2 6.6 1.3 6.1 3.4 1.3 4.7v4.9l-3.6 4.8.8 2.6h1.5c0-.1 4.1-5.5 4.1-5.5l3 .6 2.3 5.9 1 4.3z"/><path id="US-MN" d="m328.6 123.6-7.2 4-5 4.6-4.8 4.8v1.6l-1.9.7.3 6h-.2l-1.8 1.3-1.6 1.1-1 2 1.7 2-.5 2.7v5.3l2.3 2h.9l2.5 1.5.9.7.6 1.1 2 1.8 2.7 1.5.3.9.2 2.6.3 1.2-10.2.3-11.4.4-10.6.3h-8.5l.2-10-.9-10.3-1.3-.8-.7-1.7.4-1.5 1.7-1.2v-1.6c.1 0 .2-2 .2-2l-.5-1.6-.6-1.8-.3-2.2v-2.5l-.3-.6-.3-3.2v-1.5l-.1-1.3-.3-2.2-.9-2.2-.8-2v-2l-.2-2.1.3-1.4V117l-.6-1.6v-1.1h14.7v-4.2h2.4l1.3 6 2.3 1.8 5 .6 7.4 1.5 7.2 3.1 5.8-1.7 9.1 2.2Z"/><path id="US-MO" d="m319.5 206.3-.6 2.7.9 3.2 1.5 2.1 1.7 1.7 2 1.3.8.4.8 2 .2 1.8 1 .4 1.5-.8 1.7 1.6-.3 2-.7 1.6-.4 1.9 1.3 1.5 1.8 1.4h1l2.4 2.2.9.3.8 2.5-.2 1.6 1.3 2.5.9-.3 1.6 1.5-.2 1.1.3 1.7-1.3 1-1.8 1.3-.2 1-.4 1.6-.5 2.6-5.6.4.5-1.1.9-1.2.9-1.2-.8-1.3h-9.8l-9.1.3-9.5.3h-10.5v-16.2c-.1 0-.2-11.4-.2-11.4l-2.2-1-1-2.2-.6-1 1.1-2-.3-1.5H290l-2-1.4-1.1-2.3-1.3-1.4-1.4-1.7-.2-.9h7.3l7.3-.2 9.4-.3 8.9-.6 1.6 1.7 1.2.8Z"/><path id="US-MS" d="m351 261.6.8 2-.4 14-.2 17.2 1.7 16.4-5.5 2.9-5.4.2-.2-1.1-.5-1.8-1.3-1.2-.7-1.3.5-1.8v-1.8c.1 0-8.6.5-8.6.5H323l-.5-2.6 1.1-1.3.7-2.6.7-2.3 1.7-1.8.3-2 1.2-1.2-1.3-1.8.3-1.3-1.4-2.1.7-1.6-.7-.6.3-2.1-1.2-2.8v-2.5l1.8-3.8.8-2.3 1.5-1.5 1-.7 1-2.9v-1.5l1.5-.9v-.9c.1 0 8.8-.6 8.8-.6l9.6-.5Z"/><path id="US-MT" d="m221.9 144.7-1.3 9.8-12.6-1.4-13.6-1.5-11.7-1.7-14.8-2.2-.9 5.4-.2.4-.7-.7-.5-1.6-.8-.4-1.4 1.9h-1.8l-4.1-1.4-.4 1-2.4-.8-1.7 1.2-.8-3-.6-1.7-1.5-.6-.3-.9v-2.8l-1-1.6-.2-3.5-.6-1.6-.8-.5-1.1 1.3-1.7 1-1.1-1.3.5-2.7 1-.5v-2.8l1.2-2.6 1.3-2.2-2.2-.6-1.6-1.9-1.3-3.7-.9-1.9-1.4-1.4-1-2 .4-1.9-1.3-3.2 1.9-11.2 20.9 4.3 21.1 3.6 21.2 2.9 21.2 2.2-1.7 19.8-.8 13.1Z"/><path id="US-NC" d="m454.2 228.9 3.5 10.2-3.7 9-7.6 5.8-6.4 6.8-3 1.2-11.6-8.1-9.7 1.6-.2-1.2-1.7-1.6-.8.8-.2-.9-4.1.2-8 1.2-4.4 2.5-.8.4-10.9 1.4v-2.3l1.7-.9.4-1.2 1.1-1.5 1.7-.5 2-.8 1.8-1.2.7-1.1 1.5-1.1-.2-.8 2-1.8.8.8 2.9-2.5h1.5l1-2 1.7-.7-.3-1.5v-1.4l14.4-2 16.9-3.1 8.9-1.9 9-2Z"/><path id="US-ND" d="M273.4 114.4v1.1l.7 1.6v1.3l-.3 1.4v2.1l.2 2 .8 2 .9 2.2.3 2.2v1.3c.1 0 .1 1.5.1 1.5l.3 3.2.2.6v2.5l.4 2.2.6 1.8.5 1.6v2l-14.3.4-12.2-.5-15.4-.8-14.3-1.1.8-13.1 1.7-19.8 24.7 1.8 24.3.8Z"/><path id="US-NE" d="m278.5 184.6.3 1.1.5 1.8v.9l1.4 2 .5 1.8v2.5l.6.3.5 1.3.8 3.1.2 1.8-.2 1.9.5 1.9.2.9 1.4 1.7 1.3 1.4 1.1 2.3h-11.3l-18.9-.4-10.7-.4-14.3-.8v-.3l.7-10.3-16.1-1.3 1.8-21.3 15.3 1.2 11.8.7 15.7.6 2 1.4 2.9.9.7-.5h4.7l2 1.4 2.2.9.4.9.7.5 1.3.2Z"/><path id="US-NH" d="m478.6 150.6-.6 2.7h-1l-1.4 1.2-.5 1.2-9.2 2.4-.9-.9.2-1.5-.5-2.8v-.7l-.3-2.5.3-2.3.4-1.1.2-2.7-.3-1.7v-1.1l1.3-.9 1.3-1.7v-1.4l-1-1.3v-5.9l2.4-1 6.3 18.5v1.1l1.8 1.1.8 1.3.8-.3Z"/><path id="US-NJ" d="m459.3 179.3-1.5 5.7h2.1l.5 7.8-3.9 9.4-1.2-2.5h-1.9c0-.1-2.6-2.4-2.6-2.4l-.7.3-.7-2 .9-1.4 1.4-1.3.4-.8 1.6-1.8.8-1.4-3.1-2.1-.4-1.1h-.9c0-.1-.4-1.8-.4-1.8l.6-1.5-.7-1.3 1-1.2.8-2.7.8-.7 7 2.6Z"/><path id="US-NM" d="m222.2 241-.4 5.3-2.2 27.9-1.6 20.1-8.5-.7-16.4-1.6-8.2-.9v.9l.8 1.8-15.7-2-.7 4.4-7.3-1 8.7-60L184 237l13.4 1.6 14.5 1.5 10.2.9Z"/><path id="US-NV" d="M139.2 175.7 128.7 228l-1.6 8.4-.4.3-.9 1.5-1.1-.6-1.5-1.1-1.8-.4-.9 1.2.5 1.6-.5 2.3-.2 2.1v2.1l-1 1.9-11.4-16.4-11.7-17.3-11.7-17.9 8.4-30.9 23 5.8z"/><path id="US-NY" d="m459.5 159.6.2 7.6 1.6 8 .8.7-1.4 1.4.6 1.2 10.7-4.3 2.8 1.3-10.2 6-5 1.3-.3-3.6-7-2.6-1.4-.4-1.5-.4-.9-1.4v-1.2l-1.2-.7-2.1-1.2-10.6 2.3-11.4 2.4-12.2 2.3-.5-2.9 5.5-7.5-.3-1-1.6-2.9 3.8-2.1 6.1-.8 6.5-.4 5-4.7-1.4-4-1.2-1.4 6.1-8.9 2.9-2.7 11.2-2.8.4 2.1v1.4l1 3 .8 1.5-.2 2.3 1.4 2.5v1.6l.1.4 1.1-.2 1.9 8.6Z"/><path id="US-OH" d="m407.5 193.7-1 .7.6 1.3v2.5l-.3 2.9-.4 2.4v1.1l-1.8 2.8-.9.7-1.1.5h-1l-1.5 2v2l-.1 1.1-.7.5-.3-1.2h-1.2l-.8 2.4.2 2.4-.9 1.6-2 .6-1.7-.8-.9-1.4-1.5.4-1.7.8-1.5-.4-1.9.6-1.4-.7-1.9-.5-2.5-2.1-1.6-.8h-2.9c0 .1-.9-7.2-.9-7.2l-1.2-10.3-1.2-9.6 4.1-.6 3.6-.5 3-.5 5.2 1.5h4l5.5-2.3 4.2-3.7 3.8-2.1 2.4 14.1Z"/><path id="US-OK" d="m294 248.1 1.9 11.3v10.4l-.1 9.4-3.9-2-2.5-1.1-2 .7h-5l-1.5.9-1.5.4-1.3-.5-3 .6-1.3-1.8-1.4 1.5-2.4-.7-2.5-1.7-2.7 1-1.1-2.6h-4.2c0 .1-2.6-.5-2.6-.5l-3-.9-1.2-2.3-2.4.6-1.4-.9-2.1-1.2.5-10.2.5-10.5-8.6-.4-8.6-.5-8.6-.6.4-5.3 8.2.6 8.1.5 8.5.4 8.6.3 15.4.4h22.9v4.9Z"/><path id="US-OR" d="m126.6 129 1.3 2.4 1 1.1v1.7l-1 1.2-1.6 2.5-1.8 3.1-2.1 1.7-1.6 2.1-.4 1.7 1.2 1 .3 1.5-1.4 2.8-4.5 18.7-23-5.7-32.2-9.6-.6-6.5 5.8-10.2 4.2-11.4 6.2-15.1 1.5.3 2.2.7 1.4 1.5 1.9 1.2.7 2.4-.3 1.8v1.6l1.7.9 1.8.5 3.1-.3h1.7c0 .1 2.5 1.3 2.5 1.3l1 .9h1.6l1.9-.3 3.2 1 3-.4 1.6-.5 1.7.9 2.9-.4 15.1 3.6Z"/><path id="US-PA" d="m452.3 176.7-.8.7-.8 2.7-1 1.2.7 1.3-.6 1.5.4 1.7h.9c0 .1.4 1.2.4 1.2l3.1 2.1-.8 1.4-1.6 1.8-.4.8-1.4 1.3h-1.9c0-.1-.6.5-.6.5l-.4 1-7.1 1.6-6.9 1.4-5.7 1.2-2.6.5-7.5 1.4-8.5 1.5-1.7-9.7-2.4-14.1 5.4-4.1.5 2.8 12.2-2.3 11.4-2.4 10.6-2.3 2.1 1.2 1.1.7v1.2l.9 1.4 1.5.4 1.4.4Z"/><path id="US-RI" d="m479.6 168-5.2 3.4v-1.6l-1.5-5.6 3.2-1 1.3 2.5 1.5.8z"/><path id="US-SC" d="m437 261.9-2 8.1-6.6 8-8.5 7-1.6-.3-.9-.3-.3-2-1.2-1.8-1.9-.9.2-.8-.7-1.1-1-2.3-3.2-1.7-1.4-2.4-2.4-1.4-.8-1.2-3.5-2-1.3-1.7-2.1-3.1-1.6-.4-2.6-1.4 1.1-2.2.8-1 .8-.4 4.4-2.5 8-1.2 4.1-.2.2.9.8-.8 1.7 1.6.2 1.2 9.7-1.6 11.6 8.1Z"/><path id="US-SD" d="M278.6 173.8h-1v2.6l1 1.4-.2 1.2-.4 1.7-.6 1.8 1.3 1.2v1l-1.3-.2-.7-.5-.4-.9-2.2-.9-2-1.4h-4.7l-.7.5-2.9-.9-2-1.4-15.7-.6-11.8-.7-15.3-1.2 1.7-21.8 1.3-9.8 14.3 1.1 15.4.8 12.2.5 14.3-.4v1.6c-.1 0-1.8 1.2-1.8 1.2l-.4 1.5.7 1.7 1.3.8.9 10.3-.2 10Z"/><path id="US-TN" d="m388 240.3 12.7-1.5 4.3-.9v1.4l.3 1.5-1.7.7-1 2h-1.5l-2.9 2.5-.8-.8-2 1.8.2.8-1.5 1.1-.7 1.1-1.8 1.2-2 .8-1.7.5-1.1 1.5-.4 1.2-1.8.9v2.3l-4.5.7-6.8.7-11.3 1.1-11 1-9.6.5-8.6.6.9-1.1-.3-3.1 1.3-1.5.2-1.8 1.5-1.1.8-1.6v-.9l.5-2.6.4-1.6.2-1 12.3-.9-.2-1.7 1.7-.2.3.5 5.3-.8 4.6-.4 5-.4 4.9-.3 2.4-.4 7.6-.5 5.7-1.1Z"/><path id="US-TX" d="m295.8 279.1.5.7 1.7-.2h2.1l-.4 6.1.8 11.5 1.5 1.2.6 1.6.8 2.5 1.1 2.4.9 1.4-.8 4-.6 1.2-.7 2.6.7.7v2.2l-1.3 1.5-.9 1.6.8 1.4-8 2.4-8.6 8.1-9.5 4.7-5.3 5.1-2.3 4.9-.2 7.5.4 5.2 1.8 3.7-3.9.3-7-2.5-7.6-3.6-2.6-5.2-1.9-7.7-5.4-6.4-3-6.5-4.4-7.6-6.4-4.7-7.7-.3-6.6 8.1-7.6-3.9-4.6-3.7-1.8-6.1-2.5-5.9-5-5.3-4.3-3.9-2.9-4.2-.8-1.8v-.9l8.2.9 16.4 1.6 8.5.7 1.6-20.1 2.2-27.9 8.6.6 8.6.5 8.6.4-.5 10.5-.5 10.2 2.1 1.2 1.4.9 2.4-.6 1.2 2.3 3 .9 2.6.7h4.2c0-.1 1.1 2.5 1.1 2.5l2.7-1 2.5 1.7 2.4.7 1.4-1.5 1.3 1.8 3-.6 1.3.5 1.5-.4 1.5-.9h5l2-.7 2.5 1.1 3.9 2Z"/><path id="US-UT" d="m176.8 192.9-6 42.3-12.3-2-16.2-2.8-13.6-2.4 10.5-52.3 23.4 4.2-1.8 10.3 16 2.8Z"/><path id="US-VA" d="M432.7 203.3h1.3c0 .1 1.2.7 1.2.7l-.4 1.2 1.9.3 1.8.8.9.8v.6l.1.9-1.2 1.3-.4 2.5 1.2.3 1.2-.7.8 1.4 6.5 4.7 2.7 4.6.2.3 3.9 5.9-9 2-8.9 1.9-16.9 3.1-14.4 2-4.3.9-12.7 1.5 2.4-.9 1.7-.9.6-1.1 2.1-1.6.7-1.2v-.9l2.5-1.6 2.9-3.7.7 1.7 1.1.8 1.4.6 2.5-1.7 1.1.6 3-1.4v-1l1 .2.9-.9h1.2l1.2-1.1v-1l-.3-1.2.8-2 1.4-1.7v-1.6c.1 0 1.2-2.1 1.2-2.1l.4-2.4 1.2.6 1.4.5 1.1-.6.2-1 .6-1.5.6-1.7.7.3 1-1.6 1.3-1.7.8-1.2v-2.9l4.8 2 .5-2.1Zm18.5 18.5.9.2 2.8-9.4-1.9.6-.5.9z"/><path id="US-VT" d="m465.9 158.1-6.3 1.5-1.9-8.6-1.1.2-.2-.4v-1.6l-1.3-2.5.2-2.3-.8-1.5-1-3v-1.4l-.4-2.1 13.6-3.6v3.1l1 1.3v1.4l-1.3 1.7-1.3.9v1.1l.3 1.7-.2 2.7-.4 1.1-.3 2.3.4 2.5v.7l.5 2.8-.2 1.5.9.9Z"/><path id="US-WA" d="m133.1 97.2-3.1 13.5-3.2 14.7.3 1.8-.5 1.9-15.1-3.6-2.9.4-1.7-.9-1.6.5-3 .4-3.2-1-1.9.4h-1.6l-1-.9-2.5-1.2h-1.7c0-.1-3.1.1-3.1.1l-1.8-.5-1.6-.9v-1.6l.2-1.8-.7-2.4-1.9-1.2-1.4-1.5-2.2-.7-1.5-.3.8-9.2 2-10.3 9.1 4.9.6 9 2.6-2.2 1.4-8.8-.7-9.6 20.4 5.9 20.6 5.2Z"/><path id="US-WI" d="m323.7 139.4.4-.2 1.2.3.7 1.9 6.7 1.5 4.5 1.6 2.1-.2h1.5l.6 1.7 1.8.5.8 1.4-.4.9-.2 1.8h1.7l-.4 1.7 1.1 1.2h.2c0 .1-2.6 4.2-2.6 4.2l1.1 1.2 4.9-7.4 1.1-.2-3.1 8.6-1 7.6-.9 6.2 1.5 5.1v2.6l-6.1.5-8.2.6-8.1.5-.9-1.6-2.6-.9-.6-1.7-.4-.9v-2.2c-.1 0 .5-.8.5-.8l-1.1-1.6v-.6c-.1 0-.4-1.2-.4-1.2l-.2-2.6-.3-.9-2.7-1.5-2-1.8-.6-1.1-.9-.7-2.5-1.4h-.9l-2.3-2 .2-2.4v-2.9l.4-2.7-1.7-2 1-2 1.6-1.1 1.8-1.3h.2l-.3-6 1.9-.7 7.3-2.6 4.7 3.4Z"/><path id="US-WV" d="m417.6 201.8.9 5.3 1.1-1.2 1.2-1.5 1.5-.7.9-1.3h2.5l.7-1 1.4-1.1 2.7.3 1.3 1.3.9 1.2-.5 2.2-4.7-2v2.9l-.9 1.2-1.3 1.7-1 1.6-.7-.3-.6 1.7-.6 1.5-.2 1-1.1.6-1.4-.5-1.2-.6-.4 2.4-1.1 2.1v1.6c-.1 0-1.5 1.7-1.5 1.7l-.8 2 .4 1.2v1l-1.2 1h-1.2l-.9 1-1-.2v1l-3 1.4-1.1-.6-2.5 1.7-1.4-.6-1.1-.8-.6-1.7h-1.7l-1-1.1-1.4-1.2-.6-1.5-1.2-1.5-.2-2.2-.3-1 2-.6.9-1.6-.2-2.4.8-2.5h1.2l.3 1.2.7-.5v-1.1l.1-2 1.5-2.1h1l1.1-.4.9-.7 1.8-2.8v-1.1l.4-2.4.4-2.9v-2.5l-.6-1.3 1-.7 1.7 9.7 8.5-1.5Z"/><path id="US-WY" d="m220.7 154.5-1.7 21.8-1.8 21.3-8.1-.8L193 195l-8-1-8-1.1-16-2.8 1.8-10.3 4.4-26.3-.2-.2.2-.4.9-5.4 14.8 2.2 11.7 1.7 13.6 1.5 12.6 1.4Z"/></svg>