<?xml version="1.0" encoding="UTF-8"?>
<svg id="Layer_1" xmlns="http://www.w3.org/2000/svg" xmlns:amcharts="http://amcharts.com/ammap" version="1.1" viewBox="0 0 512 512">
  <!-- Generator: Adobe Illustrator 29.1.0, SVG Export Plug-In . SVG Version: 2.1.0 Build 142)  -->
  <g id="_x3C_defs">
    <amcharts:ammap bottomLatitude="14.052495" leftLongitude="-124.541947" projection="mercator" rightLongitude="-67.118615" topLatitude="49.390806"/>
  </g>
  <g>
    <path id="US-AK" d="M76.3,311.9l2.4,4.6,1.5-2,5.6.6-.2,2.3,5.1,1.7,3.4-1,7,3.1,6.4.9,2.6,1.3,4.4-1.6,5,2.9,3.6,1.3h0v32.8s0,42,0,42l3.3.2,3.2,1.8,2.3,2.9,3,4.3,3.2-3.6,3.3-2.1,1.8,3.4,2.2,2.6,3,2.9,2.1,4.5,3.4,7,5.7,3.8v3.7c0,0-1.8,2.8-1.8,2.8l-1.8-2.2-2.9-1.9-.9-5.2-4.3-4.9-1.8-5.9-3.2-.4-5.3-.2-3.9-1.8-6.9-6.7-3.2-1.2-5.8-2.4-4.6.6-6.5-3.1-4-2.9-3.7,1.4.7,4.7-1.8.4-3.8,1.4-2.9,2.2-3.7,1.4-.5-3.8,1.5-6.6,3.5-2.1-.9-1.7-4.2,3.8-2.3,4.5-4.8,4.7,2.4,3.1-3.1,4.6-3.6,2.6-3.3,1.9-.8,2.7-5.2,3.1-1,2.8-3.9,2.5-2.3-.5-3.1,1.6-3.4,2-2.8,1.9-5.7,1.6-.5-1,3.6-2.7,3.3-1.8,3.5-3.2,4.1-.7,1.6-2.4,4.6-3.6.7-1.2,2.5-2.2.6-4.7,1.7-3.8-3.8,1.9-1.1-1.1-1.8,2.3-2.2-3.2-.9,2.3-1.2-3.2-3.3,2.6h-2s-.3-3.8-.3-3.8l.6-2.4-2.1-2.3-4.3,1.3-2.8-3.1-2.3-1.6v-3.9s-2.6-2.9-2.6-2.9l1.3-4,2.7-4,1.2-3.7,2.7-.5,2.3,1.2,2.7-3.6,2.4.6,2.5-2.3-.6-3.5-1.9-1.4,2.5-3h-2c0,0-3.5,1.8-3.5,1.8l-1,1.7-2.6-1.7-4.7.9-4.9-1.9-1.4-3.1-4.2-4.6,4.7-3.4,7.4-4h2.7l-.5,4.1,7-.3-2.7-5.2-4.1-3.2-2.4-4.3-3.2-3.8-4.6-2.8,1.9-4.8,5.9-.3,4.2-4.3.8-4.6,3.4-4.6,3.2-1.1,6.3-4.5,3.1.7,5.1-5.5,5.1,2.2ZM20.9,376.3l2.1,1.4,2.1-.8,2.7,2,3.3,1-.3.8-2.5,1.6-2.5-1.6-1.3-1.3-2.9.4-.8-.7.2-2.8ZM41.4,403.6l-2,1-2.2-1.2-2-1.8,3.3-1.1,2.6.6.3,2.6ZM83.2,421.3l-3.3,2.3-1.7-1.6-.5-2.9,3-2.2,1.8-.9,2.2.4,1.4,1.9-2.9,2.9Z"/>
    <path id="US-AL" d="M343,240.9l2.2,12.8,2,10.1,1.2,3.1.8,1.8-1.4,1.8-.5,3.2.5,1.9-.2,1.8-.2,1.6.5,1.3.4,1.2h-17.4c0,0-4.9.6-4.9.6v.8c-.1,0,1.8,2.4,1.8,2.4l-.5,1.9-.6,1.3-7.6-1.1-.3-15.1,1.5-16.1,1.5-13.3-.6-2h21.7Z"/>
    <path id="US-AR" d="M308.6,230v.9c0,0-1,1.5-1,1.5l-1.5,1-.3,1.7-1.3,1.4v3c0,0-.9,1-.9,1l-.2.8-1.5.8v1.5s-1.2,2.8-1.2,2.8l-1,.6-1.5,1.4-.9,2.1-1.9,3.6-.2,2.4,1,2.7-.4,2-7.2-.3-9.3.3h-8.2s.5-5.8.5-5.8h-2s-1.7,0-1.7,0l-.4-.7.2-9,.2-10.1-1.7-11.1,10.4.2h9.4s9,0,9,0l9.7.6.7,1.3-1,1.1-1,1.1-.5,1h5.6Z"/>
    <path id="US-AZ" d="M143.4,219.7v58.1s-16.9,0-16.9,0l-19.4-7-12.9-4.9.8-1.9h1.1s.9-2,.9-2l-1.5-1.4-.3-1.5-.4-1.8,1.7-2.3.7-4.7,2.6-2.1-1.6-2-1.1-1.9-.7-1.8-.5-1.4-.2-.9.5-2-.4-2-.2-2v-2.2s-.8-1.4-.8-1.4l.6-1.3h1.8l1.6.7,1.2.4.6-1.6.4-.4v-8.5c0,0,13.7-.2,13.7-.2h16.4s12.4,0,12.4,0Z"/>
    <path id="US-CA" d="M50,164.8v33.5s16.1,14.6,16.1,14.6l15.3,14,14.3,13.3.2.9.5,1.4.7,1.8,1.1,1.9,1.6,2-2.6,2.1-.7,4.7-1.7,2.3.4,1.8.3,1.5,1.5,1.4-.9,2h-1.1s-10.8,1-10.8,1l-9.7.8-1-3.7-3.6-5.2-9.1-6.1-3.4-.4-3.7-3.2-6.7-.8-2.2-1.7-1-5.7-8.3-10.5-7.1-14.7.3-2.5-3.8-3.6-6.6-9.1-1.2-8.9-4.5-6.1,1.9-9.3-.3-9.7h35.9Z"/>
    <path id="US-CO" d="M203,187.2v16.9c0,0,0,15.7,0,15.7h-8.2s-10.2,0-10.2,0h-14.5s-13.5,0-13.5,0h-13.3v-43.7c0,0,8.5,0,8.5,0h25.6s8.5,0,8.5,0h17v10.8s0,.4,0,.4Z"/>
    <path id="US-CT" d="M460.8,164.5v6.2c0,0-.5,1.7-.5,1.7l-3.8.6-5,.6-6.7,2.6-.3-1.4,1.9-1.1-.7-1,.5-8.7,6.5.2,7.9.3Z"/>
    <path id="US-DC" d="M416.1,200.5v-.6s-.7-.9-.7-.9l.7-.5,1.1,1.1-1.1,1Z"/>
    <path id="US-DE" d="M430.1,189.5l-1.3,1.1.2,2.1,1.8,5.9,2.3,5.6h-5.7l-.6-13.9.7-.9.8-.5,1.8.6Z"/>
    <path id="US-FL" d="M378.2,283.8l1.1,7.2,3.2,8,3.8,7.3v3.7l3.7,9.8.4,8.5-1.8,8.1-3.6,1.7-4.2-1.1-1.3-4.1-3.2-2.2-4.5-8.1-4.2-6.9-.8-4.6,1.5-5.9-2-5.4-5.5-5.8-4.9-3.7-9.6,4.1-2-2.7-8.1-4.4-9.6,1.2.6-1.3.5-1.9-1.9-2.4v-.8c.1,0,5-.6,5-.6h17.4c0,0,1.3,2.6,1.3,2.6l8.6.5,13.8,1.5.6,1.7,1.1-.9v-3.4s1-.3,1-.3l1.7.7,1.8.2Z"/>
    <path id="US-GA" d="M364.7,240.9l-.9.9-1.4,2,2.3,1.7,1.5.6,1.6,3.2,1,1.8,3,2.4.6,1.3,2,1.7,1,2.4,2.7,2,.6,2.3.5,1.1-.3.7,1.6,1.1.8,1.9v1.9s.8.4.8.4l1.5.5-3.7,7.3-1.6,5.6-1.8-.2-1.7-.7-1,.3v3.4s-1.1.9-1.1.9l-.6-1.7-13.8-1.5-8.6-.5-1.3-2.7-.4-1.2-.5-1.3.2-1.6.2-1.8-.5-1.9.5-3.2,1.4-1.8-.8-1.8-1.2-3.1-2-10.1-2.2-12.8h6.6c0,0,4.5,0,4.5,0h10.6Z"/>
    <path id="US-HI" d="M172.2,346.8l-1.3,1.2-1.6-.4-2-1.6.7-1.2,1.6-1h2.5s.5.8.5.8l-.4,2.1ZM190.2,352.9l.9,1.8-1.8.5-1.1-.8-.6.2h-.3c0,.1-1.4,0-1.4,0l-1.8-3.2,1.7-.2,1.8-1.2,1.5,2.7,1.2.2ZM201.3,356.5l-1.6,1.2-4.8-.7.4-1.4,6,.9ZM202.7,357.9l1.4,1.4,2-.4,2.9,1.9v.9c0,0-1,.8-1,.8l-3.3.5-.8-2.3-1.5-.2-.9-1.5.5-.9h.8ZM214.4,380.5l-1,1.7-2.8-1.2v-3.6c-.1,0-1.9-4.3-1.9-4.3l2.5-3.1-.8-1.8.2-1.1.5-.2,7,3.3,1.2,1.4.2,1.5.8.2.4,1,1.6,1.4-2.8,2.4-2.8.7-2.5,1.8Z"/>
    <path id="US-IA" d="M295.2,147.3v.6c.1,0,1.2,1.9,1.2,1.9l-.8.9v2.4s.4,1,.4,1l.5,1.8,2.8,1.1.8,1.8.5.9,1,.6.4,1.2,1.3.9.9,1-.5,3.1-1.6,2.6-.6.8-2,.7-2.9.6-.8,2,1.1.9.4,1.7-1.1,1.9-.6,1.7-2.2,1.7-.2,2-1.2-.9-1.6-1.8-9.3.2h-9.8c0,0-7.6,0-7.6,0h-7.7s-.6-2-.6-2l.2-2-.2-1.9-.9-3.3-.6-1.4-.6-.4v-2.6c0,0-.6-1.9-.6-1.9l-1.5-2.2v-.9s-.5-1.9-.5-1.9l-.4-1.1v-1.1s-1.4-1.3-1.4-1.3l.7-1.9.4-1.9.2-1.3-1.1-1.6v-2.8s1.1,0,1.1,0h9.3s11.6-.1,11.6-.1h12.5c0,0,11.2.1,11.2.1Z"/>
    <path id="US-ID" d="M126,135.5l.3.2v29s-25.4,0-25.4,0h-25.5c0,0,.1-20.9.1-20.9l.7-3.4-.7-1.5-1.6-.8v-1.9s1.2-2.7,1.2-2.7l1.8-2.4,1.2-3.9,1.1-3.1.9-1.6-.5-1.8-1.4-1-2-2.3v-2.2c0,0-.7-1.9-.7-1.9l-.2-17.4v-16.3s8.3,0,8.3,0l.7,13.5,2.3,3.4v2.3s1.6,2,1.6,2l2,1.2,1.4,1.9,2.4,3.8,2.2,1.8h2.6c0,.1-.9,2.9-.9,2.9l-.8,3.2.7,3.1-1,.8v3.1c0,0,1.6,1.2,1.6,1.2l1.7-1.4.9-1.7,1,.3,1,1.7,1,3.8,1.5,1.5.5,3.1.5.9,1.7.3,1,1.7,1.5,3.1,1.6-1.6,2.8.4.2-1.2,4.8.7,2-.4,1.2-2.4.9.3.8,1.7.9.7Z"/>
    <path id="US-IL" d="M324.4,159h0s0,3,0,3l2.3,6h0v13.1s0,12.8,0,12.8l-1,3.1.7.8.5,1.9v1.5c0,0-.8.7-.8.7l-.6,1.8-1.8,2.4-1.2,2.9-.3,2.2v.8c0,0-.9,1.5-.9,1.5l.7,1-1.5.8-1.9.9.3,2.3-1.1.9-2.1-1-2.3-.6-.6,1,.3,1.6-1.5-1.7-.9.3-1.1-2.6.3-1.6-.6-2.6-.9-.3-2.2-2.4h-1s-1.7-1.6-1.7-1.6l-1.2-1.6.6-1.9.8-1.6.5-2-1.6-1.8-1.6.7-1-.5v-1.8c-.1,0-.8-2.1-.8-2.1l-.8-.5-2-1.5-1.6-1.9-1.4-2.3-.8-3.3.8-2.8.2-2,2.2-1.7.6-1.7,1.1-1.9-.4-1.7-1.1-.9.8-2,2.9-.6,2-.7.6-.8,1.6-2.6.5-3.1-.9-1-1.3-.9-.4-1.2-1-.6-.5-.9h17.6s6.6.1,6.6.1h0s0,0,0,0Z"/>
    <path id="US-IN" d="M349.9,168.4v10.2s0,10.8,0,10.8v7.6c0,0-.5.5-.5.5l.7,2.2-.4.8h-1.4s-1.3,1-1.3,1l-2-.4-.2,2.1-1.2.8-1.1,1.9-1.2.3-1.9,3.2-1.7-.9-.5-1.3-1.5,2.2-.9,1.2-1.8-1.3-2,1-.6,1-2.6-1.6-1.8,1.2-2.2-.8v1.2c0,0-1.2-.3-1.2-.3l.3-2.2,1.2-2.9,1.8-2.4.6-1.8.7-.7v-1.5c0,0-.4-1.9-.4-1.9l-.7-.8,1-3.1v-12.8s0-13.1,0-13.1h0l.8.8h2.9c0,0,2.3-1.3,2.3-1.3h9.2c0,0,8,0,8,0v.9Z"/>
    <path id="US-KS" d="M266.3,219.7h-7.5s-15.3,0-15.3,0h-15.3s-8.5,0-8.5,0h-8.5s-8,0-8,0v-15.7s0-16.9,0-16.9h57.3l2,1.5h1.1s.2,1.6.2,1.6l-1.2,2,.6,1,1.1,2.3,2.2,1v11.6c0,0-.2,11.4-.2,11.4Z"/>
    <path id="US-KY" d="M368.8,204.5l.2,1v2.2c0,0,.9,1.7.9,1.7l.4,1.6,1.2,1.4.9,1.3,1.7.2-3.4,3.2-2.7,1.2-.2.9-.9,1.1-2.3,1.3-.8,1-1.8.7-2.5.6-5.8.3-7.5-.5h-2.4c0,.1-4.9-.2-4.9-.2h-5c0,0-4.6-.1-4.6-.1l-5.3.3-.3-.5h-1.7s0,1.7,0,1.7h-12.2c0,0,1.9-1.2,1.9-1.2l1.4-.9-.2-1.7.3-1.1-.3-1.6.6-1,2.3.6,2.1,1,1.1-.9-.3-2.3,1.9-.9,1.5-.8-.7-1,1-1.5v-.8c0,0,1,.3,1,.3v-1.2c0,0,2.3.8,2.3.8l1.8-1.2,2.6,1.6.6-1,2-1,1.8,1.3.9-1.2,1.5-2.2.5,1.3,1.7.9,1.9-3.2,1.2-.3,1.1-1.9,1.2-.8.2-2.1,2,.4,1.3-1h1.4s.4-.8.4-.8l-.7-2.2.5-.5,2.9.3,1.5,1.1,2.3,2.5,1.8.8,1.3.9,2-.3,1.5.6,1.8-.6,1.6-.2.7,1.5,1.6,1Z"/>
    <path id="US-LA" d="M295.8,261.1l.6.6-.8,1.5,1.2,2.1-.3,1.2,1.1,1.7-1.2,1-.4,1.9-1.6,1.6-.8,2.1-.8,2.4-1,1.1.3,2.5,7.5.3h8s-.2,1.7-.2,1.7l-.6,1.6.5,1.2,1.1,1.1.3,1.6.2,1-1,4.1,2.7,5.8-11.7.4-7.2-2-4.9-2-6.5-1.3-7.4-.3-.7-1.3.9-1.4,1.3-1.3v-2s-.6-.7-.6-.7l.7-2.3.5-1.1.8-3.6-.8-1.3-1-2.3-.7-2.3-.5-1.5-1.4-1.1-.5-10.7h8.2s9.3-.3,9.3-.3l7.2.3Z"/>
    <path id="US-MA" d="M469.2,154.7v6.1c0,0,2.7,6.1,2.7,6.1l3.5.3-.9-4.2,2.6,2.5-.7,3.3-5.8,1.8-4.1-.2-.2-1.7-1.3-1.3-.6-3h-3.6c0,.1-7.9-.1-7.9-.1l-6.5-.2,1.8-7.9,7,.2h10.3c0,0,.9-1,.9-1l1.8-.8,1,.2Z"/>
    <path id="US-MD" d="M426.8,190.3l.6,13.9h5.7l.5,1-3.3,3.7-2,.2-.7.7-4.3-5.2-.4-8.2-1.4,3.8v9.4c.1,0-5-3.2-5-3.2l-.5-1.5-1.4.5-1.1-.6,1-2.4,1.5-1,.2-.9,1.1-1-1.1-1.1-.7.5-1.6-1.2-1.8-.7.6-1.2-1.1-.8-1.3-.4-.7-1.4-1-1.6-2.6-.9-1.6.8-.9.8-2.5-.4-1.1,1.1-1.7.4-1.5,1.3-1.3,1v-5.6c0,0,8,0,8,0h2.7s6,0,6,0h7.3c0,0,7.5,0,7.5,0Z"/>
    <path id="US-ME" d="M470.6,152.1h-.9c0,.1-.4-1.5-.4-1.5l-1.6-1.7.3-1.2-1.1-21.6,3.5-2.1,3-5.5,2.6-9.6,6.5-9.4,2.8,3.3,5.7-2.1,3.8,3.6v16.8s5.6,6.8,5.6,6.8v5.1c.1,0-8.2,3.8-8.2,3.8l-8.3,2.8-9.7,7.1-3.8,5.5Z"/>
    <path id="US-MI" d="M352.2,110.8h0l2.8.4h0l-1.1,1.2,4.2,4.9-7.5,1.1h-.3c0,0-6.7-1.3-6.7-1.3l-6.7,2.4-5.8,1.1-5,7.7h-.2c0,0,0,0,0,0l-1.1-1.4.6-1.9h-1.9c0-.1.4-2.1.4-2.1l.5-1-.8-1.7-2-.8-.5-2-1.7-.2h-2.4s-4.9-2.2-4.9-2.2l-7.5-2.2-.7-2.2-1.3-.4h0s-.5.2-.5.2h0c0,0,0,0,0,0l6.6-3.2,6.8-4,7.5-4.1-2.7,6.6,4.8,1.6,6,4.7,7.6-2.7,8.4-1.1,1.8,3.5,2.6.5.5-1.2ZM370.4,153.3h0l-.2.2-4,6.4-1.9,4h0l-2.9,4.4h-3.2c0,0-3.9,0-3.9,0h-4.4c0,0,0-.8,0-.8h-8c0,0-9.2,0-9.2,0h0l1.7-1.6,3.5-5.6.2-7.6-2.8-7.2.4-5,2.2-5.8,2.1-4,3.4-2.9.8,4,1.5-5.9,1.9-1.2,1.2-4.6,7.2,2.4,6.3,4.7.7,5.5-.8,5.4-4.7,4.7.4,3h1.7c0,0,5.3-5.1,5.3-5.1l3.2,1.2,1.5,6.8.4,4.8.2-.2Z"/>
    <path id="US-MN" d="M309.1,92.4h0s-8.7,4.2-8.7,4.2l-6.1,5-5.8,5.3v1.8s-2.3.7-2.3.7v6.9c0,0-.2,0-.2,0l-2.1,1.4-1.8,1.2-1.2,2.2,1.8,2.3-.6,3v3.3s-.3,2.6-.3,2.6l2.5,2.3h1c0,.1,2.8,1.8,2.8,1.8l1,.8.6,1.3,2.2,2,2.9,1.8.3,1v2.8s.2,1.3.2,1.3l-11.2-.2h-12.5c0,0-11.6.2-11.6.2h-9.3s.1-11,.1-11l-1-11.5-1.5-.9-.8-1.9.5-1.7,1.9-1.4v-1.8c.1,0,.2-2.2.2-2.2l-.5-1.9-.7-2-.4-2.5v-2.8c0,0-.4-.7-.4-.7l-.4-3.7v-1.7s-.2-1.5-.2-1.5l-.4-2.6-1-2.6-1-2.3v-2.3c-.1,0-.3-2.5-.3-2.5l.3-1.6v-1.5c0,0-.7-1.9-.7-1.9v-1.3c-.1,0,17.5,0,17.5,0v-5s2.9,0,2.9,0l1.5,7.1,2.7,2.2,6,.8,8.7,2.1,8.3,4,6.9-1.7,10.5,3.3Z"/>
    <path id="US-MO" d="M293.5,183.1l-.8,2.8.8,3.3,1.4,2.3,1.6,1.9,2,1.5.8.5.7,2.1v1.8c.1,0,1.1.5,1.1.5l1.6-.7,1.6,1.8-.5,2-.8,1.6-.6,1.9,1.2,1.6,1.7,1.5h1s2.2,2.4,2.2,2.4l.9.3.6,2.6-.3,1.6,1.1,2.6.9-.3,1.5,1.7-.3,1.1.2,1.7-1.4.9-1.9,1.1-.2,1-.5,1.5-.7,2.6h-5.6l.5-1,1-1.1,1-1.1-.7-1.3-9.7-.6h-9s-9.4,0-9.4,0l-10.4-.2v-4.9c0,0,0,0,0,0v-11.4c0,0,.2-11.6.2-11.6l-2.2-1-1.1-2.3-.6-1,1.2-2-.2-1.6h-1.1s-2-1.5-2-1.5l-1.1-2.4-1.3-1.4-1.4-1.8-.2-.9h7.7s7.6,0,7.6,0h9.8c0,0,9.3-.3,9.3-.3l1.6,1.8,1.2.9Z"/>
    <path id="US-MS" d="M321.3,240.7l.6,2-1.5,13.3-1.5,16.1.3,15.1-5.2,2.2-4.9-.2-.2-1-.3-1.6-1.1-1.1-.5-1.2.6-1.6.2-1.6h-8s-7.5-.3-7.5-.3l-.3-2.5,1-1.1.8-2.4.8-2.1,1.6-1.6.4-1.9,1.2-1-1.1-1.7.3-1.2-1.2-2.1.8-1.5-.6-.6.4-2-1-2.7.2-2.4,1.9-3.6.9-2.1,1.5-1.4,1-.6,1.1-2.8v-1.5s1.6-.8,1.6-.8l.2-.8h8.4l9.3.2Z"/>
    <path id="US-MT" d="M186.1,118l-.4,11.1h-14.2c0-.1-15.4,0-15.4,0h-13.3c0-.1-16.8,0-16.8,0v6.1s-.1.4-.1.4l-.9-.7-.8-1.7-.9-.3-1.2,2.4-2,.4-4.8-.7-.2,1.2-2.8-.4-1.6,1.6-1.5-3.1-1-1.7-1.7-.3-.5-.9-.5-3.1-1.5-1.5-1-3.8-1-1.7-1-.3-.9,1.7-1.7,1.4-1.5-1.2v-3.1c0,0,.9-.8.9-.8l-.7-3.1.8-3.2.9-2.7h-2.6c0-.1-2.2-1.9-2.2-1.9l-2.4-3.8-1.4-1.9-2-1.2-1.6-2v-2.3s-2.2-3.4-2.2-3.4l-.7-13.5h25.5s25.5,0,25.5,0h25.5s25.5,0,25.5,0v23.3c.1,0,.6,15,.6,15Z"/>
    <path id="US-NC" d="M426.1,224.5l1.2,10.5-5.4,7.7-8.4,4-7.3,5.2-3,.6-9.5-9.7h-9.5c0,0,0-1.3,0-1.3l-1.3-1.8-.9.7v-.9c0,0-4.1-.5-4.1-.5h-7.9c0,0-4.6,1.7-4.6,1.7l-.9.3h-10.6c0,0,.2-2.3.2-2.3l1.8-.7.6-1.1,1.2-1.3,1.7-.3,2-.5,2-.9.8-.9,1.6-.8v-.8s2.1-1.4,2.1-1.4l.7.9,3.1-2,1.5.2,1.3-1.8,1.7-.5v-1.5c0,0,.1-1.3.1-1.3l14.4.5h17c0,0,9,0,9,0h9.2Z"/>
    <path id="US-ND" d="M244.1,79.7v1.3c.1,0,.9,1.9.9,1.9v1.5c0,0-.3,1.6-.3,1.6v2.5c.1,0,.3,2.3.3,2.3l1,2.3,1,2.6.4,2.6.2,1.5v1.7s.4,3.7.4,3.7l.3.7v2.8c0,0,.5,2.5.5,2.5l.7,2,.5,1.9v2.2s-16.2.7-16.2.7h-13.8s-17.5,0-17.5,0h-16.3c0,0-.4-15-.4-15v-23.3c-.1,0,29.4,0,29.4,0h29Z"/>
    <path id="US-NE" d="M250.7,159.1l.4,1.1.5,1.9v.9s1.5,2.2,1.5,2.2l.5,1.9v2.6c0,0,.7.4.7.4l.6,1.4.9,3.3.2,1.9-.2,2,.6,2,.2.9,1.4,1.8,1.3,1.4,1.1,2.4h-57.3v-11.2s-17,0-17,0v-22.8c0,0,16.6,0,16.6,0h29.9l2.2,1.5,3.1.9.7-.5h2s3,0,3,0l2.2,1.5,2.3,1,.4,1,.7.6,1.4.2Z"/>
    <path id="US-NH" d="M470.6,152.1l-1.4,2.6-1-.2-1.8.8-.9,1.1h-10.3c0,0-.7-1.3-.7-1.3l.7-1.5.2-3.1.3-.7.3-2.8.9-2.3.7-1,1-2.8.2-1.9.3-1.2,1.6-.6,1.9-1.4.3-1.5-.6-1.7,1-3.3h0s.9-3,.9-3l2.8-.4,1.1,21.6-.3,1.2,1.6,1.7.4,1.6h.9Z"/>
    <path id="US-NJ" d="M442.8,176.5l-2.9,5.5,2.1.5-1.5,8-6.2,8.4-.6-2.8-1.9-.6-2-2.9h-.8c0,.1-.2-2-.2-2l1.3-1.1,1.7-1,.6-.7,2-1.5,1.1-1.2-2.7-2.9-.2-1.2-.9-.3v-1.8s1-1.4,1-1.4l-.5-1.5,1.4-1,1.5-2.5,1-.5,6.5,4.5Z"/>
    <path id="US-NM" d="M194.9,219.8v5.2s0,27.2,0,27.2v19h-30.9v.8c0,0,1,1.6,1,1.6h-14.7v4.1c-.1,0-6.9,0-6.9,0v-58.1s13.3,0,13.3,0h13.5s14.5,0,14.5,0h10.2Z"/>
    <path id="US-NV" d="M100.9,164.8v55s0,8.5,0,8.5l-.4.4-.6,1.6-1.2-.4-1.6-.7h-1.8l-.6,1.3.8,1.4v2.2s.2,2,.2,2l.4,2-.5,2-14.3-13.3-15.3-14-16.1-14.6v-33.5s25.3,0,25.3,0h0s25.5,0,25.5,0Z"/>
    <path id="US-NY" d="M448.1,156.2l-1.8,7.9-.5,8.7.7,1-1.9,1.1.3,1.4,12.1-1.5,2.5,2.1-11.9,3.4h-5.4s.6-3.7.6-3.7l-6.5-4.5-1.4-.8-1.5-.8-.6-1.6.2-1.3-1-1-1.9-1.8h-11.6s-12.4,0-12.4,0h-13.3v-3.1l7.3-6.9-.2-1.1h0s-1.2-3.4-1.2-3.4l4.4-1.5,6.7.4,7,1,6.4-3.9-.5-4.6-1-1.8h0s0,0,0,0l8.8-8.1,3.8-2.2h12.9c0,0-.2,2.3-.2,2.3l-.3,1.5.2,3.5.5,1.8-.9,2.4.8,3.1-.5,1.7.2.4h1.2c0,0-.4,9.7-.4,9.7Z"/>
    <path id="US-OH" d="M386.5,180.1l-1.2.6.4,1.4-.4,2.6-.9,2.9-.8,2.4v1.1c-.1,0-2.5,2.5-2.5,2.5l-1,.5-1.2.3-1-.2-1.9,1.9-.3,2-.3,1.1-.8.4v-1.2c-.1,0-1.3-.3-1.3-.3l-1.2,2.4v2.4c-.1,0-1.2,1.5-1.2,1.5l-2.1.3-1.6-1-.7-1.5-1.6.2-1.8.6-1.5-.6-2,.3-1.3-.9-1.8-.8-2.3-2.5-1.5-1.1-2.9-.3v-7.6c0,0,.1-10.8.1-10.8v-10.2s4.4,0,4.4,0h7.1c0,0,5.2,2.2,5.2,2.2l4.3.6,6.2-1.5,5-3.2,4.4-1.5v15.1Z"/>
    <path id="US-OK" d="M266.2,224.6l1.7,11.1-.2,10.1-.2,9-3.7-2-2.4-1.1-1.9.7h-3c0-.1-1.8,0-1.8,0l-1.5.8-1.4.4-1.2-.5-2.8.5-1.3-1.7-1.3,1.5-2.3-.7-2.4-1.6-2.6,1-1.1-2.5-4,.2-2.5-.6-2.9-.7-1.3-2.1-2.2.7-1.4-.8-2-1.1v-20.2h-25.6v-5.2s8.2,0,8.2,0h8s8.5,0,8.5,0h8.5s15.3,0,15.3,0h15.3s7.5,0,7.5,0h0v4.9Z"/>
    <path id="US-OR" d="M76.3,117.4l2,2.3,1.4,1,.5,1.8-.9,1.6-1.1,3.1-1.2,3.9-1.8,2.4-1.2,2.7v1.9s1.6.8,1.6.8l.7,1.5-.7,3.4v20.8c-.1,0-.1,0-.1,0h-25.3c0,0-35.9,0-35.9,0l-2.7-6.4,2.6-12.5.6-13.4,1.5-18.3,1.8-.2h2.6c0,0,2.1,1.2,2.1,1.2l2.5.7,1.6,2.3.2,2,.6,1.7,2,.5h2.1s3.3-1.3,3.3-1.3l1.9-.4,3,.5,1.3.6,1.8-.4,1.9-1,3.8.2,3.2-1.3,1.7-1,2.2.5,3.1-1.3h17.6Z"/>
    <path id="US-PA" d="M436.2,172l-1,.5-1.5,2.5-1.4,1,.5,1.5-1,1.4v1.8s.9.3.9.3l.2,1.2,2.7,2.9-1.1,1.2-2,1.5-.6.7-1.7,1-1.8-.6-.8.5-.7.9h-7.5s-7.3,0-7.3,0h-6s-2.7,0-2.7,0h-7.9s-8.9,0-8.9,0v-25.4h0l6.4-3.3h0s0,3.1,0,3.1h37.3s1.9,1.8,1.9,1.8l1,1-.2,1.3.6,1.6,1.5.8,1.4.8Z"/>
    <path id="US-RI" d="M466.6,170.4l-6.3,2,.5-1.7v-6.2c0,0,3.5-.1,3.5-.1l.6,3,1.3,1.3.2,1.7Z"/>
    <path id="US-SC" d="M403.2,252.4l-3.3,7.1-7.4,6.2-8.9,5.1-1.5-.5-.8-.4v-1.9s-.8-1.9-.8-1.9l-1.6-1.1.3-.7-.5-1.1-.6-2.3-2.7-2-1-2.4-2-1.7-.6-1.3-3-2.4-1-1.8-1.6-3.2-1.5-.6-2.3-1.7,1.4-2,.9-.9.9-.3,4.6-1.8h7.9c0,0,4,.6,4,.6v.9c0,0,.9-.7.9-.7l1.3,1.8v1.2s9.4,0,9.4,0l9.5,9.7Z"/>
    <path id="US-SD" d="M250.7,147.3h-1.1s0,2.9,0,2.9l1.1,1.6-.2,1.3-.4,1.9-.7,1.9,1.4,1.3v1.1s-1.4-.2-1.4-.2l-.7-.6-.4-1-2.3-1-2.2-1.5h-3c0,.1-2,0-2,0l-.7.5-3.1-.9-2.2-1.5h-46.5l-.2-24.1.4-11.1h16.3c0,0,17.5-.1,17.5-.1h13.8s16.2-.6,16.2-.6v1.8c-.1,0-2.1,1.4-2.1,1.4l-.5,1.7.8,1.9,1.5.9,1,11.5v11Z"/>
    <path id="US-TN" d="M359.6,224l12.7.4,4.3-.2-.2,1.3v1.5c0,0-1.6.5-1.6.5l-1.3,1.8-1.5-.2-3.1,2-.7-.9-2.1,1.4v.8s-1.6.8-1.6.8l-.8.9-2,.9-2,.5-1.7.3-1.2,1.3-.6,1.1-1.8.7-.2,2.2h-4.5c0,.1-6.6,0-6.6,0h-10.9c0-.1-10.7-.1-10.7-.1l-9.3-.2h-8.4l1-1v-3c0,0,1.2-1.4,1.2-1.4l.3-1.7,1.5-1,.9-1.5v-.9c0,0,.7-2.6.7-2.6l.5-1.5.2-1h12.2c0,0,0-1.6,0-1.6h1.7s.3.5.3.5l5.3-.3h4.6c0,0,5,.1,5,.1l4.9.3h2.4c0-.1,7.5.3,7.5.3l5.8-.3Z"/>
    <path id="US-TX" d="M267.5,254.7l.4.7h1.7c0-.1,2,0,2,0l-.5,5.8.5,10.7,1.4,1.1.5,1.5.7,2.3,1,2.3.8,1.3-.8,3.6-.5,1.1-.7,2.3.6.7v2s-1.3,1.3-1.3,1.3l-.9,1.4.7,1.3-7.3,2-7.8,7.2-8.5,4.2-4.7,4.6-2,4.3v6.6c0,0,.3,4.5.3,4.5l1.6,3.2-3.3.3-6.1-2.1-6.6-2.9-2.4-4.5-1.9-6.7-5-5.5-2.9-5.7-4.3-6.6-6-3.9-7,.2-5.4,7.7-7.1-2.9-4.4-2.9-2.1-5.4-2.8-5.1-5.1-4.3-4.4-3.1-3.1-3.5-.9-1.6v-.8c0,0,7.6,0,7.6,0h23.2v-46.2h25.6v20.2l2,1.1,1.4.8,2.2-.7,1.3,2.1,2.9.7,2.5.6,4-.2,1.1,2.5,2.6-1,2.4,1.6,2.3.7,1.3-1.5,1.3,1.7,2.8-.5,1.2.5,1.4-.4,1.5-.8h1.8s3,0,3,0l1.9-.7,2.4,1.1,3.7,2Z"/>
    <path id="US-UT" d="M143.3,176v43.7c0,0-12.3,0-12.3,0h-16.4s-13.7.1-13.7.1v-55s25.4,0,25.4,0v11s17,.3,17,.3Z"/>
    <path id="US-VA" d="M423.7,217.9l2.4,6.6h-9.1c0,0-9,.1-9,.1h-17c0,0-14.4-.5-14.4-.5l-4.3.2-12.7-.4,2.5-.6,1.8-.7.8-1,2.3-1.3.9-1.1.2-.9,2.7-1.2,3.4-3.2.4,1.8,1,1,1.3.9,2.7-1.3,1,.8,3.2-.9.2-1,1,.4,1.1-.8,1.2.2,1.4-.8.2-1v-1.3c-.1,0,1-1.9,1-1.9l1.6-1.4.4-1.6,1.5-1.9.8-2.4,1.1.8,1.3.8,1.2-.4.4-1,.8-1.3.9-1.5.6.5,1.3-1.4,1.7-1.4,1.1-1.1.7-2.9,4.4,3,1-2.1,1.2.4,1.1.8-.6,1.2,1.8.7,1.6,1.2.7.9v.6s-.2.9-.2.9l-1.5,1-1,2.4,1.1.6,1.4-.5.5,1.5,5.4,6,1.6,5.1v.3ZM430.3,208.9l-2,.2-.7.7-2.9,7.2.8.4,4.8-8.5Z"/>
    <path id="US-VT" d="M455.2,156.3l-7-.2.4-9.6h-1.2c0,0-.2-.5-.2-.5l.5-1.7-.8-3.1.9-2.4-.5-1.8-.2-3.5.3-1.5.2-2.4h15.7s0,0,0,0l-1,3.3.6,1.7-.3,1.5-1.9,1.4-1.6.6-.3,1.2-.2,1.9-1,2.8-.7,1-.9,2.3-.3,2.8-.3.7-.2,3.1-.7,1.5.7,1.2Z"/>
    <path id="US-WA" d="M75.3,79.7v16.3s.3,17.4.3,17.4l.8,1.9v2.2c0,0-17.7,0-17.7,0l-3.1,1.3-2.2-.5-1.7,1-3.2,1.3-3.8-.2-1.9,1-1.8.4-1.3-.6-3-.5-1.9.4-3.3,1.3h-2.1s-2-.4-2-.4l-.6-1.7-.2-2-1.6-2.3-2.5-.7-2.1-1.1h-2.6c0,0-1.8.1-1.8.1l-2.3-10.3-1.4-12.1,11.9,2.3,3.8,9.8,2.1-3.3-1.4-10.4-4-10.6h25.3c0,0,25.3,0,25.3,0Z"/>
    <path id="US-WI" d="M302.2,110.3h0c0,0,.5-.2.5-.2h0s1.3.4,1.3.4l.7,2.2,7.5,2.2,4.9,2.2h2.4s1.7.2,1.7.2l.5,2,2,.8.8,1.7-.5,1-.4,2h1.9c0,.1-.6,2.1-.6,2.1l1.1,1.4h0s.2,0,.2,0h0c0,.1-3.3,4.4-3.3,4.4l1.2,1.4,6.3-7.7h1.3s-4.4,9.2-4.4,9.2l-1.9,8.2-1.6,6.6,1.1,5.7-.2,2.8h0s-6.6,0-6.6,0h-8.9s-8.7,0-8.7,0l-.8-1.8-2.8-1.1-.5-1.8-.4-1v-2.4s.7-.9.7-.9l-1.1-1.9v-.6c-.1,0-.4-1.3-.4-1.3v-2.8s-.3-1-.3-1l-2.9-1.8-2.2-2-.6-1.3-1-.8-2.8-1.7h-1c0-.1-2.5-2.4-2.5-2.4l.3-2.6v-3.3s.7-3,.7-3l-1.8-2.3,1.2-2.2,1.8-1.2,2.1-1.4h.3s0-6.9,0-6.9l2.2-.7h0l8.5-2.6,5.2,4.2Z"/>
    <path id="US-WV" d="M395.3,190.3v5.6c0,0,1.2-1,1.2-1l1.5-1.3,1.7-.4,1.1-1.1,2.5.4.9-.8,1.6-.8,2.6.9,1,1.6.7,1.4-.9,2.1-4.4-3-.7,2.9-1.1,1.1-1.7,1.4-1.3,1.4-.6-.5-.9,1.5-.8,1.3-.4,1-1.2.4-1.3-.8-1.1-.8-.8,2.4-1.5,1.9-.4,1.6-1.6,1.4-1.2,1.9v1.3c.1,0,0,1,0,1l-1.3.8-1.2-.2-1,.8-1-.4-.2,1-3.2.9-1-.8-2.7,1.3-1.3-.9-1-1-.4-1.8-1.7-.2-.9-1.3-1.2-1.4-.4-1.6-1-1.7v-2.2c0,0,0-1,0-1l2.1-.3,1.1-1.5v-2.4c.1,0,1.3-2.4,1.3-2.4l1.1.3v1.2c.1,0,.9-.4.9-.4l.3-1.1.3-2,1.9-1.9,1,.2,1.2-.3,1-.5,2.3-2.5v-1.1c.1,0,1-2.4,1-2.4l.9-2.9.4-2.6-.4-1.4,1.2-.6v10.2h8.9Z"/>
    <path id="US-WY" d="M185.7,129.1l.2,24.1v22.8c0,0-8.5,0-8.5,0h-17.1s-8.5,0-8.5,0h-8.5l-17.1-.3v-11s0-29,0-29l-.3-.2.2-.4v-6.1s16.7,0,16.7,0h13.3c0,.1,15.4,0,15.4,0h14.2Z"/>
  </g>
</svg>