<svg xmlns="http://www.w3.org/2000/svg" xmlns:amcharts="http://amcharts.com/ammap" id="Layer_1" viewBox="0 0 512 512"><g id="_x3C_defs"><amcharts:ammap bottomLatitude="38.833" leftLongitude="43.454" projection="mercator" rightLongitude="46.633" topLatitude="41.301"/></g><g><path id="AM-AG" d="m128.7 121.7 4-.5 2.5 1.4 4.3 5.1h6.2l.9-4.4 3-.5h2.7l6.9 4.2 3-1.4 3.7 4-.2 6.8-.2 1.3 3.9 4.9 1.2 3.3 5.3 6.3 13 2.8-1.6 8.4-4.8 7.4h-2.1l.5 6.7-2.8 6-.9 10-4.8-.2-1.4 3.7-10.8 11.1-.5 1.6.9 1.6 6.2-1.2 1.1 1.9.4 2.3-2.6 6.1-3.1 5.2v2.8l-17.1-6.6-4.4-4.9-7.2 6.5-4.1-1-2.4-3.2-1.4.5.8 12-1.8 1.3-13.5-.3-20.3-5-5.9-.5-6.5-5.4-1.9-.5-.4-2.8-8.5-1-4.6-2.2-8.6.7-4.2 3-4.8-2.2-1.2-6.4-6.9-7.6 5.3-10.1-1.3-5.8-2.4-2.3 8.7-1.9 10.1-9.3 5.7-.5 5.5-2.1 5.5 2.6 6.5-1.3 4.9 2.9h4.2l4.5-2.6h2.6l2.8.8 3.6 3.6 2.8.3 3.4-1.6 8.1.8 6.1-2.3 2.2-2.1h1.8l.8-4.1-3.4-3.9-.2-2.3v-3.4l1.8-4.7-7.1-1-.6-6-4.5-7-.2-2.9.6-2.9 4.9-4.7 7.7-1 .6-6.8Z"/><path id="AM-AR" d="m158 270.3-2.5-3.3-5.8-2.3 1.1-11.2-3.6-4.7v-4.2c.1 0 5-1.2 5-1.2l6.5.2 6.1 1.5 4 3.9 5.3 1.2 6.2 4.6 3.9-3.9 4.6-.9 6.4-5.1 3.1-5-.4 8.3 1.9 3 6.9.9 1.2-.5.9-3.2h2.1l3.2-2.3 2.1.2 2-4.2 10.6-.6 2.5-5.5 2.7-1.2 2.8.2 3.2-1.4h15l.8 1.5-2.1 11.6v6l12.6 19.2.7 15.7-.9 7.6 1.2 2.1-4.6 3.6-2 3.2-1.4 7.1-4.9 2.6-3 5.7-6.8 3.5-30.9 3.5-.5-3.8-3.5-.7-2.8-5.8h-2.5l1-3.9-1.4-1.1-3.4 1.1-8.1-5.4.6-2.5-3.6.5-.7-4.9-4.9-5.2-1-5.1-5.2-4.4-5.1-7.5-3.5-1-7-5.8-4.5-.9Z"/><path id="AM-AV" d="m50.5 219.4 4.2-3 8.6-.7 4.6 2.2 8.5 1 .4 2.8 1.9.5 6.5 5.4 5.9.5 20.3 5 13.5.3 1.8-1.3-.8-12 1.4-.5 2.4 3.2 4.1 1 7.2-6.5 4.4 4.9 17.1 6.6 2.9 5.1-1 7 1.1.8-.5 3.7-6.1-1.5-6.5-.2-4.9 1.2v4.2c-.1 0 3.5 4.7 3.5 4.7l-1.1 11.2-2.1-1.2-2.5.7-3-2.5-2.9-.3-4.9 1.4-1 1.2-4.2.2-.6 1.5h-9.4l-1.5-1.2-7.1 1.6-11.6-.3-3.5 1.6H86l-15-7.8-5.4-4.1h-7.7l-3.4-3.1-5-2.1-2.1-2.7.3-4.4 2-2.8 7.5-2-1-2.6-8.6-7.9.4-1.6 4.4-.3v-5.6l-1.5-1.4Z"/><path id="AM-ER" d="M162.5 228.6v-2.8l3.1-5.2 2.2 2.5 6.9-.2 7.8-2.8 4.1.7 1.2 3.9 10.1 7.9 1.8 3-1.3 4.5-3.1 5-6.4 5.1-4.6.9-3.9 3.9-6.2-4.6-5.3-1.2-4-3.9.5-3.7-1.1-.8 1-7-2.9-5.1Z"/><path id="AM-GR" d="m324 154.5-2.1-.6-2.4-8.9 3.9-5.9 5.3.7 2.9 3.3-.6 4.9-4.1 2.2-1.4 3.6-1.5.8Zm-102.1-10.9h6.7c0 .1 8.1-7.6 8.1-7.6l8.6 5.2 3.6.6 7.1-1.4 9.4-10 5.5-2.6 10.2-1.7 9 2.1 4.7 2.2 9 8.5-1 3.6 3.8 3.8-.6 4.6 2.5 2.3 4.3.2 3.6 3.8-2.4 3.4.8 2.3-1.6 2.5.6 3.2 2.3 3.4 7.3 4.9.4 3.1 3.1 3.4 5.6 3.4 4-.3 2.2 1.4 5.1 4.8.5 2.5 2.3 3.1h6.5l3.3 2.6 6.8 1.5 3.3 3.9 12.3 3.5 3.1 3.3 6.9-.2 4.1 3v3.5l-2.8.8v1.4l6.1 8.1-2.2 5-1 11.1-7.6 3.8.6 6-4.1 10.4-5.4 1.7-.9 3.2-1 .4-6.9-6.5-2.3.9-12-.5-3.1-1-3.1 1.7h-4.9l-1.3 1.4-.9 4h-3.5l-3-2.1-4.8-.2-1.1 3.5-3.5 2.8-7.4 1.8-17.2.9-14.2 5.1-7.8 6-6.2 6.9-3.6 1.7-1.2-2.1.9-7.6-.7-15.7-12.6-19.2v-6l2.1-11.6-.8-1.6-.7-1.5-3-1.9-2.3.2-2.1-1.2-2.7-3.7-1.1-7.2-2.3-3.9-6.2-28.7 4.7-6.2-6.2-1.6-3.5-3.2-3.7-11.8-5-2.4v-17.4h-.1l.8.2Z"/><path id="AM-KT" d="M221.1 143.4v17.4c.1 0 5.1 2.4 5.1 2.4l3.7 11.8 3.5 3.2 6.2 1.6-4.7 6.2 6.2 28.7 2.3 3.9 1.1 7.2 2.7 3.7 2.1 1.2 2.3-.2 3 1.9.7 1.5h-15l-3.2 1.5-2.8-.2-2.7 1.2-2.5 5.5-10.6.6-2 4.2-2.1-.2-3.2 2.3h-2.1l-.9 3.2-1.2.5-6.9-.9-1.9-3 .4-8.3 1.3-4.5-1.8-3-10.1-7.9-1.2-3.9-4.1-.7-7.8 2.8-6.9.2-2.2-2.5 2.6-6.1-.4-2.3-1.1-1.9-6.2 1.2-.9-1.6.5-1.6 10.8-11.1 1.4-3.7 4.8.2.9-10 2.8-6-.5-6.7h2.1l4.8-7.4 1.6-8.4-13-2.8-5.3-6.3-1.2-3.3-3.9-4.9.2-1.3 7.4-5.4 11.4-.7 2.8 1.4h2.8l1.8-1.2h2.7l23.1 10.2 1.4 2.1 2 .5Z"/><path id="AM-LO" d="m231.9 22.6 1.6 3.6 4 2.1 1.1 1.9-.4 1.9-3.6 4-4.4 1.5-3.1 3L230 44l9.2 5.7 2.7 3.4-.9 3.7-2.1 2.8-5.6 3-11 2.8-2.8 5.2.8 5.9 3.4 2.3 10.3 2.7 1.8 2.8v2l-.8 1.8-2.9 1.9-3.5 13-5.2 4.6-7.1 3.9-2.5 4.2-.4 3.6 4.6 3.1-2.8 2.9.3 1.7 4.5 6.1-2.3 7.7-23.1-10.2h-2.7l-1.8 1.2h-2.8l-2.8-1.4-11.4.7-7.4 5.4.2-6.8-3.7-4-3 1.4-6.9-4.2h-2.7l-3 .5-.9 4.4h-6.2l-4.3-5.1-2.5-1.4-4 .5v-1.3l-9.1.5-.2-3.6-4.5-2.1-4.9.8-3.2-5.7-.6-9.4 1.4-2.9 4.9-3.6 5.3-.8 2.2-1.6 1.4-1.8-.8-4.7h2.8l2-2.1 2.6-6.3-2.4-1.3-8.1.3-.2-8.6-1.6-2.4-2.2-.8-1.8-5.2-5.3-1.6-3.4-3.1-.2-11.2 1.5-4.3 5.3-2h13.2l3.4-10.5 3.7 1.9 3.3-.4 4.6 4.5 2.4.7 4.2-1 3.7 2.8h1.7c0-.1 2.1-6.4 2.1-6.4l3.6 2.1 3.8 4.3 3.2 1 4.6 3.3 2.5-.3 4.7-2.7 3-5.6 1-.2.7.4-1 5.4 6.6-2.4 2.1 2.6 3.2-9.5 4.9 1.2 5.2-.8 1.7 3.8 4 .4 1.4 2.6 2.9-2.6 9.8-.5 5 2.1 5.5.5 2.5-.9-.7-1.9-3.2.3-6.7-2.1-3.3-3.8-.3-5.2 1.3-4.5 2.8-.3 3.1 3.8 6 2v1.6Z"/><path id="AM-SH" d="m56.8 112.4-.6-2.6-3.5-4.9-.8-4.5.9-7-1.3-6.3-7.9-7.1-6-3.6-3.2-.4-4.6-4.1-6.7-.9-1.6-2.6-.3-8.6-2.8-3-.5-2.6 2.5-5.1h2.9l10.3-3.8 3.2.2 5.2 3.3 2.3-.9 9.1-.2 10.3 5.2 5-6.4 7.4-4.5 13.6-1.9 4.9 1.7 4.8-3.5 5 .6-1.5 4.3.2 11.2 3.4 3.1 5.3 1.6 1.8 5.2 2.2.8 1.6 2.4.2 8.6 8.1-.3 2.4 1.3-2.6 6.3-2 2.1h-2.8l.8 4.7-1.4 1.8-2.2 1.6-5.3.8-4.9 3.6-1.4 2.9.6 9.4 3.2 5.7 4.9-.8 4.5 2.1.2 3.6 9.1-.5v1.3l-.6 6.8-7.7 1-4.9 4.7-.6 2.9.2 2.9 4.5 7 .6 6 7.1 1-1.8 4.7v3.4l.2 2.3 3.4 3.9-.8 4.1h-1.8l-2.2 2.1-6.1 2.3-8.1-.8-3.4 1.6-2.8-.3-3.6-3.6-2.8-.8H95l-4.5 2.6h-4.2l-4.9-2.9-6.5 1.3-5.5-2.6-5.5 2.1-5.7.5-10.1 9.3-8.7 1.9-3.2-3.2-2.8-.6-1.7-3.4 1.4-.5.2-2.2 8.9-6.5 1.7.8.7-3.5 2.4 1.1-.9-5.4 4.2-1.3 2.8-3.3 5.1-10.1 1.1-5.2 3-4.1-1.2-7.2 1-3.7-5.2-14.6Z"/><path id="AM-SU" d="m372.4 359.7-1.4-5.4-3.2-3-9.5-2.3-.8-16.2 2.4-6.2-1.7-6.8.5-5.8 9.1-13.3 4.3-2.6 2.1 6 7.6 2 5.4 3.7 7.5.7 1.6 1 3.2 3.6 1.3 4.2 3.6 3.3 1.2 3 3.8 2.4-.8 1.7.6 2.1.9.8 2.7-1.9 1.5.3 5.3 5.7 4.4 3 1 2.1.6 8.5 2.9-2.6 9.4.3 9.1-6 7.5-.6 1.6 4.5 2.4-.3 3.2-3.4.9.4-.6 9.1.9 1.6 3.3 1 1.3-1.2 2.2.7 1.8-1.5 7.6-1 5.3 2.8 2.5 3 .3 3.7-4.8-1.3-6.7 5.3.6 3.3 5.9 6.6-5.3-1.2-2.3-2.1-5.6 6.7-7.9-1.1-3.2 5.8.3 5.6 3.2 6.2 10.1 6.8 4.2-2.9 4.3 5.7v1.7l-1.9 2.8 4.3 6.9 4.2 1.4 2.1 4.1 5.7 1.3-8.3 1.6v2.7c-.1 0-5.1 6.8-5.1 6.8l-1.3-.9-1.3-6.3-1.7-.6-1.2 1.5.2 3.5-5.7-3.4h-3.1l-1.1 1.2 1.3 7.4 4 1.7 2.3-1 1.3.8-1.1 3.6 2.5 1.7.6 3.4 3.8 3.4-2.1 4 3.7 1.7-2 3.7 1.6 7-3.6 1.3.5 4.5-3.1 2.5v1.4l.1 2 4.7 7.6 1.2 4.8-1.5 1.1-1.4-.4-1-3.2-5.1.8-4.4-2.2-4.3.2-1.9 1.3-7.2-5.3-3.6-.6-4.6 3.4-4.5-.4v4l-1.1 1.5h-1.3l.3-3.6-1.5-1.3-1.8 4.9h-2.5l-.6 1.4 1.4 3.7-.7.7-1.7-1.9v-.3h-.1l-2.8-.8-3.1 3.6-1.4-.7v-2.3l-.9-.7-1.4 4.2-2.2-.2.7-9.4-4-9.9-1.8-14.8-3.7-3-.4-8.8-.9-1.6-6.3-3.8v-5.9l-2.8-3.9.7-4.3-2.1-2.1-.5-5.5-.2-6.6 1.7-2.2.3-2.9-1.2-4.1-5-1.2-15.4-11.1-7-.9-3.1-2.6-.4-4.3 6.9-10.7-.8-4.7-2.1-3.1.5-6.2-1.1-3.2Z"/><path id="AM-TV" d="m303.9 138.9-9-8.5-4.7-2.2-9-2.1-10.3 1.7-5.5 2.6-9.4 10-7.1 1.4-3.6-.6-8.6-5.2-8.1 7.7h-6.7c0-.1-2.8-.8-2.8-.8l-1.4-2.1 2.3-7.7-4.5-6.1-.3-1.7 2.8-2.9-4.6-3.1.4-3.6 2.5-4.2 7.1-3.9 5.2-4.6 3.5-13 2.9-1.9.8-1.8v-2l-1.8-2.8-10.3-2.7-3.4-2.3-.8-5.9 2.8-5.2 11-2.8 5.6-3 2.1-2.8.9-3.7-2.7-3.4L230 44l-2.9-3.4 3.1-3 4.4-1.5 3.6-4 .4-1.9-1.1-1.9-4-2.1-1.6-3.6.9-2.7 2.6 2.8 6.2.9 2.7-3.7 6.2-4.8 5.7 9.6-1.1 5.8-2.8 2.1.2 1.4h3l4.5 4.5h1.7l1.7-2.9 3.9-1.9 6 6.7 4.3.7 1.2 1.3.4 2.9-2.7 3.3-6.7 2.5-7.4.9-1.8 1.3-4.1 8.7 2 3.3h1.9c0-.1 2.9-2.2 2.9-2.2h3.8c0 .1-.1-6.1-.1-6.1l2-1.2 3.9 2.8-.3 5.1 2.7-.3 4.3 1.6 4.5 6.3 2.6-.9 1.9-3.2 2.3-.5 3.8 6.6 4.5-.3 3 1.1 7.9-5.1 3.5-.4 1.4 1.5-.7 1.4-4.9 4.4 1.7 4.4 2.1.7 3.7-1.2 4 4.8-.4 3.3 3.5.5 3 3.3 5.2 2 1.1 2.8 3.2-1.6 1.9 1.7 1.7 7.3-1.8 4.2-3.9 3.5-3.2 5.5-1.2 1.3-5.6.6-3.9 3.6-7.4 1.5-4.7 2.9-1.2 1.7.6 3.8-1 1-1.2-1.4-1.6.2v6.5Z"/><path id="AM-VD" d="m263.4 312.3-3.7-.9 1.4-7.1 2-3.2 4.6-3.6 3.6-1.7 6.2-6.9 7.8-6 14.2-5.1 17.2-.9 7.4-1.8 3.5-2.8 1.1-3.5 4.8.2 3 2.2h3.6l.9 3.8 1 .6 6.6-.3 6.6 1.3 4.3 3.6 8.1 1.3 2.1 3.8-1.8 3.1 3.3 5.8.9 3.9-4.3 2.6-9.1 13.3-.5 5.8 1.7 6.8-2.4 6.2.8 16.2-3.7-1.4-3.2 3.3-3.8.8-3.6 2.9-5.6-.8-3.1 4.3-3.7 1-1.7 2.8-7.1 6-4.6-.3-3.5-5.7h-3.3c0 .1-2.2-1.6-2.2-1.6l-5.4.2-1.4-.8-4.2-3.9-2.9-6.9-2.6-1.9-4.2-.6-1.3.7-3.4 5.1-1.8.2-4.4-2v-8.6l1.1-2.3-1.4-1.3v-2.4l1.4-1.8-1-3.1-4.3-4.7-4.4-8.7-5.5-5.1Z"/></g></svg>