<svg xmlns="http://www.w3.org/2000/svg" xmlns:amcharts="http://amcharts.com/ammap" id="Layer_1" viewBox="0 0 512 512"><g id="_x3C_defs"><amcharts:ammap bottomLatitude="38.354" leftLongitude="44.761" projection="mercator" rightLongitude="50.614" topLatitude="41.906"/></g><g><path id="AM-GR" d="m66.2 196.2-1.2 1.9.5 1.8 2 1.9h2.3l.9-1.4.4-1.4-1.7-2-2.1-1.2-1 .4Z"/><path id="AZ-ABS" d="m403.3 251.2-1.6 1-1.2 1.4v1l.5 1.5v1l-1.5 2.8-1.2 1.5-.8 1.7v1.7l.6 1.8v1.4l-2.7 3.9-.3 3.5-1.5 2.9-1.9-2.7-1.8-1.9-.5-.9-.2-3.1-1.1-2-1.4-1.5-.9-1.7v-1h-.1v-3.1h-.1l-1-1.3-.9-1.5-1.2-.8-7.2-.3-1.5-.6h-3.6c0-.1-1.1-.5-1.1-.5l-1.8-2.4-1.3-2.6-2.8-2.9-.2-.3-.9-1.5-2.4-2.3-.9-.4-2.4-1.8-.7-4.9 1.8.6 3.7 2.3.3.2.7 1.1.6.5 1-.8.7-1.3 1.2-1.3 1.7-1 1-1.7.9-1.4 1.3-1.2 1.2-.7 2.4-.2h.2c0-.1 2.7-4.5 2.7-4.5l1.6-.8 2.2-.7 2.7-.3 1.7-2 1.3-.7 1.4-.7.6-.5 2.7-4.7 3.8-.2h1c0-.1 1.2-.6 1.2-.6h3.2l1.3-.6 1.4-1.6.3-3.5 1.9-2.2.4-.8 1.2-1.3 1.3-.8.6-.7.7-1.4.4-1.1h.7l5.8 5.8.7 1.2 2 3.4.8.3h3.3l1.5-.6 1.8-.2 1.3-.6 1.4-2.6 2 .4-.9 1.4-.5 3.2h.8l3.1-1.4h1l2.5.8 2.3 1.2 2.4.3 2.9.9.4.6v.6l-.7.7-4.3.8-3 1.1-2 .3-3.7 1.6-2.2-1.1-1-.2h-4.3l-2.3.8-2.3.4-2.2-.7h-1.4l-2.2 1-.6 1-.4 1.6-.9 1-2.2.8h-2.5l-1 .4-1.1 1.7-.8 2.1.6 1.8v2.1c.1 0 .8 1.9.8 1.9v10l-.6 1.7-.2 1.7-1.3 2Zm24.3-24.2-2.8.2-.7 4-1.5 3.4v1.9l1.7.5 3.7-2.9 2.5 1.8 1.3-.7.6-1.6 1-1.4-1.4-3.2-.2-1.6-4.2-.3Z"/><path id="AZ-AGA" d="M58 158.5v-3l-.6-1.6v-2.8c-.1 0-.7-1.5-.7-1.5v-1l.1-.7 1.1-1.5-.5-2.5.6-1.5.2-1.7 1.1-3 .3-2 .5-1.2v-1.4l-.8-1.8-.7-.9-1-.5-3.6-.2-1.2-.5-1.7-.3-2.5-.9-4.5-2.4-2-1.7-6.5-3.6 2-3.1 2.4-2.5.6-.3 2.4-.5 1.4-1.5 1.9-1.2.7-2.1.6-.6 2.4-.2 1.5-.9.9.2 1.2.6 1.2 1.3 4 2.7h1.3l.5-.4 2.1-2.3 1.7.2.6.3 1.9 2.2.8.5 4.5 1.3 1.2.5.4.9.3 1.7.9.9.7.3.7.2 3.1-.6 1 .2 2.3 1.4 1.5.4 1.8-1.1h.5l2 2.3-.6.5-2.1.3-.9.9-.9 1.6h-.5l-.3 1 3.5 5.1 5.3 3.3-7.9 4.2-2 2-.8 2.3-1.3 1.2h-.6l-4.5-2.3h-.8l-.3.7v2.2l.5 1.2.3 2.1L76 150v3.2l-1.2 2-2.8 2.6-5.1 1.3-.6 2-2.1 2-2.6 1.2-1.2-.5.2-3.5 1.7-2.5v-.4l-.4-.2-2 .2-1.9 1Z"/><path id="AZ-AGC" d="m260.3 259.4-4.5 9.6-.2 3.8-.6 1.9v3.1l-.7 1.5-.2 1.7-1.7 3.2-1.4.9-3.1.2-2.7 1.8h-4.9c0 .1-.3.4-.3.4l-.4 1.2-.5.5-.9.5-1.6.3-1.1.9v2.8l1 1.8-.2.4-1.7 1.1-.5.9.4.8 1.6 1.2.9 2.3-2.8.3-1.5.5h-2.1c0 .1-3 2-3 2l-3.9.5 2.8-5.5v-1.3l-1.2-1.9-5.4-3.5-.9-.8-.4-.7-.3-2.8 1.6-1.2 1.6-2.3v-2.4l-1.3-1.9-1.2-.3h-2.2l-4.1 1.9-2.5.6-2-1.1-2-.4-2.6-1-1.5-1.5-.3-1v-1l.4-.7.8-.7 1.5-.8.8-.9V269c.1 0 .4-1.2.4-1.2l.8-.5 3.1-.2.6-.4.9-1.5v-.5l-.5-.5-1.7-.6-1-.7-.2-.8v-.6c.1 0 1-.8 1-.8l4.6-2.3 1.5-2.2 1.7-1.9-.7-1.6.4-.6h.6c0-.1.7.4.7.4l1.7 2.7 1.6.9h1.3l1.8-.9 1.6-1.4 1.1-.5 2.4-2.1 2.6-1.3 1.9-1.6 1.2-.6 2.3-2.3-.4 3.4v3.2l.3.6 1.7 2 .3 1.3 1 2.1h1.3l2.2-1.1h2.1c0-.1 1.5-.7 1.5-.7h2.1c0-.1 1.5-.6 1.5-.6l3.5 1.1.4-.5.4-1.8.4-.6.6-.2 1.7.7 1 .8.9 2 .4 2.4Z"/><path id="AZ-AGM" d="M216.7 254.1 215 256l-1.5 2.2-4.6 2.3-.9.8v.6c-.1 0 .1.8.1.8l1 .7 1.7.6.4.5v.5l-.8 1.5-.6.4-3.1.2-.8.5-.3 1.2v5.3c-.1 0-.9.9-.9.9l-1.5.8-.8.7-.4.7v1l.3 1 1.5 1.5 2.6 1 2 .4 2 1.1 2.5-.6 4.1-1.9h2.2l1.2.3 1.2 1.9v2.4l-1.5 2.3-1.6 1.2-1.5-.5-4.3.2-.9.9-1 2.1-.6.6-4.4-1.6-2.2-1.1-1.8-1-2.2-2.1-.7-.3h-1.4l-1.5.5h-1.8l-.5.3-.2.4-.8 3.9-1.2 1.5-3 1-4 2.1 1.8-4.3 3.4-4.3.8-2.4-.2-1.9-1-.9-2 .6-1.1-.4-1.8-1.1-.4-1-.2-2.8-1.7-2-.8-1.4-1.4-1.3-1.1-.4h-1.1l-2.6 1.2h-1l-2-.9-1.1-1.5 1-1.1h2.1l2.4-.6.8-3-.6-1.7v-1.3l.6-.5 2.2-1 .7-.6.8-2.1v-3.2l.4-.8 1.9-1.2h.6l1.2.5h1.4l3.2-1.2 1.4-1.5v-.6l-.6-1.5.2-1.2h1.2l1.9 1.6 1 .4.8-.2 1.1-1h.9l1.4 1.4.3 2.8 1 1.1 1.4.4 1.6-.5h1.1l3.4-.7h1.8l2.2.8 4.8-.3Z"/><path id="AZ-AGS" d="m247.3 214.3-4-1.7-2.2 1-2.4.3-.4.6-.2 1.3-.5 1.2v3.2l-.7 1.8v1.4l1.1 2.1 2.8 1.7.7.7.4.8v.9l-2 4.3-.4 1.6-5.8 5.6-1.5-.7-2.1-.5-.4-.6-.2-1.3-1-1.8-2.9-1.5-.3-1.5.4-2.2-2.4-.5-1.4-1.1-.9-2v-3.2l-.4-.8-2.4-1.6-1.2-1.7-1.5-.6-1.4-1.3-.4-.6-.5-2.4-1.4-2.7 2.1-.9 1.1-.9.7-.9 1.4-2.8v-2.4l-1.3-2.9v-3.2l.6-1.8.2-1.7 1.1-2.3 1.7-7.7 2 .6 3.6.3 4.1 2.1h1.3l.8-1.1.8-.2 4.6 1.7 1.6.8 3.8-1.1.5 3.1.2 7.4.9.8 2.9 1.5.9.9 2.8 3.8-1.6 1.9-.9 1.7-.5 5.4Z"/><path id="AZ-AGU" d="m320.6 242-1.9-1-1.1-1.1-1-1.9-.3-1.3-1-1.8-1-.4-2.5-.2-1-.8-.8-1.7.5-1.5.3-1.7.4-.8v-1l-.8-2-.9-1.1-5.3-.3h-1.4c0 .1-2 1.8-2 1.8l-1.5 2-1 .4-.8-.2-.9-.8-.6-2-.3-.2-2.8 1-2.8-1.4-.4-1v-2.1l1.3-3.3 1.1-4 1.2 1.1h.6l.7-.4.7-.9.2-2.4.4-.9 4-3.8 2.2-.8.8-.5.6-1.9.5-.6 6.7-3.3 4.5-2.8 1.7-1.5 1.6-.9 1.4-2.3 2.4-7.6 1 1.7.5 2 1.5 1.5 1.6 1.1.9 2.3v1l-1.9 3.3.5 1.8-.2.6-1.7 2.4-4.3 4.2-.9 1.7v.9c.1 0 2.3 3.6 2.3 3.6l1.1 1 2.7 1 6.5.3 3.9 2.6 1.6.9.9.2.3.4-.5 1.1-.7.7-4.5 2.5-3.7 1.7-1.6 1.4-.4 1.1v4.2c-.1 0-1.9 2.1-1.9 2.1l-1.9 2.8-1.1.8-.3 1.4-1.5 3.7Z"/><path id="AZ-AST" d="m360.7 427.1.3 10.1v10.2l-4.7 1-1.9 1.4-1.2 1.3-2.1.6-3.5.3-1.3 1.6-1.6.9-3.1-.4-1.3-1.3-2.6-.8-3.5-2.5.3-2.6-1.3-3.5-1-1.6-2.3-2.5.6-.6 1-1.6.3-2.7.9-1 4.1-2.3h1l1.7.4 3.4-1.9 2.1.7h3.6l4.1-1.7 4.7-1.4 2.9-.7.5.5Z"/><path id="AZ-BA" d="m507.1 237.7-.2.5-1.3-.3-2 .7-1.1 1.8-1.1.7-.3-.3 1.7-2.1-.2-.4v-1.5l-.3-.5-1.1-.5v-.2l.4-.4-.4-.7h-.6l-.5-.7.2-.2.9.3 1.1 1.4.9.7.4.9.3-.5v-.5l-.4-2.1 1.5.9h.3v-.6l1.8 1.9v1.5Zm-21 7.9v4.4l-.6 1.2-.3-3.3-1-3.4.2-1.1-.5-2.4-.4-.7-1.9-2.2-.7-.2-1-.9-1.5-.3-.3-.5-4.2-2.2-1.4-.5-1.2-.2h-1.8c0 .1-1.5-.8-1.5-.8l-2.5-.7h-1.7c0-.1-1.2.2-1.2.2l-.7.6-.6 1.4h-1.1l-1.2-.5h-1.1l-1.4.5-1.7 1.8h-.6l-2.2-.6-1.7.4-.3-1.3-.6-.9-2.3-1.6-1.6-.3h-2.4l-.8.2-.3-.2-1.4.6-.8 1 .3 1.3h.2c0 .1.5 0 .5 0l.4.4-.6.4v1.5l-.7 2.1-.4.5-.5.3h-1l-.7-.3-1.9.4-1.9.7-2.3 1.8-.8.3-1.4-.3-1.8.3-.7.6-.8 1.4-1.7.7-.8.7-.2.7h.6v.3l-1 .3v-1h-.4l-.8.8-2.8 1.2-1.4 1.4-3.7 1.3-2 2.2-1.6.4-.7.8-.3 2.1.3 2.2 1.4 2.2-1.1.2-.6.5-1-.2-.8.8-.8.2-.6.8-1 .6-.3.9.7 3.1.9 1.9 2.7 3.2 1.3 2.1-.2.6-1.9 1.5-2.3 1.2-.6.6-.4 1.2-.2 1.4.8 4.3 1.6 3.3-.8 1.1-1 .2-.7.8-.4 2.4-1.7 3.1v1.6l.2 1.9 1 3.9 1.5 3.1-3.6 1.7-1.6 1.8-.5-1.2v-3.5c-.1 0-.6-1.2-.6-1.2l-.2-1.1v-7.3l.2-.8.8-1.3-.4-5.4-2.7-4-.7-1.4-.3-2-.7-1.9-.8-.9 1.5-2.9.3-3.5 2.7-3.9v-1.4l-.7-1.8v-1.7l.8-1.7 1.2-1.5 1.4-2.8v-1l-.5-1.5v-1l1.3-1.4 2-1.4.9-1.5.2-1.7.6-1.5v-10.3l-.6-1.9v-2.1c-.1 0-.8-1.8-.8-1.8l.8-2.1 1.1-1.7.8-.4h3c0-.1 2-.9 2-.9l.7-1 .4-1.6.6-1 2.2-1h1.3l2.3.7 2.3-.4 2.3-.8h4.3l1 .2 2.2 1.1 3.7-1.6 2-.3 3-1.1 4.3-.8.6-.4v-.9c.1 0-.3-.6-.3-.6l-2.9-.9-2.4-.3-2.3-1.2-2.5-.9h-1l-3.1 1.5h-.8l.5-3.3.9-1.4 3.7-.2 1.4.9 1.5.3 5.4-.8 4.7-1 3.6-1.3h1.1l1.2.9h1c0 .1 3.2-.6 3.2-.6h.8l.8-.4.2.6-.6 1.1.2.6 1.9 2 .4 1.5.4.6 1 .6.5.8.6.3 2.4.3.4.5 1.1.2 1.2.9 1-.3.6.4h.8l.8.6h.6c0-.1 1 1.6 1 1.6v.7l.9.8.2.7.8.5.2 1.1.5.2.5-.4.6 1.9.6.8 4.2 2.7.3 1.4 1.9 4.1v4l-.4 2.6.6 2.3v.9c-.1 0 .4.8.4.8v1.4c.1 0 .6.3.6.3Zm-54.2-18.2-4.3-.3-2.8.2-.7 4-1.5 3.4v1.9l1.7.5 3.7-2.9 2.5 1.8 1.3-.7.6-1.6 1-1.4-1.4-3.2-.2-1.6Zm-8.9 48-.4.7.2.4 2.1-.5.4-.8-.6-1.3v-.8h-2l.2 2.3Zm59.7-52.1v.7l.7.3.7 1.1-.8.3v.2h.6l.8 3.6h.3l-.1-2.2.5-1.2.4-.4v-.4l-.4-1.1h-.5l-.4-.5-.2-1.2-.3-.4.4-1-.6-1.9-.4-.4h-.5l-.5-.6-.6.7-.9.6h-.6c0-.1-.1.1-.1.1l.4.6 1.1.7.5 1.5.5.7Z"/><path id="AZ-BAB" d="m65.8 328.3-.2 1.5-1.2.5-1.8 2.3-4.5 3.2.5 2 1.8.5h1.2l1 1.3.3 2.5 1.3 2.2 5.2.3 2.5 2.8 2.5 1.8-.8 2.3.7 1h1.8l.2 1.8-.5 1.5-2 1.3v2.5l-.3 1.7-2.7.3-1.7.5v1.8l3.5 2.8.5 1.5-.2 2.2-1.5 1.3-.8 2.8 1.7 2 2.2 1.5.7 2.2-.2 2-1.2 1.5.2 3.8-1.3.7h-1.2l-2.2-1.3-3.9-1.2-1.9-1.1-.7-.7-.2-.9 1.2-2.5.2-2-.3-.3h-1.4l-2-1.3-.5-.6-.2-1.2.2-1.2-.5-1.3-2.7-3.6-.5-2.8-.9-.6-1.8.3-.8-1.2.7-.6.8-1.4-.3-.7H53c0-.1-1.1.3-1.1.3l-1.3 1-5.7-2h-1.7l-.5-.6-.2-.7-.9-1-.6.3v1.1c-.1 0-1.5.2-1.5.2l-.3-3.3-3.8-7.7 2.4-.3 1.3 1.3 2-1 1.3-.3 1 .7 3.7-3.2.8-2.8 2.7-5.3.7-2.2V333l-.3-2.5 2-1.2.3-2.5 1.7-4.5 3.2.8 2.5 1.4h1.9l.8.7.9 2.2.3.3h1.2Z"/><path id="AZ-BAL" d="m147.1 57.5.6.5.5.8 1 .6 2.6.4h3.1c0-.1 2.1.7 2.1.7l.5.7v5.5l1.1 1.5.8.6h1.4c0 .1.7-.1.7-.1l2.4-1.4 3-1.3 1.2-.2 2.7.9.6-.3.5-1.8.6.8.2.7-.2 4.2-.8 1.8-3.8 3.9-1.4.7-1.7 1.5-1.2.6-3.7 2.9-1 1.9-.2 1.7-.8 2.5-1.5 2.7-5.7 3.6-3.8.2-1.7 1.7-3.9 2.2h-.9c0-.1-3.1-1.8-3.1-1.8l-.2-1.2.4-1-.7-1.3-2.5-1.1v-.2l-1.4-.2-2.4 2.4-1.6-1.9-.2-5.4-1.2-3.6-1.2-6.3 2.3-3 3.8-1.4 4.3-.9 3.7-3.4 3.2-1.9 1.9-2.1.9-1.9.4-1.4.3-3Z"/><path id="AZ-BAR" d="m204.4 254.5-.2-1.7-.6-1.4v-1.1c-.1 0-.1-7.7-.1-7.7l.7-2.3v-.9c-.1 0-.8-.7-.8-.7l-2.4-.3-1-.5-.7-.9-1.6-3.2-1.9-1.4-.9-2.3-.5-3.6 2.3-3 1.4-2.7 1.8-2.5 1.4-.2 1.3.2 2.4 2 .7.2 3.5-2.5 1.2-1.5 1.4-4.6 1.4 2.7.5 2.4.4.6 1.4 1.3 1.5.6 1.2 1.7 2.4 1.6.3.8v3.2l1 2 1.4 1.1 2.4.5-.4 2.2.3 1.5 2.9 1.5 1 1.8.2 1.3.4.6 2.1.5 1.5.7-1 1.9.2 1.1 1.1.7h2.9c0-.1.5.1.5.1v.5l-2.3 2.3-1.2.6-1.9 1.6-2.6 1.3-2.4 2.1-1.1.5-1.6 1.4-1.8 1h-1.3l-1.6-.9-1.7-2.7-.7-.5h-.6c0 .1-.4.7-.4.7l.7 1.6-4.8.3-2.2-.7h-1.8l-3.4.7Z"/><path id="AZ-BEY" d="m250.6 323.4 1.2-2.2v-1c.1 0 0-2.1 0-2.1l-.9-2-1-1-3.3-2-1.8-1.7-3.3-4.9-2.6-.4-.7-.4-.7-1.1-.6-2.4-.9-2.3-1.6-1.2-.4-.8.5-.9 1.7-1.1.2-.4-1.1-1.8v-2.8l1.2-.9 1.6-.3.9-.5.5-.5.4-1.2.3-.3h4.9c0-.1 2.7-1.9 2.7-1.9l3.1-.2 1.4-.9 1.7-3.2.2-1.7.6-1.5v-3.1l.7-1.9.2-3.8 4.5-9.6 2.5 1.8.7.8-.2.4-1.9 1.3 2.2 3.1 2.4 1.5.7.7.5.9.8 2.8-.2.9-1.1 1.6-5.2 3.1-.6.7v1.6l.5.5 1.8 1.1.5 1.3-.3 1.3-2.5 2.6v1.6l1.1.9 1.6.4 2.5 1.1 1.5 2.6 1.6 2.2 3.5 1.6 1.4 1.3.3.8v.5c-.1 0-.9.8-.9.8l-1.4.7-1.8 1.5-3.3 1.9-1 1-1.6 2.6v4.9l-3.6 3.7-10 5.6Z"/><path id="AZ-BIL" d="M348.3 338.8h-3.6c0-.1-2.7-1.4-2.7-1.4l-1.4.6-.8 2.1-1.9 1.2-.4.5.4 1.8v4.5l-1 1.9-1.2.6-2-.2-2-1.7-.3-.6-.2-3.1-1.6-3-.8-.6h-1.7l-1.6.8-1.7 2.7-2 1.9-1 .5h-2.1c0 .1-.7.4-.7.4l-.7.6-1 1.6-1.6.8h-1.8c0-.1-.9-.9-.9-.9l-.3-6.2 3.1-.8-1.9-1.3-2.9-2.9-1.8-1.3-1.2-1.4-7.8-7.6-1.3-1.8-2.5-5-2-1.5-2.1-2.1-1.4-1.7-2.2-3.4-4.6-4.3-1.3-1.7-3.2 2.5-1.5-2.7.2-.6.6-.6 2.1-1.1h.9c0-.1.9 0 .9 0l2.5.8 2.3 1.5 7.6 7.6 1.1.6 1.7 1.6 3.3 2 1.6 1.5 3.6 1.9h3.3l1-.3 3.7-3.6 1.4-2.6 2.4-3.1 1.7-1.6.7-.4h.5l2.5 1 1.6 2.2.9 1.8.5.5.7.2h2.9l1.2-.2.7-.9 1.1-2.9h1.6l2.4 1.2 11.9 3.9-1 3.1-.3 1.7-.5 1.1v2.1c-.1 0-.7 1.1-.7 1.1v1c-.1 0 .1 1.3.1 1.3l1.6 1.7 1.7 2.7-1.3 5.9Z"/><path id="AZ-CAB" d="m220.5 344.9-3.9 2.5-1.5 2.1-5.7 1.4-3.8 3-3 3.1-.4 2-1.1 3.5-1.2 2-1.7 1.4h-1.3l-.2 1.2-1.2.8-2.3 1.4-2.6-2.6-3.1.4-1.4.5v-3.3c-.1 0-.8-1.4-.8-1.4l-1.6-2.3-1.2-1-.5-.8-1.6-1.5-4.2-2.3-.7-.9-.7-1.4-.3-4.8-1-1.8-1.6-1.3-.2-.9.2-3.1 1.4-2.5 1-.3 2.5.4 2.9 1.6.9-.3 1.8-3.4-1.8-4.1.9-1.1h1.4l2.2 1.7 1.8.5 1 .6.2.3-.4 1.4.2.8 6.1 4.1-.3 1.3.2.5h1.3l1-.4 2.2-1.9h.8l1.1.3.8-.4v-.7c.1 0-1.8-4-1.8-4l.3-.6 1.3-.9.8-1.3 3.8 2.3 1.5.5 1 .7 1.9 3.5.3 1.2.5.6h.7c0 .1 1.2-.3 1.2-.3l3.1-.5 3 1.9 1.2 1.3.7 1.2Z"/><path id="AZ-CAL" d="m314.4 381.6-.9-2.2-3.3-4.3-1.1-1-.4-2.2-.3-.3-1-.2-.8-.6-1.9-.3-1.5-.7-.8-.8-1-2.3v-.5l-1.3-1.1-3.3-1.9-2-1.8-.3-.7.3-1-.4-.5-.5-1.8.3-1.5v-1.2l.2-.4.7-.2.9-1.9 1.1-1.2h.6l.7-.7 1-.3.4-.9 1-.7h.4c0-.1.5 0 .5 0l1.3-.6h.9c0 .1 1.2-.3 1.2-.3l.5-.4v-.6l.5.1 1.8-1.1 1.4-.5.6-.6h.9l1.1-.7.3 6.2.9.8h1.8c0 .1 1.6-.7 1.6-.7l1-1.6.7-.6.7-.3h2.1c0-.1 1-.6 1-.6l2-1.9 1.7-2.7 1.6-.8h1.7l.8.6 1.6 3 .2 3.1.3.6 2 1.7 2 .2 1.2-.6 1-1.9v-4.5l-.4-1.8.4-.5 1.9-1.2.8-2.1 1.4-.6 2.7 1.3h3.6c0 .1-2.7 3.4-2.7 3.4l-1.6 3.1v7.6l3.3 6.5v5.9l-1.1 2.5-1.8-.7h-1.5l-.5.1-.2.5.4 1.5-.2.5h-.6l-1.2-.5h-1c0-.1-1.4.6-1.4.6l-.4.7v1l1.3 1.9.5 1.2-.2.5-6.2 3.2-1.8 1.7-.9 1.7-.4 1.5-1.6 1.5-5.2 1.1-2.5-3-2.8-1.8h-1c0-.1-1.9.9-1.9.9l-1.1.2Z"/><path id="AZ-CUL" d="m106.9 348.5-4.4 6.6-2 .8-1.5 2.2-.2 5.5-2.8 3.7-1 3.8-3 3.8-1.2 2.5-.2 2.2-.7 2.5-.7 1.2 1.8 1.3 1.3.2L94 387l.3 2-1.3 1.3-.3 1.5-1 1-.6-.2h-2.6c0-.1-1.4-.5-1.4-.5l-.3-.7-.5-.5-3-.6-1.1-.5H81c0-.1-2.8 1-2.8 1h-.7l-.2-.3v-.9c.1 0 0-.3 0-.3l-1.3-.4-1-1.1h-.7c0-.1-.3 0-.3 0l-.2-3.8 1.2-1.5.2-2-.7-2.2-2.2-1.5-1.7-2 .8-2.8 1.5-1.3.2-2.2-.5-1.5-3.5-2.8v-1.8l1.7-.5 2.7-.3.3-1.7v-2.5l2-1.3.5-1.5-.2-1.8h-.3l4-3h2.3l1.5-1 1.2-1.8h1.7l.8.7.3 1.5 1.5 1 2.3-2.3 1.2-1.7.3-1.7 2-1.1.8.4 4 .5 1.8.8 5.5 3.5Z"/><path id="AZ-DAS" d="m124.6 238.7-4.6.3-1.9.6H115l-4-1-1.2-.5h-2c0-.1-4.6.8-4.6.8l-.7.9-2.9.2h-1.3c0-.1-1.8-2.1-1.8-2.1v-1.8l.4-.7.8-.7.2-.6.2-4.2 1.3-2.5-3.5-6.2v-4.6l.6-1.1 2.3-2.2 4.9-2.7.7-.7v-.7l2.4-2.4.8-1.4 1.6-1.7 1.9-3.7 1.3-1.9.7-.2h.8l4.3 2.6 4.7 2.9 1.8 1.7 1.1.6 1.8 1.6 1.1.5.3.5-1.7 2.6-2.9 2.9-.6 1.1-.9 1.1-.2.6 1.3 2.4 4.6 4.6 3 2.1v1.1c.1 0-1.8 3.3-1.8 3.3l-1.9 1.7-1.4.7-.9 1-.8 1.7v3.6Z"/><path id="AZ-FUZ" d="m226.7 338.5-.6.8-1.1 2.2-1.3 1.3-3.2 2-.7-1.2-1.2-1.3-3-1.9-3.1.5-1.2.5h-.7c0-.1-.5-.7-.5-.7l-.3-1.2-1.9-3.5-1-.7-1.5-.5-3.8-2.3.9-.9v-1.9c-.1 0 2.4-.3 2.4-.3l.5-.3-.4-1.4-.2-2.1-.5-1.4.5-.8 1.2-.7-.2-1.3.3-1.4-.8-.4-1.2.2-2.5 2.1-1.5.8h-.5l-.8-.5-.4-.7v-.6l1.4-1.7.7-.3h2.1c0-.1 1.7-.9 1.7-.9l1-.7.2-.8v-.6c-.1 0-.7-.4-.7-.4l-.8.2-1.8 1-1.3-.2-1.3-.8-.5-.6-.2-.9.3-.8.8-.3h4l4.7-2.3 2.3-2.5h1.6l2.6-1.1h4.3l2.7-1.2 1.3-.3 3.9-.5 3-1.9h2.1c0-.1 1.5-.7 1.5-.7l2.8-.3.6 2.4.7 1.1.7.4 2.6.4 3.3 4.9 1.8 1.7 3.3 2 1 1 .9 2v3.1l-1.2 2.2-2.2 1.5-2.7 2.3-2.2 1.5-5.5 2-4.5 2h-1.8c0 .1-1.7.7-1.7.7l-1 1.9-2.4 3.3Z"/><path id="AZ-GA" d="M138.5 191.6h2.4c0-.1 1.5.6 1.5.6l.5.7v.7c.1 0-.4 2.3-.4 2.3l-.8 1.8-2.2 2-1.6 1.9-.9.3-1.8-1-.4-1.3.6-1.5v-2.2l-.5-1.2v-.7l1-1.1 2.5-1.5Z"/><path id="AZ-GAD" d="m63.3 189-2.4 1-.4.5-.9 2.6-2 2.3-1.6 2.8v1.8l.9.5.3.5v2.6l.4.6.9.5 2.2-.3 2.2 1.3 1.1 2-1 2.1v.7l.6 1.3-.9 1.7v1c-.1 0 0 1.1 0 1.1l.7.8 3.5 2.7 3.5.5 1.8 1.1.7 1.1.9 2.3 3 2.7 3.9 5 2.4.2 1.6.4 5.2 1.8 4.9 2.5 1.5 1.3v-1.8l.4-.7.8-.7.2-.6.2-4.2 1.3-2.5-3.5-6.2v-4.6l.6-1.1 2.3-2.2 4.9-2.7-.6-.7v-.5l.6-1V206l-.6-1.5.9-2.2v-.6l-2.7-2.2-.6-1.7-.5-.6-4.1-2.5-2.9-4.2-.9-1.7-.4-3-.8-.8-1.4-.9-2.2-3.4-.5 2.7-.6 1.8v4.2l.7 2.2-.7 2.2v8.9l-1.4 2.7-.7.7-.9.4-1.3-.5-2-2.1-2-.4-.5-.5-.5-1.2.5-1.5v-2l-.5-.5-3.8-2-4.3-.2-1-.5-.4-1v-4.2c-.1 0-1-1.7-1-1.7l-.9-1-2.3 1.9Zm7.4 11.4-.9 1.5h-2.3l-2-1.9-.5-1.8 1.2-1.9 1-.4 2.1 1.2 1.7 2-.4 1.4Z"/><path id="AZ-GOR" d="m152.9 197.8 1.3 2.5v1.8l-.6 1.8v4.3l.4 1 1.2.9v.8l-.5 1.1-1.6 1.7-.8 1.4-7.1 7-2.1 4-3.9 4-.2 3.8-.6 1.8v6.5l3.9 2.1h4.3l1.8-.6 5.4-3 3.2-2.6.2-1.8 1-1.1 2.6-.7 2-1.5 1.5-.4 2.8-1.4 2.1-1.6 2.5-1.5h7.4l1.7-.8 5-3.7 1.2-.6 1.2-1.8 1.1-1.1 1.1-.6.8-.4h.9l.6-.4.2-1.3.5-.7.4-3-.7-.3H192l-2.6.6-.9-.3-.5-.6-1.2-3.5v-1l.6-1.5V204l-.1-1.4-.6-.7-2.3-1.5-1.3-.2-1.1.4-3.4 2.3h-1.2l-.2-1 .2-2.5 1.6-2.4 1.5-1.6 1.5-2.4-.2-.4-2.3-1.5-3.7-.5-1.6-.9-.6-.8v-3.2l1.9-3.7v-.7c.1 0 .1-7.1.1-7.1l-.6-1.9v-3.1l1-4.6-2.5 2.4-1.3 1.9-2.7 2.7-.8 1.4-2.9 2.9-1.4 2.1-2.3 2.2-1.3.7-1.6 1.4-1.4.7-.8.8v.5c-.1 0 .8 2.2.8 2.2l-.9 1.5-2.8 1.5-1.6 1.5-.4 2.3-.9 1.9-.2 1.7 1.4 1.1Zm27.1 27.1-1.2.9-2.3-.3-1.1-1.2v-1.6l.6-1.3 2-.6 2.1.8.4 2.1-.4 1.3Z"/><path id="AZ-GOY" d="m282.2 223.7-2.3-1.2-1.9.5-3.6-.2-9.9-5.1-1.5.2-1.4 2.1-.9.3-3.1-1.6-1.8-1.5-1.8-1.1h-1l-1.9 1.1h-.9l-.9-1.3-2-1v-.7l.5-5.4.9-1.7 1.6-1.9-2.8-3.8 4.6-2.5h5.4l2.4-1.5 4.4 1.1 3.7 2h.6l2.3-1.1h.6l3 1.2 2.1.3 5.2 2 2.1.3 1.8 1 .9.9.7 1.6-1.3 2.8-1.2 1.5-.8 1.8v1.8c.1 0 1.2 1.1 1.2 1.1l.8 3.2v2.8l-.9 2-1 .2z"/><path id="AZ-GYG" d="M124.6 238.7v-3.6l.9-1.7.9-1 1.4-.7 1.9-1.7 2-3.3v-1.1c-.1 0-3.1-2.1-3.1-2.1l-4.6-4.6-1.3-2.4.2-.6.9-1.1.6-1.1 2.9-2.9 1.7-2.6-.3-.5-1.1-.5-1.8-1.6-1.1-.6-1.8-1.7-4.7-2.9 1.9-1.4 1.5-1.6h6.1l.9-.3 1-.8 1.1-2.2.2-3.1 1.2-2.6.2-3.8 1.2-1.5 1.8-3.7 2.5 4.6.2 1.7.6 1.5.2 4.1-2.5 1.5-.9 1.1v.7l.4 1.2v2.2l-.6 1.5.4 1.3 1.8 1 .9-.3 1.6-1.9 2.2-2 .8-1.8 1.7.9 2.5.6h2.8l1.6-.3.6-.4 1.3 1.1 1.3 2.5v1.8l-.6 1.8v4.3l.4 1 1.2.9v.8l-.5 1.1-1.6 1.7-.8 1.4-7.1 7-2.1 4-3.9 4-.2 3.8-.6 1.8v6.5l-4.1-.9-1.6-.6-5.7-.2-.7-.3-1.9-1.5Z"/><path id="AZ-HAC" d="M362.7 282.7v-2.1l1.3-1.7v-.6l-1.7-2-1.3-2.4-.5-.2-1.4.5-.6 1.1v.7l1.3 2.4v3.5l-3.1-1.8-.3-2.2-.3-.7-.8-.8-1.5-.9-1.8-2.2-1.4-.8-7.8-1.9-2.5-1.1-1.1-1.7-.7-1.7 1.2-2.5.6-2.2v-.4l-.6-.5-2-.7-4.1-2h-11.3c0-.1.2-3.8.2-3.8l.6-1.9v-2.3l-.6-1.9v-4.2c-.1 0-.7-.9-.7-.9l-1-.7 1.5-3.7.3-1.4 1.1-.8 1.6.8 4.3.3 2.2 1.7 3.8 1.4 3.4 2.4 1.9.9.7-.2 1.6-1.4 1.2-.6 1.6-1.5 1.1-5.2 1.6 1.6.9.5h3.6c0 .1 2.8-.3 2.8-.3l.7 4.9 2.4 1.8.9.4 2.4 2.3.9 1.5.2.3 2.8 2.9 1.3 2.6 1.8 2.4 1.1.3h3.6c0 .1 1.5.8 1.5.8l7.2.3.5.2.7.6.9 1.5 1 1.3v3.1h.1v1h.1l.9 1.7 1.4 1.5 1.1 2 .2 3.1.5.9 1.8 1.9 1.9 2.7.6.6.8 2.2.3 2 .9 1.7 2.5 3.4.5 5.7-2.8-2.5-1.9-1.2-1.1-1.2-.7-1.2-1.2-.9h-.5l-2.6 1.1h-1.4l-1.2-.6-1-.2-2.9.6-3.7-1.4-3.2-.3-2.1-1.2-2.5-1.9-2.1-1.1h-2.9l-2 .9-.5-.2Z"/><path id="AZ-IMI" d="M264.3 314.1v-4.9l1.7-2.6 1-1 3.3-1.9 1.8-1.5 1.4-.7.8-.8v-.5c.1 0-.2-.8-.2-.8l-1.4-1.3-3.5-1.6-1.6-2.2-1.5-2.6-2.5-1.1-1.6-.4-1.1-.9v-1.6l2.5-2.6.3-1.3-.5-1.3-1.8-1.1-.5-.5v-1.6l.6-.7 5.2-3.1 1.1-1.6.2-.9-.8-2.8-.5-.9-.7-.7-2.4-1.5-2.2-3.1 6.3.4 1-.6 1.1-2 1 2.3.3 1.9 1 1.4h1.4c0 .1 2.6-.9 2.6-.9l4 1.7.7-.6.4-.9-1.1-2.4v-.6l3.1-.5.4-1.8.8-1.6.9-.8 1-.2 1.8 1 .7 1.9.6.8 1.6.7 1 .7.5 1.8.6.7 2.5 1.5h3.5l2.5 1.6 2.5 2.6.6 3.6-2 3.8 1.8 2.2.7 1.4v1l-3.4 6.7v2l.9 2.4.7 1.4.6.7 2.1 1.2 4.9 1.1.6.5 1.5 2 .3 1.3-.7 2.5v5.9l2.2 2 1.1 1.7-1.4 2.6-3.7 3.6-1 .4h-3.3l-3.6-1.9-1.6-1.5-3.3-2-1.7-1.6-1.1-.6-7.6-7.6-2.3-1.5-2.5-.8h-1.8l-2.1 1.1-.6.6-.2.6 1.5 2.7-2.1 1.2-1.4.3-1.1.5-5.5-.4-2.4 1-2.1 2Z"/><path id="AZ-ISM" d="m322.4 184-2.4 7.6-1.4 2.3-1.6.9-1.7 1.5-4.5 2.8-6.7 3.3-.5.6-.6 1.9-.8.5-2.2.8-4 3.8-.4.9-.2 2.4-.7.9-.7.4h-.6l-1.2-1.1-2.8 1.1-1.2.8-3 .4-1.1-1.1v-1.8c-.1 0 .7-1.8.7-1.8l1.2-1.5 1.3-2.8-.7-1.6-.9-.9-1.8-1-2.1-.3-5.2-2-2.1-.3-3-1.2h-.6l-2.3 1.1h-.6l-3.7-2-4.4-1.1 1.3-2.2 1.5-.9.8-.8 2.6-5.3.7-1 8.9-5 .3-1.1v-3.6l.3-.8 1.8-.4 1.4-.7 1.5-1.3.8-1.8v-1.7l-1-2.5-2.5-3.5v-1l.7-2.5.9-1h.7l.9.9.7-.5 1.2-4.4 2.1-2.8 2 .6 3.6.3 2.9 1.8 3.3 1.2 7.7 4.2h1l1.8-.5 1.8.6 1.7.3 3.5 1.9.8.9.6 1.5 1 2 1.1 1.2 6.4 4.5 1.1 1.8v1.3l-3.4 6.6Z"/><path id="AZ-KAL" d="m171.1 271.1-3 .8-2.3.2-.7.3-.7.6-1.3 2.7-3.4 2h-.8l-.9-1.3-1-.8-2.6-.9-.6.3-1.6 2-2.5.8-2.7.9-3.8 1.9-4.2.2-5.6 3-2.5.8h-3.2c0 .1-1.5.7-1.5.7h-2.1l-1.2.6-1.7.2-4.1 1.1h-.8c0-.1-.7-.7-.7-.7l-1.1-1.8-1.3-1.3-.8-.4h-.6l-.4.4-1.1 4.8-2.2 2.1-1.8 1.1-3.7 3.3-4.9-1.7-1.1-.9-1.7-8.3v-2l-.5-.8-1.3-.7-1.4-.3h-2.4c0-.1-2.4-2.1-2.4-2.1l-4.6-1.4-2.6-.2-1.1-1.2-.3-.7v-1H75l1.8-2.6 3-1.8h1.7c0-.1 7.9.7 7.9.7l1.3.6 2.4 2.3 1.7.8.9-.2 3.3-2.4.6-.2 1.1.2.5-.3.3-.4 1-4.7-.2-2.9.3-.7.8-.7 2.3-1.2 1.1-1.3.7-1.3.9-6 1-1.6-.2-.6-1.4-1.9-.9-.8-2.7-.9-.5-.4-.3-.6.2-.8h1l2 .9.9-.6-2.9-3.1-.8-.5h-1.3l.7-1 4.6-.9h2c0 .1 1.2.6 1.2.6l4 1h3.1l1.9-.5 4.6-.3 1.9 1.5.7.3 5.7.2 1.6.6 4.1.9 3.9 2.1h4.3l1.8-.6 5.4-3 3.2-2.6-.8 3.6-1.7 1.5-.3 1.6v5.3l1.3 2.6.2 2.4.9 3.1h1.2l1.9-1.5 2.2-1h1.4l3.3 1.1 1.2 1.6 3.2 3.2 2.4 1.8.3.6-.4 1.7 1.5 1.4 1.8 2.3-2.4.5h-2.1l-1 1.1Z"/><path id="AZ-KAN" d="m55 322.8-1.7 4.5-.3 2.5-2 1.2.3 2.5v3.5l-.7 2.2-2.7 5.3-.8 2.8-3.7 3.2-1-.7-1.3.3-2 1-1.3-1.3-2.4.3v-.2c-.1 0-1.3.9-1.3.9l-.3-1.3-4.3-5.4.5-2.1 1.7-2.2 2.8-2.2 3.2-1.8 3.3-2.5 2-4.3 1.2-3.5.5-3.8 2.7-2.7 4.3-1.3 2.1 3.6.2.8 1.1.8Z"/><path id="AZ-KUR" d="m269.6 261.5 1.7-1.2 2-.3 1-.5 1.3-1.3.7-1.2 1.7-1.9v-3.8l-.4-1.2-.9-3.9v-5.7l.6-2.4 2.1-2 2.3-4.5.2-5.3.5-2.7 1.9.2 1-.2.8-2v-2.8l-.8-3.2 3-.4 1.2-.8 2.8-1.1-1.1 4-1.3 3.3v2.1l.4 1 2.8 1.4 2.8-1 .3.2.6 2 .9.8.8.2 1-.4 1.5-2 2-1.6h1.4c0-.1 5.3.1 5.3.1l.9 1.1.9 2v1l-.5.8-.3 1.7-.5 1.5.8 1.7 1 .8 2.5.2 1 .4 1 1.8.3 1.3 1 1.9 1.1 1.1 1.9 1 1 .7.5.9v4.2c.1 0 .8 1.9.8 1.9v2.3l-.7 1.9-.2 3.7-2.1 1-1.5.4-1.8 2.8-4.4 2.7-1.6 3.7v1l.5.8v.7c-.1 0-.7.4-.7.4l-3 1.1-3.3 2.9-.6-3.6-2.5-2.6-2.5-1.6h-3.5l-2.5-1.5-.6-.7-.5-1.8-1-.7-1.6-.7-.6-.8-.7-1.9-1.8-1-1 .2-.9.8-.8 1.6-.4 1.8-3 .5v.6l1 2.4-.4.9-.7.6-4-1.7-2.6 1.1h-1.4c0-.1-1-1.5-1-1.5l-.3-1.9-1-2.3Z"/><path id="AZ-LA" d="m353.8 414.7.4 1.6 1.8 1.1 1.5-.4.9-1.1-.4-1.7-1.1-1.1-1.7.2z"/><path id="AZ-LAC" d="m149.9 277.8-1.4 4.1v1.3l.6.5 1.8 1.1 2.5 2.5 2.9 5.7.7 2.1.6 4.8.3 1.7.6 1.6v2.8c.1 0 .5 1.1.5 1.1l-.6 1.3-1.2 1.5-.8 1.7v3.2l.2 1.2 1 .6 1.3-.3 1.2.2.9.8 1.1 1.5 1.9.9.9-.7.7-1.3.3-1.3.7-1.4.9-1.2 2.3-.9h2.5l.8.3.6.8.6 4.5-1.5.6h-3c0 .1-1 .6-1 .6l-.6.6-.2.8.2.5 1.5 1 .4.7v3.5l-.3.7-3.6 2.5-1.1.3-4.2 3.9-1.2.7h-3.9c0-.1-3.7-2.7-3.7-2.7l.8-1.4 1.2-.8.8.3.5.9 1.5.4.7.4h.8c0-.1-.6-1.2-.6-1.2l-2.7-2.7-.4-1.2.2-.9 2.3-1.2.9-1.3.8-.3 1.4.2.2-.2-.9-2.4-1.2-.7-1-1.2-1.2-.3-3.8.6-1 .9-1.2-.4-.4.5h-.7l-.8-.6-.3-1.3.3-3.3-.4-.3h-.8l-.7 1.1-.6.3-.8-1-.8-.3-.6-1.5-.5-.3-1.6.2-2 .6-5.7 3.1h-1.2c0 .1-2.4-.5-2.4-.5l-1 .2-.6.4-.9 2.1h-.5c0 .1-.7-.5-.7-.5l.3-1.4-.6-1.1.2-1.5-.7-1.7-3.1-2.2-2.2-2.1-.4-.2-1.8.2-1-.8-.4-.6 1-.9-.3-.7-2.8-1.7-.7-1.7-2.1-1.9-.5-1-.3-1.4-.3-.4-4.7-1.7-3.4-1.6 3.7-3.3 1.8-1.1 2.2-2.1 1.1-4.8.4-.4h.6l.8.4 1.3 1.3 1.1 1.8.7.6h.8c0 .1 4.1-1 4.1-1l1.7-.2 1.2-.5h2.1l1.5-.6h3.2c0-.1 2.5-.9 2.5-.9l5.6-3 4.2-.2 3.8-1.9 2.7-.9Z"/><path id="AZ-LAN" d="m357.6 407.7-2.7-4.5-.4-2.1.3-5.1.3-.9h-1.4l-1.3.4-1.8 2.7-2.3.5-2.3 1.4-1.8 1.5-3.7 1.4-1.8-.9-4.7-3.6-2.8 5.3v1.3l1.4 2.8.7.9 6.6 4 1.3 3 1.2 1.5v1.3c.1 0-.5 1.5-.5 1.5v.9l.5.5 1.8 1.1 1.6 2.4-3 4.8 2.1.7h3.6l4.1-1.7 4.7-1.4 2.9-.7.5.5v-1.7l-.6-2.7-.9-6.2-.2-2.9zm-.1 9.3-1.5.4-1.8-1.1-.4-1.6 1.4-1.4 1.7-.2 1.1 1.1.4 1.7zm-1.4-47.6 2-3.4 10.3-9.8 1.2-1.7.6-.3h.7l.7.3.9.9 2.6 5.3.7 1 .9.3h2.9c0 .1.7.5.7.5l1.5 1.3 1.8 1 3.2.2 1.4.7.2.7-.4 2.4-.5 1.2-.8.9-.4 1.6.2 2-.2 1-.6 2.6-.6-.4v-1.2c.1 0-1.8-2.5-1.8-2.5l.3-1.5-1.6 1.7-1.4.4-1.7.9-1.8-.5-.3-2-.2-.2.7-2-.8-.5.6-.9-.3-.8-.6-.3-1.1.3h-.6l-.5-.9.3-1.1h.7l-.1-1-3 .9-1.8 1-.8 1.6h-2.1l-3.4 3.4-1.4.8.5 1-.3.5-.4 2.4-.8.9 1.2.7.5.6.8 3.1v2.3c-.1 0 0 1.6 0 1.6l-1 2.3 1.6 2.2-.2 2.4-.6 2.6-1.8 1.1.2 2.2-.8 2.2-1.3 1.4-1.8.2-1.8-.3.5-2.2 1.3-.8.3-1.3v-2.2l2.6-3.5.2-1.2-.5-3.7-1-1.3-1-2v-2.1l.5-1.1v-.9h-.1l-1.9-2-1.3-.8-.6-.7-.2-3 .7-4.4Zm29.4 11.2 1.1-.8-.4 4.2-3.3 3.5-.3 1.5.9.7.7 2.8-7.9 1.1-1.4-.4-.9-1.6.3-.8 1.4-1h1.7l1.1-.9 3.5-3.6 2.7-3.2.9-1.4Z"/><path id="AZ-LER" d="m342.7 429.7-3.4 1.9-1.7-.5h-1l-4.1 2.4-.9 1-.3 2.7-1 1.6-.6.6-1-1.4-1.6-1.3-1.1-3.1-2.5-.5-.5-.5-.6-1.5V428l-1-.9-1.4-.4-2.5 1.1h-1.8c0 .1-2 .9-2 .9h-1.1l-2.6-.9-1.1-1.6-.2-1.5-.6-1.1-2.7-1.4-.7-.9-.3-2.8.6-1.6-.8-2.2.9-2.2 1.3-.9.4-.6.3-3.3 1.6-1.8 1.6-2.3 3-1.6 2.7-2.8 11.9-6.6 1.9-1.9 2.9 3.3.9 1.7.2 3-2.8 5.3v1.3l1.4 2.8.7.9 6.6 4 1.3 3 1.2 1.5v1.3c.1 0-.5 1.5-.5 1.5v.9l.5.5 1.8 1.1 1.6 2.4-3 4.8Z"/><path id="AZ-MAS" d="m361.2 389-3.6.3-1.3 1.3-.2 1.6-1 1.6v1.3h-1.7l-1.3.4-1.8 2.7-2.3.5-2.3 1.4-1.9 1.5-3.7 1.3-1.8-.9-4.7-3.6-.2-3-.9-1.7-2.9-3.3-1.8-1.2-1.9 1h-1l-.5-.2-1-2.3.2-2.3 5.2-1.1 1.6-1.5.4-1.5.9-1.7 1.8-1.7 6.2-3.2.2-.5-.5-1.2-1.3-1.9v-1l.4-.7 1.4-.7h1c0 .1 1.2.6 1.2.6h.6l.2-.5-.4-1.5.2-.5.5-.2h1.5l1.8.8 1.2 1.4 1 .6h1.8l1.9-.5h1.1l2.8.2-.7 4.4.2 3 .6.7 1.3.8 1.9 2v.9c.1 0-.4 1.1-.4 1.1v2.1l1 2 1 1.3.2 1.4Z"/><path id="AZ-MI" d="M195.6 186.7h.6l2.1-1h.8l.7.8h.5v1.2l.6.6.3.7-1 1.8-1.8 1-2.2.7h-1l-3.4-1.7-2-2.7v-.6l1.4-2.5h.8c0-.1 3.6 1.7 3.6 1.7"/><path id="AZ-NA" d="M175.3 222.7v1.6l1.2 1.2 2.3.3 1.2-.9.4-1.3-.4-2.1-2.1-.8-2 .6-.6 1.3Z"/><path id="AZ-NEF" d="m384.2 392.5-.7-2.8-.9-.7.3-1.5 3.3-3.5.4-4.2 1 .6.3 5.9-.6 1.9-.4 2.8-.8.9-1.9.5ZM369.3 330l.9-.9.4-.8v-2.4l-2.8-2.4-.8-1.7-.2-3.5 4.4.6 1.6 4.5h.2l.7.3 2.5 3.5.6 1.1 1.3 1.1 2.8 1.5 2.1.4.8.4.7-.2 1.1-1.3 1.8-.9 2.5-.7 1.7-.2 1-.5v2.5l.4 1.4 1.6 2.8 6.4 6.4.7.5.7.2.6-.2.3.2-.2.3v.2c.1 0 .9-.1.9-.1v1.1l-1.1 2.1v.6l.5.9.8 2.2 1.1 1 .6 1.8 1.8 2v2.2l-1.7.4-4-.5-.8-.6-2.7-3.7-1.4-.6-1.7-1.5-1.5.4-1.8 1.5-.8 2.3.4 2.9-.9 1.6-.3 4.1v3.6c.1 0-1 6.4-1 6.4l-1 3.1-.3 3.1-2.4-.6.6-2.3.2-1-.2-2 .4-1.6.8-.9.5-1.2.4-2.4-.2-.7-1.4-.7-3.2-.2-1.8-1-1.5-1.3-.7-.3h-2.9c0-.1-.9-.4-.9-.4l-.7-1-2.6-5.3-.9-.9-.7-.3h-.7l-.6.3-1.2 1.7-10.3 9.8-2 3.4-2.8-.2h-1.1l-1.9.6h-1.8l-1-.7-1.2-1.4 1.1-2.5v-5.9l-3.4-6.5v-7.6l1.6-3.1 2.7-3.3 2.8 2.1 1.8 1.2 2.3 2.3.9.4.9.7.7.4h1.1l2.7-2.3 1.2-.8 1.3-.2.6-.4v-2l-.7-1.8v-3.1l1.6-3 .5-.5 3.1-1.8Z"/><path id="AZ-NV" d="m61.5 357.1 2.2.8.8 1.7v1.8l-1.3 1.3-1.8.7-2.5-1.3-1.2-1.8.7-1.3 1.2-1.2 2-.7Z"/><path id="AZ-OGU" d="m228.8 129.3 2.9 1.2h.7l2.5-.6 1.4.8 1.7-.4.5.2 1.1 1.2v2.1c-.1 0 .3.6.3.6l3 2.8h.5c0 .1 3.6-1 3.6-1l1.1-.7 1.4-1.6.9-.2.6.2 1.1 1.2.6.3h1c0 .1 1.8-.1 1.8-.1l1.1.5-.4 5.9.7 3-1.3 2.9v3.6c-.1 0-1.8 3.4-1.8 3.4l-1.5 2.1-1.7 2v2.1c-.1 0 .5 1.9.5 1.9v1.4l-1.5 3.2-1.2 1.5-.7 1.4-.9 4.6-1.3 4.3v2.1l.3 2.7-3.2-2.1-8-4.2-2.3-1.5-4.1-4.3-1.4-2.9-.3-3.1-.9-.4-1.5.6-.8-.2-.3-1.1.5-1.5v-.7c-.1 0-2.8-1.7-2.8-1.7l-.6-.8v-1.8l.6-1.8.2-2.4 4.8-9.4.3-1.3 1.2-2.3.3-8.1 1.2-3.3Z"/><path id="AZ-ORD" d="m91.9 392.7 1-1 .3-1.5 1.3-1.3-.3-2-1.7-2.2-1.3-.2-1.8-1.3.7-1.2.7-2.5.2-2.2 1.2-2.5 3-3.8 1-3.8 2.8-3.7.2-5.5 1.5-2.2 2-.8 4.4-6.6 4.3 2.6v4.4l-.4 1v3.7l.4 1.2v1.9l1.2 1.2-.4 2.5 1.7 2.2-.2 2.7.8 2.2 3.2 2.1 1.1 3.4 1.4 1.6v3l1.1 3.8 3.2 8.2-1.2 5.6-1.1-.6-1.7-1.8-1.6-.6-.8-.6-1.1-1.5h-.5l-.2 1.1-.4.5h-1.1c0 .1-3.1-.3-3.1-.3l-4.6-1.9-.5.2-1.6 1.6-.5.2-4.1-1.7-.5-.5-.4-1.1-.5-.3h-.8c0-.1-1.7.4-1.7.4l-2.5-1.9-1.5-.6Z"/><path id="AZ-QAB" d="m259.9 197.4-2.4 1.5h-5.4l-4.6 2.5-.9-.9-2.9-1.5-.9-.8-.2-7.4-.5-3.1.5-.9.5-.3h.9l1.2.6.8-.2.3-1-.4-2.1-.4-2.7V179l1.4-4.3.9-4.6.7-1.4 1.2-1.5 1.5-3.2v-1.4l-.7-1.9v-2.1c.1 0 1.9-2 1.9-2l1.5-2.1 1.7-3.4v-3.6c.1 0 1.5-2.9 1.5-2.9l-.7-3 .4-5.9 2 2.7.9.7 1.9.3h1.2c0-.1.6-.4.6-.4l1.4-2 1-.7 1.6 3.8.7.7 1.4.8 2.1.3 1.3.5 3.6.5-1 2.3.9 2.1 3.5 3.6.7.3 2.6.4 2.2 2-2.1 2.8-1.2 4.4-.7.5-.9-.9h-.7l-.9 1-.8 2.5v1l2.5 3.5.9 2.5v1.7l-.7 1.8-1.5 1.3-1.4.7-1.8.4-.3.8v3.6l-.3 1.1-8.9 5-.7 1-2.6 5.3-.8.8-1.5.9-1.3 2.2Z"/><path id="AZ-QAX" d="M166.6 150.3v-.3h.1l-.7-1.5 1.1-2.3-.2-3.4.3-.9.6-.3v-1.3l.3-.3-.7-1.4-.2-1.1 1.5-2 .3-.8 1.5-1.5v-2.3l1.4-1.7 1.2-.9v-.5l-.5-.6-2.2-.3v-.8l-.8-1.1.2-.7-.3-.9.3-.3v-.3h-2v-1.3l-.9-.2.3-.5-.2-1.7h-.4c0-.1-.2 1.2-.2 1.2l-.4.6-.5-.5h-1.1c0-.1.3-.8.3-.8l.8-.2.4-1.1 1.2-1.1 1.6-2.4 4.9-9.8.4-1.6 1-1.1 3.6-1h4.7l1.9.7 1.7.3 1.2.5 2.1.2 1.5.6h1.4l2.5-1.8 2.1-.5 1.1-1.7.8-2.5 1.9.5.6-.2.4-.4.2-1.2.4-.5 2.6-1.4h.8l.9 1v2.3c.1 0 .7 1.2.7 1.2l3.1 2.8-.2 3.1 1.1 1-1.3 6.3-1.6 1.9-3.4 1.9-1.3 1.9-.7.7-2.4.5-6.6 3.2-1.3.3-1.5.7-4.6 3-1.8 1.9-.2 2.4-.3.7-3.3 2.1-.5.8-.2 6.4-.6 1.5-.2 2.1-.6 1.8.4.6 2.8 1.1 3.4 2.2 1 1.1 2.3 4 .3 1.3 1.1 2.3v.7c.1 0 .1 9.3.1 9.3l-.2 2.8-4.8-2.3-6.6-4.2-3.2.2-.2-2.9-1.5-2.7-.8-2.5v-4l-.3-.8-2.3-1.4h-2.1l-1.5.5-1.1-.5Z"/><path id="AZ-QAZ" d="m58 158.5-3.2 1.8h-2.1l-1.9-3.8-.9-.5-1.6 1-.2 1.4-.2.2h-.4c0 .1-1.4-.2-1.4-.2l-1.4.4-.8-.3-1.1-2.2-1-1.2-.7-.3-1.2.3-.4-.3-.6-1.6-.2-3.2-.6-.3-2.3.2-.4.2v.8c-.1 0 1.1.6 1.1.6v.3l-.7 1.9-.7.5-2-.2-1.6 1.2h-1.1l-.8-.5-.4-1.3 1.9-2.9v-1.4l1-1.3 4.7-.7 2.7-.8 1.1-.6 1.1-1.5 1.2-.3.2-.4-1.2-1-2.1-.3-3.2-5.3-.8-.3-.9.2-1.7 1.4-.9.5h-.6l-2.9-.4-2 .2-.6-.7v-1l2.3-1.7.8-1.5v-1.1l-.2-.6-2-2.7-.7-2.5-.8-.5 3.6-1.5 1.9-1.4 1.9-.6 1-.6 1.5-2 6.5 3.6 2 1.7 4.5 2.4 2.5.9 1.7.3 1.2.5 3.6.2 1 .5.7.9.8 1.8v1.4l-.5 1.2-.3 2-1.1 3-.2 1.7-.6 1.5.5 2.5-1.1 1.5v.7c-.1 0-.1 1-.1 1l.6 1.5v2.8c.1 0 .7 1.6.7 1.6v3Z"/><path id="AZ-QBA" d="m316.2 166.6-.6-1.5-.8-.9-3.5-1.9-1.7-.3-1.8-.6-1.8.6h-1l-7.7-4.3-3.3-1.2-2.9-1.8-3.6-.3-2-.6-2.2-2-2.6-.4-.7-.3-3.5-3.6-.9-2.1 1-2.3 5-4.3 20.2-14 12.2-9.1 2.9-2.8 4.7-2.3 1.3-.3 3.7-1.8 1.3-.3 2.9-1.3 1.2-.8.3 1.1 1.5 1.5.6 1 5.8 11.7.8.2 3.8-1.7h.3l1.3 1.7-.6 4.4-.6 1.4v3.2l1.5 1.8.2.7-.7 1.4-1.6 1.7-.8 1.2-2.7 1.6-.8 1.2-1.6 1.7-1.7 3.3.4 1 6 6.1.7 1.1v.8l-.9 2.6-1 1-1.8 1.1-1.3 1.6v1.8l2 2.5-.6 1.9v6.4l-7.4-2.7-2-.4-6.3-2.8h-9.3Z"/><path id="AZ-QBI" d="m152.1 332.7 3.7 2.6h3.9c0 .1 1.2-.6 1.2-.6l4.2-3.9 1.1-.3 1.9.3 1.7.6 4.1-1 .9.3 1.8 2.8-.9 2.2-1.6 2.4-1 .3-1.4 2.5-.2 3.1.2.9 1.6 1.3 1 1.8.3 4.8.7 1.4.7.9 4.2 2.3 1.6 1.5-3.9 2-1.8 1.5-1.8 1.1-2.4 2.4-2.2 3.9-1 1.2-.8.3h-1l-1-2.1v-3.1l.6-1.9v-1.9l-.1-1.4-1.1-1.2-.2-.5h-.4c0-.1-2.6-.3-2.6-.3l-.7-.8-.5-1.6-2.4-.8-1-1.4-.7-2.5v-.3l.5-.9-.2-1.2-2.6-3.4h-.6c0 .1-1.4 1.5-1.4 1.5h-.9l-3.6-2.7-1.9-2.6-1.9-5.2 1-1.1.6-1.9 1.1-.4 3.8.8.5-.3.8-1.3Z"/><path id="AZ-QOB" d="M346.9 234.6h-3.7l-2.6.6-1.2-.3-.5-.8.2-.7.6-.8 1.9-.4 1.9-1.2.4-2.9 2.7-5.4-.2-.6-1.6-2 .4-1.1v-1.4l-.6-1.5v-2.8c-.1 0-.7-1.8-.7-1.8l.5-2.1-.9-1.1-1.6-1.3v-.9c-.1 0 2.7-4.3 2.7-4.3v-2.5l-.6-1.8v-3.1l.7-1.4 2-2.6 2.3-.5 3-2.2h1.8c0-.1 5.4 3 5.4 3l1.7 1.6 1.6 1 1.5 2.3 6.6 6.7 2.1 1.2 2.8.3 3.3 1.8.9.9 1.8 3.7.9 1 1.4.8 1.9 1.6 5.4 2.8-2.7 4.7-.6.5-1.4.7-1.3.7-1.7 2-2.7.3-2.2.7-1.6.8-2.7 4.4h-.2c0 .1-2.4.3-2.4.3l-1.2.7-1.3 1.2-.6.8-.3.6-1 1.7-1.7 1-1.2 1.3-.7 1.3-1 .8h-.2l-.4-.5-.7-1.1-.3-.2-3.7-2.3-1.8-.6-2.8.4h-3.6c0-.1-.9-.6-.9-.6l-1.6-1.6Z"/><path id="AZ-QUS" d="m332.2 105.8-1.2.8-2.9 1.3-1.3.3-3.7 1.8-1.3.3-4.7 2.3-2.9 2.8-12.2 9.1-20.2 14-5 4.3-3.6-.5-1.3-.5-2.1-.3-1.4-.8-.7-.7-1.6-3.8 1.6-.3 3.8.2 1.2-.2 1.1-.7.7-1.4-.3-3.2.2-.7.5-.9 2.3-2.3.6-1.4.3-5.4.8-1.4.7-.6 2.4-1 2.2-3.2 1.1-2.1 1.1-3.1v-2.6c.1 0 .6-.8.6-.8l.5-.3 3.6-.8h1.6l2.2-.8h1.8l1.6.4 1.5-.2 1.7-1.1 1.9-.4 1.5-.6 1.4-3.1 1.1-1.1 1.6-.7 1.9-.5 3-1.7 3.9-3.2 1.1-1.7.4-1.4.8-5.2.9-4.1 2.2-.6h2.5l1 .5.8 1.5v.5l-1.8 3.7v6.5l.3.7 1 .8.8.3h2.9c0 .1.7.5.7.5l.4.6v.7l-.5 1.2-1.2 1.5-.6 1.4.3.4 1.6 1 .7.9.2 1.7.6 1.5-.2 1.5Z"/><path id="AZ-SA" d="m208.9 136.2-1.3 1.7v1.6l.7 1.6 3.1.5 1.5-.6.7-1.9-.6-2.3-1-.9-1.6-.7z"/><path id="AZ-SAB" d="M332.7 311.9h-1.6l-.8-.3v-1.3c-.1 0 .5-1 .5-1l3.2-1h2.5c0-.1 4.5-2.3 4.5-2.3l1.1-1.6 1.6-3.1V300l-1.9-3.7v-.7c-.1 0-.1-2.1-.1-2.1l.7-1.8v-2.1l-2.6-3.7-1.6-1.5-2.6-.4-.7-.3-2.4-2.2-2.7-1.7h-3.9c0-.1-.7.2-.7.2l-1 1.5h-.9c0 .1-.8-.2-.8-.2l-1.3-1.2-.9-2 1.6-1.9v-.6l-.8-.7-3.1-1.8h-.8l-2.2.6-3.5 1.4-5.1 3.1-.7-.6-1.4-2.3 3.3-2.9 3-1.1.6-.4v-.7c.1 0-.3-.8-.3-.8v-1l1.5-3.7 4.4-2.7 1.8-2.8 1.5-.4 2.1-1h11.3c0 .1 4.1 2.1 4.1 2.1l2 .7.5.5v.4l-.6 2.2-1.2 2.5.7 1.7 1.1 1.7 2.5 1.1 7.8 1.9 1.4.8 1.8 2.2 1.5.9.8.8.3.7.3 2.2 3.1 1.8-.4.9.4.4-.4.6-.9.6-.5 1v1.3l.6 1 2.1 1.7 1.3 1.4v.4l-1.6 3.3.5.8 3.1 3.1.5.9v1.7l-1.3 2.2v.7c-.1 0 0 3.2 0 3.2l.6 1.8v2.4l-.6.8-3.6 1.8-.5.5v.7c-.1 0 .9 2.9.9 2.9l-.6.5-1-.2-1.7-1.5-.8-.3h-3.6l-1.9.5h-1.4l-11.9-3.9-2.4-1.2h-1.6Z"/><path id="AZ-SAD" d="m16.7 301.9 3.5 1.3 2.5-.3 2-.8.3 3.4-1.2 1.5-1.8.7-2 1.8v2l1.2 1.7v1.2l-.7 2.3-3.3 1.5-2.2.7h-1.2l.2-1.9-1 .4-1.6-1.3-3 .6-1.3-1.8 2.2-3.5-.8-1.8-1.8-1.3-1.7-1.6.7-1.8 2.2-1 1.8-1.7 3.7-.8 3.5.8Zm5.2-3.2h-1l-1.2-1-.7-1.3v-1.3l2.3-.8h1.5l.3 1.7-.7.5-.2 1.3-.5 1Z"/><path id="AZ-SAH" d="m94.9 343.2-2 1.1-.3 1.7-1.2 1.7-2.3 2.3-1.5-1-.3-1.5-.8-.7h-1.7l-1.2 1.8-1.5 1h-2.3l-4 3h-1.5l-.7-1 .8-2.3-2.5-1.8-2.5-2.8-5.2-.3-1.3-2.2-.3-2.5-1-1.3h-1.2l-1.8-.5-.5-2 4.5-3.2 1.8-2.3 1.2-.5.2-1.5h1.3l1.2-.3.8-.5 3.2-3.4 2.8-1.1 2.6-1.5 2.3-.3 1.4-.5 1.4-1 1.5-1.9 1.2-.9h.8l3.1 1.7 2.5.3 1.5 1.3.7 1.4 2.1 2.9.2 1.1-.3 3.6.3.8.9.9.3 1-1.4 3.6-2.4 4.2v1.6c-.1 0 .2.9.2.9l1 1Z"/><path id="AZ-SAK" d="m224.9 127.6-4.7-3.1-.6-.7-.5-3.7-.3-.8v-3.4c-.1 0-.5-.5-.5-.5l-.5-.2-1.5.2-.7-.7v-2.1l1-1.7v-.6l-2.4-1.1-.4-.6-.4-2.1-1.2-1.3-1.3 6.3-1.6 1.9-3.4 1.9-1.3 1.9-.7.7-2.4.5-6.6 3.2-1.3.3-1.5.7-4.7 3-1.8 1.9-.2 2.4-.3.7-3.3 2.1-.5.8v6.4c-.1 0-.7 1.5-.7 1.5l-.2 2.1-.6 1.8.4.6 2.8 1.1 3.4 2.2 1 1.1 2.3 4 .3 1.3 1.1 2.3v.7c.1 0 .1 9.3.1 9.3l-.2 2.8 2.2.9 5.9 3.1 4.4 2.7 4.3 2.2 1.7.3 4.8 2.7 5.1 1.8 2 .6 3.6.3 4.1 2.1h1.3l.8-1.1.8-.2 4.6 1.7 1.6.8 3.8-1.1.5-.9.5-.3h.9l1.2.6.8-.2.3-1-.4-2.1-3.2-2.1-8-4.2-2.3-1.5-4.1-4.3-1.4-2.9-.3-3.1-.9-.4-1.5.6-.8-.2-.3-1.1.5-1.5v-.7c-.1 0-2.8-1.7-2.8-1.7l-.6-.8v-1.8l.6-1.8.2-2.4 4.8-9.4.3-1.3 1.2-2.3.3-8.1 1.2-3.3-3.9-1.6Zm-12 13.4-1.5.6-3.1-.5-.7-1.6v-1.6l1.3-1.7 1.5-1 1.6.7 1 .9.6 2.3z"/><path id="AZ-SAL" d="M372.9 323.3h-.2l-1.6-4.5-4.4-.6.2 3.5.8 1.7 2.8 2.4v2.4l-.4.8-.9.9-3.1 1.7-.5.5-1.6 3v3.1l.6 1.8v2l-.7.4-1.3.2-1.2.8-2.7 2.3h-.9l-1-.5-.9-.7-.9-.4-2.3-2.3-1.8-1.2-2.8-2.1 1.3-5.9-1.7-2.7-1.6-1.7-.3-1.3v-1c.1 0 .7-1.1.7-1.1v-2.1c.1 0 .6-1.1.6-1.1l.3-1.7 1-3.1h1.4l1.9-.6h3.6l.8.4 1.7 1.5 1 .2.6-.5-1-2.9v-.7c.1 0 .7-.5.7-.5l3.6-1.8.6-.8v-2.4l-.6-1.8V303l1.2-2.2v-1.7l-.4-.9-3.1-3.1-.5-.8 1.6-3.3v-.4l-1.3-1.4-2.1-1.7-.5-1v-1.3l.5-1 .9-.6.4-.6 1.7.7h.8l.5-.3v-.9h.1l.5.2 2-1h2.9l2.1 1.2 2.5 1.9 2.1 1.2 3.2.3 3.7 1.4 2.9-.6 1 .2 1.2.5h1.4l2.6-1.1h.5l1.2.9.7 1.2 1.1 1.2 1.9 1.2 2.8 2.5-.8 1.3-.2.8v7.3l.1 1.1.5 1.2v3.4c.1 0 .6 1.2.6 1.2l-2.3 2.3-1.1 2.9-.2 1.5-.8 2.2-.5 2.5-1.3 3.4-.6 2.7-1 .5-1.7.2-2.5.7-1.8.9-1.1 1.3-.7.2-.8-.4-2.1-.3-2.8-1.5-1.3-1.1-.6-1.1-2.5-3.5-.7-.4Z"/><path id="AZ-SAR" d="m51.6 317.7-4.3 1.3-2.7 2.7-.5 3.8-1.2 3.5-2 4.3-3.3 2.5-3.2 1.8-2.8 2.2-1.7 2.2-.5 2.1-1.9-2.3-2-.2-5-3.7-.8-3.3-1.8-2.2-.3-4.7-2-1.8-1.7-2-.3-4.3v-1.1h1.3l2.2-.6 3.3-1.5.7-2.3v-1.2l-1.2-1.7v-2l2-1.8 1.8-.7 1.2-1.5-.3-3.4 2.3-1.4 1.6-1.5 1.5-2.6 1-1.2 3.8.3 1.7.8 1 2.8-.2 1.9.6 1 .9 2.3 1.6 1.2.9 1.5.6 1.8v2.8l-.6 1.7.4 1.7-.3 1.6.5 1.5.4.6 1.9-1.2 3-2.7 1.7-.2 2.2.2.7 1-.3 1.5.3.4Z"/><path id="AZ-SAT" d="m332.7 311.9-1.1 2.9-.7.9-1.2.3h-2.9l-.7-.2-.5-.5-.9-1.8-1.6-2.2-2.5-1.1h-.5l-.7.4-1.7 1.6-2.4 3.1-1.1-1.7-2.2-2v-5.9l.7-2.5-.3-1.3-1.5-2-.6-.5-4.9-1.1-2.1-1.2-.6-.7-.7-1.4-.9-2.4v-2l3.5-6.7v-1l-.8-1.4-1.8-2.2 2-3.8 1.4 2.3.7.6 5.1-3.1 3.5-1.4 2.2-.7h.8l3.1 1.9.8.7v.6l-1.5 1.9.9 2 1.3 1.2.8.3h.9c0-.1 1-1.6 1-1.6l.7-.4h3.9c0 .1 2.7 1.8 2.7 1.8l2.4 2.2.7.3 2.6.4 1.6 1.5 2.6 3.7v2.1l-.7 1.8v2.1l.1.7 1.9 3.7v1.3l-1.6 3.1-1.1 1.6-4.5 2.2h-2.5c0 .1-3.2 1.1-3.2 1.1l-.7 1v1.3c.1 0 1 .4 1 .4h1.6Z"/><path id="AZ-SBN" d="m382.2 145-1.4-.5-2.1-1.9-1.7-2.1-1.5-.9h-1l-4.1 2h-.7l-1.8-.7-1.8.6h-3.2l-1 .4-.9 1.5-.2.9 2.1 5.5v3.9l-2.2 3.5-.7.5h-2.5l-2.6 1.8-1 1.1-.3.6v1.4l.7 1.9v3.8l.7 1.6.5 3-2.1 1.1-3.3 3.2-8.7-4.5v-6.4l.5-1.9-1.9-2.5v-1.8l1.2-1.6 1.8-1.1 1-1 .9-2.6v-.8l-.7-1.1-6-6.1-.4-1 1.7-3.3 1.6-1.7.8-1.2 2.7-1.6.8-1.2 1.6-1.7.7-1.4-.2-.7-1.5-1.8v-.9c-.1 0 0-2.3 0-2.3l.6-1.4.6-4.4 1.5.3 4.1-1.8 3.2 1.9 2.4-.7 2.9-1.7h1c0-.1 2.9 0 2.9 0l3.4 1.5 6.9-.3.2.6 1.7 2.2 2.4 6.2.2 1.7.7 2.4.9 6.9 1.2 4.8Z"/><path id="AZ-SIY" d="m400.1 173.9-.9.4h-1.5l-2.5-1-.7.2-1.7 1.4-1.1.4-7.9-.3-7.1-4-1.6-.5-1.3-.8-.9-1.6v-4.3l-.3-.6-.5-.2-4.1 2-.8 2-.3 2-.7.7-5 2.1-1.3.3-2.3 1.1h-2.3l-.5-3.1-.6-1.6v-3.8l-.7-1.9v-1.4l.3-.6 1-1.1 2.6-1.8h2.5l.7-.4 2.1-3.5v-3.9l-2-5.5.2-.9.9-1.5 1-.4h3.2l1.8-.6 1.8.7h.7l4.1-1.9h1l1.5.8 1.7 2.1 2.1 1.9 1.4.5v2.5l1.8 4.4.5 3 .4.9-.5.4v.3l.8.5 1 1.9 2 2.3 2.1 1.9 1.2 1.5 1.9 1.3 2.9 4.7 2.5 1.4 1.4 1.9Z"/><path id="AZ-SKR" d="m118 200.6-4.3-2.5h-.8l-.7.1-1.3 1.9-1.9 3.7-1.6 1.7-.8 1.4-2.4 2.4v.7l-.7.7-.6-.7v-.5l.6-1V206l-.6-1.5.9-2.2v-.6l-2.7-2.2-.6-1.7-.5-.6-4.1-2.5-2.9-4.2-.9-1.7-.4-3-.8-.8-1.5-.9-2.2-3.4.2-1.5-.5-1.2v-1l.9-1.9 3.6-2.1 2.2-2.3 1.3-.7 2.3-2.1 2-1.3 1.9-2.8 1.2-4 1.2-.3 14.1.3 1.2-.3.5-.8.4-2 1.6-1.7.6-1.2 5.2-5.2 1.5-3.6 2.7 4.4 3.8 4 3.1 6.4-.2 1.4-2.5 4.1-.2 2.5-.6 1.4-.2 1.8-2 3.2.2 1.3 1.8 2.1.3 1.9-1.8 3.7-1.2 1.5-.2 3.8-1.2 2.6-.2 3.1-1.1 2.2-1 .8-.9.2h-6.1l-1.5 1.6-1.9 1.4Z"/><path id="AZ-SM" d="m429.2 208.6-1.4 2.6-1.3.6-1.8.2-1.5.6h-3.3l-.8-.3-2-3.4-.7-1.2-5.8-5.8h-.2c0-.1-.5 0-.5 0l-.6-.8.2-.9 1.5-.7 2.5-.2.6 1.7.9 1.5 1.3.4 2.6 1.4 1.4.2h4.7l2.3 3.2.8.7 1 .3Z"/><path id="AZ-SMI" d="m352.1 187.7-3 2.2-2.3.5-2 2.6-.7 1.4v1c-.1 0 0 2.1 0 2.1l.7 1.8v2.5l-2.9 4.3v.9c.1 0 1.8 1.3 1.8 1.3l.9 1.1-.5 2.1.6 1.8v2.8c.1 0 .7 1.5.7 1.5v1.4l-.4 1.1 1.6 2 .2.6-2.7 5.4-.4 2.9-1.9 1.2-1.9.4-.6.8-.2.7.5.8 1.2.3 2.6-.6h3.7l-1.1 5.3-1.6 1.5-1.2.6-1.6 1.4-.7.2-1.9-.9-3.4-2.4-3.8-1.4-2.2-1.7-4.3-.3-1.6-.8 1.9-2.8 1.8-2.1V227c.1 0 .6-1.1.6-1.1l1.6-1.4 3.7-1.7 4.5-2.5.7-.7.5-1.1-.3-.4-.9-.2-1.6-.9-3.9-2.6-6.5-.3-2.7-1-1.1-1-2.2-3.6v-.9c-.1 0 .8-1.7.8-1.7l4.3-4.2 1.7-2.4.2-.6-.5-1.8 2-3.3v-1l-1-2.3-1.6-1.1-1.5-1.5-.5-2-1-1.7 3.4-6.6v-1.3l-1.1-1.8-6.4-4.5-1.1-1.2-1-2h9.3c0 .1 6.3 2.9 6.3 2.9l2 .4 7.4 2.7 8.7 4.5-1.5 2.3v2.5l1.6 3.4 2.1 2.3Z"/><path id="AZ-SMX" d="m123.4 136.9 2 1 3.4-.4 5 .2 2.5 2.3 6.6 8.5h1.6l1.9-1 2 .8.4 2.4 2 2.6 1.2-.3 1.2-2.2 2.4-3.5 1.7-1.2 2.1.5 2 .8 1.4 1.6h1l.7-.5h1.8l.7 1.5v.3l1.1.5 1.5-.5h2.1l2.3 1.4.3.8v4l.9 2.5 1.5 2.7.2 2.9-2.5 2.4-1.3 1.9-2.7 2.7-.7 1.4-2.9 2.9-1.4 2.1-2.3 2.2-1.3.7-1.6 1.4-1.4.7-.8.8v.5c-.1 0 .8 2.2.8 2.2l-.9 1.5-2.8 1.5-1.6 1.5-.4 2.3-.9 1.9-.2 1.7-.6.4-1.6.4H147l-2.5-.7-1.7-.9.5-2.3v-.7c-.1 0-.6-.7-.6-.7l-1.5-.8h-2.4c0 .1-.2-4-.2-4l-.6-1.5-.2-1.7-2.5-4.6-.3-1.9-1.8-2.1-.2-1.3 2-3.2.2-1.8.6-1.4.2-2.5 2.5-4.1.2-1.4-3.1-6.4-3.8-4-2.7-4.4-.8-.7-3.9-1.2-3.1-1.9-1.1-.2-.7-1h.2c0-.1.6-2.3.6-2.3l1.6-.4.4-.5h1.4Z"/><path id="AZ-SR" d="M362.7 282.7v.9c-.1 0-.6.3-.6.3h-.8l-1.7-.8-.4-.4.4-.9v-3.5l-1.1-2.4v-.7l.5-1.1 1.4-.5.5.2 1.3 2.4 1.7 2v.6l-1.2 1.7v2.1Z"/><path id="AZ-SUS" d="m157.6 300.1 2-.5 2.5-.2 2.9-1.7.8-.2h1.4c0 .1 2.3 1.1 2.3 1.1l3.9 2.6 1.6 3.7 2.8 2.7.4 2.5.7 1.4-4.6 7.4-.6-4.5-.6-.8-.8-.3h-2.5l-2.3.9-.9 1.2-.7 1.4-.3 1.3-.7 1.3-.9.7-1.9-.9-1.1-1.5-.9-.8-1.2-.2-1.3.3-1-.6-.3-1.2V312l.9-1.7 1.2-1.5.6-1.3-.4-1.1v-2.8c-.1 0-.8-1.6-.8-1.6l-.3-1.7Z"/><path id="AZ-TAR" d="M204.4 254.5h-1.1l-1.6.4-1.4-.4-1-1.1-.3-2.8-1.4-1.4h-.9l-1.1 1-.8.2-1-.4-1.9-1.7h-1.2l-.2 1.2.6 1.5v.6l-1.4 1.5-3.2 1.2h-1.4l-1.2-.6h-.6l-1.9 1.1-.3.8v3.2l-.9 2.1-.7.6-2.2 1-.5.5v1.3l.5 1.7-.8 3-1.8-2.3-1.5-1.4.4-1.7-.3-.6-2.4-1.8-3.2-3.2-1.2-1.6-3.3-1h-1.4l-2.2 1-1.9 1.6h-1.2l-.9-3.2-.2-2.4-1.2-2.6v-5.3l.2-1.6 1.7-1.5.8-3.6.2-1.8 1-1.1 2.6-.7 2-1.5 1.5-.4 2.8-1.4 2.1-1.6 2.5-1.5h7.4l1.7-.8 5-3.7 1.2-.6 1.2-1.8 1.1-1.1 1.1-.6.6.9.2 2 .8 1.7 2.3 2.6.5 3.6.9 2.3 1.9 1.4 1.6 3.2.7.9 1 .5 2.4.3.7.7v.9c.1 0-.6 2.3-.6 2.3v7.7l.1 1.1.6 1.4.2 1.7Z"/><path id="AZ-TOV" d="m87.4 180.7-.5 2.7-.6 1.8v4.2l.7 2.2-.6 2.2v8.9l-1.4 2.7-.7.7-.9.4-1.3-.5-2-2.1-2-.4-.5-.5-.5-1.2.5-1.5v-2l-.5-.5-3.8-2-4.3-.3-1-.4-.4-1-.2-4.2-.9-1.7-.9-1 8.8-6.6 1.4-1.9.8-2.9v-2.2c-.1 0-.6-1.1-.6-1.1l-.7-.4-1 .5-.4-.7-1.2-.8-2-.4-1.3-1.8-1.6.2.3-1.7-1.6-1-.4-.8v-1.7l-.3-.5-.8-.4-.4.2 2.1-2 .6-2 5.1-1.3 2.8-2.6 1.1-2v-3.2l-1.2-2.6-.3-2.1-.5-1.2V142l.2-.7h.8l4.5 2.4h.6l1.3-1.2.8-2.3 2-2 7.9-4.2.8.6 1.6.6 1.3.3h2.1l1 .2 3.4 1.7 1.8 1.6 2.2 1.2 2.8.2 2.5-.5 1.9.2h2.2c0-.1 2.4.6 2.4.6l1-.5.7 1 1.1.2 3.1 1.9 3.9 1.2.8.7-1.5 3.6-5.2 5.2-.6 1.2-1.6 1.7-.4 2-.5.8-1.2.3-14.1-.3-1.2.3-1.2 4-1.9 2.8-2 1.3-2.3 2.1-1.3.7-2.2 2.3-3.6 2.1-1 1.9v1l.5 1.2-.2 1.5Z"/><path id="AZ-UCA" d="M277.2 238.1H272c0-.1-1.2.4-1.2.4l-1.7.2-2.2.6h-4c0-.1-1.9-.8-1.9-.8h-1.4l-3.4 1.9-1.3.4-.6-.4-1.4-2.6-3.9-4-4.6-2.5-2.5-1.9v-.9l-.4-.8-.7-.7-2.8-1.7-1.1-2.1v-1.4l.7-1.8v-3.2l.6-1.2.2-1.3.4-.6 2.4-.3 2.2-1 4 1.7v.7l2.1 1 .9 1.4h.9l1.9-1.2h1l1.8 1.1 1.8 1.5 3.1 1.6.9-.3 1.4-2.1 1.5-.2 9.9 5.1 3.6.2 1.9-.5 2.3 1.2-.5 2.7-.2 5.3-2.3 4.5-2.1 2Z"/><path id="AZ-XAC" d="m346.6 121.2-1.3-1.6h-.3l-3.8 1.6-.8-.2-5.8-11.7-.6-1-1.5-1.5-.3-1.1.2-1.5-.6-1.5-.2-1.7-.7-.9-1.6-1-.3-.4.6-1.4 1.2-1.5.5-1.2v-.7l-.5-.6-.7-.4h-2.9c0-.1-.8-.4-.8-.4l-1-.8-.3-.7v-6.5l1.8-3.7v-.5l-.8-1.5-1-.5h-2.5l-2.2.6.6-1 2.4-6.7 1.1-3.6 1.1-1.2v-3.2c-.1 0 .8-1.3.8-1.3l.5-1.7 1.6-.3 1.3 1.1.6 1.4 1.6 1.7 1.2.6.9 1.1 1.6 1.1 3.8 3.5 3.9 4.3 1.6 2.6 1.1 1.1 2.4 4.3 1.4 3.1.4.4h.5l.4.2 8.4 11.2 3.6 4 1 2 2.7 3.6 2.8 4.9 4.8 7 .4 1.2-6.9.3-3.4-1.5h-2.9c0-.1-1 0-1 0l-2.9 1.7-2.4.7-3.2-1.9-4.1 1.8-1.5-.3Z"/><path id="AZ-XCI" d="m179 311.4-.7-1.4-.4-2.5-2.8-2.7-1.6-3.7-3.9-2.6-2.3-.9h-1.4c0-.1-.8.1-.8.1l-2.9 1.7-2.5.2-2 .5-.6-4.8-.7-2.1-2.9-5.7-2.5-2.5-1.8-1.1-.5-.5v-1.3l1.3-4.1 2.5-.8 1.6-2 .6-.3 2.6.9 1 .8.9 1.2h.8l3.4-1.9 1.3-2.7.7-.6.7-.3 2.3-.2 3-.8 1.1 1.5 2 1h1l2.6-1.3h1.1l1.1.4 1.4 1.3.8 1.4 1.7 2 .2 2.8.4 1 1.8 1.1 1.1.4 2-.6 1 .9.2 1.9-.8 2.4-3.4 4.3-1.8 4.3-.6 1.2-1.2 1.5v.6l1.6 2.4 3.9 4.1.8 2.5v2l-.6.5-2.1 1.2-2.6 2.5-.8.3-1.1-.6-1.2-1.7-1.6-1Z"/><path id="AZ-XIZ" d="m413.7 199.1-2.5.2-1.5.7-.2.9.6.8-.4 1.1-.7 1.4-.6.7-1.3.8-1.2 1.3-.4.8-1.9 2.2-.3 3.5-1.4 1.6-1.3.5h-3.2l-1.2.5h-1c0 .1-3.8.4-3.8.4l-5.4-2.8-1.9-1.6-1.4-.8-.9-1-1.8-3.7-.9-.9-3.3-1.8-2.8-.3-2.1-1.2-6.6-6.7-1.5-2.3-1.6-1-1.7-1.6-5.4-3.2h-1.8c0 .1-2.1-2.2-2.1-2.2l-1.6-3.4v-2.5l1.5-2.3 3.3-3.2 2.1-1.1h2.3l2.3-1 1.3-.3 5-2.1.7-.7.3-2 .8-2 4.1-2 .5.2.3.6v4.3l.9 1.6 1.3.8 1.6.5 7.1 4 7.9.3 1.1-.4 1.7-1.4.7-.2 2.5.9h1.5l.9-.3 1.5 1.5.7 1.4.8 1.1.8.5 2 .4 1.1.6 2.1-.2 1.1.4 1 .7.9 1.2 1.4 3-.3.3h-.6c0 .1-.2.5-.2.5l.5 1.3-1 1.7-.2 1.1v3.6l.7 4.5.9 1.5Z"/><path id="AZ-XVD" d="m223.7 305.6-1.3.3-2.7 1.2h-4.3l-2.6 1.1h-1.6l-2.3 2.5-4.7 2.3h-4l-.8.3-.3.8.2.9.5.6 1.3.8 1.3.2 1.8-1 .8-.2.6.4v.6c.1 0-.1.8-.1.8l-1 .7-1.7.7h-2.1c0 .1-.7.5-.7.5l-1.4 1.7v.6l.3.7.8.5h.5l1.5-.8 2.5-2.1 1.2-.2.8.4-.3 1.4.2 1.3-1.2.7-.5.8.5 1.4.2 2.1.4 1.4-.5.3-2.6.3v1.9c.1 0-.7.9-.7.9l-.8 1.3-1.3.9-.3.6 1.9 4v.7c-.1 0-.9.4-.9.4l-1.1-.4h-.8l-2.2 2-1 .5h-1.3l-.2-.6.3-1.3-6.1-4.1-.2-.8.4-1.4-.2-.3-1-.6-1.8-.5-2.2-1.8h-1.4l-.9 1.1 1.8 4.1-1.8 3.4-.9.3-2.9-1.6-2.5-.4 1.6-2.4.9-2.2-1.8-2.8-.9-.3-4.1 1-1.7-.6-1.9-.3 3.6-2.5.4-.7v-3.5l-.4-.7-1.5-1-.2-.5.2-.8.6-.6 1-.5h3c0-.1 1.5-.8 1.5-.8l4.6-7.4 1.6 1 1.2 1.7 1.1.6.8-.3 2.6-2.5 2.1-1.2.5-.5v-2l-.7-2.5-3.9-4.1-1.6-2.4v-.6l1.2-1.5.6-1.2 4-2.1 3-1 1.2-1.5.8-3.9.2-.4.5-.2h1.8l1.5-.6h1.4l.7.4 2.2 2.1 1.8 1 2.2 1.1 4.4 1.6.6-.6 1-2.1.9-.9 4.3-.2 1.5.5.3 2.8.4.7.9.8 5.4 3.5 1.2 1.9v1.3l-2.8 5.5Z"/><path id="AZ-YAR" d="m329.8 390.5-1.9 1.9L316 399l-2.7 2.8-3 1.6-1.6 2.3-1.6 1.8-.3 3.3-.4.6-1.3.9-.9 2.2-2.9-1.4-1.5-1.3-.9-.5-2.4-.5-2.5-1.2-1.5-.3-.7-1.4-4.6-2.9-2.5-3.5-.6-1.7-.4-2.5.4-2.8.6-.5 1.4.6h2.2l1.1-.4.5-.7.2-1.9.3-.5 1.6-.6 3.1-.3 1.8-.9h3.3c0-.1 3.9-1 3.9-1l3.9-.4 5.8-3.6.8-1.4v-1l1.1-.2 1.9-1h1c0 .1 2.8 2 2.8 2l2.5 3-.2 2.3 1 2.3.5.2h1l1.9-1 1.8 1.2Z"/><path id="AZ-YE" d="m207.6 202.4-1.4 1.2-.3 1.5.5 1.6 1.7 1.1 2.2.2 1.4-.6.3-1.4-.2-2.1-.7-.8-1.8-.8-1.6.2Z"/><path id="AZ-YEV" d="M175.3 169.2v3.1l.7 1.9v7.1l-.1.7-1.9 3.7v3.2l.5.8 1.6.9 3.7.5 2.3 1.5.2.4-1.5 2.4-1.5 1.6-1.6 2.4-.2 2.5.2.9h1.2l3.4-2.2 1.1-.4 1.3.2 2.3 1.5.6.7.2 1.4v3.1l-.7 1.5v1l1.1 3.5.5.6.9.3 2.6-.6h1.1l.7.3-.4 3-.5.7-.2 1.3-.6.4h-.9l-.8.4.6.9.2 2 .8 1.7 2.3 2.6 2.3-3 1.4-2.7 1.8-2.5 1.4-.2 1.3.2 2.4 2 .7.2 3.5-2.5 1.2-1.5 1.4-4.6 2.1-.9 1.1-.9.7-.9 1.4-2.8v-2.4l-1.3-2.9v-3.2l.6-1.8.2-1.7 1.1-2.3 1.7-7.7-5.1-1.8-4.8-2.7-1.7-.3-4.3-2.2-4.4-2.7-5.9-3.1-2.2-.9-4.8-2.3-6.6-4.2-3.2.2-1.1 4.6Zm25.5 20.8-.5.8-1.8 1-2.2.7h-1l-3.4-1.7-2-2.7v-.6l1.4-2.5h.8c0-.1 3.6 1.7 3.6 1.7h.6l2.1-1h.8l.7.8h.5v1.2l.6.6.3.7-.4 1Zm10.8 17.3-1.4.6-2.2-.2-1.7-1.1-.5-1.6.3-1.5 1.4-1.2 1.6-.2 1.8.8.7.8.2 2.1-.3 1.4Z"/><path id="AZ-ZAN" d="m186.1 367.6-1.7.9-1.1 2.2-3.5 3.5-3 3.7-.8 3.3-2.2 1.7h-2.3c0 .1-.8 1.2-.8 1.2l-1.4 1.1-1.6 2.9-1.1 1.4-1.6 1.3-1.5 2.4-5.3 4.7-.5-3.7-1.8-3-.6-1.6.3-1.1.9-1.3v-.5l-.3-.8v-.9l1.7-4.8.6-.9v-.9l-.4-.3-1.4-.2-.5-.7.3-1 .8-.5v-.8l-.7-1.2-1.4-.8-.4-.8v-1.2l-1.4-1v-.8l.6-1.2-.7-.5-1.3.6-1.2-.7-1.2-.2-.8-2.1v-2.1l.5-.7.8-.2 1.1.2 2.1 1h.3l1.6-2.1 1-.4h.3c0 .1.4.8.4.8l.3 3.3.4.8.8-1.1.9-.7 1.6-2.3 1.4-1 2.3-.5.7-.5 1.1 1.2.2 1.4v1.9l-.7 1.9v3.1l1.1 2.1h1l.8-.3 1-1.2 2.2-3.9 2.4-2.4 1.8-1.1 1.8-1.5 3.9-2 .5.8 1.2 1 1.6 2.3.7 1.4v3.3Z"/><path id="AZ-ZAQ" d="m146.4 106.7-5-2-.8-.7-.4-.7.2-1.6-.2-1-2.3-3.2-.6-1.3 3.1 1.7h.9c0 .1 3.9-2.1 3.9-2.1l1.7-1.7 3.8-.2 5.7-3.6 1.5-2.7.8-2.5.2-1.7 1-1.9 3.7-2.9 1.2-.6 1.7-1.5 1.4-.7 3.8-3.9.8-1.8.2-4.2-.2-.7-.6-.8 1.8-1.4.8-.3 1.1-.3.5.3.6.8.3 2 .8 2.3v1.7l.6 1.8 4.3 4.3.5.7.2.8.5.4.8.4h.8l2.7-.4.6.2.6.7.6 1 .3 1.4v2l1.8 3.2 1.6 2 2.2.3.7.3.7 1.1.2.8-.2.6-.7.5-.5.8v1.4l1.8 3.8 1.7-.3-.8 2.5-1.1 1.7-2.1.5-2.5 1.8h-1.4l-1.5-.6-2.1-.2-1.2-.5-1.7-.3-1.9-.7h-4.7l-3.6.9-1 1.1-.4 1.6-4.9 9.8-1.6 2.4-1.2 1.1-.7-.6-.3.8h-.4c0-.1-.4-.8-.4-.8l-.4.3h-.5l.2-1.4-.3-.4h-.3l-.3.8-.5-.5-2.6-.8-.2-.5-6.2-2.4-2.3-1.7-.7-1.3-.8-.8-.5-.3-2.2-.3v-1l-.3-.5Z"/><path id="AZ-ZAR" d="m269.6 261.5-1.1 2-1 .6-6.3-.4 1.9-1.3.2-.4-.7-.8-2.5-1.8-.4-2.4-.9-2-1-.8-1.7-.7-.6.2-.4.6-.4 1.8-.4.5-3.5-1.1-1.5.5h-2.1c0 .1-1.5.6-1.5.6h-2.1c0 .1-2.2 1.3-2.2 1.3h-1.3l-1-2.2-.3-1.3-1.7-2-.3-.6v-3.2l.4-3.4v-.5l-.4-.2h-2.9c0 .1-1.1-.5-1.1-.5l-.2-1.1 1-1.9 5.8-5.6.4-1.6 2-4.3 2.5 1.9 4.6 2.5 3.9 4 1.4 2.6.6.4 1.3-.4 3.4-1.9h1.4l1.9.7h4c0 .1 2.2-.5 2.2-.5l1.7-.2 1.2-.5h5.2c0 .1-.5 2.5-.5 2.5v5.7l.8 3.9.5 1.2v3.8l-1.8 1.9-.7 1.2-1.3 1.3-1 .5-2 .3-1.7 1.2Z"/></g></svg>