<svg xmlns="http://www.w3.org/2000/svg" xmlns:amcharts="http://amcharts.com/ammap" id="Layer_1" viewBox="0 0 512 512"><g id="_x3C_defs"><amcharts:ammap bottomLatitude="20.74" leftLongitude="88.01" projection="mercator" rightLongitude="92.674" topLatitude="26.635"/></g><g><path id="BD-A" d="m274.5 396.4-6.1 7.9-1.6-7.9.8-3.2 4.7-6 4-2.3.3 5.1-2 6.3Zm5.3-25.1-2.4 6.6 2.6-1.8-.3-4.8Zm-8.5-21.5 1.6 3.5 2.9 1.8.2-1.5-2-.8 1.4-.2-4.1-2.9Zm7.2 30.3-2.6.3-1.4 4.3 2.9-.5 1.4-1.4-.3-2.8Zm-41.4 30.4-2 1.9h-1.6c0-.1-2.3-2-2.3-2v-3.6l.6-1.8 3-1.7 1.7-6.3 5.2-5.9 2.4.7 2.1-1.2 1.8-5.8-1.6-3.1-.7-8.7 3.5-.6 1.5-5.9 2.2-2 .5-2.8h3.2c0-.1 1.4-2 1.4-2l3.6.9.9 2.2 1.6-1.3-1.1-3.1 2.8-2.2-1.2-3.5 4.9-.8 4.5 3.1 2.5 5.7-.9 1.7-.4-1v3.5l3.3 4.1-2.2 8.2-13.2 17-4.3-.5-3.4 2.7-2.1 5.7-1.6-1-2.3 3.3-4-2.8-4.2.7-1.5 2.3.9 1.9h-2.1c0 .1-1.4 3.9-1.4 3.9Zm35.8-96.7-.3-.5-1.6-.9-2.8 2.6-6 2.2 6.3 2.3 2.9 5.8 3.9-1.8-.2-5.1zm-39.2 88.7-3.3-.5-2.2-4.3 3.2-1.4.5-6.5 3.1-2.7-3.8-2.9 4.3-2.2.6-3.2 2.1-2.1-1.3-5.1 6.1-7v-2.3l3.2-4.6-.9-.8h-1c0-.1 1.1-4.8 1.1-4.8l-1.5-1.4-.6-2.7 2.5-1h5.5l1-2.1h2.6c0 .1 1.1 1.9 1.1 1.9l3.9-5.4v-1.9c.1 0 1.4.6 1.4.6l1.8-.4.6-2.7 1.7.4 3.2 4.3-.8.8.8-.2.3 8.7-4.9 1.3.9 3.7-2.4 2 .8 2.7-.6 1-1-1.6-4.1-1.4-1 2-3.8.5-.3 2.3-2.8 3.4-.7 4.6-3.7.6.2 9.3 1.7 3.1-1.9 5.5h-3.9c0 .1-5.3 5.5-5.3 5.5l-2.4 6.9Zm43.6-41.8-1.9 3.7 4 4.6-.3-9.3-1.9 1Zm-.2 49.2 2.8-.4 4.1-6.7h-3.8l-3.2 7.1Zm-1.7-11.7-1.9 3.1 3 1.2 1.1-1-.7-1.3-1.6-2Zm-4.7 6-1.7 2.4.6 3.2 4.4.6 2.4-7.3-1.7-.8-1.3 1.4-2.6.5Zm14.5 5.6.3 2.7h1.1c0-.1 2-4.3 2-4.3l-1.3-1.5-2.1 3Zm6-1.6-1.3 2.5 3.2-1.5-.7-1.1h-1.2Zm-12.5-53.7-2.6 1.4 2.2 3.5 1.7.3-.5-3.4 1-1.1-1.7-.7Zm10.7.5 7.5 9.3-2 5.6-1.3 18.1-2.9 5.6-7 6.5-3.2.9-1.9.2-2.7-4.4 1.8-5.6.3-6.3 4.1-7.5-.7-21.7-1.2-1.8-4.1-1-2.1-2.6-3-1.5 3.3-2.9-.6-4-2-.5v-3.1c.1 0-.9-1.1-.9-1.1v3.5l-.9.5-4.9-8.3-2.3 1.5.8 2.1-1.5 1.6.9 1.2-1.4.8-1.7-1.6-.3 2.9-3.5 4.9-.9-1.4-2.8-.3-1.1 2.4-5.3-.2-2.8 1.1.6 3.2 1.5 1.2-1.8 4.9 2.3.7-2.9 4.2v2.3l-6.5 7.3 1.1 3.2-2.7 7.3-3.9 1.6.3 2.1 3 1.1-3.5 2.9.6 3.8-4 4.4 1.3 5.5-2.3 1.7-1.7-.9-2.9-9.7.8-5.6-3.3-12 4.2-9.6 4.3-3.6 1-4.5H227c0 .1.3 3.3.3 3.3l-6.1 5.3-1.9-1.9.7-2.3v1l5.1-2.9-.9-1-3.5-.2v-2.4l5.8.9v-1.1l-3.4-.2 2.4-3.1.9-3.5-3.6-1.3.7-3.3-2.7-1.5.7-1.4 1.1 1.3 1.8-1.3-5.7-1.7 3.4-2.4 1.8.4.2-2.5h-1.6c0 .1-.6-1.8-.6-1.8l2.8-.5-.4-1.3-1.5-.2 1.6-1.8.9-.6-.8-3.1 1.9.9 4.2-1.3 1.4-5.2 1.9-.4v-2.9c.1 0 3-3 3-3h2.2c0-.1.6-3.9.6-3.9l2.2-1.6 2.3.9 1.8-1.2 1.5 1.9-.7 4.9.7 1.8.6-.8h1.3l-.1 1.2 1.4-1.3 3.9.3-1.1-4.7.7-2 4-.2 4 1.3-.8 1.5-2.1.5 3.1.6-2 .8 8.4 4.8 1.7 3.6-2.8 2.3-1.3 3 1.3 2.9 1.1-1.4-1.6-1.9 3.6-3.8 7.6 1.4 2.6 2.2 1.3 2.2-.9.8h-6.5l-3.5 1.5-3.1-.5 2.9 2 2.1-1.8 2.6-.4 4.4 1.2 3.9 12.1 3.8 3 1.3 5.2Zm-37.3 47 .7 2.6-3.3 9.4-2.9 2.4-4.5.9-6-3.1v-1.8l2.4-3.3.4-1.9 2-.3-.5-2.5 1.6-1.8 3.3-.2 4.4 2.5 1.4-1.7 1.1-1.3Zm8.3-2.2-3.2 2.4-4 8.3 1.2 3 2.8-.4 1.4-1.5-1.5-3.9 3.5-6.4v-1.5Zm2-5.2-3.3-.3-1.4 1.3-1.9 3.4v2.4l4.1-4.8 2.5-2.1Zm1.8 15.4 1.1-2-2.9 1.2-.4 1.3 2.3-.6Zm-1.3 4.6 2.2-.5-.2-1.8-1.9 1.2-.2 1.1Zm2.6-18.5-4.8 3.3.3 2-3.3 6.1.4 2.6 1.4 1 8-6.3-1-6.7-1.1-2Zm3.3 16.5-2 1.1v2.5l3.5-1.5-.9-.9-.5-1.3Zm1.5-2.4-1.6 1.7 3.3.8-.3-1.6z"/><path id="BD-B" d="m302.3 372.9-.5-1.9-1.7 4.3.5.7zm3.9-5.9-1-1.5-1.6.9v2.1l1.8 1zm-.3 4.3-1.1.3v5.2l-6.3 16 2 1.9 6.2-11.8.7-6.3-1.4-5.4Zm4.7-1.8-1.9 1.7 1.1 1.5 1.8-1.5-1-1.6Zm-1.1 4.8-1 .9.6 2.4.8-2-.5-1.3Zm-2.1-4.8 1 .8 1.4-1.4 1.1-5.3-2.2-1.4-2.2.4.8 6.9Zm1 5.4 1.1-1.1-1.2-1.3-.4.9.6 1.4Zm-25.7-55.5-1.5.4 4.6 7.4.6-1.3-1.3-3.4zm-6.1-20h-.1c0 .1.1 0 .1 0m30 94.1-1.4 3 1.1 2.5 3-2.6-.4-2.5-2.4-.3Zm-5.7-34.3 2.3.3 3-1.1-2.3-3.3-2.8-2.4-5.2-1.4-1.1 1.7 5.5 5.6.7.5Zm34.3-17.7-2.8-1.5-2.1 1.3 1 4 2.1 2.6 4.3 2.1 1.1-4.5-2.1-1.7-1.4-2.2Zm-7.1 7.4-.8 1 .6 2.5 1.5-4.1zm-.2 9.3.8.9 3.1-5.1-2.3.4-1.6 3.7Zm14.3-9.1-2.7 1.6-.6 1.8 2.8 10.2 2.8 4.9 2.3 1 4.6-1.5.6-1.5-3.4-8.9-6.4-7.5Zm33.1 58-2.2 1.8-.4 13.4L377 412l-.4-3.1-1.3-1.9Zm58.1 35.6-1.4-16.9 2-15.5-1.7-14.5-2.7-6 1.3-.9 1.7 1.5.3-4.3-3.8-18.3-1-10.8-1.7-3.5.6-3.5-1-6-3.6-7.2-2.6-11-1.1.6-2.8-3.8-1.6-.3 1.4-10.4-2.2-4-.4-11.1 3.7-.7-2.8-6.5.6-3.3-1.6-1.6v-2.3c.1 0-.7-2.1-.7-2.1l-.7.3-1.3-5-.4-5.4-1.9-3.5.5-2.5-1.5-.4 1-5.4-2-2.9h-1.4c0 .1-1.1 4.9-1.1 4.9l-1.4 1-.2-3.1-2.4-1.3-1.1-2.7-5.1 5.6h-1.2l-.3 1.9-1.3.8-3.7-1.1-3.1-6.1-1.7.2-1.5 3.9.7 8.1 1 .6-.3 5 1.2 3.2-2.6 1.1v2.7l-3-.3-4.4 3.5-6 11.5 1.7 2.9 2.5 12.7-3.5.8-2.3 4.9-2 1.7-2.1-1.1-.8 1.2h-2.5c0 .1-4.1 2.7-4.1 2.7l.6-1.5-2.2.8-2.7-2.7.4-3.3h-1.2l-.2-4.5-1.5-1.6.6-.7-1.1-1.1.5-.8-2.3-6.4-2.1-.3 1.3-.9-1.8-1.5.6-.9h-3.2l-1.7 2.6-.3 6 2.4 7.9-1.5.6-1.9-1-3.7-7.9-.6-10.5-1.3-.7 1.2-1-1.9-1.6 2.2-3.5h-2l-1-1.3-2.6-9.4-3.6-2.4.9-2.6h-1.4l-1.4-3.8-1.2-.4-.4-6.1 2.9 2 .9-3.4-4-.3.2-4.1 2.7-1.2 2.3 1.1.6-4.8 2-3.6-2-3.7 1.3-2.6-1.1-1.3 3.2.2-.3-3.2.9-1.7.4 1.3.8-.4.5-2.2-.6-1.7h.8l.4-1.9-.8-1.7h-1.2c0-.1.3-3.1.3-3.1l-1.8-.3 1.8-1.7-2.3-2.1 1.4-3.2 2.8-.6v-1.3c-.1 0-3.1.2-3.1.2l.6-1.5.9.5.2-1 2.1-.6v-2.5l-1.9-.1-.9 3.2-.9.2-6.1-1.2-1.6-2.1-2.8 2H314l-.3 1.8 1 1.2-4.2-.3-4.2 4 5.6 5.9-5.5 4.8-1.3 2.4.3 3.4-2 1.6.2 2.1-2 1.6-.6 2.7-1.7 1.4-2.6-1.7-7.8 1.5.4 5-3.4 4.8 1.6 3.8-.7 2.4-1.7.4-2.5-1.4-2.8.5-1.3 4.6 2.2.4.9 2-1.7 1.4 3 1.4 2 4.5-2.1 1.3-3.2-1.2-4 1.4-4.2 8.7 1 2.8 2.2 1.5-.4 2.6 3.1 7 1.9-.2 1.2 8.2-1.1 2.7.2 8.1 1.6 2.4 2-.9 5.7 9.3 1.6 3.4-.4 4.2 3.2 6.3 2.1 2.8 3.5.9.8 1.6 7.6 5 5.8 6.8 3.1-3.4h3.1c0-.1 1.1 1.7 1.1 1.7l7.5-4-1.5-3.7 2.9-2.2-.6-1.6-1.5-1.9-.8-.2-.8-1.7h-1.8l-1.7-2.3 5.3 3 3.2-3.8 6.8-1 .2-1-2.1-.7 1.6-1.1 2.9 3.1 1-2.1-1.7-2.7 1.4-2.9-.8 2.5 2.4 2.3 1.3 5.2 6.5 4.1 12.4 15.4 2.5 6.4 1.9 11.7 2.6 3.9 1.3-.3 1.3 7.9.9 1.7h1.5l1.2 7.9-.7 1.6 3.4 9.4-.2 6-4.3 11.8 1.7 2.5.8-.7.6.7-1.7 5.3.6.9 1.5-.5-2.1 1.4 1 1.3h-1.9c0 .1-.7 1.4-.7 1.4l4.3 4.5v-2.4c-.1 0 5.4-.5 5.4-.5l1.6-11.4 1 3.7-1.2 1.9.5 4.9-.9 2.6-2.9 1.8v1l5.2 7 2.4 5.8v10c.1 0 10.7 13.2 10.7 13.2l3.4 9.1 6.7 12.4 1.8 1.6.5-1.3-1.8-7-4.5-9-.8-7 1-2.4-2.9-3.4v-2.6l-1.6-.6-1.3-2.8 3.1-4.5-2.3-7.7 4.5-2.9 1.1-5.4 3.9.5 3.6-4.6 1.7.2 2.6 3.6.9 5.4 5.1 1.5.9-1.5h3.8l2.8 9.8 1.4.2 4.6-4.1-2-5.6-2.3-11.5Zm-122.1-44 2.6-2.2-.4-1.2-1.8.6zm7.6-42.3-2.7-.5-1.8 1.8-.9 4.5 4.9-4.1.4-1.7Zm-1.5 10.7-4.7-2.2v15c-.1 0-4.4 11.2-4.4 11.2l3.4 3 6.1-4.4 2.4-3.3 2.1-6.2-.2-3.6-1.9-3.2-2.8-6.5Zm-.7-5.5h1.9l3.8-2.9-1.4-.9-2.1.9-2.3 2.8Z"/><path id="BD-C" d="m295.8 133.9-5.3-2.4-3.6 2.5-1.5-1-1.2 1-2.4-1-.6-1.6-1.3 1h-10.3c0-.1-5 2.5-5 2.5l-5.7-1.7-3-2.5-17.6-2.9-4.3-3.1-5.8-1.7-1.1-1.8-1.4.6-3.3-1.1-2.3 1.9-3.7-.7 1-1.2-1.9-3.9.6-5-4.5-1.4.9 3.5-4.5 2.8 2.5 6.1v3.6l-1 1.1-3.2.3-3.8 7.5v2.8l-.4 2.6.8 2.3-.6.8.9 4.3 1.8 7.1-1.9 1.5 1.7 4.6 4.9 3.2-1.9 1.1.9 1.5.7-.8 1.2 1 1.2-.8 1.2 2.7-.9 1.6 1.8 4-1 .7v3.4l-1.6.7 1.1 4.2-1 1.9-1.9 1v1.3l-1 .2 1.3.8-.4 2.6.8.2-2.6 2.7 1.6 3.6h1.1l.5 2.6-1.3 2.3 2.9 5.5-.4 4 1.2 5.4-1.4.7 3.2 2.2-.3 2.4-.2 4.3-8.5 5.4-.7 5.4 1.1.7-.3 4.4.7-1 2.3 4.1-2.7 1.9-10.3 1-4.1-.9-11.9-8.1-2.8 10.5-1.4.8.2 2.2-1.5 1.2 4.3 5.6 1.9.5 2.6-1.3 2.5 3.4 3.6 1-1.3 2.5 2.3 1.7.6 2.5 2.1 1-2.6 1-1.1 2 3.2-.7 5.8 3.6 1 6.8h-2l.5 3.8 3.2 5.7-1.6 3.2 4.7-.4-.3 5.1 1.2 1.6 3.1-2 2.4.5-3.1 1.1 1.2 3.3-3.2 1.3-1.3-2.2-.6 1.9 3.9 2.8.8 1.5-.7 1.6 1.7.7.7 3 2.7 1.2-.3 1.3 2.1.5-.9 2.2 2.3.6 2.7 2.8-1.3.3v1.2l-2.6.6.9 1.5 1.5 1.1 6-.2.9 2.3.9-.6-.8-3.1 1.9.9 4.2-1.3 1.4-5.2 1.9-.4V320c.1 0 3-3 3-3h2.2c0-.1.6-3.9.6-3.9l2.2-1.6 2.3.9 1.8-1.2 1.5 1.9-.7 4.9.7 1.8.6-.8h1.3l-.1 1.2 1.4-1.3 3.9.3-1.1-4.7.7-2 4-.2 4 1.3-.8 1.5-2.1.5 3.1.6 4.5-1.4 3.4-5.8 2.1-1 .9 1.2 2.9-9.5h.1c0-.1.5-1.1.5-1.1l-3.1-7 .4-2.6-2.2-1.5-1-2.8 4.2-8.7 4-1.4 3.2 1.2 2.1-1.3-2-4.5-3-1.4 1.7-1.4-.9-2-2.2-.4 1.3-4.6 2.8-.5 2.5 1.4 1.7-.4.7-2.4-1.6-3.8 3.4-4.8-.4-5 7.8-1.5 2.6 1.7 1.7-1.4.6-2.7 2-1.6-.2-2.1 2-1.6-.3-3.4 1.3-2.4 5.5-4.8-5.6-5.9 4.2-4 4.2.3-1-1.2.3-1.7h4.5l2.8-2.1 1.6-2.2-2.9.6 1-3.1 4.9.2-1.6-3.8 3.2-1.7-1.3-2.3-1.5-.4v-1.1c-.1 0 1.8-.6 1.8-.6l-1.1-4h-1.2l.7 1-1.4-.5-1.4 1.9.7-1.7-3.5-.2 1.7-2 .6 1.2.6-.5 3.6-6.3-2.8-1.5.3-1.8-1.8-.7-.2-1.2 1.5.7.7-.7.2-1.4 1.9-.8-.8-1.2 1.5-.3v-1.3l-1.5-.7.3-2.2-1.3 1.3-2-1.3h-3.1l1.4-2-1.7-1.2 1.9-.3 1-1.5-1.2-.7 1-3.4-1.3-.8-1.7 2.7 1 1.3-1.2.2-1.3-2 1.2-2.2-3.9-5.2-2.9-.4-1 1.9-2.2-.7-.9-1.8h-2.8l-.6-2.1 1.9-1.8-2.2-1.5.3-2.5-1-1.4 2.4-1.5-2.4-.7-.2-2.8 3.4.2-1.8-3.1.3-3.3 1.4-.6-.4-1.2-9.1 1Z"/><path id="BD-D" d="m185.1 357.6-.7.5 1 7.5 1 .8-1.1 4.5 4.7 7.7-1.4 2.8 3.2 10.7 1.4 1.6-1.9 5.6 1.8 1.9 4-11-3.4-6.4 2.6-4.3.9.9-.3-3 3.4-5.8-.8-3.7-2.3-4.2-1.7-9.5-5.3-7.3-2.9-.2v1.7c.1 0-4.3 3.9-4.3 3.9l1.8 2.2-1.2 2.2 1.5.8Zm8.6 53.3.2-6.9 1.8 2.2-2 4.8Zm-26.1 8.9-1.3-.8-.7-2.7 1.2-1.2 4.1.9 1.2-1.4 1.8 6.6-2.2-.6-3.2.9-.8-1.7Zm12-10.8-6.6-13.2 1.4-2.2-5.4-.7 2.1 3.1-2.7 4.1 2.5 2.1-3.2 2.5 4 3 2.6.4-1.3 3.1 1.2 2.8-.9.6 1.3 1.4 2.5-5.5 2.5-1.3Zm-16.8 12.4-.8 2.6h-2.2l-5-5.5 1.3-5.6-2.1-3.5v-2h2v2.7c.1 0 2 2.5 2 2.5v5.1c.1 0 4.8 3.7 4.8 3.7m9.7 4.6 1.9.9-1.3 1.5-5.2 1.4.9-4 1.8.8zm-9.7-21.8 1.9-3.2-.5-2.1 1.1.7 1.3.8 3.6 1.4-3 2 .5 2.1 2.1 1.1 1.6 1.3 2.2.2-1.4 2 .5 2.2-2 2.8-4.2-.9 1.3-7.1-3.9-.5-1.4-1.1.4-1.7Zm14.4-14.4 1.6-.5v1.5l1.9 1.6.6-1.8 1.8-.8v-2.3l2.5-1.1 1.8 1.9.9-1.3-1.1-7-3.1 1.5-.5-2.1-2-.9-.9.8-.8-.6-1.1.6.8.5-2.8 4.9 1 .8-.5 4.2Zm13.7 3.6-2.5-1.8-.2-2.6 1.5.6zM171.4 421l2.2.5.4 1.7-.6 2.1-2.6 1.1-1.8-1-.3-3.5 2.8-.8Zm15.7-25.5 2.8-2.2 1.5 1.1-3.2 2.4zm20.4 14.9 1.7 3.8h-5.5l-1-4 2.7-4.8-.5-4.1.5-.7 1.5 2.3v1.2l.6 2.7-.6 2 .7 1.6Zm11.2-6.4 1.1 4.2-.8 2.2-2.3.5v2.1l-5.4 1.3.3-1.3-1.8-.3-2.5-4.2 1.2-1.2-1.3-3.3 1.1-.7-2.4-3.4.5-2.1-2.1-1.4 2.5-1.8.2-4.6 3.3-.4 1.5 3.8 5.1 3.1 1.5 2.1.4 5.4Zm4.9-74.1-6 .2-1.5-1.1-.9-1.5 2.6-.6v-1.2l1.2-.3-2.7-2.8-2.3-.6.9-2.2-2.1-.5.3-1.3-2.7-1.2-.7-3-1.7-.7.7-1.6-.8-1.5-3.9-2.8.6-1.9 1.3 2.2 3.2-1.3-1.2-3.3 3.1-1.1-2.4-.5-3.1 2-1.2-1.6.3-5.1-4.7.4 1.6-3.2-3.2-5.7-.5-3.9h2l-1-6.7-5.8-3.6-3.2.7 1.1-2 2.6-1-2.1-1-.6-2.5-2.3-1.7 1.3-2.5-3.6-1-2.5-3.4-2.6 1.3-1.9-.5-4.3-5.6 1.5-1.2-.2-2.2 1.4-.8 2.8-10.5-3.1-2.2-.4-.4-.9-1.5-4.3-1.8-1.2.8-.7 2.1-1.6 1.1-.8-.3-1.1-3.3h-.2l-1.6 1.7-5.2-1.1-.2-1-2.5-.9-3.6-10.7-.5-.8-4.3-.5-.7-.2-2 .3v-.9l-.6.2-.3.2.2.9c0 .1-2.5 1.1-2.5 1.1h-.2l.5-1.1h-.1c0-.1-1.1.3-1.1.3h-.3l-5.9-2.1-2.4-2.5-1.8-3.4v1l-1.2-.2-1.4 2.9.8 4-1.2.5.4 1.6h2l-.2 2.5 1.2.5-1.1.6 1.2 1.5-.9 3.4 2.5-1.2 1 2-2.8.6.6 3.6-.8 1.9h-2.3l.1 1.2-3.5 2.6-2.3.5-.9-1.2-3.3 1.3 2 3.6-1.2.4-.5 2.1-1.6.3 1.5 1.6-1.3 10.4 2.4.5-.9 3 5-.6-.5 1.2 1.6 3.4 2.8 3 2.5.8 1.2 2.3 4.3-1.2-.6 4.5h-2c0-.1-.6 1.9-.6 1.9l.4 4.8-2.2 1.3 1 3.1-1.5-.6-.3 1.5-1-.8-1 1 2.1 2.3-.3 1.4 3.7 1.1 2.2 2h1.4l.3-3 2.7 2.2 4.7-.5.4 1.8 2.5.5 2.2-1.6 1.2.8-1 2.6-1.6-.7-1.8 1.7-1.3 3.6-4 2.6.3 7.7-2.1.2 1.7 1.1-.5 2.9 2.6.4v2c.1 0 1.4.7 1.4.7l-.4 3.5 1.8.8 1-.8 1.7 2.9-.7 4.1-2.9 2.4v2.3l3 3.9-2.1 3.8.4 2.2 2 .2-1.6 2.1v2.4l1.7 1 1.4 5 1.5 1.6-.6 2 .8 1.5-2.1 1.8 1.8 1.8-1 1v4l3.3 2.6h-2.1l-.2.9 1.8 1.2-.3 1.3 1.5-.3.7 2.6 2.5 2.8-.4 3.4 2.4-.2-4.2 4.9.6 2.6 2.3.8h-1.4l1.8 3.1.5 6.6-.5-.6-.9 3.5 1.6 2.8v4.9l4.2 1.6 1.2-.8 2.6-9-4.4-.4-1.1-2.7 2.5-3.8-1.3-3.8.6-1.3 1.5-.7-1.5 2 4.1 3 3.1-4.6-2.3-2.5-.9-3.4.3-1.6 2.7-1.2-1.5-3.2 1.5-1.4.4-4.5 1.1-1-1.1 5 4.5.3-.7-2.8 2.3 4.6 2.2-4-1.3-.5 1-.9 2.6-.5 2.2.9 1.1-1.8-1.6-2.1.8-1.3-1.6-1.2.4-1-1.4-.2v-1.9l-1.5.2-.6-3.9 1-3.2-1.2.4-.8-1-6.8.9v-1.2c.1 0 2.2-.7 2.2-.7l-1.3-1 4.6-2.3v1.1l1.9.8-.5 1.9 5.7-.6-.9-3.7 1.2-2.4-3-5.1 2.3-3 .9 2-.8 2.4 3.5-2.9v-1.8l2.4-.3 2.7 1.9 4.2 6.6 1.7 6.7 1.4-3.1 1.7-.8v-3.1l3.7-1.3 2.3 1.2 5.6 3.4 1.2 2.3h3l3.1 4.1v1l5.1-2.9-.9-1-3.5-.2v-2.4l5.8.9v-1.1l-3.4-.2 2.4-3.1.9-3.5-3.6-1.3.7-3.3-2.7-1.5.7-1.4 1.1 1.3 1.8-1.3-5.7-1.7 3.4-2.4 1.8.4.2-2.5h-1.6c0 .1-.6-1.8-.6-1.8l2.8-.5-.4-1.3-1.5-.2 1.6-1.8-1-2.4Zm-20.7 85.7 3.1 2.5v1.7c-.1 0-2.4 1.4-2.4 1.4l-4.6-.9.4-3.1-4.6-4.4-.6-1.8 3.2-5.9h2.7c0 .1 1.9 2.9 1.9 2.9l-1.5 4 2.7 3.4Zm13.7-55.4-2.9-.2-6.6-5.6-5.5.6v2.7l-1.9 1-1.9 3.5 2.2 4.3.5 7.2-2.8 4-.3 4.1-2.8 1.9 4.1 6.3-4.5 13.9 1.5 1.6 1.2-.9 3.4.3 2.5 3.8 1.5-1.6.7-2.8-.8-2.6 1.8-3.8-2.1-1.6 2.6-2 .3-4.5-1.7-5.8 2.1.4-1.2.9 1.2 4.1 3.5-.3 1.3 3.7 2.2 1.4 3.2 1.1 2.4-2.8v-7.7l-3.2-4 4.2-10.5-1.7-4.1.7-2.3-3.2-3.9Zm-33 14.7.8-3.2 4.4 6.3-4.5 3 1-3.4-1.6-2.7Zm-8.7 7.9.9 2.2-3.2 3.3-.5 3-3.7 1.3-.8-2.3 1.5-.6-1-1 2.5-1.3-1.5-3.2 1.6-1.5 4.3.2Zm-2.7 10 2.6-.2.7.8-1.5 2.2 4.6 7.5-.5-4.8 3.4-5-2.9-2-.4-1.3-1.5.4.6-4.8-3.3 2.4-.9 2.9-.9 1.8Zm17.6 5.4-1.2-1.6 2.9-2.2zm7.4 22.6 1.6 3.2-3 .5-2.8-4.6 1.2.2-1.4-4.7.8-2.3 4.9 4.1zm-5.9-15.9-.6 3.5-3.9-.6.7-1.7-3.3-2.9 1.3-1.7-.5-4.5 1-.7 2 .8 3.2 7.9Zm-12.5 9.8-1.2 3.8-1.1-5.3 3.4-2.8-1.2 4.3Zm8-1-2.5-.6 2.6-.4 1.3-3.8-1.9-.4.8-2.2-3.1-2.9 1.2-1.8-.6-4.8 4.6-3.5-2.1-2.6.3-1.9-2-1.6-2 .7-.3 2.3-1.9.8.6 3.1-3 4.6 2.4 12.1-2.7 6.2 2.1 6.2 1.8 1 1.6-.6 2.7-3.1 1.6-2.3-1.4-3.1-.2-1.3Z"/><path id="BD-E" d="m202.3 143.8.9 4.3 1.8 7.1-1.9 1.5 1.7 4.6 4.9 3.2-1.9 1.1.9 1.5.7-.8 1.2 1 1.2-.8 1.2 2.7-.9 1.6 1.8 4-1 .7v3.4l-1.6.7 1.1 4.2-.2.4-.8 1.6-1.9 1.1v1.2l-1 .2 1.3.8-.4 2.6.8.2-2.6 2.7 1.6 3.6h1.1l.5 2.6-1.3 2.3 2.9 5.5-.4 4 1.2 5.4-1.4.7 3.2 2.2-.3 2.4-.2 4.3-8.5 5.4-.7 5.4 1.1.7-.3 4.4.7-1 2.3 4.1-2.7 1.9-9.8 1h-.4l-4.1-.9-1.1-.6-10.8-7.4-3.1-2.2-.4-.4-.9-1.5-4.3-1.8-1.2.8-.7 2.1-1.6 1.1-.8-.3-1.1-3.3h-.2l-1.6 1.7-5.2-1.1-.2-1-2.5-.9-1.5-5-.2-.4-1.8-5.4-.5-.8-4.3-.5-.7-.2-2 .3v-.9l-.8.2h-.2c0 .1.2 1.1.2 1.1 0 .1-2.5 1.1-2.5 1.1h-.2l.5-1.1h-.1c0-.1-1.1.3-1.1.3h-.3l-5.9-2.1-2.4-2.5-1.8-3.4.4-4.9-2.5-3.5-5.9.2-4.7-1.8-1.1 2.6-2-4.1-6.3-2.8-6.4.3-2.6-.9-4.5-4.7-5.9-1.9-4.1-3.8-10.7-13.8 4.2-4.7.5-4.1 2.8-.9v-2.1c.1 0 4.5-4.4 4.5-4.4l-.7-2.6 1.2-.3-2.3-2.3v-1.6l6.8-2 5.9 7.6 3.4-1.9-1.7-1.6 1.2-2.4 1.7-1.1 1.6 1.2 1.3-.7-.3-2 1.5-.4-.3-1.7 3.1-3.6-1.3-1.2 1.3-2.5-.8-4 1.5-1.3-1.3-4.6 4.2-1.3 2.9.9v.9l1.8-.3.5 1.4 4-2.4 7.2-.3 3.3 2.7 1.6-1.1 2.4 1.6 3.2-3.3 2.5 2.6 1.6-.3 2 1.5.5-1.5h1.4l-1-2.8h1.9c0-.1-.3-3.3-.3-3.3l1.9-1.3 2.8 2.5h6l.7 1.2 4.9.8 3.7-.4-.7 4.5 1.1 2.5 2.6 1.6 1.1 2.9 2.2.8 4.5-1.2 4.5 4.5 1.5-1.2h2.2l6.7 3.7 8.7-2.5Z"/><path id="BD-F" d="m202.3 143.8-8.7 2.5-6.7-3.7h-2.2l-1.5 1.2-4.5-4.5-4.5 1.2-2.2-.8-1.1-2.9-2.6-1.6-1.1-2.5.7-4.5-3.7.4-4.9-.8-.7-1.2h-6l-2.8-2.5 2.2-.3.3-1.7-5.8-1.3-.9.6-1.5-2.7-1.4 1.1-3.5-3.4v-2.5c.1 0-2.1-1.4-2.1-1.4l1.6-1.4.2-3.8-.6-1.4h-1.4c0-.1-.3-2.9-.3-2.9h-3.7c0-.1.5 2.4.5 2.4l-2 .5-.3-1.4-2.2.4-.9 2.3-3.8-.6v-1.5h-2l-1.2-1.5-2.4.7-1.9-1-.8.9-.7-2.9-.8.6-2.1-2.1.3-2-4.2-1.3.8-5.5-3.9-.8v-1.1l-2.5-1.1.3-1.5-4.1-1.9-4.2-3.9v-2.4c-.1 0-2.6.1-2.6.1l-2.4 1.8-1.7-1.1-2.7 2.2-.8-1.7-1.9-.2-1-2.5.8-2.3-2.1-5.8 2-1.4 2.4-6.6 3.4-1.1-1.1-.8 1-3.1-1.9-2.2 1.5-4.4 5.4-3.8 2.1.2 5.9-2.9v-5.3l2.9-2.8 2.1-.2-.7-1.2 2.4-.6 1.5-3.2 2.3 2.1.2-.9h1.4l-.2 1 1.5-1-3.2-8.8-4.8-.3-1.4-1.8h-2.9c0-.1-.9 3.4-.9 3.4l-1.7-2.8 3.4-10 2.7-3.5 1.8 7.6 1.2.9.9-1 1.9.5.6 2.4 2.4.7V20c.1 0 2.8-.6 2.8-.6l-.3 2.8 3.1.6v-1.9h1.8l.3 3.1 3.6 2.5 1.3-.3-.4 2.6 1.8 4 3.5-1.6 1 4.5 2.9-1.1 1.8 1.1-.2 3.5 2.2 2.2 3-.4-1.3-3.3 1.6-1.2 3.6.3 2.8 4 6.6-.2 1.1-1-.3-3.3-2.5.7-1.4-1.6-.9.9-1-1 1.2-2.1-1.3-2-1.8-.2-.4 1.9-.9-2.3-2.5-.9.5-2.7-1.1-.9h1.9c0-.1-.1-2.1-.1-2.1l1.4.6 1-2.9 2 1.1.5 2.3 2.6.6.9 1.6 4.8.4-1.2 2.4 1.2.4v2.8c.1 0 3.2.8 3.2.8l-1.1 2.8-1.4-2.5-.3 3 3 4.1.7 2.3-1.1 2.5 1.7 1.7-.2 1.6 2.9 1.8h2.5l3.3 2.6-.8 2.4 5.2 2.3 1.9 2.3 3.6.3v-1.1l2.4-2.2.7 3.2 3.1 1 5-.7.9.5-.8 2.5 3.7-.4v-5.2l4.8-2.3-1.6-3.7-1.6 1.6-1.2-1.1.4-1 1.4.6 1.1-1.1-1.4-.7-.5.9-1.1-3.5 1.5.3.5-2.1 2.5 1.2.6-1.2-2.3-.6 1.8-.3-1.2-3.3 2.8.8.7-1.5.9 2.2-1.4.8 2.2 2.6-1.6 1 2.1.6.6-1.3.3 1.1h2.2l1.5 2.4-.9 1.6 2.2.3v1.9h.9l.4 2.3-1.2.3V59c.1 0 1.9-.2 1.9-.2l1 2.8-.7 1.4 1.7 1v-2.5l2.8 3-2.6 1 .8 1.5 3 .5-5.9 10.6 2.3 4.2-.9 3.7 1.9 1.5-.2 1.7 2.6 5.7-1 6.8-1.3.6v6.2l-2.2 4.2-4.5-1.4.9 3.5-4.5 2.8 2.5 6.1v3.6l-1 1.1-3.2.3-3.8 7.5v2.6h.1v.2l-.4 2.6.8 2.3-.6.8Z"/><path id="BD-G" d="m329.6 130.5 4.3 2 6 .2 2 1.8h2l.2 1.3 6.6-1.3 1.7-2 2.9-.3-.9 2.6h1.6l.2 1.5 1.3.5 4-1.4.9-1.7 2.9.6.7-2.4 2.3 1 4.1-1.2 6.8-.4 5.2 1 2-1.2h4.7l5.1 2.4v1.4l3.7 2 3.5.2-1.6.3 1.7 1.7 6.3 2.1 2.6-.5.7.9-.7 1.3 6.7 1.8-.3 5 2.5-.3 1 1.6-1.7.3 1.3.9 1.6-1 1.2 4.3-1 2.6-3.3-.3-1.3 2.1h-1.8l-7-3.6-1.7-2.2-1.2 1.3-3-.5v5.2l2.7 1.8 1.1 3.3-.6 3.9 1 .6-3.7 6.8-1.6 13.4-4.5-2.9-1.4.8-.3 2 1.6 5.9-2.6.5-1.2 3.2-2.7 1.2-9-1.3-.7.6 2.6 3.6-.2 1.5-3-3-2.9 1.7 1.7 5.8-2.5 10.6-1.7.4-.8-.9-.5-2.2-2.4-2v-2l-2 1.1-5.6-3.2 1.5 8.8h-2.4l-3.6-2.2-1.4-5.2-1.5 1.4.9 2.3-1.1 1.1-.9 6.2-2.6.3-1 1.8h-3.3l-4.3-1.8-8.8-1v2.4l1.4 2.5-1.7 3.7.3 2.6-5.6-1.8-.6-1.7h.8l.4-1.9-.8-1.6-1.2-.2.3-3-1.8-.3 1.8-1.7-2.3-2.1 1.4-3.2 2.8-.6v-1.3c-.1 0-3.1.2-3.1.2l.6-1.5.9.5.2-1 2.1-.6v-2.5l-1.9-.1-.9 3.2-.9.2-6.1-1.2-1.7-2.1 1.6-2.2-2.9.6 1-3.1 4.9.2-1.6-3.8 3.2-1.7-1.3-2.3-1.5-.3v-1.1c-.1 0 1.8-.6 1.8-.6l-1.1-4H324l.7 1-1.4-.5-1.4 1.9.7-1.7-3.5-.2 1.7-2 .6 1.2.6-.5 3.6-6.3-2.8-1.5.3-1.8-1.8-.7-.2-1.2 1.5.7.7-.7.2-1.4 1.9-.8-.8-1.2 1.5-.3v-1.3l-1.5-.7.3-2.2-1.3 1.3-2.1-1.3h-3.1l1.4-2-1.7-1.2 1.9-.3 1-1.5-1.2-.7 1-3.5-1.3-.8-1.7 2.7 1 1.2-1.2.2-1.3-2 1.2-2.2-3.9-5.2-2.9-.4-1 1.9-2.2-.7-.9-1.8h-2.8l-.6-2.1 1.9-1.8-2.2-1.5.3-2.5-1-1.4 2.4-1.5-2.4-.7-.2-2.8 3.4.2-1.8-3.1.3-3.3 1.4-.6-.4-1.2 8.9-2.5 13.2.2 1.7-.8 1.1.8Z"/></g></svg>