<?xml version="1.0" encoding="UTF-8"?>
<svg id="Layer_1" xmlns="http://www.w3.org/2000/svg" xmlns:amcharts="http://amcharts.com/ammap" version="1.1" viewBox="0 0 512 512">
  <!-- Generator: Adobe Illustrator 29.1.0, SVG Export Plug-In . SVG Version: 2.1.0 Build 142)  -->
  <g id="_x3C_defs">
    <amcharts:ammap bottomLatitude="20.740327" leftLongitude="88.010067" projection="mercator" rightLongitude="92.674283" topLatitude="26.635149"/>
  </g>
  <g>
    <path id="BD-A" d="M274.5,396.4l-6.1,7.9-1.6-7.9.8-3.2,4.7-6,4-2.3.3,5.1-2,6.3ZM279.8,371.3l-2.4,6.6,2.6-1.8-.3-4.8ZM271.3,349.8l1.6,3.5,2.9,1.8.2-1.5-2-.8,1.4-.2-4.1-2.9ZM278.5,380.1l-2.6.3-1.4,4.3,2.9-.5,1.4-1.4-.3-2.8ZM237.1,410.5l-2,1.9h-1.6c0-.1-2.3-2-2.3-2v-3.6s.6-1.8.6-1.8l3-1.7,1.7-6.3,5.2-5.9,2.4.7,2.1-1.2,1.8-5.8-1.6-3.1-.7-8.7,3.5-.6,1.5-5.9,2.2-2,.5-2.8h3.2c0-.1,1.4-2,1.4-2l3.6.9.9,2.2,1.6-1.3-1.1-3.1,2.8-2.2-1.2-3.5,4.9-.8,4.5,3.1,2.5,5.7-.9,1.7-.4-1v3.5s3.3,4.1,3.3,4.1l-2.2,8.2-13.2,17-4.3-.5-3.4,2.7-2.1,5.7-1.6-1-2.3,3.3-4-2.8-4.2.7-1.5,2.3.9,1.9h-2.1c0,.1-1.4,3.9-1.4,3.9ZM272.9,313.8l-.3-.5-1.6-.9-2.8,2.6-6,2.2,6.3,2.3,2.9,5.8,3.9-1.8-.2-5.1-2.2-4.6ZM233.7,402.5l-3.3-.5-2.2-4.3,3.2-1.4.5-6.5,3.1-2.7-3.8-2.9,4.3-2.2.6-3.2,2.1-2.1-1.3-5.1,6.1-7v-2.3s3.2-4.6,3.2-4.6l-.9-.8h-1c0-.1,1.1-4.8,1.1-4.8l-1.5-1.4-.6-2.7,2.5-1h5.5c0,0,1-2.1,1-2.1h2.6c0,.1,1.1,1.9,1.1,1.9l3.9-5.4v-1.9c.1,0,1.4.6,1.4.6l1.8-.4.6-2.7,1.7.4,3.2,4.3-.8.8.8-.2.3,8.7-4.9,1.3.9,3.7-2.4,2,.8,2.7-.6,1-1-1.6-4.1-1.4-1,2-3.8.5-.3,2.3-2.8,3.4-.7,4.6-3.7.6.2,9.3,1.7,3.1-1.9,5.5h-3.9c0,.1-5.3,5.5-5.3,5.5l-2.4,6.9ZM277.3,360.7l-1.9,3.7,4,4.6-.3-9.3-1.9,1ZM277.1,409.9l2.8-.4,4.1-6.7h-3.8c0,0-3.2,7.1-3.2,7.1ZM275.4,398.2l-1.9,3.1,3,1.2,1.1-1-.7-1.3-1.6-2ZM270.7,404.2l-1.7,2.4.6,3.2,4.4.6,2.4-7.3-1.7-.8-1.3,1.4-2.6.5ZM285.2,409.8l.3,2.7h1.1c0-.1,2-4.3,2-4.3l-1.3-1.5-2.1,3ZM291.2,408.2l-1.3,2.5,3.2-1.5-.7-1.1h-1.2ZM278.7,354.5l-2.6,1.4,2.2,3.5,1.7.3-.5-3.4,1-1.1-1.7-.7ZM289.4,355l7.5,9.3-2,5.6-1.3,18.1-2.9,5.6-7,6.5-3.2.9-1.9.2-2.7-4.4,1.8-5.6.3-6.3,4.1-7.5-.7-21.7-1.2-1.8-4.1-1-2.1-2.6-3-1.5,3.3-2.9-.6-4-2-.5v-3.1c.1,0-.9-1.1-.9-1.1v3.5s-.9.5-.9.5l-4.9-8.3-2.3,1.5.8,2.1-1.5,1.6.9,1.2-1.4.8-1.7-1.6-.3,2.9-3.5,4.9-.9-1.4-2.8-.3-1.1,2.4-5.3-.2-2.8,1.1.6,3.2,1.5,1.2-1.8,4.9,2.3.7-2.9,4.2v2.3c0,0-6.5,7.3-6.5,7.3l1.1,3.2-2.7,7.3-3.9,1.6.3,2.1,3,1.1-3.5,2.9.6,3.8-4,4.4,1.3,5.5-2.3,1.7-1.7-.9-2.9-9.7.8-5.6-3.3-12,4.2-9.6,4.3-3.6,1-4.5h-1.6c0,.1.3,3.3.3,3.3l-6.1,5.3-1.9-1.9.7-2.3h0v1c0,0,5.1-2.9,5.1-2.9l-.9-1-3.5-.2v-2.4s5.8.9,5.8.9v-1.1s-3.4-.2-3.4-.2l2.4-3.1.9-3.5-3.6-1.3.7-3.3-2.7-1.5.7-1.4,1.1,1.3,1.8-1.3-5.7-1.7,3.4-2.4,1.8.4.2-2.5h-1.6c0,.1-.6-1.8-.6-1.8l2.8-.5-.4-1.3-1.5-.2,1.6-1.8h0l.9-.6-.8-3.1,1.9.9,4.2-1.3,1.4-5.2,1.9-.4v-2.9c.1,0,3-3,3-3h2.2c0-.1.6-3.9.6-3.9l2.2-1.6,2.3.9,1.8-1.2,1.5,1.9-.7,4.9.7,1.8.6-.8h1.3s-.1,1.2-.1,1.2l1.4-1.3,3.9.3-1.1-4.7.7-2,4-.2,4,1.3-.8,1.5-2.1.5,3.1.6h0l-2,.8,8.4,4.8,1.7,3.6-2.8,2.3-1.3,3,1.3,2.9,1.1-1.4-1.6-1.9,3.6-3.8,7.6,1.4,2.6,2.2,1.3,2.2-.9.8h-6.5l-3.5,1.5-3.1-.5,2.9,2,2.1-1.8,2.6-.4,4.4,1.2,3.9,12.1,3.8,3,1.3,5.2ZM252.1,402l.7,2.6-3.3,9.4-2.9,2.4-4.5.9-6-3.1v-1.8s2.4-3.3,2.4-3.3l.4-1.9,2-.3-.5-2.5,1.6-1.8,3.3-.2,4.4,2.5,1.4-1.7,1.1-1.3ZM260.4,399.8l-3.2,2.4-4,8.3,1.2,3,2.8-.4,1.4-1.5-1.5-3.9,3.5-6.4v-1.5ZM262.4,394.6l-3.3-.3-1.4,1.3-1.9,3.4v2.4s4.1-4.8,4.1-4.8l2.5-2.1ZM264.2,410l1.1-2-2.9,1.2-.4,1.3,2.3-.6ZM262.9,414.6l2.2-.5-.2-1.8-1.9,1.2-.2,1.1ZM265.5,396.1l-4.8,3.3.3,2-3.3,6.1.4,2.6,1.4,1,8-6.3-1-6.7-1.1-2ZM268.8,412.6l-2,1.1v2.5c0,0,3.5-1.5,3.5-1.5l-.9-.9-.5-1.3ZM270.3,410.2l-1.6,1.7,3.3.8-.3-1.6-1.4-.9Z"/>
    <path id="BD-B" d="M302.3,372.9l-.5-1.9-1.7,4.3.5.7,1.7-3.1ZM306.2,367l-1-1.5-1.6.9v2.1s1.8,1,1.8,1l.8-2.5ZM305.9,371.3l-1.1.3v5.2s-6.3,16-6.3,16l2,1.9,6.2-11.8.7-6.3-1.4-5.4ZM310.6,369.5l-1.9,1.7,1.1,1.5,1.8-1.5-1-1.6ZM309.5,374.3l-1,.9.6,2.4.8-2-.5-1.3ZM307.4,369.5l1,.8,1.4-1.4,1.1-5.3-2.2-1.4-2.2.4.8,6.9ZM308.4,374.9l1.1-1.1-1.2-1.3-.4.9.6,1.4ZM282.7,319.4l-1.5.4,4.6,7.4.6-1.3-1.3-3.4-2.4-3.1ZM276.6,299.4h-.1c0,.1.1,0,.1,0h0ZM306.6,393.5l-1.4,3,1.1,2.5,3-2.6-.4-2.5-2.4-.3ZM300.9,359.2l2.3.3,3-1.1-2.3-3.3-2.8-2.4-5.2-1.4-1.1,1.7,5.5,5.6.7.5ZM335.2,341.5l-2.8-1.5-2.1,1.3,1,4,2.1,2.6,4.3,2.1,1.1-4.5-2.1-1.7-1.4-2.2ZM328.1,348.9l-.8,1,.6,2.5,1.5-4.1-1.3.6ZM327.9,358.2l.8.9,3.1-5.1-2.3.4-1.6,3.7ZM342.2,349.1l-2.7,1.6-.6,1.8,2.8,10.2,2.8,4.9,2.3,1,4.6-1.5.6-1.5-3.4-8.9-6.4-7.5ZM375.3,407.1l-2.2,1.8-.4,13.4,4.3-10.3-.4-3.1-1.3-1.9ZM433.4,442.7l-1.4-16.9,2-15.5-1.7-14.5-2.7-6,1.3-.9,1.7,1.5.3-4.3-3.8-18.3-1-10.8-1.7-3.5.6-3.5-1-6-3.6-7.2-2.6-11-1.1.6-2.8-3.8-1.6-.3,1.4-10.4-2.2-4-.4-11.1,3.7-.7-2.8-6.5.6-3.3-1.6-1.6v-2.3c.1,0-.7-2.1-.7-2.1l-.7.3-1.3-5-.4-5.4-1.9-3.5.5-2.5-1.5-.4,1-5.4-2-2.9h-1.4c0,.1-1.1,4.9-1.1,4.9l-1.4,1-.2-3.1-2.4-1.3-1.1-2.7-5.1,5.6h-1.2c0,0-.3,1.9-.3,1.9l-1.3.8-3.7-1.1-3.1-6.1-1.7.2-1.5,3.9.7,8.1,1,.6-.3,5,1.2,3.2-2.6,1.1v2.7l-3-.3-4.4,3.5-6,11.5,1.7,2.9,2.5,12.7-3.5.8-2.3,4.9-2,1.7-2.1-1.1-.8,1.2h-2.5c0,.1-4.1,2.7-4.1,2.7l.6-1.5-2.2.8-2.7-2.7.4-3.3h-1.2c0,0-.2-4.5-.2-4.5l-1.5-1.6.6-.7-1.1-1.1.5-.8-2.3-6.4-2.1-.3,1.3-.9-1.8-1.5.6-.9h-3.2s-1.7,2.6-1.7,2.6l-.3,6,2.4,7.9-1.5.6-1.9-1-3.7-7.9-.6-10.5-1.3-.7,1.2-1-1.9-1.6,2.2-3.5h-2l-1-1.3-2.6-9.4-3.6-2.4.9-2.6h-1.4s-1.4-3.8-1.4-3.8l-1.2-.4-.4-6.1,2.9,2,.9-3.4-4-.3.2-4.1,2.7-1.2,2.3,1.1.6-4.8,2-3.6-2-3.7,1.3-2.6-1.1-1.3,3.2.2-.3-3.2.9-1.7.4,1.3.8-.4.5-2.2h0l-.6-1.7h.8c0,0,.4-1.9.4-1.9l-.8-1.7h-1.2c0-.1.3-3.1.3-3.1l-1.8-.3,1.8-1.7-2.3-2.1,1.4-3.2,2.8-.6v-1.3c-.1,0-3.1.2-3.1.2l.6-1.5.9.5.2-1,2.1-.6v-2.5s-1.9-.1-1.9-.1l-.9,3.2-.9.2-6.1-1.2-1.6-2.1h0l-2.8,2h-4.5c0,0-.3,1.8-.3,1.8l1,1.2-4.2-.3-4.2,4,5.6,5.9-5.5,4.8-1.3,2.4.3,3.4-2,1.6.2,2.1-2,1.6-.6,2.7-1.7,1.4-2.6-1.7-7.8,1.5.4,5-3.4,4.8,1.6,3.8-.7,2.4-1.7.4-2.5-1.4-2.8.5-1.3,4.6,2.2.4.9,2-1.7,1.4,3,1.4,2,4.5-2.1,1.3-3.2-1.2-4,1.4-4.2,8.7,1,2.8,2.2,1.5-.4,2.6,3.1,7h0l1.9-.2,1.2,8.2-1.1,2.7.2,8.1,1.6,2.4,2-.9,5.7,9.3,1.6,3.4-.4,4.2,3.2,6.3,2.1,2.8,3.5.9.8,1.6,7.6,5,5.8,6.8,3.1-3.4h3.1c0-.1,1.1,1.7,1.1,1.7l7.5-4-1.5-3.7,2.9-2.2-.6-1.6-1.5-1.9-.8-.2-.8-1.7h-1.8c0,0-1.7-2.3-1.7-2.3l5.3,3,3.2-3.8,6.8-1,.2-1-2.1-.7,1.6-1.1,2.9,3.1,1-2.1-1.7-2.7,1.4-2.9-.8,2.5,2.4,2.3,1.3,5.2,6.5,4.1,12.4,15.4,2.5,6.4,1.9,11.7,2.6,3.9,1.3-.3,1.3,7.9.9,1.7h1.5c0,0,1.2,7.9,1.2,7.9l-.7,1.6,3.4,9.4-.2,6-4.3,11.8,1.7,2.5.8-.7.6.7-1.7,5.3.6.9,1.5-.5-2.1,1.4,1,1.3h-1.9c0,.1-.7,1.4-.7,1.4l4.3,4.5v-2.4c-.1,0,5.4-.5,5.4-.5l1.6-11.4,1,3.7-1.2,1.9.5,4.9-.9,2.6-2.9,1.8v1s5.2,7,5.2,7l2.4,5.8v10c.1,0,10.7,13.2,10.7,13.2l3.4,9.1,6.7,12.4,1.8,1.6.5-1.3-1.8-7-4.5-9-.8-7,1-2.4-2.9-3.4v-2.6s-1.6-.6-1.6-.6l-1.3-2.8,3.1-4.5-2.3-7.7,4.5-2.9,1.1-5.4,3.9.5,3.6-4.6,1.7.2,2.6,3.6.9,5.4,5.1,1.5.9-1.5h3.8c0,0,2.8,9.8,2.8,9.8l1.4.2,4.6-4.1-2-5.6-2.3-11.5ZM311.3,398.7l2.6-2.2-.4-1.2-1.8.6-.4,2.8ZM318.9,356.4l-2.7-.5-1.8,1.8-.9,4.5,4.9-4.1.4-1.7ZM317.4,367.1l-4.7-2.2v15c-.1,0-4.4,11.2-4.4,11.2l3.4,3,6.1-4.4,2.4-3.3,2.1-6.2-.2-3.6-1.9-3.2-2.8-6.5ZM316.7,361.6h1.9s3.8-2.9,3.8-2.9l-1.4-.9-2.1.9-2.3,2.8Z"/>
    <path id="BD-C" d="M295.8,133.9l-5.3-2.4-3.6,2.5-1.5-1-1.2,1-2.4-1-.6-1.6-1.3,1h-10.3c0-.1-5,2.5-5,2.5l-5.7-1.7-3-2.5-17.6-2.9-4.3-3.1-5.8-1.7-1.1-1.8-1.4.6-3.3-1.1-2.3,1.9-3.7-.7,1-1.2-1.9-3.9.6-5h0l-4.5-1.4.9,3.5-4.5,2.8,2.5,6.1v3.6s-1,1.1-1,1.1l-3.2.3-3.8,7.5v2.8h0l-.4,2.6h0l.8,2.3h0l-.6.8.9,4.3h0l1.8,7.1-1.9,1.5,1.7,4.6,4.9,3.2h0l-1.9,1.1h0l.9,1.5.7-.8,1.2,1h0l1.2-.8,1.2,2.7h0l-.9,1.6,1.8,4-1,.7v3.4s-1.6.7-1.6.7l1.1,4.2-1,1.9h0l-1.9,1v1.3h0l-1,.2,1.3.8-.4,2.6.8.2-2.6,2.7,1.6,3.6h1.1s.5,2.6.5,2.6h0l-1.3,2.3,2.9,5.5-.4,4,1.2,5.4-1.4.7,3.2,2.2-.3,2.4h0l-.2,4.3h0l-8.5,5.4-.7,5.4,1.1.7-.3,4.4.7-1,2.3,4.1-2.7,1.9-10.3,1-4.1-.9-11.9-8.1h0l-2.8,10.5-1.4.8.2,2.2-1.5,1.2,4.3,5.6,1.9.5,2.6-1.3,2.5,3.4,3.6,1-1.3,2.5,2.3,1.7.6,2.5,2.1,1-2.6,1-1.1,2,3.2-.7,5.8,3.6,1,6.8h-2c0,0,.5,3.8.5,3.8l3.2,5.7-1.6,3.2,4.7-.4-.3,5.1,1.2,1.6,3.1-2,2.4.5-3.1,1.1,1.2,3.3-3.2,1.3-1.3-2.2-.6,1.9,3.9,2.8.8,1.5-.7,1.6,1.7.7.7,3,2.7,1.2-.3,1.3,2.1.5-.9,2.2,2.3.6,2.7,2.8-1.3.3v1.2s-2.6.6-2.6.6l.9,1.5,1.5,1.1,6-.2.9,2.3h0l.9-.6-.8-3.1,1.9.9,4.2-1.3,1.4-5.2,1.9-.4v-2.9c.1,0,3-3,3-3h2.2c0-.1.6-3.9.6-3.9l2.2-1.6,2.3.9,1.8-1.2,1.5,1.9-.7,4.9.7,1.8.6-.8h1.3s-.1,1.2-.1,1.2l1.4-1.3,3.9.3-1.1-4.7.7-2,4-.2,4,1.3-.8,1.5-2.1.5,3.1.6h0l4.5-1.4,3.4-5.8,2.1-1,.9,1.2,2.9-9.5h.1c0-.1.5-1.1.5-1.1h0l-3.1-7,.4-2.6-2.2-1.5-1-2.8,4.2-8.7,4-1.4,3.2,1.2,2.1-1.3-2-4.5-3-1.4,1.7-1.4-.9-2-2.2-.4,1.3-4.6,2.8-.5,2.5,1.4,1.7-.4.7-2.4-1.6-3.8,3.4-4.8-.4-5,7.8-1.5,2.6,1.7,1.7-1.4.6-2.7,2-1.6-.2-2.1,2-1.6-.3-3.4,1.3-2.4,5.5-4.8-5.6-5.9,4.2-4,4.2.3-1-1.2.3-1.7h4.5c0,0,2.8-2.1,2.8-2.1h0l1.6-2.2-2.9.6,1-3.1,4.9.2-1.6-3.8,3.2-1.7-1.3-2.3-1.5-.4v-1.1c-.1,0,1.8-.6,1.8-.6l-1.1-4h-1.2c0,0,.7,1,.7,1l-1.4-.5-1.4,1.9.7-1.7-3.5-.2,1.7-2,.6,1.2.6-.5,3.6-6.3-2.8-1.5.3-1.8-1.8-.7-.2-1.2,1.5.7.7-.7.2-1.4,1.9-.8-.8-1.2,1.5-.3v-1.3s-1.5-.7-1.5-.7l.3-2.2-1.3,1.3-2-1.3h-3.1c0,0,1.4-2,1.4-2l-1.7-1.2,1.9-.3,1-1.5-1.2-.7,1-3.4-1.3-.8-1.7,2.7,1,1.3-1.2.2-1.3-2,1.2-2.2-3.9-5.2-2.9-.4-1,1.9-2.2-.7-.9-1.8h-2.8c0,0-.6-2.1-.6-2.1l1.9-1.8-2.2-1.5.3-2.5-1-1.4,2.4-1.5-2.4-.7-.2-2.8,3.4.2-1.8-3.1.3-3.3,1.4-.6-.4-1.2-9.1,1Z"/>
    <path id="BD-D" d="M185.1,357.6l-.7.5,1,7.5,1,.8-1.1,4.5,4.7,7.7-1.4,2.8,3.2,10.7,1.4,1.6-1.9,5.6,1.8,1.9,4-11-3.4-6.4,2.6-4.3.9.9-.3-3,3.4-5.8-.8-3.7-2.3-4.2-1.7-9.5-5.3-7.3-2.9-.2v1.7c.1,0-4.3,3.9-4.3,3.9l1.8,2.2-1.2,2.2,1.5.8ZM193.7,410.9l.2-6.9,1.8,2.2-2,4.8ZM167.6,419.8l-1.3-.8-.7-2.7,1.2-1.2,4.1.9,1.2-1.4,1.8,6.6-2.2-.6-3.2.9-.8-1.7ZM179.6,409l-6.6-13.2,1.4-2.2-5.4-.7,2.1,3.1-2.7,4.1,2.5,2.1-3.2,2.5,4,3,2.6.4-1.3,3.1,1.2,2.8-.9.6,1.3,1.4,2.5-5.5,2.5-1.3ZM162.8,421.4l-.8,2.6h-2.2s-5-5.5-5-5.5l1.3-5.6-2.1-3.5v-2c.1,0,2,0,2,0v2.7c.1,0,2,2.5,2,2.5v5.1c.1,0,4.8,3.7,4.8,3.7ZM172.5,426l1.9.9-1.3,1.5-5.2,1.4.9-4,1.8.8,1.9-.6ZM162.8,404.2l1.9-3.2-.5-2.1,1.1.7,1.3.8,3.6,1.4-3,2,.5,2.1,2.1,1.1,1.6,1.3,2.2.2-1.4,2,.5,2.2-2,2.8-4.2-.9,1.3-7.1-3.9-.5-1.4-1.1.4-1.7ZM177.2,389.8l1.6-.5v1.5c0,0,1.9,1.6,1.9,1.6l.6-1.8,1.8-.8v-2.3c0,0,2.5-1.1,2.5-1.1l1.8,1.9.9-1.3-1.1-7-3.1,1.5-.5-2.1-2-.9-.9.8-.8-.6-1.1.6.8.5-2.8,4.9,1,.8-.5,4.2ZM190.9,393.4l-2.5-1.8-.2-2.6,1.5.6,1.2,3.8ZM171.4,421l2.2.5.4,1.7-.6,2.1-2.6,1.1-1.8-1-.3-3.5,2.8-.8ZM187.1,395.5l2.8-2.2,1.5,1.1-3.2,2.4-1.1-1.3ZM207.5,410.4l1.7,3.8h-5.5s-1-4-1-4l2.7-4.8-.5-4.1.5-.7,1.5,2.3v1.2c0,0,.6,2.7.6,2.7l-.6,2,.7,1.6ZM218.7,404l1.1,4.2-.8,2.2-2.3.5v2.1c0,0-5.4,1.3-5.4,1.3l.3-1.3-1.8-.3-2.5-4.2,1.2-1.2-1.3-3.3,1.1-.7-2.4-3.4.5-2.1-2.1-1.4,2.5-1.8.2-4.6,3.3-.4,1.5,3.8,5.1,3.1,1.5,2.1.4,5.4ZM223.6,329.9l-6,.2-1.5-1.1-.9-1.5,2.6-.6v-1.2s1.2-.3,1.2-.3l-2.7-2.8-2.3-.6.9-2.2-2.1-.5.3-1.3-2.7-1.2-.7-3-1.7-.7.7-1.6-.8-1.5-3.9-2.8.6-1.9,1.3,2.2,3.2-1.3-1.2-3.3,3.1-1.1-2.4-.5-3.1,2-1.2-1.6.3-5.1-4.7.4,1.6-3.2-3.2-5.7-.5-3.9h2c0,0-1-6.7-1-6.7l-5.8-3.6-3.2.7,1.1-2,2.6-1-2.1-1-.6-2.5-2.3-1.7,1.3-2.5-3.6-1-2.5-3.4-2.6,1.3-1.9-.5-4.3-5.6,1.5-1.2-.2-2.2,1.4-.8,2.8-10.5h0l-3.1-2.2-.4-.4-.9-1.5-4.3-1.8-1.2.8-.7,2.1-1.6,1.1-.8-.3-1.1-3.3h-.2s-1.6,1.7-1.6,1.7l-5.2-1.1-.2-1-2.5-.9-3.6-10.7-.5-.8-4.3-.5-.7-.2-2,.3v-.9c0,0-.6.2-.6.2l-.3.2.2.9h0c0,.1-2.5,1.1-2.5,1.1h-.2s.5-1.1.5-1.1h-.1c0-.1-1.1.3-1.1.3h-.3c0,0-5.9-2.1-5.9-2.1l-2.4-2.5h0l-1.8-3.4v1c0,0-1.2-.2-1.2-.2l-1.4,2.9.8,4-1.2.5.4,1.6h2c0,0-.2,2.5-.2,2.5l1.2.5-1.1.6,1.2,1.5-.9,3.4,2.5-1.2,1,2-2.8.6.6,3.6-.8,1.9h-2.3s.1,1.2.1,1.2l-3.5,2.6-2.3.5-.9-1.2-3.3,1.3,2,3.6-1.2.4-.5,2.1-1.6.3,1.5,1.6-1.3,10.4,2.4.5-.9,3,5-.6-.5,1.2,1.6,3.4,2.8,3,2.5.8,1.2,2.3,4.3-1.2-.6,4.5h-2c0-.1-.6,1.9-.6,1.9l.4,4.8-2.2,1.3,1,3.1-1.5-.6-.3,1.5-1-.8-1,1,2.1,2.3-.3,1.4,3.7,1.1,2.2,2h1.4c0,0,.3-3,.3-3l2.7,2.2,4.7-.5.4,1.8,2.5.5,2.2-1.6,1.2.8-1,2.6-1.6-.7-1.8,1.7-1.3,3.6-4,2.6.3,7.7-2.1.2,1.7,1.1-.5,2.9,2.6.4v2c.1,0,1.4.7,1.4.7l-.4,3.5,1.8.8,1-.8,1.7,2.9-.7,4.1-2.9,2.4v2.3c0,0,3,3.9,3,3.9l-2.1,3.8.4,2.2,2,.2-1.6,2.1v2.4s1.7,1,1.7,1l1.4,5,1.5,1.6-.6,2,.8,1.5-2.1,1.8,1.8,1.8-1,1v4c0,0,3.3,2.6,3.3,2.6h-2.1s-.2.9-.2.9l1.8,1.2-.3,1.3,1.5-.3.7,2.6,2.5,2.8-.4,3.4,2.4-.2-4.2,4.9.6,2.6,2.3.8h-1.4s1.8,3.1,1.8,3.1l.5,6.6-.5-.6-.9,3.5,1.6,2.8v4.9s4.2,1.6,4.2,1.6l1.2-.8,2.6-9-4.4-.4-1.1-2.7,2.5-3.8-1.3-3.8.6-1.3,1.5-.7-1.5,2,4.1,3,3.1-4.6-2.3-2.5-.9-3.4.3-1.6,2.7-1.2-1.5-3.2,1.5-1.4.4-4.5,1.1-1-1.1,5,4.5.3-.7-2.8,2.3,4.6,2.2-4-1.3-.5,1-.9,2.6-.5,2.2.9,1.1-1.8-1.6-2.1.8-1.3-1.6-1.2.4-1-1.4-.2v-1.9s-1.5.2-1.5.2l-.6-3.9,1-3.2-1.2.4-.8-1-6.8.9v-1.2c.1,0,2.2-.7,2.2-.7l-1.3-1,4.6-2.3v1.1s1.9.8,1.9.8l-.5,1.9,5.7-.6-.9-3.7,1.2-2.4-3-5.1,2.3-3,.9,2-.8,2.4,3.5-2.9v-1.8s2.4-.3,2.4-.3l2.7,1.9,4.2,6.6,1.7,6.7,1.4-3.1,1.7-.8v-3.1c0,0,3.7-1.3,3.7-1.3l2.3,1.2,5.6,3.4,1.2,2.3h3c0,0,3.1,4.1,3.1,4.1h0v1c0,0,5.1-2.9,5.1-2.9l-.9-1-3.5-.2v-2.4s5.8.9,5.8.9v-1.1s-3.4-.2-3.4-.2l2.4-3.1.9-3.5-3.6-1.3.7-3.3-2.7-1.5.7-1.4,1.1,1.3,1.8-1.3-5.7-1.7,3.4-2.4,1.8.4.2-2.5h-1.6c0,.1-.6-1.8-.6-1.8l2.8-.5-.4-1.3-1.5-.2,1.6-1.8-1-2.4ZM202.9,415.6l3.1,2.5v1.7c-.1,0-2.4,1.4-2.4,1.4l-4.6-.9.4-3.1-4.6-4.4-.6-1.8,3.2-5.9h2.7c0,.1,1.9,2.9,1.9,2.9l-1.5,4,2.7,3.4ZM216.6,360.2l-2.9-.2-6.6-5.6-5.5.6v2.7c0,0-1.9,1-1.9,1l-1.9,3.5,2.2,4.3.5,7.2-2.8,4-.3,4.1-2.8,1.9,4.1,6.3-4.5,13.9,1.5,1.6,1.2-.9,3.4.3,2.5,3.8,1.5-1.6.7-2.8-.8-2.6,1.8-3.8-2.1-1.6,2.6-2,.3-4.5-1.7-5.8,2.1.4-1.2.9,1.2,4.1,3.5-.3,1.3,3.7,2.2,1.4,3.2,1.1,2.4-2.8v-7.7l-3.2-4,4.2-10.5-1.7-4.1.7-2.3-3.2-3.9ZM183.6,374.9l.8-3.2,4.4,6.3-4.5,3,1-3.4-1.6-2.7ZM174.9,382.8l.9,2.2-3.2,3.3-.5,3-3.7,1.3-.8-2.3,1.5-.6-1-1,2.5-1.3-1.5-3.2,1.6-1.5,4.3.2ZM172.2,392.8l2.6-.2.7.8-1.5,2.2,4.6,7.5-.5-4.8,3.4-5-2.9-2-.4-1.3-1.5.4.6-4.8-3.3,2.4-.9,2.9-.9,1.8ZM189.8,398.2l-1.2-1.6,2.9-2.2-1.7,3.8ZM197.2,420.8l1.6,3.2-3,.5-2.8-4.6,1.2.2-1.4-4.7.8-2.3,4.9,4.1-1.3,3.6ZM191.3,404.9l-.6,3.5-3.9-.6.7-1.7-3.3-2.9,1.3-1.7-.5-4.5,1-.7,2,.8,3.2,7.9ZM178.8,414.7l-1.2,3.8-1.1-5.3,3.4-2.8-1.2,4.3ZM186.8,413.7l-2.5-.6,2.6-.4,1.3-3.8-1.9-.4.8-2.2-3.1-2.9,1.2-1.8-.6-4.8,4.6-3.5-2.1-2.6.3-1.9-2-1.6-2,.7-.3,2.3-1.9.8.6,3.1-3,4.6,2.4,12.1-2.7,6.2,2.1,6.2,1.8,1,1.6-.6,2.7-3.1,1.6-2.3-1.4-3.1-.2-1.3Z"/>
    <path id="BD-E" d="M202.3,143.8l.9,4.3h0l1.8,7.1h0l-1.9,1.5h0l1.7,4.6,4.9,3.2h0l-1.9,1.1h0l.9,1.5h0l.7-.8,1.2,1h0l1.2-.8,1.2,2.7h0l-.9,1.6h0l1.8,4-1,.7v3.4s-1.6.7-1.6.7h0l1.1,4.2h0l-.2.4h0l-.8,1.6h0l-1.9,1.1v1.2h0l-1,.2,1.3.8h0l-.4,2.6h0l.8.2h0l-2.6,2.7h0l1.6,3.6h1.1s.5,2.6.5,2.6h0l-1.3,2.3,2.9,5.5h0l-.4,4h0l1.2,5.4h0l-1.4.7h0l3.2,2.2-.3,2.4h0l-.2,4.3h0l-8.5,5.4-.7,5.4h0l1.1.7h0l-.3,4.4h0l.7-1,2.3,4.1h0l-2.7,1.9h0l-9.8,1h-.4s-4.1-.9-4.1-.9h0l-1.1-.6h0l-10.8-7.4h0l-3.1-2.2h0l-.4-.4h0l-.9-1.5-4.3-1.8h0l-1.2.8h0l-.7,2.1-1.6,1.1h0l-.8-.3h0l-1.1-3.3h-.2s-1.6,1.7-1.6,1.7l-5.2-1.1h0l-.2-1h0l-2.5-.9-1.5-5h0l-.2-.4h0l-1.8-5.4h0l-.5-.8h0l-4.3-.5h0l-.7-.2h0l-2,.3v-.9h0l-.8.2h-.2c0,.1.2,1.1.2,1.1h0c0,.1-2.5,1.1-2.5,1.1h-.2s.5-1.1.5-1.1h-.1c0-.1-1.1.3-1.1.3h-.3c0,0-5.9-2.1-5.9-2.1l-2.4-2.5h0l-1.8-3.4.4-4.9-2.5-3.5-5.9.2-4.7-1.8-1.1,2.6-2-4.1-6.3-2.8-6.4.3-2.6-.9-4.5-4.7-5.9-1.9-4.1-3.8-10.7-13.8,4.2-4.7.5-4.1,2.8-.9v-2.1c.1,0,4.5-4.4,4.5-4.4l-.7-2.6,1.2-.3-2.3-2.3v-1.6c0,0,6.8-2,6.8-2l5.9,7.6,3.4-1.9-1.7-1.6,1.2-2.4,1.7-1.1,1.6,1.2,1.3-.7-.3-2,1.5-.4-.3-1.7,3.1-3.6-1.3-1.2,1.3-2.5-.8-4,1.5-1.3-1.3-4.6,4.2-1.3,2.9.9v.9c0,0,1.8-.3,1.8-.3l.5,1.4,4-2.4,7.2-.3,3.3,2.7,1.6-1.1,2.4,1.6,3.2-3.3,2.5,2.6,1.6-.3,2,1.5.5-1.5h1.4c0,0-1-2.8-1-2.8h1.9c0-.1-.3-3.3-.3-3.3l1.9-1.3h0l2.8,2.5h6l.7,1.2,4.9.8,3.7-.4-.7,4.5,1.1,2.5,2.6,1.6,1.1,2.9,2.2.8,4.5-1.2,4.5,4.5,1.5-1.2h2.2l6.7,3.7,8.7-2.5Z"/>
    <path id="BD-F" d="M202.3,143.8l-8.7,2.5-6.7-3.7h-2.2l-1.5,1.2-4.5-4.5-4.5,1.2-2.2-.8-1.1-2.9-2.6-1.6-1.1-2.5.7-4.5-3.7.4-4.9-.8-.7-1.2h-6l-2.8-2.5h0l2.2-.3.3-1.7-5.8-1.3-.9.6-1.5-2.7-1.4,1.1-3.5-3.4v-2.5c.1,0-2.1-1.4-2.1-1.4l1.6-1.4.2-3.8-.6-1.4h-1.4c0-.1-.3-2.9-.3-2.9h-3.7c0-.1.5,2.4.5,2.4l-2,.5-.3-1.4-2.2.4-.9,2.3-3.8-.6v-1.5c-.1,0-2,0-2,0l-1.2-1.5-2.4.7-1.9-1-.8.9-.7-2.9-.8.6-2.1-2.1.3-2-4.2-1.3.8-5.5-3.9-.8v-1.1s-2.5-1.1-2.5-1.1l.3-1.5-4.1-1.9-4.2-3.9v-2.4c-.1,0-2.6.1-2.6.1l-2.4,1.8-1.7-1.1-2.7,2.2-.8-1.7-1.9-.2-1-2.5.8-2.3-2.1-5.8,2-1.4,2.4-6.6,3.4-1.1-1.1-.8,1-3.1-1.9-2.2,1.5-4.4,5.4-3.8,2.1.2,5.9-2.9v-5.3c0,0,2.9-2.8,2.9-2.8l2.1-.2-.7-1.2,2.4-.6,1.5-3.2,2.3,2.1.2-.9h1.4s-.2,1-.2,1l1.5-1-3.2-8.8-4.8-.3-1.4-1.8h-2.9c0-.1-.9,3.4-.9,3.4l-1.7-2.8,3.4-10,2.7-3.5,1.8,7.6,1.2.9.9-1,1.9.5.6,2.4,2.4.7v2.1c.1,0,2.8-.6,2.8-.6l-.3,2.8,3.1.6v-1.9c-.1,0,1.8,0,1.8,0l.3,3.1,3.6,2.5,1.3-.3-.4,2.6,1.8,4,3.5-1.6,1,4.5,2.9-1.1,1.8,1.1-.2,3.5,2.2,2.2,3-.4-1.3-3.3,1.6-1.2,3.6.3,2.8,4,6.6-.2,1.1-1-.3-3.3-2.5.7-1.4-1.6-.9.9-1-1,1.2-2.1-1.3-2-1.8-.2-.4,1.9-.9-2.3-2.5-.9.5-2.7-1.1-.9h1.9c0-.1-.1-2.1-.1-2.1l1.4.6,1-2.9,2,1.1.5,2.3,2.6.6.9,1.6,4.8.4-1.2,2.4,1.2.4v2.8c.1,0,3.2.8,3.2.8l-1.1,2.8-1.4-2.5-.3,3,3,4.1.7,2.3-1.1,2.5,1.7,1.7-.2,1.6,2.9,1.8h2.5c0,0,3.3,2.6,3.3,2.6l-.8,2.4,5.2,2.3,1.9,2.3,3.6.3v-1.1c0,0,2.4-2.2,2.4-2.2l.7,3.2,3.1,1,5-.7.9.5-.8,2.5,3.7-.4v-5.2s4.8-2.3,4.8-2.3l-1.6-3.7-1.6,1.6-1.2-1.1.4-1,1.4.6,1.1-1.1-1.4-.7-.5.9-1.1-3.5,1.5.3.5-2.1,2.5,1.2.6-1.2-2.3-.6,1.8-.3-1.2-3.3,2.8.8.7-1.5.9,2.2-1.4.8,2.2,2.6-1.6,1,2.1.6.6-1.3.3,1.1h2.2s1.5,2.4,1.5,2.4l-.9,1.6,2.2.3v1.9c0,0,.9,0,.9,0l.4,2.3-1.2.3v1.3c.1,0,1.9-.2,1.9-.2l1,2.8-.7,1.4,1.7,1v-2.5s2.8,3,2.8,3l-2.6,1,.8,1.5,3,.5-5.9,10.6,2.3,4.2-.9,3.7,1.9,1.5-.2,1.7,2.6,5.7-1,6.8-1.3.6v6.2c0,0-2.2,4.2-2.2,4.2h0l-4.5-1.4h0l.9,3.5h0l-4.5,2.8,2.5,6.1v3.6s-1,1.1-1,1.1h0l-3.2.3-3.8,7.5v2.6h.1v.2h0l-.4,2.6h0l.8,2.3h0l-.6.8Z"/>
    <path id="BD-G" d="M329.6,130.5l4.3,2,6,.2,2,1.8h2c0,0,.2,1.3.2,1.3l6.6-1.3,1.7-2,2.9-.3-.9,2.6h1.6c0,0,.2,1.5.2,1.5l1.3.5,4-1.4.9-1.7,2.9.6.7-2.4,2.3,1,4.1-1.2,6.8-.4,5.2,1,2-1.2h4.7c0,0,5.1,2.4,5.1,2.4v1.4s3.7,2,3.7,2l3.5.2-1.6.3,1.7,1.7,6.3,2.1,2.6-.5.7.9-.7,1.3,6.7,1.8-.3,5,2.5-.3,1,1.6-1.7.3,1.3.9,1.6-1,1.2,4.3-1,2.6-3.3-.3-1.3,2.1h-1.8c0,0-7-3.6-7-3.6l-1.7-2.2-1.2,1.3-3-.5v5.2c0,0,2.7,1.8,2.7,1.8l1.1,3.3-.6,3.9,1,.6-3.7,6.8-1.6,13.4-4.5-2.9-1.4.8-.3,2,1.6,5.9-2.6.5-1.2,3.2-2.7,1.2-9-1.3-.7.6,2.6,3.6-.2,1.5-3-3-2.9,1.7,1.7,5.8-2.5,10.6-1.7.4-.8-.9-.5-2.2-2.4-2v-2c0,0-2,1.1-2,1.1l-5.6-3.2,1.5,8.8h-2.4c0,0-3.6-2.2-3.6-2.2l-1.4-5.2-1.5,1.4.9,2.3-1.1,1.1-.9,6.2-2.6.3-1,1.8h-3.3c0,0-4.3-1.8-4.3-1.8l-8.8-1v2.4c0,0,1.4,2.5,1.4,2.5l-1.7,3.7.3,2.6-5.6-1.8h0l-.6-1.7h.8c0,0,.4-1.9.4-1.9l-.8-1.6-1.2-.2.3-3-1.8-.3,1.8-1.7-2.3-2.1,1.4-3.2,2.8-.6v-1.3c-.1,0-3.1.2-3.1.2l.6-1.5.9.5.2-1,2.1-.6v-2.5s-1.9-.1-1.9-.1l-.9,3.2-.9.2-6.1-1.2-1.7-2.1h0l1.6-2.2-2.9.6,1-3.1,4.9.2-1.6-3.8,3.2-1.7-1.3-2.3-1.5-.3v-1.1c-.1,0,1.8-.6,1.8-.6l-1.1-4h-1.2c0,0,.7,1,.7,1l-1.4-.5-1.4,1.9.7-1.7-3.5-.2,1.7-2,.6,1.2.6-.5,3.6-6.3-2.8-1.5.3-1.8-1.8-.7-.2-1.2,1.5.7.7-.7.2-1.4,1.9-.8-.8-1.2,1.5-.3v-1.3s-1.5-.7-1.5-.7l.3-2.2-1.3,1.3-2.1-1.3h-3.1c0,0,1.4-2,1.4-2l-1.7-1.2,1.9-.3,1-1.5-1.2-.7,1-3.5-1.3-.8-1.7,2.7,1,1.2-1.2.2-1.3-2,1.2-2.2-3.9-5.2-2.9-.4-1,1.9-2.2-.7-.9-1.8h-2.8c0,0-.6-2.1-.6-2.1l1.9-1.8-2.2-1.5.3-2.5-1-1.4,2.4-1.5-2.4-.7-.2-2.8,3.4.2-1.8-3.1.3-3.3,1.4-.6-.4-1.2h0l8.9-2.5,13.2.2,1.7-.8,1.1.8Z"/>
  </g>
</svg>