<?xml version="1.0" encoding="UTF-8"?>
<svg id="Layer_1" xmlns="http://www.w3.org/2000/svg" xmlns:amcharts="http://amcharts.com/ammap" version="1.1" viewBox="0 0 512 512">
  <!-- Generator: Adobe Illustrator 29.1.0, SVG Export Plug-In . SVG Version: 2.1.0 Build 142)  -->
  <g id="_x3C_defs">
    <amcharts:ammap bottomLatitude="26.697582" leftLongitude="88.750882" projection="mercator" rightLongitude="92.125782" topLatitude="28.232795"/>
  </g>
  <g>
    <path id="BT-11" d="M79.2,209.5l2.9,4.6,4.4,1.1-1.3,1.9v1.5c0,0,3.1-.7,3.1-.7l.7-1.6,5,1.7,1.2-2,2.1-1.1h1.5c0,0,2.3,1.8,2.3,1.8l2-1.8,4.1-1.3.4,3.5-1,2.5.8,1.7-.6,1.6,2.9,3.8-4.4,4,1.5,1.3,2.4-1.4,6.1,6.8,1.8.7-1,1.2,1.6,3.4,3.6,3-2.1,1.7.3,5.6-1.9,7.1.5,2.8-.7,3.5,1,1.4,2-.2,2.7,1.4.5,3-1.7,2.4v1.6s5.5,3.6,5.5,3.6l-.2,4.5h0l-.8,4.6-1.8,2.1-2.2,6-.3,2,.9,2.8-1.3,1.6-6.9-1-6.4-4.8-3.7,2h-7.5c0,.1-1.4-3.5-1.4-3.5l-.2-6.8,1.1-1.3,3.7-1.2,3.1-3.6-2.9-3.1-.9-2.9-4-4.1-1.9-5.2-3.6-3.7v-3.3c0,0-4.9-2.6-4.9-2.6l-1.4-8.7-1.3-1.4-1.3-5.7-3.1.9-3.3-2.7-4.1-.2-.8-1-2.2-.5-.4-2.2-3.1-1.8h0l1.2-1-.2-1.3,1.8-.9.2-2.9,2.1-2.2,1.9.3,1-4.1,2.2-.9.8-3.1,3.4-1,.8-3.1-1-2.3.9-2.8Z"/>
    <path id="BT-12" d="M126.9,284.3l1.9.6,1.9,2.6.4,4.5,2-.5,5.8,2-.3,1.8-4.7,2.1-1.6,1.9-.3,3.1-1.9,1.6,1.8.4,1.3,2.8,2.7,2.8,1.8.9,2.1-.6h0l2.1,2.8,2.2,8.6,2.9-.3,1,.7-.9,5.8,1.4.4,3.9-1.4,3.7.5,2.9,5,1.7,10.2,2.9.6.2.8-1.4,1.8.7,2.7,2.6,2.3-.4,1.7-5.3-.2.4,3-1,1,.3,1.9-.9.3.5,2.2-1.5,1.4.2,2.9-1.2-.9-.5,2.5-1.6-.3-2.9,5.2.2,4.2,2.2,1h0l-4.3,1.8-3.2-2.1-1.9.5-2.5-1-2.2,3.6-3.5-.9-1.3,1-.9-2.2.9-1.7,2.9-1.5,1.3-3.4-.3-1.3-1.4-.9-2.7.9-.5-1.3-6.8-2.2-1.5-2.8-1.9.9-5.1-.3-6.4,1.6-2-2.1-.5-3.3-8.4-1-.6-2.8-2.3-.3h0l.6-2.7-.7-1.4h-2.4s-3.4,1.6-3.4,1.6l-.4-.9.9-1.9-1.1-1.1.5-1.7-2.1-1.1-1.3.4-2.3-2.3-1.9,1-1.4-2.1.4-1.6-.8-2.6,2.5-.8,4.5-4.4,3-6.2-1.5-2.6.5-5.4h0l-.8-3.5,4.7-3v-3c0,0,4.1-4.6,4.1-4.6l-2.7-2.7-1.2-3.5h7.5c0-.1,3.7-2.1,3.7-2.1l6.4,4.8,6.9,1,1.3-1.6-.9-2.8.3-2,2.2-6,1.8-2.1.8-4.6Z"/>
    <path id="BT-13" d="M64,234.8l3.1,1.8.4,2.2,2.2.5.8,1,4.1.2,3.3,2.7,3.1-.9,1.3,5.7,1.3,1.4,1.4,8.7,4.8,2.6v3.3c0,0,3.7,3.7,3.7,3.7l1.9,5.2,4,4.1.9,2.9,2.9,3.1-3.1,3.6-3.7,1.2-1.1,1.3.2,6.8,1.4,3.7h0l1.2,3.5,2.7,2.7-4.2,4.6v3c0,0-4.6,3-4.6,3l.8,3.5h0l-4,.4-3.3-.9-2.8.6-2.1,2.3v1.9c0,0-2.4,4-2.4,4l-1.5.4-3.8-4.2-2.7-5.4-2.8,6.2-4.4,2.2h-1.6c0,0-1.4-1.7-1.4-1.7l-1.4-.2-3.1-2.2-.2-1.9-5.5-3.5-1.8-4.5-5.2-2.1,1.1-6.1-.3-3.8-3.7-3.9-2.1-4.2-7.5-4h0l.9-2.2-1.1-3.3,2.5-4.2,8.3,8,1.3-3.1,1.8-1.1-1-3.9-3-2.3.5-6.4-.7-2.5,1.9-2.6-.4-2.2,3.1-3.6-1.8-4.6,2.2-1.8h2.1l-1.4-3.6,5-3.6.2-2.5.8-.8v-3.4c0,0,5.7-3.5,5.7-3.5l4.5.9.7-1.3,1.8-.8Z"/>
    <path id="BT-14" d="M30.1,289.3l7.5,4,2.1,4.2,3.7,3.9.3,3.8-1.1,6.1,5.2,2.1,1.8,4.5,5.5,3.5.2,1.9,3.1,2.2,1.4.2,1.4,1.7h1.6c0,0,4.4-2.1,4.4-2.1l2.8-6.2,2.7,5.4,3.8,4.2,1.5-.4,2.3-4v-1.9c0,0,2.2-2.3,2.2-2.3l2.8-.6,3.3.9,4-.4h0l-.5,5.4,1.5,2.6-3,6.2-4.5,4.4-2.5.8.8,2.6-.4,1.6,1.4,2.1,1.9-1,2.3,2.3,1.3-.4,2.1,1.1-.5,1.7,1.1,1.1-.9,1.9.4.9,3.4-1.6h2.4s.7,1.4.7,1.4l-.6,2.7h0l-6.7,2.8-1.4-1.6-1.4,1.4-6.2,2.8-1.3,1.7-3.2-.6-6.4,2-3.1-1.5-5.3,1.6-4.4-4.7.3-3.9-2.4-2,1.1-2.1-.7-1.4-3.3-1.5h-3.1c0,0,0-2.7,0-2.7l-3.2-3.4-5.9,3.2-3.3-.6-3.3-3,2.3-1.9-.3-2.3-5.1-4.6-3.7,3.1-.8,2.8-2,1.4-.7-9.7,1.2-5-1.3-11.1-1.9.3-1.8-1.5-2.7-.2-3.8-3.1-5-.3-2.2-1.1,1.4-1.9v-3c0,0,4.1-1.7,4.1-1.7l.2-2.6,1.6-3.1v-4.4c0,0,4.4-2.5,4.4-2.5l6.2.6,4.2-1.1Z"/>
    <path id="BT-15" d="M126.9,284.3l.2-4.5-5.5-3.6v-1.6s1.6-2.4,1.6-2.4l-.5-3-2.7-1.4-2,.2-1-1.4.7-3.5-.5-2.8,1.9-7.1-.3-5.6,2.1-1.7-3.6-3-1.6-3.4,1-1.2-1.8-.7-6.1-6.8-2.4,1.4-1.5-1.3,4.4-4-2.9-3.8.6-1.6-.8-1.7,1-2.5-.4-3.5-4.1,1.3-2,1.8-2.3-1.8h-1.5c0,0-2.1,1-2.1,1l-1.2,2-5-1.7-.7,1.6-3,.7v-1.5c0,0,1.2-1.9,1.2-1.9l-4.4-1.1-2.9-4.6h0l1.9-3.8,4.5-2.3.5-2.3,4-3.7,2-.6,3.1.6,1-1.7,7.3-5.3,1.9-4.6,2-1.3-.3-1,1.1-1.5,2.3-1.3,2.4-4.4-.3-3.9h0l4.4,1.2,3,3,3.2.6,1.4,3.1-.5,4.2.6,1.6,3.6,2.5,4.9,1.4-.4,1.1-3.7,1.2-1,2.5-2.4,1.6-3.4,4.4,1.3,3.4-.9,1.9v3.4s-1.8,1.2-1.8,1.2l.8,1.7,3,2.3,3-4.5h3.9s1.8,5.1,1.8,5.1l-.4,1.3,1.9,1.8,4.9,1.6h0l.3,3.1,2.4.7.9,2.1-1.3,9.2,1.4,2.5,1.7.9,1.8,5.7,1.9.7,1.2,1.6.5,1.6-.6,1.7.8,2,2.8,1.3.5,2.1,2.2,1.7,2,3.4h0l-1.2,6.2,1.6,2.6-8.5,6.8,3.4,2.6-1,2.2.8,4.6-.8,6.1h0l-1.7-.4-.6,2.7-1.6,1.4v1.8c-.1,0-3,.7-3,.7l-3.6,2.3-1.3,5.6.3,2-1.2,2.7h0l-2.1.6-1.8-.9-2.7-2.8-1.3-2.8-1.8-.4,1.9-1.6.3-3.1,1.6-1.9,4.7-2.1.3-1.8-5.8-2-2,.5-.4-4.5-1.9-2.6-1.9-.6Z"/>
    <path id="BT-21" d="M203.1,315.6l.5-1-.9-1.9,1.1-3.1-.5-4.4,2.3-1.8,9.1,4.5,2.9-1,4,.2,2.5-1.3,6.2,4.7,1.8-2,2.1.5,1.3-1.3,3.5-.8,1.1-1.8h1.1c0-.1,2,1.1,2,1.1l.7,2.2-.9,2.2-2.7-.5-6.9,5.3-.6,1.7.4,2.2-1.9,2.2-.2,3.5-3,2-.2,6.2-6.5,6.8-.2,3.4-3.3,1.5-1.4,2.7-3.1,2.1-1.8,4.2.2,3.9-3.3,1.4-1.7-1.1-1.5.6-1.7,1.1-.4,2.6-2.2.7-4.1-1.3h0l-1.5.7-2-3.5-1-1.9,1.6-1.6-2.1-.3.7-.8-.5-1.3,1.2-1.2-.4-2.5,2.1-1.7h1.8c0,.1,1-2.9,1-2.9l3.3-3.5,1.1-3.4-.2-4.2,1.4-6.1v-2.5s-1.1-.9-1.1-.9l1.5-2.7-1-2.1.2-3.6Z"/>
    <path id="BT-22" d="M152.7,291.3l1.2.2,4.8-2.3h2.7c0,.1,2.9,2.3,2.9,2.3l5.1-1.3,1.1,1.7,1.7.4,1.2,2.5,5.1,2.5,4.3,10.1,2.2,1,.7,1.5,6.6.2,3.7,2.8,4.1-.2,3.1,2.8h0l-.2,3.6,1,2.1-1.5,2.7,1.2.9v2.5s-1.4,6.1-1.4,6.1l.2,4.2-1.1,3.4-3.3,3.5-1,3h-1.8c0-.1-2.1,1.6-2.1,1.6l.4,2.5-1.2,1.2.5,1.3-.7.8,2.1.3-1.6,1.6,1,1.9,2,3.5,1.5-.7h0l1.7,4.1-.9,4.2.6,3.2-2.7-.9-1.8-1.8v3.5c-.1,0-1.9,2.4-1.9,2.4h0l-2.6,1.2-9.4.7-4.6-.3-4.3-1.6-.9,5.9-7.4-1.9-6.8,1.5-.7-2.4-1.2-.6.7-1.5-.7-.9h0l-2.2-1-.2-4.2,2.9-5.2,1.6.3.5-2.5,1.2.9-.2-2.9,1.5-1.4-.5-2.2.9-.3-.3-1.9,1-1-.4-3,5.3.2.4-1.7-2.6-2.3-.7-2.7,1.4-1.8-.2-.8-2.9-.6-1.7-10.2-2.9-5-3.7-.5-3.9,1.4-1.4-.4.9-5.8-1-.7-2.9.3-2.2-8.6-2.1-2.8h0l1.2-2.7-.3-2,1.3-5.6,3.6-2.3,2.8-.7v-1.8c.1,0,1.8-1.4,1.8-1.4l.6-2.7,1.7.4Z"/>
    <path id="BT-23" d="M139.8,220l1.2-2,2.3.3,1.5-.7,3.9,1.5,3.6-.4,2.3-1.4-.7-1.5,1.3-.5,2.6-3.7,2.2.8,1.2,2.4,2-1.2,1-2.6,4.9-4.2,2.8-5.5,2.4-1.3,3.7-.2,3-1.8,1.6.3,4.3,3.8h2c0,.1,5.2,2.4,5.2,2.4l.9,1.4,3,.5h0l.4,5.7-6.5,6.1-1.3,5.5,3.3,1.8,2.6-.8,2,.4,3.9,4.2v1.9c0,0-3.2,3.4-3.2,3.4l-3.1.3-3.2,4.6-3.3,1.7-.7,1.6-2.7,1.6v1.8c0,0-3.3,2.8-3.3,2.8v3.5s-1.4.6-1.4.6l-2.1-1-2.3.2-.9,1.1.6,2.4-7.4,3-3.3-.7-1.1,1.2-6.9.9h0l-2-3.4-2.2-1.7-.5-2.1-2.8-1.3-.8-2,.6-1.7-.5-1.6-1.2-1.6-1.9-.7-1.8-5.7-1.7-.9-1.4-2.5,1.3-9.2-.9-2.1-2.4-.7-.3-3.1Z"/>
    <path id="BT-24" d="M203.1,315.6l-3.1-2.8-4.1.2-3.7-2.8-6.6-.2-.7-1.5-2.2-1-4.3-10.1-5.1-2.5-1.2-2.5-1.7-.4-1.1-1.7-5.1,1.3-2.9-2.2h-2.7c0-.1-4.8,2.1-4.8,2.1l-1.2-.2h0l.8-6.1-.8-4.6,1-2.2-3.4-2.6,8.5-6.8-1.6-2.6,1.2-6.2h0l6.9-.9,1.1-1.2,3.3.7,7.4-3-.6-2.4.9-1.1,2.3-.2,2.1,1,1.4-.6v-3.5s3.4-2.8,3.4-2.8v-1.8c0,0,2.6-1.6,2.6-1.6l.7-1.6,3.3-1.7,3.2-4.6,3.1-.3,3.3-3.4v-1.9c0,0-4-4.2-4-4.2l-2-.4-2.6.8-3.3-1.8,1.3-5.5,6.5-6.1-.4-5.7h0l.7-5.9,5.2-1.2,3.8,1,3.4-3.2,1.5-4.2,6.8-10.4.6-3.5,1.7-1.2,8.2-1,3.1,3.3-.7,2.8,3.2,6.7,3,1.9,1.4-.2,2.1-2.3,3.3,1.4,1.5-1.2,2.1.9,1.1-2.1-.3-4.4-1.1-2.4.8-1.4-1-2.1v-3.2s1.7-1.5,1.7-1.5l5-.2,4.5-7.1h3.1s2.3,4.3,2.3,4.3l.5,2.8v2l-1.7,4.2,1.1.9-.3,1.5,1,2.6,3.4,1.1v3.2c0,0,1.3,2.4,1.3,2.4v5.9c.1,0-1.3,4.1-1.3,4.1l-1,1.3-2.9.2-.8.9.2,2.6,1.4,1.5v2.8h0l-2.6,12.7-9.1,4-1.5-.3-1.1-1.5-4.5,1.4-2.8-.8-1.5,1.4-.7,5.2-3,2.7v1.6s1.1.7,1.1.7l4.5,11.8,3.9.6,1.2,1.8-3.2,3.1-2.1-1.4-.7.7-3.2.2-1.5.8-1.7,2.8-4.6.3-1.9,1.1.9.8.3,2.3,2.6,1.6-.2,5.5,4.8,6.2-.9,2.5,6.8,6.1-.5,1.2,1.2,2.6-.5,1.3,2.6,1.5-.4,4.5-3,2.4-.3,1.4h0l-4,3.6.3,2.8h-1.1c0,.1-1.1,1.9-1.1,1.9l-3.5.8-1.3,1.3-2.1-.5-1.8,2-6.2-4.7-2.5,1.3-4-.2-2.9,1-9.1-4.5-2.3,1.8.5,4.4-1.1,3.1.9,1.9-.5,1Z"/>
    <path id="BT-31" d="M270.7,311.7l.4,2.6,2,1.2.3,1.1h1.5s1.8,1.4,1.8,1.4l.3,1.7,2.1-.8,1.3,2.1,2.8,1.1,4.2-2.1,5,3.9-.8,3.3.7,1.4,1.3.5-.5,2.7.8,2.6-1.6,2.3.7,2.8,1.6.8-3.1,3.8-2,1.2-1.3,3.8-4,3.9-.6,1.1.3,4,4.1,1.5,4.2.2,3.3,2.3.5,2.2,3.4-.2,2.4-1.5.7.8,1.7-1.1.7,4.7-.7,3.1h0l-3.7-.2-1.8,1.1h-4.3c0,0-4.4-2-4.4-2l-3,1.1-2.8-2.8-10.3-1.5-20.3-15.9-1.8-.6-8,1-1.4,3.2-6.5,4.6-8.4-1.6-4.3.7-3,3.4-1.6,3.8.7,6.4-19.6,6.7-7.8-.8h0l1.8-2.4v-3.5c.1,0,2,1.8,2,1.8l2.7.9-.6-3.2.9-4.2-1.7-4.1h0l4.1,1.3,2.2-.7.4-2.6,1.7-1.1,1.5-.6,1.7,1.1,3.3-1.4-.2-3.9,1.8-4.2,3.1-2.1,1.4-2.7,3.3-1.5.2-3.4,6.5-6.8.2-6.2,3-2,.2-3.5,1.9-2.2-.4-2.2.6-1.7,6.9-5.3,2.7.5.9-2.2-.7-2.2-2-1.2h0l-.3-2.8,4-3.6h0l5.3,2.3,2.6,2.5,2.3.6,3.5,3.9,2.2.3,1.1,2.2,2.1.8,2-1,2.2.4.6,1.2h2.1Z"/>
    <path id="BT-32" d="M266.2,209.8l1.8,2,1.8-.7,2.4,1,3,5.3-.8,1.1,1.4,1.9-1.2,3.2.6,1.3-2.1,1.5-.3,5.3-.7,1.1,2.2.6-.7,2.1.9,5,1.5.5.5,4.3,2.4,5.2-.3,1.9,1.4,4.4-1.3,1.3,1,3,1.7,1.4,4,.2.9,2,7.1,2.2,3.7,4.8,2.8,1.2,1,1.5h0l.2.2h0l1.4,3.8-3.3,7.5.4,5.7-3.9,3-7.7,2.2-4.1,2.5,6.2,8.6-2.9-.8-3.4,1.1-5.4-2.4-1,1.1-1.9.4v2.3c-.1,0-2.6,0-2.6,0l-2.1,2.3h-2.1s-.6-1.2-.6-1.2l-2.2-.4-2,1-2.1-.8-1.1-2.2-2.2-.3-3.5-3.9-2.3-.6-2.6-2.5-5.3-2.3h0l.3-1.4,3-2.4.4-4.5-2.6-1.5.5-1.3-1.2-2.6.5-1.2-6.8-6.1.9-2.5-4.8-6.2.2-5.5-2.6-1.6-.3-2.3-.9-.8,1.9-1.1,4.6-.3,1.7-2.8,1.5-.8,3.2-.2.7-.7,2.1,1.4,3.2-3.1-1.2-1.8-3.9-.6-4.5-11.8-1.1-.7v-1.6s3-2.7,3-2.7l.7-5.2,1.5-1.4,2.8.8,4.5-1.4,1.1,1.5,1.5.3,9.1-4,2.6-12.7Z"/>
    <path id="BT-33" d="M333,273.5l-.9,2-2.5,1.4-3.2-.4-.8,1.4h-3.3s-3.8,2.6-3.8,2.6l-1.2-1.2-2.9.4-2.2-2.3-.6-1.9-3.4-3.1h-5.1c0,.1-2.3,2.2-2.3,2.2h-.1c0-.1-1-1.6-1-1.6l-2.8-1.2-3.7-4.8-7.1-2.2-.9-2-4-.2-1.7-1.4-1-3,1.3-1.3-1.4-4.4.3-1.9-2.4-5.2-.5-4.3-1.5-.5-.9-5,.7-2.1-2.2-.6.7-1.1.3-5.3,2.1-1.5-.6-1.3,1.2-3.2-1.4-1.9.8-1.1-3-5.3-2.4-1-1.8.7-1.8-2h0v-2.8s-1.3-1.5-1.3-1.5l-.2-2.6.8-.9,2.9-.2,1-1.3,1.4-4.1v-5.9c-.1,0-1.4-2.4-1.4-2.4v-3.2c0,0-3.5-1.1-3.5-1.1l-1-2.6.3-1.5-1.1-.9,1.7-4.2v-2l-.5-2.8-2.3-4.3h0l1.7-2,2.2-1,7.8,3.2,2.2,2.7,2.6,1.1,3.2-3.7,3.3-.2,8.2-5.7,2.2,1.7h2s2.5,2.5,2.5,2.5l3.6,1.1,1-.6.8,1.3,1.7-.9h0l1.6.5-.3,4.4,1.1.7-.5,2.6.8,1.9-.5,2.6-3,1.7.2,1.8-1.6,2.6,2.7,3.3,4,.3,1.3,1,.3,3.5,2.1,4.5-.8,3.3,3.9,2.3,1.6,3.2,5.7,2.4,2.7,8.1-1.5,1.6-.3,1.7,4.3.3,3.4,2.9,2.4,2.6-.3,5.1,3.3,1.4-3.3,4.1-1.2,2.9.5,1.2-1.9,3.1,2.3,3.6-.2,4-1.1,1.4.4,1.7,3.1,1.6,1.7,2.7-2.7,5.2-2.2,2.4.2,1.2,2,1.8.6,2.1h0l-.5,1.1h-3c0,0-2.7,1.9-2.7,1.9l.4.5Z"/>
    <path id="BT-34" d="M300.9,274.5l2.3-2.1h5.1c0-.1,3.4,3,3.4,3l.6,1.9,2.2,2.3,2.9-.4,1.2,1.2,3.8-2.6h3.3s.8-1.4.8-1.4l3.2.4,2.5-1.4.9-2h0l1,4.5,1.6.9v4c0,0,1.9,4.1,1.9,4.1l-.2,2.1,3.4,2,.3,4.4,2.1,2.6-.6,5.7-2.6,5,.4,5.8,3.1,1.9.9,7.1,6.3,1.4,1.6,2.2-.7,5.1,1,1.4v2.2c-.1,0,4.1.6,4.1.6l1.9,1.3.8,2.9,5,3.1h0v1c-.1,0-2.2,1-2.2,1l-.9,3.8.5,1.5-5.7,3.5-3.3-2.1-2.2,1.3v-1.3c-.1,0-5.8,2.9-5.8,2.9h-4.5c0,0-2,2.6-2,2.6l.5,1.6-1.2,1,2.6,7.1h0l-2.4-.4-14.6,1.6-19.2.8h0l.7-3.1-.7-4.7-1.7,1.1-.7-.8-2.4,1.5-3.4.2-.5-2.2-3.3-2.3-4.2-.2-4.1-1.5-.3-4,.6-1.1,4-3.9,1.3-3.8,2-1.2,3.1-3.8-1.6-.8-.7-2.8,1.6-2.3-.8-2.6.5-2.7-1.3-.5-.7-1.4.8-3.3-5-3.9-4.2,2.1-2.8-1.1-1.3-2.1-2.1.8-.3-1.7-1.8-1.4h-1.5s-.3-1.1-.3-1.1l-2-1.2-.4-2.6h0l2.1-2.3h2.5c0,0,.1-2.2.1-2.2l1.9-.4,1-1.1,5.4,2.4,3.4-1.1,2.9.8-6.2-8.6,4.1-2.5,7.7-2.2,3.9-3-.4-5.7,3.3-7.5-1.4-3.8h-.1Z"/>
    <path id="BT-41" d="M476.5,257.2l1.4.5,4.9-.8,1.3-3.1,3.8-.4.3,6,2.9,1.8.5,3.9,1.8,2.1-1.2,5.2,2,3.8-.2,3,2.8,2.8,3.6,1.5,2.6,2.3-.2,1.9-2.6,1.1-4.6-1.4-4.5,1.8v.8c0,0,3.8,2.8,3.8,2.8l.6,3.5-1.8,3.4-.2,2.2-1.8,1.2h0l-7.2-.5-3.3-1.6-2.7-7.6-2.3-1-1.5,2.2v12.4c0,0-2.7-.9-2.7-.9l-1.4.9-1.7-.5-4.4,1-3.7,1.4-2.5,2.3-5.1,7.4-4.3.4-2.1,1.4-1.4-.5-2.3,1.3-1.5-.2-8.1,3.8-6.2-2.1-.6,1.5-1.5.9-3.4.9-2.3,2-3.9,1.4h0l-.3-1.6,1.7-1.1,2-4.7-3.3-2.1-2.8.2v-2.6l-1-.5-.7-2.6-3.8-2.3,1.6-.6v-3.2c0,0-1.9-3.4-1.9-3.4l-2.3-.9-1.1.4.3,1.4-5-.4-2.4.9-2.5-.7h0l.7-3.3,1.9-.7-.6-2.4.6-4.1,2.7-2.5,1.1-2.2,3.2-.9.6-1.2,1.5-.3.9-1.5,1.9-.5,3.3-2.7v-2.4s-1.7-1.9-1.7-1.9l.3-1.5-2.1-1.4h-2.5c0-.1-2.6-3.7-2.6-3.7l-3.1-1.1,1.5-1.7-.7-2.2h0l5.2.5,3.9,2.2,6,1.4,2.8,1.6,1.5-.2.6-1.1,3.4-.7,4.2-5.1h4.8c0,0,3.1-2.2,3.1-2.2h2.3c0-.1,6.5-2.8,6.5-2.8l3.9.3,2.5-5h0l5.6-1.3,2.8.6,3-2.2h2c0,0,1.4,1.6,1.4,1.6h2.8c0,0,1.1.8,1.1.8l3.6-.5,2.4,1.8Z"/>
    <path id="BT-42" d="M388,237.2l2.8,3.2.5,2.9,2.5,1.4v1.6c0,0,3.6,3.8,3.6,3.8l2,3.4,2,1,.7,2.6,1.1,1.1,1.3,4.4-3.4,4.7h0l.7,2.2-1.5,1.7,3.1,1.1,2.6,3.5h2.5c0,.1,2.1,1.5,2.1,1.5l-.3,1.5,1.7,1.9v2.4s-3.3,2.7-3.3,2.7l-1.9.5-.9,1.5-1.5.3-.6,1.2-3.2.9-1.1,2.2-2.7,2.5-.6,4.1.6,2.4-1.9.7-.7,3.3h0l-2.5,3.1v2s1.3,2.2,1.3,2.2l-2.6,1.7.5,1.4-1.2.2-.5,3.6-1.8,1-2.9-.2-.9,1.5-.9-.4-2.8,2-6.8,1.3-.2,1.7-1.8,1.3-1.6,4.7-2.9,2.8-.4,3.2-2.5,1.4.6,3.9h0l-5-3.1-.8-2.9-1.9-1.3-4.3-.6v-2.2c.1,0-.9-1.4-.9-1.4l.7-5.1-1.6-2.2-6.3-1.4-.9-7.1-3.1-1.9-.4-5.8,2.6-5,.6-5.7-2.1-2.6-.3-4.4-3.4-2,.2-2.1-1.9-4.1v-4c0,0-1.6-.9-1.6-.9l-1-4.5h0l-.4-.5,2.7-2h3c0,0,.5-1,.5-1h0l7.5,1.6.8-1.6,1.4-.4,7.2-6.5,8.5,1.5.9,3,2.2,2.7,10.2-6.2,2-.3,2.4-4.7.2-3-2-2.2-.6-2,.9-2.2,2.6-2.3,4.1-1.9-1.5-3.3,2.3-4.9Z"/>
    <path id="BT-43" d="M394.3,305.7l2.5.7,2.4-.9,5,.4-.3-1.4,1.1-.4,2.3.9,1.8,3.4v3.2c0,0-1.6.6-1.6.6l3.8,2.3.7,2.6,1,.5v2.6l2.8-.2,3.3,2.1-2,4.7-1.7,1.1.3,1.6h0l-1.9.5-2.1-1.9-2.6,2.3h-2.1c0-.1-.5,2.4-.5,2.4l-3.6,4.3.7,5.3-2.9,4.9-1.8.4-2.3,3v5.6c0,0-1.5.9-1.5.9l.6,1.3,2.8,1.5h-.9c0,0-3.3,5.6-3.3,5.6l-6.4,3.6-6.1-.9-4.8-3.2-12-1.1-7.4.5-4.9-1.9-1.1.2-5.2,6.4-6.2-1h0l-2.6-7.1,1.2-1-.5-1.6,2-2.6h4.5c0,0,5.6-3,5.6-3v1.3c.1,0,2.3-1.3,2.3-1.3l3.3,2.1,5.7-3.5-.5-1.5.9-3.8,2-1v-1h.1l-.6-3.9,2.5-1.4.4-3.2,2.9-2.8,1.6-4.7,1.8-1.3.2-1.7,6.8-1.3,2.8-2,.9.4.9-1.5,2.9.2,1.8-1,.5-3.6,1.2-.2-.5-1.4,2.6-1.7-1.3-2.2v-2s2.5-3.1,2.5-3.1Z"/>
    <path id="BT-44" d="M387,158.7l.4,2.5h2.8c0,.1,3.1,3.1,3.1,3.1h2c0,0,1.4,1.6,1.4,1.6l2.5.2,2.5,1.4,3,.2,2.1,4.7h0l-2.2,2.2-3-.9-1.6.8-2.4,4.4-2.4,2.6-2.3.2-1.2,2.6.7,1.9-.2,4.8-1,4.8,1.1,6.2-1.9,4.2.8,1.9-.2,2.5-2.5,4.4,1.8,5.4-1.7,2.7,1,4-.5,3.5,1,2-2.3,4.8h0l-2.3,4.9,1.5,3.3-4.1,1.9-2.6,2.3-.9,2.2.6,2,2,2.2-.2,3-2.4,4.7-2,.3-10.2,6.2-2.2-2.7-.9-3-8.5-1.5-7.2,6.5-1.4.4-.8,1.6-7.5-1.6h0l-.6-2.1-2-1.8-.2-1.2,2.2-2.4,2.7-5.2-1.7-2.7-3.1-1.6-.4-1.7,1.1-1.4.2-4-2.3-3.6,1.9-3.1-.5-1.2,1.2-2.9,3.3-4.1-3.3-1.4.3-5.1-2.4-2.6-3.4-2.9-4.3-.3.3-1.7,1.5-1.6-2.7-8.1-5.7-2.4-1.6-3.2-3.9-2.3.8-3.3-2.1-4.5-.3-3.5-1.3-1-4-.3-2.7-3.3,1.6-2.6-.2-1.8,3-1.7.5-2.6-.8-1.9.5-2.6-1.1-.7.3-4.4-1.6-.5h0l1.7-3.8,1.3-.5,2.6,1.2-.2,1.8,1.1.5,3.5-.2,5.4,2v2s.6.2.6.2l2.3-.4.6-2.4,1.7-.2,2.8,2.1,1,2.7,2.3,2,1.5-.3,1.5-3.3,3.7-.5,1.9,2.3,2.2.6,1.2,2.1,1.8.3.5-1.9,4.1.3,1.5,1.3,4.9-.2,2.2,1.3,2.8-1.5,3.5.9,5.6-4.7,5.3-2.5,4.1-7.8,3.4-.4.8.6Z"/>
    <path id="BT-45" d="M415.7,329.4l3.9-1.4,2.3-2,3.4-.9,1.5-.9.6-1.5,6.2,2.1,8.1-3.8,1.5.2,2.3-1.3,1.4.5,2.1-1.4,4.3-.4,5.1-7.4,2.5-2.3,3.7-1.4,4.4-1,1.7.5,1.4-.9,2.6.9v-12.4c0,0,1.5-2.2,1.5-2.2l2.3,1,2.7,7.6,3.3,1.6,7.2.5h0l-1.9,1.6,1,6-1.7,4.3,2,7.6,1.5,1.4,5.2,2-.4,3.5,3.6,1.9.4,4.6,2.2,1.6v2.3c.1,0-1,1.5-1,1.5l.9,6.5-.7,2.4-1.9,2.1v2.4l-.8.7-5.9,2.8-9.7-1.7-3.1-1.9-4.5-4.6-7.8-3.5-5.2.7-3.2,5.9-4.4,4-11,6.5h-4.4c0,.1-1.5,1.2-1.5,1.2l-9.3-2.7-4.9,2.7-14.4,2.5-2.1-.3-10.3-7.2h0l-2.8-1.5-.6-1.3,1.6-.9v-5.6c0,0,2.2-3,2.2-3l1.8-.4,2.9-4.9-.7-5.3,3.6-4.3.5-2.6h2.1c0,.1,2.6-2.2,2.6-2.2l2.1,1.9,1.9-.5Z"/>
    <path id="BT-GA" d="M198.2,206.4l-3-.5-.9-1.4-5.2-2.2h-2c0-.1-4.3-3.9-4.3-3.9l-1.6-.3-3,1.8-3.7.2-2.4,1.3-2.8,5.5-4.9,4.2-1,2.6-2,1.2-1.2-2.4-2.2-.8-2.6,3.7-1.3.5.7,1.5-2.3,1.4-3.6.4-3.9-1.5-1.5.7-2.3-.3-1.2,2h0l-4.9-1.6-1.9-1.8.4-1.3-1.8-5.1h-3.9s-3,4.6-3,4.6l-3-2.3-.8-1.7,1.8-1.2v-3.4s.9-1.9.9-1.9l-1.3-3.4,3.4-4.4,2.4-1.6,1-2.5,3.7-1.2.4-1.1-4.9-1.4-3.6-2.5-.6-1.6.5-4.2-1.4-3.1-3.2-.6-3-3-4.4-1.2h0l2.9-1.9-1.5-3.7,2-1.3,1.3-3.1,3.2-3.1.5-2.6,3.4,1.1,1-.4,1.9-2.2v-2.2s3-1.5,3-1.5l3.2-4.5.4-2.5,2.4-1,1.9.8,2.1-1.6,2.7,1.1,3.7-2.8,6.6,2.1,1.1-3.3.9-.2,1.9,1.3,2.3-1.8.6-2.2-.8-2.6,2.7-1.7,1.5-2.9,1.2,1.8,2.9-.2,1.8,2.6,3.5-.7,5.1,8.4,1.8.4,1.5-1,3-.2-.3,2.4.8,1,2.3-3.2,2.9-.4,2.7,3.1,3.5,1.8.8,3.1,1.8,1.6,2.9-3.4,3.7.2,2.9,3.5h2.2l.6-2.3-1.1-2.3,1.1-2.8-1.2-2.5,1.4-.5,5.6,1.2,3,2.3.2,2.6,7.2,3.5h2.8s1.9-2.6,1.9-2.6l3.4-.2,1.8,5.2,3.9.9,4.5,4.9,1.7,6,2.2.3,2.1-1.6,3.3.4,3.8,1.6.9,1.3h0l-4.5,7.1-5,.2-1.7,1.5v3.2s1,2.1,1,2.1l-.8,1.4,1.1,2.4.3,4.4-1.1,2.1-2.1-.9-1.5,1.2-3.3-1.4-2.1,2.3-1.4.2-3-1.9-3.2-6.7.7-2.8-3.1-3.3-8.2,1-1.7,1.2-.6,3.5-6.8,10.4-1.5,4.2-3.4,3.2-3.8-1-5.2,1.2-.7,5.9Z"/>
    <path id="BT-TY" d="M436.6,252.2l2-.2.4-1.2,1.2-.3,2.7,1.7.5,2.9,1.2,1,1.8.4,5-1.6.4,1.5h0l-2.5,5-3.9-.3-6.5,2.7h-2.3c0,.1-3.1,2.4-3.1,2.4h-4.8c0,0-4.2,5.1-4.2,5.1l-3.4.7-.6,1.1-1.5.2-2.8-1.6-6-1.4-3.9-2.2-5.2-.5h0l3.4-4.7-1.3-4.4-1.1-1.1-.7-2.6-2-1-2-3.4-3.6-3.8v-1.6c0,0-2.5-1.4-2.5-1.4l-.5-2.9-2.8-3.2h0l2.3-4.8-1-2,.5-3.5-1-4,1.7-2.7-1.8-5.4,2.5-4.4.2-2.5-.8-1.9,1.9-4.2-1.1-6.2,1-4.8.2-4.8-.7-1.9,1.2-2.6,2.3-.2,2.4-2.6,2.4-4.4,1.6-.8,3,.9,2.2-2.2h0l.9.3,1.2,2.4-.8,3.2.8,1.1,8.1,3.4,1.4,3.7h2c0,0,3.6-2.4,3.6-2.4l1.1,1.8,3.3.8v2.8c.1,0-1.5,3.1-1.5,3.1l-4.6-1.1-1.7,1.8-1.3-.7-.6.7,3,5.8,1.1.4,3.8-1.3,4.3,3.3.4,4.8,1.2,1.1v1.2c0,0-1.5,1.8-1.5,1.8l.3,3.2-1.6,5.9-3.3,1.8-1.9,3.3-2.7,1.4-1.3,3.1-.4,2.1,2.9,3.4-2.2,3.2,2.6,3.3v1.8c0,0,2.2,2,2.2,2l2.3-.3,1.1,3.4,4.3,3.2.5,2.4.9.3,2.1-1.3Z"/>
  </g>
</svg>