<?xml version="1.0" encoding="UTF-8"?>
<svg id="Layer_1" xmlns="http://www.w3.org/2000/svg" xmlns:amcharts="http://amcharts.com/ammap" version="1.1" viewBox="0 0 512 512">
  <!-- Generator: Adobe Illustrator 29.1.0, SVG Export Plug-In . SVG Version: 2.1.0 Build 142)  -->
  <g id="_x3C_defs">
    <amcharts:ammap bottomLatitude="4.021968" leftLongitude="114.121139" projection="mercator" rightLongitude="115.370668" topLatitude="5.044270"/>
  </g>
  <g>
    <path id="BN-BE" d="M300.4,343.7l-14,18.6,1.9,2.9,3.8-3.8,4.3-1.1,3.8-6,3.8-.8.3,3.3-10.4,20.6-9.3,10.2-.6,3.3-2.4,1.6-.8,4.1-2.1,1.6.8,2.5,5.3-1.7.8,2.5-3,6.8-2.6,1.9-.6,3-6.5,3.2-1,2.9-10.7,10.6-9.7,14.1-16.7,10.5-10.5,3.6-11.6,2.2-6.4-.5,2.6-4,3.5-1.3.3-3.5-1.6-3.3-4.5-3.5-12.6-1.4-2.4-5.7-5.9-5.2-5.6-2.1.6-4.6-2.1-2.9-3-.8,1.6-4.9-2.7-3.8-4.5-2.1-5.9-4.8-7.5.9-7.7-9.5-1.4-5.7-4-7.9-2.6-2.7-1.3-7.8-3.7-5.1,1.3-9.3-2.1-2.7v-1.7l-3.5-.8-1.3.8-.2,1.9h-3l-4,7.6-8.3-4.6-4.3.5-4-1.1-3.7,1.1-2.4,3-5.6-2.4-8.9,1.1-3.5-2.4-.5-2.9,2.7-17.7,3.7-8.9.3-4-9.6-6.2,3.5-11.2-1.9-7.9-8-14.7v-4.4l-8.1-16.8-15-11.1-5.4,1.4-1.6-5.1-9.6-11.1-24.9-3.9-2.9-2.1,13.2.9,28.1-1.4,12.5-2.3,21.8-6.3,1.4.7.8-1.4,28.1-10.5,19.6-6.2,2.4-2.2,5.9-2.2,16.7-9.4,13.9-9.7h0l2.6,4.4,2.1,7,1.4,6.3-.5,4.2,15.3,20.4,11.3-3.5,8,13.4-.5,7.3-2.1,4.9.2,4.5,9,5,45.8,47.6,8.3,28.6,29.2,11.1Z"/>
    <path id="BN-BM" d="M379.1,112.1l-6.2,2.6,1.3-2.9,4.1-2.4,2.1.6-1.3,2.1ZM374.7,108.9l-.8-1.9,2.8-3.3.8,3.2-2.8,2.1ZM377.4,103.7l-.6-1,1.7-3.4.5,1.4-1.5,2.9ZM382.2,79.5l-.7-.9,1.5-2.4.7,1.1-1.6,2.1ZM395.1,65.8h7.3c0,.1,2.4-1,2.4-1l4.9,7.7-1.4.7-14.2-1.4-5.4-4.5-1.1-4.3,1.2-1,6.1,3.9ZM405.6,54.1l6.9.4-16.8,1.4,6.8-2.3,3.1.5ZM379,52.5l.5,2.4,2.4.7,11.4-.3,1.7-1.7v.8l-1.3,2.2-9,4.7-1,1.8v5.1c.1,0-1.2,1.6-1.2,1.6l-9.3-.4-1.2,3.3,3.7,3.6-2.5,1.1-.2,1.7,1,1,2.4-.5,1.1,1.4-1.2,2.2-6.8,5.3-8.6,16.6-8.5,5.5,6.1-1,3.7-3.2,4.3-6.6,1.9,1.3,1.2,5.9-14.1,10.3-.6,3.7,2,4.2-3.5,1.7-.3,1.4,2.3,3.5-4.8,7.1-1.1,4.1-12.8-2.1-20.1.4-6.6,4.2-7.8,2.6-3.4,3.3-7.2,16.2-19,5.2-5.3,3.3h0l1.4-22.9,8.9-20.8,4.2-20.5-1.1-17.2h0l2.2-1-2.7-4.2.4-2.7,1.6,4.8,2.1-1.3.9,1.6,1.7-1.4-1.7-2.8-3.8-1,.2-.8,3.4,1.1,2.3,3,1.3-.2,1.6-1.4-.6-1.2,1.1-.4.9,1-.2-1,3.8-2.1,2.9-4.1,2.2,1.8,1.6-2.4-.4,2.4,2.1-.6.7-2.9,1.3,1.4,1.9-.6-.4-2.3,1.6.2-.3,1.8,1.3-.4,21.1-9.9,22.8-8.9,23.6-8.5,1.5.7Z"/>
    <path id="BN-TE" d="M421.9,104.5v3.1l2.1,5.5-.2,1.1h-2.8c0-.1-.6,4.5-.6,4.5l3,1.4,5.5-.5.2,1.7,5.2.3-1.1,3,1.7,4.1,3.8,4.5,17.1,13.3v16.3c-.1,0,4.4,7.4,4.4,7.4l5.2,5.5-2.7,13.1,1,1.5,5,.9,1.1,3.9-2.7,9.3,7.7,6,2.9,3.9,1.5,10.1-.5,3.8-7.1,20.2,1.1,2.7-1.5,3.8,3.1,11.1-.8,5.7,2.3,5.3-3,8.7,1.4,5.2,8.3,8.5,1.1,5.6,8.2,3.3,1.3,2.1,2.3.6,5.8,12.7,5.1,3.2-3.1,8.9-3.2,1.8-1.7,3.1-5.1,3.8h-2.5c0,.1-5.5-6.5-5.5-6.5l-3.4-2.4-1-1.8v-4.9c.1,0-6,.1-6,.1l-2.3-2.2-5,3-4.5-1.7-1-1.1-1.3-8.8-12.3,1.4-9.1-3.5-5.9.3-9.1-4.1-14.1,3.5-10.1-6.3,3.5-6.4.9-6.1-4-7,2.2-11.1-1.8-4.2v-5.4c-.1,0-3.7-7.3-3.7-7.3l.8-8.5-5.3-9.3-1.6-9.1-5.8-7.6-6.1-16.1,4.2-5.6-5.5-3.7.7-3.1h2.4v-1.1l-1.6-1.1-.3-4-3-3.3,3.5-2.1-1.6-1.6-1.3,1.1-1.5-1.1,2.2-7.1-1.8-1.7,3.1-3.2-3.9-2.5-2.4,1.1-1.6-4.1,1-2.2,3.3-1.6-1-4.8,1-2.3,8.4-6-.7-2.3h-5.2l-2.4-2.1-.6-2.1,1.4-5.6h3.1c0-.1,11.5-8.9,11.5-8.9l5.8-1.5,2.7.7,3-2.5,2.9,1.5,2.7-.3.2-2.4-1.4-2.4.6-.7,2.3,1v-1.4c-.1,0-2.8-2.2-2.8-2.2l-2.7-.5-3.6-4.5-.8-3,1-2.7,2.8-.6,3.1-2.4,15.7-1.9Z"/>
    <path id="BN-TU" d="M281,94.8l1.1,17.2-4.2,20.5-8.9,20.8-1.4,22.9h0l-1,.9,1.1.9,4.1,1.4v3l-2.6,3.5.2,3.5,4,1.1,1.2,4.2,4.8,1.2-1.6,4,.3,2.5,1.3,1.1-.5,8.7,3.5,4.4.9,7.7-1.3,1.9.5,1.3,2.9,1.4-1,1.9,1.3,3-.6,6.7,2.2,11.2-1,21.7,1.4,8.2,2.4,4.6.6,6.2,6.7,4.1,3.5-.6,1.6,1.1,5.1-.2,4-1.9,1.9.5,1,2.7-.6,6-1.8,3.5,1,3.6-2.7,16.5-4.5,7.6-4.9,5.4-.8,3h0l-29.2-11.1-8.3-28.6-45.8-47.6-9-5-.2-4.5,2.1-4.9.5-7.3-8-13.4-11.3,3.5-15.3-20.4.5-4.2-1.4-6.3-2.1-7-2.6-4.4h0l22.9-19.5,7.2-1.6,2.1-2.3v-2c.1,0-4.3,3.2-4.3,3.2l-1.2-.2,30.6-27.5,35.4-22.8,10.4-7.3,1.8-2.6h1.3c0,.1.3-1.2.3-1.2h1.2c0,.1.3-1.4.3-1.4l1.1.4,1.7-2.8Z"/>
  </g>
</svg>