<?xml version="1.0" encoding="UTF-8"?>
<svg id="Layer_1" xmlns="http://www.w3.org/2000/svg" xmlns:amcharts="http://amcharts.com/ammap" version="1.1" viewBox="0 0 512 512">
  <!-- Generator: Adobe Illustrator 29.1.0, SVG Export Plug-In . SVG Version: 2.1.0 Build 142)  -->
  <g id="_x3C_defs">
    <amcharts:ammap bottomLatitude="10.266326" leftLongitude="102.335249" projection="mercator" rightLongitude="107.630467" topLatitude="14.688294"/>
  </g>
  <g>
    <path id="KH-1" d="M71.1,85.3l4.9,10.8,2.6,2.3,1.5.7h8c0-.1-1.1,4.1-1.1,4.1l-1.3,1.4.9,1.3-.2,1.4-2.2,2.6,3.1,5.7,1.5-1.1,4.3-.5,6-7,5.5,8.8,5,1.9-.3,1.2.6.5-.8.7v1.2h.1l-1,.3.6.9-1.3,2.2.3,1,.4.9.5.7v.9c-.1,0-.2,1.2-.2,1.2l-.5,2.1v.7c0,0,0,1.2,0,1.2h.9c0,.1-.7,1.3-.7,1.3l-.3,1v.7c0,0,0,1.3,0,1.3l1.8,1.8-3.7,3.5-.4,1.1,1.2,1.1h-1.1s0,.9,0,.9l-.7.3.9.7-.3.6,1.2-.4-.2.7.9.8-1,.8.9.5-.3.7-.7.7.4,1,.2.8.8.8v1.3s-.5.1-.5.1l.2,1.5v1.3c-.1,0-.5.6-.5.6l-.6-.5-.3,2.1,1.4,1.3-1.1,1-.9,2.8,2.1,5.5h0l-2,.9-4.1-2.3-12.4-.6-5.2-2.4-1,.9-.7-.9h-2.2s-6.2,1.9-6.2,1.9l-2.7-.4-2.6,2-1.3-.4-.4,1.8-5.8-.4-5.9-2.2-1,.5-9.9-2.9-5.4,3.1v-9.6c0,0-31.5.2-31.5.2h0l.4-2.8-2.6-3.5.6-1.8,2.6-1.8,2.5,1,2.7-.4,1.7,1.1,4.9-1.2,3.5.8,3.4-1.4,1.1-2.4,4.7-.5-4.5-1.9-2.7-2.9,1.3-2.4,2.7-2.3,9.3-4.4,2.7-2.2h1.4c0,0,0-1,0-1l-.9-.8,4.2-6.1,1.4-7.4,1.9-1,1.2-2.2,4.8-3.8,2.6-.3,1.7-1-1.3-3.4.3-3.1,2.1-2.1.2-2.6,1.5-1.6-1.1-2.8,1-.9-.2-.8,1.6-.2-.3-1,1-.5,3.3-.2,1.3-1.7h1.2s.8-1.8.8-1.8Z"/>
    <path id="KH-2" d="M7,160.5l31.4-.2v9.6c0,0,5.5-3.1,5.5-3.1l9.9,2.9,1-.5,5.9,2.2,5.8.4.4-1.8,1.3.4,2.6-2,2.7.4,6.2-2h2.2s.7.9.7.9l1-.9,5.2,2.4,12.4.6,4.1,2.3,2-.9h0l5,2h0l1.1-.6h0l1.3.9,1.1-.8,1.8.3.4.9,2.5.9.5,1.8h1.9c0-.1,1.4,1.8,1.4,1.8l2.9-.5,2,.5,2,1.9,1.3-1.2,1.7,1.2.7.8.8,4.3,3.8,4.7,7.7,5.5,5.7,5.4h0l-3.2,2.2-7.5,2.8h-4.1c0,0-1,2.4-1,2.4l-1.2,1.1v1.6c0,0,1.2.9,1.2.9l.2,1.5-2,.6-1.1,1.1-.5,4.4-.5.7h-2c0-.1-2.4.7-2.4.7l-1,1-.2,2.2,1.4.8-2.6,4.7.4,4.4,1.3,1.9-1.7,2.3,2.6,1.3.4,2.1-1.3,1.3v1.4c-.1,0,.5.7.5.7l-.9,1,1.1,1.9-2,1.6-1.1,3.4-4.5.5-4.8,1.7-5-3-5.3-2.1-3.9.6v-.9c-.1,0-3.5-.7-3.5-.7l.4.8-2.1-.2-.4,1.4-1.7-.3-3.5,2.9-1.9-.7-2,1.5-2.3.6-2.1,2.3-2.2-.8-3.2,2.5-3,.4-.4,2.2-4.4-1-1.2-2.8-1.1-.9-2.6,3.7-1.8.6-.8,1.1-1.8-.4-1,.7-.8-.5-2.8,3.4-3.5-1.5-2.6,4-2.5-3h0l-.3-3.2h-.8c0-.1-.7-2.1-.7-2.1l-1.4-.5-.4.4-1.1-1,.3-1.6-.6-.6h-1.3c0,.1.8-2.2.8-2.2l-1.1.5-3.8-3.2.7-.9-1.7-1.5-.5-1.8-1.7-.3v-2.4c.1,0-2.5-.4-2.5-.4l-3.5-3.7-1.2-.4-2.8.4-1.8-1h0l14.1-2.5,8.2-5.8-.2-26.8-5.2-7.3-4.3-1.4-.6.5-1-.3v.8s-2.3.8-2.3.8l-.7-.3-.6.6.3.7-.7.5-1.8,1.7,1,1.5-.4,1.6.6.2-.9,2.6-.9.7-1.6-.6-1.3.6-.6-.7h0l-3.4-1.1-3.3-6.6-2.4-.8-.2-1.4-1.5-1.9v-1.4c.1,0-1.7-1.9-1.7-1.9l-.5-4.1-2.2-3.6-.3-2.5-1.7-1.4,1-3.5-1.4-3.3,1.6-7.6-.5-4.9Z"/>
    <path id="KH-3" d="M245.6,280l2.7-.6.3-1.1,1.3-.6,4.3.5v-.8c-.1,0,.7,0,.7,0l3.7,4.4,4.8-.6,3.7.4v1.5s1.3.3,1.3.3l1.9-1.6h1.2s1.7.9,1.7.9l.8,1.5h1.2c0-.1.7.6.7.6l.9-1.1-1.2-4,.5-2.2-2.3-2-.7-2.9.5-1.4-1.9-.5-1.7-2.4v-.9c.1,0,2.6-1,2.6-1l1-1.9,2.6.8,2.2-1,1.6.7,2.2-.6,1.7,1.6h3.7c0,0,1.3,1.4,1.3,1.4v1.1s1.5,0,1.5,0l1.8-1,1.3-4-.4-.5,1.4-2,.5-2.9.8-.5-.3-1.8,1.3.6.4-.8h1.4c0,.1.9-.5.9-.5l1.2,1.2.4.3.8,1.1.3-.5.7.5v.4h.1l1.9,1.4,2.4-.6,2.2-3.6,11.9.2,5.9-.9h0l3.2,9.5.7,5.7-.5,2.6-2.8,1.6.2,3,3.2.9h4.9c0,.1,1.4,5.3,1.4,5.3l.8.2,1.1-1.9.6.7.7-.4.4.7h1.1c0,0,1.5-.3,1.5-.3h.5c0,0,1.5-.8,1.5-.8l1.5,2.4h2.2c0,.1.9-.8.9-.8l.4.7.8-.3v1c0,0,.3.5.3.5l1,.9,1.2,1.4-.2,1.5h1.2l1.5-1-.3,1.2,1.7,1.3-.5.9.4,1.1-1.7,1.4.9.6.2.3,1.6.7.4.7.9.3,1.7-.7h.6c0,0,.5,0,.5,0l.8,1.9h1.1s.3.4.3.4l.4.4.8-.6.9,1.4,1.5.5.8,2.7-1,1,.2,2.5.2.6.3,1.4,1.9-1.8,2,.4.2.8,1.2-1,1.9,1.4,5.4-1.2,4,1.5,2.3-.4,2.1-2.3,1.1.4h0l5.2,10.2h-1.9c0,0-.6,1-.6,1l-.2,1.7.9,1.5-1.3,1.5-1.7,4.7,2,5.1,1.5,1.5-.3,1.9h-1.6c0,0-4.7-2.5-4.7-2.5l-8,2.1-2.8-2.9.3-.7-.6-.7-1.6-.8-3.9-.3-1.9-2.2-1.9.4-1.3,1.2-1.9-.8h-2.4c0,0-1.9-2.1-1.9-2.1l-2.7-1.6-4.1,1.2-.7,2,.5,2.2-1.2,2.2-1.9,1.2-.5.8.4,1.3-2.6,2.9-6.8-3.6-4.2,2.8-.8,2.7-1.8.2v1.9h0l-1.4-.7-.5-1.4-1.5-1.1-1-3.3-2.9-2.5-1.2-3-1.9-1.8h-7.9s-14.6-2.2-14.6-2.2l-1.9,1-2-1.5-1.3-2.3.7-.8-.5-1.4.8-.6-1.3-2.1-1.4.7-2.7-1.8-1.8.3-1.5-1.6-4.2,1.3.3,1.2-1.9.5-1.4,2.7-5.4,2.8-1.3,1.4-2.3.6.7,1.5-.4,1h0l-3.7-.6-1.8.7-1.3-1.5-3.6-.2v-3.9c0,0,1.6-1.5,1.6-1.5v-.8c-.1,0-2.6-3.2-2.6-3.2l-3.2-.5-1.2-2.4-2.7,2.2-.9-1.7-1.4,4-2.8,2.6-1.8-1.5-1.7.2-1.7-1.3-.3.7-1.8.2.3-4.4-1.5-1.7h0l1.1-5.7,1.3-.6,1.4-3,2.3-.4.3-2.2.7-.7-.7-1.3.5-1-.4-1.7-1-1.4h-.9c0,0,1.6-5.9,1.6-5.9l1.5-2.2v-4.2c-.1,0-.4-.7-.4-.7h-1.3c0,0,.4-1.5.4-1.5l-1-.3-.5-1.2Z"/>
    <path id="KH-4" d="M196.9,242.3l5,2.4.4,4.1-1.3.6.6,1.5,2.2.8-1.7-1.7,1.1.3,2.4,2,2.3.9,2.7-.4,1.2-2.3-.5-1.5,3-2.1,5-2,3.1-.5,6.4,2.6,4.7,2.9,7.1,1.8.9,1-1.2,3.5,2.4,1-1.2.7.7,1.6h.7s-.6.7-.6.7h.6c0,0,.6,1.5.6,1.5l1.2-.3.5,1.8-.5,3.9,2.2-1.2.6-1.7.9,2.9-.9,1.5.2,1.1-2.9,1.7-.9,2.1-.2,1.8,2,4.4h0l.5,1.2,1,.3-.4,1.6h1.3c0,0,.3.6.3.6v4.2c.1,0-1.4,2.2-1.4,2.2l-1.6,6h.9c0,0,1,1.3,1,1.3l.3,1.7-.5,1,.7,1.3-.7.7-.3,2.2-2.3.4-1.4,3-1.3.6-1.1,5.7h0l-1-.8-2.3.6-.6.8-.7-.7-.8.6.8,1.4-.2,1.4,1.2,1.3-4.3,1.2h0l-3.1,1.7-1.5-.6-1.5,1-2-.7-2.9.6-1.2,1.2-1.4.2-4,4.7h-1.5s-.4.5-.4.5h-4.3c0,.1-2.2-1.8-2.2-1.8l-8.4-1.2-5-5.7.2-2.5-1.3-2.4-4.3-3.2.2-1.4-1.2-2.1.7-2.8-.5-1.7-.7-1-3-.9-1.9-6h0l-.2-1.8-1.2-1v-5.5s-1.2-1.1-1.2-1.1l.8-6.3.8-1.7,2.8-3,4.3-1,1.9-2.2,2.9-.3,2.3-2.8,1.3-4.2,2.2-1.8,1.6-.4-1.2-3.4.9-6.2-2.9-10.6Z"/>
    <path id="KH-5" d="M181.8,295.7l1.9,6,3,.9.7,1,.5,1.7-.7,2.8,1.2,2.1-.2,1.4,4.3,3.2,1.3,2.4-.2,2.5,5,5.7,8.4,1.2,2.2,1.9h4.3c0-.1.4-.7.4-.7h1.5s4-4.7,4-4.7l1.4-.2,1.2-1.2,2.9-.6,2,.7,1.5-1,1.5.6,3.1-1.7h0l1.3.5v2s-6.1,15.3-6.1,15.3l-.9,4.4.2,3.3-1.6,6.3-.6,5.7,2.1,1.4,1.1-1.5,1.2.8,1.7-1,1.5,1.1,1.3.3.3-.7,1.3,1h.5s1,0,1,0l.9-.2-1,1.9-4.7,5.1h0l-1.9,2.5-.6,2.5-2.1,13.3v6.7s-4,.4-4,.4l-.8.7-9.1-2.7-2.2-2.3-5.2.7-4.7-1.4h0l-1.2-1-.9,1.1-1.8.5-2.5-.8-2.8,3.4-6.2,1.1h-3c0-.1-2.7-1.5-2.7-1.5l-2.3-3.6-1.4-.7h0l-4.1-5.3-.2-3.4-1-2.9,1.4-2.2v-3s-1.8-3.7-1.8-3.7l-3.4-2,.3-1.5-1.1-3.2,2.2-2.3-1.1-3.5-2.7-.6-2.2-2.7-6.1,1.3-1.1-1.9h-1c0-.1-.5-1.7-.5-1.7l-4.8-1.9.3-.6-4.3-3.8-2.3-.4.7-5.3-2.7-4.1.9-2.8-.9-2.2,1.8-1.7v-1.1s-.9-.7-.9-.7v-3.8s4.2,1.3,4.2,1.3l2.8-.7h0l1.7-.5-.2-1.3,1.8-2.3,2.7-1.2-.3-3.2,2.1-1.1,3.3.7,1.8,3.2h2.5c0,.1,2.3-1.9,2.3-1.9h1.7s-1-3.4-1-3.4l.7-1.1h1.5c0,0,.4-1.5.4-1.5l1,.2.9-3.8-.4-1.6h1c0,0,1.1-.8,1.1-.8l2.7.4.6-.7,3,1.2v-1.5s1.8-2.3,1.8-2.3Z"/>
    <path id="KH-6" d="M308.8,163.1l1.3,3.9-.6,3.9.3,8.8,1.9.8,1.7,1.9.2,2h0v2c0,0,1.5,5.5,1.5,5.5l2.9,2.2,1.2,1.7-1.6,5.1,1.8,5-.7,2.4,3.3,2.7-.7,2-1.4,1.4.6,1.6,1.6.7,1.1,2.9-1.8,3.2,1.3,2.1-.8,3,.9.6,1.1,2.5-.6,2.5,2,2.8,1,5.2-.5,4.1,1.6,9.3h0l-5.9.9-11.9-.2-2.2,3.6-2.4.6-1.9-1.4h0v-.4c-.1,0-.8-.5-.8-.5l-.3.5-.8-1.1-.4-.3-1.2-1.2-.9.6h-1.4c0-.1-.4.7-.4.7l-1.3-.6.3,1.8-.8.5-.5,2.9-1.4,2,.4.5-1.3,4-1.8,1h-1.5c0,0,0-1.2,0-1.2l-1.3-1.3h-3.7c0,0-1.6-1.7-1.6-1.7l-2.2.6-1.6-.8-2.2,1-2.6-.8-1,1.9-2.5,1v.9c-.1,0,1.6,2.4,1.6,2.4l1.9.5-.5,1.4.7,2.9,2.2,2-.5,2.2,1.2,4-.9,1.1-.7-.7h-1.2c0,.1-.8-1.4-.8-1.4l-1.7-.9h-1.2s-1.9,1.6-1.9,1.6l-1.3-.3v-1.5s-3.7-.4-3.7-.4l-4.8.6-3.7-4.4h-.8s.1.8.1.8l-4.3-.5-1.3.6-.3,1.1-2.7.6h0l-2-4.4.2-1.8.9-2.1,2.9-1.7-.2-1.1.9-1.5-.9-2.9-.6,1.7-2.2,1.2.5-3.9-.5-1.8-1.2.3-.6-1.5h-.6c0,0,.6-.8.6-.8h-.7s-.7-1.7-.7-1.7l1.2-.7-2.4-1,1.2-3.5-.9-1-7.1-1.8-4.7-2.9-6.4-2.6-3.1.5-5,2-3,2.1.5,1.5-1.2,2.3-2.7.4-2.3-.9-2.4-2-1.1-.3,1.7,1.7-2.2-.8-.6-1.5,1.3-.6-.4-4.1-5-2.4h0l-15.1-6.7-1.4-3.4h0l2.4-2.9.7-2.8,1.3-.4.3-1.6,3.5-4.1.8-.8.4-1.1,2.1-.2.5-.8,4.9-1.5,2.1-4.3,1.9-1.2,2-2.7h1.6c0,0,1.5-1.7,1.5-1.7l.4-.7-.8-.9v-1.5c0,0,.6-1.4.6-1.4l.6.3.5-10.3.7-2,2.7-1.7,4-1.4,1.5-4.3h0l7.7-1.9,6-3.4h1.5c0,.1,1.7-.8,1.7-.8h1.8c0,0,1.4,1.1,1.4,1.1l11-.6,1,2.4-2.6,6.2.3,5,1.1,1.1v1.6c0,0,4.2,6.2,4.2,6.2l1.8,1.7,2.1.3,16.5-10.9,4.1-5.9,8.3-4.4,7.6-8.7,11.5-5.6,4.2-1.2,1.3-1.5Z"/>
    <path id="KH-7" d="M176.7,384.6l1.4.7,2.3,3.6,2.7,1.4h3c0,.1,6.2-1,6.2-1l2.8-3.4,2.5.8,1.8-.5.9-1.1,1.2,1h0v5.8s2-.4,2-.4l2.2,1.1.6.6.7.6,1.8-1.3v1.1c0,0,1.1.1,1.1.1l2.2,3.2,1.8,5.8v3.3c0,0-1.8,3.4-1.8,3.4l1.3.7h4.7c0,0,3.1-1.5,3.1-1.5l3.7-.4,1.5.7,2.2,3.6.9,2.2v3.1c0,0,2,2.5,2,2.5l-2.2,1.5-.2,2.4-3,4.2.2,7.2,3.4.4-.3,3.1.6.6v2.9c-.1,0,.6,1.2.6,1.2l-.6.5h0l-6.3-.8v1s-5.4,0-5.4,0l-.6,2.4-2.2,1.1-.8,3.4-2.2,1-.7,1.9-2.2,2-1.8-2.4-3.7.8-2.3-2.3h0l1-1.2-1-.8v-.8c0,0-1.4.4-1.4.4l.7-1.3-.4.3-.5-.7.3-.6.8.6,1-.6-.7-.5v-1.9c0,0-1.5-.5-1.5-.5l-1.4-1.8v-2.4c0,0-.5-.7-.5-.7l-.9-.2h-7.2c0,.1-1.7-1.3-1.7-1.3l-1,4h0l-2.1-2.1h-2.9s.2,1.3.2,1.3l-1.3-.2-2.1,2-.9-.6-.4-2.3-1.4.9-1.6-.3-3.1,1.6-5-.3-8.5-3.7h-2s-1.7-2-1.7-2h0l1.2-.7h.8s1.1-.8,1.1-.8l1.4-4.5-1-3.6-1.1-.4-2-3.4-.3-2,1.2-1.1v-2.2c0,0,1.1-1.8,1.1-1.8l-2.2-2.9.9-1.1-1.4-1.3.7-2,.8-.5v-3.6c.1,0-1.6-1.4-1.6-1.4h0l5.4-3.9,2.2-2.5h2s.5,1,.5,1l2.3-.4,2.6-1.5.2-1.3-1.5-1.8,1.7-1.2-.7-3.3v-3.8c.1,0-1.6-2.2-1.6-2.2h2.6c0,0,6.4,1.8,6.4,1.8Z"/>
    <path id="KH-8" d="M232.7,319.8l4.3-1.2-1.2-1.3.2-1.4-.8-1.4.8-.6.7.7.6-.8,2.3-.6,1,.8h0l1.5,1.7-.3,4.4,1.7-.2.3-.7,1.7,1.3,1.7-.2,1.8,1.5,2.8-2.6,1.4-4,.9,1.7,2.6-2.2,1.2,2.4,3.2.5,2.5,3.2v.8c.1,0-1.4,1.5-1.4,1.5v3.9c0,0,3.6.2,3.6.2l1.3,1.5,1.8-.7,3.7.6h0l-.5.8.2,1.8-.9.8h-1.3s-1.2,2.9-1.2,2.9l1,1.8-2,.9-.8,1.7.9,1,.6,3.5-.4.6.8,1.5,1.2.5-.6,1.3,1.6.8,1.3-.5,2.4,1.4,1.4-.5,1.4,3.3,1.3.2v1.2c0,0,.9,1,.9,1l1.7,1.1.7-.6.7.8.8-.9,1.8,3.3-3.9,3.2,1.7,6.7.7,6.7-1.8,4.7-1.6,1.4v2.6c0,0-1.1,3-1.1,3l-3.8,4.1.2,5.8-1.3,6.9.6,4.2h0l-3.3-1.1-4.7.4-.2-.7,1.3-1.9-.6-1.4-2.7.5-.5,1.9-2.3.5v1.4c-.1,0-1.1.4-1.1.4l.2,1.1-.7.4h0l-.4-1,1-1.9-1.1-3.3v-2.8s-3.3-.7-3.3-.7l-.5-.9.7-2.1-.5-.7.3-1.9,2.1-4.2v-5.5c.1,0-.5-.3-.5-.3l.5-1.3h-2.9c0,0-.7-1-.7-1l.5-2-.4-1.7-4.4-2.8-.6-1.9,1.2-2.7v-2.9c0,0-1.1.3-1.1.3l-1.7-1.7-1.6-.6-1.6.3-2.2.5h-1.7s-3.3-1.1-3.3-1.1l-4.2,1.6-2.2-1.4h0l4.7-5.1,1-1.9-.9.2h-1s-.5,0-.5,0l-1.3-1-.3.7-1.3-.3-1.5-1.1-1.7,1-1.2-.7-1.1,1.5-2.1-1.4.6-5.7,1.6-6.3-.2-3.3.9-4.4,6.1-15.3v-2s-1.3-.5-1.3-.5ZM242.2,336.8h0l.5.9,2.4-1.8-1-1.2h6.3s-.5,1.6-.5,1.6l2.3,6.1.3,2.8,1.3.9,1.5,5-1.4,1-1.3-.2-2.4.9v3.5c0,0-1.3-.3-1.3-.3l-.7-.6-.8-1.5-1.4-.5-1.1.6-.5,1.8-2.1,1.3-1.6-.3-.5,1.3-3.1-1.8,1-5.2,2.6-.6v-.8c.1,0-.6-1.4-.6-1.4l-1.2.2-.6-1.7-1.1-.2.4-1.7-.5-.4.6-4.3.8-.7-.4-.9,1.2-.5-.3-.7,1.2-.4.3-.8h.8c0,.1-.1.7-.1.7l1,.2Z"/>
    <path id="KH-9" d="M75.3,352.5l-.4.6h-2.5c0,0-.7-2.5-.7-2.5l.7-.2.5.9,2.5,1.1ZM74,358.9l1-2-1.6-.4-.5.4,1.2.8v1.2ZM74.3,353.4h-2c0,0-1-2-1-2v-.5c-.1,0-.9-1-.9-1h-.3s-.4-1.7-.4-1.7l-3.1,1.3v1.6c0,0,2.6,4,2.6,4l-.2,2.4.6,1.2,2.7-2.6,2.4-.4,1.2.5.2-.9h1.7c0-.1.4-.7.4-.7l-1.4-.6-1-.2v.9s-1.5-1.3-1.5-1.3ZM71.8,367l-1.2-1.3.6-2.7-1.6-3.8-1.3-.2-1.8,1,.2-.9-.6-.4-1,2.5,1,2.3-.6,1.5,1.5,3.6-1,1.2.6,2.6-.6.3,1.8,2.7.7-.4,1,.8.8-.6,1.6-4.3v-4ZM176.7,384.6l-4.1-5.3-.2-3.4-1-2.9,1.4-2.2v-3s-1.8-3.7-1.8-3.7l-3.4-2,.3-1.5-1.1-3.2,2.2-2.3-1.1-3.5-2.7-.6-2.2-2.7-6.1,1.3-1.1-1.9h-1c0-.1-.5-1.7-.5-1.7l-4.8-1.9.3-.6-4.3-3.8-2.3-.4.7-5.3-2.7-4.1.9-2.8-.9-2.2,1.8-1.7v-1.1s-.9-.7-.9-.7v-3.8s4.2,1.3,4.2,1.3l2.8-.7h0l-1.5-1.1-1.1-2.5-4-4.9-1.7-.3-1.3.8-1.5-1.3-1.8,1.2-1.1-.4-1.5-1,.5-.5-.3-1.6-2.1-.2-3.6-1.9-.8-.8.8-.7-.3-1.1-2.7-1-3.4-4.1-3-1.7v-1c0,0-2.7-1-2.7-1l-1.6.7-1.5-1.7-4,2.8-3.1-2.1h-.8c0,0-1,1.9-1,1.9l.6,1.7-2.1,1-.2,3-3,1-1.8,3.2-2,.6-2.1-.8-1.4,1.5-2.2-.2-.6,1.8-2.4-.6-3.7,1.9-4.3-.3-13.5-5.3-16.6-1.1-1.7-.8h0v3c0,0,1.9,3.8,1.9,3.8l1.5,1.5.3,3.9,1.3,3.5,2,3.1,1.1,1.7,1.4,1.5,1.1.4,1.1,1.7.7,2.2v9.3c0,0,2.3,3.5,2.3,3.5l-.3,2.5h.7c0-.1,1.5,1.9,1.5,1.9l.8-5.1-1-1.5.5-1.4-.7-2.1,1.3-5.1-1.2-1.2.2-.7,1.6,2-.4,1.4,1.6.3-2.1,2.8.2,2.9,1,1.2v-1.6c.1,0,.9-.5.9-.5l1.2.3,1.3,1.5v.7h-.5s-.3-1-.3-1l-1.5-.7-1.6,7,1.4,1.2-.6.3-1.3-1.2-1.2,1.6.5,1.2.8.5,2.3.9.7-2.6.3,1,3.5-.3.2-2.9h.8c0,.1-.6.9-.6.9l.3,1.2.9-.7-.6,1.3-.5-.2v2.5c0,0,.7,1,.7,1l.3.2.2,1,2.5.9.7.7-.4.7,2.7.8,1.8-1-.2-1.5,1.6,1-.9,2.1-.3.2-1.4-.3-3.5,2.5-.4.4-.4,1.3.4.5.2-.7,1.3,2.2-.5.4.9,4.2,1.2.9,2.6-.6,1.6,5-.8-.4-.5-1.3-.5.3-1.3-.6v.9c-.1,0-1.4,1-1.4,1l-1.2-.2-.3,1.3h-1.7c0,0,.6,1.6.6,1.6l-1.1,1.4.6,1.6-2.3,1.5.7.7,2.3-.7,3.3,7.2.4,4.6-1,1.9-.7.2-.5-.7-.5.5.8.4,1.2,7v3.5s-1.2,1.7-1.2,1.7l.2,2.9,2.3,1.4.9,1.6-.4,1.1-.9-.2,2.3,1.4.4-1h.8c0-.1,2.5,1.5,2.5,1.5v-1.2c0,0,2.9-1.1,2.9-1.1l.4-1.3,1-.2,1.5-2.1,3.3-.8.8,1h1.4c0,0,3.4,1.8,3.4,1.8l1.5,3.1,1.3-1.5,1.7.5,2.1-1.7h1.6c0,0-1.3-6.5-1.3-6.5l3.3-7.9.3-2.7,1.6-1.5.3-1.3-.5-.4-2.2.6,2.2-2.2,1.3-2.5,3.4-2h3.7c0,0,3.7,7.2,3.7,7.2l6.3,1.3v1.1c0,0,1,.6,1,.6l1.5-.8.6-1.7,3.3-3.1,4.6-1.8-1.1,1.3h-1.7s-2.2,1.4-2.2,1.4l-2.7,3-.3.8,1.3.3-.6.5-4.7,1.2,1.5,2.9.2,1.6-.7.9,2.4,3.5,2.7,8.3-.3,3.5-.7,1.3-2.5,1.4-.2,2.9-1.4,1.3.6,1.5,2.4.6h0l6.8-7.6,2.6-8.9,2.9,1.4,9.4-4.9h0l5.4-3.9,2.2-2.5h2s.5,1,.5,1l2.3-.4,2.6-1.5.2-1.3-1.5-1.8,1.7-1.2-.7-3.3v-3.8c.1,0-1.6-2.2-1.6-2.2h2.6c0,0,6.4,1.8,6.4,1.8ZM94.6,429.9h1.5c0,0,1.4-1.2,1.4-1.2l.4-1.6-.7-.3-.8,1.1-.7-.5.4-.6-.7-1.1-2.6.3-.8-1.3.5-.7-.7-2.3.6-.6-2.4-.9-1.3,1.5-2.3-.6-1.2,3.3.5.5.6-.7.8.3v1.9l.9,1,1.4.3.7-.8,1.2.5,1.7,5,1-.7.8-2ZM99.6,439.3l-.2-.7-.9,1.7-1.7-1.1.6-.8-.8-1.1,2-.3-1.1-1.8-1.2.8-.6-.6-1.4,1.4,1.6,4.1h.9s1.2,2.3,1.2,2.3l.8-.2v-1.6s1.4-1.4,1.4-1.4l-.5-.7ZM81,466.6l.3-1.1,1-.4-1.2-.4-.3-.8-1.2,1.9.5,1,1.4.5.3,2.1,1-1.3-1.8-1.6Z"/>
    <path id="KH-10" d="M313.6,184.3h1.7c0,0,4.9,2.3,4.9,2.3h3.5l4.5,2.2,5.7,5,4.8,1.8h2c0,0,3-2.4,3-2.4h2.1c0-.1,1.7-1.2,1.7-1.2l.2-1.7,1.7-2.6.2-3.3,3.6,1.5,1.8-1.1.2-3.3,5.7-7.3v-1.9c.1,0,4.6-1.5,4.6-1.5l8.2.9,1.7-.8.3-1.9,2.3-1.7,2.9.7.9-.8,4.2.7h0l.7,5.7-1,5.3,2.3,5.1,3.6,2.1,1.5,1.8.6,2.1h-7.7c0,0-1,3.6-1,3.6l.2,2.9,3.7,4.8,2.3,1.1,1.1,2.2,2.4,1.1,2.1-.3,8.2,4.7,4.7,3.5,1.3,2.7-.4,4.2-1.6,2.4-4.8,4.3-3.7.7-7.2,6-2.3,4-.4,3.2-3.4,8.3-.4,2.8,1.2,1.4,11.9,7.3,2.1.2,1.5,1.7,2.9,1.1,4,8.9,9.4,2.7,5.3,3.5,3.8,5.7-.9,3.8.6,1.6-.8,1.9.8,2.9h0l-1.6,1.1-5.7,9.7-1.1.4-2.5.3-2.7-2.3-.6.7,1,1.5h-1.4l-1.7-.8-9.3.6-1.1-1.2-2.6,1.1-2-.4-1.3-1.5-1.3.2-.9,1.3h-1.9c0,0-1.1-.5-1.1-.5l-2.1,2.3-2.3.4-4-1.5-5.4,1.2-1.9-1.4-1.2,1-.2-.8-2-.4-1.9,1.8-.3-1.4-.2-.6-.2-2.5,1-1-.8-2.7-1.5-.5-.9-1.4-.8.6-.4-.4-.3-.3h-1.1s-.8-1.9-.8-1.9h-.5c0,0-.6,0-.6,0l-1.7.7-.9-.3-.4-.7-1.6-.7-.2-.3-.9-.6,1.7-1.4-.4-1.1.5-.9-1.7-1.3.3-1.2-1.5,1h-1.2l.2-1.5-1.2-1.4-1-.9-.2-.5v-1c0,0-.9.3-.9.3l-.4-.7-.9,1h-2.2c0-.1-1.5-2.6-1.5-2.6l-1.5.8h-.5c0,0-1.5.3-1.5.3h-1.1c0,0-.4-.8-.4-.8l-.7.4-.6-.7-1.1,1.9-.8-.2-1.4-5.1h-4.9c0-.1-3.2-1-3.2-1l-.2-3,2.8-1.6.5-2.6-.7-5.7-3.2-9.5h0l-1.6-9.3.5-4.1-1-5.2-2-2.8.6-2.5-1.1-2.5-.9-.6.8-3-1.3-2.1,1.8-3.2-1.1-2.9-1.6-.7-.6-1.6,1.4-1.3.7-2-3.3-2.7.7-2.4-1.8-5,1.6-5.1-1.2-1.7-2.9-2.2-1.6-5.5v-2Z"/>
    <path id="KH-11" d="M385.8,167.8l6.5-1.7,6.8,3.6,2.2,2.5,1.8.6,2.3-.3,1.6,1.7,2.5,1.4.7-.4h0l13.1,9.2,2.9,2.8,9.1,2.4,3.1-.5,2.7.5,2.7-1,1.6.6,2.3-1,2.5.2.7,1.3h1c0,0,3.3-3.1,3.3-3.1v-2.6c0,0,1.1-1.1,1.1-1.1l-.2-1.2-.2-1.8-1.6-2-.3-.5.7-2.1,2.8,1.1,1.6-.7.9-1.4,1.1-.2,1.2.6.8,1.7h2.4c0,0,4.2-2.9,4.2-2.9v-2.1l.8-.8,2.4.8,2.1,4.8,4.3-.6,3,3.8,2.2-.4.2-.7.8-1,3.6-1.4,1.3-.6,1-1.6,3.2,3.8h1.7c0,0,1.5-.4,1.5-.4l3.1,1.6,1.5-1.1.2-.9h2.2c0,0-11.1,26.1-11.1,26.1v3.1c.1,0,.9.5.9.5l-.2,1,.8,1.1-1.6.6-.3,2.5,1.7,2.7-1,1.9.7,1.7,1.3.9v1.1s4,3.9,4,3.9l-.2,1.1,1,1.8-.4,3.9.7,1.8-.7,2,2.1,2.8-1,1.2-.2,1.9.3,2.1,1.2,1.2-.5,3.7.9,1.6-2.7,3.5,1.6,2.6-.4,1.6-1,.8.3,1.6-2.2,3.6v2.1c0,0,0,2.2,0,2.2v2s-3.2,2.3-3.2,2.3l-4.1,1.7-1,1.7-1.2.2-1,4.5-1.6.5-2.9-3,.2-1.4-1.3-2-2.7-2.7-2.8,1.2-.8-1.1-2.6,1.1-1.2-.3-3.6,2.8-2.7-.2-2.6,1.7-2.2.5-1.1,2.5v2c0,0-3.5,2-3.5,2l-.9,2.6-1.7-.7-.4,1,.8,1.4-1.7.5-1.5,2.6-3.8,1.6.8.6-2.3,2.3-7,2.2-3.6-1.1-2.3.7-1.9-.5-1.1-1.1-1.6.4-.7-.5h0l-.8-2.9.8-1.9-.6-1.6.9-3.8-3.8-5.7-5.3-3.5-9.4-2.7-4-8.9-2.9-1.1-1.5-1.7-2.1-.2-11.9-7.3-1.2-1.4.4-2.8,3.4-8.3.4-3.2,2.3-4,7.2-6,3.7-.7,4.8-4.3,1.6-2.4.4-4.2-1.3-2.7-4.7-3.5-8.2-4.7-2.1.3-2.4-1.1-1.1-2.2-2.3-1.1-3.7-4.8-.2-2.9,1-3.5h7.7c0,0-.6-2.2-.6-2.2l-1.5-1.8-3.6-2.1-2.3-5.1,1-5.3-.7-5.7Z"/>
    <path id="KH-12" d="M245.1,334.6h5.3s-.5,1.7-.5,1.7l2.3,6.1.3,2.8,1.3.9,1.5,5-1.4,1-1.3-.2-2.4.9v3.5c0,0-1.3-.3-1.3-.3l-.7-.6-.8-1.5-1.4-.5-1.1.6-.5,1.8-2.1,1.3-1.6-.3-.5,1.3-3.1-1.8,1-5.2,2.6-.6v-.8c.1,0-.6-1.4-.6-1.4l-1.2.2-.6-1.7-1.1-.2.4-1.7-.5-.4.6-4.3.8-.7-.4-.9,1.2-.5-.3-.7,1.2-.4.3-.8h.8c0,.1-.1.7-.1.7h0l1,.3h0l.5.9,2.4-1.8h0l-.9-1.2h1Z"/>
    <path id="KH-13" d="M240.6,68.4v.6c0,0,1.9.4,1.9.4l.2,1,2.9-1.5,3.2,1.8,3.1.7.8.9.8.2.3-1h1.4c0-.1,1.2.6,1.2.6l1.6,2.1-1,4-.6.4,1.6,1.3,1.9,3.9v2.4c.1,0,2.6,2.4,2.6,2.4l3.1.5,1-.6,1.3.2,3.4-2.4,1.1-1.6-1-.5.9-.9-.2-1.6,2.4-2.9-.8-2,.8-1,.9.4,1.3-.6.8.5-.2,3.1,1.7,2.7,1.6,1.1.8,4.1.8.5v1.6s.9.8.9.8l.8,2.5,4.7,1.7v1.3s3.5,4,3.5,4l3.3.4,1.7-1.1.4.6,1.5-.4,1.9.8,1.9-1.9h1.3c0,.1,1-1.1,1-1.1l5.6-2.7,2.8,2.3-.2-1.1h1.5c0,0,1.5,2.2,1.5,2.2l.3-.9,1.2.7v1.8s1.1,1.1,1.1,1.1l1-1.9,2.5.8,2.1,2.1,1.9-2.2,1.7,1.3,4.2,1.2-.2,3.8.8,2,10.1,8.4h0l-2.8,1.5h-10.6c0-.1-4.4.5-4.4.5l-1,1.4.3,1.3,1.1.7v1c0,0-1.6.9-1.6.9l-.8-.6-1,.4-1.3-1.2-3,.7-.6,1h-.8s-1.9-2.2-1.9-2.2l-1.8-.7-2.6,2.4-2.4,1.1-.8,2.6.9,2-.4,3.9.9,1.6,1.5.9,1.5,3,1.2,5.4-.6,1.5v4.1c.1,0-.8,5.1-.8,5.1l.3,5.1-2.7,3.9h0l-1.3,1.6-4.2,1.2-11.5,5.6-7.6,8.7-8.3,4.4-4.1,5.9-16.5,10.9-2.1-.3-1.8-1.7-4.3-6.2v-1.6c0,0-1-1.1-1-1.1l-.3-5,2.6-6.2-1-2.4-11,.6-1.4-1.2h-1.8c0,0-1.7.9-1.7.9h-1.5c0-.1-6,3.2-6,3.2l-7.7,1.9h0l.7-2.2-.7-2.2.7-2.1-.5-3.9.6-2.3,2.4-3.4,3.4-2.4,1.5-2.4v-2.7c0,0,3.2-3.3,3.2-3.3l-.9-.5-2.3,1.8-3.2,1.1-1.8-1.8-4.3-.2-1.8-1.9-11.9-1.4.3-.9-.9-2.8,2.1-1.5,1.6-5.4-1.2-1.1v-4s-1.9-2.9-1.9-2.9l.6-1.6-1.9-1.3-1-2.8-2,.2-.5-.7,1-2.3h1c0,0,.4-1.3.4-1.3l.7-1.6.7-2,.9-1.6,1.4-1.4.4-1.6-.7-1.9.8-1.8-1-2.1,1.9-7.1,6.7-7.4-4.4-3.2-1.9-2.6h0v-.6c.1,0,1.5-.2,1.5-.2l.6-2.1-1-2.4v-2.2c.1,0,1.6-6.3,1.6-6.3h0l.7-1.7,1.9-1,3.4,2.1,4.1-.4.2-1.8,6.1-4.6.7.2.8,2,2.4.4,2.3-3.6,1.6,1.2v1.8s1.5-1,1.5-1l1.3.8,1.3-1.7,2.3-1.1,1.6-.2,1.1,1.2Z"/>
    <path id="KH-14" d="M272.9,328.6l.4-1-.7-1.5,2.3-.6,1.3-1.4,5.4-2.8,1.4-2.7,1.9-.5-.3-1.2,4.2-1.3,1.5,1.6,1.8-.3,2.7,1.8,1.4-.7,1.3,2.1-.8.6.5,1.4-.7.8,1.3,2.3,2,1.5,1.9-1,14.6,2.2h7.9s1.9,1.7,1.9,1.7l1.2,3,2.9,2.5,1,3.3,1.5,1.1.5,1.4,1.4.7h0c0,.1-2.5,1.1-2.5,1.1h-3.6s-.2,1-.2,1l-4.8,1.3-.3,1.8-1.2,1.2.7,2.4-1.8,2.1.3,3.1-1.6,5.2v7.6c0,0,1.6,5.4,1.6,5.4h-1.6s-.8-.9-.8-.9l-.9.6.2.8-1.1.9-1.7,4.9,1,5.5,1.9,2-2.8,2.9-.3,3.7-2.3,4.2,1.3,1.1,1.4.2.5,2.1h0l-7.3,2.1-2.7.2h-1.1c0,0-2.1-1.5-2.1-1.5l-2.1.9-2.4-1.7-1.8,4.1-1.9,1.1-1.8,3h-.9c0,.1-2,2.7-2,2.7l-7-3.6-2.5.4-4.7-1.8h0l-.6-4.2,1.3-6.9-.2-5.8,3.8-4.1,1.1-3v-2.6c0,0,1.6-1.3,1.6-1.3l1.8-4.7-.7-6.7-1.7-6.7,3.9-3.2-1.8-3.3-.8.9-.7-.8-.7.6-1.7-1.1-1-1.1v-1.2c0,0-1.2-.2-1.2-.2l-1.4-3.3-1.4.5-2.4-1.4-1.3.5-1.6-.8.6-1.3-1.2-.5-.8-1.5.4-.6-.6-3.5-.9-1,.8-1.7,2-.9-1-1.8,1.2-2.8h1.3s.9-.8.9-.8l-.2-1.8.5-.8Z"/>
    <path id="KH-15" d="M153.2,200.8l9.3,12.3,7.8,8.3,5.5,2.6,2.2,2.6,2.4,5.6h0l1.4,3.4,15.1,6.7h0l2.9,10.6-.8,6.2,1.2,3.4-1.6.4-2.2,1.8-1.3,4.2-2.3,2.8-2.9.3-1.9,2.2-4.3,1-2.8,3-.8,1.6-.8,6.3,1.2,1.1v5.5s1.1,1,1.1,1l.2,1.8h0l-1.7,2.3v1.5s-3-1.2-3-1.2l-.6.7-2.7-.4-1.1.9h-1c0,0,.4,1.6.4,1.6l-.9,3.8-1-.2-.4,1.5h-1.5c0,0-.7,1.2-.7,1.2l1,3.3h-1.7s-2.3,2.1-2.3,2.1h-2.5c0-.1-1.8-3.3-1.8-3.3l-3.3-.7-2.1,1.1.3,3.2-2.7,1.2-1.8,2.3.2,1.3-1.7.5h0l-1.5-1.1-1.1-2.5-4-4.9-1.7-.3-1.3.8-1.5-1.3-1.8,1.2-1.1-.4-1.5-1,.5-.5-.3-1.6-2.1-.2-3.6-1.9-.8-.9.8-.7-.3-1.1-2.7-1-3.4-4.1-3-1.7v-1c0,0-2.7-1-2.7-1l-1.6.7-1.5-1.7-4,2.8-3.1-2.1h-.8c0,0-1,1.9-1,1.9l.6,1.7-2.1,1-.2,3-3,1-1.8,3.2-2,.6-2.1-.8-1.4,1.5-2.2-.2-.6,1.8-2.4-.6-3.7,1.9-4.3-.3-13.5-5.3-16.6-1.1-1.7-.8h0l-1.4-5.2-2.9-3.3-3-6.2,1.4-5.1-.5-3.4,1.2-4.1v-5.9s1.9-2.4,1.9-2.4l3.6-1.1h0l2.5,3,2.6-4,3.5,1.5,2.8-3.4.8.5,1-.7,1.8.4.8-1.1,1.8-.6,2.6-3.7,1.1.9,1.2,2.8,4.4,1,.4-2.2,3-.4,3.2-2.5,2.2.8,2.1-2.3,2.3-.6,2-1.5,1.9.7,3.5-2.9,1.7.3.4-1.4,2.1.2-.4-.8,3.4.7v.9c.1,0,4-.6,4-.6l5.3,2.1,5,3,4.8-1.7,4.5-.5,1.1-3.4,2-1.6-1.1-1.9.9-1-.7-.7v-1.4c.1,0,1.5-1.3,1.5-1.3l-.4-2.1-2.6-1.3,1.7-2.3-1.3-1.9-.4-4.4,2.6-4.7-1.4-.8.2-2.2,1-1,2.4-.8h2c0,.1.5-.6.5-.6l.5-4.4,1.1-1.1,2-.6-.2-1.5-1.1-.9v-1.6c0,0,1.1-1.1,1.1-1.1l1-2.3h4.1c0,0,7.5-2.9,7.5-2.9l3.2-2.2Z"/>
    <path id="KH-16" d="M499,42.8h1.3c0,.1-.7,1-.7,1l.5,1.7h-.6c0,0,1.1,3.6,1.1,3.6l-1.5.7v.9l-1,.8h-.8s-.1,3.1-.1,3.1l.8,2-2.5,5.9v2.6c0,0-1.6,2.8-1.6,2.8v2.1c0,0-2.9,0-2.9,0l-.9-1.2-.9,3.5-2.4,1.9-2.3,3.5v.9s1.5,1.8,1.5,1.8l.3,3.3-.9,1.5.7,1.3-1.9,2.5-1.1,2.9h-.7c0-.1-1,.9-1,.9l.3.7-2.1,2.9-.8,2.7,4.8,2.7-.3,1.1-1.5.2v2.9s-.8.6-.8.6l.2,1.2,2.5,2.8,5.5-.9,1.1,1.6-.2,4.8,2,1.3-.3,2.6-1.5,1.8,1.8,1.4-1.7,2.8.6,1.2-1,2.1,7.7,4.9,1.7,5,1.8,2.7.2,4,4.3,9.3,1.3,16-2.2,5.5h-2.2c0,0-.2,1-.2,1l-1.5,1.1-3.1-1.6-1.5.5h-1.7c0,0-3.2-3.9-3.2-3.9l-1,1.6-1.3.6-3.6,1.4-.8,1-.2.7-2.2.4-3-3.8-4.3.6-2.1-4.8-2.4-.8-.8.8v2.1l-4.2,2.8h-2.4c0,0-.8-1.6-.8-1.6l-1.2-.6-1.1.2-.9,1.4-1.6.7-2.8-1.1-.7,2.1.3.5,1.6,2,.2,1.8.2,1.2-1,1.1v2.6c0,0-3.3,3-3.3,3h-1c0,0-.7-1.3-.7-1.3l-2.5-.2-2.3,1-1.6-.6-2.7,1-2.7-.5-3.1.5-9.1-2.4-2.9-2.8-13.1-9.2h0v-1.7s1.6-.5,1.6-.5l.3-2.5-.7-.5v-1.1c.1,0-1.4-.9-1.4-.9l-.2-1,1.1-1-.2-1.1-1.3-1-2.7-7.8-1.7-2.6-2.1-.8v-11.4c0,0,5.3-1.2,5.3-1.2l2.9-2,4.2-7-.6-3.4.8-1.8-3-3.5.4-2.3-1.2-1.8.2-2.6-.8-.8-.5-2.6.2-2.3,3.9.6,1.2-1.1h3.2c0,0,2.9-2.3,2.9-2.3l2.2-.5,3.1-4.6-.7-3.3-2.8-6.4.8-6-.9-3.7-.3-8.6.8-2.5h0l2.6,2.9,1.4,3,1.6,1.4,1.7.4,1.2,1.8.8.2,1.9-2.7,2,.4.3-1.7.6-.2,6,2.1.9-1v-2.3c-.1,0,2.1-1.1,2.1-1.1l2.1-3.4,2.5-2.5-.5-2.5,2.2.5,2.5,4.4h2.1c0,.1,2.3-2.1,2.3-2.1l3.3-.5,1.9-2,1.6-4.3,3.6.4,1.2-.9.3-4.3.5-.9,1.1.4,1.1-3.5,1.2-1.2h3.4s4,5,4,5l1.5-.3,3.2,1.5,1.7-.3.5-.7-.7-.8,1.1-1.5v-2.8c0,0,1-1.1,1-1.1l-.3-1.5,1.5-1h1.5s1.2-2.2,1.2-2.2l1-.5.6-2.9,1-1,.6.3Z"/>
    <path id="KH-17" d="M109.4,121.5l.6.2.7-.5,1.6-1.3,1.3-.7.9.6,1.8-.5,1.3.6,1-.2.8.2,1-1.1.7-.3,1.1.4.6-1.1.7-1.3,1.1.3,1.1-2.1,1.5-.7-.2-.8.6-.2.9-.7h1.5s2.2.6,2.2.6l1-1.6,2.1-1.9v-1.7c-.1,0,1.1-.1,1.1-.1l.5.6,1-.8v-.9c0,0,.7-.6.7-.6l1.3.2.2-1.4,2.1-1-1.1-1.1.3-1.4,2.8-2.1.2-1.5,3.2-.7.3-.7,1.2-.7,1.4.5,3.7-.5.4-.8,3.8.3,1.8-.8,5.4-.2,1.9-.7-.7,3.1,1.4,2.6,6.1,5.5,2.5.3,2.4-1.8.7-1.3,3.8-.6,2.5-2.1,3.3-.8,1.6-1.6,4.2-1.1,3.4-1.8,3.2-4.8,1.4-.4,1.5.8h0l1.9,2.6,4.4,3.2-6.7,7.4-1.9,7.1,1,2.1-.8,1.8.7,1.9-.4,1.6-1.4,1.4-.9,1.6-.7,2-.7,1.6-.4,1.4h-1c0,0-1,2.2-1,2.2l.5.7,2-.2,1,2.8,1.9,1.3-.6,1.6,1.9,2.9v4s1.2,1.1,1.2,1.1l-1.6,5.4-2.1,1.5.9,2.8-.3.9,11.9,1.4,1.8,1.9,4.3.2,1.8,1.8,3.2-1.1,2.3-1.8.9.5-3.2,3.3v2.7c0,0-1.5,2.4-1.5,2.4l-3.4,2.4-2.4,3.4-.6,2.3.5,3.9-.7,2.1.7,2.2-.7,2.2h0l-1.5,4.3-4,1.4-2.7,1.7-.6,2-.5,10.3-.6-.3-.7,1.4v1.5c0,0,.8.9.8.9l-.4.7-1.5,1.8h-1.6c0,0-2,2.7-2,2.7l-1.9,1.2-2.1,4.3-4.9,1.5-.5.8-2.1.2-.4,1.1-.8.7-3.5,4.1-.3,1.6-1.3.4-.7,2.8-2.4,2.9h0l-2.4-5.6-2.2-2.6-5.5-2.6-7.8-8.3-9.3-12.3h0l-5.7-5.4-7.7-5.5-3.8-4.7-.8-4.3-.7-.8-1.7-1.2-1.3,1.2-2-1.9-2-.5-2.9.5-1.4-1.9h-1.9c0,.1-.5-1.7-.5-1.7l-2.5-.9-.4-.9-1.8-.3-1.1.8-1.3-.9h0l-1.1.6h0l-5-2h0l-2.1-5.5.9-2.8,1.1-1-1.4-1.3.3-2.1.6.5.4-.6v-1.3c.1,0,0-1.5,0-1.5h.6c0-.1,0-1.4,0-1.4l-.8-.8-.2-.8-.4-1,.7-.7.3-.7-.9-.5,1-.8-.9-.8.2-.7-1.2.4.3-.6-.9-.7.7-.3v-.9c0,0,1.2,0,1.2,0l-1.2-1.1.4-1.1,3.7-3.5-1.8-1.8v-1.3s0-.7,0-.7l.3-1,.7-1.2h-.9c0-.1.1-1.3.1-1.3v-.7c0,0,.4-2.1.4-2.1v-1.2c0,0,.2-.9.2-.9l-.5-.7-.4-.9-.3-1,1.3-2.2-.6-.9,1-.3Z"/>
    <path id="KH-18" d="M143.1,453.1l2.9,1.1-1.7.9v1.3c.1,0-1-1.2-1-1.2h-1.1c0-.1,0-1.8,0-1.8l.7-.4ZM123.8,446.7h.9s.7,1.4.7,1.4l-.6,1.7-1.8-.8.7-.9-.8-1.6,1,.2ZM139.2,445.3l1.9.2,2.3,1.6v4.1c.1,0-2.5,1.6-2.5,1.6l-3.6-3.2v-.6c0,0,1.3.1,1.3.1l-.5-3.6,1.1-.3ZM154.8,403.8l1.7,1.4v3.6c-.1,0-.9.5-.9.5l-.7,2,1.4,1.3-.9,1.1,2.2,2.9-1.2,1.8v2.2c0,0-1.1,1.1-1.1,1.1l.3,2,2,3.4,1.1.4,1,3.6-1.4,4.5-1.1.7h-.8s-1.2.7-1.2.7h0l-1.7-2.8v-1.4s-2-.8-2-.8l-1,.7-.8-.3.6-3.4-1.2-1.6-.2,1,.7.7v.7c-.1,0-.7,3.4-.7,3.4l1.5,2.3-6.4,9.9-1.3-.3-.4-1.1-2.7.4-2.2-.9-.2-1.3-1.2.4,1.8,2-.5,2.8-5-.9-.6.9h-2.4c0,.1-.3,1-.3,1l-1.1.2-2.4-1.7.7-2.7-1.1-1.9-1.3-.7-2.3,2-3.1-5.7-2.2-1.1h-.6c0,0-1.1-1.3-1.1-1.3l1.1-2.3h1.1c0,0,1.6-3,1.6-3l1.2-.8v-3.4c.1,0,2.6-.8,2.6-.8l1.1-1.3,1.1.7h2.2c0,0,.4-1.3.4-1.3l1.7,1,1.2-.7h3.6c0,.1,6.8-7.4,6.8-7.4l2.6-8.9,2.9,1.4,9.3-4.9Z"/>
    <path id="KH-19" d="M404.3,52l1.3,2.8.2,2.6,1,1.3-.8,1.5.3.9,3.5-.8v1.3c.1,0,1.2-.1,1.2-.1v2.2l1.4,1.5.3,1.5,3-.5.3.9,4.8,1.6.9-1.3,1.4.6,1.6,2.9v1.3h0l-.8,2.5.3,8.6.9,3.7-.8,6,2.8,6.4.7,3.3-3.1,4.6-2.2.5-2.9,2.4h-3.2c0,0-1.2,1-1.2,1l-3.9-.6-.2,2.3.5,2.6.8.8-.2,2.6,1.2,1.8-.4,2.3,3,3.5-.8,1.8.6,3.4-4.2,7-2.9,2-5.3,1.2v11.4c0,0,2,.8,2,.8l1.7,2.6,2.7,7.8,1.3,1,.2,1.1-1.1,1,.2,1,1.6.9v1.1c-.1,0,.5.5.5.5l-.3,2.5-1.6.5v1.7h0l-.7.4-2.5-1.4-1.6-1.7-2.3.3-1.8-.6-2.2-2.5-6.8-3.6-6.5,1.7h0l-4.2-.7-.9.8-2.9-.7-2.3,1.7-.3,1.9-1.7.8-8.2-.9-4.4,1.5v1.9c-.1,0-5.8,7.3-5.8,7.3l-.2,3.3-1.8,1.1-3.6-1.5-.2,3.3-1.7,2.6-.2,1.7-1.7,1.1h-2.1c0,.1-3,2.4-3,2.4h-2c0,0-4.8-1.7-4.8-1.7l-5.7-5-4.5-2.2h-3.5l-4.9-2.2h-1.7c0,0-.2-2-.2-2l-1.7-1.9-1.9-.8-.3-8.8.6-3.9-1.3-3.9h0l2.7-3.9-.3-5.1.9-5.1v-4.1c-.1,0,.5-1.5.5-1.5l-1.2-5.4-1.5-3-1.5-.9-.9-1.6.4-3.9-.9-2,.8-2.6,2.4-1.1,2.6-2.4,1.8.7,1.9,2.2h.8s.6-1.1.6-1.1l3-.7,1.3,1.2,1-.4.8.6,1.5-.9v-1c0,0-1-.7-1-.7l-.3-1.3,1-1.4,4.4-.6h10.6c0,.1,2.8-1.4,2.8-1.4h0l1.1.8,7.2.6,2.1-.7,9.2,1.9.4-3.5-.5-4,2.7-1.6.6-1.1,3-.6,1.7-4-3.4-2.1-2-2.3-1.7-3.7-.2-4-4.9-1.6-2.3-3.1-.5-1.7.6-2.2-1-3.6-2.4-1.2.2-4.9,2.5,2.6,3.6-.6,1.2,1.4.6-1.3-.4-1.4,1.3-.8,2.4,1.4,2.6-1.3,1.2,1.8,2.9.4,2.7-1.3,1.7-3.5.6-3.6.8-.8-1-1.8,1.2-2.5,1.2,1.4.8-.4,1.7.9.5,1.7h1c0,0,.7,1.1.7,1.1h1.3c0,0,3.7-1.4,3.7-1.4l3.8.3,1.1-1.1v-1.1s1.8-1.5,1.8-1.5l-.9-1.5.4-1.8,3.5,1.1.7-.5-1.9-2.4.2-1.3,4.8-3.5,3-.3Z"/>
    <path id="KH-20" d="M334.6,342.7l1.5,2.2,2.2.4,1.1-.5,1.2,1.1,1.1,2.3-.7,2.8.6,1.7-.9,2.1,2.7,1.4-.2,1.7-2.9,2.5.8,1.3-.8,1.7,1.1.5v.9s-1.5,3.9-1.5,3.9l.4,1-.6,2.6,1.3-.7,2.8.6.3,3.8,1.5,2.2,3.5,2.1,4.5.5,1.2,4.8,3,1.7,2.1,2.4,1.2-.2,1.3,2.7,2-1.7,2.8-1.2,3.2,4.8.3,3,1.5,4-3.5.3-1.4-.8-.9.5.7,3.5-1.3,2.5,2.4,2.7,2.4,4.5.3,4.9-2.5-2.2h-8.7s-5.8-4.2-5.8-4.2l-6.3-5.9,1.1,3.2-2.5,2,.6,2.3-3.6-.5-4.6-1.8,1.4-3.5-5.4-7.1-2.7-5.6-4.6.6-6,3.7-5.1,1.3h0l-.5-2.1-1.4-.2-1.3-1.1,2.3-4.2.3-3.7,2.8-2.9-1.9-2-1-5.5,1.7-4.9,1.1-.9-.2-.8.9-.6.8.8h1.6s-1.6-5.4-1.6-5.4v-7.6c0,0,1.6-5.2,1.6-5.2l-.3-3.1,1.8-2.1-.7-2.4,1.2-1.2.3-1.8,4.8-1.3.2-1h3.6s2.5-1,2.5-1h0v1Z"/>
    <path id="KH-21" d="M232.3,365.6l2.2,1.4,4.2-1.6,3.3,1.1h1.7s3.8-.7,3.8-.7l1.6.6,1.7,1.7,1-.3v2.9c0,0-1.1,2.7-1.1,2.7l.6,1.9,4.4,2.8.4,1.7-.5,2,.7.9h2.9c0,0-.5,1.4-.5,1.4l.7.3v5.5c-.1,0-2.2,4.2-2.2,4.2l-.3,1.9.5.7-.7,2.1.5.9,3.3.7v2.8s1.1,3.3,1.1,3.3l-1,1.9.4,1h0l-.8.6,2.8,6.9-.2,1.6.8,2.1,2.6,2.3.6,3.4-13.4,8-5.7,8.7-2.8,2.5-10.8.4-3.9-1.3h0l.6-.5-.7-1.2v-2.9c.1,0-.5-.6-.5-.6l.3-3.1-3.4-.4-.2-7.2,3-4.2.2-2.4,2.2-1.5-2-2.5v-3.1c0,0-.8-2.2-.8-2.2l-2.2-3.6-1.5-.7-3.7.4-3.1,1.6h-4.7c0,0-1.3-.8-1.3-.8l1.8-3.4v-3.3c0,0-1.7-5.8-1.7-5.8l-2.2-3.2h-1.2c0-.1,0-1.2,0-1.2l-1.8,1.3-.7-.6-.6-.6-2.2-1.1-2,.4v-5.8h0l4.7,1.4,5.2-.7,2.2,2.3,9.1,2.7.8-.7,4-.4v-6.7s2.1-13.3,2.1-13.3l.6-2.5,1.9-2.5Z"/>
    <path id="KH-22" d="M133.6,67l1.7.7-.8,4,.8,1.3,2.7-.2,1.4.7.6-.6,1.6,1.7,2.5-.8v1.2c0,0,2.2.4,2.2.4l.9-1.7h1.1c0,0,1.4.3,1.4.3v.9c0,0,2.2,1.7,2.2,1.7l.9-.3,4.5,1.3.7-1.9,2.9-.5,1.4.9,1.2-1.1.6,1.3,1.2.3,5.5-.7,2.1-3,2.9.5-.2,1.4.8.5,2.8-.6-.4-1.5,1.4-.8,1.4.2,1.8,1.5,2.8-1,.4-1.3,2.3-1.7,5.3,3.7,4.4-.7.7.5,1.3-.3.7.8.9-.6,1.5,1.2h2.8c0,0,0,1.4,0,1.4h.9c0,0-1.5,6.2-1.5,6.2v2.2c-.1,0,.9,2.4.9,2.4l-.6,2.1-1.4.2v.6h-.1l-1.5-.8-1.4.4-3.2,4.8-3.4,1.8-4.2,1.1-1.6,1.6-3.3.8-2.5,2.1-3.8.6-.7,1.3-2.4,1.8-2.5-.3-6.1-5.5-1.4-2.6.7-3.1-1.9.7-5.4.2-1.8.8-3.8-.3-.4.8-3.7.5-1.4-.5-1.2.7-.3.7-3.2.7-.2,1.5-2.8,2.1-.3,1.4,1.1,1.1-2.1,1-.2,1.4-1.3-.2-.7.6v.9c0,0-1,.8-1,.8l-.5-.6h-1.3c0,.1.1,1.9.1,1.9l-2.1,1.9-1,1.6-2.2-.6h-1.5s-.9.7-.9.7l-.6.2.2.8-1.5.7-1.1,2.1-1.1-.3-.7,1.3-.6,1.1-1.1-.4-.7.3-1,1.1-.8-.2-1,.2-1.3-.6-1.8.5-.9-.6-1.3.7-1.6,1.3-.7.5-.6-.2h0v-1.2c-.1,0,.7-.7.7-.7l-.6-.5.3-1.2-5-1.9-5.5-8.8-6,7-4.3.5-1.5,1.1-3.1-5.7,2.2-2.6.2-1.4-.9-1.3,1.3-1.4,1.1-4.2h-8c0,.1-1.5-.6-1.5-.6l-2.6-2.3-4.9-10.8h0l2.3-2.3v-1.1c0,0,1.7,0,1.7,0l.8-1,3.9-.6.7-.5-.2-1.2,1.2-.6,1.2,1.2,1.3-2,4.9,1.1,4.3-2.7,13.6-.6.8-2.2,1.8-1,1.5,2.2,1.6.4,1.5-2.2h1s.6-1.3.6-1.3h2.3s.4-1,.4-1l2.7-1.2h3c0,0,3.2,2.5,3.2,2.5l1.7-1.2h1.2s.2-.8.2-.8l-1.4-.3,1.2-1.5,3.5-.2Z"/>
    <path id="KH-23" d="M188,442.5l1-4,1.7,1.4h7.2c0-.1.9.1.9.1l.6.7v2.4c0,0,1.3,1.8,1.3,1.8l1.4.5v1.9c0,0,.7.5.7.5l-1,.6-.8-.6-.3.6.5.7.4-.3-.7,1.3,1.5-.4v.8c0,0,.9.8.9.8l-1,1.2h0l-2.5-.6-3.8-4.2-4.1,2-1.6-.2-.3-3.4-2-3.4Z"/>
    <path id="KH-24" d="M23.5,206.5l.6.7,1.3-.6,1.6.6.9-.7.9-2.6-.6-.2.4-1.6-1-1.5,1.8-1.7.7-.5-.3-.7.6-.6.7.3,2.3-.8v-.8s.9.3.9.3l.6-.5,4.3,1.4,5.2,7.3.2,26.8-8.2,5.8-14.1,2.5h0l-1.3-1.9.2-1.2-1-.8.6-1-.4-2.5.7-1.2h1s1.4-1.5,1.4-1.5l.3-1.6-.7-1.2v-2.1c.1,0-1.3-.5-1.3-.5v-1.7l-1.6-1.7,1-.7v-2.8c.1,0-2.2-5.1-2.2-5.1l1.5-1.3-1.4-1.7,2.2-1.7.7.4,1.3-1.1Z"/>
  </g>
</svg>