<svg xmlns="http://www.w3.org/2000/svg" xmlns:amcharts="http://amcharts.com/ammap" id="Layer_1" viewBox="0 0 512 512"><g id="_x3C_defs"><amcharts:ammap bottomLatitude="10.266" leftLongitude="102.335" projection="mercator" rightLongitude="107.63" topLatitude="14.688"/></g><g><path id="KH-1" d="M71.1 85.3 76 96.1l2.6 2.3 1.5.7h8c0-.1-1.1 4.1-1.1 4.1l-1.3 1.4.9 1.3-.2 1.4-2.2 2.6 3.1 5.7 1.5-1.1 4.3-.5 6-7 5.5 8.8 5 1.9-.3 1.2.6.5-.8.7v1.2h.1l-1 .3.6.9-1.3 2.2.3 1 .4.9.5.7v.9c-.1 0-.2 1.2-.2 1.2l-.5 2.1v1.9h.9c0 .1-.7 1.3-.7 1.3l-.3 1v2l1.8 1.8-3.7 3.5-.4 1.1 1.2 1.1h-1.1v.9l-.7.3.9.7-.3.6 1.2-.4-.2.7.9.8-1 .8.9.5-.3.7-.7.7.4 1 .2.8.8.8v1.3l-.5.1.2 1.5v1.3c-.1 0-.5.6-.5.6l-.6-.5-.3 2.1 1.4 1.3-1.1 1-.9 2.8 2.1 5.5-2 .9-4.1-2.3-12.4-.6-5.2-2.4-1 .9-.7-.9H80l-6.2 1.9-2.7-.4-2.6 2-1.3-.4-.4 1.8-5.8-.4-5.9-2.2-1 .5-9.9-2.9-5.4 3.1v-9.6l-31.5.2.4-2.8-2.6-3.5.6-1.8 2.6-1.8 2.5 1 2.7-.4 1.7 1.1 4.9-1.2 3.5.8 3.4-1.4 1.1-2.4 4.7-.5-4.5-1.9-2.7-2.9 1.3-2.4 2.7-2.3 9.3-4.4 2.7-2.2H43v-1l-.9-.8 4.2-6.1 1.4-7.4 1.9-1 1.2-2.2 4.8-3.8 2.6-.3 1.7-1-1.3-3.4.3-3.1 2.1-2.1.2-2.6 1.5-1.6-1.1-2.8 1-.9-.2-.8 1.6-.2-.3-1 1-.5 3.3-.2 1.3-1.7h1.2l.8-1.8Z"/><path id="KH-2" d="m7 160.5 31.4-.2v9.6l5.5-3.1 9.9 2.9 1-.5 5.9 2.2 5.8.4.4-1.8 1.3.4 2.6-2 2.7.4 6.2-2h2.2l.7.9 1-.9 5.2 2.4 12.4.6 4.1 2.3 2-.9 5 2 1.1-.6 1.3.9 1.1-.8 1.8.3.4.9 2.5.9.5 1.8h1.9c0-.1 1.4 1.8 1.4 1.8l2.9-.5 2 .5 2 1.9 1.3-1.2 1.7 1.2.7.8.8 4.3 3.8 4.7 7.7 5.5 5.7 5.4-3.2 2.2-7.5 2.8h-4.1l-1 2.4-1.2 1.1v1.6l1.2.9.2 1.5-2 .6-1.1 1.1-.5 4.4-.5.7h-2c0-.1-2.4.7-2.4.7l-1 1-.2 2.2 1.4.8-2.6 4.7.4 4.4 1.3 1.9-1.7 2.3 2.6 1.3.4 2.1-1.3 1.3v1.4c-.1 0 .5.7.5.7l-.9 1 1.1 1.9-2 1.6-1.1 3.4-4.5.5-4.8 1.7-5-3-5.3-2.1-3.9.6v-.9c-.1 0-3.5-.7-3.5-.7l.4.8-2.1-.2-.4 1.4-1.7-.3-3.5 2.9-1.9-.7-2 1.5-2.3.6-2.1 2.3-2.2-.8-3.2 2.5-3 .4-.4 2.2-4.4-1-1.2-2.8-1.1-.9-2.6 3.7-1.8.6-.8 1.1-1.8-.4-1 .7-.8-.5-2.8 3.4-3.5-1.5-2.6 4-2.5-3-.3-3.2h-.8c0-.1-.7-2.1-.7-2.1l-1.4-.5-.4.4-1.1-1 .3-1.6-.6-.6h-1.3c0 .1.8-2.2.8-2.2l-1.1.5-3.8-3.2.7-.9-1.7-1.5-.5-1.8-1.7-.3v-2.4c.1 0-2.5-.4-2.5-.4l-3.5-3.7-1.2-.4-2.8.4-1.8-1 14.1-2.5 8.2-5.8-.2-26.8-5.2-7.3-4.3-1.4-.6.5-1-.3v.8l-2.3.8-.7-.3-.6.6.3.7-.7.5-1.8 1.7 1 1.5-.4 1.6.6.2-.9 2.6-.9.7-1.6-.6-1.3.6-.6-.7-3.4-1.1-3.3-6.6-2.4-.8-.2-1.4-1.5-1.9v-1.4c.1 0-1.7-1.9-1.7-1.9l-.5-4.1-2.2-3.6-.3-2.5-1.7-1.4 1-3.5-1.4-3.3 1.6-7.6-.5-4.9Z"/><path id="KH-3" d="m245.6 280 2.7-.6.3-1.1 1.3-.6 4.3.5v-.8h.7l3.7 4.4 4.8-.6 3.7.4v1.5l1.3.3 1.9-1.6h1.2l1.7.9.8 1.5h1.2c0-.1.7.6.7.6l.9-1.1-1.2-4 .5-2.2-2.3-2-.7-2.9.5-1.4-1.9-.5-1.7-2.4v-.9c.1 0 2.6-1 2.6-1l1-1.9 2.6.8 2.2-1 1.6.7 2.2-.6 1.7 1.6h3.7l1.3 1.4v1.1h1.5l1.8-1 1.3-4-.4-.5 1.4-2 .5-2.9.8-.5-.3-1.8 1.3.6.4-.8h1.4c0 .1.9-.5.9-.5l1.2 1.2.4.3.8 1.1.3-.5.7.5v.4h.1l1.9 1.4 2.4-.6 2.2-3.6 11.9.2 5.9-.9 3.2 9.5.7 5.7-.5 2.6-2.8 1.6.2 3 3.2.9h4.9c0 .1 1.4 5.3 1.4 5.3l.8.2 1.1-1.9.6.7.7-.4.4.7h1.1l1.5-.3h.5l1.5-.8 1.5 2.4h2.2c0 .1.9-.8.9-.8l.4.7.8-.3v1l.3.5 1 .9 1.2 1.4-.2 1.5h1.2l1.5-1-.3 1.2 1.7 1.3-.5.9.4 1.1-1.7 1.4.9.6.2.3 1.6.7.4.7.9.3 1.7-.7h1.1l.8 1.9h1.1l.3.4.4.4.8-.6.9 1.4 1.5.5.8 2.7-1 1 .2 2.5.2.6.3 1.4 1.9-1.8 2 .4.2.8 1.2-1 1.9 1.4 5.4-1.2 4 1.5 2.3-.4 2.1-2.3 1.1.4 5.2 10.2h-1.9l-.6 1-.2 1.7.9 1.5-1.3 1.5-1.7 4.7 2 5.1 1.5 1.5-.3 1.9h-1.6l-4.7-2.5-8 2.1-2.8-2.9.3-.7-.6-.7-1.6-.8-3.9-.3-1.9-2.2-1.9.4-1.3 1.2-1.9-.8h-2.4l-1.9-2.1-2.7-1.6-4.1 1.2-.7 2 .5 2.2-1.2 2.2-1.9 1.2-.5.8.4 1.3-2.6 2.9-6.8-3.6-4.2 2.8-.8 2.7-1.8.2v1.9l-1.4-.7-.5-1.4-1.5-1.1-1-3.3-2.9-2.5-1.2-3-1.9-1.8h-7.9l-14.6-2.2-1.9 1-2-1.5-1.3-2.3.7-.8-.5-1.4.8-.6-1.3-2.1-1.4.7-2.7-1.8-1.8.3-1.5-1.6-4.2 1.3.3 1.2-1.9.5-1.4 2.7-5.4 2.8-1.3 1.4-2.3.6.7 1.5-.4 1-3.7-.6-1.8.7-1.3-1.5-3.6-.2v-3.9l1.6-1.5v-.8c-.1 0-2.6-3.2-2.6-3.2l-3.2-.5-1.2-2.4-2.7 2.2-.9-1.7-1.4 4-2.8 2.6-1.8-1.5-1.7.2-1.7-1.3-.3.7-1.8.2.3-4.4-1.5-1.7 1.1-5.7 1.3-.6 1.4-3 2.3-.4.3-2.2.7-.7-.7-1.3.5-1-.4-1.7-1-1.4h-.9l1.6-5.9 1.5-2.2v-4.2c-.1 0-.4-.7-.4-.7h-1.3l.4-1.5-1-.3-.5-1.2Z"/><path id="KH-4" d="m196.9 242.3 5 2.4.4 4.1-1.3.6.6 1.5 2.2.8-1.7-1.7 1.1.3 2.4 2 2.3.9 2.7-.4 1.2-2.3-.5-1.5 3-2.1 5-2 3.1-.5 6.4 2.6 4.7 2.9 7.1 1.8.9 1-1.2 3.5 2.4 1-1.2.7.7 1.6h.7l-.6.7h.6l.6 1.5 1.2-.3.5 1.8-.5 3.9 2.2-1.2.6-1.7.9 2.9-.9 1.5.2 1.1-2.9 1.7-.9 2.1-.2 1.8 2 4.4.5 1.2 1 .3-.4 1.6h1.3l.3.6v4.2c.1 0-1.4 2.2-1.4 2.2l-1.6 6h.9l1 1.3.3 1.7-.5 1 .7 1.3-.7.7-.3 2.2-2.3.4-1.4 3-1.3.6-1.1 5.7-1-.8-2.3.6-.6.8-.7-.7-.8.6.8 1.4-.2 1.4 1.2 1.3-4.3 1.2-3.1 1.7-1.5-.6-1.5 1-2-.7-2.9.6-1.2 1.2-1.4.2-4 4.7h-1.5l-.4.5H209c0 .1-2.2-1.8-2.2-1.8l-8.4-1.2-5-5.7.2-2.5-1.3-2.4-4.3-3.2.2-1.4-1.2-2.1.7-2.8-.5-1.7-.7-1-3-.9-1.9-6-.2-1.8-1.2-1v-5.5L179 286l.8-6.3.8-1.7 2.8-3 4.3-1 1.9-2.2 2.9-.3 2.3-2.8 1.3-4.2 2.2-1.8 1.6-.4-1.2-3.4.9-6.2-2.9-10.6Z"/><path id="KH-5" d="m181.8 295.7 1.9 6 3 .9.7 1 .5 1.7-.7 2.8 1.2 2.1-.2 1.4 4.3 3.2 1.3 2.4-.2 2.5 5 5.7 8.4 1.2 2.2 1.9h4.3c0-.1.4-.7.4-.7h1.5l4-4.7 1.4-.2 1.2-1.2 2.9-.6 2 .7 1.5-1 1.5.6 3.1-1.7 1.3.5v2l-6.1 15.3-.9 4.4.2 3.3-1.6 6.3-.6 5.7 2.1 1.4 1.1-1.5 1.2.8 1.7-1 1.5 1.1 1.3.3.3-.7 1.3 1h1.5l.9-.2-1 1.9-4.7 5.1-1.9 2.5-.6 2.5-2.1 13.3v6.7l-4 .4-.8.7-9.1-2.7-2.2-2.3-5.2.7-4.7-1.4-1.2-1-.9 1.1-1.8.5-2.5-.8-2.8 3.4-6.2 1.1h-3c0-.1-2.7-1.5-2.7-1.5l-2.3-3.6-1.4-.7-4.1-5.3-.2-3.4-1-2.9 1.4-2.2v-3l-1.8-3.7-3.4-2 .3-1.5-1.1-3.2 2.2-2.3-1.1-3.5-2.7-.6-2.2-2.7-6.1 1.3-1.1-1.9h-1c0-.1-.5-1.7-.5-1.7l-4.8-1.9.3-.6-4.3-3.8-2.3-.4.7-5.3-2.7-4.1.9-2.8-.9-2.2 1.8-1.7v-1.1l-.9-.7v-3.8l4.2 1.3 2.8-.7 1.7-.5-.2-1.3 1.8-2.3 2.7-1.2-.3-3.2 2.1-1.1 3.3.7 1.8 3.2h2.5c0 .1 2.3-1.9 2.3-1.9h1.7l-1-3.4.7-1.1h1.5l.4-1.5 1 .2.9-3.8-.4-1.6h1l1.1-.8 2.7.4.6-.7 3 1.2v-1.5l1.8-2.3Z"/><path id="KH-6" d="m308.8 163.1 1.3 3.9-.6 3.9.3 8.8 1.9.8 1.7 1.9.2 2v2l1.5 5.5 2.9 2.2 1.2 1.7-1.6 5.1 1.8 5-.7 2.4 3.3 2.7-.7 2-1.4 1.4.6 1.6 1.6.7 1.1 2.9-1.8 3.2 1.3 2.1-.8 3 .9.6 1.1 2.5-.6 2.5 2 2.8 1 5.2-.5 4.1 1.6 9.3-5.9.9-11.9-.2-2.2 3.6-2.4.6-1.9-1.4v-.4c-.1 0-.8-.5-.8-.5l-.3.5-.8-1.1-.4-.3-1.2-1.2-.9.6h-1.4c0-.1-.4.7-.4.7l-1.3-.6.3 1.8-.8.5-.5 2.9-1.4 2 .4.5-1.3 4-1.8 1H289v-1.2l-1.3-1.3H284l-1.6-1.7-2.2.6-1.6-.8-2.2 1-2.6-.8-1 1.9-2.5 1v.9c-.1 0 1.6 2.4 1.6 2.4l1.9.5-.5 1.4.7 2.9 2.2 2-.5 2.2 1.2 4-.9 1.1-.7-.7h-1.2c0 .1-.8-1.4-.8-1.4l-1.7-.9h-1.2l-1.9 1.6-1.3-.3v-1.5l-3.7-.4-4.8.6-3.7-4.4h-.8l.1.8-4.3-.5-1.3.6-.3 1.1-2.7.6-2-4.4.2-1.8.9-2.1 2.9-1.7-.2-1.1.9-1.5-.9-2.9-.6 1.7-2.2 1.2.5-3.9-.5-1.8-1.2.3-.6-1.5h-.6l.6-.8h-.7l-.7-1.7 1.2-.7-2.4-1 1.2-3.5-.9-1-7.1-1.8-4.7-2.9-6.4-2.6-3.1.5-5 2-3 2.1.5 1.5-1.2 2.3-2.7.4-2.3-.9-2.4-2-1.1-.3 1.7 1.7-2.2-.8-.6-1.5 1.3-.6-.4-4.1-5-2.4-15.1-6.7-1.4-3.4 2.4-2.9.7-2.8 1.3-.4.3-1.6 3.5-4.1.8-.8.4-1.1 2.1-.2.5-.8 4.9-1.5 2.1-4.3 1.9-1.2 2-2.7h1.6l1.5-1.7.4-.7-.8-.9v-1.5l.6-1.4.6.3.5-10.3.7-2 2.7-1.7 4-1.4 1.5-4.3 7.7-1.9 6-3.4h1.5c0 .1 1.7-.8 1.7-.8h1.8l1.4 1.1 11-.6 1 2.4-2.6 6.2.3 5 1.1 1.1v1.6l4.2 6.2 1.8 1.7 2.1.3 16.5-10.9 4.1-5.9 8.3-4.4 7.6-8.7 11.5-5.6 4.2-1.2 1.3-1.5Z"/><path id="KH-7" d="m176.7 384.6 1.4.7 2.3 3.6 2.7 1.4h3c0 .1 6.2-1 6.2-1l2.8-3.4 2.5.8 1.8-.5.9-1.1 1.2 1v5.8l2-.4 2.2 1.1.6.6.7.6 1.8-1.3v1.1l1.1.1 2.2 3.2 1.8 5.8v3.3l-1.8 3.4 1.3.7h4.7l3.1-1.5 3.7-.4 1.5.7 2.2 3.6.9 2.2v3.1l2 2.5-2.2 1.5-.2 2.4-3 4.2.2 7.2 3.4.4-.3 3.1.6.6v2.9c-.1 0 .6 1.2.6 1.2l-.6.5-6.3-.8v1h-5.4l-.6 2.4-2.2 1.1-.8 3.4-2.2 1-.7 1.9-2.2 2-1.8-2.4-3.7.8-2.3-2.3 1-1.2-1-.8v-.8l-1.4.4.7-1.3-.4.3-.5-.7.3-.6.8.6 1-.6-.7-.5v-1.9l-1.5-.5-1.4-1.8v-2.4l-.5-.7-.9-.2h-7.2c0 .1-1.7-1.3-1.7-1.3l-1 4-2.1-2.1h-2.9l.2 1.3-1.3-.2-2.1 2-.9-.6-.4-2.3-1.4.9-1.6-.3-3.1 1.6-5-.3-8.5-3.7h-2l-1.7-2 1.2-.7h.8l1.1-.8 1.4-4.5-1-3.6-1.1-.4-2-3.4-.3-2 1.2-1.1V418l1.1-1.8-2.2-2.9.9-1.1-1.4-1.3.7-2 .8-.5v-3.6c.1 0-1.6-1.4-1.6-1.4l5.4-3.9 2.2-2.5h2l.5 1 2.3-.4 2.6-1.5.2-1.3-1.5-1.8 1.7-1.2-.7-3.3v-3.8c.1 0-1.6-2.2-1.6-2.2h2.6l6.4 1.8Z"/><path id="KH-8" d="m232.7 319.8 4.3-1.2-1.2-1.3.2-1.4-.8-1.4.8-.6.7.7.6-.8 2.3-.6 1 .8 1.5 1.7-.3 4.4 1.7-.2.3-.7 1.7 1.3 1.7-.2 1.8 1.5 2.8-2.6 1.4-4 .9 1.7 2.6-2.2 1.2 2.4 3.2.5 2.5 3.2v.8c.1 0-1.4 1.5-1.4 1.5v3.9l3.6.2 1.3 1.5 1.8-.7 3.7.6-.5.8.2 1.8-.9.8h-1.3l-1.2 2.9 1 1.8-2 .9-.8 1.7.9 1 .6 3.5-.4.6.8 1.5 1.2.5-.6 1.3 1.6.8 1.3-.5 2.4 1.4 1.4-.5 1.4 3.3 1.3.2v1.2l.9 1 1.7 1.1.7-.6.7.8.8-.9 1.8 3.3-3.9 3.2 1.7 6.7.7 6.7-1.8 4.7-1.6 1.4v2.6l-1.1 3-3.8 4.1.2 5.8-1.3 6.9.6 4.2-3.3-1.1-4.7.4-.2-.7 1.3-1.9-.6-1.4-2.7.5-.5 1.9-2.3.5v1.4c-.1 0-1.1.4-1.1.4l.2 1.1-.7.4-.4-1 1-1.9-1.1-3.3v-2.8l-3.3-.7-.5-.9.7-2.1-.5-.7.3-1.9 2.1-4.2v-5.5c.1 0-.5-.3-.5-.3l.5-1.3h-2.9l-.7-1 .5-2-.4-1.7-4.4-2.8-.6-1.9 1.2-2.7v-2.9l-1.1.3-1.7-1.7-1.6-.6-1.6.3-2.2.5h-1.7l-3.3-1.1-4.2 1.6-2.2-1.4 4.7-5.1 1-1.9-.9.2h-1.5l-1.3-1-.3.7-1.3-.3-1.5-1.1-1.7 1-1.2-.7-1.1 1.5-2.1-1.4.6-5.7 1.6-6.3-.2-3.3.9-4.4 6.1-15.3v-2l-1.3-.5Zm9.5 17 .5.9 2.4-1.8-1-1.2h6.3l-.5 1.6 2.3 6.1.3 2.8 1.3.9 1.5 5-1.4 1-1.3-.2-2.4.9v3.5l-1.3-.3-.7-.6-.8-1.5-1.4-.5-1.1.6-.5 1.8-2.1 1.3-1.6-.3-.5 1.3-3.1-1.8 1-5.2 2.6-.6v-.8c.1 0-.6-1.4-.6-1.4l-1.2.2-.6-1.7-1.1-.2.4-1.7-.5-.4.6-4.3.8-.7-.4-.9 1.2-.5-.3-.7 1.2-.4.3-.8h.8c0 .1-.1.7-.1.7l1 .2Z"/><path id="KH-9" d="m75.3 352.5-.4.6h-2.5l-.7-2.5.7-.2.5.9 2.5 1.1Zm-1.3 6.4 1-2-1.6-.4-.5.4 1.2.8v1.2Zm.3-5.5h-2l-1-2v-.5c-.1 0-.9-1-.9-1h-.3l-.4-1.7-3.1 1.3v1.6l2.6 4-.2 2.4.6 1.2 2.7-2.6 2.4-.4 1.2.5.2-.9h1.7c0-.1.4-.7.4-.7l-1.4-.6-1-.2v.9zM71.8 367l-1.2-1.3.6-2.7-1.6-3.8-1.3-.2-1.8 1 .2-.9-.6-.4-1 2.5 1 2.3-.6 1.5 1.5 3.6-1 1.2.6 2.6-.6.3 1.8 2.7.7-.4 1 .8.8-.6 1.6-4.3v-4Zm104.9 17.6-4.1-5.3-.2-3.4-1-2.9 1.4-2.2v-3l-1.8-3.7-3.4-2 .3-1.5-1.1-3.2 2.2-2.3-1.1-3.5-2.7-.6-2.2-2.7-6.1 1.3-1.1-1.9h-1c0-.1-.5-1.7-.5-1.7l-4.8-1.9.3-.6-4.3-3.8-2.3-.4.7-5.3-2.7-4.1.9-2.8-.9-2.2 1.8-1.7v-1.1l-.9-.7v-3.8l4.2 1.3 2.8-.7-1.5-1.1-1.1-2.5-4-4.9-1.7-.3-1.3.8-1.5-1.3-1.8 1.2-1.1-.4-1.5-1 .5-.5-.3-1.6-2.1-.2-3.6-1.9-.8-.8.8-.7-.3-1.1-2.7-1-3.4-4.1-3-1.7v-1l-2.7-1-1.6.7-1.5-1.7-4 2.8-3.1-2.1h-.8l-1 1.9.6 1.7-2.1 1-.2 3-3 1-1.8 3.2-2 .6-2.1-.8-1.4 1.5-2.2-.2-.6 1.8-2.4-.6-3.7 1.9-4.3-.3-13.5-5.3-16.6-1.1-1.7-.8v3l1.9 3.8 1.5 1.5.3 3.9L52 317l2 3.1 1.1 1.7 1.4 1.5 1.1.4 1.1 1.7.7 2.2v9.3l2.3 3.5-.3 2.5h.7c0-.1 1.5 1.9 1.5 1.9l.8-5.1-1-1.5.5-1.4-.7-2.1 1.3-5.1-1.2-1.2.2-.7 1.6 2-.4 1.4 1.6.3-2.1 2.8.2 2.9 1 1.2v-1.6c.1 0 .9-.5.9-.5l1.2.3 1.3 1.5v.7h-.5l-.3-1-1.5-.7-1.6 7 1.4 1.2-.6.3-1.3-1.2-1.2 1.6.5 1.2.8.5 2.3.9.7-2.6.3 1 3.5-.3.2-2.9h.8c0 .1-.6.9-.6.9l.3 1.2.9-.7-.6 1.3-.5-.2v2.5l.7 1 .3.2.2 1 2.5.9.7.7-.4.7 2.7.8 1.8-1-.2-1.5 1.6 1-.9 2.1-.3.2-1.4-.3-3.5 2.5-.4.4-.4 1.3.4.5.2-.7 1.3 2.2-.5.4.9 4.2 1.2.9 2.6-.6 1.6 5-.8-.4-.5-1.3-.5.3-1.3-.6v.9c-.1 0-1.4 1-1.4 1l-1.2-.2-.3 1.3h-1.7l.6 1.6-1.1 1.4.6 1.6-2.3 1.5.7.7 2.3-.7 3.3 7.2.4 4.6-1 1.9-.7.2-.5-.7-.5.5.8.4 1.2 7v3.5l-1.2 1.7.2 2.9 2.3 1.4.9 1.6-.4 1.1-.9-.2 2.3 1.4.4-1h.8c0-.1 2.5 1.5 2.5 1.5v-1.2l2.9-1.1.4-1.3 1-.2 1.5-2.1 3.3-.8.8 1h1.4l3.4 1.8 1.5 3.1 1.3-1.5 1.7.5 2.1-1.7h1.6l-1.3-6.5 3.3-7.9.3-2.7 1.6-1.5.3-1.3-.5-.4-2.2.6 2.2-2.2 1.3-2.5 3.4-2h3.7l3.7 7.2 6.3 1.3v1.1l1 .6 1.5-.8.6-1.7 3.3-3.1 4.6-1.8-1.1 1.3h-1.7l-2.2 1.4-2.7 3-.3.8 1.3.3-.6.5-4.7 1.2 1.5 2.9.2 1.6-.7.9 2.4 3.5 2.7 8.3-.3 3.5-.7 1.3-2.5 1.4-.2 2.9-1.4 1.3.6 1.5 2.4.6 6.8-7.6 2.6-8.9 2.9 1.4 9.4-4.9 5.4-3.9 2.2-2.5h2l.5 1 2.3-.4 2.6-1.5.2-1.3-1.5-1.8 1.7-1.2-.7-3.3v-3.8c.1 0-1.6-2.2-1.6-2.2h2.6l6.4 1.8Zm-82.1 45.3h1.5l1.4-1.2.4-1.6-.7-.3-.8 1.1-.7-.5.4-.6-.7-1.1-2.6.3-.8-1.3.5-.7-.7-2.3.6-.6-2.4-.9-1.3 1.5-2.3-.6-1.2 3.3.5.5.6-.7.8.3v1.9l.9 1 1.4.3.7-.8 1.2.5 1.7 5 1-.7.8-2Zm5 9.4-.2-.7-.9 1.7-1.7-1.1.6-.8-.8-1.1 2-.3-1.1-1.8-1.2.8-.6-.6-1.4 1.4 1.6 4.1h.9l1.2 2.3.8-.2v-1.6l1.4-1.4-.5-.7ZM81 466.6l.3-1.1 1-.4-1.2-.4-.3-.8-1.2 1.9.5 1 1.4.5.3 2.1 1-1.3-1.8-1.6Z"/><path id="KH-10" d="M313.6 184.3h1.7l4.9 2.3h3.5l4.5 2.2 5.7 5 4.8 1.8h2l3-2.4h2.1c0-.1 1.7-1.2 1.7-1.2l.2-1.7 1.7-2.6.2-3.3 3.6 1.5 1.8-1.1.2-3.3 5.7-7.3v-1.9c.1 0 4.6-1.5 4.6-1.5l8.2.9 1.7-.8.3-1.9 2.3-1.7 2.9.7.9-.8 4.2.7.7 5.7-1 5.3 2.3 5.1 3.6 2.1 1.5 1.8.6 2.1H386l-1 3.6.2 2.9 3.7 4.8 2.3 1.1 1.1 2.2 2.4 1.1 2.1-.3 8.2 4.7 4.7 3.5 1.3 2.7-.4 4.2-1.6 2.4-4.8 4.3-3.7.7-7.2 6-2.3 4-.4 3.2-3.4 8.3-.4 2.8 1.2 1.4 11.9 7.3 2.1.2 1.5 1.7 2.9 1.1 4 8.9 9.4 2.7 5.3 3.5 3.8 5.7-.9 3.8.6 1.6-.8 1.9.8 2.9-1.6 1.1-5.7 9.7-1.1.4-2.5.3-2.7-2.3-.6.7 1 1.5H414l-1.7-.8-9.3.6-1.1-1.2-2.6 1.1-2-.4-1.3-1.5-1.3.2-.9 1.3h-1.9l-1.1-.5-2.1 2.3-2.3.4-4-1.5-5.4 1.2-1.9-1.4-1.2 1-.2-.8-2-.4-1.9 1.8-.3-1.4-.2-.6-.2-2.5 1-1-.8-2.7-1.5-.5-.9-1.4-.8.6-.4-.4-.3-.3h-1.1l-.8-1.9h-1.1l-1.7.7-.9-.3-.4-.7-1.6-.7-.2-.3-.9-.6 1.7-1.4-.4-1.1.5-.9-1.7-1.3.3-1.2-1.5 1h-1.2l.2-1.5-1.2-1.4-1-.9-.2-.5v-1l-.9.3-.4-.7-.9 1h-2.2c0-.1-1.5-2.6-1.5-2.6l-1.5.8h-.5l-1.5.3h-1.1l-.4-.8-.7.4-.6-.7-1.1 1.9-.8-.2-1.4-5.1h-4.9c0-.1-3.2-1-3.2-1l-.2-3 2.8-1.6.5-2.6-.7-5.7-3.2-9.5-1.6-9.3.5-4.1-1-5.2-2-2.8.6-2.5-1.1-2.5-.9-.6.8-3-1.3-2.1 1.8-3.2-1.1-2.9-1.6-.7-.6-1.6 1.4-1.3.7-2-3.3-2.7.7-2.4-1.8-5 1.6-5.1-1.2-1.7-2.9-2.2-1.6-5.5v-2Z"/><path id="KH-11" d="m385.8 167.8 6.5-1.7 6.8 3.6 2.2 2.5 1.8.6 2.3-.3 1.6 1.7 2.5 1.4.7-.4 13.1 9.2 2.9 2.8 9.1 2.4 3.1-.5 2.7.5 2.7-1 1.6.6 2.3-1 2.5.2.7 1.3h1l3.3-3.1V184l1.1-1.1-.2-1.2-.2-1.8-1.6-2-.3-.5.7-2.1 2.8 1.1 1.6-.7.9-1.4 1.1-.2 1.2.6.8 1.7h2.4l4.2-2.9v-2.1l.8-.8 2.4.8 2.1 4.8 4.3-.6 3 3.8 2.2-.4.2-.7.8-1 3.6-1.4 1.3-.6 1-1.6 3.2 3.8h1.7l1.5-.4 3.1 1.6 1.5-1.1.2-.9h2.2l-11.1 26.1v3.1c.1 0 .9.5.9.5l-.2 1 .8 1.1-1.6.6-.3 2.5 1.7 2.7-1 1.9.7 1.7 1.3.9v1.1l4 3.9-.2 1.1 1 1.8-.4 3.9.7 1.8-.7 2 2.1 2.8-1 1.2-.2 1.9.3 2.1 1.2 1.2-.5 3.7.9 1.6-2.7 3.5 1.6 2.6-.4 1.6-1 .8.3 1.6-2.2 3.6v6.3l-3.2 2.3-4.1 1.7-1 1.7-1.2.2-1 4.5-1.6.5-2.9-3 .2-1.4-1.3-2-2.7-2.7-2.8 1.2-.8-1.1-2.6 1.1-1.2-.3-3.6 2.8-2.7-.2-2.6 1.7-2.2.5-1.1 2.5v2l-3.5 2-.9 2.6-1.7-.7-.4 1 .8 1.4-1.7.5-1.5 2.6-3.8 1.6.8.6-2.3 2.3-7 2.2-3.6-1.1-2.3.7-1.9-.5-1.1-1.1-1.6.4-.7-.5-.8-2.9.8-1.9-.6-1.6.9-3.8-3.8-5.7-5.3-3.5-9.4-2.7-4-8.9-2.9-1.1-1.5-1.7-2.1-.2-11.9-7.3-1.2-1.4.4-2.8 3.4-8.3.4-3.2 2.3-4 7.2-6 3.7-.7 4.8-4.3 1.6-2.4.4-4.2-1.3-2.7-4.7-3.5-8.2-4.7-2.1.3-2.4-1.1-1.1-2.2-2.3-1.1-3.7-4.8-.2-2.9 1-3.5h7.7l-.6-2.2-1.5-1.8-3.6-2.1-2.3-5.1 1-5.3-.7-5.7Z"/><path id="KH-12" d="M245.1 334.6h5.3l-.5 1.7 2.3 6.1.3 2.8 1.3.9 1.5 5-1.4 1-1.3-.2-2.4.9v3.5l-1.3-.3-.7-.6-.8-1.5-1.4-.5-1.1.6-.5 1.8-2.1 1.3-1.6-.3-.5 1.3-3.1-1.8 1-5.2 2.6-.6v-.8c.1 0-.6-1.4-.6-1.4l-1.2.2-.6-1.7-1.1-.2.4-1.7-.5-.4.6-4.3.8-.7-.4-.9 1.2-.5-.3-.7 1.2-.4.3-.8h.8c0 .1-.1.7-.1.7l1 .3.5.9 2.4-1.8-.9-1.2h1Z"/><path id="KH-13" d="M240.6 68.4v.6l1.9.4.2 1 2.9-1.5 3.2 1.8 3.1.7.8.9.8.2.3-1h1.4c0-.1 1.2.6 1.2.6l1.6 2.1-1 4-.6.4 1.6 1.3 1.9 3.9v2.4c.1 0 2.6 2.4 2.6 2.4l3.1.5 1-.6 1.3.2 3.4-2.4 1.1-1.6-1-.5.9-.9-.2-1.6 2.4-2.9-.8-2 .8-1 .9.4 1.3-.6.8.5-.2 3.1 1.7 2.7 1.6 1.1.8 4.1.8.5v1.6l.9.8.8 2.5 4.7 1.7v1.3l3.5 4 3.3.4 1.7-1.1.4.6 1.5-.4 1.9.8 1.9-1.9h1.3c0 .1 1-1.1 1-1.1l5.6-2.7 2.8 2.3-.2-1.1h1.5l1.5 2.2.3-.9 1.2.7v1.8l1.1 1.1 1-1.9 2.5.8 2.1 2.1 1.9-2.2 1.7 1.3 4.2 1.2-.2 3.8.8 2 10.1 8.4-2.8 1.5h-10.6c0-.1-4.4.5-4.4.5l-1 1.4.3 1.3 1.1.7v1l-1.6.9-.8-.6-1 .4-1.3-1.2-3 .7-.6 1h-.8l-1.9-2.2-1.8-.7-2.6 2.4-2.4 1.1-.8 2.6.9 2-.4 3.9.9 1.6 1.5.9 1.5 3 1.2 5.4-.6 1.5v4.1c.1 0-.8 5.1-.8 5.1l.3 5.1-2.7 3.9-1.3 1.6-4.2 1.2-11.5 5.6-7.6 8.7-8.3 4.4-4.1 5.9-16.5 10.9-2.1-.3-1.8-1.7-4.3-6.2v-1.6l-1-1.1-.3-5 2.6-6.2-1-2.4-11 .6-1.4-1.2h-1.8l-1.7.9H230c0-.1-6 3.2-6 3.2l-7.7 1.9.7-2.2-.7-2.2.7-2.1-.5-3.9.6-2.3 2.4-3.4 3.4-2.4 1.5-2.4v-2.7l3.2-3.3-.9-.5-2.3 1.8-3.2 1.1-1.8-1.8-4.3-.2-1.8-1.9-11.9-1.4.3-.9-.9-2.8 2.1-1.5 1.6-5.4-1.2-1.1v-4l-1.9-2.9.6-1.6-1.9-1.3-1-2.8-2 .2-.5-.7 1-2.3h1l.4-1.3.7-1.6.7-2 .9-1.6 1.4-1.4.4-1.6-.7-1.9.8-1.8-1-2.1 1.9-7.1 6.7-7.4-4.4-3.2-1.9-2.6v-.6c.1 0 1.5-.2 1.5-.2l.6-2.1-1-2.4v-2.2c.1 0 1.6-6.3 1.6-6.3l.7-1.7 1.9-1 3.4 2.1 4.1-.4.2-1.8 6.1-4.6.7.2.8 2 2.4.4 2.3-3.6 1.6 1.2v1.8l1.5-1 1.3.8 1.3-1.7 2.3-1.1 1.6-.2 1.1 1.2Z"/><path id="KH-14" d="m272.9 328.6.4-1-.7-1.5 2.3-.6 1.3-1.4 5.4-2.8 1.4-2.7 1.9-.5-.3-1.2 4.2-1.3 1.5 1.6 1.8-.3 2.7 1.8 1.4-.7 1.3 2.1-.8.6.5 1.4-.7.8 1.3 2.3 2 1.5 1.9-1 14.6 2.2h7.9l1.9 1.7 1.2 3 2.9 2.5 1 3.3 1.5 1.1.5 1.4 1.4.7c0 .1-2.5 1.1-2.5 1.1h-3.6l-.2 1-4.8 1.3-.3 1.8-1.2 1.2.7 2.4-1.8 2.1.3 3.1-1.6 5.2v7.6l1.6 5.4h-1.6l-.8-.9-.9.6.2.8-1.1.9-1.7 4.9 1 5.5 1.9 2-2.8 2.9-.3 3.7-2.3 4.2 1.3 1.1 1.4.2.5 2.1-7.3 2.1-2.7.2h-1.1l-2.1-1.5-2.1.9-2.4-1.7-1.8 4.1-1.9 1.1-1.8 3h-.9c0 .1-2 2.7-2 2.7l-7-3.6-2.5.4-4.7-1.8-.6-4.2 1.3-6.9-.2-5.8 3.8-4.1 1.1-3v-2.6l1.6-1.3 1.8-4.7-.7-6.7-1.7-6.7 3.9-3.2-1.8-3.3-.8.9-.7-.8-.7.6-1.7-1.1-1-1.1v-1.2l-1.2-.2-1.4-3.3-1.4.5-2.4-1.4-1.3.5-1.6-.8.6-1.3-1.2-.5-.8-1.5.4-.6-.6-3.5-.9-1 .8-1.7 2-.9-1-1.8 1.2-2.8h1.3l.9-.8-.2-1.8.5-.8Z"/><path id="KH-15" d="m153.2 200.8 9.3 12.3 7.8 8.3 5.5 2.6 2.2 2.6 2.4 5.6 1.4 3.4 15.1 6.7 2.9 10.6-.8 6.2 1.2 3.4-1.6.4-2.2 1.8-1.3 4.2-2.3 2.8-2.9.3-1.9 2.2-4.3 1-2.8 3-.8 1.6-.8 6.3 1.2 1.1v5.5l1.1 1 .2 1.8-1.7 2.3v1.5l-3-1.2-.6.7-2.7-.4-1.1.9h-1l.4 1.6-.9 3.8-1-.2-.4 1.5h-1.5l-.7 1.2 1 3.3h-1.7l-2.3 2.1h-2.5c0-.1-1.8-3.3-1.8-3.3l-3.3-.7-2.1 1.1.3 3.2-2.7 1.2-1.8 2.3.2 1.3-1.7.5-1.5-1.1-1.1-2.5-4-4.9-1.7-.3-1.3.8-1.5-1.3-1.8 1.2-1.1-.4-1.5-1 .5-.5-.3-1.6-2.1-.2-3.6-1.9-.8-.9.8-.7-.3-1.1-2.7-1-3.4-4.1-3-1.7v-1l-2.7-1-1.6.7-1.5-1.7-4 2.8-3.1-2.1h-.8l-1 1.9.6 1.7-2.1 1-.2 3-3 1-1.8 3.2-2 .6-2.1-.8-1.4 1.5-2.2-.2-.6 1.8-2.4-.6-3.7 1.9-4.3-.3-13.5-5.3-16.6-1.1-1.7-.8-1.4-5.2-2.9-3.3-3-6.2 1.4-5.1-.5-3.4 1.2-4.1V268l1.9-2.4 3.6-1.1 2.5 3 2.6-4L56 265l2.8-3.4.8.5 1-.7 1.8.4.8-1.1 1.8-.6 2.6-3.7 1.1.9 1.2 2.8 4.4 1 .4-2.2 3-.4 3.2-2.5 2.2.8 2.1-2.3 2.3-.6 2-1.5 1.9.7 3.5-2.9 1.7.3.4-1.4 2.1.2-.4-.8 3.4.7v.9c.1 0 4-.6 4-.6l5.3 2.1 5 3 4.8-1.7 4.5-.5 1.1-3.4 2-1.6-1.1-1.9.9-1-.7-.7v-1.4c.1 0 1.5-1.3 1.5-1.3l-.4-2.1-2.6-1.3 1.7-2.3-1.3-1.9-.4-4.4 2.6-4.7-1.4-.8.2-2.2 1-1 2.4-.8h2c0 .1.5-.6.5-.6l.5-4.4 1.1-1.1 2-.6-.2-1.5-1.1-.9v-1.6l1.1-1.1 1-2.3h4.1l7.5-2.9 3.2-2.2Z"/><path id="KH-16" d="M499 42.8h1.3c0 .1-.7 1-.7 1l.5 1.7h-.6l1.1 3.6-1.5.7v.9l-1 .8h-.8l-.1 3.1.8 2-2.5 5.9v2.6l-1.6 2.8V70H491l-.9-1.2-.9 3.5-2.4 1.9-2.3 3.5v.9l1.5 1.8.3 3.3-.9 1.5.7 1.3-1.9 2.5-1.1 2.9h-.7c0-.1-1 .9-1 .9l.3.7-2.1 2.9-.8 2.7 4.8 2.7-.3 1.1-1.5.2v2.9l-.8.6.2 1.2 2.5 2.8 5.5-.9 1.1 1.6-.2 4.8 2 1.3-.3 2.6-1.5 1.8 1.8 1.4-1.7 2.8.6 1.2-1 2.1 7.7 4.9 1.7 5 1.8 2.7.2 4 4.3 9.3 1.3 16-2.2 5.5h-2.2l-.2 1-1.5 1.1-3.1-1.6-1.5.5h-1.7l-3.2-3.9-1 1.6-1.3.6-3.6 1.4-.8 1-.2.7-2.2.4-3-3.8-4.3.6-2.1-4.8-2.4-.8-.8.8v2.1l-4.2 2.8h-2.4l-.8-1.6-1.2-.6-1.1.2-.9 1.4-1.6.7-2.8-1.1-.7 2.1.3.5 1.6 2 .2 1.8.2 1.2-1 1.1v2.6l-3.3 3h-1l-.7-1.3-2.5-.2-2.3 1-1.6-.6-2.7 1-2.7-.5-3.1.5-9.1-2.4-2.9-2.8-13.1-9.2v-1.7l1.6-.5.3-2.5-.7-.5v-1.1c.1 0-1.4-.9-1.4-.9l-.2-1 1.1-1-.2-1.1-1.3-1-2.7-7.8-1.7-2.6-2.1-.8v-11.4l5.3-1.2 2.9-2 4.2-7-.6-3.4.8-1.8-3-3.5.4-2.3-1.2-1.8.2-2.6-.8-.8-.5-2.6.2-2.3 3.9.6 1.2-1.1h3.2l2.9-2.3 2.2-.5 3.1-4.6-.7-3.3-2.8-6.4.8-6-.9-3.7-.3-8.6.8-2.5 2.6 2.9 1.4 3 1.6 1.4 1.7.4 1.2 1.8.8.2 1.9-2.7 2 .4.3-1.7.6-.2 6 2.1.9-1v-2.3c-.1 0 2.1-1.1 2.1-1.1l2.1-3.4 2.5-2.5-.5-2.5 2.2.5 2.5 4.4h2.1c0 .1 2.3-2.1 2.3-2.1l3.3-.5 1.9-2 1.6-4.3 3.6.4 1.2-.9.3-4.3.5-.9 1.1.4 1.1-3.5 1.2-1.2h3.4l4 5 1.5-.3 3.2 1.5 1.7-.3.5-.7-.7-.8 1.1-1.5v-2.8l1-1.1-.3-1.5 1.5-1h1.5l1.2-2.2 1-.5.6-2.9 1-1 .6.3Z"/><path id="KH-17" d="m109.4 121.5.6.2.7-.5 1.6-1.3 1.3-.7.9.6 1.8-.5 1.3.6 1-.2.8.2 1-1.1.7-.3 1.1.4.6-1.1.7-1.3 1.1.3 1.1-2.1 1.5-.7-.2-.8.6-.2.9-.7h1.5l2.2.6 1-1.6 2.1-1.9v-1.7c-.1 0 1.1-.1 1.1-.1l.5.6 1-.8v-.9l.7-.6 1.3.2.2-1.4 2.1-1-1.1-1.1.3-1.4 2.8-2.1.2-1.5 3.2-.7.3-.7 1.2-.7 1.4.5 3.7-.5.4-.8 3.8.3 1.8-.8 5.4-.2 1.9-.7-.7 3.1 1.4 2.6 6.1 5.5 2.5.3 2.4-1.8.7-1.3 3.8-.6 2.5-2.1 3.3-.8 1.6-1.6 4.2-1.1 3.4-1.8 3.2-4.8 1.4-.4 1.5.8 1.9 2.6 4.4 3.2-6.7 7.4-1.9 7.1 1 2.1-.8 1.8.7 1.9-.4 1.6-1.4 1.4-.9 1.6-.7 2-.7 1.6-.4 1.4h-1l-1 2.2.5.7 2-.2 1 2.8 1.9 1.3-.6 1.6 1.9 2.9v4l1.2 1.1-1.6 5.4-2.1 1.5.9 2.8-.3.9 11.9 1.4 1.8 1.9 4.3.2 1.8 1.8 3.2-1.1 2.3-1.8.9.5-3.2 3.3v2.7l-1.5 2.4-3.4 2.4-2.4 3.4-.6 2.3.5 3.9-.7 2.1.7 2.2-.7 2.2-1.5 4.3-4 1.4-2.7 1.7-.6 2-.5 10.3-.6-.3-.7 1.4v1.5l.8.9-.4.7-1.5 1.8h-1.6l-2 2.7-1.9 1.2-2.1 4.3-4.9 1.5-.5.8-2.1.2-.4 1.1-.8.7-3.5 4.1-.3 1.6-1.3.4-.7 2.8-2.4 2.9-2.4-5.6-2.2-2.6-5.5-2.6-7.8-8.3-9.3-12.3-5.7-5.4-7.7-5.5-3.8-4.7-.8-4.3-.7-.8-1.7-1.2-1.3 1.2-2-1.9-2-.5-2.9.5-1.4-1.9h-1.9c0 .1-.5-1.7-.5-1.7l-2.5-.9-.4-.9-1.8-.3-1.1.8-1.3-.9-1.1.6-5-2-2.1-5.5.9-2.8 1.1-1-1.4-1.3.3-2.1.6.5.4-.6v-1.3c.1 0 0-1.5 0-1.5h.6v-1.4l-.8-.8-.2-.8-.4-1 .7-.7.3-.7-.9-.5 1-.8-.9-.8.2-.7-1.2.4.3-.6-.9-.7.7-.3v-.9h1.2l-1.2-1.1.4-1.1 3.7-3.5-1.8-1.8v-2l.3-1 .7-1.2h-.9c0-.1.1-1.3.1-1.3v-.7l.4-2.1v-1.2l.2-.9-.5-.7-.4-.9-.3-1 1.3-2.2-.6-.9 1-.3Z"/><path id="KH-18" d="m143.1 453.1 2.9 1.1-1.7.9v1.3c.1 0-1-1.2-1-1.2h-1.1v-1.8l.7-.4Zm-19.3-6.4h.9l.7 1.4-.6 1.7-1.8-.8.7-.9-.8-1.6 1 .2Zm15.4-1.4 1.9.2 2.3 1.6v4.1c.1 0-2.5 1.6-2.5 1.6l-3.6-3.2v-.6l1.3.1-.5-3.6 1.1-.3Zm15.6-41.5 1.7 1.4v3.6c-.1 0-.9.5-.9.5l-.7 2 1.4 1.3-.9 1.1 2.2 2.9-1.2 1.8v2.2l-1.1 1.1.3 2 2 3.4 1.1.4 1 3.6-1.4 4.5-1.1.7h-.8l-1.2.7-1.7-2.8v-1.4l-2-.8-1 .7-.8-.3.6-3.4-1.2-1.6-.2 1 .7.7v.7c-.1 0-.7 3.4-.7 3.4l1.5 2.3-6.4 9.9-1.3-.3-.4-1.1-2.7.4-2.2-.9-.2-1.3-1.2.4 1.8 2-.5 2.8-5-.9-.6.9h-2.4c0 .1-.3 1-.3 1l-1.1.2-2.4-1.7.7-2.7-1.1-1.9-1.3-.7-2.3 2-3.1-5.7-2.2-1.1h-.6l-1.1-1.3 1.1-2.3h1.1l1.6-3 1.2-.8V426c.1 0 2.6-.8 2.6-.8l1.1-1.3 1.1.7h2.2l.4-1.3 1.7 1 1.2-.7h3.6c0 .1 6.8-7.4 6.8-7.4l2.6-8.9 2.9 1.4 9.3-4.9Z"/><path id="KH-19" d="m404.3 52 1.3 2.8.2 2.6 1 1.3-.8 1.5.3.9 3.5-.8v1.3c.1 0 1.2-.1 1.2-.1v2.2l1.4 1.5.3 1.5 3-.5.3.9 4.8 1.6.9-1.3 1.4.6 1.6 2.9v1.3l-.8 2.5.3 8.6.9 3.7-.8 6 2.8 6.4.7 3.3-3.1 4.6-2.2.5-2.9 2.4h-3.2l-1.2 1-3.9-.6-.2 2.3.5 2.6.8.8-.2 2.6 1.2 1.8-.4 2.3 3 3.5-.8 1.8.6 3.4-4.2 7-2.9 2-5.3 1.2v11.4l2 .8 1.7 2.6 2.7 7.8 1.3 1 .2 1.1-1.1 1 .2 1 1.6.9v1.1c-.1 0 .5.5.5.5l-.3 2.5-1.6.5v1.7l-.7.4-2.5-1.4-1.6-1.7-2.3.3-1.8-.6-2.2-2.5-6.8-3.6-6.5 1.7-4.2-.7-.9.8-2.9-.7-2.3 1.7-.3 1.9-1.7.8-8.2-.9-4.4 1.5v1.9c-.1 0-5.8 7.3-5.8 7.3l-.2 3.3-1.8 1.1-3.6-1.5-.2 3.3-1.7 2.6-.2 1.7-1.7 1.1H344c0 .1-3 2.4-3 2.4h-2l-4.8-1.7-5.7-5-4.5-2.2h-3.5l-4.9-2.2h-1.7l-.2-2-1.7-1.9-1.9-.8-.3-8.8.6-3.9-1.3-3.9 2.7-3.9-.3-5.1.9-5.1v-4.1c-.1 0 .5-1.5.5-1.5l-1.2-5.4-1.5-3-1.5-.9-.9-1.6.4-3.9-.9-2 .8-2.6 2.4-1.1 2.6-2.4 1.8.7 1.9 2.2h.8l.6-1.1 3-.7 1.3 1.2 1-.4.8.6 1.5-.9v-1l-1-.7-.3-1.3 1-1.4 4.4-.6h10.6c0 .1 2.8-1.4 2.8-1.4l1.1.8 7.2.6 2.1-.7 9.2 1.9.4-3.5-.5-4 2.7-1.6.6-1.1 3-.6 1.7-4-3.4-2.1-2-2.3-1.7-3.7-.2-4-4.9-1.6-2.3-3.1-.5-1.7.6-2.2-1-3.6-2.4-1.2.2-4.9 2.5 2.6 3.6-.6 1.2 1.4.6-1.3-.4-1.4 1.3-.8 2.4 1.4 2.6-1.3 1.2 1.8 2.9.4 2.7-1.3 1.7-3.5.6-3.6.8-.8-1-1.8 1.2-2.5 1.2 1.4.8-.4 1.7.9.5 1.7h1l.7 1.1h1.3l3.7-1.4 3.8.3 1.1-1.1v-1.1l1.8-1.5-.9-1.5.4-1.8 3.5 1.1.7-.5-1.9-2.4.2-1.3 4.8-3.5 3-.3Z"/><path id="KH-20" d="m334.6 342.7 1.5 2.2 2.2.4 1.1-.5 1.2 1.1 1.1 2.3-.7 2.8.6 1.7-.9 2.1 2.7 1.4-.2 1.7-2.9 2.5.8 1.3-.8 1.7 1.1.5v.9l-1.5 3.9.4 1-.6 2.6 1.3-.7 2.8.6.3 3.8 1.5 2.2 3.5 2.1 4.5.5 1.2 4.8 3 1.7 2.1 2.4 1.2-.2 1.3 2.7 2-1.7 2.8-1.2 3.2 4.8.3 3 1.5 4-3.5.3-1.4-.8-.9.5.7 3.5-1.3 2.5 2.4 2.7 2.4 4.5.3 4.9-2.5-2.2h-8.7l-5.8-4.2-6.3-5.9 1.1 3.2-2.5 2 .6 2.3-3.6-.5-4.6-1.8 1.4-3.5-5.4-7.1-2.7-5.6-4.6.6-6 3.7-5.1 1.3-.5-2.1-1.4-.2-1.3-1.1 2.3-4.2.3-3.7 2.8-2.9-1.9-2-1-5.5 1.7-4.9 1.1-.9-.2-.8.9-.6.8.8h1.6l-1.6-5.4v-7.6l1.6-5.2-.3-3.1 1.8-2.1-.7-2.4 1.2-1.2.3-1.8 4.8-1.3.2-1h3.6l2.5-1v1Z"/><path id="KH-21" d="m232.3 365.6 2.2 1.4 4.2-1.6 3.3 1.1h1.7l3.8-.7 1.6.6 1.7 1.7 1-.3v2.9l-1.1 2.7.6 1.9 4.4 2.8.4 1.7-.5 2 .7.9h2.9l-.5 1.4.7.3v5.5c-.1 0-2.2 4.2-2.2 4.2l-.3 1.9.5.7-.7 2.1.5.9 3.3.7v2.8l1.1 3.3-1 1.9.4 1-.8.6 2.8 6.9-.2 1.6.8 2.1 2.6 2.3.6 3.4-13.4 8-5.7 8.7-2.8 2.5-10.8.4-3.9-1.3.6-.5-.7-1.2V440c.1 0-.5-.6-.5-.6l.3-3.1-3.4-.4-.2-7.2 3-4.2.2-2.4 2.2-1.5-2-2.5V415l-.8-2.2-2.2-3.6-1.5-.7-3.7.4-3.1 1.6h-4.7l-1.3-.8 1.8-3.4V403l-1.7-5.8-2.2-3.2h-1.2v-1.2l-1.8 1.3-.7-.6-.6-.6-2.2-1.1-2 .4v-5.8l4.7 1.4 5.2-.7 2.2 2.3 9.1 2.7.8-.7 4-.4v-6.7l2.1-13.3.6-2.5 1.9-2.5Z"/><path id="KH-22" d="m133.6 67 1.7.7-.8 4 .8 1.3 2.7-.2 1.4.7.6-.6 1.6 1.7 2.5-.8V75l2.2.4.9-1.7h1.1l1.4.3v.9l2.2 1.7.9-.3 4.5 1.3.7-1.9 2.9-.5 1.4.9 1.2-1.1.6 1.3 1.2.3 5.5-.7 2.1-3 2.9.5-.2 1.4.8.5 2.8-.6-.4-1.5 1.4-.8 1.4.2 1.8 1.5 2.8-1 .4-1.3 2.3-1.7 5.3 3.7 4.4-.7.7.5 1.3-.3.7.8.9-.6 1.5 1.2h2.8v1.4h.9l-1.5 6.2v2.2c-.1 0 .9 2.4.9 2.4l-.6 2.1-1.4.2v.6h-.1l-1.5-.8-1.4.4-3.2 4.8-3.4 1.8-4.2 1.1-1.6 1.6-3.3.8-2.5 2.1-3.8.6-.7 1.3-2.4 1.8-2.5-.3-6.1-5.5-1.4-2.6.7-3.1-1.9.7-5.4.2-1.8.8-3.8-.3-.4.8-3.7.5-1.4-.5-1.2.7-.3.7-3.2.7-.2 1.5-2.8 2.1-.3 1.4 1.1 1.1-2.1 1-.2 1.4-1.3-.2-.7.6v.9l-1 .8-.5-.6H135c0 .1.1 1.9.1 1.9l-2.1 1.9-1 1.6-2.2-.6h-1.5l-.9.7-.6.2.2.8-1.5.7-1.1 2.1-1.1-.3-.7 1.3-.6 1.1-1.1-.4-.7.3-1 1.1-.8-.2-1 .2-1.3-.6-1.8.5-.9-.6-1.3.7-1.6 1.3-.7.5-.6-.2v-1.2c-.1 0 .7-.7.7-.7l-.6-.5.3-1.2-5-1.9-5.5-8.8-6 7-4.3.5-1.5 1.1-3.1-5.7 2.2-2.6.2-1.4-.9-1.3L87 104l1.1-4.2h-8c0 .1-1.5-.6-1.5-.6L76 96.9l-4.9-10.8 2.3-2.3v-1.1h1.7l.8-1 3.9-.6.7-.5-.2-1.2 1.2-.6 1.2 1.2 1.3-2 4.9 1.1 4.3-2.7 13.6-.6.8-2.2 1.8-1 1.5 2.2 1.6.4L114 73h1l.6-1.3h2.3l.4-1 2.7-1.2h3l3.2 2.5 1.7-1.2h1.2l.2-.8-1.4-.3 1.2-1.5 3.5-.2Z"/><path id="KH-23" d="m188 442.5 1-4 1.7 1.4h7.2c0-.1.9.1.9.1l.6.7v2.4l1.3 1.8 1.4.5v1.9l.7.5-1 .6-.8-.6-.3.6.5.7.4-.3-.7 1.3 1.5-.4v.8l.9.8-1 1.2-2.5-.6-3.8-4.2-4.1 2-1.6-.2-.3-3.4-2-3.4Z"/><path id="KH-24" d="m23.5 206.5.6.7 1.3-.6 1.6.6.9-.7.9-2.6-.6-.2.4-1.6-1-1.5 1.8-1.7.7-.5-.3-.7.6-.6.7.3 2.3-.8v-.8l.9.3.6-.5 4.3 1.4 5.2 7.3.2 26.8-8.2 5.8-14.1 2.5-1.3-1.9.2-1.2-1-.8.6-1-.4-2.5.7-1.2h1l1.4-1.5.3-1.6-.7-1.2v-2.1c.1 0-1.3-.5-1.3-.5v-1.7l-1.6-1.7 1-.7V217c.1 0-2.2-5.1-2.2-5.1l1.5-1.3-1.4-1.7 2.2-1.7.7.4 1.3-1.1Z"/></g></svg>