<?xml version="1.0" encoding="UTF-8"?>
<svg id="Layer_1" xmlns="http://www.w3.org/2000/svg" xmlns:amcharts="http://amcharts.com/ammap" version="1.1" viewBox="0 0 512 512">
  <!-- Generator: Adobe Illustrator 29.1.0, SVG Export Plug-In . SVG Version: 2.1.0 Build 142)  -->
  <g id="_x3C_defs">
    <amcharts:ammap bottomLatitude="18.153878" leftLongitude="73.554302" projection="mercator" rightLongitude="134.775703" topLatitude="53.562517"/>
  </g>
  <g>
    <path id="CN-34" d="M356.4,289.8h.4c0-.1,1.3,1.3,1.3,1.3l-.2.2,1.6.3.5.7h1.1s0,1.1,0,1.1l.7.4-.2.6.9.8.5.3,1.3-.2.5.6.8-.4.5.8.4-.4.7,1.4h.4s-.2,1.6-.2,1.6h1.7s.2-.4.2-.4l1.8.2-.6,1.2v1.4s-.6,0-.6,0l-.8,2.4h.4s.5.8.5.8l.9-.3.2-.4.3.2.3,2,.6.3-.7.3v.8c.1,0,.4-.1.4-.1v.8c.1,0,.7,0,.7,0v.5s2.2-.2,2.2-.2l.6.3.3-.2v-1c0,0,.5,0,.5,0l.4-1h1.4s0,.5,0,.5l.7.8h.6c0,0,.4,2.1.4,2.1v.3c-.1,0-.4-.2-.4-.2l-.3,1-.5.4-.4-.6h-.4c0,0-.7-.4-.7-.4v-.3c.1,0-2.6,0-2.6,0l.2,1.1h.7s.1,1.3.1,1.3l-.4.4v.8c0,0-1.2.2-1.2.2v.7c0,0-.9.4-.9.4l-.2,1.4,1.1.9-.2.4.4.5.8-.2.4.3v.8c-.1,0,.4,0,.4,0l.4-.5.2.6h.5s0,1.9,0,1.9l-1.4,1.2.7.7h2.5s.7-.7.7-.7l.8.5h.5c0-.1.1-.5.1-.5l.3,1.2,2,.4h0l-.5,2.9-.7.5-.4,1.2-.5-.3-.6.6h-.6c0,0,0,.8,0,.8h.7c0,0,.6,1.6.6,1.6l-1.2.2-.2.5h-1.5c0-.1-.7-.7-.7-.7l-.6.4.3,1-.6.5h.4v2l-1.1,1v1c-.1,0-1.7,1.1-1.7,1.1l-.5,1-.7.3-.7-.2v.7c0,0-.6,0-.6,0l-.4.4h0l-.5-.3v-.8s-1-.7-1-.7l-2.5.3-.4-.6-1,.2v-.5c0,0-.7-.3-.7-.3l-.3-1.5-.5.3-.2-.4-.6.2v-.7s-.4-.2-.4-.2l-1.1.9.5.5-.2.7-1,.3-1.3,1.1-.7-.3-.3.3-.6-.7.2-.4-.2-.2,1.3-1.1.7-1.3-1.9-1.2-.6.2-.4,1.5h-.6s-1.7,1.1-1.7,1.1l-.5-.5h-.6c0,0-.5-1.2-.5-1.2v-2.3c0,0-.8-.9-.8-.9h-.6c0-.1-.2-.8-.2-.8l.5-.4-.4-.3.2-.6-1.3-1.6.2-.7.7-.2v-.9l1.7-.9-.2-.5-.9-.3-.5-1-.9.3-.9-.9-.6.6-.4-1-.5-.2-.8-1.3h0v-.9c0,0,1-1.1,1-1.1v-.6c0,0,1.6-1,1.6-1l1.1.2.8-.3.2-3.6-.5-3.1-.3-.2.7-.6-1.2,1v-.4c-.1,0-.2.3-.2.3l-.5-.2-.2.8h-.9c0,0-1.2-1.6-1.2-1.6l-.9.2v-.3s-.9,0-.9,0v-2.6l-2.6-1.3.4-.4-.2-1.1.3-.3.8.7h.9s1.2-.5,1.2-.5l.6-1.9-.4-.5.3-1.2h.4s.1-.5.1-.5l1.8-.3-.6-1.9h.4c0,0,.1-.9.1-.9h-.7c0,0,.4-1.6.4-1.6l.4-.3h1.3c0,0,.4.6.4.6l.3-.3.7.3v.9c.1,0,.8.4.8.4v.8c.1,0,.8.7.8.7l2.3-1v-.5s1.1-.5,1.1-.5l.6.2v-.8c0,0-.9-1.4-.9-1.4l.4-1.6h-1.7c0,0,0-.4,0-.4l-1.2-.7-.4-.8.3-1.2h0l.4.3,1.1-.9Z"/>
    <path id="CN-11" d="M360,238.7h-.8c0,0,0,.2,0,.2l-1.2-.3-1.4,1.1.4.8h-.9c0-.1-1.3-1.5-1.3-1.5h-1.6c0-.1-.2.1-.2.1l-.3-.3-1,.9h-.4l-.6-.9h-1s-.7-.6-.7-.6v-.9c0,0-.5-.4-.5-.4l1.2-.4-.4-.3v-.7s-.8-.4-.8-.4l.2-.8,1.4-1,1.1-.2.3-.5.5.4.3-.9.7-.4-.4-1-1.2-1v-.5s-.3-.1-.3-.1l.2-.4,1.3-.8.6.4,1-.4,1.1-1.9.5.3,1-.3.4.2-1-1.8,1.1.4-.2-.9h1.2s.4-.9.4-.9l.4.3-.2.6.4.8,1.1.7,1.2,1.5h1.2c0,0,1.4.4,1.4.4h1.6c0-.1,0,.2,0,.2h-.6s.1.6.1.6h-1.1s-.9.9-.9.9l.2,1.3,1.3,1.6h0v.6l-1.5.9h0l-1.6.6h-1.8s0,1.3,0,1.3l1.1.6.3.7-.4.9h0l-.8.9Z"/>
    <path id="CN-50" d="M291.8,313.6l1.2,1h.6s1.2,1.1,1.2,1.1l1.2.3,1.3,1.4.6.2v.8c.1,0,2.5-.1,2.5-.1h0l1.3.3v1.4s.7-.1.7-.1l1.3.5-.2.4,1.6.8.4,2.4-.6.5.4,1.1-.7,1.7-.5-.3v-.6c-.1,0-2,.5-2,.5l-1.6,1.9-.3-.2-.7.5-.9,1.2-.3-1.3-1.4,1-.4-.3.2-.8h-.6c0,0-1.8,1.4-1.8,1.4h-.7s-.3-.9-.3-.9h-.5s.1.4.1.4l-.6.6h-1.2c0-.1-.2.8-.2.8l1.4,1.3-.6,1.8.3.6v1.1c-.1,0-.8-.1-.8-.1l-.4.6h.3s.1.8.1.8l.6.2.7-1.4h.5s.2,1.6.2,1.6l.7.4.2-.2v.4s.5-.2.5-.2l.2.5h.3s-.3,1.2-.3,1.2l.6.5-.2.9,1.3-.7.5,1.2-.2.6,1,.8h0l.7.7-.7,1.6v.9s.6.4.6.4l-1,1,1.1.3-.4.8h0l-1,.8-.5,2-.5-.2-.3.5-1.5-.8-.4.4-.3-.6.4-.4v-1.1s-.5-.6-.5-.6l-.6.3.4.6v.6c-.1,0-.9-.2-.9-.2l.2-.6-.3-1.1h.3c0,0,.2-1,.2-1l-.5-.2-.8.3-1.1-.4.4-1.1-.7-2.7-.6.5-.3-.4h-1.1c0-.1-.4.4-.4.4h-.5c0,0-.9.6-.9.6l-.7-2.1-.6.4-.8-.2-.2-.5-.6.4-.3-.3-.4.2v.6c.1,0-.3.1-.3.1v.9c0,0,.5.6.5.6l-.9,1.2-.7.4-.9-1.1h-.9s-.2,1-.2,1l-.7-.3-.5.4v.3c-.1,0,.4.5.4.5l-.5.8-.4-.3-.4,1.5-1.1-.5-.2.2.7-1.6-.6-.3v-.3c.1,0-.9-1.1-.9-1.1l-.2.5.6,1-.4.8.3.4-.8-.3-.2.4h0l-.4-.3v-.7s-1-2.4-1-2.4h-1.4c0-.1,0-.5,0-.5l-.5-.3-.7.7-.8-.4-.7-1.5-.2-1.7-.3.3-1.6-.4-.3-.5v-.6c.1,0-.3-.4-.3-.4h-.5s0-1.5,0-1.5h.2c0,.1.6-.7.6-.7h.5c0,0,0-.4,0-.4h.7c0-.1.4-1.1.4-1.1l1-.2v-1.6c.1,0-1.6-1.4-1.6-1.4l1-.3-.3-.6.9.2v-1c.1,0,.8-.7.8-.7v.4c.1,0,.5-.2.5-.2l2.1.9.8,1.3.5-.5h1c0-.1.1-.6.1-.6h1c0,0,.6.2.6.2l-.2.4,1.1,1.8h1.4s.4-.5.4-.5l.4.4.4-.2,1.3-1.6,2.3-3.9-.7-1,.7-.9h.6c0-.1.5.3.5.3l.7-.7.4.7h.9c0,0,.9-.9.9-.9l-.4-.2v-.5c0,0,1-.7,1-.7l-.4-.6.6-1h-.5c0,0,0-.4,0-.4l1.3-.8-.2-.4.6-.9-.3-.3h1.1c0-.1.8-1.3.8-1.3h.4c0,0,.5-.4.5-.4v-.8c0,0-1.5-1-1.5-1l-.7-1,.8-.2-.2-.9h.8c0,0-.6-1.1-.6-1.1l1.2-.2Z"/>
    <path id="CN-35" d="M364.9,391.9l.3.4.7-.2v.3s-.2,0-.2,0v.6s-.5,0-.5,0v.7c0,0-.9,0-.9,0l.8-.9h-.7c0-.1.4-1,.4-1ZM381.9,378.6l.9.5-.2.4-.9-.4.2-.5ZM384.5,374.9v.5s.9.4.9.4l-.6.2v.4s.4.2.4.2l-.8.3v.4c0,0-.7-.7-.7-.7l.6-.3v-.8c0,0-.3.2-.3.2v-.3c-.1,0,.6-.6.6-.6ZM371.2,383.8l-.5.9.7.5-.2.7-.7.2-.2-1.2-.3.3.3.3-.5.2.3.3-1-.3-.2.4v.3c.1,0,1.5-.1,1.5-.1l-.3.5h.6c0,0,.3.6.3.6l-1,.7-.2-.2v.4c-.1,0-.4-.4-.4-.4l-.3.3.3.2-.3,1.1-.6.2-.7,1,.5-1.2-.9.2v.6c.1,0-.5.5-.5.5v.9c0,0-.4.7-.4.7v-1.6c.1,0-1.3-.5-1.3-.5l-.2.3h.5c0,.1.1.8.1.8l-.5.6-.3-.3-1.1.6v.8c.1,0-.7.1-.7.1h0l-1.2-.8-.6-1.7v-.9c0,0-.4-.8-.4-.8l.6-.8-.5-.4-.7-2.3-.8-.6.3-1.2-2.3.6-.2-.9-.9-.8.3-.4-.2-.3-1.2.7-.4-.7h-1c0,.1-.4-.3-.4-.3l-1.2-.3h0l.2-.5-.3-.3.5-.3-.6-1.4,1.3-1-.2-1.3.6-1v-1.1s1-.8,1-.8l-.4-.8,1.9-1,.2-.7.8-.6-.2-.6h-.6c0,0,0-.9,0-.9l1-1.2.7.2.3-.8-.8-.9.2-.7-.5-.6.4-.5v-.7c0,0,1.1-1.3,1.1-1.3l2-.3.9-.7v-.7c.1,0,1-.9,1-.9l-.5-.5v-1.5c0,0-.2-.7-.2-.7h-.5s0-.8,0-.8l.3-.2.3.4v-.5c0,0,.9,0,.9,0l.8-.8v-.9c-.1,0,.2-.3.2-.3v.4c.1,0,1.6-1.2,1.6-1.2l.7,1.1,1.1.6,1-1.3,1.4-.4.5.2.3-.9,1.8-.4.2-.8-.4-.3.9-.6h0l.5.5v-.4c0,0,.7,0,.7,0l.2.3.8-.5.8.6-.3.6.2.5-.7.6v.7c0,0,.8.6.8.6l.7,1.8v1.8h-.1l.2.5h.5s.4-.3.4-.3h.9c0,.1,0,.6,0,.6h.9c0,.1,1.1-.9,1.1-.9l.6.2.4-1.3h.4c0,.1.1-.2.1-.2h.7c0,0,0,.8,0,.8l.6.8h0v.7c-.1,0,.6.9.6.9h0v.2c0,0,1.3,0,1.3,0l.5-.6.3.4.8-.7h.9c0-.1.2.2.2.2h.5s0,.4,0,.4h0l.6.8-.2.2h0v.8c.1,0-.3-.8-.3-.8h-.6c0,0,0-.5,0-.5h-.5c0,0,0,.3,0,.3h-.4c0-.1,0,.5,0,.5l.3-.4,1.3.3.4.8-.5.4-.9-.2v1.1c0,0-.7.2-.7.2h.5c0,0,0,.5,0,.5l-.9-.2-.2.5-.4-.2v.6c0,0,.7.3.7.3l-.4.4.5.3-.5.3.3.4-.3.3v-.3c-.1,0-1.1.4-1.1.4l-.6.8h-.5c0-.1.1-.6.1-.6l.9-.4,1-1.5h-1.2c0,.1-.5,1.3-.5,1.3l-.3-.6h-.4s.5-.9.5-.9l-.4.2-.2-.4-.4,1.2-.9-.5v-.4c0,0-.3.2-.3.2l.6.5-.4.8h-.4c0,0,.3.4.3.4h1.1c0-.1.4.2.4.2v.3c-.1,0,.4.9.4.9l-.5.2-1-.7-.5.5h.6c0,.1.2.9.2.9l1.2-.8.2.7.8-.2-.6.5h-.8c0,0,0,.4,0,.4h-1.3s.1.6.1.6l-1.2,1.3,1.7.6-.2.8h-.5c0,.1-.2,2-.2,2l-1,.5.3.6.7-.2.2.3-.3.4.6.8v.6s-.5.1-.5.1v-1.1c-.1,0-.6.4-.6.4h.4c0,0-.5.3-.5.3l-.6-.8v-.2c.1,0-.7-.4-.7-.4v1s-.4.2-.4.2l-.3-.7-.9.9.5.3v.8c0,0,.3-.5.3-.5l.9.6-.6.2v.5c0,0-1,0-1,0l-.4-.4-.2.4.5.4-.5.2-.6-.2.4-.9h-.8c0,0,.1-.3.1-.3h.5s-1.3,0-1.3,0l.2.6h.5s-.4.5-.4.5l.3.2h-.8s-.2.3-.2.3l.9.7.5-.5-.3.7h.5c0,.1-1,.2-1,.2v.4s.6.3.6.3l-.9-.2-1.1.4-.4-.4-.4.4v.5c.1,0,.7-.2.7-.2v.3c0,0,.5,0,.5,0l-.5.9h-.5s.3.6.3.6l-.7.7-.3-.6-1-.5v-.5c0,0-.2.9-.2.9h-1.1s-.5.6-.5.6l-.3-.3.2-.8-.4-.3Z"/>
    <path id="CN-44" d="M327.6,409.7l-.6.7v.9c0,0-.3.2-.3.2l-.3-.4.5-.6-.7-.2,1.4-.6ZM331,408.6v-.5c-.1,0-.5,0-.5,0v.5s.5,0,.5,0ZM309.1,414.7h-.8c0,.1,0,1,0,1l.7-1ZM309,417.7l.3-.6-.4-.2-.3.7h.4ZM325.9,410.9v-.7c0,0-.6.2-.6.2l-.5.9,1.1-.4ZM362.1,393.1v.9c.1,0,1-.7,1-.7h0l-1.2-.8-.6-1.7v-.9c0,0-.4-.8-.4-.8l.6-.8-.5-.4-.7-2.3-.8-.6.3-1.2-2.3.6-.2-.9-.9-.8.3-.4-.2-.3-1.2.7-.4-.7h-1c0,.1-.4-.3-.4-.3l-1.2-.3h0v.5c.1,0-.5-.2-.5-.2l-.5,1.4.7,1.6-1,.2-.4-.5-.8-.2-.8-1.2-.5-.2-2.5,1.1-.4-.4-1.3.4-.3.9-1-.5-.3.8-.4-.4-1.9.8-.6-.9h-.4c0,.1-.2-.4-.2-.4l-.9-.4,1.3-.7.6-1.2v-.7s1.1-.6,1.1-.6l.2-.6h.7c0,0,.7-.3.7-.3l-.4-.5.5-1-1.7-1.3-1.2.9h-2.2c0,0-.7.6-.7.6v-1s-.6-.9-.6-.9h0l-.6.2-.5,1h-.5s-.1-.3-.1-.3l-1.5.4-.3-.5-1.4-.3-.5-.4v-.7c0,0-1.2.3-1.2.3l-.3.7-.9.6-.7.4-.6-.2v.8c0,0,1,0,1,0l.4.5-.6.3.4.7-.3.5.2.9-1.2.3h-.7l-1-2.1h-1s-.8-.5-.8-.5l-.4.4-.3-.4-.8.3-.4-.4-.8,2,.5.6v.7c-.1,0-1.2.9-1.2.9h0l-.5.2-.3.8.6.7v.7c-.1,0,.5,1,.5,1l-.7.9-.9.4.5,2.2-.6.2-.4,1.2h-1.3s-.2.7-.2.7l.4.2-.4.6h-1.1c0,.1,0,.9,0,.9l-.6.7-.4,1.6.3,1.1-.2.6.4.5-.6.7v.6s-1.2,1.3-1.2,1.3l-1.3.2.3.3-.3.4-2.1.8-.3-.2-.2,1h-.5s.2.9.2.9l.6.7h-.7c0,0-.5,1.2-.5,1.2l-.6-.4-.5.4-.7-.5-.4.4-.3-.2.3,2.7-.7-.2-.4.3h-2.2s-.7,1.9-.7,1.9l-.8.2-.2-.3-.2.9h0l.4.9,1.2.2-.2.7h-1.3c0,0,0,1.2,0,1.2l-.8.9.3.5-.4,1.4.9,1.7-.2.7.7.5v.7s1.6.5,1.6.5l-.3.5-.6-.5-.4.3.6.6v1c0,0,.5-.6.5-.6l1.2.4h1.4c0-.1,1.1-.7,1.1-.7l.8-1.3-.6-1.7-1.1-.2v-.4c0,0,.4.3.4.3v-1s-1.6-.4-1.6-.4l-.3-1.1,1.1-1-.7,1.3,2.2-.4.5.6.2-1.2h-1.8c0,0,.7-1.1.7-1.1l1.8-.3,1.2-1.5h.9c0,.1,1.6-.6,1.6-.6h-.6c0,0,.1-.6.1-.6l.6.6,1.5-.3-.2.7,1.6-1.3.2.5h1.4c0,0,1.1-1.3,1.1-1.3v-.5s-.7-.6-.7-.6h.8s.5.9.5.9l.4-.2-.2.4h-.4s-.2.8-.2.8h.4s1.3-.7,1.3-.7l-.7-.2v-.6s1.6-.7,1.6-.7h.6s.5.9.5.9l1.2-.3.2-.8,1.5.5,1.5-1.6.6.2.5.6.9-.8-.2-1.3.6-.6v-.5s.2,1.3.2,1.3l.7,1,.7-.9.8.6.4-.7-.3-.2.2-.9.8,1,.4-.4-.3-.5.6-.6-.2-.5.5-.7h-.7c0-.1,0-.5,0-.5l.9-1.5-.8-1.2.5-.2v-.4c0,0,.4.5.4.5h.7c0,0,.8,1.7.8,1.7l.4.2-.3.3.2.4.4-.6.9.2h0l1-.5h.5c0,.1,1.4-.5,1.4-.5l.7.7v.8c.1,0,1-.4,1-.4l-.5-.7h-.4c0,.1.8-.7.8-.7h-.8c0,0,.2-.5.2-.5l.4.2v-.5c0,0,1.6-.4,1.6-.4v-.5c.1,0,.5.4.5.4l-.7.4v1.2s1.1.1,1.1.1v.4s.7-1.3.7-1.3l-.7-.2-.2-.5h.7s.3.7.3.7l.4-.2.2-.7.8-.2.3.3.3-.5h.3c0,0-.2.5-.2.5h1.6s-.2.3-.2.3h-.4c0-.1,0,.3,0,.3l1.8.6.3-.9h-.4s0,.4,0,.4l-.2-.4,1-1,1,.2.5.9,1.5-.8h1.2s1.2-1.1,1.2-1.1l1.7.2.5-.8v-1.2s.7,0,.7,0l.5-.7.6.3-.3-1.2.9-.8.2-1.1h.7c0,0-.3-.4-.3-.4l1.2-.4ZM361.4,394.7l-.3.3,1.5.3.2-.5-.2-.3-.9.4-.3-.2Z"/>
    <path id="CN-62" d="M198.6,204.2l5.4,12.3-1.9,2.2,3,4h.3c0-.1,2.9,2.3,2.9,2.3v.5c.1,0-.8,3.4-.8,3.4l3.2-.2,1.8-2.3,2.6-1.2,3.2.2.9-.9,3.4.5,1.1,1.7v1.3c.1,0-1.7,2.2-1.7,2.2l-.9,2-2.4,1.6-1.4,2h2.6c0-.1,2,1.5,2,1.5l2,.6.6,1.8,1.5.4v.9s2.9,0,2.9,0v4.1s.8-.4.8-.4l.6.9,1.7-.7-.4.7.6.9.7.2v.7s1.6.6,1.6.6l.7.7.5-.3.8.3.6-.2v-.5c0,0,1.9-1.8,1.9-1.8l-2.2-2.2,3.2-.7,2.1-.9,1.2.8,3.2.8,3-2.6,3.9-1.2h.9c0,0,1.2.4,1.2.4l-.3,1.3,1.3,2.2-.3,1.6-1.2.5-1.3,2.6-3.8,2.5.6.8.5,1.8-1.5.7.4,2.5,2.1.6,4.2,3.9.8-.2h3.8c0,0-.5.7-.5.7l.3.3-1,.7.3.5.7.3.6-.5.5.3,1,1.8,1.6.6.2,1,.7.2.5.8-1.1.8.5,1.4-.2.3.8.4.5,1.5.6.7.3,1.5v.5c-.1,0-.7,0-.7,0l-.8.9v1.3s.6.4.6.4l-.2.5.4-.2.3.7.8.3v.4c0,0,.8-.6.8-.6h.9c0,0-.5.6-.5.6l1,1.2.2.8.4-.6,1.6.5-.3.5v-.3s-1.2.3-1.2.3v.5s1.5-.5,1.5-.5l-.2.3.4.7.5-.8.5.3v.7c.1,0,1,1,1,1l1.1-1.2-.5-3.4.8-.5,1.6.6v-.4c.1,0,.6.1.6.1l.9-.9-.6-.8.7-.4-.4-.2.4-.4v-1.5s-.3.1-.3.1l-.7-1.1h-.5c0,.1-1.6-.6-1.6-.6l-.2.4h-.5c0-.1.2-2.2.2-2.2l-1.3-.9h.8c0,0-.1-.5-.1-.5l.7-1.1.5-.2.5.3v-1.7s-.4,0-.4,0l-.5-.9.3.4.5-.2-.2-1.8,1.2.4.3-.7.9.5v-.5s1,.4,1,.4l1.2-.4.9.7h0l.3,1.7h1.5c0,.1.5.9.5.9h1.2s1.8.7,1.8.7l.4,1.1.5-.2-.2.4.4.4.9.4.5-.7v.6s1.1.2,1.1.2l.7,1.2.7-.4,1.6,1.1-.5,1.1.5,1.3-.2,1.2-.3.7h-.6s-.7.6-.7.6l.2,2.4.8.9v2.1c-.1,0-1.1.6-1.1.6l-1.2-.2-.9.4-.5-.4-1.8.7-1.9-.6v.5c-.1,0-.7,0-.7,0l1.7,2.5-.4.4-1.4.3-.6-.4-.3.6-1.9-.2-.8.5-.2-.6-.6-.3v-.5s-1.4-.7-1.4-.7h-3c0,0-.5.9-.5.9l.7,1.9v.6c-.1,0-1,.6-1,.6v.6c.1,0-1.1.6-1.1.6l.2.6h1c0,0,.9.3.9.3l.6,1,.6.2-.4,1.2-1.2-.4-.2.4h.4c0,.1.3,1.1.3,1.1l-.7.4-.7,2.1.6.5-.3.5.2.8.5.2.4,1.1-.5.8-.6-.3-.2-.8-1.2.2-.8.5-.6-.2v-.4s-1.2,0-1.2,0l-1,1.1v1.1c-.1,0-1.1,0-1.1,0l.7,1.2,1.4.5v.6s-.3-.5-.3-.5l-.3.4h.3s-.1,1.5-.1,1.5l-.5.5-1.8.6-1.1-.3h0l-.5-.2-.5.5.6,1.3-2.8,1.4-.6-.5-1.3.5-.4-.6-.8.2-.3-.4h-.5c0,.1-.5-.5-.5-.5l-2.2-1v-1.1c-.1,0,.5,0,.5,0l.5-.7-.7-.3.3-.7-.6-1.9.8.2.2-.4h-1.1c0-.1-.6-.8-.6-.8l-.5-1.4v-.7c.1,0-.9-.8-.9-.8l-2.3.3-1.5-.5-.7.3v-1.3s-.6.6-.6.6h-.7c0,0-1.6-.6-1.6-.6l.2-.9-.5-.6.3-.4-.2-.5.4-.3-.5-.8-1-.2-.3-1-.5-.2-.4.4h-.9c0,0-.3.7-.3.7l-.7.4.4.8h-1.9c0,0-.3,1.1-.3,1.1l-1-.2-.7.4.6,1v.6c-.1,0,.5.3.5.3l-.2.5.4-.2v1.1s.9.4.9.4l.3,1.1-1,.7-.8-.3-.7.8.3.3v.9c-.1,0-.9-.5-.9-.5l-.3.7h-.7c0,0-.9.8-.9.8h-.4c0-.1.1-.9.1-.9l-.5-.5.8-.6.6-1.3-.8-1.7h-.3c0,0-.2.7-.2.7h0l-.3.4h-.9s-.3-1.7-.3-1.7l-.7-.3h-.6c0,0-.3.5-.3.5l-1.3-.3-.6.2.2-1.3-.4-.5-1.4-.6-1.8-2.7.4-1.4.6-.6h.7s.6.5.6.5l1.7.3.5.5,2.4.6.3.6.7.4.9-.7.8.4.9-1.8.7.2.3-.9h.6l-.8-1.5-1.8-.8v-.8c-.1,0-.8.5-.8.5l-.9-.8,1-.7.6.3v-1.4s1.8-1.4,1.8-1.4l1.2-.4.5-1h.4c0-.1-.4-1.2-.4-1.2l-.6-.2.3-.3v-.9c-.1,0,1,0,1,0l.9-1.4,1.5.4.3-.9-.6-1.8.8-.6,1.4.3v-2.1c.1,0-.6-.5-.6-.5l.9-1.1h.6c0-.1-1.9-1.5-1.9-1.5l-.9-2.8-.7-.3-.3-.6,1.1-.6-2.2-2.1.3-1.2.8-.8-1.3-1.3h-.6c0,0-.1-.4-.1-.4l-1.1-1-1.6-.5.5-1-.7-.4-.2-1.6-.9,1-.3,1.6-.7-.2-.3-.7-4.3-2.7-.8-1-3.8-1.7-.3-1.5-2.2-.8-.9-1.4-.9-.4-.2.9.7.8v1.2c.1,0-4-2.3-4-2.3l-1.2-1.2-.2-.7h-.5c0,0-.7-1.1-.7-1.1l-2.4-1.9.3-.6-.7-.3-.2.2-1.5-1.3h-.5l-1.5,1.6-1-.2-.6-.8h-.8c0,0-.2.8-.2.8l-1.5,1.7-.6-.7-2.6-1.1-.2-.5-2.7-1.7-2.6-.4-.7,1,.4.5-.3,1.8.3.3v1.5s-.5.3-.5.3v.6s.5.3.5.3l-.3,2.6-3.4-1.1-.2-.9-1.7-1.1-.8.2-.7-.6-.4.3-.4-1-1.2-.3-1-1.1v.2c0,0-.7-.3-.7-.3l-1-1.4-1.3-.6-1-1.4-1.1.3-1.9-.7h-1.6s-.8-.7-.8-.7h-2.9s-.2-.3-.2-.3l-2.1.8h-1c0,0-.3-.2-.3-.2l-1.1.3-1.7-.4-.5.7-3.3.8-.7-.2h0v-3c0,0-.6-1-.6-1l-.9-3.5,1.3-2.4v-4.2s3.6.3,3.6.3l2.4-1.5,1.4-2.8,1.6-2.3,5.6-5.8,3.3-1.7,3.8-.8,1.2.4,1.4-.2,1.1-.6.5-1.3-.2-1.1.6-5.4,2.2-1.3h0l2.6-.3,2.1.3,2.1-.7Z"/>
    <path id="CN-45" d="M299.7,371.6l.4.3.9-.5.7.6-.5.9h1c0,.1.3-.3.3-.3l-.3-.9h.6c0-.1.8-1.6.8-1.6l.5.4h.5c0-.1-.1,1-.1,1l.7.2.3-.5.5,1h.6c0-.1.4-1.2.4-1.2l1.1-.8.9-1.4.8.4.3-.2.2.6h1.3c0,0,.4-1.2.4-1.2l.2.6,2.2.5v1.2s-.5,1.1-.5,1.1v1c.1,0,.7.4.7.4l.4-.4,1.3.3-.6.3v.6c.1,0-1,.5-1,.5l.3,1-.4,1.5-1.6,1.4v.6s-.8.5-.8.5l-.3,1.4.3.7h.4s.4-.2.4-.2v-.8s1.4-1,1.4-1l.6.4.4-.3.3.3v.5c-.1,0,.3.2.3.2l-.3.4.4,1.6-.3,1.2,1,.3,1.2-1.3,2.6.4h0l-.5.2-.3.8.6.7v.7c-.1,0,.5,1,.5,1l-.7.9-.9.4.5,2.2-.6.2-.4,1.2h-1.3s-.2.7-.2.7l.4.2-.4.6h-1.1c0,.1,0,.9,0,.9l-.6.7-.4,1.6.3,1.1-.2.6.4.5-.6.7v.6s-1.2,1.3-1.2,1.3l-1.3.2.3.3-.3.4-2.1.8-.3-.2-.2,1h-.5s.2.9.2.9l.6.7h-.7c0,0-.5,1.2-.5,1.2l-.6-.4-.5.4-.7-.5-.4.4-.3-.2.3,2.7-.7-.2-.4.3h-2.2s-.7,1.9-.7,1.9l-.8.2-.2-.3-.2.9h0v1s-.8-.5-.8-.5v-.7c.1,0-.1.4-.1.4l-.2-.2-.3-1.4h-.3c0,0,.3,1.4.3,1.4l-.3.6-2.4.7v-.4c-.1,0-.2.5-.2.5h-.6c0,0-.9-.3-.9-.3l1-.6-.2-.5-.7-.4h-1.1c0,0-.5-.6-.5-.6v-.8c.1,0-.1.8-.1.8l.3.6-1,.2-.8-1.4-.3.4-.3-.3v-1c0,0-.2-.2-.2-.2l-.5.5.8,1.5-.7.9h-.7c0,0,.2-.9.2-.9l-.4.6v-.5c0,0-.4,0-.4,0v.7s-.8.7-.8.7l.2-1-.8.4.3.3h-.5c0,.1-.3-.2-.3-.2h-1.1c0,.1-.8-.9-.8-.9l-2.7.6-.5-.7-.9.6-.5-1.3-.6.3-1.7-1,.3-1h-.8c0,.1-1.6-.7-1.6-.7l-.7.3v-2.6c0,0-.3-.6-.3-.6h-.8c0,0,.2-.4.2-.4l-.2-.6.4-1.4h1c0,0,.3-1.2.3-1.2l.6-.6-2.6-1.3-.2.4-1.2.4h-.6c0-.1-.7-1.2-.7-1.2h-1.6s0,.4,0,.4h-1.1c0,.1-1.1-1.1-1.1-1.1h-1.3c0,0,.2-.7.2-.7l-.4-.4h0v-.5c-.1,0,.4-.6.4-.6l.5-.4.3.2-.3-.6,1.3-.6.2-.4,1.3.2v.4c.1,0,1.3-1.1,1.3-1.1v-2s.5-.7.5-.7l-.8-1.4-.8-.9h-.7c0,0-.2.7-.2.7l-.5.2-.6-.4-.9.3-.5-.9h-.6c0,0-.4,1-.4,1l-1.4-.9-.5.4-.7-.6.4-.4-.4-.8v-.5c.1,0-1.1-.9-1.1-.9l-.9.3-1.9-.3-.2,1.1-.7-.5-.8-1.7-.2-.7.4-.7h0l1.6,1,.9-.5.2-.6,1.3-.5.3-1.1,1.1-.7.5.6h1.3s.7,1.1.7,1.1h.7s1.8.9,1.8.9l1-.2.7.8,1.3-1.2.2-.9-.4-.9,2.4-.6,1.2-.6.6-.7h1.9c0-.1.3-.7.3-.7h.5c0,0,.2-.9.2-.9l-.4-.8.9-.7v-.4c0,0,1.3-.4,1.3-.4v.4s.9.6.9.6l-.2.5.9.3v.9c0,0,.5-.1.5-.1v.8c0,0,1.5-.9,1.5-.9l.2,1.1.5-.4.2,1.1h.6s1.2-.7,1.2-.7h.9s.2-1.6.2-1.6l.4-.2-.3-.3h.7c0,.1.7-.8.7-.8l.8.8h.6c0,0,.9,1.1.9,1.1v-1.3s.7-.5.7-.5l-.2-.5.4-.4h.6c0,0,.2.9.2.9l1.1-.3.8.3.3-.2-.3-.9.3-.8h-.6s-.5.6-.5.6l-.4-.4.6-.2.2-.5,1-.2.2.5h.4c0-.1,0-.5,0-.5l.6.7h.8c0-.1,0-1,0-1l1.2-1.8Z"/>
    <path id="CN-52" d="M300.3,365.3h0s.3-.4.3-.4v.3h-.2ZM274.2,348.6l.2-.4.8.3-.3-.4.4-.8-.6-1,.2-.5,1,1.1v.3c-.1,0,.5.3.5.3l-.7,1.6.2-.2,1.1.5.4-1.5.4.3.5-.8-.5-.5v-.3c.1,0,.6-.4.6-.4l.7.3.2-1h.9s.9,1.1.9,1.1l.7-.4.9-1.2-.6-.6v-.9c0,0,.5-.1.5-.1v-.6c-.1,0,.2-.2.2-.2l.3.3.6-.4.2.5.8.2.6-.4.7,2.1.9-.7h.5c0,0,.4-.5.4-.5h1.1c0,.1.3.5.3.5l.6-.5.7,2.7-.4,1.1,1.1.4.8-.3.5.2-.2.9h-.3c0,0,.3,1.1.3,1.1l-.2.6.8.2v-.6c.1,0-.2-.6-.2-.6l.6-.3.5.6v1.1s-.4.4-.4.4l.3.6.4-.4,1.5.8.3-.5.5.2.5-2,1-.8h0v1.7s.2.4.2.4h.7c0,0-.7,2.1-.7,2.1l.6.2-.6.7.3,1.1-.2.5,1,.4.2,1.5-1.3.9v.5c0,0-.8-.2-.8-.2l-.4.3v-.2c-.1,0-.4.8-.4.8l-.5.3v.4c.1,0-1.2.7-1.2.7l-.2,1-.8.3.7.8,2-1.2v.5c-.1,0,.4,0,.4,0l.7-.7,1.8.2v.6c-.1,0,.3,0,.3,0l.4,1.2-1,.6h.6s0,1.1,0,1.1l-1.9.6.6.4.4,1.1-1.1,1.9.5.7,1.2-.4-.3.5.6,1.1-.3.4v.4h.1l-1.2,1.8v.8s-.8.1-.8.1l-.6-.7v.4c0,0-.3.1-.3.1l-.2-.5-1,.2-.2.5-.6.2.4.4.5-.5h.6s-.3.8-.3.8l.3.9-.3.2-.8-.3-1.1.3-.2-.9h-.6c0,0-.4.5-.4.5l.2.5-.7.5v1.3s-.9-1.2-.9-1.2h-.6c0,0-.8-.7-.8-.7l-.7,1h-.7c0-.1.3.2.3.2l-.4.2-.2,1.6h-.9s-1.2.7-1.2.7h-.6s-.2-1.1-.2-1.1l-.5.4-.2-1.1-1.6.9v-.8c0,0-.4.1-.4.1v-.9c0,0-1-.3-1-.3l.2-.5-.9-.6v-.4s-1.4.4-1.4.4v.4c0,0-.8.7-.8.7l.4.8-.2,1h-.5c0,0-.3.5-.3.5h-1.9c0,.1-.6.9-.6.9l-1.2.6-2.4.6.4.9-.2.9-1.3,1.2-.7-.8-1,.2-1.8-.9h-.7s-.7-1.1-.7-1.1h-1.3s-.5-.6-.5-.6l-1.1.7-.3,1.1-1.3.5-.2.6-.9.5-1.6-1h0v-.8c.1,0,1.5-1.5,1.5-1.5l-.3-.6h-.5c0,0,.4-.2.4-.2l.6-1.3.6.4v-.8c0,0-1.3-.4-1.3-.4v-.6c0,0-.9-.4-.9-.4v-1.1c.1,0-.9.4-.9.4v-.9c0,0-.9-.2-.9-.2v-.5c-.1,0,0-.9,0-.9l.4.2.5-1.3v-1.8c.1,0,.7-.2.7-.2l.2-1.4,1.2-1.1v-.5c-.1,0-.9-.8-.9-.8v-.5s-.9-.2-.9-.2l-.4-1-.6.8-1.7-.2-1,1.2-1.6-.2-.5-.8.2-1h-.3s-.3-.7-.3-.7l.6-.6v-.7s-.6-.9-.6-.9l-.7.4v-.6c-.1,0,.4,0,.4,0l-.3-.4.6-.2,1.4-1.6.5-1.2h.7c0,0,0,.6,0,.6l1.4,1,.6-.3.9-1.5,1.3.6.2.6.7.2,1-.3.3.2.3-.3.4.6,1.7-1.2,1,.4.6-1.3-.3-.3.6-.7v-.8h0l1.5-.6,1.2,1.1,3.6-1.1,1,.2,1.2-.6v-1.4c-.1,0-.6-.4-.6-.4v-.7c0,0-.9-.7-.9-.7l-.9.2v.3c0,0-.7-.3-.7-.3h-.6c0,.1,0-1,0-1l-.6-.6-.3-.2-.4.6-.7-.4-.2-1.6,1-1.2h1.3c0,.1,0-.4,0-.4l.7-.9,2.9,2.4h.4c0,.1,0-.3,0-.3Z"/>
    <path id="CN-46" d="M309.7,423.8l.8,1.3h1.3c0,0,.8,3.2.8,3.2l-1.4,1.1-.3-.6.5-.2h-.7s.3.6.3.6l-.6,1-.7.3v.6s-1,1.5-1,1.5v1c.1,0-.3.9-.3.9l.2,1.3-.6.2-.4.9h-1.1c0,0-.7.4-.7.4l-.8.8-.4,1.2-1-.3-1.4.2-.3,1.6h-.8c0-.1-.3.5-.3.5h0s0-.4,0-.4h-.5c0-.1-.3.2-.3.2v-.5c.1,0-.2-.3-.2-.3h-2.3s-.6-.7-.6-.7h-1s-.2-.3-.2-.3l-2.2-.9v-2c0,0-.5-.9-.5-.9l.3-.8-.4-1.4.5-.6-.4-.3v-.7c0,0,.5-.7.5-.7h.4s2.2-1.8,2.2-1.8l2.2-1.3v-.4s-.7.4-.7.4l-.2-.5.8-1h.4c0-.1,1.6.5,1.6.5l.3-1,.6-.4h.7c0,0,.8.5.8.5v-.4c.1,0,.4.4.4.4l.7-.4.7.4.9-.4.3-.5,1,.3.8-.5,1.8.8.2.7-.3-1.5,1-.6Z"/>
    <path id="CN-13" d="M363.2,233.6l-.5,1.7.2.5.8.3-.8.3.3.5-.3,1.5-1.5-.2-.2-.7h-.4c0,.1.4-.8.4-.8l-.3-.7-1.1-.6v-1.3s1.8,0,1.8,0l1.6-.6ZM338,226.6l-.8-1,.3-.3-.8-1.4-1.3-1.2.8-.8h.6c0-.1.3-.7.3-.7l-.8-.6v-1.1c.1,0-.4-.6-.4-.6l1.3-.9h1.8c0,.1-.3-3.1-.3-3.1l1-1.3,1.3-.5v-1.6c0,0,.6-.3.6-.3l1.5.3.5-.7.4.5-.4.8.6.6.4,1.8-.6.3.2,1.2-.3,1.1,2.1-.4,1.1.6.3-.5.2.3.5-.2-.4-.6.2-.4,2.6-1.3,1.5-1.2h.8c0,0,.6,1.7.6,1.7h.5c0,0,.4,0,.4,0v-.7s.8-.1.8-.1l.2-.7.9-.8h.7c0,.1-.1.7-.1.7l.8-.4.5.6h1.5c0,0,.1-.6.1-.6l1.1-.4v-1s-.8-1-.8-1h1.1v-2.3c0,0,1.5-.9,1.5-.9l2.3.2.7-.7v-.6c0,0,.6,0,.6,0v-.3c.1,0,.6.5.6.5l1.6-.5,1.8,2.4v.5c0,0,.3.5.3.5l-.7.6,1.1.8v.7c-.1,0,.4.3.4.3l-.3.5h.7s.1-.5.1-.5h.4c0,0,.2.5.2.5h-.4c0,.1.6.6.6.6l-.4.7.6.8-.4.9-.9-.5-.3.8.7,1.7.7.2v.6s-.4.4-.4.4l.7.5v1.2c.1,0,1.5-.4,1.5-.4l1.9.3.7-.5.4.8.5-.2,2.1.4.3-.4h0v.7s-.6.4-.6.4v.4c.1,0-.7.6-.7.6v.5c0,0-1.1.2-1.1.2v.4c0,0,.6.3.6.3l-.3.5h-.8s-.4,1.7-.4,1.7l1.7,1.5,1-.3-.2,1h.7s0,.4,0,.4l.5.4h2.4s.2,2.1.2,2.1l.4.8-.2.4,1,.5.2,1.5h.6s0,.6,0,.6h0l-2.2.9-.3.2v.8s-.5,0-.5,0l-.9.7-.8,2.4.4,1.1-.3.6h-.5c0-.1-1.7,1.8-1.7,1.8l-2.1.6-1.2-.3-2.2,1.5-.9-.4-1.3-1.7h0l-.5-1.5-.6-.5h-.6c0,.1.5-1.8.5-1.8l-1.4-.2-.4.6v-.4c-.1,0-.7-.1-.7-.1l.4-.8-1-1.1-.3-1.2.2-1h1.4c0,0,.5.2.5.2l.2-.5h-.5c0-.1,0-.7,0-.7l-.8-.3-.8-1.4h-1.3s-1.3-1.6-1.3-1.6l-.2-1.3.9-.9h1.1s-.1-.6-.1-.6h.6s0-.4,0-.4h-1.6c0,.1-1.4-.4-1.4-.4h-1.2c0,0-1.2-1.4-1.2-1.4l-1.1-.7-.4-.8.2-.6-.4-.3-.4.9h-1.2s.2.9.2.9l-1.1-.4,1,1.8-.4-.2-1,.3-.5-.3-1.1,1.9-1,.4-.6-.4-1.3.8-.2.4h.3c0,.1,0,.6,0,.6l1.2,1,.4,1-.7.4-.3.9-.5-.4-.3.5-1.1.2-1.4,1-.2.8.8.4v.7s.5.3.5.3l-1.2.4.6.4v.9c0,0,.6.6.6.6h1s.6.9.6.9h.4l1-.9.3.3.2-.3h1.6c0,.1,1.3,1.5,1.3,1.5h.9c0,.1-.4-.7-.4-.7l1.4-1.1,1.2.3v-.3c0,0,.7,0,.7,0h0v1.6s.5.3.5.3l-.3.9.3-.2.2.3-.3,1.4.6.7-.2.8-1.2.4-.4,1,.4,2h.7l.7.5h.8c0-.1.7,1.1.7,1.1l1-.4.2.6,2.4-.4v-.5h.1l1.1,2.9,1.3,1.3h0l-1.4,1.9h-1c0,0-1.2,2.4-1.2,2.4l-5.2.2-3,3.7-.9-1.1-.4,1.1h-.4c0,0,0,.4,0,.4l.4.3-.3.4-.7-.2-1.5.5-.2,1.1-.5.3-.3,1.3-.7.8-.8,1.8-1.7.5-1.2,1.5-.5,1.2.6,1.9h.5c0-.1.4.5.4.5v.9h0l-1.2.8-.7-1-1-.2v.4c-.1,0-.6,0-.6,0l-.4,1-.7.3-.2-.9-2.4.2-1.6-1.1-2.8-.5-.4-.8h-.4s0,.4,0,.4l-.2-.4-.9.2-.9-.3h0l-.2-.6-1.3-.7.3-.7-.4-.6-.5-.2.2-.7h-.3s1.8-.9,1.8-.9v-.9c.1,0,.6.3.6.3l.3-.2-.2-2.8,1-1,2.1-4.5-.6-.5h-.6c0,.1.4-.5.4-.5l-.6-.5-.8-2.5-.5-.5v-.5c.1,0-1.9-.7-1.9-.7l-.3-.4-.2-1.2.5-.9-.2-1,.4-.9h.8c0,0,0-.7,0-.7h.4c0,0,.3-.6.3-.6h.3c0,0,.1-.7.1-.7l-.7-.6v-.9c0,0,.9-1,.9-1l1.3-.8.5.9h.7s.7-.7.7-.7l.6.4.2-.9.7-.5-.4-.3v-.6s1.1-2.7,1.1-2.7l-1.2-1.1.2-1.5-.4-.8h-1.4s-1.3-.5-1.3-.5l-.3-.8-.9-.2.5-.3.2-.9.3.7.4-.2v-1.2s.4.1.4.1l.9-.2.2-.4,1.6-.2.6-.8-.7-.4h-1.1s-.4-1.2-.4-1.2v-1.1c.1,0-.6-.4-.6-.4l-.5-1.2Z"/>
    <path id="CN-41" d="M334.7,272.5l.9.3.9-.2.2.4v-.4s.3,0,.3,0l.4.8,2.8.5,1.6,1.1,2.4-.2.2.9.7-.3.4-1h.4s.1-.4.1-.4l1,.2.7,1,1.2-.8h0l-.3,1.6-.8.5v1.8c0,0,1.1-1,1.1-1v-.4s.5.2.5.2l2.1-1.1,1.6-.4.5-.5h.3c0,0,0,.3,0,.3l-.6,1.2h-1s-.5.6-.5.6v.4c.1,0-1.2.2-1.2.2l-.5,1.1h-1.3c0,.1-1.1,1.8-1.1,1.8l-.4-.2.2.9-1.1.7-.4-.3-1.2.7-.7,1.7-.7.3-.3,1.5.9.5,1.6-.4.8.5v.4c-.1,0,.3.1.3.1v.6c0,0,.4-.1.4-.1l1.1.7v1.2c.1,0,.9.9.9.9l1.2.2.2-.4,1.1.4,1.2-.3.2-.3.3.3h.5c0-.1.3.3.3.3l.5-.2h0l-.3,1.2.4.8,1.2.7v.5s1.8,0,1.8,0l-.4,1.6,1,1.4v.8c0,0-.7-.2-.7-.2l-1,.5v.5s-2.3,1-2.3,1l-.7-.7v-.8c-.1,0-.7-.4-.7-.4v-.9c-.1,0-.8-.3-.8-.3l-.3.3-.4-.7h-1.3c0,0-.4.4-.4.4l-.4,1.5h.7c0,0-.1,1-.1,1h-.4c0,0,.6,1.9.6,1.9l-1.8.3v.5c-.1,0-.6,0-.6,0l-.3,1.2.4.5-.6,1.9-1.2.5h-.9s-.8-.7-.8-.7l-.3.3.2,1.1-.4.4,2.6,1.3v2.6h.9s0,.4,0,.4l.9-.2,1.2,1.7h.9c0,0,.2-.9.2-.9l.5.2v-.3c0,0,.2.4.2.4l1.2-1-.7.6.3.2.5,3.1-.2,3.6-.8.3-1.1-.2-1.5,1v.6c0,0-1,1.1-1,1.1v.9h0l-.5.2-.7-.4v-1.3c.1,0-.5-.5-.5-.5l-.4.8h-.7c0,0-.2.5-.2.5l-.2-.3-1.1.4-1.7-1.2-.6.3.2-2-1,.3-1.3-.2-.5-.8-.5-.2-1.6.9-.2-1-.3-.2-.6.3-.3-1.2-.5-.3.3-.4-.5-.8h.3s.1-.7.1-.7l-.4-.5.3-1.1-.3-.5h-.5s-.3.5-.3.5l-1.7.8-1.7-1.5-.6.5-.9-.5-.3.5-1-.2-.9.5-1.8-.6-.9.5-.7-.2-.3.4-.8-.6h-.7c0,0-.7-.8-.7-.8l-.4.2-.4-.6h-.5c0,.1-1.4-.8-1.4-.8h-.6s0-.3,0-.3l-.6.4-1.2-1.3.4-.4h-.4c0,.1-1.1-1.2-1.1-1.2l-.3.2.2-.9-.3-.7h-.7s.4-.4.4-.4l-.8-.9-.4.2v-.4c.1,0-.5-.6-.5-.6h0l.4-.8-.2-2.3-1.4-1-.5-1.3-1.4-.6v-.4c0,0,.6-.5.6-.5l-.7-.8.5-1.3-1.7-.8v-.4c-.1,0,.5-.5.5-.5l-.2-.8h-.4s-.5-.9-.5-.9l.3-.5v-.4h-.1,2.5c0,.1.6-.5.6-.5h1.2c0,0,.2-.8.2-.8l.3.3,1.6-1,.6.2,2.8-.6.8-1v-.4s1.1-.4,1.1-.4l.2-.4h1c0,0,.6.4.6.4l.2-2.5,1.3.5.6-.2v.3s.4,0,.4,0l.5-.3,1.8.3.3-.5.2.4.7.2.5-.5h.9c0,0,.6-.5.6-.5v-.5c0,0,1,.2,1,.2l.7-1.1.7.2v-.5s1.6-.5,1.6-.5l.4-1.2h.6c0,.1-.4-1.7-.4-1.7l.7-.2-.2-1.5h.4s.1-.3.1-.3h-.3c0-.1,0-1,0-1h.4c0-.1-.4-.4-.4-.4l.3-.2-.2-.2.5-1.6Z"/>
    <path id="CN-91" d="M338.9,405.2l.2.7-.4-.2v.3s-.8-.7-.8-.7h1ZM337.3,404.6l-.3,1.2-.3-.2-1.1.3.5-.7,1.2-.5ZM336.2,404.2l1-.9h0l1-.5h.5c0,.1-.1.3-.1.3l.4-.2v.4c.1,0,.7,0,.7,0l-1.3.6.7.2.4-.5.7.4-.3.8-.6-.4-.3.4.5.5v.4c0,0-1.7-1-1.7-1h-1.5s0-.3,0-.3Z"/>
    <path id="CN-23" d="M414.7,71.6h.3s.1-.7.1-.7v.8c.1,0,.6-.7.6-.7l.8.8h1.5c0,0,2.1,2,2.1,2l1.1-.3,1.7,2.2,2.1.3v.5c.1,0,1.1.2,1.1.2l.4.5v-.9c.1,0,.9-.4.9-.4h1.8s2.2,1.3,2.2,1.3l.4.7.8-.4,1.1,1.2v.7c-.1,0-.7.4-.7.4v.7c.1,0,1.4-.5,1.4-.5l1.1,1.8.7-.5.4.3-.5.5v.9c.1,0-.6.2-.6.2v.7s.3.4.3.4l.5-.3,1,.9v.9s.5,0,.5,0l.7,1v1.2c-.1,0,.8.3.8.3l-1.2,1,2.1,1.1-.3,1.2h-.6c0,.1.1,1.2.1,1.2l1.6,2.9.5.2v1.1c0,0-.4.5-.4.5l1.3.9-.4,1.3,1,.5v.6s-.8.3-.8.3l.2.9.5.2-.2-.9h.8c0-.1-.6,1.4-.6,1.4l.2,1.8,1.6,1.7,1,2,.5.4v.8c-.1,0,.5,1.3.5,1.3l-.6,1.4.6.7v1.4c-.1,0,1.9,1.2,1.9,1.2v.9c0,0-.9,1.8-.9,1.8l.4,1.2v1.4c-.1,0,.9.5.9.5l.3,1.3,1,1,.8.2.4-.5.9.9,1.4.2v.3c.1,0,1.2-1.1,1.2-1.1l1.3-.2,1.4.5.3-.3.5.4-.4,1.1,2,.3.7,1.2,1-.6,1.1.6.4-1h.7l.4.2.2,1.5,1.4.2.2,1,.8.4v.6s.6.3.6.3v.7c0,0,2.6,2.1,2.6,2.1l1.7-.4.8.6,1.2-.2-1.2,3.2.6.4.2,1.2h1.1c0,0-.2.8-.2.8l.8,1.5-1.4,2.4.2.7,1.8,1.8.7,2.4.9.2,1.3-.6h1.6c0,0,1.4.9,1.4.9l.7-.6.9.5h1.3c0,0,.3-.4.3-.4h2l.6-.6,2,.4.9-2.8,1.1.2.6-.9,1.1-.2.2-.5,1.1-.6h1.5s1.1.4,1.1.4l2.5-1.6h.7c0,.1.2-.8.2-.8l1-.2.3-.7,2.8-.6,1,.5.5-.2.5.8.7.3-1.3,3.5.3,1.1.6.2v.9c.1,0,.9.8.9.8v.9c-.1,0-2.3,2.9-2.3,2.9h-1.3c0,0-1.3,1.5-1.3,1.5l-.3.9.5.6v.9c0,0-.8.7-.8.7l-.8,2.9.2.6-.3,1.4-.8.9-.5,1.3.8.9-.6.6.4.2v.7c0,0-.6.8-.6.8l-.3-.3-1,.9.4,1.2-.6,1.3h-.5s-.2.9-.2.9l-.5-.3-.3.4v.7c-.1,0,.2.2.2.2l-.6,1h.4c0,.1-.3.5-.3.5l.2.4h-.5c0,0,0,.5,0,.5l-.6.3-.2.6-.4-.3-.9.7-.6,2.7.4,1.3-1.3,1.2-1-.4-1.3,4.2-1.1,1.6-2-.7-1.7-1.4.6-2.5-1-3.2-1-.5-.3-.7-.5.3-.4,1.1h-.8c0,0-.3.7-.3.7l.3.5-1.7,1.4v.3c.1,0-1.1-.2-1.1-.2l-.6.7h-1.5c0,0-.1.4-.1.4l-1.1.4,1.2,1.9,1.6,7-.7,2.9.2,2.6-.3.8.7.5h0l-1.1.8-1-1.1-1.3.8-.4-.8-1.6-1v-.3s-.9,0-.9,0l-1.5-3.6v-1.1c.1,0-2,2.3-2,2.3l-.6-.2-.2-1.6-.5-.4-1.4.8v.7c0,0-.3.3-.3.3h-2s-1.1.9-1.1.9l-.9-.2-.3.3v2.4c0,0-1.7.6-1.7.6l-.5-.4h-.6c0,0-.9-2-.9-2h-.4c0-.1.2-.4.2-.4l-.6-1.5h-.3c0,0-1.5-3.1-1.5-3.1v-2.5s-.8-1.5-.8-1.5l-1.3,1-.3,1h-.9c0-.1.4.6.4.6l-.3.4.3.3-.5.4.4.6-1.6.8h-1c0,0-.4-.4-.4-.4l-.2-1.1-.2.3-.7-.4v-.9c.1,0-1-1.4-1-1.4l.2-.4-.4-.8.7-.2v-.6s-1.1-.7-1.1-.7h-1.1c0,0-.2.4-.2.4l-.7-.5-1,.9-.5-2.9.8-1.5-1-1.4v-.7c0,0-1.4,0-1.4,0l-1.9-1.3-1.1.2-.6.6h-.6c0,0-.4.5-.4.5l-2.3-.3-1.2-.7-1-1.2v-2c0,0-.7,0-.7,0l-.9.5-.5-.2v.4c.1,0-.7.7-.7.7l-.5-.4v.4c0,0-.4-.3-.4-.3l-1.4.4-.4-.6v-.7s-.7,0-.7,0l-.3-.5-.6,1.2h-.5s-.2-.3-.2-.3l-1.1.4-.4-.2-.3.5-.6-.6-.6.2-.4-1.2h-.7c0,0-.3-1-.3-1h-.6c0,.1-.2-.7-.2-.7l-1-.8.5-1.1-.9-1.1.4-.5v-.4c-.1,0,.3-.1.3-.1l-.4-.5v-1.1s-.3,0-.3,0v-1.4s-.5.4-.5.4v-.5s-.5,0-.5,0l-2.3.9-.5-.3-1.1.4-1-.6-.6.3h0l-1.3-2v-1.8c-.1,0,.3-.1.3-.1v-.4s1.4.4,1.4.4l.4-.8,2.6-.4.3-1.4-.5-.2.3-.2v-.6c-.1,0-.3,0-.3,0v.8c-.1,0-.6,0-.6,0l-.2-.3.4-1.2h-1c0,0-.8-.6-.8-.6v.5s.5.4.5.4v.8c-.1,0-1.4.2-1.4.2l-.4,1.3-1.2.3-1-1.2v-1.7s-.8.2-.8.2l-.2-.4.6-.9-1.9-.8-1.8-2.7.9-.7.6-1.6,5-3.2,1.1-2,2.2-1,3.5-4.1,2.2-1.9.4.6v1.5c0,0,.3,1,.3,1l.6.5v.7c-.1,0,.4.3.4.3l-.5,1,.7-.5.6-2.1-.5-.9.3-1.1-.3-1.1.7-1v-1.4c.1,0,.4-.9.4-.9l.4-.2v-1s.4,0,.4,0l.6-1.5v-.9c-.1,0,.6-.8.6-.8h1.1c0,0,.6.7.6.7l.9-.8.4-3.3-.5-1.1h.3s0-.7,0-.7l-.9-.7.2-.4.3.6.2-.5v-1.7c0,0-.4-.4-.4-.4h.4c0,0,.2-.5.2-.5l-.5-1.1.9-.6-.4-.6h.7c0-.1-.5-.4-.5-.4v-.6c0,0,.8-.2.8-.2l-.3-.3,1.1-.8v-.8s.5-.2.5-.2l.2-.6-.3-.6h.5c0,0-.1-.4-.1-.4h.6s.6-.5.6-.5l-.2-.2,1.2-.7-.3-1.7.3-.3-.6-.6.3-.3.4.2v-.4c-.1,0,.7-.6.7-.6l-.2-.3h.5s0-.5,0-.5l.3.3.7-1.2-.4-.5.2-.4-.7-.7.2-.5-.5.2-.6-.5v-.9c0,0-.9-.3-.9-.3l-.4-1.3-2.9-3.8h-1.8c0-.1-.1-.5-.1-.5l-.4.4v1.2c-.1,0-1.2.5-1.2.5v.7c.1,0-.4.8-.4.8h-.9c0,0-.4.5-.4.5l-.8.3-.5-.6h-.7c0-.1-.4.2-.4.2l-.3,1.1h-.5l-1-1-2.5.6-.7-.9h-.4c0,0-.6-.4-.6-.4l-.5,1-3.1.9-1.8-.9h-.6c0,.1-.3-1-.3-1l-.9-1.1.3-.9-1.1-2.7.2-.5-.5-1.5.2-1.2h-.4s-.4-1.2-.4-1.2v-.9c0,0,.9-.2.9-.2l.4-1.3-2.5-.6-.3-1.3-.3.2-.8-1.3h-.8c0,0-.3-.5-.3-.5l-1.8,2.9-.9.2-1-.5-.5-1.7-1.1-.2-1.6-1.5-1.1-.3,3.4-3.3v-.7s1.8-2.4,1.8-2.4l-.5-1.1-.8-.5v-.9c.1,0-1.3-1.2-1.3-1.2h0l3-1.3h1.8s.5-.6.5-.6h.8c0,0,.6-.4.6-.4l.9.8,3.3-.2,1.7-.8h.8c0,.1,1-.7,1-.7l1.5.4v.3Z"/>
    <path id="CN-43" d="M297.7,343h.3c0-.1-.1-1-.1-1l.8-.6v-.6c0,0,.5-1.3.5-1.3h.3c0,0,0-.3,0-.3h.3c0,.1.4-.8.4-.8h1.6c0,.1-.2-.5-.2-.5l.5-.2v-.6c0,0,.9-.2.9-.2h2c0-.1,2.1,1.3,2.1,1.3l.8-.7h.6c0,.1.9-.6.9-.6l-1.1-1.3.4-.7-.5-.4,1.3-.5.8.3v-.7c0,0,.7,0,.7,0h.8c0,.1,0,.6,0,.6l2.6.2,1.2,1.2h1.1c0-.1.2.2.2.2h.9s.7-.3.7-.3l1.8.8v.4c.1,0,.8.4.8.4v-.3s0,.8,0,.8l1.1.5.4-.3v.4c0,0,.5.4.5.4v.8c-.1,0,1.2-1.3,1.2-1.3l1.9.4,1.7-1.9.4,1,.7-.8v.6c-.1,0-.9.6-.9.6l.2,1.5.8-.3.3.7h.4c0,0,3.6-3.9,3.6-3.9l-.2,1.6h1s.6,1,.6,1l-.9.5,1,.7-1.2,1.8.8.3-.3.7.3.7.3-.2v.4c.1,0,.8-.4.8-.4l.5.6h.6c0,0,.1.8.1.8h.3c0,0,.5,1,.5,1l.7.2-.2,2-.4.5,1.1.6-.3.5.7.4v.6s-1.4,1.3-1.4,1.3h-.8c0,0,.4,1.2.4,1.2l-1,.5h-.5c0-.1-.8.5-.8.5l-.2.5.3.8-1.3,1.5-.3.9.4.3-.3.4.2,1.1h.7c0,.1,1.5-.3,1.5-.3v.9s-.9,1.7-.9,1.7l1.3,1.4-.7,1.4.2,1.4.4.4,1.7.2-.3,1.6-.4.3v.7s-.8,1.3-.8,1.3l.8-.2.4.2.7-.4.5.5-1.1.8h-.4s-.3.5-.3.5l.2.8-1,1.8.6,1.5-.4.7.2.2h0l-.6.2-.5,1h-.5s-.1-.3-.1-.3l-1.5.4-.3-.5-1.4-.3-.5-.4v-.7c0,0-1.2.3-1.2.3l-.3.7-.9.6-.7.4-.6-.2v.8c0,0,1,0,1,0l.4.5-.6.3.4.7-.3.5.2.9-1.2.3h-.7l-1-2.1h-1s-.8-.5-.8-.5l-.4.4-.3-.4-.8.3-.4-.4-.8,2,.5.6v.7c-.1,0-1.2.9-1.2.9h0l-2.6-.4-1.2,1.3-1-.3.3-1.2-.4-1.6.3-.4-.4-.2v-.5c.1,0-.2-.3-.2-.3l-.4.3-.6-.4-1.4,1v.8s-.4.2-.4.2h-.4s-.3-.7-.3-.7l.3-1.4.9-.5v-.6s1.6-1.4,1.6-1.4l.4-1.5-.3-1,1.1-.5v-.6c-.1,0,.4-.3.4-.3l-1.3-.3-.4.4-.5-.4v-1c-.1,0,.4-1.1.4-1.1v-1.2s-2.2-.5-2.2-.5l-.2-.6-.4,1.2h-1.3c0,0-.2-.5-.2-.5l-.3.2-.8-.4-.9,1.4-1.1.8-.4,1.1h-.6c0,.1-.5-.8-.5-.8l-.3.5-.7-.2v-1.1c.1,0-.3.1-.3.1l-.5-.4-.8,1.5h-.6c0,.1.3,1,.3,1l-.3.4h-1c0-.1.5-1.1.5-1.1l-.7-.6-.9.5-.4-.3h0v-.4c-.1,0,.2-.4.2-.4l-.6-1.1.3-.5-1.2.4-.5-.7,1.1-1.9-.4-1.1-.6-.4,1.9-.6v-1.1s-.7,0-.7,0l1-.6-.4-1.2h-.4c0,0,.1-.6.1-.6l-1.8-.2-.7.7h-.5v-.5c.1,0-1.9,1.2-1.9,1.2l-.7-.8.8-.3.2-1,1.3-.7v-.4c-.1,0,.4-.3.4-.3l.2-.8v.2c.1,0,.6-.3.6-.3l.8.2v-.5c0,0,1.3-.9,1.3-.9l-.2-1.5-1-.4.2-.5-.3-1.1.6-.7-.6-.2.7-2h-.7c0,0-.2-.4-.2-.4v-1.7h0l.4-.8-1.1-.3,1-1-.5-.4v-.9s.6-1.6.6-1.6l-.8-.7ZM300.3,365.3l.3-.4v.3h-.3Z"/>
    <path id="CN-42" d="M300.5,318.2l.5-.8-.4-.9.4-.4-.4-.8.3-.7v-1c-.1,0-1-.9-1-.9l.3-1.3.9-1v-.5c-.1,0,2.3,0,2.3,0l.9.4.6-.7.6.2.3-.4-.4-.6v-1.2c-.1,0-1.1-.6-1.1-.6l-1.3-.4-.6.3-.3-.3.2-1.6-2.9-.8.6-.8h.8s.3-.4.3-.4l.7.4h1.1c0-.1,1.5.4,1.5.4l1.1-.2.6.5h1.6c0-.1,1.1-.9,1.1-.9l.3,1h.5l.4.6.3-.5h.6s.1-.6.1-.6h.7s.6-.5.6-.5h0l.6.6v.4c-.1,0,.3-.2.3-.2l.8.9-.4.4h.7s.3.7.3.7l-.2.9.3-.2,1.1,1.4h.4c0-.1-.4.3-.4.3l1.2,1.3.6-.4v.3s.7,0,.7,0l1.4,1h.5c0-.1.4.5.4.5l.4-.2.7.8h.7c0,0,.8.6.8.6l.3-.4.7.2.9-.5,1.8.6.9-.5,1,.2.3-.5.9.5.6-.5,1.7,1.5,1.7-.8.3-.6h.5s.3.6.3.6l-.3,1.1.4.5v.7c-.1,0-.4,0-.4,0l.5.8-.3.4.5.3.3,1.2.6-.3.3.2.2,1,1.6-.9.5.2.5.8,1.3.2,1-.3-.2,2,.6-.3,1.7,1.2,1.1-.4.2.3.2-.5h.7c0,0,.4-.8.4-.8l.6.5v1.3c-.1,0,.6.4.6.4l.5-.2h0l.8,1.3.5.2.4,1,.6-.6.9.9.9-.3.5,1,.9.3.2.5-1.7.9v.9l-.7.2-.2.7,1.3,1.6-.2.6.4.3-.5.4.2.7h.6c0,.1.7,1,.7,1v2.3c0,0,.6,1.3.6,1.3h0l-.7.7-1,.2-2.1-1.2h-1.4c0,.1-.3,1.1-.3,1.1l-1.5,1.1-.2-.3-1.3-.2.2.8h.3c0,0-.1.8-.1.8l-1.3-.5-.4.3v.4c0,0-.4-.3-.4-.3l-.3.5.2.3.4-.2-.5.7-1.1.3-.7-.3-1.3.7-2-.3-.2,1.1-1.5.3-1,1.5h-.6c0,0-.5-.5-.5-.5l-.6.4v-.4c-.1,0-.4.2-.4.2l-.3-.7.3-.7-.8-.3,1.2-1.7-1-.7.9-.5-.6-1h-1s.2-1.6.2-1.6l-3.6,3.8h-.4c0,0-.3-.6-.3-.6l-.8.3-.2-1.5.8-.6v-.6c.1,0-.6.8-.6.8l-.4-1-1.7,1.9-1.9-.4-1.3,1.3v-.8c.1,0-.4-.4-.4-.4v-.4c0,0-.3.3-.3.3l-1.1-.5v-.8s0,.3,0,.3l-.7-.4v-.4c-.1,0-1.9-.8-1.9-.8l-.7.3h-.9s-.2-.4-.2-.4h-1.1c0,.1-1.2-1.1-1.2-1.1l-2.6-.2v-.4s-.8-.1-.8-.1h-.6c0,0,0,.8,0,.8l-.8-.3-1.3.5.5.4-.4.7,1.1,1.3-.9.7h-.6c0-.1-.8.6-.8.6l-2.1-1.5h-2c0,.1-.8.3-.8.3v.6c0,0-.6.2-.6.2l.2.6h-1.6c0-.1-.4.9-.4.9h-.3c0-.1,0,.2,0,.2h-.3c0,0-.6,1.3-.6,1.3v.6c0,0-.7.6-.7.6v.9c.1,0-.2.1-.2.1h0l-1-.8.2-.6-.5-1.2-1.3.7.2-.9-.6-.5.3-1.2h-.3s-.2-.5-.2-.5l-.5.2v-.4s-.3.2-.3.2l-.7-.4-.2-1.5h-.5s-.7,1.3-.7,1.3l-.6-.2v-.7c-.1,0-.5,0-.5,0l.4-.6h.7c0,.1.1-1,.1-1l-.3-.6.6-1.8-1.4-1.3.2-.9h1.2c0,.1.6-.5.6-.5v-.4c-.1,0,.4,0,.4,0l.3.8h.7s1.8-1.5,1.8-1.5h.6c0,0-.2.9-.2.9l.4.3,1.4-1,.3,1.3.9-1.2.7-.5.3.2,1.6-1.9,1.9-.5v.6c.1,0,.6.3.6.3l.7-1.7-.4-1.1.6-.5-.4-2.4-1.6-.8.2-.4-1.3-.5h-.7c0,.1,0-1.3,0-1.3l-1.3-.3Z"/>
    <path id="CN-22" d="M412.4,164.3l.6-.3,1,.6,1.1-.4.5.3,2.3-.9h.5s0,.5,0,.5l.4-.4v1.4s.4,0,.4,0v1.1s.3.5.3.5h-.4c0,.1.1.5.1.5l-.4.5.9,1.1-.5,1.1,1,.8.2.8h.6c0-.1.3.8.3.8h.7c0,0,.4,1.3.4,1.3l.6-.2.6.6.3-.5.4.2,1.1-.4.2.3h.5s.6-1.2.6-1.2l.3.5h.7s0,.7,0,.7l.4.6,1.4-.4.3.3v-.4c0,0,.6.4.6.4l.8-.7v-.4c-.1,0,.3.2.3.2l.9-.5h.7c0,0,0,2.1,0,2.1l1,1.2,1.2.7,2.3.3.4-.6h.6c0,0,.6-.5.6-.5l1.1-.2,1.9,1.3h1.4s0,.7,0,.7l1,1.4-.8,1.5.5,2.9,1-.9.7.5.2-.4h1.1c0,0,1.1.7,1.1.7v.6s-.7.2-.7.2l.4.8-.2.4,1.1,1.4v.9c-.1,0,.6.4.6.4l.2-.3.2,1.1.4.3h1c0,0,1.6-.7,1.6-.7l-.4-.6.5-.4-.3-.3.3-.4-.4-.8h.9c0,.1.3-.9.3-.9l1.3-1,.8,1.5v2.5s1.5,3,1.5,3h.3c0,0,.6,1.5.6,1.5l-.2.2h.4c0,.1.9,2.2.9,2.2h.6c0,0,.5.3.5.3l1.6-.6v-2.4c0,0,.4-.3.4-.3l.9.2,1.1-.9h2s.4-.3.4-.3v-.7c0,0,1.3-.8,1.3-.8l.5.4.2,1.6.6.2,2.1-2.3v1.1c-.1,0,1.4,3.6,1.4,3.6h.9c0,0,0,.4,0,.4l1.6,1,.4.8,1.3-.8,1,1.1,1.1-.8h0l.2,1-.9,2.1v.8c0,0-.8,1.3-.8,1.3l.2,1-1,.2v.7c0,0-1.6-.2-1.6-.2l-.4.5-.7-.2-2.3,1.4.4.5.6-.2.8.8v.9s-.5.1-.5.1l.4,1.2h-.4c0-.1-.4-2.1-.4-2.1h-.3c0,0,0,.6,0,.6h-.3c0,.1,0-.5,0-.5h-.4s-1.1-1.2-1.1-1.2v-2.1c0,0-1.2-.1-1.2-.1l.3-.7-.3-.2-.8.2-1-.4-1.1,3.2v1.3c.1,0-.4,2-.4,2h-.6s-.2-.4-.2-.4l-.7,1-.7-.8h-.9c0,0-.2.6-.2.6h-.7c0,.1.1.7.1.7l-.6.8.3.6-2.1,1.4v.6c0,0-1.7-.3-1.7-.3l-.4.4-.5-.3-.9.4-1.7-.4-2,.6v1.8c.1,0,.6,1,.6,1l1.3,1.3-1.4,2.5-.3.2-1.5-.8-.5.4h-1.9s-.9-.8-.9-.8l-1,.2-.2-.3h-1.1s.1-.3.1-.3l-1.4-.3.6-.6-1.2-.9.3-.3-.2-.4-1-.4v-.4s-.7.9-.7.9l-.3-.2-.2.5-.9-.6.4.4-.4.5h-.6s-.4.6-.4.6l.2.6-.7,1.3v.9c.1,0-.5,0-.5,0l-1.3,2.1-1.4.9.2.3-.5.9-.7.5.3.2-.7.3-.2-.4h0l-.9.5-.2-.4-.6.4-.4-.5h-.7c0,.1.8-.7.8-.7l.5-1.1-.2-.3.7-.7h-.5c0-.1.1-.7.1-.7l-.9-.3v-.8s-1-1-1-1v-.5s-.7-1.4-.7-1.4v-.8c0,0-1-.2-1-.2l.2-.8-.4-.9.4-1-.4-.4,1.6-1.9-1-.4-.5.4v-1.6c-.1,0-.4-.3-.4-.3h-.7s0-1.2,0-1.2l-.9-.9.2-1.2h-.6c0,0-.4-.7-.4-.7v-1.3s-.9,0-.9,0v-2s-.2-.5-.2-.5l.4-1.2-1.6.8-.4,1-1.6,1.6v-.5c-.1,0-.8-.3-.8-.3l.5-.8-.7-.4.6-.9-1-.9v-.7c0,0-.6-.4-.6-.4h-.8c0,0-.3-.4-.3-.4h-.5c0,0-1.9-2.2-1.9-2.2l-.8,1.3h0c0,0-.9,0-.9,0l-.9-1.1-.4.5-.9-.8v-.7s.9.1.9.1v-.6c-.1,0,.6,0,.6,0l.3-.3-.6-1.5v-1.2c0,0-1.1-2.4-1.1-2.4l.5-1-.7-.3-.7-1.6-.7-.4v-1.8c0,0-.9.2-.9.2l-1.2,1.1-3.2,1.9-1.8-.3.2-2.3h-.5s-.2-.9-.2-.9l-.7-.4v-1.7c0,0-.3-.2-.3-.2l.7-.3h-.5c0,0-.6-1.4-.6-1.4l.4-.2.3-2.8,1-.8v-.5s-.8-.4-.8-.4v-1.6c.1,0-1-.6-1-.6l-.5-.9.3-.9-.3-.6-1-.3-1,.4-.8-.8,1-.4.6-1.6-.4-.8.5-.3,1,.5h.3c0-.1.8,1.2.8,1.2l1.3.9.9-.8v-.5c0,0,.4,0,.4,0l1,1.6,1.4,1,.7-1,.2-1.1-.3-2.3,2.1-.4.6-.4v-.4c0,0,.5-.9.5-.9Z"/>
    <path id="CN-32" d="M356.4,289.8v-1c0,0,.2-.1.2-.1l.4-1.4,1.4-.4,1.2.2v-.3c.1,0,1.7.7,1.7.7l.9,1.6-.2.5.5.2.7,1.8h.4s.1-.8.1-.8l.7-.6.9,1,.8.3,1-.8,1,.2v-1.3c0,0,1.2-.3,1.2-.3l1.2.3v.9c-.1,0,.6,0,.6,0l-.3.6.3.3v.6c0,0,.2,0,.2,0l1.7-.5.2-1.7.8-1.1,1.3.3.7-.4-.4-.4,1.2-1.9v-.8s.5-.3.5-.3h1.6c0,0,.7-.5.7-.5l.8.2h0l-.6.4-.4,2,.5.7.6.4.3-.2,1.1.4-.3.5,1.6,1.1v.4c0,0,3.1,1,3.1,1l2.2,1.3.5,2,2.8,6.3h-.5c0-.1,0,.5,0,.5l.3.7.4-.2v.8s.8,1.1.8,1.1l.3,1-.2.2.6.2.2,1.4-.5,1.1.4,1.5.8.4v.4c0,0,3,1.3,3,1.3l.4,1.4-.4.4.5.8,2.4.9,1,1.1.6,1.7-.5.5-2-.5-2.7-1.4-1.7,1v.6c-.1,0,1.9,2.1,1.9,2.1h0l-1.4.6v.5s-.4.1-.4.1l.3.9-.7.2v1.2c0,0-1.5,0-1.5,0l.2,1.1h0l-1.6.4v.7s-1,.4-1,.4l-.6.9-.6-1.5-.6.3v-.6c0,0-1.7.2-1.7.2l-1.3-.9-.7-1.4h-1.1c0,0-1.2.3-1.2.3h0l-2-.4-.3-1.2v.4c-.1,0-.6,0-.6,0l-.8-.5-.7.7h-2.5s-.7-.7-.7-.7l1.4-1.2v-1.9c0,0-.6,0-.6,0l-.2-.6-.4.5h-.6c0,0,.1-.9.1-.9l-.4-.3-.8.2-.4-.5.2-.4-1.1-.9.2-1.4.9-.4v-.7c0,0,1.3-.2,1.3-.2v-.8c0,0,.4-.4.4-.4v-1.3c-.1,0-.9,0-.9,0l-.2-1.1h2.7s-.1.3-.1.3l.7.5h.4c0,0,.4.5.4.5l.5-.4.3-1,.3.2v-.3c.1,0-.3-2.2-.3-2.2h-.6c0,0-.7-.7-.7-.7v-.5h-1.4s-.3,1-.3,1h-.6c0,0,0,1.1,0,1.1l-.3.2-.6-.3-2.2.2v-.5s-.6,0-.6,0v-.8c-.1,0-.4.1-.4.1v-.8c-.1,0,.6-.3.6-.3l-.6-.3-.3-2-.3-.2-.2.4-.9.3-.5-.8h-.4s.8-2.5.8-2.5h.6s0-1.4,0-1.4l.6-1.2-1.8-.2-.2.3h-1.7s.2-1.5.2-1.5h-.4s-.7-1.4-.7-1.4l-.4.4-.5-.8-.8.4-.5-.6-1.3.2-.5-.3-.9-.8.2-.6-.7-.4v-1.1c0,0-1.2,0-1.2,0l-.5-.7-1.5-.3.2-.2-1.3-1.4h-.4Z"/>
    <path id="CN-36" d="M354.4,336.4h.6c0,0,.5.4.5.4l1.7-1.1h.6s.4-1.5.4-1.5l.6-.2,1.9,1.2-.7,1.3-1.3,1.1.2.2-.2.4.6.7.3-.3.7.3,1.3-1.1,1-.3.2-.7-.5-.5,1.1-.9.3.2v.7s.7-.2.7-.2l.2.4.5-.3.3,1.5.6.3v.5c0,0,1-.2,1-.2l.4.6,2.5-.3,1,.7v.8s.5.3.5.3h0v.4c.1,0-.2.5-.2.5h-.8c0,0-.3,1.9-.3,1.9l.5,1h.7c0,.1.3.5.3.5l-.2.3h.5c0-.1.3.7.3.7l.7.4.4,1.1v1.7c-.1,0,.3.2.3.2l-.2.6.3.7-.5.4h0l-.9.6.4.3-.2.8-1.8.4-.3.9-.5-.2-1.4.4-1,1.3-1.1-.6-.7-1.1-1.5,1.2v-.4c-.1,0-.5.3-.5.3v.9c.1,0-.7.8-.7.8h-.8s0,.5,0,.5l-.3-.4-.3.2v.8s.5,0,.5,0l.3.7v1.5c0,0,.5.5.5.5l-.9.9v.7c-.1,0-1,.7-1,.7l-2,.3-1.2,1.3v.7c0,0-.3.5-.3.5l.5.6-.2.7.8.9-.3.8-.7-.2-1,1.2v.8s.6,0,.6,0l.2.6-.8.6-.2.7-1.9,1,.4.8-1,.8v1.1s-.5,1-.5,1l.2,1.3-1.3,1,.6,1.4-.5.3.3.3-.2.5h0v.5c.1,0-.5-.2-.5-.2l-.5,1.4.7,1.6-1,.2-.4-.5-.8-.2-.8-1.2-.5-.2-2.5,1.1-.4-.4-1.3.4-.3.9-1-.5-.3.7-.4-.4-1.9.8-.6-.9h-.4c0,.1-.2-.4-.2-.4l-.9-.4,1.3-.7.6-1.2v-.7s1.1-.6,1.1-.6l.2-.6h.7c0,0,.7-.3.7-.3l-.4-.5.5-1-1.7-1.3-1.2.9h-2.2s-.7.6-.7.6v-1s-.6-.9-.6-.9h0l-.2-.2.4-.7-.6-1.5,1-1.8-.2-.8.3-.5h.4s1.1-.7,1.1-.7l-.5-.5-.7.4-.4-.2-.8.2.8-1.3v-.7s.4-.3.4-.3l.3-1.6-1.7-.2-.4-.4-.2-1.4.7-1.3-1.3-1.4.8-1.7v-.9s-1.4.5-1.4.5h-.7c0-.1-.2-1.3-.2-1.3l.3-.4-.4-.3.3-.9,1.3-1.5-.3-.8.2-.5.8-.6h.5c0,.1,1-.4,1-.4l-.4-1.2h.8c0,0,1.3-1.4,1.3-1.4v-.6s-.6-.4-.6-.4l.3-.5-1.1-.6.4-.5.2-2-.7-.2-.5-1h-.3c0,0-.1-.9-.1-.9h0l1-1.5,1.5-.3.2-1.1,2,.3,1.3-.7.7.3,1.1-.3.5-.7-.4.2-.2-.3.3-.5.4.3v-.4c0,0,.4-.3.4-.3l1.3.5v-.7c.1,0-.2,0-.2,0l-.2-.8,1.3.2.2.3,1.5-1.1.3-.9h1.4c0-.1,2.1,1.1,2.1,1.1l1-.2.7-.7Z"/>
    <path id="CN-21" d="M400.5,240.2h-.3s0,.5,0,.5l-.8-.2-.5.5-.8-1.4-.5-.2-.6.4-.6-.3.6-.9,1.3-.3.7.4-.2-1.1-.2.2-.4-.6.3-.4-.2-.3,1.8-1.3.6.2,1-.9-.6-.3,1.4-1.1v-.6s.8-.6.8-.6v-.6c-.1,0,.8-.7.8-.7v-.6c0,0,1.2-.6,1.2-.6v-.5c0,0-.5,0-.5,0l-1-.9v-.8c0,0-1.6-1.1-1.6-1.1l-.3-.6h-.5c0,0-.4-1.4-.4-1.4l-.6,1.3h-1.4s-.6-.4-.6-.4l-2.6-.4-.8.6v.4s-.8-.4-.8-.4l-.3.6.3.2-.5.5.7.2-1.5.5-.3.9-1.1.7v.6s-.6.3-.6.3v1c0,0-.7.4-.7.4v.8s-.4.6-.4.6h-1.2c0,.1-3.8,2.2-3.8,2.2h0v-.6h-.6s-.2-1.5-.2-1.5l-1-.5.2-.4-.4-.8-.2-2.1h-2.4s-.5-.3-.5-.3v-.4c0,0-.6,0-.6,0l.2-1-1,.3-1.7-1.5.4-1.7h.8s.3-.4.3-.4l-.7-.3v-.4c0,0,1.1-.2,1.1-.2v-.5c0,0,.9-.6.9-.6v-.4c-.1,0,.4-.4.4-.4v-.7h0l.6-.4v.2c.1,0,0-.8,0-.8l.8-.8-.4-.8.4-.4-.5-.2-.4-1.1.2-2.6h0l.2-.7h0l.2-1-1.2-1.4.4-.6,1.5-.7.3-.6.9,1.5,1.2.5h.8c0,0,0,1.2,0,1.2l1.6,3.2v1c0,0,.5.3.5.3l1.6-2.7,1.5-.8v-.9c0,0,.9-.7.9-.7h.3c0,.1,2.1-1.1,2.1-1.1l1.3.2,1.9-1.4.5-.9,1.2-.4.9-.2.6.9h.4c0-.1,1.2-1,1.2-1l.6-1.7,1-.4.9.4.3-.4,1.5.5.5-.9-.7-.2-.2-.5.3-.2,1.4.2.6.6h.8c0-.1.9.6.9.6l.4-.5h1.5c0,0,1.4-.7,1.4-.7l-.5-.3v-.8s.6-.7.6-.7l1.9-.6.8.5.7-2.2v-.7c-.1,0,.3-.2.3-.2v-1h0c0-.1.8-1.4.8-1.4l1.9,2.3h.5c0,0,.3.4.3.4h.8c0,0,.5.3.5.3v.7c0,0,1.1.9,1.1.9l-.7.9.8.4-.5.8.7.3v.5c.1,0,1.7-1.6,1.7-1.6l.4-1,1.6-.8-.4,1.2.3.5v2c0,0,.9,0,.9,0v1.3s.4.7.4.7h.6c0,0-.2,1.3-.2,1.3l.9.9v1.2c0,0,.7,0,.7,0l.3.3v1.6c.1,0,.6-.4.6-.4l1,.4-1.6,1.9.4.4-.4,1,.4.9-.2.8,1.1.2v.8c0,0,.7,1.3.7,1.3v.5c0,0,.9,1,.9,1v.8s1,.3,1,.3v.6c-.1,0,.3.1.3.1l-.7.7.2.3-.5,1.1-.8.8h.7c0-.1.4.4.4.4l.6-.4.2.4.9-.5h0l-.9.5-.3-.3-.5.3-.6.5.4.5h-1.1s-.2.5-.2.5l-1,.6v.4c0,0-1.2-.3-1.2-.3l-.3.5-1.8.8.2.8h-.9c0,0-.2-.2-.2-.2l-1.3,1.2v.5c0,0-1.1.5-1.1.5l-1.8,1.6-.5.6.3.7-1.2.9-.5,1.1-1.3.2-.3-.4h-.7c0,0,0-.2,0-.2l-1.2.3-.9-.2-1.6,1.2v-.9s-1.1,0-1.1,0l-.4.8.3.5h-2.2c0,.1-.4.7-.4.7l-1.3.4-.4-.2.2.4-.8.5-.2-.4-.7,1-1.5.2-1.2,1.2v.6s-1.1.7-1.1.7l.2.7-.5.4h-.4c0-.1.3.5.3.5h-.5c0-.1-.3.3-.3.3l-.5-.5-.7.4.6.5-.2.5-.9-.9h-.4s0,.4,0,.4l-.5-.3v.5c0,0-.7.3-.7.3l1.1.4-.2.4h-.9c0-.1-.9.5-.9.5h-2c0,.1-.3,1-.3,1h-.5s-.2-1.4-.2-1.4l.6-.4h-.7c0,0,0-.5,0-.5l.4-.3.6.3,1-.5v-.4c-.1,0,.2-.5.2-.5l.6.5,1.8-.7.2-.6-.9-.7.7-.3-.6-.5h1.1s.2-.8.2-.8h1s.7-.5.7-.5l-.2-.4h-.4c0,.1.1.4.1.4l-1.1.2-.4-.8Z"/>
    <path id="CN-92" d="M333.3,406.2l.2.3-.3.2v-.5Z"/>
    <path id="CN-15" d="M398.5,74l1.4,1.2v.9c-.1,0,.7.5.7.5l.5,1.1-1.7,2.4v.7s-3.4,3.3-3.4,3.3l1.1.3,1.6,1.5,1.1.2.5,1.7,1,.5.9-.2,1.8-2.9.3.6h.8c0,0,.8,1.2.8,1.2l.3-.2.3,1.3,2.5.6-.4,1.3-.9.2v.9c0,0,.4,1.2.4,1.2h.4s-.2,1.2-.2,1.2l.5,1.5-.2.5,1.1,2.7-.3.9.9,1.1.3,1.1h.6c0-.1,1.8.8,1.8.8l3.1-.9.5-1,.6.5h.4c0,0,.7.8.7.8l2.5-.6,1,1h.5l.3-1.1.4-.4h.7c0,.1.5.7.5.7l.8-.3.4-.6h.9c0,0,.5-.8.5-.8v-.7c-.1,0,1-.5,1-.5v-1.2c.1,0,.5-.4.5-.4v.4c.1,0,1.9.1,1.9.1l2.9,3.8.4,1.3.8.3v.9c0,0,.7.5.7.5l.5-.2-.2.5.7.7-.2.4.4.5-.7,1.2-.3-.3v.5c0,0-.5,0-.5,0l.2.3-.8.6v.4c.1,0-.3-.2-.3-.2l-.3.3.6.6-.3.3.3,1.7-1.2.7.2.2-.6.5h-.6s0,.5,0,.5h-.5c0,0,.3.5.3.5l-.2.6-.5.2v.8s-1,.8-1,.8l.3.3-.8.2v.6c0,0,.5.2.5.2h-.7c0,.1.4.7.4.7l-.9.6.5,1.1-.2.4h-.4c0,0,.4.5.4.5v1.7c0,0-.3.5-.3.5l-.3-.6-.2.4.9.7v.7s-.2,0-.2,0l.5,1-.4,3.3-.9.8-.7-.6h-1.1c0,0-.8.8-.8.8v.9c.1,0-.5,1.5-.5,1.5h-.4s0,1,0,1l-.4.2-.3.9v1.4c-.1,0-.8,1-.8,1l.3,1.1-.3,1.1.5.9-.6,2.1-.7.5.5-1-.5-.3v-.7c.1,0-.5-.5-.5-.5l-.4-1v-1.5c0,0-.3-.6-.3-.6l-2.2,1.9-3.5,4.1-2.2,1-1.1,2-5,3.2-.6,1.6-.9.7,1.8,2.7,2,.8-.6.9.2.4.8-.2v1.7s1,1.2,1,1.2l1.2-.3.4-1.3,1.2-.2v-.8c.1,0-.4-.4-.4-.4v-.5s.8.7.8.7h1c0,0-.4,1.1-.4,1.1l.2.3h.5s.1-.8.1-.8h.2s.1.6.1.6l-.3.2.5.2-.3,1.4-2.7.4-.4.8-1.4-.4v.4s-.4.1-.4.1v1.8c.1,0,1.4,2,1.4,2h0l-.6.9v.4c0,0-.5.4-.5.4l-2.1.4.3,2.3-.2,1.1-.7,1-1.4-1-1-1.6h-.4v.5c0,0-1,.8-1,.8l-1.3-.9-.8-1.3h-.3c0,.1-1-.4-1-.4l-.5.3.4.8-.6,1.6-1,.4.8.8,1-.4,1,.3.3.6-.3.9.5.9,1.1.6v1.6c-.1,0,.6.4.6.4v.5s-1,.8-1,.8l-.3,2.8-.4.2.6,1.3h.5c0,0-.7.4-.7.4l.4.2v1.7c0,0,.7.4.7.4l.2.9h.5s-.2,2.4-.2,2.4l1.8.3,3.2-1.9,1.2-1.2,1-.2v1.8c0,0,.6.4.6.4l.7,1.6.7.3-.5,1,1.2,2.4v1.2c0,0,.5,1.5.5,1.5l-.3.3h-.8c0,0,.1.5.1.5h-.9c0-.1,0,.6,0,.6l.9.8.4-.5.9,1.1h.9s0,1.1,0,1.1l-.4.2v.7c.1,0-.6,2.2-.6,2.2l-.8-.5-1.9.6-.5.7v.8s.4.3.4.3l-1.4.6h-1.5c0,0-.4.6-.4.6l-.9-.7h-.8c0,.1-.6-.5-.6-.5l-1.4-.2-.3.2.2.5.7.2-.5.9-1.5-.5-.3.4-.9-.4-1,.4-.6,1.7-1.2.9h-.4c0,.1-.6-.7-.6-.7l-.9.2-1.2.4-.5.9-1.9,1.4-1.3-.2-2.1,1.3h-.3c0-.1-1,.5-1,.5v.9c0,0-1.5.8-1.5.8l-1.6,2.7-.6-.3v-1c0,0-1.5-3.2-1.5-3.2v-1.2s-.8,0-.8,0l-1.2-.5-.9-1.5-.3.6-1.5.7-.4.6,1.2,1.4-.2,1h0l-.2.7h0l-.2,2.6.4,1.1.5.2-.4.4.4.8-.8.8.2.8v-.2c-.1,0-.7.4-.7.4h0l-.3.4-2.1-.4-.5.2-.4-.8-.7.5-1.9-.3-1.3.4v-1.2c-.1,0-.8-.5-.8-.5l.4-.4v-.6s-.8-.2-.8-.2l-.7-1.7.3-.8.9.5.4-.9-.6-.8.4-.7-.6-.5h.4c0-.1-.2-.7-.2-.7h-.4c0,0-.1.6-.1.6h-.7s.3-.5.3-.5l-.5-.3v-.7c.1,0-1-.8-1-.8l.7-.6-.4-.5v-.5c0,0-1.7-2.4-1.7-2.4l-1.6.5-.5-.5v.3c-.1,0-.6,0-.6,0v.6c0,0-.8.7-.8.7l-2.3-.2-1.4.9v2.3h-1.1l.8,1v1s-1.2.4-1.2.4v.5c-.1,0-1.6,0-1.6,0l-.5-.6-.8.4v-.6c.1,0-.6-.1-.6-.1l-.9.8-.2.7h-.7c0,.1,0,.8,0,.8l-.4.2h-.5c0,0-.6-1.9-.6-1.9h-.8c0,0-1.5,1.3-1.5,1.3l-2.6,1.3-.2.4.4.6-.5.2-.2-.3-.3.5-1.1-.6-2.1.4.3-1.1-.2-1.2.6-.3-.4-1.8-.6-.6.4-.8-.4-.5-.5.7-1.5-.3-.5.3v1.6c0,0-1.4.5-1.4.5l-1,1.3.3,3.2h-1.8c0-.1-1.3.8-1.3.8l.6.6v1.1c-.1,0,.6.6.6.6l-.3.6h-.6c0,.1-.8.9-.8.9l1.3,1.2.8,1.4-.3.3.8,1h0l-.6.2v2s-.9,0-.9,0l-.8.7-.6-.7-1.9,1.8-2,.3-.5-1-2.1.6-.8.3-.4,1.3-.8.4-2.4-1.4-1.3.5-2.7,4.8-.4,2-1.4.3-.9-.5h-1.8c0,0,0,1.3,0,1.3l-.7.9h-1.5c0,.1-.2.6-.2.6h-.3s-.3-.6-.3-.6l.7-1.3-.2-.4-2.1.9-1.3,2.2-.8.4-.8-1.4-.8.2-.2.5-1.2-1.4-.8-.2v.6c-.1,0,.6,1.3.6,1.3l-2.1,1-.7,1-1.2.3-.3,1.4-.9,1.3-.5-.2-.7.3-.2,1h-.6c0,0,.1,1,.1,1h-.6c0,0-.9.6-.9.6l-.2.8-.7.4-.6,1.1-.3,1.6,1,1v.6l-.9,1.2-.8-1h-.4s.3.3.3.3l-.4.4v2.7s-1.7.3-1.7.3v-.4s-.4,0-.4,0l-1.3.2-.4.4-.5-.3-1,.5-1-.5-.4-1.3-2.6-.9h0l-2-.8.2-.5-.8-1-1.3-.7-1.3.4-1.6-.4-2.6-1.7,1.5-2.3.2-1.9,2.2-2.8v-.8c-.1,0-1-.3-1-.3l-.5-2.9h-1.5s-1,.8-1,.8l-1.6.2v1.3s-1.2,0-1.2,0l-.5,1.8-.9.8.2.5-.7.9-.5,1.5-.2,2.3.3,1.5-.7.7v.7c-.1,0,.5,1.4.5,1.4l-.7,2.1-1,.2-.3.8h-1.6c0-.1-1.5.2-1.5.2l-1.9,1.4-2.2.4-1.1-.3-1.4.2v.5c-.1,0-1.1.4-1.1.4h0l-.8.2-4.2-3.9-2.1-.6-.4-2.5,1.5-.7-.5-1.8-.6-.8,3.8-2.5,1.3-2.6,1.2-.5.3-1.6-1.3-2.2.3-1.3-1.2-.5h-.9c0,0-3.9,1.3-3.9,1.3l-3,2.6-3.2-.8-1.3-.8-2.1.9-3.2.7,2.2,2.2-1.8,1.8v.5c0,0-.7.2-.7.2l-.8-.3-.5.3-.7-.7-1.7-.6v-.7s-.7-.2-.7-.2l-.6-.9.4-.7-1.7.7-.6-.9-.7.4v-4.1s-2.9,0-2.9,0v-.9s-1.5-.4-1.5-.4l-.6-1.8-2-.6-2-1.6h-2.6c0,.1,1.4-1.9,1.4-1.9l2.4-1.6.9-2,1.8-2.2v-1.3c-.1,0-1.2-1.7-1.2-1.7l-3.4-.5-.9.9-3.2-.2-2.6,1.2-1.8,2.3-3.2.2.9-3.4v-.5c-.1,0-3-2.4-3-2.4h-.3c0,.1-3-3.8-3-3.8l1.9-2.2-5.4-12.3h0l8.7,1.5,10.3.8,4.1-.9,2.4.2.4-.6,4.8.4,7.4,1.9,2,2.8,2.9.9h2.7c0,0,4.8,2.6,4.8,2.6l4.4,1.1,5.6-.8v2.4c0,0,3.3.2,3.3.2l.7.9,1.9-1.9,4.4-2.4,7.3-3.3,4.8-1.1.2-.6,1.3-.6h.6s.3.4.3.4l2.9.2,2.7-.6.4.2,1.9-.2,2.4.8,1.3-.8,2.5.4,2.3-.5,2.4-1.7h2.6c0-.1,1.5-1.1,1.5-1.1l1-.8v-.7s1.4-.8,1.4-.8l.7-1.4,2.8-3.2,3.1-1.4,1.2-.2,1.5-2.3,1.6-.4.4-.4v-.6s-1.3-2-1.3-2l-1.8-.8-2-3.2,1.4-4.3,1.5-2.8,1.2-1.3,4.3.2,2.7,2.2h1.3c0,.1,1.8.9,1.8.9h2.8c0,0,1.3.6,1.3.6l3.5-2.4,2.7-2.5.9-1.4.2-1,1.1-.7.9-.3,2,.6v.4l5.9-.9,1.8-2,1.1-.7,1.3-.3.5-1.5-.2-1.4,2.7-4,1.5-.3.8-.8,1,.4h3.2s.6-2.8.6-2.8h1.3c0,0,.6.8.6.8h1.2c0,0,.5-.8.5-.8l3.1-1.9v-.6c0,0,1.6,0,1.6,0l.5-.3.7.5.6-.5,1.1.3,1.5-.4v.4s1,0,1,0l.3.7.7-.2,1.6,1.2.4.9-.4.3v.7c-.1,0,.9.7.9.7l.7-1.6,1.5-.9,1.2-1.5-1-2.1v-1.3c-.1,0,.3,0,.3,0v-1.1s-1.1-.9-1.1-.9l.5-.3.4.8h.5c0,0-.3-1.2-.3-1.2l-1-.8-2-.2-1.3-1.2v-1.4s-.9.3-.9.3l-.5-.2-.2-2-2.9-1.3-2.4-2.4h-1.9s-.5-.4-.5-.4h-.7c0,.1,0,0,0,0h-2.3c0,.1-3.1,3.5-3.1,3.5l-.8,1.4-2.2-2.1-2.5-1.1h-1.3c0,.1-1.2.7-1.2.7l-2.3-.3-2.3,2.3-3.9-3.9h.8c0,0-.3-2.3-.3-2.3l2.6-1.1v-3.2s2.4-3.2,2.4-3.2l-.5-1.1,5.3-12,2,1.5,2.7,1.1h1.7s3.1,1.6,3.1,1.6l2.1-2h.4s.7-.9.7-.9l1.2-.5v-.6c0,0,.7-.1.7-.1l.8-1.1,5.2-1.1.9-1.1.5-1-.4-1.3.4-.5-.2-.4h-1.4s-.5-.5-.5-.5l.3-.4h.4c0,.1.6-2.4.6-2.4l1.7-1.8.3-2.2,1.9-2.4v-1.7c.1,0,.5,0,.5,0v-.8s1-.9,1-.9l-.2-.4.7-.9v-.5c-.1,0,.5-.8.5-.8l.4-1.6h.7c0,0,2.3-2.2,2.3-2.2l.2-.5h.5c0,0,.2-.4.2-.4l.7-.2.5-.9-.2-.6.5-.5.3-1.1-.3-.7v-.6c.1,0-1-.8-1-.8v-.4c0,0,.8-2.7.8-2.7l-2.2-1.3-1.5.3-.7.6h-1c0,0-.3-.7-.3-.7l.3-1-.2-.9,2.1-1.3,2-2.8.7-.4.5-1,1.2-.9v-.5c0,0,2-.4,2-.4l.4.4h.8c0-.1.8-.7.8-.7h1.4Z"/>
    <path id="CN-64" d="M256.9,261.5l1-.4v-.5c.1,0,1.5-.2,1.5-.2l1.1.3,2.2-.4,1.9-1.4,1.5-.3h1.6c0,.1.3-.7.3-.7l1-.2.7-2.1-.6-1.4v-.7c.1,0,.8-.7.8-.7l-.3-1.5.2-2.3.5-1.5.7-.9-.2-.5.9-.8.5-1.8h1.1c0,0,0-1.3,0-1.3l1.6-.2,1-.8h1.5s.5,2.9.5,2.9l.9.3v.8c.1,0-2.1,2.8-2.1,2.8l-.2,1.9-1.5,2.3,2.6,1.7,1.6.4,1.3-.4,1.3.7.8,1-.2.5,2,.8h0l-.2,1-1.1.2-.2.7h-.8c0,0,0,.5,0,.5l-.6.4.5.6-.7.8-.2,1.2.4,1.3h-.2c0,0,.5.7.5.7l-.2.7-.3-.3v.5h0l-.9-.7-1.2.4-1-.4v.5s-.9-.5-.9-.5l-.3.7-1.2-.4.2,1.8-.5.2-.3-.4.5.9h.4c0,0,0,1.8,0,1.8l-.5-.3-.5.2-.7,1.1v.6c.1,0-.7,0-.7,0l1.3.9-.2,2.1h.5c0,.1.2-.2.2-.2l1.6.8h.5c0-.1.7,1,.7,1h.3c0-.1,0,1.3,0,1.3l-.4.4.4.2-.7.4.6.8-.9.9h-.5c0-.1-.1.3-.1.3l-1.6-.6-.8.5.5,3.4-1.1,1.2-.9-1v-.7c-.1,0-.6-.3-.6-.3l-.5.8-.4-.7.2-.3-1.5.5v-.5s1.3-.3,1.3-.3v.3s.3-.5.3-.5l-1.6-.5-.4.6-.2-.8-1-1.2.5-.5h-.9c0,0-.7.5-.7.5v-.4c0,0-.9-.3-.9-.3l-.3-.7-.4.2.2-.5-.5-.4v-1.3s.8-.9.8-.9h.5s.1-.5.1-.5l-.3-1.5-.6-.7-.5-1.5-.8-.4.2-.3-.5-1.4,1.1-.8-.5-.8-.7-.2-.2-1-1.6-.6-1-1.8-.5-.3-.6.5-.7-.3-.3-.5,1-.7-.3-.3.5-.6h-3.8Z"/>
    <path id="CN-63" d="M163.7,243.3l.7.2,3.3-.8.5-.7,1.7.4,1.1-.3.3.3h1c0,0,2.1-.9,2.1-.9l.2.3h2.9s.8.7.8.7h1.6s1.9.7,1.9.7l1.1-.3,1,1.4,1.3.6,1,1.4.6.3v-.2c0,0,1.1,1.1,1.1,1.1l1.2.3.4,1,.4-.3.7.6.8-.2,1.7,1.1.2.9,3.4,1.1.3-2.6-.4-.3v-.6s.4-.3.4-.3v-1.5s-.2-.3-.2-.3l.3-1.8-.4-.5.7-1,2.6.4,2.7,1.7.2.5,2.6,1.1.6.7,1.5-1.7.2-.9h.8c0,0,.6.9.6.9l1,.2,1.5-1.6h.5l1.5,1.3.2-.2.7.3-.3.6,2.4,1.9.7,1.2h.5c0,0,.2.6.2.6l1.2,1.2,4.1,2.3v-1.2c-.1,0-.8-.8-.8-.8l.2-.9.9.4.9,1.4,2.2.8.3,1.5,3.8,1.7.8,1,4.3,2.7.3.7.7.2.3-1.6.9-1,.2,1.6.7.4-.5,1,1.6.5,1.1,1v.5c.1,0,.7,0,.7,0l1.3,1.3-.8.8-.3,1.2,2.2,2.1-1.1.6.3.6.7.3.9,2.8,1.9,1.4h-.6c0,.1-.9,1.2-.9,1.2l.7.5v2.1c-.1,0-1.5-.3-1.5-.3l-.8.6.6,1.8-.3.9-1.5-.4-.9,1.4h-1.1v.9c.1,0-.2.3-.2.3l.6.2.4,1.1h-.4c0,.1-.5,1.1-.5,1.1l-1.2.4-1.7,1.4v1.4s-.6-.3-.6-.3l-1,.7.9.8.7-.5v.8c.1,0,2,.8,2,.8l.8,1.5h-.6l-.3.9-.7-.2-.9,1.8-.8-.4-.9.7-.7-.4-.3-.6-2.4-.6-.5-.5-1.7-.3-.6-.5h-.7s-.6.6-.6.6l-.4,1.4,1.8,2.7,1.4.6.4.5-.2,1.3.6-.2,1.3.3.3-.4h.6c0,0,.7.2.7.2l.3,1.7h.9s.3-.5.3-.5h0v.9s-.5,0-.5,0l-.4.9v.4c0,0,.6.4.6.4l-.7,1.6-1.4-1.1h-.6s0,.7,0,.7l-.4-.6-1.5.6-.3,2.4.9.8-.3,1.3-.6.5v-.4s-.4,0-.4,0l-1.1.7-2.1-.7.3.7h-.5c0,0,0,.9,0,.9l-1.2,1.1-.6-.6,1-.9-.8-1.3-.6-.6-.5.3-.6-.2-.4,1.3-.8-.3-.3-.3.4-.6-.2-1.2-.7-.4v-.4h-.5l-.6-1.1-.3,1.1h-.8c0,0,.2.7.2.7l-.4,1.5-3.1-1.9-.7.2-.7-1.5-2.8-1.2-.3-1-.4-.2.2-.8-.4-.5v-.6c0,0-.7-.6-.7-.6l-.3-.8.3-.3-1.6-2-.4-.2-1.2.3v-.7s-2-.4-2-.4l-2.1.9-.2-.3.3-.8-1-.4-.3.9-2,.3v.6c-.1,0,.3,1.4.3,1.4l-.2.6.9.4.3,1.1,1.7.5-1.2.7-.2.8-.9.9.5,1.2-.4.2v.3c.1,0-.9.3-.9.3l-.3.5.6,2,2.5,1.7h0l-.5.5-2.5-.5-.3.8.6.9h-.5c0,0,.5.4.5.4l-1.1.2-.2,1,.4,1-.7-.3v.5c.1,0-.4.3-.4.3l-1.7-.3v.7c0,0-.5-.2-.5-.2l-.3.4-1.1-.5.7,1.3-.4.4.7,1.2-.3.5h-.6c0,0-.5-.6-.5-.6h-1.1s-.9-.6-.9-.6l-1-1.5-1.1.4v.4c.1,0-.3,0-.3,0v.4c-.1,0,.6.6.6.6l.3.6-.3.8.3.2-.5.4-.8-1.7h-1.9c0,0-.4.3-.4.3l-.5-.8-1-.2-.9.3-1.2-2.1.6-.4-.2-.3.3-.3v-.9c-.1,0-.8-.2-.8-.2l-.4-.8h-1.9s-.5-.6-.5-.6l-.9-.4.2-.4-.3-.7-.7-.2-.5-.5.2-.2-1.4-1.2-1.4,1-.5-.3-.2.8h-1.3s-.6.8-.6.8l-.7-.4-.4.2-.4-.4h-.8c0,.1-.4-.6-.4-.6l-.7-.3h-.6c0,0-1.1,1-1.1,1l-.5-.8-.7.3-1.1-1.3-1.5.3-.4-1.1-1.2.4-1.5-.7-.4.4-1.6-.4-1.6.4-.5-.3.2-.8-.7-.5-1.4.6-1-1.2-1.3-.5-1.7-1.2-.9-1.3.4-.4-.2-.3h-1.4c0,0-.5.8-.5.8h-1.5s-1.2,1.3-1.2,1.3l-1.1-.3-1.7-1.2h-1c0,0-1.1-1.4-1.1-1.4v-1c0,0-2.1-1.3-2.1-1.3l.2-.6-.8-.4v-.6c.1,0-1-.7-1-.7l-1.2-1.8.4-.7,1-.4v-1.3c.1,0,.5-.4.5-.4l-.6-.7v-2.2s-.5-.2-.5-.2v-.8c-.1,0,1-.9,1-.9l-.5-1-1.8.2v-2.2s-.6-.2-.6-.2l-.5-1,.6-.5h-.3c0,0,0-.8,0-.8l1.6-.6.6-.6-.5-.7.5-.5-.3-.6.6-2-2.2-.2-.9-.6-.2-.8.2-.4.6.2,1.9-.6h1.8c0,0,.5-2,.5-2l1,.3v.3c0,0,.8.5.8.5l3.7.3,1.3,1.1.7-.2.4-.7h1c0,.1,0-1.1,0-1.1l-.4-.5.3-.4-.4-.3v-2.1s-2.4-.6-2.4-.6l-.2-1,.4-.4-.3-.7,1.1-1.3h1.3c0,0,1.3-1.1,1.3-1.1h1.1s-.3-1.3-.3-1.3l-.8-.6-.8-2.7h-1.2c0-.1-1.2-1.7-1.2-1.7l-3.1-1.5.2-.3-.3-.8.6-.7-2.7-4.5v-.5s2.2-.7,2.2-.7l.3-.6,1.2-.5v-.8c.1,0,1.3.1,1.3.1l2.9-.5,2.6-1.1,3.5-.7,1.6-.8,2.7-.5.9-1.1,3.7-.7Z"/>
    <path id="CN-61" d="M284.7,256.9l2.6.9.4,1.3,1,.5,1-.5.5.3.4-.4,1.3-.2h.4c0,0,0,.4,0,.4l1.7-.3v-2.7s.4-.4.4-.4l-.3-.3h.4s.8,1,.8,1l.9-1.2v-.6l-1-1,.3-1.6.7-1.1.7-.4.2-.8.9-.7h.6c0,0-.1-.8-.1-.8h.6c0,0,.2-1,.2-1l.7-.3.5.2.9-1.3.3-1.4,1.2-.3.7-1,2.1-1-.7-1.3v-.6c.1,0,.9.2.9.2l1.2,1.4.2-.5.8-.2.8,1.4.8-.4,1.3-2.2,2.1-.9v.4c.1,0-.6,1.3-.6,1.3l.3.6h.3s.9.7.9.7l-.3.3-.7,2.4-1.2.8.3,1-1.1,2.4.3.7-.4,1.2h-.8c0,.1-1,1.7-1,1.7h-.6s-.2.9-.2.9l-.5.4v2.3c0,0,2,2.1,2,2.1l-.4.5.8.6-.3.2.2.9-.3,1-.9.3v.6c0,0,.5.3.5.3v.7c-.1,0-1.4,1.8-1.4,1.8l-.9.7.3.3h-.7c0,0,.5.4.5.4l-.4.9h.4c0,.1,0,.7,0,.7l-.3.3.6.4v.5c-.1,0-.5,0-.5,0l.9,1-.5,4.2,1.3,5.4-2.8,6.6v1.8c0,0-.2.9-.2.9l.4.8h.7c0,.1.1.5.1.5l-.3.5.5,1h.4s.2.7.2.7l-.6.5v.4c.1,0,1.8.8,1.8.8l-.5,1.3.7.8-.7.5v.4c0,0,1.5.6,1.5.6l.5,1.3,1.4,1,.2,2.3-.4.8h0l-.6.5h-.7s-.1.5-.1.5h-.6s-.3.5-.3.5l-.4-.6h-.5l-.3-1-1.1.8h-1.6c0,.1-.6-.4-.6-.4l-1.1.2-1.5-.5h-1.1c0,.1-.7-.3-.7-.3l-.3.4h-.8s-.6.8-.6.8l2.9.8-.2,1.6.3.3.6-.3,1.3.4.9.6v1.2c.1,0,.5.6.5.6l-.3.4-.6-.2-.6.7-.9-.4h-2.4s.1.5.1.5l-.9,1-.3,1.3.9.9v1c.1,0-.1.7-.1.7l.4.8-.4.4.4.9-.5.8h-2.4c0,.1-.1-.7-.1-.7l-.6-.2-1.3-1.4-1.2-.3-1.2-1.1h-.6s-1.2-1-1.2-1h0l-.3-.6-1.3.3-.7-.4-.4.5h-1.3c0,0-.4.8-.4.8l-1-.6-1.6-1.9-1.1.2-.6-.3-.2-1.1h-.4c0,0-.9,1.2-.9,1.2h-.3c0,0-1.2-1.2-1.2-1.2v-1.2c.1,0-.5-.7-.5-.7l-1.9.3v-.4s-.3,0-.3,0l-2.7,1.1-.6-.5-1.9-.6-.4-.4.3-.4-.4-.5-.3.4h-1.5c0,0-.3.8-.3.8l-.3-.2-1.3.7-.8-2.1h0l1.1.3,1.8-.6.5-.5v-1.5c.1,0-.2,0-.2,0l.3-.4.2.5v-.6s-1.4-.5-1.4-.5l-.7-1.2h1s.1-1.1.1-1.1l1-1.1h1.2s0,.4,0,.4l.6.2.8-.5,1.2-.2.2.8.6.3.5-.8-.4-1.1-.5-.2-.2-.8.3-.5-.6-.5.7-2.1.7-.4-.3-1h-.4c0-.1.2-.5.2-.5l1.2.4.4-1.2-.6-.2-.6-1-.9-.4h-1c0,0-.2-.5-.2-.5l1.2-.6v-.6c-.1,0,.8-.6.8-.6v-.6c.1,0-.5-1.9-.5-1.9l.5-.8h3c0,0,1.4.7,1.4.7v.5s.7.3.7.3l.2.6.8-.5,1.9.2.3-.6.6.4,1.4-.3.4-.4-1.7-2.5h.5c0,0,.1-.6.1-.6l1.9.6,1.8-.7.5.4.9-.4,1.2.2,1-.6v-2.1c.1,0-.7-.9-.7-.9l-.2-2.4.7-.6h.6s.3-.7.3-.7l.2-1.2-.5-1.3.5-1.1-1.6-1.1-.7.4-.7-1.2-1.1-.2v-.6s-.5.7-.5.7l-.9-.4-.4-.4.2-.4-.5.2-.4-1.1-1.8-.7h-1.2s-.5-.8-.5-.8h-1.5c0-.1-.3-1.8-.3-1.8h0v-.5s.2.3.2.3l.2-.7-.5-.6h.2c0,0-.4-1.4-.4-1.4l.2-1.2.7-.8-.5-.6.6-.4v-.4s.8,0,.8,0l.2-.7,1.1-.2.2-1Z"/>
    <path id="CN-51" d="M236.3,300.6l.2-.7h.3c0,0,.8,1.7.8,1.7l-.6,1.3-.8.6.5.5v.8c-.1,0,.3.1.3.1l.9-.9h.7c0,0,.3-.7.3-.7l.8.5v-.9c.1,0-.2-.3-.2-.3l.7-.8.8.3,1-.7-.3-1.1-.9-.4v-1.1s-.4.2-.4.2l.2-.5-.7-.3v-.6c.1,0-.4-1-.4-1l.7-.4,1,.2.3-1.2h1.9c0,0-.4-.7-.4-.7l.7-.4.3-.6h.9c0,0,.4-.5.4-.5l.5.2.3,1,1,.2.5.8-.4.3.2.5-.3.4.5.6-.2.9,1.6.7h.7c0,0,.6-.7.6-.7v1.3s.7-.3.7-.3l1.5.5,2.3-.3,1,.8v.7c-.1,0,.4,1.4.4,1.4l.6.7h1.1c0,.1-.2.5-.2.5l-.8-.2.6,1.9-.3.7.7.3-.5.7h-.7s.1,1.1.1,1.1l2.2,1,.5.7h.5c0-.1.3.2.3.2l.8-.2.4.6,1.3-.5.6.5,2.8-1.4-.6-1.3.5-.5.5.2h0l.8,2.1,1.3-.7.3.2.3-.7h1.5c0,0,.3-.5.3-.5l.4.5-.3.4.4.4,1.9.6.6.5,2.7-1.1h.3s0,.4,0,.4l1.9-.3.7.7v1.2c-.1,0,1.1,1.1,1.1,1.1h.3c0,0,.9-1.2.9-1.2h.4c0,0,.2,1.2.2,1.2l.6.3,1.1-.2,1.6,1.9,1,.6.4-.7h1.3c0,0,.4-.5.4-.5l.7.4,1.3-.3.3.6h0l-1.2.2.6,1.1h-.8c0,0,.2.8.2.8l-.8.2.7,1,1.5,1v.8c0,0-.4.5-.4.5h-.4c0,0-.8,1.1-.8,1.1h-1.1c0,.1.3.4.3.4l-.6.9.2.4-1.3.8v.3s.5,0,.5,0l-.6,1,.4.6-.9.7v.5c0,0,.3.2.3.2l-.9.9h-.9c0,0-.4-.7-.4-.7l-.7.7-.5-.4h-.6c0,.1-.7,1-.7,1l.7,1-2.3,3.9-1.3,1.6-.4.2-.4-.4-.4.5h-1.4s-1.1-1.8-1.1-1.8l.2-.4-.6-.3h-1c0,0-.1.5-.1.5h-1c0,.1-.5.6-.5.6l-.8-1.3-2.1-.9-.4.2v-.4c-.1,0-.9.7-.9.7v1c-.1,0-1-.2-1-.2l.3.6-1,.3,1.7,1.4v1.6c-.1,0-1.1.2-1.1.2l-.4,1h-.7c0,.1,0,.5,0,.5h-.5c0,0-.6.8-.6.8h-.2c0-.1,0,1.4,0,1.4h.5s.4.4.4.4v.6c-.1,0,.2.5.2.5l1.6.4.3-.3.2,1.7.7,1.5.8.4.7-.7.5.3v.4s1.4.1,1.4.1l1,2.4v.7s.3.3.3.3h0v.4s-.5-.1-.5-.1l-2.9-2.4-.7.9v.5s-1.2-.1-1.2-.1l-1,1.2.2,1.6.7.4.4-.6.3.2.6.6v1.1s.5-.1.5-.1l.6.3v-.3c0,0,1-.2,1-.2l.8.7v.7c0,0,.6.4.6.4v1.4c.1,0-1,.6-1,.6l-1-.2-3.6,1.1-1.2-1.1-1.5.6h0v-1c0,0-.4-.1-.4-.1v-.5c-.1,0,.2-.4.2-.4v-.6c-.1,0-.7,0-.7,0v-.7c0,0-1.2-.3-1.2-.3l-.6.3-.8,1.4-2.4.6-.6-.4-1.6-1.5h.7c0-.1.4-.7.4-.7v-.6c.1,0-.3-.2-.3-.2l.5-.5-.5-.2-.2-.6h-.6c0,.1-.3-.6-.3-.6v-1.3c0,0,.8-.3.8-.3l.5-.7h-.9c0,0-.5-.4-.5-.4l-1.2.6h-1.2s-.9-.6-.9-.6l-.5,1.4.7,2-1.3.9-.6-.5-1.5,1.3v.9c0,0,.3,0,.3,0v.6c.1,0,.6,0,.6,0l-.5.5v1c-.1,0-1.9,1.7-1.9,1.7v.6c.1,0-.4,0-.4,0l-.7,1.4-1.2.5-.4-.4-.5,1.1.2,1.6-.3.9,1.5,4.5-.5.5v1.2c0,0-1-.1-1-.1l-1.7,1.4-.6-.4.2-.8-.6-.3-2.5,1.3-1.3,1.4-1.4-.4-.7.6-.8-1.6-.4-.2-.6.3-.2-.7.6-.2-.2-.8-2-1.5v-.4h.6c0,0,.2-.7.2-.7l-.3-.3.5-.5-.5-.2v.4c0,0-.5.1-.5.1l-.2-1.5-.8-.2v-.4s-1-.7-1-.7l.2-1.6-1-.2v-.6c0,0-.9-1.7-.9-1.7h-.5s0-1.3,0-1.3h-.4c0,0,.1-.6.1-.6h-.4c0,0-.6-1.2-.6-1.2l-.2-1h-.4s-.7.9-.7.9l-1-.5-.9,1.4v-1.3c-.1,0-1.3-.4-1.3-.4v-.5c.1,0-.8-.8-.8-.8l-.5-1v-.3c0,0,1.2-.4,1.2-.4v-1s-.9-.5-.9-.5v-.6c.1,0-.6-.4-.6-.4l-.4-1-.5-.2-.4.3v-.8s-.8-.5-.8-.5l-.2-1.2-.8.3-.8,2.1-1.2.5.3,2.4-.2,1.1-.7-.5-1.1-1.8v-1.6c0,0-.5-2.1-.5-2.1v-4.1h0l-1-4,.6-2.4-.2-1.4-.5-.7-.7-5.1.5-.7-1.5-1.3v-1.1c.1,0-1.5-1.7-1.5-1.7l.3-1.4h.4s.8.8.8.8l.8-1.2-2.2-2-1.7-2.3v-1.7c.1,0-1.6-2.1-1.6-2.1l-.2-1.3-1.9-1.1-2-.5h0l-2.5-1.7-.6-2,.3-.5,1.1-.3v-.3c-.1,0,.2-.2.2-.2l-.5-1.2.9-.9.2-.8,1.2-.7-1.7-.5-.3-1.1-.9-.4.2-.6-.5-1.4v-.6c.1,0,2.2-.3,2.2-.3l.3-.9,1,.4-.3.8.2.3,2.1-.9,2,.4v.7s1.2-.3,1.2-.3l.4.2,1.6,2-.3.3.3.8.7.6v.6c0,0,.3.5.3.5l-.2.8.4.2.3,1,2.8,1.2.7,1.5.7-.2,3.1,1.9.4-1.5-.2-.7h.8c0,0,.3-1.1.3-1.1l.6,1.1h.5v.4l.7.4.2,1.2-.4.6.3.3.8.3.4-1.3.6.2.5-.3.6.6.8,1.3-1,.9.6.6,1.2-1.1v-1s.4,0,.4,0l-.3-.7,2.1.7,1.1-.7h.4c0,0,0,.4,0,.4l.6-.5.3-1.3-.9-.8.3-2.4,1.5-.6.4.6v-.7c0,0,.7,0,.7,0l1.4,1.1.7-1.6-.7-.4v-.4c0,0,.5-.9.5-.9h.5c0,0,0-1,0-1Z"/>
    <path id="CN-37" d="M368.8,253l1.4.8v.5c.1,0,3.6.2,3.6.2l.4.5.7-.8h1.9c0,0,.9.4.9.4l.4,1.4.7.5v.8s.8.4.8.4v.3c-.1,0,.7-.5.7-.5v.3c0,0-.5.2-.5.2l.8,1.2-1.6-.6h-.5c0,.1-1,1.8-1,1.8l.3,2.6,1.2.8.2.8v-.3c0,0,.4.4.4.4h.5c0,0,0,.6,0,.6l2.4-.7.3.7v-.6c.1,0,1.5-.1,1.5-.1l1.2-1.3v-.5c0,0-.5-.7-.5-.7l2-.7,1.7-1.4.2-.8-.8-.3h1.2c0,0,3.1-1.5,3.1-1.5l1.7.2v.4c0,0,.5.6.5.6h1.1c0,0,0,1.1,0,1.1l.4.3h1.3s.3-.3.3-.3l-.2-.2.7.3-.5.3.7,1,1,.5h.8s0-.3,0-.3l.8.4v-.4c0,0,1.4-.2,1.4-.2v.5s.4,0,.4,0l-.2-.7.9-.7h.6s.1.4.1.4h-.3c0,.1.4,1,.4,1l.6-.4.7.6,1.3-.2-.2.5h.3c0,.1,0-.2,0-.2l1.1-.2.6.3-1.3.5.3.2h-.3c0,0,0,.5,0,.5l.6.9h-.5c0,.1.1.5.1.5h-.7c0,0-.7,1.2-.7,1.2v.3s1.1-.2,1.1-.2l-.2,1.3h-.2v-.4c.1,0-.5,0-.5,0v.6c0,0-.6.3-.6.3h-1.5s.2-.7.2-.7l-.5-.5-.9.5-.2-.7h-.4c0,0-2.7,1.6-2.7,1.6v.8c0,0-.3-.4-.3-.4h-1l1-.7-.9.3v-.3c0,0-.3.8-.3.8l-2.3.8-1.3,1h-.7c0,0-.3-.7-.3-.7h-.3s-.4.4-.4.4l1.2.4v.9s-.4.3-.4.3l-.2.8-.6-1h-.6c0,0-.5.7-.5.7l.4.7h-.6c0,0-.1.5-.1.5h.3c0,.1.3,1.6.3,1.6l-1.4.2-1.7.7-.4-.2.6-1.5-.3-.3h-.3c0,.1.2.5.2.5l-1.1-.2-.5,1,.6.4v.3s.5-.3.5-.3l-.4.9.4-.3v.4s.5-.5.5-.5v.5c0,0-.9.8-.9.8l.3-.6-1.3.7-.3,1.6-.8-.4.2.5-.6,1h-.4c0,0,.2-.5.2-.5h-.3c0-.1-.5.8-.5.8l-.2-.8-.5.7h-.4s-.6,2-.6,2l-1.3,1.4-.3,1.6h-.6s-.8-.2-.8-.2l-.7.6h-1.6c0,0-.5.2-.5.2v.8s-1.1,1.9-1.1,1.9l.4.4-.7.4-1.3-.3-.8,1.1-.2,1.7-1.7.5h-.3c0,0,0-.7,0-.7l-.3-.3.3-.6h-.8c0,0,.1-1,.1-1l-1.2-.3-1.2.3v1.3c0,0-1-.2-1-.2l-1,.8-.8-.3-.9-1-.7.6v.7c-.1,0-.5,0-.5,0l-.7-1.8-.5-.2.2-.5-.9-1.6-1.6-.7v.3c-.1,0-1.3-.2-1.3-.2l-1.4.4-.4,1.4h-.3c0,.1,0,1.2,0,1.2h0l-1.1.9-.4-.3h0l-.5.2-.3-.5h-.5c0,.1-.3-.2-.3-.2l-.2.3-1.2.3-1.1-.4-.2.4-1.2-.2-.8-.9v-1.2c-.1,0-1.2-.7-1.2-.7h-.4c0,.1,0-.4,0-.4h-.5c0-.1.1-.5.1-.5l-.8-.5-1.6.4-.9-.5.3-1.5.7-.3.7-1.7,1.2-.7.4.3,1.1-.7-.2-.9h.4c0,.1,1.1-1.5,1.1-1.5h1.3c0-.1.5-1.2.5-1.2l1.3-.2v-.4c-.1,0,.4-.7.4-.7h1s.6-1.1.6-1.1v-.3c0,0-.4,0-.4,0l-.5.5-1.6.4-2.1,1.1-.5-.2v.4s-1,1-1,1v-1.8c0,0,.7-.5.7-.5l.3-1.6h0v-.9c0,0-.5-.7-.5-.7h-.5c0,.1-.6-1.7-.6-1.7l.5-1.2,1.2-1.5,1.7-.5.8-1.8.7-.8.3-1.3.5-.3.2-1.1,1.5-.5.7.2.3-.4-.4-.3v-.5s.4,0,.4,0l.4-1.1.9,1.1,3-3.7,5.2-.2,1.2-2.3h1c0,0,1.4-2,1.4-2h0Z"/>
    <path id="CN-31" d="M406.4,327.6l.7.6h-.9s.2-.6.2-.6ZM401.1,321.6l.6.2v.6c-.1,0-.6-.2-.6-.2v-.6ZM398.7,320.5l2.1,1,.2.6-2.2-1.7ZM397.2,320.5l.7.2,2.7,2.1,1,1.4.6,1.7-.3.8-3,.2-2.2,1.3h0v-.5c0,0-.4-.4-.4-.4h-.7s-.2-.6-.2-.6l-1,.2v-1.7c0,0-.7,0-.7,0h0l-.2-1.1h1.4c0,0,0-1.3,0-1.3l.7-.2-.3-.9h.4c0-.1,0-.6,0-.6l1.4-.6h0ZM397,316.9l3.1,2.1,1.9.6.6.5v.5s-1.1.5-1.1.5l-3.7-1.8-1.8-1.6,1.1-.8Z"/>
    <path id="CN-14" d="M338,226.6l.6,1.2.7.4v1.1c-.1,0,.3,1.3.3,1.3h1.1s.7.4.7.4l-.6.8-1.6.2-.2.4-.9.2h-.4c0-.1,0,1.1,0,1.1l-.4.2-.3-.7-.2.9-.5.3.9.2.3.8,1.3.6h1.4s.4.8.4.8l-.2,1.5,1.2,1.1-1.1,2.7v.6s.3.3.3.3l-.7.5-.2.9-.6-.4-.7.8h-.7s-.5-.9-.5-.9l-1.3.8-1,1v.9c0,0,.7.6.7.6v.7c-.1,0-.4,0-.4,0l-.3.6h-.4c0,0,0,.5,0,.5h-.8c0,0-.4,1-.4,1l.2,1-.5.9.2,1.2.3.4,2.1.7v.5c-.1,0,.4.5.4.5l.8,2.5.6.5-.4.7h.6c0-.1.6.3.6.3l-2.1,4.5-1,1,.2,2.8-.3.2-.4-.3v.9c-.1,0-1.9.8-1.9.8h.3s-.2.7-.2.7l.5.2.4.6-.3.7,1.3.7.2.6h0l-.5,1.6.2.2-.3.2.4.3h-.4c0,.1,0,1,0,1h.3c0,.1-.1.5-.1.5h-.4s.2,1.5.2,1.5l-.7.2.4,1.8h-.6c0-.1-.4,1.1-.4,1.1l-1.6.5v.5s-.8-.2-.8-.2l-.7,1.1-1-.2v.5c0,0-.5.5-.5.5h-.9c0,0-.5.5-.5.5l-.7-.2-.2-.4-.3.5-1.8-.3-.5.3h-.4c0,0,0-.4,0-.4l-.6.2-1.3-.5-.2,2.5-.6-.5h-1c0,0-.2.5-.2.5l-1.1.4v.4s-.8,1-.8,1l-2.8.6-.6-.2-1.6,1-.3-.3-.2.7h-1.2c0,0-.6.7-.6.7h-2.5c0-.1-.7-.2-.7-.2l-.4-.8.3-.9v-1.8c0,0,2.7-6.6,2.7-6.6l-1.3-5.4.5-4.2-.9-1h.4c0,0,.1-.5.1-.5l-.6-.4.3-.3v-.6s-.4-.1-.4-.1l.4-.9-.5-.5h.7c0,0-.3-.2-.3-.2l.9-.7,1.3-1.8v-.7c.1,0-.4-.3-.4-.3v-.6c0,0,.9-.3.9-.3l.3-1-.2-.9.3-.2-.8-.6.4-.5-1.9-2.1v-2.3c0,0,.4-.4.4-.4l.2-.9h.6s1-1.5,1-1.5h.8c0-.1.4-1.4.4-1.4l-.3-.7,1.1-2.4-.3-1,1.2-.8.7-2.4.3-.3-.9-.7h0l.2-.5h1.5c0-.1.7-1,.7-1v-1.4c0,0,1.8,0,1.8,0l.9.5,1.4-.3.4-2,2.7-4.8,1.3-.5,2.4,1.4.8-.4.4-1.3.8-.3,2.1-.6.5,1,2-.3,1.9-1.8.6.7.8-.7h.8c0,0,0-2.1,0-2.1l.6-.2Z"/>
    <path id="CN-12" d="M364.7,232.1h1.3s.8,1.4.8,1.4l.8.3v.6s.4.1.4.1l-.2.5-.5-.3h-1.4s-.2,1.1-.2,1.1l.3,1.2,1,1.1-.4.8h.6c0,.1.1.6.1.6l.4-.6,1.4.2-.5,1.9h.6c0-.1.6.3.6.3l.5,1.5h-1.2c0,.1-1.5,1.4-1.5,1.4l.5,1.2h-.6c0,0-.7,1.2-.7,1.2l-.6,2.2h0v.5c-.1,0-2.5.4-2.5.4l-.2-.6-1,.4-.7-1.2h-.8c0,.1-.7-.4-.7-.4h-.7s-.4-2-.4-2l.4-1,1.2-.4.2-.8-.6-.7.3-1.4-.2-.3-.3.2.3-.9-.5-.3v-1.6h0l.8-.9h.4c0-.1.2.6.2.6l1.5.2.3-1.5-.3-.5.8-.3-.8-.3-.2-.5.5-1.7h0l1.5-.9v-.6Z"/>
    <path id="CN-71" d="M399.2,406.9l.2.8-.7-.7h.6ZM383.4,393.4l.4.5-1,.4-.3-.3.2-.4.7-.2ZM382.9,392.8l.2.4-.3-.2-.4.3v.6s-.4,0-.4,0l.4-.8.6-.2ZM373.3,385.2l.3.9-1.4.3v-.7s.7.1.7.1l.4-.6ZM388.3,401l-.6-1.9-1.1-1,.4-.5v-1.5c.1,0,.6-.8.6-.8v-.9c0,0-.4,0-.4,0l.5-2.7.8-.2-.2-.3,1.4-2h-.3c0-.1.9-1,.9-1v-.5s1.9-3.1,1.9-3.1l1.5-1.3v-.9c.1,0,1.2-1.7,1.2-1.7l2.8-1,.5-.9,1.2-.4,1,1.1,1.6.5v.8c.1,0,.7.1.7.1l-1.5,1.5.4,2.8-2.1,4,.2.7-.3.4-.7,4.3-1,2.5v.8c0,0-1.7,2.4-1.7,2.4v.8c-.1,0-1.3.8-1.3.8l-1.1,3v2.6c0,0-.4.4-.4.4l.2.8-.8-.5-.4.2-.2-.8.2-.7-.6-1.8-2.3-1.8-.9-1.3v-.9Z"/>
    <path id="CN-65" d="M121.6,128.6l.3.7-.3.9.7.8-1.2.6v.7c-.1,0,.5.4.5.4v.5c-.1,0,.8.6.8.6h.6l.7.7-.6.7-.3,1.8.2-.8,2.8,1.1.6,1.1.9-.3.7,1-.2,1.3,1.5,1.2,1.8.7.4.6v1s1.4,0,1.4,0l1.3-1.1h1.6c0,0,.4,1.2.4,1.2l1.5,1.6h1.2s.2-.8.2-.8l.9.3v1.2c0,0,2.2,1.3,2.2,1.3v.5c0,0,1,1.6,1,1.6l.5,2.9,1.8,2.9,1.5.6.4,1.6.8,1.4-.3,1.3.4.3-1.4,3.1.2,1.2.7,1v1.1s-2.6,3.7-2.6,3.7l-.3,2.3,1.1,1.6v1.1c.1,0,.8.3.8.3v.8c-.1,0,1.9-.1,1.9-.1l2,1.1.7-.5,1.1,1h3.5c0,0,1.3.4,1.3.4l1.7-.2,1.1.4h4.6c0,0,3.6.5,3.6.5l5.7,3.5.9.9v.7c.1,0,2.2.9,2.2.9l1,1.2,2.4,1.1,3.6-.4-.7,2.8,1.7.6,1.1,3.5,1.6,3.1v1.5c.1,0,3.6,4.3,3.6,4.3l.3,1.8h0l-2.2,1.3-.6,5.4.2,1.1-.5,1.3-1.1.6-1.4.2-1.2-.4-3.8.8-3.3,1.7-5.6,5.8-1.6,2.3-1.4,2.8-2.4,1.5-3.6-.3v4.2s-1.2,2.4-1.2,2.4l.9,3.5.6,1v3h0l-3.7.7-.9,1.1-2.7.5-1.6.8-3.5.7-2.6,1.1-2.9.5h-1.2c0-.1-.1.7-.1.7l-1.2.5-.3.6-2.2.7v.5s2.7,4.5,2.7,4.5l-.6.7.3.8-.2.3,3.1,1.5,1.2,1.6h1.2c0,.1.8,2.8.8,2.8l.8.6.3,1.3h-1.1s-1.3,1.1-1.3,1.1h-1.3c0,0-1.1,1.4-1.1,1.4l.3.7-.4.4.2,1,2.4.6v2.1s.4.3.4.3l-.3.4.4.5v1.2s-1-.1-1-.1l-.4.7-.7.2-1.3-1.1-3.7-.3-.9-.5v-.3c0,0-1-.3-1-.3l-.5,2h-1.8c0,0-2-.7-2-.7l-2.1-1.5-.9.4-1.7-1.1-1.3.6-1.2-.9-.3-.7h-.7c0,0-.2-.3-.2-.3h-1.8c0,.1-.9.6-.9.6h-1.3c0-.1-.7.6-.7.6h-1.3c0-.1-1.3.3-1.3.3l-.8-.2v-.5c-.1,0-.8,0-.8,0l-.6.5h-.9c0,.1-.4.7-.4.7h-1.3c0-.1-.8.3-.8.3l-.3-.4h-.9c0,.1-.7.7-.7.7l-1.4.3-.4-.2-1.7.6-.4.3v1c-.1,0-1.2,1.9-1.2,1.9l-.8.6-2.1.3-.8,1.1h-.6v-.7l-2.1-.7-1.9.3-1.6,1.1-3.2.9v.7s-2.2,1.2-2.2,1.2l-1.5-.6-1,.6-2.1.3h-.7c0,0-.4-.6-.4-.6h-.8c0,.1-1.3-.3-1.3-.3l-1,.2-1.1-.9-.3-1.9-1.4-.2-.5.5-.8-.6-1.4-.3-.5.6h-.5s-.1,1-.1,1l-2.2,1.1-.3,1.2h-.7c0,0,.1.3.1.3l-.7.3-1.6.3h-1c0,0-1-1.2-1-1.2l-1.8.4-1-.9-.6.3v.7s-2.6-.3-2.6-.3l-.5-.6h-.8s-.2-.5-.2-.5h-.6c0-.1-1.4.9-1.4.9l-.2,1.3-1,1.3-.8.4-.5,2h-.9c0,.1-.1,1.1-.1,1.1l.4.5-.5.3v1.4s-.5.5-.5.5l-1.3.3-.8-.3-2.6.6-.6-.3-.6.3-.3.8-.7-.5-.2.2h0l-2.9-2.4h-1.3c0,0-.2-.4-.2-.4l-.9-.2-.4-.5-1.2-3.7.3-.5-.7-.7-.4-1.5.9-1.4h-1.2s-.5.6-.5.6l-.7-.9-1,.4h-2.4c0,.1-.7-.5-.7-.5h-1s-2.7-1.4-2.7-1.4h-.8s-1.3-1.1-1.3-1.1l-.2-1.3-1.8.9h-1.4v-1c-.1,0-.7-.9-.7-.9h-.7s-.5-.6-.5-.6v-.7c0,0,.6-.3.6-.3v-.6c-.1,0,.3,0,.3,0l-.6-.7.2-1.6-1.3-2.3-1.6-1h-.9s-.1.5-.1.5h-.6s-.4-2.3-.4-2.3h-1.4c0-.1-.7-.8-.7-.8h-1c0,0-.8.9-.8.9l-.6-.5-.2-.8-.7.4-.5-.7h-.3s-.6.6-.6.6l-1.1-.8.5-.5v-.7s1.4,0,1.4,0l.7-.4.5.6h.7c0,0,.4-.8.4-.8l1.5-.3.2-1.1-.7-1-1-.3-.3-1,.8-1.1-.7-.7v-1.8c0,0-.4-.2-.4-.2l-.6-1.6v-1.7c0,0,.6-.5.6-.5v-1.2s-.4.2-.4.2l-1.6-1-2.2-.8h-2c0-.1-.4,1.3-.4,1.3h-1.2c0,0-1.2-.9-1.2-.9l.2-.4-.8-2.3.4-.7h.7c0,0,0-.5,0-.5l-.2-.6h-.6s-.5-1.4-.5-1.4l-1-1,.9-1.1v-1.1c0,0,1.4,0,1.4,0l.8-1.4-.2-1.4-.6-.5,1.2-2.4-.3-.2.8-.7h.6c0,.1,1-.4,1-.4l.9.4,2-2h.8c0,0,.2-.8.2-.8h.8c0,0,.5.3.5.3l.3-.2-.9-1.2.3-.8,1.3.8h1.9c0,0,2-1.7,2-1.7l1.1-.5.4,1.6.7.3-.6,1,.5,1.1,1-.7.8.6.4-1,1-.3.8.3.9-.8.3,1.1,1.6-1.1v-.8c.1,0,1-1,1-1v-1.4c-.1,0,1.2-1,1.2-1v-1.2s.6-.7.6-.7l1.5-.4.9.5,1.7-.2,1.6.4,3.6-.9.6.5,1.1-.5.7-1.5.9-.6v-1.5c0,0,2.1-.7,2.1-.7l.6-.9,1.1-.3,4.7-2.9h.5s0,.7,0,.7h1.5c0-.1,1.7-2.8,1.7-2.8l3.3-.2-.3-1.8.3-.6-.7-1.7v-.6c0,0,.6-.4.6-.4l-.7-.6-.2-1,.7-1.9h1.1s1.6-.8,1.6-.8l-1.5-1v-.7c0,0,1.6-1,1.6-1l1.5-.2.2-.3-.3-1.3-.8-.2.7-1.6-1.9-4.3-1.5-7.4.5-1.5-.4-.5,1-.6v-.3s-1.7-1.2-1.7-1.2l-2.1.4-.6-.9-.9-.2,2-1.3v-.5s1.1.2,1.1.2l.7-.4.6.3.7-.9h1.1c0,0,1-.7,1-.7l1.3.5.5-.4h1c0,0,.2-.6.2-.6h.5c0,0,2.1-.8,2.1-.8h.6c0,.1,1.7-.9,1.7-.9l.8.7.2,1.2h.7c0,0,.5.6.5.6l2.5-.9,1.9,1.3.9-1.3.3-1.5-.2-.8-1.5-.5-1.2-1.2,1.9-4.9.2-2.4,1.7-4,.6-2.8,1.1-3.2.5-.5.3-1.9h1.2c0-.1.6.4.6.4h.9c0,0,.5.7.5.7h.4c0-.1,1,.8,1,.8l3.8,1.1,1.5-.4h1.8c0-.1.6.3.6.3l1.5-.3.8,1.2-.7.8.9.2,1.3-.5v-.5c.1,0,.9-.2.9-.2l1.3-1.5h2.5c0,0,.4-1.6.4-1.6l1-.5v-1.8c0,0-.8-1.7-.8-1.7v-1.1c.1,0-.5-4.1-.5-4.1l.6-2.7,1-2.6.9-.7,1.4-.3,1.6.2.9-.8h1c0,0,1.3-.5,1.3-.5l.4-1,1.1-1.1v-.8c-.1,0,.4-.8.4-.8l-.6-.9v-1c0,0,.8-.7.8-.7l.3-.8h.9c0,.1,1.4-.5,1.4-.5l2.3.8.7-.3v-.4c0,0,.5.2.5.2l1.1-.5h1.1Z"/>
    <path id="CN-54" d="M48.4,292.5l.2-.2.7.5.3-.8.6-.3.6.3,2.6-.6.8.3,1.3-.3.5-.5v-1.4s.5-.3.5-.3l-.4-.5v-1c.1,0,1-.1,1-.1l.5-2,.8-.4,1-1.3.2-1.3,1.4-1h.6c0,.1.2.7.2.7h.8s.5.6.5.6l2.5.3v-.7s.6-.3.6-.3l1,.9,1.8-.4,1,1.1h1c0,0,1.6-.2,1.6-.2l.7-.3v-.3c-.1,0,.6,0,.6,0l.3-1.2,2.2-1.1v-1c.1,0,.6,0,.6,0l.5-.6,1.4.3.8.6.5-.5,1.4.2.3,1.9,1.1.9,1-.2,1.3.4h.8c0-.1.4.4.4.4h.7c0,0,2.1-.2,2.1-.2l1-.6,1.5.6,2.2-1.2v-.7s3.2-.9,3.2-.9l1.6-1.1,1.9-.3,2.1.7v.5h.6c0,.1.8-.9.8-.9l2.1-.3.8-.6,1-1.9v-1c.1,0,.6-.3.6-.3l1.7-.6.4.2,1.4-.3.7-.6h.9c0-.1.3.3.3.3l.8-.4h1.3c0,.1.4-.4.4-.4h.9c0-.1.6-.7.6-.7h.7s.1.6.1.6l.8.2,1.3-.4h1.3c0,.1.7-.5.7-.5h1.3c0,.1.9-.3.9-.3h1.8c0-.1.2.2.2.2h.7c0,0,.3.6.3.6l1.2.9,1.3-.6,1.7,1.1.9-.4,2.1,1.5,2,.7h0l-1.9.6-.6-.2-.2.4.2.8.9.6,2.2.2-.6,2,.3.6-.5.5.5.7-.6.6-1.6.6v.8s.3,0,.3,0l-.6.5.5,1,.6.2v2.2s1.7-.2,1.7-.2l.5,1-1.1.9v.8c.1,0,.6.2.6.2v2.2s.6.7.6.7l-.4.4v1.3c-.1,0-1.1.4-1.1.4l-.4.7,1.2,1.8,1.1.7v.6c-.1,0,.7.4.7.4l-.2.6,2,1.3v1c0,0,1.2,1.3,1.2,1.3h1c0,0,1.7,1.3,1.7,1.3l1.1.3,1.2-1.3h1.5s.5-.8.5-.8h1.4c0,0,.2.4.2.4l-.4.4.9,1.3,1.7,1.2,1.3.5,1,1.2,1.4-.6.7.5-.2.8.5.3,1.6-.4,1.6.4.4-.4,1.5.7,1.2-.4.4,1.1,1.5-.3,1.1,1.3.7-.3.5.8,1.1-.9h.6c0,0,.7.2.7.2l.4.8h.8c0-.1.4.3.4.3l.4-.2.7.4.6-.8h1.3s.2-.8.2-.8l.5.3,1.4-1,1.4,1.2-.2.2.5.5.7.2.3.7-.2.4.9.4.5.6h1.9s.4.7.4.7l.6.2v.9c.1,0-.2.3-.2.3l.2.3-.6.4,1.2,2.1.9-.3,1,.2.5.8.4-.4h1.9c0,0,.8,1.7.8,1.7l.5-.4-.3-.2.3-.8-.3-.6-.7-.6v-.4c.1,0,.6,0,.6,0v-.4c-.1,0,.9-.4.9-.4l1,1.5.9.6h1.1s.5.5.5.5h.6c0,0,.3-.5.3-.5l-.7-1.2.4-.4-.7-1.3,1.1.5.3-.4.5.2v-.7c0,0,1.7.3,1.7.3l.6-.3v-.5c-.1,0,.6.3.6.3l-.4-1,.2-1,1.1-.2-.5-.3h.5c0,0-.6-1-.6-1l.3-.8,2.5.5.5-.5h0l2,.5,1.9,1.1.2,1.3,1.7,2.1v1.7c-.1,0,1.6,2.3,1.6,2.3l2.2,2-.8,1.2-.8-.8h-.4s-.3,1.4-.3,1.4l1.6,1.7v1.1c-.1,0,1.3,1.3,1.3,1.3l-.5.7.7,5.1.5.7.2,1.4-.6,2.4,1,4h0l-1.2.6.5,1.2-.8.7.3,1.4-1,.2-.5-1.8-1.2.3.5,2.2-.8.6.2,1.6.5.3.6,1.3-.4,1-.7.6-.6-.2-1.2.7-.4-1.7-.6-1-.7.4.5,1-.8.4-.2.6h0l-.6-.6h-.4s0-.5,0-.5l-1-1-.8.4-.7-1.6-.6.4-.5-.7-.8,1.5v1c0,0-.5-.2-.5-.2l-.5.6-1.5-.6-.7-.7-.8.5-.8-.6h-1c0,.1-1-.7-1-.7l-1.7.4-.5.7-.2-.5h-.9c0-.1.9-.9.9-.9l-.4-.4.7-.3v-.3s.7-.4.7-.4l-.2-.5.9-.3.2-.5-1.1-2,.4-.8-1.5.4-1.5,1.2-.2-.3.3-.5-.6-.8,1.9-.9.4-.8-.2-.3-1,.5-1.3-2.1-1,.8h-.6c0,0-2,1.3-2,1.3h-.3c0-.1-.1.3-.1.3h-.4s0,.8,0,.8h-.4c0-.1-.4.9-.4.9l-1.5-.2v-.5c-.1,0-1.2,0-1.2,0l-1-.5.2.4-1.2-.5-.6.2-.2-.7-1.2-1-.6,1.1h-1s-1.8,1.4-1.8,1.4l-.5,1.2-1.3,1.1v.6c0,0-.6,1-.6,1l-.7-.3-.6.4h-2.3c0-.1-.1.1-.1.1l-.2-.2-.9.3-.5,1.3-.8.6.4.4v.6c-.1,0-1.7.3-1.7.3l-.2.7-.3-.3-2.3,1.3-.2.6.6.7-1.5,1.6-.5-.2-1.5.6-.4-.7h-.4s-2.4,1.3-2.4,1.3l-.5-.2-.3-.7h-.6c0,0-.9-.4-.9-.4l.3-.8-1.5-.3-1.3-1-1.8,1.1h-.7s-.7-.7-.7-.7h-1.4s-.3-.4-.3-.4l-2.2.5,1.3-1.7-2.2-.3-1.2-.6-.6.3-1.1-.4-.8.2-.8.7v.5s-1.6.2-1.6.2l-1.1,1-.3.7-.7.2v.9c0,0-.7.3-.7.3l-1.1,2-1.3,1.1v2.1s-1.6-1.7-1.6-1.7v-1c-.1,0,.5-.9.5-.9l.3-1.8-.4-1.4-.7-.6h-.7s-.4-.5-.4-.5l-.7.9-2.4.8h-.9c0-.1-.2.8-.2.8l-.9-.5-1,1-1.5-.3-.8.3-.2-.5-1,.4-.4-.3-2.3.3v-.3c0,0-.8-.7-.8-.7l-.9-.2-.7-.6h-.4c0,0-.8-.7-.8-.7l-1.5.8v.9c0,0-.8.1-.8.1v-.5c0,0-.5.2-.5.2l-1.1-.4-.4-1.7-.7.7.4,1.4-1,.2-.4-.2-.5-1.6-2.7-1.8h-1c0-.1-.5.3-.5.3h-1s-.4-.5-.4-.5h-.7c0,0,.6-2.6.6-2.6l-.5-.6-2.2,1-1.4-.4-.3-1.1h-2c0,0,.1-.8.1-.8l-.3-.4-1.1-.6-.9.3v-1c.1,0-.3-.6-.3-.6l.7-1.5-.8-.6-1.5-.4-1.1.7h-.6s-.7.6-.7.6l-.8-.4-2.4-3.5-3.3-1.2-2.8-2.8-2.5-.8v-.8c0,0-.4-1.4-.4-1.4l-4.2-1h-.4c0,0,0,.6,0,.6l-.8-.5h-.6c0,0-.2,2.1-.2,2.1l-.4.5h-.6c0,0,0,.9,0,.9l-.5.3-.8-.5v-.7c0,0-.7-1.1-.7-1.1l-1.6-.5-1.9-1.6-.5.3-2.6-1.2-.2-.9.5-.6-.6-.7-.5.3-.5-.6-1.1-.5-.5-.8-.9-.3-1.4.5-.6-.8h-.7s-.3-.8-.3-.8l-.7-.3-.5-1v-.4c.1,0-.9-1.4-.9-1.4l-.7-.3-.5,1-.5.3v.7c0,0-.4,0-.4,0l-.4-1-.5-.3.2-.5-.7-.6,1-.9-.4-.7h-.4s-.4-1-.4-1l.7-2-1.4-1.2v-.9s-1.3-.3-1.3-.3l.7-1.7-.7-.4-.2-1,1.1-.5h.7c0,0,1-.8,1-.8l.3,2.1,1.6,1.3.6-.4h.5c0,.1.2-.8.2-.8l.6-.5h.5c0-.1.4.2.4.2l1.1-1,.8-.2.2-.6-1-2.1-.8-.9.5-1.9-2.8-.5v-.7c0,0-2.1-1.8-2.1-1.8l-.9-1.7.6-1.1-.6-1.5.5-1-.5-.5,2.2-1.7v-.7c.1,0-.4-.5-.4-.5Z"/>
    <path id="CN-53" d="M214.4,341.8v4.1s.6,2.1.6,2.1v1.6c0,0,1.1,1.8,1.1,1.8l.7.5.2-1.1-.3-2.4,1.2-.5.8-2.1.8-.3.2,1.2.7.5v.8s.5-.3.5-.3l.5.2.4,1,.7.4v.6c-.1,0,.9.5.9.5v1s-1.2.4-1.2.4v.3c0,0,.4,1,.4,1l.9.8v.5c-.1,0,1,.4,1,.4v1.3c.1,0,1-1.4,1-1.4l1,.5.7-1h.4s.2,1,.2,1l.6,1.1h.4c0,0-.1.6-.1.6h.4c0,0,0,1.3,0,1.3h.5s1,1.7,1,1.7v.6c0,0,.9.2.9.2l-.2,1.6,1,.7v.4s.8.2.8.2l.2,1.5h.6c0-.1,0-.6,0-.6l.5.2-.5.5.3.3-.2.6h-.6v.5l2,1.5.2.8-.6.2.2.7.6-.3.4.2.8,1.6.7-.6,1.4.4,1.3-1.4,2.5-1.3.6.3-.2.8.6.4,1.7-1.4h.9c0,.1,0-1.1,0-1.1l.5-.5-1.5-4.5.3-.9-.2-1.6.5-1.1.4.4,1.2-.5.7-1.4h.5s-.1-.5-.1-.5l1.8-1.7v-1c.1,0,.6-.5.6-.5h-.5c0,0-.1-.5-.1-.5h-.4s0-.9,0-.9l1.5-1.3.6.5,1.3-.9-.7-2,.5-1.4.9.6h1.2s1.2-.6,1.2-.6l.5.4h.9c0,0-.5.6-.5.6l-.9.3v1.3c0,0,.4.7.4.7h.6c0-.1.2.5.2.5l.5.2-.5.5.5.2v.6c-.1,0-.6.6-.6.6h-.7c0,.1,1.6,1.6,1.6,1.6l.6.4,2.4-.6.8-1.4.6-.3,1.1.3v.7c0,0,.7,0,.7,0v.6c.1,0-.3.4-.3.4v.5c.1,0,.6.1.6.1v1h0v.8s-.6.7-.6.7l.3.3-.6,1.3-1-.4-1.7,1.2-.4-.6-.3.3-.3-.2-1,.3-.7-.2-.2-.6-1.3-.6-.9,1.5-.6.3-1.4-1v-.5s-.7,0-.7,0l-.5,1.2-1.4,1.6-.6.2.2.4h-.5s.1.6.1.6l.7-.4.6.9v.7s-.6.6-.6.6l.3.7h.3s-.2,1-.2,1l.5.8,1.6.2,1-1.2,1.7.2.5-.8.4,1,.9.2v.5s.8.8.8.8v.5c.1,0-1,1.1-1,1.1l-.2,1.4-.5.2v1.8c-.1,0-.6,1.3-.6,1.3l-.4-.2v.9c0,0,0,.5,0,.5l.8.2v.9c0,0,1.1-.4,1.1-.4v1.1c-.1,0,.7.4.7.4v.6c0,0,1.5.4,1.5.4v.8c0,0-.6-.4-.6-.4l-.6,1.3h-.4c0,0,.5.1.5.1l.3.6-1.4,1.5v.8h-.1l-.4.7.2.7.8,1.7.7.5.2-1.1,1.9.3.9-.3,1.2.9v.5c-.1,0,.3.8.3.8l-.4.4.7.6.5-.4,1.3.9.4-1h.6c0,0,.5.8.5.8l.9-.3.6.4.5-.2.2-.6h.7c0,0,.8.8.8.8l.8,1.4-.5.7v2s-1.1,1.1-1.1,1.1v-.4c-.1,0-1.4-.2-1.4-.2l-.2.4-1.3.6.3.6-.3-.2-.5.3-.5.6v.5h.1l-1.8-1.8-.8,1.1h-1.2s-1.1.9-1.1.9h-.5s-.1.4-.1.4h-.6s.5,1.6.5,1.6l-1.1,1.1-1.3-.3-1.8,1.4-.8-.4v-.9c0,0-1.3.2-1.3.2l-.6.8-.5,1.9-2.6-2.5-.8.8-.3,1-.9-1.1v-.4c0,0-.9-.5-.9-.5l-.3,1.2-.8.3v.8s-.8.4-.8.4v.6c0,0-1.3-.3-1.3-.3l-.6-1.1-2.1-1.1-.3.3-.6-.7-1,.9v.5c.1,0-.9,1.2-.9,1.2v.7c0,0-.7-.2-.7-.2l-.3.3-1-.5-.9.2-.3.5-.8-1-.8.2-.5,1.6-.7.3.5.8-.2.4.4,1.3.7.2v.4s.6.5.6.5l-.2,1,.6,1.1-.5.2-.2,2.3.9.5v.3s-.5,0-.5,0v.6s-.6,0-.6,0l-.3-.4-.6.2v-.5s-.3-.2-.3-.2l-2.3.6-.4-1.2.3-.5-.6-.3.2-1.3h-.5c0,0,.1-.7.1-.7l-.4-.2v-1c0,0-2.3,1.1-2.3,1.1l-1.3,1.5-1.5.2-.9-.7-1.5.9-.7-1.2.5-.7-.3-.3h-1s-.3-.4-.3-.4l-.2-.7.4-1.4-.2-.7h-.7c0-.1-.3.2-.3.2l-.8-.5-.4.3-.4-.5h-1s-.4-.3-.4-.3l-1.1.3-1.4-.5.9-1.7-.2-.3,1.1-1-.5-2.2,1-.9v-.9s.5.3.5.3l.4-.3-.4-1.3-1.3-.5-2,.4-.5-.4v-.3c0,0-1.4-.2-1.4-.2l.4-.9-.4-.3.3-.8-.4-.6h-.4c0,.1-.2-.5-.2-.5l.7-.7-.6-1.3-1.2-.5.2-1.1-.3-.2,1.3-.8.3-.9-2.2.5-.6-.3-3.3.3-2.1.8-1.9,1.5-.9-.8.8-.6,1-1.5-.2-.3.3-.7-.8-.3v-.3c0,0,.4-.1.4-.1l-.3-.8h-1.2c0,0,.1-2.7.1-2.7l1.9-1-.6-1.2,1-2.6.9.4,1.6-1.5v-1.1c-.1,0,.3-.4.3-.4v-.6c0,0,1.1.7,1.1.7h.4c0-.1,1-2.4,1-2.4l.6-.4.7.4.6-.6v-.3s-.8-.8-.8-.8l-.3-1.2.6-.2v.5c.1,0,.6-.4.6-.4v-.5c.1,0-.4-.6-.4-.6v-.6s.5-.6.5-.6l.4-2.2-.3-2.2.2-1.7-.5-.5v-1c-.1,0,.3-1,.3-1l-.4-1.4v-.9c.1,0-.2-.4-.2-.4h-.6c0,.1-.3-.4-.3-.4l-.2.2-.8-.5v1c0,0-.8.5-.8.5l-.9-1.9v-.9c0,0-.5-.3-.5-.3l.3-.5-.6-.5v-1.7h0l.2-.6.8-.4-.5-1,.7-.4.6,1,.4,1.7,1.2-.7.6.2.7-.6.4-1-.6-1.3-.5-.3-.2-1.6.8-.6-.5-2.2,1.2-.3.5,1.8,1-.2-.3-1.4.8-.7-.5-1.2,1.2-.6Z"/>
    <path id="CN-33" d="M401.6,335.1l-.2-.8.3-.3.4.8-.6.3ZM404.1,334.8l1,.6.4-.9-1.9-1.3h-1c0,0-.2-.3-.2-.3l.6,1.8h1.2ZM405.8,330.2h-.8s0,.5,0,.5h1.3c0,0-.5-.5-.5-.5ZM406.1,332.3l-1.1.3h1.1c0,0,0-.3,0-.3ZM404.5,331.6l-1.4.3,1.5.6v-.9ZM403.3,336.9l-.2.6h.5s.6.6.6.6l.2-.4-.7-1h-.4ZM406.1,336.3v-1.1c.1,0-.6,0-.6,0l.6,1ZM405.3,336.9v-.7c-.1,0-.8,0-.8,0l.8.6ZM396.5,351.5l-.9.8.2.9,1.1-.5-.2-.9-.2-.3ZM402.5,341.6h.2c0,.1-.5.8-.5.8l-1,.3v-2.1s-.3.2-.3.2v1.6c0,0-1.2,0-1.2,0l-.3-.6-.6.6.6.5h-1.2c0-.1,0,.3,0,.3h1.6s0,.5,0,.5l.6.4-.4.3.5.3-.7.4-1-.4,1.1.6.3.9-.5.8-1.3.2.4.2.4,1.2h.6s-.4.9-.4.9l.3,1,.5-.2-.2.6-.4.3v-.6s-1-.2-1-.2l-1,1.8-.9-1.1-.3-1.2-.7,2.1-.6.2-.5,1.5h-1.3c0,0-.8-.5-.8-.5l.2.5,1,.5v.6s-2.2,2.5-2.2,2.5l.2.8.5.2-.4.5v.6c0,0-.8-.4-.8-.4l-.3.6.4.2-.3.4.2.3-.6.8-.6-.7h0l.2-.2-.6-.8h0v-.4h-.6l-.2-.4h-.9c0,.1-.8.8-.8.8l-.3-.4-.5.6h-1.4c0,0,0-.1,0-.1h0l-.8-1,.2-.6h0l-.6-.8v-.7c0,0-.6,0-.6,0v.3c-.1,0-.5-.1-.5-.1l-.4,1.3-.6-.2-1.1,1h-.9c0-.1,0-.6,0-.6h-.9c0-.1-.4.2-.4.2h-.4s-.3-.5-.3-.5h0v-1.8c.1,0-.5-1.8-.5-1.8l-.7-.6v-.7c0,0,.6-.6.6-.6l-.2-.5.3-.6-.8-.6-.8.5-.2-.3h-.6c0,0,0,.5,0,.5l-.5-.5h0l.5-.4-.3-.7.2-.6-.4-.2v-1.7c.1,0-.3-1.1-.3-1.1l-.7-.4-.3-.8h-.5c0,.1.2-.2.2-.2l-.3-.4h-.7c0-.1-.5-1.1-.5-1.1l.3-1.8h.8c0,0,.3-.6.3-.6v-.4h-.1l.4-.4h.5c0,0,0-.6,0-.6l.7.2.7-.3.5-1,1.6-1.1v-1c.1,0,1.3-1,1.3-1v-1.9s-.4,0-.4,0l.6-.5-.3-1,.6-.4.7.5h1.5c0,.1.2-.3.2-.3l1.2-.2-.6-1.5h-.7c0,0,0-.8,0-.8h.6c0,0,.6-.7.6-.7l.5.3.4-1.2.7-.5.5-2.9h0l1.2-.4h1.1c0,0,.7,1.5.7,1.5l1.3.9,1.8-.2v.6c0,0,.5-.3.5-.3l.6,1.5.6-.9,1-.4v-.7s1.6-.4,1.6-.4h.8c0,0,0,1.8,0,1.8l1-.2.2.6h.7s.4.4.4.4v.5h0l-2.3,1.3-.7,1.8-1.2.5-.3-.6-.7-.2.4,1.3.3.4h.7l.5.7,2.5-1.6h1.3s1.5,1.1,1.5,1.1l1.4,2.1h.9c0,.1,1.1.9,1.1.9h1.6c0-.1,0,.1,0,.1l-2.2,1.2v.6c0,0-1.4,1.3-1.4,1.3l-1.5.4-.3-.3-.5.7.2.6.5-.7-.2,1,.6-.8,1.3-.6.7.6.2-.7h-.7c0-.1,1.4-.9,1.4-.9l.7.4-.6.6.5.8-.5.3v.7s.3,0,.3,0l-.4.4.5.3ZM400.9,342.8v.3s1,0,1,0l.2.5.4-.3-.3-.9-.6.4h-.7Z"/>
  </g>
</svg>