<?xml version="1.0" encoding="UTF-8"?>
<svg id="Layer_1" xmlns="http://www.w3.org/2000/svg" xmlns:amcharts="http://amcharts.com/ammap" version="1.1" viewBox="0 0 512 512">
  <!-- Generator: Adobe Illustrator 29.1.0, SVG Export Plug-In . SVG Version: 2.1.0 Build 142)  -->
  <g id="_x3C_defs">
    <amcharts:ammap bottomLatitude="34.565124" leftLongitude="32.271509" projection="mercator" rightLongitude="34.589764" topLatitude="35.695073"/>
  </g>
  <g>
    <path id="CY-01" d="M148.9,220.7l11,3.4.7-1,6-.2,1,.9,4.7-3.2v3c-.1,0,5.8,3.2,5.8,3.2l1.9-1.4,4.3.4h0l5.8-.6h0l2.5,1.3.9-1.4,2.4,1.7.6-2.6,2.9,1.4-1-1.5.7-.7,2.7,2.3,4.8-.4,2.5,1.7.9,3,3.2-.6.7,1.1.5-2.9,1.9.3.3-2,1.3.8,2.6-1.4,4.6,3.1.7-1.3,5.5,1,1.8,2,1.1-1.2,10.4.4,13.5-3.5.4-4.9,2.9-3.2,7.1.5,3.4-1.4,3.2.7-2.8,1.1,1.6.6,4.2-1.8,2.8,1.3,1.7-.7h0l1,9.4,2.3,1.1,1.2,2.8-3.5,2.3,2.8,12.3-.8,2.2-5.4,5.4,2.1,3.9,7.8,1.3,1.4,3.5h0l-3.1,5.5-7.6-1.8-1.2-2.2-3.2-.9-4.5,3.9,1.1,3.5-4.5,3.4-1,4.8h2.9l2.9,10,1.8.5-.2,2.2-1.6-.6.3,4.7-2.8,2.1.5,3.9-6.4-3.1-4.9,3.8-5.1-3.3-3-.5,1.1,6.1-2,4.4-2,1.1-4.9-1.6-7.1,2.2-.7-2-3.2-2-3.9,3.4-.8,3.3-9.2,6.8h-3.2s1.2-.7,1.2-.7v-2.4s-3.1-.2-3.1-.2l.5-1.6-8.4,2-.7-2.3-1.8-.2-1,1.3-2.3-2.3-1.7,1.6.5,1.9-3.8.5-3.9,3.9h0l-3.8-.7-1.2-2.2-3-.8-3.1.3-2.6,2.1-2.8-2.2-2.1-5.5-7.1-2.7-4.2-5.8-7.9-1.2-8.6,5.7-4.9-1.3-6,.6-1.8-2.2-2.8.2-10-4.5-1.4,2.8h-3.3s-.9,1.2-.9,1.2l.6,2.6-1.6,8h0l-2.4.8v-2.2c-.1,0-4-1.5-4-1.5l-1.5,1.1-2.6,6.5-5.4-2.1,3-2.4-4.3-.7-.8,4.5-2.1-3.9-2.2-1.3-1-6.1,2.6-.8v-3.6c-.1,0,1.4-2.7,1.4-2.7l-.7-4.5-1.9-.5,1.9-2.5-.2-1.8-1.5-3.2-1.6-.6-1.4-4.7-5.8-1.9-2.4-5.8-1.9-.5,1.8-3.7,2.6.2,1.4-1.5v-8.9l-4.9-2v-4.3s-3.9-2-3.9-2l-2.8-4-3.6-2.5h0l5-2.3h3.3c0,.1,3.9-3.6,3.9-3.6l1.6,1,2.8-1.6,5.4.2,2.1,1.9,13.1,1.8,1.3,1.8,8.2,3,2.6,2.6,6.6,3.1,3.2-.7,9.3-5,3.8-4,3.2-6.3,4.7-17.7Z"/>
    <path id="CY-02" d="M113.1,315.6l1.6-8-.6-2.6.9-1.2h3.3c0,0,1.4-2.8,1.4-2.8l10,4.5,2.8-.2,1.8,2.2,6-.6,4.9,1.3,8.6-5.7,7.9,1.2,4.2,5.8,7.1,2.7,2.1,5.5,2.8,2.2,2.7-2.1,3.1-.3,3,.8,1.2,2.2,3.8.7h0l-1.3,6.1,3.4.4.8,1.5,4.2-.3,4.1,2.3,4.9.4,5.7,5.3,1.2,3.6,4.4,2.5,3.4,6.2-1.6,10,1.7,5.5h0l-1,2.6-2.4.8-14.2-.2-9.9-1.8-18,6.6-4.9,5.1h-2.2c0,0-2.1,2.1-2.1,2.1l.4,2.5-1.7-1.2-2.4,8.1.5,7.8,5.9,6.7-1.9,1.3-11.6-2.8-2.1,1.4-3.7-.7-3,1.1,1.6-2.1-.6-4.2-3.2-7.3-2.9-4.9-7.7-7.5-5.6-.7-1.2,1.6-4-1-1.1,1.4-6.1-.7-3.8,1.9h-3l-3.2,2.6-5.1-.8-1.2,2.1-2.7.3-5.5-3-6.7-1.6h0l.2-8.3-1.7-3.5,3.9-1.9.6-3.8,3.8-.4,3.9-4.2,4.1-1.1,1-5.5,1.1-.5-1.6-2.4-2.8-.6.2-2-1.3-.8,2.4-2.6,1.8.6,1.6-4.8,4.7-1.9,1-6,8.7-6.8-.3-3.1-3.7-1-.7-4.1Z"/>
    <path id="CY-03" d="M291.6,262.1l5.9-1.3.8,1.9,6,3.6.8,10.4,4.6-.6.8-2,2.8-.2,3.7-3.2,1,1-2.4,5.6,1.8,3.1,5.6-3.6,2.9,1.7.2,2.8,3.3,2v2.2c0,0,3.1.3,3.1.3l-.7,1.6h6.6s2.3,2.1,2.3,2.1l9.6-.3,3.1,10,2.4.9,2.3-.7h0l-2.3,4.1-7.2,2.9-6-5.3-11.5-4.4-9.3-.6-11.5,2.6-5,3.5-2.4,3.7-1.1,3.3,1.1,1.7-.9-.6.3,3-1.1.8v12.7s-6.5,8-6.5,8l-1.3,5-4.4-1.3-6.8.4-11.2,8.6-1,2.3-5.2.3-9.3,3.1-2.8,2.9-4.8,1.2-5.1,4.2h-5.1s-4.7,3.2-4.7,3.2h-2s.8,1,.8,1l-3.2-2.3h-3.5c0-.1-2.6,1.4-2.6,1.4h0l-1.7-5.5,1.6-10-3.4-6.2-4.4-2.5-1.2-3.6-5.7-5.3-4.9-.4-4.1-2.3-4.2.3-.8-1.5-3.4-.4,1.3-6.1h0l3.9-3.9,3.8-.5-.5-1.9,1.7-1.6,2.3,2.3,1-1.3,1.8.2.7,2.3,8.4-2-.5,1.6,3.1.2v2.4s-1.2.7-1.2.7h3.2s9.2-6.8,9.2-6.8l.8-3.3,3.9-3.4,3.2,2,.7,2,7.1-2.2,4.9,1.6,2-1.1,2-4.4-1.1-6.1,3,.5,5.1,3.3,4.9-3.8,6.4,3.1-.5-3.9,2.8-2-.3-4.7,1.6.6.2-2.2-1.8-.5-2.9-10h-2.9l1-4.8,4.5-3.4-1.1-3.5,4.5-3.9,3.2.9,1.2,2.2,7.6,1.8,3.1-5.5Z"/>
    <path id="CY-04" d="M507.1,107l-3.5,6.7.4,4-2.5,3.6-6,.6-.9,1.4h-3.9c0,.1-3.8,3.2-3.8,3.2l-6.2,1.2-9.1,6.8-3.5,9.4-2.1.4-4.5,4.3-4.6,1.4-14.8,13.8-21.2,9.4-11.7,7.8-12.3,13.2-1.2,7.4-2.4,3.3-11.2,1.8-3.2-1.8-4.7.7-7.3,5.5-8.3,14-.8,13,2.6,7.2-.3,2,.9,1.9,1.6.3,3.3,6.9,2.6.4.3,1-1.4-.3.9,1.1,1.3-.3,1.3,4.7,5.9,8.4,8.2,6.5,6.2,9.2,2.1.9v2.6c0,0,3.2,4.2,3.2,4.2l-1.8,1.6,1.4,3.4,1.9.4.4,1.3-.5,1.4-2.1-2.2-2.1,1.6-2.6-2.5-5.6-1.7-2.9-2.3-7.2.3-2.6-1.6-2.8.5-.3,1.6-1.5-.5-10.3,3.3h0l-2.3.7-2.4-.9-3.1-10-9.6.3-2.3-2.1h-6.6s.7-1.7.7-1.7l-3-.3v-2.2c0,0-3.4-2-3.4-2l-.2-2.8-2.9-1.7-5.6,3.6-1.8-3.1,2.4-5.6-1-1-3.7,3.2-2.8.2-.8,2-4.6.6-.8-10.4-6-3.6-.8-1.9-5.9,1.3h0l-1.4-3.5-7.8-1.3-2.1-3.9,5.4-5.4.8-2.2-2.8-12.3,3.5-2.3-1.2-2.8-2.3-1.1-1-9.4h0l-1.4-3.6,14.8-6.2,1.5-2.2,2.1.6,5.3-1.5.7-1.9,2-.5.3-1.8-3.4-1-.6-2.7h0l.9-1.2,2,.4,4.5-2,5-4.8,13.8-6.8,17,.2,6.4-2,2.1-2,2.1.5,4.1-1.5.4-1.2,3.2.2,3.5-2.7,5.4-.3,11-6.5,4-.8,7.6-6,1.7.4,8.1-2.9,6.4-9.3,3.1-1.5,1.7-4.5,3.2,1.5h2.8s1-1.3,1-1.3l1.1,1.6,1.5-1.4,2.1,1,4.1-3.7h2.6c0,.1,3.7-2.4,3.7-2.4l2.2,1,6.5-4.2,1.5-3.4,1.5,1,2.6-2.5v-3.4c.1,0,4.9-.8,4.9-.8l3.6-2.7h5.3c0,.1,6.7-5.3,6.7-5.3l4.9.8,4-2,2.2.3,3-2.6.2-2,4.1,1.5,3-1.9,1.4-2.7,9.5-1.9Z"/>
    <path id="CY-05" d="M67.2,246.3l1.8.2h0l3.6,2.5,2.8,4,4,2v4.3s4.9,2,4.9,2v8.9l-1.4,1.5-2.6-.2-1.8,3.7,1.9.5,2.4,5.8,5.8,1.9,1.4,4.7,1.6.6,1.5,3.2.2,1.8-1.9,2.5,1.9.5.7,4.5-1.6,2.7v3.6c.1,0-2.4.8-2.4.8l1,6.1,2.2,1.3,2.1,3.9.8-4.5,4.3.7-3,2.4,5.4,2.1,2.6-6.5,1.5-1.1,3.9,1.5v2.2c.1,0,2.5-.8,2.5-.8h0l.7,4.1,3.7,1,.3,3.1-8.7,6.8-1,6-4.7,1.9-1.6,4.8-1.8-.6-2.5,2.6,1.3.8-.2,2,2.8.6,1.6,2.4-1.1.5-1,5.5-4.1,1.1-3.9,4.2-3.8.4-.6,3.8-3.9,1.9,1.7,3.5-.2,8.3h0l-7.8-2.6-4.5-3.8-8-4.1h-5.1s-3.4-2.5-3.4-2.5l-4.5,1.1-10-8.1-3.1-.3-4.1-5.4-3.3.2,1.4-3-1.2-4.9-1.5-1.3-1.2-13-1.5-1.9h-2.7c0,0-.3-2-.3-2l-1.3.8-.3-1.5h-2.6c0,.1-1.3-4-1.3-4l-5.4-7,1.9-2.7v-3.8s-2.8-6-2.8-6l-2.3-.7v-2.2s1.5.5,1.5.5l1.1-1.6-.9-1.8.9-6.8-3.9-5.7-1.3.2-3.8-8.2.3-10.8.7-2.6,2-1.7,3.8,3.8.4,2.1,11.7,9.5,9.1,2.2,6.6-1.6,10.6-7.9,5.8-9,3.7-8.9,3.6-2.3,2.3-5.5,1-.4.7,1.7Z"/>
    <path id="CY-06" d="M148.1,186.9l7.5,2.6,6.1,5.3h8c0-.1,7.3,3.4,7.3,3.4l7,.3,3.7-3.8.9,1.3,2.9-.3,7.9,3.5,3.2.3,2.5-2.1h2.2l8.3,3.7,3.2-1.7,3.8,1.6,2.9-1,3.1,1.7h6c0,0,3.8,1.9,3.8,1.9l2.9-.7,2.1.9,1.5-1.2,1.1,1.1,9,.6,8-1.4,3.8,1.2,11.4-3.7h7.4l8.8-3.7,1.2,1.4,8.3-1.1h0l.6,2.7,3.4,1-.3,1.8-2,.5-.7,1.9-5.3,1.5-2.1-.6-1.5,2.2-14.8,6.2,1.4,3.6h0l-1.7.7-2.8-1.3-4.2,1.8-1.6-.6,2.8-1.1-3.2-.7-3.4,1.4-7.1-.5-2.9,3.2-.4,4.9-13.5,3.5-10.4-.4-1.1,1.2-1.8-2-5.5-1-.7,1.3-4.6-3.1-2.6,1.4-1.3-.8-.3,2-1.9-.3-.5,2.9-.7-1.1-3.2.6-.9-3-2.5-1.7-4.8.4-2.7-2.3-.7.7,1,1.5-2.9-1.4-.6,2.6-2.4-1.7-.9,1.4-2.5-1.3h0l-5.8.6h0l-4.3-.4-1.9,1.4-6-3.2v-3c.1,0-4.5,3.2-4.5,3.2l-1-.9-6,.2-.7,1-11-3.4h0l.7-9.7-.9-9.6-2.8-4.1-.3-12,2.5,1.5Z"/>
  </g>
</svg>