<svg xmlns="http://www.w3.org/2000/svg" xmlns:amcharts="http://amcharts.com/ammap" id="Layer_1" viewBox="0 0 512 512"><g id="_x3C_defs"><amcharts:ammap bottomLatitude="-9.504" leftLongitude="124.042" projection="mercator" rightLongitude="127.343" topLatitude="-8.127"/></g><g><path id="TL-LA" d="m416.6 247.1 44.5-13.1 44.4-40-52.6-16.3-42.4 18.8 18.8 29-11.1 11.7z"/><path id="TL-VI" d="m384.7 235.2-9.6-11.7-3.5 15.2-44.4-3.9-16.2 17.4 15.9 31.7 89.7-36.7 1.6-9.9-33.5-2Z"/><path id="TL-MF" d="m276.3 245.9-17.8 6.4-16.6 31.4 13.9 29.9 57.3-20.9z"/><path id="TL-MT" d="m327.5 207.4-47.6-1.8 2.7 3.5-12.5 10.6 6.3 26.2 36.8 46.8 13.7-8.8-15.9-31.7 16.2-17.4z"/><path id="TL-ER" d="m229.1 230-47.9 16.1 35.5 35 11.4-19.5 1-31.7Z"/><path id="TL-CO" d="m228.1 320.9-11.8-31.8-15.1 27-24.1-6-29.6 6.3 15.8 42.2z"/><path id="TL-BO" d="m175.6 246.4-6-2.5-29.6 45.7 27.9-7.5 9.3 28 24.1 6 15.1-27 .4-8-35.5-35-5.6.3Z"/><path id="TL-BA" d="m410.5 196.4-83 11-.3 27.4 44.4 3.9 3.5-15.2 9.6 11.7 33.5 2 11.1-11.7-18.8-29Z"/><path id="TL-AN" d="m258.5 252.3-30.4 9.4-11.4 19.5-.4 8 11.8 31.8 27.7-7.3-13.9-29.9 16.6-31.4Z"/><path id="TL-AL" d="m269.7 219.8-38 5.7-2.6 4.5-1 31.7 30.4-9.4 17.8-6.4-6.3-26.2h-.3Z"/><path id="TL-OE" d="m41.1 361 29.3-49.4-63.9 24.9z"/><path id="TL-LI" d="m231.7 225.5-3.3-8-52.5 9.7-6.3 16.7 6 2.5 5.6-.3 47.9-16.1z"/><path id="TL-DI" d="m282.5 209.1-2.7-3.5-51.5 11.9 3.3 8 38-5.7h.3l12.5-10.7ZM250.1 151l-19.2 19.3 11.6 8.2L250 151Z"/></g></svg>