<?xml version="1.0" encoding="UTF-8"?>
<svg id="Layer_1" xmlns="http://www.w3.org/2000/svg" xmlns:amcharts="http://amcharts.com/ammap" version="1.1" viewBox="0 0 512 512">
  <!-- Generator: Adobe Illustrator 29.1.0, SVG Export Plug-In . SVG Version: 2.1.0 Build 142)  -->
  <g id="_x3C_defs">
    <amcharts:ammap bottomLatitude="41.064411" leftLongitude="40.011506" projection="mercator" rightLongitude="46.721888" topLatitude="43.584733"/>
  </g>
  <g>
    <path id="GE-AB" d="M26.2,130.5l.8.7,1-.2.5.2,1.6,1.5,1.5-.3,1.4.7,3,.4h.7s1.4-1,1.4-1l1.4.9,1.5.2,1.4,1.3.8.3,4.5,1.2,1.1-.6,2.4-2.6,1.1-.3,1.3-.9h1.2c0,.1,1.8,2.5,1.8,2.5l3.5.9,2.5,1.8,4.3,2.4h3.5s1,.6,1,.6l.5.9-.2,1.3,2.2,1.6.8,1.7,1,.3h1.2c0,0,.7-.3.7-.3l.7-.8h1c0,.1,2.5,1.8,2.5,1.8l.9,1.3v1.2c0,0,1.4.9,1.4.9l3,.5,1.4-1.8h1.5s6,2.2,6,2.2l2.5,1.6,2.3.4,1.3.9.8,1.1h1.5c0,.1,2.8-2.8,2.8-2.8l.8.3,2.2-.3.9.9.4,4.8,4,.9,1.9,1.9,3.1,1.8.7,1.2,1.4.5.7.8,1.2.2,2.3,1.1,2-.7,2.6,1.4,1.1.2.6-.3.9-1.3h.6c0-.1,2,1.6,2,1.6l4.3,1.2,3.2-1.2.3-.7-.5-1.5.4-.9h.4c0-.1.5,0,.5,0l.9.9,2,.9,1.9.3,1.2,1.6,1.5-.5h2.8s1.6,1.8,1.6,1.8l.7.2h.7c0,0,1.7-1,1.7-1l2.4-.3,1.8-1.3,1.4.2h0l-1.9,4.9v2.5s.8,2,.8,2l-.5,1.8-2,4.3-2.8,2.5-1,2.8-1.8.6-4.1.5-2.1,1-3.3.6-1.5.7-.4.5.8,2.5,1.9.4-.3,4.2,1.1,1.2.3,1.8.7.9-.9,1.9-1.7.8-1.2,1.8,1,1.2.4,1.4.4,2.9v5.1c0,0,.8,1.6.8,1.6l1.5,1.5.9,1.5v2.4l-.8,2.8-1.1.8-1.3.4-2.6,3.8-3.2,3.5-4.2,2.9-4.7,2.3-3.2.9-3.4,4.1-5.3,2.7h0l-1.5-11.1-1.4-7.6-3.4-11-1.7-3.4-.6-.7-1.1.2-1.2-1.7-.9-.5-4.7-1.2h-1.2s-1.8-1.3-1.8-1.3l-5-1.6-1.8.2-1.3.9-2.3-.4-.7-1.5-2.5-3-1.9-10.2-1.9-4.3-1.1-1.2-.7-.3-1.2.4h-1.5c0-.1-1.3,1.3-1.3,1.3h-.8s-.5-1-.5-1l-1.8-1.6-1.2-2.1-1.6-1.3-1.4-2.4-1.6-1.2-2.8-.7h-1.4c0-.1-.8.1-.8.1l-2.8-.6h-4.8c0,.1-3.4-1.4-3.4-1.4l-2.5.8-2.2.2-1.4-1.3-1.7-2.6-1.5-1.2-3-.2-.7.4-.7-.9-1.9-.6-2.9-2-1.6.2-.7.4-1.5,1.6v.6s-.4,0-.4,0l-2.3-2.5-1-.3-1.5-1.6-.8-7.7-.7-3.2-.9-2-2.9-1.6-3.3-.9-2.2-1.7-1.2-.2-2.7-1.9-5.1-.8.4-4.4,1.6-2.9.5-2.6,1.3-1.6.3-1.1,2.1-2.1.3-.6-.4-2.3.6-1.1h2.4c0,.1,3.1-1,3.1-1l2.7.3,1.1-.6,1.6-.3,1.1.2,1.4.8Z"/>
    <path id="GE-AJ" d="M137.1,299.5l11.1.8,1.6.8.4.5.2,2.9,3.4.2,1.6,1.7,2.9.9.6,1.6,4-1.5h2.9s2.4.8,2.4.8l1.1,2.1,3.9-1h3.8c0,0,1.8-1.7,1.8-1.7l2.6-1.7h2.2c0-.1.8,0,.8,0l1.1,1,1.5,2.6,3.1.2h0l1.3,3.5v2.7c0,0-1.6,1.9-1.6,1.9l.4,2.4,2.1,3.4,2,1.3.8,1.5,1.6,1.7,1.3,4.2h0l-.7.6-.2,2.2-.9,1.9.3,1.4-1,.6-.6,1.1h-1c0,0-.3.2-.3.2v.5c0,0-1.2.7-1.2.7l-.4,1,.8,1.4.2.8-.2.7h-.5s-.7-.5-.7-.5l-2.5.6h-1.8c0-.1-2.4-1.8-2.4-1.8l-.5-.9-2.7.2-1.4-.8-1.4.2-3.4-2.3h-1.8c0,.1-1.1-.3-1.1-.3l-3.4.3-.4-1.2-1.1-.9h-.9s-1.4.5-1.4.5l-2.4.3v-.7c-.1,0-.6,0-.6,0l-.7.4-1.1-.2-2.9,1.7-2.2-1.1h-1.9c0-.1-.3-1.1-.3-1.1l-.9-.9h-1.6c0,0-.6.9-.6.9l-1.8,1.3-1.1.3-.8,1.3v.8s-1.3,1.8-1.3,1.8l-2,.6-.8,1.4-1,.6h-.3s-.9-1.4-.9-1.4l-1.5-.6-.2-.7-.5-.3-2-.9h-2.9c0-.1-.2-.5-.2-.5l.6-1.1-.2-.4-.7-.3-3.4,1.3-1.3-.2-2.8-2.1-1.9-.7-.3-.5-2.3-.6v-.7c0,0,.3-.7.3-.7l.7-.5.5-4.8,1.3-2.5,1.9-2.3,1.7-1.5h.6c0,0,.3,1,.3,1h.7l.2-.6.5.3.4-.3,3.5-5.1,1.8-5.4,1-1.3,1.2-3.7.5-5.3-.6-4.1Z"/>
    <path id="GE-GU" d="M135.9,276.5l2.5-.7h5.4l4-.8,1.6-.7h3.6s2.4-.5,2.4-.5l.9.5,3.9,1,2.9,2.6,6.4.8h0l1.3.5h0l.4.9h0l-1.1.7-.8,1.1v1.2c0,0,1.2,1.9,1.2,1.9l1,.4h2.5c0,.1,2.3,1.3,2.3,1.3h.8c0-.1,1.3-2,1.3-2h2.5s2,.6,2,.6l2.5,6,2.2.2,1.8.8,2.6,2.1,2.2.7,1.7,1.4,5.1.2,1.1,1.8v5.4s.5,2.5.5,2.5h-2s-.7.3-.7.3l-.8.9-.6,2-.6.7-1.9.4-2-1.2-3.9.4h0l-3.1-.2-1.5-2.6-1.1-1-.8-.2h-2.2c0,.1-2.6,1.8-2.6,1.8l-1.8,1.7h-3.8c0,0-3.9.9-3.9.9l-1.1-2.1-2.4-.9h-2.9s-4,1.5-4,1.5l-.6-1.6-2.9-.9-1.6-1.7-3.4-.2-.2-2.9-.4-.5-1.6-.8-11.1-.8h0l-.8-9.9-.4-1.4.3-1.3-.5.9-1.3-1.9-2.3-4.9.6-.8.5,1.8v.6c-.1,0,.6.1.6.1l.3.5.2-.3-.2-.7.3-.2-.2-.3.4-.4-1.7-1.4,3-.8.2-1.5.8-.3-1-.7Z"/>
    <path id="GE-IM" d="M200,237.2l1,1.4-.4,3,.8,1.7v2.7c0,0,1.5,0,1.5,0l3.2-1.1,1.5-1.9,2.4.5,1.7,1.1,2.1-.4.3-.2.6-2h.6c0,0,1.4.5,1.4.5l1.1,1.3,2,.6,1.5.9,3.4,3.3.8,1.7v1.7c.1,0,.6,1.2.6,1.2l2.7.2,1.6.8,2.7,2.1,1.4-.9,2.3-.4,1.3.2,2.8-1.1,2.3-1.8,1.2-1.9,2.7-1.3,1.1-1.2,8.1-.3,5.1,1.2,4.7-1.2,4,1.9,2.8.5h0l1.6,1.5,4.8.9,2-.8,2.2-1.4h1.6s.9.4.9.4l1,2-1.6,4.1.5,2.1-2.5.6-1.8,1-2.7.2-2,2.3-1.9,1.1-.9,2.3.8,2.7v2.1s-.4,2.1-.4,2.1l-1.9,1.1-1.4,4.3-1.8,2.6-3.7,2.1-.4,1.7v6c0,0-4.3,3.7-4.3,3.7l-.5,1.4.4,2.1h0l-2.4.5-2.4,1.7-2.8.6-3.5,2.1-6,1.7-5.5,2.6-1.8-.9-10.2,1.3-1.4,1.1h-.9s-3-1.1-3-1.1h-3c0,0-1.7-.8-1.7-.8h-1.8c0,0-2.8,1.2-2.8,1.2l-1.7,1.4h-1.6c0,0-2.1-.7-2.1-.7h-1.3s-2.1-2.4-2.1-2.4h0l-.4-2.5v-5.4s-1.2-1.8-1.2-1.8l-5.1-.2-1.7-1.4-2.2-.7-2.6-2.1-1.8-.8-2.2-.2-2.5-6-2-.6h-2.5s-1.3,1.8-1.3,1.8h-.8c0,.1-2.3-1-2.3-1h-2.5c0-.1-1-.6-1-.6l-1.2-1.9v-1.2c0,0,.7-1.1.7-1.1l1.1-.7h0l2.4.2,1.6-1.2.5-2.8v-7.1s-.3-1.7-.3-1.7l2.2-.8v-2.1c0,0,3.2-5.2,3.2-5.2l1.8-3.6,3.2-2.8,2.1-2.6v-5.4c.1,0,2-1.4,2-1.4l.2-2.8,1.6-1.2,1.1-1.8h3.5c0,0,1.5-.8,1.5-.8h2Z"/>
    <path id="GE-KA" d="M499.8,378.3h-1.5s-.6.5-.6.5h-.8c0,0-1.2-1.4-1.2-1.4l-3.5-1.1-1.4,1-3.1,5-1,.3-1.7-2.3-.3-2.1-1.7-.7-1.6.9h-1.4l-5.8-7.4-2.2-2-4.3-.2-3,.3-1.7-.8h-1.2l-.4.5-1.4.4-.5,1.9-1,.6-2.1-.6h-3.6c0,0-2.2.4-2.2.4l-2.4-.2-5.2-3.4-2.2-.8h-1.8c0,0-2.5-.7-2.5-.7l-5.2-3.4-3-4.5.2-.8h.4c0,0,1.5-2.2,1.5-2.2l1.9-.3.6-.4-1.7-2h-.4s-1.6.9-1.6.9l-1.3-.3-2.8-1.4-2.7.5-1.2-.5-.8-.8-.6-2.3-4.9-1.6-2.9-2.6-1.5-.2-1.8,2-1.6.3-3.5-2.3-1.1-1.2h0l-1.6-3.5.5-1.5-.3-.6-1.7-1.4-5.4-.9-1.2-1.9.3-2.1-1.1-2.2v-.6s2.6-3.2,2.6-3.2l.4-1-1.5-5.1v-2.4c0,0-1.7-3.8-1.7-3.8l-.8-.3-3.3.2-3.6-5.9-1.4-1.3h0v-1.6c0,0-.6-1-.6-1l-2.8-1.7,3.6-3.5,1.3.3,2.1,1.8,2.5.8,1.6-.7,3.2-.5-.7-1.6-1.9-1.7-5-1-2.8-.9-.4-2.7,1.9-2.8-1.2-2.8-1.3-1.5.8-2.1-1.4-2.9,1.5-1.9.5-4.8.8-2.9,1.9-2.1.2-3.5,2.4-2.5,1.3-1.9,3.7-1.1,1.1-1.8v-.8c.1,0-.3-1.7-.3-1.7l-1.1-2.5v-2.8s3.5-3,3.5-3v-3.8s-.7-2.7-.7-2.7l2.5-4.5,1.6-2h0l1.4,2.3.7.6,1.4.4,4.2-1.3,6.1.2h1.9c0-.1,2-.9,2-.9h2.2c0,.1,2.4,2.2,2.4,2.2l7.9,4.3h3.2c0,0,.7.4.7.4l.5.7.5,1.8-.2,2-3.1,5.1-.4,1.4.3,2.8-.5,1.3,1.4,1.5v1.1c.1,0-.6.8-.6.8l-1.6.7-3,.7h-.5s-.9-.7-.9-.7h-1c0,0-2.6,7.1-2.6,7.1l.5.8.9.3,1.3,1.4,1.7.5,4.7,3,.9.8.3,1,.9.4.9,1.1,3,1.5,3.1-.2,2.5,1.1,1.7,1.4.2,2.6,1.1,1.7.5,1.4,1.2.5,1.9-1.5,1.9.4,1.3-.5.5.5.3,1.2.4.2.9-.3,1.3-1.5,1,.6.7,3,1.6,1.3h.4c0-.1.3-2.1.3-2.1l.6-.7.8.4,2.4,2.6h2c0,.1,2.6-1.3,2.6-1.3h1.1s1.3,2,1.3,2l2.3,2.1.4.8.9.5v1c0,0,1.3,0,1.3,0l.3-.3.5-1.7h.8c0,.1.9,1.1.9,1.1l1.1-1.3.7-.2.7,4,2,1.2-.3,2.8-1.2,2.8-1.7,1.8-2.8,1.7-3.2,2.9-3.7.8-3.3,1.2-2,2.6,1.1,5.4,1.1,3.2.2,4.7,1.4,1.7,2.1-2.1,1.3.2,2.2,1.1.6,1.2-.3.8.2,1.1,2.6,3.9v2.3s.3.6.3.6l.7.6,4.4,1.8.2,1.3,2.3.5,1.3,1.8,2,1.5,5.4,2,.2.5,2.2.7.4.5.3-.7h.3s.3.3.3.3l-.2,1.2.7-.2.7.7.3-.7.4.2.2.5-.4.8-.7.2-.3.6h.9c0,.1.4.5.4.5l.5-1.7h.4c0,.1.2,1.6.2,1.6l-.3.4.8.2v1.1s1.6,0,1.6,0v1.9c0,0,.7,1,.7,1v.7c0,0,1.9.2,1.9.2l.4.5v.4s-1,.8-1,.8l-1.2,1.5v2c0,0-1.4,1.3-1.4,1.3l-1.6,2.5.8,2.2-.3.3v1.2l-.5.3-.2.8v3c.1,0-.8,2-.8,2Z"/>
    <path id="GE-KK" d="M369.7,312.7l2.1-1.8.2-2.5,2.2-3.3,3,1h2.4c0,.1,1.3.7,1.3.7l1.7-.8h0l1.4,1.3,3.6,5.9,3.3-.2.8.3,1.6,3.8v2.4c0,0,1.6,5.1,1.6,5.1l-.4,1-2.6,3.2v.6s1.1,2.2,1.1,2.2l-.3,2.1,1.2,1.9,5.4.9,1.7,1.4.3.6-.5,1.5,1.6,3.5h0l-1.7-.7-1.3.8h-2.1c0,.1-.5.7-.5.7l-.6,1.8-1.7,1-1.3,1.3-2.6.7-2.1,2.2-3.1,4.4-2.5,1.1-1.7,1.2-4.4,1.6-2.3,2-.8,1.9h-1.5s-1.7-.4-1.7-.4l-1.3.2-1.5-1.2h-1.2c0-.1-1.3-.7-1.3-.7l-.9-1.8-.2-.3-.5.2-.5,1.6.4.7-.6.5v1.3c-.1,0,1.2,2.2,1.2,2.2l3,1.2.8.7v.4c-.1,0-2.3,0-2.3,0l-2.5-1.1-4.8.7-1.5.8-.4-.2v-.8c0,0-.6-.4-.6-.4l-1.9.3h-.4c0-.1-1-1.4-1-1.4h-2.3s-1.3-.3-1.3-.3l-.8,1.4-.5,2.7-.5.5-.5.2-.2-1.8-3.2,1.3-2.9-.4-2.5,1h-1c0,0-.9-.3-.9-.3l-3.6-2.8-3-1.7-.8.3-.3,1.7-.5.6-2-.8h-3.8c0-.1-.5-1.9-.5-1.9l-1.1-.9-1.2,1-1.1-.2-.9-.8h-.4s-.4.7-.4.7l.6,1.8-.8,2-.9.7-1.7.3h-5.9c0,0-3.6,1.2-3.6,1.2l-2.1,2h0l-.9-3.4v-3.1c-.1,0-2.3-3.1-2.3-3.1l-.5-1.4v-1.7c0,0,1.5-3,1.5-3v-3s-1.2-3.1-1.2-3.1l-1.7-.3-.3-.3v-5.3s-.4-1.7-.4-1.7l.2-1.2-2.5-1.6.2-2.7-3.8-1.9-3,1.1-2.2.4h-6s0-1.9,0-1.9l1.7-1.1.5-1.9v-3.5s-.3-1.7-.3-1.7l.8-2.7v-3.7s.5-1.4.5-1.4l.8-.4h1.7s5.4,1.5,5.4,1.5l3.6-3.4,1.2-1.6h3.4c0,0,1.9.8,1.9.8h6.3c0,0,5.1.9,5.1.9h1.3c0,0,2.4-1.2,2.4-1.2h1.5c0,0,1.8.9,1.8.9l2.9.4,7.4-3.3,2.9,2.9h5.9c0,.1.9,0,.9,0l.8-1.2-.4-1.5h0l3.7.5,3.1,1.1,1.6,2.9,1.5,1.5,3.3.3,1.8-2.1h0l1.8.7-.6,1.8.2.4h3.3s2.3.5,2.3.5l3.4,2.6,3,.2,3.9,1.9,3.9-.4,2.3-1.3.7-1.4.8-3.3-.5-.2-1.4.2-1.2,1.9-1.2.7h-1.9c0,0-2.9-1.8-2.9-1.8l-.3-.5v-1.9c0,0-.9-1.7-.9-1.7l-1.9-1.6.3-.7,1.4-1,1.3-1.5Z"/>
    <path id="GE-MM" d="M381.1,219.6l2.8.4,3.5-.9,1.9.2.8.4,6.6,8.3,2.5,2.1.5.8.5,2.6h0l-1.6,2-2.5,4.5.7,2.7v3.8s-3.5,3-3.5,3v2.8s1.1,2.5,1.1,2.5l.4,1.7v.8c-.1,0-1.2,1.8-1.2,1.8l-3.7,1.1-1.3,1.9-2.4,2.5-.2,3.5-1.9,2.1-.8,2.9-.5,4.8-1.5,1.9,1.4,2.9-.8,2.1,1.3,1.5,1.2,2.8-1.9,2.8.4,2.7,2.8.9,5,1,1.9,1.7.7,1.6-3.2.5-1.6.7-2.5-.8-2.1-1.8-1.3-.3-3.6,3.5,2.8,1.7.5,1v1.6h0l-1.7.8-1.3-.6h-2.4c0-.1-3-1.1-3-1.1l-2.2,3.3-.2,2.5-2.1,1.8h0l-1.9-.4-2.4-1.8-2.2-.8-1.5,3.1-1.4,1-.8.3-1.7-.6-.9.4-.2.6.3,1.9-2.2,1-.9,1.6h0l-1.8,2.1-3.3-.3-1.5-1.5-1.6-2.9-3.1-1.1-3.7-.5h0l-.6-2.3,2-1.5v-2.3l-.4-2,.5-1.8,2.8-.2,1.9.3.9-1.7v-1.9s-1.6-2.2-1.6-2.2l-2.3-2.4-1.2-2.6v-4.4c-.1,0-2.5-2.4-2.5-2.4h-2.8s-4.6-1.1-4.6-1.1h-1.1s-1.5.5-1.5.5l-1.2,2.1-1.9,1.1v-3.2c-.1,0-1.2-.2-1.2-.2l-1.3.3-.3-.2v-2.3s1.2-2.8,1.2-2.8l-.4-3.6.8-2.2-.3-1.7,1-1.9,1.7-1.1,1.3-2.8,2.2-1.1.4-1.6v-2.1s-2-3.6-2-3.6v-2.9s1.1-1.1,1.1-1.1v-1.4s-.9-1.9-.9-1.9l-2-1.1-.6-4.1-1.3-.7-.2-.4.6-1.9,1.3-1.1.2-1.7,1.7-1.6-1.1-2.2-1.6-.7-1-1.4-.5-1-.2-1.7-1.3-.5h-2.1c0-.1-1.7-1.8-1.7-1.8l-1-1.9-.5-1.8h0l1.6-.4.9-.7.6-2.3,1.4-2.5.6-.8,1.7-1.2,3.3-1.3,1.6-.3,3.6.4h1.6c0-.1,4.5-3.2,4.5-3.2l2.4-.8,7.2.8,4.4-.7,1.9.4,1.5.8,1.5,1.8,1.4,7.7.5,1.1,1.1.8h1.2s1.1-.6,1.1-.6l2.5-7.1,2.1-3.3,1.4-1.3,3.7-.6,3.2.8,4.8,4.4.8.3Z"/>
    <path id="GE-RL" d="M255.3,200.3l3.4-.6,4.6.5,1.8.8,1.3,1,4.1.7,3.2,2.4.9,2.1,2.1,2.2.8.3,1.1-.3,1.4.4,2.5,2.3,5.1,2.3,1,1.5v1.7s-2.7,5.5-2.7,5.5l-1.8,1.2-.7.9v1.5c-.1,0,2.8,4,2.8,4l3.2-.6,1.1,1.4.6.2,1.7-.9,1.4,1.1h1.3c0,0,1.2.6,1.2.6h0l.8,2.6-.9,3.2-5,2.9-1.1,2.6-3.7,1.2-3.5.4h-4.7s-4.7,1.2-4.7,1.2l-.8.6-.4,2.9h0l-2.8-.5-4-1.9-4.7,1.2-5.1-1.2-8.1.3-1.1,1.2-2.7,1.3-1.2,1.9-2.3,1.8-2.8,1.1-1.3-.2-2.3.4-1.4.9-2.7-2.1-1.6-.8-2.7-.2-.5-1.2v-1.7c-.1,0-.9-1.7-.9-1.7l-3.4-3.3-1.5-.9-2-.6-1.1-1.3-1.4-.6h-.6c0,0-.6,2.1-.6,2.1l-.3.2-2.1.4-1.7-1.1-2.4-.5-1.5,1.9-3.2,1.1h-1.6s0-2.8,0-2.8l-.8-1.7.4-3-1-1.4h0l-1.5-3.6-4.3-6.5v-3.8s2.1-1.6,2.1-1.6l-2.8-3.5-3.7-2.1-2.4-.6-1.1-.6-1.6-1.5-2.7-1.6-1.5-1.8,2.4-4.5,5.8-.7,1.1-1.5.6-2.6h2.1c0-.1,3.5,1.4,3.5,1.4h3.5c0,0,2.3.5,2.3.5l3.3,1.5h2.7s1.6.4,1.6.4l4.3-2.6,2.2,1.1,3.1,1,2.2,1.9,3.7-.7h3.9s1.8-.4,1.8-.4l.7.7.5,1.8.7.2,1.5-.5,1-1,.2-5,1.7-.6,1.2-2.6,3.7-2.9,1,.6h0l5.5,1.5,4.4,2.1.7.7,1,.5h1Z"/>
    <path id="GE-SJ" d="M260.4,298.1l2.3-.3,1.5.7,1.8.2,1.3,1,1.5.2,1.6.8.4.6v2.1c0,0,1.9,1.6,1.9,1.6l.7,2.7,4.3.2v1.3s.6,1.7.6,1.7h1.7c0,.1.9.5.9.5l2.3,1.9h2.3s1.6-.7,1.6-.7h2.9s3.2.9,3.2.9l1.6.9v2.1h0l-1.2,1.6-3.6,3.4-5.4-1.5h-1.7s-.8.4-.8.4l-.5,1.4v3.7s-.8,2.7-.8,2.7l.4,1.7v3.5s-.6,1.9-.6,1.9l-1.7,1.1v1.9c0,0,6,0,6,0l2.2-.4,3-1.1,3.8,1.9-.2,2.7,2.5,1.6-.2,1.2.4,1.7v5.3s.3.3.3.3l1.7.3,1.2,3.1v3s-1.5,3-1.5,3v1.7c0,0,.4,1.4.4,1.4l2.2,3.1v3.1c.1,0,1,3.4,1,3.4h-1.1c0-.1-1.4-.9-1.4-.9h-7.6l-5,2.8-2.4,2.5-2.9-1-2.3-1.6-2.9,1.3h-1.7s-2.9-2.2-2.9-2.2l-.7-.2h-1.8c0,0-3.8,2-3.8,2h-1.4l-1.2-3.1-1.4-1.8-2.4-.9-2.3-1.3h-1.4c0,0-6,2-6,2l-3.6.5.5-1.1v-.5c-.1,0-3.1-5.9-3.1-5.9l-1.2-.3-1.7.9-2.2-.8,3.8-2.1,2-1.9-.2-.9-1.1-.5-1.8-.2-.4-.5-1.9-.2-2.1-3.6-2.6-1.4h-1.4c0,0-1.7-.9-1.7-.9l-1.1-1.9-1.2-1-.7-2-.8-.7v-1.2l-.3-.5-1.8-.7-1-1.4-2-.8-.2-1.8-.5-.4h-1.5c0,0-.7.5-.7.5l-.4,1.5-.7,1.1h-.4s-2.8-2-2.8-2l-.2-1-1-1.3.3-.9,1.7-1.1-.2-2.2,1.5-1.3-.2-1.2-.5-.5h-2.7c0,0-.7,1-.7,1l-3.2-1.6-2.4-.4h-2.3c0,0-4.2,1.4-4.2,1.4l-1.1-.2-1.3,1.3h0l-1.3-4.2-1.6-1.7-.8-1.5-2-1.3-2.1-3.4-.4-2.4,1.5-1.9v-2.7c0,0-1.2-3.5-1.2-3.5h0l3.9-.4,2,1.2,1.9-.4.6-.7.6-2,.8-.9.7-.3h2s2.1,2.4,2.1,2.4h1.3s2.1.8,2.1.8h1.6c0,0,1.7-1.5,1.7-1.5l2.8-1.2h1.8c0,0,1.7.8,1.7.8h3c0,0,3,1.2,3,1.2h.9s1.4-1.1,1.4-1.1l10.2-1.3,1.8.9,5.5-2.6,6-1.7,3.5-2.1,2.8-.6,2.4-1.7,2.4-.5Z"/>
    <path id="GE-SK" d="M317.2,227.2l.5,1.8,1,1.9,1.7,1.6h2.1c0,.1,1.3.6,1.3.6l.2,1.7.5,1,1,1.4,1.6.7,1.1,2.2-1.7,1.6-.2,1.7-1.3,1.1-.6,1.9.2.4,1.3.7.6,4.1,2,1.1,1,1.9v1.4s-1.1,1.1-1.1,1.1v2.9s2,3.6,2,3.6v2.1s-.5,1.6-.5,1.6l-2.2,1.1-1.3,2.8-1.7,1.1-1,1.9.3,1.7-.8,2.2.4,3.6-1.1,2.8v2.3s.2.2.2.2l1.3-.3,1,.2v3.2c.1,0,2-1.1,2-1.1l1.2-2.1,1.5-.5h1.1s4.6,1.2,4.6,1.2h2.8s2.4,2.4,2.4,2.4v4.4c.1,0,1.4,2.6,1.4,2.6l2.3,2.4,1.6,2.2v1.9s-.9,1.7-.9,1.7l-1.9-.3-2.8.2-.5,1.8.4,2v2.3l-2,1.5.6,2.3h0l.4,1.5-.8,1.2-.9.2h-5.9c0-.1-2.9-3-2.9-3l-7.4,3.3-2.9-.4-1.8-.8h-1.5c0,0-2.4,1.1-2.4,1.1h-1.3c0,0-5.1-.7-5.1-.7h-6.3c0,0-1.9-.8-1.9-.8h-3.4c0,0,0-2.2,0-2.2l-1.6-.9-3.2-.9h-2.9s-1.6.7-1.6.7h-2.3s-2.3-1.9-2.3-1.9l-.9-.4h-1.7c0-.1-.6-1.9-.6-1.9v-1.3s-4.3-.2-4.3-.2l-.7-2.7-1.8-1.6v-2.1c0,0-.5-.6-.5-.6l-1.6-.8-1.5-.2-1.3-1-1.8-.2-1.5-.7-2.3.3h0l-.4-2.1.5-1.4,4.3-3.7v-6c0,0,.4-1.7.4-1.7l3.7-2.1,1.8-2.6,1.4-4.3,1.9-1.1.4-2.1v-2.1s-.8-2.7-.8-2.7l.9-2.3,1.9-1.1,2-2.3,2.7-.2,1.8-1,2.5-.6-.5-2.1,1.6-4.1-1-2-.9-.4h-1.6s-2.2,1.5-2.2,1.5l-2,.8-4.8-.9-1.6-1.5h0l.4-2.9.8-.6,4.7-1.2h4.7s3.5-.4,3.5-.4l3.7-1.2,1.1-2.6,5-2.9.9-3.2-.8-2.6h0l3.5,1.2,1.1-.3,3.4-3.4,1.4-1,1.9.2,4-1.2,1.6.5h1.1c0-.1,2.9-1.3,2.9-1.3Z"/>
    <path id="GE-SZ" d="M126.8,268.9l.6.4h.3c0-.1.4.6.4.6l-.8,1.2h-.2c0,0-.2-2.2-.2-2.2ZM188,166l-.3.8.4.7,4.6,1.4,6,3.5,2.1.7.8.7,3.5,1.4.2-1.1-.9-2,.5-.6,1.6.2,4.7-1.4h1.1s.8.1.8.1l1.4,1,2.3-.3,1.7.6h2.2c0,.1.5,2,.5,2l2.4,1.4-.4,2.3,4.5.6,4,2v.4c0,0-1.1,2-1.1,2l.2,1.7.7,1.2,1.8,1.9,4,2.7,4.1,3.7,1.5,2h0l-1-.6-3.7,2.9-1.2,2.6-1.7.6-.2,5-1,1-1.5.5-.7-.2-.5-1.8-.7-.7-1.8.4h-3.9s-3.7.7-3.7.7l-2.2-1.9-3.1-1-2.2-1.1-4.3,2.6-1.6-.3h-2.7s-3.3-1.6-3.3-1.6l-2.3-.5h-3.5c0,0-3.5-1.6-3.5-1.6h-2.1c0,.1-.6,2.7-.6,2.7l-1.1,1.5-5.8.7-2.4,4.5,1.5,1.8,2.7,1.6,1.6,1.5,1.1.6,2.4.6,3.7,2.1,2.8,3.5-2,1.6v3.8s4.2,6.5,4.2,6.5l1.5,3.6h-2c0,0-1.5.7-1.5.7h-3.5c0,0-1.1,1.8-1.1,1.8l-1.6,1.2-.2,2.8-1.9,1.4v5.4c-.1,0-2.3,2.6-2.3,2.6l-3.2,2.8-1.8,3.6-3.3,5.2v2.1c0,0-2.2.8-2.2.8l.3,1.7v7.1s-.5,2.8-.5,2.8l-1.6,1.2-2.4-.2h0l-.4-.9h0l-1.3-.5h0l-6.4-.8-2.9-2.6-3.9-1-.9-.5-2.4.5h-3.6s-1.6.7-1.6.7l-4,.8h-5.4l-2.5.7h0l-1.2-.8h-2.1c0,.1-.7-.2-.7-.2l-.7.2.6.9.2,1.9.5,1v.5c-.1,0-.7.4-.7.4l-3.1-3.9-.2-1.4-.7-.4.6-1-1.1-2,.9-1.7h.7c0-.1-2.3-1.6-2.3-1.6l.7-1.5v-1.6c.1,0-1.3-6.1-1.3-6.1l-2.4-7-2.4-1.6.3-1.3h1.2c0-.1.2-.4.2-.4l-1.5.4-.3,1.2-.5-1.5h0l5.3-2.7,3.4-4.1,3.2-.9,4.7-2.3,4.2-2.9,3.2-3.5,2.6-3.8,1.3-.4,1.1-.8.8-2.8v-2.4s-.9-1.5-.9-1.5l-1.5-1.5-.7-1.6v-5.1c0,0-.5-2.9-.5-2.9l-.4-1.4-1-1.2,1.2-1.8,1.7-.8.9-1.9-.7-.9-.3-1.8-1.1-1.2.3-4.2-1.9-.4-.8-2.5.4-.5,1.6-.7,3.3-.6,2.1-1,4.1-.5,1.8-.6,1-2.8,2.8-2.5,2-4.3.5-1.8-.8-2v-2.5s1.9-4.9,1.9-4.9h2.4c0,0,1.9-1.1,1.9-1.1h.6s1.5.4,1.5.4l1.7,1.6,1.8.2,2.2-1.8h2.1c0,0,.9-1.5.9-1.5l2.6-.3,2.4-1,1.2.2,1.7,1.2v.5c.1,0-.8.8-.8.8Z"/>
    <path id="GE-TB" d="M353.9,319.1l.9-1.6,2.2-1-.3-1.9.2-.6.9-.4,1.7.6.8-.3,1.4-1,1.5-3.1,2.2.8,2.4,1.8,1.9.4h0l-1.3,1.5-1.4,1-.3.7,1.9,1.6.8,1.7v1.9c0,0,.3.5.3.5l2.9,1.7h1.9c0,0,1.2-.7,1.2-.7l1.2-1.9,1.4-.2.5.2-.8,3.3-.7,1.4-2.3,1.3-3.9.4-3.9-1.9-3-.2-3.4-2.6-2.3-.4h-3.3s-.2-.4-.2-.4l.6-1.8-1.8-.7Z"/>
  </g>
</svg>