<?xml version="1.0" encoding="UTF-8"?>
<svg id="Layer_1" xmlns="http://www.w3.org/2000/svg" xmlns:amcharts="http://amcharts.com/ammap" version="1.1" viewBox="0 0 512 512">
  <!-- Generator: Adobe Illustrator 29.1.0, SVG Export Plug-In . SVG Version: 2.1.0 Build 142)  -->
  <g id="_x3C_defs">
    <amcharts:ammap bottomLatitude="22.153123" leftLongitude="113.834541" projection="mercator" rightLongitude="114.441034" topLatitude="22.562136"/>
  </g>
  <g>
    <path id="HK-KI" d="M263.9,267.2l-.5,1.5.9.8-2.1,1.9-1.8-1.1-2.1,1.1-4.6-1.5-1.4,1.9h-2.1l.7,1.5,3.2.8.2,2.9,3.7.9.2,2.8-.9,2.2-7.1,6.2,1.7,3.1h0l-3.8.7-5.6-4.2.9-3,1.6.5,8.4-3-.2-1.5-5.6,1.2-1.6-.7-1.4-6.5,3.9-1-.2-1.2-4.4,1-3-9.2-1.9.7-2.6-2.2.2-6-1.4-2.7-1.2.5v-2.9h.3c0,0,.2,0,.2,0h0l6.5-3.3,3.5-5.7,10-.8-.2-4.2,1.1-2.3-.3-1.1-1.4-.4v-1.1l7.4-1.9.7.8-1,1.8.3,2.4,2.5.4,1.8-1.1h0v2.3l-1.1,1.1-2.1.4-.7,1.9,2.1,2.6-1.8,1.1-.7,1.9,1.4,3.4-.4,1.1-3.5,3.8.7,7.6,2.5,1.1v1.1l2.1,1.9ZM224.8,250.4l3.5.5,3.3,2-.2,5,1.6,2.5-.2,1.5,2.3,2.2-.9,4,1.9,2.2-.5,2,1.2,2.2-1.4,2.2.5,1.7-.9.2-.7,2.7-1.6,1-.7,2.7h-1.4l-1.9-2.5-3.2,1-1.6-.7-.7-1.7-2.6.7.2,2.5-2.8.2-3-4.2,2.1-5.2-.5-1.2-1.2.5.9-1-.9-.2v-3.2l1.4-.2-4.6-1.2-.9-3.7h-1.9l-.7-2,.7-3-2.1-4,.2-1,3.7-2.2,2.1-.2.7-1.7,1.6.2.5,1.7,1.4.2,2.5-1.7,4.9-.7Z"/>
    <path id="HK-WT" d="M327.1,277.4l-7.4,1.1-2.5-2.3-1.8.8-3.5-.4h0l-2.8-1.1-5.6,3.8-3.9-2.3-1.1,1.1h-1.4v-1.9l-1.1-.4v-3l-2.1-1.1.7-3.4-2.5-1.1v-1.5l-1.4-1.9h0l3.2-1.5,2.5.8,4.1-.8-.3-2.3.7-.8h1.4l1.1,1.5,2.1-.4,1.8-3,1.1.8h0l5.6-.4h0l4.6-.8.3-1.5,3.5-1.1h3.2l-.2,6.9,1.9,12.7-.3,3.4Z"/>
    <path id="HK-TW" d="M234.6,252.4l-.5-3.3-2.3-3-3.3-2.2h-1.4l-3.5,2.5-8.1,1.7-.7,1-4.6-2.7-3.9-.5-4.2,2.2-1.6,2.7-2.6.5-2.8-.5-1.4-1.7-4.4-.2-3.9,3-2.5.5-.9,1.8-4.9-.8-3.3,2.2-.5,1.2-3-.2-3.7,2-2.8-.5h0l-1-.7v-3.1c.1,0,3.3-2.3,3.3-2.3l3.2-4.2,2.8-.4,1.4-1.9-.4-1.1-3.2.8-1.1-.8-1.1-3.4-1.8-.4v-3l1.4-.8,2.5.4,2.8-3.4,4.2,2.3h2.1l-.7-3.8,1.4-2.3,5.6,1.9,1.4-1.5h6.7l1.1-4.2h0l3.9-2.6,1.4-.4,1.1.8,2.1-3.8h3.9l4.9-4.5,6,1.9,4.2-3.4,2.1-3,3.2-.4,1.4,1.9h1.1l4.6-1.1,3.5-3.8,4.6.8v-1.1l2.1-2.3.3-2.3h0v1.4c0,0,3.6-1.3,3.6-1.3l13.9.6.4,3.4,9.3.6,2.8-1.3,4.7.5h0l-.3,3.2,1.4,1.5.3,2.6v2.6l-1.4.8.7,4.9-9.5,10.2-3.9,1.1-1.8,1.9h0l-1.8,1.1-2.5-.4-.3-2.4,1-1.8-.7-.8-7.4,1.9v1.1l1.4.4.3,1.1-1.1,2.3.2,4.2-10,.8-3.5,5.7-6.5,3.3ZM171.3,295.3l-34.8-.4h0l3.5-5.9,2.1.5,6-3.7,2.3-.2-.2-2.5,2.8-1.7h2.6l1.6-3,.7,1.5,2.8-1-1.2-3.5,2.1,1v1.7l-1.9,2.5v1.7l-1.6,1.2v1.2l3.3-1.2,4.4-6,7.4-4.5,1.4-2.7,1.4-.5.2,1.2,1.4.2-.5-2.2.9-.5.2-3,3.7.8,4.9,4,.2,2,2.3,3.7-2.8,1.2.5,2.7,1.4,1.7-1.4,1.2-1.4,4,1.9,2.2-1.9-.7-2.3,3-3.5-.2-.2,1.7-1.2.5-1.6-.7-3.9-7.2-3.5-.2,2.1,6.7-.3,3.2ZM191.4,257.1l.5,1.5,3.5-.8-.2,1h-1.2v2.2l-1.4,1.7.7,1.2,1.4-.2,1.4,3.2-5.8,2.7-1.9-4-2.3-2.5,2.5-.8.2-2.5-1.4-.5.7-1.7,3.2-.8Z"/>
    <path id="HK-SS" d="M263.9,267.2h2.1l1.1-1.9,1.4.8,1.7-.8,3.2,1.5,3.5-3,2.1,1.9h6.3l.3,1.5-1.1,2.6,2.1,1.5,1.4,3.4v4.2l-1.8,4.5h0l-1.1-.8h-9.5l-.7.8,1,1.1-4.2,2.7-2.4-3.1-1.4,1.5v1.5h0l-5-3.7h-1.6l-1.2,2,3.3,3-2.8,2.7.5,1.5-.7,1.2h-.9l-1.9-2.2-6,.2h0l-1.7-3.1,7.1-6.2.9-2.2-.2-2.8-3.7-.9-.2-2.9-3.2-.8-.7-1.5h2.1l1.4-1.9,4.6,1.5,2.1-1.1,1.8,1.1,2.1-1.9-.9-.8.5-1.5Z"/>
    <path id="HK-KC" d="M312,276.7v7.9l-1.8,1.9,5.6,5.7.7,1.5-.9.2h0l-3.7-2.1-3.3-3.2-.5,1.7,5.8,5.7,3.3,3,2.8.2.7,2.7,1.4,1.2-1.1,2-16.5-15.4-3.5,6,1.9,4-.7,6-3.2,2.2-2.8.2-1,1.5h0v-4.3c-.1,0-1.9-1.1-1.9-1.1v-1.5l-5.6-7.6-2.1-5.7-.7-2.6,1.4-3.4h0l1.8-4.5v-4.2l-1.4-3.4-2.1-1.5,1.1-2.6-.3-1.5h0l1.1-1.9h4.6l1.4,1.9v1.5l2.5,1.1-.7,3.4,2.1,1.1v3l1.1.4v1.9h1.4l1.1-1.1,3.9,2.3,5.6-3.8,2.8,1.1Z"/>
    <path id="HK-TM" d="M194.7,226.4l-1.1,4.2h-6.7l-1.4,1.5-5.6-1.9-1.4,2.3.7,3.8h-2.1l-4.2-2.3-2.8,3.4-2.5-.4-1.4.8v3l1.8.4,1.1,3.4,1.1.8,3.2-.8.4,1.1-1.4,1.9-2.8.4-3.2,4.2-3.2,2.3v3.1c-.1,0,.8.7.8.7h0l-5.8-.2-5.1-6.5-2.8,1-.9-3.2-5.1,2.7-3.7.5-3-2.5-2.6-.2-.7-2.7h-.9l-.5-1.7h-.7v2l-2.1,3-4.2,1.2-2.1-2.2.9,3-.5,1.2h-2.3l-.7-3.2-1.9-2-2.1-.2-1.4-1.7h-1.6l.5,4-1.2.8-3.7.8-2.5-2.7-.5.8,1.4,4.7,1.2-.2.9,1.5-1.6,1.5-1.4-2.2-3-1,.9,4.5-.9.5-.9-1,.7-1.2h-.9l-.2,1.2-2.1-.2-3.3-3.5-1.6,1-.9-1.5-2.6-1-.7-3.7h-.9l-.9-2-.9.2-2.1,5.7h-.9l-.5-1.7,1.2-3.2-.8-1.5-2-.2-.9,1.5-3.3,1-5.1-2.7.5-1.5-1.2-2.7-1.6,2-2.3-4,.3-1.8,3.7-2.2,1.2-5.7-.7-2.7-4.4-2.2-.9-3,1.2-1.7-.2-3-1.6-1.5-1.9.2-1.4-1.5-5.6-.8-.7-1.2,4.6-6.5h.9l.5-1.2,3.7-2.7.9-3.5h2.3l4.4-2,5.3.7,4.2-2.5,3.8-.8h0l-.2,4.8.7,1.5,5.3-6.4,2.8-6,17.2.4,1.1,1.9h11.6l1.1.8,8.1-2.3-1.4,5.7,2.5,3.4h7.7l.3,5.7,3.9,1.5.4,7.9h32.3l.7-3h6.3l.7.8-.4,2.3-2.1.4-.3,1.1v5.7h6.3l1.1.8-.3,5.7ZM40.7,234.2l1.2,1.2h2.6l.9,1-1.4,3.7.7,2-1.6,3.2-2.1-.8.7-3.5.9-.2-.2-2.5-3.9-2v-2.2h2.3ZM112.6,277.1l.2,1.5,2.3.7-1.4,2.7-2.3-.5.2-3.7.9-.8ZM47.7,265.1l1.2,1.2,1.4-1,.5,1.5-1.2,3.2h-.7l-1.2-4-1.6-.5.5-1,1.2.5ZM126.3,270.8l.9,2-2.6,4.5,1.6-6.5ZM46.1,262.4v-2.2l1.4-.5.7,1.5-2.1,1.2ZM89.5,194h0l.2-.2-.2.2Z"/>
    <path id="HK-KU" d="M327.1,277.4l4.9-.4,4.6,10.6h1.4l2.8,1.9h1.4l.7-1.1,1.1.4-.7,3-1.8,1.9,2.5.4,1.4,1.5-2.8,4.5-1.8,1.1.7,2.3,2.8,1.9v2.3l1.1,1.1.4,3.4-2.8-.8-.7,1.1,1.1,3.8-1.4,1.9,1.4,2.3,1.1-.3h0l-1.6.8-3.5-1-.5-3.2-4.2-3.7-2.1-3.7-4.4-3.5-2.1-3.2-3.5-3-.5-2-2.8-1.5h-3l-.7-2.1h0l.9-.2-.7-1.5-5.6-5.7,1.8-1.9v-7.9h0l3.5.4,1.8-.8,2.5,2.3,7.4-1.1Z"/>
    <path id="HK-YT" d="M295.3,309.7l-1.4,1.5-1.4-1.5-1.6-.2-4.6,5.2-2.5-.7-1.4.5-1.9-1.5h-1.6l2.1-1-.2-1.7h-1.6v-2l1.2-.2-.5-4-8.6,4.5-.9-14,2.5-1-2.1-3.7-2.6-2.5h0v-1.5s1.4-1.5,1.4-1.5l2.4,3.1,4.2-2.7-1-1.1.7-.8h9.5l1.1.8h0l-1.4,3.4.7,2.6,2.1,5.7,5.6,7.6v1.5l1.8,1.1v4.3Z"/>
    <path id="HK-IS" d="M150.2,367.8l3.7,1,.7,1.2,1.2-1,1.6,1.2-1.8,1.2.7,1.5-.7,1.2-4.9,2-1.6,2,.5,1.5-3.7,1-1.4,3.5h-2.6l-.7-2-2.5-1-2.1,1.2-.5,1.2-3.3,1-.5,2.2h-2.6l-.2-3-2.1.2-2.8-2,3-5.5-3.5-4-1.6-.2-.5-1.2,3.5-7-2.6-2-4.4-1-3,1.5-.5,1.2-3.5.7-2.1,1.5-.5,2.2-1.6-.2-1.9,1.5-.9-.7.2-1.5-4.4-.5-8.1,2.7-2.3,2.5-2.3-.2-2.5,3-3.9,1.5-1.4-.5-.9-1.7-2.1.5-1.4,3.5-2.3.7v2l4.4,1.2,1.9-2,3.7,1.7v5.5l1.4,1.5-4.9.2-4.6,2-.9-1.7h-1.2l-.7-2-2.1-.2-.7.2-.7,4-1.6.7-3.3-1.7-2.3-2.5-1.2.5-.5-2-1.4-1.2-2.3-.5-1.4-3.5,1.4-2-.2-1.2-3.5.5-.5-1.5-1.4-.2v2.2l-1.9,1.2-1.2-.5v-1.2l-2.3.2-3.2,2.7-.7,2.2-1.9,1,.9,3.2-1.4.5-.7-1h-1.6l-2.3,1.5-4.6,7.2h-2.3l.2-2-1.6-.2-2.1,1.2-2.1-.2-.2.7-2.8.5-.9,2,1.4.8v1h-.9l-.5,1.2-3.9-1-.9,1,.2,1.2-.9.2-1.4-2.2,2.1-1.2v-3.2h1.9l.2-2-.7-.7-1.9.7-3.9-3.2-.2-2.7.7-1.7h.9l.2-3-3.3-2.7.5-6.2-.9-.2v-1.5l1.4-1.5.9-4.7,3.3-.7,4.2,4.2,1.9-3.2-.7-5-1.2-.7.9-2.7,3-1.5h3.5l2.8-2.2-.2-3.5-2.1-.5.5-1.2-2.6-.5-1.6,1.7h-2.3l-.9-3.5,2.3-1.5.5-1.7,3.5-1.2,2.1.2.9,2h1.4l3.7-5.2.5-2.7,1.6-1,3.5.2,1.6-1.2,2.3-.2,1.4-2,1.9.7,1.2,3,1.6-.7v-2.7l-1.6-2,.2-3,5.1-2.2,1.6-1.7v-5.2l.5-1,1.4-.2.2-2,.5.7,2.1-.5.2,1.7h1.9l1.4-3,2.6.2,1.9,2h1.6v-1l3.9-1.7,3,2,2.3-.2,1.6,1.2.7,4,2.3,2-.2,1,1.4,1.7,2.1-.7,1.6.5-.7-1.7,4.9-9.5h1.6l.7-1.2h1.4l.7,1.2h2.3l.7-1.2,6.3-.7,3.5-2.2,9.5-2.2,5.8-3.2,4.2-4.7,3.9-2,4.4-.7,1.9-1.9h0l34.8.4h0l.7,3-2.1,1.2h-1.4l-1.2-2.2-2.5-1-3.3,2.8-5.1-.5-.9,2.5-1.4.2.7,1.7-.7,2h2.8l.7,2-3.9,1.2-.5,2,1.2.7,1.6-.7,1.2,1.2.7-1.7.9-.2.9,1,1.6-1.7.9,3.2,1.9,2.5v1.2h-.7l-.2-.7-3,.5-1.9-2-1.4.7,1.6,1.7-1.9,1.5.7,3.2,2.8,1.7-.9,2.7,1.2,2.2-1.6.5.2,1.5-.7.5,1.6,1.5-.9,2.5.7,1.7-.9,1.2.2,1.5-1.9-.5-2.1,1.5-5.3-1.2-.7-2.2-2.5-.2-.7-1.5-2.1-1.2h-1.9l-1.9,2.5.5,2,2.8,1.5-.2,2,2.6.7,1.6,2,2.1,4.7,1.6,1v1.7l-1.9.2-3.7,2.5-3.5.5-1.2,2.7-4.9,2.2v1.5l2.1,1.2,2.1-1,.5,1.7,2.5,1.7,1.9,3.2,2.3.2,1.4-2,1.6,1.8ZM245.2,417.3l-.2-1.7-1.4-1.2-1.4,1.7-2.3-.2-3.2-2-.7-2,1.2-3.7,1.6.2,1.2-2,1.4-.2v-4.2l1.2-2-.2-5.5h.9l.2-1-2.5-1.7.2-1,1.2-.2-.2-2,.7-.5-1.2-2,.5-1.2-.9-3.7-3-1.5h-2.1l-.7,3.5h-8.6v-2l1.4-2.5,2.5-2.7,2.8-1.2-.2-.7h-1.4l-.2-1,1.3-3-3-1.2-.7-1.5,3-1.2.7-1.2,5.3-1.5.9-2.5.9,1.5,2.3.2,1.2,1.5-.2,3.2-1.9.5-.2,1.5.7,3,3.9,2.2-.4,2.7,2.8,3,2.6.5.2-1.2,2.3-.7,2.1,2-.2,2.5-1.6-.2.7,2.2-3.3.5-3.9,4.2-.5,2.5,2.3,2.7.9-.5v-2.2l4.2-2.7,4.4-.2,3.9,1.5,1.2-3.2,1.6.2,1.4-1.2h1.2l.9,2.2,5.1-.2,1.2,1.7-2.5,4-2.6.2-1.6-2.2-1.2-.2-1.9,1,.2,1.7-2.5.7-.2,2.7-1.4.2-.5,1-2.8-.5-.2,2.5,2.1-.2.7,1,.2,2.5,4.2,7.2.2,2.7-1.2-1.7-2.6-.5-1.9-2.5-3.3-2-1.2-2.5-1.9,1.5v1l2.6,5.2-.2,4.5-2.3-1-2.1-4-3.2,3.2v1.2l-1.9.7-.9-.5ZM69.5,291.5l15.5-5.5,4.2.7-2.1.7v1.2l4.9-1,1.4.5.5-1.2,1.2.5.9-.7v3l-1.6,2.2.2,1-4.2,6.5-.5,3.2.9,1.7-1.9,2-.9-.5.2,3.5,1.4,3.5-4.4,4-1.4-1.2-4.2-.2-8.8-3.2-1.6.5-4.2-.7-8.3,2h-3.5l-.5-1-2.8.7,6.3-7.5-2.1-2.7v-2l-2.3-1-2.8.5-.2-1,2.1-.5.7-2,17.8-6ZM351.2,432.2l2.1-3.2-2.8.7-.9-2,1.6-2,.7-2.7,3.7-4,5.6-1.2.2-2.2,1.9-.7,1.4,2,3.3,1.7,1.2,3-.9,3.7,2.1,3.2v2.7h-7l-.2-1.5-.9-.2-2.8,3.2v2l-4.2,3-.9-.7,2.1-3.5-5.1-1.2ZM348.9,433.7l2.1-.2.2-1.2-1.2-.2-1.2,1.7ZM156.2,396.1h2.3l1.9-3.7h2.1l1.9-1.5-1.4-3-2.8-.5-.7-1.7v-.7l2.3-.2.2-1.7.9-.2-.2-1.2-1.2-.5.7-1.7,1.9-1.7,3.7.5,2.3-2,1.2,2.5-3,2.7h2.8l.2,1.2-4.4,1.2-1.4,1.2.2,2.2,1.4,2.5,2.1,1.5,1.4.2.9-1.2h1.4l1.9,2.2-1.2,1v1.5l-2.3,1-.2,1.7-2.1-2.7-2.5.7-2.1,1.7v1l-2.5.7v1.5l-1.2.2h-1.6l-.2-1.2-2.3.2-.9-2.5.7-1.2ZM165.9,344.6v.7l10-.2,1.9.7,1.2,1.7-1.2,5,2.5,3.7-.5,2.7-1.2,1.2-1.4.5-2.6-1.7-1.9-3.7v-2.2l-3-.7-1.4-3-4.4-.2-1.2-2.5h1.4l-.2-1.7,1.9-.2ZM67.6,423.5l.5,1.7,2.1-.2,1.2.7-.2,1.7-2.8.5.2,2.5,1.4.2,1.2,3h-3.3l-.5,1.5-1.6-.7-3,.5-.5,1.2-2.5.7-3.2-2.7.7-2.7,2.8-1.5h1.6l.5,1.2h.9l.5-1.5.7.5,1.4-1.2v-1.2l-.9-.5.4-2.7,2.5-1ZM130.9,406.8l-.5-1.2h-1.6l-2.8-2.5.7-4.2,3.5-3.5,2.1.2,2.1,2.2.5,2.2-.9.5v1.5l2.5-.5-.2,4.7-2.8,1-.5,1.2-2.1-1.7ZM354.2,406.6l1.4,1.5-.5,5-4.2,3-1.4-1.2-1.6.2-1.6-1v2.2l-.9.2-1.2-2.5v-6l10-1.5ZM177.8,314.7l.7,2.2-3.3,2-.5,1.5.9.7.7-1.5h3.3l.9,2.7-2.1,3.2-4.2,1.2-2.3-3.2.2-1.5-1.6-1.7-.5-3.2,7.7-2.5ZM63.5,408.3l2.6,1.5.9,2.2,1.9.5,1.4-.7,1.4,2,2.3-.5,1.4,2-.5,2h-.9l-1.9-2.2-.7.2.7,1.5-.5,1.2-1.2-.2-.5-2-.5,1h-1.2l-.5-3.2-2.8.5v1.5l-1.2.2v1l-2.1-.5.9-3-.7-2.5.5-2.2.9-.3ZM186.6,339.4l1.4,1.5-.7,2.7-3.9,3-2.6-.7-.9-1.2.7-3,1.2-.2.7-1.5,4.2-.5ZM383.4,406.4l.7,1.2-1.6,3.2v3.5l-.9.7-3-.5-.9-1-.5-3.7,1.2-.7,1.2.5.7-2.7,2.3.5.9-1ZM207,319.7v4.2h-3.5l-.9-2,1.6-1.5,2.8-.7ZM394.8,414.1l-1.2.7-.7-1.5,2.3-2.2.5-3.2,1.4-.5-.2,3.2-2.1,3.5ZM4.6,381.5l1.9.7-1.6,2.5-1.9-2,.2-1.2h1.4ZM254.5,374.2v2l-1.4.7-1.6-.5.9-2,1.2-.7.9.5ZM77.6,436l.2,2.2-1.9,1.2-.5-1.7,2.1-1.7ZM190.3,316.7l.9,2.2-1.9.5-1.4-1.7,2.3-1ZM59,421.3v2l-1.6-.5-.2,1h-1.2l-.7-.7,3.7-1.7ZM77.4,415.1l2.1,2-.2,1-2.1-1-.5-1.7.7-.2ZM62.1,419.3l.5,2.5-.7.3-1.2-1.7,1.4-1Z"/>
    <path id="HK-NO" d="M322.9,106l3-5.2,3.5,1.2,2.8-2,.2-2,3,1.5,2.3-1,1.6-2.2.7-4.7,1.9-2.2,1.2-5.2,1.6.5.9-1,1.4.2.5,3,1.2,1.2,1.4-1-.2-1.5h2.1l1.6,1.2.2-3,2.3.2.7,1h1.6l-2.8,2.7.2.7,3-1.7,1.2.2-.7,1.2-2.3.5-2.1,5,1.4.5,2.1-2.2,1.9.2.9,1.2-1.6,4.2,1.9-2.5,2.3.2.7,1.5-.5,1.7-2.1.2-1.2,1.5-.7,2,.7,3h2.1l.7-1.2,5.3,1,1.4-1.7-.9-1,.5-1,1.6,1.5,4.4-.7-2.3,4.2.7,1.5,1.6-.5,1.4-1.7,2.6-.5-.5,3-2.5,1.5-.5,2.2-1.6.2-.9,4.2-3.2-3-1.9-.2v1h.7l-.7,1.7,1.9.2-.9,3.2,1.2,1.2.5-1.2,1.6-.5,5.8-.5-.7,2.2h3.5l1.2,2v-1.7l2.3-.5,1.9,3.2,1.9.2,1.2-1.2-.9-1.2,1.2-1.2-3-3,5.8-.7,2.3,2.5.7-2.2,1.9-1,.5-2.2,1.6-1.5-.9-7.2,5.6,2.2,1.6,3-.5,1.2h2.1l1.6,1.7-.2,1h-.9l-2.8,3.7-3.7,1-1.4,2.2-2.6-1.2-1.9.5-1.4,2.5h-1.4l-3.5,2.2.7,1.2h1.6l3.5,2.7,3.9-3,14.6-3.2,2.1-2.5,3.9-1.7h0l.5,1.4-1.8,1.1-1.1,2.3-3.2,2.3-3.5.4-6,4.2-1.4,1.9-9.8,6.1-4.6-1.9h-2.1l-1.1-1.5-7.4-4.2-5.3-.4-2.5,1.5-3.5-.8-1.4,1.1h-2.1l-.3,1.9-2.1.4-10.2-.4-5.3-6.4-2.5-1.5-.3-1.9-2.5,1.1.3,2.3-.7.8-1.1-.4-4.2,2.6-2.8,4.5-2.4.7-1.4,4.2-3.5-2.6-5.6-1.1-4.6.8-5.6-2.3-4.2-.4-1.4-1.5-2.1.4-4.2-1.5-3.9.4-2.8,1.1-3.5,3-2.1,6.1h-1.1l-2.1-2.3-3.2.8-.4-3.8-9.5,1.1-1.1,2.3,2.1,3.4v2.3l-2.5-.8-3.5,4.9-4.2,1.5-6,4.5h-3.2l-2.8,1.9h0l-4.9.8-2.1-2.6-4.2-2.6-5.3,1.9-3.9-.4-2.5,1.9-2.8.8-6.3.4v-12.5l2.5-6,.7-4.5-2.5-4.9,1.4-1.9-1.8-7.9.7-.8,1.1.4,1.1-1.5-1.4-1.5-.7-2.6,1.1-4.9-2.8-1.5-1.8,2.3-1.4.4h0l2.1-3.8-.3-1.5-4.9-4.9,6-2.3,2.8-3.4h2.5l3.1,2.6,4.3-.7-.3,2.6,1.1.4,4.9-4.2,1.4,5.3,2.1.8,2.8-2.6v-1.9h3.5l.7-1.5h1.1l-.3-1.5,3.2-2.3,1.8.8,1.8-1.9,8.4-1.9,3.5,2.3,3.2-.8.7-1.1-.7-.8,3.5-2.6-.3-1.5-1.8-.8,1.8-2.3v-1.9l1.8-.4,1.1.8,1.1-.8.7-3.8,2.4-2.3,2.5,1.9,2.5-1.5,4.2,1.1,3.9-.8,1.4,1.5.4,2.6,1.4.8,4.6-.4,4.6,1.1,8.4-2.6,2.5,1.5,1.1-.8,9.5,1.5,4.6,3.4,1.8.4,2.8,3-1.4,2.3v1.9l-1.6.8-.9-1.2-4.4.5-2.1,2.2-.7,3.7-1.4,1.7-.7.8-2.8-.5-.5,1,.7,1.5-.9,2.5.5,3.5h.9l.2-1,3,.2,1.6-1.7.5,2,1.2.5ZM385.7,78.8l.7.5-.7,2,.7,1h10.9l8.1,1-1.4.2-3,2.7-2.8-1.5-.2,1.5-2.1-.2-1.4,2.5-4.6-4-1.2.8-.7-.5-1.2,1.2-.5,2.7,2.5.8,1.4,3.5,3.5,2.7,2.1-.5.5,1.5-1.6,3-3.7-.5-.2-3-1.9.2-1.9,1.7-7.9.2v-1.2l1.9-1.5v-2h2.1l.9-1.2h.7l-.5,1.2,2.1-.7-2.8-4-3.7-2.7v-1l2.8-.8-1.6-2,.2-2.2,1.6-1.5h2.8ZM408.2,94.8l1.2,3.2-1.2,6,1.4,2.5-2.6,1.2-.5-1.5h-2.3l-1.9-2-4.2-1.7-.2-4,1.4-1.7,2.5,1.5,1.6,3.7,1.6.2,1.4-2.5-.5-4.2,2.1-.7ZM398.7,90.5l1.6,1.7-3.2,2.7-1.4-.2-.2-2.7,1.9-1.5s1.4,0,1.4,0ZM329.8,92.3l.7,1-.7,2-2.8.8-1.2-2.2,3.9-1.5ZM380.2,109.2l1.9.8-.2,1.2-2.8-.5-.2-1.2,1.4-.3ZM417,90l.9,1.5-1.4,1.5-.9-2.5,1.4-.5Z"/>
    <path id="HK-YL" d="M247.4,158l-1.1,3.4-11.6,15.4-.7,2.4,3.5,7.5.6,4.9,6.4,8,.4,3.4h0l-.3,2.3-2.1,2.3v1.1l-4.6-.8-3.5,3.8-4.6,1.1h-1.1l-1.4-1.9-3.2.4-2.1,3-4.2,3.4-6-1.9-4.9,4.5h-3.9l-2.1,3.8-1.1-.8-1.4.4-3.9,2.6h0l.3-5.7-1.1-.8h-6.3v-5.7l.3-1.1,2.1-.4.3-2.3-.7-.8h-6.3l-.7,3h-32.3l-.4-7.9-3.9-1.5-.3-5.7h-7.7l-2.5-3.4,1.4-5.7-8.1,2.3-1.1-.8h-11.6l-1.1-1.9-17.2-.4-2.8,6-5.3,6.4-.7-1.5.2-4.8h0l.2-.2h0l6-4,.9-5.5,2.3-3.5,3-2,.2-3.5,1.4-1.5h2.5l5.8-4,4.4-.5,5.3-3,1.6-2.2.7-4,1.9-3.7,3.3-2.5.9-1.7,1.4-.2.7-2h1.2l1.4-1.5,2.8-8,3.2-3.2,3.5.2,1.4,1.5,5.3,1.2-.7,7.5h-1.9l-.2,4.5-.9,1.5,1.6-.8.2,1.8,4.2,4.2,2.6-1.7,1.9.5.9-1.2-2.6-2.2,2.1-2.5,4.2-1,2.8,2.5-.5,7.2.9-.5.2-3.5,2.3-.5,3.9,1.5,6,4-.5-2.2-8.8-4.5-2.1-3-1.9-.3-4.2-5-.9.2v1.2l-2.3.2-2.6,1.7-1.4,2.5-.2,4.7-.5-4.5-3.7-3,1.2-.2.7,1,1.9-.5,1.2-1.2v-1.5l8.1-4-.5-4,1.6-1.5.5-3.5,9.6-9.8,1.4.4,1.4-1.5,5.3,1.5,6-.4,2.5-2.6,1.1-5.7,3.5-3,8.1-1.9,3.9,2.6,5.3-3.4h0l1.4-.4,1.8-2.3,2.8,1.5-1.1,4.9.7,2.6,1.4,1.5-1.1,1.5-1.1-.4-.7.8,1.8,7.9-1.4,1.9,2.5,4.9-.7,4.5-2.5,6.1v12.5l6.3-.4,2.8-.8,2.5-1.9,3.9.4,5.3-1.9,4.2,2.6,2.1,2.6,4.9-.8Z"/>
    <path id="HK-TP" d="M316.9,156.4l-1.2,2-.2,6.5,2.5,1.2,5.6.5,2.8,2.5,1.9-.2v1.2l-3.5.5-1.2-.5-.2-2-.9-.2-1.9,1.7,1.2,1.4,4.2,1.5.5,1-.9,1-3.2-.8.5,1.5-1.2.8-1.2-1.7-3.9-.2-.5-1,1.2-.5.2-1.5-4.4.5-.7-1.5.5-1.5,2.1-.7-2.3-.5-3.5-2.5-2.1,2.2.2,2.5-1.4,1.5-3.3,1.5-9-1.7-1.2.8-.2,2-1.9.5-.7,1.2,1.4,2.9,1.9,1.3h1.9v1.2l1.9,1.2,2.1.5,1.9-1,3.5.2,1.4.5,1.4,2.5,3.3.8.7,2.5-.9,1.5,1.4.5.7,2.2,3.1,1.2h0l-.8,1.2-2.8-.3-.7,2.9-1.4-2.4h-.8l-1.9,6.9h-10.7s-.8,2.6-.8,2.6l-8.1-.2-1.9,2.2-5.3.5h0l-4.7-.5-2.8,1.3-9.3-.6-.4-3.4-13.9-.6-3.6,1.3v-1.4h0l-.4-3.4-6.4-8-.6-4.9-3.5-7.5.7-2.3,11.6-15.4,1.1-3.4h0l2.8-1.9h3.2l6-4.5,4.2-1.5,3.5-4.9,2.5.8v-2.3l-2.1-3.4,1.1-2.3,9.5-1.1.4,3.8,3.2-.8,2.1,2.3h1.1l2.1-6.1,3.5-3,2.8-1.1,3.9-.4,4.2,1.5,2.1-.4,1.4,1.5,4.2.4,5.6,2.3,4.6-.8,5.6,1.1,3.5,2.6,1.4-4.2,2.5-.8,2.8-4.5,4.2-2.6,1.1.4.7-.8-.3-2.3,2.5-1.1.3,1.9,2.5,1.5,5.3,6.4,10.2.4,2.1-.4.3-1.9h2.1l1.4-1.1,3.5.8,2.5-1.5,5.3.4,7.4,4.2,1.1,1.5h2.1l4.6,1.9,9.8-6.1,1.4-1.9,6-4.2,3.5-.4,3.2-2.3,1.1-2.3,1.8-1.1-.5-1.4h0l2.1,1,.2,2-8.1,6.7-1.4.2-8.6,10-1.6,1-3.5-.5-.9,1.7,1.2,1.5-1.4,1.2-3.3,1-3.3,2.5-3.7.5-1.6,2.5-7,2.2-4.2,2.7-3.2-.8-2.3.5-1.2,1.5,1.9.2-.7,1.5-9,5-3.3,5-3.5,3-.7-1-2.3.2-3.2,3.2-.5-4,.7-.8-10.9-11.2-1.6-.5v-1.7l-1.2-1.5-4.2,1-1.9,2.2-4.2.8-1.4-.2-1.2-4h-1.6l-.7,1.7-1.9,1.2ZM346.1,190.1l.7-1,3.7-.7,2.3-1.7,1.6,2.7,9.5-1.5,1.1-1,2.1,3.5.5,6.2-2.8,4.5h1.6l.2,2,2.3,1.5,1.8,3.7-.5-3.7.9-3.5,1.2-1.2,4.2-1.5,4.4-4.2-.2-1.7-2.1.2.2-2-1.4-1.2-.2-2.7-1.9-3.5v-1.2l1.9-2.2-3.3-.5-1.2.8-.7-2.5,1.6-.5,2.5-4.5,2.1-.8,1.4-2,2.3,1,.7,2.2h1.2l.2-7,.7-.5,2.6,2.5,3.5-.5.2,1.7h1.6l1.2-2.2-.9-5.2,2.1-.8.9-4,2.5-3,3.7-1.2,1.9-3.2,3.9-.5.9-3h.9l2.1,3.2-1.2,2.2.7,1.7,2.3.5,1.6-1.5h1.9l.2,2.7-1.4-.2-.5.7-.5,4-1.2,1.7.5,1.5h1.4l1.6-2.2,2.8,1,1.4-.5-.5-2.2,1.6-1,1.2-3.2-1.6-3.5,1.8-.2.2-2.2,1.4-1.5,1.2.8,1.4,4.5-.2,2.7,3,7-2.8,2-1.9-.2-3-2.2-.7.5.9,2.2-1.6,5,1.4,2.5-.2,3.2,2.6,1,.2,2-2.3,4.2-3.9-.2v1.2l2.8,4-.5,3-1.9,2.7,1.2.2,1.6-1.2.2-2.2h2.8v-3.5l1.9-2.7,1.9-.5,1.1,1-.2,2.5,2.8,6.5-.2,1.7-2.3.7.2,1.5,1.2,1.2h5.1l-1.6-2.5,1.4-.2-1.2-2.2v-4.5l.2-4,1.4-2-1.4-1,.2,2h-1.2l-.7-3,1.4-4.7-1.2-2.5,1.4-1,2.6.2,1.4-2,2.6.8-1.4-3.7.5-4.5,2.8,1.7,3,.5v1.5l2.5,2.2-.4,3.7-2.6,3,1.2,4.6h0l-.9-.9-2.1.8-.3,1.1.7,3-1.1,2.3,2.5,2.6-.7,3.8,2.1,2.3-2.5,6.8v2.3l-2.5,1.5-1.1,2.3-4.6,4.2-2.5.4-1.1-.8v-2.3l-2.1-1.1h-2.8l-6-7.2-1.1-.4-2.5,3.4-3.5.4-5.6-3.4-1.4-1.9,2.1-1.9-1.1-.8-2.1-.4-1.8-2.3-7.7-1.5-2.5,1.9.7,3.8-1.8,2.6,1.1,1.5-2.1,1.5-3.9-.8-2.1.8-2.8-1.1-4.2,1.1-1.4,6-3.2,3-1.1,2.3-3.2-.8-4.6,4.5h-12.3l-4.6,3.8h0v-3.8l1.4-3-.7-3-1.4-1.5v-4.5l-3.2-1.9,1.4-11.3-1.8-.8,1.1-3.4-2.2.3ZM441.4,140.4l3.5,1.2.9,2-.9,3.2,3.3,3.7-1.2,2.7-2.1.8v3.7l-1.2.2-.9,1.7-2.8-.8.5-5.2h-.9l.2-3-.9-1-1.6.2-1.4-4,.2-1.2,2.8-1.5.7-1.7,1.9-1.2ZM500,80.8l.5,6.7,4.4,3.7,1.4-.8,2.8.8-1.6,3-4.2.5-3.9-3-1.6.2-1.2-1.5-.9-2.2.5-1.5-1.2-2,1.4-2.7,3.7-1.2ZM334.9,165.4l1.2.5.7,1.7-2.3,3.7-5.1,3-1.6-.5-.5-1.2,2.8-1.7.7-3,2.8-2.5h1.4ZM440.9,123.7l2.8,1,1.9-.8.2,1.2-2.3,1.2-1.4,5.5h-2.6v-1.5l-2.1-2.5,1.6-.5-.7-2.5,2.6-1.2ZM326.1,161.1l1.6,3h-2.8l-.5-1.7,1.6-1.2ZM417.5,145.4l.7.5v2.5l-1.2,1-.2-3.2.7-.8ZM326.8,181.6l.5,1.5-1.4,1v-2.5l1.4-.5-.5.5ZM451.1,142.7l.9,1.5-2.1-.5-.2-1h1.4Z"/>
    <path id="HK-ST" d="M325.7,254.4h-3.2l-3.5,1.1-.3,1.5-4.6.8h0l-5.6.4h0l-1.1-.8-1.8,3-2.1.4-1.1-1.5h-1.4l-.7.8.3,2.3-4.1.8-2.5-.8-3.2,1.5h-4.6l-1.1,1.9h-6.3l-2.1-1.9-3.5,3-3.2-1.5-1.7.8-1.4-.8-1.1,1.9h-2.1l-2.1-1.9v-1.1l-2.5-1.1-.7-7.6,3.5-3.8.4-1.1-1.4-3.4.7-1.9,1.8-1.1-2.1-2.6.7-1.9,2.1-.4,1.1-1.1v-2.3h0l1.8-1.9,3.9-1.1,9.5-10.2-.7-4.9,1.4-.8v-2.6l-.3-2.6-1.4-1.5.4-3.2h0l5.3-.5,1.9-2.2,8.1.2.8-2.6h10.7s1.9-6.9,1.9-6.9h.8l1.4,2.4.7-2.9,2.8.3.8-1.2h0l3.1,3.2h2.8l-.5,7-1.2,3.7,2.1,1.5,1.2,2.5-8.8,9-.9,2.2-1.4.3-3.2,4.7-2.6,1.7-3.3,5.2-3.9,4.2,3.9-2.2,1.4-2.7,8.8-8.5,1.2-2.5,5.6-5.2,4.4-5.7,2.3-.2-.7-2.7,1.9-8.2h.7l.2-2.5,2.5-4.7,3-1,2.5,1,.5-1.5,3.7-2.2v-2.2l-1.4-1v-1l1.6.2.9-1.5,2.3.2,1.6,2,1.4-.7,1.2.5-3,2.2v1.2l1.2.2h0l2.2-.3-1.1,3.4,1.8.8-1.4,11.3,3.2,1.9v4.5l1.4,1.5.7,3-1.4,3v3.8h0v3.4l1.4,2.6h-6.3l.7,2.3-2.5,3.8-1.8.4-2.1,3.8-5.3,3.4-4.6.4-1.4,1.1-2.8,5.7.3,4.5h-1.4Z"/>
    <path id="HK-EA" d="M289.5,322.7l.2-1,3.7-.2,2.3-1.7,2.1.5.5-1.7,2.3-1.2,1.9-2.5,4.6-2,2.8.2.2-.8,2.8,1.2,2.1-.2.9,1.2h3l2.8,2.2,4.2,1.2,3.7,2.5.5,2.2,1.4,1,6-1.7,5.3,5,.7,3.2,1.9,1.2-1.9,3.5.2,1.5,2.1-1.5.5-2.5,1.2,2.5,4.2,2.2.2,1.2,3.9,3.5-1.6,6.7,1.2,2-2.5,4-1.6-.7-1.1,1.5h0l-2.9-5.7-2.5-.4-2.1-1.9-2.8-.8-6,1.9-2.1-2.3-6.7-.4-3.5-1.1-1.4-1.9-3.9.4-3.2,1.5-1.8-.8-2.8,1.1-2.1-.2h0l.8-5.5,6.1-4.8v-2.7s-4.1-3.7-4.1-3.7l-.7,1.9-2.4,1.4-2.1-2.5-2.5-5.8-4,2-1.7-1.9-6.2-.6Z"/>
    <path id="HK-CW" d="M280.4,324.4l1.1,2.6v3.3s-1.4,1.5-1.4,1.5l-.7,8.3-1.8,3h0l-1.4,1.2-2.8.4-4.6-1.9-1.4,3-4.6,2.6-1.1-.8.3-2.3-2.5-2.3.3-1.1-1.8-3.4-5.3-6.8-2.5-1.5h-3.9l-2.8,1.5h-4.2c0,0-1.9-1.7-1.9-1.7l.5-3.7,1.4-2,5.8-2,.5-2,4.9-1.5,1.6-2,2.6.2,2.5-1.2,5.8.2,2.8,1.2,2.1-1,1.2,1.7h6.3l-.2,4,4.2,1.2.8,1ZM235.9,320.7l1.2,1.7-3.2,1-.2-1.7,2.3-1Z"/>
    <path id="HK-WC" d="M306.5,344.8l-10.2,3.2-4.2-.8-1.4-1.5h-1.4l-1.4,1.5-4.6-1.1-5.6-3h0l1.8-3,.7-8.3,1.4-1.5v-3.3s-1.1-2.6-1.1-2.6h0l3.6-.2.2-2.7h2.6l.7,2,2.1-.7h0l6.2.6,1.7,1.9,4-2,2.5,5.8,2.1,2.5,2.4-1.4.7-1.9,4.1,3.7v2.7s-6,4.8-6,4.8l-.8,5.5Z"/>
    <path id="HK-SK" d="M370.9,251.9l2.3,1.5.5,2-.9,1.2.2,2.2-1.6,1.2-.2,2.5h-.7l-1.4-1-1.4-3-1.6.2,1.2-2.2-5.1.2.5-2.7,2.8-1.5.9-3.2-.5-1.2-3-.2.5-3-1.9-1.2-.7,4-1.9-.7-.5,5.2h-2.3l-.2.7,1.9,3.5-5.6,2.7h5.1l.9-2.2.7,1.5,1.9.5,2.6,2.5,2.3.5-.5,2.5-1.9,2.7.2,4,.7,2.2,1.8.5,1.2,2.7-.2,2.7,1.4,2-.2,5.5,3.7,1,1.6,2.2,4.9-1.7,2.8,1.5,1.4-1.2.9,6.7,1.9.7v2.7l-1.4,2.5h1.6l.2,2.5,1.9-.2-.2-2.2,2.3-2.2,1.6.5.5-.7,1.1.5.2-.7h1.4l.9,1.2-.2,1.5,6.3,6v2.7l-1.4.2.5,3.7-1.2,1.2h-2.8l-2.3,1.7-1.2,2.7-6-1-1.2-.7v-1.7h-2.3l-1.9,2,.2,2.2,1.9-.5-.5,2-2.1,1,1.2,3,5.1.2.7.5-.5,2h.7s2.6-3,2.6-3l3,.2-2.1,1.5.2,2.5,1.2,3.5,1.6.7v1.7l1.2-.7,1.6.7-.7,3-2.6,1-2.3-1.7v4.5l-1.6,1-1.8-1.5-1.2-3-4.4-2-.5-2.2-6.3-1.2.5,2.2-2.3,1.2v2.5l-2.8,2.7-.9-1-2.1.2.2-1.5-3.3-5,2.1-2.2,2.8.2v-1l-2.8-1,1.2-2.2-4.2,2.7-2.3-.5-.9-1.2.5-2.2,1.9-2-.5-2.5,1.9-3.7-.2-3.7-2.1-1.7.2-1.7-1.9-2.7-.2-2.2-5.1-.7.2-1.7-.7-.5-1.4.2.7,4.5-2.8,1.5-5.1,6,.5,1-3,2.7h0l-1.1.3-1.4-2.3,1.4-1.9-1.1-3.8.7-1.1,2.8.8-.3-3.4-1.1-1.1v-2.3l-2.8-1.9-.7-2.3,1.8-1.1,2.8-4.5-1.4-1.5-2.5-.4,1.8-1.9.7-3-1.1-.4-.7,1.1h-1.4l-2.8-1.9h-1.4l-4.6-10.6-4.9.4h0l.3-3.4-1.9-12.7.2-6.9h1.4l-.3-4.5,2.8-5.7,1.4-1.1,4.6-.4,5.3-3.4,2.1-3.8,1.8-.4,2.5-3.8-.7-2.3h6.3l-1.4-2.6v-3.4h0l4.6-3.8h12.3l4.6-4.5,3.2.8,1.1-2.3,3.2-3,1.4-6,4.2-1.1,2.8,1.1,2.1-.8,3.9.8,2.1-1.5-1.1-1.5,1.8-2.6-.7-3.8,2.5-1.9,7.7,1.5,1.8,2.3,2.1.4,1.1.8-2.1,1.9,1.4,1.9,5.6,3.4,3.5-.4,2.5-3.4,1.1.4,6,7.2h2.8l2.1,1.1v2.3l1.1.8,2.5-.4,4.6-4.2,1.1-2.3,2.5-1.5v-2.3l2.5-6.8-2.1-2.3.7-3.8-2.5-2.6,1.1-2.3-.7-3,.3-1.1,2.1-.8.9.9h0l1.2,3.3,1.4.8,2.5-.2,1.9-1.5.7,1.7,3.3.7,4.4-2.2,3.3.2,1.4-2.5.2,4,2.1-1.2,1.2,3h2.8l.5-1.2,1.6.5-2.8,2.5v2l-2.5,1.7,1.9,2.2-.2,3.7,1.4.8.2,1.2,3,.5,1.9,6.2-1.6,1-3.9.2-1.2-2.2-2.5-1.2-1.6-4.5-3,.8-3-1.5-2.5,4-1.6-.5-1.9,2.7.9,4.2-.9.2-1.6-1.7-1.4,1.5.7,1.5-.5,4.7-4.4,2.7,1.9,1.2.2,1.5h1.1l.7-1.2,1.1.5.2-1.2h.9l1.2,2.2,1.6-.2,1.4,2.5v2.2l1.6-.2.7,2,2.1-1.7v1.5l1.4-.2,1.6,1v6.5l1.2,3.5-3.7,1.5,3,4.5.5,2.2-1.4,2.7-2.8-.2-3.7-7v-2l-2.1,1.7-2.8-1.7-1.2,1.7.7,3.2,4.2,2.5.2,2.2-1.4,1.7-2.3-.2-1.6,3,2.8.5.9,1.2-3.5.2.2,1.2-1.2.8-.2,1.7h-1.9s-.2,1.3-.2,1.3l-5.1-2.5-.9,2,2.3.5.7,1-.2,1.2-1.2-.5-.5,1.2-3.7-3-1.2.5v6l.9.5.5,2.7-1.4.5-.9,4-2.1.8-1.2-1.2-.2-4.5-1.4-1-.5-3.5-.9-.5.7-1-.5-1.7.9-.8-.5-3-.9.2v1h-1.2v2.7l-1.2.5-.7-1-1.4.2-1.9,3.2-3.7-4.2-.9-2.5v-.7s3,.2,3,.2l-.5-1.7-1.6-.2-1.6-2h-2.3l-2.5-3-.2-1.5,1.4-.8v-2.2l.9-.2-.5-1.5.9-1.2.5-6.2-2.1,1.5-1.9-1.5-2.8-.5-3.3-2.5-.5-2.2-3.3,1.7-.5-1.7.9-2.5-1.9,2.5-1.9-1,1.4-3.5h.9v-3.5l1.2-.2-.9-.8-5.8,1-.2,2.2-1.4,1.7,1.6,2-.2,1-2.6-.5-2.3,1.2-.5-1.5h-1.4l-3,1.5-.2-2.2-1.6-2.5-1.9,1-2.8-.5-2.5-5.2-3.3-.8-1.6,2.2-3-1.2-1.6,4.2.9,4.5-4.9,5,.2.8,1.6-.2,1.1,2.2-2.5,4.2-.2,2.2.9,3.2,1.8,2.2ZM391.3,240.4l.5-4.7,1.4-.5,3.2,1.2.5,4.2,1.4-2-.7-3.5,1.6,1.2,3.7-.5.2,1.2-1.2,2,1.6-1.5,2.3-.2.9,2-1.2,2,.2,1.7,1.9,2.2.9,3.2-.9,4.2,7,4-1.4,7.7-1.9.7.7,1.7-.5,3,1.6,1,3.7,6.2v2.5l-.2,3.2h-1.6l-1.4,2-1.9-1.2-4.2.5-2.1-8.2-1.4-2.2.9-3.7h1.4l.2-1h-1.6l-1.2-2-1.2-.2-.7,2-1.2.5-5.3-4.5-1.6-4,.5-2.2,1.2-.5.7-1.7-.7-2.7.9-1.2-1.6-4-3-1.7-.7-6.2ZM388.5,346.8l1.4.5-1.1,3.2,1.6,1.7.2,1.7-1.9,1.7-.7,4.5-4.2-.5-.5,3.2-2.1,1-1.2-1,1.2-2-.7-1-2.1-.2-3.7-2.2.5-2.7-.7-1.7,4.9-4.7.7,1h1.9v-1.2l3.3-1.7.2-1,3-.7v2.2h0ZM446.9,287.8l-.2,2.2,1.9,1.2.9,2.2-.5,2.2,2.3,1.2-.9,1.7-2.3.5v3l-3-1,.7-2.7-2.3-1.5-1.4-3.2.5-3.7,1.9-.2,2.6-2ZM386.9,241.2l1.4,1h-3l1.2,2-.2,1.7,1.6,1.2v1.2l1.6.2v1.7l-1.6,1.2,1.4,6-.9,3-1.2-.5.9-3-1.4-1-1.2.2-.5-5-4.4-3.7,2.5-2,.2-2.7,1.2-1.7,2.5-1-.2,1ZM438.8,284.6l.2,1-2.8,3.5-.2,3.7-1.4.2-.2,1h-1.9l-.5-.7-.2,3h-1.1l-.9-1.5v-2.5l1.4-1.5.7-3.7,1.4-1.5h1.6l.9,1,1.4-2h1.6ZM445.8,274.1l.2-1.5,2.5,1-.9,3.5-.9.5.9,2.7-.9,2-2.5-1.5h-2.6l.9-2.2-.7-.5.5-4.5,2.1-.7,1.4,1.2ZM387.3,279.3l6,5.5.2,2.7-.7.8-4.6-.8-1.6-1.2-1.4-3.7.5-2.7,1.6-.5ZM410.5,238.9l5.3,2.7.5,2-.2,1.2h-.9l.2,3.5-1.4,1-.5-3.2-.7-.2.5-3.5-1.6-1v1.7l-1.2,1.5-2.1-2,.7-1.7-.5-1.5,1.9-.5ZM433.9,333.1l.5,2.2-1.6,2.5v2.2l-1.6,1.2h-2.3l1.2-4.5,3.9-3.7ZM450.2,276.3l.5,1.5,6.3,4.2-.5,1.2-5.3-1-.9-4.7-.7-.2.7-1ZM435.1,342.4l.9,3.2-.2,3.2-3.7,1-.7-4,2.3.2.5-3.2.9-.5ZM403.6,327.9l1.2,3.2-1.6.7-1.9-2.5,2.3-1.5ZM420,274.1l1.6,3-2.8.7-.7-1.7,1.9-2ZM375.1,234.5l2.1,1.2-.2,1.7-1.4-.2-.2-1.2-.9.2-.5-1.5,1.2-.2ZM449,283.6l.7,1.5-3,.2.2-1.2,2.1-.5ZM463.2,214.8l.5,2.7h-.9l-.5-2.5.9-.2ZM429.5,347.6l1.6,2.5-1.9-.5.2-2ZM449.5,337.9l1.2,2.5-1.9-1.5.7-1ZM380.2,239.7v1.7l-1.6.2-.2-.8,1.9-1.2ZM498.4,157.9l.7,2.2-1.9-1.5v-.7h1.2ZM381.5,235.9l.9.5v1.5l-1.6-1.2.7-.7ZM380.6,250.4l-.5,1.7-.9-1,1.4-.8Z"/>
    <path id="HK-SO" d="M326.1,394.6l2.3,4-.5,2.7-8.8,1.5-1.9-2.5v-10.7l2.5-2.7.3-2-2.3-3.5-3,1-1.9,4-3.5-.2-1.2,2-2.8.2-.5-2,.7-2.7,3.7-1.5-1.2-3.5-2.8-.2-3-2.2v-1l2.1,1,1.4-.7-1.2-4,1.4-.7v-3.5l-2.1-3.5-3.9,2-2.1-1.5-1.6-3,1.4-2.2-.5-1.5-6.7.2-.5,2-3.5,4.7-1.2,5.7-1.4.7-4.4-3,.5-2.5-1.2-.5-1.4-5-1.6-.5-.9-3.7-12.8-.7-3.7-1-2.6.7-1.9-.5-1.4-2.7-1.9-1-.5-4-2.1-1.5-5.3-11-3.5-2.3h4.2c0,0,2.8-1.6,2.8-1.6h3.9l2.5,1.5,5.3,6.8,1.8,3.4-.3,1.1,2.5,2.3-.3,2.3,1.1.8,4.6-2.6,1.4-3,4.6,1.9,2.8-.4,1.4-1.2h0l5.6,3,4.6,1.1,1.4-1.5h1.4l1.4,1.5,4.2.8,10.2-3.2h0l2.1.2,2.8-1.1,1.8.8,3.2-1.5,3.9-.4,1.4,1.9,3.5,1.1,6.7.4,2.1,2.3,6-1.9,2.8.8,2.1,1.9,2.5.4,2.9,5.7h0l-.7,1-2.1-.5-.2.7,1.9,3,1.9.7-.2,2.2,2.6,2.7-1.6,4,1.9.7,5.3-.2-1.2,2-2.3-.5-.2,1h-2.3l-1.6-.7-.9,1.2,3.9,6.2v9l3.2-.5.5,1.5,1.6.7-.5,4.2-2.1-.7,1.2-2.2-2.3.2-.9-.7-.7,1.7h-1.4l-.9-1.2-4.9,1-3.7-1.7-.7-2.5,1.4-2-.9-4-2.6-.2-3-4,1.2-3.7-.9-1v-4l-1.4-2.7.7-3-3-2.5-3.9.7-.9-4.5-1.4-.7v4.7h1.4l3.3,2.7.7,7-3,1-2.4-3-1.6,2.7-2.8.5-.2,2.7-1.9,1.2-.7,2,.2,2.5,6.5,4-.2,2.7-1.2-.2-.7,2-1.4.5,2.6,5.5ZM272.8,356.5l3.3,5-1.4,5.7,1.4.7.5,4-2.3-1.5-.9-3.7-3.9-1-.9-2.7-2.3.7v-1h-1.6l-.9-3.2-1.2-.7,1.6-1.7,4.9.5,3.9-1ZM297.4,364.5l1.9,2.2-1.4,1.5-3.5.7-1.9-2.2.2-1.2,4.6-1ZM295.3,381.7l2.3,1.2.2,2.2h-3l-.9-3.2,1.4-.2ZM357.2,373.7l-.2,1.7-2.6-1,.5-.7h2.3Z"/>
  </g>
</svg>