<svg xmlns="http://www.w3.org/2000/svg" xmlns:amcharts="http://amcharts.com/ammap" id="Layer_1" viewBox="0 0 512 512"><g id="_x3C_defs"><amcharts:ammap bottomLatitude="-10.947" leftLongitude="95.22" projection="mercator" rightLongitude="141.01" topLatitude="7.357"/></g><g><path id="ID-AC" d="M25.9 213.6h-.1l-1.3-1.5-1-.4v-.2h1.9l.7 1.3v.8ZM8.3 174.5l1.7.9.2.7 1.8 1.5 3.1.8 2.6.2 1.2-.2 1.4-.6.8.3 1-.2 1.6.4.4.8h.4c0 .1 3.4-1 3.4-1l2.6 3 1 .8.8.2.6 1.1v1l.6 1v.6h.5l.6.2 1.7 1.2v.9l-.1.6h-.8l-.5.1-.2.3h-.6l.1.7-.3.2v.3l-.2.4-.3 1.7-.8.4v.4l-.5-.2v.9c.1 0-1.1 1.2-1.1 1.2l.7 1.2v.5l.5.2v.6c.1 0 .5.3.5.3l-.2.3.2.6.4.3h.2l.2.4-.2.5-1.5.4.8.5v.5l.4.4v.6h-.6l.3 1.8.6.2.4.7h.6l.1.4-.2.6.4.9h-.4c0 .1-.2 1-.2 1v.6c.1 0 .4.4.4.4v.5l.5.2.3 1-.4 1.8-2.2-1.3-.9.3-1.3-.3-1.1-1.5v-2.6l-.6-2.5-1.6-.5-.7-.6-.8-1.1-.3-1.3-.3-.5-1-.3-1.8-3.1-1.2-.8-.2-.7-1-.7h-2.6l-.8-.3-1.1-1-1.2-1.8-1.1-1.2-2-1.1-2-2.2-3.3-2.9-1.2-1.8-1.5-3 .2-.6-.7-1.2.3-1.4-.3-.8v-1h.7l1.7-.9 1.8.3 1.5.5Z"/><path id="ID-BA" d="m228 333.2-1-.4-.5-.4v-.2l.7-.4h.8c0 .1.4.8.4.8l-.3.7Zm-12.3-7.9.7.5.4-.2 3.3.8 1.5-.3 1.1-.9.8-.2 2.9 1.1 1.2.7.8 1 .8.4v.4l-1 1-1.2.6-2 .6-.6.6v.5l-.8.5.3.4v-.2l.2.5-.2.3-.7.2h-.6l-.1-.3.9-.6-.2-.3.2-.4-.2-.3-3-2.6-1.9-.6h-1.4l-1.6-1.9-.2-1.2v-.3h.5Z"/><path id="ID-BB" d="M131.7 269.3h-.8l-1.1-.6.2-.5.7-.3 1.1.5-.2 1Zm10.5-5.4 2.8.8 2 1.6.3 1.1-1 1.7v1.2l-1.1.5-.3.7-1 .2-.2-.9-1.1-1.2-.5.4.2.3v.5l-.3.2-1.9.6-.4-.2-.4-2.2.4-1.1v-1.5l.3-.3.2-1.8.2-.2h1.1l.7-.3Zm-19.3-8.4.8 1.7.2 2.4.6 1.8.8 1.3.8.6 2.5.5 1.8.7-1.1 1-.9 2.6v.3l.6.3 1 .3v.8l-.3.3h-2.2l-.8-1.3-1.8-.8-3.4-1-.6-1-.2-.9.4-1.3v-.6l-.9-.5-.4-.5-.2-2.3-.6-.6-3-.3-1.5.3-2.3-.6-.2-.5.2-.8 1.6-.7 1.2-1v-.6c-.1 0-.7-.4-.7-.4v-.6c.1 0 1.3-1 1.3-1l1.3-.4h.3l.5 1.2v1.1l.7.5 1.1.2-1.1-2.7 2-.6h.3l1.5 1.2-.2.5v.4l.7 1Z"/><path id="ID-BE" d="M78.3 266.4v.4c.1 0 .7.3.7.3v.5l1 .6.4 1.2.7.4.7-.3h.6c0 .1.4.5.4.5l.2.5v1.1c-.1 0 .9 1 .9 1l.6.2 1.6-.7.4.6h.9v.6l.6-.2h.5l.1.3-.2 1.4-.4.6-.6.4-.6-.8-.4-.2v.9l-.8.7v.7l-1.4.6h.4c0 .1.4.6.4.6l1.5 1.3h.5c0 .1.4 0 .4 0l.6.5h1.4l.4.1.6 1.3v1l1.2.2.8.6h1.1l.6.7.6-.2h.4c0 .1.2.9.2.9l-.5.7.7.7-.5.4h.5l.4.3.3.8-.2.3h.9c0 .1.2.7.2.7h-.6v.3l-1.3.7v.3h-.6l-.6-.6h-.9v-.3l-.2-.2-.3-.2-.4.2-.3-.2v-.3c.1 0-.9-1.1-.9-1.1l-2-1.3-1.7-.6-.3-.7-.7-.7-5.7-4.3v-.8l.2-.2-.6-1.1-.2-1-1.4-1.2-2.1-1.1v-.2l-3.5-2.6-.9-1.2-.4-1.1-1-1.3-.8-1.9-2.1-1.2-1.3-1.5 2.5-1.6.5-.6 3 1.9v1.3c-.1 0 0-.3 0-.3h.5l.7-.2 1.2 1.4.9.7h.4c0 .1.9 0 .9 0l.8.4Z"/><path id="ID-BT" d="m129.9 303.1-.4.2v.7l.4.2v.4h.2l.4 1-.1.5h-1.9l-.2-.2-.7-.2v.3h-.2v-.4h-.3l-.4.4.3.9-.6.3v.6l.3.8v1.1l.9.9-.9.6v.5l-.5.4v.9l-1 .2v-.2h-.5l-.3-.2v-.3l-1.6-.6-.8-.7h-.9l-1.9.3h-1c0-.1-1.4 0-1.4 0l-.3.2h-.7l-.4-.4-.4.2v-.2l-.3-.2-.7-.2-.5.5h-.3v-.7l-.3-.3h.6l.7-.6v-.3l.5-.3.4.8-.2.2.3.2.2.6h.3c0 .1.3-.3.3-.3v-.6l1.2-1.2v-1l.4-.6.3-.2v.5l.2.2h.9l.6-1.1v-2l.4-1.4.2-.2v-.4l1.1-1v-.6c.1 0 .5-.5.5-.5h.5l.4.3v.8l.6.4.7-.2.4-.6.8.4.3-.3.4.2v.4l.4.2h.7c0 .1.5-.2.5-.2l.3.2.7-.2.3.2h.3l.3.2v.5Z"/><path id="ID-GO" d="m301.1 224.8 3 .2 2.2.6 2 1.4.7-.4.5-.8 1.6-.2v.5c.1 0 1 .4 1 .4l.4.4v.8c.1 0 .5.3.5.3l.8.6 1.3.2.3.4.2.5v1.3l-.7 1.5h-1.4l-1-.2-2-2.1-.3.2h-.9l-5.4-.1-4.6.2-.7.4-2.2.2-.9-1.1-1.9-.2-.5.7-1.8.2.2-.3v-.9c-.1 0-1.2-.2-1.2-.2l-.9-1h.2v-.8l.2-.2.7-.2.6.2h.3v-.7l.2-.3.6.3h.9l.3-.2h.9l2-.8.5-.4h.5l.3.4.6.4.3-.6h.2l.3-.4 1.6-.5Z"/><path id="ID-JA" d="m105.2 254.3-.8-.3h-.3l-.3.3v.5l-.1.3h-1.3c0 .1-1.5.6-1.5.6l-.7-.2h-.8c0 .1-.9-.3-.9-.3l-.5.2-.2.3h-1.1l-1.4.6-.7.6-.2 2.3.4.3-1.1.5v1.9l-1.3-1-.5-.6v-.5l-.6-.3-.8 1.1.4.4v.5c.1 0-.9.4-.9.4l-.9-.4-.2.3-1.7-.4-.4.5.4.6-1 1.4-.3.2h-.4l-1.1.6-.5.7h-.3c0-.1-.6.2-.6.2h-.5c0-.1-.4-.2-.4-.2l-.7-.5h-.3c0 .1-.5-.2-.5-.2l-.4.2v.5l-.3.3-1 .3-.3.5h-.4c0-.1-.8-.5-.8-.5h-.9c0 .1-.4 0-.4 0l-.9-.7-1.2-1.4-.7.3h-.5l-.2.2v-1.3c.1 0-2.9-1.9-2.9-1.9v-.3h.1l-.5-2.1-.2-.5-.7-.5-.5-.9v-2.3c-.1 0 .3.2.3.2l.2-.2.4.5.4-.2 1-.2h.8l.2.1.6-.2.8-1.1 1.3-.8.4-.7-.3-.4.3-.4-.3-1 .4-.4 1-.2.7-1.2h-.3c0 .1-.3-.2-.3-.2V247h.4v-.2l.5-.1v-.4c.1 0 .5-.2.5-.2h.2c0 .1.4-.3.4-.3l1.4.4.5-.2.4.5 1.2-.4.2.5.6.3v.4h.8l.3.5 1.4.2.4.3.5-.4h.4l.7-1.1 1.3-1 1.1-1.5H90l2.3.3.2.2.5-.3h.8l.8.4 1.1 1.2 2.1 1 1.3-.3 2.9 1 1.7-.4.5 1.1-.2.9.6 1.3v1.9c-.1 0 .5 1.7.5 1.7Z"/><path id="ID-JB" d="m134 301.4.8.6 1.4-.3.6.2 1.3 1.9 1.7.5.6.6.3-.2h.5l.8-.4h.4v.3l.4-.2v.5l2.6 1.1.9-.7-.3-.5.4.2h.9l.4.3v-.4c.1 0 .5 1.2.5 1.2l.9 1 .9.5.3 2.3.4.7h.4l.2-.1.3.2v.4l.8.2.6-.3v-.2h-.2v-.2h.4v.9l-.8 1v.7l.5.2-.2.4v.7l-.6.2-.3.4-.8-.2-.6.3.2.9-.3.5v.5l.3.1h.7l.3.2.4.7v.6l.4.8-.2.6.8.6-.4.3-.8-.2-.3.2v.4l-.2-.5H150c0 .1-.3.4-.3.4v.7l-.3.2-1.5.2-2.9-.5-1-.3h-1.6l-.5-.6-1.3-.2-.2-.5-.8-.6-1.6-.7-2.5-.3-1.3-.3-6.1-.4-1.4-.6h-.4c0 .1-.3-1.3-.3-1.3l.4-.6h.6v-.7l.6-.4.4-.5v-.6l-.4-.3h-.8l-.5.2v-.9l.4-.4v-.5l.9-.6-.9-.9v-1.1l-.3-.8v-.6l.6-.3-.3-.9.4-.4h.2l.1.5h.3l-.1-.3.7.2.2.2h1.9l.1-.4.3-.1v.5l.5-.2.7.3v-.6c.1 0 0-.6 0-.6h.4c0-.1.3-.7.3-.7v-1.3l.4-.2-.2-.3.3-.2-.2-.3.3-.6-.3-.2.4-.3.8.2Z"/><path id="ID-JI" d="M202.7 329.2h1l.3.2v.2c-.1 0-.8.2-.8.2h-.9v-.4zm27.3-14.8h.3c0 .1.1.4.1.4l.6.2.5-.7-.2 1-.7.2-.8-.4v-.2c-.1 0 0-.7 0-.7v.3Zm-15.2.7h-.6l-.5-.4-.2-.4v-.4c.1 0 .7-.2.7-.2l.3.2.5 1v.2Zm13.9-2.3.5.4-1-.2-.3-.4.2-.2.7.3Zm-18.2-.9 1.1.6.2.5-1.9.5h-.4l.7.4h.9l.1.5h-1c0-.1-.6-.7-.6-.7l-.4.5v.5c.1 0-2.2-.3-2.2-.3l-.4.2h-.5l-.5 1.1-.4.3v-.3h-3.6l-.2-.3h-.2l.1-.3-.2-.2-.2.3.4.5h-.6l-2.6-.7h-1l-.7.1-.3-.2v-.6c.1 0 0 0 0 0l-.2-.4v-.3h.5l.8-.7.4-.8.7-.2h1.5c0-.1 5.4 0 5.4 0l4.6-.4.9.2Zm14.2-.6 2 .3 1 .5.2.3-.3.4h-.6c0-.1-.3-.4-.3-.4h-.7c0 .1-.2-.1-.2-.1h-.6l.7.8h-.7l-.3-.2-.3.4-.4-.4.3-.3h-.7v-.6c.1 0 .6-.3.6-.3l-.2-.3h.6Zm-39.3-.7 1.3.3 1.3-.4.7 1.2.8.3 1.2-.3h2.1l1.1.4.2-.3v-.2c-.1 0 0-.3 0-.3l.3.2.2.4.3.2-.2.3.2.6.4.3v.4l-.3.8.5.5-.2.6h.6c0 .1.1-.1.1-.1h.5l.9.9-.2.5h.1v1.6h-.2l.6.7v.6l.2.3.5.2h.2c0-.1.5.3.5.3h.6l.5.5.9.5h.9l.4.4 2.4-.9 1.8.4.5-.3.6.3 1-.6.8.2.7-.7.6-.3.4.2.5.8h1l.4-.1.5.5 1 .2.6.4.3.4v.6l-.5.4v1.5c.1 0-.4 1.4-.4 1.4v.5l-.4 1.9v.4l.2.5v.4h.1v-1c.1 0 .5 1.8.5 1.8l.3.4.3-.2.4.4h.6c0 .1.4.7.4.7l-.2.5-.7.3-1-.4h-1l.3-.6v-.4c-.1 0-.5-.4-.5-.4l-.8-.4h-.3l-.2.5-1.2-.3-.7.2-.4-.5-.2.2h-.4l-.1-.1.2-.2-.2-.2-.4.2-.9-.3v-.3l-.3.2v-.6c-.1 0-1 .4-1 .4v-.5l-.5.1-.5-.6h-.5v-.2h-.5l-.5-.2v-.3l-.2-.1-.8.3-.6-.8-1.1-.5-2.3.2-.7.4-.6.7-2.3.3v.3h-.2l-1.5-.6-1.9-.3-1-.5-.4.2-.8-.2h-1.6l-1.2-.5v.2h-.5l-.5-.4h-.2c0 .1-.7 0-.7 0v.7l-.1.1h-.2v-.5h-.2v.3h-.3c0 .1.3.5.3.5h-.3l-.8-.2v-.3l-.4.1-.4-.3-.2.3-.8-.2v-.5c-.1 0-.3-.1-.3-.1l-.4.2-1.6-.3-.3.2h-.8l-.5-.3v-.2h-.2v.3h-.7l-1.3-.4v-1.1l.5-.6.8.2.5-.4.4.2.3-.4v-1c.1 0 .6-.2.6-.2v.2l.7.1.7-1-.4-.8v-.4h-.6l-.5-.4v-1.1c.1 0-.3-.3-.3-.3v-.9c-.1 0-.5-.9-.5-.9l.3-.6v-1.1l.8-.2.3.4 2.4 1v-.2h-.1v-.4h-.2l.2-.6 1-.4.9-1.3v-1.4l-.5-.4.4-.4.2-.9h.4v-.6l.3-.2.5.2Zm10.7-11.5h.2l.2.6v.5c-.1 0-.6.2-.6.2h-1l-.2-.3.2-.6 1-.7.2.2Z"/><path id="ID-JK" d="m113.8 308-.3 1.2h-.4c0 .1-.3.5-.3.5v-.2c-.1 0 .1-.5.1-.5l-.2-.2v-.3l-.5.3v.2l-.2-.1.2-.4.6-.5h.9Zm16.3-4.8 1.2.2.5-.3h.9v1.2l-.3.6h-.4c0 .1.2.7.2.7v.6c-.1 0-.8-.3-.8-.3l-.6.2v-.5h-.3l-.4-1h-.2v-.5l-.4-.2v-.7l.4-.2h.3Z"/><path id="ID-JT" d="m184.9 310.4-.3.2v.5h-.5l-.2.9-.4.4.6.4v1.4l-.9 1.3-1 .4-.2.6h.3v.4c-.1 0 0 0 0 0v.2l-2.4-1-.3-.4-.7.2v1.1l-.4.6.4.9v.9c.1 0 .5.3.5.3v1.1c-.1 0 .4.4.4.4h.6v.3l.4.8-.7 1h-.6v-.3l-.5.2v1c-.1 0-.4.4-.4.4l-.4-.2-.5.4-.8-.2-.4.6v1.1l-.8-.2v-.3h-.2l.2-.4-.3.2h-.1v-.6l-.4-1 .4-2.2h-.2c0-.1-.2 0-.2 0l-.4-.4-.4.2v-.2c-.1 0-1.1.2-1.1.2v-.2h-.5l-.5-.3-.5-2.5-1.5 1.2-.4.5-.3-.6h-1.4v1.1l-.8.8-.2.8h-.4l-3.4-1-2.4-.5-.8.2-.3-.2v-.3c.1 0-1.1-.3-1.1-.3H156l-.5.3v.2l.3.2v.2c-.1 0-2.8-.5-2.8-.5v-.4h-.2l.9-.5h-.7c0 .1-.8-.5-.8-.5l.2-.6-.4-.8v-.6l-.4-.7-.3-.3h-.9v-.5l.2-.5-.2-.9.6-.3.8.2.3-.4.6-.2v-.7l.2-.4-.4-.2v-.7l.7-1v-.9.3l.3.3 1 .3.2-.3.9-.3.2-.2v.6l.5.4 1.6.3 1.8-.2 1.1-.8.6.7h.9c0 .1 2.4.9 2.4.9h1.5l1.5-.5.3-.3.5.2.3.5.8.4.6.2.7-.2c0 .1.4 0 .4 0l.4-1.2.6-.8h-.4v-.2h.3l-.2-.2h.4l.7-.7v-1.2l.4-.4-.2-.2.6-.6 2-.5 1.5.3.7 2 .4.6 1.1.4h1.5c0 .1.9-.2.9-.2v-.3c.1 0 .4-.2.4-.2l.9.3 1.4 1.2Z"/><path id="ID-KB" d="M153.4 254.4h-.2l-.4-1v-.2l1.1-.3h.4l.4.5-.2.6-1 .4Zm7.6-7.4 1-.2.5.4.4-.3.3.2.4 1.5-3.2 1.8-.8-.3-.3-.3.5-.7.2-1.7.5-.7.4.2Zm1.2-33.8-.3.9-.4.6h-.4v.8c.1 0 .7.6.7.6l.8.2v.2l-.2 1.4.2.4 1.4 1.3.5.8 1.1.2.3 1.1 1 .5.2.6.3.2h.8l1 1.5.2.6 1.2.2.6.9 1 .4h.8l.3-.5.3.3h.3l1.8-.8.6-.7 2.5-.3 1.2-.4 1.6.8.8-.2h.5l.4.8.2-.4 1.1-.6.8.3h.4c0-.1 1.1.1 1.1.1l.2-.5.9-.9h2.1c0-.1.2-1.9.2-1.9l.5-.5v-.4l-.2-.4.3-.4 1.1-.5 1-.2 1.1-.6 1.9.2h1.1l.6.2.7-.5 1.5.2.4.4-1 1.3h.5l.9-.2h.2l.2.5h.5c0 .1 1.5.2 1.5.2l1.2 1 1.4-.4.4.2.5.9h.2l1.9-.9v-.8c.1 0 1.4-.5 1.4-.5l.3-.3 2-.2.7.6-.5.3v1.2l-.2.3v.9c-.1 0-1 .4-1 .4h-.6l-.3.2v.4l-.7.2v.2l.2.5-.5.8.5.9-.3.4v.8l-.5.2v.5l-.3.2v.5c-.1 0-.9.8-.9.8l-.7.3-.2.7-.8.5-1.1 1.1-.6.4-.9-.2-.9.4.6.8 1 .5v.9l.3.4-.3.7.3.2-.2.5-.3.2h.2v.3h-.2l-.5.7h-.5c0 .1-.9 1.3-.9 1.3l.5.5v.5c.1 0-.4.8-.4.8l-.4-.4h-.3v-.2l-.9.6h-.9l-1.1.4-.4.4h-1.2v.6h-.5l-.2.3h-.6l-.4.4-.6.2h-.5c0-.1-.2.3-.2.3l-.2-.2v-.4h-.2l-.9.5h-.3c0-.1-.2.2-.2.2l-.7-1.1-.6-.2-.5.7v.5l-1.3-.3h-.1c0 .1.2 1 .2 1l-.8.2-.6-.4v1.1h-.4l-.5.5h-.6l-1.2.7h-.4l-.2.3v.4c.1 0-.5.4-.5.4l-.2.3.2.4-.2.3.2.2v.2l-1.9.4v.3h-.3l-.2.5-.4.2-.5.9h-.7v.2h-.2v.8l-.4-.5-.5.3.2.5h-.5c0 .1-.2-.1-.2-.1l-.5.3-.3-.2-1.4 1v.5h.3l.3.4.7-.6.3.4v.8l-.3.7v.4l.2.3-.2.5.3.4h.9v.6l-.4.4.4 1-.5.8.4.7.3 1.2.4 2.2-.2.5.5.2v.3l-.2.6-1.5.5v.4l-.5.3h-.8c0 .1-1.3.7-1.3.7l-.5.8-.9.5h-.2v-1.3l-.2-.6-.3-.4h-.4l-1.5.6-1.2 1-.4-.2-.3-1 .4-1.1-.5-.4v-1.1c-.1 0-.9-.2-.9-.2l.4-.5.2-.8-.7-2.4-.5-.6.3-2.1-.4-1.2-1.5-.8-.5-.5v-.6c.1 0 1-.5 1-.5l.4-.8.4-2.1v-1.4c-.1 0-.7-.6-.7-.6h-.5c0-.1-.6-.8-.6-.8l.3-.9-1.2-.4-.7-1-.4-.3-.5.3-.7-.5-.5-.7-1.5-.5h-.3l.1.6-.3.3-1.1-.4-.4-.4-.3-.6v-1.7c.1 0 .6.3.6.3l1.2.2.7.4v-.3l-.6-.5h-.6l-.1-.3.2-.7h-1.2c0 .1-1.1-.3-1.1-.3l-.5-.5-.9-2.9.2-.4h.4l-.1-.6.7-1.1.2-1v-.8c-.1 0-.7-1.2-.7-1.2l-.7-.7-1.5-.4.3-1v-.3l-.5-.5.3-1.4-.2-.6-.5-.5.2-.6-.5-.6v-.3l.9-.4.4-.4.2-.7-.9-2c0-.1.5 0 .5 0v-.5l.9-1.2v-.5c.1 0 0-.8 0-.8l.3-1 2.2-1.7.3-1 .4-.6v-1.2l1.1-.1.5-.4h1.1l.8-.9Zm-8.9-8.5-.7-.4.6-.5.2-.7h.3c0-.1.3.2.3.2v1c-.1 0-.7.5-.7.5Zm-34.3.1-.4-.2-.2-1.7.2-.6 1.6.9-.4.9zm28.5-9.2-1.5.3-.9-.5.4-.5.8-.6-1.5-.6-.6-1.2v-.7c-.1 0 .2-.5.2-.5h.5c0-.1 1.3-1.4 1.3-1.4l.8.2.2.8 1.4 1.4v1.1c.1 0 0 .5 0 .5l-.9 1.7Z"/><path id="ID-KI" d="m254.4 208.9.9 1 .5.8v.3l-.4.6-1.7 1.6-.8-.3.4.7v1.8l3 2.5 3.2 1.9.3.9.8.4h.8l2 1.8.7 1.2 1.7.5.2.7-.8 1-1.5 1.1-1.3-.5-1.9.2-1.8-.2-2-.4-1-.5-.4-.5-.4-1.2-.4-.4-.7-.2v.3l1.5 2.6v.5l-.3.3-1.1-.6-1 .3-.8.7-.2.5v.6l-1.1 2.3-.6.4-.5 1.1-.6 2.1.7 1.5-.5.7-.5 1.6.4 1.1-.3 2 1.6-1.1h.4l-.6 2.4.5 1.4-1.9.9h-1.4l-.4-.6-.3.2v.5l-1.3 1.5-1.3 2.1-1.1.6-1.2.2-.8-1.9.2-.7h-.2l-.3 1.1.4.4.4.8-.4 1.3-1.4.5-1 .7v.6l.3.5-.3.6-1.5.6-2 1.1.4.4 1.4-.5.7.2v2.9c.1 0-.1.3-.1.3l-.9.4 1.4.2.3-.3.2.7.9.2-.5 2.5-1.6-.6h-1.7l-.8-.3h-1.7l-.6-.5-1.5 1-.2-.3v-.7l-.4-1.1v-1c.1 0 .3-.4.3-.4l-.5-.3h-.6v-.4c.1 0 0-.5 0-.5l.2-.9v-1.2l-.6-.8v-.5l-.5-.6v-.6h-.8l-.1-.1 1.3-1.5h.2v.5h.2l.7-.8.2-.6.1-.8.9-.9-.5-.4-.4.3h-.1l-.1-.5-.5-.4h-.3l-.3-.8-.8-.5-.9-1.1-1.1-.2-.3-.6-.2-2-.3-.3-.2-.7-.6-.5v-.7h-.1v-.9h.1l-.2-.6.4-.6v-.4l.6-.5-.2-.7-1.5.7-.2.4-.6.2-.5.4-.6-.2h-.7c0 .1-.4-2.4-.4-2.4l-.6-.4h-.4l-.2-.2.2-.8.3-.5.4-.2.3-.7.4-.3.2.2h.7c0-.1.3.2.3.2l1-1v-.5l-.4-.4-1-1.7-.4-1.5-.6-.3-.5.5.2.5-.8-.6h-.6c0 .1-.5.5-.5.5h-.6l-.9.8h-.5l-.1.7h-.6l-.4.3v.4l-1.2-.5h-1.3v-.3l-.5-.2.2-.3-.2-.6-.5-.3-2.3.6-.6-.2v-.5l.5-.2v-.8l.4-.4-.5-.9.5-.8-.3-.5v-.2l.7-.2v-.4l.4-.3h.6l.9-.3v-.9c.1 0 .3-.3.3-.3h-.1v-1.2l.5-.3h.2l.2-.4 1.5-.5.4-.3 1.7 1 .4-.4 1.1.9 1 .3.5.6.3.8.5-.3h.5l.3.2.6.9.7.2.6-.6 1.7.2.5-.6h.7c0 .1.8-.6.8-.6l.2-1 .3-.3h1.3l1.5-.5h1.5l.7-.6.4-.8 1.6-1.9.8-1.6V214c-.1 0 1.4-1.4 1.4-1.4l.3-2.4.8-1 .4-1h.3l.9.5.2.5.9.2.7-.2 1.1-.7 1.4-.5 1.3-.7 1.7.2 1.6-.3.3.7.4.3 1.2.5.7-.2 1 1.1.9.3h.2l.8-.5h.8l.4-.5Z"/><path id="ID-KR" d="m105.1 239.7.6.3.7 1.2-.7.5-.3 1.2h-.3l-.6-.6h-.3v.9h-.3c0 .1-.5-1.5-.5-1.5l-.8-.6.3-1h.5v-.6.5c.1 0-.1.3-.1.3l.3.4v-.6l.7.2.3-.2v-.5h.6Zm3.4-1.5h.3v-.6l.1-.1.8 1 .6.5h.5v.3l-.9-.3-.2.2.3.3v.2l-.7-.3h-.2l-1.6-1.2h-.6l-.6.5h-.3l-.4.3-.3-.4h-.5l-.3-.2v-.4l.9-.6v-1.5c-.1 0 .4-.2.4-.2l1.1.7 1.1 1.2v.5c.1 0 .6.2.6.2Zm-4.5-3.8h.1v-.1h.3l1.2 1.3-.6.3-.3-.2-.8-.9-.6-1 .6.6Zm1.6-1 1.1 1.4.9.7v.4l-1.5-1-1-1.2v-.3zm-1.3-1 .4.2h-.4c0 .1.2.3.2.3l-.6-.2v.2l-.2.3h-.2l-.3-.6h-.1v-.4h.5v-.2l-.4-.3 1.2.6Zm-1.5-5.1v.5c-.1 0 .3.3.3.3l-.5.2h.6c0 .1 0 0 0 0l.2.2v.2h-.5v.7l-.4-.3-.8-1.4.9-.3h.2Zm-3.9.3c0 .1-1-.9-1-.9l-.2-.6 1.1.6.3.6-.2.2Zm-1-.2v.3c-.1 0-.2-.3-.2-.3l-.8-.4-.3-.8.4-.3.7.8.2.6Zm-3.9-1.2v.4l.8.8v.2c-.1 0-.8-.5-.8-.5l.3.5v.5c-.1 0 0 .2 0 .2l-.2.6h-.3c0 .1-.2-.1-.2-.1h-.5l-.6-.9v-1.2c-.1 0 .1-.8.1-.8l.5.3v-.7l.3-.3.4.2v.6Zm7.1-.6h.2v-.2h.3l.2.2v.3h-.3v.3h.6l.5.3-1 .7-.2-.8h-.6v-.7h-.1c0-.1-.2 0-.2 0l-.2-.2v-.4h.4l.4.3Zm-3.5-.2-.6-.5.3-.4.3.3zm.7-1.3v.2l.5.6.8.4v.3h-.2v.5c-.1 0-1.5-.9-1.5-.9v-.5c.1 0-.3-.4-.3-.4v-.2l.3.1.2-.2v-.3l.2.3Zm-5.1-.7v.2h-.3v.5l.7 1.1H93l-.9-.6.2-.9h.4c0-.1.2-.5.2-.5l.2.2Zm8.2 0v1.2h-.6v.6l-.5-.1h-.2c0 .1-1.4-.5-1.4-.5l-.2-.8h.3v.3h.2l-.2-.7h.8l.1-.4h.2l.6.5v-.2c.1 0 0-.3 0-.3l.4-.2zm4.7-.3v.4l.6.3.3.8-.2.8.2.6-.2.2h.6l-.6 1h-1c0-.1-.9-.7-.9-.7h-.6l.5-.3-.6-.8v-.2h.5v-.3c-.1 0 .1-.3.1-.3l-.3-.3-.5.3v.5l-.6-.3-.2.3h-.8l-.4-.6v-.3l.3-.5 1-.2-.2-.5h.2c0-.1.5 0 .5 0l.3-.2 1.1.3.8-.6v.6Z"/><path id="ID-KS" d="M236.9 276h-.1c0 .1-.7-1-.7-1l.4-1.1.7-.7v.7c.1 0-.3 2.1-.3 2.1m-3 4.4h-.4c0 .1-.4 0-.4 0l.3-1.3V278l-.6-.8v-.9c-.1 0 1.1-3.6 1.1-3.6l1.6-1.1.2.3-.2 1.5.2 1.7.5 2.5-.2 1.6-2.1 1.4Zm-4.1-30-.2.6-.7.8h-.2v-.5h-.2l-1.2 1.4v.2h.9l.2.2v.5l.5.6v.5l.5.8v1.2l-.2.9.2.5v.4c-.1 0 .2.2.2.2h.3l.5.2-.2.4v1c-.1 0 .3 1.1.3 1.1v.7l.2.3 1.5-1 .6.4h1.7l.8.4h1.7l1.6.6-.2 1.2-.3.4h-.3l-.2-.5-.5-.3-1.3.3v1l.6.6v2c.1 0 0 .5 0 .5l-.9 1.2h-.5c0 .1-.3-.9-.3-.9l-.6-1.1h-.2l-.2 1.1v.6c.1 0 1.1 1.2 1.1 1.2v.6l-.4.2-.8 1.1-1 1.8-.4 1.9-1.5.3-1.2 1-8.9 3.6-2.4 1.5h-.8c0 .1-.3-.5-.3-.5v-5.2l-1.4-1.7h-.5l-1-.5v-.6l.5-1.5.9-1.5.2-1.4 1-1.9.9-.4.2-.5h.8c0-.1.3-.5.3-.5l.2-1.2.8-.8v-.6h.5l3.8-2.7.5.2.4-1.4-.5-1.2.6-.5.2-.5-.4-.6v-.5l1-3.9 1.3-.2 1.4-.6h.3l.6-.4.2-.2Z"/><path id="ID-KT" d="m174.3 268.9.5-.8 1.3-.6h.8c0-.1.4-.5.4-.5v-.4l1.6-.5.3-.6v-.3c-.1 0-.6-.2-.6-.2l.2-.5-.4-2.2-.3-1.2-.4-.7.5-.8-.4-1 .4-.4v-.5h-.9l-.3-.4.2-.5-.2-.3v-.4l.4-.7v-.8l-.4-.4-.7.6-.3-.4h-.3v-.6l1.4-1 .3.3.5-.3.2.3h.5c0-.1-.2-.7-.2-.7l.5-.3.4.5v-.9h.2v-.3l.8.1.5-.9.4-.2.2-.5h.2v-.3l1.9-.4v-.2l-.1-.2.2-.3-.2-.4.2-.3.6-.4v-.4c-.1 0 0-.2 0-.2h.4l1.2-.7h.7l.5-.5h.4l-.2-.4v-.6l.6.4.8-.2-.2-.9h.1c0-.1 1.4.2 1.4.2v-.5l.4-.7.6.2.7 1.1.2-.3h.3c0 .1.9-.4.9-.4h.2v.5l.2.2.2-.4h.5c0 .1.6 0 .6 0l.4-.4h.6l.2-.3h.5v-.6h1.2l.4-.5 1.1-.5h.9l.9-.5v.2h.4l.4.4.5-.8v-.5c-.1 0-.6-.5-.6-.5l.9-1.1h.6c0-.1.5-.8.5-.8h.2v-.3h-.2c0-.1.3-.3.3-.3l.2-.5-.3-.2.3-.7-.4-.4v-.9c.1 0-.9-.5-.9-.5l-.6-.8.9-.4.9.2.6-.4 1.1-1.1.8-.5.2-.7.7-.3.7-.8v-.5c.1 0 .5-.2.5-.2l.6.2 2.3-.6.5.3.2.6-.2.3.4.2v.3h1.3l1.2.5h.1v-.5l.4-.3h.6l.1-.7h.5l.9-.8h.6l.5-.4h.6c0-.1.8.4.8.4l-.2-.5.5-.5.6.3.4 1.5 1 1.7.4.4v.5l-1 1-.3-.3h-.7c0 .1-.2 0-.2 0l-.4.3-.3.7-.4.2-.3.5-.2.8.2.3h.4l.6.3.4 2.5h.7c0-.1.6 0 .6 0l.5-.4.6-.2.2-.4 1.5-.7.2.7-.6.5v.4l-.4.6.2.6h-.3l.1 1h.2l-.1.8.6.5.2.7.3.3.2 2 .3.6 1.1.2.9 1.1.8.5.3.8h.3l.5.3v.4h.3l.4-.3.5.4-.9.9v.8h-.1l-.2.2-.6.5h-.3l-1.4.6-1.3.2-1 3.9v.5l.5.6-.2.5-.6.5.5 1.2-.4 1.4-.5-.2-3.8 2.7h-.4l-.1.6-.8.9-.2 1.2-.3.4h-.8c0 .1-.2.7-.2.7l-.9.4-1 1.9-.2 1.4-.9 1.5-.5 1.5v.6l-1.5-.7-1.2-.3h-.8l-2.3 1.2-1.7.2-.7-.4.3-1v-1l-.4-.9h-1.4l-.4.8-.8.2-1.3-.9-2-2.1h-.3l-.9 1v.4l.2.4-.2.6-2.1 1.3-1.2 1-1.3.3-1.3-1-1.2-.4h-.7l-.9.3-2.4 2.3-.7.3-.9-.4.4-1.5-.3-2.3.2-1.7-.9-1.6-.3-1h-.3v.5l-.4.5.3.2v.3l-.7.1-1 .7-.7-.8-.7-.4h-.9l-2.7 1.5-1.6.3-1.4-1-.9.2Z"/><path id="ID-KU" d="m251 199.9-.4.3-.8-.7-.3-.8v-.4h1l.5.2v1.5Zm-3-3.1 1.4 1-.3.3-1.1-.5h-1.2l-.7-.6v-.3l.6-.2zm3.6-4.7-.5.2-.8-.6v-.7l.4-.5h.3l.8.7v.3l-.3.6Zm1.8-2.2h.3c0 .1.3 1.4.3 1.4l-.7.3-2.6-2 .6-.6h.3l.6.2.5.5zm-24.3 1 .2-1h.2l.5-.6.3.3h.3v-.4l.5-.4v-.9l.3-.1.2.4 1 .2.7.8.4-.6.5-.2.2-.5 1.1.3 1-.2.7.6v.4h.5v-.3h.7v-.4l.3-.4.5.4.2.4h1c0-.1.3-.5.3-.5l.5.5h.5c0 .1.8-.3.8-.3l1.2.5.2-.2h1.5l.8-.3 1.9 1.4.4.6.8.2.6-.2h.2c0 .1-1.1.6-1.1.6l-1-.3v.5c-.1 0 .8.3.8.3l1.7 1.4-1.1.2 1.1.6h1c0 .1.8 1 .8 1v.6c-.1 0 .5.2.5.2v.2l-.8.7h-.7c0 .1-2 .3-2 .3l-1.7-.2-1.2.2-.6.6v.3l.4.6.9.6h1.3l-.2.9 1.1.6v.2c-.1 0-1.5.3-1.5.3l-.2.3h-.6c0 .1-.1.3-.1.3l1.6.4 1.7.8.8 1.3-.2 1.8 1.2.4.4 1.5 1.8 1.8-.4.4h-.8l-.8.6h-.2l-.9-.4-1-1.1-.7.2-1.2-.5-.4-.3-.3-.7-1.6.3-1.7-.2-1.3.8-1.4.5-1.1.7-.7.2-.9-.2-.2-.5-.9-.6h-.3l-.4 1.1-.8 1-.3 2.4-1.6 1.4v1.2c.1 0-.7 1.6-.7 1.6l-1.6 1.9-.4.8-.7.6h-1.5l-1.5.6h-1.3l-.3.2-.2 1-.8.8h-.7c0-.1-.5.5-.5.5l-1.7-.2-.6.6-.7-.2-.6-.9h-.3c0-.1-.5-.2-.5-.2l-.5.3-.3-.8-.5-.6-1-.3-1.1-.9.3-.5v-.7l.5-.3.6-.8v-1.5l.2-.6h.4c0-.1.3 0 .3 0l.3-.4.7-.3-.3-.5.5-.6-.3-.2-.5.2v-.9l-.4-.3.2-1.4h1.2c0-.1.5-.4.5-.4l-.2-.4.2-.4h.4l.6-.5h.4l.4-.6h.9c0-.1.4-.4.4-.4v-.2l-.8-.9-.6.2-.2-.3.3-.5v-.6c-.1 0 .2-.3.2-.3v-.5c.1 0-.3-.4-.3-.4l.6-.5.2-.7 1-.7.2-.5.4.7h.8l.5-.6h.7l.2-1 .5-.4-.5-.6.3-1.8.4-.8h.2l.3.4.3-.4-.4-.6-.4-1.6v-1l.5-1.5-.6-.7.8-.4.4-1.3Z"/><path id="ID-LA" d="M97.3 288.8h.4v.3h.3l.2.3v.3l-.3.4.7.5.3-.8.3.2 1-.2.8.4 1-.6 1.2.2.5-.8-.5-.6v-.5l-.4-.2.2-.5.4-.4-.2-1.7.4-.8.8-.7h.4l1.6-1 .4.4h2.3v-.2l.8-.4h.8c0-.1.6-.7.6-.7l.2-.6.4-.2-.2-.2.3-.3.2-.7h.2v-.3l.3-.2.4.2.4-.4v-.3c.1 0 0-.4 0-.4l.6-.9.3.8.6-.2h.2v.5h1v.6h.3l.2.2v.3h.4v.2h-.2l.5.6-.3.5h.6l-.1.3h.4l.2.6h.5l.4-.2.5.5v1.7c-.1 0 .8 1.8.8 1.8v.8l-.2.5.3.5-.4.8-.2 1.2.5 1.2-.3.3-.2.8v2.3l-.4.9v2.9l-.4 1.4v.8l-.2.7-.7.8v-.6c-.1 0-1.4-.3-1.4-.3v-1l-.4-.4h-.3l-1-.6-.5-.5-.9-1.6h-.2l-.3.2v1.3l-.6-.2-.4.3.3.5h.2l-.3.2.4.6h-.5l-.2.3.2.3h.5l-.3.3h-.4l-2.1-1-1.9-1.2-1-1-1-.2-.6.3-.3.3 1.4 1.8v.3c-.1 0 .6 1.1.6 1.1l.2.9c0 .1-1.6.2-1.6.2l-.3-.3h.2c0-.1-.1-.6-.1-.6l-1.4-1.2-.3-.5-1.3-.7.2-.3-.6-.7-1.9-1.3-.9-1.1v-.7l-1.1-.4v-.3l.3-.4-.4-.6h-.4c0-.1-.9-1-.9-1h-.4v-.4l-.5-.4h-.5l-.7-.4v-.3c.1 0 1.3-.7 1.3-.7v-.3h.7Z"/><path id="ID-MA" d="M376.7 327.2h-1l-.9-.5v-.2c-.1 0 .6-.2.6-.2h.9l.7.4v.3l-.2.3Zm-13-1.8 1.2.4h1.7l.3.3-1.1 1.1-2.5-.9-.4-.8h.9Zm32.8 2.8h-.4v-.1l1-1.1.8-.4 1-1.3 1.8.5-.4.4-2 .8-.7.5v.3l-1 .5Zm-11.5-3.3-.8-.2-1.2-1.5v-.7l.2-.4h1c0-.1 1.6.4 1.6.4l.2.9zm-33.8-4.3h.5l.3.9h-.9l-1.1.4-1.2 1.2-.9.5-3.9-.5-1.5.3-1.4 1.1h-.3c0-.1.4-1.8.4-1.8l1.8-2.2 2.4.7 1.7-.3.8-.7 2.3-.7.2.5.9.6Zm7.5-.2h-.4l-.2-.2.2-1.3h.2c0-.1 1.1.2 1.1.2v.6l-1 .7Zm40.7-1.6-.9-.3v-.3c-.1 0 0-.3 0-.3l2-.2-1.2 1.1Zm7.4-3.3-.7.2-.4.3.4 2.5-.5 1.6-.6.8-1.9 1.4-.6 1-.2 1-.3.2-2.2-.3-.3-1.5 1.2-2v-.3c-.1 0 .5-1.8.5-1.8l1.6-1.3.8-1 .9-1.5.5-.3h.8l.6.2.3.7Zm2.1-1.2.7 1.3-.3.4-.5-.4-.3-.6h-.6c0-.1-.7 0-.7 0l-.4-.2.2-.4h2Zm-36.2 1.2h-.3c0 .1-1-.5-1-.5v-.4c-.1 0 .9-.7.9-.7l.9.5zm69.1-9.5-1.1 2.3h-.5c0-.1.3.8.3.8h-.4c0 .1-.5 1.2-.5 1.2l-.5.3-.4-.3v-.3l.4-.3.5-1.4-.3-.2v-.9c-.1 0 .7-.5.7-.5v-.6l.5-.2.8-.8.5.2v.6Zm-23.5-4.6-.4.2-.8-.4V299c-.1 0-.4-1.1-.4-1.1l.7-.2 1.2 2.2v.7zm21.6-2.8.3 1.4h-.4v.3l.8.4v.2l-.4.2-.5-.2.2.9h-.4l-.4-.3v.3c-.1 0 1.2 1.2 1.2 1.2l-.4 2.1-.4.7-1.3.5.2.6.3.2v.3l-.7.6-.6-.2h-.2c0 .1-.1.5-.1.5v.2l.4-.1v.3l-.4.7-1.3 1.3v.4l-.3.4-1.5.8h-.3l-.2-.6-.2-.2h-.4l-.5-.8.4-1.3v-2c.1 0 .5-1.4.5-1.4l-.4-2.1h.4l-.3-.8v-.7c.1 0 .4-.2.4-.2v.3c.1 0 .9-.2.9-.2l.2.5.5-.4.3-.8-.3-.5.9-1.3-.2-.2-.3.2-.5-.4h-.5l-.3-.4v-.2l.4-.4.9.4.8-.6.4-1.1.5-.3v-1.2l.6-.8h.4c0-.1 1.2 1.4 1.2 1.4l.3.6v.7l.6.7v.3h-.3Zm-19.6 2-1.3 1.5 1-3.4.6-.7 1.4-3.6h.6l.2.4-.9 2.8-.9.7-.7 1-.2.6v.6Zm-49.1-24.8-1.3.3V275l.4-.2h.8l.6.7-.4.4Zm1.1-1.1.5.2.2-.4h.2l.2 1.3h-1.1l-.8-1.2h.3c0-.1.4.1.4.1Zm-3.2 1.2-.4.7-.6.5-1.4.4h-.2l1.3-1.4h-.2l-2.3 1.4h-.5l-.3-.4v-.5l.6-.6.7-.4 1.7-.3.5-.6.5-.2.8.4v1Zm-7.7-2.9-1.2-.4-.4-.4.5-.4h.5l.9 1h-.2Zm1.5-1.2h-1.1l-.4-.3.8-.7h.5l.4.2v.7h-.2Zm-8.6-1.2 1.2.8v.6h-.5v.2c-.1 0 0 .5 0 .5l.5.4.5-.3 1.3.4-.3 2.6-.2.4h-1.2c0 .1-2.6 1.4-2.6 1.4l-1.9.6-3.4-1.4-1.5-1-2.2-2.1-.3-.8v-2.2l.8-.5h.3l.6.7h.4l.8-.7 1.5-.4h3.6c0-.1 1 0 1 0l1.8.8Zm31-2.6 2.5 1 3.5-.2h.4c0 .1 2.4 1.8 2.4 1.8l.5 1.2.2 1.5.3.3h1.3c0 .1.4.5.4.5l.5 1.5v.4l-.4.5v2.1l-2.4-.9-.6-.7-1.8-1-2.9-1-1.6-.8-.4-.5v-.5l-.8-.5-4.1-.4-.2.2v.3l.7.9-.2.4h-.3l-3-.6-1.5-.7h-2l.5-.6v-.4l-.4-.3h-.6l-1.2.7-1.8 1.7-1.6.3-.7-.4-1.1-1.7-.9-.6-.4-1.5h-.4l-.5.5-.4 1-.2 1.4-.3.4h-.3l-.6 1.1-.2.9v-.2c-.1 0-.3-.7-.3-.7l.3-.7v-.8l-.5-.9-.3-.9 1.4-1.1 2.1-2.5h7.5l1.4-.2.6-.5h.2l.3.4v.9l.7.6.9-.2 1.5-.9.3-.6 1.7-.2 2.7 1 .3.4Z"/><path id="ID-MU" d="M344 263.2h-.3l-.6-.5-.4-1.5-.6-.8-.4-1.6.3-.7.4-.4h.4l.5.5-.3 1.6 1.3 2.9-.2.6Zm-7-7.3 2.4.2 1.2-.3h2.5l4 .3-.2.2-.9.4-8.7.7-1.4-.8v-.5l.4-.5h.4zm-5.3-1.2.6.2 1.2-.3 1.9.5.3.6v1.1l-1.8-.1-1.2.2-.6.6-1.6-.5-3.1 1.2h-1.9c0 .1-.9-1.3-.9-1.3v-.7l.4-1.4.3-.4 1.5-.3h1.2l3.5.7Zm32.4-3 2.9 1.8.2.6-.2.5-.9.3-3.9-.3-.7.4-1.1.2-1.2-.6-.6-.6.5-2.1.2-.2.2.2 1.9-1.2 1 .2 1.7.9Zm-2.9-1.9h-1.3c0 .1-.4-.3-.4-.3l1-.7 1.2.5-.4.5Zm-3.3-5.1-.4.2-1.3-.3v-.4l.5-1.3h.6l.7 1.9Zm2.8-5.2 1.2 1.6-.2.6-.7.9.5 1 .3.2 1.2-.4.7.3.5.7v.3l-.9.7-.7.2-.9-.4-.8-.9-1.4.6h-.3l-.6-2.2-1.1-1.2v-.6c-.1 0 .2-1.3.2-1.3h.6c0-.1.5.3.5.3l.8-.2.6-.5h.4Zm-4.3 2.3h-.7l-.1-.3v-2.3l.4-.3h1c0-.1.3.2.3.2l.2 1.1-.3 1.3zm7.6-25.7h.8c0 .1.6.7.6.7l.4 2.5-.5 1.9-.9 1.6-2.8 2-.2.4v.7l.3.5 1.5.9h.6l.8-.7v-1.5c.1 0 .6-.9.6-.9l.7-.5h1.1l.4-.2.3-.7v-.3l-.6-.2v-.5c-.1 0 .5-1 .5-1l2.1-1.4.7-.3 2.1-.5 1.1.2-.3 5-.4.4-2.4 1.4-1.6.5-1 .9v.3l.3.5 1.2.9 2.6 1h1l.2 1.7v.6c-.1 0 .3.3.3.3l1.2.3.5.4.3.7-1-.6-3-.7-1-.8h-1.9c0 .1-.7 0-.7 0l-.6-.5-1-.2H365c0-.1-.4.1-.4.1l-.5 1.7.3.2.2 1.5-.4.7v.9l1.7 4.4 2 3.3 2.1 2.1-1.7-.2-.2-.2v-.2l-1-.8-1.3-.7-1.8-3.5-1.5-.9-.6-.9.4-3.1v-1.4c-.1 0-.5-1.6-.5-1.6l-.9-.8-.5-2.1.2-1.3.5-.5.3-.7v-.3l-1.2-.4v-.2c-.1 0 0-.6 0-.6l-.3-1-.9.2v-1.9l1.4-2.5v-.9l.5-2.4 1.4-2 2.4-2.6.4-.4h1.2l-.2.7-1 1.6-1 .8v1l.2.2Zm6.9-2.6h-1.2l-1.2.4-.3-.9v-2.3c-.1 0 1.1-2 1.1-2l1-.9 1.4-.7 1.4 1.7v.5l-.7 2.4-.6 1-.8.8Z"/><path id="ID-NB" d="M268.8 328.7v.2l.5-.2.2.3-.2.3h-.2c0-.1 0 0 0 0h-.2v-.7h.1Zm-28.2-.4v.9c-.1 0-.5.3-.5.3l-.3 1.1-1.7 2.5v.4l.9.3-.3.4-1.3.2.3-.9h-.5c0 .1-.3.4-.3.4v1h-.3l-.1-.2-.7-.3h-1.4v-.4h-.2l-.7.2-.6-.2-.3.3-.7-.7h-.9l-.2-.3v-.4c-.1 0 .1-.5.1-.5h.2v.2l.7.3.4-.4h.6c0 .1.5-.3.5-.3v-2l-.3-.3v-.5c-.1 0 .2-.4.2-.4l.5-.3v-.3h.3l.7-.4.9-.9 1.1-.4h.7l2.3.8 1 .9Zm9.6-2.3h.7l.3.2-.8.6-1 1.8-.6-.4.4-.8-.3-.2v-.8l.9-.5h.4Zm16.3 1.1h-.4l-.3-.3v-.6l.5-.6h.5l.3.6-.2.4-.4.3Zm-12.3-1.7h1.3l.8.3.2 1.2.5.4.2.6.8.4.9-.3.2-.4.7-.6 2.2.5.4.9-.3 1.7h.4c0-.1.1-.4.1-.4v-1l.2-.5.9-.7 2.1.4v.7l.5.9v.6l-.3.2v.4l.2.4v.5l.4.1.6-.2-.2-.4h.4l.3-.4.2.3-.3.7v.7l-.3.3-1-.2h-.8c0 .1-.7-.5-.7-.5l-.6.4-1-.2-.6.6h.3c0 .1 1.8.1 1.8.1l.5.3v.3c.1 0-.1.2-.1.2h-.9c0 .1-1.3-.4-1.3-.4l-2.9 1-.8-.3-.2-.5v-.4l.5-.5v-.7c.1 0-.3-.6-.3-.6v.7h-.5l-.2.4-.4.2v.3h-.4l-.9.9-.6.2-.5-.4-.8.2-.2.4-1.2.6h-.4c0-.1-.1-.5-.1-.5l-.5.3h-.7c0-.1-1.8.8-1.8.8l-1.5.5h-.8l-1.1-.3h-.6l-.6.7-1.1.3-.6-.2-.2-.3h-.6l-1.7-.8-.2-.3.2-1.1.4-.2v-.3h.4l-.5-1h.2c0-.1-.3-.8-.3-.8l.4-.9.4-.2v-.5c-.1 0 .2.2.2.2l1-.2 2.2-1.7 2.8 1.1.4-.6h1.4c0-.1.7.4.7.4h.4l.2.6-.5.4.4.3h.6l-.2-.9h.3l.2.5h.4v.3h-.5l.2.3v.4l.3 1.1 1-.2 1.1.4.9-.8.9-.2.7.3 1-.4v-.5c-.1 0-.4-.3-.4-.3h-.4l-1.4-1.3H255c0 .1-1.9-1.1-1.9-1.1l-1.1-1.2v-.2c-.1 0 0-.6 0-.6l.7-.5h.4l1.1-.5.3.3Z"/><path id="ID-NT" d="M314.4 352.1h.5l-1 1 .7.2v.5c.1 0-.2.4-.2.4h-.6l-1 .6-.3 1h-.4l-.6-.1-.5.5h-1.1l-.4.3.2.2-.2.3-.7-.3h-.4v.3l-.3-.2v-.8l-.3-.6v-.2l1.4-.5h.5l.7-.1.9-.9.6-.2v-.4h.4v-.3l.5-.6 1.1-.5v-.5c.1 0 .5.4.5.4l-.2.3Zm-15.9-.7.6.2v.8c-.1 0-1.5 1-1.5 1h-1.3l-.7-.5 1.7-.9v-.5c.1 0 .4-.2.4-.2h.4c0-.1.5 0 .5 0Zm16.8-3.1h.3v.2l-.5.2-.3.4v-.2h-.4l.3.6v.4h-.2l.2.2v.3h-.3l-.2-.3-.5.4-.2-.8.6-.5.4-.9.6-.2.2.5Zm-38.2-8.6.8 1h1.1l.3.7v.8l.3.3h.4l.4.3 1.6-.5.3.6 1.1.6.9 2 1.3.6.3.4.2.7v.5c-.1 0-.9.4-.9.4l-.4.6-.6.4-.7.2h-1l-.6.3-.2.4-.7-.3-.4-.4h-1.7l-.7-.3-1.2-1.1h-.3l-.1-.8-.7-.8-.8-.3v-.3h-1l-1-.8-.3-.7h-.4c0 .1-.5-.2-.5-.2l-1.3-.3-.6.3-.2.3-.6-.3h-.2l-.1-.2h-1.4l-1.6-.7-1.3-1.5.8-1 2.1-.9.3.2 1-.4.5.2 1.3-.2.8.2.5-.3h.7l.5.3 1.2.3 1.6-1.4.9 1.2Zm54.4-4.8h.1l-.2.8.5.4 1.1-.4.4-.6.8.7v1.6h-.5l-.4.3-.5-.4h-.7l-.2.4v.9c.1 0 .8.4.8.4l.4 1.5-1.1 1v1c-.1 0-.4.4-.4.4l-1 .6-1.3 1.8-2.2 1.4-.4.9-.9.7-.7.2h-2.5c0-.1-1.4 1.1-1.4 1.1h-.6l-1.7.9h-1.1c0 .1-.5 0-.5 0l-.5.2-.8-.5-.9.3.4-1v-.4l.3-.1v-.4l2.4-.9.3-.6-.8-.4h-.6l-.4.3-.3-.2v-1.2l.9-.6v-.7l-.2-.4.4-.4v-1.2c-.1 0 .7-.8.7-.8l.5-.2.3-.5.8-.4.2-.4h.3c0-.1.6-1 .6-1h.6l.6.7h.3l.2.2 1-.6.5.5.2.4v.6l.7-.2v-.3c.1 0 0-.3 0-.3l.4-.4v-.4l.6-.3.3-.4v-.4l.2-1h.8l.6-.2 1-.8v-.4h.6l.6-.4 1.6-.6Zm-56.9-1.5h-.3l.2-.4h.2v.4Zm-1.5-.1h-.4c0-.1.3-.2.3-.2v.2Zm-.6-1.8h-.4v.2h-.2l.7-.5v.3Zm.4-.5h.2l.1.8.4-.2-.2-.4h.3l.1-.2h.7v.5h-.3l-.2.4h-.3c0-.1-.1 0-.1 0v.2l.4.3-.4.6h-.2l-.2-.4-.5.2v-.4c-.1 0 0-.6 0-.6h.4v-.3h-.2l.1-.2-.3-.5h.3Zm30.3-2 .5.2-.4.6-.6-.4v-.3h.4Zm-32.2.3v.4c.1 0 .8.1.8.1h.2v.5l-.2-.2c0 .1.2.8.2.8h-.6v-.2h-.2l-.2.3h-.2l.1.2h.3l-.2.3h-.2l-.2.3.2.3v.2l.2.1-.3.2-.4-.3h-.3c0 .1.4-.8.4-.8l-.4-.3.2-.3-.2-.2.7-.7-.2-.2.3-.2-.2-.5h.3v-.2l.2.3Zm40.8-.3v.2l-.2.2-.9.3-.5-.2-.5.4-.5.9h-.6c0 .1-.2-.2-.2-.2l.2-.7.7-.4.3-.6h.5c0 .1 1.6 0 1.6 0Zm-15.9-1.4.3.3v.2h-.8l.2-.5h.4Zm16.5-.7h.4c0-.1 1 .3 1 .3l-.3.4v.7l-.1.4h-1.3l-1.9.2v-.5l.4-.7 1.2-.8h.4l.3-.1Zm11.6 1.3-.5.7v.7l-1 .8h-.8l.1-.5-.4-.8h-.5l-.4.4h-.4c0-.1.5-1.2.5-1.2l1-.6.3.2v.4h.4l.5-.7.4-.2.5-.8.3-.2h.4l.2.4-.3.5v.6l-.4.4Zm-4.6-1.6h.6l.3.5-.9.4h-.4c0-.1-.5 0-.5 0l-1 1.5-.6-.2-.6.5v.2l.2.6-.3.4h-.4l-.3-.5-1 .7-1-.6-.3.2h-.7l-.2-.2v-.3h.3l.8-.7.3-.5 1.5-.7-.5-.5h-.9l.4-.4h.3c0-.1.6 0 .6 0l.3-.3h.8l-.7 1.2.6.2.5-.4-.2-.6h.3v.3l.4-.3-.4-.7h.4l.1.3h.5v-.3l1-.6.6.4Zm7.5-1h.9l-.1.7h.2c0 .1.5-.2.5-.2l1.1-.2 1.8.2.5-.2h1.5l.4.9v1.1l-.8.4H331l-1 .5h-1.6l-1.3.5-.5-.3-.8.5v-.2h-.7l-.2-.5.7-1.2 1.5-.8h-.5l-1 .5v-.6l.6-.8.2-.2h.5Zm-17.6-.2.5.3v.6c-.1 0 .6 1.3.6 1.3l-.5.4-.7-.2-.4.5v.7l-1.1-.2v.6l.6.6v.6c-.1 0-1.2.2-1.2.2v.3l-.7-.1-1.2.5-.4.5-1.3.4h-2.4l-.2-.3h-.7l-.9.7-1.2.4h-.6l-.9.5-1.2-.4-.2.6h-.4l.2-.7-.7-.4h-.5l-1.6-.1-.3.4v.5l-.2.3h-.4c0 .1-.5-.1-.5-.1h-1.1l-1.9.8-.9-.3-.6-.5-.3-.6h-.5c0 .1-.2.6-.2.6h-.3l-1.1-.2-.6-.6H281l-.8.4h-.4l-.7-.2-.7-.6-1.4.4h-.8l-.4.5h-.3v-.6h-.5l-.4-.5v-2.1l.8-.8v-.4l-.2-.5h.3v.3h.3c0 .1.7-.3.7-.3l.3.3.2-.2v-.2c-.1 0 0-.4 0-.4h.5l.4.3v.2h.1v-.9c.1 0 .5.2.5.2l.5-.7.9-.3h1c0 .1.5 0 .5 0l.2-.4.5.6.5-.2.8.2v-.4l.5.2.5.6h.3l.3.2h2.7v.3h.3l.1.5h.5l2.3.6h.3c0 .1.5.9.5.9l.8.4.5-.3.5.6.3-.4h.4c0-.1-.2-.5-.2-.5l.5.2v-.3c-.1 0 0-.7 0-.7l.7.4.6-.2.7.2.5-.3.7.2.5-.6v.3l.6-.4h.1l-.1 1h.6l.2.2.2-.2.6.3.8.8.7.2.7-.3h1.2l.5-.7v-.2l-.4-.3v-.2c.1 0 .9-.2.9-.2l.4-.4v-.4h.8l.8-.3h.4l.5-.6.9-.2.2-.7.3-.2-.4-.2-1 .2-.3.4h-.6c0-.1.6-.9.6-.9v-.5h.5c0-.1.4-.5.4-.5l.7.5Z"/><path id="ID-PA" d="m485.9 328.8-3.4-.4-.4-.5 1.8-1.7 1.2-.3 1 2.3-.3.5Zm-3.1-1.7-1.7 1.4-1.7.5-1-.4-3.8-.3-1.8.4-.3.2h-.3l-.2-.2 1.1-3 2-3.8 1.6-2.3 1.9-1.3 1.6-.6 3.1-.6h1.4l.7.4 1.1 1.6.8.2.4.6-.6 1.7-.8 1.2-.3 1.7-1.1 1.1-1.3.3-.7 1Zm.3-17 .4.3.8.2.5.8-.6.4-.5-.2-.7-1v-.3zm-25.9-55.5 1.8.4 3.8.3 1.1.5-.3.3-2.1.4-1.6.5-3.6-.3-2.6-.6-1.2-.7-1.6-.5-2.7-.3-.7-.8.6-.2.7.2 7.1.5 1.2.3Zm28.5 3h.8l1.3.4 8.1 4 1.1.2 1.6-.2.8-.4h.6l.6.9 1.2.6h.6v-.3h1.1l1.7.3 1 .4.3.4-.5.9.3.2 1.1-.3h2v41.1h-.4l-.4 1.3.2.5-.9 1.5v1.7l.4.8.5.5h.6v24.7l-1.8-.9-.9-1.2-1.6-1.5-1.2-1.9-5-4-.7-.8v-.6l.9-.7 1-2.1-1 .5-.2 1.4-1.4.7h-3.3c0 .1-1 .7-1 .7l-1.8.3h-.4l-.6-.4-.6-.9-1.5.6-1.2.9-.4.8h-.3l-.8-1.8.7-1v-1.4l1-.5v-1.2c.1 0 .7-1.4.7-1.4l.4-.4v-.3l-1.8-1.1-.8-1.4-2.1-1.2v-.3h2.9l1.3.5h1.4c0-.1.5-1 .5-1l-.7.4h-1.3c0 .1-2.2-.5-2.2-.5l-1.1-.5-1.8-1.6-.2-.6.4-.3 1.6.2.7-.5h1.2c0-.1.8.1.8.1l1.4 1.1h.9l-1.1-.4-1.1-.9-1.2-.3-2.2-1.2-.2-.7h.4c0-.1-2.5-2.6-2.5-2.6l-.8-1.4-.5-2.2-.8-1.4v-1.3l-.9-.3-.5-.4.3-.4 1.8-.9h-.4c0-.1-1 0-1 0l-.6.4h-1c0 .1-.2-1-.2-1v-2.4c.1 0-.2.6-.2.6l-1-.4-3.2-2.2-1-.4.2-.4h-.8l-1.2-.6-1.6-1.3-.6.3-2.3-.6-2-.3-5.1-2.7h-1.1l-2.5-1-.7-.9-.5-.2h-2.3l-3.3-.7-2.1.3-4-2 1-1.5.7-.5 1.1-1.9 1.5-1.8-5.4-2-4.1-1.2-2.1-.9.7-1.6.6-.8 1-.6.2-1.2 1-.5 1.6-1.5.4 1.6.3.2.9-.4.3-.6h.3v1.2l-.3.3v.9c-.1 0 .6 1.4.6 1.4l1.3 1 1.4.4 2.4.3 1.4-.3 1-.7v-.6c.1 0 .6-.5.6-.5l1.2-.5.6-.5-.3-.4.3-.3 1.6-.7.3-.5.2-1.7.8-.9 1.7-.7.8-.6 1-2.3v-.9l.2-.3.6-.4h1.4l.2.3.6.2h1.7l2.6-1.3.8-.3h1.3l.5-.6-.4-1.2-.4-.2-.6-.7v-.8c.1 0 2.6-1 2.6-1l2.9-1.7 2.7-.9.9.2 1.4 1.3 3.9 1.4 2.7.6 1 .6.5.7.8.6Zm-43.7-9.1h-.6l-.7-1.1v-.6c.1 0 .4-.4.4-.4h.5l.5.2.7.7v.7l-.4.4h-.4Zm6.2-5.1 2.1.2 1 .7.6-.5h.3l2.4 1.8 1.4 2.1h.8c0-.1 1.3.6 1.3.6l-1.3.9-1.2.3h-.7l-.9-.5h-1.5c0 .1-.6-.4-.6-.4l-.5-2v-.6l-.3-.8h-.3l-1.2.5-1.1-1h-.4v.2h-.3c0-.1-.6-.7-.6-.7l-.4-.9.2-.3 1 .4Z"/><path id="ID-PB" d="m427.1 282.8.5.6-3.2-1.4v-.7c-.1 0 2.7 1.6 2.7 1.6Zm-37.4-24.1h-.8l-2.3-.7-1.9-1-.2-.3.4-.3 3.2-1.3 3.5-.7.9 1.6v1.6l-.6.4-2.1.6Zm-2.9-9.4-1.1.4-1-.3.3-.4 1.2-.3 1 .3-.3.4Zm10.7-3.5.4.5 1.1-.3.4.7v1.2l-.4 1.7-.5 1-.4.2-1-.2-1.3-1.1-.7-1.3.2-.3-.2-.5-.6-.7.3-.3 2.6-.8Zm.2-1.1-.3.5-1 .4-1.4.3h-2.1l-.9.2 1-1h2.7l.9-.3.4-.4h.5l.3.2Zm-3.4-2.8-1.6-.2v-.6c-.1 0 1.7-.6 1.7-.6l.5.2.4.5-.3.5-.7.3Zm32.8 2.4h1.9v-.3h2.5l1.4 1.2-.9 1.4 1.1 2 .9.8.8 1.5-.5.6-.2 1.6-1.5 1.3.4 2.3.2.6v1.3c-.1 0 .2 2.9.2 2.9l.7 1.2h.3c0 .1.7.8.7.8l1.6 3.9h.4l.3-.3-.6-2.3v-1.1c.1 0 .7-.6.7-.6l1.1.6.2.6v2.8l-1.6 1.5-1 .5-.2 1.2-1 .6-.6.8-.7 1.6 2.1.9 4.1 1.2 5.4 2-1.5 1.8-1.1 1.9-.7.5-1 1.5-.7-.3-1.7-1.4.4-1.9h.3c0-.1 1.6 0 1.6 0l.7.3.6-.4-3.3-.3-.6.5-.2.6-.8.2-1-1.2-.7-.2-.3 1-.4.2-1.3-.8-.2-.5.3-.7-.6-.8h-.2l-1.1.5-1.1-.6-1-1.8-.4.3v.6h-.2l-.8-.5-.8-1.7.7-.7V272c-.1 0 .2-.9.2-.9l1.6-1.2v-.8l-.4-.5-1.9 1.9-.2 3-1.1.5.5.8v.4l-2.1 1.8v.8l.5.3v.4c.1 0-2.3 2.3-2.3 2.3l-2.1-.2-.6.6-.9-.2-1.1-1.8h.1c0-.1-.1-.5-.1-.5l-.7-1.9.4-.9 1.2-.4.4-.4-.5-.9h-.4l-.3-.2-.2-.9.2-.7-.6-.4-.4.2v.7c-.1 0-.8-.2-.8-.2l-.7-1v-.5l-.4-.8-1-.8-2.1-1.2h-.9l-1.2.3-1.4-2 2-1h2c0-.1 2.8.3 2.8.3l1.7 1.1 1.3-1 2-2.6 1-.6 1.5-.3.7.3.8.8 1.3.5 1.1-.3h.5l.3.5v1.4l.2-.2v-2h.5l.8 1.5v-1.3l-.1-.5-.2-.2.7-.6.8-.4.5-.7v-1.3l-.4.7-.9.3-.6-.5 1.7-.9v-.7c-.1 0-.8.1-.8.1l-2.5 1.4h-2.3l-1.6-.4h-1.1c0 .1-2.6 1-2.6 1h-.7l-.9-.4-1.4.7-.6-.3-.3-.6-.5-.4-1.3.3-.7.4h-1l-1.6-1.2-1.3-.7-1.2-2.3v-.7l.4-.5-.2-.6-.8-.7-1.8-.7-.2-.4-1.3-.6-3.5-1.2.6.6v.2l-.5.4-.9.3-.3-.5-.7-.3h-.7l-.9-.5 1.1-1.8 1.3-.3.8-1.3.4-2-.3-1 2.9-1 .7.3 3.3-.8.5-.8 2.1-1.7 1.8-.9 1.8-.4 3.1.2 4.4 1.9h.6l2.2 2 2.2.4Zm-29.8-8.1 1.8.5h1.1c0 .1 1.8 1.1 1.8 1.1l.2 1.2-.7 1.3-1-.5h-.7l-1.4.3-1.1-1.2-.9-.4-1.1-1.5h-.8l.1.6 1.1 1.2 2.1.8.3.5-.3.5-.7.4h-1c0 .1-.6-.3-.6-.3l-.3-1.3-1 .2-.5.5-.3-1.2-.9.2h-.8l-1.6-.7h.2c0-.1 1.6.1 1.6.1l.5-.3-.3-.5h-.7v.4h-.5c0-.1-.2-.5-.2-.5v-.4l4.7-.8.2.2h.5l-.2-.2.4-.2zm-14.7 2.1h-.2l-2.7-2.8.5.2 2.3 1.8.2.4v.3Z"/><path id="ID-RI" d="M90.7 230.4h-.4c0-.1-.2-.6-.2-.6l.3-1.1.7-.4.8.8v.9l-.2.2zm-6.2-5.4 1.5-.2 1.8 1.1 1.3 1.1v.5c.1 0 0 .7 0 .7l-.4.2-.8-.8-.7-.3H85l-1.4.2-.7-.4-.8-.8.3-.5.7-.2v-.5l-.3-.7.2-.9h.8c0 .1.7 1 .7 1v.3c-.1 0 0 .2 0 .2m4.6-.4 1.4 1.6v.3l-.2.2h-.7l-1.6-1.1-2-1h-.8l-.4-.3.6-1.1h.8c0-.1 1.9.6 1.9.6l.9.6Zm-7.1 1.2h-.3l-1-.9-.5-.7-.4-2.2v-1.4h1l2.1 2-.3 1.3.2 1.6-.7.4Zm1.1-5.7v1.8c.1 0 0 .2 0 .2l-2-1.8-2.3-.5-.6-.6-.6-1 .7-.2 1.2.5 3 .6.5.3.2.6Zm-9.9-2.9L72 217l-.5-.5-.6-1.6v-.8l.2-.4.4-.3 2.2-.6.6.3.8 1.1v.6l-.5.6v1.2c-.1 0-1 .6-1 .6h-.5Zm-10.8-4.5h.5l1.1.4.3-.2-.7-.5-.2-.4v-.8l.7-.4 1.5-.2 1.6.2v.3l.1.5 2.2 1.5.5.5.2 1.4.9 2 1.5.7 1.6-.2.8.2 2.9 2.4 1.3.7.7 2v1.1c-.1 0 .1.9.1.9l2.4 2.4 1.3.7h3.5l.7.4 1.6 2v.8l-5.6 3-.9-.8h-.6l1.2.9.5.2.8-.7 2.7-.5 2.9-1.6.6-.9 1.4-.5 1.1.4 3.2 2.4.8 3.1-2.3.3-.2.8-1.7 1.2h.3c0 .1.4-.2.4-.2h.8l-.2.3h1c0 .1 1.1.6 1.1.6l.6.8h-1l-1.1.5-.2.7-1.7 1.1-.2 1.4.7.9h-.8l-.5.4-.2-.2-2.3-.4h-1.3l-1.1 1.6-1.3 1-.7 1.1h-.4l-.5.5-.4-.3-1.4-.2-.3-.5h-.8v-.5l-.6-.3-.2-.5-1.2.4-.4-.5-.5.2-1.4-.4-.4.4H77c0-.1-.4 0-.4 0v.4c-.1 0-.6.1-.6.1v.2h-1.1l-1.1-.4v-.2l-.6-.7-1-.5-1.1-.8v-.4l-.6-.3v-.3l-1-.4-.7-.5v-.3l-1.4-.6-.5-1v-.7c.1 0-.4-.4-.4-.4h-.8c0 .1-.1.6-.1.6l-.7-.3-.2-.6-.6-.5-.4-1.9.3-.5.3.3.4-.7v-.5l-.2-.6.2-.9-.2-.6-.3-.2h-.4c0 .1-.9 1-.9 1h-.7l-1.8-.5-.5-1.1-.2-.2h-.2l-.8.2v-1l-.9-1.7v-.6l.6-.8-.3-.5-.7-.3-.6-.7h.2v-.9h-.3l-.3-.4h.5l.2-.6-.2-.7h-.2v-.4l.8-.2-.6-.8v-1c-.1 0-.8-1-.8-1l.2-.2h1.9v-.3h.7l.2-.4h.5l.5-.5v-.7l.3-.8v-.7h-.5l.2-.4-.2-.5-1.2-.2-.2-.2.8-4.1-.6-1.6v-.9c-.1 0 .1-1.2.1-1.2l.9 2.4.9.9 1.6 1.1Z"/><path id="ID-SA" d="m333.8 220.4-.6.8-.5 1.6-1.6 2.5-.8.4-1.7 1.5-1.2 2.4-1.2 1.5-1.3.7-.8.2-3.3.4-1.9.4-1.4.2-.7-.2h-1.4l.7-1.5V230l-.1-.5-.3-.4-1.3-.2-.8-.6-.4-.3v-.8c-.1 0-.6-.4-.6-.4l-.9-.4v-.5h-.1 1.5l3.4.9.6-.2 2.5.6h1l4.2-2 .8-1.7.6-.3h1.9l.3-.3v-.4l-.8-.2-.2-.3.3-.7.7-.5 1.1.2 1.3-.7v-.3c.1 0-.2-.9-.2-.9l1.7-1.3h.7l1.1.3.4.4v.7l.9.8-.2.5-1 .4Zm3-13.3h-.4l-.2-1 .3-.8.3-.2.4.4-.5.8.3.7h-.1Zm1.9-10.9v.4c-.1 0 .5.8.5.8h.4v.9l-.4.6h-.2v.4l-.3-.6h-.3l-.4-.4h-.2l-.2-.7.3-.7-.3-.3h.2l-1-.6v-.8l.4-.2h.7c0 .1.9 1.3.9 1.3Zm12.5-2-.3-.2-.8-1.8v-.7l.4.2.9 1.2v1.2Zm.5-2.1h-.7l-.1-.9.5-.4.6-1.2v-.4c-.1 0-.9-.3-.9-.3l-.2-.6.3-2 .2-.4h.8c0 .1.5.6.5.6l.6 2.3-.5.7-.8 2.1-.4.4Z"/><path id="ID-SB" d="M60.6 269.8v.9c.1 0-.8.2-.8.2l.9 1.7-.2.3-.4-.5-.4-.2h.1c0-.1-.1-.3-.1-.3l-.5-.2v-1.1l-.4-.5h-.4l-.9-1.2.2-.5-.3-1.4.7-.2.9 1.1.6.3 1.1 1.2v.5Zm-3.5-2.9v.3l-.7.1-.3-.3-.3.4-.3-.2v-.2l-.2-.3.2-1.2-.2-.9-.3-.2.3-.9h.3l.5.7 1.3.9.5.9v.5c-.1 0-.8.4-.8.4m-4.8-7.2.8 1.4.4.2.3.4.2.5v.2c-.1 0-.3-.5-.3-.5h-.4c0 .1-.1-.2-.1-.2h-.5l-.6-.5h-.9l-.8-1.5.2-.3h.3l-.2-.2v-.8l.4-.3h.4l.9.7.2.7Zm-8.7-13.2.2.6-.3-.2.3.8.6.5v.5l.8 1.2v.2l.3.4v.4l.8.9v.4l-.3-.1.3.3.5.2.3 1.1h.4c0-.1.3.3.3.3v.9l-.1.3-.5-.7.3 1-.3.3-.7-.2-.7.3-2.6-1.4-.5-.7v-.2c.1 0-.3-.8-.3-.8l-2.2-3.3v-.3l.7-1.6v-.7l.4-.4h1.3l.9-.5.4.5Zm10.6-20.4.2.2h.4l.2.4 1 .5 1.4.5h-.1l.7.2.3.5-.5.8v.6l.8 1.7v1l.9-.3h.2l.2.3.5 1.1 1.8.5h.7l.9-.8h.4c0-.1.3 0 .3 0l.2.6-.2.9.2.6v.5l-.4.7-.3-.3-.3.5.4 1.9.6.5.2.6.7.3v-.5c.1 0 .9-.1.9-.1l.5.4v.7c-.1 0 .3 1 .3 1l1.3.6v.3l.8.5 1.1.4v.3l.5.3v.4l1.1.8 1 .5.6.7v.2l1.1.4h.7v1.3l.3.3h.3c0-.1-.7 1.1-.7 1.1l-1 .2-.4.4.3 1-.3.4.3.4-.4.7-1.3.8-.8 1.1-.6.2-.2-.2h-.8l-1 .2-.4.2-.4-.5-.2.2-.4-.2v2.3c.1 0 .6.9.6.9l.7.5.2.5.5 2.1-.2.3-.5.6-2.5 1.6-1.5-1.8-.3-1-.5-.7v-.3l.7-.8v-.8l-.3-1.1-2.2-3-.6-1.5-.5-.5.3-.7-.3-.6-.7-.2-.5-.5-.3.2h-.2v-.5h.3l-.8-1v-.2h.2l-.2-.5.2-.4-.7-2.2-2.1-2.2-.9-1.5-1.5-1.2-.3-.6-.7-.4-.2-.9-.6-.8.2-.9-.4-.6-1.8-1.3-1.9-.7-.5-.8h-.5l-.7.2-.8-.3.6-.9 1-.3 1-1.5 1.1-.6.7.3.9-.3.4.7.4.3.5-.3 1 .2.8-.3.4-.5v-.4l-.4-.3v-.7l-.9-.2-.2-.5.2-.4v-1.3l.5-.2Z"/><path id="ID-SG" d="m288.4 266.4 1 .3.9.6.4-.4h.7l.4.8-.2.6.8.5h.8c0 .1 1-.8 1-.8l1-.4 3 1 .4-.2 1.4.2.3.4h.7v.9l.6.5h.4l.3.6h.4v.5l-.6.8v.5c.1 0 1.5.6 1.5.6l.5.7v.3h-.3l-1.6-1.4h-.5l.5.8-.3.8-.8.3v.2l.5.8 2.5 1.5.4.9.3.2h1.4v.2l-.3.2v.6c-.1 0 .3.2.3.2v.2l-.1.3.4.8h1.7v-.3l-.5-.4v-.3c-.1 0 0 0 0 0h.4l.4.3.5 1.7v1.8l-.9.6-1.6-1.3h-.2v.4l1 1v.3l-.4.3-.2-.3-.4.2-.4-.8-.5-.3-1.3.6h-.5l-1.8.4h-.5l-.9.4h-.6c0 .1-.6 1.8-.6 1.8l.2.7.6.7-.8.8h-1.1l-1-.4h-1.3c0-.1-.6 0-.6 0l-.4-.5-1-.4-.9-1.3.2-1.2.5-1.5v-.9l.2-.7.3-.2.4-.9-.2-1.3-.8-.3-1.5-.2-1-1.3h-.3c0-.1-.1-.7-.1-.7h-.7l-.7-.9-2.7-2.4v-.4c-.1 0 0-1.1 0-1.1l1-1.4.4-.2.4-1v-1.5l.3-.6v-1h-.4l-.2-.5v.3h-.5l.2.2c0 .1-.2.1-.2.1l-.3-.7h.3l.5-.5Z"/><path id="ID-SN" d="M287.2 316.3h.7l.7.2-.2.3h-.5l-2-.3-.3-.3.3-.2zm-2.8-2.6.7.4.3-.2v.8l-1.1.1-.4-.3v-.4c-.1 0 0-.8 0-.8l.6.3Zm-2-6.9-.3.6-.2-1.2v-.8c.1 0-.2-1.6-.2-1.6V301l.2-1.3.3-.2.8 2.9zm-7-48.7.3.3 1.2-.9h1.2v.4l.5.2h1.2l.9.4.5-1.8h.2l1.9 2.5.7.7.8.4.5.2h.5v-.2h.9l3.7 1.6 1.1.2.6.4h1l.8.7.9.2.4.6h.3l.4.3.8 1.6-.6.3-.9 1.6-1 .4-1 .9h-.8l-.8-.6.2-.6-.4-.9h-.7l-.4.4-.9-.6-1-.3.3-.3-.5-.7-2.8-.7-2.2 1.1-4.1 2.8.7 1.9 1.2.8.3.6-.2 2.8.4.9.2 1.4-1 2.2v2.1c-.1 0 .4.7.4.7l-.3 2.4.4 1.2.3 2-.3 1.2-.9.8v1.5l-.5 1.8 1.3 2.2.8 3.1-.5-.2-.9-1.1-2.6.9-1.9-.4-.8.7-.2.5-.6.4h-1.2l-.5-.9-1.8-.6-1.2-1.8.3-2.4 1-1.5.6-1.4v-.5l-.3-1.5 1.1-1.9.3-2.6v-1.5l-.3-2.4-1.7-3 .7-1.5-.3-.9-.6-2.5-.5-.4v-.3l.2-.2h.2l.1.2.6-.2.3-.5.4-.2h.7v-.2l-.7-1.2.2-.4-.2-.6V267c.1 0 .3-.5.3-.5l.5.2 1-.3.5-.5v-.5c.1 0 .9-.6.9-.6v-.4c.1 0 0-.7 0-.7l-1.1-.4-.4-1.1-1-.5v-.8l1.2-.8.4-.5h.5v-.8l.7-.3Z"/><path id="ID-SR" d="M272 245.2v1.5l.2 1.5v.2h.3v.3l-.4 1.4h-1c0 .1-.1.4-.1.4h.4c0-.1 0 0 0 0l-.8.3v.2l1 .9 1-.3.9.6-.4.5.2.5.7.6v.4h.2l.3.5-.3.6.3.2h.9l.1 2h-.2c0 .1.2.7.2.7l-.7.3v.8h-.4l-.4.5-1.1.8v.8l.9.5.4 1.1 1 .4.2.7v.4c-.1 0-.9.6-.9.6v.5c-.1 0-.6.5-.6.5l-1 .3-.5-.2-.2.5v1.2c-.1 0 .1.6.1.6l-.2.4.7 1.2v.2h-.7l-.4.2-.3.5-.6.2v-.2h-.4l-.2.2v.3l.5.4.6 2.5-2.2-.7-.8.7h-1.9c0 .1-1.4.9-1.4.9l-1-2.5v-2.9l.6-2-.2-.4h-.6c0-.1-.5.1-.5.1v-1c-.1 0 .4-1.5.4-1.5h.2c0-.1.4.2.4.2h.5l1.1-.7 1.5-1.5-.2-1.8.9-2.9.6-.6.5-.2.4.2.4-1.5-.5-.5-.3-1.1.3-1-.4-2.2.4-.5-.2-1 .5-1 1.1-1 .6-2.2.6-.7Z"/><path id="ID-SS" d="m97.3 288.8-.2-.6h-.9c0-.1.2-.5.2-.5l-.3-.8-.4-.3h-.5l.5-.4-.7-.7.5-.7-.2-.8h-.4c0-.1-.6.1-.6.1l-.6-.6h-1.1l-.8-.7-1.2-.2v-1l-.6-1.3-.4-.2h-1.4l-.6-.5-.4.2h-.5c0-.1-1.5-1.4-1.5-1.4l-.4-.5h-.4c0-.1 1.3-.8 1.3-.8v-.7l.8-.7v-.9l.5.2.6.8.6-.4.4-.6.2-1.4v-.3h-.6l-.5.2v-.6l-.4.2h-.5l-.4-.7-1.6.7-.6-.2-1.1-1v-.3c.1 0 0 0 0 0v-.8l-.1-.5-.4-.4H82c0-.1-.7.1-.7.1l-.7-.4-.4-1.2-.9-.6v-.5l-.6-.3v-.4h-.1.3l.3-.4 1-.3.3-.3v-.5l.4-.2.5.3h.3c0-.1.7.4.7.4h.4c0 .1.5.2.5.2l.6-.3h.3c0 .1.5-.6.5-.6l1.1-.7h.4l.3-.2 1-1.4-.4-.6.4-.5 1.7.4.2-.3.9.4 1-.4v-.5c-.1 0-.5-.4-.5-.4l.8-1.1.5.3v.5l.6.6 1.3 1v-1.9l1.1-.5-.4-.3.2-2.3.7-.6 1.4-.5h1.1l.2-.4.5-.2.9.4h.8c0-.1.7 0 .7 0l1.5-.5h1.3c0-.1.2-.4.2-.4v-.5l.2-.3h.3l.8.3.4.6v.6c.1 0-.5 1-.5 1v.7c.1 0 .6-.8.6-.8h.3l2.1 1.5h.9l.6.8.2 1.3-.7.7h-.2l-.4.3-.7 1.1h.6l.8-.9h.7c0-.1.3.4.3.4h.7l1.3.5.9-.5 1.5.5 3 .2.2.4-.3 1.1.2.9.6.7 1.2.2v.4c.1 0 0 1.3 0 1.3l.4.8.5.4h1.3l.8.4v1.4l.5 1.3-1.3.8-.7.7-1 2.3v1.3l1.1.8.3.6v.5c-.1 0-1.1 1.7-1.1 1.7v1.1c-.1 0-.3.2-.3.2l-.5-.5-.4.3h-.5l-.2-.7h-.4v-.4h-.5l.3-.5-.5-.6h.2v-.2h-.5v-.3l-.2-.2h-.3v-.5l-.9-.1v-.5h-.3l-.6.2-.3-.8-.6.9.2.4v.3c-.1 0-.6.4-.6.4l-.4-.2-.3.2v.3h-.3l-.2.7-.3.3.2.2-.4.2-.2.6-.6.6h-.8c0 .1-.7.5-.7.5v.2l-1 .2h-1.4l-.4-.4-1.6 1h-.4l-.8.7-.4.8.2 1.7-.4.4-.2.5.3.2v.5l.5.6-.5.8-1.2-.2-1 .6-.8-.4-1 .2-.3-.2-.3.8-.7-.5.3-.4v-.3l-.2-.3h-.3v-.3h-.4Z"/><path id="ID-ST" d="M317.1 295.2h-.7l-.4-.8v-.5h.8l.3.3zm-17.9 1.1h-.6l-1.7-2.3.6-2 .5-.4.8.2.9 1.7v2.1l-.2.4h-.3Zm7.7-9.3.5 2.8v.6l-1.5 1.2-.5 1.1.6 1.2-.2.8-.5.8-.6.2-1-.4-1.9-.2v-.6c-.1 0 .4-1.9.4-1.9l.2-.4.7-.6v-.9l-.7-1.5.5-1 1.6-.4.9-.7 1-.5.4.4Zm5.5.7v1.9l-.5-.4v-.7l-.4-.7h-.3c0 .1.1 1.5.1 1.5l-.2.2-.5-.3.2-.8h-.4l-.6 2.1v1.8c-.1 0 .4.4.4.4h.2l1.9 1.4v.2l-.8 1-1 .4-.6-.3-1.4.8v.4h.3v.2c.1 0-.8 1.7-.8 1.7l-.3.2h-1.6l-1-2 1.8-2.8.5-1.4.8-3.5v-1.8c-.1 0 .7-2 .7-2l1.3-.9h.5l-.2.3.2.5.6.4.6.9.2 1.3Zm-1.5-7.5 1.2-.2.7.9v.5l-1.2 1.4h-.9l-1.2-1.7v-.5l.6-.7h.4l.5.2Zm1.4-31.3.3.6-.4.7.5 1h.3l.3-.7.8-1 .5-.2 1.6.8-.3 1.8-.8.8h-.3l-.8-.3-.6-.8-.5.4-.3 1.6-.5.2-.6-.2-.3-.4.9-.8-.5-2.3-1 1-.2.7-.5.8-.8.7h-.6l-.4-1-.5-.4v-.5l.3-1.2.8-1.1.2-.3h.3l.5.3 1.5-.5.4.4.3-.6.4.3Zm-21.7-26.5 1.6-.2.8-.5h.2v.6c-.1 0-.7.1-.7.1l.6 1.1 1 .8h.4c0 .1 3.7-.4 3.7-.4l.7.9.8-.5 1.5.5-1.6.5-.3.4h-.2l-.3.6-.6-.4-.3-.5h-.5l-.5.5-2 .8h-.9l-.3.3h-.9l-.6-.4-.2.3v.6h-.3l-.6-.2-.7.2-.2.2v.7l-.2.1.9 1 1.1.2v.9c.1 0 0 .3 0 .3l-.9-.3-1.1.3-.4.5-1.3-.2-1 .2-2.4-1.1h-2.2c0-.1-1.8.7-1.8.7l-1.1 1.1-1.4 2 .2.2-.3.5v1.4c-.1 0-.5.4-.5.4h-.3v.8l-.3.6v.9l.6 1.8-.3 2 .2.5 2.4 3.1.5.2.7-.4.5.6h.7l.9 1.6-.2 1.3.5.4.7 1.4h.3l.5-.2.2-.4h.3c0-.1.4-.1.4-.1v.5l.5.3h.8c0-.1 1.6 0 1.6 0l.9-1 .7-1.4 1.4-1.8 1-.8.4-.8 1.1-.4v-.6h.5l.4.2-.2.9.2.2.9.4 1.4.2.6.2.8-.6h.5l.8.1.3-.3.2-1.3 1-.4.6.3 1.7-.6 2.4.3 2.8-.2.4-.2v-.2l-1-.3h-1.3c0-.1-.3-.5-.3-.5l.9-.4h2.1c0-.1.7-.6.7-.6h1.7l1 .4 1.1.6.5 1.2v.8l-.6.6-.2 1.2-.5.6-1-.2-.8-.9-.2-.6-.9-.2-2.8.4-.6 1.4-.8.9-.6 1.1-.8.6-2 2.3-2.4 1.3-1.7.2-.6.4-1.3.2-.4.3-.6 1.5-.9.7h-1.4l-1-1.1-1.2-.5-.3.2v.6c-.1 0 .4 1.6.4 1.6l.2-.2h.7l1.6 2 .5.2h.6c0-.1.5 0 .5 0l1.4 1.4 1.5 2.5.5 1.6 3.2 2.4v.4l-.5.9 1.2 1.1h.5l.6.4-.7.8-.6-.2-.2.2v-.4h-.5l-.3-.7h-.4l-.6-.4v-.8l-.7-.1-.3-.4-1.4-.2-.4.2-3-1 .9-1.6.6-.3-.8-1.6-.4-.3h-.3l-.4-.6-.9-.2-.8-.6h-1l-.6-.4-1.1-.2-3.7-1.5h-.9v.2h-.6l-.5-.2-.8-.4-.7-.7-1.9-2.5h-.2l-.5 1.9-.9-.4h-1.2l-.5-.2v-.4H277l-1.2.9-.3-.3-.2-.6h.2c0-.1-.1-2.1-.1-2.1h-.9l-.3-.2.3-.6-.3-.5h-.2v-.5l-.7-.6-.2-.5.4-.5-.9-.6-1 .3-1-.9v-.2l.8-.3v-.2l-.4.1v-.2c.1 0 1.1-.1 1.1-.1l.4-1.4v-.3h-.3v-.2l-.3-1.5v-1.5l1.2-1v-.6l.7-.4 1.1 2.4.3-.3v-1.5c-.1 0-.7-.7-.7-.7l-.5-1.8v-1.6l.7-1.5-.2-.8-.9.3h-.2l-.5-.4-.6-1.2h.7v-.2l.6.3.3.3v.3l.4.6h.5c0 .1.4-.4.4-.4l.2-.6v-1l-1.2-1.5.3-.2 1.1.2v-.8c-.1 0-.5-.6-.5-.6l.6-1.4 1.4-.6v-.5l-.1-1.1v-.6c.1 0 .6-.4.6-.4h.5l1.1-.6.3-1.7.4-.3h.6v1.4l.9.6 1.7.3.4-1.2.4-.7.4-.5.7-.2.5-.6.3-1.5v-.9c-.1 0 0-.5 0-.5l1.4-.2 1.6.2 1.7 1Z"/><path id="ID-SU" d="M38 238.7h.3l.5.6.4.9-.2.2v.9l-.2.3.2.6h-.4v-.4h-.5v.7l-.6-.5-.9-.3.4-.2h.2c0 .1.1-.4.1-.4h.2v-1.4l.6-.4v-.3c.1 0-.1-.4-.1-.4Zm-.4-2.7c0 .1.2 0 .2 0v.3l.7.8v1.1c.1 0 1 .8 1 .8v.6l-.3.2v.5l-.2-.8-1.7-2.4-.2-.7-.6-.3.6-.3h.4Zm2.5-1.9h1l.2.2.8-.2.7.6v.4l-.8-.1-.3.3h-1.1l-1.4-.4v-.4l.4-.3h.5ZM28 220.3l1.8 2.6 1.1.4 1.4 1.2.3.8-.4 1v2.6c-.1 0-.9 1-.9 1l-1.2-.3-1-2.6-1.3-1.4-.9-.2-1.8-3.3-1.5-1.5.5-.2h1l.9-.8h.7c0-.1 1 .2 1 .2l.5.5Zm10.8-2.6h.4l.2-.2.5.6h-1.3l-.5-.1v-.3c-.1 0 .2-.4.2-.4l.4.2v.4Zm-22.9-7.5-1.3-.2-.2-.6-2.6-1.7-2.7-.8-1.3-1.2v-.6l1-1.3 1 .2 1.3 1.6 1.2.3 1.2 1.3 1.5 1 .9.4.6 1.5-.6.3Zm19.1 2.1.4-1.8-.3-1-.5-.2v-.5l-.2-.4v-.6c-.1 0 0-.9 0-.9h.4c0-.1-.4-1-.4-1l.2-.6v-.4h-.7l-.4-.7-.6-.2-.3-1.8h.5v-.7l-.4-.4v-.5l-.8-.5 1.5-.4.2-.5-.2-.5h-.2l-.4-.2-.2-.6.2-.3-.4-.3v-.6c-.1 0-.6-.2-.6-.2v-.5l-.7-1.2 1.2-1.2v-.9c-.1 0 .3.2.3.2v-.4l.8-.4.3-1.7.3-.4v-.3l.2-.2v-.7h.5l.2-.3h.5c0-.1.8-.1.8-.1v1.7l.6.7h.8l1.7.8.5.8 1.1.3.2.4v.9l1.5.9 1.4.5 1.1.6 2.5 1.6.8.7.8.3.6.4.7 1 2.4 1.1 2.4 2.2v1.6c.1 0-.3.9-.3.9v.3l.8.8-.2.2h.3l-.2-.6.2-.3-.6-.3.6-.4h.3l.5.5v.9l.4 1.1-.2-1.5.6-.6h.4l1.2 1.7v.4c.1 0-.1.8-.1.8v1.3l.6 1.6-.8 4.1.2.2 1.2.2.2.5-.2.5h.4v.7l-.3.8v.7l-.5.5h-.5l-.2.4h-.7v.2h-1.9c0 .1-.2.3-.2.3l.7 1v1c.1 0 .7.8.7.8l-.8.2v.3l.2.1.2.7-.2.6h-.5v.2l.3.3h.3v.7H57c0 .1.7.9.7.9l-2.4-1-.2-.5h-.4l-.4-.2-.4.2v1.3l-.1.4.2.5.8.2v.7l.5.3v.4l-.4.5-.8.3-1-.2-.5.3-.4-.3-.4-.7-.9.3-.7-.3-1.1.6-1 1.5-1 .3-.6.9h-.1l-.2-.2h.2v-.7l-.5-.3.3-.7-.4-1.9-2.9-8-.9-1.9-.5-.7v-.2c.1 0 .4.3.4.3h.2l.5-.9v-.5l-1.1-1.3-.3.2h.3l.1.5-.7-.3-1.7-2.1-4.1-2.4Z"/><path id="ID-YO" d="M175.4 326.5h-1.3l-3.7-1.4-.4-.5-1.3-.4-2.4-1.1h.4l.2-.8.8-.8v-1h1.4l.3.6.4-.5 1.5-1.2.5 2.5.5.3h.4l.1.1.9-.2v.2c.1 0 .5-.2.5-.2l.4.4.2-.2h.2c0 .1-.4 2.3-.4 2.3l.4 1v.5l.1.1.3-.2-.2.4h.2v.3Z"/><path id="TL" d="m326.4 337.3-.3 1v.4l-.2.4-.6.3v.4l-.3.4v.3c.1 0 0 .3 0 .3l-.8.2v-1l-.5-.5-1 .6-.2-.2h-.3l-.6-.7 1.2-.4.4-.4 3.3-.9Zm30.7-7.7-2.6 2.3-2.5.8-1.5.2-.8.4-1.2 1.6-3.6.4-2.3 1.5-1.8.2-4.3 1.4-.7.4-1.3 1.3h-.9c0 .1-.4.4-.4.4l-.4-1.5-.6-.4v-.9c-.1 0 0-.4 0-.4h.7l.5.3.4-.3h.4v-1.6l-.8-.7-.4.6-1.1.4-.5-.4.2-.7h-.1l1.7-2.3.2-.9.4-.5 3.1-.7 3.1-.5 1.5-.5h1l1.5.5 1.7-.3 1.4-.8h.6l1.7.6 2.3-.7 2.6-1.1h2.1l1.2.8v.4l-.5.5Z"/><path id="MY-12" d="M248.4 162.9h-.9c0-.1-.2-.3-.2-.3l1.1-.4v-.3h-.4v-.2l.7-.3.5.6v.3l-.9.6Zm-7.2.5h.9c0-.1 2.1-2.7 2.1-2.7l-.2-1.2.4-.5.8-.2h.4c0 .1.8.6.8.6v2l.4 1.4 2 1.1 2 .3 1 1.4-.2 1.4h-.9c0 .1-.5.7-.5.7l.7 1.1v1.2c.1 0-.4.5-.4.5l-1.4.5 3.1-.2 1.2-.4 1.3-1.2.5.5.8 1.7-.5.6h-1.7l-.3.1.5 1.2h1.9l.3-1.1.2-.2.9-.3 1.3.2 2.3 1.3 1.3 1.1 2.7 1.8 1.5.3 1.3-.4.5.4.4.6v1.3l-.6.8-1.7.9-1.7.5-2.3.9-1.7-.2-1.1-.4-.4-.3h-.7l-1.6.8-.7.8v.4l1.6 1.9 1.5 1 .3-.2.5.2-.2.6.5.4.4-.3h.6l.6 1-1.1 1h-1.6l-2.4.5-2.1.9-1-.2-.5-.5-1.9-1-.7.2.2 1-.7 1.1h-.2c0-.1-.6 0-.6 0l-.8-.2-.4-.6-1.9-1.4-.8.4h-1.5l-.2.2-1.2-.5-.8.4h-.5c0-.1-.5-.6-.5-.6l-.3.4h-1c0 .1-.2-.3-.2-.3l-.5-.4-.3.4v.4h-.5v.3h-.5v-.4c-.1 0-.9-.6-.9-.6l-1 .2-1.1-.3-.2.5-.5.2-.4.6-.7-.8-1-.2-.2-.4h-.3v1.1l-.5.4v.4h-.3l-.3-.3-.5.6h-.2l-.2 1-.6-.3-.2-.5.3-.7v-3.6l-.7-4.9-1.1-.2.9-.5.2-1.2-.2-.3-.8-.2-1.4-1 .2-1 1.6-1.3h2.6l.6-.2.3-.3.5-.9.3-1.1 1.5-1v-.7l.4-.9.2-1.7 2.4-2.6 1.9-1.4v-.6l1.6-1.7v-1.6c.1 0 .8-1.3.8-1.3l.6-.6.8.8.2 1.6v.5l-.9 1.3v.7Zm5.6-8.1v.9l-.4.7h-1.1c0 .1-.9.8-.9.8l-.2-.7.2-1.3.8-.6.9-.2h.5zm-4.5 1.1-.2.4.2-1 1.4-.9.2 1z"/><path id="MY-13" d="m181.8 209.9-.5.2-.7-1V206c-.1 0 0-.4 0-.4h.3c0-.1.6.8.6.8v2.2zm45-29.2 1.1.2.7 4.9v3.6l-.3.7.2.5.6.3-.4 1.4-.8.4.6.7-.4 1.5v1l.4 1.6.4.6-.3.4-.3-.4h-.2l-.4.8-.3 1.8.5.6-.5.4-.2.9h-.7l-.5.6h-.8l-.4-.6-.2.5-1 .7-.2.7-.6.5.5.4v.5c-.1 0-.5.3-.5.3v.6c.1 0-.1.5-.1.5l.2.3.6-.2.8.9v.2l-.4.3h-.9c0 .1-.4.7-.4.7h-.4l-.6.5h-.4l-.2.3.2.4-.5.3h-1.2c0 .1-.2 1.5-.2 1.5l.3.3v.9l.5-.2.3.2-.5.6.3.5-.7.3-.3.4-.3-.2h-.4c0 .1-.3.7-.3.7v1.5l-.5.8-.5.3v.7l-.3.5-.4.3-1.7-1-.4.3-1.5.5-.2.3h-.2l-.7-.5-2 .2-.3.3-1.2.5v.8c-.1 0-2 .9-2 .9h-.2l-.5-.9-.4-.2-1.4.4-1.2-1h-1.5l-.5-.2-.2-.4h-.2l-.9.3h-.5l1-1.3-.4-.4-1.5-.2-.7.5-.6-.3h-1.1l-1.9-.2-1.1.6-1 .2-1.1.5-.3.4.3.4v.4l-.6.5-.2 1.7h-2.1c0 .1-.9 1-.9 1l-.2.5-1.1-.2h-.4c0 .1-.8-.2-.8-.2l-1.1.6-.2.4-.4-.7h-.5l-.8.1-1.6-.8-1.2.4-2.5.3-.6.7-1.8.8h-.3l-.3-.3-.3.4h-.8l-1-.4-.6-.9-1.2-.2-.2-.6-1-1.5h-.8l-.3-.3-.2-.6-1-.5-.3-1.1-1.1-.2-.5-.8-1.4-1.3-.2-.4.3-1.4v-.2l-.9-.2-.5-.6v-.4c-.1 0-.1-.3-.1-.3h.4l.4-.7.3-.9v1.5l.3.4.4.5 2.4 1.8 3.6-.2.9-1.1 1.7 2 2.8.9v.4l-.6.6h.6l.3-.3v-.9h.7l1.7.8 1 1 1 .5 1.8.3h.7c0-.1-1-.9-1-.9h-1.4c0 .1-1.1-.5-1.1-.5l-.6-1.2.3-1 .4-.2 1.6-4.2.5-.6.8.2.5-.5-.2-.2-2 .2v-1.3c.1 0 .6-1.8.6-1.8h.2l1.4.9.9-.3-.5-1.2.5-2.4 2.4-1.7 4.7-.6 8.5-2.2 1.6-.7 2.9-3.6 1.5-2.3 1.1-1.3 2.4-2.1 2.1-2.7.8-2.2-.3-1.6.3-.2h1.3l1.2.5 1 1.3.2 1.1 2.3 2.2 1 1.3h.4l.8-.5.8-.9.6-2.2-.8-4.3.7-.7 1.3-.2.5-.7v.8h.1l-.2.5v1.4c.1 0 .9 2.9.9 2.9l1.3.5 1.6.2v-.6l-.9-.7v-2.2l-.6-2-.8-1 .8-.6 1.2.7h.3l1.4-1.4Z"/><path id="BN" d="m261.3 184.9-.3.4h-.4l-2-.8 1.4-.2zm-38.2-2.9.8 1 .6 2v2.2l.8.7v.6l-1.5-.2-1.3-.5-.7-2.9v-1.4c-.1 0 0-.5 0-.5h.3c0 .1.7-.4.7-.4zm-1.7 0v.2h.3l-.5.7-1.3.2-.7.7.8 4.3-.6 2.2-.8.9-.8.5h-.4l-1-1.3-2.3-2.2-.2-1.1-1-1.3-1.2-.5h1c0 .1 1.1 0 1.1 0l2.4-1.1 1.6-1.6 2.7-1.8 1.4-.6h.6l-1.2 1.6Z"/></g></svg>