<?xml version="1.0" encoding="UTF-8"?>
<svg id="Layer_1" xmlns="http://www.w3.org/2000/svg" xmlns:amcharts="http://amcharts.com/ammap" version="1.1" viewBox="0 0 512 512">
  <!-- Generator: Adobe Illustrator 29.1.0, SVG Export Plug-In . SVG Version: 2.1.0 Build 142)  -->
  <g id="_x3C_defs">
    <amcharts:ammap bottomLatitude="24.809394" leftLongitude="44.032695" projection="mercator" rightLongitude="63.333337" topLatitude="39.782056"/>
  </g>
  <g>
    <path id="IR-32" d="M182.9,143.2l-9.8.7,5.3,4.2-8.8,15.9,10.6,3.7,2.6-1.7,14.4-16.3-14.3-6.5Z"/>
    <path id="IR-15" d="M364.2,288.8l-30.9-12.5-22.6,14.3-1.9,14-29.1,4.6-4,8.5,5.6,24.7-4.8,1.6,18,24.9,11.4,5.6,11.4-5.2,1.1,17.3,7.2,6.6,16.6-4.5,11,35.8,20.3,7.5-3.2,16.4,20.4,5.9-2.3-35.1,6.9-31.6-4-4.6,12.3-7-1.7-29.2,5.5-27.1-14-17.8-29.3-13.3Z"/>
    <path id="IR-13" d="M456.3,481.6l10.9-33.3,15.1-9.7,18.6-1.8,3.1-7.1v-9.9s-13.4-1.5-13.4-1.5l.5-28.5-22.4-8.7-27-38.8,24.7-29.5-5-16.3-12.4-1.8-2.3,31.3-19-11.8-20.1,5.9-5.5,27.1,1.7,29.2-12.3,7,4,4.6-6.9,31.6,2.3,35.1,10,16.6,31.3,4,2.1-4.5,22.2,11Z"/>
    <path id="IR-31" d="M355.4,91.4l-8-11.6-26.3,6.4,3.5,14.6-11.2,9.1,5.7,6.5,3,13.2,12,3.3,7.8-10.5,31.2,9.4-4.6-12.4,5.1-12.5-17-8,4.8-6.7-6.1-.8Z"/>
    <path id="IR-30" d="M363.3,93.2l-1.7-1-4.8,6.7,17,8-5.1,12.5,4.6,12.4-31.2-9.4-7.8,10.5,2.2,21.4,8.1,10.9-22.2,22.9,27.3-9.3,10.4,6.5-17.2,26.6,1.4,14.2,6.3,2.5,6.6-1.5,5.7,20.2,9.4,7.6,17.6-22.7-5.7-5.6.8-15,22.3-4,7.3,6.5,18.1-.4,10.4-7.4-4.9-6.2,9.4-9.3,5.8-23.1-3.2-34.7h-21.2s-8.3-12.5-8.3-12.5l-14.4-5.9-3.8-10.5-39-11Z"/>
    <path id="IR-29" d="M414.5,214.2l-7.3-6.5-22.3,4-.8,15,5.7,5.6-17.6,22.7,1.9,13.8-10,20.1,29.3,13.3,14,17.8,20.1-5.9,19,11.8,2.3-31.3-7.8-1.4-6.7-47.7,9.2-14.1-10.5-3.8-.6-13.7-18.1.4Z"/>
    <path id="IR-16" d="M116.5,163.3l-8.7-7.2-.6-15.6-13.7-3.3-4.9,5.3-28.2-3.4-14.1,14.1,21.1,6-9.3,7.6,4.3,9.3,12.9,13.4,7,3.6,14-13.3,10.6,6.9,7.7-4.6-9.1-15.5,11-3.3Z"/>
    <path id="IR-19" d="M133.2,74.6l-6.7,1.3,3.6,3.3-7.7,13.6,11,22,9.4,12.6,9.4,7.1,17.9-2.5,7-10.3-9.8-13-29.1-9.4-4.9-24.7Z"/>
    <path id="IR-17" d="M75.3,189.4l-12.9-13.4.5,5.8-12.3,9.2.9,8-7.3,3.3,3.8,4.8-4.7,9.8,8.9,10.6,2.5-11.8,26.6,6.8,13.7-7.6,7.9-9.7,7.6-2.5-.5-5.5-9.8-2,6.7-8.8-10.6-6.9-14,13.3-7-3.6Z"/>
    <path id="IR-01" d="M80.8,58.8l6.5-3.3-2.1-5.8-12.4,10.1-26.7-3.3-10.4,23.6,6.9,30.7,24.1,14.5,8.9-5.8,5.7,10.1,8.6-.4,10.1-12.8,22.4-2.2-13.2-11.1-6-21.9-12.4-.6,9.8-10-2.2-17.4-13.6,13.1-10.4.2,6.3-7.6Z"/>
    <path id="IR-02" d="M22.2,30.4l-4.6,11.8-9.6,1.3,11.4,34.3-6.6,14.4,10.2,5.9,6.1,29.9,10.5,12.5,2.1,13.1,4.7-.4,14.1-14.1,28.2,3.4,4.9-5.3-3.6-8-8.6.4-5.7-10.1-8.9,5.8-24.1-14.5-6.9-30.7,10.4-23.6-17.7-21.9-6.2-4.2Z"/>
    <path id="IR-28" d="M152.2,134.5l-9.4-7.1-6,5,10,17.5-20.8,8.3,5.3,6.8,16.4,6.3,21.8-7.2,8.8-15.9-5.3-4.2,9.8-.7-12.8-11.3-17.9,2.5Z"/>
    <path id="IR-11" d="M133.4,114.8l-11-.7-22.4,2.2-10.1,12.8,3.6,8,13.7,3.3.6,15.6,8.7,7.2,14.9,1.7-5.3-6.8,20.8-8.3-10-17.5,6-5-9.4-12.6Z"/>
    <path id="IR-24" d="M116.5,163.3l-11,3.3,9.1,15.5-7.7,4.6-6.7,8.8,9.8,2,.5,5.5-7.6,2.5,32.9,11.2-2-19.5,5.3.4,1-9.7,11,4.5-8.3-9,5-12.1-16.4-6.3-14.9-1.7Z"/>
    <path id="IR-26" d="M210.7,189l-28.3-10.8-2.3,9.5-12.4,3-3.9,7.6,9.8,11,15.2,3.7.8-9.7,18.7-3.9,2.4-10.5Z"/>
    <path id="IR-22" d="M180.2,167.7l-10.6-3.7-21.8,7.2-5,12.1,8.3,9-11-4.5-1,9.7-5.3-.4,2,19.5v8.5c0,0,12.7-5.3,12.7-5.3l13.9,12,23.1-9.8,3.5-9-15.2-3.7-9.8-11,3.9-7.6,12.4-3,2.3-9.5.4-12.2-2.6,1.7Z"/>
    <path id="IR-03" d="M109.6,32.4l-24.3,17.4,2.1,5.8-6.5,3.3-6.3,7.6,10.4-.2,13.6-13.1,2.2,17.4-9.8,10,12.4.6,6,21.9,13.2,11.1,11,.7-11-22,7.7-13.6-3.6-3.3-16-15,7.7-5.1-4.8-8.8,6-3.7-9.8-11Z"/>
    <path id="IR-23" d="M292.5,458.6l-.3-.8-.8.3,1.1.5ZM279.6,457.6l-.2-.8-.9.4,1.1.4ZM278.9,447.5l.5-1.1-1-.9.5,2ZM266.6,440.6l-.8-1.8-3,.6,3.7,1.2ZM314,436.8v-1.6c.1,0-.9,1.7-.9,1.7h.9ZM256.5,435.5l-.8-.6-.7.3,1.5.3ZM249.4,431.6l-6-1.3,1.9,1.4h4.1ZM326.6,430.6l.6-1.6-2.1,1.7h1.5ZM321.3,428.6l-10.7-1.4-12.2,11.4,22.8-10ZM329.3,424.6l-.7-1.6-.5,1.4,1.2.2ZM305.8,374.6l-11.4-5.6,9.2,16.7,1.2,16.4-15.3,9.8-22.8,1-5.2,9-22.8-7-7.5,1.7,26.7,17.8,27.7,6.1,34.3-19.2,17.7.6,13,39,50,10.1-10-16.6-20.4-5.9,3.2-16.4-20.3-7.5-11-35.8-16.6,4.5-7.2-6.6-1.1-17.3-11.4,5.2Z"/>
    <path id="IR-05" d="M94.9,215.2l-13.7,7.6-26.6-6.8-2.5,11.8,11.1,11.5-1.5,9.4,32.1,15.2,6.1,10.8,8.2-15.2-27.6-29.3,14.5-9.3v-5.7Z"/>
    <path id="IR-20" d="M102.8,205.5l-7.9,9.7v5.7c0,0-14.4,9.3-14.4,9.3l27.6,29.3,6.3-12.4,31.8,6.5,1.9-.4,14.1-21.2-13.9-12-12.6,5.3v-8.5c0,0-33-11.2-33-11.2Z"/>
    <path id="IR-10" d="M146.3,253.5l-31.8-6.5-6.3,12.4-8.2,15.2,6.6,9.7-4.2,23.8,8.7.2v15.7s11.7,14.2,11.7,14.2l11.6-1.6-1.4-9.1,1.9-2.2,2.6-.4-2.4-1.4.9-1.1,5.9.3-.2,4.8-3.6-1.8-3.6.8,6.2,4.7,1.5-1.2.6,3.2h6s1.4,4,1.4,4l13.4-5.5,9.8-.3-.9-14.3-11.5-5.9-.3-10.5,8.3-7.4,2.4-4.9-15.8-26-7.3-9.3-1.9.4Z"/>
    <path id="IR-08" d="M196,303.1l-.3-26.6-11.4-17.8-28.8,3.7,15.8,26-2.4,4.9,6.3,2.9,11.7,8.6,9.1-1.7Z"/>
    <path id="IR-25" d="M350.5,228.6l-6.3-2.5-1.4-14.2,17.2-26.6-10.4-6.5-27.3,9.3-9.3,15.6-12.3,2-.4,23.2-14.1,19.2-49.8,14.3-.3,27.6,13.8,10.1,17.2,38.3,9.2,5.7,4.8-1.6-5.6-24.7,4-8.5,29.1-4.6,1.9-14,22.6-14.3,30.9,12.5,10-20.1-1.9-13.8-9.4-7.6-5.7-20.2-6.6,1.5Z"/>
    <path id="IR-07" d="M216.6,160.8l-19.4-11.1-14.4,16.3-.4,12.2,28.3,10.8-.3-21.9,20.7,7.4,9.6-6.1-.3-9.6-16.4-4.6-7.5,6.6Z"/>
    <path id="IR-12" d="M319.2,116.4l-5.7-6.5-9.4,18.8-35.7,9.3-14.9,17.3-13.1,3.5.3,9.6-9.6,6.1-20.7-7.4.3,21.9-2.4,10.5,7.5,3.1,84.9,3.1,12.3-2,9.3-15.6,22.2-22.9-8.1-10.9-2.2-21.4-12-3.3-3-13.2Z"/>
    <path id="IR-21" d="M257.7,127.3l7.8-4.4-54.1,11.9-34.3-13.1-7,10.3,12.8,11.3,14.3,6.5,19.4,11.1,7.5-6.6,16.4,4.6,13.1-3.5,14.9-17.3-10.7-10.6Z"/>
    <path id="IR-27" d="M316.3,86.7l-14.3-.3-19.8,20.8-19.1,3.1,3.1,16.1-8.4.9,10.7,10.6,35.7-9.3,9.4-18.8,11.2-9.1-3.5-14.6-4.8.5Z"/>
    <path id="IR-14" d="M225.5,292.6l-8-6-12.7,5,5.7,6.9-5.9,16.5v6.1s-12.7-3-12.7-3l.8,11-14.9,4.6,19.2,18.3,41.9,62.9,22.8,7,5.2-9,22.8-1,15.3-9.8-1.2-16.4-9.2-16.7-18-24.9-9.2-5.7-17.2-38.3-13.8-10.1-10.8,2.6Z"/>
    <path id="IR-04" d="M215.8,202.6l-7.5-3.1-18.7,3.9-.8,9.7-3.5,9-23.1,9.8-14.1,21.2,7.3,9.3,28.8-3.7,11.4,17.8.3,26.6,8.5,11.8,5.9-16.5-5.7-6.9,12.7-5,8,6,10.8-2.6.3-27.6,49.8-14.3,14.1-19.2.4-23.2-84.9-3.1Z"/>
    <path id="IR-06" d="M170.6,361.4l.2-1.5-1.3-.3,1.1,1.8ZM196.9,351.9l-19.2-18.3-4.4-2.2-9.8.3,15.6,22.5-.3,9,7.4,2.6-3.2,3.6,15.3,29.4,27.3,8.7,5.7,9,7.5-1.7-41.9-62.9Z"/>
    <path id="IR-18" d="M175.2,296.3l-6.3-2.9-8.3,7.4.3,10.5,11.5,5.9.9,14.3,4.4,2.2,14.9-4.6-.8-11,12.7,3v-6.1s-8.5-11.8-8.5-11.8l-9.1,1.7-11.7-8.6Z"/>
  </g>
</svg>