<?xml version="1.0" encoding="UTF-8"?>
<svg id="Layer_1" xmlns="http://www.w3.org/2000/svg" xmlns:amcharts="http://amcharts.com/ammap" version="1.1" viewBox="0 0 512 512">
  <!-- Generator: Adobe Illustrator 29.1.0, SVG Export Plug-In . SVG Version: 2.1.0 Build 142)  -->
  <g id="_x3C_defs">
    <amcharts:ammap bottomLatitude="29.061208" leftLongitude="38.793603" projection="mercator" rightLongitude="48.575916" topLatitude="37.380645"/>
  </g>
  <g>
    <path id="IQ-BB" d="M286.9,263.7l-3.4,3.3-19.8-4,9.7,6.7,5.7,18.3,6.7,2.3,2.8,23.5,2.7,11.7,6.3-4.2,6.5,3.3,6,2.2,22.3-16.1-13.1-19.5-19.4-6-.3-10.7-1.8-10.1-10.8-.8Z"/>
    <path id="IQ-AN" d="M197.5,156.4l-25.2.5-39.4-11.8.6,22.2-11.9,23.7L12.3,252.8l14.1,51.9-3.9,1.3,2.5,8.6,11.3-.8,1.8,5.8-7.3,7.4,63.6,11.6,82.2,49.1,35.3,30.7,23.4-64.1,9.2-13.1,17.5-9.2-4.9-7.9-23.9-23.7,27.3-14.5,18.5,2.1-5.7-18.3-9.7-6.7,19.8,4,3.4-3.3-.5-11.3-1.6-3.3-7.2-1.9-4.9-11.8-28.5-6.1-14.8-14-10.1-29.9-7.6,3.2-11.8-9.2-2.4-22.9Z"/>
    <path id="IQ-DI" d="M362,160.7l1.3-6.9-5.5-5.7-13.1,26.6-11.6,9.6-1.6-16.4-10.9-5.1-16.7,20.8-6.2-2.3v18.1c.1,0-10.8,15-10.8,15l7.9,4.7-2.3,20.3-7.8,9.8,1.6,3.3,12.5-1.8-1.2,13.8,1.8,10.1,3.6-4.2,4.3,3.6,6.8-9.4,32.7,6.3,23.5-25.5h-5.6c0,0,1.7-8.1,1.7-8.1l-7.5,2.9-17.6-23.4,9.1-19-7.3-9.4,4.2-8.9,10,2.4-3.7-10.3,8.4-11.1Z"/>
    <path id="IQ-SU" d="M362,160.7l5.8-11.2,11.8-1.5-9.3-23.3,2-11,16.1-7.9-28.8-.5-10.4-11.3-10.1.9-4.9-26.1-7.7-.6-3.7-6.4-23.4,9.1,7.7,9.6-3.4,5.4,17.4,14-17.4.8,7.9,12.3.9,13.9-5.4,16.5-6.6,3.6,19.4,9.3.7,6.6,10.9,5.1,1.6,16.4,11.6-9.6,13.1-26.6,5.5,5.7-1.3,6.9Z"/>
    <path id="IQ-WA" d="M402.1,285.4l-25.1-7.8,1.2-6.4-4.5-2.6,6.7-8.2-9.9-15.1-23.5,25.5-32.7-6.3-6.8,9.4-4.3-3.6-3.6,4.2.3,10.7,19.4,6,13.1,19.5,9.6,3.5,16.6,22.8,29.5-3.4,12.9,1.3,1.3-8.8-8.7-6.8,8.6-33.9Z"/>
    <path id="IQ-MA" d="M455.7,378.6l7.9-33.3-17.1-20.1-7.4-18.3-12.6-.9-24.4-20.6-8.6,33.9,8.7,6.8-1.3,8.8-12.9-1.3,21.5,47.2,18.8,4,11.1-8.5,16.3,2.3Z"/>
    <path id="IQ-DQ" d="M428.3,384.8l-18.8-4-21.5-47.2-29.5,3.4,3,17.4-3.3,47.4,32.5,6,10.1,12.7,25.6-3.5,1.9-32.3Z"/>
    <path id="IQ-QA" d="M332.3,310.8l-22.3,16.1-6-2.2-6.5,12.1,2.1,18.3-5.6,3.2,14.8,10.4,12.5,8.4,6.5-19.8-4.2-4.5,9.7-3,28.2,4.6-3-17.4-16.6-22.8-9.6-3.5Z"/>
    <path id="IQ-MU" d="M390,503.8l10.2-3.5,9.1-55.3-8.5-24.5-10.1-12.7-32.5-6,3.3-47.4-28.2-4.6-9.7,3,4.2,4.5-6.5,19.8-12.5-8.4-5,23.3-17.7,19.2-22.3,49.7,44.5,35.5,81.7,7.4Z"/>
    <path id="IQ-BA" d="M455.7,378.6l-16.3-2.3-11.1,8.5-1.9,32.3-25.6,3.5,8.5,24.5-9.1,55.3,31.7-52.1,23.8-3.7,13.6,6-.7-6.5,1.7,5.9,7.5-2.4,21.9,5.7-12.6-21.1-14.5-8.7v-30.4c0,0-17-.3-17-.3l.2-14.1Z"/>
    <path id="IQ-BG" d="M297.7,264.5l1.2-13.8-12.5,1.8.5,11.3,10.8.8Z"/>
    <path id="IQ-" d="M279,287.9l-18.5-2.1-27.3,14.5,23.9,23.7,31.3-10.3-2.8-23.5-6.7-2.3Z"/>
    <path id="IQ-NA" d="M304,324.6l-6.5-3.3-6.3,4.2-2.7-11.7-31.3,10.3,4.9,7.9-17.5,9.2-9.2,13.1-23.4,64.1,51.8,42.5,22.3-49.7,17.7-19.2,5-23.3-14.8-10.4,5.6-3.2-2.1-18.3,6.5-12.1Z"/>
    <path id="IQ-SD" d="M240.6,126.8l-1.2-16.2-22.6,14.9,7.7,23.1-25.9,2-1.3,5.9,2.4,22.9,11.8,9.2,7.6-3.2,10.1,29.9,14.8,14,28.5,6.1,4.9,11.8,7.2,1.9,7.8-9.8,2.3-20.3-7.9-4.7,10.9-15v-18.1c-.1,0,6.1,2.3,6.1,2.3l16.7-20.8-.7-6.6-19.4-9.3-13.6,25.8-39.6-24.7-11.2-18.3,4.4-2.9Z"/>
    <path id="IQ-NI" d="M264,30.9l-8.9-1.9,3.9,6.6-4,6.9-16.3-6.7-6.7,9.7-17.1,5.3-16.9-9.9.2-7.6-6.5-5.5-27.9,28.8-21.5,5.2-5.4,10-2,18.2,6.3,24.9-8.5,30.3,39.4,11.8,25.2-.5,1.3-5.9,25.9-2-7.7-23.1,22.6-14.9.9-16.9,7-3.2,18-28.3,22.3-14-23.6-17.3Z"/>
    <path id="IQ-AR" d="M322.9,61.7l1.8-9.4-10.7-7.7,2.8-14-6.6-8.9-7.1-1.2-18.3,12.5-.4-16.2-8.3-4.8,1.5,6.6-13.5,12.2,23.6,17.3-22.3,14-18,28.3-7,3.2-.9,16.9,1.2,16.2,18.6-4.8,9-18.9,9,4,26.6-6.4,17.4-.8-17.4-14,3.4-5.4-7.7-9.6,23.4-9.1Z"/>
    <path id="IQ-KI" d="M303.8,100.6l-26.6,6.4-9-4-9,18.9-18.6,4.8-4.4,2.9,11.2,18.3,39.6,24.7,13.6-25.8,6.6-3.6,5.4-16.5-.9-13.9-7.9-12.3Z"/>
    <path id="IQ-DA" d="M211.4,8.2l-19.7,19.6,6.5,5.5-.2,7.6,16.9,9.9,17.1-5.3,6.7-9.7,16.3,6.7,4-6.9-3.9-6.6,8.9,1.9,13.5-12.2-1.5-6.6-12.9,7.1-51.7-11Z"/>
  </g>
</svg>