<svg xmlns="http://www.w3.org/2000/svg" xmlns:amcharts="http://amcharts.com/ammap" id="Layer_1" viewBox="0 0 512 512"><g id="_x3C_defs"><amcharts:ammap bottomLatitude="29.497" leftLongitude="34.229" projection="mercator" rightLongitude="35.935" topLatitude="33.434"/></g><g><path id="IL-GH" d="m346.6 76.1-3.6 7-1.8 1.9-2.7 4.8-3.4 4v-.4c-.1 0-.8-.4-.8-.4l-2.4 1h-1.1c0 .1-.5.6-.5.6l-.9 2.7-2.5.3-3.3 2.8-1.9.8-2.7.2-1.3.8-.4-1.2-2.9-1.5 2.1-2.4 1.2-2.6.5-7 1-4.9-.3-2.1-1.9-4-1.4-1.8-.8.4-.7-.8.9-3.2.5-6.6-.2-3-1.3-2.4v-.6l1.8-1.8 1.6-2.7 1.2-.4.3.4.3-6.2 2-5.9-.7-4.9v-2.8L322 30l-.7-.7-1.4-.2-2.9 1.1-.8-.2-.9-.9.9-1.7 6.5-3.5 3.6-4.5.7-.3 2.7.2 1.7-.3 2.2-.9 2.7-2.5.8-4.3.9-1.5 7.7-4.5.6.4.2.9-.4 1.7-1.1 1.9-2.2 2.5-.9 2.4-.3 2.3.5 5.3-.2.9-1.3 2.1 3.1 3.3 1.1 3.3v2.6l-.5 1.1-1.3 1.8.2 1.4 3.2.9 2.3 3.3-.3 3.4-1.7 1.5-.2.5.2.7 1.2 1.4v.9l-1.8.5-2.2-.6-.7 1 .6 2.3-.3 4.1.6 1.9.9 8.6 2.3 3.5v.7l-.9 2.1Z"/><path id="IL-Z" d="m295.5 137.9-.7-.6v-.7l-.7-1-.6-1.9v-2.6c.1 0-.2-2.8-.2-2.8l-1.8-3-1.8-1.3-3-.3-6.6 1-2.6-1.1-1.7-1.2-1.9-2-1.5-.8-1.6.4-.6.7-.8-1.3-1.6-.8-.8-1.5-.7-.5-.6.2-.8 1.3-1.5.9-.4 1.3-.7.2-1.2 1.7-1 .2-1.8-.6h-2.2c0-.1-.7-1.3-.7-1.3h-1.1l-.3-.9-1-.5-.2-.7.4-2-.9-.6-.3-.6-1-.4-.2-1.8-.9-.8v-.5l.6-.5 2.2.4h.7c0-.1-.2-1-.2-1l-1.6-.4-.4-.5v-1.3l.8-1.1 1.2-.2 2.4.8 1.8-3.2 2.2-1.4.2-1.2-1.1-1.3.2-1.7.5-.3 1.1 1.3 1.1-.9.3-.9-.2-.9 1.3-1.3-.5-2.1 1.6-2.5.3-1.4-.2-1.2-1.4-2.8.3-2.9-.7-.5-2-.6-2.1-1.5.4-2.4-1.2-1.1-.5-1.5.3-2.4-.4-1.3h-.8c0 .1-.5-.4-.5-.4h-.4l-.1.4h-.5v-.3l.5-1.3 1.2-7.4.6-1.4v-1.9l1.5-4.7.5-3.3v-1.7l8.2-.4 3.9.7 1-.8 1.3-.4h4c0-.1 4.2-.7 4.2-.7l2.2.5 1.8 3.5 1 1.2 1.6 1 .6.2 2.8-1.2 3-.2.8-.4 3.3-3.2 2.4.4 1.8-.7.7-2.5 2.1-.9.5-1.3.2-2.8.7-3.1 1.2-2.7-.4-4.4.9-2.1 1.7-1.9 1-2.3.3-.3.8.6 2.6 3.7h.4c0 .1.4-.3.4-.3l.9.9.8.2 2.9-1.1 1.4.2.7.7-1.5 4.2V37l.6 4.9-2 5.9-.3 6.2-.3-.4-1.2.4-1.6 2.7-1.8 1.8v.6l1.3 2.4.2 3-.5 6.6-.9 3.2.7.8.8-.4 1.4 1.8 1.9 4 .3 2.1-1 4.9-.5 7-1.2 2.6-2.1 2.4 2.9 1.5.4 1.2-3.1 1.3-.7.8.2 1.8-1.2.5v.8l-.2.3-1 .3-1.6 1.2v3.6l.3.6.8.4.2.8-.5 1.2v1.2l1 2.3v.3h-1.2l-.2 1.2-1.4-.3v.8l.8 1.2-.2.4-1.1.2-.6.8.5.4h.7l.7 1.6 1 .7-1.6 3.7.2.6.9.4.2.4-.3.6-.9.4.3 1.7-1.3.4.3 2.9-.2.5-.9.4 1 1.8h-.9l-2.5-.8-4.6-1.9h-2.5c0-.1-1.6.4-1.6.4l-1.4-.2Z"/><path id="IL-HA" d="m232.4 137.9.4-.8h-.3l.6-.9 1.1-5.4-.2-.6-1.3-.2h1.2l.2-.4.2.4h.4l-.3-.2v-.7h.5l.3-1.1-.3-.6.4-1v-.8l.5-1.1-.3-.2.9-2.4-.3-1 .8-1-.4-.5 1.1-3-.3-.7.5-1.8.2-3.1.8-2.6v-1.5l.2-.4.4-4.5-.2-.6.5-1.4.7-.2.5-.9.6-3 .8-8.2-.2-.7h.3l-.2-2.4 1.1-.8h.7l1.2-.7.7.7 1.4.7 1.6-.2-.8.4-2-.5 1.4 1.4V85c.1 0 .5.3.5.3v-.5h.1l.7 1.4h.9v-.4l.5.3v.6l.7-.2-.4-.6h-.4l2.2-1.4 2.7-4.7 1.2-4.9v-1.6l-.3-.6h.8c0-.1.4 1.2.4 1.2l-.3 2.4.5 1.5 1.2 1.1-.4 2.4 2.1 1.5 2 .6.7.5-.3 2.9 1.4 2.8.2 1.2-.3 1.4-1.6 2.5.5 2.1-1.3 1.3.2.9-.3.9-1.1.9-1.1-1.3-.5.3-.2 1.7 1.1 1.3-.2 1.2-2.2 1.4-1.8 3.2-2.4-.8-1.2.2-.7 1.1v1.3l.3.5 1.6.4.2.8h-.7c0 .1-2.2-.3-2.2-.3l-.7.5v.5l1 .8.2 1.8 1 .4.3.6.9.6-.4 2 .2.7 1 .5.3.9h1.1l.7 1.1h2.2c0 .1 1.8.7 1.8.7l1-.2 1.2-1.7.7-.2.4-1.3 1.5-.9.8-1.3.6-.2.7.5.8 1.5 1.6.8.8 1.3-1.4 1.6-.4.8-1.3 1.3-2.1 1.6-2.7 1.4-4.4 1.7-.8.6-1 1.9-1 5.1-.9 2.6-.2 1.6-4.3.9h-.5c0-.1-.8-1.1-.8-1.1l-.8-.4-.9-1.4-.8-.4h-2.6l-3.3-.5-3.1.7-1.7-.6h-2.4Z"/><path id="IL-M" d="m211.2 206.5 1.9-5.6 1.8-2.8.8-1.9 2.1-6.6 2.1.7h1.9l.9.5h2.5l.9-.3 2.2-2.5.7-.4 1.2.2.5.9.4.2 1.1-.7h1.8l.4-.5v-1c-.1 0-1.8-1-1.8-1l-.7-3.9-1.5-1.2-.4-1 .4-3.2.9-1.1 1.1-2.1-.3-2 .3-2.4-.2-.4-2.7-2.1-4-.6 2.3-7.7.8-3.9.6-2h.2l.6-3.6-.2-.4.4-.3 1-4.7v-1.3l.4-.5.2-1.6h-.2c0-.1.7-1.7.7-1.7h2.4c0 .1 1.7.8 1.7.8l3.1-.7 3.3.5h2.6l.8.4.9 1.4.8.4.8 1h.5c0 .1 4.3-.8 4.3-.8l-.2 1.7-.8.7-2.8 1.3-1.9 3.1v3.5c-.1 0 .4 3.7.4 3.7l-.4.9-.9.7-1.5 2.2-2 4.5-.2 1.5v1.5l2.1 3.5.8 3.7v1.6c.1 0-1.1 3-1.1 3v1h-.1l.3.9 1.1 1.2 1.3 2.4.4 1.5-.3 1.9-.9 1.9.2 1.5-.5.4.5 1.3-1.5 3.2.3 2.9 1.7 2.3 2.5 2 .5 2-1 3-5.4 1c0 .1-5.5 0-5.5 0l-.8.6-1 2.8-1.2.7-5.3 1.4-2.2 2.2-.5 1.2-.6.2-2.4 2.9-1 .4-1-1.1-.8-2.4-.8-1.3-2.7-1.6-1 1h-2v.4l.8.4.8 1.5-.3.3h-1.2v.7l-.3.3h-1.3c0 .1-.7-.4-.7-.4l-1.9-.2-.5-.4-.2-.7 2.1-1.7-.5-1-1.1-.6-.3-1.1.7-.8 1.8.4.9-.3.2-2.3-.2-1 1-1.6-.6-.6-1.1.4h-.8l-.7-.9-1.7.5Z"/><path id="IL-TA" d="m217.8 189.6 1.4-5.2.4-.3v-.4c-.1 0 .7-.5.7-.5l.7-1.4.8-2.7-.2-.8h.4c0-.1.5-1.2.5-1.2v-.5c-.1 0 .2.2.2.2l.9-2.7.7-3.2.3-.2-.2-1.2h.4c0-.1.9-3.5.9-3.5l4 .6 2.7 2.1.2.4-.3 2.4.3 2-1.1 2.1-.9 1.1-.4 3.2.4 1 1.5 1.2.7 3.9 1.7 1v1c.1 0-.3.4-.3.4h-1.8l-1.1.7-.4-.2-.5-.9-1.2-.2-.7.4-2.2 2.5-.9.3h-2.5l-.9-.5h-1.9l-2.1-.6Z"/><path id="IL-D" d="M298.9 258v6.5l-.4 2.6-1.8 5.1-6.6 12-.6 2.6 1.2 2.7 4.9 6.5.9 1.9.5 2.6v2c.1 0-1.3 5.6-1.3 5.6l-4.2 6.4-.4 2.6.3 2.1.9 2.5v2.6l-1.9 1.7-4.1 2.7-2.9 6.4v2.3l.5 2.1-.6 2.5-2.1.8-1.6 2-1 2.6v5.1l-1.5 3.6-2.7 4.9-.6 2.8-1.6 1.5-3.2 6.2-2.7 13.5-.8 2.3-1.5 2.2-.4 1.7 3.8 7.1.6 2-.3 1.5-2.4 2.7-.7 2.2.4 2.5-2.1 4.6 3.4 15.1-8.4 12.1-2.3 9 .3 9.8-3.2 6.4-.5 2.4.3 1.9-.3 2.5-1.9 7.7.3 9.3-1.4 1.8-1.9 1.4-1.7 1.9-2.2 5.3-1.2-.3-.5 1.1-.6.3-.5 1.2-1.5 1.5v.5l-.9 1.2-.9.8-2.8-3.2-1.4-2.7-.5-2.1-.4-3.6 1-3.4.5-3.4-.5-2.3-2-3.4v-6l-11.1-31.3.2-1.9-12.9-36.3-2.2-8.3-7.6-5-.3-3.9 2.3-6.4-4.7-5.5.3-6.9L192 358l-9.6-20.2-6.2-18.2-9-29.9 4.9-3.7 4.9-4.2 1.2-2.2-.3-7.1 1-3.2 3.6-4.7 10.9-10.6 3.2-.8 1-1.7v-2.4l-1.5-2.2-4.7-4.4 2.6-4.3.7-.6-.3-.6.4-.4-.3.5h.5c0 .1 1.9-3.4 1.9-3.4l1-1.1.7-1.6h.3l3.5-6 5.3-11-.5-1 .3-1.2-.2 1.3.6.7-.2-.4v-1.2l1.2.1.3-.4v-1.3l.4-.1 1.6-3.8 1.7-.5.7.8h.8l1.1-.3.6.6-1 1.6.2 1-.2 2.3-.9.3-1.8-.4-.7.8.3 1.1 1.1.6.5 1-2.1 1.7.2.7.5.4 1.9.2.7.5h1.3c0-.1.3-.5.3-.5v-.8h1.2l.3-.3-.8-1.5-.8-.4v-.4h1.9l1-1 2.7 1.6.8 1.3.8 2.4 1 1.1 1-.4 2.4-2.9.6-.2 1.5 1.6 1.2 2.9.4.2h1.5c0-.1.9.7.9.7l-.6 1.7.6 2.3-.5 1.9.3 3.8-.2 1.9.3.6 4.7 2.8 1.1 1.3 2.1.6 2.4 1.8-1.7 2.5-1 4.8.5 5.2-.4 2.2-2.2 4.1-2.4 3.1-2.1 4.3.3 2.5 1.2 2 1.8 1.4 2.7.7 5-.7 4.6-1.1 10.7.8 2.3-1.2 1.5.3 7-1.1 1.6-1 5.9-6.3 3.5-1.6 3.6-2.6 3.9-3.4 1.7-.6h7.2v2.3Z"/><path id="IL-JM" d="m270.9 224-.2.2h-5.5c0 .1-4.6 2-4.6 2l-5.7 5.6-5.1 2.5-5.1 5.2-1 1.7-2.4-1.8-2.1-.6-1.1-1.3-4.7-2.8-.3-.6.2-1.9-.3-3.8.5-1.9-.6-2.3.6-1.7-.9-.8h-1.5c0 .1-.4 0-.4 0l-1.2-2.9-1.5-1.6.5-1.2 2.2-2.2 5.3-1.4 1.2-.7 1-2.8.8-.6 5.5.2-1.2 1.8.9 3.4 2.1.9 3 .4 2.8-1 2-2.2 2.1-1.2 2.4 2.2 6.9 2.9h5.1l2 2-.3 4.6-1.1 1.8Z"/><path id="PS" d="M197.6 248.9v2.4l-1 1.7-3.2.8-10.1 9.8-.9.8-3.6 4.7-.4 1.4-.5 1.8.3 7.1-1.2 2.2-4 3.5-.8.7-4.9 3.7-4.2-14.1.2-.2 8.1-8.2 7.2-7.9 8.8-10.9 3.9-5.8 4.7 4.4 1.5 2.2Zm112.1-86.3-.8-4.9.4-2.8-.7-1.9.6-2.4-.9-2.3.7-3.9-1.1-1.8.2-2.3-2.5-.7-4.6-1.9h-2.5c0-.1-1.6.4-1.6.4l-1.4-.2-.7-.6v-.7l-.7-1-.6-1.9v-2.6c.1 0-.2-2.8-.2-2.8l-1.8-3-1.8-1.3-3-.3-6.6 1-2.6-1.1-1.7-1.2-1.9-2-1.5-.8-1.6.4-2 2.3-.4.8-1.3 1.3-2.2 1.6-2.7 1.4-4.4 1.7-.8.6-.7 1.2-.4.7-1 5.1-.9 2.6-.4 3.3-.8.7-2.8 1.3-1.9 3.1v3.5c-.1 0 .4 3.7.4 3.7l-.4 1-.2.2-.7.5-1.5 2.2-2 4.5-.2 1.5v1.5l2.1 3.5.8 3.7v1.6c.1 0-1.1 3-1.1 3v.5l-.1.5.3.8 1.1 1.2.2.3 1.1 2.1.4 1.5-.3 1.9-.9 1.9.2 1.5-.5.4.5 1.3-1.5 3.2.3 2.9 1.7 2.3 2.5 2 .5 2-1 3-5.4 1-1.3 2 .9 3.4 2.1.9 3 .4 2.8-1 2-2.2 1.5-.9.6-.3 2.4 2.2 6.9 3h5.1l2 2-.3 4.6-1.1 1.8-.2.2h-5.5c0 .1-4.6 2-4.6 2l-4.7 4.7-1 1-5.1 2.5-5.1 5.2-1 1.7-1.7 2.5-1 4.8.5 5.2-.4 2.2-2.2 4.1-2.4 3.1-2.1 4.3.3 2.5 1.2 2 1.7 1.4 2.7.7 4.9-.7 4.6-1.1 10.7.8 2.3-1.2 1.5.3 7-1.1 1.6-1 5.9-6.3 3.5-1.6 3.6-2.6 1.1-.9 2.8-2.5 1.7-.6h7.2c0 .1.3-10.9.3-10.9l4.7-15.3 1.1-3.4 2.6-4.7-1.3-7.5.9-2.4-1.1-1.8 1.1-2.1-1.9-1.2-1.1-5.4 2-1.9.7-4.6-1.8-4 1-1.5-.2-.9-1.2-1.4-.2-5.5.3-.6.6-1.2.4-2.3 1.5-2.1 1.4-8 .9-1.9.3-1.1v-1.5Z"/></g></svg>