<svg xmlns="http://www.w3.org/2000/svg" viewBox="0 0 512 512"><g><path id="JP-23" d="m296.1 275.6.3-2-.8-1.3.5-2.7-2.2-.3-1.2-2.7.2-2.1 1.6-2.9 2.8-.3 1.4-1.1 1.7 3 2 1 2.3-.9 2.4 1.5 2.4-1.4.3 2.1 2-.8 2.5.4.2 1.4-3.6 6-2.6 1.5-.3 3.4-8.5 2.2.5-1.8.7.6 2.3-1 1.8-1.3.2-1.1-2.2-1-.7 1.3-2.8-.3-1.4-1.3v-1.2c-.1 0-.8 2.7-.8 2.7l1.1 1.7-2.4-1.3Z"/><path id="JP-05" d="m357 157.6-.7-2.6-1.3-1.6.5-.8 1.3 1.1.2-4.8h-1.5l-1.1 2.8.4 1.6h-1.6v.9h-2l-1.1-3.1v-.7c.1 0 2.6 1.1 2.6 1.1l2.3-2.9 1.4-6.8-1.7-1.7 1.6.2 1-1.2.7.8h4.3l.5-1h1.3c0-.1 2.1 1.8 2.1 1.8l1-.8 1.2.8 2.9-1.1.2-1 1.2-.5-.2 2.3 2.1-.2-.5 4.5-1.8 1.8.3 7.4-1.8.2v1l1.1.6-1.2 1.6.8 2.2-1.7 2.1-1.4 3.7.8 2.8 2.1 2.9-1 1.1v1.2l1.1.7-.7 2.4-2.3 1.7-2 .2-1.7-.9-.6-1.7-5.4-1.5-1.5-.9-.2-1.1-1.3.7-2.4-.4.8-3.6 2-3 .9-8Z"/><path id="JP-02" d="m377.4 128.9 1.4-1.8 1.3-5.2-1.5-3h-.8l-1.9 2.3-1.5-.4-3.2 1.8-.9-.5.7-4.4 2.2-5.7 6.7 4.8 1.8-.3 2-1.6-1.4 6.6.4 10.3 1.3 4.7 1.1 1.1.6-.4 2.1 2.4-2.8 2.6-1.2-.7-2.3 1.1-.7-1-5.5 3.7-1.3-.7.5-4.5-2.1.2.2-2.3-1.2.5-.2 1-2.9 1.1-1.2-.8-1 .8-2.1-2h-1.3c0 .1-.5 1.1-.5 1.1h-4.3l-.7-.7-1 1.2-1.6-.2v-3.1l-1.4-1.6 3.3-3.5 1.8.4 2.6-1.7 1.1-7.1-1.3-.8 1.4-.6.4-2.8 2.3 2 1.6-1.2 1.7 1.1.3 4.6 1.6 4.3h1.3c0-.1 1.1-1.3 1.1-1.3l.3-3.1 4.8 3.4Z"/><path id="JP-12" d="m352.8 261.3 1.1.2.2-1.7 1.7-.6 1.5-2.1h.8l-2.4-3.1-.7.3-1.4-2.9.5-1.5-2.4-5.5 3.2 3.7 3.9 2.2 5.9-1.7 4.2 1.7 3.5 2.9v.6h-3.8l-2.6 2-2.4 3.6-.4 6.2-1.4 1.2-3.5.4-4.5 5.1-2.6-1.5 2-.7-.8-1.6v-2.9l1-1.2-1.1-1.5.5-1.4Z"/><path id="JP-38" d="m213.1 309.2.2-.4.3-.3h.3v-.2h-.3c0-.1-.4-.3-.4-.3l-.5.2-.3.2-.4-.2-.2.4h-.4c0-.1-.1-.3-.1-.3h-.4v-.4c.1 0 .3-.1.3-.1h.1l.3-.2v-.4h-.3l-.2-.3.3-.3v-.3h-.3l.3-.3h.2l.2-.3v-.4l-.1.1h-.4l.2-.4h-.5l-.3-.3h-.2l-.3.3-.8.6h-.5c0 .1-.3.5-.3.5l-1.1.3-.5.5-.2.3-.3.3h-.5v-.2l.3-.2v-.2h-.5l-.8.7-.5.3h-.2l2.1-1.7.5-.3.6-.3h.5l.3-.2h.3c0-.1.4-.2.4-.2h.2v-.3l1.1-.5.8-.6.7-.4.2-.5.8-1 .6-.4 1.5-.5 1.2-.9.2-.2.4-.9.4-.4-.2-.7v-1l.2-1 .2-.6.4.2.4-.3.3-1.2v-.6l1.8-1.6 1.1-.2v-.4l.2-.2v-.5c-.1 0 .2-.6.2-.6l.7.8.9 1.4.7 1.4.4.6v.4c.1 0 .6.3.6.3l.9-.3 1.3-.3h.4l-.1-.5 1.2-.2.2-.3h.4l.4.4.7-.3h.7l.5.2.7.3h.5l.7-.5.2-.3v-.4h.3l.4-.3.3.3h.9c0 .1.6.5.6.5l-.3.7.3.5v1l-.2.6-.3.3h-1l-.5.3-.5-.3h-.2l-.5.8-.2.3-.2.2h-4.2l-.2.2-.2.7h-.2c0 .1-.5.3-.5.3l-.3-.3h-.2l-.3.7-.4.8-.4.4-.3.5v.5l-.3.3h-.6l-.2.7-.2.7-.2.4.3.3v.5l-.3.3-.5.8v.3l-1.2.3h-.2c0-.1-.6 0-.6 0l-1.3-.2h-.4c0 .1-.3.4-.3.4l.3.3v.9c.1 0 .3.2.3.2h.2l.2.7h.4c0 .1.3.5.3.5v.7l-.8.4-1.2.4-.3.5-.2 1.1h-.4l-.2.2v.5c-.1 0-.8.9-.8.9h-.2l-.9-.8v-.3h-.3v.3c-.1 0 .1.6.1.6v.3l.4.5h.2v.3l-.2.9.3.3.2.9v1.3h-.4v.4h-.4c0-.1-.9.2-.9.2v-.3c-.1 0-.4-.3-.4-.3v-.2l-.5.2h-.2l-.3.1v.4l-.2.3h-.8v-.4l-.3-.4c0-.1.3-.2.3-.2l.3-.3-.6-.3.3-.2h.2c0 .1.1.2.1.2h.1l-.2-.5v-.3l-.2-.1h-.1v-.8h-.3l-.3.3-.4-.2-.4.2h-.1v.6l-.4-.2.3-.4v-.4l.2-.3h.4v.3h.5l.5-.2v-.3c.1 0-.2-.1-.2-.1l.2-.4.4-.6v-.3h-.8c0 .1-.2 0-.2 0v-.2l-.3-.2v-.3c.1 0 .4-.3.4-.3l-.5-.5.5.2.7.3.3.3h.3v-.3l-.2-.4.3-.3h.7v-.5h-.3l-.4-.3.4-.2v-.3h-.7l-.5-.2Z"/><path id="JP-18" d="m274.9 256.6 1.5 1-.2-1 1.1-.4-.8-1.2 1 .8 2-.4-.4-2.3 1.2-1 .2 2 .9.4.5-2.7-2.7-4.8 3.1-6.3 2.3-1.1 2.3 3.1 1.9.7 1.7-.4 2 2 1.8-.5-.5 2.2 2 3.3-.8 1.2h-2.8l-2.7 1.2-2.4-.9-1.8 3-2.4-.8.4 3.1-1.1-.3-2 2-1.2-.6-1 2.7h-1.5c0-.1-.8 1.2-.8 1.2l-4.4-.5-1.4-2 .2-2.2.8.2v1.3l2.5.4 1.7-.4.3-.8-1.2-.3.9-.6Z"/><path id="JP-40" d="m173.6 299.8 1.2-1.3-.4-1.6 1.5-1.7 2 .2 1.3-1.3 3.6 1.1 2.1-1.7v2.5c-.1 0-.9.7-.9.7l.8.3 1.9 4.5 1.6.5v2.1h-3.8l-1.6 1.3-1.2 2.4.6 1.1-.8 1.2 1.1 1.5-.8 1.6-3-1.4-.5 1.4-1.4-.2-1.6 1.4.2 1h-2.1l.5-1.1-1.3-2.1.7-2.2 2.8-2.2v-2.2l-2 .9-3-1.9-4.5.2 2.2-1.6.2-.5-1.5-.5 2.3-1.9 1.4 2 2.2-.8.7-1-.6-.6Z"/><path id="JP-07" d="m374.3 223.4-3 1.9-.3 1.1-3.3-1-.5-1v1.7c.1 0-2.4 1.8-2.4 1.8l-3.9-3.3-.2-2.1h-.8l-1.2-1.8-4.6-1.2-9.8 5.7-2.7-.8.3-5-1.7-1.8 1.1-2.5-.5-1.7.5-.9 3.3-.3.7-1.3h2.9l-.6-3.2 3.6-4.1 1.4.5 2.4-.6.9 1.6 1.2-.4 1.4 1.1 2-.3 1.3-1.6-.3-4 1.3.6 1.1-.5 1.5 1.7h3.3l.6 2.3 1.8.7-.3-.5h1.7V202h1.4l1.5 3.5.5 5.8-1.3 12.2Zm-3.3 3"/><path id="JP-21" d="m287.9 264.8-.7-.7 1.2-3.3-.8-3.3-1.6-.5v-1.5c.1 0-.8-1.1-.8-1.1l1.8-3 2.4.9 2.7-1.2h2.8l.8-1.1-2-3.3.5-2.2.3-1.8 1.5-1.8-1-1.3 1.6-1.6 1.5.7.4 1.5 3.6-4.2 2.7-.2.2.9 1.3-.8.3.8 3.5.9 1.2 1.6-1.8 4.2 1.1 1.5-.4 1.5-2.2 2.7h-1.8l-1 1.9 2.5 1.2 1.5 2.4.2 3.3 1.6.2-.6 1.6.7.9-.8.3.3 1.2-.8 1.1-2.4 1.4-2.4-1.5-2.3.9-2-1-1.7-3-1.4 1.1-2.8.3-1.6 2.9-.2 2.1h-1c0-.1-1.6-2.5-1.6-2.5l-2.1.9Z"/><path id="JP-10" d="m349.5 241.5-.8.7h-2.9l-1.7-1.3-4.6-.8-1.6 3.5h-1.5l-4.7 3.2-1.3-.6v-2l-1.4-1.5 1-.3-.6-2.3 1-.7-.2-2.5-3.4.2-1.2-.7v-1.3l.5-2.6 1.8-1.3v-1.1l3.2-1.1h1.7l.7-1.6 2.1-.6v-1.3l.9-.1-.3-1.9 1.6-.3.9-1.6 2.7 2.6 2.7.8-.6 1.5 1 .4-1 1.4-.5 3.3 2.9 1.3-2.2 4.9 2 2.2h2.7l.8 1.2Z"/><path id="JP-28" d="m250.8 275.2-1.1.9-1.2-.2-1.7-2.7.7-1.3-.7-.8.3-1.8 1.7-2.7.9-.2v-2.2h-.1l2.1-.9v-1.5c-.1 0-2.8-6.3-2.8-6.3l3.2-1.3 1.6.7.8-.6 3.9.2v1.9l1.1 1.4h2.3v2.6l-.9.5-1.1-.5-.3 2.2 2.7 1.7 1.7-.4.6 2.1h1.7l.3.7 1.8.3-.3 1.9-.7.3.2 1.5 2.3.9-.9.5.8 4.8-.5 1.2-.5-1.3-2.2-.4-2 1.6-2.5.6-4.1-1.7-1.6-1.6h-5.5Zm9 10.7.2.7-4.2 1.8-1.5-2.3 6.6-7.3.4.8-2.4 3.7.8 2.6Z"/><path id="JP-01" d="m363.3 76.8 2.7-2.6-3.9-5.1.4-2.9h1.6c0 .1 1.3-1 1.3-1l5.6 4.6 4.2-1.1v1.1c-.1 0 2.8 1.3 2.8 1.3l2.1-1.2 2.9-3.6-1.8-10.3 1-2 4.1-2.2.9-1.8v-9.5l2.1-3.6.7-5.1-1-6.8-3.2-9.1 1.6-3.1-.3-2.6 1.2 1.4 1.7-.3 2.7-3.1L404 21.5l3.8 7 4.8 5.5 8.4 6.9 3.6 1.9 8.8 2.9 3.1.2.2 2 1.4 2 3.1 1h5.8c0-.1 7.5-7.1 7.5-7.1l2.9-3.8.4 2.1-4.3 7.6-1.6 4.8 5.8 12.3-2.4-1.2v1.6l.8-.6.5 1.3 2.8.3 3.6-3.4 3.2.2-1.3 1.4-3.5 1.3-.8 2.8-1.9-.4-5.3 1.2-3.3 4.2h-1.8l-1.1-2-1.8 1.8 1.1 1.5-6.5-.5-2.2-1.4-2.9.5-5.6 3.6-5.1 5.1-3.9 5.6-1.5 3.2.3 3-1.7 6.8-3.6-3.6-12.5-6.2-4.1-3.6-3.1-.9-3.9-3.1-4.1-.5-3.1 1-6.1 4.3-2.4 3.1-1.3-.9.9.3v-.8c.1 0-1.2-.4-1.2-.4l-.8-2.3-3.1-3.2h-4.5c0-.1-3 4.3-3 4.3l-.4 4.3 4.9 3.4h4l3.8 5 4.3 2.7-4.2 2.5-3.5-1.6-1.6.9.3-1.7-1.4-.3-.8 1.9-3 1.4-.3 3.8-3.2 1.3-1.2 2.1-2.9-1.3-1.1-3.4 1.7-5.6 1-.5v-4.5l-1.9-2.8-1.9-.5-1.3-2.1-1.1-.4-.6-2 1.5-3-.4-4.7.9-1.4 3.3-.7 1.9-1.6.8-1.8 1.3 1.5.9-.2 1.7-3.8Zm14.2-59.2v-1.2l1.1-1.2 2 1.2.5 1.7-1.7 1.4-1.9-2Zm-30.7 78.2-.3 2.1-1 1.2-.9-3.2 3-1.9zM376 12.2l-.6 2.6-1.1-5.2.6.8.9-.5.2 2.2Z"/><path id="JP-34" d="m216.1 288.1-.8-.7-1.4 1.7 1.2 1.2-2.4.5 1.4-3.6-.5-2.6-1.3-.6-2.2 1-1.6 2.5h-1.6c0-.1-1.6-5.6-1.6-5.6l-.5-.6 1.5-1.4.9-2.7-.5-.3 2-2.4 1.1.6 2.7-.9 1.8.5 3.1-1.2-1-1.5 2-1.2 2.3-3.2 5.1.6 2.4.4 1 1.2-.5 2.7 1.5 1.9v4.2c.1 0 1.4 3.3 1.4 3.3l-1.6 2.5-2.3-.5.5-.4-.6-.8-2.9 1.3-.2.9-3.6.4-.9.8-.9-.5-.7 1.6-2.4.9Z"/><path id="JP-08" d="m366.7 239.4.8 5.2 5 8.6-3.5-2.9-4.2-1.7-5.9 1.7-3.9-2.2-3.2-3.7-.8.2-.7-2.7 2.3-.9.5-1.6 1.1.3 1.2-1.7 4.2-.8 1.1-2.9-.6-3.6 1.3-.9-.6-5.1 3.9 3.3 2.5-1.8v-1.7c-.1 0 .4 1 .4 1l3.3 1-3.5 8.9.2 2.8-1 1.2Z"/><path id="JP-17" d="M293.7 220.9v-1.2h-1l1.3-4.6 7.7-3.8 3.5-.7.6 1.9-2.1.6.3 2.1-.6.9-2.6.4-1.7 2.3-1.2-1.2-1.4 2.1.5.2-.8 1.5 1.1-.5 1.1 1.1 1.5-1.3v3.4l-1.9.2-1.3 1.3-1.8 6.6.6 1.6-.5 5.9 1 1.3-1.5 1.8-.3 1.8-1.8.5-2-2-1.7.4-1.9-.7-2.3-3.1 3.3-3 5.4-7.7 1.3-3.7-.8-4.5Z"/><path id="JP-03" d="m392 168 .5.6h-.8l1.3 1.1-1.7.4 1 .7-1.6.8 1.6 1-2.1-.2.2.9 1 .3-1.2.2.5.8-1.5.2-.7-1.2.4 1.8-.8 1.3-.6-1.6h-.9l.2.8-2.5-.6-1.2 5.3-2.4-1-1.5 1.7-1.7-1v-2.1h-2.9l-3.1-2.1h-.9c0 .1.7-2.3.7-2.3l-1.1-.7v-1.2l1.1-1.1-2.1-2.9-.8-2.8 1.4-3.7 1.7-2.1-.8-2.2 1.2-1.6-1.1-.6v-1l1.7-.2-.3-7.4 1.8-1.8 1.3.7 5.5-3.7.7 1 2.3-1.1 1.2.7 2.8-2.6 2.8 5.3-.9 1 1.8 1.2-.8 1.7 2.3 2.3.6 7.3-.8 2.5 1.5-1.7v1.9l.9.8-2.2 1.8.4.8 1.6-.8-.4 1.3-2.7 2 1.5.5-1.4.7Z"/><path id="JP-39" d="m225 313.9-.2 1h-1.6v3.2l-1.1.5 1.3 3.1-2.7-1.5-1.5 1-1.7-1.2-1.5.8 1.6-3.3-1-.3.2-3.8-1-1.7 1.5.7 1.9-3.1 2-1.1-1.8-3.1 3.9-.5 1.2-3.9 2.2-3.2 8.9-2 1.6 1 1.7-.2 1.4 1.2 1-1 1.3.2.6 3.1h1.9l.6 2.9 2 .2-1.8 3.4-.6 3.4-4.6-5.5-3.5-1.1-3 .5-2.5 2.2-2.1.4-.5 1-1.1-.3-.7 4.8-.7-.2-1.4 2.2Z"/><path id="JP-37" d="m237.7 286.1 2.1-1.2.2-.9 3.6.8 1-1.2.5 1.6 2-.2-.2 1.2 3.6 1.8-.6 1.1-4.5-.3-3.3 2.3-1.3-.9-1.3.2-3.3 2.1-1.8-.7 1-3.4-1.4-1.5 1.8.7 2-1.5Z"/><path id="JP-43" d="m179.9 335.6-2.4-1.9-2.8 1.6-1.8-1 4-6.3-.5-1.4.8-.2-.9-.5 2.4-2.3-3.8.3 2.6-2.1.2-1.8-3.1-2.7-.9-2.1h2.1l-.2-1 1.6-1.4 1.4.2.5-1.4 3 1.4 2.8 1.9.6-1.4-.7-1.9 2.3-.3 2 2.9.8 3.7 1.3 1.2-1.2.2-2.9 5.2-1.8 1v2.4l1.8 2.5-1.3 1.6 1.3 2.2-1.9-.2-1.1 1.3-4.3.3Zm-5.8-9.4-.6 2.8-3.4-.6-.3 2.1-3.4 3.9-.4-1.9-.7-.2 1.5-6 2.7-.8.3 2.1 2.1-1.5h2Zm-5 6.8.5-1.3.4 2.6-.9 1.5-1.2-1.9v-.8h1.2Zm5.5-7.6h-.9c0 .1-.2-.7-.2-.7l.9-.9v1.6Z"/><path id="JP-14" d="m335.4 260.6.4-1.1 3.3-2 .3-3.2 2.2 1.6 2.9.5 1.3 1.8.5-2-.8-.6 1.4-.6 2.6 1.2.8 1.2 1.1.5-2.5 1.1 1.1.6-1.3 1.1.4 2.2 2 1-1.7 1.6.4 1.1h-1.3l-.7-3.6-2.4-.6-4.4 1-1.1.9-.8 2.4-1.5-.2-.8-1.2.3-4.5-1.6-.2Z"/><path id="JP-46" d="m171 350.6 1.3-4.1-3.2-4.1 1.1-2.6-.9-2.4.5-1-.7-.6 1-.9 2.2.4.4-.9 1.8 1 2.8-1.6 2.4 1.9-.5 1 3.6 3.5v2.1c-.1 0 1.8.6 1.8.6l1.3 3.2.5-.6 2.1.8.2 2.3-.7 1.3-1.1-.4-1.6 1.8v.8l1.6.6-.6 1.1h1.1c0 .1-2.2 1.3-2.2 1.3l-1 1.9-5.7 3.2v-1.7c-.1 0 1.6-1.3 1.6-1.3l1.1-4.5-2-2.8V348c.1 0-2-.8-2-.8l1.7-1.1.6 1.4h1l1.1-1.9-.5-1.1-2.6-.8-.8.6-1.9 4.3.9 4.2 1.9 1.2-1.5 2.4-1.3-.2-1.1-1.9H170l-.8-1.6.7-.5-1.5-1.4.5-.6 1.3 1 .7-.5Zm4.5 21.2 3.3 1.9-.4 1.7-2.5 1.6-1.6-.3-1.2-2.9 2.3-2Zm8.5-2.6-.2-2 2.2-3.8.4 3.2-2.2 4.7.4 1.8-2.1 1.2-.5-2.7 1.9-2.4Zm-23.2-23.4-.7.5-.5-.8 2.4-2.9-1.2 3.3Zm2.1-4.4v-1l1.8.7-.9.9zm7.5 30.2.7.7-1 .3-1.3-1.5 1.7.5Z"/><path id="JP-26" d="m268.1 268.8.2-1.9-1.8-.3-.3-.8h-1.7l-.6-2-1.7.4-2.7-1.7.3-2.2 1.1.5.9-.5v-2.5h-2.3l-1-1.4v-1.9l1.2.3 5.5-2.9 1.7 1.8-2.2 3.5.9-.9.6.3-.5.7 1.5.3v1.3c.1 0 1.4-.3 1.4-.3l-1.2-1.3.8-.7 1.4-.7.4.8-.2 2.2 1.4 2 4.4.5 1.5 1.8-.6 5.3.9 3.6h1.4l1.6 2.3.4 1.2-.9.6-1.3-1-1.4 1.2-1.8-.5-.5-1.2.3-.6-2.5-3.8h-.7l.1 1-.8.3-1-1.7-2.1-.6-.2-.7Z"/><path id="JP-24" d="m293.2 286.1.5-1-.5-.3-1.7 2.1-.6-.7-.5.9-.8-.7v1.1l-3.8 1.1v2.2c-.1 0-1.1-.4-1.1-.4l-.9.6 1.5 1.2-.2 1.2-3.3 2-1.7 3.7-1.2-.3-1.6-1.9v-1.8l3-3.1 1.6.2v-3.9c-.1 0 .6-1.3.6-1.3l-.7-1.1.6-.3-1.1-1.8.5-.9 2.1-.3.4-.9-1.4-1.6-2-.6.7-2-.8-1.5-.4-1.2 1.3-.5.4-2 2.6 1 2.2-1.1 1.7-5.7-.8-1.5 2.1-.9 1.6 2.4h1c0 .1 1.2 2.8 1.2 2.8l-1.6.9v2.1l-2 2.8-.2 3.8 5.7 2.5 1.7 2.1-1.1.6.7.5-.8 2.4-2.3-.2h1.6c0 .1-.4-.6-.4-.6l-2.2.2Z"/><path id="JP-04" d="m376.1 190.8-.4.7.8.7-1.2.7-1.6 3.5v5.4h-1.4v2.2h-1.7c0 .1.3.7.3.7l-1.8-.7-.6-2.3h-3.3l-1.5-1.7-1.1.5-1.3-.6V198l2.6-.5 1.2-2.5v-2.2l2.4-4.5-1.3-4.4h1.1l.9-3.1-1.8-2.8 2-.2 2.3-1.7h.9c0-.1 3.1 2 3.1 2h2.8l.1 2 1.7 1 1.5-1.7 2.4 1 1.2-5.3 2.5.6.8 2.7-1.5-.7v1.6l-1.6 1.3 1 .7v1.2l-.7-.6-1.6 1.1v.7l1.6.2-1.3 1.3.6 1.2 1 .2-.3.9-.8-.5v1.6h-.9l.5 1.2 1.3-.2-.6.4.3 2.7-2.1-1.8.8-.6-.5-.6-1.1.4-.4-.7-2.4.4-1.6 1.9v-1.3l-1.4.6Z"/><path id="JP-45" d="m194.6 336.8-1.1 4.7.8 1.1-.5 3.4-1.6 2.4-.5 3.4-1.8-.3-.7-1.5-1-.3.7-1.3-.2-2.3-2.1-.8-.5.6-1.3-3.2-2-.6V340c.1 0-3.4-3.5-3.4-3.5l.5-1 4.3-.3 1.1-1.3 1.9.2-1.3-2.2 1.3-1.6-1.7-2.5v-2.4l1.8-1 2.9-5.2 1.2-.2.8.6 1.9-.7 1.7 1.8 2.6-.4 1.4-1.4 1.6.6-.3 1.5h.5l-3.7 4.4.9 1.1-1.5.7.8.9-.9.3-1.1 2.7-1.5 5.4Z"/><path id="JP-15" d="m321.9 219.1 6.5-5 3.7-5.4 2.2-5.5 7.9-4.5 1.7-1.8 1.6-3.5v-3.7c.1 0 1.9-3.6 1.9-3.6l3.2 1.2v2.2c-.1 0 .6 1.1.6 1.1l2.9 1.6-.8 1.5-1.3.8-1.5-.2-.5.8.2 2.8-1.2 3.5 2.1 2-3.6 4.1.6 3.3h-2.9l-.7 1.3-3.3.3-.5.9.5 1.7-1.1 2.5 1.7 1.8-.3 5-2.7-2.6-.9 1.6-1.6.3.3 1.9h-.9v1.5l-2.1.6-.7 1.6h-1.7v-2.6l-1.9-1.5-.4-2.4-.8-.2-2.5.8-1.8 2-.3 1.6-1.3-.6-3.1 1.7-.9-.7.2-1.8-2.8-.3v1.2l-2 2.3-1-4.1-1.5-1 5.2-1.9 3.5-2.6h2.2Zm4.9-23.9-.4 2.2h2.4l-1.4 3.7-2.6 2.1-2.7.5 2.6-4.5-1.3-.3-.9.8V197c.1 0 1.8-2.7 1.8-2.7l2.1-1.5.4-1.5 1.1-.3-.9 4Z"/><path id="JP-20" d="m309.6 263.2.8-1.1-.3-1.2.8-.3-.7-.9.6-1.6-1.6-.2-.2-3.3-1.5-2.4-2.5-1.2 1-1.8h1.8l2.2-2.8.4-1.5-1.1-1.5 1.8-4.2-1.2-1.6 2.2-3-.2-1.2 1.1-.7.2-4 2.1-2.3v-1.2l2.7.3-.2 1.8.9.7 3.1-1.7 1.3.6.3-1.6 1.8-2 2.5-.8.8.2.4 2.4 1.9 1.5v2.7l-3.2 1.1v1.1l-1.9 1.3-.6 2.6v1.3l1.3.7 3.4-.2.2 2.5-1 .7.6 2.3-1 .3 1.3 1.5v2l1.3.6.2 2-2 .9-.5-1.1-2.4.5-.5-1.2-1.4-.6-1.7 2.6-.9-.5-.9 1.9.8.8-1 1.1.7 1.7-1.4 2.1v4.3l-6.2 3.6-2.5-.4-2 .8-.3-2.1Z"/><path id="JP-29" d="m280.9 275.8.8 1.5-.7 2 2 .6 1.4 1.6-.4.9-2.1.3-.5.9 1.1 1.8-.6.3.7 1.1-.7 1.3v3.9c.1 0-1.4-.2-1.4-.2l-3 3.1-4.3.6-.6-.7.7-1.8-1.8-2.6 1.8-2.6 1.7-.5-1.6-3.4.8-1.4-.6-3.7 1.5-4 .5 1.2 1.8.5 1.4-1.2 1.3 1 .9-.6Z"/><path id="JP-42" d="m171 318.3 1.4.2.8 1.6-.6 2.6-3.4 1.8-.7-2 1.4-1.7-.5-.9h-1.8l-2.5.6-1.1 2.4-3 2.1 1.8-3.7-1.1-1.9-.7.3-.9-.8-1.2-2.5.6-2.8.9-.3.4 1.8 1.6.3-.5 2.9 1.1.8.9-1.1 2.1.8-1.5-1.7v-2.3l-3.6-1.2-.3-1.9-1.1 1.4.2-1.4-2.4-1.2.8-3.7.6.4.9-.8v1c.1 0 2.1-.4 2.1-.4l.2.8-.6 1 1 2.5 2.3.5-.3 1.7 2.6 2.3 2.7.7-1.5 1.8.8.7 1.7-.7Zm-17.7-33.1.3-1.1-.5.7-1.8-.3 1.9-3.9-.8-.9.6-1.8h1.4l1.1-1.3.9.9-.5 2.6-2 2.3.9 2.4-.8.7.4.5-1.2.5-.9 3.3-1.3 1.1-.9-.4.7-5.2.3.9 2-.8Zm-9.3 36 1 2.3h-2.3v1.5l-.7-.8h-2.6c0-.1.3-.9.3-.9h1.1c0-.1-.3-3-.3-3l1 .7 1.9-1.1zm5-6.9-.3 1.5 1.5-.6.3.7-1.6 1.4-.7 2.2-.5-2.9h-.8l1.1-.7 1.3-4.2-.2 2.6Zm8-7.5.6-.7.3 1.2-2 3.2-1.8 1-.3-.8.8.4.2-1.9 2.3-2.5Zm-12.6 12.1.8.5-.4 1.3-.7-.5zm2.8-.4-.9-.9h.7l-.2-.7.9.8v1.2c-.1 0-.5-.3-.5-.3Zm2.5-9.8-.2 1.1-1.1-.2 1.3-.8Zm-3.8 11.2-1-1.7.8.9.5-.7-.3 1.6Zm8.9-12.9.5-1.6v2zm3.2-2.5-1.5.2 1.1-.9zm-9.8 6.7-.3-.7h1z"/><path id="JP-47" d="m124.5 457.7 3.2-2.4-1.7-.7-.3-2.2 2.3.4.2 1.3h.9c0-.1 3.4-3.5 3.4-3.5l.3-1.5 1.1.6.4 2-1.7 2.5h-1.7v1.4l-1.1.7-1.1-.4.3.6-2 1.8h-2.3c0 .1 1.7 3 1.7 3l-1.6-.7-1.3 2.7 1.2.7-2.9 1.9-.8-2.6 2.3-2.3-.8-2.6 1.9-.6Zm33.8-40.6-1.1 1.4-1.5.2v1.8l-1.7 1.3.2 1-1.6-.9-.4-1.3-2.6-.9 1.7-.4-.2-.6 2.4-1.4 3.2-.7.7-1.4 1.5-.3.3 1.3.7-1-.5-.9.9-.6.5 2.2-2.3 1.3ZM51 501.7l-1.2 2.2-4.1-1.1.8-.9.8.6.6-2.4zm95.5-73.6 1.3 2-.9 2-1 .2-1.1-1.3v-2.4l.4-1.3h1.4v.8Zm-91.2 71.7h1c0-.1 2.2-3.2 2.2-3.2l-1.7 3-.2 2.4-1.6.4-.8-.7.6-1-1.4-.4.9-1.1 1 .7Zm20.6-6.3h.6l-.3-3.3 1.3 2.5 2.2 1.4-2.8.4-1.1-.9Zm64.1-54.9-1.3.8-.7-1.3 3.6-1.1zm11.2-16.9.7-.3 1.7 1.2v.9h-2.5l-.8-2.4.7-.3zm-46.5 38.9-1.1-1 1.4-.4.8.9-.2 1.2-.8-.7Zm62-43.4-1.2 1.8h-1v-.8l2.1-1Zm-93 75 .5-1 1.1 1.1h-1.6Zm53.4-46.7 1.3-1.1-2 2.2.6-1.1Zm-2.5 6.5.2.5-1.5-.2zm2.3-4.7v1l-.5-.6z"/><path id="JP-27" d="m269 280.8.3-2.8.5-1.2-.8-4.8.9-.5-2.3-.9-.2-1.5.7-.3.2.7 2.1.6 1 1.7.8-.3v-1.1h.6l2.5 3.8-.3.6-1.5 3.9.6 3.7-.8 1.4-9.7 2.5-.8-1 2.5-.8 3.8-4Z"/><path id="JP-33" d="m242.5 279.7-1.4 1.1-.5 1.7-4.2-.5-.6-.8-3.7 1.5-.7-.8-1.3-3.3v-4.2c-.1 0-1.6-1.9-1.6-1.9l.5-2.7-1-1.2.6-1.1 2.1-.4v-1.5l1.8-.2 1.7-3.5 2.9.6 1.5 1.6 3.4-2.4v1l2.4.6.9 2.6 4.2-1.6v2.2c.1 0-.8.2-.8.2l-1.7 2.7-.3 1.8.7.8-.7 1.3 1.7 2.7h-1.3l-2.1 2.8-2.6 1Zm5.1 2.8.3-.6-1.5 1.4V282h-1.8l.4-.8 3.5-1.3-.2 2.9-.8-.3Z"/><path id="JP-44" d="m182.1 313.1.8-1.6-1.1-1.5.8-1.2-.6-1.1 1.2-2.4 1.6-1.3h3.7l.1-2.1 4.5.6 1.5-2.2 1.6-.5 2.7 2.4.2 2.8-.7 1.3-1.3-.4.2 1.1-1.1.7-1.6-.4v.7c-.1 0 .2 1.4.2 1.4l1.4.5 1.8-.8 1.3.9 2.9-.6-1.8 3.2 1.7-.2-.7 1.2 1 .3.6-.7.6.8.6-.8v.8l-1.4.2-.6 1.6 3.6 1.1-2 .3.8.7-.8.7.6.7-1.4 1-.9-.5-.2 1.5h-.5l.3-1.5-1.6-.6-1.4 1.4-2.6.4-1.7-1.8-1.9.7-.8-.6-1.3-1.2-.8-3.7-2-2.9-2.3.3.7 1.9-.6 1.4-2.8-1.9Z"/><path id="JP-41" d="m162.3 308 .6.9.6-2.4-1.7-1.3.5-.8 1 .7-.3-2.3h1.6c0 .1.7 2.3.7 2.3l1.3-.3 4.5-.2 3 1.9 2.1-.9v2.2l-2.8 2.2-.7 2.2h-1.3l-1-1.1-1.9 2 1.4 3.4-2.7-.7-2.6-2.3.3-1.7-2.3-.5-1-2.5.6-1 .2.2Zm-1.5-8.7-1.5-1.3 1.2-2.1 1.3.5-.3 1.5.8.3-1.4 1.2Zm.2 6.4.4-1 .8.9-1.1.6v-.5Z"/><path id="JP-25" d="m287.9 264.8.8 1.5-1.7 5.7-2.3 1.1-2.6-1-.4 2-1.3.5-1.6-2.2h-1.4l-.9-3.7.6-5.3-1.5-1.8.8-1.3h1.5c0 .1 1-2.5 1-2.5l1.2.6 2-2 1.1.3-.4-3.1 2.4.8.9 1.1v1.5c-.1 0 1.5.5 1.5.5l.8 3.3-1.2 3.3z"/><path id="JP-32" d="m209.9 268.5 2-2.9 4.3-2.7.5-2.3-.8-.7 6.5-1.9v-.6l1.1.1 1.3-1.5.9 1 3.5-.2-1.6.8 1.6 1.6-.3 4.5-3 1.3.8 1.1-1 2.2-5.1-.6-2.3 3.2-2 1.2 1 1.5-3.1 1.2-1.8-.5-2.7.9-1.1-.6-2 2.4.5.3-.9 2.7-1.5 1.4.5.6-1.2 1.1.3 1.2-1.1 1.5-.7-.6-1.9.8-1-1.6.5-1.5h-1.8l-.6-1.6 1.1-1.6-.8-2.4 2.6-.4 5-5.5 4.2-2.9Zm17.4-26.3-.8-.5v-1.8l1.8-1.3 2 1.7-.3 1.4-1.2.2.4.8zm-44.3-32 .4 1.3-.7.8-1.2-.5-.3-.9 1.9-.7Zm41.5 33-.6 1.9-1.1-.8.2 1.3-1-.6 1.3-1.7h1.3Zm1.1 1.4-1.3 1.2v-1.6l.8-.5.4.8Zm-2.5 1.2 1.2.8-1.1-.2v-.7Z"/><path id="JP-11" d="m331.8 248.8-.2-2 4.7-3.1h1.5l1.6-3.6 4.6.8 1.7 1.3h2.9l.8-.7.8.4.7 2.7.8-.2 2.4 5.5-.5 1.5-2-.5-2.8 1.2h-1.4l-.3-.8-2.7.8-1.7-1.6-5.3-1.5-1.5 1-1.1.3z"/><path id="JP-22" d="m339.1 272.8-2.2 3-.2 1.9-3.1 1.2-1.7-1.9.7-1.5-.4-3 .6-.6-.5-1.5.5-1.2 2 .2.3-.7-1.7-1.5-2.2-.5-2.6.8-.7 2.6-3 1.6-.6 2.3-2.6 3.6.6 1.6-4.3-1.5-9.7-.3.3-3.4 2.6-1.5 3.6-6-.2-1.4 6.2-3.6v-4.3l1.5-2.1.9 3.1-.3 4.3 2.1.3 1.3 3.1 1.9-.5-.4-2.6.4-2.2 1-.9 2 2 4.4-1 1.6.2-.3 4.5.8 1.2 1.5.2-.8 1.9 1.5 2.3-.6 1.9Z"/><path id="JP-09" d="m360.8 224.6.6 5.1-1.3.9.6 3.6-1.1 2.9-4.2.8-1.2 1.7-1.1-.3-.5 1.6-2.3.9-.8-.4-.8-1.3H346l-2-2.2 2.2-4.9-2.9-1.3.5-3.3 1-1.4-1-.4.6-1.5 9.8-5.7 4.6 1.2 1.2 1.8h.8l.2 2.1Z"/><path id="JP-13" d="m344.4 277-.8-.8.2-1.8 1.7 1.3-.2 1.4-.9-.2Zm-2.1 5.9-.3 2.2-.5-.9zm10.5-27.8-1-1-.5.4-.3 1.5 1 1.3h-1.7l-.8-1.1-2.6-1.2-1.4.6.8.6-.5 2-1.3-1.8-2.9-.5-2.2-1.6-2-1.1-1.5-3.1 1.5-1 5.3 1.5 1.7 1.6 2.7-.8.3.8h1.4l2.8-1.3 2 .5 1.4 2.9-1 1.2-1.1-.4Zm-5.2 35.3-1.4-.4-.2 1.6 1.4-.2zm5.1 24 .3-1.6-1.8-.9.6 2 .9.6Zm0 0 .3-1.6-1.8-.9.6 2 .9.6Z"/><path id="JP-36" d="m255.8 296.8-6.3 3.8-1.7 2.4-2-.2-.6-2.9h-1.9l-.6-3.2-1.3-.2-1 1-1.4-1.2-1.7.2-1.6-1 .6-3 3.3-2.1 1.3-.2 1.3.9 3.3-2.3 4.5.3.6-1.1 2.7-.8.7 1.4-.6 3.9.5.5.3-.5 1.3 1.9-1.5 1.7 2.2.2-.3.4Z"/><path id="JP-31" d="m229.2 259 1.4.3 3.6-1.8 3.1.7 7-.6 4.7-2 2.7 6.3v1.5c.1 0-2 .9-2 .9l-4.2 1.6-.9-2.6-2.3-.6v-1l-3.5 2.4-1.5-1.6-2.9-.6-1.7 3.5-1.9.2v1.5l-2.1.4-.6 1.1-2.4-.4 1-2.2-.8-1.1 3-1.3.3-4.5Z"/><path id="JP-16" d="m301.2 228.2 4.1.5 1.1-1.1.7-2.8 4-1.3 1.5 1 1 4.1-.2 4-1.1.7.2 1.2-2.2 3-3.5-.9-.3-.8-1.3.8-.2-.9-2.7.2-3.6 4.2-.4-1.5-1.5-.7-1.6 1.6.5-5.9-.6-1.6 1.8-6.6 1.3-1.3 1.9-.2-1.3 2.2 2.6 1.9Z"/><path id="JP-30" d="m276.6 303.8-1.2 1.8v-1.1l-4.8-1-3.4-3.2 1.2-1.1-3.9-2.3-.7-1.4H262l.2-2.3 2-1.2-1.8-1 .9-1.4 1.1-.3-2.2-3.1.5-.6.8 1 9.7-2.5 1.6 3.4-1.7.5-1.8 2.6 1.8 2.6-.7 1.8.6.7 4.3-.6v1.8l1.6 1.9 1.2.3-.5 1.5-.9.3.4 1.4z"/><path id="JP-35" d="m194.7 292.2-.6-.4-1.1 1.2-.6-.9-2.4 2.4-2.1-.8v-.8l-2.1-1.2-2.8 2.9.2-3-1-1.5 1.4-1.8-1.3-2.3.7-1.5 2.5-.4-1.5-.8.3-.8 2.4.5 1.1 1.1 4.4-1 4-5.5 1.6-.4.8 2.4-1.1 1.6.6 1.6h1.8l-.5 1.4 1 1.6 1.9-.8.7.6 1.1-1.5-.3-1.2 1.2-1.1 1.6 5.5h1.6c0 .1-.4 5.3-.4 5.3l-1.6 1 .3 2.8-.5-1-5.2-3.2-.5 1.1-.9-.2 1.1-1.1-1.2-.7-4.3 1.4-.5-.6Zm14.6 3.5-1.4.3-.6-1.6 1.1-.9 1.3 1.1 3.2-.7-1.9.9v1.1l-1.4-.8-.4.6Z"/><path id="JP-19" d="m339.4 254.3-.3 3.2-3.3 2-.4 1.1-4.4 1-2-2-1 .9-.4 2.2.4 2.6-1.9.5-1.3-3.1-2.1-.3.3-4.3-.9-3.1-.7-1.7 1-1.1-.8-.8.9-1.9.9.5 1.7-2.6 1.4.6.5 1.2 2.4-.5.5 1.1 2-.9 3 1.5 1.1-.3 1.5 3.1 2 1.1Z"/><path id="JP-06" d="m361.3 199.9.3 4-1.3 1.6-2 .3-1.4-1.1-1.2.4-.9-1.6-2.4.6-1.4-.5-2.1-2 1.2-3.5-.2-2.8.5-.8 1.5.2 1.3-.8.8-1.5-2.9-1.6-.8-1.1v-2.2c.1 0-3-1.2-3-1.2l1.1-3 2.8-2.9 2.2-8 2.4.4 1.3-.7.2 1.1 1.5.9 5.4 1.5.6 1.7 1.7.9 1.8 2.8-.9 3.1h-1.1l1.3 4.4-2.5 4.5v2.2l-1.2 2.5-2.6.5v1.9Z"/></g></svg>