<svg xmlns="http://www.w3.org/2000/svg" xmlns:amcharts="http://amcharts.com/ammap" id="Layer_1" viewBox="0 0 512 512"><g id="_x3C_defs"><amcharts:ammap bottomLatitude="40.549" leftLongitude="46.489" projection="mercator" rightLongitude="87.316" topLatitude="55.433"/></g><g><path id="KZ-AKM" d="M245.6 182.1h2c0 .1 1 2.3 1 2.3l1.8-.8 2.3-.4v1.9h4l1.2.7 1.4.2.8-.4 2.6.9v-4.2h2.6l.7.9 1.7.7 1.6 1.4.7-.7-.3-.4.4-.6.5.4 1.5-1.7v-.6c-.1 0-.9-.3-.9-.3l-.3-1.4h1.8l.5-1 .5-.3 1.3.2.9-2.2 1.4-.6.2-.7 2.3-.9-1-1.2h.7c0 .1-.6-1.9-.6-1.9l1.9-1.7-.7-1h.4v-1l-.2-.7h-.8l.2-1.5h-1.4c0-.1-.4-.9-.4-.9l-.7-.2v-.7l-.9-1.3.4-.6.9-.2v-.5l.6-.5.3.4.4-.7h-.6v-1h1.8l.3-.3-.6-1.3h.9l.1-.4h1.2v.7h1.7v-1.2h1.2v1l.8.2v.5c.1 0 .7.1.7.1l.3 1.7.8.2.4-.9h-.7c0-.1-.2-1.1-.2-1.1h.5l.2-1.1h.7c0 .1.3-.4.3-.4h.6l.5-.5h2.7l.1 1 .7.2v2.1c.1 0-.2.7-.2.7l.4.2.3-.4 1.5.4.9-.4v1.1c.1 0-.4.3-.4.3v.5h-.4v.6l-.3.3h2.4l.6-.4 1.3 1.9.2 1 1.2-.2-.2-1.5 1.1-.2.3-1.7h5.2v1.7l2 .4v.4h1.2l1.1-.9h.8c0-.1.4-.9.4-.9h1.2v.8l2.5 2.8-.9 2.2.4 1.1-.8.4v.7l.8 1.5 3.6.4 2.9-.2.6-1.5 2.4-.5.5.5 1.1-.6h1.3l.4-.6h.4l.3 2.1.5.6.3 3.6 1.6-.7 2.3 1.2h1.7l.2.8h.9l.9 1.6 4.7.4v.4h.7l.3 12.6.3.5h-.7c0 .1-2.1 1.9-2.1 1.9v3.7l2.2-1.1.6 1.4h1.4c0 .1 1.2.8 1.2.8l-1.4 1.1-1.2-.4-2.7 1.8-.2 1.4-1.3 1.6-2.1-.6-.8 1.2-.4-1h-.3c0 .1.2.5.2.5l-1 .3-.3-.5-.6.3-.2 1 .5.2.8 1.7v.4c-.1 0 .3.3.3.3l.7-1.4 2.2.8-1.8 1.7-3.2 1.1.4 1.1-1.7.4-.5.8-2-.8-.7 1.3h-.5c0 .1.2.8.2.8l-.8 1h-1.8v.8l-.4-.2-.6.6.3.5-.9.8 1.3.9-1 .5-1.4-.9-.5.8-.9.3.3 1.8-.8.2.2.6-1.5-1.2-2.6.3-.3.6-.8-.3 1.1-1.6-.2-.9.4-.5-.5-.6.8-1.1-1.4-1.2h-.9l-.2-.6-.8.3-.2-.6h-.6v.6l-1.8.8-.3 1.8h-.9l-.4.8h-1.1c0-.1-1 .7-1 .7l.3.6-1.6 1.1-1.9.5-.2 4-.9-1.5-2.6 1.2.8 1.9-.4.8-1.4.2-2.7 1.6-.8-.4v-1.4l1.1-1.6-.3-.6-.6.2-.4-1.1-3.8 1.1-2.2.2.3-1.6h-.7l-.8-1.6-.7.7-.2-1.1-1.7.9.4 1.4-1 .6-.9-.5v1.9l-.8-.4-1.6.8-1.6-1h-.7l-.2-.6-1 .3-.4-.8.9-1 .5-2.4.5-.8-.3-1.6.6-.4.2-4.3H278c0 .1-.4.8-.4.8l-1.5.5-2.7 2-1.2-.9-2.5.2.8 1.1v1.1l-1.5 1.1-5.3.7-2.9 1.8-1.7-2.7 1.4-.8-.8-2-1.1-.4-3 .9-3.3-1.2-1-.7-1.5.4-.6-2.6-.9.4-.4-.3-.6.3v-.7l-.4.4v-1.6c-.1 0-2.4-1.3-2.4-1.3l-.8 2.5-2.4.3-.5-1 .8-3.8-2.6-2.5.7-.6-1.1-1.4 1.7-1.6-.6-.4 1-3-1.1-2.3h-1.5l-.6-2.2 2.1.2 3.2-1.6 1-5.4 1.5-1.3v-4.7Z"/><path id="KZ-AKT" d="m159.8 301.8-2.9 1.2-1.1 2-.5 2.6-.5.3-.4 1.2-22.6 7-1.8-12.9-1.1-3.1-1-2 .2-.7-1.4-1.9-.2-2.3-9.7-3.2-3.7-3.7-.8-3-1.8-2.3 1.4-10.2-.8-1.4-.3-3.4-1.9-2.1.4-1.7-1.1-3.7.4-2.9.4-.3v-2.9l-2.3-.2v-.8l-.9-.7-.4.7-.8-.2-.3 2.7-5-.8.5-1.2-.5-1.2.4-1.1-.8-4.3-.6-.2-.6 1.4-.7-.4.2-.5-1.5-.7-1-.9v-1.7c-.1 0 .7-2.7.7-2.7l-.4-1 .8.4.5-1.3.9-.8h1.2l.2-.9 2.6.2 1.2-.7-.3-.5 1.1-1.7h1.4l-.7-.9 1.2-2.1.5-1.7-.2-1-1.4-1.1.2-2.9-.9-1.3 1.3-1.4-.2-.5 1.5-1.8-.2-.3.6.2 1.4-1.8-.9-3.4.6-1.6 1.4.2.7.9.6-.7h.8l.2-.8.5-.3.6.5-.5 1.4.4.6 3.1 2.8 1.6-.2.3.6 2.3 1.4.5-.8 2.9-1.5 1.9-1.4v-1.5l.7-1.9 2 .4.5-1.2h1c0-.1-.1-1.8-.1-1.8l.4-.5 1.7 1.9 1.2.3.2-.6-.3-1.4h1.3l.9.5.7-.4.8.5 2-.8.4 1 .9.5.7 1.7 1.9 1v-.8c.1 0 1.1-.5 1.1-.5h.6l.3.6.5-.2.4-4 .8-.2.7.7.7-.3.2.5.7.2 1.1-.8.2.9.9.2.5-.7v-.6l.9-.6.4.2.6 1.4h1.6l.7.3.5 1-.5 1.3.4 2.2.7.2 1.5-.4v1.2l.9.4.6 1 3.8.4.8.5.3-.2 1.1.3 1.1-.2.8 1.1-.3.4.2 1.3 3.7-1.3 2.1-4.7.8-.7 1.4.4.2 1.1 1.5 1.9 1.9.4 4.3.2 2.2-.5 5.1-2.1.5-.8 1.5-8 1-.3.8.4.9-.4.5-1 .9 1.3.7 3.3 1 .4 1-1.1 1.8 1.1v.8h-.4l-.4 1.5 2.2 2.1-1.4 1 .2 2.2 1.7-.5 1.1 5.7 1.6 2.6.2 1 2.7 4 .2 1-.6 2.1-1.9-1.6-1.9 1.7-.2 2-1.9 1.2.4 2.2.4.6-1.4-.5-1 1.4 2.9 4.5-.4.3-.2-.2-1.8.3-.3.9h1.6c0-.1.9 2.9.9 2.9l3.4 3.4 2.6-1.4 1.3 1.1v.7l-.7 1.1.5 1.6 4 1.4.7.8 2 .8 2 1.4 2.6 5 2.2 3.9 1.1.5-2.7 3-14.4 10.1-.9.3-.5-.8-3.5-.5.5-1.2-3.4-4.3-1.5.2-3.1-5.1-7.4 1.7-4.2 11.3-5.1-.4-.4 3.9-3.7.3-4.9 4.6-8.5 11.3Z"/><path id="KZ-ALM" d="m397.2 279.7 2.1 1.7h1.5c0 .1.6 1.7.6 1.7l5.4-.6 3.8 5.4 5.8-2 2.6 1.1v1.3l7.7 3.8h3.8l.7 1.1 1.3-.5.8 1.4.5-.8h.4l-.5.7h.4l.9.4.7-.7-.2.6-.6.5h.7l-.4.7 4.1 4.7 1 3.6 2 2.2-.2 3.6.4.4 1.3-.5 1.7 1.3 2.3.7.3 1.2-.5 2.2-1.3 1.9-2.2-1.8-.7-.2-3.6 1.4-.7-.9h-1l-.4-1.7-1.2-1-.8.2-1.7 1.4h-.6c0 .1-.3-.2-.3-.2l-.6.6-.5-.2-.4.4h-.8l-.7.6h-.7c0-.1-.4.6-.4.6h-1.5c0 .1-.7.8-.7.8l-2-.7-.4.6-1.1.5h-1.7c0-.1-1.1 1.1-1.1 1.1l-.9-.4-1.1.6-1.7-.3v.7h-.4l-2.6 2.1 1.5.2.4 1.1.5.3 3-.7v.4h.7l.3.6 1.4.9v.5l-1.5.9.5.8-.7 2.2.9 6 1.3 5 2.8 6.3-1 2.6 1.2.2.5 1.9-.3.5-2.2.3-2.5 1.5.2.9 1 .8 1 .3.2.5-1.1.2-1.2.9H419l-.5 2-.6 1.1.5 1.5.8.5-.8.9.2 1.8.6.4v.5c-.1 0 .2.4.2.4v.6c-.1 0-.5.2-.5.2l-.6-.2-1 .4v-1.1l-.4-.9-1.3-.8-.5-1h-.7l-.3.2-.2-.4-2.2-.5-.6.4h-1.3l-1.8-2.3-1.7-1.1-.5-.9v-1.3l-.9.2-.3.5-.6-.6h-1.2l-2.5-.9-.5.2-.3-.5-1.3-.3-.7-.6-1.1.4h-.4c0-.1-.5.4-.5.4l-1.9-.4-.3.4h-.6c0-.1-.6.3-.6.3l-.5-.5-.6.3-.4-.4-1.5-.2-.4-.4-4.1-.4-2.3.4-1-.8-3-.4h-1l-1.1.6-.4.7-2.5-.2-.4.5-1.7.4-1-.9-2.8.2-1.3-.7-1.4.4-.2-.6-.6.3-.7-.4H362c0 .1-.1-.1-.1-.1l.7-.2.3-.7-3.5-1.3-.3-1.2-.5-.2.2-.7-.5-.3v-1.4c.1 0 1.8-2 1.8-2l-.4-.7-1.8.2.2-.6-1.1.2-2.1-.7v-1.1l3.1-2.8.3-.8-.3-1.2.8-1.4v-2.1l-1.3-.9-.7-.9h-.8c0-.1-1.4-1.2-1.4-1.2l-2.7-.3-2.3-2.2-.4-.6.6-2.1-1.2-2-3.9-2.7-.7-1.3v-2.1h-3.5l-.2-3.2 3.7.3-.7-1.8-.5-6.4 1.2-2 2.1-3.9 7.3-7.3 7-4 2.9.6 3.7-.7 4.2.7v.5l.7.2.8-1 .3 1 .4-.5 1.1.4.4-.9 3.8 1.3-1.3-1.3.8-.2 1.3.7 1.2-.2 1.2.6.4 1h.9v-1.3l3.7-.4-.5-9.2.3-.6 3.2.7 1.8-2 1.6 1.6 2-2.5 2.1 1.7Z"/><path id="KZ-ATY" d="M47.5 297.9h-.3l-.5-.8-.6-1.9.9.2.6.7.2.8-.3 1.1ZM94.6 244l1 .9 1.5.7-.2.5.7.4.6-1.4.6.2.8 4.3-.4 1.1.5 1.2-.5 1.2 5 .8.3-2.7.8.2.4-.7.9.7v.8l2.2.2v2.9l-.3.3-.4 2.9 1.1 3.7-.4 1.7 1.9 2.1.3 3.4.8 1.4-1.4 10.2 1.8 2.3.8 3 3.7 3.7 9.7 3.2.2 2.3 1.4 1.9-.2.7 1 2-1.1-.7h-1l-.6-.5-.8.4-1.3-.4-.3-1-.5-.2-.6.4-1.5-.6V296l-.4-1.3h-.6l-.9.5-.8-.5-1.5-2.1-2.9 2.9-1.4-.2-4.8.5-2.3.9h-1.8l-3.5.9-.2.4-1.9-.2.2.8-.7 1.3-2.8 2.1 1.3.8-2 1.5-3.2 1.3-1.9-.3-.4 1-4.4-.8.7-.2-.5-.2v-.6l.3-.5h.9l-.6-.6.7-.3-.8-1.2.8-.4-1.3-1.1.7-.3-.7-.5v-.5c.1 0 1-.2 1-.2l-.3-.7.7-.7.2.3v-.5l-.3-.2.5-1.5 1.1-.9-.3-.2.5-.2-1-1v-1.6l.5-.4-.5-.2v-1.3h-1l.4-.4-.6-.4.2-.9h-.3l-.9.8-.6 1-.2-1.3h-.7c0 .1.1-.5.1-.5l-.8-.6.5-.3-.5-.9-1.8.4-.8.7-.6-.6-.3 1.5-.5.3-7.3-2.2v.7l.8.7-.3 1.2v-1.1c-.1 0-.9-.8-.9-.8l-.3-1.1-1.3.9.6-.5.4-1.3-1 .8.3-.7-.7-.8-3.2-.6-1.8 1v.5l-2.9-.3-.5.5h-.4l-.9 1.3h-.4v-.8H58l-.7.7-.6 1.7-.3-.2v-.7l-.5.3-.4-1.2-.9 1.6v-.7c-.1 0-.6.2-.6.2l-1.2 2.3-.2-1.5-1.2 1.1-1 1.9h-1.3l-.5.7v.6l-.6.7-.9-.4v.9l.7.5h-.6l.6.9-1.4-.6-.3.5-.5-.2-.2 1.1-.8-.9.6 1.8-2.1-1.3-.3.2-.5-1.2h.5c0-.1-.5-1-.5-1l-.9-.2 1.6 3-.5.5-.4-.3-.6-2.3-1.1-.9h-.6l.3.6h.5l.3 1-.8-.6.2.6H40c0 .1-.3-1.1-.3-1.1l-.5-.2.8 1.7-4.5-2.2-.6-1.1-1.3-.5-.4-.8h-1l-.2-.6-.8-.2.4-1.3.8-.7h.9l1.2 1.5h2l1.1-1.3-.4-1.2-2.3-3.1-.6-1.4-1.1-2.9-.4-2.9-2.8-.3-2.4-4.4-1.6-1.5-4.5.3-3.4-1.3-.4 2.5-2.2-1.3-1-1.2.6-.4-1.8-3 1.7-1.1h.4l.1-.3-1.4-.5v-1.8c.1 0-1-.9-1-.9l1.8.6h1.4l17 2.1 3.4.9 6 2.4v-1.9l3.7.2.7-.5h2.1l2.5-2.5 6.7-4.5h.8l1.1-1.1.5.3 1.1-.7.7-2.1 2.5-.2 1.5-.7 5.2.9.3.7-.4.3v1.5l3.8.9.4-.8h.5l2.7 1.4h1.3l.9-.6-.3-.9.8-3.6h1.5l-.2-4.6 1.1.5.7-1.7.8.4h4.2l1.9-.6-.3-.7 2.8-2.6Z"/><path id="KZ-KAR" d="m339.1 204.6 4.2 1.5v1.4l.6.8-.8 3.1v1.9l-.6.2-.3.7.5.8-.9.9 1.8 2 3.6-.6 1-.8.2.5 2 .4.7.8-.7.5.8 2.1.9-2.1 1.7 1.8h.7l.9 1.7-.4.3.3.9 1.4.6.2.8-.4.2.2.4-2.5.7v.4l-.8.5.4 1.4h.8l.2.5 1.2-.4 2.5-1.8.6-.8h3.6c0 .1.6-.7.6-.7l.6-.2.5.6 4.3-1.2 1.6.9h.6c0-.1.6-1.7.6-1.7l.3.2 1-.6 1.4-.2 1.4.8.5-.8v-1.9l.7-3 1.3-1.2 2.4-.6 2.2 2.3h2.6c0 .1 2 1.4 2 1.4l.7 2.6-1 1.3 1.4 1-.3 1.1-1.8 1.5-1 1.3-2.3 1.2h-1.1l-.3 1.5.4.6-.3 1.1.3.9-1.3 2.7-6.1 2.6-.2 1.1 1 1.1v.6l1 .3 1.8 1.5v1.2l2.2 1.8-1.2.5-.3-.4-1 .5-.2 1.9.9 1.7 5-.8.5 1.5-.5 2.8-2.3 2.3-1.6-.3-.6.6v1c.1 0-.8.3-.8.3l.5.9 1.1.5.2.8h2.5c0 .1-.3.8-.3.8h-1.1l-.3 1 1.6 1.4h1.2l.9.6-2.3.8.7 1.1h-.8l-.1 1.5h-.6l-1.3 4.2.5.8.8 3.7-1.1-.5-1.2.2v1.4l-.5 1.3-1 .4 1.1.6.6 1.1 1.2.9 1.8.7.6-1.6.8-.5 1.4.7 1.2-.5.5 9.2-3.7.4v1.1l-.9.1-.4-1-1.2-.6-1.2.2-1.3-.7-.8.2 1.3 1.3-3.8-1.3-.4.9-1.1-.4-.4.5-.3-1-.8 1-.7-.2v-.5l-4.2-.7-3.7.7-2.9-.6-7 4-7.3 7.3-1.1 1.8-20.2-.2-11.7.4h-29.3c0 .1-23.1-.2-23.1-.2l-.2-1.7-.6-.2-4.8.3-16-4.3-2.3-1.3-2.2-2.5-2.5-.2-6.1-3.3h-1.3l-6.1-2.4-.5-.5-1.2.7-3.6-2h-1.6c0 .1-3.3-2.5-3.3-2.5l-5.1.9 3.4-2.6 14.4-10.1 2.7-3-1.1-.5-2.2-3.9 3.5-3.1-.7-2.2 4.6-1-.9-1.2.4-.7-.5-1.1h2.6c0 .1.6-4.6.6-4.6l9.4 1.6.9-.5h.9c0 .1 1.4-.4 1.4-.4l.8-2h3.8c0-.1 3.7-4.2 3.7-4.2l1.9-.2.8-2.8 1.6.2.7-1.6 1.9-1.7 2.6-1.5 6.8-8.2-.6-1.2.3-.4-.4-.8.4-.5 2-.3 2.2-1 .9-.7 1.1-1.7-.2-.5-1.3-.7v-.4l-.8-.5v-1.1l-.9-1.1 2.5-.2 1.2.9 2.7-2 1.5-.5.4-.7h3.8c0-.1-.2 4.2-.2 4.2l-.6.4.3 1.6-.5.8-.5 2.4-.9 1 .4.8 1-.3.2.5h.7l1.6 1.1 1.6-.8.8.4v-1.9l.8.5 1-.6-.4-1.4 1.7-.9.2 1.1.7-.7.8 1.5h.7l-.3 1.6 2.2-.2 3.8-1.1.4 1.1.6-.2.3.6-1.1 1.6v1.4l.7.4 2.7-1.6 1.4-.2.4-.8-.8-1.9 2.6-1.2.9 1.5.2-4 1.9-.5 1.6-1.1-.3-.6 1-.8h1.1c0 .1.4-.7.4-.7h.9l.3-1.8 1.8-.8v-.5l.5-.1.2.6.8-.3.2.7h.9l1.4 1.2-.8 1.1.5.6-.4.5.2.9-1.1 1.6.8.3.3-.6 2.6-.3 1.5 1.2-.2-.6.8-.2-.3-1.8.9-.3.5-.8 1.4.9 1-.5-1.3-.9.9-.8-.3-.5.6-.6.4.2v-.6l1.8-.1.8-1-.2-.7h.5c0-.1.7-1.4.7-1.4l2 .8.5-.8 1.7-.4-.4-1.1 3.2-1.1 1.8-1.7-2.2-.8-.7 1.4-.4-.3v-.4c.1 0-.6-1.7-.6-1.7l-.5-.2.2-1 .6-.3.3.5 1-.3-.2-.4h.3c0-.1.4.9.4.9l.8-1.2 2.1.6Z"/><path id="KZ-KUS" d="m244.8 136.7 1.4-.4.9 2.8-.4.5 1.4 3.8-2.3.8 2.3 1.4h.9l.7 1.8-4.6 2.1 1.3 4.1 1.6-.3v3.3l-1.5 1.7.5 1.6 2.1.2v5.4c.1 0 2 1.2 2 1.2l-.3 1.4-1.8-.4-.8.6h-1.3l-.5.6.4 2h.6l.1 1.9h-.3v2.3l-1.3.3-.2 6.4v4.7l-1.6 1.3-1 5.4-3.2 1.6-2.1-.2.6 2.1h1.5l1.1 2.4-1 3 .6.4-1.7 1.6 1.1 1.4-.7.6 2.6 2.5-.8 3.8.5 1 2.4-.3.8-2.5 2.3 1.3v1.6c.1 0 .5-.4.5-.4v.7l.6-.3.4.3.9-.4.6 2.6 1.5-.4 1 .7 3.3 1.2 3-.9 1.1.4.8 2-1.4.8 1.7 2.7 2.9-1.8 5.3-.7 1.5-1.1.7.5v.4l1.4.7.2.5-1.1 1.7-.9.7-2.2 1-2 .3-.4.5.4.8-.3.4.6 1.2-6.8 8.2-2.6 1.5-1.9 1.7-.7 1.6-1.6-.2-.8 2.8-1.9.2-3.7 4.1h-3.8c0 .1-.8 2.1-.8 2.1l-1.4.5h-.9c0-.1-.9.4-.9.4l-9.4-1.6-.6 4.7h-2.6c0-.1.5 1 .5 1l-.4.7.9 1.2-4.6 1 .7 2.2-3.5 3.1-2.6-5-2-1.4-2-.8-.7-.8-4-1.4-.5-1.6.8-1.1v-.7l-1.3-1.1-2.6 1.4-3.4-3.4-.9-3h-1.6c0 .1.3-.7.3-.7l1.8-.3.2.2.4-.3-2.9-4.5 1-1.4 1.4.5-.4-.6-.4-2.2 1.9-1.2.2-2 1.9-1.7 1.9 1.6.6-2.1-.2-1-2.7-4-.2-1-1.6-2.6-1.1-5.7-1.7.5-.2-2.2 1.4-1-2.2-2.1.4-1.4h.4v-.8l-1.8-1.1-1 1.1-1-.4-.7-3.3-.9-1.3-.5 1-.9.4-.8-.4-1.4-1.5-.8-1.7h-.4c0-.1-1.2.5-1.2.5l-2.1-1.1-2.2-.2-.9-1.5v-1.3h-3.8l-1.5-.5-1.2-1.2 1.5-1.5v-.5c.1 0-1.3-.3-1.3-.3l-2.7-1.8v.8h-.5l-1.1-1.3v-1.2c.1 0 2.7-.4 2.7-.4l2.8-2.8 2.7-.3.9-1.2 2.1-.8 1.3-1.3-1.1-2.4v-.9l-1.6-.3v-2c-.1 0-1.6-.7-1.6-.7l.2-2 1.5-.4.5-.9 2.2-1.9-.6-1.4 1.1.2 1.5-1.2 1.6.9 1.1-1 1.3.6.9.9.9-.7h1.4l.6-.3 1.6 1.2 1.6-1.1-.3-2.3-2.3-.3-1.5-.6-1.6-1.8-.6.7h-1.3l-.7-.1-.8-.9h-1.9c0-.1-.7-.6-.7-.6l-.3-1.8.9-1 .3-1.3 1.5.2.2.5.6.2 1.6-.9v-.5c.1 0-.3-1-.3-1l-.6-.3h-1.1l-.7.7-2.4-.2-.7-.6-2.3-.4v-1h1l.5.6v-1.2l.9-.4 1.3-1.7v-.7c-.1 0-1-1-1-1l-1.8-.3v-.7c.1 0 .6-.5.6-.5l1.5-.2.4.8h.8c0 .1.3-1.2.3-1.2l-.4-.7v-.4c.1 0 .7-.8.7-.8l1.1-.3h.8c0 .1.4 1.4.4 1.4l1.1.5.4.9.6-1.2 1-.4.7.9.8-1v.5h.7l-.4.9 1.3.4.7-.2-.5-1.5.9-.6 1.6.5 2.8-.5.6.6-.9.6.3 1.2 1.3.8.5-1.8 2.5-2 .2-.7 3.7.2.5-.4v-1.3l.7-.3 2.4.2 4.9-1.8h1.8l.4-.7.4.6.6-.8 1.3.2 1.3-.5h1.7l.5-.7h.6c0 .1 1.1-.7 1.1-.7l1.5-.2.2 1 2.5-1.3 1.8 1.7h1.4l.2-.6-.6-1.8V138c.1 0 2.1-1.2 2.1-1.2l1.5.2-.4-.9.2-.6h2c0 .1 1.5.8 1.5.8l.6-.5.5-1.4 1.3-.4.3.3-.2 1.5.4.3Z"/><path id="KZ-KZY" d="m160.4 309.1.9-1.1 1.6.6.2 2-.4 1 .6 1.8.8.7.2 1-6.1-4.4.5-1.7h1.6Zm10-.4h-1.3v-2.2l3.2-.4 1.6.2.3.6 2.4.3.2.3h-3.3l-1.7 1-1.3.3Zm25.7-36.4 1 1.9 1.5-.2 3.4 4.3-.5 1.2 3.5.6.5.8.9-.3-3.4 2.6 5.1-.9 3.3 2.6h1.6c0-.1 3.6 1.9 3.6 1.9l1.2-.7.5.5 6.1 2.4h1.3l6.1 3.3 2.5.2 2.2 2.5 2.3 1.3 16 4.3h5.4v3.1l1.9 1.5.4 1.2-1.1 1.8-1.3 6 2.3 1.9 1.9.8v12l-.3 1.4 1.3 1.3.7-.2 1.4.8v.6l1.4 1.7 3.4 2.4-.9.9-.5-.4-1.4 1 .6 1.3v1.8c-.1 0-.7.3-.7.3l-1.2-1.1v2.7l-1.2 1.2-.2 1.9-1.2.4.4 1.6.5-.3-.2-1.1.7-.4v.8h.6l-.2.9.5 1.1.9-.2v.6l-5.3 2.8-3.3 1.2-3.1 2.3-3.4 3.5-1.7-1.1-4.9 5.1-1.1-.3v-9.9l-3.4 1.6-2.2-7.2-4.4-4.1-1.5-3.3-.7-.5h-1.3c0 .1-6.1 2.9-6.1 2.9l-13.8-1.2-16.5 3.1-.6-.4-10.1-12.1-.6-1.9-5.7-4.1 1-.7.6-2.5-.8-3-.5-.6h-.7l-1.1-2.4.3-3.8-.3-1-.6-.4.7-2.7-.5-1.8-.6-.7v-1.2l.5-.4.7-2.7 1.7-.4.6-1.4 1.1-1.1 1.3-.2.9-.8 2.3-1.1.8-1.3.2-3.1h-.5l-.7.5-3.6-.3-1.2-1.5.3-3-1.5-.8h-1.7v.7l2.1 1v.8l-.9.8-.7.3-1.7-.7v1.9l-.5.3v-2.3l-.4-.7-.6-.6h-.8l-2.8 1.8-.5.7v1.3l1 1.8.9.4 3.5-.6.3.7 1.3.7 1.9-1.3v1.1c.1 0 1.1 1.6 1.1 1.6l-.3 2.2-1.3.8-2.3.3-2.1-1.4-2.9-.5-1.7 1.3h-.9l-.4-.2.2-1.2-.3-2.1-.5-.6h-2.8c0-.1-.4 0-.4 0v.7l1.7 2.8-.2.8.3 2.2-.5 1.4h-.8l-.5 1.5-.5.4-.5-.2-2 .3v-1.7l1.5-2.2-.5-.4-.6-.3-1.2 1h-.8l-1.3-.4 8.5-11.3 4.9-4.6 3.7-.3.4-3.9 5.1.4 4.2-11.3 7.4-1.7 2.1 3.2Z"/><path id="KZ-MAN" d="M57 322.1h.5l-.8.9v-1.6zm.9-2.2.5-.5.3.4v1l.5.3h-1.1c0 .1.3-.3.3-.3h-.3c0-.1.1-.6.1-.6l-.9-.6.3-.4v.3c-.1 0 .3.4.3.4m-7.7-2 .7.3h-.6l-.3.5.2 1.5h.4c0 .1-.2.6-.2.6l.3.4.7.4.8-.2-.2.6-1.5-.6-.5-.8-.4-1.4.6-1.4Zm3.3-.2h.5l.2 1.3-1.2 2.1v-1.7c-.1 0-.6-1.1-.6-1.1l1.2-.7Zm28.3-7.8h.5l.3.8.2 1.3h-.4v.3l-.5-.2-1-1.6.7-.6-.2-.4.5.3Zm2.1-4.5 4.4.8.4-1 1.9.3 3.2-1.3 2-1.5-1.3-.8 2.8-2.1.7-1.3-.2-.8 1.9.2.2-.4 3.5-.8h1.8l2.3-1 4.8-.5 1.4.2 2.9-2.9 1.5 2.1.8.5.9-.6h.6l.4 1.3v1.5l1.5.6.6-.4.5.2.3 1 1.3.4.8-.4.6.5h1l1.1.6 1.1 3.1 1.7 12.9-8.7 2.8V380H121l-.7.7-.5-.3-1.2.2-.7.7-.5-.7-.4.6-.9-.4-2.8-3-2-4-1.4-1.8v-1.5l-1.4-1.8-7.9-5.2h-2.9l-4.5.8-6.8 2.5-7.2 6.1.6-2.3-.9-2.8.2-1.3 1.6-2.5 1.4-4.1-.4-1.3-1.1-1.4.2-.4v.6l1.2 1.1.4 1 .5-.8V357l-1.1-.4-.4.2v-1l-1.8-.5h-1.5l-.8.8-.7-1.1-.6-.3h-1.3l-2 .7-1.8-3.3-1.4-1.3v-1.3l-4.7.5.6-4.4-.4-1.9-.9-1.4-.7-.2-1.6-2.9-.5-2.5-1.5-1.4v-1.1l-.5-1.8-1.9-1.2-3.2-.4-1.6-.9-.4-.8-.2-3.2.5.7.6-1.7 1.8.4 1.7-.2.4.4h1.3c0 .1.9-.4.9-.4l1.1.4.6.8h.6v.7l1.1.8h1.3l1-1.1 1.1-.3v.5l.5.3.4-.4H68v-.3l-1.2-.7h-2c0 .1.2-.5.2-.5l-.4.2v-.6l-1-1.7-2.3-1.6-.3.4-1-.2v-1.2c-.1 0 1.1-1.5 1.1-1.5l1.2-.2 1.4-1.3.9.3v-2.5l.9-1.6 1.1-1.2.6.3 1.4-.2 1.4-.8.5-.8 2.5.9 1.3-.3h2.8l2-.4 1.6.3.9 1h.7c0-.1 1.2.3 1.2.3l-.8-.6.2-.2-.5-1.1v-.6c.1 0 2 .8 2 .8l1.1 1-1.1-1.5h-.6l-1-.8.5-.7 1.3-.2-.3-.8-1.3 1v-.7h-.5l.7-1 1.1.5-1.3-1.4.5-.3-.2-.3 1-.2-.8-.3Z"/><path id="KZ-PAV" d="M376.6 141.9h.8c0 .1.3 1.3.3 1.3l-.4.6v1l-1 .9v.7c-.1 0-1.3.7-1.3.7l-.6-.7-2.2-.2v.8l.9 1.1.6 1.8 2.6 2.5 9.9 8 4.2 4.1 6.5 10.6 6 11.4 2.8 4.6 2.3 5.1h-.9c0 .1-.3 2-.3 2l-1.9.5.3 1.1-1.6 1.5-.3-.4-2.4.4v1.2l.7-.1v1.7l-.7-.2-2.5 1.6-1.5.5-.3-.6-.7.3-.2.7-1.3.7-.3-.2-1 1 1.5 2.1.3 1.9.9.3 1.6 1.6 3.3 2.1-.4 4.3 1.2.3.4 2.5-.8.9-2.1 3.8-1.7.8-2-.5-5.3-2.2-.7-1.3-.8.5-1.4-1 1-1.3-.7-2.6-2-1.3h-2.6c0-.1-2.2-2.4-2.2-2.4l-2.4.6-1.3 1.2-.8 3v1.9l-.4.8-1.4-.8-1.4.2-1 .6-.3-.2-.6 1.5h-.6c0 .1-1.6-.8-1.6-.8l-4.3 1.2-.5-.6-.6.2-.6.9h-3.6c0-.1-.6.7-.6.7l-2.5 1.8-1.2.4-.2-.5h-.8l-.4-1.4.8-.5v-.4l2.4-.7-.2-.4.4-.2-.2-.8-1.4-.6-.3-.9.4-.3-.9-1.6h-.7l-1.7-1.9-.9 2.1-.8-2.1.7-.5-.7-.8-2-.4-.2-.5-1 .8-3.6.6-1.8-2 .9-.9-.5-.8.3-.7.7-.2v-1.9l.7-3.1-.5-.8v-1.4l-4.3-1.5 1.3-1.6.2-1.4 2.7-1.8 1.2.4 1.4-1.1-1.2-.7h-1.4c0-.1-.6-1.6-.6-1.6l-2.2 1.1v-3.7l2.2-1.8h.7c0-.1-.3-.7-.3-.7l-.3-12.6h-.6V178l-2.4-.2-.6-1.6.3-.7.6.8h.9c0 .1.5 1.3.5 1.3l.6-.3-.2-1.9.8-.3V174c-.1 0 .5-.3.5-.3l-.7-1.9-1.2.4-.6-.2-.7 2h-1.7l-.3-1.6.9-1-.4-.8-1.4.9-.3-.3.7-.6 1.2-2.2v-.7l1.2-1.1-.6-.9-.6.4-.2-.5-.7.3v.4l-1.8 1.5-.3-1.8.3-1.9 1 .5.5-.5-1.6-3 1.6-1.6.2-.9.6.2.3-1.3h.9c0 .1 1.1.8 1.1.8l.8-1.3 2.1.5v1.4c-.1 0 .9.1.9.1l.2-1.1.9.2.5 2.2 1.5.6 1-2.4-.5-.3.4-1.8 2.1.3.5-1.8h1l.5-1.3h2.1c0 .1.4.7.4.7l5.3-3.8.3-.9-1-1.5 1.6-.8 1 .3 7.5-3.5-.3-.7.3-1 2.7.6 1.3-.5h1.1l1-1.5 2.4-.8v.6l-1.8 1.2Z"/><path id="KZ-SEV" d="m283.6 120.6.5.8 2.1-.7 1.4.5h2.2l2.4 1.1 1 1.9 1.3.3 1.2 1.1h.8l.8-.8 1.3-.6.9-1.7 1.9.5.9-.7 1.4-.2.4 1.5 2 3.3v2.7l-.2 1.2.6 1v1.4c.1 0 1.1 1.4 1.1 1.4l1.2.3.8.8v.8l-1.3.7v1.8l.4 2.2-.4 1.5-2.3-.4v1l1.1.5-.4 1.3.7.7.4 1.3h.6l1.2-1.3h.5c0-.1 1.8.5 1.8.5l.2 1 .9-.2.9.3 1.1-.7-.3-1.1.5-1.2 3.1.5.9 1v.4l.9.5.3-1.1-1.4-.9.5-1.2-1.1-1.4h1.2c0-.1 1.5.8 1.5.8l.2 1.3.6.4-.2 1 2.2 1v.6l-.7-.2-.8.3v.3l.6 1-.5 1.8 1.3.9.9-1.7 2.1.8-.7-2h-1.8l.3-1.3.7-.5 4.6.7v.9l.8.1.3 1.1 2.7.9h1.4l.1-.8 1.4.8-.2-1.2 1.5-.7v-.7l1.5.4-.7 4-2.8-.4-.4.8.3.7-1.3.4-.2 2.2h-.9c0 .1.3.9.3.9l-.4 1.5 1.9.8-.3 1.1.9.6 1.6 3-.5.5-1-.5-.3 1.9.3 1.8 1.7-1.5v-.4l.7-.3.2.5.6-.4.6.9-1.3 1.1v.7l-1.1 2.2-.7.6.3.3 1.4-.9.4.8-.9 1 .3 1.6h1.7l.7-2 .6.2 1.2-.4.7 1.9-.6.3v1.1c.1 0-.7.3-.7.3l.2 1.9-.6.3-.5-1.1h-.9c0-.1-.6-.9-.6-.9l-.3.7.6 1.6 2.3.2v.8l-4.7-.4-.9-1.7h-.9l-.2-.8h-1.7l-2.3-1.2-1.6.7-.3-3.6-.5-.6-.3-2.1h-.4l-.4.6h-1.3l-1.1.6-.5-.5-2.4.5-.6 1.5-2.9.2-3.6-.4-.8-1.5v-.7l.8-.4-.4-1.1.9-2.2-2.5-2.8v-.8h-1.2l-.4.8h-.8c0 .1-1.1 1-1.1 1h-1.1l-.1-.4-2-.4v-1.8l-5.1.1-.3 1.7-1.1.2.2 1.5-1.2.2-.2-1-1.3-1.9-.6.3h-2.4l.4-.3v-.6h.5v-.5c-.1 0 .4-.3.4-.3v-1.1c-.1 0-1 .4-1 .4l-1.5-.4-.3.4-.4-.2.3-.7v-2.1c-.1 0-.8-.2-.8-.2v-1h-2.8l-.5.5h-.6l-.3.6h-.7c0-.1-.2.9-.2.9h-.5l.2 1h.7c0 .1-.4 1.1-.4 1.1l-.8-.2-.3-1.7h-.5c0-.1-.1-.7-.1-.7l-.8-.2v-.9h-1.2v1.1l-1.7.1v-.6h-1.3v.5h-1.1l.6 1.3-.3.3h-1.8v1h.6l-.4.7-.3-.4-.6.5v.5l-.9.2-.4.6.9 1.3v.7l.7.2.4.8h1.4c0 .1-.2 1.6-.2 1.6h.8l.2.8v.9l-.5.1.7 1-1.9 1.7.6 2h-.7c0-.1 1 1 1 1l-2.3.9-.2.7-1.4.6-.9 2.2-1.3-.2-.5.3-.5 1.1h-1.8l.3 1.3.7.3v.6c.1 0-1.4 1.7-1.4 1.7l-.5-.4-.4.6.3.4-.7.7-1.6-1.4-1.7-.7-.7-.9h-2.7l.1 4.3-2.6-.9-.8.4-1.4-.2-1.2-.7h-3.9v-1.9l-2.4.4-1.8.8-1-2.2h-2c0-.1.2-6.6.2-6.6l1.3-.3v-2.3h.2v-1.9h-.7l-.4-2 .5-.7h1.3l.8-.5 1.8.4.3-1.4-1.8-1.2v-5.4c-.1 0-2.2-.2-2.2-.2l-.5-1.6 1.5-1.7V153l-1.6.3-1.3-4.1 4.6-2.1-.7-1.8h-.9l-2.3-1.5 2.3-.8-1.4-3.8.4-.5-.9-2.8 3-1.2 3.8-.9 1 .2.8-.9 3.1-.2.5-.5 2.3-.5.4-1 2.9.6 1-.3 1.5-.6.4-1.3.9-.7 1.9.7 2.2-.3.2-1.4.8-1-1-1.2-.3-1.3 1.4-.2.6.4.5-.4h2.3c0-.1.5.2.5.2l.4-1.3.7-.6.3-1.3.5-.4 2.8 1.5v-1.1l-.3-.4h-.6v-.9l.4-.7 1.3.3 1.3 1Z"/><path id="KZ-VOS" d="m410.3 201.2 6.5 13.1v-1.8c-.1 0 .2.3.2.3h1.2v-1.4l.6-.4 1.5-.2.6-.7h.5l.1-2.1-.5-.9v-1.5h2.3v-1.2c.1 0 .6-.8.6-.8l2.8 1v.4l1.8.9.6-.7h.3c0 .1.3 1.2.3 1.2l-.8 2.1-.2 1.8h1.2l2-.7h.8l.5 1.5-.3.4.8 1.3-.3 1.4h.4l3.5-.2v-.8c.1 0 .4.4.4.4l.8-.5 1.5.2 1.9 1.2h.7l.8-.7 3.3.4 2-1.4.3-2.1h.5c0-.1 2.4.5 2.4.5l1.4-1.4.2-.9.7.3.5.7.6-.4 1.8.2.3-.3-.2.6 2 .5 1.6 1.1 1.3.2 1.8 2 .3 1.4 3.2 3.9-.3 1.2.6 1.8-.3 1.1 1.1 1.5h1.1l.8-.5 1 .9 3.1 1.3.2.7h1.2c0 .1.8.8.8.8l.4 1h-.6v1.6l.4.5 1.1.3 1.2 3v1.4l.9 1 1.7.5.4-.5 1.2-.2 1.5.9 1-.3.9.4h1.1c0-.1.3.1.3.1v.8c-.1 0 .4.2.4.2l.7-.5h.9l.8 1 .4-.4v-.6c-.1 0 .4-1.3.4-1.3l2.3-1 2.2-2.2v-.9h2.4l-.4 1.1.2.6-1 .7h-.4c0-.1-.6.6-.6.6l.2 1.1 2 .7-.2.3.5.4v1.1c-.1 0 1 .7 1 .7v1.2l.4.9h.7c0 .1.4.9.4.9l1.9.2 1.1.8.4 1.9-2.2-.9-2 .9-1.2-.3-.5 1.2-1.2.9v1.6l1 1.6-.7.6v1.5c.1 0-.8 1.4-.8 1.4l-.6.3-.6 1.5-1.9.9-.5-.3-.9.2-1.3 1.2-2.4-.3-2.1.4-1.3 1.1-1.5 3.8v1.3l-.8 2.6 1 6-.2 1.6 1.3 2.6v2.6c-.1 0-1.6.7-1.6.7l-.6 2.3h-3.7c0 .1-.4.9-.4.9l-1.5 1.3-1.2.3-.2.8-1.9.8-1.4-.2 1.1-1.2-1.2-1.7-2.2.5-.9-.6-2.6.2-2.2.6-.7-.5-4.8-1.1-1.5-1.3-.6.2-.7-.9h-1.3l-.9-.9-1.7.2-.5 2.8-.7.8-.6 2.4-1 2.3-1 4.6-2.1 4.5-.6 4.4-2.4 5.4-.4 2.1-1.3.5-.4-.4.2-3.6-2-2.2-1-3.6-4.1-4.7.4-.6h-.7l.6-.5.2-.6-.7.7-.9-.3h-.4l.5-.8h-.4l-.5.8-.8-1.4-1.3.5-.7-1h-3.8l-7.7-3.9v-1.3l-2.6-1.1-5.8 2-3.8-5.4-5.4.6-.6-1.5H399c0-.1-2.1-1.8-2.1-1.8l-2.1-1.7-2 2.5-1.6-1.6-1.8 2-3.2-.7-.3.6-1.2.5-1.4-.7-.8.5-.6 1.6-1.8-.7-1.2-.9-.6-1.1-1.1-.6 1-.4.5-1.3v-1.4l1.1-.2 1.1.5-.8-3.7-.5-.8 1.3-4.2h.6l.1-1.5h.8l-.7-1.1 2.3-.8-.9-.7h-1.2l-1.6-1.3.3-.9h1.1l.3-.7h-2.5c0-.1-.2-.9-.2-.9l-1.1-.5-.5-.9 1-.3v-1c-.1 0 .5-.6.5-.6l1.6.3 2.3-2.3.5-2.8-.5-1.5-5 .8-.9-1.7.2-1.9 1-.5.3.4 1.2-.5-2.2-1.8v-1.2l-1.9-1.5-1-.3v-.6l-.9-1.1.2-1.1 6.1-2.6 1.3-2.7-.3-.9.3-1.1-.4-.6.3-1.5h1.1l2.3-1.2 1-1.3 1.8-1.5.3-1.1.8-.5.7 1.3 5.3 2.2 2 .5 1.7-.8 2.1-3.8.8-.9-.4-2.5-1.2-.3.4-4.3-3.3-2.1-1.6-1.6-.9-.3-.3-1.9-1.5-2.1 1-1 .3.2 1.3-.7.2-.7.7-.3.3.6 1.5-.5 2.5-1.6.6.2v-1.7l-.6.1v-1.2l2.4-.4.3.4 1.6-1.5-.3-1.1 1.9-.5.3-1.9h.9c0-.1 2.4 5 2.4 5Z"/><path id="KZ-YUZ" d="m260.6 302.3 23.1.4 2.2 3.6 2.8 7.9 1.5 6.5.7 1 2 12.6-.5.3-.2 1.5-.8 1.3-.2 1.9-1.5 4.2-1.6 2.4 1.3.5-.3.5.5 1.6.9-.3v.6c-.1 0 .7-.1.7-.1l1.3.9.4-.9h.3l.2 1h1.1c0 .1.3.5.3.5l.4-.2.3.4-.2.7.6.6.5-.3.3.2-.4.8.8.5-.3.3.4.6v2.2c-.1 0 .1.3.1.3l-.3.8 1.3.8h.9l.1.5.7.3v.5l.5.1.5.9h.7c0 .1.8 1.6.8 1.6l1-.3v1h.5l.7 1v1.2h.7l-1.2 1.1-.5-.3-.4.4-1 1.3-.6 1.8-.8-.3-.2-.8-1.7-1-.2.8-.8.8v1c.1 0-1 .6-1 .6l-1 1.6-1.2.7-.3.6-.6-.4-.5 1.1-.8.3-.6-.4-2.6 1-1.3 1.6-1.1.6-.2.3.3.7h-2.7l-1.2 1.2-.3.8h-.7l-1.1 2.4-1 .7-1.8 2.9-.9.5v-.4c-.1 0 .3-.3.3-.3h-.7c0-.1-.1-.5-.1-.5l-.6.4-1.4-.2v.3h1l.2.4-.2 2.9 2 3-1.1.5h-.6l-.2.3-1.3-.4v-.3c.1 0-.4-.4-.4-.4h-.5c0 .1-1.1-.8-1.1-.8l-1-.4-.9-1.1-2.2-1.1-.4-.5.2-.6h1.1v-1.4l.4-.4-.4-.9 1-.5-.7-.4-1.4.6-2-1.9h-4.7l-9.1-.8-.9-10.5-6.4-.8.3-7 1.9.4 4.9-5.1 1.7 1.1 3.4-3.5 3.1-2.3 3.3-1.2 5.3-2.8v-.6l-.8.2-.5-1.1.2-.9h-.7l.1-.7-.7.4.2 1.1-.5.3-.4-1.6 1.2-.4.2-1.9 1.2-1.2v-2.7l1.2 1.1.5-.3v-1.8c.1 0-.5-1.3-.5-1.3l1.4-1 .5.4.9-.9-3.4-2.4-1.4-1.7v-.6l-1.4-.8-.7.2-1.3-1.3.4-1.4v-12l-2-.8-2.3-1.9 1.3-6 1.1-1.8-.4-1.2-1.9-1.5.2-1.5Z"/><path id="KZ-ZAP" d="M60.6 196.3h1.6l.5.3 2.5-.4.3.5.8.2v1.7l-1.3.2.4 1.1 1.9.3 1.1-.6.6-1 .2.5h.5l.2.4-.3.7.4.2 1.8-1.1-.5-1.3 1.2-1.8h1.1l.9.6h1l.6-.7.2-.7h1.1l.8-.9.4.2.3 1.9 1.5 2.2v.7c.1 0 .6.3.6.3v.5l.6-.2v.3h.4v-.3h.2l.2-.5.4.6v-.4l.7-.1v-.4l.2.2v-.5c.1 0 .6.5.6.5h1l-.3.5.7-.4.3.7.3-.5.3.2.8-.5 1 .2-.2-.7.6-.2v.5h.9l.2.4 1.2-.5 1.5 1.5 1 .2.7.8v.4h-.4l.3.4-.3.8.8 1.5.9.5.7-.2.5.4.6-.2 1.7.8.3.5 1 .5v1.1l.3-.3.3.5-.3.4.2.5 1.4 2.2 1.8.2.8.5-1.1 4.3 1 1.6.7-.2.2.3-1.5 1.8.2.5-1.3 1.4.9 1.3-.2 2.9 1.4 1.1.2 1-.5 1.7-1.2 2.1.7.9H103l-1.1 1.7.3.5-1.2.7-2.6-.2-.2.9H97l-.9.8-.5 1.3-.8-.4.4 1-.8 2.7v1.7h.1l-2.8 2.6.3.7-1.9.6h-4.2l-.8-.4-.7 1.7-1.1-.5.2 4.5H82l-.9 3.7.3.9-.9.5h-1.3l-2.7-1.5H76l-.4.8-3.9-.9v-1.5l.5-.3-.3-.7-5.2-.9-1.5.7-2.5.2-.7 2.1-1.1.7-.5-.3-1.1 1.1h-.8l-6.7 4.5-2.5 2.5h-2.1l-.7.5-3.8-.2v1.9l-5.9-2.4-3.4-.9-17-2.2H15l-1.8-.5-1.1-1.6-1.5-.2-3.8-1.7 3.5-9.1 1.9-1.2 1.2-2.2.2-.8-.4-.8-2.9-2.3.5-4.2.5-1 .6-4.8 3.1-1.2 2.1-3.2-.9-2 .8-.8-.3-.3.2-1.4 1.1-.2v-.7l1.2-1.5h.5c0-.1.9.3.9.3l1.5 1.1.3.7.6.2 1.6 2.1.5 1.3 1.3 1.1.4 1.8 1.1 1.6v.7h1.2l1 1 .4.2v-.6c.1 0 3.8-1.7 3.8-1.7l1.7-1.8-.3-1.2-1.2-.5.3-1.3-1-2.1-.8-4.8.2-.6-1.1-1.5.9-.3.8.8 1.5.4 1.4-1.1 1.9-2.4 3.9-1.4v-.7l-1.1-2 .7-1.1v-.8l.5-.6 1 .4 1.1-.3 1.7.2 2.4-2.3 5.3-2.1-.4-.8.5-.5-.3-.5h1.4v-.8h.6v-1.9c-.1 0 .7-1.4.7-1.4l1.8.3-.6 1.1 1.4-.4.2-1.4-.7-.5v-1.5l1.5.5.3 1.2Z"/><path id="KZ-ZHA" d="m344.9 302.3-1 2.1-1.2 2 .5 6.4.7 1.8-3.7-.3.2 3.2h3.4l.1 2.2.7 1.3 3.9 2.7 1.2 2-.6 2.1.4.6 2.3 2.2 2.7.3 1.4 1.1h.8c0 .1.7 1 .7 1l1.3.9v2.1l-.8 1.4.3 1.2-.3.8-3.1 2.8v1.1l2.1.7 1.1-.2-.2.6 1.8-.2.4.7-1.6 2v1.4c-.1 0 .3.3.3.3l-.2.7.5.2.3 1.2 3.5 1.3-.3.7-.7.2v.3h1.3c0-.1.7.3.7.3l.6-.3.2.6-.5 1.6-.7.7-1.3-.4h-2.3l-1.3-.6-1.5.2-2.4-1.6-1-.3-.2-.4-.9-.4-1.2.2-1.6-2.1-1.3-.6-.2-.4-1.7-.4-.6-.5h-1.5l-.1.9-1.3.4-1.2-.6-.8 1.6-1.4-.2-2.7 1.4v.5l-.7 1.4v2.1l-.9 2.6.2 1.9.9 1.2-.3.5-1.8-.3-.4-.4v-.9c-.1 0-2.5-.5-2.5-.5H329l-1.2-.5-.8-1.2-1.7-.7H324l-2.6-1.3-2 .4-3.1-1.6-2.9 1.1-1.3-.7-1.6.2-.3.3h-1.1l-.6 1.4-.6.3v1c-.1 0-1.6.2-1.6.2l-.4.3 1 1.4-.4.5-.8-.5-.2.2-1.1 2.4-.7-1h-.5v-1l-1 .3-.8-1.5h-.7c0-.1-.5-1-.5-1h-.4v-.6l-.7-.3v-.6h-1l-1.3-.8.3-.8-.2-.3v-2.2c.1 0-.3-.6-.3-.6l.3-.3-.8-.5.4-.8-.3-.2-.5.3-.6-.6.2-.7-.3-.4-.4.2-.3-.4h-1.1c0-.1-.2-1.1-.2-1.1h-.3l-.4.9-1.3-.9h-.8c0 .1.1-.5.1-.5l-.9.3-.5-1.6.3-.5-1.3-.5 1.6-2.4 1.5-4.2.2-1.9.8-1.3.2-1.5.5-.3-2-12.6-.7-1-1.5-6.5-2.8-7.9-2.2-3.6h29.3c0-.1 11.7-.6 11.7-.6l20.2.2Z"/><path id="KZ-AS" d="m181.5 288.3-.2 1.9v1.1l1.1 1.5 3.6.3.7-.5h.5l-.2 3.2-.8 1.3-2.3 1.1-.9.8-1.3.2-1.1 1.1-.6 1.4-1 .2-.8.2v.6c-.1 0-.7 2.1-.7 2.1l-.6.4v1.2l.6.7.3 1 .2.8-.5 2.1v.6c-.1 0 .4.4.4.4l.3 1-.3 3.8 1.1 2.3h.7l.5.7.8 3-.6 2.5-1 .7-15-10.8-.2-1-.8-.7-.6-1.8.4-1-.2-2-1.6-.6-.9 1.1h-1.6l-.5 1.7-3-2.2-1.1.4.4-1.2.5-.3.5-2.6 1.1-2 2.9-1.2 1.3.5h.8l.3-.3.9-.7.6.3.5.4-.7 1.1-.4.5-.3.5v1.7l1.9-.3.5.2.5-.4.3-.7.3-.8h.8l.5-1.4-.3-2.2.2-.8-1.7-2.8v-.7h3.2c0 .1.5.7.5.7l.3 2.1-.2 1.2.4.2h.9l1.7-1.4 2.9.5 2.1 1.4 2.3-.3 1.3-.8.3-2.2-1-1.6v-1.1c-.1 0-1.1.7-1.1.7l-.9.7-1.3-.7-.3-.7-3.5.6-.9-.4-1.1-1.8v-1.3l.6-.7 2.8-1.8h.8l.6.6.3.7v2.3l.5-.3v-1.9l1.7.7.7-.3.9-.8v-.8l-1.4-.7-.7-.3v-.6h1.7l1.5.8Zm-9.8 20.1 1.7-1h3.3l-.2-.3-2.4-.3-.3-.6-1.6-.2h-1l-2 .4v2.2h1.3l1.3-.3Z"/></g></svg>