<?xml version="1.0" encoding="UTF-8"?>
<svg id="Layer_1" xmlns="http://www.w3.org/2000/svg" xmlns:amcharts="http://amcharts.com/ammap" version="1.1" viewBox="0 0 512 512">
  <!-- Generator: Adobe Illustrator 29.1.0, SVG Export Plug-In . SVG Version: 2.1.0 Build 142)  -->
  <g id="_x3C_defs">
    <amcharts:ammap bottomLatitude="28.5244463" leftLongitude="46.5530399" projection="mercator" rightLongitude="48.4304579" topLatitude="30.1036993"/>
  </g>
  <g>
    <path id="KW-HW" d="M413.1,258.5l-22-17.3-4.3,11.4,4.4,10.3,21.9-4.4Z"/>
    <path id="KW-JA" d="M437.5,59.4l-17.5.6,19.7,16.6-26.3,9.1,4.7,16.5-17.3,11.4,47,59.4,33.6-45.7-43.9-67.9ZM305.2,25.3l-81.2,1.8-54.9,26.4-74.9,165.4L11.8,321.7l234.9,35.1,83.2-23.4,18.4-61.9,6-12.9-1.6-3.9-36-20.9,63.5-53.8,55.4,4.2-47.6-78.6-12.2-49.3-70.4-30.9Z"/>
    <path id="KW-MU" d="M416.3,287l-3.2-28.5-21.9,4.4,6.6,25.5,18.4-1.4Z"/>
    <path id="KW-AH" d="M303.7,486.7l196.6-2-84-197.6-18.4,1.4-40.4,7-9.1-23.9-18.4,61.9-83.2,23.4,57,129.8Z"/>
    <path id="KW-FA" d="M391.2,262.9l-4.4-10.3-32.6,6-6,12.9,9.1,23.9,40.4-7-6.6-25.5Z"/>
    <path id="KW-KU" d="M391.1,241.2l-38.5,13.5,1.6,3.9,32.6-6,4.3-11.4ZM487,222l-28.6-6.5,32.7,20.2-4.2-13.7Z"/>
  </g>
</svg>