<svg xmlns="http://www.w3.org/2000/svg" xmlns:amcharts="http://amcharts.com/ammap" id="Layer_1" viewBox="0 0 512 512"><g id="_x3C_defs"><amcharts:ammap bottomLatitude="39.17" leftLongitude="69.26" projection="mercator" rightLongitude="80.289" topLatitude="43.256"/></g><g><path id="KG-B" d="m95.4 310.2 2.2.3 1 1.7 2.2-.4 4.5 2.8 2.1-.3 1.3 3.1h3.6l.8-.5V315l1.5-.4.9.5.8 1.8.4 1.3-.7 1.6 1.2 2.3 3-2.4 3.4-1.5v-1l-.9-.7.7-1.1 1.9-.2 2.6 1.3 1.7-1.6h1.8c0-.1-.2-1.3-.2-1.3l6.2-2.2 1.5.5-.4 3.4.9 1.7-1.7 1.2 3.1 1.5 1 1.5v.8l-1.9 1.7 1.9.6.8 1.1-.5 1.8.9 1.9-.9 3.4 2.5.5 1.7 1.1 2.2 4.4 2.1-1.1 1 .4.8 1.1-.6.7 2.4 2.4.4 1.6-.8 1.7-5.4 2.7-1.5.2-1.5 1.8-2.8 1-2 .6-3.4-.9-3.4 1.2-1-1.1h-2.4l-2.2-1.8h-3.7l-1.5-1.2-3.2-.8-1-1.5-2.5-.4-1.8 2.5-4.1.7-2.6 5.7-1.4-.5v.8l-2.6.6-.9 1.5-3.2.3-1.5 2.8-2.1-1-2.6 1.4-4.5-.2-.7 1.2-.3 3.5-1 1.3h-2.3l-2.5-1.3-1.2 2.2-2.2-1-1.3 1.2h-1.2l-3.1-1.7.4-3.2-.9-1.2-2.2-1.2-1.7-3.7-4-1.1-1.4-1.6-3.3 1.8-1.5-.2-.9 1.1-2.2-1-2.6 3.8h-2.2l-1.7-2.7-2.7 1-2.2-2-2 1.7-1.4-.3-1.2 1.7h-.9l-.8-1.6-3.1-.7-1.1 2.1-1.1.5-3.4-2.6-3.2-1.1-2.7.9-2.2-.5-2.6 2.8-4.6.6-2.6-1.6-.4 1.6-.8.7-1.2-1 .7-2.9-1.3-4-.4-4L6 345v-2.4l-.7-1.3 3.1-3.5-1.4-2 .8-2.4 1.9-2.2-1-1.5.3-.4 1.2 1.4 2 .5.7 1.1.2 2.7 1.6.3 1.2-1h2.5l-2-4.1.6-6.1.5-.4 2.3.9 3.2-1.3 1.8.5 1.2-2 2.5-1.4 11.6-2.9 3.4 2 2.4 2.4 2-.2 1 1.8h3.4l2.7 1.1.5 1.1 2.9 1.6 6.6 2.2.2 1.3-3.7 2.6-.3 2.2 1 .9.2-2.9 1.8-.3 2.7-1.6 1.2-6.7 6.5-1.6.7-1.2v-1.6c-.1 0 2.6-.3 2.6-.3l5.1-2.4.6-1.5-1.2-1.9.3-.7 4.1-.4 2.2-1.3 1.6-1.9zm-8.3 5.7-.5-.6-.5.6.6 1.7zm28.4 2.4-1.2-.3v.8l1 .2.2-.6Zm-30.1 9.4.7 1 2.8.8.6.9-.9 1.1.9 1.6-1.6 1.5-1 2.3 2.1.9.5-2.2h.7c0 .1.2 1.7.2 1.7l2.3-.3 1.5-1.7-.3-1.7-3.1-.2v-.5l1.1-.9-.9-1.5 2.5-1.3v-1.1l-3.2 1.2-1-4-1.4-1.1-1.4-4-1.4-.7-.7.4.6 1.4.2 6.1Zm34.9 5.3 2.3.3.6-1.4-3.3-2.7-.5.6.5 1.4-2.6 1.2-.2.7 1.3 1.2 1.7-1.2Zm-57.5 5.3 1.2 3.5 2.2-.5.7.8-.4 2.3 6-5.4-.3-.9h-.7c0-.1-3.5.3-3.5.3l-4.9-1-.4.8Z"/><path id="KG-C" d="M232.2 134.2h1.3l1.3 1.7h1.2c0-.1.4.7.4.7l2 .5 3.5 2.9 1.3-.4 3.9 1.5 3 4.3 4.9 4.1 4.3-.5 17.3 8.7h2.8c0-.1 8.2 1.4 8.2 1.4l2.1-.3 9.8 2.6 2.1-2.5.9-3.8 1-1.3 1.5-1.2 3.5-1 1.6 1.5 1.8.2 1.3 1.1 4.8-1.1 6.7.7.8.4.4 2.5 2 .5 6.1-1.8 1.1-1.5 9.5.6 1-.6 1-2.3 2.6-.2 1.2-1.3 3.2.5 3-1 1.7 1.9 2.2-1.4 2.7.2.8.2.3 1.3 1.2.2 1.8 1.4-4.3 3.1-.9 3-.7.4-8.4.6-7.2 2-3.1-.4-4.3 1-5.4-.7v1.4l-4.4.5-8.1 6-.2 1.7-.6.4h-4c0-.1-5.3 1.8-5.3 1.8l-4.1.3-3-.9v3.5l-4.1.8-1.5 2.7-3.1 2.6-2.5 1.1-1.7-.6-.3-1.3h-.6c0-.1-1.1.7-1.1.7l-3.5.5-1.7-1.1-.7.9-3.7.8-3.2-1.2-2 .5-1.4-.9-1.9 1.4h-1.8l-1.4-1.2-1.4.8-3.2-.5-5.5.8 3 5.2.3 1.7-.7.5-1.1-.3-3.5.8-3.2 3.3-1.8-.3-6.7 1.5h-6.9l-1.2 5.7 3 2.2-2.9 2.1-.4.7.6 2.2-.4 1.1-1.7.9-.6 3.5h-3.6c0 .1-2.7 4.8-2.7 4.8l-.9-1.1 1.1-3.1H223c0-.1-2.9-3.9-2.9-3.9l-1.1 1.1-1.9.4-6-.2-.7-3.1-.7-.3-2-.3-5.2 1.3-1.4-.6-.5.6h-1.4c0-.1-.8-1-.8-1l-6.5-1-1-.9-1.3-3.2-8.4-1.7v-2.9l-2-.7-.9-1.2.2-3.2.5-.4 2.7.9 2.8-2.4 1.6.3 2.2-.8 2.6.7 1.7-1.5 2.6-.2 2.8.9 4.7-1.6.7-.9v-2c.1 0 1.9-2.1 1.9-2.1l.4-2.5-1.4-1-1.5.6-1.1-1.9-.9.2-.7 3.5-1.2-.2v-.9l-1.6-1.6-1.7-3.2-.8-2.8v-3.4l1.3-4.7 2.4-4 .5-4.8-.9-3.6.3-1.4 1.7-1.7.4-4.2 3.9-1.5 6.5-4.6 1.3.8.6-.7 3.4.3 1.5-1.5 1.5-4.3 2.1.8 2 1.9 1.9-1.2 5.4-.6.3-.7-1.3-2.3.3-1 2.6 1.2Z"/><path id="KG-J" d="m142.2 196.9 4.3.7 3 2.6 2.2-.6 1.9 1.4h1.1c0-.1 2.7 1.3 2.7 1.3l3-.2 3.2 1.6 4 3.1 3.2-.4.6-1.9 1.7-.8 1.4-1.9 1.4.9 1.2-.8.5.9 1.9.2 1.5-.6 8.4 1.7 1.3 3.2 1 .9 6.5 1 .8.9h1.4c0 .1.5-.4.5-.4l1.4.6 5.2-1.3 2 .3.7.3.7 3.1.5.3-3.2 4.2 2.4 1.3 1.9-.6 1.5 1.4h4.1l.8.5v2.9c.1 0 1.3 2.5 1.3 2.5l4.2 1.1-.3 2.5.6 4.1-.6 1.4h-.7l-1-1.2.5-2-1.8-1.9-3.8-1.4-1.2.4 1.6 4.4 4.5 3.6h3.9l3.2 1.3 1.3-.9 4.4-.4 4.5 1.6 1.7-2.1 6.1-.8 4.6-2.7h2.4l-1.1 2.8.3 3.1-1.5 3.7-.7 4-2.8 2.2h-2.1l-1.5 1.4-3.6.5-2.6 1.7-3.8.9-.3 1.3 1.4 2.1.4 2.3-8.8.3-2.7 2.9-2.6.4-.3 2 3.3 3.1v.9l-2.1 1.6-1.6 3-1-1.3-4.9-1.2-.2-3.7-1.2-1.1v-1.6l-1.3-.6h-.7c0 .1-1 3.2-1 3.2l-3.5 3.4-.9 4-2.9-1.1-2.6-2.5v-.8l4.9-4.4-.5-1.7-1.4-.9-2.2.8.7 1.6-.4 1.1-7.5-1-1 .8-.4 1.7-1.3.5-.9 1.4-1.8-.3-3 .6-1.1 2.7.7 3.4-.9 2.5-1.9.3-1.7 1.8-6.3-.6-2.6 3-1.9-.7-2.6-3.1-4.7 1.7-7.4-1.6-.5-.4.8-2.1-.3-1.4-2.5-2.6h-1.2l-.7-2.6-2.1-1.2-2 .5-2-2.1-2.4 2-4.2 2.1-2.2-.5v-.7c-.1 0 1.3-.2 1.3-.2l1.6-1.8v-1.3l-1.8-2.3v-3c.1 0-.8-.6-.8-.6h-1.7c0 .1-2.3 2.3-2.3 2.3l-3.8-1.7-2.5.4-2.2-1.1-1-2.3 1.8-2.3.5-1.7-1.7-3.5.7-.6-.3-1-2.2.4-.3-1.9-2.3-3.9-.7.5.2 1.5-1.3-1.6-1.1-.2-.4.6.5 1.3-.5.7-.7-.3v-1.9l1.6-1.6.3-4.7h-.9l-1.8 1.3-1 1.8-1.8.6v.7h1.6l.7.7v2.2c-.1 0-.9 1.4-.9 1.4l.2 1.9h-.6c0 .1-.5 1.6-.5 1.6l-.9-.3-.8 2.2-1.4 1-4.3-.5-1.4.9.4 2.7.8.9-1.2 2 1.5 1.9-2.2 3-1.2-.5-.4-2.2-1.2-.8-1.7.8-.5 1.7h-.8l-.6-.7v-2.4c-.1 0-1-.5-1-.5l-1 .5-2.3-.7-1.8 1.2-.2 1.2-1.2.4-3.1-2.4-1.8-.2-1.3 1.1-1.7-.2-3.8-4.2-1.9.3-1.2 2.2-.4-2.9-.8-.7.7-3.1-.2-4-3-4.8-1.6-.4-4.1 1-2.5 2.9-1.4.2-1.3-.7-.6-1.7-3.4-2-1.1-1.7-.9.3-2-1.5-2.5 1.6-2.8-1.4v-2.4l1.6-1.4.3-1.9 2.7-.2 3.1-1.4 2.7-3.3 2.7-1.8h1.4l.8-1.4v-2.9l2.8-1.5 4.6-5.8 2-.7 1.6.3.8-1.1 2 .9 1-.3.9-1.5-.7-3.5.9-3 3.9 1.5 2.6-.5.5-1 3.8-2.2.5-1 2.7-1.9h1.8c0-.1 1.6-1.2 1.6-1.2l.8-2.5 1.4-.7 3.1.2 2.7 1.3 2.6.2 1.5-1 5.2-.9 2.9 1.2 1.8 1.8 6.9 1.6 6 2.7 2.2 1.7h2.4l.6.8 2.1-.8.7-1.1v-3.3l1.6-4.4 1.8-.4Z"/><path id="KG-N" d="m290 183.2 2.1 1.3 3.3-2 4.8 3.2 1.1-.2v1.4c.1 0 1.2.2 1.2.2v.8c.1 0 4-.5 4-.5l1-2 3.7.8-.6 3.3 1.4 7.2 2.5 1.6v1.7l2.9 1.4-1.2 4-1.3.6-1.2 2.7 1.9.5 5.6-1.7 4.2 1.7h3.5c0 .1 1.2 1.4 1.2 1.4l3-.2 3.3 2.2 2.3.6 1 1.1 1.2-.5.3 1.2-1.5 1.5-.4 2.1-5.4.5-.9 1.9v2.8l.3 1 4.5.2 3.3-.3 1.5-1.4 1.8 1 .6 2.3-2 2.4 1.9 2-1.1 4.2.9.2 1-1 1.9 2.1 8.3-.7 2.7 1.4 2.4-1.6 6.2.8 3-.6 2.6-2.6.9 2.7-1.2 3.5-.3.7h-2.6c0-.1 1.5 1.2 1.5 1.2l1.4 5.2 1.7.9 2.7.2.6 1.1-1.4 4.4-2.4 1.9v1c.1 0 5.3-2.1 5.3-2.1l6.4-1.3 2.3 1.2-.8.9v2.1l1.7 1.5 3.5-.7 4.7.2 5 1.7 4.8-2.8 2.7-.4 1.1.4-.6 1.6.8 2.2 2.4 1.3-.5 2.2-2.1 1.8-3.1.4-2 1.9-2.2-1.4h-3.7l-2.8-1.1-1.6 1.4-2.2.8-.9 1.2-1.7-.3-1.7 1.2-9.4.6-.9-.3v-.8l-4.5-1.2-3.9 2-2.3-1.3-3.6.6-1.8-.7-.5-1.4-1.6-.8-2.8-.3h-.9l-3 2.7h-2.4l-.7 2.8h-1.5l-.3.9-1.8.6-.8 2.7.2 3.3-1.2.6.2 1.1-.9 1.8-2.9 2.1v1.7l1.2 1.6-1.4 3 .2 1.2-4.4 4.9-1.4 5.3-1.3 1.6-2.4 1.4-.4 1.2-3.7.8-1 2-.8-.7v-2.3c-.1 0-3.3-1.2-3.3-1.2h-.9c0 .1-3.2 2.9-3.2 2.9l-4.2-.8-1.8 1.4-1.2-1.4-1.2-.3-2.1 3v1.6l-.5.5-1-.7H304l-1.2-.9-1.8 1.3-3.7 1-1.3-5.1.4-2.4 1.5-1.7.5-1.7-3.6-3.3-.8-6.3-.5-1.1-1.4-.7-4.5 2.7-2.9 3.4-3.7 1.7-1.7 1.6-.3 1.1-1.2.3-2.5 2.2-2.5-.7-3.5.8-2.6-1-1.6.3-6-3.9.7.3-9.1-.2-.7-1-4.1-.9.2-4-2.6-1.6-2.9-.2-1.4-1.7h-1.3l-1-1.2-1.4-.5-1.8-3.7h-1.5l-.8-2.3-2.1-.9-.2-2-1.3-1.6-2.4-1.9-1.2-.2-.7-2.3-1.9-.9.7-2.4 2.8-2.7v-.9l-2.7-2.1-.7-2.1.4-.9 2.6-.4 2.7-2.9 8.8-.3-.4-2.3-1.4-2.1.3-1.3 3.8-.9 2.6-1.7 3.6-.5 1.5-1.4h2.1l2.8-2.3.7-4 1.5-3.7-.3-3.1 1.1-2.8h-2.4l-4.6 2.7-6.1.8-1.7 2.1-4.5-1.6-4.4.4-1.3.9-3.2-1.4H222l-4.5-3.6-1.6-4.4 1.2-.4 3.8 1.4 1.8 1.9-.5 2 1 1.3h.7l.6-1.5-.6-4.1.3-2.5-4.2-1.1-1.2-2.5v-2.9l-.9-.6h-4.1l-1.5-1.3-1.9.6-2.5-1.6 3.2-4 1.9-.4 3.7.4 1.9-.4 1.1-1.1 2.9 3.7h3.7c0 .1-1.1 3.2-1.1 3.2l.9 1.1 2.7-4.7h3.6c0-.1.6-3.6.6-3.6l1.7-.9.4-1.1-.6-2.2.4-.7 2.9-2.1-3-2.2 1.2-5.7h6.9l6.7-1.5 1.8.3 3.2-3.3 3.4-.8 1.2.3.6-.5-.3-1.7-3-5.2 5.5-.8 3.2.5 1.4-.8 1.4 1.3h1.8l1.9-1.4 1.4.9 2-.5 3.2 1.2 3.7-.8.7-.9 1.7 1.1 3.4-.5 1.1-.9h.6v.8Z"/><path id="KG-O" d="m258 299.8-.4 2.7-1.1 1.6 5.2 5.2v.9c-.1 0-1.9.8-1.9.8l-2.7-1.4h-4.5l-.3 2-1.7 2.4-3.6-.3-2.5 3.8-2.2 1.2-1.4 2.1-3.6 3.1-1.4.6-1.9-.9-.9.4-1.2-1.5-5.4 1.3-2.7 1.7-1.5-1-2.1 3.1-2.5.8v.7l1.6.7.2 1-2.9 4.1.5 2.7-2.9 1.9-.8 3.5.3 1.7 2.9 1.5 1.9 6.3v2.1c-.1 0-1.7.4-1.7.4l-.4 1.7-1 .8-.2 3.8-1 .5-5.4.8-4.3-.8-3.7 1.1-1.4-.8h-2.9l-4.9 2.1-1.2 3.1-3.2-.2-.7.9-2.6.9-3.4-1-3.5 1-1.9-.4-2.1.7-1.2-.9-2.3 1.1-1.7-.8-2.1.8-4.2-2.2-3.5-.5-1.2 1.9-1.6.5-.7-1.4h-1.8c0-.1-1.1.5-1.1.5l-.2 1.4h-2.5l-4.1 1.5-3.9 7.8h-.6c0 .1-1-2.7-1-2.7l-1.2-.5-.5-1.4-2.6-.2-1.4-1-1.3-4.4-3.4 1-3.3 3.1-4.9.6-2.1-3.3 2.5-3.8-1.3-3.3-.8-.4-4.7 1.1-4.2-.4-1.2-3.6 1.1-1.9v-1.6l-2.6-2.2 2.6-5.7 4.1-.7 1.8-2.5 2.5.3 1 1.5 3.2.8 1.5 1.2h3.7l2.2 1.7h2.4l1 1.1 3.4-1.2 3.4.9 2-.6 2.8-1 1.5-1.8 1.5-.2 5.4-2.7.8-1.7-.4-1.6-2.4-2.4.6-.7-.8-1.1-1-.4-2.1 1.1-2.2-4.4-1.6-1.1-2.5-.5.9-3.4-.9-1.9.5-1.8-.8-1.1-1.9-.6 1.9-1.7v-.8l-1-1.5-3.1-1.5 1.7-1.2-.9-1.7.4-3.4-1.5-.5-6.2 2.2-2.5-2.1 3.9-3.9-.3-.9 1.1-1.2.2-1.5h2.1l1.7-1.5v-1l3.4.4v1.7c.1 0 1.4 1.2 1.4 1.2h2l2.9 2.7 1.3-.4-.3-1.6 1.2-2v-2.4l-.2-.7-1.4-.2.7-1.4-1.1-2.4-1.4-.8.3-.6h1.3l.3-1 .7.2 2.9 4.3 1.3-1.5.7 1.2 4.5 2.2 2.3-.3.5-4.3 2.8.6.8-.6.8-3.8-.9-1.5.7-.4 1.3.7 2.2-.8.8-1.9 3-.8 1.6-1.3 5.5-1.2 1.9-1.1 1-1.9-.5-1.4 1.7-1.8 1.9-.3.8-1.4-.6-4.5 1.1-2.7 3-.6 1.8.3.9-1.4 1.3-.5.4-1.7 1-.8 7.5 1 .4-1.1-.7-1.6 2.6-.9 1.2 1.5.2 1.2-4.9 4.4v.8l2.6 2.5 2.9 1.1 1.4-4.7 3.1-2.8 1-3.1h1.5l.5 2 1.2 1.1.2 3.7 4.9 1.2 1.2 1.7 1.9.9.7 2.3 1.2.2 2.4 1.9 1.3 1.6.2 2 2.1.9.8 2.2h1.5l1.8 3.8 1.4.5 1 1.2h1.3l1.4 1.7 1.2-.2 3.6 1.3 1 1.3-.9 2.1.3 1.3 4.1.9.7 1 3.8.3 1.6-.6 1.5.6Z"/><path id="KG-T" d="m127.6 161 2 1.4 3.2.7 2.2 1.8 2.4.2 1.6-1.1 3-.2 5 1.5 6.6 3.9 4.4-.7 6.6 2.9 2.9 4.2 4.6 1.5 9.3-.3 3.3 1.3 4.3.5.8 4.1 1.7.8 5.3.9 1.8-.8.7.3.9-1.2.4-2.4.9-.2 1.1 1.9 2.2-.3.7.8v1.2l-2.2 3.4v2c-.1 0-.9.9-.9.9l-4.7 1.6-2.8-.9-2.6.2-1.7 1.5-2.6-.7-2.2.8-1.6-.3-2.8 2.4-2.7-.9-.5.4-.2 3.2.9 1.2 2.1.7v2.8l-1.6.7-1.9-.2-.5-.9-1.2.8-1.4-.9-1.4 1.9-1.7.8-.6 1.9-2.3.4h-.9l-4-3.1-3.2-1.6-3 .2-2.7-1.4h-1.1c0 .1-1.9-1.3-1.9-1.3l-3.1.4-1.2-1.8-2-.9-4.4-.4-.7.6-1.6 4.4v3.3l-.7 1.1-2.1.8-.6-.7h-2.4l-2.2-1.7-6-2.7-6.9-1.6-1.8-1.8-2.9-1.2-8.2 1.9-3.9-1.5-3.1-.2-1.4.7-1.1-1.5-1.1-.2-4.6-3.4-3.1-.3-3 2.3-2-.9-1.8.5-1.5-3.1 1.2-3.1 1.2-.3 1.8-2-1.2-1.8 1.7-1.1.7-2.7 4.4 1.1-.2-1.7-2.9-3.4v-1.6l1.6-1.1 3.4.6 2.5-.7V169l1.7-.4 1.3-1.2 1-1.8.2-1.8h3.9l1.9-1.8 3.7.4 2.7-.9 3.3 1.8 2.5-2.4 2.6.3 4.6-1.7 5.6 1.6Z"/><path id="KG-Y" d="m413 262.1-2.4-1.3-.8-2.2.6-1.6-1.1-.4-2.7.4-4.8 2.8-5-1.7-4.7-.2-3.5.7-1.7-1.5V255l.8-.9-2.3-1.2-6.4 1.3-5.2 2.1v-1c-.1 0 2.3-1.9 2.3-1.9l1.4-4.4-.6-1.1-2.7-.2-1.7-.9-1.4-5.2-1.5-1.3h2.6c0 .1.3-.6.3-.6l1.2-3.5-.9-2.7-2.6 2.6-3 .6-6.2-.8-2.4 1.6-2.7-1.4-8.3.7-1.9-2.1-1 1-.9-.2 1.1-4.2-1.9-2 2-2.4-.6-2.3-1.8-1-1.5 1.4-3.3.3-4.5-.2-.2-1v-2.8l.8-1.9 5.4-.5.4-2.1 1.5-1.5-.3-1.2-1.2.5-1-1.1-2.3-.6-3.3-2.2-3 .2-1.2-1.3h-3.5c0-.1-4.2-1.8-4.2-1.8l-5.6 1.7-1.9-.5 1.2-2.7 1.3-.6 1.2-4-2.9-1.4v-1.7L312 197l-1.4-7.2.6-3.3-3.7-.8-1 2-3.8.5v-.8c-.1 0-1.2-.2-1.2-.2v-1.4c-.1 0-1.2.2-1.2.2l-4.8-3.2 2.3-1.7 1.5-2.7 4-.8v-3.5l3.1.9 4.1-.3 5.3-1.9h4c0 .1.7-.3.7-.3l.2-1.7 8.1-6 4.3-.5v-1.4l5.5.7 4.3-1 3.1.4 7.2-2 8.4-.6.7-.4.9-3 4.3-3.1 6.2.8 5-1.7h3.2c0-.1 1.8.9 1.8.9l7.4.8 1.8-.3 2.9 1.7 3.6.6 1.7 1.5 2.1-.8 2.3.9h3.7l1.5-.6.2-.8 6.9 1.3 1.8-1.8 1.7.5 3.9-1.2 3.9 2.9 2.4.6 1.1 1.5 2.4-.4 2.4.4.9 1 1.8-.4 4.4 1.7h4.1c0 .1 1.5.9 1.5.9l6.7-2.1-.9 2.6 1.4 4.5 4.6 4.8 2.2.5v.8l6.9 7.6 5.2.3 1.7-1.4 8.8 2.3 4.3.2 1 3 2 2.5 2.6.5.7 1.3 1.6.9-.3 1.9 2 3.5 1.9-.7 2.5 1.3.5 3.8-.6 2.7 1.4 2-.2.6-2.6-.5-3.5 1.5-5.5-.6-7.2.7-1.3.8-.2 2.3-3.4 6.5-3.7 4.6-3.1.8h-5.7l-.8-.8.9-.3.7-1.6-.8-1.1-2.3-.2-1.9.9-1.4 1.8h-2.5l-4.4 4.6-3.7.2-1.6 1.6-2.9 1-.5 1.1-4 1.1-4.3 4.1-6.3 1.8-.6 2.2-1.9 2.2-3.9-.3-2.6 2.7-5 1.4-.4 2.8.9 1 .2 2.5-.9.6-.3 1.6-1.9.2-3.3 3-1.5 4.6Z"/></g></svg>