<?xml version="1.0" encoding="UTF-8"?>
<svg id="Layer_1" xmlns="http://www.w3.org/2000/svg" xmlns:amcharts="http://amcharts.com/ammap" version="1.1" viewBox="0 0 512 512">
  <!-- Generator: Adobe Illustrator 29.1.0, SVG Export Plug-In . SVG Version: 2.1.0 Build 142)  -->
  <g id="_x3C_defs">
    <amcharts:ammap bottomLatitude="13.909720" leftLongitude="100.083214" projection="mercator" rightLongitude="107.694830" topLatitude="22.502872"/>
  </g>
  <g>
    <path id="LA-XE" d="M454.7,439.9l8.5-13.5-27.9-27.9,15.7-16.8-16.4-6.6-8.3,8.3-9.1-.6-9.1,15.6,2.1,12.4-19.9,3.1,2.5,5.9,17,14.9,5.9-6.6,20.7-1.2,16,5.4,2.3,7.8Z"/>
    <path id="LA-AT" d="M454.7,439.9l-2.3-7.8-16-5.4-20.7,1.2-5.9,6.6,7.6,6.9-7.2,13-10.2-.9-.2-9.1-7.2-2.5-10.9,10.1,9.1,21.4,9.5-8,17.7,16,24.7-16.5,7,3.1,7.9-19.4-3.1-8.9Z"/>
    <path id="LA-KH" d="M394.5,327.6l-6.5-15.5-5.4,1.6-25.3-23.9-14.1-29.2-11.5-3.8-11.9,17.7-26.8-16.6-6.4,2.6-8.3,18.6,28,25.2-2.5,27.5,4.7,2.1.4-9.7,17.8-2,67.9,5.5Z"/>
    <path id="LA-BL" d="M331.6,256.7l-9.7-11.9,1.8-14.1-22-5.7-24.7-17.8-7.6,16.1-12.9-3-22-3.1-2.5,19.7-33.8,4.6,4.5,12.5,10.1,8.9,11.4-8.6.6-8,36.6,5.5,16.8,27.1,8.3-18.6,6.4-2.6,26.8,16.6,11.9-17.7Z"/>
    <path id="LA-PH" d="M139,8.3l-12.4,14.9,12.9,25.4-2,29.2,5.8,5.9,26.7,15.2,10.9,5.5,22.8-15.9-6.8-6.7,8-28.4-5.5,1.9-2.2-7.8-8.6,10.5-3.3-14.4-27.2-30.9-13.8,2.4-5.5-6.7Z"/>
    <path id="LA-OU" d="M170.1,98.7l-26.7-15.2-2.9,3.6-7.9,17-11.8,8.1,8.3,5.8-1.1,9.2-17.1,9.8-1.2,12.8-8.9-1.3-16.5,9,1.2,5,43.6,2.7,8.1-6.3,26.7-12.5-2.8-15.4,11.5-18.3-2.4-14.1Z"/>
    <path id="LA-LP" d="M229.2,108.6l-14.2-3.6-11.2-16.8-22.8,15.9-10.9-5.5,2.4,14.1-11.5,18.3,2.8,15.4-26.7,12.5,10.9,30.7-5.3,20.5,17.4-20.4,18.2,2,6.4,8.3,9.3-5.2-4.1-12.3,25.6-22.6,4.2-43.9,9.6-7.5Z"/>
    <path id="LA-HO" d="M273.7,172.6l22.7,5.3,18.4-22.6-2.3-10.5-13.7-2.2,1.3-7.5-17.6-5.8,14-12.1-28.7-18.4-16.8,6.8-5.5,11-16.2-8-9.6,7.5-4.2,43.9,18.2,2.7,17.8-9.3,8.6,14.3,13.9-7-.3,11.9Z"/>
    <path id="LA-XI" d="M273.7,172.6l.3-11.9-13.9,7-8.6-14.3-17.8,9.3-18.2-2.7-25.6,22.6,4.1,12.3,19,9.6,42.1,6.8,1.3,8.9,12.9,3,7.6-16.1-22.5-11.4,13.2-10.7-4.9-11.5,10.9-1Z"/>
    <path id="LA-VI" d="M194,194.9l-9.3,5.2-6.4-8.3-18.2-2-17.4,20.4v24.8s-22.3,25.4-22.3,25.4l7.8,21.2,28-21.8-.3-13,6.8-1,19.9,11.4,20-3.2-4.5-12.5,33.8-4.6,2.5-19.7,22,3.1-1.3-8.9-42.1-6.8-19-9.6Z"/>
    <path id="LA-VT" d="M202.7,254l-20,3.2-19.9-11.4-6.8,1,.3,13,29.8,13.7,4.6,8.4,19.5-10.4,2.7-8.5-10.1-8.9Z"/>
    <path id="LA-SV" d="M394.5,327.6l-67.9-5.5-17.8,2-.4,9.7-4.7-2.1,1,24.7,16.1,22.3,20,6.6,25.8,7.1,13.5-6.3,1.3-10.6,7.7,4.4,17.9-5.3,6.6-13.4-11.6-13.2-.9-18.9-6.6-1.5Z"/>
    <path id="LA-SL" d="M434.6,375l-15.9-19.7-5.2,5.8-6.6,13.4-17.9,5.3-7.7-4.4-1.3,10.6-13.5,6.3-25.8-7.1-.6,11.7,12.5,6.7-2.7,14.5,26.3-1.8,4.8,9.7,11.7-6.3-2.5-5.9,19.9-3.1-2.1-12.4,9.1-15.6,9.1.6,8.3-8.3Z"/>
    <path id="LA-CH" d="M376.1,503.7l4.4-7.7-9.6-17.7,20.1-4.7-9.1-21.4,10.9-10.1,7.2,2.5.2,9.1,10.2.9,7.2-13-7.6-6.9-17-14.9-11.7,6.3-4.8-9.7-26.3,1.8-8.1,16.7,8.2,8.1-4.7,24.2-17.7,12.4,4,9.2,44.5,15Z"/>
    <path id="LA-XA" d="M142.7,210.3l5.3-20.5-10.9-30.7-8.1,6.3-43.6-2.7-19.5,4.5,6.2,17,12.7,1.2,6.9-7.6,20.6,3.9-4.5,9.9,8.4,20.7-5,21-11.2,13.3,6.9,6.1.5,15.5-15.3,27.6,13.5,6.4,22.6-20.2-7.8-21.2,22.3-25.4v-24.8Z"/>
    <path id="LA-LM" d="M140.4,87.1l-13.7-4.8-14.1,3.7-5.5-22-23.8,14.2-10,16.7,3.5,11,12.3,19.9,21.7,11.2,17.1-9.8,1.1-9.2-8.3-5.8,11.8-8.1,7.9-17Z"/>
    <path id="LA-BK" d="M110.8,137l-21.7-11.2-12.3-19.9-18.3,4.6-9.7,24.2,3,6.4,10.5-8.8,11.1,13-7.6,21.8,19.5-4.5-1.2-5,16.5-9,8.9,1.3,1.2-12.8Z"/>
  </g>
</svg>