<svg xmlns="http://www.w3.org/2000/svg" xmlns:amcharts="http://amcharts.com/ammap" id="Layer_1" viewBox="0 0 512 512"><g id="_x3C_defs"><amcharts:ammap bottomLatitude="33.055" leftLongitude="35.104" projection="mercator" rightLongitude="36.624" topLatitude="34.692"/></g><g><path id="LB-JA" d="m195.7 367.1-4.4-29.3-30.2 10.5-25.2-5.4-26.8 40-24.4 86.9-19 20.8 47.8.6 35.7-64.9-19.3-1.2-14.5-15.3 6-8 11.9 4.6 10.8-28.1 28.6-8.9 4.9 46.2 23.2-25.6-5.4-23.2Z"/><path id="LB-NA" d="m127.9 504.5 34.1-9.6 17.5-58.5 13.7 12.4 61-54.1-32.6-18.8-20.6 14.4-23.2 25.6-4.9-46.2-28.6 8.9-10.8 28.1-11.9-4.6-6 8 14.5 15.3 19.3 1.2-35.7 64.9 14.2 13.2Z"/><path id="LB-JL" d="m296.3 171.6-92.6-20-1 66.6-23.5 28.4-16.5 12.5-26.8 83.8 25.2 5.4 30.2-10.5 4.4 29.3 32.2-68.3 16.8-14.1-9.5-8.3 46.3-56.4 14.7-48.6Z"/><path id="LB-BA" d="m179.2 246.6-18.3-1.2 1.8 13.7z"/><path id="LB-AS" d="m371.6 7.5-12 18.5-73.7-6.9 3.4 34.2-20.2 18.6-24.8 4 .2 15.3-35.6 31.7-5.1 28.7 92.6 20 60.1-94.7 20.4-11.4 27.9-40.1h-18.4z"/><path id="LB-BI" d="m254.3 394.7 18.8-13.2 3.5-19.9 25.8-12.1-28.7-22 18.3-36.6 36.5-27.4 55.4 8.2 2.6-10.3-25-15 5-12.1 25.9-30 21.3-2.7 32.6-44.5-5.6-30.8-16-16.5 1.6-21.2-23.2-21.9-26.2-1.3-20.4 11.4-60.1 94.7-14.7 48.6-46.3 56.4 9.5 8.3-16.8 14.1-32.2 68.3 5.4 23.2 20.6-14.4 32.6 18.8Z"/></g></svg>