<svg xmlns="http://www.w3.org/2000/svg" xmlns:amcharts="http://amcharts.com/ammap" id="Layer_1" viewBox="0 0 512 512"><g id="_x3C_defs"><amcharts:ammap bottomLatitude="-.704" leftLongitude="72.639" projection="mercator" rightLongitude="73.6" topLatitude="7.106"/></g><path id="MV-MV" d="m249.8 505.5.8-.3v-.4c-.1 0-1.4-.4-1.4-.4v.4c-.1 0 .6.8.6.8Zm-4.1-8-.9.4v.4l2.1 4-1-3h.2l-1-.9.2-.4.3.5v-1Zm9.4.1-1.2.2.4.4-.3.6v.7c.1 0 .2-.6.2-.6l.8-.8v-.5Zm11.1-18.5 1.1 1.3h.7l-1.4-2.1-.5.3v.4Zm-9.4-32.7h.8l.4-.6h-.8zm10.4-2.7 1.3-1.4h-1.1c0 .1-.3.9-.3.9v.5ZM239.5 430l.4-.2v-1l-.8.3zm35.8-1.2-.6-.7.2.7.5.4v-.4Zm-35.4-2.5h-.3l-.1.8h.5l.1-.8zm24.6-80.1.7-.5h-.7l-.4.3zm6.7-1.9.9-.7.5-1.1h-.3l.2.1-.8 1.1-.7.4zm4.2-18.4v.3h.3l1.6-1v-.6c.1 0-.8.6-.8.6l-1.3.3.2.6Zm-2 15.3-.5 1.1h.4v-1.1Zm1.3-4.7h-.3v-.4l-.3 3.1-.4 1-.5.4.2.2h-.3c0-.1.7.6.7.6v-.9c-.1 0 1.3-3 1.3-3l-.5-1Zm-7.9-52.9h.3c0-.1.2-1.4.2-1.4zm7.5-92.6-.2.7.3.4-.2.8h-.3c0-.1-.1-1.2-.1-1.2l-.2.4v1.7c.1 0 .7-.8.7-.8l.6-2.1-.5-.2v.3Zm-36.7-13.5v-.6c.1 0-.5-.3-.5-.3l-.2.5zm34.6 16v.6h.8v-.5h-.8Zm-32.5-44.8h-.2c0 .1.2 1.1.2 1.1l.5-.9h.3l-.2-.3h-.5Zm29.4-4.4.8-.5v-.7l-.2-.1-.4.6-.7.2zm.1-55.1 1.5-1.1v-1l-.3.9zm-2.4-9.1-.9-1.3h-.4l1.7 2.2zm-11-21.6-.6-.7.2 1.2h.4zm-8.9-.7.4-.5-.2-.2-.4.4.2.4Zm-8.2-15.5.5-.4-.4-.3-.6.4.5.4Zm-1.5-.6.3-.2-.2-.2-.8.3.8.2Zm6.2-1 .2-.8-.5-.5-.3.4.5.9Zm1.1-3.2.2-.8-.8-.6.2 1.1.3.3Zm.7-2.7.4-.7-.5-.5-.3.6.3.6Zm1.8-1.5.8-1.1v-.9l-.5.4.2.8-.4.9Zm-3.5-4v-.5c.1 0-.3-.5-.3-.5v.6c-.1 0 .3.3.3.3Zm7.2-.1 1-2.4-.7.6-.9 2.3-.7.3h.5l.8-.9Zm2-4.9v.4l.6.3.6-1-.5-.3-.2.2h.2c0 .1-.1.6-.1.6h-.2v-.3h-.3Zm-2.7-.4.4-.2-.6-.5v.4c-.1 0 .3.3.3.3Zm4.6-3 .3-.4v-2.8l-.3-.2-.5.2.7.3v1.9l-.8.6.6.5Zm-1-4.4.5-1.2-.4-.6-.3.4.3 1.4Zm-14.3-5.6.4 1.3h.2l.1-.5zm-4.4-4.4h-.2l.3.1.3 1.1.3-.4-.2-.3-.5-.6Z"/></svg>