<?xml version="1.0" encoding="UTF-8"?>
<svg id="Layer_1" xmlns="http://www.w3.org/2000/svg" xmlns:amcharts="http://amcharts.com/ammap" version="1.1" viewBox="0 0 512 512">
  <!-- Generator: Adobe Illustrator 29.1.0, SVG Export Plug-In . SVG Version: 2.1.0 Build 142)  -->
  <g id="_x3C_defs">
    <amcharts:ammap bottomLatitude="-0.7035846" leftLongitude="72.6385815" projection="mercator" rightLongitude="73.5996537" topLatitude="7.1063772"/>
  </g>
  <path id="MV-MV" d="M249.8,505.5l.8-.3v-.4c-.1,0-1.4-.4-1.4-.4v.4c-.1,0,.6.8.6.8ZM245.7,497.5l-.9.4v.4s2.1,4,2.1,4l-1-3h.2c0,0-1-.9-1-.9l.2-.4.3.5v-1ZM255.1,497.6l-1.2.2.4.4-.3.6v.7c.1,0,.2-.6.2-.6l.8-.8v-.5ZM266.2,479.1l1.1,1.3h.7s-1.4-2.1-1.4-2.1l-.5.3v.4ZM256.8,446.4h.8s.4-.6.4-.6h-.8s-.4.6-.4.6ZM267.2,443.7l1.3-1.4h-1.1c0,.1-.3.9-.3.9v.5ZM239.5,430l.4-.2v-1s-.8.3-.8.3l.4.9ZM275.3,428.8l-.6-.7.2.7.5.4v-.4ZM239.9,426.3h-.3s-.1.8-.1.8h.5c0,0,.1-.8.1-.8h-.2ZM264.5,346.2l.7-.5h-.7s-.4.3-.4.3l.4.2ZM271.2,344.3l.9-.7.5-1.1h-.3s.2.1.2.1l-.8,1.1-.7.4.2.2ZM275.4,325.9v.3s.3,0,.3,0l1.6-1v-.6c.1,0-.8.6-.8.6l-1.3.3.2.6ZM273.4,341.2l-.5,1.1h.4s0-1.1,0-1.1ZM274.7,336.5h-.3s0-.4,0-.4l-.3,3.1-.4,1-.5.4.2.2h-.3c0-.1.7.6.7.6v-.9c-.1,0,1.3-3,1.3-3l-.5-1ZM266.8,283.6h.3c0-.1.2-1.4.2-1.4l-.5,1.4ZM274.3,191l-.2.7.3.4-.2.8h-.3c0-.1-.1-1.2-.1-1.2l-.2.4v1.7c.1,0,.7-.8.7-.8l.6-2.1-.5-.2v.3ZM237.6,177.5v-.6c.1,0-.5-.3-.5-.3l-.2.5.7.4ZM272.2,193.5v.6c-.1,0,.8,0,.8,0v-.5s-.8,0-.8,0ZM239.7,148.7h-.2c0,.1.2,1.1.2,1.1l.5-.9h.3s-.2-.3-.2-.3h-.5ZM269.1,144.3l.8-.5v-.7c0,0-.2-.1-.2-.1l-.4.6-.7.2.5.5ZM269.2,89.2l1.5-1.1v-1c0,0-.3.9-.3.9l-1.2,1.2ZM266.8,80.1l-.9-1.3h-.4c0,0,1.7,2.2,1.7,2.2l-.4-.9ZM255.8,58.5l-.6-.7.2,1.2h.4c0-.1,0-.5,0-.5ZM246.9,57.8l.4-.5-.2-.2-.4.4.2.4ZM238.7,42.3l.5-.4-.4-.3-.6.4.5.4ZM237.2,41.7l.3-.2-.2-.2-.8.3.8.2ZM243.4,40.7l.2-.8-.5-.5-.3.4.5.9ZM244.5,37.5l.2-.8-.8-.6.2,1.1.3.3ZM245.2,34.8l.4-.7-.5-.5-.3.6.3.6ZM247,33.3l.8-1.1v-.9s-.5.4-.5.4l.2.8-.4.9ZM243.5,29.3v-.5c.1,0-.3-.5-.3-.5v.6c-.1,0,.3.3.3.3ZM250.7,29.2l1-2.4-.7.6-.9,2.3-.7.3h.5s.8-.9.8-.9ZM252.7,24.3v.4s.6.3.6.3l.6-1-.5-.3-.2.2h.2c0,.1-.1.6-.1.6h-.2s0-.3,0-.3h-.3ZM250,23.9l.4-.2-.6-.5v.4c-.1,0,.3.3.3.3ZM254.6,20.9l.3-.4v-1.6s0-1.2,0-1.2l-.3-.2-.5.2.7.3v1.9s-.8.6-.8.6l.6.5ZM253.6,16.5l.5-1.2-.4-.6-.3.4.3,1.4ZM239.3,10.9l.4,1.3h.2s.1-.5.1-.5l-.7-.8ZM234.9,6.5h-.2s.3.1.3.1l.3,1.1.3-.4-.2-.3-.5-.6Z"/>
</svg>