<?xml version="1.0" encoding="UTF-8"?>
<svg id="Layer_1" xmlns="http://www.w3.org/2000/svg" xmlns:amcharts="http://amcharts.com/ammap" version="1.1" viewBox="0 0 512 512">
  <!-- Generator: Adobe Illustrator 29.1.0, SVG Export Plug-In . SVG Version: 2.1.0 Build 142)  -->
  <g id="_x3C_defs">
    <amcharts:ammap bottomLatitude="12.568210" leftLongitude="34.248695" projection="mercator" rightLongitude="63.338136" topLatitude="39.725388"/>
  </g>
  <g>
    <path id="AE" d="M300.5,303.9l2.8-.9.6,4.8,12.5-2.7,13.2.5,9.6.5,10.9-11.8,11.9-11.3,10.1-10.8,3,6,2.2,13.9h-8.1c0,0-1.3,11.4-1.3,11.4l2.8,2.4-7.2,3.4v7.1c0,0-4.7,7.2-4.7,7.2l-.4,6.9-3.2,3.6-47.9-8.6-6.1-17.5-.6-4Z"/>
    <path id="IL" d="M47.5,150.8l-2.8,6-5.8-2.6-3.3,12.5,4,2-4,2.6-.7,4.9,7.5-2.6.4,7.2-8,29.4-10.5-31.6,4.6-6.1-1.1-1.1,4.2-8.7,3.2-14.2,2.3-4.8.5-.2h5.3l1.5-3.3,4.3-.3.2,7.8-2.2,2.8h.3Z"/>
    <path id="IQ" d="M202.3,88l10.4,5.9,1.3,11.4-8.1,6.7-3.7,15,11.1,18.1,19.5,10.4,8.3,14.2-2.6,13.5h5.1l.2,9.8,8.8,9.6-9.4-.9-10.8-1.5-11.7,17.5-29.6-1.5-45-36.9-23.8-13-19.2-5.1-6.4-23,35.3-19.9,6-23.4-1.5-14.3,8.8-4.9,8.2-12.4,6.8-3.1,18.5,2.6,5.6,5.1,7.6-3.4,10.4,23.6Z"/>
    <path id="IR" d="M337.9,63.8l14.1-3.9,11.3-11.5,10.6.6,7-3.8,11.4,1.9,17.6,10.2,12.7,2.2,18.2,17.6,11.9.7,1.4,16.6-6.5,24.2-4.4,13.9,6.9,2.8-6.8,10.4,5.2,15,1.3,11.9,12.1,3.1,1.3,11.9-14.5,16.7,7.9,9.6,6.4,11,15.2,8,.5,15.8,7.6,2.9,1.3,8.2-23,9.2-6,20.5-30-5.3-17.4-4-18-2.3-6.8-21.7-7.6-3.2-12.3,3.2-16,8.6-19.5-5.9-16.1-13.7-15.4-5.1-10.6-17.1-11.8-24.3-8.6,3-10.1-6.1-6,7.2-8.8-9.6-.2-9.8h-5.1l2.6-13.5-8.3-14.2-19.5-10.4-11.1-18.1,3.7-15,8.1-6.7-1.3-11.4-10.4-5.9-10.4-23.6-8.7-16.1,3.1-6.2-5-23.4,10.9-5.9,2.5,7.8,8.1,9.4,10.9,2.7,5.8-.6,18.8-15.1,6-1.5,4.7,6.1-5.5,10.1,10,10.6,3.9-1,5.1,14.9,15.1,4.2,11.1,10,22.6,3.4,24.9-5.2,1.5-4.7Z"/>
    <path id="JO" d="M44.7,156.8l2.8-6,17.8,7.5,31.2-20.1,6.4,23-3,2.8-32,9.4,15.9,18.5-5.3,3.1-2.6,6.2-12.2,2.5-3.8,6.6-6.9,5.6-17.8-2.9-.5-2.6,8-29.4-.4-7.2,2.4-5.5v-11.4Z"/>
    <path id="KW" d="M243,201.7l3.3,8-1.4,4.2,5.1,13.7-11.3.5-4-8.6-14.2-1.8,11.7-17.5,10.8,1.5Z"/>
    <path id="LB" d="M49.1,140.1l-4.3.3-1.5,3.3h-5.3l5.7-15.5,7.9-13.5.3-.7,7.2,1,2.6,7.5-8.7,7.2-3.9,10.4Z"/>
    <path id="OM" d="M416.7,357.7l-6,11.6-7.2-.9-3.3,4-2.6,8.5,1.9,11.3-1.5,2h-7.3c0,0-10,6.2-10,6.2l-1.5,8.1-3.6,3.5h-9.9c0-.1-6.3,4.1-6.3,4.1v6.7c0,0-7.7,4.6-7.7,4.6l-8.8-1.5-10.7,5.6-7.4.9-5.2-11.6-12.5-27.5,47.9-16.8,10.6-34-7.3-12.2.4-6.9,4.7-7.2v-7.1c0,0,7.3-3.4,7.3-3.4l-2.8-2.4,1.3-11.4h8.1c0,0,7.2,11.8,7.2,11.8l8.9,6.3,11.7,2.3,9.4,3.1,7.2,9.9,4.3,5.7,5.7,2.2v3.8c0,0-5.9,10.2-5.9,10.2l-2.6,4.8-6.7,5.6ZM377.3,275l-2.1,3.2-3-6,4.7-6,2,1.5-1.5,7.3Z"/>
    <path id="PS" d="M44.7,156.8v11.4l-2.4,5.5-7.5,2.6.7-4.9,4-2.6-4-2,3.3-12.5,5.8,2.6Z"/>
    <path id="QA" d="M288.2,295l-1.1-12.7,4.3-9.2,4.3-1.9,4.8,5.5.3,10.3-3.5,10.3-4.4,1.3-4.8-3.5Z"/>
    <path id="SA" d="M160.1,437.6l-2-7.1-4.8-5-1.3-6.7-8.2-5.9-8.5-14-4.5-13.7-11-11.6-7.1-2.7-10.6-16.2-1.8-11.8.7-10.2-9.2-19.1-7.5-6.8-8.6-3.6-5.2-10,.9-3.9-4.4-9.1-4.7-3.9-6.2-13.2-9.7-14.3-8.1-12.3h-7.9c0,0,2.4-9.8,2.4-9.8l.7-6.3,1.9-7.3,17.8,2.9,6.9-5.6,3.8-6.6,12.2-2.5,2.6-6.2,5.3-3.1-15.9-18.5,32-9.4,3-2.8,19.2,5.1,23.8,13,45,36.9,29.6,1.5,14.2,1.8,4,8.6,11.3-.5,6.3,15.5,7.9,4,2.7,6.3,10.9,7.5,1,7.3-1.6,5.9,2,5.9,4.6,5,2.2,5.7,2.4,4.3,4.8,3.5,4.4-1.3,3,6.7.6,4,6.1,17.5,47.9,8.6,3.2-3.6,7.3,12.2-10.6,34-47.9,16.8-46,6.4-14.9,7.5-11.4,17.5-7.5,2.7-4-5.5-6.1.9-15.4-1.7-3-1.7-18.4.4-4.3,1.5-6.5-4.3-4.3,8.1,1.6,7-7,5.3Z"/>
    <path id="SY" d="M96.5,138.2l-31.2,20.1-17.8-7.5h-.3c0-.1,2.2-3,2.2-3l-.2-7.8,3.9-10.4,8.7-7.2-2.6-7.5-7.2-1-1.5-14.9,3.9-8,4.3-4.3,4.3-4.3.9-11,5.2,3.9,17.6-5.5,8.5,3.7h13.1c0,0,18.3-7.5,18.3-7.5l8.6.3,18.2-3.1-8.2,12.4-8.8,4.9,1.5,14.3-6,23.4-35.3,19.9Z"/>
    <path id="YE" d="M324.9,432.6l-11.6,4.5-3.1,7.3-.4,5.6-15.9,6.9-25.5,7.7-14.3,11.6-7,.9-4.8-1-9.3,6.8-10.2,3.1-13.4.9-4,.9-3.5,4.3-4.2,1.2-2.4,4.2-7.9-.3-5.1,2.2-11-.8-4.2-9.5.5-8.9-2.6-4.8-3.1-12.1-4.6-6.8,3.2-.8-1.7-7.5,1.9-3.2-.7-7.2,7-5.3-1.6-7,4.3-8.1,6.5,4.3,4.3-1.5,18.4-.4,3,1.7,15.4,1.7,6.1-.9,4,5.5,7.5-2.7,11.4-17.5,14.9-7.5,46-6.4,12.5,27.5,5.2,11.6Z"/>
  </g>
</svg>