<?xml version="1.0" encoding="UTF-8"?>
<svg id="Layer_1" xmlns="http://www.w3.org/2000/svg" xmlns:amcharts="http://amcharts.com/ammap" version="1.1" viewBox="0 0 512 512">
  <!-- Generator: Adobe Illustrator 29.1.0, SVG Export Plug-In . SVG Version: 2.1.0 Build 142)  -->
  <g id="_x3C_defs">
    <amcharts:ammap bottomLatitude="41.565304" leftLongitude="87.747116" projection="mercator" rightLongitude="119.938631" topLatitude="52.153412"/>
  </g>
  <g>
    <path id="MN-1" d="M312.6,252.2l-1,.4-.9-.3-.6-2.2.7-.6h1s.7.5.7.5l.6.7v.7c0,0-.4.8-.4.8ZM328,238v4.7s-.8,2.6-.8,2.6l-1.2,1.5h0l-1.7-.7-1-3.3v-2.6c0,0,.6-1.8.6-1.8l.8-.9,1-.4,1.4.2.9.7ZM302.6,232h.9s2.8-1,2.8-1l.7,1.4,2.9,3.9.7.5,2.4.7.7.6v.7c0,0-.9,5.3-.9,5.3l-.5,1.2-1.7.3-1.7-.3-.8-.8-.9-1.5-1.1-.6-2.2-.2-4.1.5-1.8-.6-.5-.4-.2-.8v-1.8s-.5-1.5-.5-1.5l-.6-.9v-3c-.1,0-1.1-3.7-1.1-3.7l6.5,1.4,1.3.5Z"/>
    <path id="MN-035" d="M266.4,210.3l.8,1.9v.7c-.1,0-1.5,1.4-1.5,1.4l-1.4.9h0l-2.1-1.1-3.7-1v-1.3s1.6-1.9,1.6-1.9l2.8,1,.9-.9.5-.2h1s1.2.6,1.2.6Z"/>
    <path id="MN-037" d="M291.5,194.1l-2.1,2.4v.8l.5.9,1.2.4,2.5,1.5,1.3.3h.7c0-.1.6-.6.6-.6l.9-1.3,3.3,1.4.9.9.4,1.8-.4,4,.3,3.1-3.1,1-2.5-1.1-.7-.5-.5-.7-2.1.5-2.4,1.7-3.6.3-.7-.3-.2-2,.9-4.2v-2.4c0,0,.5-1.8.5-1.8l-.4-1.6v-1.9s2.5-2.8,2.5-2.8l1.5-2.4.9-.6.8.7v1.3c-.1,0-1.1,1.4-1.1,1.4Z"/>
    <path id="MN-039" d="M326,246.8l1.2-1.5.8-2.6v-4.7h0l2.5-1,2.4-2.2.9-.5.4-.8.6-2,1.1-1.5.3-1.3-.3-1.9-2.5-9.6-1.8-3.7-3.3-3.5h0l.2-2.4.6-2.6h2.2c0,0,1.1-.4,1.1-.4l1.4.2,1.3-.4,1.2.6,2.7-.6,2.4.7,1.7,1,.4,1.1.4.3h3.3s1.3.8,1.3.8l.7-.4,2.5.3,2.7.7,1.6-.6,1.1-1.6,1.3,1.3.9.2.9.8.9.3h1.7c0,.1,2.9-.8,2.9-.8l2.7-2.4,2.9-1.1.9-.9,1.9.7,3-1.4,1.9.3,2.3-.3h0l2.4,1.5.7.8.5,4.2,1.5,3v.9c-.1,0-.8,1.5-.8,1.5v.8c0,0,.8,2.5.8,2.5l3.6,6.7.3,1.8-.5,3.2.5,3.7,1,3.6,1.3,3.1h-2.5c0,.1-1.9.7-1.9.7l-4.5,2.7-.6,1.2-.4,2.3v2.3s.3,1.7.3,1.7l-4.2-1.4-1.8,1.2-2,1.7-1.3,2.6-.5,3.2-.5,1-.3,1.9.2,1.6-1.4,1.4-.9,1.9v2.1c-.1,0,.3,2.7.3,2.7l-.5,2.2-1,2.3h0l-.8,1-2.2,2.1-.3.7h-1.4c0,0-4.7-1-4.7-1l-.7-2.5-2-3.4-2-2.2-1.8-2.8-1.8-.7-.6.6.4,2.9v.7c-.1,0-1.5,3.1-1.5,3.1l-1.9,2-2.6,1.6-1.3-.5h-3c0-.1-1-.5-1-.5l-1.7-1.9-1-2.6-2.2-1.7h0l.3-1.7-.2-3,.6-3.1-.3-.5-1.1-.7-.6-1.4-.9-1.3h0l-1.4-1-1.1-1.4-1-3-.9-1.5-.5-1.6-1.4-2.5-.6-1.5Z"/>
    <path id="MN-041" d="M181,137l.9,1.3,3.5,1.3.3,1.1.4.3,2.1.3,1.5.7,1.7.2.9.3.9.7.9,1.4,1.3,1.1.9.5,2-.2,2.4.4h1.4c0-.1,1.2.1,1.2.1l1-.2,1.2.8h1.3c0,.1,1.2,1.1,1.2,1.1l.8.2.9.6,1.2.3,1.4,1.1,1.1.3.6.7h1.5c0,0,2.1,2.1,2.1,2.1h.4s.7-.7.7-.7l.5-.2h1.5s1.2,1.2,1.2,1.2l1.4-.2,1.7,1h1.2c0,0,.9.6.9.6h1.4c0,0,2,1.8,2,1.8v.4s-.8.6-.8.6l-.2.4.4,1.1v1.8c-.1,0,.2,1.9.2,1.9l1.1,2.6-.6,2v1c0,0,.4.8.4.8l1.2,1,.4.7-1,2.2v1s.4.6.4.6l1.3.8,2,.4.8,1.5,1.4,1.3h0l-2.7,1.5-1.3,1.3-.9,2.8-1.7,1.8-1.8,2.5-.5,1.4.3.8,1.1.7,6.9,2.8,1.3.7,1,1-1.8,1.3h-1.7c0-.1-.6.1-.6.1l-1.4,3-1.3,1.3-1,.5-4.7,1.4-1.9,1.8-.7,1.1-1.2.4-.7,1-.6,1.9v1s.5,2.6.5,2.6h0l-2.6.3-1.9-.4-1.6-1.2-6-2.7-2.8-1.8-.8,2.3-2.7,2.6,1.9.9.6.8-2.7,1.6-1.3,2.9-.3,1.4v1s.4.8.4.8l1.4,2-3.6.7-.4.5-.2,1.3-.8.4-1.3-.3-1.9-1.2-2.3-.8v1.5c0,0-.7,2.2-.7,2.2l-.5.7-1,.4-5.8,1-3-1.4h0l.4-1.9-.5-3v-1.2c0,0,.5-1.5.5-1.5l1.8-3.2-.9-3.9-.2-3.2-.5-1.2-2.2.2-1.7-.2-.7.2-.5.5-.2,1.2-.4.5-2.9,1.8-1.1-.7-.8-.9-.7-.3h-2.6s-1.8.7-1.8.7l-3-.3-.6-.2-2.4-2.2-2.9-1.5-3-.5-2.3.3-1.6-2.2-2.2-1.6-.9-1v-3.3s3.3-3.6,3.3-3.6l.6-2.1v-1.9h.1l.7,1.2,2.1.5,2.1-.9,2.4-2.1v-.3c.1,0-.3-.8-.3-.8v-.4s1.4,0,1.4,0l1.9-.9.5.9h.7s.6-1,.6-1l.6-.3.3-.5,1.1-.4,1-1.1,1-2.7,1.3-1.2.4-1.4-.3-2.4.5-1.1.5-2.2-.9-.7-1.8-.4-1.5-1.5-.5-1.2-.7-.8-.3-1.2.3-.8.7-.9v-.4s-2.4-2-2.4-2v-.6c0,0-.6-.7-.6-.7v-.6c.1,0,.6-.5.6-.5l.6-3.1.7-1.5v-2.2c-.1,0,1.5-2.8,1.5-2.8l.8-.5h1.4c0,.1.6,0,.6,0l.4-1.4-.3-1.1.8-2,.3-1.7.8-.7,2-.5.8-.6,1.1-.2,1.2-.6,1-1.9.9-2.9.5-.7.4-2.5.2-.2h.7c0,0,.7.6.7.6Z"/>
    <path id="MN-043" d="M62.9,220.4l2.7-2.5,2.4-3.2,1.7-.9,2.5-.4v1.5c-.1,0,.2,2.3.2,2.3l.8.6h1.6c0,0,.6.1.6.1l1.2,3.5h3.7s2.7.6,2.7.6l1.6.8h1.1c0,.1,1-.3,1-.3l1.3-1.3h.8c0-.1.9,0,.9,0l1.3.9,1,2.1.6.9,1,.6,1.4.4h0l.8,1.4v.9c.1,0-.9,4-.9,4l-1.1,1.7-2.6,2.6,1.9,3,4.8,4.2h0l-1.2,2.1,2.3,1.6,2,2.8,1.1.6,1.3.3,1,.6,1.5,4.4,1.8,3.9,1.3,1.8,1.3,1-2.9,1.6-3.4.2-1,.3-2.2,2.6-.5,1-1.6-1.4-2.2-.5.5,1.7,1.1,2.2.2.7v1.1c-.1,0-3.2,6.4-3.2,6.4l-.8,4.5-.9.8-3.1,1.9-.6,1.2.3,1.8.8,2.4v6.2s.9,5.1.9,5.1h-.4c0-.1-1,0-1,0l-.8-.4-8.6.2-1.2-.2-.5-.5h-.5c0-.1-1.7-.1-1.7-.1l-1.4.4-1.5-.7h-.9c0-.1-3.9-.1-3.9-.1l-1.8.3-1.7-.4-1.3-1.5-.7.2-.5.6-1.4-.3-.9-.5-1.5-1.3h-1.7c0,0-1.2.4-1.2.4l-1-.2.3-1.5-.6-.6h-.7c0,.1-.3-1.9-.3-1.9l-.7-1.4-1-.9-.3-.7.2-1.4.5-1.3v-1.6s1-1.4,1-1.4l1.5-2.8,2.4-2.6v-.9s-.2-.4-.2-.4l.3-.7-1.4-2.1.2-.9-.6-1.4.6-.6.4-.8,1.5-4.4v-.3c-.1,0-.8-.3-.8-.3l.5-2.6h0v-.3c-.1,0,3.2,1.3,3.2,1.3l.4.4.8,1.8,1.1.6,1-.3,1.4-1.4h3.2c0,0,1.1-.3,1.1-.3l1.2-1.7-4.5-2.8-1.9-1.5-.9-1.1-.2-1.7.4-2.5-.3-1.7-1.4-1.2-1-1.7-.8-.8.4-3.6-.3-.9-.9-1.4v-2.1c-.1,0-1-.4-1-.4l-.5-.6-.4-1.7-1.1-3.1-.6-1.2-1-1.2-.3-.9-.6-4.2.3-2.6-.3-2.6-.3-.8-1.2-1.8.3-.3,3.2.5,1.6-.7,1.5-1,.9-.3.9.2,1.3.8Z"/>
    <path id="MN-046" d="M80.7,170.4h1.7c0,0,.2.5.2.5v1c0,0,.6.1.6.1l1.4-.2v-1.1s1.1-.8,1.1-.8h1.6c0,0,1.4.1,1.4.1l.4.5-.4.8v.7c0,0-.4,1.1-.4,1.1v1c.1,0,.7.7.7.7h.7s.9.6.9.6l4.2-.6,1-.4.8.5h1.8c0-.1.5,0,.5,0l4.4-.3,4.9.4.4.6v1.3c.1,0,.7.8.7.8l.9,6.1.3.4,1.3.7.3,1.2,1,1.4.2.6.9.2,2.3-.7h2.2s.5.3.5.3l.7,1.6,1.2.8h3.3s2.7.7,2.7.7h0v1.8c-.1,0-1.5,3.1-1.5,3.1l.8,4.4.5,1.1,1.5,1,2.1,2-1,2.9-1.1,1.2-.5,1.5-.3,1.6-.2,3.9-.4.9-.8.7h-1.9s-3,2.7-3,2.7l-1.4.5-4.9.2-.3-.9h-2.7c0,0-2.4-.3-2.4-.3l-2.7-1.1-1.7-.2-1.5,1.3-4,1.6-.9,1.2-.3,1.9-2.4,1-1.3,1.4h0l-1.4-.4-1-.6-.6-.9-1-2.1-1.3-.9h-.9c0-.1-.8,0-.8,0l-1.3,1.3-1,.4h-1.1c0-.1-1.6-.9-1.6-.9l-2.7-.6h-3.7s-1.2-3.6-1.2-3.6l-.6-.2h-1.6c0,0-.8-.5-.8-.5l-.4-2.3v-1.5c.1,0-2.4.4-2.4.4l-1.7.9-2.4,3.2-2.7,2.5h0l-.4-2.8-.5-1.5-1.3-2-1.2-.7-1.6-1.5-.4-1.6-1.5-4.1-1.1-.7-1.2.2-1.2-1-1.2-2.2v-1s-1.3-2.6-1.3-2.6l-1.6-1.7-2.5-1.6-.9-1.6-.9-3.7-.7-.8-1.4-.7h0l1.5-.8h1.6c0,0,1.1.5,1.1.5l.4-.4.3-1.3,1-1.4,2.7-.8,1.8.3h.3c0-.1.1-1.2.1-1.2l1.1-.6.3-.7v-.5s-.5-.8-.5-.8h-.8c0,.1-.4-.3-.4-.3l.5-2.6.6-1,1.1.6,2.1-.3,2.2.5h.8s1.8-.7,1.8-.7l2.7.6.3-.5v-.6s-.3-.5-.3-.5l.2-.5,1-.4h1.3c0,0,.8-.3.8-.3l.2-.4v-1.7c0,0,.8-.8.8-.8l.5-.2.2-.5h1s.2-.3.2-.3h.3s2.6,1.2,2.6,1.2h1.9c0,0,.8,0,.8,0l.4-.4.8-.3.5-.7-.3-1.6.6-1.9.2-.2h.6s.3.2.3.2l.2,1.6,1.3,1.1Z"/>
    <path id="MN-047" d="M328.2,209.9l3.3,3.5,1.8,3.7,2.5,9.6.3,1.9-.3,1.3-1.1,1.5-.6,2-.4.8-.9.5-2.4,2.2-2.5,1h0l-.9-.7-1.4-.2-1,.4-.8.9-.7,1.8v2.6c0,0,1,3.3,1,3.3l1.7.7h0l.6,1.5,1.4,2.5.5,1.6.9,1.5,1,3,1.1,1.4,1.4,1h0l-1,1.9-.7.8-3.6,1.8-4.3-.7h-1.4s-1.7.4-1.7.4l-.7.4h0l-1.6.3-.4,3.5-.5.8-2.6.7-1.5,1.8-2.6,1-4.1.3-1-.6-2.2-2.1-1-.6-2.1-.5h-8.3s-.6-1-.6-1l-2.5-.9-1.7-1.4-.8-.3-2.2.5-2.8,3.8-1.2,2.3-2.6-1.9-4-1.4-1.4,1.8-3.5,2.9h0l-1.4-1.5-2.2-1.6-.3-.6-.2-3.3-.9-1.8-1.4-1.8,1-1,.7-.2v-2.1c.1,0-.3-1-.3-1l-2.3-2.4-.5-2v-1.4h0l.4-.7v-.6s-1.2-1.4-1.2-1.4l-.4-1.1,1.4-1.3,2.7-1.6h2.4c0-.1.6-1.3.6-1.3l3.6-.2-.9-3.6v-1.8c-.1,0,.2-.3.2-.3v-.8c-.1,0-.5-.2-.5-.2l-.3.2-2.5-.2-1.6-.8-.2-1.7-1.4-1.9,1.7-3.6,1.5-1.2.3-.5.4-2-.2-3.8h0l6.7,2.6,1.5.2,1.7-.9,1.6-.4,3.5-1.9-.8-2.6,1-.8,1.1-.7,3.9-1.1,2,.5.8.7.2,1.2-.6,1.8.4.5.8.5,1.6-.9,4.3,2.3.5.7,1.5.7,1.9.3,1-.4,1.8-1.6h1.6s2.1-.4,2.1-.4l1.2.4.9,1,2.8-.9,1.4-.8h1.4c0,0,.5-.2.5-.2l1.3-3.6v-.9s-.3-.5-.3-.5l-1.7-1-1-1.8,2.2-1.9,1.8-.5h1.8s1.3.5,1.3.5l1.5,1,1.2-1.2,2.1-1.1,3.4-.4ZM297,239.1v2.2c0,0,.7.8.7.8l1.8.6,4.1-.5,2.2.2,1.1.6.9,1.5.8.8,1.7.3,1.7-.3.5-1.2,1-5.3v-.7c0,0-.7-.6-.7-.6l-2.4-.7-.7-.5-2.9-3.9-.7-1.4-3.4,1.1-1.7-.6-6.5-1.4,1,3.7v3c.1,0,.5.5.5.5l.7,1.8ZM313,250.7l-1.2-1.2h-1s-.7.6-.7.6l.6,2.2.9.3,1-.4.4-.8v-.7Z"/>
    <path id="MN-049" d="M284.3,178.7h2.2c0-.1,1.6.5,1.6.5h2s.5.4.5.4l.2,1,2.9,1.3,3.1-1,1.4-.2,2.9.6,3.2,2.4.5.8,1.1,2.8,1.2,1.2h.9c0,.1,1,.7,1,.7l.9-.7,1.1,1.1,1.2-.2,1.6.6h1.9c0,0,.4-.5.4-.5h.2s1.7,1.4,1.7,1.4h1.9s-.4,1.6-.4,1.6l.5,2.7-.7,1v.6c.1,0,.5.3.5.3l.7-.3.2,1.4,1.7,1.3,2.3.7.4.8.6.5.3.8,1.4,1,1,1.3.8.3h0l-.6,2.6-.2,2.4h0l-3.4.4-2.1,1.1-1.2,1.2-1.5-1-1.3-.5h-1.8s-1.8.4-1.8.4l-2.2,1.9,1,1.8,1.7,1,.3.5v.9s-1.3,3.6-1.3,3.6l-.5.3h-1.4c0,0-1.4.7-1.4.7l-2.8.9-.9-1-1.2-.4-2.1.4h-1.6s-1.8,1.6-1.8,1.6l-1,.4-1.9-.3-1.5-.7-.5-.7-4.3-2.3-1.6.9-.8-.5-.4-.5.6-1.8-.2-1.2-.8-.7-2-.5-3.9,1.1-1.1.7-1,.8.8,2.6-3.5,1.9-1.6.4-1.7.9-1.5-.2-6.7-2.6h0l-.2-2.5.4-1.3-2.6-2.6h0l1.4-.9,1.4-1.4v-.7c.1,0-.7-1.9-.7-1.9h0l1.2-6.1,1.1-2.9v-3.8c.1,0,1.1-1,1.1-1l-.7-1.3-1.7-1.9-.8-1.3v-2.6c-.1,0,.9-.1.9-.1l.5-.5-.9-1v-1.2c-.1,0-.5-1.2-.5-1.2l-1.2-1.6-1.5-1.4h0l.3-.5.6-.3,1.6-.3h1.3c0,.1,1.7-.8,1.7-.8h1.8s2.2-1.1,2.2-1.1h2.5c0,.1.9-.3.9-.3l2.2-1.6h1.1s3.2,1.1,3.2,1.1h1.2ZM290.7,210.4l2-1.5,1.3-.4h.8c0,0,.5.7.5.7l.7.5,2.5,1.1,3.1-1-.3-3.1.4-4-.2-1.4-.4-.7-1.8-1.2-2.3-.9-.6.9-.9.9h-1.2c0,0-1.4-.5-1.4-.5l-1.9-1.1-1.2-.4-.5-.9v-.8l3-3.7v-1.3c.1,0-.7-.7-.7-.7l-.9.6-1.5,2.4-2.5,2.8v1.9s.4,1.6.4,1.6l-.5,1.8v2.4c0,0-.9,4.2-.9,4.2l.2,2,.7.3,3.9-.4Z"/>
    <path id="MN-051" d="M392.7,240.7l.8,5,1.8-.7,1.4-.2,1.3.3,2,.8,7.9,1.2,2.3,1.1,2.3,2.2,1.5.9,1.6,1.5,4.8,2.9-.9,3.8v1.8s.3,1.2.3,1.2l.9,1.1,3.2,2.2,1,1.5,2.1,2.5,5.6-1.1h4.6c0,.1,3.2-.9,3.2-.9h7.1s.8.4.8.4l.5.6,3.6,7.1h0l-1.9,2.4-.8.6-.2.7-1.6,2.6v1.5c-.1,0,.4,1.2.4,1.2l-.2,1.5-.5.5-.2.8-.9.6h-1.2c0,0-.4,0-.4,0l-2,1.4-1.4,1.5-1.2.9-.7,1.4-2.2.2-3.7,1h-2.3c0-.1-2.9.4-2.9.4v-.8s-1.3-.1-1.3-.1l-2.5-1-1.7.5-1.5.7-.5.5-.4,1.9-1.7,2.6-5.1,4.6-1.2.6-1.8,1.4-1,.3-2.6,2.3-2.5-.7v-.3s-3.4,0-3.4,0l-1.9-.2-1.6-.8h-.7c0,0-1-.7-1-.7h-1c0,0-.5-.2-.5-.2h-.9s-2.7-1.8-2.7-1.8l-1.3-1.7-1.1-.6-7.3-.6h0l-.5-2.4.2-1.7v-.7c-.1,0-1.8-2.3-1.8-2.3l-.8-1.8-1.1-.9.5-4.3v-3.4c-.1,0-.5-1.7-.5-1.7l-.9-2.1-.8-.9-3.2-1.7-3.1-1.3h0l1-2.3.5-2.2-.4-2.7v-2.1c.1,0,1-1.9,1-1.9l1.4-1.4-.2-1.6.3-1.9.5-1,.5-3.2,1.3-2.6,2-1.7,1.8-1.2,4.2,1.4-.3-1.7v-2.3s.4-2.3.4-2.3l.6-1.2,4.5-2.7,1.9-.6h2.5Z"/>
    <path id="MN-053" d="M255.1,299.4l3.5-.2,1.6-.5.9,2.4,1.3,5.2,1.1,1.3,1.4.6,8.3,2.1,4.6-.5,4,.3,1,2.4,2.2,3.1.9,2.4,2.5,2.2,1.1.5h2s2.5-.8,2.5-.8l1.3-1.1,2-.8,1.2-.9,3.3-1.7,7.7-1.8,2.8.5,3.3-1.4h0l-.6,5.1,2.3,4.8.8,3.7,1.6,5.3-.3,4.4v3.3s1.1,2.9,1.1,2.9l.4,4.7-.8,7.5v3.3s-.2,0-.2,0h0l-.9.3-5.5-.3-.5-.8h-1c0,0-2.4,1.2-2.4,1.2l-.4,1.1h-.2c0,0-8.8,2-8.8,2l-10.4,5-3.2,1.3-7.7,4.6-.5-.2-3.7,3.6-1.4-1.6h-3.7s-2.7-.4-2.7-.4l.2-4.6-8,1.5h-2.5c0,0-8.3-2-8.3-2l-5.3-2.5-3.7-2.2-3.1-.3h-1.9c0,.1-5.4-1.5-5.4-1.5l-3.8-5.3-13.9-3.6-9.1-.8-.7,1.1-4.4-.4-6.1,1.3h0v-3.2s-.3-2.7-.3-2.7l-1.3-7.6-.6-5.9v-7.2s-.5-4-.5-4v-.9c.1,0,.7-.7.7-.7l3.1-.8h1.1c0-.1,1.2.2,1.2.2l3.2,2.2,3.5,4.1.7.4,1.5.3,3.5-.5h8.7s1.8-.3,1.8-.3l4.2-2.2,2.8-1,.9-1.2h0l3.8-1.3,4.9-.9h9.7c0-.1-.9-2.4-.9-2.4v-1.2s.5-1,.5-1l1-1.4,1.1-3.3,1.7-3.2.5-1.4,1.2-.6.6-1.4,2.7-1.4.9-.7,1.6-1.8,1.1-1.6v-.5Z"/>
    <path id="MN-055" d="M216.5,262.7l1.9-.5h3.3c0,0,2.7-.4,2.7-.4l.7-.4.5-1.1.7-.7,4.6-1.4h1.4c0,.1,1.5,1.7,1.5,1.7l.7.5.7-.5.4-.6.4-2.3.5-1.1,1.3-1,.8-1.5v-.9s-1-1.2-1-1.2l-.2-.8.4-.7.8-.3.7.7,1.7.4,1.1.8,1.5.4,1.9,2,1.1.6,2.3.3h2c0,0,1.6-.6,1.6-.6l.8-.9h0l1.7-.3h1.2c0,.1,1.3,0,1.3,0l3-.8h0v1.4s.5,2,.5,2l2.3,2.4.4,1v2.1c-.1,0-.8.2-.8.2l-1,1,1.4,1.8.9,1.8.2,3.3.3.6,2.2,1.6,1.4,1.5h0l-.4,2.8-1.1,2.5-1.4.5h-2.4c0-.1-1.1,2.4-1.1,2.4l-.7.9-.9,3.7-.4.8-.8.4h-.9c0,.1-2.9,0-2.9,0l-1,.5-1.5,1.5-.4,1.8.4,2.4,1.4,2.1.7.2.3.5-.2,1.6v2.2h0v.5c0,0-1.2,1.6-1.2,1.6l-1.6,1.8-.9.7-2.7,1.4-.6,1.4-1.2.6-.5,1.4-1.7,3.2-1.1,3.3-1,1.4-.4,1v1.2s.9,2.3.9,2.3h-9.7c0,.1-4.9,1-4.9,1l-3.8,1.3h0l-.6-1.3-1.1-5-1.1-3.9-1.4-2.7.2-2.7.6-.9-.3-.7-2.7-2-2.7-1-.6-.9-.7-1.9v-7.1c0,0,.4-.9.4-.9l1.2-1.7v-1.5s.9-1.4.9-1.4l.4-1.7-.6-3.4v-2.2s.6-1.2.6-1.2l2-1.5.6-1.1v-4.3c0,0,.5-1.6.5-1.6l-.7-1.9.3-.9-1.3-2-1.9-3.5Z"/>
    <path id="MN-057" d="M134.2,189.5h.6c0,0,.6-.6.6-.6l.7-.3,2.1.7h1.2s.3.7.3.7l.6.3.9,1.1h.5c0,0,1.4-1.3,1.4-1.3l1.5-.6.7.5-.3,1,.3.3h.6c0,0,1.1-1,1.1-1h.8s2.5.7,2.5.7l1.1,1.6,1,.5h0v1.9c-.1,0-.8,2.1-.8,2.1l-3.3,3.6v3.3s.9,1,.9,1l2.2,1.6,1.6,2.2,2.3-.3,3,.5,2.9,1.5,2.4,2.2.6.2,3,.3,1.8-.7h2.6s.7.3.7.3l.8.9,1.1.7,2.9-1.8.4-.5.2-1.2.5-.5.7-.2,1.7.2,2.2-.2.5,1.2.2,3.2.9,3.9-1.8,3.2-.4,1.5v1.2c0,0,.4,3,.4,3l-.4,1.9h0l-1.8.5-3.9,1.7-.7,1-1.8,1.3-.9.2h-2.3c0-.1-.7,0-.7,0l-.7.6-.6,1.6.2,1.7-.5,2.5v1.5s.4,1.1.4,1.1l.8.9,2.5,1h0l-.5,2-1.6,1.9-.2,3.3-.6,1.2-1.5,1.2-1.1.5-2-.3-.9.7-.3,1.9-1.1,1.2-.6,1.2-.2,2.6-.6,2.4-1.9,3.3h0l-1.5-.5-.6-.7-.5-1-3.1,2.6h-.9c0,0-3-.5-3-.5l-.3-1.9-1.5-2.5-.6-.7-.9-2-.6-.4-1.3.2-3.8,2.1-.8-2.8v-3.8c0,0-.4-1.1-.4-1.1l-.5-.9-1.9-2.1-1.3-.3-1.7-1.6-1.8-1.1-.8-.2-2.4-1.8-1-.5-4.4-.7-2.7.6-.7-1.9-.9-.7-2.7-.4h-2.1c0,.1-2.7-.2-2.7-.2l-2.5-1.2-1.3-1h-.5c0-.1-1.5.2-1.5.2l-7.7,2.7h0l-4.8-4.2-1.9-3,2.6-2.6,1.1-1.7,1.1-4v-.9c-.1,0-.9-1.4-.9-1.4h0l1.3-1.4,2.4-1,.3-1.9.9-1.2,4-1.6,1.5-1.3,1.7.2,2.7,1.1,2.4.3h2.7c0,0,.3.9.3.9l4.9-.2,1.4-.5,3-2.7h1.9s.8-.7.8-.7l.4-.9.2-3.9.3-1.6.5-1.5,1.1-1.2,1-2.9-2.1-2-1.5-1-.5-1.1-.8-4.4,1.3-3.1v-1.8h.1l2-.8,1.6-.2.3-1.1,1.2-.7,1,.3.2.7.7.4Z"/>
    <path id="MN-059" d="M319.5,263.9l1.4,1.7,3.1,2.2-1.4,2.9v.8c0,0,1.3,1.9,1.3,1.9l.2.9-.4,2.3-.8,1.9v1.1s.3,1,.3,1l1.3,1.9.8.7.8.2,2.7-.7h0l-1,4.2-.4,3.6,1,5.2,1.8,5.4-1.8.4-1.1.6-.6,2.1v1.8c0,0-9,.4-9,.4l-1.5,5.4-.9,1.4h0l-3.3,1.4-2.8-.5-7.7,1.8-3.3,1.7-1.2.9-2,.8-1.3,1.1-2.5.8h-2s-1.1-.5-1.1-.5l-2.5-2.2-.9-2.4-2.2-3.1-1-2.4-4-.3-4.6.5-8.3-2.1-1.4-.6-1.1-1.3-1.3-5.2-.9-2.4-1.6.5-3.5.2h0v-2.2s.2-1.6.2-1.6l-.3-.5-.7-.2-1.4-2.1-.4-2.4.4-1.8,1.5-1.5,1-.5,2.9.2h.9c0-.1.8-.5.8-.5l.4-.8.9-3.7.7-.9,1.1-2.6h2.4c0,.1,1.4-.4,1.4-.4l1.1-2.5.4-2.8h0l3.5-2.9,1.4-1.8,4,1.4,2.6,2,1.2-2.3,2.8-3.8,2.2-.5.8.3,1.7,1.4,2.5.9.6.9h8.3s2.1.5,2.1.5l1,.6,2.2,2.1,1,.6,4.1-.3,2.6-1,1.5-1.8,2.6-.7.5-.8.4-3.5,1.6-.3Z"/>
    <path id="MN-061" d="M420.4,183.3h.9s1.9-.4,1.9-.4l1.2.2,3.3,1.3.6.4,1,1.6,2.6,3.2,2.5,1.8.9-.2.8.3.7-.3,2.6.5h.6c0,0,4.6-3,4.6-3l2.7-.6,3.3,1.7,2.5.5,1.4,2.4-10,22.6v.5c0,0,1,1.2,1,1.2v.4c-.1,0-4.6,6.1-4.6,6.1l-.2.8.4,3.7v1.5c-.1,0-5,2.1-5,2.1v.8s.6,3.4.6,3.4h-1.3v.4s.2.4.2.4l1.5.8,5.2,5.7h.5c0,.1,2.9-3.4,2.9-3.4l1.8-.9,2,.6,1.7.2h.7c0-.1,1.6-1.1,1.6-1.1l2.5-.2,2.2.7,2.5,1.3,4.3,3.9.4-1.2.9-1.4,1.3-.9,3.1-4.6,1.2-.5v-.3c.1,0,1.2-.2,1.2-.2l1.4.2,1-.3h.8s-.2.5-.2.5l1.2-.3,1,.7h3.5s4.6,4.5,4.6,4.5l1.3.7,4.1,1.6v1.1c0,0,.5,1.9.5,1.9v.8c0,0,.5.5.5.5l1-.2.7-.4h.3s.3.4.3.4v1.4c0,0-.2.8-.2.8l3.4,3.1,2.9,3.6,1.1,3.1.9,1.9.6.5.4,1.7-.2,1,.4,1.3v.9s-.8.6-.8.6l-.6.2-1,1h-2.2c0,0-1.7-.6-1.7-.6h-1.6c0,.1-.5.8-.5.8h-1l-2.2-.9h-1l-.9-.5-.9-.8-2-1.1h-1.1c0,0-1,1.6-1,1.6l-1.8-.2-1.2.3-2.7-.9-1,.2-1.2.7-1.8.3-.9,1.1-2.7.5-.4,1-.5.3-1.8.2h-.4c0-.1-.6-.6-.6-.6l-.3-1.1h-.2c0-.1-2.5,0-2.5,0v1.4s-1,1.9-1,1.9v1.9c-.1,0-2.2-.2-2.2-.2l-3.9.2h-.7c0,0-1.2-.7-1.2-.7l-1.5,1.5-2.5.4-.5.4-.4,1.1h0l-3.6-7.1-.5-.6-.8-.3h-7.1s-3.2,1-3.2,1h-4.6c0-.1-5.6.9-5.6.9l-2.1-2.5-1-1.5-3.2-2.2-.9-1.1-.3-1.2v-1.8s1-3.8,1-3.8l-4.8-2.9-1.6-1.5-1.5-.9-2.3-2.2-2.3-1.1-7.9-1.2-2-.8-1.3-.3-1.4.2-1.8.7-.8-5h0l-1.3-3.1-1-3.6-.5-3.7.5-3.2-.3-1.8-3.6-6.7-.9-2.5v-.8c0,0,.7-1.5.7-1.5v-.9c.1,0-1.3-3-1.3-3l-.5-4.2-.7-.8-2.4-1.5h0l.8-.5,1.7-.3,2-1.1,1.2-.2,2.7-1.2,1.2.5h.8c0,0,1.1.8,1.1.8l1.2-.3,2.7-2,2.1-.7v-1c0,0,.1-.6.1-.6l1.4-3.1,4-3.1.6-.8h.7c0-.1,1-1.1,1-1.1l3-1.7,1.1.2,2.3-2.2,1-.2.4-.6,1.9-1.2,1.8-.6,1.1.7,1,.3Z"/>
    <path id="MN-063" d="M335,270.8l2.2,1.7,1,2.6,1.7,1.9,1,.4h3c0,.1,1.3.6,1.3.6l2.6-1.6,1.9-2,1.4-3.1v-.7c.1,0-.3-2.9-.3-2.9l.6-.6,1.8.7,1.8,2.8,2,2.2,2,3.4.7,2.5,4.7.9h1.4c0,0,.3-.6.3-.6l2.2-2.1.8-1h0l3.1,1.3,3.2,1.7.8.9.9,2.1.4,1.7v3.4c.1,0-.3,4.3-.3,4.3l1.1.9.8,1.8,1.6,2.3v.7c.1,0,0,1.7,0,1.7l.5,2.4h0l-1.2.5-1.1,1.1-3.6,6.4-.7,2.9-.8,1.9-1.1,1.7v1.5c-.1,0,.2,1,.2,1l.9.7,1.1,2.4,1.5,2,.6.6,2.1.4.8.6,2.4,3.9v.8c0,0-.6.7-.6.7l-.8.4-2.4.5-.8,1.6-1.5,2.3-.6.5-2.3.4-1.1.8-2.3.8-2.4,1.2-3.6,4.5-1.7,1.5v.7c0,0-1.3,2-1.3,2l-2.6,1.5v1.3c0,0-.6.6-.6.6l-4.1,2.7h-2.8s-2.1.3-2.1.3l-4.4,3.2-4.3,1-4-.4-.7-.3-2.4,1.4-.5-.5-4-1-3.6.3-.8-.5-3.2.4-1,.3h.2c0,0,0-3.4,0-3.4l.8-7.5-.4-4.7-1.1-2.9v-3.3s.3-4.4.3-4.4l-1.6-5.3-.8-3.7-2.3-4.8.6-5.1h0l.9-1.4,1.5-5.4,8.9-.4v-1.8c0,0,.7-2.1.7-2.1l1.1-.6,1.8-.4-1.8-5.4-1-5.2.4-3.6,1-4.2h0l.7-1.2.3-2,.8-2.2,2.5-2.6,1.2-1.8.8-1.8Z"/>
    <path id="MN-064" d="M332.9,259.2l.9,1.3.6,1.4,1.1.7.3.5-.6,3.1.2,3-.3,1.7h0l-.8,1.8-1.2,1.8-2.5,2.6-.8,2.2-.3,2-.7,1.2h0l-2.7.7-.8-.2-.8-.7-1.3-1.9-.3-1v-1.1s.8-1.9.8-1.9l.4-2.3-.2-.9-1.2-1.9v-.8c0,0,1.4-2.9,1.4-2.9l-3.1-2.2-1.4-1.7h0l.7-.4,1.7-.4h1.4s4.3.7,4.3.7l3.6-1.8.7-.8,1-1.9Z"/>
    <path id="MN-065" d="M98,244l7.7-2.7,1.5-.3h.5c0,.1,1.3,1.1,1.3,1.1l2.5,1.2,2.7.3h2.1c0-.1,2.7.3,2.7.3l.9.7.7,1.9,2.7-.6,4.4.7,1,.5,2.4,1.8.8.2,1.8,1.1,1.7,1.6,1.3.3,1.9,2.1.5.9.3,1.1v3.8c0,0,.9,2.8.9,2.8l3.8-2.1,1.3-.2.6.4.9,2,.6.7,1.5,2.5.3,1.9,3,.6h.9c0,0,3.1-2.6,3.1-2.6l.5,1,.6.7,1.5.5h0l1.3,1.5v1.3c-.1,0,1.4,4.2,1.4,4.2l2.2,1.6,4.9,4.9.2,1.3,1.9,1.7.9,1.2,1,4.8v4.4c0,0-.4,1.7-.4,1.7l-.7,2.3-2.9,6.4.2,4.8-.4,2.1-.8,2.1-.6.9-.7.5-1.4.4-.6,1.1v5s.4,3,.4,3l-.5,2.8-.3,3.3v1.8c0,0-.6,1.7-.6,1.7l-.2,2.3-1.2,2-.4,1.7v1.9s.6,3,.6,3v6.5h0l-9.8-1.4-2.2.7-1.1.6-1.1-.4-2.9-.3-1.9.4h-2.9c0,.1-.6-3.3-.6-3.3l-2.6-2.7-1.2-2.4-1.1-1.2-1.1-.7-.6-1.1-.2-2.9-3-5.9-.4-2.2-1.7-4.4-.2-.2-2.5-.5-.5-.5.4-3.5.9-1.1v-.6c0,0-3.7.5-3.7.5h-2.4s-.7.2-.7.2l-.9-.7-2.6-1.1h-.9c0-.1-.5-1-.5-1l-1.5-1.4-.6-.2-1.6-1.1-1.6-.4-.2-1.3-.9-.6-.8-1-1.3-.5-1.8-1.5-3.7-2-.7-1-1.1-.6-1.4-.4-.8-.6h-.7c0,.1-1.6-.5-1.6-.5h-1.4s-.8-.3-.8-.3h0l-.9-5.1v-6.2s-.9-2.4-.9-2.4l-.3-1.8.6-1.2,3.1-1.9.9-.8.8-4.5,3.1-6.4v-1.1c.1,0,0-.7,0-.7l-1.1-2.2-.5-1.7,2.2.5,1.6,1.4.5-1,2.2-2.6,1-.3,3.4-.2,2.9-1.6-1.3-1-1.3-1.8-1.8-3.9-1.5-4.4-1-.6-1.3-.3-1.1-.6-2-2.8-2.3-1.6,1.2-2.1Z"/>
    <path id="MN-067" d="M242.5,181.7l3.6-.2.6.4.3,1.4.7.8,1.9-.3,2.3,1.3,1.6.6.5-.3.6-1.1.5-.3h.7s3,1.3,3,1.3l3-.8.9-1.6.9-.2.2-.4h0l1.5,1.4,1.2,1.6.4,1.2v1.2c.1,0,1,1,1,1l-.5.5h-1c0,.1.1,2.7.1,2.7l.8,1.3,1.7,1.9.7,1.3-.9,1v3.8c-.1,0-1.2,2.9-1.2,2.9l-1.2,6.1h0l-1.2-.5h-1s-.5.2-.5.2l-.9.9-2.8-1-1.6,1.9v1.3s3.7,1,3.7,1l2.1,1.1h0l2.6,2.6-.4,1.3.2,2.5h0l.2,3.8-.4,2-.3.5-1.5,1.2-1.7,3.6,1.4,1.9.2,1.7,1.6.8,2.5.2.3-.2.4.2v.8c.1,0-.2.3-.2.3v1.8c.1,0,1.1,3.6,1.1,3.6l-3.6.2-.6,1.2h-2.4c0,.1-2.7,1.7-2.7,1.7l-1.4,1.3.4,1.1,1.2,1.4v.6s-.4.7-.4.7h0l-3,.8-1.3.2h-1.2c0-.1-1.7.2-1.7.2h0l-.3-2-4-3.6-3-4.7-.7-.4h-1.1c0-.1-1.2-2.9-1.2-2.9l-1.9-.9-.5-.5-.7-4-2-3.3-.7-.7-2.3-.3-1.7-1.5-.4-1.9-1.4-1.3-.4-.6-.5-4.2-1-3.1-1.3.8h-1.1s-1.1-1.7-1.1-1.7l-1.5-.4-.8-.5-1.4-1.7h0l-.5-2.6v-1s.7-1.9.7-1.9l.7-1,1.2-.4.7-1.1,1.9-1.8,4.7-1.4,1-.5,1.3-1.3,1.4-3,.6-.2h1.7c0,.1,1.8-1.2,1.8-1.2l-1-1-1.3-.7-6.9-2.8-1.1-.7-.3-.8.5-1.4,1.8-2.5,1.7-1.8.9-2.8,1.3-1.3,2.7-1.5h0l2.3.9,1,1.3,1.2.5Z"/>
    <path id="MN-069" d="M172.2,244.8l1-1.2,1.1-.7,3.6-.6.4,3,.6,1.1,1.3.9.5.7.5.2,3.2.2h.7c0-.1,1.3-.9,1.3-.9l1-1.5.4-.3,3.5-.8.7-.4h.8s0,2.6,0,2.6l1.9,2.9.5,4.2v1.6s.3,1.4.3,1.4l2.3-1.2,5.6-1.6-.4,2,.4,2.4,2.5,1.4,1.3,2.1,1,.2,1.7-.2,2.8.3,2-.6.8.5h.9s1.9,3.5,1.9,3.5l1.3,2-.3.9.7,1.9-.4,1.6v4.3c0,0-.7,1.1-.7,1.1l-2,1.5-.5,1.2v2.2s.5,3.4.5,3.4l-.4,1.7-.8,1.4v1.5s-1.2,1.7-1.2,1.7l-.3.9v7.1c0,0,.7,1.9.7,1.9l.6.9,2.7,1,2.7,2,.3.7-.6.9-.2,2.7,1.4,2.7,1.1,3.9,1.1,5,.6,1.3h0l-.9,1.2-2.8,1-4.2,2.2-1.8.3h-8.7s-3.5.5-3.5.5l-1.5-.3-.7-.4-3.5-4.1-3.2-2.2-1.2-.3h-1.1c0,.1-3.1,1-3.1,1l-.6.7v.9c-.1,0,.4,4,.4,4v7.2s.6,5.9.6,5.9l1.3,7.6.3,2.7v3.2h0l-1.6.3-10-.9-9.3-.5-3.5-1-3.6-.5h0v-6.5s-.5-3-.5-3v-1.9s.4-1.7.4-1.7l1.2-2,.2-2.3.7-1.7v-1.8c0,0,.2-3.3.2-3.3l.5-2.8-.4-3v-5s.6-1.1.6-1.1l1.4-.4.7-.5.6-.9.8-2.1.4-2.1-.2-4.8,2.9-6.4.7-2.3.4-1.7v-4.4c0,0-.9-4.8-.9-4.8l-.9-1.2-1.9-1.7-.2-1.3-4.9-4.9-2.2-1.6-1.5-4.2v-1.3c.1,0-1.2-1.5-1.2-1.5h0l1.9-3.3.6-2.4.2-2.6.6-1.2,1.1-1.2.3-1.9.9-.7,2,.3,1.1-.5,1.5-1.2.6-1.2.2-3.3,1.6-1.9.5-2Z"/>
    <path id="MN-071" d="M42.1,188.9l1.4.7.7.8.9,3.7.9,1.6,2.5,1.6,1.6,1.7,1.3,2.6v1s1.2,2.2,1.2,2.2l1.2,1,1.2-.2,1.1.7,1.5,4.1.4,1.6,1.6,1.5,1.2.7,1.3,2,.5,1.5.4,2.8h0l-1.3-.8-.9-.2-.9.3-1.5,1-1.6.7-3.2-.5-.3.3,1.2,1.8.3.8.3,2.6-.3,2.6.6,4.2.3.9,1,1.2.6,1.2,1.1,3.1.4,1.7.5.6.9.4v2.1c.1,0,1.1,1.4,1.1,1.4l.3.9-.4,3.6.8.8,1,1.7,1.4,1.2.3,1.7-.4,2.5.2,1.7.9,1.1,1.9,1.5,4.5,2.8-1.2,1.7-1.1.2h-3.2c0,0-1.4,1.4-1.4,1.4l-1,.3-1.1-.6-.8-1.8-.4-.4-3.3-1.3v.3h.1l-1.6-2.4v-1.2c0,0-.4-.7-.4-.7l-.3-1.2-.8-.7h-1.4c0,0-.6-.4-.6-.4l-.6-1.5-.7-.6-2-3.4-.6-1.6.2-1.5-.5-.9v-1.5s-.5-.5-.5-.5l-1.5-2.5v-.9c.1,0-1.5-1-1.5-1l-1.3-.5-1-1-.2-2.2-.7-.2-.4-.4h-.5c0,0-.3.7-.3.7l.2.6-.2.3-.8-.3-1.5.3-.6-.4-.5-1.3-.8-.3-.9-.9-.6-1.2.3-.6-.5-.5-1.9.3-.7-.2h-.4c0,.1,0,.5,0,.5h-.7c0,0-.4,0-.4,0v.5c-.1,0-.7.3-.7.3l-.6.8h-2.7s-.1-.3-.1-.3l.3-.9v-.7c0,0-.9-1.2-.9-1.2l-1.1-.5-.3-.4h-1c0,.1-.4-.3-.4-.3h-.6c0-.1-.4-.8-.4-.8l-.5-.2h-.5s-.7-1.1-.7-1.1l-.6-.2-.2-1.2.5-1.2-1.4-1.2v-.7c0,0-.4,0-.4,0l-.7.5h-.6c0,0-.9-1-.9-1v-.6s-.2-.3-.2-.3h-.7c0-.1-.7-.7-.7-.7l-1-.2-.6-.4h-.4s-.4-.3-.4-.3h-.8s-.6-.5-.6-.5v1.3c-.1,0-.3.2-.3.2v-.9c-.1,0,.6-2.5.6-2.5l1.1-1.1v-.4s-.2-.2-.2-.2h-.3c0,0-.7-.8-.7-.8l-.7-.2-.5.2-.9-.8h-.4c0,0-.7-.5-.7-.5l.4-.7-.4-.6-.7-.2.3-1.2h.5c0,.1.4-.3.4-.3l.8-.2.6-.7-.6-1-.3-.4h-.4c0,0,.3-.7.3-.7l-.2-.5.3-.6-.5-.6v-.7s1,.2,1,.2l.7-.4h.6c0,.1.4-1.2.4-1.2l.4-.2.3-.5h.7s.4.5.4.5l.6-.8.5-.2v-.3s-.8-1.1-.8-1.1l-.8-.7.6-.9.8-.4-.2-.7.4-.6,2.1-.6,1.1.2.7.5.8-.3.7.2.4-.7.9-.4.3.2.4,1.1.7.2h1.2c0,0,.9.4.9.4l-.3-1.6.5-.8.6-.2h.2c0,0,0,.7,0,.7l.8,1.3.8-.4,1.5-.3,1.1-1h.4c0,0,0-.5,0-.5l-.5-.8.2-.6.6-.7,1.1.5,1,.9,1-1.5,3.7-1.2.3-.3.6-1.7-.3-.3-1-.2-.3-.3.2-.8-.2-.5v-.7c0,0-.5-.6-.5-.6l.3-1,.7-.2h.7c0,.1.8-.5.8-.5l2.6.4.9-.5Z"/>
    <path id="MN-073" d="M182.4,229.2l3,1.4,5.8-1,1-.4.5-.7.7-2.2v-1.5c0,0,2.4.8,2.4.8l1.9,1.2,1.3.3.8-.4.2-1.3.4-.5,3.6-.7-1.4-2-.3-.8v-1s.2-1.4.2-1.4l1.3-2.9,2.7-1.6-.6-.8-1.9-.9,2.7-2.6.8-2.3,2.8,1.8,6,2.7,1.6,1.2,1.9.4,2.6-.3h0l1.4,1.7.8.5,1.5.4,1.1,1.7h1.1s1.3-.8,1.3-.8l1,3.1.5,4.2.4.6,1.4,1.3.4,1.9,1.7,1.5,2.3.3.7.7,2,3.3.7,4,.5.5,1.9.9,1.2,2.8h1.1c0,.1.7.5.7.5l3,4.7,4,3.6.3,2h0l-.8.9-1.6.6h-2c0,0-2.3-.2-2.3-.2l-1.1-.6-1.9-2-1.5-.4-1.1-.8-1.7-.4-.7-.7-.8.3-.4.7.2.8,1,1.2v.9s-.8,1.5-.8,1.5l-1.3,1-.5,1.1-.4,2.3-.4.6-.7.5-.7-.5-1.5-1.5h-1.4c0-.1-4.6,1.2-4.6,1.2l-.7.7-.5,1.1-.7.4-2.7.3h-3.3c0,0-1.9.6-1.9.6h-.9s-.8-.5-.8-.5l-2,.6-2.8-.3-1.7.2-1-.2-1.3-2.1-2.5-1.4-.4-2.4.4-2-5.6,1.6-2.3,1.2-.3-1.4v-1.6s-.5-4.2-.5-4.2l-1.9-2.9v-2.6c0,0-.8,0-.8,0l-.7.4-3.5.8-.4.3-1,1.5-1.3.7h-.7c0,.1-3.2,0-3.2,0l-.5-.2-.5-.7-1.3-.9-.6-1.1-.4-3-3.6.6-1.1.7-1,1.2h0l-2.5-1-.8-.9-.4-1.1v-1.5s.5-2.5.5-2.5l-.2-1.7.6-1.6.7-.6.7-.2h2.3c0,.1.9,0,.9,0l1.8-1.3.7-1,3.9-1.7,1.8-.5Z"/>
  </g>
</svg>