<svg xmlns="http://www.w3.org/2000/svg" xmlns:amcharts="http://amcharts.com/ammap" id="Layer_1" viewBox="0 0 512 512"><g id="_x3C_defs"><amcharts:ammap bottomLatitude="37.673" leftLongitude="124.216" projection="mercator" rightLongitude="130.699" topLatitude="43.012"/></g><g><path id="KP-13" d="m458.6 86.1-1-2-.9 1.5zm16.6-41.8-4.8 3.8-13.6 12.8-4.3 23.6 14.7-14.6 20.6 3.4z"/><path id="KP-10" d="m358.2 98.3-60.7 3.5 19.2 39.3-11.2 19.8-72.3-13.9-9.7-22-12.8 28.1 7.8 1 9.7 28.8L249 180l2.6 9.9 20.2-3.2-11.2 25 18.2 24.6-2.2 16.8 16.6-15.5 16.4-.5 10.9-18.6.4-21.1 23.5-16.2 16.9 7.1-6.8-31.6 6.1-11.9-9.5-7.3-5.4-28.5 12.7-10.7Z"/><path id="KP-02" d="m224.2 306.9 12.1-30-19-17.5-26.1 28-13.3 1.7-.5 12-24.1 2.8-40.3 26.6-7.8 12.9 8.3 4.5-3.5 15.8-19.6 37.7 35.2 13.2-3.9-11.1 3.4-42.3 17.3 7.4 12.9-6.8 13.2 7 11.2 20.9 19.5-5.1-7.3-13.4 5.5-.4 24.8 6.1 3.1-12.5-22.6-9.7-2.6-20.4 7.8-28.8 16.2 1.3Z"/><path id="KP-03" d="m52.5 343.8.4-2.7-1.4 1zm7-7.4-.8-2.4-1 2.5h1.8Zm-1-5.7-6.8 2.9h5.7zm13.8 3.9 3.1-7.2-7.7 10.1 4.6-3Zm-46.9-24.8.2-2.5-1.3 2zm84.9-80.3-37.1 15.9-37.6 36.1 9.3 7.1-12.7 10.2 17.3 9.2 5.2 20.8 7.8-17.9L89 331.1l23.9-.6 40.3-26.6 24.1-2.8.5-12-50.2-26.6-4.7-25.3z"/><path id="KP-08" d="m344.2 181.2-23.5 16.2-.4 21.1-10.9 18.6-16.4.5-16.6 15.5 2.2-16.8-18.2-24.6 11.2-25-20.2 3.2-6.6 15.7 5.3 11-27.2 22.7-5.7 20 19 17.5-12.1 30-16.2-1.3-7.8 28.8 2.6 20.4 22.6 9.7 6.9-17.8 11.4-1.5 11.3.7 8.3 9.2-3.8-37.2 8.8-11.5 27.4-20 22.9 1.6 59.5-50.3-16.9-23.7v-25.8l-17-7.1Z"/><path id="KP-04" d="m219.7 123.7-19.1 2.9-11.2 36.7-36.8 43-17.7 1.3-24.7 22 12.6 7.7 4.7 25.3 50.2 26.6 13.3-1.7 26.1-28 5.7-20 27.2-22.7-5.3-11 6.6-15.7-2.6-9.9-20.8 2.9-9.7-28.8-7.8-1 12.8-28.1-3.8-1.4Z"/><path id="KP-07" d="m243.6 345.3-11.4 1.5-6.9 17.8-3.1 12.5 1.3 12.3-23 29.1 18.7 40.4 15.5-12.1 68-1.5 18.3-27.5-43.3-45.2-26.2-7.8 3.2-18.8-11.3-.7Z"/><path id="KP-09" d="m427.4 8-10.6 50.5-12 7-13.9-7.3-9.2 21.8-23.4 18.3-12.7 10.7 5.4 28.5 9.5 7.3-6.1 11.9 6.8 31.6v25.8l17 23.7 5.2-13.3 35.2-13.4 5.8-50.1-11.2-16.5 39.6-59.9 4.3-23.6 13.6-12.8-13.5-15.4-1.7-18.9L439 8.2h-11.2Z"/><path id="KP-01" d="m142.4 368.6-17.3-7.4-3.4 42.3 16.2-5.3 21.3 11.8 8.6-6.8-6.1-17.5 18.1 4-11.2-20.9-13.2-7-12.9 6.8Z"/><path id="KP-05" d="m103 498.1 1.8-2.5-8.4 5.9zM91.8 494l2.3-2.9-3.4 1.8 1.1 1.2Zm-8-3.4-1-1-2.3 2.5 3.4-1.5Zm-11.5-64.1-6.7 1 8.1 2.1-1.5-3.1Zm33.2 77.5 28-22.6-10.2-9.7 32.8 14.7 3.9 11.7 20.8-13.4.3-27.3-34.2 1.2-16-16.7-4.1-24.5-10-5.3-37.4 8.6-8.2 28.3 8.8 5-23.3 9.2 42.7 4.3L79 481.4l20.1-.7 3.5 11.2 14.4-7.7-11.6 19.8Z"/><path id="KP-06" d="m197.5 370.8-5.5.4 7.3 13.4-19.5 5.1-18.1-4 6.1 17.5-8.6 6.8-21.3-11.8-16.2 5.3 3.9 11.1 1.2 2.8 4.1 24.5 16 16.7 34.2-1.2-.3 27.3 17.9 8.1 1-12.5 19.6-21.5-18.7-40.4 23-29.1-1.3-12.3-24.8-6.1Z"/></g></svg>