<?xml version="1.0" encoding="UTF-8"?>
<svg id="Layer_1" xmlns="http://www.w3.org/2000/svg" xmlns:amcharts="http://amcharts.com/ammap" version="1.1" viewBox="0 0 512 512">
  <!-- Generator: Adobe Illustrator 29.1.0, SVG Export Plug-In . SVG Version: 2.1.0 Build 142)  -->
  <g id="_x3C_defs">
    <amcharts:ammap bottomLatitude="37.6733322" leftLongitude="124.2164294" projection="mercator" rightLongitude="130.6988006" topLatitude="43.01159"/>
  </g>
  <g>
    <path id="KP-13" d="M458.6,86.1l-1-2-.9,1.5,1.9.5ZM475.2,44.3l-4.8,3.8-13.6,12.8-4.3,23.6,14.7-14.6,20.6,3.4-12.6-29Z"/>
    <path id="KP-10" d="M358.2,98.3l-60.7,3.5,19.2,39.3-11.2,19.8-72.3-13.9-9.7-22-12.8,28.1,7.8,1,9.7,28.8,20.8-2.9,2.6,9.9,20.2-3.2-11.2,25,18.2,24.6-2.2,16.8,16.6-15.5,16.4-.5,10.9-18.6.4-21.1,23.5-16.2,16.9,7.1-6.8-31.6,6.1-11.9-9.5-7.3-5.4-28.5,12.7-10.7Z"/>
    <path id="KP-02" d="M224.2,306.9l12.1-30-19-17.5-26.1,28-13.3,1.7-.5,12-24.1,2.8-40.3,26.6-7.8,12.9,8.3,4.5-3.5,15.8-19.6,37.7,35.2,13.2-3.9-11.1,3.4-42.3,17.3,7.4,12.9-6.8,13.2,7,11.2,20.9,19.5-5.1-7.3-13.4,5.5-.4,24.8,6.1,3.1-12.5-22.6-9.7-2.6-20.4,7.8-28.8,16.2,1.3Z"/>
    <path id="KP-03" d="M52.5,343.8l.4-2.7-1.4,1,1,1.7ZM59.5,336.4l-.8-2.4-1,2.5h1.8ZM58.5,330.7l-6.8,2.9h5.7c0,0,1.1-2.9,1.1-2.9ZM72.3,334.6l3.1-7.2-7.7,10.1,4.6-3ZM25.4,309.8l.2-2.5-1.3,2,1.1.5ZM110.3,229.5l-37.1,15.9-37.6,36.1,9.3,7.1-12.7,10.2,17.3,9.2,5.2,20.8,7.8-17.9,26.5,20.2,23.9-.6,40.3-26.6,24.1-2.8.5-12-50.2-26.6-4.7-25.3-12.6-7.7Z"/>
    <path id="KP-08" d="M344.2,181.2l-23.5,16.2-.4,21.1-10.9,18.6-16.4.5-16.6,15.5,2.2-16.8-18.2-24.6,11.2-25-20.2,3.2-6.6,15.7,5.3,11-27.2,22.7-5.7,20,19,17.5-12.1,30-16.2-1.3-7.8,28.8,2.6,20.4,22.6,9.7,6.9-17.8,11.4-1.5,11.3.7,8.3,9.2-3.8-37.2,8.8-11.5,27.4-20,22.9,1.6,59.5-50.3-16.9-23.7v-25.8c0,0-17-7.1-17-7.1Z"/>
    <path id="KP-04" d="M219.7,123.7l-19.1,2.9-11.2,36.7-36.8,43-17.7,1.3-24.7,22,12.6,7.7,4.7,25.3,50.2,26.6,13.3-1.7,26.1-28,5.7-20,27.2-22.7-5.3-11,6.6-15.7-2.6-9.9-20.8,2.9-9.7-28.8-7.8-1,12.8-28.1-3.8-1.4Z"/>
    <path id="KP-07" d="M243.6,345.3l-11.4,1.5-6.9,17.8-3.1,12.5,1.3,12.3-23,29.1,18.7,40.4,15.5-12.1,68-1.5,18.3-27.5-43.3-45.2-26.2-7.8,3.2-18.8-11.3-.7Z"/>
    <path id="KP-09" d="M427.4,8l-10.6,50.5-12,7-13.9-7.3-9.2,21.8-23.4,18.3-12.7,10.7,5.4,28.5,9.5,7.3-6.1,11.9,6.8,31.6v25.8c0,0,17,23.7,17,23.7l5.2-13.3,35.2-13.4,5.8-50.1-11.2-16.5,39.6-59.9,4.3-23.6,13.6-12.8-13.5-15.4-1.7-18.9-16.5-5.7h-11.2Z"/>
    <path id="KP-01" d="M142.4,368.6l-17.3-7.4-3.4,42.3,16.2-5.3,21.3,11.8,8.6-6.8-6.1-17.5,18.1,4-11.2-20.9-13.2-7-12.9,6.8Z"/>
    <path id="KP-05" d="M103,498.1l1.8-2.5-8.4,5.9,6.6-3.4ZM91.8,494l2.3-2.9-3.4,1.8,1.1,1.2ZM83.8,490.6l-1-1-2.3,2.5,3.4-1.5ZM72.3,426.5l-6.7,1,8.1,2.1-1.5-3.1ZM105.5,504l28-22.6-10.2-9.7,32.8,14.7,3.9,11.7,20.8-13.4.3-27.3-34.2,1.2-16-16.7-4.1-24.5-10-5.3-37.4,8.6-8.2,28.3,8.8,5-23.3,9.2,42.7,4.3-20.4,13.9,20.1-.7,3.5,11.2,14.4-7.7-11.6,19.8Z"/>
    <path id="KP-06" d="M197.5,370.8l-5.5.4,7.3,13.4-19.5,5.1-18.1-4,6.1,17.5-8.6,6.8-21.3-11.8-16.2,5.3,3.9,11.1,1.2,2.8,4.1,24.5,16,16.7,34.2-1.2-.3,27.3,17.9,8.1,1-12.5,19.6-21.5-18.7-40.4,23-29.1-1.3-12.3-24.8-6.1Z"/>
  </g>
</svg>