<?xml version="1.0" encoding="UTF-8"?>
<svg id="Layer_1" xmlns="http://www.w3.org/2000/svg" xmlns:amcharts="http://amcharts.com/ammap" version="1.1" viewBox="0 0 512 512">
  <!-- Generator: Adobe Illustrator 29.1.0, SVG Export Plug-In . SVG Version: 2.1.0 Build 142)  -->
  <g id="_x3C_defs">
    <amcharts:ammap bottomLatitude="23.706264" leftLongitude="60.895802" projection="mercator" rightLongitude="77.845456" topLatitude="37.095717"/>
  </g>
  <g>
    <path id="PK-BA" d="M254.6,211.3l6.4.3,3.7-4.1,4.4-.7-.9,2.9,2.1,1.4-1.1,2.8,1,.6,2.1-1.2-.8,12.6,2.5,1.8.9,4.9,1.5-3.2,2.1-.2,2.2-1.8.6.8-.6,10.9.7,2.2h0l.3,8.7-1.9.3-.3,2-3.2,1.9.4,3.2-3.4,5.9-1.1,4.8,1.1,2.2,1.7-1.2.9,1.3-2.5,3.2v2.4s-3.7,8.3-3.7,8.3l-2.8,3-4.2,2.1-1,7.3,2.8,1.2-.3,2.1,1.2,1.7,1.2-.9.5.7-1.3,6.3-5.8,5.9-.3,2.2,1,1.5-1.5,3.5-1.9,2.9-2.6,1.4,1.5,3.2h0l-26.7,1-2.8,3.6-12.1,8.5-1.6,2.6-7.8,3.2-7.7,1.6-.8,3.5-5.1,7.5-1.7,8.4,1.2,23.7,8.4,14.7-.5,9.8-1.8,4.7-2.5,2-.5,2-1.4.7-1.9,3.3v2.7c.1,0-3.9,5.2-3.9,5.2v2c0,0-2.5,2.6-2.5,2.6l-2.2.3-4.6,3.9h0l-1-1.3,1.9-8.3-5.7-5.4,1.1-2.2-.7-1.6-3.6-1v-1.1c-.1,0-1.3.2-1.3.2v-1.3c.1,0-1.5-.6-1.5-.6l-2.9,1.6h2.9s2.5,2.1,2.5,2.1l2.5.3.3,1.2h-1.1c0,0,1,1.1,1,1.1l-6.9-2.1-13.4,1.6-5.6,2.1-5.3-1.2-5.6.4-2.3,2.5-12.5-.5-3.6,1.9v1.9c0,0,1.5.6,1.5.6l-2.9.9-.5-.7,1.2-1.4-1.4-1.4-5.1.8-5.1-2.4-3.9-.4v-1.3s-.6-1-.6-1h2.3s.8-1.5.8-1.5l-1.7-1-3.6.4.6.8-1.4.6.8,1,1.4-.7.4,2.7-10.5-1.9-3.6.5-2.3,1.4v3.9s-10.9-1.7-10.9-1.7l-3.5,1.5-13.9-1.9-5.4,3-.5,1.8,1.4.8-3.4-.3,1.7-.5-.3-1.7-4.1-1.5-3.2,1.4,1,2.5-5.4-.3-1.4.6-.3,1.7-3.6.5.8-3.3-5.3-1.9,2.3-3.7,1.5-12.6-.5-3.7,2.7-.6,2-13.3,8-2.9.3-2.4,4.4,1-.8-2.9,1.5-1v-1.6c0,0,3.7-1.4,3.7-1.4l5.1-.6,5-2.2,11.5.2.7-6.4,2.6-1-.8-6.8,1.8-1.8-3.9-3.4-6.8,1.6-5-1.4,1.5-2.3-.7-1.2,1.4-4.1-2.6-18.7.7-8.1-5.9.7-5.2-5.4-11-3-7-4.4-8.8-12.3-1-3.6-1.6-.7.4-1.9-2.2-3.1.4-2.2-5.3-5.2-8.6-11.3,46.5,15.5,34.8-3.4,9,1.7,5,2.2,1.5-3.4,8.8-3.7,13.9.2,2.7,1.1,21.6-6.4v.8s14.1-4.8,14.1-4.8l2.7-3.9-3.5-3.6,1.9-2.8,2.3-9.7-.5-2-2-1.5,2.7-7.4-.8-1,3.6-4.5-.8-.5,4-.9,3-3.5,1-5.1h1.8s3.2-2.9,3.2-2.9l3.3-.5.9.8-.8,1.8,1.4,1.1,7.1.7,13.5-5,.8-1-.5-1.5h-4s-2.3-4.4-2.3-4.4l5.2.8,3.9-3.6,5.7-2.3,3.4-5.4,2.7,1.1.8,1.5h4s4.4-2.4,4.4-2.4l1.8,1.7,2,.3.4,2.5,2.6,3,3.3.2,1-1.4,2.1.7,2.9-2.6,2.3-5,3.7-3.2Z"/>
    <path id="PK-GB" d="M413.9,30.7l2.6-1.5.6,2.7,2.1,2,3-2.8,3.6-.3,2.7,2.3,4.8.5,1.6,8.1h2.3s.4-1.6.4-1.6h3.1c0,0,7.8,5.3,7.8,5.3l3.1,7.7-1.1,4.2,2,2.4-1.5.2.4,2-2.4,1.2.3,2.3,1.6,1.9h2.7c0,.1,2.1,3.3,2.1,3.3l.4,3.4h5.1l1.3-1.4,5.1-1.7.8,4.8,4.6,4h2.9c0,.1,3,2.4,3,2.4l3,.3,3.8,2.6h3.7c0,0,2.6,2.1,2.6,2.1l4-1,4.7.6,3-1.3,1.3.6-20.2,16-2.6,1.1-1.5-.5-.6,3.6-3.7-1.2-3.6,1.6-.2,3.1-1.8,2.9h-3.5s-2.6-1.2-2.6-1.2l-9.3,5.4-3.6-1-8.4,5.5-8.4-1h0l-3.3-3.6v-4.9c.1,0-2.8-4.4-2.8-4.4l-5.7,3.9-1.6-2.3-5-2.6-1.5.7.7-4.7-5.2-3.9-4.4,2.7-4.6-2-6.1.4h0l-9.6-4.1-2.2.6-.8-5.8,3.2-4.3-15.5-3.9-4.3-3.4-.3-4.7-.9-.8-3.4,1-4.4-.8-4.5,1.4-2.8-1-1.8-2,1.6-3.9-1.4-3,1.2-5.5,3.4-.8,5.1-4,.7-2.8,2.5-.7,2.2-2.4,1.1-2.5-.4-3.1,10.2-2.2,5.3,1.6h7.7s-.2-3.1-.2-3.1l-4.2-2-1-1.6h0v-.8c0,0,5.3,0,5.3,0l8.2,2.5,1-2.5,2.9.3,4.9-3.5h2.9c0-.1,1.2,1.3,1.2,1.3l1.8-4.7,1.9-.2,1.7,2.7Z"/>
    <path id="PK-IS" d="M363,148.1l2.9-1.5,3.9.2,4-3.1h0l.7,5.5,1.6.8,1.6,3.9.2,5.4-4.9,1.5-4.7-.9-1.8-2.2-.9-6.8-2.4,2.1-.2-4.8Z"/>
    <path id="PK-JK" d="M395.8,99.5l6.1-.4,4.6,2,4.4-2.7,5.2,3.9-.7,4.7,1.5-.7,5,2.6,1.6,2.3,5.7-3.9,3,4.4v4.9c-.1,0,3.1,3.6,3.1,3.6h0l-3.4-.7-3-3-6.8.2-3.2-1.5-5.4-.2-4.3-2.9-8-1.1-4.9,3.9-5.3-.2-1,1.8.6,2.6-1.6.9v1.8c0,0-3.5,2.8-3.5,2.8v2.4c-.1,0,3.6-.4,3.6-.4l2.3,3.4v1.9s-2.7,4.8-2.7,4.8l.4,1.5,3.2.4,3.5-1.2,3.7,1.5.4,3.1-1.2,2-4.5,1.7-3.2,3.5,2.1,5.1,2,.2,2.7,4-.5,3.8-2,2.7-2.4.4-.2,2.1,2.9,1.2,2.8,4.2,4.2.9-.9,3.4,2.8.5,1.4,3.9h0l-2.8.7-1.1-1.5-9.6-4.8-2.4-2.9-3.4.9-5.2-3,1-3.5-1.1-.7-1.6-5.5,1.6-3.1v-3.8s-1.7-1.9-1.7-1.9l.9-2.6-.9-3.2.6-3.3-1.6-3.3h0l-1.9-10.6-1.9-2.9,1.3-7,4.1-1.2,1.7.7.7-4.5,1.8-2.9,7.5-3.3,3-5.4-.6-2.6,1.8-1.2Z"/>
    <path id="PK-KP" d="M382.1,35.6l1,1.6,4.2,2,.2,3.1h-7.7s-5.3-1.6-5.3-1.6l-10.2,2.2.4,3.1-1.1,2.5-2.2,2.4-2.5.7-.7,2.8-5.1,4-3.4.8-1.2,5.5,1.4,3-1.6,3.9,1.8,2,2.8,1,4.5-1.4,4.4.8,3.4-1,.9.8.3,4.7,4.3,3.4,15.5,3.9-3.2,4.3.8,5.8,2.2-.6,9.6,4.1h0l-1.8,1.2.6,2.6-3,5.4-7.5,3.3-1.8,2.9-.7,4.5-1.7-.7-4.1,1.2-1.3,7,1.9,2.9,1.9,10.6h0l-3.6,1.5.4,1.4-1.2.5h0l-4,3.1-3.9-.2-2.9,1.5h0l-1.4.6-.8-1.1-2.6-.2-1.4-6.4-2.9,2.5h-1.4c0,0-.9-.8-.9-.8l.7-1.9-2.5-.2-1-1.9-2.2-.8-6.1,3.2.2,5.8-4.5-.7-1.6,1.3-1.6,3.2-.7,4.9-2.4,3.8-5,2.8-.5,2.8,1.7,3.3-1.3,3.7-2.8-1.4-1.5-3.9-5.2-.5,1.4,7.4-2.9,1.4-2.3-.7-2.7,1.7-1.8,6.2,1.6,6,2.9.8-.7,2.5,3.4-.8-.2,5.4-2.8.7-2.2,3.2v2.5s-2.2,1.4-2.2,1.4l-1.8,9.1-5.1,7.1-1.2,4.9,1.2-.5.5,1.1-.5,3-1.5.7-.3,3.1-1.8,1.6-.6-2-1.8.9-3.5-1.1-3.1,1.6-1.4,2.5h0l-2.3-9.2,2.3-2-2.9-1.4-1.2-1.9-5.1-18.3,11.1-10.1,2.8-.8-5.3-8.4-.2-3.1,2.7-5.5,2-2.6h5.1s4.6-4.8,4.6-4.8l-4.8-1-.4-1.3-4.3-2.7-1.7-3,2.8-.3,4.3-2.3.8-2.9,5.1.9,4.4-.7,1.7-5.6,6,3.9h8.6c0,.1-1.2,1.9-1.2,1.9l1,1.4,2.6-.4,3.8-3.1-.7-1.5,1.4-2.7-3.3-2.6-2.7,2.9-4.1.3-.3-3.1-2.6-1.7-1.5-5.1v-2.9c0,0,2.3-4.4,2.3-4.4l7.4-8.8-1.4-2.9,1.5-3.2,2-1.2.9-3.3-1.1-1.2-3.2-.6-3.6-5.7h0l1.7-2.1-1.5-2.3,4.5-4.2-3.6-3.8,3.1-4.3-1.5-2.9.8-1.9-3.5-1.9,1.5-3-2.4-2.4.7-1-1.1-2.2-2.2-1.9-.4-1.8-1.6-.3-3.2-3.3,2.6-3.3,3.9-2.3.5-1.7,4.5-2.3-1.3-1.8,2.2-2.3v-1.4s4.3,2.7,4.3,2.7h1.8s.1-1,.1-1l-1.3-.5.4-2.3h2.3s.8-2,.8-2l4.7-1.3.2-1.9,3.2-.6-.5-1.1,1.3-2.2,7.5-.9,4-2.6,7.4.3,9-1.3,3.9.9,10-1.4Z"/>
    <path id="PK-PB" d="M286,236l1.4-2.5,3.1-1.6,3.5,1.1,1.8-.9.6,2,1.8-1.6.3-3.1,1.5-.7.5-3-.5-1.1-1.2.5,1.2-4.9,5.1-7.1,1.8-9.1,2.1-1.4v-2.5s2.2-3.2,2.2-3.2l2.8-.7.2-5.4-3.4.8.7-2.5-2.9-.8-1.6-6,1.8-6.2,2.7-1.7,2.3.7,2.9-1.4-1.4-7.4,5.2.5,1.5,3.9,2.8,1.4,1.3-3.7-1.7-3.3.5-2.8,5-2.8,2.4-3.8.7-4.9,1.6-3.2,1.6-1.3,4.5.7-.2-5.8,6.1-3.2,2.2.8,1,1.9,2.5.2-.7,1.9.9.7h1.4c0,0,2.9-2.4,2.9-2.4l1.4,6.4,2.6.2.8,1.1,1.4-.6h0l.2,4.8,2.4-2.1.9,6.8,1.8,2.2,4.7.9,4.9-1.5-.2-5.4-1.6-3.9-1.6-.8-.7-5.5h0l1.2-.5-.4-1.4,3.6-1.5h0l1.6,3.3-.6,3.3.9,3.2-.9,2.6,1.7,1.9v3.8s-1.7,3.1-1.7,3.1l1.6,5.5,1.1.7-1,3.5,5.2,3,3.4-.9,2.4,2.9,9.6,4.8,1.1,1.5,2.8-.7h0l2.1,1.8,2.4-.6.8-2.3,1.6-.6-1.6,8,1.3,4.1h4.4c0-.1,4.1,1.6,4.1,1.6l1.7-1.5,1.5.4,1.3,2h1.8c0-.1,4.2,3.1,4.2,3.1l1,3.4-3.6,5.1-1.3-1-.9,1.7-1.4-.5-3.3,1.9-2.3-1.3-1.6.5-1.9,3.3-2.2.6-.8-.7-.2,1.1-3,1.3-1.3,2-1.1,3.6,2.5,5.3-1,2.3,2.2,1.4-3.8,6.4-.2,4.6,1.4,1.8,2-1.8,1.6.2.5,1.2-2.1,1.6-1.9-.7-.6,2.5-5.1,3.7v1.3c0,0-1.5,0-1.5,0l-1.6,2.7.6,1.3-5.6,4-.4,2.8-1.3-.2-2.1,2.7-.8-.2-1.9,3.2,2.5,3.6.3,2.3-5.3,4.3-11.6,4.3-3.5,12.8-9.7,17.8-16.4,8.8-2.4,3.3-3.5,10.2-7.4,7.7-1.1,5.6-7,2.9-11.3.9-11.4,4.7-3.7-.6-2.9-7.1-3.8-3.4-4.8.8-4.7,4.1h0l-4.9-2.2-2.4-2.3-4.4-10.2-.2-2.4-1.4-.4-.5-1.7-7.2-2.1-3.2,1.4h0l-1.5-3.2,2.6-1.4,1.9-2.9,1.5-3.5-1-1.5.3-2.2,5.8-5.9,1.3-6.3-.5-.7-1.3.9-1.2-1.7.3-2.1-2.8-1.2,1-7.3,4.2-2.1,2.8-3,3.7-8.3v-2.4s2.5-3.2,2.5-3.2l-.9-1.3-1.7,1.2-1.1-2.2,1.1-4.8,3.4-5.9-.4-3.2,3.2-1.9.3-2,1.9-.3-.3-8.7h0l.5-3.3,4.1-1.8Z"/>
    <path id="PK-SD" d="M219,480.2l2.1-.4-.7,4.2h-2.8c0-.1,1.5-3.8,1.5-3.8ZM307,452.8l-4.8-8.2-1.5-6.8-6.5-7.9-.2-10-7.8,1.1-3.5-1.2-5.4-7.9-.4-4.2,2.7-5.6v-10c-.1,0-3.1-1.6-3.1-1.6l-7.4.2-8.8-4.8-.9-2.2.9-6.9,1.9-4.9,12.9-12.9,2.7-7,2.9-3.9h0l-4.9-2.2-2.4-2.3-4.4-10.2-.2-2.4-1.4-.4-.5-1.7-7.2-2.1-3.2,1.4h0l-26.7,1-2.8,3.6-12.1,8.5-1.6,2.6-7.8,3.2-7.7,1.6-.8,3.5-5.1,7.5-1.7,8.4,1.2,23.7,8.4,14.7-.5,9.8-1.8,4.7-2.5,2-.5,2-1.4.7-1.9,3.3v2.7c.1,0-3.9,5.2-3.9,5.2v2c0,0-2.5,2.6-2.5,2.6l-2.2.3-4.6,3.9h0l-1.6,1.3.2,1,5.6-1.1,3.7,2.5-1.9-2.4,1.5-.4.6,1.8,2.8,2.2.2-1.5h4.1c0,.1.3,1.1.3,1.1l-1.9,1.2.8,1.4-.7.5,1.8.8-.5,3,2.3,3.5.3,2.4,1.2.7-1.6,1.2,1.6,2.2-.4,1.1,2.1,6.2,2.7,1.2-.4,1.4,2.1.2,3.4,3.5,1.6-.2-.3-.8,3.2.5.3-2.9,3.2,2.3.7,2.3,2-.6v-3.6c0,0,1.3,2,1.3,2l3.2-.4,2.7-2.8,1.3.4,1.4-2.1.5.9,3.1-1.4.5,2,6.9-.4.4-10.3,1.8-.8.6,3.2.9.4,2-2.6,1.6,1.6,2.7-1.4,3.1,1.1,3.2-1.3,5.6.7,2.9-.7,3.6,3.3,7.5.3,2.4-.9,1.8-3.1,13-4.1,1.5.6-1.2,1.8v3c0,0,6.9,1,6.9,1l2.6-1.1-.3-1.1,2.2-1.8h2.6s2.6-2.2,2.6-2.2l-3.7-.9-.2-5,3.1-2.7Z"/>
    <path id="PK-TA" d="M319.4,105.1l3.6,5.7,3.2.6,1.1,1.2-.9,3.3-2,1.2-1.5,3.2,1.4,2.9-7.4,8.8-2.2,4.4v2.9c0,0,1.4,5.1,1.4,5.1l2.6,1.7.3,3.1,4.1-.3,2.7-2.9,3.3,2.6-1.4,2.7.7,1.5-3.8,3.1-2.6.4-1-1.4,1.2-1.8h-8.6c0-.1-6-4.1-6-4.1l-1.7,5.6-4.4.7-5.1-.9-.8,2.9-4.3,2.3-2.8.3,1.7,3,4.3,2.7.4,1.3,4.8,1-4.6,4.8h-5.1s-2,2.6-2,2.6l-2.7,5.5.2,3.1,5.3,8.4-2.8.8-11.1,10.1,5.1,18.3,1.2,1.9,2.9,1.4-2.3,2,2.3,9.2h0l-4.1,1.8-.5,3.3h0l-.7-2.2.6-10.9-.6-.8-2.1,1.8-2.1.2-1.5,3.2-.9-4.9-2.5-1.8.8-12.6-2.1,1.2-1-.6,1.1-2.8-2.1-1.4.9-2.9-4.4.7-3.7,4.1-6.4-.2h0l-1.5-7.3.2-7.1-1.2-3.6,1.3-2.5,2.9-1.2,2.4-3.4-.4-2.3-1.4-1.3,3.9-3.5-1.3-2.7.3-2.6,2.2-2.8,3.7.3,2.4-1.3,2.6,1.1,4.3-1.7,1.3-2.5,2.6.5.4-1.4,5.1-3.8-.8-3-3.5-3.3.7-4-1.6-.6-.3-2.4-4.4-.5-.9-.9v-2c0,0-3-3.9-3-3.9l1.1-3,2.9-.3,14.4,3.6,2.7-1.3,8.6-.4,5.3-2.6.2-1.9,2.1-1.9-.6-3.8,1.4-3.2-4.8-3.6-.3-3.3,1,.6,2.1-1.6.9-1.6-.5-2,3.8-2.2,2-4.8,6.4-3.2Z"/>
  </g>
</svg>