<?xml version="1.0" encoding="UTF-8"?>
<svg id="Layer_1" xmlns="http://www.w3.org/2000/svg" xmlns:amcharts="http://amcharts.com/ammap" version="1.1" viewBox="0 0 512 512">
  <!-- Generator: Adobe Illustrator 29.1.0, SVG Export Plug-In . SVG Version: 2.1.0 Build 142)  -->
  <g id="_x3C_defs">
    <amcharts:ammap bottomLatitude="29.496687" leftLongitude="34.228663" projection="mercator" rightLongitude="35.935383" topLatitude="33.434207"/>
  </g>
  <g>
    <path id="PS-JRH" d="M304.3,181.2l-.3.6.2,5.5,1.2,1.4.2.9-1,1.5,1.8,4-.7,4.5-2,1.9,1.1,5.3,1.9,1.2-1.1,2.1,1.1,1.8-.8,2.4,1.3,7.4-2.6,4.7h0l-4.2-3.8-.6-.9-.2-1.7-1.5-.9h-3.1s-3.1,1-3.1,1l-2.5-1.3-.4-.8.7-1.4-.6-1-1.1-.6-.3-3.3h0l3.4.5.5-.5.3-1.1-.4-2.5.3-2.2,1-1.7.2-.8-1.1-2.4v-1.9c.1,0-.5-1.8-.5-1.8l.9-1,.9-2.6-.3-.5-1.4-.5-1.9-1.9.2-.4,2.1-.3.2-.6-.8-1h0l-.6-1.9v-2.3l-.8-1.9.2-1.2.8-1.2,3.5-.7.6-.3.2-.5-1-2.5.4-2.2-.3-2.4.5-3.1-.8-.8-1.7.3-.3-.6,2.1-2.4,1.5-3.7h0l2.8,1.7,1.3,2.1.8,2.5.8.9h.7c0-.1,2.3-1.9,2.3-1.9l4.7-.2h0l-.9,1.9-1.4,8-1.5,2.1-.4,2.3-.6,1.2Z"/>
    <path id="PS-JEN" d="M295.2,138.8l-.5.3-.8,1.4-1.3.5-1.4,1.1-.9,1.3-1.9-.5-1.6,1.3-2,.5-.7,3,.2,2.5-1.4,2.9h0l-1.7-1-2.3-2.1-1.2,1.3-1.1.3-3.9-.4-1.6-.7-3.4.5-.8-.4-.3-.6h0l.2-1.7-.2-.9-3.2-1.5-1-1.2-1.6-.6.5-3.1v-2.4s.6-1.5.6-1.5l-.2-.6-.6-.4h-1.5s-2.5,1.3-2.5,1.3l-.8-.6v-.9c0,0,2-1,2-1l.4-1.3-.2-1-.5-.5-1.6-.3h0l.6-1.2h0l.8-.6,4.4-1.6,2.7-1.4,2.1-1.6,1.3-1.3.4-.8h0l2-2.2h0l1.6-.4,1.5.8,1.9,2,1.7,1.2,2.6,1.1,6.6-1,3,.3,1.8,1.3,1.8,3,.3,2.7v2.5c-.1,0,.5,1.8.5,1.8l.8,1v.6s.7.6.7.6Z"/>
    <path id="PS-TKM" d="M265.7,159l-4.6,1.1-2.1,2.3-.3,1-1.4.5-.7.9h-1.4c0,.1-2.3-1.4-2.3-1.4l-5-6.6h0l.2-.2h0l.4-.9-.5-3.6v-3.4c.1,0,2-3.1,2-3.1l2.8-1.3.8-.7h0l.4-3.2h0l.9-2.6,1-5h0l.4-.7h0l1.6.3.5.5.2,1-.4,1.3-2,1v.9c0,0,.8.6.8.6l2.5-1.3h1.5s.6.4.6.4l.2.6-.6,1.5v2.4s-.5,3.1-.5,3.1l1.6.6,1,1.2,3.2,1.5.2.9-.2,1.7h0l-3.1-1.3.2,2.2,1.6,1.2.5.9v1.7s-1.1.9-1.1.9l-.3,1,1.3,2.5Z"/>
    <path id="PS-TBS" d="M307.7,141.3l-.2,2.3,1.1,1.7-.7,3.8.8,2.3-.6,2.4.7,1.8-.4,2.8.8,4.9v1.5c.1,0-.2,1.1-.2,1.1h0l-4.7.2-2.3,1.8h-.7c0,.1-.8-.7-.8-.7l-.8-2.5-1.3-2.1-2.8-1.7h0l-1.2-3.8-.7-1.1-1.8-.2-1.4.6-3.5.7-1.3-1.7-1.7-.9-1.4-1.5h0l1.4-2.9-.2-2.5.7-3,2-.5,1.6-1.3,1.9.5.9-1.3,1.4-1.1,1.3-.5.8-1.4.5-.3h0l1.4.2,1.6-.5h2.5c0,.1,4.5,2,4.5,2l2.5.7Z"/>
    <path id="PS-NBS" d="M268.4,183.7l2.8-3.2,2.5-1.3,2.3-.6.5-1v-1s-.4-1-.4-1l-.7-.6-2.7-.9h-1.1s-1.5.7-1.5.7l-1.7-.4-.8-.9-1-2.6-.7-.7h0l1.6-3.7.5-3.3v-1.2c0,0-.8-1.8-.8-1.8l-1.2-1.1h0l-1.3-2.5.3-1,1.1-.9v-1.7s-.5-.9-.5-.9l-1.6-1.2-.2-2.2,3.1,1.3h0l.3.6.8.4,3.4-.5,1.6.7,3.9.4,1.1-.3,1.2-1.3,2.3,2.1,1.7,1h0l1.4,1.5,1.7.9,1.3,1.7,3.5-.7,1.4-.6,1.8.2.7,1.1,1.2,3.8h0l-1.5,3.7-2.1,2.4.3.6,1.7-.3.8.8-.5,3.1.3,2.4-.4,2.2,1,2.5-.2.5-.6.3-3.5.7-.8,1.2-.2,1.2.8,1.9v2.3l.6,1.9h0l-2.4-.2-1.2,1.1h-.6c0,0-1.3-1.3-1.3-1.3l-.7-2.3-4-1.6-2.1.2-1.5-.9h-3.5c0,.1-1.5-.9-1.5-.9l-2.3,1-1.9.2Z"/>
    <path id="PS-QQA" d="M265.6,170.3h-3.4c0,0-5.8-1.8-5.8-1.8l-.4.4-.5,1.9-2,3.6-2.2,1.6-2.1.5-2.1.9-1.8,1.6h0v-.5h0l1.2-3v-1.6c-.1,0-1-3.6-1-3.6l-2.1-3.4v-1.5c0,0,.1-1.5.1-1.5l2-4.4,1.5-2.2h0l.7-.5h0l5,6.6,2.3,1.5h1.4c0-.1.7-1,.7-1l1.4-.5.3-1,2.1-2.3,4.6-1.1h0l1.2,1.1.7,1.8v1.2c0,0-.4,3.3-.4,3.3l-1.6,3.7Z"/>
    <path id="PS-SLT" d="M268.4,183.7l-2.5-1.5-2.3.2-2.1-1-1.2.3-1.1,1.2-1.4.2-2.4.9-4.9-.8-.8-.4-.9-1h-1.8c0,0-.2-.4-.2-.4h0l-1.1-1.2-.3-.8h0v-.5h0l1.8-1.6,2.1-.9,2.1-.5,2.2-1.6,2-3.6.5-1.9.4-.4,5.8,1.9h3.4c0,0,.7.6.7.6l1,2.6.8.9,1.7.4,1.5-.7h1.1s2.7.9,2.7.9l.7.6.5,1v1s-.5,1-.5,1l-2.3.6-2.5,1.3-2.8,3.2Z"/>
    <path id="PS-RBH" d="M287.6,211.6h-2.6s-1.8-3.1-1.8-3.1l-2.2-.6-1.5-1.7-2.7-.6-1.3,1-1.5-1.1h-2c0-.1-.9.1-.9.1l-1.4-.5-1.5.7-.4.7v1.3s-.6.3-.6.3h-2c0,0-1-.6-1-.6h-4s-2.3-.7-2.3-.7l-.6.7-.4,1.9-1.6,1.5h0l-1.5.9h0l-2,2.2-2.8,1-3-.4-2.1-.9-.9-3.4h0l1.3-2h0l5.4-1,1-3-.5-2-2.5-2-1.7-2.2-.3-2.9,1.5-3.2-.5-1.3.5-.4-.2-1.5.9-1.9.3-1.9-.4-1.5h0l-1.1-2.1h1.8c0,0,.9,1.1.9,1.1l.8.4,4.9.8,2.4-.9,1.4-.2,1.1-1.2,1.2-.3,2.1,1,2.3-.2,2.5,1.5h0l1.9-.2,2.3-1,1.5,1h3.5c0-.1,1.5.8,1.5.8l2.1-.2,4,1.6.7,2.3,1.3,1.4h.6c0,0,1.2-1.2,1.2-1.2l2.4.2h0l.8,1-.2.6-2.1.3-.2.4,1.9,1.9,1.4.5.3.5-.9,2.6-.9,1,.6,1.8v1.9c-.1,0,.9,2.4.9,2.4l-.2.8-1,1.7-.3,2.2.4,2.5-.3,1.1-.5.5-3.4-.5Z"/>
    <path id="PS-JEM" d="M304.6,226.3l-1.1,3.4h0l-4.3-4.4-2.3-1-2.4.3-4.6-.8-2.8,1-2.6-.4-2.8,1.3-1.8.3h-1.5c0-.1-2.2.7-2.2.7h-1.1c0,0-1-.2-1-.2l-3.3-2.3h0l1.1-1.8.3-4.6-2-2.1h-5s-6.8-2.9-6.8-2.9l-2.4-2.2h0l-.6.3h0l1.6-1.5.4-1.9.6-.7,2.3.8h4s1,.5,1,.5h2c0,0,.6-.2.6-.2v-1.3s.4-.7.4-.7l1.5-.7,1.4.5.9-.3h2c0,.1,1.5,1.2,1.5,1.2l1.3-1,2.7.6,1.5,1.7,2.2.6,1.8,3.2h2.6s.3,3.2.3,3.2l1.1.6.6,1-.7,1.4.4.8,2.5,1.3,3.1-1h3.1s1.5.9,1.5.9l.2,1.7.6.9,4.2,3.8Z"/>
    <path id="PS-BTH" d="M286.9,258.7l-1.5.2-3-1.5-1.2-2.4.5-1.8-.3-.9-1.7-1.4-2.9-1.2-2-2.4-1.2-.9-.3-2-2.1-5.6-1.3-1.8h-.4c0,0-.2.3-.2.3l-.2,2.4-.5.6-1,.2-2.9-.5-.8-.5-.4-.9,1.4-1.3v-.7c.1,0-.3-.6-.3-.6l-2-1.1-1.6.5-1-.2-.8-2.5-3.2-1.7h0l4.7-4.6h0l4.6-1.9h5.5c0-.1.2-.4.2-.4h0l3.3,2.3,1,.3h1.1c0,0,2.2-.9,2.2-.9h1.5c0,.1,1.8-.2,1.8-.2l2.8-1.3,2.6.4,2.8-1,4.6.8,2.4-.3,2.3,1,4.3,4.4h0l-4.6,15.2-.3,10.9h-7.2c0-.1-1.7.5-1.7.5h0l-2.8,2.5Z"/>
    <path id="PS-HBN" d="M243.8,241.3l1-1.6,5.1-5.1,5.1-2.4h0l1-1h0l3.2,1.7.8,2.5,1,.2,1.6-.5,2,1.1.4.6v.7c-.1,0-1.6,1.3-1.6,1.3l.4.9.8.5,2.9.5,1-.2.5-.6.2-2.4.2-.3h.4c0,0,1.3,1.8,1.3,1.8l2.1,5.6.3,2,1.2.9,2,2.4,2.9,1.2,1.7,1.4.3.9-.5,1.8,1.2,2.4,3,1.5,1.5-.2h0l-1,.9h0l-3.6,2.6-3.5,1.6-5.9,6.3-1.6,1-7,1.1-1.5-.3-2.3,1.2-10.7-.8-4.5,1.1-4.9.6-2.7-.7-1.7-1.4-1.2-2-.3-2.5,2.1-4.2,2.4-3.1,2.2-4.1.4-2.2-.5-5.1,1-4.8,1.7-2.5Z"/>
    <path id="PS-NGZ" d="M187.9,248.2l3.9-5.8,4.7,4.4h0l1.5,2.2v2.4s-.9,1.7-.9,1.7h0l-3.1.7h0l-2.1-1.3-1.4-.4-.5-1.5-1.9-2.3Z"/>
    <path id="PS-GZA" d="M183.9,263.5v-1.6c0,0-.9-2.2-.9-2.2l-2-.6h-1.9c0,0,8.8-10.9,8.8-10.9h0l1.9,2.3.5,1.5,1.4.4,2.1,1.3h0l-10,9.7Z"/>
    <path id="PS-DEB" d="M179,270.4l-1-.2-1.4-1.2-3.5-1.3-1.1-.8h0l7.2-7.8h1.9c0,0,2,.7,2,.7l.8,2.2v1.6h0l-.9.8h0l-3.6,4.6h0l-.4,1.4Z"/>
    <path id="PS-KYS" d="M173.6,284.8l-1.6-4.8-4.2-2.3-3.9-2.7h0l8.1-8.2h0l1.1.8,3.5,1.3,1.4,1.2,1,.2h0l-.5,1.7h0l.3,7-1.2,2.2h0l-4,3.5Z"/>
    <path id="PS-RFH" d="M167.9,289.2l-4.2-13.9.2-.2h0l3.9,2.7,4.2,2.3,1.6,4.8h0l-.8.7h0l-4.9,3.7Z"/>
    <path id="IL" d="M247.3,85.6h-.2c0,0,.3,0,.3,0h-.1ZM248.9,85.4l-1.5.2.7.2.8-.4ZM348.1,48.5l.3-3.4-2.3-3.3-3.2-.9-.2-1.4,1.3-1.7.4-1v-2.5c0,0-1-3.2-1-3.2l-3.1-3.3,1.2-2.1.2-.9-.5-5.2.3-2.3.9-2.4,2.1-2.5,1.1-1.9.4-1.6-.2-.9-.6-.4-7.6,4.5-.9,1.5-.8,4.3-2.6,2.5-2.2.9-1.6.3-2.7-.2-.7.3-3.6,4.5-6.4,3.5-.9,1.7-.4.4h-.4c0-.1-2.6-3.8-2.6-3.8l-.8-.6-.3.3-1,2.3-1.6,1.9-.9,2.1.4,4.3-1.2,2.6-.7,3.1-.2,2.8-.5,1.3-2.1.9-.6,2.5-1.8.7-2.4-.4-3.3,3.1-.8.4-3,.2-2.7,1.2-.6-.2-1.6-1-1-1.2-1.8-3.5-2.1-.5-4.2.6h-4c0,.1-1.2.5-1.2.5l-1,.8-3.8-.7-8.2.4v1.7c0,0-.4,3.3-.4,3.3l-1.4,4.7v1.9c0,0-.7,1.4-.7,1.4l-1.2,7.4-.5,1.3v.3h.5s.1-.4.1-.4h.4s.5.5.5.5l.3.6v1.6s-1.2,4.8-1.2,4.8l-2.6,4.6-2.2,1.3h.4c0,0,.4.7.4.7l-.6.2v-.6c0,0-.6-.3-.6-.3v.3s-.9.1-.9.1l-.7-1.4h-.2s0,.5,0,.5l-.3-.3v.4c-.1,0-1.5-1.3-1.5-1.3l1,.3-1.2-.6-.7-.7-1.2.7h-.7s-1.1.8-1.1.8l.2,2.4h-.3s.2.7.2.7l-.8,8.1-.6,3-.5.9-.7.2-.5,1.4.2.6-.4,4.5-.3.4v1.5c0,0-.7,2.6-.7,2.6l-.2,3.1-.5,1.7.3.7-1.1,3,.4.5-.8,1,.3,1-.9,2.4.3.2-.6,1.1v.8c0,0-.3,1-.3,1l.3.6-.3,1.1h-.4s0,.7,0,.7l.3.2h-.4l-.2-.4-.2.4h-1.2s1.3.2,1.3.2l.2.6-1.1,5.3-.6.8h.3c0,0-.4.9-.4.9l-.7,1.6h.2c0,.1-.2,1.8-.2,1.8l-.4.5v1.3s-1,4.6-1,4.6l-.4.3.2.4-.6,3.6h-.2s-.6,2-.6,2l-.8,3.9-2.3,7.6-.9,3.4h-.4c0,.1.2,1.4.2,1.4l-.3.2-.7,3.2-.9,2.7-.3-.2v.5c.1,0-.3,1.1-.3,1.1h-.4c0,.1.2.9.2.9l-.8,2.7-.7,1.4-.8.5v.4c.1,0-.2.3-.2.3l-1.4,5.2-2.1,6.5-.8,1.9-1.8,2.8-1.9,5.5-1.6,3.7h-.5c0,.1,0,1.4,0,1.4l-.3.4h-1.1c0-.1,0,1.1,0,1.1l.2.4-.6-.7.2-1.3-.3,1.2.5.9-5.3,10.9-3.5,6h-.3s-.7,1.5-.7,1.5l-1,1.1-1.9,3.5h-.5c0-.1.3-.6.3-.6l-.4.4.3.6-.7.6-2.6,4.3,4.7,4.4,1.5,2.2v2.4s-.9,1.7-.9,1.7l-3.2.7-10.9,10.5-3.6,4.6-.9,3.2.3,7-1.2,2.2-4.8,4.2-4.9,3.7,8.9,29.6,6.2,18.1,9.5,20,3.1,13-.3,6.8,4.7,5.5-2.2,6.3.3,3.8,7.6,4.9,2.2,8.3,12.8,36-.2,1.9,11.1,31.1v6c0,0,1.9,3.4,1.9,3.4l.5,2.3-.5,3.4-1,3.4.4,3.6.5,2.1,1.4,2.7,2.7,3.2.9-.8.9-1.2v-.5l1.5-1.5.5-1.2.6-.3.5-1.1,1.2.3,2.2-5.3,1.6-1.9,1.9-1.4,1.4-1.7-.3-9.2,1.8-7.7.3-2.5-.3-1.9.5-2.3,3.2-6.4-.3-9.7,2.3-9,8.4-12-3.4-15,2.1-4.6-.4-2.5.7-2.1,2.4-2.7.3-1.5-.6-1.9-3.7-7,.4-1.7,1.5-2.1.7-2.2,2.7-13.4,3.2-6.2,1.6-1.5.6-2.8,2.7-4.8,1.5-3.6v-5.1s1-2.6,1-2.6l1.6-2,2.1-.7.6-2.5-.5-2.1v-2.3s2.9-6.4,2.9-6.4l4.1-2.7,1.9-1.7v-2.6s-.9-2.4-.9-2.4l-.3-2,.4-2.6,4.1-6.4,1.4-5.5v-2c-.1,0-.6-2.6-.6-2.6l-.9-1.8-4.8-6.5-1.2-2.7.6-2.5,6.5-11.9,1.8-5.1.4-2.5v-6.5s0-2.2,0-2.2h-7.2c0-.1-1.7.5-1.7.5l-3.8,3.4-3.6,2.6-3.5,1.6-5.9,6.3-1.6,1-7,1.1-1.5-.3-2.3,1.2-10.7-.8-4.5,1.1-4.9.6-2.7-.7-1.7-1.4-1.2-2-.3-2.5,2.1-4.2,2.4-3.1,2.2-4.1.4-2.2-.5-5.1,1-4.7,1.7-2.5,1-1.6,5.1-5.1,5.1-2.4,5.7-5.6,4.6-1.9h5.5c0-.1.2-.4.2-.4l1.1-1.8.3-4.6-2-2.1h-5s-6.8-2.9-6.8-2.9l-2.4-2.2-2.1,1.2-2,2.2-2.8,1-3-.4-2.1-.9-.9-3.4,1.2-1.8h.1c0-.1,5.4-1.1,5.4-1.1l1-3-.5-2-2.5-2-1.7-2.2-.3-2.9,1.5-3.2-.5-1.3.5-.4-.2-1.5.9-1.9.3-1.9-.4-1.5-1.2-2.4-1.1-1.2-.3-.8v-1c.1,0,1.3-3,1.3-3v-1.6c-.1,0-1-3.6-1-3.6l-2.1-3.4v-1.5c0,0,.1-1.5.1-1.5l2-4.4,1.5-2.2.9-.7.4-.9-.5-3.6v-3.4c.1,0,2-3.1,2-3.1l2.8-1.3.8-.7.2-1.6.2-1.6.9-2.6,1-5,1-1.9.8-.6,4.4-1.6,2.7-1.4,2.1-1.6,1.3-1.3.4-.8,1.4-1.6.6-.7,1.6-.4,1.5.8,1.9,2,1.7,1.2,2.6,1.1,6.6-1,3,.3,1.8,1.3,1.8,3,.3,2.7v2.5c-.1,0,.5,1.8.5,1.8l.8,1v.6s.7.6.7.6l1.4.2,1.6-.5h2.5c0,.1,4.5,2,4.5,2l2.5.7h.9c0,0-1-1.7-1-1.7l.9-.4.2-.5-.3-2.9,1.3-.4-.3-1.7.9-.4.3-.6-.2-.4-.9-.4-.2-.6,1.6-3.7-1-.7-.7-1.6h-.7s-.5-.4-.5-.4l.6-.8,1.1-.2.2-.4-.7-1.2v-.8c0,0,1.3.3,1.3.3l.2-1.2h1.1s.1-.3.1-.3l-1.1-2.3v-1.2c0,0,.6-1.2.6-1.2l-.2-.8-.8-.4-.3-.6v-3.6s1.5-1.2,1.5-1.2l1-.3.3-.3v-.8c0,0,1.2-.5,1.2-.5l-.2-1.8.7-.8,3.1-1.3,1.3-.8,2.7-.2,1.8-.8,3.3-2.8,2.5-.3.9-2.7.5-.5h1.1c0-.1,2.4-1.1,2.4-1.1l.7.4v.4c.1,0,3.5-3.9,3.5-3.9l2.7-4.8,1.8-1.9,3.5-6.9.9-2.1v-.7s-2.3-3.5-2.3-3.5l-.9-8.5-.6-1.8.3-4-.5-2.2.7-1,2.2.6,1.8-.5v-.9s-1.2-1.4-1.2-1.4l-.2-.7.2-.5,1.7-1.5Z"/>
  </g>
</svg>