<svg xmlns="http://www.w3.org/2000/svg" xmlns:amcharts="http://amcharts.com/ammap" id="Layer_1" viewBox="0 0 512 512"><g id="_x3C_defs"><amcharts:ammap bottomLatitude="29.497" leftLongitude="34.229" projection="mercator" rightLongitude="35.935" topLatitude="33.434"/></g><g><path id="PS-JRH" d="m304.3 181.2-.3.6.2 5.5 1.2 1.4.2.9-1 1.5 1.8 4-.7 4.5-2 1.9 1.1 5.3 1.9 1.2-1.1 2.1 1.1 1.8-.8 2.4 1.3 7.4-2.6 4.7-4.2-3.8-.6-.9-.2-1.7-1.5-.9H295l-3.1 1-2.5-1.3-.4-.8.7-1.4-.6-1-1.1-.6-.3-3.3 3.4.5.5-.5.3-1.1-.4-2.5.3-2.2 1-1.7.2-.8-1.1-2.4v-1.9c.1 0-.5-1.8-.5-1.8l.9-1 .9-2.6-.3-.5-1.4-.5-1.9-1.9.2-.4 2.1-.3.2-.6-.8-1-.6-1.9v-2.3l-.8-1.9.2-1.2.8-1.2 3.5-.7.6-.3.2-.5-1-2.5.4-2.2-.3-2.4.5-3.1-.8-.8-1.7.3-.3-.6 2.1-2.4 1.5-3.7 2.8 1.7 1.3 2.1.8 2.5.8.9h.7c0-.1 2.3-1.9 2.3-1.9l4.7-.2-.9 1.9-1.4 8-1.5 2.1-.4 2.3-.6 1.2Z"/><path id="PS-JEN" d="m295.2 138.8-.5.3-.8 1.4-1.3.5-1.4 1.1-.9 1.3-1.9-.5-1.6 1.3-2 .5-.7 3 .2 2.5-1.4 2.9-1.7-1-2.3-2.1-1.2 1.3-1.1.3-3.9-.4-1.6-.7-3.4.5-.8-.4-.3-.6.2-1.7-.2-.9-3.2-1.5-1-1.2-1.6-.6.5-3.1v-2.4l.6-1.5-.2-.6-.6-.4h-1.5l-2.5 1.3-.8-.6v-.9l2-1 .4-1.3-.2-1-.5-.5-1.6-.3.6-1.2.8-.6 4.4-1.6 2.7-1.4 2.1-1.6 1.3-1.3.4-.8 2-2.2 1.6-.4 1.5.8 1.9 2 1.7 1.2 2.6 1.1 6.6-1 3 .3 1.8 1.3 1.8 3 .3 2.7v2.5c-.1 0 .5 1.8.5 1.8l.8 1v.6l.7.6Z"/><path id="PS-TKM" d="m265.7 159-4.6 1.1-2.1 2.3-.3 1-1.4.5-.7.9h-1.4c0 .1-2.3-1.4-2.3-1.4l-5-6.6.2-.2.4-.9-.5-3.6v-3.4c.1 0 2-3.1 2-3.1l2.8-1.3.8-.7.4-3.2.9-2.6 1-5 .4-.7 1.6.3.5.5.2 1-.4 1.3-2 1v.9l.8.6 2.5-1.3h1.5l.6.4.2.6-.6 1.5v2.4l-.5 3.1 1.6.6 1 1.2 3.2 1.5.2.9-.2 1.7-3.1-1.3.2 2.2 1.6 1.2.5.9v1.7l-1.1.9-.3 1 1.3 2.5Z"/><path id="PS-TBS" d="m307.7 141.3-.2 2.3 1.1 1.7-.7 3.8.8 2.3-.6 2.4.7 1.8-.4 2.8.8 4.9v1.5c.1 0-.2 1.1-.2 1.1l-4.7.2-2.3 1.8h-.7c0 .1-.8-.7-.8-.7l-.8-2.5-1.3-2.1-2.8-1.7-1.2-3.8-.7-1.1-1.8-.2-1.4.6-3.5.7-1.3-1.7-1.7-.9-1.4-1.5 1.4-2.9-.2-2.5.7-3 2-.5 1.6-1.3 1.9.5.9-1.3 1.4-1.1 1.3-.5.8-1.4.5-.3 1.4.2 1.6-.5h2.5c0 .1 4.5 2 4.5 2l2.5.7Z"/><path id="PS-NBS" d="m268.4 183.7 2.8-3.2 2.5-1.3 2.3-.6.5-1v-1l-.4-1-.7-.6-2.7-.9h-1.1l-1.5.7-1.7-.4-.8-.9-1-2.6-.7-.7 1.6-3.7.5-3.3V162l-.8-1.8-1.2-1.1-1.3-2.5.3-1 1.1-.9V153l-.5-.9-1.6-1.2-.2-2.2 3.1 1.3.3.6.8.4 3.4-.5 1.6.7 3.9.4 1.1-.3 1.2-1.3 2.3 2.1 1.7 1 1.4 1.5 1.7.9 1.3 1.7 3.5-.7 1.4-.6 1.8.2.7 1.1 1.2 3.8-1.5 3.7-2.1 2.4.3.6 1.7-.3.8.8-.5 3.1.3 2.4-.4 2.2 1 2.5-.2.5-.6.3-3.5.7-.8 1.2-.2 1.2.8 1.9v2.3l.6 1.9-2.4-.2-1.2 1.1h-.6l-1.3-1.3-.7-2.3-4-1.6-2.1.2-1.5-.9h-3.5c0 .1-1.5-.9-1.5-.9l-2.3 1-1.9.2Z"/><path id="PS-QQA" d="M265.6 170.3h-3.4l-5.8-1.8-.4.4-.5 1.9-2 3.6-2.2 1.6-2.1.5-2.1.9-1.8 1.6v-.5l1.2-3v-1.6c-.1 0-1-3.6-1-3.6l-2.1-3.4v-1.5l.1-1.5 2-4.4 1.5-2.2.7-.5 5 6.6 2.3 1.5h1.4c0-.1.7-1 .7-1l1.4-.5.3-1 2.1-2.3 4.6-1.1 1.2 1.1.7 1.8v1.2l-.4 3.3-1.6 3.7Z"/><path id="PS-SLT" d="m268.4 183.7-2.5-1.5-2.3.2-2.1-1-1.2.3-1.1 1.2-1.4.2-2.4.9-4.9-.8-.8-.4-.9-1H247l-.2-.4-1.1-1.2-.3-.8v-.5l1.8-1.6 2.1-.9 2.1-.5 2.2-1.6 2-3.6.5-1.9.4-.4 5.8 1.9h3.4l.7.6 1 2.6.8.9 1.7.4 1.5-.7h1.1l2.7.9.7.6.5 1v1l-.5 1-2.3.6-2.5 1.3-2.8 3.2Z"/><path id="PS-RBH" d="M287.6 211.6H285l-1.8-3.1-2.2-.6-1.5-1.7-2.7-.6-1.3 1-1.5-1.1h-2c0-.1-.9.1-.9.1l-1.4-.5-1.5.7-.4.7v1.3l-.6.3h-2l-1-.6h-4l-2.3-.7-.6.7-.4 1.9-1.6 1.5-1.5.9-2 2.2-2.8 1-3-.4-2.1-.9-.9-3.4 1.3-2 5.4-1 1-3-.5-2-2.5-2-1.7-2.2-.3-2.9 1.5-3.2-.5-1.3.5-.4-.2-1.5.9-1.9.3-1.9-.4-1.5-1.1-2.1h1.8l.9 1.1.8.4 4.9.8 2.4-.9 1.4-.2 1.1-1.2 1.2-.3 2.1 1 2.3-.2 2.5 1.5 1.9-.2 2.3-1 1.5 1h3.5c0-.1 1.5.8 1.5.8l2.1-.2 4 1.6.7 2.3 1.3 1.4h.6l1.2-1.2 2.4.2.8 1-.2.6-2.1.3-.2.4 1.9 1.9 1.4.5.3.5-.9 2.6-.9 1 .6 1.8v1.9c-.1 0 .9 2.4.9 2.4l-.2.8-1 1.7-.3 2.2.4 2.5-.3 1.1-.5.5-3.4-.5Z"/><path id="PS-JEM" d="m304.6 226.3-1.1 3.4-4.3-4.4-2.3-1-2.4.3-4.6-.8-2.8 1-2.6-.4-2.8 1.3-1.8.3h-1.5c0-.1-2.2.7-2.2.7h-1.1l-1-.2-3.3-2.3 1.1-1.8.3-4.6-2-2.1h-5l-6.8-2.9-2.4-2.2-.6.3 1.6-1.5.4-1.9.6-.7 2.3.8h4l1 .5h2l.6-.2v-1.3l.4-.7 1.5-.7 1.4.5.9-.3h2c0 .1 1.5 1.2 1.5 1.2l1.3-1 2.7.6 1.5 1.7 2.2.6 1.8 3.2h2.6l.3 3.2 1.1.6.6 1-.7 1.4.4.8 2.5 1.3 3.1-1h3.1l1.5.9.2 1.7.6.9z"/><path id="PS-BTH" d="m286.9 258.7-1.5.2-3-1.5-1.2-2.4.5-1.8-.3-.9-1.7-1.4-2.9-1.2-2-2.4-1.2-.9-.3-2-2.1-5.6-1.3-1.8h-.4l-.2.3-.2 2.4-.5.6-1 .2-2.9-.5-.8-.5-.4-.9 1.4-1.3v-.7c.1 0-.3-.6-.3-.6l-2-1.1-1.6.5-1-.2-.8-2.5-3.2-1.7 4.7-4.6 4.6-1.9h5.5c0-.1.2-.4.2-.4l3.3 2.3 1 .3h1.1l2.2-.9h1.5c0 .1 1.8-.2 1.8-.2l2.8-1.3 2.6.4 2.8-1 4.6.8 2.4-.3 2.3 1 4.3 4.4-4.6 15.2-.3 10.9h-7.2c0-.1-1.7.5-1.7.5l-2.8 2.5Z"/><path id="PS-HBN" d="m243.8 241.3 1-1.6 5.1-5.1 5.1-2.4 1-1 3.2 1.7.8 2.5 1 .2 1.6-.5 2 1.1.4.6v.7c-.1 0-1.6 1.3-1.6 1.3l.4.9.8.5 2.9.5 1-.2.5-.6.2-2.4.2-.3h.4l1.3 1.8 2.1 5.6.3 2 1.2.9 2 2.4 2.9 1.2 1.7 1.4.3.9-.5 1.8 1.2 2.4 3 1.5 1.5-.2-1 .9-3.6 2.6-3.5 1.6-5.9 6.3-1.6 1-7 1.1-1.5-.3-2.3 1.2-10.7-.8-4.5 1.1-4.9.6-2.7-.7-1.7-1.4-1.2-2-.3-2.5 2.1-4.2 2.4-3.1 2.2-4.1.4-2.2-.5-5.1 1-4.8 1.7-2.5Z"/><path id="PS-NGZ" d="m187.9 248.2 3.9-5.8 4.7 4.4 1.5 2.2v2.4l-.9 1.7-3.1.7-2.1-1.3-1.4-.4-.5-1.5-1.9-2.3Z"/><path id="PS-GZA" d="M183.9 263.5v-1.6l-.9-2.2-2-.6h-1.9l8.8-10.9 1.9 2.3.5 1.5 1.4.4 2.1 1.3-10 9.7Z"/><path id="PS-DEB" d="m179 270.4-1-.2-1.4-1.2-3.5-1.3-1.1-.8 7.2-7.8h1.9l2 .7.8 2.2v1.6l-.9.8-3.6 4.6z"/><path id="PS-KYS" d="M173.6 284.8 172 280l-4.2-2.3-3.9-2.7 8.1-8.2 1.1.8 3.5 1.3 1.4 1.2 1 .2-.5 1.7.3 7-1.2 2.2-4 3.5Z"/><path id="PS-RFH" d="m167.9 289.2-4.2-13.9.2-.2 3.9 2.7 4.2 2.3 1.6 4.8-.8.7-4.9 3.7Z"/><path id="IL" d="M247.3 85.6h-.2.3zm1.6-.2-1.5.2.7.2zm99.2-36.9.3-3.4-2.3-3.3-3.2-.9-.2-1.4 1.3-1.7.4-1v-2.5l-1-3.2-3.1-3.3 1.2-2.1.2-.9-.5-5.2.3-2.3.9-2.4 2.1-2.5 1.1-1.9.4-1.6-.2-.9-.6-.4-7.6 4.5-.9 1.5-.8 4.3-2.6 2.5-2.2.9-1.6.3-2.7-.2-.7.3-3.6 4.5-6.4 3.5-.9 1.7-.4.4h-.4c0-.1-2.6-3.8-2.6-3.8l-.8-.6-.3.3-1 2.3-1.6 1.9-.9 2.1.4 4.3-1.2 2.6-.7 3.1-.2 2.8-.5 1.3-2.1.9-.6 2.5-1.8.7-2.4-.4-3.3 3.1-.8.4-3 .2-2.7 1.2-.6-.2-1.6-1-1-1.2-1.8-3.5-2.1-.5-4.2.6h-4c0 .1-1.2.5-1.2.5l-1 .8-3.8-.7-8.2.4v1.7l-.4 3.3-1.4 4.7v1.9l-.7 1.4-1.2 7.4-.5 1.3v.3h.5l.1-.4h.4l.5.5.3.6v1.6l-1.2 4.8-2.6 4.6-2.2 1.3h.4l.4.7-.6.2v-.6l-.6-.3v.3l-.9.1-.7-1.4h-.2v.5l-.3-.3v.4c-.1 0-1.5-1.3-1.5-1.3l1 .3-1.2-.6-.7-.7-1.2.7h-.7l-1.1.8.2 2.4h-.3l.2.7-.8 8.1-.6 3-.5.9-.7.2-.5 1.4.2.6-.4 4.5-.3.4v1.5l-.7 2.6-.2 3.1-.5 1.7.3.7-1.1 3 .4.5-.8 1 .3 1-.9 2.4.3.2-.6 1.1v.8l-.3 1 .3.6-.3 1.1h-.4v.7l.3.2h-.4l-.2-.4-.2.4h-1.2l1.3.2.2.6-1.1 5.3-.6.8h.3l-.4.9-.7 1.6h.2c0 .1-.2 1.8-.2 1.8l-.4.5v1.3l-1 4.6-.4.3.2.4-.6 3.6h-.2l-.6 2-.8 3.9-2.3 7.6-.9 3.4h-.4c0 .1.2 1.4.2 1.4l-.3.2-.7 3.2-.9 2.7-.3-.2v.5c.1 0-.3 1.1-.3 1.1h-.4c0 .1.2.9.2.9l-.8 2.7-.7 1.4-.8.5v.4c.1 0-.2.3-.2.3l-1.4 5.2-2.1 6.5-.8 1.9-1.8 2.8-1.9 5.5-1.6 3.7h-.5v1.4l-.3.4h-1.1v1.1l.2.4-.6-.7.2-1.3-.3 1.2.5.9-5.3 10.9-3.5 6h-.3l-.7 1.5-1 1.1-1.9 3.5h-.5c0-.1.3-.6.3-.6l-.4.4.3.6-.7.6-2.6 4.3 4.7 4.4 1.5 2.2v2.4l-.9 1.7-3.2.7-10.9 10.5-3.6 4.6-.9 3.2.3 7-1.2 2.2-4.8 4.2-4.9 3.7 8.9 29.6 6.2 18.1 9.5 20 3.1 13-.3 6.8 4.7 5.5-2.2 6.3.3 3.8 7.6 4.9 2.2 8.3 12.8 36-.2 1.9 11.1 31.1v6l1.9 3.4.5 2.3-.5 3.4-1 3.4.4 3.6.5 2.1 1.4 2.7 2.7 3.2.9-.8.9-1.2v-.5l1.5-1.5.5-1.2.6-.3.5-1.1 1.2.3 2.2-5.3 1.6-1.9 1.9-1.4 1.4-1.7-.3-9.2 1.8-7.7.3-2.5-.3-1.9.5-2.3 3.2-6.4-.3-9.7 2.3-9 8.4-12-3.4-15 2.1-4.6-.4-2.5.7-2.1 2.4-2.7.3-1.5-.6-1.9-3.7-7 .4-1.7 1.5-2.1.7-2.2 2.7-13.4 3.2-6.2 1.6-1.5.6-2.8 2.7-4.8 1.5-3.6v-5.1l1-2.6 1.6-2 2.1-.7.6-2.5-.5-2.1v-2.3l2.9-6.4 4.1-2.7 1.9-1.7v-2.6l-.9-2.4-.3-2 .4-2.6 4.1-6.4 1.4-5.5v-2c-.1 0-.6-2.6-.6-2.6l-.9-1.8-4.8-6.5-1.2-2.7.6-2.5 6.5-11.9 1.8-5.1.4-2.5v-8.7h-7.2c0-.1-1.7.5-1.7.5l-3.8 3.4-3.6 2.6-3.5 1.6-5.9 6.3-1.6 1-7 1.1-1.5-.3-2.3 1.2-10.7-.8-4.5 1.1-4.9.6-2.7-.7-1.7-1.4-1.2-2-.3-2.5 2.1-4.2 2.4-3.1 2.2-4.1.4-2.2-.5-5.1 1-4.7 1.7-2.5 1-1.6 5.1-5.1 5.1-2.4 5.7-5.6 4.6-1.9h5.5c0-.1.2-.4.2-.4l1.1-1.8.3-4.6-2-2.1h-5l-6.8-2.9-2.4-2.2-2.1 1.2-2 2.2-2.8 1-3-.4-2.1-.9-.9-3.4 1.2-1.8h.1c0-.1 5.4-1.1 5.4-1.1l1-3-.5-2-2.5-2-1.7-2.2-.3-2.9 1.5-3.2-.5-1.3.5-.4-.2-1.5.9-1.9.3-1.9-.4-1.5-1.2-2.4-1.1-1.2-.3-.8v-1c.1 0 1.3-3 1.3-3v-1.6c-.1 0-1-3.6-1-3.6l-2.1-3.4v-1.5l.1-1.5 2-4.4 1.5-2.2.9-.7.4-.9-.5-3.6v-3.4c.1 0 2-3.1 2-3.1l2.8-1.3.8-.7.2-1.6.2-1.6.9-2.6 1-5 1-1.9.8-.6 4.4-1.6 2.7-1.4 2.1-1.6 1.3-1.3.4-.8 1.4-1.6.6-.7 1.6-.4 1.5.8 1.9 2 1.7 1.2 2.6 1.1 6.6-1 3 .3 1.8 1.3 1.8 3 .3 2.7v2.5c-.1 0 .5 1.8.5 1.8l.8 1v.6l.7.6 1.4.2 1.6-.5h2.5c0 .1 4.5 2 4.5 2l2.5.7h.9l-1-1.7.9-.4.2-.5-.3-2.9 1.3-.4-.3-1.7.9-.4.3-.6-.2-.4-.9-.4-.2-.6 1.6-3.7-1-.7-.7-1.6h-.7l-.5-.4.6-.8 1.1-.2.2-.4-.7-1.2v-.8l1.3.3.2-1.2h1.1l.1-.3-1.1-2.3v-1.2l.6-1.2-.2-.8-.8-.4-.3-.6v-3.6l1.5-1.2 1-.3.3-.3v-.8l1.2-.5-.2-1.8.7-.8 3.1-1.3 1.3-.8 2.7-.2 1.8-.8 3.3-2.8 2.5-.3.9-2.7.5-.5h1.1c0-.1 2.4-1.1 2.4-1.1l.7.4v.4c.1 0 3.5-3.9 3.5-3.9l2.7-4.8 1.8-1.9 3.5-6.9.9-2.1v-.7l-2.3-3.5-.9-8.5-.6-1.8.3-4-.5-2.2.7-1 2.2.6 1.8-.5v-.9l-1.2-1.4-.2-.7.2-.5 1.7-1.5Z"/></g></svg>