<svg xmlns="http://www.w3.org/2000/svg" xmlns:amcharts="http://amcharts.com/ammap" id="Layer_1" viewBox="0 0 512 512"><g id="_x3C_defs"><amcharts:ammap bottomLatitude="4.641" leftLongitude="116.927" projection="mercator" rightLongitude="126.606" topLatitude="20.835"/></g><g><path id="PH-SUR" d="m380.6 359.2 1.2.8-1.9 1.1 1.6 1.5 1.2-1.2-.6 1.1 1.1 3.1 1.3 1 2.1-.7 1.5-1.6h1.2l-1.5 6.2.9.9.2-.5 3.3 4-.5.9 1 .2-.6 1.1.8 1.2h-.6c0 .1.4.5.4.5l-.7 1.2-1.5.3-1.3 1.2v.6l1 .5h-1.7L386 384l-.7 1.2 1.3.9-.3.5.9 1.1 2.3.2-1-.8.7-.3 2.4.9 2-.6v.9h1.1l.2 1.5h-1c0-.1-.4 1.2-.4 1.2h.8l.2.6-.7 1.2-1.1.4.3 1.3 1.8.7-2.2 1.9.9 1.3 3.4-1.8-.8 4 .7.4-1.4 2.7.3.8h1c0-.1-1.9.9-1.9.9l-.8 1.3-.3-2.7-.2-1.5-1.4-.4 1.8-1.8-2 .2-2.6-1.8.4-1.6 2.1-1.7-.7-1.6.4-1.9-.6.9-2.4.2-2.4-.3-1.2-1.1 1.5-1.6-2 .2-.5-3.1-.8-.5-.2-1.9.6-.8-2-4.3-1.5-1.7-.6-5.9-3.7-5-.2-2.7 5.1-5.2v.6Z"/><path id="PH-TAR" d="m221.4 164.8 1.2 5.2 1.3 1.4 1.7.5-1 1.7 1.3 4.1-.8 2.4 1.3 1-.3 1.2h-.8v-.4l-1.3.7-1.2-.4-2.5.4-6.1 2.8-2.6-3.8-3.7-2.2.7-4.5 1.1-2.1 1.2-.7-.3-.6 2.1-1-.2-.6 2.3-3 2.7 1.1 2-1.3 1.2-3.7z"/><path id="PH-TAW" d="m185.6 500.8-.4 1.1-.6-.5 1-1.3zm12.2-1.7 1.2.8h-1.6l-.2-.7.6-.2Zm-11.2-2.7 1.5 4.6-1.5 3.5zm10.4-.4 1.5.8v1.1l-1.5.2zm6.5-2.5-.4 1.4h-.6v-1.3h.9Zm-7.2-.7-.2.6H195l.1-.7h1.1Zm10.3.1.4.8-1.1-.8zm3.1.1h-1.2l.7-.6.4.6Zm-12.4-2.8.2 1.8-2.3.7.8-1.9 1.2-.6Zm15-.1-.2 1H211zm1-.8-.2.8-.5-.2v-.9l.7.2Zm-1-1.4-1.1.6-.8-.3.7-2.2 1.2 1v.8Zm1.5-1.8-.6 2.2-.3-1.2zm-4.5-2.8v1.4c.1 0 1.3.8 1.3.8l-.7 1.3-.2 3.3-1.7-.6.8-1.2-.7-.3-.4.9-1.1-.7-.7 1.1-1.7-.9-1.3.8-1 2.3-.9-.3-2.1 1.2-1.2-.3-.3-2.1.6-.7 3.3-1.2 1.1-1.4h1.5c0 .1 4.3-3.2 4.3-3.2l1.2-.2Zm11.5-1.5-.7-.4.3-.7.8.7zm-62.7-49.5.6.6-.5 1.1.8.9-3.2-.7-.7-1 2.9-.9Z"/><path id="PH-ZMB" d="m199.6 165.6 3.1.4 1.1-1.6 1.7 1.1 1.9-.4 3.2 6.4.3.6-1.2.7-1.1 2.1-.7 4.5 3.7 2.2 2.6 3.8v1.9c-.1 0 1 .8 1 .8l.5 2.7 1.2 1.9-.7 1.5-1.8-.3-.5 1.3-1.9 1.5-2.2-2.4-.7.4.4 1.5-1.1 2.3-2.9-1.4.8-1.1-.9.2V195c.1 0-.8-1.3-.8-1.3l.4-3.7-1.5-7.7-2.4-3.8-1.4-1.2.8-.5-.4-1.4 1.1.5.8-.9-1-1.5.4-.5-1 .4.2-1.1-.6-.8.9-2.2-1.9-1.3 1.2-.6-.6-1.6Z"/><path id="PH-ZAN" d="m304.8 381.8 1.3.3.5 1 1.5-.5-.4 1.8 2 .6-.2 12.2-10.5-.7-1 7.3h-2.7l-3.5 2.5h-1.4c0-.1-4.9-.9-4.9-.9l-2.7.4-3.3 1.6-3 2.5-2.8 1.4-2.5 3.6-1.7 5-1.5 2.9-.7 4.4-2.2 2.1H260c0 .1 2.2-3 2.2-3l2.7-1.4-1-1.9 1.8-4.1-.5-.8h.9l1.2-1.5-1.1-.7.9-2.1-.6-1.7-.9-.4.5-.8.6.2v-1.3l.5-.2.6-1.6 2-1.5v-1.6l3.6-2.3 7.2-1.3 2.3-2.4.7 1.2 1 .3 5.8-1 2.5-2v-1.1l-1.8-1.7 1.4-.6v-2.6l.8-.4.7-1.9 1-.8 3.6-.5 3.5.4 1.5-3.5h1.9l.2-.8-1.3-1.3.4-.7Z"/><path id="PH-ZSI" d="M271.1 433.8v1.2l-1.2-.2.2.4-1.1.9.7-2 1.4-.4Zm18.9-13.3-.6 2.2-1.2-2-1 .4-.4 2.3.7.2v1.2c-.1 0 .6.6.6.6l.5-.9 1.6-.4.6-.9.9.3-.8-1 1.5.3-1.1-1.2-1.1-1.2Zm-4.4-15.1-2.7.4-3.3 1.6-3 2.5-2.8 1.4-2.5 3.6-1.7 5-1.5 2.9-.7 4.4-2.2 2.1h-5.1c0 .1-.1 2.2-.1 2.2l1.2 3.4 5.1 2.3 1.3-.6 1-1.4.6-3.5 1.6-1.3-.3-2.3 1-1.3.3-2.7.8-.5.2.9.5-.2 1.6-2.3-1.5-.2.3-2 2.8-2.1h1.1c0-.1.6-1.4.6-1.4l-1.6.4-.6-.6 1.8-1.3-.2-.6 1.8-2.5 3.4-1.6.4.7.6-.7 1.6 1.2.7-.4 1.3.5.2.9-.6-.4-.5 1.5.2 2.5 1 1.6-.3.5-.7-.5-.3 1.6v.5l.6-.6.5.3v1.3c-.1 0 1.7-.9 1.7-.9l-.6-.9 1.4-1.5 1.4 2 .7-.2.6.9 1.3-3.6-.3-1.4h.9l.1-1.6h.7l.4-.8-.4-3.2-5.1-.6v-2.6l-4.9-.7Z"/><path id="PH-ABR" d="m230.8 97.9 1.8 1.2.7 3h1.7c0-.1 1 .6 1 .6l.7 4.4-.9.5.8 2.4-.3.9-3.4 2.2v2.6c-.1 0-2.5 5-2.5 5l-.5 1.8h-3l-1.3.9h-1.9l-.8-1.1.5-1.9-2.1-1.7h-1.7l-.6-1.5 1.4-3.7-1.8-.7-1.3.6-.5-.6 2-6.3 1.4-3 3.3-1.1 1.1-1.8 1.7-.6 1.5-1.5 2.3.3.5-.9Z"/><path id="PH-AGN" d="m366.7 360.3 3.3-.6 3.8.7 1.6 1.3.2 2 .2 2.7.4 2.2-.6 2.7-1.5 2.7-1.7 5.3 1.1 3.3h-5.3l-1.8 1.1h-5.9l-.3-5.9.7-.6-1.1-1.5.5-1-.9-4.1 1 1.9 1.3 1.2h1.6v.7l.3-.6 2.6.4 2.8-1.2.3-5.4-2.3-7.4Z"/><path id="PH-AGS" d="m375.7 366.5 3.7 5 .6 5.9 1.5 1.7 2 4.3-.6.8.2 1.9.8.5.5 3.1 2-.2-1.5 1.6 1.2 1.1 2.4.3 2.4-.2.6-.9-.4 1.9.7 1.6-2.1 1.7-.4 1.6 2.6 1.8 2-.2-1.8 1.8 1.4.4.2 1.5H388l-3.5 2-1.4-.8-.5-1.1h-9.2l-8.8.4.2-2.8-1.1-3.5.3-1.3-3.1-4-.5-6.4v-2.3h5.9l1.8-1.2h5.3l-1.1-3.3 1.7-5.3 1.5-2.7.6-2.7-.4-2.2Z"/><path id="PH-AKL" d="m261.8 284.5 3.7 3 4.3.7 2.6 2.4h1.6l-.2.7.8-.4 1 1.8 2.3 1.9-.4.3-2-2-.8.3 1 .8v1l.7.1.2-.6v1.6h1l.4-1.2 2.4 1.3-1.9 2.2H275l-2.8 3.9-3.1 1.2-.5-.9.3-1.3-1.7-2.7.6-1.8-.4-3.4 1.1-2.3-.5-1.2-5.3-2.1-1.6.2-2.7 1.8 1.1-1.6v-2.6c.1 0 2.3-1.2 2.3-1.2Zm-1.1-1.9.5 1.8-1.1-1.5.5-.3Z"/><path id="PH-ALB" d="m326.9 244.8 2.2.7.4 1.1-4.8-1 2.1-.9Zm-4.6-1.4.2.6.6-.8.8.9.5-.6 1.6.6-2.3 1.3-.9-.7h-1.2c0 .1-1.3-1.5-1.3-1.5l2.1.2Zm-3.6-2.2 2.3.8-1.4 1.4.8 1.3-.8.4-1.4-1.5.7-1.3-.7-.6.4-.5Zm-2.7-1.7 2.6 1.2-.5.8-2.1-1.9Zm-4.8-3.3 2.2 1.1 2.1 4.8 3.6 2.5-.2.5h-2.6c0-.1-.6 1.7-.6 1.7l.9 1.7-.3.8h-.7v.7l1.5.5 2.3-2.9 1.8.8-1.1 2.4h-1.4l-2.7 1.7-1-1.2-3.2.4-1.6-.6-2.8 1.3-2.2-1.7-2.6 1.2-1.2-1.5.2-2.8 1.2-1.5-1.5-2 4.7-3.1h1.6l2.8-1.1v-1.3c.1 0-1.2-2-1.2-2l1.7-.6v.2Z"/><path id="PH-ANT" d="m258.3 289.8 2.7-1.8 1.6-.2 5.3 2.1.5 1.2-1.1 2.3.4 3.4-.6 1.8 1.7 2.7-.3 1.3.5.9v3l1.2 2.3 2.4 3.4v2.9c.1 0-3.6 3.1-3.6 3.1l-.8 2.4-3.1 2-1.6 3.5-.3 2.4.6.8-2.1 1.8-1.5-1.2v-1.8l1.4-1.4.6-3.5-1.7-2.9 1.8-5.1 2.1-3.1-.6-4.8.6-2.2-.7-1.2.9-1.3-.2-3.8 1-1 .4-6.2-1.1-1.1-6.6-.6Zm-12.3-3.2 2.9.7-.5.6-3-.2.6-1Zm3.6-2.8.9 1.7-.9.4-.5-1.8zm-6-4.8h1c0 .1 1.2 2.6 1.2 2.6l-1.2 1.4-1-2.2.8-.5-1.1-.5.3-.9Z"/><path id="PH-APA" d="m231.8 83.1 1.3-.6 1.2-2 1.2-.4v1.7c.1 0 4.9 1.7 4.9 1.7l1.1 1.3 5.4 2.6.7 2.6-.9 5.5-1.4.6-3.2 6.7 2.1.7 1.6 1.8.3 1.4-1.6 1.5-4.1-.9-.8 1.5-3.1-1.9-.7-4.4-1-.7h-1.7c0 .1-.7-2.9-.7-2.9l-1.8-1.2.3-3.8 1.2-2.1-1-6.3.6-2.5Z"/><path id="PH-AUR" d="M270.8 143.5 269 146l.7 1.4.6-1-.6 2-1.4 1.7.5.4 1.3-.7-1 2.2-4.1 3.8v.9l-1.1 1.3-1.3.6 1.1-2.3 2-2v-1.1l1.1-.7v-1.1h-1.1l-.7.7.2 1.6-1.8.3-2.5 1.7h-2c0 .1-2.7 2-2.7 2l-1.1-.2-5.6 5.3v3.4l.5 1.1h2v1.5h-.9l.2 1.7-3.7 3.9-.5 3.3-1.3 1.6-.8-.6-.6.6-.3 1.6 1.4 3-1.1 1.3.5 1.4-1.7 2.5v1.4l-.9-6.2 1.9-8.8-2.8-8.9 5.6-4.5 11-9.7 6.9-8.1 2-1.3 4.2.2-.4.2Z"/><path id="PH-BAN" d="m216.8 192.7 1.1.6.8 2.2 1.6.3-.9 1.3v2l2 5.9v1.7c-.1 0-1.5 1.7-1.5 1.7l-2.2-.4.3.9-3.3-1.6-.5-2 .6-1.9-.8-1.2h-1.6l-1.9-2 .2-1.3h.8l-1.1-.8 1.2-.6-.7-.3 3.1-1.9.5-1.3 1.8.3.7-1.5Z"/><path id="PH-BTN" d="m258.4 22.8 1.3 1.5-.8 1.6-.7-.9v-2.2Zm4.7-4.3 1 .8-2.2 1.7.3 1.4-1.7.6.3-2 1.2-1.1-.3-.7 1.4-.6Zm-4.2-11 .6.8-.2 1.6-2.3 2.2-.6-1 1.6-3.3.8-.3Z"/><path id="PH-BTG" d="m235.5 234.5.4 1.2-.6.3-1.2-1.4h1.3Zm-7.6-3.6 3.5 1.5h-2.2c0 .1-1-.4-1-.4l-.3-1.2Zm-7.1-16.6.8.3 1.8.6-.3.7 1 1.1h1.8l2.2 1.6.2.9 3.4-1 2.6-1.9 4.5.7.7 3.2.8 1.2h.5v1.5c.1 0-.7.5-.7.5l1 1.5 2.9.2 2.6 1.5-.7 1.8.3 2 .8.4-1.4.9-1.2-.4-2.9 2.2-3.1-1.5-3.1.8-1.3-.5.7-2.7-1.8-1.9-1.1.3-2.1 2.8-.6-1.1 1.6-1.3-.8-1.8.3-1.7-3.7-1.6-2.5.2.3 2.4-1.9-.6.7 2.2-.6.6-1.1-1.3v-4.3l-.6-.6h.8l-.3-4.4-1.6-.7 1.3-.3-1.1-.8 1.2-.2-.9-.5.4-1.1Z"/><path id="PH-BEN" d="m226.2 130.5 3.1 3.3.6 1.5.2 5.7-.6 2.8.2 2.2-1.4 3.5h-1.2l-1.4 2.4.3 1.3-3.4.4-4.3-1.5-1.3-8.1 2.7-3.1-.5-.3 1.2-1.6 1.2-2.2.7-5.1 4-1.2Z"/><path id="PH-BIL" d="m335.8 291.5 3.3 1 1.4 3.2 1 .8-.4 1.7-3.8.8-1.1-.8-2.9-5.6 2.4-1.1Zm-3.1-3.2.8.3-.8 1.3-1-.9.9-.8Z"/><path id="PH-BOH" d="m318.1 354.1 1.1.6v.6l-2.2 1.6-1.4.2-.2-.9-.9-.4zm-1.8-7.4h.5c0 .1-.8.9-.8.9l-.2-.9zm1.4-.7h1.2c0 .1-.8.8-.8.8l-.8-.7h.5Zm23.9-7.3-.8 1.3.5.7H340c0-.1-.2 1-.2 1h-.5l-.3-1.9h.8v-.4l.6.6.2-.8 1.1-.4Zm-9.8-.6 1.5 1v.7l.9-1.2.8 1.5 2.6 1.5.7-.6 1.3 1.1.4 1.4-.5.2.3 1.8-.5.2 1.2.3-.5 1.2-1.4.7 2.5 1.3-.2 1.6-2.1 1-1.1-1.2-2.3 1.5-.3 1.7-4.2 1.7-2.1-.4-3.9.6-6.1-1.4-.3-.9.8-1.5-.9-.7h-1.5l.6-2.8-.5-.9.8.3-.2.4 1.9-1.7.3-1 .3.5 2.1-1.4 2-.3 1.1-3h1.1l1.6-2.6h3.8l.4-.6Zm-3.2-.1-.2.7-.6-.3zm2.2-.9-.7.9-1.1-.3 1.9-.6Zm-2.6-.2.4.5-1 .2.6-.6Z"/><path id="PH-BUK" d="m340 396.6.4-1.9.8-.3.4-3.6h6v-1.5l1.6-3.6 11.3.4.5 6.4 3.1 4-.3 1.3 1.1 3.5-.2 2.8 1.2 2.2v2.8c-.1 0 .7 1.6.7 1.6l-.4 3.3-1 1-4.3-.7v1.9l-.9-.4v.6h-.8l-1.1 3.2-2.6.4-.6 1.4-2.3.2-1.3-1-1.5.5-1.9-2.4-.9.5 1.1-1.8-.6-1.9-1.6-1.5-.8-2.7-2-2.8-.9-.3-.2-1.3-2-2.8-.7-3.3-1.1-1.4 1.9-.6v-2.3Z"/><path id="PH-BUL" d="m231.6 183.8 2-1.1 3.7-.6 2.9 2.1h2.1c0 .1.9 6.4.9 6.4v3.2h.1l-2.6 1.6-2.3.5-2.1 2.1-2.1-.5-1.7 2-1.6-.6.7 1.3h-1.2c0-.1-2.3-1.7-2.3-1.7v-.8l-.6-.4-.5.7-3.5-.5.8-.9 1.2-3.7 2.6-.2 1.9-1.6v-.8l.6.3.5-1.3h.8l.6-2-1.3-1.6z"/><path id="PH-CAG" d="M267 78.9h.7v1.9l-1.2.7v-2l.6-.6Zm-30.3-1.5 2.2.6 6.6 4.7 14.5 6.2 3.3-.9 2.7-3h.9l.5-3.9 2.6-.3.4 2.1 1.9 1.8.7 2.6-1.1 2.8-1.2 1.5-1.4.5-1.5 2.2.6.7v5c.1 0-1.4 3.4-1.4 3.4l.9 3-.2 2.7.8 2-16 1.2-5.3-5.1-1.2.2v-.7l-.3-1.4-1.6-1.8-2.1-.7 3.2-6.7 1.4-.6.9-5.5-.7-2.6-5.4-2.6-1.1-1.3-4.8-1.7v-1.7c-.1 0-1.4.4-1.4.4l-1.2 1.9-1.3.6.4-4.2 1.8-1.2.7.4 2-.7Zm8.8-8.7 1.9 1-4.1 1-2.1-.5.2-.8zm15-3.1h.9l1.4 1.4v.6l-3 2.2-1.1 1.9-.8-2 1.2-.4-.5-1.1.5-1.6 1.5-1Zm-21-5.3.9 2.1v2.9l-1.6-1.7zm5.8-7 2.4.8 1.1-.7.5 3.6-.9.9-3.3-1.2-.4-1.5-1.3-.9 1.9-1.1Zm16.8-5.7.7.6v1.3l-1 1.2-2-2.1 2.3-1.1Z"/><path id="PH-CAN" d="m278.7 210.7 2.6.9-.4.3 1.6.8v-1.2l1.3 1-.8-1.7.6-.2.8.2.3.8.8-.5 1.2.5-.2.8 2.3.5 1.5 1.6v.8l3.9 2.9-.4 2 1.6 1.6.4 2.7-1.1 1.7-8-5.5-10.5-4.1-2.3 2.6H272v-.5l1.4-1.3-.5-2.3.5-.9 1 .3-.7-1 .8-1.2h.7l.2-.9.4.4 1.2-1.2.4.4 1.2-.5Zm12.7-2.8 1 .9-1.7-.8h.6Zm.2-1.7-.2 1.3h-1.3c0 .1 1.5-1.3 1.5-1.3"/><path id="PH-CAS" d="m317.7 222.1.6.2-.3 2.5-.7-1.7zm-5.3-.1 1 1.1-1.6 1.1-.7-.2v-1.4l.5.6.5-.8.7.6zm-9.1-3.9 1 2-.9.8 1.3-.7.2 1.5h.7l-.2 1.3 1.1.8v-1.6c.1 0 1.7.9 1.7.9l-.4.9.8-.5.8.7v-.7l1.8 1.2 2.3.5 1-.2-.2-1.8 2 2.8 2.1 1.2.6-.5 1 .9h1.3l.2 1.3h.6v1.4l-1-.8v.5c-.1 0-1.9-.6-1.9-.6l-2.1 1.5-7.3-1.5.7.4-1 1.5-.5 1.7.5.6-.6 1.1 1.6.4.5.9-1.7.6 1.3 2v1.3c-.1 0-2.9 1.1-2.9 1.1h-1.6l-4.7 3-2-2.6-.6-2.7-9-4.4-2.7-2.3h.8l1.1-1.2-.8-1.4-3.3-2.6h-2.2l-.4-1.9-1.9-.7.2-.6h-.9c0 .1.4-.2.4-.2l-.6-.5 7.3-2 8 5.5-.4 1.9 2.3 1.5h3.3c0-.1 1.3-.8 1.3-.8l1.5-2.3-1.3-2.1.3-.9-.9-1.1-1-.2v-.9c-.1 0 1-.4 1-.4l-1-.5 1.7-.2-1-1.3 1.9 1.2-.3-1h1.1l-.5-.7.4-.4Zm-1.3-.7.8.5-.3.7z"/><path id="PH-CAM" d="m344.4 365.8 2.1 1.6.8 2.5-.9 1.2-3-1.2-1.2-1.5.2-1.9z"/><path id="PH-CAP" d="m284.5 294.4 2.4.5 1-.5 1.1 1.7-.3.7.7-.3 1.6.9-2.1 1.9 1 .9.7-1.8h2.1l3.2-1.9-1.4 2.9v1.6l-3.4 1.2.3 1.6-1.7.8v1.2l-.5-.1-.7 1.5-2.1.3v-1.1l-.6-.3-3.4.5-.7-.7.7-.9h-.4l-1.2 1.3-.4-.8-.9 1.4-1.6.7-3.1-.4-2.1-1.1-2.5 2.6-1.1-2.3v-3l3.1-1.2 2.8-3.8h3.5l1.9-2.2.4 1h1.1l.9-.6-.7-.3.5-.8.3 1 1.9-1.1-.2-1Z"/><path id="PH-CAT" d="m333.1 222.3.6.8h-.9c0 .1-.5-1.1-.5-1.1zm-3.8-4 1.9 2.5.4 2.2.9.3-.2 1.2 1.3-1.4v1l1 1.1.2-.9.6 1-.5.2.6.4-.7.3.8 1.2-1 .5.5.8-.8 1.1.9 1.6-2.2.8.3 1.4-.7 1.2-.3.2-.7-1.6-2.4 1.2-.2 1.5-3-2.3-1.8-.3.5-.4-1.2-1.4 2.2-1.3 1.2-2.8-.2-2.7.6-1.3-.7-4.1 1.3.3 1.1-1.5Z"/><path id="PH-CAV" d="m230.3 206-.7 1.5 2.4-.7 1.3 3.9v1.2c-.1 0 1.7-.5 1.7-.5l-1.1 2.5.5.2-.6 1.1.3 1.6-2.6 1.9-3.4 1-.2-.9-2.2-1.5h-1.8l-1-1.2.3-.7-1.8-.6v-1.4l2.2-.4 2.3-1.6 4.3-5.2Z"/><path id="PH-CEB" d="m325.2 334.6-.9 1.4-.3-.4zm-2.5-1.4.6.6 1.2-.6-1.9 2.3-1.2.5-.3-.4.7-.5h-.8l.2-.9 1.5-.9Zm13.5-11.6 2.1 1.1.2.7-2.2.9-1.7-.5v.6l-2.2 1.1h-1.1c0-.1 1.2-3.7 1.2-3.7l1.8.6.3 1.2 1.6-2.1Zm3.8-2.9-.5 1.7-1.4.9v-.9zm-15.1-14.2-.8 4-1.6 2.3.5.7h1.3l-.4 3.7.7 1.4-1.5 3.8 1 6.2-1.2 4.2.7.9-1.7 1.7-2.5 1.2-.6 1.2-2.9.7-2.4 3v1.3h-1.3l-1 6.3-2.2 2.2v1.4l-.8.8-1.3 4.8-3.4 4.5-1.5.2 1.3-11.2 1.7-3.6-.2-.9-.8-.3v-1.3l1.1.4.4-2.3 1-.4 2.1-2.7 2-3.4v-2l2.6-2.6 1.4-2.5-.3-1.4 1.1-2.7 1.8-2.7.9-.4 3.1-7.8-1-1.2 1-1v-1.3l1 .7-.7-3.1 1.4-1.3.3-1.3 1.9-.2Zm-10-.6 2.3 4.5-2.6.4.3-.8-1.3-1.9z"/><path id="PH-COM" d="m388 403.7-.5.9 4.3 15.8.2 5.3-10.6 5.9-1.8-1.5.3-1.2-1.6-2.6.5-2.8-.7-.4v-3l1.6-.8-1-1.2 2-.4.6-3.1-1.1-1.3 1.2-2.1-.7-2-3.6 5.2h-.7l-.3-2.2-2-1.7-.8-6.5h9.2l.5 1.1 1.4.8 3.5-2Z"/><path id="PH-DAV" d="m373.6 435 1.1.7-.2 1.2-1.3-1.5.5-.5Zm.7-7.1 2.7 2.4-.6 2.6.5 2.8-.8 1.4-1.3-2.2-.3-3.1-1 .2-.5-.9 1.3-3.1Zm-1-24.1.8 6.5 2 1.7.3 2.1h.7l3.6-5.1.7 2-1.2 2.1 1.1 1.3-.6 3.1-2 .4 1 1.2-1.6.8v3l-3.5 1.9h-1.3l-1.7 1.7h-3.2c0 .1-.1-9.4-.1-9.4l-7.6-.2v-2.3l4.4.7 1-1 .4-3.3-.8-1.6v-2.8c.1 0-1.1-2.2-1.1-2.2l8.8-.4Z"/><path id="PH-DAS" d="m360.7 416.8 7.6.2v9.6c.1 0 3.3-.1 3.3-.1l1.7-1.7h1.3l-2 1.9.5 3.4-.4.9-2.2 2.1-.6-.7-1 .6-1.1 1.4v1.8l-2.8 3.5-.6 2.3.4 2.7-.8 1 2.5.7-.4-1.7 2.7 2.4v1.1l1-.5.9.6-.3.6h.7c0-.1-.4 2.1-.4 2.1l1.1.5 2.6 5.9v5.7l-1.2 3.1-4.5 5.1-3 5.3-2.4.5-.3-.4-.4-.6 2.6-1.9 2.8-5.9-.2-1.7 1.7-6-.8-.9-.2-2.9-1.4-2.1 1-1.1-.2-1.7-1.8-2.7-2.2-.6-1 1.5-2.1 1-2.3-1.2.8-2-.5-2.6-1.4-1.8v-1.3l.6-.3-.9-.7-.6-1.9h1.3l.6-1.9 2.7-2.3.7-1.9h1.1c0-.1-.9-3.1-.9-3.1l-1.7-2.1.6-1.8-.6-2.8 1.2-4.8-.3-1.8Z"/><path id="PH-DAO" d="m393.6 403.7.3 2.7.7 2.4h1.2l2.3 2.8 2.1.6-.6.6v1.8l.8.9-.6.8.7.3.5 2.6v1c-.1 0-1.4.4-1.4.4v1l.8.2-.7.7.4 1.4-.6.4.5.7h1.2l-1.3 2.6h-.8c0-.1-.5 2.4-.5 2.4l-1.5 1.1.2.7-.7.2-.2 1.1.4.7-3.6-.4-.9 2-.8.3 1.9 2.1v1.7c.1 0-1.7-.6-1.7-.6l.4-1.2-1.7-2.2-1.4-.5-.5 2.3 2.4 3.7-1.2 3.6.2 6.2-.9 1.2-.3 1.6-1.5-1.5.4-1-2-3.4.3-2-.7-1.7.7-.8v-1.6c.1 0-.5-.7-.5-.7v-2.5c.1 0-3-2.5-3-2.5l.4-2.5-1.4-1.9 10.6-5.9-.2-5.3-4.3-15.8.5-.9h5.7Z"/><path id="PH-DIN" d="m367.2 329.3.9.5v.7c-.1 0-.8-.1-.8-.1l-.2-1.1Zm5.1-.3 1.2 2.4-1 2.6.2 1.7-.9-.5 1.2 2.1-.2 1h.7l-.5 1.3 1.1 1.9-.6 2.9-.7.4 1.5 1.7-.2.8-1 .4-.7-.9v-1.7l-2.5-1.6.6-.3.3-2.4-.5-.3v.7c.1 0-.7-.6-.7-.6l-1.1.6-1.1-2.2.8-1.5 1.3-.6-.9-1.2v-2.4h1.4l-.3-1.9 1.4.5.5-2.3.9-.9Z"/><path id="PH-EAS" d="m381.8 319.8.3.9-.9-.8h.6Zm-7.9-1.4 1 .8-.3 1.6 2.8.5v1.1l-1.8.2-2.5-1.7-.4-1.2 1.1-1.2Zm-1.5-5.6.2.8-1.1-.2zm3.7-.8 2.1 2.8-2.2-2.2v-.6Zm-18.5-38.2 1.3-2.6 2.9 3.3.9-.5.5.3.6-1.1h.8c0 .1-.5 1.1-.5 1.1h2.1l.8.8-.3.5h.7c0-.1 1.1 1.1 1.1 1.1v.6c-.1 0-1.8.2-1.8.2l.6.4-.9.5v1h1.1l.3.3h-.6c0 .1 1.4 1 1.4 1l-2.7 3.2.3 4 1.1 1-1.8 1 .8.6.6-.6.3 2.2.6.4h-1.2c0 .1.3.9.3.9l-.7.9.3.7h.8l-.1 1.4 1.4 1.6-.6 1.4.9-.2 1.2 1.8.6-.2 1.5 1.3-.6 1.7-2 1.3-.4 1.8 1.9.6.7-.6-1-.8.4-.2 2 1.1 2.9 5-.3.6-1-.4-1.4-1.7.9-.9h-1.1l-.2-.8-2.3.9-.7-.4.4-.6h-1.2l-.6 2-1.5-1.4-.2.8-.6-.4-.8.9v-.6l-2.7-.5-.6-.8-1.3.8v-6.1c-.1 0 1.6-2.5 1.6-2.5l-2.3-1.4-.7-4.7.4-1.1 1.8-1.3-.4-5.4-1.9-4.3h-2.8v-5.2l1-.6.2-3Z"/><path id="PH-GUI" d="m284.2 329 .7.6-1.3.3.7-.9Zm-1.4-8.5 1.9 1.9.2 2.3-1.4 3.5-1.6 2-3.4.9-.2-1.3-1-.9.3-.8 1.2-.3-.4-2 1.5-2.5 1.5-.3.2-1.3 1.4-1.1Z"/><path id="PH-IFU" d="M229.4 133.8h1.1l1-.9 1-2.4v-2c-.1 0 7.4-.3 7.4-.3l3.7-1.9 2.6-.4 3.5.3 1 5.3-1.3 1.5-2.6.8-.7-.3-.9 1.1H244c0 .1-.9.8-.9.8v1l-.6 1.5-.8.3.2.8-11.7 2.1-.2-5.7-.6-1.5Z"/><path id="PH-ILN" d="m228.4 76.7 1.9 2.8h1.3c0 .1.6-.6.6-.6l-.4 4.2-.6 2.5 1 6.3L231 94l-.3 3.8-.5.9-2.3-.3-1.5 1.5-1.7.6-1.1 1.8-3.3 1.1-1.4 3-.7-1.6.6-4.1-2.6-.6-.4-.4 2.1-2.5-.7-1v-1.8c-.1 0 1.1-1.5 1.1-1.5l.3-2.1 2.4-4.5-1.1-4.6 1.9-1.7 2.7.6 1.7-.5.3-2.5z"/><path id="PH-ILS" d="m216.3 100.2 2.6.6-.6 4.1.7 1.6-2 6.3.5.6 1.3-.6 1.8.7-1.4 3.7.6 1.6h1.7l2.1 1.6-.5 1.9.8 1h1.9l1.3-.9h1.8l-2.3 2.4-.2 5.5-4 1.2-.7 5.1-1.2 2.2-1.5-1.8.5-1.7-1.3-2.3.3-2.3-.9.6-2.3-.6 1.1-1.9-.6-6.1-.7-1.1 1-2.4-.2-1.5h.5l.6-2.3-1-1.3-.2-1.8-2.2-1.3-.2-.9 1-3.4 1.8-1.6-.9-.8.6-.5-.7-.6 1.7-.9-.4-2.4Z"/><path id="PH-ILI" d="m297.4 308.3-.9 1.7-.2-1.1 1.2-.5Zm.7-2h.7l-.5.9v-.9Zm-.1-2.8.9.6-1.3 1.4.5-2Zm2.8-4.5.5.4-.8.7-.3-1 .5-.2Zm-.7-.1h-.9c0 .1-.2-1.2-.2-1.2l.6-.2zm-1.2-2.3-.2.8-1.1.6.3-1 1-.5Zm-1.4-1.8.4 1.1-.8 1.7-.5-.6-.7.2 1.3.9-.4.5.7-.3.4.6-1.1 1.6.7.7-.6 1.5-1 .4-.2 3.1.9.9v1c-.1 0-.6.3-.6.3l-1.3-.9.2.5h-1.1l-.6 2.3-1 1-.7-.2v1l-.8-1-.5 1.4-1-.3-.6 1.2h-2.1c0 .1-.6 1.3-.6 1.3l.9 1.6-.8 2.2-1.1 1.2-1.7-.4-.2.5h-1.6c0 .1-.9 2.7-.9 2.7h-3.7l-7.5 1.5-1.9 1.6-1.4.3-2 3.3-.6-.8.3-2.4 1.6-3.5 3.1-2 .8-2.4 3.7-3.1v-2.9c-.1 0-2.5-3.4-2.5-3.4l2.5-2.6 2.1 1.1 3.1.4 1.6-.7.9-1.4.4.8 1.2-1.4h.4l-.7 1 .7.7 3.4-.5.6.3v1.1l2-.3.7-1.5h.5v-1.1l1.7-.8-.3-1.6 3.4-1.2v-1.6l1.4-2.9 1.6-1.7Zm6.2.1-.7.7-.4-.3 1.1-.3Zm.1-1.3-.3 1-.2-.8z"/><path id="PH-ISA" d="M268.7 111.4v1.3l1.8 2.9v1.5h1l.8.9 1.8-.7 1.1.6 1.1 2.2-.9 2.5.2 1.4 2 .7.8-.8.6 1.4-1.9 3.8v2.8l-1.1 1.9.2.9-4.9 8.6-4.2-.2h-1.5c0-.1-9.8 4.4-9.8 4.4l-5.9-7.5-4.5-.4-.3-1.4-2-1.9v-1l1-.7h1.2c0-.1.9-1.2.9-1.2l.7.3 2.6-.8 1.3-1.5-1-5.3v-6.5h-.1l1.6-3.7 2.1-1.5-.6-2 16-1.2Z"/><path id="PH-KAL" d="M246.3 106.9v.7l1.1-.2 5.3 5.1.6 2-2.1 1.5-1.6 3.7-4.2-.8-2.1.7-2.7 3-2.6.6-2.3-.8-.9-1.3-4.3-.4 2.4-5v-2.6c.1 0 3.5-2.2 3.5-2.2l.3-.9-.8-2.4.9-.5 3.1 1.9.8-1.5 4.1.9 1.6-1.5Z"/><path id="PH-LUN" d="m215.3 130.9 2.3.6.9-.6-.3 2.3 1.3 2.3-.5 1.7 1.5 1.8-1.2 1.6.5.3-2.7 3.1 1.3 8.1-.4.8h-2.5l-.5-1.2-1.6-.9-.8-3.4.2-2.5-.8-1 .5-2.2-1.3-1.4.9.2.9-2.2v-4.7l1.8-1.4.4-1.3Z"/><path id="PH-LAG" d="m247.1 203.6 2.7 5.1 1.9.5.2 4.1-2 2.8-1.3.7-.9 2.2-1.8.3-3 2.4-2.1.7v-.8h-.6l-.8-1.2-.7-3.2-4.5-.7-.3-1.6.6-1.1-.5-.2 1.1-2.5-1.9.5v-1.2h.1l1.3-.9.2-3.6 1.3-1.1 1.8.5 1.6 3.1v-1.9c.1 0 1.1-1.3 1.1-1.3l2.2 1.7.4 1.6-.9 3.7 2.4-1.7-.6-.7-.2-2.8.5-1.9 2.8-1.8Zm-6.9 7-.5-2.3-.2 2.2.8 1.9v-1.2l.5-.5h-.5Zm.5-5.1"/><path id="PH-LAN" d="M330.4 393.9h6.8c0-.1 1.9 1 1.9 1l.9 1.7v2.3c-.1 0-2.1.6-2.1.6l-4.9-2.2h-1c0 .1-.6 3.9-.6 3.9l-2 2-2.6.4.3 1.1-.8 1.8-2.6.2.7 2.2-1.3 3.9-4.9-1.5-.7 1.3-2.4-1v-1l-1.3-1.5-2.1-.5 1.5-3.8 2.3-1.4 3-3.4h1.5l3.6-2.6 4.1.4 2-.8 1.3-2-.6-1.5Z"/><path id="PH-LAS" d="m337.9 399.6 1.1 1.4.7 3.3 2 2.8.2 1.3.9.3 2 2.8.8 2.7 1.6 1.5-3.2-1.1-1.6.8-1.2-.3-2.1-1.8-2.9.9-2.3 2.5-3.5 1.8-1.5 2.7-2.1-.8.5-.4-.9-1.6-3.1-4h-.9c0 .1-2.1-1.4-2.1-1.4l-3-.2.7-1.3 4.9 1.5 1.3-3.9-.7-2.2 2.6-.2.8-1.8-.3-1.1 2.6-.4 2-2 .6-3.8h1c0-.1 4.9 2.1 4.9 2.1Z"/><path id="PH-LEY" d="m332.5 295.9 4.6 5.3-.2-1.7.5-.3 1.7.9.4 2.6 1 1.1h3.8l2.7-2.1.4-1.7 1.9.7 1.9-.6.4 1 .7-.2-.5 3.6.4.8h.9v3l1 2.7v4c-.1 0-1.1 2.7-1.1 2.7l.7 3.2 2.7 1.2-.3.7 1.3 1.6-2.9 3h-3.4l-1.4 3.6.2 4.2-1.6.3-2.2 2.1-.5-.2.9-3.8-1.7-1.8-.4-3.3 1.4-1.6v-2.6c.1 0 1.1-1.2 1.1-1.2l-.6-3.5-3-4.9-2.7-2.3-1.7 1.1.4 1.5-1 1.9-2.5-.6-.4-1.8v1.1c-.1 0-1.3-.3-1.3-.3l1-1.8V312c-.1 0-1.2-1-1.2-1l1-1.4-.9-5.9-.9-.3v-1.5l.6-.1-.9-.4-.2-.5.7-.3-1-.3-.8-2.4v-1.4l.8-.8Z"/><path id="PH_MG" d="M323.7 424.9v-1.1l1.7-1.4-1.7 2.4Zm10.3-8.2-3.5 1.8-1.5 2.7 1.3.2.4 2h-1.3l.1 3.1-.9-.2v.9l-.9.5.3.2-1.6 1.3-1.5.2-2 3.1-1.3 3.9.6 1.3-1 1.5.5.9.5-.2-.2.7 1.2-.8.9 1.3h6.7l.5.8h6.9l2.1-2.2-.7-2 3.1-.7 1.1.5-.9 2.5h2.4l1.6 4 2.6-.2 3.5-1.9-3.2-1.9-1.6.5-.9-.4-.2-6.6-.5-.3v-1.4h.9v-.8h-.8v-.7l-2.5-2.4-.5 1.4 1.5 1.3h-.6l.2.7-.6-.6-.3.9-.5-.4 1 2.5-1.2 1.5-1.5-.8h-1.2c0 .1-1.6-1.9-1.6-1.9l-1 .3-2.2-1.7 2.4-4.4-2.8.2-1.2 1.8-1.3-.2 2.4-3.9.4.2 2-4.4-1.6-2.3.2-4-2.3 2.5Z"/><path id="PH-MAD" d="m259.1 234.5 1.4 1.4.4-.6 2 .7.3-.8.7.6-.3.5h.7l.3.8h-.4 1.3l1.2 1.1-.8 1 1.5 1.6-3.1 2.9.2 1.1-.8 1.3-1.4-.3-.9-1.2-2.6-1.1-1.4-1.9-.3-3.1 1.8-3.8Z"/><path id="PH-MAS" d="m300.1 264.2 4.3 1.8h-1.2l.6 1.8-1.1.5.7.9.4-1 .7.2-.3-1.3 2.1-.3 2.8 2.1.6-.4.4 1.5 1.2.9-1.1.9h1.7c0-.1 1.9.7 1.9.7l2.7 4.2.5-1.5 1.6 1.5.5-.8.7.4 4.7 7.3v.6c-.1 0-1.6-2-1.6-2l-.2.7 2.3 4.1-.4 1.8.4 2.2-4.5-4.4-5.9-2-.3-.8 1.2-.8-3.3-2.5-1.2-.3.4-.6-2.3-3.5-1.1-.4-2.1.7-1.8 2.8-1.6 1-.5 1.6-4.1 3.6-.5-.8 1.6-2.7.6-3.4 1.9-.9-.4-1.1.5-.5-.7-1-1 .9-.4-.6h.5l-.4-.9 1.3-2-.2-1.3.9-1.9-1.2-.5-.4-4.4Zm11.7-2.8.9 1.3 2.1 1.2 1.3 3.6v2.4c.1 0 .7.2.7.2v2.1l-6.4-8.9v-.7l.4.6h.7l-.5-1.3.8-.6Zm-18.9-14.2 1.5.7 4.2 6.8 2.8.7.4 2.2 2.9 3.8-1.5-.9-2.2-3.4-1.9-.3-.9-1.3-1-.2.3-.4-2.1-1.6-.4-1.3-2.4-.2-.6-1-.6.4.4-1.8-.9-.9 2-1.4Z"/><path id="PH-MNL" d="M230.5 200h1.2c0 .1-.7-1.2-.7-1.2l1.6.6 1.7-2 2.1.5.5.6-.8 2 .8.5-.9 1v3h.1l-1.3 1.1-.2 3.6-1.3.9-1.3-3.9.6-.8-.4-.2.3-1.6-1.3-1.1.6-1.3-1.4-1.7Z"/><path id="PH-MSC" d="m311.4 383.6.8.8h1.4l2.9 3.2 2.4 6.4-.5 1.2.5 3.8-2.3 1.7-.8 1.5h-1.4c0-.1-2.3 1.1-2.3 1.1v-.5l-2.2-.4-.4-5.1.2-12.2.9-.2.5-.7-.7-.2 1-.3Z"/><path id="PH-MSR" d="m359.2 370.8.9 4.1-.5 1 1.1 1.5-.7.6.3 5.9v2.4l-11.3-.4-1.6 3.6v1.6h-5.9l-.4 3.6-.8.3-.4 1.9-.9-1.7-1.9-1.2h-6.8c0 .1 1.1-1.9 1.1-1.9v-2l1-2.4 4-2.5h.9l-.2 1 3.2 2.1 2.3.3-.4.6.6-.6v.7c.1 0 1.2.3 1.2.3l1.2-.6v-2l.9-1.1-.9-3 1.1-.7-.4-1.5.7-1.7-.3-4.6 1.2-.9h1.5c0-.1 4.7 2.6 4.7 2.6l1.6 2.7 2.6-.5.7-2.5-.5-2.5 1-2.5Z"/><path id="PH-MOU" d="M249.5 119.8v6.5h.1l-3.5-.3-2.6.4-3.7 1.9-7.5.3v2c.1 0-.9 2.4-.9 2.4l-1 .9h-1.1l-3.1-3.3.2-5.5 2.3-2.4h1.2l.5-1.9 4.3.4.9 1.3 2.3.8 2.6-.6 2.7-3 2.1-.7z"/><path id="PH-NEC" d="m298.9 312.9 1.5.2 2.2 1.5h2.7c0-.1 1.8.9 1.8.9l.7-.5 1.2 3 1-.2v1.5l-.7 1.3-.5-.3-1.9 7.2-3.2 2.5-.7 1.8-2.5-.9h-3.7l2.2 4.4-5.4 7.8-.9 3-10.3 12.4-1 2.4-2.3-2.2-.6-1.6-1.2-.7-.5-1.8h-.7c0 .1.4-1.1.4-1.1l-1.8-.4.7-.8-1.2-.3.6-3.3-.7-.6 1.7-1.9.6-2.3h6.4l3.4-2.8h1.4c0 .1 1.3-.9 1.3-.9l-.8-3.9.7-4.4-2.1-4.6 2.5-1.3 1.1-1.4.8-3.5.5-.2-.3-5 2.6-.9.7.5 4-3Z"/><path id="PH-NER" d="m281.4 360.9 1-2.4 10.3-12.4.9-3 5.4-7.8-2.2-4.3h3.7l2.5.8v3.2c-.1 0-1.5 2.8-1.5 2.8v1.7c-.1 0-4.6 8.8-4.6 8.8l.9 4-.2 2.2-.9-.7-.5.8 1.7 1.6-.4.5-.4-.7-.5 1.1h1l.9 2.1 1.3.5 1 2.5 1.6 1.9-.8 3.3-2.5 3.5-2.3 1.5-1.6-.6-1.8.9-2.2-1.1-1.9-4.5-.4-3.1-2.1-1-3.6-.5-1.8-1.2Z"/><path id="PH-NCO" d="m336.3 414.2 2.9-.9 2.1 1.8 1.2.3 1.6-.8 3.2 1.1.6 1.9-1.1 1.8.9-.5 1.9 2.4 1.5-.5 1.3 1 2.3-.2.6-1.4 2.6-.4 1.1-3.2h.7v-.6l.9.4v.4l.3 1.8-1.2 4.8.6 2.8-.6 1.8 1.7 2.1.9 2.9h-1.1c0 .1-.7 2.1-.7 2.1l-2.7 2.3-.6 1.8h-1.3l.6 2-3.5 1.1-3.2-1.9-1.6.5-.9-.4-.2-6.6-.5-.3v-1.4h.9v-.8h-.8v-.7l-2.5-2.4-.5 1.4 1.6 1.3h-.6l.2.7-.6-.6-.3.9-.5-.4 1 2.5-1.2 1.5-1.5-.8h-1.2c0 .1-1.6-1.9-1.6-1.9l-1 .3-2.2-1.7 2.4-4.4-2.8.2-1.2 1.8-1.3-.2 2.4-3.9.4.2 2-4.4-1.6-2.3.2-4Z"/><path id="PH-NSA" d="m326 273.7.4.5-.5.6-.4-.8zm5.3-2.2-.9-3 1 1.4v1.6Zm-4-3.6 1.5 2.1-.3 1-1.3-1.5V268Zm8.6-3 .9.8-.4.4-.9-.4.4-.7Zm1.9-.1.9 1.2h-.6l-.9-1.1h.6Zm-4-1.4 1.1 1.5-1-.5v-1Zm19-.5.8 1.4 1.6.7-.7 1 .8.2v-1.3l1.1.5 1-.7 3.7 2.8-.2.6h.9c0 .1.1 1.4.1 1.4l1.3.7-1.2.3.5.3-.9 1v.8h1.1l-1 .7.2.5 1.4-.8v1l-.5.1-.9.5-2.9-3.3-1.3 2.6-5.4 1.8-2-.7-1.5 3.5-.8-1.1.4-1.3-3.9-2.2-2.2 1.5-4.7-2.8-1.7 1.6h-2.1l-.7-2 .3-1.2-.4.3-2.1-5.3.6-1 1.5 1.5h.8v-.6l1.1.5v-.9l.9 1.1 1.4-.5.2.3 1.1.5 6.7.2 1.9-.9 2.1.3.5-1-.7-.6 2.2.5.7-.5v.8c-.1 0 1 .2 1 .2l.7-.4-.7-2.4Zm2.2-1.2.7 2.5-1.7-.6.8-.5-.9-.4v-.6zm-21.1-.3.8.3v1.3c.1 0-.7-.5-.7-.5v-1.2Z"/><path id="PH-NUE" d="m229.4 156.3 4.4-.6 4.5 1.1.7 5.7 2.5 4.3 2.8 8.9-1.9 8.8-2.1-.2-2.9-2.1-3.7.6-2 1.1-1.6.3-1 1.3-.6-1.2h-1.8l-.5-1.9.3-1.2-1.3-1 .8-2.4-1.3-4.1 1-1.7-1.7-.5-1.3-1.4-1.2-5.2 3.9-.6 2.4 1.9 1.1-.9 1.9-4.9-1.3-3.9Z"/><path id="PH-NUV" d="m243 136.3 2 1.9.3 1.4-.9 5.9 2.2.7-.4 2.8-4.3 1.8.9 7.5 4.4 3.8-5.6 4.5-2.5-4.3-.7-5.7-4.5-1.1-4.4.6-1.2-2-2.2-.9-.3-1.3 1.4-2.5h1.2l1.4-3.4-.2-2.2.6-2.8 11.7-2.1-.2-.8.8-.3.6-1.5Z"/><path id="PH-MDC" d="m233.4 275.4.6 1.1h-.9c0-.1.2-1.1.2-1.1Zm1.7-1.9 1 2-.2 1.3.5-.3.6 1-.5.4-1-.6-.4-1.2-1.1-.4v-2c.1 0 1-.3 1-.3Zm-19.4-37.6 9.8 1.9 4.2-1.1-.3 2.7-2.6 4.1 13.3 6.6v26.1l-1-.9h-2.9c0-.1-.5-1.5-.5-1.5h1.1l-.6-2h-2c0-.1-3.5-4.6-3.5-4.6V264c.1 0-2.1-3.2-2.1-3.2l-2-.5-.2-2.7-.7-.5 1-2-1.7-4.6-2.5-4-2.5-1.2-1.4.2v-1.3l-1.2-.8-.6-3.8-.8-.4-1.3.5-.3 1.1-1.1-.2-1.1-1.2-.3-.8.8-1.4 3-1.1Zm-3.5-4.8 3.1.8.3.8-3.5-1.7Zm-.5-4.7 1.4.9-.7 1-1.5-1 .9-.9Zm-6-.9 3.3 1.7.6-.3 2 2.7-1.1.4 1.1.3.2.8-.8.5-.4-1-4.6-2.5-.7-2 .5-.5Zm-1.7-1.1.7.7-.3.4-.9-.6.5-.4Z"/><path id="PH-MDR" d="m232.3 237.7 2.5 1.9 3.7-.4.5-.6 1.9 2.5 1.2.3 2.3 3.3 1.9.4v2.6l2-.2 1.4 1v.9l-2.1 2.2.4 2.4-.7 5 2.2 3.2v1.2l-1.3 2.6-2.1.9.2 1.2-1.1 1v1.4l1.3 1.2h-2.1l.4 2.2-.9-.4v-.8h-.7l-.4.9-1.7.3-1 2.3v-26.1l-13.4-6.6 2.6-4.1.3-2.7h1.9c0-.1.6 1 .6 1Z"/><path id="PH-PLW" d="m115.1 401.5.4 5.1-.5.3-.2 1.6-1.5 1.2-.6-.3.2-1.1-2.1-2.6 1.1-.5-.5-1.4.5-1.7v1.1l1.1-.8-.2-.6 2.3-.4Zm-1.3-1.7 1 1.4-1.4.4-.8-.8 1.2-.9Zm3.3-1.5h1.4l.5.8h-1.7zm-1.5-2 1.1 1h-1.3zm7-2.3.9 1-.2 2.4-1.6.9-.9-.9v-2.9c.1 0 .5-.6.5-.6h1.3Zm-2.8.4h.8v.7l-2.4 1-.4-.9h.9c0-.1 1.1-1.6 1.1-1.6zm58-68.9-.6 1.1h-.7l.5-.6-.4-.5h1.3Zm20-1.9 2.3 1.6h2.3l.6 1-.5.4v.6l-1.2.4v-.5l-.5.9-1.4-1.4 1.2 2h-2l.5.7-2.1.6-1.3-.7-.4-2.7.4-.4.9.6 1.2-2zm37.3-7.8-.3.9.6.6-.7.5.2.9-1.3.3-.7-.9.2-.8 2-1.6Zm-53.4-3.5v2.3l-.9-1 .2-1.1h.7Zm12.5-1.1.5.9h-.7zm-3.7-1.2 1.2.4v1.9c.1 0-.5.5-.5.5l-.4-.9-1.1-.3.7-1.7Zm3.1-.8.3 1-.6.5-.3-1.4h.6Zm38.8-1.5.2.6-1.3.6-.2-.6zm-41.3-.6.7.2v.8l-2 .7-.2-1.1zm2.7-3.9-.5 1.8-.6-1.1 1.2-.7Zm-6.5-3.1.8.3.2 2.5.8.3.5-.6.4 1.5-.9 3.6-1.1 1.3 1.1 1.9.7-.5.3 2.4h-2l-.6 4 1.5 1.9 1.2-.8.7.5-.7 1.2.7 1.8-.9 1.8h1.2l.7-.8.7.5.3.6h-1.3l.5.7-.4.4.9.4.5 1.9h1l-.3.5.7.6-3.9 2.6-.5 1.5h-3.4l-4 1.8-2.4 3.3-1.4 4.7-6.7 1.9-2.2.3v-.4l-2.3 1.5-2.1.3-.3 2.7 1 1.3v2.3c-.1 0-1.3-.3-1.3-.3l-.2-1.7-1 .8v1.6c.1 0 1.1.1 1.1.1l.2.8.8-.2v.6l-3.3 3.5-4.9 7.8-1.7.4-.3 1h-.8l-1.6 2-4 .3-1.8 1-.7-.3-.7 2.8-1 .2.4 1-.7.2-1.7 3.9-3.5 1.6-4.4 4.3-3.6.9-1.7-.5-.9.9.4 1.4-1.4 2.9-1.3-.6-.7.8h-1.8l-4.9 4v.8h-.8v-1.1l1.1-1.9V388l1.5-1.7-.3-.9.5.2.7-1.6 1.1-.5.3-.8h-.6l1.1-1.4 2-.4-.2-.8 1.1-.8.4-1.3 2.4-3.1h1.1c0-.1 1.1-1.3 1.1-1.3l.2-1.5 1.8-1.3.3.8h1.4c0-.1.9-3.1.9-3.1l1.1-1 1.5-.3 1.3-1.6 1.4.3.9-.9v1.1h1.2l2-2.7 1.2-.3v-1.6l1.8-.4.4-1.8 3.9-3.3.3-2.1 2-.4.4-1.3 2.7-1.7 2.8-3.3v-1.4l1.2-.6.6-1.2-.6-.9 2.4-1 1.2-2.9.4 3.3 1-.2v-1.2l.9-1.1-1-.3v-2.3l4-.5.4-1.3-.5-.4.7-.2-.9-.6h1c0 .1.2-.6.2-.6h1v-1h.6c0 .1-.3-1-.3-1l-1.2.9-.3-.7.6-1.1 1.2-.3 1.1.9v-1l1.2-.3-.9-.5.3-.9h1v2.1l.8.9 2.3-3h1.2l.4-1-1.2-1 1.1.3 1.6-1.6.7-4.4-1.1-1.2-1 .3-.4-2-1.6-.5 1.5-1.1-.6-.7h-.8l.6-.8-.4-.6h.7v1.3l.7-1.1.6.4-.2 1.3h.6l-1 .7h1.3l-.8.7.9.5.2-.5.4 1.1.7-.3-.3.6 1.2.2.3 1.2.6-.3.5 1.4.9-.2-.9-2.3v-.9l.6-.4-1.2-.9h-1.9l-.4-.7.8-1.3-1.6-.2-.2-1.9.5-.8.6 1.2 1-.3-1.4-1 .5-.5h-.6V310l1.4 1.9 1.3.2.3-3.1-.8.2v-1.1c-.1 0 .5-1.3.5-1.3l-.2-3.1 1.9-1.6.2-1.8Zm10.1-2.9 1.7.8v1.2l-1.6 2.3-.5-.7.6-.8h-1.1l-.4 1-1.9-2.1.5-.5 1.2 1.3v-.6h.5l-.7-.6.4-.5.7 1.2.2-.6.8.5-.3-.8h.7l-1-1.1Zm9.9-7.4h1v.6l-1.1-.6Zm-7.2-6.5 2.1.9-.9.2v.9l2.4-.6v.5c.1 0-1.1.5-1.1.5l2.6 1.1-1.6.6h.9l-.7 1.1 1.3.5-1.2.9h.7l-.3 1.2-2.8 1.8-.5-2.2 1.9-1.7-1.2-.4v1.1l-1 .1-.7-1-.4-1.1.6-.4-2.1-3.2 1.3.7-.5-1.4 1-.2Zm10.3-.2.9 1.5-.9.9h1.2l.2.7-1.4 1.1-1.7-2.7 1.7-1.4Zm-10.5-10.5.9.3v1.5c.1 0 2.7.5 2.7.5l1.5 1.9 1.1-.3v.7l1.9 1.7 1.5-.3.3-2h.6l.1 2 .9-.4.3.9 1.4.7v3c.1 0-1 .3-1 .3l-1.4-.8-.8.7-1.6-1.4h-1.1l.2.8-1.1 1.3-.4-1.2-1-.6-1 .9-1.3-.6-2.5-5.9-1.3 1.6.7-2.3-.5-.3.6-1.7-.5-.6 1-.6Z"/><path id="PH-PAM" d="m214.1 185.4 6.1-2.8 2.5-.4 1.2.4 1.3-.7v.5l.9-.1.5 1.9h1.8l.6 1.2 1-1.3 1.6-.3-.4 1.9 1.3 1.6-.6 2.1h-.8l-.5 1.2-.7-.3v.8l-1.8 1.6-2.6.2-1.2 3.7-1.7 1-2.3-2-1.6-.3-.8-2.2-1.1-.6-1.2-1.9-.5-2.7-1.2-.8v-1.9Z"/><path id="PH-PAN" d="m202.7 148.7 1 1.1-.7 1.1.6 1.1-.7.6-2.3-2.4 1-1.1.4.9v-1.2l.8-.2Zm7.9 22.7-3.2-6.4-1.9.4-1.7-1.1-1.1 1.6-3.1-.4.8-1-1.5-3.6-.5-.5-1 .5-.2 1-.6-.3-.4.5-.7-1.6.7-1.8-.6-.8.2-1.8.6-.8-.9-1.2.9-2.1v-2.2c-.1 0 .9-1.5.9-1.5h1.2l.8-1.1 1.2.8-.3 3.9 1.9.5v.6c-.1 0 1.2 1.2 1.2 1.2l.3-.7 1.7.6.7.8-.7 1.2.8.9-.5.3 1.4.9 5.5-.6 2.9-3.2-.2-1.4h2.5l.4-.9 4.3 1.5 3.4-.4 2.2.9 1.2 2 1.3 3.9-1.9 4.9-1.1.9-2.4-1.9-3.9.6-.7-1.8-1.2 3.7-2 1.3-2.7-1.1-2.3 3 .2.6-2.1 1Zm-9.6-25.1.8 1.8-1.5-.5v-1.1z"/><path id="PH-QUE" d="M255.7 223.1h1v2l-1.5-.4.5-1.5Zm6.3-8 4.9 3.6 1.9 2.4-1 .2-5.2-3.4-2.2-2.5.5-1.3zm-4.2-3.1h.7c0 .1-1 1.7-1 1.7l-.5-1.4.7-.3Zm17.5-13.1.9.9-.4.4-3.5.3.9-1.1 2.2-.5Zm-8.3-3.1 1.5-.5.2 1.1 2 .5v2l-4.5-2.4-.4-1.1zm-3.3-1.5 1.8 1.2h-1.8zm-2.2-5.5 2.1.8-.3.7h1.2l.2 1.4-.8-.9h-.6c0 .1-.6 1.1-.6 1.1l.8-.3v1.5l-1.5.4.4 2 1.3 1 .4 2.9-1 1.5-1.9 1.2-1.1-1.5v-1.5l1 .4-.9-2.8-2.2-4.7v.8l-1-.3 1.1-3.2.9.5 2.5-1.1Zm-18.3 1.8v-1.4l1.7-2.5-.5-1.4 1.1-1.3 1.9 1.1.7 3.9 3.2 6.2-.3.8 4 4.1-1.4-.2-1.5 1.1-.5-.6-.5 1 1.7 7.9 2 2.2v1.6l1 .9-.7 2.5 6.3 5.4 4.6 2 4 .8.4-1.5-1.3-.5-.5-1.1 3.5 1.1-.2-1 .9-.9h-1v-.6l-2.9-1.7-.8-1.5v-.6l.7.6-.2-.7 1-.9.9.4v-2c.1 0 .9.2.9.2l-.3 3.4 1.3-.4-.3 1.7v.5h2l2.3-2.6 10.5 4.1-7.3 2-.6-.3v1.2h-2.3l2.2 3.4-.5 1.4.4 1.2h-1l-.3.6.5 2 1.5 1.9 2.7 1.7-.5.5-1.6-1.5 3.4 5.6v3.2l.8 1.5-3.1 1.9-2.8-2.5.6-1.2-.2-2.1-3.5-5.4-2.1-1.1-.3-.9-1.2.5-.6-.2.5-.4-.4-.4h-1.7c0 .1-.2-1-.2-1l-3.1-4.5-1.3.3-.8-1h-1.4l-.3-1-2.4-.7-.6-1H258c0 .1-.3-1.4-.3-1.4h-1l-1-.8-1.6.2.3 1.2-2.5.4-.3.6-.4-.4-4.4 2.5-2.6-1.5-2.9-.2-1-1.5.8-.5v-.8h-.1l2.1-.7 3-2.4 1.8-.3.9-2.2 1.3-.7 2-2.8-.2-4.1-1.9-.5-2.7-5.1-3.6-6.3-.2-3.4v-3.2Z"/><path id="PH-QUI" d="m245.3 139.6 4.5.4 5.9 7.5 9.8-4.5h1.5c0 .1-2 1.4-2 1.4l-6.9 8.1-11 9.7-4.4-3.8-.9-7.5 4.3-1.8.4-2.8-2.2-.7.9-5.9Z"/><path id="PH-RIZ" d="M240.3 211.2v1.2l-.7-1.9.2-2.2.5 2.3.7.3zm3.1-17.3.2 3.4 3.6 6.3-2.8 1.8-.5 1.9.2 2.8.6.7-2.4 1.7.9-3.7-.4-1.6-2.2-1.7-1 1.3v1.9c-.1 0-1.7-3.1-1.7-3.1l-1.8-.5v-3c-.1 0 .8-1 .8-1l-.8-.5.8-2-.5-.6 2.1-2.1 2.3-.5 2.6-1.6Z"/><path id="PH-ROM" d="m261.1 279.6.8 1-.2 1.1-1.3-.9.8-1.1Zm18.3-12.5 3.3.7 1.3 2.5-.5 2.2-1.4 1.9-2.2-1.4-.6-1.5-2.7-1.1-.8-1.1 1.1-1.6 2.6-.6Zm-7.9-3.6 1.3 2.6v1.1l-.8.8-1.6-1.6.4-.4-.5-.9h.7c0-.1.5-1.6.5-1.6m-5-1.5 1.1.5.3.9h-1l-.2.4.5 2.5-.8 1.2-.7 5.7-1.4 2.6v1.1l.8.3-1.3.7-.3 1.8-1.7-2.8.3-1.5.6 1.5.9-1.3-1.5-.7-.7-1.2-.5.3-.2-1 .6-2.3 1.4-.5.6-1.1v-4.7c-.1 0 2.1-.8 2.1-.8l1.2-1.6Zm-.9-5-.7 1.6h-.9zm-11.5-3.4 1 .6-.6 1-1.1-1zm11.4-.4h.5c0 .1-.3 1.3-.3 1.3l-.9.4-.8-1.4z"/><path id="PH-WSA" d="m348 291.9 1.7.4-.3 1.7-1.4-.2-.4-2.4.3.5Zm-3-1 .7 1.5.8-.4-.4.7 1.2.7-.3 1.4h1.6l-.8 2.2-1-.6.4-.5-1.2-.2v-1h.7l-2.1-1.9V291h.4Zm.6-.4.8.4-.4.8-.4-1.3Zm-3.3-5.5.7.3-.2.6zm-5.8-.2.5 1.2h-1.5l.2-1zm-3.5-1 .2.7-.8 1.1h-1v-.8l1.6-.9Zm2.7-.9v1c.1 0-.6-.3-.6-.3zm-5.9-2.8.4.7-.7-.3-1.2 1.1-.9-.5.7-.9 1.7-.2Zm3.9-6.2h2.1l1.7-1.6 4.7 2.8 2.2-1.5 3.9 2.2-.4 1.3.8 1.1 1.5-3.5 2 .7 5.4-1.8-.2 3-1 .6v5.2h2.9l1.9 4.3.4 5.4-1.8 1.3-.4 1.1.7 4.7 2.3 1.4-1.7 2.5v6.1h.1l-.5 1-.8-.4-1.8-5.4-2.4-.3-1.9.6-.8-.5-.2-1.2.7-.9-1.1-3.1-1.7-.5-.4-1.2v1.4h-1.4l-.6-.8 1.1-2 .4.6.7-.2-.4-1.2 2.5-.2-.2-.4.9-.6-.3-1.7 1.6-1.3.2-1.4-1.2-.6-2.6 1.2-.7-.4-.8-1.8-2.5-1.5.8-.8-.3-.5-1.6.3.2-.9.8-.3-1.7-.3v-1l-2.3-2.2-3.3-.3-4.1-4.1-1-2.7Z"/><path id="PH-SAR" d="m365 480.7.9.5-.2 1.6h-2.1l-.6-.7 2.1-1.4Zm2.4-1.8.6.8-.9 2.4-.6-1.4.7-.6-.5-.3h.8l-.1-.8Zm-32.5-21.5 11.9 6.1 6.7.2 1.1-1.6v2.9l1.5.1-.8 2.9h-4.5l-9.6-3.8-.8-.9-1.8-.2-5-2.9zm23.3-7.7 2.3 1.2 2.1-1 1-1.5 2.2.6 1.8 2.7.2 1.7-1 1.1 1.4 2.1.2 2.9.8.9-1.7 6 .2 1.7-2.8 5.9-2.6 1.9.4.6-.8-.4.4-1.4-.7-1.8-1.5-.8-.6-1.5-1-.2-.3-.9.2-1.1.8.4.2-1.8 1.7-.9.6-1.8-.6-3.2-1-.4-.2-2.3 1.1-3-5.9-2.1 1.2-2.4h.8l.9-1.4Z"/><path id="PH-SIG" d="m311.2 364.5.9.2 1.6 2.2-.9 1 1.4 1.3-.6.7h-1.2c0-.1-1.6.8-1.6.8l-4.1-3 .5-.9h2.7l1-.8.4-1.5Z"/><path id="PH-SOR" d="M321.5 248.8h.7l3.4 3.2 1.4-2.2 1.9.6v1.1l-.7.5-.5-.5-.5 2.6-.8.7.9.4.3 2.7-.6 4.3-1.2 1.1.5 1.3-.7.4.4.5-.6.9-2.7-.3-1.6-1.7v-.8l-.6.3-1.3-1.2-1.4-5.3.9-1.4 2.3.9.4-1h2.1l.7-1.6-.6-1.3-1.7.5-2.5-.7-.9 2.4-.5-.2-.2.9-.4-.4-.6.8-1-.7-.9 1.3v-1.6l-1.3 1-.3-1.8-1 .8v.8c.1 0-2.7-2.3-2.7-2.3l-.9.2-1.5-1.6 2.8-1.3 1.6.6 3.2-.4 1 1.2 2.7-1.7h1.4l1.1-2.4.3.3Z"/><path id="PH-SCO" d="m334.9 457.4-2.4-.8-1.1-2.6 7.9-.2 1.5.6 1.5-2.5-1.3-3.4 1.2-3.2.4-.2.5.9 2.3-2.2 2.5 4.2h10.9c0-.1-.8 1.9-.8 1.9l-.9 1.4h-.8l-1.2 2.4 5.9 2.1-1.1 3 .2 2.3-2.3-.2-1.9 4.5h-1.5v-3.1l-1.1 1.6-6.7-.2-11.9-6.1Z"/><path id="PH-SLE" d="m357.5 324.5 1.3 1.4-.8 1.3.8 1.8-.4 1.4 1.1 1.3.8-.3.6.7.3 2.2-.4 1.2-1 .4-2.6-.9v3.5l2.4 1 2 4.1.3 2.4h-1.1l-2.1-3.7-1.5-.7-.4-3.5-1.2-1.2-2.3-4.9-1.2.2.3 4.8 1.4 3.8v2.5c.1 0-3.6-2.6-3.6-2.6l-.5-1-3.4-.4-.5-1.8.5.2 2.2-2.1 1.6-.3-.2-4.2 1.4-3.6h3.4l2.9-3Z"/><path id="PH-SUK" d="M324.3 441.3h6.7l.5.8h6.9l2.1-2.2-.7-2 3.1-.7 1.1.5-.9 2.5h2.4l1.6 4 2.6-.2 3.5-1.9 3.5-1.1.9.7-.6.3v1.3l1.5 1.8.5 2.6h-10.9c0 .1-2.5-4-2.5-4l-2.3 2.2-.5-.9-.4.2-1.2 3.2 1.3 3.4-1.5 2.5-1.5-.6-7.9.2 1.1 2.6 2.4.8-1.3 2.8h-.8c0 .1-4.2-2.7-4.2-2.7l-.5-1.9-1.8-1.4-.8-2-.7.3-1.1-4.4 1.3-.6-.8-.3.5-2.2-1.1-2.7.8-1Z"/><path id="PH-SLU" d="m227.6 478.3.5 1-.8.7.3-1.8Zm-.6 1.2-.8-.2 1-1.1zm-.2-2.8.5.4-.3 1-1.2.7-.4-.9.6-1 .9-.2Zm1.7-.5 1.6 1.4-1.4 1.5-1.3-1.7 1.1-1.3Zm6.7-2.9-1 .8-.8-.7h1.8Zm-6.2-.5.7.3-.8.8H227l.4-1.1h1.7Zm1.5-1.7.4 1.2-1.3.7v-1.4l.9-.4Zm6.9-2.8 1.3.5.5 1-2 .4zm-36.3-1.1.7.7-1.3-.3zm1.8-1.6v.9l-.6-.3zm47.7-1.1.3.7-.8.6-.4-.7.8-.6Zm-43.9.6-1-.6.3-.5.7 1Zm43-2.1-1.1.9.6-1.3.4.3Zm-4.2-.8.3 1.1h-1.2l-.2-.6zm7.8 0 1.6.7-1.8 1.3-.5-.3 1-.9zm-17-1.1 1.3.4 1.6 2.4 2.2-.7 1.1.5 2.3-.3 1 1.5-1.1.6v1.1l-1-.4-2 1.8v-.6c-.1 0-1.5-.5-1.5-.5v-1.3l-1.2-.5-3.6 2.3-1.5-1.6-2.5 1.2-1.8-.9-.2-1 1.4-2.2 2.3-.8.6-1h2.8Zm19.8-.1 2.8 2.2 2.6-1-2.8 1.6-2.4-1.7-.6-.7.4-.5Zm-37-1.5.6.5-.4.5zm39.1-.1.3.8h-1zm-41.5-.8v1.2c-.1 0-1.3-.6-1.3-.6zm40.8-.1.4.8-.8.6-.3-.7zm-25.5-.9.8.4-.2.5h-.7v-.9Zm-9.4-3.4.2 1.3-.9.9-.4-.5 1-1.6Zm6.3-.7.4.7-1 .3zm-8-1.5-.5 4.3h-3v-.6l1.2.2 1.1-3.2 1.2-.6Zm3.4-1.3v1.2l-1.2-.2z"/><path id="PH-SUN" d="m371.9 351.6 1.1.2-.2 1.8-.7-1.4-.6.2.3-.7Zm12.1-.2h1.2v.7h-1.1c0-.1-.8.8-.8.8v-.6l-1.1.4.2-1.4.8.9.7-.8Zm-2.7-.8v.7c-.1 0 .6-.4.6-.4l.3.5-.3 1.2.9.8-.8 2.9-.7.2-1.5-1.6.7-.4v-.8h.5l-.4-3h.9Zm-9-1 .7 1.1-1.3-.5.6-.7Zm2.3 0 .7.3-.4.9-.8-.4v-.8zm-6.6 0 .3.9 2.1.2-.3.5.7.6.6 2.7 1.4 1 2.6.2v.8l3.2.7.9 1.3h1.3c0 .1-5.1 5.3-5.1 5.3l-.2-2-1.6-1.3-3.8-.7-3.3.6-1.9-6.5.3-3.4 1.2-.8v-.9l.6.4-.3.6h1.4Zm4.2-3.5v1.1l.2.3.5.4h.9l-2.9 1.3.2-.8-.5.3v-.6l1.7-2.1Zm-3.7-.1 1.1 1.5-1.3-.7.2-.7Zm13.7-.2-1.9 1.2 2-1.9v.7Zm2.7-4.4 1.8 5.6-.7.6 1.3.4.2 1.2h.6l-1.6 1.8-1.9-.2-3.1-2.5.3-.6h1l-1-.8 3.1-5.6Z"/><path id="PH-BAS" d="M262.7 454.6v.7l-1-.2.2-.6h.8Zm-11.1-8.8.3-1.6-2.1-1.6 1.7 3.1Zm12.6 8.2-.4-.7-.4.6h.7Zm-1.9-1-.8.3 1.1.4zm5-9.3-.2-1.4h-1.2c0 .1-1-1-1-1l-2.1.5-3.2 2.4-1.6-.7-1.2 2.2 2.6 1.4-.3 1.7 2.6 2.2v.7l2.4-.1 4.3-1.2.9-3.8 2.7-.3.7-1-.6-.6-4.9-.7Z"/><path id="PH-ZAS" d="M290.5 406.2h1.4c0 .1 3.5-2.4 3.5-2.4h2.7l1-7.3 10.5.7.4 5.1 2.2.4v.5l1 1.8-1.5 3.8-1.7-.7-4.3 1.1v1.4l1.7 1.2v1.8c-.1 0-.6 1.2-.6 1.2l-2.4.7v1.5c.1 0-.9-.7-.9-.7l-.6.8 1.3.6.4 2.3.5-.3 1.2 1-.4.7.5 1.1-1.1.5-3.9-3.3.5-1.9-2.3-.3-1.3 1 .5.6-.6.6-.2-.9-1.6-.6-.4-1.4.8-.6-1-.7h.7l.5.8 1.8-.4-.6-1.5-1.5-.7.3-1.5-.7-.6-.5.9-.4-3.2-5.1-.6v-2.6Z"/></g></svg>