<?xml version="1.0" encoding="UTF-8"?>
<svg id="Layer_1" xmlns="http://www.w3.org/2000/svg" xmlns:amcharts="http://amcharts.com/ammap" version="1.1" viewBox="0 0 512 512">
  <!-- Generator: Adobe Illustrator 29.1.0, SVG Export Plug-In . SVG Version: 2.1.0 Build 142)  -->
  <g id="_x3C_defs">
    <amcharts:ammap bottomLatitude="16.399716" leftLongitude="34.492946" projection="mercator" rightLongitude="55.668143" topLatitude="32.273479"/>
  </g>
  <g>
    <path id="SA-01" d="M318.9,384.2l-6.9,1.8-11.2,1.6-40.3,3.5-8.3-1-3.6-1.6-5.8-3.8h0l-9.3-8.3-2.7-4.4-1.9-2,.7-5.3,2.3-4.2v-2c0,0-3.1-3.7-3.1-3.7l-2.1-3.4-3.9-3.4h0l-6.6-10.2,1.2-5.8-.4-4.8,1.6-2.3.5-1.6-1.2-9,.4-5.3-4.4-1-3.9,1-2.5-.9-.9-1.6.8-5.7-1.3-1.3-2.1-.6-9.7-.4-2.1-1.1-3.5-7.7-.6-3.9-1.4-3.2-.8-3.3-2.9-2.3v-4.6h0v-6.2s.9-3.3.9-3.3l-.6-2.5,2-2.9.3-2.2h0l2.1-3.5,1.5-1.1,7.2,2.4,3.9.3,3.9-.6,3.9.6,1.7-1.2.6-1.5-1.3-2.6v-1.6c.1,0,3.8-4.6,3.8-4.6l2.2-1.7,8.8-2.2,1.9-1.9,2.1-1.2,1.6-3.1,1.4-1.4,2.1-.6,5.7.7,8.7-.3.6-2.7-.2-2.2-1.7-3.3.6-2.6-4.6-7-2.5-2.4-.3-1,.6-3.9-.3-3.5,2.7-.8,3.1-4,1.7-1.4,2.9-1.3.4-1v-1.7c-.1,0-1-1.7-1-1.7l-2.5-2-1.6-.6h0l-.4-2.4.7-2.1,1.7-2.3,2.2-1.1h0l1.3,1.5,1,.4,1.2-.6.9-1.5h0l3.7,3.1,1,3.5.8,1,7.1,4.2,3.9.7,2.4,2.9,2.8,2.3,7.5,1.1,8.5,5.6,5.7-.5,4.4,4.2,1,1.7,8.7,3.6.7,1.8.3,3.4.3,15.5-.4,10.3.7,7.6,2.3,2.5,6.5,4.3,6.3,6.3,3.2,5.4.9,4.7v5.3s-13.4,104.7-13.4,104.7Z"/>
    <path id="SA-02" d="M104.3,286h0s0,0,0,0ZM182.9,272.5v4.6c0,0,2.8,2.3,2.8,2.3l.8,3.3,1.4,3.2.6,3.9,3.5,7.7,2.1,1.1,9.7.4,2.1.6,1.3,1.3-.8,5.7.9,1.6,2.5.9,3.9-1,4.4,1-.4,5.3,1.2,9-.5,1.6-1.6,2.4.4,4.8-1.2,5.8,6.6,10.2h0l-2.8,1-3.9,2.6-3.6-.9-1.5.2-2.2,1-3.1.2-2.9,2.6-4.4,2.1-6.9,6.3-1.6.8-1.6-.2-1-.7-3.2-6.2h0l-1.4-1.3-1-.2-3.7,1.9h-2.9c0-.1-3.2,1.1-3.2,1.1l-1.3-1-.9-2.6-.8-1-1-.4-1.5.2-1.4,2.4.7,4.7-2.8,5.6-5.3,1.3-2.7,2.8.6,1.5,2.5.7.7,1,.2,9.3.9,1.1,2.5,1.5,1.4,2.1,1.1.7h1.8l1.5-.7,1.8-6.2,1.6-3.1,4.7-.8h0l1-.5h1.6c0,0,1.3,1.4,1.3,1.4l-.8,5.8,1.5,3-.9,3.2-.5,1-1,.5h-4.8s-2.7,1.9-2.7,1.9h-.5s-1.4-1.2-1.4-1.2l-.3,6.9,1.1,3,5.6.5,1.4.8,2,6.3-1,4.4h0l-.7,1.3-2.4,1.4-1.4,2.2h0l-1.3-3.1h-.9s.2-.8.2-.8l-1-1.8-.9-4.3-1.4-1.6h-1.5c0,0-.7-.6-.7-.6v-1.1c-.1,0-1.3-1.5-1.3-1.5l.8-3.4-1.9-.9-.8-1.9.9-2.1v-1.2c-.1,0-2.2-.9-2.2-.9l-.8-1.8v-2s-1-1.3-1-1.3l-1.1-.6.2-3.6-4.3-2.7-.2-.7.7.6.2-1.4-.8-2.2-1-1.1-2.1.2.7,1.1-.9-.6-.3-1-1-.5-.2-1.4-.9-.4v-1.6s-3.9-2.7-3.9-2.7l-2-.7-1.3-1.4v-.9c0,0-1.5,0-1.5,0l-1.3-2.1-1.1-.4-1.8.6-1.4-1.1h-.8c0,.1-4.1-2.4-4.1-2.4l-1.2-1.3.4-.4-.7-.5v-.7c.1,0-.5.2-.5.2l-1.2-1.4.8.2-.3-.8h-.7c0,0-1-1.3-1-1.3l-1.1-2.1.2-1-.9-.3.2.8-.4-.2-.5-1.5.6.3v-.6c0,0-.8,0-.8,0l-1.4-1.2.2-.9-1.5-.6-1.6-3.8-1.1-.7-.6-2.9-1.4-2.2v-.5c0,0,1.6-.9,1.6-.9l.5-1.3-.8-.7v-1.1c0,0,.5,0,.5,0l-.5-1.2-.6.2-.5-.5-.6-4.2-1-2.1-2.2-2.9-.3-2.6,1.3-.7-.7,1.3.4.4.3-.6h.5c0,.1.1-1.8.1-1.8h.8c0,0,.2-2,.2-2l-.6,1.5-.4-.2.5-1.3-.2-1,1.5-2.9v-1.2s.9-.6.9-.6l.2-.9h-.8s-.1.6-.1.6l-.7-.5.3-3.9-2.4-4.4.6-.6-.9.2-2.9-4.9.9.3.8,1.9h.8c0,.1.3-.3.3-.3l-1.1-1.5v-1h-2.2s-1-1.5-1-1.5l.5-1.1-.5-2.6-.2-.5-.5.5-1.2-1.7-1.1-2.8v-1.8h0l6.2-.7,1.5,2.3,5.1,5,4.4-.6,1.1.3.3,2.6.5.4,7.2-2.2,3.3-.2.7,1,.2,2.2-1.8,5.3,3.1,1.3,1.4,1.3.3,1.6-.6,2.7.4,1.1,3.3.4,1.6-.8,3.2-2.8,5.8,1.5,3.1-4.6,6.4-4.9,3.5-3.6,1.7-1.2,3.9-1.6.4-.5-.3-1.1-3.7-2-.7-1.5,2.5-2,8.1-4,1.2-2.6v-2.2c-.1,0-.9-1.7-.9-1.7l.4-1.6,2.2-.7,3.4.5Z"/>
    <path id="SA-03" d="M95.5,272.9l-.6-.4-.2.4-.5-.2-1-1,.3-.6-.7.3-1.8-2.1h-1.2c0,0-2.5-1.9-2.5-1.9l.4-.3-.4-.2.4-1.2-1,.5v1.1s-1.1-.1-1.1-.1l-1.9-1.4-.8-1.4-1.3-.5v-.6c0,0-1.8.2-1.8.2v1.3c0,0-2.2-.6-2.2-.6l-2.3-2.6.2-1.2.5.3.2-.8-1.8-2.6h0l1-3.2,3.9-.3,1.6-.6,1.7-2.2h2.6s1.8,0,1.8,0l1.1-.6.6-1.1v-10.3c0,0,.7-5.3.7-5.3l-.8-1-2.7-.3-2.5-7-4-3.5-.8-2.7-4.8-2.9h-1c0,.1-1.3,1.3-1.3,1.3l-.7-3.2-1.6-3.3v-1.6h.1l2.2-3.8.2-1.2h0l-.2-.8-1.1-.7-3.3-.9-1.8-2-.5-1.8.6-6.1-.7-2.9-1-.9-3.2.3h0l-.6-.8h0l.7-1,3.2-.8,7.1-3.2,4.3,2.3,1.7.2,6.3-2.9,1.3,1.3.9,3.3,2.4,4,1.6.6,3.7.2.7.8v1.6s2.5,1.7,2.5,1.7v.5h.1l-.3,1.6.6.7h0l3.8-2.6,1.1-.2,4.2,1.7.5-.4-.6-2.1h0l.8-.5h0l.9.8.7,2.1,3.2,1,4.3,3.1h6c0,0,8.2-1.5,8.2-1.5l1.7,2h0l.6,2.9-1.6,3.2v1.1l1.3,1.2,2.2-.6.7.7-1.4,10.3,1.4,6.7-.4,6.9,1.3,2.1,2.1.5,6.4-2.2,5.5-.3,1.7-.8,2.7-3.2,2.2-.9h4.6c0-.1,8.1,1.5,8.1,1.5h0l4.7,1.3.9.8-.2,9.1,1.2,1.4,3.6,1,1,.8,2.2,7.4,2.8,2.3h0l-.3,2.2-2,2.9.6,2.5-1,3.3v6.2h0l-3.5-.6-2.2.7-.4,1.6.8,1.7v2.2c.1,0-1.1,2.6-1.1,2.6l-8.1,4-2.5,2,.7,1.5,3.7,2,.3,1.1-.4.5-3.9,1.6-1.7,1.2-3.5,3.7-6.4,4.9-3.1,4.6-5.8-1.5-3.2,2.8-1.6.8-3.3-.4-.4-1.1.6-2.6-.3-1.6-1.4-1.3-3.1-1.3,1.8-5.3-.2-2.2-.7-1-3.3.2-7.2,2.2-.5-.4-.3-2.6-1.1-.3-4.4.6-5.1-5-1.5-2.3-6.2.7h-.1s0,0,0,0h0l-.4-2.2-.9-.9v-.7c.1,0-1,0-1,0l.2,1.1-.6-.3-.2-2.3-1-.8-.7-3-4.3-3.9Z"/>
    <path id="SA-04" d="M379.4,230.4l.8.4.2,1.4-1.1-1.8ZM373.6,203.7l.6.5v1.1s-1.5-.9-1.5-.9l.9-.7ZM361.1,183.7l4,1.5h-1.6c0-.1-1.6.4-1.6.4v-.9c0,0-.9-.4-.9-.4l-1.5,1.9.2-1.6,1.4-.8ZM374.5,206.7l.3.7.6-1v1.6s.5.3.5.3l.8-1.2v-1.5s.3,1,.3,1l.3-.4v.8s-1,1.2-1,1.2l1.1,1,.4,1.1v3.3c0,0-1.1,1.8-1.1,1.8l-.5-1.4.2,1.9-.4,2.3-.5.3-1.8-4.1-.9-.2-.8,1.9.6.9-.3,2.5,1-.5,1.5.6.7,1.5-.7.8.9,2,3,3.9-.2.6-.6-.9-1-.2-1.4-1.3.5,1.2.8.9.3-.5.3,1.4,1.3,1.8.9.3v.8s1.4,1.7,1.4,1.7l.2-.7-.5-.6.5-.4.4,1.1,2.2,1.7.9,2.8-.2,1.7.9,1.4v3.6c.1,0,.7.3.7.3v-1c-.1,0,1.6,2.4,1.6,2.4l.7,2.3,1,.5,1,4.5.4-1.3,1.1-.2.6,1.8,2.5,3,3.1.5,1.7-.7,1.1-1.2h1.5s.3.7.3.7l.5-.2-.5.9v1.7c0,0,1.1-.6,1.1-.6l.3-1,1.1-.9v-.7c0,0,.5.4.5.4l.4-.3.3,1.1.7-.4.5.5-1.9,1-.3,1-2.1,1.7-.4,2.1h-.4c0,0,0,1.3,0,1.3l1.5.3.6-.8h1.4c0-.1,1.1.3,1.1.3l1,1.5h1.1s.5.8.5.8l-.3,2.9,23.5,28.5,16.3,3.3,40.9,9.4,4.8-5.1,10.7,17.8-15.7,50.2-70.9,24.9-27.4,5.4-39.7,4.3-22,10.7-14.3,17.5-3.3,8.4-1,.6h0l7.3-60.3h0l13.4-104.7v-5.3s-.9-4.7-.9-4.7l-3.2-5.4-6.3-6.3-6.5-4.3-2.3-2.5-.7-7.6.4-10.3-.3-15.5-.3-3.4-.7-1.8-8.7-3.6-1-1.7-4.4-4.2-5.7.5-8.5-5.6-7.5-1.1-2.8-2.3-2.4-2.9-3.9-.7-7.1-4.2-.8-1-1-3.5-3.7-3.1h0l-1.3-2.3.9-3.2,6.3-8.3,8.7-16.2,5.7-6,8.5-3h3.5c0,0,4.6-2.9,4.6-2.9l21.5,2.8,2.9,4.1.6,4.9,2.4,3.2v.5c-.1,0,17-.3,17-.3l1.7,1.1v1.5s1,.8,1,.8l-.7,2.1.7,1.4,2.2,2.2-.5.4v2.5c.1,0,1.5,1.6,1.5,1.6l2.7.7-1.1.6v.7c0,0,1.1,1.2,1.1,1.2h.7c0,0,0,1,0,1l1.4.9v2.1s-.6.4-.6.4l-.2-2-.5.7-.2-1-.9,3h.4c0,0,.3-.8.3-.8l.2,1.6.4-.7v1.3c0,0,.8-.2.8-.2l-.8,1.5.8.4.5-.9h.4c0,.1-.3,1.7-.3,1.7l.6-.3v-.7c0,0,1-.5,1-.5l1.4,1.3,1.8.8h2.5s1.2.5,1.2.5l1.2,1.3v1.2c.1,0-.3-.9-.3-.9l-.5.8-.4-.4-.5.5-1.2-.5-1.3.9,1.7,1,.7-.2v-.7s.9.5.9.5l-.9.6-.2,1.5,1.2-.7,1.1.4v2.5s.5.8.5.8l1.8.2-.3,1.3h-.7c0,.1.2.5.2.5l.5-.2.4.7.5-1.2.2,1,.8-.5,1,.3-.6-1.2.5-1.1-1.3-.8.5-.9.4-.3.3,1.1h.8s.2,1.1.2,1.1l-.5.2.7.7.6-.5-.3,1,.4,1.3.8.8,1.6-1,.7.3-2.3.9.7.8,1-.2-.5,1.3,2.3,2,2.4,1.2,2,.2,5.1,5.7-1.3-1.1-1.2-.3-.7.5-.9-1.9-.3,1.5v.7c.1,0,.7.1.7.1v2.6s1.6,2.9,1.6,2.9l.3-.9Z"/>
    <path id="SA-05" d="M169.3,231.4l.8-.9,3.4-.5,4.1-2.4,4.1-.5.6-.4-1.6-3.8.2-1.7,1.5-1.2,4.4,1.1.3-.5-.6-4.3,1.3-3.3,3.9-.5.6-2.9,3.3-3.3,8.1-6.3,7.8-3.6,1.9-4,1.9-1.9,9.9-5.1,2.8-.9,1.6.6,3,3.1,4.1,2.8,5.1.4,3.5-4h0l1.6.6,2.5,2,.9,1.7v1.7c.1,0-.3,1-.3,1l-2.9,1.3-1.7,1.4-3.1,4-2.7.8.3,3.5-.6,3.9.3,1,2.5,2.4,4.6,7-.6,2.6,1.7,3.3.2,2.2-.6,2.7-8.7.3-5.7-.7-2.1.6-1.4,1.4-1.6,3.1-2.1,1.2-1.9,1.9-8.8,2.2-2.2,1.7-3.7,4.6v1.6c-.1,0,1.2,2.6,1.2,2.6l-.6,1.5-1.7,1.2-3.9-.6-3.9.6-3.9-.3-7.2-2.4-1.5,1.1-2.1,3.5h0l-2.8-2.3-2.2-7.4-1-.8-3.6-1-1.2-1.4.2-9.1-.9-.8-4.7-1.3Z"/>
    <path id="SA-06" d="M131.7,202.1l1.4-1.6,1.6-5.3,2.1-2.6h0l3-2.8.2-1.7h0l-2.8-2h0l-2.6-1.5-1-2.7h0l-2.6-9.9-1-1.1-2.2-1-.9-1.7-2.1-.7-.9-1.1h0l-2-1.6-3.4-.9h0l-5.5-1-.8-.9h0l2.5-2.9,4.3-2.4,6.8-3,2.9-.5,9-5.2,8.8-3.8,2.1.5h0l4.6,1.6,14.4-3.3,8.3,2.4,6.3-1.2,9.9,2.4,4.5,4.9,1.7,1h2.7c0-.1,3.2-1.8,3.2-1.8l1.8-.3.5.5.6,4.3,1.6,1.2,4.4-.2,4.1,2.1,1.7-.6,3.5-2.3h1.1c0-.1,1.8,1.8,1.8,1.8l3.6,6.6,1.9,5.3,1.4,1.7,1.7,1,6.8.9,2.2.9,5.3,4.4.7,1.3h0l-2.2,1.1-1.7,2.3-.7,2.1.4,2.4h0l-3.5,4-5.1-.4-4.1-2.8-3-3.1-1.6-.6-2.8.9-9.9,5.1-1.9,1.9-1.9,4-7.8,3.6-8.1,6.3-3.3,3.3-.6,2.9-3.9.5-1.3,3.3.6,4.3-.3.5-4.4-1.1-1.5,1.2-.2,1.7,1.6,3.8-.6.4-4.1.5-4.1,2.4-3.4.5-.8.9h0l-8.1-1.6h-4.6c0,.1-2.2,1-2.2,1l-2.7,3.2-1.7.8-5.5.3-6.4,2.2-2.1-.5-1.3-2.1.3-6.9-1.4-6.7,1.4-10.3-.8-.7-2.2.6-1.3-1.2v-1.1l1.6-3.2-.6-2.9Z"/>
    <path id="SA-07" d="M66.9,245.7l.8,1-1-.5.2-.6ZM61.5,233.9l.9.3.7,1.8h-.5v-.8c0,0-1.3-.8-1.3-.8l.2-.5ZM64.6,233l.7,1h.4c0-.1-.2.4-.2.4l-1-.3v-1.1ZM64.1,232l.6.6h-.9c0,0,.3-.6.3-.6ZM61.6,230.5l.4.6-.6.4-.3-.5.5-.6ZM63,230.2l.6,1.6-.7-.6v-1ZM53.5,228.1l1,1.1h-1.1c0,0-.4-.6-.4-.6l.5-.5ZM55.3,226.8l-1-.5v-1.1s.5.9.5.9h.5c0-.1,0,.7,0,.7ZM10.7,167.7h.6c0,.1.4,1.2.4,1.2l-.7.3-.5-1-.8.5.2-.6.8-.3ZM7,166.2l.3.5-.9.3.5.7,1.3-.2v.6c0,0,.7.7.7.7l-1.6.2-1.1-.9-.2-1.5,1-.4ZM14,143l3.3-.3,6.6.9,1.6-1.5,2.2-.6,8-1.1,4.1.2,3.5,1.1,1.7,1.3,6.4,8.3,1.2.4,9.6-2.4,3.5.5,3.2,1.2,5.9.5,1.1-.4,2.6-5.2,3.6-2.7,1.1.7.3,1.1v7.9c0,0,.8,2.9.8,2.9h0l2.4,2.4,1.7.8h0l2.3.8,6.9.8,2.2-1.2,1.6,1.2h1.6c0,0,.5,1.6.5,1.6l.9.7h1.2c0,0,2.4-1.4,2.4-1.4h0l2.3-.7,2.1,1.2h0l.8.9,5.5,1h0l3.4.9,2,1.6h0l.9,1.1,2.1.7.9,1.7,2.2,1,1,1.1,2.6,9.9h0l1,2.7,2.6,1.5h0l2.8,2h0l-.2,1.7-3,2.8h0l-2.1,2.6-1.6,5.3-1.4,1.6h0l-1.7-2-8.2,1.4h-6c0,0-4.3-3-4.3-3l-3.2-1-.7-2.1-.9-.8h0l-.8.5h0l.6,2.1-.5.4-4.2-1.7-1.1.2-3.8,2.6h0l-.6-.7.3-1.6h0v-.5c-.1,0-2.7-1.7-2.7-1.7v-1.6s-.7-.8-.7-.8l-3.7-.2-1.6-.6-2.4-4-.9-3.3-1.3-1.3-6.3,2.9-1.7-.2-4.3-2.3-7.1,3.2-3.2.8-.7,1h0l.6.8h0l3.2-.3,1,.9.7,2.9-.6,6.1.5,1.8,1.8,2,3.3.9,1.1.7.2.8h0l-.2,1.2-2.2,3.8h0v1.6c-.1,0,1.5,3.3,1.5,3.3l.7,3.2,1.3-1.2h1c0-.1,4.8,2.8,4.8,2.8l.8,2.7,4,3.5,2.5,7,2.7.3.8,1-.8,5.4v10.3c0,0-.5,1.1-.5,1.1l-1.1.6h-1.8s-2.6,0-2.6,0h0l-1.7,2.2-1.6.6-3.9.3-1,3.2h0l-1-2.5-.6.2-.4-1.1-1.9-1-.3-1.4h.6s0-.8,0-.8l-.6-.2.3.3-.5.4-.9-1.2.5-.4.9.2-.6.3.8.3,1-1.5-.5-1,.9-2.1-1-1.9.5-1-.4-1.8-3.2-3.6-.9-2.4v-1.1c0,0-1.8-1.5-1.8-1.5v-1.2s-.6-.2-.6-.2l-.2-1.4-.7-1.1-1.4-.6-1.5-2.2-.2,1.2-1.4-.7-.8-.6v-.7c.1,0-.5,0-.5,0l-.4-1.3-.7-.2,1.1-1.8.3-2.9-1.2-.8h-1.9c0-.1-1.8-1.6-1.8-1.6l-.7-2.5-2.1-3.4-1.5-3.9-3.9-5.9-1.2-.7-1.3-4.1-5.7-5.7-.3-1.4.7-.7-.2-.8-1.6-2.6-1.8-.9-1.8-2-3.6-8.6-1.9-1v-1.7c-.1,0-1.8-1.4-1.8-1.4l-.4-1.1-2.3-1.2v-.4c-.1,0,1.4-.4,1.4-.4v-.4s-2.8-.6-2.8-.6l-1.2-1.1-1-.3.3.7-.8-.4-1.6.9-1.9.2-.2-.7.7-.4h-1.1c0,0-.5,0-.5,0l-.4.5h-.4c0,0,0,.8,0,.8h-.7s.3-1.2.3-1.2h-.9c0-.1,0-.9,0-.9h-.7c0,.1-.8,1.2-.8,1.2l.4.8-1,1.1-.5-1v-.9c.1,0-.7.2-.7.2l1.4-2.3.7.2-.3-.7.7-2.1,3.1-6.8-.7-3.7,1.3-3.9v-2Z"/>
    <path id="SA-08" d="M282.6,140l-8.5,3-5.7,6-8.7,16.2-6.3,8.3-.9,3.2,1.3,2.3h0l-.9,1.5-1.2.6-1-.4-1.3-1.5h0l-.7-1.3-5.3-4.4-2.2-.9-6.8-.9-1.7-1-1.4-1.7-1.9-5.3-3.6-6.6-1.8-2h-1.1c0,.1-3.5,2.5-3.5,2.5l-1.7.6-4.1-2.1-4.4.2-1.6-1.2-.6-4.3-.5-.5-1.8.3-3.2,1.7h-2.7c0,.1-1.7-.9-1.7-.9l-4.5-4.9-9.9-2.4-6.3,1.2-8.3-2.4-14.4,3.3-4.6-1.6h0l3.9-3.9.9-10.6,1-1.7,4.2-3.2,18.7-11.5,3.6-3.2v-1.1c0,0-5.4-4.3-5.4-4.3l-2.1-4.4-1.4-1.7-2.5-1.1-5.9-.4-5.2-4.2-1.9-.9-4.8.6-12.3-.4-2.5-.8-3.9-2.9h-3c0,0-13-2.4-13-2.4h-5.5c0,0-14.3,2-14.3,2l-3.9-.5-1.5-1.3-2.7-4.8-3.2-2.5-.4-4.6,2.8-9.9h0l24-7.1,7.2-6.3-.3-1.4,2.4,2,12.7,3.7,6.5,3.5,60.8,42.9,45.3,31.3,35.7,6Z"/>
    <path id="SA-09" d="M184.4,457.4l.6.2-.4.8-.5-.5.3-.5ZM184,455.2v.7c0,0-.4.5-.4.5l-.4-.8.8-.5ZM177.2,453.2l1.3.3.8,1.1-2.2-.7-.4-.5.5-.2ZM183.8,450.6l.3.2h-1.1c0,0,.8-.2.8-.2ZM177.5,449.4l2.2,1.3,1,2.1,1.6.5,1.1-.2.7.9,1.1-.3-.2-.6-.7.4-.3-.4.4-1.3,1.1-.3.7,1.7,1.7.8-.5,1.1.3,2-2.7-1.2.8-.4v-.9c0,0-1.3-.3-1.3-.3l-2.1.6-2.1-1.3-1.5-2h-.9s.3-.9.3-.9l-.7-.6v-.7ZM173.1,449.2l1.4,2.1-1.1-.4-.3-1.7ZM181.3,447.8l.8.5-.4.6.4.6.9.3v.6c0,0-1-.2-1-.2l-.5.4,1.5,1.1.3,1-.5-.8-2.1-.7-1.3-1.8v-.7s1.1-.1,1.1-.1l.6-.9ZM175.8,447.7l1,.8-1.2,1-.6-.8.8-1ZM178.3,447.1l.8.4-.3.4-.5-.8ZM181.8,447.2l.3,1-1.4-1.4,1.1.5ZM177.8,414.4l3.1-.3.9.7-.4,6,4,.2,1.8,3.3,5.7.3.9.8,1.1,2.6,3.3,2.6,1.4-.5,1.1-4.6.8-1.4,3.5-2.1.7.8v3c0,0,2.4,1.2,2.4,1.2l1.8,3.2,2.5.8,1.4,2.1h0l.7,1-1.3,2v1.6c0,0,1.9,1.8,1.9,1.8l-3.1,1,.3,1.3-1,.9-.4,1.8,1.9.3.6,1.1-.4.6-1.6-.2.2,1.9-1.1.9,1,1.3,1.1.2.9.9.2,1.5h-1c0,0-.2.6-.2.6l.3,1.8-2.4-.5.3.6-.7,2.6-3,.8-1.1.8.3,1.9h-4.4s.2-1.7.2-1.7l-1.4-2.3.4-2.4-.5-.6v-1s-1.7-2.1-1.7-2.1l-1.4-.3-.3-.9-.8-.3.7-.7-.2-2.2-2.4-1.2-.9-1.3.2-1.3-1.1-.6.6,1.5-.5.5-.2,2v-2.6c-.1,0-1.2-5-1.2-5l-.4-.2.3-2.6-1-.3-1.1-1.7-1.4-1h-.7s-.7-1.6-.7-1.6l-5.5-4.3-2.6-.9v-.5c.1,0-2.5-2.4-2.5-2.4h.5s-.7-.6-.7-.6l.2-.7-.4.5-.3-.2.2-1.2-1-.4-.5-1.2h0l1.4-2.2,2.4-1.4.7-1.4Z"/>
    <path id="SA-10" d="M279.9,440.7l-16.1-1.9-4.3-2.8h-13.5l-2.3.9-1.8-1h-1.9c0,0-6,.8-6,.8l-.6,1-.7-.9-2,.4-.9,1.3-1.8-.5h-2.4c0,0-.5-.5-.5-.5l-1.4.2-1.8-1.9v-.7h0l.8-2.2-.9-4.1,1-6.7-.9-5.3,2.7-3.5,5.6-5.2,2.1-3.8,4.3-1.4,2.5-1.9.8-3-1.2-5.9.5-1.1,2.6-1.3.8-1v-4.2h0l5.8,3.8,3.6,1.6,8.3,1,40.3-3.5,11.2-1.6,6.9-1.8h0l-7.3,60.3h0l-5.1,3.2-4.8-.2-5.6-7.6-7.3,1-8.9-.3Z"/>
    <path id="SA-11" d="M184,356.9l-1.5,4.4,1.6,1.9v1.1c0,0-.6,1-.6,1l-4,2.7-.6,1.2.2,2.4-2.9,6h0l-4.7.8-1.6,3.1-1.8,6.2-1.5.7h-1.8l-1.1-.7-1.4-2.1-2.5-1.5-.9-1.1-.2-9.3-.7-1-2.5-.8-.6-1.4,2.7-2.8,5.3-1.3,2.8-5.6-.7-4.7,1.4-2.4,1.5-.2,1,.4.8,1,.9,2.6,1.3,1,3.2-1.2h2.9c0,.1,3.7-1.7,3.7-1.7l1,.2,1.4,1.3Z"/>
    <path id="SA-12" d="M15,136.8l.8-3,.7-.4-.3-1.3.6-.3.3-1.5,26.2,4.7,10-8.3,6.1-10.1,17.7-3.5,4-9,7.8-4.6-23.5-27.2,23.1-6.8h0l-2.8,9.9.4,4.6,3.2,2.5,2.7,4.8,1.5,1.3,3.9.5,14.3-2h5.5c0,0,13,2.3,13,2.3h3c0,0,3.9,2.9,3.9,2.9l2.5.8,12.3.4,4.8-.6,1.9.9,5.2,4.2,5.9.4,2.5,1.1,1.4,1.7,2.1,4.4,5.3,4.3v1.1c0,0-3.5,3.2-3.5,3.2l-18.7,11.5-4.2,3.2-1,1.7-.9,10.6-3.9,3.9h0l-2.1-.5-8.8,3.8-9,5.2-2.9.5-6.8,3-4.3,2.4-2.5,2.9h0l-2.1-1.2-2.3.7h0l-2.4,1.3h-1.2c0,0-.9-.7-.9-.7l-.5-1.7h-1.6c0,0-1.6-1.1-1.6-1.1l-2.2,1.2-6.9-.8-2.3-.8h0l-1.7-.8-2.4-2.4h0l-.9-2.9v-7.9c0,0-.2-1.1-.2-1.1l-1.1-.6-3.6,2.7-2.6,5.2-1.1.4-5.9-.5-3.2-1.2-3.5-.5-9.6,2.4-1.2-.4-6.4-8.3-1.7-1.3-3.5-1.1h0l-4.1-.2-8,1.1-2.2.6-1.6,1.5-6.6-.9-3.3.3h0l1.1-6.1Z"/>
    <path id="SA-14" d="M213.6,433l-1.4-2.1-2.5-.8-1.8-3.2-2.5-1.2v-3c0,0-.6-.8-.6-.8l-3.5,2.1-.8,1.4-1.1,4.6-1.4.5-3.3-2.6-1.1-2.6-.9-.8-5.7-.3-1.8-3.3-4-.2.4-6-.9-.7-3.1.3h0l1-4.4-2-6.3-1.4-.8-5.6-.5-1.1-3,.3-6.9,1.4,1.3h.5s2.7-2,2.7-2h4.8s1-.5,1-.5l.5-1,.9-3.2-1.5-3,.8-5.8-1.3-1.3h-1.6c0,0-1,.4-1,.4h0l2.9-6-.2-2.4.6-1.2,4-2.7.7-1v-1.1c0,0-1.6-1.9-1.6-1.9l1.5-4.4h0l3.2,6.2,1,.7,1.6.2,1.6-.8,6.9-6.3,4.4-2.1,2.9-2.6,3.1-.2,2.2-1,1.5-.2,3.6.9,3.9-2.6,2.8-1h0l3.9,3.4,2.1,3.4,3.2,3.7v2c0,0-2.3,4.2-2.3,4.2l-.7,5.3,1.9,2,2.7,4.4,9.3,8.3h0v4.2s-.8,1-.8,1l-2.6,1.3-.5,1.1,1.2,5.9-.8,3-2.5,1.9-4.3,1.4-2.1,3.8-5.6,5.2-2.7,3.5.9,5.3-1,6.7.9,4.1-.8,2.2h0v1.2c0,0-5.3-3.9-5.3-3.9l-1.7-.2-1.3.6Z"/>
  </g>
</svg>