<svg xmlns="http://www.w3.org/2000/svg" xmlns:amcharts="http://amcharts.com/ammap" id="Layer_1" viewBox="0 0 512 512"><g id="_x3C_defs"><amcharts:ammap bottomLatitude="16.4" leftLongitude="34.493" projection="mercator" rightLongitude="55.668" topLatitude="32.273"/></g><g><path id="SA-01" d="M318.9 384.2 312 386l-11.2 1.6-40.3 3.5-8.3-1-3.6-1.6-5.8-3.8-9.3-8.3-2.7-4.4-1.9-2 .7-5.3 2.3-4.2v-2l-3.1-3.7-2.1-3.4-3.9-3.4-6.6-10.2 1.2-5.8-.4-4.8 1.6-2.3.5-1.6-1.2-9 .4-5.3-4.4-1-3.9 1-2.5-.9-.9-1.6.8-5.7-1.3-1.3-2.1-.6-9.7-.4-2.1-1.1-3.5-7.7-.6-3.9-1.4-3.2-.8-3.3-2.9-2.3v-10.8l.9-3.3-.6-2.5 2-2.9.3-2.2 2.1-3.5 1.5-1.1 7.2 2.4 3.9.3 3.9-.6 3.9.6 1.7-1.2.6-1.5-1.3-2.6v-1.6c.1 0 3.8-4.6 3.8-4.6l2.2-1.7 8.8-2.2 1.9-1.9 2.1-1.2 1.6-3.1 1.4-1.4 2.1-.6 5.7.7 8.7-.3.6-2.7-.2-2.2-1.7-3.3.6-2.6-4.6-7-2.5-2.4-.3-1 .6-3.9-.3-3.5 2.7-.8 3.1-4 1.7-1.4 2.9-1.3.4-1v-1.7c-.1 0-1-1.7-1-1.7l-2.5-2-1.6-.6-.4-2.4.7-2.1 1.7-2.3 2.2-1.1 1.3 1.5 1 .4 1.2-.6.9-1.5 3.7 3.1 1 3.5.8 1 7.1 4.2 3.9.7 2.4 2.9 2.8 2.3 7.5 1.1 8.5 5.6 5.7-.5 4.4 4.2 1 1.7 8.7 3.6.7 1.8.3 3.4.3 15.5-.4 10.3.7 7.6 2.3 2.5 6.5 4.3 6.3 6.3 3.2 5.4.9 4.7v5.3l-13.4 104.7Z"/><path id="SA-02" d="M182.9 272.5v4.6l2.8 2.3.8 3.3 1.4 3.2.6 3.9 3.5 7.7 2.1 1.1 9.7.4 2.1.6 1.3 1.3-.8 5.7.9 1.6 2.5.9 3.9-1 4.4 1-.4 5.3 1.2 9-.5 1.6-1.6 2.4.4 4.8-1.2 5.8 6.6 10.2-2.8 1-3.9 2.6-3.6-.9-1.5.2-2.2 1-3.1.2-2.9 2.6-4.4 2.1-6.9 6.3-1.6.8-1.6-.2-1-.7-3.2-6.2-1.4-1.3-1-.2-3.7 1.9h-2.9c0-.1-3.2 1.1-3.2 1.1l-1.3-1-.9-2.6-.8-1-1-.4-1.5.2-1.4 2.4.7 4.7-2.8 5.6-5.3 1.3-2.7 2.8.6 1.5 2.5.7.7 1 .2 9.3.9 1.1 2.5 1.5 1.4 2.1 1.1.7h1.8l1.5-.7 1.8-6.2 1.6-3.1 4.7-.8 1-.5h1.6l1.3 1.4-.8 5.8 1.5 3-.9 3.2-.5 1-1 .5h-4.8l-2.7 1.9h-.5l-1.4-1.2-.3 6.9 1.1 3 5.6.5 1.4.8 2 6.3-1 4.4-.7 1.3-2.4 1.4-1.4 2.2-1.3-3.1h-.9l.2-.8-1-1.8-.9-4.3-1.4-1.6h-1.5l-.7-.6v-1.1c-.1 0-1.3-1.5-1.3-1.5l.8-3.4-1.9-.9-.8-1.9.9-2.1v-1.2c-.1 0-2.2-.9-2.2-.9l-.8-1.8v-2l-1-1.3-1.1-.6.2-3.6-4.3-2.7-.2-.7.7.6.2-1.4-.8-2.2-1-1.1-2.1.2.7 1.1-.9-.6-.3-1-1-.5-.2-1.4-.9-.4v-1.6l-3.9-2.7-2-.7-1.3-1.4v-.9h-1.5l-1.3-2.1-1.1-.4-1.8.6-1.4-1.1h-.8c0 .1-4.1-2.4-4.1-2.4l-1.2-1.3.4-.4-.7-.5v-.7c.1 0-.5.2-.5.2l-1.2-1.4.8.2-.3-.8h-.7l-1-1.3-1.1-2.1.2-1-.9-.3.2.8-.4-.2-.5-1.5.6.3v-.6h-.8l-1.4-1.2.2-.9-1.5-.6-1.6-3.8-1.1-.7-.6-2.9-1.4-2.2v-.5l1.6-.9.5-1.3-.8-.7v-1.1h.5l-.5-1.2-.6.2-.5-.5-.6-4.2-1-2.1-2.2-2.9-.3-2.6 1.3-.7-.7 1.3.4.4.3-.6h.5c0 .1.1-1.8.1-1.8h.8l.2-2-.6 1.5-.4-.2.5-1.3-.2-1 1.5-2.9V313l.9-.6.2-.9h-.8l-.1.6-.7-.5.3-3.9-2.4-4.4.6-.6-.9.2-2.9-4.9.9.3.8 1.9h.8c0 .1.3-.3.3-.3l-1.1-1.5v-1h-2.2l-1-1.5.5-1.1-.5-2.6-.2-.5-.5.5-1.2-1.7-1.1-2.8v-1.8l6.2-.7 1.5 2.3 5.1 5 4.4-.6 1.1.3.3 2.6.5.4 7.2-2.2 3.3-.2.7 1 .2 2.2-1.8 5.3 3.1 1.3 1.4 1.3.3 1.6-.6 2.7.4 1.1 3.3.4 1.6-.8 3.2-2.8 5.8 1.5 3.1-4.6 6.4-4.9 3.5-3.6 1.7-1.2 3.9-1.6.4-.5-.3-1.1-3.7-2-.7-1.5 2.5-2 8.1-4 1.2-2.6v-2.2c-.1 0-.9-1.7-.9-1.7l.4-1.6 2.2-.7 3.4.5Z"/><path id="SA-03" d="m95.5 272.9-.6-.4-.2.4-.5-.2-1-1 .3-.6-.7.3-1.8-2.1h-1.2l-2.5-1.9.4-.3-.4-.2.4-1.2-1 .5v1.1l-1.1-.1-1.9-1.4-.8-1.4-1.3-.5v-.6l-1.8.2v1.3l-2.2-.6-2.3-2.6.2-1.2.5.3.2-.8-1.8-2.6 1-3.2 3.9-.3 1.6-.6 1.7-2.2H87l1.1-.6.6-1.1V239l.7-5.3-.8-1-2.7-.3-2.5-7-4-3.5-.8-2.7-4.8-2.9h-1c0 .1-1.3 1.3-1.3 1.3l-.7-3.2-1.6-3.3v-1.6h.1l2.2-3.8.2-1.2-.2-.8-1.1-.7-3.3-.9-1.8-2-.5-1.8.6-6.1-.7-2.9-1-.9-3.2.3-.6-.8.7-1 3.2-.8 7.1-3.2 4.3 2.3 1.7.2 6.3-2.9 1.3 1.3.9 3.3 2.4 4 1.6.6 3.7.2.7.8v1.6l2.5 1.7v.5h.1l-.3 1.6.6.7 3.8-2.6 1.1-.2 4.2 1.7.5-.4-.6-2.1.8-.5.9.8.7 2.1 3.2 1 4.3 3.1h6l8.2-1.5 1.7 2 .6 2.9-1.6 3.2v1.1l1.3 1.2 2.2-.6.7.7-1.4 10.3 1.4 6.7-.4 6.9 1.3 2.1 2.1.5 6.4-2.2 5.5-.3 1.7-.8 2.7-3.2 2.2-.9h4.6c0-.1 8.1 1.5 8.1 1.5l4.7 1.3.9.8-.2 9.1 1.2 1.4 3.6 1 1 .8 2.2 7.4 2.8 2.3-.3 2.2-2 2.9.6 2.5-1 3.3v6.2l-3.5-.6-2.2.7-.4 1.6.8 1.7v2.2c.1 0-1.1 2.6-1.1 2.6l-8.1 4-2.5 2 .7 1.5 3.7 2 .3 1.1-.4.5-3.9 1.6-1.7 1.2-3.5 3.7-6.4 4.9-3.1 4.6-5.8-1.5-3.2 2.8-1.6.8-3.3-.4-.4-1.1.6-2.6-.3-1.6-1.4-1.3-3.1-1.3 1.8-5.3-.2-2.2-.7-1-3.3.2-7.2 2.2-.5-.4-.3-2.6-1.1-.3-4.4.6-5.1-5-1.5-2.3-6.2.7h-.1l-.4-2.2-.9-.9v-.7h-1l.2 1.1-.6-.3-.2-2.3-1-.8-.7-3-4.3-3.9Z"/><path id="SA-04" d="m379.4 230.4.8.4.2 1.4-1.1-1.8Zm-5.8-26.7.6.5v1.1l-1.5-.9zm-12.5-20 4 1.5h-1.6c0-.1-1.6.4-1.6.4v-.9l-.9-.4-1.5 1.9.2-1.6 1.4-.8Zm13.4 23 .3.7.6-1v1.6l.5.3.8-1.2v-1.5l.3 1 .3-.4v.8l-1 1.2 1.1 1 .4 1.1v3.3l-1.1 1.8-.5-1.4.2 1.9-.4 2.3-.5.3-1.8-4.1-.9-.2-.8 1.9.6.9-.3 2.5 1-.5 1.5.6.7 1.5-.7.8.9 2 3 3.9-.2.6-.6-.9-1-.2-1.4-1.3.5 1.2.8.9.3-.5.3 1.4 1.3 1.8.9.3v.8l1.4 1.7.2-.7-.5-.6.5-.4.4 1.1 2.2 1.7.9 2.8-.2 1.7.9 1.4v3.6c.1 0 .7.3.7.3v-1c-.1 0 1.6 2.4 1.6 2.4l.7 2.3 1 .5 1 4.5.4-1.3 1.1-.2.6 1.8 2.5 3 3.1.5 1.7-.7 1.1-1.2h1.5l.3.7.5-.2-.5.9v1.7l1.1-.6.3-1 1.1-.9v-.7l.5.4.4-.3.3 1.1.7-.4.5.5-1.9 1-.3 1-2.1 1.7-.4 2.1h-.4v1.3l1.5.3.6-.8h1.4c0-.1 1.1.3 1.1.3l1 1.5h1.1l.5.8-.3 2.9 23.5 28.5 16.3 3.3 40.9 9.4 4.8-5.1 10.7 17.8-15.7 50.2-70.9 24.9-27.4 5.4-39.7 4.3-22 10.7-14.3 17.5-3.3 8.4-1 .6 7.3-60.3L332 279.3V274l-.9-4.7-3.2-5.4-6.3-6.3-6.5-4.3-2.3-2.5-.7-7.6.4-10.3-.3-15.5-.3-3.4-.7-1.8-8.7-3.6-1-1.7-4.4-4.2-5.7.5-8.5-5.6-7.5-1.1-2.8-2.3-2.4-2.9-3.9-.7-7.1-4.2-.8-1-1-3.5-3.7-3.1-1.3-2.3.9-3.2 6.3-8.3 8.7-16.2 5.7-6 8.5-3h3.5l4.6-2.9 21.5 2.8 2.9 4.1.6 4.9 2.4 3.2v.5c-.1 0 17-.3 17-.3l1.7 1.1v1.5l1 .8-.7 2.1.7 1.4 2.2 2.2-.5.4v2.5c.1 0 1.5 1.6 1.5 1.6l2.7.7-1.1.6v.7l1.1 1.2h.7v1l1.4.9v2.1l-.6.4-.2-2-.5.7-.2-1-.9 3h.4l.3-.8.2 1.6.4-.7v1.3l.8-.2-.8 1.5.8.4.5-.9h.4c0 .1-.3 1.7-.3 1.7l.6-.3v-.7l1-.5 1.4 1.3 1.8.8h2.5l1.2.5 1.2 1.3v1.2c.1 0-.3-.9-.3-.9l-.5.8-.4-.4-.5.5-1.2-.5-1.3.9 1.7 1 .7-.2v-.7l.9.5-.9.6-.2 1.5 1.2-.7 1.1.4v2.5l.5.8 1.8.2-.3 1.3h-.7c0 .1.2.5.2.5l.5-.2.4.7.5-1.2.2 1 .8-.5 1 .3-.6-1.2.5-1.1-1.3-.8.5-.9.4-.3.3 1.1h.8l.2 1.1-.5.2.7.7.6-.5-.3 1 .4 1.3.8.8 1.6-1 .7.3-2.3.9.7.8 1-.2-.5 1.3 2.3 2 2.4 1.2 2 .2 5.1 5.7-1.3-1.1-1.2-.3-.7.5-.9-1.9-.3 1.5v.7c.1 0 .7.1.7.1v2.6l1.6 2.9.3-.9Z"/><path id="SA-05" d="m169.3 231.4.8-.9 3.4-.5 4.1-2.4 4.1-.5.6-.4-1.6-3.8.2-1.7 1.5-1.2 4.4 1.1.3-.5-.6-4.3 1.3-3.3 3.9-.5.6-2.9 3.3-3.3 8.1-6.3 7.8-3.6 1.9-4 1.9-1.9 9.9-5.1 2.8-.9 1.6.6 3 3.1 4.1 2.8 5.1.4 3.5-4 1.6.6 2.5 2 .9 1.7v1.7c.1 0-.3 1-.3 1l-2.9 1.3-1.7 1.4-3.1 4-2.7.8.3 3.5-.6 3.9.3 1 2.5 2.4 4.6 7-.6 2.6 1.7 3.3.2 2.2-.6 2.7-8.7.3-5.7-.7-2.1.6-1.4 1.4-1.6 3.1-2.1 1.2-1.9 1.9-8.8 2.2-2.2 1.7-3.7 4.6v1.6c-.1 0 1.2 2.6 1.2 2.6l-.6 1.5-1.7 1.2-3.9-.6-3.9.6-3.9-.3-7.2-2.4-1.5 1.1-2.1 3.5-2.8-2.3-2.2-7.4-1-.8-3.6-1-1.2-1.4.2-9.1-.9-.8-4.7-1.3Z"/><path id="SA-06" d="m131.7 202.1 1.4-1.6 1.6-5.3 2.1-2.6 3-2.8.2-1.7-2.8-2-2.6-1.5-1-2.7-2.6-9.9-1-1.1-2.2-1-.9-1.7-2.1-.7-.9-1.1-2-1.6-3.4-.9-5.5-1-.8-.9 2.5-2.9 4.3-2.4 6.8-3 2.9-.5 9-5.2 8.8-3.8 2.1.5 4.6 1.6 14.4-3.3 8.3 2.4 6.3-1.2 9.9 2.4 4.5 4.9 1.7 1h2.7c0-.1 3.2-1.8 3.2-1.8l1.8-.3.5.5.6 4.3 1.6 1.2 4.4-.2 4.1 2.1 1.7-.6 3.5-2.3h1.1c0-.1 1.8 1.8 1.8 1.8l3.6 6.6 1.9 5.3 1.4 1.7 1.7 1 6.8.9 2.2.9 5.3 4.4.7 1.3-2.2 1.1-1.7 2.3-.7 2.1.4 2.4-3.5 4-5.1-.4-4.1-2.8-3-3.1-1.6-.6-2.8.9-9.9 5.1-1.9 1.9-1.9 4-7.8 3.6-8.1 6.3-3.3 3.3-.6 2.9-3.9.5-1.3 3.3.6 4.3-.3.5-4.4-1.1-1.5 1.2-.2 1.7 1.6 3.8-.6.4-4.1.5-4.1 2.4-3.4.5-.8.9-8.1-1.6H156c0 .1-2.2 1-2.2 1l-2.7 3.2-1.7.8-5.5.3-6.4 2.2-2.1-.5-1.3-2.1.3-6.9-1.4-6.7 1.4-10.3-.8-.7-2.2.6-1.3-1.2v-1.1l1.6-3.2-.6-2.9Z"/><path id="SA-07" d="m66.9 245.7.8 1-1-.5.2-.6Zm-5.4-11.8.9.3.7 1.8h-.5v-.8l-1.3-.8zm3.1-.9.7 1h.4c0-.1-.2.4-.2.4l-1-.3V233Zm-.5-1 .6.6h-.9zm-2.5-1.5.4.6-.6.4-.3-.5.5-.6Zm1.4-.3.6 1.6-.7-.6v-1Zm-9.5-2.1 1 1.1h-1.1l-.4-.6zm1.8-1.3-1-.5v-1.1l.5.9h.5zm-44.6-59.1h.6c0 .1.4 1.2.4 1.2l-.7.3-.5-1-.8.5.2-.6.8-.3ZM7 166.2l.3.5-.9.3.5.7 1.3-.2v.6l.7.7-1.6.2-1.1-.9-.2-1.5zm7-23.2 3.3-.3 6.6.9 1.6-1.5 2.2-.6 8-1.1 4.1.2 3.5 1.1L45 143l6.4 8.3 1.2.4 9.6-2.4 3.5.5 3.2 1.2 5.9.5 1.1-.4 2.6-5.2 3.6-2.7 1.1.7.3 1.1v7.9l.8 2.9 2.4 2.4 1.7.8 2.3.8 6.9.8 2.2-1.2 1.6 1.2h1.6l.5 1.6.9.7h1.2l2.4-1.4 2.3-.7 2.1 1.2.8.9 5.5 1 3.4.9 2 1.6.9 1.1 2.1.7.9 1.7 2.2 1 1 1.1 2.6 9.9 1 2.7 2.6 1.5 2.8 2-.2 1.7-3 2.8-2.1 2.6-1.6 5.3-1.4 1.6-1.7-2-8.2 1.4h-6l-4.3-3-3.2-1-.7-2.1-.9-.8-.8.5.6 2.1-.5.4-4.2-1.7-1.1.2-3.8 2.6-.6-.7.3-1.6v-.5c-.1 0-2.7-1.7-2.7-1.7v-1.6l-.7-.8-3.7-.2-1.6-.6-2.4-4-.9-3.3-1.3-1.3-6.3 2.9-1.7-.2-4.3-2.3-7.1 3.2-3.2.8-.7 1 .6.8 3.2-.3 1 .9.7 2.9-.6 6.1.5 1.8 1.8 2 3.3.9 1.1.7.2.8-.2 1.2-2.2 3.8v1.6c-.1 0 1.5 3.3 1.5 3.3l.7 3.2 1.3-1.2h1c0-.1 4.8 2.8 4.8 2.8l.8 2.7 4 3.5 2.5 7 2.7.3.8 1-.8 5.4v10.3l-.5 1.1-1.1.6h-4.4l-1.7 2.2-1.6.6-3.9.3-1 3.2-1-2.5-.6.2-.4-1.1-1.9-1-.3-1.4h.6v-.8l-.6-.2.3.3-.5.4-.9-1.2.5-.4.9.2-.6.3.8.3 1-1.5-.5-1 .9-2.1-1-1.9.5-1-.4-1.8-3.2-3.6-.9-2.4V234l-1.8-1.5v-1.2l-.6-.2-.2-1.4-.7-1.1-1.4-.6-1.5-2.2-.2 1.2-1.4-.7-.8-.6v-.7h-.5l-.4-1.3-.7-.2 1.1-1.8.3-2.9-1.2-.8h-1.9c0-.1-1.8-1.6-1.8-1.6l-.7-2.5-2.1-3.4-1.5-3.9-3.9-5.9-1.2-.7-1.3-4.1-5.7-5.7-.3-1.4.7-.7-.2-.8-1.6-2.6-1.8-.9-1.8-2-3.6-8.6-1.9-1v-1.7c-.1 0-1.8-1.4-1.8-1.4l-.4-1.1-2.3-1.2v-.4c-.1 0 1.4-.4 1.4-.4v-.4l-2.8-.6-1.2-1.1-1-.3.3.7-.8-.4-1.6.9-1.9.2-.2-.7.7-.4h-1.6l-.4.5h-.4v.8h-.7l.3-1.2h-.9v-.9h-.7c0 .1-.8 1.2-.8 1.2l.4.8-1 1.1-.5-1v-.9c.1 0-.7.2-.7.2l1.4-2.3.7.2-.3-.7.7-2.1 3.1-6.8-.7-3.7 1.3-3.9v-2Z"/><path id="SA-08" d="m282.6 140-8.5 3-5.7 6-8.7 16.2-6.3 8.3-.9 3.2 1.3 2.3-.9 1.5-1.2.6-1-.4-1.3-1.5-.7-1.3-5.3-4.4-2.2-.9-6.8-.9-1.7-1-1.4-1.7-1.9-5.3-3.6-6.6-1.8-2h-1.1c0 .1-3.5 2.5-3.5 2.5l-1.7.6-4.1-2.1-4.4.2-1.6-1.2-.6-4.3-.5-.5-1.8.3-3.2 1.7h-2.7c0 .1-1.7-.9-1.7-.9l-4.5-4.9-9.9-2.4-6.3 1.2-8.3-2.4-14.4 3.3-4.6-1.6 3.9-3.9.9-10.6 1-1.7 4.2-3.2 18.7-11.5 3.6-3.2v-1.1l-5.4-4.3-2.1-4.4-1.4-1.7-2.5-1.1-5.9-.4-5.2-4.2-1.9-.9-4.8.6-12.3-.4-2.5-.8-3.9-2.9h-3l-13-2.4H112l-14.3 2-3.9-.5-1.5-1.3-2.7-4.8-3.2-2.5-.4-4.6 2.8-9.9 24-7.1 7.2-6.3-.3-1.4 2.4 2 12.7 3.7 6.5 3.5 60.8 42.9 45.3 31.3 35.7 6Z"/><path id="SA-09" d="m184.4 457.4.6.2-.4.8-.5-.5zm-.4-2.2v.7l-.4.5-.4-.8.8-.5Zm-6.8-2 1.3.3.8 1.1-2.2-.7-.4-.5zm6.6-2.6.3.2H183zm-6.3-1.2 2.2 1.3 1 2.1 1.6.5 1.1-.2.7.9 1.1-.3-.2-.6-.7.4-.3-.4.4-1.3 1.1-.3.7 1.7 1.7.8-.5 1.1.3 2-2.7-1.2.8-.4v-.9l-1.3-.3-2.1.6-2.1-1.3-1.5-2h-.9l.3-.9-.7-.6zm-4.4-.2 1.4 2.1-1.1-.4zm8.2-1.4.8.5-.4.6.4.6.9.3v.6l-1-.2-.5.4 1.5 1.1.3 1-.5-.8-2.1-.7-1.3-1.8v-.7l1.1-.1.6-.9Zm-5.5-.1 1 .8-1.2 1-.6-.8zm2.5-.6.8.4-.3.4zm3.5.1.3 1-1.4-1.4 1.1.5Zm-4-32.8 3.1-.3.9.7-.4 6 4 .2 1.8 3.3 5.7.3.9.8 1.1 2.6 3.3 2.6 1.4-.5 1.1-4.6.8-1.4 3.5-2.1.7.8v3l2.4 1.2 1.8 3.2 2.5.8 1.4 2.1.7 1-1.3 2v1.6l1.9 1.8-3.1 1 .3 1.3-1 .9-.4 1.8 1.9.3.6 1.1-.4.6-1.6-.2.2 1.9-1.1.9 1 1.3 1.1.2.9.9.2 1.5h-1l-.2.6.3 1.8-2.4-.5.3.6-.7 2.6-3 .8-1.1.8.3 1.9h-4.4l.2-1.7-1.4-2.3.4-2.4-.5-.6v-1l-1.7-2.1-1.4-.3-.3-.9-.8-.3.7-.7-.2-2.2-2.4-1.2-.9-1.3.2-1.3-1.1-.6.6 1.5-.5.5-.2 2v-2.6c-.1 0-1.2-5-1.2-5l-.4-.2.3-2.6-1-.3-1.1-1.7-1.4-1h-.7l-.7-1.6-5.5-4.3-2.6-.9v-.5c.1 0-2.5-2.4-2.5-2.4h.5l-.7-.6.2-.7-.4.5-.3-.2.2-1.2-1-.4-.5-1.2 1.4-2.2 2.4-1.4.7-1.4Z"/><path id="SA-10" d="m279.9 440.7-16.1-1.9-4.3-2.8H246l-2.3.9-1.8-1H240l-6 .8-.6 1-.7-.9-2 .4-.9 1.3-1.8-.5h-2.4l-.5-.5-1.4.2-1.8-1.9v-.7l.8-2.2-.9-4.1 1-6.7-.9-5.3 2.7-3.5 5.6-5.2 2.1-3.8 4.3-1.4 2.5-1.9.8-3-1.2-5.9.5-1.1 2.6-1.3.8-1v-4.2l5.8 3.8 3.6 1.6 8.3 1 40.3-3.5 11.2-1.6 6.9-1.8-7.3 60.3-5.1 3.2-4.8-.2-5.6-7.6-7.3 1-8.9-.3Z"/><path id="SA-11" d="m184 356.9-1.5 4.4 1.6 1.9v1.1l-.6 1-4 2.7-.6 1.2.2 2.4-2.9 6-4.7.8-1.6 3.1-1.8 6.2-1.5.7h-1.8l-1.1-.7-1.4-2.1-2.5-1.5-.9-1.1-.2-9.3-.7-1-2.5-.8-.6-1.4 2.7-2.8 5.3-1.3 2.8-5.6-.7-4.7 1.4-2.4 1.5-.2 1 .4.8 1 .9 2.6 1.3 1 3.2-1.2h2.9c0 .1 3.7-1.7 3.7-1.7l1 .2 1.4 1.3Z"/><path id="SA-12" d="m15 136.8.8-3 .7-.4-.3-1.3.6-.3.3-1.5 26.2 4.7 10-8.3 6.1-10.1 17.7-3.5 4-9 7.8-4.6-23.5-27.2 23.1-6.8-2.8 9.9.4 4.6 3.2 2.5 2.7 4.8 1.5 1.3 3.9.5 14.3-2h5.5l13 2.3h3l3.9 2.9 2.5.8 12.3.4 4.8-.6 1.9.9 5.2 4.2 5.9.4 2.5 1.1 1.4 1.7 2.1 4.4 5.3 4.3v1.1l-3.5 3.2-18.7 11.5-4.2 3.2-1 1.7-.9 10.6-3.9 3.9-2.1-.5-8.8 3.8-9 5.2-2.9.5-6.8 3-4.3 2.4-2.5 2.9-2.1-1.2-2.3.7-2.4 1.3h-1.2l-.9-.7-.5-1.7h-1.6l-1.6-1.1-2.2 1.2-6.9-.8-2.3-.8-1.7-.8-2.4-2.4-.9-2.9v-7.9l-.2-1.1-1.1-.6-3.6 2.7-2.6 5.2-1.1.4-5.9-.5-3.2-1.2-3.5-.5-9.6 2.4-1.2-.4-6.4-8.3-1.7-1.3-3.5-1.1-4.1-.2-8 1.1-2.2.6-1.6 1.5-6.6-.9-3.3.3 1.1-6.1Z"/><path id="SA-14" d="m213.6 433-1.4-2.1-2.5-.8-1.8-3.2-2.5-1.2v-3l-.6-.8-3.5 2.1-.8 1.4-1.1 4.6-1.4.5-3.3-2.6-1.1-2.6-.9-.8-5.7-.3-1.8-3.3-4-.2.4-6-.9-.7-3.1.3 1-4.4-2-6.3-1.4-.8-5.6-.5-1.1-3 .3-6.9 1.4 1.3h.5l2.7-2h4.8l1-.5.5-1 .9-3.2-1.5-3 .8-5.8-1.3-1.3H177l-1 .4 2.9-6-.2-2.4.6-1.2 4-2.7.7-1v-1.1l-1.6-1.9 1.5-4.4 3.2 6.2 1 .7 1.6.2 1.6-.8 6.9-6.3 4.4-2.1 2.9-2.6 3.1-.2 2.2-1 1.5-.2 3.6.9 3.9-2.6 2.8-1 3.9 3.4 2.1 3.4 3.2 3.7v2l-2.3 4.2-.7 5.3 1.9 2 2.7 4.4 9.3 8.3v4.2l-.8 1-2.6 1.3-.5 1.1 1.2 5.9-.8 3-2.5 1.9-4.3 1.4-2.1 3.8-5.6 5.2-2.7 3.5.9 5.3-1 6.7.9 4.1-.8 2.2v1.2l-5.3-3.9-1.7-.2-1.3.6Z"/></g></svg>