<svg xmlns="http://www.w3.org/2000/svg" xmlns:amcharts="http://amcharts.com/ammap" id="Layer_1" viewBox="0 0 512 512"><g id="_x3C_defs"><amcharts:ammap bottomLatitude="1.18" leftLongitude="103.619" projection="mercator" rightLongitude="104.085" topLatitude="1.471"/></g><g><path id="SG-01" d="m275.1 149.7 4 2.4 5.5 6.7 3.1 1.2 1.3-1.6 2.7.3 9.3 2.8 3.5 2.7-.2.2-3.2 4.9-6.2 4.4-1 4.7-.3 1.6-4.6 3.8v3.8l-4.2 6.6-4.2 12.7-7.1-1-4.3.8-6.9 14.8v3.7l3.2 8.4-6.4 2.2v2.3l8.1 1.2 3.1 9.8 6 2.3 4.3 4.3.9 6.5-3.2 2.6-2.3 1.9-.6 2.1 1.8 4.6-1.1 4.6-6.5 6.3.5 10.7h-10.2l-1.2 5.1 1.4 4.4h1.3c0 .1 3.3-6.7 3.3-6.7h2.2l7.1 3.5 3.7 5.4-10.6 8.3-5.2-1.3-1-2.4-3.8-1.1-1.6 1.3.4 13-5.8-6-2.1 1.8 1.9 3.3-5.9-5.9-8.3-.2-8.2 4.6h-5l-2.5-.8.7-.9-1.3-.9-1.6 1.6-1.3-1.3 1-1.3-2.2-1-3.2-5.2 5-6.7-.2-2.1-.9-1.4h-11.1c0 .1-5.2-3-5.2-3l-2.5-10.6-3.4-5.8 2-4 .4-2.1 1.4 1.1 3.2 1.8 1.5-10 5.6-7.8 4.9-3 .5-6.5 3.2-3.8-.3-2-5.3-1.5-8.8-8.1-.6-2.6 6.8-10.8 7.6-6.1 5.1-13-1-1.6-2.1-6.2.3-7.6-2.7-6.1-2.3-4.1 8.4-3.8 5.5-10.3 2-6.5 4.3-3.5 4 .5 7 7.1 5.5-1.1h3.1l4.1-1.1-4.4 5.8-16.7 5.7-1.9 2.8 1.1 3.6 2.9-1.9 1.7-3.7 8.5-.2 9.9-4.8 10.2-15.8 7.6-1.6Zm29 9h-8l-5.2-2.5 6.1-6.6 7.7 5zm-14.1-3.8-1 1.1-4.2-.8-9.2-7.8.7-2.1 5.2-3.4 3-.2 4.3 2.3 5.5 4.1z"/><path id="SG-02" d="m338.4 170 1.8 3.4-5.1-3.2-2 .9.4-2.5-9.4-10.1 7 4.3 7.3 7.4Zm-16.6-10.9.2 5.1 13.2 10.4-4 3.7 1.1 2.4 8.5-4 3.2 2.7 4 7.2 8 5.5 8.3 3 .9 2 .5-1.5 5.8.6 4.3-1.4 3.5 1.4 2.5-4.3.9 3.6 5.4 6.3-.5 2.2-12.4 11.6 2.1 5.4v5.3l-7.3 2.4-10.9 7.6-5.1-2.5-9.6.8-6.9-1.3-.6 1.8 3.5 2 1.8 1.8 1.4 2.2-.9 1.9-4.6.5-7.8 4.8.8 1.8-2.5 2.8 2.2 2-1.2 3.9-15.4.9-1.8-3.7 1.3-3.8-17.3-16.8-.2-4.6-11.3-3.4-1.5-2-.8-3.8-4.7-5.6 2.5-9.6 4.2-12.7 4.2-6.6v-3.8l4.7-3.8.3-1.6 1-4.7 6.2-4.4 3.2-4.9.2-.2.9-1.7 6.5-2.4 3.6-5.7 3.3-1.1 2 .6-.8 2.5 1.7 2.9Z"/><path id="SG-03" d="m263.1 123.5 7.3 8.9.4 3.3-4.6-5zM222.2 105l-1.6 2.7.8.9 4-2.8 1.1 3-1.5 2 1.5.4 5.9-7.3 5.3 3.3-1.6 5 5.1-3.9 15.3 11 11.2 20.7-6.9 9.1-.3 3.4-4 7.2-4.1 1h-3.1l-5.5 1.1-7-7.1-4-.5-4.3 3.5-2 6.5-5.5 10.3-8.4 3.8 2.3 4.1 2.7 6.1-.3 7.6 2.1 6.2 1 1.6-5.1 13-7.6 6.1-6.8 10.8.6 2.6 8.8 8.1 5.3 1.5.3 2-3.2 3.8-.5 6.5-4.9 3-5.6 7.8-1.5 10-3.2-1.8-1.4-1.1-.6-2.1-6.1-2.4-6.6-5-6.3-1.5-12.9-10.5-2.8-4.5v-3.8h7c0-.1 5.6-3.2 5.6-3.2l.4-2.7 5.2-.4 1.3-1.4-.4-2.7-4.8-3.2-8.5-10.4-1.2-12.5-7.8-19.1-6.7-10.2-1.4-8.7 3.1-5.4v-13.4c.1 0 7.7-8.7 7.7-8.7l-1.4-8.6 3.3-1.3 2.4-4.6 2.6-.4.2-2.6 2.6-2.3 10.3-4.6 23.4-16.3 14-2.1 7.8 1.4-2.7 2Z"/><path id="SG-04" d="m401 183.4 10.8 3.1 6.8 5 4 8.4v14.8c-.1 0 4.8 1.8 4.8 1.8l-16.6 40.1 3.6 1.8 9.7-2 3.5.9 8.2 4-1.3 4.8-18.7 5.3-10.8-3.9-6.3 1.7-1.3-4.8h-.5l-23.5 3-21.1 8-15.5 2.2-13.6 3.8-3.1 2.2-7.5 1-17.9 8.1-7.8 6.2-2.6.3-3.1 3.5-6.9-8-2.5-5.5v-3.8c.1 0 10.8-.4 10.8-.4l-4.4-3.9v-2.6c-.1 0-2.5-.8-2.5-.8l1.1-4.6-1.8-4.6.6-2.1 2.3-1.9 3.2-2.6-.9-6.5-4.3-4.3-6-2.3-3.1-9.8-8.1-1.2v-2.3l6.4-2.2-3.3-8.4v-3.6l7-14.8 4.3-.8 7.1 1-2.5 9.6 4.7 5.6.8 3.8 1.5 2 11.3 3.4.2 4.6 17.3 16.8-1.3 3.8 1.8 3.7 15.4-.9 1.2-3.9-2.2-2 2.5-2.8-.8-1.8 7.8-4.8 4.6-.5.9-1.9-1.4-2.2-1.8-1.8-3.5-2 .6-1.8 6.9 1.3 9.6-.8 5.1 2.5 10.9-7.6 7.3-2.4v-5.3l-2.1-5.4 12.4-11.6.5-2.2-5.4-6.3-.9-3.6 6.7-7.4 12.5-1.3Zm-36.5-7.4-4.3-4.1 3.5 1.3zm74-13.7-4.2-1.9-1.6-3.5 2.8-5.8 7.3 7.5-.9 2.9zm-71.7-5.4 17.9-.9 8.2 1.6 6.4-.9.4 1.3 3.2-1.1 1.6 3.9-.4 4.6 1.4 1.1-15.4 1-6.6 5.2-14.4 3.1-3.8-6-3.6-.7-3.1-5-10-4.6H345l-2.5-2.6-1.9.6-3.2-2.8-.8-3.8 7.9-4.4 11.8 4.2 4.6 4.2 5.7 1.9Zm120.1-10.5 13.7 9.1 3.8 6.4.4 3.6-5.1 16.8-5.2 2.9-4.3-2.1-3.7 1.3-11.5 5.5-6.6 5.3-13.7-15.9-1.8-5.3-8.2-6.7 3.6-7.4-3.2-10.9 10.1.3 6.1-6.8 2.3 2.1 7.2 1.9 4.3-4.4 11.7 4.1Z"/><path id="SG-05" d="m122.7 403.1-1.4.9 2.2 1.8-.7 1.1-5.3 1.1-3.3 2.4-.6-5.1 4.3-1.1 1.3-3.9 2.3.4 1.4 2.4Zm79.2-14.9-7.4-3.4-2.1-3.9.6-2.7 8.9 10.1Zm-43.4-8.2 1.8.6 1.6 3.5-2.1 3.1-2.4.8-1.7-5.5 2.1-4.5zm-38.4-.3 3.8-1.5.9.9-2.1 2.5 4 2.6-2.1 2.6-11.1.4-11.6-2.2.9-2 8.4-5.7 6.9-1.2 2.1 3.6Zm131.6-14.5 3.4 1.9v5.9l-7.1-8.2 1.5-1.1 2.3 1.4Zm10.3 2.3-4.2-3.3-.4-3 5.1 3.7-.5 2.7Zm-111.8-3.4h-4.9l-.8-4.6 6.1 2.6 1 1.3zm106.9-7.2-2.6.4 2.7-1.9v1.5Zm-101.5 1.2L152 354l2.8-3.7 2.1 4.2zm-14.1-3h-3.3c0-.1-1.3-2.2-1.3-2.2l6.2-3.6 3.4.8.3 2.7-5.4 2.3Zm27.5-2.6 6.2 4.8 2.6 5.1h-5.1l-1.6-3.6-4.3-2.4-.9 1.1 3.1 1.9-2.6 2.4-9-1.6 1.7-3.7 3.6.9 1.3-1.3-4.2-1.8-1.6-4.8.8-2.8 4.9.7 5.2 4.9Zm45.2-26.1 4.4.7 2.4-1.6 9.2 5.6h5.3l4.5 1.8 5.5-.8.9 2.5 5.1-2.1 1.5 1.4-5.9 8.7-2.9-3.2.4 5.9-8.9 3.8-9.2-10.3-6.8-2.8-10.3-9.9 4.9.2Zm30.8 1.2-5.8 3.3-11.8-4.8 4.9-3.2 6.4-.8zm-123.2-32.1.6 4.9 3.7 4.2 9.3 2.2 2.4 2.7-.2 2.4-7.4 4.4-10-3.4-4.1 3.2.7 2h4l.2 2.2-3.2 3.7-11.6-5.7-.6-3-1.7 1.5-2.4-.4-1.7 2.9 10.5 6.1-.2 1.1-5.6 2-12.5 8-5.9-12.4-4.2 2.8 4.1 12.3-.6 1.6-3.7 2.2-5.3-13-4.4 3.6 3.7 13.3-9.9 3.2-5.6-3.7-7.6-12-5.2-14.9 12.2-12 17.9-12.7 7.5-.6 1.7-2.2 2.7-.2.4 1.7-5.1 4-7.4 9.7 3.7 4.2 4.2-3.6 1.5 1 2.6-1 .2-4.6 3.7-3.7 3.2-.4v-2.9l2.1 1 1.2-1.6-1.7-2.2 3.7-2.4 9.1-1.9 3.6.6 7.2 5.9ZM92 282.9l-2.1-.5-1.1-6.3 3.7 3.1zm25.6-157.1 8.2-1.5 2.9 4.7 4.3 2.4-.2 3.7 8.7-1 5.8 3.2 10.7-1.4 1.4 8.6-7.6 8.7v13.4c-.1 0-3.2 5.4-3.2 5.4l1.4 8.7 6.7 10.2 7.8 19.1 1.2 12.5 8.5 10.4 4.8 3.2.4 2.7-1.3 1.4-5.2.4-.4 2.7-5.6 3.1h-7v3.9l2.8 4.5 12.9 10.5 6.3 1.5 6.6 5 6.1 2.4.6 2.1-.4 2.1-2 4 3.4 5.8 2.5 10.6 5.2 3.1H215c0-.1.9 1.3.9 1.3l.2 2.1-5 6.7 3.2 5.2v1.7c-.1 0-4.3 1.3-4.3 1.3l-6.2-4.4 2.9 3.8-1.7 1.7-7.3-7.8-3.4-1.1-1.5 1.1-15-8.6-9.4 15-25.2-16.2 4-7.9 1.9-.9 6.9 3.9-.2 1.6 2.2 1.4 4.1-1.3v2.1l1.9 1.3h4.4c0 .1 1.9-4.2 1.9-4.2l-11.2-7.2 1.6-4.9-5.6-5.4-2.7-7.3-3.4-2.8-8.2-.2 9.1 3.8 3.3 9.2-7.6.4-19.2-5.2-3.7 1.2 1.5-13.1 4.2-5.4-1-1.5-1.9.6-3.9 5.5-2.1 12.7-9-6.8-5.3-.4-2.7 1.4-1.7 5.9h-4l-.8-2.5-6.8-3.9-3 3.9.7 4.3-9.7 1.2-1.3-9.5-1.5-1.7-1.6 1.8.8 11.1-2.2 1-5.8-5.5-.9-4.9-4.1.4.2 6.8 4.4 5.5-7.3 6.4-2.9-2.9-3.3 2.8-6-7.2 1.2-2.7-2.1-3-2.8.9-1.5-1.4 8.4-10-3-.4-6.3 5.9-2.4-3 5.1-6.2-1.5-2.4-2.2.4-5.5 5.4-5.5-4.5-4.6 4 4 3.5 14 26.9-.4 2.5-24.3.5-7.9-4.7-1.2-11.1L26 235.5l-.6-4.9 3.7-2.5L40 207.4l4.2-2.1 4.4-11.4 4.7-4.8 1.2-17.3L57 170v-2.9l2.1-.3-.3 2.9 4.7-2.6-1.3-2.9 2.9-.9-1-4 1.6-1-.6-1.2 1.9.2-.2-6.1 8.3-6.1 4.1.3v-1.6l2.7.3.7-1.7 6.2-1.7 18.5-15.8 9.6-2.1.7 2.9Z"/></g></svg>