<svg xmlns="http://www.w3.org/2000/svg" xmlns:amcharts="http://amcharts.com/ammap" id="Layer_1" viewBox="0 0 512 512"><g id="_x3C_defs"><amcharts:ammap bottomLatitude="33.195" leftLongitude="125.385" projection="mercator" rightLongitude="131.873" topLatitude="38.612"/></g><g><path id="KR-11" d="m120.4 109.3 3 3 .6 4.2.9.3 1.9-1 2.4 4.6 1.4-.6 2.8.3 3.3-1.8 2.4-.2.5 2.3 2.9-1.6 2.3-.2 1.3-1.2v-.9l1-.2 1-1.3-.9-.9.3-2 2.5-1.7-1.1-2.8-3.8 1.7-1.2-.3 1.1-4.2-1.6-3.7v-3.5l-1.7-1-3.9-.2-1.7 1.2-1.3 2.2v2.4l-.9.6-4 .3-1.3 3.5-2.8 1.3-4-2.5-1.7 2.7z"/><path id="KR-26" d="M299.2 308.6v.6h3.1l1 1 .8 1.3v1.2c-.1 0-1.3.9-1.3.9l-.7 3.9-1.5.8 1.3.2.2 1.3-1.1 2.4-.8-.4-.5 1.1.6 1.1-.4 1.4-1.8.5-.5 1.7-.9.6-1.3-.5-1 .7-1.3-.9v.6l-1.2.2-.5 1.6h.8c0 .1.4 1.3.4 1.3v2.1c-.1 0-1-.5-1-.5l-1.5.3-.2-.3-1.5-.2.2-1.6-.6-.4-1.4 1-1.3 2.1-.2 1.4h-.6l.5 1.2-.6.9-.9-2.8h-.8c0 .1.7 3.2.7 3.2l-.7.3v-1.2c-.1 0-.9-.3-.9-.3l.2 1.3h-.9c0-.1.5.6.5.6l-.9.7v-1.4l-.5-.3-.6-2.6.4-2.4-1.6 1.9v-2.3l-1.6 2.8h-1.3l.8-3.6-.8-.3-.8 3.9-3.5-.4-1.2-1.3-2.3 1.7-.6-.7 1.4-1.2h-1c0 .1.2-1.7.2-1.7l5.4-2 .3-3.9 1.8-.2 3-1.9h3.3c0-.1 3.2-4 3.2-4l3.1-1.9 1.4.2 2.8-5.2 3.8-.4.4-1.5 2.3-2.1.2.3Zm-11.3 24.2 1.5 1.3-.2 1.3 1.5 1.3-.4.8h-.7l-.4-.9-.5.2-.5-1-2.4-1.8 2.1-1.1Z"/><path id="KR-27" d="m249 284.1-1 3.3-1.1.7-1.9-.7-1.2.3-2.7 2h-1.9l-.6-2.6-3.2-3.9.2-2.2 2.7 1.5h1.7l.5-2-2.4-2.7 1-2.4 1-2.2 4.2-.7-.2-1.5-2.2-1.7-3.7-.2 1.2-4.6 1.7-2.4 3.2-1.5.5 4.4h2l2.7-6.4 4.6-1 2.2-2.4 2.7-.7 2.4.2 2.9 2.4.5 5.9 1.5 3.2-.7 1.7-2.7 1-1.2 2.7v2.4l-2 .2v1.5l1 1.2v3.2l-2.7 1-1.2 1.5-2.2-.2-.5-2.2h-2.4l-1.7 1-1.2 2 .4 1.2Z"/><path id="KR-28" d="m104.7 106.5 3.2-2.1 1.7-2.2 1.6.2 5.8 4.7 3 1 .3 1.2-2.8 3.6v3.2c.1 0 2.7 2.3 2.7 2.3l-.3 3-1.4 1.8-1.6-.5.4-1.4-.5-.4-.3 1.3-.5-1.8.3 2.3-1.5 1.8-2.8-.4-2.9 3.6h-3.6c0 .1-.3 1-.3 1h-.8l.7-.2.4-1.4 3.6.6 2.8-3.5-3.2-2.5-.7-3.4-.4 1.8h-1.2l.1-2.1-.6 1-.9-.4.9-3.6 2.3-.9 1 .3-.7-1.3-1.9.9v-1l-.8-.9h.8l-.1-.9-1-1 .5-.2v-1.1l-2.1 1.3h-.8v-.2l3.1-1.3-1.6-2Zm-20.4 1.3 1.4 1 .7-.2 1.1 1.6 2.3-.3-.2 1.1-1.6-.3-1.5.5-.3-.4-.8.7.3-1.7-1.5-2Zm15.4 2.5.6.9 2.8.8 1.1 1 .3 1.4-1.8 1.1-1.6-.5-7 5.8-2.2.4.3-1.5-.7-.5-1 .6.7-.7-.4-.6-1.3 1-1.3-.6.7-.5-1.2-1.4.2-1.1h1.3l3.1-2.2 4.4-.2 1-.7.5-2.1 1.4-.4ZM92 121.8l2.2 2.3-.7 1.7-1.2.3-.7-.7v-1.5l-.8-.2.7-1.9h.6Z"/><path id="KR-29" d="m132.6 320.5-1.4-.7h-1.9l-3.5 1.5-1.6 1.6H123l-2.8-1.6-.5-1.7H118l-1.6 4.1h-1.8l-1.4 1.6-.9 3.8.3 3.2 5.7.8 2.9 4.8h2.9l2.7-1.6h3l1.2-.8 2.5.5 2.7-1.8 1.1-1.4 1.4-4.8v-1.1l-1.6-.8-2-.2-.8-3.6-1.5-1.8Z"/><path id="KR-30" d="m165.6 209.3 1 4.1h.2c0 .1 1.1-1.7 1.1-1.7l.5-.5h1.1c0 .1-.3 1.2-.3 1.2v.5l2.2-1.9 2 2 .2 2.1 1.9.9-.2 1.3 1.6 1.9-2.2 1.5-.7 4.4-1 4.9.9 2.9-2.6 1.7-1.7 2.2-2.9-1.7-1.7-2.9-.5-2.7h-1.2l-.2 6.4-.7 1.7h-1l-.7-2.4-2-.7-1.2-1.7-.2-2.7-1.7-1.5-.2-3.2 1.7-2-.2-6.8 5.4-1.7.7-4.8 2.9-.6Z"/><path id="KR-31" d="m298.6 280.6 1.4 1.2 2.3.7.2.6-.3 2.2.8.9 1.5.5 4.2-1.9 6.4 1.7 2.3.3.5 1.1v1.1l-.9.6.4 2.5-.5 1.9-.9.4h.6l-.1 1.3-.9.4.8.6-1 .5 1.2.6-.8.9-.8-.3-1.4 1v-1.9c.1 0-.8-.7-.8-.7l-.5-2.3-1.5-1.7-1.2-.4 1.8 1.8v.9l.7.2.3 1.1h-1.9c0 .1.4.7.4.7l.8-.2.7 1.2-2 2.5-1.7-1.3.6 2.4h.9l-.4.7 1.1-.6v1.3l-1.2 1 .9 1.4-1.4 2.3 1.4 2-1.2.7-.9-.4-1.6 2.4h-.8l-.2 1-1.6-.5v-1.2c.1 0-.7-1.3-.7-1.3l-1-1h-3.1v-.6l-1.2-1.5-2.4-.2-4.4-4.6-2.6-2.6-1.9-.2h-2.1l-1.7-.8-.3-3.8 1.7-1.5.9-.8v-1.1l-1.2-1.9 3.1-2.4h1.3c0-.1 1-.7 1-.7l-1.1-1.9.3-1.2 5.7-2.8h4.2Z"/><path id="KR-41" d="m77.9 89.8-1.4-1.6 1.2-1.3.2-1.8 1.2-1.2h2.1l2.4 1.4 1.9-.5.8.9-1.3 2.2-1.5.9-2.1-.3-1.7.5-.8 1.1-.8-.3Zm7.6 46.1-2.7-1.4-.8 1 3.1 1.6 1.6-.4.6-1-1.1-.4-.7.5Zm-5.2-36.7h-2.4l2.9 2.9.3-.4-.9-.6v-1.9ZM71 136.4l-.7.5-.6-2.2h-.9c0-.1-1.2 4.6-1.2 4.6l1-.2v-.6c.1 0 .5 1 .5 1l.9-.3v1.1c-.1 0 2.5-.4 2.5-.4l1.3-1.5-2.6-1.6zm3.7-39.3-.8-.3-1 .7.9.6.9-.4.7 1.2 1.5.3.2-1.1-1.1-2-1.3 1.1Zm62-52.5-3.8 4.6h-2.2l-3.7-1.5-2 1.2-4.4 3.7-2.7 3.9 1.5.7 1.5 2.9 4.9.2 2.6 1.5.5 2.4-1 .7-.2 1.5-3.9-.5-.2 2.9-1.2.7.2 2 1.5.7-.2 5.1-1.7 1-2.4-2.9 1-3.4-1.5-1.9h-1.9l-.2 2.2-1.5 1.5-2.7-2.6h-.6l.7 3.9-.4 1.5 3.7 1.4 2.7 3.9-5.1 1.5h-2.2L111 87h-2.4c0 .1-2.4 2.1-2.4 2.1l-2.8-.4-1.6-1.3-.5.9-1.4.6.9 1.4-.7 3.3.8 1.4-.4 2.4.9.4-.6 1.3 2.1 5 1.9 2.4 3.2-2.1 1.7-2.2 1.6.2 5.8 4.7 3 1 1.7-2.7 4 2.5 2.8-1.3 1.3-3.5 4-.3.9-.6v-2.4l1.3-2.2 1.7-1.2 3.9.2 1.6 1v3.5l1.7 3.7-1.1 4.2 1.2.3 3.8-1.7 1.1 2.8-2.5 1.7-.3 2 .9.9-1 1.3-1 .2v.9l-1.3 1.2-2.3.2-2.9 1.6-.5-2.3-2.4.2-3.3 1.8-2.8-.3-1.4.6-2.4-4.6-1.9 1-.9-.3-.6-4.2-3-3-2.8 3.6v3.2c.1 0 2.7 2.3 2.7 2.3l-.3 3-1.4 1.8 1 .5-3.1-.6-.7.8.6.5-.3 1.2-3.7 2.1.2 1.2-5.9 2-2.3 1.8-.7-.2.4.8-1 1.1-2.3-1.1 2.3 3.2-.3 1.6-1.4.9 1.1 1.2h-.9l.2.7-.8.8 1.3-.5.8 1.2 1.4-2.6 2.4 1.2.6-2.6.2 1.3 1.6 1-.4 1.3.5.5.6-1.8-.3-1.3-2.1-1.1-.5-2.1-1.7-.3-1.7-1.6.8-1.4 2.5-1.7 5.1-1.8 7.3 3.6 2.4-.3 2.2 2.6 1-.3-.8 1.4-1.2-1.6-1.5-.4v-.7c.1 0-.6.3-.6.3l-.3.6.7 1h-1.5l.6 1.3-.7.7.5.2-1.7 2.6-1-.7.5-.5-.5-2.4-2.1.7-.3-.8-2.8-.6-.6 1.4-1.3.3.3 1.4.7.5-.7 1.4.8 1.2h-1.1l-.9 1.2.9 2-.8.7 1.2-.5 1.9.4-1.7 1.7 1 .6v1.4c-.1 0 .5.6.5.6l.3-1.3 2.6-1.5 1.6-2.7 2 .2 1.1-1.7.7 1.9-1.7 1h3.7l-1.6.5.7.8-.6-.3-1.1 1-.8-.6-1.6 1.5v5.5l-1.2 2.2.3.6 3.4.3.2 1.6-1 .3v.6l3.1.6 1.3 3.3 1.5.6.3 1.5 1.5-.3 1.1.7.7 3.6 2.7-1.6 5.9 1.4 3.9-1.4 2.4-1.6h2l2.3 1.1 2.6 2.6 4 .5 2.2-.2 3-1.3 1.3-1h1.7c0 .1 1.4-1.3 1.4-1.3v-1.7h.1l-.2-.8 4-2.4.6-2.1 1.8-2 .6.9h1.2l-.2 1.6 1.3-2.5 3.4.6 3.2-2.9 2-.2.5-6.1h1.2l1.2 1.5h1.5l2.1-5.2 2.1-.5.5-5.8-.5-2.7 1.2-1-.2-5.9 2.7-6.4.2-3.2-1.5-.6-.6-1.9 2.5-3.2 1.6-.6.6-1.7-1.3-2.3-7-1.1-3.4-2.9-2.1-.3-3.2-1.9-2.8 1.1-2.1-2.2 1.4-2.8.2-3.4-2.8.7V96l2.2-2.4-1-2.7.6-1.5-.7-2.3.5-1.2 1.8-.6 1.4-1.6 2.6-.8.8-3.1-.6-3.2-1.1-1.2-3.3-1.1v-2.1l-.8-.5-2.5.3-2.4-1.2-1.2-2.4-.3-5.9-1.1-1.5-1.5.8-1.6-1.2-1.2.2-3.2 1.5-3.5-2.8.4-4.2.9-.7-1.5-.7-2.9 2.9h-1.9c0 .1-1.3-.5-1.3-.5l-.3-2.5-.8.2v-.8c-.1 0 .3-1.5.3-1.5l-1.2-1-.7-4.2h-3.7V45l1-.7-3.7-3.5-1 .5-4.4 3.3ZM88.6 95.3l-2-.3-1.6-1.3v-1.8l.8-1.6-.7-.4-2.5 1v2.7l-1.3.4 3.6 2.5.8 1.1-.2 1.6.8.8 2.8-2.1.3-1.6zm12.2 2.9-1.2-1.1.6-2.5-.9-1.3 1-2.9-1.1-1.3-.3-1.8-3.5-2.3-1.7-2.2-3.1.6-.7 1.6-2.7 1.5.4 7.9 2.3.6 1.5 3.6-.7 1.9-2.5.5.9 1.6-.5.6 2.6 1.5 4.2.3v-.8l.7.3.5-.7 2.5.7.6-1.3 1.1-.3-.9-3.7.7-1ZM96.5 133l-1.5.3v1c-.1 0-1.4-.1-1.4-.1l-.6 1.2.6 1.5-.3 1.5h1.5v.7h.5l1-.9-.2-.7h1.2l-.9-1.1h1l-.2-.6.8.6.5-1.5-1-1.3-1.2-.5Z"/><path id="KR-42" d="m236.1 9.4 1.1 2.2 1.7 2.1h.5c0-.1.6 1.2.6 1.2l-.4 1 1.4 1.8-.5 1 .9.8v1.2c-.1 0 2.8 3.8 2.8 3.8l-.9.4v1.3l4.3 6-.5.3.2 1.3 1.3 1.7v1.1l1.8 1.6.7 4.4 3.1 4.1-.6.9 1.6 2.1-.7.8.7 3.2 4.4 5.2.6 2.4 3.2 3.4h.9l-.4 1.6 2.9 4.8 1.3.9v.8l3.1 2.9v1.9l3.4 3.9.2 1.1 13.3 14.5-.9 3.6 1.9 2.5 3.5 2.9.3 1.4-.7 1.5 1.5 4.1 4 4.2.9 3.9 3.8 2.9 1.3 5.4 1.4 1.3h.8l.4 1.9h1.3l.6.9-.2 1.4 2.2 2.7-1.2.9.6 1.4-.7 1.9.4 2 2.1 3.1-.2.9.6.7-3.4.6-1.5 1.7-2 .7-2.2 2-1.2 1.7v1l1.2 2.2h-5.1c0 .1-2.1-1.7-2.1-1.7l-2.3-.8-2-.3-2 2-5.8-2-2.6.6-.5-1-1.3-.5-2.3 3.4-.7 1h-3.2l-4.9-3.4h-1.6c0 .1-.4 3.8-.4 3.8l-.9.9-2.4-1.1-1.5.2-3.3-1.8-1.9-1.7-2.7.2-3.1-1-2.8-2.3h-1.6l-3.3.7-1.5.4-.6-1.1-1.4-1.3v-2.1l-.8-.6-1.1.3h-2.6c0-.1-.9.9-.9.9l-1.5.5-.5.4-1.8-1.4-.5-1.3 2.6-1.6 1.8-2.1v-1.1l-1.2-.4-1.1.7-.8.2-1.3-.2-1.2-1.4-1.7-.3-1.6-1.2-1.9.5-1.4 1.9-2.9-.7-2.9 2.4-4 .7-.2-3-1.4-2.6-3.3-.3-1.2.7-2.2 2.1.8 3.7-.3 1.4-2.5 1.6-1.8-.9h-2.4L196 150l-1.7.7-3.2-2.4-.5-2.7.5-5.8-.5-2.7 1.2-1-.2-5.9 2.7-6.4.2-3.2-1.5-.6-.6-1.9 2.5-3.2 1.6-.6.6-1.7-1.3-2.3-7-1.1-3.4-2.9-2.1-.3-3.2-1.9-2.8 1.1-2.1-2.2 1.4-2.8.2-3.4-2.8.7v-1.6l2.2-2.4-1-2.7.6-1.5-.7-2.3.5-1.2 1.8-.6 1.4-1.6 2.6-.8.8-3.1-.6-3.2-1.1-1.2-3.3-1.1v-2.1l-.8-.5-2.5.3-2.4-1.2-1.2-2.4-.3-5.9-1.1-1.5-1.5.8-1.6-1.2-1.2.2-3.2 1.5-3.5-2.8.4-4.2.9-.7-1.5-.7-2.9 2.9h-1.9c0 .1-1.3-.5-1.3-.5l-.3-2.5-.8.2v-.8c-.1 0 .3-1.5.3-1.5l-1.2-1-.7-4.2h-3.7v-1.5l1-.7-3.7-3.5 3.2-2.5 2.6.3 5.2-2.4 2.7.4 1.3.9h2.5l.9-.8 4.7-.9 7.2 3.1 6.5-3.3 2 1.1 3-.3 2.1.5 1.5-1 4.5.2 2-1.1 2.9 3.6 3.1-.9 1.7-1.8 4.9 1.4 1.4-.3 5 1.1 2.3-.4 2.3-1.9 2.6-.2 5.3-4.2 1-1.7 4.3-3.8 1.7-3.6.6-3.6-.4-7.1 3.3-2.4Z"/><path id="KR-43" d="m183.4 249.7-1.7-4.9-1.7-1.5-.2-2.2 1-2.2-.2-2.4-1.5-2.4-2.2.2-3-1.4-.9-2.9 1-4.9.7-4.4 2.2-1.5-1.6-1.9.2-1.3-1.9-.9-.2-2.1-2-2-2.2 1.9v-.5l.3-1h-1.1c0-.1-.5.4-.5.4l-1.1 1.9h-.2c0-.1-1-4.3-1-4.3l-2.9.6-.5-.7h-.9c0 .1-.5.8-.5.8l1.5-4.8-.8-.9.7-2.6-2.6-.2-.4-1.1v-2.2l-2.2-2.7 1.7-.5.2-2.2-1.2-1.7 3.9-6.1 2.9.2 1.2-1.5-1-2.9-2.4-1.7H160l-.8-.4v-1.6h.1l-.5-.4-1.2-.6-.2-2.1-2.2-1.5-.7-1.9 2.2-.2 3-1.3 1.3-1h1.7c0 .1 1.4-1.3 1.4-1.3v-1.7h.1l-.2-.8 4-2.4.6-2.1 1.8-2 .6.9h1.2l-.2 1.6 1.3-2.5 3.4.6 3.2-2.9 2-.2.5-6.1h1.2l1.2 1.5h1.5l2.1-5.2 2.1-.5.5 2.7 3.2 2.4 1.7-.7 1.1-1.5h2.4l1.8.8 2.5-1.6.3-1.4-.8-3.7 2.2-2.1 1.2-.7 3.3.3 1.4 2.6.2 3 4-.7 2.9-2.4 2.9.7 1.4-1.9 1.9-.5 1.6 1.2 1.7.3 1.2 1.4 1.3.2.8-.2 1.1-.7 1.2.4v1.1l-1.9 2.1-2.6 1.6.5 1.3 1.8 1.4.5-.4 1.5-.5.9-1h2.6c0 .1 1.1-.1 1.1-.1l.8.6v2.1l1.3 1.3.6 1.1 1.5-.4 3.3-.8h1.6l2.8 2.4 3.1 1 2.7-.2 1.9 1.7-1.7 1.7-1.7-.2-1.8 2-.5.2-2.6 2.5-2.2.6-.6 1-2.8 2.2-2.5 4.4-.7 1.2v1l1 .5.6 2.3-2.2 3.1-3.1.6-.7.8h-1.9l-1.7.1-2-3.9-2.5-1.4-.9-1.5-1.3 2.4-.9.3-.3 2.5-.3.4-4.5-1.4-.3-.5-.8-.3-.5.5-2 2.4H215c0 .1-1.3-1.2-1.3-1.2l-.4.2-2.2 5.2 2.7 4.1-3.6-.7-.9-.5-.9.5-2.6-1.3-2.3 2.9-3.3 1.1-1.3 1.9.4 1.7-2.5 2.6-1.4 1.2-1.2.3-.8 1.5.6.9 4.2.9 1 1v.7h-.1l.8 1.5 1.6 1.1-.3 1.3-1.6.7-.6 6 .5 1.9-1 1.6 1 2.5.4.2-.8 2-2.1 1.8v3.4l1.6 1.4 2.7-2 .4 1.1 2 1.2 1.4 1.2.9.3 1.6-.7 1.7-.6 1.6.5.5.8v2.5h.1l1 1.5-.5 1-2.4-1.1-1.9 1.1-.9 1.4.9 2.3-.3 2.8-1.4 1.1-.8 3.6-1.4 2h-2.3l-.8.8-2.1 2-2.3-1.8-3.9 1.9-.3.7h-2l-.1-.7-1.3-.8-3.2-1.1-.8-1.8-.9.5Z"/><path id="KR-44" d="m88.1 220.3.7.6h-.6v.8l-1-.5-.4.5-.2-1.1.8-.6v-1h.5zm2.7-6.6h.9v.9c.1 0 1.3.4 1.3.4l-.5-1.1 1-.8-.2-1.7-1.9-1.4.8-1.1-.7-1.1v-1.4c.1 0-.7.3-.7.3l.3-1.6-1.7-1 .6-.7-.8-1.1v-2.5l-1.2-.5 1.2-.8v-.9l-.7-2-1-.5-2.9 3 1.3 2.7-.2 4.1.7 1.6-.8 2.3 1.1-.3-.5 2.6 1.9.3-.4 1.5 1.4 1.2.8-.9h1.5l-.3.6Zm4-58-.4-1.6-1.9-.3v2.2l2.2-.2Zm-.9 61.5-.5-.9h-.8l-.7.3.4 1.1-2-1.1-.6 1.3h1.5c0-.1 4.1 1.2 4.1 1.2v-.7c.1 0-2-.6-2-.6zm87.8 27.6-1.7-1.5-.2-2.2 1-2.2-.2-2.4-1.5-2.4-2.2.2-3-1.4-2.6 1.7-1.7 2.2-2.9-1.7-1.7-2.9-.5-2.7h-1.2l-.2 6.4-.7 1.7h-1l-.7-2.4-2-.7-1.2-1.7-.2-2.7-1.7-1.5-.2-3.2-1.3-1.6-1.4-1.1-1-2.4v-3.2c.1 0-.1-2.2-.1-2.2l-1.1-3.1-2.1-1.2-1.5-2V207c-.1 0 .7-1.9.7-1.9v-5.2c-.1 0-.3-2.6-.3-2.6l.5-1.9-.2-2.4-.4-1.6-.8-1.6.3-1.4 2.1-.8 2 .6 1.2 1.3 2.1 1.3 2 .7 1.9-.2 3.9-6.1 2.9.2 1.2-1.5-1-2.9-2.4-1.7h-2.3l-.8-.4v-1.6c.1 0-.3-.4-.3-.4l-1.2-.6-.2-2.1-2.2-1.5-.7-1.9-4-.5-2.6-2.6-2.3-1.1h-2l-2.4 1.7-3.9 1.4-5.9-1.4-2.7 1.6-3.5.8-2.8-.5-1.2-3.9-.9-.3-1.3-3v-1.1l-5.8-1.6-.3-.6-5-.2-5.3-3.2-1.7-.3-1.2-1.8-1.6-.6-.7.5-.6 1.1.4.4-2 1.9.8 1.5-1 .5-2.1-1.1-3.1-.3-1.6.8-.6-.4-1.5 1.3-.6-.3.2 1.4 2.5.6.6-.4.3 1h.8c0 .1-1.3 1.2-1.3 1.2l-.6-.9h-1.9l-.2.8h1.1c0-.1.1.8.1.8h.7c0 .1-.1 1.2-.1 1.2l.7-.7.9.2.7 1.4 1.3-1 .7.3v1.2l-1 .5.3.9 1.7.6-2.6.8v1.2c.1 0-1.4-.2-1.4-.2l-1 .6.5 1.7-1.1 1 .7 1.5-1.6-1.4.3-1.3-1.3-.2-.9 2.1.8.6-.2.9.7.9-.9-.4-.7.7-.6-.3v.8h-.8l-.3.9-.8-1.8.2-.6 2.4-.7v-.5c.1 0-1.5-.4-1.5-.4v-.9l1.4-2.9 1.4-.7h-.8v-1.3c-.1 0-1.4-1.2-1.4-1.2V165l.7-1h-.8l-.6-.7.8-.2v-1.2c.1 0-1.7 1.4-1.7 1.4l.8 4-.7 1 .3.8-2.9-.8.3-.5h-1.2l-1.8 1.6-.7-.6-.4 1.8h-1.5c0-.1 1 .8 1 .8l-.7.5.5 1.3h.8l-1.6 2.1 1.1 1.2h-.9L76 180l-1.5-2.9-.5.4v-2.9h-.8v-.8l-.4.6-.5-.2.5.8h-.7l1 1v.9c-.1 0-1.2.8-1.2.8l.6.5-.3 1.2-.8.7-.3-.4v1l-1.4.3.9 2.2h.7l-1.1 3.9 2.4-2.1-.9-2.9 1.2.7 2.8-.2-.8 1 1.5.8 1-.5-1 1.8.8-.5.7.5-1.2 1.5-2.8-1.2-1.4 1.1.4 2.6 3.1.3.8-1.8 1.8-.2.5-.6-.2-1.4h1.6l1.5-1.1.3.6-.6.2v1.7l-.9 1.1.2 1.7 1.7.2.8 1.8v2.5c.1 0-.7.6-.7.6l-.4 2.3.8 1.4 5.2-4.5 3.4 1 3.9 2.8.6 2.4-.5 1.3 1.8 2.3 1.2-1 3.2 2.3-3.3-1.8-1.6 1.7-.2 2.7.4 2.2 1 1-.2.9 2.1-1 .2-1.1h.6l2-2.6 1.9.8 1.7-.6-.8 1-2.1-.4-.5 2.2H102l-1.2 1.1h-1l-1.9 1.3-.7 1.5-.3 2.5h1.4l3.7 2.6 2.6.5-2-.2-3.2 2.2h-1l3.6 5.5-1.4 2.5.7 3.5-1.2 1.3v1.7c.1 0-.5.8-.5.8l-1.9-.2v2.2l.8.8.2-1.9.9-.3 2.1.7.7 1.4 1.1-1.1 2 1.7 1 2.3.6-.6.8.4v.7l.9-.3-1.9 1.5.8-.2.2 2.2h.8l1.8 1.9-.6.4v1.7l.6.6.9-.5 3.4.8 1.1-1.7.5.3 1-.4 1.2 1.1 9-3.9v-6.6l3.7-2.1 2.9.5 2.9 1.8 1-.3 1.7 1.6.2 2.9h1.9c0 .1.4 1.7.4 1.7h2c0 .1 4.4-1.5 4.4-1.5l2.2 1.5 4.2-.2-.5-2 3.4.2 1.9-1.6.9 1.3 2.3 4 1.7 5.6 3.9-1.2.5 3.9 5.1-.2.7-1.5v-1.7c.1 0 .9-.1.9-.1l1.5-.8 3.2 1.9 2.2-2.2V250l-1.7-4.9Z"/><path id="KR-45" d="m116.7 250 1-.4 1.2 1.1 9-3.9v-6.6l3.7-2.1 2.9.5 2.9 1.8 1-.3 1.7 1.6.2 2.9 1.9.2.4 1.6h2c0 .1 4.4-1.5 4.4-1.5l2.2 1.5 4.2-.2-.5-2 3.4.2 1.9-1.6.9 1.3 2.3 4 1.7 5.6 3.9-1.2.5 3.9 5.1-.2.7-1.5V253c.1 0 .9-.1.9-.1l1.5-.8 3.2 1.9 2.2-2.2v-1.9l.9-.5.8 1.8 3.2 1.1 1.3.8v.7h2.2l.3-.7 3.9-1.9 2.3 1.8 2.1-2 3.7 7-1 3.9-1.8 1.2-1.6 3.6-2.4 1.5h-1.1l-1.4.9-1.6-.3-.5.4-1.3 3.2-3.9 3.7-.6 3.8v1.5c-.1 0-.8.6-.8.6l-4.1 11.3v1.8c.1 0 2.3 1.1 2.3 1.1l.3 2.3 1 1.8-.5 2.6.5 1.5 1.3.3-.4 3.1-2.9 2.8-.9 2.5.4 2.2-1.7 1.8-.2.2-5-3.5-3.6-1.6h-1.6l-1.4.9-2.3 3-1.4.4-2.5-.3-1.9.5h-4.8l-.9-.5-1.1-1.1-1.5.9-2.5-1.1-1 .7-.8.7-2.4.9-1.6-.4-2-1.5.3-2.8-.8-2.3-1.6-.5.8-1.8-.4-3.5-1.1-.8h-2l-.8 1.3-.8.5-.5 2.4-.8.5-1.5-.4-2.8-4.4-3.2-2.3-2.4-.5-1.2 1.5-.8-.2-1.2-.3-1.8.8-.6 1.6-.3 3-1.3 1.3.2.6-.5 2.3-1.9 1-2.5.8-1.2 1.2-1.6.6-.8-.3h-1.6l-1.1 1.3-3.4.2-.3-1.3h-1.3l-1-3.2-1.5-1.7-.7-4.4-1.5-1.2-1.5-.5-3-.4 4-7.7 1.1 1 .2-1.2 1.4-.9 1.7.7 1.7-1.6 2 .3.2 1 1.2-2.8h.4v-.8l1.1-.3 1.3.4 1.9 2.4-.2-2.6-.8-.5.9-.8h-1.1l-1.6-1.3-.2.7-1.2-.2-.6.7-1-.8-.3.6h-3.8l-.9.8h-.7l-.3-.8-.5.8-1.3-.6-.9-1.6-1 .5-.6-1.3.8-1.5-1-.8 3.4-1.9 2.6-2.8 1.4-.9.9.5 2-1.7 2.4-3.3-.6-3.4.8-1.3 1.5.7 3.6-.6 3.5.9 1.6 1.4 1 2.4.5-.5-1-.3.5-1.8-.5-2.3-6.9-3.9 1.1-1.2 2.5-1 4.2.2.7-.9v-1.6l2.3-1.1h-3.3c0 .1-1.3 1.4-1.3 1.4l-2.2-.2-1.7.6-2.6-.8-1.1 1-4.1-.2v-5.1c.1 0-3.4-.4-3.4-.4v-.9l-1.5-1.2.6-.7 3.8-.3.9.8.6-.7 4.5-.6 1.3-1 2.3.9 1.3-1.5.2-1-.7-.2Z"/><path id="KR-46" d="m68.1 406 .3.9-1.4-.9-.5.9-.2-1.3h-.8v1.3l-.4-.9h-1.9c0-.1.1-1 .1-1l-.7.2 1.3-1.2-.2-.2.7-.8 1 1.3 2.6-.7v2.4ZM89 387.1l.7-.5-.4-.9-1.9-1.3-.5-1.4-.7.2.5-.9-1.9.6-1-1.2.6-.5-.6-.8-4.5-1.4v1.9c-.1 0 .7.4.7.4l-1.2 2.3-.7-.5v.9l-1 .3.9.9h-1.5c0 .1-.3.9-.3.9l.6.6-.9.4-.4-1.8-1.4 2.6-4.1 2.3.7 1.3-.5-.4-.9.3-1.4 2.4 2.1 3.6 1.8-.6.2.6-.8.3.3.5-.7 1h1.3v-.6c-.1 0 .5-.2.5-.2l.7 1.3h1.8l2.1-.7-.5-1 1 .4.7-.7.5.5.7-.9h1.3l.1-1.6 1.2.6 1.2-.6-.6-.8.7-.3.6.5-.3-.9.9.7-.2-1.4 1.1 1.4-.3.6h1v-1.3l2.2-2.5-.6-1.3 1-1.3-.9-.3v-.7l1.2-.3.5.7v-1.3l-.6-.4Zm-32.7-21h.8c0-.1-1-1.6-1-1.6v-1.1l4-.5.3-1h.9c0-.1-.2-2.3-.2-2.3l-1.6.2-.8 1.5-1-.2.2.5-.9.6-3.1-.5.3.9-.6.3v-.4c-.1 0-.4.6-.4.6l.5.5-.6 2.6 2.2 1.4 1.7-.5-.6-.9Zm62.3 37.5-1.6-.6-1.4-2.9v-2.2l-.8-.9-2.7-1.4-3.2 1.5v4l.5.5-.4.7 1.5.3 2.2 2.8 1.2-.5 2 1v-1.6c-.1 0 .8 1.2.8 1.2l2.2.4-1.1-1.5.7-.8Zm-59.3-36.2-.8-1.9v1.4h-1.1v1.6l-.8-.4.2-.5-1.6.3-.2 2.3.5 1.3.9-.6v.9l.6.4 1-.8v1.2l.7.2 1.2-.5v-.8l1.2-.8v-.8c.1 0 1 .2 1 .2l.4-.9-3.1-1.7Zm52.8 47.9-2.6-1.7-.5 1.2h-.7l1.4 1.5-1.6 1.7v1.3l.5 1.3 1.1-.6v1.3c-.1 0 .7.4.7.4l.7-.8v-2.1c-.1 0 .8.3.8.3l.2-.8h-1l-.8-2.1 1.6-.2.4-.6Zm-5.7-3.8-2.2-.4-.4.6-.4-1.1h-1.1l1 1.4h-.7l-.2.7h.8l-.9.5.3 1-.7.3 1.3.3v.9l2 .4-1-1.2 1.6-.4v.7h1.4l-1-1.5h1.4l-.5-1.4-.6-.8Zm-1.9 4.8-.5.8-.4-.9-1.1.2-1.2-1.3-2.6 2v1.9l.6 1.5h1.1l3.7-2.1.2-1.2.9-.5.9 1.6V417l1 1.1.4-1.5-.9.3-2.1-.7Zm-41.7-35.2h.8l.4-1.1.5.8 1.4-.4.3-.9-.3-.9-.6.5.2-1.6-1.1.3-.7-1 .6-1.7-.8.2v-.6c.1 0-1.3.3-1.3.3l.5 1.1-.4 2 .6-.3.5.4-.5.5v2.3Zm18.6-27.7-.6 1.4-2.2-.7-.4 1.4 2.6.8 1.2-1.5 2.5.3.3.7 1-.4 1.1 1.5-1.3.8.3.5 1.4.4v-.7c.1 0 1.3-.2 1.3-.2v-2.9l-.8.3v-1l-2.4.2-.8-.6.8-.4-.8-.6h.9v-1.1h1.9v-.6l-1.1-1h-1.8c0 .1-1-1.1-1-1.1l-1.2.8 1.6 2.3-.8.5-.9-.5-.2 1.3.6.5-.9.3-.3-.8Zm-10.6 13.1h1.1l.5 2.3 2.2-.4.2-1.4-1.4-3.2-1.4.5-1.3-1.7-1.4.4-1.4-.7-.3.9h-.5l.3 1.1-.7 1.7 1.6-.9v.8l.6-.2-.3 1.5h.9c0-.1.5.5.5.5l.7-1Zm4.3 8 .2-1.2-2.4-1.8-.8.2-.5 1.2-.6-.4-.2.7h-.9l.2.9.8-.5.5.6-.8 1.3.6 1.3 1.6-.4.4-.7 1.3.4.5-.8h1.2c0-.1.2-1.1.2-1.1l-1.2.4Zm-1.3-39.1v.6c.1 0 .9-.2.9-.2l-.4.6 1.5.3.3-.5.7.8h1.4c0-.1.8.4.8.4l-.3 1.3h.7c0 .1.7 1.4.7 1.4h1.1l.8-1.4-.9-.6-.3-1.9-1.1-.8.4-2.1-.4-.5-1.1.7-.3-.8-1.5.3-.8-1-.8.2-1.8 1.1.6 1.4v.8Zm-6.9 20-1.2.2 2.4 3 .3 1.6 1.7-.3.4-1.1-.7-1.3.6-.9.9.4 1.3-1-1.4-.9v-.6h1.4l.5-.6-1.1-1.4-.4.6-1.7-.7-.5.3v1.4c.1 0 .8.6.8.6l-.4.7-2.4-.9-.5.7Zm6.4-13.3.5-1.5-3-1.1-2.2 2.3 4.6.2Zm-13.6 12.1 4.1.4.8 1.4v-1.4c-.1 0 .5-.2.5-.2l.2.6 1.1-.3-.3-.6h1.5l-.5-1 1.5-.7-1.1-1.2 1.2-1.1-1.1-.2.6-.9-1 .2v-1l-1.6-.7.3 1.7-.5.7h-.8c0 .1-.3-.7-.3-.7l-.5.9-1.4-.3-1.7 3.3H59l1.1.7-.4.3Zm6-18v-.3c.1 0 1.4-.2 1.4-.2v1.3l1.8.8v-1.2h1.2l-.6-1.2 1-.2-1.4-1.4.2-1.2h.9l.2-2.5 3-1.3-3.6.2v.9l-2.3 2.3-2.5.4-.5 1.8 1.2.7-.2.7-1.3-.2.8.8.7-.3Zm-45.6 34.2-1-.6 1-.8-2.4.4v1l-1.6 2.3.8.8-1 .5.7 1.3 1.2.4v-1.3l1.2-.5-.4-1.2 1.5-.4.2-1.6 1.5-.5-.8-.8-.9 1.1ZM128.6 415l.4-.9-.6-.7.6-.9-1.5-.4-1.5.7v.6c-.1 0-1.1.2-1.1.2v2l-.8.3.9.4-.8.7.6 1.1.9-1.4.9 1.5 1.4-.5.6.5.8-.7v-2.6c.1 0-.8.3-.8.3Zm65-62.8v-2.7c-.1 0-1.4-1.3-1.4-1.3h-2.1l.2-1.4-.6-.5-2 2v1.6l4.2.9.4.5-.2-2.1.7-.3.7 3.1v.2Zm.3 27.1 1.2-.5v-.7c.1 0-1.3-1-1.3-1l.2-1.7.7-.3v-2.3c-.1 0 .4-.6.4-.6h-.8l.4-.5-1.2-.3-.6-1 .2-1.5-1 .3-.5-.8.5-.6.7.5v.2c.1 0 1.2.2 1.2.2l-.2-1.6-3.5-1.5.5 1.8h.9c0 .1-.1 2.1-.1 2.1l1.1.5-1.4.2-.4 1.1-1.8 1.2-.5 1.1.5.7-1 1.2 2 .9.9 1.7h1.1l1.9.7Zm-6.6-12.5-1.6-1 .3-.5-1.4-.8v-.6l-.4.1v.8c.1 0-1.6 2.4-1.6 2.4l.6 1.1-1.2-.4v-.6l-.3 1h-.6l1 1-.3.8 1.1.3-1.2.5 1 1.7-.5.4 1 .4-.9 1.1h.8l.3.9-1.6-.2-.8-1.3-1.9-.8-.9.3.3 1.7-2.2-3.2.9-.9-.9-.3v-1.2l1.9-.7h-1v-.7l-.8.7.3-1.2h-.6l1.2-.9-.2-.7.5.4.8-.4.3-1.1h1.5l-1.4-.4.5-.6-.5-1-.8.8v-1.2l-1-.3 1.1-.6-1.1-1.1v-1c-.1 0-2.5-.2-2.5-.2V358c.1 0 1.4-1.7 1.4-1.7l-1.3-.2-.6-3.1-2 .5v2.4c.1 0-.3.6-.3.6l-1.4-.4-1.8.7-.4-1.1-.3 1.1-2.6 1-1-1h-1.8l1.7.8.7 1.1h2.6l-2.4 1.6-.6 1.6h-1.5l2.7.9-.3 1-1.9 1.5 1.2 2.7 2.6 1.8.6 1-.3.5h1.4l-.2 1.1.9-.6v.6h.7l-.4-.8h1.2l-.3 1.5 1.2.4v.7l-.9-.5-.3.6-.7-.7-.4.3.7.7 2.2.5.6 3.3-1.3 1.1v.8l-2-.6-.3-1-1 1.3-.8-1-1.2.5-.7-.7-3.1.4v.5l1.9-.1.2.7 1-.6-.3 1.1-1.7.3v.8c-.1 0 1.4-.4 1.4-.4l1.8.3-.5.4 1.1-.2.3 1.8-1 .3.5 1.7-1.6-.7-.3 1.3-1.1-.5-.8.6.9 1.1-.2.7-.7-.4-.7.6-1-1-.4 1.3-.5-.5-1.3.6.9.8h-1.3c0 .1 1.3.9 1.3.9l.2.8-.9.6-1.7-.7v-.5h.9l-.6-.8h-.9l.3-.7-2.4-1 1.1-1.5-2.2-2.1h-.8v.6l-.9-.3.2-.6-1.9-1.6v2l-1.9-1.3-.7 1.4-.4-.5-2.3.3-1.2-.6v-1l-.7-.5.4-1.5 2.1-1.9.3-1.5.7.8 1-.3v-2.8l2-2 2.1-.5.3-1.9.9-.8-.3-1.3 1.7-1.5.5.4.8-.6.4 2.2-.6 1.9.6.6 2.1.2 1.3-3.9.9-.3-.9-.4-.5-3.3-1.6.2-.9 1.7-1.5-1-.6.9-1.4-2.6-1.2.3-3.3 5.7h-3c0 .1-1-.8-1-.8l-2.3 2.9-2.3.8-1.4 2.3-2.2 1h-1.8v.9l1.1.6-.8.3-.5 2-.8.7.7.5 1.3-.2v1.2c-.1 0-1.4-.4-1.4-.4v1.9l-1.2-.3-.9 1 1.3 1.6-.7.4-.3 1.2 1.2 1.6-1.6.6-1.1-1.2-.5.6.8 1.8-.7.8-1.3-.6h-3.7c0-.1 1.2 1.8 1.2 1.8v1.1c-.1 0-1.1-1.4-1.1-1.4l-2-1.2-2 .3-1-.7.2-1.1h-1.6l.8-1-.7-3 .8-3.1-.5-.4.3-1.3-.7-.8.2-.9-.8-.7.7-4.1-1.2 2.1-.5 7.4.4.5-.8.5.5 2.1-2 1.2.6 1.2-1.7 2.6-1.9.2-1.8 1.1v.7l-.7-.6-1.1.4-.4 1.2-.8-.2-.4.8-.4-.4-.5.6.4.4-.7.9.7.6v1.8l-1.4.8.5.4-.6.8.4 1.9-3.4-.7-1.2 1.7-1.1.2-.3.8-.7-.2.2-1.7-.5-.4 1.1-1.3-.5-2.4-1.1-.5-2.5 1.6-.5-.8.2-.5.7.7-.2-.8h.8l-1-1.7 1.9-.3-.8-1.9 1.3.7.8-1.3-.6-2.2-.9.7-1-.2v.8l-2.1-1.9.7-.7.3-.2v-1.3c.1 0-.4.2-.4.2l-.6-.7.8-.6-.7-1.6 1-.6-.6-1.1h-1.5c0-.1 1.7-1.4 1.7-1.4l-.2-.6-1.6.5v-1.2l-1.8-.6.2.9-1.2.2v.7l-1.1.5-.6-.6.7-1.8h-1.7l-2.2-1.2-1.6.5-.7-.9.7-.8-2.5-.9v-2.3l1-.8-.3-.4-.3.5-.9-.2-.9-.9-.3-3.3.6-.5v-1.9c-.1 0 .3.3.3.3l.5-.9.8-4 1-.4.8.8-.2.6h1l.8 2.4 1.4 1.1-1.2 1v2.2c.1 0-.4.8-.4.8l2 1.1v2.3l.9.5.2 1.4.8-1.2 5.3 3.2v-.7c-.1 0 2.1-1.1 2.1-1.1l.3-.9-.7-.4-1.6.8-.3-2.3-.9.9-.6-1.9-.8.2.4-1.4h-.6v-.7h-.7l-.2 1-1.1.7-.8-.7 1.3-1.5-.6-1.9.9.7.4-.3-.6-1.4h-.8c0-.1.8-.9.8-.9l1.4 2.7 1.3-1.5.4.5.4-.7.9.5-2 2.8.9 1 .8-.3v.7l1.3.9 3.1.4 1.2 1.1.8-1-1-.3v-1.1c.1 0 1.8.2 1.8.2l.2.7 2.6 1.1h2.8c0-.1-2.2-.8-2.2-.8l-2.4-1.7.2-2.1h-1.9l-.9-2.4-2.1-2.5-1.9-.2-1.1.9-.6-1.3-1.3.4-1.2-.8-1.9 1.4-1.8-.7 1.3-1.2-.2-1.2.9-.3v-1l-1.6.1-.6-1.7 2.3-3.3 1.4-.5-1.3-2.3.5-1-1-.3.2-1.5h.7l.3-1-1.2-1.5.5-.6-.6-.9.4-1.7-.9-.6-.7-2.5-.2 2.2-.7.5v.6l1.2.5-.7 1.1.6.4-.6.7.3.7-2 .8H86c0-.1-.2-1.4-.2-1.4l-1.5.2v-.6c-.1 0 1-.8 1-.8l-1.9-2 1.3-2-.2 1.1.7-.5.6 1.3 1.5-.8.7-1.6-1.5-.3 3.8-2.5v-1.2l-.8-.9-2.1.6-.2-1.6-1.3-.3 1-.8-.9-1.7h-1l-.1.6-1.1-.8.9 1.8-1.1.8 1 .7-1 .9-1.2-1.6-1.6.8-.5-2.4-.8-.5.3-1h1.3c0-.1-1.7-2-1.7-2l.6-1.5.6.2-.2-1 1.2-.7.6 1.5.8-.7 1.1.3v1h1.1l.7-1.3-.5-.6h.8l.8-1v2l-.5 1.8-.6.2v1.9c-.1 0 .8.2.8.2l.7-.8-.6 2.1 1 .3.6-.5.2 1.5 1.7-2.2-.5 1.8.9-.9.8 1.2-1.2 1.8h.8v1.4h1.7l-.5-1.4 1.6-1.1 1.1-1.8-1.6-.7 1.6-.5.5-.9-3.2-.6-2.8-4.6-1.7-1 .2-1.1-.8-.4 1.3-.4.5-2-3.2.7-1.2-.6-.2-1.4-1.1-.9.9-1.6 1 2.2 1.1-1.1-.4-.8 1.3-1.7-.2-.6h-1.4l.6-1h2.4l.6-4.1 1.4-3.5 3.7 1.2-2.7-1.9-.6-1.9.3-1.8 1.2-1.1 3.5-.2 1.5.5 1.5 1.2.7 4.4 1.5 1.7 1 3.2h1.3l.3 1.3 3.4-.2 1.1-1.2h1.6l.8.2 1.6-.6 1.2-1.2 2.5-.8 1.9-1 .5-2.3-.2-.6 1.3-1.3.3-3 .6-1.6 1.8-.8 1.2.3.8.2 1.2-1.5 2.4.5 3.2 2.3 2.8 4.4 1.5.4.8-.5.5-2.4.8-.5.8-1.4h2l1.1.9.4 3.5-.8 1.8 1.6.5.8 2.3-.3 2.8 2 1.5 1.6.4 2.4-.9.8-.7 1-.7 2.5 1.1 1.5-.9 1.1 1.1.9.5h4.8l1.9-.6 2.5.3 1.4-.4 2.3-3 1.4-.8h1.6l3.6 1.5 5 3.5-.6 1.8 2.1 2.3.7 7.2 5.1 5.1.2 2.3.9.8 2.8 3 1.4 1 1.8 6.4h-2.2l-1.1-2.4-2.3 1.3V343l-1.2-1.6.9 4.1-1.4 1.6-1.6.6.2 1.1-2.5 1.2-.7 1.1-.7-.9.3-.4-1.6.2-1.2-1.8v-1.9c.1 0-.4-.5-.4-.5v2.3c-.1 0-1.6.4-1.6.4l1.9 1.5-.4.6h-.3c0 .1-1.5.8-1.5.8l1.1.4 1.2 2.9 2.3.5-.7 1 .9 1.1v-.9l1.8.6 2-1.4.7-1.2v-.2l2.6-.7-.7.7 1.4.5v-.6c-.1 0 1.7-.6 1.7-.6l1 1h-.7c0 .1-.2 4.8-.2 4.8h-.7l-1 2 .8 3.6h-1.6l-.2.9-2.3.4Zm-52.4-40.9-.8-3.6-1.5-1.8-1.4-.7h-1.9l-3.5 1.5-1.6 1.6H123l-2.8-1.6-.5-1.7H118l-1.6 4.1h-1.8l-1.4 1.6-.9 3.8.3 3.2 5.7.8 2.9 4.8h2.9l2.7-1.6h3l1.2-.8 2.5.5 2.7-1.8 1.1-1.4 1.4-4.8v-1.1l-1.6-.8-2-.2ZM174 391l-1.1-1.8v.9l-.6-.3-.3.8h-.7l.5-.7h-1.3c0 .1-1.4-.8-1.4-.8l.3 2-.6.4 1.7-.4.8.5-.2.5-1.5-.2.9 1h1.3l-.4 1.4.4.5 2.1-1.3.8.4.6-.7v-1.6l-1.3-.5Zm18.2-5.1 1.1-.4-1.4-1.8-.4-1.7h-1.3l-2 1.4h-1.1l1.7 1.3 1-.3-.6.9 1.2.5-.5.7h1.4v.3l1.3.2-.7.4 2.1.4.6-.9-2.3-1.2Zm-2.9-34.2-.7-.6-1.4.5-.5.9.7.6-.4.3 1.8.4.7-1.5 1.2-.3-.3-.4h-1.2Zm-70.2 45.7-1 2 1.1.6v-1.5l.9-1.1h2l.4-1.6 1.8 1h1.2v-.7h-.6V395h-.8l.2-1-.9.6-1.1-.8h1.4l.2-.8-.9-.2v-1.1l-3.4 1-1.7 2 .3 1.1-1.3 1.8zm51.1-9.4 1.1.2.3-.5.5.5.9-.6-1.1-1.5-2.3-.2v-.6c.1 0 1.1.3 1.1.3l-1.2-1.4 1.4-.6-.4-.7h-1.2c0-.1-1.7 2.1-1.7 2.1l1.6.8-.3.4.5.3-1.3.8.7 1.2h.8c0 .1.6-.6.6-.6Zm24.6 3.1.2-.8-.8.4.2.7-.9 1.7 1.2-.2-1.2 1.3.2.4.7-.4v.6h.6l.8-3.9-.6.4-.5-.3Zm-61.6 10.1-.9 1.1.2 1.7.4-.3.6 1 3.1-2v-.7c-.1 0-1.3-.7-1.3-.7h-2.2Zm-7.6 2.3v-.7l.4 1.1h.8l-.2-1.9h1.2v-1.3l-1.3.7-.6-1.1-1.1.3v-.5c-.1 0-.6.7-.6.7l-1.2-1.3-1.1 1v.8c.1 0-.9.4-.9.4l-1.3-1.1-1.1 1h-1.7l2.1.7.9 1.1 1.1-1.1h1.5l.9 2.6 1-.9.9-.4Zm16.2-4-.7-.4-2.3 1v-1.5l-1.2-1.1-.2.7h-1.3l.5.5h-.7v.9l-1.7-.2 1.7 1 .6-.6 1 .7.3.6-1.1.2.9.5 1.6-.7v.6c.1 0-1.1.9-1.1.9l.3 1.4 1.3-2.2 1.6-.4-1.3-.2.4-.7 2.6.9-1.5-1.4.2-.4Zm-12.8-3-.5-1-.5.5-.4-.5v.7c-.1 0-.9-1-.9-1l-.6.6v-.7l-.7-.3-.2.5.7 1.1-.6 1.9.5.4 1-.5.2 1.3 1.4.5 1.3-.6.3-.9 1.4.3-.5-1.5.8-1.7-.4-.9-1 2h-1.4Zm24.4 12.8v.9h-.7l-.6 2.2 1.2-.5 1.3.7-.6-.9.9-.2-.3-2.4-1.1.2Zm-2-22.1-1.1.7-1.6-.2-2.7 1.6-1-.5-.3-1.1h-.6l-.1 1.3-1.6.5 1 1.4-.5 1.1 1.3-.5v.8l1.9 1.7.5-1 1.2.2.2-.6 3.2.5 1.9-4.1-1.4-1.7Zm-14.3 3.6.9.5.3 2.5.6.6.5-.2-.2-1 .8.2v2.2c.1 0 1-2.5 1-2.5l-.7-2-.8-.6-.3.6-.5-.7z"/><path id="KR-47" d="M495.6 137.2v.2l.2.1h-.1v.1h-.2v-.3h.1Zm.4.2v.2c.1 0-.1.2-.1.2v-.2c-.1 0 .1-.3.1-.3Zm-.5-.5c0 .1-.1.3-.1.3v-.2Zm-70.6-27.4.7.2-.8 1.1.8 1.4-.6 2 .7.5-2.8 1.5-.6 1.5-4.9-1.9-1.1-4.5.6.4 3.2-1.6 3.5-.5.6-.7zM250.5 284.9l-.4 2.4 1.3 2.9 3.5 2.7 4.6-.9 5.8 2.1 1.5.4 4.3-3 .8.2 3.9-3.3h1.6l2.3.7 2.9 1.2.8-.3 3.7-3h1.3c0-.1 1-.7 1-.7l-1.2-2.8 3.7-2.4 2.4-.8 3.3-.3 2.3 1.5 1.6.2.9 1.1-.3 2.2.8.9 1.5.5 4.2-1.9 6.4 1.7 2.4.2-1.1-1.1-.2-1.8 1-1.9h.8v-1.3l.9-1-.3-1.4 1.9-5.9-.5-1.5 1.5-1.6-.2-1.7 1.9-4.3-1.3-.3.9-.8-.3-1 .7-.6-1.2-2.5 2.3-2.1.2-2.5 2.4-3.4-.5-.7.5-1.9-.9-2.9-.9-.8-1 .2-.7 1.8-2.4 2.6v1l-3.3 1.9-.2 1-.6.2-2-.8-.2-1.7-1.8.5 1.1-1.5 1.8-.2-2-.7-1.3.9-.8-1.3.5-1.8 2.7-1.1v-1.1c-.1 0 .9-1.3.9-1.3v-.8l-2.3-2-.4-4.7-1.1-.5-.7-1.2 1.1-1.8v-1.8l-1-1.1.6-2-.5-1.2 1-6.3 3.6-6.5-.2-4.9 1.4-2.3-.7-.6-.2-3.6-2.1-2.9v-3.6l1.9-4.4.9-.8h1l1-1.8-.4-2 .4-1.1-.7-2.2.8-.9-2.4-6-1.3-1.5-1-3.4.4-5.4-.9-3.1.8-1.5-.8-3.3.5-.4v-2c-.1 0 1.1-.3 1.1-.3l-4.1-4.1.3-1.6-3.4.6-1.5 1.7-2 .7-2.2 2-1.2 1.7v1l1.2 2.2h-5.1c0 .1-2.1-1.7-2.1-1.7l-2.3-.8-2-.3-2 2-5.8-2-2.6.6-.5-1-1.3-.5-2.3 3.4-.7 1h-3.2l-4.9-3.4h-1.6c0 .1-.4 3.8-.4 3.8l-.9.9-2.4-1.1-1.5.2-3.3-1.8-1.7 1.7-1.7-.2-1.8 2-.5.2-2.6 2.5-2.2.6-.6 1-2.8 2.2-2.5 4.4-.7 1.2v1l1 .5.6 2.3-2.2 3.1-3.1.6-.7.8h-1.9l-1.7.1-2-3.9-2.5-1.4-.9-1.5-1.3 2.4-.9.3-.3 2.5-.3.4-4.5-1.4-.3-.5-.8-.3-.5.5-2 2.4h-1.1c0 .1-1.3-1.2-1.3-1.2l-.4.2-2.2 5.2 2.7 4.1-3.6-.7-.9-.5-.9.5-2.6-1.3-2.3 2.9-3.3 1.1-1.3 1.9.4 1.7-2.5 2.6-1.4 1.2-1.2.3-.8 1.5.6.9 4.2.9 1 1v.7h-.1l.8 1.5 1.6 1.1-.3 1.3-1.6.7-.6 6 .5 1.9-1 1.6 1 2.5.4.2-.8 2-2.1 1.8v3.4l1.6 1.4 2.7-2 .4 1.1 2 1.2 1.4 1.2.9.3 1.6-.7 1.7-.6 1.6.5.5.8v2.5h.1l1 1.5-.5 1-2.4-1.1-1.9 1.1-.9 1.4.9 2.3-.3 2.8-1.4 1.1-.8 3.6-1.4 2h-2.3l-.8.8 3.7 7-1 3.9v1.5l1 1.1 1.6.3.6.3.2 2 .7.4 3.1.4 1.4 1.4 5.5.4 1.2.6 1.6 1.2.6 2.3.5.4 1.6.8.3 1.4 2 1.2.7 1.4-1.6 4.8-.2 1.3.7 1.3 3 1.2 2.7-.5 2.3-.9 3.5 1.1 1.8 1.7 1.3 1-.6-2.7-3.2-3.9.2-2.2 2.7 1.5h1.7l.5-2-2.4-2.7 1-2.4 1-2.2 4.2-.7-.2-1.5-2.2-1.7-3.7-.2 1.2-4.6 1.7-2.4 3.2-1.5.5 4.4h2l2.7-6.4 4.6-1 2.2-2.4 2.7-.7 2.4.2 2.9 2.4.5 5.9 1.5 3.2-.7 1.7-2.7 1-1.2 2.7v2.4l-2 .2v1.5l1 1.2v3.2l-2.7 1-1.2 1.5-2.2-.2-.5-2.2h-2.4l-1.7 1-1.2 2 .4 1.2 1-.2.5 1Z"/><path id="KR-48" d="m204.1 264.3 1.6.3.6.3.2 2 .7.4 3.1.4 1.4 1.4 5.5.4 1.2.6 1.6 1.2.6 2.3.5.4 1.6.8.3 1.4 2 1.2.7 1.4-1.6 4.8-.2 1.3.7 1.3 3 1.2 2.7-.5 2.3-.9 3.5 1.1 1.8 1.7 1.3 1h1.9l2.7-2 1.2-.3 1.9.7 1.1-.7 1-3.3 1-.2.5 1-.4 2.4 1.3 2.9 3.5 2.7 4.6-.9 5.8 2.1 1.5.4 4.3-3 .8.2 3.9-3.3h1.6l2.3.7 2.9 1.2.8-.3.6-.6 1.2 1.9v1.2l-.9.8-1.7 1.5.3 3.8 1.7.8h2.1l1.9.2 2.6 2.6 4.4 4.6 2.4.2 1 1.2-2.3 2.1-.4 1.5-3.8.4-2.8 5.2-1.4-.2-3.1 1.9-3.2 3.9h-3.3c0 .1-3 2-3 2l-1.8.2-.3 3.9-5.4 2-1.4 1.7-.8-.6v1c.1 0-1.6-.5-1.6-.5l-.9.8-.3-.6h-.7v-.6h-1l-.5.6-.6-.6 1.2-1.7-.5-1.4-.7-.2.2-.8-1.3.6.4 1.4-.9.8-.3-1.2-1.4-.6.2-1.1-1.4.2-.3 1.4-.5-.7-.7.2.6-.9-.4-1.5-1.2-.9-.2-2.5 3.1-1.9-3.3 1.1-1.7 2 1.1 1.3-.2 1h.9c0 .1.7 1.8.7 1.8l-1.7.4v.6h1.9v2.7l2 1.5-1.8.5.6.8 1.1-.2.7.5-4.6 1.4 1.1-.9-.3-.2h-1.5c0-.1.5.9.5.9h-.9c0 .1-1-1.3-1-1.3h1.7c0-.1-.2-1.1-.2-1.1l1.5-.9-3-.9.5-.6h-.7v-1.2l-.8 1.4-1.2.5-2-.9v.6l-.7.3-1.8-.7-.2.8 2.3 1.7-.8-.3-.3.8h-1.6c0 .1-1 1.7-1 1.7h-.9l-.3-.7-2.1 1.5-.6-.3.6 1.2-1 .4-.8 1.9 2.1-.8v-1.4l1.3-.7 3.2-.8v-1.6c-.1 0 .5-.1.5-.1l.3.6.8-1.1 1 1v1l-.2.7h-1.4l1.6.5v1.1l1.5 1.2-.7 1-.7-.4-.5 1.5-1-.4v.8l-4.1-.6v1.1l1.5-.3.9.3.2.8-1.5 1.5.5.2-.3 1.3.8.7-1.3 2 .6.6-.5.6v2.2c.1 0 2-2.5 2-2.5l-.5-1.1h1l.9 1.9.8.2-.6 1.8-.8-1v1.5h-.7c0-.1.4 1.7.4 1.7l-3.1 1.1 2.2.5.2.7v1.6l-.8.1.6.7-1.5.2 1.2.9-.9 1.7-2-.3v-1.3l-.7.3.2-.9-.7-.9-.5.7-.9-.6 1.2-.7v-1l-2.4-.9-.8.7-.5-.8.7-.3-.2-1.1.5.9.7-.9.8 1.1.5-.4 1 2v-1.4c-.1 0 .6.2.6.2l.7-.6-.9.2-.6-.4.3-.7h-1l-.3-.8 1.4-1.1h2.3l-.3-.4h-2.2l-.4-1.8-.2.5-.6-.3.2 1.5-1.2-.2-.4-1.3-.2 1.2-.5-.8-1 .5v-1l-.9.6-1.4-2.1 1.1-.5h3.2c0 .1-1.1-3.5-1.1-3.5h-.8c0 .1.2-.7.2-.7l-1-.5.2 1.6-1.6.7.4 1.6-1.1.8-.6-.6v1.1l-1.2-.7v-2.5l-1.3-.2h-.2c0-.1-1.3.1-1.3.1l-.5-.5-.3.6h-1.6c0 .1.6 1.1.6 1.1v2.9c-.1 0-1.6-.1-1.6-.1l-.5-1.1-.2.9h-.6l-.5-.9-1.3.4-.7 1.2-.8-1.4-.8.2-.6-.8 1.3-1h-3.3l-2.7-1.6-.7-1.6 1.7-1.8-1-1.6.8-1.8-.3-.6-.6.5v-.4c-.1 0 .9-4.3.9-4.3l.9-.8-.5-.3-1.6 1.2-.9 3.7-1.1-.6.9-.5-.2-.5-.6.7-1.6-.7-.7 1 1.5-.3.8 2.2.9.2-.8 2.6-.8-1.2-1.2 1.6-.9-1.7-1.7 1.1.4.7-1.2-.4.3-.6-.7-.3.6-.2v-1l-1.2-1.1-.5 3h-.7l.3 1h-.8l-.2 1.1-1.4 1h-2.3c0 .1-.2-1-.2-1l-.5.3-.4-.7-.3 1.6-1.3-.2v.3l-1.8-6.4-1.4-1-2.8-3-.9-.8-.2-2.3-5.1-5.1-.7-7.2-2.1-2.3.6-1.8.2-.2 1.7-1.8-.4-2.2.9-2.5 2.9-2.8.4-3.1-1.3-.3-.5-1.5.5-2.6-1-1.8-.3-2.3-2.2-1.1v-1.8c-.1 0 4-11.3 4-11.3l.7-.6v-1.5h.1l.6-3.8 3.9-3.7 1.3-3.2.5-.4 1.6.3 1.4-.9h1.1l2.4-1.5 1.6-3.6 1.8-1.2v1.5c.1 0 1 1.1 1 1.1Zm66.8 71.6.4 1.1.8-.2.4 1.4-1.3 2.7.5.6-1 1.4.2-.5-.9-.8.6-.9-1.6-.7.7-.6-1.4-2.4 2.5-1.2Zm-10.3 3.3.6-.5 1 .4.7 1.2-.7 1.3h-.8l.4.7h-1.1l.6.5-.3 1.7 1.5.7.8 2.3h-.7l.4 2.2-1 .2.5 1-1.6.9v.8l1.1.2v.7l1.4-1.7.8.4v.6l.3 1-.5.5-.9-.2.9 1.9-.9.2-.5-.8-1.3.8.5 1.1.7-.8.6.4-.5.8 1.6 3.2-2.3-.7.4-.6-.6-1.1-.9 1.5h-.5c0-.1.2-1.1.2-1.1l-1.6-.3-.2 1.8.6.7-1.1 1-.9-.3-.6 1.4 1.1 1.9h2.1c0 .1-.4 1.2-.4 1.2l-1.5-1-2 .8v-.5c-.1 0-.5.6-.5.6l1.3 1.1v.7c-.1 0-1.1-.4-1.1-.4l-1.2 1.1-1.4-.7-1 .6.6-1.8 1.6-.8-2.2-.9.2-1.9h1.6c0-.1-.7-.7-.7-.7l.4-.7h-1.7l-1 1-.7-.8 1.1-1.1h-.8c0-.1-1.1 1.1-1.1 1.1l.2-.8-.5-.3 3.4-.9v-1.8l.8-1.3h-.6c0 .1-.8-1-.8-1l.8.2v-.5l-1.1-.6-.6 1.9h-2.6v1l-.6-.2.3.7-1 .6-.7-1.3.5-.7-1.9-.8-.7-2.9 1.5-2.5h.6l-.3-.6.6.3-.4-.6h1.1c0 .1.7-1.1.7-1.1l3 2.2h.7c0-.1-.4-.8-.4-.8l1.1-.6 2.9 2-.5-2.2-.8.2.2-.8-1.9-1.8 1.5-2.4v1.1l2-.3v-.5l1.3.8v-1.3c-.1 0 .7-.9.7-.9l-.4-.6.8-.2-.4-.6h.8l.2-.3.6-.6h-1l.6-2.2h.7c0-.1.5.1.5.1Zm-3.1.8.4 1-.6 2.8-1.4.3-.4-.5-.9.8.2-1.1 1.1-.7-.7-.6h1.2l-.2-.9 1.3-1.2Zm-55.9 6.8 1.7 1v-.6c.1 0 .6.2.6.2v4.4l-1.7.6-.3 1.2 1.3 2.1-.5.7 2.5 1.1v1.7c.1 0 1.5.2 1.5.2l-.3-.7 2.3-1.6 2.9-.2 1.2 1.1h1.1l.4 1.9h-.9l.4.8-.6.9.7 2.8-1.8 2.4 2 1.4-3 .6.5-1.5-.7-.5-.6.2v.8l-1.1-.1-.3-.6-.4 1.1h-2l-1-3.4.5-2.8-3.4 1 .6 2.9-1.7 1-2.3-.5.3-.6-.8-.3v-.9h-1l.3-1.7.8-.2-1.3-2.3.2-1.1-1.7-2.3-.5-2.2.8-1.5h.8v-1.7l.9-1.1.3.5 1.3-.2-.8-1v-1.2l.9-.3.3-1 1.7-.4Zm10.1 2.1-1.5 5 1 .2v-1.6c-.1 0 .9-1.4.9-1.4h.8l.2 1.3.5-.2.8 1v1.1c-.1 0-1 .8-1 .8l.6-.2v.9h1l.8 1.5-1.1-.7-.6.5-.8-.7-.6.2-1.8-1.2-.2.9-1.1.2-2.6-.7-.4-2.5 1-.6 1.6-2.9 2.4-1Zm12.6 5.6 2.4 1.4-2 .2-1.6 1.6v-1c-.1 0-1.1-.2-1.1-.2l-.2-1 2.5-.8Zm2.7 1.8 2.2 2.2-.4.6h-1.6c0-.1.2 1.3.2 1.3l-3.1-2.1v-.6c.1 0 1.1.3 1.1.3l-.5-.5.7-1 1.6-.3Zm18.3 2-.5.5h.7l.4 2.7.9-.2.4.6-.2.9-1.5.9-1.6-.3.5-.9-1-1.4.2-1.8.4 1.4.6-.3v-.8c-.1 0-.7-.7-.7-.7l.2-.6zm-17.7 14.8 2.2 1.2-.8.5.7.7.7-1.3h1l-.7 1.8-2-.7-1.4.7v.7c-.1 0-.8-.1-.8-.1l-.2-.4.9-.5-.6-.4.2-.6-.7.4-.3-.6.9-.3-.5-.8 1.3-.4Z"/><path id="KR-49" d="m132.2 473.4.5.6-.3.5h1.1l-.5 2.2-1.6-.4-.3-1.1 1.2-1.8Zm-3.7 11.9-2.5 1.8-.4 1.6-1.9 1.9v1.1c.1 0-.9 1.2-.9 1.2h-4l-2.4 2.5-7.1.9-2.2 2.3-1.4.5-.8-.7h-1.3l-.4 1-1.2-.7h-1.7c0 .1-4.2 1.4-4.2 1.4l-1.4-1.4-1.8.5-1.5-.8-2.6 1.2-3.3-.9-2.4 1.6v2.3l-1.1-.4-.7.5-.7-.5.2-.9h-.7l-1.7-2.3-3.8-2.2-1.4-2.3.5-2.6-.5-1.4 1.4-1.2v-1.1l2.2-1.4.9-1.4h.9c0 .1 1.7-1.8 1.7-1.8l.3-2.2 3.3-1.3.3-1.5 4.2-.8 1.3-1.1.9.6 6.2-2.4.8-1 1.6.5 1.9-.8h3.4l.6-1 2.9-.2.9-1.6 1.5 1.2.9-.9 3.6-.7 2.5.3.2-.7 2.6.9 2.2-.4 1 2.4 1.4.7.8-.5 2.6.8-.3 1h.8l.3.7-.9 1.7 1.4 1.1 1-.4.8 1.3-.4.4-.8-.5-.6 1v.8l1.1.9-.6.7-1-1-.7 3.7Z"/><path id="KR-50" d="m153.8 190.7-2.1-1.3-1.2-1.3-2-.6-2.1.8-.3 1.4.8 1.6.4 1.6.2 2.4-.5 1.9.2 2.6v2.7c.1 0 .1 2.4.1 2.4l-.8 1.9v1.6c.1 0 1.6 2 1.6 2l2.1 1.2 1.1 3.1.2 2.2v3.2c-.1 0 .8 2.4.8 2.4l1.4 1.1 1.3 1.6 1.7-2-.2-6.8 5.4-1.7.7-4.8-.5-.7h-.9c0 .1-.5.8-.5.8l1.5-4.8-.8-.9.7-2.6-2.6-.2-.4-1.1v-2.2l-2.2-2.7 1.7-.5.2-2.2-1.2-1.7-1.9.2-2-.7Z"/></g></svg>