<?xml version="1.0" encoding="UTF-8"?>
<svg id="Layer_1" xmlns="http://www.w3.org/2000/svg" xmlns:amcharts="http://amcharts.com/ammap" version="1.1" viewBox="0 0 512 512">
  <!-- Generator: Adobe Illustrator 29.1.0, SVG Export Plug-In . SVG Version: 2.1.0 Build 142)  -->
  <g id="_x3C_defs">
    <amcharts:ammap bottomLatitude="33.194810" leftLongitude="125.385069" projection="mercator" rightLongitude="131.873029" topLatitude="38.611881"/>
  </g>
  <g>
    <path id="KR-11" d="M120.4,109.3h0l3,3,.6,4.2.9.3,1.9-1,2.4,4.6,1.4-.6,2.8.3,3.3-1.8,2.4-.2.5,2.3,2.9-1.6,2.3-.2,1.3-1.2v-.9s1-.2,1-.2l1-1.3-.9-.9.3-2,2.5-1.7-1.1-2.8-3.8,1.7-1.2-.3,1.1-4.2-1.6-3.7v-3.5c0,0-1.7-1-1.7-1l-3.9-.2-1.7,1.2-1.3,2.2v2.4c0,0-.9.6-.9.6l-4,.3-1.3,3.5-2.8,1.3-4-2.5-1.7,2.7h0l.3,1.2Z"/>
    <path id="KR-26" d="M299.2,308.6v.6h3.1l1,1h0l.8,1.3v1.2c-.1,0-1.3.9-1.3.9l-.7,3.9-1.5.8,1.3.2.2,1.3-1.1,2.4-.8-.4-.5,1.1.6,1.1-.4,1.4-1.8.5-.5,1.7-.9.6-1.3-.5-1,.7-1.3-.9v.6c0,0-1.2.2-1.2.2l-.5,1.6h.8c0,.1.4,1.3.4,1.3v2.1c-.1,0-1-.5-1-.5l-1.5.3-.2-.3-1.5-.2.2-1.6-.6-.4-1.4,1-1.3,2.1-.2,1.4h-.6c0,0,.5,1.2.5,1.2l-.6.9-.9-2.8h-.8c0,.1.7,3.2.7,3.2l-.7.3v-1.2c-.1,0-.9-.3-.9-.3l.2,1.3h-.9c0-.1.5.6.5.6l-.9.7v-1.4c0,0-.5-.3-.5-.3l-.6-2.6.4-2.4-1.6,1.9v-2.3c0,0-1.6,2.8-1.6,2.8h-1.3l.8-3.6-.8-.3-.8,3.9-3.5-.4-1.2-1.3-2.3,1.7-.6-.7,1.4-1.2h-1c0,.1.2-1.7.2-1.7h0l5.4-2,.3-3.9,1.8-.2,3-1.9h3.3c0-.1,3.2-4,3.2-4l3.1-1.9,1.4.2,2.8-5.2,3.8-.4.4-1.5,2.3-2.1h0l.2.3ZM287.9,332.8l1.5,1.3-.2,1.3,1.5,1.3-.4.8h-.7l-.4-.9-.5.2-.5-1-2.4-1.8,2.1-1.1Z"/>
    <path id="KR-27" d="M249,284.1l-1,3.3-1.1.7h0l-1.9-.7-1.2.3h0l-2.7,2h-1.9s-.6-2.6-.6-2.6l-3.2-3.9.2-2.2,2.7,1.5h1.7l.5-2-2.4-2.7,1-2.4,1-2.2,4.2-.7-.2-1.5-2.2-1.7-3.7-.2,1.2-4.6,1.7-2.4,3.2-1.5.5,4.4h2l2.7-6.4,4.6-1,2.2-2.4,2.7-.7,2.4.2,2.9,2.4.5,5.9,1.5,3.2-.7,1.7-2.7,1-1.2,2.7v2.4l-2,.2v1.5l1,1.2v3.2l-2.7,1-1.2,1.5-2.2-.2-.5-2.2h-2.4l-1.7,1-1.2,2,.4,1.2Z"/>
    <path id="KR-28" d="M104.7,106.5l3.2-2.1,1.7-2.2,1.6.2,5.8,4.7h0l3,1,.3,1.2h0l-2.8,3.6h0v3.2c.1,0,2.7,2.3,2.7,2.3h0l-.3,3-1.4,1.8h0l-1.6-.5.4-1.4-.5-.4-.3,1.3-.5-1.8.3,2.3-1.5,1.8-2.8-.4-2.9,3.6h-3.6c0,.1-.3,1-.3,1h-.8s.7-.2.7-.2l.4-1.4,3.6.6,2.8-3.5-3.2-2.5-.7-3.4-.4,1.8h-1.2c0,0,.1-2.1.1-2.1l-.6,1-.9-.4.9-3.6,2.3-.9,1,.3-.7-1.3-1.9.9v-1s-.8-.9-.8-.9h.8c0,0-.1-.9-.1-.9l-1-1,.5-.2v-1.1s-2.1,1.3-2.1,1.3h-.8c0-.1,0-.2,0-.2l3.1-1.3-1.6-2ZM84.3,107.8l1.4,1,.7-.2,1.1,1.6,2.3-.3-.2,1.1-1.6-.3-1.5.5-.3-.4-.8.7.3-1.7-1.5-2ZM99.7,110.3l.6.9,2.8.8,1.1,1,.3,1.4-1.8,1.1-1.6-.5-7,5.8-2.2.4.3-1.5-.7-.5-1,.6.7-.7-.4-.6-1.3,1-1.3-.6.7-.5-1.2-1.4.2-1.1h1.3s3.1-2.2,3.1-2.2l4.4-.2,1-.7.5-2.1,1.4-.4ZM92,121.8l2.2,2.3-.7,1.7-1.2.3-.7-.7v-1.5c0,0-.8-.2-.8-.2l.7-1.9h.6Z"/>
    <path id="KR-29" d="M132.6,320.5l-1.4-.7h-1.9c0,0-3.5,1.5-3.5,1.5l-1.6,1.6h-1.2c0,0-2.8-1.6-2.8-1.6l-.5-1.7h-1.7c0,0-1.6,4.1-1.6,4.1h-1.8c0,0-1.4,1.6-1.4,1.6l-.9,3.8.3,3.2,5.7.8,2.9,4.8h2.9l2.7-1.6h3l1.2-.8,2.5.5,2.7-1.8,1.1-1.4,1.4-4.8v-1.1l-1.6-.8-2-.2-.8-3.6-1.5-1.8Z"/>
    <path id="KR-30" d="M165.6,209.3l1,4.1h.2c0,.1,1.1-1.7,1.1-1.7h0l.5-.5h1.1c0,.1-.3,1.2-.3,1.2h0v.5h0l2.2-1.9h0l2,2h0l.2,2.1,1.9.9-.2,1.3,1.6,1.9-2.2,1.5h0l-.7,4.4h0l-1,4.9.9,2.9h0l-2.6,1.7-1.7,2.2-2.9-1.7-1.7-2.9-.5-2.7h-1.2l-.2,6.4-.7,1.7h-1l-.7-2.4-2-.7-1.2-1.7-.2-2.7-1.7-1.5-.2-3.2,1.7-2-.2-6.8,5.4-1.7.7-4.8h0l2.9-.6Z"/>
    <path id="KR-31" d="M298.6,280.6l1.4,1.2,2.3.7.2.6h0l-.3,2.2h0l.8.9h0l1.5.5h0l4.2-1.9h0l6.4,1.7h0l2.3.3.5,1.1v1.1s-.9.6-.9.6l.4,2.5-.5,1.9-.9.4h.6c0,0-.1,1.3-.1,1.3l-.9.4.8.6-1,.5,1.2.6-.8.9-.8-.3-1.4,1v-1.9c.1,0-.8-.7-.8-.7l-.5-2.3-1.5-1.7-1.2-.4,1.8,1.8v.9c0,0,.7.2.7.2l.3,1.1h-1.9c0,.1.4.7.4.7l.8-.2.7,1.2-2,2.5-1.7-1.3.6,2.4h.9c0,0-.4.7-.4.7l1.1-.6v1.3l-1.2,1,.9,1.4-1.4,2.3,1.4,2-1.2.7-.9-.4-1.6,2.4h-.8c0,0-.2,1-.2,1l-1.6-.5v-1.2c.1,0-.7-1.3-.7-1.3h0l-1-1h-3.1v-.6h0l-1.2-1.5h0l-2.4-.2h0l-4.4-4.6h0l-2.6-2.6-1.9-.2h-2.1l-1.7-.8-.3-3.8,1.7-1.5h0l.9-.8v-1.1l-1.2-1.9h0l3.1-2.4h1.3c0-.1,1-.7,1-.7l-1.1-1.9.3-1.2,5.7-2.8h4.2Z"/>
    <path id="KR-41" d="M77.9,89.8l-1.4-1.6,1.2-1.3.2-1.8,1.2-1.2h2.1l2.4,1.4,1.9-.5.8.9-1.3,2.2-1.5.9-2.1-.3-1.7.5-.8,1.1-.8-.3ZM85.5,135.9l-2.7-1.4-.8,1,3.1,1.6,1.6-.4.6-1-1.1-.4-.7.5ZM80.3,99.2h-2.4c0,0,2.9,2.9,2.9,2.9l.3-.4-.9-.6v-1.9ZM71,136.4l-.7.5-.6-2.2h-.9c0-.1-1.2,4.6-1.2,4.6l1-.2v-.6c.1,0,.5,1,.5,1l.9-.3v1.1c-.1,0,2.5-.4,2.5-.4l1.3-1.5-2.6-1.6-.2-.4ZM74.7,97.1l-.8-.3-1,.7.9.6.9-.4.7,1.2,1.5.3.2-1.1-1.1-2-1.3,1.1ZM136.7,44.6l-3.8,4.6h-2.2l-3.7-1.5-2,1.2-4.4,3.7-2.7,3.9,1.5.7,1.5,2.9,4.9.2,2.6,1.5.5,2.4-1,.7-.2,1.5-3.9-.5-.2,2.9-1.2.7.2,2,1.5.7-.2,5.1-1.7,1-2.4-2.9,1-3.4-1.5-1.9h-1.9c0,0-.2,2.2-.2,2.2l-1.5,1.5-2.7-2.6h-.6c0,0,.7,3.9.7,3.9l-.4,1.5,3.7,1.4,2.7,3.9-5.1,1.5h-2.2l-.8,3.6h-2.4c0,.1-2.4,2.1-2.4,2.1l-2.8-.4-1.6-1.3-.5.9-1.4.6.9,1.4-.7,3.3.8,1.4-.4,2.4.9.4-.6,1.3,2.1,5,1.9,2.4h0l3.2-2.1,1.7-2.2,1.6.2,5.8,4.7h0l3,1h0l1.7-2.7,4,2.5,2.8-1.3,1.3-3.5,4-.3.9-.6v-2.4c0,0,1.3-2.2,1.3-2.2l1.7-1.2,3.9.2,1.6,1v3.5c0,0,1.7,3.7,1.7,3.7l-1.1,4.2,1.2.3,3.8-1.7,1.1,2.8-2.5,1.7-.3,2,.9.9-1,1.3-1,.2v.9s-1.3,1.2-1.3,1.2l-2.3.2-2.9,1.6-.5-2.3-2.4.2-3.3,1.8-2.8-.3-1.4.6-2.4-4.6-1.9,1-.9-.3-.6-4.2-3-3h0l-2.8,3.6h0v3.2c.1,0,2.7,2.3,2.7,2.3h0l-.3,3-1.4,1.8h0l1,.5-3.1-.6-.7.8.6.5-.3,1.2-3.7,2.1.2,1.2-5.9,2-2.3,1.8-.7-.2.4.8-1,1.1-2.3-1.1,2.3,3.2-.3,1.6-1.4.9,1.1,1.2h-.9l.2.7-.8.8,1.3-.5.8,1.2,1.4-2.6,2.4,1.2.6-2.6.2,1.3,1.6,1-.4,1.3.5.5.6-1.8-.3-1.3-2.1-1.1-.5-2.1-1.7-.3-1.7-1.6.8-1.4,2.5-1.7,5.1-1.8,7.3,3.6,2.4-.3,2.2,2.6,1-.3-.8,1.4-1.2-1.6-1.5-.4v-.7c.1,0-.6.3-.6.3l-.3.6.7,1h-1.5c0,0,.6,1.3.6,1.3l-.7.7.5.2-1.7,2.6-1-.7.5-.5-.5-2.4-2.1.7-.3-.8-2.8-.6-.6,1.4-1.3.3.3,1.4.7.5-.7,1.4.8,1.2h-1.1s-.9,1.2-.9,1.2l.9,2-.8.7,1.2-.5,1.9.4-1.7,1.7,1,.6v1.4c-.1,0,.5.6.5.6l.3-1.3,2.6-1.5,1.6-2.7,2,.2,1.1-1.7.7,1.9-1.7,1h3.7c0,0-1.6.5-1.6.5l.7.8-.6-.3-1.1,1-.8-.6-1.6,1.5v5.5s-1.2,2.2-1.2,2.2l.3.6,3.4.3.2,1.6-1,.3v.6s3.1.6,3.1.6l1.3,3.3,1.5.6.3,1.5,1.5-.3,1.1.7.7,3.6h0l2.7-1.6,5.9,1.4,3.9-1.4,2.4-1.6h2c0,0,2.3,1.1,2.3,1.1l2.6,2.6,4,.5h0l2.2-.2h0l3-1.3h0l1.3-1h1.7c0,.1,1.4-1.3,1.4-1.3v-1.7h.1l-.2-.8,4-2.4h0l.6-2.1,1.8-2,.6.9h1.2s-.2,1.6-.2,1.6l1.3-2.5,3.4.6,3.2-2.9,2-.2.5-6.1h1.2l1.2,1.5h1.5l2.1-5.2,2.1-.5h0l.5-5.8-.5-2.7,1.2-1-.2-5.9,2.7-6.4.2-3.2-1.5-.6-.6-1.9,2.5-3.2,1.6-.6.6-1.7-1.3-2.3-7-1.1-3.4-2.9-2.1-.3-3.2-1.9-2.8,1.1-2.1-2.2,1.4-2.8.2-3.4-2.8.7v-1.6c0,0,2.2-2.4,2.2-2.4l-1-2.7.6-1.5-.7-2.3.5-1.2,1.8-.6,1.4-1.6,2.6-.8.8-3.1-.6-3.2-1.1-1.2-3.3-1.1v-2.1c0,0-.8-.5-.8-.5l-2.5.3-2.4-1.2-1.2-2.4-.3-5.9-1.1-1.5-1.5.8-1.6-1.2-1.2.2-3.2,1.5-3.5-2.8.4-4.2.9-.7-1.5-.7-2.9,2.9h-1.9c0,.1-1.3-.5-1.3-.5l-.3-2.5-.8.2v-.8c-.1,0,.3-1.5.3-1.5l-1.2-1-.7-4.2h-3.7v-1.5l1-.7-3.7-3.5h0l-1,.5-4.4,3.3ZM88.6,95.3l-2-.3-1.6-1.3v-1.8s.8-1.6.8-1.6l-.7-.4-2.5,1v2.7c0,0-1.3.4-1.3.4l3.6,2.5.8,1.1-.2,1.6.8.8,2.8-2.1.3-1.6-.8-1ZM100.8,98.2l-1.2-1.1.6-2.5-.9-1.3,1-2.9-1.1-1.3-.3-1.8-3.5-2.3-1.7-2.2-3.1.6-.7,1.6-2.7,1.5.4,7.9,2.3.6,1.5,3.6-.7,1.9-2.5.5.9,1.6-.5.6,2.6,1.5,4.2.3v-.8s.7.3.7.3l.5-.7,2.5.7.6-1.3,1.1-.3-.9-3.7.7-1ZM96.5,133l-1.5.3v1c-.1,0-1.4-.1-1.4-.1l-.6,1.2.6,1.5-.3,1.5h1.5s0,.7,0,.7h.5c0,0,1-.9,1-.9l-.2-.7h1.2c0,0-.9-1.1-.9-1.1h1s-.2-.6-.2-.6l.8.6.5-1.5-1-1.3-1.2-.5Z"/>
    <path id="KR-42" d="M236.1,9.4l1.1,2.2,1.7,2.1h.5c0-.1.6,1.2.6,1.2l-.4,1,1.4,1.8-.5,1,.9.8v1.2c-.1,0,2.8,3.8,2.8,3.8l-.9.4v1.3s4.3,6,4.3,6l-.5.3.2,1.3,1.3,1.7v1.1s1.8,1.6,1.8,1.6l.7,4.4,3.1,4.1-.6.9,1.6,2.1-.7.8.7,3.2,4.4,5.2.6,2.4,3.2,3.4h.9c0,0-.4,1.6-.4,1.6l2.9,4.8,1.3.9v.8c0,0,3.1,2.9,3.1,2.9v1.9c0,0,3.4,3.9,3.4,3.9l.2,1.1,13.3,14.5-.9,3.6,1.9,2.5,3.5,2.9.3,1.4-.7,1.5,1.5,4.1,4,4.2.9,3.9,3.8,2.9,1.3,5.4,1.4,1.3h.8c0,0,.4,1.9.4,1.9h1.3c0,0,.6.9.6.9l-.2,1.4,2.2,2.7-1.2.9.6,1.4-.7,1.9.4,2,2.1,3.1-.2.9.6.7h0l-3.4.6h0l-1.5,1.7-2,.7-2.2,2h0l-1.2,1.7v1h0l1.2,2.2h-5.1c0,.1-2.1-1.7-2.1-1.7l-2.3-.8-2-.3-2,2-5.8-2-2.6.6-.5-1-1.3-.5h0l-2.3,3.4h0l-.7,1h-3.2l-4.9-3.4h-1.6c0,.1-.4,3.8-.4,3.8l-.9.9-2.4-1.1-1.5.2-3.3-1.8h0l-1.9-1.7-2.7.2-3.1-1h0l-2.8-2.3h-1.6c0,0-3.3.7-3.3.7h0l-1.5.4-.6-1.1h0l-1.4-1.3v-2.1h0l-.8-.6-1.1.3h-2.6c0-.1-.9.9-.9.9h0l-1.5.5h0l-.5.4-1.8-1.4-.5-1.3,2.6-1.6,1.8-2.1v-1.1h0l-1.2-.4-1.1.7h0l-.8.2h0l-1.3-.2-1.2-1.4-1.7-.3-1.6-1.2-1.9.5-1.4,1.9-2.9-.7-2.9,2.4h0l-4,.7h0l-.2-3h0l-1.4-2.6-3.3-.3-1.2.7h0l-2.2,2.1.8,3.7-.3,1.4-2.5,1.6-1.8-.9h-2.4c0,0-1.1,1.5-1.1,1.5l-1.7.7-3.2-2.4-.5-2.7h0l.5-5.8-.5-2.7,1.2-1-.2-5.9,2.7-6.4.2-3.2-1.5-.6-.6-1.9,2.5-3.2,1.6-.6.6-1.7-1.3-2.3-7-1.1-3.4-2.9-2.1-.3-3.2-1.9-2.8,1.1-2.1-2.2,1.4-2.8.2-3.4-2.8.7v-1.6c0,0,2.2-2.4,2.2-2.4l-1-2.7.6-1.5-.7-2.3.5-1.2,1.8-.6,1.4-1.6,2.6-.8.8-3.1-.6-3.2-1.1-1.2-3.3-1.1v-2.1c0,0-.8-.5-.8-.5l-2.5.3-2.4-1.2-1.2-2.4-.3-5.9-1.1-1.5-1.5.8-1.6-1.2-1.2.2-3.2,1.5-3.5-2.8.4-4.2.9-.7-1.5-.7-2.9,2.9h-1.9c0,.1-1.3-.5-1.3-.5l-.3-2.5-.8.2v-.8c-.1,0,.3-1.5.3-1.5l-1.2-1-.7-4.2h-3.7v-1.5l1-.7-3.7-3.5h0l3.2-2.5,2.6.3,5.2-2.4,2.7.4,1.3.9h2.5c0,0,.9-.8.9-.8l4.7-.9,7.2,3.1,6.5-3.3,2,1.1,3-.3,2.1.5,1.5-1,4.5.2,2-1.1,2.9,3.6,3.1-.9,1.7-1.8,4.9,1.4,1.4-.3,5,1.1,2.3-.4,2.3-1.9,2.6-.2,5.3-4.2,1-1.7,4.3-3.8,1.7-3.6.6-3.6-.4-7.1,3.3-2.4Z"/>
    <path id="KR-43" d="M183.4,249.7l-1.7-4.9-1.7-1.5-.2-2.2h0l1-2.2-.2-2.4-1.5-2.4h0l-2.2.2-3-1.4-.9-2.9,1-4.9h0l.7-4.4h0l2.2-1.5-1.6-1.9.2-1.3-1.9-.9-.2-2.1h0l-2-2h0l-2.2,1.9h0v-.5h0l.3-1h-1.1c0-.1-.5.4-.5.4h0l-1.1,1.9h-.2c0-.1-1-4.3-1-4.3h0l-2.9.6-.5-.7h-.9c0,.1-.5.8-.5.8h0l1.5-4.8-.8-.9.7-2.6-2.6-.2-.4-1.1h0v-2.2l-2.2-2.7,1.7-.5.2-2.2h0l-1.2-1.7,3.9-6.1,2.9.2,1.2-1.5-1-2.9-2.4-1.7h-2.3l-.8-.4v-1.6h.1l-.5-.4h0l-1.2-.6h0l-.2-2.1-2.2-1.5-.7-1.9,2.2-.2h0l3-1.3h0l1.3-1h1.7c0,.1,1.4-1.3,1.4-1.3v-1.7h.1l-.2-.8,4-2.4h0l.6-2.1,1.8-2,.6.9h1.2s-.2,1.6-.2,1.6l1.3-2.5,3.4.6,3.2-2.9,2-.2.5-6.1h1.2l1.2,1.5h1.5l2.1-5.2,2.1-.5.5,2.7,3.2,2.4,1.7-.7,1.1-1.5h2.4c0,0,1.8.8,1.8.8l2.5-1.6.3-1.4-.8-3.7,2.2-2.1h0l1.2-.7,3.3.3,1.4,2.6h0l.2,3h0l4-.7h0l2.9-2.4,2.9.7,1.4-1.9,1.9-.5,1.6,1.2,1.7.3,1.2,1.4,1.3.2h0l.8-.2h0l1.1-.7,1.2.4h0v1.1c0,0-1.9,2.1-1.9,2.1l-2.6,1.6.5,1.3,1.8,1.4.5-.4h0l1.5-.5h0l.9-1h2.6c0,.1,1.1-.1,1.1-.1l.8.6h0v2.1c0,0,1.3,1.3,1.3,1.3h0l.6,1.1,1.5-.4h0l3.3-.8h1.6c0,0,2.8,2.4,2.8,2.4h0l3.1,1,2.7-.2,1.9,1.7h0l-1.7,1.7-1.7-.2h0l-1.8,2h0l-.5.2h0l-2.6,2.5-2.2.6h0l-.6,1h0l-2.8,2.2-2.5,4.4h0l-.7,1.2h0v1s1,.5,1,.5h0l.6,2.3-2.2,3.1-3.1.6h0l-.7.8h-1.9s-1.7.1-1.7.1h0l-2-3.9-2.5-1.4-.9-1.5h0l-1.3,2.4-.9.3-.3,2.5h0l-.3.4-4.5-1.4h0l-.3-.5h0l-.8-.3-.5.5h0l-2,2.4h-1.1c0,.1-1.3-1.2-1.3-1.2l-.4.2h0l-2.2,5.2h0l2.7,4.1-3.6-.7h0l-.9-.5-.9.5-2.6-1.3h0l-2.3,2.9h0l-3.3,1.1-1.3,1.9.4,1.7-2.5,2.6h0l-1.4,1.2h0l-1.2.3h0l-.8,1.5.6.9,4.2.9,1,1v.7h-.1l.8,1.5h0l1.6,1.1-.3,1.3h0l-1.6.7-.6,6h0l.5,1.9-1,1.6,1,2.5h0l.4.2h0l-.8,2-2.1,1.8h0v3.4c0,0,1.6,1.4,1.6,1.4h0l2.7-2,.4,1.1,2,1.2h0l1.4,1.2h0l.9.3h0l1.6-.7h0l1.7-.6,1.6.5h0l.5.8h0v2.5h.1l1,1.5h0l-.5,1-2.4-1.1-1.9,1.1-.9,1.4.9,2.3-.3,2.8-1.4,1.1-.8,3.6-1.4,2h-2.3c0,0-.8.8-.8.8l-2.1,2-2.3-1.8h0l-3.9,1.9-.3.7h-2s-.1-.7-.1-.7l-1.3-.8-3.2-1.1h0l-.8-1.8-.9.5Z"/>
    <path id="KR-44" d="M88.1,220.3l.7.6h-.6c0,0,0,.8,0,.8l-1-.5-.4.5-.2-1.1.8-.6v-1h.5l.2,1.3ZM90.8,213.7h.9v.9c.1,0,1.3.4,1.3.4l-.5-1.1,1-.8-.2-1.7-1.9-1.4.8-1.1-.7-1.1v-1.4c.1,0-.7.3-.7.3l.3-1.6-1.7-1,.6-.7-.8-1.1v-2.5c0,0-1.2-.5-1.2-.5l1.2-.8v-.9s-.7-2-.7-2l-1-.5-2.9,3,1.3,2.7-.2,4.1.7,1.6-.8,2.3,1.1-.3-.5,2.6,1.9.3-.4,1.5,1.4,1.2.8-.9h1.5s-.3.6-.3.6ZM94.8,155.7l-.4-1.6-1.9-.3v2.2s2.2-.2,2.2-.2ZM93.9,217.2l-.5-.9h-.8c0,0-.7.3-.7.3l.4,1.1-2-1.1-.6,1.3h1.5c0-.1,4.1,1.2,4.1,1.2v-.7c.1,0-2-.6-2-.6l.6-.6ZM181.7,244.8l-1.7-1.5-.2-2.2,1-2.2-.2-2.4-1.5-2.4-2.2.2-3-1.4-2.6,1.7-1.7,2.2-2.9-1.7-1.7-2.9-.5-2.7h-1.2l-.2,6.4-.7,1.7h-1l-.7-2.4-2-.7-1.2-1.7-.2-2.7-1.7-1.5-.2-3.2-1.3-1.6-1.4-1.1-1-2.4v-3.2c.1,0-.1-2.2-.1-2.2l-1.1-3.1-2.1-1.2-1.5-2v-1.6c-.1,0,.7-1.9.7-1.9v-5.2c-.1,0-.3-2.6-.3-2.6l.5-1.9-.2-2.4-.4-1.6-.8-1.6.3-1.4,2.1-.8,2,.6,1.2,1.3,2.1,1.3,2,.7,1.9-.2,3.9-6.1,2.9.2,1.2-1.5-1-2.9-2.4-1.7h-2.3l-.8-.4v-1.6c.1,0-.3-.4-.3-.4l-1.2-.6-.2-2.1-2.2-1.5-.7-1.9-4-.5-2.6-2.6-2.3-1.1h-2c0,0-2.4,1.7-2.4,1.7l-3.9,1.4-5.9-1.4-2.7,1.6-3.5.8-2.8-.5-1.2-3.9-.9-.3-1.3-3v-1.1c0,0-5.8-1.6-5.8-1.6l-.3-.6-5-.2-5.3-3.2-1.7-.3-1.2-1.8-1.6-.6-.7.5-.6,1.1.4.4-2,1.9.8,1.5-1,.5-2.1-1.1-3.1-.3-1.6.8-.6-.4-1.5,1.3-.6-.3.2,1.4,2.5.6.6-.4.3,1h.8c0,.1-1.3,1.2-1.3,1.2l-.6-.9h-1.9l-.2.8h1.1c0-.1.1.8.1.8h.7c0,.1-.1,1.2-.1,1.2l.7-.7.9.2.7,1.4,1.3-1,.7.3v1.2s-1,.5-1,.5l.3.9,1.7.6-2.6.8v1.2c.1,0-1.4-.2-1.4-.2l-1,.6.5,1.7-1.1,1,.7,1.5-1.6-1.4.3-1.3-1.3-.2-.9,2.1.8.6-.2.9.7.9-.9-.4-.7.7-.6-.3v.8s-.8,0-.8,0l-.3.9-.8-1.8.2-.6,2.4-.7v-.5c.1,0-1.5-.4-1.5-.4v-.9c0,0,1.4-2.9,1.4-2.9l1.4-.7h-.8v-1.3c-.1,0-1.4-1.2-1.4-1.2v-2.5l.7-1h-.8c0,0-.6-.7-.6-.7l.8-.2v-1.2c.1,0-1.7,1.4-1.7,1.4l.8,4-.7,1,.3.8-2.9-.8.3-.5h-1.2c0,0-1.8,1.6-1.8,1.6l-.7-.6-.4,1.8h-1.5c0-.1,1,.8,1,.8l-.7.5.5,1.3h.8c0,0-1.6,2.1-1.6,2.1l1.1,1.2h-.9c0,0,1.3,3.5,1.3,3.5l-1.5-2.9-.5.4v-2.9s-.8,0-.8,0v-.8c0,0-.4.6-.4.6l-.5-.2.5.8h-.7s1,1,1,1v.9c-.1,0-1.2.8-1.2.8l.6.5-.3,1.2-.8.7-.3-.4v1s-1.4.3-1.4.3l.9,2.2h.7l-1.1,3.9,2.4-2.1-.9-2.9,1.2.7,2.8-.2-.8,1,1.5.8,1-.5-1,1.8.8-.5.7.5-1.2,1.5-2.8-1.2-1.4,1.1.4,2.6,3.1.3.8-1.8,1.8-.2.5-.6-.2-1.4h1.6c0,0,1.5-1.1,1.5-1.1l.3.6-.6.2v1.7c0,0-.9,1.1-.9,1.1l.2,1.7,1.7.2.8,1.8v2.5c.1,0-.7.6-.7.6l-.4,2.3.8,1.4,5.2-4.5,3.4,1,3.9,2.8.6,2.4-.5,1.3,1.8,2.3,1.2-1,3.2,2.3-3.3-1.8-1.6,1.7-.2,2.7.4,2.2,1,1-.2.9,2.1-1,.2-1.1h.6c0,0,2-2.6,2-2.6l1.9.8,1.7-.6-.8,1-2.1-.4-.5,2.2h-1.2c0,0-1.2,1.1-1.2,1.1h-1l-1.9,1.3-.7,1.5-.3,2.5h1.4s3.7,2.6,3.7,2.6l2.6.5-2-.2-3.2,2.2h-1c0,0,3.6,5.5,3.6,5.5l-1.4,2.5.7,3.5-1.2,1.3v1.7c.1,0-.5.8-.5.8l-1.9-.2v2.2s.8.8.8.8l.2-1.9.9-.3,2.1.7.7,1.4,1.1-1.1,2,1.7,1,2.3.6-.6.8.4v.7s.9-.3.9-.3l-1.9,1.5.8-.2.2,2.2h.8c0,0,1.8,1.9,1.8,1.9l-.6.4v1.7s.6.6.6.6l.9-.5,3.4.8,1.1-1.7.5.3,1-.4,1.2,1.1,9-3.9v-6.6s3.7-2.1,3.7-2.1l2.9.5,2.9,1.8,1-.3,1.7,1.6.2,2.9h1.9c0,.1.4,1.7.4,1.7h2c0,.1,4.4-1.5,4.4-1.5l2.2,1.5,4.2-.2-.5-2,3.4.2,1.9-1.6.9,1.3,2.3,4,1.7,5.6,3.9-1.2.5,3.9,5.1-.2.7-1.5v-1.7c.1,0,.9-.1.9-.1l1.5-.8,3.2,1.9,2.2-2.2v-1.9l-1.7-4.9Z"/>
    <path id="KR-45" d="M116.7,250l1-.4,1.2,1.1,9-3.9v-6.6s3.7-2.1,3.7-2.1l2.9.5,2.9,1.8,1-.3,1.7,1.6.2,2.9,1.9.2.4,1.6h2c0,.1,4.4-1.5,4.4-1.5l2.2,1.5,4.2-.2-.5-2,3.4.2h0l1.9-1.6.9,1.3h0l2.3,4,1.7,5.6,3.9-1.2.5,3.9,5.1-.2.7-1.5h0v-1.7c.1,0,.9-.1.9-.1h0l1.5-.8,3.2,1.9,2.2-2.2v-1.9h0l.9-.5.8,1.8h0l3.2,1.1,1.3.8v.7c.1,0,2.2,0,2.2,0l.3-.7,3.9-1.9h0l2.3,1.8,2.1-2h0l3.7,7-1,3.9h0l-1.8,1.2-1.6,3.6-2.4,1.5h-1.1s-1.4.9-1.4.9l-1.6-.3h0l-.5.4h0l-1.3,3.2-3.9,3.7-.6,3.8h0v1.5c-.1,0-.8.6-.8.6h0l-4.1,11.3v1.8c.1,0,2.3,1.1,2.3,1.1h0l.3,2.3h0l1,1.8-.5,2.6.5,1.5,1.3.3-.4,3.1h0l-2.9,2.8-.9,2.5.4,2.2-1.7,1.8h0l-.2.2h0l-5-3.5h0l-3.6-1.6h-1.6c0,0-1.4.9-1.4.9l-2.3,3-1.4.4h0l-2.5-.3-1.9.5h-4.8s-.9-.5-.9-.5h0l-1.1-1.1-1.5.9h0l-2.5-1.1-1,.7h0l-.8.7h0l-2.4.9h0l-1.6-.4-2-1.5h0l.3-2.8-.8-2.3h0l-1.6-.5.8-1.8h0l-.4-3.5-1.1-.8h-2c0,0-.8,1.3-.8,1.3h0l-.8.5-.5,2.4h0l-.8.5-1.5-.4h0l-2.8-4.4h0l-3.2-2.3-2.4-.5-1.2,1.5-.8-.2h0l-1.2-.3h0l-1.8.8-.6,1.6h0l-.3,3h0l-1.3,1.3h0l.2.6h0l-.5,2.3-1.9,1h0l-2.5.8-1.2,1.2h0l-1.6.6-.8-.3h-1.6c0,0-1.1,1.3-1.1,1.3l-3.4.2h0l-.3-1.3h-1.3l-1-3.2-1.5-1.7-.7-4.4-1.5-1.2h0l-1.5-.5h0l-3-.4,4-7.7,1.1,1,.2-1.2,1.4-.9,1.7.7,1.7-1.6,2,.3.2,1,1.2-2.8h.4c0,.1,0-.8,0-.8l1.1-.3,1.3.4,1.9,2.4-.2-2.6-.8-.5.9-.8h-1.1s-1.6-1.3-1.6-1.3l-.2.7-1.2-.2-.6.7-1-.8-.3.6h-3.8s-.9.8-.9.8h-.7c0,0-.3-.8-.3-.8l-.5.8-1.3-.6-.9-1.6-1,.5-.6-1.3.8-1.5-1-.8,3.4-1.9,2.6-2.8,1.4-.9.9.5,2-1.7,2.4-3.3-.6-3.4.8-1.3,1.5.7,3.6-.6,3.5.9,1.6,1.4,1,2.4.5-.5-1-.3.5-1.8-.5-2.3-6.9-3.9,1.1-1.2,2.5-1,4.2.2.7-.9v-1.6c0,0,2.3-1.1,2.3-1.1h-3.3c0,.1-1.3,1.4-1.3,1.4l-2.2-.2-1.7.6-2.6-.8-1.1,1-4.1-.2v-5.1c.1,0-3.4-.4-3.4-.4v-.9s-1.5-1.2-1.5-1.2l.6-.7,3.8-.3.9.8.6-.7,4.5-.6,1.3-1,2.3.9,1.3-1.5.2-1-.7-.2Z"/>
    <path id="KR-46" d="M68.1,406l.3.9-1.4-.9-.5.9-.2-1.3h-.8s0,1.3,0,1.3l-.4-.9h-1.9c0-.1.1-1,.1-1l-.7.2,1.3-1.2-.2-.2.7-.8,1,1.3,2.6-.7v2.4ZM89,387.1l.7-.5-.4-.9-1.9-1.3-.5-1.4-.7.2.5-.9-1.9.6-1-1.2.6-.5-.6-.8-4.5-1.4v1.9c-.1,0,.7.4.7.4l-1.2,2.3-.7-.5v.9c0,0-1,.3-1,.3l.9.9h-1.5c0,.1-.3.9-.3.9l.6.6-.9.4-.4-1.8-1.4,2.6-4.1,2.3.7,1.3-.5-.4-.9.3-1.4,2.4,2.1,3.6,1.8-.6.2.6-.8.3.3.5-.7,1h1.3v-.6c-.1,0,.5-.2.5-.2l.7,1.3h1.8s2.1-.7,2.1-.7l-.5-1,1,.4.7-.7.5.5.7-.9h1.3c0,0,.1-1.6.1-1.6l1.2.6,1.2-.6-.6-.8.7-.3.6.5-.3-.9.9.7-.2-1.4,1.1,1.4-.3.6h1s0-1.3,0-1.3l2.2-2.5-.6-1.3,1-1.3-.9-.3v-.7s1.2-.3,1.2-.3l.5.7v-1.3s-.6-.4-.6-.4ZM56.3,366.1h.8c0-.1-1-1.6-1-1.6v-1.1s4-.5,4-.5l.3-1h.9c0-.1-.2-2.3-.2-2.3l-1.6.2-.8,1.5-1-.2.2.5-.9.6-3.1-.5.3.9-.6.3v-.4c-.1,0-.4.6-.4.6l.5.5-.6,2.6,2.2,1.4,1.7-.5-.6-.9ZM118.6,403.6l-1.6-.6-1.4-2.9v-2.2c0,0-.8-.9-.8-.9l-2.7-1.4-3.2,1.5v4s.5.5.5.5l-.4.7,1.5.3,2.2,2.8,1.2-.5,2,1v-1.6c-.1,0,.8,1.2.8,1.2l2.2.4-1.1-1.5.7-.8ZM59.3,367.4l-.8-1.9v1.4c-.1,0-1.1,0-1.1,0v1.6c0,0-.8-.4-.8-.4l.2-.5-1.6.3-.2,2.3.5,1.3.9-.6v.9s.6.4.6.4l1-.8v1.2c0,0,.7.2.7.2l1.2-.5v-.8s1.2-.8,1.2-.8v-.8c.1,0,1,.2,1,.2l.4-.9-3.1-1.7ZM112.1,415.3l-2.6-1.7-.5,1.2h-.7c0,0,1.4,1.5,1.4,1.5l-1.6,1.7v1.3s.5,1.3.5,1.3l1.1-.6v1.3c-.1,0,.7.4.7.4l.7-.8v-2.1c-.1,0,.8.3.8.3l.2-.8h-1s-.8-2.1-.8-2.1l1.6-.2.4-.6ZM106.4,411.5l-2.2-.4-.4.6-.4-1.1h-1.1s1,1.4,1,1.4h-.7c0,0-.2.7-.2.7h.8l-.9.5.3,1-.7.3,1.3.3v.9s2,.4,2,.4l-1-1.2,1.6-.4v.7c0,0,1.4,0,1.4,0l-1-1.5h1.4l-.5-1.4-.6-.8ZM104.5,416.3l-.5.8-.4-.9-1.1.2-1.2-1.3-2.6,2v1.9c0,0,.6,1.5.6,1.5h1.1s3.7-2.1,3.7-2.1l.2-1.2.9-.5.9,1.6v-1.3s1,1.1,1,1.1l.4-1.5-.9.3-2.1-.7ZM62.8,381.1h.8c0,0,.4-1.1.4-1.1l.5.8,1.4-.4.3-.9-.3-.9-.6.5.2-1.6-1.1.3-.7-1,.6-1.7-.8.2v-.6c.1,0-1.3.3-1.3.3l.5,1.1-.4,2,.6-.3.5.4-.5.5v2.3h0ZM81.4,353.4l-.6,1.4-2.2-.7-.4,1.4,2.6.8,1.2-1.5,2.5.3.3.7,1-.4,1.1,1.5-1.3.8.3.5,1.4.4v-.7c.1,0,1.3-.2,1.3-.2v-2.9s-.8.3-.8.3v-1s-2.4.2-2.4.2l-.8-.6.8-.4-.8-.6h.9c0-.1,0-1.1,0-1.1h1.9c0,.1,0-.6,0-.6l-1.1-1h-1.8c0,.1-1-1.1-1-1.1l-1.2.8,1.6,2.3-.8.5-.9-.5-.2,1.3.6.5-.9.3-.3-.8ZM70.8,366.5h1.1c0,0,.5,2.3.5,2.3l2.2-.4.2-1.4-1.4-3.2-1.4.5-1.3-1.7-1.4.4-1.4-.7-.3.9h-.5s.3,1.1.3,1.1l-.7,1.7,1.6-.9v.8c0,0,.6-.2.6-.2l-.3,1.5h.9c0-.1.5.5.5.5l.7-1ZM75.1,374.5l.2-1.2-2.4-1.8-.8.2-.5,1.2-.6-.4-.2.7h-.9c0,0,.2.9.2.9l.8-.5.5.6-.8,1.3.6,1.3,1.6-.4.4-.7,1.3.4.5-.8h1.2c0-.1.2-1.1.2-1.1l-1.2.4ZM73.8,335.4v.6c.1,0,.9-.2.9-.2l-.4.6,1.5.3.3-.5.7.8h1.4c0-.1.8.4.8.4l-.3,1.3h.7c0,.1.7,1.4.7,1.4h1.1c0,0,.8-1.4.8-1.4l-.9-.6-.3-1.9-1.1-.8.4-2.1-.4-.5-1.1.7-.3-.8-1.5.3-.8-1-.8.2-1.8,1.1.6,1.4v.8ZM66.9,355.4l-1.2.2,2.4,3,.3,1.6,1.7-.3.4-1.1-.7-1.3.6-.9.9.4,1.3-1-1.4-.9v-.6s1.4,0,1.4,0l.5-.6-1.1-1.4-.4.6-1.7-.7-.5.3v1.4c.1,0,.8.6.8.6l-.4.7-2.4-.9-.5.7ZM73.3,342.1l.5-1.5-3-1.1-2.2,2.3,4.6.2ZM59.7,354.2l4.1.4.8,1.4v-1.4c-.1,0,.5-.2.5-.2l.2.6,1.1-.3-.3-.6h1.5c0,0-.5-1-.5-1l1.5-.7-1.1-1.2,1.2-1.1-1.1-.2.6-.9-1,.2v-1c0,0-1.6-.7-1.6-.7l.3,1.7-.5.7h-.8c0,.1-.3-.7-.3-.7l-.5.9-1.4-.3-1.7,3.3h-1.7s1.1.7,1.1.7l-.4.3ZM65.7,336.2v-.3c.1,0,1.4-.2,1.4-.2v1.3l1.8.8v-1.2s1.2,0,1.2,0l-.6-1.2,1-.2-1.4-1.4.2-1.2h.9s.2-2.5.2-2.5l3-1.3-3.6.2v.9c0,0-2.3,2.3-2.3,2.3l-2.5.4-.5,1.8,1.2.7-.2.7-1.3-.2.8.8.7-.3ZM20.1,370.4l-1-.6,1-.8-2.4.4v1s-1.6,2.3-1.6,2.3l.8.8-1,.5.7,1.3,1.2.4v-1.3c0,0,1.2-.5,1.2-.5l-.4-1.2,1.5-.4.2-1.6,1.5-.5-.8-.8-.9,1.1ZM128.6,415l.4-.9-.6-.7.6-.9-1.5-.4-1.5.7v.6c-.1,0-1.1.2-1.1.2v2s-.8.3-.8.3l.9.4-.8.7.6,1.1.9-1.4.9,1.5,1.4-.5.6.5.8-.7v-2.6c.1,0-.8.3-.8.3ZM193.6,352.2v-2.7c-.1,0-1.4-1.3-1.4-1.3h-2.1c0,0,.2-1.4.2-1.4l-.6-.5-2,2v1.6s4.2.9,4.2.9l.4.5-.2-2.1.7-.3.7,3.1v.2ZM193.9,379.3l1.2-.5v-.7c.1,0-1.3-1-1.3-1l.2-1.7.7-.3v-2.3c-.1,0,.4-.6.4-.6h-.8c0,0,.4-.5.4-.5l-1.2-.3-.6-1,.2-1.5-1,.3-.5-.8.5-.6.7.5v.2c.1,0,1.2.2,1.2.2l-.2-1.6-3.5-1.5.5,1.8h.9c0,.1-.1,2.1-.1,2.1l1.1.5-1.4.2-.4,1.1-1.8,1.2-.5,1.1.5.7-1,1.2,2,.9.9,1.7h1.1c0,0,1.9.7,1.9.7ZM187.3,366.8l-1.6-1,.3-.5-1.4-.8v-.6s-.4.1-.4.1v.8c.1,0-1.6,2.4-1.6,2.4l.6,1.1-1.2-.4v-.6l-.3,1h-.6l1,1-.3.8,1.1.3-1.2.5,1,1.7-.5.4,1,.4-.9,1.1h.8s.3.9.3.9l-1.6-.2-.8-1.3-1.9-.8-.9.3.3,1.7-2.2-3.2.9-.9-.9-.3v-1.2s1.9-.7,1.9-.7h-1v-.7l-.8.7.3-1.2h-.6c0,0,1.2-.9,1.2-.9l-.2-.7.5.4.8-.4.3-1.1h1.5s-1.4-.4-1.4-.4l.5-.6-.5-1-.8.8v-1.2s-1-.3-1-.3l1.1-.6-1.1-1.1v-1c-.1,0-2.5-.2-2.5-.2v-1.3c.1,0,1.4-1.7,1.4-1.7l-1.3-.2-.6-3.1-2,.5v2.4c.1,0-.3.6-.3.6l-1.4-.4-1.8.7-.4-1.1-.3,1.1-2.6,1-1-1h-1.8c0,0,1.7.8,1.7.8l.7,1.1h2.6s-2.4,1.6-2.4,1.6l-.6,1.6h-1.5c0,0,2.7.9,2.7.9l-.3,1-1.9,1.5,1.2,2.7,2.6,1.8.6,1-.3.5h1.4s-.2,1.1-.2,1.1l.9-.6v.6s.7,0,.7,0l-.4-.8h1.2c0,0-.3,1.5-.3,1.5l1.2.4v.7s-.9-.5-.9-.5l-.3.6-.7-.7-.4.3.7.7,2.2.5.6,3.3-1.3,1.1v.8s-2-.6-2-.6l-.3-1-1,1.3-.8-1-1.2.5-.7-.7-3.1.4v.5s1.9-.1,1.9-.1l.2.7,1-.6-.3,1.1-1.7.3v.8c-.1,0,1.4-.4,1.4-.4l1.8.3-.5.4,1.1-.2.3,1.8-1,.3.5,1.7-1.6-.7-.3,1.3-1.1-.5-.8.6.9,1.1-.2.7-.7-.4-.7.6-1-1-.4,1.3-.5-.5-1.3.6.9.8h-1.3c0,.1,1.3.9,1.3.9l.2.8-.9.6-1.7-.7v-.5s.9,0,.9,0l-.6-.8h-.9s.3-.7.3-.7l-2.4-1,1.1-1.5-2.2-2.1h-.8s0,.6,0,.6l-.9-.3.2-.6-1.9-1.6v2c0,0-1.9-1.3-1.9-1.3l-.7,1.4-.4-.5-2.3.3-1.2-.6v-1c0,0-.7-.5-.7-.5l.4-1.5,2.1-1.9.3-1.5.7.8,1-.3v-2.8s2-2,2-2l2.1-.5.3-1.9.9-.8-.3-1.3,1.7-1.5.5.4.8-.6.4,2.2-.6,1.9.6.6,2.1.2,1.3-3.9.9-.3-.9-.4-.5-3.3-1.6.2-.9,1.7-1.5-1-.6.9-1.4-2.6-1.2.3-3.3,5.7h-3c0,.1-1-.8-1-.8l-2.3,2.9-2.3.8-1.4,2.3-2.2,1h-1.8c0,.1,0,.9,0,.9l1.1.6-.8.3-.5,2-.8.7.7.5,1.3-.2v1.2c-.1,0-1.4-.4-1.4-.4v1.9s-1.2-.3-1.2-.3l-.9,1,1.3,1.6-.7.4-.3,1.2,1.2,1.6-1.6.6-1.1-1.2-.5.6.8,1.8-.7.8-1.3-.6h-3.7c0-.1,1.2,1.8,1.2,1.8v1.1c-.1,0-1.1-1.4-1.1-1.4l-2-1.2-2,.3-1-.7.2-1.1h-1.6s.8-1,.8-1l-.7-3,.8-3.1-.5-.4.3-1.3-.7-.8.2-.9-.8-.7.7-4.1-1.2,2.1-.5,7.4.4.5-.8.5.5,2.1-2,1.2.6,1.2-1.7,2.6-1.9.2-1.8,1.1v.7c0,0-.7-.6-.7-.6l-1.1.4-.4,1.2-.8-.2-.4.8-.4-.4-.5.6.4.4-.7.9.7.6v1.8s-1.4.8-1.4.8l.5.4-.6.8.4,1.9-3.4-.7-1.2,1.7-1.1.2-.3.8-.7-.2.2-1.7-.5-.4,1.1-1.3-.5-2.4-1.1-.5-2.5,1.6-.5-.8.2-.5.7.7-.2-.8h.8c0,0-1-1.7-1-1.7l1.9-.3-.8-1.9,1.3.7.8-1.3-.6-2.2-.9.7-1-.2v.8l-2.1-1.9.7-.7.3-.2v-1.3c.1,0-.4.2-.4.2l-.6-.7.8-.6-.7-1.6,1-.6-.6-1.1h-1.5c0-.1,1.7-1.4,1.7-1.4l-.2-.6-1.6.5v-1.2s-1.8-.6-1.8-.6l.2.9-1.2.2v.7s-1.1.5-1.1.5l-.6-.6.7-1.8h-1.7c0,0-2.2-1.2-2.2-1.2l-1.6.5-.7-.9.7-.8-2.5-.9v-2.3c0,0,1-.8,1-.8l-.3-.4-.3.5-.9-.2-.9-.9-.3-3.3.6-.5v-1.9c-.1,0,.3.3.3.3l.5-.9.8-4,1-.4.8.8-.2.6h1c0,0,.8,2.4.8,2.4l1.4,1.1-1.2,1v2.2c.1,0-.4.8-.4.8l2,1.1v2.3c0,0,.9.5.9.5l.2,1.4.8-1.2,5.3,3.2v-.7c-.1,0,2.1-1.1,2.1-1.1l.3-.9-.7-.4-1.6.8-.3-2.3-.9.9-.6-1.9-.8.2.4-1.4h-.6c0,0,0-.7,0-.7h-.7s-.2,1-.2,1l-1.1.7-.8-.7,1.3-1.5-.6-1.9.9.7.4-.3-.6-1.4h-.8c0-.1.8-.9.8-.9l1.4,2.7,1.3-1.5.4.5.4-.7.9.5-2,2.8.9,1,.8-.3v.7s1.3.9,1.3.9l3.1.4,1.2,1.1.8-1-1-.3v-1.1c.1,0,1.8.2,1.8.2l.2.7,2.6,1.1h2.8c0-.1-2.2-.8-2.2-.8l-2.4-1.7.2-2.1h-1.9c0,0-.9-2.4-.9-2.4l-2.1-2.5-1.9-.2-1.1.9-.6-1.3-1.3.4-1.2-.8-1.9,1.4-1.8-.7,1.3-1.2-.2-1.2.9-.3v-1c0,0-1.6.1-1.6.1l-.6-1.7,2.3-3.3,1.4-.5-1.3-2.3.5-1-1-.3.2-1.5h.7l.3-1-1.2-1.5.5-.6-.6-.9.4-1.7-.9-.6-.7-2.5-.2,2.2-.7.5v.6c0,0,1.2.5,1.2.5l-.7,1.1.6.4-.6.7.3.7-2,.8h-1.1c0-.1-.2-1.4-.2-1.4l-1.5.2v-.6c-.1,0,1-.8,1-.8l-1.9-2,1.3-2-.2,1.1.7-.5.6,1.3,1.5-.8.7-1.6-1.5-.3,3.8-2.5v-1.2c0,0-.8-.9-.8-.9l-2.1.6-.2-1.6-1.3-.3,1-.8-.9-1.7h-1s-.1.6-.1.6l-1.1-.8.9,1.8-1.1.8,1,.7-1,.9-1.2-1.6-1.6.8-.5-2.4-.8-.5.3-1h1.3c0-.1-1.7-2-1.7-2l.6-1.5.6.2-.2-1,1.2-.7.6,1.5.8-.7,1.1.3v1c0,0,1.1,0,1.1,0l.7-1.3-.5-.6h.8l.8-1v2s-.5,1.8-.5,1.8l-.6.2v1.9c-.1,0,.8.2.8.2l.7-.8-.6,2.1,1,.3.6-.5.2,1.5,1.7-2.2-.5,1.8.9-.9.8,1.2-1.2,1.8h.8s0,1.4,0,1.4h1.7c0,0-.5-1.4-.5-1.4l1.6-1.1,1.1-1.8-1.6-.7,1.6-.5.5-.9-3.2-.6-2.8-4.6-1.7-1,.2-1.1-.8-.4,1.3-.4.5-2-3.2.7-1.2-.6-.2-1.4-1.1-.9.9-1.6,1,2.2,1.1-1.1-.4-.8,1.3-1.7-.2-.6h-1.4s.6-1,.6-1h2.4s.6-4.1.6-4.1l1.4-3.5,3.7,1.2-2.7-1.9-.6-1.9.3-1.8,1.2-1.1,3.5-.2h0l1.5.5h0l1.5,1.2.7,4.4,1.5,1.7,1,3.2h1.3l.3,1.3h0l3.4-.2,1.1-1.2h1.6c0,0,.8.2.8.2l1.6-.6h0l1.2-1.2,2.5-.8h0l1.9-1,.5-2.3h0l-.2-.6h0l1.3-1.3h0l.3-3h0l.6-1.6,1.8-.8h0l1.2.3h0l.8.2,1.2-1.5,2.4.5,3.2,2.3h0l2.8,4.4h0l1.5.4.8-.5h0l.5-2.4.8-.5h0l.8-1.4h2c0,0,1.1.9,1.1.9l.4,3.5h0l-.8,1.8,1.6.5h0l.8,2.3-.3,2.8h0l2,1.5,1.6.4h0l2.4-.9h0l.8-.7h0l1-.7,2.5,1.1h0l1.5-.9,1.1,1.1h0l.9.5h4.8s1.9-.6,1.9-.6l2.5.3h0l1.4-.4,2.3-3,1.4-.8h1.6c0,0,3.6,1.5,3.6,1.5h0l5,3.5h0l-.6,1.8,2.1,2.3.7,7.2,5.1,5.1.2,2.3h0l.9.8h0l2.8,3h0l1.4,1h0l1.8,6.4h-2.2c0,0-1.1-2.4-1.1-2.4l-2.3,1.3v-2.3s-1.2-1.6-1.2-1.6l.9,4.1-1.4,1.6-1.6.6.2,1.1-2.5,1.2-.7,1.1-.7-.9.3-.4-1.6.2-1.2-1.8v-1.9c.1,0-.4-.5-.4-.5v2.3c-.1,0-1.6.4-1.6.4l1.9,1.5-.4.6h-.3c0,.1-1.5.8-1.5.8l1.1.4,1.2,2.9,2.3.5-.7,1,.9,1.1v-.9s1.8.6,1.8.6l2-1.4.7-1.2v-.2c0,0,2.6-.7,2.6-.7l-.7.7,1.4.5v-.6c-.1,0,1.7-.6,1.7-.6l1,1h-.7c0,.1-.2,4.8-.2,4.8h-.7c0,0-1,2-1,2l.8,3.6h-1.6l-.2.9-2.3.4ZM134.9,325.9l-.8-3.6-1.5-1.8-1.4-.7h-1.9c0,0-3.5,1.5-3.5,1.5l-1.6,1.6h-1.2c0,0-2.8-1.6-2.8-1.6l-.5-1.7h-1.7c0,0-1.6,4.1-1.6,4.1h-1.8c0,0-1.4,1.6-1.4,1.6l-.9,3.8.3,3.2,5.7.8,2.9,4.8h2.9l2.7-1.6h3l1.2-.8,2.5.5,2.7-1.8,1.1-1.4,1.4-4.8v-1.1l-1.6-.8-2-.2ZM174,391l-1.1-1.8v.9s-.6-.3-.6-.3l-.3.8h-.7s.5-.7.5-.7h-1.3c0,.1-1.4-.8-1.4-.8l.3,2-.6.4,1.7-.4.8.5-.2.5-1.5-.2.9,1h1.3l-.4,1.4.4.5,2.1-1.3.8.4.6-.7v-1.6c0,0-1.3-.5-1.3-.5ZM192.2,385.9l1.1-.4-1.4-1.8-.4-1.7h-1.3s-2,1.4-2,1.4h-1.1c0,0,1.7,1.3,1.7,1.3l1-.3-.6.9,1.2.5-.5.7h1.4c0-.1,0,.3,0,.3l1.3.2-.7.4,2.1.4.6-.9-2.3-1.2ZM189.3,351.7l-.7-.6-1.4.5-.5.9.7.6-.4.3,1.8.4.7-1.5,1.2-.3-.3-.4h-1.2ZM119.1,397.4l-1,2,1.1.6v-1.5s.9-1.1.9-1.1h2c0,0,.4-1.6.4-1.6l1.8,1h1.2c0,0,0-.7,0-.7h-.6v-1.1c-.1,0-.8,0-.8,0l.2-1-.9.6-1.1-.8h1.4c0,0,.2-.8.2-.8l-.9-.2v-1.1c0,0-3.4,1-3.4,1l-1.7,2,.3,1.1-1.3,1.8,2.2-.2ZM170.2,388l1.1.2.3-.5.5.5.9-.6-1.1-1.5-2.3-.2v-.6c.1,0,1.1.3,1.1.3l-1.2-1.4,1.4-.6-.4-.7h-1.2c0-.1-1.7,2.1-1.7,2.1l1.6.8-.3.4.5.3-1.3.8.7,1.2h.8c0,.1.6-.6.6-.6ZM194.8,391.1l.2-.8-.8.4.2.7-.9,1.7,1.2-.2-1.2,1.3.2.4.7-.4v.6c0,0,.6,0,.6,0l.8-3.9-.6.4-.5-.3ZM133.2,401.2l-.9,1.1.2,1.7.4-.3.6,1,3.1-2v-.7c-.1,0-1.3-.7-1.3-.7h-2.2ZM125.6,403.5v-.7s.4,1.1.4,1.1h.8s-.2-1.9-.2-1.9h1.2c0-.1,0-1.3,0-1.3l-1.3.7-.6-1.1-1.1.3v-.5c-.1,0-.6.7-.6.7l-1.2-1.3-1.1,1v.8c.1,0-.9.4-.9.4l-1.3-1.1-1.1,1h-1.7c0,0,2.1.7,2.1.7l.9,1.1,1.1-1.1h1.5c0,0,.9,2.6.9,2.6l1-.9.9-.4ZM141.8,399.5l-.7-.4-2.3,1v-1.5s-1.2-1.1-1.2-1.1l-.2.7h-1.3l.5.5h-.7v.9l-1.7-.2,1.7,1,.6-.6,1,.7.3.6-1.1.2.9.5,1.6-.7v.6c.1,0-1.1.9-1.1.9l.3,1.4,1.3-2.2,1.6-.4-1.3-.2.4-.7,2.6.9-1.5-1.4.2-.4ZM129,396.5l-.5-1-.5.5-.4-.5v.7c-.1,0-.9-1-.9-1l-.6.6v-.7s-.7-.3-.7-.3l-.2.5.7,1.1-.6,1.9.5.4,1-.5.2,1.3,1.4.5,1.3-.6.3-.9,1.4.3-.5-1.5.8-1.7-.4-.9-1,2h-1.4ZM153.4,409.3v.9s-.7,0-.7,0l-.6,2.2,1.2-.5,1.3.7-.6-.9.9-.2-.3-2.4-1.1.2ZM151.4,387.2l-1.1.7-1.6-.2-2.7,1.6-1-.5-.3-1.1h-.6s-.1,1.3-.1,1.3l-1.6.5,1,1.4-.5,1.1,1.3-.5v.8c0,0,1.9,1.7,1.9,1.7l.5-1,1.2.2.2-.6,3.2.5,1.9-4.1-1.4-1.7ZM137.1,390.8l.9.5.3,2.5.6.6.5-.2-.2-1,.8.2v2.2c.1,0,1-2.5,1-2.5l-.7-2-.8-.6-.3.6-.5-.7-1.6.4Z"/>
    <path id="KR-47" d="M495.6,137.2v.2s.2.1.2.1h-.1s0,.1,0,.1h-.2c0,0,0-.3,0-.3h.1c0,0,0,0,0,0h0ZM496,137.4v.2c.1,0-.1.2-.1.2v-.2c-.1,0,.1-.3.1-.3h0ZM495.5,136.9h0c0,.1-.1.3-.1.3v-.2s0,0,0,0h0ZM424.9,109.5l.7.2-.8,1.1.8,1.4-.6,2,.7.5-2.8,1.5-.6,1.5-4.9-1.9-1.1-4.5.6.4,3.2-1.6,3.5-.5.6-.7.7.6ZM250.5,284.9l-.4,2.4h0l1.3,2.9h0l3.5,2.7,4.6-.9,5.8,2.1h0l1.5.4,4.3-3,.8.2h0l3.9-3.3h1.6s2.3.7,2.3.7h0l2.9,1.2.8-.3h0l3.7-3h1.3c0-.1,1-.7,1-.7l-1.2-2.8,3.7-2.4,2.4-.8,3.3-.3,2.3,1.5,1.6.2.9,1.1h0l-.3,2.2h0l.8.9h0l1.5.5h0l4.2-1.9h0l6.4,1.7h0l2.4.2-1.1-1.1-.2-1.8,1-1.9h.8v-1.3l.9-1-.3-1.4,1.9-5.9-.5-1.5,1.5-1.6-.2-1.7,1.9-4.3-1.3-.3.9-.8-.3-1,.7-.6-1.2-2.5,2.3-2.1.2-2.5,2.4-3.4-.5-.7.5-1.9-.9-2.9-.9-.8-1,.2-.7,1.8-2.4,2.6v1s-3.3,1.9-3.3,1.9l-.2,1-.6.2-2-.8-.2-1.7-1.8.5,1.1-1.5,1.8-.2-2-.7-1.3.9-.8-1.3.5-1.8,2.7-1.1v-1.1c-.1,0,.9-1.3.9-1.3v-.8c0,0-2.3-2-2.3-2l-.4-4.7-1.1-.5-.7-1.2,1.1-1.8v-1.8l-1-1.1.6-2-.5-1.2,1-6.3,3.6-6.5-.2-4.9,1.4-2.3-.7-.6-.2-3.6-2.1-2.9v-3.6s1.9-4.4,1.9-4.4l.9-.8h1c0,0,1-1.8,1-1.8l-.4-2,.4-1.1-.7-2.2.8-.9-2.4-6-1.3-1.5-1-3.4.4-5.4-.9-3.1.8-1.5-.8-3.3.5-.4v-2c-.1,0,1.1-.3,1.1-.3l-4.1-4.1.3-1.6h0l-3.4.6h0l-1.5,1.7-2,.7-2.2,2h0l-1.2,1.7v1h0l1.2,2.2h-5.1c0,.1-2.1-1.7-2.1-1.7l-2.3-.8-2-.3-2,2-5.8-2-2.6.6-.5-1-1.3-.5h0l-2.3,3.4h0l-.7,1h-3.2l-4.9-3.4h-1.6c0,.1-.4,3.8-.4,3.8l-.9.9-2.4-1.1-1.5.2-3.3-1.8h0l-1.7,1.7-1.7-.2h0l-1.8,2h0l-.5.2h0l-2.6,2.5-2.2.6h0l-.6,1h0l-2.8,2.2-2.5,4.4h0l-.7,1.2h0v1s1,.5,1,.5h0l.6,2.3-2.2,3.1-3.1.6h0l-.7.8h-1.9s-1.7.1-1.7.1h0l-2-3.9-2.5-1.4-.9-1.5h0l-1.3,2.4-.9.3-.3,2.5h0l-.3.4-4.5-1.4h0l-.3-.5h0l-.8-.3-.5.5h0l-2,2.4h-1.1c0,.1-1.3-1.2-1.3-1.2l-.4.2h0l-2.2,5.2h0l2.7,4.1-3.6-.7h0l-.9-.5-.9.5-2.6-1.3h0l-2.3,2.9h0l-3.3,1.1-1.3,1.9.4,1.7-2.5,2.6h0l-1.4,1.2h0l-1.2.3h0l-.8,1.5.6.9,4.2.9,1,1v.7h-.1l.8,1.5h0l1.6,1.1-.3,1.3h0l-1.6.7-.6,6h0l.5,1.9-1,1.6,1,2.5h0l.4.2h0l-.8,2-2.1,1.8h0v3.4c0,0,1.6,1.4,1.6,1.4h0l2.7-2,.4,1.1,2,1.2h0l1.4,1.2h0l.9.3h0l1.6-.7h0l1.7-.6,1.6.5h0l.5.8h0v2.5h.1l1,1.5h0l-.5,1-2.4-1.1-1.9,1.1-.9,1.4.9,2.3-.3,2.8-1.4,1.1-.8,3.6-1.4,2h-2.3c0,0-.8.8-.8.8h0l3.7,7-1,3.9h0v1.5c0,0,1,1.1,1,1.1l1.6.3h0l.6.3h0l.2,2,.7.4h0l3.1.4h0l1.4,1.4h0l5.5.4,1.2.6h0l1.6,1.2.6,2.3h0l.5.4h0l1.6.8.3,1.4,2,1.2.7,1.4-1.6,4.8h0l-.2,1.3.7,1.3,3,1.2,2.7-.5h0l2.3-.9,3.5,1.1h0l1.8,1.7h0l1.3,1h0l-.6-2.7-3.2-3.9.2-2.2,2.7,1.5h1.7l.5-2-2.4-2.7,1-2.4,1-2.2,4.2-.7-.2-1.5-2.2-1.7-3.7-.2,1.2-4.6,1.7-2.4,3.2-1.5.5,4.4h2l2.7-6.4,4.6-1,2.2-2.4,2.7-.7,2.4.2,2.9,2.4.5,5.9,1.5,3.2-.7,1.7-2.7,1-1.2,2.7v2.4l-2,.2v1.5l1,1.2v3.2l-2.7,1-1.2,1.5-2.2-.2-.5-2.2h-2.4l-1.7,1-1.2,2,.4,1.2h0l1-.2.5,1Z"/>
    <path id="KR-48" d="M204.1,264.3l1.6.3h0l.6.3h0l.2,2,.7.4h0l3.1.4h0l1.4,1.4h0l5.5.4,1.2.6h0l1.6,1.2.6,2.3h0l.5.4h0l1.6.8.3,1.4,2,1.2.7,1.4-1.6,4.8h0l-.2,1.3.7,1.3,3,1.2,2.7-.5h0l2.3-.9,3.5,1.1h0l1.8,1.7h0l1.3,1h1.9s2.7-2,2.7-2h0l1.2-.3,1.9.7h0l1.1-.7,1-3.3,1-.2h0l.5,1-.4,2.4h0l1.3,2.9h0l3.5,2.7,4.6-.9,5.8,2.1h0l1.5.4,4.3-3,.8.2h0l3.9-3.3h1.6s2.3.7,2.3.7h0l2.9,1.2.8-.3h0l.6-.6h0l1.2,1.9v1.2l-.9.8h0l-1.7,1.5.3,3.8,1.7.8h2.1l1.9.2,2.6,2.6h0l4.4,4.6h0l2.4.2h0l1,1.2h0l-2.3,2.1-.4,1.5-3.8.4-2.8,5.2-1.4-.2-3.1,1.9-3.2,3.9h-3.3c0,.1-3,2-3,2l-1.8.2-.3,3.9-5.4,2h0l-1.4,1.7-.8-.6v1c.1,0-1.6-.5-1.6-.5l-.9.8-.3-.6h-.7c0,.1,0-.6,0-.6h-1s-.5.6-.5.6l-.6-.6,1.2-1.7-.5-1.4-.7-.2.2-.8-1.3.6.4,1.4-.9.8-.3-1.2-1.4-.6.2-1.1-1.4.2-.3,1.4-.5-.7-.7.2.6-.9-.4-1.5-1.2-.9-.2-2.5,3.1-1.9-3.3,1.1-1.7,2,1.1,1.3-.2,1h.9c0,.1.7,1.8.7,1.8l-1.7.4v.6c-.1,0,1.9,0,1.9,0v2.7s2,1.5,2,1.5l-1.8.5.6.8,1.1-.2.7.5-4.6,1.4,1.1-.9-.3-.2h-1.5c0-.1.5.9.5.9h-.9c0,.1-1-1.3-1-1.3h1.7c0-.1-.2-1.1-.2-1.1l1.5-.9-3-.9.5-.6h-.7s0-1.2,0-1.2l-.8,1.4-1.2.5-2-.9v.6c0,0-.7.3-.7.3l-1.8-.7-.2.8,2.3,1.7-.8-.3-.3.8h-1.6c0,.1-1,1.7-1,1.7h-.9l-.3-.7-2.1,1.5-.6-.3.6,1.2-1,.4-.8,1.9,2.1-.8v-1.4c0,0,1.3-.7,1.3-.7l3.2-.8v-1.6c-.1,0,.5-.1.5-.1l.3.6.8-1.1,1,1v1s-.2.7-.2.7h-1.4c0,0,1.6.5,1.6.5v1.1s1.5,1.2,1.5,1.2l-.7,1-.7-.4-.5,1.5-1-.4v.8s-4.1-.6-4.1-.6v1.1s1.5-.3,1.5-.3l.9.3.2.8-1.5,1.5.5.2-.3,1.3.8.7-1.3,2,.6.6-.5.6v2.2c.1,0,2-2.5,2-2.5l-.5-1.1h1c0,0,.9,1.9.9,1.9l.8.2-.6,1.8-.8-1v1.5h-.7c0-.1.4,1.7.4,1.7l-3.1,1.1,2.2.5.2.7v1.6s-.8.1-.8.1l.6.7-1.5.2,1.2.9-.9,1.7-2-.3v-1.3c0,0-.7.3-.7.3l.2-.9-.7-.9-.5.7-.9-.6,1.2-.7v-1s-2.4-.9-2.4-.9l-.8.7-.5-.8.7-.3-.2-1.1.5.9.7-.9.8,1.1.5-.4,1,2v-1.4c-.1,0,.6.2.6.2l.7-.6-.9.2-.6-.4.3-.7h-1c0,0-.3-.8-.3-.8l1.4-1.1h2.3c0,0-.3-.4-.3-.4h-2.2l-.4-1.8-.2.5-.6-.3.2,1.5-1.2-.2-.4-1.3-.2,1.2-.5-.8-1,.5v-1s-.9.6-.9.6l-1.4-2.1,1.1-.5h3.2c0,.1-1.1-3.5-1.1-3.5h-.8c0,.1.2-.7.2-.7l-1-.5.2,1.6-1.6.7.4,1.6-1.1.8-.6-.6v1.1s-1.2-.7-1.2-.7v-2.5s-1.3-.2-1.3-.2h-.2c0-.1-1.3.1-1.3.1l-.5-.5-.3.6h-1.6c0,.1.6,1.1.6,1.1v2.9c-.1,0-1.6-.1-1.6-.1l-.5-1.1-.2.9h-.6l-.5-.9-1.3.4-.7,1.2-.8-1.4-.8.2-.6-.8,1.3-1h-3.3s-2.7-1.6-2.7-1.6l-.7-1.6,1.7-1.8-1-1.6.8-1.8-.3-.6-.6.5v-.4c-.1,0,.9-4.3.9-4.3l.9-.8-.5-.3-1.6,1.2-.9,3.7-1.1-.6.9-.5-.2-.5-.6.7-1.6-.7-.7,1,1.5-.3.8,2.2.9.2-.8,2.6-.8-1.2-1.2,1.6-.9-1.7-1.7,1.1.4.7-1.2-.4.3-.6-.7-.3.6-.2v-1c0,0-1.2-1.1-1.2-1.1l-.5,3h-.7l.3,1h-.8c0,0-.2,1.1-.2,1.1l-1.4,1h-2.3c0,.1-.2-1-.2-1l-.5.3-.4-.7-.3,1.6-1.3-.2v.3c0,0-1.8-6.4-1.8-6.4h0l-1.4-1h0l-2.8-3h0l-.9-.8h0l-.2-2.3-5.1-5.1-.7-7.2-2.1-2.3.6-1.8h0l.2-.2h0l1.7-1.8-.4-2.2.9-2.5,2.9-2.8h0l.4-3.1-1.3-.3-.5-1.5.5-2.6-1-1.8h0l-.3-2.3h0l-2.2-1.1v-1.8c-.1,0,4-11.3,4-11.3h0l.7-.6v-1.5h.1l.6-3.8,3.9-3.7,1.3-3.2h0l.5-.4h0l1.6.3,1.4-.9h1.1s2.4-1.5,2.4-1.5l1.6-3.6,1.8-1.2v1.5c.1,0,1,1.1,1,1.1ZM270.9,335.9l.4,1.1.8-.2.4,1.4-1.3,2.7.5.6-1,1.4.2-.5-.9-.8.6-.9-1.6-.7.7-.6-1.4-2.4,2.5-1.2ZM260.6,339.2l.6-.5,1,.4.7,1.2-.7,1.3h-.8c0,0,.4.7.4.7h-1.1c0,0,.6.5.6.5l-.3,1.7,1.5.7.8,2.3h-.7c0,0,.4,2.2.4,2.2l-1,.2.5,1-1.6.9v.8s1.1.2,1.1.2v.7c0,0,1.4-1.7,1.4-1.7l.8.4v.6c0,0,.3,1,.3,1l-.5.5-.9-.2.9,1.9-.9.2-.5-.8-1.3.8.5,1.1.7-.8.6.4-.5.8,1.6,3.2-2.3-.7.4-.6-.6-1.1-.9,1.5h-.5c0-.1.2-1.1.2-1.1l-1.6-.3-.2,1.8.6.7-1.1,1-.9-.3-.6,1.4,1.1,1.9h2.1c0,.1-.4,1.2-.4,1.2l-1.5-1-2,.8v-.5c-.1,0-.5.6-.5.6l1.3,1.1v.7c-.1,0-1.1-.4-1.1-.4l-1.2,1.1-1.4-.7-1,.6.6-1.8,1.6-.8-2.2-.9.2-1.9h1.6c0-.1-.7-.7-.7-.7l.4-.7h-1.7s-1,1-1,1l-.7-.8,1.1-1.1h-.8c0-.1-1.1,1.1-1.1,1.1l.2-.8-.5-.3,3.4-.9v-1.8s.8-1.3.8-1.3h-.6c0,.1-.8-1-.8-1l.8.2v-.5s-1.1-.6-1.1-.6l-.6,1.9h-2.6s0,1,0,1l-.6-.2.3.7-1,.6-.7-1.3.5-.7-1.9-.8-.7-2.9,1.5-2.5h.6s-.3-.6-.3-.6l.6.3-.4-.6h1.1c0,.1.7-1.1.7-1.1l3,2.2h.7c0-.1-.4-.8-.4-.8l1.1-.6,2.9,2-.5-2.2-.8.2.2-.8-1.9-1.8,1.5-2.4v1.1s2-.3,2-.3v-.5s1.3.8,1.3.8v-1.3c-.1,0,.7-.9.7-.9l-.4-.6.8-.2-.4-.6h.8c0,0,.2-.3.2-.3l.6-.6h-1c0,0,.6-2.2.6-2.2h.7c0-.1.5.1.5.1ZM257.5,340l.4,1-.6,2.8-1.4.3-.4-.5-.9.8.2-1.1,1.1-.7-.7-.6h1.2s-.2-.9-.2-.9l1.3-1.2ZM201.6,346.8l1.7,1v-.6c.1,0,.6.2.6.2v4.4l-1.7.6-.3,1.2,1.3,2.1-.5.7,2.5,1.1v1.7c.1,0,1.5.2,1.5.2l-.3-.7,2.3-1.6,2.9-.2,1.2,1.1h1.1c0,0,.4,1.9.4,1.9h-.9s.4.8.4.8l-.6.9.7,2.8-1.8,2.4,2,1.4-3,.6.5-1.5-.7-.5-.6.2v.8c0,0-1.1-.1-1.1-.1l-.3-.6-.4,1.1h-2s-1-3.4-1-3.4l.5-2.8-3.4,1,.6,2.9-1.7,1-2.3-.5.3-.6-.8-.3v-.9c.1,0-1,0-1,0l.3-1.7.8-.2-1.3-2.3.2-1.1-1.7-2.3-.5-2.2.8-1.5h.8c0,0,0-1.7,0-1.7l.9-1.1.3.5,1.3-.2-.8-1v-1.2c0,0,.9-.3.9-.3l.3-1,1.7-.4ZM211.7,348.9l-1.5,5,1,.2v-1.6c-.1,0,.9-1.4.9-1.4h.8c0,0,.2,1.3.2,1.3l.5-.2.8,1v1.1c-.1,0-1,.8-1,.8l.6-.2v.9c-.1,0,1,0,1,0l.8,1.5-1.1-.7-.6.5-.8-.7-.6.2-1.8-1.2-.2.9-1.1.2-2.6-.7-.4-2.5,1-.6,1.6-2.9,2.4-1ZM224.3,354.5l2.4,1.4-2,.2-1.6,1.6v-1c-.1,0-1.1-.2-1.1-.2l-.2-1,2.5-.8ZM227,356.3l2.2,2.2-.4.6h-1.6c0-.1.2,1.3.2,1.3l-3.1-2.1v-.6c.1,0,1.1.3,1.1.3l-.5-.5.7-1,1.6-.3ZM245.3,358.3l-.5.5h.7l.4,2.7.9-.2.4.6-.2.9-1.5.9-1.6-.3.5-.9-1-1.4.2-1.8.4,1.4.6-.3v-.8c-.1,0-.7-.7-.7-.7l.2-.6h1.2ZM227.6,373.1l2.2,1.2-.8.5.7.7.7-1.3h1s-.7,1.8-.7,1.8l-2-.7-1.4.7v.7c-.1,0-.8-.1-.8-.1l-.2-.4.9-.5-.6-.4.2-.6-.7.4-.3-.6.9-.3-.5-.8,1.3-.4Z"/>
    <path id="KR-49" d="M132.2,473.4l.5.6-.3.5h1.1c0,0-.5,2.2-.5,2.2l-1.6-.4-.3-1.1,1.2-1.8ZM128.5,485.3l-2.5,1.8-.4,1.6-1.9,1.9v1.1c.1,0-.9,1.2-.9,1.2h-4c0,0-2.4,2.5-2.4,2.5l-7.1.9-2.2,2.3-1.4.5-.8-.7h-1.3s-.4,1-.4,1l-1.2-.7h-1.7c0,.1-4.2,1.4-4.2,1.4l-1.4-1.4-1.8.5-1.5-.8-2.6,1.2-3.3-.9-2.4,1.6v2.3s-1.1-.4-1.1-.4l-.7.5-.7-.5.2-.9h-.7s-1.7-2.3-1.7-2.3l-3.8-2.2-1.4-2.3.5-2.6-.5-1.4,1.4-1.2v-1.1s2.2-1.4,2.2-1.4l.9-1.4h.9c0,.1,1.7-1.8,1.7-1.8l.3-2.2,3.3-1.3.3-1.5,4.2-.8,1.3-1.1.9.6,6.2-2.4.8-1,1.6.5,1.9-.8h3.4c0,0,.6-1,.6-1l2.9-.2.9-1.6,1.5,1.2.9-.9,3.6-.7,2.5.3.2-.7,2.6.9,2.2-.4,1,2.4,1.4.7.8-.5,2.6.8-.3,1h.8l.3.7-.9,1.7,1.4,1.1,1-.4.8,1.3-.4.4-.8-.5-.6,1v.8c0,0,1.1.9,1.1.9l-.6.7-1-1-.7,3.7Z"/>
    <path id="KR-50" d="M153.8,190.7l-2.1-1.3-1.2-1.3-2-.6-2.1.8-.3,1.4.8,1.6.4,1.6.2,2.4-.5,1.9.2,2.6v2.7c.1,0,.1,2.4.1,2.4l-.8,1.9v1.6c.1,0,1.6,2,1.6,2l2.1,1.2,1.1,3.1.2,2.2v3.2c-.1,0,.8,2.4.8,2.4l1.4,1.1,1.3,1.6,1.7-2-.2-6.8,5.4-1.7.7-4.8-.5-.7h-.9c0,.1-.5.8-.5.8l1.5-4.8-.8-.9.7-2.6-2.6-.2-.4-1.1v-2.2l-2.2-2.7,1.7-.5.2-2.2-1.2-1.7-1.9.2-2-.7Z"/>
  </g>
</svg>