<svg xmlns="http://www.w3.org/2000/svg" xmlns:amcharts="http://amcharts.com/ammap" id="Layer_1" viewBox="0 0 512 512"><g id="_x3C_defs"><amcharts:ammap bottomLatitude="5.918" leftLongitude="79.65" projection="mercator" rightLongitude="81.879" topLatitude="9.836"/></g><g><path id="LK-11" d="M141.9 371.5h1.6l-.5 2.5 2.7.3v1.1l2.1.2.8-.8 1.6.3 1.3 1.5 1.5-.6 3.9.9 1-1 2.6-.3.8 2.7 5.1 2.2.6-.7 1.3.7 2.4-.5.7-5.1 2.9-1.8.3-1.1 5.4.5.5-1.2 1.2.2 5 .6.6 4-.5.8-1.5-.2.3 2.5-2.5 2.3-1.7 5.1 2.3 1.1 1 4.3-2.9.5-3.8-1.4-4.2 2.4 1 3-.5 1.5-1.5-.2-1.4-4-2-1.7-2.5 3.4-3.3-2-4.1 4.5-3.2 1.6-3.5-.6-.8 1.8h-3.2l-.9-2-3.1-1.5 1.8 7.7-5-13.6-.7-6.6-2.1-7.3.4-2.8.4 1.8.7-2.8 1.4-.5.7-1.6Z"/><path id="LK-12" d="m151.1 333.6 1.7-.7-.5-1.2 3.2-.3 3.8-3.5 1 .8 1.5-.4.4 1.9 2 .2 1.8 2 8.3-6 3 2.4-.3 1.6 2.9 2.1 1.9 3 1.3.3.6 1.6-1.9 1.4v5.2l-2.7.1-.7 1.2-1.5-.6 1.1 1.6v3.4l1 3.1 1.5-1.3 4.4.5-5.6 9 2.3 8.2-.4 2.2-1.2-.2-.5 1.2-5.4-.5-.3 1.1-2.9 1.8-.7 5.1-2.4.5-1.3-.7-.6.7-5.1-2.2-.8-2.7-2.6.3-1 1-3.9-.9-1.5.6-1.3-1.5-1.6-.3-.8.8-2.1-.2v-1.1l-2.7-.3.5-2.5h-1.6l-6.7-28.7.9-.5.5.7-.6 2.4 3.1 7.9-.3 1.1.8.6.9-.6.5-1.8.6 1.7.6-1.1-.7-6-2.3-4-2 1.4-.5-2.4 1.4-2.2.4-5.9.2-.3 1.4-.4.9.9 1.8-1.7 1.6 1.2 2.6-.8-.3 1.7 2.4-2 2 1.1Z"/><path id="LK-13" d="m146.1 404.9-1.8-7.7 3.1 1.5.9 2h3.2l.8-1.8 3.5.6 3.2-1.6 4.1-4.5 3.3 2 2.5-3.4 2 1.7 1.4 4 1.5.2.5-1.5-1-3 4.2-2.4 3.8 1.4 3.3 10.3-.9.7 2.1 4.5 4.3 4.3.7 4 3.4 1.2 2.7 2.8 1.3 3.3-2.4 1 11.2 17.4-1.8-.2-7.1 3.9-2.8.6 1.5 6.6-.5 2-7.8-6.7-2.7-.3-1.1 1v1.7l-2.1.6-4.6-1.6h-3c0 .1-5.5-4.4-5.5-4.4l-2.2.6-1.2-1.4-4.2-1.5-1.6-2-2.2 1.2-1.2-1.7-1.9-2.6v-1.3c-.1 0 1.1-1 1.1-1l-.4-5-9.8-25.2Z"/><path id="LK-21" d="m230.6 310.2 1 2.2 6.6 4.9 3.7 2.2h2.2l3.5-.3 1-1.1.8-3.9-1.4-4 3.4-2.2 3.3 3.3 4.7 2.7 2.3-1.6-.2-1 1.7-1.6 2.5-.4 1.3-1.2 1.6-.3 2 1.2 2.5-1.2 1.1 2.1.4-.8 1.1.4 1.9-3.6h5.2c0 .1.1 8 .1 8l-.7 1.7 1.7 2.6-.8 3.7 5.2 16.7-1.1 2.2-3.2.5-1.3 2.1-3.3-.5-6.2.2-1.7 2.3-.6-1.8-3.7.6-5.2-1.1-1-.8v-2.7l-6.4-6.1v2.9c.1 0 1.9 1.8 1.9 1.8l.5 4.9-5.2 5.1-5.2 8.4-5.1-1.3-1.4.5-1.4 2.6-6.3.6-.8-1-1.3.7-.9-.6-1.7 1.1-.2 1.5 1.6-.4 1.2 3.2 5.2 5.8-1.7 3.8-1.5.7v1.9l-3.1.5-1.7-2.7-3.1-2.6-2.3-5.6-3.1-1.4-1.3 1.1-.3-2.4 1.3-2.3h-.8l-2.4-6.2 1.3-1.1 5.7-.8 1.2-2.7 3.1-.2-.7-1.4 2.4-1-4.4-4.9 1.2-1.6-.5-2.6-1.9-2.2-3.1-.7.2-2.7-3.4-3.6-3-1.7-1.2-3.9 3.2-.2 1.6.8-1-1.3 2.7-4.1-1.3-2.2 2.4.5 3.2 2.7 1.4-.4-.2-2.9 5.1-.7-1.7-4.3 1.5.3 1.4-.9Z"/><path id="LK-22" d="m254.9 239.3 3 2.2v3.4c-.1 0 1.1.7 1.1.7l1.4.2v-2l2.1-.9 1.4 1.6h1.8c0-.1 1.7 1.1 1.7 1.1l-2.5 1.1-1.8 3.8-1.1 9.3-1.1 3.8-1.1.6.3 1.6-3.4.3-1 1.3.3 7.4 1.4 4.1-.6 1.5-1.1-.7 2.3 2.3 3.3-.2.6 1 3.5-1.2 2.1-2.5.3 1.3 1.9.2.8 1.3.8-4.5 5.6.9 7.8-1.7.4 2.9-.7 1.3.9 3.5-2.1 4.7-.8 7.5.3 10h-5.2c0-.1-1.9 3.4-1.9 3.4l-1.1-.4-.4.8-1.1-2.1-2.5 1.2-2-1.2-1.6.3-1.3 1.2-2.5.4-1.7 1.6.2 1-2.3 1.6-4.7-2.7-3.3-3.3-3.4 2.2 1.4 4-.8 3.9-1 1.1-3.5.4h-2.2l-3.7-2.3-6.6-4.9-1-2.2-.2-1.5 1.4-1-.3-3.9-1.3-.9.3-1.1-1.7-2v-1.6l1.4-2.8 1.4-.4-.7-2.5.9-1.6-1.4-2.9-2-1.5-.5-2.4.9-1.2-.7-4.6-1.5-.3v-3.6l-2.4-4.5h-1.8c0-.1-.9-1.3-.9-1.3l.4-4.1v-1.4c.1 0 3.2-.2 3.2-.2l5.2-2.8 1.4-2.5 1.8.2 1.2 1.5 2.9-1.6v-1.8l2.1-.8-.8-1.5 2.8-1.9.6-5.7 1.3-.4 1.8.9 3-4.5 6.4-2.6Z"/><path id="LK-23" d="m217.6 365 1.3-1.1 3.1 1.4 2.3 5.6 3.1 2.6 1.7 2.7 3.2-.5v-1.9l1.5-.7 1.7-3.8-5.2-5.8-1.2-3.2-1.6.4.2-1.5 1.7-1.1.9.6 1.3-.7.8 1 6.3-.6 1.4-2.6 1.4-.5 5.1 1.3 5.2-8.4 5.2-5.1-.5-4.9-1.7-1.8v-2.9c-.1 0 6.3 6.1 6.3 6.1v2.7l1.1.8 5.2 1.1 3.7-.6.6 1.8 1.7-2.3 6.2-.2-.4.9 2.4 4.7v1.9l-1.2-.4-.3 1.9 1.9 1.1-1.7 2.5 1.8 3-4.6 5-1.2 6-2.7 1.7H269c0-.1-3.4 2.7-3.4 2.7l-.6 3.3-1.8 1.4-4.4-.3-.7.7.2.8 4.1 1.1.2 2.8 1.6.4-.4 1.8 2.2 2.2-.8 1.5-2.3.7.4 1.2 2.5.9-.4 1.2-1.2 1.2H262c0 .1-2.6 2.4-2.6 2.4l-1.9-.6-3.8 2.6-1.7-.7-3.2 1.1-5.8-.9-.9 1.4-2.3-.3-8-1.3-3.6-1.5-2.2 1-3.4-1.3-1.6-2.3 1.7-1.5-1.3-1 .5-2 2-2-2.1-3.1.4-1.9-8.3-3.4.6-5.4 1-1.2-1.6-3.5 2.2-.9 2.2-2.3-.5-1.4Z"/><path id="LK-31" d="m157.1 440.1 1.2 1.7 2.2-1.2 1.6 2 4.2 1.5 1.2 1.4 2.2-.6 5.5 4.5h3c0-.1 4.6 1.5 4.6 1.5l2.1-.6v-1.7l1.1-1 2.7.3 7.8 6.7.5-2-1.5-6.6 2.8-.6 7.1-3.9 1.8.2 4.7 4.3 2.7-.3 4 2.1 2.4-.2.5 1.6-2.2.3-2.2 1.7 4.5 6.6-2.6 2.5-2.7-1-6.3-5.8-3.5 1.1 2 2.8 2.5 1.3 3.3 4.9-.5.8.8 1-.7.5.6 1.4-1.7 1.5-5.5-.9 2.5 3.9-1.9.5 1.1 1.9-1.5.8.2 3.5 1.8 1.2.7 1.8 1.8.4 2.3 2.2-3.6 3.1-.8 2.1-2-.2.3 2.6 2.6.2 1.4 1.7-4.2 1.4-1.1 3.1.4 2.3-9.2-3.5-6.3-.9-1.7-1.4-.9.5-1-1.5 1-1.3-.5-.6-1.2.3-.7-.8-.9 1.6-11.5-9.6-.5-1.6-2.9-2.4-.2-2.3-4.7-5.6-1.1-5.3-2.2-3.3.3-4.5-6.2-18.4Z"/><path id="LK-32" d="m221.7 449.3 4.9-.9v-1.8l2-1 .7.8 8.1-.9-.2 3.2-1.4 1.4.6 1.8 6.4-1 .3 1.8-.8.3 2.3 2-.7 2-1.7.4.9 1.9-1.4 2.1 1.2 1.2-3 1.1-3.9 6.8.4 1.4 3.3 2.4 2.9-.5-1.5 5.1 1.6.6.4 1.2 3.9-.2.2.7-2 1.7 1.7 3.4-.2 1.6-3.9 1.4-.8 1.2 1.1.5.4 1.7 3.2-.2.9 1-1.5 1.3.2 2.3 1.9-.3 2.7 1.8-.9 2.4-3.3-.5-5.2 1.1-1.2 1.4-2.2-.2-.5 1.8-3.2.7-.4 1-1-.2-.8-1.9-2.7-.8-4.3.8-9-.8-.9-.7.9-.2v-1.8c.1 0-1.9-1.2-1.9-1.2l-1.3.2-1.2 2.1-4.2-1.2-.4-2.3 1.1-3.1 4.2-1.4-1.4-1.7-2.6-.2-.3-2.6 2 .2.8-2.1 3.6-3.1-2.3-2.2-1.8-.4-.7-1.8-1.8-1.2-.2-3.5 1.5-.8-1.1-1.9 1.9-.5-2.5-3.9 5.5.9 1.7-1.5-.6-1.4.7-.5-.8-1 .5-.8-3.3-4.9-2.5-1.3-2-2.8 3.5-1.1 6.3 5.8 2.7 1 2.6-2.5-4.5-6.6 2.2-1.7 2.2-.3Z"/><path id="LK-33" d="m363.6 422.4 3.8 4.7 1.7-.3 4.4 4h2.3v1.5l-1.3 1.9-3.9 2.7-1.7 2.6-4.4 2.2.5 1.4-2.5 2.3-5.2 3.2 1 .2-7.7 2.5-1.4 3-1.4.6-.3 1.7-5.3 1.7-4 4.9-3.7 1.7-.9 1.3-4.1 1.4-2 3.1-10.7 2.2-1.9 2.2-4.7.6 1.1-.5.3-1.6-.4-1-1.5.2h-.4l-1.2.4 1.4 2.7-6.8 3.3v1.4c.1 0-14.4 2-14.4 2l-5 2.3-4 .2-1.3 1.3-8.4 2.2-1.1 1.9H263l-1.8.8-.5 1.9-2.5 2-4.1.9v1.2c.1 0-1.5.9-1.5.9v1.3c.1 0-1.6-.9-1.6-.9l-2.7-1.8-1.9.3-.2-2.3 1.5-1.3-.9-1-3.2.2-.4-1.7-1.1-.5.8-1.2 3.9-1.4.2-1.6-1.7-3.4 2-1.7-.2-.7-3.9.2-.4-1.2-1.6-.6 1.5-5.1-2.9.5-3.3-2.4-.4-1.4 3.9-6.8 3-1.1-1.2-1.2 1.4-2.1-.9-2 1.7-.4h4.3l12 5 7.6-.6 1.4.7 1.6 2.6 1.3-.3 2.3 1.4 2.6-.3 1.1 1.5 1.7-1.4-1.5-4.1-2.7-3.2 6.1-3.8 6.4-2.5.6-1.8-1.9-1.3v-2.4c.1 0 .7-1.1.7-1.1l3 .6 1.6-2V442l1.5 1.3 1.2-1.6 8.4.3 1 3 1.6.6 3.5-1.6 5.1 6.1-.4 1.1 1.8 1 3.5-.6 2-2.9 11.3-2.7 2.1-1 1.2-2.1.9 1.1 5-1.7 4.1 1.5 1-1.4-.4-3.8 1.3-2-.9-1.1.4-2.9 5.3-3 1.1-2.1h1.8l2.3-2.4 2 .5 1-1.3h1.4l1.1-2.3Z"/><path id="LK-41" d="m234.4 51.4 3.1 2.6-3.4-.7.2-1.9Zm-118.9-9.7h1.2l2.6 3 4.2.7.7 4.5-.8 1.8-3.7-.4-5.3-3.2-.5-5.1zm13.8-8.7.4 4.9-1.5-1.4V34zm10.7-1.8 1.2 1.3-.4 1.2-1.1-1zm-9.2-6.7.5 2.9-1.6 1.6.2 1.2-1.6-1.8zm9.8-2.1 1.6 1.3 1.7-.8.9.6 1.3 3.1 2.6-.6-.9-.6 2.7.2v1.8l-1.5.6 3.3 2.3 2.8 1.4 1.8-.7-.2-.8 2 .7.9 1-.7 3.1-1.8 1.1-1.7-.4-1.2-1.4 1.7.7.6-2.1-.9 1.2-1.7-.2-3.3-2.1-2.3-.4-1.5 2.2-1.9-.9-3.7 2.1-.5 4.9-6.9-.9 1-6.7 1.1.2.5 1.4-.6 1.6 1.3 1.1.6-.7 1.8.4-1.3-1.8-2 .4.4-.9 1 .3 1.2-1.1 2.3 1.6 3.9-2.1-2.6-1.4-1-2 1.7-1.3v-1l-1.8-.8.9 1.2-1.2 1-2.1-2.9.6-1.4-1.2-1.5 2.5-.2Zm-5.7-1.4-.4 4-.6-1.5.9-2.4Zm51-15.5 4.8 1.3 4 7.7 10 13 18.7 14.9 10.6 9.7h-1.5l-5.2-3.6-3.6-2.3-4.5-.7-2.7-1.9v-2.4c.1 0-1-2.3-1-2.3l-5.9-4.6-8.7-5-4.6-5.3-5.1 9.9-11.4-5.3-1.4 1.3.8.8.7-.9.6.5v2.5l3.3.6.2.8-1.7.9-1.9-.4 1.8 1.2v.5c.1 0 3 1.1 3 1.1l-1 .5-3.7-2-3.5-3.3-8.4-4.6.3 2.2 2.2.9 2.9 2.9-2.7-.6-6-4h-4.1c0-.1-1.8-1.8-1.8-1.8l-1.2 1.9 1.3 1.2-1.3-.2-.5-.7 1.7-2.2-.9-3.1-1.1-.6-1.3.9-1.8-2.4-1.2 1.8h-1.7c0-.1-2.9-6.9-2.9-6.9l-2.9.6v1.4l-1-.1.5 1.9-1.6 1.1-3.8-1 1.4-1.9-.9-2.7 1.1-1.6 4.7-.7-.6 3.3 3-.3-1.8-2.3.8-1.8 2.3-.3 2.1-2.2 5.2-2.1 6.3-.9 8.5 1.2 3.4-1.5.7.4.7-1 6.2-.3 3.3-1.1Z"/><path id="LK-42" d="m156.6 73.3.9 2.5 1.7.3-.8 2-1.2-1.8-1.4.6-.9-.6v-1.4c-.1 0 1.7-1.7 1.7-1.7Zm3.6-22.7.7 1-.8 1.4-.9-2 1.1-.5ZM191.1 34l5.1-9.9 4.6 5.3 8.7 5 5.9 4.6 1.1 2.3v2.4h-.1l-.6-.8-.9 1.8-1.3-.2 1.2 2.1-5.1-2.6 1 1.6-.4 1.4 1.7 1.1V47l2.9 1.8 3.3-.4 1.7 1.7.4.5 1.5.9h2.1c0 .1.6 0 .6 0l1.7-.5 3.4 1.2.2 1.4-1.6.7 1.2 1 3 .5v-1l1.5-.9 3 .6-.2 1.2.2.2-.6 2.3-2.9 2.2v5.8l-3.6-2-3.4-3.4-.3 3.5-1.6 4.2-13.8.8-.2 4-1.5.9-9.4-1-5.4 1.4-1.9-.7-3 .7-3.5 2.7.6 5.5-3.4-.4-5.5 3.4-4.1.2.5-6.7-1.4-1.9 1.5-3.1-4-3.3h-2.6c0 .1-1-.6-1-.6l-1.2-7.6 12-6.1 4.5-4.6.4-1.6-5-6.4-5.5-4.4-6.7-3.8 1.2-1.5v1.2c.1 0 5.5 1.8 5.5 1.8l1.1 1.6 1.6-.4 2.2 2.7 4.4 1.9 2.3-.5.5.5 1.7 1.9 1.2-.6v-.9c-.1 0 3.6 3.1 3.6 3.1h1.7c0 .1 2.3 3.2 2.3 3.2l-2.3-1.1-1 1.3 2.9 2.1-3.3-.3-.2.8 3.9 1.8 4.7-1.5 1.6 1.4.8-1.9 1.9.5 3.3-1.9h1.9v-4.3l1.4-.2v-1l-1.5-.3-1.7-.8 1 1.7-.5.3-4.1-4.9-2.6-1.1-1-.4-3-2.9-5.6-3.2Z"/><path id="LK-43" d="m148.6 137.1-.8-.3.6-4 1.9-3.8-.3-.6-.6 1.4-.2-4-3.2-4.8 1 .7.5-1.3h-1.4l.4-.8-1.7-.8.4-1.1-1.2-.3-3-4-5.6-4.6-9-4.7-6.3-1.4v-1.2l-.8-.2 1.4-1.4 4.7-.7 5.7.9 9.7 3.4 8.6 8.2h-1.3c0 .1-5.7-2.9-5.7-2.9l2.3 3.6 4.6 3v.7c-.1 0-3.2-.2-3.2-.2l.3.8-1.2.4v1l1.6.2-.4 1.4 1.8-1.7.5 1.8 2.3.2 3.3-3 2.4-.8.6-2.6 2.9-2.1 3.4-.6 3.6-6.3 1.2-4.2-.2-3.6 3.3-4.7.6-4.6 1.4-1.3 4.1-.2 5.5-3.4.5 7.9 2.8 4.2 1.1 3.8-1.2 2 .5 5.4-3.2 1.2-2.4 6.3 1.8 2.2-1.7 1-.3 2.7 21-1.1 3.7 1.5 1.6 1.6 2.7 10-4 2.2-6.9 1.2-2.6 1.3-8.6-1-4 8.1-2.6-1.3-.9 3.3 3 2 5.3 6.8-15.5 4-4.3-.5-4.5-2.5 1.4 4.6-.6 14.7-2.3-.7-4-2.4-1.3.3-1.6-1.3-5.2-.4-1.6-1-.7-3 3.2-4.2v-4.1c-.1 0 1.1-3.2 1.1-3.2l-.4-3.9 1.3-2.2-3.5-7.7-1.8-2 .6-1.2Z"/><path id="LK-44" d="m201.9 118.1 6.5-4.1 5.5-5-1-7.8h-2.8v-3.1l11.1-.3 2.4 3.1.3 2.2h2.2l3.8-4 3.2-.4-.4-1.9h2.8L241 98l.7 5 2 .4 1.8-1.1 1.2 1.1-1.8 5.5 5.2-2.5 8.8 5.3-2.7 9.4-1.6 4.1-5.3.8-5.6 3.5-9.2.2-.4 2.8 4.4 1.4 3.1 4.3v1.7l-2.2 1.3-2 3.5-2.2 1.1-1.5 2.9-2 .7-.5 2.1-6.4 5.3h-1.7l-7.1-4.3-3.5 2.4-3.2 5.1-2.3 1.6v4.9c-.1 0-3.7 1.4-3.7 1.4l-1.8 3.4-6.3-1.9-1.8-6.5-3.1-.7-1.6-1.6-.2-6.6-5.3-6.8-3-2 .9-3.3 2.6 1.3 4-8.1 8.6 1 2.6-1.3 6.9-1.2 4-2.2-2.7-10-1.6-1.6-3.7-1.5Z"/><path id="LK-45" d="m238.1 54.1 5.7 4.7-.7 1.8 2.6 2.8 3.1 1.1-4.6-5.2 18.2 16.4 8.7 20.5-.8.3-.7-1.9-1.7-.2.9.4-.2 1.4 1.1 1.5h-.9l-.3 1.4 1.8.8-.5-1 1.4-2 10.1 17.4-1.7.3-3.1-4.5-4.3-3.5-.2 1.5-1.7.7v1.1c-.1 0 3.6 3.2 3.6 3.2l1.8-1.5.5 1.1-1.1 1.6h1.6l-5 1.3-2.6 2.6-4.5-.2-7.4 1.9-1.1 1.3 2.7-9.4-8.8-5.3-5.2 2.5 1.8-5.5-1.2-1.1-1.8 1.1-2-.4-.7-5-5.5-1.2h-2.8l.4 2-3.2.4-3.8 4h-2.2l-.3-2.3-2.4-3.1-11.1.3v3.1h2.8l1 7.8-5.5 5-6.5 4.1-21 1.1.3-2.7 1.7-1-1.8-2.2 2.4-6.3 3.2-1.2-.5-5.4 1.2-2-1.1-3.8-2.8-4.2-.5-7.9 3.4.4-.6-5.5 3.5-2.7 3-.7 1.9.7 5.4-1.4 9.4 1 1.5-.9.2-4 13.8-.8 1.6-4.2.3-3.5 3.4 3.4 3.6 2v-5.8l3-2.2.6-2.3-.2-.2.2-1.2 1.2-.4Z"/><path id="LK-51" d="m375.1 278.8 1 .5.3 1.6-1.9 2.1-.6-2.3 1.2-1.8Zm7.4 5.2 3.4 6.9 3.1 12 .2 2-1.3.6-.2 2.5-3.1-2 .6-1.1 1.1 1.3v-1.7c.1 0-2.2-.2-2.2-.2l1.7-2-1.4-4.8 1.1-3.5-1.9-1.2-2.3-6.1-1.7.4-1.6-2.3.7-1.4-2.4-5.6.4-2.4zm-57-75.4 2.3-1.5 3.1-.5.9 1.7h3.3l.8-.9.2 1.4.9.2.5-1.8 2.4 8.9 1.3 2 .4 9.6-1.2.4-2.2-4.4-1.7-7.7-.6.6-.8-.6-.6 1.5.8.3-.9 1.5.7 3.3 2.4 1.2.5 3.4 3.6 2.5.4-3.4.8.2-.9-3.1 2.6 3.4-.4 2.1 1.3 4.7 2.8 5.3 5 3.9 2.1-1.1.2-.4 1 .7-1.8 3.2 1.4 2.9-1.7 1.2h-2.1l-1 1.5.3 1.6-.6.9 1.5 4.5h-.6v1h1.6l2.2 3.9-4.4-.4-.7 3.3 3-1.2-.2-.7 2.3 1.3.5-2.8-1.2-1.3.4-.8-2.4-2.1-1.3-4.8.6-.6-.4-2 3.2-.6 2.1-2 .6 2 2.7.9-1.8.3-.7 2.2.6 4 1.7 3.5 2.4 2.3 1.6.3 1-.9 2.6 5.3 5.5 3.7 2.9 4.1-.8 1.6-2.9-2 .7 1.2-.5 1.2 1.1 1-.5 1.2H372l-1.1-3.9.4-1.4-1.9-1.8h-1.6c0 .1-4.8-3.1-4.8-3.1l-.8.4v1.3l-1.3.5-.8 3.8 3.9 1.6 1.4-2.8 1.8 1.5 3 .2-1.5 1.6 2.6 2.3v1.6l2.4-.1 1.5 2.9-1.1.5-.2 1.6h.8c0 .1-.4 1.4-.4 1.4l1.4 2.3-.3-2.7.7-1.3.9.9 1.3-1.7 1 2.9h1.3c0 .1 1.9 3.5 1.9 3.5l-.8 1 2.8 1.3-1.3 1.8-2 .3 1.4 1.4 1.2-1 .5 3h-1.8l-1.3-1.4-.8.5.6 1.9 2.8-.7.7 1.5 1.2.2-1.6 1.1-.2 1.3-2.5-.9 2.8 3.2-1.2.6-1.1 2.7-3.4.4-7.8 7.2-.4-9.4-1.6-3.8.2-2.9-3.9 2.2h-13c0-.1-2.9-.9-2.9-.9l.6-.8-6-2.7-2.4-3.5 1.8-6.4-.2-2.9-7.9-1.9-2-1.3-5-6.7-.6-1.9-7.8-.2-1.1.6-1.7-1.1-1.8-5.3-.3-5.4 1-2.6-.6-3 1.2-2.8v-4l2-2.1h2.8l1.9-1.3 2.4 1.2h4.1v-2.5l-4.3-9.3.5-28.5Z"/><path id="LK-52" d="m316.8 274.2 1.7 1.1 1.1-.6 7.8.2.6 1.9 5 6.7 2 1.3 7.9 1.9.2 2.9-1.8 6.4 2.4 3.5 6 2.7-.6.8 2.9.8h13c0 .1 3.9-2 3.9-2l-.2 2.9 1.6 3.8.4 9.4 7.8-7.2 3.4-.4 2.8.4.6-3 .7 1.3v4.2l1.9 1.7-.9-2.1.2-.4.5-2.3 1.8.7-.6-2.4.7-.6 6.4 17.1.8 7-.5 5.6-.6-.5.3 7.8h-1.4c0-.1-.2 1-.2 1l-2.4 1.5-.6-1-.5 2.4.7-.6 1.3 3-1 .9 1.7 1.3.4-1.4-1-1 1.4-1.2.9.7-.3-3.2 1-2.2-.6 10.5 2.7 10.1-4.5 15 .7 1-.3 3.3-1.9 2.2 1.2 2.5-1.5.6-.7 1.9-.6 3.6.9 2.9-3.1 4-.2 3.3-3.5 4.5.5 3.6-2 3.9.4 1.4-2.2 1.8-2.9 6.4-2.5 2.9h-2.3l-4.4-4-1.7.3-3.8-4.7 2.6-42.6 1.1-6-2.5-2.4.4-2.5-1.8-3.5 1.5-3-.6-2.5-11.9-3.7-1.2-2.6.3-2.4-1.7-1.6 2.8-6.2 3.9-2.5-2.4-2.9-1.4-.4.6-1.4-1.1-4.7-5.1-4.4 1.5-1.7-2.3-7 .6-3.7-1.9-1.1 2.1-3.1-2.9-.5-6.2 3.2-.2 2.1-2.2 1.1-1.8-.3-.2 1.6 1.6 3.4-2.7 1.7.2 1.8-2.9 1-3-.2.3 9.5-4.8 2.9-1.9-4.6V331c.1 0-3.2-4.4-3.2-4.4v-1.2l-1.1-.8-2.2 1.1-3.4-5.7.9-2.4-2.3-6.1 2.1-3.5v-3.8l1-2-.2-5-.8-1.1-1.4-1.2-3.1.5-6.4 3.2-4.7 4.2-1.5-.4-1.2 1.2h-1.8l-1.6-4.1-1.8-1.9-.3-5.5-3.5-2-1-1.8 2.1-4.7-.9-3.5.7-1.3-.4-2.9 7.7.4 2.5-1.5 3.3.7 3 4.5 10.2 3.7 2 1.8 1.1-3.2 2.1-1V277l-.7-1.1.9-2.2Z"/><path id="LK-53" d="m276.8 114-1.5 1.5 1.9 1-.5 1-2.7-.5v2.4c.1 0 .9-.4.9-.4l.4 2.1 1-.3h.8c0-.1 1.9 1.2 1.9 1.2l.5-1.3-1-.5 3.1-1-1.2-2.4 1.5-2.1 3.8 5.7 1.8 1.1.3 2.5-1.2 1.1h1.6v-1.8l2 4 4.9 4.7.6-.8-.8-.4 1.4-1.1-.3.9h1.1l.7 3.5 3 5.6h.8c0-.1 2 2.6 2 2.6l1.2.3 3.4 4.5 3.8 7.3 2.7 3 .2 3.2-.9 2.6 2 3.9 1.3-.6-1 1.7 1.2 1.2v1.8l-2.5 1.4.7-1.5-1.3.2 1.6-2-.8-1.5-2.6 1 1.7-2.2-2.3 1.8-.5-1.2-.9 3 1.7-.2-1.3 1.4 1 .3-.2 1.7 1 .4.4 2.2-2.6.2-1-.7v-2.9c-.1 0-1 1.3-1 1.3l-3.1-2.5-2.5 4.2-1.5.4.3 1.4 1.7 1.2 1.6-2.3 2.5-.9 2.7 1 1.4 5.8.2-1 2.3 1.1 7.2-.5 1.2-2.5-.9-3 2.7-.2 2.6-2 4.1 3.8 3.2 14.4 1.8 3-1.8-.2-1.2-2.5.3 2 .5 1.7 1.6-.8v3.6l2.1 8.5-.5 1.8-.9-.2-.2-1.4-.8 1h-3.3l-.9-1.8-3.1.5-2.3 1.5-2.8-1.1-2.8 2.6.4.8-2.4 1.1v2.1c.1 0-1.6 2-1.6 2l.7 1.9-1.1.6-.4 2.4-4.9.5 2.6-3.6-1.1-.6.2-4-.9-2-1.6.5-2.6-.9-3.4-3.4-4.3.6-3.6-2-5.3-.9-6 .7-1.1-5-3.6-1.3-1.4-2.5-1.2-.3-.9 1.1.4-4.7 3.4-8.4 2.4-2.7v-1.1c-.1 0 2.3-.8 2.3-.8l-.6-1.3h-1.2l-1.7-.1v-1.7l-2-1.1-.4-5.7-3.4-4.2-.2-2.6-2.8-2.2v-3.1l2.5-4.5-2.8-5.3v-2.7c-.1 0-1.6-1.2-1.6-1.2v-2l.6-2.6 3.5-4.5.2-1.7-5.2-5.8-2.3-.6-5.3-3.6-3.5-.7-4 2 1.6-4.1 1.1-1.3 7.4-1.9 4.5.2 2.6-2.6 4.9-1.4Z"/><path id="LK-61" d="m171.6 215.8 2.9 2.2 7.3 2.2.8 1.5 2.1-.3.8 1.2 4.7 1 2.2 2.6 5.5-.3 7.9 7.7 2.8 1.1 1.6-.9 1.7 1.4-.5 4.9 1.5 5.6-1.2 1.5 1.6.3 2.3-.9 1.5 1.2.3 3.9 2.1 4.7-1.4 3.8 1.2.9.6 2.6 2.1 1-.4 4.1.9 1.2h1.8c0 .1 2.4 4.7 2.4 4.7v3.6l1.4.3.7 4.6-.9 1.2.5 2.4 2 1.5 1.4 2.9-.9 1.6.7 2.5-1.4.4-1.4 2.8v1.6l1.7 2-.3 1.1 1.3.9.3 3.9-1.4 1 .2 1.5-1.4.9-1.5-.3 1.7 4.3-5.1.7.2 2.9-1.4.4-3.2-2.7-2.4-.5 1.3 2.2-2.7 4.1 1 1.3-1.6-.8-3.2.2-1.4-3.3-2.5-1.7-5.8 1.2 1.1 3.3-1.4 1.4.6 1.3-1.1 2.4-1.9-.8-1.3 1.1-6.3 1.1-6.7 4.7-1.4 2.1h-1.1l-1.3-.3-1.9-3-2.9-2.1.3-1.6-3-2.4-8.3 6-1.8-2-2-.2-.4-1.9-1.5.4-1-.7-3.8 3.5-3.2.3.5 1.2-1.7.7-.5-9.2-4.3-21.1.2-13.8 1.9-1.8.3-1.6 1.4-.3-1.4-1.2 1-.8v-1.5l2.2-.7 1.6.9.5-1.5-3-1.1 1.8-.9v-2.2c.1 0 2.5-.3 2.5-.3l3.3-2.8-.9-2.1 1.1-2.1-.8-2.4.3-1.9 2-.6-.9-1.8 4.1-2 .5-2.8 3-.7v-1.7l1-.6-.2-2.9 2.8-.9.6.9 1.1-1.8v-2.4l1.6.1 1.4 1.6 2.2-1.1-2-3.1 2.2-4-.8-1 1.3-7.8-3.2-1.6-1.7-2.4-2-8.8.4-3.7Z"/><path id="LK-62" d="m128.7 202.2-1.6 1.6.6 1.8-.2.5.9.4-.7 1.5-.7 1.2-2.1.2 1.6-5.4 1.1-1.8h1.2Zm1.6-9.6 1.1 1.2-3.5 7.2 2.3-8.4Zm18.6-24.1 1.6 1 5.2.4 1.6 1.3 1.3-.3 4 2.4 1.4 3.8-1.6 4.4-1.9 2.9-3.5 2.4.3.9-1.6 2-2.9.6-.5 3.3 2.8 3.7 1 7.7 1.8 3.3.5 3.4 3.4.3 1.4-1.3 3.1 2.1 2.2-.3 3.1 3.3-.4 3.7 2 8.8 1.7 2.4 3.2 1.6-1.3 7.8.8 1-2.2 4 2 3.1-2.2 1.1-1.4-1.6h-1.6v2.2l-1.1 1.8-.6-.9-2.8.9.2 2.9-1 .6v1.7l-3 .7-.5 2.8-4.1 2 .9 1.8-2 .6-.3 1.9.8 2.4-1.1 2.1.9 2.1-3.3 2.8-2.4.3v2.2c-.1 0-2 .9-2 .9l3 1.1-.5 1.5-1.6-.9-2.1.7v1.5l-1.1.8 1.4 1.2-1.4.3-.3 1.6-1.9 1.8-.2 13.8 4.3 21.1.5 9.2-2-1.1-2.4 2 .3-1.7-2.6.8-1.6-1.2-1.8 1.7-.9-.9-1.4.4-7-34.3-.4-8.1 2.2-1-.6-11.1-7-30.9-4.7-14.6-.2-14.1-1.5-5.5 5.8-2.5 3.7-4.1 1.2.2-1.6 2.5.5 3.1-1.6-.9-2.4 2.9 1.5 2.3-1.4 5.1-1.3.9v1.7c-.1 0 1.1 1.9 1.1 1.9l-.6 3 1 1.8 2.1 1-1.7 1.2.4 2.5-1.1 2.4 1.2 2.7 3 1.4 5.7.8 2.2-.7.2-4.8-5.6-7.1 1.3.3-1.3-1.7 1.6.2 1.6-1.7.7-3.1 1.8-.9v-2.7c-.1 0-2-1.5-2-1.5l-.4-2.5h1.1l-.5-2.8-2.7-2.3 1.4-.4-2.7-1.1 2.7-.6 1.1-4.4 1.9-3 .8.3-1.1-3.9 1.8-3.5-.4-9.3.5-2 2.2-1.7.8-10.7 5.7-1.5 1.1-2.2Z"/><path id="LK-71" d="m254.5 125 4-2 3.5.7 5.3 3.6 2.3.6 5.2 5.8-.2 1.7-3.5 4.5-.5 2.6v2l1.4 1.2v2.7c.1 0 2.9 5.3 2.9 5.3l-2.6 4.5v3.1l2.9 2.1.2 2.6 3.4 4.2.4 5.7 2.1 1.1v1.7h2.8l.6 1.3-2.5.8v1.1c.1 0-2.3 2.7-2.3 2.7l-3.4 8.4-.4 4.7-1.6 1.3-1.6 5.8-12.1.3-2.4 9.5-3.3 6.9V232l2.2.3-3.5 5.6.8 1.2-6.4 2.6-3 4.5-1.8-.9-1.3.4-.6 5.7-2.8 1.9.8 1.5-2 .8v1.8l-2.9 1.6-1.2-1.5-1.8-.2-1.4 2.5-5.2 2.8-3.1.2v1.4h-.1l-2.1-1-.6-2.6-1.2-.9 1.4-3.8-2.1-4.7-.3-3.9-1.5-1.2-2.3.9-1.6-.3 1.2-1.5-1.5-5.6.5-4.9-1.7-1.4-1.6.9-2.8-1.1-7.9-7.7-5.5.3-2.2-2.6-4.7-1-.8-1.2-2.1.3-.8-1.5-7.3-2.2-2.9-2.2-3.1-3.3-2.2.3-3.1-2.1-1.4 1.3-3.4-.3-.5-3.4-1.8-3.3-1-7.7-2.8-3.7.5-3.3 2.9-.6 1.6-2-.3-.9 3.5-2.4 1.9-2.9 1.6-4.4-1.4-3.8 2.3.7.6-14.7-1.4-4.6 4.5 2.5 4.3.5 15.5-4 .2 6.6 1.6 1.6 3.1.7 1.8 6.5 6.3 1.9 1.8-3.4 3.6-1.4v-4.9c.1 0 2.5-1.6 2.5-1.6l3.2-5.1 3.5-2.4 7.1 4.4h1.7l6.4-5.4.5-2.1 2-.7 1.5-2.9 2.2-1.1 2-3.5 2.2-1.3v-1.7l-3.1-4.3-4.4-1.4.4-2.8 9.2-.2 5.6-3.5 5.3-.8Z"/><path id="LK-72" d="m276.4 197.8.9-1.1 1.2.3 1.4 2.5 3.6 1.3 1.1 5 6-.7 5.3.9 3.6 2 4.3-.6 3.4 3.4 2.6.9 1.6-.5.9 2-.2 4 1.1.6-2.6 3.6 4.9-.5.4-2.4 1.1-.6-.7-1.9 1.8-2v-2.1c-.1 0 2.2-1.1 2.2-1.1l-.4-.8 2.8-2.6 2.8 1.1-.5 28.6 4.3 9.3v2.5h-4.1l-2.4-1.2-1.9 1.3h-2.8l-2.1 2.2v4l-1.2 2.8.6 3-1 2.6.3 5.4 1.8 5.3-1 2.2.7 1.1v4.3l-2.1 1-1.1 3.2-2-1.8-10.2-3.7-3-4.5-3.3-.7-2.5 1.5-7.7-.4-7.8 1.7-5.6-.9-.8 4.5-.8-1.3-1.9-.2-.3-1.3-2.1 2.5-3.5 1.2-.6-1-3.3.2-2.3-2.3 1.1.7.6-1.5-1.4-4.1-.3-7.4 1-1.3 3.4-.3-.3-1.6 1.1-.6 1.1-3.8 1.1-9.3 1.8-3.8 2.5-1.1-1.7-1.2h-1.8c0 .1-1.4-1.4-1.4-1.4l-2 .9v2l-1.4-.2-1.2-.7v-3.4c.1 0-2.8-2.2-2.8-2.2l-.8-1.2 3.5-5.6-2.3-.3v-10.5l3.4-6.9 2.4-9.5 12.1-.3 1.6-5.8 1.6-1.3Z"/><path id="LK-81" d="m283.2 288.8 1 1.8 3.5 2 .3 5.5 1.8 1.9 1.6 4.2h1.8c0-.1 1.2-1.3 1.2-1.3l1.5.4 4.7-4.2 6.4-3.2 3.1-.5 1.4 1.2.8 1.1.2 5-1 2v3.8l-2.1 3.5 2.3 6.1-.9 2.4 3.4 5.7 2.2-1.1 1.1.8v1.2l3.2 4.4v1.8h-.1l-5 1.2.6 3.6-3.7 4.8-2.3 1.3-.4 2.4h-2.7c0-.1-1.6-2.8-1.6-2.8l-3.6 3.9.4 2.5 4.1 4 1.2 3.8 5.6-1.6.8 2 1.3-.5 2.2 7.9-1.8 4.3.3 2.9-1.8.7.8 1.8-2.5.8-.4 2.3h-2.2l-.5-.9-.8 3.1-2.2 1.8-5.9 2.3-.3 1.2 3.5 3.1-5.2 1.4.3 2-.7.4-3.5-.6v6.6c-.1 0-1.8 2.9-1.8 2.9l2.5.2 1.8 1.2-.9 2.6-1.7 1-.5 6.2.5 2.3 2.7 3-1.3-.2-1.8 1.5v2.7l-2.7-1.5-.9.9-1.1 1.3-.3 4-3.5-4.2.5-5.1-1.1-.7-1.5.4-.3-3.6-1-1.2h-2l-.2-2.2-1.6-.9v-1.5l-1.5.4-1.7-.9-.9 2.1-2.2.4-1.3 1.5-2.2-.2-.8 1-3.5-1.5-.5-2.5-1.7-1.8 5.5-2-.6-1.4 1-1.4-3-.5-1-2.1-2 .8-.3-4.6h2.2c0-.1 1.2-1.4 1.2-1.4l.4-1.2-2.5-.9-.4-1.2 2.3-.7.8-1.5-2.2-2.2.4-1.8-1.6-.4-.2-2.8-4.1-1.1-.2-.8.7-.7 4.4.3 1.8-1.4.6-3.3 3.4-2.9h4.6c0 .1 2.7-1.6 2.7-1.6l1.2-6 4.6-5-1.8-3 1.7-2.5-1.9-1.1.3-1.9 1.1.4v-1.9l-2.3-4.7.4-.9 3.3.5 1.3-2.1 3.2-.5 1.1-2.2-5.2-16.7.8-3.7-1.7-2.6.7-1.7v-7.8h-.1l-.3-10 .8-7.5Z"/><path id="LK-82" d="m320.5 333.3 1.9 4.6 4.8-2.9-.3-9.5 3 .2 2.9-1-.2-1.8 2.7-1.7-1.6-3.4.2-1.6 1.8.3 2.2-1.1.2-2.1 6.2-3.2 2.9.5-2.1 3.1 1.9 1.1-.6 3.7 2.3 7-1.5 1.7 5.1 4.4 1.1 4.7-.6 1.4 1.4.4 2.4 2.9-3.9 2.5-2.8 6.2 1.7 1.6-.3 2.4 1.2 2.6 11.9 3.7.7 2.5-1.5 3 1.8 3.5-.4 2.5 2.5 2.4-1.1 6-2.6 42.6-1.1 2.2h-1.4l-1 1.3-2-.5-2.3 2.3h-1.8l-1.1 2.1-5.3 3-.4 2.9.9 1.1-1.3 2 .4 3.8-1 1.4-4.1-1.5-5 1.7-.9-1.1-1.2 2.1-2.1 1-11.3 2.7-2 2.9-3.5.6-1.8-1 .4-1.1-5.1-6.1-3.5 1.6-1.6-.6-1-3-8.4-.3-1.2 1.6-1.6-1.3v1.9l-1.5 2-3-.6-.6 1.1v2.4c-.1 0 1.8 1.3 1.8 1.3l-.6 1.8-6.4 2.5-6.1 3.8-2.2-6.1-4.8-1.7-3.4-5.7.7-.7-.8-2.5.6-.9-.8-.8.9-2-1.9-4.3 4.6-7.6-.4-1.4 1.5-2.7-.4-1.4h.9c0-.1-.1-2.3-.1-2.3l3.6-3.6 1.2-4.2 2-2 1.5-.4v1.5l1.5.9.2 2.1h2l1 1.3.3 3.6 1.5-.4 1.1.7-.5 5.1 3.5 4.2.3-4 1.1-1.3.9-.9 2.8 1.5v-2.7l1.8-1.5 1.3.2-2.7-3-.5-2.3.5-6.2 1.7-1 .9-2.6-1.8-1.2-2.5-.2 1.7-2.9v-6.6c.1 0 3.7.6 3.7.6l.7-.4-.3-2 5.2-1.4-3.5-3.1.3-1.2 5.9-2.3 2.2-1.8.8-3.1.5 1h2.2l.4-2.4 2.5-.8-.8-1.8 1.8-.7-.3-2.9 1.8-4.3-2.2-7.9-1.3.5-.8-2-5.6 1.6-1.2-3.8-4.1-4-.4-2.5 3.6-3.9 1.6 2.7h2.7c0 .1.4-2.2.4-2.2l2.3-1.3 3.7-4.8-.6-3.6 5-1.2Z"/><path id="LK-91" d="m185.3 379.2 1.8-1.7 1.2 3.6 1-.6 1.2.8 2.3 3.5 1.7.5.4 1.9 3.3-.9 3.8 4.1 2.2-2.5h4l1.4-1.3 3.1 2.5 1-1.1 2.5 1.9 5.7.2-.5 2 1.3 1-1.7 1.5 1.6 2.3 3.4 1.3 2.2-1 3.6 1.5 8 1.3 2.3.3.9-1.4 5.8.9 3.2-1.1 1.7.7 3.8-2.6 1.9.6 2.6-2.3.3 4.6 2-.8 1 2.1 3 .5-1 1.4.6 1.4-5.5 2 1.7 1.8.5 2.5 3.5 1.5.8-1 2.2.2 1.3-1.5 2.2-.4.9-2.1 1.7.9-2 2-1.2 4.2-3.6 3.6v2.1c.1 0-.8.1-.8.1l.4 1.4-1.5 2.7.4 1.4-4.6 7.6 1.9 4.3-.9 2 .8.8-.6.9.8 2.5-.7.7 3.4 5.7 4.8 1.7 2.2 6.1 2.7 3.2 1.5 4.1-1.7 1.4-1.1-1.5-2.6.3-2.3-1.4-1.3.3-1.6-2.6-1.4-.7-7.6.6-12-5h-4.3l.7-2-2.3-2 .8-.3-.3-1.8-6.4 1-.6-1.8 1.4-1.5.2-3.2-8.1.9-.7-.8-2 1v1.8l-4.9.9-.5-1.6-2.4.2-4-2.1-2.7.3-4.7-4.3-11.2-17.4 2.4-1-1.3-3.3-2.7-2.8-3.4-1.2-.7-4-4.3-4.3-2.1-4.5.9-.7-3.3-10.3 2.9-.5-1-4.3-2.3-1.1 1.7-5.1 2.5-2.3Z"/><path id="LK-92" d="M183.2 335.8h1.1l1.4-2.1 6.7-4.7 6.3-1.1 1.3-1.1 1.9.8 1.1-2.4-.6-1.3 1.4-1.4-1.1-3.3 5.8-1.2 2.5 1.7 1.4 3.3 1.2 3.9 3 1.7 3.4 3.6-.2 2.7 3.1.7 1.9 2.2.5 2.6-1.2 1.6 4.4 4.9-2.4 1 .7 1.4-3.1.2-1.2 2.7-5.7.8-1.3 1.1 2.4 6.2h.8l-1.3 2.3.3 2.4.5 1.4-2.2 2.3-2.2.9 1.6 3.5-1 1.2-.6 5.4 8.3 3.4-.4 1.9 2.1 3.1-2 2-5.7-.2-2.5-1.9-1 1.1-3.1-2.5-1.4 1.2h-4l-2.2 2.5-3.8-4.1-3.3.9-.4-1.9-1.7-.5-2.3-3.5-1.2-.8-1 .6-1.2-3.6-1.8 1.7-.3-2.5 1.5.2.5-.8-.6-4-5-.6.4-2.2-2.3-8.2 5.6-9-4.4-.5-1.5 1.3-1.1-3.1v-3.4l-1.1-1.6 1.5.6.7-1.2h2.8v-5.3l1.9-1.4z"/></g></svg>