<?xml version="1.0" encoding="UTF-8"?>
<svg id="Layer_1" xmlns="http://www.w3.org/2000/svg" xmlns:amcharts="http://amcharts.com/ammap" version="1.1" viewBox="0 0 512 512">
  <!-- Generator: Adobe Illustrator 29.1.0, SVG Export Plug-In . SVG Version: 2.1.0 Build 142)  -->
  <g id="_x3C_defs">
    <amcharts:ammap bottomLatitude="5.918161" leftLongitude="79.649879" projection="mercator" rightLongitude="81.879063" topLatitude="9.836123"/>
  </g>
  <g>
    <path id="LK-11" d="M141.9,371.5h1.6s-.5,2.5-.5,2.5l2.7.3v1.1c0,0,2.1.2,2.1.2l.8-.8,1.6.3,1.3,1.5,1.5-.6,3.9.9,1-1,2.6-.3.8,2.7,5.1,2.2.6-.7,1.3.7,2.4-.5.7-5.1,2.9-1.8.3-1.1,5.4.5.5-1.2,1.2.2h0l5,.6.6,4-.5.8-1.5-.2.3,2.5h0l-2.5,2.3-1.7,5.1,2.3,1.1,1,4.3-2.9.5h0l-3.8-1.4-4.2,2.4,1,3-.5,1.5-1.5-.2-1.4-4-2-1.7-2.5,3.4-3.3-2-4.1,4.5-3.2,1.6-3.5-.6-.8,1.8h-3.2c0,0-.9-2-.9-2l-3.1-1.5,1.8,7.7h0l-5-13.6-.7-6.6-2.1-7.3.4-2.8.4,1.8.7-2.8,1.4-.5.7-1.6Z"/>
    <path id="LK-12" d="M151.1,333.6l1.7-.7-.5-1.2,3.2-.3,3.8-3.5,1,.8,1.5-.4.4,1.9,2,.2,1.8,2,8.3-6,3,2.4-.3,1.6,2.9,2.1,1.9,3,1.3.3h0l.6,1.6-1.9,1.4v5.2c0,0-2.7.1-2.7.1l-.7,1.2-1.5-.6,1.1,1.6v3.4s1,3.1,1,3.1l1.5-1.3,4.4.5-5.6,9,2.3,8.2-.4,2.2h0l-1.2-.2-.5,1.2-5.4-.5-.3,1.1-2.9,1.8-.7,5.1-2.4.5-1.3-.7-.6.7-5.1-2.2-.8-2.7-2.6.3-1,1-3.9-.9-1.5.6-1.3-1.5-1.6-.3-.8.8-2.1-.2v-1.1c0,0-2.7-.3-2.7-.3l.5-2.5h-1.6s-6.7-28.7-6.7-28.7l.9-.5.5.7-.6,2.4,3.1,7.9-.3,1.1.8.6.9-.6.5-1.8.6,1.7.6-1.1-.7-6-2.3-4-2,1.4-.5-2.4,1.4-2.2.4-5.9.2-.3h0l1.4-.4.9.9,1.8-1.7,1.6,1.2,2.6-.8-.3,1.7,2.4-2,2,1.1Z"/>
    <path id="LK-13" d="M146.1,404.9l-1.8-7.7,3.1,1.5.9,2h3.2c0,0,.8-1.8.8-1.8l3.5.6,3.2-1.6,4.1-4.5,3.3,2,2.5-3.4,2,1.7,1.4,4,1.5.2.5-1.5-1-3,4.2-2.4,3.8,1.4h0l3.3,10.3-.9.7,2.1,4.5,4.3,4.3.7,4,3.4,1.2,2.7,2.8,1.3,3.3-2.4,1,11.2,17.4h0l-1.8-.2-7.1,3.9-2.8.6,1.5,6.6-.5,2-7.8-6.7-2.7-.3-1.1,1v1.7s-2.1.6-2.1.6l-4.6-1.6h-3c0,.1-5.5-4.4-5.5-4.4l-2.2.6-1.2-1.4-4.2-1.5-1.6-2-2.2,1.2-1.2-1.7h0l-1.9-2.6v-1.3c-.1,0,1.1-1,1.1-1l-.4-5-9.8-25.2Z"/>
    <path id="LK-21" d="M230.6,310.2l1,2.2,6.6,4.9,3.7,2.2h2.2c0,0,3.5-.3,3.5-.3l1-1.1.8-3.9-1.4-4,3.4-2.2,3.3,3.3,4.7,2.7,2.3-1.6-.2-1,1.7-1.6,2.5-.4,1.3-1.2,1.6-.3,2,1.2,2.5-1.2,1.1,2.1.4-.8,1.1.4,1.9-3.6h5.2c0,.1.1,8,.1,8l-.7,1.7,1.7,2.6-.8,3.7,5.2,16.7-1.1,2.2-3.2.5-1.3,2.1-3.3-.5h0l-6.2.2-1.7,2.3-.6-1.8-3.7.6-5.2-1.1-1-.8v-2.7c0,0-6.4-6.1-6.4-6.1v2.9c.1,0,1.9,1.8,1.9,1.8l.5,4.9-5.2,5.1-5.2,8.4-5.1-1.3-1.4.5-1.4,2.6-6.3.6-.8-1-1.3.7-.9-.6-1.7,1.1-.2,1.5,1.6-.4,1.2,3.2,5.2,5.8-1.7,3.8-1.5.7v1.9s-3.1.5-3.1.5l-1.7-2.7-3.1-2.6-2.3-5.6-3.1-1.4-1.3,1.1h0l-.3-2.4,1.3-2.3h-.8s-2.4-6.2-2.4-6.2l1.3-1.1,5.7-.8,1.2-2.7,3.1-.2-.7-1.4,2.4-1-4.4-4.9,1.2-1.6-.5-2.6-1.9-2.2-3.1-.7.2-2.7-3.4-3.6-3-1.7-1.2-3.9h0l3.2-.2,1.6.8-1-1.3,2.7-4.1-1.3-2.2,2.4.5,3.2,2.7,1.4-.4-.2-2.9,5.1-.7-1.7-4.3,1.5.3,1.4-.9Z"/>
    <path id="LK-22" d="M254.9,239.3l3,2.2v3.4c-.1,0,1.1.7,1.1.7l1.4.2v-2c0,0,2.1-.9,2.1-.9l1.4,1.6h1.8c0-.1,1.7,1.1,1.7,1.1l-2.5,1.1-1.8,3.8-1.1,9.3-1.1,3.8-1.1.6.3,1.6-3.4.3-1,1.3.3,7.4,1.4,4.1-.6,1.5-1.1-.7,2.3,2.3,3.3-.2.6,1,3.5-1.2,2.1-2.5.3,1.3,1.9.2.8,1.3.8-4.5,5.6.9,7.8-1.7h0l.4,2.9-.7,1.3.9,3.5-2.1,4.7h0l-.8,7.5.3,10h-5.2c0-.1-1.9,3.4-1.9,3.4l-1.1-.4-.4.8-1.1-2.1-2.5,1.2-2-1.2-1.6.3-1.3,1.2-2.5.4-1.7,1.6.2,1-2.3,1.6-4.7-2.7-3.3-3.3-3.4,2.2,1.4,4-.8,3.9-1,1.1-3.5.4h-2.2c0,0-3.7-2.3-3.7-2.3l-6.6-4.9-1-2.2h0l-.2-1.5,1.4-1-.3-3.9-1.3-.9.3-1.1-1.7-2v-1.6s1.4-2.8,1.4-2.8l1.4-.4-.7-2.5.9-1.6-1.4-2.9-2-1.5-.5-2.4.9-1.2-.7-4.6-1.5-.3v-3.6c0,0-2.4-4.5-2.4-4.5h-1.8c0-.1-.9-1.3-.9-1.3l.4-4.1h0v-1.4c.1,0,3.2-.2,3.2-.2l5.2-2.8,1.4-2.5,1.8.2,1.2,1.5,2.9-1.6v-1.8s2.1-.8,2.1-.8l-.8-1.5,2.8-1.9.6-5.7,1.3-.4,1.8.9,3-4.5,6.4-2.6Z"/>
    <path id="LK-23" d="M217.6,365l1.3-1.1,3.1,1.4,2.3,5.6,3.1,2.6,1.7,2.7,3.2-.5v-1.9s1.5-.7,1.5-.7l1.7-3.8-5.2-5.8-1.2-3.2-1.6.4.2-1.5,1.7-1.1.9.6,1.3-.7.8,1,6.3-.6,1.4-2.6,1.4-.5,5.1,1.3,5.2-8.4,5.2-5.1-.5-4.9-1.7-1.8v-2.9c-.1,0,6.3,6.1,6.3,6.1v2.7c0,0,1.1.8,1.1.8l5.2,1.1,3.7-.6.6,1.8,1.7-2.3,6.2-.2h0l-.4.9,2.4,4.7v1.9c0,0-1.2-.4-1.2-.4l-.3,1.9,1.9,1.1-1.7,2.5,1.8,3-4.6,5-1.2,6-2.7,1.7h-4.6c0-.1-3.4,2.7-3.4,2.7l-.6,3.3-1.8,1.4-4.4-.3-.7.7.2.8,4.1,1.1.2,2.8,1.6.4-.4,1.8,2.2,2.2-.8,1.5-2.3.7.4,1.2,2.5.9-.4,1.2-1.2,1.2h-2.2c0,.1-2.6,2.4-2.6,2.4l-1.9-.6-3.8,2.6-1.7-.7-3.2,1.1-5.8-.9-.9,1.4-2.3-.3-8-1.3-3.6-1.5-2.2,1-3.4-1.3-1.6-2.3,1.7-1.5-1.3-1,.5-2h0l2-2-2.1-3.1.4-1.9-8.3-3.4.6-5.4,1-1.2-1.6-3.5,2.2-.9,2.2-2.3-.5-1.4Z"/>
    <path id="LK-31" d="M157.1,440.1l1.2,1.7,2.2-1.2,1.6,2,4.2,1.5,1.2,1.4,2.2-.6,5.5,4.5h3c0-.1,4.6,1.5,4.6,1.5l2.1-.6v-1.7s1.1-1,1.1-1l2.7.3,7.8,6.7.5-2-1.5-6.6,2.8-.6,7.1-3.9,1.8.2h0l4.7,4.3,2.7-.3,4,2.1,2.4-.2.5,1.6h0l-2.2.3-2.2,1.7,4.5,6.6-2.6,2.5-2.7-1-6.3-5.8-3.5,1.1,2,2.8,2.5,1.3,3.3,4.9-.5.8.8,1-.7.5.6,1.4-1.7,1.5-5.5-.9,2.5,3.9-1.9.5,1.1,1.9-1.5.8.2,3.5,1.8,1.2.7,1.8,1.8.4,2.3,2.2-3.6,3.1-.8,2.1-2-.2.3,2.6,2.6.2,1.4,1.7-4.2,1.4-1.1,3.1.4,2.3h0l-9.2-3.5-6.3-.9-1.7-1.4-.9.5-1-1.5,1-1.3-.5-.6-1.2.3-.7-.8-.9,1.6-11.5-9.6-.5-1.6-2.9-2.4-.2-2.3-4.7-5.6-1.1-5.3-2.2-3.3.3-4.5-6.2-18.4Z"/>
    <path id="LK-32" d="M221.7,449.3l4.9-.9v-1.8s2-1,2-1l.7.8,8.1-.9-.2,3.2-1.4,1.4.6,1.8,6.4-1,.3,1.8-.8.3,2.3,2-.7,2h0l-1.7.4.9,1.9-1.4,2.1,1.2,1.2-3,1.1-3.9,6.8.4,1.4,3.3,2.4,2.9-.5-1.5,5.1,1.6.6.4,1.2,3.9-.2.2.7-2,1.7,1.7,3.4-.2,1.6-3.9,1.4-.8,1.2,1.1.5.4,1.7,3.2-.2.9,1-1.5,1.3.2,2.3,1.9-.3,2.7,1.8h0l-.9,2.4-3.3-.5-5.2,1.1-1.2,1.4-2.2-.2-.5,1.8-3.2.7-.4,1-1-.2-.8-1.9-2.7-.8-4.3.8-9-.8-.9-.7.9-.2v-1.8c.1,0-1.9-1.2-1.9-1.2l-1.3.2-1.2,2.1-4.2-1.2h0l-.4-2.3,1.1-3.1,4.2-1.4-1.4-1.7-2.6-.2-.3-2.6,2,.2.8-2.1,3.6-3.1-2.3-2.2-1.8-.4-.7-1.8-1.8-1.2-.2-3.5,1.5-.8-1.1-1.9,1.9-.5-2.5-3.9,5.5.9,1.7-1.5-.6-1.4.7-.5-.8-1,.5-.8-3.3-4.9-2.5-1.3-2-2.8,3.5-1.1,6.3,5.8,2.7,1,2.6-2.5-4.5-6.6,2.2-1.7,2.2-.3Z"/>
    <path id="LK-33" d="M363.6,422.4l3.8,4.7,1.7-.3,4.4,4h2.3c0,0,0,1.5,0,1.5l-1.3,1.9-3.9,2.7-1.7,2.6-4.4,2.2.5,1.4-2.5,2.3-5.2,3.2,1,.2-7.7,2.5-1.4,3-1.4.6-.3,1.7-5.3,1.7-4,4.9-3.7,1.7-.9,1.3-4.1,1.4-2,3.1-10.7,2.2-1.9,2.2-4.7.6,1.1-.5.3-1.6-.4-1-1.5.2h-.4s-1.2.4-1.2.4l1.4,2.7-6.8,3.3v1.4c.1,0-14.4,2-14.4,2l-5,2.3-4,.2-1.3,1.3-8.4,2.2-1.1,1.9h-5.5c0,0-1.8.8-1.8.8l-.5,1.9-2.5,2-4.1.9v1.2c.1,0-1.5.9-1.5.9v1.3c.1,0-1.6-.9-1.6-.9h0l-2.7-1.8-1.9.3-.2-2.3,1.5-1.3-.9-1-3.2.2-.4-1.7-1.1-.5.8-1.2,3.9-1.4.2-1.6-1.7-3.4,2-1.7-.2-.7-3.9.2-.4-1.2-1.6-.6,1.5-5.1-2.9.5-3.3-2.4-.4-1.4,3.9-6.8,3-1.1-1.2-1.2,1.4-2.1-.9-2,1.7-.4h4.3c0,0,12,5,12,5l7.6-.6,1.4.7,1.6,2.6,1.3-.3,2.3,1.4,2.6-.3,1.1,1.5,1.7-1.4-1.5-4.1-2.7-3.2h0l6.1-3.8,6.4-2.5.6-1.8-1.9-1.3v-2.4c.1,0,.7-1.1.7-1.1l3,.6,1.6-2v-1.9c0,0,1.5,1.3,1.5,1.3l1.2-1.6,8.4.3,1,3,1.6.6,3.5-1.6,5.1,6.1-.4,1.1,1.8,1,3.5-.6,2-2.9,11.3-2.7,2.1-1,1.2-2.1.9,1.1,5-1.7,4.1,1.5,1-1.4-.4-3.8,1.3-2-.9-1.1.4-2.9,5.3-3,1.1-2.1h1.8c0,0,2.3-2.4,2.3-2.4l2,.5,1-1.3h1.4c0,0,1.1-2.3,1.1-2.3Z"/>
    <path id="LK-41" d="M234.4,51.4l3.1,2.6-3.4-.7.2-1.9ZM115.5,41.7h1.2c0,0,2.6,3,2.6,3l4.2.7.7,4.5-.8,1.8-3.7-.4-5.3-3.2-.5-5.1,1.6-1.3ZM129.3,33l.4,4.9-1.5-1.4v-2.5s1.1-1,1.1-1ZM140,31.2l1.2,1.3-.4,1.2-1.1-1,.3-1.5ZM130.8,24.5l.5,2.9-1.6,1.6.2,1.2-1.6-1.8,2.5-3.9ZM140.6,22.4l1.6,1.3,1.7-.8.9.6,1.3,3.1,2.6-.6-.9-.6,2.7.2v1.8l-1.5.6,3.3,2.3,2.8,1.4,1.8-.7-.2-.8,2,.7.9,1-.7,3.1-1.8,1.1-1.7-.4-1.2-1.4,1.7.7.6-2.1-.9,1.2-1.7-.2-3.3-2.1-2.3-.4-1.5,2.2-1.9-.9-3.7,2.1-.5,4.9-6.9-.9,1-6.7,1.1.2.5,1.4-.6,1.6,1.3,1.1.6-.7,1.8.4-1.3-1.8-2,.4.4-.9,1,.3,1.2-1.1,2.3,1.6,3.9-2.1-2.6-1.4-1-2,1.7-1.3v-1l-1.8-.8.9,1.2-1.2,1-2.1-2.9.6-1.4-1.2-1.5,2.5-.2ZM134.9,21l-.4,4-.6-1.5.9-2.4ZM185.9,5.5l4.8,1.3,4,7.7,10,13,18.7,14.9,10.6,9.7h-1.5c0,0-5.2-3.6-5.2-3.6l-3.6-2.3-4.5-.7-2.7-1.9h0v-2.4c.1,0-1-2.3-1-2.3l-5.9-4.6-8.7-5-4.6-5.3-5.1,9.9h0l-11.4-5.3-1.4,1.3.8.8.7-.9.6.5v2.5c0,0,3.3.6,3.3.6l.2.8-1.7.9-1.9-.4,1.8,1.2v.5c.1,0,3,1.1,3,1.1l-1,.5-3.7-2-3.5-3.3-8.4-4.6.3,2.2,2.2.9,2.9,2.9-2.7-.6-6-4h-4.1c0-.1-1.8-1.8-1.8-1.8l-1.2,1.9,1.3,1.2-1.3-.2-.5-.7,1.7-2.2-.9-3.1-1.1-.6-1.3.9-1.8-2.4-1.2,1.8h-1.7c0-.1-2.9-6.9-2.9-6.9l-2.9.6v1.4s-1-.1-1-.1l.5,1.9-1.6,1.1-3.8-1,1.4-1.9-.9-2.7,1.1-1.6,4.7-.7-.6,3.3,3-.3-1.8-2.3.8-1.8,2.3-.3,2.1-2.2,5.2-2.1,6.3-.9,8.5,1.2,3.4-1.5.7.4.7-1,6.2-.3,3.3-1.1Z"/>
    <path id="LK-42" d="M156.6,73.3l.9,2.5,1.7.3-.8,2-1.2-1.8-1.4.6-.9-.6v-1.4c-.1,0,1.7-1.7,1.7-1.7ZM160.2,50.6l.7,1-.8,1.4-.9-2,1.1-.5ZM191.1,34l5.1-9.9,4.6,5.3,8.7,5,5.9,4.6,1.1,2.3v2.4h-.1l-.6-.8-.9,1.8-1.3-.2,1.2,2.1-5.1-2.6,1,1.6-.4,1.4,1.7,1.1v-1.1c0,0,2.9,1.8,2.9,1.8l3.3-.4,1.7,1.7.4.5,1.5.9h2.1c0,.1.6,0,.6,0l1.7-.5,3.4,1.2.2,1.4-1.6.7,1.2,1,3,.5v-1s1.5-.9,1.5-.9l3,.6h0l-.2,1.2h0l.2.2h0l-.6,2.3-2.9,2.2v5.8s-3.6-2-3.6-2l-3.4-3.4-.3,3.5-1.6,4.2-13.8.8-.2,4-1.5.9-9.4-1-5.4,1.4-1.9-.7-3,.7-3.5,2.7.6,5.5-3.4-.4h0l-5.5,3.4-4.1.2h0l.5-6.7-1.4-1.9,1.5-3.1-4-3.3h-2.6c0,.1-1-.6-1-.6l-1.2-7.6,12-6.1,4.5-4.6.4-1.6-5-6.4-5.5-4.4-6.7-3.8,1.2-1.5v1.2c.1,0,5.5,1.8,5.5,1.8l1.1,1.6,1.6-.4,2.2,2.7,4.4,1.9,2.3-.5.5.5,1.7,1.9,1.2-.6v-.9c-.1,0,3.6,3.1,3.6,3.1h1.7c0,.1,2.3,3.2,2.3,3.2l-2.3-1.1-1,1.3,2.9,2.1-3.3-.3-.2.8,3.9,1.8,4.7-1.5,1.6,1.4.8-1.9,1.9.5,3.3-1.9h1.9v-4.3c0,0,1.4-.2,1.4-.2v-1s-1.5-.3-1.5-.3l-1.7-.8,1,1.7-.5.3-4.1-4.9-2.6-1.1-1-.4-3-2.9-5.6-3.2Z"/>
    <path id="LK-43" d="M148.6,137.1l-.8-.3.6-4,1.9-3.8-.3-.6-.6,1.4-.2-4-3.2-4.8,1,.7.5-1.3h-1.4l.4-.8-1.7-.8.4-1.1-1.2-.3-3-4-5.6-4.6-9-4.7-6.3-1.4v-1.2s-.8-.2-.8-.2l1.4-1.4,4.7-.7,5.7.9,9.7,3.4,8.6,8.2h-1.3c0,.1-5.7-2.9-5.7-2.9l2.3,3.6,4.6,3v.7c-.1,0-3.2-.2-3.2-.2l.3.8-1.2.4v1c0,0,1.6.2,1.6.2l-.4,1.4,1.8-1.7.5,1.8,2.3.2,3.3-3,2.4-.8.6-2.6,2.9-2.1,3.4-.6,3.6-6.3,1.2-4.2-.2-3.6,3.3-4.7.6-4.6,1.4-1.3h0l4.1-.2,5.5-3.4h0l.5,7.9,2.8,4.2,1.1,3.8-1.2,2,.5,5.4-3.2,1.2-2.4,6.3,1.8,2.2-1.7,1-.3,2.7,21-1.1h0l3.7,1.5,1.6,1.6,2.7,10-4,2.2-6.9,1.2-2.6,1.3-8.6-1-4,8.1-2.6-1.3-.9,3.3,3,2,5.3,6.8h0l-15.5,4-4.3-.5-4.5-2.5,1.4,4.6-.6,14.7-2.3-.7h0l-4-2.4-1.3.3-1.6-1.3-5.2-.4-1.6-1h0l-.7-3,3.2-4.2v-4.1c-.1,0,1.1-3.2,1.1-3.2l-.4-3.9,1.3-2.2-3.5-7.7-1.8-2,.6-1.2Z"/>
    <path id="LK-44" d="M201.9,118.1l6.5-4.1,5.5-5-1-7.8h-2.8s0-3.1,0-3.1l11.1-.3,2.4,3.1.3,2.2h2.2c0,0,3.8-4,3.8-4l3.2-.4-.4-1.9h2.8s5.5,1.2,5.5,1.2l.7,5,2,.4,1.8-1.1,1.2,1.1-1.8,5.5,5.2-2.5,8.8,5.3-2.7,9.4h0l-1.6,4.1h0l-5.3.8-5.6,3.5-9.2.2-.4,2.8,4.4,1.4,3.1,4.3v1.7s-2.2,1.3-2.2,1.3l-2,3.5-2.2,1.1-1.5,2.9-2,.7-.5,2.1-6.4,5.3h-1.7s-7.1-4.3-7.1-4.3l-3.5,2.4-3.2,5.1-2.3,1.6v4.9c-.1,0-3.7,1.4-3.7,1.4l-1.8,3.4-6.3-1.9-1.8-6.5-3.1-.7-1.6-1.6-.2-6.6h0l-5.3-6.8-3-2,.9-3.3,2.6,1.3,4-8.1,8.6,1,2.6-1.3,6.9-1.2,4-2.2-2.7-10-1.6-1.6-3.7-1.5Z"/>
    <path id="LK-45" d="M238.1,54.1l5.7,4.7-.7,1.8,2.6,2.8,3.1,1.1-4.6-5.2,18.2,16.4,8.7,20.5-.8.3-.7-1.9-1.7-.2.9.4-.2,1.4,1.1,1.5h-.9c0,0-.3,1.4-.3,1.4l1.8.8-.5-1,1.4-2,10.1,17.4-1.7.3-3.1-4.5-4.3-3.5-.2,1.5-1.7.7v1.1c-.1,0,3.6,3.2,3.6,3.2l1.8-1.5.5,1.1-1.1,1.6h1.6c0,0-5,1.3-5,1.3l-2.6,2.6-4.5-.2-7.4,1.9-1.1,1.3h0l2.7-9.4-8.8-5.3-5.2,2.5,1.8-5.5-1.2-1.1-1.8,1.1-2-.4-.7-5-5.5-1.2h-2.8s.4,2,.4,2l-3.2.4-3.8,4h-2.2c0,0-.3-2.3-.3-2.3l-2.4-3.1-11.1.3v3.1s2.8,0,2.8,0l1,7.8-5.5,5-6.5,4.1h0l-21,1.1.3-2.7,1.7-1-1.8-2.2,2.4-6.3,3.2-1.2-.5-5.4,1.2-2-1.1-3.8-2.8-4.2-.5-7.9h0l3.4.4-.6-5.5,3.5-2.7,3-.7,1.9.7,5.4-1.4,9.4,1,1.5-.9.2-4,13.8-.8,1.6-4.2.3-3.5,3.4,3.4,3.6,2v-5.8s3-2.2,3-2.2l.6-2.3h0l-.2-.2h0l.2-1.2h0l1.2-.4Z"/>
    <path id="LK-51" d="M375.1,278.8l1,.5.3,1.6-1.9,2.1-.6-2.3,1.2-1.8ZM382.5,284l3.4,6.9,3.1,12,.2,2-1.3.6-.2,2.5-3.1-2,.6-1.1,1.1,1.3v-1.7c.1,0-2.2-.2-2.2-.2l1.7-2-1.4-4.8,1.1-3.5-1.9-1.2-2.3-6.1-1.7.4-1.6-2.3.7-1.4-2.4-5.6.4-2.4,5.8,8.6ZM325.5,208.6l2.3-1.5,3.1-.5.9,1.7h3.3c0,0,.8-.9.8-.9l.2,1.4.9.2.5-1.8h0l2.4,8.9,1.3,2,.4,9.6-1.2.4-2.2-4.4-1.7-7.7-.6.6-.8-.6-.6,1.5.8.3-.9,1.5.7,3.3,2.4,1.2.5,3.4,3.6,2.5.4-3.4.8.2-.9-3.1,2.6,3.4-.4,2.1,1.3,4.7,2.8,5.3,5,3.9,2.1-1.1.2-.4,1,.7-1.8,3.2,1.4,2.9-1.7,1.2h-2.1s-1,1.5-1,1.5l.3,1.6-.6.9,1.5,4.5h-.6c0,0,0,1,0,1h1.6c0,0,2.2,3.9,2.2,3.9l-4.4-.4-.7,3.3,3-1.2-.2-.7,2.3,1.3.5-2.8-1.2-1.3.4-.8-2.4-2.1-1.3-4.8.6-.6-.4-2,3.2-.6,2.1-2,.6,2,2.7.9-1.8.3-.7,2.2.6,4,1.7,3.5,2.4,2.3,1.6.3,1-.9,2.6,5.3,5.5,3.7,2.9,4.1-.8,1.6-2.9-2,.7,1.2-.5,1.2,1.1,1-.5,1.2h-1.4s-1.1-3.9-1.1-3.9l.4-1.4-1.9-1.8h-1.6c0,.1-4.8-3.1-4.8-3.1l-.8.4v1.3l-1.3.5-.8,3.8,3.9,1.6,1.4-2.8,1.8,1.5,3,.2-1.5,1.6,2.6,2.3v1.6c0,0,2.4-.1,2.4-.1l1.5,2.9-1.1.5-.2,1.6h.8c0,.1-.4,1.4-.4,1.4l1.4,2.3-.3-2.7.7-1.3.9.9,1.3-1.7,1,2.9h1.3c0,.1,1.9,3.5,1.9,3.5l-.8,1,2.8,1.3-1.3,1.8-2,.3,1.4,1.4,1.2-1,.5,3h-1.8l-1.3-1.4-.8.5.6,1.9,2.8-.7.7,1.5,1.2.2-1.6,1.1-.2,1.3-2.5-.9,2.8,3.2-1.2.6-1.1,2.7h0l-3.4.4-7.8,7.2-.4-9.4-1.6-3.8.2-2.9-3.9,2.2h-13c0-.1-2.9-.9-2.9-.9l.6-.8-6-2.7-2.4-3.5,1.8-6.4-.2-2.9-7.9-1.9-2-1.3-5-6.7-.6-1.9-7.8-.2-1.1.6-1.7-1.1h0l-1.8-5.3-.3-5.4,1-2.6-.6-3,1.2-2.8v-4s2-2.1,2-2.1h2.8c0,0,1.9-1.3,1.9-1.3l2.4,1.2h4.1v-2.5s-4.3-9.3-4.3-9.3l.5-28.5Z"/>
    <path id="LK-52" d="M316.8,274.2l1.7,1.1,1.1-.6,7.8.2.6,1.9,5,6.7,2,1.3,7.9,1.9.2,2.9-1.8,6.4,2.4,3.5,6,2.7-.6.8,2.9.8h13c0,.1,3.9-2,3.9-2l-.2,2.9,1.6,3.8.4,9.4,7.8-7.2,3.4-.4h0l2.8.4.6-3,.7,1.3v4.2c0,0,1.9,1.7,1.9,1.7l-.9-2.1.2-.4.5-2.3,1.8.7-.6-2.4.7-.6,6.4,17.1.8,7-.5,5.6-.6-.5.3,7.8h-1.4c0-.1-.2,1-.2,1l-2.4,1.5-.6-1-.5,2.4.7-.6,1.3,3-1,.9,1.7,1.3.4-1.4-1-1,1.4-1.2.9.7-.3-3.2,1-2.2-.6,10.5,2.7,10.1-4.5,15,.7,1-.3,3.3-1.9,2.2,1.2,2.5-1.5.6-.7,1.9-.6,3.6.9,2.9-3.1,4-.2,3.3-3.5,4.5.5,3.6-2,3.9.4,1.4-2.2,1.8-2.9,6.4-2.5,2.9h-2.3c0,0-4.4-4-4.4-4l-1.7.3-3.8-4.7h0l2.6-42.6,1.1-6-2.5-2.4.4-2.5-1.8-3.5,1.5-3-.6-2.5-11.9-3.7-1.2-2.6.3-2.4-1.7-1.6,2.8-6.2,3.9-2.5-2.4-2.9-1.4-.4.6-1.4-1.1-4.7-5.1-4.4,1.5-1.7-2.3-7,.6-3.7-1.9-1.1,2.1-3.1-2.9-.5-6.2,3.2-.2,2.1-2.2,1.1-1.8-.3-.2,1.6,1.6,3.4-2.7,1.7.2,1.8-2.9,1-3-.2.3,9.5-4.8,2.9-1.9-4.6h0v-1.8c.1,0-3.2-4.4-3.2-4.4v-1.2c0,0-1.1-.8-1.1-.8l-2.2,1.1-3.4-5.7.9-2.4-2.3-6.1,2.1-3.5v-3.8s1-2,1-2l-.2-5-.8-1.1-1.4-1.2-3.1.5-6.4,3.2-4.7,4.2-1.5-.4-1.2,1.2h-1.8c0,0-1.6-4.1-1.6-4.1l-1.8-1.9-.3-5.5-3.5-2-1-1.8h0l2.1-4.7-.9-3.5.7-1.3-.4-2.9h0l7.7.4,2.5-1.5,3.3.7,3,4.5,10.2,3.7,2,1.8,1.1-3.2,2.1-1v-4.3s-.7-1.1-.7-1.1l.9-2.2Z"/>
    <path id="LK-53" d="M276.8,114l-1.5,1.5,1.9,1-.5,1-2.7-.5v2.4c.1,0,.9-.4.9-.4l.4,2.1,1-.3h.8c0-.1,1.9,1.2,1.9,1.2l.5-1.3-1-.5,3.1-1-1.2-2.4,1.5-2.1,3.8,5.7,1.8,1.1.3,2.5-1.2,1.1h1.6s0-1.8,0-1.8l2,4,4.9,4.7.6-.8-.8-.4,1.4-1.1-.3.9h1.1c0,0,.7,3.5.7,3.5l3,5.6h.8c0-.1,2,2.6,2,2.6l1.2.3,3.4,4.5,3.8,7.3,2.7,3,.2,3.2-.9,2.6,2,3.9,1.3-.6-1,1.7,1.2,1.2v1.8c0,0-2.5,1.4-2.5,1.4l.7-1.5-1.3.2,1.6-2-.8-1.5-2.6,1,1.7-2.2-2.3,1.8-.5-1.2-.9,3,1.7-.2-1.3,1.4,1,.3-.2,1.7,1,.4.4,2.2-2.6.2-1-.7v-2.9c-.1,0-1,1.3-1,1.3l-3.1-2.5-2.5,4.2-1.5.4.3,1.4,1.7,1.2,1.6-2.3,2.5-.9,2.7,1,1.4,5.8.2-1,2.3,1.1,7.2-.5,1.2-2.5-.9-3,2.7-.2,2.6-2,4.1,3.8,3.2,14.4,1.8,3-1.8-.2-1.2-2.5.3,2,.5,1.7,1.6-.8v3.6s2.1,8.5,2.1,8.5h0l-.5,1.8-.9-.2-.2-1.4-.8,1h-3.3c0,0-.9-1.8-.9-1.8l-3.1.5-2.3,1.5h0l-2.8-1.1-2.8,2.6.4.8-2.4,1.1v2.1c.1,0-1.6,2-1.6,2l.7,1.9-1.1.6-.4,2.4-4.9.5,2.6-3.6-1.1-.6.2-4-.9-2-1.6.5-2.6-.9-3.4-3.4-4.3.6-3.6-2-5.3-.9-6,.7-1.1-5-3.6-1.3-1.4-2.5-1.2-.3-.9,1.1h0l.4-4.7,3.4-8.4,2.4-2.7v-1.1c-.1,0,2.3-.8,2.3-.8h0l-.6-1.3h-1.2c0,0-1.7-.1-1.7-.1v-1.7s-2-1.1-2-1.1l-.4-5.7-3.4-4.2-.2-2.6-2.8-2.2v-3.1c0,0,2.5-4.5,2.5-4.5l-2.8-5.3v-2.7c-.1,0-1.6-1.2-1.6-1.2v-2c0,0,.6-2.6.6-2.6l3.5-4.5.2-1.7-5.2-5.8-2.3-.6-5.3-3.6-3.5-.7-4,2h0l1.6-4.1h0l1.1-1.3,7.4-1.9,4.5.2,2.6-2.6,4.9-1.4Z"/>
    <path id="LK-61" d="M171.6,215.8l2.9,2.2,7.3,2.2.8,1.5,2.1-.3.8,1.2,4.7,1,2.2,2.6,5.5-.3,7.9,7.7,2.8,1.1,1.6-.9,1.7,1.4-.5,4.9,1.5,5.6-1.2,1.5,1.6.3,2.3-.9,1.5,1.2.3,3.9,2.1,4.7-1.4,3.8,1.2.9.6,2.6,2.1,1h0l-.4,4.1.9,1.2h1.8c0,.1,2.4,4.7,2.4,4.7v3.6c0,0,1.4.3,1.4.3l.7,4.6-.9,1.2.5,2.4,2,1.5,1.4,2.9-.9,1.6.7,2.5-1.4.4-1.4,2.8v1.6s1.7,2,1.7,2l-.3,1.1,1.3.9.3,3.9-1.4,1,.2,1.5h0l-1.4.9-1.5-.3,1.7,4.3-5.1.7.2,2.9-1.4.4-3.2-2.7-2.4-.5,1.3,2.2-2.7,4.1,1,1.3-1.6-.8-3.2.2h0l-1.4-3.3-2.5-1.7-5.8,1.2,1.1,3.3-1.4,1.4.6,1.3-1.1,2.4-1.9-.8-1.3,1.1-6.3,1.1-6.7,4.7-1.4,2.1h-1.1s-1.3-.3-1.3-.3l-1.9-3-2.9-2.1.3-1.6-3-2.4-8.3,6-1.8-2-2-.2-.4-1.9-1.5.4-1-.7-3.8,3.5-3.2.3.5,1.2-1.7.7h0l-.5-9.2-4.3-21.1.2-13.8,1.9-1.8.3-1.6,1.4-.3-1.4-1.2,1-.8v-1.5s2.2-.7,2.2-.7l1.6.9.5-1.5-3-1.1,1.8-.9v-2.2c.1,0,2.5-.3,2.5-.3l3.3-2.8-.9-2.1,1.1-2.1-.8-2.4.3-1.9,2-.6-.9-1.8,4.1-2,.5-2.8,3-.7v-1.7s1-.6,1-.6l-.2-2.9,2.8-.9.6.9,1.1-1.8v-2.4s1.6.1,1.6.1l1.4,1.6,2.2-1.1-2-3.1,2.2-4-.8-1,1.3-7.8-3.2-1.6-1.7-2.4-2-8.8.4-3.7Z"/>
    <path id="LK-62" d="M128.7,202.2l-1.6,1.6.6,1.8-.2.5.9.4-.7,1.5-.7,1.2-2.1.2,1.6-5.4,1.1-1.8h1.2ZM130.3,192.6l1.1,1.2-3.5,7.2,2.3-8.4ZM148.9,168.5l1.6,1,5.2.4,1.6,1.3,1.3-.3,4,2.4h0l1.4,3.8-1.6,4.4-1.9,2.9-3.5,2.4.3.9-1.6,2-2.9.6-.5,3.3,2.8,3.7,1,7.7,1.8,3.3.5,3.4,3.4.3,1.4-1.3,3.1,2.1,2.2-.3,3.1,3.3h0l-.4,3.7,2,8.8,1.7,2.4,3.2,1.6-1.3,7.8.8,1-2.2,4,2,3.1-2.2,1.1-1.4-1.6h-1.6c0-.1,0,2.2,0,2.2l-1.1,1.8-.6-.9-2.8.9.2,2.9-1,.6v1.7s-3,.7-3,.7l-.5,2.8-4.1,2,.9,1.8-2,.6-.3,1.9.8,2.4-1.1,2.1.9,2.1-3.3,2.8-2.4.3v2.2c-.1,0-2,.9-2,.9l3,1.1-.5,1.5-1.6-.9-2.1.7v1.5s-1.1.8-1.1.8l1.4,1.2-1.4.3-.3,1.6-1.9,1.8-.2,13.8,4.3,21.1.5,9.2h0l-2-1.1-2.4,2,.3-1.7-2.6.8-1.6-1.2-1.8,1.7-.9-.9-1.4.4h0l-7-34.3-.4-8.1,2.2-1-.6-11.1-7-30.9-4.7-14.6-.2-14.1-1.5-5.5,5.8-2.5,3.7-4.1,1.2.2-1.6,2.5.5,3.1-1.6-.9-2.4,2.9,1.5,2.3-1.4,5.1-1.3.9v1.7c-.1,0,1.1,1.9,1.1,1.9l-.6,3,1,1.8,2.1,1-1.7,1.2.4,2.5-1.1,2.4,1.2,2.7,3,1.4,5.7.8,2.2-.7.2-4.8-5.6-7.1,1.3.3-1.3-1.7,1.6.2,1.6-1.7.7-3.1,1.8-.9v-2.7c-.1,0-2-1.5-2-1.5l-.4-2.5h1.1c0,0-.5-2.8-.5-2.8l-2.7-2.3,1.4-.4-2.7-1.1,2.7-.6,1.1-4.4,1.9-3,.8.3-1.1-3.9,1.8-3.5-.4-9.3.5-2,2.2-1.7.8-10.7,5.7-1.5,1.1-2.2Z"/>
    <path id="LK-71" d="M254.5,125l4-2,3.5.7,5.3,3.6,2.3.6,5.2,5.8-.2,1.7-3.5,4.5-.5,2.6v2c0,0,1.4,1.2,1.4,1.2v2.7c.1,0,2.9,5.3,2.9,5.3l-2.6,4.5v3.1c0,0,2.9,2.1,2.9,2.1l.2,2.6,3.4,4.2.4,5.7,2.1,1.1v1.7s1.7,0,1.7,0h1.1s.6,1.3.6,1.3h0l-2.5.8v1.1c.1,0-2.3,2.7-2.3,2.7l-3.4,8.4-.4,4.7h0l-1.6,1.3-1.6,5.8-12.1.3-2.4,9.5-3.3,6.9v10.5c0,0,2.2.3,2.2.3l-3.5,5.6.8,1.2h0l-6.4,2.6-3,4.5-1.8-.9-1.3.4-.6,5.7-2.8,1.9.8,1.5-2,.8v1.8s-2.9,1.6-2.9,1.6l-1.2-1.5-1.8-.2-1.4,2.5-5.2,2.8-3.1.2v1.4h-.1l-2.1-1-.6-2.6-1.2-.9,1.4-3.8-2.1-4.7-.3-3.9-1.5-1.2-2.3.9-1.6-.3,1.2-1.5-1.5-5.6.5-4.9-1.7-1.4-1.6.9-2.8-1.1-7.9-7.7-5.5.3-2.2-2.6-4.7-1-.8-1.2-2.1.3-.8-1.5-7.3-2.2-2.9-2.2h0l-3.1-3.3-2.2.3-3.1-2.1-1.4,1.3-3.4-.3-.5-3.4-1.8-3.3-1-7.7-2.8-3.7.5-3.3,2.9-.6,1.6-2-.3-.9,3.5-2.4,1.9-2.9,1.6-4.4-1.4-3.8h0l2.3.7.6-14.7-1.4-4.6,4.5,2.5,4.3.5,15.5-4h0l.2,6.6,1.6,1.6,3.1.7,1.8,6.5,6.3,1.9,1.8-3.4,3.6-1.4v-4.9c.1,0,2.5-1.6,2.5-1.6l3.2-5.1,3.5-2.4,7.1,4.4h1.7s6.4-5.4,6.4-5.4l.5-2.1,2-.7,1.5-2.9,2.2-1.1,2-3.5,2.2-1.3v-1.7s-3.1-4.3-3.1-4.3l-4.4-1.4.4-2.8,9.2-.2,5.6-3.5,5.3-.8Z"/>
    <path id="LK-72" d="M276.4,197.8l.9-1.1,1.2.3,1.4,2.5,3.6,1.3,1.1,5,6-.7,5.3.9,3.6,2,4.3-.6,3.4,3.4,2.6.9,1.6-.5.9,2-.2,4,1.1.6-2.6,3.6,4.9-.5.4-2.4,1.1-.6-.7-1.9,1.8-2v-2.1c-.1,0,2.2-1.1,2.2-1.1l-.4-.8,2.8-2.6,2.8,1.1h0l-.5,28.6,4.3,9.3v2.5h-4.1l-2.4-1.2-1.9,1.3h-2.8c0,0-2.1,2.2-2.1,2.2v4s-1.2,2.8-1.2,2.8l.6,3-1,2.6.3,5.4,1.8,5.3h0l-1,2.2.7,1.1v4.3s-2.1,1-2.1,1l-1.1,3.2-2-1.8-10.2-3.7-3-4.5-3.3-.7-2.5,1.5-7.7-.4h0l-7.8,1.7-5.6-.9-.8,4.5-.8-1.3-1.9-.2-.3-1.3-2.1,2.5-3.5,1.2-.6-1-3.3.2-2.3-2.3,1.1.7.6-1.5-1.4-4.1-.3-7.4,1-1.3,3.4-.3-.3-1.6,1.1-.6,1.1-3.8,1.1-9.3,1.8-3.8,2.5-1.1-1.7-1.2h-1.8c0,.1-1.4-1.4-1.4-1.4l-2,.9v2c0,0-1.4-.2-1.4-.2l-1.2-.7v-3.4c.1,0-2.8-2.2-2.8-2.2h0l-.8-1.2,3.5-5.6-2.3-.3v-10.5c0,0,3.4-6.9,3.4-6.9l2.4-9.5,12.1-.3,1.6-5.8,1.6-1.3Z"/>
    <path id="LK-81" d="M283.2,288.8l1,1.8,3.5,2,.3,5.5,1.8,1.9,1.6,4.2h1.8c0-.1,1.2-1.3,1.2-1.3l1.5.4,4.7-4.2,6.4-3.2,3.1-.5,1.4,1.2.8,1.1.2,5-1,2v3.8s-2.1,3.5-2.1,3.5l2.3,6.1-.9,2.4,3.4,5.7,2.2-1.1,1.1.8v1.2c0,0,3.2,4.4,3.2,4.4v1.8h-.1l-5,1.2.6,3.6-3.7,4.8-2.3,1.3-.4,2.4h-2.7c0-.1-1.6-2.8-1.6-2.8l-3.6,3.9.4,2.5,4.1,4,1.2,3.8,5.6-1.6.8,2,1.3-.5,2.2,7.9-1.8,4.3.3,2.9-1.8.7.8,1.8-2.5.8-.4,2.3h-2.2s-.5-.9-.5-.9l-.8,3.1-2.2,1.8-5.9,2.3-.3,1.2,3.5,3.1-5.2,1.4.3,2-.7.4-3.5-.6v6.6c-.1,0-1.8,2.9-1.8,2.9l2.5.2,1.8,1.2-.9,2.6-1.7,1-.5,6.2.5,2.3,2.7,3-1.3-.2-1.8,1.5v2.7s-2.7-1.5-2.7-1.5l-.9.9-1.1,1.3-.3,4-3.5-4.2.5-5.1-1.1-.7-1.5.4-.3-3.6-1-1.2h-2c0,0-.2-2.2-.2-2.2l-1.6-.9v-1.5c0,0-1.5.4-1.5.4h0l-1.7-.9-.9,2.1-2.2.4-1.3,1.5-2.2-.2-.8,1-3.5-1.5-.5-2.5-1.7-1.8,5.5-2-.6-1.4,1-1.4-3-.5-1-2.1-2,.8-.3-4.6h2.2c0-.1,1.2-1.4,1.2-1.4l.4-1.2-2.5-.9-.4-1.2,2.3-.7.8-1.5-2.2-2.2.4-1.8-1.6-.4-.2-2.8-4.1-1.1-.2-.8.7-.7,4.4.3,1.8-1.4.6-3.3,3.4-2.9h4.6c0,.1,2.7-1.6,2.7-1.6l1.2-6,4.6-5-1.8-3,1.7-2.5-1.9-1.1.3-1.9,1.1.4v-1.9c0,0-2.3-4.7-2.3-4.7l.4-.9h0l3.3.5,1.3-2.1,3.2-.5,1.1-2.2-5.2-16.7.8-3.7-1.7-2.6.7-1.7v-7.8h-.1l-.3-10,.8-7.5Z"/>
    <path id="LK-82" d="M320.5,333.3l1.9,4.6,4.8-2.9-.3-9.5,3,.2,2.9-1-.2-1.8,2.7-1.7-1.6-3.4.2-1.6,1.8.3,2.2-1.1.2-2.1,6.2-3.2,2.9.5-2.1,3.1,1.9,1.1-.6,3.7,2.3,7-1.5,1.7,5.1,4.4,1.1,4.7-.6,1.4,1.4.4,2.4,2.9-3.9,2.5-2.8,6.2,1.7,1.6-.3,2.4,1.2,2.6,11.9,3.7.7,2.5-1.5,3,1.8,3.5-.4,2.5,2.5,2.4-1.1,6-2.6,42.6h0l-1.1,2.2h-1.4c0,0-1,1.3-1,1.3l-2-.5-2.3,2.3h-1.8c0,0-1.1,2.1-1.1,2.1l-5.3,3-.4,2.9.9,1.1-1.3,2,.4,3.8-1,1.4-4.1-1.5-5,1.7-.9-1.1-1.2,2.1-2.1,1-11.3,2.7-2,2.9-3.5.6-1.8-1,.4-1.1-5.1-6.1-3.5,1.6-1.6-.6-1-3-8.4-.3-1.2,1.6-1.6-1.3v1.9c0,0-1.5,2-1.5,2l-3-.6-.6,1.1v2.4c-.1,0,1.8,1.3,1.8,1.3l-.6,1.8-6.4,2.5-6.1,3.8h0l-2.2-6.1-4.8-1.7-3.4-5.7.7-.7-.8-2.5.6-.9-.8-.8.9-2-1.9-4.3,4.6-7.6-.4-1.4,1.5-2.7-.4-1.4h.9c0-.1-.1-2.3-.1-2.3l3.6-3.6,1.2-4.2,2-2h0l1.5-.4v1.5c0,0,1.5.9,1.5.9l.2,2.1h2c0,0,1,1.3,1,1.3l.3,3.6,1.5-.4,1.1.7-.5,5.1,3.5,4.2.3-4,1.1-1.3.9-.9,2.8,1.5v-2.7s1.8-1.5,1.8-1.5l1.3.2-2.7-3-.5-2.3.5-6.2,1.7-1,.9-2.6-1.8-1.2-2.5-.2,1.7-2.9v-6.6c.1,0,3.7.6,3.7.6l.7-.4-.3-2,5.2-1.4-3.5-3.1.3-1.2,5.9-2.3,2.2-1.8.8-3.1.5,1h2.2s.4-2.4.4-2.4l2.5-.8-.8-1.8,1.8-.7-.3-2.9,1.8-4.3-2.2-7.9-1.3.5-.8-2-5.6,1.6-1.2-3.8-4.1-4-.4-2.5,3.6-3.9,1.6,2.7h2.7c0,.1.4-2.2.4-2.2l2.3-1.3,3.7-4.8-.6-3.6,5-1.2Z"/>
    <path id="LK-91" d="M185.3,379.2l1.8-1.7,1.2,3.6,1-.6,1.2.8,2.3,3.5,1.7.5.4,1.9,3.3-.9,3.8,4.1,2.2-2.5h4s1.4-1.3,1.4-1.3l3.1,2.5,1-1.1,2.5,1.9,5.7.2h0l-.5,2,1.3,1-1.7,1.5,1.6,2.3,3.4,1.3,2.2-1,3.6,1.5,8,1.3,2.3.3.9-1.4,5.8.9,3.2-1.1,1.7.7,3.8-2.6,1.9.6,2.6-2.3h0l.3,4.6,2-.8,1,2.1,3,.5-1,1.4.6,1.4-5.5,2,1.7,1.8.5,2.5,3.5,1.5.8-1,2.2.2,1.3-1.5,2.2-.4.9-2.1,1.7.9h0l-2,2-1.2,4.2-3.6,3.6v2.1c.1,0-.8.1-.8.1l.4,1.4-1.5,2.7.4,1.4-4.6,7.6,1.9,4.3-.9,2,.8.8-.6.9.8,2.5-.7.7,3.4,5.7,4.8,1.7,2.2,6.1h0l2.7,3.2,1.5,4.1-1.7,1.4-1.1-1.5-2.6.3-2.3-1.4-1.3.3-1.6-2.6-1.4-.7-7.6.6-12-5h-4.3c0,0,.7-2,.7-2l-2.3-2,.8-.3-.3-1.8-6.4,1-.6-1.8,1.4-1.5.2-3.2-8.1.9-.7-.8-2,1v1.8s-4.9.9-4.9.9h0l-.5-1.6-2.4.2-4-2.1-2.7.3-4.7-4.3h0l-11.2-17.4,2.4-1-1.3-3.3-2.7-2.8-3.4-1.2-.7-4-4.3-4.3-2.1-4.5.9-.7-3.3-10.3h0l2.9-.5-1-4.3-2.3-1.1,1.7-5.1,2.5-2.3Z"/>
    <path id="LK-92" d="M183.2,335.8h1.1s1.4-2.1,1.4-2.1l6.7-4.7,6.3-1.1,1.3-1.1,1.9.8,1.1-2.4-.6-1.3,1.4-1.4-1.1-3.3,5.8-1.2,2.5,1.7,1.4,3.3h0l1.2,3.9,3,1.7,3.4,3.6-.2,2.7,3.1.7,1.9,2.2.5,2.6-1.2,1.6,4.4,4.9-2.4,1,.7,1.4-3.1.2-1.2,2.7-5.7.8-1.3,1.1,2.4,6.2h.8s-1.3,2.3-1.3,2.3l.3,2.4h0l.5,1.4-2.2,2.3-2.2.9,1.6,3.5-1,1.2-.6,5.4,8.3,3.4-.4,1.9,2.1,3.1-2,2h0l-5.7-.2-2.5-1.9-1,1.1-3.1-2.5-1.4,1.2h-4s-2.2,2.5-2.2,2.5l-3.8-4.1-3.3.9-.4-1.9-1.7-.5-2.3-3.5-1.2-.8-1,.6-1.2-3.6-1.8,1.7h0l-.3-2.5,1.5.2.5-.8-.6-4-5-.6h0l.4-2.2-2.3-8.2,5.6-9-4.4-.5-1.5,1.3-1.1-3.1v-3.4s-1.1-1.6-1.1-1.6l1.5.6.7-1.2h2.8c0-.1,0-5.3,0-5.3l1.9-1.4-.6-1.6Z"/>
  </g>
</svg>