<?xml version="1.0" encoding="UTF-8"?>
<svg id="Layer_1" xmlns="http://www.w3.org/2000/svg" xmlns:amcharts="http://amcharts.com/ammap" version="1.1" viewBox="0 0 512 512">
  <!-- Generator: Adobe Illustrator 29.1.0, SVG Export Plug-In . SVG Version: 2.1.0 Build 142)  -->
  <g id="_x3C_defs">
    <amcharts:ammap bottomLatitude="36.671535" leftLongitude="67.386673" projection="mercator" rightLongitude="75.136917" topLatitude="41.042475"/>
  </g>
  <g>
    <path id="TJ-GB" d="M403.7,208.9l1.3.4,1.5-.5,1.7-.2,1.4-.6h1.5c0,.1-.4,1-.4,1l1.2,5.3v2.6c-.1,0-1,1.3-1,1.3l-2.7,1.7-1.5,3.9-1.8.9-.4.6v.7c0,0,.5.9.5.9l1.1.3,1.1-.2h1.1c0,.1,1.3,1.8,1.3,1.8l.8,2.1,2.2,2,.6,1,.5,2.4.8,1.7v2.9c0,0,1.9,2.5,1.9,2.5l.4,1.1.8.4h.9c0-.1,1.1-.8,1.1-.8l1.3-.3.8.5.5,2.2,1.1,2.4.2,1.1v1.3c-.1,0-.8.5-.8.5l-.9.2-2-.2-1.8.2-1,.4-1.5,1.8-1.1,2.1-.3,1.5.2,1,1.8,1.2.3.5.4,2.5.8,2.2-.2,3.6.2,1,.8,2.6,1.1,1.2,1.1,2.2.3,1.2v.7c-.1,0-.5.4-.5.4h-.8s-.3.3-.3.3v.4s.6.6.6.6l3.4,1.9,2.6.4,1.1,1,.9,1.8.6.6,3.6.7,2.6-.9,3.3.6.8-.6-.9-1.2v-1.2c.1,0,2.8-4,2.8-4v-2.8s.8-1.1.8-1.1l.6-.3,2.4-.2,1.4.3,1.7,1.2,1.7-.5,1,.5,1.8.3,3.7-.6h1.4s2.5.7,2.5.7l2.3,1.4,2.1-.2,1,.3h1.2s.5.3.5.3l1.5,2,.7.3h2s1.9,1.1,1.9,1.1h1.4c0,.1.8.6.8.6l.8.9,2.3,1.5,1.3,1.9.5.3,2.5-.5,1.5.2,1,1,.9,2,.7.5h1.2c0,0,1.3-1.7,1.3-1.7l.5.5-.4,4.1.6,3.7-.4,1.3-.9,1.4-.9.8-.7.2-.9-.3-.7.2-.7.5-.6.8v1.5s1,3,1,3l-.3.9-.9.9,1.1,1,.2,1.5.4,1.1v1.1c-.1,0-1.1,2.2-1.1,2.2l.8,3.1.9,2.1.8,3.2,1.7,1.6.7,2.6.3.4.6.2.9-.6h.6c0,0,1.1,1.7,1.1,1.7l-.3,3.3.3,2.3-.3,2.2,1.1,1.7.3.9-1.4,2.5-.2.6v.6c.1,0,2.7,2.5,2.7,2.5l1.7.3.7.7.7,2.1v.4c0,0-2.2,1.7-2.2,1.7l-1.4,1.9-1.2.8-.5.7-.2,1.2-.8.7-.3.8v.6s1.8,4,1.8,4l.3,4.3,1,.3.7.6.6.9,1,.2,1.3,1.1.3-.2v-.5c.1,0,0-1.8,0-1.8l.4-.2.5.2,1.2,1.1,1.1.5,1.8,3.5,1.5,1.1,1.8,2.7.2,2.5-.3.6-2,1.9v.3s.2,1.3.2,1.3l1.3,2.3-.5.5-3.8.6-3.4,1.8h-4.5c0,.1-.8.6-.8.6l-.5.6v2.3c0,0-.3.6-.3.6l-1.2.3-.9-3.2-1.5-1.6-1.5-3.1-.6-.4-.7-1-6.5-2.6-1.2-2.1-.3.9-.6.7-1.3.4h-.8s-.2.5-.2.5h-.4c0,0-.4-.3-.4-.3h-.5c0,0-.4-.1-.4-.1l-1.6.4h-1c0,0-.5.3-.5.3l-.6-1v-.7s-1.4-.7-1.4-.7h-.7s-.6.5-.6.5h-.7s-.9.3-.9.3l-1.9-.9-1.6,1.2h-2.1s-.9-.6-.9-.6l-.3-.6v-.6c.1,0-.7-.8-.7-.8h-.6c0,0-1.1.2-1.1.2l-.5,1.2h-.9c0,0-.7.4-.7.4l-2.5-.2-.6-.4-1.7-.4-.7,1.5,1.4,1.6-.8.3-.5,1.1-1,.6-.7,1-1.1.2-.6-.5h-1.4s-.8.5-.8.5l-.4.6-.6.2h-.7c0-.1-.6.5-.6.5h-.5c0,.1-1.8-.1-1.8-.1l-.6-.3v1c0,0-.3.2-.3.2l-1.3.7-.2-.5h-.4s-1.5,1.5-1.5,1.5l-1.1-.7-1.5-.2-1,2-1.3-.8h-.6c0-.1-2.2.7-2.2.7l-.5.8-1.5.4-.8.8-.2.7.2.3-.7.7-.6.2-.7-.5-.8.6-.4-.6h-.6c0-.1-.4-.5-.4-.5l-1.2.4v1s-.3.2-.3.2l-1.3-.6-.6-1.2-.3-.2h-1c0,0-.8-.4-.8-.4h-2c0,0-.4.9-.4.9l-.5.2-1.4-1.2v-1s-.6,0-.6,0l-.2-.3.9-1h.9c0,0,.4-.2.4-.2v-.7c.1,0-.2-.5-.2-.5l.6-1.3h.5l.4.5h1.4c0-.1.8.2.8.2l.6-.7.7.2,1.5-.5.4-1,.7-.3v-.2c0,0,.6-.1.6-.1l-.3-.6v-2.6c0,0-.2-1.1-.2-1.1l.4-.5-.2-.7.3-2.7h-2.9s-3-1.1-3-1.1l-.8.3-.6.7-.7.4-2-.7-2.8-.4-2.8-1.9-1.4-.2-.8.2v-.2c-.1,0-2.7,0-2.7,0l-2.5.6-1,1-1.9,1.1-.4-.3.2-.8-.3-.6-.7.2-.4-.3-.7-.2-2,.2-1.2.6-.8,1.1-1,.3-1.3,1.8-1.5,1h-.6c0,.1-.7-.2-.7-.2h-1.7s-1.2.4-1.2.4l-1.2,2.5-1.6.8-.3,1.5.4.3-.9,1.3-2.1,1.1-1.7.5-.9-.2-2.9.8-.6.5h-1c0,0-.9.6-.9.6l-.3.8-.8.5-.5.8h-.3s-1.2,1.2-1.2,1.2l-.8.5h-.5s-.4.5-.4.5l-.7.2-1.1-.6-1.3.3-2.6,3-.3.6v.8s-.2,0-.2,0l-1.9,4.7-.8.9-.8,1.6-.8.7v.9s-1.3,1.3-1.3,1.3l-1.1,2.9-.7-.3-.6.2-.5-.7h-.8c0-.1-1,.3-1,.3l-1.4,1.1h-.5c0,.1-.6,0-.6,0l-.3.4-1.2.3-.9-.2-.4.5h-.4c0,0-.7,0-.7,0l-1.8.2-.5.4h-.5c0-.1-.5-.7-.5-.7l-1.4-.5h-1.1s-.7.2-.7.2l-.3.7-2.2.7-1-.2h-.9c0,.1-.7.9-.7.9l-1.6.4-.7.4-1,.7-.3.8-.3.2-1.6.3-1.1,1.2-1.4.3-.8,1.5-1.7,1-1.2,1.3h-.7c0,0-.3.4-.3.4l-.9.4-.9,2h-.6c0,0-1,.4-1,.4l-.3-.2h-1c0,.1-1.1.9-1.1.9v.7c-.1,0-2,.8-2,.8l-.6,1.2-.7.4-.7,1h-.5c0,0-1.5,1.9-1.5,1.9l-3.6,1.8-.6,1.2-1.5,1.3-.4.7-1.2.6-.3.4-1.6-.2-2,.6-1.7-.3-.7.3h-1.4c0,0-1.1.3-1.1.3l-1.5-.4-.8.4-1.3-1.2-1.5-.4-.9-1.7-2-1.7-1.4-2.2-.3-1.8-1.1-3.2-.2-1.7-1-1.1.2-.8-.6-.6-.5-1.7-1.4-1.4-.3-1.2-1-1-.5-1.7.4-1.6v-1.1c-.1,0-.8-1.5-.8-1.5l.2-.4-2-2.8v-1.2c-.1,0,.3-1.4.3-1.4l.6-.9-.2-2.4.2-.3v-.8c0,0,.4-.7.4-.7l-.4-1.4.3-1,.7-.2v-.5c.1,0-.5-1.3-.5-1.3v-.7c0,0,.4-.1.4-.1v-.3c-.1,0,.3,0,.3,0l.2-.4h.5c0-.1.4-.6.4-.6l-.2-.2.4-.9-.2-.2.2-.9.4-.4-.2-.6.4-.9v-1.3c0,0,.6-.6.6-.6l.2-.5-1.2-1.4v-.4c0,0,.2-1.3.2-1.3v-.5c0,0,.2-.8.2-.8l-.3-.8-1.1-.8.3-1.5h1.2c0-.1-.1-1.4-.1-1.4l.4-.9.2-1.5,1-.9.4-1.1-1.2-2.3-.2-1.6-.6-.7.5-1.6.2-3.7,1.5-2.9v-3c0,0,.7-1.1.7-1.1l.4-1.8.3-.3-.2-.5.2-.6v-1c0,0-1.2-2-1.2-2l.8-.6.4-.7,2.5-1.3.4-.6-.5-1.7-.2-1.8.9-2.5-.7-1.4.3-2.1-.9-1.3-1.5-.5-.6-.8-1-.5h-1s-1,.5-1,.5l-.6.8-1.1.3-.5.6-1.2.6h-1c0,.1-.7,1.2-.7,1.2l-.9-.2-.4.3h-.7c0,.1-.3-.2-.3-.2h-.5c0,.1-1,.9-1,.9l-2.1,1.1-.2-1.2-.7-.9v-.6s-1.1-1.1-1.1-1.1h-.6s-.5,1.1-.5,1.1h-1.2c0-.1-.4-.4-.4-.4l-.3-.6h.5c0-.1,0-.4,0-.4h.4c0-.1-.2-1.1-.2-1.1l.8-1.3v-.9c0,0-.5-.6-.5-.6v-.6c.1,0,.3-.3.3-.3h.5s-.2-.9-.2-.9l1.3-1.1v-1s-.6-.2-.6-.2v-.7c-.1,0,.5-.2.5-.2l.4.2.5-.4.3-1.1.6-.6v-1.9c0,0-.2-.7-.2-.7l.5-.2.2-.8.5-.2.2-1.4.5-1.3.4-.3.4.2.5-.2.7-.9-.6-1-.2-2,1-1-.8-1.1.5-2.6-.6-.9-.6-.4h-1.4c0,0-.2-.4-.2-.4l.2-.4-.5-.4.5-.6-.3-1h-1c0,0-.9-.6-.9-.6l-1.3-.2-.4.2-1.3.2-.4-.2-.2-.5-1.3-.3-1.7-1.8-1-.3-1.1-3.2-1-.3v-.7s-.4-.4-.4-.4l-.8.5-.7-.8h-.8c0,0-.3-.3-.3-.3l.3-.7-.3-.3h-.8s-1,.8-1,.8h-.5c0-.1-.1,0-.1,0l.2.8-.4.3h-.4s-.7-1-.7-1v-.8l-.5-.6v-1.2c-.1,0-.6-.8-.6-.8l.2-.7-.7-.6-.8-.2-.6-.6v-.3c.1,0-.1-.4-.1-.4l-.5-.3-.9,1.1-.6.2-.8-.2h-.5c0,.1-.1.9-.1.9l1.1.6v.3c.1,0-.2.8-.2.8v.5c0,0-.2.3-.2.3h-.5s-.3-.4-.3-.4h-.4c0,0-.2.7-.2.7l-.5.3h-.2s0-.4,0-.4l-1-.3v-.3c0,0-.4-.5-.4-.5v-.8c.1,0-.3-.5-.3-.5l-.9-.4h-.6c0,0-.4.7-.4.7h-.4c0,.1,0,.4,0,.4l.3.4-.4.9-.5.2-.3-.2v-.5s-1.1-.5-1.1-.5l-.3.5-.7.2-1.4-.5-.2-.5h-.9s-1,2.4-1,2.4l-1.3.8-.6.2h-1.2s-.7-.4-.7-.4l-1.4,1.1v1.5s.5.1.5.1l.4-.2.4.5v.8s-.6.7-.6.7l-1.3.5v.4c-.1,0-.7.3-.7.3h-.7c0,0-.4-.3-.4-.3h-.6c0,0-1.2.4-1.2.4v1l.3.9-.6.9v.6c-.1,0,.2.7.2.7l-.3,1.1-2.4,1.2-.7.8v.6c-.1,0-.8.7-.8.7l-.5,1.5v1.2s-1.3,1.4-1.3,1.4v.4c0,0-.4.8-.4.8l-.5,1.4v1.4c-.1,0,.2,1.6.2,1.6v.4c-.1,0-.9,0-.9,0l-1.7,1.5h-.9c0,0-.5.4-.5.4l-.3-.2-.5.2-.8.9-.2,1h-.7s-.5.7-.5.7l-1,.4-.2.5h-.9c0,0,0,.4,0,.4l.3.5-.3,1.1-1.7,1.4-.4,1.2h-.9c0,0-1.2,1-1.2,1h-.4s-.7-1.1-.7-1.1v-3.6c-.1,0,.9-2.6.9-2.6l4-7.1.4-2.8.2-5.4.4-2.3v-2.4c0,0-.6-.9-.6-.9l-1.6-.6.5-2.5.7-1.8,1.9-2.8,7.6-9.4h.1c0,.1.8-3,.8-3l.8-1.5,4.2-3.1.2-2-1.3-3.3,10.5-6.7,1.2-.5.8.8-.2,2,3.4,2.7,6.3-3.5,1-1.1,2.6-.3.9.2,1.3,1,3,5-.7,2.8-.2,2.2.3,3.7,8.8.9,2.5,1.8.5,2.5.6,1.4,2.4,1.4.9,1.8v1.3s2.6-3.7,2.6-3.7l1.7.3,3.6,2.3.2-1.8,1-.6.6-1.4,1.2.2.5.7,1.7-.3.3-2.1.5-1.5h.7c0,0,.9-.9.9-.9l1-.2.6-1.5.9-1.1.9-.6.6-1.2,2.7-.6.5,1h.6s1.9-1,1.9-1l1-1,2,.7.6.8.9-.6.4-.7,1.1-1.1,1.5-.3.6-.5,1.3-2.6,2.3-1.3.8-1.1h1.5c0,0,1.9.7,1.9.7l1-1,2,1.1,1.4-1.6,1.4-1.1.7-1.6,3.3-2,.3-1.5,2.1.5,1.4,1.6h2.4c0,0-2.9-6.2-2.9-6.2l-1-3.1-1-6.4,1.7-4-.2-2.5.3-3.3,2.8-1.3,3.1-.8.4-4.7.5-.5h0l1.1.5.8-.2.3-.7v-2.3c.1,0,1.6-2.9,1.6-2.9l1.4-4.3.9-1.3,1.8-1.4,2.5.3,3.3-1.4,2-.4.5-.4.5-1.2.7-.7h1c0,.1.8,0,.8,0l.8.3.5.4.4,1.1.7.4h1.1s1.1-.5,1.1-.5l1.3-2.2.6-.4,2,.5,2.2-.2,5.2,2.7v.7c.1,0,.5.3.5.3l2.9-1.4.9.4h2.1c0,.1,3.6-1,3.6-1l1.4,1,.8.2,2.5-.7,2.2.5h.9c0-.1,3.4-1.7,3.4-1.7l1.1.3,2,1,2.1.3h2.3c0-.1.3-.4.3-.4l.6-2.1.8-1.7h.4c0-.1,1.4,1.4,1.4,1.4l3,.3,2.7-1,.6-1,.9-2.5.8-1,1.8.6,1.5-.7,1.4-1.1,1.9-.3h1.1c0,0,2.3,1,2.3,1Z"/>
    <path id="TJ-KT" d="M63.3,333.1l-.3,3.7-.7.6,3.6,2.6,1.8.7,2.4.4h3s3.6-.3,3.6-.3l.4,2,.8,1.3h1.5s2.1-.9,2.1-.9v-2c0,0,1.1-3.3,1.1-3.3l.2-2.1.6.3.7-.3.2-.6v-6.9c-.1,0-.5-.5-.5-.5l-1.5.6-1.3-.3-1.6.5-.8-.3v-.8s.6-1.1.6-1.1l3.3-9.3,2.2-4v-.8s-1.1-2.6-1.1-2.6l.8-.4,2.1-3.3h2.4c0,0,1.1-.8,1.1-.8l2.9-2.5,1.4-.4.4-1.7h.6c0-.1.9,1.4.9,1.4l2.8.6,2.5-1.7,1.9-.8,2.6-2,1.5-.3,1.4,1,1.9-1.3v-.4c.1,0,.8.1.8.1l.9.6,1.6-.3,1.8.9h.9c0,.1.2-1.3.2-1.3h.6s.8.8.8.8l.5-.6,1.4-4.4.9-1.3,3.8.9,3.8-.4,1.9.6,1.9,1.7,4.2-1,1.3-1.4,1.9.8,2.3-.4,2.5-1.5.8.5v4.4c.1,0,.4,1.5.4,1.5l.5-.9,1.5-1.5,2.4-4.1,2.5-2.1,1.7-.8.9-2.1,1.8-3h.9c0,.1,1.8-1.8,1.8-1.8l3.2,1.6,1-.2,1.1-1.3,2.1-4.8,3-3.6,2-3.1.9-.3,1.5,1.1,4.1-1.4,1.1,3,1.9.5,1.5,2.1,1.7.4,2.3,3.4-.6,6h1.3c0-.1,1.2-.9,1.2-.9l.8-1.3h1c0-.1.8-1.4.8-1.4l5.3-2.5,2.4.4,4.5,3.4,2.9,3.4h0l-7.6,9.4-1.9,2.8-.7,1.8-.5,2.5,1.6.6.5.9v2.4c0,0-.3,2.3-.3,2.3l-.2,5.4-.4,2.8-4,7.1-1,2.6v3.6c.1,0,.8,1,.8,1h0l-.3,1.4-1-.3-.4-.5h-.2c0,0,0,.7,0,.7l.4.7v.8c0,0,.6.5.6.5l-.4.5h-.5c0,0-.5-.5-.5-.5h-.7s-1.9,1-1.9,1v.8l-.8-.7-.7-1.4-.3-.2-.4,1-.5.4.4,1.2v1c.1,0,0,.4,0,.4l.4.8-.6.7.9,2.5.4.3h.7c0,.1,1,1,1,1h2.2s.9,1.1.9,1.1l.7.2v.5c.1,0-.3,1.1-.3,1.1v.7s.4.8.4.8l1,.8-.6,1.7.8,1.4-.2.7-.6.6.3.9.6.2v.7c.1,0-1.1.5-1.1.5v.6c.1,0-.3.2-.3.2l-.3,1.8-.9.7v.7c0,0,.1.2.1.2l.2,1.3-.3.9h-.4c0-.1-.2,0-.2,0l-.2-.5-2.2.6v.8s.4.6.4.6v.4c0,0-1.2,0-1.2,0l.7,1v.3c-.1,0-.7-.1-.7-.1l-.7.4-.7-.7h-.3c0,0,.3,1.4.3,1.4l-.5.7-.2,1.4h-.5s-.5-.7-.5-.7l-.9,1.1-1-.2-.8.2-.8-.6-1.2-.2-.5-.6h-.6c0,0-.5-.6-.5-.6l-.6.4-.6-.7-1.2.2-.3-.4-.9-.4-.5-1.1-1.9.3h-.7c0-.1-.3-.4-.3-.4v-1.6s-.6-1.3-.6-1.3l-2.4-.6h-2.8c0,.1-1.2.7-1.2.7l-.8.9-1,1.8-.4.2-.8-.2-1.6-1-2-.3h-.8c0,.1-1.7,1.1-1.7,1.1h-5.1c0-.1-1.2.2-1.2.2l-2.5-.4-1.3-.4-.4-.5h-.5c0,0-.7.8-.7.8l-.8,1.8v.9s-1,1-1,1l-.3,1.2h-1.2c0,0-1,1.2-1,1.2h-.3c0,0,.1.6.1.6l-.3.8h-1.2s-1.2,2.7-1.2,2.7l-1.3.4-.4,1-.7.5v.8c.1,0-.4,1.3-.4,1.3l.7,1-.6.8.5,1.8h.6c0,0,.3.6.3.6l-.6.6-.2,1.8.2.6.5.4.8-.2-.3,1.1,1,1-.5.8.8,1.8-.4,1.1v.6s.8.2.8.2l1.3-.3.4.3-1.7,2.5-.2.7-1.2,2.1-.2.2h-1.4c0-.1-.6.1-.6.1l-2.2,2-.8,1.6-2,.3-.9.8-1,.2-.2.5h-.8s-1.4-1.4-1.4-1.4l-.3-.8-.6-.6-2.5-1.3-3.5-2.4-.9-1.4-1.1-2.6-3.6-2.5-2.5-3.4-1.1-.7-.4-.8-1.8-.8-.6.5h-.4c0,0-1.5-1.2-1.5-1.2l-.6.3-.2.4.4,1.7.7,1,.7.2.4.7-1.1,1h-.5c0,.1-.5-.1-.5-.1l-1.8-2.8-2.2-1.2-1.3.9-.4,1.2.4,1.3,1.1.8.3.6-.2.7-.6.4h-.8s-.6-.6-.6-.6l-.5-2.3-.4-.5h-.6c0,0-1.6.6-1.6.6l-1.2,1h-.8c0,0-2.3-.9-2.3-.9h-.3c0,0-.5.9-.5.9l.6,1.3.2,1-.6.3-.9-.9-.5.2-.3.4.2.6-.2,1.3-.4.8-1.1.2-1,.7-3,.6-1.1,1.4-.7.6h-.9c0,.1-1.1-.2-1.1-.2h-.8c0,.1-1.3,1.6-1.3,1.6h-.4s-1.3-.7-1.3-.7h-.6c0,.1-.9,1.6-.9,1.6v.7c0,0-1.1.7-1.1.7l-.5,1-.6.6h-1.4c0-.1-1.6-.8-1.6-.8h-1.5s-1.1.3-1.1.3l-1,1.6-.3,1.4v2.7s-.4,1.1-.4,1.1l-.6.7-1.3.3-2.3-1.3h-.7c0,0-2.5,1.5-2.5,1.5l-1.6,1.6-.9.2-.7.6-1.5,2-1.6.8-2.6.9-1.7-.8-.5-1.2v-.9c0,0-.7-1.1-.7-1.1l-3.1-1.1-1.3-1-.4-.6-.2-2.9-.9-1.2h-3.1c0-.1-1-.3-1-.3l-1.9-1-.9-.8.7-6.4-.4-1.2,1-.6,1-3.4.4-3,.4-6.4-.4-5.6v-3.6c0,0,1.7-5.4,1.7-5.4l2.2-2.1,3.3-6.8,3.2-4.2,1.9-1.4,1.6-2.3,4.4-9.5,1.1-2,5.7-1,3.5-1.6.5-1.2v-1.1c-.1,0,.4-1.3.4-1.3Z"/>
    <path id="TJ-RR" d="M275.3,199.1v1.4c0,0-.1,1-.1,1l-.7,1-.3,1.2v1.1s.6,2.7.6,2.7l.6,1.5.9.5,2.3.3.9.4h.9s2.2-.9,2.2-.9l2.1-.4h3.5s1.7,1.1,1.7,1.1l.7,1.2.4,2.1-.2,1.8-.3.5-1.5.7-1,1.3-.3,2.2,1.8,3.1.7.7.7.4h1c0,0,1.8-.8,1.8-.8l2.1.2,1.3.5.7-.2.5-.2.8-1.8,1.7-2.5.9-.3,1.6-1.1,1.1-.3,1.5-1.3,1,.5.5.7.4,2.5.8,1.5.5,1.6.7,1.2.6.6h1.4c0-.1,2,0,2,0l.6.2.9,1.6,1.8,1.4.4.7v1.8c0,0,.3.9.3.9l.5.4h0l-.5.5-.4,4.7-3.1.8-2.8,1.3-.3,3.3.2,2.5-1.7,4,1,6.4,1,3.1,2.9,6.3h-2.4c0,0-1.4-1.7-1.4-1.7l-2.1-.5-.3,1.5-3.3,2-.7,1.6-1.4,1.1-1.4,1.6-2-1.1-1,1-1.9-.7h-1.5c0,0-.8,1.2-.8,1.2l-2.3,1.3-1.3,2.6-.6.5-1.5.3-1.1,1.1-.4.7-.9.6-.6-.8-2-.7-1,1-1.9,1h-.6s-.5-1.1-.5-1.1l-2.7.6-.6,1.2-.9.6-.9,1.1-.6,1.5-1,.2-.9.8h-.7c0,0-.5,1.6-.5,1.6l-.3,2.1-1.7.3-.5-.7-1.2-.2-.6,1.4-1,.6-.2,1.8-3.6-2.3-1.7-.3-2.7,3.7v-1.3s-.8-1.8-.8-1.8l-2.4-1.4-.6-1.4-.5-2.5-2.5-1.8-8.8-.9-.3-3.7.2-2.2.7-2.8-3-5-1.3-1-.9-.2-2.6.3-1,1.1-6.3,3.5-3.4-2.7.2-2-.8-.8-1.2.5-10.5,6.7,1.3,3.3-.2,2-4.2,3.1-.8,1.5-.8,3.2h-.1c0-.1-2.9-3.6-2.9-3.6l-4.5-3.4-2.4-.4-5.3,2.5-.8,1.3h-1c0,.1-.8,1.4-.8,1.4l-1.2.8h-1.3c0,.1.6-5.9.6-5.9l-2.3-3.4-1.7-.4-1.5-2.1-1.9-.5-1.1-3-4.1,1.4-1.5-1.1-.9.3-2,3.1-3,3.6-2.1,4.8-1.1,1.3-1,.2-3.2-1.6-1.8,1.9h-.9c0-.1-1.8,2.8-1.8,2.8l-.9,2.1-1.7.8-2.5,2.1-2.4,4.1-1.5,1.5-.5.9-.3-1.5v-4.4c-.1,0-.9-.5-.9-.5l-2.5,1.5-2.3.4-1.9-.8-1.3,1.4-4.2,1-1.9-1.7-1.9-.6-3.8.4-3.8-.9-.9,1.3-1.4,4.4-.5.6-.8-.8h-.6s-.2,1.4-.2,1.4h-.9c0-.1-1.8-1-1.8-1l-1.6.3-.9-.6h-.6c0-.1-.1.3-.1.3l-1.9,1.3-1.4-1-1.5.3-2.6,2-1.9.8-2.5,1.7-2.8-.6-.9-1.5h-.6c0,.1-.4,1.8-.4,1.8l-1.4.4-2.9,2.5-1.1.7h-2.4c0,0-2.1,3.4-2.1,3.4l-.8.4,1.1,2.6v.8s-2.2,4-2.2,4l-3.3,9.3-.6,1.1v.8s.8.3.8.3l1.6-.5,1.3.3,1.5-.6.4.5v6.9c.1,0,0,.6,0,.6l-.7.3-.6-.3-.2,2.1-1,3.3v2c0,0-2.2,1-2.2,1h-1.5s-.8-1.4-.8-1.4l-.4-2-3.6.4h-3s-2.4-.4-2.4-.4l-1.8-.7-3.6-2.6.7-.6.3-3.7h0v-2.4s2.3-4.3,2.3-4.3l3.2-3.4.2-1.7,1.9-6.7v-1.1s-1.5-2.1-1.5-2.1l-1-1.9v-.5s-2.8-3.5-2.8-3.5l-1.4-1-3.9-1.7-.3-.3-.4-3-2-3.4-2.3-1.3h-.6s-2.1.9-2.1.9h-.6s.3-1.4.3-1.4l1.3-2,.5-1.6-1.4-1.1-3.4-4.5.5-7.4.7-.8v-.6s-1.2-2.7-1.2-2.7l-.6-2.1,1.8-1.7,2.2-.3.5-.9-3.5-5.1.5-.8,3.5-.6,1.4-.4.8-1.3,1.8-.9-.2-1.3h.6c0,0,.2-1.1.2-1.1l1.7-.4,1-2.1,3.5-3.2h.9c0,0,2.1-1.6,2.1-1.6l1.3.2,3.9,2.2,2.4-.9h2.8c0,.1,2.3-1.9,2.3-1.9l4.1-1.2,1.1-.8.8-1.4.2-2.5.8-1,5.3-.9,1.6-.9,1.8-.3,1.8.2,1.1-.2,3-1.3,1.5,1.2h1.6s1.7-.8,1.7-.8h1.7s1,.6,1,.6l2.9,2.6,1.9,1h.4c0,.1.7-.3.7-.3h3.2c0-.1,1.9.6,1.9.6l.8,1.2,2,2.2,1.3.3h2l5-3,2-1.5,1.1-1.5,1.3-.8,1.7.3,6,2.7h.9c0,.1.8-.8.8-.8l-.3-1.4-.8-1.2v-1.1s.4-1.3.4-1.3l5.5-2.3h.5s.5.2.5.2l1,1.5,1.7,3.8.9,3.2.6.4,1.6-.5.9-1.3.8-.7,2.2,2,1,.4.5-.9-.3-1.2,2.1-1.9-.5-.9.3-1.5v-2.5s-.4-2-.4-2l1.6-3.1-3.5-5.6,4.4-3.4v-2.9c.1,0,2.3-.4,2.3-.4l1.8,1.7,1.5-.7,1.3-1.3,1.9-.9.8,1.6.4,1.5,1.7-.2,1.6-2.7,1.1-.9,1.5-.2,1.6,1.5,2.6,1.5,2.3-1.1h2.3c0,0,1.7-1.9,1.7-1.9l2.7-2.1h1.9c0,0,2.2,1,2.2,1l2-.2,1.7.5,1.7-1.6,3,1.1.9-3h2.4c0,.1,2.7-.3,2.7-.3l1.2-2.7h2.4c0,0,1-2,1-2l2.6-1.9h0l2.1,1.3.6.8.5,1.3v3c0,0,.4,2.3.4,2.3l.3.4,1,.4h1.8c0,0,3.4-.3,3.4-.3l1.6,1h1.3c0-.1.6-.7.6-.7l.8-1.4v-1.6s.4-.6.4-.6h.6c0,0,.5.3.5.3l1,1.3,1.2,1h2.4c0,0,2.2-.9,2.2-.9l1-1.5-.2-3.2.2-.9.6-1.5.6-.6.9-.3,3.7.2,1.5-.3,3-2,.3-.8.6-.6.3.3,1.2,2.2.6.4h.6s.8-.4.8-.4l1.4-1.7.4-.7v-1.4c0,0,1.7-.6,1.7-.6l3.5.4,1.3-.5,1.6-1.2,1.8-1.8h.7c0,0,1.8.9,1.8.9l1.6,1.3.6,1.1Z"/>
    <path id="TJ-SU" d="M216.3,175.2l2,.3,1.4-.5h1.2c0,0,.7.4.7.4l.6,1.9-2.3,1.6-2.4-.2-.2,2-.6,1.6-1.1.7-1.5-1.3-1.1-2.8-3.4-2-1.9-.8v-1.5c0,0,.7-.9.7-.9l7.9,1.6ZM218.6,86.6l-.3.5-4.5-6-1.7-1.3h-1.4s-.3-1-.3-1l.4-.7,1-.8-.4.5,1.7.7,4.5,5.8.9,2.2ZM204.8,75.4h.6s1,.5,1,.5l.4,1,1.5,1.3v.9c0,0,1.8,2,1.8,2h1s.8,2,.8,2l1.4,1.8.6,1.2,1.5,2.3.6,1.6h.4s.2.5.2.5l1.4,1.2.8,1.9,1.2.4,1.8,2-.7.5h-.2c0-.1-.4.1-.4.1v.5c.1,0-.2.4-.2.4h-.5c0,.1-.8-.2-.8-.2l-.7-1.7-.5,1.7v1c0,0,.5.9.5.9l1.2-.3h1.7c0,.1,1.2.8,1.2.8l-.4.2h1.3c0,0,.6.4.6.4l1,.8.7,1v.4c0,0-.9.7-.9.7l-.4,1.4-.6.8h-.9c0,0-.4-.3-.4-.3l-.4.3.2,2.3-1-.4-1.4.3-.6.7h-.6c0,.1-.2.5-.2.5l-.7.2-.9,1-.9.2-.5.5-1.6,3.1-1.2,1.5-1.6.3-.7.5h-1.1c0,0-1.4.3-1.4.3l-.5,1.8-.6.6-.2,1.1-.7.6h-1.1s-2.9,1-2.9,1l-1.5.8-1.7.3-1.4,1.1-1.1.3-.2.3v.8c0,0,1.4,2.5,1.4,2.5l.2,1,.8.6.6,1.6,1.1.8h.6s1.7-.6,1.7-.6l1.4.6,2.3.5,4.1,1.8,1,.9.3.8-.2,1.2.8,2.5-.5,1.4v1.8c0,0-.3.2-.3.2l.7,1.3,1,.5,1.5,3.2.6,1,.6.4h.6c0,.1,4.4-.8,4.4-.8l4.2-.6,3.5-1.5,2.4-1.8h.4c0,.1,2.7-.4,2.7-.4h3.3c0,0,.8.4.8.4l.3,1-.2,2-.6,1.9-1.1.8-2.9.9-3.2-1.6h-1.8c0-.1-.5.3-.5.3l-.6,2.7-.4.8-2,1.8-1.2.7-2.5.3h-2.5c0-.1-1,.3-1,.3l-.5.6-.3.9v.5h.4v1.9c.1,0,0,.7,0,.7l.3,1-1.3,2.8v.6s-.4.4-.4.4h-.9c0,.1-3.2,2.5-3.2,2.5h-.5c0,0-.6.5-.6.5l-.4.2-.3-.5-1.5.2-.5.6-.2.8,1.3,1.7v.4s-.2.1-.2.1l-2.3-2.5h-.8c0,0-1.2-1.1-1.2-1.1l-.4-.8,1.6-1.9,2.1-.9,2-1.7,1.3-1.7v-.3s-.7,0-.7,0v-.4s-.8,0-.8,0l.3-.5-.2-.3-1.3-.9-1.5-.4-5.4-.8-1-.6-.8-1.4-1.6-.2-.9-.3-.9-1.2-2.3-1.3-2-.6-1.5.3h-2s-.9-.4-.9-.4l-.4-.6-4.3-2.9-2.6-2.2-1.6-1.1h-1.5c0,.1-2.9-.8-2.9-.8l-1.2.4-1.2.8-1.1.3-2.6,1.4-4.7,1.9-1.7.5-6.5,3.6h-1.6c0,.1-1.9,0-1.9,0l-4.2,1.1h-1.3c0,0-2.4,1.2-2.4,1.2l-.5,1.1-.3,1.7v.4c.1,0-.4,1.6-.4,1.6l1.5,3.3-.3,2.1.6,2.2v.9c-.1,0-1.9,1.1-1.9,1.1l-1.7,1.6-.7.4h-1s-1.6-.8-1.6-.8l-.7-3.7-1.5-2.1-.7-2h-1.9l.2,1.9-.8,3.4-1,3.3-1.3,1.3-.4,3.5-.4,1.3-1.1,2-.2,1,.8,3.6,2,3.3.4,1.6-.4,2.3.7,1.1v1.8c.1,0,.6,1,.6,1v1.7c.1,0,1.1.5,1.1.5l-1.2,4.2,1.6,1.9h.6s.7-.6.7-.6l1.2-2.4h.5s.3.9.3.9l.9.6,1.3.4,1.1-.4,1.2.8,1.4-.8,1.1-.2,1.1-.6h.6c0,.1,1.2-.7,1.2-.7h1s1-1.8,1-1.8l2-1,2.1.8h1s1.4-1.3,1.4-1.3l1.1-.2,2.5.7.5.6,2.2.5,1.2.6,2.8,2.2.5,1.3h.3s2.1-2.3,2.1-2.3l.3-1.5.4-.4,1.4-.3,2.1.4,1.1.8.4,1.1.7.5,1,.2,1.2-.5.6-1.7.6-.2.6.9-.2,2.2.2.9.4-.4.3-2.2.5-1.1,1.9-1.6,1.1-.3.6.3.4,1.6.9.6,1.7.2.8-1,.4-1.9.5-.6h.4s.4,2,.4,2l.5.7.9.5,2.1,2.6.7.2,1.3-.4.8-.6,3.7-4.4,1.5-.3,1.2.3,1,.7,1.3.5.9-.3.5-.7.7-2,.7-.4h.9s2.2.7,2.2.7l.8,1.3.9.7,4.2.5,1.7,1.1,2.7,4.9.7.4h0l-2.6,1.9-1,2h-2.4c0,0-1.2,2.8-1.2,2.8l-2.7.5h-2.4c0-.1-.9,2.9-.9,2.9l-3-1.1-1.7,1.6-1.7-.5-2,.2-2.2-1.1h-1.9c0,0-2.7,2.2-2.7,2.2l-1.7,1.8h-2.3c0,0-2.3,1.2-2.3,1.2l-2.6-1.5-1.6-1.5-1.5.2-1.1.9-1.6,2.7-1.7.2-.4-1.5-.8-1.6-1.9.9-1.3,1.3-1.5.7-1.8-1.7-2.1.4v2.9c-.1,0-4.5,3.4-4.5,3.4l3.5,5.6-1.6,3.1.4,2v2.5l-.3,1.5.5.9-2.1,1.9.3,1.2-.5.9-1-.4-2.2-2-.8.7-.9,1.3-1.6.5-.6-.4-.9-3.2-1.7-3.8-1-1.5-.5-.2h-.5s-5.5,2.3-5.5,2.3l-.4,1.3v1.1s.8,1.2.8,1.2l.3,1.4-.8.9h-.9c0-.1-6-2.9-6-2.9l-1.7-.3-1.3.8-1.1,1.4-2,1.5-5,3h-2s-1.3-.3-1.3-.3l-2-2.2-.8-1.2-1.9-.8h-3.2c0,.1-.7.5-.7.5h-.4c0-.1-1.9-1.2-1.9-1.2l-2.9-2.6-1-.6h-1.7s-1.7.8-1.7.8h-1.6c0,0-1.5-1.1-1.5-1.1l-3,1.3-1.1.2-1.8-.2-1.8.3-1.6.9-5.3.9-.8,1-.2,2.5-.8,1.4-1.1.8-4.1,1.2-2.3,2h-2.8c0-.1-2.4.7-2.4.7l-3.9-2.2-1.3-.2-2.1,1.6h-.9c0,0-3.5,3.3-3.5,3.3l-1,2.1-1.7.4-.2,1h-.6c0,0-.3-1.7-.3-1.7l.5-.3.2-1.7v-1.1c-.1,0-3.9-2.9-3.9-2.9l-1.7-4-1.7-1.2-1.7-.2-2.6,1.4-1.4-.3-1.6-1.6h-.6s-1.5.8-1.5.8h-2.9c0,.1-1.5,2-1.5,2l-2.1-.2-1.9-1.1-2.9.3-1.5,1-.9-.3-1.3.5-1-.4-1.1-1.5-.2-2.9-.6-1.8.3-3.5.5-.7v-.8s-.4-.4-.4-.4h-2.2c0-.1-.8-.4-.8-.4l-.9-2.3-1.4-.7-1.5-.3-2.6.3-2.1-1-2.5-.5-1.3-.7-1-1.1-2-3.4-.5-2.5.3-.4,4.7-1.6,1.4-.3,2.2.4.2-.6-2.8-7.1-2.8-6-.8-1.2v-1.8s.5-1.1.5-1.1l.6-.2,3.1.8.6-.7-.3-2.2.2-1,5.6-2.1h2c0,0,.8-.3.8-.3l1.3-2.1.9-.6,1.5-.5,1.2-1.4h.6s2.7,1.2,2.7,1.2l1.7-.4,1-.5,3.4,2.3h1.9c0,.1,1.3,1.3,1.3,1.3l2.6,1.2h3.2s1.3.5,1.3.5l1.5,1.2.8.2h1.5c0-.1,2.4.8,2.4.8l3.1.2h1c0-.1,1.4.7,1.4.7l1,.2,3.1-.6,2.5.3,2,.4.7.3,1.1,1.1.6.2,2.6-1.1,4.2.7,1.6-.4,1.5.5,1.1-1,.7-3.6,2-1.4,3.3-3.8.4-2.4-2.6-3.8-.4-.9.6-.7h.9c0,0,.9-.4.9-.4l1.5-3.3.4-1.8-.4-2.3v-1.6c.1,0,1.8.2,1.8.2l.7.4,2.1-1.7.6.2,1.1,1.2.4,1.8.8.6,1-.5.4-2,.4-.6,1.3-.3.5-.4.5-1.1v-1c0,0-2.6-5.5-2.6-5.5v-1.5c-.1,0,0-.6,0-.6l.7-.3h.6c0,0,1,1.3,1,1.3l1.9,4.5v2.5c0,0,.9,1.3.9,1.3l.9.4h1.1c0-.1,1-1.1,1-1.1l.3-1v-1.1c0,0-.8-1.6-.8-1.6l-3.7-4.5-2.1-2,.5-2.3v-.9c0,0-1.4-1.3-1.4-1.3l-.5-.8v-.7s.4-.4.4-.4l.8-.3h.9c0,.1,1,1.7,1,1.7l.4,1.8.6.4.2-.2.3-1.4,1.6-1.2,3.2-.5h1.3l2.1.5h1c0,0,.4-1,.4-1l-1.2-5.1-1.2-.9-6.8.4-4.8,1.2-1.7.8-4,1.1-1.8.8-3,.6h-1.7s-3.7-2.1-3.7-2.1l-1.2-1.1.3-.8,4.1-1.2v-.2c.1,0,1.3-.1,1.3-.1l2.5-.7,7.4-2.6,3.3.9,1.8-.5,1.9-1.3,2.7-.6,4.7-.5h3.6s2,.7,2,.7h4c0,.1,1.5.6,1.5.6h1.5c0-.1,1.1-.5,1.1-.5l1.8.4h2.7c0,0,1.6.9,1.6.9l.7-.6-1.2-3-.6-.6-1.9-.4-.6-.6.3-1.2-.5-.8.2-.9,2.5.3h1.2c0,0,1.6-1.6,1.6-1.6v-1.3s.5-.8.5-.8v-1.7s-2.1-1.8-2.1-1.8v-1.2s-.4-1.1-.4-1.1l-.6-.5.3-1.2-.7-.3-.9-2.9-.6-.7v-1.2s.5-.6.5-.6v-1.1c0,0-.9-.8-.9-.8l-1.9-2.6v-.5c0,0,.3-.9.3-.9l2.2-1.5,2.5-.3h1.6c0,.1.9-1.5.9-1.5l.7-.3.4-1.8-1.3-3.3.3-4.9v-.5c0,0,.6-.5.6-.5l.3-1.3,2.6-3.6,2.3-.3.9.5,3.5,1,1.7.2,1,1,1.2,2.4.3,1.7.8,1.1,1.8,1.3,1,1.2,1.5.4,1.1,2.4.9.2,2.3-.2,1.3-.8,2-4.2.6-.6,1-.3,2.4.5,1.3-1.4,1.6-.9h.6s2.5,1.4,2.5,1.4l1.7-1.6,1.1-.7,2.8-.4,1.2-.5,1.5-1.3,2-.8,3.3-3.2.8-1.8.7-.8h.8c0-.1,1.4.4,1.4.4l1.6.3,3.3-1.9,1-1.4,2.3-1.4h1.7s1-.4,1-.4l.5-.5.7-1.4-.4-1.8.2-1,1-1.1v-1.1s.5-.7.5-.7l-.4-1.8.2-.6.5-.4.6-1.3.8-.8,1.8-.7,1.4.4Z"/>
  </g>
</svg>