<?xml version="1.0" encoding="UTF-8"?>
<svg id="Layer_1" xmlns="http://www.w3.org/2000/svg" xmlns:amcharts="http://amcharts.com/ammap" version="1.1" viewBox="0 0 512 512">
  <!-- Generator: Adobe Illustrator 29.1.0, SVG Export Plug-In . SVG Version: 2.1.0 Build 142)  -->
  <g id="_x3C_defs">
    <amcharts:ammap bottomLatitude="5.614881" leftLongitude="97.344960" projection="mercator" rightLongitude="105.634692" topLatitude="20.463430"/>
  </g>
  <g>
    <path id="TH-10" d="M225.4,229.1l1.3.2.3-.3,1,.8,2.9.5,6.1-1h0l-.3,2.9-.5.3,1.5,1.2-.9.8-1.6,3.2h0l-2.4-.6h-2.6c0,0-.4,2-.4,2l-1.1-.7-.6.8-2.2-.6.3-.8-1.1-.5-.3,1.1h-1s.1,2.3.1,2.3h-1.3c0,0-.4.4-.4.4l-.5-.4-.3,1.7.3,1.8h0l-1.5.3h0l.3-2.3h-.8c0,.1-.8-2.3-.8-2.3l-1-.4-.3-3.1h0l-.4-3h0l.4.6,4.7.5,1-.4.5-.4-.2-.4,1.2-.8.7-3.4Z"/>
    <path id="TH-11" d="M221.7,244.2l-.3-1.8.3-1.7.5.4.4-.5h1.3c0,0-.1-2.2-.1-2.2h1s.3-1.1.3-1.1l1.1.5-.3.8,2.2.6.6-.8,1.1.7.4-2.1h2.6c0,0,2.4.7,2.4.7h0l3.1,1.1-.2.4.5.3-1.3,1.7h-.5c0,0,.3.8.3.8l-.3.5-.5-.3-.6,2.5-.6-.2v.5h-.1l-7.2-1.4-1.8-1.3.5-1.7-1.1-.2.9.4-.5,1.3.3,1.4-1.7.6h-2.6Z"/>
    <path id="TH-12" d="M218.1,223.5l-.4,2,1,2.1,3.3.7,1.2,1.2,1.3-.6.8.2h0l-.7,3.4-1.2.8.2.4-.5.4-1,.4-4.7-.5-.4-.6h0l-1.8-3.3,1.1-1.4-1.1-1.6.5-3.9h0l.7-.5,1.4.8Z"/>
    <path id="TH-13" d="M234,219.1l2.2-1v1c0,0,2-1,2-1h0l-.2,1.2-1.1.6v8.8h0v.5h0l-6.1,1-2.9-.5-1-.8-.3.3-1.3-.2h0l-.8-.2-1.3.6-1.2-1.2-3.3-.7-1-2.1.4-2h4.4c0,.1,1.3-.4,1.3-.4l1.1.5,1.8-.8.5.2v-.5c.1,0,6.8-3.4,6.8-3.4Z"/>
    <path id="TH-14" d="M223.6,204.5l.2.4,1.1-.4v.4c.1,0,1.8.2,1.8.2h0l-.9,2,.9.7v.8s2.2,0,2.2,0l.2-.9h.5c0,0,3,.5,3,.5v1.2c-.1,0-1.1.5-1.1.5l.8.8-.4,2.7,1.2.8-.8,2.1h1.7s0,2.9,0,2.9h0l-6.7,3.4v.5c-.1,0-.6-.2-.6-.2l-1.8.8-1.1-.5-1.3.6h-4.4c0-.1-1.4-1-1.4-1l-.7.5h0v-1.5c.1,0-1.1-.1-1.1-.1v-1.2h-.1v-2.5s.8-1.4.8-1.4v-1.9s.5-.7.5-.7l-.3-.9-.8-.3v-1.5h.1l1.1-.5,1.1.3,2.9-.7.3,2.2,1.4.2,1.3-.7v-2.2c0,0-.7-1.4-.7-1.4l1-3.7Z"/>
    <path id="TH-15" d="M214.3,200.6l1.5-.2.7.5,1.2-.7.4,1.1.9.2.4.8,1.5-.3-.3.8,1.8.4h0l1.4,1.4h0l-1,3.7.6,1.4v2.2c0,0-1.2.7-1.2.7l-1.4-.2-.3-2.2-2.9.7-1.1-.3-1.1.5h0l-1.5-1.4-.4-1.3.5-.6-.5-1,1.2-1.5-.7-1v-2c0,0,0-1.2,0-1.2l.6-.5Z"/>
    <path id="TH-16" d="M252.1,173.7l.5,3.2-.3,3.7.3,1.5h0v3c.1,0-1-.3-1-.3l.3,2,.9,1.4.6,3.6h-1.7s-.4,1.7-.4,1.7l-.8.7h-1.5c0,0-.7,2.1-.7,2.1l-.8-.9-.3.6h-1.1s-1.3.8-1.3.8l-2-.3-.6.9.5,1.1-.8.2.8.3-.7.6-.2,1-1.9-1.5h-1.3c0,0-.4.3-.4.3v1.6s.5.6.5.6l-.9.5-1.4-.9-1,.2-1.1-1.4-1.6.3-1.3-.5-.9,1.7-1.1.2-1.2,1.2-1.6-.3.7,1.5-.8.8h0l-1.6-.2v-.4c-.1,0-1.3.4-1.3.4l-.2-.4h0l-1.4-1.4h0l.7-1.1-.5-.5-.2-2.5-1.1-1.2-.3-2.1.8-.4v-1.7c0,0,.7-1.2.7-1.2l-1.6-1h0l1.4-1.9,1.4-.6v-.9c0,0,1.1-1.4,1.1-1.4l1.7-1.1v-1c0,0-.4-.6-.4-.6l1.8-1.6.3-3.2,4.3-1.7v-1.1c0,0-.9-.5-.9-.5l.5-.4h1s1.1,1.5,1.1,1.5l2.3.2,1.7,1,1,1.1v.9c0,0,1.5,1.6,1.5,1.6h1.5s.7-.4.7-.4l1.4.9,2.3.2,3.3-2.3v-4.5s-.5-.5-.5-.5l.7-1.3,2-.2Z"/>
    <path id="TH-17" d="M218.1,189.7l2.6,1.8h0l1.6,1-.8,1.2v1.7c0,0-.7.4-.7.4l.3,2.1,1.1,1.2.2,2.5.5.5-.7,1.1h0l-1.8-.4.3-.8-1.5.3-.4-.8-.9-.2-.4-1.1-1.2.7-.7-.5-1.5.2h0l-.8-.7.7-2.5-.6-.5.5-.3h-1.1s-.3-.6-.3-.6l.7-1h2.3c0,0-.4-1.2-.4-1.2l.3-.7-1.2-.5v-.9s2-.5,2-.5v-.6c0,0,1.6-.9,1.6-.9Z"/>
    <path id="TH-18" d="M210.1,179.2l1.2.5v.6c.1,0,2.1.7,2.1.7l1.2,1.4.8,1.2,1.2,3.6,1.6,1.2.2,1-.4.3h0l-1.5.9v.6c0,0-2.1.5-2.1.5v.9s1.2.5,1.2.5l-.3.7.4,1.3h-2.3c0,0-2.2,1.3-2.2,1.3l-.8-1.1-2.4-.5v1.4c0,0-2.5.5-2.5.5l-2.7-.3-1-.9-4.3-.8-.2-.5h0l.4-.8,1.6-.8-.2-1,1.1-1.3-1.9-2.4.4-.4-1.2-1.6.3-.8-.4-1.1,2.2-1.4,2.1.2,1.1.8,2.4-.6,2.8.3.5.7,1.4-2.1-.8-1.1.2-.3.8.2-.6-.9.5-.5Z"/>
    <path id="TH-19" d="M226.7,205.2l.8-.8-.7-1.5,1.6.3,1.2-1.2,1.1-.2.9-1.7,1.3.5,1.6-.3,1.1,1.4,1-.2,1.4.9.9-.5-.5-.6v-1.6s.4-.4.4-.4h1.3c0,0,1.9,1.6,1.9,1.6l.2-1,.7-.6-.8-.3.8-.2-.5-1.1.6-.9,2,.3,1.3-.8h1.1s.3-.7.3-.7l.8.9.7-2h1.5c0,0,.8-.8.8-.8l.4-1.8h1.7s1.4,6.1,1.4,6.1l-3.9,2.7v.7c0,0-1,.2-1,.2l-.3.7-.5-.3v.7c0,0-1.7-.2-1.7-.2l-.6-.9-.8.4.9,5.5-1.1,1.5,2,2.2h0l-.5.3v1.4c.1,0-.5,0-.5,0v1.9s-.8.2-.8.2l-.3.6-.5.2-.4-.9-.8-.4h-1.3s-1-1.1-1-1.1v2.4s-2.3,1.9-2.3,1.9l-1.3-.7v1.2h0l-1.9,1v-1c0,0-2.3,1-2.3,1h0v-2.8s-1.7,0-1.7,0l.8-2.1-1.2-.8.4-2.7-.8-.8,1-.5v-1.2c.1,0-2.9-.5-2.9-.5h-.5c0,0-.2,1-.2,1h-2.1s0-.8,0-.8l-.9-.7.9-2Z"/>
    <path id="TH-20" d="M239.1,245.3l1,.2,2.1-1.8-.9-1.4,1.6.2,1.1-.5.7-1.1,3.3,1,3.8,3.7h1.9c0,.1,0,.9,0,.9l.9.8,1.3-.6,1.7.5.8,2.6,3.4,2,1.7,3.1h0l-.7,1h0l-1.7-.4-1.3.9h-.8c0,0,.2.6.2.6l-.5,1.2-1.6.4-2,1.4-.9-.6-.5.4h-1.4s-1.8-1.6-1.8-1.6l-1,.7v.5s-1.1-.9-1.1-.9l-.6.5-1.8-.8-.4,1,.9.4-.4.3-2.9-.3-1.1,1.3.8.3.4.9-.5,1.9-.9,2v.8c0,0-1.6,1.6-1.6,1.6v.9s-1,2.2-1,2.2l.2,1.2h0l-.8.4-.2,1.7-1.2-.4-.4-.6.6-.7-.4-.4-2.3.3.4-.6-.7-.3.5-.6h-.6c0-.1,0-1.3,0-1.3l.8-1.1h1.3c0-.1.6-1.4.6-1.4l-1.9-3.8.9-.7v-1.1s1.2-.6,1.2-.6l.3-1.1-.6-1-.6.2v-.3c0,0-.2-.8-.2-.8l-.5-.2,2.1-4-.4-2.2-.9-1.2,1-1.3,1.7-.6.3-1.2-.6-1.4.4-1.2Z"/>
    <path id="TH-21" d="M239.6,272.8l-.2-1.2,1-2.2v-.9s1.6-1.6,1.6-1.6v-.8c0,0,.8-2,.8-2l.5-1.9-.4-.9-.8-.3,1.1-1.3,2.9.3.4-.3-.9-.4.4-1,1.8.8.6-.5,1.1.9v-.5s1.1-.7,1.1-.7l1.8,1.6h1.4s.5-.4.5-.4l.9.6,2-1.4,1.6-.4.5-1.2-.2-.7h.8c0,0,1.3-.9,1.3-.9l1.7.4h0l-.4,1.2.5.3-.2.6.8,1.9h1.2s.2.4.2.4l-.7,2.2.6.6.7-.4.4.3.6,1.9.2-.5.3.9-.2,4.1-.7.3-.5,1.8h0l-1.2-.5-2,.5-1.4,1.7-1.6-.4-1,.2-.3.7h-3.6c0-.1-.8.3-.8.3l-.2,1.2-3.4-2-3.2-.8-3.1-.3-4.4.7Z"/>
    <path id="TH-22" d="M285.2,281.6l-1.1.9v1c0,0-1.1,1-1.1,1l-.7-.5v-.9s-.4,0-.4,0v-.7c-.1,0,.8-.2.8-.2l-.5-1.2-.3.8-.6-1,.3-.8-1.3.6-.3-.6v.7c.1,0-.4.6-.4.6l1.1-.5.4.4-.5.9h.7s.8,1.9.8,1.9v.5c0,0-.7.1-.7.1l-3.1-3-1.4-.4.2-.4-.6-1-1.3-1.2v-.8c0,0,.2-.1.2-.1l.6-.3h-1c0-.1,0,1.8,0,1.8h-.5c0,0,0-1,0-1l-.8-.8-1.1-.6h-1.1s.5-1.3.5-1.3l-.4-.5-.5.2.3,1.9-1.8-1.3-.2-.4.8.2v-.7c0,0-.8-.2-.8-.2v.4s-.7-1.8-.7-1.8l-2.6-1.7h0l.5-1.8.7-.3.2-4.1-.3-.9-.2.5-.6-1.9-.4-.3-.7.4-.6-.6.7-2.2-.2-.5h-1.2s-.8-1.9-.8-1.9l.2-.6-.5-.3.4-1.2h0l.7-1h1.8c0-.1,2.6-2.2,2.6-2.2h.6c0,0,.2.8.2.8l.3-.5.3.3.5-2,1.4-.2,1.4-1.4h0l.8,1.5.7.2-.2,1.6,2.7-.9.7-2.4.8,1.3h1.2c0-.1.5,1.3.5,1.3h2.7c0,0,.2-1.4.2-1.4l.7.4.7-1,.7.6h0v.7c-.1,0,.5.5.5.5l1.1,3.6,1.2,2.3.8.3,1.1,2.3,1.2.4-1.5.8.5.6-.5.5.8,1.8-.4,1.2,1,1.4.2,1.2-.9,1h0l-.6-.2-.6.7h-1.1s-1.9,1.9-1.9,1.9l.5,2.1-.4.4,1.2,1.2h-.8s-.8-.9-.8-.9h-.5s-1.8,1.4-1.8,1.4l.4,1.5.9,1-.7,1,.2.8,1.5,1.1Z"/>
    <path id="TH-23" d="M291.6,304v.9c0,0,.4-.4.4-.4l.9.7v1.3s-.7,1.3-.7,1.3h.4c0,.1-.3,1.7-.3,1.7l-.8-.5v-.6c0,0-1.4-.4-1.4-.4l.6-.6-.7-1.1.8-3.5.6,1.1ZM288.5,300.4l1.3.3-.8.4v.8s-.7-.7-.7-.7h-.8l.9-.8ZM282.1,290.1l1.6.2,1,.7,1.1,2.2h.4l1.6,2.4-.4.8-1.8-1.6-.4.2.2,1-1.4-.4-.8.3-.6-.6v-1.9c0,0-1.4-3.2-1.4-3.2l.9-.2ZM285.2,281.6l-1.5-1.1-.2-.8.7-1-.9-1-.4-1.5,1.8-1.4h.5s.8.9.8.9h.8s-1.2-1.2-1.2-1.2l.4-.4-.5-2.1,1.9-2h1.1s.6-.7.6-.7l.6.2h0l-.4,1.6.4,1.2.7.5h1.6s1.2,1.3,1.2,1.3h.9c0,.1,0,1,0,1h.6c0,.1.7,1.2.7,1.2l-.2.3,1.2,1.1.5-.2-.3.8h.6c0,.1,0,.7,0,.7l1,.4.6,1v.9s-1.2.4-1.2.4l-.7.8-.7,6.5,1.1,2.2,1.2,1.2.3,2.8,1.1,1.9.6,2.6,2.3,2.9.2,4-.6-3.4-3.9-5.5.4-1.1-.6-1.2v-1.4s-4.6-4.2-4.6-4.2l.7-.6-.4-.7-1.4-.9-.7.5-.4-.4.6,1.4-.6.2v2.2c.1,0,.9.9.9.9v.9s-1.2-.5-1.2-.5v-.8c.1,0-.5-1-.5-1l-1.8-.9-.2-.9h-2.4c0,0-1.7-1.1-1.7-1.1l-.7.6-1.5-.6.2-1.3-.9-1.7.6.2,1.6-.6,1.3-1.5-.5-.7.8-.9Z"/>
    <path id="TH-24" d="M237,228.8l4.3-.6,3.1.3h0l.8,1.3-.5,1.3h.5c0,0-.7.3-.7.3l.7.7-.4.4,2.4-1.1.9.7.9-.4,2.1.7,1.2-.4v.8c0,0,3,.8,3,.8l1.9,1.6.8-.7,1.3,2,1.6-.4.9.3,1-1.8,1.6-.7,1.4,1.5.3,2.5.7-.4.5.3v2s.9.3.9.3l.9,1.6h.7c0-.1-.5,1.2-.5,1.2l-1.2.3,1.1.6.7,1.4h.6c0,0,.1,1.1.1,1.1l1.3,1.2.5,2.5h0l-1.4,1.4-1.4.2-.5,2-.3-.3-.3.5-.2-.9h-.6c0,.1-2.6,2.2-2.6,2.2h-1.8c0,.1-1.7-3-1.7-3l-3.4-2-.8-2.6-1.7-.5-1.3.6-.9-.8v-.8s-1.9-.1-1.9-.1l-3.8-3.7-3.3-1-.7,1.1-1.1.5-1.6-.2.9,1.4-2.1,1.8-1-.2h0v-.4s-1.2.7-1.2.7l-3-.6h0v-.5c.1,0,.8.2.8.2l.6-2.5.5.3.3-.5-.3-.7h.5c0,0,1.3-1.8,1.3-1.8l-.5-.3.2-.4-3.1-1.1h0l1.6-3.2.9-.8-1.5-1.2.5-.3.3-2.9h0v-.5Z"/>
    <path id="TH-25" d="M254.2,214.2l.5-1.1-.4-.8,1.7-.6,1.5,1.3,1.9-.5,1,.4v.4s4,3.7,4,3.7l.3-1.4,1.3-.4.8.4.9-.6v.5c0,0,1.6,1.1,1.6,1.1l1.1-.4.8,1,.4-.6,1.2.2v.8c.1,0-1.5,1.2-1.5,1.2l1.3.4-.8.4,4.6,2.6h0l-.2,1.6-1.7.9-.2,1.2-2.9.6-.6.5.5,2.5h-1.3s-.3,1.7-.3,1.7l.8,1v1.3c-.1,0,.6.5.6.5l-.2,1.2-.8.4.8.5v3s.4,1,.4,1h-.3c0-.1-.2.6-.2.6l-.9-.2v.7h-.7c0,.1-.9-1.5-.9-1.5l-.9-.3v-2s-.5-.3-.5-.3l-.7.4-.3-2.5-1.4-1.5-1.6.7-1,1.8-.9-.3-1.6.4-1.3-2-.8.7-1.9-1.6-2.9-.8v-.8c0,0-1.3.4-1.3.4l-2.1-.7-.9.4-.9-.7-2.4,1.1.4-.4-.7-.7.7-.3h-.5c0,0,.5-1.4.5-1.4l-.8-1.3h0v-1.1c0,0,2-.4,2-.4l.6-1.4,1.7-.2.6.4.7-.8h.5c0,0-1-2.6-1-2.6l2.8-1.9.3-2.3,1.1.7,2.7-.5v-2.3s-.7-1.1-.7-1.1l-1.4-.8Z"/>
    <path id="TH-26" d="M247.8,211.1l1.2-1.1.2.8.7-.3.2.9,1.8.8,1.9,2.2.3-.2h0l1.4.8.7,1.1v2.3s-2.7.5-2.7.5l-1.1-.7-.3,2.3-2.8,1.9,1,2.7h-.5c0,0-.7.7-.7.7l-.6-.4-1.7.2-.6,1.4-1.9.4v1.1h0l-3.1-.3-4.3.6h0v-8.8s1.1-.6,1.1-.6l.2-1.2h0v-1.2c0,0,1.2.7,1.2.7l2.3-1.9v-2.4s1,1.1,1,1.1h1.3s.8.4.8.4l.4.9.5-.2.3-.6.8-.2v-1.9s.6,0,.6,0v-1.4c-.1,0,.4-.3.4-.3Z"/>
    <path id="TH-27" d="M276.5,222.3l2,.3v-1s.7-.8.7-.8l.9.8.2.9h1.7c0,0,.2.5.2.5l.6-.2.6.5,1.6-.4v-1.1c0,0,.9.7.9.7l1.5-.2h0l1.4.7.3-.3,2.2.2,1.9-1.2.9.8.7-.6,1.3,1.2,2.4-.4.8-1,.3.4.4-.4,1.9.7.2-.8.8.3,1-.4h0l.4,1-1.3,2.2.3,2.2-1.5.4-2.8,2.4-.5,2.6-1.5,2.1.3.6-4.7,2.3-1.3,1.4.8,1.2,1.6.7-1.7.2-.4.8-1.2.5-1.5-.3-1.4.4-2.4-.6-.9.6-.2.7,1,1.6-.6,4.8.3,1.6h0l-.7-.6-.7,1-.7-.4-.2,1.3h-2.7c0,0-.5-1.4-.5-1.4h-1.2c0,.1-.8-1.1-.8-1.1l-.7,2.4-2.7.9.2-1.6-.7-.2-.8-1.5h0l-.5-2.5-1.3-1.2v-1.1c-.1,0-.7,0-.7,0l-.7-1.4-1.1-.6,1.2-.3.5-1.3h0v-.7s.9.2.9.2l.2-.8h.3c0,.1-.4-.9-.4-.9v-3s-.7-.5-.7-.5l.8-.4.2-1.2-.7-.5v-1.3c.1,0-.7-1-.7-1l.3-1.8h1.3s-.5-2.5-.5-2.5l.6-.5,2.9-.6.2-1.2,1.7-.9.2-1.6Z"/>
    <path id="TH-30" d="M252.6,182.2l.9.5.9-1.9,1.8.5.9-.6h2.5c0-.1.8.4.8.4l1.2-1.3,3.7.7,1.2-1.6,2.4,1.4,1.7-2.2,2.2-.4.5.3.8-.6.2-2.5,1.2-2.6,1.7-1v-.7s.6-.5.6-.5v-.7c-.1,0,.5-.7.5-.7l-.2-.5h1.5c0,0,.1-.5.1-.5l.9.4.6-.2.2-1h1.2c0-.1.7-.9.7-.9l.5.2h0l1.2,1.2v1.2c0,0,.5,0,.5,0l1.3,1.2,1.2-.7,2.1-.3,1.2.7,1.6-.2.4-.5,1.3.5,1.1-.5.5.2-.3.7.9,1.3h1c0-.1,1.1.7,1.1.7h0l-.3.8.9,3.2,1,.8v-.3c0,0,1.1.3,1.1.3l1.1-.4,1.1.5-.3.2.7.4v.5c-.1,0,1.1-.3,1.1-.3l1.1,1.8-.7.5-.7-.4-.3.7h-.2v.8l1,.4.2.8-1.3,1.1.5.8-.4.7.2,1.7.5.5-.3.5h-2.4c0,.1-2.6,1.7-2.6,1.7l-1.8,2.2.7,1.3-.9.4v1.2c-.1,0-1.3.3-1.3.3l-.6,1.7h-3.2c0,0-1-.8-1-.8l-.8.3.6.7-.9.9.4,1.3-.7,1.6-1.1.4-1.3-1.1-.4.4v1.4c-.1,0,1.4,1.6,1.4,1.6l-1,.9.6,1.9-.2,1.1.8,1.8-.5,1.8,4.2.6-.3,1.6-1,.7-.2,1.7,1.3,1.8h1.2c0-.1,1.5.8,1.5.8l-4.9,3.3-1.3.5-.8-.4-.8.2-.7,1.4h0l-1.5.2-.9-.7v1.1c0,0-1.7.4-1.7.4l-.6-.5-.6.2-.2-.6h-1.7c0,0-.2-.9-.2-.9l-.9-.8-.6.8v1s-2-.3-2-.3h0l-4.6-2.6.8-.4-1.3-.4,1.6-1.2v-.8c-.1,0-1.3-.2-1.3-.2l-.4.6-.8-1-1.1.4-1.7-1.1v-.5c0,0-.9.6-.9.6l-.8-.4-1.3.4-.3,1.4-4-3.7v-.4s-1-.4-1-.4l-1.9.5-1.5-1.3-1.7.6.4.8-.5,1.1h0l-.3.2-1.9-2.2-1.8-.8-.2-.9-.7.3-.2-.8-1.2,1.1h0l-2-2.2,1.1-1.5-.9-5.5.8-.4.6.9,1.6.2v-.7c0,0,.6.3.6.3l.3-.7.9-.2v-.7c0,0,4-2.7,4-2.7l-1.4-6.1h0l-.6-3.6-.9-1.4-.3-2,1.1.3v-3Z"/>
    <path id="TH-31" d="M303.7,166.3l.3,1,2.1,1.3v1.5s-1,.8-1,.8l1.7,2.1.9.3-.2,1,1.5,1.1-.6,1.1,1.3.6h0l-.7,2.1.9.6.7-.4.8,1.6-.2.3,1.3-.4v1c0,0,.6-.2.6-.2l.6.9.7-.2v.5c-.1,0,1.1-.4,1.1-.4l.2.7,2-1.6,1.1.7.4-.2-.3.5.6.4h.9s.6-1.3.6-1.3l.8.3.5.9h.6c0,0,0,.7,0,.7h-.8c0-.1-.6.3-.6.3v.8c0,0-.7-.2-.7-.2l-.2,1.9-.6.2.3,3.3h.4c0-.1,0,.2,0,.2h0l-.5,1.2.8.7-.9.5-.4.9.7.8-.5.7.3,1-.8.3v.7c0,0-.4.1-.4.1l-1.4,2.2-1.9.8v.8c.1,0-.8.6-.8.6l.3,1-.5,2.2-.9.8v1c.1,0-.7.8-.7.8l.3,1.6-.3,1.4,1.1,2.2-.9,1.4.4.4-.3.4.2,1.7h0l-1.9-.3-.5.7-.4-.4-.6.8-2.2.6-1.1,1.8-2.3.8-.8,1.1h0l-1,.4-.8-.3-.2.8-1.9-.7-.4.4-.3-.4-.8,1-2.4.4-1.3-1.2-.7.6-.9-.8-1.9,1.2-2.2-.2-.3.3-1.4-.7h0l.7-1.4.8-.2.8.4,1.3-.5,4.9-3.3-1.5-.9h-1.2c0,.1-1.3-1.7-1.3-1.7l.2-1.7,1-.7.3-1.6-4.2-.6.5-1.8-.8-1.8.2-1.1-.6-1.9,1-.9-1.5-1.6v-1.4c.1,0,.5-.4.5-.4l1.3,1.1,1.1-.4.7-1.6-.4-1.3.9-.9-.6-.7.8-.3,1,.7h3.2c0,0,.6-1.6.6-1.6l1.2-.3v-1.2c.1,0,1.1-.4,1.1-.4l-.7-1.3,1.8-2.2,2.6-1.6h2.4c0-.1.3-.6.3-.6l-.5-.5-.2-1.7.4-.7-.5-.8,1.3-1.1-.2-.8-1-.4v-.8h.2s.3-.7.3-.7l.7.4.7-.5-1.1-1.8-1.2.3v-.5c.1,0-.6-.4-.6-.4l.3-.2-1.1-.5-1.1.4-1.1-.3v.3c0,0-1.1-.8-1.1-.8l-.9-3.2.3-.8h0l1.2.5,1.7-.6.4-1.5v-2.6c0,0,1.7-.9,1.7-.9Z"/>
    <path id="TH-32" d="M309.8,177.1l3.4.7,1.2.5.6.8,2.4.6,1.9-1h0l1.8-.7,2.7,1,1.1-1.2,1.5-.2,1.9.7,1.9.3.7-.3,1.1.4,2.5-1.1.2.6.6-.7.3.5v-.5c.1,0,.4.9.4.9h1.5c0,.1.2,1,.2,1l.8-.4v.7c0,0,.5,0,.5,0h0l.2.5.4-.5,1.5.5.3-.3,1.1,1.6-2.3.9.2.5h-.6c0,0,.1,1,.1,1l-.6-.3v.9c-.1,0-.8-.4-.8-.4l.8,1h-.4c0,.1,0,.9,0,.9l-.6.2.4.7-.6.5v.7s1.1.5,1.1.5l-.4.6.4.3-.3,1,.9.4-.5.7.5.4-.3.9h-.5c0,.1.1.9.1.9l-1,.6v.9s-1.3,1.5-1.3,1.5l-.8,1.9.5.7,2.6,1,.4,1.3-.2,1.1,1.7,2,.3,2.3-.9,1.9v1.6c0,0,.7,0,.7,0l.2.9-.5,3.6.4.6h0l-.9.3-1.6-.6-1,.2-.2.7-2-.3-1.2-1.1-.7.6h-.8c0-.1,0-.6,0-.6l-.9.3-2.2-.6v-1.9s-.7-.3-.7-.3h-1.1c0,.1-.4.6-.4.6l.4.4-1,.4-.4-.7h-1.7c0-.1-1.9.6-1.9.6l-1.1,1.2-1.1-.9-.9,1.1-4.8.2-1.2.8h0l-.2-1.7.3-.4-.4-.4.9-1.4-1.1-2.2.3-1.4-.3-1.6.8-.8v-1c-.1,0,.8-.8.8-.8l.5-2.2-.3-1,.9-.6v-.8c-.1,0,1.8-.8,1.8-.8l1.4-2.2h.5c0-.1,0-.9,0-.9l.8-.3-.3-1,.5-.7-.7-.8.4-.9.9-.5-.8-.7.5-1.2h0l-.4-.2h0l-.3-3.3.6-.2.2-1.9.6.2v-.8c0,0,.7-.5.7-.5h.8c0,.1,0-.6,0-.6h-.6c0,0-.5-.8-.5-.8l-.8-.3-.6,1.2h-.9s-.6-.4-.6-.4l.3-.5-.4.2-1.1-.7-2,1.6-.2-.7-1.2.4v-.5c.1,0-.6.2-.6.2l-.6-.9-.5.2v-1c0,0-1.3.4-1.3.4l.2-.3-.8-1.6-.7.4-.9-.6.7-2.1Z"/>
    <path id="TH-33" d="M338.7,179.6l.3-1.5,1-1.3,1.1-.5-.2-.5.6-.3.2-.8h.8s-.2-.7-.2-.7h.8c0,.1.4,2,.4,2l1.5,1,1.6,2.1.5,1.4,2,1.1h1.7c0,0,.9,1.6.9,1.6h.7c0,.1,3.2.9,3.2.9h0l.8.5h1.7s.9-.7.9-.7v.5s1.3.2,1.3.2v.5s.7.3.7.3l-.4-.5.5-.4.5,1.1h.6c0,0-.5.3-.5.3v.6s.7,0,.7,0v.5c0,0,.5-.2.5-.2l-.7,1.1,1.3-.2-1.9,1.4-.3.8h.6l-.4.5h.5c0,0-.2,1.4-.2,1.4l-.5.4.5,1v1.8s4,1.9,4,1.9l.8,2-.7.3-.2.7.7,1.9,1.8,1.8.5,1.6-1.3-.2-.7,1.8-.3,1.9,1.5,1.8v.8c-.1,0-1.1,1.1-1.1,1.1l.6.5,1-.4,1,1.2h0l-1.2-.6-1,.5-1.2-1.1-2.7,1.1-.5-1-.8,1.3h-.8c0-.1-.5-.9-.5-.9l-2.1,1.6v.6c0,0-1.5.1-1.5.1l-1.2-.7-1.2,1v-.5c0,0-.9,0-.9,0l-.7-.5h-2.8c0,0-1.8-1.2-1.8-1.2l-1.5,1.3-1.6-.5-.5.3v.5c.1,0-.8.2-.8.2l-.2-.6-1-.2-.6,1h-1.1c0,.1-.4-.5-.4-.5l.5-3.6-.2-.9h-.6c0,0,0-1.7,0-1.7l.9-1.9-.3-2.3-1.7-2,.2-1.1-.4-1.3-2.6-1-.5-.7.8-1.9,1.4-1.5v-.9s1-.6,1-.6v-.8c-.1,0,.4-.1.4-.1l.3-.9-.5-.4.5-.7-.9-.4.3-1-.4-.3.4-.6-1.1-.5v-.7s.6-.5.6-.5l-.4-.7.6-.2v-.7c0,0,.3-.1.3-.1l-.8-1,.7.4v-.9c.1,0,.7.3.7.3v-.9c-.1,0,.5,0,.5,0l-.2-.5,2.3-.9-1.1-1.6-.3.3-1.5-.5-.4.5-.2-.5Z"/>
    <path id="TH-34" d="M374.5,156.2l4.7,1.5,6.6,1.2.4.9-1.5.2-1.2,2.1,1.7,4.1.9.5.5,1.2.9.3,1.3-.7,1.9.6,1.5.9,1,1.8-.2,3.5-1.1,2,.3,1.2-.4,1.7-.9.8-2.4.5-.9,1.3,1.2,1.1,2.3-.3.3.4.3,1.6-1.7.6-2.1,2.5-.4,2.2,1.5,1v.8c.1,0,1.4,0,1.4,0l-.2.8.8.6v.8c0,0,1.6.8,1.6.8l-1.2,1-1-.2-.2.9.9.8v.7c.1,0-1.3.4-1.3.4l.6,1.1-1.1.4-.3.8v1.6c0,0,.9.8.9.8h-.6c0,.1-.2,1.2-.2,1.2l.3,2.1.6.4-.4.8.2,1.5-3.4,4.7-.6-.5-.8,1.1-1.5.4-.7-.4-.5,1.1-.9.4-.8-.3-.9,1-1.7-.4-.3.6.3.5-.8,1-.2,1.4-2.1,1.1-1.1-.2-.9-.9-1-2.7.3-1.6-1-.8-.6.4-1.5-.6h0l-1-1.2-1,.4-.6-.5,1-1.1v-.8c.1,0-1.4-1.8-1.4-1.8l.3-1.9.7-1.8,1.3.2-.5-1.6-1.8-1.8-.7-1.9.2-.7.7-.3-.8-2-4-1.9v-1.8s-.5-1-.5-1l.5-.4.2-1.3h-.5c0,0,.4-.6.4-.6h-.6l.3-.8,1.9-1.4-1.3.2.7-1.1-.5.2v-.5c0,0-.7,0-.7,0v-.6s.5-.2.5-.2h-.6c0,0-.5-1.2-.5-1.2l-.5.4.4.5-.6-.3v-.5s-1.3-.2-1.3-.2v-.5s-1,.7-1,.7h-1.7s-.8-.5-.8-.5h0l-3.2-.8h0l.5-2.5-.4-.8-.8-.2.3-.5-.6-1.7.9-3,2.7.3,1-.9h0l1.2.7,1.3-.8-.3-1.2,2-1.5-1.2-.9.7-.5,3.5,1.4.5-.4v.5c.1,0,1.5.7,1.5.7l.3.9.5-.4.4.7,1.3.2.5.6-.4.5.5.4.5-.9-.3-.3,1.5-1.6v-.8c0,0-1.2-.3-1.2-.3l.4-3.8,1.7-.9v-2.4c.1,0,1-1.7,1-1.7l-.6-.2,1.3-1.6v-2.2c-.1,0,1-2.2,1-2.2l.7-.2h.3Z"/>
    <path id="TH-35" d="M350.7,148.2l1.5-.8,3.5.3.3.9,1.3.2.9,2.2.7.2.5.8h1s.8-.9.8-.9l1.2,1.2,2.1.4h0l.8,1.3h1.1s-.3,2-.3,2l-6.4-.9-2.1.9-1.5,2.5.5,1-.9.5v1.1s-1.7,1.7-1.7,1.7l-.2,1.1.4.8-.8,1-.5,4h.7c0,0,0,2.7,0,2.7l.8-.3-.2,1.2,1.5.2.2.8h0l-1,.9-2.7-.3-.9,3,.6,1.7-.3.5.8.2.4.8-.5,2.5h-.7c0-.1-.9-1.9-.9-1.9h-1.7c0,0-2-1-2-1l-.5-1.4-1.6-2.1-1.5-1-.4-1.9h0v-.5s1.3-.8,1.3-.8l1.7-.5-.9.2.2-.8h-.7c0-.1,0-1,0-1l.5-.2-1.2-.9-.2-.8-.6.6-.3-.2.8-.9-.5-1.4.2-1.1-1.9-1.3v.7c0,0-1.3.8-1.3.8h-1.2s.4-1.6.4-1.6l.5-.2-.3-.5h.6s-.7-.7-.7-.7v-.8s.7-1,.7-1l-.3-.7-.4.4v-.3c-.1,0,.4-.9.4-.9h2.5s.3-1.9.3-1.9l-.6-1.2.5-1.1h1c0-.1,1.1-1.4,1.1-1.4l1.8-.6.8-1.8.9-.2,1.8-1.6.6-1.8Z"/>
    <path id="TH-36" d="M252.1,173.7l1.2-5.3-2.3-.6-.6-1.2.5-.5v-2.7s1.5-1.3,1.5-1.3l-.5-.2.4-1.5-.5.2-.5-.8-.6-1.9.6-3.8.7-1.1h.6c0-.1-.2-1.9-.2-1.9l-.8-.4.8-.6.3-2.9.9-.8-.3-.7,2.3-2.8-.3-.8.3-.9,1.5-.7-.8-.8v-1.3c.1,0,1-.3,1-.3l-.5-2,2,1,.2-.8-.8-2,1,.2,1.6,1.5,1.6-.3,1.4,1.3.7-.6h0l.2.6.8.2v.6c-.1,0,1.7-1,1.7-1l2,.5.5.6,1.4-.2.9.8.4,1.5,1.1.3.3,1.3,1.3.6-.2.3,3-.3.5.4.3-.5h.7c0,0,2.1,1.7,2.1,1.7l1.1.3,2.1-.3.3.6.9-.4v-.7s.5,1.5.5,1.5l1.5,1.1-1.3,3.2-.2,1.7-4.4,5.9.7,1.3h1.2s.5,1.1.5,1.1l1,.4-.7,1,.3.6-.6.5v1c0,0-1.2,1.2-1.2,1.2l.2,2.1h0l-.5-.2-.7.8h-1.2c0,.1-.2,1.2-.2,1.2l-.6.2-.9-.4v.6c-.1,0-1.6,0-1.6,0l.2.5-.6.7v.7c.1,0-.5.5-.5.5v.7s-1.8,1-1.8,1l-1.2,2.6-.2,2.5-.8.6-.5-.3-2.2.4-1.7,2.2-2.4-1.4-1.2,1.6-3.7-.7-1.2,1.3-.8-.6h-2.5c0,.1-.9.7-.9.7l-1.8-.5-.9,1.9-.9-.5h0l-.3-1.5.3-3.7-.5-3.2Z"/>
    <path id="TH-37" d="M364.5,152.7l1.5.4.5-.6,1.7-.2,1.1-1.5h.6c0,0,.9-1,.9-1l.7.2h0l1.3,1.3v1.7c-.1,0,.8,2.8.8,2.8l.6.4h0l-.7.2-1.2,2.2v2.2c.1,0-1.1,1.6-1.1,1.6l.6.2-.9,1.7v2.4c-.1,0-1.8.9-1.8.9l-.4,3.8,1.1.3v.8c0,0-1.4,1.6-1.4,1.6l.3.3-.5.9-.5-.4.4-.5-.5-.6-1.3-.2-.4-.7-.5.4-.3-.9-1.4-.7v-.5c-.1,0-.6.4-.6.4l-3.5-1.4-.7.5,1.2.9-2,1.5.3,1.2-1.3.8-1.2-.7h0l-.2-.8-1.5-.2.2-1.2-.8.3v-2.8c0,0-.7,0-.7,0l.5-4,.8-1-.4-.8.2-1.1,1.6-1.7v-1.1s.9-.5.9-.5l-.5-1,1.5-2.5,2.1-.9,6.4.9.3-2h-1.1s-.8-1.4-.8-1.4Z"/>
    <path id="TH-38" d="M319.3,91.2l-.2-.8-3.2-2.4v-2l1.5-1v-1.3c.1,0-2.4-1-2.4-1v-1.2s.8-.6.8-.6v-.6h0l-.2-1.1-1.3-.5v-.9s2-2.1,2-2.1l3.2-.6,1.7.8h2.3s2.8.8,2.8.8l2.8,2.1,4.1.2,1.3,1.9,2.2-1.6,1.5-.3,3,4.1,1.6,3.7,2.7,3.2h-.5c0,0,0,.7,0,.7l-.7-.7-1.3.7.9,1.8-2.2,2.5-.8-.4-.2-.6-1.5.6-.5,1.1.7.4.5,1.4h-.5c0,0-.7,1.4-.7,1.4l-.2-.5-.5.3-.5-.3-.8-1.3.2-1.3-.7.2.2-1.1-1.3.6v-.5c0,0-.3-.1-.3-.1l-.7.5-1.3-.2.5.7-.5.5-1-1.4.7-.3-.4-.6.2-.8-.8.3.3-1.2-.6,1.5-1-1.1-1.1-.5-.7.2v-.8s-.3.3-.3.3l-.5-.5-.4.3v-1.2c-.1,0,.5-.4.5-.4h-1s-.5-1.3-.5-1.3l-.5.4-1.2-.9v-.9c0,0-.2.7-.2.7l-.7-.2-.7.5v2.5c.1,0-.8-.5-.8-.5l-.2.6-.5-.2-.3.4.4.2-.2.4-1.3-.9-.3.4Z"/>
    <path id="TH-39" d="M275.8,103.2l.6-.4.7.5,1-1.1,3.6.2,1.8-.6.5,4.4,1.2,1.7,2.3,5.6v2s2.3-.2,2.3-.2l2.9.7-.7,1.2-3.3,1,1.6,3.5,1.7,1.9,3.2,1.7h0l.4,1.1-1.9,4-.4,2.6-3.8-1.2-2.1.5-2.7-1.4-.2.5-.7-1,.2-.3h-.5s.3-.4.3-.4l-.9-.8h-1.3c0,0-.1.5-.1.5l-1.1.7h-.9s-.3-.5-.3-.5l-.3.2-2.2-1.1-.2.5-1-.3h0l-.8-.6-.5-1.5,1.4-.4.8-1.3,1.3-.3.5-.6-1.6-1.1-.5-1.6-2.3-.7v-1.2s.8.4.8.4l1.1-1.2-2.7-.5.3-.4,2.1.3-.3-.9.3-.7h-.6c0,.1-1.8-1.5-1.8-1.5l-.2-.7,1-.7v-1.1c0,0-1.3-1.4-1.3-1.4l.3-1.6,2,.3,1.3-.5,1.5-1.5v-1.6s-1.7-2.7-1.7-2.7Z"/>
    <path id="TH-40" d="M295.1,125.3l.3-1.8.9-1.5.6,1.4,2.1,1.1,1.2,1.5-.7.6.5.6-.4.8.5,1.8,1.2-.7,1.9,1.7,1.7-.4,4.3-2.3h0l.8.7-.6,2.3.6.3.5-.4v-1.3c0,0,1.3.2,1.3.2l.3,1.5v1.2c-.1,0-1.3,1.1-1.3,1.1l.4.7-.4,1.1.4.9-.2,1h0v1.1s-1.1.6-1.1.6v.9c0,0-1.3,1.9-1.3,1.9l-1.3.7-.3-.3-.5.9-2.2.8.7,1h-.6s-.2.5-.2.5h0l-.2.6h0l-1.6,1.4v1.2c0,0-1.6,1.5-1.6,1.5v2.1c-.1,0,.4,1.7.4,1.7l-.4.6.7.7-.6,1.8.3,1,1.2.5-.4.4.7,1.4-.5,1.3,1.2,1.8-.3,1.9.4,1h0l-1.8.9v2.6c0,0-.4,1.5-.4,1.5l-1.7.6-1.2-.5h0l-1.1-.8h-1c0,.1-.9-1.1-.9-1.1l.3-.7-.5-.2-1.1.5-1.3-.5-.4.5-1.6.2-1.2-.7-2.1.3-1.2.7-1.3-1.2h-.6s0-1.2,0-1.2l-1.2-1.2h0l-.2-2.1,1.1-1.2v-1c0,0,.7-.5.7-.5l-.3-.6.7-1-1-.4-.5-1.1h-1.2s-.7-1.3-.7-1.3l4.4-5.9.2-1.7,1.3-3.2-1.5-1.1-.4-1.5v.7s-.9.4-.9.4l-.3-.6-2.1.3-1.1-.3-2.1-1.7h-.7c0,0-.3.4-.3.4l-.5-.4-3,.3.2-.3-1.3-.6-.3-1.3-1.1-.3-.4-1.5-.9-.8-1.4.2-.5-.6-2-.5-1.8,1v-.6c.1,0-.7-.2-.7-.2l-.2-.6h0l1.3-1.9v-1.4h0l4-1.8,1.4-.9-.2-.4,1.7.4.5-1,1,.4.9-1.1h0l1,.3.2-.5,2.2,1.1.3-.2.3.5h.9s1.1-.7,1.1-.7v-.6c.1,0,1.5,0,1.5,0l.9.8-.3.4h.5s-.2.3-.2.3l.7,1,.2-.5,2.7,1.4,2.1-.5,3.8,1.2.4-2.6,1.9-4-.4-1.1Z"/>
    <path id="TH-41" d="M274.8,87.6l1.1,1,.6-.2v1.3s1.2-.3,1.2-.3v1c-.1,0,.4.6.4.6l.6-1h1c0-.1,0,.3,0,.3l1.9.8.8-.2.7,1.4,2.6,1.7.4,1.9,1.4.8-.4.9.4.9.9.5,2-.3,2.8,2.6-.6.5v1.7s1.7.3,1.7.3v.8c0,0,1.6-1,1.6-1l1.2.6.3-.6h.8s-.2-.7-.2-.7l.5-.2.3-1.2,1.5-.4.7-1.2v-1.6c.1,0-.8-1.3-.8-1.3h.4c0,0,.2-.8.2-.8l.8-.4v-1.4s.5-.4.5-.4l1.5.2,1.4,2.4,2.2-2.5.7.6.6-.2.7.9.4-.2,1.1,2h.5c0-.1.7-2.2.7-2.2l1.7-.8,2.1,2.1.3-.5-.3-.9,1.1-.6h1.2c0,0,1-.7,1-.7h0l.6.8-.8.9.9.5h-.7s0,.4,0,.4v-.4c-.1,0-.6,0-.6,0l.3.4-.8,1.3,1.4,2.1-.5,3.9.4.7h-1.1c0,.1,0,.6,0,.6l-.8-.3-.9,1.2-.2,1-1,.9v1c.1,0-.4.9-.4.9l.9,1.7-1.7,2.7.8,1.4,2.5.6.3.7,1.8.8h1.1l.6-.6,3.3,2.5,1-.4,1.2,1.9,1,.2-.4,1,.2,2h0l-.5-.2.2-.8-1.1-1.6-1.4-.3-1,.5-1.3,1.5.4,1.6-.8,1v2.3h-.1l-.4.6h0l-1.9,2.9-.4-.2.4-.5-.8-1.1.4-.4-.9-1.3-1.4-.7h-1.8c0,0-1.2-1.3-1.2-1.3l-1-.2-1.2.7-2.2-.5-.6,1.7h0l-4.3,2.3-1.7.4-1.9-1.7-1.2.7-.5-1.8.4-.8-.5-.6.7-.6-1.2-1.5-2.1-1.1-.6-1.4-.9,1.5-.3,1.8h0l-3.2-1.7-1.7-1.9-1.6-3.5,3.3-1,.7-1.2-2.9-.7-2.3.2v-2s-2.4-5.6-2.4-5.6l-1.2-1.7-.5-4.4-1.8.6-3.6-.2-1,1.1-.7-.5-.6.4h0l-.9-.8-.7.3-.2-.3.3-.2-.7-2.9.4-1.3h.5c0-.1-.3-.7-.3-.7l.5-1.4-1.1-4.7.8-.2.4-3.3Z"/>
    <path id="TH-42" d="M276.2,83.1h.3c0,.1-.1,1.9-.1,1.9l-1.1.7-.4,2h0l-.4,3.3-.8.2,1.1,4.7-.5,1.4.3.6h-.5c0,.1-.4,1.4-.4,1.4l.7,2.9-.3.2.2.3.7-.3.9.8h0l1.7,2.7v1.6s-1.5,1.5-1.5,1.5l-1.3.5-2-.3-.3,1.6,1.2,1.4v1.1c0,0-.9.7-.9.7l.2.7,1.8,1.7h.6c0-.1-.3.6-.3.6l.3.9-2.1-.3-.3.4,2.7.5-1.1,1.2-.8-.4v1.2s2.3.7,2.3.7l.5,1.6,1.6,1.1-.5.6-1.3.3-.8,1.3-1.4.4.5,1.5.8.6h0l-.9,1.1-1-.4-.5,1-1.7-.4.2.4-1.4.9-4,1.8h0l-2,.4-1.3-1.5,1.2-.3-1.4-1.9.4-2.6-.6-.6v-.8c.1,0-.7-2.2-.7-2.2l-.7-.2-.7,1.5-1.4.5-1-1.2v-1.1c-.1,0-1.7-.6-1.7-.6l-.6-.8-.9.7-1.1-.7-.6.5-1.5-.2-.4.5-.6-.7h-1.7c0,.1-1.2-1.3-1.2-1.3l-.7.3v1.1s-1,1.7-1,1.7l-1.8.8-.3,4-.4.3-.8-.4h0v-.7s-1.2-.2-1.2-.2l-.2-.5.8-.5-.3-1.1.6-1.3-.3-1.7.9-2.1v-1.3s1-2,1-2l-.9-1.5h-1.1c0-.1-1.5-1.9-1.5-1.9l-3-.3v-3.8s-.7-.5-.7-.5l-1.2.5-.7-.6.3-1.2,1-.9-.4-.5.7-1.4.8-.2.9.8.9-.2h0l2.1.6,2.8,2.6,1.8.4.2-.8h.5c0-.1,0-1.1,0-1.1l1.6-.4,1.1-2.1,1.5-1.3v-.6c0,0,1.5-.4,1.5-.4l1.1-1.1.6.5,1-1.2-.9-.6h1.4c0,0,.8-.4.8-.4h.5c0,0-.2.7-.2.7h.4s.7-1.4.7-1.4l1.1-.7h.9c0,.1-.9-.8-.9-.8l.8-1.9.5.7,1-1.5,2.4-.6.5.3.7-.6v-1c-.1,0,1.5-4.1,1.5-4.1l3.2,1.3h1s1.7-2.4,1.7-2.4l2.3-1.8.6-1.7,1.7-.6Z"/>
    <path id="TH-43" d="M319.3,91.2h-.4s0,.8,0,.8l.8.9h-.6c0,.1.2,1,.2,1h0l-1,.8h-1.2c0,0-1.1.5-1.1.5l.3.9-.3.5-2.1-2.1-1.7.8-.7,2.1h-.5c0,.1-1.1-1.8-1.1-1.8l-.4.2-.7-.9-.6.2-.7-.6-2.2,2.5-1.4-2.4-1.5-.2-.5.4v1.4s-.9.4-.9.4l-.2.9h-.4c0,0,.9,1.2.9,1.2v1.6c-.1,0-.8,1.2-.8,1.2l-1.5.4-.3,1.2-.5.2.2.8h-.8s-.3.5-.3.5l-1.2-.6-1.5,1v-.8c0,0-1.8-.3-1.8-.3v-1.7s.6-.5.6-.5l-2.8-2.6-2,.3-.9-.5-.4-.9.4-.9-1.4-.8-.4-1.9-2.6-1.7-.7-1.4-.8.2-1.9-.8v-.5s-1.1.1-1.1.1l-.6,1-.5-.6v-1c.1,0-1.1.3-1.1.3v-1.3s-.6.2-.6.2l-1.1-1h0l.4-2,1.1-.7v-1.8h.1l1.9.4.7,1.9,3.4,3.3,2,.4,3.7,2.5,4.7.5.4,1.6-.9,2.2,3,1.5.6-.5-.6-1,.3-.8,2.3-.8,1-1.4,1.1-.3,1.3-1,3.4-1.1,1.8,1.1.7-.2,1.4-1.9v-3.1c0,0,2.4-1.8,2.4-1.8v-1.9s.4-.7.4-.7l4.3-1.7h0v.6s-.8.6-.8.6v1.2s2.6,1,2.6,1v1.3c-.1,0-1.7,1-1.7,1v2l3.2,2.4.2.8Z"/>
    <path id="TH-44" d="M311.1,137.3h1.2c0,0,.2.5.2.5l-.9.8.6,1.9-.9,2,.8,1.5-.7,2,.4,1,2.9-.5.9-.6.3.9,1.3.2.3.6h0v1.2c.1,0,.7.3.7.3h0l1.4.5-.2.9,1.1,1.3.3-.3-.2.7.4.8.9-.9h.8s0,.3,0,.3h0l-1.6,2.8v1.2c0,0,.5,1.2.5,1.2l-.2,2.5.6,1.5-.8.6-.4,1.4-.8,5.1-1,.4-1.3-.6-1.5.8-1.1,1.3h1.1c0,.1-1,2.1-1,2.1l.7.3.3,1,1.5.6.4.6,1.7-.4.3,1.1-.8,2.5h0l-1.9,1-2.4-.6-.6-.8-1.2-.5-3.4-.7h0l-1.3-.6.6-1.1-1.5-1.1.2-1-.9-.3-1.7-2.1,1-.8v-1.5s-2.1-1.3-2.1-1.3l-.3-1h0l-.4-1,.3-1.9-1.2-1.8.5-1.3-.7-1.4.4-.4-1.2-.5-.3-1,.6-1.8-.7-.7.4-.6-.5-1.7v-2.1c.1,0,1.7-1.5,1.7-1.5v-1.2c0,0,1.7-1.4,1.7-1.4h0l.2-.6h0l.2-.5h.6s-.7-.9-.7-.9l2.2-.8.5-.9.3.3,1.3-.7,1.2-1.9v-.9c0,0,1.1-.6,1.1-.6v-1.1Z"/>
    <path id="TH-45" d="M347,144.7l1.5-.7.2-.8.4.3.9,4.2-.3.4.9.2h0l-.6,1.8-1.8,1.6-.9.2-.8,1.8-1.8.6-1.1,1.3h-1c0,.1-.5,1.2-.5,1.2l.6,1.2-.3,1.9h-2.5s-.6.9-.6.9v.3c.1,0,.5-.4.5-.4l.3.7-.7,1v.8s.7.6.7.6h-.6s.3.6.3.6l-.5.2-.4,1.6h1.2s1.4-.8,1.4-.8v-.7c0,0,1.9,1.3,1.9,1.3l-.2,1.1.5,1.4-.8.9.3.2.6-.6.2.8,1.2.9-.5.2v.9c0,0,.6.1.6.1l-.2.8.9-.2-1.7.5-1.3.8v.5h0-.8c0-.1.2.6.2.6h-.8s-.2.8-.2.8l-.6.3.2.5-1.1.5-1,1.3-.3,1.5h-.5s0-.7,0-.7l-.8.4-.2-.9h-1.5c0-.1-.3-1-.3-1v.5c-.1,0-.4-.5-.4-.5l-.6.7-.2-.6-2.5,1.1-1.1-.4-.7.3-1.9-.3-1.9-.7-1.5.2-1.1,1.2-2.7-1-1.8.7h0l.8-2.5-.3-1.1-1.7.4-.4-.6-1.5-.6-.3-1-.7-.3,1-2h-1.1c0-.1,1.1-1.4,1.1-1.4l1.5-.8,1.3.6,1-.4.8-5.1.4-1.4.8-.6-.6-1.5.2-2.5-.6-1.2v-1.2c0,0,1.7-2.8,1.7-2.8h.6c0,.1.6-.8.6-.8v.4c-.1,0,.7-.2.7-.2l-.3.5h1.5s0,.4,0,.4l.6-.4-.6-.4.4-.2.8,1.1.5-.6.3.4.5-.3-.4-.7.7.4.2-.5h1.4c0,.1.8-2.6.8-2.6l-1.9-2.6,3.9-3.1h1.6c0,0,2.1,1.2,2.1,1.2l3.4-.3.5,1.9.9-.8,2.1-.5,1.1-.7.6.5h1.6Z"/>
    <path id="TH-46" d="M309.3,128l.6-1.7,2.2.5,1.2-.7,1,.2,1.2,1.2h1.8c0,0,1.4.8,1.4.8l.9,1.3-.4.4.8,1.1-.4.5.4.2,1.9-2.9h0l.4-.6h0v-2.3c.1,0,.9-1,.9-1l-.4-1.6,1.3-1.5,1-.5,1.4.3,1.1,1.6-.2.8.5.2h0l1-.5,1,.6v1.2s.4-.3.4-.3l.2.6,1.3.5.2.6-.6.6.7,1.3,1.5.7.2.9,3.1,2.3.5-.2.2-1.5.3.4.4-.9,1.6-.7,1.4,1.2h0l.7.4.9,1.8h.6s-.1.8-.1.8l.7,1.2h.5c0,.1-.2.8-.2.8l.8.3-.4,2,1,.9.6,1.1v.8c-.1,0,.5.4.5.4l-.4,1.5.3,1.5h-1.6s-.6-.6-.6-.6l-1.1.7-2.1.5-.9.8-.5-1.9-3.4.3-2.1-1.2h-1.6c0,0-3.9,3.2-3.9,3.2l1.9,2.6-.8,2.7h-1.4c0-.1-.2.4-.2.4l-.7-.4.4.7-.5.3-.3-.4-.5.6-.8-1.1-.4.2.6.4-.6.4v-.3c0,0-1.6,0-1.6,0l.3-.5-.8.2v-.4c.1,0-.5.9-.5.9h-.6c0-.1,0-.4,0-.4h-.8s-.9.9-.9.9l-.4-.8.2-.7-.3.3-1.1-1.3.2-.9-1.4-.5h0l-.5-.3v-1.3h-.1l-.3-.6-1.3-.2-.3-.9-.9.6-2.9.5-.4-1,.7-2-.8-1.5.9-2-.6-1.9.9-.8-.2-.4h-1.2c0,0,.2-1.1.2-1.1l-.4-.9.4-1.1-.4-.7,1.2-1.1v-1.2c.1,0-.2-1.5-.2-1.5l-1.2-.2v1.3c0,0-.6.4-.6.4l-.6-.3.6-2.3-.8-.7Z"/>
    <path id="TH-47" d="M319.3,91.2l.3-.4,1.3.9.2-.4-.4-.2.3-.4.5.2.2-.6.9.5v-2.5c-.1,0,.6-.5.6-.5l.7.2.2-.7v.9c0,0,1.3.9,1.3.9l.5-.4.5,1.3h1s-.7.4-.7.4v1.2c.1,0,.5-.3.5-.3l.5.5.4-.3v.8s.7-.2.7-.2l1.1.5,1,1.1.6-1.5-.3,1.2.8-.3-.2.8.4.6-.7.3,1,1.4.5-.5-.5-.7,1.3.2.7-.5h.4c0,.1,0,.7,0,.7l1.3-.6-.2,1.1.7-.2-.2,1.3.8,1.3.5.3.5-.3.2.5.7-1.3h.5c0,0,.2,1.6.2,1.6l.5-.3.6.4-.2.7.5-.3-.2.8.6.7-.3.9h.4c0-.1-.5,1.2-.5,1.2l-1.3.2.8,1.9-.6.8v1.7c0,0-.8.9-.8.9l1.6,3.3.5.5.2-.6.5.6v-.9c-.1,0,.4,0,.4,0v.4c0,0,.6-.3.6-.3l.2.6.7-.5-.3-.5h1.1c0-.1-.1-.7-.1-.7l1.8.5,1.9-.6,4.3.3-.3,1.5.5,1.5-.7,1.2,1.1,2-1.4,2.1v1.1c0,0,.3.4.3.4l-1.2,1.1-.4,1.2,1.4,1.2v.5s-1.3.5-1.3.5l-.2.7-1.1.3-.5,1.7-1.6.7h0l-1.6,1.1-2.7-.5-.5,1.6-1.3.6h0l-1.4-1.2-1.6.7-.4.9-.3-.4-.2,1.5-.5.2-3.1-2.3-.2-.9-1.5-.7-.7-1.3.6-.6-.2-.6-1.3-.5-.2-.6-.4.3v-1.2s-1-.6-1-.6l-1,.5h0l-.2-2,.4-1-1-.2-1.2-1.9-1,.4-3.3-2.5-.6.6h-1.1l-1.8-.8-.3-.7-2.5-.6-.8-1.4,1.7-2.7-.9-1.7.5-.9v-1c-.1,0,.9-.9.9-.9l.2-1,.9-1.2.8.3v-.5c0,0,1.2-.1,1.2-.1l-.4-.7.5-3.9-1.4-2.1.8-1.3-.3-.4h.5c0,0,.1.3.1.3v-.4c0,0,.7,0,.7,0l-.9-.5.8-.9-.6-.8h0l-.2-.9h.6c0-.1-.8-1-.8-1v-.8c0,0,.4,0,.4,0Z"/>
    <path id="TH-48" d="M345.4,89.9l.9,1,1.9,4.6,2.7,1.5,3.2,5.3,8,4.6,3.2,4.4.4,5.9-.8,3.6-1.7,4v3.3c.1,0,.9,2,.9,2l-.8,1.5h0l-1-.8-1.1,1.4-1-1.3-.3-1.3-2.6-.2-2,.6-.7-.5h-.9s-.9-.9-.9-.9l-.6.5-1.4-.7h-1s-1.4,1.5-1.4,1.5l-1-1.7h0l1.6-.7.5-1.7,1.1-.3.2-.7,1.3-.5v-.5s-1.5-1.2-1.5-1.2l.4-1.2,1.2-1.1-.4-.4v-1.1c0,0,1.5-2.1,1.5-2.1l-1.1-2,.7-1.2-.5-1.5.3-1.5-4.3-.3-1.9.6-1.8-.5v.5c.1,0-.9.1-.9.1l.3.5-.7.5-.2-.6-.5.3v-.4c0,0-.6,0-.6,0v.9c.1,0-.4-.6-.4-.6l-.2.6-.5-.5-1.6-3.3.8-.9v-1.7c0,0,.7-.8.7-.8l-.8-1.9,1.3-.2.5-1.3h-.4c0,.1.3-.8.3-.8l-.6-.7.2-.8-.5.3.2-.7-.6-.4-.5.3-.2-1.7h0l-.5-1.4-.7-.4.5-1.1,1.5-.6.2.6.8.4,2.2-2.5-.9-1.8,1.3-.7.7.7v-.6c0,0,.6,0,.6,0h0Z"/>
    <path id="TH-49" d="M347.5,128.3l1,1.7,1.4-1.6h1s1.4.8,1.4.8l.6-.5.9.9h.9s.7.5.7.5l2-.6,2.6.2.3,1.3,1,1.3,1.1-1.4,1,.8h0l1.1,3.6-.7,2.3-.2,3.1,1.1,1.5,2.6,1.6,1.5,3.6,1.3.6,1.5,1.7h0l-.7-.2-.9,1h-.6c0,0-1.1,1.5-1.1,1.5l-1.7.2-.5.6-1.5-.4h0l-2.1-.4-1.2-1.2-.8,1h-1s-.5-.8-.5-.8l-.7-.2-.9-2.2-1.3-.2-.3-.9-3.5-.3-1.5.8h0l-.9-.2.3-.4-.9-4.2-.4-.3-.2.8-1.5.7h0l-.3-1.5.4-1.5-.6-.4v-.8c.1,0-.5-1.1-.5-1.1l-1-.9.4-2-.8-.3.2-.7h-.5c0-.1-.7-1.3-.7-1.3v-.8c.1,0-.4,0-.4,0l-.9-1.8-.7-.4h0l1.3-.6.5-1.6,2.7.5,1.6-1.1Z"/>
    <path id="TH-50" d="M190.7,15.9l1.7.8v.5c.1,0-2.4,1-2.4,1v.5s.4.4.4.4l-1.1.7.2.7-1.9,1.8v1.6s-1.2.9-1.2.9l1.2,2.7h-.9s-1,1.3-1,1.3v1.7c0,0-.6.6-.6.6h-1c0,.1-1.8,2.2-1.8,2.2l.3,1.3.6.3.5,1.4.9.8-1,1.5.7,1.4-.3.9.7,2.4-.5.4.8,2.8-1.1,1.5v1.7c-.1,0,1.1,3.1,1.1,3.1l1.3.8.6,2.2h0l-.9.6.4,4-1.2,1.1.7,2.9-1.4,2.4.7,1-.7.5v.8s1,.5,1,.5l-1.4,2.5h0l-3.2-2.1.5-.9v-1.1s-1.5-1-1.5-1v-1s-1.1-.1-1.1-.1l-1.4,1.1-3.4.2-.2,1-.9.3-.4.7-1,2.5-2.6,1.5-.3-.3-1.1,1.5-1.6,1-1.9-.2-.5.8.5.2-.9,1.5.8,1.2-1,.3-.3.9,3.7,1.8.2,2.4.7.8-.2,2.3.5.3-1.2,2.6,1-.2.8.7,1.2,4.8h-.6c0,0,0,1.3,0,1.3l-1.1.6h-.7l-.5-1.2-.7,1.1-2.6.4.2.5h0l-1.8,1.4-.3-1.2-1-1-.8-.3-.4.5-1.3-1-.8.4v.6s.5.3.5.3l-.2,1,.7,1.8.2,3,1,.2.8,1.2-1.4.7-.8,1.7.2,1.8,1.1.9-.7,2.4.8.4v2c-.1,0,.5-.1.5-.1v.4c-.1,0-1.5.4-1.5.4h-1.2s-.1-.9-.1-.9h-.2s-1-.4-1-.4l-3.2.9-1-.5-.4-.6.5-1-1.4-2,1-.3.2-1.9-1.1-3.6h-1c0-.1-1.9,1.2-1.9,1.2h-2.4s-1.5-3.4-1.5-3.4h0l1.8-1.6.3-1.7-.6-1,.4-.6-.5-.6-1.5-.4-.7-1.6-1.9-1.4v-1l2.6-1.3,1.8.9.9-1.3,2.5-.5-.4-1.3,1.3-.6.5-1.1-.7-.4-.6.3-.6-.8-.8.3-.5-.9-.8-.2-.3-1.5.6-.9v-1c-.1,0-.9-.3-.9-.3l-.4-1.4.3-.6,1.9-.3-1-.3v-1.4s-1.6-2.3-1.6-2.3l-1.7-.8,1.1-1,.5-1.5,1.6-.8v-.7c.1,0,1.3.3,1.3.3l.9-1.1-.9-1.3-3.5-1.4-.3-3.1.8-1.2-1.1-.3-.3-1.3.3-1.4,1.2-1.6,1.1-.4.5-1.1v-1.7c0,0,2.6-3.8,2.6-3.8l-.3-1.1.4-.7,3,.3.4,2,2.2,2.3.6-.7,3.5.7.7-.7,2.1-.6.6-1-.6-2.2-2.1-1.9,1-.7-.3-1.1.5-.6-.3-2.6-.7-1.2.7-.5-.3-1.4.3-1.6-.9-.7v-1.3c0,0-.9-.4-.9-.4v-1.8c-.1,0-2.4-1.8-2.4-1.8v-1h0l1.4-.9,1.8,1.6.7-1.4h1.2s0-.5,0-.5l2.8-1.3,2.1.4,2.1-2.1,2.3,1.7.3.8.4-1.1,1.7,1.4.4-1.7.8-.4.5-1.4-.3-3.3h.6c0-.1,0-.8,0-.8l-.5-.8.8-1.1-.3-1.2,1.1-2.3,1.8-.2v-.5c0,0,1-.4,1-.4h1.7c0,0,3.7,2.2,3.7,2.2l1.9-.7h1.9s2-.9,2-.9l.5-1.1Z"/>
    <path id="TH-51" d="M163.4,98.3l-.2-.5,2.6-.4.7-1.1.5,1.2h.7l1.1-.6v-1.2s.5,0,.5,0l-1.2-4.8-.8-.7-1,.2,1.2-2.6-.5-.3.2-2.3-.7-.8-.2-2.4-3.7-1.8.3-.9,1-.3-.8-1.2.9-1.5-.5-.2.5-.8,1.9.2,1.6-1,1.1-1.5.3.3,2.6-1.5,1-2.5.4-.7.9-.3.2-1,3.4-.2,1.4-1.1h1.1c0,.1,0,1.1,0,1.1l1.5,1v1.1s-.5.9-.5.9l3.2,2.1h0v1.1c.1,0-.6.4-.6.4l-1.4-.2-.5.5-.2,1.1-1.3,1-.3,1.1-.7.5-.5,2-1,.2-.3,1.5-1-.4-2.2.9,1.3,2.7.4,3.9,1,2.1-.2,1.5.7.4-.3,1.1h1.3c0,0,1.2,2.1,1.2,2.1l-.8.2.5,1.2-1.3-.4-1.1.3.7,1.4-.7,1.1h-.6c0,.1,0,1.3,0,1.3l-.8.4-.5,2.7-3.4-1.2h-1.4c0,0-.8.7-.8.7l.2,1.3.8.3v1.6h0l-1,1.5-.7-.7h-.9c0-.1-2.7,1.5-2.7,1.5h-1.1c0,.1-.9,1.5-.9,1.5l-.3-1.3.8-1.4v-1.9c-.1,0-.8-1.4-.8-1.4v-2.3s2.1-1,2.1-1l-1.8-2.9Z"/>
    <path id="TH-52" d="M187,55.9l1.2-.3,1.9-2.4h1.2s.9-1.9.9-1.9l-.7-1.1.4-3.1,1.1-2-.5-3.7,2.2,1.1,1.5-.3.6.3h0l.5,1.5-.2,3.3.8,2.6,1.1,1.3.5,2.4.7.4.8-.3.7,2.1,2.4.5,2.1,2.4,1.4.8.6-.2,1.2,1.3v1.7c-.1,0,.6-.4.6-.4l.9.6h0l.4.8-1,1.9.5,2-.4,1.5.7,1-.4,1.4-.6-.4-1.2.5v1.4s-1.1,2.4-1.1,2.4h-.6c0,0,.3.3.3.3l-.3,1-.6.6h-.7s-1.9,3.9-1.9,3.9h-1.6c0-.1-.2.9-.2.9l-1.6,1.4-1.6,2.6.2.7-1.3,1.8-1,.2-.7.8-1.2-.7-1.6.9.3.9-3.7,3-.3.9-1.8,1.5-1.8,2.6,1.7,2.3h1.1c0-.1.8-1.1.8-1.1h0v2.1c.1,0-.8,1.1-.8,1.1l.2,1.6-.5-.4-.7.3-.2.9.7.4v1.2c.1,0-.5.3-.5.3l-.5,1.6.5,1,.7.3-.4,1.4,1.4,1,.2,1.2-.8.7v1.9s-.5,0-.5,0v.7s-1.7.8-1.7.8l-.5-.2-1.1-1.9h-.8c0,0-1.3-2.2-1.3-2.2l-.2-2.4-1.4-.2-1.8,2.4h-.7s-.4-.8-.4-.8l-.9-.3v.4c-.1,0-2.2-.9-2.2-.9l-.5-.8h-.7c0-.1-1.1-2-1.1-2l-1.6-.3-.2-1.7-.5-.5h0v-1.6s-.8-.3-.8-.3l-.2-1.3.8-.8h1.4c0,0,3.4,1.2,3.4,1.2l.5-2.7.8-.4v-1.2c0,0,.5-.1.5-.1l.7-1.1-.7-1.4,1.1-.3,1.3.4-.5-1.2.8-.2-1.2-2h-1.3c0,0,.3-1.2.3-1.2l-.7-.4.2-1.5-1-2.1-.4-3.9-1.3-2.7,2.2-.9,1,.4.3-1.5,1-.2.5-2,.7-.5.3-1.1,1.3-1,.2-1.1.5-.5,1.4.2.7-.4v-1.1h-.1l1.4-2.5-1-.5v-.8s.7-.5.7-.5l-.7-1,1.4-2.4-.7-2.9,1.2-1.1-.4-4,.9-.6Z"/>
    <path id="TH-53" d="M243.1,77.4l2.8,1.4-1.1,1.5.3.8-.5.5.7,1.5.9.3-1,3,.8,2-2.1,2.3-.2,1.7-3.3,2.1.4,2-1.1.5-.2.5.5.7-1,.8.4.6h0l-1.1,1.5-2.7-.4-1,1.9-1.4.6-2.1,3.4-3.2,1.6v.7c0,0-1,.3-1,.3l-.5,1.5-2.2.2-.5.4-.4-.8-.6.4h-1.9c0-.1-2,1-2,1h-1.3c0,0-.2.7-.2.7l-.7-.4-.8.2-1.3.9.5,3.5-2.1,1.8h-.4c0,0-.6-.6-.6-.6l-4,1.1-.2.5-1-.8-.7.4h0v-1.4c0,0-.7-.5-.7-.5v-.4c-.1,0,.3-1.4.3-1.4l1-.4.6-1.2-.5-.9.3-1-.7-.7.5-.6v-1.3s-.7-1-.7-1l-1.8-1.2.5-.8-.6-1.5,1.7-1.2-.3-.4.4-.9-.4-1.8-1.5-1.3v-1.3c0,0-.8-.7-.8-.7h0l2,.9.2-.6,1-.5-.2-.8,1.9-.5.4.5,2.4-.8,2.8-2.2,1.1-1.4h1.1c0,.1,1.9,2.5,1.9,2.5l.8-1.2-.3-2,1.4-1.3h.7s4.2.2,4.2.2l.2-.6,2-.6,1.9.3.8.6h2.6s1.4-1.9,1.4-1.9l1.3-.2,1.1-2.4,1-.3.2-2.9,2.1-2.2.5.2,2-1.8h.6s.4-.8.4-.8h.3Z"/>
    <path id="TH-54" d="M210.6,62.5l1.5-.9h.9c0,.1.4.7.4.7l1-.4,3.8.7h0v.6c0,0,.8.4.8.4l-.2.9,1.1.4-1.3,2.1.3,1.3,1.1.6-.5.2-.4,1.9.6.3.4,2.5.5.2.6-.6.3.3,1.1-.2,1,.8,1.1-.6.3,1.4-.5,2.1h-.7s-.4,1-.4,1l-.8.4.4.4-.4.7.5,1.3-1.3,2.3-.3,1.9h-1c0,.1-.6.8-.6.8l.6,3.9h-.7s-1.4,1.3-1.4,1.3l.3,2-.8,1.2-1.9-2.3h-1.1c0-.1-1.1,1.3-1.1,1.3l-2.8,2.2-2.4.8-.4-.5-1.9.5.2.8-1,.5-.2.6-2-.9h0l-3.8.5-1,1.8-.9.6-1.9-2.7-.7.2-1.7-.9-2.6.8-1.6,2h0l-.8,1h-1.1c0,.1-1.7-2.2-1.7-2.2l1.8-2.6,1.8-1.5.3-.9,3.7-3-.3-.9,1.6-.9,1.2.7.7-.8,1-.2,1.3-1.8-.2-.7,1.6-2.6,1.6-1.4.2-1h1.6c0,.1,1.9-3.8,1.9-3.8h.7s.6-.6.6-.6l.3-1-.3-.3h.6c0,0,1.1-2.5,1.1-2.5v-1.4s1.2-.5,1.2-.5l.6.4.4-1.4-.7-1,.4-1.5-.5-2,1-1.9-.4-.8Z"/>
    <path id="TH-55" d="M230.1,27.4v1.2s-1.1,2.4-1.1,2.4l-.2,5.8,3.1,1.3.3.8,3.1-3,1.1-2.1.7.4,3.9-.2,2.9,2,1.6-.5.9.3.3-1h1.2c0,0,1.5,1.3,1.5,1.3l-.5.6.4.8-.6.8v1.2s-1.9,0-1.9,0l.2,1.4-.9,1.2.6,1.7h.8c0,.1.3.7.3.7l-.4.9.9,2.3-.3,2.1.4,1.9,2.8,1.9.5.8-.6,1.4h-.9c0,0-.6.8-.6.8v1.4c0,0-1.6,1.8-1.6,1.8v3.8c.1,0-.7,1.6-.7,1.6l1.6,1.5-1.5,2.1-1.5.6v1.8s-1.1.3-1.1.3l-.4.9-1.1.2-.3,1.3-1.3,1.4v.6c0,0,1.1,1.6,1.1,1.6h0l-.4.8h-.6s-2,1.8-2,1.8l-.5-.2-2.1,2.2-.2,2.9-1,.3-1.1,2.4-1.3.2-1.4,1.8h-2.6s-.8-.6-.8-.6l-1.9-.3-2,.6-.2.6-4.2-.2h0l-.6-3.9.6-.7h1c0-.1.3-2.1.3-2.1l1.3-2.3-.5-1.3.4-.7-.4-.4.8-.4.4-1h.7s.5-2,.5-2l-.3-1.4-1.1.6-1-.8-1.1.2-.3-.3-.6.6-.5-.2-.4-2.5-.6-.3.4-1.9.5-.2-1.1-.6-.3-1.3,1.3-2.1-1.1-.4.2-.9-.8-.4v-.6h0v-.7s1.6-2.4,1.6-2.4v-1.1c0,0,1.3-1,1.3-1l-.3-.9,1.3-2.5h1.1s0,.5,0,.5l.8.5-.3,1.2,1.3-.2-.2-1.7,2.2.9.5-.5-1.8-1.4.3-1.1,1.8.2.6-.7-1.5-4.6.4-2.1h-1.6c0,0-.1-.9-.1-.9l-.9-.6-.5-1.6,1.6-1.3v-.7s.8-.7.8-.7l-2-.7-1.6.2-.3-1.4.5-2.4-1.4-1.3v-1s-.5-.3-.5-.3l.4-1.3-1.1-.9h0l.2-1.5.7-.7h0l1.9.7,2.2-.4.6-.8,4.2-.2Z"/>
    <path id="TH-56" d="M220.2,30.3l1.1.9-.4,1.3.4.3v1s1.5,1.3,1.5,1.3l-.5,2.4.3,1.4,1.6-.2,2,.7-.8.7v.7s-1.6,1.3-1.6,1.3l.5,1.6.9.6v1c.1,0,1.7,0,1.7,0l-.4,2.1,1.5,4.6-.6.7-1.8-.2-.3,1.1,1.8,1.4-.5.5-2.2-.9.2,1.7-1.3.2.3-1.2-.8-.5v-.5c0,0-1.1,0-1.1,0l-1.3,2.5.3.9-1.2,1v1.1c0,0-1.7,2.4-1.7,2.4v.7h0l-3.8-.7-1,.4-.4-.6h-.9c0-.1-1.5.8-1.5.8h0l-.9-.6-.7.4v-1.7c.1,0-1.1-1.3-1.1-1.3l-.6.2-1.4-.8-2.1-2.4-2.4-.5-.7-2.1-.8.3-.7-.4-.5-2.4-1.1-1.3-.8-2.6.2-3.3-.5-1.5h0l-.4-1.4h1c0,0,2.4-1,2.4-1l2.6.2.4-.3.7,1,.5-.2.2.9.9-.8,1.6-.2.4.3v-.5s1.2-.1,1.2-.1l.7-.7v-2.7l3-.8.2-.8,2.3-.7.8-1.4h1.9s.6-1.2.6-1.2l.8-.2,1.6-1.6Z"/>
    <path id="TH-57" d="M205.5,4.7l1.3,1.6,2.7,1.4.6,2.4-.2,1.5.6.7,2.1.2.3-.7-.4-1.2,1.7-.6.2-1.3,1.4-1.6h1.6c0-.1,1.4.7,1.4.7l2,4.3,1.2.8v1.1c.1,0,1.9,1.7,1.9,1.7l.7.2.8-1.1.8.2-1.9,8.9-.8,1.3-1.6,1-.5,1.7h0l-.7.7-.2,1.5h0l-1.6,1.6-.8.2-.6,1.2h-1.9s-.8,1.4-.8,1.4l-2.3.7-.2.8-3,.8v2.7l-.7.7h-1.2c0,.1,0,.6,0,.6l-.4-.3-1.6.2-.9.8-.2-.9-.5.2-.7-1-.4.3-2.6-.2-2.4,1.1h-1c0,0,.4,1.3.4,1.3h0l-.6-.3-1.5.3-2.2-1.1.5,3.7-1.1,2-.4,3.1.7,1.1-.9,1.9h-1.2s-1.9,2.4-1.9,2.4l-1.2.3h0l-.6-2.2-1.3-.8-1.3-3.1v-1.7c.1,0,1.2-1.5,1.2-1.5l-.8-2.8.5-.4-.7-2.4.3-.9-.7-1.4,1-1.5-.9-.8-.5-1.4-.6-.3-.3-1.3,1.8-2.1h1c0-.1.5-.7.5-.7v-1.7c0,0,1.1-1.3,1.1-1.3h.9s-1.2-2.7-1.2-2.7l1.2-.9v-1.6s1.9-1.8,1.9-1.8l-.2-.7,1.1-.7-.4-.4v-.5s2.5-1,2.5-1v-.5c-.1,0-1.9-.8-1.9-.8h.9c0,0,.8-2.1.8-2.1l-1.4-1-.5-3.2-1.7-1.3v-1.1s4.7,1.9,4.7,1.9l1.5-.2,1.2,1,1.3-.4.4-.7,2.7.5,1-1.3v-1s1-1.5,1-1.5h1.7s1.3-.7,1.3-.7Z"/>
    <path id="TH-58" d="M124.7,73.4l.6.2.4-1.3.5.3.3-.4h1.5c0-.1-.1-.9-.1-.9h.7c0,0,.6-.6.6-.6h3.7s.2-3.9.2-3.9l-.7-1.2.3-1.2-.8-2.3v-1.9s-1.2-.6-1.2-.6l-1.2-1.7,2.3-1.1v-2.2c0,0,1.1-.1,1.1-.1v-1s2.1-.8,2.1-.8l.4-4.2-2.1-1.9.6-.7.7.2.7-.5-1.4-1.9v-1.3c.1,0-.4-.4-.4-.4l.9-.5,2.3-3-1.1-1.1.2-1.5,3.8-.9.3-1.3h1.8s-.4-2.6-.4-2.6l.3-3.1,1.5-.2.6,1.3,1.1-.5,1.1.6.7,1.1,1.2.4.7,1.8,2.6-.8,1.5.3.8-.5,2.5.4h0v1s2.3,1.8,2.3,1.8v1.8c.1,0,.9.4.9.4v1.3c0,0,1,.7,1,.7l-.3,1.6.3,1.4-.7.5.7,1.2.3,2.6-.5.6.3,1.1-1,.7,2.1,1.9.6,2.2-.6,1-2.1.6-.7.7-3.5-.7-.6.7-2.2-2.3-.4-2-3-.3-.4.7.3,1.1-2.7,3.8v1.7c0,0-.4,1.1-.4,1.1l-1.1.4-1.2,1.6-.3,1.4.3,1.3,1.1.3-.8,1.2.3,3.1,3.5,1.4.9,1.3-.9,1.1-1.1-.3v.7c-.1,0-1.7.8-1.7.8l-.5,1.5-1.1,1,1.7.8,1.6,2.3v1.4s.9.3.9.3l-1.9.3-.3.6.4,1.4.8.3v1c.1,0-.5.9-.5.9l.3,1.5.8.2.5.9.8-.3.5.8.6-.3.7.4-.5,1.1-1.3.6.4,1.3-2.5.5-.9,1.3-1.8-.9-2.6,1.3v1l1.9,1.4.7,1.6,1.5.4.5.6-.4.6.6,1-.3,1.7-1.8,1.6h0l-1.7-1.3-1-3.2-1.1-1.9-.2-1.6-1.9.5-.3,1.5-1.8,1.1h-3.4c0,0-.9-1.3-.9-1.3h-.7c0,0-.8-1.8-.8-1.8l.6-1.9,1.4-1v-.7c.1,0-1.9-4.8-1.9-4.8v-1.7c0,0-2.3-2.7-2.3-2.7l1-1.7-.7-1.1-2-.7-.8,1.8-1.2.6-1.8-2.2.2-2-.8-.6-1.4-3.5-1.2-1.3v-1.1c-.1,0,.4-.6.4-.6v1.2c0,0,1.3-.1,1.3-.1l.5.4,1,2,1.2-.5.8.6.4-.2Z"/>
    <path id="TH-60" d="M207.9,152.6l2,1.3-.5,1.1,1.2,1.6v1.1c0,0,1.6,2.3,1.6,2.3l.6,1.9.8-.3.8.5.5-1.4h.6s.3.7.3.7l1.9-1v-.6s.7.4.7.4l-.5,1.2,4.6.5,2-.5-.2,1,1.9-1.7,1.5-.6,4.8-.7h0l.5.6-.7,2.5,1.6,1.1-.5,1.9.7,3.8,1,.6-.7.7-.5,3.6-.7,1.1-1.1.5h0l-.5.4.8.5v1.1c0,0-4.2,1.7-4.2,1.7l-.3,3.2-1.8,1.6.5.6v1c0,0-1.8,1.1-1.8,1.1l-1.1,1.4v.9c0,0-1.3.6-1.3.6l-1.4,1.9h0l-2.6-1.8h0l.4-.3-.2-1-1.6-1.2-1.2-3.6-.8-1.2-1.2-1.4-2-.7v-.6c-.1,0-1.3-.5-1.3-.5h0l-1.6-.3.4-1.1-1.2-.6-.3-1.2h-.6c0,.1-.3.8-.3.8l-1.3-.8-.4.2-.5-6-2.2.7v1.3c-.1,0-2.3-.9-2.3-.9l-2-1.5h-1c0,0-3.7,2-3.7,2l-1.1,1.3-1.7,1h-1.4s-.1-.8-.1-.8h-.5c0,.1-1.1-1-1.1-1l-1.4-.4-.8-1.9-1.9-.4-.6-.8-.9-.2-1-1.5-2.7-.9h0l-1.3-1.3-.3-1.9h0l1.3-.9h.6c0,.1.8-.9.8-.9h1s.1-.4.1-.4l2.7,1.9,1-1.2.3.5.9-.5,1.7.5.6-.3,1.3.6.4-.7.7-.2,3.5,1,1.7,1.4,1.7-.7,1.1.7,1-1.4v-.7c0,0,1.1,0,1.1,0v-.7c0,0,1.4-1.3,1.4-1.3v-1.3s1.4-1.1,1.4-1.1h1.5c0-.1,2.8-3.5,2.8-3.5l.7-.2-.5-.9.4-.4Z"/>
    <path id="TH-61" d="M178.2,166.4l2.7.9,1,1.5.9.2.6.8,1.9.4.8,1.9,1.4.4,1.1,1.1h.5c0-.1.1.6.1.6h1.4s1.7-1,1.7-1l1.1-1.3,3.7-2h1c0,0,2,1.5,2,1.5l2.2.9v-1.3c.1,0,2.3-.7,2.3-.7l.5,6,.4-.2,1.3.8.3-.7h.6c0-.1.3,1.1.3,1.1l1.2.6-.4,1.1,1.6.3h0l-.5.5.6.9-.8-.2-.2.3.8,1.1-1.4,2.1-.5-.7-2.8-.3-2.4.6-1.1-.8-2.1-.2-2.2,1.4.4,1.1-.3.8,1.2,1.6-.4.4,1.9,2.4-1.1,1.3.2,1-1.6.8-.4.8h0l-2.7-.4v1.7c-.1,0-4.2-1.6-4.2-1.6h-2.1c0,0-.8-2.2-.8-2.2h-1.8s-1-1.1-1-1.1l-1.1.9.2,1-.8,1h0l-.9.2-.8-.8-1.4-.5-1,.4-.9-.8.2-.5-2.1.4-1.9-.5-.6-.6.2-2.5-.8-1.2h.6c0,0,.1-1.9.1-1.9l1.1-1.7-.3-1.6,1.3-2-.4-1.6.8-1.8-1-2,1.5-.9.6-1.6v-1.3c0,0,.8-2.3.8-2.3l-.4-1.1.3-.9Z"/>
    <path id="TH-62" d="M187.8,129.1h1.1c0,0,1-1,1-1l.8,1.4,2.1.4v1s1.4,2.3,1.4,2.3l1.8,1h.6c0,0,0,.4,0,.4l1.3-.7v.9c-.1,0,1.1.9,1.1.9l1.1-.3.4-1,1,.2.4-.7h0l1.4.5.4,4,1.6,1.1,1.5-.4.2.4h0l.7,2.5-1.3,2.1-.4,2.1.7,1.4.7.2-.9,1.5.3.5h.7c0,0-.3.8-.3.8l1.1.7-.7,1.1h0l-.4.4.5.9-.7.2-2.8,3.4h-1.5c0,.1-1.4,1.2-1.4,1.2v1.3s-1.2,1.3-1.2,1.3v.7c0,0-1.3,0-1.3,0v.7c0,0-.9,1.4-.9,1.4l-1.1-.7-1.7.7-1.7-1.4-3.5-1-.7.2-.4.7-1.3-.6-.6.3-1.7-.5-.9.5-.3-.5-1,1.2-2.7-1.9v.4c-.1,0-1.2,0-1.2,0l-.8,1h-.6c0-.1-1.3.8-1.3.8h0l.3-1.5-.7-1,.5-.7-.2-1.6,1.1-1.6-.3-.9-1.9-1.3v-.8l.6-.2.5-1.6-1.1-1.5-.3-4-.8-.4.2-1.4-.9-.9-.3-1.2.5-.3.9.9h3.1s.6-.9.6-.9l1.1-.3.5-1,.9.4.7-.2.5-1.2-.3-3.3.8-.2,1-2.4-.4-1.6,1.1-1,2,.2-.2-1.8,1.6-.7Z"/>
    <path id="TH-63" d="M132.2,98.1h3.4c0,0,1.9-1,1.9-1l.3-1.5,1.9-.5.2,1.6,1.1,1.9,1,3.2,1.7,1.3h0l1.5,3.3h2.4s1.9-1.3,1.9-1.3h1c0,.1,1.1,3.7,1.1,3.7l-.2,1.9-1,.3,1.4,2-.5,1,.4.6,1,.5,3.2-.9,1,.4h.2s.1.9.1.9h1.2s1.4-.3,1.4-.3v-.4c.1,0-.6.1-.6.1v-2c.1,0-.7-.4-.7-.4l.7-2.4-1.1-.9-.2-1.8.8-1.7,1.4-.7-.8-1.2-1-.2-.2-3-.7-1.8.2-1-.5-.3v-.6s.8-.4.8-.4l1.3,1,.4-.5.8.3,1,1,.3,1.2,1.8-1.4h0l1.8,2.9-2.1,1v2.3s.6,1.4.6,1.4v1.9c.1,0-.6,1.4-.6,1.4l.3,1.3.9-1.4h1.1c0-.1,2.7-1.7,2.7-1.7h.9c0,.1.7.8.7.8l1-1.5h0l.5.5.2,1.7,1.6.3,1.1,1.8h.7c0,.1.5,1,.5,1l2,.9v-.4c.1,0,1.1.3,1.1.3l.4.8h.7s1.8-2.3,1.8-2.3l1.4.2.2,2.4,1.3,2.1h0v4.3s.5.3.5.3l-.3.8.6.7h.9c0-.1.8.3.8.3v2s1.3.5,1.3.5l-.7,1.1v1.5c.1,0,1.1,1,1.1,1l-.6,1h0l-1.6.7.2,1.8-2-.2-1.1,1,.4,1.6-1,2.4-.8.2.3,3.3-.5,1.2-.7.2-.9-.4-.5,1-1.1.3-.6.9h-3.1s-.9-.8-.9-.8l-.5.3.3,1.2.9.9-.2,1.4.8.4.3,4,1.1,1.5-.5,1.6-.6.2v.8l1.9,1.3.3.9-1.1,1.6.2,1.6-.5.7.7,1-.3,1.5h0l.3,1.9,1.3,1.3h0l-.3.9.4,1.1-.9,2.3v1.3c0,0-.6,1.6-.6,1.6l-1.5.9,1,2-.8,1.8.4,1.6-1.3,2,.3,1.6-1.1,1.7v1.9c-.1,0-.7,0-.7,0h0l-.9-2.2h-1.1s-.4-.7-.4-.7l-.9-.3v-.6c.1,0-.5-1.1-.5-1.1l-1.2-.7-2.6-3.3v-1.1c.1,0-1.6-.9-1.6-.9l.7-.6-2.5-3.9-.8.2-1.4-1.1-.4.2h-.4c0,.1-.4-1-.4-1l2.1-6.6h-.5s-.4-1.4-.4-1.4l.8-2-.5-1.2-1-.7.2-.8.5-.2,1.5.7,1.2-1.1.6-1.9.6-.2,1.5.6,1.2-.3.8.8,1.5-.8.5-1.5-.3-1.7,1.6-1.2.3-1.6.5-.3v-.8c.1,0-.6-.6-.6-.6l.3-1.3-1.3-1.3h-1.6c0,0-.5,1.3-.5,1.3l-1.4,1.3-1.6.6-.9,2.1h-.9s-1.2-5.4-1.2-5.4l.7-.9-.2-.6-2.5-3,.3-1-.5-1.5-2-.5v-1.6c.1,0-1.6-1.3-1.6-1.3v-.7s.5.2.5.2l.4-.9v-.6c-.1,0,.5.1.5.1l.4-.7,1-.3-1.8-.9.5-1.3.9-.7-1.5-.8v-1.7c-.1,0-.6-.8-.6-.8h-.8s.2-.9.2-.9h-.8s.2-.5.2-.5l-1.6-.8-1.5.4-.9-.7-.3-1.1-.9-.5.4-1.4h-.7c0,0-.9-1.9-.9-1.9l-.6.2-.7-1.5-1-.4-2.1-2.1v-2.2s-1-.2-1-.2l-1.1-1.3.3-.4-2.1-2.3h-.7c0,0-.3-.6-.3-.6l-1.2-.4-.6-1.5-3.7-3.3-1-1.5.4-1-1-.6v-.4Z"/>
    <path id="TH-64" d="M189.3,99.6l1.6-2,2.6-.8,1.7.9.7-.2,1.9,2.7.9-.6,1-1.8,3.8-.5h0l.8.7v1.3c0,0,1.4,1.3,1.4,1.3l.4,1.8-.4.9.3.4-1.7,1.2.6,1.5-.5.8,1.8,1.2.7,1v1.3s-.5.6-.5.6l.7.7-.3,1,.5.9-.6,1.2-1,.4-.4,1.4v.4c.1,0,.9.5.9.5v1.4h0l-.9.2.3,1.4-.4.4v1.2s.5.3.5.3l.9-.3.7,1.6,2.6,1.3.5.7h-.3c0,0,.4,2,.4,2l-.8.9h-2.6s.3,1.3.3,1.3l-.9-.5-1.3.3-.3,1.1-1,.8.4,1.3h-1.6c0,0-.6,1-.6,1h0l-.4.7-1-.2-.4,1-1.1.3-1.3-.9v-.9c.1,0-1.2.7-1.2.7v-.5s-.7,0-.7,0l-1.8-1-1.5-2.3v-1s-2.1-.4-2.1-.4l-.8-1.4-1,1h-1.1c0,0,.6-1.1.6-1.1l-1-1v-1.5c-.1,0,.6-1.1.6-1.1l-1.3-.5v-2s-.9-.5-.9-.5h-.9c0,.1-.6-.5-.6-.5l.3-.8-.5-.3v-4.3h.9c0,0,1.1,1.9,1.1,1.9l.5.2,1.6-.8v-.7s.5,0,.5,0v-1.9s.7-.7.7-.7l-.2-1.2-1.4-1,.4-1.4-.7-.3-.5-1,.5-1.6.6-.3v-1.2c-.1,0-.9-.4-.9-.4l.2-.9.7-.3.5.4-.2-1.6.9-1.1v-2.1Z"/>
    <path id="TH-65" d="M239.7,99.7l.4,1.2-.6.9v1.9s-1.1,1.6-1.1,1.6h0l-.9.2-.9-.8-.8.3-.7,1.4.4.5-1,.9-.3,1.2.7.6,1.2-.5.7.5v3.8s3,.3,3,.3l1.5,1.8h1.1c0,.1.9,1.6.9,1.6l-1.1,2v1.3s-.9,2.1-.9,2.1l.3,1.7-.6,1.3.3,1.1-.8.5.2.5,1.2.2v.7h-.9c0,0-.7,1.3-.7,1.3l-2.2,1.5v1s-1.7-.1-1.7-.1l-.2.9.8.5-.2.9.9,1.8-.6.5h-1.1c0-.1-.8.8-.8.8l-.6,1.8.3,1.6-1.4,2.2-.7.4.4.8h-.6s-.5.8-.5.8l-2.1.2-.2,1.6-1.8,1.6h0l-1.3.6.4-1.9-.7-.7-.2-2.8-.4-.2v-1.6s.5-1.3.5-1.3l-.3-1.2-2.6.7-1.4,1.8-1.5.4-.6-.6-.3.3-.6-.9-1.9.8-1.9-.5-1,.3v-3.2c0,0-.6-.8-.6-.8l-.9.5.4.3-.4.7-1.1.3-1.3-.5-1,.4v.6c-.1,0-2.4.2-2.4.2h0l-.2-.4-1.6.4-1.6-1.1-.4-4-1.4-.5h0l.6-1.1h1.6c0,0-.4-1.2-.4-1.2l1-.8.3-1.1,1.3-.3.9.5-.3-1.3h2.6s.8-.9.8-.9l-.4-1.9h.3c0,0-.5-.7-.5-.7l-2.6-1.3-.7-1.6-.9.3-.5-.3v-1.2s.5-.4.5-.4l-.3-1.4.9-.2h0l.7-.4,1,.8.2-.5,4-1.1.6.7h.4c0,0,2.1-1.9,2.1-1.9l-.5-3.5,1.3-.9.8-.3.7.4.2-.6h1.3c0,0,2-1.2,2-1.2h1.9c0,.1.6-.2.6-.2l.4.8.5-.5,2.2-.2.5-1.5,1-.3v-.7c0,0,3.1-1.6,3.1-1.6l2.1-3.4,1.4-.6,1-1.9,2.7.4,1.1-1.5h0l.2.3Z"/>
    <path id="TH-66" d="M207.2,139.6l2.3-.2v-.6c.1,0,1.2-.4,1.2-.4l1.3.5,1.1-.3.4-.7-.4-.3.8-.5.5.8v3.2c0,0,1.1-.3,1.1-.3l1.9.5,1.9-.8.6.9.3-.3.6.6,1.5-.4,1.4-1.8,2.6-.7.3,1.2-.6,1.3v1.6s.4.2.4.2l.2,2.8.7.7-.4,1.9,1.3-.6h0v1.1c0,0,1,1.5,1,1.5l1.1-.5.3.4-2.5,3.9.4,1.1-.6,2.1,3,.6,1.4.9h0l-4.8.7-1.5.6-1.9,1.7.2-1-2,.5-4.6-.5.5-1.2-.8-.4v.6s-1.8,1-1.8,1l-.3-.7h-.6s-.5,1.3-.5,1.3l-.8-.5-.8.3-.6-1.9-1.5-2.3v-1.1c0,0-1.3-1.6-1.3-1.6l.5-1.1-2-1.3h0l.7-1.1-1.1-.7.3-.9h-.7c0,0-.3-.4-.3-.4l.9-1.5-.7-.2-.7-1.4.4-2.1,1.3-2.1-.7-2.5Z"/>
    <path id="TH-67" d="M242.1,128.3l.8.4.4-.3.3-4,1.8-.8,1-1.7v-1.1s.8-.3.8-.3l1.2,1.5h1.7c0-.1.6.6.6.6l.4-.5,1.5.2.6-.5,1.1.7.9-.7.6.8,1.6.6v1.1c.1,0,1.1,1.2,1.1,1.2l1.4-.5.7-1.5.7.2.9,2.2v.8c-.1,0,.5.6.5.6l-.4,2.6,1.4,1.9-1.2.3,1.3,1.5,2-.4h0v1.4c0,0-1.2,1.9-1.2,1.9h0l-.7.6-1.4-1.3-1.6.3-1.6-1.5-1-.2.8,2-.2.8-2-1,.5,2-.9.3v1.3c-.1,0,.6.8.6.8l-1.5.7-.3.9.3.8-2.3,2.8.3.7-.9.8-.3,2.9-.8.6.8.4.2,1.8h-.6c0,.1-.7,1.2-.7,1.2l-.6,3.8.6,1.9.5.8.5-.2-.4,1.5.5.2-1.4,1.3v2.7s-.5.5-.5.5l.6,1.2,2.3.6-1.2,5.3h0l-2,.2-.7,1.3.5.5v4.5s-3.3,2.3-3.3,2.3l-2.3-.2-1.4-.9-.7.5h-1.5s-1.5-1.7-1.5-1.7v-.9c0,0-.9-1.1-.9-1.1l-1.7-1-2.3-.2-1.1-1.5h-1s1.1-.5,1.1-.5l.7-1.1.5-3.6.7-.7-1-.6-.7-3.8.5-1.9-1.6-1.1.7-2.5-.5-.6h0l-1.4-.9-3-.6.6-2.1-.4-1.1,2.5-3.9-.3-.4-1.1.5-1-1.5v-1.1h0l1.8-1.6.2-1.6,2.1-.2.5-.8h.6s-.4-.8-.4-.8l.7-.3,1.4-2.2-.3-1.5.6-1.8.8-.9h1.1c0,.1.6-.4.6-.4l-.9-1.8.2-.9-.8-.5.2-.9h1.7c0,.1,0-.9,0-.9l2.2-1.5.7-1.2h.8Z"/>
    <path id="TH-70" d="M202.7,229.1l1.6.4-.4,1h-.6c0,.1.5,1.1.5,1.1l-.4,1.1,1.8.2.4.9-.9,2.2.3.4,1.6-.2.9-.6v1.7c0,0,.2.4.2.4h1.1c0-.1,0,1.4,0,1.4h0l-.4,1.1-.7.2.4,2.2-.5,1.3h0l-.6-.3-.5.7-1,.3-1.7-.8.2.4-1,1-1.2,4.8h0l-3.3-.5-1.7.8-1.3,1.2v2.4s-1,.4-1,.4l-1.9.2-1.8-.4-.5,1-1-.7-.6.6h-.7c0,0-3-2-3-2l-.9.8v1.4s-1.7,1-1.7,1l-1.4-1.8-.6-.2h0l-.5-1.6.5-.2-.8-1,.7-1.5v-4.1s-.6-1.3-.6-1.3v-1.6c.1,0-.8-1-.8-1l.5-.4-.4-.8v-4.1h0l.2-.4.9.4.8-.7,1.4.2.6-.6.5.7,1.8-.2,3.3-1.1.6-.9,1.1,1.3,1.5.3,3.9-3,4.8,1.3.3-1.9h.5s1.3-2.9,1.3-2.9Z"/>
    <path id="TH-71" d="M159.5,171.1l.4-.2,1.4,1.1.8-.2,2.5,3.9-.7.6,1.8.9v1.1c-.1,0,2.5,3.3,2.5,3.3l1.2.7.7,1.1v.6c-.1,0,.7.3.7.3l.4.7h1.1s.9,2.2.9,2.2h0l.8,1.2-.2,2.5.6.6,1.9.5,2.1-.4-.2.5.9.8,1-.4,1.4.5.8.8.9-.2h0l1.2,1.6v2c-.1,0-1.3,1-1.3,1l.4.9,2.1,2.1h2.6c0-.1.9,2.6.9,2.6l1.6-.2,1.2-.7v-2.7c0,0,.6.6.6.6h1.5c0,0,1.1-.7,1.1-.7l2.6,1.9,2.2.4-.7,1.1.7.4,1.2,2.6-.8.2-.3.8.8.5-.3,1,.3,10.8-1.2,1.2-.6-.3-.3.6h-.4c0-.1-.6,2.6-.6,2.6l.8.5,1.2-.3.7,1.2,1.1.2h0l.3.6-.8,1.4h.5s1.1,1.7,1.1,1.7h0l-1.3,2.8h-.5s-.3,1.9-.3,1.9l-4.8-1.3-3.9,3-1.5-.3-1.1-1.3-.6.9-3.3,1.1-1.8.2-.5-.7-.6.6-1.4-.2-.8.7-.9-.4-.2.4h0l-.4-.9-1.1-.6v-1.4s-.7-.9-.7-.9l.3-1.7h-1c0,0-.6-1.3-.6-1.3l-1.3-.7-.7-2.4-.9-.5-.4-2.2-2-.4-1-1.2-5.1-3.4-.6-1-3.2-1.6-.2-1.5-1-.5-2.5-5.3-1,.3v-1.6c0,0-.9-1.2-.9-1.2l-2.2-1.8-.4-1.1-1-.4-2.5-4,.4-.9-1-1.2.6-.8-.7-1.8-.8-.5v-1.3c.1,0,.8-.7.8-.7l-1.7-2.4,1-2.2-.5-1.8,1.8.2,1.7-1.8v-1.1s3.4,2,3.4,2l.4-.6-.8-1.1.8-.6v-1.3s2.2-1,2.2-1l1.8.7.6,1.2.7-1.1.3-2.6-.2-2.9-.8-2.6.5-1.8Z"/>
    <path id="TH-72" d="M183.1,193.6l.8-1-.2-1,1.1-.9,1,1.1h1.8s.8,2.2.8,2.2h2.1c0,0,4.1,1.5,4.1,1.5v-1.7c.1,0,2.8.4,2.8.4h0l.2.5,4.3.8,1,.9,2.7.3,2.6-.5v-1.4c0,0,2.3.5,2.3.5l.8,1.1,2.2-1.4h0l-.7,1,.3.7h1.1s-.5.2-.5.2l.6.5-.7,2.5.8.7h0l-.6.5v1.2c0,0,0,2,0,2l.7,1-1.2,1.5.5,1-.5.6.4,1.3,1.5,1.4h0v1.5c-.1,0,.7.3.7.3l.3.9-.5.7v1.9s-.8,1.4-.8,1.4v2.5h0l-.9.9-2,.5-.8.7-6.3.4-3.2,2.6h0l-1.1-.2-.7-1.2-1.2.3-.8-.5.6-2.7h.4c0,.1.3-.5.3-.5l.6.3,1.2-1.2-.3-10.8.3-1-.8-.5.3-.8.8-.2-1.2-2.6-.7-.4.7-1.1-2.2-.4-2.6-1.9-1.1.8h-1.5c0,0-.7-.7-.7-.7v2.7c0,0-1.1.7-1.1.7l-1.6.2-.9-2.7h-2.6c0,.1-2.1-2-2.1-2l-.4-.9,1.1-1v-2c.1,0-1.1-1.6-1.1-1.6Z"/>
    <path id="TH-73" d="M214.8,220.3v1.2c.1,0,1.4.1,1.4.1v1.5h-.1l-.5,3.9,1.1,1.6-1.1,1.4,1.8,3.3h0l.4,3h0l-1.5.8-.7,1-1.3.4-.3-.6h-1.7s-1,.2-1,.2l-1,1.1h-1.2s0-1.6,0-1.6h-1.1c0,.1-.3-.2-.3-.2v-1.7c0,0-.8.6-.8.6l-1.6.2-.3-.4.9-2.2-.4-.9-1.8-.2.4-1.1-.5-1h.6c0-.1.4-1.2.4-1.2l-1.6-.4h0l-1.1-1.7h-.5s.8-1.5.8-1.5l-.3-.6h0l3.2-2.6,6.3-.4.8-.7,2-.5.9-.9Z"/>
    <path id="TH-74" d="M217.7,236.4l.3,3.1,1,.4.8,2.4h.8c0-.1-.3,2.1-.3,2.1h0l-2.7.2-1.5-.6h-.3s-.5.8-.5.8l-6,1.9h0l-.2-1.1-1.4-1.7h0l.5-1.3-.4-2.2.7-.2.4-1.1h1.2s1-1.1,1-1.1l1-.2h1.7s.3.6.3.6l1.3-.4.7-1,1.5-.8Z"/>
    <path id="TH-75" d="M202,250.1l1.2-4.8,1-1-.2-.4,1.7.8,1-.3.5-.7.6.3h0l1.4,1.7.2,1.1h0l-1,.5-.9,1.6-.8-.2v1.2s-1.5,1.3-1.5,1.3h0l-.9.5-1-.2-.4,1.4h-.8s0-2.8,0-2.8Z"/>
    <path id="TH-76" d="M180.6,254.2l.6.2,1.4,1.8,1.7-1v-1.4s.9-.8.9-.8l3,2h.7c0,0,.6-.5.6-.5l1,.7.5-1,1.8.4,1.9-.2.9-.4v-2.4s1.4-1.2,1.4-1.2l1.7-.8,3.3.5h0v2.8c0,0,.9,0,.9,0l.4-1.4,1,.2.9-.5h0l-.4,1,1.5,1,1.1,1.7,1.6,1v2.6l1.1.8-2,3.1-2.4,7.5-.4,3.7h0l-1.1.3-.6-.4-.7.5-1.9-.3-2.2,1.6-.3-1.5-.4.2-.7-.9-2.4.5-.9-.5-.2,1.2.5.7-.4,1.8-.8-.3-.5-1h-1.3s-.6.6-.6.6l-1.1-1-1.6.3h0l-.9-1.1h-1.1l-1.1-.8-.2-.7-1.4-.5.2-.4-1-1.3-1,.2-.6-3.4-1.2-.9v-2c-.1,0-.8-.6-.8-.6l1.1-1v-1.2s-2.3-1.6-2.3-1.6l-.8-1.2,1.1-1.5v-1.6s-.6-.4-.6-.4l.2-.6,1.1-.5,1.4.5.4-.5Z"/>
    <path id="TH-77" d="M188.2,275.2l1.6-.3,1.1,1,.6-.5h1.3s.5,1,.5,1l.8.3.4-1.8-.5-.7.2-1.2.9.5,2.4-.5.7.9.4-.2.3,1.5,2.2-1.6,1.9.3.7-.5.6.4,1.1-.3h0v1.8s1,2.2,1,2.2l-.3.5.2,2.2.8,3.3-1,2.4,1.5,2.5-1.6,1.8-.3,1.7h-.6c0,.1-2.4,2.8-2.4,2.8l-1.3,2-.7,1.9.7,1.6h-.6c0-.1-.6.6-.6.6l.6,1.1-.7.5.5,1.1-.7-.3-2,1.8-3.1,5.8-2.9,7.2v1.9c.1,0,1,1.2,1,1.2v.6c0,0-.5.4-.5.4l-.7-.8-.7.3-1.2,1.8.3,5.3h-.9c0-.1-2,1.1-2,1.1l-2.1-.7-2.2.6-3.7-1.5-.7-.4v-.6h.1l.5-.2.5-1.4,1.5-.9v-1.1l1.3-2,.8.4.7-.9-.4-1.1,1-1.3-.5-1,.5-.7h.5c0,.1.7-1.2.7-1.2l1.2-.6-.3-2.4.9-.6h.7c0,0,.2-.9.2-.9l.8-.8-.5-1.7.3-1.1,1.3-.7.7.5,1.2-.2.8-2.2,1.5-1.2v-2.1c.1,0,.9-1.2.9-1.2l-1.4-.3-.4-1.2h-.7c0-.1-.3-2.5-.3-2.5l.5-.4v-1.3s-1.9-.8-1.9-.8v-1.7c-.1,0,1.1-2.7,1.1-2.7h-1.8c0,0-.8.6-.8.6h-.6c0-.1.7-2,.7-2l-.8-1.5.4-1.3-.8-.4-.9-1.9.4-2.1-.7-.6v-.8s-.8-.3-.8-.3v-.7c.1,0,.8-.4.8-.4v-2c-.1,0,.5-1.1.5-1.1Z"/>
    <path id="TH-80" d="M199.6,384.6h.6c0,0,.2.6.2.6l.9-.2.4,1.7,1.1,1.5-.2,2.3,1.1,1.4.2,6.3,1.5,9.9.4.7,1.2.3,2.7,5.6,1.6.8h1.2s-.8-1.6-.8-1.6l.5-1.3-.2-.7-1.5-.7,1.8.5,1.3,1.6,2.3,6.9,1.9,10.5h-.8c0-.1-.1.6-.1.6h-2c0,0-.5.6-.5.6l-2.9.9h0l-3.2,1.1-2-.8-1-1-1.3.2-1.1-.4h-2.7c0,.1-.8,1.2-.8,1.2h-1.5s.3-1.7.3-1.7l-.3-1.2.8-.6-.9-1.2-.9.2-1.5-.8h-.9c0,.1-1,1-1,1l-.2.9-1.6,1.3-.2,1.2-.8.2-1.1-.2-.3-.8-1.5.9-.2-2.6h-.8c0,0,0-1,0-1l.6-.6-1-3.6-1.3-.9h-1.6c0,.1-.3-.5-.3-.5l1-1.7-.3-1.1.8-1.2-.2-.7-1.3-.7h0l-.5-1.3-1.1-.5-.2-.6.8-2.1,1.2-.8-.2-.4.4.2,1-.6.2-.7.8.7,1.6-1v-.8c-.1,0,1.5-1.6,1.5-1.6l-.2-1,.5-.6h.6c0,0,.4-1.5.4-1.5l1-.8.3-1.3-.4-2.5,1.4-.5v-.8c0,0,.5-1.2.5-1.2l1-.5.8.5.6-.6,1.6-.2v-1.3c0,0,1-.2,1-.2l.7-2.7v-2.6s-.7-.5-.7-.5l.9-2.1-.2-2.4.7-1h0l.5.2Z"/>
    <path id="TH-81" d="M174.9,439.9l1.4,1.8v1.2c-.1,0,1,2.3,1,2.3l-.4.8-2.1-3.3-.3-2.6.4-.2ZM175.9,438.7h1.4c0,0,.4.5.4.5l.3.8-.4,2-.3-.5-.7.3-.6-.5-1-1.5v-1s.9-.1.9-.1ZM175.3,433.2l1.6.4.2.8h.8s.2,1.1.2,1.1l-1.2,3.1-1.7-.4-.6-1.6.2-1.6-.4-1,.8-.2.2-.6ZM172.2,433.1l.7.3.4,2.2-1.7-1.9.7-.6ZM174,432.2l1,.8-.7.8-.5-1,.3-.6ZM176,431.2l.3.4-.7.9.4-1.3ZM173.1,430.8l.5,1-.3,1.6-.8-2.4.5-.2ZM163.8,407.4h.6c0,0,.8-1.4.8-1.4l1.6,1.1.2-.5h1.4s3,3.1,3,3.1l.4,4.6,3.2,2.1,2.6-.2,4.6,2.1.9-.4h0l1.3.7.2.7-.8,1.2.3,1.1-1,1.7.3.6h1.6c0-.1,1.3.8,1.3.8l1,3.6-.6.6v.9h0l-.3.3h0l-.4.2h0l-2.1,1-.3.6.4.3-1.3,1.1.5,1-.2.5h.5s-.5,1.2-.5,1.2l.6.6v1.5c.1,0-1.6,1.6-1.6,1.6h0l-2.7-1.4-.3-.8-1-.8-.3-2.2h-.9c0,0,0-.8,0-.8l-1.3-.4,1-2.7-.8.5,1-1v-.6s-2.4,2.6-2.4,2.6l-1-1.7-.9.3-1-1.8.5-.4-1.3-1.2v-.5s-1.3-.2-1.3-.2l.7.6-.8.6-.7-.2-.5.9-1.4-1.5-1,.2-.3.6-.9-1.7.7-1.8-.2-.7-.6.5.6-2.2-.9-1.4.2-.9-.3-.3-.3,2-.3-3.1-1.9,1.4-.2-.6-.5.2.3-2.8,1.1-.4-.7-.9.5-.5h0v-1.1s-.5-.7-.5-.7l1.9-3.8v-1.2Z"/>
    <path id="TH-82" d="M158.5,425l1.1.8.8-.2-.2.6.6.7-.4.8.5,1.8-.6,2.5-.5-.9v.8c0,0-.6-2.3-.6-2.3v-1s.5.1.5.1l.3-.9-1.2-.8-.7-1.1-.2-.6.6-.4ZM161.6,422.2l-.8,3.5-.2-.6h-.6c0,0-.8-.7-.8-.7h.8s.4-1.2.4-1.2l1.2-1.1ZM149.5,394.7l1.8,1-1.9,3.9-.6-1.6.5-1.3-.5-1.8.7-.3ZM150.1,389.5l1.5,3.1-1,1.2-1.7.3v-3.2c0,0,.3-1.3.3-1.3h.9ZM151.4,389.9v1.1c.1,0-.6-.9-.6-.9v-.9s.6.7.6.7ZM150.9,386.6l-.8,1.6.2.4-1,.8v-1.2s1.4-1.9,1.4-1.9l.2.2ZM153.5,383.6l.8.3,1-.4.7.7-.4.4,1.7.2h0l.7.4v1.4c.1,0-1,1.8-1,1.8l.2,1.6-.7.2v.8c0,0,.4,1.4.4,1.4l-.7.6.5,1.6.8.7-2,1-.2,2.3,2,.5.3.7h.7c0,0,.6,1.5.6,1.5l1.4.6v2.8c-.1,0-2,1.7-2,1.7l2.2,1.1,1.5-1.1h.8s1,.9,1,.9h0v1.2c.1,0-1.8,3.8-1.8,3.8l.5.7v1.1h0l-.7.5.5,1h-1.1c0,.1-.4-.8-.4-.8l-.6,1.6-2.5,1.2-.3-.5-.4.8-2.1.2.9.6.3,2.4-.8.9-.4,1.8-.7-.8-.8,1.2-.9-2-.8.3-.3-.8h-1.5s-.9-5.5-.9-5.5l-1.7-6.1.3-.4.8.8.6,1.3v-1.2c0,0-1.1-1-1.1-1l.6-.7-.3-1,.5-1-.4-2.3-.6-.5h.7s.8-.9.8-.9l-.3-1.6.4-1.7,1.9-3.7.4-.2.9.6.7,1.1-.8-1.9.7-.3-.7-.2,1.3-1.1-1.7,1.1-1-1,.9-1.2,1.3.5-.3-.6.4-.3h-.6c0,.1.1-.6.1-.6l-.7.2-.3-1.8-.9-1.5.5-.9.4,1.4v-1.3c.1,0,1.2.9,1.2.9l-.4-1.1-.7-.5.8-1.1-.3-.3.6-.3.5-1.8Z"/>
    <path id="TH-83" d="M150.3,421.7l1.5.9.5,2,.7-.2.4,1.1.6.2.9-.6.3.9-1.1,1.5.5,1.3-1.1.3.8,2.7.7-.5v1c.1,0-.3.2-.3.2l.2.4-1.3-.2-.2.7.6.4v1.2c0,0-.5-.4-.5-.4l-.2.3-.4-1.1h-.4s-.7.5-.7.5l-.2,1.4-.9.7-.9-1,.5-.6-.3-1.7-1-1h.9s.2-.7.2-.7l-1.2-.9.8-.7-.4-1h.5c0,.1.2-.3.2-.3l-.7-2.4,1-1.2-.6-2.9h.3Z"/>
    <path id="TH-84" d="M209,375.5l.7.7-1.1,1.9.6,1.4h-.8c0,0-1.3,1.7-1.3,1.7l-1.5.4-.4-.4-.7.2.2-1.3-.5-1.2.5-.2v-1.3s-.7-1.1-.7-1.1l2.3-.6,2.4,1,.6-1.1ZM165,375.1l.9-.9v-1.9c0,0,2.6-.6,2.6-.6l.9-.9,1.1-.2,3,1.1.3-.2,2.3,2,.7-.4-.8-.8.2-.5,1.3.3,1.4-.3h0l.4,1.6,1.3,1.8,1.1,3.9,2.1,2.9-.5-.2-.9,1.3-1.5.8v2.7c.1,0,.7.7.7.7l.9.5,1.4-.8,1,1.1.8-.2.2.9,1.4-.5,1.8.2.8-.5,1.2-2.4,2.5.6,1.3-1.2,1.2-.3v-.8s1.4.8,1.4.8l1.5-.3h0l-.7,1,.2,2.4-.9,2.1.7.5v2.6s-.7,2.7-.7,2.7l-1,.2v1.3c0,0-1.6.2-1.6.2l-.6.6-.8-.5-1,.5-.6,1.2v.8c0,0-1.3.5-1.3.5l.4,2.5-.3,1.3-1,.8-.4,1.6h-.6c0,0-.5.5-.5.5l.2,1-1.6,1.6v.8c.1,0-1.5,1-1.5,1l-.8-.7-.2.7-1,.6-.4-.2.2.4-1.2.8-.8,2.1.2.6,1.1.5.5,1.3h0l-.9.4-4.6-2.1-2.6.2-3.2-2.1-.4-4.6-3-3.1h-1.4s-.2.5-.2.5l-1.6-1.1-.8,1.5h-.6c0,0-1-1-1-1h-.8s-1.5,1.1-1.5,1.1l-2.2-1.1,1.9-1.7v-2.8c.1,0-1.3-.6-1.3-.6l-.6-1.5h-.7c0,0-.3-.7-.3-.7l-2-.5.2-2.3,2-1-.8-.7-.5-1.6.7-.6-.5-1.4v-.8c0,0,.7-.2.7-.2l-.2-1.6,1.1-1.8v-1.4c-.1,0-.8-.4-.8-.4h0l1.3-1.7,1.3-.2.8.9,1.8-.4.2-1.1h-.8s0-1.3,0-1.3h.8c0,0,.3-.3.3-.3l-.4-1h.8c0-.1,2.4-2.6,2.4-2.6l-.3-1-.7-.3v-.6ZM209.2,371.9l-.4.7-2.9-1.6-.6-1.9.3-.7,2.9.4.8.9v2.3ZM201.4,357.6l.6,1.2-.9,1.1-.4-.4.4-.7-.3-.7.6-.4Z"/>
    <path id="TH-85" d="M154.3,369.5l.4,1.2-1.3,1,.2-.5-.5-.4,1.2-1.3ZM155.6,366.4l.5.2-.6,2.2-.7-1,.4-.5-.2-.7.5-.6.2.4ZM169.7,335.6l.3.4h0l.8.9-.7,2.2.4-.3.8.6v.8c0,0,.7.4.7.4l-.2.9.5-.2.2.4-.8,1.2.7,1-1.5,1.1-1.1,1.7.5,2h.9c0,.1.5,1.6.5,1.6l-1.4,2.1.3.8-1.3,2.6.6.9-.6.2-.2,2-.9,1h1.9c0,0,.4,1.3.4,1.3l-1.3,1.1h-.7s-1,1.9-1,1.9l-1.1-.5-.8.6-1.1,1.3v1c0,0-3,2.6-3,2.6l-.2.8.7,2.4.4.3-.4.7,2.5,1.1.6.9h0v.6s.7.3.7.3l.3,1-2.4,2.5h-.8c0,.1.4,1.2.4,1.2l-.3.3h-.8c0,0,0,1.2,0,1.2h.8s-.2,1.1-.2,1.1l-1.8.4-.8-.9-1.3.2-1.3,1.7h0l-1.7-.2.4-.4-.7-.7-1,.4-.8-.3h0v-1.9c.1,0,.9-.2.9-.2l1.2-5.2h.5c0,0-.3.2-.3.2l.5,1,.4-.3.5.8-.2-1.3,1.2-.5-.9-.9-1.4-.3v-.8c0,0,.5-.2.5-.2l.8.9.2-.3-.3-.6.4-.8-.5.2-.5-1.1.8.4.6-.3.9-1.5v-.6s-1.8.3-1.8.3l.4-.5-.2-.9h1s1.3-1.5,1.3-1.5v-.3c-.1,0-1.3,1.2-1.3,1.2l-.7-1.8.6-.2-.2-.5.5-.4.5.4.4-1.5.5-.3.6-2.2,2.4-4.1,2.5-6.7v-2.3c.1,0,2-2.6,2-2.6l-.3-.5.6-1.4-.6-2.6-.9-.5.3-2,3.2-3.6Z"/>
    <path id="TH-86" d="M178.6,327.3v.6c-.1,0,.6.4.6.4l3.7,1.5,2.2-.6,2.1.7,2-1.2h.9c0,.1-.2,1.8-.2,1.8l.9,1.3-.3.9-.4.4-.5-.9-.5.5h-.9s-.9,3.6-.9,3.6l-1.8,2.4.3.5-.4.4-.3-.6-.9.4-1.3,2.3-.2,2-1.2.2v.9c.1,0,1-.2,1-.2l-.3.5-.9.2v.7c-.1,0,1.7,2.1,1.7,2.1v1.6s-.4.3-.4.3l-.6-.3-.5.6-1.5-.9-1.5.9.4,1.8,1.1.8.4-.2v.7c0,0,.5.8.5.8l.9-.2-1.1.8h-.6c0-.1-1.5,2.9-1.5,2.9v1.8c.1,0,1.1,1.1,1.1,1.1l-.2,1h-.5c0-.1-.3.5-.3.5l.5,4.5-.9,1.3.7,3.9h0l-1.4.3-1.3-.3-.2.5.8.8-.7.4-2.3-2-.3.2-3-1.1-1.1.2-.9.9-2.5.6v1.9c0,0-1,.9-1,.9h0l-.6-.9-2.5-1.1.4-.7-.4-.3-.7-2.4.2-.8,2.9-2.6v-1c0,0,1.2-1.3,1.2-1.3l.8-.6,1.1.5,1-1.9h.7s1.3-1.1,1.3-1.1l-.4-1.2h-1.9c0,0,.9-1.1.9-1.1l.2-2,.6-.2-.6-.9,1.3-2.6-.3-.8,1.4-2.1-.5-1.5h-.9c0-.1-.5-2.1-.5-2.1l1.1-1.7,1.5-1.1-.7-1,.8-1.2-.2-.4-.5.2.2-.9-.7-.4v-.8c0,0-.7-.6-.7-.6l-.4.3.7-2.2-.8-.9h0l.5-.2.6-1.5,1.2.5,1.7-1.5-.4-2.2.8-1.6,1.1.8.7-.3.8-2,1.6-.7Z"/>
    <path id="TH-90" d="M219.2,451.4h0c0,0,.3,1,.3,1l1.7.9-.5.3h0l-.7.2-.4,1h.8c0,.1.3,1.4.3,1.4h1c0,0,.1.6.1.6l.4-.4.7.8,2.1-.3,1.4-1.2-.5-1.7,6.5,8.4,1.8.8.7-.4,2,1.8,2.8,1.6h2.3c0,0-.7.7-.7.7l1,.4-1.5,1.6v1.2c.1,0-.3.6-.3.6l1.2.3v1.5c0,0,1.7,1.4,1.7,1.4h0l-.6.5.8.9-1.4,1.4h-.9c0,.1-.6,1.5-.6,1.5l-.8.6h-.8c0-.1-.5,1-.5,1l-1.1.5-.3,1.3.4,2.5-2.6,1.1-.2-.6h0v-1.6c.1,0-.7,0-.7,0v-2.4s-1.5-1.1-1.5-1.1h-.8c0,.1-.4-1.5-.4-1.5l-1.1,1.2-1.8.9-3-1.7-.5.4-1.2-.3-.7-1-1.1-.2-1.1.6-1.9-.8-.4-1.1-1.3-1,.4-2-.9-.5v-1c-.1,0-.7,0-.7,0l-.2.5h-1.2c0,0-1-1.1-1-1.1h0l.3-1.1-.8-1.6,1-2.1-1.2-1.3-2.1-.4-1.4-1.7v-.7c.1,0-.5-.7-.5-.7l.5-.7-.5-.5-.2-1.7h0l.2-1,1.6-.9,1.5.5.6-.9,4.3-1.1,2.4-3.5h0s0,.3,0,.3h0ZM211.5,432.7l2.9-.9.5-.7h2c0,0,.1-.7.1-.7h.8c0,.1,4.1,16.9,4.1,16.9l1.7,3.9,2.3,3.8h-1.1s-2.4-2-2.4-2l-1.2.2h0l-1-.6.7-.4v-.9s-.2-1.7-.2-1.7l-.7-.6.2-3.1-.6-3-2.4-.5-1,2.4-.6-.5-.3-1.2.8-1.3h0l.7.2h0l.4-1.5-.5-3.8h0l-.8-1.7h-.5c0,0-.5.6-.5.6l-1.6.2h0l-.9-.9-1.5.2.6-2.3Z"/>
    <path id="TH-91" d="M182.8,475.5l1.6.9-.4,1.4h-1s-.2-2.3-.2-2.3ZM181.8,475.3l.3.9-1.2.6-1.3-.3.4-.9,1.7-.3ZM195.5,470.8l.8,1.2-.2,1.9.7,2.6-.2.6-.6-.4v.9c0,0-.7.3-.7.3l-2-3.2.5-.5v-1.5c0,0,.9-.6.9-.6v-1.9c0,0,.7.6.7.6ZM199,457.4h.7s2.4,1.9,2.4,1.9l1.3-.9h2.2c0,0,1.1-.6,1.1-.6h0l1,.8.4-.6h.6c0,0,.2,1.7.2,1.7l.5.5-.5.7.7.7v.7c-.1,0,1.3,1.7,1.3,1.7l2.1.4,1.2,1.3-1,2.1.8,1.6-.3,1.1h0l-1.1,1.1.3,1.3-.5,1.1.6,1.5h-.9l.2,2.6-1.3,3.1-.8-3h-.6s.4-1.8.4-1.8l-.6-.2-.5,1.4-1.4-1-1.1-2.1-1.2.8v-1.1s.8-.4.8-.4l-.8-1.6-.5.7-.4-1.1h-.5c0,0,.3-1.3.3-1.3l-.4-.4v.7c-.1,0-.9,0-.9,0l-1.3-2.3-.2.5h-.9c0,0-.9-2.1-.9-2.1l-.8.2-1-1-.8.2-.6-1.4.3-.2-.2-1.3.8-.3-.2-.5-.6.4-.4-1.4.5-.4-.5-.8.9-1.2.2.4,1.2-2.1h.9Z"/>
    <path id="TH-92" d="M192.4,457.7l1.6,1.1-1.7-.4-.4-1.1.4.3ZM186.8,452.7l1.7.4-1.3.4-1,1.2-.6-.6v-1.4c.1,0,.7-.5.7-.5l.4.5ZM186.8,429.8h.8c0,0,.2,2.7.2,2.7l1.5-.9.3.8,1.1.2.8-.2.2-1.2,1.6-1.3.2-.9,1-.8h.9c0-.1,1.5.7,1.5.7l.9-.2.9,1.2-.8.6.3,1.2-.3,1.7h0l1.1,2.2v.6c-.1,0,.4.3.4.3l.2,2,1,.7v1c-.1,0-1.1.2-1.1.2l.8.7-.4,1.2,1.2,1.2-.5,1.1,1,.9v.7c0,0,1.7,2.5,1.7,2.5v2c.1,0,1.2.4,1.2.4l.3,1.7-.4.8,2.2,4.2h0l-1.1.5h-2.2c0,0-1.3,1-1.3,1l-2.4-1.9h-.7s-2.1-.2-2.1-.2l-1.2.7-.3-2-1.7,1.3-.7-.4-2.1-3.7.4-.8.9-.2.8-2.2.4.3-.5-.9-.7,1.8-1.1.8-.7-.4.2-4.1-1,1.8v2.8s-.5.3-.5.3l-2.5-.8-1.9-2.3.4-.8-.7-3-.5-.5-.5.4-.4-.6h.7c0,0,.2-.8.2-.8l-1.1-2v-.9s-.5.4-.5.4l-.3-.4.2-1h0l1.7-1.6v-1.5c-.1,0-.7-.6-.7-.6l.5-1.2h-.5s.2-.5.2-.5l-.5-1,1.3-1.1-.4-.3.3-.6,2.1-1h0l.4-.2h0l.3-.3Z"/>
    <path id="TH-93" d="M219.4,448.1h.2s.1,2.3.1,2.3l1,.9v.7c0,0-.8.4-.8.4l-.5-.2v-1.6c-.1,0-1.2-.8-1.2-.8l1-1.7h0ZM217.8,447.3v-1.9s1.6-.6,1.6-.6l-1.1.9.6,1.3-.2,1-.5.2v1.5c0,0-.7,0-.7,0v-.4c-.1,0,.2-1.7.2-1.7l.6-.2h-.4ZM198,433.1h1.5s.8-1.1.8-1.1h2.7c0-.1,1.1.3,1.1.3l1.3-.2,1,1,2,.8,3.2-1.1h0l-.6,2.3,1.5-.2.9.9h0l-1.8,1.6,1,6.9.9.9.7-.2v1c0,0,1,2.6,1,2.6l1.4,1.2v.5s.9-.5.9-.5l1,.3.7.9h0c0,0-2.4,3.6-2.4,3.6l-4.3,1.1-.6.9-1.5-.5-1.6.9-.2,1h-.6c0,0-.4.6-.4.6l-1-.8h0l-2.2-4.2.4-.8-.3-1.7-1.1-.4v-2c-.1,0-1.9-2.5-1.9-2.5v-.7c0,0-.9-.9-.9-.9l.5-1.1-1.2-1.2.4-1.2-.8-.7.9-.2v-1c.1,0-.8-.7-.8-.7l-.2-2-.5-.3v-.6c.1,0-1-2.2-1-2.2Z"/>
    <path id="TH-94" d="M249.2,463.1l2.6,1.6,5.5,1.2,1,.6,5.6,8.9h-1.8c0,.1-.5-1.6-.5-1.6h-.7c0,.1-.1-.4-.1-.4v.4c-.1,0-.6-.3-.6-.3l-1.2.5.5,1.7h0l-.9.5-1-.2-1-1.6-1.5.2-.3.7-.8-.6-2.9,1.3-1.1-.5-.5-3.8-2.5,2.9-2.7-.4-.8-.6h0l-1.6-1.4v-1.5c0,0-1.3-.3-1.3-.3l.4-.6v-1.2c-.1,0,1.4-1.6,1.4-1.6l-1-.4.7-.6h0l4.1-.3,2.3-1.2,1,.8.7-.3.8.4.5-.5-.9-1.1-.7-.2-.6-.7-1.4.4,1.4-.5Z"/>
    <path id="TH-95" d="M243.4,473.8l.8.6,2.7.4,2.5-2.9.5,3.8,1.1.5,2.9-1.3.8.6.3-.7,1.5-.2,1,1.6,1,.2.9-.5h0l.5.8-2.5,2.5.5.7-2.8-.7.2,1.3h-1.5c0,.1-.2,1.8-.2,1.8l-1,1.2.5,3.2-1.1,1,.6,1.4,1.6,1.2.4,1.6.9.5v2.6c0,0,.7,1.3.7,1.3l-.2,1.5.3.3h0l-1,.6h-2.5s-.8,1.3-.8,1.3l-1.8.9-.9-.5-.4.3-.8,1.7.2,1.6-4.1,3.3-.7-2-1.6-2.1-1.1-.2-1.5-1.9,1-1-.3-.5.6-2.1h2c0,0,1.4-2.2,1.4-2.2l-.7-.7.2-1.2-.3-.7,1-1.6-2.4-1.3.9-1.2,1.3-.5-.7-1.4.2-.4-.6-.4-2.5.2-1.4-1.2-1.2,1.3-1.2.2-.9-.6-.6.7-.8-1.6.3-.6h0l.2.6,2.6-1.1-.4-2.5.3-1.3,1.1-.5.5-1.2h.8c0,.1.8-.4.8-.4l.6-1.4h.9c0-.1,1.4-1.5,1.4-1.5l-.8-.9.6-.5Z"/>
    <path id="TH-96" d="M259.4,475.9l-.5-1.7,1.2-.5.5.3v-.4c.1,0,.3.5.3.5h.7c0-.1.5,1.6.5,1.6h1.8c0-.1,3.1,4.1,3.1,4.1l1.9.9,2.6,2.8,4.4,3.1-.3,1.6.5,1.7-1.3,2.2-2.1,1.3-1.5,1.8-.8,2.3.7,1.5-.9.9-1.1.2v.8c-.1,0-1.8.8-1.8.8l-.3,1.6-1.1-.6-1.1-1.4-1.3.4-.5.9-1.3-1.8v-1.9c0,0-.9-.2-.9-.2l-1.8-1.8-2.7,1.4h0l-.3-.3.2-1.5-.8-1.3v-2.6c0,0-.9-.5-.9-.5l-.4-1.6-1.6-1.2-.6-1.4,1.1-1-.5-3.2,1-1.2.2-1.6h1.5c0-.1-.2-1.5-.2-1.5l2.8.7-.5-.7,2.5-2.5-.5-.8Z"/>
    <path id="TH-LKSG" d="M213.4,435.7l1.6-.2.5-.5h.4c0-.1.9,1.6.9,1.6h0l.5,3.8-.4,1.5h0l-.7-.2h0l-.8,1.3.3,1.2.6.5,1-2.4,2.4.5.6,3-.2,3.1.7.6.2,1.7v.9s-.6.4-.6.4l1,.6h0l-.7.3h0l.5-.3-1.7-.9-.3-.9h0c0,0,0-.3,0-.3h0c0-.1-.7-1.1-.7-1.1l-1-.3-.9.5v-.5s-1.4-1.2-1.4-1.2l-1.1-2.6v-1c0,0-.7.2-.7.2l-.9-.9-1-6.9,1.8-1.6ZM217.8,445.5v1.9s.4.1.4.1l-.6.2-.2,2.1h.8c0,0,0-1.4,0-1.4l.5-.2.2-1-.6-1.3,1.1-.9-.5.4-1,.2ZM219.4,448.1h0l-1,1.7,1,.8v1.6c.1,0,.6.2.6.2l.8-.4v-.7c0,0-1-.9-1-.9v-2.3c-.1,0-.4,0-.4,0Z"/>
  </g>
</svg>