<svg xmlns="http://www.w3.org/2000/svg" xmlns:amcharts="http://amcharts.com/ammap" id="Layer_1" viewBox="0 0 512 512"><g id="_x3C_defs"><amcharts:ammap bottomLatitude="35.129" leftLongitude="52.448" projection="mercator" rightLongitude="66.707" topLatitude="42.799"/></g><g><path id="TM-M" d="m353.5 430.5 14.4-4.7 13.7-8.2.8-18.3 33.3-6.2 15.3-12 8.9-25.5-43.2-.2-.7-21.7 7.8-12.2-95.1-85.8-19.9 34.7 18.5 38.5-.6 22.8 16.1 5.4-5.2 4.7-9.6-8.7 17.8 30.8 3.2 31.3-6.3 17.7 20.8 4.6 9.9 12.9Z"/><path id="TM-L" d="m440 355.7 1.8-11.9 26.8-6.2 8-14.3 24.8 11.3 5.8-29.9-36.1-11-67.1-43.3-44.5-37.6-20.4-52-14.4-8.1-6.7 6.6-9.8-3.4-.8 10.7h-26c0 .1 9.5 70.2 9.5 70.2l17.9-1.2 95.1 85.8-7.8 12.2.7 21.7 43.2.2Z"/><path id="TM-D" d="m222.6 81.5-16.5 8 13.1 15.7-17.5-9.4-5.2 14.5-16.6 1.3-15.3 14.2 7 24.4-21.8 2.5 22.4 56.4 46.5-5.6 25 9.7 28.7.2.6 16.5 17.9 7-9.5-70.1h26c0-.1.8-10.8.8-10.8l-18.6.8-13.6-8.4-1.6-17.2 7.2-1.3-12.3-8.9 4.3-11.1-27.3-7.1z"/><path id="TM-A" d="m290.9 236.8-17.9-7-.6-16.5-28.7-.2-25-9.7-46.5 5.6-6.4 4 4.2 17.3-18.8 50.7 20.1 11.6 7.6 13.3 30.9 13.4 38.5 6.1 5.3 14.4 19.7 8.1 11.4 17.2h29.2l-1.3 29.3 10.2 18.5 6.3-17.7-3.2-31.3-17.8-30.8 9.6 8.7 5.2-4.7-16.1-5.4.6-22.8-18.5-38.5 19.9-34.7-17.9 1.2Z"/><path id="TM-B" d="m149.9 152.7-38.4.9-19.2-30.9-27.8-19.4L24 113.4l-19.2 18 15.7 33 1.2-29.4h-5.2l6.8-14.7 30.4-6.7 9 30.2 24.5 21.3-4.5 9.3-13.8-2.4 5.4 10.1-24.2 2.2-3.4-12.2-5 7-12.9-1.5-7.2-14.8-6.4 28.1v20l9.6 13.3-3.3-11.8 23.4 2.5-5.6 14.7 11.2 5.6H32.2c0 .1 2.1-6.3 2.1-6.3L27.6 241l2.7 10.1-.4-7.5 14.6-.4 14.9 20-5.5 17.7L57 334l26.2-4.3 7.2-14.4 20.9-14.5 59.8-8-20.1-11.6 18.8-50.7-4.2-17.3 6.4-4-22.4-56.4Z"/></g></svg>