<svg xmlns="http://www.w3.org/2000/svg" xmlns:amcharts="http://amcharts.com/ammap" id="Layer_1" viewBox="0 0 512 512"><g id="_x3C_defs"><amcharts:ammap bottomLatitude="22.497" leftLongitude="51.532" projection="mercator" rightLongitude="56.382" topLatitude="26.079"/></g><g><path id="AE-AJ" d="m406.6 132.5 2.1-3.2.3.5 1.1-.4-.2 2.8h.3v-1.8l.8.3-.6-1.1 1-.6h.4v-1.2l-.3.9h-1.9l3.1-4.1v-1.2l1-.5 1.4 3.3 1.7-.2 2.8 2.4h5.6l3.2 1.5-2.9 6.7-9.8-.5-6.4-1.9-2.6-1.9Zm57.2 12.9-1.7-3 2.3-2.6 2.1 1.1.5 2.2-3.1 2.4Z"/><path id="AE-AZ" d="m266.8 269.2.3 2.2-1.5.3-1.7-1.4h-2l-1.1-.8.8-1.7 4 .5zm2.4.5h-.9l-1.6-2.9 2.8 1.5zm-215.1-3.3.6.6.2 4.3-1.8-.7zm145.9-1.9 1.3.9.4 2.3-2.9.3-1.9-2.5 3.2-1Zm72.3 3-.2 1.1-1.7-.2-2.3-2.7-1.4-.3v-1.3h2.2l3.5 3.5Zm-216.2-6.6 1.3 1.2v1.9c-.1 0-1.9 2.4-1.9 2.4v-.9h-1.3l.6-3.5 1.3-1Zm189.3 3.4 1.1 1.4 7.6 1.2 2.5 3-1.5 4.1-3.7 1.1-4-.8-.4-.9-2.8-.2-.7-2.4-1.3-.7-.8 1.1-.2 3.7-6.6.4-2.3-.3-4.9-3.4h-1.3l-1 .9h-2.9l-1.3-2 1.6-1.7 6.6-2.1.7-1.5 3-1.8 1.1 1.1 4.5-2.1h1.6l2.6-2 .3-1.3 3.1.7-1.6 1-.2 1.6 1.4 1.9Zm-67.8-9.7 2.1 1.8v1.3l-1.6.2-1.2-1.5v-1.1c-.1 0 .7-.7.7-.7m14.1-.5 2.3 1.7h-1.9l-.7 1.5.5 3.3-1-.4-.7-1.6-3.5-1.5-1.1.4-.8 2.2-1.9-.2-.7-1.2-1.6-.6.3-1.1 3.6-.2.2-.6 7.1-1.7Zm29.1 2.2-2.8.6-.6-1.2.6-1.1 1.5-.6 1.2 2.3Zm-53.9-5 1.2 2.6.6-.3v1.2l-3.2-1.7V252c.1 0 1.5-.7 1.5-.7Zm122.8 8.8-1.1.9-3.6-.8-1.5 1.6-2.3-2.2-1.2-2.8-2.7-.4-.2-3.2 3.2-1.1 1.3-2 2.6 2 1.8 4.6 2.7 1.6.9 1.9Zm-173.1-11.3 3.7 1.3 1.1 1.9h-.2l-.5 4.1-1.4 1-.7 2-.3-.3v-.9c.1 0-1.1.8-1.1.8l-1.1 1.9.9-.7v1c.1 0-1.4.7-1.4.7l-.7-1 .5-1.3-2.3-3.2-.5-3.9 1.6-2.8 2.4-.8Zm176.5 3.6-.4 1.2h-2.5l-.3-1.6 1.8.8.7-1.3-3.6-3.9v-1.3h1.3l3.7 3.6-.7 2.7Zm-6.7-1.8h-1.3l-1.1-1.3-6.5-2.1 4.2-.2 1.9-2.5 1.6-.5.6 1.8-.9 2.1 1.3 1 .3 1.7ZM8.1 242.1l2.4.5-.9.3-.9.8h-.3l-.6.2-1 .7v-1c-.1 0 1.3-1.5 1.3-1.5m285.9-2.5 3.8 2.7 5 1.8-.2.5-1.8.7-5.1-2.2h-1.5zm18.2-1.7 3.1 1.2.7 1.6-.8.2-.4-.6-1.8 1.5-1.5.2v-.6l-1.7-.2-.5-1.2.6-1.4v1.2l2.1.3-.5-1.7.7-.4Zm-20.9-1.8-.8 1.8.9 1.5-1-.6-.3 1-.3-1.4.6-1.8.9-.4Zm20-.2 6.6 2.1 1 1.7-2.4.8-.9-1.6-4.3-1.8-.5-.9.6-.2Zm-6.1-1.8 3.4 1.2 1 1.9-1.3 1 .3.9-4.1-3.3.2-.6.3-.2v-.8Zm-3.3-1.9 1.3.7-.3.9 1.2 1.7-.9 1.2-2.5-1.8.3-2.4.9.4zm-215.4-3.6L89 230l.9 4.4h-1l.2.9-1.5 1.5-.4 5.9-.9.2.5-5.6-.5-1.3-.5.2-1.5-1.4-.6-2.1 3.1-4Zm226.7-1.4 3.1 1.6.4 1.6-3 .3-2.2-2.4zm.4-2.5 7.7 1.3-.6 1.3-.7-1.2h-.7c0 .1 1.1 1.6 1.1 1.6l-3.1-1.5-2 .7-1.8-1.3v-.9Zm-4.5-.8-1.9 4 1.8 4.6-.3 1.9-.3-1.4-5.7-1.6-1.8-2 3.9-1 4.2-4.4Zm-282.8-1.7 1.3 1.3-1.7 2.6-1.1-1.6.5-1.6 1.1-.7Zm292.1-2 1.1.5.3 1.7-1.4-.2.3-.9-.8-.8zm-1.5-2 .8 3.6-1.2-.8-1.9.8-2.5-.4.4-1 .7.5 1-.5 1.1-2zm-204.6-18.5 1.1 1.2-.7 1.9-1.6-1.8.2-1.1h.9Zm52.3-11 1.2.5 1.3 2.5-.9-.7-.2 1.9-2.6-2.7 1.1-1.6Zm-22.6-5.2 1 1.6-.5 1-1.7-1.9 1.1-.7Zm-46.5-2.4 1.1 1.5-.4.8-1-.9zm203.7 80.6.6-.7v-.6c.1 0 3.8-2 3.8-2l1.8-1.8-1 .2 2.3-3.2 1.7-6.7 5.2-.3v-.8l-3.7.7-.7-.9.5-.2.5-.8-2.2.7-.5-1-.7.5-5.2-2.5-.6.4-2.7-1.1-2.5-2.2-.6-.5-1.6-.4-.9.7-1.2-.7v-.7l.9-.2.3.8 3.5-2 2.5-3.6-1-1 1.6-2.3.4-.3.8.5-.6 1.1 1.1 1.2-1 1.5.6 1.5 3 2.8 2 .2 1.1 1.1-.3.8 2.3.3 2 2.3 3.9-.2 8.7-2.8.3-1.2-4.1 1.1 1.3-3.6h-5.1l-6.2-1.2 1.1-1-1-2.3-1.6-2.8.9-2.2.2-.3h1.7v1.8l2.9 3.4 5.2 1.6 2.8-.3 1.7-2.2.3-2.2 1.2-.8.7-.7 1.2-3.8-1.3-1-4.2 1.9-.5-1.7-1.3-2.8 1.2-1.1-.5-1.6.3-.7 3 .4.5 3.2-1.6.7 1.1 1.4-.2-1 2.8-.3 2.1-1.9-1.4-1.2 2.5-.5-.7-.9-.5.2-1.1-.2v-1.2l-.5-.2.9-.6.9.5 1-1.3v-1h-1.1l.5-1.2.7.3-.2-1.8-2.5-.4-.5-.7 1.2-.3v-.9l-.3-.3 4.9-4.6 1.7-3.5.8-.3.8-1.8 1.2-.8-.3 1 1.2-.8 1.7.2.3-2 1 1.2 2.1-.9v-.7l1.1.4h.2c0-.1 4.1-3.1 4.1-3.1l-.5-.9.5-.3.6 1.1.2-1.6.3-.3.6.4 2.9-2 .8.2 6.6-5.9 4.7-1.5.7 2 14.5 41 13.9.2 2.7-1h12.1l4.9-1.3 1.5-.8 3.9-3.8 2.8-.3 5.6-3.4 2.5-.2 3.1-2 8.9 2.5 4.8-.7 1.9-1.3 2 6-2.9 3.1v4.3c.1 0-2.7 1.7-2.7 1.7l-.2 1.7 1.2 4.7v8.4c-.1 0 3.7 4.4 3.7 4.4l.2 7.5-4.5 6.8-1.2 4.4 1.8 1 3.1-.3 3.8 1.7 5-2.5 3.8-.2 2.2 4.5.7 5.1 2 2.5 2.7 5.7-12.7 3.7-7.6 3.8-5-2.9-4.3 1.5-9.6-.8-5.5 3.2-4.6 2.8-6.5 1.1.5 3.6 7.8 4.7.5.9.6 12.7-5.4 7.6-2 4.3-2.4 12.6-7.6 8.6-3.1 15.3-2.3 6.6-10.4 17.5-.7 5.9-2.5 5.9-.4 9.2.9 13.1-1.7 9 .4 3.6-21 22.3-178.2-41.1-71-14.2-68.6-82.3-33.7-42 1.5-12.6-2.2-3.5 1.5-.7.9-2.6-1.2-3.1v-4.7l-1.1-1.2 1.1-.6-.2-1.1 1.1.6 1 1.8 1.1.4.7 2.8 1.4 1.7-.2.7h-.7l.7.7h-.9l-.5 2.1.6 5.3 1.1 1.6-.3 1-1-.2.3.8 3.1-2.2.7-1.9-.6-5.4-1.8-2 .5-2.1 1.8 3.9v1.8l1.8 2.8.7 4.2 1.6.3 1.1-.9-.7-3.3 3.1-4.3-.4-.8 3.9 2.8-.2 8.8-.9.8-.5 1.6v1.5l2.3 7.2v6.7l1.7 2.9 3.5 2.4 8.1 1.1.5-.2-1.3-.9v-.9l1.4.4.7-.9 3-.7 1.2 1.8 3.2.6 2.3-1.1 2.1 2.2 4.3 1.4 2.4-1.1 3.5 1.1 6.4-.4 12.1-4.1 3.6-3.2 6.1-2.4 4-2.5.5-1.9-2.6-1.8v-1.7l1.5.2-.7 1.8 2.6 1.2.8-1h2.5l2.1-1.7 5.6-2.5-.8-1.2.4-4 3.3-1.5 2.6 1.1v.2l.7 2.1 2.3 1 1.5 2.8.9-.2.2-.9 3.2.4h2l.4-1 3.3 2.8 7.3-2.5 2.3 1.9 3.4-.4 2.3-1.3 1.3 1.5h1.4l4-2.8 3.2 1.9.7-.3.9-.2 2.5 2.6h1.3l4-1.6h2.6c0-.1.3-3.3.3-3.3l1.3-.6 5.9 2.7.6 1.6 3.3 2.9h2.4v-.8l2.7.6.6-.5 1.4 1.8.6 1.1.2.7 2.6-.7-.6-1.8 1.3.2 2.5-1.2h3.9l1.8-1.3 2.3-.3 1.6 1.9.7-.6v1.1c.1 0 1.4.4 1.4.4l1.8.8 3.7.7.6 1.7 2.9 2.9 4.2.5 6.8-1.3 2.6-1.6 3 1.2 13.8.7 18.8-7.6 4.3-.2 6.3-2.9 2.2-4 2.3-.6v-1.7l-5.4-4.3-3.7-2-2.5-.2-.2-1 1.5-.4-1-2.4 5-3.2.4 2.6 2 2.8 6 6.3 2.2.8 6.5-1.4 4.3.9 1.4-2.8 2-.9Zm-154.5-103 .7.5v2.4c-.1 0-1.5-1.6-1.5-1.6v-1.3zm138.5-10.1 1.7 1.9.3 2.9-3.3-.7-1-.9v-2zM97.1 99.9l.5 1.4-.7.6-.6-1 .8-.9Z"/><path id="AE-DU" d="m370 175 2.1-1.3 11.5-13.3 6.7-9.4v-1.6h.6l-.5-.4h.9l.1-.7-.6-.6 1 .6 1-1.6-1.1.7v-.5c-.1 0 1.4-1.4 1.4-1.4v1.9c.1 0 1.7.2 1.7.2l4 4.2-1 2.5-1.7.6v.9c-.1 0 .7-.9.7-.9l.5.8 1.6-1 .9-2.7-4.8-4.7h-1.6l.3-1.1 4-2.9 5 1.4 7.1-2.6 1.2 2.7 1.1 1.2 4.2 1.9 3.3 3.5 4.9 3.1h2l.8.8 4.1 16.5-3.4 3.9-1.1 3.8.8 2.5 3.1 3.3.9 3.5v4.5l2 9.9-.6 5.8-.5 1-3.1 2-2.5.2-5.6 3.4-2.8.3-3.9 3.8-1.5.8-4.9 1.3h-12.1l-2.7 1-13.9-.2-14.5-41-.7-2 1.7-1.6 2-.6-.5-2.5 1.6 4.3-.5.7h1l2.1-2.4-2.3 1.4-.2-.6 1.9-1.7-2.1 1.3-1.1-3h2.2Zm116 22-1.2 5-2.5 1.1-1.4 3.3-2.5.8-3.2-.2-3.1-1.4 3.2-3.6 1.7-4.5 9.1-.5Z"/><path id="AE-FU" d="m495.5 193.2-.4.6-1.9-4.1-.7-.3.8-1.5.3-1.9 2.7-.4 4.4.6.5.4-.5 3-4 1.3-1.1 2.5Zm9.2-51-1.7 11.4v13.9h-6.6l-1.5 1.5v2.1l2.1 3.6-.3 6.2-5.7-.8-2.7-2.6.2-2.7-2.7-3.5-2.3-1-1.9.3v-3.3h.1v-8l1.5-6.5 3.8-2 1.5 1.2 3.7.7 1.5-.2 1.4-1.4 4.7-3.8.5-2.3 4-2.9h.3Zm-19.8-39.8 1.7 1.4 1.1 2.3 2.2 1.4h1.4c0 .1 2.4-2 2.4-2l.7 2 1.4 1.2.2-.6h1l-.3-.5 5.9 2.1v5.6l1.5 2.4-1.1 4.4.5 7.3-2.4 2.1-2.5 2.7-4.7 2.1-.7 1.7-.5 2.9-3.8 1.6h-1.7l-1.2-.7.5-1.3-3.9-1.1h-1.3c0 .1-2.7 2.1-2.7 2.1l-.2 1.1 2.5-.2.9 1.1 2.8.5-1.1 1.8-3.3.9.3 4-1.1.3-1.4 2h-2.2l-2.3-1.4-2.6 1.2-2.6-1.1h-3.7l.6-2.8-1.5-3.6 3.1-2.4-.5-2.2-2.1-1.1 1.9-5.6 2 2.5 7 2.1 1.7-.6 1.2-2.1 2.3.4.4-4.8-3.7.5-1-.5-.6-1.5 4.1-5.5-3.1-4.1-3.9 1.9h-5.7l-2.6-.7-1.8-11.2 1-1.1 3.3.5 2.5-1 .9-2.1 2.8-2.3 1.9 1.1 2.5-1.4 3.7-.3 1-1 2.8-.3Z"/><path id="AE-RK" d="M464.7 151.8h3.7l2.6 1.1 2.6-1.2 2.3 1.3h2.2l1.4-2 1.1-.3-.3-4 3.3-.9 1.1-1.8-2.8-.5-.9-1.1-2.5.2.2-1.1 2.7-2h1.3c0-.1 3.9 1 3.9 1l-.5 1.3 1.2.7-.9 2.3.9 6-3.8 2-1.5 6.5v8l-.2 4.6.2 1.7 3.1 5-.2 3.6-2.1 1.7v1.7l1.5 1.9 7.9 1.6 1.1.5 1.9 4.1-3.7 1.8-4.1.4-1.2 1-9.1.5-5.3-4.8-1.6-9-1.1-2.4-3.3-1.7h-2c0-.1-.4-2.6-.4-2.6l-2.5-4.1-.2-4.6 3.6-7.2-3.1-4v-2.3c.1 0 3.4-1.9 3.4-1.9l.2-1.2Zm5.8-80.3-1.8 4.7-.3-.5zm.8-3.3.6.8-.7.6v-.5c-.1 0 .1-.9.1-.9m11.1-12.8 1.1 1.4.6 2.6v6.9L480.8 84v2.1l1.6 4.1-1.1 5.1.2 6 .7 1.5-1 1-3.7.3-2.5 1.4-1.9-1.1-2.8 2.3-.9 2.1-2.5 1-3.3-.5-1 1.1 1.8 11.2 2.6.8h5.7l3.9-2 3.1 4.1-4.1 5.5.6 1.5 1 .5 3.7-.5-.4 4.8-2.3-.4-1.2 2.1-1.7.6-7-2.1-2-2.5-2.3-1.3-1.6.5-.3 4-1.7 3-1.7-2.5-1.8-2.6-4.2-2.9 2.6-2.7v-.9h-.1l-4.6-4.1-1.5-2.6.3-5.1-.7-3.4-1.5-2.5-1.7-5.9H442l-1.7-2.4 2.6-3.6 1.5.3-.3-.9h1.1l-1.2-.8 1.5-2.4.3 1 3.3.2 3.9-1.5 6.6-6.8 1.4-2.8.2 2.4-.8 1.5.9-.4h1.4l-1-1h1.1l.1-.5h-1.5v-1.7l1.5-1 1.3-.3 2.4-4.6h.6l.5-2.6h3.2l-.4-.7 1.3-2.2-.5-1.6 1.3-2.8-1.7-3.9.9.9 1.7-1.7 1.9-8.9.7-.8 1.7.3 2.1-.8 2.7.4Z"/><path id="AE-SH" d="m493.2 187.8-.8 1.5-.3-.2-7.9-1.6-1.5-1.9v-1.7l2.1-1.7.2-3.6-3.1-5-.2-1.7v-1.3l1.9-.3 2.3 1 2.7 3.5-.2 2.7 2.7 2.6-1.1 1.7.2 2.1 3.4 1.5-.4 2.3Zm9.9-20.3.4 5.3.5 1.1h-.1c0 .1-.7 2.1-.7 2.1l1.5 3.8-3.3.6-.7 1.7-3.9-1.1.3-6.2-2.1-3.6v-2.1l1.5-1.5h6.6Zm-7.6-23.7 1.7.8v1.7l-1.7 1-1.7-.8V145l1.7-1.1Zm8.1-14.4v3.4l-1.7 3.1 1 1.9.9-.2v-1l1.1 1.2.6 2.8-1 1.4-4 2.9-.2-3.1-.8-2.5.3-6.3 1.4-1.6 2.4-2.1Zm-87.3-10.1 3.3 2.3 4.7 2.4 1.1 2.1 2.3 1.2 7.4 2.2 2.4 3.2 5.5 3.9.5.7 1.9 7.4 1 .8 4.3.6 5.7-2.1.5-.4.3-2.6-1-2.8h2.5c0-.1 1.7 2.3 1.7 2.3l1.7-3 .3-4 1.6-.5 2.3 1.3-1.9 5.6-2.3 2.6 1.7 3 1.5 3.6-.6 2.8-.2 1.2-3.3 1.9v2.3c-.1 0 3 4 3 4l-3.6 7.2.2 4.6 2.5 4.1.4 2.5h-4.2l-6.3 3.4-6.5 8.2-.5 3.3 1.9 8.9-.8 4.9.6 2.2-1.9 1.3-4.8.7-8.9-2.5.5-1 .6-5.8-2.1-9.9v-4.5l-.8-3.5-3.1-3.3-.8-2.5 1.1-3.8 3.4-3.9-4.1-16.5-.8-.8h-2l-4.9-3.1-3.3-3.5-4.2-1.9-1.1-1.2-1.2-2.7-7.1 2.6-5-1.4 3.6-5.5-.2-1.4.7.2 1.1-1.2h.5l-1.2 1.4v1.5c-.1 0 .4-.2.4-.2l-.3 2.1 1.1.4.5-1.1-1.5-2.6 1.8-1.5v-1l2.7-1.9 2.6 1.9 6.4 1.9 9.8.5 2.9-6.7-3.2-1.4h-5.6l-2.8-2.4-1.7.2-1.1-2.6.9-.4h-.9l2.3-4.1Z"/><path id="AE-UQ" d="m428.5 114.6-.6-.7.8-.2-.2-.8 1.2-1.9 1.9-1 1.7-2.8 1.3.4.2-1h.6l-.5-.5 2.9-1.1 2.3-2.2 1.7 2.4h3.5l1.7 6 1.5 2.5.7 3.4-.3 5.1 1.5 2.6 4.6 4.1v.9c.1 0-2.5 2.7-2.5 2.7l4.2 2.9 1.8 2.6H456c0 .1 1 3 1 3l-.3 2.6-.5.4-5.7 2.1-4.3-.6-1-.8-1.9-7.4-.5-.7-5.5-3.9-2.4-3.2-7.4-2.2-2.3-1.2-1.1-2.1-4.7-2.4-3.3-2.3 3.9-7.9 1.5-1.1.8-2 .6 2.5-.4.8h-1.4l-.5 4.2.6 2.2.6-1 1.5.3.8-.8 1.7.2 1.3-.8 1.3.5 1.7-1.1-1.6.2zm-60.7-34.7-1.1.7-.9-1.1-.9.2v-1.3c.1 0-.7.2-.7.2l.4-1.4 2.5-1.8 1 .3 1.1 3.8-.3.6-1.1-.4Zm61.1 30.7-1-1.2h-.9c0 .1-.1-.7-.1-.7l-2.2 2h-1.2l1.7-1.9 4-2.1 1.2.2 2.4-1 4.1-3-4.7 4.1h-1.5c0 .1 1.1 1 1.1 1l-2.4-.3.7 1.2-.4.7-1.4-.4.7 1.6Zm-6.4 5.5-.4-2.1.7-2.3 1.4 4-.7 1.2-1-.9Zm3.6-5 .4-.6-.6-.3 1.5-.6 1.1 1.4-1.9 1.9-1.3-.5zm1.2 2.5-1.1 1.4-1.2-.8v-.5l2.3-.2Zm-2.6 1.2 1.7.6-1.5.6z"/><path id="OM-MU" d="m500.3 141.9.2 3.1-.5 2.3-4.7 3.8-1.4 1.4-1.5.2-3.7-.7-1.5-1.2-.9-6 .9-2.3h1.7l3.8-1.6.5-2.9.7-1.7 4.7-2.1 1-1.2-.3 6.3.8 2.5Zm-4.8 1.9 1.7.8v1.7l-1.7 1-1.7-.8V145l1.7-1.1Z"/><path id="AE-NZ1" d="m472.1 205.6-.6-2.4-2.5-3.8v-2.8l-3.7-3.5-.9-2.8 2.3-1 2.1.9 8.1 7.2-1.7 4.5-3.2 3.6Z"/><path id="AE-NZ2" d="m501.2 186.4-.5-.4-4.4-.6-2.7.4v-.4l-3.4-1.5-.2-2.1 1.1-1.7 5.7.8 3.9 1.1.5 4.3Z"/></g></svg>