<?xml version="1.0" encoding="UTF-8"?>
<svg id="Layer_1" xmlns="http://www.w3.org/2000/svg" xmlns:amcharts="http://amcharts.com/ammap" version="1.1" viewBox="0 0 512 512">
  <!-- Generator: Adobe Illustrator 29.1.0, SVG Export Plug-In . SVG Version: 2.1.0 Build 142)  -->
  <g id="_x3C_defs">
    <amcharts:ammap bottomLatitude="22.496694" leftLongitude="51.532367" projection="mercator" rightLongitude="56.382113" topLatitude="26.079028"/>
  </g>
  <g>
    <path id="AE-AJ" d="M406.6,132.5l2.1-3.2.3.5,1.1-.4-.2,2.8h.3c0,0,0-1.8,0-1.8l.8.3-.6-1.1,1-.6h.4v-1.2c0,0-.3.9-.3.9h-1.9c0,0,3.1-4.1,3.1-4.1v-1.2c0,0,1-.5,1-.5l1.4,3.3,1.7-.2,2.8,2.4h5.6s3.2,1.5,3.2,1.5l-2.9,6.7-9.8-.5h0l-6.4-1.9h0l-2.6-1.9ZM463.8,145.4l-1.7-3,2.3-2.6,2.1,1.1.5,2.2-3.1,2.4Z"/>
    <path id="AE-AZ" d="M266.8,269.2l.3,2.2-1.5.3-1.7-1.4h-2s-1.1-.8-1.1-.8l.8-1.7,4,.5,1.2.9ZM269.2,269.7h-.9l-1.6-2.9,2.8,1.5-.3,1.4ZM54.1,266.4l.6.6.2,4.3-1.8-.7,1-4.2ZM200,264.5l1.3.9.4,2.3-2.9.3-1.9-2.5,3.2-1ZM272.3,267.5l-.2,1.1-1.7-.2-2.3-2.7-1.4-.3v-1.3c0,0,2.2,0,2.2,0l3.5,3.5ZM56.1,260.9l1.3,1.2v1.9c-.1,0-1.9,2.4-1.9,2.4v-.9c.1,0-1.3,0-1.3,0l.6-3.5,1.3-1ZM245.4,264.3l1.1,1.4,7.6,1.2,2.5,3-1.5,4.1-3.7,1.1-4-.8-.4-.9-2.8-.2-.7-2.4-1.3-.7-.8,1.1-.2,3.7-6.6.4-2.3-.3-4.9-3.4h-1.3l-1,.9h-2.9l-1.3-2,1.6-1.7,6.6-2.1.7-1.5,3-1.8,1.1,1.1,4.5-2.1h1.6l2.6-2,.3-1.3,3.1.7-1.6,1-.2,1.6,1.4,1.9ZM177.6,254.6l2.1,1.8v1.3s-1.6.2-1.6.2l-1.2-1.5v-1.1c-.1,0,.7-.7.7-.7ZM191.7,254.1l2.3,1.7h-1.9c0,0-.7,1.5-.7,1.5l.5,3.3-1-.4-.7-1.6-3.5-1.5-1.1.4-.8,2.2-1.9-.2-.7-1.2-1.6-.6.3-1.1,3.6-.2.2-.6,7.1-1.7ZM220.8,256.3l-2.8.6-.6-1.2.6-1.1,1.5-.6,1.2,2.3ZM166.9,251.3l1.2,2.6.6-.3v1.2c0,0-3.2-1.7-3.2-1.7v-1.1c.1,0,1.5-.7,1.5-.7ZM289.7,260.1l-1.1.9-3.6-.8-1.5,1.6-2.3-2.2-1.2-2.8-2.7-.4-.2-3.2,3.2-1.1,1.3-2,2.6,2,1.8,4.6,2.7,1.6.9,1.9ZM116.6,248.8l3.7,1.3,1.1,1.9h-.2c0,0-.5,4.1-.5,4.1l-1.4,1-.7,2-.3-.3v-.9c.1,0-1.1.8-1.1.8l-1.1,1.9.9-.7v1c.1,0-1.4.7-1.4.7l-.7-1,.5-1.3-2.3-3.2-.5-3.9,1.6-2.8,2.4-.8ZM293.1,252.4l-.4,1.2h-2.5c0,0-.3-1.6-.3-1.6l1.8.8.7-1.3-3.6-3.9v-1.3h1.3l3.7,3.6-.7,2.7ZM286.4,250.6h-1.3l-1.1-1.3-6.5-2.1,4.2-.2,1.9-2.5,1.6-.5.6,1.8-.9,2.1,1.3,1,.3,1.7ZM8.1,242.1l2.4.5-.9.3-.9.8h-.3c0,0-.6.2-.6.2h0c0,0-1,.7-1,.7v-1c-.1,0,1.3-1.5,1.3-1.5ZM294,239.6l3.8,2.7,5,1.8-.2.5-1.8.7-5.1-2.2h-1.5s-.2-3.5-.2-3.5ZM312.2,237.9l3.1,1.2.7,1.6-.8.2-.4-.6-1.8,1.5-1.5.2v-.6s-1.7-.2-1.7-.2l-.5-1.2.6-1.4v1.2c0,0,2.1.3,2.1.3l-.5-1.7.7-.4ZM291.3,236.1l-.8,1.8.9,1.5-1-.6-.3,1-.3-1.4.6-1.8.9-.4ZM311.3,235.9l6.6,2.1,1,1.7-2.4.8-.9-1.6-4.3-1.8-.5-.9.6-.2ZM305.2,234.1l3.4,1.2,1,1.9-1.3,1,.3.9-4.1-3.3.2-.6.3-.2v-.8ZM301.9,232.2l1.3.7-.3.9,1.2,1.7-.9,1.2-2.5-1.8.3-2.4.9.4v-.7ZM86.5,228.6l2.5,1.4.9,4.4h-1c0,0,.2.9.2.9l-1.5,1.5-.4,5.9-.9.2.5-5.6-.5-1.3-.5.2-1.5-1.4-.6-2.1,3.1-4ZM313.2,227.2l3.1,1.6.4,1.6-3,.3-2.2-2.4,1.7-1.1ZM313.6,224.7l7.7,1.3-.6,1.3-.7-1.2h-.7c0,.1,1.1,1.6,1.1,1.6l-3.1-1.5-2,.7-1.8-1.3v-.9ZM309.1,223.9l-1.9,4,1.8,4.6-.3,1.9-.3-1.4-5.7-1.6-1.8-2,3.9-1,4.2-4.4ZM26.3,222.2l1.3,1.3-1.7,2.6-1.1-1.6.5-1.6,1.1-.7ZM318.4,220.2l1.1.5.3,1.7-1.4-.2.3-.9-.8-.8.5-.3ZM316.9,218.2l.8,3.6-1.2-.8-1.9.8-2.5-.4.4-1,.7.5,1-.5,1.1-2,1.6-.2ZM112.3,199.7l1.1,1.2-.7,1.9-1.6-1.8.2-1.1h.9ZM164.6,188.7l1.2.5,1.3,2.5-.9-.7-.2,1.9-2.6-2.7,1.1-1.6ZM142,183.5l1,1.6-.5,1-1.7-1.9,1.1-.7ZM95.5,181.1l1.1,1.5-.4.8-1-.9.3-1.4ZM299.2,261.7l.6-.7v-.6c.1,0,3.8-2,3.8-2l1.8-1.8-1,.2,2.3-3.2,1.7-6.7,5.2-.3v-.8c0,0-3.7.7-3.7.7l-.7-.9.5-.2.5-.8-2.2.7-.5-1-.7.5-5.2-2.5-.6.4-2.7-1.1-2.5-2.2-.6-.5-1.6-.4-.9.7-1.2-.7v-.7c0,0,.9-.2.9-.2l.3.8,3.5-2,2.5-3.6-1-1,1.6-2.3.4-.3.8.5-.6,1.1,1.1,1.2-1,1.5.6,1.5,3,2.8,2,.2,1.1,1.1-.3.8,2.3.3,2,2.3,3.9-.2,8.7-2.8.3-1.2-4.1,1.1,1.3-3.6h-5.1c0,0-6.2-1.2-6.2-1.2l1.1-1-1-2.3-1.6-2.8.9-2.2.2-.3h1.7v1.8c0,0,2.9,3.4,2.9,3.4l5.2,1.6,2.8-.3,1.7-2.2.3-2.2,1.2-.8.7-.7,1.2-3.8-1.3-1-4.2,1.9-.5-1.7-1.3-2.8,1.2-1.1-.5-1.6.3-.7,3,.4.5,3.2-1.6.7,1.1,1.4-.2-1,2.8-.3,2.1-1.9-1.4-1.2,2.5-.5-.7-.9-.5.2-1.1-.2v-1.2s-.5-.2-.5-.2l.9-.6.9.5,1-1.3v-1h-1.1l.5-1.2.7.3-.2-1.8-2.5-.4-.5-.7,1.2-.3v-.9c0,0-.3-.3-.3-.3l4.9-4.6,1.7-3.5.8-.3.8-1.8,1.2-.8-.3,1,1.2-.8,1.7.2.3-2,1,1.2,2.1-.9v-.7c0,0,1.1.4,1.1.4h.2c0-.1,4.1-3.1,4.1-3.1l-.5-.9.5-.3.6,1.1.2-1.6.3-.3.6.4,2.9-2,.8.2,6.6-5.9,4.7-1.5h0l.7,2h0l14.5,41,13.9.2,2.7-1h.2s11.9,0,11.9,0l4.9-1.3h0l1.5-.8h0l3.9-3.8,2.8-.3h0l5.6-3.4,2.5-.2h0l3.1-2h0l8.9,2.5,4.8-.7,1.9-1.3h0l2,6-2.9,3.1v4.3c.1,0-2.7,1.7-2.7,1.7l-.2,1.7,1.2,4.7v8.4c-.1,0,3.7,4.4,3.7,4.4l.2,7.5-4.5,6.8-1.2,4.4,1.8,1,3.1-.3,3.8,1.7,5-2.5,3.8-.2,2.2,4.5.7,5.1,2,2.5,2.7,5.7-12.7,3.7-7.6,3.8-5-2.9-4.3,1.5-9.6-.8-5.5,3.2-4.6,2.8-6.5,1.1.5,3.6,7.8,4.7.5.9.6,12.7-5.4,7.6-2,4.3-2.4,12.6-7.6,8.6-3.1,15.3-2.3,6.6-10.4,17.5-.7,5.9-2.5,5.9-.4,9.2.9,13.1-1.7,9,.4,3.6-21,22.3-178.2-41.1-71-14.2-68.6-82.3-33.7-42,1.5-12.6-2.2-3.5,1.5-.7.9-2.6-1.2-3.1v-4.7c0,0-1.1-1.2-1.1-1.2l1.1-.6-.2-1.1,1.1.6,1,1.8,1.1.4.7,2.8,1.4,1.7-.2.7h-.7c0,0,.7.7.7.7h-.9c0,0-.5,2.1-.5,2.1l.6,5.3,1.1,1.6-.3,1-1-.2.3.8,3.1-2.2.7-1.9-.6-5.4-1.8-2,.5-2.1,1.8,3.9v1.8c0,0,1.8,2.8,1.8,2.8l.7,4.2,1.6.3,1.1-.9-.7-3.3,3.1-4.3-.4-.8,3.9,2.8-.2,8.8-.9.8-.5,1.6v.4s0,1.1,0,1.1l2.3,7.2v6.7c0,0,1.7,2.9,1.7,2.9l3.5,2.4,8.1,1.1.5-.2-1.3-.9v-.9c0,0,1.4.4,1.4.4l.7-.9,3-.7,1.2,1.8,3.2.6,2.3-1.1,2.1,2.2,4.3,1.4,2.4-1.1,3.5,1.1,6.4-.4,12.1-4.1,3.6-3.2,6.1-2.4,4-2.5.5-1.9-2.6-1.8v-1.7c0,0,1.5.2,1.5.2l-.7,1.8,2.6,1.2.8-1h2.5l2.1-1.7,5.6-2.5-.8-1.2.4-4,3.3-1.5,2.6,1.1v.2l.7,2.1,2.3,1,1.5,2.8.9-.2.2-.9,3.2.4h.3c0,0,.6,0,.6,0h.2c0,0,.9,0,.9,0l.4-1,3.3,2.8,7.3-2.5,2.3,1.9,3.4-.4,2.3-1.3,1.3,1.5h1.4s4-2.8,4-2.8l3.2,1.9.7-.3.9-.2,2.5,2.6h1.3c0,0,4-1.6,4-1.6h2.6c0-.1.3-3.3.3-3.3l1.3-.6,5.9,2.7.6,1.6,3.3,2.9h2.4c0,0,0-.8,0-.8l2.7.6.6-.5,1.4,1.8.6,1.1.2.7,2.6-.7-.6-1.8,1.3.2,2.5-1.2h3.9l1.8-1.3,2.3-.3,1.6,1.9.7-.6v1.1c.1,0,1.4.4,1.4.4l1.8.8,3.7.7.6,1.7,2.9,2.9,4.2.5,6.8-1.3,2.6-1.6,3,1.2,13.8.7,18.8-7.6,4.3-.2,6.3-2.9,2.2-4,2.3-.6v-1.7l-5.4-4.3-3.7-2-2.5-.2-.2-1,1.5-.4-1-2.4,5-3.2.4,2.6,2,2.8,6,6.3,2.2.8,6.5-1.4,4.3.9,1.4-2.8,2-.9ZM144.7,158.7l.7.5v2.4c-.1,0-1.5-1.6-1.5-1.6v-1.3c0,0,.8,0,.8,0ZM283.2,148.6l1.7,1.9.3,2.9-3.3-.7-1-.9v-2c0,0,2.3-1.2,2.3-1.2ZM97.1,99.9l.5,1.4-.7.6-.6-1,.8-.9Z"/>
    <path id="AE-DU" d="M370,175l2.1-1.3,11.5-13.3,6.7-9.4v-1.6c0,0,.6,0,.6,0l-.5-.4h.9s.1-.7.1-.7l-.6-.6,1,.6,1-1.6-1.1.7v-.5c-.1,0,1.4-1.4,1.4-1.4v1.9c.1,0,1.7.2,1.7.2l4,4.2-1,2.5-1.7.6v.9c-.1,0,.7-.9.7-.9l.5.8,1.6-1,.9-2.7-4.8-4.7h-1.6c0,0,.3-1.1.3-1.1l4-2.9,5,1.4,7.1-2.6,1.2,2.7h0l1.1,1.2h0l4.2,1.9,3.3,3.5h0l4.9,3.1h2s.8.8.8.8l4.1,16.5-3.4,3.9-1.1,3.8.8,2.5,3.1,3.3.9,3.5v4.5c0,0,2,9.9,2,9.9l-.6,5.8-.5,1-3.1,2h0l-2.5.2-5.6,3.4h0l-2.8.3-3.9,3.8h0l-1.5.8h0l-4.9,1.3h-11.9s-.2,0-.2,0h0l-2.7,1-13.9-.2-14.5-41h0l-.7-2h0l1.7-1.6,2-.6-.5-2.5,1.6,4.3-.5.7h1l2.1-2.4-2.3,1.4-.2-.6,1.9-1.7-2.1,1.3-1.1-3h2.2ZM486,197l-1.2,5-2.5,1.1-1.4,3.3-2.5.8-3.2-.2-3.1-1.4h0l3.2-3.6,1.7-4.5h0l9.1-.5Z"/>
    <path id="AE-FU" d="M495.5,193.2l-.4.6h0l-1.9-4.1h0l-.7-.3h0l.8-1.5h0l.3-1.9,2.7-.4,4.4.6h0l.5.4h0l-.5,3-4,1.3-1.1,2.5ZM504.7,142.2l-1.7,11.4v13.9h0-6.6s-1.5,1.5-1.5,1.5v2.1l2.1,3.6-.3,6.2h0l-5.7-.8h0l-2.7-2.6.2-2.7-2.7-3.5-2.3-1-1.9.3h0v-3.3h.1v-8l1.5-6.5,3.8-2h0l1.5,1.2,3.7.7,1.5-.2,1.4-1.4h0l4.7-3.8h0l.5-2.3h0l4-2.9h.3ZM484.9,102.4l1.7,1.4,1.1,2.3,2.2,1.4h1.4c0,.1,2.4-2,2.4-2l.7,2,1.4,1.2.2-.6h1s-.3-.5-.3-.5l5.9,2.1v5.6c0,0,1.5,2.4,1.5,2.4l-1.1,4.4.5,7.3h0l-2.4,2.1h0l-2.5,2.7-4.7,2.1-.7,1.7h0l-.5,2.9-3.8,1.6h-1.7l-1.2-.7.5-1.3-3.9-1.1h-1.3c0,.1-2.7,2.1-2.7,2.1l-.2,1.1,2.5-.2.9,1.1,2.8.5-1.1,1.8-3.3.9.3,4-1.1.3-1.4,2h-2.2c0,0-2.3-1.4-2.3-1.4l-2.6,1.2-2.6-1.1h-3.7c0,0,.6-2.8.6-2.8l-1.5-3.6h0l3.1-2.4-.5-2.2-2.1-1.1h0l1.9-5.6h0l2,2.5,7,2.1,1.7-.6,1.2-2.1,2.3.4.4-4.8-3.7.5-1-.5-.6-1.5,4.1-5.5-3.1-4.1-3.9,1.9h-5.7c0,0-2.6-.7-2.6-.7l-1.8-11.2,1-1.1,3.3.5,2.5-1,.9-2.1,2.8-2.3,1.9,1.1,2.5-1.4,3.7-.3,1-1h0l2.8-.3Z"/>
    <path id="AE-RK" d="M464.7,151.8h3.7c0,0,2.6,1.1,2.6,1.1l2.6-1.2,2.3,1.3h2.2c0,0,1.4-2,1.4-2l1.1-.3-.3-4,3.3-.9,1.1-1.8-2.8-.5-.9-1.1-2.5.2.2-1.1,2.7-2h1.3c0-.1,3.9,1,3.9,1l-.5,1.3,1.2.7h0l-.9,2.3h0l.9,6h0l-3.8,2-1.5,6.5v8h0l-.2,4.6h0l.2,1.7,3.1,5-.2,3.6-2.1,1.7v1.7l1.5,1.9,7.9,1.6h0l1.1.5h0l1.9,4.1h0l-3.7,1.8-4.1.4-1.2,1-9.1.5-5.3-4.8-1.6-9-1.1-2.4-3.3-1.7h-2c0-.1-.4-2.6-.4-2.6l-2.5-4.1-.2-4.6,3.6-7.2-3.1-4v-2.3c.1,0,3.4-1.9,3.4-1.9l.2-1.2ZM470.5,71.5l-1.8,4.7-.3-.5,2.1-4.2ZM471.3,68.2l.6.8-.7.6v-.5c-.1,0,.1-.9.1-.9ZM482.4,55.4l1.1,1.4.6,2.6v6.9s-3.3,17.7-3.3,17.7v2.1s1.6,4.1,1.6,4.1l-1.1,5.1.2,6,.7,1.5h0l-1,1-3.7.3-2.5,1.4-1.9-1.1-2.8,2.3-.9,2.1-2.5,1-3.3-.5-1,1.1,1.8,11.2,2.6.8h5.7c0,0,3.9-2,3.9-2l3.1,4.1-4.1,5.5.6,1.5,1,.5,3.7-.5-.4,4.8-2.3-.4-1.2,2.1-1.7.6-7-2.1-2-2.5h0l-2.3-1.3-1.6.5-.3,4-1.7,3-1.7-2.5h0l-1.8-2.6-4.2-2.9,2.6-2.7v-.9h-.1l-4.6-4.1-1.5-2.6h0l.3-5.1-.7-3.4h0l-1.5-2.5h0l-1.7-5.9h-3.5c0,0-1.7-2.4-1.7-2.4l2.6-3.6,1.5.3-.3-.9h1.1c0,0-1.2-.8-1.2-.8l1.5-2.4.3,1,3.3.2,3.9-1.5,6.6-6.8,1.4-2.8.2,2.4-.8,1.5.9-.4h1.4c0,0-1-1-1-1h1.1s.1-.5.1-.5h-1.5c0-.1,0-1.7,0-1.7l1.5-1,1.3-.3,2.4-4.6h.6s.5-2.6.5-2.6h3.2c0,0-.4-.7-.4-.7l1.3-2.2-.5-1.6,1.3-2.8-1.7-3.9.9.9,1.7-1.7,1.9-8.9.7-.8,1.7.3,2.1-.8,2.7.4Z"/>
    <path id="AE-SH" d="M493.2,187.8l-.8,1.5h0l-.3-.2h0l-7.9-1.6-1.5-1.9v-1.7l2.1-1.7.2-3.6-3.1-5-.2-1.7h0v-1.3h0l1.9-.3,2.3,1,2.7,3.5-.2,2.7,2.7,2.6h0l-1.1,1.7h0l.2,2.1h0l3.4,1.5-.4,2.3ZM503.1,167.5l.4,5.3.5,1.1h-.1c0,.1-.7,2.1-.7,2.1l1.5,3.8-3.3.6-.7,1.7-3.9-1.1h0l.3-6.2-2.1-3.6v-2.1l1.5-1.5h6.6ZM495.5,143.8l1.7.8v1.7l-1.7,1h0l-1.7-.8v-1.5l1.7-1.1ZM503.6,129.4v3.4c0,0-1.7,3.1-1.7,3.1l1,1.9.9-.2v-1l1.1,1.2.6,2.8-1,1.4h0l-4,2.9h0l-.2-3.1h0l-.8-2.5h0l.3-6.3,1.4-1.6h0l2.4-2.1ZM416.3,119.3l3.3,2.3,4.7,2.4,1.1,2.1,2.3,1.2h0l7.4,2.2,2.4,3.2,5.5,3.9h0l.5.7h0l1.9,7.4,1,.8,4.3.6,5.7-2.1h0l.5-.4h0l.3-2.6-1-2.8h2.5c0-.1,1.7,2.3,1.7,2.3l1.7-3,.3-4,1.6-.5,2.3,1.3h0l-1.9,5.6h0l-2.3,2.6,1.7,3h0l1.5,3.6-.6,2.8h0l-.2,1.2-3.3,1.9v2.3c-.1,0,3,4,3,4l-3.6,7.2.2,4.6,2.5,4.1.4,2.5h-4.2l-6.3,3.4-6.5,8.2-.5,3.3,1.9,8.9-.8,4.9.6,2.2h0l-1.9,1.3-4.8.7-8.9-2.5h0l.5-1,.6-5.8-2.1-9.9v-4.5c0,0-.8-3.5-.8-3.5l-3.1-3.3-.8-2.5,1.1-3.8,3.4-3.9-4.1-16.5-.8-.8h-2s-4.9-3.1-4.9-3.1h0l-3.3-3.5-4.2-1.9h0l-1.1-1.2h0l-1.2-2.7-7.1,2.6-5-1.4,3.6-5.5-.2-1.4.7.2,1.1-1.2h.5c0,0-1.2,1.4-1.2,1.4v1.5c-.1,0,.4-.2.4-.2l-.3,2.1,1.1.4.5-1.1-1.5-2.6,1.8-1.5v-1l2.7-1.9,2.6,1.9h0l6.4,1.9h0l9.8.5,2.9-6.7-3.2-1.4h-5.6s-2.8-2.4-2.8-2.4l-1.7.2-1.1-2.6.9-.4h-.9s2.3-4.1,2.3-4.1Z"/>
    <path id="AE-UQ" d="M428.5,114.6l-.6-.7.8-.2-.2-.8,1.2-1.9,1.9-1,1.7-2.8,1.3.4.2-1h.6l-.5-.5,2.9-1.1,2.3-2.2,1.7,2.4h3.5c0,0,1.7,6,1.7,6h0l1.5,2.5h0l.7,3.4-.3,5.1h0l1.5,2.6,4.6,4.1h0v.9c.1,0-2.5,2.7-2.5,2.7l4.2,2.9,1.8,2.6h-2.5c0,.1,1,3,1,3l-.3,2.6h0l-.5.4h0l-5.7,2.1-4.3-.6-1-.8-1.9-7.4h0l-.5-.7h0l-5.5-3.9-2.4-3.2-7.4-2.2h0l-2.3-1.2-1.1-2.1-4.7-2.4h0l-3.3-2.3h0l3.9-7.9,1.5-1.1.8-2,.6,2.5-.4.8h-1.4c0,0-.5,4.2-.5,4.2l.6,2.2.6-1,1.5.3.8-.8,1.7.2,1.3-.8,1.3.5,1.7-1.1-1.6.2v-.9ZM367.8,79.9l-1.1.7-.9-1.1-.9.2v-1.3c.1,0-.7.2-.7.2l.4-1.4,2.5-1.8,1,.3,1.1,3.8-.3.6-1.1-.4ZM428.9,110.6l-1-1.2h-.9c0,.1-.1-.7-.1-.7l-2.2,2h-1.2c0,0,1.7-1.9,1.7-1.9l4-2.1,1.2.2,2.4-1,4.1-3-4.7,4.1h-1.5c0,.1,1.1,1,1.1,1l-2.4-.3.7,1.2-.4.7-1.4-.4.7,1.6ZM422.5,116.1l-.4-2.1.7-2.3,1.4,4-.7,1.2-1-.9ZM426.1,111.1l.4-.6-.6-.3,1.5-.6,1.1,1.4-1.9,1.9-1.3-.5.8-1.3ZM427.3,113.6l-1.1,1.4-1.2-.8v-.5c0,0,2.3-.2,2.3-.2ZM424.7,114.8l1.7.6-1.5.6-.2-1.2Z"/>
    <path id="OM-MU" d="M500.3,141.9l.2,3.1-.5,2.3h0l-4.7,3.8h0l-1.4,1.4-1.5.2-3.7-.7-1.5-1.2-.9-6h0l.9-2.3h1.7l3.8-1.6.5-2.9h0l.7-1.7,4.7-2.1,1-1.2-.3,6.3h0l.8,2.5ZM495.5,143.8h0l1.7.8v1.7l-1.7,1h0l-1.7-.8v-1.5l1.7-1.1Z"/>
    <path id="AE-NZ1" d="M472.1,205.6l-.6-2.4-2.5-3.8v-2.8c0,0-3.7-3.5-3.7-3.5l-.9-2.8,2.3-1,2.1.9,8.1,7.2h0l-1.7,4.5-3.2,3.6Z"/>
    <path id="AE-NZ2" d="M501.2,186.4l-.5-.4h0l-4.4-.6-2.7.4v-.4c0,0-3.4-1.5-3.4-1.5h0l-.2-2.1h0l1.1-1.7,5.7.8,3.9,1.1.5,4.3Z"/>
  </g>
</svg>