<?xml version="1.0" encoding="UTF-8"?>
<svg id="Layer_1" xmlns="http://www.w3.org/2000/svg" xmlns:amcharts="http://amcharts.com/ammap" version="1.1" viewBox="0 0 512 512">
  <!-- Generator: Adobe Illustrator 29.1.0, SVG Export Plug-In . SVG Version: 2.1.0 Build 142)  -->
  <defs>
    <style>
      .st0 {
        stroke: #fff;
        stroke-width: .5px;
      }
    </style>
  </defs>
  <g id="_x3C_defs">
    <amcharts:ammap bottomLatitude="12.0245042" leftLongitude="-68.4209633" projection="mercator" rightLongitude="-62.9457768" topLatitude="17.0002945"/>
  </g>
  <g>
    <path id="BQ-SE" class="st0" d="M491.6,6.1l1.1,4.7,3.5-.8-4.6-3.9Z"/>
    <path id="BQ-BO" class="st0" d="M31.4,505.9l-.7-6.4,4.1-2.4-2-4.7,1.9-3.7-7.3-1.3-9.7-6.9-1.8,7.6,9.7,2.9,1.4,8.9.3,3.6,4,2.5ZM24.9,493.4l-1.7,1.7h2.9c0,0-1.2-1.7-1.2-1.7Z"/>
    <path id="BQ-SA" class="st0" d="M451.9,14.5v.6h-2.4.6-.6v-.6h.6v-1.2.6l.6-.6h.6v.6-.6.6h.6v-.6,1.2Z"/>
  </g>
</svg>