<?xml version="1.0" encoding="UTF-8"?>
<svg id="Layer_1" xmlns="http://www.w3.org/2000/svg" xmlns:amcharts="http://amcharts.com/ammap" version="1.1" viewBox="0 0 512 512">
  <!-- Generator: Adobe Illustrator 29.1.0, SVG Export Plug-In . SVG Version: 2.1.0 Build 142)  -->
  <g id="_x3C_defs">
    <amcharts:ammap bottomLatitude="49.146977" leftLongitude="-2.678263" projection="mercator" rightLongitude="-1.924469" topLatitude="49.736003"/>
  </g>
  <g>
    <path id="GG-AL" d="M270.6,4.5l.2.7h.6l-.2.7h-1.1l-.6.7h-1.1l-.3-1.2h.8l1.1-.5v-.5h.6ZM286.1,6.4l.8,1v1l-.5.2v1h-1.5l.2,1.4-2.2-.2-.8.7h-1.1l-.3-1h-.6v.5h-.8l-.8,1.9h-.8l-.5-1v-1.4l.8-1h.9l1.1-1.2,3.6-.7.3-.7,2.2-.5ZM324.9,6.7l2.2,1.7-.2,1,.6.5.2,1,.5-.2.5-1.9h.6l.8,1,.5-1.4h.9l.2,1,.5.2.2-1.4h.5v-.5h.8l1.4,1.2-.8.5-.2.7h1.1v-.5l.8.2.2,1.4.5.2-.8.7.2.7h.5l.3-.7.6.2-.2,1.2-.9.7-.9-.5v.7l-.6.2-.2.7-.9-.2-1.2,2.9-2.5-.5-1.1-1-1.5.2-.5,1,1.4,1.2v2.6l-1.4.5-.3,1.9h-.6l-.2-.5-2.3-.2v1.9l-1.4-.2-.2,1.2h-.8l-.5.7-.8-.2.3,1.2-.5.5h-1.2l-.3,1.2-.8.7-2.8.7-3.9.2-.9.5-1.1,1.7h-.6l-.2-.5-.9.5-.6,1.4h-.6l-.2.5-.5-.5h-1.1l-.3-.5-1.2.7-.6-.7v1.4l-.6.5-1.1-.5-.5-1h-.8l-.5-.7h-.5l-1.1,1.4-.9-.5h-1.1l-.9-1-.3-1.4-.5-.2.5-1.4-.9-1.2v-1l.8.2.2-.5-.9-1-.2-1.2,1.5.5.2-1.4.5.5h.8l.6-.7v-1s-1.1,0-1.1,0l-.3.7h-1.9l.3-2.1h4.6l1.1-1h.8l.9-1.2v-1.7h-1.2l.3-1.7,2.9-.5.6.7,1.5-.2v.5h2.2l.9-.5v-1.2h.3l1.2,1.4h.5l.3-1.7h-.3l-.2-1-.8-.2v-.7l.3-1h.8l1.5,1.4.2-.7-.5-.7h-.5v-.5l2.3.7v2.1l.6,1.4,1.1.7h.8l.2-.5.9-.2h2.3l.8-1.7h.5v-.7l-.2-.5h-.9v-.5h-.3v-2.1h1.5v-2.4h.8l.2-1.4h.8l.8,1,.2,1.9h1.1l-.2-.7-.6-.5v-1l.6-1.2,1.1-.2ZM215.7,15.8l.8.5-.8,1h-.9l-.5.7h-.8v-.5l-1.1.2.2-1h.5l.8-1s1.9,0,1.9,0ZM330.9,18.4l.6,1.2-.2,1-.5.2-.5-.5-.6.5-.3-1,.6-1.2.8-.2ZM290.6,30.5l1.5,1v1.2h-2.6v-.5h-.5l.3-1.7h1.2ZM307.1,37.4h.9v.8l-.5.5h-.6l-.8-1h-.5v-.5l1.4.2Z"/>
    <path id="GG-BQ" d="M208.7,262v.2l1.4.2.5.5v1l.6.2v1.4l.3.2-.2,1.2h-.3l-.3-.2h-2.2l-.2.5,1.2.2v.7h-2.2v-.2l-2.5-.2v-1h1.2l.2.2.2-.5-.3-.5-1.4.2v-.2l-1.4-.2-.6-.7v-1l.8-.2v-.2l.6.2.3-1.2h1.7v-.2l1.7.2.3-.7h.5Z"/>
    <path id="GG-CA" d="M107.2,235l-.7,3.6-3,5.1-4.5,4.5-3.4,5.4h0l-.7-.9-7.3.7-1.5-1.6h-3.2c0,0-1.7-1.1-1.7-1.1l-4.9-4.9-.8-7,.6-2.1h0l.2.5h.5l.9,1.2h1.5v-.2h1.1l.2-.5h.9l.3-.5h1.2v-.5h1.4l.9-.7.9-3.1v-1.4l-.3-.7-1.1.2v-.2h-.8l-.8-1.2h-1.7l-.6-.5-.2-1.9,1.9.2.5.5h.8l.3.5h.8l.2-1.2.3.2.9-.2.6,1.9.5.2.3-2.1h.5l.2.5.6.2.2-1.2h.6l.2.5.8.2v.2h1.5v-.2h.8l.3-.5,1.1-.2.3-1.7h.3l.5-1.2.5-.2.2-1-.3-.2v-.7h.6l.2-.9h.3v-1.7l-.3-.5h-.6l-.5-.7h-.6l-.2.5h-.5v-.2h-.8l-.6-.7-.6.2-.2-1.2.8-1.2h.5l.5,1.2h.3l.2.5h.5l.5-1,1.5.2v-1.4h.6l.2.5.6-.5.3.7h1.2l.5.9-.2,1.4h.6l.5,3.4.3.5v1.5l1.4,1.7h1.1s0,3.6,0,3.6l.3.8h1.5s1.9,3.2,1.9,3.2l-.4.8v1.6Z"/>
    <path id="GG-FO" d="M84.7,265.6l.2-1.3,2.3-.3,3.8-2.3h0l8-.6h0v1.8c.1,0,1.5.8,1.5.8l1.8-.6.7.6-.9,3.1-1.7,1.1,2.3.3.2.8-1.7.6-.3,1.8h0l-.8-.2-.6,1.4h-.3v.5l.5.5-.2.9-.2.2h-1.1l-.2-.2v1l-.3.5h-.8l-.3-.5-.2.7h-.6l-.2-.7-.3.5-.9-.2.3,1.4.3.2-.2,1.2h-.3l-.3-.7-.2.2-1.2-.2-.3-.9h-.6v-.2s-2.2.2-2.2.2v-.2l-1.9-.2-.3-.7-1.7.7-.2-.5-.8-.2-.2-.5-.9.7-.8,1.2v.5h-.5v-.2h0l-.5-2.9-.6-.7-.4-2.3.5-1.7,2.3-2,.5-2.1Z"/>
    <path id="GG-HM" d="M174.1,220.9l.3.2.2,1h.5v.5l-.5.2v1.2l.3.2-.5.7.2,1.4.6,1,1.2.7.8,2.8.8.9h.5v.5l-.3.7h-.5l-.5,1.2h-.3l.3,1.9-.6-.2v.9l-.3.5-.3.2h-1.1l-.2-.2-.6.5v.5h-.6l-.6.7h-.5l-.5-.5-.3-1.2h-.3v-.9l-.5-.2.5-.5v-.5l-.3-.7h-.3v-1.4h.3l.2-.7h.3l.6-.9-.3-.2v-.7l-.6-.5-.5-2.1-.8-1.4-1.4-.5v-.9h.3l-.3-1,1.5-.7v-.2l1.7-.2.8-.9h.9l.2-.7.5-.2Z"/>
    <path id="GG-JT" d="M165.7,237.8l.5,1.7-.8.2-.2-.5-.2.5h-.5l-.3-.9h-.3v-.7l.2-.2h1.5ZM167.1,239.7l.3.5h.5l.2.9.6.5-.2.7-.5.2-.5.9-.6.2v.5h-.5l-.3.7-1.2-.2-.8-1.9.3-.2-.2-.9,1.1-1.2,1.7-.7Z"/>
    <path id="GG-AN" d="M113.3,249.8l-1.1,1.4v2.6c0,0-5,3.4-5,3.4v1.7c0,0-3.3,2-3.3,2h-4.8c0,.1-8,.7-8,.7h0l2-4.6,2.5-3.6h0l3.4-5.4,4.5-4.5,3-5.1.7-3.6h0l1.4-.3h0l.6,4.4,3.2,5.9.5,4.1.4.7Z"/>
    <path id="GG-MA" d="M101.1,271.5l.3-1.8,1.7-.6-.2-.8-2.3-.3,1.7-1.1.9-3.1-.7-.6-1.8.6-1.4-.8v-1.8h-.1,4.8c0-.1,3.2-2.1,3.2-2.1v-1.7c0,0,5-3.4,5-3.4v-2.6c0,0,1.2-1.4,1.2-1.4h0l1.4,1.2v1.7h3.3l2-.6,1.2,2,.4,5.2,3.8,2.8h0l-.2.9.5.7,1.7.2-.3.2.2,1.4.5.2.2.7h.5l-.2,1.4.5.7h.5l.3,2.4.8.7v2.6l-.5.2-.3-.9-.9-.2-.5,1.4v1.2l-.8-.2-.3-.5-.3.7-1.7.2-.2.7-.6.2-.2.5h-.9v.2l-.9-.2v-.9l.9-.2v-.7h-.6l.3-1.4-.2-1.4,1.1-1-.2-.9-.2-.2-1.2.2v-.2h-.6l-.3-.5h-.6l-.5-.5-.2.2-.8-.2-1.4,2.6-1.1-.2-.2.7-.6.5h-1.1l-.9-.7h-.5l-.2.7.5.2.5.9v1l-.6.5h-.8l-.2.7-.6.2-.9,1.7-1.5-.2.2-1.2-1.2-.9-.6-1.4.3-.9-.3-1.2-1.4.5-.6-1h-.5l-.2.7-.8-.2v-.2h-.6v-.2h-.9v-.2h-.6l-.6.5v-.5l-.6-.5Z"/>
    <path id="GG-PP" d="M126.4,233.5l-.9,2.1v1.4l1.2,1.2h.9v.2h.5l.3.7h.8l.5,1.2v1.2l1.4,2.1-.2.7h-.5l-.2-.5-.6-.2v.9l-.6.2-.6-1.4-.5-.2-.6.7-.6-.2.2,1.2,1.1,1,1.7.2.5.5h.3l.3-.7h.5l.3,1.9-.2.2h-1.1l-.3-.5h-2.5l-.5.5-.2-.2h-1.1l-.2.2v.5l.9.9h.6l.9,1.2h.9v2.1l.3,1-.8.2-.2-.5h-1.2l-.2.2-.2,1.2.5.7-.2,2.1-.2.7-.6.2.6,2.4-1.7.7v.2h0l-3.8-2.8-.4-5.2-1.2-2-2,.6h-3.2v-1.7c-.1,0-1.5-1.2-1.5-1.2h0l-.4-.7-.5-4.1-3.2-5.9-.6-4.4h0l1-3.8,1.6-.8h0l3.6-.2.7.5,3-.2,1.3,1.4,6.7,1.9Z"/>
    <path id="GG-SB" d="M53.6,236.6l.6,1.9.3,3.6-.5,1.2h-.5l-.2.5h-.6l-.6-2.1-.3-.2h-.8l-.3.5h-.6l-.6-.7-.8-.2-.2-1.4.6-.5-.5-1.7.6-.2.3.5,1.7.7.5-.9.6-.5,1.1-.2ZM47.4,238.7l.3.9h.5l-.2,1.4h-.6l-.2-.7h-.8l-.3-.5.3-.9.9-.2ZM77,275l-.6-2.9-2-.5-1.3-1.1-1.4-2.8-1.1-1.1-.7-1.4-1.5.2-.5.7h-1.5c0,0,0-1.4,0-1.4l-3.4-2.2-1.5,1.7-1.3,2.8,1.9,1.1,2.2,2.7h0l-.3.2-.9-.7h-.6l-1.1,1.7h-.6l-.9-.7-1.2.9h-.5l-.7-1.7-1-1.1,1.3-1.6,1.9-1v-.3s-2.8-2.8-2.8-2.8h-.6s-1-.8-1-.8l-.5-1.1h0v-.2l1.2-.2.6,1.4h1.2l.3-.9h-.5l-.2-.7.9-.7h.8l.2-.5v-.2h-.8v.2l-.6-.2.2-.7.6-.5-.2-1,.2-.2,1.4.2v-.5h.6l.3-.5v-1.9l.8-2.6v-1.2l-.8-1.7-.3-2.8-1.7-.2-.2.5h-.5l-.8-1.2h-.9l-.2-.5-.3.2-.9-.2.3-1.2h.3l.5-.9h.6l-.2-1.7.3-.5h.6l.3,1,.9.2.6,1h.5l6.9,3.1.2,2.2,1.8,4.1h2.9s1,2.2,1,2.2v4.5c.1,0,1.4.8,1.4.8l1.8-.8,1.5,2,1.8.6,1.7,2.3h1.6c0,0,.3,1.6.3,1.6h1.6l-.5,2.1-2.3,2-.5,1.7.4,2.3.6.7.5,2.9h-.5l-.2-.5-.9-.5v-.7l-1.1.2v.2h-.6v-.2l-1.1.2-.9-1.2h-.8Z"/>
    <path id="GG-SM" d="M102.9,211.9v-1.4l1.4.5.5,1h.8v-.7l-.8-.9-.3-1.2.3-.5.9.2.2-.5h.8l.6.7h.6l.3.7.3-.2v-1.2l.6-.2.3,1,.8.2v.7l.5.2.2.7.2-.2,1.5.2.6-1.2-.3-2.4.6-.5h.8v.2l2.3.5.2.7-.5,1h-.3l-2.2,3.6-1,.5v.6s-1.1.5-1.1.5l-.9,1.5-1.7.2-.7.8-2.2-1.8-.9-.3-1.1-1.8-1.3-1.3ZM126.4,233.5l-6.7-1.9-1.3-1.4-3,.2-.7-.5-3.6.2h0l.9-1.3v-4.5c-.1,0-.5-.9-.5-.9h-1.2l-.6-.6v-2.7c-.1,0-.8-1.7-.8-1.7l1.6-1.4,2.2-1.1,3.2-.7,1.8-3.1h0v-.2h.8l.5.7h.3l.5,1.2,1.1.2h0l1.5.8.7.9.3,1.7,1.1-1h.8s.9,1.3.9,1.3l1.5.7h1.4s1.1,1,1.1,1h2.4c0,0,.8,1.4.8,1.4l2.5.4h0v.5l.6.7.9.2.6-.5.6.5-.2.5.5.2.3.9-.6.2v.9l-.8.2v.5l.2.2h1.1l.5-.5-.3,1.4-1.2.2-.2-.5h-.6v-.2h-1.7l-.5.7h-.5l-.2.5-1.9-.2-.2.5h-.6v.2l-.8-.5v.7h.3l-.3.5-.6-.5-.2.9h-.5l-.2.5-.8.2v-.7h-.5l-.3.9h-.6l-.2.9h-.5v1.4l-.5.5Z"/>
    <path id="GG-SV" d="M91.1,261.7l-3.8,2.3-2.3.3-.2,1.3h-1.6l-.3-1.5h-1.6c0,0-1.7-2.4-1.7-2.4l-1.8-.6-1.5-2-1.8.8-1.3-.8v-4.5c-.1,0-1.1-2.1-1.1-2.1h-2.9s-1.8-4.1-1.8-4.1l-.2-2.2-6.9-3.1h0l3.1-2.4-.2-.7-1.2-.9h-.5v-.9h1.1l.2-.5h.5l.2,1.2h.3l.5.7v.7l.5.5.8-1.2h.9l.2.5.9.2.3.9,2,.5.2-.5h.5l.5-.9.6-.2.6-.9-.8-1.2v-1.4l.5-.7.8.2v.2l.5-.2.2-.5-.5-.5.2-.9.9.2.6-.9h.6l.2.5h.8l-.5,1.7h.5l.5-.7.2.5.6.2v.5l-1.1.7h0l-.6,2.1.8,7,4.9,4.9,1.7,1.1h3.2c0,0,1.5,1.7,1.5,1.7l7.3-.7.7.9h0l-2.5,3.6-2,4.6Z"/>
    <path id="GG-SK" d="M218.5,247.3l1.7,2.6v.5h.5l.3.5v.7l.6.5h.3l-.2-1.4.5-.2.3.7-.2,1.7.3.5,1.1.2v.2l.6-.2.2.5,2.5.7.2.9.6.2-.2.5h-.5l.5,2.8.8-.2v.5l-.6.5.2.2,2-.2.9.7h.8l.5,1.9.5.2.3,1.2.8.2.2,2.6-1.1.2-.2,1,.5.5-.2.7h-1.1l-1.2,1.4.3,1.7-.5.5-.6.2-.3-1.7h-.3v-.7h-.5v-.2h-.5l-.6.7-.2,1.9-.3.5h-2l-.3-1.2h-1.1l-.3,1,.2.7h-.8l-.3.5v.9l-.5-.7-.2.5-.6.2-.2.7-.3-.2-.2.7-.5.2v2.1h-.9l-.5.7-.2,2.1h.3v.7l.3.2.3,2.4-.2.2-.9-.2v-.9l-1.1.2-1.9,2.6h-.5l-.6-.7-1.4-.5-.2-1.2-.5-.7h-.3l-.6-1.2-1.4-.2v-.2l-1.1.5-.2-1.2.3-.7h.6l.2.5h.3v-.7l.5-.2,1.2-2.1,2-1.7,1.1-.2.2.5h.3v-1.9h.5l.3.5h1.1l.2-.5.8.2.2-.5h.3l-.5-.5h-.8l.3-.5-.2-.7.3-.2-.2-.9h-.6v-.2l-.8.2-.5-1-.5-.2-.2-.7-1.1.2-.6-1.2-.6-.5.2-.9,1.1.2v-1s-.5-.7-.5-.7l-1.7.2-.3-.7v-.5l2-.5-.2-.5.5-.2.6-1.4.8-.2.3.7h1.2l.2-.5h.5l-.3-1.2-.5-.2.2-.9-.3-.7.2-.2.9.2.6-2.4h.5l.3.7h.3l-.2-.7.5-.2v-.5l-.6-.2-.9-1.7.3-1.7.5-.5v-1.2h-.5l-.3-.7-.5-.2v-2.6l.6-.2ZM233.2,258.9l.5.9h.3v.5l-.5.5h-.6l-.6-.7v-.5l.3-.7h.6ZM219.4,290v.2h.6l-.2,1.2-.5.9-.9.2v-2.1l.9-.5Z"/>
    <path id="GG-TV" d="M58.2,272.4v.2h-.9l-.5-.5-.3.2h-.6v-.2l-.3.2h-1.9l-.5-1.2-.6.2-.2.7h-.5l-.2-.9-.8-1.2h-.3l-.2-.5h-.6l-.2-.5-.9-.2-.2-1.4-.9-.2.2-2.1-.5-1,.2-1.4-.3-.2v-.7l.5.5h.5v-.7l.8-.9h.6v-.5h.8v.9l.5.5h.5l.2-.5,1.1-.7.6.7h.5v.5l.5.5h.6l.5,1.1,1,.9h.6s2.8,2.8,2.8,2.8v.3s-1.9,1-1.9,1l-1.3,1.6,1,1.1.7,1.7ZM77,275l-.6.2-.3-.5-1.4.2-.6-1.7h-.5v.7l-.6.2-.2-.7h-.5l-.9-1.4h-.3l-.2.5h-.6l-.3.7h-.8v-.2l-.9.2-.8-.7-.2-.9h-1.5l-.8-1-.6.2h0l-2.2-2.7-1.9-1.1,1.3-2.8,1.5-1.7,3.4,2.2v1.3s1.5,0,1.5,0l.5-.7,1.5-.2.7,1.4,1.1,1.1,1.4,2.8,1.3,1.1,2,.5.6,2.9Z"/>
    <path id="GG-VA" d="M135.9,221.2l-2.5-.4-.8-1.4h-2.4c0,0-1.1-1-1.1-1h-1.4s-1.5-.6-1.5-.6l-.9-1.3h-.8s-1.1,1.1-1.1,1.1l-.3-1.7-.7-.9-1.5-.8h0l.3-1.7-.5-.2v-.7l.5-.2.2-1.7-.9-.2-.2-1,1.7-.5.2-2.6.3-.7-1.4-.5v-.7l-.5.5h-.5l-.2-.5-.9.2-.2-.5-.9-.2-.2-1.2.3-.7,1.9-.2,1.4-1.2h.6l.5.5.6-.5.9.2.3-.9h.5l1.1,1.7h.6l.5-1.2.8.2v-.9l.6-.2.3.5-.2,1.4-.8.9v.9h-.6l-.2,1.2h.5l.5.7h.6l.2-.7,1.1.2.5,1.4h1.5l.5-.5.2-.9h.9l.2-2.4h.5l.2-.5.8-.2v-.5l-.5-.2v-.7l.5-.7h.5l.6.7.8.2.2,1,.5.5-.5,1.2,1.1-.2v.2l.8.2.2-.5h.3l.3.7h.3l.2-.5h.8l.6-.5.2-1.2,1.2.2.2,1,.5.2-.5,1.2.5.5v.9l.5.2-.5,1.7.2.2.5-.2.6,1.2v.9c-.1,0,.2,0,.2,0l-.3,1.7.3,1.4-.6,1.2-.2,1.9h.9l.2.9-.8,1.2h-1.4l-.3-.2-.2-.9-1.2.2.2.7h.6l.3.5-.2.7h-.6l-.3.5.5,2.1-.3,2.1h-.3l-.2-.5-1.9.2-.3-.5h-1.7l-.3-.5h-.8ZM146.2,205.3l.2,2.4h-.6l-.5-.9v-1.4h.9ZM117.8,212.1l-1.8,3.1-3.2.7-2.2,1.1-1.6,1.4.7,1.7v2.7c.1,0,.7.6.7.6h1.2l.3.9v4.5c.1,0-.8,1.3-.8,1.3h0l-1.6.8-1,3.8h0l-1.4.3h0v-1.6l.4-.8-1.9-3.1h-1.5s-.3-.8-.3-.8v-3.6c0,0-1.2,0-1.2,0l-1.4-1.7v-1.5l-.3-.5-.5-3.4h0l.5-.5h-.3l-.3-.7v-1.7l1.1.2v-.2h.8v-.2l.8-.2-.3-.5h-.9l-.3-.5h-.5l-.3-.9,2.3-.7h0l1.3,1.3,1.1,1.8.9.3,2.2,1.8.7-.8,1.7-.2.9-1.5,1.1-.5v-.6s.9-.5.9-.5l2.2-3.6h0l-.2,1.7,2,1.2ZM146.7,209.8l.5.5.2,1.4-.3.5-1.1-.2-.2.5h-.6l.2-2.1.8-.2v-.2h.6Z"/>
    <path id="JE-GR" d="M402.9,492.4v-5.3c0,0-2.2-4.8-2.2-4.8l-1.7.6-2.5-2.5h-.5c0,.1-1.1-.8-1.1-.8l-.6.5-1.3-1.4-.5.7-1.1-.2-.3,1.2-3.9,3.1-1.7.4-.2-.6h-1.1l-1.4-1.6v-1c0,0-1.5-.2-1.5-.2v-.9s-.5-.2-.5-.2h0l.6-.5,1,.2.3-.6.8.2,2.1-1.9-.6-7.1.8-.7v-.7c-.1,0,.9,0,.9,0l.2.8h.5l.3-.8v-2.5s-1.7-2.8-1.7-2.8l2.3-.6v-.8c0,0,2.7.4,2.7.4l4-1.8,3.9,1.2.2.6h.7c0-.1,1.4-1.9,1.4-1.9h0l2.5.6,1.2-.4.7.9h1.1c0-.1.2-.8.2-.8h.7c0,0,.3,1.2.3,1.2l-.7,2.3.9.3.3.7h0l-1.5,2.1-.9,4.5-.3-.2-.5.9.6.2-.5,4,2.2,12,.9,1.4h.5l.3.9-.9.7-.3,1.4-.9-.7-.3,1.2-.8-.5-.8,1.4h-1.1l-1.2-1.9Z"/>
    <path id="JE-BR" d="M335.3,475.6l-.6,1.4h-1.2l-.5-.9v-.7l2.3.2ZM333,484.6v-.9l-.6-.7-.9.2-.3-.7-.5.2.2-.7-.9-.7.9-2.1v-.9l-.9-.9.2-1.2.3-1.2,1.2-.2-1.5-2.6v-.9l.5-1.2.8-.2.5-1.4,2.9-1.4h0l-.2-1.1-.6.2-1.7-.5-1.7-1.3-6-.7-.9-.7-3.7-.2-.4-.4.2-1.3-.5-.2-2.1,1-1.7-.6-.9-1h-2.2c0,.1-.6-.3-.6-.3h-1.7s-.5.4-.5.4l-1.3-.2-2-1.3-3.4,2-3.6,1.1h0l-.2,1.5-1.2.5-.3,2.6.3.7-.8-.2.6.9h-1.1l.2,2.6-.6,1.2-.9.2-.5-.5-.3,1.2-1.1-.5-.5.7-1.4-.7v1.4l1.1,1.9h-2.3l-1.1,1.9-1.5.5.3,1.4h1.2l.6,1.7.9.9h.5l1.2-1.9.8,1.9.8.7h.8l.3,1.2,3.7,1.2.2.5,1.7-.7.2-.5,2-.2.9-1.4.9-.5h1.1l.6,1.6h.9v-1.2l.6-.2.2-.9.8-.7h.5l.3.9h.9l.2-2.4.5-.7,1.1.2.3-.9-.6-1.9h.5l.2-.7h1.4l3.6,1.4.5,2.1,1.7-.2,1.5,3.3-.5.7-1.9.2-.2,1.2.5.5h-1.1l.2.7.8.2.5,1.4-1.1.9.3,1.9,1.7.5.5-.9h.6l1.1.5v-.7l.9-.7.3-1.2,2.3.2.9,2.1h1.5l-.2.9h-.9l.2.9.9.2.5.9h1.4l1.2-1.2.6-1.9,1.1.2v-.7s-.5-.2-.5-.2l.5-1.9-.6-1.9.5-.2Z"/>
    <path id="JE-CL" d="M397.3,505.8l.5.7-.3.9-.5-.7h-1.9v-.7l2.2-.2ZM371.2,482.7l1.5,2.4,1.2.5,2.5,3.5.3,1.2,1.9,1.4.6,1.4,2.2,1.4.9-.2.2-.5h1.2l.3.7h.8l1.5-3.1,3.2-.2,2.6-1.7.3-.7h2.9l2.5.7,5,2.8h0v-5.3c0,0-2.2-4.8-2.2-4.8l-1.7.6-2.5-2.5h-.5c0,.1-1.1-.8-1.1-.8l-.6.5-1.3-1.4-.5.7-1.1-.2-.3,1.2-3.9,3.1-1.7.4-.2-.6h-1.1l-1.4-1.6v-1c0,0-1.5-.2-1.5-.2v-.9s-.5-.2-.5-.2h0l-3.3.5.2,1.1h-1.1c0,.1-1.1,1.3-1.1,1.3h-1.8c0,0-.8-.7-.8-.7v-.7s-1-.1-1-.1l-1.9,1.3v.6h-.1,1.4Z"/>
    <path id="JE-HE" d="M355.4,481.5l.2,1.2-.5.7h-1.1v.7l-1.4-.2.3-1.4h.6l.6-1.6.8-.7h.9l-.5,1.4ZM355.9,484.1v1.2l-.6-.5-.6.2.3.9-1.5-.7v-.5l2.5-.7ZM348.7,465.9l2.8,1.4.6,1.2.9.2.5.7h.9l1.4,1.7,2,.9.8,3.1-1.1,1.4-.5,1.9.2,2.1.9,1.4v.9l1.2-.7.5.5-.2.7-.9.5v.7h1.1l.2.9-1.9-.2v.7l.9,2.1,1.7,2.1,1.5.2.2-.7-2.3-1.2-1.1-2.4,2.6.7.5,1.4,1.7-.5-.5,1.2.5.2.6-1.4.3-4.2.5-.7h2.8l.2-.5,1.4.2h0l-.7-4h1s.3.4.3.4l.4-.8h1.1s.3-3.3.3-3.3l-.5-.7.3-.7.8-.3v-1.1c0,0-1-.8-1-.8l-2,.9-.9-1.9v-2.4s1-1.3,1-1.3l1-3.6h.7s2.1-3,2.1-3l2-1,1-2.3h-.9s-1-2.5-1-2.5h-2s-.8.5-.8.5l-1.7-.8-.9.8-2.2-.2v.9c0,0-.7.3-.7.3v1.1l-3-1.8v-.9c-.1,0,.6-.6.6-.6l-1.2-.7-1.4.5-.5-3.8-.5-1.6-.8-.3h0l-2.9-.5v.7h0l-1.5,2.7v4.9c0,0-1.1-.2-1.1-.2l-.7-1.6h-.6c0-.1-.7,3.5-.7,3.5l-2.7-.6.3,3.4h-.5c0-.1-.6.4-.6.4v4.2c-.1,0-1.3,1.6-1.3,1.6h1.5Z"/>
    <path id="JE-JO" d="M359.5,447.5l-2.9-.5v.7h0l-.4-1.3,1.1-3.6-.9-4.5.4-2.7-.6-1.2-2-.2-2.5-1.1-1.9.2-3.2-.7-2.2.9v-.5c-.1,0-3-1.1-3-1.1h-1.4c0,.1.2-.4.2-.4h0l1.2-1.4-.4-1.2-1-.3-1.4-1.8-1,.2-3.3,3v-2.3s.9-1.7.9-1.7l.6.2.6-.5.9-1.5v-1.1s.6.2.6.2l.4-.6-.5-2.2-1.5-.9-1,.5-.6-.6-1.8-.4-.5-1.5-3.4-.9-.6-.7h0l.3-1,.9-.2.5-1.2.9-.7h3.6l-.6-2.4.3-1.4h.6l.5,1.2,1.5,1.2.5-.5.5.2.6-.7v-.9l.6-.2.5,1.2h.8v.7l2.2.7.5,2.4h1.1l.2.5h.8l.5.7,2,.9h2.2l2-.7,2.3.9.6-.7,1.5-.5,1.2,1.2-.2,1.9.5.5,2.3.5,1.4-1.9,1.9,1.9h.7v1s-.7.8-.7.8h-1.2v.7c0,0-.4,0-.4,0v1.7l.4.6-.2,2.3-.9.3.2.9-.7.8,1,.3.3,1.3.2-1.2.9.6.3,2.1-.8.7.4,3.4-.5.7.2,2.3,1.4,3.2-.6,1.6.5,2-1.4.6h-1.9c0,.1-.9.9-.9.9Z"/>
    <path id="JE-LA" d="M356.6,447.7l-1.5,2.7v4.9c0,0-1.1-.2-1.1-.2l-.7-1.6h-.6c0-.1-.7,3.5-.7,3.5l-2.7-.6.3,3.4h-.5c0-.1-.6.4-.6.4v4.2c-.1,0-1.3,1.6-1.3,1.6h0l-2.4-.2-.3-.5-2.3.2-.6-.5-.8.5-1.1-.2-2.2.5h0l-.8-7.6-.9-.8-.3-1-2-1.1v-1c-.1,0,1.2-1.8,1.2-1.8l.4-1.8-1-5.7.4-.9,2.7-.6.4-.6v-.4c0,0-1,0-1,0l-.4-1h0l2.1-.8-.2-1.4-1-.3v-.7c-.1,0,.7-1.7.7-1.7l.5-3.1,2.1-1.7h0l-.2.5h1.4c0-.1,2.8,1,2.8,1v.5c.1,0,2.3-.9,2.3-.9l3.2.7,1.9-.2,2.5,1.1,2,.2.6,1.2-.4,2.7.9,4.5-1.1,3.6.4,1.3Z"/>
    <path id="JE-MT" d="M463.2,383.5l1.1,2.4-2.5-1.2.2-.9,1.2-.2ZM464.6,387.5l.3,2.1.9,1.9-1.5,1.2-.2-5,.5-.2ZM412,463.3l.2.7-1.1.7.3.9h.5l.8-1.4,1.7-.5.5-4-.9-.9h-1.4l-.6-.5-.2-1.4,1.2-1.4v-.7l-.6-.2-1.2.5-.6-.5.6-2.4-1.4-.2-.6-2.4-1.1-.7-.5-2.1h.9l.5-.9.6.2.2-1.2-.5-.5,1.2-.7.3-.5,1.7-.2-.2-.7.8-.5,2.6,1.2.5.7,2.2.2v-.5l-2-.7-.5-.7-2.5-1.2-.6.2-1.5-1.4-.3-2.8-.9-.7v-.7l.9-.7-.2-.7-1.5-.5-1.7,1.2-.2-.7h-.8l-2-1.7-1.4.5-.3-1.2h-2.9l-.3-.8h0l-3.3,1.3-.7-.5-2.4.7-3.8-.8-1,1.6-1.1,4.9-1.7.2v2.7h.1l.4.2v.9s3.1,1.5,3.1,1.5l.2,2.8-1.5,2.7.4,2,3.1.7.7,1.5-1.2,1.3-2.1.5-1.2.9.2,1.6,6.8.3,1.4-1.1,1.6-.2,1.3,1.3,1.8.6.4,1.6h0l2.5.6,1.2-.4.7.9h1.1c0-.1.2-.8.2-.8h.7c0,0,.3,1.2.3,1.2l-.7,2.3.9.3.3.7h0l.5-.7,1.1.2.3-.5,1.7-.5Z"/>
    <path id="JE-MY" d="M340.4,431.7l-2.1,1.7-.5,3.1-.8,1.7v.7c.1,0,1.1.3,1.1.3l.2,1.4-2.1.8h0l-.9-.8-1.5.2-1.6,1.1v1.1s-1.3-.4-1.3-.4l-1.1,1-.5-.2-.7-2.6-1.1.4-1.3-.2-.3-2.5h.4c0,0,0-.8,0-.8l-.5-.8-1.2-.3v-1.7c0,0-1.7-1.9-1.7-1.9h0l.6-.5v-.6l-.8-.5.6-1.9-2.3-.9h-1.6c0,.1-2.2-1.4-2.2-1.4l-1.5-.2-2.9-2.5-.9-2.4h0l1.5-1.2,1.7.7-.3-.7.6-.2.2-.7h.9l.8.9h1.5l.6-.9h.8l.5.9h1.1l.2-.7h.8l.8-1.2,2.8.5v-1.2l.6-.9,1.7-1.4h0l.6.7,3.4.9.5,1.5,1.8.4.6.6,1-.5,1.5.9.5,2.2-.4.6-.6-.2v1.1s-.8,1.5-.8,1.5l-.6.5-.6-.2-.9,1.7v2.3s3.3-3,3.3-3l1-.2,1.4,1.8,1,.3.4,1.2-1.2,1.4Z"/>
    <path id="JE-OU" d="M323,433.1l-2.6.7v.8c0,0-1.5,1.6-1.5,1.6h-1.2s-.4,1.2-.4,1.2h-.5c0,0,.7,5.3.7,5.3l-.6.4v.9l-1.4,2.1-2.1,1.4-.3,1.3-3.5.4-3.2,2.4-1.1-.6v-1.5c0,0-1-1.4-1-1.4l-6.8,1.1h0l-.8-5.4-1.4-2.4-.6-.2-.3-1.7-.6-.7.2-.7-1.2-.9-.8-1.7h-.6l-.3-1.4-1.1-.9v-2.1l-.6-.9-1.9-.9-.2-.9-1.5.2-.6,1.2-1.4-.2.3-1.9h-.6l-.2-.7.8-.7v-.7l-1.2-1.7.2-.7-1.1-2.1.3-3.5.5-.7,1.1-.2v-.9l1.7-1.2.8-1.9h3.4l1.2.9-.2.5h1.2l.6.7,1.7.2.2-.5h.8l.3-3.1h.9l.5-.9,1.1-.2.2,2.4,2.5.9.6,1.2,3.2,1.2.6.7.9-.5.8.7.5,1.4h1.5l.3,1.4,1.9,1.2.2.9.9.5h0l.9,2.4,2.9,2.5,1.5.2,2.2,1.5h1.6c0-.1,2.3.8,2.3.8l-.6,1.9.8.5v.6l-.6.5Z"/>
    <path id="JE-PE" d="M337.6,465.7l-3,1.2h0l-.2-1.1-.6.2-1.7-.5-1.7-1.3-6-.7-.9-.7-3.7-.2-.3-.4.2-1.3-.5-.2-2.1,1-1.7-.6-.9-1h-2.2c0,.1-.6-.3-.6-.3h-1.7s-.5.4-.5.4l-1.3-.2-2-1.3-3.4,2-3.6,1.1h0l-.2-1.1.6-.2v-2.4l-.6-2.1.3-1.4h-.3l-.6-4-.8-.5v-.8h0l6.8-1.1.9,1.4v1.5c0,0,1.2.6,1.2.6l3.2-2.4,3.5-.4.3-1.3,2.1-1.4,1.4-2.1v-.9l.6-.4-.7-5.4h.5c0,0,.4-1.1.4-1.1h1.2s1.4-1.7,1.4-1.7v-.8c0,0,2.7-.7,2.7-.7h0l1.6,1.9v1.7c0,0,1.2.3,1.2.3l.5.8v.7c0,0-.3,0-.3,0l.3,2.5,1.3.2,1.1-.4.7,2.6.5.2,1.1-1,1.3.4v-1.1s1.6-1.1,1.6-1.1l1.5-.2.9.8h0l.4,1h1.1s0,.5,0,.5l-.4.6-2.7.6-.4.9,1,5.7-.4,1.8-1.4,1.8v1c.1,0,2.1,1.1,2.1,1.1l.3,1,.9.8.8,7.6Z"/>
    <path id="JE-SA" d="M369.7,482.7l-.7-4h1s.3.4.3.4l.4-.8h1.1s.3-3.3.3-3.3l-.5-.7.3-.7.8-.3v-1.1c0,0-1-.8-1-.8l-2,.9-.9-1.9v-2.4s1-1.3,1-1.3l1-3.6h.7s2.1-3,2.1-3l2-1,1-2.3h0l.2-1.6-1.2-1.2.3-2.4-.6-.3.7-.5h2c0,.1.8-1,.8-1l1.3.7.8-1.5,2.1-.9.3-3,.6-.9-.6-.5.2-.7h1.3l.3-1.4.8-.4h0l.4.2v.9s3.1,1.5,3.1,1.5l.2,2.8-1.5,2.7.4,2,3.1.7.7,1.5-1.2,1.3-2.1.5-1.2.9.2,1.6,6.8.3,1.4-1.1,1.6-.2,1.3,1.3,1.8.6.4,1.6h0l-1.4,1.8h-.7c0,.1-.2-.5-.2-.5l-3.9-1.2-4,1.8-2.7-.4v.8c0,0-2.3.6-2.3.6l1.7,2.8v2.5s-.3.8-.3.8h-.5l-.2-.8h-1s.1.7.1.7l-.8.7.6,7.1-2.1,1.9-.8-.2-.3.6-1-.2-.6.5h0l-3.3.5.2,1.1h-1.1c0,.1-1.1,1.3-1.1,1.3h-1.8c0,0-.8-.7-.8-.7v-.7s-1-.1-1-.1l-1.9,1.3v.6h-.3Z"/>
    <path id="JE-TR" d="M385.8,441l-.8.4-.3,1.4h-1.3l-.2.7.6.5-.6.9-.3,3-2.1.9-.8,1.5-1.3-.7-.8,1.1h-2c0-.1-.7.4-.7.4l.6.3-.3,2.4,1.2,1.2-.2,1.6h-.9s-1-2.5-1-2.5h-2s-.8.5-.8.5l-1.7-.8-.9.8-2.2-.2v.9c0,0-.7.3-.7.3v1.1l-3-1.8v-.9c-.1,0,.6-.6.6-.6l-1.2-.7-1.4.5-.5-3.8-.5-1.6-.8-.3h0l.9-.8h1.9c0-.1,1.4-.7,1.4-.7l-.5-2,.6-1.6-1.4-3.2-.2-2.3.5-.7-.4-3.4.8-.7-.3-2.1-.9-.6-.2,1.2-.3-1.3-1-.3.7-.8-.2-.9.9-.3.2-2.3-.4-.6v-1.7h.5c0,0,0-.8,0-.8h1.2l.8-.8v-1h0l1.3-.2.5-1.2-.3-1.9h.8l.3-.9,5.9.7.9.7-.2,1.2.5.5.3,2.1,1.1.5.8-.5,1.2,1.4-.3,1.9.8.7v.9l.9.7v1.2l.6.5-.5,1.2.3.9,1.5-.7.6,1.2,2.2.9h1.2l.5-.7,1.2-.2v-1.2l1.7.5.3-.9,2,.2,1.2-.7.5-1.2,1.1.2.2-1.2,1.2.2-.2-.9,1.1-.7.3,1.2.9.5.9,1.9,1.4-.7,1.2.5.2.9-.6,1.8h0l-3.3,1.3-.7-.5-2.4.7-3.8-.8-1,1.6-1.1,4.9-1.7.2v2.6Z"/>
  </g>
</svg>