<?xml version="1.0" encoding="UTF-8"?>
<svg id="Layer_1" xmlns="http://www.w3.org/2000/svg" xmlns:amcharts="http://amcharts.com/ammap" version="1.1" viewBox="0 0 512 512">
  <!-- Generator: Adobe Illustrator 29.1.0, SVG Export Plug-In . SVG Version: 2.1.0 Build 142)  -->
  <g id="_x3C_defs">
    <amcharts:ammap bottomLatitude="-12.2088703" leftLongitude="96.8166785" projection="mercator" rightLongitude="96.9294919" topLatitude="-12.0723080568"/>
  </g>
  <path id="CC" d="M279.4,473.3l-.4,4.1-5-2.5.3-2.5,4.9-1.3.2,2.1ZM233.1,473l-4.7-3.2-.5-4.5,5.2,7.7ZM309.4,463.1l.5,1.9-2.4-1.6,1.9-.3ZM391.5,460.6l7.6,4.4-9.8-4,2.2-.4ZM276.5,460.2h3.8s-1.1,4.1-1.1,4.1l-5-.8v-5.2s2.3,1.8,2.3,1.8ZM358.8,464.8l-2.1-2.4,6.1-5-5.4,5.2,1.3,2.3ZM372.5,456.8l13.6,5.6-3.4,1-10.2-6.6ZM168.9,452.3l24.3,2.8-15.8,2.3,3.8-2.4-6.2-1.7-17.3,3.1,11.1-4.1ZM432.1,406.7l-7.1,8.3,6-11.9,1.2,3.7ZM412.5,337.2l1.5,1.6-3.3-.8,1.8-.8ZM411.5,328.7l-2.5.3,2.6-2.2-.2,1.9ZM425.6,329.3l29.2,67.3-.6,15.7-17.7,29.2-6.2,18.2-20.5,18.4-48.5,20.3-31.2,4.5-3.6-12.2-22.1-7-6.7-6.3,2-17.2,6.1-6.3,2.9,3.6-3.7-1.8,3.1,3.7-4.3,6.1,3.1,6.2,3.8.9,2.2-3.1,1.8,2.2-2.8,4,2.2-.3,6.9-8.7,2.6,5.6-3.3,4.8,4.5.6-2.3,3.9,3.3,1.4.8-5.2,4-.9,1.3,1.4-3.3-.7,2.8,2.7-.8,8,2.9,7,3.8-2.4-4.3-6.9,5.6-6.2,5.9-1.7.4-2.7-4.7,2,5.1-2.7,2.4,1.2-1.8,2.5,3.4,9.6,2.9-1.5-.3,3.6,4.1,2.6,6-2.6,1-14.2,2.4-2.6-3.8-10.1,4.2-4,2.8,1.7,5-2.6,2.2,5.4,10.1,3.6,10.7-2.3,1.6,5.6,3.5-1.5-1.8-4.7,4.6,8.8,1-3.4,5.2-2-.5,2.6,12.9-11.4-4-8.7,3.9-4.6-3.6-1.6,4-9.4-2.2-9.5,3,11.4,2.2-4.3-2.1-7.3,9.5.7-4-7.8-3.8-1.5,1.5-2.4,7.7-1.4,5.7,3.3-3.1-5.5,8.7,2.5,2.3-6.7-2.7-2.2,1.2-5.4-4.8-11.3-5.3-.7-1-7-8.2-5.4,3.8-2.5-4.8-6.8-.5-7.6-1.7-.6.9,2.5-3.5-4.6,5.2-3.2-1.4-2.3-4.2,2.1-1.4-2,4.2-3.3h-6.9s-2.5-2.3-2.5-2.3l2-.7-6.4-2,5.2.9,1.8-1.1-2.4-2.7,4.1-2.3-3.5-2.6,1.6-3.4-5.3.3,1.9-3.5,6-3.2,4.4,1.8.9,4ZM406.8,345.9l4,2.3-6.6-5.5,2.7,3.2ZM419.1,318l2.3,4.8-14.9-2.1,12.7-2.7ZM405.4,310.1l-3.3,1.7-3.7-2.9,7,1.2ZM418.5,309.2l-13.3-2.8,2.1-.7-3.4-3.2-12.7-3.4,28.2,2.4,2.2,4.8-3.2,2.9ZM412.6,273.1l10.2.3,4.1,10.1-4.6,9.7-18.1-3.1,2.4-4.7,10.4,6.6,4-2.5-6-6.5-.2-5.5-12.9-3,4-3.6,6.8,2.1ZM395.5,237.4l22.3,26.7-2,5.7-7.8-1.8,3-5-2.4-3.4-7.3-.2,4.9-5.1-6.1-1.9,2.8-1.7-1.9-4.4-6.5-1.2-2.2-4-3.4,2.4,2.7-5.5,4.1-.6ZM79.6,244.7l6.1-.9-5.5,2.1,11.7,50.5,11.2,32,11.2,19.5-.5,19.9-3.5,8.9-1.4-3.6-3.4,1,.4-3.8-9.2-1.1-1.4-4.9,9-8.5,2.8-12.5-3.6.7.8-6.3-4.5-.2-1.5-9.8-2.8,1.9-4.4-4.1-19.4,61.3-.4,14.4,13.5,3.1,6-12.5,7.3,3.4,2.6-5.1,3.6,15.2,13.5,16,13.7,33.3,14.3,19.1-1.3,6.6,2.5,3.9,4.6-.8,10.9,7h6.8c0,0,3.5-5.8,3.5-5.8l5.4-1.7,1.9-6.7,3.9-1.5,5.7,2.4,10-18.2,2.3-1.1,9.5,5.2-4.1-5.1,5.6-.7.7-3.6-9-10.2,12.6,6.3,3,5.6,4,14.4-7.9,8.6-36.9,9.9-11.5,9.8-12.9-2-16.3-9.3-16.6-25.7-29.3-35.8-25.5-15.5-5.8-33.2,7.2-8.5,3.1-9.3.3-23.2-14.9-71.6,6.5-4.8,4.3-23.3,5.3,1.2,6.4,7.9ZM392.3,233l-6.9,3.2-7-1,10-6.1,3.9,3.8ZM388,220.3l-1.6,4.6-4.7.9,1.5-3.8,2.2,1.1-1.6-2.4,4.2-.4ZM382.8,206.9l1.8,4.9-3.4,3.6-5.4-3.5,3.2-4.5-7.4,1.2,5-4.7,6.2,3.1ZM351,169.4l12.4,10.2,7.5,10.8-.7,3.2-6.4,1.2-10.8-11-12.8,2.1-5,3.8-6.9-2.3-.3-16.6-5.8-.9,6.4-1.3-3.3-9.1-13.1-8.2-2.2-15.9,2.9.2,1.2,7.8,14.8,9.4,7.8,9.7,14.5,6.8ZM305.5,122.7l3.5.8-2,2.9-3.2-.8,1.8-2.9ZM307.5,95.6l-2.6-.4,2-2.7.6,3.1ZM303.1,72l5.7,12.8-5.6,4.5-2.1-8.6-6.9-5.9-18.3-1.7-4.2,3.7-1.8-1.1,10.8-10.8,10.7-.2,11.7,7.3ZM169.6,49.7l16,17.1,20.2,8.9v5.2c.1,0-5.3,1.7-5.3,1.7l-15.2-4-14.5-9.3-10.4-16.3-4.5-2.8-7.3,3.8,9.7,20.6-4.8,1.5-46.1-48.6-3.7-10.1,33-8.2,9.6,1.9,10.9,10.4,12.4,28.3Z"/>
</svg>