<?xml version="1.0" encoding="UTF-8"?>
<svg id="Layer_1" xmlns="http://www.w3.org/2000/svg" xmlns:amcharts="http://amcharts.com/ammap" version="1.1" viewBox="0 0 512 512">
  <!-- Generator: Adobe Illustrator 29.1.0, SVG Export Plug-In . SVG Version: 2.1.0 Build 142)  -->
  <g id="_x3C_defs">
    <amcharts:ammap bottomLatitude="-89.000292" leftLongitude="-169.522279" projection="mercator" rightLongitude="190.518061" topLatitude="83.646363"/>
  </g>
  <g>
    <path id="southAmerica" d="M172.2,182.5v-.5s.6-.2.6-.2h.2s0,.9,0,.9h-1c0,.1-.2,0-.2,0l.3-.3ZM175.2,264.1l-1-.5-1.4,1.1.6.8,1-.8.5.7,1.6-.6.3-.7-.9-.8-.7.7ZM203.3,202.3l-.4-1.5-.4-.4h-1s-.9-.4-.9-.4l-1.5-1.3-1.7-1h-1.7s-2.3-.6-2.3-.6l-1.3.4.2-.6-.6-.7-1.9-.7-1.5-.4-.9.8v-1.2s-2.1-.2-2.1-.2l-.4-.3.9-.9v-.8s-.7-.2-.7-.2l-.6-2-.3-.6h-.4c0,0-.2-.4-.2-.4l-1.2-1-.9-.3h-.4c0-.1-1.2-.4-1.2-.4h-.9c0,0-.1.3-.1.3l-1.4-.2-.5-.4-.6-.6h-.4s0-.6,0-.6l-.7-.8-.8-.4-.5-.3h-.6s-.2-.9-.2-.9l-.9-.6h-.9c0,0-.4-.6-.4-.6l1-.3h-1.4s-1.4,0-1.4,0v.3s-.7.4-.7.4h-.9c0-.1-.7-.7-.7-.7h-1.2c0,.1-1,.1-1,.1v-.4s-.8-.7-.8-.7h-.8s-.4-.8-.4-.8l-.4.4.2.6-1.4.5v.9c0,0,.4.4.4.4l-.3.8h-.5c0,0-.4-.9-.4-.9l.5-.7v-.6s-.4-.5-.4-.5h.7c0-.1,0-.4,0-.4l.2-.4-.3-.3h-.4c0,0-.6.5-.6.5l-.5.3-.9.6h-.9c0,0,0,.1,0,.1h-.7s-.7.6-.7.6l-.2,1v.4s-.5.1-.5.1l-.9.8h-.6s-.1.1-.1.1l.3.7-.2.3h-.4c0,0-.1.5-.1.5l.5.6.2,1-.2.3.3,1.1-.2.7.4.3-.4.6-.5.7h-.6c0,0-.3.5-.3.5v.6s-.4,0-.4,0l.2.4-.8.5-.6.2v.5c0,0-.4.7-.4.7l-.2.7-.4.2.2,1-.2.3.7.5.4-.5.3.5-.6.9-.9.7-.4.8.6,1.1-.4.5.8.5.9.8.4.9.5.5,1.1,2.3,1.1,2.2,1,1.6-.2.3.5,1,.9.7,2.1,1.3,2.3,1.2v.5c0,0,1.3.7,1.3.7l.2,1.7v2c0,0-.3,2.8-.3,2.8l-.4,2.6-.2,2.5-.7,1.6v1.6c.1,0-.2,1.1-.2,1.1l.3,2-.5,2.1-.8,2.2-.7,2.3h-.5s0,1.7,0,1.7l.3,1.4-.5,1-.4,2.8-.4,2.2.7.2.4-2,.8.4-.6,3.3-1.3-.6-.4,2.7-1.1,1.5,1.8.5-1.2,1.3-.5,1.7v3c.1,0,.7,1.2.7,1.2l-.3,1.1.4,1.2,1.4,1.1,1.3,1.3,1.3.6h.5s.2-1.9.2-1.9l1-.7.6-.5h1s.5.1.5.1l-.8-1.1-.4-1.9.5-.9,1.1-.7.8-2.1,1.4-1,.4-1.5-1.1-.3-1.1-1.2.3-1.2.9-.8h1.1s.3-.9.3-.9l.2-1.6.9-1,1.1-.5-.3-.8-.6.5-.8-.5-.2-1.5.4-.4,1.1.6,1.2-.2.7-.5-.2-.8.2-1.1-.2-.9h1.3c0,.1,2.3-.2,2.3-.2l1.7-.8,1.1-1.9v-.7c0,0-.7-.6-.7-.6l.2-1-1.5-1.2v-.7c0,0,.8.8.8.8h.8s1.1.6,1.1.6h.6c0-.1.9.1.9.1l1.3-.8.5-.9.8-.8.5-1.3.8-.6,1-1.1,1.3-2.4.8-.7.3-.6.2-1.3-.2-.7.2-1,1-1.3,1.4-1,1.3-.4.8-.6,1.8-.5h1.3s.3-.7.3-.7l.9-.5.2-1.3,1.2-1.6.2-1.6.4-.5v-.8c.1,0,.4-1.9.4-1.9v-2.2c0,0,.2-.9.2-.9h.3s.9-1,.9-1l.7-1.3,1.6-1.6.6-.8.5-1.9-.2-.7ZM165.2,268.6l-.6-1.5-.4-.9-.8-.2-1.1.8-.4,1.3-.6.9-1.5-.7-1.6-1.3-1-.4,1.6,2.2,1.2,1.1,1.5,1.1,1.2.3.8.6.7.2h.6c0,0,1-.6,1-.6l.4-.8.6.7h1.1c0-.1.5-1.1.5-1.1l-1.6-.5-1.5-1.2Z"/>
    <path id="northAmerica" d="M163.4,172.1v-.4s-.6,0-.6,0l-.2-.4h-.3s-.7-.3-.7-.3h-.9s-.1.2-.1.2l-1-.2h-.7c0,0-.3.3-.3.3l.7.2v.5s.5.5.5.5l-.4.3h-.9c0,0-1.1-.3-1.1-.3v.4c-.1,0,.5.4.5.4l.5-.2h.7c0,0,.5,0,.5,0l.8.2v.3c0,0,.4.2.4.2l.5-.8.4-.2.2.3h.4c0,0,.2-.3.2-.3h.4c0,0,.5,0,.5,0l.6.3.4-.5-.6-.4h-.5ZM152.7,162.3h-.5c0,.1,0,.6,0,.6l1.3-.2v-.3s-.8,0-.8,0ZM153.1,164.4l-.3.8.4.4.3.7h.3c0,0,0-.8,0-.8l-.4-1.1h-.3ZM166.9,172.7h-.9s-.2.2-.2.2v.5c0,0,.7,0,.7,0h.9s.3-.3.3-.3l-.2-.2h-.6ZM157.7,170.6l-.9-.5h-.9s0-.4,0-.4l-.7-.3h-.4s-.7-.5-.7-.5l-1-.8-.4-.3h-1.1c0,.1-.5-.3-.5-.3l-1.1-.4h-.9s-1-.1-1-.1h-.3c0,.1-.9.3-.9.3l-.6.2-.5.3-.3.5-.6.4h.5c0,.1.6,0,.6,0l.2-.3h.5s.8-.7.8-.7h1.1c0,0-.4.4-.4.4l.4.2,1.5.2.3.3,1.1.3h.7s.3.7.3.7l.4.4h.7c0,0,.5.4.5.4l-.8.7h1.7c0-.1.8,0,.8,0h.8c0,0,.8-.2.8-.2v-.3ZM154.6,172.9h-.8c0-.1-.3-.1-.3-.1h-.5c0,0-.1.4-.1.4l.7.4.6.2.4-.2h.8s-.2-.4-.2-.4l-.6-.3ZM154.2,163.6l.2-.9-.9-.6h0c0,.1.5.7.5.7v.7s.2.2.2.2ZM60.4,168.8l-.3.2h0s.1.3.1.3h.4s0,0,0,0h0c0,0-.3-.5-.3-.5h0ZM58.6,168.2h-.2c0,.1,0,.2,0,.2l.4.2h.1c0-.1,0-.4,0-.4h-.3ZM61.2,169.6h.6s0,0,0,0h-.6c0,0,0,0,0,0ZM62.4,169.8h-.4c0-.1-.1,0-.1,0h0c0,0,.1.2.1.2l.2.3h.4c0,0,0-.2,0-.2l-.3-.2ZM50.6,106.4l-1.1.4.7.6.8.4.7-.4v-.9c-.1,0-1-.2-1-.2ZM47.1,100l.8-.5v-.3c0,0-.8-.3-.8-.3v1.1ZM104.6,55.2l2.2-2.1,1.1-.2.9-1.8.2-4-1.6.8h-1.8c0,0-2.4,3.3-2.4,3.3l-2,3.7,1.6,1,1.9-.7ZM107.2,59.1l1.6.8,5.2-.5-2.4,2v1.4c.1,0,1.9,0,1.9,0l2.9-1.9,3.9-.7.7-2.2-.2-2.3-1.2-.2-1,.8-.5-1.7-.4-2.4-1.2-.6-1.1,1.8,1.7,4.6-2-.4-2.1-2.8-3.3-1.7-1.1,1.4-1.6,4.6ZM100.9,76.4l3.1-1.7v-1.6l1.4-2.7,2.8-2.8,1.5-1-1.2-1.7-1.1-1.2-3-.2-1.7-.9-3.9.7,1.1,2.6-1,2.7-.8,2.8-.5,1.6,2.7,1.9.6,1.6ZM182.2,129.9l-.8.3.4-1.3-1.2-.5-.5.4-1-.5.4-.6-.8-.4-.8.6.8-1.6.6-1.2.2-.5h-.5c0,0-1,.6-1,.6l-.7,1-1.2,2.9-1,1.1.5.5-.7.6.2.5h2.3c0,0,1.2,0,1.2,0l1.1.4-.8.8h.7c0,0,1.3-1.4,1.3-1.4l.3.2-.3,1.4.8.3h.5c0,0,.5-1.6.5-1.6l-.4-1.1v-.9ZM169.9,133.6l-.4-.8-.4.5.3.6,1.5.7h.4c0-.1.6-.8.6-.8h-1.1s-.8-.2-.8-.2ZM63.6,170.9h-.2c0-.1-.4-.3-.4-.3h0s0,0,0,0v.2c0,0-.1.2-.1.2h0c0,.1.2.6.2.6v.3s.3.2.3.2l.2-.2.4-.2.5-.3h0c0,0-.3-.5-.3-.5l-.2-.2ZM172,128.9l-1.2-.7-1.5-.5-.4.2,1.1.8,1.5.6h.6s0-.4,0-.4ZM229,20.3l-3.5-1.6-5.6,3.1-3,2.9,1.3-4.5-1-3-2.3,2.5-3.5-2.9-4.1.9-.6-1.5,6.2-.8,4.4-.4,2.1-3.4-7.3-7.7-9.3-1.3-4.1,1-1.5,3.7-4.1-.4-3.9,5.6-.2,3.8,2.8,4.5-2.4-2.7-1.6-.7-2.8-3.2-3.1,4.7-1.3-2.6h-3.6c0,0-3.6,1.4-3.6,1.4l-2.7,2.2.5,3.5-1.7.8-4,5.1-1,2.7,3.1,2.4-.4,2.3-4.3,3-4.4,2.8-.2,2.2,2.6,2.2,5,1.4-2.3.3-3,1.6,2,3.2,1.3,1.6,2.8-.4,3.1-.2,2.5.4,3.1,2.8v1.9s1.5,1.7,1.5,1.7l1.4,4.5.9,2.8.7,1.5-1.3,3.5,1,.9,1.2-.5,1,1.2,2,2.2-2.4-.9h-1.1s-.5,1.9-.5,1.9v2.3c0,0,1.5,1.1,1.5,1.1l1-.5.6-.5,1.3-1.2-.2,2.6-.5,1.3-1.7,1.2-1.1,3.6.8,1-.4,2.1,1.6,2.6.2,2.4.6,1.7,2,3.2.8,2.4,1.1,1.3h2.3s1.7,1.9,1.7,1.9h1.6c0-.1.6-2.4.6-2.4l.5-2-.5-1.9,1.9-2,.6-1.7v-1.9s1-1.7,1-1.7l1.7-.7,1.5-.7h.8c0-.1,2.5-2.1,2.5-2.1l1.6-3.2,1.2-1.2h1.3s3.4-1.1,3.4-1.1l3.2-2.5,3.1-2.9-1.6-.2h-3.1c0-.1,1.3-2,1.3-2l-.4-2.4,1.4,2.1.9,1.3,2.1-.7-.4-2.9-1.5-2.3-1.6-.9.6-1,2.3,1.6v-1.7s-1.5-2.7-1.5-2.7h1.6s1.6-.6,1.6-.6l.4-1.5-1.3-1.7,2.6-.3-1.5-3.8,1.2-.4-.3-4-2.1-2.6,1.9-1.6,1.8-.2-1.4-3.4v-6.3s.9-4,.9-4l1.4-4.8-2.7-.3,3.7-1.2.7-1.6,4.7-5.2-.6-3.4ZM115.9,46.8l.4-1.7-1.6-.9-1.7.6-.9,1.8,1.7,1.7,2.2-1.6ZM66,111.8l-.6.3-1.1.8.2,1,.6.5,1.2-.8,1-1-.5-.7h-.8ZM90.9,119.8l-1.1.2-.5-.3v.6c0,0,.1.9.1.9l.6.6.4.9.7.9h.5s-1-1.5-1-1.5l.3-2.2ZM100.4,130.2l-.5-1-1.2-.7-.6-.8-.4-.6-1.1-.2-.7-.3-1.2-.4v.4c0,0,.3,1,.3,1l1.2.3.2.5,1,.6.3.6,1.9.8.6-.2ZM173.6,134.1l.7.6-1.4,1.1-2.6,1-1.2.7-1.3,1.2h-.9c0-.1,0-1.5,0-1.5l2-1.3h-1.9c0,0-1.3.3-1.3.3l.2.5-1.2.8-1.2.6-1.2.5-.6.9-.2.4v.8s.4.8.4.8h.5s-.1-.5-.1-.5l.3.3v.4c0,0-.9.3-.9.3h-.6s-.9.2-.9.2h-.5c0,0-.7.2-.7.2l-1,.4,1.7-.3.3.3-1.6.5h-.7s0-.2,0-.2l-.4.4h.3c0,0-.3,1.2-.3,1.2l-.8,1.2v-.4c0,0-.3,0-.3,0l-.4-.4.2.8.3.3v.6s-.4.6-.4.6l-.7,1.2h-.1c0,0,.4-1.1.4-1.1l-.6-.6v-1.2c-.1,0-.4.6-.4.6l.2.9-.8-.2.8.5v1.4s.4,0,.4,0v.5c.1,0,.3,1.4.3,1.4l-.7,1-1.2.4-.8.8h-.6c0,0-.6.6-.6.6l-.2.5-1.3.9-.7.6-.5.8-.2,1,.2.9.4,1.1.5.9v.6s.6,1.5.6,1.5v.9s0,.5,0,.5l-.3.8-.3.2-.6-.2-.2-.6-.4-.3-.6-1.1-.5-1-.2-.5.2-.9-.3-.7-.9-1.1-.5-.2-1.2.6h-.2c0,0-.6-.7-.6-.7l-.7-.3-1.3.2h-1c0-.1-.9,0-.9,0l-.5.2.2.4v.5s.2.3.2.3l-.2.2-.4-.2-.4.3h-.8s-.9-.7-.9-.7l-1,.2-.8-.3h-.7c0,0-1,.4-1,.4l-1.1,1-1.2.6-.6.6-.3.6v.9s0,.6,0,.6l.2.4h0,0s0,0,0,0h0l-.4,1.1-.2.9v1.7c0,0-.2.6-.2.6l.2.7.4.6.2,1,.8.9.3.7.5.6,1.2.3.5.5,1-.3h.9c0-.1.9-.3.9-.3l.7-.2.7-.5.3-.7v-1c0,0,.3-.4.3-.4l.8-.3,1.2-.3h1s.7,0,.7,0l.3.3v.6s-.7.7-.7.7l-.3.7.2.2-.2.5-.3.9-.3-.3h-.2s0,.2,0,.2h.2s0,.3,0,.3l-.2.5v.2c.1,0,0,.4,0,.4h0c0,.1-.1.7-.1.7l-.2.3h-.2s-.2.5-.2.5l.4.2v-.2c0,0,.4.2.4.2h.1s.3-.2.3-.2h.3s.1,0,.1,0h.2c0,0,.5,0,.5,0h.5s.4-.2.4-.2h.1c0-.1.4,0,.4,0h.3c0,0,.3,0,.3,0h.2c0-.1.5,0,.5,0h.2s.4.2.4.2l.3.3.4.2.3.3h0c0,.1,0,.4,0,.4v.4c.1,0-.1.4-.1.4v.5c-.1,0-.2.5-.2.5v.3c0,0,0,.5,0,.5h-.2c0,.1-.1.6-.1.6v.3c0,0-.2.3-.2.3v.3c0,0,.2.2.2.2l.3.6.4.5.5.5.4.4v.2s.4,0,.4,0h.1c0,0,.3.2.3.2h.6c0,0,.5-.4.5-.4l.7-.2.4-.3h.6c0,0,0,.2,0,.2h.6s.5.2.5.2l.4.3.4.3v.2c-.1,0,.1.7.1.7l-.2.3h-.4c0,0-.1.5-.1.5l-.4-.3-.2-.6.3-.3h-.3c0,0-.2-.5-.2-.5l-.6-.3h-.5c0,0-.2.5-.2.5l-.5.3h-.3s-.1.3-.1.3l.6.6h-.3c0,.1-.2.3-.2.3h-.5c0,0-.2-.6-.2-.6v.2c-.1,0-.5,0-.5,0l-.2-.5h-.5c0,0-.3-.2-.3-.2h-.5v.3s-.2-.2-.2-.2l-.6-.3-.2-.2v-.2c.1,0,0-.3,0-.3l-.3-.3-.5-.2h-.4c0-.1,0-.5,0-.5l-.3-.2v.3c0,0-.2.3-.2.3l-.3-.3h-.4c0-.1-.2-.4-.2-.4v-.4s.2-.4.2-.4l-.3-.2.3-.2-.4-.4-.5-.5-.3-.4-.5-.4-.6-.5v-.2c.1,0,.3.2.3.2h0c0,0-.2-.5-.2-.5h-.4c0-.1-.1.2-.1.2h-.7s-.4-.1-.4-.1l-.5-.2h-.6c0,0-.3-.3-.3-.3l-.6-.2h-.7s-.5-.3-.5-.3l-.6-.5-1.3-1.3-.6-.4-.9-.3h-.6c0,0-.9.5-.9.5h-.6c0,.1-.8-.2-.8-.2l-.9-.2-1.1-.6-.9-.2-1.3-.6-1-.6-.3-.3h-.6c0,0-1.2-.5-1.2-.5l-.5-.6-1.2-.7-.6-.8-.3-.6h.4c0-.1-.1-.5-.1-.5l.3-.3v-.4s-.4-.6-.4-.6v-.5c-.1,0-.5-.6-.5-.6l-1-1.3-1.2-1-.6-.8-1-.5-.2-.3.2-.8-.6-.3-.7-.6-.3-.9h-.6c0-.1-.7-.8-.7-.8l-.5-.6v-.4s-.7-1-.7-1l-.4-1v-.5s-.8-.5-.8-.5h-.4c0,0-.7-.3-.7-.3l-.2.6.2.6v1c.1,0,.5.6.5.6l.9.9.2.3h.2c0,0,.1.5.1.5h.2s.2.8.2.8l.4.3.2.5.7.7.4,1.2.3.6.3.6v.7c0,0,.6,0,.6,0l.5.6.4.6v.2s-.5.5-.5.5h-.2s-.3-.8-.3-.8l-.8-.7-.8-.6-.6-.3v-.9s-.1-.7-.1-.7l-.6-.4-.8-.6-.2.2-.3-.3-.7-.3-.7-.8h0c0,0,.5,0,.5,0l.4-.5v-.6s-.8-.9-.8-.9l-.7-.4-.4-.8-.4-.9-.5-1.1-.5-1.2h0l-.2-.7-.8-.8-.5-.2v-.4c-.1,0-.8,0-.8,0l-.4-.4h-1.1c0-.1-.3-.4-.3-.4v-.8c-.1,0-1.3-1.4-1.3-1.4l-1-2v-.3s-.5-.5-.5-.5l-.9-1.2-.2-1.2-.6-.8.3-1.3v-1.3s-.4-1.2-.4-1.2l.5-1.5v-1.5c.1,0,.3-1.5.3-1.5l-.2-2.2-.4-1.5-.3-.8v-.3c.1,0,1.8.6,1.8.6l.6,1.6.3-.5-.2-1.4-.4-1.4h-.2s-2.2-1.8-2.2-1.8l-.8-.8-2.1-.8-.6-1.6.2-1.2-1.5-.8-.2-1.6-1.4-1.4v-1s-.7-.8-.7-.8l-1-.6-.3-1.8-1.5-1.7-.6-2h-1.1c0-.1-1.8-.2-1.8-.2l-1.4-.6-2.4-2.3-1.1-.4-2-.8-1.6.2-2.3-1.1-1.4-1-1.3.5.2,1.6h-.6c0,.1-1.3.6-1.3.6l-1,.8-1.3.5-.2-1.3.5-2.3,1.2-.7-.3-.6-1.5,1.3-.8,1.6-1.7,1.6.8,1.1-1.1,1.6-1.2.9-1.2.7-.3.9-1.8,1.1-.4,1-1.4.9-.8-.2-1.1.6-1.2.7-1,.7-2,.6-.2-.3,1.3-.9,1.1-.6,1.2-1.1,1.4-.2.6-.9,1.6-1.3.3-.4.9-.8.2-1.7.6-1.3-1.3.7-.4-.4-.6.8-.8-1.1-.3.8-.4-1.1-1.2.9h-.7v-1.3c0,0,.1-.8.1-.8l-.7-.8-1.5.4-1-1.1-.8-.6v-1.3s-.9-1-.9-1l.4-1.4.9-1.4.4-1.3.9-.2.8.4.9-1.2.8.2.9-.8-.2-1.2-.6-.5.9-1h-.7s-1.2.6-1.2.6l-.4.6-.9-.6-1.6.3-1.7-.6-.5-1.1-1.5-1.6,1.6-1.2,2.6-1.4h1l-.2,1.4h2.5c0-.1-.9-1.9-.9-1.9l-1.4-1.1-.8-1.5-1.1-1.3-1.6-1,.6-1.7h2.1c0-.1,1.5-1.6,1.5-1.6l.3-1.6,1.2-1.6,1.1-.4,2.2-1.6,1.1.2,1.8-1.9,1.8.8.8,1.6.5-.7,2,.2v.8c0,0,1.7.6,1.7.6l1.2-.3,2.4,1.1,2.2.3.9.4,1.5-.6,1.8,1,1.3.5,2.2.8,1.8,1.6,1.2.3,1-1.4,1.4-1,1.7.4,1.7-1.5,1.9-.8.8,1.4.9-.8.3-1.6.8.4,2,3,1.5-2.3.2,2.5,1.4-.5.4-1,1.4.2,1.8,1.4,2.7,1.2,1.6.5,1.1-.2,1.6,1.6-1.6,1.5,2.1.7,3.1-.4,1-.5,1.2,1.8,1.3-1.5-1.2-1.3.7-1.1h1.4c0-.1.9-.5.9-.5l.9.8,1.2,1.7,1.3-.2,2,1.4,1.8-.5h1.7c0,0-.1-1.9-.1-1.9l1-.6,1.8,1.1v2.9s.7-2.4.7-2.4h.9c0,0,.5-3.1.5-3.1l-1.2-2-1.4-1.4v-3.9c0,0,1.5-2.7,1.5-2.7l1.5.6,1.2,1.6,1.6,4-1,1.7,2.2.7v3.3s1.5-2.5,1.5-2.5l1.4,2.1-.3,2.3,1.1,2,1.2-2.2.8-2.7v-3.6c0,0,1.7.3,1.7.3l1.7.5,1.6,1.6v1.6c0,0-.8,1.7-.8,1.7l.8,1.6v1.5c-.1,0-2.4,2.1-2.4,2.1l-1.6.4-1.2-.9-.3,1.4-1.1,2.4-.3,1.2-1.3,1.8-1.7.2-.9,1.1v1.7c0,0-1.4.3-1.4.3l-1.4,2-1.3,2.7-.5,1.9v2.7c0,0,1.6.4,1.6.4l.5,2.1.5,1.6,1.6-.4,2.2.9,1.2.8.8,1,1.5.6,1.2.9h1.9c0,.1,1.3.3,1.3.3l-.2,1.7.4,2,.8,2.1,1.7,1.8.9-.6.6-1.9-.6-3.1-.8-1,1.9-.9,1.3-1.4.6-1.4v-1.4c0,0-.9-1.8-.9-1.8l-1.4-1.7,1.4-2.4-.5-2.1-.4-3.8.8-.6,2,.7,1.2.2,1-.7,1.1.8,1.4,1.4.4.9,2.1.2v2s.4,2.9.4,2.9l1.1.4.8,1.3,1.7-1.2,1.1-2.5.8-1.1.9,2.1,1.5,2.9,1.3,2.6-.5,1.3,1.5,1.2,1,1.2,1.9.5.7.6.5,1.7.9.3.5.7v2.1c0,0-.8.7-.8.7l-.8.7-1.9.7-1.5,1.5-2,.3-2.5-.4h-1.7s-1.2.1-1.2.1l-1,1.3-1.5.8-1.7,2.3-1.3,1.6,1-.3,1.9-2.3,2.4-1.5,1.7-.2,1,.9-1.1,1.2.4,1.8.4,1.3,1.5.8,1.9-.2,1.2-1.9v1.2ZM129.8,79l-.8,1.5-1,1,1.6,1.5.9-.4,1.6,1,.7-1.1-.7-1.3-.3-.6-.7-.6-1.2-1ZM146.3,101.4l.3.7h.8c0,0,1.4-1.3,1.4-1.3v-.5s-1.6,0-1.6,0l-.9,1.2ZM151.4,103.4l.5-1.3-.3-.5h-.5c0,0-.4.7-.4.7v.2c0,0,.3.7.3.7l.5.2ZM131.1,66.6l-.3-1.2-2.1.5-1.4-.9-1.4,2,1.3,2.6-2.4-.5v1.2s2.9,2.9,2.9,2.9l.8,1.4,1.1.3,1.9-1.4.2-3.4-1.8-1.7,1.1-1.9ZM126.6,79.4l-2.1-1.6-1.9-1.7-.4-2.6-.7-3.7-1.3-1.6-1.2-.6-1,.6.8,4-.6,1.5-.9-3.7-1.1-1.3-1.3,2-1.6-2-2.6,1.2.6-1.8-1.2-.8-3.1,2.4-.8,1.5-1,2.8,2,1h1.8s-2.7,1.4-2.7,1.4l.6,1.3h1.6c0,0,2.5-.2,2.5-.2l2.2.8-1.5.6-1.6-.2-1.8.6-.8.4,1.4,2.6,1-.4,1.6.9.6,1.5,2.1-.3,2.9-.5,2.2-1.1,1.3-.2,2,.9,2.1.5.4-1.2-.7-1.3,1.9-.3v-1.5ZM150.8,98.1l-.8-.9-.9.2v-1.3c-.1,0-1.4-.8-1.4-.8l-1.3-.9-.7-.7-.6.4-.2-1.2-.8-.2-.4,2.5v2.1c-.1,0-1.2,1.3-1.2,1.3l1.6-.2.4,1.5,1.7-1.3,1.2-1.4.6,1.2,1.8.6,1-.8ZM139.1,23.9l1,3,2.1,2.4,4.1-.5,2.6.8-1.8,2.5-.9-.7-3.2-.3.5,3.4,1.6,2.5-.3,2.2-2.1,1.4-.9,2.3,1.9,1.1,1.6,3.5-3.1-2.4-.7.4.6,3.9-2.1,1.2v2.4c.1,0,2.3.3,2.3.3l1.7.6,3.4-.8,3,1.4,3.1-3v-1.3s-2,.2-2,.2l-.2-1.2,1.6-1.6.6-2.1,1.8-1.6,1.1-2-1-2.9.8-1.1-1.6-.8,3.5-.7.7-1.3,2.4-1.1,2-5.6,1.9-2,2.7-4.6h-2.5s1.1-1.7,1.1-1.7l2.8-1.7,2.8-3.7v-2.4s-2.1-2.5-2.1-2.5l-2.5-1.2-3.1-.8-2.5-.6-2.5-.6-3.4,1.6-.6-1-3.5.4-2.1,1.1-1.5,1.5-.9,4.9-1.3-2.5-1.4-.5-1.7,3.3-2.3,1.4-1.4.3-1.7,1.6.3,2.8,1.4,2.3ZM116.5,41.6l-1.5-1.2-.6-.3-1.2,1.8v.8s1.9,0,1.9,0l1.4-1.1ZM165,79.1l-1-1.4-2.8-1.4-1.2-2.3-2.2.8v-1.6c-.1,0-1.7-1.8-1.7-1.8l-2.6-1.9-1.1,1.5-2.3,1.1.2-2.5-2-4.2-2.9,1.7-1.1,3.2-.9-2.5.9-2.6-3,1.1-1.2,1.7-.9,3.5.4,3.7h1.6s-1.2,1.6-1.2,1.6l1,1.2,1.9.5,2.5,1,4.2.8,2.1-.4.6-1,.9,1.2,1,.2,1.2,2.1-.7.8,2.4,1.1,1.8,1.5.4,1.1.3,1.3-1.5,2.9-.4,1.4.4,1-2.4.4h-2.2s-.8,2.1-.8,2.1l1,.9,3.4-.4v-.8s1.7,1.3,1.7,1.3l1.7,1.4-.4.7,1.4,1.3,2.5,1.5,3.1,1-.2-.9-1.2-1.5-1.6-2.2,2.9,2.1,1.5.7.4-1.8-.8-2.6-.5-.7-1.6-1.3-1.2-1.6v-1.6c.1,0,1.6-.4,1.6-.4l1.8,2.7,1.4,1.2,2-3.3.4-2-1.8-.2-1.7-2.8-1.8-.7-2.7-2.1,2.1-1.5-1.1-3.1ZM156.5,87.7v-.4c.1,0,.1-1.3.1-1.3l-.9-.9-1.1.4-.5,1.7.3,1.5h1.3c0-.1.8-1,.8-1ZM122.5,66.8l-.9-.9-1.6.2-.4.6,1.8,2.8,1-2.6ZM128,60.5l1.9-.5.5-3.4v-2.5s-.9-2.3-.9-2.3v.7c0,0-1.7-.3-1.7-.3l-1.7,1.7-1.3-.2v3.7c0,0,2-.4,2-.4v2.7s1.2.7,1.2.7ZM149.9,67.2l1.3,2.1.3.2,1.3-.5h1.3c0,0,1.2.2,1.2.2v-1.1c-.1,0-2.1-2.2-2.1-2.2l-2.7-.4-.6.3v1.5ZM129.9,44.6l.9,1.3,1.7-1.1.3-2.1-1.4-2-.7-.4-1.5-.2v2.4c0,0,.6,2.1.6,2.1ZM122.8,41.2l-1.1,1.7,2.6.2,1.9,1.8,1.9.6-.5-2.4-.9-2.8-3.1-2.2-2.3-.8v2.4c0,0,1.5,1.4,1.5,1.4ZM133.6,37h2.1s-.9,1.6-.9,1.6v2.2s1.2,2.4,1.2,2.4l2.4.7,2.1-.4,2.1-4.4,1.6-1.8-1.4-2.1-.9-4.4-1.9-1.3-2-1.5-1.5-4-2.7.4.5,1.7-1.2.5-.8,2.2-.8,3.1.7,3,1.3,2.1ZM134.4,72.3l1.2-2.9,1.4-.8,1.7-3.6-2.2-1h-2.4c0-.1-1.2,1-1.2,1l-.6,1.8v2s.7,3.4.7,3.4h1.3ZM134.9,47.7v-.6c.1,0-.7-1-.7-1h-2.3c0,0,.3,1.4.3,1.4l2.2.3.5-.2ZM134.5,61.9l.6-1.7-.4-1.4-1-1.6-1.7,1.3-.6,2,1.4,1.2,1.7.3ZM141.5,62.7h2.4c0,0,3.3-.7,3.3-.7l1.5.5,1.7-.9.7-1.2-.3-1.9-1.2-1.8-1.9-.3-2.4.4-1.8,1-1.7-.4-1.6-.2-.7-1.1-1.3-1.1.3-1.8-1-1.6h-2.3s-1.3-1.6-1.3-1.6l-2.4-.3-.4,2.1,1.3,1.5,2.4.6,1.2,2.1v2.3c.1,0,.5,2.5.5,2.5l3.1,1.4,1.9.5Z"/>
    <path id="asia" d="M392.8,195.4l-.5-.6.2-.7h.6c0,.1,0-.9,0-.9v-.5c-.1,0-.8,0-.8,0v-.6c0,0-.5.4-.5.4l-.2.9.3,1.5.5.7h.3ZM390.3,198.6l.8.2.4-.4-.3-.4h-1.2c0,0,.2.6.2.6ZM386.5,181.9v.7c-.1,0-.4.3-.4.3l-.2.3.7.8.4-.3.4-.7.4-.4v-1.1c.1,0-.7,1.1-.7,1.1l.2-.8h-.6ZM385.3,180.7l.2.6v.6c0,0,0,.5,0,.5l.7-.4.5-.5v-.5s-.7,0-.7,0l-.7-.4ZM384.1,179.7l.5.6.3-1-.4-.4h-1s.6.9.6.9ZM390.8,204.2h-.8s-1,.3-1,.3v.3c-.1,0-1.3.5-1.3.5l-.5.7v.4c-.1,0,0,.1,0,.1l1-.3.8-.9,1-.3,1.2-.5.4-.3h-.4c0-.1-.4,0-.4,0ZM384.5,167.5l.7-2,.2-.8-.5-.4-.9,1-.7,1.2v.9c.1,0,.7,1.1.7,1.1l.5-1ZM389.5,180.3l-.3-.4h-1.1s.7.9.7.9v.4s-.7,0-.7,0l.2.7h.3c0,0,0,.9,0,.9l.6-.3-.3-.7v-.4s.9.3.9.3l-.3-1.3ZM387.1,184.4l-.6.4-.7.3-.5,1,.2.3.9-.6h.5s.4-.4.4-.4l.7.6-.4.6.3.8,1.4.7.3-.5-.4-.9.5-.6.4,1.2.4-1.1v-.7c0,0-.2-.8-.2-.8v-.4c0,0-.2-.6-.2-.6l-.9-.6v.9c0,0-.7,0-.7,0l-.2.5-.9.3-.4-.5ZM406.7,142.2l-.5,1,.2,1.7-.7,1.8-.7.6-1.7,1.5-.8-.7-1.2,2.6-1.2-.3-2.3.4-.9,1-1.2.7-.6.9-1.1.4.5.9.7.4-.3,1.2.6.5.7-.6.8-2.3-1.2-1h1.4s1.4-.7,1.4-.7l2-.3v1s.8.5.8.5l1.7-1.6h2c0,0,1.5-.7,1.5-.7l.6-1-.2-.7.4-1.2v-1.5s1.1-1.5,1.1-1.5v-1.2s-.6-2.1-.6-2.1l-1.2.3ZM408.2,124l.7,1.8v2.4s-.3,1.3-.3,1.3v1.9c.1,0,0,1.7,0,1.7l.2,1.4.8-1.3.9,1v-1.2s-1.1-1.8-1.1-1.8l.7-2.5,1.7.6-1.2-3.2-.5-1.9v-1.9s-.4-1.9-.4-1.9l-.3-1.3-.5.3.5.9-1.1.9v2.6ZM394,197.7h-1.4s-.3.7-.3.7h.8s.7,0,.7,0h1c0,0,1,.6,1,.6l-.4-.9-1.3-.3ZM315.2,164.6l-2.2-.4-1.3-.3-1.3-.2-.5-1.6-.6-.2-.9.2-1.2.6-1.4-.4-1.2-1-1.1-.4-.8-1.2-.9-1.8-.6.2-.7-.4-.4.5h-.7c0,0,.2.5.2.5v.3c-.1,0,.3,1,.3,1l.5,1.1.6.3.2.5.8.5v.5c0,0,0,.4,0,.4v.4c.1,0,.5.4.5.4l.2.4.2.3v-.9c0,0,.2-.7.2-.7h.3c0-.1.4.3.4.3v.7s-.2.7-.2.7l.2.5h.2c0,0,0,.3,0,.3l.9-.2h1s.7,0,.7,0l.8-.9.9-.8.7-.8.3-.4h.1c0,.1-.1.6-.1.6l-.2.2.2,1,.5.9.6.5.9.2.7.2.5.7.3.4.4.2v.3s-.4.7-.4.7l-.2.3-.5.4-.4.8h-.5c0,0-.2.2-.2.2l-.2.6v.8c.1,0,0,.1,0,.1h-.5s-.7.5-.7.5v.6c-.1,0-.4.3-.4.3h-.7s-.5.3-.5.3v.5s-.6.3-.6.3h-.6c0-.1-.8.3-.8.3h-.5c0,0-.8.4-.8.4l-.2.5v.4s-1.2.5-1.2.5l-1.9.6-1,.8h-.5c0,0-.3,0-.3,0l-.7.5-.7.2h-1c0,0-.3.1-.3.1l-.3.3h-.3c0,0-.2.4-.2.4h-.6s-.4.1-.4.1h-.8c0,0-.3-.7-.3-.7v-.6s-.2-.4-.2-.4l-.2-.9-.3-.5h.2c0,0-.1-.6-.1-.6v-.2c.1,0,0-.5,0-.5v-.5c-.1,0-.5-.4-.5-.4v-.5c0,0-.7-.4-.7-.4l-.6-1-.3-1-.8-.8-.5-.2-.8-1.2v-.9c-.1,0,0-.7,0-.7l-.7-1.4-.5-.5-.6-.3-.4-.7v-.3c0,0-.3-.7-.3-.7l-.3-.3-.5-1-.7-1-.6-.9h-.6s.2-.7.2-.7v-.5c0,0,.2-.5.2-.5v-.2s-.8-2.3-.8-2.3l.3-.4h0c0,0,.3-.7.3-.7l.2-1,.2-.3h0s.4-1.1.4-1.1l.6-1h0s-.1-1.1-.1-1.1l.3-.6.3-.3.3-.3v-.8c0,0,.4.3.4.3l1.3-.4.6.3h1s1.3-.5,1.3-.5h.6s1.3-.2,1.3-.2l.5-.2,1.3.2.4.4.6-.2-.6-1.2.2-.5-.4-1.7.8-.4.2.6.6.7.8.2h.4s1.4-1.1,1.4-1.1h.4c0-.1.3.3.3.3l-.4.7.7.8h.3c0,0,.4,1,.4,1l1.1.3.8.7,1.6.2,1.8-.4v-.3c.1,0,.1,0,.1,0l-.2-1,.2-1.5-.9-.5.3-1h-.8c0,0,.3-1.4.3-1.4l1.1.4,1-.5-.8-.9-.3-.9-.9.4v1.1c-.1,0-.5-1-.5-1v-.4c0,0,.2-.6.2-.6l-.2-.5-1.3-.5-.5-1.4-.6-.4v-.5s1.1.2,1.1.2v-1.2s1-.3,1-.3l1,.2.2-1.6-.2-1h-1.2c0,0-1-.3-1-.3l-1.3.7-1.1.4-.6-.3v-.9c.1,0-.6-1.1-.6-1.1h-.9s-1-1.1-1-1.1l.7-1.3-.3-.4.9-2,1.2,1v-1.3c.1,0,2.5-2,2.5-2h1.8s2.6,1.2,2.6,1.2l1.4.7,1.2-.8h1.8s1.5.9,1.5.9l.3-.5h1.6c0,0,.3-.8.3-.8l-1.9-1.3h.2c0-.1-.1-.2-.1-.2l-.3-.8-.8-.3v-1.1s.4-.9.4-.9l.6-.6-.3-.7-.8-.4-.8.5-.8.6-.7-1-.5-.8-.5-1,1.3-.2,1.1-.3.7-1.1v-.9c-.1,0-1-.7-1-.7l.2-1,.9-1.1.7-1.5.7-2.1.6-3.7.8-8.3,2.2-1.7,2-2.3,1.6-1.3,1.6-1.6.8-1.7-.4-3,.7.6.8-1.6-1.2-1.7v-.7s-1.4-.3-1.4-.3l.4-1.6-.6-2.7v-1.1s2.1-3.3,2.1-3.3l.8-3.5.9-.8,3.1,1,.2,2.1-1.1,3,.7,1.2.4,2.5-.3,4.6,1.3,2-.5,2.1-2.3,4.2,1.3.4.5-1,1.3-.8.3-1.5,1-1.4-.7-1.8.5-2.1-1.3-.3-.3-1.8.9-3.4-1.5-2.9,2.1-2.5-.3-2.7h.6c0,0,.6,2.1.6,2.1l-.5,3.6,1.2.7-.5-2.6,1.9-1.5,2.4-.2,2.1,2.1-1-3.2v-4.3c-.1,0,1.9-.8,1.9-.8l2.8.2,2.5-.5-.9-2.2,1.3-2.9h1.3c0-.1,2.3-2.4,2.3-2.4l3.1-.6.4-1.3,3-.4.9,1.1,2.6-2.6h2.1c0,0,.3-2.1.3-2.1l1.1-2.2,2.7-2.2,2,1.7-1.6,1.3,2.6.8.3,2.5,1.1-1.2h3.4c0,0,2.6,2.5,2.6,2.5l.9,1.8-.3,2.4-1.3,1.3-3.1,2.5-.9,1.3,1.4.6,1.7,1.1,1-.8.6,2.6.5-1.1,1.9-.6,3.7.7.3,1.9,4.9.6v-3.1c0,0,2.5.7,2.5.7h1.9s1.9,2.1,1.9,2.1l.5,2.5-.7,1.6,1.5,2.9,1.8,1.4,1.1-3.8,1.9,1.7,2-1,2.2,1.1.9-1,1.9.5-.8-3.5,1.5-1.7,10.5,2.5,1,2.2,3,2.8,4.7-.7,2.3.6,1,1.4v2.5c-.1,0,1.3.9,1.3.9l1.6-.7h2.1c0,0,2.2.6,2.2.6l2.2-.4,2,2.9,1.4-1-.9-2.1.5-1.5,3.7.9,2.4-.2,3.3,1.6,1.6,1.4,2.8,2.4,3,3v1.8c0,0,.7.7.7.7l-.3-2.1,3.2.4,2.3,2.7-1.2,1.2-1.9.3v2.7s-.5.6-.5.6h-1.1c0,0-.9-1-.9-1l-1.5-.8-.3-1.2-1.2-.5-1.3.4-.6-1,.3-1.1-1.4.7.5,1.3-.7,1.2h0s-1.5,1.2-1.5,1.2l-1.5-.2,1,1.4.7,2.2.5.7v1c.1,0-.2.7-.2.7l-2.2-.5-3.2,1.9-1,.3-1.8,1.7-1.7,1.4-.4,1.1-1.7-1.6-3,1.8-.5-.9-1.1,1-1.6-.3-.4,1.5-1.4,2.2v.9s1.4.5,1.4.5l-.2,3.1h-1.1c0,0-.5,1.8-.5,1.8l.5.9-2,1-.4,2.2-1.7.5-.3,1.9-1.7,1.7-.4-1.3-.5-2.8-.6-4.4.6-2.9,1-1.3v-1c0,0,1.9-.5,1.9-.5l2.1-2.8,2-2.4,2.1-1.9.9-3.5-1.4.2-.7,2-2.9,2.6-1-3-3,.8-2.9,4,1,1.4-2.6.6-1.8.2v-1.6c0,0-1.7-.3-1.7-.3l-1.4,1.1-3.5-.4-3.8.7-3.8,4.3-4.5,4.9,1.8.3.6,1.2,1.1.4.7-1h1.3c0,.1,1.7,2.3,1.7,2.3v1.6s-.9,1.9-.9,1.9v2.2c0,0-.6,2.8-.6,2.8l-1.8,2.5-.4,1.2-1.6,1.9-1.6,1.9-.7.9-1.5.9h-.7s-.7-.7-.7-.7l-1.6,1.2-.2.5h-.4c0,0-.5.4-.5.4l-.3.5v1.1s-.6.3-.6.3l-.2.3-.4.4-.8.2-.5.4v.6s-.2.2-.2.2l.5.2.7.6,1,1.7.3.9v1.7s-.4.8-.4.8l-1.1.3-.9.6h-1c0,.1-.1-.6-.1-.6l.2-1.1-.5-1.5.9-.2-.8-1.2-.6-.3v.3c-.1,0-.5.1-.5.1v-.3s-.3-.1-.3-.1l-.3-.2.3-.6.3-.2v-.3c-.1,0,.2-.8.2-.8v-.2c0,0-.8-.2-.8-.2l-.5-.4-1.6.4-.9.7-1.3.4.6-.7-.2-.6.9-1-.6-.8-1,.5-1.3,1.1-.7,1h-1.1c0,0-.6.8-.6.8l.6,1,.9.2v.7s1,.4,1,.4l1.3-1,1,.6h.7s.2.8.2.8l-1.6.4-.5.8-1.1.7-.6,1,1.3.8.5,1.4.7,1.3.8,1v1s-.7.4-.7.4l.3.7.7.4-.2,1.1-.3,1h-.6c0,.1-.8,1.5-.8,1.5l-.9,1.7-1.1,1.5-1.6,1.2-1.6,1.1h-1.3c0,.1-.7.7-.7.7l-.4-.4-.7.6-1.6.6-1.2.2-.4,1.3h-.6c0,0-.3-.8-.3-.8l.3-.5-1.6-.4-.6.2-1.5,1.1-1,1.2-.3.8.9,1.3,1.1,1.6,1.1.7.7,1,.5,2.2-.2,2.1-1,.8-1.3.8-.9,1-1.4,1.1-.4-.7.3-.8-.9-.7-1-.2-.5-.6-.6-1.2-1-.5h-1s.2-.9.2-.9h-1s0,1.3,0,1.3l-.6,1.7-.4,1v.8c0,0,.8,0,.8,0l.5,1.1.2,1,.6.7h.7c0,.1.6.7.6.7h.3c0,.1.7.8.7.8l.5.8v.8c0,0,0,.5,0,.5v.4c.1,0,.2.7.2.7l.4.3.5,1v.4s-.8,0-.8,0l-1.1-.9-1.4-.9v-.6c-.1,0-.8-.8-.8-.8l-.2-1-.4-.6v-.8c.1,0-.1-.5-.1-.5l-.5-.4-.2-.6-.6-.7-.6-.6-.2.7-.2-.6v-.7c.1,0,.5-1.1.5-1.1v-.9c-.1,0,.2-.9.2-.9l-.4-.7v-1.3c0,0-.4-.6-.4-.6l-.4-1.4-.2-1.5-.5-1-.8.6-1.3.9h-.6c0-.1-.7-.4-.7-.4l.4-1.5-.2-1.1-.9-1.4v-.4c.1,0-.5-.2-.5-.2l-.8-1-.3-.6v-.6c0,0-.3-.6-.3-.6l-.5-.7h-1.1s.1.5.1.5l-.4.7-.5-.3-.2.2h-.3c0-.1-.4-.2-.4-.2l-.2.5h-.8s-1.4.2-1.4.2v.9c0,0-.6.7-.6.7l-1.7.8-1.3,1.4-.9.8-1.2.8v.6l-.6.3-1,.4h-.5c0,0-.3,1-.3,1l.2,1.5v1c0,0-.4,1.1-.4,1.1v2s-.6,0-.6,0l-.5.9.4.4-1.1.3-.4.8-.5.3-1.1-1.1-.5-1.6-.4-1.2-.4-.6-.6-1.1-.3-1.5-.2-.7-1.1-1.6-.5-2.3-.3-1.6v-1.5s-.2-1.2-.2-1.2l-1.7.7h-.8c0-.1-1.5-1.7-1.5-1.7l.6-.5-.3-.5-1.4-1.1-.8-.3-.3-.9-.9-1-2.1.2h-1.9s-1.6.2-1.6.2h0ZM411.7,137.9l-.8-.3-.9-.5-1.4-1.7-.3,1.3-.3,2.2h-1.2c0,0-.6,1.3-.6,1.3l.2,1.5h1.3s.6-1.7.6-1.7l1.8,1.1,1-1.6,1.7-.4-.3-1.8-.8.7ZM407.5,197.5l-1.2-.2-.9-.4-1-.4h-1l-1.3.7-1,1.2-1.2-.7-.3-1.9-.2-.4-1.9-.5-.6.4-1.6.3.5.6,1,.2.5.7h1.7s0,.3,0,.3h-.8s-1.3.4-1.3.4l.9.6v.5s.3.4.3.4h.4c0-.1.3-.7.3-.7l1.7,1.1h1c0,0,2.3,1.1,2.3,1.1l.6,1,.3,1.3-.7.3-.5.9h1.5s.3-.4.3-.4l1.2.2,1,1v-3.8s0-3.8,0-3.8ZM383,176.5l.2.5.6.7v-.4c.1,0,.5.3.5.3l-.4.3v.5c0,0,.5.3.5.3l1.1-.2.7.7.3-.4.4.6.9.6v-.5c.1,0-.3-.3-.3-.3v-.6c.1,0-1.3-.7-1.3-.7h-.5c0,.1-.6,0-.6,0l-.3-.9.2-1,.7-.4.3-1-.4-.9.2-.5v-.3c-.1,0-.5.3-.5.3l-.7-.3h-.7l-.4,1.1v1.9c-.1,0-.6-.4-.6-.4v1.2ZM398.5,153.7l.6-.3.5.4.7-.8v-.5c-.1,0-1-.3-1-.3l-.5.6-.7-.2-.6.8v.7s.7.4.7.4l.3-.8ZM399.7,201.2l-.2.4v.9c.1,0,.7-.8.7-.8v-.6s-.3-.3-.3-.3l-.2.4ZM365.8,43.4l.3-2.4-2.9-3.5-.9-.4-1,.7-2.1,7.7,6.5-2.2ZM352.1,36.6l1.9,2.4,3.2,1.7,2.5-.7.3-5.6-2.7-6.6-2.3-3.7-2.5,1.7-3,4.9,1.6,1.4.9,4.7ZM337.6,183.7l-.8-.6-.5,1.9.2,1.7.6.9,1-.3.5-.3.2-1.2-.6-1.2-.5-.8ZM407.3,65.4l-1.1,1.6.2.2,2.4.4h1.8s-.1-1.1-.1-1.1l-1.6-1.6-1.5.4ZM407,60.7h4.3c0,.1.9-3.2.9-3.2l-4.2-2.5-3.1-.2-1.5.9-.6,3.2,2.3,2.9,1.9-1ZM452.7,76.6l1.5-.2,1.2-.9v-.5c0,0-1.6-1-1.6-1h-1s-.1.1-.1.1l-1.5,1.5.2,1.1,1.3-.2ZM417.4,61.4l1.3-1.8-2.9-1.2-2.2-.7-.3,1.5,2.2,1.8,1.9.4ZM366.7,199.4l.3-1.4-.6-.7h-.9c0-.1-.4-.7-.4-.7l-.2-.8h-.4s-.7-.4-.7-.4l.5-.9-.9-.5-.7-1-1-.8h-1.2s-1.1-1.3-1.1-1.3l-.6-.5-.9-.8-1-1.1-1.8-.2h-.7s.1.5.1.5l1.2,1.3.9.6.6,1,1,.7.4.9.3,1,1,1,.9,1.6.6.9.9.9.5.7,1.5.9,1,1h1.3s0-1.8,0-1.8ZM381.8,204.1h-.7c0,0-.4-.2-.4-.2l-.3.4h-.6s-.4.7-.4.7h.6s.8-.1.8-.1l1.3-.2-.3-.5ZM383,205.3l-1.1.2,1.5.8h.5s0-.3,0-.3l-.4-.4-.6-.4ZM382,182.9l.8-.6-.2-1-.6,1.2-.7.8-.8.7-.6.8,1.5-1.1.6-.8ZM384.2,196.1l-1-1,.2-.9,1-.2h1.9c0,0,1.1.2,1.1.2l.9-.2.9-1.1-.2-.3-1.1.8h-1.3s-1.5-.1-1.5-.1l-.9-.3-1,.9-.2.5-.6,1.7-.2.9-.5.8.4.8h.5s.2,1.1.2,1.1l-.3,1.1.5.3.7-.2v-1.7s-.1-1.3-.1-1.3l.8-.4v1.1c0,0,.7.7.7.7v.4c-.1,0,.1.3.1.3l1.1-.4-.6.9.5.4.6-.3v-.8s-1-1.3-1-1.3l.2-.4-1.1-1.5,1-.4.5-.7.5.2v-.5c0,0-2.1.4-2.1.4l-.6.5ZM384.7,204.4l-.7-.3-.9.2v.4s1.5.1,1.5.1l1.7-.3.2-.6-1,.4h-.8ZM380.2,194.4l.4-.8h1.4c0-.1-1.3-1.2-1.3-1.2l.2-.5-.9-1.1.7-1,.9-.4-.2-.6h.8c0,0,0-.5,0-.5l-1-.3-.8-.3v-.5c0,0-.6-.6-.6-.6h-.5s-.6.9-.6.9l-.9.8-1,.6-.5.4-.6.7-.8.9-1.4.2-.5.2-.2,1-.9.2-.8-.4-.7.8v1.1c-.1,0,0,1,0,1l.6,1,.6.3.2,1.5h1c0,.1.8,0,.8,0l.4.6,1.4-.4.6.4h.8c0,0,.5.8.5.8l1.3-.5.2.4.4-1.8v-1.2s1.1-.8,1.1-.8v-1ZM372.2,171.8l.5-.5-.3-.5h-.7s-1.3.3-1.3.3l-.6.6v1s1,.4,1,.4l1-.6.3-.7ZM375,203.3l-.4-.8-2.2-.6-.3.5h-2.2c0-.1-.2-.5-.2-.5h-.5c0,0-.9-.5-.9-.5h-1.4c0,0-.8,1-.8,1h1.1c0,0,.2.6.2.6l2.1.5h.5c0-.1.9,0,.9,0l1.3.4,1.1.2h1.2c0,0,1.1,0,1.1,0l1.3.5,1.3-.4-1.4-.7-1.8-.2Z"/>
    <path id="europe" d="M267.9,46.9l.8-1.4-.7-1.8,2.4-1.2.5,2.1,1.7,1.3-2.6,2.2-2.1-1.3ZM266.9,33.9l.2,1.8,3.4,1.1,3.4-.7,1.7-3.5-2.3-2.4-2.9-1.8-1.2,2.1-1.7-1.7-3.6,2,1.3,3.1h1.7ZM259.1,44.9l1.7,1.6-1.1,1.9,2.5,3.2,1.4-.2.6-4.4,1-1,.6-4.2,2.9-2.3-3.8-4.7-1.5-2.3-1.7.2-.4,2.2h-1.7c0,0-.6-2.2-.6-2.2l-3.2,2.4.9,4.9,2.3,4.9ZM227,90.6l-1.9-.2-1.9,1.5-1.5-.8-1.8,1.6-1.8-1.9-1.8.4-.8,1.9,2.4.6v.8s-2,.5-2,.5l2.5,1.3-1.1,1.2,3.2.8,1.5.4,1-.5,3.3-1.8,1.5-2.1-1.3-1.9.3-1.9ZM237.3,117.4l.6-1,.4.6-.4.9.3.5,1.4.4h0s.8,1.3.8,1.3l-.2,1.1h0l-1.7-.2-.2,1.3.6,1-1.2.6.3.7,1.8.3h0l-1,.4-1.7,1.9.6.4.8-.7,1.1.2.8-.9.5.4,2-.5h1.6s1-.9,1-.9l-.5-1,.6-.6v-1.2c.1,0-1.3-.4-1.3-.4l-.3-.8-.7-2.2-.8-.3-1-2.4v-.2c0,0-1.3-.1-1.3-.1l1-1.9.3-1.7h-1.3s-1.2.3-1.2.3l1.2-2.4-1.4.2-.9-.2-.9,1.8-.4,2.2.6,1.1v2ZM297.8,31.2l1.3,1.6,1.4-1.1.2-1.1,1-.5,1.6-.9.4-1.1-1.7-1.6-1.1,1.2-.7,1.7-.2-1.9h-1.8c0,0-2.3,1.4-2.3,1.4l2.6.2-.7,2.2ZM304.7,71.5l-1.2.8.2,2,2.1,1,.3,1.6,3.8.5.7-.3-2.2-2.9-.2-3.1,1.8-3.8,1.7-4.1,3.6-4.2,3.5-2.2,4.1-2.4.8-1.5-.8-2-2.3.7-2,1.9-3.9.9-3.8,3.1-2.6,2.4.3,2-2.8,3.7,1.1.5-2.3,3.4v2.1ZM260.9,146.8l-1.2.2h-1.4c0-.1-.2.6-.2.6l1.6.7.6.2.9.5.2-.7-.2-.5.4-1.2h-.9ZM282.9,150.8h-.8s-.2.3-.2.3h0s-.6,0-.6,0l.3.6.6.2,1.2-.6h0c0-.1,0-.4,0-.4l.8-.6-1.1.4ZM273.7,150.8h-.9c0,0-.9,0-.9,0l-.6-.5-.2.6,1.4.3v.2s1.7-.1,1.7-.1v-.4c.1,0-.5.2-.5.2v-.2ZM233.9,124.5l2.1-1.1.9-1.7-.2-1.4.6-1.4-1.2-1.2h-1c0,0-.9,1-.9,1l-1.6,1.6.6,2-.9,2,1.6.3ZM319.1,82l-1.6-1-3.4-1-.6,1.1,1.2,1.9-1.3,2.1-1.3-1.9-1.7,1.3h-2.2c0,0-.8,1.2-.8,1.2l-1.4-.3,1.1-1.9-.9-.2-4.1,2.7-2.4,1.5-.3,1.9-1.8.6-.9-1v-1.7s1.5-.4,1.5-.4l-.7-1.7-3.2-1,.9,1.9-.6,1.8,1,1.8-.7,2-1.1-1-1.1-.2-2.7,2.8.8,2-1,.7-2.8-1.7-.7,1,.7,1.2v1.3c-.1,0-1.1-.7-1.1-.7l-1.5-.8v-2.8c0,0-.1-1.3-.1-1.3l-1.9-2.1.9-.4,5.2,2.2,1.9-.8,1.3-1.5v-2c0,0-1-1.5-1-1.5l-4.4-3.6-3.2-.8-1.9-2-1.2,1.2-1.3-2.1,1.5-.9-3.6-2.6-2.1.7-2.1-.2-1.8,2.9-1.9-.2-2.5,1.5-3.2,4.1-1.9,2.3-2.8,5.7-2.1,3.9-2.3,2.7-3.1,2.1-1.1,1.6.4,5.5.4,2.4,1.6,1.1,1.5-.5,2.3-2.6.8,1.4.9,3.1,1,2.4.4,1.9h1.3c0,0,.7-1.7.7-1.7l1.4.2.7-2,.4-3.7,1.2-.5,1.1-2.6-1.1-1.3-.8-1.7.8-3.5,2.2-2.2,1.8-2.1-.2-1.7,1.1-1.9,2-.8,1.6,1.3v1.2c.1,0-.7.6-.7.6l-2.7,2.9-1.1,1.6-.6,1.5.6,2.2-.3,2.4,1.1.8.7,1.3,1.9-.5,2-.9,2.1-.2,1.2,1.1-1.3,1.3h-1.2c0,0-1.3-.3-1.3-.3l-1.5.3-1.5.6v1.3c0,0,.8.8.8.8l.4-.3v1.3c-.1,0-.4,1.7-.4,1.7h-.9s-.9-1.6-.9-1.6l-1.1.7-.6,1.3v1.6s.2,1.7.2,1.7l-1.6.7-.3.9h-1.1s0-.5,0-.5l-1.2-.3-1.5.7-1.8.9-.8.6-.5-.6-1.3-.8-.7.5-1.2.4v-.7s-1.2-.5-1.2-.5v-.8s-.3-1-.3-1l.8-1.5.3.2.3-.8-.6-.3v-.6c-.1,0,.2-.7.2-.7v-1.1s-.9.6-.9.6l-.4.6h-1c0,.1-.3.8-.3.8l-.2.6v2.1s.5,1.1.5,1.1v1.1c0,0,.3.7.3.7l-.8,1-.2-.4h-1c0,.1-.2.5-.2.5h-1c0,0-1.6.8-1.6.8l-1,2.8-.6.5-.9.4-1,.4-.3,1.5-2.7,1.4-1.1-.8.4,2-1.9-.5-1.5.4v1.3c.1,0,1.9.7,1.9.7l.9.9,1.2,1.8-.2,3.3-.6,1h-1.9c0,0-1,0-1,0l-1.2-.3h-1.6s-1.4-.3-1.4-.3l-1.6,1.1.5.7v1.1c0,0,0,.5,0,.5l.2.6v.6s-.2.9-.2.9v.6c0,0-.5.5-.5.5v1c0,0,.2.6.2.6h.5c0,.1.1,1,.1,1l-.2,1.1.6-.2.6.2.5-.4,1.1.2.3.8.4.5h.6c0,.1.4-.4.4-.4l.7-.5h1.1s1.5,0,1.5,0l.8-1.1.9-.3.3-1,.7-.7-.5-.8.4-1.2.7-.8v-.5c.1,0,1.6-.3,1.6-.3l1.1-1v-.9c0,0,0-.9,0-.9l1.7-.5,2.3.4,1.1-.9h.5c0-.1.7-.9.7-.9l.5-.2.9.5.6.2.4,1.6.8.9,1.1,1,.9.7h.9c0,0,.5.7.5.7l.7.3.3.7.5.2.4.8.5.9-.3.3-.2.8v.4s.5-.1.5-.1l.6-1.3h.5c0,0,.1-.9.1-.9l-.8-.6.5-1,1,.2.6.7.2-.5v-.3c-.1,0-1.1-.8-1.1-.8l-.9-.5-1-.6.3-.3-.3-.3h-.9s-1.3-1.3-1.3-1.3l-.6-1.3-1.1-.8-.4-.8v-.5c.1,0,0-.8,0-.8l.9-.6.9.2h-.3c0,.1,0,.2,0,.2v.6s.3.5.3.5l.4-.7.7.3v.6s.6.7.6.7h-.2c0,.1,1,1.3,1,1.3l1.1.5.7.6,1.1.6h0l.5.3.3.5h.2c0,.1.2.4.2.4l-.2.5v1c0,0,0,.7,0,.7l.6.5v.3s.2.1.2.1v.4c0,0,.7.8.7.8l.5.7.2,1,.4,1.2,1,.6h.8s-.4-1.3-.4-1.3l.7-.2-.3-.7,1.1.4v-.8s-.6-.4-.6-.4l-.6-.7.4-.3-.6-.7-.3-.9.2-.3.6.8h.6l.6-.2-.8-.9,1.4-.4h.6c0,.1.7.2.7.2v.3s.3.7.3.7l1-.8.5-.5h1.4c0,0,.2-.5.2-.5l-1-.5v-.6c-.1,0-.5-.9-.5-.9l.4-1.1.6-.7.3-1.9.4.2.6-.4v-.4s.9-1.2.9-1.2l.4-.9,1.1-.2v.6c0,0,1.9.4,1.9.4l.3.4-1.1.6-.2.3,1.3.5-.3.8.6.3,1.6-.9,1.3-.3.2-.6h-1.2c0,0-.6-.3-.6-.3v-1c0,0,.9-.6.9-.6h1.1c0,0,.8-.6.8-.6h.9c0-.1,1-.4,1-.4v.4s-1.7.7-1.7.7l.6.7-1,1.4-.8.3,1,1,1.3.6,1.5,1.4.4.5.6.2.7.6.3,1.1-.2.7-1.4.8h-1c0-.1-1.4,0-1.4,0l-1.7-.6-2-1.1h-1.9s-1.4.5-1.4.5l-1.4,1-2.2-.2-.5,1.2h-1.8c0,0-1.3,1.5-1.3,1.5l.7.7-.6,1.2.8.8.7,1.4h1.3s1.1.7,1.1.7l.8-.2.3-.6h1.3s.9.8.9.8l1.8-.2.8-.8,1,.3h.7c0-.1-.4.4-.4.4l.4.6.3-.3.3-.3v-.8c0,0,.4.3.4.3l1.3-.4.6.3h1s1.3-.5,1.3-.5h.6s1.3-.2,1.3-.2l.5-.2,1.3.2.4.4.6-.2-.6-1.2.2-.5-.4-1.7.8-.4.2.6.6.7.8.2h.4s1.4-1.1,1.4-1.1h.4c0-.1.3.3.3.3l-.4.7.7.8h.3c0,0,0-.8,0-.8l.4-.3.2-.5.2-1.2h1c0-.1-.4-.5-.4-.5h-.5c0,0-.6-1.2-.6-1.2l-.6-.8-1.3-1.8v-1.1c.1,0-.9-1.5-.9-1.5l1.2-1.7,1.1-.3.5-1-.6-.3v-.9c.1,0-.6-1.1-.6-1.1h-.9s-1-1.1-1-1.1l.7-1.3-.3-.4.9-2,1.2,1v-1.3c.1,0,2.5-2,2.5-2h1.8s2.6,1.2,2.6,1.2l1.4.7,1.2-.8h1.8s1.5.9,1.5.9l.3-.5h1.6c0,0,.3-.8.3-.8l-1.9-1.3h.2c0-.1-.1-.2-.1-.2l-.3-.8-.8-.3v-1.1s.4-.9.4-.9l.6-.6-.3-.7-.8-.4-.8.5-.8.6-.7-1-.5-.8-.5-1,1.3-.2,1.1-.3.7-1.1v-.9c-.1,0-1-.7-1-.7l.2-1,.9-1.1.7-1.5.7-2.1.6-3.7.8-8.3,2.2-1.7,2-2.3,1.6-1.3,1.6-1.6.8-1.7-.4-3-3.6-3ZM253.9,142.7h-.6c0,0,.3.8.3.8v1.8s.5.4.5.4l.5-.5h.5c0,0,.2-1.9.2-1.9l-.7-1.1-.6.5ZM254.5,141.9l.4-1.2-.2-1.3-.7.6-.2.6.3,1,.5.3ZM257.8,118.5l.7-1.6-.4-1-1.7.7.2.8,1.2,1.1Z"/>
    <path id="australia" d="M437.9,213l.7.7-.4.2-.4-.5v-.3ZM437.4,212.8h.2c0,0,.3,0,.3,0l-.2-1-.6-.4v.9s.2.3.2.3ZM324.6,259.5l-.7-.6v.4c0,0-.2.7-.2.7v.9s1.8-.1,1.8-.1l.3-.8v-.3s-1.1-.2-1.1-.2ZM430,205.4l-.8-.2v.5c0,0,.2.2.2.2h.7c0,.1.5,0,.5,0l-.2-.3-.4-.3ZM425.5,202.1v.2c0,0,.4.5.4.5l.5.3h.2c0,0-.5-.4-.5-.4l-.7-.5ZM429.4,204.1l-.3-.4-1-.5-.5-.3h-.2c0,.1.4.5.4.5l.6.4.9.5v-.2ZM431.8,206.6l-.7-.3.4.7h.8s-.3-.4-.3-.4h-.2ZM431.3,205.8l.2-.2-.5-.6-.4-.9h-.4l.2.7.9,1ZM407.5,205h1.2s.6.2.6.2l.9-.4v-.9c-.1,0,.6-.4.6-.4l1-.3,1.5.5.6,1,.7.6.9.7,1.2.2h1c0,.1.3.4.3.4h.8c0,0,.1-.4.1-.4l-1.2-.5.3-.2-.9-.2v-.5s-.6,0-.6,0l-.8-1.2-1-.8-.3-.8h1.1c0-.1-.3-.7-.3-.7l-1.9-.7-.2-.7-.6-.6-.8-.6-2.1-.7-2-.8v3.8s0,3.8,0,3.8ZM417.6,201.8h.6l.6-.3.6-.3.2-.3h.6c0,0,.4-.8.4-.8v-.6s-.2-.2-.2-.2h-.7s.1.7.1.7l-.6.4-.3.4h-.7c0,0-.1-.5-.1-.5h-.2s-.2.6-.2.6h-.6c0,0-1,0-1,0v.4c0,0,.6.3.6.3l.9.3ZM420.2,198.5l.5.4.3.4.2.7.4-.3v-.6c-.1,0-.6-.4-.6-.4l-.5-.5-.5-.3-.4-.3-.6-.3-.3.3.8.3.7.5ZM423.8,200.9l-.4-.3v-.3c-.1,0-.3.1-.3.1l.2.9.5.7.5.4h.3c0-.1.2-.4.2-.4l-.5-.4-.6-.7ZM445.7,246.3l-.8.6-.3-.6-.3-.6-.8.7-.2.9-.4.4-.5,1.2-.7.8-1,.8-.8.6-.7.3-1.5,1.6-.6,1.2.2.6h1.3c0,.1.8.7.8.7h1.1s.6-.4.6-.4l.9-.7.7-1.7.3-1.1,1-.6h.9s-.4-.8-.4-.8l.6-.6.8-1.2.4-.7v-.6l-.3-.6ZM449.8,241.9h-.8c0-.1-.9-.6-.9-.6l-.2-1.1-.5-.4v1s-.9-1.5-.9-1.5l-.3-1.3-.9-.4-.6-.8h-.4c0,.1.5,1.1.5,1.1l.9,1.3.6.6v.3s.4,1,.4,1v.9c0,0-.1,1.1-.1,1.1l-.8.5v.5s1.2.6,1.2.6l.4.8-.7,1.3.5.2.2.4.9-.6.6-1,.4-.8.2-.3v-.6c-.1,0,.2-.5.2-.5h.9s.4-.8.4-.8l.3-1.3-.6-.2-.7.6ZM437.8,220.7l-.6-.6-1-.8-.4-.3-.5-.4-.6-.4h-.5s.2.4.2.4l.8.9.7.7.8.6.6.3.4-.3ZM452.7,213.3l-.7.4h-.4c0,0-.6.3-.6.3v.5c.1,0,.9-.3.9-.3l.7-.3h0c0,0,.1-.6.1-.6h-.2ZM450.6,215h-.5c0-.1-.4.3-.4.3v.5c.1,0,.8.1.8.1l.7-.2.2-.6-.4-.3-.3.2ZM415.2,246.2l-.9.3-.6.2-1.1-.5h-.8c0-.1,0,.6,0,.6l.7,1.3.2,1,.7,1.4h.7s.2.1.2.1l.8-1.1.4.4v-1.3c.1,0,.5-.5.5-.5v-1.8c0,0-.8-.1-.8-.1ZM421.6,226.4v-.7s-.4-1-.4-1l-.9-1-.5-.5-.8-.8-.2-1.3-.3.2-.5-.5-.5.3-.5-1.3-.7-.8.2-.3-.8-.5-.8-.6-1.3-.6-.4-.8v-.6c.1,0-.2-1-.2-1h-.3c0-.1-.2-.7-.2-.7l-.2-1v-.5c.1,0-.4-.5-.4-.5l-.4-.5-.7.4-.4-.9v-.4s0-.7,0-.7l-.4-.6v-.5s-.3-.1-.3-.1v-.7c0,0-.4-.6-.4-.6l-.4.4v.3s-.2.6-.2.6l-.3.6.2.4-.2.2-.2.9v.7c.1,0,0,.3,0,.3l.2.6-.4,1v.7c-.1,0-.4.5-.4.5l-.2.6-.8.4-1.1-.4-.2-.4-.6-.3h-.3l-.8-.7-.6-.4-.9-.4-.9-.7v-.3c0,0,.3-.6.3-.6l.3-.6v-.5c-.1,0,.3,0,.3,0l.4-.5.3-.6-.5-.6-.3.2h-.4c0-.1-.7.2-.7.2l-.7-.4h-.3c0,.1-1-.2-1-.2l-.6-.5-.8-.3-.6.2.8.4v.6s-1,.2-1,.2h-.6c0-.1-.7.3-.7.3l-.5.7.2.3-.5.3-.6,1,.2.7h-.7c0-.1-.7-.1-.7-.1l-.6-.7-.9-.5-.6.2-.5.2v.3s-.5-.1-.5-.1v.3s-.6.2-.6.2l-.3.5-.6.6v.9c-.1,0-.7-.3-.7-.3l-.4.6.4.6-.5.2-.5-1-.8,1v.7s0,.5,0,.5l-.7.6-.3.7-.6.5-1.2.4h-.6s-.3,0-.3,0l-.2.3h-.7c0,.1-.9.6-.9.6l-.3-.2h-.5c0,0-.9.6-.9.6l-.6.5-.9.4-.5.9v-.9c0,0-.6.9-.6.9v.7c.1,0,0,.6,0,.6l-.2.3v.7c-.1,0,.1.4.1.4v.4c.1,0,.7,1,.7,1v.7s-.3-.5-.3-.5l-.6-.4.4,1.2-.5-.6.2.6.7,1v1c.1,0,.7.5.7.5v.4s.5.9.5.9v.8s.1.8.1.8l.6,1.4v.8c.1,0,0,1,0,1v.5s-.2.3-.2.3l-.6.2v.8s.6.3.6.3l1.2.9h1.6c0,0,.6-.4.6-.4l.6-.4h.3c0,0,.7-.7.7-.7h.8c0,0,.8-.2.8-.2l1,.3h.7c0-.1,1-.2,1-.2l.4-.6.2-.7,1-.3,1.2-.7h1.1c0,0,1.3-.4,1.3-.4l1.5-.5h2.1c0-.1,1.1.5,1.1.5h.8s1.5.9,1.5.9l-.2.3.6.5.7,1v.7s.9.6.9.6l.4-1.1.7-.5.9-1.2v1c0,0-.4.7-.4.7l-.2.8-.6.8,1-.3.6-1,.3,1-.4.7,1.1.2.6.6.3.7.2,1.1.7.9,1.1.4h.7c0,.1.7.3.7.3l1,.4,1-1.1.6-.3-.2.8.7.3,1,.7.7-.6.5-.6,1.1-.6h1.3c0,0,.7-.6.7-.6v-.5c0,0,0-1,0-1l.3-1.1.4-.7.3-1.2.4-.7.4-1.1.9-.7.5-1.2.2-1v-.8s.3-1.2.3-1.2l.2-.6v-1.2c0,0-.5-1.1-.5-1.1v-.8Z"/>
    <path id="africa" d="M303.2,180.8v-.3s-.5,0-.5,0l-.6.4h-.6c0,.1-.5.3-.5.3h-.4s-.7,0-.7,0l-.4.2h-.6c0,0-1,.4-1,.4h-1.3c0,.1-1.1.4-1.1.4h-.6s-.5-.5-.5-.5l-.2-.5-.4-.2-.5-.3.7-.3v-.5s-.2-.4-.2-.4l-.6-.4-.4-.4-.6-.7-.6-.7-1.6-1.1-.6-.6-.3-1.1-.7-1.4-.6-.4-.4-.3-.4-1.5-.2-1.3.3-.2-.4-1.2-.2-.3-1.4-1.1v-.8s.2-.2.2-.2l-1-1.4-.4-.7-.4-.7-.9-2-.7-1.3-.5-1.4h.1c0-.1.8,1.8.8,1.8l.5.6.4.4.3-.2.3-.7.2-1,.3-.5-.8-2.3-.6.3h-.9c0,0-.9-.4-.9-.4l-.3.4-.3-.7-.8-.2h-1c0,.1-.5.5-.5.5l-.9.4-.5-.2-1.2-.4-1.1-.4h-1.5s-.3-.4-.3-.4l-1.2-.2-.4-.2h-.4s-.4-.6-.4-.6l-1.6-.3-.8.2-.8.6-.4.7.3,1-.6.6-.6.3-1.2-.7-1.6-.6-1-.3-.5-1.2-1.5-.6-1-.2h-.5c0,.1-1.4-.4-1.4-.4l-.4-.2-.3-.7h-.6s-.2-.8-.2-.8l.8-.7.2-1.2-.4-.4v-.7s.6-.7.6-.7v-.3c0,0-1.1.5-1.1.5v-.7s-.8-.2-.8-.2l-1.3.6h-.8c0,0-.5-.2-.5-.2h-1.2s-1.1.6-1.1.6l-.6-.2h-1.9c0,.1-2,.4-2,.4l-1.1.4-.7.6-1.3.2-1.1.8h-.5s-1.2-.3-1.2-.3h-1.1c0,0-.7-.5-.7-.5h-.9s-.4.9-.4.9l-.8,1.5-.9.6-1.2.6-.7.9-.2.7-.4,1.2.3,1.7-1,1.1-.6.4-.9.9h-1.1c0,.1-.6.6-.6.6h0s-.7,1.3-.7,1.3l-.8.5-.4.8v.7s-.3.7-.3.7l-.4.2-.6.8-.4.9v.4c0,0-.3.6-.3.6l-.4.3v.6c0,0-.1.5-.1.5l.6.5.3.6v.6c-.1,0,0,.6,0,.6v1.2c.1,0,0,1.1,0,1.1l-.3.6v.6c0,0-.2.6-.2.6l-.6.8-.5.2.6.4.5.9v.5c-.1,0,0,.9,0,.9v.3c0,0,.4.2.4.2v.2s.3.3.3.3h.5c0,0,.6.6.6.6l.3.2.2.3v.5c.1,0,.4.2.4.2l.3.2.5.5.5.7v.9c.1,0,.3.4.3.4l.6.6.8.5h.3c0,0,.8.8.8.8l1,.6,1.1.9,1.2.6h.3s.2,0,.2,0l1.2-.4.8-.3,1.4-.2h.7s.8.2.8.2h.5s1,.3,1,.3l1-.3.6-.4,1.8-.7.9-.2h1c0-.1,1-.1,1-.1h.9s.8.8.8.8l.4.8.6.7h.9s.4-.2.4-.2h.4c0,0,1.2-.4,1.2-.4v.3s.3.2.3.2l.2.5.5.2.5.8-.2.9-.4,1.3.2.2-.2.9-.3.8-.3.4v.4s.7,1.2.7,1.2l.8,1,1.2,1.2,1,1.2.3.9.2.4v.2c-.1,0,.5.7.5.7l.2.8.4,1.1-.4.5v.2c0,0,.2.7.2.7l.3.7.3.4v.7c0,0,0,.9,0,.9l-.4.5-.7.8-.3.5-.4,1.1v.5c0,0-.5,1.1-.5,1.1l-.2,1.1v.8c.1,0,.2.9.2.9l.9,1.2.3.8.6,1.5.6,1,.5.5v.7c.1,0,.2,1.5.2,1.5l.4,2,.3.9.3,1.3.5,1,.9,1,.8,1.7h0s.6,1.1.6,1.1l.8,1.3v1s-.3.2-.3.2l.4.9v.8s.1.4.1.4v-.2c0,0,.6.6.6.6h.4s.5.5.5.5h.5s.7-.6.7-.6l1-.2,1.2-.6h.5c0,0,.7,0,.7,0l1.3.3.6-.3.7.2v-.4c.1,0,.7,0,.7,0l1.2-.5.9-.6.8-.8,1.3-1.4.7-1,.3-.7.5-.7.2-.2.8-.7.3-.6v-1.1c.1,0,.4-.9.4-.9v-.7c0,0-.2,0-.2,0v-.5c0,0,.4-.5.4-.5l1.4-.7,1-.4.5-.5.2-.5-.3-.2.2-.6v-1.2s-.2,0-.2,0v-.4s-.2-.7-.2-.7l-.6-.9v-.9c0,0,.6-.3.6-.3l.8-.9.4-.2,1.3-1.3,1.3-.6,1.1-.5.7-.7.5-.8.3-.9-.2-.6v-1.9s-.2-1-.2-1v-1.2s-.1-.5-.1-.5l-.4-.3-.5-1.2-.4-.7v-.6c0,0,0-.4,0-.4l.3-.7v-.3s-.8-.4-.8-.4v-.7c0,0,.5-1.4.5-1.4l.5-.4.2-.8.4-.5.2-.8h.4c0,0,.3-.6.3-.6l.8-.5.3-.3.3-.6,1.3-1.4,1.1-.9,1.7-1.1,1.2-.9,1.4-1.6,1-1.3,1-1.7.7-1.5.6-1.3.3-1.3.2-.4v-.6s.1-.7.1-.7ZM302.1,211.7l.3.6v.6c-.1,0-.3.4-.3.4l-.4-.7-.2.4.2.9v.5c-.1,0-.4.3-.4.3v1c0,0-.5,1.4-.5,1.4l-.6,1.7-.7,2.3-.4,1.7-.5,1.5-.9.3-1,.5-.7-.3-.9-.5-.3-.7v-1.1c0,0-.5-1-.5-1v-.9c-.1,0,0-.9,0-.9l.5-.2v-.4s.6-.9.6-.9v-.8c.1,0-.2-.6-.2-.6l-.2-.8v-1.1c0,0,.3-.7.3-.7l.2-.8h.6s.6-.3.6-.3l.4-.2h.5s.7-.7.7-.7l1-.7.3-.6-.2-.5h.5c0,.1.6-.7.6-.7v-.7s.4-.5.4-.5l.4.5.3.5.3.8.2,1.4Z"/>
    <path id="AQ" d="M125.6,317.8l-.6-1.6.7-.7,1.5.5,1.7.3,1.3.5,1.3-.4.7,2.2-.9-.3h-1.4c0,.1-1.4,0-1.4,0l-1.6.2-1.2-.8ZM104.3,324.9l1.1-1.1.7-1.5-1.4.7-1.5-.6-1.4-.7-.2,1.4,1.2,1.5,1.6.3ZM169,362.5l2.6-.4,2.4,1,.3-3.3.3-3.5-1.2-2.7-.6,2.3-.9,2.8-2.5-.7-2.6-.3.6,2v.3l1.5,2.4ZM185.2,363.3l2.4-1.4,2.2-1.7,1.9-1.8,1.8-2.1v-3.3s-.2-2.7-.2-2.7l-.5-3.6-1.4-2.5-1.8-1.2-1.7,1.2h-.6l-.7,2.3-.7,2.1-.5,2.3-.7,2.7-1,2.2-2.5,1.9-.2,2.9,1.5,2.4,2.7.4ZM157.7,318l1.3-.5,1.4-.5-.6,1.5h1.5c0,0,1.3-.7,1.3-.7l1.4-.5.3-1.4.2-1.4v-1.6c-.1,0-.5-1.6-.5-1.6l-.4-1.5-.5-1.5-.3-1.2-.6-1.2-1.1.5-.7,1.5v2.7s0,1.3,0,1.3l-.3,1.8h-1.3c0-.1-.8.3-.8.3l-1.3,1.4v1.5c0,0,1,1.1,1,1.1ZM99.2,323.9l.7.2-1.8-1.6-1.2-1-.8.9,1.6,1.1,1.5.4ZM464.9,509.4v-119.3l-.5-1.2-3.4,1.9-.3.6-1.5,4.9-1.7-4.9h-.1c0,0-.2-.2-.2-.2l-1.2,3.7v.4c-.1,0-2.2-3.7-2.2-3.7l-1,7h0c0-.1-2-3.1-2-3.1l-2.7-3.7-3.2,3-.9-3.4-.2-.9-3.3-2.4-.6-5.1-2.7-3.1-1.8-2.9-1.6-2.8-1.4-2.9-1-3.1-.6-3.2-1.5-2.5.6-2.7.5-2.6.2-3.1,1-3.6,2.2-.2,1.8-1.3,2.1-.9-.5-2.5-2.2-.8-.5-2-.2-2-.7-2.1v-1.9s0-2.2,0-2.2l.3-1.8.5-1.9.8-1.4.8-1.7.5-1.7,1.5-.9.7-1.5,1.5-.6.5-1.7.4-1.4.5-1.8.6-1.3v-1.5c.1,0-.7-1.1-.7-1.1l-1.2-.7-1.2-.8-1.3-.5-1.4-.3h-1.4c0,0-1.3-.1-1.3-.1h-1.3c0,0-1.3-.5-1.3-.5l-.9-1.2-1.3-.8-.6-1.3-1.3-.4-1.4-.3-1-.8-.9-1-1-.9-.7,1.1h-1.3c0,0-1.2-.6-1.2-.6l-1.6-.5-1.5-.6-1.3-.8-1.3-.7-.7-.9.2-1.1-.8-.9-1.3-.2h-1.5c0-.1-1.1,0-1.1,0h-1.5l-1,.2h-1.5c0,0-1.3.2-1.3.2l-1-.5-.5-1-.4-1.2-.2-1.3-.7-.8v1.2s-.4,1.4-.4,1.4l-1,.2-1.1.3h-2.5c0,.1-1.3.6-1.3.6l-1,.5-1.1-.3-1-.3h-1l-1.1.5-1.2-.3-1-.4-1,.2-.8.9-.9.9-1.2.2-1.5-.3-1.4-.8-.8-.7h-1.3c0,.1-.8-.8-.8-.8l-.6-.9-.9-.6-.9.6h-1.3c0,.1-.8,1-.8,1l-1,.8-1.3.4-1.3.3h-2.2c0,0-1.5-1.8-1.5-1.8l-.8-1-.9-.8-.7-.4-1.5,2.1-.8.8-.6,1-.8,1-1.2-.4-1.1.4h-1.3l-1,.4-.9-.6-1-.2-.7.3h-1.1c0,0-1.2-.3-1.2-.3l-1.1.4-1.1-.2-1-.6-.5-1.4-.4-.8-.6,1.9-.8.8-1.3-.2-1.1.4-1,.3-1.2-.3-.8.5-.7.5-.6,1-1,.6-1.1.8-.8,1.2-.3,1.2-.6,1.3-1.2.5-1.2.4h-1.3c0,.1-.7.5-.7.5l-.6,1.7-.3,1.2-.7,1-.6,1.1-.4,1.4-.6,1.5-1.3.7-1.3-.4-.9-1.2.5-1.5.6-1.3.2-1.4h-1.3c0,0-.2-1.3-.2-1.3l.9-1.3,1.1-.9v-1.5c.1,0,.2-.8.2-.8l-1-3.3h-1.2l-1.1-.2-1.1-.4-1.1-.4-1.1-.7-1,1.3-.9.6-1.1-.2-1-.8-.8-.8-1.4-.4-.7-.8-1-1v-1.3c-.1,0-1-.8-1-.8l-1.1-.3-1-.2-1.1.2-1.2.4-1,.6-1,.8-.2,1-1,.7h-1.1c0,0-.7.8-.7.8l-1,1.1-1.1-.4-.9.7-1,.7-.9.7-1.4.6-1.1.4-1.2,1.1-1,.6-.4,1.4-1.2.8-.9-.8-.8-1.2-1.2.3-1-.8-.5-1.1-1.2-.5-.7,1.1-.6,1.8-.9.9-1.2.3-1.1.6-1,.9-1.2.4-1.2.5h-1.3c0,0-1.3,0-1.3,0h-1.4c0,.1-1.3.8-1.3.8l-.7-1-.5-1.1-1.3-.2-1.3-.4h-1.2c0,0-1.4,0-1.4,0l-1.3.4-1,1.3-.5-1.3-1.5-.2-1.2.9-.5,1.4-1.3.7-.7-1.2-.8-1.6-1.2.5-.9-.9-.7,1.2-1,.7-1.3.5-1.2.8-1.3.5-1.3.5-1.2.6-1.3,1.2-.5-1.5-1.3-.2-1.5.4-1.5.6-1.4-.2-.3-1.3-1.3-.3-.6,1.4v1.4s-1.4-.1-1.4-.1l-.6-1.2-1.4-.2-.8,1-.6,1.7-.9,1.5-1.2,1.2-1.3.9-1.2.8-.8,1.3-.4,1.7,1.2,1-.3,1.7-1.1,1.3-1,1.5-1.6,1.4-1.3,1.1-1.4,1.1-1.4.9-1.7.7-1.8.2-.8.4-1.6.7-1.6.9-1,2-1.4,1.5-1.4,1.6-2,1.3-1.7,1.3-.5,1.2-.2,4.4.3,2.3h2.3l2.4-1,2.3-.2v2.4l.5,2.3.8,2.4-1.8,1.8-2.6,1.3-2.4,1-2.2,1.6-2.3,1.6h-2.9c0,.1-1.6,2.5-1.6,2.5l-.7,3.5-2.3-2-2.8-1.1-2.9.2-2.1,2.3-2.4,2.2-2,2.8-1.9,2.7-1.4,3.4-.6-3.6-1.1-4.2-2.2-2.9-2-2.4-2.8-2.2-2.9-1.2-2.1-2.4-1.7-2.3-2.1-1.9-2.5-1.1-1.5-2.5-.2-2.4-1.4-2.1v-2.4s.1-2.4.1-2.4l1.7-1.5,2,.6,1.3-1.8-.7-1.9-1.3-1.5-1.8-.9-.4-2h2l1.8-.4,2,.2,1.9-.2.9-2,1.6-1,1.5-1,1.5-.7,1.8-1.7.7-1.5.5-1.6,1.5-.6.7-1.4.6-1.7.2-2.2-.4-1.6v-1.5c0,0-.4-1.4-.4-1.4l-.2-3.4-.3-1.3-.5-1.2-.3-1.3-.2-1.3-.5-1.3-.9-1-1-.8-.6-1-.4-1.3.2-1.1.7-1.3.7-.9.6-1,1.1-.2.8-.7-.5-.9v-1c0,0,0-1.1,0-1.1l.6-.8.8-.7.8-.6,1-.3.9.4.5-.6,1.2-.8.4-.9-.7-.7-.9.3-.7.8-.8.7-1,.3-.8.5-.7.8-1.1.2-.7.7-.6.8-.5,1.2-.9.8-.8.9-.7,1.1-.6.9-.6,1.3v1.2c.1,0,.4,1.3.4,1.3l-.2,1.2-.5,1.3-.5,1.2v1.3c-.1,0,0,1.3,0,1.3l.3,1.2.4,1.4.4,1.4.4,1.4v1.5c.1,0-.1,1.6-.1,1.6l-.7,1.2-1.1.8-1.5.5-1.6.5-1.4.6-1.2,1-1.2.9-1.5.4-.8-1.4-1.2-.9-1.6.4-1.2-1.6-.5,1.4-.9,1.5-1.4-.9-1.4-.5-1.5-.2-1-1.6-1.5.4-1.3-.7-.9-1.8-1,3-1.5.3-1.2-.9-1.4.5-1.6.8-1.5.6-1.6-.2-.5-1.4-1.2-1.2-1.4-.6-1.5.2-1.5-.2-.9-.5.4,3,.2,1.5.7,1.6,1.5.3.6,1.5.7,1.5-.6,1.9-1.6-.8-1.6-.6-1.8-.2-1.5.8-1.6.3-1.3-1.2-1.6-.5-1.4-1.6-1.2,1.3-.7-1.4-.4-1.5-.7-1.3-1.3,1.5-1.4.7-1.5-.9-1.4.7-1.2,1.3-1.6.2h-1.7c0,0-1.7-.2-1.7-.2l-1.6.2-1.7-.4-1.6-.4-1.5.6h-1.6c0,0-1.5-.7-1.5-.7l-1.7.6-.8-.3-.9-.3-1.4.9-1.3.9-1.6,1-1.6.4h-1.7c0,0-1.3,1.2-1.3,1.2l-1.7.9-.7-1.5-1.5.8-.3,1.6.4,1.8v1.8s-1.7.5-1.7.5l-1.3,1.7-1.5,1.4-1.5,1.1-1.8.5-1-2.3-1.8.7-1.9.5-1-1.6-.6-.5.4,6.1.9,2,1.5,1.8.7,2.2,2.3.6,2.1.9,2.4.4,1.7,1.9,1.5,1.8.4,2.8-.9,2.3-1.9,2.7-2.1,2.2-1.7-2.5-2.7,1.2-2.8-.4,1.8,2.4.9,2.8,1.9,2.3.2,3.5-.4,3.4-.4,3.9-.2,4.6,3.1,2.3,1,4.4,3.8,2.8,4.6.5-.3,6.1-3.2,3.8-3.1,4.3-2.8-4.6-4.9-2.7-3.3,3.8-4.5-3.3-2.6-4.2-3.3-3.2-1.8-4-.5-1.4-.6-1.4v119.3h417.9ZM54.6,349.3l.7,2.2,1.5,2.2,2.2-.9-.3-2.8-.9-2.1-1.2-1.8-2.2-.9-.7,2.2.7,1.6v.3Z"/>
  </g>
</svg>