<?xml version="1.0" encoding="UTF-8"?>
<svg id="Layer_1" xmlns="http://www.w3.org/2000/svg" xmlns:amcharts="http://amcharts.com/ammap" version="1.1" viewBox="0 0 512 512">
  <!-- Generator: Adobe Illustrator 29.1.0, SVG Export Plug-In . SVG Version: 2.1.0 Build 142)  -->
  <g id="_x3C_defs">
    <amcharts:ammap bottomLatitude="-55.621433" leftLongitude="-169.522279" projection="mercator" rightLongitude="190.122401" topLatitude="83.646363"/>
  </g>
  <g>
    <path id="africa" d="M312.1,308.5v.7s-.3.5-.3.5l-.4,1.5-.7,1.6-.9,1.8-1.2,2-1.2,1.5-1.6,1.9-1.4,1.1-2.1,1.4-1.3,1-1.5,1.7-.3.7-.3.3-1,.5-.3.6h-.5c0,0-.2,1.1-.2,1.1l-.4.6-.3.9-.6.5-.6,1.7v.8c0,0,1,.5,1,.5v.4s-.3.8-.3.8v.4c0,0,0,.7,0,.7l.5.9.6,1.4.5.3.2.6v1.4c0,0,.1,1.2.1,1.2v2.2c0,0,.3.7.3.7l-.4,1-.5,1-.9.9-1.3.5-1.6.7-1.6,1.6-.5.3-1,1-.6.3v1c-.1,0,.5,1.1.5,1.1l.3.9v.4s.3,0,.3,0v1.5s-.3.7-.3.7l.3.3-.2.6-.6.5-1.1.5-1.7.8-.6.6v.6c.1,0,.5.1.5.1v.8c-.1,0-.5,1.1-.5,1.1l-.2,1.3-.4.7-.9.8-.3.2-.6.8-.4.8-.8,1.1-1.6,1.7-1,1-1,.7-1.4.6h-.7c0,0-.2.5-.2.5l-.8-.2-.7.3-1.5-.3-.8.2h-.6c0,0-1.4.6-1.4.6l-1.2.3-.9.6h-.6s-.6-.6-.6-.6h-.5s-.6-.8-.6-.8v.2c0,0-.2-.4-.2-.4v-1s-.4-1.1-.4-1.1l.4-.3v-1.2s-.9-1.5-.9-1.5l-.7-1.3h0s-1-2-1-2l-1-1.2-.5-1.1-.3-1.5-.3-1.1-.5-2.3v-1.8s-.2-.8-.2-.8l-.5-.6-.7-1.2-.7-1.8-.3-.9-1.1-1.4v-1.1c0,0-.2-.9-.2-.9l.2-1.3.5-1.3v-.6c0,0,.5-1.3.5-1.3l.3-.6.8-.9.4-.6v-1c.1,0,0-.8,0-.8l-.4-.5-.4-.8-.3-.8v-.3c0,0,.5-.6.5-.6l-.4-1.3-.3-.9-.7-.9v-.3c.1,0,0-.4,0-.4l-.4-1-1.1-1.5-1.4-1.4-.9-1.1-.8-1.4v-.5s.3-.4.3-.4l.3-1,.3-1-.3-.2.5-1.5.2-1.1-.5-.9-.6-.2-.3-.6-.4-.2v-.4s-1.4.5-1.4.5h-.5c0,0-.5.2-.5.2h-1.1s-.7-.9-.7-.9l-.5-1-1-.9h-1s-1.2,0-1.2,0l-1.1.2-1.1.3-2.2.8-.8.5-1.2.4-1.2-.4h-.6s-1-.3-1-.3h-.9s-1.6.3-1.6.3l-1,.4-1.4.5h-.3s-.4,0-.4,0l-1.4-.7-1.3-1-1.2-.8-.9-.9h-.4c0-.1-1-.7-1-.7l-.7-.7-.2-.5-.2-1-.6-.8-.5-.5-.4-.2-.3-.3-.2-.6-.2-.3-.4-.2-.7-.6h-.6c0,0-.3-.5-.3-.5v-.2s-.4-.3-.4-.3v-.3c0,0-.3-1.1-.3-1.1l.2-.6-.6-1.1-.7-.5.6-.3.7-1,.3-.7v-.8c-.1,0,.3-.7.3-.7l.2-1.4-.2-1.4-.2-.7v-.7c.1,0-.2-.7-.2-.7l-.7-.6v-.6c0,0,.1-.7.1-.7l.5-.4.5-.8v-.5c0,0,.4-1.1.4-1.1l.8-1,.5-.2.4-.9v-.8s.5-.9.5-.9l.9-.6.9-1.6h0s.7-.6.7-.6l1.3-.2,1.1-1.1.7-.4,1.2-1.3-.3-2,.5-1.4.2-.9.9-1.1,1.4-.8,1-.7.9-1.7.4-1h1s.8.7.8.7h1.3c0-.1,1.4.3,1.4.3h.6s1.3-.9,1.3-.9l1.5-.3.9-.7,1.3-.5,2.3-.3h2.3c0-.1.7.1.7.1l1.3-.7h1.5s.6.4.6.4h.9c0-.1,1.5-.8,1.5-.8l1,.2v.9s1.1-.6,1.1-.6v.3c0,0-.6.8-.6.8v.8s.5.4.5.4l-.2,1.5-.9.8.3.9h.7s.3.8.3.8l.5.3,1.6.6h.6c0-.1,1.2.1,1.2.1l1.8.7.6,1.4,1.2.3,1.9.7,1.5.8.7-.4.7-.7-.3-1.2.4-.8,1-.8.9-.2,1.9.3.5.7h.5s.4.3.4.3l1.4.2.3.5h1.8s1.3.4,1.3.4l1.4.5.6.3,1.1-.5.6-.5h1.2c0-.1,1,0,1,0l.4.8.3-.5,1.1.4h1.1c0,0,.7-.3.7-.3l.9,2.7-.4.6-.3,1.2-.4.8-.3.3-.5-.5-.6-.7-1-2.3h-.1c0,.1.6,1.8.6,1.8l.8,1.6,1,2.4.5.8.4.9,1.2,1.7-.3.3v1s1.7,1.3,1.7,1.3l.2.3.4,1.4-.3.3.2,1.5.5,1.7.5.4.8.5.8,1.7.4,1.3.8.7,1.9,1.3.8.8.7.8.4.5.7.4.3.4v.6s-.8.3-.8.3l.6.4.4.3.3.6.6.6h.7s1.3-.3,1.3-.3l1.5-.2,1.2-.4h.7c0,0,.5-.3.5-.3h.8s.4,0,.4,0l.6-.2h.7c0-.1.7-.6.7-.6h.5s0,.4,0,.4l-.2.7ZM310.7,342.6l-.3-.9-.4-.6-.5-.6-.5.6v.8s-.8,1-.8,1l-.6-.2.2.6-.4.7-1.1.9-.8.8h-.6s-.5.3-.5.3l-.8.3h-.7c0,0-.2,1-.2,1l-.5.8v1.3c.1,0,.4.9.4.9l.3.7v.9c-.1,0-.8,1.1-.8,1.1v.5s-.6.3-.6.3l-.2,1.1v1.1c.1,0,.6,1.2.6,1.2v1.3c0,0,.5.8.5.8l1.1.5.8.4,1.2-.6,1.1-.4.6-1.7.5-2.1.9-2.8.7-2,.5-1.7v-1.2c0,0,.5-.3.5-.3v-.6c.1,0-.1-1.1-.1-1.1l.3-.4.5.8.2-.4v-.7c.1,0-.2-.7-.2-.7l-.2-1.7Z"/>
    <path id="asia" d="M416.9,335.3l.5.2-.5.4-1.4.6-1.2.4-.9,1-1.2.3-.2-.2v-.5c.1,0,.7-.8.7-.8l1.4-.6.2-.3,1.2-.3h1s.4-.2.4-.2ZM408.4,306.3l.6.7.4-1.2-.5-.5h-1.2s.7,1,.7,1ZM409.9,307.5l.2.7v.7c0,0,0,.6,0,.6l.9-.4.6-.6v-.6s-.8,0-.8,0l-.8-.4ZM411.3,308.9l-.2.9-.3.4-.3.4.9,1,.4-.4.4-.9.5-.5v-1.3c.1,0-.9,1.3-.9,1.3l.2-.9h-.8ZM412.1,311.9l-.8.5-.9.4-.5,1.2.2.4,1-.8h.6c0,0,.4-.5.4-.5l.9.7-.4.7.4,1,1.6.8.4-.6-.4-1,.6-.7.5,1.4.5-1.3v-.8c0,0-.2-.9-.2-.9v-.5c0,0-.2-.7-.2-.7l-1.1-.7v1.1c0,0-.9,0-.9,0l-.2.6-1,.4-.5-.6ZM407.2,302.5l.2.6.7.8.2-.5.4.3-.4.4v.6c0,0,.6.3.6.3l1.3-.2.9.8.4-.5.5.7,1.1.7v-.6c.1,0-.3-.3-.3-.3v-.8c.1,0-1.6-.8-1.6-.8l-.6.2-.7-.2-.3-1.1.2-1.1.8-.5.4-1.2-.5-1,.2-.6v-.4c-.1,0-.5.4-.5.4l-.9-.4h-.8l-.4,1.3v2.2c-.1,0-.7-.5-.7-.5v1.4ZM414.9,307.1l-.4-.5h-1.3s.8,1,.8,1v.5s-.8-.1-.8-.1l.2.8h.4c0,0,0,1.1,0,1.1l.7-.3-.3-.9v-.5s1,.4,1,.4l-.4-1.6ZM405.9,310.1l.9-.8-.2-1.1-.7,1.4-.8,1-1,.9-.7,1,1.8-1.3.7-1ZM353.2,311.1l-1-.8-.6,2.3.2,2,.7,1.1,1.2-.3.6-.4.2-1.4-.7-1.4-.6-1ZM397.6,334.3l-.5-.9-2.6-.7-.3.6h-2.6c0-.1-.2-.6-.2-.6h-.6c0-.1-1.1-.6-1.1-.6h-1.7c0,0-.9,1.2-.9,1.2h1.3c0,.1.2.7.2.7l2.5.6.6-.2h1c0,.1,1.6.7,1.6.7l1.3.3h1.4c0,.1,1.3,0,1.3,0l1.5.6,1.6-.5-1.7-.8-2.1-.3ZM387.7,329.8l.3-1.7-.7-.9h-1c0-.1-.5-.9-.5-.9l-.2-1h-.5s-.8-.5-.8-.5l.6-1.1-1-.6-.8-1.1-1.2-.9h-1.4s-1.3-1.5-1.3-1.5l-.8-.6-1.1-.9-1.2-1.3-2.1-.3h-.9c0,0,.1.6.1.6l1.4,1.5,1,.8.7,1.2,1.2.9.5,1.1.4,1.2,1.2,1.1,1,1.9.7,1,1,1.1.6.8,1.8,1.1,1.2,1.2h1.5s0-2.2,0-2.2ZM407.1,336.8l-1.3.3,1.8,1h.6s0-.4,0-.4l-.5-.4-.7-.4ZM405.7,335.3h-.9c0,.1-.5-.3-.5-.3l-.4.5h-.8s-.5.8-.5.8h.7s1-.2,1-.2l1.6-.3-.3-.6ZM408.6,325.8l-1.2-1.2.2-1,1.2-.2h2.3c0,0,1.3.2,1.3.2l1-.3,1.1-1.4-.2-.3-1.4,1h-1.6c0,0-1.7-.1-1.7-.1l-1.1-.4-1.2,1-.3.6-.7,2.1-.2,1.1-.6.9.4.9h.6s.2,1.3.2,1.3l-.4,1.3.6.4.9-.2v-2c0,0-.2-1.6-.2-1.6l.9-.4v1.3c-.1,0,.9.8.9.8l-.2.5.3.4,1.4-.5-.7,1.1.5.5.7-.4v-.9s-1.2-1.6-1.2-1.6l.3-.5-1.3-1.8,1.2-.5.6-.8.6.2v-.6c.1,0-2.5.5-2.5.5l-.8.6ZM409.1,335.6l-.9-.4-1.1.3v.5s1.8.2,1.8.2l2.1-.4.2-.8-1.2.5h-.9ZM403.8,323.7l.5-.9,1.6-.2-1.5-1.3.2-.6-1-1.3.8-1.2,1-.5-.2-.7h.9c0,0,0-.6,0-.6l-1.2-.4-.9-.4v-.6c0,0-.8-.7-.8-.7h-.6s-.7,1.1-.7,1.1l-1.1,1-1.2.8-.5.5-.7.9-1,1.1-1.7.3-.6.3-.3,1.2-1.1.3-1-.5-.8.9-.2,1.3.2,1.2.7,1.2.7.4.2,1.8,1.1.2h.9c0,0,.5.6.5.6l1.6-.5.7.4h1c0,0,.5.9.5.9l1.6-.6.2.5.5-2.1v-1.4s1.4-.9,1.4-.9v-1.3ZM427,331.8l-.2.5v1c.1,0,.8-.9.8-.9v-.7s-.3-.4-.3-.4l-.3.5ZM436.2,327.4l-1.5-.3-1-.5-1.2-.5h-1.2l-1.6.8-1.2,1.5-1.4-.8-.4-2.2-.2-.5-2.2-.6-.7.4-1.9.3.6.7,1.2.3.5.8h2s.1.4.1.4h-1s-1.5.5-1.5.5l1.1.7v.6s.3.5.3.5h.5c0-.1.4-.8.4-.8l2.1,1.3h1.1c0,.1,2.7,1.3,2.7,1.3l.7,1.2.4,1.5-.9.4-.6,1.1h1.7s.3-.4.3-.4l1.4.3,1.2,1.1v-4.5s0-4.5,0-4.5ZM420.2,327.7h-1.7c0,0-.3.8-.3.8h1s.8,0,.8,0h1.2c0,.1,1.2.7,1.2.7l-.5-1-1.5-.4ZM415.8,328.8l1,.3.5-.5-.3-.5h-1.4c0,0,.3.7.3.7ZM418.8,324.9l-.6-.7.2-.8h.7c0,.1,0-1.1,0-1.1v-.6c-.1,0-.9-.1-.9-.1v-.7c0,0-.6.5-.6.5l-.3,1.1.4,1.8.6.9.4-.2ZM408.9,291.8l.8-2.4.2-.9-.6-.5-1.1,1.1-.8,1.5.2,1.1.7,1.3.6-1.2ZM370.4,136.2l2.3,2.8,3.8,2.1,3-.9.3-6.7-3.2-7.9-2.7-4.4-3,2-3.6,5.8,1.9,1.6,1.1,5.6ZM436,170.4l-1.3,1.9.2.3,2.8.5h2.1s-.2-1.3-.2-1.3l-2-1.9-1.7.5ZM386.7,144.2l.4-2.8-3.5-4.1-1-.5-1.1.8-2.5,9.2,7.8-2.6ZM435.7,164.9h5.1c0,.1,1.1-3.9,1.1-3.9l-5-3-3.6-.3-1.8,1.1-.7,3.8,2.7,3.5,2.3-1.2ZM490.1,183.7l1.8-.3,1.4-1v-.6c.1,0-1.9-1.2-1.9-1.2h-1.2s-.2.2-.2.2l-1.8,1.8.2,1.3,1.5-.2ZM448.1,165.7l1.6-2.1-3.5-1.4-2.6-.8-.3,1.8,2.6,2.1,2.2.5ZM437.1,240.1l.8,2.2v2.9c0,0-.4,1.6-.4,1.6l.2,2.2-.2,2,.3,1.7.9-1.5,1,1.2v-1.4s-1.3-2.1-1.3-2.1l.9-3,2,.7-1.4-3.8-.6-2.2v-2.2s-.4-2.2-.4-2.2l-.4-1.6-.6.3.5,1.1-1.3,1.1v3.1ZM501.3,198.8l-3.7-.5.3,2.5-.9-.9v-2.2c.1,0-3.5-3.6-3.5-3.6l-3.4-2.9-1.9-1.7-4-1.9-2.9.2-4.4-1.1-.6,1.8,1.1,2.5-1.7,1.2-2.4-3.4-2.6.4-2.6-.8h-2.4c0,.1-1.8.9-1.8.9l-1.7-1.1.2-3-1.1-1.7-2.7-.7-5.6.8-3.6-3.3-1.2-2.6-12.5-3-1.8,2,1,4.1-2.3-.6-1,1.2-2.7-1.3-2.4,1.2-2.2-2-1.3,4.5-2.2-1.7-1.7-3.4.8-1.9-.6-3-2.2-2.5h-2.2s-2.9-.8-2.9-.8v3.7c0,0-5.8-.7-5.8-.7l-.3-2.3-4.4-.8-2.2.8-.6,1.3-.7-3.1-1.2.9-2-1.3-1.7-.7,1-1.5,3.6-2.9,1.5-1.6.3-2.9-1.1-2.1-3.1-2.9h-4c0,0-1.3,1.4-1.3,1.4l-.4-3-3.1-.9,1.9-1.5-2.4-2.1-3.3,2.6-1.3,2.6-.4,2.6h-2.5c0,0-3.1,3-3.1,3l-1.1-1.3-3.6.5-.5,1.6-3.6.7-2.7,2.7h-1.6c0,.1-1.6,3.6-1.6,3.6l1.1,2.6-3,.6-3.3-.2-2.4,1v5.1c.1,0,1.4,3.8,1.4,3.8l-2.5-2.5-2.9.2-2.3,1.8.6,3.1-1.5-.8.5-4.3-.7-2.6h-.7c0,.1.3,3.4.3,3.4l-2.5,3,1.8,3.5-1.1,4.1.3,2.2,1.5.3-.6,2.5.8,2.1-1.2,1.7-.4,1.7-1.5.9-.5,1.2-1.6-.5,2.7-5,.6-2.5-1.5-2.3.3-5.4-.4-2.9-.9-1.4,1.3-3.6-.3-2.5-3.7-1.2-1,.9-.9,4.1-2.5,3.9v1.3s.8,3.2.8,3.2l-.5,1.9,1.7.4v.8s1.4,2,1.4,2l-.9,2-.8-.7.5,3.6-1,2-1.9,1.9-1.9,1.5-2.4,2.7-2.6,2-.9,9.8-.7,4.4-.9,2.5-.9,1.7-1.1,1.3-.3,1.2,1,.9.2,1.1-.8,1.3-1.3.3-1.5.2.6,1.2.6.9.9,1.1.9-.7.9-.6.9.5.3.9-.7.7-.6,1.1v1.3s1,.3,1,.3l.4.9h.1c0,0-.2.2-.2.2l2.2,1.5-.3,1h-1.9c0,0-.4.6-.4.6l-1.8-1.1h-2.2s-1.5,1-1.5,1l-1.6-.9-3-1.5h-2.2c0,0-2.8,2.4-2.8,2.4l-.2,1.6-1.4-1.2-1.1,2.3.4.4-.8,1.6,1.2,1.4h1c0,0,.9,1.3.9,1.3v1c-.1,0,.6.3.6.3l1.3-.4,1.6-.9,1.2.5h1.4c0,0,.2,1.1.2,1.1l-.2,1.9-1.2-.3-1.2.3v1.4c0,0-1.4-.2-1.4-.2v.6s.8.5.8.5l.6,1.7,1.6.6.3.6-.3.8v.5c0,0,.5,1.2.5,1.2v-1.3c.1,0,1.3-.5,1.3-.5l.4,1.1,1,1.1-1.2.6-1.3-.4-.3,1.5h.9c0,.1-.4,1.3-.4,1.3l1.1.6-.2,1.8.3,1.2v.4c-.1,0-2.3.5-2.3.5l-2-.3-1-.9-1.3-.4-.4-1.3h-.3c0,0-.9-.8-.9-.8l.5-.9-.4-.5h-.5c0,.1-1.6,1.4-1.6,1.4h-.5c0,0-.9-.2-.9-.2l-.7-.8-.2-.7-.9.5.4,2-.3.5.8,1.4h0l-.7.3-.5-.4-1.6-.2-.6.3-1.6.3h-.7s-1.6.6-1.6.6h-1.1s-.7-.3-.7-.3l-1.5.5-.5-.3v1c0,0-.4.4-.4.4l-.4.4-.3.7v1.3c.1,0,.1,0,.1,0l-.7,1.2-.5,1.3h0s-.2.4-.2.4l-.3,1.2-.4.8h0c0,0-.4.6-.4.6l.9,2.7v.2s-.1.6-.1.6v.5c0,0-.3.9-.3.9h.7s.7,1.1.7,1.1l.8,1.2.5,1.1.4.3.4.8v.3c0,0,.4.9.4.9l.7.3.6.6.8,1.7v.9c0,0,0,1,0,1l.9,1.4.6.2,1,1,.4,1.2.7,1.2.7.5v.6c.1,0,.5.4.5.4l.2.6v.6c0,0-.1.3-.1.3v.6c.1,0-.1,0-.1,0l.4.6.3,1,.2.4v.8s.3.8.3.8h1c0,0,.4-.1.4-.1h.7s.2-.3.2-.3h.4c0-.1.3-.5.3-.5h.3c0,0,1.2-.2,1.2-.2l.9-.3.8-.6h.4c0,0,.6,0,.6,0l1.2-1,2.2-.7,1.4-.6v-.5s.3-.6.3-.6l1-.4h.6c0,0,.9-.6.9-.6h.8c0,.1.7-.3.7-.3v-.6s.5-.4.5-.4h.9s.3-.3.3-.3v-.7c.1,0,1-.5,1-.5h.6s.1-.2.1-.2l-.2-1,.2-.7.3-.3h.6c0,0,.5-.9.5-.9l.6-.5.2-.4.5-.9v-.3s-.5-.2-.5-.2l-.4-.5-.6-.9-.8-.3-1-.2-.8-.5-.6-1-.2-1.2.2-.3v-.6c.1,0,0-.1,0-.1l-.4.5-.9.9-1,1-.9,1h-.8s-1.1,0-1.1,0l-1.1.2v-.4s-.3,0-.3,0l-.3-.6.3-.9v-.9s-.4-.5-.4-.5l-.4.2-.4.8v1.1c0,0-.1-.4-.1-.4l-.2-.5-.4-.4-.2-.5v-.5c.1,0,0-.6,0-.6l-.9-.6-.2-.5-.7-.4-.5-1.3-.4-1.2v-.4c.1,0-.2-.7-.2-.7h.8c0,0,.5-.5.5-.5l.9.5.7-.3,1,2.1.9,1.5,1.3.4,1.4,1.2,1.7.5,1.4-.7,1.1-.3.7.3.6,1.9,1.6.2,1.5.3,2.6.5,1.9-.2h2.2s2.5-.3,2.5-.3l1.1,1.2.4,1.1,1,.4,1.6,1.3.4.6-.7.5,1.8,1.8,1,.2,2-.9.3,1.4v1.8s.4,1.9.4,1.9l.6,2.8,1.3,2,.2.9.3,1.8.7,1.3.5.7.5,1.4.6,1.9,1.3,1.3.6-.4.5-.9,1.3-.4-.4-.5.6-1.1h.7c0,0,0-2.4,0-2.4l.6-1.3v-1.2c0,0-.4-1.8-.4-1.8l.4-1.1h.6c0,0,1.2-.6,1.2-.6l.7-.4v-.7l1.4-.9,1-.9,1.5-1.7,2-1,.7-.9v-1.1c0,0,1.6-.3,1.6-.3h.9s.2-.5.2-.5h.5c0,.1.4.3.4.3l.2-.3.6.3.4-.8v-.6c-.1,0,1.1,0,1.1,0l.6.9.3.7v.8c0,0,.5.8.5.8l1,1.2.8.2-.2.5,1.1,1.7.3,1.3-.5,1.8.9.3h.8c0,.1,1.6-.9,1.6-.9l.9-.7.6,1.2.3,1.8.4,1.7.6.7v1.5c-.1,0,.3.8.3.8l-.4,1.1v1c.1,0-.3,1.3-.3,1.3l-.2.9.3.8.2-.8.7.7.7.8.2.7.5.5.3.6-.2,1,.5.7.2,1.1.8.9.2.7,1.6,1.1,1.3,1h1c0,0,0-.6,0-.6l-.5-1.2-.5-.4v-.8c0,0-.2-.5-.2-.5v-.6c.1,0,0-.9,0-.9l-.6-.9-.8-.8h-.3c0-.1-.7-.8-.7-.8l-.8-.2-.8-.8-.2-1.2-.6-1.3h-.9s0-1,0-1l.4-1.2.7-2v-1.5c.1,0,1.3,0,1.3,0l-.2,1.1h1.2s1.2.6,1.2.6l.7,1.4.6.7,1.2.2,1,.8-.4.9.5.9,1.7-1.3,1.1-1.2,1.6-.9,1.2-.9.2-2.5-.6-2.6-.8-1.1-1.3-.9-1.3-1.9-1.1-1.5.3-1,1.2-1.4,1.8-1.3.7-.2,1.9.5-.3.6.4,1.1h.8c0,0,.5-1.6.5-1.6l1.5-.2,1.9-.7.8-.7.5.5.8-.7,1.6-.2,1.9-1.3,1.9-1.4,1.3-1.8,1.1-2,1-1.7h.8c0-.1.3-1.4.3-1.4l.2-1.3-.8-.5-.3-.8.9-.4v-1.2s-.9-1.2-.9-1.2l-.8-1.5-.5-1.6-1.5-.9.7-1.2,1.3-.9.6-.9,2-.5-.2-.9h-.9s-1.2-.7-1.2-.7l-1.5,1.2-1.1-.5v-.8s-1.2-.3-1.2-.3l-.7-1.2.7-.8h1.4c0,0,.9-1.2.9-1.2l1.6-1.3,1.2-.6.7.9-1.1,1.2.3.7-.7.8,1.5-.5,1-.8,1.9-.5.6.5.8.2v.3c0,0-.3,1-.3,1v.3c.1,0-.2.2-.2.2l-.4.8.4.3.4.2v.3s.5-.1.5-.1l.2-.3.7.3.9,1.5-1,.3.6,1.8-.3,1.3.2.9h1.2c0-.1,1.1-.8,1.1-.8l1.3-.3.5-.9v-2s-.3-1.1-.3-1.1l-1.2-2.1-.8-.8-.6-.3.2-.2v-.8s.6-.5.6-.5l.9-.3.5-.5.2-.3.7-.4v-1.3s.4-.6.4-.6l.6-.6h.5c0,.1.2-.5.2-.5l1.9-1.4.9.9h.9s1.8-1.1,1.8-1.1l.9-1.1,1.9-2.2,1.9-2.3.5-1.4,2.1-3,.6-3.4v-2.6c.1,0,1.2-2.2,1.2-2.2v-1.9s-2-2.6-2-2.6l-1.5-.2-.9,1.2-1.3-.5-.7-1.5-2.2-.3,5.3-5.8,4.5-5.1,4.5-.8,4.2.5,1.7-1.3,2.1.4v1.9c0,0,2-.3,2-.3l3.1-.7-1.1-1.7,3.5-4.7,3.6-1,1.1,3.5,3.5-3.1.8-2.4,1.7-.3-1.1,4.1-2.5,2.2-2.4,2.8-2.5,3.3-2.1.6v1.2c0,0-1.2,1.5-1.2,1.5l-.7,3.4.8,5.2.6,3.3.5,1.5,2-2.1.4-2.3,2.1-.6.5-2.7,2.4-1.2-.6-1,.6-2h1.3c0,0,.2-3.8.2-3.8l-1.6-.6v-1.1s1.6-2.6,1.6-2.6l.4-1.8,1.8.4,1.3-1.2.6,1,3.6-2.2,2,1.9.5-1.3,2-1.7,2.1-2,1.2-.3,3.9-2.2,2.6.6.4-.8-.2-1.2-.6-.8-.8-2.6-1.2-1.7,1.8.2,1.8-1.4h0s.8-1.4.8-1.4l-.6-1.6,1.7-.8-.3,1.3.7,1.2,1.6-.4,1.4.5.3,1.4,1.8.9,1.1,1.1h1.3c0,0,.6-.6.6-.6v-3.2s2.3-.3,2.3-.3l1.4-1.5-2.9-3.4ZM425.6,275.4l.7-.4.6.5.8-1-.2-.6-1-.4-.6.7-.8-.2-.8,1v.8s.9.5.9.5l.4-1ZM441.2,256.6l-1-.4-1.1-.6-1.6-2-.4,1.5-.4,2.6h-1.5c0,.1-.7,1.6-.7,1.6l.2,1.8h1.5s.8-2.1.8-2.1l2.2,1.3,1.2-1.9,2-.5-.3-2.1-1,.8ZM435.3,261.7l-.6,1.1.2,2-.9,2.2-.8.7-2,1.7-.9-.8-1.4,3-1.5-.3-2.7.5-1,1.1-1.4.9-.7,1-1.3.5.6,1.1.9.5-.3,1.5.7.6.9-.7.9-2.8-1.4-1.2h1.6s1.6-.8,1.6-.8l2.4-.4v1.2c0,0,1,.6,1,.6l2-1.9h2.4c0-.1,1.8-.9,1.8-.9l.7-1.2-.2-.9.5-1.4v-1.8s1.3-1.8,1.3-1.8v-1.4s-.7-2.5-.7-2.5l-1.5.3ZM394.3,297l.6-.6-.3-.6h-.8s-1.5.4-1.5.4l-.7.7v1.3s1.2.4,1.2.4l1.2-.7.3-.8Z"/>
    <path id="australia" d="M462.3,335.6l-1.1-.6-.8-.5-.5-.5h.2c0-.1.6.2.6.2l1.1.6.3.4v.3ZM463,336.8l-.9-.2v.6c0,0,.2.2.2.2h.8c0,.1.5.1.5.1l-.2-.4-.4-.3ZM464.6,337.4l.2-.3-.6-.7-.5-1.1h-.5l.3.8,1,1.2ZM465.1,338.3l-.8-.3.5.9h1s-.4-.5-.4-.5h-.3ZM457.7,332.9v.2c0,0,.5.6.5.6l.6.3h.3c0,0-.6-.5-.6-.5l-.8-.6ZM455.7,331.5l-.4-.3v-.4c-.1,0-.3.1-.3.1l.3,1,.6.9.6.5h.4c0-.1.2-.5.2-.5l-.6-.5-.7-.9ZM448.3,332.5h.7l.7-.3.8-.3.2-.4h.7c0-.1.5-1,.5-1v-.8s-.3-.2-.3-.2h-.8s.2.8.2.8l-.8.5-.4.5h-.8c0,.1-.1-.6-.1-.6h-.2s-.2.7-.2.7h-.8c0,.1-1.2,0-1.2,0v.4c-.1,0,.7.4.7.4l1.1.4ZM436.3,336.4h1.4c0,0,.8.3.8.3l1.1-.5-.2-1,.8-.5,1.2-.4,1.8.6.7,1.2.8.8,1.1.9,1.4.2,1.2.2.3.4h.9c0,0,.2-.5.2-.5l-1.5-.6.4-.3-1.1-.2v-.6c0,0-.7,0-.7,0l-.9-1.5-1.2-.9-.3-.9h1.3c0-.1-.3-.9-.3-.9l-2.3-.9-.2-.8-.8-.7-.9-.7-2.5-.8-2.4-.9v4.5s0,4.5,0,4.5ZM451.4,328.6l.6.5.3.5.3.8.4-.4-.2-.7-.5-.4-.6-.6-.6-.3-.5-.3-.7-.4-.4.3,1,.4.8.6ZM472.4,346.3l.5.6.5-.2-.9-.8v.4ZM471.8,345.6h.3c0,0,.4,0,.4,0l-.2-1.1-.7-.4v1.1s.2.4.2.4ZM337.7,401.1l-.9-.7v.4c0,0-.3.9-.3.9v1.1s2.2-.1,2.2-.1l.4-1v-.4s-1.4-.3-1.4-.3ZM486.5,380.2h-.9c0-.1-1.1-.7-1.1-.7l-.2-1.3-.6-.5v1.2s-1-1.8-1-1.8l-.4-1.5-1.1-.4-.8-.9h-.5c0,.1.6,1.3.6,1.3l1.1,1.5.7.7v.3s.5,1.2.5,1.2v1.1c0,0-.2,1.3-.2,1.3l-1,.6v.6s1.4.7,1.4.7l.5,1-.8,1.5.6.3.2.5,1.1-.7.7-1.2.5-1,.2-.3v-.8c-.1,0,.2-.5.2-.5h1.1s.4-1,.4-1l.3-1.6-.7-.2-.8.7ZM481.7,385.5l-1,.7-.3-.8-.3-.8-1,.8-.2,1-.5.5-.6,1.4-.8,1-1.2,1-1,.7-.9.4-1.7,1.9-.7,1.5.2.7h1.5c0,.1.9.8.9.8h1.3s.7-.5.7-.5l1.1-.9.8-2,.4-1.3,1.2-.7h1.1s-.5-.9-.5-.9l.7-.8.9-1.4.5-.9v-.8l-.4-.8ZM472.3,355l-.7-.7-1.1-.9-.4-.4-.6-.5-.8-.5h-.6s.2.5.2.5l.9,1,.9.8,1,.7.8.4.5-.4ZM487.5,348.3l-.6-.2-.5.5v.6c.1,0,.9.2.9.2l.9-.2.2-.8-.5-.4-.3.2ZM490.1,346.2l-.8.4h-.4c0,0-.7.4-.7.4l.2.5.9-.3.9-.4h.1c0,0,.2-.8.2-.8h-.3ZM453,361.8v-.9s-.4-1.2-.4-1.2l-1.1-1.2-.6-.6-1-.9-.2-1.6-.3.2-.6-.6-.6.3-.5-1.6-.8-.9.2-.4-.9-.6-1-.7-1.5-.8-.4-1v-.7c.1,0-.2-1.2-.2-1.2l-.3-.2-.2-.7-.3-1.2v-.6c.1,0-.5-.6-.5-.6l-.5-.6-.9.5-.5-1.1v-.5s0-.8,0-.8l-.5-.7v-.6c0,0-.4-.2-.4-.2v-.9c0,0-.5-.7-.5-.7l-.5.5v.4s-.3.8-.3.8l-.3.7.2.5-.3.3-.2,1.1.2.8v.4c0,0,0,.7,0,.7l-.4,1.1-.2.8-.3.6-.3.8-.9.5-1.3-.5-.2-.4-.7-.4h-.4l-1-.8-.7-.5-1.1-.5-1.1-.8v-.4c0,0,.4-.7.4-.7l.4-.7-.2-.6h.5s.5-.6.5-.6l.4-.8-.6-.7-.3.3h-.5c0-.1-.8.3-.8.3l-.9-.4h-.4c0,.1-1.2-.2-1.2-.2l-.7-.6-.9-.3-.7.2,1,.5v.7s-1.1.3-1.1.3l-.7-.2-.8.5-.6.8.2.4-.6.4-.7,1.1.3.8h-.9c0-.1-.9-.1-.9-.1l-.8-.8-1-.6-.7.2-.6.2v.4s-.6-.2-.6-.2v.4s-.7.2-.7.2l-.3.6-.8.7-.2,1.1-.6-.3-.4.7.5.7-.6.3-.6-1.2-1,1.2v.8s0,.6,0,.6l-.8.7-.4.8-.7.6-1.5.4h-.8s-.4,0-.4,0l-.2.3-.8.2-1.1.5-.4-.2h-.6c0,.1-1.1.7-1.1.7l-.7.6-1.1.5-.6,1v-1.1c-.1,0-.7,1.1-.7,1.1v.9c.1,0,0,.7,0,.7l-.3.4v.9c-.1,0,.2.5.2.5v.5c.1,0,.8,1.2.8,1.2v.8s-.4-.6-.4-.6l-.7-.4.5,1.4-.6-.7.2.7.8,1.2.2,1.2.6.6v.5s.6,1,.6,1v.9c0,0,.2.9.2.9l.7,1.6.2,1-.2,1.1v.6s-.2.4-.2.4l-.7.2v.9s.7.3.7.3l1.5,1.1h1.9c0,0,.7-.5.7-.5l.7-.5h.4c0,0,.8-.8.8-.8h.9c0,0,1-.3,1-.3l1.2.3h.9c0-.1,1.2-.2,1.2-.2l.5-.7.3-.9,1.2-.4,1.5-.8h1.3c0,.1,1.6-.4,1.6-.4l1.8-.6,2.5-.2,1.3.8h1s1.8,1,1.8,1l-.3.4.7.6.9,1.2v.9s1,.7,1,.7l.5-1.3.9-.6,1.1-1.4v1.2c.1,0-.4.8-.4.8l-.2,1-.7.9,1.2-.3.7-1.2.3,1.2-.5.8,1.3.2.7.7.3.9.3,1.3.9,1.1,1.3.5h.8c0,.1.8.4.8.4l1.2.5,1.2-1.3.8-.3-.2.9.8.3,1.1.8.8-.8.6-.7,1.3-.7h1.5c0,0,.8-.7.8-.7v-.5c0,0,.1-1.2.1-1.2l.3-1.3.5-.8.4-1.4.5-.8.5-1.3,1-.8.6-1.5.3-1.2v-.9s.3-1.4.3-1.4l.2-.7v-1.4c0,0-.6-1.3-.6-1.3v-1ZM445.5,385.3l-1.1.3-.8.3-1.3-.6-.9-.2v.8s.8,1.6.8,1.6l.2,1.2.9,1.6h.9c0,0,.3.2.3.2l1-1.3.5.5v-1.5c.1,0,.6-.6.6-.6v-2.2c0,0-.9-.1-.9-.1Z"/>
    <path id="europe" d="M289.4,271.4l-.9.7v.3c0,0,.1.1.1.1l-1.4.7-.7-.2-.3-.7h.7c0,0,0,0,0,0l.2-.4h1s1.2-.5,1.2-.5ZM221.6,200.4l-2.3-.2-2.2,1.8-1.7-1-2.1,1.8-2.2-2.3-2.1.5-.9,2.2,2.9.8v1c0,0-2.4.6-2.4.6l3,1.6-1.4,1.4,3.8,1,1.8.5,1.2-.6,4-2.2,1.8-2.5-1.6-2.3.3-2.2ZM259.8,146.1l2.1,1.9-1.3,2.3,3,3.8,1.7-.2.7-5.2,1.2-1.2.8-5,3.5-2.8-4.5-5.6-1.7-2.7-2,.3-.5,2.7h-2c0,.1-.8-2.6-.8-2.6l-3.8,2.8,1.1,5.8,2.7,5.8ZM269.1,133l.2,2.1,4.1,1.3,4-.9,2-4.2-2.7-2.9-3.5-2.1-1.4,2.5-2-2-4.3,2.3,1.5,3.7h2ZM272.7,149.9l3.1-2.6-2-1.5-.5-2.5-2.9,1.4.8,2.1-.9,1.7,2.4,1.5ZM314.1,177.7l-1.4,1,.2,2.4,2.5,1.2.4,1.9,4.5.5.8-.4-2.6-3.5-.3-3.7,2.2-4.5,2.1-4.8,4.3-5,4.2-2.6,4.9-2.8.9-1.8-1-2.4-2.7.8-2.4,2.2-4.6,1.1-4.6,3.6-3.1,2.9.4,2.4-3.3,4.4,1.3.6-2.7,4.1v2.5ZM305.8,129.8l1.5,1.9,1.6-1.3.2-1.3,1.2-.6,1.9-1.1.5-1.3-2-1.9-1.3,1.4-.8,2-.3-2.3h-2.1c0,.1-2.7,1.7-2.7,1.7l3.1.3-.8,2.6ZM335.4,193.8l.5,3.6-1,2-1.9,1.9-1.9,1.5-2.4,2.7-2.6,2-.9,9.8-.7,4.4-.9,2.5-.9,1.7-1.1,1.3-.3,1.2,1,.9.2,1.1-.8,1.3-1.3.3-1.5.2.6,1.2.6.9.9,1.1.9-.7.9-.6.9.5.3.9-.7.7-.6,1.1v1.3s1,.3,1,.3l.4.9h.1c0,0-.2.2-.2.2l2.2,1.5-.3,1h-1.9c0,0-.4.6-.4.6l-1.8-1.1h-2.2s-1.5,1-1.5,1l-1.6-.9-3-1.5h-2.2c0,0-2.8,2.4-2.8,2.4l-.2,1.6-1.4-1.2-1.1,2.3.4.4-.8,1.6,1.2,1.4h1c0,0,.9,1.3.9,1.3v1c-.1,0,.6.3.6.3l-.6,1.2-1.3.3-1.4,2,1.3,1.8v1.3c-.1,0,1.4,2.2,1.4,2.2l.7,1,.7,1.3h.6c0,0,.4.6.4.6h-1.1c0,.1-.2,1.5-.2,1.5l-.2.6-.5.4v.9s-.3,0-.3,0l-.9-.9.5-.9-.4-.5h-.5c0,.1-1.6,1.4-1.6,1.4h-.5c0,0-.9-.2-.9-.2l-.7-.8-.2-.7-.9.5.4,2-.3.5.8,1.4-.7.3-.5-.4-1.6-.2-.6.3-1.6.3h-.7s-1.6.6-1.6.6h-1.1s-.7-.3-.7-.3l-1.5.5-.5-.3v1c0,0-.4.4-.4.4l-.4.4-.5-.8.5-.6h-.8c0,.1-1.2-.2-1.2-.2l-.9,1-2.1.2-1.1-.9h-1.5c0,0-.3.6-.3.6l-1,.2-1.3-.9h-1.5s-.8-1.7-.8-1.7l-1-1,.7-1.4-.9-.8,1.5-1.7h2.1c0,0,.6-1.5.6-1.5l2.6.2,1.7-1.2,1.6-.5h2.3s2.4,1.3,2.4,1.3l2,.7,1.6-.3,1.2.2,1.6-1,.2-.8-.3-1.3-.8-.7-.8-.2-.5-.6-1.8-1.6-1.6-.7-1.2-1.1,1-.3,1.1-1.6-.8-.8,2-.8v-.4s-1.3.3-1.3.3l-1.1.2-.9.6h-1.3c0,.1-1.2.9-1.2.9v1.2c0,0,.8.5.8.5h1.4c0-.1-.3.6-.3.6l-1.5.3-1.9,1.1-.8-.4.3-.9-1.5-.6.2-.4,1.3-.7-.4-.5-2.1-.5v-.7c0,0-1.4.2-1.4.2l-.5,1.1-1.1,1.5v.5s-.6.4-.6.4l-.4-.2-.4,2.3-.7.8-.5,1.3.4,1.1.2.7,1.2.6-.3.4h-1.6c0,0-.6.7-.6.7l-1.2,1-.4-.8v-.4s-.8,0-.8,0l-.7-.2-1.7.5,1,1-.7.3h-.8l-.7-.9-.3.4.3,1.1.7.8-.5.4.8.8.7.5v1s-1.3-.5-1.3-.5l.4.9-.9.2.5,1.5h-.9s-1.1-.7-1.1-.7l-.5-1.4-.2-1.2-.5-.8-.7-1v-.5c0,0-.3-.1-.3-.1v-.4s-.8-.6-.8-.6v-.9c-.1,0,0-1.2,0-1.2l.2-.6-.2-.3h-.3c0-.1-.4-.7-.4-.7l-.6-.4h0l-1.3-.7-.8-.7-1.3-.6-1.2-1.4h.3c0-.1-.6-1-.6-1v-.7s-.9-.3-.9-.3l-.4.8-.4-.6v-.7s0,0,0,0l.3-.2-1.1-.3-1.1.7v1c0,0,0,.6,0,.6l.5,1,1.3,1,.7,1.6,1.5,1.5h1.1s.3.4.3.4l-.4.4,1.2.7,1,.6,1.2.9v.3c.1,0-.1.6-.1.6l-.8-.8-1.2-.3-.6,1.2,1,.7-.2.9h-.6c0,.1-.7,1.6-.7,1.6h-.6c0,.1,0-.4,0-.4l.3-.9.3-.4-.5-1-.4-.9-.6-.2-.4-.8-.9-.3-.6-.7h-1c0-.1-1.1-.9-1.1-.9l-1.3-1.2-.9-1.1-.4-1.9-.7-.2-1.1-.6-.6.3-.8.9h-.6c0,.1-1.3,1.2-1.3,1.2l-2.7-.5-2,.6-.2,1.1v1.1c0,0-1.2,1.2-1.2,1.2l-1.8.4v.6c-.1,0-1,1-1,1l-.5,1.5.5,1-.8.8-.3,1.1-1,.3-1,1.3h-1.8s-1.3,0-1.3,0l-.9.6-.5.6h-.7c0-.1-.5-.7-.5-.7l-.4-1-1.3-.3-.6.4-.7-.2-.7.2.2-1.3v-1.1c-.1,0-.7-.2-.7-.2l-.3-.7v-1.2c.1,0,.7-.6.7-.6v-.7c0,0,.4-1.1.4-1.1v-.8s-.3-.7-.3-.7v-.6c0,0,0-1.3,0-1.3l-.6-.8,2-1.4,1.7.3h1.9s1.5.3,1.5.3h1.1c0,0,2.2,0,2.2,0l.7-1.1.3-3.9-1.4-2.1-1-1-2.1-.8v-1.5c-.1,0,1.7-.5,1.7-.5l2.3.5-.4-2.4,1.3.9,3.2-1.7.4-1.8,1.2-.4,1.1-.4.7-.6,1.2-3.3,1.9-1h1.1c0,0,.3-.4.3-.4h1.2c0-.1.3.4.3.4l.9-1.1-.3-.9v-1.3c0,0-.6-1.3-.6-1.3v-2.5s.2-.7.2-.7l.4-.8,1.2-.2.5-.7,1.1-.7v1.3s-.5.8-.5.8l.2.7.7.4-.3.9-.4-.3-1,1.8.4,1.2v.9s1.4.6,1.4.6v.8s1.4-.4,1.4-.4l.8-.6,1.6.9.6.7.9-.7,2.2-1.1,1.7-.8,1.4.4v.6c.1,0,1.4,0,1.4,0l.3-1,1.9-.8-.3-2v-1.9s.7-1.6.7-1.6l1.3-.9,1.1,1.9h1.1s.3-2,.3-2l.2-1.5-.5.3-.9-.9v-1.5c-.1,0,1.6-.8,1.6-.8l1.7-.4,1.5.4h1.4c0,0,1.6-1.6,1.6-1.6l-1.4-1.3-2.5.2-2.4,1-2.2.6-.8-1.5-1.3-.9.3-2.8-.7-2.7.7-1.8,1.3-1.9,3.2-3.5.9-.7v-1.4c-.1,0-2.1-1.6-2.1-1.6l-2.4,1-1.3,2.3.2,2-2.2,2.5-2.7,2.6-1,4.1,1,2,1.3,1.5-1.3,3.1-1.4.6-.5,4.4-.8,2.3-1.7-.2-.8,1.9h-1.6c0,.1-.4-2.2-.4-2.2l-1.2-2.9-1-3.7-.9-1.6-2.7,3.1-1.8.6-1.9-1.3-.5-2.9-.4-6.5,1.3-1.9,3.6-2.5,2.7-3.2,2.5-4.6,3.3-6.8,2.3-2.8,3.8-4.9,3-1.8,2.3.2,2.1-3.4,2.5.2,2.5-.8,4.3,3.1-1.8,1.1,1.5,2.5,1.4-1.4,2.3,2.4,3.8.9,5.2,4.3,1.1,1.7v2.4c0,0-1.4,1.8-1.4,1.8l-2.3.9-6.2-2.6-1,.4,2.2,2.5v1.6c0,0,.2,3.3.2,3.3l1.8,1,1.1.8.2-1.5-.8-1.4.9-1.2,3.3,2,1.2-.8-.9-2.4,3.2-3.3,1.3.2,1.3,1.2.8-2.4-1.2-2.1.7-2.2-1-2.3,3.9,1.2.8,2.1-1.7.4v2s1.1,1.2,1.1,1.2l2.1-.8.3-2.3,2.9-1.7,4.8-3.2,1,.2-1.4,2.3,1.7.4,1-1.3h2.6c0-.1,2-1.7,2-1.7l1.6,2.3,1.6-2.5-1.4-2.3.7-1.3,4.1,1.2,1.9,1.2,4.1,3.5ZM296.7,248.1v-.2c0,0,0,.2,0,.2h0ZM253.7,262.3h-.8c0,0,.3.9.3.9v2.2c0,0,.6.5.6.5l.6-.6h.6c0,.1.2-2.3.2-2.3l-.8-1.3-.7.6ZM262,267.2l-1.4.2-1.6-.2-.2.9,1.9.9.7.2,1.1.6.3-.9-.2-.5.5-1.4h-1.1ZM229.9,240.7l2.4-1.3,1-2-.2-1.7.7-1.6-1.5-1.5h-1.2c0,0-1,1.2-1,1.2l-1.9,1.8.7,2.3-1.1,2.4,2,.3ZM277.2,272h-1c0-.1-1.1,0-1.1,0l-.8-.6-.3.7,1.7.3v.3s2-.1,2-.1l.2-.5-.8.2v-.3ZM234,232.3l.7-1.2.5.7-.5,1.1.3.6,1.7.4h0s.9,1.5.9,1.5l-.2,1.3h0l-2.1-.2-.3,1.5.8,1.2-1.4.7.4.9,2.2.4h0l-1.2.5-2,2.3.7.4,1-.8,1.3.2.9-1,.6.4,2.3-.6h1.8s1.2-1.1,1.2-1.1l-.6-1.1.7-.7.2-1.4-1.7-.4-.4-.9-.9-2.7-.9-.4-1.2-2.8v-.3c-.1,0-1.5-.2-1.5-.2l1.2-2.2.4-2.1h-1.5s-1.4.3-1.4.3l1.5-2.8-1.7.2-1.1-.2-1.1,2.1-.5,2.6.7,1.3v2.3ZM254.4,261.4l.5-1.4-.2-1.6-.9.7-.3.7.3,1.2.6.4ZM258.4,233.5l.8-2-.4-1.2-2,.8.2,1,1.4,1.4Z"/>
    <path id="latinAmerica" d="M149,298.9v-.6c0,0,.1-.2.1-.2h1.1s.7.1.7.1l.3.3-.4.4h-1s-.8,0-.8,0ZM135.6,298.2h-.9c0-.1-.3-.2-.3-.2h-.6c0,.1-.2.4-.2.4l.8.5.8.2.4-.2h1s-.2-.4-.2-.4l-.7-.4ZM140.3,298l-1.3-.2v.5c-.1,0,.6.4.6.4l.6-.3h.8c0,.1.6,0,.6,0l.9.2v.4c0,0,.4.2.4.2l.6-1,.5-.2.2.3h.5c0,0,.3-.4.3-.4h.5c0,0,.6,0,.6,0l.7.3.5-.6-.7-.5h-.6c0,0,0-.5,0-.5h-.8s-.3-.5-.3-.5h-.4s-.8-.3-.8-.3h-1.1s-.2.2-.2.2l-1.2-.2h-.8c0,0-.3.3-.3.3l.9.2v.6s.6.6.6.6l-.5.3h-1ZM125.7,293.1l.2-.4h.6s1-.8,1-.8h1.4c0,0-.5.4-.5.4l.5.3,1.8.2.4.3,1.3.4h.8c0,0,.3.8.3.8l.5.4h.9c0,0,.6.5.6.5l-.9.8h2c0-.1.9,0,.9,0h.9c0,0,.9-.3.9-.3l.2-.3-1-.6h-1c0,0,0-.5,0-.5l-.8-.3h-.5s-.9-.6-.9-.6l-1.2-.9-.5-.3-1.3.2-.6-.5-1.3-.5h-1.1s-1.2-.1-1.2-.1l-.3.2h-1c0,.1-.7.4-.7.4l-.6.3-.3.5-.7.5h.6c0,.1.7,0,.7,0ZM133.8,288.1l-.3,1,.5.4.3.9h.3c0,0,0-.9,0-.9l-.5-1.3h-.4ZM134.9,286.1v.8s.2.2.2.2l.2-1.1-1.1-.7v.2s.6.6.6.6ZM134.3,286v-.4s-.9,0-.9,0h-.6c0,.1,0,.7,0,.7l1.5-.2ZM156.2,310h.3c0,.1,1.2,0,1.2,0v-1c0,0-.2,0-.2,0l-.8.2v.6s-.4.4-.4.4ZM160,406.6l-1.2-.6-1.7,1.3.7,1,1.2-1,.6.8,1.9-.7.4-.8-1.1-1-.8.9ZM193.5,333.1l-.5-1.8-.5-.4h-1.2c0,0-1.1-.5-1.1-.5l-1.8-1.5-2-1.1h-2.1c0,0-2.7-.7-2.7-.7l-1.6.4.2-.8-.7-.8-2.3-.8-1.7-.5-1,.9v-1.4s-2.5-.2-2.5-.2l-.4-.4,1-1.1v-.9s-.8-.2-.8-.2l-.8-2.4-.3-.8h-.5c0,0-.2-.5-.2-.5l-1.5-1.2-1-.3-.5-.2-1.5-.4h-1.1c0,0-.1.3-.1.3l-1.7-.3-.5-.5-.7-.7h-.5s0-.7,0-.7l-.9-.9-.9-.5-.5-.3h-.7s-.2-1.1-.2-1.1l-1-.7h-1.1c0-.1-.5-.8-.5-.8l1.2-.4h-1.7s-1.7.1-1.7.1v.3s-.8.4-.8.4l-1.1-.2-.8-.6h-1.5c0,.1-1.2.1-1.2.1v-.5c0,0-.9-.8-.9-.8h-1s-.5-1-.5-1l-.5.4.2.7-1.7.6v1.1c0,0,.5.5.5.5l-.3,1h-.6c0,0-.5-1-.5-1l.6-.8v-.7s-.4-.6-.4-.6l.8-.2v-.3s.3-.5.3-.5l-.4-.4h-.5c0,0-.7.6-.7.6l-.5.3-1.1.7h-1.1c0-.1-.1.2-.1.2h-.9s-.8.7-.8.7l-.3,1.2v.5s-.6.1-.6.1l-1,1h-.7s-.5-.4-.5-.4l-.5-.4-.6-.2h-.8s0-.2,0-.2h-.8c0,0-.5.3-.5.3l-.8.3-.6.3h-.7c0,0-.4-.2-.4-.2h-.1c0,.1-.6,0-.6,0v-.3s-.5-.5-.5-.5l-.6-.6-.5-.6-.3-.8-.2-.2v-.4c0,0,.2-.4.2-.4v-.4c0,0,0-.6,0-.6h.2c0-.1,0-.8,0-.8v-.4c0,0,0-.6,0-.6v-.6c.1,0,.5-.5.5-.5v-.5c-.1,0,0-.3,0-.3h.1c0-.1-.4-.5-.4-.5l-.5-.2-.4-.3-.4-.3h-.2s-.6-.2-.6-.2h-.3c0,.1-.4.2-.4.2h-.3c0,0-.4-.2-.4-.2l-.2.2-.4.2h-.6s-.6,0-.6,0h-.2c0,0-.1,0-.1,0h-.4s-.3.3-.3.3h-.1c0,0-.4-.2-.4-.2v.2c-.1,0-.6-.3-.6-.3l.3-.5h.3s.3-.4.3-.4l.2-.7h0c0-.1.1-.6.1-.6v-.2c-.1,0,.1-.6.1-.6v-.4s-.2,0-.2,0v-.2s.3,0,.3,0l.3.4.3-1.1.2-.6-.3-.3.3-.9.7-.9v-.7s-.3-.3-.3-.3h-.8c0,.1-1.2,0-1.2,0l-1.5.3-.9.4-.2.4v1.2c-.1,0-.4.9-.4.9l-.9.6-.9.3-1,.3h-1.1c0,.1-1.2.6-1.2.6l-.6-.6-1.5-.4-.5-.7-.3-.8-.9-1.1-.3-1.1-.4-.7-.2-.8v-.7c.1,0,.2-2,.2-2l.2-1.1.5-1.3h-.5s-1-.3-1-.3l-1.1-.5-.4-.7-.3-1.1-.8-.9-.5-.9-.7-1.1-1-.6h-1.1s-.9,1.3-.9,1.3l-1.1-.5-.7-.5-.3-.9-.5-.8-.8-.7-.7-.5-.5-.6h-2.4v.7h-3.8s-3.1-1.1-3.1-1.1l-2.1-.8v-.3c.1,0-1.6.2-1.6.2h-1.6c0,.1.6,1.6.6,1.6l.6,1.3.5,1,.5,1,.8.4,1.1,1.1v.7s-.6.6-.6.6h-.6c0,0,0,0,0,0l.8.9.9.4.3.4.2-.2.9.7.7.5.2.8v1.1s.7.4.7.4l1,.7.9.9.4.9h.2s.6-.5.6-.5v-.3s-.5-.7-.5-.7l-.6-.7h-.7s0-.8,0-.8l-.4-.7-.4-.7-.5-1.4-.9-.8-.3-.5-.4-.4-.3-1h-.2s-.2-.5-.2-.5h-.2c0-.1-.2-.5-.2-.5l-1-1.1-.5-.7v-1.2c-.1,0-.4-.8-.4-.8l.2-.7.8.4h.5c0,0,1,.6,1,.6v.6s.5,1.2.5,1.2l.7,1.2v.5c0,0,.7.8.7.8l.8.8h.7c0,.1.3,1.2.3,1.2l.8.7.7.4-.2.9.3.4,1.2.6.7.9,1.4,1.2,1.2,1.5.5.7v.6c.1,0,.6.7.6.7v.5s-.3.4-.3.4v.4c.1,0-.3.1-.3.1l.3.7.7.9,1.5.8.6.7,1.4.5h.8c0,0,.3.5.3.5l1.2.7,1.6.7,1,.2,1.3.7,1,.3,1,.4h.7c0-.1,1.1-.7,1.1-.7h.8c0-.1,1.1.3,1.1.3l.7.5,1.6,1.5.7.6.6.3h.9s.7.3.7.3l.4.3h.8c0,0,.6.4.6.4h.5c0,.1.8.2.8.2l.2-.3h.4c0,.1.2.6.2.6h-.1c0,0-.2-.1-.2-.1l-.2.2.7.6.6.4.3.5.6.6.5.4-.3.3.4.2-.2.4v.4s.2.3.2.3h.4c0,.1.3.5.3.5l.3-.3v-.4c0,0,.3.3.3.3v.4c0,0,.6.2.6.2l.5.3.4.3v.3s-.1.2-.1.2l.3.3.7.3.2.2v-.3h.6l.4.2h.6c0,0,.3.6.3.6h.5c0,0,.2-.2.2-.2l.2.8h.6c0,0,.2-.3.2-.3l.4-.2-.7-.8v-.3c.1,0,.4,0,.4,0l.6-.3.3-.5h.6c0,0,.7.3.7.3l.3.5h.3c0,0-.3.5-.3.5l.3.7.5.4.6.7.2,1.2-.3.4.3,1.3-.3.8.5.3-.5.7-.6.9h-.7c0,0-.3.6-.3.6v.7c0,0-.5.1-.5.1l.2.4-.9.5-.8.3v.6c0,0-.4.9-.4.9l-.3.9-.5.2.2,1.2-.3.4.8.6.5-.6.3.6-.7,1-1.1.9-.4,1,.7,1.3-.4.6,1,.6,1.1.9.4,1,.6.6,1.3,2.8,1.4,2.6,1.2,1.8-.2.4.6,1.2,1.1.9,2.5,1.6,2.7,1.4v.6c.1,0,1.5.8,1.5.8l.3,2v2.4c.1,0-.3,3.3-.3,3.3l-.4,3.1-.2,3-.8,1.9.2,1.9-.4,1.3.3,2.4-.6,2.4-1,2.7-.8,2.8h-.6c0,0,.1,2,.1,2l.4,1.7-.6,1.2-.5,3.4-.4,2.7.9.3.4-2.3.9.5-.7,3.9-1.5-.7-.5,3.2-1.3,1.8,2.1.6-1.5,1.6-.6,2,.2,3.6.7,1.4-.4,1.3.4,1.4,1.7,1.3,1.6,1.6,1.6.8h.6c0,0,.2-2.2.2-2.2l1.2-.8.7-.6h1.2s.6.1.6.1l-.9-1.3-.4-2.3.6-1,1.3-.8.9-2.5,1.6-1.2.5-1.8-1.3-.4-1.4-1.5.4-1.5,1.1-1h1.3s.3-1,.3-1l.2-1.9,1.1-1.2,1.3-.6-.4-1-.8.6-.9-.6-.2-1.8.5-.5,1.3.7,1.4-.3.8-.6-.3-.9.3-1.3-.3-1.1,1.5.2,2.8-.4,2-.9,1.3-2.2v-.8c0,0-.8-.7-.8-.7l.2-1.2-1.8-1.4v-.9c0,0,.9.9.9.9h.9c0,0,1.3.7,1.3.7l.7-.2,1,.3,1.6-.9.6-1,.9-.9.6-1.6.9-.8,1.2-1.3,1.5-2.8,1-.9.3-.8.3-1.6-.2-.9.2-1.1,1.2-1.5,1.6-1.2,1.5-.4,1-.7,2.2-.6h1.5s.3-.9.3-.9l1.1-.6.2-1.5,1.4-1.9.2-1.9.4-.6v-.9c.1,0,.5-2.2.5-2.2v-2.7c0,0,.3-1,.3-1h.3s1-1.2,1-1.2l.9-1.6,1.9-1.9.7-.9.6-2.3-.4-.9ZM148.2,412l-.7-1.7-.5-1.1-1-.3-1.3.9-.4,1.6-.7,1.1-1.8-.8-1.9-1.5-1.1-.5,1.9,2.6,1.4,1.3,1.7,1.3,1.4.3,1,.7.8.2h.7c0,0,1.2-.7,1.2-.7l.5-1,.7.9h1.3c0-.1.6-1.3.6-1.3l-1.9-.6-1.8-1.4Z"/>
    <path id="northAmerica" d="M27.7,296.1l.3.5h0c0,0-.5.4-.5.4l-.4.2-.2.2-.3-.2v-.4s-.2-.5-.2-.5v-.2c0,0,.3-.2.3-.2v-.3c0,0,0-.1,0-.1h.1s.5.3.5.3h.2c0,.1.2.3.2.3ZM26,294.5h-.5c0-.1-.1,0-.1,0h0c0,0,.2.2.2.2l.2.3h.5c0-.1.1-.3.1-.3l-.4-.2ZM7.8,211.6l1-.6v-.3c.1,0-1-.3-1-.3v1.3ZM30.2,225.6l-.7.4-1.3.9.2,1.2.7.6,1.4-1,1.2-1.2-.6-.8-.9-.2ZM21.4,292.6h-.2c0,.1,0,.3,0,.3l.5.3h.2c0-.1,0-.5,0-.5h-.3ZM24.6,294.3h.7s0-.1,0-.1h-.7c0,0-.1.1-.1.1ZM23.6,293.4l-.4.2h0c0,0,.2.4.2.4h.5c0,0,0,0,0,0h0c0,0-.4-.6-.4-.6h-.1ZM12,219.1l-1.4.5.8.7.9.5.8-.4v-1.1c-.1,0-1.2-.3-1.2-.3ZM59.9,235.1l-1.3.2-.6-.3v.7c0,0,.2,1,.2,1l.7.7.5,1,.8,1h.6s-1.2-1.8-1.2-1.8l.4-2.6ZM224.1,116.8l-4.1-1.9-6.7,3.7-3.5,3.4,1.5-5.4-1.1-3.5-2.7,3-4.2-3.4-4.9,1.1-.7-1.8,7.4-1,5.3-.5,2.5-4.1-8.6-9.1-11-1.6-4.9,1.2-1.8,4.4-4.8-.5-4.6,6.7-.2,4.5,3.3,5.3-2.9-3.2-1.9-.8-3.3-3.8-3.7,5.6-1.5-3.1h-4.2c0,0-4.2,1.7-4.2,1.7l-3.3,2.6.6,4.2-2,1-4.8,6.1-1.2,3.3,3.7,2.8-.5,2.8-5.1,3.5-5.2,3.4-.2,2.6,3.1,2.7,5.9,1.7-2.8.3-3.6,2,2.4,3.8,1.6,1.8,3.4-.4,3.7-.2,2.9.4,3.7,3.3v2.3s1.7,2.1,1.7,2.1l1.7,5.4,1.1,3.3.8,1.7-1.5,4.2,1.2,1.1,1.4-.6,1.2,1.5,2.4,2.7-2.8-1.1h-1.3c0,0-.5,2.3-.5,2.3v2.7c0,0,1.8,1.3,1.8,1.3l1.2-.6.8-.6,1.6-1.4-.3,3.1-.5,1.6-2.1,1.4-1.4,4.3.9,1.2-.5,2.5,1.9,3.1.2,2.9.7,2,2.4,3.8.9,2.9,1.3,1.6h2.8s2,2.3,2,2.3l1.9-.2.7-2.7.6-2.4-.6-2.3,2.2-2.4.7-2.1v-2.2s1.2-2,1.2-2l2-.8,1.8-.8h1c0-.1,3-2.5,3-2.5l1.9-3.8,1.4-1.4h1.5s4-1.3,4-1.3l3.8-3,3.7-3.5-1.9-.2-3.6-.2,1.6-2.2-.5-2.9,1.7,2.5,1.1,1.6,2.5-.8-.5-3.4-1.8-2.7-1.9-1.1.7-1.2,2.7,1.9v-2s-1.7-3.2-1.7-3.2h1.9s1.9-.8,1.9-.8l.5-1.7-1.6-2,3.1-.4-1.8-4.5,1.5-.5-.3-4.7-2.5-3.1,2.3-1.9,2.2-.3-1.7-4.1v-7.5s1.1-4.7,1.1-4.7l1.6-5.7-3.2-.4,4.4-1.4.8-1.9,5.6-6.2-.8-4ZM102.3,187.1l-2.5-1.9-2.3-2.1-.4-3-.9-4.4-1.5-1.9-1.4-.8-1.2.7,1,4.7-.7,1.8-1.1-4.4-1.3-1.5-1.6,2.4-1.9-2.3-3.1,1.4.7-2.2-1.4-.9-3.7,2.9-1,1.8-1.2,3.3,2.4,1.1h2.1c0,0-3.2,1.6-3.2,1.6l.7,1.5h2c0,0,2.9-.2,2.9-.2l2.7,1-1.8.7-1.9-.2-2.1.7-.9.4,1.7,3.1,1.2-.4,1.9,1.1.7,1.8,2.5-.4,3.5-.6,2.6-1.3,1.6-.2,2.4,1,2.5.6.5-1.4-.9-1.5,2.3-.3v-1.8ZM106.1,186.6l-1,1.7-1.2,1.2,1.9,1.7,1.1-.4,1.9,1.2.9-1.3-.8-1.5-.4-.8-.8-.7-1.5-1.1ZM111.7,166.2l.8-2-.5-1.7-1.2-1.9-2,1.5-.7,2.4,1.7,1.4,2,.4ZM111.6,178.6l1.5-3.4,1.6-.9,2.1-4.3-2.6-1.2-2.9-.2-1.4,1.4-.7,2.1v2.4s.8,4,.8,4l1.6.2ZM97.5,172.1l-1-1.1-1.9.2-.5.7,2.2,3.3,1.2-3.1ZM103.9,164.6l2.3-.5.6-4.1v-2.9s-1.1-2.7-1.1-2.7v.8c-.1,0-2-.3-2-.3l-2.1,2-1.5-.2v4.4c0,0,2.4-.4,2.4-.4v3.2s1.5.8,1.5.8ZM131.1,209.3l-1-1-1,.2v-1.5c-.1,0-1.7-1-1.7-1l-1.5-1.1-.8-.9-.7.5-.3-1.5-1-.3-.5,3-.2,2.5-1.2,1.5,1.9-.3.5,1.8,2-1.6,1.4-1.7.8,1.4,2.1.7,1.2-1ZM148,186.7l-1.2-1.6-3.3-1.6-1.4-2.7-2.6,1-.2-1.9-1.9-2.1-3.1-2.3-1.3,1.8-2.7,1.3.2-3-2.4-4.9-3.5,2-1.3,3.8-1.1-2.9,1-3.1-3.6,1.3-1.4,2-1.1,4.1.4,4.5h2s-1.4,1.9-1.4,1.9l1.1,1.5,2.2.6,2.9,1.2,5,.9,2.5-.5.7-1.2,1.1,1.4,1.2.2,1.5,2.4-.9,1,2.8,1.3,2.1,1.8.5,1.3.4,1.6-1.8,3.4-.5,1.7.5,1.2-2.8.4h-2.6c0,0-.9,2.5-.9,2.5l1.2,1.1,4-.5v-.9s2,1.6,2,1.6l2.1,1.6-.5.9,1.7,1.5,3,1.7,3.7,1.2-.2-1-1.4-1.8-1.9-2.6,3.5,2.5,1.7.8.5-2.2-.9-3.1-.6-.9-1.9-1.5-1.5-1.9.2-1.9,1.8-.4,2.2,3.2,1.7,1.4,2.4-3.9.4-2.4-2.2-.2-2-3.3-2.2-.8-3.2-2.4,2.5-1.8-1.3-3.7ZM107.7,171.8l-.4-1.4-2.5.6-1.6-1-1.6,2.4,1.5,3.1-2.8-.6v1.5s3.4,3.5,3.4,3.5l1,1.7,1.3.4,2.3-1.7.2-4-2.1-2,1.3-2.3ZM137.9,196.9l.2-.5v-1.6s-1.1-1-1.1-1l-1.3.5-.6,2.1.3,1.8,1.5-.2.9-1.1ZM117.2,121.1l1.2,3.6,2.4,2.9,4.8-.5,3.1,1-2.2,3-1.1-.9-3.8-.3.6,4.1,1.9,3-.4,2.6-2.4,1.7-1.1,2.7,2.2,1.3,1.9,4.2-3.7-2.8-.8.5.7,4.6-2.5,1.4.2,2.9,2.6.3,2.1.7,4.1-.9,3.6,1.6,3.7-3.5v-1.5s-2.4.2-2.4.2l-.2-1.4,1.9-1.9.7-2.5,2.1-1.9,1.3-2.3-1.1-3.5,1-1.3-1.9-.9,4.2-.8.9-1.6,2.8-1.3,2.4-6.6,2.2-2.4,3.3-5.5h-3s1.3-2.1,1.3-2.1l3.3-2,3.4-4.4v-2.8c0,0-2.5-3-2.5-3l-3-1.4-3.7-.9-3-.7-3-.7-4,2-.7-1.2-4.2.5-2.5,1.3-1.8,1.8-1.1,5.8-1.5-2.9-1.7-.6-2,3.9-2.7,1.6-1.6.3-2.1,1.9.3,3.3,1.6,2.7ZM131.8,215.6l.5-1.5-.3-.6h-.6c0,0-.5.8-.5.8v.2c0,0,.3.9.3.9l.6.2ZM125.8,213.2l.3.8h1c0,0,1.6-1.6,1.6-1.6v-.6s-1.9,0-1.9,0l-1,1.4ZM120,167.3h2.8c0,0,4-.9,4-.9l1.8.6,2.1-1.1.9-1.4-.3-2.2-1.5-2.1-2.2-.4-2.8.5-2.2,1.2-2-.5-1.9-.2-.9-1.3-1.6-1.3.3-2.2-1.2-2h-2.7s-1.5-1.9-1.5-1.9l-2.8-.4-.5,2.5,1.6,1.8,2.9.7,1.4,2.5.2,2.8.5,2.9,3.7,1.7,2.2.6ZM89.6,148.3l.5-2-1.9-1-2,.7-1.1,2.1,2,2.1,2.6-1.9ZM168.4,247.1l-1,.4.4-1.5-1.4-.6-.6.5-1.2-.6.5-.7-.9-.5-.9.7.9-1.9.7-1.4.3-.6h-.6c0,0-1.2.7-1.2.7l-.9,1.2-1.4,3.4-1.2,1.3.6.6-.9.7.2.6h2.7c0,0,1.5,0,1.5,0l1.3.5-1,.9h.8c0,0,1.6-1.7,1.6-1.7l.4.3-.3,1.7.9.4h.6c0,0,.6-1.9.6-1.9l-.4-1.3-.2-1.1ZM71.8,183.4l3.6-2.1v-1.9l1.7-3.2,3.4-3.3,1.7-1.2-1.5-2.1-1.3-1.5-3.5-.3-2-1.1-4.7.8,1.3,3.1-1.2,3.2-1,3.4-.6,1.9,3.2,2.3.7,1.9ZM153.8,251.5l-.5-1-.5.6.3.7,1.8.8h.5c0-.1.7-.9.7-.9h-1.3c0,0-1-.2-1-.2ZM158.3,252l.9.7-1.7,1.3-3.1,1.2-1.4.8-1.5,1.4h-1c0-.1,0-1.8,0-1.8l2.4-1.6h-2.2c0,0-1.5.3-1.5.3l.2.6-1.5.9-1.4.7-1.5.6-.7,1.1-.2.4v1s.4,1,.4,1h.6s-.1-.6-.1-.6l.4.4v.5c-.1,0-1,.3-1,.3h-.7s-1,.3-1,.3h-.6c0,0-.8.2-.8.2l-1.2.5,2-.3.4.3-1.9.5h-.9s0-.2,0-.2l-.4.5h.4c0,0-.3,1.4-.3,1.4l-1,1.4v-.5c-.1,0-.4,0-.4,0l-.5-.4.3,1,.3.3v.7s-.4.7-.4.7l-.8,1.4h-.1c0,0,.4-1.3.4-1.3l-.7-.7-.2-1.5-.3.8.3,1.1-.9-.3.9.6v1.6c0,0,.5.1.5.1v.6c.1,0,.3,1.7.3,1.7l-.9,1.2-1.4.5-.9,1h-.7c0,.1-.7.7-.7.7l-.2.6-1.5,1.1-.8.8-.6,1-.2,1.1.2,1.1.5,1.4.6,1.1v.7s.7,1.8.7,1.8v1s-.1.6-.1.6l-.3.9-.4.2-.7-.2-.2-.7-.5-.3-.7-1.3-.6-1.2-.2-.6.3-1-.4-.9-1.1-1.3-.5-.2-1.4.7h-.2c0,0-.7-.8-.7-.8l-.9-.4-1.6.2-1.2-.2h-1.1c0,.1-.6.4-.6.4l.3.4v.6s.3.3.3.3l-.3.2-.5-.2-.5.3h-1s-1-.9-1-.9l-1.2.2-1-.4h-.9c0,.1-1.2.5-1.2.5l-1.3,1.2-1.4.7-.8.7-.3.7v1.1s0,.7,0,.7l.3.5h-.5s-1-.3-1-.3l-1.1-.5-.4-.7-.3-1.1-.8-.9-.5-.9-.7-1.1-1-.6h-1.1s-.9,1.3-.9,1.3l-1.1-.5-.7-.5-.3-.9-.5-.8-.8-.7-.7-.5-.5-.6h-2.4v.7h-3.8s-3.1-1.1-3.1-1.1l-2.1-.8v-.3c.1,0-1.6.2-1.6.2h-1.6c0,.1-.2-.7-.2-.7l-.9-.9-.6-.2-.2-.5h-.8c0,0-.5-.5-.5-.5l-1.3-.2-.3-.3-.2-.9-1.3-1.7-1.1-2.4v-.4s-.6-.6-.6-.6l-1.1-1.5-.2-1.4-.7-1,.3-1.5v-1.6s-.5-1.4-.5-1.4l.5-1.8.2-1.7.2-1.8-.3-2.7-.4-1.7-.4-1,.2-.4,2,.7.7,1.9.3-.5-.2-1.7-.5-1.7h-.2s-2.7-2.1-2.7-2.1l-1-.9-2.5-.9-.8-1.9.2-1.4-1.8-1-.2-1.9-1.7-1.7v-1.2s-.8-.9-.8-.9l-1.2-.8-.4-2.1-1.8-2-.7-2.4-1.3-.2h-2.2c0,0-1.6-.8-1.6-.8l-2.9-2.8-1.3-.5-2.4-1-1.9.2-2.7-1.3-1.6-1.2-1.5.6.3,1.9-.8.2-1.6.6-1.2.9-1.5.6-.2-1.6.6-2.7,1.5-.9-.4-.7-1.8,1.6-.9,1.9-2,1.9,1,1.3-1.3,1.9-1.5,1.1-1.4.8-.3,1.1-2.2,1.3-.4,1.2-1.6,1-.9-.2-1.3.7-1.4.8-1.1.8-2.4.7-.2-.4,1.5-1.1,1.3-.7,1.5-1.3,1.7-.3.7-1,1.9-1.5.3-.5,1-.9.2-2,.7-1.6-1.6.8-.4-.5-.7,1-.9-1.3-.4,1-.5-1.3-1.4,1.1h-.8v-1.6c-.1,0,.1-1,.1-1l-.9-1-1.8.5-1.2-1.3-.9-.7v-1.6s-1.1-1.2-1.1-1.2l.5-1.7,1.1-1.7.5-1.6,1.1-.2.9.5,1.1-1.5,1,.3,1.1-1-.3-1.4-.8-.6,1-1.2h-.8s-1.5.7-1.5.7l-.4.7-1.1-.7-2,.4-2-.8-.6-1.3-1.7-1.9,1.9-1.4,3.1-1.7h1.1l-.2,1.7h2.9c0-.1-1.1-2.3-1.1-2.3l-1.7-1.3-1-1.8-1.3-1.6-1.9-1.2.8-2h2.4c0-.1,1.7-1.9,1.7-1.9l.3-1.9,1.4-1.9,1.3-.5,2.6-1.9,1.3.3,2.1-2.3,2.1.9,1,1.9.6-.8,2.3.3v1c0,0,2,.7,2,.7l1.4-.4,2.9,1.3,2.7.4,1.1.5,1.8-.7,2.1,1.2,1.5.6,2.6,1,2.2,1.9,1.4.4,1.2-1.6,1.7-1.2,2.1.5,2.1-1.7,2.3-1,.9,1.7,1-.9.3-1.9,1,.4,2.3,3.6,1.8-2.7.2,3,1.7-.6.5-1.2,1.7.2,2.1,1.7,3.2,1.4,1.9.6,1.4-.2,1.9,1.9-1.9,1.8,2.5.8,3.7-.4,1.2-.6,1.5,2.2,1.5-1.8-1.4-1.6.9-1.3,1.7-.2,1.1-.4,1.1.9,1.4,2,1.5-.3,2.4,1.6,2.1-.6h2c0,0-.2-2.2-.2-2.2l1.2-.7,2.1,1.3v3.4s.9-2.9.9-2.9h1.1c0,0,.6-3.7.6-3.7l-1.5-2.4-1.6-1.6v-4.6c.1,0,1.7-3.2,1.7-3.2l1.8.7,1.4,1.9,1.9,4.7-1.2,2,2.6.8v3.9s1.8-3,1.8-3l1.6,2.5-.4,2.8,1.3,2.4,1.4-2.6,1-3.2v-4.3c0,0,2,.3,2,.3l2,.6,1.9,1.9v1.9c0,0-.9,2-.9,2l1,2-.2,1.7-2.7,2.4-1.9.5-1.4-1-.4,1.7-1.3,2.8-.4,1.4-1.6,2.2-2,.2-1.1,1.3v2c0,0-1.7.4-1.7.4l-1.7,2.4-1.5,3.2-.5,2.2v3.2c0,0,2,.4,2,.4l.6,2.5.6,1.9,1.9-.5,2.6,1.1,1.4,1,1,1.2,1.7.7,1.5,1h2.3c0,.1,1.5.4,1.5.4l-.2,2.1.4,2.3,1,2.5,2.1,2.1,1.1-.7.7-2.3-.7-3.6-1-1.2,2.2-1.1,1.6-1.7.8-1.7v-1.7c-.1,0-1-2.2-1-2.2l-1.7-2,1.6-2.8-.6-2.5-.5-4.5,1-.7,2.4.8,1.4.3,1.1-.8,1.3,1,1.7,1.7.4,1.1,2.5.2v2.4s.4,3.4.4,3.4l1.3.4,1,1.6,2-1.5,1.3-3,.9-1.3,1.1,2.5,1.8,3.4,1.5,3.1-.6,1.6,1.8,1.4,1.2,1.4,2.2.6.9.8.5,2,1.1.3.6.9v2.6c.1,0-.9.8-.9.8l-1,.8-2.3.8-1.7,1.8-2.3.3-3-.5h-2.1s-1.4.1-1.4.1l-1.2,1.5-1.8.9-2,2.7-1.6,1.9,1.2-.3,2.2-2.7,2.9-1.7,2.1-.2,1.2,1-1.3,1.4.4,2.2.5,1.5,1.8,1,2.3-.3,1.4-2.2v1.3ZM71.2,247.5l-.6-1.2-1.4-.9-.7-1-.5-.7-1.3-.2-.8-.3-1.4-.5v.5c-.1,0,.4,1.2.4,1.2l1.4.4.3.6,1.2.7.4.7,2.3.9.7-.3ZM112.2,149.4l.2-.7-1-1.2h-2.8c0,0,.4,1.7.4,1.7l2.6.4.6-.2ZM76.2,158.3l2.6-2.5,1.3-.3,1.1-2.1.2-4.8-1.9.9h-2.1c0,0-2.8,3.9-2.8,3.9l-2.3,4.4,1.9,1.2,2.2-.9ZM156.3,245.9l-1.4-.9-1.8-.5-.5.2,1.3,1,1.8.7h.7s0-.4,0-.4ZM110.6,136.6h2.5c0,0-1.1,1.9-1.1,1.9v2.6s1.5,2.8,1.5,2.8l2.9.9,2.4-.5,2.5-5.3,1.9-2.2-1.7-2.4-1.1-5.2-2.3-1.6-2.3-1.8-1.8-4.7-3.2.5.6,2-1.4.6-1,2.6-1,3.7.9,3.6,1.5,2.5ZM130.1,172.5l1.5,2.5.4.3,1.5-.6h1.5c0,0,1.5.2,1.5.2v-1.3c-.1,0-2.5-2.6-2.5-2.6l-3.2-.5-.7.3v1.7ZM106.3,145.7l1.1,1.5,2-1.4.4-2.4-1.6-2.4-.8-.5-1.8-.3v2.9c.1,0,.7,2.5.7,2.5ZM97.9,141.6l-1.3,2.1,3.1.3,2.3,2.2,2.3.7-.5-2.8-1.1-3.3-3.7-2.6-2.7-1v2.8c0,0,1.8,1.7,1.8,1.7ZM79.2,162.9l1.9,1,6.2-.6-2.9,2.3.2,1.7h2.1c0-.1,3.5-2.4,3.5-2.4l4.7-.8.8-2.6-.2-2.7-1.4-.2-1.2.9-.5-2-.5-2.8-1.4-.7-1.3,2.2,2,5.4-2.4-.4-2.5-3.3-3.9-2-1.3,1.6-1.9,5.5ZM90.3,142.2l-1.8-1.4-.7-.3-1.4,2.1v1s2.3,0,2.3,0l1.7-1.3Z"/>
  </g>
</svg>