<svg xmlns="http://www.w3.org/2000/svg" xmlns:amcharts="http://amcharts.com/ammap" id="Layer_1" viewBox="0 0 512 512"><g id="_x3C_defs"><amcharts:ammap bottomLatitude="-21.959" leftLongitude="-165.878" projection="mercator" rightLongitude="-157.322" topLatitude="-8.917"/></g><g><path id="CK-1" d="m389.2 10.4-.9-1.2 1.3 1.8zm-.8-5.4 1.1.9 1.4.2-2.5-1Z"/><path id="CK-2" d="m277.7 58.9 1.8 1.5-2.2-1.9z"/><path id="CK-3" d="M273.9 45.7v.4l.7-.6-.7.3Z"/><path id="CK-4" d="M98.6 80.2v-.3l-.8.4h.8Zm-.4-2.2.2-.3h-.6z"/><path id="CK-5" d="m322.3 383.8-.6 1.4.3.9.6-.4.3-1.7.3.4-.4-.6z"/><path id="CK-6" d="m414.2 436-.4-.5h-.9l.3 1.3.8-.2.2-.7Z"/><path id="CK-7" d="m399.5 420.6-1.3 1.5.8 2 .5-.6z"/><path id="CK-8" d="m321.8 477-1.2.4-.6 1.5 3.8.8v-2.1z"/><path id="CK-9" d="m391.4 507 1.5-.5-1.8-2-1.1.9v.9c.1 0 1.3.6 1.3.6Z"/><path id="CK-10" d="m353.8 400.5-.7-.5.7.7h.7l-.7-.3Zm1.5-.1-.6-.7v.7z"/><path id="CK-11" d="M385.6 430.4v-.7c.1 0-2-.7-2-.7l.7 1.6h1.2Z"/></g></svg>