<?xml version="1.0" encoding="UTF-8"?>
<svg id="Layer_1" xmlns="http://www.w3.org/2000/svg" xmlns:amcharts="http://amcharts.com/ammap" version="1.1" viewBox="0 0 512 512">
  <!-- Generator: Adobe Illustrator 29.1.0, SVG Export Plug-In . SVG Version: 2.1.0 Build 142)  -->
  <g id="_x3C_defs">
    <amcharts:ammap bottomLatitude="-21.9591364" leftLongitude="-165.8783468" projection="mercator" rightLongitude="-157.3216064" topLatitude="-8.916606"/>
  </g>
  <g>
    <path id="CK-1" d="M389.2,10.4l-.9-1.2,1.3,1.8-.4-.6ZM388.4,5l1.1.9,1.4.2-2.5-1Z"/>
    <path id="CK-2" d="M277.7,58.9l1.8,1.5-2.2-1.9.4.4Z"/>
    <path id="CK-3" d="M273.9,45.7v.4s.7-.6.7-.6l-.7.3Z"/>
    <path id="CK-4" d="M98.6,80.2v-.3c0,0-.8.4-.8.4h.8ZM98.2,78l.2-.3h-.6s.4.3.4.3Z"/>
    <path id="CK-5" d="M322.3,383.8l-.6,1.4.3.9.6-.4.3-1.7.3.4-.4-.6h-.5Z"/>
    <path id="CK-6" d="M414.2,436l-.4-.5h-.9c0,0,.3,1.3.3,1.3l.8-.2.2-.7Z"/>
    <path id="CK-7" d="M399.5,420.6l-1.3,1.5.8,2,.5-.6v-2.9Z"/>
    <path id="CK-8" d="M321.8,477l-1.2.4-.6,1.5,3.8.8v-2.1s-2-.6-2-.6Z"/>
    <path id="CK-9" d="M391.4,507l1.5-.5-1.8-2-1.1.9v.9c.1,0,1.3.6,1.3.6Z"/>
    <path id="CK-10" d="M353.8,400.5l-.7-.5.7.7h.7s-.7-.3-.7-.3ZM355.3,400.4l-.6-.7v.7h.6Z"/>
    <path id="CK-11" d="M385.6,430.4v-.7c.1,0-2-.7-2-.7l.7,1.6h1.2Z"/>
  </g>
</svg>