<?xml version="1.0" encoding="UTF-8"?>
<svg id="Layer_1" xmlns="http://www.w3.org/2000/svg" xmlns:amcharts="http://amcharts.com/ammap" version="1.1" viewBox="0 0 512 512">
  <!-- Generator: Adobe Illustrator 29.1.0, SVG Export Plug-In . SVG Version: 2.1.0 Build 142)  -->
  <g id="_x3C_defs">
    <amcharts:ammap bottomLatitude="34.565124" leftLongitude="32.271509" projection="mercator" rightLongitude="34.589764" topLatitude="35.695073"/>
  </g>
  <g>
    <path id="CY-01" d="M88,240.2h3.2s.6,1.4.6,1.4l3,.8h0l3,14.7,12.2,3.7h5.9l1.3,1.9.2,6.3,1.5,1.7,11.7,2.8,3-.9,1.5-4.3,2.8-2.2,4.8,5.6,2,.7,8-1.5,3.7-4.3,5-2.4,2.2-5.6,8.7-4.1,2-2.2,2.4-.9,7.2,4.3,4.1.4,8.5-5.7,1.9-2.6,5-1.7,6.5,1.1,2.6,1.7,9.4,10.7,5.2-4.4,6.1-8.9,1.9-.7,7.8,1.7,1.9-4.3,2.6-.4,2.4,1.9,2.4,10.2,6.1,9.4,2.4,16.7-4.1,7.8.2,5.9,2.6.4,10.4-3.1.9-1.9-1.9-5.2.9-2.2,1.5-.4h.2c0,.1,3,8.1,3,8.1v3l-2.8,5-8.1.9-1.1,1.7h-3.7l-.4-1.7-3.1-.9-4.1,2.4v6.8l-21.5-.6-3,6.3-10,4.8-.4-2.8-2.4-.9-4.4.9-8.7-2-3.3,2.2-1.9,3-3.5,1.3h0l-.7.7h0l-9.7-2.9-3.9,1.5-8.1-10.2-7.6-2.8-1.1-2.8-7-.2-6.1,3.5-11.1.9-7.6-2.4-6.3-4.8-7.6,3.3-1.7,2.2-.7,4.6.9,2.6-1.1,2.6h0l-.5.7h0l-1.7-.3-2.6-4.1-1.7-.6-2.8,5.7-1.5.4-3.3-3.9-3.3,4.1-2.6-1.5-1.7-3.1.6-7.8,3.1-3.5.2-2.4-3.3-6.7-.7-7.6-6.7-2-6.1-9.4,6.1-1.9.2-7.2-6.5-7.4-.6-4.1-6.7-6.6h0l3.3-2,4.8-.6,2.7-3.2,1.6,1,2.8-1.6,2.4.2Z"/>
    <path id="CY-02" d="M112.5,315.4l1.1-2.6-.9-2.6.7-4.6,1.7-2.2,7.6-3.3,6.3,4.8,7.6,2.4,11.1-.9,6.1-3.5,7,.2,1.1,2.8,7.6,2.8,8.1,10.2,3.9-1.5,9.7,2.9h0l-.2.2h0l1.5,5.7,1.9,1.7,9.3.9,5.9,3,4.1,5.4v1.8l2.6,2,4.1.9,2.6,10.6.6,11.4h0l-2.1,3.6-2.3.7-14.2-.2-9.6-1.8-5.2,1.3-13.1,5.3-4.9,5.1-1.7-.4-2.7,2.4.3,2.6-1.7-1.1h-7.5c0,.1-6.8,5.1-6.8,5.1l-1.1-1.7,1.8-4.6,10.9-1.1,1.9-3.5-.6-1.3-4.8-2-3.9-.2-7,4.1-8-.2-11.5-10-6.8-.6-2.4,2.2-2.2,5.6-3.5,2.6-3.1-2-1.7.4-.2,5.9-8.3,1.3-2.9,3.4h0l-13.8-5.3h0l.8-12.9,1.7-1.5.4-2.4,5-2.8.9-2.2,7.6-2,3.1-3.9-2-3.1-5.4-3.3.2-2.2,5.2-3.1,3.1-3.7,2.4-5.7,5.6-2.6,2.8-3,.9-2.8-.7-2.2-2.8-.7-1.9-2.6h0l.7-.9Z"/>
    <path id="CY-03" d="M223.4,363.8l-.6-11.4-2.6-10.6-4.1-.9-2.6-2v-1.8l-4.1-5.4-5.9-3-9.3-.9-1.9-1.7-1.5-5.7h0l.9-.9h0l3.5-1.3,1.8-3,3.3-2.2,8.7,2,4.4-.9,2.4.9.4,2.8,10-4.8,3-6.3,21.5.6v-6.8l4.1-2.4,3.1.9.4,1.7,13-2.6,2.8-5v-3l-3-8h0l1.1.8h0l7.2,8.3,2.8-3.7,1.3-6.7,2.2.4,3.7,9.3,4.4-5.9h2.8l10.6,9.1,5.1,2.3h-.3v2h0l-5.5,2.9-3.7,4.7-1.2,3.5.2,1.1.3,3-1.1.8v12.7s-6.4,8-6.4,8l-1.3,5-4.4-1.3-6.8.4-11.2,8.6-.7,2.2-5.5.4-9.3,3.1-2.7,2.9-4.8,1.2-5.1,4.2h-5.1s-4.7,3.2-4.7,3.2h-2s-2.4-1.3-2.4-1.3l-5.1.5Z"/>
    <path id="CY-04" d="M398.4,301.5l-1.1,1.3-1.5-2.2-2.1,1.5-2.6-2.4-5.6-1.7-2.9-2.3-7.2.3-2.6-1.6-2.8.5-.3,1.6-12.6,1.9h0l-5.7.7-6.7-1.9v-2.4l4.6-2.4.4-2-6.1-.2-2.6-1.5,2-3.3.6-4.3h-1.8l-3.7-3,.6-3.5,9.6,3h1.1l.6-1.7h1.3l7.8,1.7,7.2-2,9.1,2.8,5.6-3.3h0l4.1,2.7,6.2,9.2,2.2,1.1-.2,2.4,3.2,4.2-1.8,1.6,1.5,3.6,2.2,1.6Z"/>
    <path id="CY-05" d="M67.3,246.3h3.1s6.7,6.5,6.7,6.5l.6,4.1,6.5,7.4-.2,7.2-6.1,1.9,6.1,9.4,6.7,2,.7,7.6,3.3,6.7-.2,2.4-3.1,3.5-.6,7.8,1.7,3.1,2.6,1.5,3.3-4.1,3.3,3.9,1.5-.4,2.8-5.7,1.7.6,2.6,4.1,1.7.3h0l-.2.3h0l1.9,2.6,2.8.7.7,2.2-.9,2.8-2.8,3-5.6,2.6-2.4,5.7-3.1,3.7-5.2,3.1-.2,2.2,5.4,3.3,2,3.1-3.1,3.9-7.6,2-.9,2.2-5,2.8-.4,2.4-1.7,1.5-.8,12.9h0l-6.3-1.9-4.5-3.8-8-4.1h-5.1s-3.4-2.5-3.4-2.5l-4.5,1.1-9.9-8.1-3.1-.3-4.1-5.4-3.3.2,1.4-3-1.2-4.9-1.5-1.3-1.2-13-1.5-1.9h-2.7c0,0-.3-2-.3-2l-1.3.8-.3-1.5h-2.6c0,.1-1.3-4-1.3-4l-5.4-7,1.9-2.7v-3.8s-2.7-6-2.7-6l-2.3-.7v-2.2s1.5.5,1.5.5l1.1-1.6-.9-1.8.9-6.8-3.9-5.7-1.3.2-3.8-8.2.3-10.7.7-2.6,2-1.7,3.8,3.8.4,2.1,11.7,9.5,9.1,2.2,6.6-1.6,10.6-7.9,5.8-9,3.7-8.9,3.6-2.3,2.3-5.5,1-.4.7,1.7Z"/>
    <path id="CY-GA" d="M371.2,272.4l8.1.4h0l-2.5-1.5-4.5-6.1-2-5.8-1.4-.2.8-.7-1.6-.7h.7s-.4-1.7-.4-1.7l-.5,1.1-1.9-.8-3.3-6.9-1.9-.6-2.8-10.8.7-10.6h0l-12.9,3-3.9-5.7-1.9-8.5-5.7-6.1-1.5-8.7,7.2-4.6,2-13.6h0l-11.9-.5-3.9,1.3-7.6,5.1-2.3.3-5,4.8-4.5,2-2-.4-.7,1.2h0l3.6,2.9,1.5,4.1-5.2,1.9h-7.8l-5.9,5.2-8.1,2.4h0l.2,1.8h0l3.3,2.8-4.4,5.2,2.6,2.6,3,.9-.4,3.7-2.6,3.5-.4,2.6,2.4,2.6.9,6.1-7.4,8.3.9,2,17.2,4.4,2.2,1.8,4.3,5,.7,3.7-2,9.1h0l1.7.7h0l5,.4h0l-.3-.7h0l-1.3-3.1,6.5-5.6,3-.7,1.5.2.2,1.9-2.8,7,4.1-.6,2.6-3,2.2.7,3.1,3.7,2.4-.4,6.8-7.6,13-2.8,2.6-3.7-1.3-4.4,1.8-2.6h3l3.1,2,3,9.3-2.9,4.7h0l1-.3,10.5-2.6Z"/>
    <path id="CY-GI" d="M148.2,186.9l7.5,2.6,6.1,5.3h8c0-.1,7.3,3.4,7.3,3.4l7,.3,3.7-3.8.9,1.3,2.9-.3,7.9,3.5,3.2.3,2.5-2.1h2.2l8.3,3.7,3.2-1.7,3.8,1.6,2.9-1,3.1,1.7,4.6-.2h-.8c0,.1,6,2.1,6,2.1l2.9-.7,2.1.9,1.5-1.2,1.1,1.1,9,.6,8-1.4,3.8,1.2,11.4-3.7h7.4l8.8-3.7,1.2,1.4,8.5-1.2h0l3.6,2.9,1.5,4.1-5.2,1.9h-7.8l-5.9,5.2-8.1,2.4h0v.9h0l-5.6,3.7-8.9-2.2-4.6.4-7,8-.9,3.5-23.7-.2-5-.7-2-3.1-3.7-.2-5.9,2.2-2.2,4.1-2.6-2.6-7.6-3.5-7.2,1.5h-12.6v-.2h0l-5.6-.9-4.4-3-5,.9-3.3-.9-2.6,1.7h-3.3l-9.4-1.8h0l.8-10-.9-9.6-2.8-4.1-.3-12,2.5,1.6Z"/>
    <path id="CY-GU" d="M190.2,246.8l-.8.9h0l-1.1,1.5-2.6.2-3-3.1-11.1.2-7.2,3.7-2.6,3-1.1,4.1-5.2,3.9-9.4,4.1-8-3.7-8.7,7.4-10-10.4-4.6-1.5-5.2-4.4-8.3-1.9-.9-1.5.2-6.3h0l3.9,1.5,1.8-.5,1.3,1.8,8.2,3,2.6,2.6,6.6,3.1,3.2-.7,9.2-5,3.8-4,3.2-6.3,4.7-17.4h0l9.4,1.8h3.3l2.6-1.7,3.3.9,5-.9,4.4,3,5.5.9h0v1.5h0l2,3.1,7,5.9-4.1,7.6.6,2.4,2.1,1.3Z"/>
    <path id="CY-IS" d="M507,107.1l-3.5,6.7.4,4-2.5,3.6-6,.6-.9,1.4h-3.9c0,.1-3.8,3.2-3.8,3.2l-6.2,1.2-9.1,6.8-3.5,9.4-2.1.4-4.5,4.3-4.6,1.4-14.8,13.8-21.2,9.4-11.7,7.8-12.3,13.2-1.2,7.4-2.4,3.3-11.2,1.8-3.5-1.8-4.4.7-4.3,2.5-3.4,3.5-2.6,5.8-4.8,6.2-.7,4h0l-12.9,3-3.9-5.7-1.9-8.5-5.7-6.1-1.5-8.7,7.2-4.6,2-13.6h0l5.1-.3,6.4-2,2.1-2,4.5-.2,2.1-2,3.2.2,3.5-2.7,5.6-.4,10.8-6.4,4-.8,7.6-6,1.7.4,8.1-2.9,6.4-9.3,3.1-1.5,1.7-4.5,3.2,1.5h2.7s1-1.3,1-1.3l1.1,1.6,1.5-1.4,2.1,1,4.1-3.7h2.6c0,.1,3.7-2.4,3.7-2.4l2.2,1,6.5-4.2,1.5-3.4,1.5,1,2.6-2.5v-3.4c.1,0,4.9-.8,4.9-.8l3.6-2.7h5.3c0,.1,6.6-5.3,6.6-5.3l4.9.8,4-2,2.2.3,3-2.6.2-2,4.1,1.5,3-1.9,1.4-2.7,9.5-2Z"/>
    <path id="CY-LE" d="M182.6,225.2h12.6l7.2-1.5,7.6,3.5,2.6,2.6,2.2-4.1,5.9-2.2,3.7.2,2,3.1,5,.7,23.7.2.9-3.5,7-8,4.6-.4,8.9,2.2,5.5-3.7h0v.9h0l3.3,2.8-4.4,5.2,2.6,2.6,3,.9-.4,3.7-2.6,3.5-.4,2.6,2.4,2.6.9,6.1-7.4,8.3.9,2,17.2,4.4,2.2,1.8,4.3,5,.7,3.7-2,9.1h0l-.5-.2h0l-13.1-.9-4.1-2.2-5-5.4-4.8.6-7,5.5-3.7,10-2.8,1.7,4.4-13.3v-6.5l-5.4-6.3-2.6-8.5-5.2-7.4-3.1-9.4-2.2-.9-3.3,1.1-3.1,3.1-9.1,2-3.3,3.1-4.3-.6-4.6,1.9-18.1-8.7-5,.6-5.4,6.5h0l-1.1,1.3h0l-2.1-1.3-.6-2.4,4.1-7.6-7-5.9-2-3.1h0v-1.3Z"/>
    <path id="UN-BZ" d="M350.9,276.1l.7-2.6,2-.9,2-3.3.9,6.7,2.8-.6h0l1.3-.4h0l10.5-2.6,8.1.4h0l1.6,2.4h0l-5.6,3.3-9.1-2.8-7.2,2-7.8-1.7h-.3ZM191.3,245.5l5.4-6.5,5-.6,18.1,8.7,4.6-1.9,4.3.6,3.3-3.1,9.1-2,3.1-3.1,3.3-1.1,2.2.9,3.1,9.4,5.2,7.4,2.6,8.5,5.4,6.3v6.5l-4.4,13.3,2.8-1.7,3.7-10,7-5.6,4.8-.6,5,5.4,4.1,2.2,13.1.9h0l2.2.9h0l5,.4h0l.4.9h0l6.8,6.8.7,4.6-3.1,2.6h-1.7l-5.1-2.3-10.6-9.1h-2.8l-4.4,5.9-3.7-9.3-2.2-.4-1.3,6.7-2.8,3.7-7.2-8.3h0l-1.3-.9h0l-1.5.4-.9,2.2,1.9,5.2-.9,1.9-10.4,3.1-2.6-.4-.2-5.9,4.1-7.8-2.4-16.7-6.1-9.4-2.4-10.2-2.4-1.9-2.6.4-1.9,4.3-7.8-1.7-1.9.7-6.1,8.9-5.2,4.4-9.4-10.7-2.6-1.7-6.5-1.1-5,1.7-1.9,2.6-8.5,5.7-4.1-.4-7.2-4.3-2.4.9-2,2.2-8.7,4.1-2.2,5.6-5,2.4-3.7,4.3-8,1.5-2-.7-4.8-5.6-2.8,2.2-1.5,4.3-3,.9-11.7-2.8-1.5-1.7-.2-6.3-1.3-1.9h-5.9l-12.2-3.7-3-14.7h0l5.7.5h0l-.2,6.3.9,1.5,8.3,1.9,5.2,4.4,4.6,1.5,10,10.3,8.7-7.4,8,3.7,9.4-4.1,5.2-3.9,1.1-4.1,2.6-3,7.2-3.7,11.1-.2,3,3.1,2.6-.2,1.1-1.5h0l1.9-2.2Z"/>
    <path id="GB-AX" d="M98.5,384.6l2.9-3.4,8.3-1.3.2-5.9,1.7-.4,3.1,2,3.5-2.6,2.2-5.6,2.4-2.2,6.8.6,11.5,10,8,.2,7-4.1,3.9.2,4.8,2,.6,1.3-1.9,3.5-10.9,1.1-1.8,4.6,1.1,1.7,6.8-5h7.5c0-.1-2.4,7.9-2.4,7.9v5.1l.5,2.6,5.9,6.7-1.9,1.3-11.6-2.8-2.1,1.4-3.7-.7-3,1.1,1.6-2.1-.6-4.2-3.2-7.3-2.9-4.9-7.7-7.5-5.6-.7-1.2,1.6-4-1-1.1,1.4-6.1-.7-3.8,1.9h-3l-.7,1.5-5.8,3-5.7-.3Z"/>
    <path id="GB-DX" d="M309,280.2l-1.3-3.1,6.5-5.6,3-.7,1.5.2.2,1.9-2.8,7,4.1-.6,2.6-3,2.2.7,3.1,3.7,2.4-.4,6.8-7.6,13-2.8,2.6-3.7-1.3-4.4,1.9-2.6h3l3.1,2,3,9.3-2.9,4.7h-.3c0,0-2.8.6-2.8.6l-.9-6.7-2,3.3-2,.9-.7,2.6h-1l-.6,1.7h-1.1l-9.6-3-.6,3.5,3.7,3h1.9l-.6,4.3-2,3.3,2.6,1.5,6.1.2-.4,2-4.6,2.4v2.4l6.7,1.9,5.7-.7h0l1,1.8-2.2,2.9-7.4,3.2-6-5.3-11.5-4.4-9.3-.6-9.5,1.8h0v-2h2.1l3.1-2.6-.7-4.6-6.8-6.8h0l-.8-1.7Z"/>
  </g>
</svg>