<?xml version="1.0" encoding="UTF-8"?>
<svg id="Layer_1" xmlns="http://www.w3.org/2000/svg" xmlns:amcharts="http://amcharts.com/ammap" version="1.1" viewBox="0 0 512 512">
  <!-- Generator: Adobe Illustrator 29.1.0, SVG Export Plug-In . SVG Version: 2.1.0 Build 142)  -->
  <g id="_x3C_defs">
    <amcharts:ammap bottomLatitude="-52.4496802" leftLongitude="-61.3479996" projection="mercator" rightLongitude="-57.6873744" topLatitude="-51.0115103"/>
  </g>
  <path id="FK-FK" d="M232.4,411l7.5-8.8-14-2.2,7-12.4-17.9,12.5,17.4,11ZM220.4,350.1l4.9,30.8,9.3-21.5-14.2-9.2ZM406.8,319.8l-14.3,4.7,16.6,17-4.7-14.8,8.2-7.6-5.8.6ZM235.4,311.9l-3.5-7.2-2.8,8.5,6.3-1.3ZM17.9,280.5l3-7.5-14.6,6,14,8.5-2.4-6.9ZM67.5,286.7l2.3-22-12.8,20.9-10.8,3,12.3-12-5.9-8.5-23.2,15.5,21.8,24.3,15.3-4.2,1-17.1ZM23.6,249.5l-13.6-1.6-2.9,12.1,16.5-10.4ZM278.5,173.7l-11.5.8,7.6,16.6-13.7,5.2-13-3.7,13.4-10.5-43.7,12.2-4-4.5,9.5-1.6-15.3-9.1-17.1,7.7-3.2-8.6-9.2,15.8,13.2,4.8-22.9,4.5-68.7-30.4,4.7,14.7,29.1,10.4-14.4,3.8.5,8.5,59.2,39.1-19.8-8.8-33.7,10.5-22.8-7,10.4,27,29.6-18.1,22-.4-.5,12.1-15.8-2.4-5.7,24.4-9.4-14,4.8-6.2-10.1,3.1-4.8,29.8-17.6,2.6,27.9-4.1-17.6,20.6-43.6-10.2,14.4,12.2-18.2,4.8,2,7.7-22.4-11.7-2.4,7.7,33.5,28.5,10.4.4-13.3-15.8,18,1.1,5.8,28.2,21-10.5-7.6-17,24.8,10.8,14.5-17.6-1.1-19.8,11.4-5.9-3,8,16.9-1.1,4.2-13.1,9.7,12.2,15-8.3,43.2-68.8,25.2-12.4,3.3-23,22.1-18.2-21-13.1ZM229.5,171.9l-15.7.8,14,4.9.8,8.3,17.6-6.5-16.7-7.5ZM201.4,170.1l2.6-7.9-17.2-1.7,14.6,9.5ZM161.3,162.1l-13.2-7.7,26.4,20.1-19.7-2.1-5,8.1,23.6,4.7,9.7-13.3-3.5-10.4-18.3.7ZM366.4,167.8l-30.7-17.8,11.2,27.5-34.6,15.6,18.6,14.9-7.4.5,1.7,16.4-11.5-18.4-7.8,16.1,24.6,16.4.2,35.3-7.3,3-1.9-29.3-21,4.6-23.5,28.3-15.6,2.7v20.2l-16.3-3.1,11.5,9.1-9.6,4.8,4.8,7.6-10.4-2,7.2,14.6-8.6,10.6-10.9-4.8,13.5,22.8,9.1.8-3.3,6.6,33.6,25.5-1.8-22.7-10.7-5.5-3.8-17.2,7.1,3.1,5.3-9.3,20.2,20.9,19.1,5.5-1.9-13.1,8.7-6.4-16.4-.4,10.7-10.4-17.3-17.1-13.5-.8,3.9-6.5,18.3-1.6,29.6,26.8,19-16.2,20.6,17.6,1.2-31.7-24.8-3.6-22.1-22.2,4-12.9,25.4,21.4,47.2.2,32.4-18.4-23.9,3.1,29.6-7.8-16.2-7.7,37.5-1,36-12.9-22.9-2.9,18.2-8.6-6.2-8.2-34-4.3-12.3-9.9,16.2-1.4-.5-7.2,35.4,8.7,1.4-10.8-19.3-26.4-53.6,10.3-9.5,18.4,7.2-5.1,12.6,9.9-3.4,7.7,9.6,11.5-9-4.3.8,13.5-10-21.4-16.5-1.8-.2-16-13.9,3,2.4-21.4,10.6,12.4,13.2-5.2-7.7-20.8-12.9-7.5-18.1,9.6-17-3.5ZM229.7,151.8l-13.1-.2,35.6,18.2,14.7-3-4.5-12.6-9.3,4.9-4.6-7.3h-18.9ZM34.1,101l-.9,8.3,10.7,3.4-9.8-11.7Z"/>
</svg>