<svg xmlns="http://www.w3.org/2000/svg" xmlns:amcharts="http://amcharts.com/ammap" id="Layer_1" viewBox="0 0 512 512"><g id="_x3C_defs"><amcharts:ammap bottomLatitude="61.395" leftLongitude="-7.681" projection="mercator" rightLongitude="-6.258" topLatitude="62.401"/></g><g><path id="FO-OS" d="m321.3 133.8 1.2.6 6.6 2.7 1.3 1.5.3 1.7.2.8 1.3 1.6h1.9l1.8 2.3 2.8 3.6h.1c0 .1-1.2 1-1.2 1l-4.4 3-.5.3-3 .6h-2.9l-2-1.9 1.3 9.4-.4 1-.2.6-1.7 4 .8 2.9.6 2-.5 2.2-.2.8-1.3 1.5h-1.3l-1.6-.2-7.9-15.6v-.2l-.2-.2-.5-.9.4-3.2v-.1l-1.5-2.8 1.5-3.7v-.3c.1 0 2.9.1 2.9.1l-.4-5.6-2.1-7 .2-1.8-9.7-17.7-.6-.5-3.1-2.4-2.1-1.7-2.7-3-1.7-2-2.2-2.5-3.4-1.3.7 2.3.9 2.7 7.7 8.7 2.4 2.6.3.3 1.9 2.2.2.5 2.6 4.9 1.3 2.4 2 3.7.6 11.6-3 7.7.3 3.3v1.1c.1 0-2.8-1.9-2.8-1.9l-4.1-6.8-5.5-5.7-3.5-1.6-4.7-7.3-2.7-5.9-2.5-2.5-3.7-1.1-1.9-1.5-.5-.4-.9.2-6 1.6-1.1-2.2-.4-.8-.2-.3c0-.1-4.9-5.9-4.9-5.9l-.7-.8-.9-2.2-.5-1.3-3.3-2.3-1.2-.2-2.1-.3-.3-2.8-2.7-7.5.4-2v-.4l-.5-.4-2.5-1.9c0-.1-1.9-3.7-1.9-3.7l-1.6-1.8-1.6-3.7-2.3-1.2V78l-2.5-5.6-.7-1.5-.2-.5-.5-3.9-1.6-5.3-1.9-2v-3.9c.1 0-1.2-2.3-1.2-2.3h-3c0 .1-4 .3-4 .3l.5-2.1.9-4.1 1.9-5.2h.1c0-.1.7-.7.7-.7l1.6 1.4 1.2 1 1.9 3 .3.4 2.1-.6 6.2-1.9 5.1-4.9v-.7l-.1-.4v-.3l1.2-2 4.6-1.1.7-.9 1.7.2.9-1.5h2.4l2.8.2.3 2.1 3.2 1.4 1.5 3 4.3 2.6 3.8 2.3 1.6 2L268 49l-4 3.4-5 4.2 2.4 7.2c0 .1-1.1 8.7-1.1 8.7l3.3 10.3.6.8 1.6-.5-1.8-1.8-2.3-6 .4-2.8 2.1-3.7.9-4.5.3-1.7.7.5 1.9-.5 1.1-1.3 2.1.4 2.4-2.2.7-.7 6.7-.7 4-1.9 1.4.9 3.6 2.3 1 2.6-4.2.9h-.4v.4l-1.7 5.7-.3 1.7v1.2l8-3.3 2.1-.8 1.8 1 7.2 4 1.7 1.7.5.5 1.1 2.6-.3 2.8-.7 1.3-.7 1.4-2.9 2.2-1.7 1.3-2.1.2-3.3-4.4h-.1c0-.1-.9 0-.9 0v.2L297 89l.2.4.6.7.2.2 1.7 1.3L303 94l1.6-.5 2.5-.8 2.9-2h2.2l1.6.6 5.4 5.5 17.8 6.4v1.3c.1 0 .8 7.9.8 7.9l-1.8 1.7-8.7-4.2-3.5-1.7-11.4-2.5-.9-1.4-.9 1.3v2.1h-1.2l.2 4.2 3.5 5.2 2.3.7h.2l1.8-.3 2.2 1.9 4 3.3.6.2 5.6 2.2 6.5 5.5 1 .8.5.2 1.3.7 6.8 3.4.4 2.8-6.1-2-6.4-3.6-12.1-1.1-.2 2.2Z"/><path id="FO-NO" d="M345.7 10.7v-.9l1.4-.8 1.8-1 .9-1.8 1.3-2.6 3.6 1.1 3.1 2.1 1.2.8 4 7.5 1.8 3.3v1.7l-.2 6 4.6 8.2 2.3 1.2 2.6 4.6-.8 5.2.4 5.7 1.8.9.3-.3 2.2-1.7 2.4-8.7 1.9 1.7 7.1 6.5 1.5 1.4-5.6 7-1.2 3.6v.5c.1 0 .5 1.9.5 1.9l.3 1.4-20.6-6.5-3.5-11.7-.6-2.9-.8-1.5L357 38l-2.2-7.2v-.3l1.6-6.6-.4-3.8-.4-.6-.9-1.4-7.3-3.5-1.8-2.3v-1.6Zm72.5 45.4-2.1-1.2-1.8.4-.9.2h-.2l-3.7-2.9v-1.9c-.1 0-4 1.4-4 1.4l-2.9 3.9-3.2 6.6-.2.4-3.7-.4h-1.3c0-.1-2.4.7-2.4.7v.1l-1.4 1.5-.9 2-.3.7.3 2 .2.9 2.3 1.6 2.4 3.3 1.2 3-.2 3.7.2.6 1.4 3.9.3.8.6-.3 6.5-2.8 2.5-.5 2.3-.4 1-1.3.8-1-.5-1.5.8-2.4-.3-1.9 2-4-6.9-5v-2.9l1.1-.7 4.4.2h1.7l5.3 1.4v-.4l-.4-7.9Zm-71.9 20.6V71c-.1 0-.1-.3-.1-.3l-2.2-4.8-.5-1.1-2.2-11-5.1-9.1-6.6-11.8.6-2.8-.9-1.9h.1l.9-.9-1.1-5.2-1.5-.2h-1c0-.1-.8-1.9-.8-1.9l-3.5-.7-2.5 5.2.8 6.4-1.4 5.7 2.2 6.8.2 3.7v.5l.3.4 3.3 5.8 1.6 2.7 2.3 6.6v.3c.1 0 1.2 2.1 1.2 2.1l1.5 2.9 2.7 5.3 1.4 2.8 7.8 1.7 2.4-1.6Zm34.3-2.2-3-4.4-4.7-1.3-4.4-3.3-4.4-4.6-1.7-2.5.6-2.6-2.7-7.6-3-4.4-4.4-6.4-1.7-3.5-1.2-8.3-.7-1.4-.9-1.8h-1.5c0 .1-2 .3-2 .3l-2.5 2.6-.6 2.1-1.1 3.9 2.6 6.1v.2l-.1 2.7v.2l4.3 9-.5 14.4 1.8 5.5v.5c.1 0 .5 3.5.5 3.5l-.7 4.6-.5.8-1.8 3 .2.6 1.6 5.8v.5l-.1 1v.6l-2.7-1.4-1-5.5h-5.9l-.3 1.9.9 3.4.4 1.6v.5l-.1 3.4.8 2.5 2.1 1 2.5 4.4.5 1 4.9 8.7 1.8 1.5 1.5 1.3 3.4 5.7.8.2 1.1.3.3-.8.3-.8-.4-4.8v-.2l-.2-.4-2.6-4.8-1.2-2.1.5-3-1.1-1.4-2-6-1.8-1.8.8-2.2 1-.2.9-.2 2.8 3.2 1.7 2 .9 3.1 1.3 4.3 2.9 4.1 2.9 2.3 2 4.2h1.2l9.8.6 1.9-2 .3-1.6.2-.7v-.6c.1 0-.8-1.1-.8-1.1l-1.2-1.5.9-6.3v-.8l-.7-5.4-9.1-2.4-4.3-4.8-4.5-6.8-1.4-4.1-.4-1.2.5.2 1.6.5 1.8.6 4 4.5 5.2 4.3 1.9 1.5 9-1.8.3-.4 1.1-1.4.6-6.2.2-1.7-2.5-2.5-2.6.5Zm-55 3.5-2.1-3.4-1.7-5.2-.2-.5-1-3.2-1.1-3.4-.4-1.3-7.1-12.2-1.3-2.2-2.5-4.3-.2-.7-.6-2.8-2.5-5.2-2.1-10.1-1.6-.3-.3-.4-4.9-7.6h-2.7l-.7 4.8 1.9 6.9.4 1.3.2.7.3 2.1v.4l5.2 13 1.9 4.9.4 1.1 1.6 2.9 5.5 9.9 1.5 1.4 2.9 2.6 2 3.6-.5 13.4 1.3 2.6 5.5 4.6 3.2 1.6 3.4-1.6.6-2.9.2-.9-1.4-7.5-3.4-2.1Zm97.3-47.6-2.5 1.1-2.8.4-1.7.2-1-.7.9-1.4.4-.6-.2-.5-1.1-2.1-3.9-.4-1.5-.2-1 1.9-.4.7-.4.8v1.2l-.4 7.3 3.6 6.3.2.4h.7l3.8-.6 2.5-.3 1.3-.8.5-.9 1.5-2.6v-.2l2 .6.3-.9.2-.5.5-3.8-1.6-4.5Z"/><path id="FO-SA" d="m311 361.8.3.6-.8.5-2.6-.7-2.6-.8-.2-4v-1.9c-.1 0 0-.6 0-.6l.2-1.4.2-1.5 2.1 1 2 2.5-.2 2.8zm-12.2-33.5-.7-3.1v-.4c-.1 0-3.5-9.3-3.5-9.3l-2.1-2.1-3.7-1.1-2.1.4-.7-.5-1.3-1v.5c-.1 0-1.3 3.9-1.3 3.9l.3 6.9 3.4 3.7 2.2 2.4 1.4 1.5 1.2 1.3 7.2-1.5-.3-1.3Zm37-38.9-.9.4H331c0 .1-2.4-5.3-2.4-5.3l-1.7-1.6-1.8-1.7-1.1-3.5-3-3.7-4.3-.7-4.5-2.2-.7-1.5-.3-.7h-.3l-3.9-.2-.3-.2-6.7-3.9c0-.1-.2-.7-.2-.7l-1.4-4.8-1.1.2h-.9c0 .1-1-1.6-1-1.6l-.9-1.6-.5-.2-1.4-.6-2.7.8-3.2-1-.8-.3h-.3c0 .1-2.8 1.3-2.8 1.3l-.5-.8-3.2-5.2-.6-.2-1.8-.5-4.8.8h-.1l-1.6-.5-7-2.2-.8.2-.9.2 1.2 2.9 1.4.4 1.5 3.5 2.1 2.2v2.8c.1 0 2.2 1.7 2.2 1.7l-1.3 2.7-.2.4 1.8 2.5.2 4.4 1.4 2.6.5 3.7 1.9 1.2.9 3.1-2.5-.7-.6-.2.3.6 3 7.1 1.8.7 1.1 4.2h.5l1.7.4.5-1-.5-1.3 1.9-3 1.6.2 5.9-2.1h.2l1.2.2.8 2.9 1 .9 1.8 1.7v-1.8c-.1 0-.3-3.3-.3-3.3v-1.3h.2l1.9-.2 6.6 3.3 1 .5v1.9l3.2 9.4.3 4.1 2.9 4.4.1.4 1.5 4 2.7 2.3 1.7 3 2 .4 1.6 4.3 2.5.9.7 2.1 1.3 1.1h2l1.5-3 1.7-.2-.4-1.2 1.8-1.7-1.2-2.3-2.9-5.6-1.7-1.3 2.5-1.6 2.7-1.7v-2.1l-.2-5.5v-.2l-2.1-2-.7-.7h-.1c0-.1 1.6-1.8 1.6-1.8l1-.5 4.4-2.4.2-2.5c0-.1.3-.8.3-.8l1-2.5h-.4Z"/><path id="FO-ST" d="m341.2 226.7-.9 2.8-1.8 1.7-1.1-1-1.8-1.6-.2-.2-.9-1.3-.5-4V222c-.1 0-.6.1-.6.1l-.8.2-2.4-3.9-.8-1.3-1.9-.6-.9-3.4-.2-.6v-.5l1.3-7.1-.3-2.1-4-7.9-.2-.3.8-.3 3.9 3 .2 1.3v1c.1 0 .4 1.6.4 1.6l2 3.1 3.7 3.8v.2c.1 0 .7 3.1.7 3.1v.4l.8.3 1 .4.4.2v2.4c-.1 0-.3 2.7-.3 2.7l1.4 2v.2c.1 0 2.8 3.9 2.8 3.9l.2 3.1Zm-28.7-3.9-.4-2.4 1.3-4.5-.3-1.7v-.2l-5.5-3.4-1.1-.7v-.3c-.1 0-1.5-3.4-1.5-3.4l-2.2-2v-.2l2.4-5.1h.8c0 .1.9-1.6.9-1.6l1.7-.9-1.1-5.6 2.1-1h.2l-.5-.4-1.5-1-1.7-7.1-.3-1.3-4-.2-.6-.3-3.4-1.6-8.6 1.8-8.6-4.2-4.1-.8-2.8-2.2h5.6l3 1.1h.2l4 1.6 4.9-2.2h.3c0-.1 5-3.6 5-3.6l-7.3-14.5-2.4-4.8-3.7-1.2-2.7-2.4-3.3-.9-2.4 1.3-3.4 3.6-5.8 1.6c0-.1-1-2.4-1-2.4l4.1-.6 3-2.9 2.1-2.1 3.6-.7 2.4-1.8.4-3.5v-.5l-1.1-1.1-1.8-1.8-1.3-2.7-.8-1.7-2-1.5-2.2-1.7-1.7-1.3-3.9-.8-2.1-.5v-2.6l-3.1-3.4-1.7-1.6-2.7-2-4.3-3.4-.5-.4-4-1.7-3.7-1.6v-2.4l3.7-.3v-.2c.1 0 1.1-1.4 1.1-1.4 0-.1.1-2.9.1-2.9l-4.2-7.2-3.7-2.9-.4-.6-1.7-2.9-4.3-7.5-.6-1.6-3.7-12.2-5.8-10.2-.6-.3-4-1.6h-.2c0 .1-2.7 2.2-2.7 2.2l-1.3 1 .2-3.9-.2-.3-.6-1-2.2-1.2-3.2-1.8-1.7.5h-.1l-3 4.4-.8.2-.6-2-4.3-1.3-.2.7-.8 2.2h-1.4l-.4 2.3-1.1 1.4.9 1.6.2 1.5.4 3.8-1 1V69c-.1 0-1.7 2.1-1.7 2.1l-.2 2.6.5 2.1.4 2 5.2 2-2.9.8-1 4.7-.2 1.3-2.1 10.7-2 3.7 1.4 1.9-2.5 4.7-.9 4.7-.7.3 3.6 2.6 2.6 3.3 4.3 7.9 2.6 2.2 4 1 1.7.4 1.8 3.3 1.1 2 1.2 4.1h.1c0 .1 5.8 5.2 5.8 5.2h.1v.1h5.6l4.6 1.3 2.4.7.7-1.2.4-.8h.3c0 .1 2.9 1.4 2.9 1.4l4.5-1.5.5-.2v3l1.2 1.2.8.8 4.9 4.7 1.4 4.2.2.3 1.8 2.7.2 1.4.9 8.5-.4 2.2-.9 5.1 1.4 2.5 1.1-1.1.5 1.9.6 2.4 2 .6h.2l3.4-1.4h4.9c0-.1 1.3.5 1.3.5l.8.3.6 1.4 2.7 5.9.3 2.2 1.2 8.6 1.4 1.2 2.3 2 3 1.3 1.4 2.3 1.8.5 3.7 4.3 6.8 7.9 3.5 4.1 3.6 3.3 2.8 1.6 3.6 3.8h3.6c0 .1 1.8 1.1 1.8 1.1l.4-.4 3.7-3.8-2.5-7.4.8-1.5ZM257.4 210l-.4-1.1-3.6-3.8-.6-.7h-.1c0-.1-1.4-1.6-1.4-1.6l-3.6-.5h-.2l1.7 4.5.5 1.5 5 3.5 4.7 5.4h1l-.3-.6zm18.9 16.1-1.2-1-.2-.8-.4-1.5-2.8-1.9-2.1-.4h-2.5l-1 .8v.2l1.5 4 2.2 1.8 3.1 4.6.9.4 1.2.5.3.6.4.8 1.7 3.4v.2h.3l1.9.3 1.2 1.4.2.2v-.2l.5-1 1-.9.4-.4-4.1-9.3-2.4-1.9Z"/><path id="FO-SU" d="m327.1 498.2-1.4 10.3-1.1-1.5h-1.2l-1.3 1.5-1.8-3-3-2.3-2.7-1.3-5.8-2.8-2.9-3.8-.2-.8-1.7-6.2h-.3c0-.1-1.2-.7-1.2-.7l-6.5-6.2-2-1.9-2.4-2.3-1-.3-1.2-.4-.5-.7-.8-1.2.8-1.6-.4-.2-1.2-.7h-2.5l-.8-1.4-2-3.5-2-.4h-.6l.3-.6 1.2-2.1-1.1-.4-.3-1.8.6-1.8-3.3-4.4h-1.7l-.4-.1v-.2l-.4-1.8-.6-2.7-.3-1.8 1.9-3.7.5-3.4v-.7c.1 0 .4-1.7.4-1.7l-3.2-3.2-4-3.1-.2-2-.5-2.6-2.1-1.8v-2.4c-.1 0-1.2-2.4-1.2-2.4v-.2l-2.3-2.1-.9-.8-3.4-1.7-2-2.9-2-1 1.5-1.8.6-2.5 1.8-1.5-4.9-2.2-.4-1.6-2.4-2.2 1.7-1 .6-.4.7-.4 1.1-1.4-3.1-1.9-.4-2.6-2.1-2.2 2.7-1.7.9-1.9.2-.4.2-.4 2.6-.7-1.4-4.7.2-.2.8-1 4.2-.9 9.5-1.9.8.7 4.6 3.5-.2 2.3-5.2 3.4-.7 3.1h3.2l3.3-1.2 2.4.4.8.7.3.2-2.8 1.4-7.2 6-1.2 2.7-5 1.6 1.4 2.7 3.4-2.1 1.1.8 8.4-1.7 3.2.7 4.7-.9 1.5 1.4 2.5 2.3-.7 2.8 1.6 1.2.6.4.2 1.8v.6l.1.8 2.2.6 3.1.9 2.1-1.6 5.7.5 4.3 1.6.7.2.2 1.2v.3l.3 1.5-1.4 3 2.4 1.9.8.6.8.7.3 1.6v.8c.1 0 .2.4.2.4l-1.7 1.1h-.2c0 .1-1 2.6-1 2.6l-1.9-.2-1.6-.3-1.2-.2h-.4l-.4.3-1.2 1.1-.5.5-1.2-1.7-2.4-3.3-6.4-3.6-1.3-.7-1.3-.7v.2l-.7 1.6 9.4 6.9.4 1.6.8 1 4.3 2 .4.2 3.6.4 2.9 2.5v.3c.1 0 2 3.2 2 3.2l.5.9-.3 1.9v.6c-.1 0 0 .3 0 .3l.4.7 1.3 2.6.5 1.1-7.7.3.5 1.7v.4h.1l.2.2.5.7.6.8 1.3 1.7 1.2 1.1 1.8 1.5 4.2-1.5 1.4.4.5 1.2.2.5-1.2 1.3-2.4.7-.5.7-.4.6h-1.5c0-.1-.8-.2-.8-.2l-.8.9-1.7.2-1.4 2.3-1.4.8-.8.5h-3.4l-2-1-3.7-.3-1.7.8 3.2 2.6 2.7 3.4.5.7.8 1-.5 1.2.4 2.3.3 1.9c0 .1 1.8 0 1.8 0l.8-4.1.9-1.1 7.3-2.6 1.9.3.7.7.3.3-2.2 7.7c0 .1 1.2.6 1.2.6l5.9-1.8h.2l.8 9.1-.5 1.8-.2.6 2.8 1.7.5.3 1.7 4.1ZM321 388.3v-1.6c.1 0-2.8-1.1-2.8-1.1l-.8-.3-1.5 1-.4 1.6-.3 1.3 5.7-.4v-.5Z"/><path id="FO-VG" d="m146.7 163.3 3.9 2.7-6.3 1.2v-2.5l2.4-1.5Zm88.5 1.3-3.4-7.8-3-1.6-11.1-.6-4.4-6.6-2.7-4.1-.8-1.1v-.1l-1.7-1.1-4.3-2.8-9-4.3-1.7-2.5v-.7l-.6-4.1 1.1-.8-.3-1.9-1.1-.2-1.8-.4-14.2 6.9-3.3 1.6-3.6.2v5c-.1 0-1.1 2.7-1.1 2.7l-.5.9-.3.5-1-.2-3.8-.7h-.5l-4.7-.9-2.5-3.7-2.4.2-7.3-5.5-1.2 1.2-2.4-.9-.9 1.6.2.7.7 2.4-.7 1 .9 2.3-1.1 1.2 1.2 2.5 2.8 2.2v.5l.3 1.9 1.2.8 2.4 5.4 2.5 2.3h3.9l-1.2 1.5 3.3.6 1.8 2.1 1.7-1.1 2 1.1 2.1 1.2 3 .9 5.3 1.5 1.8 3.4v.5l.4 1.4.2.8-3.1-1.2-3.4-1.4-1.4.6-.9.4-1.8.8h-.3c0 .1-.5-.5-.5-.5l-2.8-3.3h-.2l-2.3-.5-5.4 3.2 1.5 1.5-.3 1.9 3.9.8v3.1l1.7.7 5.4 2.2 3.6-.5 2 2.2h.1c0 .1 2.6-1.9 2.6-1.9l2.7 3.4 5.5.5 2.8 3.3 3.3.6.2.5.7 1.9 2.3 2 2.1 1.8.7.8h.1c0 .1 1.3 1.6 1.3 1.6l.3-.2 1.7-1h.2c0-.1 4.5.8 4.5.8l1.1-.8 1.8-1.3 1.3-.9 2.3-1.6h.5l2.5.5 3.9-4.3-2.9-2.9-1.8-.5-1.2-.3-1.7-.5-2.5-1.7h1.3v-.1l2.9-.3 2-.2 2-3.7.2 1.3.4 2.1 1.2 1.2 2.5.5 1.7-.2 1.8-.2 2.1-.2 1.7-.2 1.6 1.8 3-.2.6-1.6.9-2.2.5-6.8 3.8-4-.4-2Zm-114.1-10.2-5-5.4-2.5-1.1-1.9-2.4-4.2-.2-3.7 2h-1.4l-.9 1.1-.9 1.2h-3c0 .1-.2.2-.2.2l-2.8 2.2-5.9 2.4-1.1 1.8 3.2-.2 1.3-.8 2.2-1.3 2.6-.4 4.9 2.1 6 .4h1l3.8-.9 2.3 1.7 2.3.5 7.6 1.6-.8-3.9-3-.7Z"/></g></svg>