<?xml version="1.0" encoding="UTF-8"?>
<svg id="Layer_1" xmlns="http://www.w3.org/2000/svg" xmlns:amcharts="http://amcharts.com/ammap" version="1.1" viewBox="0 0 512 512">
  <!-- Generator: Adobe Illustrator 29.1.0, SVG Export Plug-In . SVG Version: 2.1.0 Build 142)  -->
  <g id="_x3C_defs">
    <amcharts:ammap bottomLatitude="-23.500" leftLongitude="-180.000" projection="mercator" rightLongitude="-178.250" topLatitude="-14.500"/>
  </g>
  <g>
    <path id="FJ-N" d="M128.2,86.9l9.5-16.4-10.5-16.8-21,19.4v31.7l21.9-17.9h.1ZM106.2,29.4l13.3-7.8-2.6-3.6,6.8-8.5-16,8.2-1.5,2.5v9.1h0Z"/>
    <path id="FJ-E" d="M352.3,491.9l-3.8-1.3-2.6,3.1-.5,3.5,10.8,5.3.6-3.6-5.6-1.1-3.8-5.1,4.9-.7h0ZM288.8,465.3l-4.6-7.9-.6,10.6,5.2-2.8h0ZM138.2,457.3l-6.3-.7-1.5,14.9,3.5-10.3,5,6.8,3.6-5.6-4.4-5.1h0ZM317.5,334.5l2.4-7.7-6.9-5.6-9.5,8.1,14,5.1h0ZM272.3,290.9l-.7-6.6h-8l8.7,6.6ZM401.5,283.4l4.2-7.9-15.6-5.7-2.5,10.7,13.8,2.9h.1ZM229.1,247.3l-3-6.6-6.2,3,2,5.4,7.1-1.8h0ZM253.6,195.1l.4-6-5.3-1.7-1.2,5.8,6.1,2h0ZM280.3,164l12-14.4-18.7-11.7,1.2,6.2,9.4,4.9-7.2,16.3,3.4-1.3h0Z"/>
  </g>
</svg>