<svg xmlns="http://www.w3.org/2000/svg" xmlns:amcharts="http://amcharts.com/ammap" id="Layer_1" viewBox="0 0 512 512"><g id="_x3C_defs"><amcharts:ammap bottomLatitude="-23.5" leftLongitude="-180" projection="mercator" rightLongitude="-178.25" topLatitude="-14.5"/></g><g><path id="FJ-N" d="m128.2 86.9 9.5-16.4-10.5-16.8-21 19.4v31.7l21.9-17.9zm-22-57.5 13.3-7.8-2.6-3.6 6.8-8.5-16 8.2-1.5 2.5v9.1Z"/><path id="FJ-E" d="m352.3 491.9-3.8-1.3-2.6 3.1-.5 3.5 10.8 5.3.6-3.6-5.6-1.1-3.8-5.1 4.9-.7Zm-63.5-26.6-4.6-7.9-.6 10.6 5.2-2.8Zm-150.6-8-6.3-.7-1.5 14.9 3.5-10.3 5 6.8 3.6-5.6-4.4-5.1Zm179.3-122.8 2.4-7.7-6.9-5.6-9.5 8.1 14 5.1Zm-45.2-43.6-.7-6.6h-8zm129.2-7.5 4.2-7.9-15.6-5.7-2.5 10.7 13.8 2.9zm-172.4-36.1-3-6.6-6.2 3 2 5.4 7.1-1.8Zm24.5-52.2.4-6-5.3-1.7-1.2 5.8 6.1 2Zm26.7-31.1 12-14.4-18.7-11.7 1.2 6.2 9.4 4.9-7.2 16.3 3.4-1.3Z"/></g></svg>