<?xml version="1.0" encoding="UTF-8"?>
<svg id="Layer_1" xmlns="http://www.w3.org/2000/svg" xmlns:amcharts="http://amcharts.com/ammap" version="1.1" viewBox="0 0 512 512">
  <!-- Generator: Adobe Illustrator 29.1.0, SVG Export Plug-In . SVG Version: 2.1.0 Build 142)  -->
  <g id="_x3C_defs">
    <amcharts:ammap bottomLatitude="-19.500" leftLongitude="174.500" projection="mercator" rightLongitude="180.000" topLatitude="-12.475"/>
  </g>
  <g>
    <path id="FJ-R" d="M172.1,8.3l-7.2.3,5.2,2,2.1-2.2Z"/>
    <path id="FJ-W" d="M204.4,455.2l-1.3-4.1-.8,3.1,2.5,4.6-.4-3.6ZM252.7,381.2l-4.4-3.9-1.7-4.3-2.7-.7-3.6,3.1,2.5-6.5-1.4-3.6-4.4-2.6-2.4,3.4-6.6.7-5.2,3.4-4.9-1-3.4,2.1.6-4-4.9,4.9-2.4-.9-2.9,1.9v4.1l-1.5-4.6-7.5,5.1-1,3.8-1.3-.7-.8,3.1-4.6,3.9,2.8,8.2h-3.9s-.5,6.3-.5,6.3l-5.8,1.8-.2,10,4.4,8.4,27.3,8.8,2.6-7.5-3.4-3.6,2.2-6.2,11.7-.7-1.5-10,7.7-11-1.1-1-4.6,3.9,1.2-12.5,6.9,7.1,6.5-.6,2.3-2.9,8.3,3.3,1.8-8.6ZM173.5,358.5h-3.4l1.1,4.8,3.1-3.3-.8-1.5ZM182.3,345.6l-.4-1.9-.8,2.5-1.4-2-1.8,1.5-2.6,6.7,3.8-1.1,3.3-5.7ZM189,335.1l2.5-4.7h-2.9c0-.1-1.4,2.6-1.4,2.6l1.8,2.1ZM194.5,325.5l5.3-5.5v-3.7s-6.4,8.8-6.4,8.8l-2.3-.2-.5,3h2.5l1.3-2.4Z"/>
    <path id="FJ-N" d="M243.3,324.8l-.3,3.1,2.6-.4v-2.6s-2.4,0-2.4,0ZM343.6,340.3l3.6-2.9v-13.2l-6.7,12.5,3.1,3.6ZM342.2,314.6l2.1-3.5-4.2,3.5h2.1ZM341.3,283.2l5.9-4.6v-1.5l-8.8,6.1-1.7-2-2.9,2-1-3.7-3.8,3.1-2.8-.4-1.6,3.1-3.8-2.6-.8,3.6-2.1-2.1.9,1.3-3.9.9-.8,3.4-5,3,1.7,3.5-11-.7-2.7,2.3-14.3,2.3-1.6.8.8,3.1-4.6,4-.4-1.5-2.9,6.6-.8-2.9-5.9,5.4-6.7-4.1-2.9,1.1,3.1,2.7-1.1,2.9-3.7,2-1.3,4.7,1.6,1.5,5.5-2.6,2.1,2,3.4,13.3,2.6,1.6,4.1-2.2,1.2-5.6,5.4-4.1,2.7,3.8,4.4,1.8,2.9-3.1-3.4,1,2.8-7.2h2.7c0,0,2.6-4.8,2.6-4.8l6.9-3.3,5.2,3.1.2,2-3.5,3.6h17.4s3.7-4.5,3.7-4.5l5-2.1h4.6l6.6,3.6-.9-2.1,2.8,1.1.5-1.7-6.2-5,2.5-2,3.9-10.1-.9-2.7-11.1,8.4-12.7,14-4.2-.5v-4.6l5.6-5.3,1.2-6,8.9-6.4,10.1-16.9Z"/>
    <path id="FJ-E" d="M334.9,502.4l-.5-2.9-1.9-.2,1.1,3.2-2,1.2,3.4-1.3ZM248.7,484.1l-4.5,1.1-.9,2.5-6.3.3-3.8,6.9-4.7-.9-6.1,5.5,8.6,2.1,4.3-3.1,1,3.1,1.2-3.3-1.5-2.9,6.5-5.1h3.2s.5,3,.5,3l9.4-2.6-.7-3.6-6.3-3ZM258.1,482.2l-1.3-3.2-2.7,3.7,2.2,1.5,1.8-2ZM340.6,460.4l3.1-4-6.9,2.5,3.2,5.5,2.3-3-1.8-1ZM305.3,410.8l-4.9-.2,1,6.5,1.1-2.5,5.1,9,.6-6.9-2.9-5.9ZM312.5,402.9v-3.5l-2.1-1,2.1,4.5ZM272.8,397.3l-4-4.1,1.3,4.2h2.7ZM273.2,395.3l3.1-3.5-2.3-5.6-3.6,4.1,2.8,5ZM311.7,368.2l2-4.4-.7-5.5-4,1.3.7,9.7,2.1-1.1Z"/>
    <path id="FJ-C" d="M234,445.6l-.2-4.7-1.8,4.1,2,.6ZM252.7,381.2l-1.8,8.6-8.3-3.3-2.3,2.9-6.5.6-6.9-7.1-1.2,12.5,4.6-3.9,1.1,1-7.7,11,1.5,10-11.7.7-2.2,6.2,3.4,3.6-2.6,7.5,6.7,3.7,13.3-2.5,1.4,1.5,8.6-8.5,6.2-1.4.7-1.9,2.9,3.3,5.4-4.2,2,1.4-.8,1.5,2.5-1v1.5l5.8-4.9,1.6-5.9-2.1,1.5-5-6.4-.2-2.1,2.7-2.5-4.2-8.1,2.1-7.8-9.4-7.4Z"/>
  </g>
</svg>