<svg xmlns="http://www.w3.org/2000/svg" xmlns:amcharts="http://amcharts.com/ammap" id="Layer_1" viewBox="0 0 512 512"><g id="_x3C_defs"><amcharts:ammap bottomLatitude="41.367" leftLongitude="-5.185" projection="mercator" rightLongitude="9.561" topLatitude="51.09"/></g><g><path id="FR-01" d="m344.8 269.3 5.5-16.9 4 1.7 3.8-1.7 2.3 3 2.7.6-.5 1.6 2.7 1.5.9 3.5.7-1.8 1.8 1.6v2.5l2.2-.2 3.6-3.8 2.4 1.8.4 2.4 4.9-.2 6.7-7.5 3.6 2.4-2.3 4.1.8 1.7-5 1.7-.8 4.1-2.2.7-.2 1.6-2.3-.9.3 8.1-1.8 10.5-2.5.7-.5 3.4-2.1 1.4-9.3-13.2-4.4 5.6-4.2-2.2-6.3.5-1.3-4.6h-2.6l.1-1.2-2.7-1.1.6-7.2 1.9-3.1-.8-1.2Z"/><path id="FR-02" d="m289.7 73 6.5-1.3 4.4 1 1.8-1.9 4 1.3 1.9-2.1 5.4 1.7.5 1.5 3.3-1.8v2.7l5.5.7 3.1 1.1.7 4.8-1.6 4.7 1.5 1.2-4.2 4.2-.4 2.4-3.1.6 1.9 2.7-1 8.7-.4 2.4-3.9-2.4-2.3 1.4v1.9c-.1 0-2.7-.6-2.7-.6l-4.5 2.2.3 5.3 3.2 2.8-4.3.4-.7 1.6 1.3 2.2-1.8 2.1 2.2-.3.9 1.5-6.6 8.4-.8.8-2.7-1.8-.5-2.9-1.3 1.1-.8-2.1-1.4.5-3.3-3.8v-4.5l-3.3-.9 2.6-2.3-1.6-2-.4 2v-1.7c-.1 0-2.8-1.2-2.8-1.2l.5 2.4-2.2-2.9 2.8-.3v-2.8h-1.9l-.6-2h2.6l1.7-5.6 2.4-.4-2-1.4-.5-2.5 1.5-3.2-1.5-2.5.9-4.4-2.2-6.7 5.1-8.1-1.7-.4.6-1.1Z"/><path id="FR-03" d="m259.1 257.3 2.7-4.8h6c0-.1 2.7-1.8 2.7-1.8l-1.5-5.3h2l-.1-1.6 3.1-2.7 1.6 1.4 2.9-.4 2.6-3.4h3.8l5.9 5.8 2.3-2.1 2.7 1.6 2.5-1.5 2.1 3.2 2.7-1.9-.5-1.7h1.7V240l1.1.8 3.9 10.5 3.3.4.9 2.1 3-.2 1.6 1.5.2 6.7-3.6 2.6-4.5 1.8 2.2 11.8-4.2 1.3-.5 2.1-3.5-4.6-4.4.8V275l-1.6-.7-3 1.4-6.9-1.2-1.3-2.2-2.6.6-3.5-3.7 1.1-3.1-.9-.5-3 .2-.8 2.5-2.6-1.3-3.2 5.1-2.5-1.2-2.9-6.8-6.2-3.1 1.1-1.3-1.6-.6-.2-1.9Z"/><path id="FR-04" d="m375.5 365.5 4.1-1.1 3.9 1.1-2.9-4.4 1.4-.7 1.9 2.3-.7-4.2 1.7-2.8 4.3-2 .3-1.9 2.6.8 2.4 3.8 1.2-1.4-1-2.4h3.2l1.2-2.9 3.6 3.4 5.6.2 1.6-4.5 9.3-5.5.6 1.8-3.8 4.3 3.2 4.8-1.9.4-.2 2.9-2.6 1.4-4.3 7.7 2.1 6.1 6.7 6.7-2 .5-1.9-1.4-2.8 2.2-2.6-.8 1 1.5-1.2 1.3 1.5.8-2.6 1.2h-7.5c0-.1-1.1 2.6-1.1 2.6l-5.8-3.1-6.6 6.1-3.3-4.2-2.6 1.9-.7-1.4-2.4.7-3.6-4.4-3.7.4 2.2-4.7-3.4-1.7 1.2-5.5-1.4.2-.2-2.5 2.7-1.7v-1.7l3.4 2-1.2-1.1z"/><path id="FR-05" d="m395.5 320.6 2.5.2 1.1 2.6 3 .9 2-2.8h4.1l1.4 4.4 2.4.3.2 5.3 3.9 2.6 2.5-.6 3 1.9-.8 1.7 2.6 5-3.1-.3-1.3 1.7-9.3 5.5-1.6 4.5-5.6-.2-3.6-3.4-1.2 2.8h-3.2l1 2.5-1.2 1.4-2.4-3.8-2.6-.8-.3 1.9-4.3 2-1.7 2.8.7 4.2-1.9-2.3-1.4.7 2.9 4.4-3.9-1.1-4.1 1.1.4-3.6-2.7-1.9.7-1.3-4.7-.2-2.5-4.1 2.7-.5-1.3-3.1 4.9 1.6 2.1-1.7-2.3-2 1.5-5.1 5.1-.2 1.4-1.8-1.1-.8 1-2.6h4.3l1-1.1-1-1.1 2.5-1.6 1.2 1 2.7-2.3 7.6.5-1.1-6.9-4.1-.8 1.9-5.3Z"/><path id="FR-06" d="m417.6 357.6 4.3 6.4 5.4 1.1 5.8 4.1 11.2-2.8-.6 2.1 1.7 2.3-2.2 5.2-5.3 4.8 1.2 4.1-1.5 1.8-5.1 1.7-.2 1.7-.6-1.4-5.4 2.5-.7 5.1-1.4-1.2-2 1.7-2.3-.5-1.5 3.2-1.7-2.5 1.2-3.3-3.9-1.4-1.6-5.3-3.3-.3-.8-1.9 2.6-1.2-1.5-.8 1.2-1.2-1-1.5 2.6.8 2.8-2.2 1.9 1.4 2-.5-6.7-6.7-2.1-6.1 4.3-7.7 2.6-1.4.6.2Z"/><path id="FR-07" d="m344 309 1.6 3.4 1 6.8-1 1.6 2.8 9-4.3 7.9.7 5.4-3 4.8-1.5 11v2.8l-4.9-3.5-1.8.3-.5 2.6-1.5-.3v-2.7c-.1 0-2.4.4-2.4.4l-2.4 3.5-4.4-3.4-2.7.9.6-4.2-2.4-2.6-1.2-4.6-2.1-1.9-1.4-7.2 2.1-1.2.9-2.8 2.7-.3.2-1.9h4.2l2.3-4.4 3-.5-.6-2.2 2.9-1.1-1.2-1.3 1.8-1.8-.9-1.9 2.9 1.2.9-5.7 4.1-.7.5-3 4.8-2.6Z"/><path id="FR-08" d="m346.7 65.4 2.1.9-2.6 3.8.7 1.4-1.8 3.7 3.4 3.1-1.4 2.3.2 3.9 4.9-.4 3.4 2 2.5 3.7h3.6c0-.1 2.1 2.1 2.1 2.1l-.6 2.3 2.8-.3-4.6 3.9-5.1-2.7-1.8 4.8 1.8 2.2-1.2 2.9.8 1.3-2.5 2.2.8 3.2-3.4 1.9-.9-1.5-1.6.2-.4 1.8-6-1.6-1.9 1.4-1.2-3.1-5.2 1-2.3-2.7h-2.5l-2.1-3.1-6.8-1.2 1-8.7-1.9-2.7 3.1-.6.4-2.4 4.2-4.2-1.5-1.2 1.6-4.7-.7-4.8 2.7-.6 4.7 1.7 8.2-3.2.5-5.1 4.6-3.1Z"/><path id="FR-09" d="m210.4 430-1.1-4.2 6.8-4.5-1.2-.7.5-4.1 1.3.7.5-2.2 2.4-.4 3.4 3.2 2.7-1.7-3-1.9 5.6-2.5v-1.3l-2.9-1 1.3-2.4 4.6 5.1 1.4-.6-.4-3.3 4.8 2.6 1.8-1.7.8 4.1 2.5 1.6 2.3-.4 1.3 2.1 2-.2-.2 3.3 1.5.8.7 3.3-2.5 1 1.6.5.2 2.7-3.8.9-.5 1.6 3 3.8 4.7-.7 2.9 2.6-.2 1.5h-5.7l-.8 2.1-6.4 2-2.1-.7.3-1.2-6.3-1.8-2.4.2-1.5 2.3-2.8-5.4-6.4.5-3.1-3.7h-5.3l-2.3-1.6Z"/><path id="FR-10" d="m303 146.1 2.8 4.1 6.4 1.2 1.4-1.2-.5-2.2 1.7.3 6.2-6.6 1.8.8 5.8-1.4 1.2 1.9-.6 3.3 2.9 2.8 4.9 1.8 1.6-1.4 2.6 1.1-1.4 3.6 2.7 3.6 4.6 2.5-.9 1 1.7 2.9-.9 8.2-3.5-.6-2.5 2 2.2 1.7-.6 1.2-4.1-.5-1.7 1.2.6 2-8.2.3-.7 1.9-1.7-.3-.6-2.1-.8 1.6-1.2-.9-2 1.7-1.7-1-.5 1-5.1-.2.6-2.6-.6-1.1-1.5.9.7-1.6-2.8-5.3-1.8-.8.3-1.7-2.8 1.3-1.3-2.6-1.8.3 1.4-4.3-4-5-2.6.4-.5-1.6-1.1-4.6 1.9-.6-1.1-1.9 2.6-.7-.6-1.5 3.3-2.4Z"/><path id="FR-11" d="m250.6 401.3 1.5 1.9 3.4-1 1.5 1.5 1.5-3.6 4.7 2 6-.2.7.8-1.8 2.7 2.7 2.9 2.4-1.8.6 2.3 2.3.8 1.2-2.9 2.1-.5v-2.4l.7 2.6 3.9.4.2 2.2 6.2 1.1 1.6 1.8-6 9-.7 8.4-6.2-3.7-2.6 1-1.7 2.8-13.7-.2.6 5.3-5.5 3.5-1-.6.2-1.5-2.9-2.6-4.7.7-3-3.8.5-1.6 3.8-.9-.2-2.7-1.6-.5 2.5-1-.7-3.3-1.5-.8.2-3.3-2 .2-1.3-2.1-2.3.4-2.5-1.6-.8-4.1 1.1-3.2h3.1l-.4-2.4 1.7-2.4 1.7 2.3.5-1.3 2.4.6 1.4-1.3Z"/><path id="FR-12" d="m256.7 345.2.3-1.6 2.7-.9 2 1.3 4.5-.5 2.6-3.3 1.5-6.1 4.5-4.6 1.2 4.1 3-.9 4.2 11.1 3.6 4.1-.7 2.7 2.7 3.1-.8 8.4 1.1-.6.3 1.5 2.4.7-.9 1.9 5.4-.5.4 1.4-3.8 3.7 6.4 3.3-3.1 5.2-3.2.9-1.9 3.9-4.9-1.1v6.7h-4.4l-.8-2.2-3.1-1-2.8 1.5-2.9-1.3-3.3-4.2-.3-3.8-1.8-.9 1.1-1.5-6.8-7-5.1-.7 1.8-1.1-3.2-1.9-5.2 2.5-3.4-2.7 2.7-3.1-3.4-.9.4-2.2 1-.9-2.5-5.9 1.7-1.2 1 .9 4.8-4.6h4.7c0-.1.4-1.6.4-1.6Z"/><path id="FR-13" d="m343.5 378.3 7.4 2.2 3.3 4.3 4.3 2.4h4.5c0-.1 7.5 3.6 7.5 3.6h2.6l5.2-3 2 1.6-.6 1.4-3.3.8-1.5 3.3 2.4 1.1-.9 3.2 3.1 2.9-3.6 1 .8 2-1.1 1.8 3.1 1.7-2.7 2.2-.4 2.6-1.7-.3-.6 1.2-2.3-2.6-6.2.3.7-2.2-1.7-4.7-9.5 1.4-2.7-4.7-2.8.6-.9-1.9.6 2.1-1.8-.7 1.8 3.2-1.4 1.3-8.7-1.5.3-2.9-2-1.4-10.4-.4.4-1.9 2.8-1.4-.3-1.3.7.9 4.4-2.5.4-1.1-1.6-.5 2-3.5 4.9.6 1.4-7.5-.9-1 3.4-2.7Z"/><path id="FR-14" d="m191.2 103.6.4 7.8h2.5c0-.1-2.2 1.8-2.2 1.8l2.5 2-.3 3 1.7.7-.5 3.4-1.8 1.2 2.7 1.7-1.1 3.6-4.7-.9-4.2 2.2-1-1.4-6.6 5.8-2.7.2.8 1-6.1-2.2-1.4 1.8-2.1-2.5-5.6 2.1-4.1-.9-.7 2.4-4.3 2.5.6-1-2.1.8-2.3-1.7-4.5.6-2.6-2.6 4.8-4.1v-1.1l-2 .2.7-1.8 3.8-.4 2.9-3.4-.6-4.5-1.5.7 1.2-1.4-2.5-1.7 2.5-2-1.3-1.6-1.6 2.1-3.6-2.3-2-1.9.7-3.8 1.4-2.4 4.2-.4 4.4 2.1 14.7 1.3 5.9 2.7 7.6-2.2 4.4-4 5.4-1.7h.4Z"/><path id="FR-15" d="m267 303.5 6.2 2 .9 2.7h5.8l4 4.5 3.8-3-1 3 4.8.6 2.3 7.6 2.5.8h-2.7l2.7 6.4-2.6 2.1-1.5-.4-1.7 3.5-1.7-1.9-1.3.8-4.2 11.6-4.2-11.1-3 .9-1.2-4.1-4.5 4.6-1.5 6.1-2.6 3.3-4.5.5-2-1.3-2.7.9-.3 1.6-2.7-3.8 1.4-4.4-2.8-4.1-1-4.9 2.8-1.2-1.5-2.8 2.6-1.1.2-2.7 1.8-1.5-1.3-2.6 5.7-5.6-.2-3.8 4.3 2.2 1.5-.6-1.2-1.8.7-2.9Z"/><path id="FR-16" d="m187.6 273.3 8 2.3 1.9-.9-1.3-1.8 1.7-1.7 3.6 3.2 3.1-1.2.9-2.2 3.8.6-.4 3.8 3.8 2.1.5 2.6-2.8 2-1.6-.7-1 6.9-2.4-.6v2.1c.1 0-2.8 2.6-2.8 2.6l-2.2 3.7h-1.9l-.2 4-2.5 3.2-3.5 2.1-1-.8-1.9 4.4.7 3.5-4.5 4.4-2.7-1-1.7 1.7v-1.8l-4.1-1 .2-2-3.8-1.6-2.2.6 1.4-2.5-2.3-1.2 2.6-1.3-1.8-2.2 1.5-2.2-2.8-1.6.4-2.1-4.2-2.3 1.7-1.5-1.4-1.5.7-2.4-2.1-.4 6-3.1 4.5 1.3 1.5-4.5-1.3-2.7h1.8l-.2-2.1 2.2-1.1v-3h1.9l2.7-2.6 3.2.5Z"/><path id="FR-17" d="m132.8 275.7 5.8 3.2 1.7 4.8-1.5 4.3-1.3-4-4-3.6-.7-4.6Zm-3.6-10.4 1.3 1.2h-1.4l.4 1.5 3-1.3-.9 1.1 6.5 2.3-2 1-7.7-2.9-1-2.1 1.8-.7Zm13.5-2.9 6.4-2.7-1.1 2.4 1 .6 4.5-1.6 1.8 1.9v2.9c-.1 0 2.1 1.4 2.1 1.4v1.8l2.9 1.1-.5 1 2.3-.4 1.6 2 2.9-.4 1.9 1.9 2.5-.6 1.1 1.7 3.4.7 1.9 3.3.2 2h-1.8c0 .1 1.3 2.8 1.3 2.8l-1.5 4.5-4.5-1.3-5.9 3.1 2.1.4-.7 2.4 1.4 1.5-1.7 1.5 4.2 2.3-.4 2.1 2.7 1.6-1.5 2.2 1.8 2.2-2.6 1.3 2.3 1.2-1.4 2.5 2.2-.6 3.7 1.6-.2 2 4.1 1v1.8l-1.5 4.4-1.9-.9-3.3 1.3-5.5-3.6-1.1 1.3-1.4-6.5-4.9-.9-.8-2.4-.3 1.3-4.1-.3-3.6-8-4.9-3.2-2.1-3.2-7.3-3.4v-4.6l3.5-.8-1.4-2.6 2.5-.7.9-2.7-1.1-3.4 1.9-.4-3.6-7.5h-2.4l1-2.8 3.2-2.7-.3-2.6Z"/><path id="FR-18" d="m257.7 197.1 1.7-.4 2.8 2.2 2.3-1.2 1.8 2.1 2.5-.2 3.6 4.4 1.9-.5.2-2.2 2.6 2.2 2.3-1.3 1.9 4.2-2.2 5 3.9 3.9 1.2 9.9 2.1 2-1.6 11.4h-3.8l-2.6 3.5-2.9.4-1.6-1.4-3.1 2.7v1.6h-1.9l1.5 5.3-2.7 1.7h-6c0 .1-2.7 4.9-2.7 4.9l-3.8-.2-.5-1.7 1.8-1.3-1.6-3.6 1.1-4.3-3.5-3.5-.7-1.9 1.7-1.5-2.5-3 1.1.3 2.7-3.8-2.9-1.1 1.2-3.2-2.7-2.6.7-3-1.5.7-.3-1.6-4.1 1.2-3.5-1.4 2.3-2.5v-2.1l2.1.3-.2-2.1 1.6-1.7 2.8 1.4 4.6-1.9-2.1-3.4.6-2.8 2.5-.9 1.4 1.5.6-4.3-1.7.2v-2.9l-2.4-.3-.3-1.6 4.1-1.9Z"/><path id="FR-19" d="m246 292.8 5.2-3.3 1.2 1.8 2.7-.4 1 1.9 2.6.4v1.3l7.6-3.6 1.3 3.9-2.4 3.1 1.9 2-.3 3.7-.7 2.9 1.2 1.8-1.5.6-4.3-2.2.2 3.8-5.7 5.6 1.3 2.6-1.8 1.5-.2 2.7-2.6 1.1 1.5 2.8-2.8 1.2-3.9 1.1-1.4-1.2-3.6 2.6-5.3-5.1-3.7-.9-3.1 1.3-2.4-4.1 1.2-1-3.5-.4-1.9-1.5 1.2-1.2-2.1-.8 1.7-1.8-1.8-1.5.3-2.4 3-2.9-2.3-.8 1.2-1.7-1.4-.5 1.1-2.3 2.2 1.1 4.4-4.8 3.6.4 7-6.1 3 .8.8-1.6Z"/><path id="FR-2A" d="m474.8 450.5 6.8 2.6 3.1-.2 1.5 3.5 4.8 2.1 4 8.4h2.1c0-.1.4 8.1.4 8.1l2.9.8 2.9-1.2-.5 9.3-1.2 1.8-1.6-.5-.7 2.4 1.1-1.3 1.8.5-3.3 2.9.2 3-2.1 2.5 1.7-.7-1.8 2.6-4.1-1.1.7-2.1-1.7-1.2-7.7-2.4V489l-1.9-.4v-2.9l4.4-3.2-4.6-.6-.2-1.9h-4l2.5-1.6-.6-1.2 2-.4 1.1-3.8-1.9-1.7-4.8 1.8-.5-3.3 2.5-.6-.2-1.6 3-1.7-1.6-2.9-1.4.5-3.5-2.1 1.2-1-1.8-3.2 5.2-1.4-3-1.7v-2c.1 0-1.8.7-1.8.7l.7-2.2Z"/><path id="FR-2B" d="m503.9 421.2 1.4 1.2 1 8.4-1.6 6.1 3 5.8.9 16.3-.3 4.2-4.7 6.9-.3 4.3-2.9 1.2-2.9-.8-.4-8.2H495c0 .1-4-8.3-4-8.3l-4.8-2.1-1.5-3.5-3.1.2-6.8-2.6 2.9-1.7.3-4.6 1.8-.4-.4-2.4 2.7.9.5-2.1 7.3-1.8 3.8-4.2 3.3-.2 2.6 2.7 1.6-2.8-1.2-4.5 1.7-4.3-.6-3.2 2.9-.8Z"/><path id="FR-21" d="M322.1 222.2v-1.1l2.4-.2-.4 1.9-2.1-.6Zm6-40.6.7-1.9 8.2-.3-.6-2 1.7-1.2 4.1.5 3 .8-.3 2.2 2.8 1.1-1.2 1.6 2.5-.6 3.1 5.2-2.7 2.7 1.5.3.3 3.9 2.1-1.2 3 3.3 2.1-1.7-.2 1.4 2.9 1.5-.3 2.3 1.9-1.7 2.2.2 1.9-1.3 1.7 1.3.3 4-4.1 3.2 2.5.7-.2 2.9 2.3.2-1 3.7 1.7.7-2.7 8.1-1.8 3-3.5 1.7 1.2 1.8-2.1 1.7-5.4 1.8-1.7-1.8-5.3.7-7.1 3.3-4.8-4.6.2-1.4-4.4-.9-.9-2.3-1.6 1-.3-1.9-2.5-.3-2.2-2.4.6-2.7-1.7-2.3-1.5.8.3-5.9-1.3.8-1.4-3.4 2-2.1-.3-3.4 4.6-7.3-.8-.9 1.9-.2-1.6-2.1 3.2-1.7v-4.6l-2.1.4-.8-1.8 2.2-1.6-.7-1Z"/><path id="FR-22" d="m70.5 133.1.3 1.7 4.4-1.6v2.4l2.6-.2-1.2 2 3.9 1.4-.4 1.9 4.4 3.7-.2 2.8 3.7 2 1 3v-1.8c.1 0 1.9.3 1.9.3l2.6-3.8 2.8-1.2-.5-1.2 2.4.7 3.4-2.9 1.1 1.3-1.7 2.2 3.2-1.3.9 4.1.7-2.3.6 1.8 1-2.2.9.9 2.8 3 1.3-1.3.8 3.5 1.1-2h1.2c0 .1.2 2.9.2 2.9l-1.4 2 .8 4.9-1.4.2.4 2.6-3.3-.3-1.8 2.4h-2.6l-1.8 5.5-1.8.5-2.4 1.2-2.3-3.2-3.8.8-.4 4.2-3.7 2.3v-5c-.1 0-3.4.7-3.4.7l-.7 1.5-1-3-6.7-.8-1.3-2.2-2.7-.2-.9 2.2-4.5 1.2-2.2-1.6-2.8 1.3-.9-2.2H59l1.6-.1-1.3-1.7 1.3-4.8h-1.1l-.1-3.2-1.7-.5 1.9-3-1.9-1.6 2.3-3.1-3.5-3-.6-3.3 3.1-1.2-.4-6.4.9.8 1.7-2.5 3.6 2 5.9-3.5Z"/><path id="FR-23" d="m229.5 260.9 3.8-4 .7 1.7 2.2-1.4.7 1.7 2-1.5 1.5 1.4 1.8-3.3 1.9 1.5h11.3l3.8.3.2 1.9 1.6.6-1.1 1.3 6.2 3.1 2.9 6.8-.6 2.8 2 5.9-4 5.1-3.6 1.8 3.5 4.4-7.7 3.6v-1.3l-2.5-.4-1-1.9-2.7.4-1.2-1.8-5.2 3.3-.5-4.8-3.7-1.8v-1.7l-3.8 1.6-2.4-2.3 1.8-.5v-1.7c-.1 0-4.6-.3-4.6-.3l2.3-2.3-1.5-1.5.3-3.4-1.9-1.3.4-1.8-4.2-3.6 2.2-2.8-.8-3.7Z"/><path id="FR-24" d="m202.6 292.3 5 2.1-.8 2.4 2.1 2.1 1.9-2.3 1 1.1 4.1-.5 2.3 3.9 2.8.3-1.6 2.4 4.5 1.5 1.4.5-1.2 1.7 2.3.8-3 2.9-.3 2.4 1.8 1.5-1.7 1.8 2.1.8-1.2 1.2 1.9 1.5 3.5.4-1.2 1 2.4 4.1-1.3.7 1 6.3-4.8 3.9.6 2.7-5.7 3.4-2.5 4.6-3.3-3.4-5 2.1.6-3.3-1.9-1.5-3.8 1.2-2-1.5-2.6 1.9-6.7.5-2-5.2-1.2-3 1.7-.9-1.3-1-1.3-.2-1.6 2.5-7.7-1.6 2.3-3-1.1-1.6 2.4-5.9-1-2.2-2.9.7 1.5-4.4 1.7-1.7 2.7 1 4.5-4.4-.7-3.5 1.9-4.4 1 .8 3.5-2.1 2.5-3.2.2-4h1.9l2.2-3.8Z"/><path id="FR-25" d="m376.4 215.1 6.8-2.3 1-1.8 1.8 1 4.6-1.8v-1.8c.1 0 1.9.4 1.9.4l1.3-2.1 1.2.9 3.2-4.7 2.6-.8 2 1.8 1-1.2 1.9 1 .8-2.8 2.3.4.4-2.2 3.7 2.2 1.3-1.2 3.2.6 1.5 1.8-1.3 2 1.1 2-2.1 4 4.7-1 1.3 2-3.9 2.4.4 2.2-8.7 8.1.6 1.6-9.9 6.1 1.1 2-.4 5.7-11.2 9.2.4 1.6-3.1-2.5 1.9-2.2-1.2-1.9 4.7-3.7-1.9-2.9-4.1-1.4-3.8-8.3-2.6.7-1.3-2.2-2.3 1.3-.3-1.7h1.7l-.5-2 2-2.3-4.3-6.3Z"/><path id="FR-26" d="m345.6 312.4 6.4-2.3 3 3 2.1-.7-.6 2.4 2.8 1.4-1.2.8.7 3.9-1.7 2.3 2.6-.5 6 2.4 3.4-2.4-.9 13.7 3.3 1.5-.2-1.3 3.4 3.4 5.2.9 1.1.8-1.4 1.8-5.1.2-1.5 5.1 2.3 2-2.1 1.7-4.9-1.6 1.3 3.1-2.7.5 2.5 4.1 4.7.2-.7 1.3 2.7 1.9-.4 3.6-1.1 1.1 1.2 1.1-3.5-2v1.7l-2.7 1.7-4-1.9-1-2.8-6.8-.8.4-4-2 1.8-1.7-1.4-8.3 3.8-1-4.1-4.7-.8 1.5-11 3-4.8-.7-5.4 4.3-7.9-2.8-9 1-1.6-1-6.8Zm6.3 42.1-2.7 1.3-.7 4.4 3.3.6 2.9-4-2.4-1.7-.5-.5Z"/><path id="FR-27" d="m191.2 103.6 6.9-2.7 2.9 2.8 1.9-.7.7 2.2 4.8-1.3 2.6 2.9 1.3-.7v2.4l-2-.4-.5 1.2 2 1.4 1.3-1.3.5 2.7 1.8 1.1 1.9-.4-.5-2.1 3-.6.8-1.7 3.9-.2 1.2-4.4 2.6-1.8 6.5 1.3 2.7 2.1 2-.4 3.1 7-.5 1.5-1.1-1.4-1.7.4-.2 1.7-3.3 8-3.4-.4-.7 1.8h-1.4c0-.1.8 3.9.8 3.9h1.7c0-.1-.6 1.8-.6 1.8l-1.8.9.4 2.7-3.4 1.9.4 2.8-1.5 1.1-7.1-1.5-.2 2.2-1.8-.6-1.7 1.7-4.7.5-2.1 2.4-3-1.9 1.6-1.6-.5-1.5-5.1-3.4.2-2.4-6.6-.5-1.3-1.3 1-2 1.1-3.6-2.7-1.7 1.8-1.2.5-3.4-1.7-.7.3-3-2.5-2 2.2-2h-2.5c0 .1-.4-7.7-.4-7.7Z"/><path id="FR-28" d="m232.5 129.4 3.3 5.3.2 9.2 6.3 5.6.5 4.5 2.3 1.4 1.8-.9.2 2.7 1.7.2-.7 4.7 1.2 1.2-.8 5.8-2.3.7-.7 3.2-4.7 1.8-4.1-.3-1 2-2.8.2.3 2.3-2.4-1.3-2.7 2.7-5.9-.7-2.9-5.8-4.1-.5 1.6-2.1-3.1 1.7-3.7-.3.3-1.5 2.2-.3-4-2.8 1.1-1-2.1-5.6 4.9-2.6 2.1-3.5-1.4-1.9 1-2.4-5.1-4.6v-3h-.1l2.1-2.4 4.7-.5 1.7-1.7 1.8.6.2-2.2 7.1 1.5 1.5-1.1-.4-2.8 3.4-1.9-.4-2.7 1.8-.9Z"/><path id="FR-29" d="m5.7 154.1 1.3 1.2-3.6.6zm38.8-13.6 1.4 3.1.6-1.8 2.7 2 .8-3 6.1 1.2-.5 1.9.6 3.3 3.5 3-2.3 3.1 1.9 1.6-1.9 3 1.7.5v3.2h1.3l-1.3 4.8 1.3 1.7-1.6.2-5.1 2.3-.7 1.6 3.3 6.5 3.7-.2 2.2 2.2 1.7-1.4.9.8-.2 4.8h-1.7l-1.4 2-1.3-1.1-.2 4.2-6.6-2.1-4.4.7-3.5-5.3-.7 2h-5.9c0-.1-1.5 3-1.5 3h-6l.7-2.8-2.5-5.6-3.3-2.2-7.6-1.7.8-1.3 10.2-2.2 4.4.3.6-2.7-1.5-2.5-5.9-1.6-2.4 3.4.5-4-2.9-1.6h2v-2.6l1.3-.5v2.9c-.1 0 1.1-1.4 1.1-1.4v1.6c-.1 0 2.8-.7 2.8-.7l.7 1 3.1-1.2 1.6.9 1.3-1.7h-4l1.2-.9-.9-1.2-4.4 1.5 2-2.9-.8-.6-6.3 3-2.5-.9-3.2 1.3-.8-4.3 1.5-6.7 4.8-1.7 2.3-3.1 2.2.7 4.5-2.8 1.7.7v1.6l3.3-1 .4-1.8 4.4.5.2-1.5 2.4-1Z"/><path id="FR-30" d="m318 352.7 2.4 2.6-.6 4.2 2.7-.9 4.4 3.4 2.4-3.5 2.3-.4v2.7c.1 0 1.6.3 1.6.3l.5-2.6 1.8-.3 4.9 3.5 2.5 4v5l4.2 3.5-3.5 4-3.4 2.7.9 1-1.4 7.5-4.9-.6-2 3.5 1.6.5-.4 1.1-4.4 2.5-.7-.9.3 1.3-2.8 1.4-.4 1.9-3.1-1.1-1.4-3.4-.6-1.7 2.4.2 1.5-2.7-1.7-4.5-4.7-3.8-1.5.6.5-1.9-2.2-2.2-3.9.4.8-2.7-1.4-1.4-3.5.7-3.6 5.2-1.7-.5-.5-2-2.8 1.6-.3-2.3H296c0-.1 3.1-5.3 3.1-5.3l-6.4-3.3 3.8-3.7 5.8 2.7 3.1-.3 1.3-3.1 4.3 2.8h2.7l1.7-2.6 1.7.9-1.3-1.6 1.3-3-1.8-2.3 1-1.3-2.3-2.7 2.2-.6 1.7-2.9Z"/><path id="FR-31" d="m213.7 384.7 6.7-1.6 2.2 2.6 5-2.3-2.2-1.3 2.2-.3.2-1.8 2.9.9.9-1.8.5 1 2.2-1.5 1.2 4.8 1.9.8.2 2.4 1.9 1.6-1.5 1.1 2 .2-1.1 2.9 5.1 2.3 2.6 3.6 2.6 1.1 1.7-1.6-.4 3.6-1.4 1.3-2.4-.6-.5 1.3-1.7-2.3-1.7 2.4.4 2.4h-3.1l-1.1 3.2-1.8 1.7-4.8-2.6.4 3.3-1.4.6-4.6-5.1-1.3 2.4 2.8 1v1.3l-5.5 2.5 3 1.9-2.7 1.7-3.4-3.2-2.4.4-.5 2.2-1.3-.7-.5 4.1 1.2.7-6.8 4.5 1.1 4.2-6.2-1.5-1.1 3.3 1 4.3-6.9-.4-.9-1.6 1-6.7 2.9.8 2.9-4.7-1.3-3.4-2.7 1.4 1.3-3.3-4.3-2.6 2.6-3.8 1.9-.4-.8-.8 2.9-2.8-.9-.7 5.4-5 5.2.5 2.4 2 2-4.4-1-.7 1.9-1.5-.8-1.7 5.1-1.4-8.4-10.3Z"/><path id="FR-32" d="m183.6 375.4 1.9-.9.9 1.4 2-2.4 3 1.5 10-4.3 2.4 2.7 2.7-2 .8 1.7 3.1-.8-3.3 5.3 5 1.8-.3 5.1 2 .2 8.4 10.3-5.1 1.4.8 1.7-1.9 1.5 1 .7-2 4.4-2.4-2-5.2-.5-5.4 5-9.5-1.5-1.2-2.1-3.9.9-2.2-6.8H183c0-.1-2.3-4.3-2.3-4.3l-2.8 1.1h-5c0-.1-1.3-2.9-1.3-2.9l3-4.5-1.1-3.4h1.1l.3-2.7-1.8-1.5 2.1-2 2.9.5 2-2.6 1.5 1.4-1 1.2 2.7 1.6.6-4.1Z"/><path id="FR-33" d="m144.6 299.5-.2 2.4 9 8.1 4 12.5 3.2 3.8-2.5-5.8-1.6-9.6 4.1.3.3-1.3.8 2.4 4.9.9 1.4 6.5 1.1-1.3 5.5 3.6 3.3-1.3 1.9.9 2.9-.7 1 2.2-2.4 5.9 1.1 1.6-2.3 3 7.7 1.6 1.6-2.5 1.3.2 1.3 1-1.7 1 1.2 3h-2.4c0-.1-.3 1.9-.3 1.9l-1-1.3-3 2.4 2.9 1.9-3.9 5.3h-2.3l-.6 6.3 1.3 2-3.5 1 1.5 3.9-3.7 2.2-1.8-2.2-1.2.4v2.9l-5.7-.1.2-3.8-8.8-5.4v-2.4l-13.3 1.4 1.4-4.1-3.3-1.2-5.8 3.1 2.1-9.3 6.4 1.2-2.2-2.9h1.2l-4.6-3.8-2.7 7.7-.5-.9 3.6-40.8 3.3-4.1Z"/><path id="FR-34" d="M296.1 378.7h2.3c0 .1.3 2.4.3 2.4l2.8-1.6.5 2 1.7.5 3.6-5.2 3.5-.7 1.4 1.4-.8 2.7 3.9-.4 2.2 2.2-.5 1.9 1.5-.6 4.7 3.8 1.7 4.5-1.5 2.7-2.4-.2.6 1.7-6.7 1.8-8.9 6.2-4.4 5h-5.8c0-.1-3.7 3-3.7 3l-1.6-1.8-6.2-1.1-.2-2.2-3.9-.4-.8-2.5v2.4l-2.1.5-1.2 2.9-2.3-.8-.6-2.3-2.4 1.8-2.7-2.9 1.8-2.7-.7-.8 3.3-2.3.2-2.2-2-2.4 1-4.4 3.7 2.2 5.3-2 .9-1.8h4.3l.1-6.7 4.9 1.1 1.9-3.9 3.2-.9Z"/><path id="FR-35" d="m108.6 144.8 2.2.2 1.4 3.7-1.3 1.3-2.8-3-.9-1.7zm9.2-3.3-1 3.1 1.2 1.7 9-1.1 2.9 7.5 2.3 1.5 2.3-.4 3.4-3.9 6.3 1.8.9 9.2-1.9 3.4 2.9 13.3-4.7 2-2.8 7.9-.3 1.7-7.9-3 .2 1.6-5.1 2-1.2 2.7h-6.9l-3.3 2-.6-1.1-4.3 3.2-1.1-4.7 2.5-.8-2.4-1.6 3.2-3.2-.6-1.8-1.9 1 1.1-3.6-2.3-3.3-4.9-.4.9-2.5 3.3-1.8-3 .6-1.1-3.6 1.8-.5 1.8-5.4h2.6l1.8-2.5 3.3.3-.4-2.6 1.4-.2-.8-4.9 1.4-2-.2-2.8h-1.2c0-.1-2.7-5.9-2.7-5.9l3.3-2.7 3.1-.2Z"/><path id="FR-36" d="m226.5 219.1 4.2-2.7 2.8 1-.2-1.8 3-1.2 1.9 1 1.7-1 4.3 2.9v2.1l-2.2 2.5 3.5 1.4 4.1-1.2.3 1.6 1.5-.7-.7 3 2.7 2.6-1.2 3.2 2.9 1.1-2.7 3.8-1.1-.3 2.5 3-1.7 1.5.7 1.9 3.5 3.5-1.1 4.3 1.6 3.6-1.8 1.3.5 1.7h-11.3l-1.9-1.6-1.8 3.3-1.5-1.4-2 1.5-.7-1.7-2.2 1.4-.7-1.7-3.8 4-2.1-2.7-1.7 1.4-4.3-.7 1.2-2.4-2.1-.7v-2.8c-.1 0-8.2-4.7-8.2-4.7l.6-4.8-2-2.5 4.9-.5-.9-2.3 2.4-9.6 3.9-2.2 2.9.9 3.8-4.8-1.3-3.4Z"/><path id="FR-37" d="m202.1 193.3 8.6.2-.2 4.6 2-1.7 2.5.6.2 1.8 1.2-1.2 1.5 1.8-1.1 2.1 1.4 3.5 1.6.7-1.7 1 1.3 2-.6 4.3 2 1.6 2.8-.7 2.9 5.1 1.3 3.4-3.8 4.8-2.9-.9-3.9 2.2-2.4 9.6.9 2.3-4.9.5-2.4-5.1-3.1-2.7-.4-3.5-4.2-1.6 1 2.5-9.4 1.3-.7-6.1-4.3-.4v-2.8c.1 0-3.4-.2-3.4-.2l-.9-2.3.8-5.9 3.6-5-1-.9 2.4-5.1-.9-2 1.2-3.5 5.2 2.1.2-3.8 2.3 1.2 5.7-3.9Z"/><path id="FR-38" d="m355.9 287.2 4.2 2.2 4.4-5.6 9.3 13.2 3.9 8.5 5.8 2.4.2-4.2 1.8-.7 2.8 2.7h2.8c0 .1 2.2 4.1 2.2 4.1l-2.2 3.3.5 6.4 3.6.2.4 1.2-1.9 5.3 4.1.8 1.1 6.9-7.6-.5-2.7 2.3-1.2-1-2.5 1.6 1 1.1-1 1h-4.3l-1 2.6-5.2-.9-3.4-3.4.2 1.3-3.3-1.5.9-13.7-3.4 2.4-6-2.4-2.6.5 1.7-2.3-.7-3.9 1.2-.8-2.8-1.4.6-2.4-2.1.7-3-3-6.4 2.3-1.6-3.4v-4.4l3.9-3.6-3.3-2.8 9-1.3.8-2.5 3.3-1.8-3.1-3.2 1.2-2.2Z"/><path id="FR-39" d="m370.1 213.1 2 2.5 4.2-.6 4.3 6.3-2 2.3.5 2h-1.7l.3 1.7 2.3-1.3 1.3 2.2 2.6-.7 3.8 8.3 4.1 1.4 1.9 2.9-4.7 3.7 1.2 1.9-1.9 2.2 3.1 2.5-2.5 7-6.7 7.5-4.9.2-.4-2.4-2.4-1.8-3.6 3.8-2.2.2v-2.5l-1.7-1.6-.7 1.8-.9-3.5-2.7-1.5.5-1.6 3.5-1.5v-1.3c.1 0-2-.9-2-.9v-2.9l1.5-.2 1.3-2.8-2.8-4.6 1-2-2.2-2.2 4.7-.6v-1.3l-2.2-1.9-2.4.2-2.6-2.8v-1.8h.1l2.1-1.7-1.2-1.8 3.5-1.7 1.8-3 2.7-8.1Z"/><path id="FR-40" d="m138 352.4 5.8-3.1 3.3 1.2-1.4 4.1 13.2-1.4v2.4l8.9 5.4-.2 3.8h5.7v-2.7l1.2-.4 1.8 2.2.4 3.5 9.1 1.4-2.6 4.7.5 2-.6 4.1-2.7-1.6 1-1.2-1.5-1.4-2 2.6-2.9-.5-2.1 2 1.8 1.5-.3 2.6h-1.1l1.1 3.4-3 4.5 1.3 2.7-7.1 1.7v-2.2l-5 2.8-2.1-.9.5-.9-2.6 1.6-1.8-1.8-12.8 4.3-.9-.9 1.4-.6-1.8-1.3-3.7 2.3-7.9-1.5 2.7-5.6 6.6-38.9Z"/><path id="FR-41" d="m209.8 172.5 3.7.3 3.1-1.7-1.6 2.1 4.1.5 2.9 5.8 5.9.7 2.7-2.7 2.4 1.3 1.5-.4-1.4 3 2.3 2.7-2.2 3 2.6 4-.8.8 1.8-1.7 2.8 1.3.9 3.7 1.8 1.2 2.2-2.8 3.6 1.8 8.2-1.1 1.2 2.9-4.1 1.9.3 1.6 2.4.3v2.9l1.7-.2-.6 4.3-1.4-1.5-2.5.9-.6 2.8 2.1 3.4-4.6 1.9-2.8-1.4-1.6 1.7.2 2.1-2.1-.3-4.3-2.9-1.7 1-1.9-1-3 1.2.2 1.8-2.8-1-4.2 2.7-2.9-5.1-2.8.7-2-1.6.6-4.3-1.3-2 1.7-1-1.6-.7-1.4-3.5 1.1-2.1-1.5-1.8-1.2 1.2-.2-1.8-2.5-.6-2 1.7.2-4.6-8.6-.2-1.2-.9 4.1-2.7 2.5-3.8-.5-3 1.7.6 1.3-2.6-.2-4.6-1.7-.9 1.6-2.9Z"/><path id="FR-42" d="m314.6 264.4-.3 3 2.8.6.7 1.5 7.3-1.1 2.3 1.9 3.3-1.4.6-1.8 1.7 2.9-3.9 1.5-.6 3-1.8 1 2.2 2.2-2.4.5 5.2 6.6-1.6 4.4 1.8 1.2-1.3 3.6 3.6 4.1 5 .5.9 1.6 1.3-.9-.9 3.6 2.4-.3 1.2 1.9v4.4l-4.8 2.6-.5 3-4.1.7-1.6-1.9h-3V309l-2.6.2-1.3-1.5h-2.5l-4.8 3-1.4-2.3-2.3 2.1-.4-1.2-.2-2.1 2.5-1.8.7-2.9-10.1-14.4 2.2-4.6-2.1-2.2.5-2.1 4.2-1.3-2.2-11.8 4.5-1.8Z"/><path id="FR-43" d="M287.6 309.7h2.3l4.1-3.4 4.1 1.1 2.8-1.5 4 4.4 1.8-2.2 3.6 1.7.9-2.1 3.3 1.7.4 1.2 2.3-2.1 1.4 2.3 4.8-3h2.5l1.3 1.5 2.5-.2v4.3h3.1l1.6 1.9-.9 5.7-2.9-1.2.9 1.9-1.8 1.8 1.2 1.3-2.9 1.1.6 2.2-3 .5-2.3 4.4h-4.2l-.2 1.9-2.7.3-.9 2.8-2.1 1.2-4.1-4.5-2.6.5-1.3-2.5-1.2.3-.2 2.4-3.8.8-2.5-7.1-1.5-.7-2.7-6.4h2.7l-2.5-.8-2.3-7.6-4.8-.6 1-3Z"/><path id="FR-44" d="m109.1 196.6 4.3-3.2.6 1.1 3.3-1.9h6.9l1.2-2.8 5.1-2-.2-1.6 7.9 3-.3 2.3 2 .5 2 5.2 4.5 1.5-1.3 1.3-4.5-.5.5 3.2 6.5.9 1.5 4.7-1.8 1.4-10.8 1.6-2.2 1.8h2l1.8 3.1 1.6-.4 1 3.6-2.9 4.1 4.5 1.8-1 1.7-4.2-2.8-1 2.5h-2.7c0 .1.5 3.8.5 3.8l-3.4 1.5-.3-5.2-1.1-.4-1.8 1.3 1.9 6.7-1.6 1-6-1.2-.8-2.2-5.3-1.7-2.7-3.4-2.5-3.3-6.7-1.9 2.8-1.8-.2-4.8-4.3 1.5-2.7-2.2-1.9 1-3.9-1.6 1.3-2.4-1.8-1.8 3.5-3.7 1.2-1.5 3.6.8.6-2.8 4.6 1.3.2-1.6 2-.6v-5Z"/><path id="FR-45" d="m249.3 163.1 5.8-.6 1.4-2.3 1.4 2.3 2.9-1.8 2.6.9.7 2.9 2.8 1.1.6 1.9-2.7 3.9h9l1.7-1.1-.6-1.1h2.1l.7 1.9 4-1.7 3.2 1.5.7 3.1 2.6 2.2v2.9c.1 0-4 3.4-4 3.4l.6 6.1-6 1.5v2.1c-.1 0 2.6 1.8 2.6 1.8l1.7 5.7-4.1.9.6 1.6-2.3 1.3-2.6-2.2-.2 2.2-1.9.5-3.6-4.4-2.5.2-1.8-2.1-2.3 1.2-2.8-2.2-1.7.4-1.2-2.9-8.2 1.1-3.6-1.8-2.2 2.8-1.8-1.2-.9-3.7-2.8-1.3-1.8 1.7.8-.8-2.6-4 2.2-3-2.3-2.7 1.4-3-1.5.4-.3-2.3 2.8-.2 1-2 4.1.3 4.7-1.8.7-3.2 2.3-.7.8-5.8Z"/><path id="FR-46" d="m230.6 325.8 3.1-1.3 3.7.9 5.3 5.1 3.6-2.6 1.4 1.2 3.9-1.1 1 4.9 2.8 4.1-1.4 4.4 2.7 3.8-.4 1.5h-4.7c0 .1-4.8 4.7-4.8 4.7l-1-.9-1.7 1.2 2.5 5.9-1 .9-6.3 1.2-1.4 1.5-.8-.8.2 1.4-2.4-1.5.5 2.6-1.6.9-2.4-3.3-3.8 4.5-2.6-1.5.7-2.8-3.1 1.3-4.5-4 1.9-1.9-2.5.7-2.8-7.9 3.2-1.4 2.5-4.6 5.7-3.4-.6-2.7 4.8-3.9-1-6.3 1.3-.7Z"/><path id="FR-47" d="m176.3 363.8 3.7-2.2-1.5-3.9 3.5-1-1.3-2 .6-6.3h2.3l3.9-5.3-2.9-1.9 3-2.4 1 1.3.3-2h2.4c0 .1 2 5.3 2 5.3l6.7-.5 2.6-1.9 2 1.5 3.8-1.2 1.9 1.5-.6 3.3 5-2.1 3.3 3.4-3.2 1.4 2.8 7.9-4.2 1.6-1.5-1.7-.9 3.4 2.8 1.7-1.5 4-1.8.3 1.4 2.2-3.6-.3-1.7 3.7-2.7 2-2.4-2.7-10 4.3-3-1.5-2 2.4-.9-1.4-1.9.9-.5-2 2.6-4.7-9.1-1.4-.4-3.5Z"/><path id="FR-48" d="m296.2 328.2 1.5.7 2.5 7.1 3.8-.8.2-2.4 1.2-.3 1.3 2.5 2.6-.5 4.1 4.5 1.4 7.2 2.1 1.9 1.2 4.6-1.7 2.8-2.2.6 2.3 2.6-1 1.3 1.8 2.3-1.3 3 1.3 1.6-1.7-.9-1.7 2.7h-2.7l-4.3-2.9-1.3 3.1-3.1.3-5.8-2.7-.4-1.4-5.4.5.9-1.9-2.4-.7-.3-1.5-1.1.6.8-8.4-2.7-3.1.7-2.7-3.6-4.1 4.2-11.6 1.3-.8 1.7 1.9 1.7-3.5 1.5.4 2.6-2.1Z"/><path id="FR-49" d="m138.6 187.5 8.8 2.5 1.7-1.7 6.7 2.8 7-.6.5-1.9 4.6 1.4.7 2.3h6.5c0-.1-1.5 1.6-1.5 1.6l2.7 2.5 1.5-1.5 8.1 4.1 1.4-1.8 1.5.4-1.2 3.5.9 2-2.4 5.1 1 .9-3.6 5-.8 5.9-2.1.2-1 3.7-1.7-.7-.5 1.8h-2.5c0-.1 1.1-1.9 1.1-1.9l-1.4-.3-7.3.9-2.9 1.9.7-1.4h-1.2l-2.1.9.4 1.6-1.9 1.8-6.4-.4-3.6 1.5-2.9-2.1-2.7.7-3.2-1.2 1-1.7-4.5-1.8 2.9-4.1-1-3.6-1.6.4-1.8-3.1h-2l2.2-1.7 10.8-1.6 1.8-1.4-1.5-4.7-6.5-.9-.5-3.2 4.5.5 1.3-1.3-4.5-1.5-2-5.2-2-.5.3-2.3.3-1.7Z"/><path id="FR-50" d="m115.2 88.1 10.9 4.3 3.6-1.1.8-1.6h7.1l1.2 4.8-2.4 1.3-.3 2.3 4.8 7-.5 3.1 2.2.2-.7 3.8 2 1.9 3.6 2.3 1.7-2.1 1.3 1.6-2.5 2 2.5 1.7-1.2 1.4 1.5-.7.6 4.5-2.9 3.4-3.8.4-.7 1.8 1.9-.2v1.1l-4.7 4.1 2.6 2.6 4.5-.6 2.3 1.7 2.1-.8-.6 1-.3 1.1 3.9 2.3-1.3 1.5 1.2 1.9-4.2 6.2-7.2-.3-6.3-1.8-3.4 3.9-2.3.4-2.3-1.5-2.9-7.5h7.5c0 .1-2-1.3-2-1.3l.9-.9-2.1 1.1-4.2-4.8v-3.9c-.1 0-1.5-.7-1.5-.7l2.4-5-.5-5 1.8.3-1.9-.8-.6 1.9-.7-2-.5-9.4 1.3-.3-1.4-.6-.4 1.3-2.9-6.1-3.4-2.5-2.7-8.5 1.6-1.9-.3-3.2-3.4-2.3.9-2.7Z"/><path id="FR-51" d="m300.4 133.9 6.6-8.4-.9-1.5-2.2.3 1.8-2.1-1.3-2.2.7-1.6 4.3-.4-3.2-2.8-.3-5.3 4.5-2.2 2.5.6v-1.9c.1 0 2.5-1.4 2.5-1.4l3.9 2.4.4-2.4 6.8 1.2 2.1 3h2.5l2.3 2.8 5.2-1 1.2 3.1 1.9-1.4 6 1.6.4-1.8 1.6-.2.9 1.5 1.4 1.4-1.8 1.3 2.3 6.6-1.4 2h2.4c0-.1-1.4 2-1.4 2l1.5.5-4.3 3.9.8 2.9-1.6 2.3 4.1 2.9-.7 3-7.1.8-.3.9 2.8.9v1.2l-3.1.9 1.2 3.4H341c0-.1-2.6-1.2-2.6-1.2l-1.6 1.4-4.9-1.8-2.9-2.8.6-3.3-1.2-1.9-5.8 1.4-1.8-.8-6.2 6.6-1.7-.3.5 2.2-1.4 1.2-6.4-1.2-2.8-4.1-.9-1.5-2.8.6.6-5.3-2.5-1 1.7-1.7-1.4-.9 2.9-.3v-2Z"/><path id="FR-52" d="M341 150.6h4.4c0 .1-1.2-3.3-1.2-3.3l3.1-.9v-1.2l-2.8-.9.3-.9 7.1-.8.4 3.7 1.9-1 .5 1.9h1.6l3.2 3.5 4 1 4.8 4.6-2.6 1.5 1.7.6-.5 2.5 3.4-.9 7.1 7.9-1.7.8-.3 3.6-1.5 1.2 5.1 2.6.4 4.1 2-1.2 1.3 2.5-1.9 3.7-2.3-.4-.7 2h-1.7v6.9l-3.2.6-1-1.8-1.4 1.8h-3.9l-1.3 3.5-2.2-.2-1.9 1.7.3-2.3-2.9-1.5.2-1.4-2.1 1.7-3.1-3.3-2.1 1.2-.3-3.9-1.5-.3 2.7-2.7-3.1-5.2-2.5.6 1.2-1.6-2.8-1.1.3-2.2-3-.8.6-1.2-2.2-1.7 2.5-2 3.5.6.9-8.2-1.7-2.9.9-1-4.6-2.5-2.7-3.6 1.4-3.6Z"/><path id="FR-53" d="m151.5 152.1 3.3 3.3 3.3-2.6.6 2.2 4.9-3.3h3.9l1.5 1.3 1.1-2 1.7.8.8-2.9h1.4l2.1 1.9-1 .9.9 2.8 3.3.3-.2 3.6-3.5 2.1.4 6.9-3.7 2.4.8 5.1-3.8.9 2.2 4.3-4.7 2.1 1.4 2.9-2.5 1.4 2 1.5v2.2h.1l-4.6-1.4-.5 1.9-7 .6-6.7-2.8-1.7 1.7-8.8-2.5 2.8-7.9 4.7-2-2.9-13.3 1.9-3.4-.8-9.2 7.2.3Z"/><path id="FR-54" d="m379.1 97 3.7 3.2 1.9 1.6-1.1 3.1 2.3 3.3-1.1 1 2 .8 1.3 3.7-2.2 2.4 1.9 1.5-1.7 1.1.8 1.7-2.7 1.1 4.1 4.1v1.9l2.5.5.6 1.7 6.1.7-.9 3.9 1.9.7-1.3.5 1.9.6v1.7l2.6-.5 4.4 1.7 1.2 2.1 2.2.5.2 2 .6-.9 5.7 3.3 2.6-.7 2.8 1.3-.6.9 2.8 3 1.4 1.1-11.5 6.5-4.7-2.1-.8-2.3-1.8 1.6.4 1.3-1.6-.8-5 2.1-3.2-2.2-2.1 1.9-2.8-.5-1.2 2.8-1-1.6-.6 1.2-3.8.5-.4-2.4-1.6-.2.9-1.7-2.6 1.2 1.7-4.4h-4.8c0-.1.4-2.3.4-2.3l-2.1-2.5 3-1.9-1.5.2.3-4.1-1.7-2.3 2.2-2.6.4-4.7-1.5-1.6 3.5-1.8-1.7-1.8 1.8-2.9-1.7-1.1.5-2.3-2.6-.9.6-3.8H377v-3.5l1.7-2.2-1.3-.2-.8-2.8.8-1.8-3.5-2.1-5.1 2.9-1.2-.9 1.9-1.1-2.6-3.5 1.5-.6 2.9-1.7 1.9 1.2 1.1-2.3 3.5.6 1.2-1Z"/><path id="FR-55" d="m366.9 94.8 1.7 5.3-1.5.6 2.6 3.5-1.9 1.1 1.2.9 5.1-2.9 3.5 2.1-.8 1.8.8 2.8 1.3.2-1.7 2.2v3.6h1.5l-.6 3.8 2.6.9-.5 2.3 1.7 1.1-1.8 2.9 1.7 1.8-3.5 1.8 1.5 1.6-.4 4.7-2.2 2.6 1.7 2.3-.3 4.1 1.5-.2-3 1.9 2.1 2.5-.4 2.2-1.6 1.9-2.6-.7-.7 2.4-5.2.3-4.8-4.6-4-1-3.2-3.5h-1.6l-.5-1.9-1.9 1-.4-3.7.7-3-4.1-2.9 1.6-2.3-.8-2.9 4.3-3.9-1.5-.5 1.4-2.1h-2.4c0 .1 1.4-1.9 1.4-1.9l-2.3-6.6 1.8-1.3-1.4-1.4 3.4-1.9-.8-3.2 2.5-2.2-.8-1.3 1.2-2.9-1.8-2.2 1.8-4.8 5.1 2.7 4.6-3.9 1 .9Z"/><path id="FR-56" d="m69.7 208.9 6.4 3.7-.5 1.4-5.6-.8zm-10.9-40.6h4.1l.9 2.1 2.8-1.3 2.2 1.6 4.5-1.2.9-2.2 2.7.2 1.3 2.2 6.7.8 1 3 .7-1.5 3.2-.7v5c.1 0 3.8-2.3 3.8-2.3l.4-4.2 3.8-.8 2.3 3.2 2.4-1.2 1.1 3.6 3-.6-3.3 1.8-.9 2.5 4.9.4 2.3 3.3-1.1 3.6 1.9-1 .6 1.8-3.2 3.2 2.4 1.6-2.5.8 1.1 4.7v5l-2 .6-.2 1.6-4.6-1.3-.6 2.8-3.6-.8-1.2 1.5h-1.3l-.2-2.2 2.1-.3-2.4-1.3-10.5 1.9-7.2-5.4v1l-3.4.2 1.1 4.9h-1.4l-.9-6.8-7.1-5.3-3.3.6-2.5-3.3.2-4.2 1.3 1.1 1.4-2h1.7l.2-4.8-.9-.8-1.7 1.4-2.2-2.2-3.7.2-3.3-6.5.7-1.6 5.1-2.3Z"/><path id="FR-57" d="m395.1 99.6 10.1 4.1 2 3.5-1.2 1 3.5 3.5 2.4 6.1 3.3.6v-3.1l3.5-.5 3.3 1.7.6 4 1.6-2.2 2 1.8 4.7.3 2.4-2.9 2.7-.6-.3 1 2-.2 1.4 3.9 3.5 2.1-3.4 6.3-2.9-1.9-4.3 1.3-1.1-1.6-5.8-1.7-.3-3.3-1.7.2-1.2 5.7-3 1.2.4 2.1 4.8 1.6-1.5 1 .9 3.1 3.7-3.4 4.5 4.2-2.5 3.9 2.1 1.7-1.4 3.6-3.4 3.3-3-.4-2.8-3 .6-.9-2.8-1.3-2.6.7-5.7-3.3-.6.9-.2-2-2.2-.5-1.2-2.1-4.4-1.7-2.6.5v-1.7l-1.9-.6 1.3-.5-1.9-.7.9-3.9-6.1-.7-.6-1.7-2.5-.5v-1.9l-4-4.1 2.7-1.1-.8-1.7 1.7-1.1-1.9-1.5 2.2-2.4-1.3-3.7-2-.8 1.1-1-2.3-3.3 1.1-3.1-1.9-1.6 2.7.2.5 2.2 2.1.2 4.5-3.3z"/><path id="FR-58" d="m283 199.7 1.5.6 2.8-1.6 2.1 3.5 6.3 2.5 1.6-1.9 3.3.6.4-3.4 3 5.3 3 .3 1.8 2.6 2.1-.3 1 1.3 1.7-2.8.2 3.5 2.6-1.4 1.8 4.2 3.6-1.5 1.3-.8-.3 5.9 1.5-.8 1.7 2.3-.6 2.7-.7.2-2.5.2v1.1l-2.3.6.2 5-2.2 1.4h1.5v3.8l2.1 2.1-1.9 1.5.4 2.9-8.8 3.8-2-2.5-3.7.2-1.1-.8v2.1h-1.7l.5 1.7-2.7 1.9-2.1-3.2-2.5 1.5-2.7-1.6-2.3 2.1-5.9-5.9 1.6-11.4-2.1-2-1.2-9.9-3.9-3.9 2.2-5-1.9-4.2-.6-1.6 4.1-.9Z"/><path id="FR-59" d="M286 64.4h.5c0 .1-.2 2.2-.2 2.2l-2.1 1-.3-2 1.9-.9v-.3Zm-17.2-47.5 2.4 5.9-1.4 1.5.3 3.8 1.2 2h3c0 .1 2.3 4.6 2.3 4.6l4 1.9 1.6-3.2 6.8-2.1 1.4 3.5 2.4 1.3-.7 2.4 1.8 7.2 2.9 1.8 3.4-2.3 1.5.5-.6 1.9 3.7-.5 1.8 2.1V54l1.7 3.3 1.4-2.5 5.3 1.3 4.2-1.7 3.9 5.4.9-1.7 1.6.9-2.7 7.4h2.5l1 3.4-2.4 1.1-.6 3.6-5.6-.7v-2.7l-3.2 1.8-.5-1.5-5.4-1.7-1.9 2.1-4-1.3-1.8 1.9-4.4-1-6.5 1.3-2.8-2.3v-3.6l1.4-.9-1-1.3 3-3.6-1.4-1.8-4.7-.4 2.5-2.2-3.5-4.9 2.9-1.3v-1.7l-1.8.7.4-2.2-2.1-1.5-2.3.6-.5-2-2.9.2-.4-2.8 2.7-2.5-2.1-2-1.5.3.8 1.6-1.6 1.6-1.1-1.5h-7.7l-2.9-2.7-1 .5-1.2-3.7 2.5-1.4-4.2-.6-2.6-2-4.3-10.4 2.8-.8.4 1 .4-1.3 12-3.3.6 1.8Z"/><path id="FR-60" d="m239.7 105 2.6-5.1h-2.5l1.1-1.8-2-2.2 1.1-.5-.8-2.9 1.9-2.7H239l2.1-3.6 1.2.3 1.9.9.3 2 4.2-1 3.2 1.9 4-1.1 4.6.8 5.5 3.6 1-1 2.2 2.2 1.9-.7.9 2 1.3-2.8 3.3.7.4-2.6 3.3-.6-.3-2.2 2.4 2.6.8-2.1 1.7 1.4.8-1.8 1.1 1.2 1.3-.8-.9 4.4 1.5 2.5-1.5 3.2.5 2.5 2 1.4-2.4.4-1.7 5.5H283l.6 2.1h1.8v2.9l-2.8.3 2.2 2.9-.5-2.4 2.6 1.2v1.7c.1 0 .6-2 .6-2l1.6 2-2.6 2.3-.2 1.6-2.7.7-.6-1.1-4 1.1-1.5-1.4-1.9 1.9-1.9-.2-2.2-2.3-1.5 1.5-1.2-2.3-2.2.9-6.1-4.2-3 1.8-.3-1.4-1.6.8-3.1-2.4-2.7 1.8-5.7.6-3.2-.9v-2.3l-1.3-.4.2-1.7 1.7-.4 1.1 1.4.5-1.5-3.1-7Z"/><path id="FR-61" d="m152.2 139.1 4.3-2.5.7-2.4 4.1.9 5.6-2.1 2.1 2.5 1.4-1.8 6.1 2.2-.8-1 2.7-.2 6.6-5.8 1 1.4 4.2-2.2 4.7.9-1 2 1.3 1.3 6.6.5-.2 2.4 5.1 3.4.5 1.5-1.6 1.6 3 1.9v3c.1 0 5.2 4.6 5.2 4.6l-1 2.4 1.4 1.9-2.1 3.5-4.9 2.6 2.1 5.6-1.1 1-2 .3-2.9-3.9-.5 1.6-3.5-.8-1.6-3.2-3.3-.6-.3-5.3-2.8-2.9-5.4 1.2-3 4.1-3.9-.2.2-3.6-3.3-.3-.9-2.8 1-.9-2.1-1.8h-1.4l-.8 2.9-1.7-.8-1.1 2-1.5-1.3h-3.9l-4.9 3.4-.6-2.2-3.3 2.6-3.3-3.3 4.2-6.2-1.2-1.9 1.3-1.5-3.9-2.3.3-1.1Z"/><path id="FR-62" d="M252.3 19.4h.2c0 .1 4.3 10.5 4.3 10.5l2.6 2 4.2.6-2.5 1.4 1.2 3.7 1-.5 2.9 2.7h7.7l1.1 1.5 1.6-1.6-.8-1.6 1.5-.3 2.1 2-2.7 2.5.4 2.8 2.9-.2.5 2 2.3-.6 2.1 1.5-.4 2.2 1.8-.7V51l-2.9 1.3 3.5 4.9-2.5 2.2 4.7.4 1.4 1.8-3 3.6 1 1.3-1.3.9V71h-5l-2.8 1.8-.5-3.1-3.2 2.1.8-4.1-2.4-.7-.2 2.5-4.4-1.7-.6-1.6-.8 1.5-.6-1.4-1.9.5-1.4 2.3-1.5-1.2.4-2.3 3.7-2.2-1.5-1.9-3.2 1.3-.9-1.7-.2 1.4-2-.8-4.1 2.1-2.2-.6-.3-2.7-4.5-1.9v-2.3l-1.3 1-3.5-2.6-4.8 1.7-.8-1.2-3-2.6 1.1-7.4 1.7 1.3-2-3 .2-16.3 7-4.6 10.2-2.9Zm33.5 45.3-1.9.9.3 2 2.1-1 .2-2.1z"/><path id="FR-63" d="m269 271 2.5 1.2 3.2-5.1 2.6 1.3.8-2.5 3-.2.9.5-1.1 3.1 3.5 3.7 2.6-.6 1.3 2.2 6.9 1.2 3-1.4 1.5.7v2.6l4.4-.8 3.5 4.6 2.1 2.2-2.2 4.6 10.1 14.4-.7 2.9-2.5 1.8.2 2.1-3.3-1.7-.9 2.1-3.6-1.7-1.8 2.2-4-4.4-2.8 1.5-4.1-1.1-4.1 3.4h-2.3l-3.8 3-4-4.5h-5.8l-.9-2.6-6.2-2 .3-3.7-1.9-2 2.4-3.1-1.3-3.9-3.5-4.4 3.6-1.8 4-5.1-2-5.9.6-2.8Z"/><path id="FR-64" d="m128.8 396.9 7.9 1.5 3.7-2.3 1.8 1.3-1.4.6.9.9 12.8-4.3 1.8 1.8 2.6-1.6-.5.9 2.1.9 5.1-2.8v2.2l7.1-1.7h5c0 .1 2.7 5.3 2.7 5.3l-1.6.4v2.5l2.2-1.6 1 4.7-2.6 2.1 1 1.5-1.9 2.2.2 2.2H177c0-.1-2.6 2.9-2.6 2.9l.4 2.9-3.7 2.2-.9 7.3-2.8 2.4-3.8-1.3-1.6 2.2-5.6-5-1.2-3.8-6.5.7-5.9-3.3-1 .8-5.7-2.8 1.3-2.3-2.1.5-.7 3.7-2.9-.8-1.1-2 3.1-4.7-.2-3.2-5-1.7-2.5 2-.5-2.6-3.6.5-2-2.6 5.4-2.9 3.6-5.5Zm48.9 7.3v3c.1 0 .8-2.4.8-2.4zm-.9 6.3 1.4-1-1.5-1.8v2.9Z"/><path id="FR-65" d="m177.2 407.2 1 2.2-1.4 1zm1.3-2.4-.7 2.5-.5-2.7.4-.3.7.6Zm-.8-10.4 2.8-1.1 2.3 4.1h2.2c0 .1 2.2 7 2.2 7l3.9-.9 1.2 2.1 9.5 1.5.9.7-2.9 2.8.8.8-1.9.4-2.6 3.8 4.3 2.6-1.3 3.3 2.7-1.4 1.3 3.4-2.9 4.7-2.9-.8-1 6.7.9 1.6-4-1.1-2.3 2.4-4.1-2.9-8 2.1-3.5-4.9-5.2-2.4.9-7.3 3.7-2.2-.4-2.9 2.6-3.1h1.7c0 .1-.2-2-.2-2l1.9-2.2-1-1.5 2.6-2.1-1-4.7-2.3 1.6V400l1.7-.4-2.7-5.2Z"/><path id="FR-66" d="m255.1 437.4 1 .6 5.5-3.5-.6-5.3 13.7.2 1.7-2.8 2.6-1 6.2 3.7.3 13.7 3.1 1.3 1.1 3.8-3 .4-1.6-2.2-3.2-.4-5.8 3.2-3.5.3v3l-3.4-.8-1.6 1.2-3.3-2.8-6-2.1-8.4 4-2.7-4.7-7-2 .3-2.8 1.7-.9 6.4-2 .8-2.1z"/><path id="FR-67" d="m423.5 150.3 3 .4 3.4-3.3 1.4-3.6-2.1-1.7 2.5-3.9-4.5-4.2-3.7 3.4-.9-3.1 1.5-1-4.8-1.6-.4-2.1 3-1.2 1.2-5.7 1.7-.2.3 3.3 5.8 1.7 1.1 1.6 4.3-1.3 2.9 1.9 3.4-6.3 5.4-.6 2.5 1.7 2.3-1.3L463 128l-4.9 8.5-4 2.3-4.5 6-3.6 12.7.4 3.5-1.8 1.3-4 9.3-3.7-2 .2-2.2-5.5-2.5.6-1h-1.3l-.6-1.8-2.6-.3-.7-1.5-3.6-.7 1.4-8.3-1.4-1.1Z"/><path id="FR-68" d="m427.7 161.9 2.6.3.6 1.8h1.3l-.6.9 5.5 2.5-.2 2.2 3.7 2-.2 4.4 1.8 3.2-2.3 4.7-.3 7.4-1.2 1.8 2.5 5.8-2.9 2.2 1.1.6-1.4 2.3-2-.7.8 1.2-2.4 2-4.9.5-2.5-1.1 1.1-2.5-2.4-.5-1.6-4.5-2.8-.5 1.1-6.1-5.8-3-1-2 2.9-1.4-.8-2.1 1.6-5.6 4.6-5.6-.6-1.8 4.8-8.5Z"/><path id="FR-69" d="m331.4 267.2 1.4-4.1 2.6 1.7 2-1.3 1.9 1.4 2.1-2 1 1.4-1.1 1 1.9 1.3-.4 2.6 1.9.2.8 1.2-1.9 3.1-.6 7.2 2.7 1.1v1.2h2.5l1.3 4.6 6.3-.5-1.2 2.2 3.1 3.2-3.3 1.8-.8 2.5-9 1.3 3.3 2.8-3.9 3.6-1.2-1.9-2.4.3.9-3.6-1.3.9-.9-1.6-5-.5-3.6-4.1 1.3-3.6-1.8-1.2 1.6-4.4-5.2-6.6 2.4-.5-2.2-2.2 1.8-1 .6-3 3.9-1.5-1.7-2.9Z"/><path id="FR-70" d="m382.7 181.6 1.7-2.6.6 2.1 3.1-3.5 3.1-1 2.5 4.7 6.3-1.5 3 3.8 4.3-3.1 7.5 6.7-2.2 3.4 1.7 9.4-1.3 1.2-3.7-2.2-.4 2.2-2.3-.4-.8 2.8-1.9-1-1 1.2-2-1.8-2.6.8-3.2 4.7-1.2-.9-1.3 2.1-1.8-.4v1.8c-.1 0-4.7 1.8-4.7 1.8l-1.8-1-1 1.8-6.8 2.3-4.2.6-2-2.5-1.7-.7 1-3.7-2.3-.2.2-2.9-2.5-.7 4.1-3.2-.3-4-1.7-1.3-1.9 1.3 1.3-3.5h3.9l1.4-1.7 1 1.8 3.2-.6v-6.9h1.7l.7-2 2.3.4 1.9-3.7Z"/><path id="FR-71" d="m325.3 220.6 2.2 2.4 2.5.3.3 1.9 1.6-1 .9 2.3 4.4.9-.2 1.4 4.8 4.6 7.1-3.3 5.3-.7 1.7 1.8 5.4-1.8v1.8c-.1 0 2.5 2.8 2.5 2.8l2.4-.2 2.1 1.9v1.3l-4.6.6 2.2 2.2-1 2 2.8 4.6-1.3 2.8-1.4.2v2.9l2 .9v1.3c-.1 0-3.6 1.5-3.6 1.5l-2.7-.6-2.3-3-3.8 1.7-4-1.7-5.5 16.9-1.9-.2.4-2.6-1.9-1.3 1.1-1-1-1.4-2.1 2-1.9-1.4-2 1.3-2.6-1.7-1.4 4.1-.6 1.8-3.3 1.4-2.3-1.9-7.3 1.1-.7-1.5-2.8-.6.3-3 3.6-2.6-.2-6.7-1.6-1.5-3 .2-.9-2.1-3.3-.4-3.9-10.5 3.7-.2 2 2.5 8.8-3.8-.4-2.9 1.9-1.5-2.1-2.1V229h-1.5l2.2-1.4-.2-5 2.3-.6 2.1.6.4-1.9.7-.2Z"/><path id="FR-72" d="m179.1 158.3 3.9.2 3-4.1 5.4-1.2 2.8 2.9.3 5.3 3.3.6 1.6 3.2 3.5.8.5-1.6 2.9 3.9 2-.3 4 2.8-2.2.3-.3 1.5-1.6 2.9 1.7.9.2 4.6-1.3 2.6-1.7-.6.5 3-2.5 3.8-4.1 2.7 1.2.9-5.7 3.9-2.3-1.2-.2 3.8-5.2-2.1-1.5-.4-1.4 1.8-8.1-4.1-1.5 1.5-2.7-2.5 1.5-1.7h-6.5c0 .1-.7-2.2-.7-2.2V188c-.1 0-2.2-1.5-2.2-1.5l2.5-1.4-1.4-2.9 4.7-2.1-2.2-4.3 3.8-.9-.8-5.1 3.7-2.4-.4-6.9 3.5-2.1Z"/><path id="FR-73" d="m380.7 281 1.2.5.3 4.6 1.4 1.5 1.7-.4 1.1 3.2 5.9-.4 2.1 3.6 3.5-.5 6.2-10.6 2.1 1.4-1.3.9.9 2.1 4.5 2.4v2.1l3.8-2.6.9 3.8 5.9 3.1v6.6l6.4 4.8-2.6 3.8.9 3.5-1.8 1.9-2.8-.2-1.9 2.4h-1.8v1.6L413 319l-4.7 2.4h-4.1l-2 2.8-3-.9-1.1-2.6-2.5-.2-.4-1.2-3.6-.2-.5-6.4 2.2-3.3-2.2-4h-2.8c0-.1-2.8-2.8-2.8-2.8l-1.8.7-.2 4.2-5.8-2.4-3.9-8.5 2.1-1.4.5-3.4 2.5-.7 1.8-10.5Z"/><path id="FR-74" d="m413.8 259.9-.3 1.6 2.7 2.7-2.3 7 3.5.6-.9 3.6 2.2-.6 3.7 6.8-3.5 3.8-4.1.5-.7 2.8-3.8 2.6v-2.1l-4.4-2.4-.9-2.1 1.3-.9-2.1-1.4L398 293l-3.5.5-2.1-3.6-5.9.4-1.1-3.2-1.7.4-1.4-1.5-.3-4.6-1.2-.5-.3-8.1 2.3.9.2-1.6 2.2-.7 5.9-.3 5.7-4.2.5-1.5-1.7.2-1.4-3 1.1-2.4 9.1-4.8 10.3 1.5-.9 2.9Z"/><path id="FR-75" d="M260.6 131.5h2.4l.6 2.2 1.6 1.9h-4.3c0 .1-3.6-1.7-3.6-1.7l3.3-2.3Z"/><path id="FR-76" d="m228.2 70.2 2.4-.3v1.6c.1 0 7.9 6.5 7.9 6.5l3.7 8.5-1.2-.3-2.1 3.6h2.1l-1.9 2.7.8 2.9-1.1.5 2 2.2-1.1 1.8h2.5l-2.6 5.1-2 .4-2.7-2.1-6.5-1.3-2.6 1.8-1.3 4.4-3.9.2-.8 1.7-3 .6.5 2.1-1.9.4-1.8-1.1-.5-2.7-1.3 1.3-2-1.4.5-1.2 2 .4v-2.4l-1.4.7-2.6-2.9-4.8 1.3-.7-2.2-1.9.7-2.9-2.8-6.9 2.7h-.4l-5.9-1.9-1.6-2.1 4.4-10.4 13.5-8 17.8-4.3 9.3-6.8Z"/><path id="FR-77" d="m286.3 120.2 3.2.9v4.5l3.4 3.8 1.4-.5.8 2.1 1.3-1.1.5 2.9 2.7 1.8.8-.8v2l-2.8.3 1.4.9-1.7 1.7 2.5 1-.6 5.3 2.8-.6.9 1.5-3.3 2.4.6 1.5-2.6.7 1.1 1.9-1.9.6 1.1 4.6-12.6 1.6-1.1 2.8 1.1 2.8-3.8 4.4-4 1.7-.7-2h-2.1l.6 1.2-1.7 1.1h-9l2.7-3.9-.6-1.9-2.8-1.1-.7-2.9 2.4-3.8 2.5-.6-1.5-1.4-.2-6 2.5-7.5 1.4-3.7-.6-2.3-1.2-4.2 1.5-2.5-1.8-4 1.4-3.6 1.5-1.5 2.2 2.3 1.9.2 1.9-1.9 1.5 1.4 4-1.1.6 1.1 2.7-.7.2-1.6Z"/><path id="FR-78" d="m232.5 129.4.6-2h-1.7c0 .1-.8-3.9-.8-3.9h1.4c0 .1.7-1.7.7-1.7l3.4.4 3.9 1.7 3.7-1.7 1.6 3.1 1.1-1.6 4 2.6 3.3-1 2.9 3.4v2.2h-.1l-2 3.4 1.7 4-3.1 1.5-.2 2.1-2.9 1.9 1.8 2.3-1.5 3-2.8-.2 1.5 1.8-1.9 3.5-1.8.9-2.3-1.4-.5-4.5-6.3-5.6-.2-9.2-3.3-5.3Z"/><path id="FR-79" d="m150.4 229.6 3.6-1.5 6.4.4 1.9-1.8-.4-1.6 2.1-1h1.2l-.7 1.5 2.9-1.9 7.3-.9 1.4.3-1.1 1.8h2.5c0 .1.5 4.1.5 4.1l1.8.2v5.4l2.3 1-2.8 1.7 1.9.3-1 2.3 2.1 1.8-3.7 5.2 2.3-.7-.4 1.4 1.9 1.1-1.7 1.1-1.3 4.3 1.2.8-.5 3.4 1.9 1.3-.6 2.3 2.1 1 1.6-2.1 1.8.9-2.4 7.1 3.8 1.4-.9 3.1-3.2-.5-2.7 2.6h-1.9v2.9l-2.2 1.1-1.9-3.3-3.4-.7-1.1-1.7-2.5.6-1.9-1.9-2.9.4-1.6-2-2.3.5.5-1-3-1.1v-1.8l-2.1-1.4v-2.9h.1l3.5-.6 3.7-3.4-2.3-1.4-1.2.8 1.1-2.8-1.3-3.2 1.5-1.4-.4-3.6-1.5-.9.8-1.2-1.5-1.1.8-.7-2.4-3.4 1-2.1-4.5-3.7.8-1.8-2.9-2.7Z"/><path id="FR-80" d="m236.8 54.5.5.4.8 1.2 4.8-1.7 3.5 2.6 1.3-1v2.3l4.4 1.9.3 2.7 2.2.6 4.1-2.1 2 .8.2-1.4.9 1.7 3.2-1.3 1.5 1.9-3.7 2.2-.4 2.3 1.5 1.2 1.4-2.3 1.9-.5.6 1.4.8-1.5.6 1.6 4.4 1.7.2-2.5 2.4.7-.8 4.1 3.2-2.1.5 3.1 2.8-1.7h4.9l2.8 2.2-.6 1.1 1.7.4-5.1 8.1 2.2 6.7-1.3.8-1.1-1.2-.8 1.8-1.7-1.4-.8 2.1-2.4-2.6.3 2.2-3.3.6-.4 2.6-3.3-.7-1.3 2.8-.9-2-1.9.7-2.2-2.2-1 1-5.6-3.7-4.6-.8-4 1.1-3.2-1.9-4.2 1-.3-2-1.9-.9-3.7-8.5-7.7-6.5V70c-.1 0-2.6.3-2.6.3l5-7.6 5.7 1-5.1-4.6.6-4.7h2.5Z"/><path id="FR-81" d="m249.2 367.5 5.2-2.5 3.2 1.9-1.8 1.1 5.1.7 6.8 7-1.1 1.5 1.8.9.3 3.8 3.3 4.2 2.9 1.3 2.8-1.5 3.1 1 .8 2.2-.9 1.8-5.3 2-3.7-2.2-1 4.4 2 2.4-.2 2.2-3.3 2.3-6 .2-4.7-2-1.5 3.6-1.5-1.5-3.4 1-1.5-1.9.4-3.6-1.7 1.6-2.6-1.1-2.6-3.6-5.1-2.3 1.1-2.9-2-.2 1.5-1.1-1.9-1.6-.2-2.4-1.9-.8-1.2-4.8.8-.9-1.5-1.1h3l2.8-4-1.5-3.4 4 1 .9-1.4 1 .9.2-1.8 2.4.7v-1.5l2.7.6Z"/><path id="FR-82" d="m217.5 356.6 2.5-.7-1.9 1.9 4.5 4 3.1-1.3-.7 2.8 2.6 1.5 3.8-4.5 2.4 3.3 1.6-.9-.5-2.6 2.4 1.5-.2-1.4.8.8 1.4-1.5 6.3-1.2-.4 2.2 3.4.9-2.7 3.1 3.4 2.7-2.8-.6v1.5l-2.3-.7-.2 1.8-1-.9-.9 1.4-4-1 1.5 3.4-2.8 4h-3l1.5 1.1-.8.9-2.2 1.5-.5-1-.9 1.8-2.9-.9-.2 1.8-2.2.3 2.2 1.3-5 2.3-2.2-2.6-6.7 1.6-2-.2.3-5.1-5-1.8 3.3-5.3-3.1.8-.8-1.7 1.7-3.7 3.6.3-1.4-2.2 1.8-.3 1.5-4-2.8-1.7.9-3.4 1.5 1.7 4.2-1.6Z"/><path id="FR-83" d="m378.4 387.3 2.4-.7.7 1.4 2.6-1.9 3.3 4.2 6.6-6.1 5.8 3.1 1.1-2.7h7.5c0 .1.8 2.1.8 2.1l3.3.3 1.6 5.3 3.9 1.4-1.2 3.3 1.7 2.5-2.5 3-3.8-.2-.9 3.2-4.5 3.2 3.8.6-2 4.4-2.7-.8-6.1 2.1-.6 2.6-5.6-1.3-1.5 1.3-.2 2.9h-2.1l1-2.5h-3.5l-3.4-2.1-1.4 1 2.3 1.6-4.1.9-.7-3.1-3.9-1.3-.9-1.7.4-2.6 2.7-2.2-3.1-1.7 1.1-1.8-.8-2 3.6-1-3.1-2.9.9-3.2-2.4-1.1 1.5-3.3 3.3-.8.6-1.4-2-1.6.2-.4Z"/><path id="FR-84" d="m340.4 358.9 4.7.8 1 4.1 8.3-3.8 1.7 1.4 2-1.8-.4 4 6.8.8 1 2.8 4 1.9.2 2.5 1.4-.2-1.2 5.5 3.4 1.7-2.2 4.7 3.7-.4 3.6 4.4-.2.4-5.2 3.1h-2.6l-7.5-3.7h-4.5c0 .1-4.3-2.3-4.3-2.3l-3.3-4.3-7.4-2.2 3.5-4-4.2-3.5v-5l-2.4-4V359Zm11.6-4.3.4.4 2.4 1.7-2.9 4-3.3-.6-.5-2.2 2.4-3.1 1.6-.4Z"/><path id="FR-85" d="m103.9 227 .7 2.7 2.5 1.2.2 2.7-2-3.2-3.2-1.7-.2-1.7h1.9Zm9.3-.1 2.7 3.4 5.3 1.7.8 2.2 6 1.2 1.6-1-1.9-6.7 1.8-1.3 1.1.4.3 5.2 3.4-1.5-.5-3.7h2.7c0-.1 1-2.7 1-2.7l4.2 2.8 3.2 1.2 2.7-.7 2.9 2.1 2.9 2.7-.8 1.8 4.5 3.7-1 2.1 2.4 3.4-.8.7 1.5 1.1-.8 1.2 1.5.9.4 3.6-1.5 1.4 1.3 3.3-1.1 2.8 1.2-.8 2.3 1.4-3.7 3.4-3.5.6-1.8-1.9-4.5 1.6-1-.6 1.1-2.4-6.4 2.7h-2.9l-.1 2.3-3.8-3.2.7 2.1-1.6-2.5h-4.3l-1.6-3.1-4.6-.8-5.6-3.7-1.5-5.7-9.8-10.6-.3-3.4 6-7Z"/><path id="FR-86" d="m177.5 225.2.5-1.8 1.7.7 1-3.7 2.1-.2.9 2.3 3.5.2v2.8c-.1 0 4.2.4 4.2.4l.7 6.1 9.4-1.3-1-2.5 4.2 1.6.4 3.5 3.1 2.7 2.4 5.1 2 2.5-.6 4.8 8.1 4.7v2.8c.1 0 2.2.7 2.2.7l-1.2 2.4-1.7 1.8-2.8-.7-1.5 4.1-3.5-.4-1.8 2.9h-1.4l.5 5.1-3.8-.6-.9 2.2-3.1 1.2-3.6-3.2-1.7 1.7 1.3 1.8-1.9.9-8-2.3.9-3.1-3.8-1.4 2.4-7.1-1.8-.9-1.6 2.1-2.1-1 .6-2.3-1.9-1.3.5-3.4-1.2-.8 1.3-4.3 1.7-1.1-1.9-1.1.4-1.4-2.3.7 3.7-5.2-2.1-1.8 1-2.3-1.9-.3 2.8-1.7-2.4-1v-5.4l-1.8-.2-.5-3.9Z"/><path id="FR-87" d="m221.4 259 4.3.7 1.7-1.4 2.1 2.7.8 3.7-2.2 2.8 4.2 3.6-.4 1.8 1.9 1.3-.3 3.4 1.5 1.5-2.3 2.3 4.4.3v1.7c.1 0-1.6.5-1.6.5l2.4 2.3 3.8-1.6v1.7l3.8 1.8.5 4.8-.8 1.6-3-.8-7 6.1-3.6-.4-4.4 4.8-2.2-1.1-1.1 2.3-4.5-1.5 1.6-2.4-2.8-.3-2.3-3.9-4.1.5-1-1.1-1.9 2.3-2.1-2.1.8-2.4-5-2.1 2.9-2.6v-2.1c-.1 0 2.3.6 2.3.6l1-6.9 1.6.7 2.8-2-.5-2.6-3.8-2.1.4-3.8-.5-5.1h1.4l1.8-2.8 3.5.4 1.5-4.1 2.8.7 1.7-1.8Z"/><path id="FR-88" d="m424.9 151.4-1.4 8.3 3.6.7.7 1.5-4.8 8.5.6 1.8-4.6 5.6-1.6 5.6.8 2.1-2.9 1.4-.4.4-7.5-6.7-4.3 3.1-3-3.8-6.3 1.5-2.5-4.7-3.1 1-3.1 3.5-.6-2.1-1.7 2.6-1.3-2.5-2 1.2-.4-4.1-5.1-2.6 1.5-1.2.3-3.6 1.7-.8-7.1-7.9-3.4.9.5-2.5-1.7-.6 2.6-1.5 5.2-.3.7-2.4 2.6.7 1.6-1.9h4.8c0 .1-1.7 4.5-1.7 4.5l2.6-1.2-.9 1.7 1.6.2.4 2.4 3.8-.5.6-1.2 1 1.6 1.2-2.8 2.8.5 2.1-1.9 3.2 2.2 5-2.1 1.6.8-.4-1.3 1.8-1.6.8 2.3 4.7 2.1 11.5-6.5Z"/><path id="FR-89" d="m281.6 169.5 3.8-4.4-1.1-2.8 1.1-2.8 12.6-1.6.5 1.6 2.6-.4 4 5-1.4 4.3 1.8-.3 1.3 2.6 2.8-1.3-.3 1.7 1.8.8 2.8 5.3-.7 1.6 1.5-.9.6 1.1-.6 2.6 5.1.2.5-1 1.7 1 2-1.7 1.2.9.8-1.6.6 2.1 1.7.3.6 1-2.2 1.6.8 1.8 2-.4v4.6c.1 0-3.1 1.7-3.1 1.7l1.6 2.1-1.9.2.8.9-4.6 7.3.3 3.4-2 2.1 1.4 3.4-3.6 1.5-1.8-4.2-2.6 1.4-.2-3.5-1.7 2.8-1-1.3-2.1.3-1.8-2.6-3-.3-3-5.3-.4 3.4-3.3-.6-1.6 1.9-6.3-2.5-2.1-3.5-2.8 1.6-1.5-.6-1.7-5.7-2.7-1.8v-2.1c.1 0 6.1-1.5 6.1-1.5l-.6-6.1 4.1-3.4v-2.9c-.1 0-2.7-2.2-2.7-2.2l-.7-3.1-3.2-1.5Z"/><path id="FR-90" d="m415.3 186.9 1 2 5.8 3-1.1 6.1 2.8.5 1.6 4.5-5.1.5.6 2-2.1 1-1.1-2 1.3-2-1.5-1.8-3.2-.6-1.7-9.4 2.2-3.4.4-.4Z"/><path id="FR-91" d="m256.2 138.4 3.8 1.2 3.7 1.3 3.4-1.1 2 2.4-2.5 7.5.2 6 1.5 1.4-2.5.6-2.4 3.8-2.6-.9-2.9 1.8-1.4-2.3-1.4 2.3-5.8.6-1.2-1.2.7-4.7-1.7-.2-.2-2.7 1.9-3.5-1.5-1.8 2.8.2 1.5-3-1.8-2.3 2.9-1.9.2-2.1 3.1-1.5Z"/><path id="FR-92" d="m259.2 128.9 1.8.5-.5 2.1-3.3 2.3 3.6 1.8-.9 4-3.8-1.2-1.7-4 2-3.4 2.8-2.2Z"/><path id="FR-93" d="m268.4 125.6 1.8 4-1.5 2.5 1.2 4.2-2.1-2.5-4.2-.2-.6-2.2h-2.4l.5-2.1-1.8-.5 2.9-1.2 2.5 1 3.8-3Z"/><path id="FR-94" d="m263.6 133.7 4.2.2 2.1 2.5.6 2.3-1.4 3.7-2-2.4-3.4 1.1-3.7-1.3.9-4h4.3c0-.1-1.6-2-1.6-2Z"/><path id="FR-95" d="m239.4 114.2 1.2.4v2.3l3.3.9 5.7-.6 2.7-1.8 3.1 2.4 1.6-.8.3 1.4 3-1.8 6.1 4.2 2.2-.9 1.2 2.3-1.4 3.6-3.8 3-2.5-1-2.9 1.2-2.8 2.2V129c.1 0-2.8-3.4-2.8-3.4l-3.3 1-4-2.6-1.1 1.6-1.6-3.1-3.7 1.7-3.9-1.7 3.3-8Z"/></g></svg>