<?xml version="1.0" encoding="UTF-8"?>
<svg id="Layer_1" xmlns="http://www.w3.org/2000/svg" xmlns:amcharts="http://amcharts.com/ammap" version="1.1" viewBox="0 0 512 512">
  <!-- Generator: Adobe Illustrator 29.1.0, SVG Export Plug-In . SVG Version: 2.1.0 Build 142)  -->
  <g id="_x3C_defs">
    <amcharts:ammap bottomLatitude="41.366975" leftLongitude="-5.185287" projection="mercator" rightLongitude="9.560553" topLatitude="51.089515"/>
  </g>
  <g>
    <path id="FR-01" d="M344.8,269.3l5.5-16.9,4,1.7,3.8-1.7,2.3,3,2.7.6h0l-.5,1.6,2.7,1.5.9,3.5.7-1.8,1.8,1.6v2.5c0,0,2.2-.2,2.2-.2l3.6-3.8,2.4,1.8.4,2.4,4.9-.2,6.7-7.5h0l3.6,2.4-2.3,4.1.8,1.7-5,1.7-.8,4.1h0l-2.2.7-.2,1.6-2.3-.9.3,8.1h0l-1.8,10.5-2.5.7-.5,3.4-2.1,1.4h0l-9.3-13.2-4.4,5.6-4.2-2.2h0l-6.3.5-1.3-4.6h-2.6s.1-1.2.1-1.2l-2.7-1.1.6-7.2,1.9-3.1-.8-1.2Z"/>
    <path id="FR-02" d="M289.7,73l6.5-1.3,4.4,1,1.8-1.9,4,1.3,1.9-2.1,5.4,1.7.5,1.5,3.3-1.8v2.7c0,0,5.5.7,5.5.7h0l3.1,1.1h0l.7,4.8-1.6,4.7,1.5,1.2-4.2,4.2-.4,2.4-3.1.6,1.9,2.7-1,8.7h0l-.4,2.4-3.9-2.4-2.3,1.4v1.9c-.1,0-2.7-.6-2.7-.6l-4.5,2.2.3,5.3,3.2,2.8-4.3.4-.7,1.6,1.3,2.2-1.8,2.1,2.2-.3.9,1.5-6.6,8.4h0l-.8.8-2.7-1.8-.5-2.9-1.3,1.1-.8-2.1-1.4.5-3.3-3.8v-4.5c0,0-3.3-.9-3.3-.9h0l2.6-2.3-1.6-2-.4,2v-1.7c-.1,0-2.8-1.2-2.8-1.2l.5,2.4-2.2-2.9,2.8-.3v-2.8c0,0-1.9,0-1.9,0l-.6-2h2.6c0,0,1.7-5.6,1.7-5.6l2.4-.4-2-1.4-.5-2.5,1.5-3.2-1.5-2.5.9-4.4h0l-2.2-6.7,5.1-8.1-1.7-.4.6-1.1Z"/>
    <path id="FR-03" d="M259.1,257.3l2.7-4.8h6c0-.1,2.7-1.8,2.7-1.8l-1.5-5.3h2s-.1-1.6-.1-1.6l3.1-2.7,1.6,1.4,2.9-.4,2.6-3.4h3.8c0,0,5.9,5.8,5.9,5.8l2.3-2.1,2.7,1.6,2.5-1.5,2.1,3.2,2.7-1.9-.5-1.7h1.7c0,0,0-2.1,0-2.1l1.1.8h0l3.9,10.5,3.3.4.9,2.1,3-.2,1.6,1.5.2,6.7-3.6,2.6h0l-4.5,1.8,2.2,11.8-4.2,1.3-.5,2.1h0l-3.5-4.6-4.4.8v-2.6c0,0-1.6-.7-1.6-.7l-3,1.4-6.9-1.2-1.3-2.2-2.6.6-3.5-3.7,1.1-3.1-.9-.5-3,.2-.8,2.5-2.6-1.3-3.2,5.1-2.5-1.2h0l-2.9-6.8-6.2-3.1,1.1-1.3-1.6-.6-.2-1.9Z"/>
    <path id="FR-04" d="M375.5,365.5l4.1-1.1,3.9,1.1-2.9-4.4,1.4-.7,1.9,2.3-.7-4.2,1.7-2.8,4.3-2,.3-1.9,2.6.8,2.4,3.8,1.2-1.4-1-2.4h3.2c0,0,1.2-2.9,1.2-2.9l3.6,3.4,5.6.2,1.6-4.5,9.3-5.5h0l.6,1.8-3.8,4.3,3.2,4.8-1.9.4-.2,2.9h0l-2.6,1.4-4.3,7.7,2.1,6.1,6.7,6.7-2,.5-1.9-1.4-2.8,2.2-2.6-.8,1,1.5-1.2,1.3,1.5.8-2.6,1.2h-7.5c0-.1-1.1,2.6-1.1,2.6l-5.8-3.1-6.6,6.1-3.3-4.2-2.6,1.9-.7-1.4-2.4.7h0l-3.6-4.4-3.7.4,2.2-4.7-3.4-1.7,1.2-5.5-1.4.2-.2-2.5h0l2.7-1.7v-1.7s3.4,2,3.4,2l-1.2-1.1,1.1-1.1Z"/>
    <path id="FR-05" d="M395.5,320.6l2.5.2,1.1,2.6,3,.9,2-2.8h4.1s1.4,4.4,1.4,4.4l2.4.3.2,5.3,3.9,2.6,2.5-.6,3,1.9-.8,1.7,2.6,5-3.1-.3-1.3,1.7h0l-9.3,5.5-1.6,4.5-5.6-.2-3.6-3.4-1.2,2.8h-3.2c0,0,1,2.5,1,2.5l-1.2,1.4-2.4-3.8-2.6-.8-.3,1.9-4.3,2-1.7,2.8.7,4.2-1.9-2.3-1.4.7,2.9,4.4-3.9-1.1-4.1,1.1h0l.4-3.6-2.7-1.9.7-1.3-4.7-.2-2.5-4.1,2.7-.5-1.3-3.1,4.9,1.6,2.1-1.7-2.3-2,1.5-5.1,5.1-.2,1.4-1.8-1.1-.8h0l1-2.6h4.3s1-1.1,1-1.1l-1-1.1,2.5-1.6,1.2,1,2.7-2.3,7.6.5-1.1-6.9-4.1-.8,1.9-5.3Z"/>
    <path id="FR-06" d="M417.6,357.6l4.3,6.4,5.4,1.1,5.8,4.1,11.2-2.8-.6,2.1,1.7,2.3-2.2,5.2-5.3,4.8,1.2,4.1-1.5,1.8-5.1,1.7-.2,1.7-.6-1.4-5.4,2.5-.7,5.1-1.4-1.2-2,1.7-2.3-.5-1.5,3.2h0l-1.7-2.5,1.2-3.3-3.9-1.4-1.6-5.3-3.3-.3-.8-1.9h0l2.6-1.2-1.5-.8,1.2-1.2-1-1.5,2.6.8,2.8-2.2,1.9,1.4,2-.5-6.7-6.7-2.1-6.1,4.3-7.7,2.6-1.4h0l.6.2Z"/>
    <path id="FR-07" d="M344,309l1.6,3.4h0l1,6.8-1,1.6,2.8,9-4.3,7.9.7,5.4-3,4.8-1.5,11h0v2.8h0l-4.9-3.5-1.8.3-.5,2.6-1.5-.3v-2.7c-.1,0-2.4.4-2.4.4l-2.4,3.5-4.4-3.4-2.7.9.6-4.2-2.4-2.6h0l-1.2-4.6-2.1-1.9-1.4-7.2h0l2.1-1.2.9-2.8,2.7-.3.2-1.9h4.2s2.3-4.4,2.3-4.4l3-.5-.6-2.2,2.9-1.1-1.2-1.3,1.8-1.8-.9-1.9,2.9,1.2.9-5.7h0l4.1-.7.5-3,4.8-2.6Z"/>
    <path id="FR-08" d="M346.7,65.4l2.1.9-2.6,3.8.7,1.4-1.8,3.7,3.4,3.1-1.4,2.3.2,3.9,4.9-.4,3.4,2,2.5,3.7h3.6c0-.1,2.1,2.1,2.1,2.1l-.6,2.3,2.8-.3h0l-4.6,3.9-5.1-2.7-1.8,4.8,1.8,2.2-1.2,2.9.8,1.3-2.5,2.2.8,3.2-3.4,1.9h0l-.9-1.5-1.6.2-.4,1.8-6-1.6-1.9,1.4-1.2-3.1-5.2,1-2.3-2.7h-2.5c0,0-2.1-3.1-2.1-3.1l-6.8-1.2h0l1-8.7-1.9-2.7,3.1-.6.4-2.4,4.2-4.2-1.5-1.2,1.6-4.7-.7-4.8h0l2.7-.6,4.7,1.7,8.2-3.2.5-5.1,4.6-3.1Z"/>
    <path id="FR-09" d="M210.4,430l-1.1-4.2,6.8-4.5-1.2-.7.5-4.1,1.3.7.5-2.2,2.4-.4,3.4,3.2,2.7-1.7-3-1.9,5.6-2.5v-1.3c0,0-2.9-1-2.9-1l1.3-2.4,4.6,5.1,1.4-.6-.4-3.3,4.8,2.6,1.8-1.7h0l.8,4.1,2.5,1.6,2.3-.4,1.3,2.1,2-.2-.2,3.3,1.5.8.7,3.3-2.5,1,1.6.5.2,2.7-3.8.9-.5,1.6,3,3.8,4.7-.7,2.9,2.6-.2,1.5h-5.7c0,0-.8,2.1-.8,2.1l-6.4,2h0l-2.1-.7.3-1.2-6.3-1.8-2.4.2-1.5,2.3-2.8-5.4-6.4.5-3.1-3.7h-5.3s-2.3-1.6-2.3-1.6Z"/>
    <path id="FR-10" d="M303,146.1l2.8,4.1,6.4,1.2,1.4-1.2-.5-2.2,1.7.3,6.2-6.6,1.8.8,5.8-1.4,1.2,1.9-.6,3.3,2.9,2.8,4.9,1.8,1.6-1.4,2.6,1.1h0l-1.4,3.6,2.7,3.6,4.6,2.5-.9,1,1.7,2.9-.9,8.2-3.5-.6-2.5,2,2.2,1.7-.6,1.2h0l-4.1-.5-1.7,1.2.6,2-8.2.3-.7,1.9h0l-1.7-.3-.6-2.1-.8,1.6-1.2-.9-2,1.7-1.7-1-.5,1-5.1-.2.6-2.6-.6-1.1-1.5.9.7-1.6-2.8-5.3-1.8-.8.3-1.7-2.8,1.3-1.3-2.6-1.8.3,1.4-4.3-4-5-2.6.4-.5-1.6h0l-1.1-4.6,1.9-.6-1.1-1.9,2.6-.7-.6-1.5,3.3-2.4Z"/>
    <path id="FR-11" d="M250.6,401.3l1.5,1.9,3.4-1,1.5,1.5,1.5-3.6,4.7,2,6-.2h0l.7.8-1.8,2.7,2.7,2.9,2.4-1.8.6,2.3,2.3.8,1.2-2.9,2.1-.5v-2.4s.7,2.6.7,2.6l3.9.4.2,2.2,6.2,1.1,1.6,1.8h0l-6,9-.7,8.4h0l-6.2-3.7-2.6,1-1.7,2.8-13.7-.2.6,5.3-5.5,3.5-1-.6h0l.2-1.5-2.9-2.6-4.7.7-3-3.8.5-1.6,3.8-.9-.2-2.7-1.6-.5,2.5-1-.7-3.3-1.5-.8.2-3.3-2,.2-1.3-2.1-2.3.4-2.5-1.6-.8-4.1h0l1.1-3.2h3.1s-.4-2.4-.4-2.4l1.7-2.4,1.7,2.3.5-1.3,2.4.6,1.4-1.3Z"/>
    <path id="FR-12" d="M256.7,345.2l.3-1.6,2.7-.9,2,1.3,4.5-.5,2.6-3.3,1.5-6.1,4.5-4.6,1.2,4.1,3-.9,4.2,11.1h0l3.6,4.1-.7,2.7,2.7,3.1-.8,8.4,1.1-.6.3,1.5,2.4.7-.9,1.9,5.4-.5.4,1.4h0l-3.8,3.7,6.4,3.3-3.1,5.2h0l-3.2.9-1.9,3.9-4.9-1.1v6.7c-.1,0-4.4,0-4.4,0h0l-.8-2.2-3.1-1-2.8,1.5-2.9-1.3-3.3-4.2-.3-3.8-1.8-.9,1.1-1.5-6.8-7-5.1-.7,1.8-1.1-3.2-1.9-5.2,2.5h0l-3.4-2.7,2.7-3.1-3.4-.9.4-2.2h0l1-.9-2.5-5.9,1.7-1.2,1,.9,4.8-4.6h4.7c0-.1.4-1.6.4-1.6Z"/>
    <path id="FR-13" d="M343.5,378.3l7.4,2.2,3.3,4.3,4.3,2.4h4.5c0-.1,7.5,3.6,7.5,3.6h2.6s5.2-3,5.2-3h0l2,1.6-.6,1.4-3.3.8-1.5,3.3,2.4,1.1-.9,3.2,3.1,2.9-3.6,1,.8,2-1.1,1.8,3.1,1.7-2.7,2.2-.4,2.6h0l-1.7-.3-.6,1.2-2.3-2.6-6.2.3.7-2.2-1.7-4.7-9.5,1.4-2.7-4.7-2.8.6-.9-1.9.6,2.1-1.8-.7,1.8,3.2-1.4,1.3-8.7-1.5.3-2.9-2-1.4-10.4-.4h0l.4-1.9,2.8-1.4-.3-1.3.7.9,4.4-2.5.4-1.1-1.6-.5,2-3.5,4.9.6,1.4-7.5-.9-1,3.4-2.7Z"/>
    <path id="FR-14" d="M191.2,103.6l.4,7.8h2.5c0-.1-2.2,1.8-2.2,1.8l2.5,2-.3,3,1.7.7-.5,3.4-1.8,1.2,2.7,1.7-1.1,3.6h0l-4.7-.9-4.2,2.2-1-1.4-6.6,5.8-2.7.2.8,1-6.1-2.2-1.4,1.8-2.1-2.5h0l-5.6,2.1h0l-4.1-.9-.7,2.4-4.3,2.5h0l.6-1-2.1.8-2.3-1.7-4.5.6-2.6-2.6,4.8-4.1v-1.1c0,0-2,.2-2,.2l.7-1.8,3.8-.4,2.9-3.4-.6-4.5-1.5.7,1.2-1.4-2.5-1.7,2.5-2-1.3-1.6-1.6,2.1-3.6-2.3-2-1.9.7-3.8h0l1.4-2.4,4.2-.4,4.4,2.1,14.7,1.3,5.9,2.7,7.6-2.2,4.4-4,5.4-1.7h.4Z"/>
    <path id="FR-15" d="M267,303.5l6.2,2,.9,2.7h5.8c0,0,4,4.5,4,4.5l3.8-3h0l-1,3,4.8.6,2.3,7.6,2.5.8h-2.7s2.7,6.4,2.7,6.4h0l-2.6,2.1-1.5-.4-1.7,3.5-1.7-1.9-1.3.8-4.2,11.6h0l-4.2-11.1-3,.9-1.2-4.1-4.5,4.6-1.5,6.1-2.6,3.3-4.5.5-2-1.3-2.7.9-.3,1.6h0l-2.7-3.8,1.4-4.4-2.8-4.1-1-4.9h0l2.8-1.2-1.5-2.8,2.6-1.1.2-2.7,1.8-1.5-1.3-2.6,5.7-5.6-.2-3.8,4.3,2.2,1.5-.6-1.2-1.8.7-2.9Z"/>
    <path id="FR-16" d="M187.6,273.3l8,2.3,1.9-.9-1.3-1.8,1.7-1.7,3.6,3.2,3.1-1.2.9-2.2,3.8.6h0l-.4,3.8,3.8,2.1.5,2.6-2.8,2-1.6-.7-1,6.9-2.4-.6v2.1c.1,0-2.8,2.6-2.8,2.6h0l-2.2,3.7h-1.9s-.2,4-.2,4l-2.5,3.2-3.5,2.1-1-.8-1.9,4.4.7,3.5-4.5,4.4-2.7-1-1.7,1.7h0v-1.8s-4.1-1-4.1-1l.2-2-3.8-1.6-2.2.6,1.4-2.5-2.3-1.2,2.6-1.3-1.8-2.2,1.5-2.2-2.8-1.6.4-2.1-4.2-2.3,1.7-1.5-1.4-1.5.7-2.4-2.1-.4,6-3.1,4.5,1.3,1.5-4.5-1.3-2.7h1.8c0,0-.2-2.1-.2-2.1h0l2.2-1.1v-3s1.9,0,1.9,0l2.7-2.6,3.2.5Z"/>
    <path id="FR-17" d="M132.8,275.7l5.8,3.2,1.7,4.8-1.5,4.3-1.3-4-4-3.6-.7-4.6ZM129.2,265.3l1.3,1.2h-1.4s.4,1.5.4,1.5l3-1.3-.9,1.1,6.5,2.3-2,1-7.7-2.9-1-2.1,1.8-.7ZM142.7,262.4l6.4-2.7-1.1,2.4,1,.6,4.5-1.6,1.8,1.9h0v2.9c-.1,0,2.1,1.4,2.1,1.4v1.8c0,0,2.9,1.1,2.9,1.1l-.5,1,2.3-.4,1.6,2,2.9-.4,1.9,1.9,2.5-.6,1.1,1.7,3.4.7,1.9,3.3h0l.2,2h-1.8c0,.1,1.3,2.8,1.3,2.8l-1.5,4.5-4.5-1.3-5.9,3.1,2.1.4-.7,2.4,1.4,1.5-1.7,1.5,4.2,2.3-.4,2.1,2.7,1.6-1.5,2.2,1.8,2.2-2.6,1.3,2.3,1.2-1.4,2.5,2.2-.6,3.7,1.6-.2,2,4.1,1v1.8h0l-1.5,4.4h0l-1.9-.9-3.3,1.3-5.5-3.6-1.1,1.3-1.4-6.5-4.9-.9-.8-2.4-.3,1.3-4.1-.3h0l-3.6-8-4.9-3.2-2.1-3.2-7.3-3.4v-4.6s3.5-.8,3.5-.8l-1.4-2.6,2.5-.7.9-2.7-1.1-3.4,1.9-.4-3.6-7.5h-2.4c0,0,1-2.8,1-2.8l3.2-2.7-.3-2.6Z"/>
    <path id="FR-18" d="M257.7,197.1l1.7-.4,2.8,2.2,2.3-1.2,1.8,2.1,2.5-.2,3.6,4.4,1.9-.5.2-2.2,2.6,2.2,2.3-1.3h0l1.9,4.2-2.2,5,3.9,3.9,1.2,9.9,2.1,2-1.6,11.4h-3.8c0,0-2.6,3.5-2.6,3.5l-2.9.4-1.6-1.4-3.1,2.7v1.6c.1,0-1.9,0-1.9,0l1.5,5.3-2.7,1.7h-6c0,.1-2.7,4.9-2.7,4.9h0l-3.8-.2h0l-.5-1.7,1.8-1.3-1.6-3.6,1.1-4.3-3.5-3.5-.7-1.9,1.7-1.5-2.5-3,1.1.3,2.7-3.8-2.9-1.1,1.2-3.2-2.7-2.6.7-3-1.5.7-.3-1.6-4.1,1.2-3.5-1.4,2.3-2.5v-2.1h0l2.1.3-.2-2.1,1.6-1.7,2.8,1.4,4.6-1.9-2.1-3.4.6-2.8,2.5-.9,1.4,1.5.6-4.3-1.7.2v-2.9s-2.4-.3-2.4-.3l-.3-1.6,4.1-1.9Z"/>
    <path id="FR-19" d="M246,292.8l5.2-3.3,1.2,1.8,2.7-.4,1,1.9,2.6.4v1.3c0,0,7.6-3.6,7.6-3.6h0l1.3,3.9-2.4,3.1,1.9,2-.3,3.7h0l-.7,2.9,1.2,1.8-1.5.6-4.3-2.2.2,3.8-5.7,5.6,1.3,2.6-1.8,1.5-.2,2.7-2.6,1.1,1.5,2.8-2.8,1.2h0l-3.9,1.1-1.4-1.2-3.6,2.6-5.3-5.1-3.7-.9-3.1,1.3h0l-2.4-4.1,1.2-1-3.5-.4-1.9-1.5,1.2-1.2-2.1-.8,1.7-1.8-1.8-1.5.3-2.4,3-2.9-2.3-.8,1.2-1.7-1.4-.5h0l1.1-2.3,2.2,1.1,4.4-4.8,3.6.4,7-6.1,3,.8.8-1.6Z"/>
    <path id="FR-2A" d="M474.8,450.5l6.8,2.6,3.1-.2,1.5,3.5,4.8,2.1,4,8.4h2.1c0-.1.4,8.1.4,8.1l2.9.8,2.9-1.2h0l-.5,9.3-1.2,1.8-1.6-.5-.7,2.4,1.1-1.3,1.8.5-3.3,2.9.2,3-2.1,2.5,1.7-.7-1.8,2.6-4.1-1.1.7-2.1-1.7-1.2-7.7-2.4v-1.3c0,0-1.9-.4-1.9-.4v-2.9c0,0,4.4-3.2,4.4-3.2l-4.6-.6-.2-1.9h-4s2.5-1.6,2.5-1.6l-.6-1.2,2-.4,1.1-3.8-1.9-1.7-4.8,1.8-.5-3.3,2.5-.6-.2-1.6,3-1.7-1.6-2.9-1.4.5-3.5-2.1,1.2-1-1.8-3.2,5.2-1.4-3-1.7v-2c.1,0-1.8.7-1.8.7l.7-2.2Z"/>
    <path id="FR-2B" d="M503.9,421.2l1.4,1.2,1,8.4-1.6,6.1,3,5.8.9,16.3-.3,4.2-4.7,6.9-.3,4.3h0l-2.9,1.2-2.9-.8-.4-8.2h-2.1c0,.1-4-8.3-4-8.3l-4.8-2.1-1.5-3.5-3.1.2-6.8-2.6h0l2.9-1.7.3-4.6,1.8-.4-.4-2.4,2.7.9.5-2.1,7.3-1.8,3.8-4.2,3.3-.2,2.6,2.7,1.6-2.8-1.2-4.5,1.7-4.3-.6-3.2,2.9-.8Z"/>
    <path id="FR-21" d="M322.1,222.2v-1.1c0,0,2.4-.2,2.4-.2h0l-.4,1.9-2.1-.6ZM328.1,181.6l.7-1.9,8.2-.3-.6-2,1.7-1.2,4.1.5h0l3,.8-.3,2.2,2.8,1.1-1.2,1.6,2.5-.6,3.1,5.2-2.7,2.7,1.5.3.3,3.9,2.1-1.2,3,3.3,2.1-1.7-.2,1.4,2.9,1.5-.3,2.3,1.9-1.7,2.2.2h0l1.9-1.3,1.7,1.3.3,4-4.1,3.2,2.5.7-.2,2.9,2.3.2-1,3.7,1.7.7h0l-2.7,8.1-1.8,3-3.5,1.7,1.2,1.8-2.1,1.7h0l-5.4,1.8-1.7-1.8-5.3.7-7.1,3.3-4.8-4.6.2-1.4-4.4-.9-.9-2.3-1.6,1-.3-1.9-2.5-.3-2.2-2.4h0l.6-2.7-1.7-2.3-1.5.8.3-5.9-1.3.8h0l-1.4-3.4,2-2.1-.3-3.4,4.6-7.3-.8-.9,1.9-.2-1.6-2.1,3.2-1.7v-4.6c0,0-2.1.4-2.1.4l-.8-1.8,2.2-1.6-.7-1Z"/>
    <path id="FR-22" d="M70.5,133.1l.3,1.7,4.4-1.6v2.4c0,0,2.6-.2,2.6-.2l-1.2,2,3.9,1.4-.4,1.9,4.4,3.7-.2,2.8,3.7,2,1,3v-1.8c.1,0,1.9.3,1.9.3l2.6-3.8,2.8-1.2-.5-1.2,2.4.7,3.4-2.9,1.1,1.3-1.7,2.2,3.2-1.3.9,4.1.7-2.3.6,1.8,1-2.2.9.9h0l2.8,3,1.3-1.3h0l.8,3.5,1.1-2h1.2c0,.1.2,2.9.2,2.9l-1.4,2,.8,4.9-1.4.2.4,2.6-3.3-.3-1.8,2.4h-2.6c0,0-1.8,5.5-1.8,5.5l-1.8.5h0l-2.4,1.2-2.3-3.2-3.8.8-.4,4.2-3.7,2.3v-5c-.1,0-3.4.7-3.4.7l-.7,1.5-1-3-6.7-.8-1.3-2.2-2.7-.2-.9,2.2-4.5,1.2-2.2-1.6-2.8,1.3-.9-2.2h-4.1c0,0,1.6-.1,1.6-.1l-1.3-1.7,1.3-4.8h-1.1c0,0-.1-3.2-.1-3.2l-1.7-.5,1.9-3-1.9-1.6,2.3-3.1-3.5-3-.6-3.3h0l3.1-1.2-.4-6.4.9.8,1.7-2.5,3.6,2,5.9-3.5Z"/>
    <path id="FR-23" d="M229.5,260.9l3.8-4,.7,1.7,2.2-1.4.7,1.7,2-1.5,1.5,1.4,1.8-3.3,1.9,1.5h11.3c0,0,3.8.3,3.8.3h0l.2,1.9,1.6.6-1.1,1.3,6.2,3.1,2.9,6.8h0l-.6,2.8,2,5.9-4,5.1-3.6,1.8,3.5,4.4h0l-7.7,3.6v-1.3c0,0-2.5-.4-2.5-.4l-1-1.9-2.7.4-1.2-1.8-5.2,3.3h0l-.5-4.8-3.7-1.8v-1.7s-3.8,1.6-3.8,1.6l-2.4-2.3,1.8-.5v-1.7c-.1,0-4.6-.3-4.6-.3l2.3-2.3-1.5-1.5.3-3.4-1.9-1.3.4-1.8-4.2-3.6,2.2-2.8-.8-3.7Z"/>
    <path id="FR-24" d="M202.6,292.3l5,2.1-.8,2.4,2.1,2.1,1.9-2.3,1,1.1,4.1-.5,2.3,3.9,2.8.3-1.6,2.4,4.5,1.5h0l1.4.5-1.2,1.7,2.3.8-3,2.9-.3,2.4,1.8,1.5-1.7,1.8,2.1.8-1.2,1.2,1.9,1.5,3.5.4-1.2,1,2.4,4.1h0l-1.3.7,1,6.3-4.8,3.9.6,2.7-5.7,3.4-2.5,4.6h0l-3.3-3.4-5,2.1.6-3.3-1.9-1.5-3.8,1.2-2-1.5-2.6,1.9-6.7.5-2-5.2h0l-1.2-3,1.7-.9-1.3-1-1.3-.2-1.6,2.5-7.7-1.6,2.3-3-1.1-1.6,2.4-5.9-1-2.2-2.9.7h0l1.5-4.4h0l1.7-1.7,2.7,1,4.5-4.4-.7-3.5,1.9-4.4,1,.8,3.5-2.1,2.5-3.2.2-4h1.9s2.2-3.8,2.2-3.8Z"/>
    <path id="FR-25" d="M376.4,215.1l6.8-2.3,1-1.8,1.8,1,4.6-1.8v-1.8c.1,0,1.9.4,1.9.4l1.3-2.1,1.2.9,3.2-4.7,2.6-.8,2,1.8,1-1.2,1.9,1,.8-2.8,2.3.4.4-2.2,3.7,2.2,1.3-1.2h0l3.2.6,1.5,1.8-1.3,2,1.1,2h0l-2.1,4,4.7-1,1.3,2-3.9,2.4.4,2.2-8.7,8.1.6,1.6-9.9,6.1,1.1,2-.4,5.7-11.2,9.2.4,1.6h0l-3.1-2.5,1.9-2.2-1.2-1.9,4.7-3.7-1.9-2.9-4.1-1.4-3.8-8.3-2.6.7-1.3-2.2-2.3,1.3-.3-1.7h1.7s-.5-2-.5-2l2-2.3-4.3-6.3Z"/>
    <path id="FR-26" d="M345.6,312.4l6.4-2.3,3,3,2.1-.7-.6,2.4,2.8,1.4-1.2.8.7,3.9-1.7,2.3,2.6-.5,6,2.4,3.4-2.4-.9,13.7,3.3,1.5-.2-1.3,3.4,3.4,5.2.9h0l1.1.8-1.4,1.8-5.1.2-1.5,5.1,2.3,2-2.1,1.7-4.9-1.6,1.3,3.1-2.7.5,2.5,4.1,4.7.2-.7,1.3,2.7,1.9-.4,3.6h0l-1.1,1.1,1.2,1.1-3.5-2v1.7s-2.7,1.7-2.7,1.7h0l-4-1.9-1-2.8-6.8-.8.4-4-2,1.8-1.7-1.4-8.3,3.8-1-4.1-4.7-.8h0l1.5-11,3-4.8-.7-5.4,4.3-7.9-2.8-9,1-1.6-1-6.8ZM351.9,354.5h0l-2.7,1.3-.7,4.4,3.3.6,2.9-4-2.4-1.7-.5-.5Z"/>
    <path id="FR-27" d="M191.2,103.6l6.9-2.7,2.9,2.8,1.9-.7.7,2.2,4.8-1.3,2.6,2.9,1.3-.7v2.4c0,0-2-.4-2-.4l-.5,1.2,2,1.4,1.3-1.3.5,2.7,1.8,1.1,1.9-.4-.5-2.1,3-.6.8-1.7,3.9-.2,1.2-4.4,2.6-1.8,6.5,1.3,2.7,2.1,2-.4h0l3.1,7-.5,1.5-1.1-1.4-1.7.4-.2,1.7h0l-3.3,8h0l-3.4-.4-.7,1.8h-1.4c0-.1.8,3.9.8,3.9h1.7c0-.1-.6,1.8-.6,1.8h0l-1.8.9.4,2.7-3.4,1.9.4,2.8-1.5,1.1-7.1-1.5-.2,2.2-1.8-.6-1.7,1.7-4.7.5-2.1,2.4h0l-3-1.9,1.6-1.6-.5-1.5-5.1-3.4.2-2.4-6.6-.5-1.3-1.3,1-2h0l1.1-3.6-2.7-1.7,1.8-1.2.5-3.4-1.7-.7.3-3-2.5-2,2.2-2h-2.5c0,.1-.4-7.7-.4-7.7Z"/>
    <path id="FR-28" d="M232.5,129.4l3.3,5.3.2,9.2,6.3,5.6.5,4.5,2.3,1.4,1.8-.9h0l.2,2.7,1.7.2-.7,4.7,1.2,1.2h0l-.8,5.8-2.3.7-.7,3.2-4.7,1.8-4.1-.3-1,2-2.8.2.3,2.3h0l-2.4-1.3-2.7,2.7-5.9-.7-2.9-5.8-4.1-.5,1.6-2.1-3.1,1.7-3.7-.3h0l.3-1.5,2.2-.3-4-2.8h0l1.1-1-2.1-5.6,4.9-2.6,2.1-3.5-1.4-1.9,1-2.4-5.1-4.6v-3h-.1l2.1-2.4,4.7-.5,1.7-1.7,1.8.6.2-2.2,7.1,1.5,1.5-1.1-.4-2.8,3.4-1.9-.4-2.7,1.8-.9Z"/>
    <path id="FR-29" d="M5.7,154.1l1.3,1.2-3.6.6,2.3-1.8ZM44.5,140.5l1.4,3.1.6-1.8,2.7,2,.8-3,6.1,1.2-.5,1.9h0l.6,3.3,3.5,3-2.3,3.1,1.9,1.6-1.9,3,1.7.5v3.2c.1,0,1.3,0,1.3,0l-1.3,4.8,1.3,1.7-1.6.2h0l-5.1,2.3-.7,1.6,3.3,6.5,3.7-.2,2.2,2.2,1.7-1.4.9.8-.2,4.8h-1.7s-1.4,2-1.4,2l-1.3-1.1-.2,4.2h0l-6.6-2.1-4.4.7-3.5-5.3-.7,2h-5.9c0-.1-1.5,3-1.5,3h-6s.7-2.8.7-2.8l-2.5-5.6-3.3-2.2-7.6-1.7.8-1.3,10.2-2.2,4.4.3.6-2.7-1.5-2.5-5.9-1.6-2.4,3.4.5-4-2.9-1.6h2c0-.1,0-2.6,0-2.6l1.3-.5v2.9c-.1,0,1.1-1.4,1.1-1.4v1.6c-.1,0,2.8-.7,2.8-.7l.7,1,3.1-1.2,1.6.9,1.3-1.7h-4c0,0,1.2-.9,1.2-.9l-.9-1.2-4.4,1.5,2-2.9-.8-.6-6.3,3-2.5-.9-3.2,1.3-.8-4.3,1.5-6.7,4.8-1.7,2.3-3.1,2.2.7,4.5-2.8,1.7.7v1.6s3.3-1,3.3-1l.4-1.8,4.4.5.2-1.5,2.4-1Z"/>
    <path id="FR-30" d="M318,352.7l2.4,2.6-.6,4.2,2.7-.9,4.4,3.4,2.4-3.5,2.3-.4v2.7c.1,0,1.6.3,1.6.3l.5-2.6,1.8-.3,4.9,3.5h0l2.5,4v5s4.2,3.5,4.2,3.5l-3.5,4h0l-3.4,2.7.9,1-1.4,7.5-4.9-.6-2,3.5,1.6.5-.4,1.1-4.4,2.5-.7-.9.3,1.3-2.8,1.4-.4,1.9h0l-3.1-1.1-1.4-3.4h0l-.6-1.7,2.4.2,1.5-2.7-1.7-4.5-4.7-3.8-1.5.6.5-1.9-2.2-2.2-3.9.4.8-2.7-1.4-1.4-3.5.7-3.6,5.2-1.7-.5-.5-2-2.8,1.6-.3-2.3h-2.3c0-.1,3.1-5.3,3.1-5.3l-6.4-3.3,3.8-3.7h0l5.8,2.7,3.1-.3,1.3-3.1,4.3,2.8h2.7c0,0,1.7-2.6,1.7-2.6l1.7.9-1.3-1.6,1.3-3-1.8-2.3,1-1.3-2.3-2.7,2.2-.6,1.7-2.9Z"/>
    <path id="FR-31" d="M213.7,384.7l6.7-1.6,2.2,2.6,5-2.3-2.2-1.3,2.2-.3.2-1.8,2.9.9.9-1.8.5,1,2.2-1.5h0l1.2,4.8,1.9.8.2,2.4,1.9,1.6-1.5,1.1,2,.2-1.1,2.9,5.1,2.3,2.6,3.6,2.6,1.1,1.7-1.6-.4,3.6h0l-1.4,1.3-2.4-.6-.5,1.3-1.7-2.3-1.7,2.4.4,2.4h-3.1s-1.1,3.2-1.1,3.2h0l-1.8,1.7-4.8-2.6.4,3.3-1.4.6-4.6-5.1-1.3,2.4,2.8,1v1.3c0,0-5.5,2.5-5.5,2.5l3,1.9-2.7,1.7-3.4-3.2-2.4.4-.5,2.2-1.3-.7-.5,4.1,1.2.7-6.8,4.5,1.1,4.2h0l-6.2-1.5-1.1,3.3,1,4.3-6.9-.4h0l-.9-1.6,1-6.7,2.9.8,2.9-4.7-1.3-3.4-2.7,1.4,1.3-3.3-4.3-2.6,2.6-3.8,1.9-.4-.8-.8,2.9-2.8-.9-.7h0l5.4-5,5.2.5,2.4,2,2-4.4-1-.7,1.9-1.5-.8-1.7,5.1-1.4-8.4-10.3Z"/>
    <path id="FR-32" d="M183.6,375.4l1.9-.9.9,1.4,2-2.4,3,1.5,10-4.3,2.4,2.7,2.7-2h0l.8,1.7,3.1-.8-3.3,5.3,5,1.8-.3,5.1,2,.2h0l8.4,10.3-5.1,1.4.8,1.7-1.9,1.5,1,.7-2,4.4-2.4-2-5.2-.5-5.4,5h0l-9.5-1.5-1.2-2.1-3.9.9-2.2-6.8h-2.2c0-.1-2.3-4.3-2.3-4.3l-2.8,1.1h-5c0-.1-1.3-2.9-1.3-2.9l3-4.5-1.1-3.4h1.1c0,0,.3-2.7.3-2.7l-1.8-1.5,2.1-2,2.9.5,2-2.6,1.5,1.4-1,1.2,2.7,1.6.6-4.1Z"/>
    <path id="FR-33" d="M144.6,299.5l-.2,2.4,9,8.1,4,12.5,3.2,3.8-2.5-5.8-1.6-9.6h0l4.1.3.3-1.3.8,2.4,4.9.9,1.4,6.5,1.1-1.3,5.5,3.6,3.3-1.3,1.9.9h0l2.9-.7,1,2.2-2.4,5.9,1.1,1.6-2.3,3,7.7,1.6,1.6-2.5,1.3.2,1.3,1-1.7,1,1.2,3h-2.4c0-.1-.3,1.9-.3,1.9l-1-1.3-3,2.4,2.9,1.9-3.9,5.3h-2.3c0,0-.6,6.3-.6,6.3l1.3,2-3.5,1,1.5,3.9-3.7,2.2h0l-1.8-2.2-1.2.4v2.9s-5.7-.1-5.7-.1l.2-3.8-8.8-5.4v-2.4s-13.3,1.4-13.3,1.4l1.4-4.1-3.3-1.2-5.8,3.1h0l2.1-9.3,6.4,1.2-2.2-2.9h1.2s-4.6-3.8-4.6-3.8l-2.7,7.7-.5-.9,3.6-40.8,3.3-4.1Z"/>
    <path id="FR-34" d="M296.1,378.7h2.3c0,.1.3,2.4.3,2.4l2.8-1.6.5,2,1.7.5,3.6-5.2,3.5-.7,1.4,1.4-.8,2.7,3.9-.4,2.2,2.2-.5,1.9,1.5-.6,4.7,3.8,1.7,4.5-1.5,2.7-2.4-.2.6,1.7h0l-6.7,1.8-8.9,6.2-4.4,5h-5.8c0-.1-3.7,3-3.7,3h0l-1.6-1.8-6.2-1.1-.2-2.2-3.9-.4-.8-2.5v2.4s-2.1.5-2.1.5l-1.2,2.9-2.3-.8-.6-2.3-2.4,1.8-2.7-2.9,1.8-2.7-.7-.8h0l3.3-2.3.2-2.2-2-2.4,1-4.4,3.7,2.2,5.3-2,.9-1.8h4.3c0,0,.1-6.7.1-6.7l4.9,1.1,1.9-3.9,3.2-.9Z"/>
    <path id="FR-35" d="M108.6,144.8l2.2.2,1.4,3.7h0l-1.3,1.3-2.8-3h0l-.9-1.7,1.4-.5ZM117.8,141.5l-1,3.1,1.2,1.7,9-1.1h0l2.9,7.5,2.3,1.5,2.3-.4,3.4-3.9,6.3,1.8h0l.9,9.2-1.9,3.4,2.9,13.3-4.7,2-2.8,7.9h0l-.3,1.7h0l-7.9-3,.2,1.6-5.1,2-1.2,2.7h-6.9c0,0-3.3,2-3.3,2l-.6-1.1-4.3,3.2h0l-1.1-4.7,2.5-.8-2.4-1.6,3.2-3.2-.6-1.8-1.9,1,1.1-3.6-2.3-3.3-4.9-.4.9-2.5,3.3-1.8-3,.6-1.1-3.6h0l1.8-.5,1.8-5.4h2.6c0,0,1.8-2.5,1.8-2.5l3.3.3-.4-2.6,1.4-.2-.8-4.9,1.4-2-.2-2.8h-1.2c0-.1-2.7-5.9-2.7-5.9l3.3-2.7,3.1-.2Z"/>
    <path id="FR-36" d="M226.5,219.1l4.2-2.7,2.8,1-.2-1.8,3-1.2,1.9,1,1.7-1,4.3,2.9h0v2.1c0,0-2.2,2.5-2.2,2.5l3.5,1.4,4.1-1.2.3,1.6,1.5-.7-.7,3,2.7,2.6-1.2,3.2,2.9,1.1-2.7,3.8-1.1-.3,2.5,3-1.7,1.5.7,1.9,3.5,3.5-1.1,4.3,1.6,3.6-1.8,1.3.5,1.7h-11.3c0,0-1.9-1.6-1.9-1.6l-1.8,3.3-1.5-1.4-2,1.5-.7-1.7-2.2,1.4-.7-1.7-3.8,4h0l-2.1-2.7-1.7,1.4-4.3-.7h0l1.2-2.4-2.1-.7v-2.8c-.1,0-8.2-4.7-8.2-4.7l.6-4.8-2-2.5h0l4.9-.5-.9-2.3,2.4-9.6,3.9-2.2,2.9.9,3.8-4.8-1.3-3.4Z"/>
    <path id="FR-37" d="M202.1,193.3l8.6.2-.2,4.6,2-1.7,2.5.6.2,1.8,1.2-1.2,1.5,1.8-1.1,2.1,1.4,3.5,1.6.7-1.7,1,1.3,2-.6,4.3,2,1.6,2.8-.7,2.9,5.1h0l1.3,3.4-3.8,4.8-2.9-.9-3.9,2.2-2.4,9.6.9,2.3-4.9.5h0l-2.4-5.1-3.1-2.7-.4-3.5-4.2-1.6,1,2.5-9.4,1.3-.7-6.1-4.3-.4v-2.8c.1,0-3.4-.2-3.4-.2l-.9-2.3h0l.8-5.9,3.6-5-1-.9,2.4-5.1-.9-2,1.2-3.5h0l5.2,2.1.2-3.8,2.3,1.2,5.7-3.9Z"/>
    <path id="FR-38" d="M355.9,287.2l4.2,2.2,4.4-5.6,9.3,13.2h0l3.9,8.5,5.8,2.4.2-4.2,1.8-.7,2.8,2.7h2.8c0,.1,2.2,4.1,2.2,4.1l-2.2,3.3.5,6.4,3.6.2.4,1.2h0l-1.9,5.3,4.1.8,1.1,6.9-7.6-.5-2.7,2.3-1.2-1-2.5,1.6,1,1.1-1,1h-4.3s-1,2.6-1,2.6h0l-5.2-.9-3.4-3.4.2,1.3-3.3-1.5.9-13.7-3.4,2.4-6-2.4-2.6.5,1.7-2.3-.7-3.9,1.2-.8-2.8-1.4.6-2.4-2.1.7-3-3-6.4,2.3h0l-1.6-3.4h0v-4.4h0l3.9-3.6-3.3-2.8,9-1.3.8-2.5,3.3-1.8-3.1-3.2,1.2-2.2Z"/>
    <path id="FR-39" d="M370.1,213.1l2,2.5,4.2-.6h0l4.3,6.3-2,2.3.5,2h-1.7s.3,1.7.3,1.7l2.3-1.3,1.3,2.2,2.6-.7,3.8,8.3,4.1,1.4,1.9,2.9-4.7,3.7,1.2,1.9-1.9,2.2,3.1,2.5h0l-2.5,7h0l-6.7,7.5-4.9.2-.4-2.4-2.4-1.8-3.6,3.8-2.2.2v-2.5c0,0-1.7-1.6-1.7-1.6l-.7,1.8-.9-3.5-2.7-1.5.5-1.6h0l3.5-1.5v-1.3c.1,0-2-.9-2-.9v-2.9c0,0,1.5-.2,1.5-.2l1.3-2.8-2.8-4.6,1-2-2.2-2.2,4.7-.6v-1.3c0,0-2.2-1.9-2.2-1.9l-2.4.2-2.6-2.8v-1.8h.1l2.1-1.7-1.2-1.8,3.5-1.7,1.8-3,2.7-8.1Z"/>
    <path id="FR-40" d="M138,352.4l5.8-3.1,3.3,1.2-1.4,4.1,13.2-1.4v2.4s8.9,5.4,8.9,5.4l-.2,3.8h5.7c0,.1,0-2.7,0-2.7l1.2-.4,1.8,2.2h0l.4,3.5,9.1,1.4-2.6,4.7.5,2h0l-.6,4.1-2.7-1.6,1-1.2-1.5-1.4-2,2.6-2.9-.5-2.1,2,1.8,1.5-.3,2.6h-1.1c0,0,1.1,3.4,1.1,3.4l-3,4.5,1.3,2.7h0l-7.1,1.7v-2.2s-5,2.8-5,2.8l-2.1-.9.5-.9-2.6,1.6-1.8-1.8-12.8,4.3-.9-.9,1.4-.6-1.8-1.3-3.7,2.3-7.9-1.5h0l2.7-5.6,6.6-38.9Z"/>
    <path id="FR-41" d="M209.8,172.5l3.7.3,3.1-1.7-1.6,2.1,4.1.5,2.9,5.8,5.9.7,2.7-2.7,2.4,1.3h0l1.5-.4-1.4,3,2.3,2.7-2.2,3,2.6,4-.8.8,1.8-1.7,2.8,1.3.9,3.7,1.8,1.2,2.2-2.8,3.6,1.8,8.2-1.1,1.2,2.9h0l-4.1,1.9.3,1.6,2.4.3v2.9s1.7-.2,1.7-.2l-.6,4.3-1.4-1.5-2.5.9-.6,2.8,2.1,3.4-4.6,1.9-2.8-1.4-1.6,1.7.2,2.1-2.1-.3h0l-4.3-2.9-1.7,1-1.9-1-3,1.2.2,1.8-2.8-1-4.2,2.7h0l-2.9-5.1-2.8.7-2-1.6.6-4.3-1.3-2,1.7-1-1.6-.7-1.4-3.5,1.1-2.1-1.5-1.8-1.2,1.2-.2-1.8-2.5-.6-2,1.7.2-4.6-8.6-.2h0l-1.2-.9,4.1-2.7,2.5-3.8-.5-3,1.7.6,1.3-2.6-.2-4.6-1.7-.9,1.6-2.9Z"/>
    <path id="FR-42" d="M314.6,264.4l-.3,3,2.8.6.7,1.5,7.3-1.1,2.3,1.9,3.3-1.4.6-1.8h0l1.7,2.9-3.9,1.5-.6,3-1.8,1,2.2,2.2-2.4.5,5.2,6.6-1.6,4.4,1.8,1.2-1.3,3.6,3.6,4.1,5,.5.9,1.6,1.3-.9-.9,3.6,2.4-.3,1.2,1.9h0v4.4h0l-4.8,2.6-.5,3-4.1.7h0l-1.6-1.9h-3v-4.3c0,0-2.6.2-2.6.2l-1.3-1.5h-2.5l-4.8,3-1.4-2.3-2.3,2.1-.4-1.2h0l-.2-2.1,2.5-1.8.7-2.9-10.1-14.4,2.2-4.6-2.1-2.2h0l.5-2.1,4.2-1.3-2.2-11.8,4.5-1.8Z"/>
    <path id="FR-43" d="M287.6,309.7h2.3s4.1-3.4,4.1-3.4l4.1,1.1,2.8-1.5,4,4.4,1.8-2.2,3.6,1.7.9-2.1,3.3,1.7h0l.4,1.2,2.3-2.1,1.4,2.3,4.8-3h2.5l1.3,1.5,2.5-.2v4.3h3.1l1.6,1.9h0l-.9,5.7-2.9-1.2.9,1.9-1.8,1.8,1.2,1.3-2.9,1.1.6,2.2-3,.5-2.3,4.4h-4.2s-.2,1.9-.2,1.9l-2.7.3-.9,2.8-2.1,1.2h0l-4.1-4.5-2.6.5-1.3-2.5-1.2.3-.2,2.4-3.8.8-2.5-7.1-1.5-.7h0l-2.7-6.4h2.7s-2.5-.8-2.5-.8l-2.3-7.6-4.8-.6,1-3Z"/>
    <path id="FR-44" d="M109.1,196.6l4.3-3.2.6,1.1,3.3-1.9h6.9c0,0,1.2-2.8,1.2-2.8l5.1-2-.2-1.6,7.9,3h0l-.3,2.3,2,.5,2,5.2,4.5,1.5-1.3,1.3-4.5-.5.5,3.2,6.5.9,1.5,4.7-1.8,1.4-10.8,1.6-2.2,1.8h2c0,0,1.8,3.1,1.8,3.1l1.6-.4,1,3.6-2.9,4.1,4.5,1.8-1,1.7h0l-4.2-2.8-1,2.5h-2.7c0,.1.5,3.8.5,3.8l-3.4,1.5-.3-5.2-1.1-.4-1.8,1.3,1.9,6.7-1.6,1-6-1.2-.8-2.2-5.3-1.7-2.7-3.4h0l-2.5-3.3-6.7-1.9,2.8-1.8-.2-4.8-4.3,1.5-2.7-2.2-1.9,1-3.9-1.6,1.3-2.4-1.8-1.8,3.5-3.7h0l1.2-1.5,3.6.8.6-2.8,4.6,1.3.2-1.6,2-.6v-5Z"/>
    <path id="FR-45" d="M249.3,163.1l5.8-.6,1.4-2.3,1.4,2.3,2.9-1.8,2.6.9h0l.7,2.9,2.8,1.1.6,1.9-2.7,3.9h9s1.7-1.1,1.7-1.1l-.6-1.1h2.1c0,0,.7,1.9.7,1.9l4-1.7h0l3.2,1.5.7,3.1,2.6,2.2v2.9c.1,0-4,3.4-4,3.4l.6,6.1-6,1.5v2.1c-.1,0,2.6,1.8,2.6,1.8l1.7,5.7h0l-4.1.9.6,1.6h0l-2.3,1.3-2.6-2.2-.2,2.2-1.9.5-3.6-4.4-2.5.2-1.8-2.1-2.3,1.2-2.8-2.2-1.7.4h0l-1.2-2.9-8.2,1.1-3.6-1.8-2.2,2.8-1.8-1.2-.9-3.7-2.8-1.3-1.8,1.7.8-.8-2.6-4,2.2-3-2.3-2.7,1.4-3-1.5.4h0l-.3-2.3,2.8-.2,1-2,4.1.3,4.7-1.8.7-3.2,2.3-.7.8-5.8Z"/>
    <path id="FR-46" d="M230.6,325.8l3.1-1.3,3.7.9,5.3,5.1,3.6-2.6,1.4,1.2,3.9-1.1h0l1,4.9,2.8,4.1-1.4,4.4,2.7,3.8h0l-.4,1.5h-4.7c0,.1-4.8,4.7-4.8,4.7l-1-.9-1.7,1.2,2.5,5.9-1,.9h0l-6.3,1.2-1.4,1.5-.8-.8.2,1.4-2.4-1.5.5,2.6-1.6.9-2.4-3.3-3.8,4.5-2.6-1.5.7-2.8-3.1,1.3-4.5-4,1.9-1.9-2.5.7h0l-2.8-7.9,3.2-1.4h0l2.5-4.6,5.7-3.4-.6-2.7,4.8-3.9-1-6.3,1.3-.7Z"/>
    <path id="FR-47" d="M176.3,363.8l3.7-2.2-1.5-3.9,3.5-1-1.3-2,.6-6.3h2.3c0,0,3.9-5.3,3.9-5.3l-2.9-1.9,3-2.4,1,1.3.3-2h2.4c0,.1,2,5.3,2,5.3l6.7-.5,2.6-1.9,2,1.5,3.8-1.2,1.9,1.5-.6,3.3,5-2.1,3.3,3.4h0l-3.2,1.4,2.8,7.9h0l-4.2,1.6-1.5-1.7-.9,3.4,2.8,1.7-1.5,4-1.8.3,1.4,2.2-3.6-.3-1.7,3.7h0l-2.7,2-2.4-2.7-10,4.3-3-1.5-2,2.4-.9-1.4-1.9.9h0l-.5-2,2.6-4.7-9.1-1.4-.4-3.5Z"/>
    <path id="FR-48" d="M296.2,328.2l1.5.7,2.5,7.1,3.8-.8.2-2.4,1.2-.3,1.3,2.5,2.6-.5,4.1,4.5h0l1.4,7.2,2.1,1.9,1.2,4.6h0l-1.7,2.8-2.2.6,2.3,2.6-1,1.3,1.8,2.3-1.3,3,1.3,1.6-1.7-.9-1.7,2.7h-2.7c0,0-4.3-2.9-4.3-2.9l-1.3,3.1-3.1.3-5.8-2.7h0l-.4-1.4-5.4.5.9-1.9-2.4-.7-.3-1.5-1.1.6.8-8.4-2.7-3.1.7-2.7-3.6-4.1h0l4.2-11.6,1.3-.8,1.7,1.9,1.7-3.5,1.5.4,2.6-2.1Z"/>
    <path id="FR-49" d="M138.6,187.5l8.8,2.5,1.7-1.7,6.7,2.8,7-.6.5-1.9,4.6,1.4h0l.7,2.3h6.5c0-.1-1.5,1.6-1.5,1.6l2.7,2.5,1.5-1.5,8.1,4.1,1.4-1.8,1.5.4h0l-1.2,3.5.9,2-2.4,5.1,1,.9-3.6,5-.8,5.9h0l-2.1.2-1,3.7-1.7-.7-.5,1.8h-2.5c0-.1,1.1-1.9,1.1-1.9l-1.4-.3-7.3.9-2.9,1.9.7-1.4h-1.2c0,0-2.1.9-2.1.9l.4,1.6-1.9,1.8-6.4-.4-3.6,1.5h0l-2.9-2.1-2.7.7-3.2-1.2h0l1-1.7-4.5-1.8,2.9-4.1-1-3.6-1.6.4-1.8-3.1h-2c0,0,2.2-1.7,2.2-1.7l10.8-1.6,1.8-1.4-1.5-4.7-6.5-.9-.5-3.2,4.5.5,1.3-1.3-4.5-1.5-2-5.2-2-.5.3-2.3h0l.3-1.7Z"/>
    <path id="FR-50" d="M115.2,88.1l10.9,4.3,3.6-1.1.8-1.6h7.1s1.2,4.8,1.2,4.8l-2.4,1.3-.3,2.3,4.8,7-.5,3.1,2.2.2h0l-.7,3.8,2,1.9,3.6,2.3,1.7-2.1,1.3,1.6-2.5,2,2.5,1.7-1.2,1.4,1.5-.7.6,4.5-2.9,3.4-3.8.4-.7,1.8,1.9-.2v1.1c0,0-4.7,4.1-4.7,4.1l2.6,2.6,4.5-.6,2.3,1.7,2.1-.8-.6,1h0l-.3,1.1,3.9,2.3-1.3,1.5,1.2,1.9-4.2,6.2h0l-7.2-.3h0l-6.3-1.8-3.4,3.9-2.3.4-2.3-1.5-2.9-7.5h7.5c0,.1-2-1.3-2-1.3l.9-.9-2.1,1.1-4.2-4.8v-3.9c-.1,0-1.5-.7-1.5-.7l2.4-5-.5-5,1.8.3-1.9-.8-.6,1.9-.7-2-.5-9.4,1.3-.3-1.4-.6-.4,1.3-2.9-6.1-3.4-2.5-2.7-8.5,1.6-1.9-.3-3.2-3.4-2.3.9-2.7Z"/>
    <path id="FR-51" d="M300.4,133.9l6.6-8.4-.9-1.5-2.2.3,1.8-2.1-1.3-2.2.7-1.6,4.3-.4-3.2-2.8-.3-5.3,4.5-2.2,2.5.6v-1.9c.1,0,2.5-1.4,2.5-1.4l3.9,2.4.4-2.4h0l6.8,1.2,2.1,3h2.5c0,0,2.3,2.8,2.3,2.8l5.2-1,1.2,3.1,1.9-1.4,6,1.6.4-1.8,1.6-.2.9,1.5h0l1.4,1.4-1.8,1.3,2.3,6.6-1.4,2h2.4c0-.1-1.4,2-1.4,2l1.5.5-4.3,3.9.8,2.9-1.6,2.3,4.1,2.9-.7,3h0l-7.1.8-.3.9,2.8.9v1.2l-3.1.9,1.2,3.4h-4.4c0-.1-2.6-1.2-2.6-1.2l-1.6,1.4-4.9-1.8-2.9-2.8.6-3.3-1.2-1.9-5.8,1.4-1.8-.8-6.2,6.6-1.7-.3.5,2.2-1.4,1.2-6.4-1.2-2.8-4.1h0l-.9-1.5-2.8.6.6-5.3-2.5-1,1.7-1.7-1.4-.9,2.9-.3v-2Z"/>
    <path id="FR-52" d="M341,150.6h4.4c0,.1-1.2-3.3-1.2-3.3l3.1-.9v-1.2l-2.8-.9.3-.9,7.1-.8h0l.4,3.7,1.9-1,.5,1.9h1.6s3.2,3.5,3.2,3.5l4,1,4.8,4.6h0l-2.6,1.5,1.7.6-.5,2.5,3.4-.9,7.1,7.9-1.7.8-.3,3.6-1.5,1.2,5.1,2.6.4,4.1,2-1.2,1.3,2.5h0l-1.9,3.7-2.3-.4-.7,2h-1.7s0,6.9,0,6.9l-3.2.6-1-1.8-1.4,1.8h-3.9c0,0-1.3,3.5-1.3,3.5h0l-2.2-.2-1.9,1.7.3-2.3-2.9-1.5.2-1.4-2.1,1.7-3.1-3.3-2.1,1.2-.3-3.9-1.5-.3,2.7-2.7-3.1-5.2-2.5.6,1.2-1.6-2.8-1.1.3-2.2-3-.8h0l.6-1.2-2.2-1.7,2.5-2,3.5.6.9-8.2-1.7-2.9.9-1-4.6-2.5-2.7-3.6,1.4-3.6Z"/>
    <path id="FR-53" d="M151.5,152.1l3.3,3.3,3.3-2.6.6,2.2,4.9-3.3h3.9s1.5,1.3,1.5,1.3l1.1-2,1.7.8.8-2.9h1.4s2.1,1.9,2.1,1.9l-1,.9.9,2.8,3.3.3-.2,3.6h0l-3.5,2.1.4,6.9-3.7,2.4.8,5.1-3.8.9,2.2,4.3-4.7,2.1,1.4,2.9-2.5,1.4,2,1.5v2.2h.1l-4.6-1.4-.5,1.9-7,.6-6.7-2.8-1.7,1.7-8.8-2.5h0l2.8-7.9,4.7-2-2.9-13.3,1.9-3.4-.8-9.2h0l7.2.3Z"/>
    <path id="FR-54" d="M379.1,97l3.7,3.2h0l1.9,1.6-1.1,3.1,2.3,3.3-1.1,1,2,.8,1.3,3.7-2.2,2.4,1.9,1.5-1.7,1.1.8,1.7-2.7,1.1,4.1,4.1v1.9c0,0,2.5.5,2.5.5l.6,1.7,6.1.7-.9,3.9,1.9.7-1.3.5,1.9.6v1.7c0,0,2.6-.5,2.6-.5l4.4,1.7,1.2,2.1,2.2.5.2,2,.6-.9,5.7,3.3,2.6-.7,2.8,1.3-.6.9,2.8,3h0l1.4,1.1h0l-11.5,6.5-4.7-2.1-.8-2.3-1.8,1.6.4,1.3-1.6-.8-5,2.1-3.2-2.2-2.1,1.9-2.8-.5-1.2,2.8-1-1.6-.6,1.2-3.8.5-.4-2.4-1.6-.2.9-1.7-2.6,1.2,1.7-4.4h-4.8c0-.1.4-2.3.4-2.3l-2.1-2.5,3-1.9-1.5.2.3-4.1-1.7-2.3,2.2-2.6.4-4.7-1.5-1.6,3.5-1.8-1.7-1.8,1.8-2.9-1.7-1.1.5-2.3-2.6-.9.6-3.8h-1.4c0,0,0-3.5,0-3.5l1.7-2.2-1.3-.2-.8-2.8.8-1.8-3.5-2.1-5.1,2.9-1.2-.9,1.9-1.1-2.6-3.5,1.5-.6h0l2.9-1.7,1.9,1.2,1.1-2.3,3.5.6,1.2-1Z"/>
    <path id="FR-55" d="M366.9,94.8l1.7,5.3h0l-1.5.6,2.6,3.5-1.9,1.1,1.2.9,5.1-2.9,3.5,2.1-.8,1.8.8,2.8,1.3.2-1.7,2.2v3.6c0,0,1.5,0,1.5,0l-.6,3.8,2.6.9-.5,2.3,1.7,1.1-1.8,2.9,1.7,1.8-3.5,1.8,1.5,1.6-.4,4.7-2.2,2.6,1.7,2.3-.3,4.1,1.5-.2-3,1.9,2.1,2.5-.4,2.2h0l-1.6,1.9-2.6-.7-.7,2.4-5.2.3h0l-4.8-4.6-4-1-3.2-3.5h-1.6s-.5-1.9-.5-1.9l-1.9,1-.4-3.7h0l.7-3-4.1-2.9,1.6-2.3-.8-2.9,4.3-3.9-1.5-.5,1.4-2.1h-2.4c0,.1,1.4-1.9,1.4-1.9l-2.3-6.6,1.8-1.3-1.4-1.4h0l3.4-1.9-.8-3.2,2.5-2.2-.8-1.3,1.2-2.9-1.8-2.2,1.8-4.8,5.1,2.7,4.6-3.9h0l1,.9Z"/>
    <path id="FR-56" d="M69.7,208.9l6.4,3.7-.5,1.4-5.6-.8-.3-4.3ZM58.8,168.3h4.1c0,0,.9,2.1.9,2.1l2.8-1.3,2.2,1.6,4.5-1.2.9-2.2,2.7.2,1.3,2.2,6.7.8,1,3,.7-1.5,3.2-.7v5c.1,0,3.8-2.3,3.8-2.3l.4-4.2,3.8-.8,2.3,3.2,2.4-1.2h0l1.1,3.6,3-.6-3.3,1.8-.9,2.5,4.9.4,2.3,3.3-1.1,3.6,1.9-1,.6,1.8-3.2,3.2,2.4,1.6-2.5.8,1.1,4.7h0v5l-2,.6-.2,1.6-4.6-1.3-.6,2.8-3.6-.8-1.2,1.5h-1.3c0,0-.2-2.2-.2-2.2l2.1-.3-2.4-1.3-10.5,1.9-7.2-5.4v1s-3.4.2-3.4.2l1.1,4.9h-1.4l-.9-6.8-7.1-5.3-3.3.6-2.5-3.3h0l.2-4.2,1.3,1.1,1.4-2h1.7s.2-4.8.2-4.8l-.9-.8-1.7,1.4-2.2-2.2-3.7.2-3.3-6.5.7-1.6,5.1-2.3Z"/>
    <path id="FR-57" d="M395.1,99.6l10.1,4.1,2,3.5-1.2,1,3.5,3.5,2.4,6.1,3.3.6v-3.1c0,0,3.5-.5,3.5-.5l3.3,1.7.6,4,1.6-2.2,2,1.8,4.7.3,2.4-2.9,2.7-.6-.3,1,2-.2,1.4,3.9,3.5,2.1h0l-3.4,6.3-2.9-1.9-4.3,1.3-1.1-1.6-5.8-1.7-.3-3.3-1.7.2-1.2,5.7-3,1.2.4,2.1,4.8,1.6-1.5,1,.9,3.1,3.7-3.4,4.5,4.2-2.5,3.9,2.1,1.7-1.4,3.6-3.4,3.3-3-.4h0l-2.8-3,.6-.9-2.8-1.3-2.6.7-5.7-3.3-.6.9-.2-2-2.2-.5-1.2-2.1-4.4-1.7-2.6.5v-1.7c0,0-1.9-.6-1.9-.6l1.3-.5-1.9-.7.9-3.9-6.1-.7-.6-1.7-2.5-.5v-1.9c0,0-4-4.1-4-4.1l2.7-1.1-.8-1.7,1.7-1.1-1.9-1.5,2.2-2.4-1.3-3.7-2-.8,1.1-1-2.3-3.3,1.1-3.1-1.9-1.6h0l2.7.2.5,2.2,2.1.2,4.5-3.3h2.5Z"/>
    <path id="FR-58" d="M283,199.7l1.5.6,2.8-1.6,2.1,3.5,6.3,2.5,1.6-1.9,3.3.6.4-3.4,3,5.3,3,.3,1.8,2.6,2.1-.3,1,1.3,1.7-2.8.2,3.5,2.6-1.4,1.8,4.2,3.6-1.5h0l1.3-.8-.3,5.9,1.5-.8,1.7,2.3-.6,2.7h0l-.7.2h0l-2.5.2v1.1h0l-2.3.6.2,5-2.2,1.4h1.5v3.8s2.1,2.1,2.1,2.1l-1.9,1.5.4,2.9-8.8,3.8-2-2.5-3.7.2h0l-1.1-.8v2.1s-1.7,0-1.7,0l.5,1.7-2.7,1.9-2.1-3.2-2.5,1.5-2.7-1.6-2.3,2.1-5.9-5.9h0l1.6-11.4-2.1-2-1.2-9.9-3.9-3.9,2.2-5-1.9-4.2h0l-.6-1.6,4.1-.9Z"/>
    <path id="FR-59" d="M286,64.4h.5c0,.1-.2,2.2-.2,2.2l-2.1,1-.3-2,1.9-.9h0v-.3ZM268.8,16.9l2.4,5.9-1.4,1.5.3,3.8,1.2,2h3c0,.1,2.3,4.6,2.3,4.6l4,1.9,1.6-3.2,6.8-2.1,1.4,3.5,2.4,1.3-.7,2.4,1.8,7.2,2.9,1.8,3.4-2.3,1.5.5-.6,1.9,3.7-.5,1.8,2.1v4.8s1.7,3.3,1.7,3.3l1.4-2.5,5.3,1.3,4.2-1.7,3.9,5.4.9-1.7,1.6.9-2.7,7.4h2.5s1,3.4,1,3.4l-2.4,1.1-.6,3.6h0l-5.6-.7v-2.7c0,0-3.2,1.8-3.2,1.8l-.5-1.5-5.4-1.7-1.9,2.1-4-1.3-1.8,1.9-4.4-1-6.5,1.3h0l-2.8-2.3h0v-3.6s1.4-.9,1.4-.9l-1-1.3,3-3.6-1.4-1.8-4.7-.4,2.5-2.2-3.5-4.9,2.9-1.3v-1.7s-1.8.7-1.8.7l.4-2.2-2.1-1.5-2.3.6-.5-2-2.9.2-.4-2.8,2.7-2.5-2.1-2-1.5.3.8,1.6-1.6,1.6-1.1-1.5h-7.7s-2.9-2.7-2.9-2.7l-1,.5-1.2-3.7,2.5-1.4-4.2-.6-2.6-2-4.3-10.4h0l2.8-.8.4,1,.4-1.3,12-3.3.6,1.8Z"/>
    <path id="FR-60" d="M239.7,105l2.6-5.1h-2.5c0,0,1.1-1.8,1.1-1.8l-2-2.2,1.1-.5-.8-2.9,1.9-2.7h-2.1l2.1-3.6,1.2.3h0l1.9.9.3,2,4.2-1,3.2,1.9,4-1.1,4.6.8,5.5,3.6,1-1,2.2,2.2,1.9-.7.9,2,1.3-2.8,3.3.7.4-2.6,3.3-.6-.3-2.2,2.4,2.6.8-2.1,1.7,1.4.8-1.8,1.1,1.2,1.3-.8h0l-.9,4.4,1.5,2.5-1.5,3.2.5,2.5,2,1.4-2.4.4-1.7,5.5h-2.6c0,0,.6,2.1.6,2.1h1.8c0,0,0,2.9,0,2.9l-2.8.3,2.2,2.9-.5-2.4,2.6,1.2v1.7c.1,0,.6-2,.6-2l1.6,2-2.6,2.3h0l-.2,1.6-2.7.7-.6-1.1-4,1.1-1.5-1.4-1.9,1.9-1.9-.2-2.2-2.3-1.5,1.5h0l-1.2-2.3-2.2.9-6.1-4.2-3,1.8-.3-1.4-1.6.8-3.1-2.4-2.7,1.8-5.7.6-3.2-.9v-2.3c0,0-1.3-.4-1.3-.4h0l.2-1.7,1.7-.4,1.1,1.4.5-1.5-3.1-7Z"/>
    <path id="FR-61" d="M152.2,139.1l4.3-2.5.7-2.4,4.1.9h0l5.6-2.1h0l2.1,2.5,1.4-1.8,6.1,2.2-.8-1,2.7-.2,6.6-5.8,1,1.4,4.2-2.2,4.7.9h0l-1,2,1.3,1.3,6.6.5-.2,2.4,5.1,3.4.5,1.5-1.6,1.6,3,1.9h0v3c.1,0,5.2,4.6,5.2,4.6l-1,2.4,1.4,1.9-2.1,3.5-4.9,2.6,2.1,5.6-1.1,1h0l-2,.3-2.9-3.9-.5,1.6-3.5-.8-1.6-3.2-3.3-.6-.3-5.3-2.8-2.9-5.4,1.2-3,4.1-3.9-.2h0l.2-3.6-3.3-.3-.9-2.8,1-.9-2.1-1.8h-1.4s-.8,2.9-.8,2.9l-1.7-.8-1.1,2-1.5-1.3h-3.9s-4.9,3.4-4.9,3.4l-.6-2.2-3.3,2.6-3.3-3.3h0l4.2-6.2-1.2-1.9,1.3-1.5-3.9-2.3.3-1.1Z"/>
    <path id="FR-62" d="M252.3,19.4h.2c0,.1,4.3,10.5,4.3,10.5l2.6,2,4.2.6-2.5,1.4,1.2,3.7,1-.5,2.9,2.7h7.7s1.1,1.5,1.1,1.5l1.6-1.6-.8-1.6,1.5-.3,2.1,2-2.7,2.5.4,2.8,2.9-.2.5,2,2.3-.6,2.1,1.5-.4,2.2,1.8-.7v1.7s-2.9,1.3-2.9,1.3l3.5,4.9-2.5,2.2,4.7.4,1.4,1.8-3,3.6,1,1.3-1.3.9v3.6h-5s-2.8,1.8-2.8,1.8l-.5-3.1-3.2,2.1.8-4.1-2.4-.7-.2,2.5-4.4-1.7-.6-1.6-.8,1.5-.6-1.4-1.9.5-1.4,2.3-1.5-1.2.4-2.3,3.7-2.2-1.5-1.9-3.2,1.3-.9-1.7-.2,1.4-2-.8-4.1,2.1-2.2-.6-.3-2.7-4.5-1.9v-2.3s-1.3,1-1.3,1l-3.5-2.6-4.8,1.7-.8-1.2h0l-3-2.6,1.1-7.4,1.7,1.3-2-3,.2-16.3,7-4.6,10.2-2.9ZM285.8,64.7h0l-1.9.9.3,2,2.1-1,.2-2.1-.7.2Z"/>
    <path id="FR-63" d="M269,271l2.5,1.2,3.2-5.1,2.6,1.3.8-2.5,3-.2.9.5-1.1,3.1,3.5,3.7,2.6-.6,1.3,2.2,6.9,1.2,3-1.4,1.5.7v2.6c0,0,4.4-.8,4.4-.8l3.5,4.6h0l2.1,2.2-2.2,4.6,10.1,14.4-.7,2.9-2.5,1.8.2,2.1h0l-3.3-1.7-.9,2.1-3.6-1.7-1.8,2.2-4-4.4-2.8,1.5-4.1-1.1-4.1,3.4h-2.3s-3.8,3-3.8,3l-4-4.5h-5.8c0,0-.9-2.6-.9-2.6l-6.2-2h0l.3-3.7-1.9-2,2.4-3.1-1.3-3.9h0l-3.5-4.4,3.6-1.8,4-5.1-2-5.9.6-2.8Z"/>
    <path id="FR-64" d="M128.8,396.9l7.9,1.5,3.7-2.3,1.8,1.3-1.4.6.9.9,12.8-4.3,1.8,1.8,2.6-1.6-.5.9,2.1.9,5.1-2.8v2.2s7.1-1.7,7.1-1.7h5c0,.1,2.7,5.3,2.7,5.3l-1.6.4v2.5s2.2-1.6,2.2-1.6l1,4.7-2.6,2.1,1,1.5-1.9,2.2.2,2.2h-1.7c0-.1-2.6,2.9-2.6,2.9l.4,2.9-3.7,2.2-.9,7.3h0l-2.8,2.4-3.8-1.3-1.6,2.2-5.6-5-1.2-3.8-6.5.7-5.9-3.3-1,.8-5.7-2.8,1.3-2.3-2.1.5-.7,3.7-2.9-.8-1.1-2,3.1-4.7-.2-3.2-5-1.7-2.5,2-.5-2.6-3.6.5-2-2.6,5.4-2.9,3.6-5.5ZM177.7,404.2h0v3c.1,0,.8-2.4.8-2.4l-.8-.6ZM176.8,410.5l1.4-1-1.5-1.8v2.9Z"/>
    <path id="FR-65" d="M177.2,407.2l1,2.2-1.4,1,.4-3.2ZM178.5,404.8h0c0,0-.7,2.5-.7,2.5l-.5-2.7h0l.4-.3h0l.7.6ZM177.7,394.4l2.8-1.1,2.3,4.1h2.2c0,.1,2.2,7,2.2,7l3.9-.9,1.2,2.1,9.5,1.5h0l.9.7-2.9,2.8.8.8-1.9.4-2.6,3.8,4.3,2.6-1.3,3.3,2.7-1.4,1.3,3.4-2.9,4.7-2.9-.8-1,6.7.9,1.6h0l-4-1.1-2.3,2.4-4.1-2.9-8,2.1-3.5-4.9-5.2-2.4h0l.9-7.3,3.7-2.2-.4-2.9,2.6-3.1h1.7c0,.1-.2-2-.2-2l1.9-2.2-1-1.5,2.6-2.1-1-4.7-2.3,1.6v-2.5s1.7-.4,1.7-.4l-2.7-5.2Z"/>
    <path id="FR-66" d="M255.1,437.4l1,.6,5.5-3.5-.6-5.3,13.7.2,1.7-2.8,2.6-1,6.2,3.7h0l.3,13.7,3.1,1.3,1.1,3.8-3,.4-1.6-2.2-3.2-.4-5.8,3.2-3.5.3v3c0,0-3.4-.8-3.4-.8l-1.6,1.2-3.3-2.8-6-2.1-8.4,4-2.7-4.7-7-2,.3-2.8,1.7-.9h0l6.4-2,.8-2.1h5.7Z"/>
    <path id="FR-67" d="M423.5,150.3l3,.4,3.4-3.3,1.4-3.6-2.1-1.7,2.5-3.9-4.5-4.2-3.7,3.4-.9-3.1,1.5-1-4.8-1.6-.4-2.1,3-1.2,1.2-5.7,1.7-.2.3,3.3,5.8,1.7,1.1,1.6,4.3-1.3,2.9,1.9,3.4-6.3h0l5.4-.6,2.5,1.7,2.3-1.3,10.2,4.8-4.9,8.5-4,2.3-4.5,6-3.6,12.7.4,3.5-1.8,1.3-4,9.3h0l-3.7-2,.2-2.2-5.5-2.5.6-1h-1.3c0,0-.6-1.8-.6-1.8l-2.6-.3h0l-.7-1.5-3.6-.7,1.4-8.3h0l-1.4-1.1Z"/>
    <path id="FR-68" d="M427.7,161.9l2.6.3.6,1.8h1.3c0,0-.6.9-.6.9l5.5,2.5-.2,2.2,3.7,2h0l-.2,4.4,1.8,3.2-2.3,4.7-.3,7.4-1.2,1.8,2.5,5.8-2.9,2.2,1.1.6-1.4,2.3-2-.7.8,1.2-2.4,2-4.9.5-2.5-1.1,1.1-2.5-2.4-.5h0l-1.6-4.5-2.8-.5,1.1-6.1-5.8-3-1-2h0l2.9-1.4-.8-2.1,1.6-5.6,4.6-5.6-.6-1.8,4.8-8.5Z"/>
    <path id="FR-69" d="M331.4,267.2l1.4-4.1,2.6,1.7,2-1.3,1.9,1.4,2.1-2,1,1.4-1.1,1,1.9,1.3-.4,2.6,1.9.2h0l.8,1.2-1.9,3.1-.6,7.2,2.7,1.1v1.2c-.1,0,2.5,0,2.5,0l1.3,4.6,6.3-.5h0l-1.2,2.2,3.1,3.2-3.3,1.8-.8,2.5-9,1.3,3.3,2.8-3.9,3.6h0l-1.2-1.9-2.4.3.9-3.6-1.3.9-.9-1.6-5-.5-3.6-4.1,1.3-3.6-1.8-1.2,1.6-4.4-5.2-6.6,2.4-.5-2.2-2.2,1.8-1,.6-3,3.9-1.5-1.7-2.9Z"/>
    <path id="FR-70" d="M382.7,181.6l1.7-2.6.6,2.1,3.1-3.5,3.1-1,2.5,4.7,6.3-1.5,3,3.8,4.3-3.1,7.5,6.7h0l-2.2,3.4,1.7,9.4h0l-1.3,1.2-3.7-2.2-.4,2.2-2.3-.4-.8,2.8-1.9-1-1,1.2-2-1.8-2.6.8-3.2,4.7-1.2-.9-1.3,2.1-1.8-.4v1.8c-.1,0-4.7,1.8-4.7,1.8l-1.8-1-1,1.8-6.8,2.3h0l-4.2.6-2-2.5h0l-1.7-.7,1-3.7-2.3-.2.2-2.9-2.5-.7,4.1-3.2-.3-4-1.7-1.3-1.9,1.3h0l1.3-3.5h3.9c0,0,1.4-1.7,1.4-1.7l1,1.8,3.2-.6v-6.9s1.7,0,1.7,0l.7-2,2.3.4,1.9-3.7Z"/>
    <path id="FR-71" d="M325.3,220.6l2.2,2.4,2.5.3.3,1.9,1.6-1,.9,2.3,4.4.9-.2,1.4,4.8,4.6,7.1-3.3,5.3-.7,1.7,1.8,5.4-1.8h0v1.8c-.1,0,2.5,2.8,2.5,2.8l2.4-.2,2.1,1.9v1.3c0,0-4.6.6-4.6.6l2.2,2.2-1,2,2.8,4.6-1.3,2.8-1.4.2v2.9c0,0,2,.9,2,.9v1.3c-.1,0-3.6,1.5-3.6,1.5h0l-2.7-.6-2.3-3-3.8,1.7-4-1.7-5.5,16.9h0l-1.9-.2.4-2.6-1.9-1.3,1.1-1-1-1.4-2.1,2-1.9-1.4-2,1.3-2.6-1.7-1.4,4.1h0l-.6,1.8-3.3,1.4-2.3-1.9-7.3,1.1-.7-1.5-2.8-.6.3-3h0l3.6-2.6-.2-6.7-1.6-1.5-3,.2-.9-2.1-3.3-.4-3.9-10.5h0l3.7-.2,2,2.5,8.8-3.8-.4-2.9,1.9-1.5-2.1-2.1v-3.8s-1.5,0-1.5,0l2.2-1.4-.2-5,2.3-.6h0l2.1.6.4-1.9h0l.7-.2Z"/>
    <path id="FR-72" d="M179.1,158.3l3.9.2,3-4.1,5.4-1.2,2.8,2.9.3,5.3,3.3.6,1.6,3.2,3.5.8.5-1.6,2.9,3.9,2-.3h0l4,2.8-2.2.3-.3,1.5h0l-1.6,2.9,1.7.9.2,4.6-1.3,2.6-1.7-.6.5,3-2.5,3.8-4.1,2.7,1.2.9h0l-5.7,3.9-2.3-1.2-.2,3.8-5.2-2.1h0l-1.5-.4-1.4,1.8-8.1-4.1-1.5,1.5-2.7-2.5,1.5-1.7h-6.5c0,.1-.7-2.2-.7-2.2h0v-2.2c-.1,0-2.2-1.5-2.2-1.5l2.5-1.4-1.4-2.9,4.7-2.1-2.2-4.3,3.8-.9-.8-5.1,3.7-2.4-.4-6.9,3.5-2.1Z"/>
    <path id="FR-73" d="M380.7,281l1.2.5.3,4.6,1.4,1.5,1.7-.4,1.1,3.2,5.9-.4,2.1,3.6,3.5-.5,6.2-10.6,2.1,1.4-1.3.9.9,2.1,4.5,2.4v2.1s3.8-2.6,3.8-2.6h0l.9,3.8,5.9,3.1v6.6s6.4,4.8,6.4,4.8l-2.6,3.8.9,3.5-1.8,1.9-2.8-.2-1.9,2.4h-1.8c0,0,0,1.6,0,1.6l-4.3-1.1-4.7,2.4h-4.1s-2,2.8-2,2.8l-3-.9-1.1-2.6-2.5-.2h0l-.4-1.2-3.6-.2-.5-6.4,2.2-3.3-2.2-4h-2.8c0-.1-2.8-2.8-2.8-2.8l-1.8.7-.2,4.2-5.8-2.4-3.9-8.5h0l2.1-1.4.5-3.4,2.5-.7,1.8-10.5Z"/>
    <path id="FR-74" d="M413.8,259.9l-.3,1.6,2.7,2.7-2.3,7,3.5.6-.9,3.6,2.2-.6,3.7,6.8-3.5,3.8-4.1.5-.7,2.8h0l-3.8,2.6v-2.1s-4.4-2.4-4.4-2.4l-.9-2.1,1.3-.9-2.1-1.4-6.2,10.6-3.5.5-2.1-3.6-5.9.4-1.1-3.2-1.7.4-1.4-1.5-.3-4.6-1.2-.5h0l-.3-8.1,2.3.9.2-1.6,2.2-.7h0l5.9-.3,5.7-4.2.5-1.5-1.7.2-1.4-3,1.1-2.4,9.1-4.8,10.3,1.5-.9,2.9Z"/>
    <path id="FR-75" d="M260.6,131.5h2.4s.6,2.2.6,2.2h0l1.6,1.9h-4.3c0,.1-3.6-1.7-3.6-1.7l3.3-2.3Z"/>
    <path id="FR-76" d="M228.2,70.2l2.4-.3v1.6c.1,0,7.9,6.5,7.9,6.5l3.7,8.5h0l-1.2-.3-2.1,3.6h2.1l-1.9,2.7.8,2.9-1.1.5,2,2.2-1.1,1.8h2.5c0,0-2.6,5.1-2.6,5.1h0l-2,.4-2.7-2.1-6.5-1.3-2.6,1.8-1.3,4.4-3.9.2-.8,1.7-3,.6.5,2.1-1.9.4-1.8-1.1-.5-2.7-1.3,1.3-2-1.4.5-1.2,2,.4v-2.4c0,0-1.4.7-1.4.7l-2.6-2.9-4.8,1.3-.7-2.2-1.9.7-2.9-2.8-6.9,2.7h-.4s-5.9-1.9-5.9-1.9l-1.6-2.1,4.4-10.4,13.5-8,17.8-4.3,9.3-6.8Z"/>
    <path id="FR-77" d="M286.3,120.2l3.2.9v4.5c0,0,3.4,3.8,3.4,3.8l1.4-.5.8,2.1,1.3-1.1.5,2.9,2.7,1.8.8-.8h0v2c0,0-2.8.3-2.8.3l1.4.9-1.7,1.7,2.5,1-.6,5.3,2.8-.6.9,1.5h0l-3.3,2.4.6,1.5-2.6.7,1.1,1.9-1.9.6,1.1,4.6h0l-12.6,1.6-1.1,2.8,1.1,2.8-3.8,4.4h0l-4,1.7-.7-2h-2.1c0,0,.6,1.2.6,1.2l-1.7,1.1h-9s2.7-3.9,2.7-3.9l-.6-1.9-2.8-1.1-.7-2.9h0l2.4-3.8,2.5-.6-1.5-1.4-.2-6,2.5-7.5h0l1.4-3.7-.6-2.3h0l-1.2-4.2,1.5-2.5-1.8-4h0l1.4-3.6h0l1.5-1.5,2.2,2.3,1.9.2,1.9-1.9,1.5,1.4,4-1.1.6,1.1,2.7-.7.2-1.6Z"/>
    <path id="FR-78" d="M232.5,129.4l.6-2h-1.7c0,.1-.8-3.9-.8-3.9h1.4c0,.1.7-1.7.7-1.7l3.4.4h0l3.9,1.7,3.7-1.7,1.6,3.1,1.1-1.6,4,2.6,3.3-1,2.9,3.4v2.2h-.1l-2,3.4,1.7,4h0l-3.1,1.5-.2,2.1-2.9,1.9,1.8,2.3-1.5,3-2.8-.2,1.5,1.8-1.9,3.5h0l-1.8.9-2.3-1.4-.5-4.5-6.3-5.6-.2-9.2-3.3-5.3Z"/>
    <path id="FR-79" d="M150.4,229.6l3.6-1.5,6.4.4,1.9-1.8-.4-1.6,2.1-1h1.2c0,0-.7,1.5-.7,1.5l2.9-1.9,7.3-.9,1.4.3-1.1,1.8h2.5c0,.1.5,4.1.5,4.1l1.8.2v5.4c0,0,2.3,1,2.3,1l-2.8,1.7,1.9.3-1,2.3,2.1,1.8-3.7,5.2,2.3-.7-.4,1.4,1.9,1.1-1.7,1.1-1.3,4.3,1.2.8-.5,3.4,1.9,1.3-.6,2.3,2.1,1,1.6-2.1,1.8.9-2.4,7.1,3.8,1.4-.9,3.1h0l-3.2-.5-2.7,2.6h-1.9c0,0,0,2.9,0,2.9l-2.2,1.1h0l-1.9-3.3-3.4-.7-1.1-1.7-2.5.6-1.9-1.9-2.9.4-1.6-2-2.3.5.5-1-3-1.1v-1.8c0,0-2.1-1.4-2.1-1.4v-2.9h.1l3.5-.6,3.7-3.4-2.3-1.4-1.2.8,1.1-2.8-1.3-3.2,1.5-1.4-.4-3.6-1.5-.9.8-1.2-1.5-1.1.8-.7-2.4-3.4,1-2.1-4.5-3.7.8-1.8-2.9-2.7Z"/>
    <path id="FR-80" d="M236.8,54.5l.5.4h0l.8,1.2,4.8-1.7,3.5,2.6,1.3-1v2.3s4.4,1.9,4.4,1.9l.3,2.7,2.2.6,4.1-2.1,2,.8.2-1.4.9,1.7,3.2-1.3,1.5,1.9-3.7,2.2-.4,2.3,1.5,1.2,1.4-2.3,1.9-.5.6,1.4.8-1.5.6,1.6,4.4,1.7.2-2.5,2.4.7-.8,4.1,3.2-2.1.5,3.1,2.8-1.7h4.9s2.8,2.2,2.8,2.2h0l-.6,1.1,1.7.4-5.1,8.1,2.2,6.7h0l-1.3.8-1.1-1.2-.8,1.8-1.7-1.4-.8,2.1-2.4-2.6.3,2.2-3.3.6-.4,2.6-3.3-.7-1.3,2.8-.9-2-1.9.7-2.2-2.2-1,1-5.6-3.7-4.6-.8-4,1.1-3.2-1.9-4.2,1-.3-2-1.9-.9h0l-3.7-8.5-7.7-6.5v-1.6c-.1,0-2.6.3-2.6.3h0l5-7.6,5.7,1-5.1-4.6.6-4.7h2.5Z"/>
    <path id="FR-81" d="M249.2,367.5l5.2-2.5,3.2,1.9-1.8,1.1,5.1.7,6.8,7-1.1,1.5,1.8.9.3,3.8,3.3,4.2,2.9,1.3,2.8-1.5,3.1,1,.8,2.2h0l-.9,1.8-5.3,2-3.7-2.2-1,4.4,2,2.4-.2,2.2-3.3,2.3h0l-6,.2-4.7-2-1.5,3.6-1.5-1.5-3.4,1-1.5-1.9h0l.4-3.6-1.7,1.6-2.6-1.1-2.6-3.6-5.1-2.3,1.1-2.9-2-.2,1.5-1.1-1.9-1.6-.2-2.4-1.9-.8-1.2-4.8h0l.8-.9-1.5-1.1h3s2.8-4,2.8-4l-1.5-3.4,4,1,.9-1.4,1,.9.2-1.8,2.4.7v-1.5c0,0,2.7.6,2.7.6Z"/>
    <path id="FR-82" d="M217.5,356.6l2.5-.7-1.9,1.9,4.5,4,3.1-1.3-.7,2.8,2.6,1.5,3.8-4.5,2.4,3.3,1.6-.9-.5-2.6,2.4,1.5-.2-1.4.8.8,1.4-1.5,6.3-1.2h0l-.4,2.2,3.4.9-2.7,3.1,3.4,2.7h0l-2.8-.6v1.5c0,0-2.3-.7-2.3-.7l-.2,1.8-1-.9-.9,1.4-4-1,1.5,3.4-2.8,4h-3s1.5,1.1,1.5,1.1l-.8.9h0l-2.2,1.5-.5-1-.9,1.8-2.9-.9-.2,1.8-2.2.3,2.2,1.3-5,2.3-2.2-2.6-6.7,1.6h0l-2-.2.3-5.1-5-1.8,3.3-5.3-3.1.8-.8-1.7h0l1.7-3.7,3.6.3-1.4-2.2,1.8-.3,1.5-4-2.8-1.7.9-3.4,1.5,1.7,4.2-1.6Z"/>
    <path id="FR-83" d="M378.4,387.3l2.4-.7.7,1.4,2.6-1.9,3.3,4.2,6.6-6.1,5.8,3.1,1.1-2.7h7.5c0,.1.8,2.1.8,2.1l3.3.3,1.6,5.3,3.9,1.4-1.2,3.3,1.7,2.5h0l-2.5,3-3.8-.2-.9,3.2-4.5,3.2,3.8.6-2,4.4-2.7-.8-6.1,2.1-.6,2.6-5.6-1.3-1.5,1.3-.2,2.9h-2.1c0,0,1-2.5,1-2.5h-3.5s-3.4-2.1-3.4-2.1l-1.4,1,2.3,1.6-4.1.9-.7-3.1-3.9-1.3-.9-1.7h0l.4-2.6,2.7-2.2-3.1-1.7,1.1-1.8-.8-2,3.6-1-3.1-2.9.9-3.2-2.4-1.1,1.5-3.3,3.3-.8.6-1.4-2-1.6h0l.2-.4Z"/>
    <path id="FR-84" d="M340.4,358.9l4.7.8,1,4.1,8.3-3.8,1.7,1.4,2-1.8-.4,4,6.8.8,1,2.8,4,1.9h0l.2,2.5,1.4-.2-1.2,5.5,3.4,1.7-2.2,4.7,3.7-.4,3.6,4.4h0l-.2.4h0l-5.2,3.1h-2.6s-7.5-3.7-7.5-3.7h-4.5c0,.1-4.3-2.3-4.3-2.3l-3.3-4.3-7.4-2.2h0l3.5-4-4.2-3.5v-5s-2.4-4-2.4-4h0v-2.8ZM352,354.6l.4.4h0l2.4,1.7-2.9,4-3.3-.6-.5-2.2,2.4-3.1h0l1.6-.4h0Z"/>
    <path id="FR-85" d="M103.9,227l.7,2.7,2.5,1.2.2,2.7-2-3.2-3.2-1.7-.2-1.7h1.9ZM113.2,226.9l2.7,3.4,5.3,1.7.8,2.2,6,1.2,1.6-1-1.9-6.7,1.8-1.3,1.1.4.3,5.2,3.4-1.5-.5-3.7h2.7c0-.1,1-2.7,1-2.7l4.2,2.8h0l3.2,1.2,2.7-.7,2.9,2.1h0l2.9,2.7-.8,1.8,4.5,3.7-1,2.1,2.4,3.4-.8.7,1.5,1.1-.8,1.2,1.5.9.4,3.6-1.5,1.4,1.3,3.3-1.1,2.8,1.2-.8,2.3,1.4-3.7,3.4-3.5.6h0l-1.8-1.9-4.5,1.6-1-.6,1.1-2.4-6.4,2.7h-2.9c0,0-.1,2.3-.1,2.3l-3.8-3.2.7,2.1-1.6-2.5h-4.3s-1.6-3.1-1.6-3.1l-4.6-.8-5.6-3.7-1.5-5.7-9.8-10.6-.3-3.4,6-7Z"/>
    <path id="FR-86" d="M177.5,225.2l.5-1.8,1.7.7,1-3.7,2.1-.2h0l.9,2.3,3.5.2v2.8c-.1,0,4.2.4,4.2.4l.7,6.1,9.4-1.3-1-2.5,4.2,1.6.4,3.5,3.1,2.7,2.4,5.1h0l2,2.5-.6,4.8,8.1,4.7v2.8c.1,0,2.2.7,2.2.7l-1.2,2.4h0l-1.7,1.8-2.8-.7-1.5,4.1-3.5-.4-1.8,2.9h-1.4s.5,5.1.5,5.1h0l-3.8-.6-.9,2.2-3.1,1.2-3.6-3.2-1.7,1.7,1.3,1.8-1.9.9-8-2.3h0l.9-3.1-3.8-1.4,2.4-7.1-1.8-.9-1.6,2.1-2.1-1,.6-2.3-1.9-1.3.5-3.4-1.2-.8,1.3-4.3,1.7-1.1-1.9-1.1.4-1.4-2.3.7,3.7-5.2-2.1-1.8,1-2.3-1.9-.3,2.8-1.7-2.4-1v-5.4c0,0-1.8-.2-1.8-.2l-.5-3.9Z"/>
    <path id="FR-87" d="M221.4,259l4.3.7,1.7-1.4,2.1,2.7h0l.8,3.7-2.2,2.8,4.2,3.6-.4,1.8,1.9,1.3-.3,3.4,1.5,1.5-2.3,2.3,4.4.3v1.7c.1,0-1.6.5-1.6.5l2.4,2.3,3.8-1.6v1.7s3.8,1.8,3.8,1.8l.5,4.8h0l-.8,1.6-3-.8-7,6.1-3.6-.4-4.4,4.8-2.2-1.1-1.1,2.3h0l-4.5-1.5,1.6-2.4-2.8-.3-2.3-3.9-4.1.5-1-1.1-1.9,2.3-2.1-2.1.8-2.4-5-2.1h0l2.9-2.6v-2.1c-.1,0,2.3.6,2.3.6l1-6.9,1.6.7,2.8-2-.5-2.6-3.8-2.1.4-3.8h0l-.5-5.1h1.4s1.8-2.8,1.8-2.8l3.5.4,1.5-4.1,2.8.7,1.7-1.8Z"/>
    <path id="FR-88" d="M424.9,151.4l-1.4,8.3,3.6.7.7,1.5h0l-4.8,8.5.6,1.8-4.6,5.6-1.6,5.6.8,2.1-2.9,1.4h0l-.4.4h0l-7.5-6.7-4.3,3.1-3-3.8-6.3,1.5-2.5-4.7-3.1,1-3.1,3.5-.6-2.1-1.7,2.6h0l-1.3-2.5-2,1.2-.4-4.1-5.1-2.6,1.5-1.2.3-3.6,1.7-.8-7.1-7.9-3.4.9.5-2.5-1.7-.6,2.6-1.5h0l5.2-.3.7-2.4,2.6.7,1.6-1.9h4.8c0,.1-1.7,4.5-1.7,4.5l2.6-1.2-.9,1.7,1.6.2.4,2.4,3.8-.5.6-1.2,1,1.6,1.2-2.8,2.8.5,2.1-1.9,3.2,2.2,5-2.1,1.6.8-.4-1.3,1.8-1.6.8,2.3,4.7,2.1,11.5-6.5Z"/>
    <path id="FR-89" d="M281.6,169.5l3.8-4.4-1.1-2.8,1.1-2.8,12.6-1.6h0l.5,1.6,2.6-.4,4,5-1.4,4.3,1.8-.3,1.3,2.6,2.8-1.3-.3,1.7,1.8.8,2.8,5.3-.7,1.6,1.5-.9.6,1.1-.6,2.6,5.1.2.5-1,1.7,1,2-1.7,1.2.9.8-1.6.6,2.1,1.7.3h0l.6,1-2.2,1.6.8,1.8,2-.4v4.6c.1,0-3.1,1.7-3.1,1.7l1.6,2.1-1.9.2.8.9-4.6,7.3.3,3.4-2,2.1,1.4,3.4h0l-3.6,1.5-1.8-4.2-2.6,1.4-.2-3.5-1.7,2.8-1-1.3-2.1.3-1.8-2.6-3-.3-3-5.3-.4,3.4-3.3-.6-1.6,1.9-6.3-2.5-2.1-3.5-2.8,1.6-1.5-.6h0l-1.7-5.7-2.7-1.8v-2.1c.1,0,6.1-1.5,6.1-1.5l-.6-6.1,4.1-3.4v-2.9c-.1,0-2.7-2.2-2.7-2.2l-.7-3.1-3.2-1.5Z"/>
    <path id="FR-90" d="M415.3,186.9l1,2,5.8,3-1.1,6.1,2.8.5,1.6,4.5h0l-5.1.5.6,2-2.1,1h0l-1.1-2,1.3-2-1.5-1.8-3.2-.6h0l-1.7-9.4,2.2-3.4h0l.4-.4Z"/>
    <path id="FR-91" d="M256.2,138.4l3.8,1.2h0l3.7,1.3,3.4-1.1,2,2.4h0l-2.5,7.5.2,6,1.5,1.4-2.5.6-2.4,3.8h0l-2.6-.9-2.9,1.8-1.4-2.3-1.4,2.3-5.8.6h0l-1.2-1.2.7-4.7-1.7-.2-.2-2.7h0l1.9-3.5-1.5-1.8,2.8.2,1.5-3-1.8-2.3,2.9-1.9.2-2.1,3.1-1.5Z"/>
    <path id="FR-92" d="M259.2,128.9l1.8.5-.5,2.1h0l-3.3,2.3,3.6,1.8h0l-.9,4h0l-3.8-1.2h0l-1.7-4,2-3.4h0l2.8-2.2Z"/>
    <path id="FR-93" d="M268.4,125.6l1.8,4-1.5,2.5,1.2,4.2h0l-2.1-2.5-4.2-.2h0l-.6-2.2h-2.4s.5-2.1.5-2.1l-1.8-.5h0l2.9-1.2,2.5,1,3.8-3Z"/>
    <path id="FR-94" d="M263.6,133.7l4.2.2,2.1,2.5h0l.6,2.3-1.4,3.7h0l-2-2.4-3.4,1.1-3.7-1.3h0l.9-4h4.3c0-.1-1.6-2-1.6-2Z"/>
    <path id="FR-95" d="M239.4,114.2l1.2.4v2.3c0,0,3.3.9,3.3.9l5.7-.6,2.7-1.8,3.1,2.4,1.6-.8.3,1.4,3-1.8,6.1,4.2,2.2-.9,1.2,2.3h0l-1.4,3.6h0l-3.8,3-2.5-1-2.9,1.2h0l-2.8,2.2h0v-2.2c.1,0-2.8-3.4-2.8-3.4l-3.3,1-4-2.6-1.1,1.6-1.6-3.1-3.7,1.7-3.9-1.7h0l3.3-8Z"/>
  </g>
</svg>