<?xml version="1.0" encoding="UTF-8"?>
<svg id="Layer_1" xmlns="http://www.w3.org/2000/svg" xmlns:amcharts="http://amcharts.com/ammap" version="1.1" viewBox="0 0 512 512">
  <!-- Generator: Adobe Illustrator 29.1.0, SVG Export Plug-In . SVG Version: 2.1.0 Build 142)  -->
  <g id="_x3C_defs">
    <amcharts:ammap bottomLatitude="41.363005" leftLongitude="-4.778054" projection="mercator" rightLongitude="9.560176" topLatitude="51.089278"/>
  </g>
  <g>
    <path id="FR-GES" d="M445.1,123.7l-2.3,1.3-2.5-1.7-2,1.2-3.5-.6-3.6-2.2-1.2-3.7-2,.2.3-1-2.7.6-2.4,2.9-4.7-.3-2-1.8-1.6,2.2-.6-4-3.2-1.7-3.4.5v3.1c0,0-3.4-.6-3.4-.6l-2.4-6-3.5-3.5,1.1-1-2-3.5-3.9-2.3-3.2.5-3.2-2.4-6.8,3.5-2.1-.2-.5-2.2-3.3-.3-3.3-3.4-.9,1.3-3.5-.6-1.1,2.2-1.9-1.2-2.9,1.7-1.5-5.1-2.8-1.8-1.2,1,.6-2.2-2.1-2.2-3.5.2-2.5-3.7-3.4-2-4.9.4-.2-3.9,1.4-2.3-3.4-3.1,1.8-3.7-.7-1.4,2.6-3.8-2.4-1.7-4.5,4.4v4.7s-8.4,3.1-8.4,3.1l-4.7-1.7-2.7.6h0l.7,4.8-1.6,4.7,1.5,1.2-4.2,4.2-.4,2.4-3.1.6,1.9,2.7-1.4,11.1-3.9-2.4-2.3,1.4-.2,1.8-2.5-.6-4.5,2.2.3,5.3,3.2,2.8-4.3.4-.7,1.6,1.3,2.2-1.8,2.1,2.2-.3.9,1.5-6.6,8.4h0v2c0,0-2.8.3-2.8.3l1.4.9-1.7,1.6,2.5,1-.6,5.3,2.8-.6.9,1.5-3.2,2.4.5,1.5-2.5.7,1.1,1.9-1.9.6,1.1,4.6h0l.5,1.6,2.6-.4,3.9,5-1.4,4.3,1.8-.3,1.3,2.5,2.8-1.3-.3,1.7,1.8.7,2.8,5.2-.7,1.6,1.5-.9.6,1.1-.6,2.6,5.1.2.5-1,1.7,1,1.9-1.7,1.2.9.8-1.6.6,2.1,1.6.3.7-1.8,8.2-.3-.6-2,1.5-1.1,7.3,1.2-.3,2.2,2.8,1.1-1.2,1.6,2.4-.6,3,5.7-2.6,2.1,1.5.3.3,3.8,2.1-1.2,3,3.2,2.1-1.7-.2,1.4,2.9,1.5-.2,2.3,2.3-1.8,1.1,1.1,2.2-4.4,3.6.2,1.4-1.7,1,1.8,3.2-.6v-6.9s1.7,0,1.7,0l.7-2,2.3.4,3.6-6.3.6,2.1,3.1-3.4,3.3-.8,2.3,4.4h0l6.3-1.5,3,3.8,4.4-3,8.8,8.2,5.1,2,1.1,3.1-1.5,4,2.8.5,1.6,4.5h0l2.4.4-1.1,2.5,2.5,1.1,4.9-.5,2.4-2-.8-1.2,2,.6,1.4-2.3-1.1-.6,2.9-1.8-2.4-6.1,1.2-1.8.3-7.4,2.2-4.7-1.8-3.2.2-4.4,4-9.3,1.8-1.3-.4-3.4,3.6-12.7,4.5-6,4-2.3,4.7-8.9-.9.4-9.1-4.7Z"/>
    <path id="FR-NAQ" d="M131.4,278.3l2.5,5.2-1.5,4.2-1.3-4-4-3.6-.9-4.6,5.2,2.8ZM129.3,270.7l2.4-.8-3.9-2.3-2,.4.4-1.4-2.9.9v-2.2s-2.1.6-2.1.6l.9,2.1,7.2,2.8ZM252.2,257.2l.2,1.9,1.6.5-1.1,1.4,6.1,3.1,4.1,12,.3,3.1-1.6.7-.3,2.1-5.7,4.3,4.6,5.6v3.3c0,0-2.1,2.2-2.1,2.2l1.9,2-1,6.6,1.4,1.3-1.6,1.1-4.5-2,.4,3.6-5.7,5.6,1.3,2.7-1.8,1.4-.2,2.7-2.5,1.1,1.5,2.8-2.8,1.2h0l-3.9,1.1-1.4-1.2-3.6,2.6-5.8-5.3-3.3-.7-4.3,2,1.1,6.1-4.8,4,.6,2.7-5.7,3.4-1.5,4.6-4.2,1.4,2.7,8.5-4.1,1-1.5-1.7-.9,3.4,2.8,1.7-1.5,4-1.8.3,1.4,2.2-3.6-.3.3,1.5-4.6,4.1-2.4-2.7-10,4.3-2.4-1.5-2.5,2.3-1-1.4-2.4,1.9v3.1c.1,0-2.6-1.6-2.6-1.6l.9-1.2-1.5-1.4-2,2.6-2.9-.5-2,2,1.8,1.4-.2,2.7h-1.1c0,0,1.1,3.4,1.1,3.4l-1.9,1.4-1,4.2,1.4,1.7h4.8s2.7,5.2,2.7,5.2l-1.6.4v2.4s2.2-1.6,2.2-1.6l1,4.6-2.6,2.1,1,1.4-1.9,2.2.2,2.1h-1.7c0-.1-2.6,2.9-2.6,2.9l.4,2.9-3.7,2.2-.9,7.2h0l-2.8,2.3-3.8-1.3-1.6,2.3-6.1-5.5-.8-3.3-6.5.7-5.8-3.3-1,.7-5.7-2.8,1.3-2.3-2.5,1.1-.3,3.1-2.9-.8-1.1-2,3.1-4.7-.2-3.2-5-1.7-2.5,2-.5-2.6-3.6.5-2-2.5v-1.1c0,0,4.1-.7,4.1-.7l2.3-2.1,5.2-10.1,5.1-26.6,1.4-15.8,2.1-5.5,6.5,1.1-2.2-2.9h1.2s-4.6-3.8-4.6-3.8l-2.7,7.7-.5-.9,3.6-40.6,3.3-4.8-.2,3,9,8,3.9,12.5,3.6,3.5-2.8-5.2-4-16.2-6.4-4.8-1.8-3-7.2-3.4v-4.6c0,0,3.5-.8,3.5-.8l-1.5-2.5,2.2-.3,1.4-2.4-.7-4.2,1.5-.5-2.6-6.1-1.5-.5.8-.9-3-.3,4.3-4.7-.2-2.8h0l6.4-2.7-1.1,2.4,1,.6,4.5-1.6,2.7,2,6.2-4.1-2.3-1.4-1.2.8.9-11.1-1.5-.7.7-1.3-2.8-4.6.7-2.7-4.5-3.7.8-1.8-3-2.7,3.7-1.5,6.4.4,1.9-1.8-.4-1.6,2.1-1h1.2c0,0-.7,1.5-.7,1.5l2.9-1.9,7.2-.9,1.4.2-1.2,1.7,1.7.8,1.5-2.3,1.7.7,1-3.7,2.1-.2h0l.9,2.2,3.5.2v2.8c-.1,0,4.1.4,4.1.4l.7,6,9.4-1.3-1-2.4,4.2,1.6.4,3.5,7.1,8.8v6.2c0,0,3.5,1.7,3.5,1.7l.2,1.5h2.5s4.1,5.1,4.1,5.1h0l-.7,2.8,3.9.3,1.7-1.4,2.1,2.6,3.8-4,.6,1.7,2.2-1.4.7,1.6,1.9-1.5,1.5,1.4,1.8-3.3,1.9,1.5,4.8-.9,3.7,1.6,6.5-.5Z"/>
    <path id="FR-ARA" d="M416.7,303.7l-3.4-1.7v-6.6s-2.9-.6-2.9-.6l-3.7-3.6.5-5.4,4.1-.5,3.5-3.7-3.7-6.9-2.2.6.9-3.6-3.5-.6,2.3-7-3.2-3.7,1.7-3.5-10.3-1.5-9.1,4.8-1.1,2.4,1.4,3,1.7-.2-.5,1.5-5.7,4.2-5.8.6.8-4.3,4.9-1.7-.8-1.7,2.3-4-3.6-2.4h0l-6.7,7.4-4.9.2-.4-2.4-2.4-1.7-3.5,3.7-2.2.2-.2-2.9-1,.4-.4-1.6-.7,1.8-.9-3.5-2.7-1.5.5-1.6-2.7-.6-1.1-2.5-5,1.2-3.9-1.7-5.5,16.9-1.8-.2.4-2.6-1.9-1.3,1.1-1-1.1-1.4-2.1,2-1.7-1.4-2.2,1.3-3.4-1.4-1.1,5.4-3.1,1.4-2.5-1.8-7.4,1.2-.6-1.6-2.8-.6v-3.5s3.9-2.1,3.9-2.1l-.2-6.6-1.7-1.5-2.8.2-1-2.1-3.3-.4-.2-3.1-3.8-7.6-1.2-.3-1,3.6-3.5,1.9-1.2-3.1-2.5,1.5-2.6-1.6-2.4,2-5.7-5.9h-3.8c0,0-2.5,3.4-2.5,3.4l-2.9.4-1.5-1.4-3.1,2.7v1.6c.1,0-1.9,0-1.9,0l1.5,5.2-2.7,1.7h-6c0,.1-2.7,4.9-2.7,4.9h0l.2,1.9,1.6.5-1.1,1.4,6.1,3.1,4.1,12,.3,3.1-1.6.7-.3,2.1-5.7,4.3,4.6,5.6v3.3c0,0-2.1,2.2-2.1,2.2l1.9,2-1,6.6,1.4,1.3-1.6,1.1-4.5-2,.4,3.6-5.7,5.6,1.3,2.7-1.8,1.4-.2,2.7-2.5,1.1,1.5,2.8-2.8,1.2h0l1,4.9,2.7,4.1-1.4,4.4,2.7,3.8.3-1.5,2.7-.9,2,1.3,4.5-.5,2.6-3.3,1.5-6,4.5-4.6,1.2,4.1,3-.9,4.2,11,4.1-11.6,1-.8,2.1,2,1.7-3.5,1.5.4,2.9-2.3,3.9,8.1,3.5-.9.2-2.4h2.1s.4,2.3.4,2.3l2.6-.4,4.5,4.7.9,7,5.7,9-.7,4.1,2.8-.8,4.3,3.4,2.4-3.5,2.2-.4v2.7c.1,0,1.6.3,1.6.3l.5-2.6,1.8-.3,4.9,3.5h0v-2.8s4.8.8,4.8.8l1,4.1,8.2-3.8,1.7,1.4,2-1.8-.5,3.9,6.9.8,1,2.8,2.5,1.7,3-.6,2.1-2.8,1.4.9,1.5-1.2v-3.4s-2.7-1.9-2.7-1.9l.7-1.3-4.6-.2-2.1-1.8-.4-2.4,2.7-.6-1.4-3,5.3,1.3,1.7-1.5-2.3-2,1.6-5.1h5c0,0,1.4-1.8,1.4-1.8l-1.1-.8,1-2.5h4.2s1-1.1,1-1.1l-1.1-1.1,2.3-1.5,1.3.9,2.6-2.3,3.9.6,1.5-1.1,2.2.9-1.1-6.9-4.1-.8,1.4-5h3c0-.1,1.1,2.4,1.1,2.4l2.9.9,2-2.8h4.1s4.7-2.4,4.7-2.4l4.3,1.1v-1.5s1.8,0,1.8,0l1.9-2.4,2.7.2,1.8-1.9-.8-3.5,2.2-4-2.1-1.1-.5-1.8Z"/>
    <path id="FR-BFC" d="M278.4,159.7l-1.1,2.8,1.1,2.8-3.8,4.4h0l3.2,1.5.7,3.1,2.6,2.2v2.9c.1,0-3.9,3.4-3.9,3.4l.6,6-5.9,1.5v2.1c-.1,0,2.5,1.8,2.5,1.8l1.7,5.7-4.4,1.6,2.8,5-2.2,5,3.9,3.8,1.2,9.9,2,2-1.6,11.4h0l5.7,5.9,2.4-2,2.6,1.6,2.5-1.5,1.2,3.1,3.5-1.9,1-3.6,1.2.3,3.8,7.6.2,3.1,3.3.4,1,2.1,2.8-.2,1.7,1.5.2,6.6-3.9,2.1v3.5s2.8.6,2.8.6l.6,1.6,7.4-1.2,2.5,1.8,3.1-1.4,1.1-5.4,3.4,1.4,2.2-1.3,1.7,1.4,2.1-2,1.1,1.4-1.1,1,1.9,1.3-.4,2.6,1.8.2,5.5-16.9,3.9,1.7,5-1.2,1.1,2.5,2.7.6-.5,1.6,2.7,1.5.9,3.5.7-1.8.4,1.6,1-.4.2,2.9,2.2-.2,3.5-3.7,2.4,1.7.4,2.4,4.9-.2,6.7-7.4h0l3.1-6.4-1.6-1.6,11.7-9.8.4-5.7-1.1-1.9,9.8-6.1-.6-1.6,8.6-8-.4-2.2,3.8-2.3-1.3-2-4.7,1,2.1-4,2.1-1-.6-2,5.1-.5h0l-1.6-4.5-2.8-.5,1.5-4-1.1-3.1-5.1-2-8.8-8.2-4.4,3-3-3.8-6.3,1.5-2.3-4.4-3.3.8-3.1,3.4-.6-2.1-3.6,6.3-2.3-.4-.7,2h-1.7s0,6.8,0,6.8l-3.2.6-1-1.8-1.4,1.7-3.6-.2-2.2,4.4-1.1-1.1-2.3,1.8.2-2.3-2.9-1.5.2-1.4-2.1,1.7-3-3.2-2.1,1.2-.3-3.8-1.5-.3,2.6-2.1-3-5.7-2.4.6,1.2-1.6-2.8-1.1.3-2.2-7.3-1.2-1.5,1.1.6,2-8.2.3-.7,1.8-1.6-.3-.6-2.1-.8,1.6-1.2-.9-1.9,1.7-1.7-1-.5,1-5.1-.2.6-2.6-.6-1.1-1.5.9.7-1.6-2.8-5.2-1.8-.7.3-1.7-2.8,1.3-1.3-2.5-1.8.3,1.4-4.3-3.9-5-2.6.4-.5-1.6-12.5,1.6Z"/>
    <path id="FR-BRE" d="M63.6,209l6.4,3.7-.5,1.4-5.6-.8-.3-4.3ZM64.4,133.6l.2,1.8,4.6-1.9v2.5l2.5-.2-1.1,2.2,3.9,1.3-.6,1.8,4.4,3.7-.2,2.8,3.7,2-.9,1.6,1-.4h1l1.9.5,2.5-4,2.8-1.2-.5-1.2,1.8-.4.6,1.2,3.5-3.1,1.2,1-1.8,2.5,3.2-1.3,2.2,3.5,1-2.2v-.8c0,0,3.5-.3,3.5-.3l2.6,4.9-.4,2.5,1.5-2.1-1.5-2.4,1.3.7-.5-1.1-2.1-2.5,1-2.3,5.1-1.5-.9,3.8,3.1,1.8,7-1.6h0l2.8,7.5,2.3,1.4,2.3-.4,3.4-3.9,6.3,1.8h0l.8,9.2-1.9,3.2,2.9,13.4-4.7,1.9-3.1,9.5-7.9-3,.2,1.6-5.1,2-1.3,2.7h-6.8s-3.2,1.9-3.2,1.9l-.6-1.1-3.7,2.2-.6,5.9-2,.6-.2,1.6-4.6-1.3-.6,2.8-3.6-.8-1.2,1.5h-1.3c0-.1-.2-2.2-.2-2.2l2.1-.3-2.3-1.3-10.4,1.9-3.3-3.4-4.4-1.3-2.8.5.3,2.7,1.2,2.4-1.8-.2-.6-6.2-4.7-4.5h-2.5s-.2-1.3-.2-1.3l-3,.8-2.5-3.4-6.8-2.1-4.3.7-3.1-5.7-1.5,1,.5,1.5h-5.9c0-.1-1.5,2.9-1.5,2.9h-6s.3-4.6.3-4.6l-2.1-3.8-3.1-2.2-7.7-1.7.8-1.3,10.2-2.2,3.8.9,1.3-2.1-1.7-3.8-5-1.8-3.2,3.5.5-4-2.7-.3-.2-1.3h2c0-.1,0-2.6,0-2.6l1.3-.5v2.9c-.1,0,9.3.2,9.3.2l.4-1-3.1-.8,1.2-.8-.5-1.6-1.9,1.8h-2.9s2-2.9,2-2.9l-.8-.6-6.3,2.9-2.5-.9-3.1,1.3v-9.5c-.1,0,1.5-2.1,1.5-2.1l4.1-1,2.3-3.1h4.8s-1.2-.9-1.2-.9l3.1-1.2,1.7.6v1.6s3.4-.9,3.4-.9l-.9-.4,1.2-1.5,4.3.5,1.8-2.6h1.3s0,2.7,0,2.7l1.4.6,2.6-.6,1.1-2.3,6.1,1.2.7.5,1.4.8,1.1-3.9-1.3-3.2,1.1.7,1.7-2.5,3.6,2,5.9-3.5Z"/>
    <path id="FR-CVL" d="M225.6,129.8l3.3,5.2v9c.1,0,6.4,5.7,6.4,5.7l.5,4.5,2.3,1.3,2.1-.9v2.6c0,0,1.6.2,1.6.2l.4,1.9-.5,3.8,6.5-.5,1.4-2.3,1.4,2.3,2.8-1.8,2.6.9.7,2.9,3.2,1.7v3s-2.5,2.2-2.5,2.2h8.9s1.7-1.1,1.7-1.1l-.6-1.1h2.1c0-.1.7,1.9.7,1.9l4-1.7h0l3.2,1.5.7,3.1,2.6,2.2v2.9c.1,0-3.9,3.4-3.9,3.4l.6,6-5.9,1.5v2.1c-.1,0,2.5,1.8,2.5,1.8l1.7,5.7-4.4,1.6,2.8,5-2.2,5,3.9,3.8,1.2,9.9,2,2-1.6,11.4h-3.8c0,0-2.5,3.4-2.5,3.4l-2.9.4-1.5-1.4-3.1,2.7v1.6c.1,0-1.9,0-1.9,0l1.5,5.2-2.7,1.7h-6c0,.1-2.7,4.9-2.7,4.9h0l-6.5.5-3.7-1.6-4.8.9-1.9-1.5-1.8,3.3-1.5-1.4-1.9,1.5-.7-1.6-2.2,1.4-.6-1.7-3.8,4-2.1-2.6-1.7,1.4-3.9-.3.7-2.8h0l-4.1-5.1h-2.5s-.2-1.5-.2-1.5l-3.5-1.7v-6.2c0,0-7-8.8-7-8.8l-.4-3.5-4.2-1.6,1,2.4-9.4,1.3-.7-6-4.3-.4v-2.8c.1,0-3.4-.2-3.4-.2l-.9-2.2h0l.8-5.9,3.6-5-1-.9,2.3-5.1-.9-2,1.3-3.3,5.2,1.8v-3.7s2.2,1.2,2.2,1.2l5-2.7.8-1.1-1.1-1.2,4-2.5,2.3-3.3-.3-3.5,1.7.6,1.3-2.6-.2-4.6-1.5-.4v-1.7c-.1,0,1.6-.1,1.6-.1l-1-1.4,1.3-1.7,2.2-.3-4-2.8h0l1.1-1-2.1-5.6,4.9-2.6,2.1-3.5-1.4-1.9,1-2.4-4.1-4.4h0l-1.3-2.8,1.9-1.2h0l.4-1.4,5.4-.6,1-1.6,1.8.6.2-2.2,7.2,1.5,1.4-1-.4-2.8,3.4-1.9-.4-2.7,1.8-.9Z"/>
    <path id="FR-COR" d="M473.9,485.6l1-2.2,3.8-2.1-4.6-.5-.2-1.9h-4s2.4-1.6,2.4-1.6l-.6-1.2,2-.4,1.1-3.8-1.9-1.7-4.8,1.8-.5-3.3,1.9-.2.4-2,3-1.7-1.6-2.9-4.1-.7-.3-4.6-1.1-.4,5.3-1.3-3.1-1.8.4-2-2.1.7-.3-1.9,3.8-1.9.8-2.5-1.1-.4,2.4-2.2.2-2.7,2.1,1.4.5-2.3,7.3-1.8,3.7-4.2,3.3-.2,2.6,2.7,1.6-2.7-1.2-4.5,1.8-4.2-.7-3.2,2.8-.8,1.4,1.2,1,8.3-1.6,6.1,3,5.9.9,16.2-.3,4.2-4.7,6.9-.9,14-3.7,2.2.3,1,1-1.4,1.7.5-3.3,2.9.2,3-2.4,2.3h1.7s-2.7,2.2-2.7,2.2l-2.9-1.4.9-2-1.7-.3.3-1.7-1.4,1.1-1.4-1.5h-2.7s-2.6-1.3-2.6-1.3l.4-1.3-2.3-.4-.4-1.7Z"/>
    <path id="FR-IDF" d="M232.5,114.7l1.7,2.9,2.8.6,5.7-.6,2.7-1.8,3.1,2.4,1.6-.8.5,1.5,2.8-1.8,6,4.2,2.1-.9,1.1,2.3,1.7-1.5,3.4,2.5,2.5-1.9,1.5,1.4,4-1.1.6,1.1,2.7-.7v-1.7c.1,0,2.4.6,2.4.6l1.8,2.9-.8,2,3.3,3.8,1.4-.5.8,2.1,1.3-1,.5,2.9,2.7,1.8.8-.8h0v2c0,0-2.8.3-2.8.3l1.4.9-1.7,1.6,2.5,1-.6,5.3,2.8-.6.9,1.5-3.2,2.4.5,1.5-2.5.7,1.1,1.9-1.9.6,1.1,4.6h0l-12.5,1.6-1.1,2.8,1.1,2.8-3.8,4.4h0l-4,1.7-.7-2h-2.1c0,.1.6,1.2.6,1.2l-1.7,1.1h-8.9s2.5-2.2,2.5-2.2v-3s-3.2-1.7-3.2-1.7l-.7-2.9-2.6-.9-2.8,1.8-1.4-2.3-1.4,2.3-6.5.5.5-3.8-.4-1.9-1.7-.2v-2.6c0,0-2,.9-2,.9l-2.3-1.3-.5-4.5-6.3-5.7v-9c-.1,0-3.4-5.2-3.4-5.2h0l.6-2h-1.7c0,.1-.8-3.9-.8-3.9l1.4.2.7-1.8h3.8l2.8-7.6Z"/>
    <path id="FR-OCC" d="M333.1,361.2l2.5,3.9v5s2.2.7,2.2.7l2,3.6-6.9,5.8.9,1-1.3,7.5-4.9-.6-2,3.4,1.6.5-.4,1.1-7.5,4.2-.4,1.8h0l-3.3-1.2-1-3.1-4.5.3-11.3,7.6-4.7,5.4-2.7-1.1-2.6.8-5.8,4.7-4.8,10.8-.3,10.9.6,7.5,3.2,1.2,1.2,3.6-3.1.6-1.8-2.3-5.6.4-2.4,2.3-4.3.7v2.9s-6.5,0-6.5,0l-1.7-2.4-6-2.1-3.5.7-4.7,3.5-2.8-4.8-7-1.9.3-2.8,1.9-1.2-2.4-.4.3-1.2-8.3-1.7-1.9,2.3-2.8-5.4-6.4.5-3.1-3.7h-5.2s-7.4-3.4-7.4-3.4l-2.2,3.6,1,4.3h-8.6s-2.1-1.5-2.1-1.5l-2.2,2.3-4-2.9-8,2.1-3.5-4.9-5.2-2.4h0l.9-7.2,3.7-2.2-.4-2.9,2.6-3.1h1.7c0,.1-.2-2-.2-2l1.9-2.2-1-1.4,2.6-2.1-1-4.6-2.3,1.6v-2.4s1.7-.4,1.7-.4l-2.7-5.2h-4.8s-1.4-1.7-1.4-1.7l1-4.2,1.9-1.4-1.1-3.3h1.1c0,0,.2-2.8.2-2.8l-1.8-1.4,2-2,2.9.5,2-2.6,1.5,1.4-.9,1.2,2.7,1.6v-3.1c-.1,0,2.3-1.9,2.3-1.9l1,1.4,2.5-2.3,2.4,1.5,10-4.3,2.4,2.7,4.6-4.1-.3-1.5,3.6.3-1.4-2.2,1.8-.3,1.5-4-2.8-1.7.9-3.4,1.5,1.7,4.1-1-2.7-8.5,4.2-1.4,1.5-4.6,5.7-3.4-.6-2.7,4.8-4-1.1-6.1,4.3-2,3.3.7,5.8,5.3,3.6-2.6,1.4,1.2,3.9-1.1h0l1,4.9,2.7,4.1-1.4,4.4,2.7,3.8.3-1.5,2.7-.9,2,1.3,4.5-.5,2.6-3.3,1.5-6,4.5-4.6,1.2,4.1,3-.9,4.2,11,4.1-11.6,1-.8,2.1,2,1.7-3.5,1.5.4,2.9-2.3,3.9,8.1,3.5-.9.2-2.4h2.1s.4,2.3.4,2.3l2.6-.4,4.5,4.7.9,7,5.7,9-.7,4.1,2.8-.8,4.3,3.4,2.4-3.5,2.2-.4v2.7c.1,0,1.6.3,1.6.3l.5-2.6,1.8-.3,4.9,3.5Z"/>
    <path id="FR-HDF" d="M315.6,73.3l3.2-2.6-1-3.4h-2.4s2.7-7.4,2.7-7.4l-1.6-.9-.8,1.7-3.9-5.4-4.2,1.7-5.3-1.3-1.4,2.5-1.7-3.4v-4.6c0,0-1.7-2.1-1.7-2.1l-3.7.5.6-1.9-1.5-.5-3.4,2.2-2.9-1.8-1.8-7.2.7-2.3-2.4-1.3-1.4-3.5-6.8,2.1-1.6,3.2-4-1.9-2.3-4.5h-3c0-.1-1.2-2.1-1.2-2.1l-.3-3.8,1.4-1.5-3-7.7-27.3,7.8-2.9,3.1-2.7.8,1.1,3.6-1.7,4.2.5,8.4.4,1.7-1.1,7.4,2.4,1.8-2.4.3-.6,4.2,5.2,5-5.7-1-4.9,7.6h0l2.4-.3v1.6c.1,0,9,8.1,9,8.1l2.5,6.6h-1.3c0,0-2.1,3.6-2.1,3.6h2.1l-1.8,2.7v3.3s1.8,2.3,1.8,2.3l-1.1,1.8h2.5s-2.6,5.1-2.6,5.1l3.1,7-.5,1.5-1.1-1.4-1.7.4-.2,1.7h0l1.7,2.9,2.8.6,5.7-.6,2.7-1.8,3.1,2.4,1.6-.8.5,1.5,2.8-1.8,6,4.2,2.1-.9,1.1,2.3,1.7-1.5,3.4,2.5,2.5-1.9,1.5,1.4,4-1.1.6,1.1,2.7-.7v-1.7c.1,0,2.4.6,2.4.6l1.8,2.9-.8,2,3.3,3.8,1.4-.5.8,2.1,1.3-1,.5,2.9,2.7,1.8.8-.8h0l6.6-8.4-.9-1.5-2.2.3,1.8-2.1-1.3-2.2.7-1.6,4.3-.4-3.2-2.8-.3-5.3,4.5-2.2,2.5.6.2-1.8,2.3-1.4,3.9,2.4,1.4-11.1-1.9-2.7,3.1-.6.4-2.4,4.2-4.2-1.5-1.2,1.6-4.7-.7-4.8h-1.2c0,.1-2-3.2-2-3.2Z"/>
    <path id="FR-NOR" d="M232.3,96.3h0v-3.3s1.9-2.7,1.9-2.7h-2.1l2.1-3.6h1.3c0,0-2.5-6.5-2.5-6.5l-8.9-8.1v-1.6c-.1,0-2.5.3-2.5.3h0l-10,6.9-17,4.1-13,7.6-4.8,10.5,3.4,3.1h4.5c0,.1-.4,1.2-.4,1.2l-5.3,1.5-7.3,5.4-4.6.9-5.9-2.7-12.3-.8-7.2-2.5-3.7.4-1.4,2.4-1.3-1-1.6,1.5,1.2-3.8-4.9-7.4,2.7-3.1-1.2-4.7h-7.1s-2.1,2.2-2.1,2.2h-2.5c0-.1-11.4-3.8-11.4-3.8l-.2,2.7,3.4,2.3.3,3.2-1.6,1.9,2.7,8.5,3.5,2.3,3.2,5.8,1.2,11.3.7-1.4.2,4.8-2.2,5.1,1.4.7.2,4,4.1,4.6,1.2-.2,2,1.4h-7.4c0-.1,2.8,7.4,2.8,7.4l2.3,1.4,2.3-.4,3.4-3.9,6.3,1.8h0l7.7.5,2.9,3.2,1.6-.7-.6-1.2,2.3-.6.4,2.1,4.8-3.3h3.9c0,0,1.5,1.3,1.5,1.3l1.1-2,1.7.8.8-2.9h1.4s2.1,1.9,2.1,1.9l-1,.9.9,2.8,3.3.3v3.9s1.7-1.2,1.7-1.2l2,1,3-4.1,5.3-1.2,2.8,2.9.3,5.3,3.3.6,1.6,3.1,3.5.8.5-1.6,2.9,3.9,2-.3h0l1.1-1-2.1-5.6,4.9-2.6,2.1-3.5-1.4-1.9,1-2.4-4.1-4.4h0l-1.3-2.8,1.9-1.2h0l.4-1.4,5.4-.6,1-1.6,1.8.6.2-2.2,7.2,1.5,1.4-1-.4-2.8,3.4-1.9-.4-2.7,1.8-.9h0l.6-2h-1.7c0,.1-.8-3.9-.8-3.9l1.4.2.7-1.8h3.8l2.8-7.6h0l.2-1.7,1.7-.4,1.1,1.4.5-1.5-3.1-7,2.6-5h-2.5s1.1-1.8,1.1-1.8l-1.8-2.3h0Z"/>
    <path id="FR-PDL" d="M97.4,227l1.3.9-.5,1.7,2.6,1.3.2,2.7-2-3.2-3.1-1.7-.2-1.7h1.7ZM137.9,152.1l7.7.5,2.9,3.2,1.6-.7-.6-1.2,2.3-.6.4,2.1,4.8-3.3h3.9c0,0,1.5,1.3,1.5,1.3l1.1-2,1.7.8.8-2.9h1.4s2.1,1.9,2.1,1.9l-1,.9.9,2.8,3.3.3v3.9s1.7-1.2,1.7-1.2l2,1,3-4.1,5.3-1.2,2.8,2.9.3,5.3,3.3.6,1.6,3.1,3.5.8.5-1.6,2.9,3.9,2-.3h0l4,2.8-2.2.3-1.3,1.7,1,1.4h-1.7c0,.1.1,1.8.1,1.8l1.5.4.2,4.6-1.3,2.6-1.7-.6.3,3.5-2.3,3.3-4,2.5,1.1,1.2-.8,1.1-5,2.7-2.2-1.2v3.7s-5.1-1.8-5.1-1.8l-1.3,3.3.9,2-2.3,5.1,1,.9-3.6,5-.8,5.9h0l-2.1.2-1,3.7-1.7-.7-1.5,2.3-1.7-.8,1.2-1.7-1.4-.2-7.2.9-2.9,1.9.7-1.4h-1.2c0,0-2.1.9-2.1.9l.4,1.6-1.9,1.8-6.4-.4-3.7,1.5,3,2.7-.8,1.8,4.5,3.7-.7,2.7,2.8,4.6-.7,1.3,1.5.7-.9,11.1,1.2-.8,2.3,1.4-6.2,4.1-2.7-2-4.5,1.6-1-.6,1.1-2.4-6.4,2.7h-2.9c0,0-.1,2.3-.1,2.3l-4.7-3.6h-4.2s-1.6-3-1.6-3l-4.6-.8-5.6-3.7-1.5-5.7-9.7-10.5-.3-3.4h1.4c0-.1,4.5-7,4.5-7l-2.5-3.3-6.6-1.9,2.8-1.8-.2-4.8-4.4,1.6-2.6-2.3-1.9,1-3.9-1.6,1.3-2.4-1.8-1.8,3.5-3.7h0l1.2-1.5,3.6.8.6-2.8,4.6,1.3.2-1.6,2-.6.6-5.9,3.7-2.2.6,1.1,3.2-1.9h6.8s1.3-2.8,1.3-2.8l5.1-2-.2-1.6,7.9,3,3.1-9.5,4.7-1.9-2.9-13.4,1.9-3.2-.8-9.2Z"/>
    <path id="FR-PAC" d="M356.7,410.9l1.1-3.7-2.2-3.1-2.8,1.5-6.1.2-2.7-4.7-4.8-.2,1.1,1.3-1.3.2.4,1,1.5.9-1.4,1.3-8.7-1.5.3-2.9-2-1.4-10.3-.4h0l.4-1.8,7.5-4.2.4-1.1-1.6-.5,2-3.4,4.9.6,1.3-7.5-.9-1,6.9-5.8-2-3.6-2.2-.7v-5s-2.4-3.9-2.4-3.9h0v-2.8s4.8.8,4.8.8l1,4.1,8.2-3.8,1.7,1.4,2-1.8-.5,3.9,6.9.8,1,2.8,2.5,1.7,3-.6,2.1-2.8,1.4.9,1.5-1.2v-3.4s-2.7-1.9-2.7-1.9l.7-1.3-4.6-.2-2.1-1.8-.4-2.4,2.7-.6-1.4-3,5.3,1.3,1.7-1.5-2.3-2,1.6-5.1h5c0,0,1.4-1.8,1.4-1.8l-1.1-.8,1-2.5h4.2s1-1.1,1-1.1l-1.1-1.1,2.3-1.5,1.3.9,2.6-2.3,3.9.6,1.5-1.1,2.2.9-1.1-6.9-4.1-.8,1.4-5h3c0-.1,1.1,2.4,1.1,2.4l2.9.9,2-2.8h4.1s1.4,4.4,1.4,4.4l2.4.3.2,5.2,3.8,2.6,2.5-.6,3,1.9-.8,1.6,2.6,5.1-3.9.3.2,2.8-3.8,4.3,3.2,4.7-1.9.4-.2,2.8,4.1,6,6.2,1.6,5.8,4.1,11.2-2.8.7,6.3-7.1,8,1.2,4.3-6.5,3.3-.8.3-5.4,2.5-1.2,3.1-.8.7-2,1.7-2.6-.3-2.4,5.3-5,.3-1,3.5-4.8,3.5,4.2.3-1.7,4.6-2.9-1-2.2,1.8-3.8.3-.7,2.7-6-1.3-1.1,4.1h-2c0,0,1-2.4,1-2.4h-3.5c0,0-3.4-2.1-3.4-2.1l-1.4,1,2.3,1.6-4.1.8-1.2-.9.5-2.2-3.9-1.3-.3-1.7-2.2-.3-.6,1.2-2.3-2.5h-6.7Z"/>
  </g>
</svg>