<svg xmlns="http://www.w3.org/2000/svg" xmlns:amcharts="http://amcharts.com/ammap" id="Layer_1" viewBox="0 0 512 512"><g id="_x3C_defs"><amcharts:ammap bottomLatitude="-27.652" leftLongitude="-153.502" projection="mercator" rightLongitude="-138.609" topLatitude="-7.896"/></g><g><path id="PF-MI" d="M370.8 67.1v-2.5l-1.5-.3.3 2.9h1.2Zm-11.7-13.4 1.7-1.9-1.4-.8-1 1.3v1.4h.6Zm5.9-6.1-3.4-1.5-3.8 2 .7 1.3 1.7.6.5-1.3h3.8l1.9-1.6-1.5.4Zm-28.6-10-1.2-.5-1.4 1.1 1.6 1.9 1.1-1 .5-1.6h-.6Zm11.5-11.8-1.2.7.3 1.4 2.8-1.4zm-15.4-2.1-1.1 1 .8 2.6.8.6 1.9-1.1 1 .2.5-.9.9.4-.7-1.8.5-.8zm-12-18.2 1.7-2h-1.7l-.5.8z"/><path id="PF-TI" d="m233 508.5.7-1.7-.8-.8-.7 1.8zm-81.5-101.6.5-.5-1.9.3 1.3.2Zm-43.6-12.7.2-.8h-1.7l.5.9h1.1ZM61.6 371l.3-1.5-.8-.9.4 2.4Z"/><path id="PF-TG" d="m460.4 386.3-1.7.7.8.4.8-1.1Zm-137.3-36.5-1.2-1.6-.5.3.3 1.4 1.3-.2Zm124.7-5.1-1.4-.6 1.7 1.1zm-74.7-19-.6.2h.6l.7 1.6-.4.7.5-.5-.7-2Zm-45.1-29 .5-.7-.7-.7.2 1.3Zm-20.3-12-.7.3.9.6zm13.1-1.9-.6.4 1.5.5zM423.7 266v.6c-.1 0 .2-.4.2-.4l2.9 1.6.4.9.2-.6zm-12.7-3.3-2.1-1.8 2.3 2.4-.3-.7Zm-93.4-3.7-3.5-3.3 3.7 4zm-54.5-9-.5.3.8.4zm55.3.6 2.8-2.1 1.3-2.4-3.8 1.6-1.4 2.3 1 .5Zm-42.8-6.7-2-1.7 1.8 1.8-.3.5zm-69.1-4-.7-.7 1.3 1.7-.6-1.1Zm96.4-1.5-.2-.8h-.9zm-64.3-17-.6.2v.4l.4-.5 1 1-.7-1.1Zm15.6-2.4h-2.7 2.3l1.6 1.1-1.3-1.2Zm-9.3-2.6-.9-1.2-1.8-.4 2.8 2.3v-.6Zm-60.9-9.6-.7-1-1 .8 1.5.8zm150.7-4.7-1.1.6h1.5zm-197.1-2.2-.6-1.6-.2 1.3zm77.3.3-2.5-3 2.5 3.6v-.7Zm-27.6-13.1-.6-.9.3 1.6.2-.7Zm-31.5-6.7-.9-.6 1.7 1.3-.8-.8Zm-13.7-3.3-2.9-1 3.2 1.9-.2-1Zm68.1-7.3.5-1.3-.8 1.7v.3l1.7-1-1.5.8v-.6Zm-23.9-4.8v-.6c.1 0-.2-.4-.2-.4h-.7l.8.4-.4 1 .5-.5Zm7.1-.9.5-.2-1.1.2h.5Zm25.8-.8-3 .8 2.8-.6-2.8 2.3zm-23.2-1.7h-1.9 1.7v.5l.2-.6Z"/><path id="PF-LI" d="m71.1 223.6-.4-1-1.1.7.6.8.8-.5Zm-9.4 1.6-1.6-3-1.2-.2v3.8l.7.3zm8.1-2.6.6-.6-.5-1.2-.6 1.3zM59 218.2l-1.1-.2-.4 1.4 1.9 1 .6-1.5-.9-.6Zm-6.6-2.1-.8-.7.4 1.2.3-.5Z"/><path id="PF-WI" d="m111.8 246.7-.8-3.8-1.3-1.2-3.2-.5-2.8 1.4v1.7c-.1 0 1.1 2.9 1.1 2.9l2.8.7 3-1.1 1.7 3.2 2.1.6.8-.6-.7-2.9-2.9-.5Zm-11.7-5.9-3.9.3 2.5 1.9 1.4-2.3Z"/></g></svg>