<?xml version="1.0" encoding="UTF-8"?>
<svg id="Layer_1" xmlns="http://www.w3.org/2000/svg" xmlns:amcharts="http://amcharts.com/ammap" version="1.1" viewBox="0 0 512 512">
  <!-- Generator: Adobe Illustrator 29.1.0, SVG Export Plug-In . SVG Version: 2.1.0 Build 142)  -->
  <g id="_x3C_defs">
    <amcharts:ammap bottomLatitude="-27.652409" leftLongitude="-153.5019066" projection="mercator" rightLongitude="-138.6091323" topLatitude="-7.8955619"/>
  </g>
  <g>
    <path id="PF-MI" d="M370.8,67.1v-2.5s-1.5-.3-1.5-.3l.3,2.9h1.2ZM359.1,53.7l1.7-1.9-1.4-.8-1,1.3v1.4s.6,0,.6,0ZM365,47.6l-3.4-1.5-3.8,2,.7,1.3,1.7.6.5-1.3h3.8c0,0,1.9-1.6,1.9-1.6l-1.5.4ZM336.4,37.6l-1.2-.5-1.4,1.1,1.6,1.9,1.1-1,.5-1.6h-.6ZM347.9,25.8l-1.2.7.3,1.4,2.8-1.4-1.9-.7ZM332.5,23.7l-1.1,1,.8,2.6.8.6,1.9-1.1,1,.2.5-.9.9.4-.7-1.8.5-.8-4.6-.2ZM320.5,5.5l1.7-2h-1.7c0,0-.5.8-.5.8l.5,1.2Z"/>
    <path id="PF-TI" d="M233,508.5l.7-1.7-.8-.8-.7,1.8.8.7ZM151.5,406.9l.5-.5-1.9.3,1.3.2ZM107.9,394.2l.2-.8h-1.7c0,0,.5.9.5.9h1.1ZM61.6,371l.3-1.5-.8-.9.4,2.4Z"/>
    <path id="PF-TG" d="M460.4,386.3l-1.7.7.8.4.8-1.1ZM323.1,349.8l-1.2-1.6-.5.3.3,1.4,1.3-.2ZM447.8,344.7l-1.4-.6,1.7,1.1-.3-.5ZM373.1,325.7l-.6.2h.6c0,0,.7,1.6.7,1.6l-.4.7.5-.5-.7-2ZM328,296.7l.5-.7-.7-.7.2,1.3ZM307.7,284.7l-.7.3.9.6-.2-.9ZM320.8,282.8l-.6.4,1.5.5-.9-.9ZM423.7,266v.6c-.1,0,.2-.4.2-.4l2.9,1.6.4.9.2-.6-3.7-2.1ZM411,262.7l-2.1-1.8,2.3,2.4-.3-.7ZM317.6,259l-3.5-3.3,3.7,4-.2-.7ZM263.1,250l-.5.3.8.4-.3-.7ZM318.4,250.6l2.8-2.1,1.3-2.4-3.8,1.6-1.4,2.3,1,.5ZM275.6,243.9l-2-1.7,1.8,1.8-.3.5.5-.6ZM206.5,239.9l-.7-.7,1.3,1.7-.6-1.1ZM302.9,238.4l-.2-.8h-.9c0,0,1.1.8,1.1.8ZM238.6,221.4l-.6.2v.4c0,0,.4-.5.4-.5l1,1-.7-1.1ZM254.2,219h-2.7s2.3,0,2.3,0l1.6,1.1-1.3-1.2ZM244.9,216.4l-.9-1.2-1.8-.4,2.8,2.3v-.6ZM184,206.8l-.7-1-1,.8,1.5.8.2-.6ZM334.7,202.1l-1.1.6h1.5l-.4-.6ZM137.6,199.9l-.6-1.6-.2,1.3.8.3ZM214.9,200.2l-2.5-3,2.5,3.6v-.7ZM187.3,187.1l-.6-.9.3,1.6.2-.7ZM155.8,180.4l-.9-.6,1.7,1.3-.8-.8ZM142.1,177.1l-2.9-1,3.2,1.9-.2-1ZM210.2,169.8l.5-1.3-.8,1.7v.3c0,0,1.7-1,1.7-1l-1.5.8v-.6ZM186.3,165v-.6c.1,0-.2-.4-.2-.4h-.7c0,0,.8.4.8.4l-.4,1,.5-.5ZM193.4,164.1l.5-.2-1.1.2h.5ZM219.2,163.3l-3,.8,2.8-.6-2.8,2.3,3-2.5ZM196,161.6h-1.9c0,0,1.7,0,1.7,0v.5c0,0,.2-.6.2-.6Z"/>
    <path id="PF-LI" d="M71.1,223.6l-.4-1-1.1.7.6.8.8-.5ZM61.7,225.2l-1.6-3-1.2-.2v3.8s.7.3.7.3l2.1-.9ZM69.8,222.6l.6-.6-.5-1.2-.6,1.3.5.5ZM59,218.2l-1.1-.2-.4,1.4,1.9,1,.6-1.5-.9-.6ZM52.4,216.1l-.8-.7.4,1.2.3-.5Z"/>
    <path id="PF-WI" d="M111.8,246.7l-.8-3.8-1.3-1.2-3.2-.5-2.8,1.4v1.7c-.1,0,1.1,2.9,1.1,2.9l2.8.7,3-1.1,1.7,3.2,2.1.6.8-.6-.7-2.9-2.9-.5ZM100.1,240.8l-3.9.3,2.5,1.9,1.4-2.3Z"/>
  </g>
</svg>