<svg xmlns="http://www.w3.org/2000/svg" xmlns:amcharts="http://amcharts.com/ammap" id="Layer_1" viewBox="0 0 512 512"><g id="_x3C_defs"><amcharts:ammap bottomLatitude="36.109" leftLongitude="-5.367" projection="mercator" rightLongitude="-5.338" topLatitude="36.155"/></g><path id="GI-GI" d="m312.4 6.5-57.2 2.7L257 33l-24.4 1.6 29.1 6.8-53.2 1.8-2.4-17.4-21.3 20.7 1.5 13.2 57-2.7 2.2 28.7-106-17.2-7.1 8.8v47.1L136 81l22.4 9.5v23.8l2.4-33.5H175l-6.1 53.5 30 23.5 5.8 48.6 8.2-23.4 9.4 18.2 9.9 29.6-18.3 6.5-10.1-20.4 12.5 29.2 18.7-2.8-14.6 14.2L236 302l-21.9 16.9-67.8-83.5 88.6 124.2 15.1-.4-12.2 10.6 38.8 70.4-7.5 41.5 36.7 23.7 39.4-91.8 6.3-224.6 27.9-73.9-17.7-10.6 8.6-74.3z"/></svg>