<?xml version="1.0" encoding="UTF-8"?>
<svg id="Layer_1" xmlns="http://www.w3.org/2000/svg" xmlns:amcharts="http://amcharts.com/ammap" version="1.1" viewBox="0 0 512 512">
  <!-- Generator: Adobe Illustrator 29.1.0, SVG Export Plug-In . SVG Version: 2.1.0 Build 142)  -->
  <g id="_x3C_defs">
    <amcharts:ammap bottomLatitude="36.1088348" leftLongitude="-5.3674154" projection="mercator" rightLongitude="-5.3384194" topLatitude="36.1551188"/>
  </g>
  <path id="GI-GI" d="M312.4,6.5l-57.2,2.7,1.8,23.8-24.4,1.6,29.1,6.8-53.2,1.8-2.4-17.4-21.3,20.7,1.5,13.2,57-2.7,2.2,28.7-106-17.2-7.1,8.8v47.1s3.6-43.4,3.6-43.4l22.4,9.5v23.8c0,0,2.4-33.5,2.4-33.5h14.2s-6.1,53.5-6.1,53.5l30,23.5,5.8,48.6,8.2-23.4,9.4,18.2,9.9,29.6-18.3,6.5-10.1-20.4,12.5,29.2,18.7-2.8-14.6,14.2,15.6,44.5-21.9,16.9-67.8-83.5,88.6,124.2,15.1-.4-12.2,10.6,38.8,70.4-7.5,41.5,36.7,23.7,39.4-91.8,6.3-224.6,27.9-73.9-17.7-10.6,8.6-74.3-57.9-23.7Z"/>
</svg>