<?xml version="1.0" encoding="UTF-8"?>
<svg id="Layer_1" xmlns="http://www.w3.org/2000/svg" xmlns:amcharts="http://amcharts.com/ammap" version="1.1" viewBox="0 0 512 512">
  <!-- Generator: Adobe Illustrator 29.1.0, SVG Export Plug-In . SVG Version: 2.1.0 Build 142)  -->
  <g id="_x3C_defs">
    <amcharts:ammap bottomLatitude="59.7774011" leftLongitude="-73.0350638" projection="mercator" rightLongitude="-11.3123192" topLatitude="83.609581"/>
  </g>
  <g>
    <path id="GL-QA" d="M196,396.7l-1.6.5,2.1.2-.5-.6ZM202.1,394.5h-.2c0,0,.3,0,.3,0h0ZM201.1,394.9l1.3-.7-3.5.6h2.2ZM200.4,393.1l-2.8-.2-2.6,2.2,5.5-2ZM206.8,373.8l-2,1.1,2-.6-2.1,2.8.8,2.8,1.6-.3v-2.8c0,0,1.6-1.7,1.6-1.7l-1.9-1.4ZM197.2,373.6l-3-4.5-6.6-1.8-2.1,3.8,3.4,2.7-4,.9,3,3-3.4-.3,5.9,1.6-.4,1.6,1,.7,2.6-2-1.3,1.7,1,.6-4.9.6,3.9,2.6,9.7-6.3-.9-2.8-4.1-2ZM186.4,366.1l-2.1-1.7.6,1.9h1.5ZM204,361.2l-1.8-1.3-.2.5,2,.8ZM203.7,357.8l-2.5-1.7-.8,1.5,3.3.2ZM192.8,355l.7-1.7-1.3-3.2-2.1,3.5,2.6,1.4ZM197.6,352.8l1.9-2.3-4.8-.5,2.9,2.8ZM195.2,344.2h-2.2c0,0,1.4,2.3,1.4,2.3l2.6-2.3h-1.8ZM181.3,341.3l.8-1.3-2.2.2,1.4,1.1ZM184.2,332.2l-3.2.3-.3,2.1,3.5-2.4ZM180.7,323.8l-3.1,1.3,1.8.8,1.3-2ZM184.6,323.2l-4.9,3.6,2.7.5,2.2-4ZM181.6,318.4l-1,1,3.5.8-2.5-1.8ZM179.3,308.5h-1.1c0,0,3.6,2.6,3.6,2.6l-2.5-2.6ZM177.3,302.1h-2.7c0,0,4.6,1,4.6,1l-1.9-1ZM176.2,289.4l-1.3-1.3-4.7,1.4,6-.2ZM102.8,243.6l.7-.9-3.2.3,2.5.6ZM88.2,221.1l-2.1.9,6.9.9-4.8-1.8ZM95.5,220.5l-2.3.5,7,1.2-4.7-1.8ZM116.5,131.8l-.3-.7h-.5c0,0,.8.7.8.7ZM117.8,125.2l-.4.3,2.2,1.9-1.8-2.2ZM121,119.8l-.2.2h.4c0,.1-.2-.2-.2-.2ZM151.5,120.3l-5.4-11.1-8.5-1.1,3.3,14.3-4.6-14-6.5,5.6-5.3,10.3,1,1.4-11,11.5,2.4,8.6,11.9-.4,3.9-6,2.5,3.4-7.1,4.2-.5,5.6,1.7,10.1-5.5,12-9.4-.3-9.3,6.3,2.2,2.6-21.3,9-1.5,5.7,2.2.7-3.3,3.6,10.3,7.8-1.3,1.9.7.8,7.5-1.8-3.9,4.1,6.5-2.1-4.4,4.8,6,3.2,3.4-1.7-.7-3.9,2.1,4.4,9.5-5.7,3.4,5.9-3.4,1.9,2.4,4.2-6.8-3.3-9.3,2.8,16.4,1.9-1.1,2.1-18.9-3.1-9.2,5.4,4.8,5.8,5.5-5.4-3.1,5.1,11.8,4.9,1.9,2h-3s0,5.2,0,5.2l-5-4.7-3.1,2.8,6.7,7.1,10.9,3.9-4.6-5.9,2.1-2.4,2.9,4.2,1.2-4.5h2.6s1.1.9,1.1.9l-1.9,3.2,3,1.8v-3.5c0,0,4.3.9,4.3.9l-.5-2.8,1.5-2.3,2.2,5,3.7-5.7,27.8,15.3-1.1.9,1.6.8-.6,1.7,1.2,2.7-2.8,2.1,2.5-1.2-1.1,2,2.9,3.3-1.2,2.4,6.1,2.8,1.5,2.3-2,1.6,5.7,5.2-3.6.9,3.7,1.3-6.6,5.9,6.7-3.6-1.6,4.4,2.5.8-.9.3,2.7,2.8-1.7.3,1.9,2.8-2.5,1.4,5.5,5.6-2.1,2,1.8,1.5-3.1,2.3,5.1,1.4,1,3.1-1.8.9h2.2c0,.1-2.7,5-2.7,5l4,.7-7.6.6,5.4,1.5-5.2,6.9,1.9,1.1,5-5.4-2.6,5.6-5.9,4.1,3.5,5.3,7.5-1,.6-1.9-1.4-2.9,1.9,1.2-.9-1.7,2.9-1.9-3.1-8.7,2.3-.6-1.7.5,2.5,5.3.2,4.8,3.8-4.2-3.3,5.4h9.1c0-.1-7.5,5.1-7.5,5.1l9.1-1.3-6.7,5.5,5.1-3.3.6,1.6-4,2.6,5.7-.4-1.5,1.3,3.2.8h-5.8l7.4,4.9h-4.5c0-.1,4.6,1.9,4.6,1.9l-4.1,1,2.3,1.7-.6.5,3.1-1.4-.9,3.3-11.9-7.2-10,.6,3.1,5.2,9.5,6,11.8.6-2.1,1.5,2.3,2.7-3.4.7,2.2,1.8-2.1-.7-.6,2.3,3.8-.2-3.7,1-.7,2.1.7.7-1.4,1.1,3.8-2.1v2.4c-.1,0,1.6-.4,1.6-.4l-3.1,1.5,2.9,1.5-1.8.3.9,1.6-4.2-3.5-.6,3.9,1.3-.8-1.8,2.9,3.6-1.3-1.9,1.5.7,1.8-14.1,4.4,4.5-.3-2,1.3,2.8,1.2,6.8-1.7-2.4-1.8,4.5-1.4.4.2-2.2,1.2v1.8c0,0-1.2.6-1.2.6l2.4,1-2.7-.2,7,4.2-17.5-4-.8.5,7.8,2.7-6.2-1.1,1.6,1-4.5,2.5.8,1.4-1,2.8,5-3.9,6.8-2.7-4.1,2.3,4.9,1.3.8-1.4-1.4-1.6,3-.7.3,1.4h-2.2s1.1,1.8,1.1,1.8l2.9-1.3h-1.3c0-.1.6-.9.6-.9l2.9,1-5.9,1.9,7.7.2-5.3,1.4,4.3,1.5,34.2-.6v-203.8l-73.6-60-20.9-26.2Z"/>
    <path id="GL-NA" d="M358.3,321.7l-3.1,1,2.4,7.1,8.6,5.7,2.7-2.5-4-3.1,4.7.6v-1.5c-.1,0-4.4-2.7-4.4-2.7l-2.3-3.9-4.4-.8ZM353.6,321.3l-3,1,2.3,1.2.7-2.3ZM362.2,318l-7.5,2.4,8,1.4,1.9,1.1.9,2.3,4.4-.2-1.8-1.9,1.2-2.5-7.1-2.5ZM372.9,317.5l.9-.6-1.6.3.8.4ZM357.9,312.5l-6.9-1-2.6,4.3,7,3,8.8-2.3-11.9-3,10.1,1.6-4.5-2.5ZM375.1,290.9l-5.8,3.8,4,3.3,6.4-2.1-4.5-5ZM387,286.6l-2.4,1,2.7.3-.4-1.3ZM388.2,284.7l.6,2,1-1.7-1.6-.3ZM379.3,280.9l1.2-2-2.9-.9-1.1,4.7,3,2.6,2.3-3.6-2.5-.8ZM392.6,271.9l-6.4-.4v6.3c.1,0,8.9.4,8.9.4v-2.7s-4.8-1.5-4.8-1.5l2.3-2ZM387.8,241.5l-2.1-3.1,1.5,4.2-2.1,1.8,2.8,14.6-.2-17.5ZM392.2,216l1.4-4.3-1.5-1.6-2.1,5.6,2.2.3ZM373.4,209.9l.9-2.9-1.8,2.4.9.5ZM380.6,207l-3,.6,7,3.5-4-4.1ZM386.5,203.5l-2.4-.8,1.2,2.3-.3,3.8,1.6-5.3ZM378.2,202.9l-.5-3.1-1.9,2,2.4,1.1ZM383.9,200.7l-1.6-3.7v2.6c.1,0,1.6,1.1,1.6,1.1ZM386.4,197.5v-3.9c0,0-2.2,3.6-2.2,3.6l1.4,4.5.8-4.1ZM388.7,192.1l1.6-2.8-2.4,1.9.8.8ZM390.5,186.8l1-1.9-1.1-1,.2,2.9ZM385.1,182.3l.6-1.6-3.1,4.4,3.3.7-1.5-.6,1.3-.4-.6-2.6ZM394.6,177.2l-.9-4.4-2,7,2.9-2.6ZM395.3,148.5l-8.6-1.6-3.1,5.7,6.9,4.9,4.8-9ZM387.4,143.3l-3.4-2.5-2,5.1,5.4-2.6ZM395.2,91.5l-2.6-5.6-2.7,1.1,5.3,4.5ZM388,83.1l-3.5-10.9-2.3.7,5.8,10.2ZM205.5,76.4l-8.7-13.5-3.1,4.8,11.8,8.7ZM234.9,49.1l-9.9.7,15.2,23.8,1.7-1.6-1.9-5.1,3.6-5.7-8.7-12.1ZM226.3,42.8l.5-1.2-5.4-1.9,4.9,3.1ZM271.1,32.7l1.3-4-7-3.3,5.7,7.2ZM263.6,25l-3.5.6,9.1,8.3-5.6-8.8ZM266.7,16.5l-2.1,2.3,11.3,8.7-9.3-11ZM312,3.5l-26.3,5.8,2.5,6.6-6.4-7.2-2.7,3.6,1.4,3.7-5.9-3.3,1,10.5,10.1,2.6-10.7,4.5,8.6,2.2-10.5,1.3,3.8,6.8-.8,3.8-22.7-24.6-7.5,3.8,6.4,4.8-14.9-1.1,12.1,9.3-14.6-8.1-4.1,4.3,4,3.7-5.1-1.9,5.1,5.4,6.2-1-1.1-2.1,22.9,6.2,5.7,3.6-.3,5.6,1.4,2.6-1,5.5-1.7-8.3-7.6-7.9-1.8.8,1.5,3.3v7.5c0,0-3-9.9-3-9.9l.7-2.1-20.8-.6,11.4,15.8-.6,2.7,8.6,5.3-12.7-3.3-1.3,4.2,2.2,3.5-3,4.4,4.2,6.3-2.7,3.3-24.3-28.5-11.7-2.4,2.9,14.9,6.4,9.1-9.1-.2,8.1,11.3-1.7,1.3-17-16.7.2,6.8-3.4,7.5.4,4.2-1,.8,1,1.3-1.2-.7-.7-2.4,1.7-12.6-.3-8.3-4.9-10.6-6.5,3.8,2.7,5.2-4.7-4.8-13.2,5.9-6.5,5.2,16.9,25.7-12.5-13.1-.9-7-6.9-3.4-7.7,7.2,3.6,9.9-2.9,5.4,2.3,7.3-5.4,1.4,5.4,11.1,20.9,26.2,73.6,60v149.1l90-2,.8-.4,8.9-6.2-13-1.3,6.5-2.7-7.7-6.8,4.3,1.5,6.4,8.3,2.1-1.7,5.7,3.5,4.5.3-.3-3.5,1.6-3.9,10.2-1.1-7.3-3.7.6-1.9-4.7-3.8-3.5,1.1-1.8,4.4,1.2-4.9-3.5-.5,7.3-2.5-3.7-4.9-6.8,4.4.9-2.9-6-2.2,7.3,1.2,5.3-3,.5-2.8-7.8-2.2-4.6,1.3-1.2,3.9.4-3.5-1.8-.5,7.4-2-5.9-4,.7-1.1,7.6,5,2.9-2-.3-1.1,1.2-1.4,3.4-1-5.7-8.7,6.9,8.3.7-4.7,1.6-.8,1.1,1.5,1.7.2,3.4,2.3.8,1,3.5-1.2-2.7,1.6-1-.2-3.8-3-2.9.3,9.6,8.8,4.3-4.7,5.6.8.9-1.4-.8-4.2,1.4-2.9-8.4-3.6-.7,1.5,1.2,5.7-.7.9-.9-7-2.8-1.7,1.7-.6-.9-1,1.5-2.7-2.2-.4,3.9-2.1-1.8-3.9,13.7,7.6,3.6-5.1-2.3-1.6.7-1.9-.7-.9-9.6.5,2.9-1.4-.9-2.3.5-5-6.1,2.5-3.6-4.2,3.6,3.7,7-3.4-11.1-8.8,6.1,1.8-4.8-4.7,15,11.7,1.4-5.9-1.5-6.1,1.5-1.1-3.3-4.6-11.5-1.4,12.9-3.3-11.1-2.4.4-4.9-5.1-.2,4.5-.4h-1.9c0,.1,2-1.4,2-1.4l-2.3-.7,1.6-.8-1.9-1.4-1.1,1.4v1.8c0,0-2.3-4.4-2.3-4.4l3.1-3.9,3.2,5.1,4.7-4.8-5.3-1.2,6.8-1.4,11.2,5,1.4-8.9-1.6-4.6-4.1,2.3-9.2-8.5,2.6,1.2,1.1-1.4-3-3.2,4.1-1.3,4.1,4.6,2.1-2.4-.8-1.7-10.1-7.7-3.5,11.1.6-2.9-2.9-.4,6.3-24.9-2-1.1,2-2.3-.7-1.8,6.1-1.7.6-1.8-.6-3.9,5.6-5.7-2.2-5-1.8,6.4,2.2-16.1-6.8-4.1,2.6-7.8-1.1-.7,3.9-5.1,16.9,1.3,3.9-6.7-6.4-5.6-22.1.9,30.4-3.1,7.2-8.3-2.4-3.7,6.7-1,11.1-16.8-21.9-14-6.7,3.5v4.6c.1,0-3,1.7-3,1.7l1.2,1.8-1.9,4.7-7.7-3.5-5.2,4.9,2.7-8.9-4.1-3.3-7,17.3-16.3,23.1,14.6-33.6,1.1-15.4-1.9-6.8-10.1,2.5-1.2,12-16.7,11.1-1.9-3.9,11.3-9.6.5-8.2-17.6-3-24.5,15.1-3.7-4.4,16.3-12.1-9.4-5,43.1-2.4,8.1-2.6,6.2-11.9-11.5-10.4-3.6,4,.5-6.9-11,6,6.4-9.7-2.6-7.9-27.3,2-8.8,9-10.8-.6-1.6,6.8-6-5-2.9,7.1,1-6.6-1.8-.6,17.6-6.3-5.4-5.4,7.2,4.6,36.4-11.1-36.7-15.5Z"/>
    <path id="GL-QE" d="M195.7,438.4l.8-1.1-2.1.5,1.3.6ZM199.1,407.2l-4.1,1.5,1.1-.4-4.9,3.8-.5,2.8,3.9-1.6-.2.7.7.2,5.4-1.8,1,.7,4.8-1-2.3,1.1,1.9,3,4.7-.6-4.6.9-1.8-2.8-3.9-.8-7.8,2.2,1.1.2-.2.2-2.4.3-.7,1.4,4.2,1.2h-3.4c0,.1,1,1.2,1,1.2l6.7-1,1.2,1.9h-4.3c0-.1-.6,1-.6,1l2.6-.4-3.1.8,3.5.6-4.9,1,5.8,1.3-6.8.5.7.5-1.1,1.6.4,1.5,2.8-.5-3,2.3,1.7.2,1.9-1.2,1.6-2.1,3.2-2.4.9-2,4.5-3.8,6.6-.8-5.4.7,3.5,1.3h-5.3s-1.4,1.5-1.4,1.5l.4.5-2.4.9-.8,1.5.3.7-2.1.7-1.9,1.6-.2.9-4.1,3.1,3.3.2-1.7,2.2,3.4-2,.2,1.3h1.3c0,0,.5-1.1.5-1.1l2.7-1.2-.7.7.7,1.3-1.3-1-1.4.9v.5c-.1,0,0,.2,0,.2l-.5.6-2.2-1.4-3.2,2.6,2.2-.8-2,1.7,2.3.2.7-1.8-.4,2.3,1.3-.6-1.4,1.7,1.8-1.6-.8,2.5,1-.4-.3,1.7,5.9-5.2,5.1,1.1-5.4-.6-5.9,5.4v2c0,0,3-1.7,3-1.7l-1.5,2.8,1.5,1.6-1,2.3,5.3-2.9-5,4.1.6,1.6,6.7-5.2-.9-3,1.5.4,4.1-2.4h33.5s0-30.6,0-30.6l-34.2.6-12.7-3.8Z"/>
    <path id="GL-KU" d="M245.4,508.5l2.3-.8-1.4-.8-.9,1.6ZM243.1,507.1v-.3c0,0-.5.3-.5.3h.5ZM250.3,506.8l-.5-.2-.3,1,.8-.8ZM246,506.7l-1.1-.4-1.1,1.3,2.2-.9ZM249.5,507.1l-.4-.9-.4,1.5.8-.5ZM244.7,505.6l-1-.6-.4,1.6,1.4-.9ZM246,506.1l-1.3-1.1.5,1.1h.8ZM248.1,505.2l-2.8-.2,3,2.5v-1.8c0,0,2.6.2,2.6.2l-2.8-.7ZM239,505.1v-.6c0,0-.2.5-.2.5h.2ZM238.8,502.3l-.7,2.2,1.5-1.9-.8-.3ZM240.2,502.2l.2-.7-.7.2.5.5ZM240.1,503l.8-1.3-1.1,1.4h.3ZM238.2,501.8l.2-.6-.5.5h.3ZM236,499.2v-.2c-.1,0-1,0-1,0v.5c0,0,1-.2,1-.2ZM234.6,499.2l.3-.4h.5s0-.1,0-.1l-1.5.2h-.2c0,.1.9.3.9.3ZM231.6,498.2h.3c0-.1-.7,0-.7,0h.4ZM233.1,498.3l.4-.2-1.4.6,1-.4ZM227.5,497.5h-.3c0,.1.8.2.8.2l-.5-.2ZM229.3,497.8l-.2-.4h-.2c0,.1.4.4.4.4ZM228.3,497.5l-.2-.3-.2.2h.3ZM232.8,497.7l.3-.4-.7.2.3.2ZM224.1,497.3l-1.8.2,3.3.5-1.5-.7ZM228.8,497.1v-.4s-.6.3-.6.3h.6ZM228,497l.2-.3-.4.3h.2ZM253.6,496.6v-.2c.1,0-1.7.2-1.7.2h1.7ZM228.4,496.6l.4-.5-.6.6h.1ZM229.1,496.4l.4-.3-.5.4h.1ZM233.9,496.4v-.6c-.1,0-3.8,2-3.8,2l3.8-1.5ZM232.3,496.1v-.6c.1,0-.4-.2-.4-.2l.4.8ZM254.7,490l.3-.4-.6.4h.3ZM256.3,486l.4-1-1.1,1.4.7-.4ZM255.7,476.7l.8.8-.2-1h-.6ZM250.8,474.5h0c0-.1-4.7,0-4.7,0l-21.7,20.6h1.1s-3.1,2.1-3.1,2.1l6.8-1.7-.3.3.9.2-.7,1,1.1-.5-.7.7.6.2.9-1-1-.6,1.7.3-.4-.9.6.4-.2-.6h.9v-1l1.4,1-.8-.9,2.6-.9-1.5-1.2,2.2-.9-.9,1.2,1.4.9-2.5,2.4,2.5-.9.6-2.6.8,1.8.9-1.1-1.7,2.4-2.1.6-1.6,1.1,1.8-.8-2,1.7,2.8-.3,1.8-2.8.8,1.2-3.4,2.4h1.6c0,0-2.3,1.3-2.3,1.3l.6.7,1.4-1.5-.6.7.8,1.3,2.6-2.9-2.1,2.7,2.4-1.9-.8,2.5,3.3-3.4-3.1,6.9,4-4.9-1.6,4.1-2.3,1.3,1.8.8v-1.5l1.4,1.8.7-1.8,1.1-.5v-1.6c0,0,.9.6.9.6v-1.2s.6.9.6.9l-1,1.5,5.8,1-1.1-1.5,1.3-1.1-1.4-.7,1-.3h-1.1c0,.1-.2.3-.2.3l.2.5-.5-.2-.8.6,1.5-1.6-4.9-1.8,3.2.5-.4-1.9,2.6,2.9-.4-1,3.1-1.5-2.8.4,2.6-.9-4.2-1.2,4.1.4-3.8-1.6,2.5.7,1.8-2.1-5.1-.8,5.5.3-3.1-1.3,2.9-.6-3.3-.9,4.6-.7-3.7-2.3,3.6.4,1-1.8-3.4-.7h2.9c0,.1.8-1.2.8-1.2l-1.3-.6,1.7-1-2.4.7,1.6-4.3-4-2.5,4.5,1.6-5.5-4.4Z"/>
    <path id="GL-SM" d="M223.1,494.3h-1.5s1.8.2,1.8.2l-.3-.2ZM218.6,492.3l1-.4-1.3.4h.3ZM220.8,491.4l-.2-.4-1.5.4h1.8ZM217.5,487.9l-.3-.8-.4.5.7.3ZM255.3,473.7l-.3,1.5,3-.6-2.7-.9ZM257.9,473.7l-.4-.3.2.7.6-.4h-.4ZM260,472.2l.3-.9-.9,1.2.6-.3ZM208.7,470.8v-.7c0,0-.5.4-.5.4l.5.2ZM260.9,470.7l-.4-.8-.7.4,1.1.3ZM208.6,470l-.2-.7-.2-.3-.6.7,1.1.3ZM261.6,469.4l-1.4-.4.6.9.8-.5ZM209,469.9l.8-.3-.6-.8-.2,1.2ZM259.8,466.3l-1.9-.4,4.3,2.8-2.4-2.4ZM205.5,465.4l-.4-.6-.4.8.8-.2ZM264.7,463.4h-1c0,.1.6.4.6.4l.3-.4ZM201.6,457.2l.2-.7-1.1.8h.8ZM264.4,456h.5s-2.5,0-2.5,0h1.9ZM206.1,454.9l1.8-2.9-1.3-.3-.8,2v1.2c.1,0-.9.7-.9.7l1.2-.8ZM205.4,453.7l.9-2.2-2.4,2.4,1.4-.2ZM265.8,449.5l-2.3-2.4,2.1,5.4,1.7.8-1.7-1.9v-1.9ZM208.5,447.1l-.7-1.1-6.7,5.2-1,1.6.7,3.6,2.3-1.5,2.3-5.9,1.2-.3-.6,2.2,2.8-1.9-.3-1.9ZM269.9,441.1l-.4.4,1.7.5-1.3-.9ZM284.9,438.1h-.9c0,0,.3.6.3.6l.7-.6ZM285.2,437.9l.5-.7-1.7-.5,1.2,1.2ZM286.2,435.9l.2-1.8-1.2.8.9,1ZM283,434.8l-1.7-1.1-1.5,1.5-.2,1.3,2.8,1.2,1-1.1-1-1.6,1.3.7-.7-.8ZM289.7,434.1l-.4-.7-.6,1.1,1-.5ZM287.9,433.6l-1-.3-.2,1.8,1.2-1.5ZM293.7,429.8l.5-.9-1,.8h.4ZM302.5,420.8l-.4.4h.7c0-.1-.4-.4-.4-.4ZM305.3,416.1l.4-.8-.8.3.4.5ZM306.2,413.9v-1c-.1,0-.5.6-.5.6l.5.5ZM325.3,401.5l.8-1h-1.8s1,1,1,1ZM362.2,378.1l-.3-1.4-1.6.4,2,1ZM345.9,363.7l-1.3.7,1.7-.6h-.4ZM338.3,357.6l-1.3,2,2.8-2.1h-1.6ZM349.7,359.6l.4-2.4-1.7-2.9-8.1,3.6-5.5,7.1,16-3.5-1.1-1.8ZM349.2,353.7l1.5,1.7-.2-1.1-1.3-.6ZM337.2,355.6l-1.2-1.9-90,2v85.3h-33.5s-4.1,2.4-4.1,2.4l-.7.7,1.5,4.6,3.1-1.1-1.1,1.9,1.2.3-.7.8.3,1.4,2.7,2.4-3.2-1.9-1.1-2.6-2.8.5,3.7,2.6-4,.5-.9,1.7,1.1.3-.6.5-4.5.4,1.8,1.3,6-3.6-1.1,2.3,2.2-.9.6,1.8-8.8.9,1.5.8-.5,2,3-1.5-3.5,3.2,2.1,2.2.5-2h3.2c0,0-3.1.2-3.1.2l-.2,1.5,2-.3-2.7,1.4,5.3.5-4.6.9.6,2,1.2-1.1-.8,1.4.7-.7h.9s.2-.3.2-.3l.6.6.8-.7h1.6c0,.1-3.1,1.8-3.1,1.8l.8,1.8,1.8-.9-1.3,2.9,1.1-2.1,2.7-1.3-3,2.6-.2,1.8,2.2-2.3-2.4,4.9,2.4,3,3.3-.3-2.2,1.3,2.2-.2-2.3.7,1.3.3-1,1.2,2.6-.4.9-2.2-.4,1.5h1.3c0,0-3.3,3.1-3.3,3.1l1.4-1-1,1.6.7.5,2.4-3.2-2,3.2,3.1,1.1-4,.9,1.7,1.2,3.6-1.8-.7.9,1.4-.2-4.7,1.7,4.1.3-1.7,1.6h1.9c0,.1-.6,1.2-.6,1.2l2.8-2.3-1.7,1.6h2.5c0,0-.4,1.7-.4,1.7l-3.2.6,2.9-.3,21.7-20.6,4.7-.2,3.7.8-.5-1.6h.9s-1-.6-1-.6l1.6-.9v1.6c0,0,1.6.2,1.6.2v-1s1.5.4,1.5.4l.7-1.9-3.3-1.4,3.8.9-2.7-2.7,3.3,1.6-2.6-4.3,1-1,1,1.5,2.3,1.5-2.6-2.3h.5c0,.1,0-.5,0-.5l1.4,1.6-1-2,1.6,2.2.7-.3-1.6-1.9,3,.6-4.9-3.3.8-1,5.4,2.1-.5-2.9-1.2-.4,1.6-2-5.6-2.1,6.8-1.2-4.4-7.8.9-.3-.7-1.9,6.6.3-1-.9,2-1.1-1.1-1.5.9-.7-2.4-1.3h2.3l.8-2.4,2.5,1.4-.8-2.3,1.5,2.6,4.8-1.2.6-2.2-2.1-2.8,2.7,1.1-.6-2.4,1.4-1.2-.8-.6,1.7-.4-2.5-1.4,1.6-1.1,3.8,1.7-3.8,6,1-.7,2.8,2.3.6-4,.4,3.1,2.6-3.4h1.1c0-.1.2,2.4.2,2.4l3.3-4,.9,1.2-1.4-4.6,3.4,2.8,1-.3-1.1-.9.7-1.4,2.2,1.1,1.7-2.8-.7-1.3.6-1.6.8,2.4,1.9-2.7-.4-.8v-1.8c0,0,.9,0,.9,0l-.7-.6,2.5-1.2-.7-2.1,1.7-.4-1.3-1.8,1.8-.4-.5-2.2,1.7-1.2-.8-.9,6.5-3.4v-3.4c0,0-2.3-.8-2.3-.8l2.1.2-2.4-3.6v-3c0,0,2.9,5.5,2.9,5.5l2.5.2-1.1.5.9,2.1h6.5c0,0-2.2-2.7-2.2-2.7l4.3,2.2-1.4-2.2,2.5-2.4,2.7,3.2,1.6-1.6-.4-1.4,15.9-4.3,4.9-4.5-1.2-1.9,3.7-1.2-1.1-1.8,6.1-2.3-1.5-2.7,4.3-.4-2-2.1,5.2-.2-1.6-1.5,6.7-4.4h-10c0,0-6.4-3.9-6.4-3.9l-1.8,1.5v-2.2c.1,0-5.6,3.6-5.6,3.6l-3.1-1-3.3,4.9-6.2-2.2,12.7-4.8-16.3-1,5.2-2,2.2-5.2-2.7-1.9,3.9-.4ZM347.8,347.2h-2.1c0,0-8.9,6.1-8.9,6.1l1.5,3.4h3.8c0,.1,7.9-5.9,7.9-5.9l-2.2-3.6ZM366.3,339.8v-.2c0,0-10.3,1.1-10.3,1.1l-1.6,3.9.3,3.5-4.5-.3,4.2,1.5,3.2,11.6,4,4.2h4c0,0,.9-7,.9-7l.5,6.9,4.7-.8-1.3-1.6,1.3-2-1.4-.5.9-1.1-1.6-.2,2-2.4-2.3-.2,1.8-1.7h-3.7c0,.1,3.5-.9,3.5-.9l-1.4-2.6,2-1-1.4-.4,1.1-.9-1.2-.8.6-1-4,4.3-.2-5.1,3.4-3.4-3.9,3,1-4-4,2.5,3.5-4.4Z"/>
    <path id="GL-PI" d="M113.7,244.2l-1.9-2-6.1,2.4,5,4.7v-5.2h3Z"/>
  </g>
</svg>