<svg xmlns="http://www.w3.org/2000/svg" xmlns:amcharts="http://amcharts.com/ammap" id="Layer_1" viewBox="0 0 512 512"><g id="_x3C_defs"><amcharts:ammap bottomLatitude="59.777" leftLongitude="-73.035" projection="mercator" rightLongitude="-11.312" topLatitude="83.61"/></g><g><path id="GL-QA" d="m196 396.7-1.6.5 2.1.2-.5-.6Zm6.1-2.2h-.2.3Zm-1 .4 1.3-.7-3.5.6h2.2Zm-.7-1.8-2.8-.2-2.6 2.2 5.5-2Zm6.4-19.3-2 1.1 2-.6-2.1 2.8.8 2.8 1.6-.3v-2.8l1.6-1.7-1.9-1.4Zm-9.6-.2-3-4.5-6.6-1.8-2.1 3.8 3.4 2.7-4 .9 3 3-3.4-.3 5.9 1.6-.4 1.6 1 .7 2.6-2-1.3 1.7 1 .6-4.9.6 3.9 2.6 9.7-6.3-.9-2.8-4.1-2Zm-10.8-7.5-2.1-1.7.6 1.9h1.5Zm17.6-4.9-1.8-1.3-.2.5zm-.3-3.4-2.5-1.7-.8 1.5zm-10.9-2.8.7-1.7-1.3-3.2-2.1 3.5 2.6 1.4Zm4.8-2.2 1.9-2.3-4.8-.5zm-2.4-8.6H193l1.4 2.3 2.6-2.3zm-13.9-2.9.8-1.3-2.2.2zm2.9-9.1-3.2.3-.3 2.1zm-3.5-8.4-3.1 1.3 1.8.8 1.3-2Zm3.9-.6-4.9 3.6 2.7.5 2.2-4Zm-3-4.8-1 1 3.5.8zm-2.3-9.9h-1.1l3.6 2.6zm-2-6.4h-2.7l4.6 1zm-1.1-12.7-1.3-1.3-4.7 1.4 6-.2Zm-73.4-45.8.7-.9-3.2.3zm-14.6-22.5-2.1.9 6.9.9zm7.3-.6-2.3.5 7 1.2-4.7-1.8Zm21-88.7-.3-.7h-.5zm1.3-6.6-.4.3 2.2 1.9zm3.2-5.4-.2.2h.4c0 .1-.2-.2-.2-.2m30.5.5-5.4-11.1-8.5-1.1 3.3 14.3-4.6-14-6.5 5.6-5.3 10.3 1 1.4-11 11.5 2.4 8.6 11.9-.4 3.9-6 2.5 3.4-7.1 4.2-.5 5.6 1.7 10.1-5.5 12-9.4-.3-9.3 6.3 2.2 2.6-21.3 9-1.5 5.7 2.2.7-3.3 3.6 10.3 7.8-1.3 1.9.7.8 7.5-1.8-3.9 4.1 6.5-2.1-4.4 4.8 6 3.2 3.4-1.7-.7-3.9 2.1 4.4 9.5-5.7 3.4 5.9-3.4 1.9 2.4 4.2-6.8-3.3-9.3 2.8 16.4 1.9-1.1 2.1-18.9-3.1-9.2 5.4 4.8 5.8 5.5-5.4-3.1 5.1 11.8 4.9 1.9 2h-3v5.2l-5-4.7-3.1 2.8 6.7 7.1 10.9 3.9-4.6-5.9 2.1-2.4 2.9 4.2 1.2-4.5h2.6l1.1.9-1.9 3.2 3 1.8v-3.5l4.3.9-.5-2.8 1.5-2.3 2.2 5 3.7-5.7 27.8 15.3-1.1.9 1.6.8-.6 1.7 1.2 2.7-2.8 2.1 2.5-1.2-1.1 2 2.9 3.3-1.2 2.4 6.1 2.8 1.5 2.3-2 1.6 5.7 5.2-3.6.9 3.7 1.3-6.6 5.9 6.7-3.6-1.6 4.4 2.5.8-.9.3 2.7 2.8-1.7.3 1.9 2.8-2.5 1.4 5.5 5.6-2.1 2 1.8 1.5-3.1 2.3 5.1 1.4 1 3.1-1.8.9h2.2c0 .1-2.7 5-2.7 5l4 .7-7.6.6 5.4 1.5-5.2 6.9 1.9 1.1 5-5.4-2.6 5.6-5.9 4.1 3.5 5.3 7.5-1 .6-1.9-1.4-2.9 1.9 1.2-.9-1.7 2.9-1.9-3.1-8.7 2.3-.6-1.7.5 2.5 5.3.2 4.8 3.8-4.2-3.3 5.4h9.1c0-.1-7.5 5.1-7.5 5.1l9.1-1.3-6.7 5.5 5.1-3.3.6 1.6-4 2.6 5.7-.4-1.5 1.3 3.2.8h-5.8l7.4 4.9h-4.5c0-.1 4.6 1.9 4.6 1.9l-4.1 1 2.3 1.7-.6.5 3.1-1.4-.9 3.3-11.9-7.2-10 .6 3.1 5.2 9.5 6 11.8.6-2.1 1.5 2.3 2.7-3.4.7 2.2 1.8-2.1-.7-.6 2.3 3.8-.2-3.7 1-.7 2.1.7.7-1.4 1.1 3.8-2.1v2.4c-.1 0 1.6-.4 1.6-.4l-3.1 1.5 2.9 1.5-1.8.3.9 1.6-4.2-3.5-.6 3.9 1.3-.8-1.8 2.9 3.6-1.3-1.9 1.5.7 1.8-14.1 4.4 4.5-.3-2 1.3 2.8 1.2 6.8-1.7-2.4-1.8 4.5-1.4.4.2-2.2 1.2v1.8l-1.2.6 2.4 1-2.7-.2 7 4.2-17.5-4-.8.5 7.8 2.7-6.2-1.1 1.6 1-4.5 2.5.8 1.4-1 2.8 5-3.9 6.8-2.7-4.1 2.3 4.9 1.3.8-1.4-1.4-1.6 3-.7.3 1.4H205l1.1 1.8 2.9-1.3h-1.3c0-.1.6-.9.6-.9l2.9 1-5.9 1.9 7.7.2-5.3 1.4 4.3 1.5 34.2-.6V206.7l-73.6-60-20.9-26.2Z"/><path id="GL-NA" d="m358.3 321.7-3.1 1 2.4 7.1 8.6 5.7 2.7-2.5-4-3.1 4.7.6V329c-.1 0-4.4-2.7-4.4-2.7l-2.3-3.9-4.4-.8Zm-4.7-.4-3 1 2.3 1.2.7-2.3Zm8.6-3.3-7.5 2.4 8 1.4 1.9 1.1.9 2.3 4.4-.2-1.8-1.9 1.2-2.5-7.1-2.5Zm10.7-.5.9-.6-1.6.3.8.4Zm-15-5-6.9-1-2.6 4.3 7 3 8.8-2.3-11.9-3 10.1 1.6-4.5-2.5Zm17.2-21.6-5.8 3.8 4 3.3 6.4-2.1-4.5-5Zm11.9-4.3-2.4 1 2.7.3-.4-1.3Zm1.2-1.9.6 2 1-1.7zm-8.9-3.8 1.2-2-2.9-.9-1.1 4.7 3 2.6 2.3-3.6zm13.3-9-6.4-.4v6.3c.1 0 8.9.4 8.9.4v-2.7l-4.8-1.5 2.3-2Zm-4.8-30.4-2.1-3.1 1.5 4.2-2.1 1.8 2.8 14.6-.2-17.5Zm4.4-25.5 1.4-4.3-1.5-1.6-2.1 5.6zm-18.8-6.1.9-2.9-1.8 2.4zm7.2-2.9-3 .6 7 3.5zm5.9-3.5-2.4-.8 1.2 2.3-.3 3.8 1.6-5.3Zm-8.3-.6-.5-3.1-1.9 2zm5.7-2.2-1.6-3.7v2.6c.1 0 1.6 1.1 1.6 1.1m2.5-3.2v-3.9l-2.2 3.6 1.4 4.5.8-4.1Zm2.3-5.4 1.6-2.8-2.4 1.9.8.8Zm1.8-5.3 1-1.9-1.1-1 .2 2.9Zm-5.4-4.5.6-1.6-3.1 4.4 3.3.7-1.5-.6 1.3-.4-.6-2.6Zm9.5-5.1-.9-4.4-2 7zm.7-28.7-8.6-1.6-3.1 5.7 6.9 4.9zm-7.9-5.2-3.4-2.5-2 5.1zm7.8-51.8-2.6-5.6-2.7 1.1zm-7.2-8.4-3.5-10.9-2.3.7zm-182.5-6.7-8.7-13.5-3.1 4.8zm29.4-27.3-9.9.7 15.2 23.8 1.7-1.6-1.9-5.1 3.6-5.7zm-8.6-6.3.5-1.2-5.4-1.9zm44.8-10.1 1.3-4-7-3.3 5.7 7.2Zm-7.5-7.7-3.5.6 9.1 8.3-5.6-8.8Zm3.1-8.5-2.1 2.3 11.3 8.7-9.3-11Zm45.3-13-26.3 5.8 2.5 6.6-6.4-7.2-2.7 3.6 1.4 3.7-5.9-3.3 1 10.5 10.1 2.6-10.7 4.5 8.6 2.2-10.5 1.3 3.8 6.8-.8 3.8-22.7-24.6-7.5 3.8 6.4 4.8-14.9-1.1 12.1 9.3-14.6-8.1-4.1 4.3 4 3.7-5.1-1.9 5.1 5.4 6.2-1-1.1-2.1 22.9 6.2 5.7 3.6-.3 5.6 1.4 2.6-1 5.5-1.7-8.3-7.6-7.9-1.8.8 1.5 3.3v7.5l-3-9.9.7-2.1-20.8-.6L247.3 59l-.6 2.7 8.6 5.3-12.7-3.3-1.3 4.2 2.2 3.5-3 4.4 4.2 6.3-2.7 3.3-24.3-28.5-11.7-2.4 2.9 14.9 6.4 9.1-9.1-.2 8.1 11.3-1.7 1.3-17-16.7.2 6.8-3.4 7.5.4 4.2-1 .8 1 1.3-1.2-.7-.7-2.4 1.7-12.6-.3-8.3-4.9-10.6-6.5 3.8 2.7 5.2-4.7-4.8-13.2 5.9-6.5 5.2 16.9 25.7-12.5-13.1-.9-7-6.9-3.4-7.7 7.2 3.6 9.9-2.9 5.4 2.3 7.3-5.4 1.4 5.4 11.1 20.9 26.2 73.6 60v149.1l90-2 .8-.4 8.9-6.2-13-1.3 6.5-2.7-7.7-6.8 4.3 1.5 6.4 8.3 2.1-1.7 5.7 3.5 4.5.3-.3-3.5 1.6-3.9 10.2-1.1-7.3-3.7.6-1.9-4.7-3.8-3.5 1.1-1.8 4.4 1.2-4.9-3.5-.5 7.3-2.5-3.7-4.9-6.8 4.4.9-2.9-6-2.2 7.3 1.2 5.3-3 .5-2.8-7.8-2.2-4.6 1.3-1.2 3.9.4-3.5-1.8-.5 7.4-2-5.9-4 .7-1.1 7.6 5 2.9-2-.3-1.1 1.2-1.4 3.4-1-5.7-8.7 6.9 8.3.7-4.7 1.6-.8 1.1 1.5 1.7.2 3.4 2.3.8 1 3.5-1.2-2.7 1.6-1-.2-3.8-3-2.9.3 9.6 8.8 4.3-4.7 5.6.8.9-1.4-.8-4.2 1.4-2.9-8.4-3.6-.7 1.5 1.2 5.7-.7.9-.9-7-2.8-1.7 1.7-.6-.9-1 1.5-2.7-2.2-.4 3.9-2.1-1.8-3.9 13.7 7.6 3.6-5.1-2.3-1.6.7-1.9-.7-.9-9.6.5 2.9-1.4-.9-2.3.5-5-6.1 2.5-3.6-4.2 3.6 3.7 7-3.4-11.1-8.8 6.1 1.8-4.8-4.7 15 11.7 1.4-5.9-1.5-6.1 1.5-1.1-3.3-4.6-11.5-1.4 12.9-3.3-11.1-2.4.4-4.9-5.1-.2 4.5-.4h-1.9c0 .1 2-1.4 2-1.4l-2.3-.7 1.6-.8-1.9-1.4-1.1 1.4v1.8l-2.3-4.4 3.1-3.9 3.2 5.1 4.7-4.8-5.3-1.2 6.8-1.4 11.2 5 1.4-8.9-1.6-4.6-4.1 2.3-9.2-8.5 2.6 1.2 1.1-1.4-3-3.2 4.1-1.3 4.1 4.6 2.1-2.4-.8-1.7-10.1-7.7-3.5 11.1.6-2.9-2.9-.4 6.3-24.9-2-1.1 2-2.3-.7-1.8 6.1-1.7.6-1.8-.6-3.9 5.6-5.7-2.2-5-1.8 6.4 2.2-16.1-6.8-4.1 2.6-7.8-1.1-.7 3.9-5.1 16.9 1.3 3.9-6.7-6.4-5.6-22.1.9 30.4-3.1 7.2-8.3-2.4-3.7 6.7-1 11.1-16.8-21.9-14-6.7 3.5V90c.1 0-3 1.7-3 1.7l1.2 1.8-1.9 4.7-7.7-3.5-5.2 4.9 2.7-8.9-4.1-3.3-7 17.3-16.3 23.1 14.6-33.6 1.1-15.4L372 72l-10.1 2.5-1.2 12L344 97.6l-1.9-3.9 11.3-9.6.5-8.2-17.6-3L311.8 88l-3.7-4.4 16.3-12.1-9.4-5 43.1-2.4 8.1-2.6 6.2-11.9-11.5-10.4-3.6 4 .5-6.9-11 6 6.4-9.7-2.6-7.9-27.3 2-8.8 9-10.8-.6-1.6 6.8-6-5-2.9 7.1 1-6.6-1.8-.6 17.6-6.3-5.4-5.4 7.2 4.6 36.4-11.1-36.7-15.5Z"/><path id="GL-QE" d="m195.7 438.4.8-1.1-2.1.5zm3.4-31.2-4.1 1.5 1.1-.4-4.9 3.8-.5 2.8 3.9-1.6-.2.7.7.2 5.4-1.8 1 .7 4.8-1-2.3 1.1 1.9 3 4.7-.6-4.6.9-1.8-2.8-3.9-.8-7.8 2.2 1.1.2-.2.2-2.4.3-.7 1.4 4.2 1.2h-3.4c0 .1 1 1.2 1 1.2l6.7-1 1.2 1.9h-4.3c0-.1-.6 1-.6 1l2.6-.4-3.1.8 3.5.6-4.9 1 5.8 1.3-6.8.5.7.5-1.1 1.6.4 1.5 2.8-.5-3 2.3 1.7.2 1.9-1.2 1.6-2.1 3.2-2.4.9-2 4.5-3.8 6.6-.8-5.4.7 3.5 1.3h-5.3l-1.4 1.5.4.5-2.4.9-.8 1.5.3.7-2.1.7-1.9 1.6-.2.9-4.1 3.1 3.3.2-1.7 2.2 3.4-2 .2 1.3h1.3l.5-1.1 2.7-1.2-.7.7.7 1.3-1.3-1-1.4.9v.5c-.1 0 0 .2 0 .2l-.5.6-2.2-1.4-3.2 2.6 2.2-.8-2 1.7 2.3.2.7-1.8-.4 2.3 1.3-.6-1.4 1.7 1.8-1.6-.8 2.5 1-.4-.3 1.7 5.9-5.2 5.1 1.1-5.4-.6-5.9 5.4v2l3-1.7-1.5 2.8 1.5 1.6-1 2.3 5.3-2.9-5 4.1.6 1.6 6.7-5.2-.9-3 1.5.4 4.1-2.4H246v-30.6l-34.2.6z"/><path id="GL-KU" d="m245.4 508.5 2.3-.8-1.4-.8zm-2.3-1.4v-.3l-.5.3zm7.2-.3-.5-.2-.3 1zm-4.3-.1-1.1-.4-1.1 1.3zm3.5.4-.4-.9-.4 1.5.8-.5Zm-4.8-1.5-1-.6-.4 1.6 1.4-.9Zm1.3.5-1.3-1.1.5 1.1zm2.1-.9-2.8-.2 3 2.5v-1.8l2.6.2zm-9.1-.1v-.6l-.2.5h.2Zm-.2-2.8-.7 2.2 1.5-1.9zm1.4-.1.2-.7-.7.2zm-.1.8.8-1.3-1.1 1.4h.3Zm-1.9-1.2.2-.6-.5.5h.3Zm-2.2-2.6v-.2h-1v.5l1-.2Zm-1.4 0 .3-.4h.5v-.1l-1.5.2h-.2c0 .1.9.3.9.3m-3-1h.3c0-.1-.7 0-.7 0zm1.5.1.4-.2-1.4.6zm-5.6-.8h-.3c0 .1.8.2.8.2zm1.8.3-.2-.4h-.2c0 .1.4.4.4.4m-1-.3-.2-.3-.2.2h.3Zm4.5.2.3-.4-.7.2.3.2Zm-8.7-.4-1.8.2 3.3.5zm4.7-.2v-.4l-.6.3h.6Zm-.8-.1.2-.3-.4.3zm25.6-.4v-.2c.1 0-1.7.2-1.7.2zm-25.2 0 .4-.5-.6.6h.1Zm.7-.2.4-.3-.5.4h.1Zm4.8 0v-.6c-.1 0-3.8 2-3.8 2l3.8-1.5Zm-1.6-.3v-.6c.1 0-.4-.2-.4-.2zm22.4-6.1.3-.4-.6.4zm1.6-4 .4-1-1.1 1.4zm-.6-9.3.8.8-.2-1h-.6Zm-4.9-2.2c0-.1-4.7 0-4.7 0l-21.7 20.6h1.1l-3.1 2.1 6.8-1.7-.3.3.9.2-.7 1 1.1-.5-.7.7.6.2.9-1-1-.6 1.7.3-.4-.9.6.4-.2-.6h.9v-1l1.4 1-.8-.9 2.6-.9-1.5-1.2 2.2-.9-.9 1.2 1.4.9-2.5 2.4 2.5-.9.6-2.6.8 1.8.9-1.1-1.7 2.4-2.1.6-1.6 1.1 1.8-.8-2 1.7 2.8-.3 1.8-2.8.8 1.2-3.4 2.4h1.6l-2.3 1.3.6.7 1.4-1.5-.6.7.8 1.3 2.6-2.9-2.1 2.7 2.4-1.9-.8 2.5 3.3-3.4-3.1 6.9 4-4.9-1.6 4.1-2.3 1.3 1.8.8v-1.5l1.4 1.8.7-1.8 1.1-.5v-1.6l.9.6v-1.2l.6.9-1 1.5 5.8 1-1.1-1.5 1.3-1.1-1.4-.7 1-.3h-1.1c0 .1-.2.3-.2.3l.2.5-.5-.2-.8.6 1.5-1.6-4.9-1.8 3.2.5-.4-1.9 2.6 2.9-.4-1 3.1-1.5-2.8.4 2.6-.9-4.2-1.2 4.1.4-3.8-1.6 2.5.7 1.8-2.1-5.1-.8 5.5.3-3.1-1.3 2.9-.6-3.3-.9 4.6-.7-3.7-2.3 3.6.4 1-1.8-3.4-.7h2.9c0 .1.8-1.2.8-1.2l-1.3-.6 1.7-1-2.4.7 1.6-4.3-4-2.5 4.5 1.6-5.5-4.4Z"/><path id="GL-SM" d="M223.1 494.3h-1.5l1.8.2zm-4.5-2 1-.4-1.3.4zm2.2-.9-.2-.4-1.5.4h1.8Zm-3.3-3.5-.3-.8-.4.5zm37.8-14.2-.3 1.5 3-.6zm2.6 0-.4-.3.2.7.6-.4zm2.1-1.5.3-.9-.9 1.2zm-51.3-1.4v-.7l-.5.4.5.2Zm52.2-.1-.4-.8-.7.4 1.1.3Zm-52.3-.7-.2-.7-.2-.3-.6.7 1.1.3Zm53-.6-1.4-.4.6.9zm-52.6.5.8-.3-.6-.8-.2 1.2Zm50.8-3.6-1.9-.4 4.3 2.8zm-54.3-.9-.4-.6-.4.8zm59.2-2h-1c0 .1.6.4.6.4l.3-.4Zm-63.1-6.2.2-.7-1.1.8h.8Zm62.8-1.2h.5-2.5 1.9Zm-58.3-1.1 1.8-2.9-1.3-.3-.8 2v1.2c.1 0-.9.7-.9.7l1.2-.8Zm-.7-1.2.9-2.2-2.4 2.4 1.4-.2Zm60.4-4.2-2.3-2.4 2.1 5.4 1.7.8-1.7-1.9v-1.9Zm-57.3-2.4-.7-1.1-6.7 5.2-1 1.6.7 3.6 2.3-1.5 2.3-5.9 1.2-.3-.6 2.2 2.8-1.9zm61.4-6-.4.4 1.7.5zm15-3h-.9l.3.6.7-.6Zm.3-.2.5-.7-1.7-.5zm1-2 .2-1.8-1.2.8.9 1Zm-3.2-1.1-1.7-1.1-1.5 1.5-.2 1.3 2.8 1.2 1-1.1-1-1.6 1.3.7-.7-.8Zm6.7-.7-.4-.7-.6 1.1 1-.5Zm-1.8-.5-1-.3-.2 1.8zm5.8-3.8.5-.9-1 .8h.4Zm8.8-9-.4.4h.7c0-.1-.4-.4-.4-.4Zm2.8-4.7.4-.8-.8.3zm.9-2.2v-1c-.1 0-.5.6-.5.6l.5.5Zm19.1-12.4.8-1h-1.8zm36.9-23.4-.3-1.4-1.6.4 2 1Zm-16.3-14.4-1.3.7 1.7-.6h-.4Zm-7.6-6.1-1.3 2 2.8-2.1h-1.6Zm11.4 2 .4-2.4-1.7-2.9-8.1 3.6-5.5 7.1 16-3.5-1.1-1.8Zm-.5-5.9 1.5 1.7-.2-1.1zm-12 1.9-1.2-1.9-90 2V441h-33.5l-4.1 2.4-.7.7 1.5 4.6 3.1-1.1-1.1 1.9 1.2.3-.7.8.3 1.4 2.7 2.4-3.2-1.9-1.1-2.6-2.8.5 3.7 2.6-4 .5-.9 1.7 1.1.3-.6.5-4.5.4 1.8 1.3 6-3.6-1.1 2.3 2.2-.9.6 1.8-8.8.9 1.5.8-.5 2 3-1.5-3.5 3.2 2.1 2.2.5-2h3.2l-3.1.2-.2 1.5 2-.3-2.7 1.4 5.3.5-4.6.9.6 2 1.2-1.1-.8 1.4.7-.7h.9l.2-.3.6.6.8-.7h1.6c0 .1-3.1 1.8-3.1 1.8l.8 1.8 1.8-.9-1.3 2.9 1.1-2.1 2.7-1.3-3 2.6-.2 1.8 2.2-2.3-2.4 4.9 2.4 3 3.3-.3-2.2 1.3 2.2-.2-2.3.7 1.3.3-1 1.2 2.6-.4.9-2.2-.4 1.5h1.3l-3.3 3.1 1.4-1-1 1.6.7.5 2.4-3.2-2 3.2 3.1 1.1-4 .9 1.7 1.2 3.6-1.8-.7.9 1.4-.2-4.7 1.7 4.1.3-1.7 1.6h1.9c0 .1-.6 1.2-.6 1.2l2.8-2.3-1.7 1.6h2.5l-.4 1.7-3.2.6 2.9-.3 21.7-20.6 4.7-.2 3.7.8-.5-1.6h.9l-1-.6 1.6-.9v1.6l1.6.2v-1l1.5.4.7-1.9-3.3-1.4 3.8.9-2.7-2.7 3.3 1.6-2.6-4.3 1-1 1 1.5 2.3 1.5-2.6-2.3h.5v-.5l1.4 1.6-1-2 1.6 2.2.7-.3-1.6-1.9 3 .6-4.9-3.3.8-1 5.4 2.1-.5-2.9-1.2-.4 1.6-2-5.6-2.1 6.8-1.2-4.4-7.8.9-.3-.7-1.9 6.6.3-1-.9 2-1.1-1.1-1.5.9-.7-2.4-1.3h2.3l.8-2.4 2.5 1.4-.8-2.3 1.5 2.6 4.8-1.2.6-2.2-2.1-2.8 2.7 1.1-.6-2.4 1.4-1.2-.8-.6 1.7-.4-2.5-1.4 1.6-1.1 3.8 1.7-3.8 6 1-.7 2.8 2.3.6-4 .4 3.1 2.6-3.4h1.1c0-.1.2 2.4.2 2.4l3.3-4 .9 1.2-1.4-4.6 3.4 2.8 1-.3-1.1-.9.7-1.4 2.2 1.1 1.7-2.8-.7-1.3.6-1.6.8 2.4 1.9-2.7-.4-.8v-1.8h.9l-.7-.6 2.5-1.2-.7-2.1 1.7-.4-1.3-1.8 1.8-.4-.5-2.2 1.7-1.2-.8-.9 6.5-3.4v-3.4l-2.3-.8 2.1.2-2.4-3.6v-3l2.9 5.5 2.5.2-1.1.5.9 2.1h6.5l-2.2-2.7 4.3 2.2-1.4-2.2 2.5-2.4 2.7 3.2 1.6-1.6-.4-1.4 15.9-4.3 4.9-4.5-1.2-1.9 3.7-1.2-1.1-1.8 6.1-2.3-1.5-2.7 4.3-.4-2-2.1 5.2-.2-1.6-1.5 6.7-4.4h-10l-6.4-3.9-1.8 1.5V365c.1 0-5.6 3.6-5.6 3.6l-3.1-1-3.3 4.9-6.2-2.2 12.7-4.8-16.3-1 5.2-2 2.2-5.2-2.7-1.9 3.9-.4Zm10.6-8.4h-2.1l-8.9 6.1 1.5 3.4h3.8c0 .1 7.9-5.9 7.9-5.9zm18.5-7.4v-.2l-10.3 1.1-1.6 3.9.3 3.5-4.5-.3 4.2 1.5 3.2 11.6 4 4.2h4l.9-7 .5 6.9 4.7-.8-1.3-1.6 1.3-2-1.4-.5.9-1.1-1.6-.2 2-2.4-2.3-.2 1.8-1.7h-3.7c0 .1 3.5-.9 3.5-.9l-1.4-2.6 2-1-1.4-.4 1.1-.9-1.2-.8.6-1-4 4.3-.2-5.1 3.4-3.4-3.9 3 1-4-4 2.5 3.5-4.4Z"/><path id="GL-PI" d="m113.7 244.2-1.9-2-6.1 2.4 5 4.7v-5.2h3Z"/></g></svg>