<?xml version="1.0" encoding="UTF-8"?>
<svg id="Layer_1" xmlns="http://www.w3.org/2000/svg" xmlns:amcharts="http://amcharts.com/ammap" version="1.1" viewBox="0 0 512 512">
  <!-- Generator: Adobe Illustrator 29.1.0, SVG Export Plug-In . SVG Version: 2.1.0 Build 142)  -->
  <g id="_x3C_defs">
    <amcharts:ammap bottomLatitude="15.8319387" leftLongitude="-61.8098536" projection="mercator" rightLongitude="-61.0016727" topLatitude="16.5145028"/>
  </g>
  <path id="GP-GP" d="M212.9,36.5l-44.7,41.5,24.2,54.7-30.3,51.8,6.4,33.8,44.7,20.1,186.1-32.9-126-62.2-27.2-80.3-33.1-26.4ZM157.3,184.3l-20.8,9.2-95.2-61L4.2,167l17.9,145.7,45.9,89.8,80.4-54.7-8.4-122.5,19.6-10.5-2.3-30.6ZM135.7,142.4l6.1-1.7-10.5,2,4.4-.3ZM507.8,144.8l-31.1,1.2-32.7,25.4,63.8-26.6ZM435.2,252.1v1.7s1.1-1.3,1.1-1.3l-1.1-.4ZM428.3,259.1l6.5-3.8-13.1-.5,6.6,4.3ZM380.2,413.6l-46.3-50-39.7,50.1,35.6,37.7,50.4-37.8ZM148.1,448.4l-8.4-1.6-7.9,14.5,16.3-12.9ZM133,447l-3.3-.5,4.5,2.6-1.1-2.1ZM111.8,453l-8.5,11.7,6.7,4,1.8-15.7ZM136,475.5l-3.2-4.9.3,2.6,2.9,2.4ZM122.4,472.7l2.6,1.2-.9-1.3h-1.7Z"/>
</svg>