<svg xmlns="http://www.w3.org/2000/svg" xmlns:amcharts="http://amcharts.com/ammap" id="Layer_1" viewBox="0 0 512 512"><g id="_x3C_defs"><amcharts:ammap bottomLatitude="15.832" leftLongitude="-61.81" projection="mercator" rightLongitude="-61.002" topLatitude="16.515"/></g><path id="GP-GP" d="M212.9 36.5 168.2 78l24.2 54.7-30.3 51.8 6.4 33.8 44.7 20.1 186.1-32.9-126-62.2L246.1 63 213 36.6Zm-55.6 147.8-20.8 9.2-95.2-61L4.2 167l17.9 145.7L68 402.5l80.4-54.7-8.4-122.5 19.6-10.5-2.3-30.6Zm-21.6-41.9 6.1-1.7-10.5 2zm372.1 2.4-31.1 1.2-32.7 25.4zm-72.6 107.3v1.7l1.1-1.3zm-6.9 7 6.5-3.8-13.1-.5zm-48.1 154.5-46.3-50-39.7 50.1 35.6 37.7zm-232.1 34.8-8.4-1.6-7.9 14.5zM133 447l-3.3-.5 4.5 2.6-1.1-2.1Zm-21.2 6-8.5 11.7 6.7 4zm24.2 22.5-3.2-4.9.3 2.6 2.9 2.4Zm-13.6-2.8 2.6 1.2-.9-1.3h-1.7Z"/></svg>