<?xml version="1.0" encoding="UTF-8"?>
<svg id="Layer_1" xmlns="http://www.w3.org/2000/svg" xmlns:amcharts="http://amcharts.com/ammap" version="1.1" viewBox="0 0 512 512">
  <!-- Generator: Adobe Illustrator 29.1.0, SVG Export Plug-In . SVG Version: 2.1.0 Build 142)  -->
  <g id="_x3C_defs">
    <amcharts:ammap bottomLatitude="6.75018" leftLongitude="68.190843" projection="mercator" rightLongitude="97.403472" topLatitude="37.054813"/>
  </g>
  <g>
    <path id="IN-AN" d="M422.5,405.6h.5c0-.1,1.8,2.8,1.8,2.8l-1.4,6.5h-3.2c0-.1.6-8.1.6-8.1l1.7-1.1ZM433.8,482.6l.4,3.2-1.6-2.3,1.2-1ZM423,405.5h-.5c0,.1-.9-2.2-.9-2.2l.8-5.9,1.3-2.7,1.9-.6,1,3.9-1.4,5.1-2.2,2.4ZM439.1,499.4l1.7,3.6-2,4.1-2.7-4.2.4-3,2.7-.5ZM420.1,416.2l.3,4.5,1.2,1-1.3,7-2.5-3.6v-4.2s2.3-4.8,2.3-4.8ZM417.1,438.4l1.3,3.6-1.4,2.8-2.1-.3.2-3.8,2-2.3ZM421.4,415h1.5c0,0-2.1,3.6-2.1,3.6l.6-3.6Z"/>
    <path id="IN-AP" d="M247.8,342l-.7.4.9,2-9.8,4.3-3-.8-4.6,1.3-2,5.1-3,4-2.4.3-.3-2.1-4.4-.2-4.4,3-2.8,6-.9,3.8,1.1,5.7,1.4,2.4-1.1,7.7,1.9,5-3.2,3.8,4.3,2.7-4-1.9-2.4,3.3-5.7,1.5-2.5-1.3v2.3c0,0-3.5.9-3.5.9l-1.1,2.1-4.6-1.3-4.3,1.8-1.1,4.9-3,1.2-2.4-2.3,3.8-4.6,2.1-3.8-3.7-1.5.6-3.7-2.7-.2-2.7-1.7.8-2.5-4.7-.3-5.2,2.9-.9-1.8-5.5-.9.7,1.6-2.9.2.7-3-2.5-3.4,2.3-.7,2.1,3,3-.5,2.8-4.1-5.7-1.1-.8,2.1-2.8-.4-1.1-3.8-1.8-2.2,1.7-6-1.1-2.1,4.7,1.5,1.4-4.3-1.7-1-.5-5.2.6-4.4,3-1,4.3.6,4.8.9,6.1.3,1.5-3,6-1.1,1.6,1.2,3.3-1.3,2-2.3h3.1c0,.1.1-4.4.1-4.4l9.1-3.7,3,1.5,1.8-2.8-1.3-.8,3.2-3,2.3,2.9,4,1.8.4-2.7-3.7-.7,3.3-2.8,4.5,1.9,1.2-2.9,4.3-.5.3-1.5,5.2-2.1,1.4-4.6,3.4-1.8-.4-1,4.4-2.7,4,1.2,1.6-7,1.9-2.1,1.8,4.4,3.1-1,.5-1.8,4.2,1.1.6-2.7-1.3-1.7,6.6-3.7,3.5-4.9,2,3.9.7-1.5,1.4,3.1,3.5,1.2,4.2-.8,1.8-2.9,3.7-3.1,1.6,1.4-6.7,8.5-3.8,4.1-9.1,4.8-6,7.1-10,4.9-4,2.9-1.9,3.8,1.6.6-.9,2.3Z"/>
    <path id="IN-AR" d="M462.2,176.7l-.7-5.9,6.5-3.1,5.2-1,1.9-1.3-2.8-1,.5-2-2-2.9,3.6-3.9-6.1.2-19,6.6-3.4-1.4-1.6,2.7-5.9,5.6-2,2.8-10.9.9-6-2-1.2,1.3-7.9,1.1-1.2-2.8-.2-6.9h-6.2c0,0-1.5-2.5-1.5-2.5l1.4-2.2-1.6-1.5,4.6.7,1.6,1.6,4.8-2.4,1.8,1.3,4.1-.7,3-2.8-1.3-1.2,6-4,3.2-.5-.6-1.8,2.6-3.3,8.4-1.1,6.1-6.2,6.9-4.4,4,2.7,6.3,1.2,2.6,1.3,6.1-5.3,5-1.8,4.4,4.8-3.8,1.5.9,2.8,3-2.1,2.2.6,2.3,3.6-4.8,4.1-1,2,2.6,1,4-1.9,5.5,2.5,1.6-.9,5.1,2.8-1.5,2,1.3,3-2.2-.2-5.9,4.8.2,2.6,4.3,5.4-4.9-.9-1.2-2.7-3.1-.2-6.3,1.4-3.3,1.5-5.1,5.1-3.3.9-1.7,2.2-3.2.2Z"/>
    <path id="IN-AS" d="M410.3,173.3l7.9-1.1,1.2-1.3,6,2,10.9-.9,2-2.8,5.9-5.6,1.6-2.7,3.4,1.4,19-6.6,6.1-.2-3.6,3.9,2,2.9-.5,2,2.8,1-1.9,1.3-5.2,1-6.5,3.1-6.5,3.9-8.5,4-4.7,6.5-.4,4.2-4.5,1.2-6.2,5,2.4,3.9-3.7,4.8-.9,3.4-3.3,6.8-2.8.4-1.1-2.4-3.9,5.7-3.9-1.2-1.1-4.2,1.1-3.9-1-2.7,4.2.4-1.1-2.6,6.3-3.1-6.2-8.5-4.5,1v-4.5c0,0,2.3-2.2,2.3-2.2l-6.2,1.3-1.7-2-1.6,2.7-2.4-1.3-2.2,3.2-4.2,1.8v-2.1c0,0-3.2.6-3.2.6l-1-2.1-5.3.8-2.4-1.9-5.9.9-3.7,3.8,2.1,2.2-2.4,1-.9-4.5,1.3-2-2.8-3.7,2.5-4.9-.2-4,5.5-1.1,3.7-2.2,5,2.2,16.2-.6,3.5-1.8,3.5.4Z"/>
    <path id="IN-BR" d="M344,179.2l3.1,3-7.5,5.1-.3,2.9,3.7,3,.4,3.5-2.4-.9-2.8,2.2.5,3.1-3.4-2.1-1.8,2.5-2.5-.5-.5,2.2-2.4,1.1.2,2.3-1.8,4.6-2.9.7-4.5-.6-2.5,3.9-2.9-1.5.7-2-3.1-.3-1.4-2.9-1.7.8-3.5-1.5-1.2,4-6.3.9-6.4,2.6-1.7-2.6-3.7,1.9-1.3,2.1-8.3-5.8-1.1,1.5-7.1.3.7-1.6-3.1-4.1-.3-5.2,3.4-2.3,5-2,5.1-4.9.9,1,7.1-1-1.7-2.5-3.9-1.1-4.6-3.3,2.3-1.7.2-2.1-4.5-2.4,3-2.1,5.5.3-2.8-1.7v-2.2c-.1,0-3.2-.5-3.2-.5l-1.2-5.1-2-2.5,4.9-2.7,2.4,2.2,5.4.8,1.2,2-.8,2.8,3.1.5,6.1,2.5,2.3,2.1,5-2.2,1.6,3.6,1.9,1.4,3-1.6,4.9.8,6.7,3.3,5.6-2.7.3,2.2,4.1,1.7,2.1-1.5,2.3,1,4.7-1.8,1.8,2,1.8-2.8Z"/>
    <path id="IN-CH" d="M157.1,109.2v1.3c-.1,0-2.3-1.2-2.3-1.2h2.3Z"/>
    <path id="IN-CT" d="M264.7,219.6l3,1.2.9,2.7,2.2.7,1.3,3.7,4.1.9-.9,2.7,1.7.8-.6,3.2,1.9,2.9,3.7-.2v1.8s-2.5,3.2-2.5,3.2l-3.6,2.5v2.5s-5.9,2.4-5.9,2.4l-1.8,2.8.8,3.5-4.1,5.8-2.4,6-3.9-.7-5.3.4-.2,1.9-2.7,3.5-1.9-1-.4,5.5,1.7,2.1-.6,6.1,5.2,1.1v2.6c0,0-4.4-1.2-4.4-1.2l-1.7,1.2-1.8-2.8-4.8-1.7-1.5,3.2,3.5,2.1-.2,4.1,2.3,2-.5,2.5,1.5,5.9-7.9,8.3-3.9,2.5-2.4,7.5-3.7-.8-2.1,1-1.5-4.8-1.4-.9-2.2-4.6-4-3.6-2.3.7-1.2-2.2,1.3-1.8-1.3-1.7.9-3.5,4-4.3,3,1.9,2.4-3-3.9-2.4v-1.3c.1,0-3.1-2.2-3.1-2.2l1.2-4.7-2.6-2.2,3.9-1.5v-4.5c0,0-1.3-5.5-1.3-5.5l-2-1.3.6-2.7,3.3-2.6,1.2-2.3.2-4.7,1.1.2,1.7-6.2,1.7-.2,1.6-5.1,3.5-1.4,1.2,1.4,3.6-1.6,2.8-3.8-.2-1.8,2.8-1.4v-2s3.5-1.1,3.5-1.1l.6-3-3.5-1.5-1-2-5.7-.9,1.9-2.2-.4-3.4,2,1.9h11.2s5.8-2.5,5.8-2.5l2.2,1.4,4.2-.7,2.2-3Z"/>
    <path id="IN-DD" d="M55.1,274.9l1.1-3.8,2.6,1.7-.9,2,.7.9-3.6-.9Z"/>
    <path id="IN-DL" d="M163,140.6l2.5,5.9-2.8,1.7-2.6-2.2-2.8-.2,1.7-4.4,4.1-.8Z"/>
    <path id="IN-DN" d="M97.2,285.5l-.5,1.1-3.5-1.3v-1.4s-.8-1.1-.8-1.1l3.9-.6.9,3.2Z"/>
    <path id="IN-GA" d="M104.9,358.4l4.4-.3,1.4,2.3,1.6-.8h2.1c0,0,1.4,5.9,1.4,5.9l-.7,4.2-3.4,2.4-2.2-2.8-1.2-4.4-3.6-6.5Z"/>
    <path id="IN-GJ" d="M16.7,224.5l-.7,3.7-1.9-.2,2.7-3.5ZM17.9,221.3l-3.9,4.4,1.4-3,2.5-1.3ZM62.3,210l3.2,1.2,3.2-1.1,2.9.7,6.5-1.2,6.5,3.3,4.2.8.6,1.6,3.2.6,1.5-2.6,2.6,2.2-1.4,2.7,5.5,2.2-.9,3.1,2.5,4.1h2.4c0-.1-.5,2.7-.5,2.7h3.3c0,0,6.9,4.4,6.9,4.4l1.3,2.1,2.6,3.4-1.6,3.6h-2s-3.2,4.7-3.2,4.7l1.2,6.7-5.6,2.2,1.4,2-1.8,1.2,1.2,2.1,7.4-1.1-.9,1.7-3-.3-4.1,5.1-2.3.3,1.6,2.3,2.2.5.7,4-1.8,2.1-3.3.6-2.6-2.3-1.3,1.2,1.6,1.7-1.2,5.5-3.5,1.4-.9-3.2-3.9.6.8,1.1-3.9,1.3.3-2.6,2.4-4.9-5.1-11.7,1.6-4.2-2.4-2-.6-4.8.8-3.2,3.4-1.3-2-.9-2.5,1.4-.8-1.7-2.6,6.1.5,5-3.7,6.3.5.8-11.2,5.4-9.1,2.7-.7-.9.9-2-2.6-1.7-1.1,3.8-3.9-1.5-5.6-4.2-6.5-7.2-7.8-6.7-4.6-4.9,1.8-4,2.1.9.6,2.7,1.7-1.2,7.7-1.2,2.6-2.2,3.5-.4,5.5-8.7-2.4,2.4-1.8-.8-7.3,2.1-1.5,1.8-8.4-1.6-10-6.2.8-2.2-2.2-2-.2-2.8,3.8-3.7-3.3.5,3.9-2.3.4-5.5,7.1,1,6.6-.7,2.1,1.7h4.6c0,.1,2-1.9,2-1.9l7.6-2.1v2.8s3.8.5,3.8.5l5.4-3-2.1-.7,1.6-4Z"/>
    <path id="IN-HP" d="M141.2,79.1l.7-3-1.7-2.9,2.3.7,4.8-2.4,2.6-2.6,5.8-.4,4.3,3.7,2.3.2,3.6,2.6,5.9-2.4,3.4,3.4,1.1,3,6.4-2.9.7,4.1,1.8,1.5-1.3,2.9,5.5,4.1-1.3,3.4,2.3,3-2.1,1.6,3.3,4.3,1.5,2.4-3.3-1.5h-5.4s-2.8-1.4-2.8-1.4l-6.8,2.2-2.5,3.2-.8,3.2,1.8,4.3-3.9,1.8.2.3-6.2-1.6-.8-3.5-4.1-3.4-2.2-.2-2.6-1.6-.7-4.6-3.5-2.2-3.1,1.8-4.6-10.7-5.2-2.2.7-2.5,5.1-3-1-2.6Z"/>
    <path id="IN-HR" d="M156.1,106.8l2.2.2,4.1,3.4.8,3.5,6.2,1.6-2.7,4.6-2.4,1-3.1,7.4.9,2.6-.3,5.6,1.1,4-4.1.8-1.7,4.4,2.8.2,2.6,2.2,2.8-1.7,3.4,4.3v4.2c0,0-4.4,3.1-4.4,3.1l-6.5,1.8,1.3-7.4-1.8-1.4-5.2,4.2-1.1-3.1-5.2,2.6,1.1,2.6-4.3-.4,2.2-4.8-3.4-4-5.5-3.7-2.9-7.6.2-3.2-4.8.6-4.4-2.9-4.1.7-.9-1.7,1-4.7h-2.2c0,.1.8-3.2.8-3.2l2.1.6,2.6-1.5,7.1,4v3.4c-.1,0,3.5-4.3,3.5-4.3l4.2.9,2.2-.9,3.4,1.1,3.4-2-.8-2.4,3.3-1.8,3.1.9v-3c.1,0,3-3,3-3h2.2s.4-2.7.4-2.7l-1.6-1.4v-1.3c.1,0-.8-2.4-.8-2.4Z"/>
    <path id="IN-JH" d="M267.6,212.5l7.1-.3,1.1-1.5,8.3,5.8,1.3-2.1,3.7-1.9,1.7,2.6,6.4-2.6,6.3-.9,1.2-4,3.5,1.5,1.7-.8,1.4,2.9,3.1.3-.7,2,2.9,1.5,2.5-3.9,4.5.6,2.9-.7,1.8-4.6-.2-2.3,2.4-1.1.5-2.2,2.5.5,1.8-2.5,3.4,2.1-.2,2.1,3.3,3.2-2.2,2.6,1.2,2.4-3.7,7.4-3.2.6-.6,2.2-3.6-1,.9,2.4-2.8,1.7-3.8-1.4-1.7,3.2-6.8,1.7-2.3,2.7-1.6-2.5-4.6,1.6-.6,4.6,3.4.9,2.9,2.5h4.7s-1.3,3.6-1.3,3.6l5.7,3.4v2.4s2.1,2.9,2.1,2.9l-2.7.6-6.1-2.2-5.2-3.6-1.4,1.8,1.5,2.5-2.3,5.6-8.5-3.2-2.7,2.6-3.4-1.9.6-6.1-2.8,1h-6.1s-3.9,1.3-3.9,1.3l-4.8-3,3.6-2.5,2.5-3.2v-1.8s-3.7.2-3.7.2l-1.9-2.9.6-3.2-1.7-.8.9-2.7-4.1-.9-1.3-3.7-2.2-.7-.9-2.7-3-1.2,2.9-7.1Z"/>
    <path id="IN-LK" d="M155.7,68.6l-2.1-3-4.8-3.1-2.2.9,1-2.7-3.9-4.1-3.3.2-4.1-4.2-3.3-1.9-2.1-6.7-2.4-2.2-2.3,1.7-5.7-2.2-1.9-3.6-3.7,1.6-3.1-1.2-6.5-4.3,1.1-3.8-7.9-.7-2.8-3.9-4.6-1.3-3.3.9-.7-3.9,1.1-2.5,3.9-2.4,5.8-6,10.6.3-2.8-1.9,2.3-.9,3.5,1.4,9.5-3.8,4.3,1.6,6.9-.8,5.9,6.7,10.1,4.8,7.2,4.4,1.2,4.5,7.6,1.2,3.2,4.1,2.8.3,8.1-1.7,3.4-3.3,5.4-1.9,6.5,1,3.2-3.3,3,2.2,5.6,1.2,2.7-.9,5,4.2.2,4.1-3.7,10.3-4.1,1.6-.6,2.2-3.9.6,1.3,3.1-.7,2.5-2.6,1.8-3.3-.8-3.6.9,2.3,5.4-2.3,1.9-.4,2.5,2.6,3,5.6.8-1,3.3,3,3.6.2,2.5-6.9,2.4-2.5,2-3.2-2.2-.6-3.7-5.6,3.1-.7-4.1-6.4,2.9-1.1-3-3.4-3.4-5.9,2.4-3.6-2.6-2.3-.2-4.3-3.7Z"/>
    <path id="IN-KA" d="M112.3,359.6v-1.1c0,0,4-.9,4-.9l2.3-7.6-2.6-1-.3-4.3,3.7-1.3,2.3.5v-1.8c.1,0,3.9-.9,3.9-.9l.2-2.8h2.5c0-.1,2.1,1.7,2.1,1.7l1.2-1.9h6.4c0,0-.6-8.7-.6-8.7l4.9,2.5,7.9-.7-1.3-3.7,9.7-5.3.6-4.5,2.6.5,2.2-4.2,2.1-.6-.2,2.3,3.2.3,1.6,4.9-3.2,5-.2,1.8,4,1.8-2.9.8-2.5,4.4,2.3,2.6-1.3,4.9.7,2.2-3,3,5.1,1.1-1.5,1.2v5.8c.1,0-4.2-.6-4.2-.6l-3,1-.6,4.4.5,5.2,1.7,1-1.4,4.3-4.7-1.5,1.1,2.1-1.7,6,1.8,2.2,1.1,3.8,2.8.4.8-2.1,5.7,1.1-2.8,4.1-3,.5-2.1-3-2.3.7,2.5,3.4-.7,3,2.9-.2-.7-1.6,5.5.9.9,1.8,5.2-2.9,4.7.3-.8,2.5,2.7,1.7,2.7.2-.6,3.7,3.7,1.5-2.1,3.8-3.8,4.6-5-2.1-2.2.7-.9,2.8h-2.3c0,.1.2,5.1.2,5.1l-2.3,2.5,4.3.6-1.1,3.8h-2.9c0,0-1.1,3.1-1.1,3.1l-2.2-.8-6.4.2-.8,3-7.1-1-5.2-5.2-3.8.5-1.3-2.2-3.7-1.3-7.1-8.7-4.7-1.3-2.8-9.8-1.5-8.6-1.7-2.6-3.9-11.5-2.8-1.4v-1.6s3.4-2.4,3.4-2.4l.7-4.2-1.4-6h-2.1Z"/>
    <path id="IN-KL" d="M124.6,407.6l4.7,1.3,7.1,8.7,3.7,1.3,1.3,2.2,3.8-.5,5.2,5.2-3.3,1.6.2,1.7,4.9,1.8-1.5,2,4.8,1.8-1.5,3.3,4.1,2.5-1.1,3.1-.2,4.8,2.5,1.4,3.2-2.3,1.9,2.3-1.5,1.9,1.2,2.3-1.8,5.8,3.1.2.9,1.6-2.1,3.4-.2,2.5-2,2.2,1.8,2.5-1.5,2,1.8,3.3-2.8,4-2-1.4-7.6-10.5-3-6.6-1.9-9.3-2.1-6.7-3.1-6.8-2.9-9.3-2-2.1-1.2-3.4-6-6.8-5.2-10.9Z"/>
    <path id="IN-LD" d="M90.2,432.4l-.5,1.3.3-1,.2-.3Z"/>
    <path id="IN-MH" d="M112.6,255.2l4-1.1,2.3,1.8-.3,3,4.6,1.9,4.4.8,2.7,2.6,5.4.6h9.1s1.2,4.8,1.2,4.8h3.4c0,.1,1.8-1.8,1.8-1.8h2.3c0,0,0-2.3,0-2.3l2.6-2.2.2-2.2,4.6-2.1,6.7-.8,1.5,4h-2.5c0,0,1.2,2.5,1.2,2.5l7.5-.2,4-2.8,4-.7,4.9,2.3,3.5-.4-.3-1.7,5.1-1v-1.2c.1,0,4.5.8,4.5.8l.8,2.2,3.2-1,2.1,1.2,5.5-1.7,3,1.9,1.2,2.5,3.6.7-3.3,2.6-.6,2.7,2,1.3,1.3,5.5v4.5c0,0-4,1.5-4,1.5l2.6,2.2-1.2,4.7,3.3,2.2v1.3c-.1,0,3.7,2.4,3.7,2.4l-2.4,3-3-1.9-4,4.3-.9,3.5,1.3,1.7-1.3,1.8-2.6.7-3.6-2.6.7-3.2-1.3-1.4,1.9-4.9-3.9-3.3-4.5,1.8-3.8-1.9-1.1,2.5-2.6-1.3-2.9-3.6-7.4-1.3-2.1,2.9.6,3.4-2.1.7-.2,2.9-3.7-1.7-1.5.6-1.6,5.3,2.9,2.6-3.5,2.4v2c0,0-2.2.1-2.2.1l-.8,4.2-3.2-.3.2-2.3-2.1.6-2.2,4.2-2.6-.5-.6,4.5-9.7,5.3,1.3,3.7-7.9.7-4.9-2.5.6,8.6h-6.4c0,0-1.2,2-1.2,2l-2.1-1.8h-2.5c0,.1-.2,3-.2,3l-3.7.9v1.8c-.1,0-2.4-.5-2.4-.5l-3.7,1.3.3,4.3,2.6,1-2.3,7.6-3.9.9v1.1c0,0-1.7.8-1.7.8l-1.4-2.3-4.4.3-2.8-3.5-2.4-8.3-1.2-9.1-2.1-6.9.3-1.7-1.8-6.5-1.4-2.6v-3.6c0,0-2.2-7-2.2-7l2.3-6-2.5,2.2-.8-6.7-2.2-10,1.2-3.4,3.9-1.3v1.4s3.6,1.3,3.6,1.3l.5-1.1,3.5-1.4,1.2-5.5-1.6-1.7,1.3-1.2,2.6,2.3,3.3-.6,1.8-2.1-.7-4-2.2-.5-1.6-2.3,2.3-.3,4.1-5.1,3,.3.9-1.7-7.4,1.1-1.2-2.1,1.8-1.2-1.4-2,5.6-2.2Z"/>
    <path id="IN-ML" d="M373.2,195.7l2.4-1-2.1-2.2,3.7-3.8,5.9-.9,2.4,1.9,5.3-.8,1,2.1,3.2-.6v2.1c0,0,4.1-1.8,4.1-1.8l2.2-3.2,2.4,1.3,1.6-2.7,1.7,2,6.2-1.3-2.3,2.2v4.5c0,0,4.6-1,4.6-1l6.2,8.5-6.3,3.1-5.9-2.6-9.8.9-3.3-1.2-6.7.8-12.5-1.2-4.7-1.1.3-3,.2-1.1Z"/>
    <path id="IN-MN" d="M433,199.6l2.2,1.8,3.3-4.4-.6-1.2,4-.9,5,1.7,4.3-3.4-.3,3.1,2.1.9-1.6,4,2.7,1.3-2.2,6.9-3.4,3.9-4,10.5-6.7-2.6-4,1-2.9-1.8-6-1,.4-4.8,3.3-6.8.9-3.4,3.7-4.8Z"/>
    <path id="IN-MP" d="M180,174.2l2.3-.6,3.6,1.9,2.5-.7,4.6,1.9,2.3,5.6-2.2,4.4-4.2,5.5,1,2.1-5.3.7-3.2,3.4,1.5,3-1,3.2-2.7,2,1.7,3.6-.8,2.4,2.7,4.1,2.1-2,4.7,3.5,3.2-4.3-1.7-3.3-1.7.8-.2-4.4-2.4-1.7-1-7.1,3.4.6-.7-1.7,3.4-1.6,1.2,4.7,2.1,2.8,3.1-.7.4-2,2.5,3.1,4.2-1,7.4-4.5,3.8,4-2.6,2.4,3.8-.2,5.7-2.4,1.1.5-1.2,3.7,4.9.7,3.3-4.6,2.5,1.6,1.4-2,1.5,1.9,3.8,1.4.2,1.7,5.7,2.3v1.4c-.1,0,7-.5,7-.5l1.7,5.4-.7,3.9,1.4,2.9-5.8,2.5h-11.2s-2-1.9-2-1.9l.4,3.4-1.9,2.2,5.7.9,1,2,3.5,1.5-.6,3-3.5,1.1v2s-2.8,1.4-2.8,1.4l.2,1.8-2.8,3.8-3.6,1.6-1.2-1.4-3.5,1.4-1.6,5.1-1.7.2-1.7,6.2-1.1-.2-.2,4.7-1.2,2.3-3.6-.7-1.2-2.5-3-1.9-5.5,1.7-2.1-1.2-3.2,1-.8-2.2-4.3-.8v1.2c-.1,0-5.2,1-5.2,1l.3,1.7-3.5.4-4.9-2.3-4,.7-4,2.8-7.5.2-1.2-2.6h2.5c0,0-1.5-4-1.5-4l-6.7.8-4.6,2.1-.2,2.2-2.6,2.2v2.4s-2.3,0-2.3,0l-1.8,2h-3.4c0-.1-1.2-4.9-1.2-4.9h-9.1s-5.4-.6-5.4-.6l-2.7-2.6-4.4-.8-4.6-1.9.3-3-2.3-1.8-4,1.1-1.2-6.7,3.2-4.7h2s1.6-3.5,1.6-3.5l-2.6-3.4,3.1-.4,3.9-2.4-3.8-1.6,1.6-2.2,5.4-2.8-.6-4,1.4-2.6-2-4.2h-1.9s1.7-3.1,1.7-3.1l-2.4-.7,1.7-2.7,3.1-2.1-1.4-1.6h3.3s.7-2.5.7-2.5h3.1s-2.7,4.6-2.7,4.6l7.1,1.3,2.4-1.3,2.5,5.1-3,.8,1.8,4.9-2.2,2.4-3.1-1.3-1,2.1,3.2,2,5.4-2.2-.3-1.5,4.2-3.2,4.2-.2,5.5,1.8,2.4-1.4-1.7-2.2-.4-3.2,3.1.9.4-3.9-3.7-1.8,2.4-.9-1.6-2.3,5.2-1.7h3.8s-1.5-5.3-1.5-5.3l-1.7,2.1-4.4.6-5.6-1.9-1.4-2.3v-4.4c.1,0,4.7-2.6,4.7-2.6l1.3-2.3,15.3-7.6,1.4-1.8,3.2-.3,2.1-2.5Z"/>
    <path id="IN-MZ" d="M413.4,217.1l3.9,1.2,3.9-5.7,1.1,2.4,2.8-.4-.4,4.8,6,1,1.8,6.1-1.3,5.4.5,3.6-1.6,2.2-2.7-.7-.7,5.6,1.9,7.4-2.7,1.1-.6,3.5-5.1-2.7-1.5,2.8v-3.2c0,0-1.3-8-1.3-8l-2.6-4.6.6-5.2-2.3-8,1.1-6.9-.7-1.7Z"/>
    <path id="IN-NL" d="M461.5,170.8l.7,5.9-2.8,3.7,1.1,1.2-.3,4.6,1.1.5-2.8,3.5.6,1.8-2.4,3.2-3.7,1.8-2.1-.9.3-3.1-4.3,3.4-5-1.7-4,.9.6,1.2-3.3,4.4-2.2-1.8-2.4-3.9,6.2-5,4.5-1.2.4-4.2,4.7-6.5,8.5-4,6.5-3.9Z"/>
    <path id="IN-OR" d="M276,245.8l4.8,3,3.9-1.4h6.1s2.8-1,2.8-1l-.6,6.1,3.4,1.9,2.7-2.6,8.5,3.2,2.3-5.6-1.5-2.5,1.4-1.8,5.2,3.6,6.1,2.2v1.2c-.1,0,3.9,1,3.9,1l2.3,3.7,1.2-1.9,1.6,2.6,3,.9.6,2.5-4.7,1-5.1,3.8-1.1,3,2.4,5.2-2.5,1.1v2c0,0,.1-.6.1-.6l1.7-.6h1.8s-4.3,2.9-4.3,2.9v3.1c0,0-3.8,2.3-3.8,2.3l-3.1,4.2-11.6,3.6-4.6,2.2-7.8,5.7-2.5,3.1-1.6-1.4-3.7,3.1-1.8,2.9-4.2.8-3.5-1.2-1.4-3.1-.7,1.5-2-3.9-3.5,4.9-6.6,3.7,1.3,1.7-.6,2.7-4.2-1.1-.5,1.8-3.1,1-1.8-4.4-1.9,2.1-1.6,7-4-1.2-4.4,2.7-2.4,1.3h-3.7c0,.1,2.4-7.4,2.4-7.4l3.9-2.5,7.9-8.3-1.5-5.9.5-2.5-2.3-2,.2-4.1-3.5-2.1,1.5-3.2,4.8,1.7,1.8,2.8,1.7-1.2,4.3,1.2v-2.6c0,0-5.2-1.1-5.2-1.1l.6-6.1-1.7-2.1.4-5.5,1.9,1,2.7-3.5.2-1.9,5.3-.4,3.9.7,2.4-6,4.1-5.8-.8-3.5,1.8-2.8,5.9-2.4v-2.5ZM324.6,275.8l-1.7.6-.2.6v-2c0,0,1.9.8,1.9.8Z"/>
    <path id="IN-PB" d="M141.2,79.1l1,2.6-5.1,3-.7,2.5,5.2,2.2,4.6,10.7,3.1-1.8,3.5,2.2.7,4.6,2.6,1.6,1,2.4h-2.3c0,0,2.1,1.3,2.1,1.3l1.6,1.4-.4,2.6h-2.2s-2.9,3.1-2.9,3.1v3c-.1,0-3.2-.9-3.2-.9l-3.3,1.8.8,2.4-3.4,2-3.4-1.1-2.2.9-4.2-.9-3.7,4.3v-3.4c.1,0-7-4-7-4l-2.6,1.5-2.1-.6-10.4-.4,1.2-3.7-1.6-2.9,7.4-7.9,6.3-4.1-3.1-.7,2.3-5.3-2.1-4.4,1.4-2.7,4.5-2.7,6.1-.6,2.1-2.4-.7-1.7,6.5-1.3,2.7-2.6Z"/>
    <path id="IN-PY" d="M206.3,423.3l-1.4-1.1,2-1.1-.6,2.2ZM207.2,439.8l-2.1-1.4,2.1-1.3v2.7Z"/>
    <path id="IN-RJ" d="M109.7,118.6l-1.2,3.7,10.4.4-.8,3.3h2.2c0-.1-1,4.6-1,4.6l.9,1.7,4.1-.7,4.4,2.9,4.8-.6-.2,3.2,2.9,7.6,5.5,3.7,3.4,4-2.2,4.8,4.3.4-1.1-2.6,5.2-2.6,1.1,3.1,5.2-4.2,1.8,1.4-1.3,7.4,6.5-1.8,1,4.6,5.6,5.5-2.9,1.7,2.5,2-3.8,1.8v1.6c.1,0,4.9-1.8,4.9-1.8l6.6-1.2,1.6,1.9-2.1,2.5-3.2.3-1.4,1.8-15.3,7.6-1.3,2.3-4.6,2.6v4.4c-.1,0,1.2,2.3,1.2,2.3l5.6,1.9,4.4-.6,1.7-2.1,1.5,5.4h-3.8s-5.2,1.7-5.2,1.7l1.6,2.3-2.4.9,3.7,1.8-.4,3.9-3.1-.9.4,3.2,1.7,2.2-2.4,1.4-5.5-1.8-4.2.2-4.2,3.2.3,1.5-5.4,2.2-3.2-2,1-2.1,3.1,1.3,2.2-2.4-1.8-4.9,3-.8-2.5-5.1-2.4,1.3-7.1-1.3,2.7-4.6h-3.1s-.7,2.5-.7,2.5h-3.3s1.4,1.5,1.4,1.5l-3.1,2.1-1.7,2.7,2.4.7-1.7,3.1h1.9s2,4.2,2,4.2l-1.4,2.6.6,4-5.4,2.8-1.6,2.2,3.8,1.6-3.9,2.4-3.1.4-1.3-2.1-6.9-4.3h-3.3c0,0,.5-2.9.5-2.9h-2.4c0,.1-2.5-4-2.5-4l.9-3.1-5.5-2.2,1.4-2.7-2.6-2.2-1.5,2.6-3.2-.6-.6-1.6-4.2-.8-6.5-3.3-6.5,1.2-2.9-.7-3.2,1.1-3.2-1.2-2.7-4.2-.8-3.5-3.6-4.1v-5.1c-.1,0-6.5,0-6.5,0l-3-4,1.3-5v-5.1c0,0-4.9-.5-4.9-.5l-6.2-2.8v-4.4c0,0,1.2-2.5,1.2-2.5l7.3-6.5,2.3-4.6,3.5-2.9,3.3-.2,3.2,5,2.1.3,6.4-2.4,6.4-.4,4-1.5.6-2.8,4.2-3.8,3.3-6.7,9.2-4.4,5.5-8.8,2-6.3,6.6-2.1,3-2.1Z"/>
    <path id="IN-SK" d="M354.7,169.1l-3.8-.5-1.5,1.6-5.7-1-1.1-1.3.5-4.6,2.5-4.9-1.3-2.7,4.4-.5,3.8-2.1,3.6,1.5.9,2.5-2,4.9,2.6,4-2.8,3Z"/>
    <path id="IN-TG" d="M169,315.9l.8-4.2h2.3c0-.1,0-2.1,0-2.1l3.5-2.4-2.9-2.6,1.6-5.3,1.5-.6,3.7,1.7.2-2.9,2.1-.7-.6-3.4,2.1-2.9,7.4,1.3,2.9,3.6,2.6,1.3,1.1-2.5,3.8,1.9,4.5-1.8,3.9,3.3-1.9,4.9,1.3,1.4-.7,3.2,3.6,2.6,2.6-.7,1.2,2.2,2.3-.7,4,3.6,2.2,4.6,1.4.9,1.5,4.8,2.1-1,3.7.8h3.7c0-.1,2.4-1.4,2.4-1.4l.4,1-3.4,1.8-1.4,4.6-5.2,2.1-.3,1.5-4.3.5-1.2,2.9-4.5-1.9-3.3,2.8,3.7.7-.4,2.7-4-1.8-2.3-2.9-3.2,3,1.3.8-1.8,2.8-3-1.5-9.1,3.7v4.5c-.1,0-3.2-.1-3.2-.1l-2,2.3-3.3,1.3-1.6-1.2-6,1.1-1.5,3-6.1-.3-4.8-.9v-5.8c-.1,0,1.4-1.2,1.4-1.2l-5.1-1.1,3-3-.7-2.2,1.3-4.9-2.3-2.6,2.5-4.4,2.9-.8-4-1.8.2-1.8,3.2-5-1.6-4.9Z"/>
    <path id="IN-TN" d="M180.2,407.7l2.4,2.3,3-1.2,1.1-4.9,4.3-1.8,4.6,1.3,1.1-2.1,3.4-.9v-2.3c0,0,2.6,1.3,2.6,1.3l5.7-1.5,2.4-3.3,4,1.9.5,2.5-1.5,8.1-1.6,5.2-5.3,8.8-2,1.1,1.4,1.1-.7,4.1,1.3,3.5.3,6.3-2.1,1.3,2.1,1.4.5,8.6-8.2-.3-2.6,2.9.6,1.8-4.5,5.5-1.6,3.8,2.7,3-10.8,3.1-3.3,2.5-1.7,5.1-.6,4.7-8.6,4.9-3.9-.7-3.6-2.9,2.8-4-1.8-3.3,1.5-2-1.8-2.5,2-2.2.2-2.5,2.1-3.4-.9-1.6-3.1-.2,1.8-5.8-1.2-2.3,1.5-1.9-1.9-2.3-3.2,2.3-2.5-1.4.2-4.8,1.1-3.1-4.1-2.5,1.5-3.3-4.8-1.8,1.5-2-4.9-1.8-.2-1.7,3.3-1.6,7.1,1,.8-3,6.4-.2,2.2.8,1.1-3h2.9c0,0,1.1-3.9,1.1-3.9l-4.3-.6,2.3-2.5-.2-5h2.3c0-.1.9-2.9.9-2.9l2.2-.7,5,2.1ZM198.3,464.4l2.1,2.8-3.6-2.2,1.5-.6Z"/>
    <path id="IN-TR" d="M412.4,212.9l1.1,4.2.7,1.7-1.1,6.9-3.3,1.4-2.1-.6.5,3.3-3.3,3.4,1,3-4.4,2-1.8-4.7-2.1,1.6-1.3-5.5-1.5-1.9,1.1-4.7,2.4-3.8h4.2c0,.1,1.8-2.3,1.8-2.3l2.8,1.7,1.1-4.1h2.4c0,0,1.9-1.9,1.9-1.9Z"/>
    <path id="IN-UP" d="M169.3,115.1l6.1,2.6-2.4,2.4-1.4,3.8.9,2.6,3.2.2.6,2.6,5.7-4.1,3.2,2.8,6.6,2.8-2.2,2.1,1.8,3,3.8.4.5,1.8,4,1.5.2,1.3,6-.6,4,2.6,1-1.5,6.3,3.3,1.9-1,8.5,5,2.2.4,1.8,2.7,9.4,5.6,3-1.1,6.3,4.1,4.3-.7.4,3.6,7.5.8,1.9,2,1.4-2.5,3.7.2,4,2,2,2.5,1.2,5.1,3.1.5v2.2c.1,0,2.9,1.7,2.9,1.7l-5.5-.3-3,2.1,4.5,2.4-.2,2.1-2.3,1.7,4.6,3.3,3.9,1.1,1.7,2.5-7.1,1-.9-1-5.1,4.9-5,2-3.4,2.3.3,5.2,3.1,4.1-.7,1.6-2.9,7.1-2.2,3-4.2.7-2.2-1.4-1.4-2.9.7-3.9-1.7-5.4-7.1.5v-1.4c.1,0-5.5-2.3-5.5-2.3l-.2-1.7-3.8-1.4-1.5-1.9-1.4,2-2.5-1.6-3.3,4.6-4.9-.7,1.2-3.7-1.1-.5-5.7,2.4-3.8.2,2.6-2.4-3.8-4-7.4,4.5-4.2,1-2.5-3.1-.4,2-3.1.7-2.1-2.8-1.2-4.7-3.4,1.6.7,1.7-3.4-.6,1,7.1,2.4,1.7.2,4.4,1.7-.8,1.7,3.3-3.2,4.3-4.7-3.5-2.1,2-2.7-4.1.8-2.4-1.7-3.6,2.7-2,1-3.2-1.5-3,3.2-3.4,5.3-.7-1-2.1,4.2-5.5,2.2-4.4-2.3-5.6-4.6-1.9-2.5.7-3.6-1.9-2.3.6-1.6-1.9-6.6,1.2-4.8,1.8v-1.6c-.1,0,3.7-1.8,3.7-1.8l-2.5-2,2.9-1.7-5.6-5.5-1-4.6,4.3-3.1v-4.2c0,0-3.3-4.3-3.3-4.3l-2.5-5.9-1.1-4,.3-5.6-.9-2.6,3.1-7.4,2.4-1,2.7-4.6-.2-.3Z"/>
    <path id="IN-UT" d="M210.8,141.2l-1,1.5-4-2.6-6,.6-.2-1.3-4-1.5-.5-1.8-3.8-.4-1.8-3,2.2-2.1-6.6-2.8-3.2-2.8-5.7,4.1-.6-2.6-3.2-.2-.9-2.6,1.4-3.8,2.4-2.4-6.1-2.6,3.9-1.8-1.8-4.3.8-3.2,2.5-3.2,6.8-2.2,2.8,1.4h5.4s3.3,1.5,3.3,1.5l-1.5-2.4,2.3-3.5,3.3,2.9.6,2.1,5,3.8,2.6-1.1,8.2,4.5-.4,2.6,5.2,2.1,1-.5,3.8,2.8,3.5,1.1-7.7,6.7-3.1,1.6.9,1.8-2.9,3.2,1.2,2.2-.8,2.8-2.1.6-1.2,4.5Z"/>
    <path id="IN-WB" d="M342.5,167.9l1.1,1.3,5.7,1,1.5-1.6,3.8.5,2,.7v2.6c0,0,2.6.2,2.6.2l1.8,2.2,4.1-1,8,2.7.2,4-2.5,4.9-1.1,1.7-5,.9-3.1-2.1-1.1-4.3-2.9.5,2.4,1.3-4.1.6-6.4-4.8.8,1.4-2.2,4-2.9,1.2-1.6,3.9,1.1,2.3h2c0-.1,2.9,2.9,2.9,2.9l3.4,2,2.7-.7,2.4,4.3-.6,1.5-7.9-.5v2.7c.1,0-2,2.8-2,2.8l-1.6-1.5-3.6,4.9,3.1,3.4,8.9,3.1v6c0,0-2.6.9-2.6.9l-.2,3.6,3.4,3.3-.7,3.2,4.5.7-2.1,1.9v2.3c-.1,0,1.6,1.9,1.6,1.9l-.5,4.5-3.3,6-1.9,1.6-.2,3.2-3.5.5-3,2-1.1-3.2.6-2.3-6.6,6.7-5.1,1.4-.6-2.5-3-.9-1.6-2.6-1.2,1.9-2.3-3.7-4-1v-1.2c.1,0,2.8-.6,2.8-.6l-2-2.9v-2.4s-5.7-3.4-5.7-3.4l1.3-3.5h-4.7s-2.9-2.5-2.9-2.5l-3.4-.9.6-4.6,4.6-1.6,1.6,2.5,2.3-2.7,6.8-1.7,1.7-3.2,3.8,1.4,2.8-1.7-.9-2.4,3.6,1,.6-2.2,3.2-.6,3.7-7.4-1.2-2.4,2.2-2.6-3.3-3.2.2-2.1-.5-3.1,2.8-2.2,2.4.9-.4-3.5-3.7-3,.3-2.9,7.5-5.1-3.1-3,1.4-3.9-.9-3.5-2.4-2,.4-1.9ZM358.6,248.1l1.3,4.2-1.8-2.1.5-2.1ZM344.5,256.5l.3,3.7h-1.9s1.6-3.7,1.6-3.7Z"/>
    <path id="IN-JK" d="M141.2,79.1l-2.7,2.6-6.5,1.3-4.7-2.6h-5.6c0,.1-.9-2-.9-2l.9-3.8-3.7,2.1-2.3-.2-7.6-3.9h-2.5l-2.5-2.5.4-5.8-.5-6.6-1.8-3-.6-7.8,4.1-1.8,1.1-2.7,4.7-.8,1.3-3.9,3.1,1.2,3.7-1.6,1.9,3.6,5.7,2.2,2.3-1.7,2.4,2.2,2.1,6.7,3.3,1.9,4.1,4.2,3.3-.2,3.9,4.1-1,2.7,2.2-.9,4.8,3.1,2.1,3-5.8.4-2.6,2.6-4.8,2.4-2.3-.7,1.7,2.9-.7,3Z"/>
  </g>
</svg>