<?xml version="1.0" encoding="UTF-8"?>
<svg id="Layer_1" xmlns="http://www.w3.org/2000/svg" xmlns:amcharts="http://amcharts.com/ammap" version="1.1" viewBox="0 0 512 512">
  <!-- Generator: Adobe Illustrator 29.1.0, SVG Export Plug-In . SVG Version: 2.1.0 Build 142)  -->
  <g id="_x3C_defs">
    <amcharts:ammap bottomLatitude="29.496687" leftLongitude="34.228663" projection="mercator" rightLongitude="35.935383" topLatitude="33.434207"/>
  </g>
  <g>
    <path id="PS-JRH" d="M304.3,181.3l-.3.6.2,5.5,1.2,1.4.2.9-1,1.5,1.8,4-.7,4.5-2,1.9,1.1,5.3,1.9,1.2-1.1,2.1,1.1,1.8-.8,2.4,1.3,7.4-2.6,4.7h0l-4.2-3.8-.6-.9-.2-1.7-1.5-.9h-3.1s-3.1,1-3.1,1l-2.5-1.3-.4-.8.7-1.4-.6-1-1.1-.6-.3-3.3h0l3.4.5.5-.5.3-1.1-.4-2.5.3-2.2,1-1.7.2-.8-1.1-2.4v-1.9c.1,0-.5-1.8-.5-1.8l.9-1,.9-2.6-.3-.5-1.4-.5-1.8-1.9.2-.4,2.1-.3.2-.6-.8-1h0l-.6-1.9v-2.3l-.8-1.9.2-1.2.8-1.2,3.5-.7.6-.3.2-.5-1-2.5.4-2.2-.3-2.4.5-3.1-.8-.8-1.7.3-.3-.6,2.1-2.4,1.5-3.7h0l2.8,1.7,1.3,2.1.8,2.5.8.9h.7c0-.1,2.3-1.9,2.3-1.9l4.7-.2h0l-.9,1.8-1.4,8-1.5,2.1-.4,2.3-.6,1.2Z"/>
    <path id="PS-JEN" d="M295.1,138.9l-.5.3-.8,1.4-1.3.5-1.4,1.1-.9,1.3-1.9-.5-1.6,1.3-2,.5-.7,3,.2,2.5-1.4,2.9h0l-1.7-1-2.3-2.1-1.2,1.3-1.1.3-3.9-.4-1.6-.7-3.3.5-.8-.4-.3-.6h0l.2-1.7-.2-.9-3.2-1.5-1-1.2-1.6-.6.5-3.1v-2.4s.6-1.5.6-1.5l-.2-.6-.6-.4h-1.5s-2.5,1.3-2.5,1.3l-.8-.6v-.9c0,0,2-1,2-1l.4-1.3-.2-1-.5-.5-1.6-.3h0l.6-1.2h0l.8-.6,4.3-1.6,2.7-1.4,2.1-1.5,1.3-1.3.4-.8h0l2-2.2h0l1.6-.4,1.5.8,1.9,2,1.7,1.2,2.6,1.1,6.5-1,3,.3,1.7,1.3,1.8,3,.3,2.7v2.5c-.1,0,.5,1.8.5,1.8l.8,1v.6s.7.6.7.6Z"/>
    <path id="PS-TKM" d="M265.7,159.1l-4.6,1.1-2.1,2.3-.3,1-1.4.5-.7.9h-1.4c0,.1-2.3-1.4-2.3-1.4l-5-6.6h0l.2-.2h0l.4-.9-.5-3.6v-3.4c.1,0,2-3.1,2-3.1l2.8-1.3.8-.7h0l.4-3.2h0l.9-2.6,1-5h0l.4-.7h0l1.6.3.5.5.2,1-.4,1.3-2,1v.9c0,0,.8.6.8.6l2.5-1.3h1.5s.6.4.6.4l.2.6-.6,1.5v2.4s-.5,3.1-.5,3.1l1.6.6,1,1.2,3.2,1.5.2.9-.2,1.7h0l-3.1-1.3.2,2.2,1.6,1.2.5.9v1.7s-1.1.9-1.1.9l-.3,1,1.3,2.5Z"/>
    <path id="PS-TBS" d="M307.6,141.4l-.2,2.3,1.1,1.7-.7,3.8.8,2.3-.6,2.4.7,1.8-.4,2.8.8,4.9v1.5c.1,0-.2,1.1-.2,1.1h0l-4.7.2-2.3,1.8h-.7c0,.1-.8-.7-.8-.7l-.8-2.5-1.3-2.1-2.8-1.7h0l-1.2-3.8-.7-1.1-1.8-.2-1.4.6-3.5.7-1.3-1.7-1.7-.9-1.4-1.5h0l1.4-2.9-.2-2.5.7-3,2-.5,1.6-1.3,1.9.5.9-1.3,1.4-1.1,1.3-.5.8-1.4.5-.3h0l1.4.2,1.6-.5h2.5c0,.1,4.5,2,4.5,2l2.5.7Z"/>
    <path id="PS-NBS" d="M268.4,183.8l2.8-3.2,2.5-1.3,2.3-.6.5-1v-1s-.4-1-.4-1l-.7-.6-2.7-.9h-1.1s-1.5.7-1.5.7l-1.7-.4-.8-.9-1-2.6-.7-.7h0l1.6-3.7.5-3.3v-1.2c0,0-.8-1.8-.8-1.8l-1.2-1.1h0l-1.3-2.5.3-1,1.1-.9v-1.7s-.5-.9-.5-.9l-1.6-1.2-.2-2.2,3.1,1.3h0l.3.6.8.4,3.3-.5,1.6.7,3.9.4,1.1-.3,1.2-1.3,2.3,2.1,1.7,1h0l1.4,1.5,1.7.9,1.3,1.7,3.5-.7,1.4-.6,1.8.2.7,1.1,1.2,3.8h0l-1.5,3.7-2.1,2.4.3.6,1.7-.3.8.8-.5,3.1.3,2.4-.4,2.2,1,2.5-.2.5-.6.3-3.5.7-.8,1.2-.2,1.2.8,1.9v2.3l.6,1.9h0l-2.4-.2-1.2,1.1h-.6c0,0-1.3-1.3-1.3-1.3l-.7-2.3-4-1.6-2.1.2-1.5-.9h-3.5c0,.1-1.5-.9-1.5-.9l-2.3,1-1.9.2Z"/>
    <path id="PS-QQA" d="M265.6,170.3h-3.4c0,0-5.8-1.8-5.8-1.8l-.4.4-.5,1.9-2,3.6-2.2,1.6-2.1.5-2.1.9-1.8,1.6h0v-.5h0l1.2-3v-1.6c-.1,0-1-3.6-1-3.6l-2.1-3.4v-1.5c0,0,.1-1.5.1-1.5l2-4.4,1.5-2.2h0l.7-.5h0l5,6.6,2.3,1.5h1.4c0-.1.7-1,.7-1l1.4-.5.3-1,2.1-2.3,4.6-1.1h0l1.2,1.1.7,1.8v1.2c0,0-.4,3.3-.4,3.3l-1.6,3.7Z"/>
    <path id="PS-SLT" d="M268.4,183.8l-2.5-1.5-2.3.2-2.1-1-1.2.3-1.1,1.2-1.4.2-2.4.9-4.9-.8-.8-.4-.9-1h-1.8c0,0-.2-.4-.2-.4h0l-1.1-1.2-.3-.8h0v-.5h0l1.8-1.6,2.1-.9,2.1-.5,2.2-1.6,2-3.6.5-1.9.4-.4,5.8,1.9h3.4c0,0,.7.6.7.6l1,2.6.8.9,1.7.4,1.5-.7h1.1s2.7.9,2.7.9l.7.6.5,1v1s-.5,1-.5,1l-2.3.6-2.5,1.3-2.8,3.2Z"/>
    <path id="PS-RBH" d="M287.6,211.7h-2.6s-1.8-3.1-1.8-3.1l-2.2-.6-1.5-1.7-2.7-.6-1.3,1-1.5-1.1h-2c0-.1-.9.1-.9.1l-1.4-.5-1.4.7-.4.7v1.3s-.6.3-.6.3h-2c0,0-1-.6-1-.6h-4s-2.3-.7-2.3-.7l-.6.7-.4,1.9-1.6,1.5h0l-1.5.9h0l-2,2.2-2.8,1-3-.4-2.1-.9-.9-3.4h0l1.3-2h0l5.4-1,1-3-.5-2-2.5-2-1.7-2.2-.3-2.9,1.5-3.2-.5-1.3.5-.4-.2-1.5.9-1.9.3-1.9-.4-1.5h0l-1.1-2.1h1.8c0,0,.9,1.1.9,1.1l.8.4,4.9.8,2.4-.9,1.4-.2,1.1-1.2,1.2-.3,2.1,1,2.3-.2,2.5,1.5h0l1.9-.2,2.3-1,1.5,1h3.5c0-.1,1.5.8,1.5.8l2.1-.2,4,1.6.7,2.3,1.3,1.4h.6c0,0,1.2-1.2,1.2-1.2l2.4.2h0l.8,1-.2.6-2.1.3-.2.4,1.8,1.9,1.4.5.3.5-.9,2.6-.9,1,.6,1.8v1.9c-.1,0,.9,2.4.9,2.4l-.2.8-1,1.7-.3,2.2.4,2.5-.3,1.1-.5.5-3.4-.5Z"/>
    <path id="PS-JEM" d="M304.6,226.3l-1.1,3.4h0l-4.3-4.4-2.3-1-2.4.3-4.6-.8-2.8,1-2.6-.4-2.8,1.3-1.8.3h-1.5c0-.1-2.2.7-2.2.7h-1.1c0,0-1-.2-1-.2l-3.3-2.3h0l1.1-1.8.3-4.6-2-2.1h-5s-6.8-2.9-6.8-2.9l-2.4-2.2h0l-.6.3h0l1.6-1.5.4-1.9.6-.7,2.3.8h4s1,.5,1,.5h2c0,0,.6-.2.6-.2v-1.3s.4-.7.4-.7l1.4-.7,1.4.5.9-.3h2c0,.1,1.5,1.2,1.5,1.2l1.3-1,2.7.6,1.5,1.7,2.2.6,1.8,3.2h2.6s.3,3.2.3,3.2l1.1.6.6,1-.7,1.4.4.8,2.5,1.3,3.1-1h3.1s1.5.9,1.5.9l.2,1.7.6.9,4.2,3.8Z"/>
    <path id="PS-BTH" d="M286.9,258.7l-1.5.2-3-1.4-1.2-2.4.5-1.8-.3-.9-1.7-1.4-2.9-1.2-2-2.4-1.2-.9-.3-2-2.1-5.6-1.3-1.8h-.4c0,0-.2.3-.2.3l-.2,2.4-.5.6-1,.2-2.9-.5-.8-.5-.4-.9,1.4-1.3v-.7c.1,0-.3-.6-.3-.6l-2-1.1-1.6.5-1-.2-.8-2.5-3.2-1.7h0l4.7-4.6h0l4.6-1.9h5.4c0-.1.2-.4.2-.4h0l3.3,2.3,1,.3h1.1c0,0,2.2-.9,2.2-.9h1.5c0,.1,1.8-.2,1.8-.2l2.8-1.3,2.6.4,2.8-1,4.6.8,2.4-.3,2.3,1,4.3,4.4h0l-4.6,15.2-.3,10.9h-7.1c0-.1-1.7.5-1.7.5h0l-2.8,2.5Z"/>
    <path id="PS-HBN" d="M243.8,241.3l1-1.6,5.1-5.1,5.1-2.4h0l1-1h0l3.2,1.7.8,2.5,1,.2,1.6-.5,2,1.1.4.6v.7c-.1,0-1.5,1.3-1.5,1.3l.4.9.8.5,2.9.5,1-.2.5-.6.2-2.4.2-.3h.4c0,0,1.3,1.8,1.3,1.8l2.1,5.6.3,2,1.2.9,2,2.4,2.9,1.2,1.7,1.4.3.9-.5,1.8,1.2,2.4,3,1.4,1.5-.2h0l-1,.9h0l-3.6,2.6-3.5,1.6-5.8,6.3-1.6,1-7,1.1-1.5-.3-2.3,1.2-10.7-.8-4.5,1.1-4.9.6-2.7-.7-1.7-1.4-1.2-2-.3-2.5,2.1-4.2,2.4-3.1,2.2-4.1.4-2.2-.5-5.1,1-4.7,1.7-2.5Z"/>
    <path id="PS-NGZ" d="M188,248.2l3.9-5.8,4.7,4.4h0l1.5,2.2v2.4s-.9,1.7-.9,1.7h0l-3.1.7h0l-2.1-1.3-1.4-.4-.5-1.5-1.9-2.3Z"/>
    <path id="PS-GZA" d="M184,263.5v-1.6c0,0-.9-2.2-.9-2.2l-2-.6h-1.9c0,0,8.8-10.9,8.8-10.9h0l1.9,2.3.5,1.5,1.4.4,2.1,1.3h0l-10,9.7Z"/>
    <path id="PS-DEB" d="M179.1,270.4l-1-.2-1.4-1.2-3.5-1.3-1.1-.8h0l7.1-7.8h1.9c0,0,2,.7,2,.7l.8,2.2v1.6h0l-.9.8h0l-3.6,4.6h0l-.4,1.4Z"/>
    <path id="PS-KYS" d="M173.7,284.8l-1.6-4.8-4.2-2.3-3.9-2.7h0l8.1-8.1h0l1.1.8,3.5,1.3,1.4,1.2,1,.2h0l-.5,1.7h0l.3,7-1.2,2.2h0l-4,3.4Z"/>
    <path id="PS-RFH" d="M168,289.1l-4.2-13.9.2-.2h0l3.9,2.7,4.2,2.3,1.6,4.8h0l-.8.7h0l-4.9,3.6Z"/>
    <path id="IL-GH" d="M345.9,77.6l-3.5,6.9-1.8,1.9-2.7,4.8-3.4,3.9v-.4c-.1,0-.8-.4-.8-.4l-2.4,1h-1.1c0,.1-.5.6-.5.6l-.9,2.7-2.5.3-3.3,2.8-1.8.8-2.7.2-1.3.8h0l-.4-1.1-2.9-1.5,2.1-2.3,1.2-2.5.5-6.9,1-4.8-.3-2-1.9-4-1.4-1.8-.8.4-.7-.8.9-3.1.5-6.6-.2-3-1.2-2.3v-.6s1.7-1.8,1.7-1.8l1.6-2.7,1.2-.4.3.4.3-6.1,2-5.9-.7-4.8v-2.8c0,0,1.5-4.2,1.5-4.2l-.7-.7-1.4-.2-2.9,1-.8-.2-.9-.8h0l.9-1.7,6.4-3.5,3.6-4.5.7-.3,2.7.2,1.6-.3,2.2-.9,2.6-2.5.8-4.3.9-1.5,7.6-4.5.6.4.2.9-.4,1.6-1.1,1.9-2.2,2.5-.9,2.4-.3,2.3.5,5.2-.2.9-1.2,2.1,3.1,3.3,1.1,3.2v2.5c0,0-.5,1-.5,1l-1.3,1.7.2,1.4,3.2.9,2.3,3.3-.3,3.4-1.7,1.5-.2.5.2.7,1.2,1.4v.9s-1.8.5-1.8.5l-2.2-.6-.7,1,.5,2.2-.3,4,.6,1.8.9,8.5,2.3,3.5v.7s-.9,2.1-.9,2.1Z"/>
    <path id="IL-Z" d="M295.1,138.9l-.7-.6v-.6s-.7-1-.7-1l-.6-1.8v-2.5c.1,0-.2-2.7-.2-2.7l-1.8-3-1.7-1.3-3-.3-6.5,1-2.6-1.1-1.7-1.2-1.9-2-1.5-.8-1.6.4h0l-.6.7h0l-.8-1.2-1.6-.7-.8-1.5-.7-.5-.6.2-.8,1.3-1.5.8-.4,1.3-.7.2-1.2,1.7-1,.2-1.8-.6h-2.1c0-.1-.7-1.2-.7-1.2h-1.1l-.3-.8-1-.5-.2-.7.4-1.9-.9-.6-.3-.6-1-.4-.2-1.7-.9-.8v-.5c0,0,.6-.5.6-.5l2.2.4h.7c0-.1-.2-1-.2-1l-1.6-.4-.4-.5v-1.3c0,0,.8-1.1.8-1.1l1.1-.2,2.3.8,1.8-3.2,2.2-1.3.2-1.2-1-1.3.2-1.7.5-.3,1.1,1.3,1.1-.9.3-.9-.2-.9,1.3-1.3-.5-2.1,1.6-2.5.3-1.4-.2-1.2-1.4-2.8.3-2.9-.7-.5-2-.6-2.1-1.5.4-2.4-1.2-1.1-.5-1.5.3-2.3-.4-1.3h-.8c0,.1-.5-.4-.5-.4h-.4s-.1.4-.1.4h-.5v-.3l.5-1.3,1.2-7.4.6-1.4v-1.9c0,0,1.5-4.7,1.5-4.7l.5-3.3v-1.7c0,0,8.1-.4,8.1-.4l3.8.7,1-.8,1.2-.4h4c0-.1,4.2-.7,4.2-.7l2.1.5,1.8,3.5,1,1.2,1.6,1,.6.2,2.7-1.2,3-.2.8-.4,3.3-3.2,2.4.4,1.8-.7.6-2.5,2.1-.9.5-1.3.2-2.8.7-3.1,1.2-2.6-.4-4.3.9-2.1,1.6-1.9,1-2.3.3-.3.8.6,2.6,3.6h.4c0,.1.4-.3.4-.3h0l.9.8.8.2,2.9-1,1.4.2.7.7-1.5,4.2v2.8c0,0,.6,4.8.6,4.8l-2,5.9-.3,6.1-.3-.4-1.2.4-1.6,2.7-1.8,1.8v.6s1.3,2.3,1.3,2.3l.2,3-.5,6.6-.9,3.1.7.8.8-.4,1.4,1.8,1.9,4,.3,2-1,4.8-.5,6.9-1.2,2.5-2.1,2.3,2.9,1.5.4,1.1h0l-3,1.3-.7.8.2,1.8-1.2.5v.8c0,0-.2.3-.2.3l-1,.3-1.6,1.2v3.6s.3.6.3.6l.8.4.2.8-.5,1.2v1.2c0,0,1,2.3,1,2.3v.3c-.1,0-1.2,0-1.2,0l-.2,1.2-1.4-.3v.8c0,0,.8,1.2.8,1.2l-.2.4-1.1.2-.6.8.5.4h.7s.7,1.6.7,1.6l1,.7-1.6,3.7.2.6.9.4.2.4-.3.6-.9.4.3,1.7-1.3.4.3,2.9-.2.5-.9.4,1,1.7h-.9c0,0-2.5-.8-2.5-.8l-4.5-1.9h-2.5c0-.1-1.6.4-1.6.4l-1.4-.2Z"/>
    <path id="IL-HA" d="M232.6,138.9l.4-.8h-.3c0,0,.6-.9.6-.9l1-5.3-.2-.6-1.3-.2h1.2s.2-.4.2-.4l.2.4h.4l-.3-.2v-.7c0,0,.5,0,.5,0l.3-1.1-.3-.6.4-1v-.8c0,0,.5-1.1.5-1.1l-.3-.2.9-2.4-.3-1,.8-1-.4-.5,1.1-3-.3-.7.5-1.7.2-3.1.7-2.6v-1.5c0,0,.2-.4.2-.4l.4-4.5-.2-.6.5-1.4.7-.2.5-.9.6-3,.8-8.1-.2-.7h.3s-.2-2.4-.2-2.4l1.1-.8h.7s1.2-.7,1.2-.7l.7.7,1.4.7,1.6-.2-.8.4-2-.5,1.4,1.4v-.4c.1,0,.5.3.5.3v-.5c0,0,.1,0,.1,0l.7,1.4h.9c0-.1,0-.4,0-.4l.5.3v.6c0,0,.7-.2.7-.2l-.4-.6h-.4c0,0,2.2-1.4,2.2-1.4l2.6-4.6,1.2-4.8v-1.6s-.3-.6-.3-.6h.8c0-.1.4,1.2.4,1.2l-.3,2.3.5,1.5,1.2,1.1-.4,2.4,2.1,1.5,2,.6.7.5-.3,2.9,1.4,2.8.2,1.2-.3,1.4-1.6,2.5.5,2.1-1.3,1.3.2.9-.3.9-1.1.9-1.1-1.3-.5.3-.2,1.7,1,1.3-.2,1.2-2.2,1.3-1.8,3.2-2.3-.8-1.1.2-.7,1.1v1.3c0,0,.3.5.3.5l1.6.4.2.8h-.7c0,.1-2.2-.3-2.2-.3l-.7.5v.5c0,0,1,.8,1,.8l.2,1.7,1,.4.3.6.9.6-.4,1.9.2.7,1,.5.3.8h1.1l.7,1.1h2.1c0,.1,1.8.7,1.8.7l1-.2,1.2-1.7.7-.2.4-1.3,1.5-.8.8-1.3.6-.2.7.5.8,1.5,1.6.7.8,1.2h0l-1.4,1.6h0l-.4.8-1.3,1.3-2.1,1.5-2.7,1.4-4.3,1.6-.8.6h0l-1,1.9h0l-1,5-.9,2.6h0l-.2,1.6h0l-4.3.9h-.5c0-.1-.8-1.1-.8-1.1l-.7-.4-.9-1.4-.8-.4h-2.6l-3.3-.5-3.1.7-1.7-.6h-2.4Z"/>
    <path id="IL-M" d="M211.5,206.9l1.9-5.5,1.8-2.8.8-1.9,2.1-6.5h0l2.1.7h1.9s.9.5.9.5h2.4l.9-.3,2.2-2.5.7-.4,1.1.2.5.9.4.2,1.1-.7h1.8c0,0,.4-.5.4-.5v-1c-.1,0-1.8-1-1.8-1l-.7-3.9-1.5-1.2-.4-1,.4-3.2.9-1.1,1.1-2.1-.3-1.9.3-2.3-.2-.4-2.6-2.1-4-.6h0l2.3-7.6.8-3.9.6-2h.2s.6-3.6.6-3.6l-.2-.4.4-.3,1-4.6v-1.3s.4-.5.4-.5l.2-1.6h-.2c0-.1.7-1.7.7-1.7h2.4c0,.1,1.7.8,1.7.8l3.1-.7,3.3.5h2.6l.8.4.9,1.4.7.4.8,1h.5c0,.1,4.3-.8,4.3-.8h0l-.2,1.6h0l-.8.7-2.8,1.3-1.9,3.1v3.4c-.1,0,.4,3.6.4,3.6l-.4.9h0l-.9.7h0l-1.5,2.2-2,4.4-.2,1.5v1.5c0,0,2.1,3.4,2.1,3.4l.8,3.6v1.6c.1,0-1.1,3-1.1,3h0v1h-.1l.3.8,1.1,1.2h0l1.2,2.4h0l.4,1.5-.3,1.9-.9,1.9.2,1.5-.5.4.5,1.3-1.5,3.2.3,2.9,1.7,2.2,2.5,2,.5,2-1,3-5.4,1h0c0,.1-5.4,0-5.4,0l-.8.6-1,2.8-1.1.7-5.2,1.3-2.2,2.2-.5,1.2h0l-.6.2-2.3,2.9-1,.4-1-1.1-.8-2.4-.8-1.3-2.7-1.6-1,1h-2s0,.4,0,.4l.8.4.8,1.5-.3.3h-1.2c0,0,0,.7,0,.7l-.3.3h-1.3c0,.1-.7-.4-.7-.4l-1.9-.2-.5-.4-.2-.7,2.1-1.7-.5-1-1.1-.6-.3-1.1.7-.8,1.8.4.9-.3.2-2.3-.2-.9,1-1.6-.6-.6-1,.4h-.8c0,0-.7-.9-.7-.9l-1.7.5Z"/>
    <path id="IL-TA" d="M218.1,190.2l1.4-5.2.4-.3v-.4c-.1,0,.7-.5.7-.5l.7-1.4.8-2.7-.2-.8h.4c0-.1.5-1.2.5-1.2v-.5c-.1,0,.2.2.2.2l.9-2.7.7-3.2.3-.2-.2-1.2h.4c0-.1.9-3.5.9-3.5h0l4,.6,2.6,2.1.2.4-.3,2.3.3,1.9-1.1,2.1-.9,1.1-.4,3.2.4,1,1.5,1.2.7,3.9,1.6,1v1c.1,0-.3.4-.3.4h-1.8c0,0-1.1.7-1.1.7l-.4-.2-.5-.9-1.1-.2-.7.4-2.2,2.5-.9.3h-2.4l-.9-.5h-1.9s-2.1-.6-2.1-.6Z"/>
    <path id="IL-D" d="M298.5,258v6.5s-.4,2.5-.4,2.5l-1.8,5.1-6.5,11.9-.6,2.5,1.2,2.7,4.8,6.5.9,1.8.5,2.6v2c.1,0-1.3,5.5-1.3,5.5l-4.1,6.4-.4,2.6.3,2,.9,2.4v2.6s-1.9,1.7-1.9,1.7l-4.1,2.7-2.9,6.4v2.3s.5,2.1.5,2.1l-.6,2.5-2.1.7-1.6,2-1,2.6v5.1s-1.5,3.6-1.5,3.6l-2.7,4.8-.6,2.8-1.6,1.5-3.2,6.2-2.7,13.4-.7,2.2-1.5,2.1-.4,1.7,3.7,7,.6,1.9-.3,1.5-2.4,2.7-.7,2.1.4,2.5-2.1,4.6,3.4,15-8.4,12-2.3,8.9.3,9.7-3.2,6.4-.5,2.3.3,1.8-.3,2.5-1.8,7.7.3,9.2-1.4,1.7-1.9,1.4-1.6,1.9-2.2,5.3-1.2-.3-.5,1.1-.6.3-.5,1.2-1.5,1.5v.5l-.9,1.2-.9.8-2.7-3.2-1.4-2.7-.5-2.1-.4-3.6,1-3.4.5-3.4-.5-2.3-1.9-3.4v-6c0,0-11-31-11-31l.2-1.9-12.8-36-2.2-8.3-7.5-4.9-.3-3.8,2.2-6.3-4.7-5.5.3-6.8-3.1-13-9.5-20-6.2-18.1-8.9-29.6h0l4.9-3.6h0l4.8-4.2h0l1.2-2.2-.3-7h0l.9-3.2h0l3.6-4.6h0l10.8-10.5,3.1-.8h0l1-1.7v-2.4s-1.5-2.2-1.5-2.2h0l-4.7-4.4,2.6-4.2.7-.6-.3-.6.4-.4-.3.5h.5c0,.1,1.9-3.3,1.9-3.3l1-1.1.7-1.5h.3s3.5-6,3.5-6l5.3-10.9-.5-1,.3-1.2-.2,1.3.6.7-.2-.4v-1.2c0,0,1.2.1,1.2.1l.3-.4v-1.3c0,0,.4-.1.4-.1l1.6-3.8h0l1.7-.5.7.8h.8c0,0,1-.3,1-.3l.6.6-1,1.6.2.9-.2,2.3-.9.3-1.8-.4-.7.8.3,1.1,1.1.6.5,1-2.1,1.7.2.7.5.4,1.9.2.7.5h1.3c0-.1.3-.5.3-.5v-.8s1.2,0,1.2,0l.3-.3-.8-1.5-.8-.4v-.4c0,0,1.9,0,1.9,0l1-1,2.7,1.6.8,1.3.8,2.4,1,1.1,1-.4,2.3-2.9.6-.2h0l1.5,1.6,1.2,2.9.4.2h1.5c0-.1.9.7.9.7l-.6,1.6.6,2.3-.5,1.9.3,3.8-.2,1.9.3.6,4.7,2.8,1.1,1.3,2,.6,2.4,1.8h0l-1.7,2.5-1,4.7.5,5.1-.4,2.2-2.2,4.1-2.4,3.1-2.1,4.2.3,2.5,1.2,2,1.7,1.4,2.7.7,4.9-.6,4.5-1.1,10.7.8,2.3-1.2,1.5.3,7-1.1,1.6-1,5.8-6.3,3.5-1.6,3.6-2.6h0l3.8-3.4h0l1.7-.6h7.1c0,.1,0,2.3,0,2.3Z"/>
    <path id="IL-JM" d="M270.8,224.3l-.2.2h-5.4c0,.1-4.6,2-4.6,2h0l-5.7,5.6h0l-5.1,2.4-5.1,5.1-1,1.6h0l-2.4-1.8-2-.6-1.1-1.3-4.7-2.8-.3-.6.2-1.9-.3-3.8.5-1.9-.6-2.3.6-1.6-.9-.8h-1.5c0,.1-.4,0-.4,0l-1.2-2.9-1.5-1.6h0l.5-1.2,2.2-2.2,5.2-1.3,1.1-.7,1-2.8.8-.6,5.4.2h0l-1.2,1.8h0l.9,3.4,2.1.9,3,.4,2.8-1,2-2.2h0l2.1-1.2h0l2.4,2.2,6.8,2.9h5s2,2,2,2l-.3,4.6-1.1,1.8Z"/>
  </g>
</svg>