<?xml version="1.0" encoding="UTF-8"?>
<svg id="Layer_1" xmlns="http://www.w3.org/2000/svg" xmlns:amcharts="http://amcharts.com/ammap" version="1.1" viewBox="0 0 512 512">
  <!-- Generator: Adobe Illustrator 29.1.0, SVG Export Plug-In . SVG Version: 2.1.0 Build 142)  -->
  <g id="_x3C_defs">
    <amcharts:ammap bottomLatitude="49.1601217" leftLongitude="-2.2548011" projection="mercator" rightLongitude="-2.0104646" topLatitude="49.2621314"/>
  </g>
  <path id="JE-JE" d="M215.6,99.5l-4.8,8.1-12.4-6.4,2.2,11.1-12.4-1.8-18.3,21.9,1,7.8-12.3-5-5.4,12.2-8-9.7-5.1,5.7-10.7-5.6-.2,7.6-5.5.9-.4-5.1-7.1,6-13.4-16.6-5.5,2.2-3.4-9-13.1-.4-19.7-13.4v-8.2s-5.5,5.8-5.5,5.8l3.6,8.8-6.3,2.3-32.1-8-15.5,28.5,11.3,21.8-2.3,9,6.4-4.1,11.7,10.6,28.7,59.5,8.2,44-6.7,33.8-9,19.7-10.5,1.9,3.7,8.7-23.5,7.3,13.2,10.8,6.5-5.2,2.8,9,14.1,8.2,19.4-2,9.8-8.5,8.2,3.7,3.5-8.2,7,3.4v-8.9c0,0,8-4.1,8-4.1l-3.7-5.6,10.2-3.1,13.3,5.5,11.5,13.8,1.4,7.9-8.2,2.8,5.8,12.7-4.2,11.4,21.1-12,20.7,21.4,8.4-21.1-1.9-10.5-10.6-8.9,3.5-11.9-4-5.2,6.8-10.3-4.1,4-3-6.1,6.2,1.5-4.4-4.2,3.2-9.9,21.2-14.4,33.5-1.8,24.6,8.1,24.6,21.3-4.6,21,3.7-10.6,4.7,9.5-8.4,4,4.6,9.4-2.6-6.7,8.1-1.5.6,7.8,3.6-14.9,5.6-2.9-6,11.1,8-7.4-3.4,12.1-4.5-2.4,2.9,7.5-7.6-1.4,4.7,5.5-6.9.8v-4.7c.1,0-1.4,4.3-1.4,4.3l4.9,2.7-6.8,1.3,10.3,15.7,10.5-5.1,1.3-19.5,15.7-4.3,14.8,6.4,28.4,37.8,15.2-.3,4-11.2,14,.4,18-8.4,27.8,9.4,15.5,12.1-2.7-7,10.6-7.2-10.1-46,1.2-32.8,7.1-16.1,17.2-7.7-3.3,9.4,10.9-15.6-10.4-7.3,2.3-14-8.1-6.3,4.2-5.6-6.3.2-6.4-8.4-1.2-11.5,12-15.3,8.9-3.3,18.6,7.1-25.6-10.8-4.2-23.1-13.3.7-7.9-7.9-2,3.9-17.7-5.8,2.8-13.4-15-1-1.7-10.1-11.4,13.9-19.8,2-7,7.6-21.1-6-9-31.6-5.3,1.8-7.8-8-1-9.6-11.3-1-4-5.5-8.3,4.5-1.7,11.1-10.6,1.7-5.4-6.7-10,6.5-8.5-3.9-.9-9.1-32.5,2.7-16.7-10.6-14.2-17.7Z"/>
</svg>