<?xml version="1.0" encoding="UTF-8"?>
<svg id="Layer_1" xmlns="http://www.w3.org/2000/svg" xmlns:amcharts="http://amcharts.com/ammap" version="1.1" viewBox="0 0 512 512">
  <!-- Generator: Adobe Illustrator 29.1.0, SVG Export Plug-In . SVG Version: 2.1.0 Build 142)  -->
  <g id="_x3C_defs">
    <amcharts:ammap bottomLatitude="-55.621433" leftLongitude="-117.150141" projection="mercator" rightLongitude="-34.713341" topLatitude="32.736396"/>
  </g>
  <g>
    <path id="AR" d="M305.7,494.3l-4.5.4-2.4-2.9-2.9-.2h-5.1v-18l1.8,3.7,2.4,6,6.2,4.9,6.7,2.1-2.2,4.1ZM308.3,286l2.8,3.7,1.9-4.1,5.4.2.8,1.1,8.8,8.4,3.9.8,5.8,3.8,4.9,2,.7,2.3-4.7,8,4.8,1.4,5.4.8,3.8-.9,4.3-4.1.8-4.7,2.4-1,2.4,3v4.2c-.1,0-4.1,2.9-4.1,2.9l-3.2,2.2-5.4,5.2-6.4,7.4-1.2,4.4-1.3,5.7v5.6c0,0-1,1.3-1,1.3l-.4,3.7-.3,3,6.1,5-.6,4,3,2.6-.2,2.9-4.6,7.7-7.1,3.2-9.6,1.3-5.2-.6,1,3.7-1,4.6.9,3.1-2.9,2.2-4.9.9-4.6-2.3-1.8,1.7.7,6.3,3.2,1.9,2.6-2,1.4,3.3-4.4,2-3.8,4-.7,6.7-1.1,3.6h-4.5s-3.7,3.5-3.7,3.5l-1.4,5.1,4.7,5.1,4.6,1.4-1.6,6.3-5.6,4-3.1,8.6-4.4,2.9-2,3.5,1.5,7.9,3.2,4.5-2-.4-4.4-1.2-11.5-1-2-4.5v-5.7c0,0-3.1.5-3.1.5l-1.7-2.7-.4-7.8,3.7-3.2,1.5-4.6-.6-3.6,2.5-6,1.7-9.1-.5-4,2.1-1.3-.5-2.5-2.2-1.3,1.6-2.8-2.2-2.5-1.1-7.5,1.9-1.3-.8-7.7,1.1-6.4,1.3-5.5,2.9-2.2-1.4-5.9v-5.5s3.6-3.8,3.6-3.8v-4.9c-.1,0,2.6-5.6,2.6-5.6v-5.3s-1.2-1-1.2-1l-2.2-9.7,2.9-5.7-.4-5.3,1.7-4.9,3.1-5,3.4-3.3-1.4-2.1,1-1.7-.2-8.7,5.2-2.6,1.6-5.4-.6-1.3,4-4.6,6.1,1.2Z"/>
    <path id="BO" d="M318.4,285.7l-5.4-.2-1.9,4.1-2.8-3.7-6.2-1.2-4,4.6-3.5.7-1.9-7.1-2.6-5.7,1.5-4.9-2.5-2.1-.6-3.6-2.3-3.4,3-5.3-2.1-4.2,1.1-1.7-.9-1.8,1.9-2.4v-4.2c.1,0,.3-3.4.3-3.4l1-1.6-4.1-7.8,3.6.4h2.4c0-.1,1.1-1.6,1.1-1.6l4.2-2,2.5-1.8,6.2-.8-.5,3.6.6,1.9-.4,3.2,5.2,4.3,5.3.8,1.9,1.8,3.2,1,2,1.4h3c0,0,2.8,1.4,2.8,1.4l.2,2.8.9,1.4v2.1c0,0-1.3,0-1.3,0l1.8,5.7,9.1.2-.7,2.9.5,2,2.6,1.4,1.1,3.1-.9,3.9-1.3,2.2.5,2.9-1.5,1v-1.5c0,0-4.5-2.6-4.5-2.6h-4.4c0,0-8.3,1.4-8.3,1.4l-2.3,4.4v2.7c-.1,0-2,6.1-2,6.1l-.8-1.1Z"/>
    <path id="BR" d="M343.3,329l6.4-7.4,5.4-5.2,3.2-2.2,4-2.9v-4.2c.1,0-2.3-3-2.3-3l-2.4,1,.9-3,.6-3.1v-2.9l-1.7-.9-1.8.8-1.8-.2-.6-2-.4-4.7-.9-1.5-3.2-1.4-1.9,1-5-1,.3-6.9-1.4-2.8,1.5-1-.5-2.9,1.3-2.2.9-3.9-1.1-3.1-2.6-1.4-.5-2,.7-2.9-9.1-.2-1.8-5.7h1.4c0,0,0-2.2,0-2.2l-.9-1.4-.2-2.8-2.8-1.4h-3c0,0-2-1.4-2-1.4l-3.2-1-1.9-1.8-5.3-.8-5.2-4.3.4-3.2-.6-1.9.5-3.6-6.2.8-2.5,1.8-4.2,2-1.1,1.5h-2.4c0,.1-3.6-.3-3.6-.3l-2.7.8-2.2-.6.3-7.3-3.9,2.8h-4.2c0-.1-1.8-2.7-1.8-2.7l-3.2-.3,1-2.1-2.7-2.9-2-4.3,1.3-.9v-2l2.9-1.4-.5-2.6,1.2-1.7.4-2.2,5.4-3.2,3.9-.9.6-.7,4.3.2,2.1-13v-2.1c.1,0-.6-2.7-.6-2.7l-2.1-1.7v-3.4s2.7-.8,2.7-.8l1,.5.2-1.8-2.8-.5v-3c0,0,9.2.1,9.2.1l1.6-1.6,1.3,1.5.9,2.8.9-.6,2.6,2.5,3.7-.3.9-1.5,3.5-1.1,2-.8.5-2,3.4-1.4-.3-1-4-.4-.7-3,.2-3.2-2.1-1.2.9-.4,3.5.6,3.8,1.2,1.4-1.1,3.4-.7,5.3-1.8,1.8-1.8-.6-1.3,2.5-.2,1.1,1.1-.6,2.1,1.6.7,1.1,2.2-1.3,1.7-.8,4,1.2,2.4.3,2.2,2.9,2.2,2.3.2.5-.9,1.5-.2,2.2-.8,1.5-1.3,2.6.4,1.2-.2,2.6.4.4-1-.8-.9.5-1.4,1.9.4,2.3-.5,2.7,1,2.1,1,1.5-1.3,1.1.2.7,1.3,2.3-.3,1.8-1.8,1.5-3.5,2.8-4.3,1.6-.2,1.2,2.6,2.7,8.3,2.6.8v3.3c.1,0-3.5,3.9-3.5,3.9l1.5,1.4,8.4.7.2,4.7,3.6-3.1,6,1.7,7.9,2.9,2.3,2.8-.8,2.6,5.5-1.5,9.3,2.5,7.1-.2,7,3.9,6.1,5.3,3.7,1.4,4.1.2,1.7,1.5,1.6,6.1.8,2.9-1.9,7.9-2.4,3.1-6.7,6.7-3,5.5-3.5,4.2h-1.2c0,.1-1.3,3.7-1.3,3.7l.3,9.2-1.3,7.6-.5,3.3-1.5,2-.9,6.7-4.8,6.6-.8,5.3-3.9,2.2-1.1,3.1h-5.2s-7.5,2-7.5,2l-3.4,2.3-5.3,1.5-5.6,4.2-4,5.2-.7,3.9.8,2.9-.9,5.4-1.1,2.6-3.3,3-5.3,9.7-4.2,4.4-3.2,2.6-2.2,5.4-3.2,3.2-1.3-3.2,2.1-2.7-2.8-3.8-3.7-3.1-4.9-3.5-1.8.2-4.8-4.3-3.1.6Z"/>
    <path id="BS" d="M248.3,62.6l-1.2.3-1.2-3-1.8-1.5,1-3.3,1.4.2,1.7,4.3v3ZM247,47.8l-5.2.9-.3-2,2.2-.4,3.1.2.2,1.4ZM250.9,47.8l-.8,3.8-.9-.7v-2.8c0,0-2.1-2.1-2.1-2.1v-.6s3.8,2.4,3.8,2.4Z"/>
    <path id="BZ" d="M193,92.8v-.7s.5-.2.5-.2l.9.6,1.7-3h.9c0,0,0,.7,0,.7h.9s0,1.4,0,1.4l-.8,2.2.4.8-.5,1.8.3.5-.5,2.5-.9,1.3-.9.2-.9,1.7h-1.4l.4-5.6v-3.9Z"/>
    <path id="CL" d="M290.8,473.5v18h5.1l2.9.2-1.6,3.4-4.1,2.6-2.3-.3-2.8-.7-3.5-2.5-5-1.2-6-4.6-4.9-4.4-6.6-8.9,3.9,1.7,6.7,5.3,6.3,2.9,2.5-3.7,1.5-5.4,4.4-3.2,3.4.9ZM292.8,283l1.9,7.1,3.4-.7.6,1.3-1.6,5.4-5.2,2.6.2,8.7-1,1.7,1.4,2.1-3.4,3.3-3.1,5-1.7,4.9.5,5.3-2.9,5.7,2.2,9.7,1.2,1v5.3s-2.7,5.6-2.7,5.6v4.9c.1,0-3.5,3.8-3.5,3.8v5.5s1.5,5.9,1.5,5.9l-2.9,2.2-1.3,5.5-1.1,6.4.8,7.7-1.9,1.3,1.1,7.5,2.2,2.5-1.6,2.8,2.2,1.3.5,2.5-2.1,1.3.5,4-1.7,9.1-2.5,6,.6,3.6-1.5,4.6-3.7,3.2.4,7.8,1.7,2.7,3.2-.5v5.7c0,0,1.9,4.5,1.9,4.5l11.5,1,4.4,1.2h-4.2c0,0-2.3,1.9-2.3,1.9l-4.3,2.8-.8,7.5-2,.2-5.4-2.6-5.5-5.5h0l-5.9-4.5-1.5-4.9,1.3-4.5-2.4-5-.6-12.5,2-6.9,5-5.4-7.2-2,4.5-6.1,1.6-11.2,5.3,2.3,2.5-13.6-3.2-1.7-1.5,8.1-3-.9,1.5-9.2,1.6-11.6,2.2-4.2-1.4-5.9-.4-6.8,2-.2,2.9-9.5,3.3-9.2,2-8.5-1.1-8.4,1.4-4.5-.6-6.7,2.8-6.6.9-10.3,1.5-10.8,1.5-11.5-.3-8.3-1-7.1,2.4-1.3,1.3-2.6,2.3,3.4.6,3.6,2.5,2.1-1.5,4.9,2.4,5.6Z"/>
    <path id="CO" d="M258.7,179.3l-2-1.1-2.3-1.6-1.4.7-4-.7-1.2-2h-.9c0,0-4.8-2.6-4.8-2.6l-.6-1.5,1.8-.3-.2-2.4,1.1-1.7,2.4-.3,2-3,1.8-2.5-1.8-1.1.9-2.8-1.1-4.4,1-1.2-.7-4-1.9-2.6.6-2.3,1.5.3.9-1.4-1.1-2.8.6-.7,2.4.2,3.6-3.4,2-.5v-1.6c0,0,.9-4.1.9-4.1l2.7-2.2h3c0,0,.4-1.1.4-1.1l3.7.4,3.8-2.4,1.9-1.1,2.3-2.3,1.7.3,1.2,1.3-.9,1.6-3.1.8-1.2,2.4-1.9,1.4-1.4,1.8-.6,3.4-1.3,2.8,2.4.3.6,2.2,1.1,1.1.4,1.9-.6,1.8.2,1,1.2.4,1.1,1.7,6.1-.5,2.8.6,3.4,4.1,1.9-.5,3.4.3,2.7-.5,1.7.8-.9,2.6-1.1,1.6-.4,3.4,1,3.1,1.4,1.4.2,1.1-2.4,2.4,1.7,1,1.3,1.7,1.4,4.7-.9.6-.9-2.8-1.3-1.5-1.6,1.6h-9.3c0-.1,0,2.9,0,2.9l2.8.5-.2,1.8-1-.5-2.7.8v3.4s2.1,1.7,2.1,1.7l.7,2.7v2.1c-.1,0-2.3,13-2.3,13l-2.4-2.5h-1.4c0-.1,3.1-4.9,3.1-4.9l-3.7-2.2-2.9.4-1.7-.8-2.6,1.3-3.5-.6-2.8-5-2.2-1.2-1.5-2.2-3.2-2.2-1.3.5Z"/>
    <path id="CR" d="M222.4,139.5l-2.6-1.1-1-1,.5-.8-.2-1.1-1.3-1.2-1.9-.9-1.7-.6-.3-1.4-1.3-.9.3,1.4-1,1.1-1.1-1.3-1.5-.5-.6-1v-1.5s.7-1.5.7-1.5l-1.3-.7,1.1-.9.7-.6,3.1,1.3,1.1-.6,1.5.4.8,1,1.4.3,1.2-1,1.2,2.6,1.8,1.9,2.2,2.1-1.9.4v1.9s1,.7,1,.7l-.7.6.2.9-.4,1-.3,1Z"/>
    <path id="CU" d="M225.8,65.6l4.1.4h3.7c0,0,4.5,1.8,4.5,1.8l1.9,1.9,4.5-.6,1.7,1.2,4,3.2,3,2.3h1.6c0,0,2.9,1,2.9,1l-.4,1.4,3.5.2,3.6,2.1-.6,1.2-3.2.6-3.2.3-3.3-.4-6.8.5,3.2-2.8-1.9-1.3-3.1-.3-1.7-1.5-1.1-2.9-2.7.2-4.4-1.4-1.4-1.1-6.2-.8-1.7-1,1.8-1.3-4.7-.3-3.4,2.7h-2c0,0-.7,1.3-.7,1.3l-2.3.6-2-.5,2.5-1.6,1-1.8,2.2-1.2,2.4-1,3.6-.5,1.2-.6Z"/>
    <path id="DO" d="M276.1,83.3l.6-.9h3.7s2.8,1.3,2.8,1.3h1.3c0-.1.9,1.7.9,1.7h2.6c0-.1-.2,1.4-.2,1.4l2.1.2,2.3,1.8-1.8,2-2.3-1.1-2.2.2-1.6-.2-.9.9-1.8.3-.7-1.2-1.6.7-1.9,3.4-1.2-.8-.2-1.4v-1.4c.1,0-1.1-1.5-1.1-1.5l1.2-.9.4-1.9-.4-2.7Z"/>
    <path id="EC" d="M235.1,194.8l2.5-3.5-1-2.1-1.8,2.2-2.9-2.1,1-1.3-.8-4.3,1.7-.7.9-2.9,1.8-3.1-.3-1.9,2.6-1,3.3-1.9,4.8,2.7h.9c0,0,1.2,2,1.2,2l4,.7,1.4-.7,2.3,1.6,2,1.1.7,3.6-1.5,3.1-5.2,5-5.7,1.9-2.9,4.1-.9,3.2-2.7,2-2-2.4-1.9-.5-2,.4v-1.7c-.1,0,1.2-1.1,1.2-1.1l-.6-2Z"/>
    <path id="FK" d="M326.3,467.4l5.7-4.6,4,1.9,2.9-3,3.8,3.4-1.4,2.7-6.4,2.3-2.1-2.7-4,3.5-2.4-3.5Z"/>
    <path id="GF" d="M367.5,166.8l-1.8,1.8-2.3.3-.6-1.3-1.1-.2-1.5,1.3-2.1-1,1.2-2,.4-2.2.8-2-1.9-2.8-.4-3.2,2.5-4.1,1.6.5,3.5,1.1,5.1,4,.8,1.9-2.8,4.3-1.4,3.5Z"/>
    <path id="GT" d="M188.4,112.9l-2.4-.9h-3c0,0-2.2-1.1-2.2-1.1l-2.6-2v-1.4c.1,0,.7-1.2.7-1.2l-.7-.9,2.3-4h6.1s.1-1.7.1-1.7l-.8-.3-.5-1.1-1.8-1.1-1.8-1.7h2.2v-2.8h8.9c0,0,0,4,0,4l-.4,5.6h1.4l1.5.9.4-.7,1.4.6-2.2,1.9-2.3,1.4-.3.9.4,1-1,1.2-1.1.3.3.6-.9.5-1.6,1.2-.2.7Z"/>
    <path id="GY" d="M333.1,138.8l3.1,1.8,2.9,3.1v2.5c.1,0,1.9.1,1.9.1l2.6,2.3,1.9,1.7-.8,4.3-2.9,1.2.3,1.1-.9,2.4,2.1,3.4h1.5s.6,2.7.6,2.7l2.9,4.1-1.2.2-2.6-.4-1.5,1.3-2.2.8-1.5.2-.5.9-2.3-.2-2.9-2.2-.3-2.2-1.2-2.4.8-4,1.3-1.7-1.1-2.2-1.6-.7.6-2.1-1.1-1.1-2.5.2-3.2-3.6,1.3-1.3v-2.2c-.1,0,2.8-.8,2.8-.8l1.2-.9-1.6-1.8.4-1.8,3.8-2.8Z"/>
    <path id="HN" d="M201.7,116.5l-.8-1.5-1.5-.4.3-2-.6-.5-1-.3-2.1.6-.2-.7-1.4-.8-1-1-1.4-.4,1-1.2-.4-1,.3-.9,2.3-1.4,2.2-1.9.5.2,1.1-.9h1.4c0,0,.4.3.4.3l.7-.2,2.2.4h2.2c0-.1,1.5-.7,1.5-.7l.6-.5,1.5.3,1.1.3h1.2c0-.1,1-.5,1-.5l2.2.7h.8c0,.1,1.4,1,1.4,1l1.4,1.1,1.7.8,1.3,1.3h-1.6c0-.1-.7.6-.7.6l-1.7.6h-1.2l-1.1.6-1-.2-.8-.7h-.5c0,.1-.6,1.3-.6,1.3h-.5c0,0,0,1,0,1l-1.7,1.3-.9.6-.5.6-1.4-1-1,1.3h-1s-1.1,0-1.1,0v2.4c.1,0-.6,0-.6,0l-.6,1.1-1.5.2Z"/>
    <path id="HT" d="M269.1,82.3l2.9.2,4.1.8.4,2.7-.4,1.9-1.2.9,1.2,1.5v1.4c-.1,0-3.3-.9-3.3-.9l-2.2.3-2.9-.4-2.2.9-2.6-1.6.4-1.6,4.4.7,3.6.4,1.7-1.1-2.2-2.2v-1.9s-3-.8-3-.8l1.1-1.4Z"/>
    <path id="JM" d="M248.2,89.4l3.2.4,2.5,1.2.8,1.4h-3.4c0,0-1.4.9-1.4.9l-2.7-.8-2.7-1.8.6-1.1,2-.3,1.1.2Z"/>
    <path id="MX" d="M154.8,51.6l-1.9,4.6-.8,3.8-.4,6.9-.5,2.5.8,2.8,1.5,2.5,1,3.9,3.2,3.8,1.1,2.9,1.9,2.5,5.1,1.3,2,2.1,4.2-1.4,3.6-.5,3.6-.9,3-.9,3-2,1.1-2.9.4-4.3.8-1.5,3.2-1.3,5.1-1.2,4.2.2,2.9-.4,1.2,1.1-.2,2.4-2.6,3-1.1,3.1.9.9-.7,2.2-1.2,3.9-1.2-1.3h-1c0,0-.9.2-.9.2l-1.7,3-.9-.6-.6.2v.7s-4.4,0-4.4,0h-4.5v2.8h-2.2l1.8,1.7,1.8,1.1.5,1.1.8.3v1.7c-.1,0-6.2,0-6.2,0l-2.3,4,.7.9-.5,1.2v1.4c-.1,0-5.5-5.3-5.5-5.3l-2.5-1.6-3.9-1.3-2.7.4-3.8,1.9-2.4.5-3.4-1.3-3.6-1-4.5-2.3-3.6-.7-5.4-2.3-4-2.4-1.2-1.3-2.7-.3-4.9-1.6-2-2.3-5.1-2.8-2.4-3.2-1.1-2.5,1.6-.5-.5-1.4,1.1-1.3v-1.8s-1.6-2.3-1.6-2.3l-.4-2-1.6-2.6-4.2-5.1-4.8-4.1-2.3-3.2-4.1-2.1-.9-1.3.7-3.3-2.4-1.2-2.8-2.6-1.2-3.7-2.6-.4-2.8-2.8-2.2-2.6-.2-1.7-2.6-4.1-1.7-4.2v-2.1c0,0-3.4-2.2-3.4-2.2l-1.6.2-2.7-1.5-.8,2.3.8,2.7.5,4.1,1.7,2.3,3.5,3.8.8,1.3.7.4.6,1.9h.8c0,0,1,3.4,1,3.4l1.4,1.4,1,1.9,3,2.7,1.6,4.9,1.4,2.3,1.3,2.4.3,2.8,2.3.2,1.9,2.4,1.7,2.3v.9c-.1,0-2.1,1.9-2.1,1.9h-.9s-1.3-3.2-1.3-3.2l-3.1-2.9-3.4-2.5-2.4-1.3.2-3.8-.7-2.9-2.3-1.6-3.3-2.4-.6.7-1.2-1.4-2.9-1.3-2.8-3.1.3-.4,2,.3,1.8-2,.2-2.4-3.7-3.9-2.8-1.5-1.8-3.4-1.8-3.6-2.2-4.4-1.9-5,5.4-.4,6.1-.6-.4,1.1,7.2,2.7,10.9,3.9h9.5s3.8,0,3.8,0v-2.3h8.3l1.7,2,2.4,1.8,2.8,2.4,1.6,2.9,1.2,3,2.5,1.7,4,1.6,3-4.3h3.9c0-.1,3.4,2.1,3.4,2.1l2.4,3.7,1.7,3.2,2.8,3.1,1.1,3.7,1.3,2.5,3.7,1.6,3.4,1.2,1.9-.2Z"/>
    <path id="NI" d="M209.3,125.8l-1.7-1.5-2.2-2-1.1-1.6-2-1.5-2.4-2.2.5-.7.8.7.4-.4,1.5-.2.6-1.1h.7s-.1-2.4-.1-2.4h1.1c0-.1,1,0,1,0l1-1.3,1.4,1,.5-.6.9-.6,1.7-1.3v-1c0,0,.5,0,.5,0l.6-1.2h.5c0-.1.8.6.8.6l1,.2,1.1-.6h1.2l1.7-.6.7-.7h1.6c0,.1-.4.6-.4.6l-.2,1.1.5,1.8-1.1,1.7-.5,2-.2,2.1.3,1.2v2.2c.1,0-.6.5-.6.5l-.4,2.1.3,1.3-1,1.2.2,1.3.7.8-1.2,1-1.4-.3-.8-1-1.5-.4-1.1.6-3.1-1.3-.7.6Z"/>
    <path id="PA" d="M246.7,144.3l-1.6-1.4-1-2.6,1.2-1.3-1.2-.3-.9-1.6-2.4-1.3-2.1.3-1,1.7-1.9,1.2-1,.2-.5,1,2.3,2.6-1.3.6-.7.7-2.2.2-.8-2.9-.6.8-1.6-.3-1-1.9-2-.3-1.2-.6h-2l-.2,1-.5-.7.3-1,.4-1-.2-.9.7-.6-1-.7v-1.9s1.8-.4,1.8-.4l1.7,1.7v1c0,0,1.8.2,1.8.2l.5-.4,1.3,1.2,2.3-.4,2-1.2,2.9-1,1.6-1.4,2.6.3-.2.5,2.7.2,2.1.8,1.5,1.4,1.8,1.3-.6.7,1.1,2.8-.9,1.4-1.5-.3-.6,2.3Z"/>
    <path id="PE" d="M286.2,263.3l-1.3,2.6-2.4,1.3-4.8-2.9-.4-2-9.4-5-8.6-5.4-3.7-3-2-4,.8-1.4-4-6.4-4.7-8.9-4.5-9.6-2-2.2-1.5-3.5-3.7-3.1-3.4-1.9,1.5-2.1-2.3-4.5,1.5-3.3,3.8-3,.6,2-1.4,1.1v1.7c.1,0,2.1-.4,2.1-.4l1.9.5,2,2.4,2.7-2,.9-3.2,2.9-4.1,5.7-1.9,5.2-5,1.5-3.1-.7-3.6,1.3-.5,3.2,2.2,1.5,2.2,2.2,1.2,2.8,5,3.5.6,2.6-1.3,1.7.8,2.9-.4,3.7,2.2-3.1,4.8h1.4c0,.1,2.4,2.6,2.4,2.6l-4.3-.2-.6.7-3.9.9-5.4,3.2-.4,2.2-1.2,1.7.5,2.6-2.9,1.4v2l-1.3.9,2,4.3,2.7,2.9-1,2.1,3.2.3,1.8,2.6h4.2c0,.1,3.9-2.7,3.9-2.7l-.3,7.3,2.2.6,2.7-.8,4.1,7.8-1,1.6-.2,3.4v4.2c-.1,0-2,2.4-2,2.4l.9,1.8-1.1,1.7,2.1,4.2-3,5.3Z"/>
    <path id="PR" d="M302,89.3l2.4.4.9,1-1.2,1.3h-3.6s-2.8.1-2.8.1l-.3-2.1.7-.7h3.9Z"/>
    <path id="PY" d="M319.2,286.8l1.9-6.1v-2.7c.1,0,2.4-4.4,2.4-4.4l8.3-1.5h4.4c0,0,4.5,2.7,4.5,2.7v1.5c0,0,1.5,2.8,1.5,2.8l-.3,6.9,5,1,1.9-1,3.2,1.4.9,1.5.4,4.7.6,2,1.8.2,1.8-.8,1.7.9v2.9l-.6,3.1-.9,3-.8,4.7-4.3,4.1-3.8.9-5.4-.8-4.8-1.4,4.7-8-.7-2.3-4.9-2-5.8-3.8-3.9-.8-8.8-8.4Z"/>
    <path id="SR" d="M345.6,150.3l5.7,1,.5-.9,3.9-.4,5.1,1.3-2.5,4.1.4,3.2,1.9,2.8-.9,2-.4,2.2-1.2,2-2.7-1-2.3.5-1.9-.4-.5,1.4.8.9-.4,1-2.6-.4-2.9-4.1-.6-2.7h-1.5s-2.1-3.5-2.1-3.5l.9-2.4-.3-1.1,2.9-1.2.8-4.3Z"/>
    <path id="SV" d="M199.4,114.6l-.5,1.1h-2.8c0,0-1.7-.5-1.7-.5l-2-1-2.7-.3-1.3-1.1.2-.7,1.6-1.2.9-.5-.3-.6,1.1-.3,1.4.4,1,1,1.4.8.2.7,2.1-.6,1,.3.6.5-.3,2Z"/>
    <path id="TT" d="M324,127.3l2.7-.6,1,.2-.2,3.6-4,.5-.9-.4,1.4-1.3v-1.9Z"/>
    <path id="UY" d="M343.3,329l3.1-.6,4.8,4.3,1.8-.2,4.9,3.5,3.7,3.1,2.8,3.8-2.1,2.7,1.3,3.2-2.1,3.6-5.4,3.2-3.5-1.2-2.6.6-4.4-2.5-3.2.2-2.9-3.2.4-3.7,1-1.3v-5.6c0,0,1.2-5.7,1.2-5.7l1.2-4.4Z"/>
    <path id="VE" d="M277.9,122.4v1.1c-.1,0-2.9.6-2.9.6l1.6,2.2v2.5c0,0-2.2,2.8-2.2,2.8l1.8,3.8,2.1-.3,1.1-3.5-1.5-1.7-.2-3.6,5.9-2-.7-2.3,1.7-1.5,1.7,3.4h3.4c0,0,3.1,2.8,3.1,2.8l.2,1.6h4.3c0,0,5.1-.5,5.1-.5l2.7,2.2,3.6.6,2.7-1.5v-1.2c0,0,6-.3,6-.3h5.7c0,0-4,1.4-4,1.4l1.6,2.3,3.8.4,3.6,2.4.8,3.8h2.5c0-.1,1.9,1,1.9,1l-3.8,2.8-.4,1.8,1.6,1.8-1.2.9-2.9.8v2.2c.1,0-1.2,1.3-1.2,1.3l3.2,3.6.6,1.3-1.8,1.8-5.3,1.8-3.4.7-1.4,1.1-3.8-1.2-3.5-.6-.9.4,2.1,1.2-.2,3.2.7,3,4,.4.3,1-3.4,1.4-.5,2-2,.8-3.5,1.1-.9,1.5-3.7.3-2.6-2.5-1.4-4.7-1.3-1.7-1.7-1,2.4-2.4-.2-1.1-1.4-1.4-1-3.1.4-3.4,1.1-1.6.9-2.6-1.7-.8-2.7.5-3.4-.3-1.9.5-3.4-4.1-2.8-.6-6.1.5-1.1-1.7-1.2-.4-.2-1,.6-1.8-.4-1.9-1.1-1.1-.6-2.2-2.4-.3,1.3-2.8.6-3.4,1.4-1.8,1.9-1.4,1.2-2.4,3.1-.8Z"/>
  </g>
</svg>