<?xml version="1.0" encoding="UTF-8"?>
<svg id="Layer_1" xmlns="http://www.w3.org/2000/svg" xmlns:amcharts="http://amcharts.com/ammap" version="1.1" viewBox="0 0 512 512">
  <!-- Generator: Adobe Illustrator 29.1.0, SVG Export Plug-In . SVG Version: 2.1.0 Build 142)  -->
  <g id="_x3C_defs">
    <amcharts:ammap bottomLatitude="-13.0055279" leftLongitude="45.0181707" projection="mercator" rightLongitude="45.2999739" topLatitude="-12.6364115"/>
  </g>
  <path id="YT" d="M390.6,209.5l-7-5.3,8,9.6,14.4,7,10.6,26.9,11.8,6.4-3.4-19.2,14.9-8.9-2.4-12.9,7.3-2.9-7.7-23.3-13.2-13.1-26.7,32.2,13-8-9.1,17.3-7.1-5.4,2.9-3.6-6.2,3ZM241,506l13.8-16.8-3.1-10.6,14.1-6.7,7.4,4.3,4.7,22.1,5-.2,1.7-12.4,18,2.9,14-17.1-11.6.8-23.4-13.6-12.3-25.7,5.4-7.3,8.5,2.3-4.1-15.5,14.4-21,29.2,6-13.6-8.5-.5-25.7,26.4-14.2-2.6-6,8.1-12.7-11.2.4-2-13.8-21-12.6-6.1-19.1,9.2-12.6-6.3-4.6,30-34.9.8-9.5,19.2-14.1,8.9.3-5.9-12.3-8.6-2.5,4.9-14.9,4.2,8.2-4.8,5.6,12.9-14.1-4.6-14.2-14.5-13.1-17.6-5.3,2.8-10.3-4.2,4.6-13.3-8.6-38.4-2.7-9.4-13.4.8,9.4-4.5-1.7-12,16.2-8-9.4-20.6.4-12.4-25.3,9.2-13-21.2-6.3-3.7-13.3-13.7-4.5,4.3-8.7-21.9-7.4,23.6-13.3-5.6-3.4,3.7-11.8-8.8,10.4-7.7-1.1.3,8.8-13.8,10.3-1.3,13.5-20.4.4,9.1,6.4-.6,8-14.3,13.9-14-2.4-2,15-13.4,16.9,19.8.2,4,6.5-20.6,22.1,2,7.1,10,9.4,11.8-6.6,18.2,18.9,10.2-1.3,14,9.9,9.4-8.7,4.4,2.6-1.3,19.2-10,4.7,4.8,10.7,14.4,1.1-11.1,11.9,8.2,23.1-7.1,21.5,21.4,11.2-19,1.9-13.1,12.8,15.7,14.3,8.8.6,16.9,24.9,18.8,12,16.9,39.1-7.4,20.4-14.4,2.8-37.5-17.5-7.9-33.4-38.5.4,23.5,36-2.2,6.4,15.1-6.2,7.9,10.4-12.8,28.2-21.3,12.4,18.3,6.3,16.1-11.6,6.4,3.6-5.1,36.5,4.8,8.8,3.1-11.8,11.3-6.9,7.4,3,1.4,18,12.9-6.7,8.6,12.2,7.7.6ZM78.7,6l-11.5,10.6,16,9.3-4.5,9.9,20.1-13.8-6.2-6-14-9.9Z"/>
</svg>