<?xml version="1.0" encoding="UTF-8"?>
<svg id="Layer_1" xmlns="http://www.w3.org/2000/svg" xmlns:amcharts="http://amcharts.com/ammap" version="1.1" viewBox="0 0 512 512">
  <!-- Generator: Adobe Illustrator 29.1.0, SVG Export Plug-In . SVG Version: 2.1.0 Build 142)  -->
  <g id="_x3C_defs">
    <amcharts:ammap bottomLatitude="21.077383" leftLongitude="-17.066780" projection="mercator" rightLongitude="-0.997590" topLatitude="35.899044"/>
  </g>
  <g>
    <path id="MA-01" d="M409.3,33.9l-.2,3.3.9,8.6h.1c0,0-3,1.6-3,1.6l-4.9.5-3.1,3.5-3-2.1-2.5,3.5-3.2,1.3-8.9-2.8-2.1-3.7-3.4,2.2h-5.3c0,.1-1.6,5.4-1.6,5.4l.2,3.3-4.5,2.2-2.3-2-.2-2.5-3.1-2.8-7-3v-5.5c-.1,0-5-.9-5-.9l-1.5-1.5-8.2-.8,4.9-14.3,1.6-3,2.9-11.3h3.6c0,0,1.7,1.3,1.7,1.3l2.7-2h3.6c0,0,2-2.5,2-2.5l2.5-.8,3.3.8-1.2,3.1.3,3.7,1.7,4.9,1.9.6,3.2,4.4,4,3.2,7.2,4.1,9.5,2,12.7-4.1,3.6,2.1Z"/>
    <path id="MA-02" d="M429.7,156.6h-4.1s-.6-1.4-.6-1.4l4.5-2.7-2.4-1.3-1.7-5.5,1-4-4.1.3-5.7-2.1-6.1-.4-.9-6.3-4.1-2.5.7-3.1-2.6-2.3,2.9-3.9.9-3.2,5-5.6,3-4.3,9.3.3,7.2-.9,1.7-1.9,4-.4-4.1-5.9-4.1-4.4-3.3-.4-.7-2.2,6.7-6.2-.2-1.5-9.1-1.3-1.4-2.5-3.1-1.2-4.4,5.4-4.2,3.3,1.4,3.6-2.4,3-1.6-2.8-1.8,1.7-4.2-1.7v-4.3s3.4-1.4,3.4-1.4l.9-3.6,3.5-7,.4-5.4-3.1-2.7,2.5-2.2-.2-4.5,2.7-1.1v-4c-.1,0,2.9-1.5,2.9-1.5l1.5-4.7-.2-2.6-5.2-1.2h-.3c0-.1-.9-8.8-.9-8.8l.2-3.3,2.9-3.1,6.4,3.2,4.9.3,7.1-3.3,2.1-3.7,2.6,4.6v2.6s3.3,2.9,3.3,2.9l7.2.8,4.1-2.4,6.3,2.3v1.3c-.1,0,13.2,10.4,13.2,10.4l-2,4.3,2.5,4.2-1,4.4,2.3,2.9v3.1s1.7,4.1,1.7,4.1l-1.5,8.3,1.4,6.6,1.9,5.3-2.2,5.3-.2,3.3,2.8,4.7,3.4,3.7-2.4,2.9,4.7,7.6,3.3,1.5,7.9,6.1-3.6,3.6-2.3.4-1.3,6.8,1.9,1.6-.8,2.5-12.1-.6h-4.2c0,.1-7.9-1.8-7.9-1.8l-2.6,3.3h-3.6c0,0-6.6-2.4-6.6-2.4l-4.4,2.4-4.5-.5-3,2.2,1.5,7.5-3.6,2.8-5,.4Z"/>
    <path id="MA-03" d="M403.7,125.3l-1.6-1.2-2.1,1.9h-3.3l-1.6-4.7-5.5-5.9-5.5.4-2.8-2.1.4-2.4-2.6-2.8-4.8.4-2.3,5-2.6-.4-.5.3-1.3,1.8h0s0-.1,0-.1l-.4-1.2-2.2-2.8.8-4.1h-3.5c0,.1-3-4.2-3-4.2l.4-2.8-4.7-2-4.5-3.1h0c0,0,2.1-2.7,2.1-2.7l-.8-2.1.2-.7,1.9-4.8-2.1-2.9,2.4-3.7-4.5-2.3-2-3,3-3.7,3,1.3.3,2.8,3.9.5,3.9-2.3.2-3.8-2.6-2.9,4.4-1.9,1.2-2.3,4.5-2.2-.2-3.3,1.6-5.3h5.3c0-.1,3.4-2.3,3.4-2.3l2.1,3.7,8.9,2.8,3.2-1.3,2.5-3.5,3,2.1,3.1-3.5,4.9-.5,3-1.6h.2c0,0,5.2,1.3,5.2,1.3l.2,2.6-1.5,4.7-3.1,1.5v4c.1,0-2.6,1.1-2.6,1.1l.2,4.5-2.5,2.2,3.1,2.7-.4,5.4-3.5,7-.9,3.6-3.4,1.4v4.3s4.2,1.7,4.2,1.7l1.8-1.7,1.6,2.8,2.4-3-1.4-3.6,4.2-3.3,4.4-5.4,3.1,1.2,1.4,2.5,9.1,1.3.2,1.5-6.7,6.2.7,2.2,3.3.4,4.1,4.4,4.1,5.9-4,.4-1.7,1.9-7.2.9-9.3-.3-3,4.3-5,5.6-.9,3.2-2.9,3.9Z"/>
    <path id="MA-04" d="M364.8,60.6l-1.2,2.3-4.4,1.9,2.6,2.9-.2,3.8-3.9,2.3-3.9-.5-.3-2.8-3-1.3-3,3.7,2,3,4.5,2.3-2.4,3.7,2.1,2.9-1.9,4.8-.2.7.8,2.1-2.1,2.6v.7c-.1,0,1.2,4.6,1.2,4.6l-1.2,1.3-11.6-2.4-.9-3.8h-2.8c0,.1-2.4,5.8-2.4,5.8l2.1,2.8-5,3-2.5-3.2-5.7-.6h0s.7-4.7.7-4.7l-.6-3.5-1.9-4.1h-.3c0,0-3.4.8-3.4.8l.2-2.8-2.6-5.8-1.7-.8,4.3-2.8,5.7-6.3,7.2-12.7,4.9-10,3.6-9.1,8.2.8,1.5,1.5,4.9.9v5.5c.1,0,7.1,3,7.1,3l3.1,2.8.2,2.5,2.3,2Z"/>
    <path id="MA-05" d="M367.5,115.5l-.7.7-1.1,1.2v7c.1,0-.9,3.6-.9,3.6l-2.1,2.8-3-.3-1.3,2.6,2.3,1.9-1.6,3.3-4,.4-1.1,3.6-4.3.4-1,3.4,2.1,3.3-1.8,2.6h-2.6c0,0-1.8,3.3-1.8,3.3l-3.1,2-5.1.8-3.6,3.6-5.3,1.7-3.7-.6-.9,5.7-6.4.5-1.9-2-2.5.9-1-2.1,1.7-3.9-3.3-1.4-.7-2.2-2.6-1.6,2-2.2,2.2.9,5-.5,1.2-2.9-3.8-6.6v-9.4c-.1,0-.1-.7-.1-.7l2.9-6.6.2-3.1-1.6-3.8,1.8-8.8,1.8-1,1-7,1.8-1.1.7-.4,5.7.6,2.5,3.2,5-3-2.1-2.8,2.4-5.7h2.8c0-.1.9,3.7.9,3.7l11.6,2.4,1.2-1.3-1.3-4.6v-.7c.1,0,4.6,3.1,4.6,3.1l4.7,2-.4,2.8,3,4.3h3.5c0-.1-.8,4-.8,4l2.2,2.8.4,1.2Z"/>
    <path id="MA-06" d="M311.9,82.5l1.7.8,2.6,5.8-.2,2.8,3.4-.7h.3c0,0,1.9,4.1,1.9,4.1l.6,3.5-.7,4.7-.7.4-1.8,1.1-1,7-1.8,1-1.8,8.8,1.6,3.8-.2,3.1-2.9,6.6v.3s-5.4-2.3-5.4-2.3l-1.4-2.3-2.4-.7-5.2,1-4.8-7.6h-3.5s-2.9-5.7-2.9-5.7l-1.9,1-.9,7.5-3.8,4.2-4.2,1.6-1.1,2.7-4.2.8-2.8-7.4-7.8.9-2.9-2.6,1.1-3.8-3.2-1.7,8-7.8,4.5-5.7v-1.7c0,0,3.4-3.5,3.4-3.5l3.6-.5,2.9-3.2,5-1.6,13.4-6.5,4.3-.9,8.6-6.3,3-.9Z"/>
    <path id="MA-07" d="M312.8,135.7v.4s.1,9.4.1,9.4l3.8,6.6-1.2,2.9-5,.5-2.2-.9-2,2.2,2.6,1.6.7,2.2,3.3,1.4-1.7,3.9-3.7,4-4.6.6-7.5,4-1.1.5-5.1,3.7-2.4,5.5-3.4-2.6-6.9,4.2-6.4-1.6-6.1,2.2-.7-5.2-5.6,2.9-2,2.1-3.8-.2-.7,2.3-4.5-2.2-3.3.7-2.1-1-3.2,2.3h-3.1c0-.1.2-3.4.2-3.4l-2.4-2.7-.6-5.2,1.2-5.8-1-4.8,4.3-6.4,1.1-4,8.6-10.4,2.8-5.3.5-4.2-1.3-2.5,1.7-3.7-1.6-2.3,6.7-6.3,3.2,1.7-1.1,3.8,2.9,2.6,7.8-.9,2.8,7.4,4.2-.8,1.1-2.7,4.2-1.6,3.8-4.2.9-7.5,1.9-1,2.9,5.7h3.5s4.8,7.6,4.8,7.6l5.2-1,2.4.7,1.4,2.3,5.4,2.3Z"/>
    <path id="MA-08" d="M403.7,125.3l2.6,2.3-.7,3.1,4.1,2.5.9,6.3,6.1.4,5.7,2.1,4.1-.3-1,4,1.7,5.5,2.4,1.3-4.5,2.7.6,1.5h4.1s0,2.1,0,2.1h-7.2s-4.4,4.1-4.4,4.1l-2.8,1.3-2.3-1.3-.9,3.6-2.7,2.1v5.1l6.9,7.1-7.9,9.2-.8,3.2-8.2,1.3-5.1,1.9-4,4h-2.3s-3.3,3.4-3.3,3.4l-7.2,4.4-6.6,5.9h-1.7c0,0-4.3,4.6-4.3,4.6l-.8,2.2-4.3,3.8-2.4,5.8-.3,2.6-5.1-1.8-.8-2.2-2.8,1.8-5.9,1.1h-3.9s-6.9-3.1-6.9-3.1l.6-5.1-1.9-1.7,1.5-2.4-1.3-2.8,3.5-3-6.4-7.9,2.8-3.7-1.5-2.1h-3.5c0,0-.6-2.9-.6-2.9l-6.1,4.7-4.5,1-4.5-2.2-1.6,4.1-3.7,2.9-5.4-2.7-1.6-3.8,2.7-7.4-1.9-1.5v-2.8c.1,0-3.8-.2-3.8-.2l3.1-4-3.4-.2.3-5-1.2-3.2,1.3-2.4.6-.3,7.5-4,4.6-.6,3.7-4,1,2.1,2.5-.9,1.9,2,6.4-.5.9-5.7,3.7.6,5.3-1.7,3.6-3.6,5.1-.8,3.1-2,1.8-3.3h2.6c0,0,1.8-2.7,1.8-2.7l-2.1-3.3,1-3.4,4.3-.4,1.1-3.6,4-.4,1.6-3.3-2.3-1.9,1.3-2.6,3,.3,2.1-2.8,1-3.6v-7c-.1,0,1-1.2,1-1.2l.6-.6h0s1.3-1.8,1.3-1.8l.5-.3,2.6.4,2.3-5,4.8-.4,2.6,2.8-.4,2.4,2.8,2.1,5.5-.4,5.5,5.9,1.6,4.7h3.3l2.1-1.9,1.6,1.2Z"/>
    <path id="MA-09" d="M331.5,229l-2.3,1.4-5.5.5-1.7,1.5-3.9-1.1-7.1-.9-7.2,3.6-6,1.3-1.4,2.2-4.1,1.8-5.1,4.2-11.6,8-2.3,2.5-6.9,3.4v13.1s-1.5-.2-1.5-.2l-6.4-7.9v-3.1c-.1,0-3.8-.7-3.8-.7l-.2-2.5-2.4-1.3,1.2-3.9-4.2-4.9,3.9-1.2,1.4-4.8-2.4-2.3-.5-3.2-2-3.3-4.4-.5-2.1,2.5-2.7-1.6-2.4,2.3-1.7-1.9-3.4,2.6-1.9-1.6-.6-4.3-2.7,1.9-1.1-3.1,1.4-2.3,4.4-4.4,4-8.3,1.6-4.6,1.2-7.2-3.1-4.8-2.3-2.3-3.1-.7,2.5-6.3-.4-4.6,2.4,2.7-.2,3.3h3.1c0,.1,3.2-2.2,3.2-2.2l2.1,1,3.3-.7,4.5,2.2.7-2.3,3.8.2,2-2.1,5.6-2.9.7,5.2,6.1-2.2,6.4,1.6,6.9-4.2,3.4,2.6,2.4-5.5,5.1-3.7.5-.2-1.3,2.4,1.2,3.2-.3,5,3.4.2-3.1,4,3.9.2v2.8c-.1,0,1.8,1.5,1.8,1.5l-2.7,7.4,1.6,3.8,5.4,2.7,3.7-2.9,1.6-4.1,4.5,2.2,4.5-1,6.1-4.7.6,3h3.5c0,0,1.5,2,1.5,2l-2.8,3.7,6.4,7.9-3.5,3,1.3,2.8-1.5,2.4,1.9,1.7-.6,5.1Z"/>
    <path id="MA-10" d="M226.7,227.5l1.1,3.1,2.7-1.9.6,4.3,1.9,1.6,3.4-2.6,1.7,1.9,2.4-2.3,2.7,1.6,2.1-2.5,4.4.5,2,3.3.5,3.2,2.4,2.3-1.4,4.8-3.9,1.2,4.2,4.9-1.2,3.9,2.4,1.3.2,2.5,3.7.7v3.1c.1,0,6.5,7.9,6.5,7.9l1.5.2v21.4s-.2,23.6-.2,23.6l-8.9-2-8.7-14.6-3.5,2-4.9.4-4.5-1.8-5.2-7-4.7,2-5.4-6.1-4-.8-4.5,2-1.6-1.4-15,.2-1.6,1.8-4.9-2.4h-5.9s-5.9-9-5.9-9l-1.8-4.8,9.2-4.1,4.6-6.4,7.6-7.6,11-5.8,4.7-3.2,3.5-4.7,4.1-3.8,5.1-7.4,1.4-3.5Z"/>
    <path id="MA-11" d="M175.5,273.9l1.8,4.8,5.9,9h5.9s4.9,2.4,4.9,2.4l1.6-1.8,15-.2,1.6,1.4,4.5-2,4,.8,5.4,6.1,4.7-2,5.2,7,4.5,1.8,4.9-.4,3.5-2,8.7,14.6,8.9,2v31.1s-26.1,0-26.1,0h-71.6s0,39.2,0,39.2v9.4c0,0-5.3-1.4-5.3-1.4l-4,.6-6.6,2.3-11.5-3.8-6.8.6-7-1-5.8,4.2-16.1-4.2-2.4,1.7-4.5,1.5-1.9-1.3-3.7,2.5-2.1-1.5-1-3.2-1.7-1.1-3.5.8-1.1-2.6,2.2-7.2.3-4.8-.7-4.8,1.7-6.9,2.9-5,1.6-6.5,2-2.4,2.1-4.8.6-6,2.1-2.7,4.7-2.4,1.8-2.8,6-1.5,8.8-5.7,3.4-3.3,4.2-10.9.3-2.9,2.5-4.1,4.6-12.9,2.8-1.7,2.6-5,1.9-2.2,7.3-.9,18.1-3.8,8.1-3.9Z"/>
    <path id="MA-12" d="M83.7,389l1.1,2.6,3.5-.8,1.7,1.1,1,3.2,2.1,1.5,3.7-2.5,1.9,1.3,4.5-1.5,2.4-1.7,16.1,4.2,5.8-4.2,7,1,6.8-.6,11.5,3.8,6.6-2.3,4-.6,5.4,1.4v33.2c0,0-3.6.5-3.6.5l-6.8,3.6-6.8,1.1-12.4,8.5-3.5,6.6-.4,2.6,4.2,44.1-35.8-.4h-48.5s-31.2.5-31.2.5l-1.9,6.9-1.8.8,1.1-8.8,1.3-6.3v-5l5.1-13.9,3.7-4.2,1.3.8,4.1-1.7,2-6.3,2-1.7.5-4.6,1.6-5.4,2.2-.7,2.1-3.7-1.2-1.8,8.1-15,4.7-6.8,1.1-3.7-1.6-1.8,5-3,.6-1.6,7.3-6.9,4.6-5.7,4.3-1.9,1.1-2.7,2.3-1.6Z"/>
  </g>
</svg>