<svg xmlns="http://www.w3.org/2000/svg" xmlns:amcharts="http://amcharts.com/ammap" id="Layer_1" viewBox="0 0 512 512"><g id="_x3C_defs"><amcharts:ammap bottomLatitude="-22.382" leftLongitude="158.038" projection="mercator" rightLongitude="169.734" topLatitude="-19.415"/></g><g><path id="NC-NO" d="m277.9 299.7-12.4-13.5-.3 11-8-16.8-4.2 6.8-8.3-12.1-17.4-5.7-4.1-11.8-19.7-13.3.7-12.5-14.6-7.7-6.9-14.1-29.7-9.5-49.8-45.1-20.8-7.6 1.1 9.9L47.7 130l7.1 17-6.8 4.3 18.9 8-4.7 9.2 30.9 37-3.2 5.7 30.9 20.3 6.1 17 8.7-3 17.7 34.2 3.8-6.1 4.5 9.7 9.4-1.3 18.6-6.4 10.8 11.2 18.7 1 35.5 20.6 17.5.7 5.9-9.1ZM7 76.1l5.3 19.2 2.9-2.6L7 76.2Z"/><path id="NC-SU" d="m434.9 435.9 4.1-8.6-12.4-6.7-1.5 12.3zm-73.2-29.4-4.6-3-3.4 6.2 8-3.1Zm-83.8-106.8-5.9 9.1-17.5-.7-35.5-20.6-18.7-1-10.8-11.2-18.6 6.4 19.7 24.1 19 3.4 23.6 18.5 6.1-4.9 8.6 16.5 21.2 12.5 6.4-8.6 11.2 15.8-6 7.8 17.6 9 6.5-2.5 1.8 9.8 9.7-6.6.5 16.2 8.8-8.9 26.8 13.2-.8 5 10-1-.3-9.6 9.4 8.7-3.8 2.5 11.3-5.7 4.5-12.7-10.5-18.7-27.9-11.8 3.7-3.3-39.9-30.8 1.5-4z"/><path id="NC-IL" d="m486 282 1.8-4.7L468 283l9.2 18.7-3.1 7.3 18.9 6.5 10.1-4.3 1.9-20.1h-15l-3.9-9.2Zm-73.8-78.1-9.8-4.8-16.9 5.2-1.6 6.1 16.1 4.9-7.6 10.8-11.1 1.2 13.8 19 26.9 12.5 8.1-13.6-8.7-14.4-11.1-4.7 1.8-22.2Zm-74.7-36.7h-6.6c0 .1 4.4 6.8 4.4 6.8l-12.1 29.9 15-13.7-5.6-5.5 10.9-11.4z"/></g></svg>