<?xml version="1.0" encoding="UTF-8"?>
<svg id="Layer_1" xmlns="http://www.w3.org/2000/svg" xmlns:amcharts="http://amcharts.com/ammap" version="1.1" viewBox="0 0 512 512">
  <!-- Generator: Adobe Illustrator 29.1.0, SVG Export Plug-In . SVG Version: 2.1.0 Build 142)  -->
  <g id="_x3C_defs">
    <amcharts:ammap bottomLatitude="7.193590" leftLongitude="-169.516707" projection="mercator" rightLongitude="-52.629539" topLatitude="83.234583"/>
  </g>
  <g>
    <path id="BS" d="M363.5,448.6l-.8.2-.8-2-1.2-1,.7-2.2h1c0,.1,1.1,3.1,1.1,3.1v2ZM362.5,438.6l-3.5.6-.2-1.3,1.5-.3h2.1c0,.1.1,1,.1,1ZM365.2,438.6l-.5,2.5-.6-.5v-1.9c0,0-1.4-1.4-1.4-1.4v-.4s2.5,1.6,2.5,1.6Z"/>
    <path id="BZ" d="M326.3,468.9v-.5s.4-.2.4-.2l.6.4,1.1-2h.6s0,.4,0,.4h.6s0,.9,0,.9l-.5,1.5.3.5-.3,1.2.2.3-.4,1.7-.6.9h-.6c0,.1-.6,1.2-.6,1.2h-1l.3-3.7v-2.6Z"/>
    <path id="CA" d="M296.1,106.9l-.3-6.7,4.1.7,1.9,1.1,3.8,5.6-.9,5.7-4.7,3.2-2.6-3.6-1.4-5.9ZM311.2,121.4l.4-1.7-2.3-2.8-6.5-.2.9,4.2,6,.9,1.5-.4ZM352.8,175l3.5,5.8.9.7,3.5-1.5,3.5.2,3.4.3-.3-3-5.5-6.1-7.3-1.2-1.5.8v4.1ZM278,103.4l-3.1,4.8,7.1.6,5.3,5.1,5.2,1.7-1.2-6.5-2.4-7.7-8.7-6.1-6.3-2.3.2,6.5,3.9,4ZM307.6,91.7h5.9c0-.1-2.5,4.4-2.5,4.4v6.1s3.4,6.6,3.4,6.6l6.6,2,5.7-1.1,5.9-12.3,4.4-5.1-3.9-5.7-2.5-12.2-5.3-3.6-5.4-4.2-4.1-10.9-7.5,1.1,1.4,4.7-3.3,1.4-2.2,6.1-2.2,8.5,2,8.3,3.5,5.9ZM234.7,152.7l4.5,2.2,14.5-1.5-6.7,5.5.4,3.9,4.9-.3,8.1-5.2,10.8-1.9,2-6-.6-6.4-3.4-.6-2.9,2.2-1.3-4.7-1.1-6.5-3.3-1.6-2.9,5,4.6,12.6-5.6-1-5.7-7.8-9-4.6-3,3.8-4.4,12.7ZM260.5,104.6l-4.2-3.3-1.7-.8-3.3,4.9v2.3s5.3,0,5.3,0l3.9-3.1ZM258.9,118.7l1.1-4.5-4.5-2.4-4.7,1.6-2.6,4.9,4.8,4.8,6-4.3ZM292.1,156.7l5.3-1.3,1.5-9.4v-6.8c-.1,0-2.5-6.4-2.5-6.4l-.3,1.8-4.5-.8-4.8,4.7-3.5-.4.2,10.2,5.3-1v7.4c0,0,3.4,2,3.4,2ZM288.3,208.8l-5.8-4.5-5.4-4.8-1-7.1-2-10.2-3.6-4.4-3.2-1.8-2.8,1.6,2.3,11-1.6,4.3-2.6-10.3-2.9-3.5-3.6,5.5-4.5-5.4-7.1,3.3,1.6-5.1-3.3-2.1-8.6,6.7-2.2,4.2-2.7,7.7,5.6,2.7h4.9c0-.1-7.4,3.8-7.4,3.8l1.7,3.6,4.5.2,6.8-.8,6.2,2.2-4.2,1.7-4.5-.4-4.9,1.6-2.1,1,4,7.3,2.8-1,4.4,2.5,1.7,4.2,5.7-.8,8.1-1.3,6-3,3.7-.5,5.5,2.4,5.8,1.4,1.1-3.3-2-3.5,5.3-.7.3-4.1ZM297.2,207.7l-2.2,4-2.8,2.8,4.4,4,2.6-1,4.3,2.7,2-3.1-2-3.5-1-1.7-1.9-1.7-3.4-2.7ZM277.1,174.1l-2.4-2.5-4.3.5-1.1,1.6,5,7.7,2.8-7.3ZM309.8,189.1l3.4-7.9,3.8-2.1,4.8-10-6.1-2.8-6.7-.4-3.2,3.2-1.7,4.8v5.5s2,9.4,2,9.4l3.6.4ZM329.4,162.8l6.6-.2,9.2-1.8,4.1,1.5,4.8-2.6,2-3.2-.7-5.2-3.4-4.8-5.2-.9-6.5,1.1-5.1,2.8-4.7-1.1-4.3-.6-2-3.1-3.7-3,.7-5.1-2.8-4.5h-6.3s-3.6-4.5-3.6-4.5l-6.6-.9-1.2,5.8,3.7,4.3,6.6,1.7,3.2,5.8.4,6.4,1.1,6.8,8.5,3.9,5.2,1.4ZM227.7,142l6-5.8,3-.7,2.5-4.8.4-11.2-4.4,2.2-4.9-.2-6.6,9.4-5.4,10.3,4.3,2.9,5.1-2ZM310.2,160.4l1.7-4.7-1.2-4-2.8-4.5-4.6,3.5-1.7,5.6,3.9,3.2,4.6.9ZM300.7,173.5l-.8-3.3-5.7,1.4-3.8-2.4-3.8,5.5,3.5,7.2-6.5-1.3v3.4c0,0,7.9,8.1,7.9,8.1l2.2,3.9,3.1.8,5.3-3.9.6-9.4-4.8-4.7,3-5.3ZM216.2,349.2l-1.3-2.7-3.2-2-1.6-2.3-1.1-1.7-3-.5-2-.8-3.4-1.1-.3,1.2,1.2,2.7,3.3.9.6,1.4,2.9,1.7,1,1.7,5.3,2.2,1.6-.7ZM355.2,260.5l-2.3-2.4-2.4.6-.3-3.5-3.7-2.3-3.5-2.6-1.9-2-1.6,1.2-.6-3.4-2.3-.6-1.1,7-.4,5.8-2.8,3.6,4.3-.7,1.1,4.2,4.6-3.7,3.2-3.9,1.8,3.3,5,1.7,2.8-2.3ZM217.5,200.4l8.4-4.8v-4.4l4-7.3,7.9-7.6,4-2.8-3.4-4.8-3.1-3.4-8.2-.7-4.6-2.5-10.8,1.9,3.1,7.1-2.8,7.3-2.2,7.9-1.4,4.4,7.4,5.4,1.7,4.3ZM370.9,231.6l.4-1.2v-3.6s-2.5-2.4-2.5-2.4l-2.9,1.2-1.4,4.8.8,4.1,3.6-.4,2.1-2.5ZM398.1,240.3l5,7.5,3.9,3.3,5.6-9,1-5.6-5-.5-4.6-7.7-5.1-1.9-7.5-5.7,5.9-4.1-3-8.6-2.8-3.8-7.7-3.8-3.3-6.3-6,2.3-.4-4.4-4.4-4.9-7.1-5.4-3,4.2-6.3,3,.5-6.9-5.5-11.5-8.1,4.6-3,8.8-2.5-6.8,2.4-7.3-8.3,3-3.3,4.6-2.5,9.6,1,10.3h4.5s-3.3,4.5-3.3,4.5l2.7,3.4,5.2,1.4,6.8,2.8,11.7,2.1,5.8-1.2,1.7-2.8,2.5,3.2,2.8.5,3.4,5.7-2.1,2.3,6.5,3,4.9,4.2,1.2,2.9.9,3.7-4.1,7.9-1.1,3.9,1.1,2.8-6.6,1h-6c0,.1-2.1,5.7-2.1,5.7l2.7,2.5,9.3-1.2v-2.2s4.6,3.6,4.6,3.6l4.8,3.7-1.1,2,3.9,3.5,6.9,4,8.7,2.7-.5-2.4-3.3-4.2-4.5-6.1,8,5.7,4,1.9,1.1-5.1-2.1-7.2-1.3-2-4.4-3.5-3.4-4.5.4-4.5,4.1-1.1ZM322.9,55.6l2.7,8.3,5.7,6.7,11.2-1.2,7.2,2.3-5,6.9-2.5-2-8.8-.8,1.4,9.5,4.5,6.9-.9,5.9-5.7,4-2.6,6.3,5.2,3,4.4,9.8-8.6-6.5-2,1.1,1.6,10.7-5.9,3.2.4,6.7,6.1.7,4.8,1.6,9.4-2.1,8.4,3.7,8.6-8.2v-3.5c0,0-5.5.5-5.5.5l-.4-3.2,4.5-4.4,1.5-5.9,4.9-4.4,3-5.4-2.7-8.1,2.2-3-4.4-2.2,9.7-1.9,2-3.6,6.6-3,5.5-15.4,5.2-5.6,7.6-12.7h-7c0,.1,2.9-4.8,2.9-4.8l7.7-4.6,7.8-10.2v-6.5c.1,0-5.7-6.9-5.7-6.9l-6.9-3.3-8.6-2.1-6.9-1.7-6.9-1.7-9.3,4.5-1.7-2.9-9.8,1.1-5.7,2.9-4.2,4.2-2.5,13.4-3.5-6.8-4-1.3-4.7,9.1-6.3,3.8-3.7.8-4.8,4.4.7,7.6,3.7,6.3ZM407.9,358.5l-1.1-2.3-1.2,1.4.8,1.6,4.1,2,1.2-.3,1.6-1.9h-3c0,.1-2.3-.5-2.3-.5ZM342.8,269.5l.7,1.9,2.3.2,3.7-3.8v-1.4c0,0-4.3,0-4.3,0l-2.4,3.2ZM413.8,345.4l-3.3-2.1-4.2-1.2-1.1.4,3,2.3,4.1,1.5h1.6c0,0,0-1,0-1ZM442.2,350.9l-.4-2.5-2.2.8,1-3.6-3.2-1.5-1.5,1.2-2.8-1.3,1.1-1.7-2.1-1.1-2.1,1.7,2.1-4.4,1.7-3.2.6-1.4-1.5-.2-2.8,1.8-2,2.9-3.3,7.9-2.7,2.9,1.4,1.3-2,1.7.5,1.4h6.2c0,.1,3.4-.1,3.4-.1l3.1,1.1-2.3,2.2,1.9.2,3.7-4.1.9.6-.7,3.9,2.1.9,1.5-.2,1.3-4.1-1-3ZM418,356.3l-3.2,5.2-5.3.7-4.2-2.3-1-3.5-1-5.1,3-3.2-2.8-2.4-4.8.5-6.7,4-5.1,6.2-2.7.8,3.7-4.3,4.6-6.4,4.1-2.2,2.7-3.6,3.3-.3h4.8s6.9,1.1,6.9,1.1l5.4-.8,4-4.1,5.3-1.8,2.3-1.8,2.3-2-.2-5.9-1.3-2-2.5-.7-1.3-4.6-2.1-1.8-5.1-1.4-2.9-3.2-4.3-3.2,1.3-3.7-3.5-7.2-4.2-7.9-2.5-5.7-2.1,3-3.1,6.9-4.6,3.4-2.3-3.6-2.9-1-1.1-8v-5.5c0,0-5.6-.5-5.6-.5l-1-2.6-3.9-3.9-3-2.3-2.7,1.8-3.3-.7-5.5-1.9-2.2,1.6,1.1,10.5,1.4,5.9-3.8,6.6,3.9,4.6,2.2,5.1.3,3.9-1.8,4-3.6,4-5.1,2.6,2.3,2.9,1.7,8.5-1.7,5.3-2.5,1.7-4.8-4.9-2.3-5.9-1-5.4.5-4.8-3.5-.5-5.3-.3-3.4-2.4-4-1.6-2.3-2.7-3.2-2.2-6-2.5-4.5,1.2-1.5-4.5-1.4-5.7-4.7-1,.2-7.3,1.2-5.1,3.5-7.5,3.9-5.6,3.7-.9.2-4.6,2.5-3.1,4.6-.5,3.7-5,.9-3.3,3.1-6.5,1-4,3.3,2.4,4.5-1.2,6.3-5.7.4-4-2.3-4.5,2.4-4.6-.2-4.4-4.3-4.5-4.7-1.4-4.5-.7-.2,10-2.3,7.5-3.3,6.1-3.1-5.7,1-6.4-3.8-5.7-4.3,7v-9.1s-5.9-1.9-5.9-1.9l2.8-4.6-4.4-11-3.4-4.5-4.2-1.6-3.8,7.3-.3,10.7,3.7,3.8,3.4,5.6-1.5,8.8-2.6-.2-2,6.7v-8s-4.9-2.9-4.9-2.9l-2.8,1.5.4,5.3-4.7-.2-5,1.3-5.7-3.8-3.6.7-3.2-4.7-2.6-2.1-2.6.9-3.9.4-2.1,3,3.3,3.6-3.5,4.3-3.4-5.1-2.7,1.5-8.6,1-5.8-1.8,4.5-4.3-4.3-4.5-3.1.6-4.4-1.5-7.5-3.3-4.9-3.9-3.9-.5-1.2,2.7-3.9,1.5-.4-7-4.3,6.3-5.4-8.4-2.2-1-.7,4.5-2.4,2.2-2.2-3.9-5.2,2.3-4.8,4.1-4.8-1.1-3.9,2.9-2.8,3.7-3.3-.8-5-4.3-6-2.2v31.6s0,40.5,0,40.5l3.2.2,3.1,1.8,2.2,2.8,2.8,4.1,3.1-3.5,3.2-2,1.7,3.3,2.2,2.5,2.9,2.8,2,4.3,3.3,6.7,5.5,3.7v3.6c0,0-1.7,2.7-1.7,2.7v2.8c0,0,3.9,3.9,3.9,3.9l.6,4.3,4.1,2.2-.5,3.2,1.8,4.5,5.8,2.1,2.3,2.2,6.2,4.8h.4s9.1,0,9.1,0h79.6v-1.9s1.1,0,1.1,0l.6,2.7,1,.8,2.2.3,3.3.8,3.1,1.5,2.6-.6,3.9,1.2,1.3-1.9,1.8-.8.7-1.2.7-.6,3,1h2.2c0,.1.8.8.8.8l1.1,2.7,3.6.7-.6,1.3,1.3,1.4-.5,1.8,1.3.6-.7,1.6h.9c0,.1.6-.5.6-.5l.6,1,2.4.6h2.4s2.6.5,2.6.5l2.9.9,1.1,1.4,2.1,3.5-1,1.5-2.6-.6-1.6-2.8.4,2.8-1.5,2.5.2,2.1-.3,1.2-2.1,1.5-1.5,2.4-.7,1.5,1.8.3,2.4-1.4,1.4-1.2.9-.2,1.8.4.9-.7,1.6-.5,2.8-.5h0l-.3-1.3h-.1s-1,.3-1,.3l-1.3-.4,1-1.5,1-.5,2.3-.6,2.7-.6,1.4.8.9-1,1-.6.7.3h0c0,0,3.3-3.1,3.3-3.1l1.4-.8h4.9s5.9,0,5.9,0l.3-1.1,1-.2,1.4-.7,1.1-2.1,1-3.6,2.4-3.5,1.1,1.2,2.1-.8,1.4,1.4v6.3l2.1,2.6,3.6-.5h5.1c0-.1-5.6,3.6-5.6,3.6v3.8c.1,0,2.6.3,2.6.3l3.6-3.2,3.2-1.8,7.1-2.7,4-3-2.1-1.7-.3-3.5ZM356.7,275.1l1.3-3.6-.8-1.4h-1.3c0-.1-1.2,1.9-1.2,1.9v.5c-.1,0,.7,2,.7,2l1.4.6ZM193.7,316.7h0l1.8-2.7-1.8,2.7Z"/>
    <path id="CR" d="M346.1,500.2l-1.7-.7-.7-.7.4-.6v-.7c-.1,0-1-.8-1-.8l-1.3-.6-1.1-.4-.2-.9-.8-.6.2.9-.6.8-.7-.9-1-.3-.4-.7v-1s.4-1,.4-1l-.9-.5.7-.6.5-.4,2.1.9.7-.4,1,.3.5.7.9.2.8-.7.8,1.8,1.2,1.3,1.5,1.4-1.2.3v1.3s.7.5.7.5l-.5.4v.6c.1,0-.1.7-.1.7l-.2.6Z"/>
    <path id="CU" d="M348.3,450.5l2.8.3h2.5s3,1.2,3,1.2l1.3,1.3,3-.4,1.1.8,2.7,2.1,2,1.5h1.1s1.9.7,1.9.7l-.2,1h2.4c0,.1,2.4,1.5,2.4,1.5l-.4.8-2.1.4-2.1.2-2.2-.3-4.6.3,2.1-1.9-1.3-.9-2.1-.2-1.1-1-.8-1.9h-1.8c0,.1-3-.8-3-.8l-1-.7-4.2-.5-1.1-.7,1.2-.9-3.1-.2-2.3,1.8h-1.3s-.5.9-.5.9l-1.6.4-1.4-.3,1.7-1.1.7-1.2,1.5-.8,1.6-.7,2.4-.3.8-.4Z"/>
    <path id="DO" d="M382.1,462.4l.4-.6h2.5s1.9.9,1.9.9h.8c0,0,.6,1.1.6,1.1h1.8c0,0-.1.9-.1.9h1.4c0,.1,1.6,1.4,1.6,1.4l-1.2,1.4-1.5-.7h-1.5c0,.1-1.1,0-1.1,0l-.6.6-1.2.2-.5-.8-1.1.5-1.3,2.3-.8-.5-.2-1v-.9c0,0-.8-1-.8-1l.8-.6.3-1.3-.3-1.8Z"/>
    <path id="GT" d="M323.2,482.3l-1.6-.6h-2c0,0-1.5-.7-1.5-.7l-1.7-1.3v-1c0,0,.4-.8.4-.8l-.4-.6,1.5-2.7h4.1s0-1.1,0-1.1l-.5-.2-.4-.7-1.2-.8-1.2-1.1h1.5v-1.9h6s0,2.7,0,2.7l-.3,3.7h1l1,.6.3-.5.9.4-1.5,1.3-1.5.9-.2.6.3.7-.7.8-.8.2.2.4-.6.4-1.1.8v.5Z"/>
    <path id="HN" d="M332.1,484.8l-.5-1-1-.3.2-1.3-.4-.4-.7-.2-1.4.4v-.4c-.1,0-1.1-.5-1.1-.5l-.7-.7-.9-.3.7-.8-.3-.7.2-.6,1.5-.9,1.5-1.3h.3c0,.1.7-.4.7-.4h.9s.3.2.3.2l.5-.2,1.5.3h1.5c0,0,1-.5,1-.5l.4-.4,1,.2.8.2h.8c0,0,.6-.4.6-.4l1.5.5h.5c0,0,1,.7,1,.7l.9.7,1.2.5.8.9h-1.1c0,0-.4.4-.4.4l-1.1.4h-.8l-.7.4h-.6c0-.1-.5-.7-.5-.7h-.3c0,0-.4.9-.4.9h-.3s0,.7,0,.7l-1.1.9-.6.4-.3.4-.9-.7-.7.9h-.7s-.8,0-.8,0v1.6c0,0-.4,0-.4,0l-.4.8h-1Z"/>
    <path id="HT" d="M377.4,461.8h2c0,.1,2.8.7,2.8.7l.3,1.8-.3,1.3-.8.6.8,1v.9c0,0-2.2-.6-2.2-.6l-1.5.2-2-.2-1.5.6-1.7-1.1.3-1.1,2.9.5,2.4.3,1.2-.7-1.5-1.5v-1.3s-2-.5-2-.5l.7-.9Z"/>
    <path id="JM" d="M363.3,466.6l2.2.3,1.7.8.5.9h-2.3c0,0-1,.6-1,.6l-1.8-.5-1.8-1.2.4-.8,1.3-.2h.7Z"/>
    <path id="MX" d="M300.6,441.2l-1.2,3.1-.6,2.5-.2,4.7-.3,1.7.6,1.9,1,1.7.6,2.6,2.1,2.5.7,1.9,1.3,1.7,3.4.9,1.3,1.4,2.8-.9,2.4-.3,2.4-.6,2-.6,2-1.4.8-2,.3-2.9.6-1,2.2-.9,3.4-.8h2.8c0,.1,1.9-.2,1.9-.2l.8.7v1.6c-.1,0-1.8,2-1.8,2l-.8,2.1.6.6-.5,1.5-.8,2.6-.8-.9h-.7c0,0-.6.1-.6.1l-1.1,2-.6-.4-.4.2v.5s-2.9,0-2.9,0h-3v1.9h-1.5l1.2,1.1,1.2.8.4.7.5.2v1.1c0,0-4.2,0-4.2,0l-1.5,2.7.4.6-.4.8v1c0,0-3.7-3.6-3.7-3.6l-1.7-1.1-2.6-.9-1.8.2-2.6,1.2-1.6.3-2.3-.9-2.4-.6-3-1.5-2.4-.5-3.6-1.6-2.7-1.6-.8-.9-1.8-.2-3.3-1.1-1.3-1.5-3.4-1.9-1.6-2.1-.8-1.7,1.1-.3-.3-1,.7-.9v-1.2s-1.1-1.5-1.1-1.5l-.3-1.4-1.1-1.7-2.8-3.5-3.2-2.7-1.6-2.2-2.8-1.4-.6-.9.5-2.2-1.6-.8-1.9-1.7-.8-2.5-1.7-.3-1.9-1.9-1.5-1.8v-1.1c-.1,0-1.9-2.8-1.9-2.8l-1.1-2.8v-1.4s-2.3-1.5-2.3-1.5l-1.1.2-1.8-1-.5,1.5.5,1.8.3,2.8,1.1,1.5,2.4,2.5.5.9.5.3.4,1.3h.6c0,0,.7,2.3.7,2.3l1,.9.7,1.3,2,1.8,1.1,3.3.9,1.5.9,1.6.2,1.9h1.6c0,.1,1.3,1.7,1.3,1.7l1.2,1.6v.6c0,0-1.4,1.3-1.4,1.3h-.6s-.8-2.1-.8-2.1l-2.1-2-2.3-1.7-1.6-.9v-2.6c.1,0-.4-1.9-.4-1.9l-1.5-1.1-2.2-1.6-.4.5-.8-.9-2-.9-1.9-2.1.2-.3,1.3.2,1.2-1.3v-1.6c.1,0-2.4-2.6-2.4-2.6l-1.9-1-1.2-2.3-1.2-2.4-1.5-3-1.3-3.4,3.6-.3,4.1-.4-.3.7,4.8,1.8,7.3,2.6h6.4s2.5,0,2.5,0v-1.5h5.6l1.2,1.3,1.6,1.2,1.9,1.6,1.1,1.9.8,2,1.7,1.1,2.7,1.1,2-2.9h2.6c0,0,2.3,1.4,2.3,1.4l1.6,2.5,1.1,2.1,1.9,2.1.7,2.5.9,1.7,2.5,1.1,2.3.8h1.3Z"/>
    <path id="NI" d="M337.3,491l-1.1-1-1.5-1.3-.7-1.1-1.3-1-1.6-1.5.4-.5.5.5.2-.2h1c0-.1.4-.9.4-.9h.5s0-1.6,0-1.6h.8c0,0,.7,0,.7,0l.7-.9.9.7.3-.4.6-.4,1.1-.9v-.7c0,0,.4,0,.4,0l.4-.8h.3c0,0,.5.4.5.4h.6c0,.1.7-.3.7-.3h.8l1.1-.4.4-.4h1.1c0,0-.3.4-.3.4l-.2.7.3,1.2-.7,1.1-.3,1.3v1.4c-.1,0,0,.8,0,.8v1.5c0,0-.4.3-.4.3l-.3,1.4.2.9-.7.8v.9c.1,0,.6.5.6.5l-.8.7-.9-.2-.5-.7-1-.3-.7.4-2.1-.9-.5.4Z"/>
    <path id="PA" d="M362.4,503.4l-1.1-.9-.7-1.7.8-.9-.8-.2-.6-1.1-1.6-.9-1.4.2-.7,1.1-1.3.8h-.7c0,.1-.3.8-.3.8l1.5,1.7-.9.4-.5.5-1.5.2-.6-1.9-.4.5-1.1-.2-.6-1.3-1.3-.2-.8-.4h-1.4v.7c-.1,0-.5-.5-.5-.5l.2-.6.3-.7v-.6c-.1,0,.4-.4.4-.4l-.7-.5v-1.3s1.2-.3,1.2-.3l1.1,1.2v.7c0,0,1.2.1,1.2.1l.3-.3.9.8,1.6-.2,1.4-.8,1.9-.7,1.1-1,1.8.2v.3c-.1,0,1.7.1,1.7.1l1.4.6,1,1,1.2.9-.4.5.8,1.9-.6,1-1-.2-.4,1.6Z"/>
    <path id="PR" d="M399.5,466.5l1.6.3.6.7-.8.8h-2.4s-1.9,0-1.9,0l-.2-1.4.5-.5h2.6Z"/>
    <path id="SV" d="M330.6,483.5l-.4.8h-1.9s-1.2-.4-1.2-.4l-1.3-.7-1.8-.2-.9-.7v-.5c.1,0,1.2-.8,1.2-.8l.6-.4-.2-.4.8-.2.9.3.7.7,1,.5v.4c.1,0,1.5-.4,1.5-.4l.7.2.4.4-.2,1.3Z"/>
    <path id="US" d="M193.7,316.7h0l-1.8-2.1-2.8-1.8-.9-5-4.1-4.7-1.7-5.6-3.1-.4h-5.1c0-.1-3.8-1.9-3.8-1.9l-6.6-6.4-3.1-1.2-5.6-2.3-4.4.5-6.3-3-3.8-2.8-3.6,1.4.7,4.5-1.8.4-3.7,1.3-2.8,2.1-3.6,1.3-.5-3.7,1.4-6.3,3.4-2-.9-1.7-4.1,3.7-2.2,4.3-4.6,4.5,2.3,3-3,4.4-3.4,2.5-3.2,1.8-.8,2.6-5,3-1,2.7-3.7,2.4-2.2-.4-3,1.6-3.2,1.9-2.7,1.9-5.5,1.6-.5-.9,3.5-2.6,3.1-1.7,3.4-3.1,4-.6,1.6-2.4,4.4-3.5.7-1.2,2.4-2.1.5-4.6,1.6-3.6-3.7,1.9-1-1.1-1.7,2.2-2.1-3.1-.9,2.2-1.2-3.1-3.2,2.5h-2l-.3-3.7.6-2.3-2.1-2.3-4.2,1.2-2.7-3-2.2-1.6v-3.7s-2.5-2.8-2.5-2.8l1.2-3.9,2.6-3.9,1.1-3.6,2.6-.5,2.2,1.1,2.6-3.4,2.3.6,2.4-2.2-.6-3.3-1.8-1.3,2.4-2.9h-2c0,0-3.4,1.7-3.4,1.7l-1,1.6-2.5-1.6-4.5.8-4.7-1.8-1.3-3-4.1-4.5,4.5-3.3,7.1-3.9h2.6l-.4,4,6.8-.3-2.6-5-3.9-3.1-2.3-4.2-3.1-3.6-4.4-2.7,1.8-4.6,5.7-.3,4-4.1.8-4.5,3.3-4.5,3.1-1.1,6.1-4.3,2.9.7,4.9-5.3,4.8,2.1,2.3,4.4,1.4-1.9,5.4.6-.2,2.2,4.9,1.6,3.3-1,6.8,3,6.2.9,2.5,1.2,4.3-1.5,4.9,2.8,3.5,1.3v31.6s0,40.5,0,40.5l3.2.2,3.1,1.8,2.2,2.8,2.8,4.1,3.1-3.5,3.2-2,1.7,3.3,2.2,2.5,2.9,2.8,2,4.3,3.3,6.7,5.5,3.7v3.6c0,0-1.8,2.6-1.8,2.6ZM394.7,356.1l-1.4-1.4-2.1.8-1.1-1.2-2.4,3.5-1,3.6-1.1,2.1-1.4.7-1,.2-.3,1.1h-10.8s-1.4.9-1.4.9l-3.3,3.1.3.6.2,1.7-2.4,1.5-2.6-.4-2.5-.2-1.5.5.3,1.3h0v.4c0,0-2.7,2.6-2.7,2.6l-2.4,1.2-1.6.6-1.9,1.2-2.3.6-1.6-.2-2-.9,1.1-1.7.7-1.5,1.5-2.4-.2-1.8-.6-2.6-1.2-.4-2,2h-.6s-.2-1.1-.2-1.1l1.8-1.8.3-2-.3-2-2.4-1.8-2.7-.9-.4,1.7-.7.5-.6,2.2-.3-1.5-1.3,1.1-.8,1.5-.8,2.2-.2,1.9,1.1,2.7v2.9c0,0-1.4,2.1-1.4,2.1l-.7.6-.9.5h-1.1s-.3-.3-.3-.3l-.9-2.3v-1.1s0-1.1,0-1.1l-.4-2.1.6-2.5.7-3.1,1.7-3.5h-.5s-2.4,2.9-2.4,2.9l-.4-.5,1.3-1.6,1.9-2.9,2.2-.4,2.5-.9,2.5.5h.1s2.8-.4,2.8-.4l-1.6-1.8h-.9c0-.1-1-.3-1-.3l-.7-1.3-3.1.4-2.8,1-2.3-1.8-1.8-.6,1-2.5-2.8,1.6-2.6,1.5-2.5,1.2-2-1.6-3.2,1v-.7s2.2-2,2.2-2l2.3-1.9,3.3-1.6-3.9-1.2-2.6.6-3.1-1.5-3.3-.8-2.2-.3-1-.8-.6-2.7h-1.1s0,1.9,0,1.9h-88.7l1.1,4,.5,3.9-.8,1.2-1.7-4.5-4.6-1.6-.4.9.9,2.2,1,4,.6,6.2-.4,4.1-.4,4-1.3,4.1,1,3.3v3.7c.1,0-.6,3.5-.6,3.5l1.7,2.3.4,3.4,2.5,3.4,1.4,1.3v.9c-.1,0,2.6,5.5,2.6,5.5l3.1,3.9.4,2.1.8.6,3,.4,1.1,1,1.8.2.4,1.1,1.5.5,2.1,2.2.5,1.9,3.6-.3,4.1-.4-.3.7,4.8,1.8,7.3,2.6h6.4s2.5,0,2.5,0v-1.5h5.6l1.2,1.3,1.6,1.2,1.9,1.6,1.1,1.9.8,2,1.7,1.1,2.7,1.1,2-2.9h2.6c0,0,2.3,1.4,2.3,1.4l1.6,2.5,1.1,2.1,1.9,2.1.7,2.5.9,1.7,2.5,1.1,2.3.8h1.2c0-.1-.6-1.3-.6-1.3l-.2-1.7v-2.5s.8-1.6.8-1.6l1.7-1.7,3.2-1.6,2.9-2.7,2.7-.9,2-.3,2.3.8,2.8-.5,2.4,1.9h2.3c0,.1,1.2-.6,1.2-.6l1.2.5.6-.5-.7-.7v-1.5c0,0-.5-1-.5-1l1.3-.6,2.4-.3,2.8.4,3.6-.5,2,.9,1.6,1.7.6.2,3.2-1.7,1.2.6,2.5,3.1.9,2-.7,2.4.5,1.4,1.5,2.7,1.7,3.1,1.2.8.5,1.5,1.6.4,1-.4.8-2.2v-1.4c.1,0,.2-2.4.2-2.4l-1.5-4.2v-1.6s-1.5-2.6-1.5-2.6l-1.1-3.1-.6-2.6.5-2.6,1.5-2.2,1.8-1.8,3.5-2.5.5-1.3,1.6-1.4,1.6-.2,2.1-2.3,3.3-1.2,2-2.9-.4-3.9-.3-1.4-.9-.3v-3.8c-.1,0-2.3-1.3-2.3-1.3l2.1.6-.7-2.6.6-1.8.4,3.4,1.6,1.6-1,2.7.3.2,1.8-3.2,1-1.6v-1.5s-.8-.7-.8-.7l-.7-2.2,1.1,1,.7.2.2,1.1,2.3-3.2.7-3-.9-.2,1-1.2v.5c0,0,2,0,2,0l4.5-1.3-.9-.8-4.7.8,2.7-1.2,1.9-.2,1.4-.2,2.4-.7h1.5c0,0,2.2-.6,2.2-.6l.3-1.2-1-.9.3,1.6h-1.3c0-.1-1.1-2.4-1.1-2.4v-2.3s.6-1,.6-1l1.7-2.6,3.4-1.3,3.3-1.5,3.4-2.2-.5-1.5-2.1-2.6-.2-6.6ZM120.9,298.4l-1.7.9-2.9,2.1.5,2.8,1.6,1.5,3.2-2.2,2.8-2.8-1.4-1.9-2.1-.4ZM68.8,265.8l2.3-1.4.3-.8-2.6-.8v3ZM78.5,283.3l-3.2,1.1,1.9,1.7,2.1,1.2,2-1-.3-2.5-2.5-.6ZM189.8,320.5l-3.1.4-1.5-.7-.2,1.7.6,2.4,1.6,1.7,1.2,2.4,1.9,2.4h1.3s-2.8-4.2-2.8-4.2l.9-6.1ZM111.2,458.4l-1.1-.3-.3.3v.2s.4.3.4.3l.5.7,1.1-.2.3-.4-.8-.5ZM107.8,457.7h1.7c0,.1.1-.3.1-.3h-1.6c0-.1-.2.3-.2.3ZM114.6,461.5l-.6-.3-1.2-.6h-.2c0,0-.2.3-.2.3l.2.7-.6.5-.2.4.5,1.2v.9c0,0,.7.5.7.5l.5-.6,1-.5,1.3-.7v-.2c0,0-.7-1.2-.7-1.2l-.5-.5ZM105.6,455.6l-.9.5h.1c0,.1.4.9.4.9h1.1c0,.1.2.2.2.2l.2-.2-.9-1.1-.3-.2ZM100.5,453.8l-.5.3-.2.3,1.1.6.4-.3v-.8c0,0-.8,0-.8,0Z"/>
  </g>
</svg>