<svg xmlns="http://www.w3.org/2000/svg" xmlns:amcharts="http://amcharts.com/ammap" id="Layer_1" viewBox="0 0 512 512"><g id="_x3C_defs"><amcharts:ammap bottomLatitude="7.194" leftLongitude="-169.517" projection="mercator" rightLongitude="-52.63" topLatitude="83.235"/></g><g><path id="BS" d="m363.5 448.6-.8.2-.8-2-1.2-1 .7-2.2h1c0 .1 1.1 3.1 1.1 3.1v2Zm-1-10-3.5.6-.2-1.3 1.5-.3h2.1c0 .1.1 1 .1 1m2.7 0-.5 2.5-.6-.5v-1.9l-1.4-1.4v-.4l2.5 1.6Z"/><path id="BZ" d="M326.3 468.9v-.5l.4-.2.6.4 1.1-2h.6v.4h.6v.9l-.5 1.5.3.5-.3 1.2.2.3-.4 1.7-.6.9h-.6c0 .1-.6 1.2-.6 1.2h-1l.3-3.7v-2.6Z"/><path id="CA" d="m296.1 106.9-.3-6.7 4.1.7 1.9 1.1 3.8 5.6-.9 5.7-4.7 3.2-2.6-3.6-1.4-5.9Zm15.1 14.5.4-1.7-2.3-2.8-6.5-.2.9 4.2 6 .9zm41.6 53.6 3.5 5.8.9.7 3.5-1.5 3.5.2 3.4.3-.3-3-5.5-6.1-7.3-1.2-1.5.8v4.1ZM278 103.4l-3.1 4.8 7.1.6 5.3 5.1 5.2 1.7-1.2-6.5-2.4-7.7-8.7-6.1-6.3-2.3.2 6.5 3.9 4Zm29.6-11.7h5.9c0-.1-2.5 4.4-2.5 4.4v6.1l3.4 6.6 6.6 2 5.7-1.1 5.9-12.3 4.4-5.1-3.9-5.7-2.5-12.2-5.3-3.6-5.4-4.2-4.1-10.9-7.5 1.1 1.4 4.7-3.3 1.4-2.2 6.1-2.2 8.5 2 8.3 3.5 5.9Zm-72.9 61 4.5 2.2 14.5-1.5-6.7 5.5.4 3.9 4.9-.3 8.1-5.2 10.8-1.9 2-6-.6-6.4-3.4-.6-2.9 2.2-1.3-4.7-1.1-6.5-3.3-1.6-2.9 5 4.6 12.6-5.6-1-5.7-7.8-9-4.6-3 3.8-4.4 12.7Zm25.8-48.1-4.2-3.3-1.7-.8-3.3 4.9v2.3h5.3zm-1.6 14.1 1.1-4.5-4.5-2.4-4.7 1.6-2.6 4.9 4.8 4.8 6-4.3Zm33.2 38 5.3-1.3 1.5-9.4v-6.8c-.1 0-2.5-6.4-2.5-6.4l-.3 1.8-4.5-.8-4.8 4.7-3.5-.4.2 10.2 5.3-1v7.4l3.4 2Zm-3.8 52.1-5.8-4.5-5.4-4.8-1-7.1-2-10.2-3.6-4.4-3.2-1.8-2.8 1.6 2.3 11-1.6 4.3-2.6-10.3-2.9-3.5-3.6 5.5-4.5-5.4-7.1 3.3 1.6-5.1-3.3-2.1-8.6 6.7-2.2 4.2-2.7 7.7 5.6 2.7h4.9c0-.1-7.4 3.8-7.4 3.8l1.7 3.6 4.5.2 6.8-.8 6.2 2.2-4.2 1.7-4.5-.4-4.9 1.6-2.1 1 4 7.3 2.8-1 4.4 2.5 1.7 4.2 5.7-.8 8.1-1.3 6-3 3.7-.5 5.5 2.4 5.8 1.4 1.1-3.3-2-3.5 5.3-.7.3-4.1Zm8.9-1.1-2.2 4-2.8 2.8 4.4 4 2.6-1 4.3 2.7 2-3.1-2-3.5-1-1.7-1.9-1.7-3.4-2.7Zm-20.1-33.6-2.4-2.5-4.3.5-1.1 1.6 5 7.7zm32.7 15 3.4-7.9 3.8-2.1 4.8-10-6.1-2.8-6.7-.4-3.2 3.2-1.7 4.8v5.5l2 9.4 3.6.4Zm19.6-26.3 6.6-.2 9.2-1.8 4.1 1.5 4.8-2.6 2-3.2-.7-5.2-3.4-4.8-5.2-.9-6.5 1.1-5.1 2.8-4.7-1.1-4.3-.6-2-3.1-3.7-3 .7-5.1-2.8-4.5h-6.3l-3.6-4.5-6.6-.9-1.2 5.8 3.7 4.3 6.6 1.7 3.2 5.8.4 6.4 1.1 6.8 8.5 3.9zM227.7 142l6-5.8 3-.7 2.5-4.8.4-11.2-4.4 2.2-4.9-.2-6.6 9.4-5.4 10.3 4.3 2.9 5.1-2Zm82.5 18.4 1.7-4.7-1.2-4-2.8-4.5-4.6 3.5-1.7 5.6 3.9 3.2 4.6.9Zm-9.5 13.1-.8-3.3-5.7 1.4-3.8-2.4-3.8 5.5 3.5 7.2-6.5-1.3v3.4l7.9 8.1 2.2 3.9 3.1.8 5.3-3.9.6-9.4-4.8-4.7 3-5.3Zm-84.5 175.7-1.3-2.7-3.2-2-1.6-2.3-1.1-1.7-3-.5-2-.8-3.4-1.1-.3 1.2 1.2 2.7 3.3.9.6 1.4 2.9 1.7 1 1.7 5.3 2.2zm139-88.7-2.3-2.4-2.4.6-.3-3.5-3.7-2.3-3.5-2.6-1.9-2-1.6 1.2-.6-3.4-2.3-.6-1.1 7-.4 5.8-2.8 3.6 4.3-.7 1.1 4.2 4.6-3.7 3.2-3.9 1.8 3.3 5 1.7 2.8-2.3Zm-137.7-60.1 8.4-4.8v-4.4l4-7.3 7.9-7.6 4-2.8-3.4-4.8-3.1-3.4-8.2-.7-4.6-2.5-10.8 1.9 3.1 7.1-2.8 7.3-2.2 7.9-1.4 4.4 7.4 5.4zm153.4 31.2.4-1.2v-3.6l-2.5-2.4-2.9 1.2-1.4 4.8.8 4.1 3.6-.4 2.1-2.5Zm27.2 8.7 5 7.5 3.9 3.3 5.6-9 1-5.6-5-.5-4.6-7.7-5.1-1.9-7.5-5.7 5.9-4.1-3-8.6-2.8-3.8-7.7-3.8-3.3-6.3-6 2.3-.4-4.4-4.4-4.9-7.1-5.4-3 4.2-6.3 3 .5-6.9-5.5-11.5-8.1 4.6-3 8.8-2.5-6.8 2.4-7.3-8.3 3-3.3 4.6-2.5 9.6 1 10.3h4.5l-3.3 4.5 2.7 3.4 5.2 1.4 6.8 2.8 11.7 2.1 5.8-1.2 1.7-2.8 2.5 3.2 2.8.5 3.4 5.7-2.1 2.3 6.5 3 4.9 4.2 1.2 2.9.9 3.7-4.1 7.9-1.1 3.9 1.1 2.8-6.6 1h-6c0 .1-2.1 5.7-2.1 5.7l2.7 2.5 9.3-1.2v-2.2l4.6 3.6 4.8 3.7-1.1 2 3.9 3.5 6.9 4 8.7 2.7-.5-2.4-3.3-4.2-4.5-6.1 8 5.7 4 1.9 1.1-5.1-2.1-7.2-1.3-2-4.4-3.5-3.4-4.5.4-4.5 4.1-1.1ZM322.9 55.6l2.7 8.3 5.7 6.7 11.2-1.2 7.2 2.3-5 6.9-2.5-2-8.8-.8 1.4 9.5 4.5 6.9-.9 5.9-5.7 4-2.6 6.3 5.2 3 4.4 9.8-8.6-6.5-2 1.1 1.6 10.7-5.9 3.2.4 6.7 6.1.7 4.8 1.6 9.4-2.1 8.4 3.7 8.6-8.2v-3.5l-5.5.5-.4-3.2 4.5-4.4 1.5-5.9 4.9-4.4 3-5.4-2.7-8.1 2.2-3-4.4-2.2 9.7-1.9 2-3.6 6.6-3 5.5-15.4 5.2-5.6 7.6-12.7h-7c0 .1 2.9-4.8 2.9-4.8l7.7-4.6 7.8-10.2v-6.5c.1 0-5.7-6.9-5.7-6.9L401 14l-8.6-2.1-6.9-1.7-6.9-1.7-9.3 4.5-1.7-2.9-9.8 1.1-5.7 2.9-4.2 4.2-2.5 13.4-3.5-6.8-4-1.3-4.7 9.1-6.3 3.8-3.7.8-4.8 4.4.7 7.6 3.7 6.3Zm85 302.9-1.1-2.3-1.2 1.4.8 1.6 4.1 2 1.2-.3 1.6-1.9h-3c0 .1-2.3-.5-2.3-.5Zm-65.1-89 .7 1.9 2.3.2 3.7-3.8v-1.4h-4.3l-2.4 3.2Zm71 75.9-3.3-2.1-4.2-1.2-1.1.4 3 2.3 4.1 1.5h1.6v-1Zm28.4 5.5-.4-2.5-2.2.8 1-3.6-3.2-1.5-1.5 1.2-2.8-1.3 1.1-1.7-2.1-1.1-2.1 1.7 2.1-4.4 1.7-3.2.6-1.4-1.5-.2-2.8 1.8-2 2.9-3.3 7.9-2.7 2.9 1.4 1.3-2 1.7.5 1.4h6.2c0 .1 3.4-.1 3.4-.1l3.1 1.1-2.3 2.2 1.9.2 3.7-4.1.9.6-.7 3.9 2.1.9 1.5-.2 1.3-4.1-1-3Zm-24.2 5.4-3.2 5.2-5.3.7-4.2-2.3-1-3.5-1-5.1 3-3.2-2.8-2.4-4.8.5-6.7 4-5.1 6.2-2.7.8 3.7-4.3 4.6-6.4 4.1-2.2 2.7-3.6 3.3-.3h4.8l6.9 1.1 5.4-.8 4-4.1 5.3-1.8 2.3-1.8 2.3-2-.2-5.9-1.3-2-2.5-.7-1.3-4.6-2.1-1.8-5.1-1.4-2.9-3.2-4.3-3.2 1.3-3.7-3.5-7.2-4.2-7.9-2.5-5.7-2.1 3-3.1 6.9-4.6 3.4-2.3-3.6-2.9-1-1.1-8v-5.5l-5.6-.5-1-2.6-3.9-3.9-3-2.3-2.7 1.8-3.3-.7-5.5-1.9-2.2 1.6 1.1 10.5 1.4 5.9-3.8 6.6 3.9 4.6 2.2 5.1.3 3.9-1.8 4-3.6 4-5.1 2.6 2.3 2.9 1.7 8.5-1.7 5.3-2.5 1.7-4.8-4.9-2.3-5.9-1-5.4.5-4.8-3.5-.5-5.3-.3-3.4-2.4-4-1.6-2.3-2.7-3.2-2.2-6-2.5-4.5 1.2-1.5-4.5-1.4-5.7-4.7-1 .2-7.3 1.2-5.1 3.5-7.5 3.9-5.6 3.7-.9.2-4.6 2.5-3.1 4.6-.5 3.7-5 .9-3.3 3.1-6.5 1-4 3.3 2.4 4.5-1.2 6.3-5.7.4-4-2.3-4.5 2.4-4.6-.2-4.4-4.3-4.5-4.7-1.4-4.5-.7-.2 10-2.3 7.5-3.3 6.1-3.1-5.7 1-6.4-3.8-5.7-4.3 7v-9.1l-5.9-1.9 2.8-4.6-4.4-11-3.4-4.5-4.2-1.6-3.8 7.3-.3 10.7 3.7 3.8 3.4 5.6-1.5 8.8-2.6-.2-2 6.7v-8l-4.9-2.9-2.8 1.5.4 5.3-4.7-.2-5 1.3-5.7-3.8-3.6.7-3.2-4.7-2.6-2.1-2.6.9-3.9.4-2.1 3 3.3 3.6-3.5 4.3-3.4-5.1-2.7 1.5-8.6 1-5.8-1.8 4.5-4.3-4.3-4.5-3.1.6-4.4-1.5-7.5-3.3-4.9-3.9-3.9-.5-1.2 2.7-3.9 1.5-.4-7-4.3 6.3-5.4-8.4-2.2-1-.7 4.5-2.4 2.2-2.2-3.9-5.2 2.3-4.8 4.1-4.8-1.1-3.9 2.9-2.8 3.7-3.3-.8-5-4.3-6-2.2v72.1l3.2.2 3.1 1.8 2.2 2.8 2.8 4.1 3.1-3.5 3.2-2 1.7 3.3 2.2 2.5 2.9 2.8 2 4.3 3.3 6.7 5.5 3.7v3.6l-1.7 2.7v2.8l3.9 3.9.6 4.3 4.1 2.2-.5 3.2 1.8 4.5 5.8 2.1 2.3 2.2 6.2 4.8h89.1v-1.9h1.1l.6 2.7 1 .8 2.2.3 3.3.8 3.1 1.5 2.6-.6 3.9 1.2 1.3-1.9 1.8-.8.7-1.2.7-.6 3 1h2.2c0 .1.8.8.8.8l1.1 2.7 3.6.7-.6 1.3 1.3 1.4-.5 1.8 1.3.6-.7 1.6h.9c0 .1.6-.5.6-.5l.6 1 2.4.6h2.4l2.6.5 2.9.9 1.1 1.4 2.1 3.5-1 1.5-2.6-.6-1.6-2.8.4 2.8-1.5 2.5.2 2.1-.3 1.2-2.1 1.5-1.5 2.4-.7 1.5 1.8.3 2.4-1.4 1.4-1.2.9-.2 1.8.4.9-.7 1.6-.5 2.8-.5-.3-1.3h-.1l-1 .3-1.3-.4 1-1.5 1-.5 2.3-.6 2.7-.6 1.4.8.9-1 1-.6.7.3 3.3-3.1 1.4-.8h10.8l.3-1.1 1-.2 1.4-.7 1.1-2.1 1-3.6 2.4-3.5 1.1 1.2 2.1-.8 1.4 1.4v6.3l2.1 2.6 3.6-.5h5.1c0-.1-5.6 3.6-5.6 3.6v3.8c.1 0 2.6.3 2.6.3l3.6-3.2 3.2-1.8 7.1-2.7 4-3-2.1-1.7-.3-3.5Zm-61.3-81.2 1.3-3.6-.8-1.4h-1.3c0-.1-1.2 1.9-1.2 1.9v.5c-.1 0 .7 2 .7 2l1.4.6Zm-163 41.6 1.8-2.7z"/><path id="CR" d="m346.1 500.2-1.7-.7-.7-.7.4-.6v-.7c-.1 0-1-.8-1-.8l-1.3-.6-1.1-.4-.2-.9-.8-.6.2.9-.6.8-.7-.9-1-.3-.4-.7v-1l.4-1-.9-.5.7-.6.5-.4 2.1.9.7-.4 1 .3.5.7.9.2.8-.7.8 1.8 1.2 1.3 1.5 1.4-1.2.3v1.3l.7.5-.5.4v.6c.1 0-.1.7-.1.7l-.2.6Z"/><path id="CU" d="m348.3 450.5 2.8.3h2.5l3 1.2 1.3 1.3 3-.4 1.1.8 2.7 2.1 2 1.5h1.1l1.9.7-.2 1h2.4c0 .1 2.4 1.5 2.4 1.5l-.4.8-2.1.4-2.1.2-2.2-.3-4.6.3 2.1-1.9-1.3-.9-2.1-.2-1.1-1-.8-1.9h-1.8c0 .1-3-.8-3-.8l-1-.7-4.2-.5-1.1-.7 1.2-.9-3.1-.2-2.3 1.8h-1.3l-.5.9-1.6.4-1.4-.3 1.7-1.1.7-1.2 1.5-.8 1.6-.7 2.4-.3z"/><path id="DO" d="m382.1 462.4.4-.6h2.5l1.9.9h.8l.6 1.1h1.8l-.1.9h1.4c0 .1 1.6 1.4 1.6 1.4l-1.2 1.4-1.5-.7h-1.5c0 .1-1.1 0-1.1 0l-.6.6-1.2.2-.5-.8-1.1.5-1.3 2.3-.8-.5-.2-1v-.9l-.8-1 .8-.6.3-1.3-.3-1.8Z"/><path id="GT" d="m323.2 482.3-1.6-.6h-2l-1.5-.7-1.7-1.3v-1l.4-.8-.4-.6 1.5-2.7h4.1v-1.1l-.5-.2-.4-.7-1.2-.8-1.2-1.1h1.5v-1.9h6v2.7l-.3 3.7h1l1 .6.3-.5.9.4-1.5 1.3-1.5.9-.2.6.3.7-.7.8-.8.2.2.4-.6.4-1.1.8z"/><path id="HN" d="m332.1 484.8-.5-1-1-.3.2-1.3-.4-.4-.7-.2-1.4.4v-.4c-.1 0-1.1-.5-1.1-.5l-.7-.7-.9-.3.7-.8-.3-.7.2-.6 1.5-.9 1.5-1.3h.3c0 .1.7-.4.7-.4h.9l.3.2.5-.2 1.5.3h1.5l1-.5.4-.4 1 .2.8.2h.8l.6-.4 1.5.5h.5l1 .7.9.7 1.2.5.8.9h-1.1l-.4.4-1.1.4h-.8l-.7.4h-.6c0-.1-.5-.7-.5-.7h-.3l-.4.9h-.3v.7l-1.1.9-.6.4-.3.4-.9-.7-.7.9h-1.5v1.6h-.4l-.4.8h-1Z"/><path id="HT" d="M377.4 461.8h2c0 .1 2.8.7 2.8.7l.3 1.8-.3 1.3-.8.6.8 1v.9l-2.2-.6-1.5.2-2-.2-1.5.6-1.7-1.1.3-1.1 2.9.5 2.4.3 1.2-.7-1.5-1.5v-1.3l-2-.5.7-.9Z"/><path id="JM" d="m363.3 466.6 2.2.3 1.7.8.5.9h-2.3l-1 .6-1.8-.5-1.8-1.2.4-.8 1.3-.2h.7Z"/><path id="MX" d="m300.6 441.2-1.2 3.1-.6 2.5-.2 4.7-.3 1.7.6 1.9 1 1.7.6 2.6 2.1 2.5.7 1.9 1.3 1.7 3.4.9 1.3 1.4 2.8-.9 2.4-.3 2.4-.6 2-.6 2-1.4.8-2 .3-2.9.6-1 2.2-.9 3.4-.8h2.8c0 .1 1.9-.2 1.9-.2l.8.7v1.6c-.1 0-1.8 2-1.8 2l-.8 2.1.6.6-.5 1.5-.8 2.6-.8-.9h-.7l-.6.1-1.1 2-.6-.4-.4.2v.5h-5.9v1.9h-1.5l1.2 1.1 1.2.8.4.7.5.2v1.1h-4.2l-1.5 2.7.4.6-.4.8v1l-3.7-3.6-1.7-1.1-2.6-.9-1.8.2-2.6 1.2-1.6.3-2.3-.9-2.4-.6-3-1.5-2.4-.5-3.6-1.6-2.7-1.6-.8-.9-1.8-.2-3.3-1.1-1.3-1.5-3.4-1.9-1.6-2.1-.8-1.7 1.1-.3-.3-1 .7-.9v-1.2l-1.1-1.5-.3-1.4-1.1-1.7-2.8-3.5-3.2-2.7-1.6-2.2-2.8-1.4-.6-.9.5-2.2-1.6-.8-1.9-1.7-.8-2.5-1.7-.3-1.9-1.9-1.5-1.8v-1.1c-.1 0-1.9-2.8-1.9-2.8l-1.1-2.8v-1.4l-2.3-1.5-1.1.2-1.8-1-.5 1.5.5 1.8.3 2.8 1.1 1.5 2.4 2.5.5.9.5.3.4 1.3h.6l.7 2.3 1 .9.7 1.3 2 1.8 1.1 3.3.9 1.5.9 1.6.2 1.9h1.6c0 .1 1.3 1.7 1.3 1.7l1.2 1.6v.6l-1.4 1.3h-.6l-.8-2.1-2.1-2-2.3-1.7-1.6-.9v-2.6c.1 0-.4-1.9-.4-1.9l-1.5-1.1-2.2-1.6-.4.5-.8-.9-2-.9-1.9-2.1.2-.3 1.3.2 1.2-1.3v-1.6c.1 0-2.4-2.6-2.4-2.6l-1.9-1-1.2-2.3-1.2-2.4-1.5-3-1.3-3.4 3.6-.3 4.1-.4-.3.7 4.8 1.8 7.3 2.6h8.9v-1.5h5.6l1.2 1.3 1.6 1.2 1.9 1.6 1.1 1.9.8 2 1.7 1.1 2.7 1.1 2-2.9h2.6l2.3 1.4 1.6 2.5 1.1 2.1 1.9 2.1.7 2.5.9 1.7 2.5 1.1 2.3.8h1.3Z"/><path id="NI" d="m337.3 491-1.1-1-1.5-1.3-.7-1.1-1.3-1-1.6-1.5.4-.5.5.5.2-.2h1c0-.1.4-.9.4-.9h.5v-1.6h1.5l.7-.9.9.7.3-.4.6-.4 1.1-.9v-.7h.4l.4-.8h.3l.5.4h.6c0 .1.7-.3.7-.3h.8l1.1-.4.4-.4h1.1l-.3.4-.2.7.3 1.2-.7 1.1-.3 1.3v1.4c-.1 0 0 .8 0 .8v1.5l-.4.3-.3 1.4.2.9-.7.8v.9c.1 0 .6.5.6.5l-.8.7-.9-.2-.5-.7-1-.3-.7.4-2.1-.9-.5.4Z"/><path id="PA" d="m362.4 503.4-1.1-.9-.7-1.7.8-.9-.8-.2-.6-1.1-1.6-.9-1.4.2-.7 1.1-1.3.8h-.7c0 .1-.3.8-.3.8l1.5 1.7-.9.4-.5.5-1.5.2-.6-1.9-.4.5-1.1-.2-.6-1.3-1.3-.2-.8-.4h-1.4v.7c-.1 0-.5-.5-.5-.5l.2-.6.3-.7v-.6c-.1 0 .4-.4.4-.4l-.7-.5V496l1.2-.3 1.1 1.2v.7l1.2.1.3-.3.9.8 1.6-.2 1.4-.8 1.9-.7 1.1-1 1.8.2v.3c-.1 0 1.7.1 1.7.1l1.4.6 1 1 1.2.9-.4.5.8 1.9-.6 1-1-.2-.4 1.6Z"/><path id="PR" d="m399.5 466.5 1.6.3.6.7-.8.8h-4.3l-.2-1.4.5-.5h2.6Z"/><path id="SV" d="m330.6 483.5-.4.8h-1.9l-1.2-.4-1.3-.7-1.8-.2-.9-.7v-.5c.1 0 1.2-.8 1.2-.8l.6-.4-.2-.4.8-.2.9.3.7.7 1 .5v.4c.1 0 1.5-.4 1.5-.4l.7.2.4.4-.2 1.3Z"/><path id="US" d="m193.7 316.7-1.8-2.1-2.8-1.8-.9-5-4.1-4.7-1.7-5.6-3.1-.4h-5.1c0-.1-3.8-1.9-3.8-1.9l-6.6-6.4-3.1-1.2-5.6-2.3-4.4.5-6.3-3-3.8-2.8-3.6 1.4.7 4.5-1.8.4-3.7 1.3-2.8 2.1-3.6 1.3-.5-3.7 1.4-6.3 3.4-2-.9-1.7-4.1 3.7-2.2 4.3-4.6 4.5 2.3 3-3 4.4-3.4 2.5-3.2 1.8-.8 2.6-5 3-1 2.7-3.7 2.4-2.2-.4-3 1.6-3.2 1.9-2.7 1.9-5.5 1.6-.5-.9 3.5-2.6 3.1-1.7 3.4-3.1 4-.6 1.6-2.4 4.4-3.5.7-1.2 2.4-2.1.5-4.6 1.6-3.6-3.7 1.9-1-1.1-1.7 2.2-2.1-3.1-.9 2.2-1.2-3.1-3.2 2.5h-2l-.3-3.7.6-2.3-2.1-2.3-4.2 1.2-2.7-3-2.2-1.6v-3.7l-2.5-2.8 1.2-3.9 2.6-3.9 1.1-3.6 2.6-.5 2.2 1.1 2.6-3.4 2.3.6 2.4-2.2-.6-3.3-1.8-1.3 2.4-2.9h-2l-3.4 1.7-1 1.6-2.5-1.6-4.5.8-4.7-1.8-1.3-3-4.1-4.5 4.5-3.3 7.1-3.9h2.6l-.4 4 6.8-.3-2.6-5-3.9-3.1-2.3-4.2-3.1-3.6-4.4-2.7L79 219l5.7-.3 4-4.1.8-4.5 3.3-4.5 3.1-1.1 6.1-4.3 2.9.7 4.9-5.3 4.8 2.1 2.3 4.4 1.4-1.9 5.4.6-.2 2.2 4.9 1.6 3.3-1 6.8 3 6.2.9 2.5 1.2 4.3-1.5 4.9 2.8 3.5 1.3v72.1l3.2.2 3.1 1.8 2.2 2.8 2.8 4.1 3.1-3.5 3.2-2 1.7 3.3 2.2 2.5 2.9 2.8 2 4.3 3.3 6.7 5.5 3.7v3.6l-1.8 2.6Zm201 39.4-1.4-1.4-2.1.8-1.1-1.2-2.4 3.5-1 3.6-1.1 2.1-1.4.7-1 .2-.3 1.1h-10.8l-1.4.9-3.3 3.1.3.6.2 1.7-2.4 1.5-2.6-.4-2.5-.2-1.5.5.3 1.3v.4l-2.7 2.6-2.4 1.2-1.6.6-1.9 1.2-2.3.6-1.6-.2-2-.9 1.1-1.7.7-1.5 1.5-2.4-.2-1.8-.6-2.6-1.2-.4-2 2h-.6l-.2-1.1 1.8-1.8.3-2-.3-2-2.4-1.8-2.7-.9-.4 1.7-.7.5-.6 2.2-.3-1.5-1.3 1.1-.8 1.5-.8 2.2-.2 1.9 1.1 2.7v2.9l-1.4 2.1-.7.6-.9.5h-1.1l-.3-.3-.9-2.3v-2.2l-.4-2.1.6-2.5.7-3.1 1.7-3.5h-.5l-2.4 2.9-.4-.5 1.3-1.6 1.9-2.9 2.2-.4 2.5-.9 2.5.5h.1l2.8-.4-1.6-1.8h-.9c0-.1-1-.3-1-.3l-.7-1.3-3.1.4-2.8 1-2.3-1.8-1.8-.6 1-2.5-2.8 1.6-2.6 1.5-2.5 1.2-2-1.6-3.2 1v-.7l2.2-2 2.3-1.9 3.3-1.6-3.9-1.2-2.6.6-3.1-1.5-3.3-.8-2.2-.3-1-.8-.6-2.7h-1.1v1.9h-88.7l1.1 4 .5 3.9-.8 1.2-1.7-4.5-4.6-1.6-.4.9.9 2.2 1 4 .6 6.2-.4 4.1-.4 4-1.3 4.1 1 3.3v3.7c.1 0-.6 3.5-.6 3.5l1.7 2.3.4 3.4 2.5 3.4 1.4 1.3v.9c-.1 0 2.6 5.5 2.6 5.5l3.1 3.9.4 2.1.8.6 3 .4 1.1 1 1.8.2.4 1.1 1.5.5 2.1 2.2.5 1.9 3.6-.3 4.1-.4-.3.7 4.8 1.8 7.3 2.6h8.9v-1.5h5.6l1.2 1.3 1.6 1.2 1.9 1.6 1.1 1.9.8 2 1.7 1.1 2.7 1.1 2-2.9h2.6l2.3 1.4 1.6 2.5 1.1 2.1 1.9 2.1.7 2.5.9 1.7 2.5 1.1 2.3.8h1.2c0-.1-.6-1.3-.6-1.3l-.2-1.7v-2.5l.8-1.6 1.7-1.7 3.2-1.6 2.9-2.7 2.7-.9 2-.3 2.3.8 2.8-.5 2.4 1.9h2.3c0 .1 1.2-.6 1.2-.6l1.2.5.6-.5-.7-.7v-1.5l-.5-1 1.3-.6 2.4-.3 2.8.4 3.6-.5 2 .9 1.6 1.7.6.2 3.2-1.7 1.2.6 2.5 3.1.9 2-.7 2.4.5 1.4 1.5 2.7 1.7 3.1 1.2.8.5 1.5 1.6.4 1-.4.8-2.2v-1.4c.1 0 .2-2.4.2-2.4l-1.5-4.2V431l-1.5-2.6-1.1-3.1-.6-2.6.5-2.6 1.5-2.2 1.8-1.8 3.5-2.5.5-1.3 1.6-1.4 1.6-.2 2.1-2.3 3.3-1.2 2-2.9-.4-3.9-.3-1.4-.9-.3v-3.8c-.1 0-2.3-1.3-2.3-1.3l2.1.6-.7-2.6.6-1.8.4 3.4 1.6 1.6-1 2.7.3.2 1.8-3.2 1-1.6v-1.5l-.8-.7-.7-2.2 1.1 1 .7.2.2 1.1 2.3-3.2.7-3-.9-.2 1-1.2v.5h2l4.5-1.3-.9-.8-4.7.8 2.7-1.2 1.9-.2 1.4-.2 2.4-.7h1.5l2.2-.6.3-1.2-1-.9.3 1.6h-1.3c0-.1-1.1-2.4-1.1-2.4v-2.3l.6-1 1.7-2.6 3.4-1.3 3.3-1.5 3.4-2.2-.5-1.5-2.1-2.6-.2-6.6Zm-273.8-57.7-1.7.9-2.9 2.1.5 2.8 1.6 1.5 3.2-2.2 2.8-2.8-1.4-1.9zm-52.1-32.6 2.3-1.4.3-.8-2.6-.8zm9.7 17.5-3.2 1.1 1.9 1.7 2.1 1.2 2-1-.3-2.5-2.5-.6Zm111.3 37.2-3.1.4-1.5-.7-.2 1.7.6 2.4 1.6 1.7 1.2 2.4 1.9 2.4h1.3l-2.8-4.2.9-6.1Zm-78.6 137.9-1.1-.3-.3.3v.2l.4.3.5.7 1.1-.2.3-.4-.8-.5Zm-3.4-.7h1.7c0 .1.1-.3.1-.3H108c0-.1-.2.3-.2.3m6.8 3.8-.6-.3-1.2-.6h-.2l-.2.3.2.7-.6.5-.2.4.5 1.2v.9l.7.5.5-.6 1-.5 1.3-.7v-.2l-.7-1.2-.5-.5Zm-9-5.9-.9.5h.1c0 .1.4.9.4.9h1.1c0 .1.2.2.2.2l.2-.2-.9-1.1-.3-.2Zm-5.1-1.8-.5.3-.2.3 1.1.6.4-.3v-.8h-.8Z"/></g></svg>