<?xml version="1.0" encoding="UTF-8"?>
<svg id="Layer_1" xmlns="http://www.w3.org/2000/svg" xmlns:amcharts="http://amcharts.com/ammap" version="1.1" viewBox="0 0 512 512">
  <!-- Generator: Adobe Illustrator 29.1.0, SVG Export Plug-In . SVG Version: 2.1.0 Build 142)  -->
  <g id="_x3C_defs">
    <amcharts:ammap bottomLatitude="14.1104187" leftLongitude="144.886365" projection="mercator" rightLongitude="145.8646485" topLatitude="20.5534826"/>
  </g>
  <g>
    <path id="MP-NI" d="M265.6,335.3l.6-.8-.6-1.6h-2.1s.4,2.3.4,2.3l1.6.2ZM268.9,307.9h-1.1c0-.1.6,1.4.6,1.4l.5-1.4ZM270.8,239.1l-1-2.4v2.2c0,0,1,.2,1,.2ZM267.4,201.1l2.4-5.3-.3-3.1-2.1.5-1.3,6.6.2,1.8,1.2-.5ZM265.4,148.7l.3-5-1.6-1.4-.5,4.9,1.8,1.5ZM251.6,45.4l-.6.5.7,1.6.7-1.8-.8-.3ZM241.2,4.4l.6,2.1.2-1.9-.8-.2Z"/>
    <path id="MP-SA" d="M268.4,418.5l-2.8,5-.4,7.8,2.1.5-.4-3.1,1.3-1.7,1.4-8-1.1-.4Z"/>
    <path id="MP-TI" d="M264,433.6l-2.1,4.2,1.5,7.9,1.3-5.2-.6-6.9Z"/>
    <path id="MP-RO" d="M250.6,507.6l2.5-5.4-.3-1.6-2.3,1.6-2.7,4,2.8,1.5Z"/>
  </g>
</svg>