<svg xmlns="http://www.w3.org/2000/svg" xmlns:amcharts="http://amcharts.com/ammap" id="Layer_1" viewBox="0 0 512 512"><g id="_x3C_defs"><amcharts:ammap bottomLatitude="14.11" leftLongitude="144.886" projection="mercator" rightLongitude="145.865" topLatitude="20.553"/></g><g><path id="MP-NI" d="m265.6 335.3.6-.8-.6-1.6h-2.1l.4 2.3 1.6.2Zm3.3-27.4h-1.1c0-.1.6 1.4.6 1.4zm1.9-68.8-1-2.4v2.2zm-3.4-38 2.4-5.3-.3-3.1-2.1.5-1.3 6.6.2 1.8 1.2-.5Zm-2-52.4.3-5-1.6-1.4-.5 4.9zM251.6 45.4l-.6.5.7 1.6.7-1.8zm-10.4-41 .6 2.1.2-1.9z"/><path id="MP-SA" d="m268.4 418.5-2.8 5-.4 7.8 2.1.5-.4-3.1 1.3-1.7 1.4-8-1.1-.4Z"/><path id="MP-TI" d="m264 433.6-2.1 4.2 1.5 7.9 1.3-5.2-.6-6.9Z"/><path id="MP-RO" d="m250.6 507.6 2.5-5.4-.3-1.6-2.3 1.6-2.7 4 2.8 1.5Z"/></g></svg>