<?xml version="1.0" encoding="UTF-8"?>
<svg id="Layer_1" xmlns="http://www.w3.org/2000/svg" xmlns:amcharts="http://amcharts.com/ammap" version="1.1" viewBox="0 0 512 512">
  <!-- Generator: Adobe Illustrator 29.1.0, SVG Export Plug-In . SVG Version: 2.1.0 Build 142)  -->
  <g id="_x3C_defs">
    <amcharts:ammap bottomLatitude="30.138063" leftLongitude="-31.265662" projection="mercator" rightLongitude="-6.189321" topLatitude="42.155269"/>
  </g>
  <g>
    <path id="PT-Aç" d="M128.2,240.2h.2c0,.1,0,.7,0,.7l.8.6h0c0,.1.2.7.2.7h-.3c0,0-.9,0-.9,0l-.4-.4h-.3c0-.1-.8.2-.8.2h-.1c0-.1-.2,0-.2,0h-.2c0-.1-.4-1.1-.4-1.1v-.3s.3-.2.3-.2l.5-.2.2.2v-.2c.1,0,.4,0,.4,0l.2-.2h.4c0,0,.3,0,.3,0h.2ZM113.5,217.6l1.3.6.4.6v.5c.1,0,.4,0,.4,0v.2c0,0,.8.2.8.2h.2c0-.1.9.4.9.4h0c0-.1.4,0,.4,0l.7-.2.9-.7.3.7h.4c0,0,.2,0,.2,0l.2-.2v.2c.1,0,.5,0,.5,0l.2-.2h.3c0,0,1-.4,1-.4l.3-.4.5.3.7-.2.4.2h1.4c0-.1.6,0,.6,0l.2.6v.4s-.2.4-.2.4v.5c.1,0-.5.8-.5.8l-.8.2-.8-.2h-.5c0,.1-.3.5-.3.5h-.2c0,0-.5.2-.5.2h-.6s-.4.2-.4.2h-1.1c0-.1-.3,0-.3,0l-.8-.2-.6.2-1.1-.9h-.3c0,0-.9-.2-.9-.2l-.3.2h-.3c0,.1-.9.2-.9.2l-2.8-2.3-.3-.6v-.2s.2-.3.2-.3l.4-.2v-.4c.1,0,.5,0,.5,0l.4-.3ZM60.7,200.9h.4s1.2.6,1.2.6l.7.8,1.1.2.2.3.6.3.2.3,2.7.5.5.4v.5c.1,0-.9.3-.9.3l-2-.2-.3.3-.8.4h-.3c0-.1,0-.6,0-.6l-.3-.2h-1.9s-1-.4-1-.4l-.2.2h-.4s-1.4-.8-1.4-.8l-.5-.9v-.9s.1-.4.1-.4l.8-.6h.4c0-.1.6,0,.6,0h.8ZM54.7,198.7l.9.3.3.3.5.2.5.5-.3.8.2.4-.5.2v.6s-.1,0-.1,0v-.2s-1.5.2-1.5.2h-.9c0-.1,0-.6,0-.6l-.2-.6h-.4s-1-.7-1-.7v-.3s.8-.2.8-.2h.7s.5-.7.5-.7h.4ZM62.8,195.9l.9.2,3.7,1.7h.4c0,.1.3.2.3.2h.4s.9.7.9.7h.3s.6.5.6.5l.3.2.7.2,1.3.8h.5c0,.1.9.8.9.8l-.4.3h-1.1c0,0-2.3-1.4-2.3-1.4l-1.6-.3-.9-.7h-.7c0-.1-1.7-1-1.7-1l-.3-.2h-.4c0,0,0-.4,0-.4h-.2s0-.3,0-.3l-1-.6-.8-.8h.2ZM84,194.7h.4c0,0,0,.3,0,.3h.2c0,0,0-.2,0-.2h.3c0,.1.1.1.1.1l1.1.2h.2s.1.2.1.2h.5c0-.1.8.5.8.5v.5c0,0,.4.2.4.2h-.3c0,.1,0,.3,0,.3l.4.7-.3.3v.2l-.4.2v.7c0,0-.5-.1-.5-.1h-.9c0,.1-.5-.1-.5-.1h-.8s-.3,0-.3,0v.3c0,0-.1.1-.1.1h-.2c0-.1.1-.4.1-.4h-.8s-.2,0-.2,0l-1.5-.9-.4-.5-.2-.6v-.5s.1-.3.1-.3v-.2c0,0,.2-.4.2-.4l.6-.3,1.6-.2ZM68.3,187.1l.8.3.8,1.3v.6c0,0-.3.1-.3.1h-.5c0,0-.3-.4-.3-.4h-.5s-.3-.2-.3-.2l-.5-.9.4-.4v-.3c0,0,.4,0,.4,0ZM6,177.7l-.4.5v.3c.1,0-.1,0-.1,0v.4s-.4.8-.4.8h-.5c0,.1-1.2,0-1.2,0l-.2-.5v-.2c.1,0,0-.4,0-.4v-.5c0,0-.1-.3-.1-.3l.2-.3v-.7s.5-.5.5-.5v-.3c0,0,.5-.1.5-.1v.4h.3,0c0,.1.6.3.6.3h.1c0-.1.2.6.2.6l.2.3h.2s0,.2,0,.2ZM6.5,170.7h.3c0,.1.1.7.1.7v.3c-.1,0-.7.4-.7.4l-.2-.8v-.6c.1,0,.5,0,.5,0Z"/>
    <path id="PT-ALE" d="M481.8,172.3l.8,1.9.6.3.7,1.1h.8c0,.1.2,1.1.2,1.1l.3.2.3-.2,1.1.7v1.2c0,0-.6.9-.6.9l.3,1.2,1.5,1.5-.3.7.2,1,.5.5,1.6.6-.3,1.3.2.3.6.2,1.5-.5.9.6.5,1,.2.8-1.9,3,.4.7v.4c-.1,0-.7.3-.7.3l-.6.9h-.7c0,0-1.6,1.8-1.6,1.8l-1,.6-.2,2.2.6.4-1.2,2.1-.4,1.7h.5c0,0-.8,1-.8,1h.4c0,0,.7.4.7.4l.2.7,2,2.9h.3c0,0,.3,1.3.3,1.3l1.1,1.5.3-.4h.8c0,0,.3-.4.3-.4l.7-.2.2.2.3-.3h.4s.1.3.1.3l-.7.8v.4s.3.2.3.2l-.7,1.3-.4,2.1h-1.1c0,0-.8-.5-.8-.5l-.5.4v.7c0,0-1.5,0-1.5,0l-1.1.5.2,1-.7,2-.7,1.2-2,1.5-.7,2.7-1,1.1v1.1c0,0-.4.1-.4.1l.2.7h0l-.6.2-.6-.2-.9.9-.9-.4-1,.2-2.1,1.2h-.7c0,.1,0,.4,0,.4h-.7c0,.1,0,.5,0,.5l-2,.2-.5.7.3.4-.8.3-.8.8-2.5-.5-1.7-1.2v-.5c.1,0-.2-.6-.2-.6l-2.7.3v.7c0,0-.7.5-.7.5h-1.2c0-.1-1.1-.9-1.1-.9l-1,.3-.4.6-.5-.6h-1.4c0,0-.4-.8-.4-.8l-1-.3h0l.3-2.2-.7-1.7.8-3.1-.6-.7.4-2.3v-1.5c-.1,0-.4-.8-.4-.8l-1.6-.7.9-1.4,1-2.9.4-3.7-.2-1.7-.7-1.9-1.3-1.5v-.4s1,1,1,1l.6,1.1h.2c0,0-.6-1.1-.6-1.1l.4.3h.8s.5.4.5.4l1.6.4-.9-1h-.4c0,0-.2-1.8-.2-1.8h0l1-.7h.8c0-.1-.3-1.7-.3-1.7l2.5-2.2.8-1.7h-1.1c0,0,.9-1.2.9-1.2l.6.3.9-1,.4.3.6-.8.7.4.4-.4h.3c0,.1.2-.3.2-.3l1,1.2.6-.2.4.5v.3c0,0,.5,0,.5,0v.4s.6.2.6.2l.4-.7-.5-.4-.3-.3-.4-.2.5-.7-2.3-1,1.1-2.3-.8-.4-.6-1.8-.9-.4-.2-.4.9-1.3,1.3-.6,1-.9,1-1.8,1.1.2,1.1-1.6v-.6c0,0,.5-.1.5-.1l.2-.4h.4s.2.5.2.5l1.2.7,2.8-1.3.3-.8-.4-.3-.2.2-.7-.9h-.4c0,0,0-.4,0-.4l-.8-.4v-.3s.5-.4.5-.4h0l.6-.8,1.1-.7.3-.6h.7c0-.1.2-.5.2-.5h0v-.6h.1l.8-.5.7.7,1.1-.9.9-.2h0Z"/>
    <path id="PT-ALG" d="M456.3,229.3l1,.3.4.9h1.4c0,0,.5.5.5.5l.4-.6,1-.3,1.1.8h1.2c0,.1.6-.4.6-.4v-.7c0,0,2.8-.3,2.8-.3l.3.6v.5c-.1,0,1.6,1.2,1.6,1.2l2.5.5.8-.8.8-.3-.3-.4.5-.7,2-.2v-.4c0,0,.6-.1.6-.1v-.3c0,0,.8-.1.8-.1l2.1-1.2,1-.2.9.4.9-.9.6.2.6-.2h0l.4.2.2.6.4.3v.4c-.1,0,.4,1.3.4,1.3l-.4.2.5.5v2s.4.9.4.9l-.2.6.4.6.3,1.6-.2-.2h-1.3c0,0-1.5.4-1.5.4l-4.3,2.8-2.5.6-.8.5-.4-.3-.6.2-1.2-.7-1.8-1.2-1.3-.3-2.4.5-1.2-.7-1.6.4-1.9-.8-1.7-.2-.9.4v.7c-.1,0-1.2-.2-1.2-.2l-1.3.6h-1c0,0-.5.5-.5.5h-.6s-1.1,1.2-1.1,1.2l-.3-.8h-.7s1.9-3.5,1.9-3.5l-.3-.8.4-.2.7-1.6-.3-1.3.6-.8.9-2.4Z"/>
    <path id="PT-C" d="M459.2,138l1-.2.8,2.7.9-.5-.2.8-.4.3.4.5-.4.6v.5c.1,0,.7.3.7.3l-.2.3.3.3.3-.6h1.2c0-.1.4.2.4.2l.5-.8h.4s.7.6.7.6l.4-.3.8.2.2.4.7-1.5-.3-.8.5-.2.7.4.5-.5.7.5.5-.2-.5-2.4.9-1.1h.8c0,0,.5.6.5.6h.6c0,0,.5-.3.5-.3l.4-1,.4-.2h.9c0,0-.5.7-.5.7l1,.3.5.6.8-.5.7.2v.8s1.3,0,1.3,0l-.4,1.4.5.8h.5c0,0,0-.2,0-.2l.6-.2.8,1.1.2-.7.5-.4h.9c0,0,1.3,1.6,1.3,1.6l1-1.6-.5-.4v-.7c.1,0,1.1.2,1.1.2l.9-.8.2-.9-1-.6v-.5s.6,0,.6,0l.2-.3,1.8.4.4-.7h.8c0,0,.4.7.4.7l-.4.2.3.9-.3.9.9.3.8-1.4,1,.2.8-.3.7-1.5h.9c0,.1.2.8.2.8l1.3,1.4.2,1.3.8.5.2.6v.4s-.5,0-.5,0l.2,1-.3,1.4.7,2.5-1,2.4.8.5v1c.1,0-.9,1.7-.9,1.7l.2,1,1.1,1.2-.2.9-1.4.9-.2.9-1.7.2-.3.5-.9.3-.4,1,.6,1.8,1.2.2,1.5,2.5-.4.9v1s-.4.4-.4.4v1.4s-.9,1.2-.9,1.2l-.7.3.2,1-.8,2.7-1,.3h-1.2c0-.1-.5.1-.5.1l-2.1-.4-1.7.7-2.4-.6h-1.7c0,0-.9.1-.9.1l-1.1.9-.7-.7-.8.4h0v.6h-.1l-.2.4h-.7c0,.1-.3.7-.3.7l-1.1.7-.6.8h0l-1.2-1h-1.1c0,0-.8,1.4-.8,1.4v.4c.1,0-1.2.1-1.2.1v-1.3c.1,0-.4-.7-.4-.7v-1.1s-.4-.5-.4-.5h-.7c0,0-1.9-.8-1.9-.8l.2-1.5h-.3c0,0,.2-1,.2-1l-.3-.9-.4.3-.4-.2v-.5s-1-.1-1-.1l.2,1.1-.5-.4-.7.6-.3-.2-.5.2-.6.6-.6-2.8-.6.5-.3-.2-.4.7-.9.6-1-.2-.9.6.3,1.1-.3.4.9.5-.3.8-1.1.6.6,2-.8,1.1-.4-.4-.2.2.2,1.3h-2.7c0,0-.7.3-.7.3l.3-1.7.4-.8-.4-.4-.4.3-.5-1v-.5c0,0,.4-.3.4-.3v-.4s-.5-.5-.5-.5l-.2-1.3h-.4c0-.1-.6.3-.6.3l-.9-.7h0l3.5-9.7v-1.3c-.1,0-.8-.7-.8-.7l1.6-5,3.5-15.5Z"/>
    <path id="PT-L" d="M451.4,170.2l.9.7.6-.4h.4c0,.1.2,1.5.2,1.5l.6.5v.4s-.4.3-.4.3v.5c0,0,.6,1,.6,1l.4-.3.4.4-.4.8-.3,1.7.7-.2h2.7c0,0-.2-1.3-.2-1.3l.2-.2.4.4.8-1.1-.6-2,1.1-.6.3-.8-.9-.5.3-.4-.3-1.1.9-.6,1,.2.9-.6.4-.7.3.2.6-.5.6,2.8.6-.6.5-.2.3.2.7-.6.5.4-.2-1.1h1c0,.1,0,.6,0,.6l.4.2.4-.3.3.9-.2.9h.3c0,0-.2,1.6-.2,1.6l1.9.9h.7c0,0,.5.5.5.5v1.1s.5.7.5.7v1.3c-.1,0,1.2-.1,1.2-.1v-.4c-.1,0,.7-1.5.7-1.5h1.1c0,0,1.2,1.1,1.2,1.1h0l-.6.4v.3s.9.4.9.4v.4c0,0,.5,0,.5,0l.7.9.2-.2.4.3-.3.8-2.8,1.3-1.2-.7-.2-.5h-.4s-.2.4-.2.4h-.6c0,.1,0,.7,0,.7l-1.1,1.6-1.1-.2-1,1.8-1,.9-1.3.6-.9,1.3.2.4.9.4.6,1.8.8.4-1.1,2.3,2.3,1-.5.7.4.2.3.3.5.4-.4.7-.7-.2v-.4s-.6,0-.6,0v-.3c0,0-.3-.5-.3-.5l-.6.2-1-1.2-.2.4h-.3c0-.1-.4.3-.4.3l-.7-.4-.6.8-.4-.3-.9,1-.6-.3-.9,1.1h1.1c0,0-.8,1.8-.8,1.8l-2.5,2.2.3,1.6h-.8c0,.1-1,.9-1,.9h0l-.3-.7-.4.4-.5-.3v.7s.2,0,.2,0l.5.4-.6.3.2.5h-.4v-.4c0,0-2-.8-2-.8l-.5.3-.2.5-.9.2-1,.8-.8.3-.9-.2v.2c-.1,0-1.2.1-1.2.1l-.5.5h-.5c0-.1.7-1.7.7-1.7v-1.4c.1,0-.6-2.2-.6-2.2l-.8-1.2,2.3-.7v.6s.3.3.3.3v.2c0,0,.4.6.4.6v-.6h.6c0,0-.3-.4-.3-.4l.7-.6.4.2h.5s.5-.5.5-.5l-1.1.2v-.7c.1,0,.6-.4.6-.4l2-.9-.6-1.7h-.3s-.4-.5-.4-.5l.2-.4-.3-.4v-1.2s-.5,1.1-.5,1.1l-1.3,1.7-.3,2-.5.9-1.9.5h-1.3c0,0-.8.5-.8.5l-1.3-.7-.8.3-1.2-.5.3-1-.5-.8,1.7-4.2-.2-1.5v-1.9c.1,0,1.4-2.5,1.4-2.5l.4-1.4v-1.5c0,0-.4-1.5-.4-1.5l-.2-.4-.7-.2.2-.2.9.3.9-.5,1.7-1.5,1.1-1.7h.7c0-.1-.2-.5-.2-.5l1.3-1.7v-.8c-.1,0,.7-3.3.7-3.3Z"/>
    <path id="PT-M" d="M314,406h-.4s0-.3,0-.3h.3c0,0,0,.3,0,.3ZM301.8,352.9l-.5-.3-.2-.5v-.6s.2.8.2.8l.5.6ZM300.2,348.9l.8,1.3.2,1.1-.5-1.2-.4-.3v-.8ZM287,341.8h.6c0,0,.3.5.3.5l.5.4h.4s.3.3.3.3l.8.2.7-.2.6-.4h1.1c0,0,.7-.2.7-.2l.6.7h.4c0,0,0,.3,0,.3l.5.3.3.5h.7s.1.2.1.2h.2s1,.3,1,.3l.6-.2.2.4-.3-.2-.2.2h-.4c0-.1-.5,0-.5,0l-.4.4v.2c0,0-.2.4-.2.4h-.3c0,0-.3.7-.3.7l-.5.6h-.4c0,0-.4-.1-.4-.1h-.8s-.7.3-.7.3l-.3-.2-.9-.3h-.4s-.8-.3-.8-.3l-.2-.2h-.6s-.6-.6-.6-.6l-1.6-.9-.7-.9v-.5s-.4-.5-.4-.5l1.5-1.4ZM303.4,338.4v.4s-.3-.2-.3-.2l.2-.4v.2ZM304.6,336.2l.3.2h.2c0,0,0,.9,0,.9h-.6s-1.2.9-1.2.9l-.3-.4h.2c0,0,.3-.5.3-.5v-.4s.5-.4.5-.4l.7-.3Z"/>
    <path id="PT-N" d="M468.6,106.6l.2,1.8,1.4-.3.6.9v.9c0,0-.9.3-.9.3l-.7.6-1.1,1.9.3,1h.6c0,0,.1,1.4.1,1.4l.7.3,1.5-.2.8-.4.7-1.1h1.1c0-.1.3-1.5.3-1.5h.4c0,.1-.1,1.8-.1,1.8l.2.3.9-.8h.9c0-.1.6-.5.6-.5l.4.2.7-.4.8.7h1.5c0,.1-.3.4-.3.4l-.2,1,1.7-.3.7-.8.9.3.5,1.4,1.2-1.2.2.3h.8c0,0,2.4-1,2.4-1l.4-1-.2-1.4.9-.6,1.1.4.4.7h1.2s.6-.7.6-.7l.4.2.3.6h2.4s.5-1.3.5-1.3h.6c0,.1.4,1.3.4,1.3l.5.2h2.2c0,0,.6-.8.6-.8l.8.6v.3c.1,0-.4,1.3-.4,1.3l1.1.4-1.1,3.4.4.5v1s1,.8,1,.8l.8-.3.3-.4,2.6.6,1.1.8.5.8.6.2.2.6-2.3,3.3.2.4-.7.6.3.6-.7.2-.3-.4-.4.2v.4c0,0,.3.3.3.3l-.8.3-.6,1.3-.8.2.2.4-.3.2h-.4c0,.1-.2-.2-.2-.2l-1,1-.3-.4-.2.3h-1c0,0-.8.9-.8.9l-.2.7-1.4,1.3.3.8-1.1,1.7-1,.3-1.1-.3-.3.2h-.9c0-.1-.7,1.4-.7,1.4l-.8.3-1-.2-.8,1.4-.9-.3.3-.9-.3-.9.4-.2-.4-.6h-.8c0,0-.4.6-.4.6l-1.8-.4-.2.3h-.7s0,.5,0,.5l1,.6-.2.9-.9.8-.9-.2v.7c-.1,0,.3.4.3.4l-.9,1.6-1.3-1.5h-.9c0,0-.5.4-.5.4l-.2.7-.8-1.1-.6.2v.3s-.5,0-.5,0l-.5-.8.4-1.4h-1.3c0,0,0-.9,0-.9l-.7-.2-.8.5-.5-.6-1-.3.5-.7h-.9c0,0-.4.3-.4.3l-.4,1-.5.2h-.6c0,0-.5-.4-.5-.4h-.8c0,0-.9,1.1-.9,1.1l.5,2.4-.5.2-.7-.5-.5.5-.7-.4-.5.2.3.8-.7,1.5-.2-.4-.8-.2-.4.3-.7-.6h-.4s-.4.9-.4.9l-.4-.3h-1.2c0,.1-.3.7-.3.7l-.3-.3.2-.3-.6-.3v-.5c-.1,0,.3-.6.3-.6l-.4-.5.4-.3.2-.8-.9.5-.8-2.7-1,.2h0l.2-1.5-.5-3.3-.5-.9h-.4c0,0-.5-4.3-.5-4.3l-1-2.1.2-1.7-1-5.2h-.4c0-.1-.7-2.1-.7-2.1l.3-1.7v-1.4c-.1,0,.9-1.3.9-1.3l.8-.2.6-.5.2-.8,1.5-.9.2-.8.5-.5h1.7c0-.1.4-.4.4-.4v-.4c.1,0,1.7,0,1.7,0l.4.3h.8c0-.1.4-.5.4-.5l.6.2.3-.5,1.2-.5.2-.5.5.2.5-.6.2.6Z"/>
  </g>
</svg>