<svg xmlns="http://www.w3.org/2000/svg" xmlns:amcharts="http://amcharts.com/ammap" id="Layer_1" viewBox="0 0 512 512"><g id="_x3C_defs"><amcharts:ammap bottomLatitude="17.881" leftLongitude="-67.952" projection="mercator" rightLongitude="-65.001" topLatitude="18.516"/></g><g><path id="PR-YU" d="m196.5 261.8-.6-.7h-1.7c0 .1-3.7 6-3.7 6l-11.6-2.4 7.1 22.7 4.4 12.7h1.1l9.4-32.3-4.5-6.1Z"/><path id="PR-YB" d="m355.3 269.6-5.4.8-1.7 5.1-12.6 2.9 3.7 3 2.5.8 21.1 7.8 9.4-10.5h-.2l-13.9-8.7-2.9-1.1Z"/><path id="PR-VL" d="m260 259.8-11.9 4.8.7 12 15 .5 1.8-11.4-4.3-5.6z"/><path id="PR-VQ" d="m427.6 275.7-.3.2.3.5zm15.1-3.6-.2.3.4.6-.2-1Zm-1.7-9.5-20.6 2.1-10.9 8.8 6 3.8 10.6-2.7 5 1.8 14.9-7.9 3 3.5 13.5-4.2-21.7-5.2Z"/><path id="PR-VB" d="m269.1 202.9-6.7 1.5-.9 20.7 5-.2 6.4 5 4.7-25.1-8.5-2Z"/><path id="PR-VA" d="m279.4 204.3-1.8.6-4.7 25.1 2.1 2 8-6.1 2.5-3-1.9-16.3-4.1-2.2Z"/><path id="PR-UT" d="m214.1 233.1-1.7-4-6.8 4.4-9.6.3v14.3c-.1 0 1.6 2.4 1.6 2.4l9.5-.2 11.7 2.6 3.9 11.6 3.5-1.1 4.2-15.9 10-9.2-6.8-5.4z"/><path id="PR-TJ" d="m337.5 223.5-6.3 2.1-.9 10.1.8.3 2.5.9 9.2-.9 4.4 3-9.7-15.6Z"/><path id="PR-TB" d="m305.6 207.3-4.3.6-8 2 1 11 9.5.9 4.7-7.6 5.3-5.1-8.2-1.9Zm.6-1.1-.5.8 1.1-.3zm7.3 0 .5 1.7.4-1.3z"/><path id="PR-TA" d="m303.7 221.9-9.5-.9-8.8 1.8-2.5 3 .6.3 6.3 6.5 11 .9 1.4 1.5 1.5-13Z"/><path id="PR-SI" d="m271.4 305.9-.6.4h.6zm.6-.1-.3.2.2.4v-.6Zm3.1-1.3-.9.4h1.2l-.4-.4Zm-10.7-20.3-4.3 11 11.2 7.9 8.3-7 1.2-6.9-16.3-5Z"/><path id="PR-SS" d="m168.9 222.5-7.2-1.5-4.4 15.7 2.6 3.1 1 .6 21.3 5.9 2.4-20.5-1 .2-4-4.9-10.8 1.4Z"/><path id="PR-SL" d="m345.7 250.7-8 4-9.4 16.8.2.6 2.4 1.3 4.7 5 12.6-2.9 1.7-5.1-.4-4.1-3.9-15.5Z"/><path id="PR-SJ" d="m316.1 206.7 7.1 5.2-4.3 2.8 4.7 23.7 2.4-1 4.3-1.6.9-10.1 6.3-2.1-6.4-12.6-15.1-4.1Z"/><path id="PR-SG" d="m160.4 261.7-2.8-1.1-5.9 4.4-2.4 7.8-1.5 8.9 9.2-1.2 12.2 1.9 1-16.4-9.8-4.4Z"/><path id="PR-SA" d="m294.4 306.1.5 1 3.9.3-4.4-1.4Zm-1.9-.8-.2.5.9.3-.7-.7Zm-5-1.9v.7l1.7-.1zm-1.1-.2-.6.5h.9zm.7-3.6-.5.3.8 1.2-.2-1.6Zm14.6-20.5-2.7-4.4-5.7 3.5-12.6 11-1.2 6.9 7.9 2.6.5 3.6 8.4.6v2.2l5.7-6.6v-9.1c.1 0 6.8-6.6 6.8-6.6l-7.3-3.8Zm-10 22.9.2.5-.7-.4h.4Z"/><path id="PR-SB" d="m179 264.8-8.8 1.2-1 16.4 4.2 3.6 3.5.4 9.2.9-7.1-22.6Z"/><path id="PR-RG" d="m366.5 215.8-6.3 7.9-.2 15.3 5.4 3.4.4.4h1.7l7.3-2.8 2.5 1.6 1.4-2 1.6-17-13.7-6.7Z"/><path id="PR-RC" d="M125.5 224.4 120 227l7.8 11.6 7.4-3-9.6-11.2Z"/><path id="PR-QB" d="m176.1 203.4-2.4.6-1.6 7 7.6 10.2 4 4.9-.5-21.2z"/><path id="PR-PO" d="m246.8 313 3.4-2.8-.5-.8zm-25.7-12.8-.4.5h.6c0-.1-.1-.5-.1-.5Zm21.7-1.4.2-.3-1.1.2h.9Zm.1-34.3-16.6-1.2-3.5 1.1-4.1 4-.8 27.6 27.2.6-2.3-32.1Z"/><path id="PR-PN" d="m208.7 297.8-.4.2 1 .2zm3.6-.9-.5.7.4.4v-1.1Zm-3.1-.8-.3.5 1.3.2zm5.7-.7-.4.6h.4zm-3.5-.8-1 .9 1-.2zm-2.4-23.3-3.2-3.7.4 17.1 4.7-1.3 1 5.4-3.7 3.3-1.2 4.9 5.4-3.6 5.4 2.7.8-27.6-9.6 2.9Z"/><path id="PR-PT" d="m330.9 273.3-2.4-1.3-.3.5-5 13.5 5.8-.5 4.8 10.3 18.9-.4-13.6-14.1-3.7-3-4.7-5Z"/><path id="PR-OR" d="m275.4 245.7-2.7-6.7-13.3 6.6-7.8.2-1.8 16.1-5.3.6-.7 1.8 4.3.2 11.9-4.8 1.3.3 5.3 2.4 6.9-2.2 3.8-11.9-1.9-2.8Z"/><path id="PR-NR" d="m300.8 233.5-11-.9-6 14.5 1 1.4 7-.7 10.3-5.6V235c.1 0-1.3-1.5-1.3-1.5"/><path id="PR-NG" d="m392.7 256.9-.2.5h.5c0 .1-.3-.5-.3-.5m-18-16.9-7.3 2.8-.3 13 5.7-1.2 9.1 5.9 13.5-5.8-4.1-8.4-14.1-4.8-2.5-1.6Z"/><path id="PR-MV" d="m266.4 224.9-5 .2h-3.2l1.3 20.4 13.3-6.6 2.2-7-2.1-2-6.4-5Z"/><path id="PR-MC" d="m157.7 212-.9-3.1-13 12.9.4 12.9h4.9l8.3 2.1 4.4-15.7z"/><path id="PR-MG" d="m140.8 243-6.8 1 6.1 11.1-4.7 6.5 3.6 2.8 9.5-.9 3 1.5 5.9-4.4 5.4-3.8-10.5-10.7-7.1 2.2-4.5-5.2Zm-56.9-21.3-1 1.1 1.8 1.1-.8-2.3Z"/><path id="PR-MG2" d="m19.2 269.8-12.3 1.5-2.2 5.7 12.7 4.4 4.9-5.8zm-15.1-7-.5.6.8.2z"/><path id="PR-MB" d="m341.8 282.1-2.5-.8 13.6 14.1 10.1-5.5-21.1-7.8Z"/><path id="PR-MR" d="m170.3 254.5-7.3 2.2-5.4 3.8 2.8 1.1 9.8 4.4 8.8-1.3 11.6 2.4 3.7-5.9-10.5-3.1z"/><path id="PR-MT" d="m262.4 204.4-16.3 1.3-1.4 13.4 1.4 2.6v7c.1 0 12.2-3.6 12.2-3.6h3.2l.9-20.6Z"/><path id="PR-LQ" d="m385.1 221.8-4.9.7-1.6 17 1-1.1 11.8-4.8 2.6-7-8.8-5Z"/><path id="PR-LZ" d="m338.7 209.6.3.3v-.2h-.3Zm.3.3 12.2 9.8 8.4-1.4.5 5.5 6.3-7.9-11.8 1.4.2-6.6-15.8-.6Z"/><path id="PR-LP" d="m365.7 242.8-.4-.4-2.8 3.7-13 20.2.4 4.1 5.4-.8 2.9 1.1 8.9-14.8.3-13h-1.7Z"/><path id="PR-LM" d="m160.9 240.4-1-.6-7.5 6.3 10.5 10.7 7.3-2.2 13.5 3.6-1.6-11.8-21.3-5.9Z"/><path id="PR-LR" d="M196 248.1v-14.3c.1 0 .5-3.6.5-3.6l-11.8-4.4-2.4 20.5 1.6 11.8 10.5 3.1h1.7c0-.1 1.7-10.8 1.7-10.8l-1.7-2.4Z"/><path id="PR-LJ" d="m149.8 303.9.3.3h1.1zm13.5-.7-.4.2h.6c0 .1-.2-.2-.2-.2m-5.5-.2-.2.3h.5zm1.8-.4-.5.3h.4v-.3Zm6.5-1-2 .5h2.2c0 .1-.2-.5-.2-.5m2.7-.8-1.5.6 3.1.2zm-8.5-2.1-.9.5 1.5-.9-.6.3Zm-3.3-18.2-9.2 1.2v19.9c-.1 0 8.1-5.2 8.1-5.2l13.6 4.2 3.9-14.5-4.2-3.6-12.2-1.9Z"/><path id="PR-JC" d="m353.9 244.5-2.3-.9-.4-.3-5.5 7.4 3.9 15.5 13-20.2-8.6-1.6Z"/><path id="PR-JD" d="M259.3 303.9v1.8h.5zm-15.5-39.5-.9.2 2.3 32.1 14.9-1.4 4.3-11-.6-7.1-15-.5-.7-12-4.3-.2Z"/><path id="PR-JY" d="m241.5 239.1-1-.9-10 9.2-4.2 15.9 16.6 1.2.9-.2.7-1.8-3-23.5Z"/><path id="PR-IS" d="m150.9 199-2 .5.9.2 7.1 9.3.9 3.1 4.1 9.1 7.2 1.5 10.8-1.4-7.6-10.2 1.6-7-22.8-4.9Z"/><path id="PR-HU" d="M372.4 279.4h-.2zm11.1-16.1h-.8v1.1zm-10.7-8.6-5.7 1.2-8.9 14.8 13.9 8.7 9.8-18.8z"/><path id="PR-HO" d="m148.6 263.5-9.5.9 10.1 8.4 2.4-7.8z"/><path id="PR-HA" d="m201.4 203.1-7.1 1.1 2.2 26-.4 3.6 9.6-.3.8-28.6z"/><path id="PR-GR" d="m342.8 236.1-9.2.9 4.1 17.6 8-4 5.5-7.4-4-4.2-4.4-3Z"/><path id="PR-GB" d="m318.2 212.7-3.3 2.8-2.1 26.1 10.8-3.2-4.7-23.7z"/><path id="PR-GL" d="m204.3 267.6-3.3.3-9.4 32.3 16.8-8 3.7-3.3-1-5.4-4.7 1.3-.4-17.1h-1.6Z"/><path id="PR-GM" d="m328.3 272.6-12.5 1.9-.4 10.4-6.4-2-6.7 6.6v9.1c-.1 0 5.2 3 5.2 3l-6.9 4.5 24.8-8.1-2-11.9 5-13.5Z"/><path id="PR-GC" d="m188.1 302-.2.6h.6zm-16.9-.4-.2.4h.8zm5.7-15.1-3.5-.4-3.9 14.5 9.9 4.6-.4-8.3 11.5 3.2-4.4-12.7z"/><path id="PR-FL" d="m246 221.7-1.4-2.6-7.8 2.7-.5 9.3 9.7-2.5v-7Z"/><path id="PR-FJ" d="m404.2 235.3-.4.4.5.3v-.7Zm-2-5 .5 1.2.2-.6-.8-.6Zm9-1.9h-1.1c0 .1 1 1.6 1 1.6v-1.6Zm6.6-2.3-.5.8.8-.2-.3-.7Zm-2.9-1.2-.5 1.1.7-.5-.2-.7Zm-1-.1.2-.3-1 .8zm-3.1-1.8-.3 1.4 1.2-.4zm-8.1-1-8.9 4.7-2.6 7-11.8 4.8 2.6 4 17.9-1.6 2.8-18.8Zm4.4-.6.2 1.5 2.1.5-2.3-1.9Zm-1-1.2h-.4l.1.5.2-.5Z"/><path id="PR-DO" d="m291.2 205.4-7.7 1.1 1.9 16.3 8.8-1.8-1-11 8-2z"/><path id="PR-CU" d="m465.6 238.2-.3.2.5.2zM452 235l-1.9 1.2 2.2 2.7-.3-4Zm17.5-1.4-1.9.9 2.8 1.7-.9-2.5Zm-26.1-.5 1 .9v-.8c-.1 0-1-.1-1-.1m-2.2-1.8v1c.1 0 .4-.7.4-.7zm27.4-.7-.2.3.8.3-.6-.7Zm-4.1-.4-1.9.4 3.6 1.2-1.8-1.6Zm-14.1-1.5 8.7 13.3-2.4-5.9 9.8 1.1-16.1-8.6Z"/><path id="PR-CZ" d="m283.4 226.1-.6-.3-8 6.1-2.2 7 2.7 6.7 1.9 2.8 6.5-1.4 6-14.5-6.3-6.5Z"/><path id="PR-CM" d="m305.2 245.9-.4-.5-2.7-3.3-10.3 5.6.5 10.8 3.9.2 5 2 7.3-9.2-3.3-5.7Z"/><path id="PR-CO" d="m266.6 262.5-5.3-2.4 4.3 5.6-1.8 11.4.6 7.1 16.3 5 12.6-11-10.8-9 1-4.6-10-4.3z"/><path id="PR-CD" d="m312.8 251.8-4.3-.2-7.3 9.2-5-2-.3.8 4.4 6.7 13.9 1.3 6.9-6-3.9-7.4-4 2.2-.4-4.5Z"/><path id="PR-CL" d="m258.2 225.1-12.1 3.6-9.7 2.5-2.8 1.7 6.8 5.4 1 .9 3 23.5 5.3-.6 1.8-16.1 7.8-.2-1.3-20.5Z"/><path id="PR-CB" d="m409.9 246.9-.9.6h.6c0 .1.2-.6.2-.6Zm-1.7-.8h-2.4l.2 1.4zm-26.1-3.7-2.6-4-1 1.1-1.4 2 14.1 4.8 4.1 8.4 12.1-3.8-7.6-10.1-17.9 1.6Z"/><path id="PR-CY" d="m325.6 266.7-4.5-5.2-6.9 6-13.9-1.3-1.3 8.6 2.7 4.4 7.3 3.8 6.4 2 .4-10.4 12.5-1.9.3-.5-.2-.6-2.8-4.7Z"/><path id="PR-CT" d="m313.8 209.2-5.3 5.1 1.8 1.7 4.6-.5 3.3-2.8z"/><path id="PR-CN" d="m338.6 209.5-7.5 1.4 6.4 12.6 9.7 15.6 4 4.2.4.3-.5-23.8-12.2-9.8-.3-.3-.1-.2Z"/><path id="PR-CV" d="m359.6 218.3-8.4 1.4.5 23.8 2.3.9 8.6 1.6 2.8-3.7-5.4-3.4.2-15.3-.5-5.5Z"/><path id="PR-CA" d="m189.3 203.3-6.1 1.6.5 21.2 1-.2 11.8 4.4-2.2-26-5-.9Z"/><path id="PR-CG" d="m331.1 236.1-.8-.3-4.3 1.6-.2 1.2-8.6 15.5 3.9 7.4 4.5 5.2 2.8 4.7 9.4-16.8-4.1-17.6-2.5-.9Z"/><path id="PR-CR" d="m149.7 305.7-5 .8 2.8.6zm-14.3-44.1-4.8 24 6.5 2.9-7.1 4.6-.3 7.4 18 1v-19.9c.1 0 1.6-8.9 1.6-8.9l-10.1-8.4-3.6-2.8h-.1Z"/><path id="PR-BY" d="m310.2 216-1.8-1.7-4.7 7.6-1.5 13v7.2c-.1 0 2.6 3.3 2.6 3.3l8-3.8 2.1-26.1-4.6.5Z"/><path id="PR-BQ" d="m284.9 248.5-1-1.4-6.5 1.4-3.8 11.9 10 4.3 12.3-5.1.3-.8-3.9-.2-.5-10.8-7 .7Z"/><path id="PR-BC" d="m241.3 203.6-4.3 1.1-.2 17.1 7.8-2.7 1.4-13.4-4.8-2.1Z"/><path id="PR-AR" d="m331.7 297.9 2.2-2.1-4.8-10.3-5.8.5 2 11.9z"/><path id="PR-AC" d="m230.1 203-23.7 1.8-.8 28.6 6.8-4.4 1.7 4 19.5-.2 2.8-1.7.5-9.3.2-17.1-6.9-1.6Z"/><path id="PR-AN" d="M149 234.6h-4.9l-9 1-7.4 3 6.3 5.4 6.8-1 4.5 5.2 7.1-2.2 7.5-6.3-2.6-3.1-8.3-2.1Z"/><path id="PR-AI" d="m295.9 259.5-12.3 5.1-1 4.6 10.8 9 5.7-3.5 1.3-8.6-4.4-6.7Z"/><path id="PR-AB" d="m325.8 238.6.2-1.2-2.4 1-10.8 3.2-8 3.8.4.5 3.3 5.7 4.3.2.4 4.5 4-2.2z"/><path id="PR-AL" d="m149.7 199.7-.9-.2-10.7 4.6.9 13.1v1.3c.1 0 4.7 3.4 4.7 3.4l13-12.9-7.1-9.3Z"/><path id="PR-AD" d="M139.1 218.4v-1.3c-.1 0-13.7 7.2-13.7 7.2l9.6 11.3 9-.9-.4-12.9-4.6-3.4Z"/><path id="PR-AJ" d="m207.2 250.3-9.5.2-1.7 10.7.6.7 4.5 6.1 3.3-.3h1.6l3.2 3.7 9.6-2.9 4.1-4-3.9-11.6-11.7-2.6Z"/></g></svg>