<?xml version="1.0" encoding="UTF-8"?>
<svg id="Layer_1" xmlns="http://www.w3.org/2000/svg" xmlns:amcharts="http://amcharts.com/ammap" version="1.1" viewBox="0 0 512 512">
  <!-- Generator: Adobe Illustrator 29.1.0, SVG Export Plug-In . SVG Version: 2.1.0 Build 142)  -->
  <g id="_x3C_defs">
    <amcharts:ammap bottomLatitude="-21.389622" leftLongitude="55.2164053" projection="mercator" rightLongitude="55.8365536" topLatitude="-20.8717557"/>
  </g>
  <path id="RE" d="M195,32.2l-39.6,6.9-64.8,40.3,2.2,8-32.8-8.6-5.6,63.8L5.8,175l3.4,37,53,71.1-5.2,36.7,10.2,23.5,37.6,44.3,40.2,9.2,25.2,26.3,51.9,26.2,54.1,19.5,28.7-2.5,18.9,13.6,134-18.9,26-25.1-4.7-66.8,27.1-86.4-7.4-14.7-35.5-17.2-35.9-46.8-28.3-45.5-4.8-45.8-36.4-41-48.3-18.5-96.7-9.2-17.9-11.8Z"/>
</svg>