<svg xmlns="http://www.w3.org/2000/svg" xmlns:amcharts="http://amcharts.com/ammap" id="Layer_1" viewBox="0 0 512 512"><g id="_x3C_defs"><amcharts:ammap bottomLatitude="46.749" leftLongitude="-56.406" projection="mercator" rightLongitude="-56.127" topLatitude="47.145"/></g><g><path id="PM-ML" d="m156.8 406.6-.5.4h-1.7l-.5-.7h-1l-1 1.1h-1l-.7-1.1H149l-3.1 2.1h-1l-1.4.7-.2-.4-.7.4h-1.5c0-.1-.9 1.1-.9 1.1l-.6 4.4-.8.8-.8-.3-1.3-1.4v-.6l.7-.3 1.1-1.5-.5-1.4.2-.7 1-1.1.5-1.4 1-.4v-.4l-2.2-3.1-.7.4-.5-.4-1-2.1.2-.4-.2-1-1.2-1.7.3-.9 1-.6-.3-.9 1.1-.6.8-1-.2-.7 1.6-.2.6-.5.4-.8-.2-.8.2-.3h.7l1-1.4 1-2.7h.9l1.2-.9 4.2-5.1.6-.2.2-1.9h.6l.1-1.1h1.2l1.1-1.1v-.9l.6-.7h.8c0-.1.6-1.1.6-1.1l-1.1-1 .2-1 1-1.1h.7l2.3-1.9 4.1-.7 9.9-4.8 2.7-.6.2-.3 2.6.3 1.2-2.8 1.2-1.4 1.4-1.1 1.4-.4 1.7-1.4 1.4-2.1.2-1.7 2.1-3.5.9-.6.6-1.1v-9.4l.5-2.5-.7-3.5 1-3.2 3.1-5.3h1.4l.2.4 1.2-.4.7.4 1.2-.7 1.4-2.8.5-1.8v-1.4l1.2-4.5.2-4.2.7-3.5-.5-1.4.5-2.1-.2-1.4.2-9.7-.5-9.9-2.4-17.9-1-2.1.2-1.4-.7-3.5-.7-1.4-.2-2.8-.5-.7.2-1-.5-1.4v-1.4l-1.2-3.2v-1.8l-.7-1.8.2-1-1.4-2.1-.2-3.5-1-2.1-1.4-5.3-.7-1.8-1.4-1.8.5-1.1-.5-2.1-1.7-2.8-1-2.5-.6-3.2-4.3-10.8-.9-3.2-2.2-5-.9-.9.5-.7-1-1.2-.2-1.6-.8-1.5-.6-.2-1.4-2.9-1.7-1h-.8l-2.8-3H167l-1.2.6-.8 1.8h-1.4l-.7-1 .2-.5h.9l.6-.9-.4-1.4-1.4-.3-2.4-2.5h-.8c0-.1-1 .4-1 .4l-.6-3.2-1.1-2.2-.8-.5h-.5c0 .1-1-1.2-1-1.2l.2-1.8-.5-.4-.2-1.8 1.1-1.7-.8-1.1v-1.1l-1.3-1.8v-1.9c.1 0-.4-2.3-.4-2.3l-.7-1.1.6-2.1-.6-.6.2-3.6.5-.4.2-4.2.5-.3-1-3.5V134l-.5-.4-1.7-4.9v-1.1l-.5-.4-.5-4.9-.5-.4v-3.2l.5-.4v-1.4l1-1.8.2-1.8 1.2-2.1v-1.8l1-.7 1.2-1.8.2-1.5.5-.8-.9-1.2.7-3.7-.7-1.1.7-1.2v-1.8l-.6-1.4.7-1.1v-.7l-1.7-3.5.2-.7-.2-3.2-1.4-2.1-.4-3.2-1-1.3.5-2.5-1-1.1 1.2-2.1v-1.4l-.2-2.7-1.2-4.7-.9-1.8-1-.4-1.2-1.5-1.3-1h-.5l-.7 1.2-.9-.6-2.4-.6-.5-.6v-.7l-1-1.4.2-.4-.2-1.4 1-2.8-.7-1.4v-1.4l1.3-3.2v-1.1l3.5-3 .3-.8-.5-.5v-.7c.1 0 .6-.4.6-.4v-.7l1.3-3 1.3-1.9.2-1.4-.5-1.1v-1.1l1-1.4v-.7l.7-.3 1.2-1.8h.5l.7-.7h.7l.2.4 1.4-2.1.9 1.1.2-2.4 1-.8h.5l1.2 1.8v-1.1c.1 0 2.2-1.8 2.2-1.8h1.1l2.8 2.9 1.2-.3.3-1.1 1 .2.4-1.2h1.3l2.4-2.5 1.7.7 1.2-2.1-.2-1.1 1.2-1.4h1.9l.7-.7h1.4l2.4-3.2h.5l1.4-1.8 1-.3 1.4-1.4 1.9-.3.5-1.1h.5l2.6 2.1-.5 2.1.2 1.4-.5 1.4 1 3.9-.7 3.5.7.7-.7 1.1-1-.4-.5.7-1.7 1.1h-1l-.5.7h-1l-1.9 1.4-.7 1.1-.7-.3-1.9.3-2.9 3.5-1.7 2.8-.2.7.2.7-.7 1.1h-.3c0-.1-1 .6-1 .6l-.6-.3-.7 1.1-1.8 1.4-1.1-.3-2.2 2.5-1.9.4-.2.4-1.7-.4-1 .7h-2.9V41l-1 .4-.2 1.1-.7.4v2.5l.5.7-.2 3.5.5 3.5 1.4 4.6 1.4 1.8 1.2 1.1h.5l.5.7v1.1l2.2 3.2 1.2.4 1.7 2.5 1.4-.4v1.1l-.7 1.4-.5.4h-1.4l-.2.3-1.4-.3-.2-.4-.2.4h-1.7l-.2.3-2.9-.3-.5.5h-1.5l-.5-.6h-.7c0-.1-2.6 0-2.6 0l-.3.3v4.2l-.4 1.4 1 1.1.7 1.8 1.7 6.7v2.1l.5 1.1v4.2l.4 2.5-.2 7.7.5.4.7-.7.2-2.5 1.7-2.5-.2-1.4.5-1.4-.7-1.4v-1.1l.5-1.1 1.9-3.2 3.1-3.5.8-1.4h.3l2.7-4.6.7-3.2-.3-3.1-.9-1.5.2-.4 1.1.6 1.9-1.5 2.1-.8.5-1.1 1.9-1.8 1.7-.4.5-.7 1.4.4.5-.7h.5l1.2-1.1 1.9-.4 2.9 1.8h.7l.2-.4 1.2.4 6.2 6.3 3.4 1.4.5.7 1.9-.4 7.9 11.2.5-.4 1 .4 1.7 2.1 1.9 1.1.7 1.1.5.4h1.2l2.9 2.5 1.9 1.1 1.9.4.7 1.1h.5l.7.7 1.9.4.7 1.1 1.9 1.1 2.6.7 1.7 1.1h2.2l1.7 1.1h1l1.2 1.1 3.1.3.5.7 1.9-.4 1.7.7 2.2-.7.7 1.1h1.4l2.2 1.1h1.2l1 1.1h.5l1 1.4h1l.2.4h.7l.2-.4.5.7 1.4.4.7.7h.7l.5.7v2.1l1 1.4.5-.4 1.4.7 1.2-1.1.2.4-.2 1.4 1 2.1v6l.5 1.8-.2 1.4.5 1.1-.2.7.2 3.2.5 1.1-.2 1.8-.7 1.4v1.4l1.4 2.1 1.7.7v2.5l-.5.7h-.7l-1 1.1-1.4 2.8 1 1.8-.7.4-3.4 7.4-1.7 2.8.2 1.8-.5.7v1.1l-3.6 8.1-.2 1.8-1.7 4.2-1 5.3-1.7 3.5-1 6.7-1 1.4h-.7l-1.4 2.5h-.5l-.7 1.8-1.7 2.1-.5 1.1-.2 2.5-.7 1.1-1 .4-1.2-1.4h-1.2l-3.1 2.1-2.4.4-.7 1.8h-1.2l-.7 1.1-1.2.7v.4l-2.2.7-1.4 2.1h-1l-.5.7.2 1.1h-.5l-1.7 3.2h-.7l-.7-1-1.7.4-1.2-1.1h-.5l-1-1.4 1.4-2.1 1.4-.4 1.9-2.8 1-.4 1.9-2.8.5-.4.7.7h.7l1-2.1v-3.9l-.5-.7-.2.4-1.7-2.5-.5-1.4-1.2-.4-.7-1.3.5-3.7 1.4-1.3.7-1.6-.7-.5-2.2 1.1h-8.1c0 .1-.8 1-.8 1H215c0 .1-.7.9-.7.9v2l-.7.7h-.8c0-.1-.2.2-.2.2h-.7l-.7.7-.7-.7-.7.4-.2-1.1h-.5l-.7 1.1-.7.3-1.7-1h-1.7l-.7-.7-.5.4h-.6l-1.8-1.8-3.2-1.2-2.1-.3-2.3-.9h-4.8l-4.1-1.7-4.8-1.2-2.7-1.6-.7.7 1.6 3.1v1l1.1 1.2.7 2.9 2.2 4 .7 2.7 1.4 2.1 1.6 3.6 1.5 4.8.2 2.2 1.8 4.5v1l1.7 1.8h.5v1.1l1 2.5h.7l.2-.4.5.4.2 1.8 2.2.4 1.2 1.1h4l3.6-2.7 1.3-1.5 1-2.1-.2-.4 1.4-1.8.2.4 6.5-6 .7 1.4-.7.7v.7l.2.4h.7l.7 1.4 1.4.7 1 1.1 1-1.8.5.7.5-.4.5 1.1h.7v1l-1.4 1.4-.7 2.1-2.4 4.2-.2-.4-.2.4-.7 2.1v1.1l-2.5 5.3-2 5.5-2.4 9.3-2 11.7-1.8 8-.4 6.9.2 2.5-.5 1.1.2 3.9-.2 3.2 1 2.8v.7l-.7 1.1 1 2.1-.5 1.4 1.7 6.7-.2 1.1 1 2.1v1l5.3 9.1v1.1l.2.4h1l.7-.7 1.2-.4.5-.7.7.4.7 1.1 2.2.4 1.2-.7.5.7h.7l2 1.7 2.1.5-.2 1.1 2.3 3.3.8.2.9 2 4.5 3.5 2.9-2.1.9.6 2-1.4.3-.9 1.3-.3.8.2 1.4-1.6h1.1l1 .7 1.4.3 3.6-1 1.9 1.4.7 1.1 2.2 2.4 1.9 1.1.2 1.4 4.8 2.5.2.7 4.6-1.4.2-.4h.9l1.1-.5.6-1.2h1l1.2 2.1.7 3.5-.2 1.1-.7-.4-.7.4-.2 1.7.2 2.7 1.2.6v.8c.1 0-.5.7-.5.7v1.7l.6 1.6 3.7 3.5.3 2.4 1.7.5.3.6h.5v.8h-.4l-1.3 2.7v.7l.7.7-.2 1 .5.7h.7l.2.7-.2 2.8.7.7.2 1.1-.2.4h-1.2l-.2 1.4-1.2 1.7 1.2 2.1-.7 1v.7l.7.4 1.2 1.7-.5.7v1.4l-2.6 3.5.2 1.7-1 1.7-1.2 3.8-1.4 1.7-1.2.7-2.6 3.1h-.7l-1.7 2.8-1 .4-1.7 2.4-1.9 1.7-3.4 1.4-1.4 2.1h-.7l-1.7 1-1 2.1-3.3 1.8-3.2 4.2-.7.7h-.7l-1.2 1.4-1.7.7-2.9.4-.7.7-2.4 1-1.7 1.7-.5-.3h-1.2l-.5.3-5 6.3-2.6 1.4-.5 1.1-3.1 2.4-1.4 1.7h-1l-1 .7H219l-.5.7-1.2.4-.7 1-1.2 1.1-1 .4-.7 1-3.1 1.6-2.2 3.3-.7.7h-.5l-2.4 3.1-2.2 4.5.5.4-2.2 2.4-2.4.3-1.4-1.7-1.4 2.4-1.2.7-1 1.4.2.4-.2.7-.7-.3-1 .5-2.5 2.7-4.3 2.3-1.3.3-.6-.5 1.4-1.7-1.6-1.9 1-3.8-.6-1.1h-.9c0 .1-.4.7-.4.7l-.7-1 .5-.7v-1.1l1.4-2.4-.5-.7h-1l-1-1.2-1.8-1h-1.1v1.1c-.1 0-.9.3-.9.3l-.2.7-1.2.4-.5-1.2.2-.8-.4-2.4-1.3-.7-.6-1.4-1.2-.5-1.4.4-3.1 4.2-.2 1.1-1.9 2.8-1-.7-.2-1.4-.7-1V448l-.6-.6.5-3.1-1.4-.2-.5-1.4h-.6l-.5-.6v-1l1.3-1.7 2.1-5.5-.7-1.2.7-2.4v-1.8l1.4-1.4.2-1.7.7-1-1.2-2.1 1.7-3.1V415l-.5-1.8-.7-1-2.6-2.1h-.7l-.7-.7h-.5l-1.4-1.4h-1.9l-.2.4Z"/><path id="PM-SP" d="m344.2 410.1.2.4h2.4l.5.7 1.4.3 1.4.7v.4l-.7 1-1.4.7-1 1.4-.7.4-.2-.4h-1.7l-.2.4H343l-1.4.7-.5-.4-.5.4h-1.9l-1-.7h-1l-1.7-1.7 2.2-2.4 1.2-.7h1l1.4-.7h.7l.7.7.7-.7 1.2-.4Zm-1.7 10.9.7.7h.5l3.4 4.2 1.7 1.6.3-.3.9.5.8 1.1.5 1.4-.3 1.4 1.1 1.3v3.4c.1 0 1.2 2.2 1.2 2.2l-.3 1.5-.5.3.2 1.2-.4 2 1 1.5-.2.7h-.5l-.7 1-1.2.7-1.9 2.4h-.7l-1.4 1.4-1-.7v1.1h-.5l-1.2 1-3.1 4.5v.9l1.9.7.9-.6h1.2l.5 1.1-.5.7-1.4.4-1.2 2.1-1.4.4-.2 1.7-1.2 1v1.4l-1.4 2.1-.5.4h-1.9l-1 1.7.5.7h.5l1 1.4.5-.7 1.2 1v1l.7.7 1-1.4.2-1.4.7.3.7-.7.2.4h2.4l.5-.7h.8l.8.7 1.8.3.7-.7h1l.2 1.4-1.6 1.1-.7 2.4.6 1.9 2.7.5 1 .7 1.9-.4 1.7 1.4h.5l.5.7-.7 1.7.7 2.1-.2 1.4-.7-.7-.9 1-2.1.9v.9l-.6.3-2.8-.2-1.2 1.7-.8-.2-2.3.8-2.3-.4-.7.8-.5 2.5h-.7l-1.4-1.4-1.4-.4-1-1.4.5-1 3.1 1.7.2-.7-.7-1-2.2-1h-2.3l-.6.9v.9l-.5.9.4 3.7.9 1.3-.3 2.1-.8.7-.9-2.2-.9-.3-.6-.8.5-.8v-1.6l-1.7.1-1.4 1-2.2-.6-.7.9h-.6c0-.1-1.1.6-1.1.6l-.8.8v.7c-.1 0-2.4-1.6-2.4-1.6l-1.2.3-.4-3.1.6-1.5-1.8-2.3.3-.9h.6c0-.1 1-2.4 1-2.4v-2.1l-2.9-.7-1.4 1.7h-.5l-1.2 1-1.9 2.8v1l-.7 1.4h-1.7l-.2.4-2.2-.4-.7.4-.5-.7-1.4-.7h-3.1l-.5-.4-.5.2-.4.8-1.9.9-1 3.4v.9c.1 0 1.1 1.4 1.1 1.4v1.1c-.1 0-.4.6-.4.6l-1.5.7-.3 1h-.6l-.6.6v.8l-.9 1.1.2 1.5-.7.6-.5-.4v-1.2l-1.3-1.1.2-1.6-.8-.9h-.5l-2.4-1.6-.6-1.9 1.6-3.5-.5-.7h-1.2l-.5-.7.9-.9v-1.6l-1.6-.3-1.2-1.1-1.7.7-1.9 1.4-1.8-1.6-1.7.6-2.2-1 .7-1.4-.7-1.4.7-1.1h2.8l.5-.5 2.9-.6-.8-.7v-1l2.6-1.8v-.9l.6-.4v-1.8l1.6-1.2v-1.4c-.1 0 .9-1.1.9-1.1V471l1.7-1.2.5-1.4h.6l.4-.8h.4l.4-2.1 1-2.1.2-3.8 1.5-1.4 1.4-.6v-1.5l4.6-6.6v-1l.5-.7-.2-.3.7-1 2 .2 1.2-.9 1-1.3v-1.9l1-.7 1.2-2.1 1.8-.3v-.8c.1 0 .6-.4.6-.4h.5l.5.7.9-.3 2.2-3.2 1.2-4.9 1.7-2.1.7-.7h1.7c0-.1.2-.7.2-.7h1.6c0-.1.8-1 .8-1h.7l.2.3 2.6-.3 1.9-1.7 1.4.3 1-1h1.4l.2.4 1.4-.4.2.4h.7l1.4-1.1h.7v.4h2.2l3.1-2.8Zm28.8 36.3-.2.3-1-1.4.2-.7 1-.7h1l.7-1.4h.5l.7-2.8 1.3.2 1.3 2.6-.9 2.8zm-6.9-5.9h.5l.5.7-.2 1.4-.2.3h-.7l-2.2 2.8-1.4.4-.7 1 .7 1.5-.9 1.6h-.6l-.9 1v2.2l-.9 2.1h-1.2l-1.7-1.4-2.6.3-1.2-2.4.5-1.7 1.9-.7 2.4-2.1.5-1 .7-.4.7-1.4-.5-2.1.5-.7h1.9l1.7 1.4.7-.4-1-1.4 1-1.4.7 1 1-.3.5-.7.5.3Z"/></g></svg>