<?xml version="1.0" encoding="UTF-8"?>
<svg id="Layer_1" xmlns="http://www.w3.org/2000/svg" xmlns:amcharts="http://amcharts.com/ammap" version="1.1" viewBox="0 0 512 512">
  <!-- Generator: Adobe Illustrator 29.1.0, SVG Export Plug-In . SVG Version: 2.1.0 Build 142)  -->
  <g id="_x3C_defs">
    <amcharts:ammap bottomLatitude="-0.014162" leftLongitude="6.459761" projection="mercator" rightLongitude="7.462759" topLatitude="1.701597"/>
  </g>
  <g>
    <path id="ST-P" d="M386.7,4.5l.2.3v1l-1,.8-.2-.3.2-1.3.3-.4h.5ZM367.8,47.1v-.3l-.5-.5h.2c0,0,0-.5,0-.5h-.3c0,0,0-1,0-1h.5c0,0,.2-.5.2-.5v-.3l-.6-.5v-.4l-.2-.2v-.7l.2-.2v-.5c0,0-.2-.2-.2-.2v-.9l-.8-.9-.2.2-.3-.9v-.2h.2v-.2l-.3-.6.2-.3.3-.6.2-.9-.2-.2-.6-.2-.2-.4-1.5-.5-.2-1.5h.3l.3-.2.2-.9h.6l.6-.3,1.1.2.2.2.6.2.2.2.2.9.5.3,1.1-.4,1,.5h.4l.4-.3,1.1.2.3-.6v-.2c0,0,.5-.3.5-.3h1c0,0,.2,0,.2,0l.2-.8-.3-.7v-.5c0,0,.5-.6.5-.6v-.4l.8-.4.4-.6v-.7c0,0,0-.4,0-.4l-.3-.8-.2-1.1v-.7c0,0-.2-.4-.2-.4l-.9-.5v-1.1s.2-.2.2-.2v-1.1c0,0,.2,0,.2,0l.4-.7.7-.2v-.2c0,0,.8,0,.8,0l.2-.7-.2-.6-.3-.2-.4-.7v-.3c0,0,0-.4,0-.4h-1.1v-.4c0,0,.5-.2.5-.2v-.2c0,0,.2-.4.2-.4v-.3c0,0,0-.5,0-.5l.2-.2v-.5l-.6-.7-.3-.8.2-.6h.4v-1.2l-.2-.2v-1.1l.2-.2.2-.2h.4l.2-.5h.3l.4.2v.3c0,0,.5.3.5.3l.7-.2.6.6.9-.3h.5c0,0,0-.2,0-.2h1.3l.3-.3v-.4l1-.2.6-.4v-.5l-.3-.2-.4-1.1v-.6h.7l.7.6v.2h.7c0,0,.4-.2.4-.2l.2-.3v-.2c0,0,.2-.2.2-.2h.4v.7c0,0,.7.3.7.3h.6l.2-.3h.3v.2l.7.7h.3l.2-.3h.4c0,0,1.3.7,1.3.7h.7l.5.3v.5c0,0,.6.3.6.3h.3l.2-.4.4-.2.2-.2h.4v.5c0,0,.5.3.5.3h.8l1-.8.2-.5v-.9c0,0,.2-.2.2-.2h.3l.2.5.2.2h.5l.4.7h.8l.3.3v.7c0,0,1.1.7,1.1.7l.9.2.5-.2.2.2h1.1s.2.2.2.2v.2l-.2.2.2.3v.6c0,0-.2.2-.2.2l-.5.2v.6l.7.8v.6h-.9l-.2-.3-.7-.3-.5-.8-1.1-.2-1.1.8-.4.5-.2.4v.9c0,0,.6.4.6.4h.7c0,0,0,.5,0,.5h-1.1c0,0-.4.2-.4.2l-.2.3-1.9-.4-1.1.5-.2.6-.5.3-.5,1.5-.2.3-.7.2v.3s-.6.4-.6.4l-.6,1.3h-.2v.3l.5.2.2.3h.3l.3-.5v-.5c0,0,.4-.3.4-.3l.3-.2.3-.2h1.6l.4-.3v-.6h.6c0,0,.4.7.4.7v.3c0,0-.2.4-.2.4l.9.7v.3c0,0,.5-.2.5-.2l.3.7h.9l.3-.4v-.3h.4v.3h1.4c0,0,0,.4,0,.4l-.2.6-.8,1.1,1.2.4v-.8c0,0,.6,0,.6,0l.5.7-.2.4h.5c0,0,.3.2.3.2v.4c0,0,0,.2,0,.2v.5h.2c0,0,0,.5,0,.5l-.7.6v.3c0,0-1.1.4-1.1.4l-.2.9-.2.2-.3.3h-.3c0,0-.2.4-.2.4h-.5c0,0-.3-.2-.3-.2v-.5c0,0-.7.2-.7.2l-.5-.4h-.2v.2h-.3v-.2c0,0-.6,0-.6,0l-.4.2v.3c0,0-.3,0-.3,0l-.3,1-.7.4-.2.6-.5.2-.2.6-.5.2-.5.4h-.2v-.2c0,0-.6,0-.6,0l-.2.8-.2.3v1c0,0-.2.3-.2.3v.7l.6.3v.2s.7.7.7.7l.2.7.4.4-.2,1.3.2.5-.2.7-.6.9h-.2l-.2.6v.2h.5v.8c0,0-.7.2-.7.2h-.3c0,0-.2,1-.2,1l-.5.2-.2.4.2.5.6.3.2.5.3.3v.9c0,0-1.1.3-1.1.3v.4c0,0-.4,0-.4,0l-.7-.5h-.2v-1.1c0,0,0-.2,0-.2h-.5l-.2-.2h-.8c0,0-.2.2-.2.2v.4h-.4c0,0-.2.3-.2.3h-.2v.5l-.6.2-.5.5-.2.4h-.3c0,0,0,.5,0,.5l-.2.2h-.6c0,0-.3,0-.3,0v.5c0,0,.4.4.4.4l.2.9.4.2.7,1.1-.2,1.9-.4.5-.2.2-.2.3-.3.2-.6-.3v-1.4l-.3-.2.2-.2v-1.2l-.2-.5h-.7v-.2h-.3l-.2.2-1.3.2-.6.4h-.4v.9c0,0-.6.4-.6.4h-.2v-.3c0,0,0,0,0,0v-.4h.2s0-.2,0-.2h-.5c0,0-.2-.8-.2-.8h-.3c0,0,0-.3,0-.3l.3-.6v-.7c0,0-1.2-1.1-1.2-1.1l-.2-.2v-.2h-.6v.3c0,0-1,.7-1,.7h-.3v-.5h-.6l-.2.3-.2-.3h-.4v-.5h-.2l-.3-.4h-.2c0,0-.2-.2-.2-.2v-.3l-.4-.4-.2-.5-.4-.2-.2-.4v-.2l-.7-.4h-.5l-.2.2h-.6c0,0-.9.5-.9.5h-.3c0,0,0,1,0,1l-.2.4-.5.2-.8-.3v-.4l-.5-.7ZM394.6,58.6h.2c0,0,0,.4,0,.4l.6.2v.2c0,0,0,0,0,0v.2h-.2c0,0,.2.4.2.4l-.6.6-.8-.3v-.3s-.2,0-.2,0l.2.4h-.5v-.4l-.8-.4v-.3l.7-.7,1.1-.2ZM351,97.7l.4.2v.3l-.7.5h-.2l-.2-.2v-.7l.7-.2ZM354,109.2v.6c0,0,.3.3.3.3l-.3.2v.3c0,0-.7.2-.7.2v-.3c0,0-.4-.2-.4-.2v-.6c0,0,.6-.2.6-.2l.2-.3h.4Z"/>
    <path id="ST-S" d="M128.5,502.2v.2c0,0-.2.5-.2.5l-.2,1-.3-.2-.2.2.6.7h.5c0,0,0,.5,0,.5l-.6.2v.4l-.7.6v.4h-.2c0,0,0,.7,0,.7l-.2.2h-.5l-.5-.4h-.3l-.2.3h-.7c0,0-.2,0-.2,0v-.2h-.3l-.2-.2v-.4h.4c0,0-.2-.7-.2-.7h-.7c0,0-.2,0-.2,0l-.2-.2.2-.2v-.7l.2-.2.2-.2v-.4l.7-.4h.7c0,0,.4-.9.4-.9l1,.4v-.7c0,0,.3,0,.3,0v.2h.7c0,0,.6-.7.6-.7h.6ZM114.2,464.5h.2v.5l-.3.5h-.6v-.4c0,0,0-.4,0-.4l.7-.2ZM114.6,462.7l.6.2v.3c0,0-.2.2-.2.2l-1.1-.2v-.2l.2-.2h.5ZM196.5,432.3l.2.3h.3v.5c0,0,0,.2,0,.2l-1-.2v-.7c0,0,.5,0,.5,0ZM184.3,382.8v.3c0,0-.4,1-.4,1h-.4l-.3.7h-.3c0,0,0,.2,0,.2h-.5c0,0,0-.8,0-.8l.3-.4h.5l.5-.7.7-.2ZM167.4,382.2l.2.2h.6l.6.4h.5c0,0,.7.8.7.8h1.3v.2c0,0,1.4.2,1.4.2l.9.5h1.1c0,0,.2.2.2.2l1.2.2.3.2.4.6v.7h.2c0,0,.5,2.4.5,2.4h.2c0,0,.2.5.2.5l.5.2,1.2,1.3h1c0,0,.5.5.5.5h.7c0,0,.2-.2.2-.2h.9l.2.6.3.2,1.1-.2.2-.2v.5c0,0,.2,0,.2,0l-.2.6.6.4v.5c0,0-1.1,0-1.1,0l-.2.2v.5c0,0-.7.3-.7.3h-.6l-.2,1.5.3,1.2.3.2.2.3.6.2v.2h.6l.2-.3h.3v-.4h.3l.7.2.6.7-.2.8-.7.4-.6,1.1v1c0,0,.3.7.3.7l.5.4.2.5.5.3,2,.3.3-.3v-.8c0,0,.3-.2.3-.2l.2-1.3h.2v.4c0,0,.3.2.3.2h.4c0,0,.2.4.2.4l.2,1v1.1l-.2.2-.3.4v.7l.2.2h.6v.8l-.2.2.2.7-.5,1.3.2,1.3h.2c0,0,.5.7.5.7h.4c0,0,.2-.2.2-.2l.2.2.2.5.4.2.2,1-.4.4v.6l.2.3.7.2.2,1.2.8.6.2.6h1.6c0,0,.2.7.2.7v.4h-.5v.2h-.2c0,0,0,1,0,1l-.4.2-.2.7-.7-.3h-.5v-.2c0,0-.9,0-.9,0l-.2.7.2.2v.8c0,0-.7.2-.7.2v.3c0,0-.7.4-.7.4l-.2.5v.6c0,0,.4.6.4.6v.5h.4c0,0,.4.5.4.5v.6l-.2.5h-.6c0,0,0,0,0,0v.4l.2.2v.5l-.2.4-.4.3h-.7v.7c0,0,.7.2.7.2v.7c0,0-.3.4-.3.4v.3c0,0,.3,0,.3,0l-.2.3.2,1.1.2.3h.7l.2.2v.7c0,0,0,.4,0,.4l-.2.2-.5.2-.2.3h-.4l-.3.4v.6c0,0,.4.2.4.2v.2c0,0,.2.4.2.4v.5h-.6c0,0-.2-.5-.2-.5h-.2l-.2.4h-.9l-.9.8-.5,1.1-.2,1.2-.7.2v.3c0,0-.7.2-.7.2l-.2.5h-.7v.4c0,0,.3-.2.3-.2h.7c0,0-.2.7-.2.7l-.7.2v-.3c0,0-.8.2-.8.2v1.3l-.5,1.3h-.6l-.2-.2h-.4l-.4.3-.6.2v.3c0,0-.5.4-.5.4h-1l-.2-.2h-.7c0,0,0,1.1,0,1.1l-.9.3-.3.4v.2l.3.2v.6l-.2.4-.7.2-.2.5.2.4v.5c0,0-.2.4-.2.4h-1v.2l-.4.2v.6c0,0,0,.2,0,.2h-.2l-.2.2h-.3c0,0,0-.2,0-.2h-.6l-.7.7v.5c0,0,.6.3.6.3l.5.3.2.2v.7s-1.2.5-1.2.5h-1l-.3-.4h-.6c0,0-.4.3-.4.3l.2.2v.3h.2v.2l.5.4v.8c0,0,0,.6,0,.6l.2.3v.3c0,0,.2.2.2.2h-.6c0,0-.2-.2-.2-.2l-.7-.7-.8-.2h-.5c0,0-.2,1.3-.2,1.3l.7.4v.4c0,0-.6,0-.6,0l-1.1-.5-.6.6-.2.7.2.8.2.2,1.2-.2.2.2v.3h-.8l-.6.5v.2l-1.4.3-.3.2-.2.4-.8.2v.3c0,0-1.4.3-1.4.3l-.3.7v.2c0,0,.7.4.7.4v.5h-.3l-.6.4-1-.2-.2-.2h-.7c0,0-.3.8-.3.8v.6l.2.2,1.1.4v.3c0,0,1.4.8,1.4.8l-.2,1,.2,1.8-.6.9-.2.2h-1.2l-.2.2-1.1-.3-1.7.2-.4.6.2,1.1h-.7c0,0-.7.2-.7.2h-.4l-1-.3-.2.7h.2c0,0,.2.8.2.8l-.6-.4h-.4c0,0-.2,0-.2,0l-.3.4-.2-.3h-.2c0,0-.2.6-.2.6l-.3.2-.3,1-.6.3-.3.9-.5.2h-.6l-.2.6.3.4h.3l.3.4v.2l-2-.3v-.2h-.7l-.2.2-.3-.2v-.3c0,0-.6,0-.6,0l-.2.3-.6.2-.3.3v.5l.3.3v.8l-1.1-.2-.6-.7h-.9v.4l-.2.5h-.7c0,0-.4-.3-.4-.3v-.3l.4-.2v-.2l-.5-.2-.2-.2v-.9h-.9l-.2.2v.3h-.2l-.5-.5v-.2c0,0-.2-.5-.2-.5l-.2.2h-1.4c0,0-.9.2-.9.2l-.4.7.2,1.1-.5.4-.2.3-.2.6-.5.6v.7h.2c0,0,.3.7.3.7l-.4,2,.2.5v.2c0,0,0,.2,0,.2h.2c0,0,0,.4,0,.4h-.7c0,0-.2.2-.2.2v1.2c0,0-.7-.3-.7-.3v.2c0,0-.6,0-.6,0l-.2.4-.3.2.3.7-.2.3-.5.3.2.7h.4l-.2.7h-.2c0,0,0,1.1,0,1.1l-.3.3h-.5c0,0,0,.2,0,.2h-.3c0,0-.4-.4-.4-.4v-.5c0,0-.6.2-.6.2v.2l-.7-.2-.2.8h-.2l-.6-.5v-1c0,0-.2-.3-.2-.3v-.5l-.7-.2-.3-.9-.3-.2-.2-.6h-.7l-.8.8v.4c0,0,.6.4.6.4v.2l-.6.4.2.2-.2,1,.3.3h.3v.8c0,0-.2,0-.2,0l-.2-.2h-.4v1.4l-.5.5h-.5c0,0,0,.2,0,.2h-.6l-.2-.2h-.4l-.7.4v.3h-.2v-.2c0,0-.8,0-.8,0l-.2.3h-.2l-.2,1.1-.7.2-.4-.8h-.5l-.5-.6v-1.3l.3-.2v-.3l-.2-.3v-1l.3-.8v-.8c0,0-.3,0-.3,0v-.6l-.5-1-.5-.5h-.7c0,0,0-.7,0-.7l.2-.9.4-.2v-.2c0,0,.3,0,.3,0l.8.5h.3l.7-.6v-.6c0,0-.3,0-.3,0l.2-.6-.2-.3h-.2v-.2h.3v-.2h.2c0,0,.2-.2.2-.2l-.3-.9.3-.2.2-1-.2-.3h-.6c0,0-.3,0-.3,0v-.3c0,0,.9-.2.9-.2l.2-.3v-.7c0,0,.2-.4.2-.4l.4-.2v-.3h-.2c0,0,0-.7,0-.7h-.2l-.2-.4v-.5l.4-.5v-.3l-.4-.5h-.5c0,0,0-.6,0-.6l-.2-.7.2-.3h.2s.3-.4.3-.4v-1c0,0-.5-.8-.5-.8v-.4l-.4-.6v-.2l-.6-.5h-.7l-.2.2h-.9c0,0-.3.2-.3.2h-1c0,0-.7-.7-.7-.7l-.2-.9-1.1-.2-.5.4h-.4v-.2c0,0,0,0,0,0v-.4l.2-.4h.7c0,0,.4-.4.4-.4l-.2-1.3.4-1.1-1.1-1.3h-.4c0,0-.8-.2-.8-.2l-.3-.4-.9-.3v-.2h-.2c0,0,.2-.7.2-.7l.4-.3h.6l.2-.5v-.2c0,0-.4-.2-.4-.2h-.7s-.4-.9-.4-.9l-.3-.2-.5-.7h-.7c0,0-.2,0-.2,0l.2-.8.2-.2v-.4c0,0,.2,0,.2,0v-.2h-.2v-.2l.3-.6v-.2c0,0,0-.4,0-.4v-1.1c0,0-.2-.2-.2-.2v-.4c0,0-.2-.2-.2-.2l-.2-.2-.2-.3h-.2v-.2c0,0,.5-.2.5-.2l-.2-.3h-.2c0,0-.2,0-.2,0l.2-.4h-.2c0,0,.4-.6.4-.6v-.7c0,0-.2-.4-.2-.4h-.4c0,0-.3-.7-.3-.7v-.6l-.7-.2-.2-.9h-.2l-.2-.2v-.2c0,0-.3,0-.3,0l-.4-.4v-.5c0,0,0,0,0,0v-.4c0,0,0-.7,0-.7h-.2v-.7h-.2c0,0,0-.5,0-.5l-.2-.2-.4-.2-.4.5h-.5v-.3l.7-.6v-.3c0,0,.3.2.3.2h.2c0,0,0-1,0-1l-.2-.3-.2-.3.6-.2v-.4c0,0,0,0,0,0l-.2-.4-.4-.2v-.5l-.3-.2-.2-.8v-.4l.4-.3.2-.7h-.3c0,0,0-.7,0-.7l-.8-.8.8-.7-.3-.4.2-.7.3-.2h.3c0,0,0-.4,0-.4l-.2-.3v-.2c0,0,.2,0,.2,0v-.7l-.7-.4.2-.4h-.7v-.5h.2c0,0,0-.3,0-.3l-.4-.2-.3.2v-.3c0,0,.3,0,.3,0l.4-.3v-1.1c0,0,.7-.9.7-.9v-1.2l.4-1v-1.1c0,0,.7-1.4.7-1.4l1.1-1.1.6-.4.9.3.7-.2.6-1v-1c0,0,.2,0,.2,0l.2-.7.2-.3-.2-.7.5-.4v-.3c0,0,.2-.7.2-.7v-.5c0,0,.9-.6.9-.6v-.4h-.2v-1.5s.3-.5.3-.5v-.8c0,0,.4,0,.4,0v-.5c0,0,0-1.1,0-1.1l-.5-.7.5-.7.4-1.3.2-.2h.2c0,0,.4-.2.4-.2l.9-.2.7-.5h.7l.7-.2,1.1-1.1.2-1.2.2-.2,1.2-.2.4-.2,1.1.3h.8l.5-1v-.6c0,0,.3-.2.3-.2v-.6c0,0,1-1.6,1-1.6l1.8-.8h.9c0,0,.2-.2.2-.2l.5-1.3v-.4c0,0,.3-.8.3-.8l1.6-1,2.5.2,1.1.3v.2h.8l.3-.2.2-.4,1.3-.7v-.2c0,0,.7,0,.7,0l1-.6.2-.5.3-.2.6-.7.3-.9.5-.4v-.2l1.3-.7.2-.4.4-.2v-.5c0,0,.4-.3.4-.3v-.4c0,0,.8,0,.8,0l.8-1h.6l.5-.8.6-.2.2-.3.2-.2.3-.4,1-.2.2-.9.7-.7.2-.7h.2c0,0-.2-.7-.2-.7l.2-.5h.4l.2.3.4-.3h2.2c0,0,.2.2.2.2h.5l.2-.4.5-.2.3-.5h.3c0,0,.3.2.3.2h1c0,0,.2.4.2.4h.5l.2.3h1.2c0,0,.2-.7.2-.7h.7v.2c0,0,.5-.2.5-.2h.6c0,0,0-.2,0-.2l.7-.3.2-.2h.8l.4-.2.6.2h1.6l.2-.4h.2Z"/>
  </g>
</svg>