<svg xmlns="http://www.w3.org/2000/svg" xmlns:amcharts="http://amcharts.com/ammap" id="Layer_1" viewBox="0 0 512 512"><g id="_x3C_defs"><amcharts:ammap bottomLatitude="-.014" leftLongitude="6.46" projection="mercator" rightLongitude="7.463" topLatitude="1.702"/></g><g><path id="ST-P" d="m386.7 4.5.2.3v1l-1 .8-.2-.3.2-1.3.3-.4h.5Zm-18.9 42.6v-.3l-.5-.5h.2v-.5h-.3v-1h.5l.2-.5V44l-.6-.5v-.4l-.2-.2v-.7l.2-.2v-.5l-.2-.2v-.9l-.8-.9-.2.2-.3-.9v-.2h.2v-.2l-.3-.6.2-.3.3-.6.2-.9-.2-.2-.6-.2-.2-.4-1.5-.5-.2-1.5h.3l.3-.2.2-.9h.6l.6-.3 1.1.2.2.2.6.2.2.2.2.9.5.3 1.1-.4 1 .5h.4l.4-.3 1.1.2.3-.6V33l.5-.3h1.2l.2-.8-.3-.7v-.5l.5-.6v-.4l.8-.4.4-.6v-1.1l-.3-.8-.2-1.1V25l-.2-.4-.9-.5V23l.2-.2v-1.1h.2l.4-.7.7-.2v-.2h.8l.2-.7-.2-.6-.3-.2-.4-.7v-.7H375v-.4l.5-.2v-.2l.2-.4v-.8l.2-.2V15l-.6-.7-.3-.8.2-.6h.4v-1.2l-.2-.2v-1.1l.2-.2.2-.2h.4l.2-.5h.3l.4.2v.3l.5.3.7-.2.6.6.9-.3h.5v-.2h1.3l.3-.3v-.4l1-.2.6-.4v-.5l-.3-.2-.4-1.1v-.6h.7l.7.6v.2h.7l.4-.2.2-.3v-.2l.2-.2h.4v.7l.7.3h.6l.2-.3h.3v.2l.7.7h.3l.2-.3h.4l1.3.7h.7l.5.3v.5l.6.3h.3l.2-.4.4-.2.2-.2h.4v.5l.5.3h.8l1-.8.2-.5v-.9l.2-.2h.3l.2.5.2.2h.5l.4.7h.8l.3.3v.7l1.1.7.9.2.5-.2.2.2h1.1l.2.2v.2l-.2.2.2.3v.6l-.2.2-.5.2v.6l.7.8v.6h-.9l-.2-.3-.7-.3-.5-.8-1.1-.2-1.1.8-.4.5-.2.4v.9l.6.4h.7v.5h-1.1l-.4.2-.2.3-1.9-.4-1.1.5-.2.6-.5.3-.5 1.5-.2.3-.7.2v.3l-.6.4-.6 1.3h-.2v.3l.5.2.2.3h.3l.3-.5v-.5l.4-.3.3-.2.3-.2h1.6l.4-.3v-.6h.6l.4.7v.3l-.2.4.9.7v.3l.5-.2.3.7h.9l.3-.4v-.3h.4v.3h1.4v.4l-.2.6-.8 1.1 1.2.4v-.8h.6l.5.7-.2.4h.5l.3.2v1.1h.2v.5l-.7.6v.3l-1.1.4-.2.9-.2.2-.3.3h-.3l-.2.4h-.5l-.3-.2v-.5l-.7.2-.5-.4h-.2v.2h-.3v-.2h-.6l-.4.2v.3h-.3l-.3 1-.7.4-.2.6-.5.2-.2.6-.5.2-.5.4h-.2v-.2h-.6l-.2.8-.2.3v1l-.2.3v.7l.6.3v.2l.7.7.2.7.4.4-.2 1.3.2.5-.2.7-.6.9h-.2l-.2.6v.2h.5v.8l-.7.2h-.3l-.2 1-.5.2-.2.4.2.5.6.3.2.5.3.3v.9l-1.1.3v.4h-.4l-.7-.5h-.2v-1.3h-.5l-.2-.2h-.8l-.2.2v.4h-.4l-.2.3h-.2v.5l-.6.2-.5.5-.2.4h-.3v.5l-.2.2h-.9v.5l.4.4.2.9.4.2.7 1.1-.2 1.9-.4.5-.2.2-.2.3-.3.2-.6-.3V54l-.3-.2.2-.2v-1.2l-.2-.5h-.7v-.2h-.3l-.2.2-1.3.2-.6.4h-.4v.9l-.6.4h-.2v-.7h.2v-.2h-.5l-.2-.8h-.3v-.3l.3-.6v-.7l-1.2-1.1-.2-.2V49h-.6v.3l-1 .7h-.3v-.5h-.6l-.2.3-.2-.3h-.4V49h-.2l-.3-.4h-.2l-.2-.2v-.3l-.4-.4-.2-.5-.4-.2-.2-.4v-.2l-.7-.4h-.5l-.2.2h-.6l-.9.5h-.3v1l-.2.4-.5.2-.8-.3v-.4l-.5-.7Zm26.8 11.5h.2v.4l.6.2v.4h-.2l.2.4-.6.6-.8-.3V60h-.2l.2.4h-.5V60l-.8-.4v-.3l.7-.7 1.1-.2ZM351 97.7l.4.2v.3l-.7.5h-.2l-.2-.2v-.7l.7-.2Zm3 11.5v.6l.3.3-.3.2v.3l-.7.2v-.3l-.4-.2v-.6l.6-.2.2-.3h.4Z"/><path id="ST-S" d="M128.5 502.2v.2l-.2.5-.2 1-.3-.2-.2.2.6.7h.5v.5l-.6.2v.4l-.7.6v.4h-.2v.7l-.2.2h-.5l-.5-.4h-.3l-.2.3h-.9v-.2h-.3l-.2-.2v-.4h.4l-.2-.7h-.9l-.2-.2.2-.2v-.7l.2-.2.2-.2v-.4l.7-.4h.7l.4-.9 1 .4v-.7h.3v.2h.7l.6-.7h.6Zm-14.3-37.7h.2v.5l-.3.5h-.6v-.8zm.4-1.8.6.2v.3l-.2.2-1.1-.2v-.2l.2-.2h.5Zm81.9-30.4.2.3h.3v.7l-1-.2v-.7h.5Zm-12.2-49.5v.3l-.4 1h-.4l-.3.7h-.3v.2h-.5v-.8l.3-.4h.5l.5-.7.7-.2Zm-16.9-.6.2.2h.6l.6.4h.5l.7.8h1.3v.2l1.4.2.9.5h1.1l.2.2 1.2.2.3.2.4.6v.7h.2l.5 2.4h.2l.2.5.5.2 1.2 1.3h1l.5.5h.7l.2-.2h.9l.2.6.3.2 1.1-.2.2-.2v.5h.2l-.2.6.6.4v.5h-1.1l-.2.2v.5l-.7.3h-.6l-.2 1.5.3 1.2.3.2.2.3.6.2v.2h.6l.2-.3h.3v-.4h.3l.7.2.6.7-.2.8-.7.4-.6 1.1v1l.3.7.5.4.2.5.5.3 2 .3.3-.3v-.8l.3-.2.2-1.3h.2v.4l.3.2h.4l.2.4.2 1v1.1l-.2.2-.3.4v.7l.2.2h.6v.8l-.2.2.2.7-.5 1.3.2 1.3h.2l.5.7h.4l.2-.2.2.2.2.5.4.2.2 1-.4.4v.6l.2.3.7.2.2 1.2.8.6.2.6h1.6l.2.7v.4h-.5v.2h-.2v1l-.4.2-.2.7-.7-.3h-.5v-.2h-.9l-.2.7.2.2v.8l-.7.2v.3l-.7.4-.2.5v.6l.4.6v.5h.4l.4.5v.6l-.2.5h-.6v.4l.2.2v.5l-.2.4-.4.3h-.7v.7l.7.2v.7l-.3.4v.3h.3l-.2.3.2 1.1.2.3h.7l.2.2v1.1l-.2.2-.5.2-.2.3h-.4l-.3.4v.6l.4.2v.2l.2.4v.5h-.6l-.2-.5h-.2l-.2.4h-.9l-.9.8-.5 1.1-.2 1.2-.7.2v.3l-.7.2-.2.5h-.7v.4l.3-.2h.7l-.2.7-.7.2v-.3l-.8.2v1.3l-.5 1.3h-.6l-.2-.2h-.4l-.4.3-.6.2v.3l-.5.4h-1l-.2-.2h-.7v1.1l-.9.3-.3.4v.2l.3.2v.6l-.2.4-.7.2-.2.5.2.4v.5l-.2.4h-1v.2l-.4.2v.8h-.2l-.2.2h-.3v-.2h-.6l-.7.7v.5l.6.3.5.3.2.2v.7l-1.2.5h-1l-.3-.4h-.6l-.4.3.2.2v.3h.2v.2l.5.4v1.4l.2.3v.3l.2.2h-.6l-.2-.2-.7-.7-.8-.2h-.5l-.2 1.3.7.4v.4h-.6l-1.1-.5-.6.6-.2.7.2.8.2.2 1.2-.2.2.2v.3h-.8l-.6.5v.2l-1.4.3-.3.2-.2.4-.8.2v.3l-1.4.3-.3.7v.2l.7.4v.5h-.3l-.6.4-1-.2-.2-.2h-.7l-.3.8v.6l.2.2 1.1.4v.3l1.4.8-.2 1 .2 1.8-.6.9-.2.2H163l-.2.2-1.1-.3-1.7.2-.4.6.2 1.1h-.7l-.7.2h-.4l-1-.3-.2.7h.2l.2.8-.6-.4h-.6l-.3.4-.2-.3h-.2l-.2.6-.3.2-.3 1-.6.3-.3.9-.5.2h-.6l-.2.6.3.4h.3l.3.4v.2l-2-.3v-.2h-.7l-.2.2-.3-.2v-.3h-.6l-.2.3-.6.2-.3.3v.5l.3.3v.8l-1.1-.2-.6-.7h-.9v.4l-.2.5h-.7l-.4-.3v-.3l.4-.2v-.2l-.5-.2-.2-.2v-.9h-.9l-.2.2v.3h-.2l-.5-.5v-.2l-.2-.5-.2.2h-1.4l-.9.2-.4.7.2 1.1-.5.4-.2.3-.2.6-.5.6v.7h.2l.3.7-.4 2 .2.5v.4h.2v.4h-.7l-.2.2v1.2l-.7-.3v.2h-.6l-.2.4-.3.2.3.7-.2.3-.5.3.2.7h.4l-.2.7h-.2v1.1l-.3.3h-.5v.2h-.3l-.4-.4v-.5l-.6.2v.2l-.7-.2-.2.8h-.2l-.6-.5v-1l-.2-.3v-.5l-.7-.2-.3-.9-.3-.2-.2-.6h-.7l-.8.8v.4l.6.4v.2l-.6.4.2.2-.2 1 .3.3h.3v.8h-.2l-.2-.2h-.4v1.4l-.5.5h-.5v.2h-.6l-.2-.2h-.4l-.7.4v.3h-.2v-.2h-.8l-.2.3h-.2l-.2 1.1-.7.2-.4-.8h-.5l-.5-.6v-1.3l.3-.2v-.3l-.2-.3v-1l.3-.8v-.8h-.3v-.6l-.5-1-.5-.5h-.7v-.7l.2-.9.4-.2v-.2h.3l.8.5h.3l.7-.6v-.6h-.3l.2-.6-.2-.3h-.2v-.2h.3v-.2h.2l.2-.2-.3-.9.3-.2.2-1-.2-.3h-.9v-.3l.9-.2.2-.3v-.7l.2-.4.4-.2v-.3h-.2v-.7h-.2l-.2-.4v-.5l.4-.5v-.3l-.4-.5h-.5v-.6l-.2-.7.2-.3h.2l.3-.4v-1l-.5-.8v-.4l-.4-.6v-.2l-.6-.5h-.7l-.2.2h-.9l-.3.2h-1l-.7-.7-.2-.9-1.1-.2-.5.4h-.4v-.6l.2-.4h.7l.4-.4-.2-1.3.4-1.1-1.1-1.3h-.4l-.8-.2-.3-.4-.9-.3v-.2h-.2l.2-.7.4-.3h.6l.2-.5v-.2l-.4-.2h-.7l-.4-.9-.3-.2-.5-.7h-.9l.2-.8.2-.2v-.4h.2v-.2h-.2v-.2l.3-.6v-1.7l-.2-.2v-.4l-.2-.2-.2-.2-.2-.3h-.2v-.2l.5-.2-.2-.3h-.4l.2-.4h-.2l.4-.6v-.7l-.2-.4h-.4l-.3-.7v-.6l-.7-.2-.2-.9h-.2l-.2-.2v-.2h-.3l-.4-.4v-1.6h-.2v-.7h-.2v-.5l-.2-.2-.4-.2-.4.5h-.5v-.3l.7-.6v-.3l.3.2h.2v-1l-.2-.3-.2-.3.6-.2v-.4l-.2-.4-.4-.2v-.5l-.3-.2-.2-.8v-.4l.4-.3.2-.7h-.3v-.7l-.8-.8.8-.7-.3-.4.2-.7.3-.2h.3v-.4l-.2-.3v-.2h.2v-.7l-.7-.4.2-.4h-.7v-.5h.2v-.3l-.4-.2-.3.2v-.3h.3l.4-.3v-1.1l.7-.9V429l.4-1v-1.1l.7-1.4 1.1-1.1.6-.4.9.3.7-.2.6-1v-1h.2l.2-.7.2-.3-.2-.7.5-.4v-.3l.2-.7v-.5l.9-.6v-.4h-.2V416l.3-.5v-.8h.4v-1.6l-.5-.7.5-.7.4-1.3.2-.2h.2l.4-.2.9-.2.7-.5h.7l.7-.2 1.1-1.1.2-1.2.2-.2 1.2-.2.4-.2 1.1.3h.8l.5-1v-.6l.3-.2v-.6l1-1.6 1.8-.8h.9l.2-.2.5-1.3v-.4l.3-.8 1.6-1 2.5.2 1.1.3v.2h.8l.3-.2.2-.4 1.3-.7v-.2h.7l1-.6.2-.5.3-.2.6-.7.3-.9.5-.4v-.2l1.3-.7.2-.4.4-.2v-.5l.4-.3v-.4h.8l.8-1h.6l.5-.8.6-.2.2-.3.2-.2.3-.4 1-.2.2-.9.7-.7.2-.7h.2l-.2-.7.2-.5h.4l.2.3.4-.3h2.2l.2.2h.5l.2-.4.5-.2.3-.5h.3l.3.2h1l.2.4h.5l.2.3h1.2l.2-.7h.7v.2l.5-.2h.6v-.2l.7-.3.2-.2h.8l.4-.2.6.2h1.6l.2-.4h.2Z"/></g></svg>