<?xml version="1.0" encoding="UTF-8"?>
<svg id="Layer_1" xmlns="http://www.w3.org/2000/svg" xmlns:amcharts="http://amcharts.com/ammap" version="1.1" viewBox="0 0 512 512">
  <!-- Generator: Adobe Illustrator 29.1.0, SVG Export Plug-In . SVG Version: 2.1.0 Build 142)  -->
  <g id="_x3C_defs">
    <amcharts:ammap bottomLatitude="42.244813" leftLongitude="18.814598" projection="mercator" rightLongitude="23.006466" topLatitude="46.190167"/>
  </g>
  <g>
    <path id="RS-00" d="M209.5,247.7l-4.2,2.7-.5,2.4-6.5,2.1-8.4-10,2.7-1.5-1.5-3.6,4.1-8.4-1.5-1.2,1.4-4.8-3.4-2.8-1.4-6.5-4,7.2-5-5-4.6,3.8-6.2-4.5,1-2.2h0l-2.4-8.2h0l5.1-5.3,8.7-4.2-4.1-3.2,4.3-5.6-1-4.3,6.3-2.3-2.1-4.3,1.4-5.1,11.8-6.9-.3-4.7,5.7-3.7.3-4.5-2.8-2.3h0l1.2-1.5h0l3.8-.9h2.7c0-.1.2,4.6.2,4.6l5.5,7.7,4.7,2.1,2.2,6.8,6.2.6,2.9,11.6-1.9,5.6,1.2,4.2,8.7,9.6,6.4,2.7h.4s-.2,6.5-.2,6.5l4,3.3-9.5,3.3,3.6,4.5h2.6l4.3,9.1-1.9,1.5-5.5-.9-2.8,6,4.8,4.6-2.2,1.2h0l.2,3.4h0l-4.6-3.8-6.9.7-3.6-5.5-6,2.6-1.4-6-9.1-2.9-1.7,3.8,3.4,5-4,5h0l-.3,2.6Z"/>
    <path id="RS-01" d="M159.9,59.4l-10.2,6.7,1.5,4-5.3,10-10.1-4.3h0l-3.1-.2h0l4.1-2.9-5.8-5.5,1.7-3.1-5.7-2.9-2.1,3.1-12-14.3-2.6-10,4-4.5-3.3,1,.2-3.1-3.6-3.7h0l-1.4-3.4,7.5-4.8,1.5,2,3.2-1.4,4.6-6.5,5.5-3.2-1.9-3.3,5.6-4.5,6.2,1.1,2.7-2.6,3.1.4,11.2,7.9,6-3.5h0l1.1,3.6-7.7,19.6-.9,6.9,1.5,4.6-2.4,2.7,5.5,13.4h0l1.4.5Z"/>
    <path id="RS-02" d="M203.2,149.4l-7.1-7.5h0l1.9-1.2h0l-1-2.8,5-5.2-10.1-12.2,4.8-4.5-6.5-4.8,1.9-6.4-1-2.8-2.6,2.2-2.4-.9-.2-6.5-5-4.1-4,6-1.2-1.9,1.5-5.3-1.4-2.4,7.6-5.5-6.2.3,2.6-6.9-5.5,1.2-.5-2.2,7.1-1.7-1.5-4.8,1.7-2.1h4l1.9-4.1-2.2-2.1,2.6-3.4,16.5-1.4,4,8.8,2.9,1.7-.7,2.7-4.6,2.2v2.9l-3.1,3.6,2.4,2.1,4.6.2,5.3-2.7,5.7,1.2-1.2-6.5,1.4-3.3,3.8-3.3,4.8,1.7.3-6.4,3.9-5.8h0l2-.3,2.8,6.4,5.5-.8.9-4.2,3.6,1.4-1.9,5,.2,10.5-3.6,5.8.6,3.9,2.1-.7,3.5,6.8-5.9,4.7.2,2.6h5.8s3.1,2,3.1,2l1.3,2.4-1.6,1.8,5.2,1.9,1,3.9,7.7,7.5h0l-18.5,8.1,3.8,2.4-.7,1.5-7.1,3.6-4,5.8-6.7-6.9-7.2-2.4-2.6,4.3-6,.2-3.8,5.5.3,5.5-2.6,3.6h0l-3.3.2h0l-3.8.9h0l-.3.4Z"/>
    <path id="RS-03" d="M183.5,67.7l-1.5-3.5-21.3-4.5h0l-2.1-.7h0l-5.5-13.4,2.4-2.7-1.5-4.6.9-6.9,7.7-19.6-1.1-3.6h0l4.5-2.8h5.8s6.4,4,6.4,4l3.2-4.2,3.7,4.3,3.8-1.9,4.6,4.8,3.4-.5.4,3.9,6.4,6.5.4,6.5,5.5,4.6,3.8-.7,3.3,2.3,3,8.1,4.9-2.4,1.1,5.4,7.3,5.3.2,4.4h0l-3.9,5.8-.3,6.4-4.8-1.7-3.8,3.3-1.4,3.3,1.2,6.5-5.7-1.2-5.3,2.7-4.6-.2-2.4-2.1,3.1-3.6v-2.9l4.6-2.2.7-2.7-2.9-1.7-4-8.8-16.5,1.4-2.6,3.4,2.2,2.1-1.9,4.1h-1.4Z"/>
    <path id="RS-04" d="M245.9,203.7l-6.4-2.7-8.7-9.6-1.2-4.2,1.9-5.6-2.9-11.6-6.2-.6-2.2-6.8-4.7-2.1-5.5-7.7-.2-4.8h.6s2.6-3.6,2.6-3.6l-.3-5.5,3.8-5.5,6-.2,2.6-4.3,7.2,2.4,6.7,6.9,4-5.8,7.1-3.6.7-1.5-3.8-2.4,18.5-8.1h0l4.4-.4,3.1,4.6,7.1-3.7,4,9.7,5.2,2.7,1.6-1.6,9.4,3.2,1.2-1.3,10.1,7.8.9,4-4.5,2.2-2.1,10.6-8.8,2.5,7.2,7.8,9.9,3.8,1.4,5.5-8.6,2.8-8.9-.2-1,5.8h0l-12.7,5.4-6.2,5.7-10.1,2.6h0l-1.4-.2h0l-3,.4-6.5,5.8-9.8,1.8h-1.4Z"/>
    <path id="RS-05" d="M133.4,75.7l-2.8,5.2,1.7,4.5-3.4-.3-1,5.2-2.1.9-4.5-2.4-8.6,9.3,2.9,3.3-1,2.2-4.6-1-2.2,1.5-2.6-3.1-1.9,2.7h-5.8l-2.9-2.4-5,.9,1.2-1.4-5-3.4-3.6.2.5-1.6h5.3c0,.1,1.5-3.4,1.5-3.4l-6.2-2.7-1.1-2.9-6.6,2.9-5.3-4.5,2.1-4.2-1.1-1.9,3.3-1,2.5-7-5.3-3.8-2.1-9.1-3.2-3.6.5-7.2-4-7h4.9c0,0,3.6-3.3,3.6-3.3l9.4,1.4-1.2-3.1,1.7-2.1h6.1c0-.1-1.3-4.8-1.3-4.8l3.7-5.2,2.7.5,1.1,5.1,13.9,1h0l3.6,3.7-.2,3.1,3.3-1-4,4.5,2.6,10,12,14.3,2.1-3.1,5.7,2.9-1.7,3.1,5.8,5.5-4.1,2.9h.7Z"/>
    <path id="RS-06" d="M82.7,95.8l-.5,1.6,3.6-.2,5,3.4-1.2,1.4,5-.9,2.9,2.4h5.8l1.9-2.7,2.6,3.1,2.2-1.5,4.6,1,1-2.2-2.9-3.3,8.6-9.3,4.5,2.4,2.1-.9,1-5.2,3.4.3-1.7-4.5,2.8-5.2h2.4c0,.1,10.1,4.4,10.1,4.4l5.3-10-1.5-4,10.2-6.7h0l.6.2h0l21.3,4.5,1.5,3.5h-2.5l-1.7,2.1,1.5,4.8-7.1,1.7.5,2.2,5.5-1.2-2.6,6.9,6.2-.3-7.6,5.5,1.4,2.4-1.5,5.3,1.2,1.9,4-6,5,4.1.2,6.5,2.4.9,2.6-2.2,1,2.8-1.9,6.4,6.5,4.8-4.8,4.5,10.1,12.2-5,5.2,1,2.8h0l-1.6,1h0l-4.4-5.3-6.9.2-2.4-2.2-4,4.1-2.6-.3.5-5.5-2.2-.3-5,7.1-13.6,1.9-5.5-1.4-15,1.2-8.6-3.3-5.3,3.4-4.8-4.2h0l.2-7.9-13.6-1.4-13-6.8-2-5.2-5.9-1.1-4.1-3.5,4-6.6-3.1-3.7.5-4.6,3.1-.4Z"/>
    <path id="RS-07" d="M196.4,141.8l-.3.2h0l7.1,7.5h0l-.9,1.1h0l2.8,2.3-.3,4.5-5.7,3.7.3,4.7-11.8,6.9-1.4,5.1,2.1,4.3-6.3,2.3,1,4.3-4.3,5.6,4.1,3.2-8.7,4.2-5.1,5.3h0l-3.4-.9-.4-1.9,4.7-1.6,2.3-3.5-7.6.3-10.9-7.5-6.5-.4-1.9-1.9-.7-6.5,5.7-11.5-5.1-2.7-15.2,3.4-4.1-2.9-2.7,3-5.9-2.7h-6.7c0,0,1.9,4.1,1.9,4.1l-8.4-3.2-4.1,2.1-3.1-3.3-9.9,7.5-4.3,1-1.2-6.1,6.2-.8,6.9-5.7-1.1-3.4-8.2.5,3.8-2.4,1.8-7.1-2.2-10.2,4.9-.2,3.7-5.5-.8-3.8,8.1,3.8h2.1l.7-3.5,2.2-.2,3.5,4.1,3.7-.4h0l4.8,4.2,5.3-3.4,8.6,3.3,15-1.2,5.5,1.4,13.6-1.9,5-7.1,2.2.3-.5,5.5,2.6.3,4-4.1,2.4,2.2,6.9-.2,4.4,5.3Z"/>
    <path id="RS-08" d="M171.7,214.5l-6.1,1.7-2.4-1.5-4.5,4.3,2.6,7.7-2.9,10.3-4.8-.9-8.8-5.8-6.4,2.6-5.9-3.6-6.5,2.1,2.4,3.8-1,4.5-3.3,1,4,3.8-.2,2.1-3.1.5-4.6,5.7,12.7,5.2,6,12.4-.7,2.2-2.9-1.9-8.6,6-3.2-4,.5-3.6-2.9,2.1-3.4-4.6-4.5-1.9-3.1-11.1-4.2-.7-3.9,1.8-2.6-3.7-4,.8-5.3-8.9v-5.4s3.5-2.9,3.5-2.9l-2.6-10.8.9-2.7,4.1-.3,2.2-3.5-.4-4.1,3-1.4,4.9-11.8,3.2-1.7-1-4.8,2.4-.7-2.3-3.5,2.5-1.1-3-1.4,1.9-1.2.2-3.4,3.9-2.1-1-1.8,3.2-1.5-5.4-7.3h6.7c0,0,5.9,2.8,5.9,2.8l2.7-3,4.1,2.9,6.8-.4,5-3.1,8,2-5.2,12.4.5,6.1,2.2,2.4,6.5.4,10.9,7.5,7.6-.3v1.7c0,0-7.1,4.2-7.1,4.2l3.8,2.1,2.6,7.3Z"/>
    <path id="RS-09" d="M171.6,214.5v.8h0l-1,2.2,6.2,4.5,4.6-3.8,5,5,4-7.2,1.4,6.5,3.4,2.8-1.4,4.8,1.5,1.2-4.1,8.4,1.5,3.6-2.7,1.5,8.4,10,6.5-2.1.5-2.4,4.2-2.7h0v.6h0l2.1.2,1,6.8h0l-1.5,2.5h0l-11.7,12-9.8.9-3.6,3.3-4.3.5h0l-1.3.4h0l-5.9-1.6-5.3,2.1-4.3-5.3-2.7-.7-4.3,3.3-4.3-1.7,3.8,6.2-3.8,1.5-2.8-5.5-10.1-6h0l-6-3.1-1.7-6.2-12.7-5.2,4.6-5.7,3.1-.5.2-2.1-4-3.8,3.3-1,1-4.5-2.4-3.8,6.5-2.1,5.9,3.6,6.4-2.6,8.8,5.8,4.8.9,2.9-10.3-2.6-7.7,4.5-4.3,2.4,1.5,6.1-1.7Z"/>
    <path id="RS-10" d="M276.2,262.6l-1.8-.2.3-2.7-4,.7-6.5-5.2-1.2-3.3-6.9,1.2-8.1-2.2v-4.1h0l-4.5-.2-.2-3.6h0l2.2-1.2-4.8-4.6,2.8-6,5.5.9,1.9-1.5-4.3-9.1h-2.6l-3.6-4.5,9.5-3.3-4-3.3.2-6.5h1s9.8-1.8,9.8-1.8l6.5-5.8,3-.4h0l1.4.2h0v8.3c.1,0,2.4,2.1,2.4,2.1l.5,4.6,6.4,2.4-.9,7.2,3.6,7.7-.3,3.6-3.8,4.3.3,2.9,3.8,1.4.7,3.1-4.8,1.5-.3,3h0l-.8,1.5,4.6,6.3-2.8,5.6h0l-.3.9Z"/>
    <path id="RS-11" d="M275.5,248.2l.3-3,4.8-1.5-.7-3.1-3.8-1.4-.3-2.9,3.8-4.3.3-3.6-3.6-7.7.9-7.2-6.4-2.4-.5-4.6-2.2-2.1v-8.3h-.1l10.1-2.6,6.2-5.7,12.7-5.4h0l4.1,6,17,2.3,4.3,12.6,26.7,1.9,6.5,1.9,1.4,3.7h0l-3.8,6.9-2.4.2-.6,11-4.5,2-1,2.7h-3.3l-3.7,5.9,2.4,4.3-1.4,1.4,8.4,3.1.6,8.4,2.2,1.4,2.7-3.1,2.5,7.4-2.2,4.1.2,5.7-5.9,1.2-1.6,2.2-3.9-.6-1.7,2.4h0l-1.5-2.8h0l-11.9-2-3-2.8-8.4-.5-.5-3.6-4.3-3.8-8.6-1.5-2.3,1.8-2.8-1.8,2.3-2.5-7.4-8.4-2.5,4.6-3.3-.5-4.3-5.6-6.1.5Z"/>
    <path id="RS-12" d="M243.7,246.3l4.5.4h0v4.1l8.1,2.2,6.9-1.2,1.2,3.3,6.5,5.2,4-.7-.3,2.7,1.8.2h0l-.9,2.6h0l4.8,5.6-7.1,8.9,2,6.3-6.9,2.8,3.3,4.6-5.8,6.1.8,3.3,2.8.8-11.9,6.8h0l-.3-1.7h0l-9.4-1.3-2.5,1-.5,2.3,1.8,1.3-7.1,2.3-5.6-8.6h0l-1.6-.7h0l-9.2-13.8,9.8-7.6-9.1-8.8-1.9-6.7-7.2-6.2-1.9-6.5h0c0,0-1-6.7-1-6.7l-2.1-.2h0l.3-3.3h0l4-5-3.4-5,1.7-3.8,9.1,2.9,1.4,6,6-2.6,3.6,5.5,6.9-.7,4.6,3.8Z"/>
    <path id="RS-13" d="M309.8,316.7l-.3-.8h0l-3,3.3-4.3,1-4.1-3.3,3-1.5-2.5-2.5-8.4,2,.2-9.6-2.3,2-.5,7.4-4.6,3.3-4.6-.8,1,4.6-2.8,1-10.9-3-2,1.3h0l-2.6-2.3h0l-3.5-5.6h0l-.5-2.8h0l11.9-6.8-2.8-.8-.8-3.3,5.8-6.1-3.3-4.6,6.9-2.8-2-6.3,7.1-8.9-4.8-5.6h0l1.3-3.6h0l2.8-5.6-4.6-6.3.8-1.5h0l6.1-.5,4.3,5.6,3.3.5,2.5-4.6,7.4,8.4-2.3,2.5,2.8,1.8,2.3-1.8,8.6,1.5,4.3,3.8.5,3.6,8.4.5,3,2.8,11.9,2h0l1.5,2.8h0l-3.3,7.4h0l-1.5,4.6h0l-4.3,9.6-3.6.3,1.3,7.1-3.3,3.6h0l-1.5,1.3h0l-8.6.5-5.6,5.4Z"/>
    <path id="RS-14" d="M340.2,277.1l1.7-2.4,3.9.6,1.6-2.2,5.9-1.2-.2-5.7,2.2-4.1-2.5-7.4-2.7,3.1-2.2-1.4-.6-8.4-8.4-3.1,1.4-1.4-2.4-4.3,3.7-5.9h3.3l1-2.7,4.5-2,.6-11,2.4-.2,3.8-6.9h0l6.5,14,5.3,3.2,3.9-.5,12-23.8,14.8-7.2,10,10.8,4.3,2.4,4.7-.3,7.2,6.7.8,3.4-5.9,3.1-6.4-4.2h-3.9c0,0-3.4,8.7-3.4,8.7l-8.4,1.4,9.3,20.9,9.3,2.3,2.3,2.5-1.4,7.7-2.4-.2-2.8,5.5,1.4,1-1.6,6.5,1,5.6-8,2.1h0l-6.9-.2-.2-4.9,3.5-2.4-7.6-7.3-10.4-.2-4.9-3.9-3.5,5.9,4.5,13.5-4.9,5.3-2.4,8.6-6.3,4.1-5.7-10.2-3.5,2.4-6.7-2.9-2.5-4.7-11.6.7h0l.5-1.4h0l3.3-7.4h0Z"/>
    <path id="RS-15" d="M405.5,282l-.5,3.4-11,2.1-.2,8.2-1.8,1.7-2.8,14.8,4,6.5.6,7.8,7.7,7.3-.2,9.6,4.3,11.8,3.8,1,2.1,3.4,5.6,1.1,1,3.4h0l-8.7,7.9-4.1-.6-2.4-4.9-5.7,3.1-10-4.1h0v.5h0l1-6.2-3.9-5.7-3.5,2.5-4.7-4.5-6.9,1.8-1-2.5-7.6-2.2-.8-5.1-6.1-4.9-2,.6,3.7,7.4h0l-3.1-1.4-3.9,1.4h0l-5.1-9-2,1.4-7.1-2.9-5.7-9.4,1-5.5-2-3.5,1.6-2.7-3.7-6.1h0s3.3-3.6,3.3-3.6l-1.3-7.1,3.6-.3,4.3-9.6h0l1.1-3.2h0l11.6-.7,2.5,4.7,6.7,2.9,3.5-2.4,5.7,10.2,6.3-4.1,2.4-8.6,4.9-5.3-4.5-13.5,3.5-5.9,4.9,3.9,10.4.2,7.6,7.3-3.5,2.4.2,4.9,6.9.2Z"/>
    <path id="RS-16" d="M180.3,274.9h-.4c0,.1-.7,5.1-.7,5.1l1.9,3.6-2.4,4.8,4.6,5.7-1.2,6.4,1.2,7.4,2.6,1.5-1.2,5.2,6.9,15.8-7.7,1.9-.3,2.4-5,1.4-5.7,7.1-4.5-.9-1.4,6,3.1.7,5.2,5.5,8.8,15.6-.7,3.6,6,2.4,10-2.8,1.5,2.9h-2.4l-1.3,3,1.3,3.8-4.3,2.5,5.8,4.6.8,3.3-10.7,2.5-1.3,4.6-3.6.3-1.8,2.5-4.1,9.1h0l-10.5-13.6-3.2,2.1-7.7-.4-4.4-1.9-2.6-7.4-2.1,2.5-9-4.2-2.8-5.1-6.3-3.9-2-6.2-4.4-1.7-2.2-5.4-14.2-8.2-6.4-7.2,2.4-12.5,10.6-1.1,4.7,4.9,7-1.8-1.1-6.4,3.4-.5-1.8-11.1-4.8-6.1-4.9-2.5-1.1-6.4-12.2-15-2.2-7,14.3,6.9,12.7.5,3.5-5.5,5.2-2.2.3-4.3-3.3-2.8-1.2,3-6.5-5.4,8.6-6,2.9,1.9.5-5,1.9-.3h0l10.1,6,2.8,5.5,3.8-1.5-3.8-6.2,4.3,1.7,4.3-3.3,2.7.7,4.3,5.3,5.3-2.1,5.9,1.6Z"/>
    <path id="RS-17" d="M232.1,304.8l-.7-.3h0l-6.6,4.3.3,4.3-4.8,2.3-3.8,4.8-4.1.2,3,8.9-1.8,1.8-3-1.3-2.3,1.3-1,2.5,2.5,2.5-2,5.3-5.1,4.6,2.3,2.8,3.8.8,4.6,5.6-2,7.6,2,1.8-.3,6.6-3.3,1.3-3.6,7.1-5.3-3.3h-.1l-1.5-2.9-10,2.8-6-2.4.7-3.6-8.8-15.6-5.2-5.5-3.1-.7,1.4-6,4.5.9,5.7-7.1,5-1.4.3-2.4,7.7-1.9-6.9-15.8,1.2-5.2-2.6-1.5-1.2-7.4,1.2-6.4-4.6-5.7,2.4-4.8-1.9-3.6.7-5h0l1.7-.5h0l4.3-.5,3.6-3.3,9.8-.9,11.7-12h0l1.5-2.6h0l1.9,6.5,7.2,6.2,1.9,6.7,9.1,8.8-9.8,7.6,9.2,13.8Z"/>
    <path id="RS-18" d="M261.3,318.7l-.5-.4h0l-5.3,13.2,4.8,3.6-.5,2.3h-2.8l2.8,10.7-2.8,1.8-5.1-2.3-4.1,1.3-2.8-1.3-1.3,2,3.3,2.8-1.8,10.9,4.1.5,3,3-.5,4.6-3.8,3.6,2,1.8-1.9,3.9h-.1l-18.2,8.8,4.4,6-.2,5.2,2.4.5,1.5,10.5-5.7,1.8v1.7s-2.6-1.3-2.6-1.3l-3.6,1.3-6.9,4.9-.9,3.7,3.5,6.1h0l-.5,1.2h0l-2.6,2.7-13.5,2.1h0l1.5-2-.7-8.1-4.6-4-13.4-5.7-3.1,1.1-5.5-4.3h0l4.1-9.1,1.8-2.5,3.6-.3,1.3-4.6,10.7-2.5-.8-3.3-5.8-4.6,4.3-2.5-1.3-3.8,1.3-3h2.5l5.3,3.3,3.6-7.1,3.3-1.3.3-6.6-2-1.8,2-7.6-4.6-5.6-3.8-.8-2.3-2.8,5.1-4.6,2-5.3-2.5-2.5,1-2.5,2.3-1.3,3,1.3,1.8-1.8-3-8.9,4.1-.2,3.8-4.8,4.8-2.3-.3-4.3,6.6-4.3h0l2.3,1h0l5.6,8.6,7.1-2.3-1.8-1.3.5-2.3,2.5-1,9.4,1.3h0l.8,4.6h0l3.5,5.6Z"/>
    <path id="RS-19" d="M309.5,365.7l-.3-.6h0l-5.8-2-2.5,1.3-2.8-2.3-2.8,1.8h0l-9.6,2h0l-1,5.8-4.1,2.3-2,7.4-3.6,2.3-4.6-3.6-3.3,1.8-1.8-2-1.5,1-4.1,18.4h-.1c0,0-7.2-4.4-7.2-4.4l.3-3.8,4.8.9.2-1.5-4.9-8.4-4.2-1.6h-.3l1.9-3.9-2-1.8,3.8-3.6.5-4.6-3-3-4.1-.5,1.8-10.9-3.3-2.8,1.3-2,2.8,1.3,4.1-1.3,5.1,2.3,2.8-1.8-2.8-10.7h2.8l.5-2.3-4.8-3.6,5.3-13.2h0l3,2.8h0l2-1.3,10.9,3,2.8-1-1-4.6,4.6.8,4.6-3.3.5-7.4,2.3-2-.2,9.6,8.4-2,2.5,2.5-3,1.5,4.1,3.3,4.3-1,3-3.3h0l1,2.8h0l2,3.8-4.3,6.9,2.8,5.3,2.8,1,1,7.9,2.5,1.5-2.5,7.1,3,6.1-8.4,7.4Z"/>
    <path id="RS-20" d="M387.2,366.2v2.2h0l-1.2,3.3-5.3,1.4-11-3.5.2,6.1,2.4,4.3-3.3,2.2-1.8,4.7,9.8,7.6,5.1.6.2,5.7-4.3,1.4h0v-.2h0l-2.7,3.5-5.9-1-.2-2.7-11.8-8.4-3.1-.2-5.3,3.5-1.8-4.1-7.9,2.3h0l-.4-1h0l-2.8-11.2-6.1-2-1.3,5.3-5.1-2.8-1.3-2.3,1.3-3.8-3-.5-3-4.1,2.3-5.1-9.4.5h0l-1-2.2h0l8.4-7.4-3-6.1,2.5-7.1-2.5-1.5-1-7.9-2.8-1-2.8-5.3,4.3-6.9-2-3.8h0l-.7-2h0l5.6-5.4,8.6-.5h0l1.5-1.3h0l3.7,6.1-1.6,2.7,2,3.5-1,5.5,5.7,9.4,7.1,2.9,2-1.4,5.1,9h0l2.4-1.4,4.7,1.4h0l-3.7-7.4,2-.6,6.1,4.9.8,5.1,7.6,2.2,1,2.5,6.9-1.8,4.7,4.5,3.5-2.5,3.9,5.7-1,6.2Z"/>
    <path id="RS-21" d="M301.7,432.3l-.2-.3h0l-2.8.7-4-5.6-8.5-.7,1.6-7.1-2.6-5-4.3,3.8-1.3-15.8-3,1.6-3.5-6.2-4.7,2.1-4.8-.5h0l-.5.2h-2.9c0,0-.4-.3-.4-.3h0l4.1-18.4,1.5-1,1.8,2,3.3-1.8,4.6,3.6,3.6-2.3,2-7.4,4.1-2.3,1-5.8h0l9.6-2h0l2.8-1.8,2.8,2.3,2.5-1.3,5.8,2h0l1.3,2.8h0l9.4-.5-2.3,5.1,3,4.1,3,.5-1.3,3.8,1.3,2.3,5.1,2.8,1.3-5.3,6.1,2,2.8,11.2h0l.8,2h0l-3,4.1-20,10.7h-4.3l-6.3,5.3,1.8,3.3-.5,7.9-5.6,5.2Z"/>
    <path id="RS-22" d="M378,402.2l4.3-1.4-.2-5.7-5.1-.6-9.8-7.6,1.8-4.7,3.3-2.2-2.4-4.3-.2-6.1,11,3.5,5.3-1.4,1.2-3.3h0v-2.7h0l10,4.1,5.7-3.1,2.4,4.9,4.1.6,8.7-7.9h0l8.9,2.9,5.5,5.9,1.5,5.9,4.9,7.2,10,4.4-1.9,3.2.8,3.8-1.3,3.4-5.7,3.6-2.1,5.6-10.4,6.6-.4,6.4-3.2,5.6-4.4.3-1.6,2.1-5.6-3.6-3.2.5-.9,3.5-3.5-2.1-1.6.9h0l-7.7-1.6-5.3-6.1,2.4-2.7-16.9-8-1.4-2.2,5.9-4.1-3.1-2h0v-1.5Z"/>
    <path id="RS-23" d="M404.1,430.5l-1.2,2.9-5.5,3.1h0l-5.8,1.5-3.4,4.3-7.8,3.3-3.7-1.2v-4.1l-1.8,1-2-3.1-5.3,2.5-.6-4.5-4.1-.4-2.7,2.2-4.1-2-1.8,3.9-13.1.4-3.9,11-2.6,2.1h0s-7.3,4.9-7.3,4.9l-8.8-10.1-8.2-.8h0s-10.7-2.6-10.7-2.6l2.5-11.7h0l-.5-.6h0l5.6-5.2.5-7.9-1.8-3.3,6.3-5.3h4.3l20-10.7,3-4.1h0l-.4-1h0l7.9-2.3,1.8,4.1,5.3-3.5,3.1.2,11.8,8.4.2,2.7,5.9,1,2.7-3.5h0v1.8h0l3.1,2-5.9,4.1,1.4,2.2,16.9,8-2.4,2.7,5.3,6.1,7.7,1.6Z"/>
    <path id="RS-24" d="M397.5,436.5l-.4,2.5,5.3,8.1-3.8,6.5,1.6,1.7-3.6,13.3,7.7,5,3.4,5.2-3.6,10.7-3.8.6-2.4,7.5-9.8,3.1-7.4-6-5.7,3.5.7,4.1-4.9-2.1-3.9,2.3-8-1.3-8.5-4.7-1.5,4.6-9.4-.3-5.5,5.7-9,2.1-5.5-1.7h0v-5.4c0,0-2.5-5.4-2.5-5.4l4.2-4.6.9-8.3,9.2-6.9,1.8-8.2,6.1-6.3-3.8-8.2h0l-.6-.4h0l2.6-2.1,3.9-11,13.1-.4,1.8-3.9,4.1,2,2.7-2.2,4.1.4.6,4.5,5.3-2.5,2,3.1,1.8-1v4.1l3.7,1.2,7.8-3.3,3.4-4.3,5.8-1.5Z"/>
  </g>
</svg>