<svg xmlns="http://www.w3.org/2000/svg" xmlns:amcharts="http://amcharts.com/ammap" id="Layer_1" viewBox="0 0 512 512"><g id="_x3C_defs"><amcharts:ammap bottomLatitude="18.005" leftLongitude="-63.138" projection="mercator" rightLongitude="-63.018" topLatitude="18.064"/></g><path id="SX" d="m388.1 380 14.3-2.4 14-18-.4-10.2 15.6-.9 14-24.3 14.4-5-10.7-16.7 26.7-20-2.2-6.9 15.7-9.7-2.9-3.9-16.8 3.6-1.9-15 9.8-17.1 12-3.7 1.5-10.4 8.1-6.9-5.5-22.2 13.8-16.1-13 5.2-9.6-13.2-16.9-6.6-21.6 12.8-34.6-15.8-10.8 9.5-49-34.1-27.8 4.3-15.7-3.9-13.3 26.4-24.9 5.1-9.7 19.8-11.4 9.1-40.9 12.1-7 15 3.9 14 14.7 14.7 3.8 26.8-8.9-3.2-7.7-12.9-7.7 2.5-13.9-11.3-7.3 5.6 6.6 1.3 2.4 10.6-14.7 7.3 1.5 9.3 14.6 4.4 6.8 16.6 6.5-5.2 24.9-2.1 13.9 6.9 1.7 19.2 19.7-12.6 13 18.4 7.5 1.5 14-11.2 14.1.3 10.4 6.7.4 20.7 5.2-13.8-4.7-17.7 13.4-14.5 36.5.6 18.7 11.9-7 4.6 3.3 6-4.6.6V340l-6.2 2.7 10.4 8.2-5.1 26.2 6.4 3.1ZM4.4 178l15.3 14.9 17.6 2.8 18.3 11.8 7.2 23.6 14.2 2 .2 14.2 12.6-1.4 6.5 4.6v14.6c.1 0 4.5-3.1 4.5-3.1l1.3-21.9 19.5-6.8 33.6.6 21.6 12.5.6 5.9 7.5-3.8-13.9-19.8 4.3-2.3-1.3-11.7-32.5 6.3-24.9-1.7-1.8-12.4-14.9-10.1-1.2-10.9-7.5-5.2-17.8-1-8.6 5.2 8.9-1.2 4.8 19.6h13.2l-11.3 9.3-12.6-4 .2-12.8 5.1-4.9-14.2 6.7 4.4-9.7-11.1-9.9-26 3.5-5.7-5.1 6.3-2.1-6-1.5L4.6 178Z"/></svg>