<?xml version="1.0" encoding="UTF-8"?>
<svg id="Layer_1" xmlns="http://www.w3.org/2000/svg" xmlns:amcharts="http://amcharts.com/ammap" version="1.1" viewBox="0 0 512 512">
  <!-- Generator: Adobe Illustrator 29.1.0, SVG Export Plug-In . SVG Version: 2.1.0 Build 142)  -->
  <g id="_x3C_defs">
    <amcharts:ammap bottomLatitude="31.733447" leftLongitude="-9.301684" projection="mercator" rightLongitude="4.313022" topLatitude="43.792633"/>
  </g>
  <g>
    <path id="divider" d="M399.5,385h-180.7l-68.5,115.7h-4.2l68.5-115.7H57.6v-2.9h341.9v2.9Z"/>
    <path id="ES-A" d="M306.2,224.5l3,2.1,3.2-1.1,3.8,3,3.6-2.3-2.5-1v-1.3c.1,0,3.5-.1,3.5-.1l5.3-3.2,2.6,1.2,2.2-1.4.4,1.2,2.5-1.1,1.2,1.2v-1.2h-.1l7.6,3.4,1.1,2.9-4.4,2.6-.4,1.6-3.6.5-2.2,3.9-1.6-.5-7.3,3.8-.9,3.7-1.4-.4-2.4,3,.3,3.6-3.3,1.1-1.1,7.1-3.7,6.2h0l-4.4-3.1-4.2-7.1,2-7.1-.7-2-3.1-1.1-.3-3.7,2.6-2.4-.4-6.5h0l3.5-1.7-1.5-3.2,1-.4Z"/>
    <path id="ES-AB" d="M287.7,198.4l1.7.8v1.6c0,0,1.2-.8,1.2-.8l2.5,1.9,5.5,1-3.3,10.7,3.8,5,6-.6,1,6.6h0l-1,.4,1.5,3.2-3.5,1.7h0l-5.1-4-5.1,3.1-1.9-.6-3.1,6.5.6,6.3-3.6,2.7h-2.6s-.6-2.2-.6-2.2l-1.8-.6-5.3,3.4-4.5-.3-5.3,4.2-4.1,7.1h0l-6.7-2.4h0l3.4-4.1-1.2-8.7-2.8-.7-.7-4-2.6.6-2.9-1.5h0v-3.9c0,0,3-.9,3-.9l1-3.5-3-1.9-1-4-3.9-2.4,2.3-3.5-1-4.6,3.8-5.4-.6-2.2h0l7.4-1,4.4,4.5,1.7-2.1,1,2.4,3.9-2.2,3.8.6-1.5-3.8,2.4.3,1,2.4,7.1.5,8.5-5.7Z"/>
    <path id="ES-AL" d="M265.2,259.9l7.5,1.9-1.2,6.8,1.2,3.3,4.2,6.6,3.5.5,3.4,2.7h0l-5.6,6.1-3,11-3.1,2.2-.3,2.3-3.8,4.1-2.3.5-5.4-4.9-2.1,1.2-1.8-.9-2.7.8-4.3,5.3-4.8-.5-2.4-2.3h-6.5s-.4-1.4-.4-1.4l3.6-2.3-1.3-2.8,3-2.5-1.7-5.4,2.6.7,3.3-7.3,5.9,2.7.8-7.3,5.8-4.6,3.1-.5-1.1-4.4,2.4.4.7-10.3,2.8-1.6Z"/>
    <path id="ES-AV" d="M171.6,126.6l4.3-1.2,4,2.8,4.5-2.4h0l.3,3.7,4.7,4.5,1.1,4.1-.9.8,2.1.3,2,3.8.4,4.6,3.2-.6h0l2-.3-.6-1h0l3.7-.6h0v2.8s-2.6.9-2.6.9l-1.5-1.1-1,9.1-3.2.2-1.1,3.6-2.9-.9.6,2.1-1.6,3.2h0l-2.4.8-1.4-3.5-3.4.3v1.7c-.1,0-4.8,4.8-4.8,4.8l-1.9.4-.2-2-4.9,3.1-5.3-1.3h0l-1-2,.8-4.2-6,2.9-6.6-4.2h0l2.1-2.3-.6-3.1,1.8-1.6,2.4-.7-.4,1.4,1.5.9.6-1.7h1.4c0,0,1.3-3.9,1.3-3.9l-3.2.7.3-1.9,2.2.2,2.1-1.7v-2.1c0,0,7.1-6,7.1-6l2.3-7.7-2-2.8.9-2.9Z"/>
    <path id="ES-B" d="M395.2,76.3l1.9-.7,5.4,1.4-1.7,2.5,1.4,2.4-1.8.7v-1.4c0,0-1.3-.2-1.3-.2l1.2,2.1,3.9,1.6,4.6-1.4.8,1.8,2.3-.8,1.6,2.4h2.3c0-.1.3,2.7.3,2.7l-2.2,1.4,1.7,2.3-3.2,1.9-1.8-.5.8,3.1,2.7.3,3.5,3.6,3.5-1.2,3.8.5v3.6h0l-16.4,8.2-4.9,7.2-15,4h0v-1.7c-.1,0-2.4-1.1-2.4-1.1l1.6.3.5-1.8h-1.6c0,0-1.6-3.8-1.6-3.8l-2.1.2.4-4-2.8-1.6,1.9-2.4-2-.3h0l.4-1.1-1.5-.6,2.9-1.4-2.2-2.5,1.4-1.2-.3-2.6,1.7-.3-.3,1,1.4-.5.8,1.5,2-1.1,1.2-3.5-2-.9,2.7-2.1v-2.2c0,0,2.1-.2,2.1-.2l-.7-1.3v1.3s-1.6-.6-1.6-.6l1.7-1.3-.8-1.3,1.5-1.4-.8-1.9,1.3-1.8-1.9-1.3.8-1.3-1.1-2,5.5-1.1Z"/>
    <path id="ES-BA" d="M185.6,197.1l-.6,5.1-1.7.3,3.6,6.4-5.2-1.4-2.1,4.1,1.3,2.2-4.2-.5,1.4,4.2,2.8.9-.5,2.2-2.2-.2-.9,1.4-1.5,4.7-1.8.4h0l-4.4.4v2.5s-4,3.4-4,3.4l-2-.3-1.5,2.9-4.8,3.2-.2,4.2,1.7,5-2,3.1h0l-1.6-.3-2.5,2.3-1-1.8,1.8-1.2-.3-1.2-5,.6-2.4,2.8.6,1.7-1.4,2.7-5.2.6-2.1,1.6h0l-7.5-4.8h-1.2c0,.1-.4,1.9-.4,1.9l-3.8-.4-1.3-3.1-4.4.2-1.9-1.1.7-2.4-4.4-1.2h0l-4.9,1.6-6.2-10.2-1.8-.7,3-7.7-.5-4.1,7.1-5.8-.4-1.7,3.2-4.8-2.5-3.8-3.7.3.3-2.6-3.4-1.5.3-2.9h0l.9.5,2.7-4.9,1.8.5-1.3.7.7,1.7,1.2-.6,1.1-2.5-1.9-1.1.6-.9,5.3,2.2,2.6-.3,1.8,2.8-1.7,3.4,1.1,2.1,4.3-.3,3,1.7v-1.1c0,0,5.1.8,5.1.8l1.7-1,1,3.7,4.9,2.7,4-4,.3,3.1,2.2-2.3.5,1.1,3.7-2.5,3.9,2.5,2.8-.7.9-2.1-1.2-1.5,2-1.1,4.4,2.4,2.1-3.4.2-3.9,3,1.3,4-1.4.3-2.1,1.9,1,3.3-1.3h.4l2.2,1.1,3.7-2h0l2.2-1.4Z"/>
    <path id="ES-BI" d="M247.7,26.1l2.2,4.1v-2c0,0,1.3-.2,1.3-.2l7.4,4.1h0l-.8,3.4-2,1v5.4c-.1,0-1.6.4-1.6.4h0l-3.7.6.9,2.4-4.4-.3-4-.9-2.5-2.1,1.2-1.8-1.4-2.9-3,2.4-2.1-.7h0l-3.6-1.6-5.3,2.9h0l-1-4.5,3.7-2.9h5.6s.1-2.3.1-2.3h0l1.6-.5,2.7,1.7-.6-2.1,2.9-1.6v-1.2s6.2-.9,6.2-.9ZM230,34.8h1.8s-.5,2.3-.5,2.3h-1.1s-.2-2.3-.2-2.3Z"/>
    <path id="ES-BU" d="M245.2,55.2v.3h.1l8.6.9-1.6,2.9,1,1.2,1.8-.7v1.6c.1,0-7.9-.9-7.9-.9l-3.2-3.2,1.1-2.5h0l.2.2ZM226.4,40.3l5.3-2.9,3.6,1.6h0l-1.3,1.8,1.5,1-.3,2.9-1.2.3,3.8.8,2.5,2.8-3.5,1.7-4.3-2.2-1.9,3.2,2.5,2.1.5-1.8,2.4-.9-1.1,5.8,3.2-.4,6.1,5.5h-7.3c0-.1.8,2.1.8,2.1l-2.4,2,2,.6-.7,1.7,1.6,1.9-.4,3.3-1.4-2,1.2,2.6-1.5.2.7,4.6-1.3,2,3.1,4.9h3.3s.6,2.7.6,2.7h0l-3.3,5.8-2.6.3-2.4,3.8-3.6-3.9.3,4.9-2.5,1.3-3.4,6.3-2.2-1-.4,1.5h0l-4.2.7-1.8,1.8-.4,2.9-.9-3.8-1.8,2.5-5-4.4h0l-3.1-6.1,1.1-1.8h0l-1.5-4.4,3.5-1.3v-1.3s2.8-1.2,2.8-1.2v-1.7s-4.5,1.8-4.5,1.8l1.6-4.2-3.1.6-.7-2.2,1.5-.6-4.8-1.5.5-1.8-1.4-1.4-1.3-7.7-1.6.3-.4-1.7.6-1.7h2.4c0,.1-1.9-4.2-1.9-4.2l1.3-2.7-.9-3.2,6.8-3.1h0l1.1-.2h1.5c0-.1,5.9-1.9,5.9-1.9l-.7-3-.9-.5-.5,1.7-1.4-1.7,2.7-2.2-1.5-.4-1.5,2.1-1.8-1.4,1.5-3.3,3.1-1.5v-1.9c0,0,3,0,3,0l3.4-4.2,1.5,1.4,5.9.7ZM205.6,82.4v1.4h.1l-1.6-1.2h0l1.5-.2Z"/>
    <path id="ES-C" d="M89.3,11.3l.9.7-1.4,2.9h0l.5,2.5-1.4,1.5-1.4,7.6-1.4,2.1h-2.2c0,.1.1,2.8.1,2.8l-1.9,2.2,1.3,14.7-2.9,4.5h0l-1.5.8-4.4-1.2-3.1,2.1-1.9-1.3.2,2-1.9.2-.5,1.5-4.8-.3-1.6,2-3.6.4-.3,1.3h0l-2.5,1.7-1.5-1.3-.2,2.6-1.4-1.6-.6,2.5-4.1,3,.4-1.8-1.8-.7,1.9-5.2,4.6-3.7.2-1.5-2.3,1.6-3.3-.3-.9,2.2-2-2.8,1.5-1.2-2.1-5-.4,1.3-1.4-1.2-1.3,2.7-.8-1.8,1.2-3.5-1.2-2.5,4.3-2.1v-2l-.8,1.2-.7-1.8,2.4-1.6,2.5.8,1.5-2.2,2.5.6-1.9-2.5,4.9-3.1,4,2.5,5.8-1.1,4.3-3.3.5,2.2,1.2-.4-.2-1.9,1.6-.7,3.1,3.5.7-4.3-4.1-.9,3.7-.7,1.5-2.3-1.5,1.5-4.5.9,1.5-3.3-.9-1.4,1.9.4,5.4-4.9,1.4,1.5-.4-3.2h2s3-2.8,3-2.8l1.2-.2.6,2.5-1.5,2.1h1.6c0,0-.2-1.3-.2-1.3l1.5.2-.7-.6,4.5-3.7Z"/>
    <path id="ES-CA" d="M132.9,300.8l14.1,2.3,1.5-2.9,4.1-.2,1.6-2.3,4.3,3.3-.4-1.5,2.4-2.1-.9-2.2,2.2-.2-.3,4.4,4.4-4.1,2.2,3.8,3-2.5h0l1.8,4-1.5,2.7-5.4-1.2-1.3,2,1.6,1.8-1.1,4.1-4.2,2.1-2.1,3.5-2.9-.4v1.2c.1,0,2.8.6,2.8.6l1-1.5h1.9c0,0,3.6,8.4,3.6,8.4l2.2.6h0l-2.8,6.2-3.2-.4.3,3.8-5.6,2.4-2.7-2.3-3.6-.4-3.5-4.1h-4c0,0-8.8-13.9-8.8-13.9l1.2-.2,1.4,2.9,1.7-2.4-2.2.6.4-3.2-5-1.6-1.6-3.5,2.9-3.2h0l.6-4.1Z"/>
    <path id="ES-CC" d="M115.7,162.9l3.5,1.3,1.2-1.3.9,1.1,3.3-1.2,1.6-3.2,9.8-5.9,3.7,1.9-.4.9,2.1,1-1.3,1.7,2.9.7,1.5,2.1,1.7.5,1.1-2.1,2.8-1.1v2.8c.1,0,1.9-.3,1.9-.3h0l6.6,4.2,6-2.9-.8,4.2,1,2h0l-1.1.7-1.2,9.3,2.6-.6,1.4,1.2-.8,4.3,1.8.3,2.8-2,.9,3.5-2.2,4.9,8.2,8.4h0l-3.3,1.3-1.9-1-.3,2.1-4,1.4-3-1.3-.2,3.9-2.1,3.4-4.4-2.4-2,1.1,1.2,1.5-.9,2.1-2.8.7-3.9-2.5-3.7,2.5-.5-1.1-2.2,2.3-.3-3.1-4,4-4.9-2.7-1-3.7-1.7,1-5.2-.8v1.1c0,0-3-1.7-3-1.7l-4.3.3-1.1-2.1,1.7-3.4-1.8-2.8-2.6.3-5.3-2.2-.6.9,1.9,1.1-1.1,2.5-1.2.6-.7-1.7,1.3-.7-1.8-.5-2.7,4.9-.9-.5h0l-2.5-2.6.5-4.9-2.8-1.3-5.1-7.2,6.7,1,10.2-1.2.9-5.8,2.7-2.5,1.3-5.9-2.5-4.2-2.3-.6-.6-2.5,1-2,4.3-1.5Z"/>
    <path id="ES-CE" d="M74.9,433.2l-3,3.4-1.9-1.4-2.1.8-1.7-2.2-3.9-1.6-1.5-9.6-1.7-2.9,1.1-1.5,4.7-.8,5.5,4,4.1,5.8,3.7-2.9.2,1.8,4,3.3,3.7-1.5.6-3.2,3.4-3,2,2.7h1.5c0,0-.2,2.8-.2,2.8l-2.4,1.9-6.5,2.6-4.2-1.3-2.8,3.6-2.4-.7Z"/>
    <path id="ES-CO" d="M174.5,271l.5,2-2.1-2.3,1.6.2ZM174.1,226.8l1.4,1.4,4.1.4.5,2.9,4.9,1.7,8.2,7,5.9,2.2h0l1.9,1.9,1.6,6.4-3.9,4.9v9.2c-.1,0,2.4.7,2.4.7l-1,2.4,2.4,1.5-1.8,2.4,5.2,4.7-.9.8,2.8,3.4h-2.7c0,0-2.3,2.4-2.3,2.4l-2.5.3-.6,4.3-2.3,1.8h0l-1.8-3.7h-1.9s-3.1,2.7-3.1,2.7h-2c0,0-.4-1.8-.4-1.8h-1.3s-1.1-3.5-1.1-3.5l-3.1.5-1.9-4.3h-1.4c0-.1-2.1-3.5-2.1-3.5l.6-3.8-1.4.7.6-2.1-1.5-2.2h-2.3s0,1.9,0,1.9l-1.9-1.5.7,1.5-2.2-.7-5.8,3.8-1.7-4,3.3-.6v-3c0,0-8.9-14.5-8.9-14.5h0l2-3.1-1.8-5,.2-4.2,4.8-3.2,1.5-2.9,2,.3,4-3.4v-2.5s4.4-.4,4.4-.4Z"/>
    <path id="ES-CR" d="M177.5,199.3l2.5-6.7,3.6,2.3v3.5h-.1l-3.7,2-2.2-1.1ZM185.6,197.1l2.2-.2,3-4.4,2,3.4.6-1.8,6.5,1.9,1.6-.7,1.1-3.4h3.8c0,0,.4,2.3.4,2.3h-1s-.3,2.7-.3,2.7h-1.6s-1,3.9-1,3.9l5.6.4.2,2.2,3.5,1.6,2.1-1.4,2.3.9,6.1-1.4,3.9-4.2,3.2.2.5-3,4.8-1,4.6,2.2,2.2-1.2h0l2,3.3-.7,1.3,1.5.4,2.2-1.9,1.1,3.2h0l.6,2.2-3.8,5.4,1,4.6-2.3,3.5,3.9,2.4,1,4,3,1.9-1,3.5-3,.9v3.9h0l-3.8,3.3-2.6-.8-1.2,2.6-2-2.9-2.1,1.6-6.3-1.8-4.1,3.3-4.2-2.1-.5,2.2-6-1.1-4.1,2.3-11-1.3-.4,2.2h0l-5.9-2.2-8.2-7-4.9-1.7-.5-2.9-4.1-.4-1.4-1.4h0l1.8-.4,1.5-4.7.9-1.4,2.2.2.5-2.2-2.8-.9-1.4-4.2,4.2.5-1.3-2.2,2.1-4.1,5.2,1.4-3.6-6.4,1.7-.3.6-5.2Z"/>
    <path id="ES-CS" d="M310.4,179.2l-1.3-4,2.7-2.9,4.5-1,2.2-7.6,3.7.3,4.7-5.1-2.1-3.3,2.4-1.2-.7-5.8h-2.5c0-.1-.2-2.4-.2-2.4l4.6-1,.4-2.7,1.9-1.5,3.2,2.6h2.6s.8,1.5.8,1.5l4.1-1.8h0l3.9,1.9-.4,2.5,4,1.2,1.2,2.3,2.5,1h0l-11.8,18.5-3.1,1.9-1.8,5-5.9,8h0l-4.5-3.3h-1.6c0,0-2.5,3.6-2.5,3.6l-2.4-3.4-1.9,2.3-1.4-.2-.8-3.7-1.1-.7-1.3,1.6-2.2-2.8Z"/>
    <path id="ES-CU" d="M237.6,167.6l1.6.2.3-2.3,3,2.1,2.9-2,1.3-10,1.9,2,.2-1,1.2.7.2-1.9,5.1,1-.4-5.1,1,1.5,2.7-.7,1-.8-1-2.5,3.7,1.2.7-3,2,1.1,2.6-1.5,4.8,3,.7-1.1,1.2.7,2.2,6.9,1.6,1.3h0l3.5,3.2.2.5,4.8,5,3.3-.3-.3,2.2h0l2.3,5.4,6.8.3h0l.7,1.6h0l-2.1,1.2.3,3.5-2.6,7.6-2.9-.5-4.4,5.2v6h0l-8.5,5.7-7.1-.5-1-2.4-2.4-.3,1.5,3.8-3.8-.6-3.9,2.2-1-2.4-1.7,2.1-4.4-4.5-7.4,1h0l-1.1-3.2-2.2,1.9-1.5-.4.7-1.3-2-3.3h0l.7-7.1-7-9.7,1-4.7h-1.5c0,0-.6-3.3-.6-3.3h0l3.2-1.1-1.2-2.2.9-.6Z"/>
    <path id="ES-GC" d="M322.2,454.5v4.4s2,4.7,2,4.7l-.9,2.7-6,4.4-3.3-.4-5.1-5.8.3-3.8,3.5-2.3.2-3.2,7.7,1.5,1.5-2ZM371.3,433.5l1.8,2.3.2,5.2-3,10.9-9.7,3.1-3.6,4.3-5.8-.8.6-1.6,3.9-.2,4.7-3.5.6-4.1,5.5-9.6.5-4.4,4.2-1.5ZM384.7,415.9l1.6,2.1-2.1,7-8.1,3.1-1.6,2.5-2.8-.6,1.8-6.5,5.1-3.4,3.7.2,2.4-4.4Z"/>
    <path id="ES-GI" d="M392.6,68.4l5.6,1.5,2.5,4.6,2.2-.6,1.4-2.2,4.1-1.1,5.7,2,3,2.6,1.4-1.1,3.2.8v-2.7s4.1-.6,4.1-.6l1.3-1.8,6.2-.7,1.7,2.1,2.8-.4-.3,3.3,5,1.7-1.8,3.7-3.3-1.2-1.6,2.3.4,3.6,2.8,2.5-.6,1.9,1.3,2.7-1,3-8.6,7.6-5.1,2.7h0v-3.6s-3.8-.5-3.8-.5l-3.5,1.2-3.5-3.6-2.7-.3-.8-3.1,1.8.5,3.2-1.9-1.7-2.3,2.2-1.4-.3-2.8h-2.3c0,.1-1.6-2.3-1.6-2.3l-2.3.8-.8-1.8-4.6,1.4-3.9-1.6-1.2-2.1,1.3.2v1.4c0,0,1.7-.7,1.7-.7l-1.4-2.4,1.7-2.5-5.4-1.4-1.9.7h0l.4-2.7h-1.6s-.1-2.4-.1-2.4l-2.2-.7v-2.3h0,.9Z"/>
    <path id="ES-GR" d="M254.2,253.1l6.7,2.4h0l4.3,4.4h0l-2.8,1.6-.7,10.3-2.4-.4,1.1,4.4-3.1.5-5.8,4.6-.8,7.3-5.9-2.7-3.3,7.3-2.6-.7,1.7,5.4-3,2.5,1.3,2.8-3.6,2.3.4,1.5h0l-6.7.5-2.6,1.8-5.9-2-5.6.3h0l.3-2.6-1.9-2.1-7.1-1.9-7.2-4.5-1.8-6.8h0l2.3-1.8.6-4.3,2.5-.3,2.3-2.5h2.7c0,0,5.1.7,5.1.7l1.8-4.2,5.1-1.5,3.9-3.6,3.4,2.1,5.9-3.2,4,1.9,3.6-.3,3-3.2-.6-2.8,3.8-6.7,5.8-3.3v-2.6s1.7-.9,1.7-.9Z"/>
    <path id="ES-GU" d="M233.1,119.3l4.7,1.3,5-2.3,2.7,3,3.4-.8,2.8,2.6,1.3-.4-1,1.6,1.4.4-.6,1.2,1.9-.5,3.8,4.4,2-1.2,1,1.3,2.9-1.7,1.8.6,1.4-1.5,2.4,2,.2-3.3h0l3-1.1,11,9.7h0v2.7c0,0,2.4,2.9,2.4,2.9v9.1c-.1,0-1.8,1.4-1.8,1.4l-2.5-1.2-.5,4.4-3.7,3.7h0l-1.6-1.3-2.2-7-1.2-.7-.7,1.1-4.8-3-2.6,1.5-1.9-1.1-.7,3-3.7-1.2,1,2.5-1,.8-2.7.7-1-1.5.4,5-5.1-1-.2,1.9-1.2-.7-.2,1-1.9-2-1.3,10-2.9,2-3-2.1-.3,2.3-1.6-.2h0l-1.3-5.3-2.8,1.6,2.1-6.6-2.2-1.6v-3c0,0-3.2-1-3.2-1l-.7-4.9-.7.7-1.7-2.4-.4,1-2-.8.8-3-2.2-1.2,3.7-9-1-3.5-2-.4-1.7-3h0l4.4-2.1-.2-2h5c0,.1,1.5-1.9,1.5-1.9Z"/>
    <path id="ES-H" d="M112,288.1l1.1,2.1-2.8-1.7-11.9,1.1-1.9-12.4-1.9-2.8,3.3-8.2,4.4-4.4.7-4.5,4.5-1,.7-1.6,3.1.9,2.3-7.6h0l4.4,1.2-.7,2.4,1.9,1.1,4.4-.2,1.3,3.1,3.8.4.4-1.8h1.2c0-.1,7.5,4.7,7.5,4.7h0l1.8,1.5-1.3,1.7,1,3-1.7-.9-1.1,2.8-2.9-1-5.2,1.6-2,3,.3,1.4,4.3.2,2.8,7.1-2.5,3.9,1.7,1.5-.3,7.1-1.4,1.9,1,3.5-.8,2.1,1.5,1.4h0l-.6,4.1h0l-1.5-.5-4-6.7-14.8-9.6Z"/>
    <path id="ES-HU" d="M307.1,57.3l1.7-1.9.9-5,2.9-.8h0l5.1,6,2-2,3.6,1.2,2.6-2.1,4.9,2.2,1.7,3.4,2.9,1.6,6.1-2.2,3.8,2.8,2.1-2.2,2,1.5h7.6s1.5,3,1.5,3l1.9.4-.9,4.6-1.6.8,2.4,7.2-3.4,13.8-3.1,2.7,1.5.8v2s-4.4,4.6-4.4,4.6l-2.3.3-2.3,3.3.7,3.5h2.5c0-.1.6,2.4.6,2.4l-3.4,2.5-.2,3.2h0l-2.9-.9-4.9,3.3-2.7-.4-1.1-1.6.5,2.1-1.3-.5-3.4-9.8-1.6-.5-1.3,1.2-3.7-2.7-.4-2.2-4.7-1.8v-4.6c0,0-4.4-5.2-4.4-5.2h-3.9l-3.4-2,2.6-4,.3,1.8,1-.6,1.1-9.9-.2-3.1-1.3-.9-1.1,5.5-2-.7-.4,1.8-.9-.6,3.3-6-2.9-1.8.4-3.2-1.3.2,1.2-1.5-1.2-1.4.9-1.2-.7-2.4,1.5-1.4-1.4-.5.7-1.8Z"/>
    <path id="ES-J" d="M247.4,234.8l2.9,1.5,2.6-.6.7,4,2.8.7,1.2,8.7-3.4,4.1h0l-1.8.9v2.6s-5.7,3.3-5.7,3.3l-3.8,6.7.6,2.8-3,3.2-3.6.3-4-1.9-5.9,3.2-3.4-2.1-3.9,3.6-5.1,1.5-1.8,4.2-5.1-.6h0l-2.8-3.4.9-.8-5.2-4.7,1.8-2.4-2.4-1.5,1-2.4-2.6-.7v-9.2c.1,0,4-4.9,4-4.9l-1.6-6.4-1.9-1.9h0l.4-2.2,11,1.3,4.1-2.3,6,1.1.5-2.2,4.2,2.1,4.1-3.3,6.3,1.8,2.1-1.6,2,2.9,1.3-2.6,2.6.8,3.8-3.3Z"/>
    <path id="ES-L" d="M359,52.2l6.8,3.1h4.9c0,0,3,3.5,3,3.5l6-.5,2.7,5.3-.9,2.8,1.8,1.1-1.6,1.2,1,2,3.3.2.3-1.1,3.1-.4.4-1.5,1.9.5h0v2.3s2.3.7,2.3.7v2.4c.1,0,1.7,0,1.7,0l-.4,2.7h0l-5.5,1.1,1.1,2-.8,1.3,1.9,1.3-1.3,1.8.8,1.9-1.5,1.4.8,1.3-1.7,1.3,1.6.6v-1.3s.7,1.3.7,1.3l-2.2.2v2.2c0,0-2.6,2.1-2.6,2.1l2,.9-1.2,3.5-2,1.1-.8-1.5-1.4.5.3-1-1.7.3.3,2.7-1.4,1.2,2.2,2.5-2.9,1.4,1.5.6-.4,1.1h0l-5.6.2-1.8,1.5.5,2-2.2.9-2.3-1.5,1.1,1.8-3.6,4.5-3.2.7-.6-1-.8,1.4-6.1,1.6-2.4-1.5-1.6,1.6-1.3-1.9-.9,2.5h-1.5c0-.1-1.6-5.6-1.6-5.6h0l.2-3.2,3.4-2.5-.6-2.6h-2.5c0,.1-.7-3.4-.7-3.4l2.3-3.3,2.3-.3,4.4-4.6v-2s-1.5-.8-1.5-.8l3.1-2.7,3.4-13.8-2.4-7.2,1.6-.8.9-4.6-1.9-.4-1.5-3h0v-6.3c0,0,1.7-1,1.7-1Z"/>
    <path id="ES-LE" d="M180.7,38.2l-.3,2.4,3.7,4.6h0l-5.3,7.1.2,3.1-1.3,1.8,2.1,1.6-1.4,6.4.4,7.5-2.2.5.8,2.8-1.7.9h0l-1.2-.3-.5,1.7-1.8-2.3-2.3,2.1-1.7-.4-.2,2.5-4.7-.3.4,7.8h0l-1.5.5h0l-3.2-2.9h0l-2.1,2-2.6-3.9-5.7,1.3-1.7-2-1.8,1.4-2.4-1.5-5.9.4-3.2-2.5-5.9,1.1-6.6-1.2-2.6-1.9h0l1.6-4.6-3.5-2,.7-3.7-3.5-1.3-1.5,1.2-3.1-.6h0l1-5.4,1.4-.4-1.3-2.3,5.7-4,.9-1.6-1-2.2h1.8c0,.1-.3-1.8-.3-1.8h0l2.2,1.4,2.1-1.7h6.5c0,0,1.8-.8,1.8-.8l-1.4-2.3,1.7.2,2.1-3.1,4.2,2.2.4-1.7,3.8.7.5-2,3.5.5,1.9,3.2,3.5,1.3,3.6-4.1,6.4,1.5.5-1.5,2.8.2.7-2,8.6-.3.8-3.5,2.5.4,2.7-2.8,2.3,2.4ZM164.4,78.3l1.4.3h0l-1,.9-.4-1.2Z"/>
    <path id="ES-LO" d="M242.5,88.5l-.6-2.8h-3.3s-3.1-4.9-3.1-4.9l1.3-2-.7-4.6,1.5-.2-1.2-2.6,1.4,2,.4-3.3-1.6-1.9.7-1.7-2-.6,2.4-2-.8-2.2h7.2c0,.1,1.2,1.1,1.2,1.1l-.2,2.6,2-2.9,2.7,1.2-.8,3.4,1-.4.9,1.8,1.4-.9.3,1.3,2.2-.5.6-1.6-.2,1.3h3s2.4,1.7,2.4,1.7l1.9-.7,2.3,2.2,3.4-.2.7,3.1,3-.7,4,3.2v1.6c0,0,6.1,2.6,6.1,2.6v1.8c0,0-4.5,0-4.5,0l-2.3,3-.3,2.4,1.7.9h0l-.3,1.8h0l-4,2-4.1-1.7-1.7-4.7,1.1-1.3-4.6.4-2-2.5-5.9,1.3-2.1,5.1-5.3-.5,1.3-4-1-1-1.7.7-.7,3.1-3.2.6Z"/>
    <path id="ES-LU" d="M90.9,13l1.4,3.7,2.1-3,5.4,2.9,3.6,4.2-.7,1.6,1-1.3,6.3.5-.4,3.6h0l-1.6,2.1h-2.2c0-.1-.3,1.5-.3,1.5l1.8.9.8,3h1.3c0,0,0,2.6,0,2.6l2.9,1.7.4,3,3.1-2,1.3,1.7-5.6,5.4,4,1.3,1.5,3.2h0l.3,1.9h-1.8c0-.1,1,2.1,1,2.1l-.9,1.6-5.7,4,1.3,2.3-1.4.4-1,5.4h0l-4,7.9-.6-2.7-2.8-1.8-9.9,2-5.5-3.5.8-1.2-4.8-.6.7-1.8-1.3-1.2h0l2.2-5.5-3.8-3.2.7-2.6-1.4-.4h0l2.9-4.5-1.2-14.7,1.9-2.2v-2.7c-.1,0,2.1-.1,2.1-.1l1.4-2.1,1.4-7.6,1.4-1.5-.5-2.5h0l2.2-1.9Z"/>
    <path id="ES-M" d="M198.8,145.8l.6,1-2,.3h0l1.4-1.2ZM222.4,125.2l1.7,3,2,.4,1,3.5-3.7,9,2.2,1.2-.8,3,2,.8.4-1,1.7,2.4.7-.7.7,4.9,3.1,1v3c0,0,2.3,1.6,2.3,1.6l-2.1,6.6,2.8-1.6,1.3,5.3h0l-.9.6,1.2,2.2-3.2,1.1h0l-.4-1.1-3.3,1.8-1.9-1.4-1.9,1.9-3.6-.5-9.5,6.8-2.3-1.8,3.9-.9,4.3-4.4.4-2.2-1.9-1.4-2.5.5-2-1.9-4.6-.5-3.9-3.2-2.3.8-1.5-2.2-4.2,3-1.9-3.9-1.8,3.4-3.2,1.6-1.4-.7h0l1.6-3.2-.6-2.1,2.9.9,1.1-3.6,3.2-.2,1-9.1,1.5,1.1,2.6-.9v-2.8h0l2.9-4.4,2.9.4,2.7-7.7,3.6-1.4,5.4-6.3,2.3-.7Z"/>
    <path id="ES-MA" d="M186.7,286.5h1.3s.4,1.9.4,1.9h2c0,0,3.1-2.8,3.1-2.8h1.9s1.8,3.8,1.8,3.8h0l1.8,6.8,7.2,4.5,7.1,1.9,1.9,2.1-.3,2.6h0l-19.8.6-7.8,8.6-9.5.2-7.8,3.4-2.4,4.1h0l-2.2-.6-3.6-8.3h-1.9c0,0-1,1.5-1,1.5l-2.7-.6v-1.2c-.1,0,2.8.4,2.8.4l2.1-3.5,4.2-2.1,1.1-4.1-1.6-1.8,1.3-2,5.4,1.2,1.5-2.7-1.8-4h0l7.5-4.4-1-2.4,2.1.7,1.6-1.7,1,1.9,2.8-1.8-.8-2.1,2.6-.3Z"/>
    <path id="ES-ML" d="M119.7,443l1.6.8-.5,2.7,3.4,4.2,3.5,2.1-2.1-.9-1.6.8-.3,3.5,2.8,2.6-.6,1.2-5.4,1.9-5.8-5.6-.9-4.7,2.8-7.9,2.6-1.7.6,1.1Z"/>
    <path id="ES-MU" d="M260.9,255.4l4.1-7.1,5.3-4.2,4.5.3,5.3-3.4,1.8.6.6,2.2h2.6s3.6-2.6,3.6-2.6l-.6-6.3,3.1-6.5,1.9.6,5.1-3.1,5.1,4h0l.4,6.5-2.6,2.4.3,3.7,3.1,1.1.7,2-2,7.1,4.2,7.1,4.4,3.1h0l-3.1,5.2,4.2,3.4.3,1.1-6.5,2.1-5-1.2-1.2,2-3.3-1.7-3.6.5-4.3,3.1-.7,2.5-4.7,2h0l-3.4-2.7-3.5-.5-4.2-6.6-1.2-3.3,1.2-6.8-7.5-1.9h0l-4.3-4.4Z"/>
    <path id="ES-NA" d="M283.1,32.5l1.3,2.5,2.3-1.8,4.8,1.8v2.8c0,0-2.9,4.5-2.9,4.5l1,1.8,2.8.8.3-2.9,2.4-1-1.2,2.1,1.4,1.1,1.7-.3,8.6,4.3,6.2-.6.8,2.1h0l-2.9.8-.9,5-1.7,1.9h0l-4.1,1.9-.8,2.5-3.2-.2-1.6,4.3-2-.3-.8,1.5.5,1.8-2.2,2.5.4,3-2.2,2.8-.6,3.4.6,3.7,3,3.6-3.4,5.3-4.7.2-9.3-4h0l-1.7-.9.3-2.4,2.3-3h4.6c0,0,0-1.7,0-1.7l-6.1-2.6v-1.6c0,0-3.9-3.2-3.9-3.2l-3,.7-.7-3.1-3.4.2-2.3-2.2-1.9.7-2.4-1.6h0l.8-4.8-1.8,1.4-1.5-2.1,2.7-2,1.1,1.2,3-.9-1.1-3,2-1.1.4-6.4h0l1.3-2.4,2.6.5,2.9-1.8.5-3.7,3.9-3.1-.4-3.8,1.8.5,4.2-3.7h0l2.5-.6Z"/>
    <path id="ES-O" d="M148.6,17l4.7,5.2,9.1-.5,3.5.8,2.7,2.7,9.3.5,13.3,3.1h0l-.4,5.1-2.7-1-.8,1.4-3.2.4-.2,3.1-3.3.3h0l-2.3-2.5-2.7,2.8-2.5-.4-.8,3.5-8.6.3-.7,2-2.8-.2-.5,1.5-6.4-1.5-3.6,4.1-3.5-1.3-1.9-3.2-3.5-.5-.5,2-3.8-.7-.4,1.7-4.2-2.2-2.1,3.1-1.7-.2,1.4,2.3-1.8.8h-6.5c0,0-2.1,1.6-2.1,1.6l-2.2-1.4h0l-1.5-3.2-4-1.3,5.6-5.4-1.3-1.7-3.1,2-.4-3-2.9-1.7v-2.7c0,0-1.3,0-1.3,0l-.8-3-1.8-.9.3-1.7h2.2c0,.1,1.6-1.9,1.6-1.9h0l1.5-2.4-.7-1.3,2.7-.8,19,1.1,3.6-2,4.1,1.9,5-1,3.9-3.7Z"/>
    <path id="ES-OR" d="M81.5,64.5l1.3,1.2-.7,1.8,4.8.6-.8,1.2,5.5,3.5,9.9-2,2.8,1.8.6,2.7,4-7.9h0l3.1.6,1.5-1.2,3.5,1.3-.7,3.7,3.5,2-1.6,4.6h0v1.6c0,0-3.3,0-3.3,0l-4.7,6,1.9.8-.3,3.5h0l-2.7,1-1.6-1.6-1.9.3-.6,4.3-5.4,1.2-2,1.9-.8-2.5-5.1,1.5.8-2.3-3.7-1.1-4.6,1.1-.9,1.6-1.1-3.5-.5,2.1-6.7,3-2.8-4.5,4.3-5.8-1.1-1.5-2,.7-.6-3.8h0l1.2-3.9-3.3-.4v-2.7c0,0-1.9-1.3-1.9-1.3l-1.3-6.2h2c0-.1,4.1-3.7,4.1-3.7l5.1,1.3,2.8-1.6Z"/>
    <path id="ES-P" d="M205.2,82.2l.4,1.6h0l-1.6-1.2h0l1.1-.4ZM206.2,56.3l1.4-2.8v2.7h.1-1.5ZM184,45.2h5.7c0,0,3.6-1.6,3.6-1.6l3.2,3.8,3.5.8.6,4.5,2.4-.8.5,1-1.7,1.6,3.3,2.1h0l-6.8,3.1.9,3.2-1.3,2.7,1.9,4.3h-2.4c0-.1-.6,1.6-.6,1.6l.4,1.7,1.6-.3,1.3,7.7,1.4,1.4-.5,1.8,4.8,1.5-1.5.6.7,2.2,3.1-.6-1.6,4.2,4.5-1.8v1.7s-2.9,1.2-2.9,1.2v1.3s-3.5,1.3-3.5,1.3l1.5,4.4h0l-6.3-2-2.6,2.2-2.4-1-2,1.2-1.5-.5.9-3.1-3,1.3-3.3-3.8-3.8,3.5-2.6-4.9-3.7.9-.7-1.6,3.2-5.6-.8-3.1-3.2-.2.8-5.8h0l1.7-.9-.8-2.8,2.2-.5-.4-7.5,1.4-6.4-2.1-1.6,1.3-1.8-.2-3.1,5.3-7.2Z"/>
    <path id="ES-PM" d="M381.6,224.2l2.3,4.1h2.5s0,1.7,0,1.7l-3.8-1.4-2.1,1.8,1.1-6.2ZM385.3,210.7l2.3,1.1.5,2.6-6.4,5.1-.5,3-2-1.7h-3.9l-.3-3.6,3-.6-.6-2.3,7.8-3.7ZM439.2,175.8l-4.3,2.6.8,1.8,3.2-1.3-.9,2.2-1.7.2.6,2.3,3.7,2,3-2.5,4.2,3.1-1.4,3.4-1.3.2.2,2.1-3.4,3.3-2.1,5.7-5.1,3.8-3.7-3.9h-5.5s-2.1-4.6-2.1-4.6l.9-1.4-2.5-2-4.3,1.5-.6,2.8-1.6-.4-.5-2.9h-3c0,.1,0-3.1,0-3.1l13.3-10.2,14-4.5ZM467,170.4l1.5,2.7.9-1.7.2,1.5,3.5,1.5,1.3,4.8-1,2.9-9.4-5-5.4.3.2-2.9-1.3-.9,1-1.5h7.4s.9-1.7.9-1.7Z"/>
    <path id="ES-PO" d="M56,60.2l.3-1.3,3.6-.4,1.6-2,4.8.3.5-1.5,1.9-.2-.2-2,1.9,1.3,3.1-2.1,4.4,1.2,1.5-.8h0l1.4.4-.7,2.6,3.8,3.2-2.2,5.5h0l-2.8,1.6-5.1-1.3-4.1,3.5h-2c0,.1,1.3,6.3,1.3,6.3l2,1.3v2.7c0,0,3.2.4,3.2.4l-1.2,3.9h0l-4.2,3-9.8,1.5-7.7,7.6-.8-10.4h2.8c0-.1-1.1-1.9-1.1-1.9l1.1-1.4,6.4-4.2-.6-2.9-1.8,3.2-5.9,1.3.5-2.5,1.3,1.3-.7-2.7,2.2.3,3.7-4-5.9,1.8-1.4-3.1-2-.3,2.4-1.6v2.3c0,0,1.6-.2,1.6-.2l-.3-5.3,3.2-4.4Z"/>
    <path id="ES-S" d="M230.2,37.1l-.2-2.3h1.8s-.5,2.3-.5,2.3h-1ZM221,23.5l5.1,2.5-.3,1-1.6-.5.8,2.5.6-1.4h3.9c0,0,.1,1.4.1,1.4l3.1-.3,2.2,1.9h0v2.3c-.1,0-5.7,0-5.7,0l-3.7,2.9,1,4.5h0l-6-.7-1.5-1.4-3.4,4.2h-2.9s0,1.9,0,1.9l-3.1,1.5-1.5,3.3,1.8,1.4,1.5-2.1,1.5.4-2.7,2.2,1.4,1.7.5-1.7.9.5.7,3-5.9,1.8h0v-2.7c-.1,0-1.5,2.8-1.5,2.8h0l-1.1.2h0l-3.3-2.1,1.7-1.6-.5-1-2.4.8-.6-4.5-3.5-.8-3.2-3.8-3.6,1.7h-5.7c0,0-3.7-4.7-3.7-4.7l.3-2.4h0l3.3-.2.2-3.1,3.2-.4.8-1.4,2.7,1,.4-5.1h9.4s14-4.4,14-4.4l.7,1.1-1.8.8.2,2.1,1.4-2,1.1.8.4-1.8,4.4-1.9Z"/>
    <path id="ES-SA" d="M128.1,119.7l5.2,1,5.9,3.4,2.3-1.3,1.7.9-.4,1.9,1.4-.8.8,1.5,1.8-4.2,4.3,1,3.5-1.3,5.5,2.8h.3s2.2-.3,2.2-.3l.2,1.7,2.3,1.2,1.3-2.8h0l1.5-.6,3.8,2.8h0l-.9,2.9,2,2.8-2.3,7.7-7.2,6v2.1c0,0-2,1.7-2,1.7l-2.2-.2-.3,1.9,3.2-.7-1.3,3.8h-1.4c0,0-.6,1.8-.6,1.8l-1.5-.9.4-1.4-2.4.7-1.8,1.6.6,3.1-2.1,2.3h0l-1.8.3v-2.8c-.1,0-2.9,1.1-2.9,1.1l-1.1,2.1-1.7-.5-1.5-2.1-2.9-.7,1.3-1.7-2.1-1,.4-.9-3.7-1.9-9.8,5.9-1.6,3.2-3.3,1.2-.9-1.1-1.2,1.3-3.5-1.3h0l2.7-3.9-2.2-3.7,1.7-2.5-1.6-2.3,1.7-4-1.2-3.9,1-4-4.2-7.6,3.9-.3,1.3-4.2,3.8-4.8,2.5.4,2.9-2.3Z"/>
    <path id="ES-SE" d="M137.7,258.9l2.1-1.7,5.2-.6,1.4-2.7-.6-1.7,2.4-2.7,5-.6.3,1.2-1.8,1.2,1,1.9,2.5-2.3,1.6.3h0l8.8,14.5v3c0,0-3.3.6-3.3.6l1.7,4,5.8-3.8,2.2.7-.7-1.5,1.9,1.5v-1.9c0,0,2.3,0,2.3,0l1.5,2.2-.6,2.1,1.4-.7-.6,3.8,2.1,3.4h1.4c0,.1,1.9,4.4,1.9,4.4l3.1-.5,1.1,3.4h0l-2.6.2.8,2.1-2.8,1.8-1-1.9-1.6,1.7-2.1-.7,1,2.4-7.5,4.4h0l-3,2.5-2.2-3.8-4.4,4.1.3-4.4-2.2.2.9,2.2-2.4,2.1.4,1.5-4.3-3.3-1.6,2.3-4.1.2-1.5,2.9-14.1-2.3h0l-1.5-1.4.8-2.1-1-3.5,1.4-1.9.3-7.1-1.7-1.5,2.5-3.9-2.8-7.1-4.3-.2-.3-1.4,2-3,5.2-1.6,2.9,1,1.1-2.8,1.7.9-1-3,1.3-1.7-1.7-1.5ZM175,273l-2.1-2.3,1.6.3.5,2Z"/>
    <path id="ES-SG" d="M208.3,107.3l5,4.4,1.8-2.5.9,3.8.4-2.9,1.8-1.8,4.2-.7h0l1.3,2.1,2.5.5.4,1.7,2.7.7-.6,2.8,4.6,3.9h0l-1.5,2h-5c0-.1.2,1.9.2,1.9l-4.4,2.1h0l-2.4.7-5.4,6.3-3.6,1.4-2.7,7.7-2.9-.4-2.9,4.4h0l-3.7.6h0l-1.4,1.2h0l-3.2.6-.4-4.6-2-3.8-2.1-.3.9-.8-1.1-4.1-4.7-4.5-.3-3.7h0l1.3-1.5,1.7.6-.7-2.1,2.5-2.3-.7-1.9,4.1,1.1-1.5-4.8,14.4-3.6,2.1-.9.6-2.9Z"/>
    <path id="ES-SO" d="M242.5,88.5l3.2-.6.7-3.1,1.7-.7,1,1-1.3,4,5.3.5,2.1-5.1,5.9-1.3,2,2.5,4.6-.4-1.1,1.3,1.7,4.7,4.1,1.7,4-2h0l1.2,4.9-1.1,2.7,2.1,3.9-4.4,4.3h-2.3c0,0,1.8,8.2,1.8,8.2l-2.9,1-.2-1.8-2.1-.8-2,3.9.5,7.3,3,1.6h0l-.2,3.3-2.4-2-1.4,1.5-1.8-.6-2.9,1.7-1-1.3-2,1.2-3.8-4.4-1.9.5.6-1.2-1.4-.4,1-1.5-1.3.4-2.8-2.6-3.4.8-2.7-3-5,2.3-4.7-1.3h0l-4.6-3.9.6-2.8-2.7-.7-.4-1.7-2.5-.5-1.3-2.1h0l.4-1.5,2.2,1,3.4-6.3,2.5-1.3-.3-4.9,3.6,3.9,2.4-3.8,2.6-.3,3.3-5.8Z"/>
    <path id="ES-SS" d="M278.5,28.8l-.2,2,2,.8.2,1.5h0l-4.2,3.7-1.8-.5.4,3.8-3.9,3.1-.5,3.7-2.9,1.8-2.6-.5-1.3,2.4h0l-3.3-2.4-7.3-.6-.5-2,2.3-1.5-.7-1.9h0l1.5-.4v-5.4c.1,0,2.1-1,2.1-1l.8-3.4h0l9.2,1.3,10.8-4.5Z"/>
    <path id="ES-TE" d="M284.1,134.6l4.6-.2.8-1.2-1-1.6,2.3-2.2,1.6-.9v1.3c0,0,2.2.4,2.2.4l1.1-3.1,4.3-.5.5-1.4,2.1,1.4,2.1-.8-.8,2.5,1.3.8,2.4-3.1.8,1.7h2.3l.9-2.6,2.2,2.4,2.7-3.4-1.9-1.9,1.4-.5v-2.7c-.1,0,.6-.5.6-.5l3.1,3.6-2.3-3.5.5-1.4,2.8.3,2.4,3.1,12.2,6.1,2,3.5,1.1-1.4,4.7.3h0l2.3,4.3-1.7,3.6,1.3,2.7-3.5,3.7h0l-4.1,1.8-.8-1.6h-2.6c0,0-3.2-2.5-3.2-2.5l-1.9,1.5-.4,2.7-4.6,1,.2,2.3h2.5c0,.1.7,5.9.7,5.9l-2.4,1.3,2.1,3.3-4.7,5.1-3.7-.3-2.2,7.6-4.5,1-2.7,2.9,1.3,4h0l-2.9,1.2-1-4.7-7.1-.3h0l-.7-1.6h0l3-2.1-2.4-2.2h-3.1c0,0-1.7-4.1-1.7-4.1l-1.9,3.5-2.9-.7h0l.3-2.2-3.3.3-4.8-5-.2-.5-3.5-3.2h0l3.7-3.7.5-4.4,2.6,1.2,1.7-1.4v-9.1c.1,0-2.4-2.9-2.4-2.9v-2.7Z"/>
    <path id="ES-TF" d="M241.6,466.5l1.5,1.7-3.1,5.9-5.8-2.7.8-2.1,3.2.3,3.5-3.1ZM263.1,453.2l5,3.2-3.1,3.8h-2.3s-2.5-2.7-2.5-2.7l.9-3.7,2-.6ZM298.4,439.7l1.1,2.1-7.5,5.5-2.2,8.5-3.8,4.4-5,.8-7.1-12.7,13.1-2.3,5.9-5.7,5.5-.4ZM241.9,429.9l4.6.7,1.7,3.5-1.4,2.4.3,3.9-2.6,4.2-5.5-10.8,2.9-4Z"/>
    <path id="ES-TO" d="M189.1,165.1l1.4.7,3.2-1.6,1.8-3.4,1.9,3.9,4.2-3,1.5,2.2,2.3-.8,3.9,3.2,4.6.5,2,1.9,2.5-.5,1.9,1.5-.4,2.2-4.3,4.4-3.9.9,2.3,1.8,9.5-6.8,3.6.5,1.9-1.9,1.9,1.4,3.3-1.8.4,1.1h0l.6,3.3h1.5c0,0-1,4.6-1,4.6l7,9.7-.7,7.1h0l-2.2,1.2-4.6-2.2-4.8,1-.5,3-3.3-.2-3.9,4.2-6.1,1.4-2.3-.9-2.1,1.4-3.5-1.6-.2-2.2-5.6-.4,1-3.9h1.6l.3-2.7h1s-.4-2.2-.4-2.2h-3.8c0,0-1.1,3.3-1.1,3.3l-1.6.7-6.5-1.9-.6,1.8-2-3.4-3,4.4-2.2.2h0l-2.2,1.4h0v-3.5c.1,0-3.5-2.3-3.5-2.3l-2.5,6.7h-.4l-8.2-8.4,2.2-4.9-.9-3.5-2.8,2-1.8-.3.8-4.3-1.4-1.2-2.6.6,1.2-9.3,1.1-.7h0l5.3,1.3,4.9-3.1.2,2,1.9-.4,4.7-4.8v-1.7c.1,0,3.5-.3,3.5-.3l1.4,3.5,2.4-.8Z"/>
    <path id="ES-T" d="M380.8,107.7l2,.3-1.9,2.4,2.8,1.6-.4,4,2.1-.2,1.7,3.9h1.6c0,0-.5,1.7-.5,1.7l-1.6-.3,2.3,1.1v1.7h.1l-13.8,3.9-1.3,2.1-1.6-.9-4.5,1.5-9.1,10,5.6,3-.2,1.5-6.4,5.7-2.4-.7,3.5-.9,1.2-1.7-4.6.6-2.8,4.2h0l-2.5-1-1.2-2.3-4-1.2.4-2.5-3.9-1.9h0l3.5-3.7-1.3-2.7,1.7-3.6-2.3-4.3h0l-.6-2.3,3.3-1.6,2.6-4.9h1.5c0,.1.9-2.4.9-2.4l1.3,1.9,1.6-1.6,2.4,1.5,6.1-1.6.8-1.4.6,1,3.2-.7,3.6-4.5-1.1-1.8,2.3,1.5,2.2-.9-.5-2,1.8-1.5,5.5-.2Z"/>
    <path id="ES-V" d="M299.4,175.4l7.1.3,1,4.7,2.9-1.2h0l2.2,2.8,1.3-1.6,1.1.7.8,3.7,1.4.2,1.9-2.3,2.4,3.4,2.5-3.5h1.6c0,0,4.5,3.2,4.5,3.2h0l-4.1,8.2-.6,4.1,3.8,9.8-.7,2.4,1.6,3.8,4.8,6.2h0v1.2c.1,0-1.1-1.2-1.1-1.2l-2.5,1.1-.4-1.2-2.2,1.4-2.6-1.2-5.3,3.2h-3.4c0,.1-.1,1.5-.1,1.5l2.5,1-3.6,2.3-3.8-3-3.2,1.1-3-2.1h0l-1-6.6-6,.6-3.9-5,3.3-10.7-5.5-1-2.5-1.9-1.3.8v-1.6c0,0-1.6-.8-1.6-.8h0v-6s4.4-5.2,4.4-5.2l2.9.5,2.6-7.6-.3-3.5,2.1-1.2ZM289.5,168.1l2.9.7,1.9-3.5,1.7,4h3.1c0,0,2.4,2.3,2.4,2.3l-3,2.1h0l-6.8-.3-2.3-5.4Z"/>
    <path id="ES-VA" d="M158.9,85.3l3.2,2.9h0l-.5,2.7-1.5-.7-1.2-4.8ZM164.4,78.3l1.4.3h0l-1.1.9-.3-1.2ZM163.5,87.7l-.4-7.8,4.7.3.2-2.5,1.7.4,2.3-2.1,1.8,2.4.5-1.7,1.2.3h0l-.8,5.8,3.2.2.8,3.1-3.2,5.6.7,1.6,3.7-.9,2.6,4.9,3.8-3.5,3.3,3.8,3-1.3-.9,3.1,1.5.5,2-1.2,2.4,1,2.6-2.2,6.3,2h0l-1.1,1.8,3.1,6.1h0l-.6,2.9-2.1.9-14.4,3.6,1.5,4.8-4.1-1,.7,1.9-2.5,2.3.7,2.2-1.7-.6-1.3,1.5h0l-4.5,2.3-4-2.8-4.3,1.2h0l-3.8-2.8-1.5.6h0l-1.7-.5,1.6-3.2-1.7-9,3.7-2.1-2.1-2,.7-1.1-1.9-.6v-2.8s-2-3.4-2-3.4l3.6-2.3-1.6-.8,1.2-3.8-1.3-.8,2.6-1.9-4-2.6Z"/>
    <path id="ES-VI" d="M235.2,39l2.1.7,3-2.4,1.4,2.9-1.2,1.8,2.5,2.1,4,.9,4.4.3-.9-2.4,3.7-.6h0l.7,1.9-2.3,1.5.5,2,7.3.6,3.3,2.4h0l-.4,6.4-2,1,1.1,3-3,.9-1.1-1.2-2.7,2,1.5,2.1,1.8-1.4-.8,4.8h-3s.2-1.3.2-1.3l-.6,1.6-2.2.5-.3-1.3-1.4.9-.9-1.8-1,.4.8-3.4-2.7-1.2-2,2.9.2-2.6-1.2-1h0l-6.1-5.5-3.1.4,1.1-5.8-2.4.9-.5,1.8-2.5-2.1,1.9-3.2,4.3,2.2,3.5-1.7-2.5-2.8-3.8-.8,1.2-.3.3-2.9-1.5-1,1.3-1.8ZM245.3,55.5l8.6.9-1.6,2.9,1,1.2,1.8-.7v1.6c.1,0-7.9-.9-7.9-.9l-3.2-3.2,1.1-2.5h0l.3.5Z"/>
    <path id="ES-Z" d="M307.1,57.3l-.7,1.8,1.4.5-1.5,1.4.7,2.4-.9,1.2,1.2,1.4-1.2,1.5,1.3-.2-.4,3.2,2.9,1.8-3.3,6,.9.6.4-1.8,2,.7,1.1-5.5,1.3.9.2,3.1-1.1,9.9-1,.6-.3-1.8-2.6,4,3.4,2h3.9l4.5,5.2v4.6c0,0,4.6,1.8,4.6,1.8l.4,2.2,3.7,2.7,1.3-1.2,1.6.5,3.4,9.8,1.3.5-.5-2.1,1.1,1.6,2.7.4,4.9-3.3,2.9.9h0l1.6,5.5h0l-2.6,4.9-3.3,1.6.6,2.3h0l-4.7-.3-1.1,1.4-2-3.5-12.2-6.1-2.4-3.1-2.8-.3-.5,1.4,2.3,3.5-3.1-3.6-.8.5v2.7c.1,0-1.3.5-1.3.5l1.9,1.9-2.7,3.4-2.2-2.4-.9,2.6h-2.3l-.8-1.7-2.4,3.1-1.3-.8.8-2.5-2.1.8-2.1-1.4-.5,1.4-4.3.5-1.1,3.1-2.1-.4v-1.3c0,0-1.6.9-1.6.9l-2.3,2.2,1,1.6-.8,1.2-4.6.2h0l-11-9.7-3,1.1h0l-3-1.6-.5-7.3,2-3.9,2.1.8.2,1.8,2.9-1-1.8-8.2h2.3c0,0,4.4-4.2,4.4-4.2l-2.1-3.9,1.1-2.7-1.2-4.9h0l.3-1.8h0l9.3,4,4.7-.2,3.4-5.3-3-3.6-.6-3.7.6-3.4,2.2-2.8-.4-3,2.2-2.5-.5-1.8.8-1.5,2,.3,1.6-4.3,3.2.2.8-2.5,4.1-1.9Z"/>
    <path id="ES-ZA" d="M118.3,78.5l2.6,1.9,6.6,1.2,5.9-1.1,3.2,2.5,5.9-.4,2.4,1.5,1.8-1.4,1.7,2,5.7-1.3,2.6,3.9,2.1-2h0l1.2,4.9,1.5.7.5-2.7h0l1.5-.5h0l3.9,2.6-2.6,1.9,1.3.8-1.2,3.8,1.6.8-3.6,2.3,2,3.4v2.8s1.9.6,1.9.6l-.7,1.1,2.1,2-3.7,2.1,1.7,8.9-1.6,3.2,1.7.5h0l-1.3,2.8-2.3-1.2-.2-1.7-2.2.3h-.3s-5.5-2.9-5.5-2.9l-3.5,1.3-4.3-1-1.8,4.2-.8-1.5-1.4.8.4-1.9-1.7-.9-2.3,1.3-5.9-3.4-5.2-1h0l3.2-2.6-.3-1.2h2.3s-.5-1.1-.5-1.1l4.4-7.7-4.7-3.6-3.3-.5-1.7,1.2-1.6-1.2-.7-2.5,1.7-5.5-1.8-.5.8-2.4-1.2-1.2-3.7,1.4-3.6-2.5-.6,2.1h-3.6s-1.3-1.3-1.3-1.3h0l.3-3.5-1.9-.8,4.7-6h3.2c0,0,0-1.7,0-1.7Z"/>
  </g>
</svg>