<?xml version="1.0" encoding="UTF-8"?>
<svg id="Layer_1" xmlns="http://www.w3.org/2000/svg" xmlns:amcharts="http://amcharts.com/ammap" version="1.1" viewBox="0 0 512 512">
  <!-- Generator: Adobe Illustrator 29.1.0, SVG Export Plug-In . SVG Version: 2.1.0 Build 142)  -->
  <g id="_x3C_defs">
    <amcharts:ammap bottomLatitude="31.700719" leftLongitude="-9.301417" projection="mercator" rightLongitude="4.330897" topLatitude="43.793549"/>
  </g>
  <g>
    <path id="divider" d="M432,385.5h-181.2l-68.7,116h-4.2l68.7-116H89.2v-3h342.8v3h0Z"/>
    <path id="ES-AN" d="M269.6,304.4l-2,2.5-2,.5-4.3-4.6-1.6-.3-1.9,1.2-1.6-1.1.4.4-3.2.4-2,3.8-2.5,1.5-4.8-.5-2.4-2.3-1.7.6-8.8-.7-5.3,2.4-3.4-1.3-.9.4-1.5-1.2-4.1,1-3.4-1.4-3.9,1.1-3.6-.9-3.7,1.3-7.5-.2-3.2,4.7-3,1.5-1.1,2.1-3.4.9-5.4-.8-8.5,3.5-4.4,7.3-.7,3-2.8-.8-.7,1.4.5,2.8-5.7,2.5-2.5-2.4-3.6-.5-3.8-4.2h-3.8c0,0-5.8-8.3-5.8-8.3l-2.3-5.1.3-.8.8,1.7.8-3.2-5.3-2.1-1.6-4.2,2.7-2.2-1.3-.8-1.5-3.7-2.6-3.2-13-8.3-4.1-.9-11,1.2-1.9-12.3-1.9-2.7.6-2.1,1.6-1.7,1.1-4.4,3.9-3.3,1.5-3.5v-2.2c-.1,0,4-.8,4-.8l.9-1.6,1.3,1,1.7-.2,1.8-5.3-.4-.8,1.1-1.4h0l4.4,1.2-.5,2.7,2,.8,3.8-.3,1.5,3,3.5.6.8-2h1.2c0-.1,1.5.3,1.5.3l2.1,2.9,4,1.5,2.1-1.8,5.3-.4,1.4-3-.6-1.5,2.4-2.7,4-1,1.3.6v.9s-.6-.2-.6-.2l.3.6-1.5.9.2,1.6.9.3,2.3-2.3,1.7.3,1.4-1.3.4-4.1-1.9-5,1.2-2.6,2-.5,2.7-3.4.6.3.5-1.8,2,.2,3.2-3.7.8.4v-2.4s2.8.4,2.8.4l1.7-.9h0l1.4,1.4,4.1.4.6,2.9,4.8,1.7,3.7,3.6,1.7.2,2.8,3.3,5.3,2.4.7-2.3,11.2,1.3,1.9-.2,1-1.7,1.4-.4,5.3,1.3,1.5-2.3,1,.4.2,1.3,1.9.4,4.6-3.4,6.1,1.7,2.3-1.6,2.1,2.8,1.2-2.5,2.7.7,3.6-3.3,3,1.5,2.4-.7,1,.9v3.1c-.1,0,2.7.7,2.7.7v3.9c0,0,1.5,1.5,1.5,1.5l-.4,3.3-3.4,4.2,4.2,2.1,2.6.2h0l5.4,5.6,1.5-.5,1.3,1.1h3.3s-.9,3.9-.9,3.9l.2,5,5,8,1.2.8v-.7s2.4.4,2.4.4l3.5,2.7h0l-1.6.8-4,5.1-3.2,9.5.2,1.6-3,2.1-.3,2.2-2.1,1.7Z"/>
    <path id="ES-AR" d="M276.4,88.5l2.5.6,1.7,1.6,2-.4,3.1,2.2,4.7-.2,3.3-5.3-.2-1.3h-1.3s-1.5-2.3-1.5-2.3l-.6-4,.6-3.1,2.2-2.7-.9-1,.6-2,2.1-2.2-.4-2.1.8-1.5,2,.3v-1.3s1.5-.9,1.5-.9l-.7-.5h.7s.1-1.6.1-1.6h3.6s.5-2.3.5-2.3h1.8c0-.1,2.2-2.6,2.2-2.6h1.1c0,0,.3-3.8.3-3.8l1.2-.9v-1.5c0,0,3.1-.8,3.1-.8h0l-.3,1,1.7.5,2.4,2.3v1.1s1.1,0,1.1,0v1.1s2.1-2,2.1-2l2,1.4,1.8-.3,2.3-2.1,4,2.7.9-.5,1.7,3.4,2.9,1.5,6.2-2.3,2.7.9,1.1,1.8,2.1-2.2,2,1.5,5.6-.6,2.1.6h0l1.4,3,2,.5-.5,3.3-.9.3.6.9-1.6.8,1.7,4.4-.7.8,1.5.6-1,.6.8.6-3.5,14-3,2.6,1.4.8v2l-4,3.1-.5,1.5-2.2.3-2.3,3.4.7,3.4h2.5c0-.1.6,2.4.6,2.4l-1.6,2.2-1.8.2.4,1.4-1.1,2.4,1.7,1.8-.8,1.1,1.2,2.2-.2,1.8-1.9.6-.8,2.8-3,1.3.6,3.5,1.9.9-.6.2,1.1,2-1.7,3.6,1.2,2.6-1.6,2.3-2.2.7.3.7h0l-4.2,1.8-.8-1.5h-2.6c0,0-2.6-2.5-2.6-2.5h-1.7c0,0-1.3,4-1.3,4l-2.3,1.3-.7-.8-1.6.6.3,2.2h2.5c0,.1-.2,4.2-.2,4.2l.9,1.6-2.4,1.4,2.1,3.2-3.5,2.5.2,1.8-1.4.8-2.1.6-1.6-1-1.1,4.8-1.6,1.4.4,1.4-2.1,1.1h-2.3c0,0-.9,2.1-.9,2.1l-1.7.7v2.2c0,0,1.3,1.8,1.3,1.8l-2.4,1.4-1.4-1-.3-3.8-2.2-.7-4.9.4h0l-.7-1.7h0l2.6-1.1.2-1.4-2.3-1.8-3.1-.2-1.7-3.9-.6,2.6-1.1.7-3.2-.5h0l.3-2.2-3.3.3-4.8-5-1,1.4-.3-1,1-.7-3.4-3.3,3.5-3.8.6-4.3,2.4,1.2,1.7-1.4-.6-.8.9-3-.8-2.2.7-2.4-2.6-3.6v-2.7c.1,0-5.8-6.2-5.8-6.2l-5.1-3.5-3,1h0l-3-1.6-.9-4.5.4-2.7,1.2-.7.8-3.2,2.1.8.2,1.9,2.9-1-1.3-3.4.5-2.5-.8-2.3h2.2s2.1-2.6,2.1-2.6h1.6c0,0,1.1-2.7,1.1-2.7l-2.5-2.8,1.1-2.7-1.2-2.2v-2.7h0l.4-1.7Z"/>
    <path id="ES-AS" d="M148.1,16.5l2,1.3.8,2.1,2.5.5-.8.2.2,1,9.3-.5.6,1.1,3-.2,2.5,2.7,3-.5,3.5,1.2,2.8-.2,7.4,2.4,5.9.6h0l-.8,1.6.5,3.4-.8.4-1.8-1.4-.8,1.4-3.1.5-.2,3-3.2.2h0l-1-1.9-1.4-.5-2.7,2.8-2.5-.3-.8,3.4-1.5-.5-5.7,1.6-1.4-.7-.7,2-2.8-.2-.4,1.5-6.3-1.6-1.2.7-1.2,3.1-1.4.3-3.5-1.3-1.9-3.2-1.5.4-1.9-.9-.6,1.9-1.3.5-2.5-1.2-.4,1.6-3.2-1-1-1.2-2.1,3.1h-1.8c0-.1,1.4,2.1,1.4,2.1l-1.8.9h-6.4c0-.1-2.3,1.7-2.3,1.7l-2-1.4h0l-1.5-3.2h-1.2s-1.5-2.1-1.5-2.1v1.7c0,0-1.3-1.1-1.3-1.1l1.9-2.9.8.5,1.4-.7,1.5-2.3-1.1-1.3-3.2,1.6-.4-3-2.9-1.8v-2.6s-1.3,0-1.3,0l-1.2-3.5h-1.3s0-2,0-2h2.2c0,.1,1.5-1.9,1.5-1.9h0l.8-2.5h.8c0,0-.7-1.2-.7-1.2l1.7.2,1-.9,4.3.9,2.1-.5.7.8,3.1-1,3,1.2h1.9c0-.1,0-1.1,0-1.1l3.7.9,3.6-1.9,4.1,1.8,3.1-1.5,2,.4,3.7-3.6Z"/>
    <path id="ES-CB" d="M230.3,36.6l-.7-2.4,1.3-.6.6.3-1.1,2.7ZM220.6,22.8l5,2.1.2.9-.9.2.9,1.2,3.4-.3v.8c0,0,3,.2,3,.2l2.4,1.9h0v2.3c-.1,0-1.8.8-1.8.8l-.5-1.1-1.7.8-1.7-.5-.2,1-3.5,1.8,1,4.5h0l-6-.7-1.5-1.3-3.7,4.4-2.9-.4.2,2.1h-1.4s-1.9,1.7-1.9,1.7l-1.2,3,1.8,1.5,2.1-2.4,1.2,1.2-1.1,1.3-1.4-.6.6,1h-1s.8.3.8.3l-.5.9,1.3.4.3-1.6.9.4.5,3.5-1.3.5-1-.8-.6,1.6-2.2.4-.9-3.2-1.3,2.8-1.1.2-.6-1.3-2.7-.8,1.8-2.1-.7-.6-1.6,1.2-.8-.5-.5-4.4-3.5-.8-1.7-2.7-2-1.2-.5,1-1.4-.3-1.2,1.2-1.5-.7-1,.8-3.1-.2-.2-1.5-3.5-3.1.4-2.5h0l3.2-.2.2-3,3.1-.5.8-1.4,1.8,1.4.8-.4-.5-3.4.8-1.6h0l10.9-.4,4.1-1.9,2.6.3.7-1.5,4.3-1.1,1.5,1.2-2.3,1.1.6,1.7,2.2-2.1-.8-.4,5.9-2.3ZM203.8,53h0c0,0,0,0,0,0h0l.4.2h0l-.3,1.2-.3-1h0v-.4ZM201.9,53.2l.2.2h0l-.5-.2h.3Z"/>
    <path id="ES-CE" d="M118.5,430.1l-1.3.7-1.3,1.7-.2.8h-.3c0,.1-1.1,0-1.1,0l-.4-.9-.4-.3-1.1.9h-1c0-.1-1.7-2.4-1.7-2.4l-1.7-.9h-1.2c0-.1-1-.6-1-.6l-.5-.8v-1l-1.1-4v-3.8c0,0-.2-.9-.2-.9l-1.5-2.1,1.1-1.5,2.1-.7.8.2,1.8-.3,3.2,2.9,2.4,1.1.9,2.1v.5c-.1,0,.8.9.8.9h.7c0,0,1.8,2.4,1.8,2.4l.9.2v-.7l2.8-2.3.7,1-.5.9,2,1.8.5.6v.5l1.5.4.2-.3,1.8-.5-.2-.5.8-.3,1.1-.5.8-1.1-.2-1.4,1.1-1.2,1.9-.7.5-1.2h.3c0,0,.7,1.6.7,1.6h.7c0,0,.3,1.2.3,1.2l.8.3.8-.2.3,1.6-.5,1.1-.3.3-.6-.4-1.6,1.9-1.1.5-.8.2-1-.3-1.6,1.4-2,.7-.8-.2-1.9-1h-1.6c0-.1-1.3,1.2-1.3,1.2l-1.6,2.3-2.5-.7Z"/>
    <path id="ES-CL" d="M241.3,62.5l.4.5-.6-.2h0l.2-.2ZM239.5,62.6v.2h0v-.2ZM244.9,54.8h0c0,0,3-.4,3-.4l4.1,1,.4.9,1-.5-1.6,2.9,1,1.2,1.7-.7.2,1.6h-3.8c0,0-.7-1.1-.7-1.1l-3.5.3-.6-1.4-2.7-1.8,1-1.8h0l.2-.6h0v.2h.1v.2ZM201.7,53.2l.4.2h0l-.5-.2h0ZM204.1,53.1h.2c0,0-.3,1.3-.3,1.3l-.3-1h0v-.4h.4ZM116.6,49.1l2,1.4,2.3-1.8h6.4c0,.1,1.8-.8,1.8-.8l-1.4-2.3h1.8c0,.1,2.1-3,2.1-3l1,1.2,3.2,1,.4-1.6,2.5,1.2,1.3-.5.6-1.9,1.9.9,1.5-.4,1.9,3.2,3.5,1.3,1.4-.3,1.2-3.1,1.2-.7,6.3,1.6.4-1.5,2.8.2.7-2,1.4.7,5.7-1.6,1.5.5.8-3.4,2.5.3,2.7-2.8,1.4.5,1,1.9h0l-.4,2.5,3.5,3.1.2,1.5,3.1.2,1-.8,1.5.7,1.2-1.2,1.4.3.5-1,2,1.2,1.7,2.7,3.5.8.5,4.4.8.5,1.6-1.2.7.6-1.8,2.1,2.7.8.6,1.3,1.1-.2,1.3-2.8.9,3.2,2.2-.4.6-1.6,1,.8,1.3-.5-.5-3.5-.9-.4-.3,1.6-1.3-.4.5-.9-.8-.4h1s-.5-1-.5-1l1.4.6,1.1-1.3-1.2-1.2-2.1,2.4-1.8-1.5,1.2-3,1.9-1.8h1.4s-.2-2.1-.2-2.1l3,.4,3.7-4.4,1.5,1.3,6,.7h0l5.3-2.8,1,1.2,2.5.2-1.3,2.1,1.5.9-.7,1,.5,1.9-1.1.3,3.7.8,2.6,2.8-1.3,1.3-2.3.4-4.3-2.2-1.9,3,2.3,2.4.8-1.9,1.1.5,1.2-1.5.3.9-1.6,3,1.1.7-.7,1.4,3.2-.3,2.2,2.7,2.5.4.4,1.9,1,.4h0l-1.7.8-1.1-.8h-4.4c0,0,.8,2.2.8,2.2l-2.3,2,1.9.6-.7,1.8,1.6,1.8-.3,3.3-1.4-2v1.3c-.1,0,1.2,1.1,1.2,1.1l-1.5.4.6,4.6-1.3,2.1,3.1,4.8h3.1c0,0,1.7,3.3,1.7,3.3l2.4-1.2.6-3.1,1.8-.7.9.9-1.6,3.1.4,1,5.3.6,2.1-3.2v-1.9c0,0,6.3-1.3,6.3-1.3l1.2.6.4,1.8,4.5-.4-1.1,1.4,1.7,2.6-.2,1.8,4.2,1.8,4-2.1h0v2.7s1.2,2.2,1.2,2.2l-1.1,2.7,2.5,2.8-1.1,2.6h-1.6c0,0-2.1,2.8-2.1,2.8h-2.2s.8,2.3.8,2.3l-.4,2.5,1.3,3.4-2.9,1-.2-1.8-2.1-.8-.8,3.2-1.2.7-.4,2.7.9,4.5,3,1.6h0v3.3c-.1,0-2.6-2.1-2.6-2.1l-1.4,1.4-1.7-.6-2.9,1.7-1.1-1.2-2,1.2-1.6-.8-2.2-3.5-1.2,1-.7-.4.5-1.2-1.4-.3,1-1.7-1.3.4-2.8-2.4-3.2.7-1.5-.7v-1.8c-.1,0-1.3-.4-1.3-.4l-1.4,1.5-3.6.8-4-1.3-1.5.5-.7,1.5-.6-.7-2,1-2.5-.8.4,2.5h-1.3c0,0-.7,1.3-.7,1.3l-2.4.8h0l-3,1.2-4.8,5.7-3.6,1.5-1.5,1.7-1.3,5.9-2.9-.2-2.9,4.4h0l-3.6.6h0l-1.5,1.1h0l-.4.4,1.4.4h0v2.7s-1.2,1.2-1.2,1.2l.2,5.2-3.2.2-1.1,3.7-1.5.2-1.4-1.1.6,2.1-1.6,3.2h0l-3.3.4-.5-3.1-2,.8-1.4-.6v1.8c-.1,0-3.8,2.7-3.8,2.7l-.2,1.5-2.2,1-.7-2-4.9,3-5.5-1.4h0l-1-2,.8-4.2-2.7.4-2.2,2.2h-1.7l-2.1-.8-2.5-3.1-3.2.2-.6-3.1-2.7,1.7-.8,1.7-1.8-.6-1.3-1.9-2.8-.7,1.2-1.6-2-1.1.4-.8-.9.2-2.8-2.2-3.8,2.2-.7,1.3-5.7,2.6-1.3,3-3.3,1.2-.8-1.1-1.2,1.2-3.5-1.2h0v-1.3c.1,0,2.4-1.4,2.4-1.4l.3-1.4-2.1-3.6,1.6-2.6-.2-1.6-1.3-.8,1.5-3.8-1.1-3.9v-3.8c.1,0,1-.8,1-.8l-4.2-7.1,3.9-.3,1.7-2.7-.4-1.3,3.9-4.9,1.9-.3.5.7,1.7-1.6.9.3,3.7-3.9-.4-1.1h2.3c0,0-.5-1.1-.5-1.1l4.6-7-3.4-3.6-4.7-1.1-1.8,1.2-1.6-1.3-.6-2.5,1.7-5.3-1.8-.6.8-2.1-1.3-1.5-1,1.1-2.5.3-1.7-.4-1.6-2.1-1,2h-3.7s-1.2-1.3-1.2-1.3h0l.7-2.3-.4-1.2h-1.1c0,.1-.8-.9-.8-.9l4.8-6.1,1.3-.5,1.5.8,1.8-3.8.2-2.7-3.5-2,1.1-2.7-.5-1.1-1,.3-2.4-1.5-1.5,1.2-3.3-.6,1.3-3.3-.4-2,1.4-.7-1.2-2.3,5.7-4,.8-1.6-.9-2.2,1.2-.3.3-1.5Z"/>
    <path id="ES-CM" d="M198.5,145.3l3.6-.6h0v2.7s-2.7.9-2.7.9l-1.4-1.1h0l-1.4-.4.4-.4h2c0-.1-.5-1.2-.5-1.2ZM222.1,124.6l2.4-.8.7-1.3h1.3c0,0-.4-2.5-.4-2.5l2.5.8,2-1,.6.8.7-1.5,1.5-.5,4,1.3,3.6-.8,1.4-1.5,1.2.4v1.8c.1,0,1.6.7,1.6.7l3.2-.7,2.8,2.4,1.3-.4-1,1.7,1.4.3-.5,1.2.7.4,1.2-1,2.2,3.5,1.6.8,2-1.2,1.1,1.2,2.9-1.7,1.7.6,1.4-1.4,2.5,2.1v-3.3h.1l3-1,5.1,3.5,5.9,6.2v2.7c-.1,0,2.5,3.6,2.5,3.6l-.7,2.4.8,2.2-.9,3,.6.8-1.7,1.4-2.4-1.2-.6,4.3-3.5,3.8,3.4,3.3-1,.7.3,1,1-1.4,4.8,5,3.3-.3-.4,2.2h0l2.5,5.4,4,.8,2.7-.7h0l.7,1.7h0l-2,.9-.4,6-1.9,2.9.4,1.7-1.7,1.1-1.8-.8-1.1.9-1.9,3.7-1.8,1.1.7,2.1-.9,1.9,1.3,2.1h.9c0,0,.2,1.6.2,1.6l1.8-.6,2,1.8,5.5,1.1-3.2,10.7,3.8,4.8,5.9-.6,1.1,2.1v4.4c-.1,0-1.2.5-1.2.5l1.5,3.1-1.5,1.6h-2.1s-2.9-2.2-2.9-2.2v-1.1c-.1,0-2.3-.7-2.3-.7l-5,3.2-1.4-.9-2,2v2.7c-.1,0-1.6,1.9-1.6,1.9l.6,6.5-3.6,2.7h-2.5s-.4-2-.4-2l-2-.8-5.3,3.4-2.3.7-2.1-1-2.1,2.8-3.2,1.4-4.1,7.2h0l-2.6-.2-4.2-2.1,3.4-4.2.4-3.3-1.6-1.5v-3.9c0,0-2.8-.7-2.8-.7v-3.1c.1,0-.9-.9-.9-.9l-2.4.7-3-1.5-3.6,3.3-2.7-.7-1.2,2.5-2.1-2.8-2.3,1.6-6.1-1.7-4.6,3.4-1.9-.4-.2-1.3-1-.4-1.5,2.3-5.3-1.3-1.4.4-1,1.7-1.9.2-11.2-1.3-.7,2.3-5.3-2.4-2.8-3.3-1.7-.2-3.7-3.6-4.8-1.7-.6-2.9-4.1-.4-1.4-1.4h0l1.9-.5,1.8-5,.6-.9,2.1.2.5-2.2-2.9-.9-1.3-4,2.7,1.1,1.4-.6-1.3-2.3,2.1-3.9,5.1,1.4-1.9-1.8-1.7-4.6,1.7-.3,1.2-4-.6-1.1-5.8,3.4-2.6-1-8.2-8.6,1.5-1.8.7-3-1.1-1.6.2-2h-1.3c0,.1-1.5,2-1.5,2l-1.7-.3v-2.8c-.1,0,.7-1.5.7-1.5l-1.3-1.2-2.6.6,1.3-4.4v-4.8c-.1,0,.8-.7.8-.7h0l5.3,1.2,4.9-3,.7,2,2.2-1,.2-1.5,3.7-2.7v-1.8c.1,0,1.5.6,1.5.6l2-.8.5,3.1,3.3-.4h0l1.6.7,3-1.6,1.9-3.4.9,3.4,1.7.8,1.5-2.2,1.9-.9,1.5,2.1,1.4.2,1-1,2.6,2.4,1.2-.2v1c.1,0,.7-.6.7-.6l1.8.5,1.3,1.2.9-.7,2.1,1.9,2.4-.4,1.9,1.5-.5,2.2-2.6,1.5-.8,2.4-4.7,1.4.4,1.1,2,.7,2-2.3,3.8-1.2-.4-.9,3.6-1.4.5-1.2,3.6.6.6-1.7,1.4-.3,1.9,1.4,2.3-.5,1.1-1.3.2,1.1,2.4-.3,1-1.4-1.4-1.5.2-.9.6.2-1-5-.4-.5-1.9,2.2-.7-.6,2.1-6.6-.8-1.5h-1.4c0-.1,0-3.2,0-3.2l-1-1.1-2.1.2.4-1.4-1.7-2.3.7-1.1-.8.6-1.7-2.3-.4.9-1.9-.8,1-1.7-.4-1.6-2.1-1,3.7-9-1.4-1.7.4-1.7-2-.5-1.6-3Z"/>
    <path id="ES-CN" d="M261.7,460.1l1.4,1.6-2.4,3.1-.7,2.9-2.3-1.9-3.5-.8.8-2,3.1.3,1.4-2.2,2.2-1ZM342.2,448.1l.6.5-.2.2-.7.8.3,2.9,1.5,1.8-.4,1.5.8,1.2-.8.3v2.4s-1.4,1.9-1.4,1.9l-3.9,1.4-.7,1.1-3.3-.4-3.6-3.1-1.5-2.7.3-3.8,3.3-2,.4-3.5,5.9.4,1.9,1,1.5-2ZM282.6,446.8l2.5.6,3,2.6v1.3c0,0-2.1,2.1-2.1,2.1l-3.3.3-2.5-2.7.9-3.6,1.5-.6ZM299,441l8.1-1.6,3.2-3.9,2.8-1.9,3.2.5,2.1-.8,1.2,1.1-.2,1-3.5,1.6-4,3.9v2.6l-2.1,3.7v2s-3.9,4.4-3.9,4.4l-5,.8-4.4-7.3v-2.1c-.1,0-2.8-2.8-2.8-2.8l3-1.9,2.3.6ZM391.2,427.1l1.8,1.6.4,4.4-1.5,4.1.5,3.2-2.1,5.1-3,1.6-6.6,1.5-3.6,4.4-5.7-.8.5-1.6,4-.3,4.6-3.4.7-4.2,5.4-9.6.6-4.5,4-1.5ZM262.2,423.5l1.7.9,2.6-.3,1.7,3.6-1.5,2.4.4,3.8-2.6,4.3-5.3-11.1,1.3-2.5,1.8-1.1ZM404.9,410l1.5,1.6-1.4,2.1.5,1.5-1.2,3.5-5,2.7-3,.4-1.7,2.5-.4-.7h-2.3c0,.1-.3-1-.3-1l1.7-1.5.5-3.8,5.3-3.3,3.3.2,1.6-3.7,1-.3Z"/>
    <path id="ES-CT" d="M436,82.9l2.8,2.9-.8,2.6,1.5,2.5-1.8,3.5-2.4,1-1.9,2.9-2.2.9-1.3,1.8-3.8,1.2-1.3,1.7-16.1,8-5.4,7.4-19.3,4.6-3.7,2-3.1.2-2.9,1.2-1.2,1.9-1.4-.8-4.5,1.4-9.2,10,1,1.5h1.7c0,0-1.3-.9-1.3-.9h.9s2,2.4,2,2.4l2.1.5-4.5,3.2-2.6,3.4-1.6.2-.8-1,1.8.5-.2-.7,2.1-.3,1-1.8-4.6.6-2.8,4.2h0l-2.4-1,.2-1.3-1.3-1-3.9-1.1.2-2.6-1.6-.4-.4-1.3h-1.8c0,0-.3-.8-.3-.8l2.2-.7,1.6-2.3-1.2-2.6,1.7-3.7-1.1-2,.6-.2-1.9-.9-.6-3.5,3-1.3.8-2.8,1.9-.6.2-1.8-1.2-2.2.8-1.1-1.7-1.8,1.1-2.4-.4-1.4,1.8-.3,1.6-2.2-.6-2.5h-2.5c0,.1-.7-3.3-.7-3.3l2.3-3.4,2.2-.3.5-1.5,4-3.1v-2l-1.4-.8,3-2.6,3.5-14-.8-.6,1-.6-1.5-.6.7-.8-1.7-4.4,1.6-.8-.6-1,.9-.3.5-3.3-2-.5-1.4-3h0l.7-.8-1.3-2,.8-.9-.7-.3.8-1-.4-1.5,1.6-1,7,3.2,1.1-.7.8.8h3.1c0,0,2.9,3.4,2.9,3.4l2-.8,4,.4,2.8,5-.9,2.9,1.2-.2.6,1.3-1.6,1.2.9,2,3.3.2.4-1.1,3.1-.4.4-1.6,4.2.6,2.5,1.8,1.7-.2.9,3.1,1.7,1.5,2.2-.6,2.3-2.7,1.5.3,1.8-1,5.7,1.9,1.6,2.3,1.9.3,1.1-1.1,3.1.8-.6-2,2.1-1.4,2,.4,2-2h2.5c0,.1.9-1,.9-1l.6.7,2.3-.3,1.5,2.1,2.8-.4-.8,1.8,1.3,2.5,1.1-.7,3.1,1.4-1.1.7.4.8h-.7c0,0-.4,2-.4,2l-1.1-.6-.3.8-1.6-1.4-1.1.7-.7,1.8.2,3Z"/>
    <path id="ES-EX" d="M115.2,162.4l3.5,1.2,1.2-1.2.8,1.1,3.3-1.2,1.3-3,5.7-2.6.7-1.3,3.8-2.2,2.7,2.2.9-.2-.4.8,2,1.1-1.2,1.6,2.8.7,1.3,1.9,1.9.6.8-1.7,2.7-1.7.6,3.1,3.2-.2,2.5,3.1,2.1.8h1.7s2.2-2.2,2.2-2.2l2.7-.4-.8,4.2,1,2h0l-1.1.7v4.8c.1,0-1.2,4.4-1.2,4.4l2.6-.6,1.3,1.2-.9,1.4v2.8c.1,0,1.9.3,1.9.3l1.5-1.9h1.3c0-.1-.2,1.8-.2,1.8l1.1,1.6-.7,3-1.5,1.8,8.2,8.5,2.6,1,5.8-3.4.7,1.1-1.2,4-1.7.4,1.7,4.6,1.9,1.8-5.1-1.4-2.1,3.9,1.3,2.3-1.4.6-2.7-1.1,1.3,4,2.9.9-.5,2.2-2.1-.2-.6.9-1.8,5-1.9.5h0l-1.7.9-2.8-.4v2.4s-.8-.4-.8-.4l-3.2,3.7-2-.2-.5,1.8-.6-.3-2.7,3.4-2,.5-1.2,2.6,1.9,5-.4,4.1-1.4,1.3-1.7-.3-2.3,2.3-.9-.3-.2-1.6,1.5-.9-.3-.6.7.2v-.9s-1.4-.6-1.4-.6l-4,1-2.4,2.7.6,1.5-1.4,3-5.2.4-2.1,1.8-4-1.5-2.1-2.9-1.5-.4h-1.2c0,.1-.8,2.1-.8,2.1l-3.4-.6-1.5-3.1-3.8.3-2-.8.5-2.7-4.4-1.2h0l-.8-.5-4.1,1.9-6.3-10.1-1.8-.6,1.2-1.5h-.8c0-.1.6-2.8.6-2.8l1.9-3.3-.9-.6.4-3.5,7.2-5.7-.4-1.8,3.1-4.8-.3-1.2-2.3-2.6-3.4.4v-2.6c.1,0-3.3-1.8-3.3-1.8l.3-2.7-2.4-2.3-.5-1.9.9-3.3-2.7-1.3-.3-1.6-3.5-2.4-1.4-3.1,6.6,1,2.7-1.1,3.3.6,4.3-.7,1-5.9,2.4-2.1,1.5-6.2-2.4-4-1.9-.4-1-2.9.6-1.7,1.9-1.3,2.8-.4Z"/>
    <path id="ES-GA" d="M81.2,12.8l.7-1.3,1.4.2.3,2.4-.8-.5v2.2c.1,0-.9,0-.9,0l.8.5.9-.6-.5-1.1,1.9.2-.7-.7.5-.7,2.9-1.1,1.1-1.8.8.8-1.2,1.7,2.1-.8,1.1,4.2,1.4-3.2,2.8.3-.3.7,3.9,1.6,1.5,3.6,2,.6.3.3,6.2.6-.4,3.7h0l-1.5,2h-2.2c0-.1,0,1.9,0,1.9h1.3s1.2,3.5,1.2,3.5h1.3c0,0,0,2.6,0,2.6l2.9,1.8.4,3,3.2-1.6,1.1,1.3-1.5,2.3-1.4.7-.8-.5-1.9,2.9,1.3,1.1v-1.7c0,0,1.6,2,1.6,2h1.2s1.5,3.3,1.5,3.3h0l-.3,1.5-1.2.3.9,2.2-.8,1.6-5.7,4,1.2,2.3-1.4.7.4,2-1.3,3.3,3.3.6,1.5-1.2,2.4,1.5,1-.3.5,1.1-1.1,2.7,3.5,2-.2,2.7-1.8,3.8-1.5-.8-1.3.5-4.8,6.1.8,1h1.1c0-.1.4,1.1.4,1.1l-.7,2.3h0l-.8,1h-2c0,0-1.6-1.6-1.6-1.6l-1.9.3-.6,4.3-3.7,1.6-1.7-.4-1.9,1.8-.8-2.3-1.4-.4-1.1,1.3-2.7.5.9-2.1-2.4-.2-1.4-1-4.3,1.2-1.4,1.2-.8-3.3-.6,2.1-1.8.2-2.5,2.4-2.3.3-1.2-.4-.2-2.4h-1c0,.1-.5-1.5-.5-1.5l1.7-3,2.4-1.5v-1.4c.1,0-.8-1.4-.8-1.4l-2.2.5-.5-3.7-4.3,3-6.1.2-.8,1.1-2.8.2-4,4.9-3.7,3-.3-.6-.6-10.1,1.6-.7.9.5.2-1-1-.7h.9s1.9-3.3,1.9-3.3l.7.3,2.6-2.5h1.6c0-.1,0-2.5,0-2.5l-.7-.4-.8,2.7-2.3.2-2,1.7h-2.6c0-.1.6-2.7.6-2.7l1.3,1.3-.7-2.6h2.7s3.3-3.8,3.3-3.8l-1,.3-.3-.8-2.7,2.3-1.3-.6-.8.7-1.4-1.3v-1.8c-.1,0-2-.3-2-.3l2.3-1.6v2.3c0,0,1-.6,1-.6l.8.6.2-3.5-.5.4-.3-1.4.3-1.1,2.1-1.1.3-2-1.6.5-1.2-2.2-.6,3.5-1.4-1.4-1.2,1.4.6.9-2.2.9v1.3s-1.8.8-1.8.8l.3-1.8-1.8-.8,1.6-2.5.6-3.3,3.3-3.3,1.3.6v-1.9s-.6-.8-.6-.8v1.4c-.1,0-1.8,1-1.8,1l-.6-.6-1.1.5v-.9c-.1,0-1.6.6-1.6.6l.5.8-1.3,1.3-2-2.6,1.4-1.1-1.4-2.2.7-1.5-1.1-.2-.7-.2-1.7-1.1-1.5,2.2-.5-2.1,1.6-2.9-.9-.3-.7-2,1.3.2v-1.8s1.2.2,1.2.2v-1.2c0,0,1.2,1.1,1.2,1.1l1.9-1.9-1.3.3v-1.1s-.6,1.3-.6,1.3l-.7-.2-.3-1.4,1.1-.2.2-1.1,3,.5,2.2-2.3.5.7,1.7-.2-.3-1.9-1.3-.5,2.7-.8v-1.3c0,0,2,.1,2,.1l.2-1.1,1.7,1.8,2.5.6,3.2-1.4,2.4.3,1.2-1.9,1.9-1.1.9.6.9,1.7,1-.7v-2.2s1.4-.4,1.4-.4l3.1,3.5-.4-2.9,1.6-1.2h-2.8c0,.1-1.9-1.1-1.9-1.1l2-1,1.7.3,1.2-1.6-2.2,1.1-.5-1-.7,1.2-2.3.4.4-2.7,1-.7-.9-1.2,2.1.2,2.3-2.8,1.1.2v.9s2-3,2-3l.2,1.3,1.1.2-.8-1.2.4-2h2s2.1-1.7,2.1-1.7Z"/>
    <path id="ES-IB" d="M382,225.4l2.5,2.9,1.7-.6v1.7c.1,0-3.9-1.4-3.9-1.4l-2,1.8-.2-3.2,1.5-.7.4-.4ZM385.1,210.2l2.2,1.1-.5,1.1,1.1,1.5-1.3,1.6-1.5.2-.2,1.6-1.7,1.3-1.8.4-.4,3h-1.1s-.9-1.6-.9-1.6l-.8.6-1.5-.9-.8,1-.8-.6.4-2.8-.7-.8,2.9-.6-.4-2.4,2.1-1.7.5.5,5.1-2.3ZM430.6,208.2l.7.2-.6,1.3h-1.2s.3-.7.3-.7l.7-.9ZM438.9,175.3l-4.2,2.5.8,1.8,3.2-1.3-.8,2.1-1.8.2.6,2.4,3.6,2,3-2.5,3.6,1.8-.2,1,.8.3-1.4,3.3-1.4.5.3,1.8-3.7,3.9-1.7,5.1-2.8,1.4-2.4,2.5-2.8-1.9-.9-1.9h-5.5s-1.5-1.8-1.5-1.8l-.6-2.9.8-1.4-2.5-2.1-1.2-.3v.9l-3,.9-.5,2.7-1.5-.3-.6-1.6.8-.5-.9-.8-2.9.2.9-.6-1.4-.8.3-1.7,7.4-4.7,6.1-5.7,2.2-.2,3.4-2.5,1.1.5,1.9-1.2.6.7,4.8-1.7ZM469.6,179.9l-6.7-3.7-4.3.7.3-3.3h-1.1c0,.1-.2-.8-.2-.8l2.4-1.6,6,.3,1.1-.7.5,1,1.1-.9,1.1.3-.4,1.1h1.1c0,0,.4.9.4.9l2,.7-.5,1.4,2.3,3.7-.6.5-1.1,2.3-3.4-1.7Z"/>
    <path id="ES-MC" d="M260.6,254.9l4.1-7.2,3.2-1.4,2.1-2.8,2.1,1,2.3-.7,5.3-3.4,2,.8.4,2h2.5s3.6-2.6,3.6-2.6l-.6-6.5,1.5-1.9v-2.7c.1,0,2.2-2,2.2-2l1.4.9,5-3.2,2.1.7v1.1c.1,0,3,2.3,3,2.3h0l.8,3.4-.4,3.2-2.5,2.4.3,3.7,3.4.4.7,1.8-2.3,6,.2,1.8,3.8,7.2,2.3,2.5,2.2.7h0l.4,2.3-1.2-1.1-2.5,3.9,2,2.6,3.7.9-1.1,1.3-6.3,2.1-1.4-.3.5-.4-1.6-1.2.2.8-3.9.6v1.4s-1.8-.3-1.8-.3l-1.2-1.5-4,.5-4.3,3.1-.9,2.6-1.1-.3-3.5,2.3h0l-3.5-2.7-2.4-.4v.7s-1.1-.8-1.1-.8l-5-8-.2-5,.9-3.9h-3.3s-1.3-1.1-1.3-1.1l-1.5.5-5.4-5.6Z"/>
    <path id="ES-MD" d="M198.5,145.3l.5,1h-2c0,.1,1.5-1,1.5-1ZM222.1,124.6l1.6,3,2,.5-.4,1.7,1.4,1.7-3.7,9,2.1,1,.4,1.6-1,1.7,1.9.8.4-.9,1.7,2.3.8-.6-.7,1.1,1.7,2.3-.4,1.4,2.1-.2,1,1.1v3c0,0,1.5.1,1.5.1l.8,1.5-2.1,6.6.7.6,1.9-2.2.4.5,1,5-.6-.2-.2.9,1.4,1.5-1,1.4-2.4.3-.2-1.1-1.1,1.3-2.3.5-1.9-1.4-1.4.3-.6,1.7-3.6-.6-.5,1.2-3.6,1.4.4.9-3.8,1.2-2,2.3-1.9-.7-.4-1.1,4.7-1.4.8-2.4,2.6-1.5.5-2.2-1.9-1.5-2.4.4-2.1-1.9-.9.7-1.3-1.2-1.8-.5-.6.6v-1c-.1,0-1.4.2-1.4.2l-2.6-2.4-1,1-1.4-.2-1.5-2.1-1.9.9-1.5,2.2-1.7-.8-.9-3.4-1.9,3.4-3,1.6-1.6-.7h0l1.6-3.2-.6-2.1,1.4,1.1,1.5-.2,1.1-3.7,3.2-.2-.2-5.2,1.2-1.2v-2.7h0l1.4,1.1,2.7-.9v-2.7h0l2.9-4.4,2.9.3,1.3-5.9,1.5-1.7,3.6-1.5,4.8-5.7,2.9-1.2Z"/>
    <path id="ES-ML" d="M163.6,439.9l.2.4h1.1c0,0,.2.4.2.4l-.7,1.7v1c.1,0,1.7,1.8,1.7,1.8h.6l1.2,2.4,1.2.9,1.9.2.4,1v.7c0,0-.4-1-.4-1l-.9.3-.2-.7-.5-.2-1.7.8.2,1.1-.5.5v2c0,0,1.5,2.1,1.5,2.1l1.4.4-.6,1.2-2.5,1.4-2.9.5-.9-.7-1.4-2.2-3.6-2.7v-.8c0,0,.2-1.1.2-1.1l-.7-1.1-.4-1.8.4-1.9,1.9-4,.6-2.1,2.6-1.7.7,1.1Z"/>
    <path id="ES-NC" d="M282.6,31.7l1,.2.5,2.4h1c0,.1.4-1.6.4-1.6l1.6-.2,4.2,1.8-1,5.5-1.9,1.7,1.1,1.8,2.8.8.3-2.9,2.4-1-1.3,2.1,1.5,1.1,1.6-.4,2.3,1.9.9-.7,5.5,3.1,6.1-.6,1,2.1h0l-3,.8v1.5c0,0-1.3.9-1.3.9l-.3,3.7h-1.1c0,0-2.2,2.6-2.2,2.6h-1.8c0,.1-.5,2.5-.5,2.5h-3.6s-.1,1.6-.1,1.6h-.7s.7.5.7.5l-1.4.9v1.3s-2-.3-2-.3l-.8,1.5.4,2.1-2.1,2.2-.6,2,.9,1-2.2,2.7-.6,3.1.6,4,1.5,2.3h1.3s.2,1.3.2,1.3l-3.3,5.3-4.7.2-3.1-2.2-2,.4-1.7-1.6-2.5-.6h0l-1.7-1,.2-2.4,2.2-2.9,4,.5.7-2.2-6.1-2.6v-1.6c0,0-4-3.2-4-3.2l-3,.7-.7-3.2-3.4.2-2.3-2.2-1.9.6-2.4-1.7h0v-.9s.9-.3.9-.3v-3.5c-.1,0-1-.3-1-.3l-.9,1.7-1.5-2.1,2.7-2,1,.3v1c0,0,2.9-.8,2.9-.8l-1-3.1,2-1.1-.6-1.7,1.5-2.4v-3.6c-.1,0,.7-1.1.7-1.1l2.6.4,1.2-1.5,1.7-.3.8-4.1,3.5-2.7-.4-3.9,1,.7.2-1,.5.8,2.2-1.5.5-1.8,1.5-.5h0l2.5-.6Z"/>
    <path id="ES-PV" d="M246.3,25.7l1.1-.4,1.9,2.2,1.5-.4.9,1.1,3.5.6,1.5,1.8,3.4,1.6,4.9-.6,1.5,1.2,7.7-2.2,4-2.6.3,1.5-.8.5,2.3.9.2,1.4h0l-1.5.6-.5,1.8-2.2,1.5-.5-.8-.2,1-1-.7.4,3.9-3.5,2.7-.8,4.1-1.7.3-1.2,1.5-2.6-.4-.9,1.1v3.6c.1,0-1.4,2.4-1.4,2.4l.6,1.7-2,1.1,1,3.1-2.9.8v-1c0,0-1.1-.3-1.1-.3l-2.7,2,1.5,2.1.9-1.7.8.3v3.5c.1,0-.8.3-.8.3v.9h0-3s.2-1.3.2-1.3l-.7,1.6-1.2-.4-.8.9-.3-1.3-1.3.9-1-1.9-.9.4.7-3.4-2.6-1.2-1.7,2.9-.7-1.1.7-1.3h-.7c0,.1-.5-1.1-.5-1.1h0l-1-.4-.4-1.9-2.5-.4-2.2-2.7-3.2.3.7-1.4-1.1-.7,1.6-3-.3-.9-1.2,1.5-1.1-.5-.8,1.9-2.3-2.4,1.9-3,4.3,2.2,2.3-.4,1.3-1.3-2.6-2.8-3.7-.8,1.1-.3-.5-1.9.7-1-1.5-.9,1.3-2.1-2.5-.2-1-1.2-5.3,2.8h0l-1-4.5,3.5-1.8.2-1,1.7.5,1.7-.8.5,1.1,1.7-.8v-2.3h.1l1.2.4.6-.9,2.5,1.7-.5-2.1,2.9-1.7v-1s4.4.2,4.4.2l.7-.8ZM230.3,36.6l-.7-2.4,1.3-.6.6.3-1.1,2.7ZM244.6,54.4h0s.1.2.1.2h0l.2.2h0l3-.3,4.1,1,.4.9,1-.5-1.6,2.9,1,1.2,1.7-.7.2,1.6h-3.8c0,0-.7-1.1-.7-1.1l-3.5.3-.6-1.4-2.7-1.8,1-1.8h0v-.6Z"/>
    <path id="ES-RI" d="M276.1,90.2l-4,2.1-4.2-1.8.2-1.8-1.7-2.6,1.1-1.4-4.5.4-.4-1.8-1.2-.6-6.2,1.3v1.9c0,0-2.2,3.2-2.2,3.2l-5.3-.6-.4-1,1.6-3.1-.9-.9-1.8.7-.6,3.1-2.4,1.2-1.7-3.4h-3.1c0,0-3.1-4.7-3.1-4.7l1.3-2.1-.6-4.6,1.5-.4-1.3-1.1v-1.3c.1,0,1.5,2,1.5,2l.3-3.3-1.6-1.8.7-1.8-1.9-.6,2.3-2-.7-2.3h4.4c0,0,1.1.9,1.1.9l1.7-.8h0l.5,1.3h.7c0-.1-.7,1.2-.7,1.2l.7,1.1,1.7-2.9,2.6,1.2-.7,3.4.9-.4,1,1.9,1.3-.9.3,1.3.8-.9,1.2.4.7-1.6v1.3c-.1,0,2.8,0,2.8,0h0l2.4,1.7,1.9-.6,2.3,2.2,3.4-.2.7,3.2,3-.7,4,3.2v1.6c0,0,6.1,2.6,6.1,2.6l-.7,2.2-4-.5-2.2,2.9-.2,2.4,1.7,1h0l-.4,1.7ZM239.4,62.7v-.2h.3c0,0-.2.2-.2.2h0ZM241.1,62.7l.2-.2h0l.4.5-.6-.2h0Z"/>
    <path id="ES-VC" d="M289.1,167.6l3.2.5,1.1-.7.6-2.6,1.7,3.9,3.1.2,2.3,1.8-.2,1.4-2.6,1.1h0l-2.7.7-4-.8-2.5-5.4ZM299.1,174.8l4.9-.4,2.2.7.3,3.8,1.4,1,2.4-1.4-1.3-1.8v-2.2c0,0,1.8-.7,1.8-.7l.9-2.2h2.3c0,0,2.1-1,2.1-1l-.4-1.4,1.6-1.4,1.1-4.8,1.6,1,2.1-.6,1.4-.8-.2-1.8,3.5-2.5-2.1-3.2,2.4-1.4-.9-1.6.2-4h-2.5c0-.1-.3-2.3-.3-2.3l1.6-.6.7.8,2.3-1.3,1.3-3.9h1.7c0,0,2.6,2.4,2.6,2.4h2.6c0,0,.8,1.5.8,1.5l4.2-1.8h1.8c0,0,.4,1.4.4,1.4l1.6.4-.2,2.6,3.9,1.1,1.3,1-.2,1.3,2.4,1h0l-3.4,7-4.6,6.2-2.3,1.5-1.6,3.9-3.1,2.1-1.8,4.9-2.5,2.3-5.7,10.4-2.3,7.2,1,4.3,2.9,6-.7,1.8,2.5,6.1,4.4,4.9,4.7,1,2.3,1.9-.2,1.3,1.4,1.5-2.7,2.3-1.7.3-.5,1.7-1.1-.4-2.5,1-2.2,3.9-1.7-.5-7.2,3.8-.9,3.7-1.4-.4-1.8,1.1-.2,5.3-3.4,1.3-1,6.9-1.7,1.4-2.1,4.8h0l-2.2-.7-2.3-2.5-3.8-7.2-.2-1.8,2.3-6-.7-1.8-3.4-.4-.2-3.7,2.5-2.4.4-3.2-.8-3.4h2.1s1.5-1.7,1.5-1.7l-1.5-3.1,1.1-.5v-4.4c.1,0-1-2.1-1-2.1l-5.9.6-3.8-4.8,3.2-10.7-5.5-1.1-2-1.8-1.8.6-.2-1.6h-.9c0,0-1.3-2.2-1.3-2.2l.9-1.9-.7-2.1,1.9-1.1,1.9-3.7,1.1-.9,1.8.8,1.7-1.1-.4-1.7,1.9-2.9.4-6,2-.9Z"/>
  </g>
</svg>