<svg xmlns="http://www.w3.org/2000/svg" xmlns:amcharts="http://amcharts.com/ammap" id="Layer_1" viewBox="0 0 512 512"><g id="_x3C_defs"><amcharts:ammap bottomLatitude="31.733" leftLongitude="-9.302" projection="mercator" rightLongitude="4.313" topLatitude="43.793"/></g><g><path id="divider" d="M399.5 385H218.8l-68.5 115.7h-4.2L214.6 385h-157v-2.9h341.9z"/><path id="ES-A" d="m306.2 224.5 3 2.1 3.2-1.1 3.8 3 3.6-2.3-2.5-1v-1.3c.1 0 3.5-.1 3.5-.1l5.3-3.2 2.6 1.2 2.2-1.4.4 1.2 2.5-1.1 1.2 1.2v-1.2h-.1l7.6 3.4 1.1 2.9-4.4 2.6-.4 1.6-3.6.5-2.2 3.9-1.6-.5-7.3 3.8-.9 3.7-1.4-.4-2.4 3 .3 3.6-3.3 1.1-1.1 7.1-3.7 6.2-4.4-3.1-4.2-7.1 2-7.1-.7-2-3.1-1.1-.3-3.7 2.6-2.4-.4-6.5 3.5-1.7-1.5-3.2 1-.4Z"/><path id="ES-AB" d="m287.7 198.4 1.7.8v1.6l1.2-.8 2.5 1.9 5.5 1-3.3 10.7 3.8 5 6-.6 1 6.6-1 .4 1.5 3.2-3.5 1.7-5.1-4-5.1 3.1-1.9-.6-3.1 6.5.6 6.3-3.6 2.7h-2.6l-.6-2.2-1.8-.6-5.3 3.4-4.5-.3-5.3 4.2-4.1 7.1-6.7-2.4 3.4-4.1-1.2-8.7-2.8-.7-.7-4-2.6.6-2.9-1.5v-3.9l3-.9 1-3.5-3-1.9-1-4-3.9-2.4 2.3-3.5-1-4.6 3.8-5.4-.6-2.2 7.4-1 4.4 4.5 1.7-2.1 1 2.4 3.9-2.2 3.8.6-1.5-3.8 2.4.3 1 2.4 7.1.5 8.5-5.7Z"/><path id="ES-AL" d="m265.2 259.9 7.5 1.9-1.2 6.8 1.2 3.3 4.2 6.6 3.5.5 3.4 2.7-5.6 6.1-3 11-3.1 2.2-.3 2.3-3.8 4.1-2.3.5-5.4-4.9-2.1 1.2-1.8-.9-2.7.8-4.3 5.3-4.8-.5-2.4-2.3h-6.5l-.4-1.4 3.6-2.3-1.3-2.8 3-2.5-1.7-5.4 2.6.7 3.3-7.3 5.9 2.7.8-7.3 5.8-4.6 3.1-.5-1.1-4.4 2.4.4.7-10.3 2.8-1.6Z"/><path id="ES-AV" d="m171.6 126.6 4.3-1.2 4 2.8 4.5-2.4.3 3.7 4.7 4.5 1.1 4.1-.9.8 2.1.3 2 3.8.4 4.6 3.2-.6 2-.3-.6-1 3.7-.6v2.8l-2.6.9-1.5-1.1-1 9.1-3.2.2-1.1 3.6-2.9-.9.6 2.1-1.6 3.2-2.4.8-1.4-3.5-3.4.3v1.7c-.1 0-4.8 4.8-4.8 4.8l-1.9.4-.2-2-4.9 3.1-5.3-1.3-1-2 .8-4.2-6 2.9-6.6-4.2 2.1-2.3-.6-3.1 1.8-1.6 2.4-.7-.4 1.4 1.5.9.6-1.7h1.4l1.3-3.9-3.2.7.3-1.9 2.2.2 2.1-1.7V146l7.1-6 2.3-7.7-2-2.8.9-2.9Z"/><path id="ES-B" d="m395.2 76.3 1.9-.7 5.4 1.4-1.7 2.5 1.4 2.4-1.8.7v-1.4l-1.3-.2 1.2 2.1 3.9 1.6 4.6-1.4.8 1.8 2.3-.8 1.6 2.4h2.3c0-.1.3 2.7.3 2.7l-2.2 1.4 1.7 2.3-3.2 1.9-1.8-.5.8 3.1 2.7.3 3.5 3.6 3.5-1.2 3.8.5v3.6l-16.4 8.2-4.9 7.2-15 4v-1.7c-.1 0-2.4-1.1-2.4-1.1l1.6.3.5-1.8h-1.6l-1.6-3.8-2.1.2.4-4-2.8-1.6 1.9-2.4-2-.3.4-1.1-1.5-.6 2.9-1.4-2.2-2.5 1.4-1.2-.3-2.6 1.7-.3-.3 1 1.4-.5.8 1.5 2-1.1 1.2-3.5-2-.9 2.7-2.1v-2.2l2.1-.2-.7-1.3v1.3l-1.6-.6 1.7-1.3-.8-1.3 1.5-1.4-.8-1.9 1.3-1.8-1.9-1.3.8-1.3-1.1-2 5.5-1.1Z"/><path id="ES-BA" d="m185.6 197.1-.6 5.1-1.7.3 3.6 6.4-5.2-1.4-2.1 4.1 1.3 2.2-4.2-.5 1.4 4.2 2.8.9-.5 2.2-2.2-.2-.9 1.4-1.5 4.7-1.8.4-4.4.4v2.5l-4 3.4-2-.3-1.5 2.9-4.8 3.2-.2 4.2 1.7 5-2 3.1-1.6-.3-2.5 2.3-1-1.8 1.8-1.2-.3-1.2-5 .6-2.4 2.8.6 1.7-1.4 2.7-5.2.6-2.1 1.6-7.5-4.8H129c0 .1-.4 1.9-.4 1.9l-3.8-.4-1.3-3.1-4.4.2-1.9-1.1.7-2.4-4.4-1.2-4.9 1.6-6.2-10.2-1.8-.7 3-7.7-.5-4.1 7.1-5.8-.4-1.7 3.2-4.8-2.5-3.8-3.7.3.3-2.6-3.4-1.5.3-2.9.9.5 2.7-4.9 1.8.5-1.3.7.7 1.7 1.2-.6 1.1-2.5-1.9-1.1.6-.9 5.3 2.2 2.6-.3 1.8 2.8-1.7 3.4 1.1 2.1 4.3-.3 3 1.7v-1.1l5.1.8 1.7-1 1 3.7 4.9 2.7 4-4 .3 3.1 2.2-2.3.5 1.1 3.7-2.5 3.9 2.5 2.8-.7.9-2.1-1.2-1.5 2-1.1 4.4 2.4 2.1-3.4.2-3.9 3 1.3 4-1.4.3-2.1 1.9 1 3.3-1.3h.4l2.2 1.1 3.7-2 2.2-1.4Z"/><path id="ES-BI" d="m247.7 26.1 2.2 4.1v-2l1.3-.2 7.4 4.1-.8 3.4-2 1v5.4c-.1 0-1.6.4-1.6.4l-3.7.6.9 2.4-4.4-.3-4-.9-2.5-2.1 1.2-1.8-1.4-2.9-3 2.4-2.1-.7-3.6-1.6-5.3 2.9-1-4.5 3.7-2.9h5.6l.1-2.3 1.6-.5 2.7 1.7-.6-2.1 2.9-1.6v-1.2l6.2-.9ZM230 34.8h1.8l-.5 2.3h-1.1z"/><path id="ES-BU" d="M245.2 55.2v.3h.1l8.6.9-1.6 2.9 1 1.2 1.8-.7v1.6c.1 0-7.9-.9-7.9-.9l-3.2-3.2 1.1-2.5.2.2Zm-18.8-14.9 5.3-2.9 3.6 1.6-1.3 1.8 1.5 1-.3 2.9-1.2.3 3.8.8 2.5 2.8-3.5 1.7-4.3-2.2-1.9 3.2 2.5 2.1.5-1.8 2.4-.9-1.1 5.8 3.2-.4 6.1 5.5h-7.3c0-.1.8 2.1.8 2.1l-2.4 2 2 .6-.7 1.7 1.6 1.9-.4 3.3-1.4-2 1.2 2.6-1.5.2.7 4.6-1.3 2 3.1 4.9h3.3l.6 2.7-3.3 5.8-2.6.3-2.4 3.8-3.6-3.9.3 4.9-2.5 1.3-3.4 6.3-2.2-1-.4 1.5-4.2.7-1.8 1.8-.4 2.9-.9-3.8-1.8 2.5-5-4.4-3.1-6.1 1.1-1.8-1.5-4.4 3.5-1.3V92l2.8-1.2v-1.7l-4.5 1.8 1.6-4.2-3.1.6-.7-2.2 1.5-.6-4.8-1.5.5-1.8-1.4-1.4-1.3-7.7-1.6.3-.4-1.7.6-1.7h2.4c0 .1-1.9-4.2-1.9-4.2l1.3-2.7-.9-3.2 6.8-3.1 1.1-.2h1.5c0-.1 5.9-1.9 5.9-1.9l-.7-3-.9-.5-.5 1.7-1.4-1.7 2.7-2.2-1.5-.4-1.5 2.1-1.8-1.4 1.5-3.3 3.1-1.5v-1.9h3l3.4-4.2 1.5 1.4 5.9.7Zm-20.8 42.1v1.4h.1l-1.6-1.2z"/><path id="ES-C" d="m89.3 11.3.9.7-1.4 2.9.5 2.5-1.4 1.5-1.4 7.6-1.4 2.1h-2.2c0 .1.1 2.8.1 2.8l-1.9 2.2 1.3 14.7-2.9 4.5-1.5.8-4.4-1.2-3.1 2.1-1.9-1.3.2 2-1.9.2-.5 1.5-4.8-.3-1.6 2-3.6.4-.3 1.3-2.5 1.7-1.5-1.3-.2 2.6-1.4-1.6-.6 2.5-4.1 3 .4-1.8-1.8-.7 1.9-5.2 4.6-3.7.2-1.5-2.3 1.6-3.3-.3-.9 2.2-2-2.8 1.5-1.2-2.1-5-.4 1.3-1.4-1.2-1.3 2.7-.8-1.8 1.2-3.5-1.2-2.5 4.3-2.1v-2l-.8 1.2-.7-1.8 2.4-1.6 2.5.8 1.5-2.2 2.5.6-1.9-2.5 4.9-3.1 4 2.5 5.8-1.1 4.3-3.3.5 2.2 1.2-.4-.2-1.9 1.6-.7 3.1 3.5.7-4.3-4.1-.9 3.7-.7 1.5-2.3-1.5 1.5-4.5.9 1.5-3.3-.9-1.4 1.9.4 5.4-4.9 1.4 1.5-.4-3.2h2l3-2.8 1.2-.2.6 2.5-1.5 2.1h1.6l-.2-1.3 1.5.2-.7-.6 4.5-3.7Z"/><path id="ES-CA" d="m132.9 300.8 14.1 2.3 1.5-2.9 4.1-.2 1.6-2.3 4.3 3.3-.4-1.5 2.4-2.1-.9-2.2 2.2-.2-.3 4.4 4.4-4.1 2.2 3.8 3-2.5 1.8 4-1.5 2.7-5.4-1.2-1.3 2 1.6 1.8-1.1 4.1-4.2 2.1-2.1 3.5-2.9-.4v1.2c.1 0 2.8.6 2.8.6l1-1.5h1.9l3.6 8.4 2.2.6-2.8 6.2-3.2-.4.3 3.8-5.6 2.4-2.7-2.3-3.6-.4-3.5-4.1h-4l-8.8-13.9 1.2-.2 1.4 2.9 1.7-2.4-2.2.6.4-3.2-5-1.6-1.6-3.5 2.9-3.2.6-4.1Z"/><path id="ES-CC" d="m115.7 162.9 3.5 1.3 1.2-1.3.9 1.1 3.3-1.2 1.6-3.2 9.8-5.9 3.7 1.9-.4.9 2.1 1-1.3 1.7 2.9.7 1.5 2.1 1.7.5 1.1-2.1 2.8-1.1v2.8c.1 0 1.9-.3 1.9-.3l6.6 4.2 6-2.9-.8 4.2 1 2-1.1.7-1.2 9.3 2.6-.6 1.4 1.2-.8 4.3 1.8.3 2.8-2 .9 3.5-2.2 4.9 8.2 8.4-3.3 1.3-1.9-1-.3 2.1-4 1.4-3-1.3-.2 3.9-2.1 3.4-4.4-2.4-2 1.1 1.2 1.5-.9 2.1-2.8.7-3.9-2.5-3.7 2.5-.5-1.1-2.2 2.3-.3-3.1-4 4-4.9-2.7-1-3.7-1.7 1-5.2-.8v1.1l-3-1.7-4.3.3-1.1-2.1 1.7-3.4-1.8-2.8-2.6.3-5.3-2.2-.6.9 1.9 1.1-1.1 2.5-1.2.6-.7-1.7 1.3-.7-1.8-.5-2.7 4.9-.9-.5-2.5-2.6.5-4.9-2.8-1.3-5.1-7.2 6.7 1 10.2-1.2.9-5.8 2.7-2.5 1.3-5.9-2.5-4.2-2.3-.6-.6-2.5 1-2z"/><path id="ES-CE" d="m74.9 433.2-3 3.4-1.9-1.4-2.1.8-1.7-2.2-3.9-1.6-1.5-9.6-1.7-2.9 1.1-1.5 4.7-.8 5.5 4 4.1 5.8 3.7-2.9.2 1.8 4 3.3 3.7-1.5.6-3.2 3.4-3 2 2.7h1.5l-.2 2.8-2.4 1.9-6.5 2.6-4.2-1.3-2.8 3.6-2.4-.7Z"/><path id="ES-CO" d="m174.5 271 .5 2-2.1-2.3 1.6.2Zm-.4-44.2 1.4 1.4 4.1.4.5 2.9 4.9 1.7 8.2 7 5.9 2.2 1.9 1.9 1.6 6.4-3.9 4.9v9.2c-.1 0 2.4.7 2.4.7l-1 2.4 2.4 1.5-1.8 2.4 5.2 4.7-.9.8 2.8 3.4h-2.7l-2.3 2.4-2.5.3-.6 4.3-2.3 1.8-1.8-3.7h-1.9l-3.1 2.7h-2l-.4-1.8h-1.3l-1.1-3.5-3.1.5-1.9-4.3h-1.4c0-.1-2.1-3.5-2.1-3.5l.6-3.8-1.4.7.6-2.1-1.5-2.2h-2.3v1.9l-1.9-1.5.7 1.5-2.2-.7-5.8 3.8-1.7-4 3.3-.6v-3l-8.9-14.5 2-3.1-1.8-5 .2-4.2 4.8-3.2 1.5-2.9 2 .3 4-3.4v-2.5l4.4-.4Z"/><path id="ES-CR" d="m177.5 199.3 2.5-6.7 3.6 2.3v3.5h-.1l-3.7 2-2.2-1.1Zm8.1-2.2 2.2-.2 3-4.4 2 3.4.6-1.8 6.5 1.9 1.6-.7 1.1-3.4h3.8l.4 2.3h-1l-.3 2.7h-1.6l-1 3.9 5.6.4.2 2.2 3.5 1.6 2.1-1.4 2.3.9 6.1-1.4 3.9-4.2 3.2.2.5-3 4.8-1 4.6 2.2 2.2-1.2 2 3.3-.7 1.3 1.5.4 2.2-1.9 1.1 3.2.6 2.2-3.8 5.4 1 4.6-2.3 3.5 3.9 2.4 1 4 3 1.9-1 3.5-3 .9v3.9l-3.8 3.3-2.6-.8-1.2 2.6-2-2.9-2.1 1.6-6.3-1.8-4.1 3.3-4.2-2.1-.5 2.2-6-1.1-4.1 2.3-11-1.3-.4 2.2-5.9-2.2-8.2-7-4.9-1.7-.5-2.9-4.1-.4-1.4-1.4 1.8-.4 1.5-4.7.9-1.4 2.2.2.5-2.2-2.8-.9-1.4-4.2 4.2.5-1.3-2.2 2.1-4.1 5.2 1.4-3.6-6.4 1.7-.3.6-5.2Z"/><path id="ES-CS" d="m310.4 179.2-1.3-4 2.7-2.9 4.5-1 2.2-7.6 3.7.3 4.7-5.1-2.1-3.3 2.4-1.2-.7-5.8H324c0-.1-.2-2.4-.2-2.4l4.6-1 .4-2.7 1.9-1.5 3.2 2.6h2.6l.8 1.5 4.1-1.8 3.9 1.9-.4 2.5 4 1.2 1.2 2.3 2.5 1-11.8 18.5-3.1 1.9-1.8 5-5.9 8-4.5-3.3h-1.6l-2.5 3.6-2.4-3.4-1.9 2.3-1.4-.2-.8-3.7-1.1-.7-1.3 1.6-2.2-2.8Z"/><path id="ES-CU" d="m237.6 167.6 1.6.2.3-2.3 3 2.1 2.9-2 1.3-10 1.9 2 .2-1 1.2.7.2-1.9 5.1 1-.4-5.1 1 1.5 2.7-.7 1-.8-1-2.5 3.7 1.2.7-3 2 1.1 2.6-1.5 4.8 3 .7-1.1 1.2.7 2.2 6.9 1.6 1.3 3.5 3.2.2.5 4.8 5 3.3-.3-.3 2.2 2.3 5.4 6.8.3.7 1.6-2.1 1.2.3 3.5-2.6 7.6-2.9-.5-4.4 5.2v6l-8.5 5.7-7.1-.5-1-2.4-2.4-.3 1.5 3.8-3.8-.6-3.9 2.2-1-2.4-1.7 2.1-4.4-4.5-7.4 1-1.1-3.2-2.2 1.9-1.5-.4.7-1.3-2-3.3.7-7.1-7-9.7 1-4.7h-1.5l-.6-3.3 3.2-1.1-1.2-2.2.9-.6Z"/><path id="ES-GC" d="M322.2 454.5v4.4l2 4.7-.9 2.7-6 4.4-3.3-.4-5.1-5.8.3-3.8 3.5-2.3.2-3.2 7.7 1.5 1.5-2Zm49.1-21 1.8 2.3.2 5.2-3 10.9-9.7 3.1-3.6 4.3-5.8-.8.6-1.6 3.9-.2 4.7-3.5.6-4.1 5.5-9.6.5-4.4 4.2-1.5Zm13.4-17.6 1.6 2.1-2.1 7-8.1 3.1-1.6 2.5-2.8-.6 1.8-6.5 5.1-3.4 3.7.2z"/><path id="ES-GI" d="m392.6 68.4 5.6 1.5 2.5 4.6 2.2-.6 1.4-2.2 4.1-1.1 5.7 2 3 2.6 1.4-1.1 3.2.8v-2.7l4.1-.6 1.3-1.8 6.2-.7 1.7 2.1 2.8-.4-.3 3.3 5 1.7-1.8 3.7-3.3-1.2-1.6 2.3.4 3.6 2.8 2.5-.6 1.9 1.3 2.7-1 3-8.6 7.6-5.1 2.7V101l-3.8-.5-3.5 1.2-3.5-3.6-2.7-.3-.8-3.1 1.8.5 3.2-1.9L414 91l2.2-1.4-.3-2.8h-2.3c0 .1-1.6-2.3-1.6-2.3l-2.3.8-.8-1.8-4.6 1.4-3.9-1.6-1.2-2.1 1.3.2v1.4l1.7-.7-1.4-2.4 1.7-2.5-5.4-1.4-1.9.7.4-2.7H394l-.1-2.4-2.2-.7v-2.3z"/><path id="ES-GR" d="m254.2 253.1 6.7 2.4 4.3 4.4-2.8 1.6-.7 10.3-2.4-.4 1.1 4.4-3.1.5-5.8 4.6-.8 7.3-5.9-2.7-3.3 7.3-2.6-.7 1.7 5.4-3 2.5 1.3 2.8-3.6 2.3.4 1.5-6.7.5-2.6 1.8-5.9-2-5.6.3.3-2.6-1.9-2.1-7.1-1.9-7.2-4.5-1.8-6.8 2.3-1.8.6-4.3 2.5-.3 2.3-2.5h2.7l5.1.7 1.8-4.2 5.1-1.5 3.9-3.6 3.4 2.1 5.9-3.2 4 1.9 3.6-.3 3-3.2-.6-2.8 3.8-6.7 5.8-3.3v-2.6l1.7-.9Z"/><path id="ES-GU" d="m233.1 119.3 4.7 1.3 5-2.3 2.7 3 3.4-.8 2.8 2.6 1.3-.4-1 1.6 1.4.4-.6 1.2 1.9-.5 3.8 4.4 2-1.2 1 1.3 2.9-1.7 1.8.6 1.4-1.5 2.4 2 .2-3.3 3-1.1 11 9.7v2.7l2.4 2.9v9.1c-.1 0-1.8 1.4-1.8 1.4l-2.5-1.2-.5 4.4-3.7 3.7-1.6-1.3-2.2-7-1.2-.7-.7 1.1-4.8-3-2.6 1.5-1.9-1.1-.7 3-3.7-1.2 1 2.5-1 .8-2.7.7-1-1.5.4 5-5.1-1-.2 1.9-1.2-.7-.2 1-1.9-2-1.3 10-2.9 2-3-2.1-.3 2.3-1.6-.2-1.3-5.3-2.8 1.6 2.1-6.6-2.2-1.6v-3l-3.2-1-.7-4.9-.7.7-1.7-2.4-.4 1-2-.8.8-3-2.2-1.2 3.7-9-1-3.5-2-.4-1.7-3 4.4-2.1-.2-2h5c0 .1 1.5-1.9 1.5-1.9Z"/><path id="ES-H" d="m112 288.1 1.1 2.1-2.8-1.7-11.9 1.1-1.9-12.4-1.9-2.8 3.3-8.2 4.4-4.4.7-4.5 4.5-1 .7-1.6 3.1.9 2.3-7.6 4.4 1.2-.7 2.4 1.9 1.1 4.4-.2 1.3 3.1 3.8.4.4-1.8h1.2c0-.1 7.5 4.7 7.5 4.7l1.8 1.5-1.3 1.7 1 3-1.7-.9-1.1 2.8-2.9-1-5.2 1.6-2 3 .3 1.4 4.3.2 2.8 7.1-2.5 3.9 1.7 1.5-.3 7.1-1.4 1.9 1 3.5-.8 2.1 1.5 1.4-.6 4.1-1.5-.5-4-6.7-14.8-9.6Z"/><path id="ES-HU" d="m307.1 57.3 1.7-1.9.9-5 2.9-.8 5.1 6 2-2 3.6 1.2 2.6-2.1 4.9 2.2 1.7 3.4 2.9 1.6 6.1-2.2 3.8 2.8 2.1-2.2 2 1.5h7.6l1.5 3 1.9.4-.9 4.6-1.6.8 2.4 7.2-3.4 13.8-3.1 2.7 1.5.8v2l-4.4 4.6-2.3.3-2.3 3.3.7 3.5h2.5c0-.1.6 2.4.6 2.4l-3.4 2.5-.2 3.2-2.9-.9-4.9 3.3-2.7-.4-1.1-1.6.5 2.1-1.3-.5-3.4-9.8-1.6-.5-1.3 1.2-3.7-2.7-.4-2.2-4.7-1.8v-4.6l-4.4-5.2h-3.9l-3.4-2 2.6-4 .3 1.8 1-.6 1.1-9.9-.2-3.1-1.3-.9-1.1 5.5-2-.7-.4 1.8-.9-.6 3.3-6-2.9-1.8.4-3.2-1.3.2 1.2-1.5-1.2-1.4.9-1.2-.7-2.4 1.5-1.4-1.4-.5.7-1.8Z"/><path id="ES-J" d="m247.4 234.8 2.9 1.5 2.6-.6.7 4 2.8.7 1.2 8.7-3.4 4.1-1.8.9v2.6l-5.7 3.3-3.8 6.7.6 2.8-3 3.2-3.6.3-4-1.9-5.9 3.2-3.4-2.1-3.9 3.6-5.1 1.5-1.8 4.2-5.1-.6-2.8-3.4.9-.8-5.2-4.7 1.8-2.4-2.4-1.5 1-2.4-2.6-.7v-9.2c.1 0 4-4.9 4-4.9l-1.6-6.4-1.9-1.9.4-2.2 11 1.3 4.1-2.3 6 1.1.5-2.2 4.2 2.1 4.1-3.3 6.3 1.8 2.1-1.6 2 2.9 1.3-2.6 2.6.8 3.8-3.3Z"/><path id="ES-L" d="m359 52.2 6.8 3.1h4.9l3 3.5 6-.5 2.7 5.3-.9 2.8 1.8 1.1-1.6 1.2 1 2 3.3.2.3-1.1 3.1-.4.4-1.5 1.9.5v2.3l2.3.7v2.4h1.7l-.4 2.7-5.5 1.1 1.1 2-.8 1.3 1.9 1.3-1.3 1.8.8 1.9-1.5 1.4.8 1.3-1.7 1.3 1.6.6v-1.3l.7 1.3-2.2.2v2.2l-2.6 2.1 2 .9-1.2 3.5-2 1.1-.8-1.5-1.4.5.3-1-1.7.3.3 2.7-1.4 1.2 2.2 2.5-2.9 1.4 1.5.6-.4 1.1-5.6.2-1.8 1.5.5 2-2.2.9-2.3-1.5 1.1 1.8-3.6 4.5-3.2.7-.6-1-.8 1.4-6.1 1.6-2.4-1.5-1.6 1.6-1.3-1.9-.9 2.5h-1.5c0-.1-1.6-5.6-1.6-5.6l.2-3.2 3.4-2.5-.6-2.6h-2.5c0 .1-.7-3.4-.7-3.4l2.3-3.3 2.3-.3 4.4-4.6v-2l-1.5-.8 3.1-2.7 3.4-13.8-2.4-7.2 1.6-.8.9-4.6-1.9-.4-1.5-3V54l1.7-1Z"/><path id="ES-LE" d="m180.7 38.2-.3 2.4 3.7 4.6-5.3 7.1.2 3.1-1.3 1.8 2.1 1.6-1.4 6.4.4 7.5-2.2.5.8 2.8-1.7.9-1.2-.3-.5 1.7-1.8-2.3-2.3 2.1-1.7-.4-.2 2.5-4.7-.3.4 7.8-1.5.5-3.2-2.9-2.1 2-2.6-3.9-5.7 1.3-1.7-2-1.8 1.4-2.4-1.5-5.9.4-3.2-2.5-5.9 1.1-6.6-1.2-2.6-1.9 1.6-4.6-3.5-2 .7-3.7-3.5-1.3-1.5 1.2-3.1-.6 1-5.4 1.4-.4-1.3-2.3 5.7-4 .9-1.6-1-2.2h1.8c0 .1-.3-1.8-.3-1.8l2.2 1.4 2.1-1.7h6.5l1.8-.8-1.4-2.3 1.7.2 2.1-3.1 4.2 2.2.4-1.7 3.8.7.5-2 3.5.5 1.9 3.2 3.5 1.3 3.6-4.1 6.4 1.5.5-1.5 2.8.2.7-2 8.6-.3.8-3.5 2.5.4 2.7-2.8 2.3 2.4Zm-16.3 40.1 1.4.3-1 .9z"/><path id="ES-LO" d="m242.5 88.5-.6-2.8h-3.3l-3.1-4.9 1.3-2-.7-4.6 1.5-.2-1.2-2.6 1.4 2 .4-3.3-1.6-1.9.7-1.7-2-.6 2.4-2-.8-2.2h7.2c0 .1 1.2 1.1 1.2 1.1l-.2 2.6 2-2.9 2.7 1.2-.8 3.4 1-.4.9 1.8 1.4-.9.3 1.3 2.2-.5.6-1.6-.2 1.3h3l2.4 1.7 1.9-.7 2.3 2.2 3.4-.2.7 3.1 3-.7 4 3.2v1.6l6.1 2.6v1.8h-4.5l-2.3 3-.3 2.4 1.7.9-.3 1.8-4 2-4.1-1.7-1.7-4.7 1.1-1.3-4.6.4-2-2.5-5.9 1.3-2.1 5.1-5.3-.5 1.3-4-1-1-1.7.7-.7 3.1-3.2.6Z"/><path id="ES-LU" d="m90.9 13 1.4 3.7 2.1-3 5.4 2.9 3.6 4.2-.7 1.6 1-1.3 6.3.5-.4 3.6-1.6 2.1h-2.2c0-.1-.3 1.5-.3 1.5l1.8.9.8 3h1.3v2.6l2.9 1.7.4 3 3.1-2 1.3 1.7-5.6 5.4 4 1.3 1.5 3.2.3 1.9h-1.8c0-.1 1 2.1 1 2.1l-.9 1.6-5.7 4 1.3 2.3-1.4.4-1 5.4-4 7.9-.6-2.7-2.8-1.8-9.9 2-5.5-3.5.8-1.2-4.8-.6.7-1.8-1.3-1.2 2.2-5.5-3.8-3.2.7-2.6-1.4-.4 2.9-4.5-1.2-14.7 1.9-2.2v-2.7c-.1 0 2.1-.1 2.1-.1l1.4-2.1 1.4-7.6 1.4-1.5-.5-2.5 2.2-1.9Z"/><path id="ES-M" d="m198.8 145.8.6 1-2 .3 1.4-1.2Zm23.6-20.6 1.7 3 2 .4 1 3.5-3.7 9 2.2 1.2-.8 3 2 .8.4-1 1.7 2.4.7-.7.7 4.9 3.1 1v3l2.3 1.6-2.1 6.6 2.8-1.6 1.3 5.3-.9.6 1.2 2.2-3.2 1.1-.4-1.1-3.3 1.8-1.9-1.4-1.9 1.9-3.6-.5-9.5 6.8-2.3-1.8 3.9-.9 4.3-4.4.4-2.2-1.9-1.4-2.5.5-2-1.9-4.6-.5-3.9-3.2-2.3.8-1.5-2.2-4.2 3-1.9-3.9-1.8 3.4-3.2 1.6-1.4-.7 1.6-3.2-.6-2.1 2.9.9 1.1-3.6 3.2-.2 1-9.1 1.5 1.1 2.6-.9v-2.8l2.9-4.4 2.9.4 2.7-7.7 3.6-1.4 5.4-6.3z"/><path id="ES-MA" d="M186.7 286.5h1.3l.4 1.9h2l3.1-2.8h1.9l1.8 3.8 1.8 6.8 7.2 4.5 7.1 1.9 1.9 2.1-.3 2.6-19.8.6-7.8 8.6-9.5.2-7.8 3.4-2.4 4.1-2.2-.6-3.6-8.3h-1.9l-1 1.5-2.7-.6V315c-.1 0 2.8.4 2.8.4l2.1-3.5 4.2-2.1 1.1-4.1-1.6-1.8 1.3-2 5.4 1.2 1.5-2.7-1.8-4 7.5-4.4-1-2.4 2.1.7 1.6-1.7 1 1.9 2.8-1.8-.8-2.1 2.6-.3Z"/><path id="ES-ML" d="m119.7 443 1.6.8-.5 2.7 3.4 4.2 3.5 2.1-2.1-.9-1.6.8-.3 3.5 2.8 2.6-.6 1.2-5.4 1.9-5.8-5.6-.9-4.7 2.8-7.9 2.6-1.7.6 1.1Z"/><path id="ES-MU" d="m260.9 255.4 4.1-7.1 5.3-4.2 4.5.3 5.3-3.4 1.8.6.6 2.2h2.6l3.6-2.6-.6-6.3 3.1-6.5 1.9.6 5.1-3.1 5.1 4 .4 6.5-2.6 2.4.3 3.7 3.1 1.1.7 2-2 7.1 4.2 7.1 4.4 3.1-3.1 5.2 4.2 3.4.3 1.1-6.5 2.1-5-1.2-1.2 2-3.3-1.7-3.6.5-4.3 3.1-.7 2.5-4.7 2-3.4-2.7-3.5-.5-4.2-6.6-1.2-3.3 1.2-6.8-7.5-1.9-4.3-4.4Z"/><path id="ES-NA" d="m283.1 32.5 1.3 2.5 2.3-1.8 4.8 1.8v2.8l-2.9 4.5 1 1.8 2.8.8.3-2.9 2.4-1-1.2 2.1 1.4 1.1 1.7-.3 8.6 4.3 6.2-.6.8 2.1-2.9.8-.9 5-1.7 1.9-4.1 1.9-.8 2.5-3.2-.2-1.6 4.3-2-.3-.8 1.5.5 1.8-2.2 2.5.4 3-2.2 2.8-.6 3.4.6 3.7 3 3.6-3.4 5.3-4.7.2-9.3-4-1.7-.9.3-2.4 2.3-3h4.6v-1.7l-6.1-2.6v-1.6l-3.9-3.2-3 .7-.7-3.1-3.4.2-2.3-2.2-1.9.7-2.4-1.6.8-4.8-1.8 1.4-1.5-2.1 2.7-2 1.1 1.2 3-.9-1.1-3 2-1.1.4-6.4 1.3-2.4 2.6.5 2.9-1.8.5-3.7 3.9-3.1-.4-3.8 1.8.5 4.2-3.7 2.5-.6Z"/><path id="ES-O" d="m148.6 17 4.7 5.2 9.1-.5 3.5.8 2.7 2.7 9.3.5 13.3 3.1-.4 5.1-2.7-1-.8 1.4-3.2.4-.2 3.1-3.3.3-2.3-2.5-2.7 2.8-2.5-.4-.8 3.5-8.6.3-.7 2-2.8-.2-.5 1.5-6.4-1.5-3.6 4.1-3.5-1.3-1.9-3.2-3.5-.5-.5 2-3.8-.7-.4 1.7-4.2-2.2-2.1 3.1-1.7-.2 1.4 2.3-1.8.8h-6.5l-2.1 1.6-2.2-1.4-1.5-3.2-4-1.3 5.6-5.4-1.3-1.7-3.1 2-.4-3-2.9-1.7v-2.7H108l-.8-3-1.8-.9.3-1.7h2.2c0 .1 1.6-1.9 1.6-1.9l1.5-2.4-.7-1.3 2.7-.8 19 1.1 3.6-2 4.1 1.9 5-1z"/><path id="ES-OR" d="m81.5 64.5 1.3 1.2-.7 1.8 4.8.6-.8 1.2 5.5 3.5 9.9-2 2.8 1.8.6 2.7 4-7.9 3.1.6 1.5-1.2 3.5 1.3-.7 3.7 3.5 2-1.6 4.6V80h-3.3l-4.7 6 1.9.8-.3 3.5-2.7 1-1.6-1.6-1.9.3-.6 4.3-5.4 1.2-2 1.9-.8-2.5-5.1 1.5.8-2.3-3.7-1.1-4.6 1.1-.9 1.6-1.1-3.5-.5 2.1-6.7 3-2.8-4.5 4.3-5.8-1.1-1.5-2 .7-.6-3.8 1.2-3.9-3.3-.4v-2.7l-1.9-1.3-1.3-6.2h2c0-.1 4.1-3.7 4.1-3.7l5.1 1.3 2.8-1.6Z"/><path id="ES-P" d="m205.2 82.2.4 1.6-1.6-1.2 1.1-.4Zm1-25.9 1.4-2.8v2.7h.1-1.5ZM184 45.2h5.7l3.6-1.6 3.2 3.8 3.5.8.6 4.5 2.4-.8.5 1-1.7 1.6 3.3 2.1-6.8 3.1.9 3.2-1.3 2.7 1.9 4.3h-2.4c0-.1-.6 1.6-.6 1.6l.4 1.7 1.6-.3 1.3 7.7 1.4 1.4-.5 1.8 4.8 1.5-1.5.6.7 2.2 3.1-.6-1.6 4.2 4.5-1.8v1.7l-2.9 1.2v1.3l-3.5 1.3 1.5 4.4-6.3-2-2.6 2.2-2.4-1-2 1.2-1.5-.5.9-3.1-3 1.3-3.3-3.8-3.8 3.5-2.6-4.9-3.7.9-.7-1.6 3.2-5.6-.8-3.1-3.2-.2.8-5.8 1.7-.9-.8-2.8 2.2-.5-.4-7.5 1.4-6.4-2.1-1.6 1.3-1.8-.2-3.1 5.3-7.2Z"/><path id="ES-PM" d="m381.6 224.2 2.3 4.1h2.5v1.7l-3.8-1.4-2.1 1.8zm3.7-13.5 2.3 1.1.5 2.6-6.4 5.1-.5 3-2-1.7h-3.9l-.3-3.6 3-.6-.6-2.3 7.8-3.7Zm53.9-34.9-4.3 2.6.8 1.8 3.2-1.3-.9 2.2-1.7.2.6 2.3 3.7 2 3-2.5 4.2 3.1-1.4 3.4-1.3.2.2 2.1-3.4 3.3-2.1 5.7-5.1 3.8-3.7-3.9h-5.5l-2.1-4.6.9-1.4-2.5-2-4.3 1.5-.6 2.8-1.6-.4-.5-2.9h-3v-3.1l13.3-10.2 14-4.5Zm27.8-5.4 1.5 2.7.9-1.7.2 1.5 3.5 1.5 1.3 4.8-1 2.9-9.4-5-5.4.3.2-2.9-1.3-.9 1-1.5h7.4l.9-1.7Z"/><path id="ES-PO" d="m56 60.2.3-1.3 3.6-.4 1.6-2 4.8.3.5-1.5 1.9-.2-.2-2 1.9 1.3 3.1-2.1 4.4 1.2 1.5-.8 1.4.4-.7 2.6 3.8 3.2-2.2 5.5-2.8 1.6-5.1-1.3-4.1 3.5h-2c0 .1 1.3 6.3 1.3 6.3l2 1.3v2.7l3.2.4-1.2 3.9-4.2 3-9.8 1.5-7.7 7.6-.8-10.4h2.8c0-.1-1.1-1.9-1.1-1.9l1.1-1.4 6.4-4.2-.6-2.9-1.8 3.2-5.9 1.3.5-2.5 1.3 1.3-.7-2.7 2.2.3 3.7-4-5.9 1.8-1.4-3.1-2-.3 2.4-1.6v2.3l1.6-.2-.3-5.3z"/><path id="ES-S" d="m230.2 37.1-.2-2.3h1.8l-.5 2.3h-1ZM221 23.5l5.1 2.5-.3 1-1.6-.5.8 2.5.6-1.4h3.9l.1 1.4 3.1-.3 2.2 1.9v2.3h-5.7l-3.7 2.9 1 4.5-6-.7-1.5-1.4-3.4 4.2h-2.9v1.9l-3.1 1.5-1.5 3.3 1.8 1.4 1.5-2.1 1.5.4-2.7 2.2 1.4 1.7.5-1.7.9.5.7 3-5.9 1.8v-2.7c-.1 0-1.5 2.8-1.5 2.8l-1.1.2-3.3-2.1 1.7-1.6-.5-1-2.4.8-.6-4.5-3.5-.8-3.2-3.8-3.6 1.7h-5.7l-3.7-4.7.3-2.4 3.3-.2.2-3.1 3.2-.4.8-1.4 2.7 1 .4-5.1h9.4l14-4.4.7 1.1-1.8.8.2 2.1 1.4-2 1.1.8.4-1.8 4.4-1.9Z"/><path id="ES-SA" d="m128.1 119.7 5.2 1 5.9 3.4 2.3-1.3 1.7.9-.4 1.9 1.4-.8.8 1.5 1.8-4.2 4.3 1 3.5-1.3 5.5 2.8h.3l2.2-.3.2 1.7 2.3 1.2 1.3-2.8 1.5-.6 3.8 2.8-.9 2.9 2 2.8-2.3 7.7-7.2 6v2.1l-2 1.7-2.2-.2-.3 1.9 3.2-.7-1.3 3.8h-1.4l-.6 1.8-1.5-.9.4-1.4-2.4.7-1.8 1.6.6 3.1-2.1 2.3-1.8.3v-2.8c-.1 0-2.9 1.1-2.9 1.1l-1.1 2.1-1.7-.5-1.5-2.1-2.9-.7 1.3-1.7-2.1-1 .4-.9-3.7-1.9-9.8 5.9-1.6 3.2-3.3 1.2-.9-1.1-1.2 1.3-3.5-1.3 2.7-3.9-2.2-3.7 1.7-2.5-1.6-2.3 1.7-4-1.2-3.9 1-4-4.2-7.6 3.9-.3 1.3-4.2 3.8-4.8 2.5.4 2.9-2.3Z"/><path id="ES-SE" d="m137.7 258.9 2.1-1.7 5.2-.6 1.4-2.7-.6-1.7 2.4-2.7 5-.6.3 1.2-1.8 1.2 1 1.9 2.5-2.3 1.6.3 8.8 14.5v3l-3.3.6 1.7 4 5.8-3.8 2.2.7-.7-1.5 1.9 1.5v-1.9h2.3l1.5 2.2-.6 2.1 1.4-.7-.6 3.8 2.1 3.4h1.4c0 .1 1.9 4.4 1.9 4.4l3.1-.5 1.1 3.4-2.6.2.8 2.1-2.8 1.8-1-1.9-1.6 1.7-2.1-.7 1 2.4-7.5 4.4-3 2.5-2.2-3.8-4.4 4.1.3-4.4-2.2.2.9 2.2-2.4 2.1.4 1.5-4.3-3.3-1.6 2.3-4.1.2-1.5 2.9-14.1-2.3-1.5-1.4.8-2.1-1-3.5 1.4-1.9.3-7.1-1.7-1.5 2.5-3.9-2.8-7.1-4.3-.2-.3-1.4 2-3 5.2-1.6 2.9 1 1.1-2.8 1.7.9-1-3 1.3-1.7-1.7-1.5ZM175 273l-2.1-2.3 1.6.3z"/><path id="ES-SG" d="m208.3 107.3 5 4.4 1.8-2.5.9 3.8.4-2.9 1.8-1.8 4.2-.7 1.3 2.1 2.5.5.4 1.7 2.7.7-.6 2.8 4.6 3.9-1.5 2h-5c0-.1.2 1.9.2 1.9l-4.4 2.1-2.4.7-5.4 6.3-3.6 1.4-2.7 7.7-2.9-.4-2.9 4.4-3.7.6-1.4 1.2-3.2.6-.4-4.6-2-3.8-2.1-.3.9-.8-1.1-4.1-4.7-4.5-.3-3.7 1.3-1.5 1.7.6-.7-2.1 2.5-2.3-.7-1.9 4.1 1.1-1.5-4.8 14.4-3.6 2.1-.9.6-2.9Z"/><path id="ES-SO" d="m242.5 88.5 3.2-.6.7-3.1 1.7-.7 1 1-1.3 4 5.3.5 2.1-5.1 5.9-1.3 2 2.5 4.6-.4-1.1 1.3 1.7 4.7 4.1 1.7 4-2 1.2 4.9-1.1 2.7 2.1 3.9-4.4 4.3h-2.3l1.8 8.2-2.9 1-.2-1.8-2.1-.8-2 3.9.5 7.3 3 1.6-.2 3.3-2.4-2-1.4 1.5-1.8-.6-2.9 1.7-1-1.3-2 1.2-3.8-4.4-1.9.5.6-1.2-1.4-.4 1-1.5-1.3.4-2.8-2.6-3.4.8-2.7-3-5 2.3-4.7-1.3-4.6-3.9.6-2.8-2.7-.7-.4-1.7-2.5-.5-1.3-2.1.4-1.5 2.2 1 3.4-6.3 2.5-1.3-.3-4.9 3.6 3.9 2.4-3.8 2.6-.3 3.3-5.8Z"/><path id="ES-SS" d="m278.5 28.8-.2 2 2 .8.2 1.5-4.2 3.7-1.8-.5.4 3.8-3.9 3.1-.5 3.7-2.9 1.8-2.6-.5-1.3 2.4-3.3-2.4-7.3-.6-.5-2 2.3-1.5-.7-1.9 1.5-.4v-5.4c.1 0 2.1-1 2.1-1l.8-3.4 9.2 1.3 10.8-4.5Z"/><path id="ES-TE" d="m284.1 134.6 4.6-.2.8-1.2-1-1.6 2.3-2.2 1.6-.9v1.3l2.2.4 1.1-3.1 4.3-.5.5-1.4 2.1 1.4 2.1-.8-.8 2.5 1.3.8 2.4-3.1.8 1.7h2.3l.9-2.6 2.2 2.4 2.7-3.4-1.9-1.9 1.4-.5V119c-.1 0 .6-.5.6-.5l3.1 3.6-2.3-3.5.5-1.4 2.8.3 2.4 3.1 12.2 6.1 2 3.5 1.1-1.4 4.7.3 2.3 4.3-1.7 3.6 1.3 2.7-3.5 3.7-4.1 1.8-.8-1.6H334l-3.2-2.5-1.9 1.5-.4 2.7-4.6 1 .2 2.3h2.5c0 .1.7 5.9.7 5.9l-2.4 1.3 2.1 3.3-4.7 5.1-3.7-.3-2.2 7.6-4.5 1-2.7 2.9 1.3 4-2.9 1.2-1-4.7-7.1-.3-.7-1.6 3-2.1-2.4-2.2h-3.1l-1.7-4.1-1.9 3.5-2.9-.7.3-2.2-3.3.3-4.8-5-.2-.5-3.5-3.2 3.7-3.7.5-4.4 2.6 1.2 1.7-1.4v-9.1c.1 0-2.4-2.9-2.4-2.9v-2.7Z"/><path id="ES-TF" d="m241.6 466.5 1.5 1.7-3.1 5.9-5.8-2.7.8-2.1 3.2.3 3.5-3.1Zm21.5-13.3 5 3.2-3.1 3.8h-2.3l-2.5-2.7.9-3.7zm35.3-13.5 1.1 2.1-7.5 5.5-2.2 8.5-3.8 4.4-5 .8-7.1-12.7L287 446l5.9-5.7 5.5-.4Zm-56.5-9.8 4.6.7 1.7 3.5-1.4 2.4.3 3.9-2.6 4.2-5.5-10.8 2.9-4Z"/><path id="ES-TO" d="m189.1 165.1 1.4.7 3.2-1.6 1.8-3.4 1.9 3.9 4.2-3 1.5 2.2 2.3-.8 3.9 3.2 4.6.5 2 1.9 2.5-.5 1.9 1.5-.4 2.2-4.3 4.4-3.9.9 2.3 1.8 9.5-6.8 3.6.5 1.9-1.9 1.9 1.4 3.3-1.8.4 1.1.6 3.3h1.5l-1 4.6 7 9.7-.7 7.1-2.2 1.2-4.6-2.2-4.8 1-.5 3-3.3-.2-3.9 4.2-6.1 1.4-2.3-.9-2.1 1.4-3.5-1.6-.2-2.2-5.6-.4 1-3.9h1.6l.3-2.7h1l-.4-2.2h-3.8l-1.1 3.3-1.6.7-6.5-1.9-.6 1.8-2-3.4-3 4.4-2.2.2-2.2 1.4v-3.5c.1 0-3.5-2.3-3.5-2.3l-2.5 6.7h-.4l-8.2-8.4 2.2-4.9-.9-3.5-2.8 2-1.8-.3.8-4.3-1.4-1.2-2.6.6 1.2-9.3 1.1-.7 5.3 1.3 4.9-3.1.2 2 1.9-.4 4.7-4.8v-1.7c.1 0 3.5-.3 3.5-.3l1.4 3.5 2.4-.8Z"/><path id="ES-T" d="m380.8 107.7 2 .3-1.9 2.4 2.8 1.6-.4 4 2.1-.2 1.7 3.9h1.6l-.5 1.7-1.6-.3 2.3 1.1v1.7h.1l-13.8 3.9-1.3 2.1-1.6-.9-4.5 1.5-9.1 10 5.6 3-.2 1.5-6.4 5.7-2.4-.7 3.5-.9 1.2-1.7-4.6.6-2.8 4.2-2.5-1-1.2-2.3-4-1.2.4-2.5-3.9-1.9 3.5-3.7-1.3-2.7 1.7-3.6-2.3-4.3-.6-2.3 3.3-1.6 2.6-4.9h1.5c0 .1.9-2.4.9-2.4l1.3 1.9 1.6-1.6 2.4 1.5 6.1-1.6.8-1.4.6 1 3.2-.7 3.6-4.5-1.1-1.8 2.3 1.5 2.2-.9-.5-2 1.8-1.5 5.5-.2Z"/><path id="ES-V" d="m299.4 175.4 7.1.3 1 4.7 2.9-1.2 2.2 2.8 1.3-1.6 1.1.7.8 3.7 1.4.2 1.9-2.3 2.4 3.4 2.5-3.5h1.6l4.5 3.2-4.1 8.2-.6 4.1 3.8 9.8-.7 2.4 1.6 3.8 4.8 6.2v1.2c.1 0-1.1-1.2-1.1-1.2l-2.5 1.1-.4-1.2-2.2 1.4-2.6-1.2-5.3 3.2h-3.4c0 .1-.1 1.5-.1 1.5l2.5 1-3.6 2.3-3.8-3-3.2 1.1-3-2.1-1-6.6-6 .6-3.9-5 3.3-10.7-5.5-1-2.5-1.9-1.3.8V199l-1.6-.8v-6l4.4-5.2 2.9.5 2.6-7.6-.3-3.5 2.1-1.2Zm-9.9-7.3 2.9.7 1.9-3.5 1.7 4h3.1l2.4 2.3-3 2.1-6.8-.3-2.3-5.4Z"/><path id="ES-VA" d="m158.9 85.3 3.2 2.9-.5 2.7-1.5-.7-1.2-4.8Zm5.5-7 1.4.3-1.1.9zm-.9 9.4-.4-7.8 4.7.3.2-2.5 1.7.4L172 76l1.8 2.4.5-1.7 1.2.3-.8 5.8 3.2.2.8 3.1-3.2 5.6.7 1.6 3.7-.9 2.6 4.9 3.8-3.5 3.3 3.8 3-1.3-.9 3.1 1.5.5 2-1.2 2.4 1 2.6-2.2 6.3 2-1.1 1.8 3.1 6.1-.6 2.9-2.1.9-14.4 3.6 1.5 4.8-4.1-1 .7 1.9-2.5 2.3.7 2.2-1.7-.6-1.3 1.5-4.5 2.3-4-2.8-4.3 1.2-3.8-2.8-1.5.6-1.7-.5 1.6-3.2-1.7-9 3.7-2.1-2.1-2 .7-1.1-1.9-.6v-2.8l-2-3.4 3.6-2.3-1.6-.8 1.2-3.8-1.3-.8 2.6-1.9-4-2.6Z"/><path id="ES-VI" d="m235.2 39 2.1.7 3-2.4 1.4 2.9-1.2 1.8 2.5 2.1 4 .9 4.4.3-.9-2.4 3.7-.6.7 1.9-2.3 1.5.5 2 7.3.6 3.3 2.4-.4 6.4-2 1 1.1 3-3 .9-1.1-1.2-2.7 2 1.5 2.1 1.8-1.4-.8 4.8h-3l.2-1.3-.6 1.6-2.2.5-.3-1.3-1.4.9-.9-1.8-1 .4.8-3.4-2.7-1.2-2 2.9.2-2.6-1.2-1-6.1-5.5-3.1.4 1.1-5.8-2.4.9-.5 1.8-2.5-2.1 1.9-3.2 4.3 2.2 3.5-1.7-2.5-2.8-3.8-.8 1.2-.3.3-2.9-1.5-1 1.3-1.8Zm10.1 16.5 8.6.9-1.6 2.9 1 1.2 1.8-.7v1.6c.1 0-7.9-.9-7.9-.9l-3.2-3.2 1.1-2.5.3.5Z"/><path id="ES-Z" d="m307.1 57.3-.7 1.8 1.4.5-1.5 1.4.7 2.4-.9 1.2 1.2 1.4-1.2 1.5 1.3-.2-.4 3.2 2.9 1.8-3.3 6 .9.6.4-1.8 2 .7 1.1-5.5 1.3.9.2 3.1-1.1 9.9-1 .6-.3-1.8-2.6 4 3.4 2h3.9l4.5 5.2v4.6l4.6 1.8.4 2.2 3.7 2.7 1.3-1.2 1.6.5 3.4 9.8 1.3.5-.5-2.1 1.1 1.6 2.7.4 4.9-3.3 2.9.9 1.6 5.5-2.6 4.9-3.3 1.6.6 2.3-4.7-.3-1.1 1.4-2-3.5-12.2-6.1-2.4-3.1-2.8-.3-.5 1.4 2.3 3.5-3.1-3.6-.8.5v2.7c.1 0-1.3.5-1.3.5l1.9 1.9-2.7 3.4-2.2-2.4-.9 2.6h-2.3l-.8-1.7-2.4 3.1-1.3-.8.8-2.5-2.1.8-2.1-1.4-.5 1.4-4.3.5-1.1 3.1-2.1-.4v-1.3l-1.6.9-2.3 2.2 1 1.6-.8 1.2-4.6.2-11-9.7-3 1.1-3-1.6-.5-7.3 2-3.9 2.1.8.2 1.8 2.9-1-1.8-8.2h2.3l4.4-4.2-2.1-3.9 1.1-2.7-1.2-4.9.3-1.8 9.3 4 4.7-.2 3.4-5.3-3-3.6-.6-3.7.6-3.4 2.2-2.8-.4-3 2.2-2.5-.5-1.8.8-1.5 2 .3 1.6-4.3 3.2.2.8-2.5 4.1-1.9Z"/><path id="ES-ZA" d="m118.3 78.5 2.6 1.9 6.6 1.2 5.9-1.1 3.2 2.5 5.9-.4 2.4 1.5 1.8-1.4 1.7 2 5.7-1.3 2.6 3.9 2.1-2 1.2 4.9 1.5.7.5-2.7 1.5-.5 3.9 2.6-2.6 1.9 1.3.8-1.2 3.8 1.6.8-3.6 2.3 2 3.4v2.8l1.9.6-.7 1.1 2.1 2-3.7 2.1 1.7 8.9-1.6 3.2 1.7.5-1.3 2.8-2.3-1.2-.2-1.7-2.2.3h-.3l-5.5-2.9-3.5 1.3-4.3-1-1.8 4.2-.8-1.5-1.4.8.4-1.9-1.7-.9-2.3 1.3-5.9-3.4-5.2-1 3.2-2.6-.3-1.2h2.3l-.5-1.1 4.4-7.7-4.7-3.6-3.3-.5-1.7 1.2-1.6-1.2-.7-2.5 1.7-5.5-1.8-.5.8-2.4-1.2-1.2-3.7 1.4-3.6-2.5-.6 2.1h-3.6l-1.3-1.3.3-3.5-1.9-.8 4.7-6h3.2v-1.7Z"/></g></svg>