<svg xmlns="http://www.w3.org/2000/svg" xmlns:amcharts="http://amcharts.com/ammap" id="Layer_1" viewBox="0 0 512 512"><g id="_x3C_defs"><amcharts:ammap bottomLatitude="-5.631" leftLongitude="-5.789" projection="mercator" rightLongitude="-16.031" topLatitude="-15.904"/></g><g><path id="SH-HL-AF" d="m271.9 250.5-1.2-1.1-.5-1.1-.3-2.2-.8-2.1-3.7-6.3-1.2-2.3-.6-2.1-1-1.3-.7-.3-.4.2-2.8 3.6-1.7 1.4-1.2.3-.7-.6-2.3-12.6-.6-6-1.3-4.7-.7-9.9-2.5-8.4-.8-5.9.6-2 1.9-3.8 2.3-5.7 7-18.5 1.5-5 .9-5 .5-5.7v-17.5h4.6v1c-.1 0 1.4.4 1.4.4l.7 1 2 .8 1.5.9 7.5 5.9 3.9 2.6 3.1 3.1 4.7 5.7 2 2.9 1 1.8 1.2 4.2 2.5 11.3 1.6 5.2 2.5 6.2 2.8 4.8 2 5.4 1.3 5.6.2 2.5v2.2l-.6 3-1.4 3.5-2.2 3.6-2.5 3.3-5.5 6.4-1.7 14.7-.7 3.3-.5.4-2.2-.2-1.3.6-.8.7-.7.9-1.8 4.4-.5.7-.7.4-5.1.8-2.3.8-2 1.4-1.6 2.4-2 .2Z"/><path id="SH-HL-BH" d="m208.1 271.9 5.9 4.4 8.2 4.8 1.8 1.6.6 1.3.8 3.3.2 2.4v5.8c-.1 0-4.2 39.9-4.2 39.9l-1.1 7.6-.6 2.7-2.7 7.9-2.1 7.7-8.7 37.9-3 11.9h-.2v-.4l-1 .7h-.4l1.1-1 .2-.6h-.6c0-.1.2-.5.2-.5v-.5l-1.1-1-.5 1.3v-1.2h-.8l-.4.6h-.5l-.7.9v-.9h-1.1l-.8.5v.4l.5.9-.3.9-.9.3-.4-.3-.4.9-1.1.4-1.9.3-.9.5.2.6-.6 1.8-.7-.6v-.4l-.5.6.3.4v.6c-.1 0 .2.3.2.3v.4h-.4v-.3l-.7.4-.2-.2-.2 1h-.7c0-.1-.7.8-.7.8l-1.8.5.4 1.5h-.2l-.3-.1v-.3l-.3-.2-.4.2v.8l-.5.1v.2l-1.3-.2-.8.3-.4.6.5.5h.9l-.2.4-3-.2-.5.7-.9.2-.3-.5v-.5l-.3-.1-1.2.7-.4.7v1.8l-.4.4v.4l.5 1.7h-.2l-.5-.4-.6.7.2.7.6.2v.5l-.3.7h-.9l-.6.7-1.1.2-.2-.4h-1.1l-1.3.8v.3l1 .5.2.9-.3 1.6-.8.7-1 .4h-1.7c0 .1-1.1 1.1-1.1 1.1l-.8 1.1-.9.4h-1.1l-.2.7-1.8 1.2-1.3 1.7-1.8.7-1.9 1.9-2.2 1-1.7-.5-.6 1.1-1 1-2.9.6h-1.9l-.2 1.4-1.9 3.4-1.5.4-1-.7v-3.1l1.1-1.8-1.1-.7-2.1-3.7-1.5-.7-.4-1.8-.7-1.1h-2.6c0 .1-1.8-.1-1.8-.1l-.3-1.2.5-1.1-4.8-.3.2-2.1-4.9-1.4.5-2.5-.3-2.3-2.7-3.1-3.3-.8-1.8-1.8v-2l-1.4-2.1h-1.7c0-.1-2.5-2.8-2.5-2.8l-3.4-5.9.8-4.1-1.3-1.8-1.1-2.6v-2.8l1.5-1.8.5-2.4-1.9-3.4-1.9-1.1-1.4-.3-1.2-1.1-.4-1.2-.7-.9-.9-.5-1.3.6-.4.8-1.9.3-.4-2.1h-1.3c0-.1-1.8-1.7-1.8-1.7V383l-.3-1.3h-2.6l-1.7 1.4h-1.8c0 .1-1.9 0-1.9 0l-1.3-1-.7-1.7-1-.6-2 1.4-3.4.3-1.3-.5-1.9-4.1-1.4-2-1-2.3-1.8.6h-2.1c0 .1-1.2.9-1.2.9l-1.7.6v.9l-1.1.3-.4 1.3h-2.8v-.9h-1.1v.9l-3 .3-3.6-.3-.2-5.1-1.9-4.1-3.3-2.4-3.1.2-2.9-.3-1-1.4-2.3-.3-1.1-1.8-2.3-2.7-2-.6h-2.1c0 .1-1.4 1.5-1.4 1.5l-1 2.1H25l-.5-3.2-3-6.8-.8-.5h-.9l-1.2.3-1 1.5-.4 1-1.8.4-1.8-.6-.9-.6-1.2.6H7.2c0-.1-.3-3.2-.3-3.2l1.5-1.2.9 1.3 2-1.7.3-2.9-1.4-2.6 1.8-1.4 1-1.5 1.5-.2 1.3-2.5 3.3-.5 2-.6 1.5-2.8v-3.9c-.1 0 2.1-.4 2.1-.4l1.7-1.2 2.3-.9 1.9-3.1 5.3-11.3 10.9-5.7 1.7-.7 1.8-.2v-3c-.1 0-1.6-.9-1.6-.9l-.3-1.4-.6-.8v-1.3c.1 0 .6-.5.6-.5l1.2-.7.9-1.3 1.5-1.1.3-2.4 1-1.1.5-1-.6-.7h-.8l-.7.6-1.1-1.2.2-1.6.9-1.8 1.8-.7 1.4 1 1.5-.9.5-1.5-1.3-3.2 1.7-1.3h5.2c0-.1 3.7-1.8 3.7-1.8h.1c0-.1-.7-2.3-.7-2.3l-.3-2.1 1.2-.8 1.7-.2.3-2.9 2.4-.3.8.9 1.9-.7 1-.9.5-1.1 2.4-.7.8-1.5.9-.2-.7-5.8.5-2.8.8-3.2 4.8-.3.6-3.4-.5-4.6-2.5-4.3.8-3.4-.3-3.4.9-3.7 1.3-2.7 11.4-16.8 4.3-4-1-4.2 1.8-4 4.7-1.9.6-2.6 4.1-2.4 28.1-15 10.8-10.4 1.1.2.7-.2.6.2.2-.3.4.3h.5l.5.5-.3.3-.2-.3v.9c.1 0 .5.1.5.1v.3l1.2.3.4.6 1.7.7h.9l1.1.6 1.4-.2v.2c.1 0 .8 4.3.8 4.3l1.4 4.2v1l-1 2.1v1.2l.8 1.7 1.8 2.4 2.4 8.6-.6 4.4-.8 2.7-.9 1.8-2.3 3-1.1 2.5-.9 3.6-.5 4.8v3.1l.5 2.8 1.9 5.9 1.9 8.9 1.5 3.9 1.6 2.6 1.7 1.9 1.8 1.6 3.6 2.6 1.3 1.2 1.5 1.9 2.2 3.7 2.3 3 3.4 3.5 2.3 1.8 2.3.9 2.5.3 3.1-.4 3.9-1.2h2.5l2.4.9 3 2.6 1.5.7ZM58.9 264l.9 1 .9-.8 2.6.3 1.1 1 .2 1.3 1.2.4v1.4c.1 0-1.6.5-1.6.5l-2.4-.2-3.5-2.1-1.2-.4-.2-1 .7-.3v-1.3zm-5.5 14H51l.2-1.9 1-.5 1 .3.3 2.1Zm68.1 185.3h-1.7l-1.5-.9-1.1-1.5-.7-1.5V458l.9-.6 2.8.5 1.3 1.7.8 1.9-.6 1.8Z"/><path id="SH-HL-HT" d="M239.2 179.8v-.2l-7.3-.7h-4.4l-2.7.9-4.2 2.9h-.6l-.6-.4-.8-2-.5-3.1-.3-4v-7.9l-.7-3.5-3.5-8-5.8-10.5-1.3-3.9-3.2-5.9-.7-3.1h.3v-.3h.4l-.5-.5v-1c.1 0 .6-.2.6-.2l.7.8.4-.7 1 .4.2.4h.4v-.9l.9.2v-.4c.1 0 1.9-.9 1.9-.9v-.5l.7-.8.4-.8 1.4-1.3 1.8-.7.4.3.6-.6.9-.5.9-.4h1.1c0-.1 1.9-1.3 1.9-1.3l-.6-.2.8-.7 1.6-.7v-.5c-.1 0 .3-.2.3-.2l.4.2.4-.3v-1.1l.5-.5h.2v-.5l1.2-.6.7.2.5-.3.5.4v-.7c.1 0 .7.6.7.6l3.2 10.7 3.6 8.5 3 5.8 2.3 3.8 5.1 6.8.7 1.4.5 1.6.2 2.7-.3 4-1.5 9.9-2.2 8-1.5.9Z"/><path id="SH-HL-JM" d="m239.2 179.8 1.5-.9 2.2-8 1.5-9.9.3-4-.2-2.7-.5-1.6-.7-1.4-5.1-6.8-2.3-3.8-3-5.8-3.6-8.5-3.2-10.7.8.8 1.9-.4 2.8-2.2 1.3-1.6v-1.7l-.6-1.2v-1.7l.4-.3-.3-.3.2-.5-.4-.4v-2l.2-.7h1.2v-2c-.1 0-.9-.6-.9-.6l.4-.4v-.5h-.4v-.6c.1 0 1.6-.6 1.6-.6l1.1.4.9 1.8 1.2.4.9-.4-.6-.8.6-.7.7.9.6.3.9-1.5v-.4h-.2l.2-.4-.3-.2.3-.3v-.5l.5-.4-.2-.6.6-.3.9.2h.5c0-.1.2.4.2.4l.3-.3h.3l-.3 1.1h1.5l-.2.2.4.2v.2l.4-.2.6.5v.2l1.5.3 2.2.9 1.3-.5 2.2-2 1.7-5h-.3l-.1-.4.4-1.1v-1.1c.1 0-.2-.7-.2-.7l-.5-.2-.7-.8h-1c0-.1-.4-.6-.4-.6l.4-.2V87l-.6.2-.3-1.4 1.2-1v-.2c.1 0 0 0 0 0l.4-.6.2-.9.6-.9h.3c0-.1.2 0 .2 0l1.2-.7 10.8-10.4-.5-11.4 10.7-9.1 9.5-1.8 6.6.9-1.4 4-2.7 10.1-4.7 14-5.4 14.8-5.5 13.8-5.2 17-.9 1.9-.9.7h-4.5v17.5l-.5 5.7-.9 5-1.5 5-7 18.5-2.3 5.7-1.9 3.8-.6 2-5-4.7-1.3-1.7-1.5-2.9Z"/><path id="SH-HL-LV" d="m491.4 274.8.2.7-.9.6v.3c-.1 0 .1.6.1.6l-.2.8h-.3l-.5-.6-1.1 1.4h-.5c0 .1-.6-.7-.6-.7l-.5.2-.2.7h-.3v-.6l-.3.3h-.3l-.4-.4v-.6l-.6-.5h-.5c0 .1-.1.4-.1.4h-.9l-.1-.4-.3.3-1 .2v.4h.5v.3h-.5l-.6-.8v.3l-.6.5h-.4l.4-.6-.8-.6v-1.3l-.3.3v1.1c-.1 0-.6-.1-.6-.1l.3.7-.7.6-.3.7-.4.2h-.7l.5-.3v-.3l-1.2.5.2-.5-.2-.3v.3c-.1 0-1-.4-1-.4l-.8 1.2h-1.1l-1.9.7h-1.3v.4l-1.5-.2v-.8l-1.2-1-.4.5h-.5l-.3-.4-1.6-.2-.3.6-.3-.6-2-1-2.3 1.4-.5.7v.4l-.3-.4-.6.2-1.1-1.3-1.2-.2.2.4v.7l-.5-.1.2-.3-.4-.5h-.9l-1.1 1v.6l.3.3v1.3l.2.4-.4.7v.4h-.5l-1-.6-1.1 1.1-1.9-.6-.6.4v.8l-.7 1.2h-.6c0 .1-.5 0-.5 0l-.4-.6h-1.2c0-.1-.7.2-.7.2l-.5.8-.2 1.8 1.1.2.5 1.2.3.2v1.6l-.3.3h-.6c0 .1.1.4.1.4l.8.3h1.1l-.2.5h-.6v.4l.4.5v.6l.7.5-.4.4.8 1.2-.2.2.2.2-.2.2.3.3h.2l-.2 1h.3v.4l-.3.2.2.3h.5l-.5.2-.3 1.3v1.1l1 .3-.2.8-.2-.4-.9-.4v.3l.2.3h-.2v.3l-.2-.2-.3.2v.3h.1v.3l-1.1-.1-.3.8.2.4h-.4c0-.1-.9.3-.9.3l-.2-.2v1.2l.4.5v.8l-1.1.2v2c.1 0-.3.3-.3.3l.2.3-.7.6-.3.9-.7-.2-1.6.7v-1c.1 0-.6.3-.6.3h-.9l-.6.2-.5-.4v-.4l-.6.2-1.2 1.6v1.2l-.2.8-.2.4-.7-.3-.8 2h-.8c0 .1.1.4.1.4l-.2.3-2.1.2-1.2.4h-2.1c0 .1-.8.8-.8.8l-.9.2-.6.5v.5l-.6.9.2 1.3h-.7l-.1.4v.3l.6.1.2.9h-.2l-.4-.4-.4 1.1.2.3.6-.4v.8h-.3l-.4 1.5h-.2v-.7l-.3-.2-.5.3.2.6-.2.4.5.5-.4 1h-.7v.5l-1.5.6-.8.7-.4-.2-.2.4-1.2-.2-.8-.6v-.5l-1.4-.6-1 .2-1.7-.3-.6.5v.3c.1 0 1.1.4 1.1.4l.4.5-.5-.2v.2l-.8-.1v.4l-.7 1h-.8l-.4-.3v-.4l.3-.1-.7-.5.4-.2.4-1-1-.4h-.5l-.2-.3-.6-.2v-.5h-.5v.7c-.1 0-.6-.1-.6-.1l-.3.2.2-.4-.2-.6h-.3l-1.1.6-.9 1.3v-1.4c-.1 0-1.1-1.2-1.1-1.2h-.7c0-.1-1.7.6-1.7.6l.6 1.5-.7 1.2h-1l-1.2.9h-1.4l-2.9-.9-.4 1v1h.2l-.9.7-.2.5-.2 1.2.3.4-.7-.2v.4l.7.7v.4h.5l.6.4-1.7.3-.5.6v.5l-.3.2-2.2.4-.2-.4-.9.4h-.3c0-.1-.4-.9-.4-.9l-1.2-.6-.4-.6-2-1.4-.4.2-.5 1-.6.2v.4h-.1l-2.6-1.9-.9-1-1.9-1-2.3-1.6-9.9-2.1-7.2-2.1-15-5.4-3.8-1.7-2.6-1.5-2-1.5-1.4-1.5-1.4-2.1-3.5-6.5-1.4-1.7-2-1.6-6.5-4.3-17.7-6.4-2.8-1.2-1.4-1-2.9-3.5-2.4-4.5-.6-2.6.3-1.6.6-1.6-.7-.6.4-.2.4-1.1 1.2-1.5 4.7-4.5 2.2-1.4 2.1-.4 2.2-1 5.5-4.4 12.5-11.8 5-5.5 1.5-1.2 2.3-1.4 4.1-1.6 6.1-1.6 3.8-1.3 8.2-4 4.1-1.6 4.1-1.1 8.9-1.7 3.1-.8 2.1-1.1 3.7-2.7 1.3-.5 1.6.8 2.8 2 2.2 1.1 8.4 2.9 9.5 4.8 14.8 5.9 9.6 4.4 27.5 13.6 15.1 7 16.6 9 1 .4.4-.2.7.4Zm-.1 9h-.2v.6l-.4.2-.4-.3-.5-1.2-.2-2.4.2-.3 1 .3.4.3v.8l.6 1-.2.9Zm13.9 19.1v.2l-1-.1-.8-1.2-.7-.6-.5-1.3-.5-.4.3-1.4h.3l.9.8.8.4 1.4 1.4.3 1-.3 1.3Z"/><path id="SH-HL-LW" d="m491.4 274.8-.7-.4-.4.2-1-.4-16.6-9-15.1-7-27.5-13.6-9.6-4.4-14.8-5.9-9.5-4.8-8.4-2.9-2.2-1.1-2.8-2-1.6-.8-1.3.5-3.7 2.7-2.1 1.1-3.1.8-8.9 1.7-4.1 1.1-4.1 1.6-8.2 4-3.8 1.3-6.1 1.6-4.1 1.6-2.3 1.4-1.5 1.2-5 5.5-12.5 11.8-5.5 4.4-2.2 1-2.1.4-2.2 1.4-4.7 4.5-1.2 1.5-.4 1.1-.4.2-2.2-.5-17.6-7v-.3h-2.8 1c0-.1 2-14.5 2-14.5v-1.3l-.4-.9 2-.2 1.6-2.4 2-1.4 2.3-.8 5.1-.8.7-.4.5-.7 1.8-4.4.7-.9.8-.7 1.3-.6 2.2.2.5-.4.7-3.3 1.7-14.7 5.5-6.4 2.5-3.3 2.2-3.6 1.4-3.5.6-3v-2.2l-.2-2.5-1.3-5.6-2-5.4-2.8-4.8-2.5-6.2-1.6-5.2-2.5-11.3-1.2-4.2-1-1.8-2-2.9-4.7-5.7-3.1-3.1-3.9-2.6-7.5-5.9-1.5-.9-2-.8-.7-1-1.6-.4v-1h.1l.9-.7.9-1.9 5.2-17 5.5-13.8 5.4-14.8 4.7-14 2.7-10.1 1.4-4h3.4c0-.1 1 .5 1 .5l1.2 3 .4 1.4v.3c-.1 0 .5.9.5.9l-.2 1.1.6 1.7 1.2 1.6v.7l-.3.7v1.1c-.1 0 .5.7.5.7l.5.2.3.9.4.3h.7l.3 1.1.9.3 1.5 1.8h1.1l-.4-1.5.3-.2v-.5l-.2-1 1.4 1.7.8.2 1.5 1.7.7 1.9.9.3.4.7h1.1l.6-.2.3.6-.2.5 1.6.6.7 1.5h2l1.7.7 1.7.2 1.2-.4h1.3l1.2.8 1.1 1.9 1.3 1.2 1.2.2.7.9 2.2.9 2.8.3 2.7-.6v-.5c.1 0 0-.8 0-.8h.5v-.5l.9 1 .7 1.4h1.6l.2-.5v-1.8l.4-.8.7 2 .5.3.4-.2 1.4-2.6.4-1.3.2-.3 1-.4-.3 1.7.7.4.4-.3-.5 1.4.5.2.3-.8.3 1 1.5.4.2-1 .3 1.1.6-1.2h.3l-.2 1.3.3.9h.2l.5-1.5v-1.2l.5 1.1v.6c-.1 0 .2-.3.2-.3l.2 1 .7.5h.4l.2-.5.4.2v.6l.7-1.3 1.1.5.6.7h.4c0-.1.4-1 .4-1l.6-.5 4.6 2-4.3 14.3 3.1 5.5 8-.9 4.2-13.1 9.6-6.5 7.7-3.1 4.1-5.1 13.5-3.4 5.2 3.7 11.5 1.2 3.7 9.9 8.5 8.2v2.3l.9 1.9 1.3.2 1.4 1.2.8 1.1v.5l.2.3h.4l.1 1.5.5.3v.2l-.7.6h-.3l-.4.4-1.7.2-.9.5-.2.3h-.9l-.4.6-2.2 1.3h-.4l-1.2 1.9v.6c.1 0-1.4 2.8-1.4 2.8v.9l.1.4v.9l.2 2.2.8 2.8.7.7v-.3h.9l1-.5-.4.9h-.8v.4l.2.4h.3v1.1l.4.2.3.7h.4v.4l.9 1.2 1.2.6v-.5h.3l.3.4h.4l-.1.7.7.5-.6.5v.4l2.6.2 1.1.4-.7.9h1.3l.1-.2h.3v.6h.8v.3h.2c0 .1.4-.5.4-.5l1.6.6-.5.2-.2.4-1.4.5-.4.5.3.2-.5.6.4.4v-.4h.4l.4.2v.2h.5v1.1l.7.4v.3c.1 0 .6.2.6.2l-.8.6.8.2v.4l-.3.3h1c0 .1.4.9.4.9v.5l-.4.2v.4l-.6.4.3.3-.2.4-.3.2h-.7c0-.1-.8.6-.8.6l-.2-.4v.3c-.1 0-.9.5-.9.5v.6h-.3v.3l.6.4v.7l-1-.4-.2.2.3.3v1.1l-.4.2-1.2-.2-.3.3-.2.3.3.2-.2.3h.7l.2.2-.8.3-.3.5.6.5.7.2-.5.3v.9l-.3-.4-.4.3-.5-.2-.5 1.2.2 1.7-.3.5-.4-.2-.3.4.7.5h-.7v.5l.4.7.3.2h.9c0-.1-.2.1-.2.1l.3.5h.7v1.3h-.5l-.3.3.4 1.1 1.7 1.8h.4l-.1.3 1 .4.2 1.1.6 1.1.4.4.5-.4.9 1.4.7.5-.2.3.2.3v.7l1.4 1.2v.9h.6v1c.1 0 .4.5.4.5l.5.6 1.1.6.6-.3.8.3.6-.4h.6l.3.4h.5v.6l.3.6.7.5 1.7.7h1.8l.7-.3.4-.8h.5l.3-1.1h.5v-.6l.6.5h.9l.7.3.5-.4.5.2.4.6h.3l-.2-1 1.1-.3v-.3c.1 0 1-.1 1-.1l1 .2 1.4-.4.3.6 1.2.9-.3.3.7.4.8 2.4.4.2v1.9c-.1 0-.5-.3-.5-.3h-.2c0 .1.5.6.5.6l.3 1h.5c0 .1 1.4 1.6 1.4 1.6h.2l.5.9-.3.7.4.7-.6.3h-1.1c0-.1-.5-.5-.5-.5v.2c-.1 0-.5-.3-.5-.3l-.5.3v.3l.7.4v.9c.1 0 .5.4.5.4h-.5v.5l1.9.6 1.2 1.5-.2.6h-1l.3.9h-.3c0 .1-.4-.1-.4-.1v.6l.2.6h.3c0-.1.2.2.2.2l-.2.3h-.6c0 .1-.3.7-.3.7l1.4-.6 1.1 1 .4.2h.3c0-.1.6 1 .6 1l1 .3v.3c.1 0 .7.3.7.3v-.3h.8v.2c.1 0-.3.2-.3.2v.3l.3.2.4 1.2-.3.3v.6h-.3v.7c-.1 0 .3.2.3.2h.5c0 .1.9-.4.9-.4h.7c0 .1.5 0 .5 0v-.6l.9.9.5-.3 1 .6.2-.2h.4v-.3h.8l.2.2.3-.9.8.6 1.2-.2v.5l1.1.2-.4.5h.3l.3.3-.8.3.3.5-.2.2.2.2.4-.2.4.4 1.3.5v-.2l.8.5v.2l.5.8-.9.5.3.3v.3l-.2-.1-.4.4 1 .9.7.2v-.3h.2l.2.4.5 2-.4 1.5-1.1 1-.7 1-1.3.2v.2c.1 0-.8.2-.8.2l-.2 1h-.9c0-.1-.7-.6-.7-.6l-.4-.7-.7.8-.8.5v1.3l1.3 1.8-.4.3-.3-.3-.3.3h-1.1l-.5-.3-.4-.8h-.4l-1.2-.6h-.4l-1.1-.6h-1.4c0 .1.2 1.3.2 1.3l-.7-.5.6 1.8-1-.2v.4l.9 1v.4l-1.2-.9-.2.2.4.6-.2.5.3.2.2 1 1.1 1.3v.4c.1 0 0 .2 0 .2l1.1.7-.5 1.2-.6.3-1-.3-.7.2 1 .7.6 1.7-.4.6-1.2-.3-.6.3-.5-.3h-.3v.4l.8.6-.4.2.4.9-.3.6.5.3-1.9 1v.5l-1.2.1v.7l.5-.1.5.3-.5.6-.4-.2-.2.2.2.3v.5l-.7.7.5.8-1 .9v1.1c.1 0 .6.8.6.8h.5v.5l1.4 1.1.9.2.8.8v.5l-.6.5.2 3.9h-.3c0 .1-.1.7-.1.7l-.3.2.8 1v.4l.4.2.2-.5.4.6v.5l-.5.3v1.3c-.1 0-.4.4-.4.4h-.2c0-.1-.5.3-.5.3l-.7-1.1-.9 1.1-.8.2-.2.6 1 2.8.7 1.1v1c.1 0 .5-.1.5-.1v.3c.1 0 0 .4 0 .4l.6 1.6h.3v2.1l-.3.3v.4l1.8 2.3.9 2.4.2.2.3-.3.8.4v1c.1 0 1.2 1.3 1.2 1.3l1.2.9 1.2.6.3.8v1.3l.2.6 2.3 2.8.5 2 1 1.2-.2.5-.6.3v.5c.1 0 .6.3.6.3l.2.9-.4.3Z"/><path id="SH-HL-SB" d="m293.4 372.6-.8-.6-.8-.2-1.6.6-.4.7h-.4l-1.5 1.5-.4-.6h-.9l-.6-1.5-.7-.6-.6-1.4-1.1-1.1-1.8-.4-.3.3v.6l-1.4 1v2.1c.1 0-.2.8-.2.8l-.4.2h-1.9c0 .1-.4.6-.4.6h-1.3l-.5-.3v-.2h-.3l-.2.3-.4-.3.3-.3v-.3h-.4v-.3c-.1 0 .4-.8.4-.8l.8-.5h-1.9c0 .1-.4-.2-.4-.2l-.3.5-1.3.5.2 1.1-.9-1-1.4.7-.2-.5-.8.3-.4-.4v-.3l-2.6-1.5v.3l.7.5-.7.8-.8.4-2.1-.6h-1.5l-.5.3-.3-.3-.6.6v.5c-.1 0-1 .5-1 .5l.3.5-.5.2-.3.5-.6-.3h-1.2l-.4-.2v.8c.1 0 0 .3 0 .3h-.4v.6l-.7-.3-.3-.7-.5-.4-.7-1.8-1-1.2h-.6v-.3h-.5l-.3.8.2.4h.4l.2.4v.9c.1 0-.2.2-.2.2l.5 2.4-.2.4-1.2-.3v.2c-.1 0-.2.3-.2.3l.5.8-.4.3v1.5h-.2l-.2-.7h-.4l-.6.7-.7.4v-.3h-.5l-2-1.6-.2-.7.3-1-1.3-.6h-1.3l-.3.3-1.6 2.2.2 1.4.7.8-.7.2v1.1l.2.2-.4.2.4 1.2h1.2l1.3.9h.3v.5l.6.6-.5 1v.5l2.2-.7.3-.4h.8c0 .1.4.7.4.7l.3-.3.5.2v.6l-1.4 1.4-1.2.8-.3-.2-.5.2-.8.6v.5l-.7.7.6-.2v.4l-1.1.5v.2c-.1 0 .6-.3.6-.3l-.4 1v.5l-.5.2-.2.5h-.7c0 .1-.7.7-.7.7H239c0 .1-2.9 1.4-2.9 1.4l-.2-1.5.2-.3-.3-.4.4-1.1v-.4c-.1 0-1.1-.1-1.1-.1h-.3c0 .1-.2.8-.2.8l-1.3.9h-.2l-.3-.4h-.7l-1.5.3-.5 1.4-.8.8h-.5l-.2.5-.6.2-.7-.2-.4-1.8-1-1.5-1.7-1.1v.9c.1 0-.4.8-.4.8v1.6l-1 1.4v1.4l-.4 1.3-.9.5h-.2l-.1-.7-1.1.5-1.1.9v.8c.1 0 .6-.2.6-.2l.4.3v.5l-.3.2.2.8-.3.4.3.6-.4.3.3.3-.5.4-.3.7.3.5h-.5l-.2.5h-.6l-.6-.5-.7.3-.8-.9-1 1.5-.6-1.2-.5 1.2v1.1c.1 0-.2.4-.2.4l-1.6-1.2-.7.3-.6-.2-.9.4-.5-.6v-.4c-.1 0-2.7 3-2.7 3l-.4.2v1.9c-.1 0-.4-.9-.4-.9l-1.2 1v-.7h-.7l3-11.9 8.7-37.9 2.1-7.7 2.7-7.9.6-2.7 1.1-7.6 4.1-39.9v-5.8c.1 0 0-2.4 0-2.4l-.8-3.3-.6-1.3-1.8-1.6-8.2-4.8-5.9-4.4.3-1.6 4-1.4 3.7-.7h3.9l3.7.7 2.9 1 2.6 1.4 3.5 2.6 1.2.5h1c0 .1 1-.2 1-.2l.9-.7 2.1-3 1.1-1.2 1.2-.7 1.5-.5 4.5-.4h16.7c0-.1 5.5-.6 5.5-.6h2.8v.3l17.6 7 2.2.5.7.6-.6 1.6-.3 1.6.6 2.6 2.4 4.5 2.9 3.5 1.4 1 2.8 1.2 17.7 6.4 6.5 4.3 2 1.6 1.4 1.7 3.5 6.5 1.4 2.1 1.4 1.5 2 1.5 2.6 1.5 3.8 1.7 15 5.4 7.2 2.1 9.9 2.1 2.3 1.6 1.9 1 .9 1 2.6 1.9h-.4l-.3.5-.2-.4-1.1-.6-.5.6-.8-.2-1.3.2-.3.8.9.4v.3l-.5.5-1.6.2v.3l-1.6.9-.4.5.8.5.4.8 1 .7v.6l.3.3.3.7-.7-.2v.4l.5.3v.8l4.1-.1.4 3-.9-.2-.9.8v1.5l.5.9-.3.6-1.2-.2-.3.7-.8.5-.9 2.1h-.5v.8h-.3l-.2.5-1.4-.3v1.2c.1 0-.8.2-.8.2v.5l-.8.7v.4l.7 1-.5.4h.6l1.7.8h.7l.3.7v1.3h-.5v.4c.1 0-.2.7-.2.7l.4.5v.8l-1.2 1.1-.8.2h-2.3l-.2.3h-.9l-1 .4-.5.4.2.4-.5 1.1v1.1h.2l-.3.6-1.3 1.2-1.2-.7-1.3-.2-.3-.7h-.7l-.2-.3v-.3c-.1 0 0-.3 0-.3l-.9-.5-.3-.4-.3-1.9-.2-.2v-.7l-.5-.8.2-.2v-1.7c.1 0-1.7-1.8-1.7-1.8l-1.6.6-.5.5-.4 1.6-.7-.2-.2-.4-.6-.2-1.1-.8h-1v.4l-.7 1v2.3l.4-.1.2 1.5-.4.9-.6.6v.7c-.1 0-1.3 1.1-1.3 1.1l.2-.4-1-1.6-1.7-1.8-.2.2h-2.8l-1-.2-.5.4v.5c-.1 0 .2.5.2.5l-.2.7-.8.2-.9-.5-1 .3-.3 1.1-1.3-.5h-.7l.2.9-.3.2-.7-.8-.6.2.3.4v1.6c-.1 0-.6.4-.6.4h-.4l-.6-1h-.4v.5l-.3.2-.7-.3.3-.4h-.3c0-.1-.6 0-.6 0l-.2-.4h-.8l-.8-.8-.2-.7-2-2.5-.5-1.1-1.1-.8h-.8l-.5.6-.3 1 .3.8 1 .6.8.9v.9l-.2.1v.5l-.5.3.6.5v2.7l.5.7v.5h.2v.3c.1 0 0 .4 0 .4l-.9.2h-.9v.5l.6.5-.3 2.3-.4.6.3.2-.2.5-.7.4-.7 1v1.1l-.2.2.3 2v.8c-.1 0-.9.8-.9.8l-1-.3-1-.7-.4-.9-1.6-1.2-2.9-.2-.7.6h-.4v.4h-.5c0-.1-.3.1-.3.1v.2c.1 0-.8.7-.8.7l-1.1-1-.4-1h-.5l-.4-.9-1.8-2.5-1.9-1.5-1.2-.5h-.8c0-.1-.6.6-.6.6l-1.9-.2H307c0 .1-.8 1.1-.8 1.1l-1.1.3-1.7.2-1.6-.3-.5-.5-.3-1-1.2-1.7-.3-1.2-1.2-1.2h-.9l-1 1-1.4-2.1-.7-.2Z"/><path id="SH-HL-SP" d="m271.9 250.5.3.9v1.3l-1.9 14.4h-1c0 .1-5.5.6-5.5.6h-16.7c0 .1-4.5.6-4.5.6l-1.5.5-1.2.7-1.1 1.2-2.1 3-.9.7-1 .3h-1c0-.1-1.2-.6-1.2-.6l-3.5-2.6-2.6-1.4-2.9-1-3.7-.7H216l-3.7.6-4 1.4-.3 1.6-1.5-.7-3-2.6-2.4-.9h-2.5l-3.9 1.2-3.1.4-2.5-.3-2.3-.9-2.3-1.8-3.4-3.5-2.3-3-2.2-3.7-1.5-1.9-1.3-1.2-3.6-2.6-1.8-1.6-1.7-1.9-1.6-2.6-1.5-3.9-1.9-8.9-1.9-5.9-.4-2.8v-3.1l.4-4.8.9-3.6 1.1-2.5 2.3-3 .9-1.8.8-2.7.6-4.4-2.4-8.6-1.8-2.4-.8-1.7v-1.2l.9-2.1v-1l-1.3-4.2-.7-4.3v-.2c-.1 0-1.5.2-1.5.2l-1.1-.7.9-.3.8-1v-.8l1-1 .6-.5 1.2-.5v-.8l1.6-.5v-.4l-.8-1.8v-.6l.9.5.5.5v.3l1.1.3.4-.5 2.1-.3 1-.6v-.3l.6-1.3.2-1.6.6-.6.7-1.4.4-.3-.5-.5.2-.3h.4l1.1-1.8-.3-.7.2-.5.6-.4v-.4h-.5l.6-.8.4.4.7-.2.2.6h1.2v-.8l1.2.5v.2l.6-.5h1l1.1-.6h.7l1-.8-.4-.8v-.5l.4-.4.8-.4v-.6h.4v-.4c.1 0 1.7-.4 1.7-.4l.5-.5-.2-.7 1.3-2-.2-.3.5-1.5h.3l.5-.5-.2-.4.4-.2v-.5l.4-.3v.2l.3-.1.2-.5 1-.7h.4c0 .1.9-.3.9-.3v-.5l.9-.8h.3l-.2-.7.7-.7h.9c0-.1.5-.5.5-.5l-.2-.3v-.4h.4v-.5c.1 0 .5-.2.5-.2h.2c0 .1.4-.8.4-.8h.3l.2-1.6.4-.2.3.3.3-.6-.3-.7 1.2-.4 1.2 1.2.7-.3.5-.5v-.5l.2-.4 1.6 1h.9l.7 3 3.2 5.9 1.3 3.9 5.8 10.5 3.5 8 .7 3.5v7.9l.3 4 .5 3.1.8 2 .6.5h.6l4.2-2.9 2.7-.9h4.4l7.2.7v.2l1.5 2.9 1.3 1.7 5 4.7.8 5.9 2.5 8.4.7 9.9 1.3 4.7.6 6 2.3 12.6.7.6 1.2-.3 1.7-1.4 2.8-3.6.4-.2.7.3 1 1.3.6 2.1 1.2 2.3 3.7 6.3.8 2.1.3 2.2.5 1.1 1.2 1.1Z"/></g></svg>