<svg xmlns="http://www.w3.org/2000/svg" xmlns:amcharts="http://amcharts.com/ammap" id="Layer_1" viewBox="0 0 512 512"><g id="_x3C_defs"><amcharts:ammap bottomLatitude="-62.539" leftLongitude="-62.864" projection="mercator" rightLongitude="-62.539" topLatitude="17.418"/></g><g><path id="KN-01" d="m198.7 72.7-2.8 6.9-14.4 13.7-.4 7.7-10.6 11 1.7 23.8-11.2-1.6-28.2-10.9-2.6-7-8.8-10.3L146 75.7l2.4-11.7 15.2-12.3 12.5 11.4 4-1.3 1.2 3.8 4.9 2.5 4.9-.8 4 6.3 3.6-.8Z"/><path id="KN-02" d="M98.1 80.6 81.9 94.2h-7.8l-12.5 14.4-8.1 5.9-2.5 6.2-7.9-4.6v-9.3l-7.7-12.2-15.8-11.8V56.7l2.8-5.2 16.2 7.9 2.3-7.1 5.1.8.4 10.1 9 .8 9 6.6L97.5 79l.5 1.5Z"/><path id="KN-03" d="m322.5 322.4-6.5-5.9 2.4-4.6-3.2-6.3.8-4.6-4.9-.8-2-2.9v-3.8l8.5-6.3 2.8-5.9-4-10.9 4.4-5.9-4.4-8.8-.4-6.7-8.9-11.8-17-10.1h-7.3l-4.9-3.8-2.4-5-19.8-1.3-4.9-3.4-3.2-5.5-4.4 3.4 2.8-5-3.2-1.7 2-4.6-2.4-1.3-13.3-.8.4 4.2-3.2.8-4.9-.8-2.4-2.9-4 .4-6.9 8.4-2.4-4.2-8.1 2.1-3.6-1.3v-3.4l-3-.4-.2-8.4-9.6-21.9 4.6-7.5-3.1-2.5-3.7-10.1 7.3 3.2 1.5 7.2 3.9 3.5 6.8-.8 3.2 4.7 4.8-2.4 15.4 1.5 1.1 6.8 15.1 1.3v3.5c.1 0 5.3 4.8 5.3 4.8l2.9 7.2 7.7-3.2 8.5 6.5 3.5 5.8 10.1 1.6 2.8-3.6 4.1-.9.4 14.1 4 3 1.6-2.5 2 .4 6.5 10.9 8.9 5.9 5.7.8 2 3.8 5.3 1.3 3.2 5.1-.4 4.6 3.2 2.5 4-2.1 5.3 7.6h4l3.6 6.7.4 5.9 4.9.8 4.8-9.7 5.3 5.5 10.5 2.9-1.6 3.4 2.4.8 4.9 10.1-3.6 5.5-8.1 5.1.8 4.2 1.6-.8 2.4 2.9-2 5.5h-6.1l-1.6-5-2.8-.8-4 2.1-.8 2.9-3.6.8-2.4 7.2-5.7-8h-4l-2.8 4.6h-2.8l.8 13.9-6.5 3.4Z"/><path id="KN-04" d="m492 429.3-.4 4.6-2.8 1.3 2.8 12.6-3.2-.8-.4 3.4-3.6 2.9v6.3l-4 7.6.8 3.8-8.5 13.5-5.7.8-4.4-3.8-5.7.4-6.1 4.2-13.6 2.1-9-76.9 27.7 2.4 7 4.4 12 1.2 5.9 5.5h5.4c0 .1 5.8 4.4 5.8 4.4Z"/><path id="KN-05" d="m383.6 345.5 4.4-5.5-2.4-4.6 3.6-.4 2.8-3.4 12.1 2.1 13.3-5 2.4 2.5 13.8-2.1 6.9 3.4 5.7 8.4 3.6 2.1 1.2 4.2 18.6 1.7-.4 5.5 12.1 11.4 3.6 7.2v17.7l4 11.8-1.2 8.8.8 6.7 3.6 5-.4 6.3-5.8-4.3h-5.4c0-.1-5.9-5.7-5.9-5.7l-12-1.2-7-4.4-27.7-2.4v-.2l-24.7-42.9-19.9-22.6Z"/><path id="KN-06" d="M163.6 51.7 148.4 64 146 75.7 121.4 106 98.1 80.6l-.5-1.5-3.1-6-6.1-.7-10.9-10.9L87.1 34l19.1-14.7 2.4 6.3 2.8 1.7 10.1-4.6 4 4.6 2-1.7.8 2.5 10.1 3.8 3.2-1.3 14.6 16.8 7.3 4.2Z"/><path id="KN-07" d="M437.2 488.1 433 491l-5.3-.4-2 2.9-2.8-.4-3.6 5.5-9.7.4-3.2 2.5-6.5.4-10.1-4.2-4-6.7-8.1-8h-2.4l-.4-2.5-7.7-.4 3.6-2.9.4-5.5-6.9-9.2-3.2-10.1-4.9-4.2-.8-6.3 4-.4h15.2l18.4-6 10.1-.9 25.1-23.3 9 76.9Z"/><path id="KN-08" d="m245.7 128.2-17.4 6.7-10.1-2.1-17 .2-9.8-2.8-12.2 8.6-7.1-3-1.7-23.8 10.6-11 .4-7.7 14.4-13.7 2.8-6.9 2.1-.8.4 6.7 2 2.1 4-.4 4 7.2 8.9 6.7 4 8.8 2.8-.8v5.1l2.8 5.1 15.8 15.9Z"/><path id="KN-09" d="m97.7 79-33.1-8.4-9-6.6-9-.8-.4-10.1-5.1-.8-2.3 7.1-16.2-7.9 1.2-2.8 2.8-.4v-5.5l6.1-1.7 4-3.8 4-9.3 6.5-1.7 2-5.9 3.6 1.3 6.9-4.6 9.3 2.5 8.1-2.9 2-4.6L88 10l2.8 2.1 7.7-1.7 7.7 8.8-19.1 14.7-9.6 27.5 10.9 10.9 6.1.7 3.1 6Z"/><path id="KN-10" d="m359.3 441.5 1.2-16.2 31.1 2.8 9.7-2.4 26.8-14.6v.2L403 434.6l-10.1.9-18.4 6z"/><path id="KN-11" d="m245.7 128.2 2.4 4.7 6.1 2.9-.4 4.2 6.1 16.4 12.5 12.2-2 11.8 4 4.2 7.7.8-2 6.3 2.4 1.3.4 4-4.1.9-2.8 3.6-10.1-1.6-3.5-5.8-8.5-6.5-7.7 3.2-2.9-7.2-5.2-4.8v-3.5c-.1 0-15.3-1.3-15.3-1.3l-1.1-6.8-15.4-1.5-4.8 2.4-3.2-4.7-6.8.8-3.9-3.5-1.5-7.2-7.3-3.2.3-11.5 12.2-8.6 9.8 2.8 17-.2 10.1 2.1 17.4-6.7Z"/><path id="KN-12" d="m428.2 411.1-26.8 14.6-9.7 2.4-31.1-2.8 2.8-6.1-2.4-14.3 2-21 6.1-13 6.9-7.6-.4-2.9 2.4-2.9-1.2-3.8 6.9-8 19.9 22.6 24.7 42.9Z"/><path id="KN-13" d="m161 134.2-12.9 14-13.3 6.2-6 11.7-7.6 6.7-1.6-7.5-5.3-5.1-38.8-16.8-17-13.9-3.6-7.2-3.8-1.7 2.5-6.2 8.1-5.9 12.5-14.4H82l16.2-13.6 23.3 25.4 8.8 10.3 2.6 7 28.2 10.9Z"/><path id="KN-15" d="m161 134.2 11.2 1.6 7.1 3-.3 11.5 3.7 10.1 3.1 2.5-4.6 7.5 9.6 21.9.2 8.4-20.1.4-4.4-3.4-6.9 1.3-5.7-3.8-4.4 1.3-1.2-5.5-4.4-2.5-6.5-1.3-3.6-2.9-4.9 1.3-2.4-7.2-5.3-5.6 7.6-6.7 6-11.7 13.3-6.2z"/></g></svg>