<?xml version="1.0" encoding="UTF-8"?>
<svg id="Layer_1" xmlns="http://www.w3.org/2000/svg" xmlns:amcharts="http://amcharts.com/ammap" version="1.1" viewBox="0 0 512 512">
  <!-- Generator: Adobe Illustrator 29.1.0, SVG Export Plug-In . SVG Version: 2.1.0 Build 142)  -->
  <g id="_x3C_defs">
    <amcharts:ammap bottomLatitude="13.707051" leftLongitude="-61.080172" projection="mercator" rightLongitude="-60.869822" topLatitude="14.110449"/>
  </g>
  <g>
    <path id="LC-01" d="M238.5,297.1l-9.7,9.2-9.5,14.8-4.8,2.8-5.5-.2-7.5-13.9-6.2-7.5,1.6-11.9-6.6-7.2h0l2-7.1,6.7-3.8,4.6-5.4-.4-5.8-3.6-5-.8-11.6-7.5-13.3-13.4-3-9.4-9.3h0l4-1.7v-1.7l-3-1.7,3-5.5,4.7-3.8,1-7.6,5.1-2.1,2-2.8h0l6,4.3,6.7-.5,17.2,6.6,13.3,1,8.6,5.3.3,11.6-1.9,11.6,9.9,10.8-5.5,32,.8,5.3,4.9,5.6-.2,3.7-6.7,7.6Z"/>
    <path id="LC-02" d="M238.5,297.1l6.7-7.6.2-3.7-4.9-5.6-.8-5.3,5.5-32-9.9-10.8,1.9-11.6-.3-11.6-8.6-5.3-13.3-1-17.2-6.6-6.7.5-6-4.3h0l1.7-1-1-2.8,2.7-4.5,5.7,1.7-5.4-5.5,4.1-13.9-.7-6.9,2.7-.3,3.7,2.4,7.1-2.1v5.2l5.1-1.4.7-1.7-1-3.8-3.7.3-1.4-4.5.7-3.8,2-1-2.7-11.1,2.4-1.4-1.4-2.8,2.4-3.8,2.4,1.7,3.7-.7,1.7-9.3,2,2.1h3.7s1.7,4.5,1.7,4.5l4.7,1.7,7.4-3.1v-1.4l-2.4-.3-4.1,1-2-3.8-5.1-.3-.7-4.8-4.1-1.4,1-3.1,5.1-1.4,3.7,1,2.7,4.2,7.4-1,9.8-5.5,2-6.2h3.4l4.7-4.8,1-3.6h0l14.9,13.5,3.9,12.2,2.3,2.5,20.3,4,12.9,20.5-2.5,9.7-14.3,8.2-1.8,6.2-6.2,4-.4,4.5,5.5,10.7h0l.7,10.1-1.5,5.8-13.3,16.8-3.4,9-.8,21.5-14.8,16.3,3.9,13.7-4.1,12.4h0l-2.2,7.1-11.5,4.8h0l-6.1-4.6-1.9-6.3Z"/>
    <path id="LC-03" d="M222.4,347.4l-3.9,6.8-4.8,16.3-6.3,9.6-1.9,10-10.8,13.6-1.6,11.3-4,6.2-2,9.1-6,7.6-3.1,1.3h0l-10.5-7-4.4-6.6.7-2.8-4.7-6.2-3,.3-3.7-6.2-9.8-5.9-1.7-2.8,2.4-9-1.8-2.9h0l5.7-3,6-9.3,6.2-3.2h4.6c0-.1,8.1-6.7,8.1-6.7l18.3-3.3,30.4-25.5,6.3-2h0l-4.6,10.1Z"/>
    <path id="LC-05" d="M374.5,186.7l.7,3.6,2.4.7,2-1.7,1.4,1.4v1.4h-2l-.3,3.1-3.4.7-.7,2.8,7.4-1,2,3.1-5.4,1-1,3.5,2.7,3.5-1.4,2.1-4.4.7-.7,2.1.3,1.4h4.4l-1,10-3.4,6.6-5.4,2.1-6.1-1-.3,2.1h-2.4l.7,6.9,4.7,4.9h2.7s1.7,3.8,1.7,3.8l-7.8,3.5-2.4,3.5v2.1l3,.7.7,2.4,3.7.7v3.8l5.4.7,1.4,8.7-4.1,2.1,2,4.2-5.1,1.4,2,5.5h-4.1s.3,1.7.3,1.7l3.7.7-.3,2.4-6.1-1.7v-2.1l-8.5,1.7-.3,2.8,3.7.3v2.1l-6.8,2.4,2,4.5h0l-3.4,3.5-8.2,3.1-16.9-3.7-4.9-3.6-3.7-.6-7.2-6.4-8.2-3.4-7.3-9.3-32.5,12.2h0l4.1-12.4-3.9-13.7,14.8-16.3.8-21.5,3.4-9,13.3-16.8,1.5-5.8-.7-10.1h0l10.8-10.4,5-2.1,5,6.8,8.8-6.2,10.9,3.3,6,5.1,10.8-5.4,4.8-.6,18.9,5.6Z"/>
    <path id="LC-06_Gros" d="M374.5,186.7l-18.9-5.6-4.8.6-10.8,5.4-6-5.1-10.9-3.3-8.8,6.2-5-6.8-5,2.1-10.8,10.4h0l-5.5-10.7.4-4.5,6.2-4,1.8-6.2,14.3-8.2,2.5-9.7-12.9-20.5-20.3-4-2.3-2.5-3.9-12.2-14.9-13.5h0l-.3-12.7-3-5.5,1.4-5.5-3.4-1.4v-3.8l2.7-.3-1-8,2.7-.3.7,2.4,2.4-2.4,4.4.3,1.7-3.5,3.4-1.7,6.8,1.4,4.4-8-1.7-12.5-7.4-5.5-6.8,2.4-1-2.4,1.4-3.8,14.9,3.1.3-4.8,4.4-.3-.7-3.5,4.4-3.8-.3-6.2,3-1,.3-2.4,5.1,3.8,8.8-1.4,4.4,1,1.4,3.8,1.4-2.1,3.7-.7,3,1.7.3,2.1,3.7-.3,2,3.8-1.7,2.1.3,5.2,1.7.3.3,3.1-1.7,1.4h-10.8l-1.4,4.2,1,2.4h6.1s2.4,4.8,2.4,4.8l-1.4,2.1,4.4,4.2,3-.7,3-3.8,3,.7-3,4.5,4.7.3,1.4,3.1-5.1.3,2,6.6-3,2.8,1.7,1.7-1,4.5,1.4.3,1-3.1,4.4-1.4.3-1.7,3,1,4.1-2.8,5.4,2.1.3,2.4,5.1,2.4,3.4,5.9,7.1,6.2-3.7,4.2-2,11.8-10.5-.7,7.1,4.8-.3,2.8-6.4,3.5,10.8,1.7.3,8.3-2.7,5.2,5.4.7v4.2l1.4.3-4.1,10.4,4.4,11.8,2,1v4.2l7.8,4.5,1,8.7-1.7,2.8,1.7,4.2,1.7.3v2.8l-2.4,1,2.4,3.8-4.7,4.2-.7,2.7Z"/>
    <path id="LC-07" d="M249.4,472.4l-7.1,1-4.1-1.4-1-4.2-4.1-1.7.3-5.9-4.1-2.4,1-3.8-1.7-1.7-9.5-.7-1.4,3.5-4.4-3.1-7.8,1.7-1-3.1-9.5.3-1.4-1.7-8.1-2.1-2-3.1-3.4,1-2.4-5.8h0l3.1-1.3,6-7.6,2-9.1,4-6.2,1.6-11.3,10.8-13.6,1.9-10,6.3-9.6,4.8-16.3,3.9-6.8h0l6.5,2.7-2.8,10.4,1.7,8.2,5.3,5.1-.7,12,11,14.1,5.1,12-1.3,40.4-2.5,8.2,1.4,3.7,4.2,2.9-.9,5.2Z"/>
    <path id="LC-08" d="M352.5,304.2l18.3-2.4.7,2.4h-4.7l-.3,2.8-2.4,1.4,2.4.7-1,4.8h2.7l1-2.4,3.7-1.4h3.7l-3.7,7.6-5.7,1.7-4.1-1.4,2.4,2.4-.3,2.4,2-1.4,4.4.7-.3,2.4-5.4,1.7,1.7,4.2-2.4,1.4v3.1l4.1,1v2.4l-.3,1.7-3.7-.3-.7,2.1,2,.3,3,4.8-6.8-.7,2,2.8-7.8-1.4-1.7,3.8,5.7,1,4.1,3.1-.7,2.1-2.4,1.7-8.8-2.4-5.1.7,3.4.3,3,3.1-3,.7,2.7,1.7.3,4.2,3.7-2.4,5.7,1,2.4,2.8-4.7,2.1h-7.1l2,2.1-2.4.7-1,3.1,1.4,2.8-2,8.3-5.1,10-.7,5.9,1.7,2.4,6.8-2.1-.3,7.3-1-1.4-4.7.3,4.1,5.2-4.4,1.4-5.4-2.1,5.4,5.5-3.4.7v2.8l2.7,2.4-4.4-.3-.3-2.1-2.4-.3-.3,3.1,3,2.8-.3,3.1-1.4,2.4-3,.3-3-3.5-1.4,1.7,1.7,5.9-2,1.4-3.4.7-2.4-8-6.8,1-2-4.8-3.7.3,1.4,3.1-3.7.3-.7,3.5-4.4.3.4,2.1h0l-7.8,3.1-4.7-.5-2.5-3.7v-9.6c0,0-13.1-6.8-13.1-6.8l-.3-6.5,4-9.8-12-15.6-2.8-11.4-11.5-13-8.8-4-7.2-6.2-5.2-6.7-3.2-10.8h0l15.7-23.1-3.3-7.3h0l11.5-4.8,2.2-7.1h0l32.5-12.2,7.3,9.3,8.2,3.4,7.2,6.4,3.7.6,4.9,3.6,16.9,3.7,8.2-3.1,3.4-3.5ZM320.4,433.3v3.5l-3.7-1,3.7-2.4Z"/>
    <path id="LC-10" d="M246.6,308l3.3,7.3-15.7,23.1h0l-7.1-1.2h0l-6.3,2-30.4,25.5-18.3,3.3-8.1,6.6h-4.6c0,.1-6.2,3.3-6.2,3.3l-6,9.3-5.7,3h0l-10.4-5.4-1-5.2,3.4-1.7,6.1-7.6,5.7-2.8,2.7-5.2-.3-5.5-4.7-2.1-1-9,5.7-4.5,1.4-9.7,3.7-6.9-3.7-2.4v-2.8l-7.1,1.7-3.4-5.5-10.5-2.4,2-3.1-1.4-4.2.3-17.3,9.5-17h0l13.4,6.6,14.7,2.2,3.3,4.1,3.2-1.2,4.2,6.2,2.8-.8,2.8-5,7.3-.5h0l6.6,7.2-1.6,11.9,6.2,7.5,7.5,13.9,5.5.2,4.8-2.8,9.5-14.8,9.7-9.2h0l1.9,6.3,6.1,4.6Z"/>
    <path id="LC-11" d="M222.4,347.4l4.6-10.1h0l7.1,1.2h0l3.2,10.8,5.2,6.7,7.2,6.2,8.8,4,11.5,13,2.8,11.4,12,15.6-4,9.8.3,6.5,13,6.8v9.6c0,0,2.5,3.7,2.5,3.7l4.7.5,7.8-3.1h0l7.8,1.7.3,2.8h-2.7l-1,3.1-2.4.7-3,8.7-4.7,2.8-4.4,8.3,2.7,8.7-5.4,1.7-3,5.2-2,.3v5.9l3.4,5.5,5.7,2.8,1,5.5-1.4,2.1h-6.8l-3.4,1.7-5.7-5.2-3,3.8-5.4-2.4.3-4.8,5.1-.3,2.4-4.2.3-3.5-.7,1.4-3-.7,2-1.7-.7-2.1h-2.7l-3.7-6.9-8.1-1.7-10.1,1.7-3.4-1-3.7-7.3h0l.9-5.2-4.2-2.9-1.4-3.7,2.5-8.2,1.3-40.4-5.1-12-11-14.1.7-12-5.3-5.1-1.7-8.2,2.8-10.4-6.5-2.7ZM310.6,483.8l1,2.8-1.4,2.1-3,.3-1-3.8,4.4-1.4Z"/>
    <path id="LC-12" d="M190.1,283.2l-7.3.5-2.8,5-2.8.8-4.2-6.2-3.2,1.2-3.3-4.1-14.7-2.2-13.4-6.6h0l3-9.3-.7-2.4,4.7-3.8-3-4.5.7-3.1,5.4-1.4,2.4-2.4,2-5.5-1-3.1,4.1-2.8-3.4-3.5,2-2.8-.3-2.8,1.4-1.7,8.5,1.7,4.1-5.2h0l9.4,9.3,13.4,3,7.5,13.3.8,11.6,3.6,5,.4,5.8-4.6,5.4-6.7,3.8-2,7.1Z"/>
  </g>
</svg>