<?xml version="1.0" encoding="UTF-8"?>
<svg id="Layer_1" xmlns="http://www.w3.org/2000/svg" xmlns:amcharts="http://amcharts.com/ammap" version="1.1" viewBox="0 0 512 512">
  <!-- Generator: Adobe Illustrator 29.1.0, SVG Export Plug-In . SVG Version: 2.1.0 Build 142)  -->
  <g id="_x3C_defs">
    <amcharts:ammap bottomLatitude="12.578685" leftLongitude="-61.461020" projection="mercator" rightLongitude="-61.113978" topLatitude="13.383453"/>
  </g>
  <g>
    <path id="VC-01" d="M305.5,115.8l1.8-1.1,1.9-2.1v-2.6l-1.3-3.3v-1.2c0,0,.6-1,.6-1v-1.1s-.8-2.5-.8-2.5h0l1.8-1.4.5-1.5.2-1.8,1-2.3,2.8-2.2,1-1.1.7-2.3v-.7h0l10.2-2.5.7-1.6v-.8l-.5-1.1-1.2-1.2-.3-.8-.4-4.1-1.1-1.3-1.1-.8v-.8l1.7-2.6,3.7-2.5.6-2.2-.6-2.8-2.4-2-.5-.9.2-1.5.7-1.5-.2-2.3-2.4-5.4-.5-2.6.5-2.8,1.4-1.5.2-2-.2-1.1-1.2-1.6-1.6-3.3v-2c0,0,.7-.4.7-.4h.6l2,.9h1.2c0,0,2.5-.5,2.5-.5l1.5-1.1.3-1.5-.7-3.1-.6-1-.8-.7-1.1-.2-1.9-1.9v-2.3l1-3.5.2-2.4-.9-1.6-2.1-1.7h0l.2-1.1h.5l.2.9h.5s1.3-1.2,1.3-1.2h.5l1,.7h.5l.3-.3.5.2.2-.3h.8l.2.5h2.7l.2.3,2,.2.3.5h.3l.2.5h.8s.2,1.5.2,1.5l.5.7h.3l.7.9,1,.3.8-.3.2-.5,1.3-.2,1-1,.2-.7.5-.3h.8l.2.3h.5l.2.7-.2.7.2,1.4-.5.3-.3-.2-.7.2v.5l.5.5v.3l1,.5.5-.3.7.2.2,1.2.8-.3.2-1h.8l.2.3,1.7-.2.3.3-.3.3.2,1,1,.3-.2.5-.7.3-.7.9-1.5-.3-.2.7.2.5h.5s.3.5.3.5l.2,1.7,1.5.2.2.3-.2,1.2-.2.2-.7-.2-.2.9,1.7,3.4-.2,1.5.8.9.7,1.9.3-.2.2.5,1.5.5.3.3v.9l.5,1v1l.2.3h.5l.3,1.4,1.2,1v.9l.3.2v1.7l-.3,1,.3.5v.9l.3.9-.3,1.7.3.3v.9l.3.7v.7l-.3,1v2.2l.5.5v.9l-.3.3v.5l.3.3v.9l.8,1.5.2,6.1-.3.3v7.2l-.3.7-.8.2-.5.5.2.5v2.4l.3.3v.9l.5.3-.2,1.7.5,1v1.4l.2.5.7.3.3.5v.7l-1.5-.2-.7.2-.2.7.3.3-.3.5v1l.5,1-.2.7,1,3.6-.3,1.2v1.7l1.2,1.5v.7l-1.2,1-.7.2-.3.9-.8,1-.8-.2-.7.7-1.5,2.9-.2,1.7.2.3h.3l.2.7-1.5.5.2,2.4-.2,1.5-.2,2-.8.5v.3l.3.2-.2.9h-1.3l.2.3-.5.9-.3,1.7-.2.5-.2.7.2.5.7.3v.7l-2,.3-.2.3-.7.2.2,2.2-.3.3-.8-.2-.3,1-.3,4.3-.2.3h-.3l-.2-.3h-.8l-.2,1.2-.3.2-.3.9.2,2.2-.5.9v1.7l.3.3-.3.5h-.3l-.3,1v3.7h0l-3.4-.2-3.3-1.4-1.8-1.6-4.6-1.5-.8-.6-.6-.8v-.9c0,0-.8-.5-.8-.5h-.6c0,.1-.6,1.6-.6,1.6l-.4.5h-.5c0,0-1.3-.2-1.3-.2l-.9-1.3-.5-.2h-1.5l-.6-.4-.7-1.1-1.4-3.5-1-1.5-.9-1-.9-.4-2.2-.2-.4-2.2-.4-.6-3.2-1.4-.8-.9-.6-2.3-.8-2-2.1-1.8Z"/>
    <path id="VC-02" d="M305.5,115.8l-1.5,1.3v.6c-.1,0-.1.6-.1.6l1.4,2.5v1.3c0,0-3.9,3.9-3.9,3.9l-3.9,2.8-5.5,5.5-.8,1.9-.9,4.9-1.4,1.8-2.4,2.1-.4,1.3.3,2.2h0l-.2.3-1,.2.2.5-1.3.2-.3.7h-.5l-.3-.3v-.5l-.7-.3-1.7.2.2-1.4-.3-.2v-.5h.7v-.3l-.7-.2-.2-.5-.3-.3-.8-.7.5-.5,2-.2v-.9l-.3-.5h-.3l-.2-.9-1.3-.2-.2-.3.2-.3-.8-1-.2-.7-.3-.2h-.8l-1.2.7h-.8l.2-.7.5-.2.5-.5v-.5l-.3-.3h-1.3s-.2-.3-.2-.3l-.8-.3-.2-.9.8-.5-.2-.5-1.2-.3-.3-.3-1,.2v.3l-.3.2-1.2-.5v-.3l-1-.3v-.3l-.7-.7.7-.3v-.5l-.3-.3h-1.2l-.2.5h-.7l.5-1v-.3l-.3-.2v-.3l-.2-1.4,1.3-.7.2-1-.5-.9v-.5l-.3-.3-.5-.2-.2-.3-1.5.3v.2l-.7-.2.5-.7-.3-1.7.7-.2.7-.7-.2-.8-.3-.2-.2-.7h-.3l-.2-.6h0l.4-.5,1.2-.5,1.8.2,2,1.5h.8l2.2-1,9.5-5.7,1.7-.4,3.7-.2,1.2-.8h1.4c0,0,1-1.2,1-1.2l1.5-2.8,1-1.1,2-1.3.8-1.4,1.4-1.1,2.6-1,3.8-.8,2.8-1.3h0l.8,2.5v1.1s-.6,1-.6,1v1.2c0,0,1.2,3.3,1.2,3.3v2.6l-1.9,2.1-1.8,1.1Z"/>
    <path id="VC-03" d="M315.7,87.6h-1c0,0-.9-.4-.9-.4l-3-3.7-2.5-.2h-1.2c0,0-4.1,3.3-4.1,3.3l-2.1.6-6.1.3-2.2.5h-1.8c0,0-3.4-2-3.4-2l-3.3-3.5-2.5-.4-2.2-1.1-6.9-4.6h-1.7c0,0,.2-.2.2-.2l-.2-.5,1.2-.7v-.9l.5-.2.2-.3-.2-1-.7-.3v-.3l-.5-.2-.2-.5-.3-.2v-.7l.5-.5.3-.7-.2-.7.3-.5,1.3-.2.2.5.7.2,4-.3,1-.7.3-.7h.5l.2.3h.5l.3-.3v-.7h.2l-.2-.5.3-.2.2-1.4.5.2.7,1.5,1,.3,1-.5.3-.5.8-.2.2-.5.8-.2.2-.5.5-.2,1-2.2-.3-.5v-1.5l-.5-.9.3-.2v-.3l-.7-.9v-1h.3l.3-.5v-.7l-.3.2-.3-.3.3-1.7.8-.7.3-.7,2.5-.9.2-.3,1-.3-.2-.9.3-.2.2-.9.7-.5.3-1.9.3-.2v-.9l.5-.7v-1.2l.3-1,.3-.2-.2-1.2.8-.2.5-.5v-1l.5-.5-.2-.3.2-.9,1.5-.2.2-.9,1.2-.7-.3-.5v-1.2l-.3-.2.3-2.2,1.8-.3.3-.7.5-.2.2-1,.7-.3-.8-.3-.8-.9.5-.5.8-.2.2-.5-.2-.3-.2.2-.3-.2v-.3l.8-.2.2-1.4.5-.5.7-.2v-1l.3-.5-.2-.7.3-.7.5-.3-.2-.2.2-.9,1.3.2,1-.7-.3-.3v-1.7l.5.2,1-.3.2.3h1.7l1,.5.3-.3.2-.9.3-.3.5-.2v-.5l.7-.2.7.2v-.5l.5-.3v-.9l.8-.3.2-.7.7-.2.5-.7h.7l.3.7h.3l.2-.3,1-.2.3-.7h.3l.3.9.7.3.5-.3-.2-.5h.5l.3-.5h1c0-.1,2.1,1.5,2.1,1.5l.9,1.6-.2,2.4-1,3.5v2.3l1.9,1.9,1.1.2.8.7.6,1,.7,3.1-.3,1.5-1.5,1.1-2.5.6h-1.2c0,0-2-1-2-1h-.6l-.6.4v.8c0,0,0,1.2,0,1.2l1.6,3.3,1.2,1.6.2,1.1-.2,2-1.4,1.5-.5,2.8.5,2.6,2.4,5.4.2,2.3-.7,1.5-.2,1.5.5.9,2.4,2,.6,2.8-.6,2.2-3.7,2.5-1.7,2.6v.8l1.1.8,1.1,1.3.4,4.1.3.8,1.2,1.2.5,1.1v.8l-.7,1.6-10.2,2.5ZM280.3,60.7l.7.3.2.9.3.3v.9l-.3.3-1.3-1.4-.2-.3.2-.3-.3-.2v-.3l.8-.2Z"/>
    <path id="VC-04" d="M342.9,142.1l.2.4-.2,1.2.3.7-.3.2-.2,2.6.3.7-.5.5v.7l-.3.3v1.7h-.7l-.5.3.2,1-.3.7h-.7l-.3-.3-.3.2-.2.7.3.2v.3l-.2.5-.7.5-1,.3-1-.7h-1.3l-1.3.3-.2.9-.5.3-.3.5v.7l-.7.7.3.7-.2.7h-.7l-.3.9h-.5l-.3.7v.9l.3.5-.8.5-.5-.2-.2.5-.3.2v.5l-.5.2.2,1.2-.5,1.2.7.2.2.3,1-.2,1,1,.2.7-1.2.3-1-1-.2.2-1-.2.3.3v.9l-.5.3-1-.2-.3.5-1-.3h-.3l-2.5-.2v-1.2l-.5-.5-.8.2v.3l-.5.3-.2,1h-.3v-.3l-.5-.3v-.3l-.5-.5-.3-.2-.5.2-.2-.3h-.5l-.3.5.7.7-.2,1-.8-.2-.2-1.4h-.3l-.2.9-.3.3-1-.2-.3-.5h-.7l-.3.9-1.3.2-.7-.3v-.7l1-.3.3-2.2h-.3l-.8-1-1.2.2-.5-1h-.5l-.7.2-.7-.2-1.5-2.2h-1l-.3-.5h-.5s-1-1-1-1h-.7l-.5.5-.5-.2-.2-.2.2-1.7-2-1-1.2-.2-.7.7-1.3-.2-1.2,1-.8-.3-.5,1-1.2.5v.3h-.5l-1-.9-.2-.5h-.7l-.3-.9.3-.5.5-.2v-.7l1-.7v-1.4l.5-.3v-1.2l.3-.2.2-.5-1-.5-.3-1.9-1.3-.5-.2-.3-.8-.2-.5-.9h-.8l-1.5-1-.5.3v.3h-.5l-.3-2.2.4-1.3,2.4-2.1,1.4-1.8.9-4.9.8-1.9,5.5-5.5,3.9-2.8,3.8-3.9v-1.3c0,0-1.3-2.5-1.3-2.5v-1.2c.1,0,1.6-1.3,1.6-1.3h0l2.1,1.8.8,2,.6,2.3.8.9,3.2,1.4.4.6.4,2.2,2.2.2.9.4.9,1,1,1.5,1.4,3.5.7,1.1.6.4h1.5l.5.2.9,1.3,1.3.2h.5c0,0,.4-.6.4-.6l.6-1.5h.6c0-.1.7.4.7.4v.9c0,0,.6.8.6.8l.8.6,4.6,1.5,1.8,1.6,3.3,1.4,3.4.2ZM307.2,163.8l.3.2v1l-.3.9-.5.3v.3l-1-.2-.2-.5.3.3.7-.3v-1.2l-.5-.7.5.2.7-.3Z"/>
    <path id="VC-05" d="M265.1,120.2h-.3c0,0-.3.3-.3.3l-.8-.2-.8.3h-1.5v-.5l.5-.2-.2-1.2.7-.3-.3-.7-.5-.2v-.7l-.3-.2.2-.5.2-.2.2-.3.3.2.3-.2v-.5l-.8.2-.2-.5.2-.2.8.2v-.3h-.3l-.2-.3v-.5l1.2-.3.5-1.4-.3-1v-1l-.5-1-.8-.3v-.9h.5l.2-.3-.3-.2v-.7h.3v-.3h.7l.5-.5v-1l.3-.5v-.3h-.3v-.3l-.7-.5.8-.5-.3-.3v-.5l.5-1v-.7l-.3-.2-.2-.5v-.9l-.7-.5.2-1.5-.3-.2.5-.5v-.3l.7-.3v-.3l-1-.3v-.5l1-.9.7.3h1l.3-.7-.2-.9-.5-.2-.3-.9.2-2h-.3l-.2-.9h.5l.5-.7.5.3h.7l-.2-.3.2-.7h.7l.3.5h.3l-.2-1.2.3-.2v.3h.3l.3-.5h.3l.3-1v-1.2l.3.2.5-1h.5l.2.3h1.2l.2-.7.3-.2v-.5l-.5-.5h-.8l-.2-1-.7-.2-.3-.7-.5-.3.8-.9h.3l-.3-1.2.5-.2h1.7c0,0,6.9,4.6,6.9,4.6l2.2,1.1,2.5.4,3.3,3.5,3.4,1.9h1.8c0,0,2.2-.4,2.2-.4l6.1-.3,2.1-.6,4.1-3.2h1.2c0,0,2.5,0,2.5,0l3,3.7.9.5h1c0,0,0,.7,0,.7l-.7,2.3-1,1.1-2.8,2.2-1,2.3-.2,1.8-.5,1.5-1.8,1.4h0l-2.8,1.3-3.8.8-2.6,1-1.4,1.1-.8,1.4-2,1.3-1,1.1-1.5,2.8-1,1.1h-1.4c0,0-1.2.9-1.2.9l-3.7.2-1.7.4-9.5,5.7-2.2,1h-.8l-2-1.5-1.8-.2-1.2.5-.4.5Z"/>
    <path id="VC-06" d="M305.5,214.7l.2.3h.8s.5.5.5.5v.3l-.3.2.3.3h.5s0,1,0,1h.3s.2.3.2.3l-.2.2.2.5-.5.3-.2.7-.5-.5-.3-.2-.3.3.3,1.2-.8,1-.5.2.2.7.3.2v.7h-.7v.3l1,.3.5.7-.8.5.3,1.2-.3.5-.5-.2-.2-.5-1.8.2-.3.9-.5.3.2.7-.3.2-1.3-.2-.8,1.7h-.7l-.3-.3-1.2.2-.3.3v1.2l.8.3.2.7-1.3-.5-.2-.3h-.3l-.7.7-.8-.2-.3.3-.2,1,.3.5,1-.2,1.5.9h.8v-.2l1.2.2.2.5-.2,1-.2.2-.3-.2-.5.9v.7l.3.2.3,1-.2,1-2,.2-.2.3-.5.2v.9l.7.7h.7l-.2,1.5.8.2.3-.7h.3v.5l-.2.3h-.3v1.2l-.3.3-.8-.3-.3.3-.8.2-.5.7-1.2-.2-.2,1-.2.3-.5.2v.5l-1.3.2-.2.9h-.7v-.3l-.5-.3v.7l.5.3-.2,1,.3.3-.5,1.9-1.5-.2-.3.5-.5.2-.3-.3v-.9l.8-.7-.2-.9-.7-.7h-.7l-.3-.5-1.3.2-1.7,1v.3l-.3.2v1.2l-1,.9.2.7-.7.9-.7-.3h-1l-.5.3-1-.5-.7.2-.5-.5h-1l-.3-.5-1.2-.5h-1l-.2.3h-.5l-2.3-1-.5.5-.5-.2v-.3l-.8-.2v-.5l1,.2-.2-.7-.3.2-1.8-.2-.2.7h-.5l-.7-.7-1.5-.7-2.5-.2-1.3.9h-1.2l-1.2.7h-.8l-.3-.5-.7.3-1.2-.2v-.3l.7-.3h1.5l.5-.3,2-.2.2-.3,1.7-.3.2-1,.2-.2.5.2v-.3l.5-.3h.3l.5.7,1.2.5.5-.5h.5l.7-.9h1.2l.3-.3h1.3l1,.3.3-.2.3.2.5-.5.5.3h.5l.2-.3h.5l.3.3,1.3-.2.2.3h.3l.5-.5,1.7.2.3.3,1.3-.2.3-.7.8-.7.2-.9,1.5-.2.2-.5h.3l.3-1.9.8-.5v-1l1-1.2.7-.3v-.3l-.5-.3v-.3l-.5-.5h-.8l-.2-.5-.3-.2h-.8l-.2.3h-1.7l-.7.9h-.7l-.2-.3h-.3l-.2-.5-.8-.3-.2-1.5h-.2l.3-.3v-.7h-.2l.2-.5.2-.2,1.2.2-.2-.2.2-.7,1.3-.7,1-1h.5l.8-.7h.5l.5-.5,1,.2v-.7l.7-.7.2-.7,1.7-.2.3-1.2,1.3-1v-.3l.5-.5.7-.2.5-.3,1.2.2v-.7l1.5-1-.2-.3.5-.7,1.3-.3.7.2.3-.2v-.5l.8-.5,2.7.2.7-.3v-.7l.3-.3v-1.7l.2-.2.3.2.2-1.4.5-.2.5-1,.8-.2.3-.3h.8ZM285.1,259.2l.2.3-.2,1.5.7.3v.5l-2.2.2-.2.3h-.7v-.2l-2.3.2.3-2.2.3-.2.2-.5h.7l.3.5h.7l.3-.5,1.8-.3ZM352.4,264.5l.2.2-.2,1.2.3.2v.3h.8l.2.3-1,.9v.9l-1.3,1.4-2,.2-.2.9h-.3l-1-.3-.7-.9h-.3v-.5l.3-.2v-.7l.7-.5.3-.7h.7l.7-1.7h.5l.2-.3h.8l.3.3.2-.5h.5s.3-.3.3-.3ZM280.5,265.3l.7.7,1.2.2.2.5-1.2.7-1.3-.2v.3l.5.2.2.3,1.5.5-.2,1-1.2.2-.5-.5-.5.5-1,.2-.3.3.3,1.5.3.3-.2.7-.3.2v.5l1,1,.5.2v.3l-.5.5-.7.2-.2.3h-.7l-.5-.9-1.2-.2-.5.3-.3.7h-.5l-.7-1-.3-1.4-.8-.2-1,.7-.3.7-.5.2-.2,1-.7.5h-.5l-.3-.3-1,.2-.5-.5v-.5l-.3-.2v-.9l.2-.3h.5v-.3h1l3-1.5h.8l2.2-.3.3-.7.7-.3,1-2.2.5-.2.2-1.7.3-.9.8-.5h1ZM341.1,269.6l.2,1.4,1.3-.3.3-.7,1,.3-.2,1.4-.3.7-.5.2v.5l-.3.3v.9l.5.5v.3l-.5.7h-.3l-.2.7.3.5h.8l.3-.3h.5l.2-.5,1,.2.3,1.2,1,.7v.7l.5.8v1.2l-.5.5-2.7-.9-.8.9h-.3l-.5.7h-.7l-.2-.3-.2-.9.5-.2.3-.7-.2-1.2-1.2-.5.2-1.4-.5-.7v-.9l-.3-.7-.7-.3v-1.2l-.3-.2.3-1.5h.5l.2-.3v-1l.5-.5h.5ZM263.6,275.7l1.5,1.5-.2,1.2-1-.2-.8-.9.2-.9-.3-.7.7-.2ZM343.9,293.7l.5.5h.3l.2-.3h.8l.2.3-.2.9-.8.7h-1v-.3l-1-.7v-.3l.7-.7h.3ZM325.7,297.8l.5.5v.7l-.3.5-1.8-.7v-.7l1.7-.3ZM322.9,299.4l.3.3v1.2l-.3.3h-.7l-.2-.7-.3-.2h-1l-.2.3-1,.3-.2.3h-.3l-.2-.3.2-.7h.3v-.3l1-.5,2.5-.2ZM326.4,308.2v1.2l.3.2v.9l.7.9.5.2-.2.5-.5.5h-.3s0,.7,0,.7h.3l.5.7.8.2.5.7-.8.7-.3,1h-.7l-.7.3-1-.5-.5.5h-.3l-.3.7h-1.2l-.5.5-.2,3.6-.7.2-1,1.2v1l.5.5v1l.5.5v.7l-.3.2-.3-.3h-.5v.3l-.3.2.2.7.7.2.2.3-1,.3-.2,1.2-.2.3h-.3l-.5,1v.3l.5.5v.7l-.7.7h-.5v-.3l-.5-.5v-.5l.5-.3-.5-1.2-1.2-.2-.8.5-.2-1.7h-.3l-.8,1h-.3s-.2-.3-.2-.3v-.5l.8-1v-.3l-.8-.3.2-1-1-.5-.2-.8.5.2,1-.2v-.7l-.5-.3-.2-.5h-.5l-.5.5v.7h-.5l.3-1.5h.7l.2-.5,2.5-2.6v-.9h-.5l-.5.5h-.3l-.2-.3v-.7l.8-.3v-.7l-.3-.2v-.5l-.5-.5h-.3s0-.5,0-.5l.7-.7-.2-.3.3-.7.8-.2v-.3l.7-.3.2-.7.7-.3v-.9l-.7-.3-.2-.7.3-.5,1.2-.5v-.5l.8-.2v.5l-.3.2v.9h.3l.3.5,1,.2.5.2,2,.2.5-.7-.2-.9,1,.2.3-.5-.5-1.2.7-.2.3.3.2.9.7.2.2-1,.3-.3ZM324.5,325.7v.7l-.5.5h-1.2l.2-.8.7-.3h.8ZM312.5,341.7l.2.7.7.5h.5l.2-.7h.7l.2.3-.2,1.5-1.3,1.4-.5,1-.5-.2v-.9l-.7-.7-1-.2-.3-1.2-1-.5v-.5l1-.5.2-.5.5.2v.5l.7-.2.5-.5h.5l-.2.3ZM302,361.3l.2.3,1,.2v.9l-.5,1.2-.7.7h-.5l-.3-1,.7-.3-.2-1.7.3-.2ZM263.6,370.2l.2.5-.2.3.7-.3.3.2v.3h.3l.2.5h-.7v.7l.5-.2.2.7-.7.2-.3-.9h-1v.3l-.8,1h-1.2l-.3.5-.2-.2.2-.3-.8-.3-.3-.7.2-.3-.2-.9.3-.2.2-1,.7-.2.2.3h1.2l.3.5,1-.5-.2-.3h.5l-.2.2ZM241.7,404.4l.2.2-.2.3h.7l-.2-.3.3-.3.5.2-.2.3.2.5-.3.2v.3h-.3v.3l.3.2h.5l.3-.3-.5-.5,1.7-.2v-.5h.3l.2-.5h.3l.2.3-.3.5h-.5l.2.5.5.3,1.2-.3.2.3v.5h-.3l-.2.3-1.2-.2,1,.5-.2.5-.8.8-.5-.2v-.3h-.5l.2,1,.5.3-.2.3h.3l-.2.3h-.3l.2.8-.3.5.7.5.2.7,1,.2v.5l-.8,1v.5l-.5.3-.8,2-.5.5-2.3-.2-.7.3-.3-1.4-1,.3-.2-.5-1-.2v-.2l-.5.2-.3.7.2.3h-.3l-.2.3h-.5l-.2-.5-.8-.3-.3,1.7.5.3,1,.2v.5l-.5.9v1.5h-.2s.2.5.2.5l-.7.3v1.4l-.7.5v.5l.5.7v1l.7.5-.2.2.2.3-.5-.2-.8.2v.7l.5.2.2.5-.5.7h-.3s0,.3,0,.3h-.3l-.2.3h-.7l.2.9-1.2,1v.3l-.5.2v-.2h-.8l-.3-.3-.3-2-2.5-.2-.2.3h-.7l-.8.5h-.5l-.3,1-1.3,1.4h-1.3l-.5-.5h-.3s-.2-.2-.2-.2l.2-1.5-.3-.2v-.7l-.8-.3-.5-1h-.3l-.7-.7-.8-.2-.2-.3-1.8.2-.3-.3-.2-1.5.3-.2.2-.5h.7l.2.3.5.2.2,1,1.3.2.5.7,1.2-.2.3.3v.5h.7v-.2l.8.2.2.2-.2.5.5.2,1-.3.3-.5h.7s.5-.5.5-.5v-.3l.8-1v-.9l.7.2.3,1.4,2,.2.3-.5,1-.3-.2-.7.3-.3.7.2.2-.3,1.2-.5.2-.5v-.9h-.2l.2-1.2-.5-.2.3-.7-.7-.5-.8-.2v-1.4l-.3-.2v-1h.2l-.2-1.4.3-1-.7-1.4-1.2-.9-.2-.7-1.3-.5v-.3l1-.3-.5-.7-.5-.2v-.7l.5-.3v-.5l-.3-.2-.3-1,.2-.5.5-.2-.2-1.2.3-.9.5-.2.5-.7h1l.3.5-.2,1.2.3.3h.8l.3-.7h.5l.2.5-.3.7,1.3,1v.3l.7.2.2.3,1,.5,1.7-1.2-.2-1,.7-.2.2-1h.7l.7-.5-.2-1.2,2.8-.5-.5.5ZM246.6,409.3l.2.5-.3.5h-.3l.2.9h-.5l-.2-1,.7-.5v-.3h.3ZM219.8,432.4l.2.3-.2.9-.5.5h-.5l-.2-.2.2-1.2,1-.3ZM187.8,451.5l.5.5.3,1-1.7-.2.2-1.4h.7ZM195.1,458.1l.3.3v.9l-.7.8h-.5l-.3-.3v-.5l.7-.2v-1h.5ZM192,460.3l1.3,1.2h.8v-.3h.3l.2-.3,1.3.3.2.7.5.2.5.7,1.2.3.2.8.8.9v.7l-1,1h-2.7v-.2l-.8.2-.3.5h-.3l-.5.5-.2.7-.7.5-1.3-.7-.2,1.4.5.5h.5l.3.8-.3,1.5-.5.2-1-.5h-.7l-.2.3h-1l-.2-.2.2-.7.7-.7v-.5l.7-.2v-.3l.5-.3-.2-2.4-.2-.3-.8-.2v-.7l1.2-.9.2-.7.8-.8-.2-.7-.3-.2-.2-1.5.8-.7ZM213.3,464.2l.2.7.7.5v.5l-.5.5.2.7-.3.3-1.5.2v-.3h-.3s-.5-.8-.5-.8l.5.2.8-.2.7-1-.3-1.2h.5ZM213.2,468l.2.2-.2.7-.8.7-.3.9h-.7l-.2-.3h-.3l.2-1,.3-.3,1-.2.2-.3.7-.2ZM164.7,479.7l.2.3.8.2,1,1.2v1.2l-.5.3-.2,1.4,1.3,1.4.5.2-.2,1,1.7-.5.5.9,2.5.2,1-1,.7.7h.8l.5.3h.5l.2-.3h.8l.7.3.2-.3h.5v-.9h.5l.2.9h.8l.2.3,1,.5.2,1.4.5.5-.7.3-.3,1h-.8l-.3-.3-.2.9-.7.2-.2,1-.3.3v1.2l-.3.3-1.3-.2-.8.7h-.7l-.8-.7-2.5-.2-.5,1-1.2.3-.2.5-.7.2-.5-.5.2-.3-.2-.3.3-.3v-1.2h.7l.2-.3h-1.8l-.2.3-.8.2-.5.7h-.3s0,.3,0,.3h-.3l-.7.7v.3l-1,.3-1.2,1.2-.8-.2-.5.7-.2,1-2.3.2-1.2-1-.2.2-1.5-.2-.8-.3-.2-.3-1.2-.2-.5-.5h-1.2l-.7-.7v-.5l.8-.9v-.3h-.3l.3-.7,1.3-.7,1.3.2v-.3l.8-.2v-.3l.7-.5v-.3l1,.3.2-.3h.5s.5-.5.5-.5h.5l.5-1.4.2-1.7v-1.5h-1l-.8-.7h-.5l-.2-.3h-.5l-.2.3h-.7l-.2-.5h.3v-.3l.3-.2-.3-1.4.7-.3.2-.5h.7l1.3-.2.7.7h1l.3-.5,1.5.2.5-.3v-1l.7-.8v-.5l.8-.2ZM183.6,488.2l.5.7-.3.5-1.8.2v-.7l1-.3.2-.3h.5ZM189.1,495.7l.8.5v.3l1,.3.5.7h.8l.5-.7.5-.2,1.2,1.2h.5l.3-.3h.5v.3l-.3.7-.8-.3-1,.2.2.5.5.3-.2.9h-.5l-.8-1.2h-.8l-.2-.3h-.5l-.2.5.3.7-.3.5h-.5l-.5-1-1.5.2-.3-1.7-.5-.5v-.9l.8-.7h.5ZM166.9,500.4l.3,2-1.5.2v-.7l.7-.7v-.7l.5-.2Z"/>
  </g>
</svg>