<svg xmlns="http://www.w3.org/2000/svg" xmlns:amcharts="http://amcharts.com/ammap" id="Layer_1" viewBox="0 0 512 512"><g id="_x3C_defs"><amcharts:ammap bottomLatitude="12.579" leftLongitude="-61.461" projection="mercator" rightLongitude="-61.114" topLatitude="13.383"/></g><g><path id="VC-01" d="m305.5 115.8 1.8-1.1 1.9-2.1V110l-1.3-3.3v-1.2l.6-1v-1.1l-.8-2.5 1.8-1.4.5-1.5.2-1.8 1-2.3 2.8-2.2 1-1.1.7-2.3v-.7l10.2-2.5.7-1.6v-.8l-.5-1.1-1.2-1.2-.3-.8-.4-4.1-1.1-1.3-1.1-.8v-.8l1.7-2.6 3.7-2.5.6-2.2-.6-2.8-2.4-2-.5-.9.2-1.5.7-1.5-.2-2.3-2.4-5.4-.5-2.6.5-2.8 1.4-1.5.2-2-.2-1.1-1.2-1.6-1.6-3.3v-2l.7-.4h.6l2 .9h1.2l2.5-.5 1.5-1.1.3-1.5-.7-3.1-.6-1-.8-.7-1.1-.2-1.9-1.9v-2.3l1-3.5.2-2.4-.9-1.6-2.1-1.7.2-1.1h.5l.2.9h.5l1.3-1.2h.5l1 .7h.5l.3-.3.5.2.2-.3h.8l.2.5h2.7l.2.3 2 .2.3.5h.3l.2.5h.8l.2 1.5.5.7h.3l.7.9 1 .3.8-.3.2-.5 1.3-.2 1-1 .2-.7.5-.3h.8l.2.3h.5l.2.7-.2.7.2 1.4-.5.3-.3-.2-.7.2v.5l.5.5v.3l1 .5.5-.3.7.2.2 1.2.8-.3.2-1h.8l.2.3 1.7-.2.3.3-.3.3.2 1 1 .3-.2.5-.7.3-.7.9-1.5-.3-.2.7.2.5h.5l.3.5.2 1.7 1.5.2.2.3-.2 1.2-.2.2-.7-.2-.2.9 1.7 3.4-.2 1.5.8.9.7 1.9.3-.2.2.5 1.5.5.3.3v.9l.5 1v1l.2.3h.5l.3 1.4 1.2 1v.9l.3.2v1.7l-.3 1 .3.5v.9l.3.9-.3 1.7.3.3v.9l.3.7v.7l-.3 1v2.2l.5.5v.9l-.3.3v.5l.3.3v.9l.8 1.5.2 6.1-.3.3v7.2l-.3.7-.8.2-.5.5.2.5v2.4l.3.3v.9l.5.3-.2 1.7.5 1v1.4l.2.5.7.3.3.5v.7l-1.5-.2-.7.2-.2.7.3.3-.3.5v1l.5 1-.2.7 1 3.6-.3 1.2v1.7l1.2 1.5v.7l-1.2 1-.7.2-.3.9-.8 1-.8-.2-.7.7-1.5 2.9-.2 1.7.2.3h.3l.2.7-1.5.5.2 2.4-.2 1.5-.2 2-.8.5v.3l.3.2-.2.9h-1.3l.2.3-.5.9-.3 1.7-.2.5-.2.7.2.5.7.3v.7l-2 .3-.2.3-.7.2.2 2.2-.3.3-.8-.2-.3 1-.3 4.3-.2.3h-.3l-.2-.3h-.8l-.2 1.2-.3.2-.3.9.2 2.2-.5.9v1.7l.3.3-.3.5h-.3l-.3 1v3.7l-3.4-.2-3.3-1.4-1.8-1.6-4.6-1.5-.8-.6-.6-.8v-.9l-.8-.5h-.6c0 .1-.6 1.6-.6 1.6l-.4.5h-.5l-1.3-.2-.9-1.3-.5-.2h-1.5l-.6-.4-.7-1.1-1.4-3.5-1-1.5-.9-1-.9-.4-2.2-.2-.4-2.2-.4-.6-3.2-1.4-.8-.9-.6-2.3-.8-2-2.1-1.8Z"/><path id="VC-02" d="m305.5 115.8-1.5 1.3v.6c-.1 0-.1.6-.1.6l1.4 2.5v1.3l-3.9 3.9-3.9 2.8-5.5 5.5-.8 1.9-.9 4.9-1.4 1.8-2.4 2.1-.4 1.3.3 2.2-.2.3-1 .2.2.5-1.3.2-.3.7h-.5l-.3-.3v-.5l-.7-.3-1.7.2.2-1.4-.3-.2v-.5h.7v-.3l-.7-.2-.2-.5-.3-.3-.8-.7.5-.5 2-.2v-.9l-.3-.5h-.3l-.2-.9-1.3-.2-.2-.3.2-.3-.8-1-.2-.7-.3-.2h-.8l-1.2.7h-.8l.2-.7.5-.2.5-.5v-.5l-.3-.3h-1.3l-.2-.3-.8-.3-.2-.9.8-.5-.2-.5-1.2-.3-.3-.3-1 .2v.3l-.3.2-1.2-.5v-.3l-1-.3v-.3l-.7-.7.7-.3v-.5l-.3-.3H268l-.2.5h-.7l.5-1v-.3l-.3-.2v-.3l-.2-1.4 1.3-.7.2-1-.5-.9v-.5l-.3-.3-.5-.2-.2-.3-1.5.3v.2l-.7-.2.5-.7-.3-1.7.7-.2.7-.7-.2-.8-.3-.2-.2-.7h-.3l-.2-.6.4-.5 1.2-.5 1.8.2 2 1.5h.8l2.2-1 9.5-5.7 1.7-.4 3.7-.2 1.2-.8h1.4l1-1.2 1.5-2.8 1-1.1 2-1.3.8-1.4 1.4-1.1 2.6-1 3.8-.8 2.8-1.3.8 2.5v1.1l-.6 1v1.2l1.2 3.3v2.6l-1.9 2.1-1.8 1.1Z"/><path id="VC-03" d="M315.7 87.6h-1l-.9-.4-3-3.7-2.5-.2h-1.2l-4.1 3.3-2.1.6-6.1.3-2.2.5h-1.8l-3.4-2-3.3-3.5-2.5-.4-2.2-1.1-6.9-4.6h-1.7l.2-.2-.2-.5 1.2-.7v-.9l.5-.2.2-.3-.2-1-.7-.3V72l-.5-.2-.2-.5-.3-.2v-.7l.5-.5.3-.7-.2-.7.3-.5 1.3-.2.2.5.7.2 4-.3 1-.7.3-.7h.5l.2.3h.5l.3-.3v-.7h.2l-.2-.5.3-.2.2-1.4.5.2.7 1.5 1 .3 1-.5.3-.5.8-.2.2-.5.8-.2.2-.5.5-.2 1-2.2-.3-.5v-1.5l-.5-.9.3-.2v-.3l-.7-.9v-1h.3l.3-.5v-.7l-.3.2-.3-.3.3-1.7.8-.7.3-.7 2.5-.9.2-.3 1-.3-.2-.9.3-.2.2-.9.7-.5.3-1.9.3-.2v-.9l.5-.7v-1.2l.3-1 .3-.2-.2-1.2.8-.2.5-.5v-1l.5-.5-.2-.3.2-.9 1.5-.2.2-.9 1.2-.7-.3-.5v-1.2l-.3-.2.3-2.2 1.8-.3.3-.7.5-.2.2-1 .7-.3-.8-.3-.8-.9.5-.5.8-.2.2-.5-.2-.3-.2.2-.3-.2v-.3l.8-.2.2-1.4.5-.5.7-.2v-1l.3-.5-.2-.7.3-.7.5-.3-.2-.2.2-.9 1.3.2 1-.7-.3-.3v-1.7l.5.2 1-.3.2.3h1.7l1 .5.3-.3.2-.9.3-.3.5-.2v-.5l.7-.2.7.2v-.5l.5-.3v-.9l.8-.3.2-.7.7-.2.5-.7h.7l.3.7h.3l.2-.3 1-.2.3-.7h.3l.3.9.7.3.5-.3-.2-.5h.5l.3-.5h1c0-.1 2.1 1.5 2.1 1.5l.9 1.6-.2 2.4-1 3.5v2.3l1.9 1.9 1.1.2.8.7.6 1 .7 3.1-.3 1.5-1.5 1.1-2.5.6h-1.2l-2-1h-.6l-.6.4v2l1.6 3.3 1.2 1.6.2 1.1-.2 2-1.4 1.5-.5 2.8.5 2.6 2.4 5.4.2 2.3-.7 1.5-.2 1.5.5.9 2.4 2 .6 2.8-.6 2.2-3.7 2.5-1.7 2.6v.8l1.1.8 1.1 1.3.4 4.1.3.8 1.2 1.2.5 1.1v.8l-.7 1.6-10.2 2.5Zm-35.4-26.9.7.3.2.9.3.3v.9l-.3.3-1.3-1.4-.2-.3.2-.3-.3-.2v-.3l.8-.2Z"/><path id="VC-04" d="m342.9 142.1.2.4-.2 1.2.3.7-.3.2-.2 2.6.3.7-.5.5v.7l-.3.3v1.7h-.7l-.5.3.2 1-.3.7h-.7l-.3-.3-.3.2-.2.7.3.2v.3l-.2.5-.7.5-1 .3-1-.7h-1.3l-1.3.3-.2.9-.5.3-.3.5v.7l-.7.7.3.7-.2.7h-.7l-.3.9h-.5l-.3.7v.9l.3.5-.8.5-.5-.2-.2.5-.3.2v.5l-.5.2.2 1.2-.5 1.2.7.2.2.3 1-.2 1 1 .2.7-1.2.3-1-1-.2.2-1-.2.3.3v.9l-.5.3-1-.2-.3.5-1-.3h-.3l-2.5-.2v-1.2l-.5-.5-.8.2v.3l-.5.3-.2 1h-.3v-.3l-.5-.3v-.3l-.5-.5-.3-.2-.5.2-.2-.3h-.5l-.3.5.7.7-.2 1-.8-.2-.2-1.4h-.3l-.2.9-.3.3-1-.2-.3-.5h-.7l-.3.9-1.3.2-.7-.3v-.7l1-.3.3-2.2h-.3l-.8-1-1.2.2-.5-1h-.5l-.7.2-.7-.2-1.5-2.2h-1l-.3-.5h-.5l-1-1h-.7l-.5.5-.5-.2-.2-.2.2-1.7-2-1-1.2-.2-.7.7-1.3-.2-1.2 1-.8-.3-.5 1-1.2.5v.3h-.5l-1-.9-.2-.5h-.7l-.3-.9.3-.5.5-.2v-.7l1-.7v-1.4l.5-.3v-1.2l.3-.2.2-.5-1-.5-.3-1.9-1.3-.5-.2-.3-.8-.2-.5-.9h-.8l-1.5-1-.5.3v.3h-.5l-.3-2.2.4-1.3 2.4-2.1 1.4-1.8.9-4.9.8-1.9 5.5-5.5 3.9-2.8 3.8-3.9v-1.3l-1.3-2.5V117c.1 0 1.6-1.3 1.6-1.3l2.1 1.8.8 2 .6 2.3.8.9 3.2 1.4.4.6.4 2.2 2.2.2.9.4.9 1 1 1.5 1.4 3.5.7 1.1.6.4h1.5l.5.2.9 1.3 1.3.2h.5l.4-.6.6-1.5h.6c0-.1.7.4.7.4v.9l.6.8.8.6 4.6 1.5 1.8 1.6 3.3 1.4 3.4.2Zm-35.7 21.7.3.2v1l-.3.9-.5.3v.3l-1-.2-.2-.5.3.3.7-.3v-1.2l-.5-.7.5.2z"/><path id="VC-05" d="M265.1 120.2h-.3l-.3.3-.8-.2-.8.3h-1.5v-.5l.5-.2-.2-1.2.7-.3-.3-.7-.5-.2v-.7l-.3-.2.2-.5.2-.2.2-.3.3.2.3-.2v-.5l-.8.2-.2-.5.2-.2.8.2v-.3h-.3l-.2-.3v-.5l1.2-.3.5-1.4-.3-1v-1l-.5-1-.8-.3v-.9h.5l.2-.3-.3-.2v-.7h.3v-.3h.7l.5-.5v-1l.3-.5v-.3h-.3v-.3l-.7-.5.8-.5-.3-.3v-.5l.5-1v-.7l-.3-.2-.2-.5v-.9l-.7-.5.2-1.5-.3-.2.5-.5v-.3l.7-.3V95l-1-.3v-.5l1-.9.7.3h1l.3-.7-.2-.9-.5-.2-.3-.9.2-2h-.3l-.2-.9h.5l.5-.7.5.3h.7l-.2-.3.2-.7h.7l.3.5h.3l-.2-1.2.3-.2v.3h.3l.3-.5h.3l.3-1v-1.2l.3.2.5-1h.5l.2.3h1.2l.2-.7.3-.2v-.5l-.5-.5h-.8l-.2-1-.7-.2-.3-.7-.5-.3.8-.9h.3l-.3-1.2.5-.2h1.7l6.9 4.6 2.2 1.1 2.5.4 3.3 3.5 3.4 1.9h1.8l2.2-.4 6.1-.3 2.1-.6 4.1-3.2h3.7l3 3.7.9.5h1v.7l-.7 2.3-1 1.1-2.8 2.2-1 2.3-.2 1.8-.5 1.5-1.8 1.4-2.8 1.3-3.8.8-2.6 1-1.4 1.1-.8 1.4-2 1.3-1 1.1-1.5 2.8-1 1.1h-1.4l-1.2.9-3.7.2-1.7.4-9.5 5.7-2.2 1h-.8l-2-1.5-1.8-.2-1.2.5-.4.5Z"/><path id="VC-06" d="m305.5 214.7.2.3h.8l.5.5v.3l-.3.2.3.3h.5v1h.3l.2.3-.2.2.2.5-.5.3-.2.7-.5-.5-.3-.2-.3.3.3 1.2-.8 1-.5.2.2.7.3.2v.7h-.7v.3l1 .3.5.7-.8.5.3 1.2-.3.5-.5-.2-.2-.5-1.8.2-.3.9-.5.3.2.7-.3.2-1.3-.2-.8 1.7h-.7l-.3-.3-1.2.2-.3.3v1.2l.8.3.2.7-1.3-.5-.2-.3h-.3l-.7.7-.8-.2-.3.3-.2 1 .3.5 1-.2 1.5.9h.8v-.2l1.2.2.2.5-.2 1-.2.2-.3-.2-.5.9v.7l.3.2.3 1-.2 1-2 .2-.2.3-.5.2v.9l.7.7h.7l-.2 1.5.8.2.3-.7h.3v.5l-.2.3h-.3v1.2l-.3.3-.8-.3-.3.3-.8.2-.5.7-1.2-.2-.2 1-.2.3-.5.2v.5l-1.3.2-.2.9h-.7v-.3l-.5-.3v.7l.5.3-.2 1 .3.3-.5 1.9-1.5-.2-.3.5-.5.2-.3-.3v-.9l.8-.7-.2-.9-.7-.7h-.7l-.3-.5-1.3.2-1.7 1v.3l-.3.2v1.2l-1 .9.2.7-.7.9-.7-.3h-1l-.5.3-1-.5-.7.2-.5-.5h-1l-.3-.5-1.2-.5h-1l-.2.3h-.5l-2.3-1-.5.5-.5-.2v-.3l-.8-.2v-.5l1 .2-.2-.7-.3.2-1.8-.2-.2.7h-.5l-.7-.7-1.5-.7-2.5-.2-1.3.9h-1.2l-1.2.7h-.8l-.3-.5-.7.3-1.2-.2v-.3l.7-.3h1.5l.5-.3 2-.2.2-.3 1.7-.3.2-1 .2-.2.5.2v-.3l.5-.3h.3l.5.7 1.2.5.5-.5h.5l.7-.9h1.2l.3-.3h1.3l1 .3.3-.2.3.2.5-.5.5.3h.5l.2-.3h.5l.3.3 1.3-.2.2.3h.3l.5-.5 1.7.2.3.3 1.3-.2.3-.7.8-.7.2-.9 1.5-.2.2-.5h.3l.3-1.9.8-.5v-1l1-1.2.7-.3v-.3l-.5-.3v-.3l-.5-.5h-.8l-.2-.5-.3-.2h-.8l-.2.3h-1.7l-.7.9h-.7l-.2-.3h-.3l-.2-.5-.8-.3-.2-1.5h-.2l.3-.3v-.7h-.2l.2-.5.2-.2 1.2.2-.2-.2.2-.7 1.3-.7 1-1h.5l.8-.7h.5l.5-.5 1 .2v-.7l.7-.7.2-.7 1.7-.2.3-1.2 1.3-1v-.3l.5-.5.7-.2.5-.3 1.2.2v-.7l1.5-1-.2-.3.5-.7 1.3-.3.7.2.3-.2v-.5l.8-.5 2.7.2.7-.3v-.7l.3-.3v-1.7l.2-.2.3.2.2-1.4.5-.2.5-1 .8-.2.3-.3h.8Zm-20.4 44.5.2.3-.2 1.5.7.3v.5l-2.2.2-.2.3h-.7v-.2l-2.3.2.3-2.2.3-.2.2-.5h.7l.3.5h.7l.3-.5 1.8-.3Zm67.3 5.3.2.2-.2 1.2.3.2v.3h.8l.2.3-1 .9v.9l-1.3 1.4-2 .2-.2.9h-.3l-1-.3-.7-.9h-.3v-.5l.3-.2v-.7l.7-.5.3-.7h.7l.7-1.7h.5l.2-.3h.8l.3.3.2-.5h.5l.3-.3Zm-71.9.8.7.7 1.2.2.2.5-1.2.7-1.3-.2v.3l.5.2.2.3 1.5.5-.2 1-1.2.2-.5-.5-.5.5-1 .2-.3.3.3 1.5.3.3-.2.7-.3.2v.5l1 1 .5.2v.3l-.5.5-.7.2-.2.3h-.7l-.5-.9-1.2-.2-.5.3-.3.7h-.5l-.7-1-.3-1.4-.8-.2-1 .7-.3.7-.5.2-.2 1-.7.5h-.5l-.3-.3-1 .2-.5-.5v-.5l-.3-.2v-.9l.2-.3h.5v-.3h1l3-1.5h.8l2.2-.3.3-.7.7-.3 1-2.2.5-.2.2-1.7.3-.9.8-.5h1Zm60.6 4.3.2 1.4 1.3-.3.3-.7 1 .3-.2 1.4-.3.7-.5.2v.5l-.3.3v.9l.5.5v.3l-.5.7h-.3l-.2.7.3.5h.8l.3-.3h.5l.2-.5 1 .2.3 1.2 1 .7v.7l.5.8v1.2l-.5.5-2.7-.9-.8.9h-.3l-.5.7h-.7l-.2-.3-.2-.9.5-.2.3-.7-.2-1.2-1.2-.5.2-1.4-.5-.7v-.9l-.3-.7-.7-.3v-1.2l-.3-.2.3-1.5h.5l.2-.3v-1l.5-.5h.5Zm-77.5 6.1 1.5 1.5-.2 1.2-1-.2-.8-.9.2-.9-.3-.7.7-.2Zm80.3 18 .5.5h.3l.2-.3h.8l.2.3-.2.9-.8.7h-1v-.3l-1-.7v-.3l.7-.7h.3Zm-18.2 4.1.5.5v.7l-.3.5-1.8-.7v-.7l1.7-.3Zm-2.8 1.6.3.3v1.2l-.3.3h-.7l-.2-.7-.3-.2h-1l-.2.3-1 .3-.2.3h-.3l-.2-.3.2-.7h.3v-.3l1-.5 2.5-.2Zm3.5 8.8v1.2l.3.2v.9l.7.9.5.2-.2.5-.5.5h-.3v.7h.3l.5.7.8.2.5.7-.8.7-.3 1h-.7l-.7.3-1-.5-.5.5h-.3l-.3.7h-1.2l-.5.5-.2 3.6-.7.2-1 1.2v1l.5.5v1l.5.5v.7l-.3.2-.3-.3h-.5v.3l-.3.2.2.7.7.2.2.3-1 .3-.2 1.2-.2.3h-.3l-.5 1v.3l.5.5v.7l-.7.7h-.5v-.3l-.5-.5v-.5l.5-.3-.5-1.2-1.2-.2-.8.5-.2-1.7h-.3l-.8 1h-.3l-.2-.3v-.5l.8-1v-.3l-.8-.3.2-1-1-.5-.2-.8.5.2 1-.2v-.7l-.5-.3-.2-.5h-.5l-.5.5v.7h-.5l.3-1.5h.7l.2-.5 2.5-2.6v-.9h-.5l-.5.5h-.3l-.2-.3v-.7l.8-.3v-.7l-.3-.2v-.5l-.5-.5h-.3v-.5l.7-.7-.2-.3.3-.7.8-.2v-.3l.7-.3.2-.7.7-.3v-.9l-.7-.3-.2-.7.3-.5 1.2-.5v-.5l.8-.2v.5l-.3.2v.9h.3l.3.5 1 .2.5.2 2 .2.5-.7-.2-.9 1 .2.3-.5-.5-1.2.7-.2.3.3.2.9.7.2.2-1 .3-.3Zm-1.9 17.5v.7l-.5.5h-1.2l.2-.8.7-.3h.8Zm-12 16 .2.7.7.5h.5l.2-.7h.7l.2.3-.2 1.5-1.3 1.4-.5 1-.5-.2v-.9l-.7-.7-1-.2-.3-1.2-1-.5v-.5l1-.5.2-.5.5.2v.5l.7-.2.5-.5h.5l-.2.3ZM302 361.3l.2.3 1 .2v.9l-.5 1.2-.7.7h-.5l-.3-1 .7-.3-.2-1.7.3-.2Zm-38.4 8.9.2.5-.2.3.7-.3.3.2v.3h.3l.2.5h-.7v.7l.5-.2.2.7-.7.2-.3-.9h-1v.3l-.8 1h-1.2l-.3.5-.2-.2.2-.3-.8-.3-.3-.7.2-.3-.2-.9.3-.2.2-1 .7-.2.2.3h1.2l.3.5zl-.2-.3h.5l-.2.2Zm-21.9 34.2.2.2-.2.3h.7l-.2-.3.3-.3.5.2-.2.3.2.5-.3.2v.3h-.3v.3l.3.2h.5l.3-.3-.5-.5 1.7-.2v-.5h.3l.2-.5h.3l.2.3-.3.5h-.5l.2.5.5.3 1.2-.3.2.3v.5h-.3l-.2.3-1.2-.2 1 .5-.2.5-.8.8-.5-.2v-.3h-.5l.2 1 .5.3-.2.3h.3l-.2.3h-.3l.2.8-.3.5.7.5.2.7 1 .2v.5l-.8 1v.5l-.5.3-.8 2-.5.5-2.3-.2-.7.3-.3-1.4-1 .3-.2-.5-1-.2v-.2l-.5.2-.3.7.2.3h-.3l-.2.3h-.5l-.2-.5-.8-.3-.3 1.7.5.3 1 .2v.5l-.5.9v1.5h-.2l.2.5-.7.3v1.4l-.7.5v.5l.5.7v1l.7.5-.2.2.2.3-.5-.2-.8.2v.7l.5.2.2.5-.5.7h-.3v.3h-.3l-.2.3h-.7l.2.9-1.2 1v.3l-.5.2v-.2h-.8l-.3-.3-.3-2-2.5-.2-.2.3h-.7l-.8.5h-.5l-.3 1-1.3 1.4h-1.3l-.5-.5h-.3l-.2-.2.2-1.5-.3-.2v-.7l-.8-.3-.5-1h-.3l-.7-.7-.8-.2-.2-.3-1.8.2-.3-.3-.2-1.5.3-.2.2-.5h.7l.2.3.5.2.2 1 1.3.2.5.7 1.2-.2.3.3v.5h.7v-.2l.8.2.2.2-.2.5.5.2 1-.3.3-.5h.7l.5-.5v-.3l.8-1v-.9l.7.2.3 1.4 2 .2.3-.5 1-.3-.2-.7.3-.3.7.2.2-.3 1.2-.5.2-.5v-.9h-.2l.2-1.2-.5-.2.3-.7-.7-.5-.8-.2v-1.4l-.3-.2v-1h.2l-.2-1.4.3-1-.7-1.4-1.2-.9-.2-.7-1.3-.5v-.3l1-.3-.5-.7-.5-.2v-.7l.5-.3v-.5l-.3-.2-.3-1 .2-.5.5-.2-.2-1.2.3-.9.5-.2.5-.7h1l.3.5-.2 1.2.3.3h.8l.3-.7h.5l.2.5-.3.7 1.3 1v.3l.7.2.2.3 1 .5 1.7-1.2-.2-1 .7-.2.2-1h.7l.7-.5-.2-1.2 2.8-.5-.5.5Zm4.9 4.9.2.5-.3.5h-.3l.2.9h-.5l-.2-1 .7-.5v-.3h.3Zm-26.8 23.1.2.3-.2.9-.5.5h-.5l-.2-.2.2-1.2zm-32 19.1.5.5.3 1-1.7-.2.2-1.4h.7Zm7.3 6.6.3.3v.9l-.7.8h-.5l-.3-.3v-.5l.7-.2v-1zm-3.1 2.2 1.3 1.2h.8v-.3h.3l.2-.3 1.3.3.2.7.5.2.5.7 1.2.3.2.8.8.9v.7l-1 1h-2.7v-.2l-.8.2-.3.5h-.3l-.5.5-.2.7-.7.5-1.3-.7-.2 1.4.5.5h.5l.3.8-.3 1.5-.5.2-1-.5h-.7l-.2.3h-1l-.2-.2.2-.7.7-.7v-.5l.7-.2v-.3l.5-.3-.2-2.4-.2-.3-.8-.2v-.7l1.2-.9.2-.7.8-.8-.2-.7-.3-.2-.2-1.5.8-.7Zm21.3 3.9.2.7.7.5v.5l-.5.5.2.7-.3.3-1.5.2v-.3h-.3l-.5-.8.5.2.8-.2.7-1-.3-1.2h.5Zm-.1 3.8.2.2-.2.7-.8.7-.3.9h-.7l-.2-.3h-.3l.2-1 .3-.3 1-.2.2-.3.7-.2Zm-48.5 11.7.2.3.8.2 1 1.2v1.2l-.5.3-.2 1.4 1.3 1.4.5.2-.2 1 1.7-.5.5.9 2.5.2 1-1 .7.7h.8l.5.3h.5l.2-.3h.8l.7.3.2-.3h.5v-.9h.5l.2.9h.8l.2.3 1 .5.2 1.4.5.5-.7.3-.3 1h-.8l-.3-.3-.2.9-.7.2-.2 1-.3.3v1.2l-.3.3-1.3-.2-.8.7h-.7l-.8-.7-2.5-.2-.5 1-1.2.3-.2.5-.7.2-.5-.5.2-.3-.2-.3.3-.3v-1.2h.7l.2-.3H168l-.2.3-.8.2-.5.7h-.3v.3h-.3l-.7.7v.3l-1 .3-1.2 1.2-.8-.2-.5.7-.2 1-2.3.2-1.2-1-.2.2-1.5-.2-.8-.3-.2-.3-1.2-.2-.5-.5h-1.2l-.7-.7v-.5l.8-.9v-.3h-.3l.3-.7 1.3-.7 1.3.2v-.3l.8-.2v-.3l.7-.5v-.3l1 .3.2-.3h.5l.5-.5h.5l.5-1.4.2-1.7v-1.5h-1l-.8-.7h-.5l-.2-.3h-.5l-.2.3h-.7l-.2-.5h.3v-.3l.3-.2-.3-1.4.7-.3.2-.5h.7l1.3-.2.7.7h1l.3-.5 1.5.2.5-.3v-1l.7-.8v-.5l.8-.2Zm18.9 8.5.5.7-.3.5-1.8.2v-.7l1-.3.2-.3h.5Zm5.5 7.5.8.5v.3l1 .3.5.7h.8l.5-.7.5-.2 1.2 1.2h.5l.3-.3h.5v.3l-.3.7-.8-.3-1 .2.2.5.5.3-.2.9h-.5l-.8-1.2h-.8l-.2-.3h-.5l-.2.5.3.7-.3.5h-.5l-.5-1-1.5.2-.3-1.7-.5-.5v-.9l.8-.7zm-22.2 4.7.3 2-1.5.2v-.7l.7-.7v-.7l.5-.2Z"/></g></svg>