<svg xmlns="http://www.w3.org/2000/svg" xmlns:amcharts="http://amcharts.com/ammap" id="Layer_1" viewBox="0 0 512 512"><g id="_x3C_defs"><amcharts:ammap bottomLatitude="70.833" leftLongitude="-9.078" projection="mercator" rightLongitude="36.811" topLatitude="80.759"/></g><g><path id="SJ-JN" d="M16.3 478.5h-1.2l-.2.2h-.3c0 .1-.4.3-.4.3h-.5l-.1.3-.2.2-.5.3-.6 1-.4.5h-.3c0 .1-.2.8-.2.8h-.7l-.3.5-.4.6-.5.2-.5-.2v-.4l-.4-.7v-.3l.2-.2h.6l.2-.7.5-.6.7-.6.7-.2.5-.2.9-.4.2-.3.4-.2.5-.4.4-.4h.7v-.4l.2-.5v-.4c.1 0 .5-.4.5-.4v-.6l.4-.6.3-.4.6-.3.2-.5.2-.2.7-.3-.5-.7v-.2h.5v-.5c.1 0 .7-.2.7-.2h.6l.2-.2.3.2.2.3.5.5.2.3.2.4v.7l-.2.6h-.2l-.2.2v.2c.1 0-.1.6-.1.6v.7l.1.3v.6c.1 0 0 .4 0 .4l-.6.6-1.3.3h-.8l-.6.5h-.7Z"/><path id="SJ-SV" d="M328.1 28.6v.2c.1 0 .4-.1.4-.1l.3.3h.3l-.3.1v.4h-.3c0 .1-.2.6-.2.6l-.5-.2v-.7l.2-.6zm3.4 4.8h-.2l-.2.9-.4-.5v-.5c.1 0-.1-.3-.1-.3v-.3c.1 0 0-.9 0-.9h-.4l.1.4h-.2l-.2-.4h-.3v.4h-.3c0-.1.2-.4.2-.4l-.3-.5v-.5l-.4-.4v-.2l.5-.1v-.6l.2.3.3.2v.5h.9v.4l.3.5.3.7.2-.3.3-.4h.2c0 .1.3 0 .3 0v-.3l.4.1v.7c.1 0 .3.1.3.1h.2c0-.1 0 0 0 0v.4h-.6c0-.1-.2-.6-.2-.6h-.2l-.3.5.4.4-.6.3v.2Zm4.5-1.1.3.5h.4l-.2.3-.2.2h-.2c0 .1.1.3.1.3h.3l.2.3v.7l-.1.1h-1c0 .1-.1 0-.1 0h-.4c0 .1-.4.1-.4.1v.4c.1 0-.3.1-.3.1l-.2-.6h-.3v-.2c-.1 0 0-.4 0-.4l-.3-.2v-1.1l.1-.1h1.1c0-.1.6-.1.6-.1v.3h.4l.2-.8h.3Zm-7 4.5h-.8c0-.1-.5-1-.5-1h-.2l-.2-.3v-.4l.7.3v-.6h.7c0-.1.6-.1.6-.1l.2.6h.4V35h.6v.3h.3l.2.7h-.2v-.3h-.4v.4c.1 0 0 .3 0 .3l-.5.2v.8c0 .1.3.2.3.2v.2l-.2.1-.2.4-.4-.7-.3-.2v-.2l-.2-.2v-.3Zm-6.9 6.5.5.9v.2l.4.3v1l-.2.3-.4.3v.4h-.1l-.4.4h-.6v-.3c-.1 0-.5-.1-.5-.1l-.2-.8v-1.1l.6.2h.3v-.4h.4v-.5h-.3v-.5l.2-.2h.6Zm-6.3 17.5.2.4.5.8.7 1 .3.6.4.3h.6c0 .1.5.1.5.1l.2-.3h.4v.3h.2v-.8h-.3l-.4-.3v-.2l-.2-.3v-.6l.2-.4V61c.1 0 .8-.4.8-.4l.3-.4v-.4l-.2-.3h-.4c0-.1-.2-.6-.2-.6v-.4c.1 0 .3-.2.3-.2l.3-.3-.9-.6v-.8h.3l.4-.3h.2c0-.1.3-.1.3-.1h.4c0-.1-.2-.4-.2-.4h-.6c0 .1-.1-.1-.1-.1h-.2v.4c-.1 0-.4-.1-.4-.1v-.3l.2-.3h.2v-.5h1.1v-.3l-.1-.3h-.2V54h.2l.2-.3h.6v-.3l-.2-.3h-.2c0 .1-.5-.1-.5-.1v.3l-.4.1h-.2l-.5-.6-.4-.2h-.5c0 .1-.4.3-.4.3h-.7c0 .1-.6 0-.6 0l-.3-.8v-.5c.1 0-.2-.9-.2-.9l.2-.9-.2-.7.2-1.1.6-.3v.2c.1 0 .2.4.2.4l.2.4.3.2.4.6h.5v1.3l.7.3.2.5h.2l-.5-1.9-.3-.2v-.4c-.1 0-.3-.3-.3-.3l-.2-.3-.3-.7v-.3l.1-.1-.2-.5v-1l.3-.6v-.2h.2v.3c.1 0 .5.1.5.1v.4l.4.4.5.4-.3.6h.6c0-.1.2.2.2.2v.3c-.1 0 .1.6.1.6h.4V48h.8l.4-.7h.4l.2.3v.8l-.4.2v.2l.6 1.6v.4l.3.3v.4c-.1 0-.4.1-.4.1l.3.3.3.5h.4c0-.1.2-1.2.2-1.2h.6c0-.1.6-.1.6-.1h.2c0-.1.4-.1.4-.1v.2l.2.3h.3c0 .1.3.3.3.3v.6c.1 0 .4.3.4.3v.5l.2.5v.8l.6.3.4.6-.2.5v.4c.1 0 0 .5 0 .5l-.4.3v.5c-.1 0 .2-.1.2-.1l.5.6.2.5v.9h.6c0 .1.6-.3.6-.3l.2-.5.4-.5.4-.3h.4c0 .1-.1.4-.1.4l.2.3v1.3l-.2.7.2 1.2-.2.6.4.7v1.4h.2c0 .1.6.1.6.1v-.5h.7c0 .1.2-.4.2-.4v-.4h.5v.6l.7.4h.4l.5-.3v-.2l.5-.4.2-.3.4-.3v-.2l.3-.3h.1l.3.3.3.2-.6.2v.2l.1.1v.7c-.1 0-.3.1-.3.1v.2h.6l.4-.3v-1.3l.4-.4-.2-.3.4-.6v-.3c-.1 0 0-.4 0-.4l.7.3.3.5v.4l.4.2.2.2v.4l.4.3.3.3h.3c0 .1.3-.4.3-.4v-.5l-.2-.4-.2-.8v-.7l.2.3h.2v-.3c0-.1.5-.3.5-.3v.4l.3.2.4.8v1.5l-.2.4v.4c-.1 0 0 .5 0 .5v.2c.1 0 .2.4.2.4v.2l-.3-.1-.3.3v1h-.5l-.3.6-.3.8.3.7h-.2l-.4.3v.2c.1 0 .6-.1.6-.1h.8l.5-.3h.2v.4h.1l.6.9v.5h1.1c0-.1.3-.3.3-.3h.2l-.3.5.2.3v.6l.1.3.2.4.2.4v.4l-.1.3v.4l.3.3h.2l.2.3v.3c-.1 0-.2.2-.2.2l-.6-.4.4.8h.3v.2l-.3.3.3.7.4.2v.4l.5.4-.2.2v.4c-.1 0 .3.1.3.1h.5c0-.1.2-.4.2-.4v-.2l-.2-.4.2-.2v-.3l-.2-.5h-.2l.2-.6h.4v.5h.4c0 .1.4.6.4.6h.4c0 .1.2.1.2.1l.2-.6-.8-1h-.3v-.2l.2-.4V74c-.1 0 .1-.6.1-.6v-.3h.6l.2-.2-.2-.4-.4-.3h-.3c0 .1-.1 0-.1 0v-.3c.1 0 .6.1.6.1l.2-.2-.3-.2-.2-.4h-.8c0-.1-.2-.4-.2-.4v-.3c.1 0 .5.3.5.3h.4l.2-.2v-.4l-.1-.5-.3-.4v-.6l-.2-1v-1.3l.2-.2.3-.8.3-.2.2-.4-.3-.8.2-.5.3-.7-.2-.4V62l-.2-.4v-1.8c-.1 0 .2-.2.2-.2l.2-.4 1-.3v-1l-.3-.3h-.4l-.7-.3-.3-.5-.5-.3-.5-1.2v-.7l-.2-.9v-.4c.1 0 0-1.3 0-1.3v-.2h.5l.5-1.2.4-.3.9-.3h.7l.2.4h.2v.3l.2.7v.3c-.1 0 0 .7 0 .7v.3c-.1 0-.2.6-.2.6l-.2.6.3.2v.4c-.1 0-.3.5-.3.5v.4c.1 0 .4.3.4.3h.3l.4.7.3.5h.4v-.4l-.4-.8-.6-.6.3-.5V54l.3-.9.2-.2.6-.7.4-1.2-.2-.8v-.4h.2v-.5l-.2-.1v-.3l.1-.3-.5-1v-.3l-.2-.9.2-.5-.3-.4v-.4l.2-.6.2.7v.2c.1 0 .2.4.2.4l.3.2h.3v.2l.2.3v.3c-.1 0 .3.3.3.3l.3.5h.2v-.7l-.6-.4h.2c0-.1.4.2.4.2l.4.5h.4c0 .1.2.7.2.7h.7v.2l.3.6h.4c0-.1.4-.3.4-.3l.2.4.2.3v.4c-.1 0 0 .2 0 .2h.4l.2-.4v.4c.1 0-.1.4-.1.4l-.4.3h.1c0 .1.4.1.4.1v.2h-.3v.5h-.4l-.2.5-.3.5-.4.6.2.4h.3l.3.3v.4c-.1 0-.5.3-.5.3l.2.8h.6c0 .1.2.6.2.6v.5c.1 0 .1.3.1.3l-.3.3.2.5v.3c.1 0-.2.3-.2.3v.4l.4.5v.4c-.1 0-.3.4-.3.4v1.1h-.4l-.2.2h-.6l-.3.4h-.3c0 .1-.5.7-.5.7v.8c.1 0 0 .7 0 .7v.9c-.1 0-.2.5-.2.5v.3c.1 0-.1.3-.1.3h-.3c0-.1-.2 0-.2 0h.3c0 .1-.2 2-.2 2l.4.7.4.2v.4l-.2.5h.5v.6h.2v-.3l.5.1-.2.2v.3l.3.3.3-.4v-.4l-.2-.4v-.3c.1 0-.3-.9-.3-.9l-.2-.4-.2-.3-.2-.4.2-.2h.4c0 .1.3.7.3.7h.6l.3.5.4.4.2.3h.2l-.5-.9-.3-.5-.2-.3.2-.3-.3-.6h.2l.4.4.3.2.2.3v.4l.3 1.4.5.4.2-.2v-2l.1-.4-.2-.3-.3-.6-.6-.7c0-.1-.3-.8-.3-.8h.2l.5.5v.4h.6v-.4c.1 0 0-.3 0-.3h.4l.5.4v.5l-.3.2v1l.4.8.5.3v.9l-.3.3v.5l.3.3h.6V69l.5-.1.2-.6-.3-.8v-.6l.4-.2.2-.9h.4v.5h.5l.3-.2.2-.4v-.8c-.1 0-.5-.2-.5-.2v-.9l-.4-.2v-1.1c-.1 0-.3-.3-.3-.3l.3-.4h.1c0 .1.5.2.5.2v.2h.4v-.3c.1 0 0-.2 0-.2l-.2-.3h-.2c0-.1-.3-.3-.3-.3h-.4v-.5l.2-.2v-.5l-.1-.3.2-1.1h.2l.4.4.2.4.2 1 .3.3.2-.2v-.5l.1-.3.3.4h.3l.8.7.2-.7-.3-.3h-.1c0 .1-.4 0-.4 0l-.3-.3v-.2l.4-.2-.5-1.1v-.3c.1 0 .4-.4.4-.4l.3.4.3.4.2.5.5.6.7 1v.4l.4.4.5-.3v-.3c.1 0 0-.5 0-.5l-.3-.3v-.2l-.4-.7v-1h.5c0 .1.4.1.4.1l.2.3.2.4.4.3v.2l.2.2.4-.6-.3-.3v-.3c.1 0 0-.3 0-.3h-.4c0-.1-.1-.4-.1-.4h-.3v-.6h.3v.2c.1 0 .2.3.2.3h.6l.4.4h.1c0-.1-.2-.4-.2-.4v-.5h-.3l-.4-.4h-.6l-.2-.3-.9-.3-.4-.3-.3-.3v-.4c.1 0 .1-.4.1-.4h.4l.3-.7h.2c0-.1.9-.1.9-.1l1.2.3v.3h.4l.3-.3h.2v.6l.2.3v.3c-.1 0 .2.8.2.8l.3.6h.3v.2c.1 0-.4.6-.4.6l-.5.2-.2.3v.3h-.3l-.2.4-.3.2v.2l.3-.1v.2l-.3.7v.6l.3.2v.6h.3l.2-.4v-.2l.3-.2h.2l.6-.2v-.6l.4-1h.4v.4h.9c0-.1.2-.7.2-.7v-.9l.1-.3v-.3l.1-.3v-.5l-.1-.3h-.2v-.9h-.4c0-.1-.1-.4-.1-.4l.4-.2h.8v.3h-.2v.3l.8.3.2.5v.3l-.1.7v.3c.1 0-.1.7-.1.7v1.5l.3.3v.3h-.3v.6c-.1 0 .1.8.1.8h.2v.4h-.3v.3l.9-.1.2-.3h1v-.6l.3-.3v-.3c-.1 0 0-.2 0-.2l.4.4v.3h.3v-.3l.4-.1v-.3c.1 0 .7-.5.7-.5l.2.4h.9v.3l-.4.6h.3l.1.3h.4v.4h-.2l-.5-.4h-.2l-.4.4-.2-.7h-.3c0-.1-.5.2-.5.2v.2l.6.1v.3h.3l-.2.5v.4h.8c0 .1 0 0 0 0l-.4-.5v-.2l.6-.3h.2l-.3.4.2.4h.5v.4l.2.2h.2c0 .1.5.3.5.3l.8-.3.6.4v.3l-.4-.1v.2l.2.4.4-.3V63h.7l.2-.4h.2l.2.4-.3.4v.2l1-.1v.3h.8l.2.3h-.3l-.3.1h-.3l-.2.1v.3l.4.2.3.5h-.3c0 .1-.1.4-.1.4h-.2l-.3-.3-.2.2v.2l.9.5.2-.2-.3-.2v-.2l.6.1v.3h1v-.2h-.2v-.3h.5c0 .1.4.1.4.1l.2-.3h.2l.2.3h1.8c0 .1.5.1.5.1h.5c0 .1.9.4.9.4l1.2.3h.4c0 .1.3.3.3.3l.6.4h.8l.3.9h.4c0 .1.4.9.4.9l.3.6.3.8.4.8-.2.3v.2l1.3-.4h.7c0 .1.7.5.7.5l.3 1.7-.2.6h-.3l-.3.6v.2l-.3.6-.2.4v.6l-.1.5v.9l.3 1-.2.4-.6 1.2.2.4v1l.6 1.2.5.4v1.9l.2.5v.4l-.2.4v.3c-.1 0-.4.1-.4.1l-.3.6-.4.5v.3l-.3.3h-.1l-.2.3v.5l-.2.1-.2-.4h-.2l-.2.2v.5l-.3.3-.3-.3h-.3l-.3.4v.2l-.4.3-.2-.3h-.5l-.4.3v.3c-.1 0-.3.3-.3.3l-.3.3v.7l-.3.4v.6c.1 0 0 .9 0 .9h-.5l-.2.6-.7.4h-.6v.6l-.4.4-.2.2-.2.2v.6c-.1 0-.6.3-.6.3l-.2.5v.2l-.3.3h-.4c0 .1-.3.5-.3.5l-.6.2h-.4c0 .1-.2.5-.2.5l-.6.2-.2.5h-.2l-.3-.2-.5.2v.2l-.9.1-.3.5-.7.5-.4.4-.2.7-.2.2v.3c-.1 0 0 .6 0 .6v.8l.2.4v.2c.1 0 .7.4.7.4l.2.4v1.8l-.4.6v.2l-.2.2-.3.9v.3c-.1 0-.4.4-.4.4l-.6.3-.2.4-.2.5-.5.2-.5.9-1 1.3h-.4l-.5.5-.4.4-.9.5-1.3-.2h-1.3l-.6.2h-.4c0 .1-.4.5-.4.5h-.6c0-.1-.4.1-.4.1v.4c-.1 0-.7.1-.7.1l-.7.5h-.7v.5h-1.9c0 .1-.4.6-.4.6h-.3c0 .1-.4.5-.4.5l-.5.7h-.4c0 .1-.6.5-.6.5l-.4.5-.2 1v.5l-.5 1.4-.4.6h-3.8c0-.1-.5-.1-.5-.1h-.3c0-.1-.5-.4-.5-.4h-.4c0 .1-.3-.2-.3-.2l-1.3-.2v-.2c-.1 0-.3-.4-.3-.4l-.8-.5h-.1c0-.1-1.1-.2-1.1-.2h-1.3c0-.1-.4-.6-.4-.6h-.4l-.2-.2v-.2c-.1 0-.2-.4-.2-.4v-.4l-.3-.3-.3-.7v-.7l.1-.5.3-1 .3-.4h.2c0-.1.5-.2.5-.2l.3-.5-.3-.3-.2-.5-1.1-.2v-.2l-.2-.1h-.9v.2l-.4.1h-.3c0-.1-.3-.1-.3-.1h-.4c0 .1-.4-.6-.4-.6h-.6l-.3.5h-.4c0 .1-.4.1-.4.1v-.2h-.4v.2l-.3.2h-.5v.2h-.3l-.2-.2h-.3c0 .1-.2.2-.2.2h-.2c0 .1-.4.1-.4.1h-.3c0-.1-.2 0-.2 0l-.3.5h-.4l-.2.2h-.5l-.6.2v.2l-.3.4-.2-.3h-.3l-.3-.5h-.6c0 .1-.6-.6-.6-.6l-.5-.2-.8-.4H338c0-.1-.5-.4-.5-.4l-.5.2-1 .2-.5.2-.9.4h-.7c0 .1-.3.4-.3.4h-.7l-.7-.4h-.9c0-.1-.3-.2-.3-.2l-.3-.3v-.3l.3-.9h.2l.3-.4-.2-.7h-.2l-.5-.4-.4-.2-.5-.6h-.6c0-.1-.4-.1-.4-.1h-.7l-.4-.5-1.1-.2-.6-.4h-.4v-.2c-.1 0-.4-.4-.4-.4h-.3l-.5-.2h-.2l-.3.2h-.5c0-.1-.3-.6-.3-.6v-.3l-.1-.3v-.4c-.1 0-.2-.6-.2-.6l-.3-.5-.3-.5h-.3c0-.1-.6-.5-.6-.5l-.5-.6-.5-.6v-.3l-.2-.5h-.3c0 .1-.4-.2-.4-.2 0-.1.2-.4.2-.4v-.2l.1-.3-.3-.3v-.3l-.3-.3-.2-.3v-.4c.1 0 .5-.8.5-.8l1.3-.2.8-.4h.5l.4-.2h.5c0 .1 1.2.2 1.2.2l.5.2.4.2.4.7-.2.2v.5h.8v.7l.6.4.2.4h.7c0 .1.3.1.3.1v-.2h.5v.4h.3c0 .1.3.1.3.1l.3-.2h.4c0-.1.2-.7.2-.7h.8l.2.6h.2v-.5h.4c0-.1.2-.2.2-.2h.2l.4.2h-.1v.3l.3.5v.5c.1 0 .4-.2.4-.2h.2l.1.7-.2.4h.5l.3.4h.7c0 .1.6.5.6.5h.3l.3-1 .2-.3.4-.5-.2-.3-.4-.4h-.3c0 .1-.6.2-.6.2v.2h-.9c0-.1-.3-.4-.3-.4v-.3l-.3-.6h-.2c0-.1-.6-.7-.6-.7l-.6-.4h-.6c0 .1-.9-.1-.9-.1l-.2-.2h-.2c0-.1-.6-.2-.6-.2l-.2-.3-.3-.5-.3-.9v-.4c-.1 0-.8-.9-.8-.9v-.3l-.3-.2.2-.3h.4v-.3c.1 0 .9-.3.9-.3l1-.3h.4c0-.1.4-.1.4-.1l.5-.3h.5c0-.1.4.3.4.3h.3l.3-.5.4-.3h1.1l.5-.3h1c0 .1.7.3.7.3h.2c0 .1.2.1.2.1l.2-.4h.7l.2.2v.6l.9-.3.3.4h.3c0 .1.3.3.3.3h.6c0-.1.3-.1.3-.1h.7c0 .1.6-.1.6-.1l.3-.3.2-.4v-1l.6-.3v-.3c.1 0 0-.5 0-.5l-.5-.4-.5-.2v-.2c-.1 0-.3-.4-.3-.4h-.7c0-.1-.5.1-.5.1l-.3-.5v-.8l.2-.2h.7v-.3h-.5l-.4-.4v.3l-.4.1v.4c-.1 0-.3.4-.3.4h-.2l.5-2h.7l.2-.2v-.2l-.8-.4-.4-.3h-.3c0-.1-.2-.1-.2-.1h-.5c0 .1-.5.3-.5.3v-.3h-.9v.3l-.6.3h-.4l-.7.4-.2-.2h.3v-.2l-.4-.3h-.3l-.2.2.2.3-1.1.5h-.9c0 .1-.3.1-.3.1v-.4c-.1 0 0 0 0 0l-.3-.2-.4.8h-.6c0 .1-.6 0-.6 0l-.3-.3h-.5v-.3h-.4l-.6 1.3v.3h-.7c0 .1-.3 0-.3 0l.2-.2v-.5h-.6c0 .1-.4 0-.4 0l-.2.3v.2l-.6.1-1.1.3v.3l-.5.3h-.3c0 .1-.1-.1-.1-.1l-.3-.2v-.3l-.3-.3v-.3h-.3l-.2 1v.3c-.1 0-.4.4-.4.4l-.7.3-.6.3h-.3c0 .1-.7.1-.7.1h-1c0 .1-1.2.3-1.2.3l-.5.5-.2.4v.2l-.3.8-.2-.6-.2-.3-.5-.2.2-.2h.4v-.5l.2-.7-.2-.2-.3-.4h-1.6c0 .1-.6 0-.6 0h-.3c0-.1-.4-.1-.4-.1h-.4c0-.1-.2-.1-.2-.1h-2.1c0 .1-.2.5-.2.5h-.3c0 .1-.1.5-.1.5h-.4c0 .1-.2-.3-.2-.3v-.5l-.4-.4h-.8c0-.1.1-.6.1-.6l-.4-.2h-.5v.2l-.1.2h-.3c0-.1-.2-.5-.2-.5l-.2-.3h-.2l-.2.3h-.6c0 .1-.3.1-.3.1V90c-.1 0 0-.2 0-.2v-.4l-.2-.4-.3-.3h-.2l-.1-.9h-.4c0-.1-.3.1-.3.1h-.3c0-.1-.2-1-.2-1v-1.1l-.3-.4v-.3c-.1 0-.1-.6-.1-.6l-.2-.6-.3-.7h-.4v-.6l.2-.2.2-.5.2-.5.2-.6.4-.2V80h.3v.4l.2.2h.8v-.3c-.1 0-.2-.4-.2-.4h-.3c0 .1-.2-.5-.2-.5h-.5c0 .1-.9.3-.9.3l-.5.8-.2-.5.3-.4.3-.4.3-.3h.2l.5-.4.6-.4.2-.5v-.4l.2-.5h.1c0 .1 1.3.1 1.3.1l.2.2h-.7v.8c.1 0 .2.2.2.2l-.4.3v.2l-.2.3h-.2l-.2-.4h-.1v.3h-.3v.1l.4.3v.5l.2.4h1.2c0-.1.4-.3.4-.3h.4c0-.1.1-.6.1-.6h.2l.1.4c0 .1.5.3.5.3v-.2l-.2-.1-.2-.4h.6v-.4c.1 0 .2-.2.2-.2v-.6l.6.3v.4l.6.1.2.5h.4v-.1h-.2l-.2-.3.2-.3h.6V78c-.1 0-1-.5-1-.5 0-.1.4-.3.4-.3h-.2v-.4h-.5c0 .1-.2-.2-.2-.2h.8l.3-.4.3.3h.3l.7-1.3-.5.4h-.2l-.2-.3v-.7h.3v-.4l.2-.3.4.8.4-.2.2-.4-.3-.4v-.5l-.1-.3h-.6c0 .1-.3-.2-.3-.2l-.2-.2-.2-.3.3-.5.5-.3c0-.1-.3-.5-.3-.5l-.2.3h-.2l-1.1-.7h-.2v.3h-.4l-.2-.4.2-.4-.5-.4h-.3l.2.3h-.2c0 .1-.4 0-.4 0v.5l.3.4.2.3v.6l.2.1h.2c0-.1.2 0 .2 0v.2c.1 0 0 0 0 0h-.2c0 .1-.3.8-.3.8h-.6c0 .1-.3.2-.3.2v.6l.3.2.3.2v.3l-.2.6-.3-.3v-.4c-.1 0-.3-.3-.3-.3h-.3l-.5.3h-1.6v.3l-.6.5-.2-.3v-.6l-.2-.3v-.4c-.1 0-.7-.1-.7-.1v.3l.1.6h-.5V74c-.1 0-.2-.4-.2-.4v-.3l-.6-1.6v-.8l-.4-.7-.4-1.5h-.2c0 .1-.4 0-.4 0v.2l.4.8v.8l-.3-.2v-.2l-.3-.6v-.3l-.2-.3v-.6h-.9l-.9.8h-.4v-.6l.5-.1v-.2l.2-.4h.2c0 .1.2 0 .2 0v-.9c-.1 0 .2-.3.2-.3h.8l.5-.3v-.6l-.3-.6v-.2h.3l.3.9.3.3h.1c0-.1.3-.3.3-.3h.2c0-.1.1-.2.1-.2h.1l.3-.4.2.4h.3l.3.3v.3h.8c0-.1.6-.3.6-.3l.2-.3h.3v-.4h-.2l.1-.5.2.2v.4c.1 0 .3.4.3.4l.3-.2v-.6l.3.5h.4l.4-.3.3.3.3.9.5.3-.2.2.2.3h.2c0-.1.5.1.5.1l.2-.2v-1.2l.2-.2h.4v-.3c.1 0 0-.4 0-.4h-.2c0 .1-.4-.3-.4-.3v-.4l.1-.3.3.3h.7c0 .1.5.7.5.7h.4c0 .1.1.4.1.4h.3v.1h-.2l-.2.2.2.4h.2l.2.3v1c-.1 0 .2.2.2.2h.2c0-.1.2 0 .2 0l.4.7.5.5.5 1 .2.3h.2c0-.1.3.1.3.1l-.2.2.2.5v.2c.1 0 .6.3.6.3v-.5c.1 0 .4.5.4.5h.6l.5-.4v-.3c.1 0-.2-.2-.2-.2v-1.5c-.1 0 .3-.3.3-.3v-.5c.1 0 0-.1 0-.1h-.2c0 .1-.2-.2-.2-.2l-.2-.4v-.3l.3-.1.2.4h.7l.4.4h.5c0 .1.4.1.4.1l.2-.4-.5-.3v-.3l-.5-.5h-.6c0-.1-.3-.3-.3-.3l-.3-.3h-.9c0 .1-.3-.2-.3-.2v-.5l-.4-.3h-.4c0 .1-.2-.1-.2-.1l-.3-.8v-.4l-.2-.3v-.9l-.4-.3-.3-1.6-.4-.8v-1l.2-.6-.5-1.7-.3-.7v-1h.2c0-.1.4.1.4.1h.1v-.3h.9c0 .1.3.7.3.7h.9v.4h-.2v.5c.1 0 .6.4.6.4l.4.7.4.4.2.6v.5l.5 1.2Zm51.5-11.2.5.3.4.7v.4c-.1 0 0 .5 0 .5h.2l.2.7.5.3v.3l-.2.2v.5l-.5.4-.9-.3h-.7v-.5c-.1 0-.5-.2-.5-.2l.2-.5h.2l-.1-.3v-.5l.4-1.3v-.6h.3v-.3l.2.1Zm-65.1 9.9v-.2l-.2.3h-.4v-.3l.1-.1v-.3h.2v-.1h.2l-.2-.5h-.3l.2-.7v-.2l.4.1.2-.5h.1l.3-.4V56l.2-.4h.3c0-.1-.3-.2-.3-.2v-.2h.3v-.6h.2v.3h.3l.2.4h.3v.3h.7v.4h.4c0 .1.2 0 .2 0v.3h.5c0 .1.1.4.1.4h.2c0-.1.2.4.2.4v.4l.1.3h.2v.2h-.2v.4l-.2.2v.2h.9v-.4h.4v.2c.1 0 .1.5.1.5h-.2l-.2.6h-.5c0-.1-.6.3-.6.3l.3 1.3h-.1v.4c-.1 0-.5.3-.5.3h-.3c0-.1-.4.5-.4.5l-.4-.7h-.2l-.2.2v.4l-.3.1v-.8l-.1-.3h-.2v-.3h-.2l-.6-.7h-.7c0-.1-.2-.7-.2-.7h-.3v.1h-.4v-.2Zm148.1 14.3-.5.3h-.6c0 .1-.4.4-.4.4l-.2.3h-.5c0 .1-.5.1-.5.1l-1.1-1-.7-1.6-.4-.2-.2-.4v-.4c.1 0 .2-.6.2-.6l.3-1.1.4-1.3.4-.8.3-.4.7-1.2 1.1-.8 1-.7.7-.5.7-.5.7-.5.7-.7.7-1.2.4-.3.8-.7.4-.3 1.6-.7h.6c0-.1 1.5-.9 1.5-.9l.7-.3.8-.3h1.7l1.2.5 1 .7.2.4v.3c.1 0 .7.4.7.4l.3.8v.9l.5.3.7.4h1.1v.4l.3.3h.3v.3c.1 0 0 .2 0 .2l-.7.7v.3l.2.2v1.1l-.6.8-.6 1.3.3.6h-.4v-.3h-.9c0-.1-.1.1-.1.1h-.3c0 .1-.7 0-.7 0l-.6.4v.3c-.1 0-.9.3-.9.3l-.9.3h-.5c0 .1-.5.1-.5.1h-1.1l-.4.3-.9.7-1.1.4h-1.6c0-.1-.6 0-.6 0l-1 .3-.7.9-.9.8-.8.5-.8.3Zm52.2-6.2.6.3.2.5-.3.3h-.2v-.3l-.4.1-.2-.3v-.5h.2v-.3h.3ZM407.2 72v-.3l-.2-.7v-.5l-.3-.3v-.3c.1 0 .2-.2.2-.2v-.3h.4V69l.3-.3h.4v.5l.2.3h.4v.4h.3v-.1h.3c0-.1.3.2.3.2l-.2.4.2.4h.4c0 .1.5.4.5.4h.2c0 .1.5.5.5.5v.5h-.2v1l-.4.5-.3.3-.4.2-.5.4h-.3c0-.1-.4-.4-.4-.4l-.4-.5-.3-.3-.3-.8-.2-.7ZM224.5 99.6l.3-.2v.2l.5.2.2.2.2-.3-.4-.2v-.3c.1 0 .5.1.5.1l.4.3v.6l.3.3.7-.4h1.1l.4.3h.5c0-.1.3.2.3.2l.2.3h.3c0 .1.3-.1.3-.1h.2c0-.1.3 0 .3 0l.2-.7-1.5-.9v-.4h-.5v.2l-.7-.9-.2-.4-.3-.5-.2-.4h.9v-.6l-.2-.2h-.9l-.2-.2-.4-.8h.4l.6.5.2-.2-.6-.4v-.3c-.1 0-.6-.1-.6-.1l-.2-.5v-.6c.1 0 .3-.2.3-.2l.4.3h.3l.2.4v.4h.3v-.2l-.2-.7v-.2c-.1 0 .1-.5.1-.5l-.6-.4-.6-.2v-.7l.2-.2.7.3v.3h.5v.3h.4l-.2-.3.2-.6.4.7.2.3.3.2v.5l.3.3.7.3.2-.9h-.2v-.5l.2-.3-.4-.6.2-.3v-.4h-.3v-.3h.3l.2.2h.2c0 .1.3 0 .3 0v-.2c-.1 0 .2-.8.2-.8v-.8h.3v-.2l1.2.1v-.3l.4-.3.4.5v.3l-.1.3v.2l.3.3.2.4-.2.3-.2.4-.7.2v.3l.2.4h.3l.2-.3.6.5.2-.3.4.7v.2h-.4c0 .1-.2.3-.2.3v.2l.1.2h.4c0-.1 0 0 0 0v.9l-.4-.2-.3.2v.7h-.4v.3h.6c0-.1.6 0 .6 0l.3.3.2.5h-.5l-.2.4h-.3l-.3.3v.3h.3l.7.2-.5-.5h.5l.2-.1h.5l-.3.5.2.4v.4c.1 0 .1.2.1.2l-.3.5.4.3v.2l.3.2h.5l.2-.3v-.3l.2-.6-.2-.4v-.6l-.1-.3v-.2h.4l.4.5v1l.5.2v.6l.2.4h.5c0 .1.3-.5.3-.5v-1.6l-.4-1.3-.3-.8v-.5l-.9-.3v-.2h.3c0-.1-.3-.7-.3-.7v-.4l-.3-.7v-.3l-.4-.5V91l.2-.2.2-.4V90l.2-.2v.2h.3v-.9l-.1-.2v-.6l.4.2h.2c0-.1.3 0 .3 0v.2c-.1 0 .4.4.4.4l.2-.3-.2-.3h.8l.2.6v.2c-.1 0 .6.8.6.8l-.6.3v.4c-.1 0-.4.2-.4.2v.2h.4c0-.1.3.3.3.3v-.4c.1 0 0-.2 0-.2l.2-.2v.2c.1 0 .2.4.2.4v.9h.5v.3c.1 0 0 .3 0 .3v.2c-.1 0-.4.3-.4.3v.3h.2v-.2h.4l.4-.2.2-.2.4-.3.3-.5h.2v.3c.1 0 .5-.1.5-.1l.4.3.5-.3.5-.5v-.3l.5-.2.3-.9.7-.6.6-.5.7.2h.6c0-.1 1.2-1 1.2-1l.4-.7.6-.2h.5c0 .1.5 0 .5 0l.4-.4 1.2-.3.4-.4.6-.3.4-.3v-.4l.3.1v.2c.1 0 .6.2.6.2l.4.7v.5l.2.4.2.6v.7l.3.3.2.3.2.5v.5c-.1 0-.6.4-.6.4v.4l.2.3v.2l-.3.4-.2.3v.5l-.3.3v.3h.3v.4l-.4.6-.6.4-.5.4v.4c.1 0-.6.5-.6.5v.3h.3l-.2.4h-.2l-.3-.3-.3.3-.3-.4h-.5c0 .1-1.1 0-1.1 0l-.8-.4h-.5c0 .1-.2-.3-.2-.3l-.5-.3h-.3l-.3.4v.3l-.3.2h-1.6l-.5.7.2.5v.3l-.3.4h-.1c0 .1-.4.3-.4.3l-.3.4-.4.8-.6.5h-.1c0-.1-.4 0-.4 0v.6l-.5.3-.3.4h-.3l-.2.2.9.2v.2h-.5l-.3.2v.2h-.4l-.2.3h-.2l-.5-.5-.7.5h-.4l-.7-.6h-.4v.3l-.4.2.7.2.2.3.2.4h.6l.1.2-.2.3v.5l-.8.4h.5l.4.4-.2.2v.3c.1 0-.3.1-.3.1h-.2l-.1.4.3.2v.2l.7.1v-.2c.1 0 .2-.2.2-.2h1.1c0 .1.2-.2.2-.2v-.8l.2-.2.3-.2.2-.3h-.6v-.4l.7-.2h.4l.2-.4-.2-.3.3-.4h.4v.7l-.2.2v.6l.8.2.5-1 .9-.5.2-.5h.6c0-.1.3-.4.3-.4h1.3c0 .1.3 0 .3 0h.3l.3.3h.9c0 .1.2-.1.2-.1l.5-.2v.4l-.1.2.5.3.3.4v.5l-.8 1.1v.6c-.1 0-.7.8-.7.8v.2l-.3.2-.4-.2-.5.6v.2h.4v.6c.1 0-.1.6-.1.6v.5l-.3.3.2.4.3.2v-.7l.6-.2-.2.3v.9l.5.3h.3l.2.4v.2c-.1 0 0 .7 0 .7v.4c.1 0 .3-.2.3-.2v-.7h.4v-1.3l-.3-.6v-.7h.3l.5.2h.3v.5l.3.5c0 .1.2-.2.2-.2h.1l.6.7.2.3.4.9.4.5v.2h-.4l.4 1.3.2.2h.2c0-.1.2 0 .2 0h.2c0 .1.6.7.6.7l-.3.5.6.6-.5.2v.3c-.1 0 0 .5 0 .5l.2.8v1.7l-.2.7v.3h-.3v.4l.3.4.4-.2h.4c0 .1.3-.3.3-.3l.7-.2.3-.7.3-.5v-.3l.6-1v-.7l-.3-1.3-.3-.5-.3-.6-.7-.5v-.3l.2-.2v-.4l-.4-.6.3-.7.2-.4v-.2l-.3-.4-.2-1-1.1-1.2h.3l.2-.6v-.6l-.6-.6v-1h-.2v-.9h.3v-.2l.1-.3-.2-.2.2-.4.4-.2.7-.7.3-.7v-.4l.3-.2.2-.2.5.2h.3v-.2l.1-.2.6.5.2-.2v-.7l-.3-.4h-.5l-.4-.9.3-.3v-.3l.5-.4h.4l-.2-.3h-.2l.3-.9-.2-.4.5-.5.4-1 .4-.4v-.3l.4-.5h.3l.2.2-.2.5.3.3v-.6l.3-.4h.5l-.4-.5-.8.4v-.4l.1-.8v-.2l.2-.5v-.4l.6-.3.2-.4V91l.5-.2v-.3h.3l.3.4h.8l1 .2h.2l.2.3c0 .1.1.5.1.5l.2.3.2.4v.4l.6.6.2.4.3.6.3.6.3.4-.2.3v.3l.5.6h.4v.5l-.2.3v.4l.3.4.4.7v.2c.1 0 .2.5.2.5v.2l-.1.3.2.5.3.3.4 1.1.9.2-.4 1 .2.9-.2.6-.2.2.2.5.3.4v.3l-.2.2-.3.7.3.2v.5l-.3.5.2.2h1l.3.5v.5c.1 0 .4.7.4.7l.4.2-.5.6.2.2.3-.2h.2l-.3.8v.6c-.1 0 .2.6.2.6l-.2.2v.4l.1.5.2.2v2.2l.2.2v.7c.1 0 .6.8.6.8v.5h-.3v.7l.2.3h.9c0-.1-.2.3-.2.3l.5.3-.3.3v.5c.1 0 .1.3.1.3l.2.7.2.2.2-.4v-.2l.3-.2-.3.9.3.2v.5l.5.6.3.4.3.4-.2.9-.2.2h.3v.5l-.5.2-.2.4v.7l-.3.5-.2.4-.4 1.1v.8c-.1 0 .1.4.1.4l-.2.4-.2.3.2.3.6.4.2-.2h.3v-.9c.1 0 .3-.7.3-.7l.3-.4v-.4c.1 0 .5-.4.5-.4l.2.6.6.5h.2l.1.1-.2.2v.7c.1 0 .4.7.4.7l.5.7.4.3-.2 1.3.6.5v.5l.1.7v.3c.1 0 .1.5.1.5h-.8c0 .1.5.4.5.4h.4v.4h.4c0 .1.2.4.2.4v.5l-.2.2.4.6h-.3v.2h.3c0 .1.6.5.6.5v.2h-.3l.3.6.8.5v.3l.1.2h.2v.4l-.2.2.3.8h.3l.5.5h.3l.7-.1.3-.2.2-1-.6-.6.5-.8h-.6v-.8h-.4v.3h-.2l-.2-.3v-.9c.1 0 0-.4 0-.4l-.3-.3.2-.3v-.7h-.4v-1l.2-.4-.3-.5v-1l-.3-.4v-.4l-.1-.9-.2-.4v-.6l-.8-1h-.4v-.3l.3-.1v-.4l-.5-2.2v-.8l-.1-1.4-.2-1.1-.3-.7-.3-.8-.5-.8-.4-.7-.3-1 .3-.5v-1c-.1 0-.4-1.8-.4-1.8l.2-.7-.5-.8v-1l.2-.6v-.9l-.4-.6v-.9l.2-.2-.3-1.2.3-.5v-.6l-.4-.3-.2-.2v-.5l.3-.2-.3-1.2.6-.2.6.4h.6c0-.1 1.6.5 1.6.5v-.4h-.3c0-.1-.3-.2-.3-.2l-1.7-.4v-.5l-.8-.2v-1.5c-.1 0-.3-.2-.3-.2l-.3-.5.2-.4-.4-.7v-.5c.1 0 .2-.4.2-.4l.2-.2h.3c0 .1 0 0 0 0l-.4-.3v-.3l-.3-.2-.8.2v-.5l.3-.3V99c-.1 0-.5-1-.5-1v-1.1l-.2-1.3v-1l-.2-.5V92l-.4-.4v-.5l.2-.3v-.7l-.1-.2v-1.2l.4-.3-.2-1.1v-.2h.2l.3-.3.2-.2h.9c0 .1.3-.4.3-.4h.2v.2l.4.5h.2c0-.1.6 0 .6 0l.7.2.6.3.6-.2c0-.1-.3-.4-.3-.4l-.3-.3v-.3l.3-.4v-.3h-.7l-.3.2-.2-.4V85l-.8-1.1-.2-.4v-.8c.1 0 .2-.3.2-.3v-1.6l.3-.7h.2l.2-.3-.2-.2.4-.6-.4-.5.5-.7v-.3l.3-.2h.3l.5-.4.2-.4v-.8l.5-.2.4-.6h.2v.2l.4.2h.3c0-.1.4.2.4.2v.3h.9l.4.4h.2c0-.1.4-.3.4-.3l.3.9v1.7l-.3.2v.5h-.1l-.3-.2h-.3l-.3.5h.6c0 .1.3.5.3.5h-.4l-.2.3.4.3h.3l.3.4v.3h-.4l-.2-.3h-.4v.7h.5v.3l.5.4.7-.4.3.2v.6c.1 0 0 .3 0 .3h-.2v1.2l.6.7v.5l.1.5h.3l.2.3v.7l.3.3h.7c0-.1.6 0 .6 0l.2-.3v-.6l.2-.3v-.4l-.3-.2-.2-.2-.2-.9-.3-.3v-.3l.4-.2.3-1.3h.3l.6-.5h.8c0 .1.9.2.9.2l.5.4.3.5 1 .7.5.5v.7l.3.5.3.2.8.3h.6l.3.7.7 1 .3.5v.3c.1 0 .5.8.5.8l-.2.5h-.4c0-.1-.5 0-.5 0l-.4-.2-.3.3.4.4h.4l.4.5.4.3h.8l.3.7.2.2.3.4.3.2v1.2c-.1 0 .2.4.2.4l.7.6v1.3c.1 0 0 .1 0 .1v.4l.4.3-.2.5v.3h-.6l-.3.5v.3h-.5l-.2.2h-.2c0 .1.3.6.3.6h.2v.5h-.3l-.5.9v.4c.1 0 0 .2 0 .2l-.6.3.2.2h.2v-.2h.2v.4c-.1 0-.4.4-.4.4l-.4.2v.4c-.1 0-.3.1-.3.1h-.5v.7h.2v.4l-.3.5h-.3l-.2.3v.2l.2.5h.4l-.3.5h-.3l-.1.4-.2.7h.8l.3.3-.2.4.3.9.4.4v1c.1 0 .1.4.1.4v.5l-.3.8v.6l.2.2-.2.5-.3.4-.2.6-.3.2h-.3v.8c-.1 0-.5.4-.5.4v.7l.4.4.4.6h.4l.4.2.6-.5v-.4c.1 0 .3-.2.3-.2h.4l.3-.4.3-.3v-.9l.3-.4.3-.6.2-.4.2-.6.5-.4.2-.9v-4.2c.1 0 .2-1 .2-1l.2-.7.4-.2v-.7l-.2-.2v-.3l.5-.3v-.3c.1 0 0-.1 0-.1l.2-.2h.4l.3-.2v-.3l.3-.2h.2c0 .1.4.5.4.5v.2l.6.3.4.3.4.5.7.2v.5l.6.4.3.2.2.5.6.7.4.2v.8c-.1 0-.3.4-.3.4l.3.6-.4.2v1h.6c0-.1.3.2.3.2h.5c0-.1.3.3.3.3v.3l-.4.5h-.2v.6l.4.3v.4l-.1.1.2.2h.2l.2.2v.4c-.1 0 0 .7 0 .7v1l.1.5v.9l-.2.2.3.5-.2.2-.4-.2-.2.2v.4c-.1 0 .3.2.3.2l.3.6v.6l-.3.3-.4.2.2.2h.3c0-.1.3.3.3.3v.3l-.4.2v.4c-.1 0 .3.1.3.1l-.6 1-.9.4-.7.8v.4l.1.4v.4c-.1 0 .7.4.7.4h.6c0-.1.4.2.4.2l.3-.5h.3l.7.6h.1l.2.3-.4 1.3-.3.4v.3h.4l.2.2-.3.3v-.3h-.3l-.2.9h.3v.5l-.2.4h-.3v.5l-.2.2h.6l.2-.3h.3v.6l.8.7v.2l.9.1.4-.2h.7c0-.1.2-.5.2-.5l.6-1v-.4c.1 0 0-.2 0-.2v-.2l.2-.7v-.4c.1 0 .8-.4.8-.4l.5.3h.1v-.3l.3.1v.4l.2.3-.2.3h.2c0 .1.4 0 .4 0l.2.4.2.4v.2l.4.6 1 .3.4-.2.5.4.2.4v.4c.1 0 0 .5 0 .5h-.1v.6l.3.4-.2.5h-.3l-.2.3-.3.2-.3.6h.4v-.2h.3l.2.7.5.3v.4c.1 0-.6.9-.6.9l.4.2v.3l.2.1h.7v1.2h-.6l-.1.2v.4l.2.5.2.2.3.3v.5c-.1 0 .1.1.1.1v-1.4h.2l.2-.2h-.2v-.3l.2-.2h.2l.1.4h.2c0 .1-.1.3-.1.3l-.2.3h-.4l.1.5h.2l.3-.2h.1c0-.1.2-.2.2-.2h.2l.3-.4.3.2h.4l.4.6h.4l.1-.4-.4-.2v-.5l.3-.8h.2l.2.5.2.5.6.2.2.5.5.3.7.4.4.2.4.4v.4h-.4l-.2.2.2 1.5v.2c.1 0 .5.6.5.6l.3.3.2.6.6.2h.2l.4.4.2.6h.6c0 .1.5-.1.5-.1h.3l.5-.2h.7l.2.5h.9c0-.1.2.1.2.1v.3l.4.3.3-.4h.2v.3l.4.3.3.5v.5h1c0 .1.4.8.4.8v.2l-.5.1-.2.3v.2l.2.2.3.4.2.7v.8l-.2.6-.3.6.2.3h.3l.1.6v.3c-.1 0-.3.2-.3.2h-.4c0 .1-.2 0-.2 0l-.2.5.2.3.8.3.2-.2h.3c0 .1-.2.7-.2.7l-.8-.4h-.2l-.3.3h-.4l-.7-.3-.2-.2-.2.2.4.4v.5l-.3.3h-.4l-.3-.2v-.3l-.7-.5v-.5l.9-.1-.6-.6v-.5l-.3-.1-.9.3-.6-.3h-.8l-.4.5-.6.3-.3-.3-.3-.6-.4-.2v-.3c-.1 0-1.1-.4-1.1-.4v.4l-.2.2-.4.3h-.3c0 .1-.6 0-.6 0l-.2.2-.3-.2h-.2l-.3-.2v.3c.1 0 0 0 0 0h-.2l-.2.3-.2.7-.3.5-.4.2-.4.7v.2l.2.1h.3l-.2.6h-.7c0 .1-.2-.3-.2-.3h-.2l-.2 1.2-.3-.4-.2.2h-.4v-.6l-.7-.3v1.7c.1 0-.1.2-.1.2h-.4c0 .1-.8-.2-.8-.2v.3l-.5.1v-.2l-.4.3v.4c-.1 0-.1.3-.1.3l-.2.2-1.3.7h-1v-.3h-.3v-.3h.2c0-.1-.2-.6-.2-.6h.2l.3.2v.2c.1 0 .5.2.5.2h.2l.2-.2v-.3c-.1 0 0 0 0 0h.3c0 .1.2-.1.2-.1l-.2-.3-.3-.2v-.2h-.3l-.4-.3-.4.5h-.7c0-.1-.9.5-.9.5l.3.5h.3l.5.4.2.2v.4h-.2c0 .1-.4.1-.4.1v-.2c-.1 0-.4-.3-.4-.3l-.2.4.2.2v.2c.1 0-.2.1-.2.1h-.4c0-.1-.3-.3-.3-.3v-.5l.5.2.2-.5-.4-.3h-.2l-.2-.2-.2.3-.4.2v1.4c.1 0 .3.6.3.6l-.3 1h-.8l-.6-.2-.4-.5-.2-.2h-.5c0 .1-.4.4-.4.4l-.7 1.6.2.4v-.3l.2-.1v.4c.1 0 .5.3.5.3l-.3.5v.3l.2.5-.5.5.7.5h.4v.6l.2.9v.6l.5.1.7 1.3v1.9l-.2.1v.3h.3l.2.2h-.2v.6l-.6.2-.3.4h-.5l-.4.4h-.7l.4.4.2-.2h.5c0-.1-.3.8-.3.8v.4c.1 0 .6.4.6.4v.9l.3.3.7 1.2h.2l.2.5-.2.4v.4c.1 0-.2.6-.2.6l-.4.5h-.5c0-.1-.6-.1-.6-.1v.2l.2.3h-.2c0 .1-.2.2-.2.2v.3c.1 0 .5.2.5.2l.3.7.4 1 .3.9.2.7v.6l-.2.5-.5 1.2-.7 1-.3.2-.6.2h-.4c0-.1-.2.3-.2.3h-.3l-.7-.5-.2-.5h-.3l-.4-.2-.2-.2v-.3.2l-.2.2-.7.4h-.2c0 .1-.6.5-.6.5l-.4.3v.2l-.1.3.3.6.3 1 .3.5v1.2l.1.2-.5.9-.5.3v.7c.1 0 0 .4 0 .4l-.3.2h-.6c0 .1-.1 0-.1 0h-.2c0 .1.4.8.4.8v.3l.7.4.3.6-.2.4h-.5l-.3.2-.3.4.3.3-.2.3c0 .1.6.3.6.3h.3v-.6c-.1 0-.5-.2-.5-.2l.2-.3.3.2.2.6v.3l.3.6v.4l.3 1.1v.5l-.1.3v.2l-.1.3v.2l.2.2v.5l-.3.8v.4c-.1 0-.4.4-.4.4v.4l-.3.1h-.7c0-.1-.2 0-.2 0l-.2.3v.3l.6.5-.3.2v.7l-.3.4v.4h.2c0 .1.4 0 .4 0l.5.6-.2.3-.3.5-.2.7v.5l-.2.4v.7l-.2.3v.6h.3v.2l-.1.7.3.4-.4.9-.2.8h-.7l-.1-.2h-.8v-.2l.2-.1h-.2c0-.1-.8.2-.8.2l-.7-.6h-.5c0-.1-.6 0-.6 0h-.5l-.4-.1v-.5h.7l.3-.3h.6v-.3l-.9-.8h-.6c0 .1.2.3.2.3l-.3.3h-.2c0-.1-.9 0-.9 0v-.9h.8l-.4-.4v-.3h-.3l-1.1-.7-.3.3v.4l.3.2.2.6h-.4v.4l.6.7v.5h.4l.5.2v.8c.1 0-.4.8-.4.8l.3.4v.5l.1.3v.4h-.6l-.6.5v.6h-.2v.3h.3v.8l-.7.2v.5h-.9l-.4.3v.4c.1 0 .6.5.6.5l.8.3.2.5v.2l-.3.7-.2.2-.2.3-.3.2-.2.7.2.5-.5.5-.2.4-.6.6-.8 1.2.4.6.5.4.3-.5v.4l.4.6-.6.9h-.2l-.2.3v.3l.5.2.3.7-.2.3v.6l-.2.3-.7.3-.4.6.2.4.8.2-.5 1.9v1.1l-.3.2v.6l-.4.3-.2-.3h-.5c0-.1-.3-.4-.3-.4h-.3c0 .1-1.1 0-1.1 0l-.2.5h-.2l-.2.5.5.4h.7c0 .1.8.9.8.9v.4h.2v-.4l.3.5.2.2.2.4h.1c0 .1.4.2.4.2v1.4c-.1 0-.4.7-.4.7l-.5.4-.3.7-.5.6v.6l-.7.3v1.3c-.1 0-.3.2-.3.2l-.4.3h-.4c0 .1-.3 0-.3 0l-.5.3h-.2l-.3-.2-.3.2-.3.3v.4c-.1 0-.2.6-.2.6v.5l-.1.2.5.7.5-.2v-.6h.2l.2.4v.3l.1.4h.3v.6h-.2l-.5.4v.2h.2l.3-.3h.3c0-.1.6.2.6.2v-.3h.5l.5.5h-.1c0 .1.2.7.2.7v.2h.4v.4c.1 0 .2.2.2.2v.2l-.1.3v.9l-.3.1h-.2l-.3.2v1.2h-.1v.7l-.2.5-.4.6h-.3v.9h-.7l-.2.6-1.2.8v.2l-1.1.3-.3-.3h-.6l-.4-.5v-1l.1-.7-.2-.3h-.4v-.2h-.2l-.2.3h-.1v.7h-.3c0 .1-.3.2-.3.2l-.4-.5-.2-.3h-.3v-1l.4-.1v.2h.6v-.2l-.5-.3h-.3v-.8l-.3-.3.2-.2.3-.2h.5l-.1-.7h-.3v-.9l-.6-.2h-.7l-.9-.3-.4-.6h-.4l-.6-.3-.2-.4-.7-.9-.8-.7-.3-.4-.3-.3h-.4l-.3-.6v-.7c-.1 0-.5-.5-.5-.5h-.3l-.4-.4v-.4l-.3-.3h-.8c0-.1-.4-.8-.4-.8l.4-1.1.5-.5.7-.2.4-.2h.4v-.4h.3c0-.1.2-.4.2-.4h.1l.2.2h.3v-.4l-.2-.2.3-.2.8.5.2-.2v-.4l.6-.3h.3l.3.2.6-.3h.7l.2.4h.3v1.1h-.2v.3h-.5v.3c.1 0 .8.3.8.3l-.2-.4h.2c0-.1.1-.1.1-.1h.3v.3l.2.3h.3c0 .1.3 0 .3 0h.4v-.2l-.2-.3-.3-.2-.4-.9-.2-.6.6-.3v.2l.4.1h.2v-.6h.5l.5.7-.2-.6h.3c0-.1.3 0 .3 0h.2c0 .1.2.3.2.3h.3c0-.1.2 0 .2 0l.2-.2-.2-.3.5-.3-.2-.3h.4v.2l.2.2.2-.2v-.4l-.4-.1h-.4c0-.1-.2-.1-.2-.1h-.3v-.8c-.1 0-.5-.2-.5-.2h-.7v-.8l-.4-.2v-.3c-.1 0 .2-.5.2-.5l.4.2v.3l.2.1.4-.2v-.3l-.3-.2v-.7c-.1 0-.4-.1-.4-.1h-.6c0-.1-.3.2-.3.2l-.2.7.2.9v.6h-.2l-.2-.3h-.3c0-.1-.3 0-.3 0v-.2c-.1 0-.4.2-.4.2v.3h.1l.2.3-.2.8v.8l-.3-.3v-.3l-.4-.6h-1.1l-.2-.3-.2-1.5.2-.7-.2-.5-.7-.6h-1l.3.7h.3c0 .1.2 1 .2 1l-.3.3-.3-.2-.7-1.4h-.4c0-.1-.4-.3-.4-.3l-.2.2.2.5.3 1 .4-.2-.3-.5.3-.2v.7c.1 0 .7.8.7.8l-.2.3c0 .1.4.8.4.8l-.2.3h-.7l-.2-.2h-.4c0 .1-.2.4-.2.4v.3l-.5.3-.4-.2v-.3c-.1 0-.4-.2-.4-.2h-.3c0-.1-.3.5-.3.5l-.3.4H272l-1.2-.6-.7-.4-.4-.3-.4-.6v-.3l-.1-.4-.3-.6.6-.7-.3-.5-.3-.3h-.4l.2-.4.3-.2-.2-.2-.2-.4-.3.5h-.3v-.3l.2-.3.5-.8-.5-.2v-.6l-.3-.2h.3l.4.2v.5l.4-.3-.4-.6h-.4c0-.1-.2 0-.2 0l-.3-.6h-.3v.7h-.1l-.2-.3h-.4c0-.1-.4-.1-.4-.1v.3l-.3.2-.5-.7.2-.4.3-.2h.6v-.4h-.2l-.5-.2-.5.4h-.6v-.5c.1 0-.5-.7-.5-.7h-.2c0-.1-.5-.1-.5-.1h-.4c0 .1 0 0 0 0l-.4-.6-.3-.3h-.2v.3l-.2.3h.3c0 .1 0 0 0 0l.3.5h-.4l-.2.2-.5-.4v.4h-.2l.2.3c0 .1.7.2.7.2v.4c.1 0-.2.1-.2.1l-.4-.2v.4h.3l-.4.4v-.4l-.4-.3-.4-.3-.2-.4-.3-.5v-.7l-.2-.5v-.7h-.4c0-.1.2-.7.2-.7l.2-.3v-.5c-.1 0-.3-.2-.3-.2h-.5c0-.1-.5-.3-.5-.3l-.6-.3v-.5c-.1 0 0-.7 0-.7v-1l-.1-.6-.2-.2-.3-.3v-.4h.3v-.4l-.3-.3v-.4l-.6-.6-.3-.2-.2-.5h-.3v-.7h.3v-1.2h.3l.2.3.4-.3-.3-1.1-.3-.4h-.3l-.5-.1-.3-.5.4-1.1-.2-.5.2-.4.5-.4h.4v-.4l.3-.3.4-.3.7-.3h.5l1-.5h.6l.8.5.4-.2h.2l.2.3v.3c.1 0 .3.1.3.1l.6.9-.2.6v2h.3v-.2l.5-.2v.5h.3l.2.3v.3c.1 0 .2.2.2.2l.6-.5.3.2v-.3l-.4-.4v-.4h.3v-.3l-.1-.9.2-.5v-.6h.9l.3-.2.4-.2.7-.7.4.2.3.2.5.5v.3h1l1.1.4h.5c0-.1.4.2.4.2l.7.5h.9c0-.1.6-.4.6-.4l.9-.2h.2v.4h1.1c0 .1.2.7.2.7l.3.2.5.5.6.6v.5c.1 0 .6.7.6.7l.4.6.7.4.5.5.2 1.2h-.1c0 .1-.3-.2-.3-.2l.2.9h.2l.3-.2v.3c.1 0 .6.2.6.2v-.4l-.4-.2.2-.5v-.5l.1-1 .2-.3v-.7l-.1-.1v-.4h.3v-.7h-.2l-.3-.3-.3.2-.9-.2-.5-.5-.3-.5-.5-.5-.4-.7-.7-.8.2-.3-.2-.3-1.3-.5-.5-.3-.9-.2h-.2c0-.1-.5 0-.5 0h-.1l-.8-.3h-.7l-.4-.4-.8-.3h-1v-.2h-.2c0-.1-.4-.2-.4-.2h-.8c0 .1-.2.2-.2.2h-1l-.3-.1-.2-.5-.3-.2h-.1l-.1.6-.4-.3v-.9c-.1 0-.5-.4-.5-.4l-.8-.2v-.4l.5-.1v.2h.3l.2-.5h.6l.3-.3.2-.3h.2c0-.1.3-.2.3-.2h.4c0-.1.6-.5.6-.5l.3-.3h.2c0-.1.3-.3.3-.3l.5-.4.3-.4h.2c0-.1.4-.1.4-.1l.4.2h.7c0-.1.2-.3.2-.3l-.3-.2.6-.4 1.1.2.3-.3h.5c0 .1.2 0 .2 0l-.2-.3.2-.2h.4l.4.4.4.3h.3c0-.1.4 0 .4 0l.2-.2-.2-.3h-.3v-.4l.7-.3.2.2.4-.6h.5v.3l-.3.3h.5l.3-.2v-.3l.4-.2.3.2h.3l1.2-.2h.5c0-.1.6-.9.6-.9l.2-.3.2-.7.7.4.5.2h.6l.4-.4h.8c0-.1.9-.2.9-.2l.6-.3h.5c0 .1.6.5.6.5l.6.3 1 .8.3-.3.3.3h.4v-.5h-.2l-.4-.5-.2-.3-1.5-.7-.2-.5-.4-.2-.3-1.1-.4-1.2v-.3l.3-.1.2.3h.4c0 .1.7-.3.7-.3l-.3-.2.3-.3-.3-.9-.3-.3-.3.2.2 1h-.2l-.1-.3v-.3c-.1 0-.4.2-.4.2l-.2.2h-.4c0 .1-.3.9-.3.9v.3c-.1 0-.1.4-.1.4l-.5.3h-.5c0 .1-1.8.6-1.8.6h-.4c0-.1-.3-.5-.3-.5h-.4l-.8.4h-.3l-.9.1-.6.5h-.5c0-.1-1.4.6-1.4.6l-.5-.3h-.7c0 .1-.7-.1-.7-.1l-.5-.7-.6-.3-.7-.2-.2-.4h-.2l-.8-.2h-.6c0 .1-.4 0-.4 0v.7h-.1c0 .1-.3 0-.3 0l-.5 1-.3.2-.3.2-.2.3-.2.2-.2.3h-.5c0 .1-.1.5-.1.5l-.3.2h-.8c0 .1-1.1.6-1.1.6h-.2c0-.1-.8 0-.8 0v-.2l-.4-.1v.5l-.3.1-.3.6-.4.2h-.2l-.4-.7-.5-.5-.5.4v.5c-.1 0 0 .2 0 .2h.3v-.3h.3c0 .1.2.7.2.7h-1.3c0-.1 0 0 0 0h-.3c0 .1-.5.1-.5.1v-.2c-.1 0-.8-.2-.8-.2h-.8c0 .1-.4-.5-.4-.5h-.4c0-.1-.7 0-.7 0l-.6.2-.3.5v.5h-.3c0 .1-.1 1-.1 1h-.3l-.1.1h-.2c0-.1-.1-.6-.1-.6l-.2-.5h-.2c0-.1-.7-.1-.7-.1v-.4l.2-.7.2-.9-.3-.2v-.9c.1 0 0-.3 0-.3v-.3l-.3-.3-.6-.4v-.6c.1 0 0-.5 0-.5v-.3c-.1 0-.6-.3-.6-.3l.2-.2h.3v-.2l-.5-.3v-.4c.1 0-.2-.2-.2-.2l-.2-.4v-1.2l-.3-.5v-.8l.1-.6v-3.3l-.2-.3-.3-.8.2-.7h.7v-.4l.6-.5h.4c0-.1.3-.3.3-.3h.1c0 .1.3-.1.3-.1v-.3l.8-.2h.6l.5.2.6 1 .3.8h.2l.2.7v.2c-.1 0 .8 1.8.8 1.8l.2 1.1h.4v.4h-.2l.1.4.3.4h.4c0 .1.5-.2.5-.2l-.4-1.7v-.2h.2l.2-.2-.4-.8.3-.2-.3-.5-.6-.4-.2-.4v-.5l-.1-.4-.2-.6.2-.2c0-.1-.2-.6-.2-.6v-.3l.4-.2h.2l.2.2h.4c0-.1.4-.2.4-.2h.1c0-.1.9.2.9.2l.2.2 1-.5 1.4-.4.2-.2h.5l.9-.3.9 1.1h.9c0 .1.3-.1.3-.1l.2-.4-.4-1.1v-.9c.1 0 .3-.2.3-.2h.5c0 .1.2 0 .2 0h-.3v-.2l.5-.4.4.3v-.3l-.3-.3.3-.3h.2c0-.1.3-.3.3-.3h.6v-.3h-.3l.1-.7.3-.2h.7v-.9l.4-.7.5-.4.4-.2.2.2h1.1v1.3h.3c0 .1 0 0 0 0l.3-.3.3.2.8.3h.4l.3-.4v-.6l-.5-.7-.5-.6-.5-.5-.2-.6-.3-.2v-.4l.3-.3.2-.2v-.3l.5-.4h.4l.2-.1v-.4l.2-.2 1.2-1h.2l.3.2h.9c0-.1 1.9-.9 1.9-.9l.5.4.3.5h.5l.7-.2h.2v.4h-.1c0 .1.4.4.4.4l.6.2h.5c0-.1.3-.1.3-.1l.2-.2v-.2h.3l.4.4h.7l.5-.3h1.1c0 .1.4 0 .4 0l.3.7h.2c0 .1.5.6.5.6h.5c0 .1 0 0 0 0l-.5-.2-.7-.8v-.5l.2-.3.8-.4.2-.3.3-.2.3-.4v-.4l1-.7v.2h.2l.3-.3h.2c0-.1.1-.6.1-.6l.6-.4h.3c0-.1.2-.2.2-.2v-.4c-.1 0-.4-.4-.4-.4v-.3c-.1 0-.2-.2-.2-.2h-.6c0-.1-.7.3-.7.3l-.4.3-.2.4-.5.2-.7.2h-.2c0 .1-.4 1-.4 1h-.2c0 .1-.4 0-.4 0v.6h-.3l-2.5-1.6v-.3h.7l-.3-.2h-.4v-.4l-.6-.4h-.3c0-.1-.5.1-.5.1h-.5v.2l-.5-.6-.7-.4.2-.2h.3l.4-.2.2-.4v-.5l.5-.5.2-.8v-1.4l.7-.7.2-.8-.2-.6.2-.6 1.1-.7v-1l.4-.6.4-1.1.4-.3h.4l.8.5h.3v-.3c-.1 0 0 0 0 0l.2.2.2-.5-.2-.2h-.4v-.2h.3v-.5h-.7c0-.1-.3-.4-.3-.4h-1.5v.3l-.4.1-.4-.9h-.4l-.2.4h-.2c0-.1.1-.6.1-.6v-.2h-.5l-.2-.5h-.3l.1.4v.7h-.3v1.1l-.4.3h-.4c0-.1-.2 0-.2 0l.2.4v.3l-.2.5.3 1.2v.5c-.1 0-.5.5-.5.5v.3l-.4.7v.5l-.2.7-.3.3-.9.4-.3.3-.4.5-.4.2h-.4c0-.1-.3-.5-.3-.5h-.2c0 .1.1.4.1.4v.3c-.1 0 0 .1 0 .1l.2.4-.2.7-.8.9h-.5l-.7.4h-1.1l-1.4.9h-.7c0 .1-.7.1-.7.1h-.5c0-.1-.5-.9-.5-.9v-.5c-.1 0-.9-.7-.9-.7v-.8c-.1 0-.5-.7-.5-.7v-1.5l-.2-.7v-.6l-.4-.3.6-.5v-.4l-.5.2v-.2c-.1 0 .4-.4.4-.4h.3c0 .1.7-.1.7-.1h.2c0 .1.2-.1.2-.1l.2-.7h.3c0-.1.3-.6.3-.6v-2.2c.1 0 .3-.6.3-.6l-.2-.6.3-.6-.2-.5.3-.6.2-.6v-.7l-.6-.5-.2-.8-.3-.4.3-.3v-.4c.1 0 0-.4 0-.4l.3-1v-.4c-.1 0-.5-.4-.5-.4h-.2l.2.4h-.2l-.1.3-.2-.3v-.2h-1c0 .1-.3.9-.3.9v.5c.1 0 0 .5 0 .5l-.2.8-.5.7v.9c.1 0 0 .3 0 .3v.7l.5.6v.2l-.3.1v.4c-.1 0 .3.6.3.6v.6l-.3.4.4.4.2.9h-.4l-.2-.2h-.6l-.7.6.2.2v.2l-.3.1-.2.3h-.4c0 .1-.4.7-.4.7v.5c.1 0 .5.3.5.3v.3l-.5.6h-.4l-.1-.4-.5-.5-.4-.5-.6-.8-.4-.8v-.2l.6-.5.4-.3v-1.3c-.1 0-.2-1-.2-1v-.6l-.1-.3-.2-.3-.3.2-.2-.6-.7.3v-.3l-.2-.2h-.3l-.2.1v1l.3.2-.3.3v.4l-.7.2-.4.6h-.6l-.2.2.3.3v.3c-.1 0-.1.3-.1.3l.7.7v.4l-.2.3.2.9v.2l-.3.7.3.7v.7c-.1 0 .6 1.5.6 1.5 0 .1-.2.2-.2.2h-.2c0 .1-1.1-.4-1.1-.4h-.6c0 .1-.2 0-.2 0h-.3l-.3-.2h-.2v1l.2.8.4.6h.3l.1.1v.2l-.3.1h-.2l-.7.2-.2.2v.3h.7l.3.4.3.3v.4c.1 0 1.1.4 1.1.4l.6.2.4.4.4.2.3.6.2 1 .2.7.8 1.1v.4l-.2-.4h-.2l-.9.5h-.5l-.2-.4-1.3-.5-.4.6v.5l-.6-.7-.7-1-.8-.5h-.4c0 .1-.4-.6-.4-.6h-.4l-.2 1.1-.2.2.2.4h.6v-.5h.2c0-.1.2 0 .2 0v.2c-.1 0 .2.3.2.3l-.2.3h-.4l-.2.3h.3c0 .1.2 0 .2 0l.4.6-.5.3h-.9l-.2.3.2.3h-.3v.3h.2c0 .1 1.3-.2 1.3-.2v.2l.3.2h.2c0 .1.3 0 .3 0v-.3l.2-.1h.2v.5h-.1c0 .1.2.9.2.9l.5.3v.9l-.5.6-.7.3h-.3l-.5.6v1.1l-.2.4h-.2v-.4l-.2-.2v-1.7c-.1 0-.6-.3-.6-.3l-.3-.2-.4-.4v-.4c-.1 0-.3.4-.3.4h-.5c0 .1-.2.6-.2.6l.7.2v.3l.5.4v.5c-.1 0-.4.2-.4.2v.7l.3.3v.7l-.2.2-.3-.2v-.3l-.4-.4v-.4c-.1 0-.5-.6-.5-.6l-.4-.2v-.3l-.7-.2-.2.3v.2l.2.1.2.6h.3l.5.8.3.2.2.2h-.3c0 .1-.3.1-.3.1l-.2-.2h-.1v.8h.4l.2-.3h.2l.1.5-.5.3-1.2.4-.8-.2h-.6c0 .1-1.1-.4-1.1-.4h-.7c0-.1-.3 0-.3 0l-1.1-.3h-.3c0-.1-.7-.8-.7-.8h-.4c0-.1-.5.2-.5.2l-.3.7h-.7l.2.4h-.2c0 .1-.2 0-.2 0l-.4-.8v-.6c.1 0-.2-.3-.2-.3l-.2-.4v-.5l.2-.9.4-1.3v-.6l-.3-.6h-.4c0-.1-.1-.6-.1-.6l-.2-.8h.2l.4-.5.2-.3.2-.6-.3-.4h-.4l-.2.2-.2-.4v-.7h-.2c0-.1-.2 0-.2 0h-.3c0 .1.3.6.3.6l-.2.4h-.2c0 .1-.5.4-.5.4h-.7l-.4-.6-.3-.7-.5-.3-.3-.4-.4-.8-.4-.8-1.2-3 .5-.5h.3l-.1.2.4.5v.4l.6.3v.3h-.7v.2l.1.1h.5c0-.1.4.2.4.2l-.2-.8h.1c0-.1.5-.4.5-.4h.5l.3-.1v-.2l.4-.1h.3c0-.1.9.1.9.1l.2.2h.6l.3-.2h.9c0 .1.2-.3.2-.3h.3c0-.1 0 0 0 0l.3.2.8.4-.3-.4v-.5h.1l.2.2h.2v-.3l.3-.2h.3c0-.1.3.8.3.8h.4l.4-.4v-.5c-.1 0-.9-.5-.9-.5l-.3-.2-.4-.2-.2-.4v-.3h.6l.2.2h.6c0 .1.2-.3.2-.3v-.2l-.7-.2.2-1.1.5-.3v-.2l-.3-.7h-.2l-.3-.3-.2-.4-.7-.8v-1l.4.1h.1l-.2-.5h-.3l-.3-.3h-.3l-.2.3v.6l-.2.6 1 .8v.3c.1 0 .3.2.3.2v.3c.1 0 0 .1 0 .1l-.6-.6-.3-.3-.3-.2v.3c-.1 0 0 0 0 0v.2l-.4.1h-.2c0-.1-.2-.3-.2-.3v-.3l-.8-.4-.4-.5h-.5v.5l.3.3.6.3.3.9.4.2v1.5l-.3.5h-.3v-.8h-.7c0-.1-.1-.5-.1-.5h-.3c0-.1-.5 0-.5 0v.3c-.1 0 .2.5.2.5v.3h.4l.3.5-.9-.4-.2-.3v-.3c-.1 0-.3-.2-.3-.2l-.2.2h-.5l-.3.2-.4-.2h-.5l-.4.2h-1.3c0-.1-.2-.4-.2-.4v-.6h.7l-.4.2v.2c.1 0 .8-.1.8-.1 0-.1-.4-.6-.4-.6v-.9l.2-.3v-.5c-.1 0-.4-.2-.4-.2h-.3c0 .1-.3.3-.3.3h-.8c0-.1-1.1 0-1.1 0h-.2l-1.1-.9-.3-.3-.2-.4-.3.2.2.3-.4-.2-.2-.2v-.3l-.7-.6v-.3l-.1-.3v-.4l-.3-.3-.2-.5-.2-.3v-.2c.1 0 .3.3.3.3h.2l.2-.2.2-.3v-.5c.1 0-.1-.4-.1-.4l-.2-.4v-.2c.1 0 0-.1 0-.1v.2c-.1 0-.4-.1-.4-.1v-.2h-.2l-.3.5-.5-.2h-.3l-.9-.7-.3-.3v-1.3c.1 0 .6-.6.6-.6v-.5l.2-.5h.6v-.2h-.2c0-.1-.3 0-.3 0v-.8l.6-.5v-.3l.4-.1.4.3h1.9c0-.1.4-.3.4-.3l-.2-.3h-.4c0-.1-.2-.1-.2-.1l.2.4h-.5l-.2-.3v-.3l-.6-.4-.3-.5h-.2c0-.1-.5-.1-.5-.1h-.6l-.5-.5-.9-.7-.9-1.6-.4-.7-.6-.5-.7-.9v-.5l-.2-1.1.6-.3.2.2h.4l.5-.4h.7c0-.1.5.4.5.4h.6l1.6 1.1h.5v.9l.3.1h.7l.2.6h.5v-.1h.7l.2.3v.3l.6.3.3.2h.5l.1.7h.4l.5-.2.2.3h.2l.7-.3.4-.2.5-.4.2-.3-1.1-.3.2-.3v-.4l-.3-.3V142l.4-.4v-.4l.8-.2.2-.4v-.5c-.1 0-.6-.4-.6-.4l-.4.2h-.5l-.8-.5-.9-.2-.7-.8-.6-.4h-.4c0 .1-.4.2-.4.2h-.2c0 .1-.2.3-.2.3v.5h-.5l-.3-.3v-.3l-.2-.5-.4-.2-.9-.5-.3-.3-.5-.9-.4-.4-.5-.2.3-.3.2-.5.6-.4.2-.5v-.8h.5l.7.5.3-.3v-.4l.1-.2-.6-.3-.5-.5v-.4h.2v-.9l.3-.6v-.6l.2-.6.3-.5.3-.4.4-.3h.7v.2l-.3.3.3.2.5-.3.4.3h.9c0-.1 0 0 0 0h.3l.1-.2h.3l-.2-.6h-.3v.2h-.6l-.2.2h-.2v-.3l-.5-.4h-.5l-.7-.7h-.3l.2-.2.5.2.3-.3v-.2l.4-.5-.2-.4h.4v-.3l.7.6.2-.2-.2-.2v-.5l.5.1v.7c.1 0 .6.3.6.3h.4v-.2l-.4-.2h-.3v-.5l.4.2.2-.2v-.2l-.7-.2-.4-.4-.4-.4h-1.1c0 .1-.4-.2-.4-.2v-.4l.4-.2h.2l.5-.5.2.3v.2c-.1 0 0 .2 0 .2h.1l.2-.5v-.3l.2-.3.5.2-.8-.9-.4.2-.3.2h-.4l-.5.4-.4.7h-.3l-.2.2-.2.2h-.2v-.3l-.2-.4-.4-.2-.2.3-.2.3v-.2c-.1 0 0-.4 0-.4l-.2-.2-.3-.2-.2-.3.3-.3-.3-.2v-.7l-.2-.2h-.2l-.3-.2v-.4c.1 0 .4.2.4.2h.4l.3.1.4-.3-.4-.3h-.7c0-.1-.2-.3-.2-.3l-.6-.2-.5.2h-.6l-.4.6-.4.4.3.4h.3l-.2.7.4.3.2.5v.7c.1 0 .1.6.1.6h-.3v.2l.3.5.6.3-.3.2v.3l.6.8-.3.5.4.5v.5l-.2.4.4 1v1.1l-.2.5-.2.2h-.3l-.3-.2v-.2h-.2v.8l.4.2v.2l-.3.1-.2.4-.4.3v.2l-1.1.9-.7-.2h-.4c0 .1-.1.4-.1.4h-.9v-.4l-.3-.2.2-1-.2-.8v-1.2c-.1 0 .1-.7.1-.7v-.4h-.2l-.2-.4v-1.1l.4-.2v-.5l-.3-.5h-.1v.3h-.3v-.4l-.2-.7-.9-.9.2-.5-.3-.7-.2-.6v-.3h.4v-.6l-.2-.2h-.4c0 .1-.7-.5-.7-.5l-.4-.8v-.7l-.2-.5v-.5c.1 0 .7.5.7.5h.2c0-.1.2-.3.2-.3l-.3-.4.2-.4h.2v-.2h-.3l-.4-.7h-.2l-.2-.6v-.4c.1 0 .8.3.8.3h.3v-.8h-.2l-.2-.5v-.5c.1 0 .5-.1.5-.1l.3-.2v-.5l-.4-.6.5-.5-.3-.3-.3.2-.4-.2-.2-.3-.6-.6v-.3c.1 0 .3.2.3.2h.3l.4.4-.3-1-.3-.2h-.4c0 .1-.4-.2-.4-.2l-.9-.5-.3-.7h.2l.4.5h.2v-.5h-.2l-.2-.5h-.4l-.2-.6v-.2h.8v-.3l-.5-.2.2-.2h1.4c0-.1.6-.1.6-.1v.2c.1 0 .4.4.4.4l.2.4h.2v-.2c.1 0 0-.4 0-.4l.2-.4.4-.2h.4l.2.7.2.2h.3c0-.1-.1-.6-.1-.6l.5.2h.4l.7.8v-.7l.3-.2v-.2l-.8-.2-.2-.3-.7-.3-.8-.5-1.3-.4-.5-.3-.5-.6v-.4l.7-.5h.1v-.6l.2-.3.6.2.2-.3-.3-.2h-.2c0 .1-.1-.1-.1-.1Zm0-6.1h-.4c0 .1-.6 0-.6 0h-1c0-.1-.6-.8-.6-.8h-.5v-.5h.1c0-.1.2-.1.2-.1v-.6l.4.1v-.5l.1-.2h.4c0 .1.1.3.1.3h.3c0 .1.4.3.4.3l.3.4.2.3v.4l-.5-.1c0 .1.3.8.3.8h.2v-.5l.3.5h.3c0-.1.1 0 .1 0v.5l-.3-.3h-.2Zm.1 1.6.5.7v.3l.1.2.4.3h.2c0 .1.2 1.1.2 1.1l-.3.4-.2-.3h-.5c0 .1-.3.3-.3.3v.5l-.4.5v.3h-.3V99h-.8l-.5-.2v-.5l-.1-.3v-.3h.4l.3-.2-.2-.2h-.3v-.1l-.4-.4.2-.3h.2l.7.4v-.3h-.2v-.2h.5v-.3l-.8-.2-.3-.3-.4-.4v-.5l.3-.2.9.5h.3v-.3h-.3l-.2-.3v-.3l.6.3h.4c0 .1.5-.1.5-.1l.2.2-.2.6Zm97.7 20.9h.2l.2.2.2.6h.4l.2.4-.2.6h-.3l-.2-.5-.2-.2h-.5c0-.1-.5-.7-.5-.7h-.2l-.6.6h-1.3c0 .1-.3.2-.3.2h-.3c0 .1-.2 0-.2 0h-.3c0 .1-.2-.4-.2-.4l-.3-.6.2-.4v-1.1l-.2-.5h-.2v-.4l.2-.3.4.2h.3c0-.1.7.2.7.2l.4-.2h.3c0 .1.2.6.2.6l.5.4.2.3.4.4v.3l.5.1Zm2 14.1.2.4v.2l.2.1 1 .2h.7c0-.1.5-.5.5-.5h.3l.3.5h.4l.2.2-.2.4.7.4.4.2h.2c0 .1.3.2.3.2v.2c-.1 0 .6.6.6.6l-.3.3.2.3-.5.4v.4l-.2.3-.4.2-.2-.2h-.6c0-.1-.8.4-.8.4h-.4c0 .1-.3.6-.3.6l-.5.4h-.2c0-.1-.4 0-.4 0v-.4l-.3-.4-1.2-.2-.3-.5.2-.6v-.4h-.2l-.2-.3-.2-.4v-.4l.2-.2v-.9h.4l.4-.9v-.4c-.1 0-.6-.3-.6-.3h.6Zm109 5.6h.3c0-.1.4-.2.4-.2h.2c0 .1.2.2.2.2 0 .1-.1.7-.1.7h-.1l-.3-.3-.2.3h.2v.3h-.9l-.4.2.2.4c0 .1-.3.2-.3.2h-.2v.5h-.7v-.6l-.3-.3v-.3c0-.1-.2-.8-.2-.8h-.2v-.3h.2c0-.1.5-.1.5-.1h.4v.2l.9-.1h.5Zm-19.1 3.5h.4v-.7l.4-.2h.6l.8.2v.4c-.1 0 0 .1 0 .1h.9c0-.1.7.1.7.1h.2l.2.3h.4c0 .1.2.2.2.2l.5.8v.2c.1 0 .6.5.6.5l.2.2.3.3h1.1c0-.1.6.1.6.1v.2l.2.1h.3c0-.1.4-.1.4-.1h.5l.3-.3.5-.2h.2c0-.1.2-.1.2-.1l.3.2.3-.5h.4c0-.1.4.1.4.1l.2.6v.3c-.1 0-1 .6-1 .6l-.8.2-.5.2-.7.3-.5.6-.7.3v.3l-.2.1-.2-.2-.2.2v.3l-.1.3-.4.3-.2-.3h.2l.1-.6h-.3c0-.1-.2-.3-.2-.3l-.3-.6-.6-.8-.5-.5v-.3l-.3-.1h-.5c0 .1-1.1.1-1.1.1h-1.1c0-.1-.4-.4-.4-.4h-.2v.6l-.2.3-.2.2h-.5c0-.1-.2-.3-.2-.3l-.4-.2h-.7c0 .1-.4.3-.4.3l-.3.7-.6.5-.4.3-.2.2h-.3c0 .1-.1.6-.1.6l-.4.5-.6.2-.4.2-.4-.2-.7-.5h-1.2l-.4-.5v-.3l-.2-.1v.2h-.2v-.3l.2-.1h.4c0 .1.5-.1.5-.1h.4c0-.1.4-.1.4-.1l.5-.5.3-.8.6-.2v-.3c.1 0 0-.3 0-.3v-.3l.3-.3h.4c0 .1.4 0 .4 0h.9c0-.1.6-.3.6-.3l.4-.3h.4l.3-.7v-.5l-.4-.7.8.2v.2l.2.1.4-.2ZM231.7 172v-.3l.1-.4v-.4l-.3.7h-.2c0-.1.1-.4.1-.4v-.7l-.3-.5v-.9l-.3-.2-.4-.2-.5.2h-.1v-.3l-.5-.8h-.3v-.7l-.3-.2v-.2l-.5-.1h-.2c0-.1-.5-.3-.5-.3v.2l-.3.6h-.2l-.2.4h-.2l-.4-.4-.3-.4-.2-.4v-.7l-.3-1-.2-.5-.3-.8v-1l.2-.3v-.5l-.3-.5-.5-.3v-.9l-.1-1-.2-.4h-.2v-.3h.1c0-.1-.2-.5-.2-.5h-.4c0-.1-.4-2-.4-2l-.3-.2v-.3l-.3-.5v-.4l-.5-.5-.2-.7v-.7c-.1 0-.4-.1-.4-.1l-.3-.5v-.5l-.2-.3-.3-.6-.2-.2-.2-.6-.3-.3v-.3l.3-.8-.2-.3.3-.4v-.8c-.1 0 0-.5 0-.5l-.3-.4v-.5l.1-.3v-.4l-.8-1.5v-.4l.3-.1h.4l.3.5.4.2.8-.2h.1c0 .1.5.3.5.3l.2.5h.3c0 .1.2 0 .2 0l.9.8.4.9h.5v.6l.3.3-.2.3h-.5c0-.1.2.4.2.4l-.2.4h-.2v-.2l-.5.1.3.2-.2.5v.4h.4l.2.3v.2c-.1 0 .4 1 .4 1v-.4l.1-.3h.3c0 .1.2.1.2.1l.7.3.2.3.3.4.2.5-.3.4.3.4h.2l-.4.6h-.2v-.2c-.1 0 0-.3 0-.3l-.4-.3-.3.5.2.3-.3.2-.2.4v1.2l-.4.2h-.2l.4.6h.3v-.5h.2c0 .1.2.8.2.8l-.2-.2h-.4l.2.6h.4v.2h.4v-.2l.2-.1h.2v.6h-.3l-.1.2-.3.5.3.2v.4h.1v.6h-.2v.3h.3c0-.1.1.1.1.1h.4l.4-.2v.5h.3v.6c-.1 0 0 .3 0 .3l.4.3v.3c-.1 0 0 .4 0 .4h.2v.4l-.2.5h-.2l-.2.4v.6l.3-.5v-.3h.3v.2l.3.1.4-.2h.9v.6h-.1c0 .1.3.4.3.4v.6l.4.3v.5h.1l.3.9h.4l.2.6h.4v.4l.3.3.3.2v.4l.4.3h.4c0 .1 1 0 1 0l.3.3-.2.6v1.1h-.1v.6c-.1 0 0 .4 0 .4l.5.3v.6c-.1 0 .6 1.2.6 1.2v.7l.2.7.4.5.3 1 .3.5v.3l-.2.7.3.5v.4l.5.7v1h.2l-.1.5h-.6c0-.1-.4-.4-.4-.4l-.4-.3h-.4l-.2-.4h-.2v.3h-.5c0-.1-.3-.6-.3-.6l-.2-.6v-.3l-.4-.8h-.2c0-.1.3-.5.3-.5l.3-.4v-1.2c-.1 0-.4-.6-.4-.6h-.2c0-.1-.5-.8-.5-.8h-.4c0-.1-.5-.7-.5-.7l-.2-.6Zm106-26.2h.4c0 .1.2.7.2.7l-.2.5-.3.3-.5 1.6-.6-.4v-.3l.3-.5-.3-.2v-.3l-.2-.2.5-.2v-1.1h.8Zm59 9.7h-.4l-.4.3h-.3c0-.1-.3-.2-.3-.2h-.3c0 .1-.4.7-.4.7l-.2-.3v-1.7c-.1 0-.2-.3-.2-.3h-.7l-.2-.6-.5-.2-.3-.4-.5-.5-.4-.5v-1.4l-.8-2v-1.2l.6-.3.3-.3h.3l.2-.3v-.2h1v.2l.4.1v.5c.1 0 .4.3.4.3l.3.5v.5l.3.2.2.4v.5l.4.4.2.6v.2c.1 0 .4.2.4.2l.3.5h.2c0 .1.1.4.1.4l.5.6.6.2h.6v.9h-.3v.6l-.1.3v.4c-.1 0-.2.3-.2.3v.3l-.5.2Zm-56.8 21.8-.3-.2-.3.2-.3.6-.9.2-.6.2h-.3l-.7.3-.5-.3h-.5c0 .1-.4.2-.4.2l-.4.3v.2l-.2.3h-.5c0 .1-.5.7-.5.7l-.7-.2-.2-.6v-.5l-.4-.1H331c0-.1-.8-.1-.8-.1l-.4.2h-.2v-.4h.3v-.2c.1 0-.2-.8-.2-.8h.5c0-.1.2-.5.2-.5v-1.6l-.4-.6-1.2-.2-.2-.2h.4l.4-.2h.3c0 .1.2-.4.2-.4v-.4l-.1-.3h-.2l-.3-.5-.2-.3v-1.7c.1 0-.2-.6-.2-.6l-.4-.6V168l-.7-.8-.6-.2-.6-.2-1-.6-.7-.2-.5-.4h-.5l.3-1.3.2-.2.2-.3h.4l.5-.3.5-.2.8-.2.4-.2h.4c0-.1.3-.2.3-.2l.7-.2.5-.3h.5c0-.1.6-.2.6-.2l.8-.2v-.3h2.4c0-.1.2-.2.2-.2v-.3c.1 0 .2-.1.2-.1l.2-.3v-.5l-.3-.7h-.2c0 .1-.2 0-.2 0l.5-.4.2-.8h.3l.3-.2.3-.6.4.2h.4v-.2h.3l.2.3h.2l-.1.4v.2l3.6.1v.2l.4.2h.2c0-.1.4.1.4.1l.2.5.5-.2v-.6h.7v-.2c.1 0 .3-.1.3-.1h.6c0-.1.2-.1.2-.1l-.2.5h.3l.1.3.4-.5h.2l-.2.6-.2.3.4.3v.4c.1 0 .2.1.2.1v.3h-.3c0-.1-.2.3-.2.3h.3v.4l-.4.2v1.5l-.2.6.3.3h.3l.2.3-.2.6.4.5.5.5.2.9v.2l-.2 1.6.2.4.3.5-.2.6v.5l.4.8v2.3c0 .1.4.2.4.2l-.4.6h-.2v.6c-.1 0 0 .3 0 .3h.3v.4l-.4.7v.4l-.4.3-.2.2-.2.2-.5.4h-.3c0 .1-.5-.1-.5-.1h-.4c0-.1-.3 0-.3 0h-.3v-.4h-1c0-.1-.3-.2-.3-.2l-.6.8h-.4Zm11.1 45-.4-.7-.5-.2v-.3c.1 0 .1-.3.1-.3v-.6c-.1 0 .3-.3.3-.3h.7l.5-.4v-.8c-.1 0 .2-.4.2-.4l.3-.7-.3-.6-.3-.3-.7-1.2-.2-.3v-.2h.4l.4.3h.6c0 .1.9-.2.9-.2l.7-.3.7-.2v-.2l-.1-.4h-.4c0 .1-.5-.1-.5-.1v-.2l.4-.1-.2-.5v-.2l-.2-.3-.2-.2h-.6c0-.1-.5-.2-.5-.2h-.8c0 .1-.4.8-.4.8v.5c.1 0-.2.4-.2.4l-.2-.3v-.7l.1-.3v-.8l-.8-.9-.4-.2-.5-.2-.5-.3h-.4c0-.1-.1 0-.1 0l.2.5-.3.7-.4.4-.8.2-.2.3-.4.2v.4l-.3.3h-.2c0-.1-.5 0-.5 0l-.2.2-.4.6h-.4l-.1.2-.2.3v.5l-.3.4h-.2v-.4h-.2l-.2.2c0 .1-.2.3-.2.3v.3c-.1 0-.5.2-.5.2l-.6.2h-1.4c0-.1-.6-.4-.6-.4h-.3l-.8.2-.5.2-.2.3-.2.3h-.2c0 .1-1.1.5-1.1.5l-.5.3-1 .8-.6.3-.7.2-.9-.3-.3.2h-.6c0 .1-.3.1-.3.1l-.2-.2v-2.4c.1 0 .2-.3.2-.3v-.9l-.5-.4v-.7h.4c0-.1.3-.4.3-.4l-.2-.9.3-.2.3-.9h.2v.1h.6c0-.1.7-.2.7-.2l.5-.3.5-.8v-.4c.1 0 .2-.4.2-.4l.2-1.5V207c-.1 0 0-1 0-1v-1.1l.2-1 .3-.9.4-.9.4-.8v-.5l.3-.6.3-.2.2-.3v-.2l.2-.4.2-.2.4-.2V197l.2-.9.2-.3.5-.2v-.8c-.1 0-.2-.2-.2-.2l-.2-.6-.2-.3-.3-.5-.5-.3-1-.4h-.7c0-.1-.4-.4-.4-.4l-.4-.6v-.7c-.1 0-.7-.9-.7-.9l-.6-.4-.5-.4h-.3c0-.1-.2-.3-.2-.3l-.6-.9v-.4l-.2-.4-.9-.4.2-1.2v-.4l.3-.4.4-.4.7-.5.4-.3.9-.8.9-.4h.4c0 .1.9-.2.9-.2l.6-.7v-.4l.2-.3h.6c0 .1.4.2.4.2l.4-.3.3-.2.2.3h.4c0-.1.2-.4.2-.4v-.6h.3l.6-.2h.5c0-.1.5 0 .5 0h.4c0 .1.2.2.2.2h.7c0 .1.6.2.6.2h1.6c0-.1-.3.2-.3.2l.2.3h.8c0 .1.4 0 .4 0v-.3h.2c0-.1.4-.2.4-.2h1.2c0 .1.6 0 .6 0l.2-.9.3-.5h1c0 .1.5-.1.5-.1l.2-.2.6-.3 1.7-.4.7.6.8.6.3.6.8.2.5.5v.9l.7 1.4v.9l-.4 1-.6 1 .4.5v.6c-.1 0 0 .3 0 .3l.4 1v.4c.1 0 .3.2.3.2l.8 1.2v.6c.1 0 .5.8.5.8v.4l-.2.4.4.4h.5c0 .1.5 0 .5 0l.2.6v.7h.4l.4.6.2.6.7-.2h.2c0 .1.3.9.3.9h.4v-.2l-.2-.6-.2-.3.3-.2h.4l.4.3v-.5l-.1-.5v-.3l.7-.3h.5c0-.1.1.2.1.2h.3l.2-.3h.9v.4h.5l.2.3-.2.3.2.2h1v-.2h.3l.3.2.2.4h.8l-.2 1.3-.3.8v.3c-.1 0-.5.6-.5.6l-.5 1.2-.3 1.7v1.1c.1 0-.1.7-.1.7l.5.9.4.5v1.4l-.7 1.7-.7.2h-.2c0 .1-.2.7-.2.7v1.2l-.4.7v.3l.2.2v.7l-.4.3h-.3l-.2.2-.2.6-.2.3.3.6v.8l-.6.7-.6.2v1.1c-.1 0-.6-.1-.6-.1l-.2.3v.3l-.1.8v.5c.1 0 0 .3 0 .3l-.5.3-.7.2-.2.7.4.2v.2c-.1 0-.3.3-.3.3l-.3.3-.5.3-.3.3-.3.4v.2c.1 0-.2.4-.2.4l-.2-.2h-.3l-.3.3v.3l-.9.1-.6 1.2h-.4c0-.1-.2.3-.2.3v.5l.2.3h-.7v.3l.4.3c0 .1-.3.1-.3.1l-.4.4-.2.3-.2.2v.3c-.1 0-.1.4-.1.4l-.9.4h-.6c0 .1-.4.2-.4.2l-.4.3-.6.8v.4l-.2.4-.3.5h-.5c0 .1-.7-.3-.7-.3l-.3-.7-.4-1.1v-.4l.7-.6v-.5l.2-.5.3-.7.5-.4v-.6c.1 0 .1-.5.1-.5v-.3Zm30.1 32.4-.3.9-.5.6v.3l-.4.7-.7.9-.4.8-.2.2-.4.7-.3.3-.6 1.5-.2.6-.2.6v.2c.1 0-.3.9-.3.9v.3c-.1 0-.6.9-.6.9l-.3.2v.2c-.1 0 .2.3.2.3v.2l-.3.2-.5.3-.2-.3v-.9l.4-.3v-1c.1 0 .6-1.3.6-1.3l.2-.4.3-.3v-.3l.7-.6.2-.4.3-.7.4-.6.3-.5.2-.2.5-.6v-.5c.1 0 .2-.2.2-.2l.5-.6.3-1 .3-.5v-.3c.1 0 .4-.4.4-.4l.3-.2h.4l-.2.3Zm-68.8 95 .7.3.2.3v.5l.4.2.4.4.2.4v.5l-.2.6v.3l-.2.4-.5.7-.3.3v1.1l-.2.4-.7-.3v.4h.2v.3l-.4.3-.9-1.6-.5-.3-.2-.4-.4-.3-.3-.4-.4-.6v-.6c-.1 0-.2-.5-.2-.5l-.4-.6.2-.7.5-.5.5.3.5-.2v-.3h1.9Z"/></g></svg>