<?xml version="1.0" encoding="UTF-8"?>
<svg id="Layer_1" xmlns="http://www.w3.org/2000/svg" xmlns:amcharts="http://amcharts.com/ammap" version="1.1" viewBox="0 0 512 512">
  <!-- Generator: Adobe Illustrator 29.1.0, SVG Export Plug-In . SVG Version: 2.1.0 Build 142)  -->
  <g id="_x3C_defs">
    <amcharts:ammap bottomLatitude="70.832842" leftLongitude="-9.077734" projection="mercator" rightLongitude="36.811330" topLatitude="80.759032"/>
  </g>
  <g>
    <path id="SJ-JN" d="M16.3,478.5h-1c0,0-.2,0-.2,0l-.2.2h-.3c0,.1-.4.3-.4.3h-.5s-.1.3-.1.3l-.2.2-.5.3-.6,1-.4.5h-.3c0,.1-.2.8-.2.8h-.4c0,0-.3,0-.3,0l-.3.5-.4.6-.5.2-.5-.2v-.4s-.4-.7-.4-.7v-.3s.2-.2.2-.2h.6l.2-.7.5-.6.7-.6.7-.2.5-.2.9-.4.2-.3.4-.2.5-.4.4-.4h.7s0-.4,0-.4l.2-.5v-.4c.1,0,.5-.4.5-.4v-.6s.4-.6.4-.6l.3-.4.6-.3.2-.5.2-.2.7-.3-.5-.7v-.2s.5,0,.5,0v-.5c.1,0,.7-.2.7-.2h.6c0,0,.2-.2.2-.2l.3.2.2.3.5.5.2.3.2.4v.7l-.2.6h-.2c0,0-.2.2-.2.2v.2c.1,0-.1.6-.1.6v.7s.1.3.1.3v.6c.1,0,0,.4,0,.4l-.6.6-1.3.3h-.8c0,0-.6.5-.6.5h-.7Z"/>
    <path id="SJ-SV" d="M328.1,28.6v.2c.1,0,.4-.1.4-.1l.3.3h.3s-.3.1-.3.1v.4h-.3c0,.1-.2.6-.2.6l-.5-.2v-.3c0,0,0-.4,0-.4l.2-.6h.1ZM331.5,33.4h-.2c0,0-.2.9-.2.9l-.4-.5v-.5c.1,0-.1-.3-.1-.3v-.3c.1,0,0-.9,0-.9h-.4s.1.4.1.4h-.2l-.2-.4h-.3c0,.1,0,.4,0,.4h-.3c0-.1.2-.4.2-.4l-.3-.5v-.2s0-.3,0-.3l-.4-.4v-.2c0,0,.5-.1.5-.1v-.6c0,0,.2.3.2.3l.3.2v.5h.9c0,.1,0,.4,0,.4l.3.5.3.7h0s.2-.3.2-.3l.3-.4h.2c0,.1.3,0,.3,0v-.3c0,0,.4.1.4.1v.7c.1,0,.3.1.3.1h.2c0-.1,0,0,0,0v.4h-.6c0-.1-.2-.6-.2-.6h-.2l-.3.5.4.4-.6.3v.2ZM336,32.3l.3.5h.4s-.2.3-.2.3l-.2.2h-.2c0,.1.1.3.1.3h.3l.2.3v.7c0,0-.1.1-.1.1h-1c0,.1-.1,0-.1,0h-.4c0,.1-.4.1-.4.1v.4c.1,0-.3.1-.3.1l-.2-.6h-.3v-.2c-.1,0,0-.4,0-.4l-.3-.2v-1.1c0,0,.1-.1.1-.1h1.1c0-.1.6-.1.6-.1v.3h.4l.2-.8h.3ZM329,36.8h-.8c0-.1-.5-1-.5-1h-.2l-.2-.3v-.4s.7.3.7.3v-.6h.7c0-.1.6-.1.6-.1l.2.6h.4v-.3h.6v.3h.3l.2.7h-.2v-.3h-.4v.4c.1,0,0,.3,0,.3l-.5.2v.4s0,.4,0,.4h0c0,.1.3.2.3.2v.2c0,0-.2.1-.2.1l-.2.4-.4-.7-.3-.2v-.2s-.2-.2-.2-.2v-.3ZM322.1,43.3l.5.9v.2s.4.3.4.3v.6c0,0,0,.4,0,.4l-.2.3-.4.3v.4s-.1,0-.1,0l-.4.4h-.6v-.3c-.1,0-.5-.1-.5-.1l-.2-.8v-.6c0,0,0-.5,0-.5l.6.2h.3c0-.1,0-.4,0-.4h.4v-.5c-.1,0-.3,0-.3,0v-.5l.2-.2h.6ZM315.8,60.8l.2.4.5.8.7,1,.3.6.4.3h.6c0,.1.5.1.5.1l.2-.3h.4v.3h.2c0-.1,0-.8,0-.8h-.3l-.4-.3v-.2s-.2-.3-.2-.3v-.6s.2-.4.2-.4v-.4c.1,0,.8-.4.8-.4l.3-.4v-.4s-.2-.3-.2-.3h-.4c0-.1-.2-.6-.2-.6v-.4c.1,0,.3-.2.3-.2l.3-.3-.9-.6v-.4c0,0,0-.4,0-.4h.3l.4-.3h.2c0-.1.3-.1.3-.1h.4c0-.1-.2-.4-.2-.4h-.6c0,.1-.1-.1-.1-.1h-.2v.4c-.1,0-.4-.1-.4-.1v-.3c0,0,.2-.3.2-.3h.2s0-.5,0-.5h1.1v-.3s-.1-.3-.1-.3h-.2v-.3c0,0,.2,0,.2,0l.2-.3h.6c0-.1,0-.3,0-.3l-.2-.3h-.2c0,.1-.5-.1-.5-.1v.3c0,0-.4.1-.4.1h-.2l-.5-.6-.4-.2h-.5c0,.1-.4.3-.4.3h-.7c0,.1-.6,0-.6,0l-.3-.8v-.5c.1,0-.2-.9-.2-.9l.2-.9-.2-.7.2-1.1.6-.3v.2c.1,0,.2.4.2.4l.2.4.3.2.4.6h.5v.4c0,0,0,.6,0,.6v.3c0,0,.7.3.7.3l.2.5h.2s-.5-1.9-.5-1.9l-.3-.2v-.4c-.1,0-.3-.3-.3-.3l-.2-.3-.3-.7v-.3s.1-.1.1-.1l-.2-.5v-1s.3-.6.3-.6v-.2c0,0,.2,0,.2,0v.3c.1,0,.5.1.5.1v.4c0,0,.4.4.4.4l.5.4-.3.6h.6c0-.1.2.2.2.2v.3c-.1,0,.1.6.1.6h.4v-.4h.8l.4-.7h.4l.2.3v.8c0,0-.4.2-.4.2v.2c0,0,.6,1.6.6,1.6v.2c0,0,0,.2,0,.2l.3.3v.4c-.1,0-.4.1-.4.1l.3.3.3.5h.4c0-.1.2-1.2.2-1.2h.6c0-.1.6-.1.6-.1h.2c0-.1.4-.1.4-.1v.2s.2.3.2.3h.3c0,.1.3.3.3.3v.6c.1,0,.4.3.4.3v.5c0,0,.2.5.2.5v.5c0,0,0,.3,0,.3l.6.3.4.6-.2.5v.4c.1,0,0,.5,0,.5l-.4.3v.5c-.1,0,.2-.1.2-.1l.5.6.2.5v.5c0,0,0,.4,0,.4h.6c0,.1.6-.3.6-.3l.2-.5.4-.5.4-.3h.4c0,.1-.1.4-.1.4l.2.3v.3s0,.7,0,.7v.3s-.2.7-.2.7l.2,1.2-.2.6.4.7v.5s0,.9,0,.9h.2c0,.1.6.1.6.1v-.5h.7c0,.1.2-.4.2-.4v-.4c.1,0,.5,0,.5,0v.6s.7.4.7.4h.4l.5-.3v-.2c0,0,.5-.4.5-.4l.2-.3.4-.3v-.2c0,0,.3-.3.3-.3h.1s.3.3.3.3l.3.2-.6.2v.2c0,0,.1.1.1.1v.7c-.1,0-.3.1-.3.1v.2h.6l.4-.3v-.5s0-.2,0-.2v-.6c0,0,.4-.4.4-.4l-.2-.3.4-.6v-.3c-.1,0,0-.4,0-.4l.7.3.3.5v.4c0,0,.4.2.4.2l.2.2v.4c0,0,.4.3.4.3l.3.3h.3c0,.1.3-.4.3-.4v-.5c0,0-.2-.4-.2-.4l-.2-.8v-.5c0,0,0-.2,0-.2l.2.3h.2c0,.1,0-.3,0-.3h0c0-.1.5-.3.5-.3v.4c0,0,.3.2.3.2l.4.8v.7s0,.3,0,.3v.5s-.2.4-.2.4v.4c-.1,0,0,.5,0,.5v.2c.1,0,.2.4.2.4v.2c0,0-.3-.1-.3-.1l-.3.3v.4c0,0,0,.2,0,.2v.4s-.5,0-.5,0l-.3.6-.3.8.3.7h-.2s-.4.3-.4.3v.2c.1,0,.6-.1.6-.1h.8l.5-.3h.2v.4c0,0,.1,0,.1,0l.6.9v.5h1.1c0-.1.3-.3.3-.3h.2l-.3.5.2.3v.6c0,0,.1.3.1.3l.2.4.2.4v.4c0,0-.1.3-.1.3v.4s.3.3.3.3h.2c0,0,.2.3.2.3v.3c-.1,0-.2.2-.2.2l-.6-.4h0c0,0,.4.8.4.8h.3v.2c0,0-.3.3-.3.3l.3.7.4.2v.4c0,0,.5.4.5.4l-.2.2v.4c-.1,0,.3.1.3.1h.5c0-.1.2-.4.2-.4v-.2s-.2-.4-.2-.4l.2-.2v-.3c0,0-.2-.5-.2-.5h-.2s.2-.6.2-.6h.4c0,.1,0,.5,0,.5h.4c0,.1.4.6.4.6h.4c0,.1.2.1.2.1l.2-.6-.8-1h-.3v-.2c0,0,.2-.4.2-.4v-.5c-.1,0,.1-.6.1-.6v-.3h.6l.2-.2-.2-.4-.4-.3h-.3c0,.1-.1,0-.1,0v-.3c.1,0,.6.1.6.1l.2-.2-.3-.2-.2-.4h-.8c0-.1-.2-.4-.2-.4v-.3c.1,0,.5.3.5.3h.4s.2-.2.2-.2v-.4c0,0-.1-.5-.1-.5l-.3-.4v-.6s-.2-1-.2-1v-1s0-.3,0-.3l.2-.2.3-.8.3-.2.2-.4-.3-.8.2-.5.3-.7-.2-.4v-.4s-.2-.4-.2-.4v-.7s0-.6,0-.6v-.5c-.1,0,.2-.2.2-.2l.2-.4,1-.3v-.2c0,0,0-.4,0-.4v-.4c0,0-.3-.3-.3-.3h-.4l-.7-.3-.3-.5-.5-.3-.5-1.2v-.7s-.2-.9-.2-.9v-.4c.1,0,0-1.3,0-1.3v-.2h.5l.5-1.2.4-.3.9-.3h.7l.2.4h.2v.2c0,0,0,.1,0,.1l.2.7v.3c-.1,0,0,.7,0,.7v.3c-.1,0-.2.6-.2.6l-.2.6.3.2v.4c-.1,0-.3.5-.3.5v.4c.1,0,.4.3.4.3h.3s.4.7.4.7l.3.5h.4v-.4s-.4-.8-.4-.8l-.6-.6.3-.5v-.6c0,0,.3-.9.3-.9l.2-.2.6-.7.4-1.2-.2-.8v-.4s.2,0,.2,0v-.5s-.2-.1-.2-.1v-.3s.1-.3.1-.3l-.5-1v-.3s-.2-.9-.2-.9l.2-.5-.3-.4v-.4c0,0,.2-.6.2-.6l.2.7v.2c.1,0,.2.4.2.4l.3.2h.2s.1,0,.1,0v.2s.2.3.2.3v.3c-.1,0,.3.3.3.3l.3.5h.2v-.2c0,0,0-.5,0-.5l-.6-.4h.2c0-.1.4.2.4.2l.4.5h.4c0,.1.2.7.2.7h.7v.2s.3.6.3.6h.4c0-.1.4-.3.4-.3l.2.4.2.3v.4c-.1,0,0,.2,0,.2h.4l.2-.4v.4c.1,0-.1.4-.1.4l-.4.3h.1c0,.1.4.1.4.1v.2s-.3,0-.3,0v.5c0,0-.4,0-.4,0l-.2.5-.3.5-.4.6.2.4h.3l.3.3v.4c-.1,0-.5.3-.5.3l.2.8h.6c0,.1.2.6.2.6v.5c.1,0,.1.3.1.3l-.3.3.2.5v.3c.1,0-.2.3-.2.3v.4c0,0,.4.5.4.5v.4c-.1,0-.3.4-.3.4v.6s0,.5,0,.5h-.4s-.2.2-.2.2h-.6l-.3.4h-.3c0,.1-.5.7-.5.7v.8c.1,0,0,.7,0,.7v.9c-.1,0-.2.5-.2.5v.3c.1,0-.1.3-.1.3h-.3c0-.1-.2,0-.2,0h.3c0,.1-.2,2-.2,2l.4.7.4.2v.4s-.2.5-.2.5h.5c0-.1,0,.1,0,.1h0c0,.1,0,.5,0,.5h.2v-.3c0,0,.5.1.5.1l-.2.2v.3s.3.3.3.3l.3-.4v-.4s-.2-.4-.2-.4v-.3c.1,0-.3-.9-.3-.9l-.2-.4-.2-.3-.2-.4.2-.2h.4c0,.1.3.7.3.7h.6l.3.5.4.4.2.3h.2s-.5-.9-.5-.9l-.3-.5-.2-.3.2-.3-.3-.6h.2l.4.4.3.2.2.3v.4c0,0,.3,1.4.3,1.4l.5.4.2-.2v-1.2c0,0,0-.4,0-.4v-.4s.1-.4.1-.4l-.2-.3-.3-.6-.6-.7h0c0-.1-.3-.8-.3-.8h.2l.5.5v.4h.6v-.4c.1,0,0-.3,0-.3h.4l.5.4v.5s-.3.2-.3.2v.5s0,.5,0,.5l.4.8.5.3v.9c0,0-.3.3-.3.3v.5s.3.3.3.3h.6v-.5c0,0,.5-.1.5-.1l.2-.6-.3-.8v-.6c0,0,.4-.2.4-.2l.2-.9h.4s0,.5,0,.5h.5l.3-.2.2-.4v-.8c-.1,0-.5-.2-.5-.2v-.9c0,0-.4-.2-.4-.2v-1.1c-.1,0-.3-.3-.3-.3l.3-.4h.1c0,.1.5.2.5.2v.2h.4v-.3c.1,0,0-.2,0-.2l-.2-.3h-.2c0-.1-.3-.3-.3-.3h-.4c0,0,0-.5,0-.5l.2-.2v-.5s-.1-.3-.1-.3l.2-1.1h.2l.4.4.2.4.2,1,.3.3.2-.2v-.5c0,0,.1-.3.1-.3l.3.4h.3l.8.7.2-.7-.3-.3h-.1c0,.1-.4,0-.4,0l-.3-.3v-.2c0,0,.4-.2.4-.2l-.5-1.1v-.3c.1,0,.4-.4.4-.4l.3.4.3.4.2.5.5.6.7,1v.4c0,0,.4.4.4.4l.5-.3v-.3c.1,0,0-.5,0-.5l-.3-.3v-.2s-.4-.7-.4-.7v-.4s0-.6,0-.6h.5c0,.1.4.1.4.1l.2.3.2.4.4.3v.2s.2.2.2.2l.4-.6-.3-.3v-.3c.1,0,0-.3,0-.3h-.4c0-.1-.1-.4-.1-.4h-.3v-.6c0,0,.3,0,.3,0v.2c.1,0,.2.3.2.3h.6l.4.4h.1c0-.1-.2-.4-.2-.4v-.5s-.3,0-.3,0l-.4-.4h-.6l-.2-.3-.9-.3-.4-.3-.3-.3v-.4c.1,0,.1-.4.1-.4h.4l.3-.7h.2c0-.1.9-.1.9-.1l1.2.3v.3h.4l.3-.3h.2v.4s0,.2,0,.2l.2.3v.3c-.1,0,.2.8.2.8l.3.6h.3v.2c.1,0-.4.6-.4.6l-.5.2-.2.3v.3h-.3l-.2.4-.3.2v.2c0,0,.3-.1.3-.1v.2c0,0-.3.7-.3.7v.6s.3.2.3.2v.6h.3l.2-.4v-.2c0,0,.3-.2.3-.2h.2c0,0,.6-.2.6-.2v-.6s.4-1,.4-1h.4s0,.4,0,.4h.9c0-.1.2-.7.2-.7v-.9s.1-.3.1-.3v-.3s.1-.3.1-.3v-.5s-.1-.3-.1-.3h-.2s0-.9,0-.9h-.4c0-.1-.1-.4-.1-.4l.4-.2h.8v.3c0,0-.2,0-.2,0v.3s.8.3.8.3l.2.5v.3s-.1.7-.1.7v.3c.1,0-.1.7-.1.7v.8c0,0,0,.7,0,.7l.3.3v.3c-.1,0-.3,0-.3,0v.6c-.1,0,.1.8.1.8h.2s0,.4,0,.4h-.3v.3c0,0,.9-.1.9-.1l.2-.3h1c0-.1,0-.6,0-.6l.3-.3v-.3c-.1,0,0-.2,0-.2l.4.4v.3h.3v-.3c0,0,.4-.1.4-.1v-.3c.1,0,.7-.5.7-.5l.2.4h.9v.3c0,0-.4.6-.4.6h.3s.1.3.1.3h.4c0,.1,0,.4,0,.4h-.2l-.5-.4h-.2l-.4.4-.2-.7h-.3c0-.1-.5.2-.5.2v.2c0,0,.6.1.6.1v.3c.1,0,.3,0,.3,0l-.2.5v.4c0,0,.3,0,.3,0h.5c0,.1,0,0,0,0l-.4-.5v-.2c0,0,.6-.3.6-.3h.2s-.3.4-.3.4l.2.4h.5c0,.1,0,.4,0,.4l.2.2h.2c0,.1.5.3.5.3l.8-.3.6.4v.3c0,0-.4-.1-.4-.1v.2c0,0,.2.4.2.4l.4-.3v-.5h.7l.2-.4h.2l.2.4-.3.4v.2c0,0,1-.1,1-.1v.3h.8l.2.3h-.3c0,0-.3.1-.3.1h-.3c0,0-.2.1-.2.1v.3s.4.2.4.2l.3.5h-.3c0,.1-.1.4-.1.4h-.2l-.3-.3-.2.2v.2c0,0,.9.5.9.5l.2-.2-.3-.2v-.2c0,0,.6.1.6.1v.3c.1,0,.4,0,.4,0h.3c0,0,.3,0,.3,0v-.2c0,0-.2,0-.2,0v-.3h.5c0,.1.4.1.4.1l.2-.3h.2l.2.3h1.8c0,.1.5.1.5.1h.5c0,.1.9.4.9.4l1.2.3h.4c0,.1.3.3.3.3l.6.4h.8l.3.9h.4c0,.1.4.9.4.9l.3.6.3.8.4.8-.2.3v.2c0,0,1.3-.4,1.3-.4h.7c0,.1.7.5.7.5l.3,1.7-.2.6h-.3l-.3.6v.2c0,0-.3.6-.3.6l-.2.4v.6s-.1.5-.1.5v.6c0,0,0,.3,0,.3l.3,1-.2.4-.6,1.2.2.4v1s.6,1.2.6,1.2l.5.4v1.2s0,.3,0,.3v.4c0,0,.2.5.2.5v.4s-.2.4-.2.4v.3c-.1,0-.4.1-.4.1l-.3.6-.4.5v.3c0,0-.3.3-.3.3h-.1c0,0-.2.3-.2.3v.5c0,0-.2.1-.2.1l-.2-.4h-.2l-.2.2v.5c0,0-.3.3-.3.3l-.3-.3h-.3l-.3.4v.2c0,0-.4.3-.4.3l-.2-.3h-.5l-.4.3v.3c-.1,0-.3.3-.3.3l-.3.3v.7c0,0-.3.4-.3.4v.6c.1,0,0,.9,0,.9h-.5l-.2.6-.7.4h-.6c0,.1,0,.6,0,.6l-.4.4-.2.2-.2.2v.6c-.1,0-.6.3-.6.3l-.2.5v.2c0,0-.3.3-.3.3h-.4c0,.1-.3.5-.3.5l-.6.2h-.4c0,.1-.2.5-.2.5l-.6.2-.2.5h-.2l-.3-.2-.5.2v.2c0,0-.9.1-.9.1l-.3.5-.7.5-.4.4-.2.7-.2.2v.3c-.1,0,0,.6,0,.6v.8c0,0,.2.4.2.4v.2c.1,0,.7.4.7.4l.2.4v1.8c0,0-.4.6-.4.6v.2s-.2.2-.2.2l-.3.9v.3c-.1,0-.4.4-.4.4l-.6.3-.2.4-.2.5-.5.2-.5.9-1,1.3h-.4l-.5.5-.4.4-.9.5-1.3-.2h-1.3l-.6.2h-.4c0,.1-.4.5-.4.5h-.6c0-.1-.4.1-.4.1v.4c-.1,0-.7.1-.7.1l-.7.5h-.7c0,.1,0,.5,0,.5h-1.9c0,.1-.4.6-.4.6h-.3c0,.1-.4.5-.4.5l-.5.7h-.4c0,.1-.6.5-.6.5l-.4.5-.2,1v.5s-.5,1.4-.5,1.4l-.4.6h-3.8c0-.1-.5-.1-.5-.1h-.3c0-.1-.5-.4-.5-.4h-.4c0,.1-.3-.2-.3-.2l-1.3-.2v-.2c-.1,0-.3-.4-.3-.4l-.8-.5h-.1c0-.1-1.1-.2-1.1-.2h-1.3c0-.1-.4-.6-.4-.6h-.4l-.2-.2v-.2c-.1,0-.2-.4-.2-.4v-.4s-.3-.3-.3-.3l-.3-.7v-.7s.1-.5.1-.5l.3-1,.3-.4h.2c0-.1.5-.2.5-.2l.3-.5-.3-.3-.2-.5-1.1-.2v-.2c0,0-.2-.1-.2-.1h-.9v.2c0,0-.4.1-.4.1h-.3c0-.1-.3-.1-.3-.1h-.4c0,.1-.4-.6-.4-.6h-.6l-.3.5h-.4c0,.1-.4.1-.4.1v-.2h-.4v.2c0,0-.3.2-.3.2h-.1s-.4,0-.4,0v.2h-.3l-.2-.2h-.3c0,.1-.2.2-.2.2h-.2c0,.1-.4.1-.4.1h-.3c0-.1-.2,0-.2,0l-.3.5h-.4l-.2.2h-.5l-.6.2v.2c0,0-.3.4-.3.4l-.2-.3h-.3c0,0-.3-.5-.3-.5h-.6c0,.1-.6-.6-.6-.6l-.5-.2-.8-.4h-1.3c0-.1-.5-.4-.5-.4l-.5.2-1,.2-.5.2-.9.4h-.7c0,.1-.3.4-.3.4h-.7l-.7-.4h-.9c0-.1-.3-.2-.3-.2l-.3-.3v-.3s.3-.9.3-.9h.2s.3-.4.3-.4l-.2-.7h-.2s-.5-.4-.5-.4l-.4-.2-.5-.6h-.6c0-.1-.4-.1-.4-.1h-.7l-.4-.5-1.1-.2-.6-.4h-.4v-.2c-.1,0-.4-.4-.4-.4h-.3l-.5-.2h-.2c0,0-.3.2-.3.2h-.5c0-.1-.3-.6-.3-.6v-.3s-.1-.3-.1-.3v-.4c-.1,0-.2-.6-.2-.6l-.3-.5-.3-.5h-.3c0-.1-.6-.5-.6-.5l-.5-.6-.5-.6v-.3c0,0-.2-.5-.2-.5h-.3c0,.1-.4-.2-.4-.2h0c0-.1.2-.4.2-.4v-.2c0,0,.1-.3.1-.3l-.3-.3v-.3c0,0-.3-.3-.3-.3l-.2-.3v-.4c.1,0,.5-.8.5-.8l1.3-.2.8-.4h.5s.4-.2.4-.2h.5c0,.1,1.2.2,1.2.2l.5.2.4.2.4.7-.2.2v.5h.8v.7c0,0,.6.4.6.4l.2.4h.7c0,.1.3.1.3.1v-.2h.5v.4h.3c0,.1.3.1.3.1l.3-.2h.4c0-.1.2-.7.2-.7h.3s.4,0,.4,0h.1s.2.6.2.6h.2v-.2c0,0,0-.3,0-.3h.4c0-.1.2-.2.2-.2h.2s.4.2.4.2h-.1c0,.1,0,.3,0,.3l.3.5v.5c.1,0,.4-.2.4-.2h.2s.1.7.1.7l-.2.4h.5l.3.4h.7c0,.1.6.5.6.5h.3l.3-1,.2-.3.4-.5-.2-.3-.4-.4h-.3c0,.1-.6.2-.6.2v.2h-.9c0-.1-.3-.4-.3-.4v-.3c0,0-.3-.6-.3-.6h-.2c0-.1-.6-.7-.6-.7l-.6-.4h-.6c0,.1-.9-.1-.9-.1l-.2-.2h-.2c0-.1-.6-.2-.6-.2l-.2-.3-.3-.5-.3-.9v-.4c-.1,0-.8-.9-.8-.9v-.3c0,0-.3-.2-.3-.2l.2-.3h.4v-.3c.1,0,.9-.3.9-.3l1-.3h.4c0-.1.4-.1.4-.1l.5-.3h.5c0-.1.4.3.4.3h.3l.3-.5.4-.3h1.1l.5-.3h1c0,.1.7.3.7.3h.2c0,.1.2.1.2.1l.2-.4h.3c0,0,.4,0,.4,0l.2.2v.6c0,0,.9-.3.9-.3l.3.4h.3c0,.1.3.3.3.3h.6c0-.1.3-.1.3-.1h.7c0,.1.6-.1.6-.1l.3-.3.2-.4v-1c0,0,.6-.3.6-.3v-.3c.1,0,0-.5,0-.5l-.5-.4-.5-.2v-.2c-.1,0-.3-.4-.3-.4h-.7c0-.1-.5.1-.5.1l-.3-.5v-.5s0-.3,0-.3l.2-.2h.7c0,.1,0-.3,0-.3h-.5l-.4-.4v.3c0,0-.4.1-.4.1v.4c-.1,0-.3.4-.3.4h-.2s.5-2,.5-2h.7l.2-.2v-.2c0,0-.8-.4-.8-.4l-.4-.3h-.3c0-.1-.2-.1-.2-.1h-.5c0,.1-.5.3-.5.3v-.3h-.9v.3c0,0-.6.3-.6.3h-.4l-.7.4-.2-.2h.3v-.2l-.4-.3h-.3l-.2.2.2.3-1.1.5h-.9c0,.1-.3.1-.3.1v-.4c-.1,0,0,0,0,0l-.3-.2-.4.8h-.6c0,.1-.6,0-.6,0l-.3-.3h-.5v-.3h-.4l-.6,1.3v.3h-.7c0,.1-.3,0-.3,0l.2-.2v-.5h-.6c0,.1-.4,0-.4,0l-.2.3v.2c0,0-.6.1-.6.1l-1.1.3v.3c0,0-.5.3-.5.3h-.3c0,.1-.1-.1-.1-.1l-.3-.2v-.3s-.3-.3-.3-.3v-.3h-.3l-.2,1v.3c-.1,0-.4.4-.4.4l-.7.3-.6.3h-.3c0,.1-.7.1-.7.1h-1c0,.1-1.2.3-1.2.3l-.5.5-.2.4v.2c0,0-.3.8-.3.8l-.2-.6-.2-.3-.5-.2.2-.2h.4v-.5c0,0,.2-.7.2-.7l-.2-.2-.3-.4h-1.6c0,.1-.6,0-.6,0h-.3c0-.1-.4-.1-.4-.1h-.4c0-.1-.2-.1-.2-.1h-2.1c0,.1-.2.5-.2.5h-.3c0,.1-.1.5-.1.5h-.4c0,.1-.2-.3-.2-.3v-.5c0,0-.4-.4-.4-.4h-.8c0-.1.1-.6.1-.6l-.4-.2h-.2s-.3,0-.3,0v.2c0,0-.1.2-.1.2h-.3c0-.1-.2-.5-.2-.5l-.2-.3h-.2c0,0-.2.3-.2.3h-.6c0,.1-.3.1-.3.1v-.2c-.1,0,0-.2,0-.2v-.4s-.2-.4-.2-.4l-.3-.3h-.2c0,0-.1-.9-.1-.9h-.4c0-.1-.3.1-.3.1h-.3c0-.1-.2-1-.2-1v-.5s0-.6,0-.6l-.3-.4v-.3c-.1,0-.1-.6-.1-.6l-.2-.6-.3-.7h-.4c0-.1,0-.6,0-.6l.2-.2.2-.5.2-.5.2-.6.4-.2v-.6h.3v.4c0,0,.2.2.2.2h.8v-.3c-.1,0-.2-.4-.2-.4h-.3c0,.1-.2-.5-.2-.5h-.5c0,.1-.9.3-.9.3l-.5.8-.2-.5.3-.4.3-.4.3-.3h.2l.5-.4.6-.4.2-.5v-.4s.2-.5.2-.5h.1c0,.1,1.3.1,1.3.1l.2.2h-.7c0,.1,0,.5,0,.5v.3c.1,0,.2.2.2.2l-.4.3v.2c0,0-.2.3-.2.3h-.2l-.2-.4h-.1s0,.3,0,.3h-.3c0,0,0,.1,0,.1l.4.3v.5c0,0,.2.4.2.4h1.2c0-.1.4-.3.4-.3h.4c0-.1.1-.6.1-.6h.2c0,0,.1.4.1.4h0c0,.1.5.3.5.3v-.2s-.2-.1-.2-.1l-.2-.4h.5s.1,0,.1,0v-.4c.1,0,.2-.2.2-.2v-.6s.6.3.6.3v.4s.6.1.6.1l.2.5h.4c0,.1,0-.1,0-.1h-.2l-.2-.3.2-.3h.3s.3,0,.3,0v-.5c-.1,0-1-.5-1-.5h0c0-.1.4-.3.4-.3h-.2v-.4h-.5c0,.1-.2-.2-.2-.2h.8s.3-.4.3-.4l.3.3h.3l.7-1.3-.5.4h-.2l-.2-.3v-.3c0,0,0-.4,0-.4h.3c0-.1,0-.4,0-.4l.2-.3.4.8.4-.2.2-.4-.3-.4v-.5c0,0-.1-.3-.1-.3h-.6c0,.1-.3-.2-.3-.2l-.2-.2-.2-.3.3-.5.5-.3h0c0-.1-.3-.5-.3-.5l-.2.3h-.2l-1.1-.7h-.2v.3h-.4l-.2-.4.2-.4-.5-.4h-.3l.2.3h-.2c0,.1-.4,0-.4,0v.5s.3.4.3.4l.2.3v.6s.2.1.2.1h.2c0-.1.2,0,.2,0v.2c.1,0,0,0,0,0h-.2c0,.1-.3.8-.3.8h-.6c0,.1-.3.2-.3.2v.6s.3.2.3.2l.3.2v.3c0,0-.2.6-.2.6l-.3-.3v-.4c-.1,0-.3-.3-.3-.3h-.3l-.5.3h-1.6v.3c0,0-.6.5-.6.5l-.2-.3v-.6s-.2-.3-.2-.3v-.4c-.1,0-.7-.1-.7-.1v.3s.1.6.1.6h-.5v-.2c-.1,0-.2-.4-.2-.4v-.3c0,0-.6-1.6-.6-1.6v-.8s-.4-.7-.4-.7l-.4-1.5h-.2c0,.1-.4,0-.4,0v.2c0,0,.4.8.4.8v.8s-.3-.2-.3-.2v-.2s-.3-.6-.3-.6v-.3c0,0-.2-.3-.2-.3v-.6h-.9l-.9.8h-.4s0-.3,0-.3v-.3s.5-.1.5-.1v-.2c0,0,.2-.4.2-.4h.2c0,.1.2,0,.2,0v-.9c-.1,0,.2-.3.2-.3h.8l.5-.3v-.6c0,0-.3-.6-.3-.6v-.2h.3l.3.9.3.3h.1c0-.1.3-.3.3-.3h.2c0-.1.1-.2.1-.2h.1l.3-.4.2.4h.3l.3.3v.3h.8c0-.1.6-.3.6-.3l.2-.3h.3s0-.4,0-.4h-.2s.1-.5.1-.5l.2.2v.4c.1,0,.3.4.3.4l.3-.2v-.6c0,0,.3.5.3.5h.4l.4-.3.3.3.3.9.5.3-.2.2.2.3h.2c0-.1.5.1.5.1l.2-.2v-1.2s.2-.2.2-.2h.4v-.3c.1,0,0-.4,0-.4h-.2c0,.1-.4-.3-.4-.3v-.4c0,0,.1-.3.1-.3l.3.3h.7c0,.1.5.7.5.7h.4c0,.1.1.4.1.4h.3c0-.1,0,.1,0,.1h-.2l-.2.2.2.4h.2l.2.3v1c-.1,0,.2.2.2.2h.2c0-.1.2,0,.2,0l.4.7.5.5.5,1,.2.3h.2c0-.1.3.1.3.1l-.2.2.2.5v.2c.1,0,.6.3.6.3v-.5c.1,0,.4.5.4.5h.6l.5-.4v-.3c.1,0-.2-.2-.2-.2v-.6s0-.4,0-.4v-.5c-.1,0,.3-.3.3-.3v-.5c.1,0,0-.1,0-.1h-.2c0,.1-.2-.2-.2-.2l-.2-.4v-.3c0,0,.3-.1.3-.1l.2.4h.7l.4.4h.5c0,.1.4.1.4.1l.2-.4-.5-.3v-.3l-.5-.5h-.6c0-.1-.3-.3-.3-.3l-.3-.3h-.9c0,.1-.3-.2-.3-.2v-.3s0-.2,0-.2l-.4-.3h-.4c0,.1-.2-.1-.2-.1l-.3-.8v-.4s-.2-.3-.2-.3v-.9s-.4-.3-.4-.3l-.3-1.6-.4-.8v-.4s0-.6,0-.6l.2-.6-.5-1.7-.3-.7v-.7c0,0,0-.3,0-.3h.2c0-.1.4.1.4.1h.1s0-.3,0-.3h.9c0,.1.3.7.3.7h.9c0,.1,0,.4,0,.4h-.2v.5c.1,0,.6.4.6.4l.4.7.4.4.2.6v.5c0,0,.5,1.2.5,1.2ZM367.3,49.6l.5.3.4.7v.4c-.1,0,0,.5,0,.5h.2s.2.7.2.7l.5.3v.3s-.2.2-.2.2v.5c0,0-.5.4-.5.4l-.9-.3h-.7v-.5c-.1,0-.5-.2-.5-.2l.2-.5h.2s-.1-.3-.1-.3v-.5s.4-1.3.4-1.3v-.6s.3,0,.3,0v-.3s.2.1.2.1ZM302.2,59.5v-.2c0,0-.2.3-.2.3h-.4v-.3c0,0,.1-.1.1-.1v-.2c0,0,0-.1,0-.1h.2c0,.1,0-.1,0-.1h.2s-.2-.5-.2-.5h-.3s.2-.7.2-.7v-.2c0,0,.4.1.4.1l.2-.5h.1l.3-.4v-.6c0,0,0,0,0,0l.2-.4h.3c0-.1-.3-.2-.3-.2v-.2h.3v-.2c0,0,0-.4,0-.4h.2v.3h.3l.2.4h.3v.3h.7v.4h.4c0,.1.2,0,.2,0v.3h.5c0,.1.1.4.1.4h.2c0-.1.2.4.2.4v.4s.1.3.1.3h.2c0-.1,0,.2,0,.2h-.2s0,.4,0,.4l-.2.2v.2h.9v-.4h.4v.2c.1,0,.1.5.1.5h-.2s-.2.6-.2.6h-.5c0-.1-.6.3-.6.3l.3,1.3h-.1v.4c-.1,0-.5.3-.5.3h-.3c0-.1-.4.5-.4.5l-.4-.7h-.2l-.2.2v.2c0,0,0,0,0,0v.2c0,0-.3.1-.3.1v-.8c0,0-.1-.3-.1-.3h-.2v-.3h-.2l-.6-.7h-.7c0-.1-.2-.7-.2-.7h-.3c0-.1,0,.1,0,.1h-.4v-.2ZM450.3,73.8l-.5.3h-.6c0,.1-.4.4-.4.4l-.2.3h-.5c0,.1-.5.1-.5.1l-1.1-1-.7-1.6-.4-.2-.2-.4v-.4c.1,0,.2-.6.2-.6l.3-1.1.4-1.3.4-.8.3-.4.7-1.2,1.1-.8,1-.7.7-.5.7-.5.7-.5.7-.7.7-1.2.4-.3.8-.7.4-.3,1.6-.7h.6c0-.1,1.5-.9,1.5-.9l.7-.3.8-.3h1.7l1.2.5,1,.7.2.4v.3c.1,0,.7.4.7.4l.3.8v.9c0,0,.5.3.5.3l.7.4h1.1c0,.1,0,.4,0,.4l.3.3h.3v.3c.1,0,0,.2,0,.2l-.7.7v.3s.2.2.2.2v1.1c0,0-.6.8-.6.8l-.6,1.3.3.6h-.4v-.3h-.9c0-.1-.1.1-.1.1h-.3c0,.1-.7,0-.7,0l-.6.4v.3c-.1,0-.9.3-.9.3l-.9.3h-.5c0,.1-.5.1-.5.1h-1.1l-.4.3-.9.7-1.1.4h-1.6c0-.1-.6,0-.6,0l-1,.3-.7.9-.9.8-.8.5-.8.3ZM502.5,67.6l.6.3.2.5-.3.3h-.2v-.3s-.4.1-.4.1l-.2-.3v-.5s.2,0,.2,0v-.3c.1,0,.3,0,.3,0ZM407.2,72v-.3s-.2-.7-.2-.7v-.5s-.3-.3-.3-.3v-.3c.1,0,.2-.2.2-.2v-.3h.4v-.4s.3-.3.3-.3h.4v.2c0,0,0,.3,0,.3l.2.3h.4c0,.1,0,.4,0,.4h.3c0,.1,0-.1,0-.1h.3c0-.1.3.2.3.2l-.2.4.2.4h.4c0,.1.5.4.5.4h.2c0,.1.5.5.5.5v.5c0,0-.2,0-.2,0v.2c0,0,0,.8,0,.8l-.4.5-.3.3-.4.2-.5.4h-.3c0-.1-.4-.4-.4-.4l-.4-.5-.3-.3-.3-.8-.2-.7ZM224.5,99.6l.3-.2v.2c0,0,.5.2.5.2l.2.2.2-.3-.4-.2v-.3c.1,0,.5.1.5.1l.4.3v.6s.3.3.3.3l.7-.4h.6s.5,0,.5,0l.4.3h.5c0-.1.3.2.3.2l.2.3h.3c0,.1.3-.1.3-.1h.2c0-.1.3,0,.3,0l.2-.7-1.5-.9v-.4h-.5v.2c0,0-.7-.9-.7-.9l-.2-.4-.3-.5-.2-.4h.4c0,0,.3,0,.3,0h.2c0,.1,0-.6,0-.6l-.2-.2h-.9l-.2-.2-.4-.8h.4l.6.5.2-.2-.6-.4v-.3c-.1,0-.6-.1-.6-.1l-.2-.5v-.6c.1,0,.3-.2.3-.2l.4.3h.3c0,0,.2.4.2.4v.4c0,0,.3,0,.3,0v-.2s-.2-.7-.2-.7v-.2c-.1,0,.1-.5.1-.5l-.6-.4-.6-.2v-.7s.2-.2.2-.2l.7.3v.3c0,0,.5,0,.5,0v.3c.1,0,.4,0,.4,0l-.2-.3.2-.6.4.7.2.3.3.2v.5c0,0,.3.3.3.3l.7.3.2-.9h-.2c0,0,0-.5,0-.5l.2-.3-.4-.6.2-.3v-.4s-.3,0-.3,0v-.3c0,0,.3,0,.3,0l.2.2h.2c0,.1.3,0,.3,0v-.2c-.1,0,.2-.8.2-.8v-.8s.3,0,.3,0v-.2c0,0,1.2.1,1.2.1v-.3s.4-.3.4-.3l.4.5v.3s-.1.3-.1.3v.2s.3.3.3.3l.2.4-.2.3-.2.4-.7.2v.3c0,0,.2.4.2.4h.3c0,0,.2-.3.2-.3l.6.5.2-.3.4.7v.2s-.3,0-.3,0h-.1c0,.1-.2.3-.2.3v.2s.1.2.1.2h.4c0-.1,0,0,0,0v.9c0,0-.4-.2-.4-.2l-.3.2v.7c.1,0-.4,0-.4,0v.3s.4,0,.4,0h.2c0-.1.6,0,.6,0l.3.3.2.5h-.4c0,0-.1,0-.1,0l-.2.4h-.3s-.3.3-.3.3v.3h.3l.7.2-.5-.5h.5c0,0,.2-.1.2-.1h.5c0,0-.3.5-.3.5l.2.4v.4c.1,0,.1.2.1.2l-.3.5.4.3v.2c0,0,.3.2.3.2h.5c0,0,.2-.3.2-.3v-.3c0,0,.2-.6.2-.6l-.2-.4v-.6c0,0-.1-.3-.1-.3v-.2c.1,0,.4,0,.4,0l.4.5v1c0,0,.5.2.5.2v.6s.2.4.2.4h.5c0,.1.3-.5.3-.5v-1.6c0,0-.4-1.3-.4-1.3l-.3-.8v-.5c0,0-.9-.3-.9-.3v-.2s.3,0,.3,0h0c0-.1-.3-.7-.3-.7v-.4s-.3-.7-.3-.7v-.3s-.4-.5-.4-.5v-.2c0,0,.2-.2.2-.2l.2-.4v-.4c0,0,.2-.2.2-.2v.2s.3,0,.3,0v-.9c0,0-.1-.2-.1-.2v-.6s.4.2.4.2h.2c0-.1.3,0,.3,0v.2c-.1,0,.4.4.4.4l.2-.3-.2-.3h.8l.2.6v.2c-.1,0,.6.8.6.8l-.6.3v.4c-.1,0-.4.2-.4.2v.2s.2,0,.2,0h.2c0-.1.3.3.3.3v-.4c.1,0,0-.2,0-.2l.2-.2v.2c.1,0,.2.4.2.4v.3c0,0,0,.6,0,.6h.2c0,0,.3,0,.3,0v.3c.1,0,0,.3,0,.3v.2c-.1,0-.4.3-.4.3v.3c0,0,.2,0,.2,0v-.2c0,0,.4,0,.4,0l.4-.2.2-.2.4-.3.3-.5h.2v.3c.1,0,.5-.1.5-.1l.4.3.5-.3.5-.5v-.3s.5-.2.5-.2l.3-.9.7-.6.6-.5.7.2h.6c0-.1,1.2-1,1.2-1l.4-.7.6-.2h.5c0,.1.5,0,.5,0l.4-.4,1.2-.3.4-.4.6-.3.4-.3v-.4s.3.1.3.1v.2c.1,0,.6.2.6.2l.4.7v.5c0,0,.2.4.2.4l.2.6v.7s.3.3.3.3l.2.3.2.5v.5c-.1,0-.6.4-.6.4v.4s.2.3.2.3v.2s-.3.4-.3.4l-.2.3v.5s-.3.3-.3.3v.3c0,0,.3,0,.3,0v.3c0,0,0,.1,0,.1l-.4.6-.6.4-.5.4v.4c.1,0-.6.5-.6.5v.3h.3l-.2.4h-.2s-.3-.3-.3-.3l-.3.3-.3-.4h-.5c0,.1-1.1,0-1.1,0l-.8-.4h-.5c0,.1-.2-.3-.2-.3l-.5-.3h-.3s-.3.4-.3.4v.3c0,0-.3.2-.3.2h-1.6l-.5.7.2.5v.3s-.3.4-.3.4h-.1c0,.1-.4.3-.4.3l-.3.4-.4.8-.6.5h-.1c0-.1-.4,0-.4,0v.6s-.5.3-.5.3l-.3.4h-.3c0,0-.2.2-.2.2l.9.2v.2c-.1,0-.5,0-.5,0l-.3.2v.2s-.4,0-.4,0l-.2.3h-.2l-.5-.5-.7.5h-.4l-.7-.6h-.4s0,.3,0,.3l-.4.2.7.2.2.3.2.4h.6s.1.2.1.2l-.2.3v.5s0,0,0,0l-.8.4h.5l.4.4-.2.2v.3c.1,0-.3.1-.3.1h-.2c0,0-.1.4-.1.4l.3.2v.2c0,0,.7.1.7.1v-.2c.1,0,.2-.2.2-.2h.3c0,0,.6,0,.6,0h.2c0,.1.2-.2.2-.2v-.2c0,0,0-.6,0-.6l.2-.2.3-.2.2-.3h-.6c0,0,0-.4,0-.4l.7-.2h.4s.2-.4.2-.4l-.2-.3.3-.4h.4s0,.7,0,.7l-.2.2v.6s.8.2.8.2l.5-1,.9-.5.2-.5h.6c0-.1.3-.4.3-.4h1.3c0,.1.3,0,.3,0h.3c0,0,.3.3.3.3h.9c0,.1.2-.1.2-.1h0c0,0,.5-.2.5-.2v.4s-.1.2-.1.2l.5.3.3.4v.5c0,0-.8,1.1-.8,1.1v.6c-.1,0-.7.8-.7.8v.2c0,0-.3.2-.3.2l-.4-.2-.5.6v.2c0,0,.4,0,.4,0v.6c.1,0-.1.6-.1.6v.5s-.3.3-.3.3l.2.4.3.2v-.7c0,0,.6-.2.6-.2l-.2.3v.9c0,0,.5.3.5.3h.3c0,0,.2.4.2.4v.2c-.1,0,0,.7,0,.7v.4c.1,0,.3-.2.3-.2v-.7c0,0,.4,0,.4,0v-.2c0,0,0-1.1,0-1.1l-.3-.6v-.3c0,0,0-.2,0-.2v-.2h.3l.5.2h.3c0,.1,0,.5,0,.5l.3.5h0c0,.1.2-.2.2-.2h.1l.6.7.2.3.4.9.4.5v.2h-.4l.4,1.3.2.2h.2c0-.1.2,0,.2,0h.2c0,.1.6.7.6.7l-.3.5.6.6-.5.2v.3c-.1,0,0,.5,0,.5l.2.8v.9c0,0,0,.8,0,.8l-.2.7v.3h-.3v.4s.3.4.3.4l.4-.2h.4c0,.1.3-.3.3-.3l.7-.2.3-.7.3-.5v-.3c0,0,.6-1,.6-1v-.7s-.3-1.3-.3-1.3l-.3-.5-.3-.6-.7-.5v-.3c0,0,.2-.2.2-.2v-.4c0,0-.4-.6-.4-.6l.3-.7.2-.4v-.2s-.3-.4-.3-.4l-.2-1-1.1-1.2h.3c0,0,.2-.6.2-.6v-.6c0,0-.6-.6-.6-.6v-.3s0-.7,0-.7h-.2c0-.1,0-.5,0-.5v-.4c0,0,.3,0,.3,0v-.2c0,0,.1-.3.1-.3l-.2-.2.2-.4.4-.2.7-.7.3-.7v-.4c0,0,.3-.2.3-.2l.2-.2.5.2h.3v-.2c0,0,.1-.2.1-.2l.6.5.2-.2v-.7s-.3-.4-.3-.4h-.5c0,0-.4-.9-.4-.9l.3-.3v-.3c0,0,.5-.4.5-.4h.4c0,0-.2-.3-.2-.3h-.2c0,0,.3-.9.3-.9l-.2-.4.5-.5.4-1,.4-.4v-.3c0,0,.4-.5.4-.5h.3s.2.2.2.2l-.2.5.3.3v-.6c0,0,.3-.4.3-.4h.5c0,0-.4-.5-.4-.5l-.8.4v-.4s.1-.8.1-.8v-.2c0,0,.2-.5.2-.5v-.4c0,0,.6-.3.6-.3l.2-.4v-.9s.5-.2.5-.2v-.3h.3l.3.4h.8l1,.2h.2s.2.3.2.3h0c0,.1.1.5.1.5l.2.3.2.4v.4s.6.6.6.6l.2.4.3.6.3.6.3.4-.2.3v.3s.5.6.5.6h.4c0,0,0,.5,0,.5l-.2.3v.4s.3.4.3.4l.4.7v.2c.1,0,.2.5.2.5v.2c0,0-.1.3-.1.3l.2.5.3.3.4,1.1.9.2-.4,1,.2.9-.2.6-.2.2.2.5.3.4v.3c0,0-.2.2-.2.2l-.3.7.3.2v.5c0,0-.3.5-.3.5l.2.2h1c0,0,.3.5.3.5v.5c.1,0,.4.7.4.7l.4.2-.5.6.2.2.3-.2h.2c0,0-.3.8-.3.8v.6c-.1,0,.2.6.2.6l-.2.2v.4s.1.5.1.5l.2.2v.2c0,0,0,.5,0,.5v1s0,.5,0,.5l.2.2v.7c.1,0,.6.8.6.8v.5h-.3c0,0,0,.2,0,.2v.5l.2.3h.9c0-.1-.2.3-.2.3l.5.3-.3.3v.5c.1,0,.1.3.1.3l.2.7.2.2.2-.4v-.2c0,0,.3-.2.3-.2l-.3.9.3.2v.5c0,0,.5.6.5.6l.3.4.3.4-.2.9-.2.2h.3c0,.1,0,.5,0,.5l-.5.2-.2.4v.7c0,0-.3.5-.3.5l-.2.4-.4,1.1v.8c-.1,0,.1.4.1.4l-.2.4-.2.3.2.3.6.4.2-.2h.3s0-.4,0-.4v-.5c.1,0,.3-.7.3-.7l.3-.4v-.4c.1,0,.5-.4.5-.4l.2.6.6.5h.2c0,0,.1.1.1.1l-.2.2v.7c.1,0,.4.7.4.7l.5.7.4.3-.2,1.3.6.5v.5s.1.7.1.7v.3c.1,0,.1.5.1.5h-.8c0,.1.5.4.5.4h.4c0,0,0,.4,0,.4h.4c0,.1.2.4.2.4v.5l-.2.2.4.6h-.3s0,.2,0,.2h.3c0,.1.6.5.6.5v.2h-.3l.3.6.8.5v.3c0,0,.1.2.1.2h.2c0,0,0,.4,0,.4l-.2.2.3.8h.3s.5.5.5.5h.3s.7-.1.7-.1l.3-.2.2-1-.6-.6.5-.8h-.6c0,0,0-.8,0-.8h-.4s0,.3,0,.3h-.2l-.2-.3v-.9c.1,0,0-.4,0-.4l-.3-.3.2-.3v-.3c0,0,0-.4,0-.4h-.4c0,0,0-.2,0-.2v-.8s.2-.4.2-.4l-.3-.5v-.6c0,0,0-.4,0-.4l-.3-.4v-.4s-.1-.9-.1-.9l-.2-.4v-.2s0-.4,0-.4l-.8-1h-.2c0,0-.2,0-.2,0v-.3s.3-.1.3-.1v-.4c0,0-.5-2.2-.5-2.2v-.8s-.1-1.4-.1-1.4l-.2-1.1-.3-.7-.3-.8-.5-.8-.4-.7-.3-1,.3-.5v-1c-.1,0-.4-1.8-.4-1.8l.2-.7-.5-.8v-.7s0-.3,0-.3l.2-.6v-.9l-.4-.6v-.9s.2-.2.2-.2l-.3-1.2.3-.5v-.6c0,0-.4-.3-.4-.3l-.2-.2v-.3s0-.2,0-.2l.3-.2-.3-1.2.6-.2.6.4h.6c0-.1,1.6.5,1.6.5v-.2c0,0,0-.2,0-.2h-.3c0-.1-.3-.2-.3-.2l-1.7-.4v-.5c0,0-.8-.2-.8-.2v-1.5c-.1,0-.3-.2-.3-.2l-.3-.5.2-.4-.4-.7v-.5c.1,0,.2-.4.2-.4l.2-.2h.3c0,.1,0,0,0,0l-.4-.3v-.3s-.3-.2-.3-.2l-.8.2v-.5s.3-.3.3-.3v-.3c0,0,0-.3,0-.3v-.5c-.1,0-.5-1-.5-1v-1.1s-.2-1.3-.2-1.3v-.6s0-.4,0-.4l-.2-.5v-1.3s0-.2,0-.2v-.6c0,0-.4-.4-.4-.4v-.5s.2-.3.2-.3v-.7c0,0-.1-.2-.1-.2v-1.2s.4-.3.4-.3l-.2-1.1v-.2c.1,0,.2,0,.2,0l.3-.3.2-.2h.9c0,.1.3-.4.3-.4h.2s0,.2,0,.2l.4.5h.2c0-.1.6,0,.6,0l.7.2.6.3.6-.2h0c0-.1-.3-.4-.3-.4l-.3-.3v-.3c0,0,.3-.4.3-.4v-.3s-.7,0-.7,0l-.3.2-.2-.4v-.3c0,0-.8-1.1-.8-1.1l-.2-.4v-.8c.1,0,.2-.3.2-.3v-1.2c0,0,0-.4,0-.4l.3-.7h.2l.2-.3-.2-.2.4-.6-.4-.5.5-.7v-.3s.3-.2.3-.2h.3c0,0,.5-.4.5-.4l.2-.4v-.8c0,0,.5-.2.5-.2l.4-.6h.2s0,.2,0,.2l.4.2h.3c0-.1.4.2.4.2v.3c0,0,.3,0,.3,0h.6l.4.4h.2c0-.1.4-.3.4-.3l.3.9v.5s0,1.2,0,1.2l-.3.2v.5c.1,0-.1,0-.1,0l-.3-.2h-.3s-.3.5-.3.5h.6c0,.1.3.5.3.5h-.4s-.2.3-.2.3l.4.3h.3c0,0,.3.4.3.4v.3c0,0-.4,0-.4,0l-.2-.3h-.4c0,.1,0,.7,0,.7h.5c0,0,0,.3,0,.3l.5.4.7-.4.3.2v.6c.1,0,0,.3,0,.3h-.2c0,.1,0,1.2,0,1.2l.6.7v.5s.1.5.1.5h.3s.2.3.2.3v.7c0,0,.3.3.3.3h.7c0-.1.6,0,.6,0l.2-.3v-.6c0,0,.2-.3.2-.3v-.4s-.3-.2-.3-.2l-.2-.2-.2-.9-.3-.3v-.3c0,0,.4-.2.4-.2l.3-1.3h.3s.6-.5.6-.5h.8c0,.1.9.2.9.2l.5.4.3.5,1,.7.5.5v.7c0,0,.3.5.3.5l.3.2.8.3h.6l.3.7.7,1,.3.5v.3c.1,0,.5.8.5.8l-.2.5h-.4c0-.1-.5,0-.5,0l-.4-.2-.3.3.4.4h.4l.4.5.4.3h.8c0,0,.3.7.3.7l.2.2.3.4.3.2v1.2c-.1,0,.2.4.2.4l.7.6v1.3c.1,0,0,.1,0,.1v.4s.4.3.4.3l-.2.5v.3c.1,0-.6,0-.6,0l-.3.5v.3s-.5,0-.5,0l-.2.2h-.2c0,.1.3.6.3.6h.2c0,0,0,.5,0,.5h-.3c0,0-.5.9-.5.9v.4c.1,0,0,.2,0,.2l-.6.3.2.2h.2s0-.2,0-.2h.2v.4c-.1,0-.4.4-.4.4l-.4.2v.4c-.1,0-.3.1-.3.1h-.5c0,0,0,.7,0,.7h.2c0,0,0,.4,0,.4l-.3.5h-.3c0,0-.2.3-.2.3v.2c0,0,.2.5.2.5h.4l-.3.5h-.3c0,0-.1.4-.1.4l-.2.7h.6s.2,0,.2,0l.3.3-.2.4.3.9.4.4v.2s0,.3,0,.3v.5c.1,0,.1.4.1.4v.5s-.3.8-.3.8v.6s.2.2.2.2l-.2.5-.3.4-.2.6-.3.2h-.3v.8c-.1,0-.5.4-.5.4v.2c0,0,0,.5,0,.5l.4.4.4.6h.4l.4.2.6-.5v-.4c.1,0,.3-.2.3-.2h.4l.3-.4.3-.3v-.9c0,0,.3-.4.3-.4l.3-.6.2-.4.2-.6.5-.4.2-.9v-1.5s0-.3,0-.3v-2.4c.1,0,.2-1,.2-1l.2-.7.4-.2v-.7c0,0-.2-.2-.2-.2v-.3s.5-.3.5-.3v-.3c.1,0,0-.1,0-.1l.2-.2h.4l.3-.2v-.3s.3-.2.3-.2h.2c0,.1.4.5.4.5v.2s.6.3.6.3l.4.3.4.5.7.2v.5c0,0,.6.4.6.4l.3.2.2.5.6.7.4.2v.8c-.1,0-.3.4-.3.4l.3.6-.4.2v.7c0,0,0,.3,0,.3h.6c0-.1.3.2.3.2h.5c0-.1.3.3.3.3v.3c0,0-.4.5-.4.5h-.2c0,0,0,.4,0,.4v.2s.4.3.4.3v.4s-.1.1-.1.1l.2.2h.2c0,0,.2.2.2.2v.4c-.1,0,0,.7,0,.7v1c0,0,.1.5.1.5v.5c0,0,0,.4,0,.4l-.2.2.3.5-.2.2-.4-.2-.2.2v.4c-.1,0,.3.2.3.2l.3.6v.5c0,0,0,.1,0,.1l-.3.3-.4.2.2.2h.3c0-.1.3.3.3.3v.3c0,0-.4.2-.4.2v.4c-.1,0,.3.1.3.1l-.6,1-.9.4-.7.8v.4s.1.4.1.4v.4c-.1,0,.7.4.7.4h.6c0-.1.4.2.4.2l.3-.5h.3s.7.6.7.6h.1l.2.3-.4,1.3-.3.4v.3s.4,0,.4,0l.2.2-.3.3v-.3s-.3,0-.3,0l-.2.9h.3c0,.1,0,.5,0,.5l-.2.4h-.3c0,0,0,.5,0,.5l-.2.2h.6c0,0,.2-.3.2-.3h.3s0,.6,0,.6l.8.7v.2s.9.1.9.1l.4-.2h.7c0-.1.2-.5.2-.5l.6-1v-.4c.1,0,0-.2,0-.2v-.2c0,0,.2-.7.2-.7v-.4c.1,0,.8-.4.8-.4l.5.3h.1v-.3s.3.1.3.1v.4s.2.3.2.3l-.2.3h.2c0,.1.4,0,.4,0l.2.4.2.4v.2s.4.6.4.6l1,.3.4-.2.5.4.2.4v.4c.1,0,0,.5,0,.5h-.1c0,.1,0,.6,0,.6l.3.4-.2.5h-.3s-.2.3-.2.3l-.3.2-.3.6h.4c0,.1,0-.2,0-.2h.3l.2.7.5.3v.4c.1,0-.6.9-.6.9l.4.2v.3s.2.1.2.1h.4c0,0,.3,0,.3,0v.3s0,.5,0,.5v.4h-.6s-.1.2-.1.2v.4l.2.5.2.2.3.3v.5c-.1,0,.1.1.1.1h0c0-.1,0-1.4,0-1.4h.2c0,0,.2-.2.2-.2h-.2c0,0,0-.3,0-.3l.2-.2h.2s.1.4.1.4h.2c0,.1-.1.3-.1.3h0c0,0-.2.3-.2.3h-.4c0,0,.1.5.1.5h.2s.3-.2.3-.2h.1c0-.1.2-.2.2-.2h.2s.3-.4.3-.4l.3.2h.4c0,0,.4.6.4.6h.4s.1-.4.1-.4l-.4-.2v-.5s.3-.8.3-.8h.2s.2.5.2.5l.2.5.6.2.2.5.5.3.7.4.4.2.4.4v.4s-.4,0-.4,0l-.2.2.2,1.5v.2c.1,0,.5.6.5.6l.3.3.2.6.6.2h.2c0,0,.4.4.4.4l.2.6h.6c0,.1.5-.1.5-.1h.3c0,0,.5-.2.5-.2h.7l.2.5h.9c0-.1.2.1.2.1v.3c0,0,.4.3.4.3l.3-.4h.2s0,.3,0,.3l.4.3.3.5v.3c0,0,0,.2,0,.2h1c0,.1.4.8.4.8v.2c0,0-.5.1-.5.1l-.2.3v.2s.2.2.2.2l.3.4.2.7v.4c0,0,0,.4,0,.4l-.2.6-.3.6.2.3h.3c0,0,.1.6.1.6v.3c-.1,0-.3.2-.3.2h-.4c0,.1-.2,0-.2,0l-.2.5.2.3.8.3.2-.2h.3c0,.1-.2.7-.2.7l-.8-.4h-.2l-.3.3h-.4l-.7-.3-.2-.2-.2.2.4.4v.5s-.3.3-.3.3h-.4s-.3-.2-.3-.2v-.3s-.7-.5-.7-.5v-.5s.9-.1.9-.1l-.6-.6v-.5c0,0-.3-.1-.3-.1l-.9.3-.6-.3h-.8s-.4.5-.4.5l-.6.3-.3-.3-.3-.6-.4-.2v-.3c-.1,0-1.1-.4-1.1-.4v.4s-.2.2-.2.2l-.4.3h-.3c0,.1-.6,0-.6,0l-.2.2-.3-.2h-.2c0,0-.3-.2-.3-.2v.3c.1,0,0,0,0,0h-.2l-.2.3-.2.7-.3.5-.4.2-.4.7v.2s.2.1.2.1h.3c0,0-.2.6-.2.6h-.7c0,.1-.2-.3-.2-.3h-.2s-.2,1.2-.2,1.2l-.3-.4-.2.2h-.4c0,.1,0-.2,0-.2v-.4s-.7-.3-.7-.3v.4c0,0,0,.9,0,.9v.4c.1,0-.1.2-.1.2h-.4c0,.1-.8-.2-.8-.2v.3s-.5.1-.5.1v-.2c0,0-.4.3-.4.3v.4c-.1,0-.1.3-.1.3l-.2.2-1.3.7h-1s0-.3,0-.3h-.3c0,0,0-.3,0-.3h.2c0-.1-.2-.6-.2-.6h.2l.3.2v.2c.1,0,.5.2.5.2h.2s.2-.2.2-.2v-.3c-.1,0,0,0,0,0h.3c0,.1.2-.1.2-.1l-.2-.3-.3-.2v-.2c0,0-.3,0-.3,0l-.4-.3-.4.5h-.7c0-.1-.9.5-.9.5l.3.5h.3s.5.4.5.4l.2.2v.4h-.2c0,.1-.4.1-.4.1v-.2c-.1,0-.4-.3-.4-.3l-.2.4.2.2v.2c.1,0-.2.1-.2.1h-.4c0-.1-.3-.3-.3-.3v-.5s.5.2.5.2l.2-.5-.4-.3h-.2l-.2-.2-.2.3-.4.2v.6c0,0,0,.5,0,.5v.3c.1,0,.3.6.3.6l-.3,1h-.6c0,0-.2,0-.2,0l-.6-.2-.4-.5-.2-.2h-.5c0,.1-.4.4-.4.4l-.7,1.6.2.4v-.3s.2-.1.2-.1v.4c.1,0,.5.3.5.3l-.3.5v.3s.2.5.2.5l-.5.5.7.5h.4v.6c0,0,.2.9.2.9v.6c0,0,.5.1.5.1l.7,1.3v.9c0,0,0,.8,0,.8v.2s-.2.1-.2.1v.3s.3,0,.3,0l.2.2h-.2c0,0,0,.6,0,.6l-.6.2-.3.4h-.5c0,0-.4.4-.4.4h-.7s.4.4.4.4l.2-.2h.5c0-.1-.3.8-.3.8v.4c.1,0,.6.4.6.4v.9c0,0,.3.3.3.3l.7,1.2h.2c0,0,.2.5.2.5l-.2.4v.4c.1,0-.2.6-.2.6l-.4.5h-.5c0-.1-.6-.1-.6-.1v.2c0,0,.2.3.2.3h-.2c0,.1-.2.2-.2.2v.3c.1,0,.5.2.5.2l.3.7.4,1,.3.9.2.7v.6s-.2.5-.2.5l-.5,1.2-.7,1-.3.2-.6.2h-.4c0-.1-.2.3-.2.3h-.3s-.7-.5-.7-.5l-.2-.5h-.3c0,0-.4-.2-.4-.2l-.2-.2v-.3c0,0,0,0,0,0v.2c0,0-.2.2-.2.2l-.7.4h-.2c0,.1-.6.5-.6.5l-.4.3v.2c0,0-.1.3-.1.3l.3.6.3,1,.3.5v.3c0,0,0,.4,0,.4v.5s.1.2.1.2l-.5.9-.5.3v.2s0,.2,0,.2v.3c.1,0,0,.4,0,.4l-.3.2h-.6c0,.1-.1,0-.1,0h-.2c0,.1.4.8.4.8v.3c0,0,.7.4.7.4l.3.6-.2.4h-.2c0,0-.3,0-.3,0l-.3.2-.3.4.3.3-.2.3h0c0,.1.6.3.6.3h.3c0-.1,0-.3,0-.3v-.3c-.1,0-.5-.2-.5-.2l.2-.3.3.2.2.6v.3c0,0,.3.6.3.6v.4c0,0,.3,1.1.3,1.1v.5s-.1.3-.1.3v.2c0,0-.1.3-.1.3v.2s.2.2.2.2v.5s-.3.8-.3.8v.4c-.1,0-.4.4-.4.4v.4s-.3.1-.3.1h-.7c0-.1-.2,0-.2,0l-.2.3v.3c0,0,.6.5.6.5l-.3.2v.3s0,.4,0,.4l-.3.4v.4h.2c0,.1.4,0,.4,0l.5.6-.2.3-.3.5-.2.7v.5c0,0-.2.4-.2.4v.7s-.2.3-.2.3v.6c.1,0,.3,0,.3,0v.2s-.1.7-.1.7l.3.4-.4.9-.2.8h-.7s-.1-.2-.1-.2h-.8v-.2s.2-.1.2-.1h-.2c0-.1-.8.2-.8.2l-.7-.6h-.5c0-.1-.6,0-.6,0h-.5c0,0-.4-.1-.4-.1v-.5c0,0,.7,0,.7,0l.3-.3h.6c0,0,0-.3,0-.3l-.9-.8h-.6c0,.1.2.3.2.3l-.3.3h-.2c0-.1-.9,0-.9,0v-.9c0,0,.8,0,.8,0l-.4-.4v-.3c0,0-.3,0-.3,0l-1.1-.7-.3.3v.4s.3.2.3.2l.2.6h-.4c0,.1,0,.4,0,.4l.6.7v.5c0,0,.4,0,.4,0l.5.2v.8c.1,0-.4.8-.4.8l.3.4v.5c0,0,.1.3.1.3v.4c-.1,0-.3,0-.3,0h-.3c0,0-.6.5-.6.5v.6c0,0-.2,0-.2,0v.3s.3,0,.3,0v.3s0,.5,0,.5l-.7.2v.5s-.9,0-.9,0l-.4.3v.4c.1,0,.6.5.6.5l.8.3.2.5v.2s-.3.7-.3.7l-.2.2-.2.3-.3.2-.2.7.2.5-.5.5-.2.4-.6.6-.8,1.2.4.6.5.4.3-.5v.4s.4.6.4.6l-.6.9h-.2c0,0-.2.3-.2.3v.3s.5.2.5.2l.3.7-.2.3v.6c0,0-.2.3-.2.3l-.7.3-.4.6.2.4.8.2-.5,1.9v.5s0,.6,0,.6l-.3.2v.6c0,0-.4.3-.4.3l-.2-.3h-.5c0-.1-.3-.4-.3-.4h-.3c0,.1-1.1,0-1.1,0l-.2.5h-.2c0,0-.2.5-.2.5l.5.4h.7c0,.1.8.9.8.9v.4h.2v-.4s0,0,0,0l.3.5.2.2.2.4h.1c0,.1.4.2.4.2v1.4c-.1,0-.4.7-.4.7l-.5.4-.3.7-.5.6v.6c0,0-.7.3-.7.3v1.3c-.1,0-.3.2-.3.2l-.4.3h-.4c0,.1-.3,0-.3,0l-.5.3h-.2c0,0-.3-.2-.3-.2l-.3.2-.3.3v.4c-.1,0-.2.6-.2.6v.5c0,0-.1.2-.1.2l.5.7.5-.2v-.6s.2,0,.2,0l.2.4v.3s.1.4.1.4h.3c0,.1,0,.6,0,.6h-.2s-.5.4-.5.4v.2s.2,0,.2,0l.3-.3h.3c0-.1.6.2.6.2v-.3h.5l.5.5h-.1c0,.1.2.7.2.7v.2c.1,0,.4,0,.4,0v.4c.1,0,.2.2.2.2v.2s-.1.3-.1.3v.9c0,0-.3.1-.3.1h-.2c0,0-.3.2-.3.2v.4c0,0,0,.8,0,.8h-.1c0,.1,0,.7,0,.7l-.2.5-.4.6h-.3c0-.1,0,.9,0,.9h-.4c0,0-.3,0-.3,0l-.2.6-1.2.8v.2c0,0-1.1.3-1.1.3l-.3-.3h-.6s-.4-.5-.4-.5v-1s.1-.7.1-.7l-.2-.3h-.4c0,0,0-.2,0-.2h-.2s-.2.3-.2.3h-.1s0,.7,0,.7h-.3c0,.1-.3.2-.3.2l-.4-.5-.2-.3h-.3s0-.7,0-.7v-.3c0,0,.4-.1.4-.1v.2c.1,0,.6,0,.6,0v-.2c0,0-.5-.3-.5-.3h-.3c0,0,0-.3,0-.3v-.5s-.3-.3-.3-.3l.2-.2.3-.2h.5s-.1-.7-.1-.7h-.3c0-.1,0-.9,0-.9l-.6-.2h-.7l-.9-.3-.4-.6h-.4c0,0-.6-.3-.6-.3l-.2-.4-.7-.9-.8-.7-.3-.4-.3-.3h-.4s-.3-.6-.3-.6v-.7c-.1,0-.5-.5-.5-.5h-.3c0,0-.4-.4-.4-.4v-.4s-.3-.3-.3-.3h-.8c0-.1-.4-.8-.4-.8l.4-1.1.5-.5.7-.2.4-.2h.4s0-.4,0-.4h.3c0-.1.2-.4.2-.4h.1c0,0,.2.2.2.2h.3c0-.1,0-.4,0-.4l-.2-.2.3-.2.8.5.2-.2v-.2s0-.2,0-.2l.6-.3h.3l.3.2.6-.3h.4s.3,0,.3,0l.2.4h.3c0,.1,0,.7,0,.7v.4c0,0-.2,0-.2,0v.3c-.1,0-.5,0-.5,0v.3c.1,0,.8.3.8.3l-.2-.4h.2c0-.1.1-.1.1-.1h.3s0,.3,0,.3l.2.3h.3c0,.1.3,0,.3,0h.4s0-.2,0-.2l-.2-.3-.3-.2-.4-.9-.2-.6.6-.3v.2s.4.1.4.1h.2c0,0,0-.3,0-.3v-.3c0,0,.5,0,.5,0l.5.7-.2-.6h.3c0-.1.3,0,.3,0h.2c0,.1.2.3.2.3h.3c0-.1.2,0,.2,0l.2-.2-.2-.3.5-.3-.2-.3h.4v.2c0,0,.2.2.2.2l.2-.2v-.4c0,0-.4-.1-.4-.1h-.4c0-.1-.2-.1-.2-.1h-.3c0,0,0-.2,0-.2v-.6c-.1,0-.5-.2-.5-.2h-.7c0,0,0,0,0,0v-.8c0,0-.4-.2-.4-.2v-.3c-.1,0,.2-.5.2-.5l.4.2v.3c0,0,.2.1.2.1l.4-.2v-.3s-.3-.2-.3-.2v-.7c-.1,0-.4-.1-.4-.1h-.6c0-.1-.3.2-.3.2l-.2.7.2.9v.3c0,0,0,.3,0,.3h-.2s-.2-.3-.2-.3h-.3c0-.1-.3,0-.3,0v-.2c-.1,0-.4.2-.4.2v.3s.1,0,.1,0l.2.3-.2.8v.2s0,.3,0,.3h0c0,.1,0,.3,0,.3l-.3-.3v-.3c0,0-.4-.6-.4-.6h-1.1c0,0-.2-.3-.2-.3l-.2-1.5.2-.7-.2-.5-.7-.6h-1s.3.7.3.7h.3c0,.1.2,1,.2,1l-.3.3-.3-.2-.7-1.4h-.4c0-.1-.4-.3-.4-.3l-.2.2.2.5.3,1,.4-.2-.3-.5.3-.2v.7c.1,0,.7.8.7.8l-.2.3h0c0,.1.4.8.4.8l-.2.3h-.7s-.2-.2-.2-.2h-.4c0,.1-.2.4-.2.4v.3s-.5.3-.5.3l-.4-.2v-.3c-.1,0-.4-.2-.4-.2h-.3c0-.1-.3.5-.3.5l-.3.4h-1.6s-1.2-.6-1.2-.6l-.7-.4-.4-.3-.4-.6v-.3c0,0-.1-.4-.1-.4l-.3-.6.6-.7-.3-.5-.3-.3h-.4l.2-.4.3-.2-.2-.2-.2-.4-.3.5h-.3c0-.1,0-.3,0-.3l.2-.3.5-.8-.5-.2v-.6s-.3-.2-.3-.2h.3s.4.2.4.2v.5c0,0,.4-.3.4-.3l-.4-.6h-.4c0-.1-.2,0-.2,0l-.3-.6h-.3s0,.7,0,.7h-.1c0,0-.2-.3-.2-.3h-.4c0-.1-.4-.1-.4-.1v.3s-.3.2-.3.2l-.5-.7.2-.4.3-.2h.6s0-.4,0-.4h-.2c0,0-.5-.2-.5-.2l-.5.4h-.6c0-.1,0-.3,0-.3v-.2c.1,0-.5-.7-.5-.7h-.2c0-.1-.5-.1-.5-.1h-.4c0,.1,0,0,0,0l-.4-.6-.3-.3h-.2v.3s-.2.3-.2.3h.3c0,.1,0,0,0,0l.3.5h-.4s-.2.2-.2.2l-.5-.4v.4c0,0-.2,0-.2,0l.2.3h0c0,.1.7.2.7.2v.4c.1,0-.2.1-.2.1l-.4-.2v.4h.3l-.4.4v-.4c0,0-.4-.3-.4-.3l-.4-.3-.2-.4-.3-.5v-.7c0,0-.2-.5-.2-.5v-.4c0,0,0-.3,0-.3h-.4c0-.1.2-.7.2-.7l.2-.3v-.5c-.1,0-.3-.2-.3-.2h-.5c0-.1-.5-.3-.5-.3l-.6-.3v-.5c-.1,0,0-.7,0-.7v-1s-.1-.6-.1-.6l-.2-.2-.3-.3v-.4c0,0,.3,0,.3,0v-.4c0,0-.3-.3-.3-.3v-.4c0,0-.6-.6-.6-.6l-.3-.2-.2-.5h-.3c0-.1,0-.7,0-.7h.3c0-.1,0-.4,0-.4v-.8c-.1,0,.3,0,.3,0l.2.3.4-.3-.3-1.1-.3-.4h-.3c0,0-.5-.1-.5-.1l-.3-.5.4-1.1-.2-.5.2-.4.5-.4h.4c0-.1,0-.4,0-.4l.3-.3.4-.3.7-.3h.5s1-.5,1-.5h.6s.8.5.8.5l.4-.2h.2s.2.3.2.3v.3c.1,0,.3.1.3.1l.6.9-.2.6v.2s0,.7,0,.7v1.1c-.1,0,.3,0,.3,0v-.2s.5-.2.5-.2v.5s.3,0,.3,0l.2.3v.3c.1,0,.2.2.2.2l.6-.5.3.2v-.3c0,0-.4-.4-.4-.4v-.4c0,0,.3,0,.3,0v-.3c0,0-.1-.9-.1-.9l.2-.5v-.6c0,0,.9,0,.9,0l.3-.2.4-.2.7-.7.4.2.3.2.5.5v.3c0,0,1,0,1,0l1.1.4h.5c0-.1.4.2.4.2l.7.5h.9c0-.1.6-.4.6-.4l.9-.2h.2c0,0,0,.4,0,.4h.4s.2,0,.2,0h.5c0,.1.2.7.2.7l.3.2.5.5.6.6v.5c.1,0,.6.7.6.7l.4.6.7.4.5.5.2,1.2h-.1c0,.1-.3-.2-.3-.2l.2.9h.2l.3-.2v.3c.1,0,.6.2.6.2v-.4c0,0-.4-.2-.4-.2l.2-.5v-.5c0,0,.1-1,.1-1l.2-.3v-.7c0,0-.1-.1-.1-.1v-.4c.1,0,.3,0,.3,0v-.7c0,0-.2,0-.2,0l-.3-.3-.3.2-.9-.2-.5-.5-.3-.5-.5-.5-.4-.7-.7-.8.2-.3-.2-.3-1.3-.5-.5-.3-.9-.2h-.2c0-.1-.5,0-.5,0h-.1s-.8-.3-.8-.3h-.7l-.4-.4-.8-.3h-1c0,.1,0-.2,0-.2h-.2c0-.1-.4-.2-.4-.2h-.8c0,.1-.2.2-.2.2h-1s-.3-.1-.3-.1l-.2-.5-.3-.2h-.1s-.1.6-.1.6l-.4-.3v-.9c-.1,0-.5-.4-.5-.4l-.8-.2v-.4s.5-.1.5-.1v.2s.3,0,.3,0l.2-.5h.6s.3-.3.3-.3l.2-.3h.2c0-.1.3-.2.3-.2h.4c0-.1.6-.5.6-.5l.3-.3h.2c0-.1.3-.3.3-.3l.5-.4.3-.4h.2c0-.1.4-.1.4-.1l.4.2h.7c0-.1.2-.3.2-.3l-.3-.2.6-.4,1.1.2.3-.3h.5c0,.1.2,0,.2,0l-.2-.3.2-.2h.4l.4.4.4.3h.3c0-.1.4,0,.4,0l.2-.2-.2-.3h-.3s0-.4,0-.4l.7-.3.2.2.4-.6h.5s0,.3,0,.3l-.3.3h.5s.3-.2.3-.2v-.3s.4-.2.4-.2l.3.2h.3l1.2-.2h.5c0-.1.6-.9.6-.9l.2-.3.2-.7.7.4.5.2h.6s.4-.4.4-.4h.8c0-.1.9-.2.9-.2l.6-.3h.5c0,.1.6.5.6.5l.6.3,1,.8.3-.3.3.3h.4s0-.5,0-.5h-.2c0,0-.4-.5-.4-.5l-.2-.3-1.5-.7-.2-.5-.4-.2-.3-1.1-.4-1.2v-.3c0,0,.3-.1.3-.1l.2.3h.4c0,.1.7-.3.7-.3l-.3-.2.3-.3-.3-.9-.3-.3-.3.2.2,1h-.2c0,0-.1-.3-.1-.3v-.3c-.1,0-.4.2-.4.2l-.2.2h-.4c0,.1-.3.9-.3.9v.3c-.1,0-.1.4-.1.4l-.5.3h-.5c0,.1-1.8.6-1.8.6h-.4c0-.1-.3-.5-.3-.5h-.4l-.8.4h-.3c0,0-.9.1-.9.1l-.6.5h-.5c0-.1-1.4.6-1.4.6l-.5-.3h-.7c0,.1-.7-.1-.7-.1l-.5-.7-.6-.3-.7-.2-.2-.4h-.2c0,0-.8-.2-.8-.2h-.6c0,.1-.4,0-.4,0v.2c0,0,0,.5,0,.5h-.1c0,.1-.3,0-.3,0l-.5,1-.3.2-.3.2-.2.3-.2.2-.2.3h-.5c0,.1-.1.5-.1.5l-.3.2h-.8c0,.1-1.1.6-1.1.6h-.2c0-.1-.8,0-.8,0v-.2s-.4-.1-.4-.1v.5c0,0-.3.1-.3.1l-.3.6-.4.2h-.2l-.4-.7-.5-.5-.5.4v.5c-.1,0,0,.2,0,.2h.3s0-.3,0-.3h.3c0,.1.2.7.2.7h-1.3c0-.1,0,0,0,0h-.3c0,.1-.5.1-.5.1v-.2c-.1,0-.8-.2-.8-.2h-.8c0,.1-.4-.5-.4-.5h-.4c0-.1-.7,0-.7,0l-.6.2-.3.5v.5c0,0-.3,0-.3,0h0c0,.1-.1,1-.1,1h-.3c0,0-.1.1-.1.1h-.2c0-.1-.1-.6-.1-.6l-.2-.5h-.2c0-.1-.7-.1-.7-.1v-.4s.2-.7.2-.7l.2-.9-.3-.2v-.9c.1,0,0-.3,0-.3v-.3s-.3-.3-.3-.3l-.6-.4v-.6c.1,0,0-.5,0-.5v-.3c-.1,0-.6-.3-.6-.3l.2-.2h.3s0-.2,0-.2l-.5-.3v-.4c.1,0-.2-.2-.2-.2l-.2-.4v-.3s0-.9,0-.9l-.3-.5v-.8s.1-.6.1-.6v-.8c0,0,0-1.1,0-1.1v-1.4c0,0-.2-.3-.2-.3l-.3-.8.2-.7h.7c0,0,0-.4,0-.4l.6-.5h.2c0,0,.2,0,.2,0h0c0-.1.3-.3.3-.3h.1c0,.1.3-.1.3-.1v-.3c0,0,.8-.2.8-.2h.6l.5.2.6,1,.3.8h.2c0,0,.2.7.2.7v.2c-.1,0,.8,1.8.8,1.8l.2,1.1h.4c0,0,0,.4,0,.4h-.2c0,0,.1.4.1.4l.3.4h.4c0,.1.5-.2.5-.2l-.4-1.7v-.2s.2,0,.2,0l.2-.2-.4-.8.3-.2-.3-.5-.6-.4-.2-.4v-.5c0,0-.1-.4-.1-.4l-.2-.6.2-.2h0c0-.1-.2-.6-.2-.6v-.3s.4-.2.4-.2h.2l.2.2h.4c0-.1.4-.2.4-.2h.1c0-.1.9.2.9.2l.2.2,1-.5,1.4-.4.2-.2h.5l.9-.3.9,1.1h.9c0,.1.3-.1.3-.1l.2-.4-.4-1.1v-.9c.1,0,.3-.2.3-.2h.5c0,.1.2,0,.2,0h-.3c0,0,0-.2,0-.2l.5-.4.4.3v-.3c0,0-.3-.3-.3-.3l.3-.3h.2c0-.1.3-.3.3-.3h.6s0-.3,0-.3h-.3c0,0,.1-.7.1-.7l.3-.2h.5c0,0,.2,0,.2,0v-.9s.4-.7.4-.7l.5-.4.4-.2.2.2h1.1c0,.1,0,.7,0,.7v.3c0,0,0,.3,0,.3h.3c0,.1,0,0,0,0l.3-.3.3.2.8.3h.4s.3-.4.3-.4v-.3c0,0,0-.3,0-.3l-.5-.7-.5-.6-.5-.5-.2-.6-.3-.2v-.4s.3-.3.3-.3l.2-.2v-.3c0,0,.5-.4.5-.4h.4c0,0,.2-.1.2-.1v-.4c0,0,.2-.2.2-.2l1.2-1h.2s.3.2.3.2h.9c0-.1,1.9-.9,1.9-.9l.5.4.3.5h.5s.7-.2.7-.2h.2c0,.1,0,.4,0,.4h-.1c0,.1.4.4.4.4l.6.2h.5c0-.1.3-.1.3-.1l.2-.2v-.2s.3,0,.3,0l.4.4h.2s.5,0,.5,0l.5-.3h1.1c0,.1.4,0,.4,0l.3.7h.2c0,.1.5.6.5.6h.5c0,.1,0,0,0,0l-.5-.2-.7-.8v-.5s.2-.3.2-.3l.8-.4.2-.3.3-.2.3-.4v-.4s1-.7,1-.7v.2s.2,0,.2,0l.3-.3h.2c0-.1.1-.6.1-.6l.6-.4h.3c0-.1.2-.2.2-.2v-.4c-.1,0-.4-.4-.4-.4v-.3c-.1,0-.2-.2-.2-.2h-.6c0-.1-.7.3-.7.3l-.4.3-.2.4-.5.2-.7.2h-.2c0,.1-.4,1-.4,1h-.2c0,.1-.4,0-.4,0v.6c0,0-.3,0-.3,0l-2.5-1.6v-.3h.7l-.3-.2h-.4c0,0,0-.4,0-.4l-.6-.4h-.3c0-.1-.5.1-.5.1h-.5c0-.1,0,.2,0,.2l-.5-.6-.7-.4.2-.2h.3c0,0,.4-.2.4-.2l.2-.4v-.5s.5-.5.5-.5l.2-.8v-1.4c0,0,.7-.7.7-.7l.2-.8-.2-.6.2-.6,1.1-.7v-1s.4-.6.4-.6l.4-1.1.4-.3h.4l.8.5h.3v-.3c-.1,0,0,0,0,0l.2.2.2-.5-.2-.2h-.4v-.2c0,0,.3,0,.3,0v-.3c0,0,0-.2,0-.2h-.7c0-.1-.3-.4-.3-.4h-1.5v.3c0,0-.4.1-.4.1l-.4-.9h-.4c0,0-.2.4-.2.4h-.2c0-.1.1-.6.1-.6v-.2c0,0-.5,0-.5,0l-.2-.5h-.3c0,0,.1.4.1.4v.7c0,0-.3,0-.3,0v.2c0,0,0,.9,0,.9l-.4.3h-.4c0-.1-.2,0-.2,0l.2.4v.3c0,0-.2.5-.2.5l.3,1.2v.5c-.1,0-.5.5-.5.5v.3c0,0-.4.7-.4.7v.5s-.2.7-.2.7l-.3.3-.9.4-.3.3-.4.5-.4.2h-.4c0-.1-.3-.5-.3-.5h-.2c0,.1.1.4.1.4v.3c-.1,0,0,.1,0,.1l.2.4-.2.7-.8.9h-.5s-.7.4-.7.4h-1.1l-1.4.9h-.7c0,.1-.7.1-.7.1h-.5c0-.1-.5-.9-.5-.9v-.5c-.1,0-.9-.7-.9-.7v-.8c-.1,0-.5-.7-.5-.7v-.9c0,0,0-.6,0-.6l-.2-.7v-.6s-.4-.3-.4-.3l.6-.5v-.3c0,0,0-.1,0-.1l-.5.2v-.2c-.1,0,.4-.4.4-.4h.3c0,.1.7-.1.7-.1h.2c0,.1.2-.1.2-.1l.2-.7h.3c0-.1.3-.6.3-.6v-1.5c0,0,0-.2,0-.2v-.5c.1,0,.3-.6.3-.6l-.2-.6.3-.6-.2-.5.3-.6.2-.6v-.7s-.6-.5-.6-.5l-.2-.8-.3-.4.3-.3v-.4c.1,0,0-.4,0-.4l.3-1v-.4c-.1,0-.5-.4-.5-.4h-.2s.2.4.2.4h-.2s-.1.3-.1.3l-.2-.3v-.2c0,0-.5,0-.5,0h-.5c0,.1-.3.9-.3.9v.5c.1,0,0,.5,0,.5l-.2.8-.5.7v.9c.1,0,0,.3,0,.3v.7c0,0,.5.6.5.6v.2s-.3.1-.3.1v.4c-.1,0,.3.6.3.6v.6c0,0-.3.4-.3.4l.4.4.2.9h-.4s-.2-.2-.2-.2h-.6l-.7.6.2.2v.2s-.3.1-.3.1l-.2.3h-.4c0,.1-.4.7-.4.7v.5c.1,0,.5.3.5.3v.3c0,0-.5.6-.5.6h-.4c0,0-.1-.4-.1-.4l-.5-.5-.4-.5-.6-.8-.4-.8v-.2s.6-.5.6-.5l.4-.3v-1.3c-.1,0-.2-1-.2-1v-.6c0,0-.1-.3-.1-.3l-.2-.3-.3.2-.2-.6-.7.3v-.3c0,0-.2-.2-.2-.2h-.3s-.2.1-.2.1v1l.3.2-.3.3v.4s-.7.2-.7.2l-.4.6h-.6c0,0-.2.2-.2.2l.3.3v.3c-.1,0-.1.3-.1.3l.7.7v.4s-.2.3-.2.3l.2.9v.2c0,0-.3.7-.3.7l.3.7v.7c-.1,0,.6,1.5.6,1.5h0c0,.1-.2.2-.2.2h-.2c0,.1-1.1-.4-1.1-.4h-.6c0,.1-.2,0-.2,0h-.3c0,0-.3-.2-.3-.2h-.2c0,0,0,.3,0,.3v.4c0,0,0,.3,0,.3l.2.8.4.6h.3c0,0,.1.1.1.1v.2c0,0-.3.1-.3.1h-.2c0,0-.7.2-.7.2l-.2.2v.3s.7,0,.7,0l.3.4.3.3v.4c.1,0,1.1.4,1.1.4l.6.2.4.4.4.2.3.6.2,1,.2.7.8,1.1v.4s-.2-.4-.2-.4h-.2s-.9.5-.9.5h-.5l-.2-.4-1.3-.5-.4.6v.2c0,0,0,.3,0,.3l-.6-.7-.7-1-.8-.5h-.4c0,.1-.4-.6-.4-.6h-.4s-.2,1.1-.2,1.1l-.2.2.2.4h.6c0,0,0-.5,0-.5h.2c0-.1.2,0,.2,0v.2c-.1,0,.2.3.2.3l-.2.3h-.4c0,0-.2.3-.2.3h.3c0,.1.2,0,.2,0l.4.6-.5.3h-.3c0,0-.6,0-.6,0l-.2.3.2.3h-.3c0,.1,0,.3,0,.3h.2c0,.1,1.3-.2,1.3-.2v.2c0,0,.3.2.3.2h.2c0,.1.3,0,.3,0v-.3c0,0,.2-.1.2-.1h.2c0,.1,0,.5,0,.5h-.1c0,.1.2.9.2.9l.5.3v.3s0,.6,0,.6l-.5.6-.7.3h-.3s-.5.6-.5.6v.4s0,.7,0,.7l-.2.4h-.2v-.4s-.2-.2-.2-.2v-1.2s0-.2,0-.2v-.3c-.1,0-.6-.3-.6-.3l-.3-.2-.4-.4v-.4c-.1,0-.3.4-.3.4h-.5c0,.1-.2.6-.2.6l.7.2v.3c0,0,.5.4.5.4v.5c-.1,0-.4.2-.4.2v.7c0,0,.3.3.3.3v.7s-.2.2-.2.2l-.3-.2v-.3c0,0-.4-.4-.4-.4v-.4c-.1,0-.5-.6-.5-.6l-.4-.2v-.3c0,0-.7-.2-.7-.2l-.2.3v.2s.2.1.2.1l.2.6h.3l.5.8.3.2.2.2h-.3c0,.1-.3.1-.3.1l-.2-.2h-.1c0,.1,0,.5,0,.5v.3s.4,0,.4,0l.2-.3h.2c0,0,.1.5.1.5l-.5.3-1.2.4-.8-.2h-.6c0,.1-1.1-.4-1.1-.4h-.7c0-.1-.3,0-.3,0l-1.1-.3h-.3c0-.1-.7-.8-.7-.8h-.4c0-.1-.5.2-.5.2l-.3.7h-.3c0,0-.4,0-.4,0l.2.4h-.2c0,.1-.2,0-.2,0l-.4-.8v-.6c.1,0-.2-.3-.2-.3l-.2-.4v-.5c0,0,.2-.9.2-.9l.4-1.3v-.6l-.3-.6h-.4c0-.1-.1-.6-.1-.6l-.2-.8h.2c0,0,.4-.5.4-.5l.2-.3.2-.6-.3-.4h-.4l-.2.2-.2-.4v-.4c0,0,0-.3,0-.3h-.2c0-.1-.2,0-.2,0h-.3c0,.1.3.6.3.6l-.2.4h-.2c0,.1-.5.4-.5.4h-.7s-.4-.6-.4-.6l-.3-.7-.5-.3-.3-.4-.4-.8-.4-.8-1.2-3,.5-.5h.3s-.1.2-.1.2l.4.5v.4c0,0,.6.3.6.3v.3s-.7,0-.7,0v.2c0,0,.1.1.1.1h.5c0-.1.4.2.4.2l-.2-.8h.1c0-.1.5-.4.5-.4h.5c0,0,.3-.1.3-.1v-.2c0,0,.4-.1.4-.1h.3c0-.1.9.1.9.1l.2.2h.6c0,0,.3-.2.3-.2h.9c0,.1.2-.3.2-.3h.3c0-.1,0,0,0,0l.3.2.8.4h0c0,0-.3-.4-.3-.4v-.5c-.1,0,.1,0,.1,0l.2.2h.2c0-.1,0-.3,0-.3l.3-.2h.3c0-.1.3.8.3.8h.4s.4-.4.4-.4v-.5c-.1,0-.9-.5-.9-.5l-.3-.2-.4-.2-.2-.4v-.3c0,0,.6,0,.6,0l.2.2h.6c0,.1.2-.3.2-.3v-.2c0,0-.7-.2-.7-.2l.2-1.1.5-.3v-.2c0,0-.3-.7-.3-.7h-.2l-.3-.3-.2-.4-.7-.8v-1c0,0,.4.1.4.1h.1l-.2-.5h-.3s-.3-.3-.3-.3h-.3c0,0-.2.3-.2.3v.6c0,0-.2.6-.2.6l1,.8v.3c.1,0,.3.2.3.2v.3c.1,0,0,.1,0,.1l-.6-.6-.3-.3-.3-.2v.3c-.1,0,0,0,0,0v.2s-.4.1-.4.1h-.2c0-.1-.2-.3-.2-.3v-.3s-.8-.4-.8-.4l-.4-.5h-.5c0-.1,0,.5,0,.5l.3.3.6.3.3.9.4.2v.2s0,.3,0,.3v1s-.3.5-.3.5h-.3c0-.1,0-.8,0-.8h-.7c0-.1-.1-.5-.1-.5h-.3c0-.1-.5,0-.5,0v.3c-.1,0,.2.5.2.5v.3s.4,0,.4,0l.3.5-.9-.4-.2-.3v-.3c-.1,0-.3-.2-.3-.2l-.2.2h-.5l-.3.2-.4-.2h-.5l-.4.2h-1.3c0-.1-.2-.4-.2-.4v-.6h.7l-.4.2v.2c.1,0,.8-.1.8-.1h0c0-.1-.4-.6-.4-.6v-.9s.2-.3.2-.3v-.5c-.1,0-.4-.2-.4-.2h-.3c0,.1-.3.3-.3.3h-.8c0-.1-1.1,0-1.1,0h-.2c0,0-1.1-.9-1.1-.9l-.3-.3-.2-.4-.3.2.2.3-.4-.2-.2-.2v-.3s-.7-.6-.7-.6v-.3c0,0-.1-.3-.1-.3v-.4c0,0-.3-.3-.3-.3l-.2-.5-.2-.3v-.2c.1,0,.3.3.3.3h.2l.2-.2.2-.3v-.5c.1,0-.1-.4-.1-.4l-.2-.4v-.2c.1,0,0-.1,0-.1v.2c-.1,0-.4-.1-.4-.1v-.2s-.2,0-.2,0l-.3.5-.5-.2h-.3c0,0-.9-.7-.9-.7l-.3-.3v-1.3c.1,0,.6-.6.6-.6v-.5s.2-.5.2-.5h.6c0,.1,0-.2,0-.2h-.2c0-.1-.3,0-.3,0v-.5c0,0,0-.3,0-.3l.6-.5v-.3c0,0,.4-.1.4-.1l.4.3h.4c0,0,.2,0,.2,0h1.3c0-.1.4-.3.4-.3l-.2-.3h-.4c0-.1-.2-.1-.2-.1l.2.4h-.5c0,0-.2-.3-.2-.3v-.3s-.6-.4-.6-.4l-.3-.5h-.2c0-.1-.5-.1-.5-.1h-.6s-.5-.5-.5-.5l-.9-.7-.9-1.6-.4-.7-.6-.5-.7-.9v-.5s-.2-1.1-.2-1.1l.6-.3.2.2h.4l.5-.4h.7c0-.1.5.4.5.4h.6s1.6,1.1,1.6,1.1h.5s0,.5,0,.5v.4s.3.1.3.1h.7l.2.6h.5c0,.1,0-.1,0-.1h.7c0,0,.2.3.2.3v.3s.6.3.6.3l.3.2h.5c0,0,.1.7.1.7h.4s.5-.2.5-.2l.2.3h.2s.7-.3.7-.3l.4-.2.5-.4.2-.3-1.1-.3.2-.3v-.4s-.3-.3-.3-.3v-.4c0,0,0-.6,0-.6v-.4c0,0,.4-.4.4-.4v-.4s.8-.2.8-.2l.2-.4v-.5c-.1,0-.6-.4-.6-.4l-.4.2h-.5l-.8-.5-.9-.2-.7-.8-.6-.4h-.4c0,.1-.4.2-.4.2h-.2c0,.1-.2.3-.2.3v.5s-.5,0-.5,0l-.3-.3v-.3s-.2-.5-.2-.5l-.4-.2-.9-.5-.3-.3-.5-.9-.4-.4-.5-.2.3-.3.2-.5.6-.4.2-.5v-.8s.5,0,.5,0l.7.5.3-.3v-.4s.1-.2.1-.2l-.6-.3-.5-.5v-.4c0,0,.2,0,.2,0v-.9c0,0,.3-.6.3-.6v-.6s.2-.6.2-.6l.3-.5.3-.4.4-.3h.4s.3,0,.3,0v.2s-.3.3-.3.3l.3.2.5-.3.4.3h.9c0-.1,0,0,0,0h.3s.1-.2.1-.2h.3c0,0-.2-.6-.2-.6h-.3c0,.1,0,.2,0,.2h-.6l-.2.2h-.2c0-.1,0-.3,0-.3l-.5-.4h-.5s-.7-.7-.7-.7h-.2c0,0-.1,0-.1,0l.2-.2.5.2.3-.3v-.2c0,0,.4-.5.4-.5l-.2-.4h.4c0,0,0-.3,0-.3l.7.6.2-.2-.2-.2v-.5s.5.1.5.1v.7c.1,0,.6.3.6.3h.4s0-.2,0-.2l-.4-.2h-.3c0,0,0-.5,0-.5l.4.2.2-.2v-.2c0,0-.7-.2-.7-.2l-.4-.4-.4-.4h-1.1c0,.1-.4-.2-.4-.2v-.4c0,0,.4-.2.4-.2h.2s.5-.5.5-.5l.2.3v.2c-.1,0,0,.2,0,.2h.1l.2-.5v-.3c0,0,.2-.3.2-.3l.5.2-.8-.9-.4.2-.3.2h-.4c0,0-.5.4-.5.4l-.4.7h-.3c0,0-.2.2-.2.2l-.2.2h-.2s0-.3,0-.3l-.2-.4-.4-.2-.2.3-.2.3v-.2c-.1,0,0-.4,0-.4l-.2-.2-.3-.2-.2-.3.3-.3-.3-.2v-.7s-.2-.2-.2-.2h-.2c0,0-.3-.2-.3-.2v-.4c.1,0,.4.2.4.2h.4s.3.1.3.1l.4-.3-.4-.3h-.7c0-.1-.2-.3-.2-.3l-.6-.2-.5.2h-.6c0,0-.4.6-.4.6l-.4.4.3.4h.3c0,0-.2.7-.2.7l.4.3.2.5v.7c.1,0,.1.6.1.6h-.3c0,0,0,.2,0,.2l.3.5.6.3-.3.2v.3s.6.8.6.8l-.3.5.4.5v.5l-.2.4.4,1v.2s0,.4,0,.4v.5c0,0-.2.5-.2.5l-.2.2h-.3s-.3-.2-.3-.2v-.2s-.2,0-.2,0v.8c0,0,.4.2.4.2v.2s-.3.1-.3.1l-.2.4-.4.3v.2c0,0-1.1.9-1.1.9l-.7-.2h-.4c0,.1-.1.4-.1.4h-.9s0-.4,0-.4l-.3-.2.2-1-.2-.8v-1.2c-.1,0,.1-.7.1-.7v-.4c0,0-.2,0-.2,0l-.2-.4v-1.1c0,0,.4-.2.4-.2v-.5s-.3-.5-.3-.5h-.1v.3c0,0-.3,0-.3,0v-.4s-.2-.7-.2-.7l-.9-.9.2-.5-.3-.7-.2-.6v-.3s.4,0,.4,0v-.6s-.2-.2-.2-.2h-.4c0,.1-.7-.5-.7-.5l-.4-.8v-.7c0,0-.2-.5-.2-.5v-.5c.1,0,.7.5.7.5h.2c0-.1.2-.3.2-.3l-.3-.4.2-.4h.2c0,0,0-.2,0-.2h-.3s-.4-.7-.4-.7h-.2c0,0-.2-.6-.2-.6v-.4c.1,0,.8.3.8.3h.3c0,.1,0-.8,0-.8h-.2c0,0-.2-.5-.2-.5v-.5c.1,0,.5-.1.5-.1l.3-.2v-.3c0,0,0-.2,0-.2l-.4-.6.5-.5-.3-.3-.3.2-.4-.2-.2-.3-.6-.6v-.3c.1,0,.3.2.3.2h.3c0,0,.4.4.4.4l-.3-1-.3-.2h-.4c0,.1-.4-.2-.4-.2l-.9-.5-.3-.7h.2s.4.5.4.5h.2c0,0,0-.5,0-.5h-.2c0,0-.2-.5-.2-.5h-.4s-.2-.6-.2-.6v-.2c.1,0,.8,0,.8,0v-.3c0,0-.5-.2-.5-.2l.2-.2h.3c0,0,.8,0,.8,0h.3c0-.1.6-.1.6-.1v.2c.1,0,.4.4.4.4l.2.4h.2v-.2c.1,0,0-.4,0-.4l.2-.4.4-.2h.4s.2.7.2.7l.2.2h.3c0-.1-.1-.6-.1-.6l.5.2h.4l.7.8v-.4s0-.3,0-.3l.3-.2v-.2c0,0-.8-.2-.8-.2l-.2-.3-.7-.3-.8-.5-1.3-.4-.5-.3-.5-.6v-.4c0,0,.7-.5.7-.5h.1c0-.1,0-.6,0-.6l.2-.3.6.2.2-.3-.3-.2h-.2c0,.1-.1-.1-.1-.1ZM224.5,93.5h-.4c0,.1-.6,0-.6,0h-1c0-.1-.6-.8-.6-.8h-.5c0-.1,0-.5,0-.5h.1c0-.1.2-.1.2-.1v-.6s.4.1.4.1v-.5s.1-.2.1-.2h.4c0,.1.1.3.1.3h.3c0,.1.4.3.4.3l.3.4.2.3v.4c0,0-.5-.1-.5-.1h0c0,.1.3.8.3.8h.2v-.2c0,0,0-.3,0-.3l.3.5h.3c0-.1.1,0,.1,0v.5c0,0-.3-.3-.3-.3h-.2ZM224.6,95.1l.5.7v.3c0,0,.1.2.1.2l.4.3h.2c0,.1.2,1.1.2,1.1l-.3.4-.2-.3h-.5c0,.1-.3.3-.3.3v.5c0,0-.4.5-.4.5v.3c0,0-.3,0-.3,0v-.4h-.8l-.5-.2v-.5c0,0-.1-.3-.1-.3v-.3c0,0,.4,0,.4,0h0c0,0,.3-.2.3-.2l-.2-.2h-.3c0,.1,0-.1,0-.1l-.4-.4.2-.3h.2l.7.4v-.3s-.2,0-.2,0v-.2c-.1,0,.2,0,.2,0h.3c0-.1,0-.3,0-.3l-.8-.2-.3-.3-.4-.4v-.5c0,0,.3-.2.3-.2l.9.5h.3v-.3h-.3l-.2-.3v-.3c0,0,.6.3.6.3h.4c0,.1.5-.1.5-.1l.2.2-.2.6ZM322.3,116h.2l.2.2.2.6h.4l.2.4-.2.6h-.3l-.2-.5-.2-.2h-.5c0-.1-.5-.7-.5-.7h-.2l-.6.6h-1.3c0,.1-.3.2-.3.2h-.3c0,.1-.2,0-.2,0h-.3c0,.1-.2-.4-.2-.4l-.3-.6.2-.4v-.3s0-.5,0-.5v-.3c0,0-.2-.5-.2-.5h-.2c0,0,0-.4,0-.4l.2-.3.4.2h.3c0-.1.7.2.7.2l.4-.2h.3c0,.1.2.6.2.6l.5.4.2.3.4.4v.3s.5.1.5.1ZM324.3,130.1l.2.4v.2s.2.1.2.1l1,.2h.7c0-.1.5-.5.5-.5h.3l.3.5h.4l.2.2-.2.4.7.4.4.2h.2c0,.1.3.2.3.2v.2c-.1,0,.6.6.6.6l-.3.3.2.3-.5.4v.4s-.2.3-.2.3l-.4.2-.2-.2h-.6c0-.1-.8.4-.8.4h-.4c0,.1-.3.6-.3.6l-.5.4h-.2c0-.1-.4,0-.4,0v-.4s-.3-.4-.3-.4l-1.2-.2-.3-.5.2-.6v-.4h-.2s-.2-.3-.2-.3l-.2-.4v-.4l.2-.2v-.9c0,0,.4,0,.4,0l.4-.9v-.4c-.1,0-.6-.3-.6-.3h.4s.2,0,.2,0ZM433.3,135.7h.3c0-.1.4-.2.4-.2h.2c0,.1.2.2.2.2h0c0,.1-.1.7-.1.7h-.1l-.3-.3-.2.3h.2s0,.3,0,.3h-.9s-.4.2-.4.2l.2.4h0c0,.1-.3.2-.3.2h-.2c0,0,0,.5,0,.5h-.7c0-.1,0-.6,0-.6l-.3-.3v-.3h0c0-.1-.2-.8-.2-.8h-.2c0,0,0-.3,0-.3h.2c0-.1.5-.1.5-.1h.4v.2c0,0,.9-.1.9-.1h.5ZM414.2,139.2h.4c0-.1,0-.7,0-.7l.4-.2h.6l.8.2v.4c-.1,0,0,.1,0,.1h.9c0-.1.7.1.7.1h.2s.2.3.2.3h.4c0,.1.2.2.2.2l.5.8v.2c.1,0,.6.5.6.5l.2.2.3.3h1.1c0-.1.6.1.6.1v.2s.2.1.2.1h.3c0-.1.4-.1.4-.1h.5l.3-.3.5-.2h.2c0-.1.2-.1.2-.1l.3.2.3-.5h.4c0-.1.4.1.4.1l.2.6v.3c-.1,0-1,.6-1,.6l-.8.2-.5.2-.7.3-.5.6-.7.3v.3s-.2.1-.2.1l-.2-.2-.2.2v.3s-.1.3-.1.3l-.4.3-.2-.3h.2c0,0,.1-.6.1-.6h-.3c0-.1-.2-.3-.2-.3l-.3-.6-.6-.8-.5-.5v-.3s-.3-.1-.3-.1h-.5c0,.1-1.1.1-1.1.1h-1.1c0-.1-.4-.4-.4-.4h-.2c0,.1,0,.6,0,.6l-.2.3-.2.2h-.5c0-.1-.2-.3-.2-.3l-.4-.2h-.7c0,.1-.4.3-.4.3l-.3.7-.6.5-.4.3-.2.2h-.3c0,.1-.1.6-.1.6l-.4.5-.6.2-.4.2-.4-.2-.7-.5h-1.2l-.4-.5v-.3s-.2-.1-.2-.1v.2h-.2v-.3s.2-.1.2-.1h.4c0,.1.5-.1.5-.1h.4c0-.1.4-.1.4-.1l.5-.5.3-.8.6-.2v-.3c.1,0,0-.3,0-.3v-.3s.3-.3.3-.3h.4c0,.1.4,0,.4,0h.9c0-.1.6-.3.6-.3l.4-.3h.4c0,0,.3-.7.3-.7v-.5s-.4-.7-.4-.7l.8.2v.2s.2.1.2.1l.4-.2ZM231.7,172v-.3s.1-.4.1-.4v-.4c0,0-.3.7-.3.7h-.2c0-.1.1-.4.1-.4v-.3c0,0,0-.4,0-.4l-.3-.5v-.5c0,0,0-.4,0-.4l-.3-.2-.4-.2-.5.2h-.1c0-.1,0-.3,0-.3l-.5-.8h-.3c0-.1,0-.7,0-.7l-.3-.2v-.2s-.5-.1-.5-.1h-.2c0-.1-.5-.3-.5-.3v.2c0,0-.3.6-.3.6h-.2l-.2.4h-.2l-.4-.4-.3-.4-.2-.4v-.7c0,0-.3-1-.3-1l-.2-.5-.3-.8v-1c0,0,.2-.3.2-.3v-.5c0,0-.3-.5-.3-.5l-.5-.3v-.9c0,0-.1-1-.1-1l-.2-.4h-.2s0-.3,0-.3h.1c0-.1-.2-.5-.2-.5h-.4c0-.1-.4-2-.4-2l-.3-.2v-.3c0,0-.3-.5-.3-.5v-.4c0,0-.5-.5-.5-.5l-.2-.7v-.7c-.1,0-.4-.1-.4-.1l-.3-.5v-.5s-.2-.3-.2-.3l-.3-.6-.2-.2-.2-.6-.3-.3v-.3c0,0,.3-.8.3-.8l-.2-.3.3-.4v-.8c-.1,0,0-.5,0-.5l-.3-.4v-.5s.1-.3.1-.3v-.4c0,0-.8-1.5-.8-1.5v-.4c0,0,.3-.1.3-.1h.4l.3.5.4.2.8-.2h.1c0,.1.5.3.5.3l.2.5h.3c0,.1.2,0,.2,0l.9.8.4.9h.5c0,.1,0,.6,0,.6l.3.3-.2.3h-.5c0-.1.2.4.2.4l-.2.4h-.2v-.2s-.5.1-.5.1l.3.2-.2.5v.4s.4,0,.4,0l.2.3v.2c-.1,0,.4,1,.4,1v-.4c0,0,.1-.3.1-.3h.3c0,.1.2.1.2.1l.7.3.2.3.3.4.2.5-.3.4.3.4h.2s-.4.6-.4.6h-.2v-.2c-.1,0,0-.3,0-.3l-.4-.3-.3.5.2.3-.3.2-.2.4v.3c0,0,0,.3,0,.3v.6s-.4.2-.4.2h-.2s.4.6.4.6h.3c0-.1,0-.5,0-.5h.2c0,.1.2.8.2.8l-.2-.2h-.4l.2.6h.4v.2h.4v-.2c0,0,.2-.1.2-.1h.2c0,.1,0,.6,0,.6h-.3s-.1.2-.1.2l-.3.5.3.2v.4s.1,0,.1,0v.6s-.2,0-.2,0v.2s0,.1,0,.1h.3c0-.1.1.1.1.1h.4l.4-.2v.5c0,0,.3,0,.3,0v.6c-.1,0,0,.3,0,.3l.4.3v.3c-.1,0,0,.4,0,.4h.2s0,.4,0,.4l-.2.5h-.2s-.2.4-.2.4v.6c0,0,0,0,0,0l.3-.5v-.3h.3v.2s.3.1.3.1l.4-.2h.9c0,.1,0,.6,0,.6h-.1c0,.1.3.4.3.4v.6s.4.3.4.3v.5c0,0,.1,0,.1,0l.3.9h.4l.2.6h.4c0,.1,0,.4,0,.4l.3.3.3.2v.2s0,.2,0,.2l.4.3h.4c0,.1,1,0,1,0l.3.3-.2.6v1.1s-.1,0-.1,0v.6c-.1,0,0,.4,0,.4l.5.3v.6c-.1,0,.6,1.2.6,1.2v.4c0,0,0,.3,0,.3l.2.7.4.5.3,1,.3.5v.3s-.2.7-.2.7l.3.5v.4s.5.7.5.7v.5c0,0,0,.5,0,.5h.2s-.1.5-.1.5h-.6c0-.1-.4-.4-.4-.4l-.4-.3h-.4l-.2-.4h-.2s0,.3,0,.3h-.5c0-.1-.3-.6-.3-.6l-.2-.6v-.3s-.4-.8-.4-.8h-.2c0-.1.3-.5.3-.5l.3-.4v-1.2c-.1,0-.4-.6-.4-.6h-.2c0-.1-.5-.8-.5-.8h-.4c0-.1-.5-.7-.5-.7l-.2-.6ZM337.7,145.8h.4c0,.1.2.7.2.7l-.2.5-.3.3-.5,1.6-.6-.4v-.3s.3-.5.3-.5l-.3-.2v-.3c0,0-.2-.2-.2-.2l.5-.2v-1.1h.8ZM396.7,155.5h-.4l-.4.3h-.3c0-.1-.3-.2-.3-.2h-.3c0,.1-.4.7-.4.7l-.2-.3v-.6s0-.6,0-.6v-.5c-.1,0-.2-.3-.2-.3h-.7l-.2-.6-.5-.2-.3-.4-.5-.5-.4-.5h0c0-.1,0-.7,0-.7v-.7c0,0-.8-2-.8-2v-.3s0-.9,0-.9l.6-.3.3-.3h.3l.2-.3v-.2h1v.2c0,0,.4.1.4.1v.5c.1,0,.4.3.4.3l.3.5v.5c0,0,.3.2.3.2l.2.4v.3c0,0,0,.2,0,.2l.4.4.2.6v.2c.1,0,.4.2.4.2l.3.5h.2c0,.1.1.4.1.4l.5.6.6.2h.6c0,.1,0,.7,0,.7v.2c0,0-.3,0-.3,0v.6s-.1.3-.1.3v.4c-.1,0-.2.3-.2.3v.3s-.5.2-.5.2ZM339.9,177.3l-.3-.2-.3.2-.3.6-.9.2-.6.2h-.3l-.7.3-.5-.3h-.5c0,.1-.4.2-.4.2l-.4.3v.2c0,0-.2.3-.2.3h-.5c0,.1-.5.7-.5.7l-.7-.2-.2-.6v-.5c0,0-.4-.1-.4-.1h-1.2c0-.1-.8-.1-.8-.1l-.4.2h-.2c0-.1,0-.4,0-.4h.3v-.2c.1,0-.2-.8-.2-.8h.5c0-.1.2-.5.2-.5v-.6c0,0,0-1,0-1l-.4-.6-1.2-.2-.2-.2h.4c0,0,.4-.2.4-.2h.3c0,.1.2-.4.2-.4v-.4s-.1-.3-.1-.3h-.2l-.3-.5-.2-.3v-1.7c.1,0-.2-.6-.2-.6l-.4-.6v-1.2c0,0-.7-.8-.7-.8l-.6-.2-.6-.2-1-.6-.7-.2-.5-.4h-.5s.3-1.3.3-1.3l.2-.2.2-.3h.4l.5-.3.5-.2.8-.2.4-.2h.4c0-.1.3-.2.3-.2l.7-.2.5-.3h.5c0-.1.6-.2.6-.2l.8-.2v-.3h2.4c0-.1.2-.2.2-.2v-.3c.1,0,.2-.1.2-.1l.2-.3v-.4s0-.1,0-.1l-.3-.7h-.2c0,.1-.2,0-.2,0l.5-.4.2-.8h.3l.3-.2.3-.6.4.2h.4v-.2h.3l.2.3h.2s-.1.4-.1.4v.2c0,0,3.6.1,3.6.1v.2l.4.2h.2c0-.1.4.1.4.1l.2.5.5-.2v-.6h.7v-.2c.1,0,.3-.1.3-.1h.6c0-.1.2-.1.2-.1l-.2.5h.3s.1.3.1.3l.4-.5h.2s-.2.6-.2.6l-.2.3.4.3v.4c.1,0,.2.1.2.1h0c0,.1,0,.3,0,.3h-.3c0-.1-.2.3-.2.3h.3s0,.4,0,.4l-.4.2h0c0,.1,0,.3,0,.3v.4c0,0,0,.8,0,.8l-.2.6.3.3h.3l.2.3-.2.6.4.5.5.5.2.9v.2s-.2,1.6-.2,1.6l.2.4.3.5-.2.6v.5s.4.8.4.8v.6c0,0,0,.9,0,.9v.4s0,.4,0,.4h0c0,.1.4.2.4.2l-.4.6h-.2v.6c-.1,0,0,.3,0,.3h.3c0,.1,0,.4,0,.4l-.4.7v.4c0,0-.4.3-.4.3l-.2.2-.2.2-.5.4h-.3c0,.1-.5-.1-.5-.1h-.4c0-.1-.3,0-.3,0h-.3c0,.1,0-.4,0-.4h-1c0-.1-.3-.2-.3-.2l-.6.8h-.4ZM351,222.3l-.4-.7-.5-.2v-.3c.1,0,.1-.3.1-.3v-.6c-.1,0,.3-.3.3-.3h.7l.5-.4v-.8c-.1,0,.2-.4.2-.4l.3-.7-.3-.6-.3-.3-.7-1.2-.2-.3v-.2s.4,0,.4,0l.4.3h.6c0,.1.9-.2.9-.2l.7-.3.7-.2v-.2c0,0-.1-.4-.1-.4h-.4c0,.1-.5-.1-.5-.1v-.2c0,0,.4-.1.4-.1l-.2-.5v-.2c0,0-.2-.3-.2-.3l-.2-.2h-.6c0-.1-.5-.2-.5-.2h-.8c0,.1-.4.8-.4.8v.5c.1,0-.2.4-.2.4l-.2-.3v-.7s.1-.3.1-.3v-.8c0,0-.8-.9-.8-.9l-.4-.2-.5-.2-.5-.3h-.4c0-.1-.1,0-.1,0l.2.5-.3.7-.4.4-.8.2-.2.3-.4.2v.4s-.3.3-.3.3h-.2c0-.1-.5,0-.5,0l-.2.2-.4.6h-.4c0,0-.1.2-.1.2l-.2.3v.2c0,0,0,.3,0,.3l-.3.4h-.2c0-.1,0-.4,0-.4h-.2l-.2.2h0c0,.1-.2.3-.2.3v.3c-.1,0-.5.2-.5.2l-.6.2h-1.4c0-.1-.6-.4-.6-.4h-.3l-.8.2-.5.2-.2.3-.2.3h-.2c0,.1-1.1.5-1.1.5l-.5.3-1,.8-.6.3-.7.2-.9-.3-.3.2h-.6c0,.1-.3.1-.3.1l-.2-.2v-1.1c0,0,0-.7,0-.7v-.6c.1,0,.2-.3.2-.3v-.5c0,0,0-.4,0-.4l-.5-.4v-.2c0,0,0-.5,0-.5h.4c0-.1.3-.4.3-.4l-.2-.9.3-.2.3-.9h.2c0-.1,0,.1,0,.1h.6c0-.1.7-.2.7-.2l.5-.3.5-.8v-.4c.1,0,.2-.4.2-.4l.2-1.5v-1.1c-.1,0,0-1,0-1v-1.1c0,0,.2-1,.2-1l.3-.9.4-.9.4-.8v-.5c0,0,.3-.6.3-.6l.3-.2.2-.3v-.2c0,0,.2-.4.2-.4l.2-.2.4-.2v-.5c0,0,0-.2,0-.2v-1s.2-.9.2-.9l.2-.3.5-.2v-.8c-.1,0-.2-.2-.2-.2l-.2-.6-.2-.3-.3-.5-.5-.3-1-.4h-.7c0-.1-.4-.4-.4-.4l-.4-.6v-.7c-.1,0-.7-.9-.7-.9l-.6-.4-.5-.4h-.3c0-.1-.2-.3-.2-.3l-.6-.9v-.4s-.2-.4-.2-.4l-.9-.4.2-1.2v-.4s.3-.4.3-.4l.4-.4.7-.5.4-.3.9-.8.9-.4h.4c0,.1.9-.2.9-.2l.6-.7v-.4c0,0,.2-.3.2-.3h.6c0,.1.4.2.4.2l.4-.3.3-.2.2.3h.4c0-.1.2-.4.2-.4v-.6c-.1,0,.3,0,.3,0l.6-.2h.5c0-.1.5,0,.5,0h.4c0,.1.2.2.2.2h.7c0,.1.6.2.6.2h1.6c0-.1-.3.2-.3.2l.2.3h.8c0,.1.4,0,.4,0v-.3h.2c0-.1.4-.2.4-.2h1.2c0,.1.6,0,.6,0l.2-.9.3-.5h1c0,.1.5-.1.5-.1l.2-.2.6-.3,1.7-.4.7.6.8.6.3.6.8.2.5.5v.9s.7,1.4.7,1.4v.9l-.4,1-.6,1,.4.5v.6c-.1,0,0,.3,0,.3l.4,1v.4c.1,0,.3.2.3.2l.8,1.2v.6c.1,0,.5.8.5.8v.4s-.2.4-.2.4l.4.4h.5c0,.1.5,0,.5,0l.2.6v.3c0,0,0,.4,0,.4h.4s.4.6.4.6l.2.6.7-.2h.2c0,.1.3.9.3.9h.4c0,.1,0-.2,0-.2l-.2-.6-.2-.3.3-.2h.4l.4.3v-.5c0,0-.1-.5-.1-.5v-.3s.7-.3.7-.3h.5c0-.1.1.2.1.2h.3l.2-.3h.9v.4h.5l.2.3-.2.3.2.2h1v-.2h.3l.3.2.2.4h.8c0,0-.2,1.3-.2,1.3l-.3.8v.3c-.1,0-.5.6-.5.6l-.5,1.2-.3,1.7v1.1c.1,0-.1.7-.1.7l.5.9.4.5v.7c0,0,0,.7,0,.7l-.7,1.7-.7.2h-.2c0,.1-.2.7-.2.7v1.2c0,0-.4.7-.4.7v.3l.2.2v.7s-.4.3-.4.3h-.3c0,0-.2.2-.2.2l-.2.6-.2.3.3.6v.8c0,0-.6.7-.6.7l-.6.2v1.1c-.1,0-.6-.1-.6-.1l-.2.3v.3c0,0-.1.8-.1.8v.5c.1,0,0,.3,0,.3l-.5.3-.7.2-.2.7.4.2v.2c-.1,0-.3.3-.3.3l-.3.3-.5.3-.3.3-.3.4v.2c.1,0-.2.4-.2.4l-.2-.2h-.3l-.3.3v.3s-.9.1-.9.1l-.6,1.2h-.4c0-.1-.2.3-.2.3v.5c0,0,.2.3.2.3h-.7s0,.3,0,.3l.4.3h0c0,.1-.3.1-.3.1l-.4.4-.2.3-.2.2v.3c-.1,0-.1.4-.1.4l-.9.4h-.6c0,.1-.4.2-.4.2l-.4.3-.6.8v.4c0,0-.2.4-.2.4l-.3.5h-.5c0,.1-.7-.3-.7-.3l-.3-.7-.4-1.1v-.4c0,0,.7-.6.7-.6v-.5s.2-.5.2-.5l.3-.7.5-.4v-.6c.1,0,.1-.5.1-.5v-.3ZM381.1,254.7l-.3.9-.5.6v.3s-.4.7-.4.7l-.7.9-.4.8-.2.2-.4.7-.3.3-.6,1.5-.2.6-.2.6v.2c.1,0-.3.9-.3.9v.3c-.1,0-.6.9-.6.9l-.3.2v.2c-.1,0,.2.3.2.3v.2c0,0-.3.2-.3.2l-.5.3-.2-.3v-.9s.4-.3.4-.3v-1c.1,0,.6-1.3.6-1.3l.2-.4.3-.3v-.3s.7-.6.7-.6l.2-.4.3-.7.4-.6.3-.5.2-.2.5-.6v-.5c.1,0,.2-.2.2-.2l.5-.6.3-1,.3-.5v-.3c.1,0,.4-.4.4-.4l.3-.2h.4l-.2.3ZM312.3,349.7l.7.3.2.3v.5c0,0,.4.2.4.2l.4.4.2.4v.5c0,0-.2.6-.2.6v.3c0,0-.2.4-.2.4l-.5.7-.3.3v.4s0,.7,0,.7l-.2.4-.7-.3v.4s.2,0,.2,0v.3s-.4.3-.4.3l-.9-1.6-.5-.3-.2-.4-.4-.3-.3-.4-.4-.6v-.6c-.1,0-.2-.5-.2-.5l-.4-.6.2-.7.5-.5.5.3.5-.2v-.3h1.4c0,0,.1,0,.1,0h.4Z"/>
  </g>
</svg>