<?xml version="1.0" encoding="UTF-8"?>
<svg id="Layer_1" xmlns="http://www.w3.org/2000/svg" xmlns:amcharts="http://amcharts.com/ammap" version="1.1" viewBox="0 0 512 512">
  <!-- Generator: Adobe Illustrator 29.1.0, SVG Export Plug-In . SVG Version: 2.1.0 Build 142)  -->
  <g id="_x3C_defs">
    <amcharts:ammap bottomLatitude="27.3054027557" leftLongitude="78.3934631348" projection="mercator" rightLongitude="99.1109237671" topLatitude="36.4857940674"/>
  </g>
  <g>
    <path id="CN-540300" d="M496.3,352.8l12.1-20.7-1-20.4-4.6-39.2-16-27.5-19.3-4.7-15.7,24.1-11.5-7.6-1.9,10.1-32-21.9-5.8,14.3,7.5,19.7-9.8-6.9-6.3,15h-16.8s12.2,11.5,12.2,11.5l27.1-4.5,29.9,9.1,1.8,17,20.2,6.3,1.5,10.3,17.5.3,10.8,15.7Z"/>
    <path id="CN-540100" d="M350.5,305l-15.8,1.5-15-22.5-13.8-.5-22.5,28.6-1.9,15.2,12.6,4.2,50.2-14,6.4-12.6Z"/>
    <path id="CN-542400" d="M221.5,125.5l-83.8,30.8,14.8,22.2-2.7,15.4,39.6,24.9,1.3,12.4-24.5,21.9,27.3,29.4,9.1,17.2,12.6-13.7,13.7,15.6,54.5,10.4,22.5-28.6,13.8.5,15,22.5,15.8-1.5,6.4-9,16.4,7.8,14-5.2-12.2-11.5h16.8s6.3-15,6.3-15l9.8,6.9-7.5-19.7,5.8-14.3-110.4-26.6-16.8-20.6,3.7-24.7-9.6-12.7,8.3-18.8-13.2-12.8-46.8-3.3Z"/>
    <path id="CN-542500" d="M137.7,156.3l-35.9-10.3-17.8,13.9-31.1-5.6-14.2,26.8-28,14.7,14.3,39.9-7.2,9.1-14.1-5.3,8.9,33.2,59.2,39.1,5.3-10.7,18.1,4.8,12.4-14.5,11.3,3.7-10.5-14.7,11.5-15.8,35.5,1.1-2.9,29.7,16.5,24.9,14.3-8.5,10.2-29.1-27.3-29.4,24.5-21.9-1.3-12.4-39.6-24.9,2.7-15.4-14.8-22.2Z"/>
    <path id="CN-540400" d="M496.3,352.8l-10.8-15.7-17.5-.3-1.5-10.3-20.2-6.3-1.8-17-29.9-9.1-27.1,4.5-14,5.2-16.4-7.8-6.4,9-6.4,12.6,17.8,10.3-15.9,17.9,25.7,3.5,27.8-18.1,19.9,7.8,15.4-11.4,12.7,19.5-4.5,10.7,30.8-3.4,19.8,9.7,2.7-11.3Z"/>
    <path id="CN-540500" d="M371.8,349.2l-25.7-3.5,15.9-17.9-17.8-10.3-50.2,14-4.4,31.8,43.3,12,38.9-26.1Z"/>
    <path id="CN-540200" d="M260.9,386.5l15.4-22.3,13.3-.9,4.4-31.8-12.6-4.2,1.9-15.2-54.5-10.4-13.7-15.6-12.6,13.7-9.1-17.2-10.2,29.1-14.3,8.5-16.5-24.9,2.9-29.7-35.5-1.1-11.5,15.8,10.5,14.7-11.3-3.7-12.4,14.5,94.2,64.6,63.5-5.3,7.9,21.4Z"/>
  </g>
</svg>