<?xml version="1.0" encoding="UTF-8"?>
<svg id="Layer_1" xmlns="http://www.w3.org/2000/svg" xmlns:amcharts="http://amcharts.com/ammap" version="1.1" viewBox="0 0 512 512">
  <!-- Generator: Adobe Illustrator 29.1.0, SVG Export Plug-In . SVG Version: 2.1.0 Build 142)  -->
  <g id="_x3C_defs">
    <amcharts:ammap bottomLatitude="-9.4477071661" leftLongitude="-172.5217437744" projection="mercator" rightLongitude="-171.1786651611" topLatitude="-8.5307749243"/>
  </g>
  <path id="TK" d="M499.7,430.5h.8c0,0,1.2-1.8,1.2-1.8l-.5-.9-1.7,1.2.2,1.6ZM503.5,426.1l-.9.2.3.5-.6-.2.3,1.1-.7-1v.9c-.1,0,.4.8.4.8l1.1-1.3v-.9ZM499.3,426.2l.7-.7-.2-.4-.8.3.4.7ZM497.6,421.1l-1,.5.6.8.7-1.1h-.8c0,.1.5-.2.5-.2ZM496.5,420.7h-.8c0,0,.1.6.1.6l.7-.2v-.4ZM503.1,418.6l-.6.3.9.4.5,1.3.4,2.9-.7.7.7.5.5-1-.2-3-.6-1.7-.8-.2ZM503.5,418.4l.3-.5-.9.2.6.3ZM503.8,416.8l-.2-.4-.5.2v1c0,0,.6,0,.6,0v-.8ZM493.1,416l-1,.2.4.7h.5c0-.1,0-.9,0-.9ZM503,416.5l.8-.2v-.5s-.7.1-.7.1l-.5.5h.3ZM503.6,414.6l-.4-.3-.3.5.7-.2ZM502.7,413.8h.5c0-.1,0-.8,0-.8l-.7.3.2.5ZM503.8,412.2l-1.5.3,1.4.2v-.5ZM503.7,410.8h-1c0,0-.4.6-.4.6l1.4.3v-.9ZM503.8,410.2h-1.6c0,.1,1.6.4,1.6.4v-.4ZM503.8,406.6h-.9c0,0,.2.6.2.6l1.3.6.3-1.1h-1.1ZM505.3,405.3v-.9c.1,0-1.7,0-1.7,0l1.4,1.2.3-.3ZM477.8,403.8h-2.2c0-.1-.6,1.2-.6,1.2l.8.4,3.6-1.2-1.6-.4ZM506.4,402.2l-1.5-.8,1.3,1.1.2-.3ZM505.6,401.1l.2.5h1c0,0,0-.6,0-.6h-1.3ZM507.6,401h-.4c0-.1.3-.8.3-.8l-1.4-.4,1.1.7v.7l.4-.2ZM503.5,389.9l-.7-1.1-.7.4,3.8,4.8h.5c0,0,.2,1.1.2,1.1l1.5,1.7v.8c0,0-.7,1.3-.7,1.3l-.8-.5-.5.4,1.4.6,1.7-1.3v-1.1s-2.7-4.2-2.7-4.2l-2.9-3.1ZM502.2,389.1l-.2-.5-.3.4h.4ZM499.7,385.9l-2-.8-.7.8.4.4,1.2-.4,2.9,2.8.4-.7-2.3-2.3ZM273.8,348.1l.3-.5h-.4s0,.5,0,.5ZM272,347.6l.2-.5h-.5c0-.1.3.5.3.5ZM269.6,346.1l-.5-.3-.5.7.7.2.3-.7ZM263.8,344.3l-1.6-1.3.2,1.1,1.4.2ZM261,341.6l-1.3-.6.5,1h1s-.2-.4-.2-.4ZM259.2,339.3l-1-1.3h-.6c0,0,.7,1.2.7,1.2h.9ZM252.9,332.8l-.3-.7-.7.7,4.9,4.8h.9s-1.3-1.6-1.3-1.6l-1.9-1.1-1.7-2.2ZM250.5,330v-3.7s-.9,2.2-.9,2.2l.5,1-.4.3.6.2-.3.4.6.6.4-.2-.5-.9ZM287.3,342.6l.8-.8v-1.5c0,0-3.3-7.4-3.3-7.4l-4.3-12.5-.4.2,1.7,6.4,5.5,13.4v1.2c0,0-.8,1.1-.8,1.1h.7ZM280.1,315.4h-.5c0-.1.4.2.4.2l.2,4.7.6-.3-.3-4.5-.4-.2ZM279.9,312.2h-.6c0,.1.3,2.8.3,2.8l.8-.2-.5-2.6ZM251.9,324.4l1.7-4.4.2-4.3-1.6-7.2.7,10.7-.5,2.7-1.3,2.8.7-.3ZM253.7,305.5l-.5-.5-.9.3-.5,1.3.3.6,1.6-1.6ZM281.8,304h-.9s.7.3.7.3l.3-.3ZM282.8,300.4l-.5-.7-2.2,1.1-.2,1.5,1.2-.3v-.5c-.1,0,.7-.7.7-.7l.2.3-.9.7-.4,1.5,1.1-.6.9-2.2ZM10.2,101.1l.4-.3-.4-.6v.8ZM9.4,101.4l.6-.3.2-1.3-1.3,1.6h-.8c0,0,0-.4,0-.4h.7c0,.1-.3-.8-.3-.8l-.9,1,.8.7,1.1-.5ZM10.7,100.8l.6-.3-.9-.8.3,1.1ZM7.9,99.4l-1.1-.3.4,1.2.7-.9ZM11.9,100.2l.3-.2-.8-1.1.6,1.3ZM12.9,99.2v-.7c0,0-.7-.2-.7-.2l.7,1.5h.3c0,0-.3-.5-.3-.5ZM12,98.6l-.3-.4,1,1.6-.7-1.3ZM13.4,98.2h-.5s.5,1.3.5,1.3l-.2-1.2.6,1-.4-1.1ZM14.6,99.1l.6-.3-.6-1-.3.2.3,1.1ZM16.1,98.3l-.2-.7v1.1c0,0,.2-.5.2-.5ZM17.5,98.5l-.3-1.3-.2,1.3h.5ZM18.4,98l-.3-1v.9c0,0,.3.1.3.1ZM19.4,96.8h-.4s.2,1.3.2,1.3l.2-1.3ZM7.7,97.3v-.7c-.1,0-.7.1-.7.1l.7.6ZM20.6,97.9v-1.8c0,0-.3-.2-.3-.2l-.2,1.9h.4ZM7.5,95.5l-.2-.5-1.2-.4.2,1.1,1.1-.2ZM6.5,93.6l-.3-1.2v.9c-.1,0,.3.3.3.3ZM6,90.6l-.5-.5.2.7.3-.2ZM9.6,83l.2-.9h-.6s0,1.2,0,1.2l.3-.2ZM13.1,82.1l-1.3-.3-2,1.6v.6c-.1,0,2.8-1.6,2.8-1.6l.6,1.4h.6c0-.1,0,.6,0,.6l1,.3v1.4c0,0,.7-.6.7-.6v1.2c.1,0,.6.4.6.4v-.5c0,0,1.5,1.8,1.5,1.8h.8c0,0,0,.5,0,.5l-.5-.2,2.8,2.2h1.2c0,0-.4.2-.4.2l.2.6,1.1-.4.4.8h-.5c0,0-.3.9-.3.9l.4.2-.4,1.6,1,1.7-1.2.6.5.4h-.7s-.1-.9-.1-.9h-.7c0,.1,0,.9,0,.9l.7.4,2-.2.2-.7-.9-3.4.5-2.7-5.8-3.7-2.2-2-2.4-3.3ZM5.3,81.5l-2.4.6.2,1.7,1.3,1.8.6,2v-2.4s-.8-2-.8-2l-.4.2v-.7c0,0,.7-.6.7-.6l2.7.8.2-.8v.9s.5-1,.5-1l-2.6-.7Z"/>
</svg>