<svg xmlns="http://www.w3.org/2000/svg" xmlns:amcharts="http://amcharts.com/ammap" id="Layer_1" viewBox="0 0 512 512"><g id="_x3C_defs"><amcharts:ammap bottomLatitude="-9.448" leftLongitude="-172.522" projection="mercator" rightLongitude="-171.179" topLatitude="-8.531"/></g><path id="TK" d="M499.7 430.5h.8l1.2-1.8-.5-.9-1.7 1.2.2 1.6Zm3.8-4.4-.9.2.3.5-.6-.2.3 1.1-.7-1v.9c-.1 0 .4.8.4.8l1.1-1.3v-.9Zm-4.2.1.7-.7-.2-.4-.8.3.4.7Zm-1.7-5.1-1 .5.6.8.7-1.1h-.8c0 .1.5-.2.5-.2m-1.1-.4h-.8l.1.6.7-.2zm6.6-2.1-.6.3.9.4.5 1.3.4 2.9-.7.7.7.5.5-1-.2-3-.6-1.7-.8-.2Zm.4-.2.3-.5-.9.2zm.3-1.6-.2-.4-.5.2v1h.6v-.8Zm-10.7-.8-1 .2.4.7h.5v-.9Zm9.9.5.8-.2v-.5l-.7.1-.5.5h.3Zm.6-1.9-.4-.3-.3.5zm-.9-.8h.5v-.8l-.7.3zm1.1-1.6-1.5.3 1.4.2v-.5Zm-.1-1.4h-1l-.4.6 1.4.3zm.1-.6h-1.6c0 .1 1.6.4 1.6.4zm0-3.6h-.9l.2.6 1.3.6.3-1.1h-1.1Zm1.5-1.3v-.9h-1.7l1.4 1.2zm-27.5-1.5h-2.2c0-.1-.6 1.2-.6 1.2l.8.4 3.6-1.2zm28.6-1.6-1.5-.8 1.3 1.1zm-.8-1.1.2.5h1v-.6h-1.3Zm2-.1h-.4c0-.1.3-.8.3-.8l-1.4-.4 1.1.7v.7zm-4.1-11.1-.7-1.1-.7.4 3.8 4.8h.5l.2 1.1 1.5 1.7v.8l-.7 1.3-.8-.5-.5.4 1.4.6 1.7-1.3V397l-2.7-4.2-2.9-3.1Zm-1.3-.8-.2-.5-.3.4h.4Zm-2.5-3.2-2-.8-.7.8.4.4 1.2-.4 2.9 2.8.4-.7-2.3-2.3Zm-225.9-37.8.3-.5h-.4v.5Zm-1.8-.5.2-.5h-.5c0-.1.3.5.3.5m-2.4-1.5-.5-.3-.5.7.7.2.3-.7Zm-5.8-1.8-1.6-1.3.2 1.1zm-2.8-2.7-1.3-.6.5 1h1zm-1.8-2.3-1-1.3h-.6l.7 1.2h.9Zm-6.3-6.5-.3-.7-.7.7 4.9 4.8h.9l-1.3-1.6-1.9-1.1-1.7-2.2Zm-2.4-2.8v-3.7l-.9 2.2.5 1-.4.3.6.2-.3.4.6.6.4-.2-.5-.9Zm36.8 12.6.8-.8v-1.5l-3.3-7.4-4.3-12.5-.4.2 1.7 6.4 5.5 13.4v1.2l-.8 1.1h.7Zm-7.2-27.2h-.5c0-.1.4.2.4.2l.2 4.7.6-.3-.3-4.5-.4-.2Zm-.2-3.2h-.6c0 .1.3 2.8.3 2.8l.8-.2zm-28 12.2 1.7-4.4.2-4.3-1.6-7.2.7 10.7-.5 2.7-1.3 2.8.7-.3Zm1.8-18.9-.5-.5-.9.3-.5 1.3.3.6 1.6-1.6Zm28.1-1.5h-.9l.7.3.3-.3Zm1-3.6-.5-.7-2.2 1.1-.2 1.5 1.2-.3v-.5c-.1 0 .7-.7.7-.7l.2.3-.9.7-.4 1.5 1.1-.6.9-2.2ZM10.2 101.1l.4-.3-.4-.6v.8Zm-.8.3.6-.3.2-1.3-1.3 1.6h-.8v-.4h.7c0 .1-.3-.8-.3-.8l-.9 1 .8.7 1.1-.5Zm1.3-.6.6-.3-.9-.8zm-2.8-1.4-1.1-.3.4 1.2zm4 .8.3-.2-.8-1.1.6 1.3Zm1-1v-.7l-.7-.2.7 1.5h.3l-.3-.5Zm-.9-.6-.3-.4 1 1.6-.7-1.3Zm1.4-.4h-.5l.5 1.3-.2-1.2.6 1zm1.2.9.6-.3-.6-1-.3.2zm1.5-.8-.2-.7v1.1l.2-.5Zm1.4.2-.3-1.3-.2 1.3zm.9-.5-.3-1v.9zm1-1.2H19l.2 1.3zm-11.7.5v-.7c-.1 0-.7.1-.7.1zm12.9.6v-1.8l-.3-.2-.2 1.9h.4ZM7.5 95.5l-.2-.5-1.2-.4.2 1.1 1.1-.2Zm-1-1.9-.3-1.2v.9c-.1 0 .3.3.3.3m-.5-3-.5-.5.2.7zM9.6 83l.2-.9h-.6v1.2l.3-.2Zm3.5-.9-1.3-.3-2 1.6v.6c-.1 0 2.8-1.6 2.8-1.6l.6 1.4h.6v.6l1 .3v1.4l.7-.6v1.2c.1 0 .6.4.6.4v-.5l1.5 1.8h.8v.5l-.5-.2 2.8 2.2h1.2l-.4.2.2.6 1.1-.4.4.8h-.5l-.3.9.4.2-.4 1.6 1 1.7-1.2.6.5.4H22l-.1-.9h-.7v.9l.7.4 2-.2.2-.7-.9-3.4.5-2.7-5.8-3.7-2.2-2-2.4-3.3Zm-7.8-.6-2.4.6.2 1.7 1.3 1.8.6 2v-2.4l-.8-2-.4.2v-.7l.7-.6 2.7.8.2-.8v.9l.5-1-2.6-.7Z"/></svg>