<svg xmlns="http://www.w3.org/2000/svg" xmlns:amcharts="http://amcharts.com/ammap" id="Layer_1" viewBox="0 0 512 512"><g id="_x3C_defs"><amcharts:ammap bottomLatitude="20.955" leftLongitude="-72.68" projection="mercator" rightLongitude="-71.074" topLatitude="22.163"/></g><g><path id="TC-06" d="m477.6 369.9-1.4 12.3 7.9-9.8z"/><path id="TC-03" d="m504.3 301-2.5 32.8 6-16.2-3.4-16.6Z"/><path id="TC-02" d="m319.4 388.6 2.4-6.3-.2-5.6zm51.2-94.2-.4-15.7-14.6 28 12.4 2.2zm14-53.8 2.9-10.3-10.8-14.1-35.5-16.6-5.3 5.2 48.8 35.8Z"/><path id="TC-01" d="m15.2 248.4 6.9-25.7-10.2 1.5-7.7 30.1 10.9-5.9Zm53.6-83-8.4-4.1-2.5 24.7 10.2-8.5-11 22.2 9-1.7-.3-9.6 15.3 8.2-2.3 5.1-8.1-5.1 4.2 10.2 21.4-12.9v5.7h14.8l10.9-11.2 2.3 8.2 12.9-13.4-8.2-7.8-12.4 10.5-19.4 3.1z"/><path id="TC-04" d="m177 123.4-7 7.3 5.3 13.7 11.2 1.9 16.5-17.1-2.5 30.3 22.2 13.9 13.9-4.4-17.1-9.4-2.9-32.9-39.6-3.4Z"/><path id="TC-05" d="m256.8 191.2 23-2.8 15.4 14 5.1-5.7 15.3 11.2-12.7-30.3 18 19.2-17.8-27.1-48.6.8-15.4-6.5 5.6 26 12.2 1.4Z"/></g></svg>