<?xml version="1.0" encoding="UTF-8"?>
<svg id="Layer_1" xmlns="http://www.w3.org/2000/svg" xmlns:amcharts="http://amcharts.com/ammap" version="1.1" viewBox="0 0 512 512">
  <!-- Generator: Adobe Illustrator 29.1.0, SVG Export Plug-In . SVG Version: 2.1.0 Build 142)  -->
  <g id="_x3C_defs">
    <amcharts:ammap bottomLatitude="20.955341" leftLongitude="-72.679901" projection="mercator" rightLongitude="-71.074357" topLatitude="22.163099"/>
  </g>
  <g>
    <path id="TC-06" d="M477.6,369.9l-1.4,12.3,7.9-9.8-6.5-2.5Z"/>
    <path id="TC-03" d="M504.3,301l-2.5,32.8,6-16.2-3.4-16.6Z"/>
    <path id="TC-02" d="M319.4,388.6l2.4-6.3-.2-5.6-2.2,11.9ZM370.6,294.4l-.4-15.7-14.6,28,12.4,2.2,2.6-14.5ZM384.6,240.6l2.9-10.3-10.8-14.1-35.5-16.6-5.3,5.2,48.8,35.8Z"/>
    <path id="TC-01" d="M15.2,248.4l6.9-25.7-10.2,1.5-7.7,30.1,10.9-5.9ZM68.8,165.4l-8.4-4.1-2.5,24.7,10.2-8.5-11,22.2,9-1.7-.3-9.6,15.3,8.2-2.3,5.1-8.1-5.1,4.2,10.2,21.4-12.9v5.7h14.8s10.9-11.2,10.9-11.2l2.3,8.2,12.9-13.4-8.2-7.8-12.4,10.5-19.4,3.1-28.4-23.6Z"/>
    <path id="TC-04" d="M177,123.4l-7,7.3,5.3,13.7,11.2,1.9,16.5-17.1-2.5,30.3,22.2,13.9,13.9-4.4-17.1-9.4-2.9-32.9-39.6-3.4Z"/>
    <path id="TC-05" d="M256.8,191.2l23-2.8,15.4,14,5.1-5.7,15.3,11.2-12.7-30.3,18,19.2-17.8-27.1-48.6.8-15.4-6.5,5.6,26,12.2,1.4Z"/>
  </g>
</svg>