<?xml version="1.0" encoding="UTF-8"?>
<svg id="Layer_1" xmlns="http://www.w3.org/2000/svg" xmlns:amcharts="http://amcharts.com/ammap" version="1.1" viewBox="0 0 512 512">
  <!-- Generator: Adobe Illustrator 29.1.0, SVG Export Plug-In . SVG Version: 2.1.0 Build 142)  -->
  <g id="_x3C_defs">
    <amcharts:ammap bottomLatitude="-58.50559" leftLongitude="-169.115834" projection="mercator" rightLongitude="190.122401" topLatitude="83.646363"/>
  </g>
  <g>
    <path id="nAfrica" d="M294.5,298.8l-.5-.4-.5-1.8-.2-1.5.3-.3-.5-1.5-.2-.3-1.6-1.4v-1s.2-.3.2-.3l-1.3-1.7-.4-.9-.5-.8-1.1-2.4-.9-1.6-.6-1.7h.1c0-.1,1,2.1,1,2.1l.6.7.5.5.3-.3.4-.8.3-1.2.4-.6-.9-2.8-.7.4h-1.1c0,0-1.1-.5-1.1-.5l-.3.5-.4-.8-1-.2h-1.2c0,.1-.6.6-.6.6l-1.1.5-.6-.3-1.4-.5-1.3-.4h-1.9s-.3-.5-.3-.5l-1.4-.2-.4-.3h-.5s-.5-.7-.5-.7l-1.9-.3-1,.2-1,.8-.4.8.3,1.2-.7.7-.7.4-1.5-.8-2-.7-1.3-.3-.7-1.5-1.9-.7-1.2-.3h-.6c0,.1-1.6-.4-1.6-.4l-.5-.3-.4-.8h-.7s-.3-.9-.3-.9l.9-.8.2-1.5-.5-.4v-.8s.7-.9.7-.9v-.3c0,0-1.3.6-1.3.6v-.9s-.9-.2-.9-.2l-1.5.7h-1c0,.1-.6-.3-.6-.3h-1.5s-1.3.7-1.3.7l-.7-.3h-2.3c0,.1-2.4.5-2.4.5l-1.3.5-.9.7-1.5.3-1.3.9h-.6s-1.4-.4-1.4-.4h-1.3c0,.1-.8-.6-.8-.6h-1s-.4,1-.4,1l-.9,1.8-1,.7-1.4.8-.9,1.1-.2.9-.5,1.4.3,2-1.2,1.3-.7.4-1.1,1.1-1.3.2-.7.6h0s0,0,0,0l-.9,1.6-.9.6-.5,1v.8s-.4.9-.4.9l-.5.2-.8,1-.5,1.1v.5c0,0-.4.8-.4.8l-.5.4v.7c0,0-.1.6-.1.6l.3-.5h5.5s-.3-2.2-.3-2.2l.3-.8h1.3c0-.1,0-4.1,0-4.1h4.6c0,0,0-2.3,0-2.3l5.3,3.8,4.7,3.3,4.7,3.3.3.7.9.4.6.2v.9s1.6-.1,1.6-.1l2-.7,4-2.9,4.8-2.9,2.2.7.8.8,1-.6,1.4-.8,5.6,2.9,5.6,2.8v5.8c0,0-1.1-.1-1.1-.1l-.6,1.1-.4.9.3.3-.5.4.2.6-.4.6v.5c-.1,0,.4,0,.4,0l.3.5v.8s.5.4.5.4v.3s.1.6.1.6l.8.9v.6s-.2.6-.2.6v.4c0,0,.6.4.6.4h.1c0,0,.4,0,.4,0l.5-.3.4-1.3.4-.7,1-.2.2.4.7.8h.4c0,.1.5-.1.5-.1h1s.2.3.2.3h1.4v-.3s.8-.3.8-.3v-.4c.1,0,.7-.3.7-.3l1.2.8h.7c0-.1.7-1.2.7-1.2l.8-.8v-.9c-.1,0-.5-.4-.5-.4h.8c0,0,0-.4,0-.4h.6c0,0-.2,1.1-.2,1.1l.2,1,.7.6.2.5v.7s.2,0,.2,0v-.2s.4-1.5.4-1.5l.7-.4v-.6c.1,0,.7-1.1.7-1.1l.8-.7.6-1.4.2-1.2v-.6c-.1,0,.5-2.1.5-2.1v-1c.1,0,.6-.4.6-.4l1-.2.7-.8-.8-.5ZM229.5,284.8h0s0,.1,0,.1h0Z"/>
    <path id="mAfrica" d="M282.3,328v.8c-.1,0,.2.6.2.6v1.7c0,0,.3,1.3.3,1.3v.7c-.1,0,.1.8.1.8l.8.8.8,1.8h-.6c0-.1-1.9,0-1.9,0l-.4.2-.4.9.3.6-.2,1.7-.2,1.4.4.3,1,.6.4-.3v1.5c.1,0-1,0-1,0l-.6-.8-.5-.6-1.1-.2-.3-.7-.9.4-1.1-.2-.5-.6h-.9c0-.1-.7,0-.7,0v-.4c0,0-.6,0-.6,0v.4c.1,0,0,.7,0,.7l.2.7-.2.5v.5c.1,0-2.8,0-2.8,0v4.6c0,0,.9,1.2.9,1.2l.9.9-2.6.6-3.4-.2-1-.7h-5.7c0,0-.2.2-.2.2l-.8-.7h-.9s-.8.2-.8.2l-.7.3v-.9c-.1,0,0-1.3,0-1.3l.5-1.3v-.6c0,0,.5-1.3.5-1.3l.3-.6.8-.9.4-.6v-1.1c.1,0,0-.8,0-.8l-.4-.5-.4-.9-.3-.8v-.3c0,0,.5-.6.5-.6l-.4-1.4-.3-.9-.7-.9v-.3c.1,0,0-.4,0-.4l-.4-1-1.1-1.5-1.4-1.4-.9-1.1-.8-1.4v-.5s.4-.4.4-.4l.3-1,.3-1-.3-.2.5-1.6.2-1.1-.5-.9-.6-.2-.3-.6-.4-.2v-.4s.4-1,.4-1l.7-1.3h.4s.8-.8.8-.8h.5s.8.6.8.6l1-.5v-.6c.1,0,.4-.6.4-.6l.2-.7.7-.6.3-1,.3-.3.2-.7.4-.9,1.2-1.1v-.5c0,0,.2-.3.2-.3l-.6-.6v-.5s.4,0,.4,0v-.7c.1,0-.8,0-.8,0v-.9s-.6-.5-.6-.5l.6-1.9,1.8-1.4v-1.9c0,0,.6-3,.6-3l.3-.6-.6-.5v-.5s-.5-.4-.5-.4l-.3-2.3,1.4-.8,5.6,2.9,5.6,2.8v5.8c0,0-1.1-.1-1.1-.1l-.6,1.1-.4.9.3.3-.5.4.2.6-.4.6v.5c-.1,0,.4,0,.4,0l.3.5v.8s.5.4.5.4v.3s.1.6.1.6l.8.9v.6s-.2.6-.2.6v.4c0,0,.6.4.6.4l1.1.6.8.6v.5s1,.7,1,.7l.6.6.4.8,1,.6.2.4.8,1.2.6.2.4-.2h.6c0,0,.8-.2.8-.2l.3.6,1.2.9v1.6c0,0,.5.2.5.2l-.4.5-.5.4-.5.7-.3.6v1.1c0,0-.4.5-.4.5v1s-.4.4-.4.4v.8c0,0-.2.1-.2.1Z"/>
    <path id="eAfrica" d="M313,309.2v.7s-.3.5-.3.5l-.4,1.5-.7,1.6-.9,1.8-1.2,2-1.2,1.6-1.6,1.9-1.4,1.1-2.1,1.4-1.3,1.1-1.5,1.7-.3.7-.3.3-1,.6-.3.6h-.5c0,.1-.2,1.1-.2,1.1l-.4.6-.3.9-.6.5-.6,1.7v.8c0,0,1,.5,1,.5v.4s-.3.8-.3.8v.4c0,0,0,.7,0,.7l.5.9.6,1.4.5.3.2.6v1.4c0,0,.1,1.2.1,1.2v2.2c0,0,.3.7.3.7l-.4,1-.5,1-.9.9-1.3.6-1.6.7-1.6,1.6-.5.3-1,1-.6.3v1.1c-.1,0,.5,1.1.5,1.1l.3.9v.4s.3,0,.3,0v1.5s-.3.7-.3.7l.3.3-.2.6-.6.5-1.2.5-1.7.8-.6.6v.7c.1,0,.5.1.5.1v.8c-.1,0-1.2,0-1.2,0v-.7c-.1,0-.3-.7-.3-.7v-.6c-.1,0,.1-1.7.1-1.7l-.4-1.1-.7-2.1-.7-.2-.5.2-.7-.3h-.6s-.9-.7-.9-.7l-1.1-.2-.4-.9v-.5s-.6-.2-.6-.2l-1.6-1.6-.4-.9-.3-.3-.5-1.2h-.3c0-.1,0-.2,0-.2l-.6-.3h-.9c0,0-1.1.2-1.1.2l-.9-.9-.9-1.2v-4.6c0,0,3,0,3,0v-.5c-.1,0,0-.5,0-.5l-.2-.7.2-.7v-.4c-.1,0,.3,0,.3,0v.4c0,0,.7,0,.7,0h.9c0,.1.5.8.5.8l1.1.2.9-.4.3.7,1.1.2.5.6.6.8h1.1s-.1-1.5-.1-1.5l-.4.3-1-.6-.4-.3.2-1.4.2-1.7-.3-.6.4-.9.4-.2,1.9-.2h.6c0,.1-.8-1.6-.8-1.6l-.8-.8-.3-.8v-.7c.1,0-.1-1.3-.1-1.3v-1.7c0,0-.4-.6-.4-.6v-.8c.1,0,.3-.1.3-.1v-.8c0,0,.5-.4.5-.4v-1s.3-.5.3-.5v-1.1c0,0,.4-.6.4-.6l.5-.7.5-.4.4-.5-.6-.2v-1.6c0,0-1.1-.9-1.1-.9l-.3-.6-.8.3h-.6c0,0-.4.1-.4.1l-.6-.2-.8-1.2-.2-.4-1-.6-.4-.8-.6-.6-.9-.7v-.5s-.8-.6-.8-.6l-1-.5.4-.2.5-.3.4-1.3.4-.7,1-.2.2.4.7.8h.4c0,.1.5-.1.5-.1h1s.2.3.2.3h1.4v-.3s.8-.3.8-.3v-.4c.1,0,.7-.3.7-.3l1.2.8h.7c0-.1.7-1.2.7-1.2l.8-.8v-.9c-.1,0-.5-.4-.5-.4h.8c0,0,0-.4,0-.4h.6c0,0-.2,1.1-.2,1.1l.2,1,.7.6.2.5v.7s.2,0,.2,0v1.1s0-1.3,0-1.3l.4-1.5.7-.4v-.6c.1,0,.7-1.1.7-1.1l.8-.7.6-1.4.2-1.2v-.6c-.1,0,.5-2.1.5-2.1v-1c.1,0,.6-.4.6-.4l1-.2.7-.8.8,1.7.4,1.3.8.7,1.9,1.4.8.8.8.8.4.5.7.4.3.4v.6s-.8.3-.8.3l.6.4.5.3.3.6.6.6h.7s1.3-.4,1.3-.4l1.5-.2,1.2-.4h.7c0,0,.5-.4.5-.4h.8s.4,0,.4,0l.6-.2h.7c0-.1.7-.6.7-.6h.5s0,.4,0,.4v.8ZM311.6,343.8l-.3-.9-.4-.6-.5-.6-.5.6v.9s-.8,1-.8,1l-.6-.2.2.6-.4.7-1.2.9-.8.8h-.6s-.5.3-.5.3l-.8.3h-.7c0,0-.2,1-.2,1l-.5.8v1.3c.1,0,.4.9.4.9l.3.7v.9c-.1,0-.8,1.1-.8,1.1v.5s-.6.3-.6.3l-.3,1.1v1.1c.1,0,.6,1.2.6,1.2v1.3c0,0,.5.8.5.8l1.1.6.8.4,1.2-.7,1.1-.4.6-1.8.5-2.1.9-2.8.7-2,.6-1.7v-1.2c0,0,.5-.3.5-.3v-.6c.1,0-.1-1.1-.1-1.1l.3-.4.5.8.2-.4v-.7c.1,0-.2-.7-.2-.7l-.2-1.7Z"/>
    <path id="wAfrica" d="M263.8,295.8l-.3.6-.5,3v1.9c0,0-1.9,1.4-1.9,1.4l-.6,1.9.6.5v.9s.9,0,.9,0v.7c-.1,0-.5,0-.5,0v.5s.5.6.5.6l-.2.3v.5c0,0-1.3,1.1-1.3,1.1l-.4.9-.2.7-.3.3-.3,1-.7.6-.2.7-.3.6v.6c-.1,0-1.1.5-1.1.5l-.8-.6h-.5s-.8.8-.8.8h-.4s-.7,1.4-.7,1.4l-.4,1-1.5.5h-.5c0,0-.5.2-.5.2h-1.1s-.7-.9-.7-.9l-.5-1-1-.9h-1.1s-1.2,0-1.2,0l-1.2.2-1.1.3-2.2.8-.8.5-1.3.4-1.2-.4h-.6s-1-.3-1-.3h-.9s-1.7.3-1.7.3l-1,.4-1.4.5h-.3s-.4,0-.4,0l-1.4-.7-1.3-1.1-1.2-.8-.9-.9h-.4c0-.1-1-.7-1-.7l-.7-.8-.2-.5-.2-1-.6-.8-.5-.6-.4-.2-.3-.3-.2-.6-.2-.3-.4-.2-.7-.6h-.6c0,0-.3-.5-.3-.5v-.2s-.4-.3-.4-.3v-.3c0,0-.3-1.1-.3-1.1l.2-.6-.6-1.1-.7-.5.6-.3.7-1,.3-.7v-.8c-.1,0,.3-.7.3-.7l.2-1.4-.2-1.4-.2-.7v-.7c.1,0-.2-.7-.2-.7l-.7-.6.3-.5h5.5s-.3-2.2-.3-2.2l.3-.8h1.3c0-.1,0-4.1,0-4.1h4.6c0,0,0-2.3,0-2.3l5.3,3.8,4.7,3.3,4.7,3.3.3.7.9.4.6.2v.9s1.6-.1,1.6-.1l2-.7,4-2.9,4.8-2.9,2.2.7.8.8,1-.6.3,2.3.5.4v.5s.6.5.6.5Z"/>
    <path id="sAfrica" d="M287.5,363.4l-.3,1.1-.2,1.3-.4.7-1,.8-.3.2-.6.8-.4.8-.8,1.2-1.6,1.7-1,1-1.1.8-1.5.6h-.7c0,0-.2.6-.2.6l-.8-.2-.7.3-1.5-.3-.8.2h-.6c0,0-1.4.6-1.4.6l-1.2.3-.9.6h-.6s-.6-.6-.6-.6h-.5s-.6-.8-.6-.8v.2c0,0-.3-.5-.3-.5v-1s-.4-1.1-.4-1.1l.5-.3v-1.3s-1-1.5-1-1.5l-.7-1.4h0s-1-2.1-1-2.1l-1-1.2-.5-1.1-.3-1.5-.3-1.1-.5-2.4v-1.8s-.2-.8-.2-.8l-.5-.6-.7-1.2-.7-1.8-.3-.9-1.1-1.4v-1.1c0,0,.6-.3.6-.3l.8-.2h.9s.8.7.8.7h.2c0-.1,5.7-.2,5.7-.2l1,.7,3.4.2,2.6-.6,1.1-.3h.9c0,0,.6.4.6.4h0c0,.1.3.2.3.2l.5,1.2.3.3.4.9,1.6,1.6.6.2v.5s.4.9.4.9l1.1.2.9.7h.6s.7.3.7.3l.5-.2.7.2.7,2.1.4,1.1-.2,1.7v.6c.1,0,.3.7.3.7v.7c.1,0,1.2,0,1.2,0Z"/>
    <path id="nAmerica" d="M23.5,295.3v.2c-.1,0-.6.1-.6.1l-.2-.3h-.2c0-.1,0-.2,0-.2h.1c0-.1.5,0,.5,0l.4.2ZM24.6,296.4h-.2c0-.1-.5-.4-.5-.4h-.1s0,.1,0,.1v.3c0,0-.1.2-.1.2v.2c0,0,.2.5.2.5v.4s.3.2.3.2l.2-.2.4-.2.5-.3h0c0,0-.4-.6-.4-.6l-.2-.2ZM20.7,293.9l-.4.2h0c0,0,.2.4.2.4h.5c0,0,.1,0,.1,0h0c0,0-.4-.6-.4-.6h-.1ZM18.5,293.1h-.2c0,.1,0,.3,0,.3l.5.3h.2c0-.1,0-.5,0-.5h-.3ZM27.4,225.2l-.7.4-1.3.9.2,1.2.7.7,1.4-1,1.2-1.2-.6-.8-.9-.2ZM21.6,294.8h.7s0-.1,0-.1h-.7c0,0-.1.1-.1.1ZM4.6,211l1-.6v-.3c.1,0-1-.3-1-.3v1.3ZM8.9,218.7l-1.4.5.8.8.9.5.9-.4v-1.1c-.1,0-1.2-.3-1.2-.3ZM57.4,234.9l-1.3.2-.7-.3v.8c0,0,.2,1,.2,1l.7.7.5,1.1.8,1h.6s-1.2-1.8-1.2-1.8l.4-2.7ZM223.7,115l-4.2-1.9-6.8,3.8-3.6,3.5,1.5-5.5-1.2-3.6-2.7,3.1-4.2-3.4-4.9,1.1-.7-1.8,7.5-1,5.3-.5,2.6-4.1-8.7-9.3-11.2-1.6-4.9,1.2-1.8,4.5-4.9-.5-4.7,6.8-.2,4.5,3.3,5.4-2.9-3.2-2-.8-3.3-3.9-3.7,5.6-1.5-3.1h-4.3c0,0-4.3,1.7-4.3,1.7l-3.3,2.6.6,4.3-2,1-4.8,6.1-1.2,3.3,3.8,2.9-.5,2.8-5.1,3.6-5.3,3.4-.2,2.7,3.2,2.7,6,1.7-2.8.3-3.7,2,2.4,3.8,1.6,1.9,3.4-.4,3.7-.2,3,.4,3.8,3.3v2.3s1.8,2.1,1.8,2.1l1.7,5.4,1.1,3.4.9,1.8-1.6,4.2,1.2,1.1,1.4-.6,1.3,1.5,2.4,2.7-2.9-1.1h-1.3c0,0-.5,2.3-.5,2.3v2.8c0,0,1.8,1.3,1.8,1.3l1.3-.6.8-.6,1.6-1.4-.3,3.1-.6,1.6-2.1,1.4-1.4,4.3.9,1.3-.5,2.6,1.9,3.1.2,2.9.7,2.1,2.4,3.8.9,2.9,1.4,1.6h2.8s2.1,2.3,2.1,2.3l2-.2.7-2.8.6-2.4-.6-2.3,2.3-2.5.7-2.1v-2.3s1.2-2.1,1.2-2.1l2-.8,1.9-.8h1c0-.1,3-2.6,3-2.6l1.9-3.8,1.4-1.4h1.5s4.1-1.3,4.1-1.3l3.8-3.1,3.7-3.5-1.9-.2-3.7-.2,1.6-2.2-.5-2.9,1.7,2.5,1.1,1.6,2.5-.8-.5-3.5-1.8-2.7-1.9-1.1.7-1.2,2.8,1.9v-2.1s-1.8-3.2-1.8-3.2h1.9s2-.8,2-.8l.5-1.8-1.6-2.1,3.1-.4-1.8-4.6,1.5-.5-.3-4.8-2.6-3.1,2.3-1.9,2.2-.3-1.7-4.2v-7.6s1.1-4.8,1.1-4.8l1.6-5.7-3.2-.4,4.5-1.4.8-1.9,5.7-6.3-.8-4ZM100.4,186.2l-2.5-2-2.3-2.1-.4-3.1-.9-4.5-1.6-1.9-1.4-.8-1.2.7,1,4.8-.7,1.9-1.1-4.5-1.3-1.5-1.6,2.4-1.9-2.4-3.1,1.4.7-2.2-1.4-.9-3.7,2.9-1,1.9-1.2,3.4,2.4,1.2h2.2c0,0-3.2,1.7-3.2,1.7l.7,1.6h2c0,0,3-.2,3-.2l2.7,1-1.8.7-2-.2-2.2.7-.9.4,1.7,3.2,1.2-.4,1.9,1.1.8,1.8,2.5-.4,3.5-.6,2.6-1.3,1.6-.2,2.4,1.1,2.5.6.5-1.4-.9-1.5,2.3-.3.2-1.8ZM104.3,185.7l-1,1.8-1.2,1.2,1.9,1.8,1.1-.4,1.9,1.2.9-1.4-.9-1.5-.4-.8-.8-.7-1.5-1.2ZM95.5,171l-1.1-1.1-1.9.2-.5.7,2.2,3.4,1.2-3.2ZM109.8,177.6l1.5-3.5,1.7-.9,2.1-4.4-2.7-1.2-2.9-.2-1.4,1.4-.7,2.1v2.4s.9,4.1.9,4.1l1.6.2ZM102.1,163.4l2.3-.6.6-4.1v-3s-1.1-2.8-1.1-2.8v.8c-.1,0-2.1-.3-2.1-.3l-2.1,2-1.5-.2v4.4c0,0,2.4-.4,2.4-.4v3.2s1.5.9,1.5.9ZM105.8,170.7l-.4-1.4-2.5.6-1.7-1.1-1.7,2.4,1.5,3.1-2.9-.6v1.5s3.4,3.5,3.4,3.5l1,1.7,1.3.4,2.3-1.7.3-4.1-2.1-2,1.3-2.3ZM110,165l.8-2.1-.5-1.7-1.2-2-2,1.5-.7,2.5,1.7,1.4,2,.4ZM136.4,196.1l.2-.5v-1.6s-1.1-1-1.1-1l-1.3.5-.6,2.1.3,1.8,1.6-.2.9-1.1ZM115.5,119.3l1.2,3.6,2.5,2.9,4.9-.5,3.1,1-2.2,3-1.1-.9-3.8-.4.6,4.1,2,3-.4,2.6-2.5,1.7-1.1,2.7,2.3,1.3,1.9,4.3-3.7-2.8-.9.5.7,4.7-2.6,1.4.2,2.9,2.6.3,2.1.7,4.1-.9,3.7,1.6,3.7-3.6v-1.5s-2.4.2-2.4.2l-.2-1.4,2-1.9.7-2.6,2.2-1.9,1.3-2.4-1.2-3.5,1-1.3-1.9-.9,4.2-.8.9-1.6,2.9-1.3,2.4-6.7,2.3-2.5,3.3-5.5h-3s1.3-2.1,1.3-2.1l3.4-2,3.4-4.4v-2.9c0,0-2.5-3-2.5-3l-3-1.5-3.7-.9-3-.7-3-.7-4,2-.7-1.3-4.3.5-2.5,1.3-1.8,1.8-1.1,5.9-1.5-3-1.7-.6-2.1,4-2.7,1.7-1.6.3-2.1,1.9.3,3.3,1.6,2.7ZM146.6,185.8l-1.2-1.7-3.4-1.7-1.5-2.8-2.6,1-.2-1.9-1.9-2.2-3.1-2.4-1.3,1.9-2.8,1.3.2-3-2.4-5-3.5,2-1.3,3.8-1.1-3,1-3.2-3.6,1.3-1.4,2-1.1,4.2.4,4.5h2s-1.5,2-1.5,2l1.2,1.5,2.3.6,3,1.2,5.1.9,2.5-.5.7-1.2,1.1,1.4,1.2.2,1.5,2.5-.9,1,2.8,1.3,2.1,1.8.5,1.3.4,1.6-1.8,3.5-.5,1.7.5,1.2-2.9.4h-2.6c0,0-.9,2.5-.9,2.5l1.2,1.1,4-.5v-.9s2,1.6,2,1.6l2.1,1.6-.5.9,1.7,1.5,3,1.8,3.8,1.2-.2-1-1.5-1.8-2-2.7,3.5,2.5,1.8.8.5-2.2-.9-3.1-.6-.9-1.9-1.5-1.5-2,.2-2,1.8-.4,2.2,3.3,1.7,1.4,2.5-3.9.4-2.5-2.2-.2-2-3.3-2.2-.8-3.3-2.5,2.6-1.8-1.3-3.8ZM129.6,208.7l-1-1.1-1,.2v-1.5c-.1,0-1.7-1-1.7-1l-1.5-1.1-.8-.9-.7.5-.3-1.5-1-.3-.5,3.1-.2,2.5-1.2,1.6,1.9-.3.5,1.8,2-1.6,1.4-1.7.8,1.4,2.2.8,1.2-1ZM130.2,215.1l.5-1.6-.4-.6h-.6c0,0-.5.8-.5.8v.2c0,0,.3.9.3.9l.6.2ZM118.4,166.1h2.9c0,0,4-.9,4-.9l1.8.6,2.1-1.1.9-1.4-.3-2.3-1.5-2.1-2.3-.4-2.8.5-2.2,1.2-2-.5-1.9-.2-.9-1.3-1.6-1.3.3-2.2-1.2-2h-2.8s-1.6-2-1.6-2l-2.9-.4-.5,2.5,1.6,1.9,2.9.7,1.4,2.5.2,2.8.5,3,3.7,1.7,2.3.6ZM124.2,212.6l.3.8h1c0,0,1.6-1.6,1.6-1.6v-.6s-1.9,0-1.9,0l-1,1.4ZM110.4,148l.2-.7-1-1.2h-2.8c0,0,.4,1.7.4,1.7l2.6.4.6-.2ZM68.9,247.4l-.6-1.2-1.4-.9-.7-1-.5-.8-1.3-.2-.9-.3-1.5-.5v.5c-.1,0,.4,1.2.4,1.2l1.4.4.3.6,1.3.7.4.8,2.3,1,.7-.3ZM69.5,182.5l3.7-2.1v-1.9l1.7-3.2,3.4-3.3,1.8-1.2-1.5-2.1-1.4-1.5-3.6-.3-2-1.1-4.7.8,1.4,3.1-1.2,3.2-1,3.4-.6,1.9,3.2,2.3.7,1.9ZM74,157l2.6-2.5,1.3-.3,1.1-2.1.2-4.9-1.9,1h-2.1c0,0-2.9,4-2.9,4l-2.4,4.5,1.9,1.3,2.2-.9ZM167.4,247l-1,.4.4-1.6-1.4-.7-.6.5-1.2-.6.5-.8-.9-.5-.9.7.9-1.9.7-1.4.3-.6h-.6c0,0-1.2.7-1.2.7l-.9,1.3-1.4,3.4-1.2,1.3.6.6-.9.7.2.6h2.7c0,0,1.5,0,1.5,0l1.3.5-1,1h.8c0,0,1.6-1.7,1.6-1.7l.4.3-.3,1.7.9.4h.6c0,0,.6-1.9.6-1.9l-.4-1.3-.2-1.1ZM157.1,252l.9.7-1.7,1.3-3.1,1.2-1.4.8-1.6,1.4h-1.1c0-.1,0-1.8,0-1.8l2.4-1.6h-2.2c0,0-1.6.3-1.6.3l.2.6-1.5.9-1.4.7-1.5.6-.7,1.1-.2.4v1s.4,1,.4,1h.6s-.1-.6-.1-.6l.4.4v.5c-.1,0-1.1.3-1.1.3h-.7s-1,.3-1,.3h-.6c0,0-.8.2-.8.2l-1.2.5,2.1-.3.4.4-2,.6h-.9s0-.2,0-.2l-.4.5h.4c0,0-.3,1.4-.3,1.4l-1,1.4v-.5c-.1,0-.4,0-.4,0l-.5-.5.3,1,.3.3v.7s-.4.7-.4.7l-.8,1.4h-.1c0,0,.4-1.3.4-1.3l-.7-.7-.2-1.5-.3.8.3,1.1-.9-.3,1,.6v1.7c0,0,.5.1.5.1v.6c.1,0,.3,1.7.3,1.7l-.9,1.3-1.4.5-.9,1h-.7c0,.1-.7.7-.7.7l-.2.6-1.5,1.1-.8.8-.7,1-.2,1.2.2,1.1.5,1.4.6,1.1v.7s.7,1.8.7,1.8v1s-.1.6-.1.6l-.3.9-.4.2-.7-.2-.2-.7-.5-.4-.7-1.3-.7-1.2-.2-.6.3-1-.4-.9-1.1-1.3-.5-.2-1.4.7h-.3c0,0-.7-.8-.7-.8l-.9-.4-1.6.2-1.2-.2h-1.1c0,.1-.6.4-.6.4l.3.4v.6s.3.3.3.3l-.3.2-.5-.2-.5.3h-1s-1-.9-1-.9l-1.2.2-1-.4h-.9c0,.1-1.2.5-1.2.5l-1.3,1.2-1.4.7-.8.8-.3.7v1.1s0,.7,0,.7l.3.5h-.5s-1-.3-1-.3l-1.1-.5-.4-.7-.3-1.1-.8-.9-.5-.9-.7-1.1-1-.6h-1.1s-.9,1.3-.9,1.3l-1.2-.5-.7-.5-.3-.9-.5-.8-.8-.7-.7-.5-.5-.6h-2.4s0,.7,0,.7h-1.1s-2.8,0-2.8,0l-3.2-1.2-2.1-.8v-.3c.1,0-1.6.2-1.6.2h-1.6c0,.1-.2-.7-.2-.7l-.9-1-.7-.2-.2-.5h-.8c0,0-.5-.5-.5-.5l-1.3-.2-.4-.3-.2-.9-1.4-1.7-1.2-2.4v-.4s-.6-.6-.6-.6l-1.1-1.5-.2-1.5-.7-1,.3-1.5v-1.6s-.5-1.4-.5-1.4l.5-1.8.2-1.8.2-1.8-.3-2.7-.4-1.8-.4-1,.2-.4,2,.7.7,2,.3-.5-.2-1.7-.5-1.7h-.2s-2.7-2.1-2.7-2.1l-1-.9-2.5-.9-.8-2,.2-1.4-1.8-1-.2-1.9-1.7-1.7v-1.2s-.8-.9-.8-.9l-1.2-.8-.4-2.2-1.8-2.1-.8-2.5-1.3-.2h-2.2c0,0-1.6-.8-1.6-.8l-2.9-2.8-1.3-.5-2.4-1-1.9.2-2.7-1.3-1.7-1.2-1.6.6.3,2-.8.2-1.6.6-1.2.9-1.5.6-.2-1.6.6-2.8,1.5-.9-.4-.7-1.8,1.6-1,1.9-2,2,1,1.3-1.3,1.9-1.5,1.1-1.4.8-.3,1.1-2.2,1.3-.4,1.2-1.6,1.1-1-.2-1.3.7-1.4.8-1.2.8-2.4.7-.2-.4,1.5-1.1,1.4-.8,1.5-1.4,1.7-.3.7-1,1.9-1.5.3-.5,1-.9.2-2,.7-1.6-1.6.8-.5-.5-.8,1-.9-1.4-.4,1-.5-1.3-1.4,1.1h-.9s-.1-1.6-.1-1.6l.3-1-.9-1-1.8.5-1.2-1.3-1-.7v-1.6s-1.1-1.2-1.1-1.2l.5-1.7,1.1-1.7.5-1.6,1.1-.2,1,.5,1.1-1.5,1,.3,1.1-1-.3-1.5-.8-.6,1-1.3h-.9s-1.5.7-1.5.7l-.4.7-1.1-.7-2,.4-2-.8-.6-1.3-1.8-1.9,2-1.4,3.1-1.7h1.1l-.2,1.7h3c0-.1-1.1-2.3-1.1-2.3l-1.7-1.4-1-1.8-1.3-1.6-1.9-1.2.8-2h2.5c0-.1,1.8-1.9,1.8-1.9l.3-2,1.4-2,1.4-.5,2.7-1.9,1.3.3,2.2-2.3,2.1.9,1,1.9.6-.8,2.4.3v1c0,0,2.1.7,2.1.7l1.4-.4,2.9,1.3,2.7.4,1.1.5,1.9-.7,2.1,1.2,1.5.6,2.6,1,2.2,1.9,1.5.4,1.2-1.6,1.7-1.2,2.1.5,2.1-1.8,2.3-1,1,1.7,1-.9.3-1.9,1,.4,2.4,3.7,1.9-2.7.2,3.1,1.7-.7.5-1.2,1.7.2,2.1,1.7,3.3,1.4,1.9.7,1.4-.2,1.9,1.9-2,1.9,2.5.8,3.8-.4,1.2-.6,1.5,2.2,1.5-1.9-1.4-1.6.9-1.3,1.7-.2,1.1-.4,1.1.9,1.4,2.1,1.6-.3,2.5,1.7,2.2-.6h2c0,0-.2-2.2-.2-2.2l1.2-.7,2.2,1.3v3.5s.9-2.9.9-2.9h1.1c0,.1.6-3.7.6-3.7l-1.5-2.4-1.6-1.6v-4.7c.1,0,1.8-3.2,1.8-3.2l1.8.7,1.4,1.9,1.9,4.8-1.2,2,2.6.8v4s1.9-3,1.9-3l1.7,2.5-.4,2.8,1.4,2.5,1.5-2.6,1-3.3v-4.3c0,0,2.1.3,2.1.3l2.1.6,1.9,2v1.9c0,0-1,2-1,2l1,2-.2,1.8-2.7,2.5-1.9.5-1.4-1.1-.4,1.7-1.3,2.9-.4,1.4-1.6,2.2-2,.2-1.1,1.3v2c0,0-1.7.4-1.7.4l-1.7,2.4-1.5,3.3-.5,2.2v3.2c0,0,2,.4,2,.4l.6,2.5.7,2,2-.5,2.6,1.1,1.4,1,1,1.2,1.8.7,1.5,1h2.3c0,.1,1.5.4,1.5.4l-.2,2.1.4,2.4,1,2.6,2.1,2.1,1.1-.7.8-2.3-.7-3.7-1-1.3,2.2-1.1,1.6-1.7.8-1.7v-1.7c-.1,0-1.1-2.2-1.1-2.2l-1.7-2,1.7-2.9-.6-2.6-.5-4.6,1-.7,2.4.8,1.4.3,1.2-.8,1.3,1,1.7,1.7.4,1.1,2.5.2v2.4s.4,3.5.4,3.5l1.3.4,1,1.6,2-1.5,1.3-3,.9-1.3,1.1,2.5,1.8,3.4,1.5,3.1-.6,1.6,1.9,1.4,1.3,1.4,2.2.6.9.8.6,2,1.1.3.6.9v2.6c.1,0-.9.9-.9.9l-1,.8-2.3.8-1.8,1.8-2.4.4-3-.5h-2.1s-1.4.1-1.4.1l-1.2,1.6-1.8.9-2,2.8-1.6,1.9,1.2-.3,2.2-2.7,2.9-1.8,2.1-.2,1.2,1-1.3,1.4.4,2.2.5,1.5,1.8,1,2.3-.3,1.4-2.3v1.5ZM118.6,249.5l-.4,1.1.8.3,1,.8,1.2-.5,1.4-.2.3.6h.4c0,0,.3-.6.3-.6l-.6-.3.2-.8-.6-.6.2-.6-1.6-.3-.5-1.2-.3-.3h-1c0,0-1.3-.5-1.3-.5l-.3.3-.3.5-.8.3-.6.8-1.4.7-1,.8-.9.9v.3s1.4-.4,1.4-.4l.9.7,1.1-.5,1.1-.7,1.2-.7ZM124.6,257.2l.9-.9.5.2.3,1.1v.8c0,0,1-.6,1-.6v-.5c.1,0,0-.9,0-.9l.7-1.1-.2-1.2.7,1.2,1.1.3.5-.6-.9-1.5-.5-.6-1.3-.4-1.1-.2h-1.1s-1-.3-1-.3l-.3-.4-.3.3.7.8-1.2.2h0s-1.1-.2-1.1-.2l-1.1.4-1,.2-.8,1.3-.5.7.2.2,1-1.3h.2s-.7,1.5-.7,1.5l-.3,1.4-.3,1.1.2.9v.5s0,.5,0,.5l.4,1h.1c0,.1.5.1.5.1l.4-.2.3-.3.6-.9v-1.3s-.4-1.2-.4-1.2v-.8c0,0,.4-1,.4-1l.3-.7.6-.5v.7c.1,0,.4-1,.4-1l.3-.2.2-.8,1.2.4,1,.8v.9c.1,0,0,.9,0,.9l-.8.8v.5c0,0,.4,0,.4,0ZM131.3,258.7v-.2s0,0,0,0l-1.2.2-.7.2-.4.3-.8-.2h-.4c0,0-.6.6-.6.6l-1,.6h-.8c0-.1-.5.6-.5.6l.9.4h.7c0,0,1-.2,1-.2l.8-.5.7-.3,1.1-.5,1.2-1.1ZM135.1,257.3v-.8c0,0-.2-.3-.2-.3h0s-.3-.2-.3-.2l-.4.3-.4.4-.6-.4-1.2.3-1,.3-.4.2-.4.7.6.2h.4c0,0,0-.1,0-.1l.7-.2h1.1c0,0,1.1.2,1.1.2l1-.6ZM152.6,251.5l-.5-1-.5.6.3.7,1.8.9h.5c0-.1.7-1,.7-1h-1.3c0,0-1-.2-1-.2ZM155.1,245.8l-1.4-.9-1.8-.5-.5.2,1.3,1,1.8.7h.7s0-.4,0-.4ZM77,161.7l2,1,6.3-.6-2.9,2.4.2,1.7h2.1c0-.1,3.5-2.4,3.5-2.4l4.7-.8.9-2.6-.2-2.8-1.5-.3-1.2,1-.5-2.1-.5-2.8-1.4-.7-1.3,2.2,2,5.5-2.4-.4-2.5-3.4-3.9-2-1.3,1.7-1.9,5.5ZM108.8,135h2.6c0,0-1.1,1.9-1.1,1.9v2.6s1.5,2.9,1.5,2.9l2.9.9,2.5-.5,2.6-5.4,1.9-2.2-1.7-2.5-1.1-5.3-2.3-1.6-2.4-1.8-1.8-4.8-3.3.5.6,2.1-1.4.6-1,2.7-1,3.7.9,3.6,1.5,2.6ZM104.4,144.3l1.1,1.6,2.1-1.4.4-2.5-1.7-2.5-.8-.5-1.8-.3v2.9c.1,0,.7,2.6.7,2.6ZM87.5,146.8l.5-2-2-1.1-2,.7-1.1,2.1,2.1,2.1,2.6-1.9ZM128.5,171.4l1.5,2.5.4.3,1.5-.6h1.5c0,.1,1.5.2,1.5.2v-1.3c-.1,0-2.5-2.7-2.5-2.7l-3.2-.5-.7.3v1.8ZM95.9,140.1l-1.4,2.1,3.1.3,2.3,2.2,2.3.7-.5-2.8-1.1-3.4-3.8-2.7-2.7-1v2.8c.1,0,1.8,1.7,1.8,1.7ZM88.3,140.7l-1.8-1.4-.7-.3-1.4,2.1v1s2.3,0,2.3,0l1.7-1.4Z"/>
    <path id="caribbean" d="M156.5,309.6v1.1c0,0-1.2.2-1.2.2h-.3c0-.1.4-.5.4-.5v-.6s.8-.2.8-.2h.3ZM148.9,298.6h-1.1s-.2.2-.2.2v.6c0,0,.9,0,.9,0h1.1s.4-.4.4-.4l-.3-.3h-.7ZM134.1,298.8h-.9c0-.1-.3-.2-.3-.2h-.6c0,.1-.2.4-.2.4l.8.5.8.2.4-.2h1s-.2-.4-.2-.4l-.7-.4ZM144.8,297.9v-.4s-.7,0-.7,0l-.3-.5h-.4s-.8-.3-.8-.3h-1.1s-.2.2-.2.2l-1.2-.2h-.9c0,0-.3.3-.3.3l.9.2v.6s.6.6.6.6l-.5.3h-1.1c0-.1-1.3-.3-1.3-.3v.5c-.1,0,.6.5.6.5l.7-.3h.9c0,.1.7,0,.7,0l.9.2v.4c0,0,.4.2.4.2l.6-1,.5-.2.2.4h.5c0,0,.3-.4.3-.4h.5c0,0,.6,0,.6,0l.7.3.5-.6-.7-.5h-.6ZM137.9,296l-1.1-.6h-1c0,0,.1-.5.1-.5l-.8-.3h-.5s-.9-.7-.9-.7l-1.2-.9-.5-.4-1.3.2-.6-.6-1.3-.5h-1.1s-1.2-.1-1.2-.1l-.3.2h-1.1c0,.1-.7.4-.7.4l-.6.3-.3.5-.7.5h.6c0,.1.7,0,.7,0l.2-.4h.6s1-.8,1-.8h1.4c0,0-.5.5-.5.5l.5.3,1.8.2.4.3,1.3.4h.8c0,0,.3.8.3.8l.5.4h.9c0,0,.6.5.6.5l-.9.8h2c0-.1,1,0,1,0h.9c0,0,.9-.3.9-.3l.2-.3ZM132.8,286.4v-.4s-1,0-1,0h-.7c0,.1,0,.7,0,.7l1.5-.2ZM133.5,286.5v.8s.2.2.2.2l.2-1.1-1.1-.7v.2s.6.6.6.6ZM132.3,288.6l-.3,1,.5.4.4.9h.3c0,0,0-1,0-1l-.5-1.3h-.4Z"/>
    <path id="cAmerica" d="M133.6,313.7l-.3.4h-.5c0-.1-.2.6-.2.6l-.5-.4-.3-.8.3-.4h-.4c0,0-.3-.6-.3-.6l-.7-.4h-.6c0,0-.3.6-.3.6l-.6.4h-.3s-.1.3-.1.3l.7.8-.4.2-.2.2h-.7c0,0-.2-.8-.2-.8l-.2.2h-.5c0,0-.3-.6-.3-.6h-.6c0,0-.4-.3-.4-.3h-.6s0,.3,0,.3l-.2-.2-.8-.3-.3-.3.2-.2v-.3c0,0-.4-.3-.4-.3l-.6-.3-.5-.2v-.4c0,0-.5-.3-.5-.3v.4c0,0-.2.3-.2.3l-.3-.4h-.4c0-.1-.2-.4-.2-.4v-.4s.2-.4.2-.4l-.4-.2.3-.3-.5-.4-.7-.6-.3-.5-.6-.4-.7-.6.2-.2.2.2h.1c0-.1-.2-.5-.2-.5h-.4c0-.1-.2.2-.2.2h-.8s-.5-.2-.5-.2l-.6-.3h-.8c0,0-.4-.4-.4-.4l-.7-.2h-.9s-.6-.3-.6-.3l-.8-.6-1.6-1.5-.7-.5-1.1-.4h-.8c0,.1-1.1.6-1.1.6h-.7c0,.1-1-.2-1-.2l-1-.3-1.3-.7-1-.2-1.6-.7-1.2-.7-.4-.4h-.8c0,0-1.4-.6-1.4-.6l-.6-.7-1.5-.8-.7-.9-.3-.7h.5c0-.1-.1-.6-.1-.6l.3-.4v-.5s-.5-.7-.5-.7v-.6c-.1,0-.6-.8-.6-.8l-1.2-1.5-1.4-1.2-.7-1-1.2-.6-.3-.4.2-1-.7-.4-.8-.8-.3-1.1h-.8c0-.1-.8-1-.8-1l-.7-.8v-.5c0,0-.8-1.2-.8-1.2l-.5-1.2v-.6s-1-.6-1-.6h-.5c0,0-.8-.4-.8-.4l-.2.7.2.8v1.2c.1,0,.6.7.6.7l1,1.1.2.4h.2c0,.1.2.7.2.7h.2s.3,1,.3,1l.4.4.3.6.9.8.5,1.4.4.7.4.7v.8c0,0,.8,0,.8,0l.6.7.5.7v.3s-.6.6-.6.6h-.2s-.4-.9-.4-.9l-.9-.9-1-.7-.7-.4v-1.1s-.2-.8-.2-.8l-.7-.5-1-.7-.2.2-.4-.4-.9-.4-.8-.9h.1c0-.1.6,0,.6,0l.5-.6v-.7c0,0-1-1.1-1-1.1l-.8-.4-.5-1-.5-1.1-.6-1.3-.6-1.5h1.6c0-.1,1.8-.3,1.8-.3v.3c-.1,0,2,.8,2,.8l3.2,1.2h2.8s1.1,0,1.1,0v-.7s2.4,0,2.4,0l.5.6.7.5.8.7.5.8.3.9.7.5,1.2.5.9-1.3h1.1s1,.6,1,.6l.7,1.1.5.9.8.9.3,1.1.4.7,1.1.5,1,.3h.5s-.5,1.3-.5,1.3l-.2,1.1v2c-.1,0-.2.7-.2.7l.2.8.4.7.3,1.2.9,1.1.3.8.5.7,1.5.4.6.6,1.2-.4h1.1c0-.1,1-.4,1-.4l.9-.3.9-.6.3-.9v-1.2c.1,0,.4-.4.4-.4l.9-.4,1.5-.3h1.2c0,0,.8,0,.8,0l.3.3v.7s-.8.9-.8.9l-.3.9.3.3-.2.6-.4,1.1-.4-.4h-.3s0,.2,0,.2h.3s0,.4,0,.4l-.2.6v.2c.1,0,0,.5,0,.5h0c0,.1-.2.9-.2.9l-.3.4h-.3s-.3.5-.3.5l.5.3v-.2c.1,0,.5.2.5.2h.1c0,0,.3-.2.3-.2h.4s.1,0,.1,0h.2c0,0,.6,0,.6,0h.6s.4-.2.4-.2l.2-.2h.4c0,0,.3.2.3.2h.4s.3-.2.3-.2l.6.2h.2s.4.3.4.3l.4.3.5.2.4.4h-.1c0,.1,0,.5,0,.5v.5c.1,0-.2.5-.2.5l-.2.6v.6s0,.4,0,.4v.6s-.2.1-.2.1v.6c-.1,0,0,.4,0,.4l-.3.4v.4c0,0,.3.2.3.2l.4.8.5.6.7.6.5.5v.3s.5,0,.5,0h.1c0-.1.4.2.4.2h.7c0-.1.6-.5.6-.5l.8-.3.5-.4h.8c0,0,0,.2,0,.2h.8s.6.3.6.3l.5.4.5.4-.2.2.3.8Z"/>
    <path id="sAmerica" d="M159.7,407.7l1.1,1-.4.8-1.9.7-.6-.8-1.2,1-.7-1,1.7-1.3,1.2.6.8-.9ZM192.8,334.2l-.5-1.8-.5-.4h-1.2c0,0-1.1-.5-1.1-.5l-1.8-1.6-2.1-1.2h-2.1c0,0-2.7-.7-2.7-.7l-1.6.4.2-.8-.7-.8-2.3-.8-1.8-.5-1.1.9v-1.4c0,0-2.5-.2-2.5-.2l-.4-.4,1.1-1.1v-1s-.8-.2-.8-.2l-.8-2.4-.3-.8h-.5c0,0-.2-.5-.2-.5l-1.5-1.2-1-.3-.5-.2-1.5-.4h-1.1c0,.1-.2.4-.2.4l-1.7-.3-.6-.5-.7-.7h-.5s0-.8,0-.8l-.9-.9-.9-.5-.5-.3h-.7s-.2-1.1-.2-1.1l-1.1-.7h-1.1c0-.1-.5-.8-.5-.8l1.2-.4h-1.7s-1.7.1-1.7.1v.4s-.8.4-.8.4l-1.1-.2-.8-.6h-1.5c0,.1-1.3.1-1.3.1v-.5c0,0-1-.8-1-.8h-1s-.5-1-.5-1l-.5.4.2.7-1.7.6v1.1c0,0,.5.5.5.5l-.3,1h-.6c0,0-.5-1-.5-1l.6-.8v-.7s-.4-.6-.4-.6l.8-.2v-.3s.3-.5.3-.5l-.4-.4h-.5c0,0-.7.6-.7.6l-.5.3-1.1.7h-1.1c0-.1-.1.2-.1.2h-.9s-.8.7-.8.7l-.3,1.2v.5s-.6.1-.6.1l-1,1h-.7s-.2.2-.2.2l.3.8-.3.4h-.5c0-.1-.2.6-.2.6l.6.7.2,1.2-.3.4.3,1.3-.3.8.5.3-.5.7-.6.9h-.7c0,0-.3.6-.3.6v.7c0,0-.5.1-.5.1l.2.4-1,.6-.8.3v.6c0,0-.4.9-.4.9l-.3.9-.5.2.2,1.3-.3.4.8.6.5-.6.3.6-.7,1-1.1.9-.4,1,.7,1.3-.5.6,1,.6,1.1.9.4,1,.6.6,1.3,2.8,1.4,2.6,1.2,1.9-.2.4.6,1.2,1.1.9,2.5,1.6,2.8,1.5v.6c.1,0,1.5.8,1.5.8l.3,2.1v2.4c.1,0-.3,3.4-.3,3.4l-.4,3.2-.3,3-.8,1.9.2,2-.4,1.3.3,2.4-.6,2.5-1,2.7-.9,2.8h-.6c0,0,.1,2,.1,2l.4,1.7-.6,1.2-.5,3.4-.4,2.7.9.3.4-2.4.9.5-.7,4-1.6-.7-.5,3.3-1.3,1.8,2.1.6-1.5,1.6-.6,2,.2,3.7.7,1.5-.4,1.3.4,1.4,1.7,1.3,1.6,1.6,1.6.8h.6c0,0,.2-2.2.2-2.2l1.3-.8.7-.6h1.2s.6.1.6.1l-.9-1.3-.5-2.3.6-1,1.3-.9.9-2.5,1.7-1.2.5-1.9-1.3-.4-1.4-1.5.4-1.5,1.1-1h1.3s.3-1.1.3-1.1l.2-1.9,1.1-1.2,1.3-.6-.4-1-.8.6-.9-.6-.2-1.9.5-.5,1.3.7,1.4-.3.8-.6-.3-.9.3-1.4-.3-1.1,1.5.2,2.8-.4,2.1-1,1.3-2.3v-.8c0,0-.8-.8-.8-.8l.2-1.2-1.8-1.5v-.9c0,0,.9.9.9.9h.9c0,0,1.3.7,1.3.7l.8-.2,1,.3,1.6-.9.6-1.1.9-1,.6-1.6,1-.8,1.2-1.3,1.6-2.8,1-.9.3-.8.3-1.6-.2-.9.2-1.2,1.2-1.5,1.6-1.2,1.6-.4,1-.7,2.2-.6h1.5s.3-.9.3-.9l1.1-.7.2-1.5,1.4-1.9.2-2,.4-.6v-1c.1,0,.5-2.2.5-2.2v-2.7c0,0,.3-1.1.3-1.1h.3s1-1.3,1-1.3l.9-1.6,2-2,.7-.9.6-2.3-.2-.8ZM146.9,414l-.7-1.8-.5-1.1-1-.3-1.3,1-.5,1.6-.7,1.1-1.9-.8-2-1.6-1.2-.5,1.9,2.6,1.4,1.3,1.8,1.4,1.5.4,1,.7.8.2h.7c0,0,1.2-.7,1.2-.7l.5-1,.7.9h1.3c0-.1.6-1.3.6-1.3l-2-.6-1.8-1.4Z"/>
    <path id="cAsia" d="M363.7,245.9l-1.1,1.4-1.2.2v2.1c0,0-.8.9-.8.9l-2.8-.7-1,3.6-.7.4-2.8.8,1.3,3.4-1,.5v1.1c.1,0,0,.4,0,.4l-2.2,1-.5.7-1.8.2-.5,1.2-1.5-.2-1,.4-1.3.9.2.4-.4.4.4,1.7.5-.2.8.4v.7s.2,1,.2,1h-1.4s-1-.1-1-.1l-.9.8-.6.2-.5.4-.6-.6v-1.5c.1,0-.3,0-.3,0l.2-.5-.8-.4-.6.6v.7c-.1,0-.4.3-.4.3h-.8s-.5.8-.5.8l-.5-.3-1,.6-.4-.2-1.1-.4h-.8s-.4,0-.4,0l-.7-.5-.2.6-1.2.3-.3,1.4-.8.5-1.1.3-.3.8-1.1.2-1.4-.6v-1.4c-.1,0-1.2,0-1.2,0l-1.6-1.5-1.1-.2-1.5-.9-1-.2-.6.3h-.9c0,0-1,1-1,1l-1.2.3-.3-1.2.2-1.9-1.1-.6.4-1.2h-.9c0-.1.3-1.6.3-1.6l1.3.5,1.2-.6-1-1.1-.4-1.1-1.1.5v1.4c-.1,0-.6-1.2-.6-1.2v-.5c0,0,.3-.8.3-.8l-.3-.7-1.6-.6-.6-1.7-.8-.5v-.6s1.3.2,1.3.2v-1.4c0,0,1.2-.3,1.2-.3l1.2.3.3-1.9-.2-1.3h-1.4c0,0-1.2-.4-1.2-.4l-1.6.9-1.3.4-.7-.3v-1c.1,0-.7-1.4-.7-1.4h-1c0,0-1.2-1.4-1.2-1.4l.8-1.6-.4-.4,1.1-2.4,1.4,1.3.2-1.6,2.9-2.4h2.2c0,0,3.1,1.5,3.1,1.5l1.7.9,1.5-.9h2.2s1.8,1.1,1.8,1.1l.4-.7h2c0,0,.4-1,.4-1l-2.3-1.5,1.3-1.1-.3-.6,1.3-.6-1-1.6.6-.8,5.2-.8.7-.6,3.5-.9,1.3-1,2.5.5.4,2.5,1.5-.6,1.8.8v1.3c-.1,0,1.2-.1,1.2-.1l3.5-2.2-.5.7,1.8,1.8,3.1,5.8.7-1.2,1.9,1.3,2-.6.8.4.7,1.3,1,.4.6.9,1.8-.3.7,1.3Z"/>
    <path id="eAsia" d="M411.5,288.4l.6.5-.2.9-.8,2.4-.6,1.2-.7-1.3-.2-1.1.8-1.5,1.1-1.2ZM422.6,269.7l-.3-1.1-1.2-2.1-.8-.8-.6-.3.2-.2v-.8s.7-.5.7-.5l.9-.3.5-.5.2-.3.7-.4v-1.3c0,0,.4-.6.4-.6l.6-.6h.5c0,.1-.2-.2-.2-.2v-1s.7,0,.7,0l.2-2.3-.4-1.7,1.2-.7,1.7.4.9-1.9.5-2.2.5-.8.7-1.9-2.3.6-1.2.8h-2.1s-.6-2-.6-2l-1.7-1.5-2.4-.7-.5-2.1-.5-1.4-.5-1-.9-2.3-1.2-.9-2.1-.7h-1.9c0,0-1.7.5-1.7.5l-1.2,1.2.8.5v1.3s-.8.7-.8.7l-1.3,2.4v1s-2,1.4-2,1.4l-1.7-.8-1.7.2-.7-.7-.8-.2-2,1.5-1.8.4-1.3.5-1.8-.3h-1.3s-.8-1.1-.8-1.1l-1.4-1-1.4-.3-1.8.3-1.3.4-2-.9-.3-1.7-1.6-.6-1.3-.3-1.6-.9-1.4,2.3.6,1.3-1.4,1.5-2-.5h-1.4c0,0-.9-1.1-.9-1.1h-1.5s-1.2-.7-1.2-.7l-2.1,1-2.7,1.9-1.5.4-.5.2-1.1,1.4-1.2.2v2.1c0,0-.8.9-.8.9l-2.8-.7-1,3.6-.7.4-2.8.8,1.3,3.4-1,.5v1.1c.1,0,0,.4,0,.4l-2.2,1-.5.7-1.8.2-.5,1.2-1.5-.2-1,.4-1.3.9.2.4-.4.4.4,1.7.5-.2.8.4v.7s.2,1,.2,1l.2.5,1,.8.4,1.3,2.3.7,1.5,2v1.4c-.1,0,.4.9.4.9v.8s-1-.2-1-.2l.4,1.8,1.4,1,1.9,1.1.6-.4,1.1.5,1.4,1,.8.2.5.8,1.1.3,1.1.7,1.6.4,1.6.2.9-.3v1.2c.1,0,1-1.2,1-1.2l.8-.4,1,.4h.7s.6.5.6.5l1.1-.2,1.3-1.2,1.6-1,1.2.4,1-.7.7,1-.5.7,1.5.2h.8c0-.1.5.8.5.8l.6.4v1.2s0,1.3,0,1.3l-1.3,1.3-.2,1.8,1.5-.3.3,1.4.9.3-.4,1.3,1,.6.6.3,1-.4v.6s.2.4.2.4h.7s-.2-1.7-.2-1.7l.7-.2.8-.4h1.1s1.4-.2,1.4-.2l1.2-.8.7.6,1.3.3-.2.9.7.6,1.4.4.7-.2,1.9.5-.3.6.4,1.1h.8c0,0,.5-1.7.5-1.7l1.5-.2,2-.7.8-.7.5.5.9-.7,1.6-.2,1.9-1.3,1.9-1.4,1.3-1.8,1.1-2,1-1.7h.8c0-.1.4-1.4.4-1.4l.2-1.3-.8-.5-.3-.9.9-.4v-1.2s-.9-1.3-.9-1.3l-.9-1.5-.5-1.6-1.5-.9.7-1.2,1.4-.9.7-.9,2-.5-.2-.9h-.9s-1.2-.7-1.2-.7l-1.6,1.3-1.1-.5v-.8s-1.2-.3-1.2-.3l-.7-1.2.7-.8h1.4c0,0,.9-1.3.9-1.3l1.6-1.3,1.2-.6.7,1-1.1,1.2.3.7-.7.8,1.5-.5,1-.8,2-.5.7.5.8.2v.3c0,0-.3,1-.3,1v.3c.1,0-.2.2-.2.2l-.4.8.4.3.4.2v.3s.5-.1.5-.1l.2-.3.7.3,1,1.5-1,.3.6,1.8-.3,1.3.2.9h1.3c0-.1,1.1-.8,1.1-.8l1.3-.3.5-.9v-2ZM437.8,261.8l-.6,1.2.2,2-.9,2.2-.8.7-2.1,1.8-.9-.8-1.5,3.1-1.5-.4-2.8.5-1,1.2-1.4.9-.7,1.1-1.3.5.6,1.1.9.5-.3,1.5.7.6.9-.7.9-2.8-1.4-1.2h1.6s1.7-.8,1.7-.8l2.4-.4v1.3c0,0,1,.6,1,.6l2-1.9h2.5c0-.1,1.8-.9,1.8-.9l.7-1.2-.2-.9.5-1.4v-1.8s1.3-1.8,1.3-1.8v-1.5s-.7-2.5-.7-2.5l-1.5.3ZM428.8,273.9l-.6.7-.8-.2-.8,1v.8s.9.5.9.5l.4-1,.7-.4.6.5.8-1-.2-.6-1-.4ZM444.8,255.8l-1,.8-1-.4-1.1-.7-1.6-2.1-.4,1.5-.4,2.7h-1.5c0,.1-.7,1.6-.7,1.6l.2,1.9h1.6s.8-2.1.8-2.1l2.2,1.3,1.2-1.9,2.1-.5-.3-2.2ZM395.7,296.3l-1.5.4-.7.7v1.3s1.2.5,1.2.5l1.2-.7.3-.8.6-.6-.3-.6h-.8Z"/>
    <path id="sAsia" d="M355.3,312.8l.7,1.5-.2,1.5-.6.4-1.2.3-.7-1.1-.2-2,.6-2.3,1,.8.7,1ZM377.8,284.4v-.6c-.1,0-1.6-.2-1.6-.2l.5-.7-.7-1-1,.7-1.2-.4-1.6,1-1.3,1.2-1.1.2-.6-.4h-.7s-1-.4-1-.4l-.8.4-.9,1.2v-1.2c-.1,0-1,.3-1,.3l-1.6-.2-1.6-.4-1.1-.7-1.1-.3-.5-.8-.8-.2-1.4-1-1.1-.5-.6.4-1.9-1.1-1.4-1-.4-1.8,1,.2v-.8s-.5-.9-.5-.9v-1.4c.1,0-1.4-2-1.4-2l-2.3-.7-.4-1.3-1-.8-.2-.5h-1.4s-1-.1-1-.1l-.9.8-.6.2-.5.4-.6-.6v-1.5c.1,0-.3,0-.3,0l.2-.5-.8-.4-.6.6v.7c-.1,0-.4.3-.4.3h-.8s-.5.8-.5.8l-.5-.3-1,.6-.4-.2-1.1-.4h-.8s-.4,0-.4,0l-.7-.5-.2.6-1.2.3-.3,1.4-.8.5-1.1.3-.3.8-1.1.2-1.4-.6v-1.4c-.1,0-1.2,0-1.2,0l-1.6-1.5-1.1-.2-1.5-.9-1-.2-.6.3h-.9c0,0-1,1-1,1l-1.2.3v.4c-.1,0-2.3.5-2.3.5l-2-.3-1-.9-1.3-.4-.4-1.3h-.3c0,0-.9-.8-.9-.8l.5-.9-.4-.5h-.5c0,.1-1.6,1.5-1.6,1.5h-.5c0,0-1-.2-1-.2l-.7-.8-.2-.7-1,.5.4,2.1-.3.5.8,1.4.9,2.1.9.5v1c.1,0-.6.6-.6.6l-.3,1.3,1,1.6,1.7.9.7,1.2-.2,1.2h.4s0,.9,0,.9l.8.8.5-.6.9.5.8-.3,1,2.1.9,1.5,1.3.4,1.4,1.2,1.7.5,1.4-.8,1.1-.3.7.3.6,1.9,1.6.2,1.5.4,2.6.5,2-.2h2.3s2.6-.3,2.6-.3l1.1,1.2.4,1.1,1,.4,1.6,1.3.4.6-.7.5,1.8,1.8,1,.2,2-.9.3,1.4v1.8s.4,1.9.4,1.9l.6,2.8,1.3,2,.2.9.3,1.8.7,1.4.5.7.5,1.4.6,2,1.3,1.3.6-.4.5-1,1.3-.4-.4-.5.6-1.1h.7c0,0,0-2.5,0-2.5l.6-1.4v-1.2c0,0-.4-1.9-.4-1.9l.4-1.1h.7c0,0,1.3-.6,1.3-.6l.7-.4v-.7s1.4-1,1.4-1l1.1-.9,1.6-1.7,2-1,.7-.9v-1.1c0,0,1.6-.3,1.6-.3h1s.2-.5.2-.5h.5c0,.1.4.3.4.3l.2-.3.6.3.4-.8v-.6c-.1,0,1.2,0,1.2,0l.6.9.3.7v.8c0,0,.5.8.5.8v-1.2c0,0,.4.2.4.2v-1.1s.7-.4.7-.4v-.6c-.1,0,.2-.5.2-.5v-1.6c0,0,1.1.3,1.1.3l.6-1.3v-.7c0,0,.8-1.3.8-1.3v-.9s1.8-1.1,1.8-1.1l1,.3v-1c-.1,0,.4-.3.4-.3Z"/>
    <path id="seAsia" d="M409.8,305.9h1.2c0,0,.5.6.5.6l-.4,1.2-.6-.7-.7-1.1ZM409.5,303.7l.7.8.2-.5.4.3-.4.4v.6c0,0,.6.3.6.3l1.3-.2.9.9.4-.5.5.7,1.1.7v-.7c.1,0-.3-.3-.3-.3v-.8c.1,0-1.6-.8-1.6-.8l-.6.2-.7-.2-.3-1.1.2-1.2.8-.5.4-1.2-.5-1,.2-.6v-.4c-.1,0-.6.4-.6.4l-.9-.4h-.8s-.5,1.3-.5,1.3v2.3c-.1,0-.7-.5-.7-.5v1.4c0,0,.3.6.3.6ZM416.2,308.8h-.8c0-.1.2.7.2.7h.4c0,0,0,1.1,0,1.1l.7-.3-.3-.9v-.5s1,.4,1,.4l-.4-1.6-.4-.5h-1.3s.9,1.1.9,1.1v.5ZM408,310.8l.9-.8-.2-1.2-.7,1.4-.8,1-1,.9-.7,1,1.9-1.3.7-1ZM413.5,309.6l-.2.9-.4.4-.3.4.9,1,.4-.4.4-.9.5-.5v-1.3c.1,0-.9,1.4-.9,1.4l.2-1h-.8ZM417,312.2h-1s-.2.7-.2.7l-1.1.4-.5-.6-.8.5-.9.4-.5,1.2.2.4,1-.8h.7c0,0,.4-.5.4-.5l.9.7-.4.7.4,1,1.6.8.4-.7-.4-1,.7-.7.5,1.4.5-1.3v-.8c0,0-.2-.9-.2-.9v-.5c0,0-.2-.7-.2-.7l-1.1-.7v1.1ZM412,308.1l.2.7v.7c0,0,0,.7,0,.7l.9-.4.6-.6v-.6s-.9,0-.9,0l-.8-.4ZM376.5,301.6l.9-.7.6,1.2.3,1.8.5,1.7.6.7v1.6c-.1,0,.4.8.4.8l-.4,1.1v1c.1,0-.3,1.4-.3,1.4l-.2.9.3.8.2-.8.7.7.7.8.2.7.6.5.3.6-.2,1,.5.8.2,1.2.8.9.2.7,1.7,1.1,1.3,1h1c0,0,0-.6,0-.6l-.6-1.2-.5-.4v-.8c-.1,0-.2-.5-.2-.5v-.6c.1,0,0-.9,0-.9l-.6-.9-.8-.8h-.3c0-.1-.7-.9-.7-.9l-.8-.2-.8-.8-.3-1.2-.6-1.3h-.9s0-1.1,0-1.1l.5-1.2.8-2.1v-1.6c.1,0,1.3,0,1.3,0l-.2,1.1h1.2s1.3.6,1.3.6l.7,1.5.6.7,1.2.2,1,.8-.4,1,.5.9,1.7-1.3,1.1-1.2,1.6-.9,1.2-.9.2-2.5-.6-2.7-.8-1.2-1.3-.9-1.3-1.9-1.1-1.5.3-1,1.2-1.4,1.9-1.3-1.4-.4-.7-.6.2-.9-1.3-.3-.7-.6-1.2.8-1.4.2h-1.1s-.8.4-.8.4l-.7.2.2,1.7h-.7s-.1-.4-.1-.4v-.6s-1.1.4-1.1.4l-.6-.3-1-.6.4-1.3-.9-.3-.3-1.4-1.5.3.2-1.8,1.3-1.3v-1.3c0,0,0-1.2,0-1.2l-.6-.4-.5-.9h-.8c0,.1.1.7.1.7l-.5.3v1c.1,0-.9-.3-.9-.3l-1.8,1.1v.9s-.7,1.3-.7,1.3v.7c0,0-.7,1.3-.7,1.3l-1.1-.3v1.6c0,0-.4.5-.4.5v.6c.1,0-.5.4-.5.4v1.1s-.5-.2-.5-.2v1.2c0,0,1.1,1.2,1.1,1.2l.8.2-.2.5,1.1,1.7.3,1.4-.5,1.8.9.3h.8c0,.1,1.6-.9,1.6-.9ZM418,329.8l1,.3.5-.5-.3-.5h-1.4c0,0,.3.7.3.7ZM389.6,330.8l.4-1.7-.7-.9h-1c0-.1-.5-.9-.5-.9l-.2-1h-.5s-.8-.5-.8-.5l.6-1.1-1.1-.6-.8-1.2-1.2-1h-1.4s-1.3-1.5-1.3-1.5l-.8-.6-1.1-.9-1.2-1.4-2.2-.3h-.9c0,0,.1.7.1.7l1.5,1.5,1.1.8.7,1.2,1.3.9.5,1.1.4,1.2,1.2,1.2,1.1,1.9.7,1,1.1,1.1.6.8,1.8,1.1,1.2,1.2h1.5s0-2.2,0-2.2ZM405.9,324.6l.5-.9,1.7-.2-1.6-1.3.2-.6-1-1.3.8-1.3,1-.5-.2-.7h.9c0,0,0-.6,0-.6l-1.2-.4-.9-.4v-.6c0,0-.8-.7-.8-.7h-.6s-.7,1.1-.7,1.1l-1.1,1-1.2.8-.6.5-.7.9-1,1.1-1.7.3-.6.3-.3,1.2-1.1.3-1-.5-.8.9-.2,1.3.2,1.2.7,1.2.7.4.2,1.9,1.2.2h.9c0,0,.5.6.5.6l1.7-.5.7.4h1c0,0,.6.9.6.9l1.6-.6.2.5.5-2.1v-1.4s1.4-.9,1.4-.9v-1.3ZM421.1,325.9l-.6-.7.2-.8h.7c0,.1,0-1.1,0-1.1v-.6c-.1,0-1-.1-1-.1v-.8c-.1,0-.6.5-.6.5l-.3,1.1.4,1.8.6.9.4-.2ZM422.5,328.7h-1.7c0,0-.3.8-.3.8h1s.8,0,.8,0h1.2c0,.1,1.2.7,1.2.7l-.5-1.1-1.5-.4ZM429.4,332.8l-.2.5v1.1c.1,0,.9-1,.9-1v-.7s-.3-.4-.3-.4l-.3.5ZM438.8,332.9v-4.5s-1.5-.3-1.5-.3l-1-.5-1.2-.5h-1.2s-1.6.8-1.6.8l-1.2,1.5-1.4-.8-.4-2.2-.2-.5-2.2-.6-.7.5-1.9.3.6.7,1.2.3.6.8h2s.1.4.1.4h-1s-1.5.5-1.5.5l1.1.7v.6s.3.5.3.5h.5c0-.1.4-.8.4-.8l2.1,1.3h1.2c0,.1,2.7,1.3,2.7,1.3l.7,1.2.4,1.5-.9.4-.6,1.1h1.8s.3-.4.3-.4l1.4.3,1.2,1.2v-4.6ZM409.2,337.8l-1.3.3,1.9,1h.6s0-.4,0-.4l-.5-.4-.7-.4ZM407.8,336.3h-.9c0,.1-.5-.3-.5-.3l-.4.5h-.8s-.5.8-.5.8h.8s1-.2,1-.2l1.6-.3-.3-.6ZM399.6,335.4l-.5-.9-2.6-.7-.3.6h-2.7c0-.1-.2-.6-.2-.6h-.6c0-.1-1.1-.7-1.1-.7h-1.7c0,0-1,1.3-1,1.3h1.3c0,.1.2.7.2.7l2.5.6.6-.2h1c0,.1,1.6.7,1.6.7l1.3.3h1.5c0,.1,1.3,0,1.3,0l1.5.6,1.6-.5-1.7-.8-2.1-.3ZM410.7,326.7l-1.3-1.2.2-1.1,1.2-.2h2.3c0,0,1.3.2,1.3.2l1.1-.3,1.1-1.4-.2-.3-1.4,1h-1.6c0,0-1.8-.1-1.8-.1l-1.1-.4-1.2,1-.3.6-.7,2.1-.2,1.1-.6.9.4,1h.6s.2,1.4.2,1.4l-.4,1.3.6.4.9-.2v-2c0,0-.2-1.6-.2-1.6l.9-.4v1.4c-.1,0,.9.8.9.8l-.2.5.3.4,1.4-.5-.7,1.1.5.5.7-.4v-.9s-1.2-1.6-1.2-1.6l.3-.5-1.3-1.8,1.2-.5.6-.8.6.2v-.6c.1,0-2.5.5-2.5.5l-.8.6ZM411.3,336.7l-.9-.4-1.1.3v.5s1.9.2,1.9.2l2.1-.4.2-.8-1.3.5h-.9ZM418.7,336.5h-1s-1.2.4-1.2.4l-.2.3-1.4.6-.6.9v.5c-.1,0,0,.2,0,.2l1.2-.3.9-1.1,1.2-.4,1.5-.6.5-.4-.5-.2-.4.2Z"/>
    <path id="wAsia" d="M278.5,263.7l-.4-.9v-.4s.4-.2.4-.2l.4-1.2-.7-.5,1.4-.6,1.2.3.2.7,1.2.6-.3.5h-1.7c0,.1-.6.7-.6.7l-1.2,1ZM324.7,292.4l-.4-.5-.6-.9-.8-.3-1-.2-.8-.6-.6-1-.2-1.2.2-.3v-.6c.1,0,0-.1,0-.1l-.4.5-.9,1-1,1-1,1h-.8s-1.2,0-1.2,0l-1.1.2v-.4c0,0-.3,0-.3,0l-.3-.6.3-.9v-.9s-.4-.5-.4-.5l-.4.2-.4.8v1.1c0,0-.1-.4-.1-.4l-.2-.5-.4-.4-.2-.5v-.5c.1,0,0-.6,0-.6l-1-.7-.2-.5-.7-.4-.5-1.4-.5-1.2v-.4c.1,0-.2-.7-.2-.7h.8c0,0-.8-.8-.8-.8v-.9s-.5,0-.5,0l.2-1.2-.7-1.2-1.7-.9-1-1.6.3-1.3.7-.6v-1c-.1,0-1-.5-1-.5l-.9-2.1-.8-1.4.3-.5-.4-2.1,1-.5.2.7.7.8,1,.2h.5c0,0,1.6-1.4,1.6-1.4h.5c0-.1.4.4.4.4l-.5.9.9.9h.3c0,0,0-1,0-1l.5-.4.2-.6.2-1.4h1.2c0-.1-.4-.6-.4-.6h-.7c0,0-.7-1.4-.7-1.4l-.7-1-.8.8-.2.5h-.6c0-.1-1-1.3-1-1.3h-.4c0,0-.9-.5-.9-.5l-.4-.8-1.3-.4-.8.3-.2-.4-1.9-.9-2.1-.3-1.2-.3-.2.2.5.6.8.2.8.7.3,1.3-.2.8-1.7,1-1.2-.2-1.6.3-2-.7-2.4-1.3h-2.3s-1.6.6-1.6.6l-1.7,1.2-2.7-.2-.6,1.4h-2.2c0,0-1.6,1.8-1.6,1.8l.9.9-.7,1.4,1,1,.8,1.7h1.5s1.4.9,1.4.9l1-.2.3-.7h1.5c0,0,1.1,1,1.1,1l2.1-.2,1-1,1.2.4h.9c0-.1-.5.5-.5.5l.5.8-.3.7v1.3c.1,0,.1,0,.1,0l-.7,1.2-.5,1.4h0s-.2.4-.2.4l-.3,1.2-.4.8h0c0,0-.4.6-.4.6l.9,2.8v.2s-.1.6-.1.6v.6c0,0-.3.9-.3.9h.7s.7,1.1.7,1.1l.9,1.3.5,1.2.4.3.4.8v.3c0,0,.4.9.4.9l.8.3.7.6.8,1.7v.9c0,0,.1,1,.1,1l.9,1.4.6.2,1,1,.4,1.2.7,1.2.7.5v.6c.1,0,.5.4.5.4l.2.6v.6c0,0-.1.3-.1.3v.7c.1,0-.1,0-.1,0l.4.6.3,1.1.2.4v.8s.3.8.3.8h1c0,0,.4-.1.4-.1h.7s.2-.3.2-.3h.4c0-.1.3-.5.3-.5h.4c0,0,1.2-.2,1.2-.2l.9-.3.8-.6h.4c0,0,.6,0,.6,0l1.3-1,2.2-.7,1.4-.6v-.5s.3-.6.3-.6l1-.4h.6c0,0,.9-.6.9-.6h.8c0,.1.7-.3.7-.3v-.6s.5-.4.5-.4h.9s.3-.3.3-.3v-.7c.1,0,1-.5,1-.5h.6s.1-.2.1-.2l-.2-1,.2-.7.3-.4h.6c0,0,.5-.9.5-.9l.6-.5.2-.4.5-.9v-.3s-.5-.2-.5-.2ZM289,272.4l.9-.7-1.3.5h-1s-.2.4-.2.4h0s-.7,0-.7,0l.3.7.7.2,1.4-.7h0c0-.1-.1-.5-.1-.5Z"/>
    <path id="eEurope" d="M435.9,164.9l-2.8-3.5.8-3.9,1.8-1.1,3.7.3,5.1,3-1.1,4.1h-5.2c0-.1-2.3,1.1-2.3,1.1ZM388.5,142.7l.4-2.9-3.5-4.2-1.1-.5-1.1.8-2.6,9.3,7.9-2.6ZM438.5,169.3l-1.3,2,.2.3,2.9.5h2.1s-.2-1.3-.2-1.3l-2-1.9-1.7.5ZM493.3,182.8l1.8-.3,1.4-1v-.6c.1,0-1.9-1.3-1.9-1.3h-1.2s-.2.2-.2.2l-1.8,1.8.2,1.4,1.5-.2ZM450.7,164.5l1.6-2.1-3.5-1.4-2.6-.8-.3,1.8,2.6,2.1,2.2.5ZM507.4,201.3l-1.4,1.5-2.3.3v3.2s-.6.7-.6.7h-1.3c0,0-1.1-1.2-1.1-1.2l-1.9-1-.3-1.4-1.4-.5-1.6.4-.8-1.2.3-1.3-1.7.8.6,1.6-.8,1.4h0s-1.8,1.5-1.8,1.5l-1.8-.2,1.3,1.7.8,2.6.6.8.2,1.3-.4.8-2.6-.7-3.9,2.2-1.2.3-2.1,2-2,1.7-.5,1.3-2-1.9-3.6,2.2-.6-1-1.3,1.2-1.9-.4-.5,1.8-1.7,2.6v1.1c0,0,1.6.6,1.6.6l-.2,3.7h-1.3c0,0-.6,2.2-.6,2.2l.6,1-2.4,1.2-.5,2.7-2.1.6-.4,2.3-2,2.1-.5-1.5-.6-3.3-.8-5.3.7-3.5,1.2-1.5v-1.2c0,0,2.2-.6,2.2-.6l2.5-3.4,2.4-2.9,2.5-2.3,1.1-4.2-1.7.3-.8,2.5-3.5,3.2-1.1-3.6-3.6,1-3.5,4.8,1.2,1.7-3.1.7-2.2.3v-2c.1,0-2.1-.4-2.1-.4l-1.7,1.3-4.3-.5-4.6.8-4.5,5.2-5.4,5.9,2.2.3.7,1.5,1.4.5.9-1.2,1.5.2,2,2.6v2s-1,2.2-1,2.2v2.6c-.1,0-.7,3.4-.7,3.4l-2.1,3-.5,1.4-1.9,2.3-1.9,2.3-.9,1.1-1.9,1.1h-.9s-.9-.9-.9-.9l-1.9,1.4-.2.6-.2-.3v-1s.7,0,.7,0l.2-2.3-.4-1.7,1.2-.7,1.7.4.9-1.9.5-2.2.5-.8.7-1.9-2.3.6-1.2.8h-2.1s-.6-2-.6-2l-1.7-1.5-2.4-.7-.5-2.1-.5-1.4-.5-1-.9-2.3-1.2-.9-2.1-.7h-1.9c0,0-1.7.5-1.7.5l-1.2,1.2.8.5v1.3s-.8.7-.8.7l-1.3,2.4v1s-2,1.4-2,1.4l-1.7-.8-1.7.2-.7-.7-.8-.2-2,1.5-1.8.4-1.3.5-1.8-.3h-1.3s-.8-1.1-.8-1.1l-1.4-1-1.4-.3-1.8.3-1.3.4-2-.9-.3-1.7-1.6-.6-1.3-.3-1.6-.9-1.4,2.3.6,1.3-1.4,1.5-2-.5h-1.4c0,0-.9-1.1-.9-1.1h-1.5s-1.2-.7-1.2-.7l-2.1,1-2.7,1.9-1.5.4-.5.2-.7-1.3-1.8.3-.6-.9-1-.4-.7-1.3-.8-.4-2,.6-1.9-1.3-.7,1.2-3.1-5.8-1.8-1.8.5-.7-3.5,2.2h-1.3c0,.1.1-1.2.1-1.2l-1.8-.8-1.5.6-.4-2.5-2.5-.5-1.3,1-3.5.9-.7.6-5.2.8-.6.8,1,1.6-1.3.6.3.6-1.3,1.1,2.3,1.5-.4,1.1h-2c0,0-.4.6-.4.6l-1.8-1.1h-2.2s-1.5,1-1.5,1l-1.7-.9-3.1-1.5h-2.2c0,0-2.9,2.5-2.9,2.5l-.2,1.6-1.4-1.3-1.1,2.4.4.4-.8,1.6,1.2,1.4h1c0,0,.9,1.3.9,1.3v1c-.1,0,.6.3.6.3l-.6,1.2-1.4.3-1.4,2,1.3,1.8v1.3c-.1,0,1.4,2.2,1.4,2.2l-.8.8-.2.5h-.6c0-.1-1-1.3-1-1.3h-.4c0,0-.9-.5-.9-.5l-.4-.8-1.3-.4-.8.3-.2-.4-1.9-.9-2.1-.3-1.2-.3-.2.2-1.8-1.6-1.6-.7-1.2-1.2,1-.3,1.2-1.7-.8-.8,2.1-.8v-.4s-1.3.3-1.3.3l-1.1.2-.9.7h-1.3c0,.1-1.2.9-1.2.9l-.7.5.7.7.7.5h1.4c0-.1-.3.6-.3.6l-1.5.3-1.9,1.1-.8-.4.3-.9-1.5-.6.2-.4,1.6-.8-.2-.4-.2.2h-.2c0-.1-2.2-.6-2.2-.6v-.8c0,0-1.4.2-1.4.2l-.5,1.1-1.1,1.5v.5s-.6.4-.6.4l-.4-.2-.4,2.3-.8-.2-1-.7-1.6.5-.7.5h-2.1c0-.1-1.1-.4-1.1-.4h-.5c0,.1-.4-.7-.4-.7l-.3-.3.3-.3-.3-.2-.4.4-.8-.6v-.8c-.1,0-1-.5-1-.5l-.2-.6-.8-.8h-.9c0,0-1.1.4-1.1.4l-.5.3-1.2-.4-1-.9-.4-.2-.3-.7h-.2s.5-1.3.5-1.3l-.3-.4h.8s.1-.9.1-.9v-.7c-.1,0,0-.3,0-.3l-.6-.4h-.7c0,.1-1.1-.5-1.1-.5l-.5.2-.8.9-1-.7-.8-.9-.7-.5v-.9c-.1,0-.4-.6-.4-.6l1-.5.5-.5,1-.4.4-.4.4.3.6-.2-.6-1.4v-.8c.1,0-.2-1.2-.2-1.2l-.5-.8.4-.6-.3-1.2,1-.7,2.2-1.1,1.8-.8,1.4.4v.6c.1,0,1.5,0,1.5,0l.3-1.1,1.9-.8,1.5.4.6.4v.7c-.1,0,0,.6,0,.6l.7.3.3.7h1.4s1.5-.9,1.5-.9l.3-1.4,1.1-.8v-1.1c-.1,0,.7-.4.7-.4l1.5-1-.4-1.5v-1.2c-.1,0-.8-.6-.8-.6l.6-.8-.4-2.5,1-1.6-.2-.5,1.6-1.5-1.5-1.3,3-3.7,1.3-1.7.5-1.5-2.1-2.1.6-2.1-1.3-2.4.9-2.9-1.6-4,1.3-2.7-2.1-2.5.2-2.7,1.1-.4,2.4-1.6,1.4-1.4,2.3,2.4,3.8.9,5.3,4.3,1.1,1.7v2.4c0,0-1.5,1.8-1.5,1.8l-2.3.9-6.2-2.6-1,.4,2.3,2.5v1.6c0,0,.2,3.4.2,3.4l1.8,1,1.1.8.2-1.5-.8-1.4.9-1.2,3.4,2,1.2-.8-.9-2.4,3.3-3.4,1.3.2,1.3,1.2.8-2.4-1.2-2.1.7-2.2-1-2.3,3.9,1.2.8,2.1-1.8.5v2s1.1,1.2,1.1,1.2l2.2-.8.3-2.3,2.9-1.8,4.9-3.3,1.1.2-1.4,2.3,1.7.4,1-1.3h2.6c0-.1,2.1-1.7,2.1-1.7l1.6,2.3,1.6-2.5-1.5-2.3.7-1.3,4.1,1.2,1.9,1.2,5.1,4.4.9-2-1.4-2v-.8s-1.7-.4-1.7-.4l.5-1.9-.7-3.2v-1.4s2.5-4,2.5-4l.9-4.2,1-.9,3.7,1.3.3,2.6-1.3,3.6.9,1.4.4,3-.3,5.5,1.5,2.4-.6,2.5-2.7,5.1,1.6.5.6-1.3,1.5-.9.4-1.8,1.2-1.7-.8-2.1.7-2.5-1.5-.3-.3-2.2,1.1-4.1-1.8-3.5,2.5-3-.3-3.3h.7c0-.1.7,2.5.7,2.5l-.6,4.3,1.5.8-.6-3.2,2.3-1.8,2.9-.2,2.6,2.6-1.2-3.8v-5.1c-.1,0,2.3-1,2.3-1l3.4.2,3-.7-1.1-2.7,1.6-3.5h1.6c0-.1,2.7-2.9,2.7-2.9l3.7-.8.5-1.6,3.7-.5,1.1,1.3,3.1-3.1h2.6c0,0,.4-2.5.4-2.5l1.3-2.7,3.3-2.6,2.4,2.1-1.9,1.6,3.2,1,.4,3,1.3-1.5h4.1c0,0,3.2,3,3.2,3l1.1,2.2-.3,2.9-1.5,1.6-3.7,3-1.1,1.5,1.7.7,2.1,1.3,1.3-1,.7,3.2.6-1.3,2.2-.8,4.5.8.3,2.3,5.8.7v-3.7c0,0,3,.9,3,.9h2.2s2.3,2.5,2.3,2.5l.6,3-.8,1.9,1.8,3.5,2.2,1.7,1.3-4.6,2.2,2,2.4-1.2,2.7,1.4,1-1.2,2.3.6-1-4.2,1.8-2,12.6,3,1.2,2.7,3.7,3.3,5.6-.8,2.8.7,1.2,1.7-.2,3,1.7,1.1,1.9-.8h2.5c0-.1,2.6.7,2.6.7l2.6-.4,2.4,3.5,1.7-1.2-1.1-2.5.6-1.8,4.5,1.1,2.9-.2,4,1.9,2,1.7,3.4,2.9,3.7,3.7v2.2c-.1,0,.8.9.8.9l-.3-2.6,3.8.5,2.7,3.3ZM297.4,248v-.2c0,0,0,.2,0,.2h0ZM372.1,134.6l2.3,2.9,3.9,2.1,3.1-.9.3-6.8-3.2-8-2.7-4.5-3,2-3.6,5.9,1.9,1.6,1.1,5.7ZM306.6,128.1l1.5,1.9,1.6-1.3.2-1.4,1.3-.6,1.9-1.1.5-1.3-2.1-1.9-1.3,1.4-.8,2.1-.3-2.3h-2.1c0,.1-2.7,1.7-2.7,1.7l3.1.3-.8,2.6ZM443.8,246.4l-1.4-3.8-.6-2.2v-2.2s-.4-2.2-.4-2.2l-.4-1.6-.6.3.6,1.1-1.3,1.1v3.1c-.1,0,.7,2.2.7,2.2v2.9c0,0-.4,1.6-.4,1.6l.2,2.3-.2,2,.3,1.7.9-1.6,1.1,1.2v-1.4s-1.3-2.1-1.3-2.1l.9-3,2.1.7ZM315,176.6l-1.4,1,.2,2.4,2.5,1.2.4,1.9,4.6.5.8-.4-2.7-3.5-.3-3.7,2.2-4.6,2.1-4.9,4.3-5.1,4.3-2.7,5-2.9.9-1.8-1-2.4-2.7.8-2.4,2.2-4.7,1.1-4.6,3.7-3.1,2.9.4,2.4-3.3,4.5,1.3.6-2.8,4.1v2.5Z"/>
    <path id="nEurope" d="M267.4,131.3l-1.5-3.7,4.3-2.4,2,2,1.4-2.5,3.5,2.1,2.7,2.9-2.1,4.2-4.1.9-4.1-1.3-.2-2.2h-2ZM273,148.5l3.1-2.7-2-1.5-.6-2.6-2.9,1.4.8,2.2-1,1.7,2.5,1.5ZM260,144.7l2.1,1.9-1.3,2.3,3,3.8,1.7-.2.7-5.2,1.2-1.2.8-5,3.5-2.8-4.6-5.6-1.8-2.8-2.1.3-.5,2.7h-2c0,.1-.8-2.7-.8-2.7l-3.8,2.8,1.1,5.9,2.7,5.9ZM280.4,227.1l-.7-.6.6-.8-.4-2.5,1-1.6-.2-.5h-1.4c0,0-1.5-.4-1.5-.4l-1.8.4-1.8.8v1.6c.1,0,1,.9,1,.9l.5-.3-.2,1.6-.3,2h-1.1s-1.1-1.9-1.1-1.9l-1.3.9-.7,1.6v1.9s.2,2.1.2,2.1l1.5.4.6.4v.7c-.1,0,0,.6,0,.6l.7.3.3.7h1.4s1.5-.9,1.5-.9l.3-1.4,1.1-.8v-1.1c-.1,0,.7-.4.7-.4l1.5-1-.4-1.5v-1.2ZM221.3,199.6l-2.3-.2-2.3,1.8-1.8-1-2.1,1.9-2.2-2.3-2.1.5-.9,2.2,2.9.8v1c0,0-2.4.6-2.4.6l3,1.6-1.4,1.4,3.9,1,1.8.5,1.2-.6,4-2.2,1.8-2.5-1.6-2.3.3-2.2ZM241.9,236.7l-.9-2.7-1-.4-1.2-2.9v-.3c-.1,0-1.6-.2-1.6-.2l1.3-2.3.4-2.1h-1.5s-1.4.3-1.4.3l1.5-2.9-1.7.2-1.1-.2-1.1,2.1-.5,2.7.7,1.3v2.4c0,0,.8-1.2.8-1.2l.5.7-.5,1.1.3.7,1.7.4h0s.9,1.5.9,1.5l-.2,1.4h0l-2.1-.2-.3,1.5.8,1.2-1.5.7.4.9,2.2.4h0s-1.3.5-1.3.5l-2.1,2.3.7.4,1-.8,1.3.2.9-1,.7.4,2.4-.6h1.9s1.3-1.1,1.3-1.1l-.6-1.2.7-.7.2-1.5-1.7-.4-.4-.9ZM233.7,233.8l-1.5-1.5h-1.2c0,.1-1.1,1.2-1.1,1.2l-1.9,1.9.7,2.4-1.1,2.4,2,.3,2.5-1.3,1.1-2.1-.2-1.7.7-1.6ZM283.6,209.2l.6-2.1-1.3-2.4.9-2.9-1.6-4,1.3-2.7-2.1-2.5.2-2.7,1.1-.4,2.4-1.6-1.5-2.6,1.8-1.1-4.4-3.1-2.5.9-2.5-.2-2.1,3.5-2.3-.2-3.1,1.8-3.8,4.9-2.3,2.8-3.4,6.9-2.6,4.6-2.8,3.3-3.7,2.6-1.3,1.9.4,6.6.5,2.9,1.9,1.4,1.9-.6,2.8-3.1.9,1.7,1.1,3.7,1.2,2.9.4,2.3h1.6c0-.1.8-2.1.8-2.1l1.7.2.8-2.4.5-4.4,1.5-.6,1.3-3.1-1.3-1.6-1-2,1-4.2,2.7-2.7,2.2-2.6-.2-2,1.4-2.3,2.4-1,1.9,1.6v1.4c.1,0-.8.7-.8.7l-3.2,3.5-1.3,2-.7,1.8.7,2.7-.3,2.9,1.4.9.8,1.5,2.3-.6,2.5-1,2.5-.2,3-3.7,1.3-1.7.5-1.5-2.1-2.1ZM256.8,230.8l.2,1,1.5,1.4.8-2-.4-1.2-2.1.8ZM256.1,228.8l-.2-.7.4-.8v-1.3s-1.1.7-1.1.7l-.5.7-1.2.2-.4.8-.2.7v2.6s.6,1.4.6,1.4l1.1.3.9-.4-.4-1.2,1-1.8.4.3.3-.9-.8-.4Z"/>
    <path id="sEurope" d="M263.3,267.2l-.5,1.4.2.5-.3.9-1.1-.7-.7-.2-2-.9.2-.9,1.6.2,1.4-.2,1.1-.2ZM253.8,262.4h-.8c0,0,.3,1,.3,1v2.2c0,0,.6.5.6.5l.6-.6h.6c0,.1.2-2.3.2-2.3l-.8-1.3-.7.6ZM277.6,272.2h-1c0-.1-1.1,0-1.1,0l-.8-.6-.3.7,1.7.3v.3s2-.1,2-.1l.2-.5-.8.2v-.3ZM244.2,259.7l-1.6-.9-.5.4-2.6-.9-.6-.7h-2.3c0,0-1.2,0-1.2,0l-1.5-.3h-1.9s-1.7-.3-1.7-.3l-2,1.4.6.8v1.3c0,0,0,.6,0,.6l.3.7v.8s-.3,1.1-.3,1.1v.7c0,0-.7.7-.7.7v1.2c-.1,0,.2.7.2.7l.6.2v1.1c.1,0,0,1.4,0,1.4l.7-.2.7.2.6-.5,1.3.3.4,1,.5.6h.7c0,.1.5-.5.5-.5l.9-.6h1.3s1.8,0,1.8,0l1-1.3,1.1-.4.3-1.1.8-.8-.5-1,.5-1.5.9-1v-.6c.1,0,1.9-.4,1.9-.4l1.3-1.2v-1.1c0,0-1.7.2-1.7.2ZM281.5,257.1l-.8-.2-1-.7-1.6.5-.7.5h-2.1c0-.1-1.1-.4-1.1-.4h-.5c0,.1-.4-.7-.4-.7l-.3-.3.3-.3-.3-.2-.4.4-.8-.6v-.8c-.1,0-1-.5-1-.5l-.2-.6-.8-.8h-.9c0,0-1.1.4-1.1.4l-.5.3-1.2-.4-1-.9-.4-.2-.3-.7h-.2s-.3.3-.3.3h-1.2c0,0-.7.5-.7.5l-1.2-.2-2-.5-.3-.7-1.4.4-.2.4-.8-.3v.8c-.1,0-.7.3-.7.3l-1-.3-.3.8h-.7c0,0-.2-.3-.2-.3l-.8.7h-.7c0,0-.6-.3-.6-.3v.6c0,0,.4.7.4.7l-.5.6.4,1.5.8.2-.2.8h.6c0-.1.8-1,.8-1l.6-.3,1.1.6.7.2.4,1.9,1,1.1,1.3,1.2,1.1.8h1c0,.1.6.9.6.9l.9.3.4.8.6.2.4.9.5,1-.3.4-.3,1v.5s.6-.1.6-.1l.7-1.5h.6c0-.1.2-1,.2-1l-1-.7.6-1.2,1.2.3.8.8.3-.7v-.3c-.1,0-1.3-1-1.3-1l-1-.6-1.3-.7.4-.4-.3-.4h-1.1s-1.6-1.5-1.6-1.5l-.7-1.6-1.3-1-.5-1,.2-.6v-1c0,0,1.1-.7,1.1-.7l1.1.3-.3.2h0s0,.7,0,.7l.4.7.4-.9.9.3v.7s.7.8.7.8h-.3c0,.1,1.2,1.6,1.2,1.6l1.3.6.8.7,1.3.7h0l.6.4.4.6h.3c0,.1.2.4.2.4l-.2.6v1.3c-.1,0,0,.9,0,.9l.8.6v.4s.3.1.3.1v.5c0,0,.8.6.8.6v.3c0,0,0,.1,0,.1l.5.8h.6s.6-.2.6-.2h.3c0,0,.5.1.5.1l-.2.3h-.3c0,0-.3-.3-.3-.3h-.3c0,0-.1.3-.1.3h-.3c0,0-.2.2-.2.2l-.3.3.2.5h.2s.2.2.2.2l.2.4-.3.3.2.5.3.3h.1c0-.1,0-.6,0-.6h.3l.3.5v.4c0,0,.2.1.2.1v-.7c.1,0,.4,0,.4,0l.2.6h.3s-.6-2-.6-2l.5.3h.5c0,0-.4-1-.4-1h.6c0-.1.7.5.7.5v-1s-.7-.5-.7-.5l-.8-.8.5-.4-.7-.8-.3-1.1.3-.4.7.9h.8s.7-.3.7-.3l-1-1,1.7-.5.7.2h.9c0,0,.3-.2.3-.2l.4-1.2-.7-.5,1.4-.6,1.2.3-.5-1.1.5-1.4.7-.8Z"/>
    <path id="wEurope" d="M254.7,258.4l.2,1.6-.5,1.4-.6-.4-.3-1.3.3-.7.9-.7ZM265.3,248.2v-.7c-.1,0,0-.3,0-.3l-.6-.4h-.7c0,.1-1.1-.5-1.1-.5l-.5.2-.8.9-1-.7-.8-.9-.7-.5v-.9c-.1,0-.4-.6-.4-.6l1-.5.5-.5,1-.4.4-.4.4.3.6-.2-.6-1.4v-.8c.1,0-.2-1.2-.2-1.2l-.5-.8.4-.6-.3-1.2-.7-.8-1.6-.9-.8.7-1.4.4v-.8s-1.4-.6-1.4-.6v-.9s-.9.4-.9.4l-1.1-.3v1.4c0,0,.4.9.4.9l-.9,1.2-.3-.5h-1.2c0,.1-.3.6-.3.6h-1.2c0,0-1.9.9-1.9.9l-1.2,3.4-.7.6-1.1.4-1.2.4-.4,1.8-3.3,1.7-1.3-.9.4,2.4-2.3-.5-1.8.5v1.5c.1,0,2.3.8,2.3.8l1,1,1.4,2.1-.3,3.9-.7,1.2.6.7,2.6.9.5-.4,1.6.9,1.6-.2.2-1.1,2-.6,2.8.5,1.3-1.1.2-.8-.8-.2-.4-1.5.5-.6-.4-.7v-.6c0,0,.7.4.7.4h.7c0,0,.8-.8.8-.8l.2.3h.7c0,0,.3-.9.3-.9l1,.3.6-.3v-.8c.1,0,1,.3,1,.3l.2-.4,1.4-.4.3.7,2,.5,1.2.2.7-.5h1.2c0,0,.3-.4.3-.4l.5-1.3-.3-.4h.8s.1-.9.1-.9Z"/>
    <path id="australiaNZ" d="M485.2,388v.8s-.5.9-.5.9l-.9,1.4-.7.8.5.9h-1.1s-1.2.8-1.2.8l-.4,1.3-.8,2-1.1.9-.7.6h-1.3s-.9-.7-.9-.7h-1.5c0-.1-.2-.9-.2-.9l.8-1.5,1.8-1.9.9-.4,1-.7,1.2-1,.8-1,.6-1.4.5-.5.2-1,1-.8.3.8.3.8,1-.7.4.8ZM490.5,381.2l-.8.7h-.9c0-.1-1.1-.7-1.1-.7l-.2-1.3-.6-.5v1.2s-1-1.8-1-1.8l-.4-1.5-1.1-.4-.8-.9h-.5c0,.1.6,1.3.6,1.3l1.1,1.5.7.7v.3s.5,1.2.5,1.2v1.1c0,0-.2,1.4-.2,1.4l-1,.6v.7s1.5.7,1.5.7l.5,1-.8,1.5.6.3.2.5,1.1-.7.7-1.3.5-1,.2-.3v-.8c-.1,0,.2-.5.2-.5h1.1s.4-1,.4-1l.3-1.6-.7-.2ZM448.1,387l-1.1.4-.8.3-1.4-.6-.9-.2v.8s.8,1.6.8,1.6l.2,1.2.9,1.6h.9c0,0,.3.2.3.2l1-1.3.5.5v-1.5c.1,0,.6-.6.6-.6v-2.2c0,0-.9-.1-.9-.1ZM455.7,363.2v-.9s-.4-1.2-.4-1.2l-1.1-1.2-.6-.6-1-.9-.2-1.6-.3.2-.6-.7-.6.3-.5-1.6-.8-.9.2-.4-.9-.6-1-.7-1.5-.8-.5-1v-.8c.1,0-.2-1.2-.2-1.2l-.4-.2-.2-.7-.3-1.2v-.6c.1,0-.5-.6-.5-.6l-.5-.6-.9.5-.5-1.1v-.5s0-.8,0-.8l-.5-.7v-.6c0,0-.4-.2-.4-.2v-.9c0,0-.5-.7-.5-.7l-.5.5v.4s-.3.8-.3.8l-.3.8.2.5-.3.3-.2,1.1.2.8v.4c-.1,0,0,.7,0,.7l-.4,1.1-.2.8-.3.6-.3.8-.9.5-1.3-.5-.2-.4-.7-.4h-.4s-1-.9-1-.9l-.7-.5-1.1-.5-1.1-.8v-.4c-.1,0,.4-.7.4-.7l.4-.7-.2-.6h.5s.5-.6.5-.6l.4-.8-.6-.7-.3.3h-.5c0-.1-.8.3-.8.3l-.9-.4h-.4c0,.1-1.2-.2-1.2-.2l-.7-.6-.9-.4-.7.2,1,.5v.7s-1.1.3-1.1.3l-.7-.2-.8.5-.6.8.2.4-.6.4-.7,1.1.3.8h-.9c0-.1-.9-.1-.9-.1l-.8-.9-1-.7-.7.2-.6.2v.4s-.6-.2-.6-.2v.4s-.7.2-.7.2l-.3.6-.8.7-.2,1.1-.6-.3-.4.7.5.7-.6.3-.6-1.3-1,1.2v.8s0,.6,0,.6l-.8.7-.4.8-.8.7-1.5.4h-.8s-.4.1-.4.1l-.2.3-.8.2-1.1.6-.4-.2h-.6c0,.1-1.1.7-1.1.7l-.7.6-1.1.5-.6,1v-1.1c-.1,0-.7,1.1-.7,1.1v.9c.1,0,0,.8,0,.8l-.3.4-.2.9.3.5v.5c.1,0,.8,1.2.8,1.2v.8s-.4-.6-.4-.6l-.7-.4.5,1.4-.6-.7.2.7.8,1.2.2,1.2.6.6v.5s.6,1,.6,1v.9c0,0,.2.9.2.9l.7,1.6.2,1-.2,1.1v.6s-.2.4-.2.4l-.7.2v1s.7.3.7.3l1.5,1.1h.9s1,0,1,0l.7-.5.7-.5h.4c0,0,.8-.8.8-.8h1c0,0,1-.3,1-.3l1.2.3h.9c0-.1,1.2-.2,1.2-.2l.5-.7.3-.9,1.2-.4,1.5-.8h1.3c0,.1,1.6-.4,1.6-.4l1.8-.6,2.5-.2,1.3.8h1s1.8,1,1.8,1l-.3.4.7.6.9,1.2v.9s1,.7,1,.7l.5-1.3.9-.6,1.1-1.4v1.2c.1,0-.4.8-.4.8l-.2,1-.7.9,1.2-.3.7-1.2.3,1.3-.5.8,1.3.2.7.7.3.9.3,1.3.9,1.1,1.4.5h.8c0,.1.8.4.8.4l1.2.5,1.2-1.3.8-.3-.2.9.9.3,1.2.8.8-.8.6-.7,1.3-.7h1.6c0,0,.8-.7.8-.7v-.6c0,0,.1-1.2.1-1.2l.4-1.3.5-.9.4-1.5.5-.8.5-1.3,1-.8.6-1.5.3-1.2v-.9s.3-1.4.3-1.4l.2-.7v-1.4c0,0-.6-1.3-.6-1.3v-1Z"/>
    <path id="melanesia" d="M475.4,347.1l.9.8-.5.2-.5-.6v-.4ZM474.8,346.8h.3c0,0,.4.1.4.1l-.2-1.2-.7-.4v1.1s.2.4.2.4ZM465.1,336.4l-.3-.4-1.1-.6-.6-.3h-.2c0,.1.5.6.5.6l.8.5,1.1.6v-.3ZM467.4,338.4l.2-.3-.6-.7-.5-1.1h-.5l.3.8,1,1.2ZM460.5,334v.2c0,0,.5.6.5.6l.6.3h.3c0,0-.6-.5-.6-.5l-.8-.6ZM465.8,337.9l-.9-.2v.6c0,0,.2.2.2.2h.9c0,.1.5.1.5.1l-.2-.4-.5-.3ZM468,339.4l-.8-.3.5.9h1s-.4-.5-.4-.5h-.3ZM453.5,330.6l.2.8-.8.5-.4.5h-.8c0,.1-.1-.6-.1-.6h-.2s-.2.7-.2.7h-.8c0,.1-1.3,0-1.3,0v.4c-.1,0,.7.4.7.4l1.1.4h.7s.7-.3.7-.3l.8-.3.2-.4h.7c0-.1.5-1,.5-1v-.8s-.3-.2-.3-.2h-.8ZM451.4,338.3l-1.1-.2v-.6c0,0-.7,0-.7,0l-.9-1.5-1.2-.9-.3-.9,1.3-.2-.3-.7-2.3-.9-.2-.8-.8-.7-1-.7-2.6-.8-2.4-1v4.5s0,4.6,0,4.6h1.4c0,0,.8.3.8.3l1.1-.5-.2-1,.9-.5,1.2-.4,1.8.6.7,1.2.8.8,1.1.9,1.4.2,1.2.2.3.4h.9c0,0,.2-.5.2-.5l-1.5-.6.4-.3ZM458.4,332.5l-.4-.3-.2-.4h-.2c0,.1.3,1.2.3,1.2l.6.9.6.5h.4c0-.1.2-.5.2-.5l-.7-.5-.7-.9ZM455,329.9l-.6-.6-.6-.3-.5-.3-.8-.4-.4.3,1,.4.8.6.6.5.3.5.3.8.4-.4-.2-.7-.5-.4ZM473.4,354.7l-.4-.4-.6-.5-.8-.5h-.6s.2.5.2.5l.9,1,.9.8,1,.7.8.4.5-.4-.7-.7-1.1-.9ZM493.3,347.4l-.8.5h-.4c0,0-.7.4-.7.4l.2.5.9-.3.9-.4h.1c0,0,.2-.8.2-.8h-.3ZM490.6,349.5l-.6-.2-.5.5v.6c.1,0,.9.2.9.2l.9-.2.2-.8-.5-.4-.3.2Z"/>
  </g>
</svg>