<svg xmlns="http://www.w3.org/2000/svg" xmlns:amcharts="http://amcharts.com/ammap" id="Layer_1" viewBox="0 0 512 512"><g id="_x3C_defs"><amcharts:ammap bottomLatitude="18.959" leftLongitude="-8.676" projection="mercator" rightLongitude="11.991" topLatitude="37.091"/></g><g><path id="DZ-01" d="m265.5 168.1-.8 30.7-.5 4.2-2.4 9.9 4.4 25.1-1.2 5.1-.6 4.5-.2 6.6-1.2 3.7-3.3 5.2-.9 10.5-1.9 3.3v6.4l2 2.9-2.7 6.6-.5 4.8v4.3l-.4.6-1.7.6-.4.5v-.8h-.7l-.4.4-.9-.2v-.5l-.9-.4h-1.1l-1.7.8-1.2 2.5-7.6 7.9 2.8 6.2 8.8 12.3.3 38.8v.7h-.3l-.2 55.8 4.1-.7h2.7l1.6.5 1.5 7.1 3.9 3.4 2.1 2.7 2.4 5 1.6 5.7-.4 3.1.3 2.9 2.2 3.2 3 7.3.5 2.8h-.5l-1.7.7-1.6-3-2.4-2.3-1.5-.4-1.8 1.9-1.2-1.1-.8.4-1.2-.5-1 .5-1-1.5h-1.7l-.8-1.1-2.3-1.7-.3-3.1-.5-1.1-4.2-1.8-2-.4-.6-.6-.4-1.1-.5-.3-1.5.4-1.5-.2-.5-1.1.8-5.6-.6-2.9-27.4-18-.4-1.9-49.7-35-54.1-37-29.1-20.4 12.9-5.1 7-7.5 14.5-.5 1-2 .6-2.8 1.1-2.2 6.9-10.3 2.3-2.1 1.8-1.1 2.1-.7 7.9.3 1.8-1.2 1-3.1-.2-.3 1.6-4.4.7-3.6-1.3-1.2 2.7-9.6.5-1-.2-.6 6.1-8.1.4-.8v-.7l1.3-2.4 6.6-5.4 6.9-10 13.7-4.1 11.7-.8 6-5.3.6-2.9-1.2-7.2 1.5-5.6 10.7-7.8 4.1-7.4 9.1-10.4 16.8-12.1 22.7-14.2Z"/><path id="DZ-02" d="M256 29.3h.9l-.6 1.2v.7l-.7.4v.5l-.7 1.1h-.7l-1.1.8v1.3c-.1 0 .7 1.4.7 1.4l.9.4-.5.9-.8.4.4.2.8-.3.3.4v-.4l.4.1v.5h.2l-.8 1h-.7l.4.6-.4.2.2.3-.2.2.8.8.9-.2-.3 1.2.7 1.3h.3l-.3.5h.5l1 1-.4.5.3.5-.4.3.2.6-1.4-.6-.8-.8v-.5l-1.2-.9v-.5c.1 0-.2.2-.2.2l-.6 1.3-.4-.2v1l-1.3.6h-1.3l.4.5-.6.4v.7l.4.1-.4.7-.5-.3-1.9-3.4-2.3 1h-.9l-1-1h-.7c0-.1-.6-1.5-.6-1.5l-.3.2-.4-.3.4-.3h-.5l-.8.8h-.7l-.2-1.5-.2.2-.3-.3v-.7c.1 0-.4.2-.4.2l1-1.1-.3-.6.3-.2h-.6l-.1-1.6-.4-.6-1.2.5v-.5l-1.2.9-2.3-.3v-1l1.1-2.7 1.5-1h.8c0 .1 1.2-.5 1.2-.5l1.1-1.9 3.4-1.4h1.3l1.1-.6 2.4.2.7-.3.6-1h.4c0-.1.7 0 .7 0l.3.4 1.5-.2.7.4.8-.4 1.8.2 1.3-.6Z"/><path id="DZ-03" d="m272.7 83 .6 7 1.4 4h.5l1.1 2.2h.4l.8 1.6.6.2.8 1.2h.8l.5.4 2.5-1.2.8.3-.3-.7.4-.7-.2-.2 1.1-1.6 1.4-.9 1.6.9v.5c-.1 0 1.2-.5 1.2-.5l.2 1.4h.5l.4.9-.2 1.6 1.6 3.5-.4.3.3 1 1.7 3.5 2.3.4 3.5 1.4 3 2.8.4.9.9.3 1.5 2.6 8.9 3.5 1.6 1.2 4.3 4.4.5 1.7 1.3 1.3v.9c.1 0 1.5 2.1 1.5 2.1l-14.3-1.3-.8.4-.3-.5-1.3-.4-.9.2-.4-.5-1 .4-.3-.6-.5.8-.5-.4v.6c-.1 0-.7-.2-.7-.2l-.4.5-8.6.3 4 2.5.3 3.2-9.3-2.3-2.7.5-3.2 1.2-11.8.9-.4-.2-.3-1.8-1.1-1.2-.8-2.5-.8-1.5.2-1.7-.7-1 .3-.3h4c0 .1.2-4.1.2-4.1l-2.3.5-3.8-1.3v-.8c-.1 0 .2-1 .2-1l-3.4-.3.6-1.5-.3-1.7.3-1.1.6-.5-1.3-1.1.2-.4-.4-.7-.6.2-.3-.6h-.7l.3-1.5-.4-.8.4-.7-.6-1.7-.7-.3-1.3-1.5-3.3 1.1-.5-.2-1.8-2-2.4-1.1-.2-.5.3-.6-1-1.6 2.4-1.6h-.3l-.6-1.5 1.8-.6 2.4-1.9.3 1.3 1.8-1.1.4-2.7 2-2.3 1.3-.8 4.2-1.1.6-1.2 2-1.7 2.2-1 .5-1.2 3.4-.4Z"/><path id="DZ-04" d="m370.9 40.5-.4.5h.5c0 .1.1 1.3.1 1.3h.7l.4.5-.5-.9 1.3.7.4-.2v-.9l2.6-.2V40l.4-.3v.3c.1 0 .7-.3.7-.3v.6h.5l.4.7h1.7v.4-.3c.1 0 2.3.1 2.3.1l-.3 1.4 1.4.7-.3 1.1 1.1.2.6-.5 2.6-.9.9-2h1.4l.5 1.7-.2.9h.8l-.1 1.2.7 1.3 1 .6v.9c.1 0 3.1 1.2 3.1 1.2l-.3.4.4.3-.2.9.6.3 1.5-.6.5.4h.6c0-.1-.5-.9-.5-.9l.5-.2-.3-.8.9-.5.8.5.6 1.7v.7c-.1 0 .8.9.8.9h.8l-.1.6h-.8V54l.5 1.9.8 1.2h-.6l-.9.7-.5-.4-2.6 1.3-.2.9-2 2.1h-.7v-.3h-.5c0-.1-.2-.8-.2-.8h-.8c0-.1-.2-.6-.2-.6l.2-.3-.4-.6-.4-.4v.6h-.7l-.2-.3.4-.4-1.4-1.1-.3.2-.2 1.3-1.2.3-.2-1 .5-.8-.2-.7-1.9-1.1-.2.6-.4-.3-1.2.2-.4-.2-1.2 2.2-1.8-.6.5-1.1-.7-.6-4.5.5-.8-1.8-2.2-2.8-1.7-.9h-.9c0 .1-2.1 1.2-2.1 1.2l-.4-.6.5-.4-.6-.4.5-.5v-.5l-2.8-.4-.3-.7h-.5c0 .1-.3.8-.3.8l-1 .6-2.7-1.6v-1.3h.6l.4-1 1.9-.2.8.6-.2-.9.9.2 1.4-1.7v-2.3l.3-.8 1.5-.5v-.2l1.2-.1Z"/><path id="DZ-05" d="m342.8 56.1 1.2.4.9-1.9-.2-1.1 1.1-.5.5-.7h.9c0 .1.3-.6.3-.6l2.5 1.2.6-.6.7.3.9-1.4-.2-.5h-1.2v-.9l1-1.1.6-.2v-.4l1.4-.3 1.2 1.1.8 1.2 1.1.6v-.8l-.5-.6 1.1-.6.6-.4.2.4.4-.2 3.1.6.2-.2 2.7 1.6 1-.6.3-.7h.5c0-.1.3.6.3.6l2.7.4v.5l-.4.5.6.4-.5.4.4.6 2.1-1.1h.9c0-.1 1.7.7 1.7.7l2.2 2.8h-.3v1.5l.7 1.7-.8 1.7-1 .6h-1.7l-1.7 1.4V63c.1 0 .6.5.6.5l-.4 1 .2.6v.3c.1 0 .8-.2.8-.2l.4.2-.7.4v.5l-1.2.6v.9-.2.3c-.1 0 .3.9.3.9v1.1l-.4.5h-.9l-.4 1.1.4 1.5-.5.9.9.2.7 2 .7.5-.6.6.7.2v.4l-1 .8v1.2l.6 1.2-.4.5h-.7c0-.1-2.6-2.4-2.6-2.4v-1.6l.6-1.2-.6-.5v-.6l.3-.8.6-.4-.8-.7-.3-1.1h-.4c0-.1-.2.4-.2.4h-.7l-.8.6-1.4-.2-.3.4h-.6l-.6.6v.6c.1 0-.2.4-.2.4l-.6-.5-.5.4-1.3-.9.3-1.2-1.1-.5-1 .5-.4 1.2-1.2 1.3v-.8l-1-1.2-.9.2V73l.4.2.3-.3.3-.9h-.4c0-.1.2-.7.2-.7l-.2-.5-.6-.4 1-.5 1.5-1.8-.7-.3-.8.2-.3.4-1-1-2.3-1.2-3.2 1.7-.9.8h-1.5c0 .1-.9-.2-.9-.2l.3 1.1 1.6.4.7 1.1-.2 1-1.6.4-.4.6-2-.4-2.3.4-.4 1.2h-.6l-1.7-.8-1.1.5-.7-.7v-.6l-2.3-1.1-.7.4-.5-.2v-.5c.1 0-1.8-.9-1.8-.9H329c0-.1-.2-.8-.2-.8l1.4-1.3.6.2 1.1-1.7.5-2.8-.8-4.9.8.5.6 1 .8.4 1.1-1.7v.9l1-1 1.1.3v-.2c.1 0 .9 1.2.9 1.2l1.1-.9.4.2.6-.3.5-1 1.8-1.1.8-1.2Z"/><path id="DZ-06" d="m329.1 19.3 3 1.3h.8l1 1 1.2.3v.4l2.2.5v.5l-.6.4v1l2.2 1.4 2.4.8 3.7-.5v.3h.3l-.3 1.2h.7l.3.3.3.7-.4.3v.7c-.1 0-1.6.9-1.6.9l-.5-.3-.8.5.3.8-1.3 1.8-.3-.2.5.6v.4l-.6-.2-.6.7h-.5v-.3c-.1 0-.4.4-.4.4h-.8v-1l-.7.2.5-2.1-.5-.3v-.7l.7-.8L338 29l-1.1-.4v.5l-.4-.1v-.4l-.7.4.3.4-.3.9-.6.3v-.4h-.9l-.4.5-1.3-.2-.2-.5h-1.2l.2.5-.5.3h.3c0 .1-.2.7-.2.7l-1.9.6-1 .9-.4 1.3-1.2.8-1.1.2-.4 1.8v.5c.1 0 .6.2.6.2l-.3.3h-1l-.3.3h-.8l.1.4-2.7.4-.7-.9v-1h-.1v-.4l.3-.3-.5-.3-.3-.9.8-.5-.3-.3.3-.2.2-1v-.6l-.6-.2-.2-.7 2-.9.3-.9 1.1-.5 1.1-1.3-.4-.8.6-.4.2-.7.7-.7v-.4c-.1 0-2-.7-2-.7l.2-.7 1.4-.4.8.6.8-.7-.3-.8.3-.8-.6-.3v-.6l-.7-.5-.2-.9h2.8c0 .1 1.3-.4 1.3-.4Z"/><path id="DZ-07" d="m334.5 71.8.7-.4 2.2 1.1v.6l.8.7 1.1-.5 1.7.8h.6l.4-1.3 2.3-.4 2 .4.4-.6 1.6-.4.2-1-.7-1.1-1.6-.4-.3-1.1.9.4h1.5c0-.1.9-1 .9-1l3.2-1.7 2.3 1.2 1 1 .3-.4.8-.2.7.3-1.5 1.8-1 .5.6.4.2.5-.2.6h.4c0 .1-.3 1.1-.3 1.1l-.3.3-.4-.2v.5l.8-.2.9 1.2v.8l1.3-1.3.4-1.2 1-.5 1.1.5-.3 1.2 1.3.9.5-.4.6.5.4-.4v-.6c-.1 0 .5-.6.5-.6h.6l.3-.4 1.4.2.8-.6h.7l.2-.6h.4c0 .1.3 1.2.3 1.2l.8.7-.6.4-.3.8v.6l.5.5-.5 1.2v1.6l2.6 2.3h.7c0 .1.4-.4.4-.4l1.2-.6.9-1.9h1.3l-.5.5.7.4.4.8-.5 1.1.9-.2-.5 2-.4.6.2 3.2-1.4 2.9.6 1.4v.8h-.1l-2 2.3-1.1.6h-.9l-1.3-1.6-2-.7h-.7l-.7-.7-2.9-1.2-5.9 1.2-13.1-1.8-2.5-1.8-1.2.7.8.7-2.1 1.4 1.3 1.5-.8 2 1.7 1.3 2.2 2.4-.8 2.7-1.5 2.4-.2 2.3-.8 2.1 1.1 2.3.4 2.7v2.4c-.1 0 .6 1.8.6 1.8v.7l-.8 1.2-.7 2.1h-.4l-.9-.8-.6-1.2-1.6-.9v-.5l-1-.7v-2.1l.5-.9-3.4-1.2h-.9l-.8-1.3-2.2.3-.4-1.1-1.2-.4h-1.2l-1.1-.4-1.2-1.6-3.7-1.4-1.1-1.1-2.4-.8-.5-.8.5-.6.7.2.8-.3 1.6-1.6.9.2.4-.2-.6-.8h-1.5l-1-.5-.2-.9.3-.4-.5-.4-1-.5-1.1.2-1-1.3.7-.5-.2-.2.3-.5.6.3.3-.4h1l.2-.6.7-.4-1.6-1.2h-.4c0 .1.4-.7.4-.7h-.4V92h-.3l.3-.3-.8-.4-.4-3.4-.6-.3 2.5-2 .3-.6h-.3l1-1.4.5.4.4-.3.8.3 3.6-.3 1.7-.6.4-.7.7.5v-.5h1.1l-1.4-1.2.8-.5.3.3 1.1-1.6 1.2-.4h.9l.9-.5h.8c0 .1.8-.4.8-.4l1.5-.3.6-.6.2-1.2h.6l-.6-.4.3-1.1-.3-2.7h-.4Z"/><path id="DZ-08" d="M190.2 147.2h.2v1.8l.3.8h1.5l-.5 3.2h1.5l.4 1.7 6.2-3.5 7.4 1.9 1.9-1.5 2.6.5 1.7-2.6v1.7l-1 2.1v1l-1.2-.7-.9.2-1.2.9v.4l-.9 1.3.2.4-.4.3-.3 1.5.2 3 .3.3.5 2.2h-.7l.2 1.1h-.5l.1.7-.3.2.8.5.3.8-.6.7h-.6c0-.1-.1.6-.1.6l.7 1.4.7.7-.5 1-.5.3v2l.6.5.4 1.5 1.5.8 1.7 1.6-1 2.8v.4c.1 0 15.3 12.5 15.3 12.5l-9.1 10.4-4.1 7.4-10.7 7.8-1.5 5.6 1.2 7.2-.6 2.9-6 5.3-11.7.8-13.7 4.1-6.9 10-6.6 5.4-1.3 2.4v.7l-.3.8-6.1 8.1.2.6-.5 1-2.7 9.6 1.3 1.2-13.8-1.2-3.2-2.4-6.4-7.1-.4-7.9-7.7-12.9-7.2-21.9-6.3-3h-8.9c0 .1-5.5-4-5.5-4l4.1-5.9v-1.5l.9-1.6 8.2-6.6 7.8-3.9 6.7-6.7 4.1-1.5 3.6-.2 3.6-1 4.8-2 .6-.8-.3-.9h-.7l-.1-.9.3-1.3.4-.6h.4l1-1.8h.4v-.4l.4-.2V185h-.3v-.6l-.4.6-.4-.4-.6-1.7-.5.2v-.8l-.4.2.4.9h-.7v.3l.5.2h-.8c0-.1.2-1.9.2-1.9l-.7-.7-.2.6-.6.2v.8h-.9v-.8l.3-.9-.3-1.2-.4-.4.8-.7v-.5l-.3.1-.4-.4.5-.5.3-1.4.6.5.3-.5.8-.2.2-.4.3.2.3-.4-.4-.2v-6.4l19.6-4.5v-.4l-.5-.6V162l-2-4.1.6-2.4 7.5.2 1.3-.9 2-.4h3.8l.6-.2 2.5.7 3.7-1.1 1.1.7 1 .2v-.3h.7l.6.4h1.1l5.8 1.5 1.8-.3 6.2.7 2-.9v-.5l-.6-1-.7-.3-1.8.4-.3-.2 1.4-1.1.2-2.9-.3-.5.6-.5.3-1.3.8-.6h1Z"/><path id="DZ-09" d="m283.3 26.7 1.8.4-.2.3 1 .7h.5l.2-.4.2.6.4-.2.4.4.9-.6v-.4l.8-.1v1.2c-.1 0 .6-.5.6-.5l.5.4.5-.7-.2-.5.6-.4v-.5l.6.4.7-.4v-.5h.5l.8 1.5.3-.5h.7c0 .1-.6.6-.6.6l.2.8h.3c0 .1-.4.6-.4.6l.7.3-.3.3.2.4-.2.8h-.4c0 .1.2.4.2.4l-.3.2-1.8-.3-.4.8.3.8h-.5c0 .1-.1.9-.1.9l-.6.4-.8-.8-.8.7v-.7l-.5-.3.3.4v1.2l-1.1 1.1h-1.7l-.3-.5.2-.4-.4-.4h.2v-.4h-.5l-1.8 1.3-1.3-.4h-2c0 .1-1.7 1.3-1.7 1.3l-.2-.4-1.3-.2v-.2c-.1 0 .3-.4.3-.4l-1.2-.2-.3-.9h-.7l1.1-.8-.3-.3.4-.5.3.3.7-.2.8.3.5-.7-.5-.9h1.2c0-.1.3-.8.3-.8l1.5-1.3.3.3.9-.4v-.3h.9l.4-.7-.5-.7Z"/><path id="DZ-10" d="m294.9 29.3 1-.3 1.3.5.2-.5 1.4-.3.5-1.1 2.8.8h2.6c0 .1.2.8.2.8l.8.8h.9l.3.9.7.5v.4l1.6.4 5.5-.4.8.3 1.2-.6.3.6 2.1-.3.2-.3.6.3.2.7.5.2v.6l-.2 1-.3.2.3.3-.8.5.3.9.5.3-.4.3v.4h-.4c0 .1-.5 1-.5 1h-1.5c0-.1-.9.8-.9.8v.5l-2 .9.4.2-.7 2.5-1.6 1.2-.6 2.5-.6 1.1.5.9v.6l-2.9-1.1-1.4 1.3-.5-.5-.4.4-.5-.5.2-.7-1.2-.3-.7-1.1-1.7-.2-.3.9h-.4l-.7-1v-.4l-.5-.4-.4-1.2-2.2-.7-.9.2-.5-.9h1.1l1-1 .5-.5-.2-.8-.5-.4.3-.9 1.6-.4.2-.9-.4-.9-.7-.2.5-.2v-1.2l1.3-.7-1.1-1.6.5-.8h-.5l-1-.8-.6.3.2.3-.7.2-.2.5h-.5v.3l-.8-.9h-.4l-.4-1.2h-.3l-1.2-.9.2-.8-.2-.4.3-.3Z"/><path id="DZ-11" d="m351.8 220 .2 35.6-2.1 8.7 3.3 18.4-.3 9 12.6 12v.6c-.1 0 .4 1.4.4 1.4l-1.9 1.9-1.1.4v.7c-.1 0-.6.3-.6.3l.3.8-.9 1.3 1.2 1.6 1.3.8.4-.4.6.3v1h.6v.6l1 .5 5.5 15.8v.9l1.6 1.6 3 4.6 1.6 4.5 3.5 6.5.9 1.1 1.9 1.2 4.5.4 5.3 8.4-.4 3.8.5 11 5 12.6-2.1 2.1 6 4.7 17.3-3.2 13.4-8.8h13.9l1.6 1.2h2.2l1.6 1.6 1.3.4 4.3 2.9-.7 20.4-65.9 42.3-6.7 5.6-31.7 29.5-58.5 11.9-4.9-3.8-.5-1.1v-.5l2-2.2v-.7l.4-1 1.4-1.5v-.7l-.9-1.4.4-.9-.9-1.5.5-1.7-.5-.9.4-3.6-1.5-.3-4.8-2.8-3.6-.5-2.5-.9h-3l-1.5-.5-1.1-.9h-1.4l1.7-.8h.5l-.5-2.7-3-7.3-2.2-3.2-.3-2.9.4-3.1-1.6-5.7-2.4-5-2.1-2.7-3.9-3.4-1.5-7.1-1.6-.4h-2.7l-4.1.6.2-55.8h.2v-.7l-.3-38.8-8.8-12.3-2.8-6.2 7.6-7.9 1.2-2.5 1.7-.8h1.1l.9.3v.5l1 .2.4-.4h.5l.1.9.4-.5 1.7-.6.4-.6v-4.3l.5-4.8 2.7-6.6-1.9-2.9v-6.4l1.9-3.3.9-10.5 3.3-5.2 1.2-3.7.2-6.6.6-4.5 10.8-3.9 11.7-.9 18.2 15.1-.2.4 10.6-8 35.6-25.8Z"/><path id="DZ-12" d="m398.9 48.5.5-1.5v.3l.7.3.2-.3.6 1.1 1.4.7.4-.5.6.2.9-1.3h.8V47l.6-.3v-.4h1.4v.3c.1 0 1.3-.8 1.3-.8l1.6.2v-.4l1.8 1.3h.6l-.6.6-.2.8h.4c0 .1-.3.5-.3.5h.4l-.3 4.7 1 1.1 1.1.6v4.2c.1 0 .8 1.1.8 1.1v.5l-.8.2-.8 1.3.3.2-.4.9v1.8l.4 1 1.7 1 1.7.2-1.3 1.8-.5 1.4-1.1.9-1 2.6v1.8h-.4l-1.2.9.9 3.3v.9l.8 1.1h-.6l-.7 1.2h-.6v.6l.9.4-.9.7.2.5-.9.3-.2.4.4.3h-1.2l-.1.7-1.2 1.1h-.7l-1.7 1.5-1.4.3-.5.7-1.7.4v1.4l-1.1 3.2-9.1-.9-4.6-1.9.4-3 .8-2.6 2.5-4.3v-1.9c.1 0-.5-1.1-.5-1.1l.9-2.2-.8-2.7-.5.2-.9-.4-.8 1-.6 1.5.2.4.4-.5-.2 1.8-.9-2.4.4-1.6.5-.8.5-.2.3-1.3 1.5-.8 1.7-2.6-1.1-1.8v-.5l.9-.8-.8-.7.4-1.8-.4-.5v-.5l3.6-1.1h.7l2-2.2.2-.9 2.6-1.3.5.4.9-.7h.6l-.8-1.2-.5-1.9V53l.7-.1v-.6h-.7l-.9-.9v-.7c.1 0-.5-1.7-.5-1.7l-.8-.5Z"/><path id="DZ-13" d="m179.5 67.4 1 .7-.2 1.1h.6l.6.7 1.2-.3 1-1.5.2.2h.9c0-.1.2.3.2.3h1l.3.3.2-.4h1c0-.1.4.7.4.7l.4-.4 1.2 1h.9l.6.7 1.2.2.3 1h.8l1.3.5.2.5h.7l-.5 1.6-.9.9.7 1.1v1l.5-.3.7.4-.9 1.3 1-.6.3.3-.4 3.6 2.6-.4.3 1.1-.3-.4-.2.4.3.7-1.4 3.1-1.8 1.1 1.1.2.4.9-2.4 2.5-1.9 1-2.3 2.8-1.7.6-.5 1-.8.5-1.4-.3-4.1.4-3.9 3-1.4-4.1.2-2-1.8-2.3 2.3-2.9-1.4-.6-1.6-2.6-.9-.3 1.8-2.3v-.7l.9-.6-1.6-.9v-.3l-.3.1-1.6-.7v-1c-.1 0-2-1-2-1v-1.7l-1.7.2-2-2-1-.4-1.1-1.1v-1.1l1.4-.5.9.2.7.6 1.6-.2.3.3 2.9-.6 1.9-1.2.7.4 1.7-1.7h1.1l.5-1 1.2-.7Z"/><path id="DZ-14" d="m246.6 54.5.8 1.6.8.2.5-.5-.2-.4.4-.5-.3-.2.3-.9 1.4 1 .6-.3v.5h1l.5.3v1.6c.1 0 .5.2.5.2h.7l.2-.5.6.2.2-.2.3 1 .8.9 1.1.3.4-.3v-.9c-.1 0 .7.4.7.4l.3.7.4-.5h3.2c0 .1 1.9-.3 1.9-.3l.4-.8 1.1-.4v.4l-.6.3.2.3 1.5-.2v1.1l-1.5.3.2 1.6 5.8 4 1.5.7h.3c0-.1 1.2 1.9 1.2 1.9l1.1-1.1h.4l.4-.9h.5c0 .1.5-.6.5-.6l1.2.9v.7c-.1 0 .6.8.6.8l.9.4h.8c0-.1-.4 1-.4 1l.4.5-.8.3-1.3 2.5 1.6 1.4-1.2.8h-1.3l-1.1.6-.5 2.9-1.1 2.3-1.6.5.2 2.7-3.4.4-.5 1.2-2.2 1-2 1.7-.6 1.2-4.2 1.1-1.3.8-2 2.3-.4 2.7-1.8 1.1-.3-1.3-2.4 1.9-1.8.6.6 1.5h.3l-2.4 1.6-1.2-1.7-.4-1.2v-.9c.1 0-6 .4-6 .4l.7-5.4-4.4-.9 1.8-3.2-3.3-1.3-.4-.6.8-.6-.5-1.3-1.2.5-1.9-3.4v-1.4l.4-.5-.6-1 1.7-1 1.8-1.6-1.8-2.7-1.6-.7-.3-1.1-3.7.5 1.2-2 1-.4.8-.9-.4-.5v-.5c.1 0 .9-.4.9-.4h-.3l.3-.4-.3-.2.8-.7 1.2-.2 1.7.9v-.4l.6.4.6-.4V65c.1 0 .8-.5.8-.5v-1.1h.5l.3-.4-.6-1-.9-.3v-.4l.2-.4h.8c0 .1.8-2 .8-2h.4v-.4h.7v-.7l1.4-.1v-1c.1 0 1 .1 1 .1l.2-1 .5.2.8-.2v.4l.9-.2.6-1.1h.7l.2-.5h.7Z"/><path id="DZ-15" d="m321.4 18.9 1.8.8h1.8l.2 1 .7.5v.6l.6.3-.3.8.3.8-.8.7-.8-.6-1.4.4-.2.7 1.9.7v.4c.1 0-.6.7-.6.7l-.2.7-.6.4.4.8-1.1 1.3-1.1.5-.3.9-2.1.9-.6-.3-.2.3-2.1.3-.3-.6-1.2.6-.8-.3-5.5.4-1.5-.4v-.4l-.8-.5-.3-1h-.9l-.8-.7-.2-.6.3-.6-.5-1.3h1.3l.3-.3v.5c.1 0 .9.2.9.2l-.2-1.5 1.5.4-.9-1 .5-1.6.6-.3.5.6.2-.7h1.1v-1l.9-.4v-.5l.7-.4v-1.4h-.1l1.8.3 1.2-.5 1.2.5 2-.5.3.4 1.8.2h.7l.4-.6Z"/><path id="DZ-16" d="m287.9 21.5 1.4.9-.2.6.5.5.9.2h1.3l1.1-.7.3-.8v-.7c-.1 0 3 1 3 1l-.3.7.8-.2v1.2l-1.5.2-1 .6-.4-.6h-.3l.4.1v.7l-.7.6h-.4l-.1.4-.7.4-.7-.4v.5l-.5.4.2.5-.5.7-.5-.4-.8.5v-1.2c.1 0-.6.1-.6.1v.4l-1 .6-.4-.4-.4.2-.2-.6-.2.4h-.5l-1-.7.2-.3-1.8-.4-.3-.3.6-.3-.5-.3v-.7l.8-1.1v-.7c-.1 0 .9-.2.9-.2l.4-.7v-.4c-.1 0 2.7-.4 2.7-.4Z"/><path id="DZ-17" d="m270.1 58.3.7 2.6 2.4-.2 2.5-1.2.3.4.3-.6.4.8 1.7 1.2.8.2 1.5-.7.9-1.9.9-1h.7c0-.1 1.4-1.5 1.4-1.5l.6.3-.3-.4.4-.3-.4-.4.3-1.3-.5-.5V52l-.3-.9.8-.3v.2h.8l1.3-.8.5.7.3 1.9.8-.2-.2 1 .4 1.4 1.8-.4-.2-.3 1.2.2.3-.3.9-1.5v-1.4l1.1-1.1v1.1c.1 0 .9.9.9.9h1.2l.3 1.4 2.1 2.2 4.8 3.6.4.8-.3 1.3.2.7-1 .7.4 2.2-4.8 3.9 1.3 2.7v.8h.9l1.1-.8-.6 1.7h-.6l.4.5v.8l.3-.1-.4 1.4.5 1.3-.4.6 1.6.4-.3.3.6 1.3h-.3v.3l1.6-.5.5.5 3.9.6.2 3 .5 1.7-.4 2.3 2 2.2-.4 2.3.8.8 1.2.3v.5c.1 0 1.3.8 1.3.8v.9h.6l.4.8h.4c0-.1.2 0 .2 0l-.7.5 1 1.3 1.1-.2 1 .5.5.4-.3.4.2.9 1 .4h1.5l.6.9-.4.2-.9-.2-1.6 1.6-.8.3-.7-.2-.5.6.5.8 2.4.8 1.1 1.1 3.7 1.4 1.2 1.6 1.1.5h1.2l1.2.3.4 1.1 2.2-.3.8 1.4h.9l3.4 1.2-.6.9v2.1l-2.8 5.5.2 2.7 1.8 9.9-12.9-3.8-1.4-2.1v-.9c-.1 0-1.4-1.3-1.4-1.3l-.5-1.7-4.3-4.4-1.6-1.2-8.9-3.5-1.5-2.6-.9-.3-.4-.9-3-2.8-3.5-1.4-2.3-.4-1.7-3.5-.3-1 .4-.3-1.6-3.5.2-1.6-.4-1h-.5l-.2-1.3-1.4.5v-.5c.1 0-1.5-.9-1.5-.9l-1.4.9-1.1 1.6.2.2-.4.7.3.7-.8-.3-2.5 1.2-.5-.4h-.8l-.8-1.2-.6-.2-.8-1.5h-.4l-1.1-2.3h-.5l-1.4-3.9-.6-7-.2-2.7 1.6-.5 1.1-2.3.5-2.9 1.1-.6h1.3l1.2-.8-1.6-1.4 1.3-2.5.8-.3-.4-.5.4-1.2h-.8c0 .1-.9-.3-.9-.3l-.7-.8v-.7c.1 0-1-.9-1-.9l-.5.7h-.5c0-.1-.4.8-.4.8h-.4l-1.1 1.1-1.2-2.1h-.3c0 .1-1.5-.6-1.5-.6l-5.8-4-.2-1.6 1.5-.3 2.1-.5h2.1Z"/><path id="DZ-18" d="m364.5 17.9.5.8-.4 1.3 1.8.5.2 1.2-.3.5.7.8v1.2h.6l.5.9 1.7.2.6.7-.4.9-.9.2.5.4-.4.6v.6h.1l-.6.2-.7-.6-1.8-.3v-.5l-.5-.3-1.4.4-.3.8h-.5l-2-.2-.3-.4h-1.5l-.3-.3-.5.2-.9-.3-.8.4v.6c.1 0-.7.9-.7.9h-1.4l-.3.4-1.5-.9h-.7l-.6.3-1.4.9h-.6l-.2-.5-.6-.3-1.2 1h-1.1c0-.1-.3-.5-.3-.5l.3-.6-.3-1.1h-.8l-.3-.4h-.7l.3-1.1h-.4v-.3l2.6-1.4.4-.6v-.5c-.1 0 .9-1.3.9-1.3h1l.4-.6h.5c0 .1 1.1-.7 1.1-.7l.3.2V21l1.7.6 4-.8 4-1.8 1.5-.3 1.2-1Z"/><path id="DZ-19" d="M345.9 28.1h.8l.3 1.1-.3.6.3.4h1.1c0 .1 1.2-.9 1.2-.9l.6.3.2.5h.6l1.4-.9.6.8-.2 2.3.5.5-.2.2 1 .4v1.1l-.2.4.8.6h.8l-.2 1.3.5.3.2.9.9.4.7 1.1h-.3c0-.1-.8.5-.8.5v2.1l1.9.5-.2.3.4 2.1-.8.7.5.3v.6l.8.5-1.4 1v.4l-1.1.6.4.6v.8l-1.1-.6-.8-1.2-1.2-1.1-1.4.3v.4l-.6.2-1 1.1v.8h1.2l.2.5-.9 1.4-.7-.3-.6.6-2.5-1.2-.3.8h-.9c0-.1-.5.6-.5.6l-1.1.5.2 1.1-.9 1.9-1.2-.4-.6-.2-.4.2-1.2-.6h-1.5l-.7-1v-.4l.5-.2-.5-.6-1.2.2-1.6-1.2.5-.4-.3-.3v-1.8h1.5l.8-.3-.3-.2V48h.2v-.6l-.4-.2.3-.6-.3-.5.3-.8 1.2-.7.5-1.6-1.1-1.1.5-.6-.4-1.1v-.7c.1 0-.6-.6-.6-.6l-.4.2-.2-.8-.7-.6.4-.2h-.3l-.1-.6-.5-.2v-.5h-.7l-.8-.5-1.1.7h-1.6c0 .1-.6-.1-.6-.1l-1 .4-.8-1.1.4-.8v-1.3l-.7-.7h-.7c0-.1 1-1.1 1-1.1l1.9-.6.2-.6h-.3c0-.1.5-.4.5-.4l-.2-.6h1.2l.2.5 1.3.2.4-.5h.8v.4l.6-.3.3-.9-.3-.4.6-.4v.4l.4.1v-.5l1.1.4 1.3 1.3-.6.8v.7l.4.3-.5 2.1.7-.2v1.1h.7l.3-.4v.3h.6l.6-.7.5.2v-.4l-.5-.6.3.2 1.2-1.8-.3-.8.8-.5.5.3 1.5-.9v-.7c.1 0 .6-.3.6-.3l-.3-.7Z"/><path id="DZ-20" d="M212.8 70.8h1.1l.4-1.3h.3l.4 2.1 1.8.2 1.1-.5.6.6h.7l.2.3h1.2c0-.1.5.4.5.4l-.2.5 1.3.7 2.6-1.9.9 1 .5-.3.6.4 1-.6.7-1.1 3.7-.5.3 1.1 1.6.7 1.8 2.7-1.8 1.6-1.7 1 .6 1-.4.5v1.4l1.9 3.4 1.2-.5.5 1.3-.8.6.4.6 3.3 1.3-1.8 3.2-3.2-.8-3.4 2.7-1.7.8-.2-.7-1.7-1.8-3.2 2.3-2.4-.3-2.3-2.3-.2.2-2.4-1v-.5l-1.7-1.1-2.4 1.4-.2-2.4-1.1-1.2.3-1.7 1.7 1.1 1 .2.2 1.3.5.8 1.3-1.5v-.4l-1.6-3.1-.6-.2-.8-1-1-.3v-.6c.1 0-.3-.6-.3-.6h-2c0-.1.4-1.5.4-1.5l-1.1-.3-.4-.6 1.3-.9-.5-.4.4-.7-.5-.2.3-.3v-.7l1.9-.3-.2-.3.4-.6-.5-.4-.2-.7.4-1.1h.6c0 .1.2-.3.2-.3l.6-.2Z"/><path id="DZ-21" d="m387 13.6 1.4.7.4-.2.9.8-.3.7 1 1.8v.6c-.1 0-.8-.2-.8-.2l.2.7 1.2.7V21c-.1 0 .6 2.1.6 2.1v1.1c-.1 0-1.5.5-1.5.5V26c-.1 0 .2.2.2.2l-.6.4-.4-.5-.7 1.2-4.1 1.2-.7.9v.5l.5.4v.5c-.1 0-2.1.7-2.1.7h-1l-.4 1.2.2.5-.7-.4h-.7c0 .1-.4-.7-.4-.7l-1.3.2.5-1.1-.2-1.1.6-.2.6-.9-2.1.3-1.3-.4v-.3l-1.2.1v-1.3l-.4-.2-.7.2-.6 1.3h-.8l-.4-.4-1.4.2-1.1.2v-.6c-.1 0 .2-.6.2-.6l-.5-.4.9-.2.4-.9-.6-.7-1.7-.2-.5-.9h-.6V23l-.7-.8.3-.5-.2-1.2-1.8-.5.4-1.3-.5-.8v-.8l-.5-.4.6-1.3 1.2-.5.5-.8 3.2-.6.9.4.2.7h.7l-.2.6h.7v.7l.3-.2-.4.6.2.4.5.3h.9l-.2.1.3.3 3.1.3.7-.4.3.3.8-.3v.7h.8v1.1l1.3.4 1.8-.3 1.9-.8.9.4 1.6-1 1.1-1.4.2-.9-.2-.3-1.9-1.2.2-.2.4.3.4-.4Z"/><path id="DZ-22" d="m204.7 61.6.9.4 1.2-.9.5.2.2.4-.3.6v.5c.1 0-.2.3-.2.3v.7c.1 0 .6.1.6.1l.4-.3.9.3.8-1 .4.7 2.7.5.4.4-.4 1.1-1 .4-.4.6.2.7 1.1-.7.2-.5 1.1.4-1.6.8.2.5-.6.6v.7l.8.3v1.4l-.6.2-.2.4h-.6c0-.1-.4.9-.4.9l.2.7.5.4-.4.6.2.3-2 .3v.7l-.2.3.5.2-.4.7.5.4-1.3.9.4.6 1.1.3-.4 1.3h2c0 .1.5.8.5.8v.6c-.1 0 .9.3.9.3l.8 1 .6.2 1.6 3.1v.4l-1.2 1.5-.5-.8-.2-1.3-1-.2-1.7-1.1-.3 1.7 1.1 1.2.2 2.4 2.4-1.4 1.6 1.1v.5l.9 2.6.5 3.5-.2.6-.8.2-1.6 3.4-1.5-.2-1.8.8-1.7 1.7-.6 1.5-.4-.3-.5.3v1.1l-.3.2-.2-.8-.6-.3.3-.8-.4-.5-.3-1.7-1.5-2.5-.4-3-.6-1.2-1.4-.4-.7-.7-4.4 2.9-1.1-.5-1 .2-1.2-.7-.4.5-.7-1.1-2.3 1.8-.5-1.2-.7-.6 2.3-2.8 1.9-1 2.4-2.5-.4-.9-1.1-.2 1.8-1.1 1.4-3.1-.3-.7.2-.4.3.4-.3-1.1-2.6.4.4-3.6-.3-.3-1 .6.9-1.3-.7-.4-.6.4v-1l-.6-1.1.9-.9.5-1.5h-.7l-.2-.5-1.3-.6.9-.5.5-1.4-.2-.2 1.5-.5v-.6c.1 0-.3-1.5-.3-1.5l.7.2.2-1 .8-.7.8.7 1.1-.5v-.8l3.2-.6.2.7.8-.3.4-.6h.5l-.3-1 .7-1.1Z"/><path id="DZ-23" d="M390.9 13.7h.4c0 .1-.3.6-.3.6l.6.7h2.5l1.1 1.4 1.5.9.8-.5.2.4.4-.2.5.3v.4l2.1-.6-.7 1.2.4.8-.4.6 1.3 1 .4.8-.4.2-.9-.3v1.5c-.1 0-1.2-.2-1.2-.2l-.2.7-.3-.3-.6.8.4.9-.7 1.6-1.1 1.5-.3-.4-.2.3h-1.1l-.5-.9-.9.2v-1c.1 0-.1-.4-.1-.4l-1.3.5-.3.8-.4-1h-1.3l-.3-.1v-1.3c.1 0 1.5-.5 1.5-.5V23c.1 0-.6-2.1-.6-2.1v-1.8c.1 0-1.1-.7-1.1-.7l-.2-.7.7.2v-.6c.1 0-.8-1.8-.8-1.8l.3-.7-.9-.8.2-.2 1 .5 1-.6Z"/><path id="DZ-24" d="M390.1 26.2h1.3l.4.9.3-.8 1.3-.5.3.4v1c-.1 0 .8-.2.8-.2l.5.8h1.1l.2-.2.3.4 1.1-1.5.7.2-.2-.3.6-.2.8.6-.2.6h.7l.6 2.4 1.4-.3.2.6v-.9l.5.5 1 .2.9 1.1h-.4c0 .1.4 1 .4 1l-1.3.7-.8.9-1.1-.5-.3 1.5.8.7.4.9-.4.5-1.7.5-.8-.4-.4.9-.8.4-.3-.2-1 1.1-1.3-.4-2.8.9-3.2-.8-.6 1.5.2.6.6.4h-1.4l-.9 2-2.6.9-.6.5-1.1-.2.3-1.1-1.4-.7.3-1.4v-.6l.9-.5.2-1.9-.6-1.7h-.8l-.5-.3.7-.8-1.2-.7.6-.6-.6-1-.2-.5.4-1.2h1l2-.7v-.5c.1 0-.3-.4-.3-.4v-.5l.7-.9 4.1-1.2.7-1.2.5.5.6-.4Z"/><path id="DZ-25" d="m370.4 28.5 1.4-.2.4.4h.8l.6-1.3.7-.2.4.2v1.3l1.2-.1v.3l1.2.4 2.1-.3-.6.9-.6.2.2 1.1-.5 1.1 1.3-.2.4.8h.7c0-.1.7.2.7.2l.6 1-.6.6 1.2.7-.7.8.5.4h.8l.6 1.6-.2 1.9-1 .5v.6h-2.2c0-.1-.1.2-.1.2v-.3L378 41l-.4-.7h-.6v-.6l-.5.3v-.3c-.1 0-.5.3-.5.3v1.3l-2.7.2v.9l-.3.2-1.3-.7.5.9-.4-.5h-.7v-1.2c-.1 0-.6-.1-.6-.1l.4-.5.3-.4-.5-.6h.3V39l-.8-.3-.2-.6-1.2.3-.6-.2-.3-1 .6-.6-.2-.5-1-.4-.2-.7-1.5.4 1.1-2.1-.3-.9.3-.6-.2-.8.8.2.8-.5h1c0 .1 1.1-.5 1.1-.5l-.2-1.3.3-.5Z"/><path id="DZ-26" d="m294.7 30.8 1.2 1h.3l.4 1.1h.4l.8.9v-.3h.5l.2-.5.7-.2-.2-.3.6-.3 1 .8h.5l-.5.7 1.1 1.6-1.2.7v1.2l-.5.2.7.2.4.9-.2.9-1.6.4-.3.9.5.4.2.8-.5.5-1 1h-1.1l.5.9.9-.2 2.2.7.4 1.2.6.4v.4l.6 1 .3.9h-.8l-.5.8.6.4h-.8l-.7.8h-.7l.4.2-.2.7.8.5-.3.4.3 2.9-1.9-2.8v-.5h-.2v-.7l-.7-.2v-.5l-1.1.1.4.9-.6.5h-1.2l-.8-.8v-1.1c-.1 0-1.3 1.1-1.3 1.1v1.4l-.8 1.5-.3.3-1.2-.2.2.3-1.8.4-.4-1.4.2-1-.8.2-.3-1.9-.5-.7-1.3.8h-.8v-.3l-.8.3.4.9v1.8l.5.5-.3 1.3.4.4-.4.3.3.4-.6-.3-1.4 1.4h-.7c0 .1-.9 1.1-.9 1.1l-.9 1.9-1.5.7-.8-.2-1.7-1.2-.4-.8-.3.6-.3-.4-2.5 1.2-2.4.2-.7-2.6v-1.4l.8-.8-3.1-.8-.4-1.5.6-.7h.9l1 .5.7-.3.4-.8-.2-1.1.7-1.2v-1.8c.1 0 .8-.2.8-.2l.4-.6v-.5l-.4-.5h.9l.2.4 1.1-.3.4-.7-.2-.3.3-.8v-1.3l.9.3 1.6-1.4.5.2v-.8l.4-.4-.6-.4.3-.5h-.6l-.4-.5-.5.2-.5-1.1.4-.5-.8-.2.8-1.1v-1.1h1.5l.9-.7 1.7-1.2h2c0-.1 1.3.3 1.3.3l1.8-1.3h.5v.5h-.2l.4.4-.2.4.3.4h1.7l1-1.1v-1.2l-.2-.4.5.3v.7l.8-.7.8.8.6-.4v-.8c.1 0 .7-.1.7-.1l-.3-.8.4-.8 1.8.3.3-.2-.2-.3h.4Z"/><path id="DZ-27" d="m234.4 35.7-1.1 2.7v1.5l-.8.4v.7l-.9.2-.5 1 .7 1.3.7.2-.7.8.4.2v.8l-.5-.2-1.5.7-.3-.3-.6.7v-.5l-.6.4-.8-.5-.9 1.2h.3v.9h.8l-.2.1.2.4-.6.6.5.3-.2.7-1.2.9v.3c.1 0-.3.4-.3.4l-.8-.4-1.2.6-.9.8.4.6h-1l-.4 1h-1c0-.1-.7.9-.7.9v-.9l-.5.5-.7-.3-.3-.9-.7-.2v-.4c-.1 0-1 .2-1 .2l-.8.7-.8-.2-1-.7v-.6l-.5-.5c0-.1 3.3-2.2 3.3-2.2l2.6-5.3 2-2.2 1.6-.5.9-.8.2-.8.4-.3 2.8-.9 2.7-1.5 1.6-1.4h2Z"/><path id="DZ-28" d="m312.8 44.3.6.5v.7h.8l.5-.4v-.3l1.3-.2h.6l.5.7.2-.2.6.3v-.3l.2.5.9.2 1.3-.3 1.6-1.2h1l.2 2.1.7 1-1.8.7.2.6-.5.5v.3l-.5.2v.7l1.9.4.8-.3.6.2-.4-1.1 1.5-.7-.5 1.2.3.7.4.2.8-.9 1-.3.6-.6.6.3.9-.5 1.1.2.5-.5 1.4 1.9h1.3l.2 1.4h.5v.1l1-.6.3.3-.5.4 1.6 1.2 1.2-.2.5.6-.4.2v.4l.7 1h1.5l1.2.5.4-.2.6.2-.8 1.2-1.8 1.1-.5 1-.6.3-.4-.2-1.1.9-.8-1.2v.2c-.1 0-1.2-.3-1.2-.3l-1 1V59l-1.2 1.7-.8-.4-.6-1-.8-.5.8 4.9-.5 2.8-1.1 1.7-.6-.2-1.4 1.3.2.7h3.3c0 .1 2 1 2 1v.5c-.1 0 .4.2.4.2h.4c0 .1.3 2.8.3 2.8l-.3 1.1.6.4h-.6l-.2 1.2-.6.6-1.5.3-.8.6h-.8c0-.1-.9.4-.9.4h-.9l-1.2.4-1.1 1.6-.3-.3-.8.5 1.4 1.2h-1l-.1.6-.7-.5-.4.7-1.7.6-3.6.3-.8-.3-.4.3-.5-.4-1 1.3h.3l-.3.7-2.5 2 .6.3.4 3.4.8.4-.3.2h.3v.7h.4l-.4.8h.4c0-.1 1.6 1.1 1.6 1.1l-.7.4-.2.7h-1l-.3.4-.6-.3-.3.5h-.4c0 .1-.4-.7-.4-.7h-.4l-.1-.9-1.2-.8v-.5c-.1 0-1.3-.3-1.3-.3l-.8-.8.4-2.3-2-2.2.4-2.3-.5-1.7-.2-3-3.9-.6-.5-.5-1.6.5v-.4l.2.1-.6-1.3.3-.3-1.6-.4.4-.6-.5-1.3.4-1.4h-.3V74l-.4-.4h.6l.6-1.8-1.1.8h-1l.1-.8-1.3-2.7 4.8-3.9-.4-2.2 1-.7-.2-.7.3-1.3-.4-.8-4.8-3.6-2.1-2.2-.3-1.4.6-.5-.4-.9h1v.3l.6.2v.7h.5v.5c-.1 0 1.8 2.8 1.8 2.8l-.3-2.9.3-.4-.8-.5.2-.7-.4-.3h.7l.7-.8h.8l-.6-.4.5-.7h.8l-.3-1h.4l.3-.9 1.7.2.7 1.1 1.2.3-.2.7.5.5.4-.4.5.5 1.4-1.3 2.8 1.1v-.6l-.5-.9.6-1.1.6-2.5Z"/><path id="DZ-29" d="m214.2 51.7.5.5v.6l1 .7.8.2.8-.7.9-.2v.4c.1 0 .8.2.8.2l.3.9.7.3.5-.5v.9l.7-1.1h1c0 .1.6.4.6.4v.9l1 1.3-.3 1.1h.5v.6l.7.2 1.2-.7v.6c.1 0 1.1-.7 1.1-.7v.5l.9.4.6 1.1 1.1-.3 1 .2.7.4.3.6h1.9c0-.1.3.6.3.6l.4-.2 1.9.6v.4l1 .3.6 1-.3.4h-.4l-.1 1-.7.5v.8c-.1 0-.7.4-.7.4l-.6-.4v.4l-1.8-.9-1.2.2-.8.7.3.2-.3.3h.3l-.8.4v.5c-.1 0 .3.5.3.5l-.8.9-1 .4-1.2 2-.7 1.1-1 .6-.6-.4-.5.3-.9-1-2.6 1.9-1.3-.7.2-.5-.5-.5h-1.2c0 .1-.2-.3-.2-.3h-.7l-.6-.5-1.1.5-1.8-.2-.4-2.2h-.3l-.4 1.4h-1.1v-1.4l-.8-.3v-.7l.5-.6-.2-.5 1.6-.8-1.1-.4-.2.5-1.1.7-.2-.7.4-.6 1-.4.4-1.1-.4-.4-2.7-.5-.4-.7-.8 1-.9-.3-.4.3h-.5c0-.1-.1-.8-.1-.8l.4-.3v-.5c-.1 0 .2-.6.2-.6l-.2-.4-.5-.2-1.2.9-.9-.4.3-.8h1.2v-.9l-.4-.3.7-.6h1v-.7l.6-.6-.3-.5 2.9-2.4h-.7l1-1.7.5.8h.6c0 .1.1.5.1.5h.4V54l1-.8.8-1.3Z"/><path id="DZ-30" d="m341.4 118.8 19 .3-.3-3-1.2-1.7.2-.7.9-.4-.3-1.9.3-.9-.2-1.3-1-1.6v-1.5c.1 0 .9-.6.9-.6l.2 1 .3.2.9-.4.9-1.2 1.2-.6h.8l.5 1.1.4-.9 1 8.5 4.1 12.6 3.7 12.8 7.9 12.9 5.6 7.1 18.6-1.2 24.6-1.1 1.4 5.1 8.2 36.9-35 6.8-33.4 7.2-2.9-1.1-17.2 8.8-35.6 25.8-10.6 8 .2-.4-18.2-15.1 8.7-3.7 7.1-13.4.3-1.4 1.7-1.1 11.9-38.9 3.6-8.7.5-12.3.8-6 7.5-7.7 5.8-10-1.8-9.9-.2-2.7 2.8-5.5.9.7v.5l1.7.9.6 1.2.9.8h.4l.7-2Z"/><path id="DZ-31" d="M208.9 48v.4l1.1.6-.4.8.6.7 2.9.7v.3h1.2c0 .1-.8 1.4-.8 1.4l-1 .8v.5h-.4v-.3c-.1 0-.7-.1-.7-.1l-.5-.8-1 1.7h.8l-2.9 2.4.3.5-.6.6v.8l-1-.1-.7.6.4.3v.7l-1.2.1-.3.8-.7 1.1.3 1.1h-.5l-.4.5-.8.3-.2-.7.4-.8-.4-.4.5-.4v-.2h.3l-.2-.9h-.3v-1h-.3l-.1-.5v-.9l-2.8.6-2.8 1.4-.9-.4-.9.4-.5-.7h-.4l-.2.2.5.4h-1l.4.8h-.4l-.3-.7v-1.1c.1 0 1.1-.3 1.1-.3l.4-1.2-.2-.3-.9.3.2-.8-1.3-1v-.5h-.2l.3-.8.5-.4h.8l1.3-1.4.9.6.9-.3.8-1.5h.8c0-.1.1.4.1.4l1.1.5h.8v.5l1.9.2 1.6-1.8.6.2.6-.7.5-1.5-.2-.9.4-.3 1.1.2.9-.8h1.1Z"/><path id="DZ-32" d="m216.5 90 2.4 1 .2-.2 2.3 2.3 2.4.3 3.2-2.3 1.7 1.8.2.7 1.7-.8 3.4-2.7 3.2.8 4.4.9-.7 5.4 6.1-.4v.9c-.1 0 .2 1.2.2 1.2l1.2 1.7 1 1.6-.3.6.2.5 2.4 1.1 1.8 2 .5.2 3.3-1.1 1.3 1.5.7.3.6 1.7-.4.7.4.8-.3 1.5h.7l.3.7.6-.2.4.7-.2.4 1.3 1.1-.6.5-.3 1.1.3 1.7-.6 1.5 3.4.3-.4 1v.8c.1 0 4 1.3 4 1.3l2.3-.5-.2 4.3h-4c0-.1-.3.1-.3.1l.7 1-.2 1.7.8 1.5.8 2.5 1.1 1.2.3 1.8.4.2.6 6.7 2 8.4-2.8 1.8.7 9.3-5 5.5-22.7 14.2-16.8 12.1-15.2-12.5v-.4c-.1 0 .8-2.8.8-2.8l-1.7-1.6-1.5-.8-.4-1.5-.5-.5v-2l.5-.3.5-1-.7-.7-.7-1.4v-.7c.1 0 .7.1.7.1l.6-.7-.3-.8-.8-.5.3-.2v-.7h.4l-.2-1h.7l-.5-2.3-.3-.3-.2-3 .3-1.5.4-.3-.2-.4.9-1.3v-.4l1.1-.9.9-.2 1.3.7v-1l1-2.1V150l2-3.4 1.2-2.9-.5-2.6.4-1.7-1.1-1.2.3-1.2-.9-.5.3-2 1.7-1 .6-1.7-.7-.5 1-1.1v-1l-.8-.7-.2-1 .5-1.9.5-3.5-.2-.3 2.3-8.8-1-3.3 2.3-1.3h-.8c0-.1-.8-2.1-.8-2.1l-.8-.3.2-2.9-1.2-.8-2 .9.4-.3-.3-.5.2-1.1-.5-.8 1.6-3.4.8-.2.2-.6-.5-3.5-.9-2.6Z"/><path id="DZ-33" d="m441.6 204.5.6 2.7-3.4 1.2-.6.5v.6l.6 2.8 2.9 3.8 5.7 12.9 2.2 10.7.7 7.2-1.6 12.6 3.1 11.2-.4.6v3l-.5 1.4-1.4 2.5-1.2.3.2.3h1.3l-.4 1.5-.8.4-.4.7-.7 2.9h.3l-.3 2.6.4 2.2.8 2.1.6 3.7 1.6 2.4-.5 3.1.3 2.5-1.2 3.3-8.3 3.5-1.3 3.4-1.3 1.5 14.9 21.8v10.2l1.5 2 .3 1.1.8 1 1.8 4 2 1.3 1.3 1.6h2.2l.8-.2 1.4.3 1-.2.6-.8h2.2l.5.2.9 1.4.8-.4-.2-.4.8-.7 1.7.4 1.3.6 2.3 2.7 2 .8 6.8 5 4.3-1.7 9.1 18.7-41.2 25.9.7-20.4-4.3-2.9-1.3-.4-1.6-1.5h-2.2l-1.6-1.2h-13.9l-13.4 8.7-17.3 3.2-6-4.7 2.1-2.1-5-12.6-.5-11 .4-3.8-5.3-8.4-4.5-.4-1.9-1.2-.9-1.1-3.5-6.5-1.6-4.5-3-4.6-1.7-1.6v-.9l-5.4-15.8-.9-.5v-.6h-.6v-1l-.7-.3-.4.4-1.3-.8-1.2-1.6.9-1.3-.3-.8.5-.3v-.7c.1 0 1.2-.4 1.2-.4l1.9-1.9-.5-1.4v-.6c.1 0-12.5-12-12.5-12l.3-9-3.3-18.4 2.1-8.7-.2-35.6 17.2-8.8 2.9 1.1 33.4-7.2 35-6.8 1.4 6.2Z"/><path id="DZ-34" d="M328.4 32.9h.7c0 .1.7.8.7.8V35l-.4.8.8 1.1 1-.4.6.2h1.6c0-.1 1.1-.8 1.1-.8l.8.5h.6l.1.4.5.2v.7h.4l-.4.2.7.6.2.8.4-.2.7.6v.7c-.1 0 .3 1.1.3 1.1l-.5.6 1.1 1.1-.5 1.6-1.2.7-.3.8.3.5-.3.6.4.2v.6h-.4v1.1c.1 0 .5.2.5.2l-.8.3h-1.5v1.7l-1 .6v-.2l-.6.1-.2-1.4h-1.3l-1.4-1.9-.5.5-1.1-.2-.9.5-.6-.3-.6.6-1 .3-.8.9-.4-.2-.3-.7.5-1.2-1.5.7.4 1.1-.6-.2-.8.3-1.8-.4v-.7l.5-.2v-.3l.5-.5-.2-.6 1.8-.7-.7-1-.2-2.1h-1l-1.6 1.3-1.3.3-.9-.2-.2-.5v.3l-.6-.3-.2.2-.5-.6h-2v.3l-.4.4h-.7v-.8l-.6-.5 1.6-1.2.7-2.5-.4-.2 1.9-.9v-.5l.9-.9h1.5c0 .1.5-.8.5-.8h.4c0-.1.1.9.1.9l.7.9 2.7-.4v-.5h.7l.3-.3h1l.3-.2-.5-.2v-.5c-.1 0 .3-1.9.3-1.9l1.1-.2 1.2-.8.4-1.3Z"/><path id="DZ-35" d="m309.3 18.6.7.6h2.1l.1 1.4-.6.4v.5l-.9.4v.9h-1.1l-.2.7-.5-.6-.6.3-.5 1.6.9 1-1.5-.4.2 1.5-.8-.2v-.5c-.1 0-.4.4-.4.4h-1.3l.5 1.2-.3.6h-2.6c0-.1-2.8-.9-2.8-.9l-.5 1.1-1.4.3-.2.5-1.3-.5-1 .3-.7-.3.4-.5h-.3c0-.1-.2-1-.2-1l.6-.5h-.7c0-.1-.3.4-.3.4l-.8-1.5.8-.6v-.7h-.4.3l.4.6 1-.6 1.5-.2v-1.2l-.8.2.3-.7 3.2.4.4-.5 1-.2v-.4l1.6-.3 1.4-.8 1-1.2 3.7-1.1h.7Z"/><path id="DZ-36" d="m410.9 17.6 1 1 2.1-.2 1 .2.6.6 5-1.4.4.8-.5.3-.2 1.5h.9l.4.5-.3.6-1.3.8-.3-.2-.7.7-2.1-.2-1.3.6.2.4h.7v.7l.5.8-.4.9-.4.2v1.2h-1.1l-.2.6-1.6.7-.9 1h-.8l-1.4.9-.5-.2-.6.5.3.9-.4.6-.6-.3-1.1.5-1 1.4-.5-.8.3-1.2-.8-.3-.8.3-.4-.9h.4c0-.1-.9-1.3-.9-1.3l-1-.2-.5-.5v.9l-.2-.6-1.4.3-.6-2.4h-.7l.2-.6-.8-.6-.6.2.2.3-.7-.2.7-1.6-.4-.9.6-.8.3.3.2-.7 1.1.2v-1.5c.1 0 1 .3 1 .3l.4-.2-.4-.8 2 .2 2.2-.4 5.6-2.7Z"/><path id="DZ-37" d="m80.9 224 1.2.6-.6 1.8h.8l.6-.6.9.9 1.7.4.3.4.4-.6-.2-.3 1.3-1.4 5.5 4.1h8.9c0-.1 6.3 2.9 6.3 2.9l7.2 21.9 7.7 12.9.4 7.9 6.4 7.1 3.2 2.4 13.8 1.2-.7 3.6-1.6 4.4.2.3-1 3.1-1.8 1.2-7.9-.3-2.1.7-1.8 1.1-2.3 2.1-6.9 10.3-1.1 2.2-.6 2.8-1 2-14.5.5-7 7.5-12.9 5.1-31.8-21.5-39.5-25.1V248c.1 0 5-2.2 5-2.2l3.3-3.2 3.4-2.7h.6l4.4-2.9.7-1.1 3.5-2.4 2.4-1.1h.8l.9-2 2.8.2 2.5-.4 1.3-.6 2.3-2.3 2.1-1h1l2 .8.8-.3 1.7.2 1.9.8 1.3.2 1.9-1.4 1.8-.4 2.1.2 1.9-1.2 1.4.4.4-.5h3l1.9-.4 2.4.5 3.1-.9h1.2l.4-.3h2.1Z"/><path id="DZ-38" d="m249.7 49.7.4-.7h-.5v-.9l.6-.4-.4-.4h1.3l1.2-.7v-1l.4.2.6-1.3.4-.2v.5c-.1 0 1.1.9 1.1.9v.5l.8.8 1.4.6.2-.3 2.2.6.4 1.3.7-.2.2.2.3-.9 1.6-1.5.7-.2.3-.6v1.1l.8.1 1.2-.7.8.2.3-.3.5 1.1h1.4l.9 1.3h.7l.5.3.5-.2v1.3l-.8 1.2.2 1.1-.4.8-.7.3-1-.6h-.9l-.6.7.4 1.5 3.1.8-.8.8v1.4h-2.1c0-.1-2.1.3-2.1.3v-1.1l-1.5.2-.2-.3.6-.3v-.4l-1.1.4-.4.8-1.9.4h-3.2c0-.1-.4.4-.4.4l-.3-.7-.8-.4v.9c.1 0-.2.3-.2.3l-1.1-.3-.8-.9-.3-1-.2.2-.6-.2-.2.4h-.7l-.4-.1v-1.6c-.1 0-.6-.3-.6-.3h-.9v-.5l-.6.3-1.4-1-.3.9.3.2-.4.5.2.4-.5.5-.8-.2-.8-1.6.7-1.2-.3-.2v-.8l.3-.4-.2-.4 1.1-.6.4 1 .8.2 1.3-1.5-1.2-.5.3-.2Z"/><path id="DZ-39" d="m341.4 118.8.8-1.2v-.7l-.8-1.8v-2.4c.1 0-.2-2.7-.2-2.7l-1.1-2.3.8-2.1.2-2.3 1.5-2.4.8-2.7-2.2-2.4-1.7-1.3.8-2L339 91l2.1-1.4-.8-.7 1.2-.7L344 90l13.1 1.8 5.9-1.2 2.9 1.2.7.6h.7l2 .7 1.3 1.5h.9l1.1-.5 2-2.3-.3 1.7.2.7 5.6 3.7 1.7.5.3-5 4.9-.2 4.6 1.9 9.1.9v.8l-1.8 1.3-1.8-.8-1.1 2.4-.8.4h.3l-.2.4-1.2.5.7 1.3-.4 1.2v1.1c.1 0-.4.9-.4.9l.6 2-.6 1.1 1.5 1.2.2 3 .7 1.9 2.9 4.4.8 4 1.1 2.8h1.7c0 .1 5 2.5 5 2.5v1.4l3.1 3.5 1.8 2.8.8 8.9 16.7 11.5-24.6 1.1-18.6 1.2-5.6-7.1-7.9-12.9-3.7-12.8-4.1-12.6-1-8.5-.4.9-.5-1.2h-.8l-1.2.7-.9 1.2-.9.4-.3-.2-.2-1-.8.6v1.5c-.1 0 .9 1.6.9 1.6l.2 1.3-.3.9.3 1.9-.9.4-.2.7 1.2 1.7.3 3-19-.3Z"/><path id="DZ-40" d="m376.7 54.9.8 1.8 4.5-.5.7.6-.5 1.1 1.8.6 1.2-2.2.4.2 1.2-.2.4.3.2-.6 1.9 1.1.2.7-.5.8.2 1 1.2-.3.2-1.3.3-.2 1.4 1.1-.4.4.2.3h.6V59l.4.4.4.6-.2.3.2.5h.8c0 .1.2.8.2.8h.5v.5l-3.6 1.1v.5l.4.5-.4 1.8.8.7-1 .8v.5l1.1 1.8-1.7 2.6-1.5.8-.3 1.3-.5.2-.5.8-.4 1.6.9 2.4.2-1.8-.4.5-.2-.4.6-1.5.8-1 .9.4.5-.2.8 2.7-.9 2.2.7 1.1v1.9c-.1 0-2.7 4.3-2.7 4.3l-.8 2.6-.4 3-4.9.2-.3 5-1.7-.5-5.6-3.7-.2-.7.3-1.7v-.8c.1 0-.5-1.4-.5-1.4l1.4-2.9-.2-3.2.4-.6.5-2-.9.2.5-1.1-.4-.8-.7-.4.5-.5h-1.3l-.9 1.9-1.2.6-.5-1.2v-1.2l.8-.8v-.4l-.7-.2.6-.6-.7-.5-.7-2-.9-.2.5-.9-.4-1.5.4-1h.9l.3-.6v-1.1l-.3-.9v-.3c.1 0 .3.2.3.2v-.9l1.2-.6v-.5l.6-.4-.4-.2-.6.2V65c-.1 0-.3-.6-.3-.6l.4-1-.5-.5v-1.1c-.1 0 1.6-1.4 1.6-1.4h1.7l1-.6.8-1.7-.7-1.7v-1.5h.3Z"/><path id="DZ-41" d="m404.6 32 .8-.3.8.3-.3 1.2.5.8 1-1.4 1.1-.5.6.3.4-.6 1 .5 2.3.2.2.4.9-.5 1.3.8-.2 1.3-.6.7v.9l.4.5-1.2 1.1.4.4v.6l-1.1 1.7.7 1 .2 1.1-1.1 1.7v2.5h-.7l-1.8-1.3v.4l-1.7-.2-1.2.8v-.3h-1.4v.4c-.1 0-.7.3-.7.3v.5h-.8l-.9 1.3-.6-.2-.4.5-1.4-.7-.6-1.1-.2.3-.7-.3v-.3l-.5 1.5-.9.5.3.8-.5.2.5.7h-.6c0 .1-.5-.2-.5-.2l-1.5.6-.6-.3.2-.9-.4-.3.3-.4-2.9-1.2v-.9c-.1 0-1.1-.6-1.1-.6l-.7-1.3v-1.1h-.7l.2-.9-.5-1.7-.6-.4-.2-.6.6-1.5 3.2.8 2.8-.9 1.3.4 1-1.1.3.2.8-.4.4-.9.8.4 1.7-.5.4-.5-.4-.9-.8-.7.3-1.5 1.1.5.8-.9 1.3-.7Z"/><path id="DZ-42" d="M283.1 25v.7l.4.3-.6.3.3.3.5.7-.4.7h-.9v.3l-.9.4-.3-.3-1.5 1.3-.3.6h-1.2c0 .1.5 1.1.5 1.1l-.5.7-.8-.3-.7.2-.3-.3-.4.5.3.3-1.1.8-1.6-.4-3.7.4-.3-.5-.6.2v-.2l-2.2-.4-1.3.9-.9-.2-.2.3h-1c0 .1-.7-.4-.7-.4h-3.2l-.5-.4-.4.4v.9l-.9.4-.7.8-.6-1.9-1-1.1v-.5l.7-.4v-.7l.5-1.2 4.3-.4.8-.4.8.3h1.8l7.6-2.3 1.3.3v.9c.1 0 .5.3.5.3h3.1l2.1-.7 1-.9 2.8-1.5Z"/><path id="DZ-43" d="m352.2 29.2.6-.4h.7l1.5.9.3-.5h1.4l.8-.9v-.6c-.1 0 .7-.4.7-.4l.9.3.5-.2.3.4h1.5l.3.4 2 .3h.5l.3-.9 1.4-.4.5.3v.5l1.7.3.7.6.6-.2 1.1-.2-.3.5.2 1.3-1.1.6h-1c0-.1-.8.3-.8.3l-.8-.2.2.8-.3.6.3.9-1.1 2.1 1.5-.4.2.7 1 .4.2.5-.6.6.3 1 .6.2 1.2-.3.2.6.8.3v.4l-.3.1.5.6-.3.4h-1.2v.4l-1.5.5-.4.8v2.3l-1.4 1.7-.9-.2.2.9-.8-.6-1.9.2-.4 1h-.5l-.1 1.3-.2.2-3.1-.6-.4.2-.2-.4-.6.4v-.4l1.4-1-.9-.5v-.6l-.4-.3.8-.7-.4-2.1.2-.3-1.9-.5v-2.1l.8-.7h.3c0 .1-.7-1-.7-1l-.9-.4-.2-.9-.5-.3.2-1.3h-.8l-.8-.5.3-.4v-1.1l-1.1-.4.2-.2-.5-.5.2-2.3-.6-.8Z"/><path id="DZ-44" d="m255.7 32.1 1 1.1.6 1.9.7-.8 1-.4V33l.3-.4.5.4h3.2l.7.4h1c0-.1.2-.4.2-.4l.9.2 1.3-.9 2.1.4v.2l.7-.2.3.5 3.7-.4 1.6.4h.7l.3.9 1.2.2-.5.4v.2c.1 0 1.4.2 1.4.2l.2.4-.9.7h-1.5v1l-.8 1.1.8.2-.4.5.5 1.1.5-.2.4.5h.6l-.3.5.6.4-.4.4v.8l-.5-.2-1.6 1.4-1-.3v1.3l-.2.8.2.3-.4.7-1.1.3-.2-.4h-.9l.5.5v.5l-.5.6-.7.2v.5h-.1l-.5.2-.5-.4h-.7l-.9-1.2h-1.4l-.5-1.1-.3.3-.8-.2-1.2.7h-.8v-1.2l-.3.6-.7.2-1.6 1.5-.3.9-.2-.2-.7.2-.4-1.3-2.2-.6-.2.3-.2-.6.4-.3-.3-.5.4-.5-1-1.1h-.5l.3-.3h-.3l-.7-1.4.3-1.2-.9.2-.8-.8.2-.2-.2-.3.4-.2-.4-.6h.7l.8-1h-.3v-.5h-.4v.2l-.3-.4-.8.3-.4-.2.8-.4.5-.9-.9-.4-.8-1.4v-1.3c.1 0 1.2-.7 1.2-.7h.7l.7-1.1Z"/><path id="DZ-45" d="m190.4 94.8.7.6.5 1.2 2.3-1.8.7 1.1.4-.5 1.2.7 1-.2 1.1.5 4.4-2.9.7.7 1.4.4.6 1.2.4 3 1.5 2.5.3 1.7.4.5-.3.8.6.3.2.8.3-.2v-1.1l.5-.3.4.3.6-1.5 1.7-1.7 1.8-.8 1.5.2.5.8-.2 1.1.3.5-.4.3 2-.9 1.2.8-.2 2.9.8.3.8 2h.8c0 .1-2.3 1.4-2.3 1.4l1 3.3-2.3 8.8.2.3-.5 3.5-.5 1.9.2 1 .8.7v1l-.9 1.1.7.5-.6 1.7-1.7 1-.3 2 .9.5-.3 1.2 1.1 1.2-.4 1.7.5 2.6-1.2 2.9-2 3.4-1.7 2.6-2.6-.5-1.9 1.5-7.4-1.9-6.2 3.5-.4-1.7h-1.5l.5-3.1h-1.5l-.3-.9v-1.8l1.4-1 1.6-1.6v-.4l-6.3-4.9-2.6-1.2-3.8-6.1 1.4-.5.6-1.9-.2-.8-2.5-2.2-.6-1.6-1.6-2.1v-2.8c.1 0 1-1.9 1-1.9v-1.2l.9-1.1-.4-.8.2-1.4-.8-.7-.5-1.4h-1.3c0 .1-.7-.5-.7-.5l.2-1 1.4-1.1-.7-2.8 1.1-6.3 3.9-3 4.1-.4 1.4.3.8-.5.5-1 1.7-.6Z"/><path id="DZ-46" d="M191.9 55.8h.4v.5c-.1 0 1.2 1 1.2 1l-.2.8.9-.3.2.3-.4 1.2-1 .3v1.1c-.1 0 .2.6.2.6h.4l-.4-.7h1l-.5-.5.2-.2h.4l.5.7.9-.4.9.4 2.8-1.4 2.8-.6v.9l.1.5h.3v.9h.3l.2 1h-.4l.1.2-.5.4.4.4-.4.8-3.2.6v.8l-1.1.5-.8-.7-.8.7-.2 1-.7-.2.4 1.5-.2.6-1.5.5.2.2-.5 1.4-.9.5h-.8l-.3-.9-1.2-.2-.6-.7h-.9l-1.2-.9-.4.4-.4-.8h-1c0 .1-.2.5-.2.5l-.3-.4h-1l-.2-.3h-.9c0 .1-.2-.1-.2-.1l-1 1.5-1.2.3-.6-.7h-.6l.2-1.1-1-.7.8-1 1.1-.2 1-.9h1.8c0 .1 1.3-1.1 1.3-1.1l1.1-.2 1.2-2.4 1.1-3.6v-.4h.9l1.2-1.5 1-.4Z"/><path id="DZ-47" d="m270 136.4 11.8-.9 3.2-1.2 2.7-.5 9.3 2.3-.3-3.2-4-2.5 8.6-.3.4-.5.6.2v-.6c.1 0 .6.4.6.4l.5-.8.3.6 1-.4.4.5.9-.2 1.3.4.3.5.8-.4 14.3 1.3 12.9 3.8-5.8 10-7.5 7.7-.8 6-.5 12.3-3.6 8.7-11.9 38.9-1.7 1.1-.3 1.4-7.1 13.4-8.7 3.7-11.7.9-10.8 3.9 1.2-5.1-4.4-25.1 2.4-9.9.5-4.2.8-30.7 5-5.5-.7-9.3 2.8-1.8-2-8.4-.6-6.7Z"/><path id="DZ-48" d="m233.3 39.5 2.3.3 1.2-.9v.5l1.2-.5.4.6v1.6h.7l-.3.2.3.6-1 1.1.6-.2v.7c-.1 0 .2.3.2.3l.2-.2.2 1.5h.7l.8-.8h.5l-.4.3.4.3.3-.2.6 1.3h.7c0 .1 1 1.1 1 1.1h.9l2.3-.9 1.9 3.4.5.3-.3.2 1.2.5-1.3 1.5-.8-.2-.4-1-1.1.6.2.4-.4.4v.8l.4.2-.7 1.2h-.7c0 .1-.2.7-.2.7h-.7l-.6 1.1-.9.2v-.4l-.9.2-.5-.2-.2 1h-.9c0-.1-.1.9-.1.9h-1.4v.8h-.7v.4h-.4l-.8 2.1h-.8c0-.1-.2.2-.2.2l-1.9-.6-.4.2-.3-.7h-1.9c0 .1-.3-.5-.3-.5l-.7-.4-1-.2-1.1.3-.6-1.1-.8-.4v-.5l-1.1.7v-.6c-.1 0-1.4.7-1.4.7l-.7-.2v-.6h-.6l.3-1.1-1.1-1.3v-.9l-.6-.2.4-1h1l-.4-.6.9-.8 1.2-.6.8.4.4-.4v-.3c-.1 0 1.1-.9 1.1-.9l.2-.7-.5-.3.6-.6-.2-.4.2-.2h-.8v-.9h-.3l.9-1.1.8.5.5-.4v.5l.7-.7.3.3 1.5-.7.5.2v-.8l-.4-.2.7-.8-.7-.2-.7-1.3.5-1 .9-.2v-.7l.8-.4v-.5Z"/></g></svg>