<svg xmlns="http://www.w3.org/2000/svg" xmlns:amcharts="http://amcharts.com/ammap" id="Layer_1" viewBox="0 0 512 512"><g id="_x3C_defs"><amcharts:ammap bottomLatitude="-18.043" leftLongitude="11.67" projection="mercator" rightLongitude="24.083" topLatitude="-4.372"/></g><g><path id="AO-BGO" d="m111.7 124.3 11.1.6.7.8v.8l2.9 2.3 2.8 3.5 4.2 2.1 2.5.2 5.3-1.1 1.7.2.8.7v6.7c-.1 0-2.6 4.1-2.6 4.1l-.5 1.7v1.8l.6 2-2.3 1.2-7.5-.2-3.7 2.4-.4 2.2 2.7 3.1 1.2 3.3v1.7c.1 0-1.2 2.3-1.2 2.3l-2.5 1.8-2.6 1-3.3.2-1 2.3 2.4 1.5.3 1.8-.6.8-2.5.9-.3.9.8.8h2.7l.8.6.5.8-.8.8v.8c-.1 0 1.4 1.6 1.4 1.6v.9c-.1 0-2.1 2.2-2.1 2.2l-.5 2.5-1.6 3.7 1.2.5.8 2.7 1.7.8 2.4-.2.9 1.6 1 .5 3.1-.3 2.3 1.2.7 1.3 1.8 1.2 1.3-.6.5 7-1.8 2.3 1.9 4.6-1.3 1.4.6 1.7 1.6 1.3.4 1.6-.9 2.4-1.6 1.9-2.6-1-2.8-3.3-1.7-.2-2.4-1.2h-3.4l-1.7.9-2.2 2.3-2.9 1.4-2.1-1.4-3.8.5-.2-.6h-2.2l-1.3-.7h-.4l.3.7-.7.2-2-3-3.1-1.3-.3-1-1.5-.4-.9 1.1-1.5-2-.6-2.3-4.5-5 1-1.1-1.1-2.2v-.9l-4.2-6.5 1.5-1.8-1.6-2.8.5-1.2-1.3-2.2.3-1.9-1-2.3.6-1 .7.3.3-1.3h.5c0-.1.5-1.3.5-1.3l.4-1.7 3-2.1 2.6 1v-.9c.1 0 3.2.3 3.2.3l-.3-3.4 1.1-3.4 1.1-.8v-2l2.8-1.5h1l-4-7.4-1.6 1-2.6-1.7-1.1-1.6-.9-4 1.5-.5v-2.8l-4.4-7.4v-1.4l-1.8-2.2-2.4-5.8-1.8-2.6 1.3.5.8-1.1h-1.7c0-.1-.6-.8-.6-.8l3.2-.6 2.7-1.8 1.4.5.8-1.2 3.1-.9 2.4 1.6h1.7l.8-.6 3.2-.6 1.1-.9h2.6l3.4-2.1Z"/><path id="AO-BGU" d="m110.7 273.4 3.8-.3 2.5 1.1 2.5-.8 1.8.4.5 3.5.5.8 2.7 1.2 1.7 2.4 1.8-.8 2.8-3.9 2.6-1.4h1.7l4.2 5 2.1 4.3 3.4.4 2.5-.9 4.2 2 .8.5.2 1.7 1.6.3v5.5c-.1 0 1.3 3.4 1.3 3.4l-.5.8.9 1.6-.7 1-4.5 1.2-1.3 1.7-3.4 2.1.9 1.8-.6 1.7 1.4 2.7v1.7l2.6 4.3.6 3.5-.9 2.6 2.6 4.5 2.4 1.1.8 1.6 1.5.6-.7 3.2h-1.4L153 337l-2.4-.9-4 4-3.5 1.3-1.7.5-4.6-2.2-.8-.2-.9.5v1.6c.1 0-.7.3-.7.3l-3.5 7.2-.8.3h-4.3l-4.5-1-1.7.5-3.5-1.3-3.4 1.3-3.4-.6-1.6-1.3h-.8l-4.2 1.6h-1.8l-2.5-1.1-1.6.9-.9-.5-1.1-2.6-2-2.6v-1.6l.7-1.7-.2-.9-.8-.4-7.6-1.6-.6 1.7-5.7 2.2-2.3-1.7h-1.8l-5.8-1.7h-2.5v-.9l-.6-.2.2-1.5-.5-.2.2-1.2h.5c0 .1.2-.6.2-.6l.5.4.8-.5.9-1.4 1.4-.7-.5-1.8h.7l-.5-.2.4-1.4.6.5 1.2-.7v-1l.8.8.8-1.2h1.2c0-.1.4-1.3.4-1.3l-.5-.3 1.4-.9.3.3.4-.9 1.2-.4 1.5-2.7 2.2-1.7-1.4-4.1v-1.3l7.1-6 .4-1.2 1.5-1.2h.4v.4l1.2.4 1.1-.8v-.6l1.3-.1.7 1.1h.8c0 .1 4.7-3.6 4.7-3.6l.4-1.2-.3-.8 1.4-3 1.2-1h.9l2.7-3.7.8-3.6 1.2-1.5.6-4.2 1.3-1.2 1.2-6.7Z"/><path id="AO-BIE" d="m210.8 230.1 1.1 1-.8.7.3 1.1 1.1.2.3 1.1 1.9.6 2.1 2.3 1.6.2 2.4-.5 3 .5 4.6 2.4.5-1h1.6l.2 1.2 2.1.7h2.2c0-.1 2.9 2.4 2.9 2.4l.4 2.8 1.1.9 1.5 3-.3 2.1-1.2.3-1 1 1.2.8 1.5.2.5 2.7 1.8 2.6-1.2 3.5 1.2-.3.3.7-1.7 1.8 1.4 3.5-.8 1.7 1.9.6 1.5 1.1 2.1-.6 1-1.6 1.6-.4.9-1.6 3.4-2.9V261l-.5-2.4 2 1.7.8 1.7.3 2.4 1.6.3 1.6-.4 1.5 1.4 1.3-.7 2.5.5 4.6-1.1 1.8.8h2.7l1.6-.8 2.9-3 3-1.4 4.5-1.4 3.2.3.4-.8-.5-2.1-2.3-2.2.7-2.8-1-1.5-.3-1.7.8-2.6-.3-.8 8.7 5.1 2.8 3.3 4.4.8 1.2 2.5-1.3 1.8-.8 4.1-1 .3-2.3 2.6-.9 4.7-.8.8-3.3.5 1.1 2.2-.5.8-1.7-.3-1.1 3.2-1.5 1.3-.2 1.8 1 1.8v1.3l-5.4 5.1v.8l.7.7-.2.9-.6.8-1.9.4-2.4 2.5-2 .3-3.7 3.4-.7.8v2.6l-4 4.7v2.5l-1.6.9-2.7 2.6-.5-.8-.9.8 1.5 4.2-.3.8-1.7 1-.3 1.6-2.5 1.1.5 1-1.3 1.7 1.9 3.3.2 1.7-.2.8-2.8 1-2.4 2.1 1.4 2.7-1.2 2 .5 1.6-.9 3.1-.9.7-4.3.5.9 2.7-.2 3.3-1 2-4.8 3.2-3.5.7-1.4-.2-1.3.7-1.9 2.7-2.3 1.7-.2 2.6-1.4 2.2.4 1.1-.3.2-3.4-1-1.2-1.6-1.6-.2-3.5-2.5-.8-3.6-1.9-2.5-1-.5-1.1-.2-2.6 1.8-4.2-2.4-3.4 1.5-4.3-.3-.8.4.4-5.3-.5-2 1.8-5.5.3-3.2V336c.1 0-.5-2.8-.5-2.8l.4-2.2.5-7.3-1-4.9-.3-9.9-5-2.3-.3-1.9-1.5-1-.4-.9v-1.7l2.5-1.7.2-.8.4-3-1.2-1.8-.5-2.5 5.2-4.3 1.1-3.3 2.2-2.9v-2.5l-3.4-3.1-.7-2.7-2.6-1.4v-1l-1.6-.9-.9-1.5-1-4.7-3.3.2-.8-.8h-2.6l-1.6-1.3-.9.3-1.5 1.4-3.4.5-5.1-1.8 1.6-3.4-.2-2.6 4.3-6 1.6-5.9 2.4 1.8h.9l1.6-.9 2.5 1.2h1.6l3.7-6.1 5.4-2.9 1.3-2.1 2.1-.9 1.1-1.9-.4-1 .8-.8Z"/><path id="AO-CAB" d="m75 9.7.7.7 3.2-.4v2.1c.1 0 3 2.6 3 2.6l1 1.8 3.2 1.9v1.2c.1 0-.7.3-.7.3l-.9-.4-4.8 1.9-2.1.2-1.7 1.7-.8 1.6.3.5-2.5 2-.4 1.6h-2.8l-.4 2.6-3.6 1.6h-1.8l-.3.9.6.8 1.8.8v21.2l-9.7.3-2.1.9.3.9-1.6-2.4-.9-3.1 1.3-3.2 1 .3.7-.5-.2-2.9-2-4.8.4-.5-1.6-2.6v-1.5l.5-.3-1.3-1.2.7 1.5-4.2-6 5.8-4.7 1.3-4.6 1.6 1.8h1.7c0-.1 2-2.1 2-2.1l3.5-5.6 5.7-1.3 1.7-2.7h3.5l-1.2-1.7V9.5l.9-1 1.5.9Z"/><path id="AO-CCU" d="m258.8 338.5 9.8 5.7 3.2-.5 5 3.3.8.3 1.7-.6 3.4 2.7 1.2.3.3 1 2.2 1.9.3 1.2 1.8 2.6-.2 1.5 1 2.8-.2 1.9.8 1.7.7.4v1.1l1.6 2.6 1.8.7 4.4-1.4 5 2.7-1.3-5.8 1.9-1h1.6l1.6 1.4 3.6.5 4.1-.9 1.2 2.4 1.9 1.6.4 2.1 1.1.9 1.1 2.9 1.6.9.3 1.1 4.9 4.1.5 1.1h.8v.9h1.1c0-.1 1.2.7 1.2.7l1 1.7 2.5 2.5 2.9 1.6 3.6 1.4 2.7-.3 3.3.8 2.1-.9 2 .5 1.7-.8 1.2.3 1.4-.7 1.4 1.1 3.4.7.7-.8h.8l1.3 1.2 1.5-.3 1.3 1.3 1.8.5 3.4 4.2h1.7l-.3 1.1.5.6h1.7c0-.1 1.2.6 1.2.6l1.1 3.4 1.2 1.3 1.9 1.2 1.7.2 1.1.9.6 1.4v3.1l1.6.8.6 1.4 1.2.9-.2 1.6 1.1.9 1 2.6 1.5 1.5 2.3.8v2.2l1.7.7.7 2.1 1.1.9.6 2.7 6 3.9v1.3c.1 0 2.7 2.2 2.7 2.2l-.2 1 1.7 2.5.8 4.4.5.7 2.5 2.8 1.3.4.7 1.4 1.2.4 1.4 2.3 5 4.4.7 1.5 2.4 1.8 3.9 4.2v.7l1 .3.6 1.3 1.9 1.5.7 1.1v.9l3.3 1.3 3.8 3v.6l1.8 1.4.9 2.4 1.6.7.5 1.5 1.5.4 2 2.6 3.5.2.9.9h1c0 .1 1.1 1.2 1.1 1.2l.2 1-71 14.3-1.8-.6-.9-.9-3.1-.7-1.8-1.3-8.5.9-3.9 2v.9l-1.9.3-2.3-.7v-.6c-.1 0-1.7.3-1.7.3l-2.1-1.4h-4l-2.2-1.1-.7-1.2-3-.7-1.9-1.2-.9.5-.8-.4-1 1-2.5-.5-2 1.1-1.9-.8-1.2.5-2-.4-2.1-1-1.3.7-2.8-.3-1.7 1.4-1-1.2-.6.3-1.5-1.3-3.3.7h-5.9l-1.2-.8-1.6.2-.8-.9-2.1-.5-.8.4-2.9-.7-1.2 1-7-.6-1.6-.5-.9-1.1-1.6-.3-.8-1.1h-.9l-.7-.9-3.8-2.8-.3-1.2-.6-.7-1.2-.2-1.9-3.1-1.2-.6-.3-1.2-1.7-2.2h-40.9c0-.1 1-5.5 1-5.5l-2.9-9.4v-4.2l.4-4.7 2.1-4 .9-3.6 2.5-2.5 1.1-3.7V437l-1.1-6.8v-5.8c.1 0-.7-1.7-.7-1.7l-2.4-2.2-4.7-9.1-2.5-.7-.7-.8-.6-2.5-.7.4-.5-1-2-.6-1.6-1.4v-1.2c-.1 0-2.6-1.8-2.6-1.8v-1.5l-2-1-.6-.9.4-1.1-1.3-.6-1.7-2.3.6-1.3-.2-1.3-1.9-2.6.3-3-.5-2-1.4-1.4.9-2.1-2-.6.3-.8h-.8l-1.9-1.9.2-7.4-1.1-2.4-.6-3.8.8-1.3.5-3.1-.8-2.6.5-1.5-.5-1 .8-.4 4.3.3 3.4-1.5 4.2 2.4 2.6-1.8 1.1.2 1 .5 1.9 2.5.8 3.6 3.5 2.5 1.6.2 1.2 1.6 3.4 1 .3-.2-.4-1.1 1.4-2.2.2-2.6 2.3-1.7 1.9-2.7 1.3-.7 1.4.2 3.5-.7 4.8-3.2 1-2 .2-3.3-.9-2.7 4.3-.5.9-.7.9-3.1Z"/><path id="AO-CNO" d="m141.3 150.7.5 1.4 1.3-.2 2.7.7 1.7-.7 3-4.1 1.8.2 1.8 1.2 1.9-.9 2 .2.5-1.5h.9l1.5-2v-2.2l.8-1.2-.7-1.2h-.9l.9-2.1-.3-1.9 3.3-.8h4.3c0-.1 1 .5 1 .5l.6.9.2 2.4 1.3.5 3.3-.6 1.3-1.2h3.3l2 1.4-1 .9.5 1.3 1-.3.5.5.2 3.5.4 5.9.5.7-1 1.1-4.6 1.1.2 1.6-2.4 3.3 1 2.1 2.6.6.8 1.8-1.1 1.6-1.3 4.1-1 5 .4 2.5-.3 2.1-1.2.8-2.4.2-2-.7-4.4 2.4-2.8.4-1 1-.5 3.4-4.4.6 2.1 1.5.4 1.7-2.5 2.2v.8l1.4 1.4.4 2.6-.2.8-1.9 1.6h-1l-1.4-1.1-3-.6.3.9-.7.7-2.7-.2-3.2.5-1.4 1.2-3.9.5-2-.4-1.3.5-1.8-1.2-.7-1.3-2.3-1.2-3.1.3-1-.5-.9-1.6-2.4.2-1.7-.8-.8-2.7-1.2-.5 1.6-3.7.5-2.5 2-2.2v-.9c.1 0-1.4-1.6-1.4-1.6v-.8l.9-.8-.5-.8-.8-.6h-2.7l-.8-.8.3-.9 2.5-.9.6-.8-.3-1.7-2.4-1.5 1-2.3 3.3-.2 2.6-1 2.5-1.8 1.3-2.3v-1.6c-.1 0-1.3-3.3-1.3-3.3l-2.7-3.1.4-2.2 3.7-2.4 7.5.2 2.3-1.2Z"/><path id="AO-CUS" d="m138.4 201.3 2 .4 3.9-.5 1.4-1.2 3.2-.5 2.7.2.7-.7-.3-.9 3 .6 1.4 1.1h1l3.7 2.6 4.5.4 4.6-1.1h10.7l1.6-2.3h.9c0-.1 2.5.6 2.5.6l3.5-.5 6.3 1 1.3 1.6.5 1.7 2.3 1.3.6.8-.3 2.2 1.5 2 .2 2.2.9 1.9-1.9 2.3.5 2.7 1.9.6.9 1 .9 1.1v2.5l1.5.4 4.1 5.2-.8.8.4 1-1.1 1.9-2.1.9-1.3 2.1-5.4 2.9-3.7 6H195l-2.5-1.2-1.6 1h-.9l-2.4-1.8-1.6 5.9-4.3 6 .2 2.6-1.6 3.4-1.3 1.2-6.7 1.1-1.6 1.1-2.6.6-1.6 1.2-.3 2.7 1 1.4v1.7c.1 0 1 .6 1 .6l-.5 2.3-.9.6.7.8-.6 2.6.5.9-2.7-.2-2.1 2-.9-.3-1.8 1.1-2.2.3-1.5 1.5-1.8 4.4-1.6-.3-.2-1.7-.8-.5-4.2-2-2.5.9-3.4-.4-2.1-4.3-4.2-5.1h-1.7l-2.6 1.5-2.8 3.9-1.8.8-1.7-2.4-2.7-1.2-.5-.8-.5-3.5-1.8-.4-2.5.8-2.5-1.1-3.8.3-.4-5.7-.7-1.3.6-.9v-1.9c-.1 0 .7-3.7.7-3.7l-.3-1.9 1.2-1.3-.2-2.2 1.4-8.5-1.3-3.9-3.9-5.3.9-.3 1.3-2.3-5.7-7.3-3.3-3.3.6-1-.2-1.1-.6-2.1-1-1.1.9-1.1 1.5.4.3 1 3.1 1.3 2 3 .7-.2-.3-.6h.4l1.3.7h2.2l.2.6 3.8-.5 2.1 1.4 2.9-1.4 2.2-2.3 1.7-.8h3.4l2.4 1.2 1.7.2 2.8 3.3 2.6 1 1.6-1.9.9-2.4-.4-1.6-1.6-1.3-.6-1.7 1.3-1.4-1.9-4.6 1.8-2.3-.5-7Z"/><path id="AO-CNN" d="m99.5 436.8 5.1 4.6 1.6-.5 3.6-2 4.4-6 1.1-.2 2.1 2.1 1.6.3 2.7-3.3 4.7-1 .8-.9 4.1-2.1 5.4-5.8 2.5.7 2.6-.4 10.2 2.4 2.4 2 .7 2.5 4.3.7 1.2-2.5 2.1-2.4 2.5-5.9 2.2-2.2 3-6.1 5.2-3.9h1.1l2.6-1.7 1.6.3 2.4-.5 2.1.8 5.1.3 3.6-.9 2.7.5 5.5-6.6 1.7-1.3 4.3-1.6 3.4.6h4l1.3.6-.4 1.1.6.9 2 1v1.5l2.4 1.8v1.2c.1 0 1.8 1.4 1.8 1.4l2 .6.5 1 .7-.4.6 2.5.7.8 2.5.7 4.7 9.1 2.4 2.2.8 1.7v5.8c-.1 0 1 6.8 1 6.8v4.6l-1.1 3.7-2.5 2.5-.9 3.6-2.1 4-.4 4.7v4.2l2.9 9.4-1 5.3-6 .3-103-.6-.3 1-1.9.8-1.4-.3-.6.6-2.7-.8-2.2.5-1-.6-.5-1.4-1.2-1-7.2-3.9-1.5-1.6-4.4-2.5.4-1.6-1.9-2.6-3.2-1.6h-1.1l-1.4-3.8-5.2-5.2-1-1.8.7-1.7 2.5-1.5 1.3-1.8-.7-1.7-1.5-1.4.8-1.3 1.6-.6.8-1.2h1.1l.6-1.2.4.5 1.7-1 2.9-3.3Z"/><path id="AO-HUA" d="m180.4 261.6 5.1 1.8 3.4-.5 1.5-1.4.9-.3 1.6 1.4h2.6l.8.7 3.3-.2 1 4.7.9 1.5 1.6.9v1l2.7 1.4.7 2.7 3.3 3.1v2.5l-2.1 2.9-1.1 3.3-5.2 4.3.5 2.5 1.2 1.8-.4 3-.2.8-2.6 1.7v1.7l.5.9 1.5 1 .3 1.9 5 2.3.3 9.9 1 4.9-.5 7.3-2.7.4-2.4-.8-2.7.8-.9-.5-.4-.9h-.9c0 .1-1.9 1.1-1.9 1.1l-1.7 2.7-2.5.4-2.4-2h-1.7l-7.3 8.1-3.4 1.4-1.3 2.3-3.5 1.7h-.8V341h-3.3c0 .1-1.3-1-1.3-1l-.4-5.3-1.5-2.5-.8-.4-5.1 1.3-1.6-.6-1.5-.6-.8-1.6-2.4-1.1-2.6-4.5.9-2.6-.6-3.5-2.6-4.3v-1.7l-1.4-2.7.6-1.7-.9-1.8 3.4-2.1 1.3-1.7 4.5-1.2.7-1-.9-1.6.5-.8-1.4-3.4v-5.5h.1l1.8-4.4 1.5-1.5 2.2-.3 1.8-1.1.9.3 2.1-2 2.7.2-.5-.9.6-2.6-.7-.8.9-.6.5-2.3-.9-.6v-1.7c-.1 0-1.1-1.4-1.1-1.4l.3-2.7 1.6-1.2 2.6-.6 1.6-1.1 6.7-1.1 1.3-1.2Z"/><path id="AO-HUI" d="m157.7 332.6 1.6.6 5.1-1.3.8.4 1.5 2.5.4 5.3 1.3 1.1h3.3v4.5h.8c0 .1 3.5-1.5 3.5-1.5l1.3-2.3 3.4-1.4 7.3-8.2h1.7l2.4 2.1 2.5-.4 1.7-2.7 1.9-1h.9c0-.1.4.8.4.8l.9.5 2.7-.8 2.4.8 2.7-.4-.4 2.2.6 2.8v2.7c-.1 0-.4 3.2-.4 3.2l-1.8 5.5.5 2-.4 5.3.5 1-.5 1.5.8 2.6-.5 3.1-.8 1.3.6 3.8 1.1 2.4-.2 7.4 1.9 1.8h.8l-.3.9 2 .6-.9 2.1 1.4 1.4.5 2-.3 3 1.9 2.6.2 1.3-.6 1.3 1.7 2.3h-4l-3.4-.6-4.3 1.6-1.7 1.3-5.5 6.6-2.7-.5-3.6.9-5.1-.3-2.1-.8-2.4.5-1.6-.3-2.6 1.8h-1.1l-5.2 3.8-3 6.1-2.2 2.2-2.5 5.9-2.1 2.4-1.2 2.5-4.3-.7-.7-2.5-2.4-2-10.2-2.4-2.6.4-2.5-.7-5.4 5.8-4.1 2.1-.8.9-4.7 1-2.7 3.3-1.6-.3-2.1-2.1-1.1.2-4.4 6-3.6 2-1.6.5-5.1-4.6.9-.5 1.2-2.3-1.8-4.3 4.1-8.3-1.9-3.4.2-8.8-2.7-1-1.7-1.3-.5-.8.5-1.8-.5-1.7-1-.2-.4.8-1.7.7-.8-.9v-2.2c.1 0-2.6.3-2.6.3l-.8-.7v-.9l2.6-1.5.3-.9-2.1-2.5 1.7-2.6-.9-3.6 1.4-1.6 1.7-.3 3.3-2.9 4.8-2.6 1.8-4.2.2-3.5 2-2.7-.5-4.6.3-1.8-.8-.4-.8.4-.8-.6-.3-.9.6-1.8-1.4-3.4 2.1-4.5-.3-.9-1.6-1.1-.6-2 4.2-1.7h.8l1.6 1.4 3.4.6 3.4-1.3 3.5 1.3 1.7-.5 4.5 1h4.3l.8-.2 3.5-7.2.8-.3V341c-.1 0 .8-.5.8-.5l.8.2 4.6 2.2 1.7-.5 3.5-1.3 4-4 2.4.9 2.6-1.5h1.4l.7-3.2Z"/><path id="AO-LUA" d="m99.2 162.1 1.6-1 4 7.4h-1L101 170v2l-1.1.8-1.1 3.4.3 3.4-3.1-.3v.9c-.1 0-2.7-1-2.7-1l-3 2.1-.4 1.7-.5 1.2h-.5c0 .1-.3 1.4-.3 1.4l-.7-.2-.6 1-5.5-9V175h.8-.6c0 .1.5 2.6.5 2.6v-.9c.1 0 1.3-1 1.3-1l1.8-3.3h1.6l.4-1.8 1.5-1.7.5-1.8 2-.5 1.2-1.5 2.2.7.8-.6 1.1-3.1-.2-1.5 2.3 1.5Z"/><path id="AO-LNO" d="M348.4 99.1h5.5l-.3 2.2-1 1.1-1.6 4.9v4.9h44.1l1.4 1.6.7 2.1-.3.6.9.8-.4 1.2.5.6-.7 1.6.6 1.3-.2 1.7-.7.6-2.1 5.5v4.2l-.8 1.6 3.9 7.3 1.1 1.1-.3.8.7 3.4 1.2.8-2.8 1.6-1.6 2.6-2.7-.3-3.5 1.3-2.4 3.1-6.8 1.2-3.5-.9-1.8.8-2.5-.3-2 1.1-2.6.2-3.3 1.7-.7 1.6-3.5 2-2.3 3.7-1.4 4.5-1.7 1-2.7.3-2.8 2.1-3.5.8-1.2 4-.7.8-.8.6-4.4.6-8.1 6.9-1.2 9-1.6 2.8-2.5 2.7-.9.7-5.9 1.2-2.6 2.2-4.6.6-3.6 3-4.1 1-2.3 2.5-2.7 1.3-1.8.7-5.9.8-2.7 3.2-4.3 1.9h-7.5l1 1-.5.7h.9l.9.8-2.6 1.3-1 1.6 1.5 2.2-.9 1.7-4.3.3-4.9-2.3-3.2-2.7-3.2-.8v-.8l-1.6-2.1 3.7-3.4v-1l-2.2-1-1.4-1.5-.8-2.1-.9-.5v-1.8c-.1 0 .4-1.5.4-1.5l-1.5-2.2-.2-1.2-1-.3-.7-.8-1.2-3.8-3.4-1.6-2.7.4-.6-.8v-1.6c.1 0-.9-1.6-.9-1.6l-3.2-.8-.8-.6-.5-1.6-1.7-.3-.5-.8v-2.5l-1.6-2.4-1.2-4.2 1.7-1.4 5.9-1.8.7-1v-1.7l1.4-2.5-1.2-4.3 1.1-5.6V158l-1.7-1.1-.9-2.8.5-2.5 1.2-1.6-.5-.6-.5-3.4v-1.5c-.1 0 .4-.9.4-.9l-1.1-1.3.4-1 .9.7h1.8l3.9-1.1 2.7.5 3.1-1.1h2c0 .1 1.5 1.2 1.5 1.2l.6-.5h3.6l-.5-1.1.4-1 1.3-.2.6-.9 2.3-.7h2.7l.5.2v.7c-.1 0 2.4.5 2.4.5l.8-.5-.3-.5h4.9l.2-2.8h8.8v1.5l.8 1.3 20.4-.2-1.1-3.4.8-1.4v-1.8l.8-1 .8-2.9-1.5-4.2.4-.5h3.3l.7-1.3-.3-1.1 1.3-1h1l-2-3.8.3-.4-.6-1.5.6-3.7-.3-1.1 1.3-3.2 1-1.1-.7-2.1h27l.5-3.1h5.5Z"/><path id="AO-LSU" d="m400.8 153.2.6 2.5-.6 1.2v1.2l-.7 1.2.5.5-.8 1.2-.5 2.6.2 1.7-1.5 5.1-.4 4.1.4 1-.7.6.7 5.7-2.5 6.9 1.5 1.6-.2 1.2 1.4 2.5.3 3.1 2.1 1.2 1.5 2.8 1-.4.3 2.3 2.2 2.2.8.3.7-.4 2.7 1.9.6 2.2-.4.4.7.8.6 6.7 1.6 1.8v1.5l1 .9.8 2.1-1.3 4-.5.4 1.3 1.1v2.5l-1.5.6h-1.6l-3.1-1.3h-2c0-.1-1.6 1.3-1.6 1.3H396c0-.1-1.9 2.9-1.9 2.9l-.3 4.3-2.6 2.4-.7 4.1 1 2h.8v2.9l-4.1 1.6-1.6-.2-.4-.5v.4c-.1 0-1.1-.2-1.1-.2l-.7 1.3h-2.1c0 .1-.7.8-.7.8l-1.6.2-2.3 1.2-2.1.3-.4 1.1-1.4.9-.9 1.6-1.4.5-.7-.3-2.3 1.1.5 1.5-1 .9-6.4-.6-2.3-.9-1.1.3-.7-1.2-1.5.2-1.8-1.2-1.9-.4-.6-.9-2.2-.3-3.1-2.3-1.7.6-1.5-.4-.7-.8-2.1-.4-2-1.5-.8.2-2.3 2.7h-1.2l-1.4-1-2.2.2-1.5 1.5h-.8l-.7-1.4-1.2-.5-1.2.6-.6.9-2.4.6-3.5-2h-1.2l-1.1.5-.6 1.4-1.5 1.4-3.7 2.3-4.1-.3-1.2 1.2-2 .6.8-4.1 1.3-1.8-1.2-2.5-4.4-.8-2.8-3.3-8.7-5.1-.5-1.9-3.3-2.7-1.4-3.1-.4-2.8.5-.5 1.1.2-.5-.9 1.1-1.2-.7-.3.5-.5-1-1.5-.4.6-1.4-1-.2.3-.2-.8h-.6l-.2-1.6-.6-.2-.9-.7h-.9l.5-.7-1-1h7.5l4.3-1.9 2.7-3.2 5.9-.8 1.8-.7 2.7-1.3 2.3-2.5 4.1-1 3.6-3 4.6-.6 2.6-2.2 5.9-1.2.9-.7 2.5-2.7 1.6-2.8 1.2-9 8.1-6.9 4.4-.6.8-.6.7-.8 1.2-4 3.5-.8 2.8-2.1 2.7-.3 1.7-1 1.4-4.5 2.3-3.7 3.5-2 .7-1.6 3.3-1.7 2.6-.2 2-1.1 2.5.3 1.8-.8 3.5.9 6.8-1.2 2.4-3.1 3.5-1.3 2.7.3 1.6-2.6 2.8-1.6.3.6-.7 1.9.9 1.5Z"/><path id="AO-MAL" d="m182.2 145.4 3.9.6 2.5-1.9 2.5-.3 1.4-1.5.6-3.7 1.1-2.4-.6-3.5-2.3-6.8v-1.8l2.1-1h2.7l3.3-1.7 2.5-4.1 1.5-1.1 6.6-2.5 1.6.3.8.6 1 2.6 3.6 4.8 1.6 1.3 2.4.5 2.5-1.2.5-4.2.6-.8 2.6-1.7 1.8.3v1.2h.7l.4-.7 1.5 1.1-1.2 1.1 1.6 1.1v1.2l.7 1.6 3.1 2.1-.5 1.9 1.4 1-.3 1.5 2.4 1.2v1l1.5.8-.2 1 1.1.5-.4 1.6 1 .6.7.3-.2 1.6 1.2 1.7-.4 1.3 1.1.9-.4 1 1.1 1.3-.5.9v1.5c.1 0 .6 3.4.6 3.4l.5.6-1.2 1.6-.5 2.5.9 2.8 1.6 1.1v8.7l-1 5.6 1.2 4.3-1.4 2.5v1.7l-.7 1-5.9 1.8-1.7 1.4 1.2 4.2 1.6 2.4v2.5l.5.8 1.7.3.5 1.6.8.6 3.2.8 1 1.6v1.6c-.1 0 .5.8.5.8l2.7-.4 3.4 1.6 1.2 3.8.7.8 1 .3.2 1.2 1.5 2.2-.6 1.5v1.8c.1 0 1 .5 1 .5l.8 2.1 1.4 1.5 2.2 1v1l-3.6 3.4 1.6 2.1v.8l3.2.8 3.2 2.7 4.9 2.3 4.3-.3.9-1.7-1.5-2.2 1-1.6 2.6-1.3.6.2.2 1.6h.6l.2.8.2-.3 1.4 1 .4-.6 1 1.5-.5.5.7.3-1.1 1.2.5.9-1.1-.2-.5.5.4 2.8 1.4 3.1 3.3 2.7.5 1.9.3.8-.8 2.6.3 1.7 1 1.5-.7 2.8 2.3 2.2.5 2.1-.4.8-3.2-.3-4.5 1.4-3 1.4-2.9 3-1.6.8h-2.7l-1.8-.8-4.6 1.1-2.5-.5-1.3.7-1.5-1.4-1.6.4-1.6-.3-.3-2.4-.8-1.7-2-1.7.6 2.4v3.9l-3.4 2.9-.9 1.6-1.6.4-1 1.6-2.1.6-1.5-1.1-1.9-.6.8-1.7-1.4-3.5 1.7-1.8-.3-.7-1.2.3 1.2-3.5-1.8-2.6-.5-2.7-1.5-.2-1.2-.8 1-1 1.2-.3.3-2.1-1.5-3-1.1-.9-.4-2.8-2.9-2.5h-2.2c0 .1-2.1-.6-2.1-.6l-.2-1.2h-1.6l-.5 1-4.6-2.4-3-.5-2.4.5-1.6-.2-2.1-2.3-1.9-.6-.3-1.1-1.1-.2-.3-1.1.8-.7-1.1-1-4.1-5.2-1.5-.4v-2.5l-.9-1.1-.9-1-1.9-.6-.5-2.7 1.9-2.3-.9-1.9-.2-2.2-1.5-2 .3-2.2-.6-.8-2.3-1.3-.5-1.7-1.3-1.6-6.3-1-3.5.5-2.5-.7h-.9c0 .1-1.6 2.4-1.6 2.4h-10.7l-4.6 1.1-4.5-.4-3.7-2.6 1.9-1.6.2-.8-.4-2.6-1.3-1.4v-.8l2.4-2.2-.4-1.7-2.1-1.5 4.4-.6.5-3.4 1-1 2.8-.4 4.4-2.4 2 .7 2.4-.2 1.2-.8.3-2.1-.4-2.5 1-5 1.3-4.1 1.1-1.6-.8-1.8-2.6-.6-1-2.1 2.4-3.3-.2-1.6 4.6-1.1 1-1.1-.5-.7-.4-5.9Z"/><path id="AO-MOX" d="m302.8 262 2-.6 1.2-1.2 4.1.3 3.7-2.3 1.5-1.4.6-1.4 1.1-.6h1.2l3.5 2 2.4-.6.6-.9 1.2-.6 1.2.5.7 1.3h.8l1.5-1.4 2.2-.2 1.4 1h1.2l2.3-2.7.8-.2 2 1.5 2.1.4.7.8 1.5.4 1.7-.6 3.1 2.3 2.2.3.6.9 1.9.4 1.8 1.2 1.5-.2.7 1.2 1.1-.3 2.3.9 6.4.6 1-.9-.5-1.5 2.3-1.1.7.3 1.4-.5.9-1.6 1.4-.9.4-1.1 2.1-.3 2.3-1.2 1.6-.2.7-.7h2.1c0-.1.7-1.4.7-1.4l1 .2v-.4c.1 0 .5.5.5.5l1.6.2 4.1-1.6v-2.8h-.7l-1-2 .7-4.1 2.6-2.4.3-4.3 1.9-3h8.4c0 .1 1.6-1.3 1.6-1.3h2c0 .1 3.1 1.4 3.1 1.4h1.6l1.5-.6.4 5.9-3.4 1.4-1.8 1.4-.2.8 1.1 2.5.5 5.7 1.5 2.2-.2 2.2.7.8.8-.2 1.8-2.4h3.1l2.1-2v-2.5l2.4-.8 5.7 2.9h2.5l.6-1 2-.8 3.3 1.3h2l2.5.9 2.4-1.1 1.8.3 8.3-5.9 2.5.3 2.8 1.7h1.6l1.5.5 2.6-.6 2.5 1.3h1.3l3.3-2.6 1.2-2.1.6-.2-.3.8 1 .9.4 1.1-.5 2.9.3 1.7-.5.9 1 1v4.5l1.7 4.4-1.8 1.7.2 2.9-1.6 4.1-.7.7 1.9 6-.8.9-.4 2-.2 7.6v1.5l1.1 2.2 1.9 1.8.2 1.4-.7.9.7.6v.8c.1 0 0 1.8 0 1.8l-1.7 1.2-2.5 3.5.2 2.3-1.1 1.9v1.6c.1 0-1 4.7-1 4.7l1 1.5 1.6.8 1.7 1.8.5 1.6-72.7.5v115.9l-6-3.9-.6-2.7-1.1-.9-.7-2.1-1.7-.7v-2.2l-2.3-.8-1.5-1.5-1-2.6-1.1-.9.2-1.6-1.2-.9-.6-1.4-1.6-.8v-3.1l-.6-1.4-1.1-.9-1.7-.2-1.9-1.2-1.2-1.3-1.1-3.4-1.2-.8h-1.7c0 .1-.5-.5-.5-.5l.3-1.2H371l-3.4-4.2-1.8-.5-1.3-1.3-1.5.3-1.3-1.2h-.8l-.7.8-3.4-.7-1.4-1.1-1.4.7-1.2-.3-1.7.8-2-.5-2.1.9-3.3-.8-2.7.3-3.6-1.4-2.9-1.6-2.5-2.5-1-1.7-1.2-.8h-1.1v-.8h-.8l-.5-1-4.9-4.1-.3-1.1-1.6-.9-1.1-2.9-1.1-.9-.4-2.1-1.9-1.6-1.2-2.4-4.1.9-3.6-.5-1.6-1.3H304l-1.9 1 1.3 5.8-5-2.7-4.4 1.4-1.8-.7-1.5-2.6v-1.1l-.7-.4-.8-1.7.2-1.9-1-2.8.2-1.5-1.8-2.6-.3-1.2-2.2-1.9-.3-1-1.2-.3-3.4-2.7-1.7.6-.8-.3-5-3.3-3.2.5-9.8-5.7-.5-1.6 1.2-2-1.4-2.7 2.4-2.1 2.8-1 .2-.8-.2-1.7-1.9-3.3 1.3-1.7-.5-1 2.5-1.1.3-1.6 1.7-1 .3-.8-1.5-4.2.9-.8.5.8 2.7-2.6 1.6-.9v-2.5l3.9-4.7v-2.6l.7-.8 3.7-3.4 2-.3 2.4-2.5 1.9-.4.6-.8.2-.9-.8-.7v-.8l5.4-5.1v-1.3l-1-1.8.2-1.8 1.5-1.3 1.1-3.2 1.7.3.5-.8-1.1-2.2 3.3-.5.8-.8.9-4.7 2.3-2.6 1-.3Z"/><path id="AO-NAM" d="m36.1 446.3.7.5v2.3c-.1 0 .7 4.7.7 4.7l-1-.9-1.5-4.1v-1.5zm30.1-109.2h2.5l5.8 1.7h1.8l2.3 1.7 5.7-2.2.6-1.7 7.6 1.6.8.4.2.9-.8 1.7v1.6l2.1 2.6 1.1 2.6.9.5 1.6-.9 2.5 1.1h1.8l.6 1.9 1.6 1.1.3.9-2.1 4.5 1.4 3.4-.6 1.8.3.9.8.6.8-.4.8.4-.3 1.8.5 4.6-2 2.7-.2 3.5-1.8 4.2-4.8 2.6-3.3 2.9-1.7.3-1.4 1.6.9 3.6-1.7 2.6 2.1 2.5-.3.9-2.7 1.5v.9l.9.7 2.8-.3v2.2c-.1 0 .6.9.6.9l1.7-.7.4-.8 1 .2.5 1.7-.5 1.8.5.8 1.7 1.3 2.7 1-.2 8.8 1.9 3.4-4.1 8.3 1.8 4.3-1.2 2.3-.9.5-2.9 3.3-1.7 1-.4-.5-.6 1.1h-1.1l-.8 1.3-1.6.6-.8 1.3 1.5 1.4.7 1.7-1.3 1.8-2.5 1.5-.7 1.7 1 1.8 5.2 5.1 1.5 3.8-2.8.8-2.3-.5-.4-.7h-1.8c0-.1-1.7.5-1.7.5l-4 .2-1.3 1.3-2.5 1-.2.7-1.7.8-.6 1.1-5.4 2.6-1.8 1.7-2.6.7-1.5-.3-1.3.8-.9-2h-.7l-1 .8-.8-.4-2.2.7H56l-2.2-1.5-.7-1.4H51l-.9-.5-4.8 1.4-2.3 1.8-1.6.2-.9 1.1-2.1-.7v-8.1l1.1-5.6-.4-3.7.6-.5-.3 2.1h.4l.8-1.5.4-2.7-.3-4.2.4-5.2-1.3-11.9.6-4.1-2.5-4.2-.2-1.2 1.6-3.4.7.4h.5l.6.3 2-.7 1-1.4.6-2.5 2.4-1.7.9-2.3.4-6.3.8-2v-4l1.4-1.2 1.2-.6.5.4.4-.5-.4-2-1.1.2.2-.9 1.8-3.3V389l.8-.4.8-1.9V385c-.1 0 1.2-.7 1.2-.7l1.4-2.7-.6-2 .9-1.1-.2-1.4 2-6.7.2-3.9.6-.9-1.3-4.4 1.1-.4.3-.9-.6-2 .3-1.6 1.1-1 .2-2.8 1-.6-.2-2.3 2.6-.4-.3.5h.9l.6-1.2h-.3v-3l.6-4.7-.4-.2.2-1.1.6-.4-.2-2.2Z"/><path id="AO-UIG" d="m202.9 61.9.7.7 1.4.3 2.4-.6 3.1 1.4-.4 1.7.6.6-.3 2.6.3 1 1.3.4v1.1l1.6.4 1.1.9.3 1-.7 1.5v2l.5 1.9-.8 1.2-.4 1 1.5.7-.8.7.8 1-.3 1 1.3 1-.4 1.8.9.5.6 3.2 1.3 1.2.2 2 1.2 1.2.2 1.5 1.4.2.9.8v3.3l1.2.7.4 1.3-.7 2-.7-.6-.5.3 1.5 3.6-.6 1.2 1.2 1 .6 2.5h.9l1.6 1.5h1.2c0 .1.2 1.7.2 1.7l-1.8-.3-2.6 1.7-.6.8-.5 4.2-2.5 1.2-2.4-.5-1.6-1.3-3.6-4.8-1-2.6-.8-.6-1.6-.3-6.6 2.5-1.5 1.1-2.5 4.1-3.3 1.8h-2.7l-2.1.9v1.8l2.3 6.8.6 3.5-1.1 2.4-.6 3.7-1.4 1.5-2.5.3-2.5 1.9-3.9-.6-.2-3.5-.5-.5-1 .3-.5-1.3 1-.9-2-1.5h-3.3l-1.3 1.2-3.3.6-1.3-.5-.2-2.4-.6-.9-1-.6h-4.3c0 .1-3.3.9-3.3.9l.3 1.9-.9 2.1h.9l.7 1.2-.8 1.2v2.2l-1.6 1.9h-.9l-.5 1.6-2-.2-1.9.9-1.8-1.2-1.8-.2-3 4.1-1.7.7-2.7-.7-1.3.2-.5-1.4-.6-2v-1.8l.5-1.7 2.4-4.1v-6.7c.1 0-.7-.7-.7-.7l-1.7-.2-5.3 1.1-2.5-.2-4.2-2.1-2.8-3.5-2.9-2.3v-.8l-.7-.8-11.1-.6.8-2.2 2.6-.5 1.8-1.9-2-1.8-.4-1.6-1.4-1.4.5-2.5 2.1-2.4v-.9c.1 0-2.9-2.5-2.9-2.5l-.8-3.4-1.1-1.8 1.7-.6h3.1l3.2-2.7 4.3-1.1 3.3-1.5 1.5-3.4 2.1-1.4h3.3l2.4-1 1.5-1.9 5-.4 3.5-1.4 4-6.4 1.4-1.1 1.9-2.6-3.4-2.6-.5-4.5-4.1-6.7 57.8-.5Z"/><path id="AO-ZAI" d="m58.5 69.4-.4 1.1h-.9l.8.2-.5 1-.9.4v-1.6c-.1 0 1.9-1.1 1.9-1.1m58.9-8.4 1.8 1.5 1.5-.6 3.5-.2 1.9 1 2.3-.2 5.8.7 1.8-.4 3.1.7 3.7-1h2.2l4.1 6.7.5 4.5 3.4 2.6-1.9 2.6-1.4 1.1-4 6.4-3.5 1.4-5 .4-1.5 1.9-2.4 1.1H130l-2.1 1.3-1.5 3.4-3.3 1.5-4.3 1.1-3.2 2.7h-3.1l-1.7.5 1.1 1.8.8 3.4 3 2.5v.9c-.1 0-2.3 2.4-2.3 2.4l-.5 2.5 1.4 1.4.4 1.6 2 1.8-1.8 1.9-2.6.5-.8 2.2-3.4 2h-2.6l-1.1 1-3.2.6-.8.6h-1.7l-2.4-1.6-3.1.9-.8 1.2-1.4-.5-2.7 1.8-3.2.6-2.4-6.3-.8-.9.4-.9-.7-.7-1.8-4.3-.8-3.5-2.1-2.3v-5.7c-.1 0-.8-4.2-.8-4.2l-3-4.5-6.6-7.2-6-12.1-3.9-5.7 1.2-1v-.2l.2-.4h2.9l-.2-.3 1.2-.2 1.1.5-.4-1.3 6-2.2 2.8-.3 1.9-1.1 2.6-.2 7.2-3.5h1.8l1.5 1 4.5-1.3 4 1.3 1.3-1.1 15.4.2 5.6-1.2Z"/></g></svg>