<svg xmlns="http://www.w3.org/2000/svg" xmlns:amcharts="http://amcharts.com/ammap" id="Layer_1" viewBox="0 0 512 512"><g id="_x3C_defs"><amcharts:ammap bottomLatitude="6.235" leftLongitude=".776" projection="mercator" rightLongitude="3.843" topLatitude="12.409"/></g><g><path id="BJ-DO" d="m239.5 198.6-59.5 6.2-1.4 34.9 21.4 35.9.9 39.3 17.7-2.1 27.6 10.7 1.4-23.8-12.8-9.5 1.3-15.9-6.4-10.1 1.6-10.8 10.2-2.9 3.4-21.8-6.4-12 .9-18.3Z"/><path id="BJ-AK" d="m233.4 85.2-32.9 3.5-12.9-6.9-8.7 15-15.5 2.3 1.8 7.6-7.6 1.9 4.1 9.3-10.6-4.2-1.4 8.6-4.9-1.5-11.2 49.4 46.4 34.5 59.5-6.2 14-8.4-6.8-21.5 5.8-9.5.6-27.6 7.4-8.2-27.1-38.2Z"/><path id="BJ-MO" d="m202 505.4 29.3-5.8 2.9-33.6-34.6-1.1 15.4 35.5-12.9 5.1Z"/><path id="BJ-PL" d="M289.3 389.7h-17.5l-5.6 18.7 8.5 19.9-1.1 14.9 6.1 26.8 9.7 12.4 5.9-78-5.9-14.5Z"/><path id="BJ-ZO" d="m266.2 408.3-42.8-15.8h-21.2v7l21.4 37.3 15.2 12.2h23.9c0-.1 10.8-5.9 10.8-5.9l1.1-14.9-8.5-19.9Z"/><path id="BJ-OU" d="m273.6 443-10.8 5.8 6.6 42 1.3 3.8 17.5-1.6 1.2-10.9-9.7-12.4-6.1-26.8Z"/><path id="BJ-KO" d="m238.9 449-15.2-12.2-21.4-37.3.2 43.3-7.5.4 4.6 21.8 34.6 1.1L239 449Z"/><path id="BJ-LI" d="m270.7 494.7-1.3-3.8-8.6 4.8 9.9-.9Z"/><path id="BJ-AQ" d="m269.4 490.9-6.6-42h-23.9c0 .1-4.8 17.2-4.8 17.2l-2.9 33.6 29.6-4z"/><path id="BJ-CO" d="m289.7 300.2-42-.4-1.4 23.8-27.6-10.7L201 315l1.2 77.6h21.2l42.8 15.8 5.6-18.7h17.5l.4-89.4Z"/><path id="BJ-AL" d="m299.4 6.6-37.7 13.3 6.9 20.9-6 2.5-7.4 23-21.6 19 27.1 38.2-7.4 8.2-.6 27.6 125.9-9.1-8.5-14.3-.6-24.7-20.2-24.9 10.2-22.4-59.8-57.2Z"/><path id="BJ-BO" d="m289.7 300.2 3.7-23 24.4-3.1 4.5-29.2 15.8-15.7-.5-12.1 14.9-3.6 6.1-8.3 6.2-16-7.6-11.2 6.3-12.1 10.8.8 3.9-16.5-125.9 9.1-5.8 9.5 6.8 21.5-14 8.4-.9 18.3 6.4 12-3.4 21.8-10.2 2.9-1.6 10.8 6.4 10.1-1.3 15.9 12.8 9.5 42 .4Z"/></g></svg>