<svg xmlns="http://www.w3.org/2000/svg" xmlns:amcharts="http://amcharts.com/ammap" id="Layer_1" viewBox="0 0 512 512"><g id="_x3C_defs"><amcharts:ammap bottomLatitude="-26.909" leftLongitude="19.999" projection="mercator" rightLongitude="29.362" topLatitude="-17.781"/></g><g><path id="BW-CE" d="m321.3 74.4.2 2.1-1.6 1.8v1.8c.1 0 5.5 8.6 5.5 8.6l4.8 14.5 3.9 2.3 3-.5 2.1 1.9-1.3 2.3 1.4 1 1.9-.2 2.3 4 3.1.6 3.8 2.1 2.4 4.6 3.9.4 1.1 2.6 3.8.2.8 1.8 5.1.8 2.9 1.2h4.4c0 .1 1.5 1.1 1.5 1.1l1.6 2.5h4.2l2 3 1 3.6 1 .8.8 3.9-.6 10.5 1 6.2-1.9 2.3-.2 1.5-2.2 1.9-.6 5.5.6 1.6 3.4 2.1 2.7 5 .7 3.2v6.2c-.1 0 1.3 1.5 1.3 1.5l1.7 8.9 4.4 6 2.9.9.7-.4 3 2.9 5.6 1.3 2.9-.9 2.2.2.3-.7 3.6.4 2.2 1.5 1.9-.2 1 1.1 4 .3 4.5 1.3 3.8-.7 4.5.5 1.9 1.5 4.7 1.8 4.1-2 3.7 1.3 1 1.4 5.9 2.8 2.2.2 5.2 2h2.9l3.1 1.4.7.9-1.9 2.3-.9 3.8 1.6 4.8 4.6 2.9h2c0 .1 3.1-.9 3.1-.9l1.9 3.3 3.7 4-1.4.4-1-.8-5.7-.4-2.5 1.7-5.9.2-3.4 4.9.3 3.5-2.8 4.7-2.5-.7-1.8.9v1.2l-6.1 1.6-3.9 2.4-3.8.3-2 1.2-3.2-.9-5.1.3-3.4 2.2-.6 1.3-3.2 1.5-2 2.2-.3 3.1-3.5 2.9-2 .8v3.8l-3.5 2.7-1.7.3.5 1.7-.7 3.4-2 1.7-3.6 1.2-.4 1.3-1.3.7-1.2-.3 1 1.9-1.6 1.4-.6 1.7-1.2.2-1.4-1.8-2 1.4-2.2-.6-.4 1.8-1.2.8-.6 4.5-1.5 1.6-4.2.3-1.5 2.1-1-.3.3-1.4-1.3.4-.2 1.5h-1.2v-1.2l-1-.2-1.2 2.8-3.5 2.3-1.4-.5-.8.7 1 1.2-.4.5-1.6-.4-.7.5-.9-.8.5 2.6-1.6-.2-1 1.6-1.9 1 .9 1.8-1 1.3-1.4.5v-1.3c.1 0-1.2-1-1.2-1l-.4 2.6-1.2.9-.5 2.3-1.8.4-1.4 1.9-.8-.8-.2 1.3-2.2 3-2.3.5-4 4.6-34.7-21.3-7.8-11-6.3-2-15-20.3L215.8 180v-37.1l1.7 1.2 3.8-.7.2-1.8 1.6-1.3 6.3-2.6 2.2 1.1.8 1.7 2.3-.8.7 1.1-.5 1.3.7 1.5 2.5 1.1 2 3.2 2 .9 2.5-1.1 3.6.4 31.5-2.6.5-14.4-9-3.8-.2-52.5h50Z"/><path id="BW-GH" d="M72 179.7h144l77.7 104.4-10 20.2-108.8-.3H22.2v-70.5h50z"/><path id="BW-KG" d="M22.2 303.9h152.7v5.7h-4.5c0-.1-.6.5-.6.5v7.9h5v23.4l-.2 46.4 51.3-.2 8 8.4.7 28.1 7.4 7.6h4.6c0 .1.5 5.1.5 5.1l-1.1.4-1.6-.8-2.5 1.5-1.9-.2-1.6-1.3v-1.1l-2.2.4.3-1.2h-1.2l-1.6-2.9-1.9-1.4-1.7.5v-1l-.8.9-2.7.8-1.1-.7-.3 1.3-1.3-.8-1.1.6v-1.5l-2-.4-1.7 1.1-1.4-.6-1.5-2.6-1.7-.4-.5-1.4h-1.1l.5-1.5-2.8-.8-.6-1.9-1.5-1.3-.8.6-1.7-.6-.6-1.7-1.2 1-1.3-1.6V417l-1.1.7-3-2.9-1.6.5v-1.5l-2-1.6.4-1h-1.1l-1.3 1.9-2.3-.6-.6-.9-3.1.3-.8-1.1-4 .2-3.2 2.1-2-.2-.9 1.2-1.1-.6.4-1.5-1.5 1-1.1-.8v2c-.1 0-1.7.5-1.7.5l-.4 2.3-2.9 2.1-1.1 2.8.6.9-1.5-.4-1.1.6.7.9-.3 1.3-1.9 3.1 1.8 1.6-2.1 1.2v1l.9.6-.3 1.7-1.1 1.6-1.3.5-.7 2.8-1 .8 2.1 1.4-2.2 2v1.3l-1.2 1 1.6 1.2-1 1.2-.3 4.2-2.8.5v2.7c.1 0-1.4 1.1-1.4 1.1l-.5 1.9-1.2 1.2-1.2-.3-.9 4.2-.8.5-3.5-1.2-.8 1h-1.6c0 .1-1.5 1.6-1.5 1.6l.2 1.1-1.8.9v1.7l-5.4 1.6-2.9 2.6-1.9 6.1-4 4.1-1.6 2.9-5.3 2.2-6.8-.3-1.6 2 .7 1.2v3.9l-4.3 3.7-3.6.3-2-1-3.2.8-6.4-2H90c0 .1-2.1 1.4-2.1 1.4l-1.6-.5-2.7.4-3.7 1.4-3.3-1.2-2.8-.2-2.3-2.3-3.7-.7-3.7 1.4-2.9 2.3-2.7.7-1.1 1.8-.2-2.9-1.9-1.1v-1.1c.1 0-.9-.9-.9-.9v-3.4l-.8-2 .9-1.8V486l-1.4-4.9.5-3.4.5-1.7 1.2-.2 2.1-2.1 1.4-3.4 2.1-2.8 1.2-.6 1.7-5.3 1.9-1.9v-1.4l-1.6-.8.7-1.5-.6-.9.4-1.7-.9-1.5 1.1-2.6-1.8-2.4.4-2-1.1-1.1V441l-2.1 1.2.6-2.3-1.1-.8-.6-2.3-2.1-2.3.3-2.9h-1.5c0-.1 2-2.6 2-2.6l-3.1-4 .6-2.2 1.4-.4.2-.9-2.5.2.3-1.4h-1.1c0-.1-.2-1.8-.2-1.8l-2.1-.8-.9-3.3-1.3-.6 1-1.3-2.5-1.8V409l-1.6-.7-.4-1.2.9-1.1v-1H45l-2.9-6.8-4.4-3-1.4-2.8-2-.4-.8-1-1.2.7-1.3-1.4h-1.5c0-.1-6.4-7.3-6.4-7.3v-78.5Z"/><path id="BW-KL" d="m322.8 317.4 34.7 21.3 4-4.6 2.3-.5 2.2-3 .2-1.3.8.8 1.4-1.9 1.8-.4-.8 3.5.3 1.4-.9.9h.8v1.1l-2 5.8v1.8c.1 0-1 3.5-1 3.5l-1.2 1.1-.2 1.8.9 1.4-.8 1 .6 1.2-.8 1v2.3l-3.9 2.5h-2.3c0-.1-1.4.7-1.4.7l-1.8 1.9-.4 2-3.6.9-3.8 4.3-2.3 5.6-2.2 1.5-.5 1.1-12 2.6-2-3.3-9.6-6.3-1.8-1.2-.6.3-1.5-1.9.5-4.3 3.3-4.4 3.4-40Z"/><path id="BW-KW" d="m293.8 284.1 15 20.3 6.3 2 7.8 11-3.4 40-3.3 4.4-.5 4.3 1.5 1.9.6-.3 1.8 1.2-13.2 14.4-4.8-.2-7.6-4.5-119-37.4v-23.4h-4.9v-7.9l.5-.6h4.5v-5.5l108.8.3 10-20.2Z"/><path id="BW-NE" d="m397.1 152.4 3.3.8 2.6-.6 1.6 1 1.4-.6 1.9 1.5.4 1.4-1.2 3.1v3.3l1.3 2.6v2.4c.1 0-.9 4.8-.9 4.8l-1.2 1.6.6 1.8-.7 1.5 1.1 1.4-1.1 2.4.6 1.5-.8 1.4 3.1 4.6 3.2 1.6 2.6 4.7 2.4 2.6.2 2.3 2.9 5-.7 1.2 1.2.6-.9 1.3 1.5.3.7 2.2-1.9.2-2.2-1.5-3.6-.4-.3.7-2.2-.2-2.9.9-5.6-1.3-3-2.9-.7.4-2.9-.9-4.4-6-1.7-8.9-1.4-1.5v-6.2c.1 0-.6-3.2-.6-3.2l-2.7-5-3.4-2.1-.6-1.6.6-5.5 2.2-1.9.2-1.5 1.9-2.3-1-6.2 3.7-1.3 1.4.6 5.9-.3Z"/><path id="BW-NW" d="m282.7 11.1 2.8.2-1.6 4v2.5c-.1 0 1.4 2 1.4 2l.7 2.8 2 3.5 1.7.6 3.2 3.6 5.1 11.9 4.3 5.4 1.7.6 3.3 5.1 1.9.3 1.7 1.6.7 2.9-.4 3.5 1.5 3.1v1.4l6 3.5 2.3 4.7h-50l.2 52.6 9 3.8-.5 14.4-31.5 2.6-3.6-.4-2.5 1.1-2-.9-2-3.2-2.5-1.1-.7-1.5.5-1.3-.7-1.1-2.3.8-.8-1.7-2.2-1.1-6.3 2.6-1.6 1.3-.2 1.8-3.8.7-1.7-1.2v37.1H72v-141h23.5L176 22.1l10.7-.2 1.2.9-.3 1.1 1.1.8-.6.3.2 1.2 3.8 5.2-.2 1.6 2.5-.3.2 1.7 2.2.4.2 1.1 1.1.6.2 2.3 1.3 1.2.3 1.3-.5.9 1 5.3 2.1 1 2.7-1.7.9-1.7h1.8l3.6-2.9 1-2.3 1.9-1 1.3-2.3 2.5-1.4.5-2.2 1.2-.9.8.2 2.2-2.3 1.8-.8.2-1.2 1.6.4 1.2-.8 3.9-4.4 3.9-.5 1.2 1.1.7-1.7 2.8-2.4 1.6.6 1.1-.5 1.1.8.5-.4v1l1.6 1.6-.4 1.1.5.7 2.1 1h2.2l2.5-4 2-1.6-.2-.7h2.2c0-.1 1.5-2.9 1.5-2.9l.7.4 3.1-2.2 3-.6 1.9-1.6 1.8-.2 1.4-1.1-.5.9.7 1 1.3-.4.2 1 2-1.3.6.7-.5.6.8.4 2.2-.8.6-1.1.8.2.8-1.5 2.9.5Z"/><path id="BW-SE" d="m330.6 378.7-7.4 1.8h-4.6c0 .1-1.8 1.9-1.8 1.9l-1.8.6.3 2.9 1.1 2.1-.3 3.3-1.1 1.1-6.2 17.2-1.6 1.9-.6 4.5-2.2 5.4-5.9-2 6.6-23.1-3.6.2 2.2-6.7-.7-1 3-1.4v-4.1l13.2-14.4 9.6 6.3 2 3.3h-.4Z"/><path id="BW-SO" d="M306.2 383.4v4.1l-3 1.4.7 1-2.2 6.7 3.6-.2-6.6 23.1 5.9 2v2.3l-3.4 7.1-8.2 5.7-3.8 1.7-11-.5-3.8-2-1.8.3-2.2 2.4-.8-.2-1.3 1.6-.4-.3-.7 1.2-2.3-.2-3 .8-3.2-1-2.5.9-10.3-4.1 1.1-.4-.5-4.9h-4.6c0-.1-7.4-7.8-7.4-7.8l-.7-28.1-8-8.4-51.3.2.2-46.4 119 37.4 7.6 4.5 4.8.2Z"/></g></svg>