<?xml version="1.0" encoding="UTF-8"?>
<svg id="Layer_1" xmlns="http://www.w3.org/2000/svg" xmlns:amcharts="http://amcharts.com/ammap" version="1.1" viewBox="0 0 512 512">
  <!-- Generator: Adobe Illustrator 29.1.0, SVG Export Plug-In . SVG Version: 2.1.0 Build 142)  -->
  <g id="_x3C_defs">
    <amcharts:ammap bottomLatitude="9.409146" leftLongitude="-5.517935" projection="mercator" rightLongitude="2.405784" topLatitude="15.081041"/>
  </g>
  <g>
    <path id="BF-01" d="M153.7,165.4l6.6.2,3.2,4.4,2.8-2.8,3.3,2.6,1.5-.6h0l4.8,5.5,8.7,2.1,1.2,2.7,2.7.6,3.4,10.8,4.2,2.2,3-.7,2.4,1.5-7.7,10.3h-8.2c0,.1.4,8.9.4,8.9l-1.7,7.8,4.7,5.2h0l-7.2,7.9,2.2,6.8-7.2,8.3.9,2.2-2.9,3.3,4.5,11.7-2,1.9-5.3-.3-.7,1.4,4,4-.3,3,1.8,3.6-.6,3.4-3.9,1.3-.6,1.4.9,1.3,6.8.6,7.2,9,1,6.2,9.1,7.1-1.7,1.9-3.2.5-.4,2.1-7.7-.9-5.4,7.7h0l-3.6-1.8,1.4-2.5h0l2.5-6-.9-5.2.9-2.7-2-1.4-1.7-1-1.2,1.5-2-1.4-3,.7-4.3-2.7-7.8,4-2.5,2.6-2-1-1.5,2.4-2.5-2.5v-3.4s-7.3-3.1-7.3-3.1l1.9-5.2-12.2-5.1-6.4.8-2.3,1.6-3.3-.5-6.1-3.2.3-1.7-2.5-2.5-2.8-.3.2-3.9-1.9-1.3-1.1.7-4.6-1.8-2.9,1.4-4.9-.3-2.3,2.2-4.7,10.4-2.5.3-.9-1.2-6.6,1.4-.8-1.8,4-15.2-2.4-.2v-4.6s-1.7-.9-1.7-.9l-2.9,1.7-4.2.5-2.2-1.1h0l1.2-2.9,3.5-1.3-1.3-3.5,5.4-4.9,1.2-3.5,3.9.5-2-6.3,3.7-7.4-2.1-4.4-3.7-3.1v-3.7c-.1,0,7.3-1.3,7.3-1.3l4.6,2,3.8-3.5v-12.3c0,0-7.4-10.5-7.4-10.5v-1.6c.1,0,4.1-2.5,4.1-2.5h2.5c0-.1-.7-3.1-.7-3.1l6.9-4.3,2.8-5.5,6.4-3.4,1.6-3.9,3.5,3.6-3.7,2.3.9,1.6,10.1,1.5,12.2,9.9,4.2,1.9,6.1.6v-6.4c.1,0,11.7-1.7,11.7-1.7l-2.4-15.4,1.6-8.6-1.8-2.3,1.4-.8,3.2,1.4Z"/>
    <path id="BF-02" d="M12.2,332.1l6.3.5,13.5,14.8,9-2.4,4.6-3.2,9,.5,3.9,5.4,4.6,1.7,7.9-6h4.3s1.7,1.1,1.7,1.1l3.2,6.5,6.1,1.3,1.6,1.9,10.9-5.2,3.5,3.2,7.3,2.8,4.8-2.4-.4-1.4,4.4-5h3.3c0-.1,2.3,5.4,2.3,5.4h-5.3s-1.3,1.6-1.3,1.6l1.4,2.1,3.4.5,1.5,2.7v9.9c0,0-5.6,8-5.6,8l1.9,7.2-3.7,6.4-5.8,2.2-3.7-.8-1.9,5,6.4,5.8v2h0l-5,1.9-.9,2.5-2.7-.3-.8,2-5.4-1.9-3.1,3.5-5.6,1.1-1.2,7.4-1.7,2.4-2.6-1.7-2,1.8-2.4-4.1-4.6,1-.7-6.2-2.5.3.9,1.3-1.6,2-2.9-2.2-4.6,2.8-3-4.6-2.5.7-2.3-2.9h1.8s0-3,0-3l-7.7-3.8-1.3,1.3-2.1-1.2,1.3-3.7-2.6-3.4,1.6.2.2-1.2-3.7-2.9,1.1-2.1-3.7,1.4.9-1.6h-1.8s-.1-1.1-.1-1.1h2.1s-2.2-1.1-2.2-1.1l.4-2.5h-2.5s1.5-1.2,1.5-1.2l-.2-1.6-2.2,1.3.2-1.3-2,.4.4-6.4-2.5,1.3-.9-1.3-5.8.2-4.6,2.1-5.8-3.8v-1.7s-3.1-3.1-3.1-3.1l3.2-8.6-1.1-3.9.6-8.4,1.5-.8,1.7-5.1-2.6-3.3-1.9-9Z"/>
    <path id="BF-03" d="M239.6,250.8l8.7-3-2.8-10.8,6.1-1.3,1.9-5.8,2.8,3.9-1.3,2.4.7,2.5,4.3-2.2,2.7,2.8-2,3.9,6-.3,3.8-2.3,2.7.6,2,4.4-1.5,6.2,1.6-.7,6.6,5.6,2.5-.9v3c0,0,2.4.6,2.4.6l-.4,2.2h0l-9.6,1.5-3.5,1.7-2.2-1.6-5.7,2.6-2.6-5.8h-3.4c0,0-3,1.1-3,1.1l-1.7,3-5.6,2.1-3.3,2.9-5.6-2-3.5-3.9h0l4.7-5.2v-2.5c.1,0-2.1-2.2-2.1-2.2l1.5-1.4-1.1-1.1Z"/>
    <path id="BF-04" d="M339.4,237.1l-2,6.8,5,2.8,1.6,2.5-3.8,5,1.1,2.1,5.5,1.6,4,2.9.6,2.4,1.9-.3,1,3.2-6.7,2-2.8,5.4.5,3.7,2.7,1.2.3,3.5,3.7-.7,2.1,1.9,1.1,5h1.9c0,.1.4-2.3.4-2.3l5.8.7,1.3,1.9h6.2c0,0,8.1,5.3,8.1,5.3h6c0,.1.2,11.1.2,11.1l3,7.6-3.1,2.1,1.8,7.4-3.7,4.6-.2,3.5-1.1.4-3.7-3.1-2.6,5.8h0l-40.3-8.7-1.1,1.9,1.1,1.4-3.9,1.1-1.5,2.2-1-3-3.5,1.1-.3,4.3-2.8.3-2.3,2.5-3.1.2-2.5,4.9-2.6-3.2h-1.3s1-1.7,1-1.7l-2.9-.6h0l-.2-2.9,1.2-.9-.8-2.4-2.1-.4-2.8-6.2,1.9-4.7,8.1-4.6,1.1-2.8,3.7,1.3-1.1-2.3.4-4.2-6.4-2.5-2.1-2.9-2.9,2.4-5.5-3.2-2,.6-4.6-6.5,1.7-4.8,2.1-.5,2.8-4.8h0l6.2-1.1,3.2-2,4.2-6.1,3.6-1.4,6,.3,1.2-2.3.4-8.6-3.2-1.6-2.7-7.5,1.2-4.8-2.1-.2.2-3.5h-4.4s-1-3.9-1-3.9h0l13.3,2.9,11.8-6.4Z"/>
    <path id="BF-05" d="M244.2,163.3l4.6-8.4,2.1.6,6.9-3.4,1.6,6.1,10.5,4.5,3.8-.3,3-1.3h6.4c0,0,1.5-1.9,1.5-1.9l3,.5,2.6-1.9,8-1.5,11.5-5.6,1-2.6h2c0-.1,1.2,2.2,1.2,2.2l5.7,3.1,3.2,3.4,1.6,1.9.9,5.8,2.1.7,3.3,4.1,8.1.4-.3,3.5-1.8,1.6,1.8,3.3h0l.5,1-4.5,2.7-.6,2.8,1.8,3.3-3,6.3,1.3,4-3.5,4.7-1,7.8,3.5,7.5,7.6,5.4-2.2,3.3,2.2,6.4-.9,3.9h0l-11.8,6.4-13.3-2.9h0l.2-4.3-2.4-6.3-4.5-.6-1.8,1,.7,4.4-1.4,1.4-4.9,3.3-3.7-.8-6.5-8-6.3.4-2.4,3.3,1-4.1-1.3-1v-2.4c.1,0-5.6-4.3-5.6-4.3l-6.2-1.5-1.6-2.5-6.6-.2-5-2.7h0l1.2-.9.3-4-13.2-8.9,1.6-2.2v-3.8c0,0-2.1-3.9-2.1-3.9l-2.6.4-.8-2.3-2.3-1.3.5-7.7-2.8-8.5,1.4-2.5,5-2.7,2.5.2.5-2.2-1.3-1.9Z"/>
    <path id="BF-06" d="M189.1,226.1l5.9-4.6,2.4-.2,1.4,1.6-1.8,2.9.5,2.8,5.8.4-3.1,2.6v1.9s1.7.3,1.7.3l14.8-5.3,12.1-.8,1.8,3.2,1.5-1.1h0l1.1,1.3-.5,1.9,7.4,3.1,1.6,7.1-5,2.1-4-2-4.6.2-4.5,10.6,4,1.3,4.9-3.6,7-.9h0l1.1,1.1-1.5,1.4,2.2,2.2v2.5c-.1,0-4.8,5.2-4.8,5.2h0l-3,.2-.5,1.8-2.7,1,.7,2.5-5.1,4.7,2.8,2,1.2,2.8,3-1.2,3,1.6,1.6-1.8,3.2-.7,9.8,10.3,9.3,4.8,5.3,5.6,3.2.9,2.6,3.8-4,4.6-6.6,3.8-1,2-3.5.5-5.9,13.4,7.7,4.1,4.2.4.3,1.9,2.5-.5v3h0l-10.7-1-.4,1.9-4.2-.5-5.1,1.3-61-1.3h0l1.2-3.4,3.8-.6.7-3.9-5.4-4.3-1.5,2.6-2.7,1.3-1.5-5.5h0l5.4-7.7,7.7.9.4-2.1,3.2-.5,1.7-1.9-9.1-7.1-1-6.2-7.2-9-6.8-.6-.9-1.3.6-1.4,3.9-1.3.6-3.4-1.8-3.6.3-3-4-4,.7-1.4,5.3.3,2-1.9-4.5-11.7,2.9-3.3-.9-2.2,7.2-8.3-2.2-6.8,7.2-7.9Z"/>
    <path id="BF-07" d="M236.6,263.3l3.5,3.9,5.6,2,3.3-2.9,5.6-2.1,1.7-3,3-1.2h3.4c0,0,2.6,5.9,2.6,5.9l5.7-2.6,2.2,1.6,3.5-1.7,9.6-1.5h0l4.9,8.3,5,4.8.9,5.6,3.9,1.5.4,1.7h0l-2.8,4.8-2.1.5-1.7,4.8,4.6,6.5,2-.6,5.5,3.2,2.9-2.4,2.1,2.9,6.4,2.5-.4,4.2,1.1,2.3-3.7-1.3-1.1,2.8-8.1,4.6-1.9,4.7,2.8,6.2,2.1.4.8,2.4-1.2.9.2,2.9h0l-8.1-.7-2.8,2.7-3.4-2.2-11.5-.4v1.1c-.1,0-18.2-1.3-18.2-1.3h0v-3s-2.5.5-2.5.5l-.3-1.9-4.2-.4-7.7-4.1,5.9-13.4,3.5-.5,1-2,6.6-3.8,4-4.6-2.6-3.8-3.2-.9-5.3-5.6-9.3-4.8-9.8-10.3-3.2.7-1.6,1.8-3-1.6-3,1.2-1.2-2.8-2.8-2,5.1-4.7-.7-2.5,2.7-1,.5-1.8,3-.2Z"/>
    <path id="BF-08" d="M338.3,178l2.1-2,.5-2.6h4.2c0,.1,4.5,2.1,4.5,2.1l6.5-2.7.5,5.8h2.3c0,.1,3.5,8,3.5,8l5.5,5.5.5,3.3,11.6,3.9.6,2.4,3.1.9.2,2.7,4.1,3,1.5,3.7-1.7.3,1.9.5,2.9-1.9,1.5,1.4.5-2,5.3,1.5.8-2.5,3.3.2.7-1.8,8.9-4.2h0v2.2c0,0,4.6.7,4.6.7l31.6,26.2,18.4.9,3.1-5.4,1.5.4,2.1-2.4,7.5.3.4,1.5,3.1,1.2-.6,2.4,4.6,4.2v3.9c.1,0,2.6,3,2.6,3l.4,2.9-7.4.5-3,2.6-1.6-.9-1.1,2.3,21.1,28.6-.2,1.9-1.4,1-.4,3.8-2,.5-2.3,3.1v3.8c.1,0-7.3,4.8-7.3,4.8l-10.8,10.9-10.4-1.3-5.5,1.7-2.4-.8-.9,1.3-4.9,1.1-1.7-.5-2.4-4.6-1.4,1.5-5.7-1.7-3.4,2,.2,2.7-4.3,2.5,1.4,3-.9,1.3-4.2-1.9,1.1,3.6-1.5,1.2-6.5-1.6-1.2.9,1.7,2,.2,3.7-2.6-.5-4.2,2.7,2.2.9,1.5,5.2-2.5-1.8-2.1.6-1.4-2.1-2.1-.4-4.1,5.9h-15.8c0,0-10,4.1-10,4.1l.5-4.9-7.7-1.6h0l2.6-5.8,3.7,3.1,1.1-.4.2-3.5,3.7-4.6-1.8-7.4,3.1-2.1-3-7.6-.2-11h-6c0-.1-8.1-5.5-8.1-5.5h-6.2c0,0-1.3-1.8-1.3-1.8l-5.8-.7-.4,2.4h-1.9c0-.1-1.1-5.1-1.1-5.1l-2.1-1.9-3.7.7-.3-3.5-2.7-1.2-.5-3.7,2.8-5.4,6.7-2-1-3.2-1.9.3-.6-2.4-4-2.9-5.5-1.6-1.1-2.1,3.8-5-1.6-2.5-5-2.8,2-6.8h0l.9-3.9-2.2-6.4,2.2-3.3-7.6-5.4-3.5-7.5,1-7.8,3.5-4.7-1.3-4,3-6.3-1.8-3.3.6-2.8,4.5-2.7-.5-1Z"/>
    <path id="BF-09" d="M64.9,268.1l2.2,1.1,4.2-.5,2.9-1.7,1.8.9v4.6s2.3.2,2.3.2l-4,15.2.8,1.8,6.6-1.4.9,1.2,2.5-.3,4.7-10.4,2.3-2.2,4.9.3,2.9-1.4,4.6,1.8,1.1-.7,1.9,1.3-.2,3.9,2.8.3,2.5,2.5-.3,1.7,6.1,3.2,3.3.5,2.3-1.6,6.4-.8,12.2,5.1-1.9,5.2,7.2,3.1v3.4s2.6,2.5,2.6,2.5l1.5-2.4,2,1,2.5-2.6,7.8-4,4.3,2.7,3-.7,2,1.4,1.2-1.5,1.7,1,2,1.4-.9,2.7.9,5.2-2.5,6h0l-10.5-4.1-5,1.6h-1.6l-.4-1.8-5.1,1.4-4.4,5.7-.9,4.2h-3.2c0,0-2.8,1.9-2.8,1.9l-2.4-.3-.5-1.6-1.1,2.4-2.2.2-3.7,3.6-2.4,2.4.7,3.9-3.3,2.3-.6,4-4.3,1.1-.4,1.7h-3.3c0,.1-4.4,5.1-4.4,5.1l.4,1.4-4.8,2.4-7.3-2.8-3.5-3.2-10.9,5.2-1.6-1.9-6.1-1.3-3.2-6.5-1.7-1.1h-4.3s-7.9,6-7.9,6l-4.6-1.7-3.9-5.4-9-.5-4.6,3.2-9,2.4-13.5-14.8-6.3-.5h0l.3-1.5,6-1.6,3.3-2.4.8-3.8,3.5-2.3.4-7.8,4.1-4.6-1.5-9.6-4.7-2.1,2.2-9.1-8.2-3.2-.6-1.3,3.2.7,4.2-1.8,1.1,1.2,7-7.2,4.7-2,14.7-2.3,6.6,1.3,1.7-3.4,3.8-1.1Z"/>
    <path id="BF-10" d="M219.1,130.6l6,8.5,12.3,7.5-.5,6.9,7.4,9.7h0l1.3,1.9-.5,2.2-2.5-.2-5,2.7-1.4,2.5,2.8,8.5-.5,7.7,2.3,1.3.8,2.3,2.6-.4,2.1,3.9v3.8c0,0-1.5,2.2-1.5,2.2l13.2,8.9-.3,4-1.2.9h0l-5.9-2-13.5,4.2-3.8,3.4-2.5,4.6,1.7,4.1h0l-1.5,1.1-1.8-3.2-12.1.8-14.8,5.3-1.7-.3v-1.9s3.1-2.6,3.1-2.6l-5.8-.4-.5-2.8,1.8-2.9-1.4-1.6-2.4.2-5.9,4.6h0l-4.7-5.2,1.7-7.8-.4-8.7h8.2c0-.1,7.7-10.4,7.7-10.4l-2.4-1.5-3,.7-4.2-2.2-3.4-10.8-2.7-.6-1.2-2.7-8.7-2.1-4.8-5.5h0l1.2-1.2-1.2-10.8,5.2-11.3,20.8-8.5,21.9-6.7Z"/>
    <path id="BF-11" d="M232.2,229.8l-1.7-4.1,2.5-4.6,3.8-3.4,13.5-4.2,5.9,2h0l5,2.7,6.6.2,1.6,2.5,6.2,1.5,5.7,4.3v2.4c-.1,0,1.2,1,1.2,1l-1,4.1,2.4-3.3,6.3-.4,6.5,8,3.7.8,4.9-3.3,1.4-1.4-.7-4.4,1.8-1,4.5.6,2.4,6.3-.2,4.3h0l1,3.8h4.4s-.2,3.5-.2,3.5l2.1.2-1.2,4.8,2.7,7.5,3.2,1.6-.4,8.6-1.2,2.3-6-.3-3.6,1.4-4.2,6.1-3.2,2-6.2,1.1h0l-.4-1.7-3.9-1.5-.9-5.6-5-4.8-4.9-8.3h0l.4-2.2-2.3-.6v-3c0,0-2.5.9-2.5.9l-6.6-5.6-1.6.7,1.5-6.2-2-4.4-2.7-.6-3.8,2.3-6,.3,2-3.9-2.7-2.8-4.3,2.2-.7-2.5,1.3-2.4-2.8-3.9-1.9,5.8-6.1,1.3,2.8,10.8-8.7,3h0l-7,.9-4.9,3.6-4-1.3,4.5-10.6,4.6-.2,4,2,5-2.1-1.6-7.1-7.4-3.1.5-1.9-1.1-1.3Z"/>
    <path id="BF-12" d="M324.1,77.5l4.1,4.7,8.3-4.4,15.1,5.8,14.8-.3.4,6.6-2.1,3,2.1,5.7-4.2,14.4,1.5,4,5.2,5.2,2.9,1,4.2,6.1-2.1,7.4,2.4,3.9.2,3.7,3.5,4.9,1.6-1-.4,3,3.5,4.9,3.6,3.4h1.9c0,0-1.3,3.6-1.3,3.6l1.2,2,9.5.4,1.5,1-.9,2.2,2.8,1.5h4.9l5.1,2.7,1.5,5.6,16.5,8.1-3.1,1.6-1.8-2.5-1.2,3.6-8-3.3h-3.8c0-.1,0,17.4,0,17.4h0l-8.9,4.2-.7,1.8-3.3-.2-.8,2.5-5.3-1.5-.5,2-1.5-1.4-2.9,1.9-1.9-.5,1.7-.3-1.5-3.7-4.1-3-.2-2.7-3.1-.9-.6-2.4-11.6-3.9-.5-3.3-5.5-5.5-3.5-7.9h-2.3c0-.1-.5-5.9-.5-5.9l-6.5,2.7-4.5-2h-4.2c0-.1-.5,2.4-.5,2.4l-2.1,2h0l-1.8-3.3,1.8-1.6.3-3.5-8.1-.4-3.3-4.1-2.1-.7-.9-5.8-1.6-1.9-3.2-3.4-5.7-3.1-1.2-2.3h-2c0,.1-1,2.7-1,2.7l-11.5,5.6-8,1.5-2.6,1.9-3-.5-1.5,1.8h-6.4c0,0-3,1.4-3,1.4l-3.8.3-10.5-4.5-1.6-6.1-6.9,3.4-2.1-.6-4.6,8.4h0l-7.4-9.7.5-6.9-12.3-7.5-6-8.5h0l10-21.7,35.7-12,23.7-3.7,19.3-15.7h16.3Z"/>
    <path id="BF-13" d="M121.8,346l.4-1.7,4.3-1.1.6-4,3.3-2.3-.7-3.9,2.4-2.4,3.7-3.6,2.2-.2,1.1-2.4.5,1.6,2.4.3,2.8-1.8h3.2c0,0,.9-4.3.9-4.3l4.4-5.7,5.1-1.4.4,1.8h1.6l5-1.6,10.5,4.1h0l-1.4,2.5,3.6,1.8h0l1.5,5.5,2.7-1.3,1.5-2.6,5.4,4.3-.7,3.9-3.8.6-1.2,3.4h0l-6.6-.5-.6,2.8,1.2,2.9-2.7,2.2-1.5,6.5-2.9,3.7,1.9,1.9-2.1,3.5,4.7,11.1,5.8,2.1-3.6,2-1.2,4.2,5.7,5-2.3,3.6.2,4.7,2.7,9.3-1.1,4,2.2,4-3.7,5v2.7s2.5,3.9,2.5,3.9l-1.1,4.8,5,4.7-3.9,4.9-2.8-.6-6.3-7-6.5-12.9-3.3,1.1-4-7.8h-3.8s-.5-5.2-.5-5.2l-5.3,4.7-2.3-.5.2-2.6-2.1.7-7.4-2.1-8,.3-2.6-2.3-6.8,1.6-3.5,2.7-5.1-.7h0v-2s-6.3-5.8-6.3-5.8l1.9-5,3.7.8,5.8-2.2,3.7-6.4-1.9-7.2,5.5-8v-9.9c0,0-1.5-2.7-1.5-2.7l-3.4-.5-1.4-2.1,1.3-1.6h5.3s-2.3-5.5-2.3-5.5Z"/>
  </g>
</svg>