<svg xmlns="http://www.w3.org/2000/svg" xmlns:amcharts="http://amcharts.com/ammap" id="Layer_1" viewBox="0 0 512 512"><g id="_x3C_defs"><amcharts:ammap bottomLatitude="-4.47" leftLongitude="29" projection="mercator" rightLongitude="30.85" topLatitude="-2.309"/></g><g><path id="BI-BB" d="m169.7 191.6-.9 1.9-2.3 2 .4 1.8-.5.5 5.6 5 .6 2.2-.5.9-.9-.2-1 .9-.4 3.5-1.7 2.6-.4 3.2-2 2.4-.8 2.6-1 .7v2.1c-.1 0 .4.3.4.3l-2.1 3.3h-3l-3-3.4-2.6 2.2-1.7-.4-1.2 1.2h-1.3c0 .1-2.1-.4-2.1-.4l-4.1.2-3.8 2.4-.4-3.6-15.8 2-3.7 2.8h-1.7l-2.8 2.5-2.3.4-1.4 1.1-3.3 5.8-3.7-3.4-.5-2.8-1.8-2.3v-.8l-.8-.1v-1.8c.1 0-2.1-.1-2.1-.1l-2-2.3-.2-3.6-1.1-2.3.2-2.3 1.7-2.3-1.5-2.7h-.9l-.4-.7.6-2.4 1.4-.6-1.6-.9 1.9-3.1-1-1v-.9l2.6-2.3v-2.1l1-.2.3-2.4.3-1 1.3.3.9-1.9 1-.3-2.3-1.7.5-1.4h1.1l2.1-.1 1.6.7 1.1-1.1 2.3.4 1.6-.9-.8-4.9.7-2.4h.8l-2-3.5-.2-4 1.6-.8 1.6-2.2v-2.4h1.8l1.5-1 1.9 1 3.3-2.2 1 .7 2.1-.5.9-1.2-1-2.4 1.6-5.9 1.7-.8.6-1.2.8.2 1.9-1.1 2.9.3.8.9-.2 1.3.6.3.2 1.5 1.2-.3.7.7.6-1.9 2.6-.6 1.2-2.3 4.2-1.8 2.8.4 2.6-.7 1.4.7.4-3.4 1.6-1.7 3.8-.2.8 1.7 1.7.9-1.3 3.8.7.9-.3 2 1.1 3.5 1.2 1.5.8 2.6-.6 1.4 1.8 5.2 3 3.8-1 2 1.5 1 .5 1.6-.4.8 2.4 3.6v1.3l-.9 1.1.5 1.5-1.1 3.6Z"/><path id="BI-BL" d="m159.3 227.2 1.2 1.7v1.4l3.4 3.1.8 4 1.7 2.4-2.7 4.8 1.7.9.8 1.9 4 3.7 2.1 7h.7l1.7-2.9 2.6-.9 2.3 2.4-2.6 4.9.5 1.4-1.1 3.7 1.5 1.3.2 1.9 2.9 2.6.2 2-.2.8-3.1 2.2-.8 1.6-.5 7.4 2.4.7-.5 4.1-.7.5-2.3-.7-1.8 3.4-2.1.4-2 1.9.2 2.6-3.6 3-.4 3.1-3.2 4.9v1.8l-.9 1.5-.3 5.5-1.2 2-2.3.2-.9.9-.9 2.2 1.5 2.2-.6 2.4-2.6.6-.9-1.4-.9 1.6-1-.2-.7 1.3h-2.2l-1.3-.4-.3-1.4h-.6c0-.1-2.7 1.1-2.7 1.1l-.9 1.9-1.5.3-.6.8-1.5-.6-.2-.9-1.4.8-2.4-.6-2.8.7-1.2-.7-15.7 2.2-.4-3.5 2.3-2.6v-2.2l2.6-5.4v-1.9c.1 0 1.4-2.6 1.4-2.6l-.4-1.1 1-2 .5-4.7 1.2-.9-.4-.8.8-1.7-1.4-4.1v-1.9l1.2-.9.4-2.7-1.5-1.4-1.4-4.7.6-2.7-.7-1.6 1.8-4.2-2.3-2.6 3.6-.2 3.3-1.5 1.2.7 1.3-.2-.5-.3-.5-2.9.8-1.1.2-2-1.2-1.3.8-4.6 2.8.6 2.5-.8-1.8-1.2H132c0 .1.4-1.3.4-1.3l-.5-.7 1.2-.2-1-2.2.4-.8 1.3-.3 2.5.7.6.9-.5-2.4.7-.5-.8-2.1h.6c0 .1 1.1-3.6 1.1-3.6l-.4-4 1.2-1.9 2.1-1-.2-.9 1.3-1-1.9-1.2-5.6-1.6-2.8.5-7.8-1.5h-.9l-2.8 3.6-1.7-4.7-2.7.4 1.4 9.9-6.7-.6.7.6-1.7 1.7.7.2-.7.7-3.2-1-.4.5-9.6-.9 6.9-.3 1.1-1.1-.6-1.1h-5.1c0 .1-.2 1.3-.2 1.3l-2.9-1.4-1.8.7-.6-1.5 1.7-2-1.6-4.2v-3.2l1.9-1.2h1.5c0-.1.3-1.8.3-1.8l2.5-1.6-.4-1.2.8-.6h2.2c0 .1-.1 1.9-.1 1.9h.8v1l1.8 2.3.5 2.8 3.7 3.4 3.3-5.8 1.4-1.1 2.3-.4 2.8-2.4h1.7l3.7-2.8 15.8-2 .4 3.6 3.8-2.4 4.1-.2 2.1.6h1.3c0-.1 1.2-1.3 1.2-1.3l1.7.4 2.6-2.2 3 3.3Z"/><path id="BI-BM" d="m120.9 277.3-.5-2.4 1.4-.9 1.2-2.8-.2-4.2.9-1.8-1.3-2.2.3-3 1.4-1.4-.3-1.5.7-.9v-1.5l-2-2.6-.9-.3.7-.4v-1.2c.1 0-.6-1-.6-1l-2.4-.4-.5-.8-3.6-1.2-4.3-.4-.7-.6 6.7.6-1.4-9.9 2.7-.4 1.7 4.7 2.8-3.6h.9l7.8 1.5 2.8-.5 5.6 1.6 1.9 1.2-1.3 1 .2.9-2.1 1-1.2 1.9.4 4-1.1 3.7h-.6c0-.1.8 2 .8 2l-.7.5.5 2.4-.6-.9-2.5-.7-1.3.3-.4.8 1 2.2-1.2.2.5.7-.4 1.5h1.4c0-.1 1.8 1.1 1.8 1.1l-2.5.8-2.8-.6-.8 4.6 1.2 1.3-.2 2-.8 1.1.5 2.9.5.3-1.3.2-1.2-.7-3.3 1.5-3.6.2Z"/><path id="BI-BR" d="M209.4 315.8h2.9l1.9.6 1.5-.2 1.7-2 1.6.4 1.4 2.2 2.1 1.1.5 1.3-.9 1.6v1.3l.9 1.1-1.4 4.3-1.2 7.7v4.3l-1.7 2.1-.2 5-1.5 2.5.3 1.6-1 1.7-.2 2.6h2c0-.1 2.4.7 2.4.7l2-1 2.5-3.9 2.4-2.1 2.2-4.1-.5-1.2.5-.4-.8-1.4 1.2-.7h1.3c0 .1.7-.7.7-.7l.7-4.4 1.8-3 1.1-.3.4 1.7-.5 2.3 3.2 1.3 1.3 1.2-.6 2.2.5 1.6-1.3 1.4.4 1.1h2.2v2.4l5.8 1.9h2.9l1 2.7 2.4.5.4 1-1.4.9-.8 1.8-3.7 2.3 2.3 2.1-.8 1.5.9.5 1.1 3.9-4.2.7-.9 2.1-.7 6.6-1.2.3-1.5 2.2-1.9 6.4h-1l-3.2 5.6-.5 3.2-1.8 1v4.2l-3.8 5.1-2.2-2-1.7-4.1h-.9l-.9-1.3-2.1 1-3-2.4-1.8 3.5-1.6.5-1.1-.5-1.3 7.6-2.1 3.3-2.1-.9-4.3.7-1.6 1.6-1.5.5-2.5-1.1-1.3 1.8-3.3.9-1.4 3.5-3.3 4.6-1.2 2.8-1.1 1-.7-.2-1.1 2.3-1.7.4-1.9 2-3.7-.4-.8 1.3-2.2-.4-1.8 1.3-2.8-1.2-3.8 2.2-.8 1.9.6 2-.6 1.9-4.2-2.5-2.2-3.1v-5.1c-.1 0-3.1-6.2-3.1-6.2l-1.6-5.3-2.9-3.1-.9-2.9-2.1-1.1-1.1-4.8-1.6-1.7-1.9-4-1.1-1.2-2.6-1v-2.7l2.1-3.9-.2-1.3-2-2.3-2.8-1.1.2-1.2-1.3-2.9v-3.6l-1.7-2.4-.4-2.6-2.2-1.4-3.1-6.7-3-3.3.4-1.3-1.8-4.4-2.3-1.5-.5-1.3.3-2.6-1.4-2.6-.3-2.8-1.9-2.2.9-1-.9-4.2-1.2-1.9-3.1-2 15.7-2.2 1.2.7 2.8-.7 2.4.6 1.4-.8.2.9 1.5.6.6-.8 1.5-.3.9-1.9 2.7-1.2h.6c0 .1.3 1.5.3 1.5l1.3.4h2.2l.7-1.3 1 .2.9-1.6.9 1.4 2.6-.6.6-2.4-1.5-2.2.9-2.2.9-.9 2.3-.2 1.2-2 .3-5.5.9-1.5v-1.8l3.2-4.9.4-3.1 3.6-3-.2-2.6 2-1.9 2.1-.4.7 1.1 5.4.9.3 1.5 1.3 1.4 2.9 1.7.2 4.4 3.3 4 1.9.4 1.4-1.2 1.3.7-1 1.3.7 1.1v1.7l1.2.6.3 1.6 3.1.9 2.6-.8-.4 5.3-1.4 1.1.7 2.3-2.2 3.2 1.2 3.6 2.7-1.1 4.5-3.6.9-2.3 1.2-1.1 1.1-4.2 1.6-2.9Z"/><path id="BI-CA" d="m418.4 249.5-3.6 2.1-3.7 1-5.9 4.9v-5.1c-.1 0-4.6-1.6-4.6-1.6l-2.1-4.2-4-1-2.4.7.2-4.8 2.9-2.1 2.1-.2-4.4-2-.3-1.1-3.6.3.2-.6h-1.4l-1.1-.8-2.5 3.5h-2.3c0-.1-1-1.2-1-1.2h-2l-.6-2-2.3-2.6.5-.5-1.8-1.5.9-3.1-.2-1.7-2.5-1-1.9-3.6-2.8-1.1-1.5.4-2.6-2.9-2.4 1.8-.2-1-2.8-2.3-.4 1.4-1.7-3.4-2.8 1.3-3.6-.6-2.7 1.9h-.9c0-.1-1.1-2.6-1.1-2.6l.2-1.5.9-.6-.3-1.9 1.1-1.1-.5-1.2.5-.9 1.6-1.5h2.3l-.3-1.8 1.9-1.3 2.7 1 .7-.4-.2-3.4-1-1.1h1.3l.3-1.3 2-.2.8-1.8 1-.6-1-.6.4-1.5 1.1.5.7-.4-2.8-4.4 1.6-3.5 3.7-1.8h1.8l-.5-1.5 1.3-1.1 2.4.2.5-2-.5-1.8.5-.7-1-2.6 1.4-1.9h1c0 .1.2-2.6.2-2.6l1.6-.5.6-.8.4.9 1-.6v-3.4l1.7.2 1.3 1 .3-.8h1.6l1.2-1.1.2-3.3.8-.9 1.8-.4-1.1-2 1.9-.8-.4-.7 4.2 1.1 2.4-2.2 1.6-.4 2.1-2.6 1.8.5 3.2-4.9 2.8-2.6v-1.1c-.1 0 2-.5 2-.5l.9.3 1 2.4 1.3.3.2 1.4 1.7.4.9 2 1.4-.4 3.1 1.3 4.8 5.3 1.5.8-.3 3.5.9 1.6 1.5.6 3.2 3.4 5.3-4.6 2.6-.8 1 .4 1.1 2.1 1.6.7 1.2 1.5 2.7.2 2.1 1.5 13.3-2.2 1.9-1.5 2.9-.3 2.3-1 3.1.9-1.4 1.9-.8.2-.5 2.1-2.7 2.9-1 2.8-1.2 1.1.3.8-.8 2.5-4.5 2.6 1.6 3.2 1.7.9 1.1 2.1 3.6.6 1.5 2.4-.9 2 .4 2.5-.9 3.3-1.1 2.4-1.7 1.7.8.8 2.9-1.6 2.7 4.4-1.7 6.9 2.3 3.3h-1.6l-3.1 1.7-1.6-.2-1.7 2.4 2.9 5.1 3.9 1.7-3.1 2.2-6.1 2.2-1.1 1.3-4.2.7-5 2.4-2.3-1.3-.7-4h-1.4l-1.8 1.3v2.8l-2.1 3.4-8.2 3.5-4.1.5-1.5 2.9-3 3.6-2.1 1.4-.8 1.9Z"/><path id="BI-CI" d="m142.8 122.7.7.8-.2 1.2 2.5-.2 2.3 3.4-.2 2.6 1.1 1.5-.4.9.4 2.2 2.4 3.2-.7 1.4.3 1.2 1.6 1.3.3 2.8 1.2.8 1.4 2.4-1.6 1.7-.4 3.4-1.4-.7-2.6.7-2.8-.4-4.2 1.8-1.2 2.3-2.6.6-.6 1.9-.7-.7-1.2.3-.2-1.5-.6-.3.2-1.3-.8-.9-2.9-.3-1.9 1.1-.8-.2-.6 1.2-1.7.8-1.6 5.9 1 2.4-.9 1.2-2.1.5-1-.7-3.3 2.2-1.9-1-1.5 1h-1.9v2.4l-1.6 2.2-1.6.8.2 4 2 3.5h-.8l-.7 2.4.8 4.9-1.6.9-2.3-.4-1.1 1.1-1.6-.7-2.1.2-2.5-1.4 1.7-.2-.4-1.1 1.1-.4.2-1-1-1.3.5-.5.9-1.8h-.9v-.6l-1.2-.6v-.6l1.1-.3-.7-.8.5-.7-3.3-2.4.4-1.1-1.7-.2-.6-.7 1.1-1.6-1.6.2-.9-1.3-1.1.6-4.3-.2-1.9-3h-1.8v-1.9l-1.8-1.9-1.6 1.2-1-1 1.3-2.5-1.3-2.5.7-.7-.6-.8.4-1.1-2.9-1.7-.5-1.2-.5.5-1.8-.5-.7-1.6-1.7-.9-.8-1.4-1.4.2-2.8-1.9-1.2.6-1.8-1.1-1.8-4.4.2-2.5 1-1.8-.3-1.4-.7-1.1-.9.5-2.4-2.2h-1.4c0 .1-.3-.8-.3-.8l.5-.6-1.1-.8.7-1.1-1.9-1.6-.2-1.9-1.8-1.8-.4-1.5-5.1 1.5-1.2-1.1-2.8-.4-2-2.2-.3-4.6.5-2 5.5-4.9h2.6l.6-7.5 3.3-3.7v-1.1l-1.4-1 .6-.8-.4-1.2h1v-.9l-1.6-.5 2-.9.2-1.1-2.5-1.6L57 88l1.5-.5-1.7-2.2-.3-3.5.2-1.3 1.2-.4v-1.5l.9-2 2.4.4 2-1.9 2.8-.8.8 1.2 2.8-.5 1.6.5 2.7 3 1.6-1.3h1.4c0-.1-.5-1.3-.5-1.3l2.6-1.7.4 1H82v1l1.4.7v.9l1.2.8v1.2l2.9-1.3.5.8 1.9 1 1.4-.6 1.2 1.6.9-.3 1.4 1.2.2 1.3 1.4-1.5 1 .8 1-.3v-.7c.1 0 .9.6.9.6l.2-.6 1-.4.7-.2.7 1.1 2.9-2 1.2 1.3 1.7-.3 4.2 4.1 4.1 1 1.8 1.7 1.1-.2 2.5 4.2-1.8 4.3.5.5 1-.3 2.4 2.9 1.3-.4.2 2.7-.6 1.6.8 1 .2 2.5-4.3 2.9 1.8 1.1-.7 2.6 1.3.2.7.9.8-.2-.6 2 1.3 1.5.7 2.4-1.2 1.2v1.2l2.3 3.3-.3 1.2.9.9-.5 1.2 1.2-.2.8 1.8 1.2-.4v-1.4l.8-.2 2.2-2.9 1.5-.5.9 1.2 1.8-1.6 5.2-2.3Z"/><path id="BI-GI" d="m256 187.1-.2 2-1.1.2-1.3 1.4-.4 3 .6.8-.7 1-.6-.2-.5 1.3.5.6-2.7 2.9.2 1.2.8.2-.5.9 1 5.2 2.8 1.3 2-.3 2.9-2.6.6-1.3 1.2.3-.4-1.4.6-.9 3.5.8 4.4 8.1 3.1 2.6.8-.3-.2 2.4.9 1.8h3c0 .1-.4.8-.4.8l2.7 1.8-.8.2-.7 1.1 2.8 2.1-1.5 1.9 1.1.9-.6 2.3.5 1-.7 1.6.9 1.3-3.1 1.8v.9l-1.8 1.4v.9l-1.1-.5.4 3.4-.9 2.8-.4.6h-.9l-.4 2.2-1.4-.5-.9 1.5.8 1.5 2 .7.2 1 1.8.5 1.4 2.3h.6l-.1 2.5.8.8 2.1-.5-.6-1.3 5-3.2v.8h1l-.4.9.9 1.6-.2.9 2.1 1.2.2 2.6h.7l1.1 1.8 3.1 2.1.7 1.7-2.6 2.4-1.1 2.6v2.9c-.1 0-2.7 2.1-2.7 2.1l2.7 4.1.9 5.4 3 3 .4 1.5-1.1.7.6 3.5 3.1 4.3-.5 1.7.8 1.5h.9c0 .1-.3 1-.3 1l.8.2v3.7c.1 0-1.3 2-1.3 2v4.2l-1.4 2.3.2 3.9-2.7 1.4-1.1 2.7-1.1.8v.9l-.8.4-.3 1.6-1.5 1.1-.3 1.3-5.9.4-.5 1.2-2.3 1.1-4 .7-2.5 2.1v1.3c-.1 0-4.1 3.5-4.1 3.5l.2.9 5.3 2.7-.2.8-1.5.9h-1.9l-8.1 4.1v1.9l-2.4 3.6 2.4 2.1-.3 2.2.5.6-.8.9-4.5-1.4-1.8-2.7-.3-1.5-.4-1-2.4-.5-1-2.8h-2.9l-5.9-1.8v-2.4h-2.1l-.4-1.1 1.3-1.4-.5-1.6.6-2.2-1.3-1.2-3.2-1.3.5-2.3-.4-1.7-1.1.3-1.8 3-.7 4.4-.7.9h-1.3c0-.1-1.2.6-1.2.6l.8 1.4-.5.4.5 1.2-2.2 4.1-2.4 2.1-2.5 3.9-2 1-2.4-.9h-2c0 .1.2-2.4.2-2.4l1-1.7-.3-1.6 1.5-2.5.2-5 1.7-2.1v-4.3l1.1-7.7 1.4-4.3-.9-1.1v-1.3l.8-1.6-.5-1.3-2.1-1.1-1.4-2.2-1.6-.4-1.7 2-1.5.2-1.9-.7h-2.9l-.7-1.7 6.2-5.6 5.9-.6 1.3.5 1.1-1 2.5 2.3 2.5.2.3-1.9-1.8-.8v-1.8l-1.4-1.1.3-.8-1.7-3.4.4-.8-3.9-4.7.5-3.3 1.7-1.1.2-1.2h2c0 .1.5-1.6.5-1.6l.7.2v-.8l.6-.3.6.5 1.3-1 4 1.5 1.2-1.1h2.8v-1.1l1.9-1.2.7-6.9h1.3l-.6-.7.4-.7-.9-.2-.4-1.5 1.2-1v-2.5c.1 0 1.3-.2 1.3-.2l-1.2-.9.9-.5-.9-.8.9-.7-1.6-2 1.1-1.7v-.9c-.1 0 .5-.3.5-.3v-1.8l.7-.6h1.9c0 .1.7-.9.7-.9l-1.5-.8 1.2-.7-.4-1.5-3.8-1.7.3-.7-1.3-1.3-1.6-.2-.8.6-.7-.8h-1.5l-1.4-1.6.5-1.4h1.2c0-.1.4-1.7.4-1.7l.8-.4.5-2.1-2.5-2.2v-.7l-2.5-1.5-.6-2.7h-3.7l-1.4-2.6-1.5.3-.8-.5-.7-2.1 6.8-6.8.8-2.5 3.2-2.3 1.2.6 1.2-.7 1.8.2 1.4-1.1-3.3-2-3.4-.5-3.3-4.1.2-1.8.9-3.2 3.9-3.2 2.5-3.1 2.1-.9.3-1.4v-4.1l-1.4.4-3.9-2-1.3-2.8v-2.1l1.7-1 5.9-7 1.5-.3 4.1-.6 2.3 1.6h2.1c0 .1 2.9 4.8 2.9 4.8l1.8-.5 1.3.6Z"/><path id="BI-KI" d="m358.3 20.5.5 7.3 2.2 3.9v1.9c.1 0 1.6 1.5 1.6 1.5l1.2 5 3 2.8 1.5 2.9-.3 3.3-3.9 3.9.5 3.3 4 3.9-2.1 3.2-.2 2.5.7 1.5-2.5 7.6-.9.9-8.8.3-2.5 3.2-1.5 3.7-.9.6-1.9-.5-1.5.6-2 3.9-5.1 4.7-2.8 4.4-1.9.6-1.7-3.5-3.2.5-4.6 1.9-2.3 2-.8-.3-10.2 9.5-2.3-.7-1.5-1.5-1.5.2-1.4 3.8-2.7 2.8v1.9l-2.6 3.4-2.1-.2-2.8-2-4.6 2.9h-3.5l.3-2.1-1.6-2.8-1.7-1.3.7-2-9.7-6.2 1.6-.9.8-1.4-2.9-3.7v-1.2l-2.3.8v-2.1l-.6-.7-4.6-1.3-2.5-2.5-3.5-1.3-3.6.6-.5-.7 1.1-3.1-1.7-1.9.7-10-.4-1.8-1-.9-1.1-4.6 3.1-5.5v-3.1l1-1.2.9-3.7 1.9-.7 1.2-1.5h1.7l.9-.8-.2-3.2.9-2.3-1.1-2.6.5-.8-1.2-2.3v-4.9c-.1 0-1.7-3.9-1.7-3.9v-1.8l-2.6-4.4.2-1.5 2.8-3.3-.2-4.6.7-.4 9 3.8h4.5c0-.1 3.1 1 3.1 1l4.5 4.3 3.1 6 7.3 6.5 8.2 3.4 5.6-1.3 2.4-1.2 2.9.8 1-.4 2.7-3.9.7-5.4 3.2-1.1.3-2.8 2.2-4.6h1.8c0 .1 2.9 2.3 2.9 2.3l1.9 2.9 5.7.6 4-.4 17.6-4.2Z"/><path id="BI-KR" d="m353.1 202.3-1.9 1.3.3 1.8h-2.3l-1.6 1.5-.5.9.5 1.2-1.1 1.1h-1.1l-1.7 1.3-1.8-.6v3.2l-2.5.5-7.1 6.5v1.5l-1.3.4-1.2 1.4.6.7-.4 1.1-4.1 4.5 1.2 3.2-1.6.6-2.6-1.3.2 3.3-1.4 1.2-1.5-.8-3 2.2.3 2.8-1.1-.4-2.4.8-1.1-1.9h-2.1c0-.1-.2.8-.2.8l1.5.5.2.8h-2.7v2.2l-3.1-1.6-.3.8-2.2 1.2-.7-.9-.6.2.2 1-.8.9-2.5-1.9-1.2.5-1.3-.3.7.7-.8 1.5-2.2-1-1.3.9-1.2-.3-1.5 1.2-3.4.3-.2-.7h-.6l-.2 3.1-1 .4-1.4-.7-.3 1.8-.9.3-5 3.2.6 1.3-2.1.5-.8-.8v-2.5h-.5l-1.4-2.3-1.8-.5-.2-1-2-.7-.8-1.5.9-1.5 1.4.5.4-2.3h.9l.4-.5.9-2.8-.4-3.4 1.1.5v-.9l1.8-1.4v-.9l3-1.8-.9-1.3.7-1.6-.5-1 .6-2.3-1.1-.9 1.5-1.9-2.8-2.1.7-1.1.8-.2-2.7-1.8.4-.7h-3c0-.1-.9-2-.9-2l.2-2.4-.8.3-3.1-2.6-4.4-8.1-3.5-.8-.6.9.4 1.4-1.2-.3-.6 1.3-2.9 2.6-2 .3-2.8-1.3-1-5.2.5-.9-.8-.2-.2-1.2 2.7-2.9-.5-.6.5-1.3.6.2.7-1-.6-.8.4-3 1.3-1.4 1.1-.2.2-2 3-1.5v-1.8l-.7-1.5.9-1.4 2.1-.7 2.5.5 1.7-1.1 2.3-6 1.7-2.2v-1.5l5.2-3.2 1.8-2.7 1.1-.2 3.3 1 3.3-2.2 4 .6 3.1-.3 2.3-1 7.2-5.6 4-1.3 2.2-1.5 6.3-7.1 8.9-.9 2.8 1.9h1.5l2.4 1.6 1.3 2.3 4.2 3.4 2.2 3.2-.5 4 .4 3-.6 2 .6 1.9-1.1 4.8.6 1-1.5 3.4v1.6l-2.6 2.8-2.1 3.8v1.5c-.1 0-2.3 2.1-2.3 2.1l-1.7 3.3.3 2 1.7 1.3v1.7l1.3 1 1.8.2 2 2.6h1.8c0 .1.5.7.5.7l1.9-.2 4.7-2.4 3.1.9v1.6l1.3.6 4.6-2.3 2.1 1.8Z"/><path id="BI-KY" d="m197.4 119.6-1.1.6-1 2.1 1 2.9-.5 3.1-.5.8-2.7-1.1-2.6 3.7v.8l2.7 3.3.3 1.4 1.9-.3 1.6 1.3h2.9l.9 1.3 3.4-1.1.5.8.8-.3-.4 1.8 1 1.3h1l.9 4.2-1.1.4-.8 1.2-.3 2.5 3.6 2.7 2.7-1 .6-1.4 1.3-.4 2.4-2.8-.5 1.4.4.7 2 .9-.4 7.5 1.1.6 2.1 3.8 2.7 1.4 3.7 3.2.4 1.6-.7 1.9 1.1.5 3.5-.5 4-2 1.5.3 1.1 1.4 5.2-1.8h2.3l-1.5 2.7-.9.5-1.4 9.4-1.5.3-5.9 7-1.7 1v2.1l1.2 2.8 3.9 2 1.3-.4v4.1l-.2 1.4-2.1.9-2.5 3.1-3.9 3.2-.9 3.2-2.1-1h-2.9c0 .1-5.7 4.1-5.7 4.1l-1.3-.7-.8.6-.8 3.3-3.2 1-1.2-1.5-4.5-1.2-1.3-1.3-2.7-5.5-3.7-3-.5-1.9.7-1.8-.5-.5-3 .8-2.2 1.5-.9-.2-.5.8h-3.8v-1l-1.1-.2-2.2-3.6-6.3-.8-2.3-3.6-.5-3.5-6.1-1 1.1-3.6-.5-1.5.8-1.1v-1.3l-2.4-3.6.4-.8-.5-1.6-1.5-1 1-2-3-3.8-1.8-5.2.6-1.4-.8-2.6-1.2-1.5-1.1-3.5.3-2-.7-.9 1.3-3.8-1.7-.9-.8-1.7-3.8.2-1.4-2.4-1.2-.8-.3-2.8-1.6-1.3-.3-1.2.7-1.4-2.4-3.2-.4-2.2.4-.9-1.1-1.5.2-2.6-2.3-3.4-2.5.2.2-1.2-.7-.8 1.6-1.6h2.5l2.1.7v.9l1.7 1.4 1.3-.7 1.5.2 2-1.5 7 6.1 5.9.2-.2-2.3.4-.5 2 .2 2.5-1.2 2.6-.2 3.1-2 .8 1.1 3.4-.3 1.4 1 1.9-1.4 2-.4 2.2-3.3 4.6-.3 2.2.9Z"/><path id="BI-MA" d="m230.7 404.3.7.5v1.9c.1 0 1.5.5 1.5.5l-1.8 1.8-.7 2.5 1.6.7-.2 1 2.5.5 1.1-.7 2.2.3-.6-1 1 .5.3-.9h.6l.7 1 1.2-1 1.4.2v-.6l1.1-.4.5 1-.5.4.8.2-.5.6 1.9.3-.3.7 1 .4-.5.9h1v.9l3-.7 1.3-1.2.5 2 .9.2v-1.5h1.5l-.2-1.1 1.5-.6 2.6.3.7-.9 1.4.7-.3.7.8.3.2 1.9 1.9-.6 1.2.3 2.6-2.1.8 1.1h.6l.5-1.1.7.9h1c0-.1 1.9-1.2 1.9-1.2l.4-1.7 2.1.2 2.8-2.2-.2-1.2h2.6l2-1.2h1c0 .1-.2.8-.2.8l1.1.7.8-.6.6.6.9-.6 1.3.4 2.3-.5 3.2.6 3 1.6 1.6-.2 3.6-2.1 1.2-1.7 1.6-.8.2-.9 2.8-1.4h2.3c0 .1 4.6 4.7 4.6 4.7h.9l1.9-2.3.5.3.2.5-.9.7.2 1.5-1.2 1.9.2 1.4-1.1.9-.4 1.3.5-.3v.5c.1 0-1.9 1.4-1.9 1.4l-.2 1.1-2.1 1.9-.6 1.7-2.1.9-3.7 3.5-.6-.5-1.6.7v1.1l-1.2.2-1.2 2-1 .6-1.1-.3-2.1 1.7-2.1.2-1.8 2.8-.3 1.3-1 .8-.2 3.1-1.8 1.2-1.3 4.7-1 .3.9 1.7-.5 2.6h-1.6l-.1.4h1.1c0 .1-.4 1-.4 1l1 2.1-.8.6-.8-1-.7.2.8.7-1.2 3.9h-1.3c0 .1-1.2-.9-1.2-.9v.9l-1.4 1-.2-1-.8-.2-1 .4v1.1c.1 0-.5.5-.5.5l-2.2-1-1.1 4.3h-.6l-.3-1.5-.6 2.1-1.1-1.3-.8.8-3.2.8-1.4 4.5-4.7 3.8-3.3.7v.8l-3.2.7-.5.7-.9-.2-1.5.2v.7c-.1 0-1.8-.8-1.8-.8l-.2.7-1.8.9v2.3l-.5.2-.4-.8-1.7.5-.4 1.5.9.6-.3.8-1.7.6-.3-.7-3.3.2-1.8-2.6-2.2-.5-1.6-1.7-1.8 1.3-.9-.5-2.7 4.3-1.5 4.3-2.9 2.8-1.8-.4-.4 1.3-1.9 2.1-.3 5 1.3 1.5-1.9 2.4-1.7.8-2.2-.8-.3-1.9-1.6-.5-2.2 1.5-1.9-1.6-2.4 1.6-1.7-.7-1.9-2-.9.4-3-1.2-2.7.2 1-1.6-.8-3.3 1-2.8-1.3-4.8-2.7-3.1-3.6-2.8-7.4-3.9-1.5-.2.2-1.4-2.8-3.8.4-2.4-3-2.8-1.7-3.9-.4-1.5.8-4-1.9-1.5-.2-2-2.5-2 .8-2.4-1-1.9.6-2.6-.2-2.7-2.4-1 .6-1.9-.6-2 .8-1.9 3.8-2.2 2.8 1.2 1.8-1.3 2.2.4.8-1.3 3.7.4 1.9-2 1.7-.4 1.1-2.3.7.2 1.1-1 1.2-2.8 3.3-4.6 1.4-3.5 3.3-.9 1.3-1.8 2.5 1.1 1.5-.5 1.6-1.6 4.3-.7 2.1.9 2.1-3.3 1.3-7.6 1.1.5 1.6-.5 1.8-3.5 3 2.4 2.1-1 .9 1.3h.9l1.7 4.1 2.2 2Z"/><path id="BI-MU" d="m229.4 211.8-.2 1.8 3.3 4.1 3.4.5 3.3 2-1.4 1.1-1.8-.2-1.2.7-1.2-.6-3.2 2.3-.8 2.5-6.8 6.8.7 2.1-1.6.7-.8 3.6.7 2.1-.3 2.2-1.7 1.8v1.3c.1 0-1.3 1.6-1.3 1.6l.2 1.4-1.2 2h-.6c0 .1-.4-.8-.4-.8l-4.4-3-4.1 1.7-4 9.8-5.2.2-.3 1-1.6.8-.7 2.2-1 .6H193l-.7-1.2-1-2.8.9-2.1-1.2-4.1-1.6.3-1.8-2.4-1.5.4v-4.1c-.1 0-1.5-.4-1.5-.4l-1 .5-1.9-.5-.9-1-3.4-.2-.6 3 .6 4.6-2.6.9-1.7 2.9h-.7l-2.1-7-4-3.7-.8-1.9-1.7-.9 2.7-4.8-1.7-2.4-.8-4-3.3-3.1v-1.4l-1.3-1.7h3l2.1-3.3-.6-.3v-2.1c.1 0 1.1-.7 1.1-.7l.8-2.6 2-2.4.4-3.2 1.7-2.6.4-3.5 1-.9.9.2.5-.9-.6-2.2-5.6-5 .5-.5-.4-1.8 2.3-2 .9-1.9 6.1 1 .5 3.5 2.3 3.6 6.3.8 2.2 3.6 1.1.2v.9l3.9.1.5-.8.9.2 2.2-1.5 3-.8.5.5-.7 1.8.5 1.9 3.7 3 2.7 5.5 1.3 1.3 4.5 1.2 1.2 1.5 3.2-1 .8-3.3.8-.6 1.3.7 5.7-4h2.9c0-.1 2.1.9 2.1.9Z"/><path id="BI-MW" d="m209.4 315.8-1.6 2.9-1.1 4.2-1.2 1.1-.9 2.3-4.5 3.6-2.7 1.1-1.2-3.6 2.2-3.2-.7-2.3 1.4-1.1.4-5.3-2.6.8-3.1-.9-.3-1.6-1.3-.6v-1.7l-.6-1.1 1-1.3-1.3-.7-1.4 1.2-1.9-.4-3.3-4-.2-4.4-2.9-1.7-1.3-1.4-.3-1.5-5.4-.9-.7-1.1 1.8-3.4 2.3.7.7-.5.5-4.1-2.4-.7.5-7.4.8-1.6 3.1-2.2.2-.8-.2-2-2.9-2.6-.2-1.9-1.5-1.3 1.1-3.7-.5-1.4 2.6-4.9-2.3-2.4-.6-4.6.6-3 3.4.2.9 1 1.9.5 1-.5 1.4.4v4.1c.1 0 1.6-.4 1.6-.4l1.8 2.4 1.6-.3 1.2 4.1-.9 2.1 1 2.8.7 1.1h2.2l1-.5.7-2.2 1.6-.8.3-1 5.2-.2 4-9.8 4.1-1.7 4.4 3 .4.9h.6c0-.1 1.2-2.1 1.2-2.1l-.2-1.4 1.5-1.6v-1.3c-.1 0 1.6-1.8 1.6-1.8l.3-2.2-.7-2.1.8-3.6 1.6-.7.8.5 1.5-.3 1.4 2.7h3.7l.6 2.7 2.6 1.5v.7l2.4 2.2-.5 2.1-.8.4-.4 1.6h-1.2c0 .1-.5 1.6-.5 1.6l1.4 1.6h1.5l.7.8.8-.6 1.6.2 1.3 1.3-.3.7 3.8 1.7.4 1.5-1.2.7 1.5.8-.7 1.1h-1.9c0-.1-.8.5-.8.5v1.8l-.6.3v.9c.1 0-1 1.7-1 1.7l1.6 2-.9.7.9.8-.9.5 1.2.9-1.1.2v2.5c-.1 0-1.3 1-1.3 1l.4 1.5.9.2-.4.7.6.6h-1.3l-.7 7-1.9 1.2v1.1H234l-1.2 1.1-4-1.5-1.3 1-.6-.5-.6.3v.8l-.7-.2-.5 1.7h-2c0-.1-.2 1.1-.2 1.1l-1.7 1.1-.5 3.3 3.9 4.7-.4.8 1.7 3.4-.3.8 1.4 1.1v1.8l1.8.8-.3 1.9-2.5-.2-2.5-2.3-1.1 1-1.3-.5-5.9.6-6.2 5.6.7 1.8Z"/><path id="BI-MY" d="m384.5 155.4.4.7-1.9.8 1.1 2-1.8.4-.8.9-.2 3.3-1.2 1h-1.6l-.3.9-1.3-1-1.8-.2v3.4l-1 .6-.4-.9-.6.8-1.6.5-.2 2.7h-1c0-.1-1.4 1.8-1.4 1.8l1 2.6-.5.7.5 1.8-.5 2-2.4-.2-1.3 1.1.5 1.6h-1.8l-3.7 1.8-1.6 3.5 2.8 4.4-.7.4-1.1-.5-.4 1.5 1 .6-1 .6-.8 1.8-2 .2-.3 1.3h-1.3l1 1.2.2 3.4-.7.4-2.7-1-2.1-1.8-4.6 2.3-1.3-.6v-1.6l-3.1-.9-4.7 2.4-1.9.2-.5-.6h-1.8c0-.1-2-2.8-2-2.8l-1.8-.2-1.2-1V196l-1.8-1.3-.3-2 1.7-3.3 2.1-2.1v-1.5c.1 0 2.3-3.8 2.3-3.8l2.5-2.8v-1.6l1.5-3.4-.6-1 1.1-4.8-.6-1.9.6-2-.4-3 .5-4-2.2-3.2-4.2-3.4-1.3-2.3-2.4-1.5h-1.5l-2.8-2-8.9.9-.6-1.2 1-1.7-.8-.8.3-1.4-1.8-1.5 3.5-2.2.8-1.6 1.4-.5-2.6-2-3.5-.7-3.1-1.8-3.6 3.1-.3 1-4.3-3.9 1.1-.5-.2-.7-1.6-.9-.4-1.8-2-1.2-.8-1.5.6-2-5.4-3.2-.5-1.2 4.6-2.9 2.8 2 2.1.2 2.7-3.4v-1.9l2.6-2.8 1.4-3.8 1.5-.2 1.5 1.5 2.3.7 10.2-9.5.8.3 2.3-2 4.6-1.9 3.2-.5 1.7 3.5 1.9-.6 2.8-4.4 5.1-4.7 2-3.9 1.5-.6 1.9.5.9-.6 1.5-3.7 2.5-3.2 8.8-.3.9-.9 2.5-7.6-.7-1.5.2-2.5 2.1-3.2-4-3.9-.5-3.3 3.9-3.9.3-3.3-1.5-2.9-3-2.8-1.2-5-1.5-1.5v-1.9c-.1 0-2.3-3.9-2.3-3.9l-.5-7.3V18l1.1-1.5.6-2.8 2.7-3 4.2-.8 2.9 3.7.9-.3.9.9 1.7.3 1.2-1.7 3.7-.8.9.6.2 1-1 2 .4 1.2-.6 1.3 2.7 1.7.2 3.3 1.2.4 2.1-.6 1.1 2.6h1l1.3 1.7 1.9 1.1.4 2.5 2.3.9h3.2c0 .1 2 2.1 2 2.1l-1.3 2.1.3.8-.6 1.8-2.7 3.1-.9 2.5-.2 3.6-1 .9-1.9 6.2-2.5 3v1.1l-2.4.2-.6 1 .3 6.4-1.2 1-.7 2.3-1.4 1-.9 2.5-2 2-3.1 5.1-1.3 3.9-2.6 2.8-1.6 3.2 2.5 3.9 2.8-.2 2.2 2.5 1.4.5 3.1-2.4 7.1-3.5 1.7-2 3.8-.6-.3 1.5.7 1.2-1 3.5-1 .3.2 1.3-.9.3-.3.8h-1.7l-.3 1.6-.9-.5v1.3c-.1 0-1.5 1.1-1.5 1.1v.8l-3.2 2.5-1.6-1.6-2.5.9v1.1l-.8.2.8 1.6-.4.7-2.1 1.4-3.2.7.4 1.8-1.3.9 1.6 1.2.9 1.5-1.1 2.1.6 1-1 1.9.3.9-.9 2.1-.5-.7-.7.2.6.5-.7 2.1-1-.4-.6 1.3.5.6-.8 1.8.3 1-1 .2.2 1.7-.7.8h-.9l-.4.9v.8l-1 1.7v.5l1.6-.3v1l-.8.2 1.3 2.1 1.8-1.2 2.1 1.3.3 4.8.7.7-.3 1 2.6 1.5.3.9 1.7-.9 1.5 2.4-1.4.5 2.5.5 1.1 1.8 1.3.6.5 2.1 1.2 1Z"/><path id="BI-NG" d="m290.7 117.8.5 1.2 5.4 3.2-.6 2 .8 1.5 2 1.2.4 1.8 1.6.9.2.7-1.1.5 4.3 3.9.3-1 3.6-3.1 3.1 1.8 3.5.7 2.6 2-1.4.5-.8 1.6-3.5 2.2 1.8 1.5-.3 1.4.8.8-1 1.7.6 1.2-6.3 7.1-2.2 1.5-4 1.3-7.2 5.6-2.3 1-3.1.3-4-.6-3.3 2.2-3.3-1-1.1.2-1.8 2.7-5.1 3.2v1.5l-1.7 2.2-2.3 6-1.7 1.1-2.5-.5-2.1.7-.9 1.4.8 1.5v1.8l-3.1 1.5-1.3-.6-1.8.5-2.9-4.7h-2.1c0-.1-2.3-1.7-2.3-1.7l-4.1.6 1.4-9.4.9-.5 1.5-2.8h-2.3l-5.2 1.9-1.1-1.4-1.5-.3-4 2-3.5.5-1.1-.5.7-1.9-.4-1.6-3.7-3.2-2.7-1.4-2.1-3.8-1.1-.6.4-7.5-2-.9-.4-.7.5-1.4-2.4 2.8-1.3.4-.6 1.4-2.7 1-3.6-2.7.3-2.5.8-1.2 1.1-.4-.9-4.2h-1l-1-1.4.4-1.8-.8.3-.5-.8-3.4 1.1-.9-1.2h-2.9l-1.6-1.4-1.9.3-.3-1.4-2.7-3.3v-.8l2.7-3.7 2.7 1.1.5-.8.5-3.1-1-2.9 1-2.1 1.1-.6 2.3 1.8h1.5c0 .1 1.8 2 1.8 2l.4-.4 1.9 1 1 2 1.5-.8.9.5h1.1l1.6-1.4 3.1-1 1.5.8.9-.5 1.7-3.3.5-3.4.8-.6.2-2.4.9-.6 3.4.3 1.7-1.8 1.9.2 1.6.5.9 2.7 2.8.5 1.1 1.2.3-1.2 1.5-1.4 3-.5.5-.9 1.1.3.9-.7h3.3l.3-1.9 2.3-.3.9-.9-.6-.4.6-2.2 5.7-7.4 2.9-10.7.5.7 3.6-.6 3.5 1.3 2.5 2.5 4.6 1.3.6.7v2.1l2.2-.8v1.2l3 3.7-.8 1.4-1.6.9 9.7 6.2-.7 2 1.7 1.3 1.6 2.8-.3 2.1h3.5Z"/><path id="BI-RT" d="m362.3 332.1.2.8 1.7.7v1.8c-.1 0 1.5 3.2 1.5 3.2v1.9l1.3 1.2v4.1l-1.1.8-.2 1.3-1.8.9-1.2-1.2-.2-.7-1.1-.2-.4-1.3.5-.5-2.3-1h-2l-1.7 1.3-.9-1.3-1.8-.3-2.6 1.5v.9l-1.4.1.2.7-1.5 1.5.4 1.2v.6l-.3 1.6-.4 1.4-1.4.6-.5 2.4-1.5.7.8 1.4-.7 1.5-2.4 1.5v1.3l-1.5 1.2-.4-.5-2.5 3.2-1 .4-.4-.4-1.1.3-.7 1.2h-1.1l-.9.7.8 1.9-.9 1-1.3 5-2.3 1.1.2 1.3-2.1 2.7.7.5-.3 2.1-.8.3.3 2.2-1.1 1.7.3.8-3 3.8 1.2 3.4 2.5 1.1-.2 1-1.2.7-.3 1.8-1.3.4-.4 1.9-2.8 2.2-1.6.2-1.2 1.3-.5-.3-1.9 2.3h-.9l-4.6-4.6h-2.3c0-.1-2.8 1.3-2.8 1.3l-.2.9-1.6.8-1.2 1.7-3.6 2.1-1.6.2-3-1.6-3.2-.6-2.3.5-1.3-.4-.9.6-.6-.6-.8.6-1.1-.7.2-.7h-1c0-.1-2 1.1-2 1.1h-2.6l.2 1.2-2.8 2.2-2.1-.2-.4 1.7-1.9 1h-1c0 .1-.7-.7-.7-.7l-.5 1.1h-.6l-.8-1.2-2.6 2.1-1.2-.3-1.9.6-.2-1.9-.8-.3.3-.7-1.4-.7-.7.9-2.6-.3-1.5.6.2 1.1h-1.5v1.4l-.9-.2-.5-2-1.3 1.2-3 .7v-.8l-1.1-.1.5-.9-1-.4.3-.7-1.9-.3.5-.6-.8-.2.5-.4-.5-1-1.1.4v.6l-1.4-.2-1.2 1-.7-.9h-.6l-.3.8-1-.5.6 1-2.2-.3-1.1.7-2.5-.5.2-1-1.6-.7.7-2.5 1.8-1.8-1.3-.5v-1.9c-.1 0-.8-.5-.8-.5l3.8-5.1v-4.2l1.8-1 .5-3.2 3.2-5.6h1l1.9-6.5 1.5-2.2 1.2-.3.7-6.6.9-2.1 4.2-.7-1.1-3.9-.9-.5.8-1.5-2.3-2.1 3.7-2.3.8-1.8 1.4-.9.3 1.5 1.8 2.7 4.5 1.4.8-.9-.5-.6.3-2.2-2.4-2.1 2.5-3.6v-1.9l8-4.1h1.9l1.5-.8.2-.8-5.3-2.7-.2-.9 3.9-3.5v-1.3c.1 0 2.6-2.1 2.6-2.1l4-.7 2.3-1.1.5-1.2 5.9-.4.3-1.3 1.5-1.1.3-1.6.9-.4v-.9l1-.8 1.1-2.7 2.7-1.4-.2-3.9 1.5-2.3v-1l.9-.2 2.9 2 1.4.2 3.9 4.6 1.1.4 1.2 2.6 1.8 1.7 2.3-2.5 4.2-3 4.9-2.1 9.3.3 2.6 2.3.6 2.2 4.3 5.1 1.6-2.3 1.7-.2 2.6 1.8 2.6.2.6.6 1.6 5.2 5.5 1.4 1.4 1.2 1.4-.5 2.4-2.4 1.7 1.5 2.2.7Z"/><path id="BI-RY" d="m346.3 210.1.3 1.9-.9.6-.2 1.5 1.1 2.5h.9c0 .1 2.7-1.8 2.7-1.8l3.6.6 2.8-1.3 1.7 3.4.4-1.4 2.8 2.3.2 1 2.4-1.8 2.6 2.9 1.5-.4 2.8 1.1 1.9 3.6 2.5 1 .2 1.7-.9 3.1 1.8 1.5-.5.5 2.3 2.6.6 2h2l1 1h2.3c0 .1 2.5-3.4 2.5-3.4l1.1.8h1.4l-.2.6 3.6-.3.3 1.1 4.4 2-2.1.2-2.9 2.1-.2 4.8 2.4-.7 4 1 2.1 4.2 4.5 1.6v5.1c.1 0 6-4.9 6-4.9l3.7-1 3.6-2.1 2.5 2.9.2 2.3h2.9l3.3 1.7.8 1.1-1.3 5-1.3.9-1.2 2.1-4.9 3.4-.5 1.4-3.5 2.5-4 1.1-4.7 3.5-3.5 1.3-.8 1-6.7 2.1-2.5 2.2-2.1 3.6-1 .3-.3-1.9-2.2-1.1-1.9.8-.7 1.7-4 2.7-2.4 2.9v.9l-1.9.9-1.6 1.7.7 1.8h1.7c0-.1.2 1.7.2 1.7l-1.5 1.9 1.6.4-.2 2.9-1.2.4v1.1l-.9.6-.9.9h-1.5c0 .1-1.6 1.1-1.6 1.1l.9.7-.2 1.2-1.3 1.2v.8h-1.2l-.4 2.9h-1v2.8l-1.3.2-.4.9.8 1.4-1.5.6v1.5c.1 0-.5.5-.5.5v1.1l-.6 1.5-.7 1.2h-1.6l.4.8-1.1 1.3 1.1.4-.7.9.2 1-2.2-.7-1.7-1.5-2.4 2.4-1.4.5-1.4-1.2-5.5-1.4-1.6-5.2-.6-.6-2.6-.2-2.6-1.8-1.7.2-1.6 2.3-4.3-5.1-.6-2.2-2.6-2.3-9.3-.3-4.9 2.1-4.2 3-2.3 2.5-1.8-1.7-1.2-2.6-1.1-.4-3.9-4.6-1.4-.2-2.9-2-.9.2V308l1.5-2v-3.7c-.1 0-.9-.2-.9-.2l.3-.8h-.9c0-.1-.8-1.7-.8-1.7l.5-1.7-3.1-4.3-.6-3.5 1.1-.7-.4-1.5-3-3-.9-5.4-2.7-4.1 2.6-2.1v-2.9c.1 0 1.3-2.6 1.3-2.6l2.6-2.4-.7-1.7-3.1-2.1-1.1-1.9h-.7l-.2-2.5-2.1-1.2.2-.9-.9-1.6.4-.9H283v-.8l.9-.3.3-1.8 1.4.7 1-.4.2-3h.6l.2.6 3.4-.3 1.5-1.2 1.2.3 1.3-.9 2.2 1 .8-1.5-.7-.7 1.3.3 1.2-.5 2.5 1.9.8-.9-.2-1 .6-.2.7.9 2.2-1.2.3-.8 3.1 1.6v-2.2h2.8l-.2-.8-1.5-.5.2-1h2.1c0 .1 1.1 2 1.1 2l2.4-.8 1.1.4-.3-2.8 3-2.2 1.5.8 1.4-1.2-.2-3.3 2.6 1.3 1.6-.6-1.2-3.2 4.1-4.5.4-1.1-.6-.7 1.2-1.4 1.2-.4v-1.5l7.1-6.5 2.4-.5v-3.2l1.9.6 1.7-1.3h1.1Z"/></g></svg>