<svg xmlns="http://www.w3.org/2000/svg" xmlns:amcharts="http://amcharts.com/ammap" id="Layer_1" viewBox="0 0 512 512"><g id="_x3C_defs"><amcharts:ammap bottomLatitude="1.653" leftLongitude="8.498" projection="mercator" rightLongitude="16.193" topLatitude="12.873"/></g><g><path id="CM-AD" d="m208.3 314.5.9-.8 1.5-2.8-.4-1.3-1.1-1.4-.2-.9v-3c.1 0 .7-.5.7-.5v-1c.1 0-.3-1-.3-1l-1.4-.5-2-.2-1.2-.6.3-.5.7-4.2-.4-1.4 1.5-.5 2.2.7 1.3-1 2.1.2 1.9-1.1.5-1.5-.3-1.2h.7l-.3-.4.3-.4V288c.1 0-.2-.6-.2-.6l.3-.5h.9c0-.1.4-.5.4-.5l.9.6 1.6-.6.4-1.4 1-1 .2-2.3 1.4-.8v-.7l-.6-1.1.4-.8.7-.3v-.6h-.8v-1.3l-.4-.3h-.7v-.3l1-1.9 1.5-.5 1.4-1.6 2-.8.8-1.1 2-.8 2.3-2.3 1.4-.3.4-.8 1.7.3.5-.6v-1.4l-3.9-4.1-.3-1.7h-1.8l-.9-.2v-.5l2.2-1.3 2.5-3.3 5.9-6.4.9-1.9 1.1-.8-.4-3.3.8-1.1.3-2.5.8-1.1.3-1.4 1.3-2.2 2.5-2.2.8-1.6 1.7-2.1.5-1.4-.7-3.9 1.7-3.2.5-.3 4.1 4.8 4.1 3.9 2 1.5 3.6.8h2.2l1.1 2.6-.6 2 .2 2.9 8.1 3.7 7.1.9 3.8 1.7 3 .5h4.8c0-.1.6.2.6.2l.5-.9-.2-1.8.3-1.2 1.1-1h1.5l2.4.7 1.9 2.3 2.3.8.4.8 1.6 1.1h.6l.4-1.2.8-.7 1.5-.3 2.7-1.5 2.5.5 1.8-.2.8-.5 4.4-.7.5.2.3.8-.2 1.7.2.5 2.4.9 7.8.7.9.8.4 2.8 2.7 1.6v1.3c-.1 0 1.1.9 1.1.9l1.7 2.9 1.9.6.6.9.4 2v2l-.6 2 3.7.6 5.1-.2 1.9 3.7 2.2.3.8 1.2 1.2.7 2.9-.6 4-2.5h1.6l7.6-3.6h2.6l2-1.2 2.6-2.9 2.1-.5 2 .7-.8.4-1 1.3-1.2 2.2v1.4c.1 0 .5.3.5.3l-1.3 3-1.2.2-.9 1.7-.4 2.7.2.9-1.1 1.5-1.3 3.4-.7 1-.4 1.7-.7.7-1.3-.2-2.4 1-6.8 14.8-.2 1.1.3 1.1-2.9 4.4-1.2.7-7.2 2.4-1.2 1-1.3 1.8-1.5 1.3-2.1.6-.9-.2-.6-1.3-.8.2-1.5 1.7-2.2-.2-1.5 1.1-9.3 1.1-2-1.4h-.8l-6.4 2.8-17.5.7-24.9-.2-16.3-.3-1.5-3-7.5-5.8-1.8-.2-5 1.4h-4.1l-4.1-4-.9.3-.9 1.1-3.6 1.3-2.3.3-1.1.9-2.1 1-2.5 2.8-17.6 4.7Z"/><path id="CM-CE" d="m208.3 314.5 17.6-4.7 2.5-2.8 2.1-1 1.1-.9 2.3-.3 3.6-1.3.9-1.1.9-.3 4.1 4h4.1l5-1.4 1.8.2 7.5 5.8 1.5 3 16.3.3-.3 3.7.8 1.6.9.5 1.8 3 .7 3.3 1.6.8.5 2.3 2.7 4.1v1.4l-2.2 5-2.6 4-1.9.4h-2.1c0-.1-2.1 1-2.1 1l.3.6 2.2 1.5 4.5 4.3 3.2 3.8-.6 3.6 3.2 1.1 2.8.3 2.5 5.8-1.1 9.6-.9 1.4-2-.5-2.2.2-1.5-.3-2 .4-1.8-.2-3.6 2-1 1.2-1.5 5-1.7 1.8-.3 1.6.3.8-.5 4.2-1.1 3.8 1.1 1.1.3 1.2-.3 1-2.6 1.3-3.3 3.1-4.3.9-1.1 1.2-1.3.4-.3 1.4 1 2.2 4.1 2.3-.2 5.4-1.5 3-1.3-1.1-1.7-3.5-1-.2-.9.2-1.1 1.8-5.5 4.4-2.2 2.3-1.4 5.8-.9 1-1.5-.3-1.6 1h-.5v-.8l.5-1-.4-.6-5.9-2.4-.7-1.1-.8-.2-.7.3-.9-.4-.7-.9-1 .3-1 2.8-2.5.8-1 1.1-.9.2-.8 1.5-1.1 1.1-.8 3-1 1-4.3 1.9-1.9.4-6.3-.4-2.9.8-1.8-.5-3.4.4-1.1-1.4-1.5-1.1v-1.3l-.2-.8-1-.2-1-1.2-.8-4.4-.9-1.2-1.4-1.1-1.7.5-.8-.2-.5-.8h-1l-3.8 1-.5-.5-.8-2.4-.9-.5-8.8 2.2-10.3 3.1-3.7.5-1.5-5.7-.9-1.7.8-1.1h1.7l1.8-3.4v-2.1l1.1-1.1v-2l.6-2.1 1.1-1 2.3-.8 4.9 2.8 1 1.4.8.4.7-2.3 1.3-.8-.3-.6 1.1-1.6-.7-4.7 1.5-1.9.7-2.8 4.1-1.6 1.5.3.7-.7 1.8-.6h1.6l2.8-1 1.5-1 3.3-.6V392c.1 0-.5-.7-.5-.7l-1.7-.9-1.2-2-1.7-1.6v-1.2l-1.3-1-.2-1.1-1.9-2.1-.2-1.6.6-.5.6-4.3-.2-.6-.7-.3-1.6 1-2.2-.7-.9 1.6-.8 3-1.4 1.3-.8-.2-.7-1.5-.7.3-.7 1.2-1.6.6-1.1 1.3-1.6.5-5.8-2.2-1.1.2-1.1-.5-.4-.9.7-3 2.1-3 .8-.2 1.1-3.1-1-.9H172l-2.5 1.6h-1c0-.1.5-2.9.5-2.9l3.8-2.8 2.6-3.3 3.2.5 2.5-.8 4.8-2.5 1.5-1.8.8-.2 3 3.4 1.8.3 1.9-1.4 1.6-7.1 1.7-2.2 2.2-.6-.3-1.1.5-2.4-.2-1 1.1-1.1 1.3-.4.6-1.2 1.8-1.5.3-1.5-.8-.9.3-.7.5-.2.9-3-.9-3.3.9-1.7-.3-1.1 3.2-2.9 1.5-2.1-1.6-1-.2-2.8-.4-.9.4-1.7-.3-2.1Z"/><path id="CM-EN" d="M304.4 133.1h-.5c0-.1-1.4-3-1.4-3l1-.2.5-1.4 1.4-1 .2-2.2 1.8-2.5.3-1.6-.2-1.7.7-1.2v-2.5l.2-.8 1.2-1.2v-1.2l-.5-.8-.5-2.6.4-2.2.3-.8 1.9-1.8 1-3.5 1.3-2.1.8-.6.7-1.1.7-1.8.2-3.1.6-.5 1.7-.4 2.3-1.2.9-2.1 1.7-1.5.8-1.2.5-.2-.2-1.1 1-.7.5-.7.6-1.9 1.5-1.7.6-2 1-.3.8.6 2.1.4 1.7 1.6h1.7l3.2-1.4 1.4-1.9 2.3-1.5 5.8-2.3 1.2-2.2 2.8-.6 4.6-1.8.9-.7.4-3.3-.3-1.5-1.5-1.6-1.4-.8-.9-1.2v-.4l2.4-2.1v-3c-.1 0 .3-.6.3-.6l-.4-.5 1.7-2-.2-1 .8-1.1-1.6-3.3v-.7l1.3-.8-.5-1.3.6-.8.2-1.3.9-.7-.2-1-.4-.2-.2-.7-.4.4h-.7v.4l-1.3-.4.3-.4-.5-1.1-2.1-.6.5-1-.3.2-.2-1.2-1.5-.7v-.8h.4l-.2-.6-.9-.2-.6-.9-.4.2-.7-.5-.4.4-.2-.5-.5-.2-2.5.3-2.1-.6-1.2.6-.3-.6-.2.9-.5-.8-2.4.4-1.6-1.9-.7-.2.3-.5-.2-.4.9-.2-.2-.4.3-.2h-.8l-.3-1.2 1-1.6 1.4-.8v-.6l.9-.9.8-1.7v-.5l-.5-.2-.3-1-1.7-1.4.2-.6.4-.5 2.2-1.1.7-.2 1.6.5.3-.3.4-2-.3-.6-1-.5v-.4l.8-.2 2.5 2.6 1.9.3.7.6v.3l-1 .4-.4.6.2.4h1.3l.5.2.8-.6v-1.1l1.9-3.3-.2-3.9h.5l.6.1.7.9.4.9-.5.8-.2 1.2 1.1.6.4 1.2h.7l.9-1v1.4h.7l1.2.8 1.9-.2.5.3.3.5-.8 1.2.3.8.5.2.6-1.1.5-.2.4.6.3 1.7h2.4l.5.3 1 3.5v2.1c-.1 0 .2.9.2.9l-.4 1.2.3.4.9-.7.4 1.7 1.1 2.1V31l-.5 1.3.4 1.3-.4 3 .4 1.1-.8.9 1.9 2.1 1.5 1h.6l.9-.9h.4l1.3.7v1.2c-.1 0 .5.2.5.2l.5 1-.2.5-.7.3.8.9h.9l.4.5-.5 1.1h-1l.5 1.9-.9.8v.5c-.1 0 .4 2.1.4 2.1l.8.4.2-.8.7.7v1.1l1.1 1.3-.3.7-1 .3-.3.5.8.6v.8h-1.1l-.4.9.2.7.5.4v.7c-.1 0 .2.6.2.6l-.2.9.5 1 .4.3v1.3l1.5.8.3 1.2-.4 1.2-1.6 1.3v.5c.1 0-.4.2-.4.2l-.6 1v.4c.1 0-.7 1.1-.7 1.1l.5 1.9-.7.7-.3 1.2.2.5-.8.4v.8l-.4.2.3.6v1.2l.4.5-.7.5.4.4-.3.6.5 1.2-.2.4v.7c.1 0-.4.6-.4.6l.5.2v1.9l.4.3-.4.5.7 1.5v1.9l.5 1.3.9.8.4 2.5v1.2l-1 1.2v1.5l1.4 2.8 1.2 1.5 1.2 2.9v1.1c.1 0-.5 1.5-.5 1.5v2.3l1.2 1 1.7.6 1.4 1.4.5 1.5 1.4 1.6v1.6l.6.8v.5l.5.4v.9c.1 0 2.1.7 2.1.7l1 1.4.7.4 1.2 1.9 1.4 1 1.5 3.1.9.4.4.9.7-.2 1.9 1.5 3.4 1.5 1.2.8.4 1-4.2 1.2-6.9 1.1-4.3-1.7-4.5-1.1-1 1.4-2.3-1.1-1.2-.2-.9.5-.4.9h-1.5c0-.1-2.2-1.4-2.2-1.4l-1.4-.2-2.9 1-2.2 1.7-1.5.8h-1.6c0-.1-1.9-1.1-1.9-1.1h-2.2l-7.1-2.2-2.6-.5-6.1.6-1.7-.3-3.2.3-1.2.3-.8 1.1.5-3-.3-1-4.4-1.8-1.9.4-1.2-1.8-1.3-.6-.9-1.7-.7-.5-.8-.4h-2.3c0-.1-1.4-.8-1.4-.8l-2.5.5-5.1-1-1 .4-.8 1.8.3 1 1.1.9v.6l-.3.4-2.8.6-2.2 1.3-2.3-.4-3 .9Z"/><path id="CM-ES" d="m348.2 310 .2.3-.4 1.8.6 1.3 1.3 1.2 1 1.9.2.9.6.5 1 .2 1.2-.3.4.3 1.6-1 .4.2.5.9.3 8.7-1.5 4.9.7 2.2.8 1.4-1.2 1.8v2.9c-.1 0-1.2.6-1.2.6v.8l-1.3 2.5.2.4-1.1 1.1.2.5 2 1.8 3.3.6 1 1.4.8 3.7-.7.6v.5c-.1 0 .5 2.2.5 2.2l-.4.2-.2 1.2.8 1.3-.5 1.5 1.3 2.7-.4.5.6 2.9-.3.8-.5.3.8 1 .2 4.4.5 1v.4c-.1 0 .6.4.6.4l.4.8h.6c0 .1 1.9 2.5 1.9 2.5l1 .6h.8c0 .1.1.6.1.6l.7.3.8 1.1 2.3 1 .2.5h1.5l.2.4 1.3.2.8 2.4h.6l.9 1.8.8.7.7 2.2-.2.9.5.8v1.7l.2.3v1l-.3.6.3.8 1 .8.5 1.5h1.1c0-.1.4.5.4.5l-1.7.9-3.5.9-.4.7h1.4l.7 2.3 6.2 10.2 11.5 12.1 12.9 15 .3.3.3-.4 2.2-.3.5.5h.7l1.7 2.7 1.9 2.1.6-.5h1l.5.8.8.3v.7l1 1.9.6.5.6 1.9v1.7l-.6.8-1 .5.6 1.7v1.8c-.1 0 1.1.5 1.1.5l-.6 1.1-.3 1.6.8 1.9-.8 3.1.8 1.6-.4 1.1.4.9.9.7.6 1.5 1.5 1.9 1 3.3-.3 1.2 1.2 1.3-.5.8-.9.4-.6.6h-.2l-.4-.9h-1.6l-.4.2-.3 2.3.4 2.5-1 .8.8 1.1-1.3 1.7v1.4l1.1 1 .5 2.5h1v1.6l.5 1.7.6.8.3 1.6-.3 1.6.6.9-.4 1-.8-.6h-.5l-1.3.4-.9 1.4-1.4-.2-.4-1 .2-1-.4-.7.7-1.3v-.6h-3.3l-1.9-.6-.2-.6-1.3.4v-.4c.1 0-.5-1.6-.5-1.6h-.9l-.6-.7-1.2-.5-1.9-2.5-.7-.3h-1c0 .1-1.8-.8-1.8-.8h-1.4l-2.7-.9-1.2.2-.9-.6-.9.3-1.7-1-2.4.8-1.1.8-2.8 1.2-.4-1.3-.7.4-.6-.2v-1l-.7-1.1-1.4-1h-.7c0-.1.4-.9.4-.9l-1.7-.4h-.8l-.8.9-.7-1.1h-.4l-.3 1.2-.2.2-.9-.2-.6 1.5h-1.4v-.8l-.4-.2-1.1 1.1-.4-1-2.1-1.5-.8 1.3-2 .3-1.1-.9.7-.8.2-.8-1.5-.7-.2-1.6-.7.3.2.9h-1.1l-.6.7-.6.2-.8-.6-1 .4v-1.5c-.1 0-1.4.3-1.4.3v-.3h.5v-.3l-1.1-.9h-.3v.8l-.9-.2-.7-.9H358l-.1-.9-.8-.2-.8-1.5-1.3-.9-.4.4-.7-.4-.5.6-5 1.8-1.6-1.2-3.8-.4-1.8.2-.6.6h-25.9l-.8-17.8-1.2-12.9v-1.5l-1.8.9-.9 1.4h-1.4v.7h-.9c0-.1-.5.5-.5.5l.5 1.1-.6.6-2.4.6-2.9-1.8-1.3.5-2.4-1.9-.9.5.8 2-.8.3-.4-1.7-2.5-2-.6.7-1.5.3-1-1.1-1.2 1.3-.9-.5-2.6-.2-1.9-1.2-1.1.7-2-.5h-1.8l-.8-.6h-.8c0 .1-1-.9-1-.9l-.9-.3-1.5-2.4-.4-8.1-2.1-3.8-6.1-6.1-.8-1.3.4-5.4.5-1.2 1.5-3 .2-5.4-4.1-2.3-1-2.2.3-1.4 1.3-.4 1.1-1.2 4.3-.9 3.3-3.1 2.6-1.3.3-1-.3-1.2-1.1-1.1 1.1-3.8.5-4.2-.3-.8.3-1.6 1.7-1.8 1.5-5 1-1.2 3.6-2 1.8.2 2-.4 1.5.3 2.2-.2 2 .5.9-1.4 1.1-9.6-2.5-5.8-2.8-.3-3.2-1.1.6-3.6-3.2-3.8-4.5-4.3-2.2-1.5-.3-.6 2.1-1.2h2.1c0 .1 1.9-.3 1.9-.3l2.6-4 2.2-5v-1.4l-2.7-4.1-.5-2.3-1.6-.8-.7-3.3-1.8-3-.9-.5-.8-1.6.3-3.7 24.9.2 17.5-.7 6.4-2.8h.8l2 1.4 9.3-1.1 1.5-1.1 2.2.2 1.5-1.7.8-.2.6 1.3.9.2v.2Z"/><path id="CM-LT" d="m126.7 401.4.3.6h.7c0 .1.5 1.4.5 1.4l-.6 1.4-.5.4h1.2l.6.6-2.9 1-1.9-.5-1.6-.9 1.3-1.6v-.2l-.1-.2h1.6c0 .1.5-.4.5-.4v-.9l.8-.7Zm3.7-.5h.3v.5l.3-.3.3.3.2 1.5-.3.5h-1.1c0-.1-1.2-.8-1.2-.8l.7-.9.8-.9Zm-3.2 0 .2 1h-.4l-.4-.7zm3.1-.6h.5l.1.4h-.6zm-1.1-.1.9.8-.6.6h-.5c0-.1.2.4.2.4l-.6.4-.6-.3-.4-.9 1.4-.3.3-.7Zm-.2-1 .6.6-.8.5v.4h-.6l-.2-.2v-1.3l1-.1Zm-.2-.5-.2.5-.2-.3zm-.8-.2.2.2-.4.5v1.2l-1.2.6.5-.9v-.4h.2l.6-1.2Zm1.2-1.1-.4.9v-1h.4Zm0-.8.4.5-.2.2-.5-.5zm.4.2.5.3h.6l1.4-1.8-.9-1.2.2-1-.4-.3-2.6.6-.6-.7h-1.2c0-.1-.2-.8-.2-.8l.8-3.7 3-4.9-.6-1.4.2-2.2 3.9-6.6 1.6.5 1.2-.5v-1.7l2.5-3.2.5-2.8 3.7-3.9v-.8l-1.3-.6v-1l1.8-3.6 2-.4.3-.6-2.1-3.8-1.6-1.2-1.2-4.5.2-.7 1.6.2.6-.2 1.5-2.2h1.4l-.6 3.1.2.7 1.5.4 1-.8h1.9l1.1 1.1.9 2.2-.7 3.1 1 2.8 2.5.9.3 3.1h.8c0 .1.9 2 .9 2h1.2l1.4-3.2 2.5-1.5.2-1.7.6-.7 2.4.7 3.3-.5.4.4v2.1c.1 0 1.4 1.6 1.4 1.6l.3 1.9.7.6.9-.5.6 1.5 1.7.3-2.6 3.3-3.8 2.8-.5 2.8h1c0 .1 2.5-1.5 2.5-1.5h1.7l1 .9-1.1 3.1-.8.2-2 3-.7 3 .4.9 1.1.5 1.1-.2 5.8 2.2 1.6-.5 1.1-1.3 1.6-.6.7-1.2.7-.3.7 1.5.8.2 1.4-1.3.8-3 .9-1.6 2.2.7 1.6-1 .7.3.2.6-.6 4.3-.6.5.2 1.6 1.9 2.1.2 1.1 1.2 1v1.2l1.8 1.7 1.2 2 1.7.9.7.7v2.2c-.1 0-3.4.6-3.4.6l-1.5 1-2.8 1h-1.6l-1.8.6-.7.7-1.5-.3-4.1 1.6-.7 2.8-1.5 1.9.7 4.7-1.1 1.6.3.6-1.3.8-.7 2.3-.8-.4-1-1.4-4.9-2.8-2.3.8-1.1 1-.5 2.1v2l-1.1 1.1v2.1l-1.9 3.3h-1.7v-1l-1.2-.5-.9-1.1-1.3.9h-1.9l-2.9 4.1v3.4l-.7.8v.8c.1 0-.7 1.8-.7 1.8l-2.3 1.3-1.6 1.6-2.2.6-.2-.5.3-.6-.5-.9-3.8-4.5-3.3-3.2-4.3-3.2.6-.4h-.3c0 .1.3-.3.3-.3l-.3-.6.7-2.2-1.3-2.7-3.2-5.1 1.5 1 .8 2 2.4.2.3-.2v-.9l-.3.9-1.8-.6-1-2 .4-.5v-.9l.5-1.2.6-.2 1.4 1v.5l.4-.3.6.9v-.5l.4.3-.2.5.4.5v1.4c.1 0-.2.8-.2.8l-1 .7.7.5v.7l.6.3-.7-1.6.5-.5.2.3.3-.9h.2l-.3-.6v-.9l-.7-1.6.3-.5.5-.2.2-.8-1.4-1.8 1.3-.5-.4-1-.7.3h-2l-.5-.4v-1l.5.3v-.6l1-1.7.9.6h.8v.2l1 .4-1.1-.9-.7.2-.6-1v-.4l.4.3.2-.3h-.4c0-.1 1.1-1.4 1.1-1.4l-1.9.3v.3c.1 0-.7 1-.7 1h-.6l.1.4-2.2.6-.7-.5v-.5l.5-1.1-.7.6v1h-.2l-.4-.2v-.3h-.5v-.6h-.4l-.4-.6h-.3c0-.1.4-.8.4-.8h-.3l-.3.5-.5-1.1.4-.7-.3-.6Z"/><path id="CM-NO" d="m399.3 240 .2.7-.8 1.6.2.6-3.1 2.9-.2.8-1.4 1.1-.3 1.1h-.5c0 .1-.7 1.1-.7 1.1l1.1 1 .3.9-1.7.4-3.1 3h-.8c0 .1-2.5 2.1-2.5 2.1l-2-.7-2.1.5-2.6 2.9-2 1.2h-2.6l-7.6 3.5h-1.6l-4 2.6-2.9.6-1.2-.7-.8-1.2-2.2-.3-1.9-3.7-5.1.2-3.7-.6.6-2v-2l-.4-2-.6-.9-1.9-.6-1.7-2.9-1.2-.9V249c.1 0-2.6-1.6-2.6-1.6l-.4-2.8-.9-.8-7.8-.7-2.4-.9-.2-.5.2-1.7-.3-.8-.5-.2-4.4.7-.8.5-1.8.2-2.5-.5-2.7 1.5-1.5.3-.8.7-.4 1.1h-.6l-1.6-1.1-.4-.8-2.3-.8-1.9-2.3-2.4-.7H298l-1.1 1-.3 1.2.2 1.8-.5.9-.6-.3h-4.8c0 .1-3-.3-3-.3l-3.8-1.7-7.1-.9-8.1-3.7-.2-2.9.6-2-1.1-2.6H266l-3.6-.8-2-1.5-4.1-3.9-4.1-4.8v-2.5l-.8-4.6.3-2.3 1-2 1.8-.5.7.4h1l1.3-1 .3-1.3 1.3-.3.5-.8-.3-1.6-1.2-1.7v-1l1.3-.3 1.3.3 1.7-1.1 4 1.2h.6l2.4-2.1h1.6c0-.1.7-1.5.7-1.5l.7-.5v-2c.1 0 .5-.8.5-.8l1-.4h1.7c0 .1.8-.7.8-.7l.9-3.1.3-3.9.8-2.1-.5-4.1.9-1.9.3-1.7 1.2-2.2v-.9c.1 0 .6-.5.6-.5v-5.3l-.4-.3-1.7-.2v-1l2.6-1.4 2.7-2.4 1.2-.2 2-1.5 5.5-.6.7-.2.7-.7h.7l1.3-2.7-.3-.5.2-1-.2-.6.8-1.1-.2-.8.4-.9v-1.6l1.6-2.2-.7-1.1-1.9-.9-.5-1.1v-1.3l1.3-1 .8-2v-.5l-1.1-1.2v-.7c-.1 0 2.9-4.2 2.9-4.2l.7-.3h1.5l1.4-.5 1.4 2.9h1.3l.9-.5 1.4-.2 2.3.4 2.2-1.3 2.8-.6.3-.4v-.6l-1.1-.9-.3-1 .8-1.8 1-.4 5.1 1 2.5-.5 1.4.7h2.3c0 .1.8.5.8.5l.7.5.9 1.7 1.3.6 1.2 1.8 1.9-.4 4.4 1.8.3 1-.5 3-.6 2.9-.5.7-4.1 5.2-1.6 1.3-.6 1.4v2.6c-.1 0 1 1 1 1l.7 1.6 3.3 3.6 1.4 1 1.1.3.2 1.3 1.3.7 1.1 2 1.2.8 1.8.3 1.6 2.6 1.4.9.3.9-.6 2v1.1c.1 0 2.3 2 2.3 2l.7 1.1 2.1 1.5-.4.9 1.1 1.7 2.2.9 5.4 5.5 1.6 1.2 1.6 1.9.6.3h1.9c0 .1.6.5.6.5h1.2l1-.7 1.1.3.4 1.1.8.6-.6.6.6.4h1.2l1.1.6.6.7-.3 1.3.2.5 2 .3 1.7.8 1.3 2 .5 1.4 4.1 4 .6 1 .3 1.3 2.2 3.9.6 2.1 4.7 9.3-.3 2.1.4 1.1 1 1.3 2 5.5 1.9 3 3.6.9.3.4-.3 1 .3 2.4-.7 1.4Z"/><path id="CM-NW" d="m159.9 271.9.4 1.8.9.9 1.6.7 8.8-.6h2.4c0 .1.7-.2.7-.2v-1.6l.9-.3.6-.7 1-4.3v-2.1l.4-3.2h.4l.9.8.3 1.5-.4 1.4 1.3 1.1 1 .3.3-.3.9.5.3 1.1 5.1 2.4h1.4l1 .8v1.8l.9 1.4v2c.1 0 1.1 1.3 1.1 1.3l1.3.8 3.6.2 2.5 2 .5 2.2-.5 3.9.6 1.6.6 3.8 1.3 1.5 3.5.3.4 1.4-.7 4.2-.3.5-1.1.7-.7 1.4-.8.5h-1.7c0 .1-3.3-.4-3.3-.4l-.5.4-.3.4.2 1.8.4.8-.6.7v2.1c-.1 0-1 1-1 1l-2.9 1.7-2.3.7-.9.8-4.4-1.1h-1.5l-.7.4-3 7.1-1.1 1.5h-5c0-.1-7.2 1.2-7.2 1.2l-.4 2.7-.9.8-.9-.4-1.1-1.2-3.4-1.1-2.5 2h-1c0 .1-3.7-.6-3.7-.6l-1.3-.6-1.6.5-.9 1-2.4-1.2-3.1-.9-1.8-1.1-.7-1.2-.9-.7-1.5.3-1.9-2.1-1.3-.6-.9-.9 1.1-2.3-1-1.4v-1.6c-.1 0 3.1-1.7 3.1-1.7l1.7-1.8 1-2.9 1.1-2-.5-1.5.5-4.1-1.2-1.7.6-1.8.2-2-1.6-1.5 1.1-4 .7-2 .4-.3.2-.8-.3-1.5.3-1.3.6-.7-.2-.6.6-1.5.6.4.5-.2.6.4h1.6l1 .6 3.3-3.3.8-1.3 1.7-1.2.5-.8 5.9-5.3.6.2v.6l.5.3-.4.6.6 1.5-.4 1.3Z"/><path id="CM-OU" d="m204.8 300.5 1.2.6 2 .2 1.4.5.4 1v1c-.1 0-.7.5-.7.5v3c-.1 0 0 .9 0 .9l1.1 1.4.4 1.3-1.5 2.8-.9.8.3 2.1-.4 1.7.4.9.2 2.8 1.6 1-1.5 2.1-3.2 2.9.3 1.1-.9 1.7.9 3.3-.9 3-.5.2-.3.7.8.9-.3 1.5-1.8 1.5-.6 1.2-1.3.4-1.1 1.1.2 1-.5 2.4.3 1.1-2.2.6-1.7 2.2-1.6 7.1-1.9 1.4-1.8-.3-3-3.4-.8.2-1.5 1.8-4.8 2.5-2.5.8-3.2-.5-1.7-.3-.6-1.5-.8.5-.7-.6-.3-1.9-1.3-1.6V354c-.1 0-.5-.4-.5-.4l-3.3.5-2.4-.7-.6.7-.2 1.7-2.5 1.5-1.4 3.1h-1.2l-.9-1.8h-.8c0-.1-.3-3.3-.3-3.3l-2.5-.9-1-2.8.7-3.1-.9-2.2-1.1-1.2h-1.9l-1 .9-1.5-.4-.2-.7.6-3.1 1-.6 1.2-2 .9-.6.4-1.1.3-4.7.5-.9 2.7-1.7 1.6-1.6 1.2-.3 1.1-.8-.2-1.1-.9-1.4h1c0-.1 2.5-2.1 2.5-2.1l3.4 1.1 1.1 1.2.9.4.9-.8.4-2.7 7.2-1.3h5c0 .1 1.1-1.3 1.1-1.3l3-7.1.7-.4h1.5l4.4 1.1.9-.8 2.3-.7 2.9-1.7.8-1v-2.1c.1 0 .7-.7.7-.7l-.4-.8-.2-1.8.3-.4.5-.4 3.3.6h1.7c0-.1.8-.6.8-.6l.7-1.4 1.1-.7Z"/><path id="CM-SU" d="m266 421.2-.5 1.2-.4 5.4.8 1.3 6.1 6.1 2.1 3.8.4 8.1 1.5 2.4.9.3 1 1h.8c0-.1.8.5.8.5h1.8l2 .4 1.1-.7 1.9 1.2 2.6.2.9.5 1.2-1.3 1 1.1 1.5-.3.6-.7 2.5 2 .4 1.7.8-.3-.8-2 .9-.5 2.4 1.9 1.3-.5 2.9 1.8 2.4-.6.6-.6-.5-1.1.5-.6h.9v-.6h1.4l.9-1.4 1.9-.9v1.5l1.1 12.9.8 17.8H298v-.5l-.5-.3.8-.8-.9-1.9h-.9v-.5l-.6-.5-1.2.6h-.7v-.4l-.5.1-.3-.3h.4l-.1-.4-.6.2-.8-.3-2.1.7.2.7h-.7l-.6.6-.5-.5-1.5.6-.3-.5h-1.8l-1 .3-2.3-.5h-.2c0 .1.2.4.2.4l-.9.4-.8-.4-.4.7h-.4l-.4-.3-1.2-.2-.4-.8-.2.4h-.9l-.1.4-.7.4-1.5.3-1.4-.2-1-.6-1.3.2-1.5-.3-.6-.5h-1l-.2-.5-.4-.2-1.4.6-2.3-.2-1.7.4-6.8-1.1h-.4l-.5.9-1.7.3-1.5-1.3h-1.7l-.6.3-1.3-.8-.7.5-2.4-.4-.6.2-1.1-.4-.2.4h-.8l-.5-.4-2.1.4-.7-.3-.4.4h-1.9c0-.1-.2.3-.2.3l-1.7-.5v.3l-1.3-.2-.5.4h-1.4l-.2-1.1h-.6c0 .1-1.6-1.1-1.6-1.1H226l-.9.7h-.8l-.6.3-1.5-.5h-.9c0 .1-.6.6-.6.6l-1.7-.2-.8.4-1.3-.4h-.3l.3.4-.5.2-.6-.4-.4.2-1.5-.3-.7.2-.5.5.6.5-.2.4.2.3-1.2 1.5.3.2-.3 1.6.3.5h-5.7l-1.6-.6-1.1.5h-42.9l-1.1.7-.6-.7h-.7l-.8.7-2.8-.3-.3-.7-.5.9-5.1-1.7-.8.4-.3-1.1-.8-.7-1.5-.6-.7-2v-1.7l-.4-.8v-3.2c-.1 0 .3-.9.3-.9l-.5-2.8.3-.6v-2.2l.7-2.2.3-2.4.6-1.2v-.9c-.1 0 .7-.8.7-.8v-1.3l.8-1.4-.5-2 .4-1.7h.3v-1.6l.4-1.4.9-1.9 1.2-.8.6-2.1-.2-.7.5-.4-2.4-5.9-1-1.7 2.2-.6 1.6-1.6 2.3-1.3.8-1.8v-.8c-.1 0 .7-.8.7-.8V424l2.8-4.1h1.9l1.3-.9.9 1.1 1.2.5v1l-.8 1.1.9 1.7 1.5 5.7 3.7-.5 10.3-3.1 8.8-2.2.9.5.8 2.4.5.5 3.8-1h1l.5.9.8.2 1.7-.5 1.4 1.1.9 1.2.8 4.4 1 1.2 1 .2.3.8v1.3l1.4 1.1 1.1 1.4 3.4-.4 1.8.5 2.9-.8 6.3.4 1.9-.4 4.3-1.9 1-1 .8-3 1.1-1.1.8-1.5.9-.2 1-1.1 2.5-.8 1-2.8 1-.3.7.9.9.4.7-.3.8.2.7 1.1 5.9 2.4.4.6-.5 1v.7h.5c0 .1 1.6-.9 1.6-.9l1.5.3.9-1 1.4-5.8 2.2-2.3 5.5-4.4 1.1-1.8.9-.2 1 .2 1.7 3.5 1.3 1.1Z"/><path id="CM-SW" d="M88.2 367.9v.6c.1 0 .4.3.4.3v.3c-.1 0-.8-.9-.8-.9v-.4h.5Zm.7 10.9v-.7l-.6-.2-.2-.6.4-.4-1.1-1.2-.5.5v.9l-1.2.2v1.1l.6 1.3h1.3l.5-.6.7-.4Zm-1.2-7.1-.3-.2-.4.3v.6c-.1 0 .3.1.3.1l.3-.8Zm7.3 7.5h.7l-1.3 1.3-6.2-.2.7-1.1.7.2.7-.3v-.4l-.2.4-.5.3-.6-.3v-1l-.7-.2-.2-.4.5-.4-.2-.3v-.6l-.4.2-.6-.6 2-1.3-.5-1.1-.2-.8.2-.6-.9-.4 1.3-.7-.5-.9 1.1-.3v-.6l1.4-.3v.5l.3.2-.2 2.2.8.8.4 1 .3 2.8.5 1.3-.3.4-1-.4.8.6 1.1-.5 1.1.9v.5h-.3Zm-7.5-4.1 1.9-.8-.7-1.4v-.8c.1 0-.8-.3-.8-.3l-.4.8h-1.1l-.7 2.1.8 1.3 1-.8Zm39.5 23.4-.2.4h-.5c0 .1.2 1.3.2 1.3l.6-.2v-.5h.2l.4-.9v-.5l-.2.4zm29.3-73.3.9 1.4.2 1.1-1.1.8-1.2.3-1.6 1.6-2.7 1.7-.5.9-.3 4.7-.4 1.1-.9.6-1.2 2-1 .6h-1.4l-1.5 2.2-.6.2-1.6-.2-.2.7 1.2 4.5 1.6 1.2 2.1 3.8-.3.6-2 .4-1.7 3.6v1l1.2.6v.8l-3.7 3.9-.5 2.8-2.6 3.2v1.7l-1.1.5-1.6-.5-3.9 6.6-.2 2.2.6 1.4-3 4.9-.8 3.7.2.7h1.2c0 .1.6.8.6.8l2.6-.6.4.3-.2 1 .9 1.2-1.4 1.8h-.6l-.5-.3-.2-.4-.6.3-.4.9v.7c.1 0-.8-.3-.8-.3l-.3.4-.5-.2-.2.5h-.5v.6h-.7v-.5h-.6l-.4.4-.2.6-1.4 1.1h-.7c0 .1-.4.6-.4.6h-.6l-.6 1.1h-.8l.2.5h-.7l-.1.7-.4.3-.5-.3v-.6l-.7-.2v.6h-.3l-.2-.5.3-.9-.3-.6h.3c0-.1-.5-.6-.5-.6l-2.2.2v-.3h-.6l-.4.4-.9-.4-1.3-1.3-2.2-1.1h-.5c0 .1-.1-.3-.1-.3l-1.5-.9.5-.9v-1.4l.5-1.3v-.6c-.1 0-1.2-2-1.2-2l-1.7-.9v-.6c-.1 0-.8-.6-.8-.6l.4-1.5-.2-.9-.2-.5-.8-.5-.7-1.9v-1.3l1-.7-.4-.2-.2-.7 1-1.2-.5-.3-.4.2-.6-.6V376c.1 0-.3-.5-.3-.5v.3l-.5-.3-1.1-1.6-.3.3-.5-.4.3-1.9h-.6c0-.1-.3.5-.3.5l-1.8.7h-.9l-.4-1.2 1.3-3-.4.3-1.1 2.5.4 1.4.9.2v1l1.7 2.7-.4.8-.9.2-1.2-1.3-.9-.2-.8-.7-.2-1.8-1-1.3 1.4-1v-.7c.1 0-.4-.8-.4-.8h.5c0-.1.2-.7.2-.7l-.9.8.4.8-.4 1.1h-.9c0 .1-1.3-.7-1.3-.7l-.3-1.6v-.2h1l.4-1.1h-.3l.1-.5-.3.4v1l-1.3-.5.2-.6-2 .4-.3.8-.9-.3v.9c.1 0 .4.4.4.4l-.6.4-.7-1.2v-1.1c.1 0 .5.8.5.8l.4-.4v-1h-.3l-.2-.6-.5.2-.5-.3.9-1.6 1.5.6 1.7-1-.2-1.1-.9-.8v-.7l.7-.9 1.4-.5v-1.3l.6-.3v-.4l.7-.9.6-.2-.7-.7.9-.7.9-2.4 1-.7v-.6l1.4-.6 1.8-3v-4.7c-.1 0 1.2-4.2 1.2-4.2v-2.8c-.1 0 .7-1 .7-1l.5-1.7 1.7-2.9-.2-1.3-3.7-4v-1.1l.4.4 1-1.3.3-.7-.3-.6.7-1.1-1-.7-.3-.6.9-1.1 1.2-.6 1.2-1.6.8-.2 2.7-2 6.2-5.6.7-.7.7-1.8.9-.8 1.2-.9 2.3-.7 2-3.5.8-.7v-.3c-.1 0 .4-.2.4-.2v-1.4l.6-1.3 3.7 1.6 1.4-5.9 2.7.3 2.5-1.3V291l.6-1 1.5.5.7-.2v-.3l.8.9 1.7-.2 1.6 1.5-.2 2-.6 1.8 1.2 1.7-.5 4.1.5 1.5-1.1 2-1 2.9-1.7 1.8-3.3 1.7v1.6c.1 0 1.2 1.4 1.2 1.4l-1.1 2.3.9.9 1.3.6 1.9 2.1 1.5-.3.9.7.7 1.2 1.8 1.1 3.1.9 2.4 1.2.9-1 1.6-.5 1.3.6 3.7.6ZM124.8 400l.5-.2v-.7l-.8.4v.6l-.4.1.2.2.4-.5Zm1.5-.3h-.4l-1 .4-.3.7-.6-.2-2 1.2 1.7 1.6h1.5l.4-.3-.2-.9 1-.8.3-.8-.5-.3v-.5Zm-25.2-23.8-1.4-1.9v-2c.1 0-.4.7-.4.7l-1.6.5v1.1l1.2 1.8 1.8 1.5v.5l1.3.6v-.6c.1 0-.4-1.1-.4-1.1l-.4-1.1Zm20.8 26.2-.7.4-.3.9.5.9 1.2 1.1 1.2-1.6v-.4l-1.7-1.3Zm-22.3-20.8v.6l.5-.4v-.6z"/></g></svg>