<svg xmlns="http://www.w3.org/2000/svg" xmlns:amcharts="http://amcharts.com/ammap" id="Layer_1" viewBox="0 0 512 512"><g id="_x3C_defs"><amcharts:ammap bottomLatitude="14.802" leftLongitude="-25.362" projection="mercator" rightLongitude="-22.665" topLatitude="17.206"/></g><g><path id="CV-BR" d="m132.9 465.8.4.6-.5.7.6-.3 1.3.8-1.4 1.1.5.2v1.9h.4l.5 1.7 1 1.3-.6 1.7 1 1-.8.5v1.9c-.1 0-.9.3-.9.3v2l-3.7 1.9-1.5 1.4-.7-.6.3-1.1-2 .6v-.5l-1.9-.7-2.1-3.6-.8.9-1.2-1 .6-2.8-.8-.6.6-.6-.7-.7.2-1.7.9-.3.3.5h1.2l.7-.5-.6-2.6.5.2.9-1.2v-.9l.5.7.7.2.5-.6 1 .9.9-1.1 2.8-.5.3-1.1h1.1l.4.5.4-.7Zm4.6-13.6.3.9h-1.3l.1-.6.8.2v-.5Zm1.6 0 .3.8-.6-.2zm-6.3-1.1.7 1.1-.7.6v1.1l-2 .9-.8-.8v-.7l.5.3.3-1.4 1.1-1 .5.6zm8.9-1.2 1.1 1.2v.9c-.1 0-.8-.2-.8-.2l.3.5-1.2.7-.4 1.1-.6-.7-.6.3.5-.9 1.5-.7.3-2.1Z"/><path id="CV-BV" d="m453.9 223.7 2 .9.6 1.5-1.5-.3zm27.4-9.8v.6l.6-.8v.7l.7-.2-.4.7.5.5 1.8-.3 4.2 2.1 3.6.3 1 1 2-.4-.2.5h.6v.4l1.2-.2v.5l-1.1.6.9.7-.6 1.4.6 1.6 5.5 5.9.5-.2v2.7l.9 1-1.1-.4-.7 1.7.6 2.1.7.6-.2 1.3 1.2 2.8h-.7v.9l-2.1 3.2-.3 2.5-1.2 1.6-1 .4-.6-.5-1.1 1.2-1.6.4-1.1 1.8-1.2.5-.7-.3-4.7 2.7-.7-.4-1 2.1-3 .6-2.1 1.8-1.3 2-1.4.3-.9-.6h-8.1l-4.3.8-1.2-.8-1.1-2.7-1.3-1.1-1.5-.6-.5.5-3-.7-4.5-2.1-1.2-1.6.3-1.5-.7-.6-.6.6v-1l-.9-1.3.9-1.6.2-3.3.9-1.1-.8-1.9 2.1-2.4.9-.5h1.6l4.2-3.6.9-1.2-.4-2.2.6-1.7 1-.5v-1l-1 .4-1.9-4.4-1-.4.6-1.9-.5-.4h.9c0-.1-.3-1.6-.3-1.6l1.1-1v-.7l-1.7-.8.5-1.2v-.9c-.1 0-.6-.2-.6-.2l.2-1.2 2.1-.7-.3 1.2 2.3 1.3.7-.2v.8c.1 0 1.4 1.1 1.4 1.1l3.1 1 3.2.2h3.4c0-.1 4.8-1.1 4.8-1.1l2.3-1.9.9-.2v-.4c-.1 0-.8.2-.8.2l-.4-.7h.8c0-.1-.2-1.1-.2-1.1l.9-.3v.5Z"/><path id="CV-CA" d="m326.6 425.1-2 1.7-2.6.9.5 3-.9 1.3.3 3.6h-.3l-1.1.8-.6 3.4-3.9.4-1.6 4v1.4h-.1l1 1.3-1.5.8-2.4 3.2h-1.5c0-.1-1.5-1.9-1.5-1.9l.4-.6h1.1l-.2-.8 1.1-.5v-.6l-.5-.6.7-.4v-.8l-1-.4-1.6-2.1-1.6-.6-.9-1.3-.8.9h-.7l-.8-2.3-1-1.4-.7-.2V436l-1.7-1.1-1.2.3.2-.7-.6-.9.2-.5h1.2c0-.1-.8-3.4-.8-3.4l1.5-.8-.2-2.7.8-2.4-.7-.3v-.6c.1 0 1-.3 1-.3l.9-1.4-.8-.9.6-1.7-1.1-.3-.2-2 .7-.8-1.2-2.1 1.5-.5-.2-2.2 1.1-1.4h2.3l1.3-.6 2.6 1.5 1-2.5 1.1.4 1.1 1.6h2.4l.4 3.3.6.5 3.3.3 2.2 2 .9 1.5-1.6 3.3v1.1c.1 0 3.2-.5 3.2-.5l2.8-3.5 1.3.3.2 1-.6 2.6.7.2v.8l-1.7 1v1.1l.2.2Z"/><path id="CV-CF" d="m206.1 460.3-3.6 5.1-2 1.5-5.7.9-2.3-.5-2.8-2.5-.7-2.4v-2.2l5.7-5.4 1 .9 1.6.3 7.7-.6 1 4.9Z"/><path id="CV-CR" d="m339.6 434.3-.9-4.7-1.9-.5-2.3 1.1-1.2-.4-1.7-2.4.5-.3h1.3V426l-1-.8h-5.8l-.4-.4v-1.1l1.7-1v-.8l-.7-.2.6-2.6-.2-1-1.3-.3 2.9-.5 5.1-4.4.9.2.4.7.4-.6.5.2-.4 1.4 1.2.2-.8 1.4 2.1 1.3 1.2-.4v1.2c-.1 0 2.2-.9 2.2-.9l1.3.8-.4.8 1.5-.6.2 1h.8c0 .1.2.8.2.8l-.7 1.1.5 1.2 4.4.8v1.9c.1 0 .9 1.7.9 1.7l.2.3.4.5.6 1.7-3.3 6.6-2.3 1.9-2.9.4-.7-1.6-2.1-1-.5-.9-.5-.5Z"/><path id="CV-MA" d="m409.3 382.7.7 1.3-.3.6.5 1.5 2 .2.8-2.4v2.6l1.3 1.2 3.4 1.1 1.3-.6.6-.9.4.5.5-.5 1.8 1.8 1.7 5.2-.2 1.2h-.7c0 .1-.7 1.4-.7 1.4h.7c0 .1 1.1 2.5 1.1 2.5l.9 4.2-.4.7.6 2.2-.4.2 1 3.4-.7 1.3.9 2-.6.4.6 1.8-1.3.5-3 4.2h-.6l-.7.8-2 .4-1.1 1.4-1.9.4-.6 1.5-1.6.5-2.9-.7-2.4.2-1.6-.9-2.2-.4-1.3-2.5-1.4-.6v-.5h1v-.8l-2.9-2.7h-.3l.3-2.8-.4-1 .8-1.6.3-5.1 2.1-.8v-4.7c.1 0-.8-1.8-.8-1.8l-1.9-.2v-1.6h.7c0-.1.6-1.2.6-1.2l-.8-.5.3-.6 1.3.4 3.4-2.9 1-2.6-1.1-1.4 1-.2 1.7.7.8-.6-1-2.1 1.5-1.1-.5-.6h.5l.1-1.1Z"/><path id="CV-MO" d="m184.7 441.3 1.1-.5-.3-.9 1.7-.5 3.3-2.3 1.2.7 2.2-.2 2.9.7 1.1.6.4 1.2 2.5.5 1 2.2 1.5 1 .6 2.4-.4.9 1.2.8.4 2.9.8 1.2-.7 3.1-7.7.6-1.6-.3-1.9-1.8-1.6-2.3v-2.5c-.1 0-2.5-1.1-2.5-1.1l-5.1-6.7Z"/><path id="CV-PA" d="m70.8 33.7.9.5v2l.4.3-.7.8 3.3 5.2 1.3.5-.2.5.5.3 1-.6v.9l1.6.3.5.6.6-.6.8.5.6 4.9-2.7 3.5-7.9-6.4-1.8-.5-4.6.3-2.1-1.9 5.3-6.6 2.2-1.3z"/><path id="CV-PN" d="M12.3 50.1V49c-.1 0 .8-.2.8-.2l.5-.9 5.2-1.5.8-.9 2.3.5 1.5-.4 1.5-1.6 1.5-.2.3-.7 2.5.3 3.1-2 4.7 5.1 1.4.9 2.9.8.7 3.2h.8l4.4-2.5h6.7c0 .1 2.1-.3 2.1-.3l6.3-3.7 2.1 1.9 4.6-.3 1.8.5 7.9 6.4-1.5 1.6v1.3l-2.1.8-.8 1-4.3 2.8-2.6.9-.8 1.2-1.4.5-3-.2-3.2.8-9 9v1.1l-3.1.9-2.9 4.7-1.7 2h-1c0 .1-.1.7-.1.7l-1.6-.2-1.8.7-.3.9-1.2.5-.6-.3-.7-.7-2.7.3-3-1.6-2.2 1V82l-.5-.4-1.9.4-.3.8-2 .4-2.6 1.6-1.5-1.1-.9-2-1-.5.4-.8-.9-1.1.2-1.4 1.7-2.2-.5-1.7-1.7-2.7.6-2.8-.6-3.3-1.7-2.1-.4.3-3-1.1-2.1-3.7.4-1.1-.5-1.2.8-.5-.3-.6 1.1-1.9 1.7-1.1-.3-1.3 1.3-.6Z"/><path id="CV-PR" d="m357.2 452.1.7 1.5h.9v.6l-2 1.9-.9-.6.5.8h.8v.6c.1 0-.5 1.1-.5 1.1l-1 .6v1.7c-.1 0-1.4 1.5-1.4 1.5l.3 1.7-.6 1.5h-.6l-.1-1-1.5.5-.5-.5-.8.6-.8-1.8-1.3.9.2 2.4-1.2-.8-3.1.4-2-.7-.7.5-5.4-7.8-1.3-3-.6-3h.7l4.5-2 8.1-1.1 4.5 1.8 3.5.6 1.8 1.3h-.1Z"/><path id="CV-RB" d="m195.4 127.5 1.5.4.3 1.3h1.8l1.3.7 1.6 1.9v.5h.8l.8 2 2.1.5.2 1.6 1.4 1 3-1.7 2.1.7 2.6-.5 1.4-1.1-.3-.6 1.4.5 1.2-.3 2.1 1.7h.8l.2-.4 2.6 1.6h1.3l1.3 1.9 2.1 1.3 3.7.5 1.6-1.9h1.1c0 .1 1.9 1.3 1.9 1.3l2.8-.2 6.6 1.1 3 1.3 2 3.7 2.3-.4.3 1 .8-.2 1.8 1.9-1.4 3.5-1.4 1-1.1-.5-1.6.3-.9-1.4-1.5.4-.7-.6-2.8 1.4h-1.9l-1.5-1h-.8l-.4.8-1.3-.6-1.5.5-1.6-.7.4-.4-1-.6-1.3-2.1-1.1.3-1.2-1-2.2-.5-2.9-2.4h-2.8c0-.1-1.1.3-1.1.3l-.7-.5-1 .4-1.7-.8-3.7.4-.4-.4-2.7 2.6h-2.6l-2.1 2.9-1.3.4-.9 1.7v2.1c.1 0-1.3.6-1.3.6l-.8 4.1-1.7 1.7.2 1.1-1 1.9.7.7-.4.9-1.7.4.2.8-.7-.9 1.8-5.9v-1.9l1.5-3.7v-6.1l-.5-1.6-1.3-1.1-.2-2.6-1.3-2.1-1.1-1h-3.5l-1.4-.6-.6-2.3 1.3-1.6.2-1.5-1.4-3.8 2-2Z"/><path id="CV-RG" d="m56.3 29.2 1.1-1.8h.7l.7 1.7 3.3 2 4.3 1.5h1.7l.3-.6 1.9.8.5.9-1 3.2-2.2 1.3-5.3 6.6-6.3 3.7-2.1.4h-6.7c0-.1-4.4 2.4-4.4 2.4H42l-.7-3.2-2.9-.8-1.4-.9-4.7-5.1.5-.4v-1.7l1.8-.1.6-.6v-1.3c.1 0 1.9.5 1.9.5l.3-.6-.4-.4.9-.9 1.7.9 2.8-.7 1.5-1.8-.3-.6 1.3-.9h3l2.1-1.4 6.3-2.2Z"/><path id="CV-RS" d="m334.2 451.6.6 3 1.3 3 5.4 7.8h-1.3l-.5-1.1-.5.3-.7-.5-1.4.7-.2-.6-1-.2-2.2.7v-.6l-2.3-.3-.9-.8-3.1 1.1-.6-.8v-.9c.1 0-2.8-.7-2.8-.7l-3.2-2.7h-1.7c0 .1-2.9-2.6-2.9-2.6l-1.1-.3-.5-1.2-1.8-1.2-1.4-2.8 2.4-3.2 1.5-.8-1-1.3v-1.4h.1l1.6-4 3.9-.4.6-3.4 1.1-.8h1l1.6.5 2 3.1.8.3 1.8 3.2-.2 3.2-1 1.5.4 1.1 5.4 2.9h.8Z"/><path id="CV-SD" d="M351.9 429.4v.9h1.2l.2.9.8.5-.2 1.1 1 .4.7 1.4-.6.6.8.4.3-.3.4.8v-.4l.8.1-.4 1.4 1-.3 2.1 1.2.2.9-1.6-.2-.3.6h.7v.8c-.1 0 .7-.8.7-.8l1.4-.2-.3.6h.6c0 .1.2 2.6.2 2.6l-.4.8.6.2.8-.7.9 1.3v.9l-.9-.2-.3 1.2 1.4.7-1.8.2 1 .6.7-.2-.6 1.2.5 1.2-.8 1.2-1.3-1.3-2.8 2.6h-1.2c0-.1-1.8-1.4-1.8-1.4l-3.5-.6-4.5-1.8-8.1 1.1-4.5 2h-1.5l-5.4-2.9-.4-1.1 1-1.5.2-3.2-1.8-3.2 2.7.3 2.6-.5 4.7-2.9 1.6-2.4h.9c0-.1.7.6.7.6l.5.9 2.1 1 .7 1.6 2.9-.4 2.3-1.9 3.3-6.6Z"/><path id="CV-SF" d="m194.8 454.8-5.7 5.4v2.2l.6 2.4 2.8 2.5 2.3.5 5.7-.9 2-1.5 3.6-5.1.5.8v3.6l.8 3.9-1.2 4.3-2.9 3.4-2.1 1.8-1.5.2-1.1 1.7-.6-.2-3.2 1.9-2.4.6h-7.7c0 .1-.9-.7-.9-.7l-1.5.2-.7-.9-2.3-1.1-3.8-4.4-3-1.3-.8-1.8-2.1-1.8-2.7-1.2-.9-1.8v-4.9c.1 0-.5-.7-.5-.7l.6-1.2.5-3.8 1.3-2.1v-1.4l.8-.6-.3-.9.5-1 1.2-.4.2-.8 1.3-.9-.2-.5 3.3-2.2.3-1 3.4-1.5v-.9h1.2l.7-.9 2.1.5 2.3-1 5.1 6.7 2.3 1.1v2.5c.1 0 1.8 2.3 1.8 2.3z"/><path id="CV-SL" d="m457.2 94.4 1.3.9.3 1.6h1.2c0-.1.1.7.1.7l2.6.7-.4 2.3-.9.5-.2 1.5-1 1.3 1.4 1.1 1.3 3.8 1.8 1.1-.9.8-.4 1.8-1.8-.4-.2 1.1-.9.8.8.3.4 1.4-.2 1.3-.8.6.7.4 1.2 4.5 2 2.2-.4 1.3 1.5 3.7-1.5 1.1-1.1 1.6-.4 2.3-1.1.3-1 1.2.2 3.2 1.2 2.7.8.6.3 1.8-4.4-1.1-1.1.5-1.4 1.7-.9-.8.6-2.4-.9-.4.7-1.4-.8-2.5-.9-1.5-1.7-1.2v-.6h-.6v-1.2h.4l-.6-.8 1.5-1 .8-2-.5-3.7-2.7-1.7-2.9-.5-.3.6-1.8.6-1.1-.3-.4-.8 1.2-2 1.2-.4-2.1-3.6 1-1.7h.7l-.6-.8.8-.7v-1.1l-.2-.3-.6.4-1.3-1-.3-1.8.7-.7-.9-1.5-.4-3.2.2-2.8 1-1.1.4-1.6L446 99h1.4l2.3-1 1.5-1.6 2 .7 2.9-1.4z"/><path id="CV-SM" d="m321.1 400 3.5.5v.9l1.1.3-.4.6 1.4 1.1.8-.3.8.7h.9l.8 2.3 1.3.5.3 1.9h.9v1l.5.2-.2 1.3 1.7.6-.2 1.2-5.1 4.4-2.9.5-2.8 3.5-3.1.5v-1.1c-.1 0 1.5-3.3 1.5-3.3l-.9-1.5-2.2-2-3.3-.3-.6-.5-.4-3.3 1.6-1.9v-1.4l3.5-3.6 1.3-3Z"/><path id="CV-SO" d="m339.6 434.3-.2-.2h-.9c0 .1-1.6 2.5-1.6 2.5l-4.7 2.9-2.6.5-2.7-.3-.8-.3-2-3.1 3.7-2.8 1.5-4.7 1.7-1 .6-.3 1.7 2.4 1.2.4 2.3-1.1 1.9.5.9 4.7Z"/><path id="CV-SS" d="m322 435.7-.3-3.6.9-1.3-.5-3 2.6-.9 2-1.7v.2h5.9l1 .8v1h-1.3c0 .1-1.1.8-1.1.8l-1.7 1-1.5 4.7-3.7 2.8-1.6-.5h-.6Z"/><path id="CV-SV" d="m151.3 137.3 2 1.5-1.3 2.8-3.8-.2-.9-1.7.5-1.3h1.4l2.1-1.2Zm-17.9-7.8 2.9 2.3 1.6 2.6-2.1-.6-1.7-1.5-1.5-1.8zm-17.7-25.9 1.1.8 4 1.4.9 3.1 1.6.6 1.1 1.9v1.1l1.3 1.4 2.2.4 1.9-1h2.6l.5.4-.3 1.4-1.1 1.5-1.3-.2-.7.6-2.2-.4-1.3.7-4.4-.2-.2-2.1-2.3-2.4-2.9-1.5-1 .3-1.2-.5-1-2.9.6-.3.7-2.2 1.5-1.8ZM89.4 81.5l1.9 1.3.8 1.4v1l-.4-.3-.4.4.2.7-.5-.5-.8.4.8.8-.9.8v1.1l1.1 1.6 4.4 2.9 1.6.2.5-.6 1.3-.2 1.1.6v1.4l-1.6.8.8 2.5 1 .2-1 4.2-1.8.9-3.5-.4-4.1 2.8-4.7 1-1.2-.3-1.3.6-.2.7h-2.9l-.7 1.6-1.6.2-3.2-1.7-1.5-1.5h-1c0 .1-1.2-1.1-1.2-1.1h-1.1l-1.1-.8-1.1.3-1-1.2-1.3.9-1.6-1.6v-2.4c-.1 0-.7-.7-.7-.7l-1.1-.3-2.9.6 1.4-2.2-1.1-1.4 1.3-.4 1-1.1v-1.5l.9-.1.2-.8.6.6 1.4-.6-.3-1.2.5-.9h1l-.5-1.3 1.5.7v-.9l1.1.4 1-1h1.3l.5 1.5 2.6 1.4.2-.5 1.7-.3 1.6-1.7v-.7c-.1 0-.4.4-.4.4l-.7-.6-.8.3.4-.8.7.2.4-.4v-.8c-.1 0-1.1-.5-1.1-.5l-.2-1h1.5v-1.1c.1 0 2.6.3 2.6.3l.6-1.5 1.3-.2.7-.7.4.4-.9 1.4.8-.3.4 1 2.7 1 1.7-.8-.5-.8 1.5-.7-.4-.7 2.6-.3Z"/><path id="CV-TA" d="m301.6 386.3.5.6.6-.3-.4-.8 1-.2-.4-1.7h2.4v-1.4l1 .2.5.8.7-.3v.5l1.6.3.5.8.8-.3.2-1.1 2.1.4-.3.7.4.3 1.3-.7 1.9 2 .8 1.8-.6 1.6-1.3.2.8.7-.7 2.4 1 3.6 1.5 1.8 1.8.7.6-.2.9 1.1-1.3 3-3.4 3.6v1.4l-1.7 1.9H312l-1.1-1.6-1.1-.4-1 2.5-2.6-1.5-1.3.6h-2.3l.6-2.1v-2.8l2.1-1.7.4-2.2-.8-1.9-1.3-.9-.9.2-.6-3.8 1.1-.5v-.5l-1.5-1.5-1.7-.2v-1l-.6-.3 1-1.4 1.4.3.3-.4.3-1.4-1.3-.3-.3-.8.4-.2Z"/><path id="CV-TS" d="M193.3 129.3v.2l1.4 3.8-.2 1.5-1.3 1.6.6 2.3 1.4.6h3.5l1.1 1 1.3 2.1.2 2.6 1.3 1.1.6 1.7v6.1l-1.6 3.7v1.9l-1.8 5.9-.8-.3-.8.8.5-3.5-.7-.7-.6-2.6-.6-1.2-2.1-1.4-.8-3.6-1.6-.7.3-2-1-2.3-1.3-.8-2.6-.2-4.6-2.8-.8-1.1-1.1-.5.4-1.1-1.6-.7-.2-2.5.4-1.2-.4-1.1 1.1-2.4.8.2-.5-.7 1.8-.2.6-.6h1.2c0 .1 1.6-.7 1.6-.7l.4-.8 1.7-.6 3.2.8 1.6-1.1Z"/></g></svg>