<?xml version="1.0" encoding="UTF-8"?>
<svg id="Layer_1" xmlns="http://www.w3.org/2000/svg" xmlns:amcharts="http://amcharts.com/ammap" version="1.1" viewBox="0 0 512 512">
  <!-- Generator: Adobe Illustrator 29.1.0, SVG Export Plug-In . SVG Version: 2.1.0 Build 142)  -->
  <g id="_x3C_defs">
    <amcharts:ammap bottomLatitude="2.219642" leftLongitude="14.421294" projection="mercator" rightLongitude="27.464141" topLatitude="11.007570"/>
  </g>
  <g>
    <path id="CF-AC" d="M187.7,185v1.7c0,0-.6.8-.6.8l.6.7-.6,1.2.7,1.3-.8.4.2,1.3-.8.4.2,1.6-.8.4v1.1c-.1,0,.1.7.1.7l1.3.5.3.9v1.8c0,0-.7.7-.7.7l.5,1.3-.7.7.7.8-1.2,1.8v2.9c.1,0-1.4,1-1.4,1l.8,1-1.1,1.1.6.9-.6,1v1.1c.1,0,1.6.5,1.6.5l-9.6,4.5-1.5,1.3,4.7,12.8-2.6,1.5-.3,1.9-2.1,1.3v.6s1.3.3,1.3.3v.7s-1.2.7-1.2.7l-.6,2.5-1.5.9-.2,1,2.1,1.9.7,2.6h1.1c0,0-.7,1.5-.7,1.5l.3.9,2.2,1.7,2,.7.5.8-.5,1.1-3.2,1.8-.8,2.6h0l-.4,1.4,4.4,4.4v4.4s1.8,1.5,1.8,1.5l-.3.6-1.8.5-6,5.1-2.6,1,.5,1.9-1,2.3.8,1.9.2,3.6h-.8c0-.1.1,1.6.1,1.6l-.7,1.5-6.9,3.1-.3-2.7-1-1.9,1.2-1.1v-.8c-.1,0-2.1-.8-2.1-.8l-2.6.5-.5-1.7-.9-.5-4.2.6-1.4-1-2.1.6-.8-.6v-1.5c-.1,0-.7,0-.7,0l-3-2-1.9.5-1.8,2.1-7.5,4.3-20.8.3-2.1-3.6.2-1.9h0l-.5-1.7-1.2-1.5-.2-3.3-.9-2.6,1.8-.9-.6-3.1.6-2.8,2.2-.3v-.6c-.1,0,.5-.4.5-.4l-.3-1.1h.8c0,0,.9-1.2.9-1.2h1c0,0,.3-1.9.3-1.9l-2.2-1.4-.8.5-2.1-.4-.5,1.1h-1.3c0,.1-2.3-1.3-2.3-1.3l-.8-1.9-1.3-.5v-1.6c-.1,0,.7-.8.7-.8l-.9.7-.9-.7-.2-3.1-1.1-2.4v-4.1s-.5-1.8-.5-1.8l-.9-.6-.4-1.6.9-.6-.2-1.2,1.1-.3,1.5-2.8-.6-2.7.9-2.4.5-4.7,1.5-1.5-.8-1.6.4-2h0l3.1-.9-.5-.6.2-1.5,2.1-.7h3s.3-.7.3-.7l1.5-.2v-1.2s.9.2.9.2l.6.9h1c0-.1.5-.9.5-.9l-.3-.5,1.9-.9.5-1.3,1.1.6v-1.4c0,0,1.7-1.6,1.7-1.6l5.8-2.4,1.7.9,1.2-1.9.8.5,1-.9.7.2,1.2-.7.8-1.4,9.1.9,4-1.9,21.3-1.5.9-1.5-.3-1.8,1.4-2.4,5-2,1.2-1,.7-1.3-.2-.9.9.2,1.7-1.8v-1.2c0,0,1.7-1.5,1.7-1.5l1-1.3-.3-.5,1.4-.7.6-1.4h1.1Z"/>
    <path id="CF-BB" d="M250.9,152.9l1.5,2.2,1.6.2,1.7-2.1,2.6-.9,1.4-2.5,2.2-1.1,3.8-.3,1.8-.7,1.3-1.2.6-1.5,1.6-1.4,2.7-1.3.8-1.5,1.7.2.9,6.2.7.5,2.8-.2.8,1.5,2.4,2.1.5,1.7,2.1,1.7.6,3.8,1.2,1.4.9,3,1.9.9,1.1,1.7,2.5,1.5.8,2.3,2.6,1.4-.3,1.2,1.5,6.3,3.2,2.3,6.2,1.3.5.6v2.2h0l-1.4,1-6.8-.6-3.4-1.5-3,1-1.3,2.7,1.7,4.3-1.6,4.3,1.3,2-.2.6-3.3.8-1.4-.2-.9-2.2-3-2.7-3.1,1.8-1.8.2-.8,1.8-2.1-.8h-2.2c0,.1-.2,1.4-.2,1.4l-3.5,2.5,2.7,5.5h-12.1s.3,3.6.3,3.6l-1,2,.9,1.8.2,3.5h0l-.8.6-.5,2.3-1.4,1.1v1.2s.9,1.8.9,1.8l-2.2,1.9-4,6-4.2,2.6-2.7-.8-1.5.2-1.5,4.1-2.7,2.3h-2c0,0-2.3,1.8-2.3,1.8h-.8s-.7-.8-.7-.8l-.5.5-1-.2-.8.5-1.2-.6h-3c0,0-.7-.9-.7-.9l-1.6-.4-.3-.7h-1.1c0-.1-.2-1.1-.2-1.1l-.8.2-1-.6-2.6-2.7-2.5-.7-1.4-1.6-.2-2.5-.8-1.2-1.2.2-1.5-2.6h-1.4c0,0,0-2.2,0-2.2l-1.1-.5v-1.2s-.6,0-.6,0l-.5-.7-1.1.6-.6-.7-2.7-.4v-1.3c-.1,0,.5-1.6.5-1.6l-1.1-.5.8-1.2-1.1.3-1.8-1.7-1.5.4-1.1-1.2-.5.9-1.4-1.4-.7.9-1.4-1.6-.4-.9,1.1-.9-1.1-1.4,1.2-1.3-.7-1,.9-1.1-.5-1.7,1.3-.9-1-.8.5-1.7-1-2.2-3.4-3.2.2-.6-.5-.2.4-.9-.9-1.6-2.2-1.6-1.3-2.7-.7-.3-.6-3.3-.5-.4h-1.1s.8-2.5.8-2.5l2-1.4-.6-.9-2.3-1.1-1-1.4-2-.8-.5-.9-1.3.2-.3-1.6-.7.4-.7-.4.2-.8,2-1.8h1.4c0,0,1-1.8,1-1.8l1.3-.7h1.3s1.2-.9,1.2-.9l1.6.6,3-1,3.3.9,4.8-.9,1.5.6,1-.7.6.7,2-.9.9.8h2.6c0,0,1.8-.9,1.8-.9l3.7-.7.7.7.8-.8h2.3c0,.1.4-.8.4-.8l1.5-.2.6-.9,2-1,1.1.3.7-.9,1.1.7,3.3-.5,1.9,1.1,2.9-.2,3.6-1.4,1.7-3.9v-1.3c0,0,.9,0,.9,0l.2-1.1,1.4.3.5-.5.9,1h1.2s.9-2.9.9-2.9l3.6-.2.3-1,1.3-.5Z"/>
    <path id="CF-BGF" d="M172.8,339.3l-2.2-.2-1.4.8h0l-.8-1.5.9-1.6,2.4-.2,1.2,2.7Z"/>
    <path id="CF-BK" d="M238.1,332.8l4.5-2.2,5-5.9,3.6-1.8,2.1.4,1.4-1-.4-4.4,1.6-3.4-1.4-3.3,2-3.4.4-3.7-.4-2.4,1.3-1.6-.4-2.3-1.5-1.1.4-.5,2.8-.7-.2-1.8,1.4-1.8-1-1.6.2-.8,1.7.3,1.5,2.1,1.5-.2.6-.6,2,1,2.2-1,1.5-1.6,1.2.9,1-1.4.7,1.3,1.2.3,1.1,2v1.8s1.1,2.8,1.1,2.8l1.2.2.6,1.2,2.7-.5,1-2.4h0l3.3.3,5.4,2.3h0l-.3,2.1.5,2-.6,1.8v4.5c-.1,0-1.2,1.9-1.2,1.9l-2.4,1.8,1.4,3.4-2,2.9-.2,3.9-.9,1.6-.3,2.5,2.9.4.8,1.1h1.3c0,0,.4.8.4.8l1-.2v1.3s1.5,1.4,1.5,1.4l-.6,1.1.4.3,1.8.4,2.7-1h1.7c0,.1.9.8.9.8l-.5,2.1-2.5,3.9.4,2.4-1.3,1.2v1.4h-.1l-1.6-.7-1.2.6-3.7-.6-2-1.1h-1.2s-1.4-1.2-1.4-1.2l-2.1.3-1-.5-3.1,2.3-3.5-.8-1.5.3-3.4-1.2-1.9-1.6-1.2.3-.5,1.2-.9.3-3.4-1.8-1.6-2.1-7.7-1.9-2.6,1.2-2.4-.3-4.2.7-4.9-3.1-.9-1.6Z"/>
    <path id="CF-HK" d="M349.7,170.6h1c0,0,1.4-1.7,1.4-1.7l.6.4-.2,3.5-1.3,2.1-1.4,1.2.4,3.2.9.3,1.2-.8h1.9c0-.1,4,.9,4,.9l2.9-.8,2,.8,2.5-.5,2,.8,5,.6,1.2-.6,1.5.7,1.7-.9.3,1-1,1.9,1.4,1.6-3.6,3.9-.7,3.5,1.9,3.1,2.7,1.2h0l.5,1.3,2.6,2.1,1.9.6.2,1.8,2.3,2-.6,3.6-.7,1,.7,3.5.8,1.5-.2,1.8.7,1.3-.2,2.9,1.7,3.7.9.4-.4.5,1.5.7-3.2,6.3.4,1.5-.4,1h1.1s-.2,1-.2,1l1,.8-.8,3.9.6,2.2-.5,1-.9-.2-.9,1.3-5.2.4-.2.8-.9.3,1.1,2-.9.3v1.2c0,0-1.6.8-1.6.8l1,1.5h-1.5c0,0-.3.8-.3.8h0l-29.9,16.6-1.8,3.3h-2.8l-.2,1-.7.5.2,2.3-.9.9-14.6-3.8-1.3-2.7-1-.5-2.3.5-2.5-.5-5,1-2.8,6-3.2,1.7-1.2-.4-2.1.4-.7-1h-1s-.4.8-.4.8l-2.5.8-2,1.8.6,1.1-1.8,2.2v4.6c0,0-1,1.1-1,1.1l1.3,3.3h-1.9s-.3.7-.3.7l.9.4-.4.6-2.5,1.7-2.4,2.5h0l-5.4-2.3-3.3-.3h0v-1.8s3.7-2.9,3.7-2.9l3.5,2.2,1.6-2,1.4-5.4.2-3.2-1.3-1.5-.8-3.1-2.5-.5v-1.5c0,0-1.1-3.3-1.1-3.3l-1.9-1.5,2.7-4.5-1.4-3.6.8-4.4-.8-.9-2.6-.3-2.3-3.4-.2-2.2-1-.8v-.6s1.3-.9,1.3-.9l-.2-1.5.6-1-.8-1.6v-2c0,0-1-.4-1-.4l-1-6.8v-4.4s-.8-.5-.8-.5l-2.1.3-2.8-.4-.4-1.1.5-5-1.2-2.3-2.6-2-3.9-.9-3-3.1h0l-.2-3.5-.9-1.8,1-2-.3-3.6h12.1s-2.7-5.5-2.7-5.5l3.5-2.5.2-1.3h2.2c0-.1,2.1.7,2.1.7l.8-1.8,1.8-.2,3.1-1.8,3,2.7.9,2.2,1.4.2,3.3-.8.2-.6-1.3-2,1.6-4.3-1.7-4.3,1.3-2.7,3-1,3.4,1.5,6.8.6,1.4-1h0l1.6-.3,1.8.6h1.4c0-.1,2.2-2.3,2.2-2.3l3.3-2h5.3s4.5-1.9,4.5-1.9l2.6-.4,1.8.3.9-1.2v-3.4l.5-.8,4-2.9,2.5-.3,1.9-1.3,1-5.4.9-1.5,1.6-.9,2,.2-.8,2,.9,1.9h0l-.3,3.1-.6,1.1.6,1.3,1.4.7Z"/>
    <path id="CF-HM" d="M384.3,195.9h.9s.7,1.3.7,1.3l2.2,1.2,3.4-.8,3.4.6.8.9,2.6-.3,1.2.4.9,1.6.6,3.2,1.5.9,1,1.6,3.2,2.1,1.3,1.6,3.2-.7,1.2,1.3h.6s1.3,2.5,1.3,2.5h.8s-.3,3.7-.3,3.7l.9,1.2h-.6c0,.1,0,1,0,1l-4.1,2.2.8,1.6v1.7c.1,0,1.5.6,1.5.6h1.3c0-.1,1.3,1.8,1.3,1.8h1s.9,2.9.9,2.9l3.3,1.4v.9s1.7.6,1.7.6l1-.4.8.9h.8c0,0,0,.7,0,.7h1c0,0,0,.5,0,.5l3.8.9.7.9.8-.3.4.7,2.5.4v1.4s2.6.5,2.6.5l.6.5-.5.6,1.1.3.2.6,1.8.2.3,1.1,2.3.2.2,2-.5.7h.8s.2.9.2.9h.8c0-.1-.1,1.7-.1,1.7l.7,1.1,2.3.4.3,1,1.2.8v.6s1.8.5,1.8.5l.2.9,3.5.7,1.8,1.4.3.5-.4.9-.8.6v.6s-1.1.1-1.1.1l-1.2,2.3.2.5-1.1.2-.4,1.2h.6c0-.1-.1.8-.1.8l.6.4-.8,1v.5c.1,0,3.3,2.8,3.3,2.8l3.3,1.3v1.5c-.1,0,.5.8.5.8l1.1-.4.6.4-.9,2.1-1.9,1.2-.3,1.4.3.3,2.1-1.4,1.5,3h1.7c0,.1,1.8,1,1.8,1l1-.5,1.3.5,1.2-.3,2.1.9,1.2,3.5,1.1.4,1.6-.4,1.6,1.7,1.4-.4.7.4,1.3,2.1,1.9-.4.6.9,1.5.3-.6.7,1.6.8,1.1,1.4-.2.6.9,1v2s.8-.4.8-.4l.9.5-.4.8.2,1.3-1.6,3.8.2,1.7.6.7-.3,1.3,2.5,4.3,3,2,.3,1.2,1.8,1.7.3,2-.8-.2v-1.5c0,0-1-.9-1-.9l-6.7-2.4-2.7-1.7-1.7-.3-3,.7-3.4,1.9-.8,2-.8.2-.7,1.5-1.5-.9-.9.4-1.3-1.3v-.6s-3,.5-3,.5l-.3-.3-.4.7-1-.4-.4.9-.5-.6h-1.4s0,.6,0,.6l-.6-.5-.6,1.1v-.8s-.5.9-.5.9h-1.4c0,0-1.2-.8-1.2-.8v-1.1c.1,0-.5.1-.5.1v-.8s-.6,0-.6,0l-.4-.7-.5.4-.3-1-.9.2-.6-.5-.9.7-.4-.6-.5.5-.3-.7-.4.2v-.5c0,0-1,0-1,0v-1s-.4.5-.4.5l-.2-.9-.6.5-.5-1.6-.8.7v-.9s-.8.5-.8.5v-1s-.8-.3-.8-.3l-.9,1.2-.9-.2.3,1-.8-.2-.3.7-.5-.7-.6.4-1-.2v-.7c0,0-.7.3-.7.3l-.3-.7-.7.6v1.1c0,0-.9-.5-.9-.5l-1.2.2v1.3s-.9-2-.9-2l-1.3.2-.4.9-.6-1.1h-.4c0,0,.4-1,.4-1l-1.1.3.4-.6-.3-.7-.8.3.5.4-1.2.5-1.5-2.2-1.8-.3v-.8c0,0-1.1.9-1.1.9l-.2-.7h-.8s.8-1,.8-1h-.9c0,0-.6-1-.6-1l-1.3-.4-.4.3.4.8-1.3.4-.9-.8-2.1,1.7h-.5s-.4-.8-.4-.8l-.3.7-1,.2.6.6-1,.5-1.3,3.3.4,1.4.8.3-1.4,4.1-4.3.7-.4.5-1.4-.9-.7,1h-5l-1.7.5-.7.9h-1.6s-.4.9-.4.9h-2c0,0-1.1,1.1-1.1,1.1l-.5-.6-1.6.6-.5-.6-2.3.2.6-1.8-1.5-.2-.7-2-1.8-.2-1.1-1.6-2.1-.7h0l.9-.9,1.3.7.8-.5v-.5s-.8,0-.8,0l-.2-.6.5-.4-.4-.4.4-.8.9.6v-1s1.2-2.4,1.2-2.4l.5.5h2.7c0,0,2.1-1.3,2.1-1.3l1,.5.3-.9,1.1-.4.7-1,1.2.6v-2.3s.8.3.8.3v-.7c0,0,.8-.4.8-.4l-.3-.9,1.2.4,1.2-.7-.6-1,1.9-1.1.5-1.5.9-.6-1.1-.3,1-.7-.7-.8.5-.9-.4-1.1.7-2.5-.6-.8,2.1-.7.9-1.1,1,1.4.6-3.7,1.1-1.7-1.3-1.8-2.1.3-.5-1.5-1.3-1v-1.2h-1.6l-.8-1.5-5-4.3.4-.4,2.7.9,2.4-1.1.7-2,2.2-.4-.4-2.5-6.7-4.8-3.6.4-2.9,3.3-2.4-.3-1.4.7-12.3-13.5h0l.3-.9h1.5c0,0-1-1.5-1-1.5l1.7-.8v-1.2c0,0,.8-.3.8-.3l-1.1-2,.9-.3.2-.8,5.2-.4.9-1.3.9.2.5-1-.6-2.2.8-3.9-1-.8.2-1h-1.1s.4-1,.4-1l-.4-1.5,3.2-6.3-1.5-.7.4-.5-.9-.4-1.7-3.7.2-2.9-.7-1.3.2-1.8-.8-1.5-.7-3.5.7-1,.6-3.6-2.3-2-.2-1.8-1.9-.6-2.6-2.1-.5-1.3h2.3c0,0,1.2.8,1.2.8l1.6-1.1,1.3.2Z"/>
    <path id="CF-HS" d="M94.3,305.7l6.8-4.3,2.8,1.6,4.8-.9,4.3,3,3.2,4.5-.6.9-4.1,1.8,1.6,2.5h0l.2,1.1-.5,1-1.8.4-2.3,1.9-3,1.1-.2,5.4.7,2.7,1.4,1.4,1.6,3.7,2,1.2,1.4,3.1.9,1.1,1,.2v.9c0,0-3.1-.3-3.1-.3l-1.5-1.5-2.1-1.2h-.7c0,0-3.3,3.1-3.3,3.1l-1.5,3.3h0l-2.7-.8-2.4,4.5v3.7s-.5,1.5-.5,1.5l-4.1,4.1-.3,1.4-.8.8-2.2-2.2h-2.9c0-.1-2.9-2-2.9-2l-3.9-.9-1.3-.9-5.9.5-6.4,2-3.8,2-1.5,1.4-1.6,3-2.2.3-.5-1.4h-1.4c0-.1-6.1,3.6-6.1,3.6h0l-4.8-7-2.2-4.6h-1.2s.4-.6.4-.6l4.2-1.5-.4-.5h-.9c0,.1-1.5-2.5-1.5-2.5l.2-1.3-1-4.9-1.5-2.1h-.5s-.6-1.9-.6-1.9l-4.6-1.8-5.8-5.2-.4-4.8-.6-.9.7-.9-.5-2.4.3-.3-1.1-2.4.4-1.2-.6-1,.2-1.1h0l6.7.9,2.7-.7,3,2.6,2.1-2.1h8.6s.9-.7.9-.7l1.3.8h1.1c0-.1,3.4-2.1,3.4-2.1l2.2,1.2,5.1.2-.4-4-.7-1,1.5-2.2v-.5c-.1,0,.9-.4.9-.4l1.6.2.8,2.6-.2,1.4,1.1,2.3,4.4-1.9,1.4,1.8h1.1c0,.1,18.8-7.7,18.8-7.7Z"/>
    <path id="CF-KB" d="M187.7,185l.5.4.6,3.3.7.3,1.3,2.7,2.2,1.6.9,1.6-.4.9.5.2-.2.6,3.4,3.2,1,2.2-.5,1.7,1,.8-1.3.9.5,1.7-.9,1.1.7,1-1.2,1.3,1.1,1.4-1.1.9.4.9,1.4,1.6.7-.9,1.4,1.4.5-.9,1.1,1.2,1.5-.4,1.8,1.7,1.1-.3-.8,1.2,1.1.5-.6,1.6v1.3c.1,0,2.8.4,2.8.4l.6.7,1.1-.6.5.7h.6c0,0,0,1.1,0,1.1l1.1.5v2.1s1.4,0,1.4,0l1.5,2.6,1.2-.2.8,1.2.2,2.5,1.4,1.6,2.5.7,2.6,2.7,1,.6.8-.2.2,1h1.1c0,.1-.5,1.4-.5,1.4l.3,1.8-1.7,4.6-2.1,1.7-.7,1.8-3.6,2.9-2.5,3-.2,1.3.8,4.9-.7.2-1.6-1.2h-2.7c0,.1-8.6-1-8.6-1l-6.3,1.7h-3.4c0,.1-3,1-3,1l-2.9-1.1-1.7-2.8-.9-.5-9.6,1.4h0l.8-2.6,3.2-1.8.5-1.1-.5-.8-2-.7-2.2-1.7-.3-.9.7-1.4h-1.1c0,0-.7-2.7-.7-2.7l-2.1-1.9.2-1,1.5-.9.6-2.5,1.1-.7v-.7s-1.3-.3-1.3-.3v-.6s2.1-1.3,2.1-1.3l.3-1.9,2.6-1.5-4.7-12.8,1.5-1.3,9.6-4.5-1.5-.5v-1.1c-.1,0,.5-1,.5-1l-.6-.9,1.1-1.1-.8-1,1.6-1v-2.9c-.1,0,1.1-1.8,1.1-1.8l-.7-.8.7-.7-.5-1.3.7-.7v-1.8c0,0-.3-.9-.3-.9l-1.3-.5-.2-.7v-1.1c.1,0,1-.4,1-.4l-.2-1.6.8-.4-.2-1.3.8-.4-.7-1.3.6-1.2-.6-.7.7-.8v-1.7Z"/>
    <path id="CF-KG" d="M175.9,260.4l9.6-1.4.9.5,1.7,2.8,2.9,1.1,3-.9h3.4c0-.1,6.3-1.8,6.3-1.8l8.6,1.1h0l-.2,1,.6,1,3,1.5,1.5,1.6-1.3,3.6.9,1.6-1.4,1.2.6,1.4-2.2,3h-2.4c0,.1-.7,1.5-.7,1.5l-3.9,2.7,1.1,4.6-.7.9,2.4,1v2c0,0-.5,1.1-.5,1.1l-3.6,2.9-3.1.5-.3.7,1.7,2.3,18.4-.3v2.1c-.1,0-2.2,4.1-2.2,4.1l.2,2-.8,5.1-1,1.3-2.1.9h0l-1.1-1.1-4.7-1.4-3.1.2-2.1-.7-2.4.9-2.2-.3-6.9,4.5-1.4,2.4-3.2.3h0l-.9-4.1-1.3-.9-.5-1.5-1.9-2.1v-2.5c.1,0,1.5-3.7,1.5-3.7l-1.8-3.5-2.5-1.5-1-1.3-.4-4.3-6.6-1-2.1-2.7h0l-.2-3.6-.8-1.9,1-2.3-.5-1.9,2.6-1,6-5.1,1.8-.5.3-.6-1.8-1.5v-4.4s-4.5-4.4-4.5-4.4l.4-1.4Z"/>
    <path id="CF-LB" d="M113.1,314.8l3.5-.6.9,1.7,2.5.9.9,1.5,1.5.6.5,1.3,5.4,2.5,2.2,2.5,1,5.6,1.8,2.2,2.4.6.6-.7h1.9c0,.1,1.3-.4,1.3-.4l2.2.9.7,1.8,1-.3,1.2.9,1.8-1.1,3.4.6v.7s.7.3.7.3l2.1-.9.6.4,2.3,4,3.3.7.8,1.1,1.2,2.5.2,3.1-.5,1.5.5,1.4,1.8,1.4.6,1.4,1.8.7.4,1.3,3.7,1.6.7,1h0l-.2,5.5,1.6,8.5-1.5-.2-2.2-4.8-1.8-1.6-1.4,1.9h-1.3c0-.1-.1.8-.1.8l-2.4-1.1-1.4.8-1.5-.2-1,3.3-1.9.7-1.6-2.6-1.4-.7-3.8-.3-.2,1-1-.3-1.2-1.5-.7,1.1-2.2,1.5-1.1-3.4-3.5-.9-1,.6-3.6-.2-2.3-1.6-1.9-.6-2.8,1.1h0l-1.7-3.2-1.8-2-5.7-2.6-2.7-.5-2.1-1.4-2.3-.2-1.2-1-4.1-6.6-3.2-3.3h0l1.5-3.3,3.3-3h.7c0,0,2.1,1.1,2.1,1.1l1.5,1.5,3.2.3v-.9c0,0-1.1-.2-1.1-.2l-.9-1.1-1.4-3.1-2-1.2-1.6-3.7-1.4-1.4-.7-2.7.2-5.4,3-1.1,2.3-1.9,1.8-.4.5-1-.2-1.1Z"/>
    <path id="CF-MB" d="M377.4,251.6l12.3,13.5,1.4-.7,2.4.3,2.9-3.3,3.6-.4,6.7,4.8.4,2.5-2.2.4-.7,2-2.4,1.1-2.7-.9-.4.4,5,4.3.8,1.5h1.5v1.2c0,0,1.4,1,1.4,1l.5,1.5,2.1-.3,1.3,1.8-1.1,1.7-.6,3.7-1-1.4-.9,1.1-2.1.7.6.8-.7,2.5.4,1.1-.5.9.7.8-1,.7,1.1.3-.9.6-.5,1.5-1.9,1.1.6,1-1.2.7-1.2-.4.3.9-.9.4v.7c0,0-.7-.3-.7-.3v2.3s-1.3-.6-1.3-.6l-.7,1-1.1.4-.3.9-1-.5-2.1,1.4h-2.7c0,0-.5-.6-.5-.6l-1.3,2.4v1s-.9-.6-.9-.6l-.4.8.4.4-.5.4.2.6h.7c0,0,0,.6,0,.6l-.8.5-1.3-.7-.9.9h-1.4c0,0,.3,1.3.3,1.3l-.5.2-1-1.9h-.6c0,0-1.2,1.9-1.2,1.9l.6.5.9-.3.5.8-1.3.8-2.8.2-.9.8v1.6s-.8,0-.8,0v-.6s-.6-.3-.6-.3l-2.8,2.4-2.6-.6-4.2,2-.6-.8-.4,2.5-2.1-.8-1.5.8-.6-.7-2.3,1.8h-2.2c0-.1-4.7,1.7-4.7,1.7l-3,2.2h-1.3s-1.2.8-1.2.8l-.4,2.2h-1.4l-.8-.7-1.1.2-1.9-.9-.6-1.4-2-1-1.3-1.7-2.1,1.1-1.2-.3-2.5-1.4-1.7-3.1-.9.8h-1.3c0,0-.7,1.1-.7,1.1l.5,1-1,.7-.3,1.1-.7.2-1.3-.9-.9.8-1.6,2.9-.2,2.5-1,1.5-.3,1.6-.7.4-.6-.7-1.3-.2-1,.5-.5,2.6,1.3.8v1s-1.6.8-1.6.8l-1.1,1.8.2,2.3-3.5,3.2-6.9.5-3.8-1.5-2.5-2.1-2.2-.4h0v-1.4c.1,0,1.4-1.2,1.4-1.2l-.4-2.4,2.5-3.9.5-2.1-.9-.6h-1.7c0-.1-2.7.8-2.7.8l-1.8-.4-.4-.3.6-1.1-1.6-1.4v-1.3s-.9.2-.9.2l-.4-.8h-1.3c0,0-.8-1-.8-1l-2.9-.4.3-2.5.9-1.6.2-3.9,2-2.9-1.4-3.4,2.4-1.8,1-1.9v-4.5c.1,0,.7-1.8.7-1.8l-.5-2,.3-2.1h0l2.4-2.5,2.5-1.7.4-.6-.9-.4.3-.6h1.9s-1.3-3.3-1.3-3.3l.9-1.1v-4.6c0,0,1.9-2.2,1.9-2.2l-.6-1.1,2-1.8,2.5-.8.4-.7h1s.7,1,.7,1l2.1-.4,1.2.4,3.2-1.7,2.8-6,5-1,2.5.5,2.3-.5,1,.5,1.3,2.7,14.6,3.8.9-.9-.2-2.3.7-.5.2-1h2.8l1.8-3.3,29.9-16.6Z"/>
    <path id="CF-MP" d="M111,284.3l-.2,1.9,2.1,3.6,20.8-.3,7.5-4.3,1.8-2.1,1.9-.5,3,2h.6c0,0,.1,1.4.1,1.4l.8.6,2.1-.6,1.4,1,4.2-.6.9.5.5,1.7,2.6-.5,2,.8v.8c.1,0-1,1.1-1,1.1l1,1.9.3,2.7,6.9-3.1.7-1.5v-1.7c-.1,0,.7.1.7.1h0l2.1,2.7,6.6,1,.4,4.3,1,1.3,2.5,1.5,1.8,3.5-1.3,3.7v2.5c-.1,0,1.8,2.1,1.8,2.1l.5,1.5,1.3.9.9,4.1h0l-1.4,1.4-2.4,5.2-2.8,3.2-1,.4-2.7,3.6-1.5,5.1-2.1,2-2.4.4h0l-1.2-2.7-2.4.2-.9,1.6.8,1.5h0l-.8,1.2,2.6,4.9,1.1,3.3v3.6c.1,0-1.5,2.5-1.5,2.5l-.4,2h0l-.7-1-3.7-1.6-.4-1.3-1.8-.7-.6-1.4-1.8-1.4-.5-1.4.5-1.5-.2-3.1-1.2-2.5-.8-1.1-3.3-.7-2.3-4-.6-.4-2.1.9-.7-.3v-.7s-3.4-.6-3.4-.6l-1.8,1.1-1.2-.9-1,.3-.7-1.8-2.2-.9-1.3.5h-1.9c0-.1-.6.6-.6.6l-2.4-.6-1.8-2.2-1-5.6-2.2-2.5-5.4-2.5-.5-1.3-1.5-.6-.9-1.5-2.5-.9-.9-1.7-3.5.6h0l-1.6-2.5,4.1-1.8.6-.9-3.2-4.5-4.3-3-4.8.9-2.8-1.6-6.8,4.3h0l-.2-1.9-1.1-2.4,1.1-4.5v-2h-.1l3.4-2,.9-1.5,1.7-1.2.3-1.6,2.8-2h1.4c0,0,2.7-1,2.7-1l2.2-.2,1.6-1.1Z"/>
    <path id="CF-NM" d="M36.5,254l1.8.2,3.3-1.6,3.9-1v2.5c.1,0,3.5,2.4,3.5,2.4l.8,1.7.8,5.6.8.9v1.1c.1,0,2.8,2.6,2.8,2.6l1.8-1,2.4.6.8-1.1,5.3-1.8,1.7-1.5.9.6.4,1.5-2.8,2.6-.4,1,2.5,2.7.9,1.7v4.6c0,0,.9,1,.9,1v2.4s2,1.7,2,1.7l2.6.9,1.5,1.9,3,.7,3.4-1.6,1.2-2.9,2.2.2.6,2.7,1.7,2.2,2.2,1,2.8,2.4.4,1.6,1.9,2.4h0v2c.1,0-.9,4.5-.9,4.5l1.1,2.4.2,1.9h0l-18.8,7.9h-1.1c0-.1-1.4-2-1.4-2l-4.4,1.9-1.1-2.3.2-1.4-.8-2.6-1.6-.2-1,.4v.5c.1,0-1.4,2.2-1.4,2.2l.7,1,.4,4-5.1-.2-2.2-1.2-3.4,2h-1.1c0,.1-1.3-.7-1.3-.7l-.9.7h-8.6s-2.1,2.2-2.1,2.2l-3-2.6-2.7.7-6.7-.9h0l-.2-2,.7-.9-.9-3.5-.7-.7-2.7-.5-1.9-1.9.9-.9.9-3.1.9-.5v-2.4c0,0,1.1-1.5,1.1-1.5l-1.3-3,1.2-4.1-.2-7.2-.8-.9-1.3.8h-1.8s-.8-.6-.8-.6l-.8-2-1.8-2.3v-1.9c.1,0,1.8-.5,1.8-.5l3.3-3.4,6.9-2.6,2.4-3.6v-1.8c0,0,4.6-10.2,4.6-10.2Z"/>
    <path id="CF-OP" d="M96.9,211l-.4,1,.5,1.1v1.3c-.1,0,2.6,1.1,2.6,1.1v2.6s.8.7.8.7h1.3s2.5,2.4,2.5,2.4v.9c0,0,1,1.1,1,1.1h0l-.4,2,.8,1.6-1.5,1.5-.5,4.7-.9,2.4.6,2.7-1.5,2.8-1.1.3.2,1.2-.9.6.4,1.6.9.6.5,1.8v4.1s1.1,2.4,1.1,2.4l.2,3.1.9.7.9-.7-.8.8v1.6c.1,0,1.5.5,1.5.5l.8,1.9,2.3,1.4h1.3c0-.1.5-1.2.5-1.2l2.1.4.8-.5,2.2,1.4-.3,2h-1c0,0-.9,1-.9,1h-.8c0,0,.3,1.2.3,1.2l-.6.4v.6c.1,0-2.1.3-2.1.3l-.6,2.8.6,3.1-1.8.9.9,2.6.2,3.3,1.2,1.5.5,1.7h0l-1.6,1.1-2.2.2-2.7,1.1h-1.4c0,0-2.8,1.9-2.8,1.9l-.3,1.6-1.7,1.2-.9,1.5-3.4,2h0l-1.9-2.4-.4-1.6-2.8-2.4-2.2-1-1.7-2.2-.6-2.7-2.2-.2-1.2,2.9-3.4,1.6-3-.7-1.5-1.9-2.6-.9-2-1.7v-2.4s-.8-1-.8-1v-4.6c0,0-.9-1.7-.9-1.7l-2.5-2.7.4-1,2.8-2.6-.4-1.5-.9-.6-1.7,1.5-5.3,1.8-.8,1.1-2.4-.6-1.8,1-2.7-2.6v-1.1c-.1,0-.9-.9-.9-.9l-.8-5.6-.8-1.7-3.3-2.4v-2.5c-.1,0-4.1,1-4.1,1l-3.3,1.6-1.8-.2h0l1-2.2,1.8-.6,1.1.2.5-.6,2.8-6.2.2-3,.8-1.4h1c0-.1,1-2.6,1-2.6l-.4-1.4.9-1.4-.8-.4.3-.5,7.4-6.4,2.7-4,2.1.5,6.1-.3.5,1.5,2.4,1.4,6-1.5,2.4-1.8.4-1.4.6-.4,3.6-.5.8-.7,1.8.3,2.4-1.7,3.3-.7,1.4-1.7-.5-.3.3-.7-.5-.8,1-1.4h.6c0,.1.2.7.2.7l1.1-.2,1.1-2,2.8-1.3v.7Z"/>
    <path id="CF-SE" d="M102.1,343.2l3.2,3.3,4.1,6.6,1.2,1,2.3.2,2.1,1.4,2.7.5,5.7,2.6,1.8,2,1.7,3.2h0l-.8.4-1.2,2-2.3-.8-1.7.7-.5,1.2-2.5.5-.6-.4-3.6,1-.8,1.3-1.1-1.2-1,.2-.7-.7h-3.1c0,0,0,1.2,0,1.2l-.8.6-3.6-1.7-3,.6-2.2,1.6-.6,1.1-.6,4.5-.8,1.3v1.9c.1,0-1.8,3.4-1.8,3.4l1.4,3.4-1.9,2.2v3.5c-.1,0,1.1,1,1.1,1l-.2,1.4-12,22.6-1-.9.2-1-.8-2.8-2.7-4.2.3-1-.7-1.3.6-2.6-.6-1.5.8-2.2-1-.4-.4-2.9.8-.4.6-1.2-2-5.1-1.1-1-1.3.5-3-4-1-.5-2.3.3-10.6-12.4-8.3-8.6h0l6.1-3.8h1.4c0,.1.5,1.5.5,1.5l2.2-.3,1.6-3,1.5-1.4,3.8-2,6.4-2,5.9-.5,1.3.9,3.9.9,2.9,1.9h2.9c0,.1,2.2,2.3,2.2,2.3l.8-.8.3-1.4,4.1-4.1.5-1.5v-3.7s2.3-4.5,2.3-4.5l2.7.8Z"/>
    <path id="CF-UK" d="M262.9,216.8l3,3.1,3.9.9,2.6,2,1.2,2.3-.5,5,.4,1.1,2.8.4,2.1-.3.8.5v4.4s1.1,6.8,1.1,6.8l1.1.4v2c0,0,.7,1.6.7,1.6l-.6,1,.2,1.5-1.3.9v.6s.9.8.9.8l.2,2.2,2.3,3.4,2.6.3.8.9-.8,4.4,1.4,3.6-2.7,4.5,1.9,1.5,1.1,3.3v1.5c0,0,2.4.5,2.4.5l.8,3.1,1.3,1.5-.2,3.2-1.4,5.4-1.6,2-3.5-2.2-3.7,2.9v1.8h0l-1,2.4-2.7.5-.6-1.2-1.2-.2-1.1-2.8v-1.8s-1.1-2-1.1-2l-1.2-.3-.7-1.3-1,1.4-1.2-.9-1.5,1.6-2.2,1-2-1-.6.6-1.5.2-1.5-2.1-1.7-.3-.2.8,1,1.6-1.4,1.8.2,1.8-2.8.7-.4.5,1.5,1.1.4,2.3-1.3,1.6.4,2.4-.4,3.7-2,3.4,1.4,3.3-1.6,3.4.4,4.4-1.4,1-2.1-.4-3.6,1.8-5,5.9-4.5,2.2h0v-3.5s-4-4.5-4-4.5l-5.4-2.8-1.4-1.8-2.4-1.1-2.5-2.2-4-.5-1.5-1.4-.7-1.7h0l2.1-.9,1-1.3.8-5.1-.2-2,2.1-4.1v-2.1c.1,0-18.3.3-18.3.3l-1.7-2.3.3-.7,3.1-.5,3.6-2.9.6-1.1v-2c0,0-2.5-1-2.5-1l.7-.9-1.1-4.6,3.9-2.7.7-1.4h2.4c0-.1,2.2-3.1,2.2-3.1l-.6-1.4,1.4-1.2-.9-1.6,1.3-3.6-1.5-1.6-3-1.5-.6-1,.2-1h2.7c0-.1,1.6,1,1.6,1l.7-.2-.8-4.9.2-1.3,2.5-3,3.6-2.9.7-1.8,2.1-1.7,1.7-4.6-.3-1.8.5-1.3h0l.3.7,1.6.4.7,1h3c0,0,1.2.5,1.2.5l.8-.5,1,.2.5-.5.7.8h.8s2.3-1.7,2.3-1.7h2c0,0,2.7-2.4,2.7-2.4l1.5-4.1,1.5-.2,2.7.8,4.2-2.6,4-6,2.2-1.9-.9-1.8v-1.2s1.4-1.1,1.4-1.1l.5-2.3.8-.6Z"/>
    <path id="CF-VK" d="M314.5,95.4l1,.5,1.6-.5,1.6.7,2.9.2,1.3,1.1,4.1.5v1.3c.1,0,1.4,1.2,1.4,1.2l2.8,5.1,4.8,3.1,2.9,3.5,3.4,2.6,13.4,21.5,1.1,8.3-2.5,4.6,1,.2-.8,2.3.4,1,.9-.4.3.7-1.4,3.5.6,2.1-4,4-2,.2-.7,1.6h0l-.9-1.9.8-2-2-.2-1.6.9-.9,1.5-1,5.4-1.9,1.3-2.5.3-4,2.9-.5.8v3.4l-.9,1.2-1.8-.3-2.6.4-4.5,1.8h-5.3s-3.3,2-3.3,2l-2.2,2.2h-1.4c0,.1-1.8-.5-1.8-.5l-1.6.3h0v-2.2c0,0-.4-.6-.4-.6l-6.2-1.3-3.2-2.3-1.5-6.3.3-1.2-2.6-1.4-.8-2.3-2.5-1.5-1.1-1.7-1.9-.9-.9-3-1.2-1.4-.6-3.8-2.1-1.7-.5-1.7-2.4-2.1-.8-1.5-2.8.2-.7-.5-.9-6.2-1.7-.2-.8,1.5-2.7,1.3-1.6,1.4-.6,1.5-1.3,1.2-1.8.7-3.8.3-2.2,1.1-1.4,2.5-2.6.9-1.7,2.1-1.6-.2-1.5-2.2h0l.8.4v-1.2s1.4-.9,1.4-.9l.3-1.3h1.5c0,0,.4-1.8.4-1.8h.9c0,.1,0-1.7,0-1.7l1.3-.2-.8-.8h1c0-.1-.5-.8-.5-.8l.6-.7-1.1-.6h1.3c0-.1-.3-1.6-.3-1.6l1.3.7v-1.7l1.2.3,1.9-1,.7-2.1,2.4-1.8v-1.3c.1,0,2-2.2,2-2.2l1.6.8.4-.8,1,.9.7-.2.3-.7,1.2-.5.5-1.5,1.7-1.7-.2-1.4,2.7-3.4.8-.5.6.6h1s1.2-.8,1.2-.8h1.7s-.3-.8-.3-.8l.8-.4-.2-.5h1.1c0,0,.8-.9.8-.9l.3-.7-.5-1,.6-.3v-1c0,0,1.1-1.1,1.1-1.1l-2-3.6.6-1.7v-3.7s.9.4.9.4l1.1-1v-4.6s1.6-1.7,1.6-1.7l1.2-.3.6-.9,2.9.4v-.5c0,0,.8.3.8.3l1.2-.8,2.1-.4,2.8.7,1.6-1.2,3.5-.8,1.4-.9,3.6-.6.7-.7,2.4-.7,1.2.3Z"/>
  </g>
</svg>