<svg xmlns="http://www.w3.org/2000/svg" xmlns:amcharts="http://amcharts.com/ammap" id="Layer_1" viewBox="0 0 512 512"><g id="_x3C_defs"><amcharts:ammap bottomLatitude="7.44" leftLongitude="13.472" projection="mercator" rightLongitude="24.003" topLatitude="23.451"/></g><g><path id="TD-BA" d="m295.6 251.7.6 51.8-.2 3.9 6.4 3.9.8 2.3-.9 4.4 2.9 6-.2 11.2-.8 1.8-8.7 2-8.1-3-18 10.6-21.5-.2-12.5 7.4-5.6.2-9.6 7.6.9 2.3-5.7-1.8-.7-2.7-2.4-2.4-.5-4.4-4.3-3.8-1.8-5.4-4.1-3 6.2-6.8 2.4-3.4-.2-6.7 1.1-7.3 9.6-3 14.1-53.5 8.8 4.6 9.4.4 4.6-1.3 6.9-4.2 3.9-4.4 2.9-6.3.6-8.4 2.5-.4 1.4.9 2.5 5.1 2.3 2.4 14.7 3.2Z"/><path id="TD-BG" d="m235.2 260-14.1 53.5-9.6 3-1.1 7.3.2 6.7-2.4 3.4-4.2-1.8-3.8 1.5-1.6-.8-2.6 1.4-6.5.6-2.4 1.1-3.2-.5-5.5.9-5.5-.6-2.7-4 .7-8.6-1.8-5.1.5-3.5-3.6-.9-.4.6-4.9-.3.5-8.8 2.8-1.1 2.8-2.5 10.3-12.5 1.2-9 10.4-35.7 5-8.4 35.1 15.6 6.3 8.5Z"/><path id="TD-BO" d="m266.1 52 58.8 31-27.8 60.1 3.5 13.7 9.6 25.8-4.2 38.7 13.6 30.3-7 4-3.2-1.2-5.4 1.2-8.4-3.9-14.7-3.2-2.3-2.4-2.5-5.1-1.4-.9-2.5.4-.6 8.4-2.9 6.3-3.9 4.4-6.9 4.2-4.6 1.3-9.4-.4-8.8-4.6-6.3-8.5-35.1-15.6-37.5-18.9 1.6-1.7.2-5.6 52.4-94.8 4.5-9.1.5-5 1.1-2.1 1.2-.6 3.4 2.1v1.8l-2.2 2.3.6 4.4 5.6 5.3.8 2.5 3.5 4 1.8-1 1.6-3-1.8-8.1 1.1-3.5-1.8-5.5-2.4-2.4-.3-4.3 4.7-4.2 3-5 3.5-1.9 6.1-.8 3.9-1.8 3.5-4.1 4-3.1 1-10.4 4.1-5.6v-1.7l4.7-2Z"/><path id="TD-CB" d="m144 361 6.7-1.7 3.2-2.6 4 4.4 5.4-3.6h8.9l3.5-2.9 17.5 6.3 1.8 3-.5 4.3 2.5 2.8 2.1 7 4.9.2 3.6 3.1 6 2.9-.9 7.4 1.8 13.4-1.1 6.8 6.6 3.8-4.9 19.2-3.8-.4-2.1-.9-.7-1.5-6.7-.8-1.4-1.4-3.7-.6-1.1-1.3-2.3-.5-1.3-3.1v-1.9c.1 0-1.1-.9-1.1-.9l-3.1 2-8.8-.3-2-3.2.6-12.1-1-1.8-2.1.5-6.3-1.3-9-4.5-3.2-3.7-1.2-4.6h-5l-6 3.7-.2-5.9 1.3-2.6-.3-1.3 2.5-3.9-1.3-1.4-1.1-4 1.1-.6-.7-1 1.2-1-2.3-3.2.3-2.2 1-.6 1.5.2.7-2.7-3.4-4.8Z"/><path id="TD-EN" d="M415.8 243.6v9.3l-10.3-1.7-9.4 2.2-6.7-.8-4.2-3.5-2.8.7-3.1-1.3-6 1.4-1.6-.5-.8-2.4-3.3-.9-2.7.9-6-2.4-4.7 1.5-6.8-1.4-11.8 3.3-6.8-2.4-9.1 6-13.6-30.3 4.2-38.7-9.6-25.8-3.5-13.7L325 83l90.9 49.4v111.2Z"/><path id="TD-GR" d="m295.7 339.1 5.6 4.2.4 1.1-2.1 1.1-1.8 3.5 1.2 2.6-2.2 1.1-2.5 3.4-3.4 9.5.5 1.2-9.9-1.3-3.5-1.2-4.6 4.4.9 3.9-3.8 6.7-3.9 1.2-1-2.7H261l-.9 6.5.9 4.5 17.5 8.7 6.5 1.4 1.3 2.8-.9 1.2.6 4.8-.7 4-3.6 3.4-2.7-.6-2 .8-2.6 3.8.3 1.4-4.2 3.4-.2 1.3-1.4-.3-2.5 5.1h-7.7l-.9 3.3-4.9-1.2.3-3.3-4.4-4.9-6.3-2.3-3.8-2.6h-2.9c0-.1-3.2-1.6-3.2-1.6l-3-3.1-9.7 1.4-6.6-3.8 1.1-6.8-1.8-13.4.9-7.4 2.7-3.5 3.6-2.6 4.1-.2-1.4-3.6-2.7-3.5 1.6-6.6-.9-2.3 9.6-7.6 5.6-.2 12.5-7.4 21.5.2 18-10.6 8.1 3Z"/><path id="TD-HL" d="m129.4 340.4 1 .5 2.4-1.5 2.1.5 2.3-1.6 1.7 1.1 1.3-.3 2-2 2.4.9.9-.6.6-3.8 1-.6-1.5-2.8 2.7.6 2.1 3.2.9-1.4h1.3c0 .1 2-1.5 2-1.5l-.6-.8-2.4-1.3.3-1.8-.4-2.1 2.6-.4 1.5 2.4 4.5 2.2 5.4 2.6 4.7-.3 2.7 4 5.5.6 5.5-.9 3.2.5 2.4-1.1 6.5-.6 2.6-1.4 1.6.8 3.8-1.5 4.2 1.8-6.2 6.8 4.1 3 1.8 5.4 4.3 3.8.5 4.4 2.4 2.4.7 2.7 5.7 1.8-1.6 6.6 2.7 3.5 1.4 3.6-4.1.2-3.6 2.6-2.7 3.5-6-2.9-3.6-3.1-4.9-.2-2.1-7-2.5-2.8.5-4.3-1.8-3-17.5-6.3-3.5 2.9h-8.9l-5.4 3.6-4-4.4-3.2 2.6-6.7 1.7-2.7-.6-1.7.6v-4.8c.1 0-.9-2.6-.9-2.6l-.9.2-.5-5.3-2-.2-.5-1.6-1.1.8v-1.8c.1 0-2.8-.6-2.8-.6v-1l-1.1.7-1-1.2.5-3.3Z"/><path id="TD-KA" d="m193.7 236-5 8.4-10.4 35.7-1.2 9-10.3 12.5-2.8 2.5-2.8 1.1-.5 8.8 4.9.3.4-.6 3.6.9-.5 3.5 1.8 5.1-.7 8.6-4.7.3-5.4-2.6-.7-3.6-4.9-11.8-13.1 2.4-3.3-.2-1.8 1.1-4-7.5-5.2-6.7-4.1-1-.9-1.8-2.3-.5-1-2.1-1.7-.6-.5-2.1-2-1.9h-1.5c0-.1-.9-1.6-.9-1.6h-5.9l-.9-1.2-4-.3 1.6-1.1-.6-2.7 4-2.7-.6-4.4 2.2-5.3 15.9-21.9 32.4-34.9 37.5 18.9Z"/><path id="TD-LC" d="m128.9 338.6-2.8-3.8-11.4-.2-13.5-19.3-5-23.1.8-1.1 4.4-1.2 4 .3.9 1.2h5.9l.9 1.5h1.5c0 .1 2 2.1 2 2.1l.5 2.1 1.7.6 1 2.1 2.3.5.9 1.8 4.1 1 5.2 6.7 4 7.5 1.8-1.1 3.3.2 13.1-2.4 4.9 11.8.7 3.6-4.5-2.2-1.5-2.4-2.6.4.4 2.1-.5 1.5 2.7 1.5.6.8-2 1.6h-1.3c0-.1-.9 1.3-.9 1.3l-2.1-3.2-2.7-.6 1.5 2.8-1 .6-.6 3.8-.9.6-2.4-.9-2 2-1.3.3-1.7-1.1-2.3 1.6-2.1-.5-2.4 1.5-1-.5-.5-1.8Z"/><path id="TD-LO" d="m185.8 456.4 2.3 3.8 2.5 2.1-2 4.5-3.5 1.8-1.7 1.9-2.4-.2-4.7 1.6-3.7 2.2-4.1 3.1-1.8 3.1h-3.6c0 .1-4.7 1.9-4.7 1.9v-.9l-1.2.4-1.3-2.6-3.2-.8-2.1-2.4v-5.5c.1 0 2.6-3 2.6-3l.9-8.4 1.6-.9 4 1.2 2.4-1.2 5.1.7 3.3-.7 1.7-2.1 5.2 1.5 1.7-2.3 4.6-2.8 1.9 3.9Z"/><path id="TD-LR" d="m185.8 456.4 3.5-1.1 6.9 2.5 6.5.6 4.5-.9.2 9.6-2.9 4 7.6 10.2-2.5 4.2-3.2.8 5.3 10-.6 1.7-.9-.5-2.2 2.9-2.1-.8v1l-1.5.8-4.2.6.2 1.8-1.9.9-3.6-3.7-1.8-.6v-2.1l-2.2-.9V494l-2.3 1-.9 1.7-1.5-.5-.8 1.1.5 1.5-1.1 1.4-4.8 2-5.1.7-2.8 3-5 1.3-2-1.1-.5-1.2-5.5.2-1.2-.5 2-1.9.7-5.4-2.6-.9-1.7-3-6.3-17.5.8-.4 2.1 2.4 3.2.8 1.3 2.6 1.1-.4v.9l4.8-1.7h3.6c0-.1 1.8-3.2 1.8-3.2l4.1-3.1 3.7-2.2 4.7-1.6 2.4.2 1.7-1.9 3.5-1.8 2-4.5-2.5-2.1-2.3-3.8Z"/><path id="TD-MA" d="m220.1 441.8 2 1.7 1.4 2.9 2.9.4 1.9 4.3 5.6 2.9 5.7.7-2.8 4.5-3.4 2.1.7 3.5 1.3 1.8v5.7l1.7 1.6 1.8 6.3-.2 4 1.3 5.8-5.5.3-3.3 1.5-7.6-.7-1.7 1.7-2.1.2-1 1.6-1.4-.8-5.6 2.8-5.3-10 3.2-.8 2.5-4.2-7.6-10.2 2.9-4-.2-9.6 2.7-2.7-4.5-2.9 4.6-3.4v-3l.9-.7-1.5-2.6 8.4-2 2.1 1.3Z"/><path id="TD-MC" d="m285.3 411.4-2.1 9.2 1.7.7-1.3 3.4.2 1.8-1.2.9 2.1 3.2 9.2 26.5-1.8 1.1h-4.5l-3.3 1.2-2.9-.6-8.4 1-2.5-.7-6.9 1.6-4 3.9 1.3.2v1.2h1.4l5.2 4.2-1.7 1-.7 2.5-3.7 4v1l-1.4 1.5-.8-.2v1.3l-1.4 1.4-4.2 1.7-1.5 4.7-12.3 1-1.3-5.8.2-4-1.8-6.3-1.6-1.6v-5.7l-1.4-1.8-.7-3.5 3.4-2.1 2.8-4.5-5.7-.7-5.6-2.9-1.9-4.3-2.9-.4-1.4-2.9-2-1.7 1.1-2.3-6.4-4.7 4.9-19.2 9.7-1.4 3 3.1 3.2 1.4h2.9c0 .1 3.8 2.7 3.8 2.7l6.3 2.3 4.4 4.9-.3 3.3 4.9 1.2.9-3.3h7.7l2.5-5.1 1.4.3.2-1.3 4.2-3.4-.3-1.4 2.6-3.8 2-.8 2.7.6 3.6-3.4Z"/><path id="TD-ME" d="m143.5 395.9 6-3.6h5l1.2 4.6 3.2 3.7 9 4.5 6.3 1.3 2.1-.5 1 1.8-.6 12.1 2 3.2 1.3.9.8 4.6-3.8 6.8-5.3 4.5-1.5.2-2.2-1.9-2.6.3-2.7 6.2-3 2.6-4.4 6.4-8.6-4.5-1.5-2.5-.3-3.2-1.7-1.8.2-1.9-2.6-1.1-6.1.9-.6-8.6 3.3.8 4.5-2.3 3.5 1.1 1-.9 2.4.9.7-1 6 1.9 7.6-1.6-6-4.1-2.8-4-2.5-1.7-2.1-5-2.9-2.1.3-3.3-2.6-4.9.7-2.7-1.8-6.1Z"/><path id="TD-MO" d="m128 429.3 6.2 1.6.6 8.6 6.1-.9 2.6 1.1-.2 1.9 1.7 1.8.3 3.2 1.5 2.5 8.6 4.5.6 4.6-1.6.9-.9 8.4-2.4 3v5.5h-.1l-.8.4-1.2-4.3-3.1-1.9h-3.6v-1.5l-2.3-1-.4-1.6-4.4-.3-7.4-6.5-.5-1.8-3.4-3.2.2-2.8-2.1-2.4-2-.8-6.9-7.8.5-2.8 3.9-4.5 1.3-3.2 9.5-.5Z"/><path id="TD-ND" d="m139.7 361 1.7-.6 2.7.6 3.4 4.8-.7 2.7-1.5-.2-1.4-1.1.6-.5-.7-1.7-.9-.5-1.3.6-2.2-1.9.3-2.3Z"/><path id="TD-OD" d="m296.2 303.5 5.4-6.8 3.5-2.7 3.9.3 3.6-1.2 7.3 2.9 4.8 5.2 3.1.7 2 2.6 2.4.2 5.6-2.7 7.1 1.1 16.4 5.5-3.6 4.7 1 1 .7 3.4 2.3 2.3v3l1.9 3.2-4.5 5.6-3.7 1-2.7 2.8-2.6 7.6-4.8-1.8-6 2.6-3.8 4.1-2.7-.8-5.5 1.1-4.7-1.8.3-3.3-.8-1.6-4.6-1.1v-4l-6.8.2-5.5-1.5.2-11.2-2.9-6 .9-4.4-.8-2.3-6.4-3.9.2-3.9Z"/><path id="TD-SA" d="m291.5 366.7.5 2.5 2.7-.7.2-1.4 8.6-.2 24.2 12.2v2.9l25.8-4.9 2.2 1.4 4.3.7 9.2 19.7-9.5 3.7-2.4-.6-3.5 1.2-2.4-.4-1.5.9-1.3 1.4v3.8l-.9.8-.8-.4-.5 4.5 1.6 2.9-1.5 2 .2 1.4-1.6.7-.2 1.4h-4c0 .1-4.6 7.4-4.6 7.4l-1.4.9-2.6-.8-4.2 6.1-2.6.5v1.4l-1.1-.6.3 1.3h-1.1c0 .1.9.6.9.6l-.2 1.2h-.8l.6.8H323v1.6h-.7l-.4 1.3h-1.2l-1.4 2.9-.9-.4-1.1 1.3h-2.9l-1.3 2 .4.5-3.3-.6-2.9 5.6-4 1-6.1-1.1-3.5 1.9-9.2-26.5-2.1-3.2 1.2-.9-.2-1.8 1.3-3.4-1.7-.7 2.1-9.2.7-4-.6-4.8.9-1.2-1.3-2.8-6.5-1.4-17.5-8.7-.9-4.5.9-6.6h4.6l1 2.8 3.9-1.2 3.8-6.7-.9-3.9 4.6-4.4 3.5 1.2 9.9 1.3Z"/><path id="TD-SI" d="m305.2 335.2 5.5 1.5 6.8-.2v4l4.6 1.1.8 1.6-.3 3.3 4.7 1.8 5.5-1.1 2.7.8 3.8-4.1 6-2.6 4.8 1.8.8 2.5 2.3 2.6 5.9-.9 1.8-1.3v-1.3l8 3.9-2.6 5.9 1.5 1.4 2 6.3v3.1l-.9 1.7 5.5-.7-2.6 10.9.3 2.3 2.9 3.2 2.8 1.2 1.1 2.2 4.7-.4 1.2 6.7-3.2 8.3-8.2-2h-4.5l-9.2-19.6-4.3-.7-2.2-1.4-25.9 4.9V379l-24.1-12.2-8.6.2-.2 1.4-2.7.7-.5-2.5-.5-1.2 3.4-9.5 2.5-3.4 2.2-1.1-1.2-2.6 1.8-3.5 2.1-1.1-.4-1.1-5.6-4.2 8.7-2 .8-1.8Z"/><path id="TD-TA" d="m178.8 423 8.8.3 3.1-2 1.2.9v1.9c-.1 0 1.2 3.1 1.2 3.1l2.3.5 1.1 1.3 3.7.6 1.4 1.4 6.7.8.7 1.5 2.1.9 3.8.4 6.4 4.7-1.1 2.3-2.1-1.3-8.4 2 1.5 2.6-.9.7v3l-4.6 3.4 4.5 2.9-2.7 2.7-4.5.9-6.5-.6-6.9-2.5-3.5 1.1-1.9-3.9-4.6 2.8-1.7 2.3-5.2-1.5-1.7 2.1-3.3.7-5.1-.7-2.4 1.2-4-1.2-.6-4.6 4.4-6.4 3-2.6 2.7-6.2 2.6-.3 2.2 1.9 1.5-.2 5.3-4.5 3.8-6.8-.8-4.6-1.3-.9Z"/><path id="TD-TI" d="m142.4 19.2 30.4-14.7L266.1 52l-4.7 2v1.7l-4.1 5.6-1 10.4-4 3.1-3.5 4.1-3.9 1.8-6.1.8-3.5 1.9-3 5-4.7 4.2.3 4.3 2.4 2.4 1.8 5.5-1.1 3.5 1.8 8.1-1.6 3-1.8 1-3.5-4-.8-2.5-5.6-5.3-.6-4.4 2.2-2.3v-1.8l-3.4-2.1-1.2.6-1.1 2.1-.5 5-4.5 9.1-52.4 94.8 2.4-52.5 4.6-37.7 7.6-14.1-12.3-13.7-1.3-3.4 2.4-2.7-10.2-15.2-2.7-1.9-.2-16.2-6-33.1Z"/><path id="TD-WF" d="m319.7 251.6 9.1-6 6.8 2.4 11.8-3.3 6.8 1.4 4.7-1.5 6 2.4 2.7-.9 3.3.9.8 2.4 1.6.5 6-1.4 3.1 1.3 2.8-.7 4.2 3.5-6.2 5.3v2.4c.1 0 2.2 2.1 2.2 2.1v5l-2 2.2.3 1.8-2.1.8-3.5 3.5v2.2l-2.5 1.4 1.4 5.2-9.4 3-.8 2.8 1.9.8.4 4.8-1 1.1 1.5 1.9h2.4l.6 1.7-1.2 1.8-6.3 3.3-3.6 3-16.4-5.5-7.1-1.1-5.6 2.7-2.4-.2-2-2.6-3.1-.7-4.8-5.2-7.3-2.9-3.6 1.2-3.9-.3-3.5 2.7-5.4 6.8-.6-51.8 8.4 3.9 5.4-1.2 3.2 1.2 7-4Z"/></g></svg>