<svg xmlns="http://www.w3.org/2000/svg" xmlns:amcharts="http://amcharts.com/ammap" id="Layer_1" viewBox="0 0 512 512"><g id="_x3C_defs"><amcharts:ammap bottomLatitude="-5.032" leftLongitude="11.178" projection="mercator" rightLongitude="18.65" topLatitude="3.703"/></g><g><path id="CG-2" d="m196 356.5 1 1.2 2.1.8 1.4-.2 2.2-1 2.2 1.6 1.5-.9 1.9 1.5 1.1-.4.5-.7.4 3.5 1.7.7.4.8-.3.8-1.7.2-.2.5 2.1 1.6h.4c0 .1.7-.9.7-.9l1.1.7-.4.9-3.2 2.4.5.8.4.4h1.8l1.6.9 2.3-1 1.1 1 1.4-.8.8.5-1.6 4.1.4.3.7-1.2h.4l.7 4.2 1 1.2.7 2-.6.9-1.7.8-.8 2-1.3 1.1-.5 1.2-3.4 1.6-1.5 1.2-2.7 7.2v1.4l-.9.6-.4 1.6-1.2.9.3 1.1-1.5.4-.8 1.6-1.4 1-.8 1.6-1.1.8-1.1 1.7-2.7 2v1.2l-1.2 2.4-1.5 1.7.2 1.2-1 .7-.6.4-2 3.2-1.8.4-.6 1.4.4 1.2-.8 1.2-1.5.4-.8.8-.5 1.1v1.5c.1 0-4-.4-4-.4v1.1c.1 0-1.3.9-1.3.9l-2.1-.5-1.1.5v1.7h1.2l-.3 1.1.9.3-.4 1.1-1.6 1.2v2.2c.1 0-2.6 2.6-2.6 2.6l-.4 4.4-1.7 1.2-2.6.6-3-.6-.8-.6-1.3-3.6.6-1.3-1.2-1.5-.3.8-1.3-.8-2.2.5-2.9-1.6-3.5 1.5-1.9-.7-4.8.6-1.4-.3-.5-1.3-1.3-.4-.4-1.4-1.8-.2-1.9-2.1H140v-2.9l-.8-.4-.3-.8.6-.6v-1.1l-.8-.2-.5-3.2-1.5-.9v-.7l-1.3-1.1V423l-1-.4.7-.5-.2-.5-1.7-1-3.3.4v-1.2c-.1 0 .7-.3.7-.3l-.5-.6h-1.5l-.8.7h-1.1l-.4-.5.2-1.5-.4-.4h-1.3v-1.4l-1.1-.7.7-.8-1.2-1.1 1-.9 1.9-.2 1.7-4.6 2.9-1.4 2.8.3 3.1-.8 1.6.8 1.9-1.2.7.9h.6c0 .1.3-2.9.3-2.9l1.8.4 2.2-.8h.8c0 .1 1-1.4 1-1.4l2.2-.7.6-1.3 1.9-1.5v-4.2l1.5-5.3-3.6-3.6h-1.2l-1.7-.5-.4-1.7-.9-1.2.2-.5 1.7-.7 1.2-1.1h1.7l-1.4-3.6-.4-2.3-.5-7.6.5-5.2-.4-1.4-.5-8.6.6.7 4.6 1.1 2.6 1.4h.9c0-.1 1.9-2.3 1.9-2.3l2 2.1 3.8.7 3.9 2.2 3.3-.6 2.9 1.1h.6c0-.1 4.6-6.2 4.6-6.2l8.1-9.2 1.9-2.8 3.2 2.3 3.8 6.1.4 2.5 1.7 1.7v1.4l-2.4 2.6-.3 1.4Z"/><path id="CG-5" d="M80.4 492.8h3.3V478H77l-4.8-4.6.4-.2-1.2-.6-17.2-14.3-1.3-2v-2l-1.3-1.8-2.9-2.5.2-.2h-.3c0 .1-5.7-4.2-5.7-4.2v-.3l-1.3-1.5 2-2.4.2-4.3 1.9-.8-.2-5.1 7.1-7 4.7-.6.8-.7 2.2-4.1 1.4-.5 1 .4 3.7-.2 6.7 9.9 3.4 1.1 4.4 2.3 3.1.5 2.4 2.4 5.4 3.7 2.6 1.1 4 .5 1.1 1.2 1.3.4v1.8h2.2c0 .1 1.4 1 1.4 1l4.1.6 2.2.8.5.7v1.3l2.1.3 1 .6 6.4 7.5-.7 4.3.6 1.4 2.2 3 1.8.5h4.5c0-.1 1.4.4 1.4.4l3.2 2.4.9 1.1h-1.1l-.3 1.1-1.7-1 .4 1.4 2.5 2.4v.9c.1 0-.6 1.2-.6 1.2l-3.9-.6-4.2 4.4-2-.4-8.5 1.8-6 9.2-2 2.1-1.3 1.1-2.7.2-2.3-1.1-.7.8-.2 1.6-.7.6-.7 2.7-9.4 7.6-5.1-6.9.5-.5-.6.4-1.2-1.4-.4-1.3-2.2-2.6Z"/><path id="CG-7" d="M410.4 10.5h4.7l1 .4 1.6-1 3.6 1.3h1.9c0 .1 1.7 5.5 1.7 5.5l3.5-2.3 1.1-1.6 1.8 2.4 1.5.5.2-1.6 2.8.6 1.3-.4 2 .2 1.6.6 1.1 1 1.3 3.2.7.4 2.4-.5.6-.6 1.5-5.2 2.4.3 2.1-1.2 3.7 1.7.2-1.5.3-.3 1.7.4.4-1.3 1.8-1.7 2.8 2.5.9 2.7 1.4 1.9 1.1 3.1 2.3.3.3 2.5-.5 2.4 1 3.2-.9 4 .4 2.9-.9 2.9-1.8 3-3.5 2.1-.9 3.2-2.8 3.2-1.6 4.3.3 3.4-.9 3.1-1.6 2-4.1 8.5-2 1.8-1.5.8-1.5 1.8-.8 3.8-1.1 2.9-1 1.1-.3 1.4-1.8 2.3-2.7 2.2-.7 1.6-.3 8.5-1.3 3.6 1.1 1.3.5 2.4-1.4 4.6-.5 3.4 1.7 8.2-.6 1.4-.6 7.6-2.5 3.9-2.7 6.6-2 9.9-1.5 2.8-1.8 1.8-1.1 1.8-.8 2.3-.3 5.3.9 2.7 1.3 1.9.7 3.6-.6 2.1.4 3.1-1 1.4v3.7c.1 0 .7 1.3.7 1.3l3.3 3.4.6 1.3.3 5.8-.3 1.3-1.8 2.8-3.9 3.2-1.9 2.5-2 4.1-1.7 7.1.8 1-3.3 7.3v6l1.4 4.9.3 3.6-1.8 9.1-1.5 3.1-7.5 9.3-1.1-.5-16.8-.2v-2.6l-2.1-.1v-2.4l.6-2.1-1.2-3.1.7-.9v-.8c.1 0 .8-.5.8-.5v-2.1l-.5-1.1-1.9-1.6-.9.2-.7.9h-.4l-.2-2.2 1.5-2 .4-1.2-.7-.8-1.7-.2-.3-.9 2.6-1.7v-.6c-.1 0-1.2-.5-1.2-.5v-4.6c-.1 0 1.6-1.8 1.6-1.8l.3-1.3-1.3-4.1v-5.2l-1.2-2.4.4-.7 2.4-1.5-1.2-4.8 1.9-.4.3-.8-6.4-9.9-2.8-1.2-18.2-23.1-2.2-4.3V162l1.6-2.1 2.6-1.3.7-.8.2-1.3-.6-2.3 1.6-2.6-1.4-4.9v-1.8l-1.9-1.7-.9-3.1-.9-1.3-.2-1 .5-2.1-1.5-1 2.2-3.5-.9-4.6.4-.8-1.2-2.2 1-1.3 2.5-7-.9-1.2-.8-3.6.4-1.4-1.1-7.4.5-2.8 1.7-.7.2-1.8-1.1-.9-.4-1.2-.2-3.9.5-3.2V83l-4.2-6.6-3-1.2-2.5 1-.9-.3v-2.6l-1.2-.9-1-1.7-2.1-1-.3-1.8.7-1.6-1.1-2.1-1.1-.4 3.9-7.2.3-2.2-2-1.6.2-5.4 2.9-3.5-1.8-3.1-.4-2.2 3-5.3-.5-1.7.3-1.3 1.3-2.1.3-4.2.8-3.5 2.9-3 1.4-.7 4.7-.9 2.8.8 1 1.2 1.8.6h.5l.7-.9v-1.7l2.1.4 2.7-.6 1.1 1.1 1.6-.4.4 1 1.4.9 1-1 .3-1 5.7-1.5 1.1.5 3.6-.8.5-.2.2-1.6 2.7-1.1 2.9 1.4h.8c0-.1 1.8-3.2 1.8-3.2l2.7-1.1.6-.8 1.3-.5 4 1 .8 1 1.7.6 1.1 1Z"/><path id="CG-8" d="m277.5 194.8-.3 1.2.4.4 1.1-.4 3.2.8 1.4-1 2.8.6 1.8.9 1.8-.2.8.7 1 .2 2.3-2.1.9-2.2 4.2-1.6 4.2-.7 1 1.4 2.2-.8 1 .6 2.1-.3 1.9.5 2.2 1.7 2.4 1.2.4 2.2 1.1.5 1.2-.2.6.6 2.4.8 1.5 1.3 1.4 2.5v4.2l1.3 1.1-.2 2.7 3.4.9 2.4-1 2.3 1.6 1 1.3h2.4l.4 1.2.7.6 40.4-20.3 2.8 1.2 6.4 9.9-.3.8-1.9.4 1.2 4.8-2.4 1.5-.4.7 1.1 2.4v5.2l1.4 4.1-.3 1.3-1.8 1.8v4.6c.1 0 1.2.5 1.2.5v.6c.1 0-2.5 1.7-2.5 1.7l.3.9 1.7.2.7.8-.4 1.2-1.5 2 .2 2.1h.4l.7-.8.9-.2 1.9 1.6.4 1.1v2.1l-.6.5v.8c-.1 0-.8.9-.8.9l1.2 3.1-.7 2.1v2.4l2.1.1v2.6l16.8.2 1.1.5-3.5 4.5-9.3 9.1-5.3 2.7h-3.1l-3 1-5.1 3.4-3.7 1.6-4.6 3.5-2.9 2.8-2.9 3.8-7.4 14.8h-4.1l.6-3-1.3.2-1.1-.9-2.7.2-1.2 1.2-1-.5-.7.4h-1.5l-.4-.4.7-.8-2.5-.7v-.5c.1 0 .8-.2.8-.2l-.3-.5-1.1.4-1.3-.7-.7.4-1.9-3.9-.2-2.1-.6-1.3-.8-.4-.5-1.1-.8-.4-.2-2-1.2.7-.8-.7-1.4.5v-1.1c-.1 0-.9-.4-.9-.4l-.3-.9h-1.7c0-.1-.5-1.2-.5-1.2l-1.2-.4-1-1-1.5.2v-.9c-.1 0-1.2.1-1.2.1l-.5-.7-1.3-.6-1.9.3-1-.7-.7.4-.9-.2-.4-2.5h-.5l-.4.8h-.3l-1.3-2.3h-1.3l-.8-.8h-1.1l-.8-1.5-2.5-1.1h-2.2l-1.3-1.8-.4-1.8.4-.8-.4-1.5-7.4-1.3-1.7.2-1.1 1.1-1.7.2-1.3-.5-1 .9-2.7.4-1 .6-.3 2.5-1.7 1.8h-1.8l-1.1 2.1-3.8 1.7-1.9 1.6-.9 2.2-2.5 2.2-.4.8-1 2.5-.6 3-1.3 1.8-.6 4-1.8 1.3-.5 1.5-2 1.9-1 1.8-2.1 1.4-5.9.4-3.2 1.5-3 2.1-1 1.8-.2 1.8-1.4 2.1-1.7 1.1-4.7 8-2.5 2.4-2.5 1.1-1.4 2.2-3 .6-3.2-.7-.5-1.8.3-5.1 1.4-1.1 1.2-8.2 1.7-2.1-.7-1.1-2.7-1.7-1-2 .6-.7 5.1-2.5.7-1.1-.2-1.5-1.1-2.2.2-.6 1.8-1.5v-1c.1 0-2.6-2.8-2.6-2.8v-1.4l1.8-3.3.2-1.3h6l9.9-5 9.2-6 5.9.6.8-.6.8-2.2 4.8-4.6 6.3-7.8-7.6-13.8 1.7-3.5 2-7.4.2-9.5-5.1-3-1.8-3-1.9-6.8.4-1.3 2.8-2.2 3.5-1.2 1.6.4 1.6-1.6 2.3.2 1.8-.5 1.8 1.1h1.9l1.9-1.2 1.8-1.9-3.7-5.1-7.1-3.7-.9-1 3.6-2.3.6-1.1 1.1-.9Z"/><path id="CG-9" d="m133.6 326 3.6 2.6 1.6 4.2.9 4.9 2.6 3.2 3.9 2.3 1.5 2 .5 2.1-.3 3.1.5 8.6.4 1.4-.5 5.2.5 7.6.4 2.3 1.4 3.5h-1.7l-1.2 1.2-1.7.7-.2.5.9 1.2.4 1.7 1.7.6h1.2l3.6 3.5-1.6 5.3v4.2l-1.8 1.5-.6 1.3-2.2.7-1 1.5h-.8c0-.1-2.2.7-2.2.7l-1.8-.4-.3 3h-.6c0-.1-.7-1-.7-1l-1.9 1.2-1.6-.8-3.1.8-2.8-.3-2.9 1.4-1.7 4.6-1.9.2-1 .9 1.2 1.1-.7.8 1.1.7v1.2l1.3.1.4.4-.2 1.5-1.5 1.3-.7 2.1.7 3.8.9 1.7-1 1.3.5 1.8.9 1.3-1.7.8-1.5 1.4v.8c.1 0 4.1 2.6 4.1 2.6l3.3 5.3 3.1 3.5 4.6 4 5 8.1 2.8 6.1 2.2.4 1 2 .4.2 1.4-.2.9.4 1.3-.4 1.2.8 1.7-.2 3.1 1.2h2.1l1.5 2.6 2 2.5.4 1.8.9.4.4 1.3 1.8 1.8v1.7l.6.9 1.8.3 4.3 3 3.9 2.1.5 1.3.2 4-1.6-.4-2.3.9-.8.7-.5 1.6-2.3-.4-1.4.3-.2.3 1 1.8-.4.8-3-3v-.9l.5-.2-.8-2.8h-.8l-.8-.8h-1.8l-1.6-.8-1.7-1.9v-.4h.6l-1.1-1.9-.8-.9-1.3-.6-4.4-4.5h-1.1l-.7.6-.2 2.6-4.9-3.1-1.6-2.9-4.6-4.2-.2-3.3-5.2.6-1.8-2.1-3.2-2.4-1.4-.6h-4.5c0 .1-1.8-.4-1.8-.4l-2.2-3-.6-1.4.7-4.3-6.4-7.5-1-.6-2.2-.3v-1.3l-.5-.7-2.2-.8-4.1-.6-1.4-.9h-2.2v-1.9l-1.3-.4-1.1-1.2-4-.5-2.6-1.1-5.4-3.7-2.4-2.4-3.1-.5h1.2l4.1-4.2-1-1.5-3.5-2.4-1.1-3.7 4.8-10 2.5-1.5v-2l-5.2-1.1-3.7-3.3-6.4-3.2 1.3-2.9h2.8c0 .1 3.3-4.2 3.3-4.2l-6.9-7.7-2.5-4.5-2.5-1.4-.6 1.9-.8.8-1.3.3-.8-.3-.4-3.4 3.9-5.7 1.2-.5.4-3.3v-1.5l-.9-2.6-1.8-2.5v-4.8l-.9-6.1.9-.3 1.5 1.1 3.7 1.3 2.9 3.8.7-.2 2-2.3 1.4-.9 6-.6 2-1h1.3l3.5 2.6 1 1.9h24.6v-2.3l1.6-3-1.8-2.7v-.7l2-3.1-.3-1.6-.9-1.6.7-3.6-1.7-2-1.1-2.3-.5-4.3-1.3-4.2h1l1.3 1.1 2.9.7.5-.3 1-2.1 2.6-1.5 2.7-.4 3 .4 1.6 1.9 2.7 1.6Z"/><path id="CG-11" d="m195.7 419.7 4.2 1.3 1.7 1 3.1-.2 1.3-.3 3.1-4 2.1-1.4.3-1.4.4-.2 1 1.2 2.1 1.1 2.3.2 2.7 3.6-.2 1.2.4 1.7 1.1 1.5-2.9 1.2v1l-2.8.2-.3.5 1.6 1.9.5 1.8 1.5.9.4 1.9 1 1v1.9l1.7 1.4 1.3.4 1 1.7.7 2.5-1.3.6-.3.9-1 .6-.5 1.1-1.5-.5-.8.3-1.8-1-.6.2-.9 1.8-1.1.9-1.3.3v.7l-1.4.7-.5 1.4 1 2.8-1 1v.9c-.1 0-3 .2-3 .2l-2.1 1.9-1.1 1.7-3.9 1.5-1 2.3-.4 4.4-1.2 3-.8.8-.6 2.9-1.4-.8-1.4-2.7-1.9-1.5H191c0 .1-1.1 1.3-1.1 1.3l-1.6.3-.4 2.1 1.3 2.5v1.5l-.8 2-1.2 1.5.3.8-.6 1.1.3 1.4.9.4v1.6l-2.6.2.8 1.7-.5 1.5-1-.3-1.3-1.3h-1.1l-2.1 4.2-.9.4-.2-4-.5-1.3-3.9-2.1-4.3-3-1.8-.3-.5-.9v-1.7l-1.8-1.8-.4-1.3-.9-.4-.4-1.8-2-2.5-1.5-2.6h-2.1l-3.1-1.1-1.7.2-1.2-.8-1.3.4-.9-.4-1.4.2-.4-.2-1-2-2.2-.4-2.8-6.1-5-8.1-4.6-4-3.1-3.5-3.3-5.3-3.9-2.6v-.8c-.1 0 1.4-1.4 1.4-1.4l1.7-.8-.9-1.3-.5-1.8 1-1.3-.9-1.7-.7-3.8.7-2.1 1.5-1.3.4.5h1.1l.8-.7h1.5l.5.7-.8.3v1.2c.1 0 3.4-.4 3.4-.4l1.7 1 .2.5-.7.5 1.1.4v1.6l1.3 1.1v.7l1.5.9.5 3.2.9.2v1.1l-.6.6.3.8.8.4v3l1.4-.1 1.9 2.1 1.8.2.4 1.4 1.3.4.5 1.3 1.4.3 4.8-.6 1.9.7 3.5-1.5 2.9 1.6 2.2-.5 1.3.8.3-.8 1.2 1.5-.6 1.3 1.3 3.6.8.6 3 .6 2.6-.6 1.7-1.2.4-4.4 2.7-2.6v-2.2c-.1 0 1.5-1.2 1.5-1.2l.4-1.1-.9-.3.3-1.1h-1.3v-1.8l1.1-.5 2.1.5 1.5-.9v-1.1c-.1 0 4 .4 4 .4v-1.5c-.1 0 .4-1.1.4-1.1l.8-.8 1.5-.4.8-1.2-.4-1.2.6-1.4 1.8-.4 2-3.2.6-.4Z"/><path id="CG-12" d="m281.5 458.6-2.1-2.1h-5.8c0 .1-1.4 2.3-1.4 2.3v2.5c-.1 0 .6 2.5.6 2.5l1.8 1.2 1.6-.3-5.3 6.6-7.8 6-2.5 2.7-.7 1.3-4 3.8-2.1 4.2-.4 1.6-.6.5-.8 1.8-6 2.9-2.8 2.4-2.5.3-3.1-1.1-2-2.2-2.8-.4-1.1-.6-3.6 2.7h-.9c0-.1-.5-2-.5-2v-3.1c-.1 0 .8-1.3.8-1.3l-.5-1v-2.4c.1 0 1.2-3.9 1.2-3.9l-.9-1h-1.6l-.4-1.2.2-1.1-1.4-.7-.4-1.1.5-1.2 1.3-1.1 1.7-.6v.3c.1 0 .7-.3.7-.3l.5.4v-1.5l1.6-1.3.6-1.4.7-.5-2.5-1.4-2.9-4.1.9-1 .6-2.3-2.7.4-.5 1.4h-2.1l-.7.7h-1.1c0-.1-1.9 1.8-1.9 1.8l-4.5 2.4-1.4-.3-3.1 1-1.3-.2-2.3 1.1h-.6l-1.4 2.7-2.4 2.5-3.4-.6.6-2.9.8-.8 1.2-3 .4-4.4 1-2.3 3.9-1.5 1.1-1.7 2.1-1.9 2.9-.2v-.9c.1 0 1.1-1 1.1-1l-1-2.8.5-1.4 1.3-.7v-.7l1.4-.3 1.1-.9.9-1.8.6-.2 1.8 1 .8-.3 1.5.5.5-1.1 1-.6.3-.9 1.3-.6-.7-2.5-1-1.7-1.3-.4-1.8-1.4V436l-.9-1-.4-1.9-1.5-.9-.5-1.8-1.6-1.9.3-.5 2.7-.2v-1l3-1.2-1.1-1.5-.4-1.7.2-1.2-2.7-3.6-2.3-.2-2.1-1.1-1-1.2-.4.2-.3 1.4-2.1 1.4-3.1 4-1.3.3-3.1.2-1.7-1-4.2-1.3 1-.7-.2-1.2 1.5-1.7 1.2-2.4v-1.2l2.8-2 1.1-1.7 1.1-.8.8-1.6 1.4-1 .8-1.6 1.5-.4-.3-1.1 1.2-.9.4-1.6 1-.6v-1.4l2.7-7.2 1.5-1.2 3.4-1.6 1.4 2.2h3.9l.4.8.8.4 3.4-.4 1.9 2 1.3.3.9.7h.6l3.1-4.5 4.2-3.3.7-1.3 3.3-2.6 1.1-1.7 1.8-.5 1.5-1.2.7-3.2 3.7-2.6.9-.3h.7c0 .1 1.1 1.8 1.1 1.8v1.6l1.1 1.2.5 5.9 2.4.3 3.1-1.2 2.1.7 2.1-.2 1.8 1.8.3 2.1.7 1.3 1.9.5.6.9 2.6 1.1 2.5.2 1.8-.6 3.5.9 2-.4 4-1.5 5.6-4.2 2.4-.8.8-.7h1.4l.6-1.5 1.9-1.3 4.9-1.4.7.8 1.1-1.3.2.9 1.2-.2.7.8.9-.3 4 2.2.9 1.1.2 1 1.1.5.7.9 2.1.2 1.5-.9 1.4-.2 5.6.8.8 4.2-1 4.9.8 5.5-.5 2.9.3 1 1.9 1.7-.6 2.5-1.4 3.2-3.1 4.6-1.1 3.4-3.1 4.1-3.3 7.4-3.3 5.9-1.6 5.4-1.3 1.4-2.1.8-8.2 1.2-8.7 3-11.6 9.8Z"/><path id="CG-13" d="m344.2 63.3 1.1.4 1.1 2.1-.7 1.6.3 1.8 2.1 1 1 1.7 1.2.9v2.6l.9.3 2.5-1 3 1.2 4.2 6.6v4.2l-.5 3.2.2 3.9.4 1.2 1.1.9-.2 1.8-1.7.7-.5 2.8 1.1 7.4-.4 1.4.8 3.6.9 1.2-2.5 7-1 1.3 1.2 2.2-.4.8.9 4.6-2.2 3.5 1.5 1-.5 2.1.2 1 .9 1.3.9 3.1 1.9 1.7v1.8l1.4 4.9-1.6 2.6.6 2.3-.2 1.3-.7.8-2.6 1.3-1.7 2.1v6.6l2.3 4.3 18.2 23.1-40.4 20.3-.7-.6-.4-1.3h-2.4l-1-1.2-2.3-1.6-2.4 1-3.4-.9.2-2.7-1.3-1.1v-4.2l-1.5-2.5-1.5-1.3-2.4-.8-.6-.6-1.2.2-1.1-.5-.4-2.2-2.4-1.2-2.2-1.7-1.9-.5-2.1.3-1-.6-2.2.8-1-1.4-4.2.7-4.2 1.6-.9 2.2-2.3 2.1-1-.2-.8-.7-1.8.2-1.8-.9-2.8-.6-1.4 1-3.2-.8-1.1.4-.4-.4.3-1.2-.4-.4-.9.9-.5-1.8-2.2-.9-.7.4-.4-1.6-1.7-.3.2-1.3h-.8c0 .1-.8-.7-.8-.7h-1.1l-1.7-.6-.5-.7-.2-3.1 1-1.7-1-4v-4.2l.5-3.4-1.2-2.3-.3-1.7 2.3-2.4 2.4-.8v-1.6l-1-2-2.5-1-.8-1.6v.3l-3.7.2-3.6-.9-2.7-2.1-3.5-1.3-1.4-2.3-1.3-.9-1.7-.4-2.6.5-8.4-2.8-2.5-1.9-1-5.4v-1.4l-.5-.9-3.4.6-1.6-.3-2.5.6-3.6-.2-4.2 1-1.7-.6-1-1.2H211l-1.5 1.1-2.1-.3-2.1-1.7v-1c-.1 0-1.1-.6-1.1-.6l-.7 1-.9.2-1-.3-2.3.3-2-.9-1.5.4-.6-.5-2.3.3-.4-.6-.5.9h.4l.1.6-.6.2-.3.7h-.5l.2 1.4-.6.6-1.1.5-1-.4v-.4c.1 0-.6-.1-.6-.1l-1.4 1.1h-1.2c0 .1-.5-.2-.5-.2l-2.6.6v.9h-1.4l-.2.5-.8.2-.8 1.5-1.1.7-.9-.3-3 .8-2.9-1.3v-.4c-.1 0-1.4.2-1.4.2l-.9.9-1.3-.5-.5.7.4.8h-1.2l-.5.4-1.2-.3.2 1.4h-.6l-.3 1-3.1-.4h-2.1l-1.3.6-2.3-.9.7-.9.6.2.6-2.6 2 .4.4-1.1 1.5-.7.4-1.2v-.3c-.1 0-.8.3-.8.3l-.4-.5.6-.7-.4-.6.6-1.2-.4-.2.2-.8-.9-.7-.2-1.1-.7-.3v-.9l-.3-.3.3-.5-.8-.9h-.6c0 .1.2-1.3.2-1.3l-1.1-1.4-.9.6-.3-.3-.8-1.7h-.4l.2-1-.6-.5h.8c0-.1-.1-1.3-.1-1.3l.4-.8-.6-1.6-.2-2.8 1.2-1.2v-1.1l1.4-.9v-2h.8l.3-.9-.6-.9.3-.4-.2-1.4-1.1-.3v-.6l-.8-.4v-1l.1-.5 1.1-.3.6-1.2 1.5-1-.4-2 1.5-.9.6-1.3 1.6-.3.7-.8-.3-.9.5.2.3-.6.3-2.1-.5-1.2.2-.6-.4-.3.7-.5-.4-.8.4-.8h54.3l.6-.1.8-.7 2.3-.3 5 .5 2.1 1.5 6.4-2.3.6-.8.9.5.6-.5 1.7 1.2 1.1 2 1 .3.2 1.3h2l1 1.1 1.2.3v-.9l.4-.2 1.6 1.2v.3h-.7v.4l1.6-.5.2 1.9 1.3-.6 1 .8.7-.3.8-1h1.5l-.3-1.2.9-.4.3 2.1 2 .9-.2 1-.9 1.1 1.4 1.2 2.6-.4 1.1-1.6 2.7 1.9.5 1.3 1.4-1.4.5.2v1h1.8l.8-1.9 1.1.2.3-.3.3-1.4h.6l.9 1.4 1-1.1h1l2.1.5-.5.9.9.2 1.8 1.3 1 1.5v1.3l.7.2.9-.5.6 1.6 3.7-1.6 1.4-1 3.5-1.1 1.8 1.2 1.1-.4 1.1.8 1.6-.3 3.5 1.2h1.9l2.4 1.1h1.2c0-.1 1.1.5 1.1.5l2.2 2.9 1.6.6.8.8h1.1c0 .1.8 2.2.8 2.2l-.2.5 1.7-.5.3.8 2.5.8h4.2v.7l-.9 1.7.5.9-.2 1.3.6 1.3 1.9.2 1.1-1.8 2.1-.6 1.4.8.5-1.3-.7-1.2.4-2.1-.4-2.1-.7-1-.7-2.2v-1.8l-1.4-.2-.6-3.2-1.4-1.4v-1.8l1.7-2.2-1.1-1.4 1.3-1.1-.5-3.2.4-3 .6-.3h2.1c0 .1.5 1.3.5 1.3h.3l2.4-1.9 15.2-28.9Z"/><path id="CG-14" d="m225.2 325.9-.3 5.1.5 1.8 3.2.7 3-.6 1.4-2.2 2.5-1.1 2.5-2.4 4.7-8 1.7-1.1 1.4-2.1.2-1.8 1-1.8 3-2.1 3.2-1.5 5.9-.4 2.1-1.4 1-1.8 2-1.9.5-1.5 1.8-1.3.6-4 1.3-1.8.6-3 1-2.5.4-.8 2.5-2.2.9-2.2 1.9-1.6 3.8-1.7 1.1-2.1h1.8l1.7-1.8.3-2.5 1-.6 2.7-.4 1-.9 1.3.5 1.7-.2 1.1-1.1 1.7-.2 7.4 1.3.4 1.5-.4.8.4 1.8 1.3 1.9h2.2l2.5 1 .8 1.5h1.1l.8.6h1.3l1.3 2.3h.3l.4-.7h.5l.4 2.5.9.2.7-.4 1 .7 1.9-.3 1.3.6.5.7h1c0-.1.1.8.1.8l1.5-.2 1 1 1.2.4.5 1h1.7c0 .1.3 1 .3 1l.7.4v1.1c.1 0 1.5-.5 1.5-.5l.8.7 1.2-.7.2 2 .8.4.5 1.1.8.4.6 1.3.2 2.1 1.9 3.9.7-.4 1.3.7 1.1-.4.3.5-.7.2v.5c-.1 0 2.4.7 2.4.7l-.7.8.4.4h1.5l.7-.4 1 .5 1.2-1.2 2.7-.2 1.1.9 1.3-.2-.6 3h4.1l-4.5 8.8-5.8 8.6-7.4 8.1-6.7 4.8-2.4 4.3-.5 1.6-.4 9 3 13.8-.3 2.5-1.7 4.4v2.7l-1.3 4.7v3.8l-5.6-.8-1.4.2-1.5.9-2.1-.2-.7-.9-1.1-.5-.2-1-.9-1.1-4-2.2-.9.3-.7-.8-1.2.2-.2-.9-1.1 1.3-.7-.8-4.9 1.4-1.9 1.3-.6 1.4h-1.4l-.8.8-2.4.8-5.6 4.2-4 1.5-2 .4-3.5-.9-1.8.6-2.5-.2-2.6-1.1-.6-.9-1.9-.5-.7-1.3-.3-2.1-1.8-1.8-2.1.2-2.1-.7-3.1 1.2-2.4-.3-.5-5.9-1.1-1.2v-1.6l-1.1-1.6h-.7c0-.1-.9.1-.9.1l-3.7 2.6-.7 3.2-1.5 1.2-1.8.5-1.1 1.7-3.3 2.6-.7 1.3-4.2 3.3-3.1 4.4h-.6l-.9-.6-1.3-.3-1.9-2-3.4.4-.8-.4-.4-.8h-3.9l-1.4-2.2.5-1.2 1.3-1.1.8-2 1.7-.8.6-.9-.7-2-1-1.2-.7-4.2h-.4l-.7 1.2-.4-.3 1.6-4.1-.8-.5-1.4.8-1.1-1-2.3 1-1.6-1h-1.8l-.4-.4-.5-.8 3.2-2.4.4-.9-1.1-.7-.7 1h-.4c0-.1-2.1-1.8-2.1-1.8l.2-.5 1.7-.2.3-.8-.4-.8-1.7-.7-.4-3.5 3.1-5.8 3.1-3.2-.2-1.1-3-4.3-.4-1.2.4-.6 2.7-1.1.8-1.7 1.6-1.2-.3-5 .6-2 3.2-3 3.6-2.2Z"/><path id="CG-15" d="m277.5 194.8-1.1.9-.6 1.1-3.6 2.3.9 1 7.1 3.7 3.7 5.1-1.8 1.9-1.9 1.2h-1.9l-1.8-1.1-1.8.5-2.3-.2-1.6 1.6-1.6-.4-3.5 1.2-2.8 2.2-.4 1.3 1.9 6.8 1.8 3 5.1 3-.2 9.5-2 7.4-1.7 3.5 7.6 13.8-6.3 7.8-4.8 4.6-.8 2.2-.8.6-5.9-.6-9.2 6-9.9 4.9h-6l-3.6-14.7-.2-3.3-.5-1.9.3-1.2 1.4-2 1.7-6.3 1.6-3.4-.3-3.7-1.7-3.7-3.6-4.2-.8-.5-4.1-.6-3.5-1.4-4.4.4-.3-4.3-.5-1.9-.7-1-2.8-2-6.7-3.1h-1.4l-1.2 1.5-2-1.5-1-2.1V227l1.6-2.4.7-1.9.4-4.8.9-.3.5-1.5-.3-.8h-1.4l-.3-.3-.5-2.3.5-.7.2-1.6-2.2-4.1.7-.4-.4-.6.2-1 1.6-1.5.9-.2-.5-1 .6-.2-.4-.4.7-.6-.4-.5 1.5-1.2 1.3-2.3 4.4-2.5.5-1.6 1.1-1.3-1.3-1.4.7-1.6 1.4-1.6.7-.5 1.9.2 1.5.7 1.2-.4 1.4.8 2-.7 1.8.3-.3-.7.7-1.4 5.1-3.3-1.4-2 .5-1.5 2.7-2.5v-.6l.9-1.3 1.9-.8.5-1.3.9-.7-.7-2.1-.7-.7 1.5-.3.6-1.5-.3-1.3-3.4-2.4-2.2-5v-1.8l-3-3.2-.2-1.8-.8-1.5-1.9-1.7.5-3.8-1.5-2.4-2.5-1.3 4.2-1 3.6.2 2.5-.6 1.6.3 3.4-.6.6.9v1.4l.9 5.4 2.5 1.9 8.4 2.8 2.6-.5 1.7.4 1.3.9 1.4 2.3 3.5 1.3 2.7 2.1 3.6.9 3.6-.2v-.3l.8 1.6 2.5 1 1.1 2v1.6l-2.5.8-2.3 2.4.3 1.7 1.2 2.3-.6 3.4v4.2l1.1 4-1 1.7.2 3.1.5.7 1.7.7h1.1l.8.7h.8c0-.1-.2 1.2-.2 1.2l1.7.3.4 1.6.7-.4 2.2.9.5 1.8.9-.9.4.4Z"/><path id="CG-16" d="M80.4 492.8h-.5l.2-.3-1.4-1.6v-.6l.4.2-.3.4h.4l.2.4.8-.3v-2.3l-3.4-3.1-.6-1.4v-.4l1.4-.2 1.1-1.8-.2-1.4-1.7-2.5h6.7v14.8h-3.3Z"/><path id="CG-BZV" d="m281.5 458.6-5.3 6.2-1.6.3-1.8-1.2-.7-2.5v-2.5c.1 0 1.5-2.2 1.5-2.2h5.8c0-.1 2.1 1.9 2.1 1.9"/></g></svg>