<svg xmlns="http://www.w3.org/2000/svg" xmlns:amcharts="http://amcharts.com/ammap" id="Layer_1" viewBox="0 0 512 512"><g id="_x3C_defs"><amcharts:ammap bottomLatitude="-13.457" leftLongitude="12.205" projection="mercator" rightLongitude="31.307" topLatitude="5.387"/></g><g><path id="CD-BC" d="m60.8 262.1-.4.5 1.4 1.9 1.2.6-1.3 2.2h-1.3c0 .1-.9 1.2-.9 1.2l.9.8v1.1c.1 0 1.3.5 1.3.5l-.7 4 .4 2.4 2-1.3 1.8.5 2.4 1.5 1.2-.2 3.6-2.1 2.3-4.1 5.2-5 1.1-1.8 2.7 4 2.9 2.3 1-.3.3-2.2 1.1-.9 6.4.4-.8 2.1 2.5 1.2.2.9-.9 3.8-2.5.8-.3.6 2.8 2.6 3.7.5.9-3.1 2.9 2.4h7.3l-.7 2 .3 3.8-1.1 5.1.2 7.1-1.2 2.8-1.9 1.3-.5 1.1h-30l-7 .2-2.8.8-2.3-.5h-7.4l-1.4-.8-3.7.6-1.4-1.1-4.2.9H34.6c0-.1-1 .7-1 .7l-3-.9-3.3.9-2-.8-5.9 2.7h-1.9c0 .1-8 2.9-8 2.9l-.5-1.2.8-.2.7-1.4-2.5.2v1l-1.6-2.7-3-3-.5-1.1 1.6-.7 7.2-.3v-15.8l-1.7-1.3.2-.5h1.3l2.7-1.3.3-1.9h2.1l.3-1.3 1.9-1.5 1-2.4 5.8-2 1 .3v-2.3c.1 0 .8-.4.8-.4l2.8 2.5 1.4 2.4 2.3.7.2 1.8 1.5 1.4-.3-1.3H37l.6-1 2.2-.4 1.1-2 1.5.8v-1.5h1l-.5-1.5 1.1-2.5-.6-1.9.3-1 2.1-.7 1.7 2.1 2 .4 1.8-2.5 4.1-.7 3-2 1.8-.3.2-.7 1.1-.3v1.2Zm-50.9 44-.5.9-1.4.2.3-.9 1.5-.2Z"/><path id="CD-BU" d="m392.9 13.9 3.3 5.9v1l-1.1.4.6 1.6-1.3 5.6 4.7 1.4 3.9-.2-2.3 7.3-.3 2.7.6 2.2 1.2 1.4v2.5l2 1.4 1.1 6.6-.5 2-1.5 1.6-1.1 3.6 1.1 1.3 1.7.2 1.6-1.5h2.6l2.7-.9 1.2.6.4 1.1-.6 4 .4 1.5-2.8 1.1-.3 1.3 2.1.8.6 2.3-3.3.3-2.6 1.8-2.1.5-4.7-3.8-1.5-.2-1.5 3.2-2.8 2.2-2 3.4.8.7 3.1-.7h2.1l1.1.8-.2 3.2.6 2.8-3.2 5.7-.6 4.1-1.6-.4L393 92l-.8-.8-2.9-.3-.9-.7-3.4 1.3-.6 1.6-1.7.8-1-.3-.9-1.5-1.3 1.2H378c0-.1-1.1-1.4-1.1-1.4l.4-4.4-.4-2.3-1.4-.2-1.6 1.2-5.5 1.6-1.8 1.6-2.5-1.1h-1.8c0 .1-2.7 1.8-2.7 1.8l-1.8.3h-2.3c0-.1-6.9-3.5-6.9-3.5h-1.3c0-.1-1.9 1.6-1.9 1.6l-1.1.3-2-.7-18.2-.3-6.1 1.5-1.3 2-2.2 1.3-5.9-1.4-1.8-1.3-2.2-.4-.4-5-.7-1.6-1.4-1.3-1.5-.3-1.6-1.6-.8.3-.6 1.6-1.6.3-4.7-1.8-4.1-2.5-1.1-1.8-.3-1.9 2-1.6 2.1-3.9v-1.1l-1.1-1-1.5-.3h-1c0 .1-2 1.7-2 1.7l-1.2-.6-1.3-2.6-4.7-.9 1.7-2.7.4-3.3 2.6-2.3 4-2 4.3-1.3 4.9-4.6 4.6 2.1 2.4-1.2.6-.9-.2-1.2-1.2-.4h-1.4c0-.1-1.2.7-1.2.7l-6.2-1.7-6 .8-3.2-.4-.4-1.7.9-2.1-1.5-.9-1.5-1.9-5.9-.9 1.8-1.6-.2-1.4.7-1.4 1.3-.7v-.7l-.9-.6.4-1.9h2.6l1.1-4.1 1.2-2.1.7-.5 1.5.5 1-1.3-.4-.7.5-.9 1.6-.5 1.2 2.2 1.8 1 .9.2 1.5-.8 2.4 2 .5 1 3.7 1 .3-1.6 4-2.2 3.4-1.3h1.6l1.7-1.2.5.5 1.1-.6 1.5.6.3-1.8.4.6 3-1.4 1.9.4 2-1.7 1 .6v-1.2l.6-.6h2c0-.1.9-.7.9-.7l-.3-.6-1.1-.2 1-1.4 1 1.4.5-1.2 2.1.6.8 1.2 1.3.2.5 1.5h1.1c0 .1-.4 1.5-.4 1.5h1.7c0-.1.4.4.4.4h1.5l.8-.9h1.5l.3-.6h1.1l1.8-1h3.6l.5-.7 1 .6 3.4-.9 1-3-.6-.2-.3-1 .9-2.4.7-.4-.4-.4h1.6c0-.1 1.5-1.3 1.5-1.3l.6.6 1-.3v-.8l2 1v.7l1-.2 1.3.8 1.1 1.6 1.1-1 1.2 2.3.3-.7 1-.2.6 1.4v-.9c.1 0 1.6.2 1.6.2l.6-1.3.7.8 1.5.4 1.8-1.9h.7v.8h1.3c0-.1 1.2.9 1.2.9v.7l3.6.6 2.6 2.7h1l.2-.6h1.1v-.4h2.5l2.1-.6h.6l.9 1.4.6-.3 1.1.7 1.1-1.2Z"/><path id="CD-ET" d="m206.9 94.9-1.5 2.5-17.3 9.2.2 5.5 6-2.5 6.7-4.3 8.5-3 5.2-1.1 7.4 2.5 5.3-1 .4.4v1.8l-1.3 4.1v2l1.3 2.6v2.7l-3.5-1.3-3 4.2-1 7 .9 2.5-3.7 8.4 1.2 2.3 5.6 4.2.4 1.1-.6.8-2.2 1.1.2 1.1h2.4l.4.5-.4 1-5 2.1-.9 1.4v1.4l-2.3 1-.9-.9v-2.3l-1.6-1-1.7.3-.4.8-1 .2-.9-1h-1.7l-1.3-.6-1.2.3-.6 1.1.6.8h1.4l4.3 4.4 1.8 4.4 3.2 3.5-.6 3.2-2.5 4.7.2 1.4-2.2 2.1-8.7 2.4-1.6-1.3-.3-3.6-1.1-.5-.7.8-.2 4.5-1.7 1.8-2.6 4.5-3.1-7.7-2.7-2.2-.6-4.1-2.4-3.4-2.8 1.9H178l-1.4 1-.6 2.2 3.5 5.2v1.2l-3.5-1.3-.3 1 .9.9v.9l-6.5.3-6.6-4.4-1.5-.3-1.2.6-1.2 2.3-3 3.1-2.5 1.4-8.1 2.6-4.2 1.9-7.8 6.3-1.9.9-6.7-.6-1.1.5v.8l3.4 1.2.5 1.1-.7 2.5-6.6.6-1.7-.8-2-4.4 8.3-15 3.5-3 3.6-2 3.3-.7 2.8-1.5 4-4 5.8-7.9.9-4.2-.7-6.7 1.5-3.4-.4-.5.5-2.4 1.2-2.8 2.7-2.6 1-1.9V135c-.1 0-2.2-2.8-2.2-2.8l.5-4.8-1.3-3.8v-2.5c.1 0 2.6-4 2.6-4l.9-4.6 2.4-4.8.5-4.1-.8-3.8.9-3.7-.2-1.1h11.9l3.8 2h1.2c0-.1 8.8-4.9 8.8-4.9l3.5-.6 8.1 2.6 11 .6Z"/><path id="CD-HK" d="m463.7 369.7-18 2.6 1.6 4.3-1.8 4.2-5.3 6.4-7.4 5-1.4 2.3v1.8l1.4 1.2 1.2-.4 1.1-1.3.5.2-.3 2.2 1.4 1.3.4 2.4.8.6.2 3.4 1.2.7.8 1.3-.7.4-1.2 3.6v5.4l-1.3 2 1.6 2-.4 1.9.6 1.7-.2 2.2 1 1.1v1.6c-.1 0 .7 1.2.7 1.2l-.9 1.5-1.4.2-.2 1.1-1.3 1.7-.4 3-.8.9-.9 3.5.6 2.1-1.3 3.8.3 1.2-.8.4-.2 1.6-.7.8-.3 3 1.3 1.6-.4.9.4.6-.5.7.9 1.2-.2 1.7h1.1l.6 1.3 2.9.9.7 1.1 2.1 1h1l.5 1.7 4.5 4.2 2.6 4.7 2.2.3 3.7-.8.8 1.2h1.9c0 .1 3.5 1.6 3.5 1.6l1-1.3-2.2-2.4.9-2.6 2.3-1.2 2.4.4 3.7-1.4v35.1l-.8-.5-1.7.5-2.7-1.3-.2-1.2 1.3-.4v-1.7l.8-.7-.3-1-.9.3-1.2-.7-1.6.4-2.3 2.3-2 .3-.4.6-.9-.4-.4 1.2-3.1 1.8-1.6-2-3.1 1.2-2.7-6.9-1.5-.5-.5-3.6-1.9-2-.8-1.7-2-1.6h-.7l-1.4 2-1.2-2.5-1.7-1.8-.3-1 1.4-.5.4-1.2-2.1-1.9v-1.3c-.1 0-3.5-2.6-3.5-2.6h-2.1l-1.6-1-1.3 1.4-1.3-2.2-2.3-.4-.9.4-1-3.1-2.6-.3v.8l-1.6.8-3.4-.4-.5-1.4-1.3-.4-1.3-1.4-.5-2.4-.8-.9v-2.9c-.1 0-6.2-3.8-6.2-3.8l-.7-5.9-1.3.8-3.4.3.5 2.3-1.1 1.9v2.1l-3.3 3.7-1.5.2-1.4-.8-1.5 1.2-3.1-1-1.1.2-3-1.7-3 1.4-3.1-1-5.9.4v-1.1l-1.9-.6-1-2-1.5.7-2.8-.3-1.7-2.2-.8-2 1.6-1.3 1-2.6 1.4-1.5-.4-3.3 1.6-1.9-.5-3.4 3.6-4.9 4.5.5 1.4-1.8 1.1-.3.9.4 2.2 4.8 2.7-4.4 3.2-.7 1.7-3.8-.8-1.5-1.1-.7.6-1.6-1.9-1.7-.4-1.6 3-.8 6.5.2 1.3.6 1.3 2.3.7.2 3.8-.9 2.1-1.9v-1.9c.1 0-4.5-4.7-4.5-4.7v-1.2l2.7-4.1-.4-1.2-2.1-1.2-2.6.8h-3.5l-10.5-2.5-2.4.3-.6-1.8 1.5-2.5.3-2 1.1-2.6 2.5-2.3.8-4.7-.6-1.9 4.9-5.4 2.5-8.7h1.5l.6 2.1h1.2l1.1-.6 3.9-3.7.2-.6-.8-.8-.3-2.1 4.4-5.5 1.5-1.1 8.2-3.2h2.6l1.4 1.5 3.1 1.4.8 1.3 2.5.2 1.4 2.8 1.3.7 4.4-3.1 3-.4 2.4-1.9.7-1.6v-1.2c-.1 0 1.9-3.1 1.9-3.1v-1.9l-3.7-2.8.2-1.3 1.6-.6.3-1.5 2.5-.5 1.7 1.2 1.5 5.5 3.9 2.4.9-.3 1.3-3.1 5 .8.5-2.2.9-.9 2.4.4.7-.8h4.2l2.5 2.9 1.9-.4 2.2 4.5-.3 1.4-2.3 2v1.5l-1 2.6 1.3 1.7Z"/><path id="CD-HL" d="m371.8 315.2-.2.8-4.2 3.6-.4 3.7 2.3 1.1 1.5 4.3-.9.7 2.1 3 2.4.5.8 1.2 6.1 1.4v1.1l-2.4 2.5-.6 1.6v1.6l1 1.3 6.8 4.2 3.2.7 1.6 1.9h8l1.5-.4.7-2.7.8-.6 1.3 1.1h1l2.1-1 1.4.5 2.2-.7 2.5 4.1-.5 2 .9 3.4 2.3.7 1.3-.6.7.3.5 1.4-.6 2.4-3 3.8-1.4-1.6H410l-8.2 3.2-1.5 1.1-4.4 5.5.3 2.1.8.8-.2.6-3.9 3.7-1.1.7h-1.2l-.6-2.2h-1.5l-2.5 8.8-4.9 5.4.6 1.9-.8 4.7-2.5 2.3-1.1 2.6-3.4 1.9-3.7.4-.8-1.1h-2.3l-3.8-1.3-4.4-3.7h-3.4l-.7 1 1.5 6.2-.5.9-4.2 1.2-8 3.4-.6.6.4 1.5-2.6 1.7-1.3-.3-1.3-1.5-1.8.4-2.4-1.6-3.1 2.2-1.3-.2-.6-1.3-1.4-1.2-1.5 2.4-1-.9v-1.1l-6.4.2-1-.9.4-.9-.7-1.3-1.3-.9-.2-1.4 2.8-4.1-.2-2.1.9-2.8-.2-2.4.5-1.2 4.4-1.4 4.6.8 1.7-.9-5.6-3.6-3-4.7-4.1-.8-1.6-2.8-1.3-.8-6-.8-1.4-.7-.9-6.2 1.3-9-1.6-5.3 1.3-1.4.9-2.4 1.5.8.9 1.2 2.6-1.3.8-1.5-1.2-3.2.5-5.6 2.2-4 4.5-6 2.4-1.1 4.5.3 4.7-1.6 4.4-3.1 3.4-4.1 1.9-.8 2.6-.7h3.1l3.6 3.1 2-1.1 1.3-3-.5-1.4-3.7-2.6-.6-1 .6-2.8.7-.8 1.1-.4 3.1.5 3.8-.9 3.1-1.5 1.8-1.8h1.9l1 2.4.9.3.6-1h1l.3 1.2 2.1 1.1Z"/><path id="CD-HU" d="m489.6 53.2-4.3.7-.8 2.1.8 1.6-1.4 4.8-1.1 1.8-3.4 3-.6 1.6v2.5l1.7 1.4-1 2v1.7l1.1 1.6-.4 1.7-1.7 3-.7 2.8-1.2.3-1.7 2.8-1.5.2-2 2.7.9 1.3-.5 1.7-1.3-.5-2-2.7-4.1-1.6 1.1-2.2-.4-4.4-1-.7-1.9.3-3.6 1.5h-1.8c0 .1-1-.7-1-.7l-1.2-2.4-1 .3-1.1 2.4-4.7.8-.5 2.7-1.7.7-2.3-.3-2.8-1.3-.7.7 1.8 1.1.6 1-.2 1-1.1.2-2.1-.9-1.7-2.5-1.4.2-2.6 1.5-1.3-.8-.4-1-1.1.3-.4 9.9-1.1 2.1-1.1.8-1.4 3.2-.9.6-3-1.2-2.4-.2-4.2-2.8-4.6.9-.9-.4-.8.7.3 1.6 1.6 2.2.2 2 2.9-.7 1.2.4.7.9-.5 2.8H411l-1.2-2.4-1-.5-2 .6-.3-.4-.7-.6H401l-.1-1 .4-.6h1l1.2-2.7 1.3-1.3-.6-2 1.5-1.1-.9-2.4-3.3-.7-.7 3.2-1 .3H398c0-.1-1.8-1.1-1.8-1.1l.6-4.1 3.2-5.7-.6-2.8.2-3.2-1.1-.7h-2.1l-3.1.6-.8-.7 2-3.4 2.8-2.2 1.5-3.2 1.5.2 4.7 3.8 2.1-.5 2.6-1.8 3.3-.3-.6-2.3-2.1-.8.3-1.3 2.8-1.1-.4-1.5.6-4-.4-1.1-1.2-.6-2.7.8h-2.6l-1.6 1.6-1.7-.2-1.1-1.3 1.1-3.6 1.5-1.6.5-2-1.1-6.6-1.9-1.4v-2.5l-1.3-1.4-.6-2.2.3-2.7 2.3-7.3-3.9.2-4.7-1.4 1.1-4.2v-1.5c.1 0-.5-1.6-.5-1.6l1.1-.4v-1l-3.3-5.9.6-1.4 4.7-1.9 8.5 3.4.3 1.5 2.1 1.3.4 1.3 1.1 1h2.2l1.5 2.7h1.2c0-.1.4.4.4.4l.3 4.6 1.3.3 1 1h1.6c0 .1.2-.5.2-.5l2.7.5-.3 1.9 1.1 1.8.9-.8h.6v1.2l1.8 1.2h4l.7 1.9 2.1-.3 1.4-2.2h1.8c0-.1.7-1.2.7-1.2h1.6c0-.1.9-1.8.9-1.8l-.2-.5 2.4-1.4 1.4 2.2h3.9l.9-.5 1.9 1.1v.6l1.4.1 1.9 2.3 1.1-.2v-1.1h2l1-2 1.3-.6.8-1.1v-.9l.9-.9-.2-2 .9-.6.7.9 2.4-.2 2.5 1.2.8 1.2.8-.3 1.4.6-.6 5 1.1.8 1.4-.3 1.3.8.6 1-.4 1.1 2.4 1.2 1.1 2 2 .4v1.1l1.2 1.3.6 1.8 1.4-.5 5.3 2.6 2-.2 1 5-.7 2.2Z"/><path id="CD-IT" d="m406.9 107.3 2-.6 1 .5 1.2 2.5h4.9l.5-2.9-.7-.9-1.2-.4-2.9.7-.2-2-1.6-2.2-.3-1.6.8-.7.9.4 4.6-.9 4.2 2.8 2.4.2 3 1.2.9-.6 1.4-3.2 1.1-.8 1.1-2.1.4-9.9 1.1-.3.4 1 1.3.8 2.6-1.5 1.4-.2 1.7 2.5 2.1.9 1.1-.2.2-1-.6-1-1.8-1.1.7-.7 2.8 1.3 2.3.3 1.7-.7.5-2.7 4.7-.8 1.1-2.4 1-.3 1.2 2.4 1 .8h1.8c0-.1 3.6-1.6 3.6-1.6l1.9-.3 1 .7.4 4.4-1.1 2.2 4.1 1.6 2 2.7 1.3.5.5-1.7-.9-1.3 2-2.7 1.5-.2 1.7-2.8 1.2-.3.7-2.8 1.7-3 .4-1.7-1.1-1.6v-1.7l1-2-1.6-1.4v-2.5l.6-1.6 3.4-3 1.1-1.8 1.4-4.8-.8-1.6.8-2.1 4.3-.7 2.9-1.1 1.8.3 1-1.3.7 2.2 1.7.7-.2 2 2.2-.6v2.8l-1.3 1.7-.4 1.6-.9.5-1.2 5.1-.7.5 2.4 2.4.9 2.7-.8 2.2-1 .6-1.2 3.9-.7.5v4.4l.7-.5 1.4.6 1.3 2 .8.2.8-.3.3-1.5.9-.2 2.2 1.6.3.9h-.4c0 .1 1.5 1.2 1.5 1.2l2.1-.7v1.9l2.7 1.7v1.1l-7.4 9.7-7.4 5.9-5.3 6.9h-.8l-1.8 1.7-1.7.3-.8-.4-.6 1.4-1.6-.4-1 .9-.4 3.1-1.7 3.4-3.5.6-1.4 1.4h-1.5l-1.5-2.9-.7-.2-2.4 1.7-1.6-.6h-2.4c0 .1-.3.7-.3.7l-3.8.6-4.3 6-2.9-1.4-4 2.3-9 .2-3.2 1.3-4.6-4.1-2.2-.7-3.3.3-4 1.3-1-.9-1.2-2.9v-1.4l.9-1.1v-1.3H420l-.8-.6.4-2.7-4.6-.8.8-4.6-.3-1.1-1.8-1.1h-3.3l-2.6-4.2-.8-1.2Z"/><path id="CD-KG" d="m201.4 316.4.4 5.7 5.9 7 1.1 3.9h-11.5l.5 1.6-1.8 3.2-.2 3.6.2 1.4 1.3 2.4-1.6 1.2.2.8-.5.9-2.8.4 1.1 3.1-1.3 3 .3 4.9h-15.2c0 .1-.5-2-.5-2h-6.6l-.1 2.1h-3.6l-.4.7-1.9-.4-.3-.7h-2l-3.2 1.4v1.6l-3.1.4-1.1-.8h-1.5l-2.3.8-2-.4-4.3.8-1.5-1.2.7-1-1.3-1.2v-1.3c.1 0-1.1-.6-1.1-.6l.3-1.2-.8-.4.2-.7h-.8l-.4-1.3-1.8-.9.3-1.1-1.1-.7.3-1.6-2.1-1.3-.5-2.1-1.2-.6.8-1.1-1.1-.7-.9.5v-2l-2.8-1.2-.4-1.8-.9-.7.4-.9-1.1-2.6h1.1l.1-2.3-.9-.5v-2.6l-1.7-.6-1.2-3.5-1-.9-.5-2.4-.7-.4.3-1.3-.9-.7.2-.7-.6-.7.6-.6-1-.4-.2-1.3h.9c0-.1-.3-3.3-.3-3.3l.5-1.1-1.1-1.4-1.2-.3v-.7l-1-.4-.2-4.4-2.3-1.1-1.8.5-1.6-.8-7.7.2.5-1.1 1.9-1.3 1.2-2.8-.2-7.1 1.1-5.1-.3-3.8.7-1.9-.5-5.5 4.5-7.3 1.7-.3 2.6 1.3.8-.3v-2.7c.1 0 1-.9 1-.9l6.5-.7 1.1.5 1.3 2.4 1.1.9 3.6.3 1.3-2.4 3.9-2 3.9-3 2.9.4 1.2 2.2 3.7-1.3.3.9-.5 1-2.7 1.6-.6 1.1.3 2.1-1.7 2.3-2.7 5.8v4.4c-.1 0 .5 2.4.5 2.4l-.2 1.7-1.5 2.6v3.7l1.7 7.5 1.6.7h3.4l1.2-.2 2-1.5 1.8-.2 1 1.2 3.4.9 1.2 3.8h.9l.7-1.3 2.7.8 2.9-1.5.8.3 3.3 2.3-.3 2.1 4.3.8.2 3 2.8-.2.9.5.3 2.4 1.7 1.7 1.5.2 1.4-.6 4-3 .5-1.1h1.4l2.6.5v1.1l-1.8 2.7 1.3 3.3 1.4-.6 1.8-2.1 4 1.6h2.2Z"/><path id="CD-KN" d="m100.6 252.3 1.5.9 4.2-.3 2.4.6 5 2.7 1.8 3 1.1.6 1 1.5v2.9l-1.3 2.8-1.7.3-4.5 7.3.5 5.5h-7.3l-2.9-2.5-.9 3.1-3.7-.5-2.8-2.6.3-.6 2.5-.8.9-3.8-.2-.9-2.5-1.2.8-2.1-6.4-.4-1.1.9-.3 2.2-1 .3-2.9-2.3-2.7-4 1.2-2 2.9-1.7 2.5.5 1.8-.8 1.1-1.8.3-2.5 1.3-1.6 9-2.6Z"/><path id="CD-KO" d="M315.8 302.3v5.3l3.5 1.1.6 1.4-1.5 2.4h-1.8l-.9.7v1.3l2.1 2v1.3l-3.2.3-3.7-.8-.9.9-1.1 7.7-1.1.9-3.3.6-1.2-.3-3-3.5.5-1.8-.8-.6h-1.3l-4.9 2.2-.6-.9-.2-2.2h-1.1l.6-3.1-1.9-1.6.2-3.3-1.7-1.3-1.2-3.4.3-3.9-.7-1 .6-.9 4.6-2 12.1.5 2.8.9 1-.6 2.9 1.2h2.1l1.9.6Z"/><path id="CD-KS" d="m236.6 213.6.9.7h1.5c0 .1 7.5-.8 7.5-.8l.6-.3v-3.9h.6l7.8 4.6 2.9.9 3.9 3.1 3.4 5.5 2.2 2.3-2.4 3.5-.2 2.5-4.5 8.8v1.8l1 .9 3.7-.5.9 1 .3 1.8-.6 3.5-4 3.3.2.8 4.8 1.6 2.6-.6 1.1.5 1.7 2.2 4.1 2.7-.3 5.7-2.5 4.2-.9 1.3-3.2.5-3.1 5.2-2.2 1.6 1.3 1 .2 1v1.2l-1.4 2.2-1 .4-1-.8-2.8-.4-.7-1h-.8c0 .1-1 1.2-1 1.2l-2.7-.5-.7.9-1.3 4.8 2.1 4.3 1.6.6 2-.9.8.3 2.2 3.3v3.7l-2.3 3.9-.9.5-1-.3-1.2-1.9-.9-.3-3.1 4.8-.7 4.8 1.2 6.5-.4 1.9-1.4 1.8v1.4l2.1.3 2.1 1.9-.4 1.1-1 .3-1.1-.6-1.8 2-2.7 1.1-.7 1.2 6.5 6.3 2.8 4.6h-32.9v-3.7l2.2-6.1h-8.2l-.4 2.2h-8.6l-1.1-3.9-5.9-7-.8-10.8 5.3-4.5 2.7-.2 1.2-1.5.8-2.2h1.5v-2l1.6-1V297l-.9-3.6 1.1-8.2-.5-3.4-1.9-4.3-1-4.7.4-3.1 1.4-2.2-.2-1.2-1.7-2.8-.3-1.9 2.8.7 2.9 2.3h2.7l1.1-2.1 3.2-.9 3.2-2.8.6-4.9-.6-4.8.2-15.1 2-6.8 1.5-3.1 1.9-2.9 2-5 1.7-2.3.9-.3Z"/><path id="CD-KU" d="m210.5 261.5.3 1.9 1.7 2.8.2 1.2-1.4 2.2-.4 3.1 1 4.7 1.9 4.3.5 3.4-1.1 8.2 1 3.6v2.9l-1.7 1v1.9h-1.6l-.8 2.2-1.2 1.5-2.7.2-5.3 4.5.4 5.1h-2.2l-4-1.5-1.8 2.1-1.4.6-1.3-3.3 1.9-2.7v-1.1l-2.7-.6h-1.4l-.5 1.1-4 3-1.4.6-1.5-.2-1.7-1.7-.3-2.4-.9-.5-2.8.2-.2-3-4.3-.8.3-2.1-3.3-2.3-.8-.3-2.9 1.5-2.7-.8-.7 1.4h-.9l-1.2-3.9-3.4-.9-1-1.2-1.8.2-2 1.5-1.2.2h-3.4l-1.6-.7-1.7-7.5v-3.7l1.5-2.6.2-1.7-.6-2.4v-4.4c.1 0 2.8-5.8 2.8-5.8l1.7-2.3-.3-2.1.6-1.1 2.7-1.6.5-1-.3-.9-3.7 1.3-1.2-2.2-2.9-.4-3.9 3-3.9 2-1.3 2.4-3.6-.3-1.1-.9-1.3-2.4-1.1-.5-6.5.7-.9.9v2.7c-.1 0-.9.3-.9.3l-2.6-1.3 1.3-2.8v-2.9l3.5-3.1 4.9-2.2 2.1-2.1 5 .7 1.1-1 3.9-7.8.2-1.3-1.3-3.6 2-3.1v-4.9l2.4.3 2.8 2.1 4.4 1.2 3.7 2.3 4.8-1 3.3 1.1 1.7-.7 1.6.3 2.7 2.6 4 1.9 6.4 1.5 11.7 4.3 8.8 5.3 8.7 3 1.5.9 3 3.6Z"/><path id="CD-LB" d="m293.9 354.2-.5 1.3.9 2.5 1.1.8 6.2.6 2.5-.9 2.5.9 1.6 5.3-1.3 9 .9 6.2 1.4.7 6 .8 1.3.8 1.6 2.8 4.1.8 3 4.7 5.6 3.6-1.7.9-4.6-.8-4.4 1.4-.5 1.2.2 2.4-.9 2.8.2 2.1-2.8 4.1.2 1.4 1.3.9.7 1.3-.4.9 1 .9 6.4-.2v1.1l1 .9 1.5-2.4 1.4 1.2.6 1.3 1.3.2 3.1-2.2 2.4 1.6 1.8-.4 1.3 1.5 1.3.3 2.6-1.7-.4-1.5.6-.6 8-3.4 4.2-1.2.5-.9-1.5-6.2.7-1.1h3.4l4.4 3.8 3.8 1.3h2.3l.8 1.2 3.7-.4 3.4-1.9-.3 2-1.5 2.5.6 1.8 2.4-.3 10.5 2.5h3.5l2.6-.8 2.1 1.2.4 1.2-2.7 4.1v1.2l4.7 4.7v1.9c-.1 0-2.2 1.9-2.2 1.9l-3.8.9-.7-.2-1.3-2.3-1.3-.6-6.5-.2-3 .8.4 1.6 1.9 1.7-.6 1.6 1.1.7.8 1.5-1.7 3.8-3.2.7-2.7 4.4-2.2-4.8-.9-.4-1.1.3-1.4 1.8-4.5-.5-3.6 4.9.5 3.4-1.6 1.9.4 3.3-1.4 1.5-1 2.6-1.6 1.3.8 2H358l-.4.8-2.1.6-.5-2.6-3.7-1.6-1.3-3 1-.5-1.3-3.5.9-.6-.4-1.1 1.1-.7-.4-.7.8-1.6h-1.3c0-.1-2.1.9-2.1.9l-4.1.7-5.2.2-.5.8-3 .4v.6c-.1 0-1 .1-1 .1l-2.7 2.3-.4 1-.9-.3-2.8.8-1.7-1.8-2.5-.5 1.6-.6 1.2-2.2-.3-5.2-2.7-1.3-3.8-.2-.4-3.4-1.8-.6-2.1.2-.9 1.6-2.5 2-2.8-1-1.9.4-2.3-.4-2.1-1.3-1.9-.2-6.2 4.4-1.4-.2-1.8.8-5.8-1.7-1.5.6-.5.8h-1.9l-4.3-2.2-1.7.6v1.9l-1.6 1.5h-2.3l-1.4 1.9h-.7l-2.6-9.9 1.5-1.7 1.9-.5.9-.9-.5-5.7-1-.7 1.3-3.5-1.3-3.3-1.2-1.4-1.2-7.6-3.1-1.3-3.7-5.1-1.5-.9-1.1-5-1.1-1.2 1.8-4.8-.5-4.3.7-5.7 2.4-9.9-1.1-3.7.4-.9-1.1-.9-.5-2.5-3.5-7.2.7-.9v-3.1l.9-2 1.4-.2 2.5.9 2.1-.6 2.1 3.8 1.2 1.2 1.8.2 4.6-1.5 2.8.2 1.5-1.9 1.7-.2 1.1 1.1.2 2.4 3.5-1.7 2.7 1.4 2 .3 1.8-.3 2.9-2.5h.9Z"/><path id="CD-LL" d="m305 300.2-12.1-.5-4.6 2-.6.9.7 1-.3 3.9 1.2 3.4 1.7 1.3-.2 3.3 1.9 1.6-.6 3.2-2.1 6.8.9 2.4.9.6 1.4-.3.8 1.2 2.4 1.2-.8 1.1-.9 4.2.9 4.4v2.6l-1.5 8.6-.4 1.2h-.9c0 .1-2.9 2.6-2.9 2.6l-1.8.3-2-.3-2.7-1.4-3.5 1.7-.2-2.4-1.1-1.1-1.7.2-1.5 1.9-2.8-.2-4.6 1.5-1.8-.2-1.2-1.2-2.1-3.8-2.1.6-2.5-.9-1.4.2 1.2-2.8-.3-2.1.5-2.1-1-3.1-1-1.2-2.8-4.6-6.5-6.3.7-1.2 2.7-1.1 1.8-2 1.1.6 1-.3.4-1.1-2.1-1.9-2.1-.3v-1.4l1.4-1.8.4-1.9-1.2-6.5.7-4.8 3.1-4.8.9.3 1.2 1.9 1 .3.9-.5 2.4-3.9v-3.7l-2.2-3.3-.8-.3-2 .9-1.6-.6-2.1-4.3 1.3-4.8.7-.9 2.7.5 1-1.1h.8c0-.1.7.9.7.9l2.8.4 1 .8 1-.4 1.3-2.2v-1.2l-.2-1-1.3-1 2.2-1.6 3.1-5.2 3.2-.5.9-1.3 2.5-4.2.3-5.7 5 3.4 4.3 5 3.3-.2 2.5.8 1.8 4.5v2c.1 0-5.7 2.8-5.7 2.8v2c-.1 0-1.1.7-1.1.7l.2.8 2.8 2.5 3.7 4.8 6.2-.9 2.5 1.8 5 .5 1.6 3.9-3.8 6.5Z"/><path id="CD-LM" d="m371.8 315.2-2.1-1.1-.3-1.1h-1l-.6.9-.9-.3-1-2.3H364l-1.8 1.7-3.1 1.5-3.8.9-3.1-.5-1.1.4-.7.8-.6 2.8.6 1 3.7 2.6.5 1.4-1.3 3-2 1.1-3.6-3h-3.1l-2.6.6-1.9.8-3.4 4.1-4.4 3.1-4.7 1.6-4.5-.3-2.4 1.1-4.5 6-2.2 4-.5 5.6 1.2 3.2-.8 1.5-2.6 1.3-.9-1.2-1.5-.8-.9 2.4-1.3 1.4-2.5-.9-2.5.9-6.2-.6-1.1-.8-.9-2.5.9-2.5 1.4-8.6v-2.6l-.8-4.4.9-4.2.8-1.1-2.4-1.2-.8-1.2-1.4.3-.9-.6-.9-2.4 2.1-6.8h1.1l.2 2.1.6.9 4.9-2.2h1.3l.8.6-.5 1.8 3 3.5 1.2.3 3.3-.6 1.1-.9 1.1-7.7.9-.9 3.7.8 3.2-.3v-1.3l-2-2V313l.8-.6h1.8l1.5-2.5-.6-1.4-3.5-1.1v-5.3l3.6-.6.7-.9v-2.8l-2.3-1.3-.9-2.3-.5-1.9.6-1.3 2-.6h2l1.8.9 2.4-.3 1.6-1.4 1.1 1.1h1l.9-.6.6-1.7-.8-2.9 1.2-3.4 4.4-2.8 2.7-.8.5-2 3.3-.2 1.1 2.9 1.4 1.1 4.6.5 5.6-.5 21 .2-1.7 3.3-1.8 7.2.9 5-1.2 2.5.5 1.5 1.3.9.9 7.8-.8 3.4-1.8 2.6v.4Z"/><path id="CD-MA" d="m236.6 213.6-.9.3-1.7 2.3-2 5-1.9 2.9-1.5 3.1-2 6.8-.2 15.1.6 4.8-.6 4.9-3.2 2.8-3.2.9-1.1 2.2h-2.7l-2.9-2.4-2.8-.7-3-3.6-1.5-.9-8.7-3-8.8-5.3-11.7-4.3-6.4-1.5-4-1.9-2.7-2.6-1.6-.3-1.7.7-3.3-1.1-4.8 1-3.7-2.3-4.4-1.2-2.8-2.1-2.4-.3v4.9l-2 3.1 1.3 3.6-.2 1.3-3.9 7.8-1.1 1-5-.7-2.1 2.1-4.9 2.2-3.5 3.1-1-1.5-1.1-.6-1.8-3-5-2.7-2.4-.6-4.2.3-1.5-.9 8.5-17.3-1-1.2-.2-3.9.5-2.3-.4-3.7 1.5-6.6-1.4-6.4.2-4.2 1.3-2.7 3.1-2.2 4.6-5.4 2 4.4 1.7.8 6.6-.6.7-2.5-.5-1.1-3.4-1.2v-.8l1-.5 6.7.6 1.9-.9 7.8-6.3 4.2-1.9 8.1-2.6 2.5-1.4 3-3.1 1.2-2.3 1.2-.6 1.5.3 6.6 4.4 6.4-.3v-.9l-.8-.9.3-1 3.5 1.3v-1.2l-3.5-5.2.6-2.2 1.4-1h4.7l2.8-1.9 2.4 3.4.6 4.1 2.7 2.2 3.1 7.7 1.3 3.4.9 6.8 1.2.6 1-.6 2-2.1 1.3-3.1.8-.3 2.5 2.7 1.6 4.6 1.6.9 3.9.6 7.8 5.3 6.3-3.3h1.4l5.5 6.4 3.3 5v1.6Z"/><path id="CD-MN" d="m341.8 276.4-2.7-3.6-.8-2.4 3.1-3.6 1.2-7-1.1-3.5-6.2-8.2 1.3-2.8-.3-3.4.8-2.4 1.8-1.1 2.7-3.6 1.1-2.7.2-4.2 2.2-5.7v-1.6l-.5-2.8-2.2-2.3.7-.8v-2.4c-.1 0-1.7-1.2-1.7-1.2h-4.7l-1.7-.4-1.2-1.4v-3.7l-2.1-4.8 14-.5 1.3.4.8.9v.9l5 .6 2.7-3.2 4.6-2.4 3.7-.4.7-1.2.6-4.8v-6.4l1.9 2.5h2.2c0-.1.6-1.3.6-1.3l-.4-1.2 1.2-.6-.4-3.1 1.4-3.2-1-3.4 4.7-2.8-.4-5.6.9-3.8-.2-1.1-3.1-2-.5-1.1.9-2.7-2.8-3-.8-3.2.7-1h1.3l1.8 1 3.8 3.9.6 1.5 2.3 1.3 1.2 1.9h2.7c0-.1 1.8-1.6 1.8-1.6l2.1-.3 1.8-1.3 1.2.2.3-1.6 2.8 1.5h1.3c0 .1 1.5 1.2 1.5 1.2l.5 1.4 1.6 1.5 1.3.5 3.7.6 1.5 1.3 2.7-.6 1 1.7 5.8 1.6h2.7l-.9 4.4-1.5 3.5-1.3.9-6.2-.4-3.6 1.1-1 .9-.4 1.7 1.3 2.9-.3.9-1.6.4.2 1 2.7 1.8.6 3.1 2.9 2.2 2.1 3.1 4.2 3.8.4 5.7-4.2.2-4.9-.7-.6.6.4.7 1.4.3.4 1.8-5.5 4.2-4.5-1.4-2.4-1.9-2.5.2-.7.6-1.6 6.6 1.3 2.8.5 2.5 1.1 1.6v2.7l1.4 3.5 1.9 1 2.4 8.6-1.4 1.3 1 3.5-1.1 7.2.6 2.5 1.7 1.6 7.6 2.8 3.6.7 5.6.2 1.2 2.3 3.9.5.4 1.5 3.5 1.2 1.2-2.7 1.2.2.7 1.7 7.1 6.9.4 2.1 4.9 8.4 1.8 4.2-67.5-.2-21-.2-5.6.5-4.6-.5-1.4-1.1-1.1-2.9Z"/><path id="CD-MO" d="M271.8 101.3H264l-4.3 1.3-.9 2 .7 8.6 1.6 4.4 3.5 2.6 1 2.3-.9.8-1.7-.6-2.5.7-2.1 1.7h-1.3L255 124l-.8.2-.8 3.9-1.4.6-2.6-.7-8.7-4.2-3.7-.7-1-1.4.8-3.2-.8-2.1-1.3-.2-1.8.8-5-.7v-2.7l-1.2-2.6v-2l1.3-4.1v-1.8l-.4-.4-5.3 1-7.4-2.5-5.2 1.1-8.5 3-6.7 4.3-6 2.5-.2-5.5 17.3-9.2 1.5-2.5 1.4-1.3.9-2.8 3.6-5.1 1.4-.9 5.4-1.5 3.1.8 6.8-.6 1.4-.7 1.9-2.1.5-1.4-.5-2.4-4.1-5.9v-7.7l1.4-1.7 2.9 3.2 3.5 1.3 2.4 4 1.1.6.4-6.9 9.3 5.8 9.7 1.3 2.6-.2 10.5-2.7 3.1.9 1.7-5 4.7.9 1.3 2.6 1.2.6 2-1.6h1c0-.1 1.5.1 1.5.1l1.2 1v1.1l-2.1 3.9-2 1.6.3 1.9 1.1 1.8 4.1 2.5 4.7 1.8 1.6-.3.6-1.6.8-.3 1.6 1.6 1.5.3 1.4 1.3.7 1.6.4 5H302l-2.8-2.1-1.7 1.1-.2 1.2.8.8-.3 1.6-.8.5h-1.6l-2.1-.9-.9-1.3-1.5-.8h-1.4l-3.7 3.8-2.5.5-1-1.1-5.6-3-3.8.3.6 2.8 2.1 2.8-.7 2.7-2.7 2.5Z"/><path id="CD-NK" d="m455.9 190.7-4.4.3-3.5 2.7h-3.5l-6 4.6h-5.1c0-.1-1.3.9-1.3.9l-1 1.9h-3.8c0 .1-1.9 1.6-1.9 1.6l-1.4-1.6-7 .8-1.8-.9-.4-5.7-4.2-3.8-2.1-3.1-2.9-2.2-.6-3.1-2.7-1.8-.2-1 1.6-.4.3-.9-1.3-2.9.4-1.7 1-.9 3.6-1.1 6.2.4 1.3-.9 1.5-3.5.9-4.3h1.5l1.9-1 .6-2.1-.7-2.8 3.8-2.2 1.3-2.3-1.5-6.2.4-2.4 1-1.3-.6-1.7-1.4-1-.6-4.4-.7-.9-5.1-1 .3-1.3 4.9-2.3 4-1.3 3.3-.3 2.2.7 4.6 4.1 3.2-1.3 9-.2 4-2.3 2.9 1.4 4.3-6 3.8-.6.3-.6h2.4c0-.1 1.6.4 1.6.4l2.4-1.7.7.2 1.5 2.9h1.5l-.4 4.5.6 3.3-2.8 3.5-1.3 5.6-1.4.2-1.4 2.4.3 4.4-2.1 9.7.5.3.3 2.3-1.5 3.7.3 5.1H464c0 .1-.2 7.6-.2 7.6l.9.9-.5 4.4-1.8.9-1.7 2.2-2.5.3-2 2.7Z"/><path id="CD-NU" d="m275.3 38.4 5.9.9 1.5 1.9 1.5.9-.9 2.1.4 1.7 3.2.4 6-.8 6.2 1.7 1.2-.8h1.4c0 .1 1.2.5 1.2.5l.2 1.2-.6.9-2.4 1.2-4.6-2.1-4.9 4.6-4.3 1.3-4 2-2.6 2.3-.4 3.3-1.7 2.7-1.7 5-3.1-.9-10.5 2.7-2.6.2L250 70l-9.3-5.8-.4 6.9-1.1-.6-2.4-4-3.5-1.3-2.9-3.2-1.4 1.7-3.1 2.8-4.9 5.9-1.2.7-2.2-.6-2.5-2.7-.7-2.6 2.5-4.9-1.6-6.4-2.2-2.7.4-3.3 1.5-2-1-1.2-2.4-.4-3.5-1.8-.9-1.1-.4-3-1.7-.6-6.8.7-2.6 1-.7 1.6h-1.7l-2.9-1.7v-1.2l6.2-12.7v-1.4l-1.2-1.1-3.4-.2-3.9-1.4-1.6-1.3-2.8-.5 2-3.3 2.6-.4 1-1.7 3.1-1.7 1.2-1.3 4-.7 3.8.3 3.4 1 2.4 3 2.9.4 4.6 3.7 3.9 2 2.9 3.3.2 3.3 3.8 2.6 5-.3 1.9-.8 5.6 1.4 1.2 1.5 2.5 1.3 1.9-1.3 1.4 1.2 2.5.9 3.6.4 2.3-1.6h2.2c0 .1 3.3 1.8 3.3 1.8l2.7.4 1.3-.4 2.4.7 1.8 1.5 2.7 1.1 4.7-.3 1-.8Z"/><path id="CD-SK" d="m455.9 190.7-4.3 7 1.3 5.6-.2 1.4-2.1 3.5-2.1.3-1.3 2.2-1.8.2-.7 1.6.6 1.1-.9 1.2 1 1.1v2.4l3.2 1.6.5.9-.8.7v.9h1.3l1.1 1.5v1.2c.1 0 2 1 2 1v1l1.8.8.6 1.1v1.2l-1 2.2.5 1.9-.8.6v1.9c-.1 0 .9 5.3.9 5.3v8.3l.6 1.8 2.2 2.6.8 3.6.4 8.7-1.8 5.1.3 4.1 1.2 4.8H443l-1.8-4.3-4.9-8.4-.4-2.1-7.1-6.9-.7-1.7-1.2-.2-1.2 2.7-3.5-1.2-.4-1.5-3.9-.5-1.2-2.3-5.6-.2-3.6-.7-7.6-2.8-1.7-1.6-.6-2.5 1.1-7.2-1-3.5 1.4-1.3-2.4-8.6-1.9-1-1.5-3.5v-2.7l-1-1.6-.5-2.5-1.3-2.8 1.6-6.6.7-.6 2.5-.2 2.4 1.9 4.5 1.4 5.5-4.2-.4-1.8-1.4-.3-.4-.7.6-.6 4.9.7 4.2-.2 1.8.9 7-.8 1.4 1.6 1.9-1.4h3.8c0-.1 1-2 1-2l1.3-1h5.1c0 .1 6-4.4 6-4.4h3.5l3.5-2.7 4.4-.3Z"/><path id="CD-SN" d="m326.5 193.3 1.4 1.1.9 2.7 2.7 3.8 2.1 4.8v3.7l1.2 1.4 1.7.5h4.7l1.6 1.1v2.4c.1 0-.5.8-.5.8l2.2 2.3.6 2.8v1.6l-2.2 5.7-.2 4.2-1.1 2.7-2.7 3.6-1.8 1.1-.8 2.4.3 3.4-1.3 2.8 6.2 8.2 1.1 3.5-1.2 7-3.1 3.6.8 2.4 2.7 3.6-3.3.2-.5 2-2.7.8-4.4 2.8-1.2 3.4.8 2.9-.6 1.7-.9.7h-1l-1.1-1.2-1.6 1.4-2.4.3-1.8-.9h-2l-2 .6-.6 1.3.5 1.9.9 2.3 2.2 1.3v2.8l-.6.9-3.6.6-1.9-.7h-2.1l-2.9-1.1-1 .6-2.8-.9 3.8-6.5-1.6-3.9-5-.5-2.5-1.8-6.2.9-3.7-4.8-2.8-2.5-.2-.8 1-.7v-2c.1 0 6-2.8 6-2.8v-2c-.1 0-2-4.5-2-4.5l-2.5-.8-3.3.2-4.3-5-5-3.4-4.1-2.7-1.7-2.2-1.1-.5-2.6.6-4.8-1.6-.2-.8 4-3.3.6-3.5-.3-1.8-.9-1-3.7.5-.9-.9v-1.8l4.4-8.8.2-2.5 2.4-3.5-2.2-2.3-3.4-5.5-3.9-3.1 1.6-.9 2.6-3.5 1.9-1.3 1.8 3.4.7.5 1.1-.2.5-1.1-.3-3.1-1.7-6.5-.2-3.4 1.2-2.6 3.6.8 3.3 1.6 2.2-1.2.9-2.6.7-.3.7 1 3.7 1.8 8.6 1.5 1.7.8 2.5 2.7 1.3.6 2.3-1.4h4.4c0-.1 1.1-1.4 1.1-1.4V196c-.1 0 .5-.6.5-.6l1.7.6 3.8-1.9 3.1-.3 1.3-.8 10.8.4.9-.4Z"/><path id="CD-SU" d="m206.9 94.9-11-.6-8.1-2.6-3.5.6-8.8 4.8h-1.2c0 .1-3.8-1.9-3.8-1.9h-11.9l-.5-.6 1.1-6.3 2.1-2.1 1.5-4.3 2.6-2.4 2.5-4.7.9-4.8 1.3-1.5.4-1.5 1.8-1.2 1.1-2.5V57l-1.4-8 .4-3.8 1.3-2.2v-2.6l-2.7-6.3 1.5-1.1h2.9l1.5-1.1 1-1.7.5-2.6 4.7-5.2.5-1.3 2.8.5 1.6 1.3 3.9 1.4 3.4.2 1.2 1.1V27l-6.2 12.7v1.2l2.9 1.8h1.7l.7-1.6 2.6-1 6.8-.7 1.7.6.4 3 .9 1.1 3.5 1.8 2.4.4 1 1.2-1.5 2-.4 3.3 2.2 2.7 1.6 6.4-2.5 4.9.7 2.6 2.5 2.7 2.2.6 1.2-.7 4.9-5.9 3.1-2.8V71l4 5.9.5 2.4-.5 1.4-1.9 2.1-1.4.7-6.8.6-3.1-.8-5.4 1.5-1.4.9-3.6 5.1-.9 2.8-1.4 1.3Z"/><path id="CD-TG" d="m458.4 280.9 3.9 10.1 1.8 6.6-.5 12.8.4 2.8 1.6 4.3 3.6 5.2 7.8 6 4.1 4.9 3.2 6 4.8 11 3 8.5 2.3 3.4.9 3.1-31.7 4.1-1.3-1.7 1.1-2.6v-1.5l2.2-2 .3-1.4-2.2-4.5-1.9.4-2.5-3h-4.2l-.7.9-2.4-.4-.9.9-.5 2.2-5-.8-1.3 3.1-.9.3-3.9-2.4-1.5-5.5-1.7-1.2-2.5.5-.3 1.5-1.6.6-.2 1.3 3.7 2.8v1.9l-2.1 3.1v1.2c.1 0-.6 1.6-.6 1.6l-2.4 1.9-3 .4-4.4 3.1-1.3-.7-1.4-2.8-2.5-.2-.8-1.3-3.1-1.4 3-3.8.6-2.4-.5-1.4-.7-.3-1.3.6-2.3-.7-.9-3.4.5-2-2.5-4.1-2.2.7-1.4-.5-2.1 1h-1l-1.3-1.2-.8.6-.7 2.7-1.5.4h-8l-1.6-1.9-3.2-.7-6.8-4.2-1-1.3v-1.6l.6-1.6 2.5-2.5v-1.1l-6.2-1.4-.8-1.2-2.4-.5-2.1-3 .9-.7-1.5-4.3-2.3-1.1.4-3.7 4.2-3.6.3-1.2 1.8-2.6.8-3.4-.9-7.8-1.3-.9-.5-1.5 1.2-2.5-.9-5 1.8-7.2 1.7-3.3 82.9.3Z"/><path id="CD-TO" d="m422.3 131.2-4.9 2.3-.3 1.3 5.1 1 .7.9.6 4.4 1.4 1 .6 1.7-1 1.3-.4 2.4 1.5 6.2-1.3 2.3-3.8 2.2.7 2.8-.6 2.1-1.9 1h-4.2l-5.8-1.7-1-1.7-2.7.6-1.5-1.3-3.7-.6-1.3-.5-1.6-1.5-.5-1.4-1.5-1h-1.3c0-.1-2.8-1.6-2.8-1.6l-.3 1.6-1.2-.2-1.8 1.3-2.1.3-1.8 1.4h-2.7c0 .1-1.2-1.8-1.2-1.8l-2.3-1.3-.6-1.5-3.8-3.9-1.8-1h-1.3l-.7 1.1.8 3.2 2.8 3-.9 2.7.5 1.1 3.1 2 .2 1.1-.9 3.8.4 5.6-4.7 2.8 1 3.4-1.4 3.2.4 3.1-1.2.6.4 1.2-.6 1.1h-2.2c0 .1-2-2.3-2-2.3v6.4l-.5 4.8-.7 1.2-3.7.4-4.6 2.4-2.7 3.2-5.1-.6v-.9l-.7-.9-1.3-.4-14 .5-2.7-3.8-.9-2.7-1.4-1.1v-6.9l-2-3-6.9-.7-2.6 1.8-1.3-.3-3.8-4.2-3.5-2.1.5-1.1-.2-1.3-5.6-2.3-3.9-3.2-.5-1.7 2.2-2.9 4-1.2v-1l-1.7-1.4-.4-2.4-4.7 1.5-.7-.2-1.4-2.7-1.5-.7h-4.5l2.6-1.8 5.9-.3 1.1-.8.4-1.3-1.3-2.5-5.7-4.4-.8-2.1-2.4-3.5-.6-1.3 1-2-.9-2-.3-2.4-2.2-3.3V127c.1 0-1-2.5-1-2.5v-2.6l-3.8-6.4-1.3-3.3-5.1-3.4-3.9-.4.2-4.1 1.4-1.6v-1.3l2.7-2.5.7-2.7-2.1-2.8-.6-2.8 3.8-.3 5.6 3 1 1.1 2.5-.5 3.7-3.7h1.4l1.5.7.9 1.3 2.1.9h1.6l.8-.5.3-1.6-.8-.8.2-1.2 1.7-1.1 2.8 2.1h3.1l2.2.3 1.8 1.3 5.9 1.4 2.2-1.3 1.3-2 6.1-1.5 18.2.3 2 .7 1.1-.3 1.9-1.7h1.3c0 .1 6.9 3.5 6.9 3.5h2.3c0 .1 1.8-.2 1.8-.2l2.7-1.6h1.8c0-.1 2.5.9 2.5.9l1.8-1.6 5.5-1.6 1.6-1.2 1.4.2.4 2.3-.4 4.4 1.1 1.3h1.5c0 .1 1.3-1.1 1.3-1.1l.9 1.5 1 .3 1.7-.8.6-1.6 3.4-1.3.9.7 2.9.3.8.8 1.5 4.3 1.6.4 1.8.9h1.8c0 .1 1-.1 1-.1l.7-3.2 3.3.7.9 2.4-1.5 1.1.6 2-1.3 1.3-1.2 2.7h-1l-.4.6v.9h4.9l.7.6 1.1 1.6 2.6 4.2h3.3l1.8 1.1.3 1.1-.8 4.6 4.6.8-.4 2.7.8.6h1.3l-.1 1.3-.9 1.1v1.4l1.2 2.9 1 .9Z"/><path id="CD-TP" d="M271.8 101.3v1.3l-1.5 1.6-.2 4.1 3.9.4 5.1 3.4 1.3 3.3 3.7 6.4v2.6l1.2 2.5v2.8c-.1 0 2 3.3 2 3.3l.3 2.4.9 2-1 2 .6 1.3 2.4 3.5.8 2.1 5.7 4.4 1.3 2.5-.4 1.3-1.1.8-5.9.3-2.6 1.8h4.5l1.5.7 1.4 2.7.7.2 4.7-1.5.4 2.4 1.8 1.4v1l-4.1 1.2-2.2 2.9.5 1.7 3.9 3.2 5.6 2.3.2 1.3-.5 1.1 3.5 2.1 3.8 4.2 1.3.3 2.6-1.8 6.9.7 2 3v6.9l-.9.4-10.8-.4-1.3.8-3.1.3-3.8 1.9-1.7-.6-.6.6v3.8c.1 0-1 1.3-1 1.3h-4.4c0 .1-2.3 1.5-2.3 1.5l-1.3-.6-2.5-2.7-1.7-.8-8.6-1.5-3.7-1.8-.7-1-.7.3-.9 2.6-2.2 1.2-3.3-1.6-3.6-.8-1.2 2.6.2 3.4 1.7 6.5.3 3.1-.5 1.1-1.1.2-.7-.5-1.8-3.4-1.9 1.3-2.6 3.5-1.6.9-2.9-.9-7.8-4.6h-.6v4l-.6.3-7.5.9h-1.5c0-.1-.9-.9-.9-.9v-1.6c.1 0-3.2-5-3.2-5l-5.5-6.4h-1.4l-6.3 3.3-7.8-5.3-3.9-.6-1.6-.9-1.6-4.6-2.5-2.7-.8.3-1.3 3.1-2 2.1-1 .6-1.2-.6-.9-6.8-1.3-3.4 2.6-4.5 1.7-1.8.2-4.5.7-.8 1.1.5.3 3.6 1.6 1.3 8.7-2.4 2.2-2.1-.2-1.4 2.5-4.7.6-3.2-3.2-3.5-1.8-4.4-4.3-4.3h-1.4l-.6-.9.6-1.1 1.2-.3 1.3.6h1.7l.9 1 1-.2.4-.8 1.7-.3 1.7 1v2.3l.9.9 2.3-1v-1.4l.9-1.4 5-2.1.4-1-.4-.5h-2.4l-.2-1.1 2.2-1.1.6-.8-.4-1.1-5.6-4.2-1.2-2.3 3.7-8.4-.9-2.5 1-7 3-4.2 3.5 1.3 5 .7 1.8-.8 1.3.2.8 2.1-.8 3.2 1 1.4 3.7.7 8.7 4.2 2.6.7 1.4-.6.8-3.9.8-.2 2.1 1.2h1.3l2.1-1.8 2.5-.7 1.7.6.9-.8-1-2.3-3.5-2.6-1.6-4.4-.7-8.6.9-2 4.3-1.4h7.8Z"/></g></svg>