<svg xmlns="http://www.w3.org/2000/svg" xmlns:amcharts="http://amcharts.com/ammap" id="Layer_1" viewBox="0 0 512 512"><g id="_x3C_defs"><amcharts:ammap bottomLatitude="10.912" leftLongitude="41.769" projection="mercator" rightLongitude="43.418" topLatitude="12.712"/></g><g><path id="DJ-AR" d="m201.7 307.4 4.8 5.4 16.3 10.8 3.9.9 5.7 3.4 3-1.1.5-3.5 3.1-.7-.2 1.5-1.1.3 3.4 4.2-.2.8h-3.3l1.2.8-1.1 1.9-1.6.6 1.9 3.7 5 3 4.2 4.5 2.1 1.1 1.6.2 6.6 5.9 6.8.9 3.6-2.8-.2-1.5.7-1 2.6 1.1 10.6 1.1-.3-1.5v-1.5l.8-4.2-3.9-2.4h-1.5l-2.9-3.7 1.2-1.9 3.2-.2v-1.1h1.2c0-.1 1.4-3.4 1.4-3.4l1.4 1.7 1.5.4 2.3-1.6 3.4-.5 1.1-1.3 6.9-1.2 1.8-2.7 3.6 1.3 4.5-1 2.4-2.1 1.7-1.4 1.4-2.3 6 1.1 1.2-1.1h5.9v-3.4l2.3 3.4 2.6-.8 1.9.8 2.1.8 7.4-2.1 6.8-.2v17l54.4-.5 1.1 2 1.6.4 5.4-1.6 5.3-.4 2.5 5.6 4.5 1.1.5-.5-1.1-1-.3.6-3.1-.6 3.2-1.3 5.1 3.6 2.9 3.3.3 4 3.4 4.2 1.9.6-9.8 15.6-41.1-19.6-10.6 1.7-32 6.2-15.4 28.7-49.8 29.4-47.5 1.1-40.1-38.4-4.4-53 11.3-13.8 4.4-3.6Z"/><path id="DJ-AS" d="M374.9 452.8 356 484.3l-11.3 1.4-7.6 2.5h-1.9l-1.4-.9-3.2 1.2-2.7-3.2-1.4.4-2-.8-15.1-1.6-2-4.9.9-3.8-1-3.7-2.4-3.3-.7-2.8-2.4-1.4-.6-3.4-2-1.7-1.6.2-.6 2.6-1.3.9-2.7-.9-4.8 2.1-6.4 1.4-2.3-2.9-4.9-3.3-1.9.3-2-2.8-3.9-2.1-2 .4-4.6 3.2v-31l14.4-9.2 53.1-31.4 15.4-28.7 32-6.2 10.6-1.7 41.1 19.6-52 84Z"/><path id="DJ-DI" d="m201.7 307.4-4.4 3.6-11.3 13.8 4.4 53 40.1 38.4 47.5-1.1-3.3 2-14.5 9.2v31l-1 3.2-26.7 8.5-23.1 16.1-15.7-4.5-1.7.4-.2 1.8-2.2 1.1-9.1-1.8-7.1 1.5-1.5.7-1.9 2.7-2.2.9-19 2-.5-1.5-1.8-1.1-7-.5-4.9 1.2-.6-1 1.1-1.3-.8-.5-3.8 2.3-5.7.5-1.4 3.5h-4.9l-3.4 6.4-4.7.2-3-.8-7.4 3.8-10.1-1-4.7 3.6-1.6.3h-1.7c0-.1-4-5.5-4-5.5l-3.8-1.6-6.9-.9-11.8-2.9-8.3-.7-2.1-3.1-5.8-.6-1.6-4.5v-1.8c.1 0 3.6-3.5 3.6-3.5l1.8-15.4 1.6-26.2.6-27.3-1.1-17.4-1.4-9.6-9.1-35.4-1.3-6.4.6-2.6 4.3-8.9 3-4.2-.3-4.4.9-3.2 3.6-6.1-1.1-3.7.4-3.6 3.1-8.5.9-5.1 4.2-13.2 15.9-8.6 1.3-5.3 1.6-1.2 14.3-7.2 1.3-3.5 8.7-12.8 40.1 7.7 10.5 4.2 56.5 56.3Z"/><path id="DJ-DJ" d="m417.7 327.2.6 1.5-1.1.3-.5-1.4 1.1-.4Zm-10.2-18.8-.2 3 1.5.8.8 1.7-1.7.7.2 2.5 2 4.5 2.2 2.5.4 3.4 2.9 1.8 1.4 4.3-5.3.4-5.4 1.6-1.6-.4-1.1-2-54.4.5v-17l5.9-.5 3.2 1.1h9.7l.5-.7 5.7-.5 9.8 2.5-1.3-1.2v-1.1l3.2-.3 3.8 1.1 2.6 3.1 2.3.8 3.4-2.1 4.5-.7.8-1.2 1.8.3 1.4-3.6h-2.2l-.2 1.1H403l1.4-2-.9.2-.3-.7-.9 1.2-.2-.8 1.7-1.4h2.6l.3-2.4 1-.6Z"/><path id="DJ-OB" d="m401.7 7.9 3.1 1.2 1.7 8.2 5.1 12.7 4.4 4.1 8 11.8 10 11.6 6.3 11 3.1 2.4 1 2.3 1.6.7-.2 2.4 2.6 2.2h1l3.3-3.5-.9-.8-.6-2.7h1.3l2.5 1.7-1.3 5.1 1.3 8.2 2 5.7 1.8 2.6 2.2.5 2.3 4.3 4.4 21.6-.4 2.8 1 5.8 2.3 1.6 1.1 2.9 2.2 2.9.7 3.5 2.6 3.1.5 9-1.1 2.1 2.2 4.5-.5 2.1 1.4 8v4.2l-.7 7.3-1.8 7.4-10.7 21.8-6.3 1.1-10.9-1-4.1 5.6-12.5-.5-4.1.7-.9 1.4-3.7-1.2-7.6 1.5-1.8 1.1-5 6.4-3.8 3-1.5 3.5-2.5.5-2.7 3-.5 2-1.4.8-.8 2.3-3.2 3.5-1.4.4-1.8 3.8-5.7-3.5-4.8-4.5-4.8-9.5-.7-4-3.7-7.4-9-9-43.9-48-1.2-1.8-.2-2.2-3.7-3.2-4.8-2.3-6.2-1.4-6.9-3.8-8.1-7.4-3.4-4.1-6-14.2-1.8-1.6-1.1-2.7 3-5.6 5.8-3.4.7-3.4 1.9.8-.9-3.1 4.4-4.5 1.7-.2 3.3 1.1 3.2-1 1.4-1.6v-2c-.1 0 1.5-.7 1.5-.7l1.7-3.2 6.7-1.3 4 .2 2.6-1.7 3-3.5-1.5-7.2-2.1-2.7-1.9-.2-2.3-2.6 1.4-7.1 7.7-10.6 3.4.4 1.9-2.1 2.6.2.6-1.6-1.3-1.9 1.8-1.7-1.1-1.3v-1c.1 0 2.1-1 2.1-1v-3l3.9-1.1 1.3-4.3 1.4-1.6 3.2-.4 2.1 1.4 1.8.2 2.9-2.9 3.7-.2 2.3-1.1 4.5-4.8 44.7-18.1Z"/><path id="DJ-TA" d="m231.5 64.8 3.3.3 7.6 3.2 12.3 9 15.4 17.3 13.9 10.6-.7 3.4-5.8 3.4-3 5.6 1.1 2.7 1.8 1.6 6 14.2 3.4 4.1 8.1 7.4 6.9 3.8 6.2 1.4 4.8 2.3 3.7 3.2.2 2.2 1.2 1.8 43.9 48 9 9 3.7 7.4.7 4 4.8 9.5 4.8 4.5 5.7 3.5-1.1 1.5-2.8.6-2 2.4v1.5l-1.7.5-1.6 2.6-7.3 1.1-2.1-.4-2.2 1.1-1.3-.2-1.4-1.7-3 1.4h-3.8l-3.3 2.9-1.6 3.9-4.1 2.8-1.3-1v-1.8l-1.3 1 .6 1.1-.9.4-1.4-.5-1.1-1.9-5.2.2-1.4-.9-2.6.8-3.5-1.9-1.5.3-4 3.6-5 .3-2.1 3.1-2.9 2.3-10.8 1.3-1.8 2-3 6.6-2.9 3.2-.8 6.4-2.4 2.3-5.1 2.5-5.9 7.8-1.5 4.1-.7 9.2-2 1.9-.5 1.9-1.3.3 1.4 4.4-6.2-2.5-.2 2-2.3-2.4-2.3-.2-2.1-1.3-.3.7 4.4 3.4h-3.2l-8.4-4.9-6.3 3.2-2.6-2.7-.7.8-3.4-4.1-2.8-.4-3.1-1.6H238l-2 3.4v.4l-.9 1.5 1 .9-.5 3.5-3 1.1-5.7-3.4-3.9-.9-16.3-10.8-4.8-5.4-56.5-56.3-10.5-4.2-40.1-7.7 10.5-15.3 10.1-12.8 2.3-5.8 6.1-9.9 4.9-11.7 2.3-2.2 7.4-1.4 3-11.3 3.6-4.6 5.3-9.6 7.1-8.1 6.8-10.3 16.9-16.8 6.3-20.1 14.7-19.9 6.6-7.9 10.1-10.1h3.1l4.9 2.3 4.9 1.1Z"/></g></svg>