<?xml version="1.0" encoding="UTF-8"?>
<svg id="Layer_1" xmlns="http://www.w3.org/2000/svg" xmlns:amcharts="http://amcharts.com/ammap" version="1.1" viewBox="0 0 512 512">
  <!-- Generator: Adobe Illustrator 29.1.0, SVG Export Plug-In . SVG Version: 2.1.0 Build 142)  -->
  <g id="_x3C_defs">
    <amcharts:ammap bottomLatitude="10.912107" leftLongitude="41.768974" projection="mercator" rightLongitude="43.417557" topLatitude="12.712172"/>
  </g>
  <g>
    <path id="DJ-AR" d="M201.7,307.4l4.8,5.4,16.3,10.8,3.9.9,5.7,3.4,3-1.1.5-3.5h0l3.1-.7-.2,1.5-1.1.3,3.4,4.2-.2.8h-3.3c0,0,1.2.8,1.2.8l-1.1,1.9-1.6.6,1.9,3.7,5,3,4.2,4.5,2.1,1.1,1.6.2,6.6,5.9,6.8.9,3.6-2.8-.2-1.5.7-1,2.6,1.1,10.6,1.1-.3-1.5v-1.5c0,0,.8-4.2.8-4.2l-3.9-2.4h-1.5c0,0-2.9-3.7-2.9-3.7l1.2-1.9,3.2-.2v-1.1h1.2c0-.1,1.4-3.4,1.4-3.4l1.4,1.7,1.5.4,2.3-1.6,3.4-.5,1.1-1.3,6.9-1.2,1.8-2.7,3.6,1.3,4.5-1,2.4-2.1,1.7-1.4,1.4-2.3,6,1.1,1.2-1.1h5.9c0,0,0-3.4,0-3.4l2.3,3.4,2.6-.8,1.9.8,2.1.8,7.4-2.1,6.8-.2h0v17l54.4-.5,1.1,2,1.6.4,5.4-1.6,5.3-.4h0l2.5,5.6,4.5,1.1.5-.5-1.1-1-.3.6-3.1-.6,3.2-1.3,5.1,3.6,2.9,3.3.3,4,3.4,4.2,1.9.6-9.8,15.6h0l-41.1-19.6-10.6,1.7-32,6.2-15.4,28.7h0l-49.8,29.4h0l-47.5,1.1-40.1-38.4-4.4-53,11.3-13.8,4.4-3.6Z"/>
    <path id="DJ-AS" d="M374.9,452.8l-18.9,31.5-11.3,1.4-7.6,2.5h-1.9c0,0-1.4-.9-1.4-.9l-3.2,1.2-2.7-3.2-1.4.4-2-.8-15.1-1.6-2-4.9.9-3.8-1-3.7-2.4-3.3-.7-2.8-2.4-1.4-.6-3.4-2-1.7-1.6.2-.6,2.6-1.3.9-2.7-.9-4.8,2.1-6.4,1.4-2.3-2.9-4.9-3.3-1.9.3-2-2.8-3.9-2.1-2,.4-4.6,3.2h0v-31c0,0,14.4-9.2,14.4-9.2h0l53.1-31.4h0l15.4-28.7,32-6.2,10.6-1.7,41.1,19.6h0l-52,84Z"/>
    <path id="DJ-DI" d="M201.7,307.4l-4.4,3.6-11.3,13.8,4.4,53,40.1,38.4,47.5-1.1h0l-3.3,2h0l-14.5,9.2v31h0l-1,3.2-26.7,8.5-23.1,16.1-15.7-4.5-1.7.4-.2,1.8-2.2,1.1-9.1-1.8-7.1,1.5-1.5.7-1.9,2.7-2.2.9-19,2-.5-1.5-1.8-1.1-7-.5-4.9,1.2-.6-1,1.1-1.3-.8-.5-3.8,2.3-5.7.5-1.4,3.5h-4.9s-3.4,6.4-3.4,6.4l-4.7.2-3-.8-7.4,3.8-10.1-1-4.7,3.6-1.6.3h-1.7c0-.1-4-5.5-4-5.5l-3.8-1.6-6.9-.9-11.8-2.9-8.3-.7-2.1-3.1-5.8-.6-1.6-4.5v-1.8c.1,0,3.6-3.5,3.6-3.5l1.8-15.4,1.6-26.2.6-27.3-1.1-17.4-1.4-9.6-9.1-35.4-1.3-6.4.6-2.6,4.3-8.9,3-4.2-.3-4.4.9-3.2,3.6-6.1-1.1-3.7.4-3.6,3.1-8.5.9-5.1,4.2-13.2,15.9-8.6,1.3-5.3,1.6-1.2,14.3-7.2,1.3-3.5,8.7-12.8h0l40.1,7.7,10.5,4.2,56.5,56.3Z"/>
    <path id="DJ-DJ" d="M417.7,327.2l.6,1.5-1.1.3-.5-1.4,1.1-.4ZM407.5,308.4l-.2,3,1.5.8.8,1.7-1.7.7.2,2.5,2,4.5,2.2,2.5.4,3.4,2.9,1.8,1.4,4.3h0l-5.3.4-5.4,1.6-1.6-.4-1.1-2-54.4.5v-17h0l5.9-.5,3.2,1.1h9.7c0,0,.5-.7.5-.7l5.7-.5,9.8,2.5-1.3-1.2v-1.1c0,0,3.2-.3,3.2-.3l3.8,1.1,2.6,3.1,2.3.8,3.4-2.1,4.5-.7.8-1.2,1.8.3,1.4-3.6h-2.2c0,0-.2,1.1-.2,1.1h-1.1c0,0,1.4-2,1.4-2l-.9.2-.3-.7-.9,1.2-.2-.8,1.7-1.4h2.6c0,0,.3-2.4.3-2.4l1-.6Z"/>
    <path id="DJ-OB" d="M401.7,7.9l3.1,1.2,1.7,8.2,5.1,12.7,4.4,4.1,8,11.8,10,11.6,6.3,11,3.1,2.4,1,2.3,1.6.7-.2,2.4,2.6,2.2h1l3.3-3.5-.9-.8-.6-2.7h1.3c0,0,2.5,1.7,2.5,1.7l-1.3,5.1,1.3,8.2,2,5.7,1.8,2.6,2.2.5,2.3,4.3,4.4,21.6-.4,2.8,1,5.8,2.3,1.6,1.1,2.9,2.2,2.9.7,3.5,2.6,3.1.5,9-1.1,2.1,2.2,4.5-.5,2.1,1.4,8v4.2l-.7,7.3-1.8,7.4-10.7,21.8-6.3,1.1-10.9-1-4.1,5.6-12.5-.5-4.1.7-.9,1.4-3.7-1.2-7.6,1.5-1.8,1.1-5,6.4-3.8,3-1.5,3.5-2.5.5-2.7,3-.5,2-1.4.8-.8,2.3-3.2,3.5-1.4.4-1.8,3.8h0l-5.7-3.5-4.8-4.5-4.8-9.5-.7-4-3.7-7.4-9-9-43.9-48-1.2-1.8-.2-2.2-3.7-3.2-4.8-2.3-6.2-1.4-6.9-3.8-8.1-7.4-3.4-4.1-6-14.2-1.8-1.6-1.1-2.7,3-5.6,5.8-3.4.7-3.4h0l1.9.8-.9-3.1,4.4-4.5,1.7-.2,3.3,1.1,3.2-1,1.4-1.6v-2c-.1,0,1.5-.7,1.5-.7l1.7-3.2,6.7-1.3,4,.2,2.6-1.7,3-3.5-1.5-7.2-2.1-2.7-1.9-.2-2.3-2.6,1.4-7.1,7.7-10.6,3.4.4,1.9-2.1,2.6.2.6-1.6-1.3-1.9,1.8-1.7-1.1-1.3v-1c.1,0,2.1-1,2.1-1v-3c0,0,3.9-1.1,3.9-1.1l1.3-4.3,1.4-1.6,3.2-.4,2.1,1.4,1.8.2,2.9-2.9,3.7-.2,2.3-1.1,4.5-4.8,44.7-18.1Z"/>
    <path id="DJ-TA" d="M231.5,64.8l3.3.3,7.6,3.2,12.3,9,15.4,17.3,13.9,10.6h0l-.7,3.4-5.8,3.4-3,5.6,1.1,2.7,1.8,1.6,6,14.2,3.4,4.1,8.1,7.4,6.9,3.8,6.2,1.4,4.8,2.3,3.7,3.2.2,2.2,1.2,1.8,43.9,48,9,9,3.7,7.4.7,4,4.8,9.5,4.8,4.5,5.7,3.5h0l-1.1,1.5-2.8.6-2,2.4v1.5l-1.7.5-1.6,2.6-7.3,1.1-2.1-.4-2.2,1.1-1.3-.2-1.4-1.7-3,1.4h-3.8c0,0-3.3,2.9-3.3,2.9l-1.6,3.9-4.1,2.8-1.3-1v-1.8c0,0-1.3,1-1.3,1l.6,1.1-.9.4-1.4-.5-1.1-1.9-5.2.2-1.4-.9-2.6.8-3.5-1.9-1.5.3-4,3.6-5,.3-2.1,3.1-2.9,2.3-10.8,1.3-1.8,2-3,6.6-2.9,3.2-.8,6.4-2.4,2.3-5.1,2.5-5.9,7.8-1.5,4.1-.7,9.2-2,1.9-.5,1.9-1.3.3,1.4,4.4-6.2-2.5-.2,2-2.3-2.4-2.3-.2-2.1-1.3-.3.7,4.4,3.4h-3.2c0,0-8.4-4.9-8.4-4.9l-6.3,3.2-2.6-2.7-.7.8-3.4-4.1-2.8-.4-3.1-1.6h-2.8c0,0-2,3.4-2,3.4v.4c0,0-.9,1.5-.9,1.5l1,.9h0l-.5,3.5-3,1.1-5.7-3.4-3.9-.9-16.3-10.8-4.8-5.4h0l-56.5-56.3-10.5-4.2-40.1-7.7h0l10.5-15.3,10.1-12.8,2.3-5.8,6.1-9.9,4.9-11.7,2.3-2.2,7.4-1.4,3-11.3,3.6-4.6,5.3-9.6,7.1-8.1,6.8-10.3,16.9-16.8,6.3-20.1,14.7-19.9,6.6-7.9,10.1-10.1h3.1c0,0,4.9,2.3,4.9,2.3l4.9,1.1Z"/>
  </g>
</svg>