<?xml version="1.0" encoding="UTF-8"?>
<svg id="Layer_1" xmlns="http://www.w3.org/2000/svg" xmlns:amcharts="http://amcharts.com/ammap" version="1.1" viewBox="0 0 512 512">
  <!-- Generator: Adobe Illustrator 29.1.0, SVG Export Plug-In . SVG Version: 2.1.0 Build 142)  -->
  <g id="_x3C_defs">
    <amcharts:ammap bottomLatitude="-27.317645" leftLongitude="30.790800" projection="mercator" rightLongitude="32.136840" topLatitude="-25.718696"/>
  </g>
  <g>
    <path id="SZ-HH" d="M292.4,41.9l47.8,32.9h0l-4,6.2-15.8-.9-6.3-2.9-1.6,1.4,1.1,33.3,2.9,22.6-.8,10.5h0l-13.3,2.9-4.9.2-2.9-1.3h-6.3c0,0-9.7,3.3-9.7,3.3l-.3,1.3,1.7,2.3v4.5s-10.2,13.8-10.2,13.8l-6.7,1.8-1.1-.9-.2-1.8-1.7.3-12,7.4-3.2,4.6-5.7,1.3-8.7-4.1-1.9,1.9-.8,3-3.1,4.3-15.9,4.5-3,1.7-1.4,2-4.3,16.5-1.7,12.1.3,3.5-2.4,10.2-5.5-1-10.3-3.9-10.3-.8-10.3-3.5-5.5,1.7-8.2-1.8-7.5-14.4-34.3-17.9-4.7-3.1-1.7-3.2h0l17.8-16.8,30.6-60.2,11.7-26.2,3.9-19,38.3-34.4,14.6-20.5,28-7.5,49.7,34.1Z"/>
    <path id="SZ-LU" d="M347.9,80.1l21,14.4,31.7-15.3,6.4,12.5,6.8,2.4,16.5,4,2.6,19,3,29-9.3,45.4.5,16,1,13.9,15.8,39.3-1,94.7-3.8-.6-3.1-5.4-.9-3.7-1.9-1.5-7.5,1.6-3.1,2.3-1.7.4-2.4-.4-2.8-3-1.5-.4-5.2,1.3,1.3,3-5.6,32.5,1.3,4.3-4.5,19.7.6,1.6-.5,10.1-2.9,24.3.7,4.4-.8,5.6.2,5.3h0l-20.1-.3,1.8-5.6-13.5-.7.3-11.3-13.3-5.4-11.1-9.6-2.7-7.3-17.8,2.9-2.3-1.6-21.1-8.9-4.7-11.1-3-.3-2.2.7-11.6-2.6-8.1-7.6-.4-5.9-6.5-5.9,4.7-5,3.1-5.4,4-9.1,7.7-24.1-18.9,3.7-2.1-2.6h0l.3-8.8,1.2-4,6-10.7,1.3-7.9,5.9-1.5,17.7-9.8-2.1-21.1-4.6-11.4,11.1-3.5-1.1-22-2.7-8.2.5-1.7,13-15.6,6.2-5.1,4-8,1.2-18,2.3-6.4-5.3-25.1h0l.8-10.5-2.9-22.6-1.1-33.3,1.6-1.4,6.3,2.9,15.8.9,4-6.2h0l7.7,5.3Z"/>
    <path id="SZ-MA" d="M315.8,145.1l5.3,25.1-2.3,6.4-1.2,18-4,8-6.2,5.1-13,15.6-.5,1.7,2.7,8.2,1.1,22-11.1,3.5,4.6,11.4,2.1,21.1-17.7,9.8-5.9,1.5-1.3,7.9-6,10.7-1.2,4-.3,8.8h0l-8.1-4.9-2.9-.5-13.5,6.8-2.2,7.2-13.9-.4-4.3,2.6-2.2,2.7,1.3,5.7-5.5,6.5-2.7,1.2-12.9-11.5-5.5-3.5-2-.4-13.8,8.3-10,8.2-5.7,1.9-6.5,4.2-2.7,6.1-3.2.8-.9-3.1,2.3-3,.2-7.4-5.8-5.4-1.9-4,1.1-.5,1.4-4.4-1.1-11.7-29,5.6-1.4-3,.6-2.9-1-.6-3.3,1-1.7,2.6-4.4.5-2.6-1.8-1.2,1.4h0l-1.3,5.7-17.4,11.5-3.3,1.3-3-6.4-3.3-33.9.2-44.6,3.7-32.5,7.2-17.2,7.4-8.5,9.6-19.5,1.7-1.5h0l1.7,3.2,4.7,3.1,34.3,17.9,7.5,14.4,8.2,1.8,5.5-1.7,10.3,3.5,10.3.8,10.3,3.9,5.5,1,2.4-10.2-.3-3.5,1.7-12.1,4.3-16.5,1.4-2,3-1.7,15.9-4.5,3.1-4.3.8-3,1.9-1.9,8.7,4.1,5.7-1.3,3.2-4.6,12-7.4,1.7-.3.2,1.8,1.1.9,6.7-1.8,10.2-13.8v-4.5s-1.7-2.3-1.7-2.3l.3-1.3,9.7-3.4h6.3c0,0,2.9,1.3,2.9,1.3l4.9-.2,13.3-2.9Z"/>
    <path id="SZ-SH" d="M260.8,333.9l2.1,2.6,18.9-3.7-7.7,24.1-4,9.1-3.1,5.4-4.7,5,6.5,5.9.4,5.9,8.1,7.6,11.6,2.6,2.2-.7,3,.3,4.7,11.1,21.1,8.9,2.3,1.6,17.8-2.9,2.7,7.3,11.1,9.6,13.3,5.4-.3,11.3,13.5.7-1.8,5.6,20.1.3h0l.6,17.9-.4,27.5.6,2.1-135.2-.7-95.9-35.3-24.9-33-11.1-8.9-10.3-9.6-7.4-14,4.3-8.6.8-3.5v-9.9c0,0-.8-4.2-.8-4.2l-8.5-6.2-.6-1.3-9.3-7.5v-1.6c-.1,0-1.4-1-1.4-1l-2.6-14.5-.3-6.3h0l1.2-1.4,2.6,1.8,4.4-.5,1.7-2.6,3.3-1,1,.6-.6,2.9,1.4,3,29-5.6,1.1,11.7-1.4,4.4-1.1.5,1.9,4,5.8,5.4-.2,7.4-2.3,3,.9,3.1,3.2-.8,2.7-6.1,6.5-4.2,5.7-1.9,10-8.2,13.8-8.3,2,.4,5.5,3.5,12.9,11.5,2.7-1.2,5.5-6.5-1.3-5.7,2.2-2.7,4.3-2.6,13.9.4,2.2-7.2,13.5-6.8,2.9.5,8.1,4.9Z"/>
  </g>
</svg>