<svg xmlns="http://www.w3.org/2000/svg" viewBox="0 0 512 512"><g><path id="EG-ALX" d="M227.1 48.3v.2-.1h-.2c0 .1.1.5.1.5h-.2v.4l.7 1.3v2l-1 1.6-1.1 2.8-4.1 2.4-2.9 2.4 2.1 1.8-.6 2.5-1 1.9 2 3.4 5 5.8-4.5 6.8-4.4 2.1-3.5 1.1-1.6.2-1.3 1.9-1.3 3.8-.8-30.2 2-1.5v-.2l2-1.6 1.8-1.2.7-.8V57c.1 0 .4-.2.4-.2h.2l-.3.2.2.2.2-.3h.1l-.2.6.3-.4v.4h.3v-.2c.1 0 .1.3.1.3l.6-.3 1-.9.2-.6h.2c0 .1.6-.5.6-.5l-.3-.2.4-.5h-.2c0-.1-.3.2-.3.2h-.2v.2h-.3c0-.1.4-.6.4-.6v-.2l.6-.2v-.3l.3-.2v.5h.5l.3-.3-.2-.2.4.2.3-.2 1.4-1.1v-.2l.4-.1.9-.9v-.3h.5l.2-.3h.2l.1-.5h.3v-.2l.2.2.5-.2.5-.7-.2-.3v-.2c.1 0 .6-.1.6-.1l.5-.5h.4Z"/><path id="EG-ASN" d="m345.2 368.3-.9 3.2v5.4l.7 1.7.3 2.7.8 1 1 1.9.5 2.9.9 1.6 1.5.8 1.3 1.5.2 4.1 1 .4v1.7c-.1 0-.8.7-.8.7l-.5.9-.3 2v2.1l.9 3.1 1.4.3 1.4 3-.2 1.2-.7 1-.6 2-.9 1.8-2.4 2.7-1.1 1.8-1.2 1.3v1.1l3 3 2.7.2.9.9 3 2.1 2 3.2.2 3-1.1 1.8-2.4-.4-2.5-2.6-1.3-1.7-2.6.4-2.3-.7-4-2.7-2.8.3-2.7 1.5.2 5-1.1 3.1-2.1 2.3-5.8 3.6-2.8 2.5-2.4.7-2.6.8-3.1-1.4-2.1-2-1.3-1.7-1.9-1.2-2.5.6-1.1 4-.3 2.1-1.1 2.6-.9 1.8-1.2 1.6-2.4 1-3.8-.6-1.3 2.8-1.8 1.8-2.5 1.3-7.3 2.5-1.1 4.2h-4.6v-.9l.9-2.3 1.2-1.9 1-.9.7-1 .2-.8-.6-.5-.5-.9-.4-.3-4.4 2.9h-1.3c0-.1-2.4.1-2.4.1l-1.4-2 .7-2.5 3.9-2 2.7-.8h3.6c0 .1 2.7-2.3 2.7-2.3l1.7-1.9.7-1.4.4-1.4-.2-1.4v-3.9l-.2-2 .8-1.6 1.3-1.6 1-.4h2.5l1.8.2 1.4-.2 14.7-4.3.9.3 2.3.2 2.3.5 1.7 1.1 1.3.6 1.5-.8 3.5-6.7.7-2.1 1.1-2.5 2.7-4.5 1.4-2.9 2.8-4.4.3-.9-.4-1.8h-1.9l-1.5.4-2.4-.3-4.6-1.1-1.2-1.5.3-2.9 1.5-5.3 1.3-1.8 3.5-2.1 2-.8 1.8-.5 1.9-1.5-.3-1.1-3.2-2.9-.2-2.8 1.2-1.2 2.8-1.3 3.4-3.5.3-8.4.5-3.8v-3.1l1.3-6.3v-2.6l.5-3-1.6-3.1-1.6-5.2V338l-.4-1.7-1.4-1.8-2.4-2.3-3.1-1.5.9-3.1v-3.2l1.7 1.6 2.1 1.3 1.6 1.6 3.9 2.7 3 4.9.4 3v8.6c.1 0 1.8 4.1 1.8 4.1l2.7 4.6.2 1.4-.3 3.6-2.9 2.4-1.8 2.7v2.1h-.1Z"/><path id="EG-AST" d="M289.4 254.9h-2l-.8-1.7-.9-.9-.8-1.8-.8-1-1.6-.2-1.5 2.5-2.3 1.4-1.1.9-.6.2-2-3.3-3.3-7.2-1.5-2.5-2.4-1.4-3.4-.6-.9-.5-5.4-5.1-1.2-.7-1-1.5-.5-1.9-1.2-1.7-.9-1.8-.4-2.3-.9-.4-.2-1.7-.7-.7v-2h3.7l3.8.8 1.4-1.2 2.5.2-.6 3.1.5 4.2.5 1.4 1.3 1.6 3.9 1.5 1.2 1 3.5 1.4h1l3.1 1.7 1.2 4 6 4.7 1.3 2.8 2.1 3.4 1.3 3.4.5 2.2Z"/><path id="EG-BA" d="m458.1 386.9.2.9-.2.2-.2-.2.3-.3v-.7ZM384 257.3l.4.5h.5v1l.3.6v1c-.1 0-1-1.2-1-1.2v-.5l-.6-.7v-.2l.4-.4Zm-2.6-22h.4l.5.7v.7l.4.5.2.9h-.5l-.3-.2-.2-.5-.6-.4-.4-.7v-.2h.5l-.2-.6.2-.4Zm1-12.3h1.3c0 .1.7.9.7.9l.6.2.4.4h.5l.7 1.5.2.7v.3h-.7v-.2c.1 0-.4-.7-.4-.7h-.5v-.3l-.8-.8h-.7l-.6-.5h-.6l-.6-.8h.3v-.4l.2-.2Zm-6.7-4 .5.4-.2.8.2.3.9.4v.2l-.5.7h-.5c0 .1.2 1 .2 1l-.7-.8v-.2h.5v-.2l-1.5-.7.7-1.8h.3Zm1.3-1.7.3.4.3.2v.6c.1 0-.2.9-.2.9l-.5-.4-.5-1v-.5c.1 0 .6-.2.6-.2m.4-.8-.5.7h-.4v-.2h.3v-.4h.6Zm-8.5-4.7.4.2v.2l.1.3h-.1c0-.1 0 0 0 0v.6c.1 0-.2-.1-.2-.1v-.3l-.6-.4.5-.6Zm-83.8-57.9 4 .6 4 1.6 5.8 1.4h1.1l1 1.9 4.6-.9h5.9l7.2-4.5 3.8-1 3.5-2.1 4.8-.2.4.7v.7l-.2.6-.9.7v.2h-.3l-.4.6.3.5v.5l-.3.8v1.3l1.6 2.1.8 1.9v.5l.3.4v.3l.7.7.8.4.4 1.2.5.6.3.2h.7l.7.4.8 1 .5 1.5.4.4v.9c-.1 0 .3.5.3.5l.2.9v1l.3.2.2.6.4 2.3-.2.6v.2c.1 0 .9.4.9.4l1.8.5.9 1.4.3.2h.3l-.1.4.4.6 1 .2v.6c.1 0 1 .6 1 .6l1.1 2.8.3.4h.3l.5 1 1.3.6v1.8c.1 0 .6.5.6.5v.6l.7.5h.3v.3l.3.2.2 1 .8.8v.5c.1 0 1 .5 1 .5l.4.6 1 1v1.3c.1 0 .6.1.6.1h1v.4l.7.9 1.4 1.1v.8l.2.7 1 .2v.4h.3c0 .1.2.3.2.3l1.2-.2h.4l.3.6h.5l.3.6.5.4 1.1.5 2 3 .3.9.2.2h.1c0-.1 0 0 0 0h.3l.3 1.3.4.6.5.2v.5h-.1v.2l.1.4v.4c-.1 0 .1.9.1.9h-.4l-.2.2-.3-.6v-.4l-.3-.3-.3.2h-.4l-.6-.7h-.4l-.2-.3h-.6l-.5-.3-.3.2-.3.6v.6l.3.4h.4l.5.8v.6l.4.1.3.8h.7c0-.1.7-.6.7-.6l.2.3-.9 2.3h.4c0 .1-.1.7-.1.7l.2.3h1.1v.7l.3.2v.2l.4.3v.3h-.3l-.3-.9-.4-.5-.4-.3-.3.2.3.7-.7-.5-.2-.5h-.3c0-.1-1.2.9-1.2.9l-.2.5h-.2v.3l.8.2.3.3 1 1.3.3.7h.2l.1 1.1-.2.9v.8c.1 0 1.4.2 1.4.2l.5 1 .7.2.3 1.3.3.6.7.4.2.5h.2l.5.6v.4l.4.4v1.1l-.2.2v-.4l-.2.4h.4v.8l.5.2v.5c-.1 0 0 .3 0 .3l.5.2.3.6h.3v.3l1.2.3v.4h.3l.9.8.8.2.3.3h.6v.1h.4l.4.6.3.2v.4l-.4.4.5 1.1-.5.2-.5.7v.6l.2.2v.4l-.1 2 .2.4h.4l.4.6 1.1.3.6.8.2.8-.5-.2-.3.4.2.6.9 1v.2l-.5.3.9.5.2.6h-.2l.2.1.5 1.5.8.7.3.7c0 .1.3.5.3.5l.5-.5h.5l-.3 1 .3.7.3.2v.5l-.5.1h-.2l-.6-.8h-.2l-.2.1-.4 1-.4.4.3.9-.2.5-.4.3.3 1 .3.3v.4h.2l-.5.3v.4c0 .1-.1 0-.1 0v.4c-.1 0 0 1 0 1l-.3.9v.5c.1 0 .6.7.6.7l1 .4v-.2l.4.6.6.2.2.5.8.4v.6l.4.7v.4l.3.1v.7h.1l.5.6v.5l.8.8-.2.3h.2v.4l.4.9v.6l1 1.7.2.8.8.5.3.8 1 1.5h.3l.6 1 .2.7v1.1l.7 1v.2l-.1.2.4.5.2 1.3.9 1.3.2.9.8.7.4 1 .6.4v.6h-.1v.2l.8.7 1.7 4.4.3.3 1 .5.3.7h-.2c0 .1.2.4.2.4h.5v.5h.2l.5 1.1v1l.4.5-.3.3h.3l.2.7.3.3v.2c-.1 0 .9.1.9.1l.4.3.6 1.4v.6l.3-.1.4.5.6.3.3.5.6.4.3 1-.2.4h.3l.3.6h.4v.8l-.2.4h.2v.4l.6.4v.3c-.1 0 .2 1.2.2 1.2l.4.7 1 .7.5.7.2.9v1.1l.4.8v.2c-.1 0 .5.4.5.4l.5.7v1l.4.6h.2v.7l.2.2v.7l.3.8 1.2 1.3.4 1-.2.4h.2l.2.4v.5c-.1 0 0 .5 0 .5l1.1 1.2.6.9.2.5v.4l.6 1.2-.2.3h.3l.3.4 1.1 1.1.2.8.8 1.2.3 1.4.9 1v.5l.5.8v.5l.4.3.3.6.5.4v.8c.1 0-.3.9-.3.9v.5h.2v.3l.9.9h.2l.2.7.6.7v1.4l.3.2v1.5l.8 1 .9.7.3.7h.3l.5.8h.3l.7 1.8-.3 1.4.3.6.8.2-.2.3-.2.8v.3h.3l.5.6-.3.5h.2v-.1h.5l.6 1.4.9.6v.3h-.2l-.6.4v.6c.1 0-.4.5-.4.5v.5l1.3 1.4h.6l.4.4v.5c.1 0 .5.4.5.4l-.2.3.3.2 1 1.8.5.4h.6c0 .1.2.7.2.7l1.3.8h.4v-.2h.5v.5l.3.7.7.6h.3l.6.4v.3l.2.5 1.4 1.7.4.8v.7h.3v.4l.3.2-.3.5.2.5 1.5 1.8 1.1.8v.2c-.1 0 0 .6 0 .6l.2.2h.5c0-.1-.2-.8-.2-.8l-.8-.5h.7c0-.1 1 .9 1 .9h.6l.6.3 1 .9.5 1 .2 1.3v.8c-.1 0 .4.1.4.1l1 .6 1.3-.2 1.6.4 1 .5 1.1.9.4.7.2 1 .4.5.5.3-.2.6-.9-1.6-.7-.3h-.3l-.4.3h-.4l-1.4 1h-.5l-1.4-.9-1.3.2-.8-.2-1-1.1h-.5l-1 .7.4-.4 1-.4-.6-.4-1.3-.4-.6.2v.8h.2v.2h-.3v.3l-.5.7-.2-.3h-.1v.3l.3.2v.2c-.1 0 0 .3 0 .3h.1v1.8c-.1 0 .1.5.1.5v-.8.7l-.1.5h-.2l-.1.2.2 1.2-.3.5v1l.3.1v.5h.5l.3-.8h.5l.2.6v.7l-.3.2h-.1v-.6h-.2v.2h-.6l.1.4.5.3.2 1.3v1.2h.1v.2c.1 0 0 .7 0 .7v1.5h-.2l-.3-.8-.3.2v.9h.3v-.4h.1l.2 1.4.3.6-.4 2h.1v.1l-.4 1v-.2l-.2.1h.2v.4h-.3c0 .1.1.5.1.5v-.2h.1l.2 1.3.4.3.2.4h.2l.7 1 .3 1v.2l.2.3v.9l.2.3v-.2l.1.1v2.4l.2 1.2h.2l.4 1.2v.6c-.1 0 0 1.4 0 1.4l.7.5.3 1 .6.7.4.8-14.5 13.7-2 1.8-10.5-3.1-10.5 24.3-21.4 3.9-3 8.8h-83.2l-3.2-.2h-16.7l1.1-4.2 7.3-2.5 2.5-1.3 1.8-1.8 1.3-2.8 3.8.6 2.4-1 1.2-1.6.9-1.8 1.1-2.6.3-2.1 1.1-4 2.5-.6 1.9 1.2 1.3 1.7 2.1 2 3.1 1.4 2.6-.8 2.4-.7 2.8-2.5 5.8-3.6 2.1-2.3 1.1-3.1-.2-5 2.7-1.5 2.8-.3 4 2.7 2.3.7 2.6-.4 1.3 1.7 2.5 2.6 2.4.4 1.1-1.8-.2-3-2-3.2-3-2.1-.9-.9-2.7-.2-3.1-3v-1.1l1.2-1.3 1.1-1.8 2.4-2.7.9-1.8.6-2 .7-1 .2-1.2-1.4-3-1.4-.3-.9-3.1V399l.3-2 .5-.9.6-.7v-1.7h.1l-1-.4-.2-4.1-1.3-1.5-1.5-.8-.9-1.6-.5-2.9-1.1-1.9-.8-1-.3-2.7-.7-1.7v-5.4l.9-3.2v-2.1c.1 0 1.9-2.7 1.9-2.7l2.9-2.4.3-3.6-.2-1.4-2.7-4.6-1.7-4.1V337h-.1v.2-.2l-.4-3-3-4.9-3.9-2.7-1.6-1.6-2.1-1.3-2.4-2.1-1.4-2.2-.7-2.3v-4.8l.7-1.6 1.5-1.6 1.7-2.8 5.2-3.4 1.8-2.8 1.6-4.9.2-1v-3.2l-.3-3.1-1-2.2-.6-2-1.3-2.1-3-2.1-4-.9h-5.5l-2.2.8-4.5 3.2-1.3.7h-1.5c0 .1-1.8-.7-1.8-.7l.2-1.5h-.3c0-.1-1.8-2.6-1.8-2.6l-.9-2.3-1.6-1.2-3.6-1.1-2.4-1.5-.7-.8-1-1.6-1.1-3.2-.4-2.7-1.5-.5-.9-1.1-.4-1.4-1.8-2.3-5.2-4.4-2.3-.9-.4-.3-.5-2.2-1.3-3.4-2.1-3.4-1.3-2.8-6-4.7-1.2-4-3.1-1.6h-1l-3.5-1.5-1.2-1-3.9-1.5-1.3-1.6-.5-1.4-.5-4.2.6-3 .3-3-.2-4.3-1-3.3-.4-5.3-3-6.9-.7-7.4.7-2.5 3.2-5.2v-6l1.2-3.3.4-1.5-3.3-.4 2.5-.8.6-3.3 2.7-4.6 1.9-.8 2-3.4 1.3-1.9 2.7-3.2v-2.9c.1 0 1.7-1.3 1.7-1.3l.2-4.1 4.3 4.2 2.8 4.3 2.9 2Z"/><path id="EG-BH" d="M239.7 41.1v.2l-.7.1v.5l.1.2.5-.3.6.3-.3-.5.4.5h.3l-.6-.5h.7c0-.1.6.3.6.3l1.2.5.4 4.4 2.5 2.9v6.2l3.3-.3 4.8 4.5v2.5l1.4 1.1v2.4c-.1 0 .6.3.6.3v2.4l-.5.6.9.4.3.4v.6l.8.8-.5.8-.8.7v1.5l.6.2v1.5c-.1 0-.4 1-.4 1l.3 1.1h.8l-.2 4.1v.4h1.1l-.4 1.6 1.1.8-.2 1.6.5 1.4v5.3h-1.2c0 .1-.1 1.8-.1 1.8l-6.2 6.4-2.4.3-6.6 6.7-4.3 5.9-.7 1.2-.7.4-1.4-2.8-1.5-1-2.5-.5-6.8-5-1.8-.9-5.7-4.5h-3.8c0-.1-2.8-1.5-2.8-1.5l-1.1-1.8v-5.1l1.3-3.8 1.3-1.9 1.6-.2 3.5-1.1 4.4-2.1 4.5-6.8-5-5.8-2-3.4 1-1.9.6-2.5-2.1-1.8 2.9-2.4 4.1-2.4 1.1-2.8 1-1.6v-2l1.3.3v.2h1.4c0-.1.1 0 .1 0h.1c0-.1 0 0 0 0h.5c0-.1 0 0 0 0V51h.7l2.1-1 1.7-1.5.9-1.2 1.1-2.4 1-3.1.4-.4.7-.2Z"/><path id="EG-BNS" d="m213.6 167.9 1.6-2.1.9-7.8 1.3-5.4 7.7 1 9.6 1.8 1.9 1-.2 1.5.9.4h1.3l20.2-5.7 8.2-12.7 2.5-1.8v.3l.5-.7 2.1.9 2 .5.9.6v3.9h.1l-.2 4.1-1.6 1.3v2.9c-.1 0-2.8 3.2-2.8 3.2l-1.3 1.9-2 3.4-1.9.8-2.7 4.6-.6 3.3-2.5.8-2.6-1.8-2.2-1.3-39 1.2-2.3.2Z"/><path id="EG-C" d="M299.7 98.9v3.2h.1l1.1 3.8 1.7 12.1v3.9l-2 22.8-.7 12.8h-1.1l-5.8-1.4-4-1.6-4-.6-2.9-2.1-2.8-4.3-4.3-4.2v-3.9c-.1 0-1-.6-1-.6h-.5c0-.1-.2-1.5-.2-1.5l.2-1.3.3-.7.7-.5.3-.6v-1.5l.8-1.3.3-4.5.7-.5v-1.8l-1-.9v-2.4l1-.1v-.7l.1-6.9-2.4-.8-.2-1.6-.8-1.5.8-.6v-5.2h-.1l1.7.2 1.7-1.5 3.9-1.6 4-.3h4.1l2.8-1.7 5.6-3.9 1.5 3.5Z"/><path id="EG-DK" d="m278.6 39.1 5.4 3 1.7.7h1.4v1.7l-2.8 1.3v1.4h2.2l1.6-.3v1.8l1 .2 1.1.6.9.8-1 5.7 6.5-3.4 1.5-.3 1.7.2.4-.2.3-1h.4l-.3 1.3h2.5l.2-.4.9.7 1.2.2.4.6.2.7-.3 1L307 57l-.4.7v.7l.4.2h-.2l-3 1.2-4.6.7H296l-1 1.6v1.8c-.1 0-2.7 2.7-2.7 2.7v2.6c-.1 0-2.2.2-2.2.2v1.5c-.1 0-1.3.6-1.3.6l-.2 1.3-7.9.2-1.2 1v5.8l.8.7-.8 2.1-1.8 1.8h-1l-1-1.7-.8-.5c0-.1 1.1-1.2 1.1-1.2v-3.1c-.1 0-.7-.3-.7-.3v-.9l-.8-.9-.3-3 .2-2.3.8-4.5.9-1 .7-.4.9-2.1-2 .3h-1.9l.3-1.4.6-1v-2.7l1.5.3.6-.5-.2-1.5v-9.5l-.5-.9V43h-1v-1.9l.8-.8h1.1V38l1.9 1Z"/><path id="EG-DT" d="m304 43.5.8 1.2 2.1 1.8 1.4.9 1.9 1 1.2.9h.3l.3.5h-.6l-3.2-1.7-2.2-1.8-.8-.4-.8-.2h-.6c0 .1.1.4.1.4l.7.3v.2l-.9-.2-.4-.5.7-.6v-1h-.4v-.5l.3-.3Zm-3.7-2.5v.7c.1 0 0-.3 0-.3zm-.2-.9-.4-.3zm1.1 0 .3.7-.3.4h-.3l-.3-1-.4-.3v-.3h.1l.6 1-.3-1.1c0-.1.2 0 .2 0l.3.7Zm.2-.9.9.5.7.8 1.1.9.2.9-.3.3.2-.6h-.2v-.1l-.3-.5-.2-.2v1.1l-.1-1.2v.5l-.2-.6-.5-.5h-.1l.8 2.3v-.5c.1 0 0 .5 0 .5l.3.6-.9-1.3-.3-.7-.4-.2v-.7c-.1 0-1.3-1.3-1.3-1.3h.4Zm-2.2 10-.4.4zh.1l-.6 1.2h-.5c0-.1-.1.9-.1.9l-.5-.3v.3l.3.4h.4v.1h-.6v.5l.3.2-1.6.4-6.5 3.4 1-5.7-.9-.8-1.1-.6-.9-.2v-1.8l-1.7.2h-2.2V46l2.8-1.3v-1.6l2.8-.4 3.4-.9 1.3-.5v-.5c.1 0 0 1.3 0 1.3h.3l.6.6-.2-.3V42l-.3-.2v-.3l.2-.3v-.3h.2l1.4-.7 1.6-1.2.2.2h.9l-.4.2-.4.4-.2.6.5-.2-.3.8.8 1.1v1l.2.6-1.1-1.4h-.3v-.6l-.6.6v1l.8-.5v.3h.4v.3c.1 0 0 .4 0 .4l.4.6h.8l-.5.4-1-.2-.2.4.2.4v.3c-.1 0 .2-.1.2-.1v.4l-.8.2.5.3h.3v.3l.7.3h.3l.3-.1.2.3-.6 1.9Z"/><path id="EG-FYM" d="m217.4 152.5 5.7-6.5 1.9-.9 6.2-7.4h1.3c0-.1 5.6-6.5 5.6-6.5l3.3-.9 7.1-4.7 1.5-.3 2.3-1.4 1.3-1.1v-1l12.7-.1-.3 3.7.7.9 1.2 2.5.7 4.5.7 3.1.2 1.4-2.5 1.8-8.2 12.7-20.2 5.6h-1.3l-.9-.3.2-1.5-1.9-1-9.6-1.8-7.7-1Z"/><path id="EG-GH" d="m268.5 79.7-.4-1.1h-4l-.3-.7h-1V77h-2.2v.9c-.1 0-3.3.4-3.3.4h-.8l-.3-1 .3-1v-1.5c.1 0-.5-.2-.5-.2v-1.5l.8-.7.5-.8-.7-.8v-.6l-.4-.4-.9-.4.5-.6v-2.4l-.8-.3v-2.4c.1 0-1.3-1.1-1.3-1.1v-2.5l.5.5 1.7 3.1h1.1l.3 1h4.2l.3-1.7h4.7v-5l5.5-.3h2.4v2.8l-.6 1-.3 1.4h1.9l2-.3-.9 2.1-.7.4-.9 1-.8 4.5-.2 2.3.3 3 .9.9v.9l.5.3v3.1c.1 0-1 1.1-1 1.1l-3.4-1.6h-2.8v-.9Z"/><path id="EG-GZ" d="M274.2 104.2v5.2c.1 0-.7.6-.7.6l.8 1.5.2 1.6 2.4.8v6.9l-.1.7h-1.1v2.6l1 .9v1.8l-.8.5-.3 4.5-.7 1.3v1.5l-.3.6-.7.5-.3.7-.2 1.3.2 1.4-1.6-.4-2.1-.9-.5.7-.3-1.7-.7-3.1-.7-4.5-1.2-2.5-.7-.9.3-3.7h-12.6c0 .1-.1 1.1-.1 1.1l-1.3 1.1-2.3 1.4-1.5.3-7.1 4.7-3.3.9-5.6 6.4H231c0 .1-6.2 7.5-6.2 7.5l-1.9.9-5.7 6.5-1.3 5.4-.9 7.8-1.6 2.1-1 3.9-1.4 2.6-1.1 3-1.4 4.8-1.1 5-2.1 2-2.3 1.8-4.2 2.8-3.4 3-2.3.6-2.3 1.8-3.4 1.2-3.7 2.8-2.8 1.4-4.8 1-2.8 1.8-.7 1.6-.4 2-.5 1.6-2.1 4.5h-50.9c0 .1-.6.1-.6.1H117l18.3-40.8 37.6-9 29-28.5 5.8-7.4 5.9-1.5 20.3-13.5 2.8-.4.7-.4.7-1.2 4.3-5.8h.8-.8l6.6-6.7 2.4-.3 6.2-6.4h1.3c0-.1.6-.6.6-.6h1.9v3h1.3l.8.7v1.6l.9.8 1.5.3.7-.8.8.5.7.2 1.7-.7 1.5 2.5 2.2 1.3h.8Z"/><path id="EG-IS" d="M312.9 58.7v.2l2.5-.4.6-.7.9.2.5 1.4 2 .2 1.7.9 2.9 1 2.7 1.7 2.8.7 1.2 21.9 4.4 7.2 1.3 3.5.7 2.5-5.1-.2-4.1.5-1.6 1.3-5.5-.4-2.4-.7h-16.7l-1.7.3v-.7l-1.5-3.5-.9-4.4-.4-4.1-1.5-.8-.2-1.5h2l.4.9 3.4.2.5-.8 4.5-.3.2-.8 4.3-6v-2.4l-.9-3.5 1.6-3.7.2-1.7h1.5l-.2-5.1h-1.8l-.6-1.2-.6-1 1-.6-.2-.5v-.4h1.2v-1.7l.3-.4h.4l.2.3v1c.1 0 0 .6 0 .6l.5.2v.5l-.4.6Zm1.7-6 .3.4.5-.3.4 1.5v.3c-.1 0-1.5-.6-1.5-.6v.4c-.1 0-.5.3-.5.3l-.3-.4h-.4l-.5-.1-1.1.3-.9-1v-.3h.5v-.4l.4-.1h1.7l.3.3 1-.4Zm-1.3-2.4 2.5.7-.3.3-1.4-.4-1-.6h.1Z"/><path id="EG-JS" d="M339.2 114.4h1.7l.2-.2c0 .1 5.9-.3 5.9-.3l8.8.3 7.5 1.1.9.3h3.8l7.4 1.7 1.6.8 10.2 6.6 3.2 1.1 3.5.8 5.4 3.3 3.2 1 2.4 1h1.3c0-.1.3.1.3.1l3.5.5 3.1.3 3.3.7h3.4c0-.1 2.1.4 2.1.4l-.5.4h-.4l-.8.3v.4c-.1 0-.4.1-.4.1l-.2 1.3-.4.6-.3.2h-.2c0-.1.2.3.2.3l-.7.5v.5h-.3v.8l-.2.4h-.6l-.1.2v.9c-.1 0-.4.4-.4.4h.1l-.6.2-.4.6v.4l-.5.3.2.7-.2.6v.8l-.3.6.3 1.2v.8l-.4.8-.3.2v.7c-.1 0-.8.1-.8.1l-.4.3v.7l-.3.9v.2l-.4.8.2.5-.4.8v.9c.1 0-.3.8-.3.8l.4.3v.5l.4.4v1.5l-.6.4c0 .1-.6.2-.6.2l-.5.5v.8l.3.4v.3l-.2.2.3 1.2-.2.7.2.9v.2c-.1 0-.7.1-.7.1l-.4.6v.7c.1 0 0 .3 0 .3l.2.2v2.1l-.3.5v.5l.3.6-.8 1.7-.9 1.1v.5l-.4.3.2.6-.2.2v.4l-.9.6-.3.6v.8l-1.1 1.2-.3 1.7.4.8h-.2l-.2.9-.2.4h-.4c0-.1.3-.2.3-.2v-.2h-.8l-.5.9v.6l-.6.4v.7l-.4 1.1v.7l-.2.4v.5l-.8.7v.5l-.5.6v2.3l.3 1-.2.8.4.8v.2l.3.2-.2.3.4.3v-.2l.4.4c0 .1.2.1.2.1v.5c.1 0 .1 1 .1 1l-.4.5v1.1c.1 0 0 .2 0 .2v.8l-.4.4v.7c.1 0 .5.3.5.3v1c-.1 0 .1.5.1.5l-.4 1.9h-.3v.6c.1 0-.3.5-.3.5h-.7l-.3.5h-.3v.6l-.7.4v.7h-.6l-.3.3-.5-.2h-.2l.1.3-.2.6v.4c.1 0-.2.2-.2.2v.6c.1 0 0 .2 0 .2v.7h-.7l-.3-.7h-.2v.2h.2l-.2.4v-.4c-.1 0-.6.2-.6.2l.2.7-.3.6h-.3l.2.4-.4 1.1-.7.2-.2-.4-.4.3-.4-.3v.2h-.3v.5l.6.7h1.4l-.2.5.4 1-.3.2-.3-.4.2.5h-.2c0 .1-.2 0-.2 0v-.5l-.5-.3-1-1.5-.4-.2-1-.3-.2.2-1-.5h-1.5l-.4.3v-.3c-.1 0-1.6-.7-1.6-.7l-1.1-1.4-.6-.4-.9-1.5h-.8c0-.1-.1-.3-.1-.3h-.5l-1.4-2h-.3l-.6.2h-.7l-.7-1.1-1.5-.7-.4-.7h-.3v-.3l-.5-.6h-.4l-.7-.4v-.4l.2-.4-.3-.6h-.7v-.3l-.8-.6h-.4l-.2-.2.2-.3-.2-.5-.7-.7-.4-1-.5-.3-.2-1.4h-.6c0-.1-.1 0-.1 0v-.3l-.4-.1-.4-.4v-2.1c-.1 0-.6-.6-.6-.6h-.2v.4l-.6-.6v-.3l-.2-.2v-.5h-.4c0-.1-.4-1.2-.4-1.2l-.7-.2-.7-.7-1.2-.5-.5-.7-.6-.4-1.7-.8-.7-1-.4-.2v-.6c-.1 0-1.2-1.1-1.2-1.1l-.2-.5v-.8l-.7-.5-1-.4v-.2l-1-.7-.3-.5-.4-.2-.3-.9-.8-.5v-.2l.5.2v-.3l-.3-1.3-.2-.2h-.8v.3l.3.3v.3l.1.2h-.2l-.2-.2-.6-1.2v-.9l-.2-.4v-.6c.1 0-.4-.7-.4-.7l-.5-1.2.4-1.3v-.8l.5-.6v-.2l.5-1.6-.6-.6-.4-1.2-.9-.8h-.3v-.2l-.2-.3-.2-.8v-1l.3-.5-.3-.5.6-1.2-.5-.9h-.2l-.2.2.2-.3h-.2l.2-.2.4-2.5-.3-.3h-.5l-.3-.7-1-.5-.3-.5h-1v-.5l-.9-.5v-.9l-.3-.3h-.1l-.1-.3-1-.8-.4-.7h-.4v-.3l-.8-1-.9-.2-.9-1.7-.6-.2h-.5c0 .1-.7-.7-.7-.7l-.9-.5-.4-1 .2-.7-.4-.7v-.2l-.5-.5h-.4l-.2-.6h-.4v-1.5l-.6-.5.2-1.1h.2c0-.1-.3-1-.3-1l-.3-.3h-.5c0-.1-.6-1.1-.6-1.1h-.5l-.9-.5v-.3l-.2-.2v-.4h-.2v.4l-.3.2v-.3c-.1 0 .2-.5.2-.5v-.3l-.3.1.2.2-.5.3.4-.9-.2-.7-.5-.4.2-.3V132c-.1 0 0-.6 0-.6h-.2v-.5h-.2l-.2-1.2-1.2-.5.5-1-.4-1.9.4-1v-.6c-.1 0 .3-.8.3-.8v-1l-.8-1.2-.3-.2h-.3l-.2-.6-.5-.6 6.2-4.7 2.3-.5v-.8Z"/><path id="EG-KB" d="m273.5 104.1-2.2-1.3-1.5-2.5-.2-4.2-.8-1.6-.4-1.7 1.1-2.4 2-1.4 2.2-1.7.5-1.1.4-4 .8.5 1 1.6h1l-1.1 1.2v2.2h-.7v2.4l1 1 1 1.3 1.1 2.1.9 2.4 1.9 1.5 4 2.4-4 .3-3.9 1.6-1.7 1.5-2.5-.3Z"/><path id="EG-KFS" d="m268.4 35.5 3.5.9 1 .5 2.2.6 1.6.7v2.4h-1.1l-.9.8v1.9h1v2.6l.5.9v9.5l.3 1.5-.6.5-1.5-.3H272c0-.1-5.5.2-5.5.2v5h-4.7l-.3 1.6h-4.2l-.3-.9h-1.1l-1.7-3.1-5.3-5-3.3.3v-6.2l-2.5-2.9-.4-4.4h1.8l2.3-.5L253 40l2.7-.7 1.7-1.1.6.2 1-.4 3-.7 1.3-.7.2.5-.2.6-1-.3-3.1.9-1.4.8-.5.5-1.7.9-2.9 1.1-1 .9-.3.8h-.5l-.7.3h-1.3l-.3.5h-.7c0 .1-1-.1-1-.1l-.8.3-.2 1.8 1.8.2h2.6l.5-1.8 1 .3 1.5 1.1.6-.7.2-.6 1.7-1.1h.5c0-.1.3.4.3.4l.6.5 1-.3 2.7.3 1-.6 2-.5 1.9-3.2 2.1.2v.9l.7.2.6-1.7-.7-.9-1.7-1.1-1.2-.5-1.7-.3.8-.4 1.4-.3h2.4Z"/><path id="EG-KN" d="m332 330.2-2.2-1.1-3.3-2.8-1.1-2.9-.4-2.7.2-1.4-.7-1.4v-2.8c-.1 0-1.7-3.2-1.7-3.2v-2.1l.9-1.8 1.6-1.7 2.4-1 2.4-2.2 1.5-1.8.6-1.4v-2.4l.5-1.4 2.6-4.2-.2-2-1.1-2-.8-.7h-2.3c0-.1-2.3.8-2.3.8l-1.7 1.3-3.8 1.5-1 .6-1.7.6h-1.7c0 .1-3.1.9-3.1.9h-4.3c0 .1-1.4-.5-1.4-.5l-4.4-3.8-2-2.4.6-1 .9-.9 1.3-.9h1.2l1.1-.4 1.2-.9.6-1h.8c0-.1 1.1.5 1.1.5l.2 1.3.6 1.5 1.5.9.9 1.2h1.1l1.2-1.5h1.5c0-.1 1.3-.8 1.3-.8l4.5-3.2 2.2-.7h5.5l4 .8 3 2.1 1.3 2.1.6 2 1 2.2.3 3.1v3.5l-.2.7-1.6 4.9-1.8 2.8-5.2 3.4-1.7 2.8-1.5 1.6-.7 1.6v4.8l.7 2.3 1.4 2.2.6.6v3.2l-.9 3.2Zm-.7-21.6.8-1.2.5-1.3.3-1.4-2.4-.2-1.2 3-1 1.1 1.7.3 1.3-.2Z"/><path id="EG-LX" d="m333 304.7-.3 1.4-.6 1.3-.8 1.2-1.3.2-1.7-.3 1-1.1 1.2-3 2.4.2Z"/><path id="EG-MN" d="m169.8 217 2.1-4.5.5-1.6.4-2 .7-1.6 2.8-1.8 4.8-1 2.8-1.4 3.7-2.8 3.4-1.2 2.3-1.8 2.3-.6 3.4-3 4.2-2.8 2.3-1.8 2.1-2 1.1-5 1.4-4.8 1.1-3 1.4-2.6 1-3.9 2.3-.2 39-1.2 2.2 1.3 2.6 1.8 3.3.4-.4 1.4-1.2 3.3v6l-3.2 5.2-.7 2.5.7 7.4 3 6.9.4 5.3 1 3.3.2 4.3-.3 3-2.5-.2-1.4 1.2-3.8-.8h-2.7V217l-80.9-.2h-1.3Z"/><path id="EG-MNF" d="M264.1 78.6h4l.4 1h-.2.2v.9h2.8l3.4 1.6-.4 4.2-.5 1.1-2.2 1.7-2 1.4-1.1 2.4.4 1.7.8 1.6.2 4.2-1.7.6-.7-.2-.8-.5-.7.8-1.5-.3-.8-.8v-1.6l-.9-.8h-1.3v-2.8h-1.9c0-.1-.6.4-.6.4h-1.3c0 .1.1-1.5.1-1.5h1.2v-5.4l-.5-1.4.2-1.6-1-.8.4-1.6h-1l-.1-.4.2-4.2 3.2-.4V77h2.3v.8h1.1l.3.7Z"/><path id="EG-MT" d="M28.3 32.5v.6l-.1.5v.4l.4.4v.5c-.1 0 .5 1 .5 1l.2 1 .3.2-.6.5h-.2l.3.9.6.5 1.2.5 3.3.7h2.9l1.2.2 2.6-.7h.8l1.1-.1 7.5-2.5 4.8-1.9 3-.7h1.1l1.9.6h1.3c0 .1.6.4.6.4h.5l.2.2 2.2.4.9.4 1.5.3.6.3 4.3 1.1 1.5.7 1 .2v.2l1.8.2.4.3h1.3l1.5.3 1.9.8 2-.3.5-.3v.4l1.2.4h2.3l2.4.3h1.7l.3.1.9.3.4.6 1.2.3.3.3.8.3h2.8l1.9-.2h.8l.3.5.5.2v.3l.3.4 1.1.3h.5l.3.2.3-.2v.7l.7.4.8.3h2.9l2.2.3h-.4c0 .1-.2 0-.2 0h-.7l-.2.1-.3-.2h-.2v.5h1.6l.2-.2v.3c.1 0 .8.1.8.1l.2-.2h.3c0 .1.1 0 .1 0l-.5-.2h1.3l2.8-.3v.2l.5.2-.2 1.1.3.6.5.5v.5l.6 1.1v.9c.1 0 1 1 1 1l1.8 1.2 1.6.3h2.7l-.2.2.8.6 2.7-.3v.5l.4.3h.5l1.2.2.2-.4-.3.3h-.2v-.3l2.1-.4 4.1-1.5.8-.8V52h.2l.4.4v.6c-.1 0 .1.3.1.3h-.2v.3l.2 1.1.9 1v.8h-.2c0 .1.1.5.1.5v.2c-.1 0 .1.4.1.4h-.1l.1.5.3.4.9.5 1.1.2 3.7.3 4.6-.3 1.9 1h2.9c0-.1 1.8.3 1.8.3l2.3-.7 2.4-.3.5.3h.2l.2.3 1.1.8h.8c0 .1.6.4.6.4h.8l.7-.2v.2h.3v.3c.1 0 1.2.2 1.2.2l.2.8.5.3 1.8.5h2.2v.2h.3v.5l.2.2.2-.2v.2h1.6l-.2.3.4.5 1 .5h1.5v1.3l.2.3.9.7 1.4.6.6.8 1.6.6v.2c.1 0 .9.2.9.2l.3.2h.3l-.2.2.4.4 1.2.2v.2l-1.2-.3-.6-.4v.2c.1 0 0-.1 0-.1l.3.3h-.3c0-.1.2.1.2.1l.9.3h.5c0-.1.4.1.4.1h.3l-.1-.3 2.1.4h2.8c0-.1 2.8-.8 2.8-.8l5.4-1.9 3.9-2.1.8-.3 3.4-2 1.2-1.1 1.6-1.2.8 30.2v5.1l1.1 1.8 2.8 1.4h3.8c0 .1 5.7 4.6 5.7 4.6l1.8.9 6.8 5 2.5.5 1.5 1 1.4 2.8-2.8.4-20.3 13.5-5.9 1.5-5.8 7.4-29 28.5-37.6 9-18.3 40.8H22.4v-72.1l-.5-.8-1.3-3.6-1.9-3.9-.4-1.4-.7-1-.9-2.4v-.6c-.1 0 .6-1.8.6-1.8l.8-1v-1l-3.1-7.3v-1.2c-.1 0 0-3.3 0-3.3l-.3-1.5-2.4-8.2-2.2-2.5.5-1.5 2-3.8.9-3.1 2.1-1.7 1-1.2 1.3-2.5 1.5-1.5.9-3v-1.5l.3-1 1-2.1.5-3.2 1-3-1.1-3.9v-.9l-.4-1.5-.7-1.1-.5-1.3-.3-1.6-1-3.1-1.4-3.2-.2-1.6.4-4.5v-2l-.3-.9-.6-.9-.3-2.5v-.5l3.2-2.5 1-1 4-2.9.3-.7.3-1.8.5-1.1 1.1-1.1.6-1.1h.6Z"/><path id="EG-PTS" d="m319.8 53.6 2.3 1.3.2.3 1.1.8 1.6 2v.4l1.7 1.5 1.3.8 1.5.4v2.7l-2.8-.7-2.7-1.7-2.9-1-1.7-.9-2-.2-.2-.6.8-.7 2-3.1zm0 0h-.9v-.5l.9.3zm-.9-1v.8l-.5-.6h.1v.2h.2l.2-.8zm-.6-2.8-1 1.6.5.4v.3c-.1 0 0 .3 0 .3l.5.2v.3l-.8 1.1-.2.6V53l-.4-1.1-.3.5v.3c.1 0-.2.2-.2.2v.5l-.2.6-.4-.5-.5-1.3.2-.4v-.4l.3-.3h1.6l.8-1.2Z"/><path id="EG-SHG" d="m297.3 260.4 1.8 2.3.4 1.4.9 1.1 1.5.5.4 2.7 1.1 3.2 1 1.6.7.8 2.4 1.5 3.6 1.1 1.6 1.2.9 2.3 1.8 2.5h.3c0 .1-.2 1.6-.2 1.6l1.8.8-1.2 1.5H315l-.9-1.2-1.5-.9-.6-1.5-.2-1.3-1.1-.6h-.8c0 .1-.6 1.1-.6 1.1l-1.2.9-1.1.4h-1.2l-1.3.9-.9.9-.6 1-.2-.2-2.2-3-.8-.3-3.9-4.8-2.1-3.1-3.1-3.9-3.7-5.4-1-1.7-1.8-1.4-2.3-.4-5-6-.5-1.6.6-.2 1.1-.9 2.3-1.4 1.5-2.5 1.6.2.8 1 .8 1.8.9.9.8 1.7h2l2.8 1.2 5.2 4.4Z"/><path id="EG-SHR" d="M305.7 59.7h1.2c0-.1.9.2.9.2v.4l.4.2.3-.2V60c.1 0 0-.2 0-.2v-.4h.7l.2.4.7.5h.6l.6 1h1.8l.2 5.1h-1.5l-.2 1.7-1.6 3.7.8 3.4v2.4l-4.2 6-.2.8-4.5.3-.5.8-3.4-.2-.4-.8h-2l.2 1.4 1.5.8.4 4.1.9 4.4-5.6 3.9-2.8 1.7h-4.1l-4-2.4-1.9-1.5-.9-2.4-1.1-2.1-1-1.3-1-1v-2.4h.6v-2.3l1.1-1.2 1.8-1.8.8-2.1-.8-.7v-5.8l1.2-1 7.9-.2.2-1.3 1.2-.6v-1.5c.1 0 2.2-.2 2.2-.2v-2.6c.1 0 2.7-2.7 2.7-2.7v-1.8c.1 0 1.1-1.6 1.1-1.6h3.2l4.6-.6 3-1.2-.2.4-.8.4v.2Z"/><path id="EG-SIN" d="m340.2 58.6.3.5v.2c-.1 0-.4-.2-.4-.2l.2.4-.4-.5v-.4h.2Zm22.8-2 .8.5-.8-.4v.2l-.2-.3zM350.7 53h1.5l3.6.6-.4.4-.3-.2-2.7-.6h-3.8v.3h-.4c0 .1.4.3.4.3v.2l.3-.1c0 .1-1.2.4-1.2.4h-.6l-1.8 1-.6.5-1.9.8v.4h-.4l-.2.3h-.3l.8-.8 2-1.1 3.2-2 1.3-.4h1.4Zm45.3.4 3.3 11 2.3 6.7 3.6 7.5 1.2 4.9V86c-.1 0 1.6 2.1 1.6 2.1l-.8 2.4v1.4l2.9 1.8.8 3.1 4.8 13.4v.7l4 11.6v2.2l.7 1.3.2.9-.6 2.5.2 1.3.2.8.5 1 1 1.2-2.1-.5h-3.4c0 .1-3.3-.5-3.3-.5l-3.1-.3-3.5-.5-.3-.2h-1.3c0 .1-2.4-.9-2.4-.9l-3.2-1-5.4-3.3-3.5-.8-3.2-1.1L377 118l-1.6-.8-7.4-1.7h-3.8l-.9-.2-7.5-1.1-8.8-.3-5.9.4c0-.1-.2.1-.2.1h-1.7v-1.7h-1.4l.1-10.3-.9-3.5h-.1l-.7-2.5-1.3-3.5-4.4-7.2-1.2-21.9v-2.7h3c0-.1 2.7-.8 2.7-.8l2.2-.8 4.5-2.7.2.6h-.7l-2.3 1.1-1.8 1.1-.5.2v.2l-.9.2-.7.4-3.2.6-.4.3h.5c0 .1.2 0 .2 0v-.3l.2.1h1.1v.6l-.7.2.4.2.9-.2.6-.6.7.3h.7l1.4-1.3h.5c0-.1.5-.5.5-.5h.6v-.3h.1l.3-.2.7.2.3-.2.6.2h.6c0-.1.4.1.4.1l.2-.2v-.5l-.4.2h-.2c0-.1-.2 0-.2 0V59l.4-.2 1.1.3.6.6h.5v.2l.4.5h-.3c0-.1-.1-.3-.1-.3h-.4c0-.1.3 0 .3 0l-.3.2.3.5-.5.2.9.4h.8l.7-.7-.3-.3-.3.2V60l.7-.1v-.3c.1 0 .8.1.8.1l.3-.2v-.3h-.3V59l.1-.5h.4V58l-1.2.2-.2.2v.5c-.1 0 0 0 0 0l-.2.3v.3c.1 0-.5-.3-.5-.3h-1.2l-.3.3-.3-.2V59h-.3l-.2-.2 1.3-.2.6-.6.9-1.6.7-.5h.5l2.3-1.4.2.3h-.5.2-.4l-.3.3.7.3v.2l.5.6.3.9.6.2.5.9-.7-.8h-.3c0 .1-.2 0-.2 0h-.4v-.5h-.2v.3h-.4v.5l.3.2v.2c-.1 0 .4.5.4.5h.5l-.3.2-.4-.2-.2.2h.2v.4l1.1.5h.6l-.7.3.3.5-.3.2h.3c0 .1-.1.3-.1.3h-.3v.2c0-.1 0 0 0 0l-.2.3h.5l1-.2.8-.5v-.5c.1 0 1.7-.2 1.7-.2l.5-.7.4.2h-.3l-.2.2.3.2.3-.3h.7c0-.1.4-.4.4-.4h.2l-.2.3h.2c0 .1 0 0 0 0h.4v-.3h-.2v-.2h.7l.2-.2h-.5c0-.1-1.2.4-1.2.4l-.4.4h-.4l1.8-.8.3-.3 2.4-.2.2-.4v-.7c-.1 0 .5-.9.5-.9l-.2-.4h.8l-3.1-1.6-1.5-.2h-.2c0 .1-.5 0-.5 0V54c-.1 0 0-.3 0-.3l.8.5 2.3.4 2.1.8 1.8 1.1h-.2c0 .1-.2-.1-.2-.1h-.5c0-.1 0 0 0 0h.3l.2.3h-.2c0 .1.4.2.4.2l.2.2v.2h.2l.2.4.4.2-.3-.4c0-.1-.1-.2-.1-.2h.1l.4.6.6.2-.6-.5h.1l.7.6.7.2 1.1.2h2.7l3-.1 1.7-.3 4.1-1.1.2-.4.2.2 2-.6 3.7-1.6.9-.2 5.7-3.3 2.1-1.6 1.4-1.3 1.6 5.2Z"/><path id="EG-TER" d="m388.7 467.5-3.3 10-17.8 2-16-12.1h37.1Z"/><path id="EG-HT" d="m491.7 455.6.9.8h-1v.3h-.3c0-.1-.3.3-.3.3h-.1c0-.1.3-.5.3-.5v-.4c-.1 0 .1-.5.1-.5h.2Zm-35.6-27.3.2.9v.3l-.5.3v-1.1l-.4-.2v-.4l.5.2h.1Zm-.9-.6v.8l-.9-.3v-.3zm-4.7-9.7h.1v.9l.4.3-.2.3v.6l.3.2-.2.4.3.2.2-.2.3.6v.6l.3 1.5v.8c-.1 0 .6 1.5.6 1.5l-.2.3v-.4c.1 0 0 0 0 0v-.4h-.4l-.2.3v.6l.6.5v-.4h.4l-.2.2h.3c0-.1.2.7.2.7l.7.7c0 .1.2.2.2.2l-.2.3.3.5h.1l-.2-.6h.2l.3.8.3.3v.3l.3.2.8 1.2h.2c0-.1-.3-1.1-.3-1.1l.9-.3.4 1.3v.3c-.1 0-.3-.2-.3-.2h-.2l-.1.5.5.4h.6l-.2-.4h-.2v-.4h.1l.5.9v.2c-.1 0 .2.2.2.2v.3c-.1 0 0 0 0 0l.6 1.1 1.8 1.8h.3l.6.3v.2l-.2.1.2.2h.4v-.2h.1l.2.3h-.2l1 .2h.3c0-.1.6.2.6.2 0 .1-.3.2-.3.2v-.2h-.3.3c0 .1-.1 1.1-.1 1.1l.7-.2c0-.1.3-.3.3-.3l.2-.5.6.7h.8l.7.4h.2c0-.1.4 0 .4 0v.2l.3-.2h.6l1.8.7h1.7c0-.1 0 0 0 0l.5.3h1.1c0-.1.2 0 .2 0v.3l.5.6 1.3.2.5.8h.5v.5l.3.5.7.5.4 1.4.2 1.3.6 1.2 1.3 1.2 1.5 1 .8.3.4-.2.5.5v1.1c-.1 0 .1.9.1.9l.5.9 2.4 1.4h.6l2.2 1.2.4.5.7.3v.2l.5.4.7.9.7.2v.5l.2.3.8.4.5.8h.6l.2.5.9.8.9.3.8-.2h.2c0 .1.1-.3.1-.3h-.2c0-.1.1-.2.1-.2l.4.6.5.3v1.2c.1 0 1.3.7 1.3.7l.6.9 1.2.4.5.5h.3v.3l-113.1 2.3 3-8.8 21.4-3.9 10.5-24.3 10.5 3.1 2-1.8 14.6-13.7Z"/><path id="EG-SUZ" d="m300 157.5.7-12.8 2-22.8V118l-1.7-12.1-1.1-3.8v-2.5h-.1l1.7-.2h16.7l2.4.6 5.5.4 1.6-1.3 4.1-.5 5.2.3.9 3.5v10.2c-.1 0 1.3.1 1.3.1v2.4l-2.3.5-6.2 4.7-.6-1-.5-.5h-.5c0-.1.9-1.3.9-1.3v-.3c-.1 0 .1-.5.1-.5v-.3l-.4-.1-.7-.9-.6-.2-.3-.8h-.3v.2l-.2.2-.2-.4h-.2l.3-.3h-.3c0-.1.2-.5.2-.5h-.2v.1-.3c.1 0 0 0 0 0l.5-.4-.4-.5-1 .3v.2l.2.4-.5-.6h-.3l.2 7-1.1 1.2-1.7 1.3-1.3 2.2-.3 2.8-.6 3.3v2.7l1.3.8.5.2.3.6 1.1.9v.4c.1 0 .9.3.9.3v.4l.2.3.9.5 1.5 1.3.3.5v.3l.2.1.2.6.3.2.4 2.1.3.4-.2.2v.4l.5.3v.6l.4.4.2.5-.2.2v.5l.3.8h-.2c0-.1 0 0 0 0l.4.3v.8l.4.2v1.1l.2.4v.7h.2c0 .1-4.8.3-4.8.3L323 153l-3.8 1-7.2 4.4h-5.9l-4.6 1-1-1.9Z"/><path id="EG-WAD" d="m171.1 217 80.9.2v1.7h-.9v2.1l.7.7.2 1.7.9.4.4 2.3.9 1.8 1.2 1.7.5 1.9 1 1.5 1.2.7 5.4 5.1.9.5 3.4.6 2.4 1.4 1.5 2.5 3.3 7.2 2 3.3.5 1.6 5 6 2.3.4 1.8 1.4 1 1.7 3.7 5.4 3.1 3.9 2.1 3.1 3.9 4.8.8.3 2.2 3 2.2 2.6 4.4 3.8 1.4.6h4.3c0-.1 3.1-.9 3.1-.9h1.7c0-.1 1.7-.7 1.7-.7l1-.6 3.8-1.5 1.7-1.3 2.3-.9h2.3c0 .1.8.8.8.8l1.1 2 .2 2-2.6 4.2-.5 1.4v2.4l-.6 1.4-1.5 1.8-2.4 2.2-2.4 1-1.6 1.6-.8 1.8v2.1l1.5 3.2v2.8c.1 0 .8 1.4.8 1.4l-.2 1.4.4 2.7 1.1 2.9 3.3 2.8 2.2 1.1 3.1 1.5 2.4 2.3 1.4 1.8.3 1.7v4.3l1.6 5.2 1.6 3.1-.5 3v2.6l-1.3 6.3v3.1l-.5 3.8-.3 8.4-3.4 3.5-2.8 1.3-1.2 1.2.2 2.8 3.2 2.9.3 1.1-1.9 1.5-1.8.5-2 .8-3.5 2.1-1.3 1.8-1.5 5.3-.3 2.9 1.2 1.5 4.6 1.1 2.4.3 1.5-.3h1.9l.4 1.7-.3.9-2.8 4.4-1.4 2.9-2.7 4.5-1.1 2.5-.7 2.1-3.5 6.7-1.5.8-1.3-.6-1.7-1.1-2.3-.5-2.3-.2-.9-.3-14.7 4.3-1.4.2-1.8-.2H293l-1 .5-1.3 1.6-.8 1.6.2 2v3.9l.2 1.4-.4 1.4-.7 1.4-1.7 1.9-2.7 2.4h-3.6c0-.1-2.7.7-2.7.7l-3.9 2-.7 2.5 1.4 2 2.4-.2h.8l.2 2-1.5 4.7H224v.3l-4.9-.2h-8.5L82 467.3H28c0 .1-5.6.3-5.6.3V217h148.7"/></g></svg>