<?xml version="1.0" encoding="UTF-8"?>
<svg id="Layer_1" xmlns="http://www.w3.org/2000/svg" xmlns:amcharts="http://amcharts.com/ammap" version="1.1" viewBox="0 0 512 512">
  <!-- Generator: Adobe Illustrator 29.1.0, SVG Export Plug-In . SVG Version: 2.1.0 Build 142)  -->
  <g id="_x3C_defs">
    <amcharts:ammap bottomLatitude="12.354723" leftLongitude="36.433348" projection="mercator" rightLongitude="43.1429694" topLatitude="18.0204137"/>
  </g>
  <g>
    <path id="ER-DK" d="M470.9,472.3l14.1-20.1,18.4-6.2-8.6-14.6-5.4,8.4-10.8-4.7-18.3-28.9-11.4.8-6.7-26.7-45.2-27.8-37.6-53.1-29.6-4.5-14.4-19.6-16.2,47.1,35.4,17.5,114.3,124.6,22.1,8Z"/>
    <path id="ER-DU" d="M252.4,309.5l-29.3-51.6-39.8,1.6-39.1,16.2-1,22.3,14,18,31.8-5.9,10.6-12,14.7,16.1,22.7-9.7,15.4,5Z"/>
    <path id="ER-AS" d="M195.9,227.3l-10.1-21.8-23.1-9-13.6-46.3-21.2-6.4-1.8-67.9-38.3,17.6-6.8,21.8-31.3-3.1-3.9,49,10.5,20.1,35.6,25.3,91.3,22.2,12.7-1.4Z"/>
    <path id="ER-SK" d="M274.8,203.7l-7.6,9.6,11.7,7.4-10.6-3.1,3.1,7.3,31.7,2-18-4.9-10.2-18.3ZM281.4,195.8l-4.7-9.3-4.5,6.9,9.2,2.4ZM169.5,39.7l-27.2,37.2-16.2-1.1,1.8,67.9,21.2,6.4,13.6,46.3,23.1,9,10.1,21.8,27.2,30.6,29.3,51.6,46.6,12.7,16.2-47.1-30.5-2.4-5.9-27.5-15.1-12.5-7.5,8.7,6,16.6-10.3,6.1-31.2-64-37.3-134.4-13.9-26.1Z"/>
    <path id="ER-MA" d="M223.1,257.9l-27.2-30.6-12.7,1.4v30.8c.1,0,39.9-1.6,39.9-1.6Z"/>
    <path id="ER-GB" d="M91.9,206.5l-35.6-25.3-10.5-20.1-37.1,100,7.5,66.5,39.5-1,17.3-13.8,19.2,26.8,25-59.1,26.2,17.4,1-22.3,39.1-16.2v-30.8c-.1,0-91.4-22.2-91.4-22.2Z"/>
  </g>
</svg>