<?xml version="1.0" encoding="UTF-8"?>
<svg id="Layer_1" xmlns="http://www.w3.org/2000/svg" xmlns:amcharts="http://amcharts.com/ammap" version="1.1" viewBox="0 0 512 512">
  <!-- Generator: Adobe Illustrator 29.1.0, SVG Export Plug-In . SVG Version: 2.1.0 Build 142)  -->
  <g id="_x3C_defs">
    <amcharts:ammap bottomLatitude="3.4041369" leftLongitude="32.997734" projection="mercator" rightLongitude="48.0010561" topLatitude="14.8942141"/>
  </g>
  <g>
    <path id="ET-HA" d="M314.9,256l.3-6.6-6.5,4.5,6.3,2.1Z"/>
    <path id="ET-DD" d="M318,238l-19.3,2.7-.9,5.6h11.3s8.8-8.4,8.8-8.4Z"/>
    <path id="ET-SO" d="M224.4,450.3l10.4-15.5,30.6-14,13.3,11.5,22.5-.2,8.9-8.1,24.3-3.7,23.3-18.1,47.2-2.3,101.4-103.6h-33.4l-100-34.2-18.9-13.7-19.5-26.9-6.3-14.4,7.5-11.8-8.6-3.8-28.3,3.4-17.2,1.7-5.6,8.9-2.1,24.7-10.9,17.2,7.3.5-2.3,4.1,14.1-6.7,15.6,1.1.9-5.6,19.3-2.7,19.1,40.9-8.2,12.5-13.2-16.3-8.1,6.4-5.2,31.1,11.8,9.7-6.8,18.8-13.4,10-19.8-9.8-5.7,7.9,2.1,24.2-13.1,9.5-17.2,1.1-18.2,49.1-12.7,13.3,14.9,3.8Z"/>
    <path id="ET-AA" d="M200.8,259.7h-1.3c0,.1-4.6,2.8-4.6,2.8l5.4,5.5.4-8.3Z"/>
    <path id="ET-BE" d="M116.2,264.6l-.2-2.1-.4,2.2h.6ZM109.9,261.6l-2.6,5.9,7.3,2.2-.6-6.1-4.1-2ZM121.1,248.6v-3.9s-1,6.2-1,6.2l1-2.3ZM98.5,159.2l-11.8,8.7-5.4-5.9-6.9,7.2-3,29.9-6.2,6.4-6.9-6.7-9.3,10.6-6.6,46.1h9.4c0,0,3.4-14.7,3.4-14.7l7.6,1.6,6.1-14.7,13.5,3.5,26.9,26.5,6.2-11.5-4.7-19.4,12.5-9.6,2.9,4.4,15.2-3.3-22.6-6.5-1.9-11.2,6.5-17.8-5.5-15.4-6.3,4-12.9-12.2Z"/>
    <path id="ET-AA1" data-name="ET-AA" d="M196.6,226.7l5.4-10-12.2-.8-2.6,7.8-23.9,10.1-21.9-15.6-15.2,3.3-2.9-4.4-12.5,9.6,4.7,19.4-6.2,11.5-26.9-26.5-13.5-3.5-6.1,14.7-7.6-1.6-3.4,14.7h-9.4c0,0,.8,20.3.8,20.3l25.7,14.2,7.1.5-6.6,3.6v9.1s7.1,10.2,7.1,10.2l5.3-1.9,3.1-10.2,12.9-.9,3.1-7.2,7.1,17.3,35.4,11.3,9.6-5.7v-20s7.4,1.1,7.4,1.1l-3.3-15.3h24.1c0,.1,4.1,5.2,4.1,5.2l6.9-6.5,3.6,12.2-4.4-4.7,2.4,7.2-6.3,16.6-12,14.5,18.1.6,1.2,10.2,14.9,8.5,1.4,12.2-21.6-9.1-6.5,14.1,3.3,3.1-5.3,1.8-4.9-9.7,6.9-9.2-13.7-5.4-3.2,19.1,10.2,9.8-4.9,3.2-1.5,13-31,2.1-10.8,25.3,12.2,2,36.3,25.4,33,3.2,12.7-13.3,18.2-49.1,17.2-1.1,13.1-9.5-2.1-24.2,5.7-7.9,19.8,9.8,13.4-10,6.8-18.8-11.8-9.7,5.2-31.1,8.1-6.4,13.2,16.3,8.2-12.5-19.1-40.9-8.8,8.3h-11.3s-15.6-1.1-15.6-1.1l-14.1,6.7,2.3-4.1-7.3-.5-21.9,20.3-7.6-10-1.7,9-14.9,2.7,2-12.1-4-4.8,8.6-1.6-21.7-13.9-5.1-10.3ZM120.1,250.9l1-6.2v3.9s-1,2.3-1,2.3ZM199.5,259.9h1.3c0-.1-.4,8.2-.4,8.2l-5.4-5.5,4.6-2.6ZM114,263.5l.6,6.1-7.3-2.2,2.6-5.9,4.1,2ZM115.6,264.7l.4-2.2.2,2.1h-.6ZM315.2,249.4l-.3,6.6-6.3-2.1,6.5-4.5Z"/>
    <path id="ET-GA" d="M68.8,290l-25.7-14.2-11.9,7.9-17.2-2.9-8.2,18.2,24.2,8.8,16,18.8,37.9-1.2-2.2-13.7-5.3,1.9-7.1-10.2v-9.1s6.6-3.6,6.6-3.6l-7.1-.5Z"/>
    <path id="ET-SN" d="M195.6,293l-3.6-12.2-6.9,6.5-4.1-5.1h-24.1c0-.1,3.3,15.2,3.3,15.2l-7.4-1.1v20s-9.6,5.7-9.6,5.7l-35.4-11.3-7.1-17.3-3.1,7.2-12.9.9-3.1,10.2,2.2,13.7-37.9,1.2,17,13.9,20,44.6,16.8,1.3-1.8,15.5,6.3,11.6,23.6,2.6,10.8-25.3,31-2.1,1.5-13,4.9-3.2-10.2-9.8,3.2-19.1,13.7,5.4-6.9,9.2,4.9,9.7,5.3-1.8-3.3-3.1,6.5-14.1,21.6,9.1-1.4-12.2-14.9-8.5-1.2-10.2-18.1-.6,12-14.5,6.3-16.6-2.4-7.2,4.4,4.7Z"/>
    <path id="ET-AF" d="M251.6,80.5l-11.8-4.1-11.1,4.5,5.1,13.6-2.2,35.5,4.6,4.6-3.7,14.9,13.9,42.6-2.2,33-4.7,1.3.8,11.4-5.4-.4-1.4,20.4,7.6,10,21.9-20.3,10.9-17.2,2.1-24.7,5.6-8.9,17.2-1.7.9-24.3,19.6-26-51.6-56.2-16-7.9Z"/>
    <path id="ET-TI" d="M169.4,61.7l-11.3,26.7-8.7-12.1-9.6,6.7-14.7-1-4.2,17.8,20.5,13.9,47.1-7.4,18.4,19.6h7s1.6,24,1.6,24l16.9-.4,3.7-14.9-4.6-4.6,2.2-35.5-5.1-13.6,11.1-4.5-16.2-3.9-10.2,4.4-6.6-7.3-19.5,8.1-9.8-9-8.1-7Z"/>
    <path id="ET-AM" d="M141.5,113.6l-20.5-13.9-10.8,36.8-14.3,1.5-14.7,24,5.4,5.9,11.8-8.7,12.9,12.2,6.3-4,5.5,15.4-6.5,17.8,1.9,11.2,22.6,6.5,21.9,15.6,23.9-10.1,2.6-7.8,12.2.8-5.4,10,5.1,10.3,21.7,13.9-8.6,1.6,4,4.8-2,12.1,14.9-2.7,1.7-9,1.4-20.4,5.4.4-.8-11.4,4.7-1.3,2.2-33-13.9-42.6-16.9.4-1.6-24.1h-7s-18.4-19.6-18.4-19.6l-47.1,7.4Z"/>
  </g>
</svg>