<svg xmlns="http://www.w3.org/2000/svg" xmlns:amcharts="http://amcharts.com/ammap" id="Layer_1" viewBox="0 0 512 512"><g id="_x3C_defs"><amcharts:ammap bottomLatitude="13.038" leftLongitude="-16.814" projection="mercator" rightLongitude="-13.793" topLatitude="13.825"/></g><g><path id="GM-N" d="m260 246.8-9.8-7.2-1.2-15.1-21.7-2.6-3.4 10-173.8-.7.8 17.4 8.8 11.8-3.1 9.9 21.9 3.8 41.5-20.2 61.9-1.8 35.6-10.8 34.1 12.3 8.3-6.8Z"/><path id="GM-W" d="m18.1 320.6 13.4-17 140 1.3 1.5-15.7-54.5-6.1-5.7 4.4-7 .4-5.1-11.8-30.3 8.3 10.4 10.5-6.9 1.2-1.7-9.2-20.7-5.8-6.9-15.3-18.1 8.1-9.8-11.5-11.1 11.4 12.7 46.8Z"/><path id="GM-L" d="m280.1 235.9-19.8 10.9-6.8 9.5-33.8-11.8-12.9 9.4-90 4.5-11 16.3 4.6 12.8 8-4.2 54.5 6.1 2.9-15.6 88.3-6.9 15.9-30.8Z"/><path id="GM-B" d="m44.5 265.8.8-13.1-14.7-6-14 15.6 9.8 11.5 18.1-8.1Z"/><path id="GM-U" d="m385 276.4 30.5 15 27.8 1.1 50.2-14.6 13-10.9-3.4-16.9-20.8-17-63.3 21.1-19.1-11-15 33.2Z"/><path id="GM-M" d="m297.6 191.4-31.8 13.2-21.1-5.1-17.3 22.3 21.7 2.6 1.2 15.1 9.8 7.2h.3l19.8-10.9 7.3-5.2 67.7 39.6 29.9 6.1 15-33.2-13.4-21.3-14-3.9-19 8.2-23.1-28.3-32.8-6.6Z"/></g></svg>