<?xml version="1.0" encoding="UTF-8"?>
<svg id="Layer_1" xmlns="http://www.w3.org/2000/svg" xmlns:amcharts="http://amcharts.com/ammap" version="1.1" viewBox="0 0 512 512">
  <!-- Generator: Adobe Illustrator 29.1.0, SVG Export Plug-In . SVG Version: 2.1.0 Build 142)  -->
  <g id="_x3C_defs">
    <amcharts:ammap bottomLatitude="4.7388737" leftLongitude="-3.260786" projection="mercator" rightLongitude="1.1994743" topLatitude="11.175031"/>
  </g>
  <g>
    <path id="GH-TV" d="M364.2,193.8h-13.8c0-.1-7.2,18.5-7.2,18.5v10.4c.1,0,11.6,2.2,11.6,2.2l-3.7,8.4-20.7-6.3-24.9,15.2,16.6,10.6,14.5,21.5,9,24.5,8.4,5.4-1,13.6-6.2,25.9,5.6,9.6-8.1,13.6,8.1,9.8-9.7,20.1,17.4,7.6.2,8.3,19.6-2.2,11.1,13.7-3.5,2.8,21.7-2.5,18-26.7-34.1-23.7-17.7-31.1-1.7-10.2,8-4.5,3.7-22.7-11.6-14,9-15.2-3-39.2,10.7-7.3-26.5-36.1Z"/>
    <path id="GH-AA" d="M387.8,427l3.5-2.8-11.1-13.7-19.6,2.2-6.6,5.7-10-9.5-11,1.3-11.3,16.1-22.7-1.5-2.1,4.8,11.3,17.6,50.6-21.3,28.9,1.1Z"/>
    <path id="GH-WP" d="M174.9,506l40.2-21.8,1.8-12.2,9.6-6.2-14.3-14.9v-10.1s-16-3.1-16-3.1l-1.6-20.7-24.8-20.1,6.8-11.6-12.1-6.5.5-8.4-8.3-1.3-7.4,9.4-30.9-20.4-4.6-19.8-12.8-3-3.4-8.5-12.7,33.9,17.9,70.7,6.5,7.4h11.7s4.9,18.2,4.9,18.2l-2.8,16.4-27.2,5.4,58.8,13.3,20.5,14.1Z"/>
    <path id="GH-EP" d="M353.1,317.8l-33.7-2-29.9,10.6-14.7,20.2-11.9,4.3,4.4,9.9-23.1,31.6-3.8,22.5,9.5,10.6,47,4.1,2.1-4.8,22.7,1.5,11.3-16.1,11-1.3,10,9.5,6.6-5.7-.2-8.3-17.4-7.6,9.7-20.1-8.1-9.8,8.1-13.6-5.6-9.6,6.2-25.9Z"/>
    <path id="GH-CP" d="M240.4,414.9l-18.3,4.7-33.4-12.4-12.2-22-6.8,11.6,24.8,20.1,1.6,20.7,16,3.1v10.1s14.3,14.9,14.3,14.9l-9.6,6.2-1.8,12.2,59.2-15.1,33.9-22-11.3-17.6-47-4.1-9.5-10.6Z"/>
    <path id="GH-BA" d="M305.5,242.3l-32.5-14-21.1,26.2-13.8-29.2,9.8-16-2.2-8-16.8-7.6-36,10.8-3.5,19.3,11.2,9.6-28.8,7.4-36.4-48.9,7.5,44.8-21.9,20.7-11.6,28.5-2.4,28.1-9.6,12.5,3.4,8.5,12.8,3,4.6,19.8,30.9,20.4,1-23,8.2-1.3,5.1-10.6-11.6-1.2,6.1-10.6,34.6-14.7-21.4-13.6,2.8-8.3,19.9-.5,15,9.9,21.1-21.9,10.1,12.6,42.2-6.2,37.3,27,33.7,2,1-13.6-8.4-5.4-9-24.5-14.5-21.5-16.6-10.6Z"/>
    <path id="GH-AH" d="M319.4,315.8l-37.3-27-42.2,6.2-10.1-12.6-21.1,21.9-15-9.9-19.9.5-2.8,8.3,21.4,13.6-34.6,14.7-6.1,10.6,11.6,1.2-5.1,10.6-8.2,1.3-1,23,7.4-9.4,8.3,1.3-.5,8.4,12.1,6.5,12.2,22,33.4,12.4,18.3-4.7,3.8-22.5,23.1-31.6-4.4-9.9,11.9-4.3,14.7-20.2,29.9-10.6Z"/>
    <path id="GH-UW" d="M226.2,17.4l-108.9,1.6-7.3,28.5,12.7,16.7-5.7,7.7,6.7,4.8.9,47.5,31.9-12.4,43.6-1.7,8.8-17.3,7.3-1.8-7.3-7,2.7-9.5,9.5-10.7,9.6,2.8-16.4-21.8,11.9-27.3Z"/>
    <path id="GH-UE" d="M312.7,6l-25.7,20-4.7-6.8-56-1.9-11.9,27.3,16.4,21.8,10.3,7.2,7.7-14.6,16.2.4,10.5-12.6,6.5.4,2.6,9,44.4-14.2,8.3-28.4-14-5.7-10.4-2.2Z"/>
    <path id="GH-NP" d="M364.2,193.8l10.6-8.2-5.7-12.6,8.2-27.3-9.7-9-13.9,5.7,5.4-6.9-6.1-2.6,11.9-3.8-9-5.3,6.6-.5,3.8-48.5-16.7-8.7-20.9-24-44.4,14.2-2.6-9-6.5-.4-10.5,12.6-16.2-.4-7.7,14.6-10.3-7.2-9.6-2.8-9.5,10.7-2.7,9.5,7.3,7-7.3,1.8-8.8,17.3-43.6,1.7-31.9,12.4,6.4,29.7-8.9,17,8.8,3.1,4.4,17.9,36.4,48.9,28.8-7.4-11.2-9.6,3.5-19.3,36-10.8,16.8,7.6,2.2,8-9.8,16,13.8,29.2,21.1-26.2,32.5,14,24.9-15.2,20.7,6.3,3.7-8.4-11.4-2.2v-10.4c-.1,0,7.1-18.6,7.1-18.6h13.8Z"/>
  </g>
</svg>