<svg xmlns="http://www.w3.org/2000/svg" xmlns:amcharts="http://amcharts.com/ammap" id="Layer_1" viewBox="0 0 512 512"><g id="_x3C_defs"><amcharts:ammap bottomLatitude="4.739" leftLongitude="-3.261" projection="mercator" rightLongitude="1.199" topLatitude="11.175"/></g><g><path id="GH-TV" d="M364.2 193.8h-13.8c0-.1-7.2 18.5-7.2 18.5v10.4c.1 0 11.6 2.2 11.6 2.2l-3.7 8.4-20.7-6.3-24.9 15.2 16.6 10.6 14.5 21.5 9 24.5 8.4 5.4-1 13.6-6.2 25.9 5.6 9.6-8.1 13.6 8.1 9.8-9.7 20.1 17.4 7.6.2 8.3 19.6-2.2 11.1 13.7-3.5 2.8 21.7-2.5 18-26.7-34.1-23.7-17.7-31.1-1.7-10.2 8-4.5 3.7-22.7-11.6-14 9-15.2-3-39.2 10.7-7.3-26.5-36.1Z"/><path id="GH-AA" d="m387.8 427 3.5-2.8-11.1-13.7-19.6 2.2-6.6 5.7-10-9.5-11 1.3-11.3 16.1-22.7-1.5-2.1 4.8 11.3 17.6 50.6-21.3 28.9 1.1Z"/><path id="GH-WP" d="m174.9 506 40.2-21.8 1.8-12.2 9.6-6.2-14.3-14.9v-10.1l-16-3.1-1.6-20.7-24.8-20.1 6.8-11.6-12.1-6.5.5-8.4-8.3-1.3-7.4 9.4-30.9-20.4-4.6-19.8-12.8-3-3.4-8.5-12.7 33.9 17.9 70.7 6.5 7.4H121l4.9 18.2-2.8 16.4-27.2 5.4 58.8 13.3 20.5 14.1Z"/><path id="GH-EP" d="m353.1 317.8-33.7-2-29.9 10.6-14.7 20.2-11.9 4.3 4.4 9.9-23.1 31.6-3.8 22.5 9.5 10.6 47 4.1 2.1-4.8 22.7 1.5 11.3-16.1 11-1.3 10 9.5 6.6-5.7-.2-8.3-17.4-7.6 9.7-20.1-8.1-9.8 8.1-13.6-5.6-9.6 6.2-25.9Z"/><path id="GH-CP" d="m240.4 414.9-18.3 4.7-33.4-12.4-12.2-22-6.8 11.6 24.8 20.1 1.6 20.7 16 3.1v10.1l14.3 14.9-9.6 6.2-1.8 12.2 59.2-15.1 33.9-22-11.3-17.6-47-4.1-9.5-10.6Z"/><path id="GH-BA" d="m305.5 242.3-32.5-14-21.1 26.2-13.8-29.2 9.8-16-2.2-8-16.8-7.6-36 10.8-3.5 19.3 11.2 9.6-28.8 7.4-36.4-48.9 7.5 44.8-21.9 20.7-11.6 28.5L107 314l-9.6 12.5 3.4 8.5 12.8 3 4.6 19.8 30.9 20.4 1-23 8.2-1.3 5.1-10.6-11.6-1.2 6.1-10.6 34.6-14.7-21.4-13.6 2.8-8.3 19.9-.5 15 9.9 21.1-21.9L240 295l42.2-6.2 37.3 27 33.7 2 1-13.6-8.4-5.4-9-24.5-14.5-21.5-16.6-10.6Z"/><path id="GH-AH" d="m319.4 315.8-37.3-27-42.2 6.2-10.1-12.6-21.1 21.9-15-9.9-19.9.5-2.8 8.3 21.4 13.6-34.6 14.7-6.1 10.6 11.6 1.2-5.1 10.6-8.2 1.3-1 23 7.4-9.4 8.3 1.3-.5 8.4 12.1 6.5 12.2 22 33.4 12.4 18.3-4.7 3.8-22.5 23.1-31.6-4.4-9.9 11.9-4.3 14.7-20.2 29.9-10.6Z"/><path id="GH-UW" d="M226.2 17.4 117.3 19 110 47.5l12.7 16.7-5.7 7.7 6.7 4.8.9 47.5 31.9-12.4 43.6-1.7 8.8-17.3 7.3-1.8-7.3-7 2.7-9.5 9.5-10.7 9.6 2.8-16.4-21.8 11.9-27.3Z"/><path id="GH-UE" d="M312.7 6 287 26l-4.7-6.8-56-1.9-11.9 27.3 16.4 21.8 10.3 7.2 7.7-14.6 16.2.4 10.5-12.6 6.5.4 2.6 9L329 42l8.3-28.4-14-5.7-10.4-2.2Z"/><path id="GH-NP" d="m364.2 193.8 10.6-8.2-5.7-12.6 8.2-27.3-9.7-9-13.9 5.7 5.4-6.9-6.1-2.6 11.9-3.8-9-5.3 6.6-.5 3.8-48.5-16.7-8.7-20.9-24-44.4 14.2-2.6-9-6.5-.4-10.5 12.6-16.2-.4-7.7 14.6-10.3-7.2-9.6-2.8-9.5 10.7-2.7 9.5 7.3 7-7.3 1.8-8.8 17.3-43.6 1.7-31.9 12.4 6.4 29.7-8.9 17 8.8 3.1 4.4 17.9 36.4 48.9 28.8-7.4-11.2-9.6 3.5-19.3 36-10.8 16.8 7.6 2.2 8-9.8 16 13.8 29.2 21.1-26.2 32.5 14 24.9-15.2 20.7 6.3 3.7-8.4-11.4-2.2v-10.4c-.1 0 7.1-18.6 7.1-18.6H364Z"/></g></svg>