<?xml version="1.0" encoding="UTF-8"?>
<svg id="Layer_1" xmlns="http://www.w3.org/2000/svg" xmlns:amcharts="http://amcharts.com/ammap" version="1.1" viewBox="0 0 512 512">
  <!-- Generator: Adobe Illustrator 29.1.0, SVG Export Plug-In . SVG Version: 2.1.0 Build 142)  -->
  <g id="_x3C_defs">
    <amcharts:ammap bottomLatitude="4.3510552" leftLongitude="-8.6020589" projection="mercator" rightLongitude="-2.493031" topLatitude="10.7400151"/>
  </g>
  <g>
    <path id="CI-SC" d="M441,445.4l-7.1,1.1,12.2,2.1-5.1-3.2ZM453.8,391.8l-11.8-33.7-20.4,36.7,2.5,42.4-10.6,6.2,17.6,2.9,11.6-19.4,1.8,17.7,29-1.5-1.5-33.9-14.3-2.1-3.9-15.4Z"/>
    <path id="CI-LC" d="M319.9,259l-12.8-1.8-29.8,23.5-29.1-1.6,13.1,9.5-3.4,18.7,9.6,20.1,15.4,21.4,18.8,10.2,21.1-3.6-3-25-13.7.5-4.3-12,13.1-10.5,11.1-49.7-6.2.2Z"/>
    <path id="CI-MC" d="M418.1,272.3l-4.4.4-8.6,12.6,5.9,8.3-16,7.3v27.6s7.4-.7,7.4-.7l5.4,22,16.8,15.1-5.6,25.4,2.6,4.5,20.4-36.7-7-30.1,12.8-33-29.7-22.6Z"/>
    <path id="CI-MV" d="M81.7,311.6l-14.5-9.9-22.7,28.6-12.4-4.1-13.8,12.7,15.6,3.3.5,8.7,38.7,5.3,9.9,24.5,26.5,8.8,2.2,17.1,25.2-4.9-1.7-60.2,9.2-7.7-5.1-29.1-57.6,6.9Z"/>
    <path id="CI-LG" d="M274.5,440.8h0l-8.7-5.4.6,12.6,33.1-2.3-32-3.3,7-1.6ZM301.8,359.1l-18.8-10.2-2.3,11.6,18.4,8.4,5.5,24.6-11.7,44.1-11.4.7,26.6,7.4,69.8-8-63.2,4,10.5-10.4-1.1,6.4,60.7-9.1,12.6,5.8-4.7-8,5.9,8.6h-21.2l36,8.5,10.6-6.2-2.5-42.4-2.6-4.5-20.6-5.3-15.4,22.2-31.8,1.5-24.8-20,15.3-28.6-18.6-4.5-21.1,3.6Z"/>
    <path id="CI-NC" d="M376.8,223.4v-4.8s-40.2,18-40.2,18l.8,15.8-11.2,6.5-11.1,49.7-13.1,10.5,4.3,12,13.7-.5,3,25,18.6,4.5,24.6-.8,3.8-19,25.1-11.8v-27.6s15.9-7.3,15.9-7.3l-5.9-8.3,8.6-12.6-3.4-19.5-33.5-29.8Z"/>
    <path id="CI-AG" d="M407.8,349.7l-5.4-22-7.4.7-25.1,11.8-3.8,19-24.6.8-15.3,28.6,24.8,20,31.8-1.5,15.4-22.2,20.6,5.3,5.6-25.4-16.8-15.1Z"/>
    <path id="CI-VB" d="M285.2,118.9l-11.7-7.1-12.3,23.2,2.8,16.7-18.5,3.5,6.7,24,20.6,27-30.7,14.6-4.3,20.2,4.9,19.6,5.5,18.7,29.1,1.6,29.8-23.5,12.8,1.8,6.2-.2,11.2-6.5-.8-15.8,40.2-18,6.1-46-22.2-2.2-24.5-20.7-31.5-.3,4-16-10.5-14.3h-13.1Z"/>
    <path id="CI-ZA" d="M408.2,69.7l-42.3,7.9-13.4,16.5,11.3,29.3,22.1,5.7,7,12.5-7.4,4.8,8.3,13.4-10.9,12.8-6.1,46v4.8s33.6,29.8,33.6,29.8l3.4,19.5,4.4-.4,29.7,22.6,23.8-69.7,22.1-20.9-8.8-56.2-12.1-10.3,7.7-32.9-10.5,4.8-31.5-39.8-30.5-.2Z"/>
    <path id="CI-BS" d="M102.1,506.2l130.9-52.7,8.9-19.4-6.6-22.2-11,3.5-6.4-12.8-17-14.9-10.1-34.1-33.3,4.5-13.1-24.4-9.2,7.7,1.7,60.2-25.2,4.9,2.2,24.3-16.8,32.8,5,42.5Z"/>
    <path id="CI-SB" d="M280.8,360.5l-37.7,1.7-25.1,40.5,6.4,12.8,11-3.5,6.6,22.2-8.9,19.4,33.5-5.6-.6-12.6,8.7,5.4,7-2.5,11.4-.7,11.7-44.1-5.5-24.6-18.4-8.4Z"/>
    <path id="CI-HT" d="M186.3,241.1l-47.7,1.7,6.9,11.8-6.2,50.2,5.1,29.1,13.1,24.4,33.3-4.5,23.4-5.4,4.5-11.4-13.7-36.3,22.1-14.3-40-7,26.5-28.5-11.1-12.4-16.3,2.8Z"/>
    <path id="CI-FR" d="M267.6,327.4l-25.4,11.9-23.4-2.4-4.5,11.4-23.4,5.4,10.1,34.1,17,14.9,25.1-40.5,37.7-1.7,2.3-11.6-15.4-21.4Z"/>
    <path id="CI-MR" d="M242.7,260.4l-4.9-19.6-24.1,9.8-26.5,28.5,40,7-22.1,14.3,13.7,36.3,23.4,2.4,25.4-11.9-9.6-20.1,3.4-18.7-13.1-9.5-5.5-18.7Z"/>
    <path id="CI-WR" d="M199.4,125.9l-13.3,10.3-22.3-3.3-12.5,13.8h-25.3s3.6,33,3.6,33l8,42,.9,21.2,47.7-1.7,16.3-2.8,11.1,12.4,24.1-9.8,4.3-20.2,30.7-14.6-20.6-27-26.9-8.8-25.9-44.5Z"/>
    <path id="CI-DH" d="M127.8,221.7l-18.7-14-4.7,20.7-12.3,4.8-23.1-14.5-8-.2-12.4,38.1-19.9-1.1,15.7,42.4-12.3,28.4,12.4,4.1,22.7-28.6,14.5,9.9,57.6-6.9,6.2-50.2-6.9-11.8-.9-21.2h-9.8Z"/>
    <path id="CI-BF" d="M129.7,179.6l-43.7-43.4-14.3,6.2-2.9,14.5,21.2,14.8,2.7,19.7-24-9.6-22.1,4-.9,15.8,20.4,4.9,2.9,12.3,23.1,14.5,12.3-4.8,4.7-20.7,18.7,14h9.8s-8-42.1-8-42.1Z"/>
    <path id="CI-DE" d="M110.6,36.9l-4.5-9.7-13.6,1.5-39.6,39.1,2.2,35.1,21.4,6.2-4.6,18.5,14.1,8.5,43.7,43.4-3.6-33h25.3s12.5-13.8,12.5-13.8l1-57.8-16.7-8.7,5.8-12.8,22.5-3.6-6.6-15.7-22.8,1.7-4.2,16.1-32.3-15.2Z"/>
    <path id="CI-SV" d="M202.1,5.8l-13.3,3.2-1.5,10.6-17.4-8.1v22.8c0,0,6.7,15.7,6.7,15.7l-22.5,3.6-5.8,12.8,16.7,8.7-1,57.8,22.3,3.3,13.3-10.3,25.9,44.5,26.9,8.8-6.7-24,18.5-3.5-2.8-16.7,12.3-23.2,11.7,7.1h13.1c0,0,10.5,14.4,10.5,14.4l-4,16,31.5.3,24.5,20.7,22.2,2.2,10.9-12.8-8.3-13.4,7.4-4.8-7-12.5-22.1-5.7-11.3-29.3-47.8-20.9-15.5-34-20.8.3-14.9-12.1-39.8,20.9-10.5-5-1.2-20.5V5.8Z"/>
  </g>
</svg>