<svg xmlns="http://www.w3.org/2000/svg" xmlns:amcharts="http://amcharts.com/ammap" id="Layer_1" viewBox="0 0 512 512"><g id="_x3C_defs"><amcharts:ammap bottomLatitude="-4.68" leftLongitude="33.91" projection="mercator" rightLongitude="41.907" topLatitude="5.033"/></g><g><path id="KE-28" d="M338.6 478.4h-.4.3Zm2.9-2.8-2.5 2.7 1.7 1.4zm1.1-1.6h-.3l-.4.4h-.4c0 .1 1.5 2 1.5 2l-.3-2.4Zm.1-1.8v-.2.1Zm-2.6-1.6h-.1zm1.7 0h-.2c0-.1-1 0-1 0zm-2.2.3v-.6c.1 0-1.7 1.1-1.7 1.1v.9l-.1.9 1.8-2.2Zm4.1-2.1h-.1l-1.9.5-.1.9 1.9-1.4Z"/><path id="KE-19" d="M329.8 507.5c0-.1-.2 0-.2 0h.1Zm-.2-.9h-.1Zm-.1 0h.2Zm-1.7-1.5 1.9.7-.2-.7zm-6.7-.1v-.2c.1 0 0 0 0 0v.3Zm-.6-.4h.1l-.2-.2v.2Zm.6.2v-.4c-.1 0-.3.1-.3.1zm-.5-.4c0-.1 0 0 0 0m.6-.1v-.2l-.2.2zm.3-.5v-.3zm.4-.3-.2-.4v.3zm.2-.3.3-.3-.4.2Zm.7-.2h-.3c0-.1 0 0 0 0zm1.3-.8v.2-.6.3Zm.9-1.1h-.5l.2.8.4-.8Zm5 .1c0-.1-.5 0-.5 0zm-.4-.1h-.1.2Zm.7-.2c0-.1 0 0 0 0m1.9-.5v-1.3l-.9 2.8.9-1.4Zm3.9-5.7v-.3c.1 0 0 0 0 0v.2Zm-15.6 11.5.3-.4-.5-.2-.2-.7.3-1.1 1.5-1.4 1.2.4 17.5-23-1.7-1.4h-.6v.2l-.5-5.4v-.9l-.2-.3-12.1-21-11.2.2-1.5 5.7v.3l-4.8-2.9-1.2 2-.7 1.2.9 13.1-11.9 4.3-12.6 4.5h-.2l38.2 26.9Z"/><path id="KE-39" d="m287.2 421.9-1.3-.2-28.7-9.8-12.3 20-4.3 16.8 41.8 30.8 12.8-4.6 11.9-4.3-.9-13.1.7-1.2 1.2-2 4.8 2.9v-.3l4.7-18.2 3-12.1-7.1-1.6-26.2-3Z"/><path id="KE-94" d="m358.2 441 .3-.4h-.4v.4Zm-.7-.4-.8.2.6.2zm1.1-.3c0-.1 0 0 0 0m-.6 0-.2-.6v.5l.2.2Zm9.6-18.4.3-.4zm.4-.2v-.4l-.3-.4zm-.8-.3v-.7l-.2.4zm.2-1.6v.4l.3-2.5-.3 2Zm.3-2.8v-.7l-.2.3.2.5Zm.7-3.3v-.2l-.1.1h.1Zm-.5-1.3h-.3l.3.2zm-.4 0v-.3h-.2zm.8-.3.2-.4v.4Zm-.4-.3v-.3c.1 0 0 0 0 0zm.1-.5.3-.4-.3.2Zm.5-.6.3-.5h-.1zm0-.4v-.3.2Zm-.2 0v-.3c-.1 0-.4.3-.4.3zm-.7-.3v-.2l-.1.1h.1Zm.2-.3v-.2l-.1.1h.1Zm.3-.5v-.3zm-.1-.5-14.2-20-33.3 37.7v.2l-3 12.1-3.2 12.5 11.2-.2 12.1 21 .2.3.1-.3v-.6l1.8-1.1.9.4h1c0-.1.2-.4.2-.4l.1-.8 1.9-.6 24.4-60Z"/><path id="KE-21" d="M394.6 387.9v.2c-.1 0 .3.2.3.2zm3.5-.4v-.4l-.3.4zm-1.2-.5-.1-.1Zm1.4.1v-.2c.1 0 0 0 0 0v.3Zm-1.4-.7h.5l-.7-.1h.2Zm-.7-.4h-.2c0 .1.3.3.3.3v-.3Zm-1 0v-.1Zm8.3-.4-3.9 4.1 4.9-1.8-1.1-2.3Zm-3.8.2h.3c0-.1.1-.4.1-.4zm-.2-.4h.2c0-.1-.1-.1-.1-.1Zm.2-.5-.3.2h.3zm8.4-.5h-.2l.5.2zm-.6-.1H404l.8 4.6zm-1.5.3v-.2zm-.5.1h-.1c0-.1.1 0 .1 0m6.2-3.5-.2-.5h-.6c0 .1.8.5.8.5m-3.6-.9-.5.5.7-.3zm2.1-.1-.2-.2v.2zm2.6-.4v.2h.2zm-4.2-1.7v-.2l-.2.1h.2Zm.1-.3h.1zm7.1.7-.4-.9-.2 1h1.3zm-4.3-.9-4.1 1.4 2.1 1.2zm1.6-1.7-2 4 2.2-1.1.7 1.3.3-2.9h2.7l-3.9-1.4Zm1.2.1v-.3l-.1.1h.1Zm-.2-.2c0-.1-.1-.2-.1-.2v.2Zm-6.7-.1v-.4c-.1 0-.2.5-.2.5l.2-.2Zm11.5-2.3v.3l.6.3zm-1.2-.8h-.2v.2zm-1.1-.5-.7.4h1l-.2-.4Zm1.5.3v-.6l-.3.3.3.4Zm4.6 1 1.3-1.8-2.7 3.2zm-1.4-2.1h-.3zm-4.3-.1-1 .5 1.6-.2zm3.7 0 .3.1h-.2Zm.2-.1h-.2l.2.1Zm-.3 0c0-.1-.1-.1-.1-.1Zm2-.5v.6l.1-.4v-.2Zm-.7.1h.1c0-.1-.2 0-.2 0zm-3.8 0v-.2l-.2.2zm1.1-.8v-.2l-.1.1h.1Zm1.2-.2-.1-.2v.2Zm5.5-.1h-.3c0-.1-.7.9-.7.9l.9-.9Zm-6.5-.2h-.1.2Zm1.3.1.2-.2h-.2zm-1.5-.5-.2.3h.3v-.3Zm.7.2v-.2Zm6.1-.2h-.3l-.2.2zm-6.8-.3v.2l.2-.1h-.2Zm6.9.6.6-.7h-.2zm-6.1-.4.4-.3h-.3v.3Zm6.9-.3h-.1Zm.4-.6.3-.4h-.2l-.2.4Zm1.3-1.9-.3.3.5-.2h-.2Zm1.9-.9-1.4.8-1.3 1.7 2.7-2.4Zm.1-.1v-.2Zm.5-.6c0-.1 0 0 0 0m-.6 0v-.3.2Zm.7-.2v-.2c.1 0 .1-.2.1-.2v.4Zm1.2-.8v-.2zm.4-.8c0-.1 0 0 0 0m1-1.6-.5.7.9-1-.4.4Zm.3-.3-.1-.3v.3Zm-39.9 35.3.8-5.9-1.3-.3-.6-1.9v-3.2c.1 0 2.6-.3 2.6-.3l1.9-14.5 32.1-5.8 7-7.8-67.1 18.6.6 2.9 1.5 15.2h9.5l2.2.7 8.8 2.8 2.1-.4Z"/><path id="KE-23" d="m237.8 350.4-19.3 12 38.6 49.5 28.7 9.8-38-69.9-10.1-1.4Z"/><path id="KE-30" d="m215.6 336.7-21.8 2.7 11.1 5 10.7-7.6Z"/><path id="KE-10" d="M177.5 326.2 161 378.5l83.8 53.3 12.3-20-38.6-49.5-13.5-18.1-11.1-5-6.5-7.9-9.9-5.3Z"/><path id="KE-22" d="M224.5 313h-.7l4.7 15.4-12.9 8.3-10.7 7.6 13.5 18.1 19.3-12 10.1 1.4 4.6-37.5-28-1.3Z"/><path id="KE-13" d="m188.4 319.7-1 11.7 6.5 7.9 21.8-2.7 12.9-8.3-31.9-14.3-8.3 5.6Z"/><path id="KE-27" d="m93.4 307.1-35.2 6.8L98 343l-4.4-20.9z"/><path id="KE-29" d="m204.9 304.4-9 .9.8 8.8 31.9 14.3-4.7-15.3-4.9-7.4-14-1.3Z"/><path id="KE-16" d="m104.5 299-11.1 8.1.2 15 18.4-3.9z"/><path id="KE-33" d="m145.6 304.1-5.1-.9-28.4 14.9-18.4 3.9 4.4 20.9 62.9 35.5 16.5-52.3z"/><path id="KE-34" d="m113.9 298.9-1.6-4.3-7.8 4.4 7.5 19.2z"/><path id="KE-02" d="m127.6 294.3-13.7 4.6-1.9 19.3 28.4-14.9-6.7-11-6.1 2.1Z"/><path id="KE-08" d="m85.8 289-26.6 1.9-1 23.1 35.2-6.8 11.1-8.1 7.8-4.4-.4-1-26.2-4.6Z"/><path id="KE-06" d="m256.6 295.2-30.8-13.6 5.9 17.8-7.9 13.6h.7l28 1.2 4.5-19z"/><path id="KE-15" d="m231.7 299.5-5.9-17.8-6.9 24 4.9 7.4z"/><path id="KE-18" d="m281.6 277.8-.7-.3-5.5-.9-18.5 18.6-4.5 19-4.6 37.5 38 69.9 1.3.2 26.2 3-22.2-31.3 19.3-24.6-3.1-43.8-25.7-47.4Z"/><path id="KE-40" d="M320.5 426.5v-.2l33.3-37.7 14.2 20v.2h.2l26.1-12.8-2.1.4-8.8-2.8-2.2-.7h-9.5l-1.5-15.2-.6-2.9-30.8-83.9-40.6-13.5-16.6.3 25.7 47.4 3.1 43.8-19.3 24.6 22.2 31.3 7.1 1.6Z"/><path id="KE-36" d="m225.8 281.6-8.8-5.7-23.4 5.8 2.3 23.6 9-.9 14 1.3 6.9-24Z"/><path id="KE-17" d="M88.3 274.9 85.8 289l26.2 4.6 10.6-14.1-23.8-4.1-10.6-.5Z"/><path id="KE-12" d="m132.9 272.9-10.3 6.5-10.6 14.1.4 1 1.6 4.3 13.7-4.6 6.1-2.1 9.4-15.1-5.8-3.8-4.4-.5Z"/><path id="KE-41" d="m269.3 273.2-43.5 8.5 30.8 13.6h.4l18.5-18.6-6.1-3.5Z"/><path id="KE-35" d="m193.5 281.7-19.9-6.5 14.7 44.5 8.3-5.6-.8-8.8z"/><path id="KE-45" d="m107.7 264.3-18.1 5.2-1.3 5.4 10.6.5z"/><path id="KE-31" d="m173.6 275.2-2.7-12.7-27.8 14.7-9.4 15.1 6.7 11 5.1.9 31.9 22 9.9 5.3 1-11.7-14.7-44.5Z"/><path id="KE-38" d="m80.2 258.9-20.8 16.5v15.4c-.1 0 26.4-1.9 26.4-1.9l2.5-14.1 1.3-5.4z"/><path id="KE-32" d="m104 247.1 3.7 17.2-8.8 11.1 23.8 4.1L133 273l-29-25.8Z"/><path id="KE-26" d="m272.7 264.3-9.6-23.2-33.5 19.5-12.7 15.4 8.8 5.7 43.5-8.5 6.1 3.5 5.5.9-8.2-13.3Z"/><path id="KE-04" d="m83.3 237.7-3.6-2.1-20.3 39.9L80.2 259l1.1-8z"/><path id="KE-20" d="M185.2 232.1 171 262.4l2.7 12.7 19.9 6.5 23.4-5.8 12.7-15.4-22.5-23.2z"/><path id="KE-11" d="m112.3 230.1-31 20.8-1.1 8 9.4 10.5 18.1-5.2L104 247l13-16.6-4.7-.4Z"/><path id="KE-44" d="m129.2 227.3-12.3 3.2-13 16.6 29 25.8 4.4.5 3.2-7.6-11.3-38.4Z"/><path id="KE-07" d="m369.6 374.9 67.1-18.6-28.2-41.1v-64.1l-32.8 13.1-43.2-39.4-8.1 4.3-31.5 19.8 5.3 28.6 40.6 13.5z"/><path id="KE-03" d="m90.6 217.1-10.9 18.4 3.6 2.1-2 13.3 31-20.8z"/><path id="KE-42" d="m102.5 211.7-11.9 5.4 21.7 13 4.7.4 12.3-3.2-10.3-12.6-16.4-3.1h-.1Z"/><path id="KE-05" d="m146.2 212.3-.3-3.6-27 5.9 10.3 12.6 11.3 38.4 5.7-53.4Z"/><path id="KE-01" d="m146.4 203.6-.5 5.1.3 3.6-5.7 53.4-3.2 7.6 5.8 3.8 27.8-14.7 14.2-30.3-4.8-3.6-29.8-36.9-4.2 12Z"/><path id="KE-09" d="m257.4 211.5 6.7 23.9-56.9 1.8 22.5 23.2 33.5-19.5 9.6 23.2 8.2 13.3.7.3 16.6-.3-5.3-28.6 31.5-19.8 8.1-4.3-24.7-54.7-50.4 41.4Z"/><path id="KE-37" d="m197.5 149.5-6.7 5.4-10.4 73.8 4.8 3.6 22 5.1 56.9-1.8-6.7-23.9-59.9-62Z"/><path id="KE-47" d="m117.7 144.1-9.2 8.3-6 59.2 16.4 3.1 27-5.9.5-5.1 4.2-12z"/><path id="KE-46" d="m325.4 101.9-17.6 68.2 24.7 54.7 43.2 39.4 32.7-13.1v-85l-60.3-73.9z"/><path id="KE-24" d="M439.6 76.8 397 61.6l-48.9 30.6 60.3 73.9v-32l45.3-57.2h-14.1Z"/><path id="KE-25" d="M163.5 53v60.4l27.3 41.4 6.7-5.4 59.9 62 50.4-41.4 17.6-68.2-162-48.9Z"/><path id="KE-43" d="M125.8 4.5 61.4 64.6l47.1 87.8 9.2-8.3 32.9 47.6 29.8 36.9 10.4-73.8-27.2-41.4V53L150.9 8.8l-25-4.3Z"/></g></svg>