<?xml version="1.0" encoding="UTF-8"?>
<svg id="Layer_1" xmlns="http://www.w3.org/2000/svg" xmlns:amcharts="http://amcharts.com/ammap" version="1.1" viewBox="0 0 512 512">
  <!-- Generator: Adobe Illustrator 29.1.0, SVG Export Plug-In . SVG Version: 2.1.0 Build 142)  -->
  <g id="_x3C_defs">
    <amcharts:ammap bottomLatitude="-4.679658" leftLongitude="33.909821" projection="mercator" rightLongitude="41.906896" topLatitude="5.033421"/>
  </g>
  <g>
    <path id="KE-28" d="M338.6,478.4h-.4c0,0,0,0,0,0h.3ZM341.5,475.6l-2.5,2.7,1.7,1.4.8-4.1ZM341.8,474.4h0c0,0,0,0,0,0h0ZM342.6,474h-.3s-.4.4-.4.4h-.4c0,.1,1.5,2,1.5,2l-.3-2.4ZM342.7,472.2v-.2s0,.1,0,.1h0ZM340.1,470.6h0c0,0-.1,0-.1,0h.1ZM341.8,470.6h-.2c0-.1-1,0-1,0h1.2ZM339.6,470.9v-.6c.1,0-1.7,1.1-1.7,1.1h0s0,0,0,0h0s0,.6,0,.6v.3c0,0-.1.9-.1.9l1.8-2.2ZM343.7,468.8h-.1s-1.9.5-1.9.5h0s0,0,0,0h0s0,0,0,0h0s-.1.9-.1.9h0s0,0,0,0l1.9-1.4Z"/>
    <path id="KE-19" d="M329.8,507.5h0c0-.1-.2,0-.2,0h.1ZM329.6,506.6h0c0,0-.1,0-.1,0h0ZM329.5,506.6h0c0,0,0,0,0,0h.2ZM327.8,505.1l1.9.7-.2-.7h-1.7ZM321.1,505v-.2c.1,0,0,0,0,0v.3ZM320.5,504.6h.1c0,0-.2-.2-.2-.2v.2ZM321.1,504.8v-.4c-.1,0-.3.1-.3.1l.3.3ZM320.6,504.4h0c0-.1,0,0,0,0h0ZM321.2,504.3v-.2c0,0-.2.2-.2.2h.2ZM321.5,503.8v-.3s0,.3,0,.3h0ZM321.9,503.5l-.2-.4v.3s.2.1.2.1ZM322.1,503.2l.3-.3-.4.2h0ZM322.8,503h-.3c0-.1,0,0,0,0h.3ZM324.1,502.2v.2c0,0,0-.6,0-.6v.3ZM325,501.1h-.5s.2.8.2.8l.4-.8ZM330,501.2h0c0-.1-.5,0-.5,0h.5ZM329.6,501.1h0c0,0-.1,0-.1,0h.2ZM329.7,501h0c0,0,0,0,0,0h0ZM330.3,500.9h0c0-.1,0,0,0,0h0ZM332.2,500.4v-1.3s-.9,2.8-.9,2.8l.9-1.4ZM336.1,494.7v-.3c.1,0,0,0,0,0v.2ZM320.5,506.2l.3-.4-.5-.2-.2-.7.3-1.1,1.5-1.4,1.2.4,17.5-23-1.7-1.4h-.6c0,.1,0,.2,0,.2l-.5-5.4v-.9s0,0,0,0l-.2-.3-12.1-21-11.2.2-1.5,5.7v.3c0,0-4.8-2.9-4.8-2.9l-1.2,2-.7,1.2h0l.9,13.1-11.9,4.3-12.6,4.5h-.2c0,0,38.2,26.9,38.2,26.9Z"/>
    <path id="KE-39" d="M287.2,421.9l-1.3-.2-28.7-9.8-12.3,20-4.3,16.8,41.8,30.8h0l12.8-4.6,11.9-4.3-.9-13.1.7-1.2,1.2-2h0s4.8,2.9,4.8,2.9v-.3c0,0,4.7-18.2,4.7-18.2l3-12.1h0s-7.1-1.6-7.1-1.6l-26.2-3Z"/>
    <path id="KE-94" d="M357.7,442.4h0c0,0,0,0,0,0h0ZM358.2,441l.3-.4h-.4c0,.1,0,.4,0,.4ZM357.5,440.6l-.8.2.6.2.2-.4ZM358.6,440.3h0c0-.1,0,0,0,0h0ZM358,440.3l-.2-.6v.5c0,0,.2.2.2.2ZM367.6,421.9l.3-.4-.3.4h0ZM368,421.7v-.4s-.3-.4-.3-.4l.3.8ZM367.2,421.4v-.7c0,0-.2.4-.2.4l.2.3ZM367.4,419.8v.4s.3-2.5.3-2.5l-.3,2ZM367.7,417v-.7s-.2.3-.2.3l.2.5ZM368.4,413.7v-.2s-.1.1-.1.1h.1ZM368.2,413.4h0c0,0,0,0,0,0h0ZM367.9,412.4h-.3c0,0,.3.2.3.2v-.2ZM367.5,412.4v-.3s-.2,0-.2,0l.2.3ZM368.3,412.1l.2-.4h0c0,0,0,.4,0,.4ZM367.9,411.8v-.3c.1,0,0,0,0,0v.3ZM368,411.3l.3-.4-.3.2h0ZM368.5,410.7l.3-.5h-.1s-.2.5-.2.5ZM368.5,410.3v-.3s0,.2,0,.2h0ZM368.3,410.3v-.3c-.1,0-.4.3-.4.3h.4ZM367.6,410v-.2s-.1.1-.1.1h.1ZM367.8,409.7v-.2c0,0-.1.1-.1.1h.1ZM368.1,409.2v-.3c0,0,0,0,0,0v.3ZM368,408.7l-14.2-20-33.3,37.7h0s0,.2,0,.2l-3,12.1-3.2,12.5,11.2-.2,12.1,21,.2.3h0s.1-.3.1-.3v-.6c0,0,0,0,0,0h0s0,0,0,0l1.8-1.1.9.4h1c0-.1.2-.4.2-.4h0s.1-.8.1-.8h0s0,0,0,0h0s0,0,0,0l1.9-.6,24.4-60h0Z"/>
    <path id="KE-21" d="M394.6,387.9v.2c-.1,0,.3.2.3.2l-.3-.4ZM398.1,387.5v-.4c0,0-.3.4-.3.4h.3ZM396.9,387h0c0,0-.1-.1-.1-.1h0ZM398.3,387.1v-.2c.1,0,0,0,0,0v.3ZM396.9,386.4h.5s-.7-.1-.7-.1h.2ZM396.2,386h-.2c0,.1.3.3.3.3v-.3ZM395.2,386h0c0-.1,0-.1,0-.1h0ZM403.5,385.6l-3.9,4.1,4.9-1.8-1.1-2.3ZM399.7,385.8h.3c0-.1.1-.4.1-.4l-.4.4ZM399.5,385.4h.2c0-.1-.1-.1-.1-.1h0ZM399.7,384.9l-.3.2h.3s0-.2,0-.2ZM408.1,384.4h-.2s.5.2.5.2l-.3-.2ZM407.5,384.3h-3.5s.8,4.6.8,4.6l2.7-4.6ZM406,384.6h0c0,0,0-.2,0-.2v.2ZM405.5,384.7h-.1c0-.1.1,0,.1,0h0ZM407.7,381.3h0c0,0,0,0,0,0h0ZM411.7,381.2l-.2-.5h-.6c0,.1.8.5.8.5ZM408.1,380.3l-.5.5.7-.3-.2-.2ZM410.2,380.2l-.2-.2v.2c-.1,0,.2,0,.2,0ZM412.8,379.8v.2c0,0,.2,0,.2,0l-.2-.2ZM408.6,378.1v-.2s-.2.1-.2.1h.2ZM408.7,377.8h0c0,0,.1,0,.1,0h-.1ZM415.8,378.5l-.4-.9-.2,1h1.3c0,0-.7-.1-.7-.1ZM411.5,377.6l-4.1,1.4,2.1,1.2,2-2.6ZM413.1,375.9l-2,4,2.2-1.1.7,1.3.3-2.9h2.7s-3.9-1.4-3.9-1.4ZM414.3,376v-.3s-.1.1-.1.1h.1ZM414.1,375.8h0c0-.1-.1-.2-.1-.2v.2ZM407.4,375.7v-.4c-.1,0-.2.5-.2.5l.2-.2ZM418.9,373.4v.3c0,0,.6.3.6.3l-.6-.6ZM417.7,372.6h-.2s0,.2,0,.2l.2-.2ZM416.6,372.1l-.7.4h1s-.2-.4-.2-.4ZM418.1,372.4v-.6s-.3.3-.3.3l.3.4ZM422.7,373.4l1.3-1.8-2.7,3.2,1.4-1.4ZM421.3,371.3h-.3s.3,0,.3,0h0ZM417,371.2l-1,.5,1.6-.2-.6-.3ZM420.7,371.2h0c0,0,.3.1.3.1h-.2ZM420.9,371.1h-.2s.2.1.2.1h0ZM420.6,371.1h0c0-.1-.1-.1-.1-.1h0ZM422.6,370.6v.6c0,0,.1-.4.1-.4v-.2ZM421.9,370.7h.1c0-.1-.2,0-.2,0h.1ZM418.1,370.7v-.2s-.2.2-.2.2h.2ZM419.2,369.9v-.2s-.1.1-.1.1h.1ZM420.4,369.7h0c0,0-.1-.2-.1-.2v.2ZM425.9,369.6h-.3c0-.1-.7.9-.7.9l.9-.9ZM419.4,369.4h-.1c0,0,0,0,0,0h.2ZM420.7,369.5l.2-.2h-.2s0,.2,0,.2ZM419.2,369l-.2.3h.3c0,0,0-.3,0-.3ZM419.9,369.2v-.2c0,0,0,0,0,0h0ZM426,369h-.3c0,0-.2.2-.2.2l.5-.2ZM419.2,368.7v.2s.2-.1.2-.1h-.2ZM426.1,369.3l.6-.7h-.2s-.4.7-.4.7ZM427.1,368.7h0c0,0,0,0,0,0h0ZM420,368.9l.4-.3h-.3v.3ZM426.9,368.6h0c0,0-.1,0-.1,0h0ZM427.3,368l.3-.4h-.2s-.2.4-.2.4ZM428.6,366.1l-.3.3.5-.2h-.2ZM430.5,365.2l-1.4.8-1.3,1.7,2.7-2.4ZM430.6,365.1v-.2s0,0,0,0h0ZM431.1,364.5h0c0-.1,0,0,0,0h0ZM430.5,364.5v-.3c0,0,0,.2,0,.2h0ZM431.2,364.3v-.2c.1,0,.1-.2.1-.2v.4ZM432.4,363.5v-.2c0,0,0,.2,0,.2h0ZM432.8,362.7h0c0-.1,0,0,0,0h0ZM432.9,362.5h0c0,0,0,0,0,0h0ZM433.8,361.1l-.5.7.9-1-.4.4ZM434.1,360.8h0c0,0-.1-.3-.1-.3v.3ZM394.2,396.1l.8-5.9-1.3-.3-.6-1.9v-3.2c.1,0,2.6-.3,2.6-.3l1.9-14.5,32.1-5.8,7-7.8-67.1,18.6h0l.6,2.9,1.5,15.2h9.5s2.2.7,2.2.7l8.8,2.8h0s2.1-.4,2.1-.4Z"/>
    <path id="KE-23" d="M237.8,350.4l-19.3,12,38.6,49.5,28.7,9.8-38-69.9-10.1-1.4Z"/>
    <path id="KE-30" d="M215.6,336.7l-21.8,2.7,11.1,5,10.7-7.6Z"/>
    <path id="KE-10" d="M177.5,326.2l-16.5,52.3,83.8,53.3,12.3-20-38.6-49.5-13.5-18.1-11.1-5-6.5-7.9-9.9-5.3Z"/>
    <path id="KE-22" d="M224.5,313h-.7c0,0,4.7,15.4,4.7,15.4l-12.9,8.3-10.7,7.6,13.5,18.1,19.3-12,10.1,1.4,4.6-37.5-28-1.3Z"/>
    <path id="KE-13" d="M188.4,319.7l-1,11.7,6.5,7.9,21.8-2.7,12.9-8.3-31.9-14.3-8.3,5.6Z"/>
    <path id="KE-27" d="M93.4,307.1l-35.2,6.8,39.8,29.1-4.4-20.9-.2-15Z"/>
    <path id="KE-29" d="M204.9,304.4l-9,.9.8,8.8,31.9,14.3-4.7-15.3-4.9-7.4-14-1.3Z"/>
    <path id="KE-16" d="M104.5,299l-11.1,8.1.2,15,18.4-3.9-7.5-19.2Z"/>
    <path id="KE-33" d="M145.6,304.1l-5.1-.9-28.4,14.9-18.4,3.9,4.4,20.9,62.9,35.5,16.5-52.3-31.9-22Z"/>
    <path id="KE-34" d="M113.9,298.9l-1.6-4.3-7.8,4.4,7.5,19.2,1.9-19.3Z"/>
    <path id="KE-02" d="M127.6,294.3l-13.7,4.6-1.9,19.3,28.4-14.9-6.7-11-6.1,2.1Z"/>
    <path id="KE-08" d="M85.8,289l-26.6,1.9-1,23.1,35.2-6.8,11.1-8.1,7.8-4.4-.4-1-26.2-4.6Z"/>
    <path id="KE-06" d="M256.6,295.2l-30.8-13.6,5.9,17.8-7.9,13.6h.7c0,0,28,1.2,28,1.2l4.5-19h-.4Z"/>
    <path id="KE-15" d="M231.7,299.5l-5.9-17.8-6.9,24,4.9,7.4,7.9-13.6Z"/>
    <path id="KE-18" d="M281.6,277.8l-.7-.3-5.5-.9-18.5,18.6-4.5,19-4.6,37.5,38,69.9,1.3.2,26.2,3-22.2-31.3,19.3-24.6-3.1-43.8-25.7-47.4Z"/>
    <path id="KE-40" d="M320.5,426.5v-.2s0,0,0,0h0l33.3-37.7,14.2,20v.2c.1,0,.2,0,.2,0h0s26.1-12.8,26.1-12.8l-2.1.4h0s-8.8-2.8-8.8-2.8l-2.2-.7h-9.5s-1.5-15.2-1.5-15.2l-.6-2.9h0l-30.8-83.9-40.6-13.5-16.6.3,25.7,47.4,3.1,43.8-19.3,24.6,22.2,31.3,7.1,1.6h0Z"/>
    <path id="KE-36" d="M225.8,281.6l-8.8-5.7-23.4,5.8,2.3,23.6,9-.9,14,1.3,6.9-24Z"/>
    <path id="KE-17" d="M88.3,274.9l-2.5,14.1,26.2,4.6,10.6-14.1-23.8-4.1-10.6-.5Z"/>
    <path id="KE-12" d="M132.9,272.9l-10.3,6.5-10.6,14.1.4,1,1.6,4.3,13.7-4.6,6.1-2.1,9.4-15.1-5.8-3.8-4.4-.5Z"/>
    <path id="KE-41" d="M269.3,273.2l-43.5,8.5,30.8,13.6h.4c0,0,18.5-18.6,18.5-18.6l-6.1-3.5Z"/>
    <path id="KE-35" d="M193.5,281.7l-19.9-6.5,14.7,44.5,8.3-5.6-.8-8.8-2.3-23.6Z"/>
    <path id="KE-45" d="M107.7,264.3l-18.1,5.2-1.3,5.4,10.6.5,8.8-11.1Z"/>
    <path id="KE-31" d="M173.6,275.2l-2.7-12.7-27.8,14.7-9.4,15.1,6.7,11,5.1.9,31.9,22,9.9,5.3,1-11.7-14.7-44.5Z"/>
    <path id="KE-38" d="M80.2,258.9l-20.8,16.5v15.4c-.1,0,26.4-1.9,26.4-1.9l2.5-14.1,1.3-5.4-9.4-10.5Z"/>
    <path id="KE-32" d="M104,247.1l3.7,17.2-8.8,11.1,23.8,4.1,10.3-6.5-29-25.8Z"/>
    <path id="KE-26" d="M272.7,264.3l-9.6-23.2-33.5,19.5-12.7,15.4,8.8,5.7,43.5-8.5,6.1,3.5,5.5.9-8.2-13.3Z"/>
    <path id="KE-04" d="M83.3,237.7l-3.6-2.1-20.3,39.9,20.8-16.5,1.1-8,2-13.3Z"/>
    <path id="KE-20" d="M185.2,232.1l-14.2,30.3,2.7,12.7,19.9,6.5,23.4-5.8,12.7-15.4-22.5-23.2-22-5.1Z"/>
    <path id="KE-11" d="M112.3,230.1l-31,20.8-1.1,8,9.4,10.5,18.1-5.2-3.7-17.2,13-16.6-4.7-.4Z"/>
    <path id="KE-44" d="M129.2,227.3l-12.3,3.2-13,16.6,29,25.8,4.4.5,3.2-7.6-11.3-38.4Z"/>
    <path id="KE-07" d="M369.6,374.9l67.1-18.6-28.2-41.1v-64.1s-32.8,13.1-32.8,13.1l-43.2-39.4-8.1,4.3-31.5,19.8,5.3,28.6,40.6,13.5,30.8,83.9h0Z"/>
    <path id="KE-03" d="M90.6,217.1l-10.9,18.4,3.6,2.1-2,13.3,31-20.8-21.7-13Z"/>
    <path id="KE-42" d="M102.5,211.7l-11.9,5.4,21.7,13,4.7.4,12.3-3.2-10.3-12.6-16.4-3.1h-.1Z"/>
    <path id="KE-05" d="M146.2,212.3l-.3-3.6-27,5.9,10.3,12.6,11.3,38.4,5.7-53.4Z"/>
    <path id="KE-01" d="M146.4,203.6l-.5,5.1.3,3.6-5.7,53.4-3.2,7.6,5.8,3.8,27.8-14.7,14.2-30.3-4.8-3.6-29.8-36.9-4.2,12Z"/>
    <path id="KE-09" d="M257.4,211.5l6.7,23.9-56.9,1.8,22.5,23.2,33.5-19.5,9.6,23.2,8.2,13.3.7.3,16.6-.3-5.3-28.6,31.5-19.8,8.1-4.3-24.7-54.7-50.4,41.4Z"/>
    <path id="KE-37" d="M197.5,149.5l-6.7,5.4-10.4,73.8,4.8,3.6,22,5.1,56.9-1.8-6.7-23.9-59.9-62Z"/>
    <path id="KE-47" d="M117.7,144.1l-9.2,8.3-6,59.2,16.4,3.1,27-5.9.5-5.1,4.2-12-32.9-47.6Z"/>
    <path id="KE-46" d="M325.4,101.9l-17.6,68.2,24.7,54.7,43.2,39.4,32.7-13.1v-85s-60.3-73.9-60.3-73.9l-22.7,9.7Z"/>
    <path id="KE-24" d="M439.6,76.8l-42.6-15.2-48.9,30.6,60.3,73.9v-32s45.3-57.2,45.3-57.2h-14.1Z"/>
    <path id="KE-25" d="M163.5,53v60.4c0,0,27.3,41.4,27.3,41.4l6.7-5.4,59.9,62,50.4-41.4,17.6-68.2-162-48.9Z"/>
    <path id="KE-43" d="M125.8,4.5l-64.4,60.1,47.1,87.8,9.2-8.3,32.9,47.6,29.8,36.9,10.4-73.8-27.2-41.4v-60.4c0,0-12.7-44.2-12.7-44.2l-25-4.3Z"/>
  </g>
</svg>