<svg xmlns="http://www.w3.org/2000/svg" xmlns:amcharts="http://amcharts.com/ammap" id="Layer_1" viewBox="0 0 512 512"><g id="_x3C_defs"><amcharts:ammap bottomLatitude="-30.676" leftLongitude="27.011" projection="mercator" rightLongitude="29.456" topLatitude="-28.571"/></g><g><path id="LS-E" d="m247.5 275.1-19.4-1.7 8 47.9 31.5-2.3zm-21.8 46.4L197.2 307l-39-6.7-25.4-26.9-39.2-8.2-16.1-32.4-11.9-2.5-58.7 25 32.2 70.2L64 312.3l20.2-.6-1.1 33 16.3 7.5 17.6-21 26.9 7.1 53-14.6z"/><path id="LS-K" d="m325.3 168.6-2.7 19.3-27.1-10.6-15.8-35.5-15.6-6.1 4.3 27.1-16.9 23.1-17.4 12.8 13.4 76.4 20.1 43.9 53.1-28 41.3 17.6 19.9-7.8 28 7.6 10.3-26.3 18.6 3.3 9.8-20.4 24.1-12.6-.7-20.2-26 10.9-26.4-19.6H372l3-32.7-49.8-22.2Z"/><path id="LS-H" d="m438.8 285.4-18.6-3.3-10.3 26.3-28-7.6-19.9 7.8-41.3-17.6 1.7 33.9-35.6 25.8-22.7-6.2-7.8 32.7 26.5 8.2 34.7-13.5 23.7 3.5 45.4-15.5 58.5-34.9z"/><path id="LS-J" d="m472.1 232.2 23.3-21.4 9.8-22.5-25.6-59.6-21.3-4.9-46.8-37.6L380 51.1l-7.5 30.5-8 42.8-36 29.8-3.2 14.5 49.8 22.2-3 32.6h47.6l26.4 19.7 26-10.9Z"/><path id="LS-C" d="M372.5 81.6 353 110.8l-15.5 9-28.5-6.3 1.2-33.8L264.4 61l-9.9-23.7-13 .4-28 36.3-22 .9-10.4 12.9-23.4-1.6-23.3 42.9 39.2-14 14.1 4.9 22-27 54.4 42.8 15.6 6.1 15.8 35.5 27.1 10.6 2.7-19.3 3.2-14.5 36-29.8z"/><path id="LS-B" d="m380 51.1-26.4-16.7-6.8-21.4-54.2 5.1-17.7 19h-20.4c0 .1 9.9 23.8 9.9 23.8l45.8 18.7-1.2 33.8 28.5 6.3 15.5-9 19.5-29.2L380 51Z"/><path id="LS-G" d="m282.8 385.3-26.5-8.2 7.8-32.7-42.7 16.9-23.3-1.5-8.6 27.7-43.8 44.1-32.2 6.1 13.4 23.1 29.8 26.3 64 11.8 33.7-62.7-.4-28.6 28.7-22.4Z"/><path id="LS-F" d="m264.1 344.4 22.7 6.2 35.6-25.8-1.7-33.9-53.1 28-31.5 2.3-10.4.2-28.8 2.2-53 14.6-26.9-7.1-17.6 21-16.3-7.5 1.1-33-20.2.6-24.9 13.2L58.6 352l20.6 66.1 19.2 1.3 15.2 18.3 32.2-6.1 43.8-44.1 8.6-27.7 23.3 1.5 42.7-16.9Z"/><path id="LS-A" d="m251.5 185.9-33.3 9.7-6.5-25.6-18.4 15.5-30.6-8.6-12.1 8.5-41.7-14-43.3 58.9 11.9 2.5 16.1 32.4 39.2 8.2 25.4 26.9 39 6.7 28.5 14.5 10.4-.2-8-47.9 19.4 1.7-13.4-76.4z"/><path id="LS-D" d="m264.1 135.7-54.4-42.8-22 27-14.1-4.9-39.2 14-25.5 42.4 41.7 14 12.1-8.5 30.6 8.6 18.4-15.5 6.5 25.6 33.3-9.7 16.9-23.1z"/></g></svg>