<svg xmlns="http://www.w3.org/2000/svg" xmlns:amcharts="http://amcharts.com/ammap" id="Layer_1" viewBox="0 0 512 512"><g id="_x3C_defs"><amcharts:ammap bottomLatitude="19.501" leftLongitude="9.391" projection="mercator" rightLongitude="25.147" topLatitude="33.168"/></g><g><path id="LY-WD" d="m155.2 235.5-30.2-4.2-51 36 .8 23 23.7-.8 55.2-23.2 6.6-14.8z"/><path id="LY-BU" d="m497.5 201.5-.2-40.5-8.9-33.8 9.5-21.8-4.5-20.5 9.6-11.5-5.4-11.2-53.9-9.1-8.8 51.7 2.9 95.1 59.7 1.5Z"/><path id="LY-DR" d="m443.7 53.2-4.5-15.6-34.9-10.1-2.1 59.9 6.1 5.9 26.7 11.6 8.8-51.7Z"/><path id="LY-SR" d="m304.8 120.4-44.3-25.9-38.2-6.3 12.3 58.8-3.5 8 28.5 4.5 7.7-4 12.5 23.6 16.1 8.2 9.1-66.8Z"/><path id="LY-BA" d="M383.5 96.4 380.3 78l-20.8-1.4-6.2-12.8 7-23.3-19.8 22.3 6.3 26.8 14.1 7.9 22.6-1Z"/><path id="LY-WA" d="m383.5 96.4-22.6 1-14.1-7.9-3.3 14.7-13.1 14.4-14.6 5.6-11.1-3.8-9.1 66.8 20.9 5.5v46.9l180.8-1.3v-36.8l-59.7-1.5-2.9-95.1L408 93.3l-12.3 2-12.4 1.1Z"/><path id="LY-JA" d="m404.3 27.5-19.6 4.9 11.2 62.9 12.3-2-6.1-5.9 2.1-59.9Z"/><path id="LY-MJ" d="m384.7 32.4-24.3 8-7 23.3 6.2 12.8 20.8 1.4 3.2 18.4 12.4-1.1-11.2-62.9Z"/><path id="LY-TB" d="m154.3 33.2-26.5-4.4-.8 5.8 5 14.3z"/><path id="LY-JG" d="m137 59.3-4.6-9.8-13.4 2.1-29.8-1.7 3.1 44.9-11.6 19.5 4.3 52.2 6.9 17.5 22.9 5.8 38-40.5 15.9 12.8 10.4-7 3.2-16.4 3-19.7-23-11.3L137 59.2Z"/><path id="LY-ZA" d="m127 34.6.8-5.8-16.5 2.4-22.1 18.7 29.8 1.7z"/><path id="LY-NQ" d="m78.1 17.5.7 28.3 10.5 4.1 22.1-18.7-33.2-13.7Z"/><path id="LY-JI" d="m132 48.9-5-14.3-8 17 13.4-2.1z"/><path id="LY-SB" d="m211.6 214.8-22.6 3.1-20.1 16.1-13.6 1.5 5.1 16-6.6 14.8 15.3-4.5 12.6-13.3 45.2-11.1-15.1-22.6Z"/><path id="LY-MI" d="m222.3 88.1-19.4-13.4-7.6-25.7-16-4.5-2.8 17.7-17-6.4-22.5 3.4 25.3 48.5 23 11.3-3 19.7 27.6 16.8 21.1-.5 3.5-8-12.3-58.8Z"/><path id="LY-MQ" d="m316.6 274.7-30-12.9-24.7 11.3-14.6-3.9-20.6-23.7v-8l-45.2 11.1-12.6 13.3-15.3 4.5-55.2 23.2-23.7.8 2.1 42.1L92.4 360l47.1 11.5 22.8 19 55.1-28 99.6 53.3-.6-141Z"/><path id="LY-GT" d="m74 267.3-8.3-42.5-36.6-13.4-6.5 18.5 5.4 22.3-15.4 18.7 18.9 27 .7 16.3 7.1 9.6 37.6 8.6-2.1-42.1z"/><path id="LY-WS" d="m168.8 162.1-15.9-12.8-38 40.5L92 184l-19.5 1.8-12.9-10.6L45 183l-19.1.2 3.2 28.3 36.6 13.4 8.3 42.5 51-36 30.2 4.2 13.6-1.5 20.1-16.1 22.6-3.1 2.6-12.6-9-4.8-17.8 2.5-1.8-9.3-16.7-16.7v-11.8Z"/><path id="LY-MB" d="m179.3 44.6-24.9-11.4-22.3 15.7.4.6 4.6 9.8 22.5-3.4 17 6.4 2.8-17.7Z"/><path id="LY-KF" d="M466.4 494.5V478h31l.1-239.7-180.9 1.3v35.1l.5 141z"/><path id="LY-JU" d="m231 155-21.1.5-27.6-16.8-3.2 16.4-10.4 7v11.8l16.8 16.7 1.8 9.3 17.8-2.5 9 4.8-2.6 12.6 15.1 22.6v8l20.6 23.7 14.6 3.9 24.7-11.3 30 12.9v-35.1l.1-46.9-20.9-5.5-16.1-8.2-12.5-23.6-7.7 4-28.5-4.5Z"/><path id="LY-NL" d="m89.2 49.8-10.5-4.1-39.3 27.1-4.9 9.2 2.7 25.4-10 13.6L9 129.6l11.9 18.3 5 35.3L45 183l14.6-7.8 12.9 10.6L92 184l-6.9-17.5-4.3-52.2 11.6-19.5-3.1-44.9Z"/></g></svg>