<svg xmlns="http://www.w3.org/2000/svg" xmlns:amcharts="http://amcharts.com/ammap" id="Layer_1" viewBox="0 0 512 512"><g id="_x3C_defs"><amcharts:ammap bottomLatitude="-25.607" leftLongitude="43.185" projection="mercator" rightLongitude="50.484" topLatitude="-11.952"/></g><g><path id="MG-FI-VF" d="m316.3 311-15.5-7.2-2.9 7.9-10.3.5-5.7 4-5.6 15.6-4.3 38.8-9 5.1 28.1 15.6z"/><path id="MG-AV-VA" d="m290.8 280.9-10.7-6.4.9-9.6h-3.9l-4.7 5.9-14.6-3.2-11.6 6.8-14.2.9-12.1.3-.8 15.7 13 7.3 2.5-2.6 2.3 7 8.2 2.4 11.2-.4 13-7.7 16.1.9 4.5-10.2.9-7.3Z"/><path id="MG-MA-SF" d="m332.8 87.1-4.3-1.8-4.9 3.6-10.5-6.1-5 1.6-6.7-3.8 2.2-5.3-7.4 7-1.2 9.3-2.6-8.5.8 5.2-5.2-.3-3.1 7.9 1.8 5.5 1.7-1.9 4.2.7 3 2.3v3.8c.1 0-1.5-4.1-1.5-4.1l-1.6 3.1-4.2-5.1-12.7 19.2 3.1-10.2-2.5-5.3-13.4 18.5 6.2 7.9-3 1.1 1.4 20.1 5.2 10.3 19.8 7.7 2.1-9.3 10.7-.4 11.5 8.1 2.1 10.5 7.9-2.9 10.4-15.6-7.4-4.8 4-23.2-3.6-3.5 11.8-4.2 3.5-10 4.2-.7-6.6-15.9L332.8 87Z"/><path id="MG-AS-SV" d="m368.2 148.4 3.5 1.8 3.7-5.7 5.5-19.9-9.9-17.8-2.3-34.3-6.9-26.4-10.5-12.6-8.3 9.4 3 3.1-4.3 11.5 2.1 7.1-3 12.8-8 9.8L343 97.8l6.6 15.9 15.5 8.2 3.1 26.6Z"/><path id="MG-TL-ME" d="m211.9 233.5-18.5-3.5-7.6 6.6 10 31.5-9.5 2.4-19.1-5.9 7.1 12.3-3.7 10.6 3.5 7.7-19.6 32.8-3 12.6-9.3 3.1 12.5 20.7 14.5-.4 9.3-3.2 4.9-18.4 10.7 3.2 17.6-14.3 7.5-1.6-.2-38.3.8-15.7v-8l-10.5-11.1 4.3-13.9-1.9-9.2Z"/><path id="MG-MA-ME" d="m187.9 158.7-14.9-.5-.5 18.1-17.1 28.2 11.6 60.1 19.1 5.9 9.5-2.4-10-31.5 7.6-6.6 18.5 3.5 8-2 5.6-15.2-3.3-13.8h-9.9l-3-16.2-16.3-16.2-4.9-11.3Z"/><path id="MG-AV-IT" d="m265.3 249.7-16.1-.7-17.2 26.4 14.2-.9 11.6-6.8 14.6 3.2 4.7-5.9-5.9-13.2-6-2Z"/><path id="MG-FI-HO" d="m260.4 379.4-15.5-2.3-4.7-11.1-6-3.2-24.3-5.8-9.7 9 3 8.8-10.7 27 2.8 6.4 9.3 2.6 1.9-9.5 19.9-6.6 16.2 18.7.6 17.6 12.1-1.5-.4-22.9 12.9 3.7-7.3-30.8Z"/><path id="MG-FI-HM" d="m276.3 331.8-8.2-3.7-12.5 6-9-11H241l-22.2 10.6-9 23.3 24.3 5.8 6 3.2 4.7 11.1 15.5 2.3 2.6-3.7 9-5.1 4.3-38.8Z"/><path id="MG-AS-DI" d="m306.2 53.8-4.6.4 1.2 4.8h4.9zm32.2-46.1-10.8 18.8-7.4-1.6 7.7 13.3-6 20.2-6 2.2-4.2-3 1.8 5.7-6.9.9-2.2 9.1-6.9-10.2-5.6 3-.4 8.7 4.8 7.6 7.4-7-2.2 5.3 6.7 3.8 5-1.6 10.5 6.1 4.9-3.6 4.3 1.8 8-9.8 3-12.8-2.1-7.1 4.3-11.5-3-3.1 8.3-9.4-3.3-10.4-10.6-5.5 1.2-2.9 3.7 2-3.9-8.9Z"/><path id="MG-AV-BO" d="m246.7 213.9-14.2 4.9-7.1-2.6-5.6 15.2-8 2 1.9 9.2-4.3 13.9 10.5 11.1v8l12.1-.3 17.2-26.4 16.1.7-14.4-21.8-4.1-14.1Z"/><path id="MG-MA-BO" d="m265.9 131.5-6.5 3.7 4-8-4.3-4.5-21.2 15.4-1.2 6.6 5.8 5-4.7.7-6.4-9.8-4.4 3.2 1.7 2.5-13.9-2.1-1.7 8.8-1.4-3.8-6.5 1.1-2.8 4.9-1.1-6.7-13.3 10.2 4.9 11.3 16.3 16.2 17.6.4 7.7 9 12-10.3 4-12.2 20.9 2.4-4.3-7.6 5.2-5.8-5.2-10.3-1.4-20.1Z"/><path id="MG-MA-BE" d="m292.3 169.7-19.8-7.7-5.2 5.8 4.3 7.6-20.9-2.4-4 12.2-12 10.3-7.7-9-17.6-.4 3 16.2h9.9l3.3 13.8 7.1 2.6 14.2-4.9 10.3-.8 5.3 4.7 8.6-3.5 10.8 7 10-1.7 10.3-26.5z"/><path id="MG-TM-AI" d="m316.3 311 28.3-82.4 1.2-23.1-5 .5-1.3 5.4-14.2 2.7-7.7 4.5 5.6 9.9-8.6 3.6-1.3 5 4.7 27.7-9.5 8.2-3 15.1-8.2-2.7-7.4 2.8-4.5 10.2-1.2 10.2 3.4 3.5 10.3-.5 2.9-7.9 15.5 7.2Z"/><path id="MG-FI-AA" d="M291.1 391.3 263 375.7l-2.6 3.7 7.3 30.8-12.9-3.7.4 22.9-12.1 1.5-2.4 5.9 15.3 11.6 1.4 6.2 7.6-11.3 10.5 5.4 15.6-57.2Z"/><path id="MG-TL-AF" d="m218.8 333.6.4-3.9-7.5 1.6-17.6 14.3-10.7-3.2-4.9 18.4-9.3 3.2-14.5.4-12.5-20.7-11 34.9 4.7 21.9 13.7 23.2-4.7 11.2 1.7 21.5 8.4 10.7 3.8 14.4 12.9 7.2-3.7-1.3 2.5 3.9 12.3 1.8 12.4-15.8 4.7-33.5 8.6-4.2-.4-11.3-6.5.5 2.8-18-9.3-2.6-2.8-6.4 10.7-27-3-8.8 9.7-9 9-23.3Z"/><path id="MG-TL-AY" d="m243.1 430.9-.6-17.6-16.2-18.7-19.9 6.6-1.9 9.5-2.8 18 6.5-.5.4 11.3 1.4 4.7 11.3 3.6 3.4 32.1 9.9 9.2 18.3-1.7 12.2-8.3 10.4-30.5-10.5-5.4-7.6 11.3-1.4-6.2-15.3-11.6 2.4-5.9Z"/><path id="MG-TL-AD" d="m197.7 504.3 13.7-1.5 23.2-13.7-9.9-9.2-3.4-32.1-11.3-3.6-1.4-4.7-8.6 4.2-4.7 33.5-12.4 15.8 14.9 11.2Z"/><path id="MG-TM-AN" d="m349.6 113.5-4.2.7-3.5 10-11.8 4.2 3.6 3.5-4 23.2 7.4 4.8-10.4 15.6-1.6 25-4.8 6.9 5.2 6.8 14.2-2.7 1.3-5.4 5-.5-1.5-8.3 5.6-13.4 8.4-3-4-2.6 4.7-11.1-.6-8.3-5.6-5.7 1.2-21.6 6.3-.9 7.8 17.7-3.1-26.6-15.5-8.2Z"/><path id="MG-AV-AG" d="m291.8 219.5-10 1.7-10.8-7-8.6 3.5-5.3-4.7-10.3.8 4.1 14.1 14.4 21.8 6 2 5.9 13.2h3.9l-.9 9.6 10.7 6.4 5.4-44.9z"/><path id="MG-FI-AM" d="m285.4 298.4-16.1-.9-13 7.7-11.2.4-8.2-2.4-2.3-7-2.5 2.6-13-7.3.2 38.3-.4 3.9 22.2-10.6h5.6l9 11 12.5-6 8.2 3.7 5.6-15.6 5.7-4-3.4-3.5 1.2-10.2Z"/><path id="MG-TM-AO" d="m326.6 175.5-7.9 2.9-2.1-10.5-11.5-8.1-10.7.4-2.1 9.3 9.9 23.3-10.3 26.5 4.5 16.5-5.4 44.9-.9 7.3 7.4-2.8 8.2 2.7 3-15.1 9.5-8.2-4.7-27.7 1.3-5 8.6-3.6-5.6-9.9 7.7-4.5-5.2-6.8 4.8-6.9 1.6-25Z"/></g></svg>