<svg xmlns="http://www.w3.org/2000/svg" xmlns:amcharts="http://amcharts.com/ammap" id="Layer_1" viewBox="0 0 512 512"><g id="_x3C_defs"><amcharts:ammap bottomLatitude="-17.13" leftLongitude="32.673" projection="mercator" rightLongitude="35.919" topLatitude="-9.367"/></g><g><path id="MW-MW1" d="m288.8 387.8-16.8-7.4-8.3 24.5 20.4 2.3 14.7-17 2.6-1.7-12.5-.7Z"/><path id="MW-NA" d="m281 180.8 3-5.2-4-2.6-2.2 6.2 3.3 1.5Zm-4.7-4.4-.3-4.2-5.1.5 5.3 3.7Z"/><path id="MW-PH" d="m345.3 428.3 2.4-31-10.5 1.7-8 7.9-1.8 5.5 6.2 16 11.6-.2Z"/><path id="MW-MJ" d="m345.3 428.3-11.6.2-6.2-16 1.8-5.5-11 5-1.8 21.1-.7 13.3 5.6-5.3 7.2 2.8 10.8-4.2 5.2-4.3z"/><path id="MW-MW2" d="m284 407.2-20.4-2.3L259 415l24.2 5.4z"/><path id="MW-BL" d="m306.5 402.4-7.8-12.2-14.7 17-.8 13.2 7 1 1.4 13 15.1-10.9-.2-21.2Z"/><path id="MW-ZO" d="m344.8 381.1-36.5 1.2-7 6.2-2.6 1.7 7.8 12.2 11.7 9.6 11-5 8-7.9 10.5-1.7-2.9-16.2Z"/><path id="MW-NS" d="m315.4 506.9-.8-28.2-8.7-10.7 6.2-9.1-8.4-4.4-2.1 10.1-10.3 14.2 13.7 8.7-3.1 18.2 13.4 1.3Z"/><path id="MW-TH" d="m316.5 433-9.7-9.5-15.1 10.9 12.1 20 8.4 4.4 3.7-12.5.7-13.3Z"/><path id="MW-CR" d="m318.3 412-11.7-9.6.2 21.2 9.7 9.5z"/><path id="MW-CK" d="m283.3 420.4-24.2-5.4-6.5 10.4 10.2 11.1 1.3 14 5.8 1.8 21.4 26.3 10.3-14.2 2.1-10.1-12.1-20-1.4-13-7-1Z"/><path id="MW-BA" d="M314.4 351.4h-16.9l-8.7 36.4 12.5.7 7-6.2 7.9-18.1-1.8-12.9Z"/><path id="MW-SA" d="m290 270.9-12.6-1.2-4.1-6.1h-15.1l-11.5 5.6-1 1 .3 7.7 9.6 3.4 1.4 4.6-3.3 2.2-3.8 5.6 5.8-1 12.6 17.1 14.2-2.4 7.6-36.4Z"/><path id="MW-NI" d="m246.8 269.2-1.8-20.5-2.7-4.3-5.6 3.7-2.5-9.1-17.9 13.7 8.3 17.5h21.2z"/><path id="MW-NU" d="m297.5 351.4-11.5-13-2.9-16.4-12.6 8.2-9.2-1 8.2 12.6 2.4 38.6 16.8 7.4 8.7-36.4Z"/><path id="MW-MC" d="m199.3 278.2-8.3-8.6-2.9-10.1-14.2.8-13.7 17.9 5.6 1.2 2.6 4.2-3 4.3 6.6 2.8 7.4 14.9 8.3-8.1 12.8 19.8-1.1-16.4-5.1-9.5 4.8-13.2Z"/><path id="MW-MG" d="m342.6 337.6-39.5-54.5-13-12.2-7.6 36.4.7 14.6 2.9 16.4 11.5 13h16.9l.8-4.9 9.9 5.2 6.3-10 11.2-4.1Z"/><path id="MW-LI" d="m253.7 288-11.9 2.8-15.6-4.2-2.2-6.4-13.4 2.8-6-14.4-5.3 9.6-4.8 13.2 5.1 9.5 1.1 16.4 15.5 21.5 5.8-11.4 12.9-6.2 20.7-28.6-5.8 1 3.8-5.6Z"/><path id="MW-DO" d="M245.7 270.1h-21.2l-8.3-17.5-5.5 7-3.8-1-2.3 10 6 14.4 13.4-2.8 2.2 6.4 15.6 4.2 11.9-2.8 3.3-2.2-1.4-4.6-9.6-3.4z"/><path id="MW-DE" d="m282.4 307.3-14.2 2.4-12.6-17.1-20.7 28.6-12.9 6.2-5.8 11.4 2.6 2.9 3.4-7.6 4.9 2.8 34.3-7.8 9.2 1 12.6-8.2-.7-14.6Z"/><path id="MW-MA" d="m344.8 381.1 6.9-21.2-3.4-15.4-5.7-7-11.2 4.1-6.3 10-9.9-5.2-.8 5 1.8 12.9-7.9 18.1 36.5-1.2Z"/><path id="MW-RU" d="M275.6 81.9h-30.2l-9.7-8.4-16.3 7.8-10.2 12.6-15.4 6.2 2.9 7 8.5 2.4.8 6.2 5.5-5.6 10.9 4.1 1.4-3.7h10.4c0-.1 1.3-4 1.3-4l6.6 7.3 10.6-7.1h22.7l3.4-13.7-3.2-10.9Z"/><path id="MW-NK" d="m259.9 186.2-30.4-4-4.4 8.3 9.2 12L245 205l-16 13.7-.4 8.5 6.1.4 4.1 5.6-4.7 5.8 2.5 9.1 5.6-3.7 2.7 4.3 1.8 20.5 11.5-5.6h15.1l-5.2-46.3z"/><path id="MW-NA1" d="M275.4 106.5h-22.7l-10.6 7.1-2.2 10.9 4.9 12.7-14.2 5.9-5.5 8.7 3 20.7-6.3 6.4 7.5 3.3 30.4 4 12.3-24.1 3.1-16.2 20.6-.3-4.6-12.7-7.2-1.9-8.6-14.5-.2-9.9Z" data-name="MW-NA"/><path id="MW-MZ" d="m242.2 113.6-6.6-7.3-1.3 3.9h-10.4c0 .1-1.4 3.8-1.4 3.8l-10.9-4.1-5.5 5.6-.8-6.2-8.5-2.4 5.9 12.2-9.5 16.2-1 9.5 5 1.9 1 11.5-3.6 23.6 5.7 12.1 9.7 3 4.2 1.6-.8 15.8 15.6 4.3 16-13.7-10.7-2.5-9.2-12 4.4-8.3-7.5-3.3 6.3-6.4-3-20.7 5.5-8.7 14.2-5.9-4.9-12.7 2.2-10.9Z"/><path id="MW-KS" d="m229.1 218.7-15.6-4.3.8-15.8-4.2-1.6-20.2 15.9-8.8-.5-5 10.1 4.3 9.5-.9 18.4-5.5 9.6 14.2-.8 2.9 10.1 8.3 8.6 5.3-9.6 2.3-10 3.8 1 5.5-7 17.9-13.7 4.7-5.8-4.1-5.6-6.1-.4.4-8.5Z"/><path id="MW-CT1" d="m178.1 5.1-3.2 1.7 3.9 14.1 5.5 2.2 1.1-4.7 4.6.9 10 14.6-2.3 14.9 13.6 10.7 8.3 21.9 16.3-7.8L221.3 49l-13-6.5 12.9-11.7-2.9-10.9-12.5.7-8.2-8.3-7.5 1.2-11.7-8.3Z"/><path id="MW-CT2" d="m275.6 81.9-5.7-36.7-12.3-18.5-18.1-15.4-6 15.4-10.5-8.6-5 1.7 2.9 10.9L208 42.4l13 6.5 14.6 24.6 9.7 8.4h30.2Z"/></g></svg>