<?xml version="1.0" encoding="UTF-8"?>
<svg id="Layer_1" xmlns="http://www.w3.org/2000/svg" xmlns:amcharts="http://amcharts.com/ammap" version="1.1" viewBox="0 0 512 512">
  <!-- Generator: Adobe Illustrator 29.1.0, SVG Export Plug-In . SVG Version: 2.1.0 Build 142)  -->
  <g id="_x3C_defs">
    <amcharts:ammap bottomLatitude="10.160296" leftLongitude="-12.243402" projection="mercator" rightLongitude="4.244202" topLatitude="25.000722"/>
  </g>
  <g>
    <path id="ML-BKO" d="M133.6,417.1h0v-.9c.1,0,1,.6,1,.6l.7,1.6,1.7.5.4-.4-.3-2,.6-.7v-1.5s-1.2-1.6-1.2-1.6l-1.2,1h-1.1c0,0-.1.7-.1.7l-.7-.6h0l-.6,3.7.8-.2Z"/>
    <path id="ML-1" d="M95.3,326.3h5.2s4.5,3.9,4.5,3.9l4.4,2.5,1.3,1.4,1.9,9.3,1.5-.4.4-.7,5.3.8.7,2.2v6s4.8,2.9,4.8,2.9l2.5,2.5,2.2.5.3.5-.2,1.5-.9,1.3,1.8,1.7-.9.6-3.4.5-2-.3-3.7.5-.9-.5-1.5-2.4-1-.7-.7.2-1.7,2.9-1.9.8-2.8-.2-.5.7.6.3.6,1.6.6.3.2,2.8-.5.5-.6-.5h-1c0-.1-.2.2-.2.2l.4,1.7-.9.6v.8c0,0-.5.1-.5.1l.5,1.2h.5c0-.1.3.5.3.5l.8.2.3,1,1.1-.5-.2.6.4.9h.7c0,0,.3.9.3.9l1.3-.5,1,.9,1.7-1h-.8c0-.1,0-.6,0-.6l.8-.6-.3-1,1.2-.9,2.1.3.7,1.2-.2.7.5.7-.6.2.3,1.1-1.4,1.4v1.1s-.8.3-.8.3l-1,1.7.4,3.1h-.5c0,0,1.3,1.3,1.3,1.3l.3.9.9.4.7,2.7-1.1.3-.6.7.2.9h-.4s-.7,1.2-.7,1.2l.4.7-.5,1.1-1,.7-.4,1.9.4.9-.8.8.6,1.8v1.7c0,0-.8,1.6-.8,1.6l-1,.2.3,1.2-1,.9,1.4,1.7v1.1c0,0-3.7,3.4-3.7,3.4l-.8,1.6-1.9-.5-.5.6-.9.2-.8,2.6-1.7.7-2.6,2.1h0l-1.3-.3-2.3-1.5-2.8-.5-1.1.6-.9-.6-.5.7v-.5c-.1,0-.8,0-.8,0l-.2.7-1.1.4v.5s.6,0,.6,0l1.5,2.2,1.1.7-.8,1.2v1.3c0,0-.6.3-.6.3v.6s-2.2-.5-2.2-.5l-2,.4-1.9,1.6-2.7.6-1.4,1.5v1.4c0,0-.5.7-.5.7v1c-.1,0-2.2-.2-2.2-.2l-1.2-.8h-2.2s-1-1.3-1-1.3h-1.7s-.9-.9-.9-.9l-1.7-.7-.2.3-.7-1.2-1.8.2-1.4-.9h-1.5s-.2-.5-.2-.5h-1c0,0-.3.8-.3.8l-.5-.9-.9-.2v1.2c.1,0-.6-.1-.6-.1l-.4.8-1.2-.2v1c0,0-1.4.8-1.4.8h-1.8c0,.1.3,1,.3,1l-.5.2v1.1s-1.7.6-1.7.6l.5.7-1.5.6-.8,2-1,.6-1.8-.7-.6-.8-.2-1.5-1.2-1.3v-2.2c.1,0-1.5-.7-1.5-.7l-1-.9-.4-1.3-1.3-.6-2.5.5-.9-.5-.9,2.6-1,.5-.2.7h-.9c0,0,0,1.4,0,1.4l-1.3,1h-.9s-1.4.8-1.4.8l-1.7-.9-1.5-1.2-.4-1.4-2.7-.9-.9-1.4v-1c0,0,1.8-2.4,1.8-2.4l-.5-2,.3-.9.7-.5v.5c.1,0,1.3-.4,1.3-.4l-.2-1.6.7-.8-.3-1-.6.4-.2-1.4h-.6c0-.1-.1.4-.1.4l-1-.8.3-.5h.7s.2-.6.2-.6l-.6-.8.5-.5-.3-.9-.9-.3.3-1.1h.3s.2-.9.2-.9h1.5c0-.1-.8-1.3-.8-1.3l.3-1.8h-.6s-.1-.5-.1-.5l.7-1.8-.4-.8,1.5-.2-.2-1.3-.6-.5-.3,1-.8-.2v-.8s.4-.4.4-.4l-1-1.5v-.8c.1,0-1.2-.5-1.2-.5l-1.2-1.6.4-1.2-1.2-.5.4-1.5-.7-1-1.2-.7-.2-1.7h-1.2c0,0,.2-.9.2-.9h-1.9c0,.1-.3-.5-.3-.5l-1-.2-.9,2.2-1,.9h-.8c0,.1-.7-1.4-.7-1.4l-1.2-1,.7-1.5v-.9c-.1,0-2.8-2-2.8-2l-2-2.6-1.4-3.3,2.2-1.5,1.5-1.6.4-2.7v-.9c0,0-2.2-2.2-2.2-2.2v-1.4s.8-1.7.8-1.7v-2.1c0,0-1.1-3.5-1.1-3.5l-2.3-.8-.3-.6.4-.2v-1.1c0,0-3.2-1-3.2-1v-2.1l-.6-.6.2-1.7.8-.2.5-1.7.7-.3.2-.7-1-.6.5-.7-1.5-.5v-.9c0,0-.7-.4-.7-.4v-.7c-.1,0,1.7,0,1.7,0l1.3-.5,2.4,1.8.3-1.3h2.1c0,0,.9-.8.9-.8l.3-1,2-1,1.9-1.6-.3-1,.7-3-.3-.6h-1.3c0,0,.3-1,.3-1l-.4-.5.9-1.4-.6-1.4.9-1.6.3-2.2.8-1,.7-3.7,1-1v-1.6c0,0,1.4,0,1.4,0l.7.5,2.1-.5.3-1.2,2-1.3-.3-.6.4-.2h2.3c0,0,1.6,2.1,1.6,2.1l.3,1.5,1,.6,2.3,2.7,1.6.8,6.1,4.9,2.9,4.2.7-.8.2-1.8,1.2-.9.2-1.6.9-1.1h.5c0,0,.1-.5.1-.5l1.5-.9v-2.7c0,0,1.2,0,1.2,0l.7.9,4.7-1.1,5.2.2,6.2,2.1,4,.3,2.3-.5,1.8.4,1.6-.2,1.8-1.4h1.2c0,.1.4-.6.4-.6l8.8-.2-1.1-5.1,3.4-3,.6.8-.7,4.7.2.6h.7Z"/>
    <path id="ML-2" d="M145.2,326.2h40.9c0,0-2.7,10.1-2.7,10.1l-3.7,5.5-.7,1.7,3.4,5.3,1.7,5.3v2.1s-1.5,2.3-1.5,2.3l-.8.6-3.7-1.1-1.2.4-.5,1.4-3.7,5.2-2.6,5.8-1.4,2.1v3.3c0,0-.7,2.4-.7,2.4l.3,1.7,2,2.2-.6,2.1,2.4,3.3.3,1.6-1.1.7-.7,1.7,2.6.8h-.8c0-.1-1.5.6-1.5.6l-2.1-.4-2.5,1.3-.6,1.6-1.9,1,1,2v1c0,0-1.9,3.8-1.9,3.8l1.4,1.5v2.4s4.6.7,4.6.7l-.4.4v1.8c0,0,.5-.5.5-.5l.4.5.7-.8,1.1-.2.6,1.5.6-.5,4.4-.6,1.4.6,2.1,2.2.2.8,1.2-1,1.4.5v1.8s1,2.1,1,2.1h.7c0,.1.4.8.4.8l1.3-.4,1.3.8h0l.5.8-.2.7h-.6c0,0,1.1,2.1,1.1,2.1l-.7.3-.3.8,1.4-.3,1.9.5,1.1,2.5,1.4.5h.9c0-.1.3-.9.3-.9l1.3.2.3.8-.3,1.2,1.2.7v2.2c-.1,0-5.1.3-5.1.3l-.4,2-.8.6h-.8s-1.5-1.3-1.5-1.3l-2.4.8-1.6,1.8.6,2.7-1.9,2.7-.7,2.2-1.2,1.3-.6,2.5-1.7.3.2-1-.6-1.2v-1.2c0,0-3.4-1.3-3.4-1.3l-.8.9-.6-1.1-3.5-.8-2-2.2h-1c0,0,0-1.7,0-1.7l-.5-.7-4.3.4-.4-.4.9-1.4-.9-.6h-1c0,0-.4-.5-.4-.5l.6-.7h1c0,.1.3-.2.3-.2l.2-1-1.3-.3,2-1.5-.3-.9-1.2-.3.9-1.8-1.3-1.2.2-.9-.5-1.3.7-2.1h-.5c0,0-.6,1-.6,1h-.6c0,0-.9,1.9-.9,1.9h-1.4c0,.1-1,.9-1,.9l-.4,2.2h-.5c0,0-.4.6-.4.6l-1.2.4-.2.5h-.8l-.9,1.1h-.7l-1.9,1.4-.5,1.7.5,1.2-1.2,1.5h-.8c0,.1-1,1.3-1,1.3l-2.3-.2-.8,1.1-3.5,1-1.3,1.7-2.7,1.3-2,2.4-1.2.7-3.7-.2.2-.7h-.7s-1,.8-1,.8l-6.7,1.4.3.6-1.1,1-.8-.4v.8s-.7.5-.7.5l.5.6-.5.7.3.7-1.3.6.3.4h0l-.4.5-1.1-.3-1.3-1.4-.6-2-.5-.3v-1.8c0,0-1.4.2-1.4.2l-.8.7-.8-.5-2.1-.2,1.8-9.1-.6-1.5.3-1-.8-1h-.7c0,0-.5.5-.5.5l-1.3-.6v-1.7c0,0,.5-1.6.5-1.6l-.2-.7-.7-.9-1.5.5v-.9c-.1,0-.6-.3-.6-.3l.2-1.8.8-.9v-.7s-2.5-3-2.5-3h0l2.6-2.1,1.7-.7.8-2.6.9-.2.5-.6,1.9.5.8-1.6,3.7-3.4v-1.1c0,0-1.4-1.7-1.4-1.7l1-.9-.3-1.2,1-.2.7-1.6v-1.7c0,0-.5-1.8-.5-1.8l.8-.8-.4-.9.4-1.9,1-.7.5-1.1-.4-.7.7-1.2h.4s-.2-.9-.2-.9l.6-.7,1.1-.3-.7-2.7-.9-.4-.3-.9-1.3-1.2h.5c0,0-.4-3.2-.4-3.2l1-1.7.8-.3v-1.1s1.4-1.4,1.4-1.4l-.3-1.1.6-.2-.5-.7.2-.7-.7-1.2-2.1-.3-1.2.9.3.9-.8.6v.5c0,0,.9.1.9.1l-1.7,1-1-.9-1.3.5-.3-.9h-.7c0,0-.4-.9-.4-.9l.2-.6-1.1.5-.3-1-.8-.2-.3-.6h-.5c0,.1-.5-1.1-.5-1.1h.6c0-.1,0-.9,0-.9l.9-.6-.4-1.7.2-.3h1c0,.1.6.6.6.6l.5-.5-.2-2.8-.6-.3-.6-1.6-.6-.3.5-.7,2.8.2,1.9-.8,1.7-2.9.7-.2,1,.7,1.5,2.4.9.5,3.7-.5,2,.3,3.4-.5.9-.6-1.8-1.7.9-1.3.2-1.5-.3-.5-2.2-.5-2.5-2.5-4.8-2.9v-6s-.7-2.2-.7-2.2l-5.3-.8-.4.7-1.5.4-1.9-9.2-1.3-1.4-4.4-2.5-4.5-3.9h0l44.6-.2ZM133.6,417.1h0v-.9c.1,0,1,.6,1,.6l.7,1.6,1.7.5.4-.4-.3-2,.6-.7v-1.5s-1.2-1.6-1.2-1.6l-1.2,1h-1.1c0,0-.1.7-.1.7l-.7-.6h0l-.6,3.7.8-.2Z"/>
    <path id="ML-3" d="M187.5,417.6l1.5-1.6,4.6-2.2,1.4-2.9,1.4-.2,1.6.6,3.1.2,6.2-2.2h1c0,.1.4,1.2.4,1.2l1.7,1.7.3,1.2,1.6.5.7,1.6,1-.4v-1.3c0,0,.8-.9.8-.9l.7-2.2,3-1.1,2.4,1.8.9,1.1.8,3.5-.6,1.4,2.9-.3-.8-1.7.5-.3,2.1.2.8.9,3.5-.5.2-1.2,2.3-3.2.3-1.7.8.4,1-.2.8,1.9,1,.7,1.6-.6.4.4h1.8s-.2,2.1-.2,2.1l1.8,1.5,1,2.2-1.1,1.5-.7,2.1v1.2c0,0,1,1.9,1,1.9l-1.9-.3-.6,1.7-2.6,2.4.9,1.2-.2.5-1.7.7-1,1.8h-1.5c0,.1-.8,1.8-.8,1.8l-3.2-.6-4.7,1.1h-2.5s-2.3,1-2.3,1v.5c0,0-.7,0-.7,0l-.3.8-1.9,1.3-.5.9-.6-.6-2.1.9-.8-.5-.8.3,1.6,1.1.2-.3,1.6.6.4.8h.7c0-.1-.2,2.3-.2,2.3l-.8,2,.4.4h1.3s.5.6.5.6l.6,1.7-.3,1.9.4,1-.5,1.1-1.5,1.1-.2,3.8-1.7,1.1-.4,1.9-1.6,1.2-3.1,1.1.2,2.7.6.4.6,2.7.8.6-.8,2.5-.8.4-.3,4.1.5.8v1.1s-1.6,3.9-1.6,3.9l-1.5-1-.8.4-2.4-.3-2.1,1h-1.4c0,0-1.7,1.5-1.7,1.5l-1.2.5-.6,2.7h-2c0,0-.4,1.8-.4,1.8l-1,.7-3-.2-1.9-.7-.5-.9h-.7c0,0-.5-1.3-.5-1.3l.8-.5.6.4.3-.5-.3-.8.9-.6-.8-.7.2-.7.7-.3-.9-1.3.8-.8-1.2-.3-.5-.9-.4.3-.5-.2v-.6c0,0,1.1-.8,1.1-.8l-.3-1.4,1.1-.6-1.4-1v-1.1c0,0,.6-.7.6-.7l-1.3-.4-2.8,1.3-1-.6-1,.4v2.3c-.1,0,.6.6.6.6l-1.4,1.3-2.9-.7-3.1-2.6-.5.9h.4c0,.1-.8.7-.8.7l.3,2.6h-.5c0,.1-.2,1.5-.2,1.5l.2.7,1.5.8-1.3,2.3-.8.3-2-1.1-2.7.9-2.8-.2-1.5,2,.9,2v1.1c0,0-1.9,1.2-1.9,1.2h-.5s-1.3-1.9-1.3-1.9l-2.7-1-3.1-.2-.4-.7-1.1.6-1.4-.2.4-2.7-1.8-.8-1-2.5-1.5-.3-1.7,1.2-1.5-.2-.8-1.2-1.1,1.4-1.8.7-.2.7.4.2-.3.4.3.7-.9.3v.6c0,0-.6.3-.6.3l.6.3-1.3,1.1-.5,1-3.3,2h-1.6c0-.1,1-2.1,1-2.1l-.6-2.2-1.2-.9-2.6-.5-.9-2-1.6.7-1.6-.3-.6-1.7-.5-.3-.5-1.3v-1.7c.1,0-.8-1.8-.8-1.8l-.2-2.4.3-1.1-1-.3.7-1.8.9-1-.4-4.3-1.1-1.6-1.5-.8-1,.4-2-.2-.9,1.1-.4,1.8h-.6c0-.1-1.7.7-1.7.7l-1-.5-1.2.5-.5-.2v-1.6c-.1,0,.8-.8.8-.8l.2-.9.7-.8v-.9c0,0,1.2-.2,1.2-.2l.3-.4v-2c.1,0,2.6-.5,2.6-.5l-.4-1.3.4-.7,2.7.4.5-.2.4-1.2-1.7-.4.3-.9,1.1-.2-.2-.2-3.3-.5-1.1-1.2.3-.4-.4-1-1,.5h0l-.3-.4,1.3-.6-.3-.7.5-.7-.5-.6.6-.4v-.8s.8.4.8.4l1.1-1-.3-.6,6.7-1.4,1-.8h.7s-.2.8-.2.8l3.7.2,1.2-.7,2-2.4,2.7-1.3,1.3-1.7,3.5-1,.8-1.1,2.3.2,1-1.1h.8c0-.1,1.2-1.7,1.2-1.7l-.5-1.2.5-1.7,1.9-1.4h.7l.9-1.1h.8l.2-.5,1.2-.4.4-.7h.5c0,0,.4-2.2.4-2.2l1-.8h1.4c0-.1.9-1.9.9-1.9h.6c0,0,.6-1,.6-1h.5c0,0-.7,2-.7,2l.5,1.3-.2.9,1.3,1.2-.9,1.8,1.2.3.3.9-2,1.5,1.3.3-.2,1-.3.3h-1c0-.1-.6.6-.6.6l.4.6h1c0,0,.9.5.9.5l-.9,1.4.4.4,4.3-.4.5.7v1.7c0,0,1.1,0,1.1,0l2,2.2,3.5.8.6,1.1.8-.9,3.5,1.3v1.2c0,0,.5,1.2.5,1.2l-.2,1,1.7-.3.6-2.5,1.2-1.3.7-2.2,1.9-2.7-.6-2.8,1.6-1.8,2.4-.8,1.5,1.2h.8s.8-.6.8-.6l.4-2,5-.3v-2.2c.1,0-1-.7-1-.7l.3-1.2-.3-.8-1.3-.2-.3.8h-.9c0,.1-1.4-.4-1.4-.4l-1-2.5-1.9-.5-1.4.3.3-.8.7-.3-1.1-2h.6c0-.1.2-.8.2-.8l-.5-.8Z"/>
    <path id="ML-4" d="M215,324.6l.4,1.7h3.3c0,.1,1.4.7,1.4.7l2.7,8.7-3.2,5.2-1.8,1.5h-2.9c0,.1-5.6,1.5-5.6,1.5l-1.8,5.1.4,2.4-.6.9-.2,2.3-1.2.9v.9c0,0,13.5,8.5,13.5,8.5l-.2,1.1.9,1.6,2.1,1.5-.9,1.9.7,3.2,2.1.4,2.2-.4-.2-2.3.5-1.1.6-.7,1.6-.2,1.4,4.1-.2,1.2-1,1.7.7,2.9-.7,1.5.6,2.9,4.3.4,1-.3,4.5.7,2.7-1.8v-.8c0,0,1.5-.3,1.5-.3l.6-.6,2.5-4.5,6-2.1,2.2,3,.8,4.1,1.6,3.3-.2,3h-.6v1.2l-.6.8-2.9,1.5-.6,1.9-.7.9-3.4,2.1.4,1.5h-1.2c0,0-2.1,1.5-2.1,1.5l3.7,5.7v5.3c.1,0-.5,1.6-.5,1.6l-1.9.9-1.8-1-3.4.4h-1.8s-.4-.4-.4-.4l-1.6.6-1-.7-.8-1.9-1,.2-.8-.4-.3,1.7-2.3,3.2-.2,1.2-3.5.5-.8-.9-2.1-.2-.5.3.8,1.7-2.9.3.6-1.4-.8-3.5-.9-1.1-2.4-1.8-3,1.1-.7,2.2-.7.9v1.3c0,0-1.1.4-1.1.4l-.7-1.6-1.6-.5-.3-1.2-1.7-1.7-.4-1.1h-1c0-.1-6.2,2-6.2,2l-3.1-.2-1.6-.6-1.4.2-1.4,2.9-4.6,2.2-1.5,1.6h0l-1.3-.8-1.2.4-.4-.6h-.7c0-.1-1-2.2-1-2.2v-1.8s-1.4-.5-1.4-.5l-1.2,1-.2-.8-2.1-2.2-1.4-.6-4.4.6-.6.5-.6-1.5-1.1.2-.7.8-.4-.4-.5.5v-1.8c0,0,.3-.4.3-.4l-4.6-.7v-2.4s-1.4-1.5-1.4-1.5l1.8-3.8v-1c0,0-.9-2-.9-2l1.9-1,.6-1.6,2.5-1.3,2.1.4,1.5-.7h.8c0,.1-2.6-.7-2.6-.7l.7-1.7,1.1-.7-.3-1.6-2.4-3.3.6-2.1-2-2.2-.3-1.7.6-2.4v-3.3c0,0,1.5-2.1,1.5-2.1l2.6-5.8,3.7-5.2.5-1.4,1.2-.4,3.7,1.1.8-.6,1.5-2.3v-2.1s-1.7-5.3-1.7-5.3l-3.4-5.3.7-1.7,3.7-5.5,2.7-10h0l24.2-.4h0l4.6-1.3Z"/>
    <path id="ML-5" d="M215,324.6l3.9-3.8,2.3,2,1,.2h3.8c0,0,2.5.6,2.5.6l.9-.6,5.2.7,1.7-.4,1.3.2,4.8-2.2h3c0,.1,1.6-2.4,1.6-2.4l2.1-.6.2-.9,1.8-.3.9-.6,2.5-.3,1,2.4,1.1,1,1.2,1,2.1.4v1c0,0,.9,2,.9,2l-1,1.9,2.6.7,2.2-.2,2.1.4,2.4-2.6.5-1.8,1-.6,1.2-2.7,4.4.7,1.5-.6-.4-1.3.3-.3-.9-.7.5-1.1,1.2-.9,5-.3,3.4-.9h.3c0,.1.2,3.5.2,3.5h4.6c0,0,1,1.1,1,1.1l.7,1.2.3,1.9,4.7,8.3,2.1,1.7,2.5.6,9.1-3.3,3.3-.5,10.7-.2,5.4,1.6,3.3,1.6,6,4.8,13.6,3.4h0l-2.3,1.6-3.9,4-2.4,1.6-11.6,1.8-17.5,5.9-.7.9-4,9.6-10.9,3.4-10.5,4.4-2.3,5.3.6,5.3-.6.6-.7.3-1.6-1.3-1.4,1.4-.5-1.2-1.2-1-2.4.3-1.6-.8h-1.2c0,0,.7,2,.7,2l-.2,2.3-.6,1.3.7,5.4.7,1.6-.6.7-5.3.6.4,2.2-.4.9-3-.3-2-.9-2.2-1.9-1.6-.6-2.3-2.3-5.1-.9v-.8c0,0,1.6-.7,1.6-.7l-.9-.7-.5-1.3h0l.2-3-1.6-3.3-.8-4.1-2.2-3-6,2.1-2.5,4.5-.6.6-1.6.3v.8c0,0-2.6,1.8-2.6,1.8l-4.5-.7-1,.3-4.3-.4-.6-2.9.7-1.5-.7-2.9,1-1.7.2-1.2-1.4-4.1-1.6.2-.6.7-.5,1.1.2,2.3-2.2.4-2.1-.4-.7-3.2.9-1.9-2.1-1.5-.9-1.6.2-1.1-13.6-8.5v-.9c0,0,1.3-.9,1.3-.9l.2-2.3.6-.9-.4-2.4,1.8-5.1,5.6-1.3h2.9c0-.1,1.8-1.6,1.8-1.6l3.2-5.2-2.7-8.7-1.4-.6h-3.3c0-.1-.4-1.8-.4-1.8Z"/>
    <path id="ML-6" d="M225.7,21.1h5.1s2.1,1.4,2.1,1.4l93.2,64.2,50.6,35.6.2,1.2h0l-6.3,20.3-.7,1-20,16.8h-.6c0,.1-6.9,6.8-6.9,6.8h-.7s-3.2,3.1-3.2,3.1l-1.3.3-3.7,2.4-2.9,1.2-15.3,8.5,33.4,27.1,1.9,3.5h0l.2,2.8-.5,1.7-.4,15.4-.4.5-.5,12.3-23.6,15.7,4.5,17.2,26.4,2.1-.6,11.3.6,15.8,1.3,7.4,5.5,22.3h-7.3s-1.4.5-1.4.5h0l-13.6-3.4-6-4.8-3.3-1.6-5.4-1.6-10.7.2-3.3.5-9.1,3.3-2.5-.6-2.1-1.7-4.7-8.3-.3-1.9-.7-1.2-1-1.1h-4.6c0,0-.2-3.4-.2-3.4h-.3c0-.1-3.4.7-3.4.7l-5,.3-1.2.9-.5,1.1.9.7-.3.3.4,1.3-1.5.6-4.4-.7-1.2,2.7-1,.6-.5,1.8-2.4,2.6-2.1-.4-2.2.2-2.6-.7,1-1.9-.9-2v-1c0,0-2-.4-2-.4l-1.2-1-1.1-1-1-2.4-2.5.3-.9.6-1.8.3-.2.9-2.1.6-1.6,2.5h-3c0-.1-4.8,2.1-4.8,2.1l-1.3-.2-1.7.4-5.2-.7-.9.6-2.5-.7h-3.8c0,0-1-.1-1-.1l-2.3-2-3.9,3.8h0l-4.6,1.3h0l5.4-25.8-8.3-5.2-12-115.1-13.7-123.8-3.4-34.9h47.4Z"/>
    <path id="ML-7" d="M350.6,214.7l28.9,7.2,11.9,20.8-1,1.7-1.1.6.2,1.7,1.3,1.7.6.5h3.7s10.7,3.4,10.7,3.4h.7c0-.1,3.3,2.6,3.3,2.6l3.2,1.8,18.3-4.5-1,2.3h4.9c0,.1,1.8-9,1.8-9h8.2c0,0,5.9,2.9,5.9,2.9l23.4-2,30.9.7h0v32.3s-5,2.4-5,2.4v18.6s-2.7,8.1-2.7,8.1l.5,2.3-1.7,1.4-.5,1-.7,4.2-1,2.6-1.5.9-2.5.3-1,.5-3,3.5-2.2,1.3-.2,4.4h-13l-14.2-.8-39.5,3.2-10.6,8.9-7.7.6-.5.4-5-1.1-.8-.6-3.3,1-4-.6-5.3.4-3.1-.2-7.4-2.9-4.1,2.2-2.1-2.3h0l-5.5-22.3-1.3-7.4-.6-15.8.6-11.3-26.4-2.1-4.5-17.2,23.6-15.7.5-12.3.4-.5.4-15.4.5-1.7-.2-2.8Z"/>
    <path id="ML-8" d="M413.1,160.6h1.5c0,0,2-.5,2-.5l.7.4.5,1.4.8.7,2.5.5,5.4,2.3.7,1.4.4,4,2.9,2.2,1.1,1.5h2.2s1.2,1.9,1.2,1.9l1.3-.7,1.6.6,1-.5,1.6,1.4,2.3-2.4h1.1c0,0,3.2,2.5,3.2,2.5l3.1,4.9,1.5-.2,1.4,1.2,2,.6h3.8s3.2,1.1,3.2,1.1l4.6.6,6.2,3.6,1.9.4-.6,4.6.7,1.1-.7,2.2,1.2,1.9-.5,1.2,1,1.8v.9c0,0-1.8,1.9-1.8,1.9l-.6,1.2v.9c0,0-2.5,2.8-2.5,2.8v.7s.6,1.4.6,1.4l6.1,4.8,27.7-5.5v35.7h0l-30.9-.7-23.4,2-5.9-3h-8.2c0,0-1.8,9.2-1.8,9.2h-4.9c0-.1,1-2.4,1-2.4l-18.3,4.5-3.2-1.8-3.3-2.7h-.7c0,.1-10.7-3.3-10.7-3.3h-3.7s-.6-.6-.6-.6l-1.3-1.7-.2-1.7,1.1-.6,1-1.7-11.9-20.8-28.9-7.2h0l-1.9-3.5-33.4-27.1,15.3-8.5,2.9-1.2,3.7-2.4,1.3-.3,3.2-3.1h.7s6.9-6.6,6.9-6.6h.6c0-.1,20-16.9,20-16.9l.7-1,6.3-20.3h0l.3,1.3,35.2,23.1.7,4.9-1,6.5,1,1.1Z"/>
  </g>
</svg>