<?xml version="1.0" encoding="UTF-8"?>
<svg id="Layer_1" xmlns="http://www.w3.org/2000/svg" xmlns:amcharts="http://amcharts.com/ammap" version="1.1" viewBox="0 0 512 512">
  <!-- Generator: Adobe Illustrator 29.1.0, SVG Export Plug-In . SVG Version: 2.1.0 Build 142)  -->
  <g id="_x3C_defs">
    <amcharts:ammap bottomLatitude="-20.5344343112" leftLongitude="57.300567627" projection="mercator" rightLongitude="57.8155517578" topLatitude="-19.9736714582"/>
  </g>
  <g>
    <path id="MU-PW" d="M182.5,196l-19,197.7,34.1,35.3,55.1-20.3,50.1-58.8-106.3-151.7-14-2.1Z"/>
    <path id="MU-PL" d="M252.9,209l-6.2-79.3h-42.7c0,.1-28,39.1-28,39.1l6.5,27.1,14,2.1,56.4,11Z"/>
    <path id="MU-SA" d="M115.7,503.8l216.3-5.9-34.2-86-45.1-3.2-55.1,20.3-89.2,30,7.4,44.9Z"/>
    <path id="MU-RN" d="M115.7,503.8l-7.4-44.9,89.2-30-34.1-35.3,19-197.7-6.5-27.1-80.7,81.1-18.4,183.5-50.7,3.5,89.4,66.8Z"/>
    <path id="MU-RR" d="M284.7,8.2l47.2,154.6,96-59-50.4-95.6h-92.8Z"/>
    <path id="MU-PA" d="M284.7,8.2l-80.8,121.6h42.7c0-.1,6.2,79.2,6.2,79.2l57.5-17,21.4-29.2L284.7,8.2Z"/>
    <path id="MU-MO" d="M252.9,209l-56.4-11,106.3,151.7,64.2-15-36.1-75.9,30.1-29.9-50.5-37-57.5,17Z"/>
    <path id="MU-GP" d="M469.4,311.4l-102.4,23.5-64.2,15-50.1,58.8,45.1,3.2,34.2,86,86.2-57.6-10.3-46.6,61.5-82.3Z"/>
    <path id="MU-BL" d="M469.4,311.4l16.4-81.6-58-125.9-96,59-21.4,29.2,50.5,37-30.1,29.9,36.1,75.9,102.4-23.5Z"/>
  </g>
</svg>