<svg xmlns="http://www.w3.org/2000/svg" xmlns:amcharts="http://amcharts.com/ammap" id="Layer_1" viewBox="0 0 512 512"><g id="_x3C_defs"><amcharts:ammap bottomLatitude="14.721" leftLongitude="-17.069" projection="mercator" rightLongitude="-4.834" topLatitude="27.316"/></g><g><path id="MR-09" d="m322.6 408.2 43.3-95.9-113.5.6-14.4 12-1 8.1-8.5-4.6-36.9 30 7.1 11.1-2.5 30.6 8.7 8.4 14.9 7.4 12.6-1.5 5.8-19.9-6.2-13.8 22.7-12.8-4.1 23 27.8 8 22.7-1.5 21.3 10.7Z"/><path id="MR-02" d="m322.6 408.2-21.3-10.7-22.7 1.5-27.8-8 3.3 35.3 10.8 8.6-6.4 5.1 10.7 40.1 43.2-.5 2.5-9.9.3 7.8h12.9l-2.4-21.9 29-37.3-11.5-12.8-20.5 2.7Z"/><path id="MR-01" d="M328.1 477.6h130L464 446l-10.1-8.4-13.7-131-14.1-130.2-60.2 136-43.3 95.9 20.5-2.7 11.5 12.8-29 37.3 2.4 21.9Z"/><path id="MR-07" d="m426.1 176.4-5-46.8L261.7 241l-59.2 6.7-24.4-9.2.6 9.9H131l4.6 7.5-1.8 85h36.4l21.4 17.4 36.9-30 8.5 4.6 1-8.1 14.4-12 113.5-.6 60.2-136Z"/><path id="MR-04" d="m216.3 460.4-9.3-11.5-6.4 1.2v-9.2l-12.5-.6-2.3-15.5-13.4 17.3-20 9.9 8.7.2 9.2 20.6 10.2 4.4 8.1 14.6 10.6-20.4 17.1-10.9Z"/><path id="MR-10" d="m213.9 506.9 9.3-6.4 4.4-24.6 7.5-16.7-11.6-3.3-.8 5.7-6.4-1.2-17.1 10.9-10.6 20.4 25.2 15.3Z"/><path id="MR-03" d="m250.8 391 4.1-23-22.7 12.8 6.2 13.8-5.8 19.9L220 416l-14.9-7.4-15.6 8.9-3.5 7.3 2.3 15.5 12.4.6v9.2l6.5-1.2 9.3 11.5 6.4 1.2.8-5.7 11.6 3.3-7.5 16.7 9.9-3.3 19.3 20.1 6.7-12.3 5.6-.2-10.7-40.1 6.4-5.1-10.8-8.6-3.3-35.3Z"/><path id="MR-06" d="M191.6 358.4 170.2 341h-36.4l-74 .2 5.6 23.8h10.4v19.8h-9.3l-15.9 48.5-3.1 32.4 10-27.7 22.4 1.6 26.9-7.4 23.4-16.2 21.8-27.8 39.6-29.7Z"/><path id="MR-13" d="M66.4 384.6h9.3v-19.9H65.3l1 19.9Z"/><path id="MR-12" d="m135.6 255.9-62.1-.3 9.7 16.5-27.8 50.8-7.8 2.9L59.7 341l74-.2 1.8-85Z"/><path id="MR-08" d="m131 248.4-99.5.3-3.3 22.2 5.2-15.6 9.1 19.2 4.9 4.6.5-7.1 4.5 2.5 7.7 17.6-1.2 17.4-8.6 15.1 6.4-5.3-1.2 3.6 27.8-50.8-9.7-16.5 62.1.3-4.6-7.5Z"/><path id="MR-05" d="m205 408.5-8.7-8.4 2.5-30.6-7.1-11.1-39.6 29.7-21.8 27.8-23.4 16.2 22.6 1.3 18.6 19.8 4.7-1.3 20-9.9 13.4-17.3 3.5-7.3 15.6-8.9Z"/><path id="MR-11" d="m340 5.1-.2 53.5-123.9.2v103.9c-.1 0-22.5 7.7-22.5 7.7l-18.6 15.7 3.3 52.4 24.4 9.2 59.2-6.7 159.4-111.4-3.2-29.4h66z"/></g></svg>