<?xml version="1.0" encoding="UTF-8"?>
<svg id="Layer_1" xmlns="http://www.w3.org/2000/svg" xmlns:amcharts="http://amcharts.com/ammap" version="1.1" viewBox="0 0 512 512">
  <!-- Generator: Adobe Illustrator 29.1.0, SVG Export Plug-In . SVG Version: 2.1.0 Build 142)  -->
  <g id="_x3C_defs">
    <amcharts:ammap bottomLatitude="14.721273" leftLongitude="-17.0687276" projection="mercator" rightLongitude="-4.8336008" topLatitude="27.3158916"/>
  </g>
  <g>
    <path id="MR-09" d="M322.6,408.2l43.3-95.9-113.5.6-14.4,12-1,8.1-8.5-4.6-36.9,30,7.1,11.1-2.5,30.6,8.7,8.4,14.9,7.4,12.6-1.5,5.8-19.9-6.2-13.8,22.7-12.8-4.1,23,27.8,8,22.7-1.5,21.3,10.7Z"/>
    <path id="MR-02" d="M322.6,408.2l-21.3-10.7-22.7,1.5-27.8-8,3.3,35.3,10.8,8.6-6.4,5.1,10.7,40.1,43.2-.5,2.5-9.9.3,7.8h12.9l-2.4-21.9,29-37.3-11.5-12.8-20.5,2.7Z"/>
    <path id="MR-01" d="M328.1,477.6h130c0,0,5.9-31.6,5.9-31.6l-10.1-8.4-13.7-131-14.1-130.2-60.2,136-43.3,95.9,20.5-2.7,11.5,12.8-29,37.3,2.4,21.9Z"/>
    <path id="MR-07" d="M426.1,176.4l-5-46.8-159.4,111.4-59.2,6.7-24.4-9.2.6,9.9h-47.7s4.6,7.5,4.6,7.5l-1.8,85h36.4l21.4,17.4,36.9-30,8.5,4.6,1-8.1,14.4-12,113.5-.6,60.2-136Z"/>
    <path id="MR-04" d="M216.3,460.4l-9.3-11.5-6.4,1.2v-9.2c0,0-12.5-.6-12.5-.6l-2.3-15.5-13.4,17.3-20,9.9,8.7.2,9.2,20.6,10.2,4.4,8.1,14.6,10.6-20.4,17.1-10.9Z"/>
    <path id="MR-10" d="M213.9,506.9l9.3-6.4,4.4-24.6,7.5-16.7-11.6-3.3-.8,5.7-6.4-1.2-17.1,10.9-10.6,20.4,25.2,15.3Z"/>
    <path id="MR-03" d="M250.8,391l4.1-23-22.7,12.8,6.2,13.8-5.8,19.9-12.6,1.5-14.9-7.4-15.6,8.9-3.5,7.3,2.3,15.5,12.4.6v9.2c0,0,6.5-1.2,6.5-1.2l9.3,11.5,6.4,1.2.8-5.7,11.6,3.3-7.5,16.7,9.9-3.3,19.3,20.1,6.7-12.3,5.6-.2-10.7-40.1,6.4-5.1-10.8-8.6-3.3-35.3Z"/>
    <path id="MR-06" d="M191.6,358.4l-21.4-17.4h-36.4l-74,.2,5.6,23.8h10.4c0,0,0,19.8,0,19.8h-9.3s-15.9,48.5-15.9,48.5l-3.1,32.4,10-27.7,22.4,1.6,26.9-7.4,23.4-16.2,21.8-27.8,39.6-29.7Z"/>
    <path id="MR-13" d="M66.4,384.6h9.3s0-19.9,0-19.9h-10.4c0,0,1,19.9,1,19.9Z"/>
    <path id="MR-12" d="M135.6,255.9l-62.1-.3,9.7,16.5-27.8,50.8-7.8,2.9,12.1,15.2,74-.2,1.8-85Z"/>
    <path id="MR-08" d="M131,248.4l-99.5.3-3.3,22.2,5.2-15.6,9.1,19.2,4.9,4.6.5-7.1,4.5,2.5,7.7,17.6-1.2,17.4-8.6,15.1,6.4-5.3-1.2,3.6,27.8-50.8-9.7-16.5,62.1.3-4.6-7.5Z"/>
    <path id="MR-05" d="M205,408.5l-8.7-8.4,2.5-30.6-7.1-11.1-39.6,29.7-21.8,27.8-23.4,16.2,22.6,1.3,18.6,19.8,4.7-1.3,20-9.9,13.4-17.3,3.5-7.3,15.6-8.9Z"/>
    <path id="MR-11" d="M340,5.1l-.2,53.5-123.9.2v103.9c-.1,0-22.5,7.7-22.5,7.7l-18.6,15.7,3.3,52.4,24.4,9.2,59.2-6.7,159.4-111.4-3.2-29.4h66S340,5.1,340,5.1Z"/>
  </g>
</svg>