<?xml version="1.0" encoding="UTF-8"?>
<svg id="Layer_1" xmlns="http://www.w3.org/2000/svg" xmlns:amcharts="http://amcharts.com/ammap" version="1.1" viewBox="0 0 512 512">
  <!-- Generator: Adobe Illustrator 29.1.0, SVG Export Plug-In . SVG Version: 2.1.0 Build 142)  -->
  <g id="_x3C_defs">
    <amcharts:ammap bottomLatitude="20.768035" leftLongitude="-17.105416" projection="mercator" rightLongitude="-0.995350" topLatitude="35.921721"/>
  </g>
  <g>
    <path id="MA-01" d="M362.3,5.6l.7,1.3,1.1.3-.4,1.7.6,4.1.4,1h1.3c0,0-.3.7-.3.7l.4,2.2.9,1.9,1.9.6.6,1,1.4,1,1.3,2.5h1.3c0,.1,2.6,3.1,2.6,3.1l1.8.6,2.5,2.3,2.9,1.2,1-.3,1,.9,3.6.5,1.1.5h0l-.8,1v1c-.1,0,.4.5.4.5v1.8c.1,0-.6,1.8-.6,1.8l-1.9,1.3-2.9.5-3.1,2.7-1.1.4-.6,1-1.8.7-5,.6-1.9.9-.9,1h0l-2-.5-2.5,1.1-3.2-.7-1.4-.8-1.2-1.8-1.3-1.1-1.2.6h-2.2c0-.1-1.5-2-1.5-2l-1.7-1.1-1.3-.2-.7-.8-7.4-1.5-4.7-.2h0l2.3-7.3.7-.7,1.9-6.5,2.2-4.7,2.2-9.3.7-.5h1.8s1.9.9,1.9.9l.9-.8v-.7s.9-.5.9-.5h3.9c0,0,2.6-2,2.6-2l.3-.7.8-.2.4.4,1.2-.6Z"/>
    <path id="MA-02" d="M337.5,38.8l4.7.2,7.4,1.5.7.8,1.3.2,1.7,1.1,1.5,1.9h2.2c0,.1,1.2-.5,1.2-.5l1.3,1.1,1.2,1.8,1.4.8,3.2.7,2.5-1.1,2,.5h0l-.8,4.4.5.6-.2.5-2.1.5-.5,1-1.5.6-.2,1.2-1.2.6-.4.8-3.2,1.5-.2.5.6.6v1c0,0,.8-.2.8-.2l.4.2v.4h0v.9l.8,1.1h0l-1.2.3v1.3c-.1,0-1.5,1.2-1.5,1.2l-.2.4.6.8-1.8.5-1.1,1.4-.7-.7v-1.2c.1,0-2.1-.6-2.1-.6h-1.7l-.2-.5.6-1.2-1.8-1.1h-1c0,0-1,.7-1,.7v.9c0,0-.3.4-.3.4l-1.8.7.3.8h.9c0,.1.5,1.9.5,1.9h0l-4.3-.5-5.3-1.6-5.1.4-2.9-.7-2.7,1.2-1.5-.3-1.1-1.1h-1.4c0,.1-.4-.6-.4-.6h0l1-2.7,4.4-7.2,6.4-14h.5c0,.1-.2,1.3-.2,1.3l.8.5.5-.7v-.8s-1.4-.5-1.4-.5l1.4-4Z"/>
    <path id="MA-03" d="M405.2,29.1l.4.2-.2.8.7.8,1.4.5,1.3-.2h0l.3,11,.8,1,1.3-.2-.4.6.2.4,1.5-.2,1.2.8,1.3-.2.3.4-.3.5.2,1.7-.7,1.2,1,1.2-1.7.4.3,1.5-.7,1.3,1.5-.5.8,1.6,2,.5,1.4-3.3,1,.3.9-1,1.9-1.1.4-1.9.4-.2h3.7c0,0,1.6,1.8,1.6,1.8h.9s3,1.8,3,1.8l-.4,1.7,1.1.6v.5c0,0-1.8-.6-1.8-.6l-1.7.8-.4,3h-1c0,0,0,1.2,0,1.2l-2.8,1.7-.5,1.2.6,1.4,2.2,1.8.2,3.5,1.2,1v.5s-1.1,2.4-1.1,2.4l-3.6,1.6-.4,2.2,1.3,1,2,2.8.8,1.8v1.7h0l-2.6-.5-3.2-2-2.5-.5-1.8-1.9-2.5-1.6h-.4c0,.1-.4,1.3-.4,1.3l-.7.4-1.6,2.8-2.3,1.3-1.3,1.7-1.1.7-.2,1-.9,1.2-3.4,1.7-3.1.3-1.2-1.5,1.1-2.1-1.3-.5-1.6.8-.8-1.3v-2.4c.1,0,.8-1.2.8-1.2l1.5-.9-3.1-.5-.4-1.6-1.7-.7h-.7s-2.1,1.5-2.1,1.5l-1.5-1-2.1-.6-.9-.9v-2.5s-.6-1.8-.6-1.8l-4.8-1.6-.7-1.3v-1.6c0,0-1.2.1-1.2.1v-1.6s-2.6.3-2.6.3v-.6s-.5-.3-.5-.3l.8-.4-.5-.7-1.4.6-.2-.3.4-.5-.3-.6-2.4-.2-.6.5v-.6c0,0-.2,0-.2,0l-.9.7-.6-1-1.4-.2-1.8,1.1-.7-.2-2.6.8-.5-.7-1,.4-1.2-1.3h0v-.4c0,0-.3-.2-.3-.2l-.9.2v-1c0,0-.5-.6-.5-.6l.2-.5,3.2-1.5.4-.8,1.2-.6.2-1.2,1.5-.6.5-1,2.1-.5.2-.5-.5-.6.8-4.4h0l.9-1,1.9-.9,5-.6,1.8-.7.6-1,1.1-.4,3.1-2.7,2.9-.5,1.9-1.3.7-1.8v-1.8c-.1,0-.6-.5-.6-.5v-1c.1,0,1-1,1-1h0l2.8.5,3-1.4,3.4-.4,2.7-1.3h1.9s1.5-.9,1.5-.9Z"/>
    <path id="MA-04" d="M433.2,22.7l.4.5-.6,2.2.4.6v2c-.1,0,1.1,1.3,1.1,1.3h-.3c0,.1.2,1,.2,1l.7.4-.8.5v.5s1.4,1.9,1.4,1.9l1.9,1h1.8s0-.6,0-.6v-.2c.1,0,3,1.2,3,1.2l2.3.3,1.4-.3,2.9-2.1,6,2.2v1.3s1.3,1.3,1.3,1.3l1.3.6,1,1.4,1.5,1.1,1.9-.4v2c0,0,2.4,1.2,2.4,1.2l.2,1.2,2,.9.4-.2v.4c0,0,2,1.1,2,1.1l-1,.7v.9c-.1,0-2.3,2.9-2.3,2.9l1.1.4,2,3.2,1.8.8-2.8,3.6,2.2,2.9-.2,2.5,1.9,4.6-1.5,8.3.8,3.4-1.7,1.3-.3,1.2.9.8h1.6c0-.1.7,1.6.7,1.6l1,.9-.2,1.7.4.9-.9,1.3v1.5c-.1,0-1.2,2.3-1.2,2.3l-.2,3.5,2,2.6.8,1.9,3,2.7.3.9-.7,2.3-1.7.6,4.7,7.5,3.2,1.5,7.9,6.3-3.6,3.4-2.3.4-.7,2-.8.6.4.6-.2,3.6-1.7,1.3.4.3,2.1-.6,1,.4.8,1.8-1.4.9-1.4.3-.5-.3h-4.4s-2.4-.6-2.4-.6l-2.2.4-7.1-1.8h-1.4s-.7-.6-.7-.6h-.7l-.2.4-1.2-.2-1.3-.9-4.6,1.4-3.1-.9-.7.4h-4.7c0-.1-2.4.4-2.4.4l-1.6,1.1h-8.2c0,0-.9-.3-.9-.3l-.6.9-.3,2.2,2.5,5v1.6l.7.8v.5s-12.6,3-12.6,3h0l-1-8.4.4-3.2,1.2-2.3-.3-.9-6.1-1.1-2.8-.3-2.1.4-1.6-.4.5-1.6-.5-.6-2.5-1.4-2.2-.4-.6-3-3.4-6.9-1-1.2-1-.4h0v-.6c-.1,0,3.2-4.4,3.2-4.4l4.1-7.3,2.3-2.3,1.5-.9,3.7-.4,7.9.4,8.2-2.6.6-1,.2-1.4-.4-1.2-3.5-4.7-3.9-3-.6-1.1.7-2.3,2.7-3.4.6-2.3h0v-1.7c0,0-.8-1.8-.8-1.8l-2-2.8-1.3-1,.4-2.2,3.6-1.6,1.1-2.4v-.5s-1.3-1-1.3-1l-.2-3.5-2.2-1.8-.6-1.4.5-1.2,2.8-1.7v-1.1s1.1,0,1.1,0l.4-3,1.7-.8,1.9.6v-.5c0,0-1.2-.6-1.2-.6l.4-1.7-3-1.8h-.9s-1.6-1.7-1.6-1.7h-3.7c0,0-.4.2-.4.2l-.4,1.9-1.9,1.1-.9,1-1-.3-1.4,3.3-2-.5-.8-1.6-1.5.5.7-1.3-.3-1.5,1.7-.4-1-1.2.7-1.2-.2-1.7.3-.5-.3-.4-1.3.2-1.2-.8-1.5.2-.2-.4.4-.6-1.3.2-.8-1-.3-11h0l1-.7.6-1.9,1.2-.5h.9c0,0,2.5,2.2,2.5,2.2l2.9,1,1.1-.3.7.5,2.6.2,2.9-1.3h1.3l1.7-2.2.8.5,1.1-.8,1.6-2.9.5-2.1h.9Z"/>
    <path id="MA-05" d="M361.4,62.1l1.2,1.3,1-.4.5.7,2.6-.8.7.2,1.8-1.1,1.4.2.6,1,.9-.7h.3s0,.6,0,.6l.6-.5,2.4.2.3.6-.4.5.2.3,1.4-.6.5.7-.8.4.5.3v.6s2.5-.2,2.5-.2v1.6s1.2-.1,1.2-.1v1.6c0,0,.8,1.3.8,1.3l4.8,1.6.6,1.8v2.5s.8.9.8.9l2.1.6,1.5,1,2.1-1.5h.7s1.7.7,1.7.7l.4,1.6,3.1.5-1.5.9-.7,1.2v2.4c-.1,0,.6,1.3.6,1.3l1.6-.8,1.3.5-1.1,2.1,1.2,1.5,3.1-.3,3.4-1.7.9-1.2.2-1,1.1-.7,1.3-1.7,2.3-1.3,1.6-2.8.8-.4.4-1.2h.4c0-.1,2.5,1.4,2.5,1.4l1.8,1.9,2.5.5,3.2,2,2.6.5h0l-.6,2.3-2.7,3.4-.7,2.3.6,1.1,3.9,3,3.5,4.7.4,1.2-.2,1.4-.6,1-8.2,2.6-7.9-.4-3.7.4-1.5.9-2.3,2.3-4.1,7.3-3.3,4.4v.6h.1l-1.9.5-4.7-.4-.3-2.9-3.8-3.4-1.2-2.1-2.4-.4-3.5.5-2.5-1.4-.3-.7.6-2-2.7-3.1-2.6-7.2-1.8-1.6-.5-1.1v-1.3c0,0,3.1-4.3,3.1-4.3v-1.9s-2.9-2.7-2.9-2.7l-3.5-.8-.3-1.4,1.3-3.5-.2-1.7-1-1.6-.7-.4-.6-2.4-2.6-.5-1.3-2-2.1.2-.3-5.6-.7-1.5h0l-.8-1.1v-.9Z"/>
    <path id="MA-06" d="M362.1,64.1l.7,1.5.3,5.6,2.1-.2,1.3,2,2.6.5.6,2.4.7.4,1,1.6.2,1.7-1.3,3.5.3,1.4,3.5.8,2.9,2.7v1.9s-3,4.3-3,4.3v1.3c0,0,.4,1.1.4,1.1l1.8,1.6,2.6,7.2,2.7,3.1-.6,2,.3.7,2.5,1.4,3.5-.5,2.4.4,1.2,2.1,3.8,3.4.3,2.9,4.7.4,1.9-.5h0l1,.4,1,1.2,3.4,6.9.6,3,2.2.4,2.5,1.4.5.6-.5,1.6,1.6.4,2.1-.4,2.8.3,6.1,1.1.3.9-1.2,2.3-.4,3.2,1,8.4h0l-11.7,2.6v7.9l.5.3-.4.5-.4-.2-.2.5-.9.3-.3.7-.8-.6-.4,1.7-.7.6.5.5h.4c0-.1,0,.5,0,.5l-.9.9.5.4.4,1.5-.5,1.1v.9c.1,0,1.3,0,1.3,0v-1c0,0,.6-.3.6-.3l.2-.7.9.8-.2,2.2.4-.5h.8c0,0-.4-1.1-.4-1.1l.4-.2v1c.1,0,.7-.2.7-.2l.7,2.1.5.5.6-.7v.8c0,0,.3,0,.3,0v2.8s-.4.2-.4.2v.6c0,0-.5-.2-.5-.2l-1.2,2.3h-.5c0,0-.5.6-.5.6l-.4,1.6.2,1h.9c0,0,.4,1.2.4,1.2l-.7,1-5.9,2.5-4.4,1.2-4.4.3-5.1,1.9-8.3,8.3-9.6,4.8-5.3,4.5h0l-1-2.9-1.2-1.3-.7-2.2.4-14-4-6.4-.5-2.6,1.5-10.4,1.9-5.4v-3.1c0,0-1.3-1.8-1.3-1.8l-5.1-2.5-1.2-1.8-4.1-1.1-2.1.5-2.1-.3-.4-.4.3-1.1,6.6-7,.8-1.6-4.3-3.2h-.7s-1.9,1.3-1.9,1.3l-1.1.3h0v-1.6c0,0-1-.8-1-.8l.9-.8-.2-1.2.8-.5v-1.2s2.3-1.2,2.3-1.2l.8-1.8,2.5-.7,1.5.4.5-.3.2-.8-.8-.6.7-1.5-.4-.6,1.3-2.5-2.1-4.3-1.7-.2-1.5-1.3-.9-.2-1,.8h-.8c0,0-.7-2.6-.7-2.6l-1.2-1.1h-1.1c0-.1-.5-1.2-.5-1.2l-1.3-.8h-2.1c0,.1-.4-1.7-.4-1.7l.7-.7-1-1.4-.2-1-.6-.2-1.9.6-.4-.4v-1.3c0,0,1.4-.3,1.4-.3l.6-.9-1.5-.9-.3-1.3-4.1-2.5-.3-.9-2.9-1-.2-1.1,1-1.6h0l-.7-1.4.6-1.4-.3-.5.4-1.4,2.2-.8,1.7.5.8-.6.7.9h1s.6,2.9.6,2.9l.4.6h1.2c0,.1.3.6.3.6l1.1-.2,1.2-1.3,1.1-.4,3.6,1.1.7-.2.5-1-.5-4.8,1.2-11.5-1.3-1.5.2-1.5h-1.1s-.2-.4-.2-.4v-.7s1.6-1.5,1.6-1.5l-.3-1.3-2.3-2.1v-1.8h-.1l-.5-1.8h-.9c0-.1-.3-.9-.3-.9l1.8-.7.4-.4v-.9c0,0,1-.8,1-.8h1c0,0,1.8,1.2,1.8,1.2l-.6,1.2.2.5h1.7l2.2.6v1.2c-.1,0,.6.7.6.7l1.1-1.4,1.8-.5-.6-.8.2-.4,1.3-1.2v-1.3c.1,0,1.3-.3,1.3-.3Z"/>
    <path id="MA-07" d="M324.1,66.9l.4.7h1.4c0-.1,1.1,1,1.1,1l1.5.3,2.7-1.2,2.9.7,5.1-.4,5.3,1.6,4.3.5h0v1.8c.1,0,2.4,2.1,2.4,2.1l.3,1.3-1.6,1.5v.7s.2.4.2.4h1.1s-.2,1.5-.2,1.5l1.3,1.5-1.2,11.5.5,4.8-.5,1-.7.2-3.6-1.1-1.1.4-1.1,1.3-1.1.2-.3-.4h-1.2c0-.1-.4-.7-.4-.7l-.6-2.9h-1s-.7-1-.7-1l-.8.6-1.7-.5-2.2.8-.4,1.4.3.5-.6,1.4.8,1.4h0l-3.5,1.7-1.2,1.7-1.2-1.7-1.2-.8-2.9.4-1.4-.6-1,.5-1.6-.8.3-.9-.3-2.2,1-2.3-1-1.3-.4-1.7,1.8-2.8.3-1.3-3.3.4-1.4-1.7-1-.5-.9.3.3-.9-.9-1.5-.3-2.4-.7-1.1h-1.3c0,0-.4-.8-.4-.8h0l1.8-1.5,1.1-.2,3.4-3,3.7-4.4,2.2-3.4Z"/>
    <path id="MA-08" d="M305.5,83.3h0,0ZM304.2,83.2v.5c.1,0,1.4-.4,1.4-.4h0l-.7,1.3.4.8-1.1.3-.2,1.1v.9s.5.4.5.4l-.3.9,1,2.1h-.7s-.8.6-.8.6l.4.9-1.3.2v.4c0,0-.8.1-.8.1l-1.5,1.2-1,2.6-1-.2-.5-1.7,2.5-1.1-1.3-.5-1.5.3-.4-.5-1.3.6v-.7c-.1,0-1.3-.9-1.3-.9l-1.5.2-.5-.5h-1c0,0-.9.3-.9.3l-.8-1.3h0l2.1-1.4.7.3,1.3-.7,3-2.3.3.4,1.1-.2h.3c0,0,.3.2.3.2l1.8-.7,3.6-3.4Z"/>
    <path id="MA-09" d="M312,79.4l.4.7h1.3c0,0,.7,1.2.7,1.2l.3,2.4.9,1.5-.3.9.9-.3,1,.5,1.4,1.7,3.3-.4-.3,1.3-1.8,2.8.4,1.7,1,1.3-1,2.3.3,2.2-.3.9,1.6.8,1-.5,1.4.6,2.9-.4,1.2.8,1.2,1.7,1.2-1.7,3.5-1.7h0l-1,1.6.2,1.1,2.9,1,.3.9,4.1,2.5.3,1.3,1.5.9-.6.9-1.3.3v1.3c0,0,.4.4.4.4l1.8-.6.6.2.2,1,1,1.4-.7.7.4,1.8h0l-2.2,2.1-2.9.3-2.1.8h-5.3c0,0-2.8-.8-2.8-.8l-2.3.8v1.1c0,0-4.5-1.1-4.5-1.1l-4.1,2h-.7l-1.3-.9-.4,4.4-1.4,3.7-1.6,1.7h0l-.4-.6h-1.1c0-.1-.5-.9-.5-.9l-1.9-1.2-1.9-.2-1.3-1.8h-2.2c0,.1-.9.6-.9.6l-.4-.3-.3.8-1.3.8h-1c0,0-.6-.3-.6-.3l-.5.4-1.6-3.3-1.2-1-1.5-3-4.9-2-1.9-4h-.6s.4-.5.4-.5l-.7-.2.5-.8-2,.4.8-.7-.6-.4.4-1.3-.7-.7.6-.3-.6-.6.8-1.2-.4-.5.6-.2-.6-.9.2-1.6h-.9s.3-.5.3-.5l-.8-.6v-.6c0,0-.8.1-.8.1l-.4-.7.7-.4.7-1.7h2.3c0,0,.4-.7.4-.7l-.7-.3,1.2-.5.9-1.3-.8-.3v-.7c-.1,0-.7-.2-.7-.2l.9-.6-.5-.5.6-1-1.6-2.4h0l3.3-1.3h0l.8,1.3.9-.4h1c0,0,.5.6.5.6l1.5-.2,1.2.9v.7c.1,0,1.4-.6,1.4-.6l.4.5,1.5-.3,1.3.5-2.5,1.1.5,1.7,1,.2,1-2.6,1.5-1.2h.8c0-.1,0-.6,0-.6l1.3-.2-.4-.9.8-.6h.7s-1-2-1-2l.3-.9-.4-.4v-.9s.1-1.1.1-1.1l1.1-.3-.4-.8.7-1.3h0l3.5-3h1.3s1.7-.9,1.7-.9Z"/>
    <path id="MA-10" d="M286.4,92.4l1.6,2.4-.6,1,.5.5-.9.6.6.2v.7c.1,0,1,.3,1,.3l-.9,1.3-1.2.5.7.3-.4.6h-2.3c0,0-.7,1.8-.7,1.8l-.7.4.4.7h.8c0-.1,0,.5,0,.5l.8.6-.3.5h.9s-.2,1.7-.2,1.7l.6.9-.6.2.4.5-.8,1.2.6.6-.6.3.7.7-.4,1.3.6.4-.8.7,2-.4-.5.8.7.2-.4.5h0l-1.3,1v2.6c0,0-1.1.8-1.1.8v.9s.8,1.3.8,1.3v1.8h-.6l-1,1.5-2.4,2h-1.8s-.5.4-.5.4v1.4c-.1,0-1.4,0-1.4,0l-.9.4-.6,1-2.2.7v1.8c-.1,0,.8,2.2.8,2.2l1.2,1.7,1.2,1,2.8,1.2,1.3,1.5v.6s-.9-.6-.9-.6v1.5c-.1,0-2.5,1.8-2.5,1.8l-1.1,1.9-.2,1.2-2.2,3.1.5,1.8,1.4,1.4-1.2.2-1-.7-2.1.9-1.5-.5-1.4-1.4-2.9.6-1.1-.3-.6.8-.5-.4-.7.6-1-.9-.8.3-.4-.9-1.7-.4-.2-.5-1.6-.9-.9-2.8-1.5-.5-3.8-.4-3.6.2-2.8-1h0l2.6-3,.7-2.8,1.8-2.1.2-.9-.4-1.7.6-1.6-.2-.6-.9-.4-.3-1.2,1.2-1.8.5-2.1-1.6-2.3,4.8-4.1,2.7-2.8,3.7-3.3,4.5-4.7.2-.5,1-1.3,2.4-3.7.2-.2-.4-1.1,2-1.8.3-.8,1-.7.6.8,1.3-.2,3.2-2.3,1-1.6,2.6-.7,6-2.6Z"/>
    <path id="MA-11" d="M286.9,114.6h.6s1.9,4,1.9,4l4.9,2,1.5,3,1.2,1,1.6,3.3.5-.4.6.4h1c0,0,1.3-.9,1.3-.9l.3-.8.4.3.9-.5h2.2c0-.1,1.3,1.7,1.3,1.7l1.9.2,1.9,1.2.5.8h1.1c0,.1.4.7.4.7h0l-.2,3,.6,2.7-.3,1.2.3,2.9.8,1.4,1,.4.3,1.3-.7.7.2,1.5,1.5,1.8-.9.4.2,1.8-.5.5-1.4-.2-1.9.4-1.9-.7-1.5.6-.5.7v2.2s1.4,1.2,1.4,1.2l-.2,1.2.5.3,2.4-.4v1.7c0,0-1,3.6-1,3.6l.4,2h0l-2.5,1-1.5,2.1-4.6.6-1.4.7-3.1,3-2.8.3-1.6.8-2.4,2.3-2.1,1.1v1.6c0,0-4.5,3.3-4.5,3.3h-.4c0-.1.1-1.2.1-1.2l-.9-.8-3.5,1.4-3,.5-1.4-.4-1.6,1.2h-4.7c0-.1-.9,0-.9,0l-1,1h-1c0,.1-.8-2.6-.8-2.6l-2.5-1.7h-.6c0,0-2,2-2,2l-3.2,1.4-.7,1.2-.7.4-2.7-.4-3.9,1.3-1.6-.2-.7-.6-3.2.7-2-.8-.2-1.2-1.1,1.5-.8.4-1.5-.6-2.3.2-.5-1.9-2.2-2.2h0v-.9c-.1,0,.4-1,.4-1l-.5-1.7.2-1.1-.7-.4,1.4-7.3-.4-1.9-1-.4.2-.9,1.9-2.4v-.8c0,0-.4,0-.4,0l1.2-1,1.5-2.1.4-1.2v-2.2c-.1,0,1.1-1,1.1-1l5.8-7.3h0l2.8,1,3.6-.2,3.8.4,1.5.5.9,2.8,1.6.9.2.5,1.7.4.4.9.8-.3,1,.9.7-.6.5.4.6-.8,1.1.3,2.9-.6,1.4,1.4,1.5.5,2.1-.9,1,.7,1.2-.2-1.4-1.4-.5-1.8,2.2-3.1.2-1.2,1.1-1.9,2.4-1.8v-1.5c.1,0,1,.6,1,.6v-.6s-1.3-1.5-1.3-1.5l-2.8-1.2-1.2-1-1.2-1.7-.9-2.2v-1.8c.1,0,2.4-.7,2.4-.7l.6-1,.9-.4h1.3s.1-1.4.1-1.4l.5-.4h1.8s2.4-2.1,2.4-2.1l1-1.5h.5v-1.8s-.8-1.3-.8-1.3v-.9s1.1-.8,1.1-.8v-2.6c0,0,1.4-1,1.4-1Z"/>
    <path id="MA-12" d="M344.5,116.5h2.1c0-.1,1.3.6,1.3.6l.5,1.1h1.1c0,.1,1.2,1.3,1.2,1.3l.7,2.6h.8c0,0,1-.8,1-.8l.9.2,1.5,1.3,1.7.2,2.1,4.3-1.3,2.5.4.6-.7,1.5.8.6-.2.8-.5.3-1.5-.4-2.5.7-.8,1.8-2.3,1.2v1.2s-.8.5-.8.5l.2,1.2-.9.8.9.8v1.6h0l.2,2.3-.3.5-1.5,1.5h-1.5c0,0-1.1,1.4-1.1,1.4l-2.8,1.2-.4,2.2h-2.9l-1.8,1.7-4.7,1.8-4.4,2.7-1.8.6-1.5-.4-2.3.6-.8,1.1.4,1.8-1,2.2h-1.3c0,.1-.4-.4-.4-.4l-2.3.6-4.7-1.4h-2s-.4-2-.4-2l1-3.6v-1.7c0,0-2.4.4-2.4.4l-.5-.3.2-1.2-1.5-1.2v-2.2l.5-.7,1.5-.6,1.9.7,1.9-.4,1.4.2.5-.5-.2-1.8.9-.4-1.5-1.8v-1.5c-.1,0,.5-.7.5-.7l-.3-1.3-1-.4-.9-1.4-.3-2.9.3-1.2-.6-2.7.2-3h0l1.6-1.7,1.4-3.7.4-4.4,1.3.9h.6l4.1-2,4.6,1.1v-1.1c0,0,2.2-.8,2.2-.8l2.8.9h5.3c0,0,2.1-.9,2.1-.9l2.9-.3,2.2-2.1Z"/>
    <path id="MA-13" d="M350.4,143.1l1.1-.3,1.9-1.4h.7s4.3,3.2,4.3,3.2l-.8,1.6-6.6,7-.3,1.1.4.4,2.1.3,2.1-.5,4.1,1.1,1.2,1.8,5.1,2.5,1.2,1.8v3.1c0,0-1.9,5.4-1.9,5.4l-1.5,10.4.5,2.6,4,6.4-.4,14,.7,2.2,1.2,1.3,1,2.9h0l-4.9,3.6-1.2,2,.2,1.3-.4,1-5.9,8.4-.5.2v1.1c-.1,0-2.8-.9-2.8-.9l-1.1-1.2-.8.7h-1c0,0,.8-2.2.8-2.2l-2.2-1-7.7,1.7-3-.7-2.4.6h-3.7c0,0-.5.5-.5.5l-.3-.3h0v-8.8c0,0,.7-2.9.7-2.9v-4.9c-.1,0-1.3-2.9-1.3-2.9l-4.4-7-1.2-1.3-1.4-.8h-.8s-1.5,1.1-1.5,1.1l-1.4,2-2.3,1.1h-1.4l-2.8-1.3h-1.6s-1.3,1.4-1.3,1.4l-1.3,3-.5,2.5-.7.5-5.9-.5-.9-.9-.5-2.4-2.7-2-2.4,1.7-.9,1.7.8,4.9-.6,1.1-2.1.2-2.1-.6-1.1.2-3.2,2.9-1.8.7-3.1-1.1-3.3-2.4-.8-.2-1.6.9-.9,2.3-1.2,1.2h-.9s-5.5-2.5-5.5-2.5l-2.3.2-1,.9v1.6c0,0,.6.4.6.4l1.2-.5,1,.3-.2,1-2,2.5-.3,1.1v4c0,0,.5,1.4.5,1.4l1,.7.2.6-.4.7-7.2,2.3h-4.2s-.7.5-.7.5l-1,2-1.1,4.7-1.5-2.9-1.1-.6-2.1-.3-1.2.3-.6,1.2-1.1.9-2.2.4-3.7,1.4-1.8-.2-1.7-2.1h-1.8c0,.1-.9,1.2-.9,1.2l-1.5,3.7-1.1.5-1.2-.3-1.1.4-3.1,2.3h-.9c0,.1-1.4-.9-1.4-.9h-5.5c0,.1-1.9-1.1-1.9-1.1h0l.4-1.1,2.7-3.5,3.3-2.6,1-2.1,3-4.1.8-2.7,2-3.1,4.4-4.3,1.2-2,3.5-7.1,2.1-10.6-.5-1-.5.2-.8-.9-1.2-3.2-1.1-.3-1.3-2-1.2-.6h-1.9c0-.1.3-2.2.3-2.2l.8-1,1.3-3.1v-.7s-.6-.4-.6-.4l.6-1.5-.4-2h0l2.2,2.2.5,1.9,2.3-.2,1.5.6.8-.4,1.1-1.5.2,1.2,2,.8,3.2-.7.7.6,1.6.2,3.9-1.3,2.7.4.7-.4.7-1.2,3.2-1.4,2-1.9h.6c0,0,2.5,1.7,2.5,1.7l.8,2.7h1c0-.1,1-1.1,1-1.1l.9-.2h4.7c0,.1,1.6-1,1.6-1l1.4.4,3-.5,3.5-1.4.9.8v1.1c-.1,0,.3.1.3.1l4.4-3.3v-1.6c0,0,2.1-1.1,2.1-1.1l2.4-2.3,1.6-.8,2.8-.3,3.1-3,1.4-.7,4.6-.6,1.5-2.1,2.5-1h2s4.7,1.4,4.7,1.4l2.3-.6.4.6h1.3c0-.1,1-2.3,1-2.3l-.4-1.8.8-1.1,2.3-.6,1.5.4,1.8-.6,4.4-2.7,4.7-1.8,1.8-1.7h2.9s.4-2.2.4-2.2l2.8-1.2,1.1-1.4h1.5c0,0,1.5-1.5,1.5-1.5l.3-.5-.2-2.2Z"/>
    <path id="MA-15" d="M176.7,269.4h0l1.8,4.7,2,2.1,1,2.9,3.8,5.1-3.5.2.5,2.5h-6.1s-3.7,2.9-3.7,2.9l-3.8,5.7-1.2,3.1-1.3,5.6-3.5,7.9-7.2,8.1-1.4,2.9-.6,2.3.2,2.5,2.4,7.2,1.2,6.5h12.8c0,0,0,49.4,0,49.4h0l-1.8.4-1.5-.4h-4.8s-6.8,1.5-6.8,1.5h-2.6s-6.3-2.2-6.3-2.2l-8.6-1.7-5.1.5-6.4,2.5-5.1,1.4-3.6-1.2-7.7-1.8-6.3.3-9.9,2.2-1.8-.7-1.7-2.5-.9-.6-4-1.6-2.4-.4h0l.4-1.4,3-2.2v-2.1l1.6-4.5.3-4.5-.7-1v-1.4c-.1,0,.4-5.5.4-5.5l1.2-3.9,2.6-4,1.8-7.2,2-2.5,2-4.5.4-3.4-.5-1.1.6-1.2,2.3-3.1,2.2-.5,2.4-2,1.8-2.8,3-.3,3-1.2,1.7-1.4,7-4.2,3-2.8,2.2-4.6,2.4-6.9.3-2.6,3.7-6.9,3.3-10.3,3.4-2,1.2-1.9.8-2.6,1.9-2.1,10.1-1.4,14.2-3,8.6-4.1h.4Z"/>
    <path id="MA-14" d="M215.6,240.3h0l1.9,1.2h5.5c0,0,1.4.9,1.4.9h.9c0-.1,3.1-2.4,3.1-2.4l1.1-.3,1.2.3,1.1-.5,1.5-3.7.9-1.1h1.8c0-.1,1.7,2,1.7,2l1.8.2,3.7-1.5,2.2-.4,1.1-.9.6-1.2,1.2-.3,2.1.3,1.1.6,1.5,2.9,1.1-4.7,1-2,.7-.5h4.2s7.2-2.3,7.2-2.3l.4-.7-.2-.6-1-.7-.6-1.4v-4c0,0,.4-1.1.4-1.1l2-2.5v-1c.1,0-.8-.3-.8-.3l-1.2.5-.5-.4v-1.6c0,0,1-.9,1-.9l2.3-.2,5.5,2.6h.9s1.2-1.2,1.2-1.2l.9-2.3,1.6-.9.8.2,3.3,2.4,3.1,1.1,1.8-.7,3.2-2.9,1.1-.2,2.1.6,2.1-.2.6-1.1-.8-4.8.9-1.7,2.4-1.7,2.7,2,.5,2.4.9.9,5.9.5.7-.5.5-2.5,1.3-3,1.3-1.4h1.6s2.8,1.3,2.8,1.3h1.4l2.3-1.1,1.4-2,1.5-1h.8s1.4.7,1.4.7l1.2,1.3,4.4,7,1.2,2.8.2,4.9-.6,2.9v8.8h-1.9c0,0-1.9,1.3-1.9,1.3l-2.7-.3-2.2.5-2.4,1.8-1.6-.2-2.4-1-2.2-.2-1,.3-2.5-1h-1.2s-2.6,1.2-2.6,1.2l-2.8,2.8-1.6.7-3,.5-3-.4-.8.6v.8s-.7,1.2-.7,1.2h-1s-3,1.4-3,1.4l-4.3,3-.9,1.3-5.4,3.6h-.8s-4.2,3.3-4.2,3.3l-4,3.9-6.1,2.8-.2,88.6h-96.9c0,0-12.8.1-12.8.1l-1.2-6.5-2.4-7.2-.2-2.5.6-2.3,1.4-2.9,7.2-8.1,3.5-7.9,1.3-5.6,1.2-3.1,3.8-5.7,3.7-2.9h6.1s-.5-2.5-.5-2.5l3.5-.2-3.8-5.1-1-2.9-2-2.1-1.8-4.7h0l6.8-2.6.7.5v-.7c-.1,0,1.7-1.2,1.7-1.2l.6-1.3,4-5.1,5.6-5.1,1.1-1.8,8.4-4.4,8-5,2-2.2Z"/>
    <path id="MA-16" d="M82.8,386.7l2.4.4,4,1.6.9.6,1.7,2.5,1.8.7,9.9-2.2,6.3-.3,7.7,1.8,3.6,1.2,5.1-1.4,6.4-2.5,5.1-.5,8.6,1.7,6.3,2.2h2.6s6.8-1.5,6.8-1.5h4.8l1.5.4,1.8-.4h0v31.6c.1,0-22,2.1-22,2.1l-2.6,1.8-3.1,3.6-2.6,4.1-1.2,2.8-1.8,8.3,4.2,43.7-57-.4-57,.4h-.6c0,.1-1.8,7-1.8,7l-1.1,2-.8,3.6.4,4.8-1.6-2.3.8-1.2-.5-1.1.9-2.4.9-10.2,1.5-7.2v-4.9l.9-1.3-.4-.4.2-1.7,1.7-2.2v-1.3c0,0,2.7-6.9,2.7-6.9l1-.4.2-1.3,2.5-2.4h.8c0,0,.5.8.5.8h.8c0,0,3.3-1.7,3.3-1.7v-.8s1-1.3,1-1.3l.6-3.4,2.3-2.4.7-5.6,1.4-2.4-.5-.6.5-1.6.4.3,1.7-.7,2-2.4v-2s-1-1-1-1l-.8.4.3-.9,2.2-2.6.2-1.4,1.6-2.5-.2-.6,2.5-2.7.9-1.9-.7-1.1,2-1.8.9-2,.8-.6,1.9-3.3,1.9-2.2v-.3c0,0-.9.6-.9.6l.3-1.4.8-1.2-.3-.8.6-1.8-1.5.9-.3,1.5-.2-.7-1.1,1.6-1.4.5-1.3,1.8-.9,3.1-1,.9-.7,1.4h-.5c0-.1-.2-.7-.2-.7l2.4-3.4.6-1.9,2.9-3.3,6.2-3.8.6-1.6,4.5-4.7,2.5-1.9,2.6-3.6,2.3-2.4,4.2-1.9.7-1.2Z"/>
  </g>
</svg>