<svg xmlns="http://www.w3.org/2000/svg" xmlns:amcharts="http://amcharts.com/ammap" id="Layer_1" viewBox="0 0 512 512"><g id="_x3C_defs"><amcharts:ammap bottomLatitude="20.768" leftLongitude="-17.105" projection="mercator" rightLongitude="-.995" topLatitude="35.922"/></g><g><path id="MA-01" d="m362.3 5.6.7 1.3 1.1.3-.4 1.7.6 4.1.4 1h1.3l-.3.7.4 2.2.9 1.9 1.9.6.6 1 1.4 1 1.3 2.5h1.3c0 .1 2.6 3.1 2.6 3.1l1.8.6 2.5 2.3 2.9 1.2 1-.3 1 .9 3.6.5 1.1.5-.8 1v1c-.1 0 .4.5.4.5V37c.1 0-.6 1.8-.6 1.8l-1.9 1.3-2.9.5-3.1 2.7-1.1.4-.6 1-1.8.7-5 .6-1.9.9-.9 1-2-.5-2.5 1.1-3.2-.7-1.4-.8-1.2-1.8-1.3-1.1-1.2.6h-2.2c0-.1-1.5-2-1.5-2l-1.7-1.1-1.3-.2-.7-.8-7.4-1.5-4.7-.2 2.3-7.3.7-.7 1.9-6.5 2.2-4.7 2.2-9.3.7-.5h1.8l1.9.9.9-.8v-.7l.9-.5h3.9l2.6-2 .3-.7.8-.2.4.4 1.2-.6Z"/><path id="MA-02" d="m337.5 38.8 4.7.2 7.4 1.5.7.8 1.3.2 1.7 1.1 1.5 1.9h2.2c0 .1 1.2-.5 1.2-.5l1.3 1.1 1.2 1.8 1.4.8 3.2.7 2.5-1.1 2 .5-.8 4.4.5.6-.2.5-2.1.5-.5 1-1.5.6-.2 1.2-1.2.6-.4.8-3.2 1.5-.2.5.6.6v1l.8-.2.4.2v1.3l.8 1.1-1.2.3v1.3c-.1 0-1.5 1.2-1.5 1.2l-.2.4.6.8-1.8.5-1.1 1.4-.7-.7V68c.1 0-2.1-.6-2.1-.6h-1.7l-.2-.5.6-1.2-1.8-1.1h-1l-1 .7v.9l-.3.4-1.8.7.3.8h.9c0 .1.5 1.9.5 1.9l-4.3-.5-5.3-1.6-5.1.4-2.9-.7-2.7 1.2-1.5-.3-1.1-1.1h-1.4c0 .1-.4-.6-.4-.6l1-2.7 4.4-7.2 6.4-14h.5c0 .1-.2 1.3-.2 1.3l.8.5.5-.7v-.8l-1.4-.5 1.4-4Z"/><path id="MA-03" d="m405.2 29.1.4.2-.2.8.7.8 1.4.5 1.3-.2.3 11 .8 1 1.3-.2-.4.6.2.4 1.5-.2 1.2.8 1.3-.2.3.4-.3.5.2 1.7-.7 1.2 1 1.2-1.7.4.3 1.5-.7 1.3 1.5-.5.8 1.6 2 .5 1.4-3.3 1 .3.9-1 1.9-1.1.4-1.9.4-.2h3.7l1.6 1.8h.9l3 1.8-.4 1.7 1.1.6v.5l-1.8-.6-1.7.8-.4 3h-1v1.2l-2.8 1.7-.5 1.2.6 1.4 2.2 1.8.2 3.5 1.2 1v.5l-1.1 2.4-3.6 1.6-.4 2.2 1.3 1 2 2.8.8 1.8v1.7l-2.6-.5-3.2-2-2.5-.5-1.8-1.9-2.5-1.6h-.4c0 .1-.4 1.3-.4 1.3l-.7.4-1.6 2.8-2.3 1.3-1.3 1.7-1.1.7-.2 1-.9 1.2-3.4 1.7-3.1.3-1.2-1.5 1.1-2.1-1.3-.5-1.6.8-.8-1.3v-2.4c.1 0 .8-1.2.8-1.2l1.5-.9-3.1-.5-.4-1.6-1.7-.7h-.7l-2.1 1.5-1.5-1-2.1-.6-.9-.9v-2.5l-.6-1.8-4.8-1.6-.7-1.3v-1.6l-1.2.1v-1.6l-2.6.3v-.6l-.5-.3.8-.4-.5-.7-1.4.6-.2-.3.4-.5-.3-.6-2.4-.2-.6.5v-.6h-.2l-.9.7-.6-1-1.4-.2-1.8 1.1-.7-.2-2.6.8-.5-.7-1 .4-1.2-1.3v-.4l-.3-.2-.9.2v-1l-.5-.6.2-.5 3.2-1.5.4-.8 1.2-.6.2-1.2 1.5-.6.5-1 2.1-.5.2-.5-.5-.6.8-4.4.9-1 1.9-.9 5-.6 1.8-.7.6-1 1.1-.4 3.1-2.7 2.9-.5 1.9-1.3.7-1.8V35c-.1 0-.6-.5-.6-.5v-1c.1 0 1-1 1-1l2.8.5 3-1.4 3.4-.4 2.7-1.3h1.9l1.5-.9Z"/><path id="MA-04" d="m433.2 22.7.4.5-.6 2.2.4.6v2c-.1 0 1.1 1.3 1.1 1.3h-.3c0 .1.2 1 .2 1l.7.4-.8.5v.5l1.4 1.9 1.9 1h1.8v-.8c.1 0 3 1.2 3 1.2l2.3.3 1.4-.3 2.9-2.1 6 2.2v1.3l1.3 1.3 1.3.6 1 1.4 1.5 1.1 1.9-.4v2l2.4 1.2.2 1.2 2 .9.4-.2v.4l2 1.1-1 .7v.9c-.1 0-2.3 2.9-2.3 2.9l1.1.4 2 3.2 1.8.8-2.8 3.6 2.2 2.9-.2 2.5 1.9 4.6-1.5 8.3.8 3.4-1.7 1.3-.3 1.2.9.8h1.6c0-.1.7 1.6.7 1.6l1 .9-.2 1.7.4.9-.9 1.3v1.5c-.1 0-1.2 2.3-1.2 2.3l-.2 3.5 2 2.6.8 1.9 3 2.7.3.9-.7 2.3-1.7.6 4.7 7.5 3.2 1.5 7.9 6.3-3.6 3.4-2.3.4-.7 2-.8.6.4.6-.2 3.6-1.7 1.3.4.3 2.1-.6 1 .4.8 1.8-1.4.9-1.4.3-.5-.3h-4.4l-2.4-.6-2.2.4-7.1-1.8h-1.4l-.7-.6h-.7l-.2.4-1.2-.2-1.3-.9-4.6 1.4-3.1-.9-.7.4H448c0-.1-2.4.4-2.4.4l-1.6 1.1h-8.2l-.9-.3-.6.9-.3 2.2 2.5 5v1.6l.7.8v.5l-12.6 3-1-8.4.4-3.2 1.2-2.3-.3-.9-6.1-1.1-2.8-.3-2.1.4-1.6-.4.5-1.6-.5-.6-2.5-1.4-2.2-.4-.6-3-3.4-6.9-1-1.2-1-.4v-.6c-.1 0 3.2-4.4 3.2-4.4l4.1-7.3 2.3-2.3 1.5-.9 3.7-.4 7.9.4 8.2-2.6.6-1 .2-1.4-.4-1.2-3.5-4.7-3.9-3-.6-1.1.7-2.3 2.7-3.4.6-2.3v-1.7l-.8-1.8-2-2.8-1.3-1 .4-2.2 3.6-1.6 1.1-2.4v-.5l-1.3-1-.2-3.5-2.2-1.8-.6-1.4.5-1.2 2.8-1.7v-1.1h1.1l.4-3 1.7-.8 1.9.6v-.5l-1.2-.6.4-1.7-3-1.8h-.9l-1.6-1.7H424l-.4.2-.4 1.9-1.9 1.1-.9 1-1-.3-1.4 3.3-2-.5-.8-1.6-1.5.5.7-1.3-.3-1.5 1.7-.4-1-1.2.7-1.2-.2-1.7.3-.5-.3-.4-1.3.2-1.2-.8-1.5.2-.2-.4.4-.6-1.3.2-.8-1-.3-11 1-.7.6-1.9 1.2-.5h.9l2.5 2.2 2.9 1 1.1-.3.7.5 2.6.2 2.9-1.3h1.3l1.7-2.2.8.5 1.1-.8 1.6-2.9.5-2.1h.9Z"/><path id="MA-05" d="m361.4 62.1 1.2 1.3 1-.4.5.7 2.6-.8.7.2 1.8-1.1 1.4.2.6 1 .9-.7h.3v.6l.6-.5 2.4.2.3.6-.4.5.2.3 1.4-.6.5.7-.8.4.5.3v.6l2.5-.2V67l1.2-.1v1.6l.8 1.3 4.8 1.6.6 1.8v2.5l.8.9 2.1.6 1.5 1 2.1-1.5h.7l1.7.7.4 1.6 3.1.5-1.5.9-.7 1.2V84c-.1 0 .6 1.3.6 1.3l1.6-.8 1.3.5-1.1 2.1 1.2 1.5 3.1-.3 3.4-1.7.9-1.2.2-1 1.1-.7 1.3-1.7 2.3-1.3 1.6-2.8.8-.4.4-1.2h.4c0-.1 2.5 1.4 2.5 1.4l1.8 1.9 2.5.5 3.2 2 2.6.5-.6 2.3-2.7 3.4-.7 2.3.6 1.1 3.9 3 3.5 4.7.4 1.2-.2 1.4-.6 1-8.2 2.6-7.9-.4-3.7.4-1.5.9-2.3 2.3-4.1 7.3-3.3 4.4v.6h.1l-1.9.5-4.7-.4-.3-2.9-3.8-3.4-1.2-2.1-2.4-.4-3.5.5-2.5-1.4-.3-.7.6-2-2.7-3.1-2.6-7.2-1.8-1.6-.5-1.1v-1.3l3.1-4.3v-1.9l-2.9-2.7-3.5-.8-.3-1.4 1.3-3.5-.2-1.7-1-1.6-.7-.4-.6-2.4-2.6-.5-1.3-2-2.1.2-.3-5.6-.7-1.5-.8-1.1v-.9Z"/><path id="MA-06" d="m362.1 64.1.7 1.5.3 5.6 2.1-.2 1.3 2 2.6.5.6 2.4.7.4 1 1.6.2 1.7-1.3 3.5.3 1.4 3.5.8L377 88v1.9l-3 4.3v1.3l.4 1.1 1.8 1.6 2.6 7.2 2.7 3.1-.6 2 .3.7 2.5 1.4 3.5-.5 2.4.4 1.2 2.1 3.8 3.4.3 2.9 4.7.4 1.9-.5 1 .4 1 1.2 3.4 6.9.6 3 2.2.4 2.5 1.4.5.6-.5 1.6 1.6.4 2.1-.4 2.8.3 6.1 1.1.3.9-1.2 2.3-.4 3.2 1 8.4-11.7 2.6v7.9l.5.3-.4.5-.4-.2-.2.5-.9.3-.3.7-.8-.6-.4 1.7-.7.6.5.5h.4v.5l-.9.9.5.4.4 1.5-.5 1.1v.9h1.3v-1l.6-.3.2-.7.9.8-.2 2.2.4-.5h.8l-.4-1.1.4-.2v1c.1 0 .7-.2.7-.2l.7 2.1.5.5.6-.7v.8h.3v2.8l-.4.2v.6l-.5-.2-1.2 2.3h-.5l-.5.6-.4 1.6.2 1h.9l.4 1.2-.7 1-5.9 2.5-4.4 1.2-4.4.3-5.1 1.9-8.3 8.3-9.6 4.8-5.3 4.5-1-2.9-1.2-1.3-.7-2.2.4-14-4-6.4-.5-2.6 1.5-10.4 1.9-5.4v-3.1l-1.3-1.8-5.1-2.5-1.2-1.8-4.1-1.1-2.1.5-2.1-.3-.4-.4.3-1.1 6.6-7 .8-1.6-4.3-3.2h-.7l-1.9 1.3-1.1.3v-1.6l-1-.8.9-.8-.2-1.2.8-.5v-1.2l2.3-1.2.8-1.8 2.5-.7 1.5.4.5-.3.2-.8-.8-.6.7-1.5-.4-.6 1.3-2.5-2.1-4.3-1.7-.2-1.5-1.3-.9-.2-1 .8h-.8l-.7-2.6-1.2-1.1h-1.1c0-.1-.5-1.2-.5-1.2l-1.3-.8h-2.1c0 .1-.4-1.7-.4-1.7l.7-.7-1-1.4-.2-1-.6-.2-1.9.6-.4-.4v-1.3l1.4-.3.6-.9-1.5-.9-.3-1.3-4.1-2.5-.3-.9-2.9-1-.2-1.1 1-1.6-.7-1.4.6-1.4-.3-.5.4-1.4 2.2-.8 1.7.5.8-.6.7.9h1l.6 2.9.4.6h1.2c0 .1.3.6.3.6l1.1-.2 1.2-1.3 1.1-.4 3.6 1.1.7-.2.5-1-.5-4.8 1.2-11.5-1.3-1.5.2-1.5h-1.1l-.2-.4v-.7l1.6-1.5-.3-1.3-2.3-2.1V70h-.1l-.5-1.8h-.9c0-.1-.3-.9-.3-.9l1.8-.7.4-.4v-.9l1-.8h1l1.8 1.2-.6 1.2.2.5h1.7l2.2.6v1.2c-.1 0 .6.7.6.7l1.1-1.4 1.8-.5-.6-.8.2-.4 1.3-1.2v-1.3c.1 0 1.3-.3 1.3-.3Z"/><path id="MA-07" d="m324.1 66.9.4.7h1.4c0-.1 1.1 1 1.1 1l1.5.3 2.7-1.2 2.9.7 5.1-.4 5.3 1.6 4.3.5v1.8c.1 0 2.4 2.1 2.4 2.1l.3 1.3-1.6 1.5v.7l.2.4h1.1l-.2 1.5 1.3 1.5-1.2 11.5.5 4.8-.5 1-.7.2-3.6-1.1-1.1.4-1.1 1.3-1.1.2-.3-.4H342c0-.1-.4-.7-.4-.7l-.6-2.9h-1l-.7-1-.8.6-1.7-.5-2.2.8-.4 1.4.3.5-.6 1.4.8 1.4-3.5 1.7-1.2 1.7-1.2-1.7-1.2-.8-2.9.4-1.4-.6-1 .5-1.6-.8.3-.9-.3-2.2 1-2.3-1-1.3-.4-1.7 1.8-2.8.3-1.3-3.3.4-1.4-1.7-1-.5-.9.3.3-.9-.9-1.5-.3-2.4-.7-1.1h-1.3l-.4-.8 1.8-1.5 1.1-.2 3.4-3 3.7-4.4 2.2-3.4Z"/><path id="MA-08" d="M304.2 83.2v.5c.1 0 1.4-.4 1.4-.4l-.7 1.3.4.8-1.1.3-.2 1.1v.9l.5.4-.3.9 1 2.1h-.7l-.8.6.4.9-1.3.2v.4l-.8.1-1.5 1.2-1 2.6-1-.2-.5-1.7 2.5-1.1-1.3-.5-1.5.3-.4-.5-1.3.6v-.7c-.1 0-1.3-.9-1.3-.9l-1.5.2-.5-.5h-1l-.9.3-.8-1.3 2.1-1.4.7.3 1.3-.7 3-2.3.3.4 1.1-.2h.3l.3.2 1.8-.7 3.6-3.4Z"/><path id="MA-09" d="m312 79.4.4.7h1.3l.7 1.2.3 2.4.9 1.5-.3.9.9-.3 1 .5 1.4 1.7 3.3-.4-.3 1.3-1.8 2.8.4 1.7 1 1.3-1 2.3.3 2.2-.3.9 1.6.8 1-.5 1.4.6 2.9-.4 1.2.8 1.2 1.7 1.2-1.7 3.5-1.7-1 1.6.2 1.1 2.9 1 .3.9 4.1 2.5.3 1.3 1.5.9-.6.9-1.3.3v1.3l.4.4 1.8-.6.6.2.2 1 1 1.4-.7.7.4 1.8-2.2 2.1-2.9.3-2.1.8h-5.3l-2.8-.8-2.3.8v1.1l-4.5-1.1-4.1 2h-.7l-1.3-.9-.4 4.4-1.4 3.7-1.6 1.7-.4-.6h-1.1c0-.1-.5-.9-.5-.9l-1.9-1.2-1.9-.2-1.3-1.8h-2.2c0 .1-.9.6-.9.6l-.4-.3-.3.8-1.3.8h-1l-.6-.3-.5.4-1.6-3.3-1.2-1-1.5-3-4.9-2-1.9-4h-.6l.4-.5-.7-.2.5-.8-2 .4.8-.7-.6-.4.4-1.3-.7-.7.6-.3-.6-.6.8-1.2-.4-.5.6-.2-.6-.9.2-1.6h-.9l.3-.5-.8-.6v-.6l-.8.1-.4-.7.7-.4.7-1.7h2.3l.4-.7-.7-.3 1.2-.5.9-1.3-.8-.3v-.7c-.1 0-.7-.2-.7-.2l.9-.6-.5-.5.6-1-1.6-2.4 3.3-1.3.8 1.3.9-.4h1l.5.6 1.5-.2 1.2.9v.7c.1 0 1.4-.6 1.4-.6l.4.5 1.5-.3 1.3.5-2.5 1.1.5 1.7 1 .2 1-2.6 1.5-1.2h.8v-.6l1.3-.2-.4-.9.8-.6h.7l-1-2 .3-.9-.4-.4v-.9l.1-1.1 1.1-.3-.4-.8.7-1.3 3.5-3h1.3l1.7-.9Z"/><path id="MA-10" d="m286.4 92.4 1.6 2.4-.6 1 .5.5-.9.6.6.2v.7c.1 0 1 .3 1 .3l-.9 1.3-1.2.5.7.3-.4.6h-2.3l-.7 1.8-.7.4.4.7h.8v.5l.8.6-.3.5h.9l-.2 1.7.6.9-.6.2.4.5-.8 1.2.6.6-.6.3.7.7-.4 1.3.6.4-.8.7 2-.4-.5.8.7.2-.4.5-1.3 1v2.6l-1.1.8v.9l.8 1.3v1.8h-.6l-1 1.5-2.4 2h-1.8l-.5.4v1.4h-1.4l-.9.4-.6 1-2.2.7v1.8c-.1 0 .8 2.2.8 2.2l1.2 1.7 1.2 1 2.8 1.2 1.3 1.5v.6l-.9-.6v1.5c-.1 0-2.5 1.8-2.5 1.8l-1.1 1.9-.2 1.2-2.2 3.1.5 1.8 1.4 1.4-1.2.2-1-.7-2.1.9-1.5-.5-1.4-1.4-2.9.6-1.1-.3-.6.8-.5-.4-.7.6-1-.9-.8.3-.4-.9-1.7-.4-.2-.5-1.6-.9-.9-2.8-1.5-.5-3.8-.4-3.6.2-2.8-1 2.6-3 .7-2.8 1.8-2.1.2-.9-.4-1.7.6-1.6-.2-.6-.9-.4-.3-1.2 1.2-1.8.5-2.1-1.6-2.3 4.8-4.1 2.7-2.8 3.7-3.3 4.5-4.7.2-.5 1-1.3 2.4-3.7.2-.2-.4-1.1 2-1.8.3-.8 1-.7.6.8 1.3-.2 3.2-2.3 1-1.6 2.6-.7 6-2.6Z"/><path id="MA-11" d="M286.9 114.6h.6l1.9 4 4.9 2 1.5 3 1.2 1 1.6 3.3.5-.4.6.4h1l1.3-.9.3-.8.4.3.9-.5h2.2c0-.1 1.3 1.7 1.3 1.7l1.9.2 1.9 1.2.5.8h1.1c0 .1.4.7.4.7l-.2 3 .6 2.7-.3 1.2.3 2.9.8 1.4 1 .4.3 1.3-.7.7.2 1.5 1.5 1.8-.9.4.2 1.8-.5.5-1.4-.2-1.9.4-1.9-.7-1.5.6-.5.7v2.2l1.4 1.2-.2 1.2.5.3 2.4-.4v1.7l-1 3.6.4 2-2.5 1-1.5 2.1-4.6.6-1.4.7-3.1 3-2.8.3-1.6.8-2.4 2.3-2.1 1.1v1.6l-4.5 3.3h-.4c0-.1.1-1.2.1-1.2l-.9-.8-3.5 1.4-3 .5-1.4-.4-1.6 1.2h-4.7c0-.1-.9 0-.9 0l-1 1h-1c0 .1-.8-2.6-.8-2.6l-2.5-1.7h-.6l-2 2-3.2 1.4-.7 1.2-.7.4-2.7-.4-3.9 1.3-1.6-.2-.7-.6-3.2.7-2-.8-.2-1.2-1.1 1.5-.8.4-1.5-.6-2.3.2-.5-1.9-2.2-2.2v-.9c-.1 0 .4-1 .4-1l-.5-1.7.2-1.1-.7-.4 1.4-7.3-.4-1.9-1-.4.2-.9 1.9-2.4v-.8h-.4l1.2-1 1.5-2.1.4-1.2v-2.2c-.1 0 1.1-1 1.1-1l5.8-7.3 2.8 1 3.6-.2 3.8.4 1.5.5.9 2.8 1.6.9.2.5 1.7.4.4.9.8-.3 1 .9.7-.6.5.4.6-.8 1.1.3 2.9-.6 1.4 1.4 1.5.5 2.1-.9 1 .7 1.2-.2-1.4-1.4-.5-1.8 2.2-3.1.2-1.2 1.1-1.9 2.4-1.8v-1.5c.1 0 1 .6 1 .6v-.6l-1.3-1.5-2.8-1.2-1.2-1-1.2-1.7-.9-2.2v-1.8c.1 0 2.4-.7 2.4-.7l.6-1 .9-.4h1.3l.1-1.4.5-.4h1.8l2.4-2.1 1-1.5h.5v-1.8l-.8-1.3v-.9l1.1-.8v-2.6l1.4-1Z"/><path id="MA-12" d="M344.5 116.5h2.1c0-.1 1.3.6 1.3.6l.5 1.1h1.1c0 .1 1.2 1.3 1.2 1.3l.7 2.6h.8l1-.8.9.2 1.5 1.3 1.7.2 2.1 4.3-1.3 2.5.4.6-.7 1.5.8.6-.2.8-.5.3-1.5-.4-2.5.7-.8 1.8-2.3 1.2v1.2l-.8.5.2 1.2-.9.8.9.8v1.6l.2 2.3-.3.5-1.5 1.5h-1.5l-1.1 1.4-2.8 1.2-.4 2.2h-2.9l-1.8 1.7-4.7 1.8-4.4 2.7-1.8.6-1.5-.4-2.3.6-.8 1.1.4 1.8-1 2.2h-1.3c0 .1-.4-.4-.4-.4l-2.3.6-4.7-1.4h-2l-.4-2 1-3.6v-1.7l-2.4.4-.5-.3.2-1.2-1.5-1.2v-2.2l.5-.7 1.5-.6 1.9.7 1.9-.4 1.4.2.5-.5-.2-1.8.9-.4-1.5-1.8v-1.5c-.1 0 .5-.7.5-.7l-.3-1.3-1-.4-.9-1.4-.3-2.9.3-1.2-.6-2.7.2-3 1.6-1.7 1.4-3.7.4-4.4 1.3.9h.6l4.1-2 4.6 1.1v-1.1l2.2-.8 2.8.9h5.3l2.1-.9 2.9-.3 2.2-2.1Z"/><path id="MA-13" d="m350.4 143.1 1.1-.3 1.9-1.4h.7l4.3 3.2-.8 1.6-6.6 7-.3 1.1.4.4 2.1.3 2.1-.5 4.1 1.1 1.2 1.8 5.1 2.5 1.2 1.8v3.1l-1.9 5.4-1.5 10.4.5 2.6 4 6.4-.4 14 .7 2.2 1.2 1.3 1 2.9-4.9 3.6-1.2 2 .2 1.3-.4 1-5.9 8.4-.5.2v1.1c-.1 0-2.8-.9-2.8-.9l-1.1-1.2-.8.7h-1l.8-2.2-2.2-1-7.7 1.7-3-.7-2.4.6h-3.7l-.5.5-.3-.3V216l.7-2.9v-4.9c-.1 0-1.3-2.9-1.3-2.9l-4.4-7-1.2-1.3-1.4-.8h-.8l-1.5 1.1-1.4 2-2.3 1.1h-1.4l-2.8-1.3h-1.6l-1.3 1.4-1.3 3-.5 2.5-.7.5-5.9-.5-.9-.9-.5-2.4-2.7-2-2.4 1.7-.9 1.7.8 4.9-.6 1.1-2.1.2-2.1-.6-1.1.2-3.2 2.9-1.8.7-3.1-1.1-3.3-2.4-.8-.2-1.6.9-.9 2.3-1.2 1.2h-.9l-5.5-2.5-2.3.2-1 .9v1.6l.6.4 1.2-.5 1 .3-.2 1-2 2.5-.3 1.1v4l.5 1.4 1 .7.2.6-.4.7-7.2 2.3h-4.2l-.7.5-1 2-1.1 4.7-1.5-2.9-1.1-.6-2.1-.3-1.2.3-.6 1.2-1.1.9-2.2.4-3.7 1.4-1.8-.2-1.7-2.1h-1.8c0 .1-.9 1.2-.9 1.2l-1.5 3.7-1.1.5-1.2-.3-1.1.4-3.1 2.3h-.9c0 .1-1.4-.9-1.4-.9h-5.5c0 .1-1.9-1.1-1.9-1.1l.4-1.1 2.7-3.5 3.3-2.6 1-2.1 3-4.1.8-2.7 2-3.1 4.4-4.3 1.2-2 3.5-7.1 2.1-10.6-.5-1-.5.2-.8-.9-1.2-3.2-1.1-.3-1.3-2-1.2-.6h-1.9c0-.1.3-2.2.3-2.2l.8-1 1.3-3.1v-.7l-.6-.4.6-1.5-.4-2 2.2 2.2.5 1.9 2.3-.2 1.5.6.8-.4 1.1-1.5.2 1.2 2 .8 3.2-.7.7.6 1.6.2 3.9-1.3 2.7.4.7-.4.7-1.2 3.2-1.4 2-1.9h.6l2.5 1.7.8 2.7h1c0-.1 1-1.1 1-1.1l.9-.2h4.7c0 .1 1.6-1 1.6-1l1.4.4 3-.5 3.5-1.4.9.8v1.1c-.1 0 .3.1.3.1l4.4-3.3v-1.6l2.1-1.1 2.4-2.3 1.6-.8 2.8-.3 3.1-3 1.4-.7 4.6-.6 1.5-2.1 2.5-1h2l4.7 1.4 2.3-.6.4.6h1.3c0-.1 1-2.3 1-2.3l-.4-1.8.8-1.1 2.3-.6 1.5.4 1.8-.6 4.4-2.7 4.7-1.8 1.8-1.7h2.9l.4-2.2 2.8-1.2 1.1-1.4h1.5l1.5-1.5.3-.5-.2-2.2Z"/><path id="MA-15" d="m176.7 269.4 1.8 4.7 2 2.1 1 2.9 3.8 5.1-3.5.2.5 2.5h-6.1l-3.7 2.9-3.8 5.7-1.2 3.1-1.3 5.6-3.5 7.9-7.2 8.1-1.4 2.9-.6 2.3.2 2.5 2.4 7.2 1.2 6.5h12.8V391l-1.8.4-1.5-.4H162l-6.8 1.5h-2.6l-6.3-2.2-8.6-1.7-5.1.5-6.4 2.5-5.1 1.4-3.6-1.2-7.7-1.8-6.3.3-9.9 2.2-1.8-.7-1.7-2.5-.9-.6-4-1.6-2.4-.4.4-1.4 3-2.2V381l1.6-4.5.3-4.5-.7-1v-1.4c-.1 0 .4-5.5.4-5.5l1.2-3.9 2.6-4 1.8-7.2 2-2.5 2-4.5.4-3.4-.5-1.1.6-1.2 2.3-3.1 2.2-.5 2.4-2 1.8-2.8 3-.3 3-1.2 1.7-1.4 7-4.2 3-2.8 2.2-4.6 2.4-6.9.3-2.6 3.7-6.9 3.3-10.3 3.4-2 1.2-1.9.8-2.6 1.9-2.1 10.1-1.4 14.2-3 8.6-4.1h.4Z"/><path id="MA-14" d="m215.6 240.3 1.9 1.2h5.5l1.4.9h.9c0-.1 3.1-2.4 3.1-2.4l1.1-.3 1.2.3 1.1-.5 1.5-3.7.9-1.1h1.8c0-.1 1.7 2 1.7 2l1.8.2 3.7-1.5 2.2-.4 1.1-.9.6-1.2 1.2-.3 2.1.3 1.1.6 1.5 2.9 1.1-4.7 1-2 .7-.5h4.2l7.2-2.3.4-.7-.2-.6-1-.7-.6-1.4v-4l.4-1.1 2-2.5v-1c.1 0-.8-.3-.8-.3l-1.2.5-.5-.4v-1.6l1-.9 2.3-.2 5.5 2.6h.9l1.2-1.2.9-2.3 1.6-.9.8.2 3.3 2.4 3.1 1.1 1.8-.7 3.2-2.9 1.1-.2 2.1.6 2.1-.2.6-1.1-.8-4.8.9-1.7 2.4-1.7 2.7 2 .5 2.4.9.9 5.9.5.7-.5.5-2.5 1.3-3 1.3-1.4h1.6l2.8 1.3h1.4l2.3-1.1 1.4-2 1.5-1h.8l1.4.7 1.2 1.3 4.4 7 1.2 2.8.2 4.9-.6 2.9v8.8h-1.9l-1.9 1.3-2.7-.3-2.2.5-2.4 1.8-1.6-.2-2.4-1-2.2-.2-1 .3-2.5-1h-1.2l-2.6 1.2-2.8 2.8-1.6.7-3 .5-3-.4-.8.6v.8l-.7 1.2h-1l-3 1.4-4.3 3-.9 1.3-5.4 3.6h-.8l-4.2 3.3-4 3.9-6.1 2.8-.2 88.6h-96.9l-12.8.1-1.2-6.5-2.4-7.2-.2-2.5.6-2.3 1.4-2.9 7.2-8.1 3.5-7.9 1.3-5.6 1.2-3.1 3.8-5.7 3.7-2.9h6.1l-.5-2.5 3.5-.2-3.8-5.1-1-2.9-2-2.1-1.8-4.7 6.8-2.6.7.5v-.7c-.1 0 1.7-1.2 1.7-1.2l.6-1.3 4-5.1 5.6-5.1 1.1-1.8 8.4-4.4 8-5 2-2.2Z"/><path id="MA-16" d="m82.8 386.7 2.4.4 4 1.6.9.6 1.7 2.5 1.8.7 9.9-2.2 6.3-.3 7.7 1.8 3.6 1.2 5.1-1.4 6.4-2.5 5.1-.5 8.6 1.7 6.3 2.2h2.6l6.8-1.5h4.8l1.5.4 1.8-.4v31.6c.1 0-22 2.1-22 2.1l-2.6 1.8-3.1 3.6-2.6 4.1-1.2 2.8-1.8 8.3L141 489l-57-.4-57 .4h-.6c0 .1-1.8 7-1.8 7l-1.1 2-.8 3.6.4 4.8-1.6-2.3.8-1.2-.5-1.1.9-2.4.9-10.2 1.5-7.2v-4.9l.9-1.3-.4-.4.2-1.7 1.7-2.2v-1.3l2.7-6.9 1-.4.2-1.3 2.5-2.4h.8l.5.8h.8l3.3-1.7v-.8l1-1.3.6-3.4 2.3-2.4.7-5.6 1.4-2.4-.5-.6.5-1.6.4.3 1.7-.7 2-2.4v-2l-1-1-.8.4.3-.9 2.2-2.6.2-1.4 1.6-2.5-.2-.6 2.5-2.7.9-1.9-.7-1.1 2-1.8.9-2 .8-.6 1.9-3.3 1.9-2.2v-.3l-.9.6.3-1.4.8-1.2-.3-.8.6-1.8-1.5.9-.3 1.5-.2-.7-1.1 1.6-1.4.5-1.3 1.8-.9 3.1-1 .9-.7 1.4h-.5c0-.1-.2-.7-.2-.7l2.4-3.4.6-1.9 2.9-3.3 6.2-3.8.6-1.6 4.5-4.7L73 396l2.6-3.6 2.3-2.4 4.2-1.9.7-1.2Z"/></g></svg>