<?xml version="1.0" encoding="UTF-8"?>
<svg id="Layer_1" xmlns="http://www.w3.org/2000/svg" xmlns:amcharts="http://amcharts.com/ammap" version="1.1" viewBox="0 0 512 512">
  <!-- Generator: Adobe Illustrator 29.1.0, SVG Export Plug-In . SVG Version: 2.1.0 Build 142)  -->
  <g id="_x3C_defs">
    <amcharts:ammap bottomLatitude="-26.8681621" leftLongitude="30.21555" projection="mercator" rightLongitude="40.8391213" topLatitude="-10.4712022"/>
  </g>
  <g>
    <path id="MZ-MPM" d="M173.2,475.9l-3.1-1.4-1,2.7,4.1-1.3Z"/>
    <path id="MZ-L" d="M180,506l1.8-24.7-3.2,6.7-9.4-10.9,1-2.7,3.1,1.4,5.4-10.8,8.3-6.2-12.3-31-17.7-6.1-4.8,2,2,43.3-2.6,5.6,4.8,6.3,1.2,26.7,22.5.2Z"/>
    <path id="MZ-I" d="M225.8,442.1l20.2-10.2,9-13.3,1.4-7.8-1.9-2.5-4.1,5.7,7.9-33-2,1-1.4-8,1.8-15.9-1,4.1-2.2-5.9-1.4,11.5-2.5-3.1-1-23.2-4.2-14.4-1.6,4.4-1.6-6.5,2.8-4.9-18.7,6.8-3.8,4.3h-9.1c0,0-4.2,3.4-4.2,3.4l-9.8-.6-7.2,3.2-3.8,6.2,6.5,12.6-2.1,14,15.7,19.9,4.6,35.9,4,6.5,8.2-2.5,1.2,5.1-4.8,3.2,5.2,4.1Z"/>
    <path id="MZ-Q" d="M359.8,195.6l-4.3-7.6,2-3.3-3.3-12.2-7.3-12.6-24.2-14.9-4.5,1.6-5-3.3-3.7,2.6-4.9-6.2-14.4-.2-12.3,14.6-12.9-1-1.5,17.5-11.8,3-7,11.9,4.2,4.9.4,12.9.8,18,22.1,19.6,1.3,13.4.4,2.8,3.5-.3-.8-6,4.9,2.8,1.9-7,12-11.2,2.6-4.3-4.2-5.1,4.4,4.1,5.9-8.3,27.1-13.7-1.4-2.9,2.7,2.9,14.1-7.9,11.9-1,1.6-3.6Z"/>
    <path id="MZ-S" d="M250,221.3l-6.2-4.7-6.8-17.6-7.9-4.7-10.8,11.1-2.7,12.4.6,7.7,3.9,2.7-1.2,7.5-3.8,2-4.9-3.9-3.6,4.7,1.6,5.9-4.5,5.9,9.2,7.3-5.4,20.9.8,5.2,3.7,1.9-17.1,7.5,2.4,10.3,11.4,9.3.4,7.4,6.4,3.2-3.1,7.6h9.1c0,0,3.8-4.3,3.8-4.3l18.7-6.8-3.4-6.9-9.4-5.8,2.2-9.7-2.5-2.3h3.5s0-10.3,0-10.3l-7.1-6.1,2.8-.6,7.3,8.2,28.1-27.9,8-4.4-1.3-13.4-22.1-19.6Z"/>
    <path id="MZ-G" d="M167.1,331l-33.6,34.4,7.4,23.2-.3,9.4,9.3,14.9,2.2,10.9,4.8-2,17.7,6.1,12.3,31,38.9-16.8-5.2-4.1,4.8-3.2-1.2-5.1-8.2,2.5-4-6.5-4.6-35.9-15.7-19.9,2.1-14-6.5-12.6,3.8-6.2-6,2.8-18-8.9Z"/>
    <path id="MZ-N" d="M382.2,181.7l1.2-3.9-3.5,1.1,2.4,2.8ZM400.1,95.1l-11.5-1.9-8.1,6.7-29.1,12.8-12.1.6-14,5.3-2.3-2.2-6.4,1.5-21.5,14.7-5.1,6.8,14.4.2,4.9,6.2,3.7-2.6,5,3.3,4.5-1.6,24.2,14.9,7.3,12.6,3.3,12.2-2,3.3,4.3,7.6,21-13.3-2.1-3.8,6-2.4,4.1-7.1h-2c0,0,17.4-20.6,17.4-20.6l-.2-3.6h-4.3c0,0,5.7-3.2,5.7-3.2l-1.2-2.9,3,.6-3.8-4.3,5.7-1.7-2.3-8.1,2.4-1.8-4.1-1-2.1,4,.2-6.7,3.2-2.1-1.4-2.6-4.1,1.4,2.8-5.9-3.6-15.5Z"/>
    <path id="MZ-A" d="M341.5,33.2l-6.8-4-9.2.2-3.5,7.3-10.6,5.6-12.1-4.6-6.1.3-5.6,4.4-12.3-.6-.9-3.6-9.9-4.9-8.5,5.9-26.7-.6-7.3,17.9,5.5,33.3,2.7,4.9,6.4.7,6.4,5.6,22,28.1-.3,24.1,12.9,1,12.3-14.6,5.1-6.8,21.5-14.7,6.4-1.5,2.3,2.2,14-5.3-10.6-19.7,4.6-10.3-6.8-1.3,1.6-17,11.4-16.4,1.9-15.6Z"/>
    <path id="MZ-P" d="M400.1,6l-21.4,13-15.8,7.1-9.9-.2-11.6,7.2-1.9,15.6-11.4,16.4-1.6,17,6.8,1.3-4.6,10.3,10.6,19.7,12.1-.6,29.1-12.8,8.1-6.7,11.5,1.9,2-15.8-3.2,1.4-2.1-2.4,6.8-5.5-4.9-7.5,2.4-3.4-3.2-3.6,2-12.5-2.7-5.6,1.1-7.8-3.4-2,4.5-3.8,1.7-5.1-2-1.7,3.6-3.4-3.9-2.3,4.9-2.2-3.7-5.8Z"/>
    <path id="MZ-B" d="M229.1,194.3l-16.7-6.1-6.1-6.8-7.1.6-15.7,29-2.4,17.8,3.3,11.5-5,5.6.9,7.3-6.1,1.8-.3,3.7,5,3.9-2.7,11.6,1.6,6.4,3.6-.8,2.6,4.1-.7,7.6-9.7,15.4-5.5,2.2.3,10.3-4.4,6.1,3.1,5.4,18,8.9,6-2.8,7.2-3.2,9.8.6,4.2-3.3,3.1-7.6-6.4-3.2-.4-7.4-11.4-9.3-2.4-10.3,17.1-7.5-3.7-1.9-.8-5.2,5.4-20.9-9.2-7.3,4.5-5.9-1.6-5.9,3.6-4.7,4.9,3.9,3.8-2,1.2-7.5-3.9-2.7-.6-7.7,2.7-12.4,10.8-11.1Z"/>
    <path id="MZ-T" d="M249.2,203.3l-6.5-.6,1.5-8.3-20-16.8-.6-6.4-4.9-5.1,9.7-18.5-1.5-19.8-5-6.6-18,3-2.2,3.3-12.7-17.5-86.2,28.8,5.1,14.9.3,15.6,24.7.7,4.2,4.2,8.8,1.7,5.8,6.3,11,.7,12.7,7.7,6.8-.8-4,7.6,5.3,13.5,15.7-29,7.1-.6,6.1,6.8,16.7,6.1,7.9,4.7,6.8,17.6,6.2,4.7-.8-18Z"/>
  </g>
</svg>