<svg xmlns="http://www.w3.org/2000/svg" xmlns:amcharts="http://amcharts.com/ammap" id="Layer_1" viewBox="0 0 512 512"><g id="_x3C_defs"><amcharts:ammap bottomLatitude="-28.967" leftLongitude="11.734" projection="mercator" rightLongitude="25.257" topLatitude="-16.959"/></g><g><path id="NA-CA" d="m476.7 37.4.8 1.9 1.1-.4 2.2.2 1.1-.8 3-.8 3.4 1.4 1.1-.4 1.7.3 1.3 1 .8-.4.6.9.8-.5 1.1 1.5 1.3-.2.3 1.2h.6c0-.1 1 1.4 1 1.4h.7l-.2 1.8 1.1-.4v.6l1.1.2v.9l.9 1 2.7.8-3.6-.2-.6 1.1h-.6c0-.1-.5.7-.5.7l-1.6.6-.6-.3.4-.4-.4-.5-1.5 1-.2-.7-.7.5-.8-.9.5-.6h-.7l-3.3 2h-1.3l-1.6 1.2h-.7l-1 .8-.5-.3-1.1 2h-1.6l.1.6-1.5 1.2-1.8 2.9h-1.6l-1.5-.7-.4-.6.3-.8-1.1-1.1v-.9l-.4.3-.8-.6-.8.3-1.2-.4-2.1 1.8-.5 1.3-.9-.8-2.8.3-2.9 3.3-.9.6-1.1-.3-.2.9-1.3.6-1.6 1.7-.6-.2-.9.6-.4 1.7-1.8 1-1 1.7-1.4.7-.7 1.7-2.6 2.1h-1.3l-.6 1.3-2 1.3-1.5-.8-.7-3.9.4-.7-.2-1-1-.9-.2-1.7-.8-.4v-.8c-.1 0-1.7-.3-1.7-.3l-.2-1.3-1.8.3v-1.2c.1 0-2.7-3.8-2.7-3.8l-.2-.9.5-.2-.8-.6.2-.8-.8-.7-7.9.2-21.3 4.3-.2-11.2 64-13.2 3.8.8 1.8-1.2 3.8 1.1Z"/><path id="NA-ER" d="m76.8 180.6 4.2-2.3 4.2-3.6 1.8-.9h1c0 .1.4-.7.4-.7h.8c0 .1.5-.4.5-.4l.8.3 1.6-1 1.9.2 2.3-1.1 2.4.3 2.4 1.3h2.2c0-.1 1.6-.9 1.6-.9l2.7 1.1 2.5-.7 4.3 1.6 5-.8 3.6-3.1h1.6v-1.1l1.2-.4v-.8h1l2.3-2.4.6.2.6-.8 1.7-.5.2-1 1.4-.9.7-1.6 2.2-1 .9-1.3h.6c0 .1.5-1.6.5-1.6l1.2-.5v-1.1h.7l1.4-1.9h2.3l1.5 2 3.1.7v4.3l3.3 1.3 2-.3.5 2.7 3.8 3.2 7.2 3.9 2.9 2.8.3-.5 2.5 1.4 2.3-1.5 2.6 3.5 1.2.2 1.3 1.5.2 1.2 1.8.5 2.9-.3.3 2.5-.7 1.1 1.9 5.4-4.8 4.9-.2 3.9-1.2 4.5 1.7 4.4v1.6h.7l.5 1.3-.8 2 .7.8-.5.9.2 1.9-1.8.2 1.3 2.8h-.9c0-.1-.4.8-.4.8l-3.1 1.5 2.1 3.7-.5.6 1.5 2.6-2.9 1.8v3.3l-2.4-.2-1.8 1.6v1l-2.3 1.5-3.3-1.3-4.3 4.8h4.2v5.6h-3.9l-2.4 1.8-1 10.1.7 1.2 2.1 1.6-.3.5H160c0 .1-.5.7-.5.7l-.7-.3v.4l-2 .6 1.1 5.2h-1l-2.3 4.9 3.8 2.6-.3 2.5.5 4-.3 2.6-2.8.4-.8-.7-10.6-3.5-.3-1-2 .2-1.6-.7h-3l-1.6-.9-.5.3-2.7-.7-1.6-1.2-22.6-2.7-1.7-5.8.4-.7 1.2-.3-.9.5h.5l-.2 1 1.3-.8V264l-3.5-12.1.2-2.3.9-.7.2-2.3h.4c0 .1-.6 4-.6 4l1.5-.6-.5 2.5 1-2.1-.3-.5 2.2-2.4.2-3.6-.8-2.2.2-4.5-.7-1.9v-1.5c.1 0-2.1-4.1-2.1-4.1l.2-.8-2.2-5.8-2.8-2.9-1.1-1.6v-1.3l-8.3-10.5-4.2-3.6 1-1.2v-1l-3.6-5.2-.9-2.7.3-.6-8.6-12.4Z"/><path id="NA-HA" d="m154.6 283.8-.7 6.7 2.8.8 4.7-.3.3-1.3 2.2-.2 5.4-2.1 1.5.3 2.8-1.7-.6 1.6.4 1.8-1.5-.2-3 2 .5.6 3.9.2.8 1.7-1.1 1.9 3.2-1.7-1.1-3.7 2.5-2.2.6-1.3.7 1.1 1.1-.3v1.4h1.9v-.7c-.1 0 1.4.3 1.4.3l-.7-3.1-7.3-.9.5-3.9.4-1.9 1.4-2 1.3.2v2.4l2.4.1 1.7-1 2-2.5h.5v-2.4l-3.5-.9.2-1.5 4.9-10 1.5.8.4 1.2h1.6l.5-.7h.9l1.1 1.7 5.4-1.3 2.2-3.7h4.1l3.1 1.2v5.1l5.8-1.5 2.6.7 2.6-.8-.5 1-2 1 .5 3-2.2.4 1.1 3.5 1.5.6-.2 3.8.6 2.7 2.9-2.5h4.2v-1.2l7.2-.2 2.2.6 2.7 2.4 1.8-1 .4.6h1.7c0-.1 2.4-1.4 2.4-1.4l3.5-.6-.7-2.2 2.2-.7 4.2-2.6 1.2 1.2 3.8 8.1 1.9-1.5 3.1 3.3 3.8.6 6.6-2.9h3l-1.1 1.4h3.7l1.3.7 2.7-3h1.3l.6.2v7.5l27-.1v70.4l-2.8.7-.3-1.1-6.3 3-1.9-1.4-4.8-.4-.6-1.4-5.7-.6-2.2 2.4-4.2-6.8-1.5 1.6-3.7 1.8-4.9-.8-14-.2v-3.6h-13l-4.3 2.3-6.9 1.8-6.4 1-6.2.2-2.2-.9-2.7.2-.5-.6-3.2 3.5v4.8l-6.5-3-1.7 1.4-1.3-.5-3.9 1.3v-2.1c.1 0-2.5-1.5-2.5-1.5h-2.7c0 .1-.8-1.2-.8-1.2l-4-1.1-2.8-.4-1.8.3-1.6-3.6-2.4 6-2.3.2 1.1-.5.4-1.2-2.3-2.1-3.9 1.4 2.4 11.6-2.7-2-2.4 1.7-2.8-3.1-6-8.4-2.8.8-4.1-24.1-33.4.3h-.7l-2-3.9.2-3.3-1.1-3-6.4-8.4.8-2.8-.3-1.6-3.4-7.6-2.1-6.8-.2-4.5.8-1.7 1.2-.5.2-.7-.7-5.8.5-5.3-1.2-3.5 22.6 2.7 1.6 1.2 2.7.7.5-.3 1.6.9h3l1.6.7 2-.2.3 1 10.6 3.5Z"/><path id="NA-KA" d="m122.4 332.9 33.4-.3 4.1 24.1 2.8-.8 6 8.4 2.8 3.1 2.4-1.7 2.7 2-2.4-11.6 3.9-1.4 2.3 2.1-.4 1.2-1.1.5 2.3-.2 2.4-6 1.6 3.6 1.8-.3 2.8.4 4 1.1.8 1.3h2.7c0-.1 2.7 1.4 2.7 1.4v2.1c-.1 0 3.7-1.3 3.7-1.3l1.3.5 1.7-1.4 6.5 3v-4.8l3.2-3.5.5.6 2.7-.2 2.2.9 6.2-.2 6.4-1 6.9-1.8 4.3-2.3h13.1l-.1 3.7 14 .2 4.9.8 3.7-1.8 1.5-1.6 4.2 6.8 2.2-2.4 5.7.6.6 1.4 4.8.4 1.9 1.4 6.3-3 .3 1.1 2.8-.7v115.9l-4.5.6-1.1.7-1.3 2-2.7-.9-2.6 1.9-1.6-.8-2.2.7-.7.7-.4 1.8-1.2.6-.5 3.3-.9 1.1-2.3 1.3-1.9.3-1.8-.5-1.3.5-1.1 2.9.6 1.9 1.2.8.2.7-.5.6-1.4-.3-1.8 1.9-1.5.6-2.1.2-2.1-1.4h-1.2l-.6-1.8-2.1-1.3-7.6-1.1-3.8.4-3.3 1-.9 1-1.5-.3-1.7.7-2.7-.8h-3.2l-.4.6h-1.3l-1.1.8-3.9-1.9-1.4.2-1.9-2.7-1.2-1h-1c0 .1-.7-.9-.7-.9l-.4.3-4.6-.6-1.2-.8-.7.8-1-.6-2.1 1.2-1.1-.5-.6-2.8-1.1-.4-1 .6-1.9-.3-2.7 1.2.5-6.2-.7-.5-1.2.3-.5-2.5-.9-.6-.3-.9.6-1.5h1.3l.9-1.6v-1c.1 0-1.3-2.3-1.3-2.3l.2-1.1-1.8-2.9h-.9l-1.1.8-.8-.3-1.5.4-1.2-1.8.3-3.9-2-.6-2-2.5-2.2.8-.7 1-1-.7-.7.7H197l-.6.9.2 3.1-.6.4-1.5-.6v.7l.9 1.2-2 .4.8 1v1l-.8.3-1-.7-.8.6v1.2l2 2.5-1.5 1.5v2.3l-1.6 1.9h-.9c0-.1-.4-1.2-.4-1.2h-.6l-1.9 1.2-.9 1.4-4.2 1.3-.9 1.1v1.9l-4.4-3.3-10.8-11.7-7-6-5.1-5.7-1.2-1.8v-2.2l-5.4-7.2-.4-2 .4-.9-.5-1-2-2.5.3-.4-.9-1.9-2.6-3-.4-1.5-2.6-3.7-.4-2.7-.7-1.2.3-1.8-.9-2.6.4-.5-1-2 .4-3-.4-2-1.1-.6-.3.5-1.5-.9.2-2.1-.4.2-.2-1.2-.9-1-.5-1.6.3-1.1-.7-.2-.4-1.9V400l.8-.4.4.3.3-.5v.5l.4-1 .8 2.8v-2.5l.3.5.9-1.7-.3-.9-1-.3-.2-2.8-1-1.9.3-.6-1.5-2-3.9-2.1-.9-1.3v-3.5c.1 0 .8-1.3.8-1.3L125 379l1.4-.2.4-2.5-.9-3.1-1.7-2.7v-3.2l-3-4.2v-.7c.1 0 .8-.2.8-.2l-.4-3 1.6-4.5-1.7-3.1.2-1.4-1.2-1.8-.4-3.6 1.5-4.3.2-2.6 1-1.4-1-3.1h.7Z"/><path id="NA-KE" d="m291.6 102.4 3.1-4 4-1.3 1.3-2.8-.6-11.8 1.2-4.7-8.9-16.8 7.7-6.6.2-1-1.2-2.1h1.3l2.7 2.2 1.8-1.4 2.9.3 1.4-.7 2.1 1.1 2.1.4 1.2-.5 2 .8 2.1-1.2 2.6.5 1-1 .9.4.9-.6 2 1.3 3.1.7.7 1.2 2.3 1.2h4.1l2.2 1.5 1.7-.3v.6c.1 0 3.2.7 3.2.7l1.1-.3v-1l1-.6 3.2-1.5 8.8-.9 1.8 1.3 3.2.7.9.9 1.9.6 39.2-7.8.2 11.2-38.1 7.9h-17.3v33.4h-56.5Z"/><path id="NA-KH" d="m242 201 1.2 3.4-3 2.7.4 1.1 1.3.8-.5 2.8-1 .2v1.3l-.6-.1-.4 2.1h.5l.5 2.3-3.9.6-.4 3 1.4 3.3 1.7 2.1 2-.5 1.8 2.9 1.2.7-2.5 1.3 2.1 2 1.8-1.4 1.7 10.4 1.3 3.1v5.6c-.1 0 3.6-.6 3.6-.6v1.8l-3.4.6.6 2.4 1.6-.4.4 1.2 2.2.2 1 2.9h-3.7l-.7 2 6 5.2-2.5 6.4-1.2-1.2-4.2 2.6-2.2.7.7 2.2-3.5.6-2.4 1.2h-1.7c0 .1-.4-.5-.4-.5l-1.8 1-2.7-2.4-2.2-.6-7.2.2v1.3l-4.1-.1-2.9 2.5-.6-2.7.2-3.8-1.5-.6-1.1-3.5 2.2-.4-.5-3 2-1 .5-1-2.6.8-2.6-.7-5.8 1.5v-5.1l-3.1-1.3h-4.1l-2.2 3.8-5.4 1.3-1.1-1.8h-.9l-.5.8h-1.6l-.4-1.2-1.5-.8-4.9 10-.2 1.5 3.5.9v2.5l-.4-.1-2 2.5-1.7 1h-2.4V277l-1.3-.2-1.4 2-.4 1.9-.5 3.9 7.3.9.7 3.1-1.5-.3v.7h-1.7v-1.4l-1.2.3-.7-1.1-.6 1.3-2.5 2.2 1.1 3.7-3.2 1.7 1.1-1.9-.8-1.7-3.9-.2-.5-.6 3-2 1.5.2-.4-1.8.6-1.6-2.8 1.7-1.5-.3-5.4 2.1-2.2.2-.3 1.3-4.7.3-2.8-.8.7-6.7.8.7 2.8-.4.3-2.6-.5-4 .3-2.5-3.8-2.6 2.3-4.9h1l-1.1-5.3 2-.6v-.4l.7.3.5-.6h1.9c0-.1.3-.6.3-.6l-2.1-1.6-.7-1.2 1-10.1 2.4-1.8h3.9v-5.8h-4.2c0 .1 4.3-4.6 4.3-4.6l3.3 1.3 2.3-1.5v-1l1.8-1.6 2.5.2v-3.3l2.8-1.8 3.6-1.1.8 1.1 1.8-1.5 1.9.7.7-.8 4.8.4-1.2-1.7-3.1.4-.4-.8 1.7-2.2h.5v-.8l3.1 2.3.5 1.7 3.5-1.5 2.1-2.2 1 2.1 3.3-2.7.9 2.3 5.6-2.7v-2.3c-.1 0 .9-1.6.9-1.6l.6 1.6 3.2-.8.3-1.6-.4-.4 2.5 1.4.3-2.9-.8-2.7h1.4l1.2-1.1-.3-.7 2.2-1.5.5-1.3 3.2-.7 1.4 1.5 3.8-1.3 2.9-2.6 1.8-.7 2-.7.4.9 4.5-1.8Z"/><path id="NA-KU" d="m60.3 17.1 3.3 1.1 4-.8 3 1.4 2.2 2.8-.4 1.9 4.5 2.6 1.6 1.6 7.5 4 1.3 1.1.5 1.5 1 .6 2.3-.5 2.8.9.6-.6 1.5.3 2.1-1.1.4.9-.6 1.6-2.7 4.2 2 1.5-.2 2.7-1.2 1.3 5 10.5 1 16.1-.4 8.9 1.5 4.8 1.9 3.9v2.1c.1 0-1.4 5.3-1.4 5.3l2 6.3 2.1 1.7.6 1.8-1.2 3.8h5.1c0 .1.3-3.4.3-3.4h-2.1v-3.1l4.2-.5h9.7l6.4-1.1 4.2.7 4.2-1.3v2.1c-.1 0 8.6-.4 8.6-.4l7.8 1.9h3.3l3.3 1.8 9 1.5 6.3 1.8 9 .7 3.8 2 .7 3.8-.8 13.9.4 1-.6.9-2.9.9h-3.4v2.3l1 2.5-3.5.2-3.1 1.9-1.6.4-1 1v3c-.1 0 .6 1.1.6 1.1l-.3 1.9-2.9 1.4-.7-1.4-3.5 1.3-2.8-.2-3 1-3.8 4.3-2.3-2.5-3.3.2-1.2 1.4-.4 1.5h-3.4l-3.1-.7-1.5-1.9h-2.3l-1.4 1.8h-.8v1.2l-1.2.5-.5 1.7h-.6c0-.1-.9 1.2-.9 1.2l-2.2 1-.7 1.6-1.4.9-.2 1-1.7.5-.6.8-.6-.2-2.3 2.4h-.9l-.1.8-1.2.4v1.2h-1.6l-3.6 3.1-5 .8-4.3-1.6-2.5.7-2.7-1.1-1.6.8h-2.2c0 .1-2.4-1.2-2.4-1.2l-2.4-.3-2.3 1.1-1.9-.2-1.6 1-.8-.3-.5.5h-.8c0-.1-.4.7-.4.7h-1c0-.1-1.8.7-1.8.7l-4.2 3.6-4.2 2.3-2-2.2-.8-3.3-5.7-8.3-2.1-8.9-3.3-5.9-.3-5.3-1.3-2.2-.2-1.8-1.9-2.6-3.4-3.1-.7-3.3-3-5.4-.7-2.3-2.1-3.1-.8-2.4-4.9-8.7-.8-1.7-.2-2.6-2.7-4.4-.9-2.6-1.2-1.9-3-2.7-1-3.7-5-7-11-9.7-.9-2v-2.4l-1.7-2.8v-1.6l-3.8-4.6-.7-1.8-3.6-19.5v-5c.1 0 .8-3.2.8-3.2l-.2-4.8 2.2.7.9-1.2 1.6-.2 2.4-1.9 5-1.5 1 .6h2.1l.8 1.5 2.3 1.5h1.5l2.3-.7.8.4 1.4-.9.8.4.4 1.8 1.5-.9H37l1.4-.4.4-.8 2.2-1.3 1.3-.2 3.5-2 .6-1.1 1.8-.8.2-.7L51 19l1.4-1.3 4.1-.2 1.7-.7 1.4.3Z"/><path id="NA-KW" d="m298.2 51.1 1.2 2.1-.2 1-7.7 6.6 8.9 16.8-1.2 4.7.6 11.8-1.3 2.8-4 1.3-3.1 4h-9.6V87.6l-37-2.2-7.4-.4V33.3H253l1.8 2.2.3 1.3 1.2.6 2 3.2 1.2.2.7.7.3 1.3 3.9 2.9.7 1h1l.8 1.1 1.6.3.9 1.1 1.6.5 7.3.7 1.2-1.1 3 .7.8-.4 3.1.7-.2.8 1.7-.3 1.2.7h6.1l2.6-.6Z"/><path id="NA-OD" d="m245.1 85.5 37 2.2v14.6h66v44.8h-1.7l-1.4 1-.8-.5h-1.6l-2 1.3-3.1.2-4.1-1.4h-1.6c0 .1-2.2-.5-2.2-.5l-1.2.3-.3.6-3.2-.3-1.7-1.1-6.1-.5-.9-.6-6-.9-1.4.4-7.4-1.2-3 .7-3.2-1.1h-4.6l-2.4.7-.3 1.3-2 1.1h-.7c0-.1-1.3.7-1.3.7l-2.3.4-3.3 1.8h-1.2c0 .1-1.8 2.3-1.8 2.3l-6.5 2.2-1.9 1.5-1.5 2.5-3.2 2.3-2.8 5.1-1.2 3.7.7.7-.9 1.9-.7 4.6-1.8-3.6-4.9 1.5-.6 4.6 2.5-.9v1.6l-2.6 1.1 2.1 3.6-5.1-1.5-2.1.5-1 3.3 2.2.2.5 1.8-1.6-.2 1.1 4.1h-.8l.7 4.4-1.3 2.1.6.7-3.2 1 .2.4-4.5 1.8-.4-.9-2 .7-1.8.7-2.9 2.6-3.8 1.3-1.4-1.5-3.2.7-.5 1.3-2.2 1.5.3.7-1.2 1h-1.4l.8 2.7-.3 2.9-2.5-1.4.4.4-.3 1.6-3.2.8-.6-1.6-1 1.6v2.3c.1 0-5.4 2.7-5.4 2.7l-.9-2.3-3.3 2.7-1-2.1-2.1 2.2-3.5 1.5-.5-1.7-3.1-2.3v.9h-.4l-1.7 2.2.4.8 3.1-.4 1.2 1.7-4.8-.4-.7.8-1.9-.7-1.8 1.5-.8-1.1-3.6 1.1-1.5-2.6.5-.6-2.1-3.7 3.1-1.5.4-1h.9c0 .1-1.3-2.7-1.3-2.7l1.8-.2-.2-1.9.5-.9-.7-.8.8-2-.5-1.4h-.7v-1.5l-1.7-4.4 1.2-4.5.2-3.9 4.8-4.9-1.9-5.4.7-1.1-.3-2.5-2.9.3-1.8-.5-.2-1.2-1.3-1.5-1.2-.2-2.6-3.5-2.3 1.5-2.5-1.4-.3.5-2.9-2.8-7.2-3.9-3.8-3.2-.5-2.7-2 .3-3.2-1.3v-4.3h3.4l.4-1.5 1.2-1.4 3.3-.2 2.3 2.5 3.8-4.3 3-1 2.8.2 3.5-1.3.7 1.4 2.9-1.4.3-1.9-.7-1.1v-3c.1 0 1.1-1 1.1-1l1.6-.4 3.1-1.9 3.5-.2-1-2.5v-2.2l3.3-.1 2.9-.9.6-.9-.4-1 .8-13.9-.7-3.8 10.6-5.4 4.6-5.5.3-1.6 2.6-1 .8 2 2.5-1.1 1.2 1.9-.2 2.3h1.7l-.1-1.4 2.4-.3v1.8l-1.6.2v3l1.7 1.6.5-1.1 5.3 3.9.6-1 3.4 2.3 5.4-.8.7 2.2 3.4-2-2-2.7v-2.2h.4v-1.1l1.7-.2v-1.7l2.2-.1.2-4.8h.7l-.6-4.7 2.5.2.5-2.6h2.9v-4.9l.7-3.7Z"/><path id="NA-OH" d="m242 201-.2-.4 3.2-1-.6-.7 1.3-2.1-.7-4.4h.8l-1.1-4.1 1.6.2-.5-1.8-2.2-.2 1-3.3 2.1-.5 5.1 1.5-2.1-3.6 2.6-1.1v-1.6l-2.5.9.6-4.6 4.9-1.5 1.8 3.6.7-4.6.9-1.9-.7-.7 1.2-3.7 2.8-5.1 3.2-2.3 1.5-2.5 1.9-1.5 6.5-2.2 1.8-2.2h1.2c0-.1 3.3-1.9 3.3-1.9l2.3-.4 1.3-.9h.7c0 .1 2-.9 2-.9l.3-1.3 2.4-.6h4.6l3.2 1 3-.7 7.4 1.2 1.4-.4 6 .9.9.6 6.1.5 1.7 1.1 3.2.3.3-.6 1.2-.3 2.2.7h1.6c0-.1 4.1 1.3 4.1 1.3l3.1-.2 2-1.2h1.6l.8.5 1.4-1h1.7l.2 65.4h-36.9v73.9h-27v-7.3h-.6c0-.1-1.3-.2-1.3-.2l-2.7 3-1.3-.7h-3.7l1.1-1.4h-3l-6.6 2.8-3.8-.6-3.1-3.3-1.9 1.5-3.8-8.1 2.5-6.4-6-5.2.7-2h3.7l-1-3-2.2-.2-.4-1.2-1.6.4-.6-2.4 3.4-.6v-1.8l-3.7.6v-5.6c.1 0-1.2-3.1-1.2-3.1l-1.7-10.4-1.8 1.4-2.1-2 2.5-1.3-1.2-.7-1.8-2.9-2 .5-1.7-2.1-1.4-3.3.4-3 3.9-.6-.5-2.3h-.5l.4-2.2h.6v-1.1l1-.2.5-2.8-1.3-.8-.4-1.1 3-2.7-1.2-3.4Z"/><path id="NA-ON" d="M164.1 44.7v12.8l.5-.2.7 1.6.2 4.5-.7 2.1-2.7 2.9.5 3.1h-.8l.9.6-.4.5v1.6l-.6.5.8.4-.4 1.2 1.7 1.1-.3 1.2 1.4.8-.3 1.2.5 2.2-1.1-.9-3.3 3.1-1.7 2.3-.9 2.2v3.1l1.6 4.1 1.6 3.1.7.5 1-.2v1l-2.1 1.6.8 5.5-3.3-1.8h-3.3l-7.8-1.9-8.7.4v-2.1h.1v-1.1l3.1-.9.4.3 3.4-2.1 3.7-1.1-1.8-.9-1.5-2.3 1.7-1.7v-2.2c.1 0-2.1-5.5-2.1-5.5l1.6-3.3.7.2-2.5-19.8L144 61l-.3.5-1.8-1.2-2.5-.6-.6-1-1.5-.7 13.8-13.9 12.7.7Z"/><path id="NA-OS" d="M113.7 33.2h33.8l.9 4.3.9.6 2 3.2.2 2.7-13.8 13.9 1.5.7.6 1 2.5.6 1.8 1.2.3-.5 1.4 1.4 2.5 19.8-.7-.2-1.6 3.3 2.3 5.5v2.2c-.1 0-1.8 1.7-1.8 1.7l1.5 2.3 1.8.9-3.7 1.1-3.4 2.1-.4-.3-3.1.9v1.1L135 104l-4.2-.7-6.4 1.1h-9.7l-4.2.4v3.2h2.1l-.3 3.5h-5.1c0-.1 1.2-3.9 1.2-3.9l-.6-1.8-2.1-1.7-2-6.3 1.5-5.3v-2.1c-.1 0-2-3.9-2-3.9l-1.5-4.8.4-8.9-1-16.1-5-10.5 1.2-1.3.2-2.7-2-1.5 2.7-4.2.6-1.6-.4-.9.2-.8 15.3.2Z"/><path id="NA-OT" d="m164.1 44.7 13.6 9.3 14.4-6.2 45.6-.8v38l7.4.4-.7 3.7V94h-2.9l-.5 2.6-2.5-.2.6 4.8h-.7l-.2 4.7h-2.3v1.8l-1.6.2v1.1h-.5v2.2l2 2.7-3.4 2-.7-2.2-5.4.8-3.4-2.3-.6 1-5.3-3.9-.5 1.1-1.7-1.6v-3l1.6-.2v-1.8l-2.4.3v1.3h-1.6l.2-2.3-1.2-1.9-2.5 1.1-.8-2-2.6 1-.3 1.6-4.6 5.5-10.6 5.4-3.8-2-9-.7-6.3-1.8-9-1.5-.8-5.5 2-1.6v-1l-.9.2-.7-.5-1.6-3.1-1.6-4.1v-3.1l.9-2.2 1.7-2.3 3.3-3.1 1.1.9-.5-2.2.3-1.2-1.4-.8.3-1.2-1.7-1.1.4-1.2-.8-.4.6-.5v-1.6l.4-.5-.9-.6h.8l-.5-3.1 2.7-2.9.7-2.1-.2-4.5-.7-1.6-.5.2V44.3Z"/><path id="NA-OW" d="m196.2 33.2 41.6.2v13.7l-45.6.8-14.4 6.2-13.6-9.3-12.7-.7-.2-2.7-2-3.2-.9-.6-.9-4.3h48.7Z"/></g></svg>