<?xml version="1.0" encoding="UTF-8"?>
<svg id="Layer_1" xmlns="http://www.w3.org/2000/svg" xmlns:amcharts="http://amcharts.com/ammap" version="1.1" viewBox="0 0 512 512">
  <!-- Generator: Adobe Illustrator 29.1.0, SVG Export Plug-In . SVG Version: 2.1.0 Build 142)  -->
  <g id="_x3C_defs">
    <amcharts:ammap bottomLatitude="-28.967021" leftLongitude="11.733827" projection="mercator" rightLongitude="25.257046" topLatitude="-16.958894"/>
  </g>
  <g>
    <path id="NA-CA" d="M476.7,37.4l.8,1.9,1.1-.4,2.2.2,1.1-.8,3-.8,3.4,1.4,1.1-.4,1.7.3,1.3,1,.8-.4.6.9.8-.5,1.1,1.5,1.3-.2.3,1.2h.6c0-.1,1,1.4,1,1.4h.7s-.2,1.8-.2,1.8l1.1-.4v.6s1.1.2,1.1.2v.9s.9,1,.9,1l2.7.8-3.6-.2-.6,1.1h-.6c0-.1-.5.7-.5.7l-1.6.6-.6-.3.4-.4-.4-.5-1.5,1-.2-.7-.7.5-.8-.9.5-.6h-.7s-3.3,2-3.3,2h-1.3s-1.6,1.2-1.6,1.2h-.7c0,0-1,.8-1,.8l-.5-.3-1.1,2h-1.6c0,0,.1.6.1.6l-1.5,1.2-1.8,2.9h-1.6s-1.5-.7-1.5-.7l-.4-.6.3-.8-1.1-1.1v-.9c0,0-.4.3-.4.3l-.8-.6-.8.3-1.2-.4-2.1,1.8-.5,1.3-.9-.8-2.8.3-2.9,3.3-.9.6-1.1-.3-.2.9-1.3.6-1.6,1.7-.6-.2-.9.6-.4,1.7-1.8,1-1,1.7-1.4.7-.7,1.7-2.6,2.1h-1.3c0,0-.6,1.3-.6,1.3l-2,1.3-1.5-.8-.7-3.9.4-.7-.2-1-1-.9-.2-1.7-.8-.4v-.8c-.1,0-1.7-.3-1.7-.3l-.2-1.3-1.8.3v-1.2c.1,0-2.7-3.8-2.7-3.8l-.2-.9.5-.2-.8-.6.2-.8-.8-.7-7.9.2-21.3,4.3h0l-.2-11.2h0l64-13.2,3.8.8,1.8-1.2,3.8,1.1Z"/>
    <path id="NA-ER" d="M76.8,180.6l4.2-2.3,4.2-3.6,1.8-.9h1c0,.1.4-.7.4-.7h.8c0,.1.5-.4.5-.4l.8.3,1.6-1,1.9.2,2.3-1.1,2.4.3,2.4,1.3h2.2c0-.1,1.6-.9,1.6-.9l2.7,1.1,2.5-.7,4.3,1.6,5-.8,3.6-3.1h1.6c0,0,0-1.1,0-1.1l1.2-.4v-.8c.1,0,1,0,1,0l2.3-2.4.6.2.6-.8,1.7-.5.2-1,1.4-.9.7-1.6,2.2-1,.9-1.3h.6c0,.1.5-1.6.5-1.6l1.2-.5v-1.1c0,0,.7,0,.7,0l1.4-1.9h2.3s1.5,2,1.5,2l3.1.7h0v4.3s3.3,1.3,3.3,1.3l2-.3.5,2.7,3.8,3.2,7.2,3.9,2.9,2.8.3-.5,2.5,1.4,2.3-1.5,2.6,3.5,1.2.2,1.3,1.5.2,1.2,1.8.5,2.9-.3.3,2.5-.7,1.1,1.9,5.4-4.8,4.9-.2,3.9-1.2,4.5,1.7,4.4v1.6c0,0,.7,0,.7,0l.5,1.3-.8,2,.7.8-.5.9.2,1.9-1.8.2,1.3,2.8h-.9c0-.1-.4.8-.4.8l-3.1,1.5,2.1,3.7-.5.6,1.5,2.6h0l-2.9,1.8v3.3c0,0-2.4-.2-2.4-.2l-1.8,1.6v1s-2.3,1.5-2.3,1.5l-3.3-1.3-4.3,4.8h4.2c0-.1,0,5.6,0,5.6h-3.9c0,0-2.4,1.8-2.4,1.8l-1,10.1.7,1.2,2.1,1.6-.3.5h-1.9c0,.1-.5.7-.5.7l-.7-.3v.4s-2,.6-2,.6l1.1,5.2h-1s-2.3,4.9-2.3,4.9l3.8,2.6-.3,2.5.5,4-.3,2.6-2.8.4-.8-.7h0l-10.6-3.5-.3-1-2,.2-1.6-.7h-3s-1.6-.9-1.6-.9l-.5.3-2.7-.7-1.6-1.2-22.6-2.7h0l-1.7-5.8.4-.7,1.2-.3-.9.5h.5c0,0-.2,1-.2,1l1.3-.8v-3.1s-3.5-12.1-3.5-12.1l.2-2.3.9-.7.2-2.3h.4c0,.1-.6,4-.6,4l1.5-.6-.5,2.5,1-2.1-.3-.5,2.2-2.4.2-3.6-.8-2.2.2-4.5-.7-1.9v-1.5c.1,0-2.1-4.1-2.1-4.1l.2-.8-2.2-5.8-2.8-2.9-1.1-1.6v-1.3s-8.3-10.5-8.3-10.5l-4.2-3.6,1-1.2v-1s-3.6-5.2-3.6-5.2l-.9-2.7.3-.6-8.6-12.4Z"/>
    <path id="NA-HA" d="M154.6,283.8l-.7,6.7,2.8.8,4.7-.3.3-1.3,2.2-.2,5.4-2.1,1.5.3,2.8-1.7-.6,1.6.4,1.8-1.5-.2-3,2,.5.6,3.9.2.8,1.7-1.1,1.9,3.2-1.7-1.1-3.7,2.5-2.2.6-1.3.7,1.1,1.1-.3v1.4s1.9,0,1.9,0v-.7c-.1,0,1.4.3,1.4.3l-.7-3.1-7.3-.9.5-3.9.4-1.9,1.4-2,1.3.2v2.4c0,0,2.4.1,2.4.1l1.7-1,2-2.5h.5c0,.1,0-2.4,0-2.4l-3.5-.9.2-1.5,4.9-10,1.5.8.4,1.2h1.6s.5-.7.5-.7h.9c0,0,1.1,1.7,1.1,1.7l5.4-1.3,2.2-3.7h4.1c0,0,3.1,1.2,3.1,1.2v5.1s5.8-1.5,5.8-1.5l2.6.7,2.6-.8-.5,1-2,1,.5,3-2.2.4,1.1,3.5,1.5.6-.2,3.8.6,2.7,2.9-2.5h4.2c0,.1,0-1.2,0-1.2l7.2-.2,2.2.6,2.7,2.4,1.8-1,.4.6h1.7c0-.1,2.4-1.4,2.4-1.4l3.5-.6-.7-2.2,2.2-.7,4.2-2.6,1.2,1.2h0l3.8,8.1,1.9-1.5,3.1,3.3,3.8.6,6.6-2.9h3c0,0-1.1,1.4-1.1,1.4h3.7s1.3.7,1.3.7l2.7-3h1.3c0,0,.6.2.6.2v7.5s27-.1,27-.1h0v70.4h0l-2.8.7-.3-1.1-6.3,3-1.9-1.4-4.8-.4-.6-1.4-5.7-.6-2.2,2.4-4.2-6.8-1.5,1.6-3.7,1.8-4.9-.8-14-.2v-3.6c.1,0-13,0-13,0l-4.3,2.3-6.9,1.8-6.4,1-6.2.2-2.2-.9-2.7.2-.5-.6-3.2,3.5v4.8s-6.5-3-6.5-3l-1.7,1.4-1.3-.5-3.9,1.3v-2.1c.1,0-2.5-1.5-2.5-1.5h-2.7c0,.1-.8-1.2-.8-1.2l-4-1.1-2.8-.4-1.8.3-1.6-3.6-2.4,6-2.3.2,1.1-.5.4-1.2-2.3-2.1-3.9,1.4,2.4,11.6-2.7-2-2.4,1.7-2.8-3.1-6-8.4-2.8.8-4.1-24.1-33.4.3h-.7s-2-3.9-2-3.9l.2-3.3-1.1-3-6.4-8.4.8-2.8-.3-1.6-3.4-7.6-2.1-6.8-.2-4.5.8-1.7,1.2-.5.2-.7-.7-5.8.5-5.3-1.2-3.5h0l22.6,2.7,1.6,1.2,2.7.7.5-.3,1.6.9h3s1.6.7,1.6.7l2-.2.3,1,10.6,3.5Z"/>
    <path id="NA-KA" d="M122.4,332.9l33.4-.3,4.1,24.1,2.8-.8,6,8.4,2.8,3.1,2.4-1.7,2.7,2-2.4-11.6,3.9-1.4,2.3,2.1-.4,1.2-1.1.5,2.3-.2,2.4-6,1.6,3.6,1.8-.3,2.8.4,4,1.1.8,1.3h2.7c0-.1,2.7,1.4,2.7,1.4v2.1c-.1,0,3.7-1.3,3.7-1.3l1.3.5,1.7-1.4,6.5,3v-4.8s3.2-3.5,3.2-3.5l.5.6,2.7-.2,2.2.9,6.2-.2,6.4-1,6.9-1.8,4.3-2.3h13.1s-.1,3.7-.1,3.7l14,.2,4.9.8,3.7-1.8,1.5-1.6,4.2,6.8,2.2-2.4,5.7.6.6,1.4,4.8.4,1.9,1.4,6.3-3,.3,1.1,2.8-.7h0v115.9s-4.5.6-4.5.6l-1.1.7-1.3,2-2.7-.9-2.6,1.9-1.6-.8-2.2.7-.7.7-.4,1.8-1.2.6-.5,3.3-.9,1.1-2.3,1.3-1.9.3-1.8-.5-1.3.5-1.1,2.9.6,1.9,1.2.8.2.7-.5.6-1.4-.3-1.8,1.9-1.5.6-2.1.2-2.1-1.4h-1.2c0,0-.6-1.8-.6-1.8l-2.1-1.3-7.6-1.1-3.8.4-3.3,1-.9,1-1.5-.3-1.7.7-2.7-.8h-3.2c0,0-.4.6-.4.6h-1.3c0,0-1.1.8-1.1.8l-3.9-1.9-1.4.2-1.9-2.7-1.2-1h-1c0,.1-.7-.9-.7-.9l-.4.3-4.6-.6-1.2-.8-.7.8-1-.6-2.1,1.2-1.1-.5-.6-2.8-1.1-.4-1,.6-1.9-.3-2.7,1.2.5-6.2-.7-.5-1.2.3-.5-2.5-.9-.6-.3-.9.6-1.5h1.3c0,0,.9-1.6.9-1.6v-1c.1,0-1.3-2.3-1.3-2.3l.2-1.1-1.8-2.9h-.9c0,0-1.1.8-1.1.8l-.8-.3-1.5.4-1.2-1.8.3-3.9-2-.6-2-2.5-2.2.8-.7,1-1-.7-.7.7h-2.1c0,0-.6.9-.6.9l.2,3.1-.6.4-1.5-.6v.7s.9,1.2.9,1.2l-2,.4.8,1v1s-.8.3-.8.3l-1-.7-.8.6v1.2s2,2.5,2,2.5l-1.5,1.5v2.3s-1.6,1.9-1.6,1.9h-.9c0-.1-.4-1.2-.4-1.2h-.6c0,0-1.9,1.2-1.9,1.2l-.9,1.4-4.2,1.3-.9,1.1v1.9c0,0-4.4-3.3-4.4-3.3l-10.8-11.7-7-6-5.1-5.7-1.2-1.8v-2.2s-5.4-7.2-5.4-7.2l-.4-2,.4-.9-.5-1-2-2.5.3-.4-.9-1.9-2.6-3-.4-1.5-2.6-3.7-.4-2.7-.7-1.2.3-1.8-.9-2.6.4-.5-1-2,.4-3-.4-2-1.1-.6-.3.5-1.5-.9.2-2.1-.4.2-.2-1.2-.9-1-.5-1.6.3-1.1-.7-.2-.4-1.9v-1.4c0,0,.8-.4.8-.4l.4.3.3-.5v.5c0,0,.4-1,.4-1l.8,2.8v-2.5c0,0,.3.5.3.5l.9-1.7-.3-.9-1-.3-.2-2.8-1-1.9.3-.6-1.5-2-3.9-2.1-.9-1.3v-3.5c.1,0,.8-1.3.8-1.3l-1.5-2.3,1.4-.2.4-2.5-.9-3.1-1.7-2.7v-3.2l-3-4.2v-.7c.1,0,.8-.2.8-.2l-.4-3,1.6-4.5-1.7-3.1.2-1.4-1.2-1.8-.4-3.6,1.5-4.3.2-2.6,1-1.4-1-3.1h.7Z"/>
    <path id="NA-KE" d="M291.6,102.4l3.1-4,4-1.3,1.3-2.8-.6-11.8,1.2-4.7-8.9-16.8,7.7-6.6.2-1-1.2-2.1h1.3c0,0,2.7,2.2,2.7,2.2l1.8-1.4,2.9.3,1.4-.7,2.1,1.1,2.1.4,1.2-.5,2,.8,2.1-1.2,2.6.5,1-1,.9.4.9-.6,2,1.3,3.1.7.7,1.2,2.3,1.2h4.1s2.2,1.5,2.2,1.5l1.7-.3v.6c.1,0,3.2.7,3.2.7l1.1-.3v-1c0,0,1-.6,1-.6l3.2-1.5,8.8-.9,1.8,1.3,3.2.7.9.9,1.9.6,39.2-7.8h0l.2,11.2h0l-38.1,7.9h-17.3s0,33.4,0,33.4h-56.5Z"/>
    <path id="NA-KH" d="M242,201l1.2,3.4-3,2.7.4,1.1,1.3.8-.5,2.8-1,.2v1.3s-.6-.1-.6-.1l-.4,2.1h.5c0,0,.5,2.3.5,2.3l-3.9.6-.4,3,1.4,3.3,1.7,2.1,2-.5,1.8,2.9,1.2.7-2.5,1.3,2.1,2,1.8-1.4,1.7,10.4,1.3,3.1v5.6c-.1,0,3.6-.6,3.6-.6v1.8s-3.4.6-3.4.6l.6,2.4,1.6-.4.4,1.2,2.2.2,1,2.9h-3.7c0,0-.7,2-.7,2l6,5.2-2.5,6.4h0l-1.2-1.2-4.2,2.6-2.2.7.7,2.2-3.5.6-2.4,1.2h-1.7c0,.1-.4-.5-.4-.5l-1.8,1-2.7-2.4-2.2-.6-7.2.2v1.3s-4.1-.1-4.1-.1l-2.9,2.5-.6-2.7.2-3.8-1.5-.6-1.1-3.5,2.2-.4-.5-3,2-1,.5-1-2.6.8-2.6-.7-5.8,1.5v-5.1s-3.1-1.3-3.1-1.3h-4.1c0,0-2.2,3.8-2.2,3.8l-5.4,1.3-1.1-1.8h-.9c0,0-.5.8-.5.8h-1.6s-.4-1.2-.4-1.2l-1.5-.8-4.9,10-.2,1.5,3.5.9v2.5c0,0-.4-.1-.4-.1l-2,2.5-1.7,1h-2.4c0-.1,0-2.5,0-2.5l-1.3-.2-1.4,2-.4,1.9-.5,3.9,7.3.9.7,3.1-1.5-.3v.7c.1,0-1.7,0-1.7,0v-1.4s-1.2.3-1.2.3l-.7-1.1-.6,1.3-2.5,2.2,1.1,3.7-3.2,1.7,1.1-1.9-.8-1.7-3.9-.2-.5-.6,3-2,1.5.2-.4-1.8.6-1.6-2.8,1.7-1.5-.3-5.4,2.1-2.2.2-.3,1.3-4.7.3-2.8-.8.7-6.7h0l.8.7,2.8-.4.3-2.6-.5-4,.3-2.5-3.8-2.6,2.3-4.9h1s-1.1-5.3-1.1-5.3l2-.6v-.4s.7.3.7.3l.5-.6h1.9c0-.1.3-.6.3-.6l-2.1-1.6-.7-1.2,1-10.1,2.4-1.8h3.9c0,0,0-5.8,0-5.8h-4.2c0,.1,4.3-4.6,4.3-4.6l3.3,1.3,2.3-1.5v-1s1.8-1.6,1.8-1.6l2.5.2v-3.3c0,0,2.8-1.8,2.8-1.8h0l3.6-1.1.8,1.1,1.8-1.5,1.9.7.7-.8,4.8.4-1.2-1.7-3.1.4-.4-.8,1.7-2.2h.5c0,0,0-.8,0-.8l3.1,2.3.5,1.7,3.5-1.5,2.1-2.2,1,2.1,3.3-2.7.9,2.3,5.6-2.7v-2.3c-.1,0,.9-1.6.9-1.6l.6,1.6,3.2-.8.3-1.6-.4-.4,2.5,1.4.3-2.9-.8-2.7h1.4c0,0,1.2-1.1,1.2-1.1l-.3-.7,2.2-1.5.5-1.3,3.2-.7,1.4,1.5,3.8-1.3,2.9-2.6,1.8-.7,2-.7.4.9,4.5-1.8Z"/>
    <path id="NA-KU" d="M60.3,17.1l3.3,1.1,4-.8,3,1.4,2.2,2.8-.4,1.9,4.5,2.6,1.6,1.6,7.5,4,1.3,1.1.5,1.5,1,.6,2.3-.5,2.8.9.6-.6,1.5.3,2.1-1.1h0l.4.9-.6,1.6-2.7,4.2,2,1.5-.2,2.7-1.2,1.3,5,10.5,1,16.1-.4,8.9,1.5,4.8,1.9,3.9v2.1c.1,0-1.4,5.3-1.4,5.3l2,6.3,2.1,1.7.6,1.8-1.2,3.8h5.1c0,.1.3-3.4.3-3.4h-2.1c0,0,0-3.1,0-3.1l4.2-.5h9.7s6.4-1.1,6.4-1.1l4.2.7,4.2-1.3h0v2.1c-.1,0,8.6-.4,8.6-.4l7.8,1.9h3.3s3.3,1.8,3.3,1.8h0l9,1.5,6.3,1.8,9,.7,3.8,2h0l.7,3.8-.8,13.9.4,1-.6.9-2.9.9h-3.4c0,.1,0,2.3,0,2.3l1,2.5-3.5.2-3.1,1.9-1.6.4-1,1v3c-.1,0,.6,1.1.6,1.1l-.3,1.9-2.9,1.4-.7-1.4-3.5,1.3-2.8-.2-3,1-3.8,4.3-2.3-2.5-3.3.2-1.2,1.4-.4,1.5h-3.4l-3.1-.7-1.5-1.9h-2.3s-1.4,1.8-1.4,1.8h-.8c0,0,0,1.2,0,1.2l-1.2.5-.5,1.7h-.6c0-.1-.9,1.2-.9,1.2l-2.2,1-.7,1.6-1.4.9-.2,1-1.7.5-.6.8-.6-.2-2.3,2.4h-.9c0,0-.1.8-.1.8l-1.2.4v1.2c0,0-1.6,0-1.6,0l-3.6,3.1-5,.8-4.3-1.6-2.5.7-2.7-1.1-1.6.8h-2.2c0,.1-2.4-1.2-2.4-1.2l-2.4-.3-2.3,1.1-1.9-.2-1.6,1-.8-.3-.5.5h-.8c0-.1-.4.7-.4.7h-1c0-.1-1.8.7-1.8.7l-4.2,3.6-4.2,2.3h0l-2-2.2-.8-3.3-5.7-8.3-2.1-8.9-3.3-5.9-.3-5.3-1.3-2.2-.2-1.8-1.9-2.6-3.4-3.1-.7-3.3-3-5.4-.7-2.3-2.1-3.1-.8-2.4-4.9-8.7-.8-1.7-.2-2.6-2.7-4.4-.9-2.6-1.2-1.9-3-2.7-1-3.7-5-7-11-9.7-.9-2v-2.4s-1.7-2.8-1.7-2.8v-1.6c0,0-3.8-4.6-3.8-4.6l-.7-1.8-3.6-19.5v-5c.1,0,.8-3.2.8-3.2l-.2-4.8,2.2.7.9-1.2,1.6-.2,2.4-1.9,5-1.5,1,.6h2.1s.8,1.5.8,1.5l2.3,1.5h1.5c0,0,2.3-.7,2.3-.7l.8.4,1.4-.9.8.4.4,1.8,1.5-.9h2.9s1.4-.4,1.4-.4l.4-.8,2.2-1.3,1.3-.2,3.5-2,.6-1.1,1.8-.8.2-.7,2.6-1.1,1.4-1.3,4.1-.2,1.7-.7,1.4.3Z"/>
    <path id="NA-KW" d="M298.2,51.1l1.2,2.1-.2,1-7.7,6.6,8.9,16.8-1.2,4.7.6,11.8-1.3,2.8-4,1.3-3.1,4h-9.6s0-14.6,0-14.6l-37-2.2h0l-7.4-.4v-38h0v-13.7h15.6s1.8,2.2,1.8,2.2l.3,1.3,1.2.6,2,3.2,1.2.2.7.7.3,1.3,3.9,2.9.7,1h1c0,0,.8,1.1.8,1.1l1.6.3.9,1.1,1.6.5,7.3.7,1.2-1.1,3,.7.8-.4,3.1.7-.2.8,1.7-.3,1.2.7h6.1c0,0,2.6-.6,2.6-.6Z"/>
    <path id="NA-OD" d="M245.1,85.5l37,2.2v14.6c0,0,9.5,0,9.5,0h56.5s0,44.8,0,44.8h-1.7c0,0-1.4,1-1.4,1l-.8-.5h-1.6s-2,1.3-2,1.3l-3.1.2-4.1-1.4h-1.6c0,.1-2.2-.5-2.2-.5l-1.2.3-.3.6-3.2-.3-1.7-1.1-6.1-.5-.9-.6-6-.9-1.4.4-7.4-1.2-3,.7-3.2-1.1h-4.6c0,0-2.4.7-2.4.7l-.3,1.3-2,1.1h-.7c0-.1-1.3.7-1.3.7l-2.3.4-3.3,1.8h-1.2c0,.1-1.8,2.3-1.8,2.3l-6.5,2.2-1.9,1.5-1.5,2.5-3.2,2.3-2.8,5.1-1.2,3.7.7.7-.9,1.9-.7,4.6-1.8-3.6-4.9,1.5-.6,4.6,2.5-.9v1.6c0,0-2.6,1.1-2.6,1.1l2.1,3.6-5.1-1.5-2.1.5-1,3.3,2.2.2.5,1.8-1.6-.2,1.1,4.1h-.8s.7,4.4.7,4.4l-1.3,2.1.6.7-3.2,1,.2.4h0l-4.5,1.8-.4-.9-2,.7-1.8.7-2.9,2.6-3.8,1.3-1.4-1.5-3.2.7-.5,1.3-2.2,1.5.3.7-1.2,1h-1.4c0,0,.8,2.7.8,2.7l-.3,2.9-2.5-1.4.4.4-.3,1.6-3.2.8-.6-1.6-1,1.6v2.3c.1,0-5.4,2.7-5.4,2.7l-.9-2.3-3.3,2.7-1-2.1-2.1,2.2-3.5,1.5-.5-1.7-3.1-2.3v.9s-.4,0-.4,0l-1.7,2.2.4.8,3.1-.4,1.2,1.7-4.8-.4-.7.8-1.9-.7-1.8,1.5-.8-1.1-3.6,1.1h0l-1.5-2.6.5-.6-2.1-3.7,3.1-1.5.4-1h.9c0,.1-1.3-2.7-1.3-2.7l1.8-.2-.2-1.9.5-.9-.7-.8.8-2-.5-1.4h-.7c0,0,0-1.5,0-1.5l-1.7-4.4,1.2-4.5.2-3.9,4.8-4.9-1.9-5.4.7-1.1-.3-2.5-2.9.3-1.8-.5-.2-1.2-1.3-1.5-1.2-.2-2.6-3.5-2.3,1.5-2.5-1.4-.3.5-2.9-2.8-7.2-3.9-3.8-3.2-.5-2.7-2,.3-3.2-1.3v-4.3h0,3.4l.4-1.5,1.2-1.4,3.3-.2,2.3,2.5,3.8-4.3,3-1,2.8.2,3.5-1.3.7,1.4,2.9-1.4.3-1.9-.7-1.1v-3c.1,0,1.1-1,1.1-1l1.6-.4,3.1-1.9,3.5-.2-1-2.5v-2.2c0,0,3.3-.1,3.3-.1l2.9-.9.6-.9-.4-1,.8-13.9-.7-3.8h0l10.6-5.4,4.6-5.5.3-1.6,2.6-1,.8,2,2.5-1.1,1.2,1.9-.2,2.3h1.7c0,0-.1-1.4-.1-1.4l2.4-.3v1.8c0,0-1.6.2-1.6.2v3c0,0,1.7,1.6,1.7,1.6l.5-1.1,5.3,3.9.6-1,3.4,2.3,5.4-.8.7,2.2,3.4-2-2-2.7v-2.2c0,0,.4,0,.4,0v-1.1c0,0,1.7-.2,1.7-.2v-1.7s2.2-.1,2.2-.1l.2-4.8h.7c0,0-.6-4.7-.6-4.7l2.5.2.5-2.6h2.9c0,0,0-4.9,0-4.9l.7-3.7Z"/>
    <path id="NA-OH" d="M242,201l-.2-.4,3.2-1-.6-.7,1.3-2.1-.7-4.4h.8s-1.1-4.1-1.1-4.1l1.6.2-.5-1.8-2.2-.2,1-3.3,2.1-.5,5.1,1.5-2.1-3.6,2.6-1.1v-1.6c0,0-2.5.9-2.5.9l.6-4.6,4.9-1.5,1.8,3.6.7-4.6.9-1.9-.7-.7,1.2-3.7,2.8-5.1,3.2-2.3,1.5-2.5,1.9-1.5,6.5-2.2,1.8-2.2h1.2c0-.1,3.3-1.9,3.3-1.9l2.3-.4,1.3-.9h.7c0,.1,2-.9,2-.9l.3-1.3,2.4-.6h4.6c0,0,3.2,1,3.2,1l3-.7,7.4,1.2,1.4-.4,6,.9.9.6,6.1.5,1.7,1.1,3.2.3.3-.6,1.2-.3,2.2.7h1.6c0-.1,4.1,1.3,4.1,1.3l3.1-.2,2-1.2h1.6s.8.5.8.5l1.4-1h1.7c0,0,.2,65.4.2,65.4h-36.9c0,0,0,73.9,0,73.9h-27c0,.1,0-7.3,0-7.3h-.6c0-.1-1.3-.2-1.3-.2l-2.7,3-1.3-.7h-3.7s1.1-1.4,1.1-1.4h-3c0,0-6.6,2.8-6.6,2.8l-3.8-.6-3.1-3.3-1.9,1.5-3.8-8.1h0l2.5-6.4-6-5.2.7-2h3.7c0,0-1-3-1-3l-2.2-.2-.4-1.2-1.6.4-.6-2.4,3.4-.6v-1.8s-3.7.6-3.7.6v-5.6c.1,0-1.2-3.1-1.2-3.1l-1.7-10.4-1.8,1.4-2.1-2,2.5-1.3-1.2-.7-1.8-2.9-2,.5-1.7-2.1-1.4-3.3.4-3,3.9-.6-.5-2.3h-.5c0,0,.4-2.2.4-2.2h.6c0,.1,0-1.1,0-1.1l1-.2.5-2.8-1.3-.8-.4-1.1,3-2.7-1.2-3.4Z"/>
    <path id="NA-ON" d="M164.1,44.7v12.8l.5-.2.7,1.6.2,4.5-.7,2.1-2.7,2.9.5,3.1h-.8l.9.6-.4.5v1.6s-.6.5-.6.5l.8.4-.4,1.2,1.7,1.1-.3,1.2,1.4.8-.3,1.2.5,2.2-1.1-.9-3.3,3.1-1.7,2.3-.9,2.2v3.1s1.6,4.1,1.6,4.1l1.6,3.1.7.5,1-.2v1s-2.1,1.6-2.1,1.6l.8,5.5h0l-3.3-1.8h-3.3s-7.8-1.9-7.8-1.9l-8.7.4v-2.1h.1v-1.1s3.1-.9,3.1-.9l.4.3,3.4-2.1,3.7-1.1-1.8-.9-1.5-2.3,1.7-1.7v-2.2c.1,0-2.1-5.5-2.1-5.5l1.6-3.3.7.2-2.5-19.8-1.4-1.4-.3.5-1.8-1.2-2.5-.6-.6-1-1.5-.7,13.8-13.9h0l12.7.7Z"/>
    <path id="NA-OS" d="M113.7,33.2h33.8s.9,4.3.9,4.3l.9.6,2,3.2.2,2.7h0l-13.8,13.9,1.5.7.6,1,2.5.6,1.8,1.2.3-.5,1.4,1.4,2.5,19.8-.7-.2-1.6,3.3,2.3,5.5v2.2c-.1,0-1.8,1.7-1.8,1.7l1.5,2.3,1.8.9-3.7,1.1-3.4,2.1-.4-.3-3.1.9v1.1h0l-4.2,1.3-4.2-.7-6.4,1.1h-9.7s-4.2.4-4.2.4v3.2c0,0,2.1,0,2.1,0l-.3,3.5h-5.1c0-.1,1.2-3.9,1.2-3.9l-.6-1.8-2.1-1.7-2-6.3,1.5-5.3v-2.1c-.1,0-2-3.9-2-3.9l-1.5-4.8.4-8.9-1-16.1-5-10.5,1.2-1.3.2-2.7-2-1.5,2.7-4.2.6-1.6-.4-.9h0l.2-.8,15.3.2Z"/>
    <path id="NA-OT" d="M164.1,44.7l13.6,9.3,14.4-6.2,45.6-.8h0v38l7.4.4h0l-.7,3.7v4.9s-2.9,0-2.9,0l-.5,2.6-2.5-.2.6,4.8h-.7c0,0-.2,4.7-.2,4.7h-2.3c0,.1,0,1.8,0,1.8l-1.6.2v1.1c0,0-.5,0-.5,0v2.2c0,0,2,2.7,2,2.7l-3.4,2-.7-2.2-5.4.8-3.4-2.3-.6,1-5.3-3.9-.5,1.1-1.7-1.6v-3c0,0,1.6-.2,1.6-.2v-1.8c0,0-2.4.3-2.4.3v1.3c.1,0-1.6,0-1.6,0l.2-2.3-1.2-1.9-2.5,1.1-.8-2-2.6,1-.3,1.6-4.6,5.5-10.6,5.4h0l-3.8-2-9-.7-6.3-1.8-9-1.5h0l-.8-5.5,2-1.6v-1s-.9.2-.9.2l-.7-.5-1.6-3.1-1.6-4.1v-3.1s.9-2.2.9-2.2l1.7-2.3,3.3-3.1,1.1.9-.5-2.2.3-1.2-1.4-.8.3-1.2-1.7-1.1.4-1.2-.8-.4.6-.5v-1.6s.4-.5.4-.5l-.9-.6h.8l-.5-3.1,2.7-2.9.7-2.1-.2-4.5-.7-1.6-.5.2v-12.8Z"/>
    <path id="NA-OW" d="M196.2,33.2l41.6.2h0v13.7h0l-45.6.8-14.4,6.2-13.6-9.3h0l-12.7-.7h0l-.2-2.7-2-3.2-.9-.6-.9-4.3h48.7Z"/>
  </g>
</svg>