<?xml version="1.0" encoding="UTF-8"?>
<svg id="Layer_1" xmlns="http://www.w3.org/2000/svg" xmlns:amcharts="http://amcharts.com/ammap" version="1.1" viewBox="0 0 512 512">
  <!-- Generator: Adobe Illustrator 29.1.0, SVG Export Plug-In . SVG Version: 2.1.0 Build 142)  -->
  <g id="_x3C_defs">
    <amcharts:ammap bottomLatitude="11.694295" leftLongitude="0.1617178" projection="mercator" rightLongitude="15.9990339" topLatitude="23.4999998"/>
  </g>
  <g>
    <path id="NE-5" d="M211.8,331.9l-1.4-25.2-8.6-4-7.7-18.4-44.4-36.5,4.6-21.7-20.1-1.1-1.5,74.3-9.9,23,12.1,35,11.8,30.6,28.5-5.1,24.2,7,7.5-12.8,4.8-45Z"/>
    <path id="NE-8" d="M68.1,398.1l4.1-5.3-8.9-1.3,4.8,6.6Z"/>
    <path id="NE-3" d="M115.7,452.9v-26.1c0,0,14-15.2,14-15.2l1.2-15.6,15.9-8.2-11.8-30.6-22.9,26.9-11.4,1.2-10.8,17.1-11.2,3.6,7.9,6.7-4,3.6.9,10.7,6.8,3.8,25.5,21.9Z"/>
    <path id="NE-7" d="M338,399.4l5.3-14.3,12.9-12,24.1-8.8.5-101.1-85,49.8-30,13.6-29.6-.3-3.8,8.7,12.4,28.7,9.4-2,16.1,13.5.5,6.9-10.1,6.2,3.3,3.4-2.3,13,13.7,9.4,28.9,4,16.8-14.6,16.8-3.9Z"/>
    <path id="NE-4" d="M232.5,335l-20.7-3.1-4.8,45-7.5,12.8,20.7,21.9,27.1-11.3,14.5,4.3,2.3-13-3.3-3.4,10.1-6.2-.5-6.9-16.1-13.5-9.4,2-12.4-28.7Z"/>
    <path id="NE-1" d="M380,59.1l-142.5,90.7-53.6,48.1-49.7,10.3v16.7c0,0,20.2,1.1,20.2,1.1l-4.6,21.7,44.4,36.5,7.7,18.4,8.6,4,1.4,25.2,20.7,3.1,3.8-8.7,29.6.3,30-13.6,85-49.8,31.8-16.6h81.5s5.4-63.9,5.4-63.9l7.4-14.6-12.7-14.1,1.2-6.8-13.5-18.4-6.5-51.6-24.3,13.1-23.3-19.4-48.1-11.7Z"/>
    <path id="NE-2" d="M494.3,246.6h-81.5s-31.8,16.7-31.8,16.7l-.5,101.1-24.1,8.8-12.9,12-5.3,14.3,25.2.2,32.8,9.8,11.7-13.9,24.3-7-5-24.1,6.6-3.6,22.6-39.5,34.8-37.9,3.2-36.8Z"/>
    <path id="NE-6" d="M135,357.2l-12.1-35-11.6,12.1-69.1,2.3-12.1,10-23.4-.2-1.7,16.1,7.4,8.2,1.8,11,4.6,7.2,21.4,11.2-9.1-.7v11l18.4,13,17.3-2.4,4.3,9.2-6.1,2.7,10.7,14.5-.6-11,15.1-5.3-6.8-3.8-.9-10.7,4-3.6-7.9-6.7,11.2-3.6,10.8-17.1,11.4-1.2,22.9-26.9ZM68.1,398.1l-4.8-6.6,8.9,1.3-4.1,5.3Z"/>
  </g>
</svg>