<svg xmlns="http://www.w3.org/2000/svg" xmlns:amcharts="http://amcharts.com/ammap" id="Layer_1" viewBox="0 0 512 512"><g id="_x3C_defs"><amcharts:ammap bottomLatitude="4.27" leftLongitude="2.667" projection="mercator" rightLongitude="14.681" topLatitude="13.893"/></g><g><path id="NG-AB" d="m201.4 385.2.4.5 5.1-.4 1.4.9.2 1-.3 4.9.7 1.2 9.5.6 1.5 3.4 3.1 1.7.7.9-.3 5 3.1 7.3-.4.8-2.3-.5-1.8-1.8-3.6-2-1.2-2.4-3.9-.5.2 3-1.2 3.4 1.7.2-.5 1.6-.5.6h-4.1c0-.1-.7.6-.7.6l.7 1.8-.8 3.9.4 3.3-.8 1.9-1.7 1.3-.3.9.5 1.4-.4 1.9 1.3 3.5-3.6-2.2-1.2.3-2.2-.8h-1.9l-2.9.9-1.2-.2-1-.9-.3-1.5.9-2.5 3.9-5.7v-1.9l-.8-1.2 2.1-6.9 2.6-3.7 1.7-4v-3.7l-1.1-1.6.8-.5-.6-6.6-.7-1-3.6-1.2-1.4-1.1 1.8-2.4 3-1.6Z"/><path id="NG-AD" d="m465 180.3-.6 2.4-2.6 3.6-.9 3.3-2.1 2.4-.4 2 1 4.3-1.1 1.1-.7 6.5-1.9 3-.2 2-1.1.7-1 1.8-4 .8-2.8 4 1.2 2.2-.8 1.8-1.2.9v1.2l.4 1.1 1.8.9.7 1.1-1.5 2.1-1.1 7.5-.7 1.1-1.8.8-5.4.6-8 5.3v.9l2 .5v5l-1 3.4.6 1.4-.6 3.6-1.9 3.2-1.8 1.5.5 1.3-.6 1.4.9 2.6-.8 1.2-2.8.5-.5 2.6-1.3 1.7h-1.5c0 .1-2.3 2-2.3 2l-4.5-1-3.1 6-2.3.7-1.7-.2-3 1.6-.5 2.7 1.4 7.4-2.2 4.1.6 4.2-2.8 4.3-2.3 2.1-2.3 4.4-.3 2.3-.7 1 .9 5.3-3.3 1.2-1.9 2.1-.8-.6-2-7.7.4-3.7-2.1-3.1-4.6-4.7-2-1-1.1.3-1.9 2.7-1.8 1.3-1.8-1.6-2-3.2-1.7-4.5 3.3-4.3 6-5.9 5.8-7.8 4.1-3.5v-5.3l4.1-7.7.7-2.4-1.5-3.8-2.8-1-1.8-2v-4l-3.5-6.6-4.5-1.6-4.7-8.1 4.2-.6 2.3-1 10.2-6.5.7-1.6-.3-2.5.5-6.9 4.3.7 4.9-1 2.3-2 6.7-8.5 5.9-.9 4-1.5 1.6-1.8.6-1.8h2.2l1.6-.9 1.5-2.5 3.1-2.4 5.7.5 3.7 1.7 1.9 2.1 1.6.8 1.6.7h3l.8-.8 1-5.2 2.6-6.3.8-8.1 2.1-.3 2.9 1.3 6.4-1.4v1Z"/><path id="NG-AK" d="m214.5 447.7 2.1.3-2.4.5-.3-.4.7-.4Zm27.1-5.1.6 1.4-1.2.7v-.8c-.1 0 .6-1.3.6-1.3m-34.7-7.4-1.3-3.5.4-1.9-.5-1.4.3-1 1.7-1.3.8-1.9-.4-3.3.8-3.9-.7-1.8.7-.7h4.1c0 .1.5-.5.5-.5l.5-1.6-1.7-.2 1.2-3.4-.2-3 3.9.5 1.2 2.4 3.6 2 1.8 1.8h-.6l-.8 1.7.4 1.2 1.1 1.5 3.2-.4 3.3 1.8v5.5c-.1 0 .9 3.5.9 3.5l2.3 3.3 7.6 7.4-.3 1.5.5.3v1.7l-.6.2.8.8-2.1 4.5-7.4-.5-15.3 1.5-2.2-.4-1.2.2.5.9-2.2.9-.7-1.1-2-1.3.2-.7h-.7l-.4-4.4.6-2.9-1.8-3.9Z"/><path id="NG-AN" d="m182.3 353.7.4 2.7h2.6l5.5 2.1-.6 2.9-2.9 3.2-.5 2.8 2.9 1.1 1 1.2 1.8 3.7-.8.8v2l.4.5 1.7-.7.4 1.7.9.4-.2 1.4 1.9 4.2 1.6.9 1.8-.6 1.3 1-3 1.6-1.8 2.4-3.6 1-3.6-.8-4.2.8-1.2.7-2.2 5.5-1.8.2-3-1.3-1.1.5-2 2.6-1.4.6H171c0-.1-.7-1-.7-1l2-3.4 1.4-4.9 1.7-3.1.3-4 .9-2.5-4-15.6v-.2l1.1-.5 2.4.4 1-.6 1.2-1.7.9-4.6 3.4-3.4Z"/><path id="NG-BA" d="m336.6 113.2 5.2 4.2.8 2 .4 6 2.1 3.1 1.1 10.8 5.6 14.1-1.5 9.7 1.1 1 2 .2-2.4 2.7-4.1 2.2-3.1 3.7-3.6 1.1-1 .9-.9 1.4-2.4 8.3-2.6 4.3 5 2 .8 1.2.6 4.8.6.8 4.8 1.8 1.4 3.3v7.7l-.6 1.2-4 1-.9 1.3.2 1.1 2.9 2.9 7.8 5.7 1.2 6.7 2.9 5-.5.7-7-.8-7.1 3.3-3.9-.5-3.1 1.8-8.4-5-20.5-9.5-2 1.2-.2 1 2.1 2.7-.2 2.3-3.2.9-1.9 3.5-3 .9-6.8.4-7.9-1.5-1-.9-1.7-3.5-3.6-2 1.8-4.9-.8-6.1-1.9-1.4-7.4 1.5v-8.3l-.5-3.2-1.8-2.8-1.9-.6-3.2.3-3.8-3.5 1.6-2.8.4-2.7 2.4-3.1.9-2.6-.6-2.5-2.6-2.9-.3-1.3-.3-4.6 1.4-5.4 3.9-.5 3.6-4.9 5.3-4.6 1.1-.2 1.5.8 3.7-1.5 4.7.6 5 1.6 2.3-1 1.5.5 1.2 2.5 10.5-.6 2.2 4.7-.6 5.3 1.5 2.3 3.8.8 3.8-.9 4 1.4 1.3-.4-.7-3.5 2.7-2.2 3.7-1.2 1.2-.9.7-1.8-.7-1-14.1-1.7-2-1.2-3.6-5-1-3.4-2.6.6-.8-.7-.4-1.2 1.7-3.4-1.3-5.9-1.2-.3-5 .9-.9-.4.3-2.9 2.2-3.1 4.1-.3 3.7-2 12.4-4.8-.4-2.8 4.5-13.9 5.4-1.7 1.3 2.6 7.4-4.7Z"/><path id="NG-BE" d="m214 301.8 11.9 2.5 9.2 4.3 4.3.6 2.2 1.9 3.6 1.5.8-1.7-3.2-7.8v-1.7l1.5-2.9 3.6-1.7 3.5.2 11.4 3.5h5.9v-.3l7.9 6-2.6 4 1.3.4 4.1-1.8 5-.6 5.5.3 5 1.2 6.4 7.1 5.6 5.1.7 1.4-.2 4.1-1.6 4 .2 4-5 4.5-2.2 4.1-1.4 7.7.4.5-.2 6.6-1.3 5.5-1.9-.3-.5 2.3-1.9 1.2h-3.1c0-.1-3.7-5.7-3.7-5.7l-3.7-3.9-3.1-.6-6.4 1.5-2.9-.3-.8-.6.4-3.2-.4-1.1-5.8-3.6-3.7-1.1-3 .3-2.4 1.3.5 3-2.1 1.3-2.1.6-5.3-.2-2.5 2.5-2 .3-1.1-1.5-.6-2.9-1.2-.9-.7 1.6-2.3.2-1.2 1.9-1.3.6h-4.3c0 .1-1.5 7-1.5 7l-.9.4-1.2-.5-2.7-2.5-.3-1.6 1.5-4.3-.6-3.8-1-1.4-1-.8-1.9-.2-2.9 1.9-2-1-4.4-4.1-1.8-4.7h.8l2.3 2.3 2.6.6.2-3 .6-1 4.3-2.1 2.2-2.1 1.6-6.6 1.4-2.9h-3.2c0-.1-.9-.8-.9-.8l-.8-3.7-.4-9.2-3.6-5.2v-5.9Z"/><path id="NG-BO" d="m451.2 61.8.5 3.8-.6 2 2.3 4.2-.4 2-.7.7 1.6 1.7 1.7.4-.2.8 3.5 5.2 1.9 2.1 3 1.6 2.6.5.2.6-.8.7v-.7c-.1 0-1.1.4-1.1.4l1 1.1.2 1.2 2.6-.8 4.3-3.6-.7 1.2.5.2.4 1.6-.7-.8-1 1.2-1.4.4.5 1.3-2.1 3.3.3.5.9-.3-.4 2.4h.6l-1 2 1.5.5-1.8.9 2 1-1.4.8 1 .5-1.2.2.7.4-.6 1.1h1c0 .1-.2 1.5-.2 1.5l1.2 1.8-.2.8 1.3.4.6 1.3 1.4-.5 1.5 2.5 1.5.5.2 2.2 1.2.8 2.3-.2-.2.7h.6l.3-.4 3.9-.6v.8h.8l-1 1.6 2.2 1.9 3-.4.3.5 1.2-.6 6.4.9 1.4 1-.2 1.4 1.5.7.5.9-.5.9 2 .5.5 1-.4.3.8.4 1.6-.6.9 1.7-1.6 2.7.5 1.3-1.2.8v1.1l1.4 2.5-.8 1.2.2.9-1.6 1.9.2 3.6-2.4 2.6 3.7 3.4v4.6c-.1 0-7.9 3-7.9 3l-1.1 2.1-5.4 2.1-2.2 1.4-1.3 1.8-3 1.3h-1.6l-1.8-1.6-3.1-.7-2.7 5.5-1.5 1.4.2 1-2.7 2.6-.8 2-3.8 1.4-.6 1.7-6.4 1.4-2.9-1.3-2.1.3-.8 8.1-2.6 6.3-1 5.2-.8.8h-3l-1.6-.7-1.6-.8-1.9-2.1-3.7-1.7-5.7-.5-3.1 2.4-1.5 2.5-1.6.8h-2.2l-.6 1.9-1.6 1.8-4 1.5-5.9.9-6.7 8.5-2.3 2-4.9 1-4.3-.7-3.8-2.6-2.1-4.2-3.8-1.6-2.9-3.6-.5-1.9 3.5-5.1.4-2-.9-2.2 2-.5 2.3-3-.2-5.6 1.6-3.8 1.8-1.3 7.5-2 4.1-2.5 1.4-2.1-.4-6.8.6-1.9 7.9-10.6-.6-2.2-2.1-2.5h-3.3c0 .1-.5-1.4-.5-1.4l3.2-6.2-1.1-5 1.8-13.3v-3.9l-1.1-2.6.4-1.5 4.8-4.2 2.8-4.9-.3-2.5-4.2-3.8-.8-2.6 1.1-8.2 3.9.5.6-2.7 1-.9 1.7-.3.3-1.5-.8-.3 1.3-2.9 2.9-.8 1.1.6.8-1.7 1.9-.3.6-1.4 1.4-.3 1.3-1.4.8-2.1 1-1-.5-.2.4-.4.8.4-.2-1.1 2.1.5 1.9-1.4 1.5.2.9-.9.7.3v-.7l.8-.2h.7l-.6.8 1 .5.6-.9.9.7v-.9c-.1 0 .9-.3.9-.3l-.2 1.4 1.7-.7.6.9.6-1.7 1.1-.6-.2-.9h.8c0 .1.4-.4.4-.4l-.7-.8 1.1-1.5 3.5-2.8Z"/><path id="NG-BY" d="m173.3 447.7.2 3.9-.8-2.8-.7-.4.6 3.4.8.5.6 2.7-2.4.3-.6.7-1.5-1.5.3-1.4-.9 1 .4 1.4-5.7.6-1-.5.3-.7-1.5.3-1.1-1.5-.9-.2-.7-4.6-1.6.8.3 1.7-1.8 1.7V451l-1-2.7.7 3.4-.4.8-.6-1.1h-1.1c0-.1 1.3.6 1.3.6l.2.9-1.1 2.8.4 1.6-5.6.5-.3-2.6-.6 1.9-3.5-.9.2-2.2-.5-1.1-.7.3.5.5v1.3c-.1 0-5.1-2.7-5.1-2.7l.4-1.5-1.1.3v.7l-1.8-2.1-1.9-.8-.6-1.2-1.9-.9-5.8-7.9-3.5-6.7-1.9-6.7-1.6-3.1 1.1-.6 1.7.4.4-.5 1.4 1.4 4 1.6 2.5 1.8h2.2l5-2.8 1.8.3 2.2-1.1 1.5-2.4 2.1 2 1.3.5 1.6-.4.8-1.3 3.1-.2 1.9-1v-2.2l1.6.5 1.4-.3 1.4-2.8h4.2l3.4-1.5.8-.6-.5-1.7h2.7c0-.1 1.3.4 1.3.4l.9 1.4v1.3l-1.7 1.7.2 1.2-1 .5-.5 1.7-2.2.2-3 5.3-.9 3 1.4.4v.9l-1.8 3.2v2.9l2.5 1.5v2.3l6.4-1.5.9 1.3.8 2.9 3.1 1.7v.4c.1 0-1.2 3.5-1.2 3.5Zm-11.3 8.6-7.4.6 1.3-3 2-2.4-.5-1.4 1.1-.4.4 1 .3 2.9 1.1.3 1.9 2.4Z"/><path id="NG-CR" d="m240.1 357.9 2-.3 2.5-2.5 5.3.2 2.1-.6 2.1-1.3-.5-3 2.4-1.3 3-.3 3.7 1.1 5.8 3.6.4 1.1-.4 3.2.8.6 2.9.3 6.4-1.5 3.1.6 3.7 3.9 3.7 5.5-1.5 5.6-3.5-1.5-.5 2.6-3 4.4-3.3 1.4-2.1 3.1-5.9 5.2-3.3 2.1-3.1 3.1 1.2 1.3-.7 2.2-1 1.3-.4-.4v1l3.5 3.8.2 1.2-2.8 5.3v2.6c.1 0-1.1 4-1.1 4v4.4c.1 0-1.6 2.8-1.6 2.8l-1.3.5-1 1.3-.8 2.2-.8.7.7.7-1.9 1.7v1.2l-2 1.3 1 2.4-1.6 1-1.2-.6-.7.6-1 2.4h.5l.4-1.1.2 1.7-.2.4-.7-.4.4 1-1 .2v.5l-2.1-.2.3-1.2h.7l-.9-1.2-1.3 1.1-1.4-.3-.4-.8.7-.6-.2-.6h-1.7c0-.1-1.6 1.3-1.6 1.3l-7.6-7.4-2.3-3.3-1.1-3.5v-5.5c.1 0-3.2-1.8-3.2-1.8l-3.2.4-1.1-1.5-.4-1.2.8-1.6h.6l2.3.4.4-.8-3.1-7.3.3-5-.7-.9.3-1.6 1.6-2.1-.2-1.8 2.5-3.3-.6-3.5 3.3-.8 1.8 3 .9-1.4 2.9-1.7.2-.9 1.3-.2 1.5.8 1.6-4.9 4.7-5.6-1.2-3.8 1.1-1.1 1.5-.2.4-1.9-.9-.7-.6-2.6-1.2-1.9-3.2-3-.3-1.9Z"/><path id="NG-DE" d="m170.7 400.4-.6 2.1-2.4 3.1v3.6c-.1 0-2.5 1.2-2.5 1.2l.2 1 .5 1.7-.8.6-3.4 1.5h-4.2l-1.4 2.8-1.4.3-1.5-.5v2.2l-2 1-3.1.2-.8 1.3-1.6.4-1.3-.5-2.1-2-1.5 2.4-2.2 1.1-1.8-.3-5 2.8h-2.2l-2.5-1.8-4-1.6-1.4-1.4.5-.2v-1l-.4-.4.2-2.4-.6 1.8.7 1.7-3.2.7-1.4-1.5-1.2-7.9 1.8.7 3.1-.6.7 1.1 2.3-1.1-2-.2 2.3-1.5.8.6-.2 1 .8-.9 1 .8.2-.5-2.2-.9-.8-1.1.5-2.7.6-.5.6.7v-.6c-.1 0 2.1-.5 2.1-.5l.7-1.1.9.6h.6v-.7l-.4.4-1.4-.7-1.5 1.3-2.5-.2.4.2-2.7 4.8-1.8-.8.4 1.4-3.4-.2-4.1-1.8-3.9-4.4 2-2.4 6.9.6-.7 1.1 1.6-1.3.3-1.9h2.5c0 .1.8 1.5.8 1.5l-.4.5.9.2-.3-1.4h.7l-2.8-1.6h-1.2c0 .1-1.1 2.2-1.1 2.2l-2.4-.2-.7-1.4-.7 1-2-.3-2.8 1.3-2.1-2.1-1.8-3 .4-3.2.7-.6 1.3.3 2.4-2.2 1.5-.7.6.4.7-1.3 1.3-.6-.2-.5-8.1 4.2-1.3 1.9-.9-.6-1.7-3 4.6-11.3 4.8 3-.4 2.9.5 3.4h1.1l2.8-2.2.3-.7-.6-1.7.4-.2 4.8-.2 3.6 1.8 1.2-1.6 3.4-1.2 6.4 3.5 1.3 1.9 2.6 1.6.3.6-1.4 2.7 1.1 1.1-.5 1.2 1.4.4 3.5-.7 3.1-1.7 1.5-2.1 3.2-2.5 1-1.3.5-2.2-.2-1.2-2.8-1.5-2.7-4-.4-3.2-1.3-1 .7-3 1.2-1.1 1.1.2 2.8 2.9 2.7-3 4.9-2.1 5.5-3.4 2.5-.5 2.8.3 1.3-1.4 4 15.6-.9 2.5-.3 4-1.7 3.1-1.4 4.9-2 3.4.6 2.6Z"/><path id="NG-EB" d="m220.7 359.8.3 1.6 2.7 2.5 1.2.5.9-.4 1.5-6.9h4.3c0-.1 1.3-.7 1.3-.7l1.2-1.9 2.3-.2.7-1.6 1.2.9.6 2.9 1.1 1.5.3 1.9 3.2 3 1.2 1.9.6 2.6.9.7-.4 1.9-1.5.2-1.1 1.1 1.2 3.8-4.7 5.6-1.6 4.9-1.5-.8-1.3.2-.2.9-2.9 1.7-.9 1.4-1.8-3-3.3.8.6 3.5-2.5 3.3.2 1.8-1.6 2.1-.3 1.6-3.1-1.7-1.5-3.4-9.5-.6-.7-1.2.3-4.9 2.4-.7 3.3 2.9h.5l.4-.9-.6-3.7 2.3-3-1.8-7.7 1.8-4.1v-3.9l-1.7-6.3h5.5Z"/><path id="NG-ED" d="m145.8 320.5 2.2.4.2 1.5 1.5-.2-.6 3.1.9 1.2 1.4.4 4-2 4 3.8 3.7-.4 2.4 5.6 2.8-.3 2.2-.9 2.5 3.1.6 3.6-1.3 3.9v2.8l-2.7 5.6.9 1.4-.6 3.7 1.5 3.1.7 4.1v.2l-1.3 1.4-2.8-.3-2.5.5-5.5 3.4-4.9 2.1-2.7 3-2.9-2.9-1.1-.2-1.2 1.1-.7 3 1.3 1 .4 3.2 2.7 4 2.8 1.5.2 1.2-.5 2.2-1 1.3-3.2 2.5-1.5 2.1-3.1 1.7-3.5.7-1.4-.4.5-1.2-1.1-1.1 1.4-2.7-.3-.6-2.6-1.6-1.3-1.9-6.4-3.5-3.4 1.2-1.2 1.6-3.6-1.8-4.8.2-.4.2.6 1.7-.3.7-2.8 2.2h-1.1l-.5-3.3.4-2.9-4.8-3 .3-.8-.8-1.5-1.9-.8-1.1-2-2.1-1.7 1.2-2.9 2.4-1 .6-2.5 1.7-2.5v-2.1c-.1 0-1.9-2-1.9-2l.8-4.7 2.6-2.3 1.5-3.8 1.5-.7 11.9.3 1.2 1.4-1.4 1.5 1.4 3.7 3-2.1h.9l1.3 1.3 1.8-.7 1.7-5.6 1 .2v-1.1l.6-.3-.9-1.4.4-3.1 1.9-1.6 2.4-7.4 2.6-1.9 1-2.4-.8-1.9.6-1.9-1.4-.6v-1.5c-.1 0 .8-1.2.8-1.2l1.6-.3 1.6-2.3Z"/><path id="NG-EK" d="m105.6 301.4 1.4 1.3 3-.8 2.3 2 5.3.2 1.1-3.4 2.8-.9h3.9l-.7.2.3 3.2 1.7-1 2.5-.4 1.9.7-.2.9-2.4 2.5.8 3.6 3 1.8 4.6 1.6-1.6 1.8-1-.8-1.3.3-.6 1.4-3.1 2.6-3.1 9.5-2.1 3-3.7 2.3-1.5-.4-1.3-4.5-1-1.5-1-.3h-9.9l-3.1.9-3-7.8-.5-3.2.8-2.7-.5-2.8 1.3-2.9 3.9-2.7 1-3.6Z"/><path id="NG-EN" d="m182.3 353.7 1.8-3.4.6.2v1.5c.1 0 1.5 1.4 1.5 1.4h1.3l3.3-3.6 4-2.6 4.2-5 1.6-.6 1.4-1.4 2.2-.5 1.6.5.7 1.1 1.8 4.7 4.4 4.1 2 1 2.9-1.9 1.9.2 1 .8 1 1.4.6 3.8-1.5 4.3h-5.5c0-.1 1.7 6.2 1.7 6.2v3.9l-1.9 4.1 1.8 7.7-2.3 3 .6 3.7-.4 1h-.5l-3.3-2.9-2.4.7-.2-1-1.4-.9-5.1.4-.4-.5-1.3-1-1.8.6-1.6-.9-1.9-4.2.2-1.4-.9-.4-.4-1.7-1.7.7-.5-.5v-2l.8-.8-1.8-3.7-1-1.2-2.9-1.1.5-2.8 2.9-3.2.6-2.9-5.5-2.1h-2.6l-.4-2.6Z"/><path id="NG-FC" d="m199.2 248.3 4.1-.4 3.2.8 2.7-3 .7.3 1 2.1 1.4-.3v1.6l-1.4.9-1.4 4.4v10l-1.4 3.5-1 5.4-2 3.6-2.5 3.1-4.7 2.4-5.1 1.5-7.5 1.2-6 .2-2.2-.2-1.3-3.3v-30.4l9.5-.8 1.2.4 6.2 5.5.6-.2 5.8-8.3Z"/><path id="NG-GO" d="m353.5 164.3 3.4-1.6h2.7c0 .1 3.5 1.7 3.5 1.7l5.7 4.2 5.5 6.7-.7 1 1.1-.7 2.5 2.3.5 3.3-.8 8 .5 4.3 4.8.3.9 2.2-.4 2-3.5 5.1.5 1.9 2.9 3.6 3.8 1.6 2.1 4.2 3.8 2.6-.5 6.9.3 2.5-.7 1.6-10.2 6.5-2.3 1-4.2.6-16.6.7-2.4-.5.5-.7-2.9-5-1.2-6.7-7.8-5.7-2.9-2.9-.2-1.1.9-1.3 4-1 .6-1.2V203l-1.3-3.3-4.8-1.8-.6-.8-.6-4.8-.8-1.2-5-2 2.6-4.3 2.4-8.3.9-1.4 1-.9 3.6-1.1 3.1-3.7 4.1-2.2 2.4-2.7Z"/><path id="NG-IM" d="m196.7 389.1 1.4 1.1 3.6 1.2.7 1 .6 6.6-.8.5 1 1.6v3.7l-1.6 4-2.6 3.7-2.1 6.9-1.7.6-4.5-.7-2.8.7-3.2-.7-6-.2-1.5-1.1-2.6-4.1.7-1.9v-4.2l-1.4-.5-3.3.2 1.9-8.8 1.4-.6 2-2.6 1.1-.5 3 1.3 1.8-.2 2.2-5.5 1.2-.7 4.2-.8 3.6.8 3.6-1Z"/><path id="NG-JI" d="m297.7 99.6 1.2.8 4 .5 2.1-1.2 1.4-2.7 3.6-1.7 8.3-2.7 1.5.8 2.9 7.8 4.7-1.7 3.4 1.5 1.4-.4 1.2.6 1.5 2.3 1.8 9.7-7.4 4.7-1.3-2.6-5.4 1.7-4.5 13.9.4 2.8-12.4 4.8-3.7 2-4.1.3-2.2 3.1-.3 2.9.9.4 5-.9 1.2.3 1.3 5.9-1.7 3.4.4 1.2.8.7 2.6-.6 1 3.4 3.6 5 2 1.2 14.1 1.7.7 1-.7 1.8-1.2.9-3.7 1.2-2.7 2.2.7 3.5-1.3.4-4-1.4-3.8.9-3.8-.8-1.5-2.3.6-5.3-2.2-4.7-10.5.6-1.2-2.5-1.5-.5-2.3 1-5-1.6-4.7-.6.7-4 4.8-4.6-3.9-2.9-2.1-3.9H275c0 .1.2-2.6.2-2.6l2.3-3.2.8-2.6-1.7-6.5-3.4 2.5H272c0 .1-.9 0-.9 0l-.4-2.7-2.1.2-1.3.8v-.7l-1.1-.5 1.2-2.1v-3.8l-.5-2-1.9-.9-4.2-.7-.7-.9.4-1.4-.7-2.1-3.3-2.4-.3-4-5.2-1.4-2.5.2-3.8 2.2-1.7 4.2-3.1-6.3-1.4-2.2h-3.3l-2.3-1.2.8-6.9 7-.9 3.6.7 6.2-.5 2.2 4.6 3.1 1.5 1.8-1 .4 1 1 .5 5.3-1.5 2.1-1.7.7-1.8 1.7-1.1v-.6l28 1.3 1-.8Z"/><path id="NG-KD" d="m218.6 161.6 3.7-.4 2.8-2.6 3.2-1.9 3.9-.8 1.6.7.2.8-1.4 2.7 1.1 2.5 4.9 2.1 2.4 2.8 4.5.7 3.6 3 2.4 4.3.3 2.6-1.4 4.9.7 5.2-.5.7-2.4.6-.4.5.4 1.4.7.7 4.7.7 2.4 2.6 2.7.2-.4 2.7-1.6 2.8 3.8 3.5-.8 3.1-3.6 2.5-1.4 3.3v1.8c-.1 0 1.3 4.3 1.3 4.3l-1.8 2.1v8l-1.6 1.8-.3 2.1-1.2.9v3.2c.1 0-.6.9-.6.9l2.3 4.3 2.9 2.9.7 1.4v2.3l-1 2.7-.7.4-4.6 7.9-2.7.2-.4-1.3-3.6-4-2.6-.2-1.9-1-4.3 5.1-2.4 1.2-1.2-1.5v-6.5l-.7-1.1-2.8-1.6-.2-2.2-2-1.8h-1.4l-1.7 3.1-1.6 1.4-2.8-.5-1.6-1.2-1.6.3-.9-1.8-1.4.6-1.4.3-1-2.1-.7-.3-2.7 3-3.2-.8-4.1.4h-2.5c0 .1.9-2.7.9-2.7l-2.3-1.9.4-2.2 2.2-1.5.4-1.9 2.1-2.1-.4-1.3-2-1.1.6-2-2.4-.9-.9-1.1.8-.7 2.2-.3.4-1-.8-8.1-1.1-1.1h-8.7l-4.5-1.6-1.2-1.1-.7-1.3 3.7-3.9 2.9-1.7.9-2.5-5.4-2.3.9-4.5-1.3-2.6h-3.5l-.2-3-.7-1.6-3.2-.3-.8.8.5 1.6-.4.7-2.7-.4-5.1 1.9-1.4-2.5h-2l-3.1 1.5-3.8 3-3.6 4.7-.9.6-1-.4-.8-2.4-2.1-1.3v-.9c-.1 0 0-1.6 0-1.6l1.2-1.2-.2-2.6.5-1.3-1.1-2.6.3-3.2 2-3.6 2-.6 1.9-2.8 3.5-3.2 3.8-.6 5.3.4 3.2-.4 1.6-1 2-2.1 2.6-6.9 4-3.6h.7l4.3.5.9.6.4 1.9-2.2 2.7 4.3 1.3 2.9 2.9 1.2.2 1.8-1 .9-1.3-1.2-2.3V166l2.2-.7 4.1.8 1.2-3.3 2.1-1.7.9-.2 4.6 1.5 3.1 2.8 3.8-1.5 1.2-2.1Z"/><path id="NG-KE" d="M66.6 83h4.5l1.3.4 3.1-1.1 4.5 3.6 10.5 4 1.6-.7 1.7-2.5.8-.2.7.6.3.8-1.1 2.6-1.2 6.1 2.5 4.3-1 6.3 1.2 5.1-.2 5.4-.4 1h-.7l-2.1-1.3h-1.8l-2.7.8-.9 1-.7 2.5v6.7l.4 8.8-1.4 6.6-2.5 7 1.7 2.5 2.4.5 2.8-2.9 8.1-3.7 2.4.5 1.4-.5.5 1.2 1.7-.6 1.8-.3 2.8 1.5 4.3-1 .6-1.6.7-.4 2.6.5 2.4-.4 1.9 2.6h1.9l2.5 1.7 3.7-.5 2.6.3 2.5-.9 3.3.4 2.9 1.2.9 1.4v1.7l-1.4 5.2 3.6 1.8 1.3 2 1.1 8.8-2.2-1-2.3 1.9-.9 1.5-2.6.3-8.1 3.4-7.2.5-1.1-.8-.3-7.1-3.1-2.5-.7-4.4-1.1-1.1-4.4-.5-6.6 1.1-5.3 1.2-6.2 2.8-.9 1.4.7 1.9 6.1 2.8 3.6.4.7 1.4 1.7.5.8 4.4-2.1 2.7.3 1 2.6 2v1.4l-.7 1-6.1 2.4-3.4-.3-1.6.8-.3 7.4 3.3 5.3.3 2.7-3 2.5-2.3.2-5 1.7-.7 4.3-2.9-.3-1-.7.9-6.4-2-1.8-.8-1.6v-4.3c.1 0 2.3-3.5 2.3-3.5l3.6-1.6 3.1-3 1.6-7.2-.2-3.2-3-.6-5.7-3.8-3.5-1.1-17.4.9-3.6-1.2-7.4-4.1h-2.5c0 .1-.9.1-.9.1l-8.2-6.9 2.9-13.7 1.4-3.2 3.3-2.8-.6-2.2-1.6-1.2-.4-3.3 2.1-2.6-1.6-5.9 1.1-6.4-.6-10.7 12.5-10.4 6.4-9.8 1.4-6.5v-2.7Z"/><path id="NG-KN" d="m239.7 110.3 3.1 6.3 1.7-4.2 3.8-2.2 2.5-.2 5.2 1.4.3 4 3.3 2.4.7 2.1-.4 1.4.7.9 4.2.7 1.9.9.5 2v3.8l-1.2 2.1 1.1.5v.7l1.3-.8 2.1-.2.4 2.7.9.2h1.2c0-.1 3.4-2.6 3.4-2.6l1.7 6.5-.8 2.6-2.3 3.2-.2 2.7h3.4c0-.1 2.1 3.8 2.1 3.8l3.9 2.9-4.8 4.6-.7 4-3.7 1.5-1.5-.8-1.1.2-5.3 4.6-3.6 4.9-3.9.5-1.4 5.4.3 4.6.3 1.3 2.6 2.9.6 2.5-.9 2.6-2.4 3.1-2.7-.2-2.4-2.6-4.7-.7-.7-.7-.4-1.4.4-.5 2.4-.6.5-.7-.7-5.2 1.4-4.9-.3-2.6-2.4-4.3-3.6-3-4.5-.7-2.4-2.8-4.9-2.1-1.1-2.5 1.4-2.7-.2-.8-1.6-.7-3.9.8-3.2 1.9-2.8 2.6-3.7.4-2.4-1.8-.7-1.5-.5-2.4 1-1.8v-1.5l1.3-1.1 2.5-.7 1.6-1.1 2.5-.4-2.1-5.2.5-2.7-1.4-3.1.6-4.3-.3-10.2 1.5-1.5 2.9-1.6 7.6-2.9 2.7-6.6 4-.6Z"/><path id="NG-KO" d="m153.4 272.3 3.3 1.4 2.4 2.2 1.9 2.9 1.7 5.6 4.3 3.4 5.5 6.6h1.3l1.3-3.7 1.1.4v-2l2.4-1.2.8-2.2 6-.2-1.4 4.1 2 2.9.4 4.2-.8 3.2v3.2l-1.7 2.6v2.5c-.1 0 .3.4.3.4l2.9-2 6.2-2.7 8.3-2.3 4.8-.5 7.6.8v5.9c.1 0 3.7 5.2 3.7 5.2l.4 9.2.8 3.7.9.7h3.2c0 .1-1.4 3-1.4 3l-1.6 6.6-2.2 2.1-4.3 2.1-.6 1-.2 3-2.6-.6-2.3-2.2h-.8l-.7-1.1-1.6-.5-2.2.5-1.4 1.4-1.6.6-4.2 5-4 2.6-3.3 3.6h-1.3l-1.4-1.4v-1.5c-.1 0-.7-.2-.7-.2l-1.8 3.4-3.4 3.4-.9 4.6-1.2 1.7-1 .6-2.4-.4-1.1.5-.7-4.1-1.5-3.1.6-3.7-.9-1.4 2.7-5.6v-2.8l1.3-3.9-.6-3.6-2.5-3.1-2.2.9-2.8.3-2.4-5.6-3.7.4-4-3.8-4 2-1.4-.4-.9-1.2.6-3.1-1.5.2-.2-1.5-2.2-.4-4.7-5.1.5-2.8-1.7-.3-3.1.6-4.6-1.6-3-1.8-.8-3.6 2.4-2.5.2-.9-1.9-.7-2.5.4-1.7 1-.3-3.2.7-.3.5-1-.6-1.6-4.9-3.4-3-4.6 3.1-4.9 2.5-2.7 2.4-1.5 2.7 2.9 4.7 2 3.1.8 6.6.2 4.2 1 2-.3 1.1-2.5.4-4.4 1.6-5.2 1.7-2.3Z"/><path id="NG-KT" d="m222.7 77.9 9.7 1.8 4.4 3 1.8.5 6.7 6.5 2.2-.6 2 .3 3.6 2.2 1.9 3.1 13.7 4.4v.6l-1.7 1.1-.7 1.8-2.1 1.7-5.3 1.5-1-.5-.4-1-1.8 1-3.1-1.5-2.2-4.6-6.2.5-3.6-.7-7 .9-.8 6.9 2.3 1.1h3.3l1.4 2.3-4 .6-2.7 6.6-7.6 2.9-2.9 1.6-1.5 1.5.3 10.2-.6 4.3 1.4 3.1-.5 2.7 2.1 5.2-2.5.4-1.6 1.1-2.5.7-1.2 1.1v1.5l-1.1 1.8.5 2.4.7 1.5 2.4 1.8-1.2 2.1-3.8 1.5-3.1-2.8-4.6-1.5-.9.2-2.1 1.7-1.2 3.3-4.1-.8-2.3.7v1.4l1.3 2.3-.9 1.3-1.8 1-1.2-.2-2.9-2.9-4.3-1.3 2.2-2.7-.4-1.9-.9-.6-4.3-.5.9-5.7-.6-2.5-1.4-2 1.8-8 1-.6h4.4l.9.5 3.3-2.7.4-2.2 2.2.5 1.3-1.1-1.1-2.3-4.4-3.1 1.2-2.4.7-3.5-1-4.8-1.7-3.5.3-2.4-.9-2.2-.9-6.7-.6-8.2 1-7.3 3.3-1.1 3.6-3.6 5.9.5 2.4-.5 15.7-9.5h2.9Z"/><path id="NG-KW" d="m47.5 213.4 11.2-.9 2.4.6 14.5 17.1 1.5 1.1 1.8.2-.3 8.7.6 2.5 6-.3.6.5.4 4.3 2.6 2.3 2.8.6 1.1 5.1 1.3.9 9.1-2.5 5.2 2.8 4.3 4.9 1.5.5 2.7-.8 6 1.4 7.9 4.9 5.1 4 4.5.6 7.3-.8 5.6 1.2-1.7 2.3-1.6 5.2-.4 4.4-1.1 2.5-2 .3-4.2-1-6.6-.2-3.1-.8-4.7-2-2.7-2.9-2.4 1.5-2.5 2.7-3.1 4.9 3 4.6 4.9 3.4.6 1.6-.5 1h-3.9l-2.8 1-1.1 3.4-5.3-.2-2.3-2-3 .8-1.4-1.3-.3-.4-3.5.6-1-2.1-1.5-.4-3.2 1.1-1.8-.3v.6l-.3-.5-2.4 1.1H84l-1.8-1.1-2.1-6.1-2.3-1.5-2-2.9-1.4-5.6-4.5-7.8-1.4-4.6.7-3 1.4-1 .6-1.5 2.1-1.4 1.6-2.1v-.9c-.1 0-1-.5-1-.5l-1.9 1.2h-1.5l-3.3-.6-5.5-2.2-3.3-3-.4-1.7-2.7-1.7h-1.4l-2.6 1.5-1.1 2.5-.3 2.5-3 2.3-17.5 9.3h-.6c0 .1-1.7-1.2-1.7-1.2l-1.7.2-5.8 4.2-2.8 3-5.9 1-2.1 1.9.4-1.2-.9-3.9.5-1.9-.9-3 1.5-1.6-.3-2.2.5-.2.9-4.3-.7-1.6.4-2.4h3.6c0 .1 1.2-.8 1.2-.8l2.4-.4 1.3.9h1l3.3-1.2 1.5-3.8v-2.5c.1 0 1.4-1.3 1.4-1.3l-.9-7.6.8-1.3 1.7-.9 2.3-3.7.6-2.1 2.1-.2 1.4-1.2-1-3.8 1-1.7 4.5-1.8h3l1.4-1.4v-.9l1.7-1.7.6-5 2-1.3.3-1Z"/><path id="NG-LA" d="M7.9 366.3H11l1.3.6 2.3-1.6.3-1.2 11.6.2.7-.7.5-2.7 1.4-1.1v-1.6l1-1.7 3.5 1.1 1.4 1.5 3.1-.3-.3-1 1.1-.7 25.3.3 1.1.7-1.8 1.9.4 2.4 1.5.7 2.2-1.5 2.3-.3.8 1.6-2.6 1.6-.2 1.2 2.5 1 .8.9h4.7v2.6l-16-2.5-5.8-.3-16.8.7-.7 1.3-7.7-.5L8 370.1l.2-4.1Z"/><path id="NG-NA" d="m212.3 247.8 1.4-.6.9 1.8 1.6-.3 1.6 1.2 2.8.5 1.6-1.4 1.7-3.1h1.4l2 1.8.2 2.2 2.8 1.6.7 1.1v6.5l1.1 1.5 2.4-1.2 4.3-5.1 1.9 1 2.6.2 3.6 4 .4 1.3 2.7-.2 4.6-7.9.7-.4 1.1 1.1 3 .6.4 3 1.3 2.3 5 1h2.5l1.9-.9 2.1 1.9-.5 2-1.8 2.7-3.4 2.2-2.1 2.8-.2 1.5 2.1 3.6-.2 3.6 1 1.4 5.9 2.7h5.5c0-.1 6.6-2 6.6-2l7 2.9 1.7 1.4 1 1.8-1.7 2.5-1.8.6-4.3-.8-1.8-1.3-2.1.6-1.4 3.4 2.5 2.6.5 5-8.4 5.8-7.9-6v.5l-6-.1-11.4-3.5-3.5-.2-3.6 1.7-1.5 2.9v1.7l3.2 7.8-.8 1.7-3.6-1.5-2.2-1.9-4.3-.6-9.2-4.3L214 302l-7.6-.8-4.8.5-8.3 2.3-6.2 2.7-2.9 2-.5-.4v-2.5c.1 0 1.8-2.6 1.8-2.6V300l.8-3.2-.4-4.2-2-2.9 1.4-4.1 7.5-1.2 5.1-1.5 4.7-2.4 2.5-3.1 2-3.6 1-5.4 1.3-3.5v-10l1.5-4.4 1.3-.9V248Z"/><path id="NG-NI" d="M49.3 171.3h2.5c0-.1 7.4 4 7.4 4l3.6 1.2 17.4-.9 3.5 1.1 5.7 3.8 3 .6.2 3.2-1.6 7.2-3.1 3-3.6 1.6-2.2 3.5v4.3c-.1 0 .6 1.6.6 1.6l2 1.8-.9 6.4 1 .7 2.9.3.7-4.3 5-1.7 2.3-.2 3-2.5-.3-2.7-3.3-5.3.3-7.4 1.6-.8 3.4.3 6.1-2.4.7-1v-1.4l-2.6-2-.3-1 2.1-2.7-.8-4.4-1.7-.5-.7-1.4-3.6-.4-6.1-2.8-.7-1.9.9-1.4 6.2-2.8 5.3-1.2 6.6-1.1 4.4.5 1.1 1.1.7 4.4 3.1 2.5.3 7.1 1.1.8 7.2-.5 8.1-3.4 2.6-.3.9-1.5 2.3-1.9 2.2 1 4.8 7.4 1 3.3-2 3.6-.3 3.2 1.1 2.6-.5 1.3.2 2.6-1.2 1.2-.2 1.6v.9c.1 0 2.2 1.3 2.2 1.3l.8 2.4 1 .4.9-.6 3.6-4.7 3.8-3 3.1-1.4h2l1.4 2.4 5.1-1.9 2.7.4.4-.7-.5-1.6.8-.8 3.2.3.7 1.6.2 3h3.5l1.3 2.5-.9 4.5 5.4 2.3-.9 2.5-2.9 1.7-3.7 3.9.7 1.3 1.2 1.1 4.5 1.7h8.7l1.1 1.1.8 8.1-.4 1-2.2.3-.8.7.9 1.1 2.4.9-.6 2 2 1.1.4 1.3-2.1 2.1-.4 1.9-2.2 1.5-.4 2.2 2.3 1.9-.9 2.8h2.5c0-.1-5.8 8.2-5.8 8.2l-.6.2-6.2-5.5-1.2-.4-9.5.8v30.4l1.3 3.3 2.2.2-.8 2.2-2.4 1.2v2l-1.1-.4-1.3 3.6h-1.3l-5.5-6.5-4.3-3.4-1.7-5.6-1.9-2.9-2.4-2.2-3.3-1.4-5.6-1.2-7.3.8-4.5-.6-5.1-4-7.9-4.9-6-1.4-2.7.8-1.5-.5-4.3-4.9-5.2-2.8-9.1 2.5-1.3-.9-1.1-5.1-2.8-.6-2.6-2.3-.4-4.3-.6-.5-6 .3-.6-2.5.3-8.7-1.8-.2-1.5-1.1-14.5-17.1-2.4-.6-11.2.9.3-2-2.7-1.8-1.2-2.4 2.1-4.7v-1.1l2.2-1.7 4.1 2.1.8-4.1 1.9-4.3-.4-4.2-1.8-1.3-2-3.8.9-4.5-.8-3.4-1.4-.6.4-3.9-.6-.4Z"/><path id="NG-OG" d="m6.2 306.9 4-2.9h2.3c0-.1 1.3.5 1.3.5l1.1 2.2v4.4c.1 0 1.4 3 1.4 3h.6l1-4.5 1.2-.3.6.4.3 3.3-1.2 4-.6.2.3 2.5 3.5 3.4.7 2 2.2 3 3.6 2.3h3.9c0-.1 1.9-2.8 1.9-2.8l.8-2.9 1.1-1 1.7.2 1.2 2.9 1.1.8 3.1-1.3h4.2c0 .1.8 1.4.8 1.4l.2 3.8 2.7 2 .9 5.2-2.7 2.7v.9l8-.5 3.2-1.8 4-.6 2.8-1.5 1 .8.4 2.9h1.3l2.6-1.3 2.3.4 2 4.8 2.1-1.3 1.5.5 4.2-.8v.8l-1.2 5.9-5.4 4.3-2 3.3v2.3l1.4 1.3 4.5.5 2.1-2.2 1.2-.3.4.5.6 5.4-.5 1.2-1.6.4-1.3 1.2h-1.6l-.9 1H83c0 .1 2.2 1.3 2.2 1.3v.7c.1 0-.4 1.2-.4 1.2l-2.7-.2-6.3-2.1V368l-4.7-.1-.8-.9-2.5-1 .2-1.2 2.6-1.6-.8-1.6-2.3.3-2.2 1.5-1.5-.7-.4-2.4 1.8-1.9-1.1-.7-25.3-.3-1.1.7.3 1-3.1.3-1.4-1.5-3.5-1.1-.9 1.7v1.6l-1.5 1.1-.5 2.7-.7.7-11.6-.2-.3 1.2-2.3 1.6-1.3-.6H7.8l.3-2.2 1.2-1.8-.9-2.5 2.3-2.7v-1.8c.1 0 0-.6 0-.6l-1.4-.2-.8-.8.8-5.6v-.7c-.1 0-1.4-.5-1.4-.5v-1.9c.1 0 3.1-2.3 3.1-2.3l-2-2.1 1.7-2.8-.4-3.1-1-1.1v-6.5h1.5l.6-.8-.3-2.4-1.8-1.4-.8-2.2v-8.9l-2.6-4.1.4-.3Z"/><path id="NG-ON" d="m136.7 312.8 3.1-.6 1.7.3-.5 2.8 4.7 5.1-1.6 2.3-1.6.3-.9 1.2v1.5c.1 0 1.5.6 1.5.6l-.6 1.9.8 1.9-1 2.4-2.6 1.9-2.4 7.4-1.9 1.6-.4 3.1.9 1.4-.6.3v1.1l-1-.2-1.7 5.6-1.8.7-1.3-1.2h-.9l-3 2.1-1.4-3.7 1.4-1.5-1.2-1.4-11.9-.3-1.5.7-1.5 3.8-2.6 2.3-.8 4.7 1.8 2v2.1c.1 0-1.6 2.5-1.6 2.5l-.6 2.5-2.4 1-1.2 2.9 2.1 1.7 1.1 2 1.9.8.8 1.5-.3.8-4.6 11.3-9.4-10.2-11.8-9.2 2.7.2.6-1.2v-.7c-.1 0-2.4-1.2-2.4-1.2h-2.5c0-.1.9-1 .9-1h1.6l1.3-1.3 1.6-.4.5-1.2-.6-5.4-.4-.5-1.2.3-2.1 2.2-4.5-.5-1.4-1.3v-2.3l2-3.3 5.4-4.3 1.2-5.9 1.8-1 1.4-3.3 2.9-2.3h1.6l3.6 2.3h1.2l.5-3.3-.3-2.7 1-4.4 4.5-1.5-.4-1.6 3.1-1h9.9l1 .4 1 1.5 1.3 4.5 1.5.4 3.7-2.4 2-3 3.1-9.5 3.1-2.6.6-1.4 1.3-.3 1 .8 1.6-1.8Z"/><path id="NG-OS" d="M84.4 301.2h7.3l2.4-1.1.4.5v-.6l1.7.3 3.2-1.1 1.5.4 1 2.1 3.5-.6.3.4-1 3.6-3.9 2.7-1.3 2.9.5 2.8-.8 2.7.5 3.2 3 7.8.4 1.6-4.5 1.5-1 4.4.3 2.7-.5 3.4h-1.2l-3.6-2.3H91l-2.9 2.3-1.4 3.3-1.8 1v-.8l-4.2.8-1.5-.5-2.1 1.3-2-4.8-2.3-.4-2.6 1.3h-1.3l-.4-2.9-1-.8-2.8 1.5 3-16.1-4.9-5.8 1.2-2.5.6-6.2 3.3.7 1.6-.5.6-2.2 2.6-2.6 2 1.2 2.4 3.7 1.4-.6 2.5-2.7 3.1-1 .9-1.8-.4-2.2Z"/><path id="NG-OY" d="m9.2 280.3 2.1-1.9 5.9-1 2.8-3 5.8-4.2 1.7-.2 1.7 1.3h.6c0-.1 17.5-9.4 17.5-9.4l3-2.3.3-2.5 1.1-2.5 2.6-1.4h1.4l2.7 1.6.4 1.7 3.3 3 5.5 2.2 3.3.6h1.5l1.9-1.3.9.5v.9c.1 0-1.5 2.1-1.5 2.1l-2.1 1.4-.6 1.5-1.4 1-.7 3 1.4 4.6 4.5 7.8 1.4 5.6 2 2.9 2.3 1.5 2.1 6.1 1.8 1.1.4 2.2-.9 1.8-3.1 1-2.5 2.7-1.4.6-2.4-3.7-2-1.2-2.6 2.6-.6 2.2-1.6.5-3.3-.7-.6 6.2-1.2 2.5 4.9 5.8-3 16.1-4 .6-3.2 1.8-8 .5v-.9l2.6-2.7-.9-5.2-2.7-2-.2-3.8-.8-1.3h-4.2c0-.1-3.1 1.2-3.1 1.2l-1.1-.8-1.2-2.9-1.7-.2-1.1 1-.8 2.9-1.9 2.7h-3.9c0 .1-3.6-2.2-3.6-2.2l-2.2-3-.7-2-3.5-3.4-.3-2.5.6-.2 1.2-4-.3-3.3-.6-.4-1.2.3-1 4.6h-.6l-1.3-3.1v-4.4c-.1 0-1.2-2.2-1.2-2.2l-1.3-.6H10c0 .1-4 3-4 3l2.1-7.1v-2.6l1-3.5-1.6-2.1-.8-2.7.8-2.6-.3-1.4 1.2-.7.9-1.9.2-1.7-.5-.4Z"/><path id="NG-PL" d="m260.6 204.7 3.2-.3 1.9.6 1.8 2.8.5 3.2v8.3l7.4-1.5 1.9 1.4.8 6.1-1.8 4.9 3.6 2 1.7 3.5 1 .9 7.9 1.5 6.8-.4 3-.9 1.9-3.5 3.2-.9.2-2.3-2.1-2.7.2-1 2-1.2 20.5 9.5 8.4 5 1 2.7.3 8.2 1.5 2.6.7 4.1-.4.9.6 5.2-1.2 2.1-8.2 3.9-7.7 1.3-1.7 1-1.4 2.8-3.2 3.8-4.8 2.5-5.2 5.1-4.6 1.5-5.4.2-1-1.8-1.7-1.4-7-2.9-6.6 1.9h-5.5c0 .1-5.9-2.6-5.9-2.6l-1-1.4.2-3.6-2.1-3.6.2-1.5 2.1-2.8 3.4-2.2 1.8-2.7.5-2-2.1-1.9-1.9.9h-2.5l-5-1-1.3-2.3-.4-3-3-.6-1.1-1.1 1.1-2.7V247l-.8-1.4-2.9-2.9-2.3-4.3.7-.9v-3.2c-.1 0 1-.9 1-.9l.3-2.1 1.6-1.8v-8l1.8-2.1-1.4-4.3v-1.8c.1 0 1.6-3.3 1.6-3.3l3.6-2.5.8-3.1Z"/><path id="NG-SO" d="m192.5 447.7-1 1.5-.4-.2v-1c.1 0 1.4-.3 1.4-.3m-1.4.2-.5 2.6-1.2-.3-.3.7h-1.9l-1.5-9.7.8-.3 1.2 2.1 1.1.6-.4 2.6 1.9.5.8 1.4Zm2.1-1.9h-.6c0-.1-.9-.9-.9-.9l-.3-2.2-1.4-1 .6-.4 2 1.1 1 1.9-.3 1.5Zm6.7 2.7-1.3 1-3.5-1.8.9-1.1 1.4 1.8h2.5Zm-14.6-4.2.3 3.4-.7-1.5-1.6-.9.2-.8.6-.5 1.2.4Zm11 1.3-1.6-1.1-1.4-2.9h-.6l-.2-.2-1.9-.5-.6-.7-.6-2.1.3-.5-.7-.8-.8 1 .4 1-3.6 2v-1l-.5.5.9 3.1-1.2.4-2.4-4-1-.3.4-1-.5-1.5.9-.9-.4-.5-2.4-.9-.8 1.5-2.8-1.4-.3 1.2 1.2 1.1.6 4.2 2.2 2.2v.8l-1.3 1.4 1.6 6.7 1.6 1.7-5.1.7-1.5-.5-.6-6.3 1.3-2.5v-1.8c-.1 0-.6.1-.6.1l-3.1-1.7-.8-2.9-.9-1.3-6.4 1.5v-2.3l-2.5-1.5v-2.9l1.8-3.2v-.9l-1.4-.4.9-3 3-5.3 2.2-.2.5-1.7 1-.5-.2-1.2 1.7-1.7v-1.3l-1-1.4-1.3-.6h-2.7c0 .1-.2-.9-.2-.9l2.4-1.2v-3.6c.1 0 2.6-3.1 2.6-3.1l.6-2.1-.6-2.6.7.9h1.6c0 .1-1.9 8.9-1.9 8.9l3.4-.2 1.4.5v4.2l-.8 1.9 2.6 4.1 1.5 1.1 6 .2 3.2.8 2.8-.7 4.5.7 1.7-.6.8 1.2v1.9l-3.9 5.7-.9 2.5.3 1.5 1 .9 1.2.2 2.9-.8h1.9l2.2.7 1.2-.3 3.6 2.1 1.7 3.9-.6 2.9.4 4.5-.8.5-.7-1.1-1.2-.4-1.1 1.1h-1.3c0-.1-1-1.7-1-1.7l-.9.6-3.1-1.7-1.1 1.1.4 1.4.7.8 1.5-.3v1.2c-.1 0-2.3.5-2.3.5l-1.3-2.6Zm14.2 4.6-6.8.7-3.7-.5.5-1.6 1.5-.7h-1.6c0-.1-.4-1.5-.4-1.5l-.8-.8H198v-.5l.5-.6 2.3.9h.7l.8-.2 1.1 1.3h1.2l1.9-.8.8 1.3.9-.4.4 1.4h.8l1.3.5-.2 1.6ZM178 436.6l1.2-.6v-.8l2 1-.6.8.5 1.5-.4 1 1.7 1.5 1.4 2.9-.8 1.6 2.1 1.2 1.2 4.9 1 .8-.8.9-1.6.2-4.3-.9-.5-1.7.4-.4-1.9-3.9v-1.4l1.2-1v-.9c-.1 0-2.5-1.9-2.5-1.9l-.7-4.2-.5-.9.8-.5 1.2.8ZM5.8 54.1"/><path id="NG-TA" d="m334.6 240 3.1-1.8 3.9.5 7.1-3.3 7 .8 2.4.5 16.6-.7 4.7 8.1 4.5 1.6 3.5 6.6v4l1.7 2 2.8 1 1.5 3.8-.7 2.4-4 7.7v5.3l-4.2 3.5-5.8 7.8-6 5.9-3.3 4.3 1.7 4.5 2 3.2 1.8 1.6 1.8-1.3 1.9-2.7 1.1-.3 2 1 4.6 4.7 2.1 3.1-.4 3.7 2 7.7.8.6-3.3 3.7-1.3 3.3.3 4 1.4 4.5-.7.5h-4.6c0 .1-.1 1.2-.1 1.2l-2.2 1.8-1.3.3-.7 2.8-1.4.4-.9 1.8 1 .6v1.2l.8.7-1.1 1.1.6 1.7-1.3.7v2.2c-.1 0-1.5 2.3-1.5 2.3l-1.2.5-1.2-.6-1.2.5v2.2c-.1 0-3.2.9-3.2.9v.9c-.1 0-3.1-1.5-3.1-1.5l-1.5.7-3.4-1.7-1.2 1h-1.4l.2-5.9-1.4-1.5h-1.5l-1.6 1.4-3.2-.9-1.8-3.7-1.6-.6-.9-1.4 1-3.7-1.8-1.2h-1c0-.1-.4.4-.4.4L342 345l-2.2-1.2-.2-1-2.1-.4-1.2-1.1v-2.7l-1-.9-1.4 9.2-1.9 1.6-1.1-.6-10.6 1-1.8-2.1.4-1.2-.7-2.7-.6-.2-7.6 6.9-3.9 4.4-4-1.1-1.2 3.8v2.1l-1.9 5.8-1.7.3-.7-.9-.3.3 1.3-5.5.2-6.6-.4-.5 1.4-7.7 2.2-4.1 5-4.5-.2-4 1.6-4 .2-4.1-.7-1.4-5.6-5.1-6.4-7.1-5-1.2-5.5-.3-5 .6-4.1 1.8-1.3-.4 2.6-4 8.4-5.8-.5-5-2.5-2.6 1.4-3.4 2.1-.6 1.8 1.3 4.3.8 1.8-.6 1.7-2.5 5.4-.2 4.6-1.5 5.2-5.1 4.8-2.5 3.2-3.8 1.4-2.8 1.7-1 7.7-1.3 8.2-3.9 1.2-2.1-.6-5.2.4-.9-.7-4.1-1.5-2.6-.3-8.2-1-2.7Z"/><path id="NG-YO" d="M359.8 76.1h8.4c0 .1 6.4.9 6.4.9l7.2 2.8 7.9 1.7 9.2 6.5h1.1l.9-.6 1.1.4.4-.3-.4-.8 2.1.7 1.1-.3 1 1.2.7-.4 3.7.8-1.1 8.2.8 2.6 4.2 3.8.3 2.5-2.8 4.9-4.8 4.2-.4 1.5 1.2 2.6v3.9l-1.8 13.3 1.1 5-3.2 6.2.5 1.5h3.3c0-.1 2.1 2.4 2.1 2.4l.6 2.2-7.9 10.6-.6 1.9.4 6.8-1.4 2.1-4.1 2.5-7.5 2-1.8 1.3-1.6 3.8.2 5.6-2.3 3-2 .5-4.8-.3-.5-4.3.8-8-.5-3.3-2.5-2.3-1.1.7.7-1-5.5-6.7-5.7-4.2-3.5-1.5h-2.7c0-.1-3.4 1.5-3.4 1.5l-2-.2-1.1-1 1.5-9.7-5.6-14.1-1.1-10.8-2.1-3.1-.4-6-.8-2-5.2-4.2-1.8-9.7-1.5-2.3-1.2-.6-1.4.4-3.4-1.5-4.7 1.7-2.9-7.8-1.5-.8-8.3 2.7-3.6 1.7-1.4 2.7-2.1 1.2-4-.5-1.2-.8 13.4-14.4 8.8-4.4 10.8-.6 8.4-3.2 20.7-.8Z"/><path id="NG-ZA" d="m179.6 88.1 3.7 4.4 5.7-.5-1 7.3.6 8.2.9 6.7.9 2.2-.3 2.4 1.7 3.5 1 4.8-.7 3.5-1.2 2.4 4.4 3.1 1.1 2.3-1.3 1.1-2.2-.5-.4 2.2-3.3 2.7-.9-.6h-4.4l-1 .7-1.8 8 1.4 2 .6 2.5-.9 5.7h-.7l-4 3.5-2.6 6.9-2 2.1-1.6 1-3.2.4-5.3-.4-3.8.6-3.5 3.2-1.9 2.8-2 .6-1-3.3-4.8-7.4-1.1-8.8-1.3-2-3.6-1.8 1.4-5.2v-1.7l-.9-1.4-2.9-1.2-3.3-.4-2.5.9-2.6-.3-3.7.5-2.5-1.6h-1.9l-1.9-2.7-2.4.4-2.6-.5-.7.4-.6 1.6-4.3 1-2.8-1.5-1.8.3.4-21.5.6-3 .6-.4 6.3 1.1 13-.6 1.7-1.1.5-2-1.4-7.9 3.3-2.5 3.9-5.8 10.8-1.2 3.6-1.8-.6-9.1 1.5-1.7 3.3-1h1.9l2.2.8.9-5h3.3c0 .1 4 2.4 4 2.4l6.4.9 6.8-4.4 2.7 4.2Z"/></g></svg>