<?xml version="1.0" encoding="UTF-8"?>
<svg id="Layer_1" xmlns="http://www.w3.org/2000/svg" xmlns:amcharts="http://amcharts.com/ammap" version="1.1" viewBox="0 0 512 512">
  <!-- Generator: Adobe Illustrator 29.1.0, SVG Export Plug-In . SVG Version: 2.1.0 Build 142)  -->
  <g id="_x3C_defs">
    <amcharts:ammap bottomLatitude="4.269658" leftLongitude="2.667421" projection="mercator" rightLongitude="14.681004" topLatitude="13.892503"/>
  </g>
  <g>
    <path id="NG-AB" d="M201.4,385.2l.4.5,5.1-.4,1.4.9.2,1h0l-.3,4.9.7,1.2,9.5.6,1.5,3.4,3.1,1.7h0l.7.9-.3,5,3.1,7.3-.4.8-2.3-.5h0l-1.8-1.8-3.6-2-1.2-2.4-3.9-.5.2,3-1.2,3.4,1.7.2-.5,1.6-.5.6h-4.1c0-.1-.7.6-.7.6l.7,1.8-.8,3.9.4,3.3-.8,1.9-1.7,1.3-.3.9.5,1.4-.4,1.9,1.3,3.5h0l-3.6-2.2-1.2.3-2.2-.8h-1.9c0,0-2.9.9-2.9.9l-1.2-.2-1-.9-.3-1.5.9-2.5,3.9-5.7v-1.9s-.8-1.2-.8-1.2h0l2.1-6.9,2.6-3.7,1.7-4v-3.7c0,0-1.1-1.6-1.1-1.6l.8-.5-.6-6.6-.7-1-3.6-1.2-1.4-1.1h0l1.8-2.4,3-1.6Z"/>
    <path id="NG-AD" d="M465,180.3l-.6,2.4-2.6,3.6-.9,3.3-2.1,2.4-.4,2,1,4.3-1.1,1.1-.7,6.5-1.9,3-.2,2-1.1.7-1,1.8-4,.8-2.8,4,1.2,2.2-.8,1.8-1.2.9v1.2s.4,1.1.4,1.1l1.8.9.7,1.1-1.5,2.1-1.1,7.5-.7,1.1-1.8.8-5.4.6-8,5.3v.9c0,0,2,.5,2,.5v5c0,0-1,3.4-1,3.4l.6,1.4-.6,3.6-1.9,3.2-1.8,1.5.5,1.3-.6,1.4.9,2.6-.8,1.2-2.8.5-.5,2.6-1.3,1.7h-1.5c0,.1-2.3,2-2.3,2l-4.5-1-3.1,6-2.3.7-1.7-.2-3,1.6-.5,2.7,1.4,7.4-2.2,4.1.6,4.2-2.8,4.3-2.3,2.1-2.3,4.4-.3,2.3-.7,1,.9,5.3-3.3,1.2-1.9,2.1h0l-.8-.6-2-7.7.4-3.7-2.1-3.1-4.6-4.7-2-1-1.1.3-1.9,2.7-1.8,1.3-1.8-1.6-2-3.2-1.7-4.5,3.3-4.3,6-5.9,5.8-7.8,4.1-3.5v-5.3s4.1-7.7,4.1-7.7l.7-2.4-1.5-3.8-2.8-1-1.8-2v-4c0,0-3.5-6.6-3.5-6.6l-4.5-1.6-4.7-8.1h0l4.2-.6,2.3-1,10.2-6.5.7-1.6-.3-2.5.5-6.9h0l4.3.7,4.9-1,2.3-2,6.7-8.5,5.9-.9,4-1.5,1.6-1.8.6-1.8h2.2c0,0,1.6-.9,1.6-.9l1.5-2.5,3.1-2.4,5.7.5,3.7,1.7,1.9,2.1,1.6.8,1.6.7h3s.8-.8.8-.8l1-5.2,2.6-6.3.8-8.1,2.1-.3,2.9,1.3,6.4-1.4h0v1Z"/>
    <path id="NG-AK" d="M209.4,448.2h0s0,0,0,0h0ZM214.5,447.7l2.1.3-2.4.5-.3-.4.7-.4ZM241.6,442.6l.6,1.4-1.2.7v-.8c-.1,0,.6-1.3.6-1.3ZM206.9,435.2l-1.3-3.5.4-1.9-.5-1.4.3-1,1.7-1.3.8-1.9-.4-3.3.8-3.9-.7-1.8.7-.7h4.1c0,.1.5-.5.5-.5l.5-1.6-1.7-.2,1.2-3.4-.2-3,3.9.5,1.2,2.4,3.6,2,1.8,1.8h-.6c0,0-.8,1.7-.8,1.7l.4,1.2,1.1,1.5,3.2-.4,3.3,1.8v5.5c-.1,0,.9,3.5.9,3.5l2.3,3.3,7.6,7.4h0l-.3,1.5.5.3v1.7s-.6.2-.6.2l.8.8-2.1,4.5-7.4-.5-15.3,1.5-2.2-.4-1.2.2.5.9-2.2.9-.7-1.1-2-1.3.2-.7h-.7c0,0-.4-4.4-.4-4.4l.6-2.9-1.8-3.9Z"/>
    <path id="NG-AN" d="M182.3,353.7l.4,2.7h2.6c0,0,5.5,2.1,5.5,2.1l-.6,2.9-2.9,3.2-.5,2.8,2.9,1.1,1,1.2,1.8,3.7-.8.8v2c0,0,.4.5.4.5l1.7-.7.4,1.7.9.4-.2,1.4,1.9,4.2,1.6.9,1.8-.6,1.3,1h0l-3,1.6-1.8,2.4h0l-3.6,1-3.6-.8-4.2.8-1.2.7-2.2,5.5-1.8.2-3-1.3-1.1.5-2,2.6-1.4.6h-1.6c0-.1-.7-1-.7-1h0l2-3.4,1.4-4.9,1.7-3.1.3-4,.9-2.5-4-15.6h0v-.2h0l1.1-.5,2.4.4,1-.6,1.2-1.7.9-4.6,3.4-3.4Z"/>
    <path id="NG-BA" d="M336.6,113.2l5.2,4.2.8,2,.4,6,2.1,3.1,1.1,10.8,5.6,14.1-1.5,9.7,1.1,1,2,.2h0l-2.4,2.7-4.1,2.2-3.1,3.7-3.6,1.1-1,.9-.9,1.4-2.4,8.3-2.6,4.3,5,2,.8,1.2.6,4.8.6.8,4.8,1.8,1.4,3.3v7.7c0,0-.6,1.2-.6,1.2l-4,1-.9,1.3.2,1.1,2.9,2.9,7.8,5.7,1.2,6.7,2.9,5-.5.7h0l-7-.8-7.1,3.3-3.9-.5-3.1,1.8h0l-8.4-5-20.5-9.5-2,1.2-.2,1,2.1,2.7-.2,2.3-3.2.9-1.9,3.5-3,.9-6.8.4-7.9-1.5-1-.9-1.7-3.5-3.6-2,1.8-4.9-.8-6.1-1.9-1.4-7.4,1.5v-8.3s-.5-3.2-.5-3.2l-1.8-2.8-1.9-.6-3.2.3h0l-3.8-3.5,1.6-2.8.4-2.7h0l2.4-3.1.9-2.6-.6-2.5-2.6-2.9-.3-1.3-.3-4.6,1.4-5.4,3.9-.5,3.6-4.9,5.3-4.6,1.1-.2,1.5.8,3.7-1.5h0l4.7.6,5,1.6,2.3-1,1.5.5,1.2,2.5,10.5-.6,2.2,4.7-.6,5.3,1.5,2.3,3.8.8,3.8-.9,4,1.4,1.3-.4-.7-3.5,2.7-2.2,3.7-1.2,1.2-.9.7-1.8-.7-1-14.1-1.7-2-1.2-3.6-5-1-3.4-2.6.6-.8-.7-.4-1.2,1.7-3.4-1.3-5.9-1.2-.3-5,.9-.9-.4.3-2.9,2.2-3.1,4.1-.3,3.7-2,12.4-4.8-.4-2.8,4.5-13.9,5.4-1.7,1.3,2.6,7.4-4.7Z"/>
    <path id="NG-BE" d="M214,301.8l11.9,2.5,9.2,4.3,4.3.6,2.2,1.9,3.6,1.5.8-1.7-3.2-7.8v-1.7c0,0,1.5-2.9,1.5-2.9l3.6-1.7,3.5.2,11.4,3.5h5.9c0,.1,0-.3,0-.3l7.9,6h0l-2.6,4,1.3.4,4.1-1.8,5-.6,5.5.3,5,1.2,6.4,7.1,5.6,5.1.7,1.4-.2,4.1-1.6,4,.2,4-5,4.5-2.2,4.1-1.4,7.7.4.5-.2,6.6-1.3,5.5h0l-1.9-.3-.5,2.3-1.9,1.2h-3.1c0-.1-3.7-5.7-3.7-5.7l-3.7-3.9-3.1-.6-6.4,1.5-2.9-.3-.8-.6.4-3.2-.4-1.1-5.8-3.6-3.7-1.1-3,.3-2.4,1.3.5,3-2.1,1.3-2.1.6-5.3-.2-2.5,2.5-2,.3h0l-1.1-1.5-.6-2.9-1.2-.9-.7,1.6-2.3.2-1.2,1.9-1.3.6h-4.3c0,.1-1.5,7-1.5,7l-.9.4-1.2-.5-2.7-2.5-.3-1.6h0l1.5-4.3-.6-3.8-1-1.4-1-.8-1.9-.2-2.9,1.9-2-1-4.4-4.1-1.8-4.7h.8c0,0,2.3,2.3,2.3,2.3l2.6.6.2-3,.6-1,4.3-2.1,2.2-2.1,1.6-6.6,1.4-2.9h-3.2c0-.1-.9-.8-.9-.8l-.8-3.7-.4-9.2-3.6-5.2v-5.9Z"/>
    <path id="NG-BO" d="M451.2,61.8l.5,3.8-.6,2,2.3,4.2-.4,2-.7.7,1.6,1.7,1.7.4-.2.8,3.5,5.2,1.9,2.1,3,1.6,2.6.5.2.6-.8.7v-.7c-.1,0-1.1.4-1.1.4l1,1.1.2,1.2,2.6-.8,4.3-3.6-.7,1.2.5.2.4,1.6-.7-.8-1,1.2-1.4.4.5,1.3-2.1,3.3.3.5.9-.3-.4,2.4h.6s-1,2-1,2l1.5.5-1.8.9,2,1-1.4.8,1,.5-1.2.2.7.4-.6,1.1h1c0,.1-.2,1.5-.2,1.5l1.2,1.8-.2.8,1.3.4.6,1.3,1.4-.5,1.5,2.5,1.5.5.2,2.2,1.2.8,2.3-.2-.2.7h.6s.3-.4.3-.4l3.9-.6v.8c.1,0,.8,0,.8,0l-1,1.6,2.2,1.9,3-.4.3.5,1.2-.6,6.4.9,1.4,1-.2,1.4,1.5.7.5.9-.5.9,2,.5.5,1-.4.3.8.4,1.6-.6.9,1.7-1.6,2.7.5,1.3-1.2.8v1.1s1.4,2.5,1.4,2.5l-.8,1.2.2.9-1.6,1.9.2,3.6-2.4,2.6,3.7,3.4v4.6c-.1,0-7.9,3-7.9,3l-1.1,2.1-5.4,2.1-2.2,1.4-1.3,1.8-3,1.3h-1.6s-1.8-1.6-1.8-1.6l-3.1-.7-2.7,5.5-1.5,1.4.2,1-2.7,2.6-.8,2-3.8,1.4-.6,1.7h0l-6.4,1.4-2.9-1.3-2.1.3-.8,8.1-2.6,6.3-1,5.2-.8.8h-3s-1.6-.7-1.6-.7l-1.6-.8-1.9-2.1-3.7-1.7-5.7-.5-3.1,2.4-1.5,2.5-1.6.8h-2.2c0,0-.6,1.9-.6,1.9l-1.6,1.8-4,1.5-5.9.9-6.7,8.5-2.3,2-4.9,1-4.3-.7h0l-3.8-2.6-2.1-4.2-3.8-1.6-2.9-3.6-.5-1.9,3.5-5.1.4-2-.9-2.2h0l2-.5,2.3-3-.2-5.6,1.6-3.8,1.8-1.3,7.5-2,4.1-2.5,1.4-2.1-.4-6.8.6-1.9,7.9-10.6-.6-2.2-2.1-2.5h-3.3c0,.1-.5-1.4-.5-1.4l3.2-6.2-1.1-5,1.8-13.3v-3.9s-1.1-2.6-1.1-2.6l.4-1.5,4.8-4.2,2.8-4.9-.3-2.5-4.2-3.8-.8-2.6,1.1-8.2h0l3.9.5.6-2.7,1-.9,1.7-.3.3-1.5-.8-.3,1.3-2.9,2.9-.8,1.1.6.8-1.7,1.9-.3.6-1.4,1.4-.3,1.3-1.4.8-2.1,1-1-.5-.2.4-.4.8.4-.2-1.1,2.1.5,1.9-1.4,1.5.2.9-.9.7.3v-.7s.8-.2.8-.2h.7c0,0-.6.8-.6.8l1,.5.6-.9.9.7v-.9c-.1,0,.9-.3.9-.3l-.2,1.4,1.7-.7.6.9.6-1.7,1.1-.6-.2-.9h.8c0,.1.4-.4.4-.4l-.7-.8,1.1-1.5,3.5-2.8Z"/>
    <path id="NG-BY" d="M173.3,447.7l.2,3.9-.8-2.8-.7-.4.6,3.4.8.5.6,2.7-2.4.3-.6.7-1.5-1.5.3-1.4-.9,1,.4,1.4-5.7.6-1-.5.3-.7-1.5.3-1.1-1.5-.9-.2-.7-4.6-1.6.8.3,1.7-1.8,1.7v-2.1c0,0-1-2.7-1-2.7l.7,3.4-.4.8-.6-1.1h-1.1c0-.1,1.3.6,1.3.6l.2.9-1.1,2.8.4,1.6-5.6.5-.3-2.6-.6,1.9-3.5-.9.2-2.2-.5-1.1-.7.3.5.5v1.3c-.1,0-5.1-2.7-5.1-2.7l.4-1.5-1.1.3v.7c0,0-1.8-2.1-1.8-2.1l-1.9-.8-.6-1.2-1.9-.9-5.8-7.9-3.5-6.7-1.9-6.7-1.6-3.1,1.1-.6,1.7.4.4-.5h0l1.4,1.4,4,1.6,2.5,1.8h2.2s5-2.8,5-2.8l1.8.3,2.2-1.1,1.5-2.4,2.1,2,1.3.5,1.6-.4.8-1.3,3.1-.2,1.9-1v-2.2c0,0,1.6.5,1.6.5l1.4-.3,1.4-2.8h4.2s3.4-1.5,3.4-1.5l.8-.6-.5-1.7h2.7c0-.1,1.3.4,1.3.4l.9,1.4v1.3s-1.7,1.7-1.7,1.7l.2,1.2-1,.5-.5,1.7-2.2.2-3,5.3-.9,3,1.4.4v.9s-1.8,3.2-1.8,3.2v2.9s2.5,1.5,2.5,1.5v2.3s6.4-1.5,6.4-1.5l.9,1.3.8,2.9,3.1,1.7h0v.4c.1,0-1.2,3.5-1.2,3.5ZM162,456.3l-7.4.6,1.3-3,2-2.4-.5-1.4,1.1-.4.4,1,.3,2.9,1.1.3,1.9,2.4Z"/>
    <path id="NG-CR" d="M240.1,357.9l2-.3,2.5-2.5,5.3.2,2.1-.6,2.1-1.3-.5-3,2.4-1.3,3-.3,3.7,1.1,5.8,3.6.4,1.1-.4,3.2.8.6,2.9.3,6.4-1.5,3.1.6,3.7,3.9,3.7,5.5h0l-1.5,5.6-3.5-1.5-.5,2.6-3,4.4-3.3,1.4-2.1,3.1-5.9,5.2-3.3,2.1-3.1,3.1,1.2,1.3-.7,2.2-1,1.3-.4-.4v1s3.5,3.8,3.5,3.8l.2,1.2-2.8,5.3v2.6c.1,0-1.1,4-1.1,4v4.4c.1,0-1.6,2.8-1.6,2.8l-1.3.5-1,1.3-.8,2.2-.8.7.7.7-1.9,1.7v1.2c0,0-2,1.3-2,1.3l1,2.4-1.6,1-1.2-.6-.7.6-1,2.4h.5s.4-1.1.4-1.1l.2,1.7-.2.4-.7-.4.4,1-1,.2v.5s-2.1-.2-2.1-.2l.3-1.2h.7c0,0-.9-1.2-.9-1.2l-1.3,1.1-1.4-.3-.4-.8.7-.6-.2-.6h-1.7c0-.1-1.6,1.3-1.6,1.3h0l-7.6-7.4-2.3-3.3-1.1-3.5v-5.5c.1,0-3.2-1.8-3.2-1.8l-3.2.4-1.1-1.5-.4-1.2.8-1.6h.6c0,0,2.3.4,2.3.4l.4-.8-3.1-7.3.3-5-.7-.9h0l.3-1.6,1.6-2.1-.2-1.8,2.5-3.3-.6-3.5,3.3-.8,1.8,3,.9-1.4,2.9-1.7.2-.9,1.3-.2,1.5.8,1.6-4.9,4.7-5.6-1.2-3.8,1.1-1.1,1.5-.2.4-1.9-.9-.7-.6-2.6-1.2-1.9-3.2-3-.3-1.9Z"/>
    <path id="NG-DE" d="M170.7,400.4l-.6,2.1-2.4,3.1v3.6c-.1,0-2.5,1.2-2.5,1.2l.2,1h0l.5,1.7-.8.6-3.4,1.5h-4.2s-1.4,2.8-1.4,2.8l-1.4.3-1.5-.5v2.2c0,0-2,1-2,1l-3.1.2-.8,1.3-1.6.4-1.3-.5-2.1-2-1.5,2.4-2.2,1.1-1.8-.3-5,2.8h-2.2s-2.5-1.8-2.5-1.8l-4-1.6-1.4-1.4h0l.5-.2v-1c0,0-.4-.4-.4-.4l.2-2.4-.6,1.8.7,1.7-3.2.7-1.4-1.5-1.2-7.9,1.8.7,3.1-.6.7,1.1,2.3-1.1-2-.2,2.3-1.5.8.6-.2,1,.8-.9,1,.8.2-.5-2.2-.9-.8-1.1.5-2.7.6-.5.6.7v-.6c-.1,0,2.1-.5,2.1-.5l.7-1.1.9.6h.6s0-.7,0-.7l-.4.4-1.4-.7-1.5,1.3-2.5-.2.4.2-2.7,4.8-1.8-.8.4,1.4-3.4-.2-4.1-1.8-3.9-4.4,2-2.4,6.9.6-.7,1.1,1.6-1.3.3-1.9h2.5c0,.1.8,1.5.8,1.5l-.4.5.9.2-.3-1.4h.7c0,0-2.8-1.6-2.8-1.6h-1.2c0,.1-1.1,2.2-1.1,2.2l-2.4-.2-.7-1.4-.7,1-2-.3-2.8,1.3-2.1-2.1-1.8-3,.4-3.2.7-.6,1.3.3,2.4-2.2,1.5-.7.6.4.7-1.3,1.3-.6-.2-.5-8.1,4.2-1.3,1.9-.9-.6-1.7-3h0l4.6-11.3h0l4.8,3-.4,2.9.5,3.4h1.1s2.8-2.2,2.8-2.2l.3-.7-.6-1.7.4-.2,4.8-.2,3.6,1.8,1.2-1.6,3.4-1.2,6.4,3.5,1.3,1.9,2.6,1.6.3.6-1.4,2.7,1.1,1.1-.5,1.2,1.4.4,3.5-.7,3.1-1.7,1.5-2.1,3.2-2.5,1-1.3.5-2.2-.2-1.2-2.8-1.5-2.7-4-.4-3.2-1.3-1,.7-3,1.2-1.1,1.1.2,2.8,2.9,2.7-3,4.9-2.1,5.5-3.4,2.5-.5,2.8.3,1.3-1.4h0l4,15.6-.9,2.5-.3,4-1.7,3.1-1.4,4.9-2,3.4.6,2.6Z"/>
    <path id="NG-EB" d="M220.7,359.8l.3,1.6,2.7,2.5,1.2.5.9-.4,1.5-6.9h4.3c0-.1,1.3-.7,1.3-.7l1.2-1.9,2.3-.2.7-1.6,1.2.9.6,2.9,1.1,1.5h0l.3,1.9,3.2,3,1.2,1.9.6,2.6.9.7-.4,1.9-1.5.2-1.1,1.1,1.2,3.8-4.7,5.6-1.6,4.9-1.5-.8-1.3.2-.2.9-2.9,1.7-.9,1.4-1.8-3-3.3.8.6,3.5-2.5,3.3.2,1.8-1.6,2.1-.3,1.6h0l-3.1-1.7-1.5-3.4-9.5-.6-.7-1.2.3-4.9h0l2.4-.7,3.3,2.9h.5s.4-.9.4-.9l-.6-3.7,2.3-3-1.8-7.7,1.8-4.1v-3.9s-1.7-6.3-1.7-6.3h5.5Z"/>
    <path id="NG-ED" d="M145.8,320.5l2.2.4.2,1.5,1.5-.2-.6,3.1.9,1.2,1.4.4,4-2,4,3.8,3.7-.4,2.4,5.6,2.8-.3,2.2-.9,2.5,3.1.6,3.6-1.3,3.9v2.8s-2.7,5.6-2.7,5.6l.9,1.4-.6,3.7,1.5,3.1.7,4.1h0v.2h0l-1.3,1.4-2.8-.3-2.5.5-5.5,3.4-4.9,2.1-2.7,3-2.9-2.9-1.1-.2-1.2,1.1-.7,3,1.3,1,.4,3.2,2.7,4,2.8,1.5.2,1.2-.5,2.2-1,1.3-3.2,2.5-1.5,2.1-3.1,1.7-3.5.7-1.4-.4.5-1.2-1.1-1.1,1.4-2.7-.3-.6-2.6-1.6-1.3-1.9-6.4-3.5-3.4,1.2-1.2,1.6-3.6-1.8-4.8.2-.4.2.6,1.7-.3.7-2.8,2.2h-1.1s-.5-3.3-.5-3.3l.4-2.9-4.8-3h0l.3-.8-.8-1.5-1.9-.8-1.1-2-2.1-1.7,1.2-2.9,2.4-1,.6-2.5,1.7-2.5v-2.1c-.1,0-1.9-2-1.9-2l.8-4.7,2.6-2.3,1.5-3.8,1.5-.7,11.9.3,1.2,1.4-1.4,1.5,1.4,3.7,3-2.1h.9c0,0,1.3,1.3,1.3,1.3l1.8-.7,1.7-5.6,1,.2v-1.1s.6-.3.6-.3l-.9-1.4.4-3.1,1.9-1.6,2.4-7.4,2.6-1.9,1-2.4-.8-1.9.6-1.9-1.4-.6v-1.5c-.1,0,.8-1.2.8-1.2l1.6-.3,1.6-2.3Z"/>
    <path id="NG-EK" d="M105.6,301.4l1.4,1.3,3-.8,2.3,2,5.3.2,1.1-3.4,2.8-.9h3.9c0,0-.7.2-.7.2l.3,3.2,1.7-1,2.5-.4,1.9.7-.2.9-2.4,2.5.8,3.6,3,1.8,4.6,1.6h0l-1.6,1.8-1-.8-1.3.3-.6,1.4-3.1,2.6-3.1,9.5-2.1,3-3.7,2.3-1.5-.4-1.3-4.5-1-1.5-1-.3h-9.9c0,0-3.1.9-3.1.9h0l-3-7.8-.5-3.2.8-2.7-.5-2.8,1.3-2.9,3.9-2.7,1-3.6Z"/>
    <path id="NG-EN" d="M182.3,353.7l1.8-3.4.6.2v1.5c.1,0,1.5,1.4,1.5,1.4h1.3s3.3-3.6,3.3-3.6l4-2.6,4.2-5,1.6-.6,1.4-1.4,2.2-.5,1.6.5.7,1.1h0l1.8,4.7,4.4,4.1,2,1,2.9-1.9,1.9.2,1,.8,1,1.4.6,3.8-1.5,4.3h-5.5c0-.1,1.7,6.2,1.7,6.2v3.9s-1.9,4.1-1.9,4.1l1.8,7.7-2.3,3,.6,3.7-.4,1h-.5s-3.3-2.9-3.3-2.9l-2.4.7h0l-.2-1-1.4-.9-5.1.4-.4-.5h0l-1.3-1-1.8.6-1.6-.9-1.9-4.2.2-1.4-.9-.4-.4-1.7-1.7.7-.5-.5v-2c0,0,.8-.8.8-.8l-1.8-3.7-1-1.2-2.9-1.1.5-2.8,2.9-3.2.6-2.9-5.5-2.1h-2.6c0,0-.4-2.6-.4-2.6Z"/>
    <path id="NG-FC" d="M199.2,248.3l4.1-.4,3.2.8,2.7-3,.7.3,1,2.1,1.4-.3h0v1.6s-1.4.9-1.4.9l-1.4,4.4v10c0,0-1.4,3.5-1.4,3.5l-1,5.4-2,3.6-2.5,3.1-4.7,2.4-5.1,1.5-7.5,1.2h0l-6,.2h0l-2.2-.2-1.3-3.3v-30.4s9.5-.8,9.5-.8l1.2.4,6.2,5.5.6-.2,5.8-8.3Z"/>
    <path id="NG-GO" d="M353.5,164.3l3.4-1.6h2.7c0,.1,3.5,1.7,3.5,1.7l5.7,4.2,5.5,6.7-.7,1,1.1-.7,2.5,2.3.5,3.3-.8,8,.5,4.3,4.8.3h0l.9,2.2-.4,2-3.5,5.1.5,1.9,2.9,3.6,3.8,1.6,2.1,4.2,3.8,2.6h0l-.5,6.9.3,2.5-.7,1.6-10.2,6.5-2.3,1-4.2.6h0l-16.6.7-2.4-.5h0l.5-.7-2.9-5-1.2-6.7-7.8-5.7-2.9-2.9-.2-1.1.9-1.3,4-1,.6-1.2v-7.7c0,0-1.3-3.3-1.3-3.3l-4.8-1.8-.6-.8-.6-4.8-.8-1.2-5-2,2.6-4.3,2.4-8.3.9-1.4,1-.9,3.6-1.1,3.1-3.7,4.1-2.2,2.4-2.7Z"/>
    <path id="NG-IM" d="M196.7,389.1l1.4,1.1,3.6,1.2.7,1,.6,6.6-.8.5,1,1.6v3.7c0,0-1.6,4-1.6,4l-2.6,3.7-2.1,6.9h0l-1.7.6-4.5-.7-2.8.7-3.2-.7-6-.2-1.5-1.1-2.6-4.1.7-1.9v-4.2s-1.4-.5-1.4-.5l-3.3.2,1.9-8.8h0l1.4-.6,2-2.6,1.1-.5,3,1.3,1.8-.2,2.2-5.5,1.2-.7,4.2-.8,3.6.8,3.6-1Z"/>
    <path id="NG-JI" d="M297.7,99.6l1.2.8,4,.5,2.1-1.2,1.4-2.7,3.6-1.7,8.3-2.7,1.5.8,2.9,7.8,4.7-1.7,3.4,1.5,1.4-.4,1.2.6,1.5,2.3,1.8,9.7h0l-7.4,4.7-1.3-2.6-5.4,1.7-4.5,13.9.4,2.8-12.4,4.8-3.7,2-4.1.3-2.2,3.1-.3,2.9.9.4,5-.9,1.2.3,1.3,5.9-1.7,3.4.4,1.2.8.7,2.6-.6,1,3.4,3.6,5,2,1.2,14.1,1.7.7,1-.7,1.8-1.2.9-3.7,1.2-2.7,2.2.7,3.5-1.3.4-4-1.4-3.8.9-3.8-.8-1.5-2.3.6-5.3-2.2-4.7-10.5.6-1.2-2.5-1.5-.5-2.3,1-5-1.6-4.7-.6h0l.7-4,4.8-4.6-3.9-2.9-2.1-3.9h-3.4c0,.1.2-2.6.2-2.6l2.3-3.2.8-2.6-1.7-6.5-3.4,2.5h-1.2c0,.1-.9,0-.9,0l-.4-2.7-2.1.2-1.3.8v-.7l-1.1-.5,1.2-2.1v-3.8c0,0-.5-2-.5-2l-1.9-.9-4.2-.7-.7-.9.4-1.4-.7-2.1-3.3-2.4-.3-4-5.2-1.4-2.5.2-3.8,2.2-1.7,4.2-3.1-6.3h0l-1.4-2.2h-3.3c0,0-2.3-1.2-2.3-1.2l.8-6.9,7-.9,3.6.7,6.2-.5,2.2,4.6,3.1,1.5,1.8-1,.4,1,1,.5,5.3-1.5,2.1-1.7.7-1.8,1.7-1.1v-.6h0l28,1.3,1-.8Z"/>
    <path id="NG-KD" d="M218.6,161.6l3.7-.4,2.8-2.6,3.2-1.9,3.9-.8,1.6.7.2.8-1.4,2.7,1.1,2.5,4.9,2.1,2.4,2.8,4.5.7,3.6,3,2.4,4.3.3,2.6-1.4,4.9.7,5.2-.5.7-2.4.6-.4.5.4,1.4.7.7,4.7.7,2.4,2.6,2.7.2h0l-.4,2.7-1.6,2.8,3.8,3.5h0l-.8,3.1-3.6,2.5-1.4,3.3v1.8c-.1,0,1.3,4.3,1.3,4.3l-1.8,2.1v8s-1.6,1.8-1.6,1.8l-.3,2.1-1.2.9v3.2c.1,0-.6.9-.6.9l2.3,4.3,2.9,2.9.7,1.4v2.3c0,0-1,2.7-1,2.7h0l-.7.4-4.6,7.9-2.7.2-.4-1.3-3.6-4-2.6-.2-1.9-1-4.3,5.1-2.4,1.2-1.2-1.5v-6.5s-.7-1.1-.7-1.1l-2.8-1.6-.2-2.2-2-1.8h-1.4s-1.7,3.1-1.7,3.1l-1.6,1.4-2.8-.5-1.6-1.2-1.6.3-.9-1.8-1.4.6h0l-1.4.3-1-2.1-.7-.3-2.7,3-3.2-.8-4.1.4h-2.5c0,.1.9-2.7.9-2.7l-2.3-1.9.4-2.2,2.2-1.5.4-1.9,2.1-2.1-.4-1.3-2-1.1.6-2-2.4-.9-.9-1.1.8-.7,2.2-.3.4-1-.8-8.1-1.1-1.1h-8.7c0,0-4.5-1.6-4.5-1.6l-1.2-1.1-.7-1.3,3.7-3.9,2.9-1.7.9-2.5-5.4-2.3.9-4.5-1.3-2.6h-3.5c0,0-.2-3-.2-3l-.7-1.6-3.2-.3-.8.8.5,1.6-.4.7-2.7-.4-5.1,1.9-1.4-2.5h-2c0,0-3.1,1.5-3.1,1.5l-3.8,3-3.6,4.7-.9.6-1-.4-.8-2.4-2.1-1.3v-.9c-.1,0,0-1.6,0-1.6l1.2-1.2-.2-2.6.5-1.3-1.1-2.6.3-3.2,2-3.6h0l2-.6,1.9-2.8,3.5-3.2,3.8-.6,5.3.4,3.2-.4,1.6-1,2-2.1,2.6-6.9,4-3.6h.7s4.3.5,4.3.5l.9.6.4,1.9-2.2,2.7,4.3,1.3,2.9,2.9,1.2.2,1.8-1,.9-1.3-1.2-2.3v-1.4c0,0,2.2-.7,2.2-.7l4.1.8,1.2-3.3,2.1-1.7.9-.2,4.6,1.5,3.1,2.8,3.8-1.5,1.2-2.1Z"/>
    <path id="NG-KE" d="M66.6,83h4.5c0,0,1.3.4,1.3.4l3.1-1.1,4.5,3.6,10.5,4,1.6-.7,1.7-2.5.8-.2.7.6.3.8-1.1,2.6-1.2,6.1,2.5,4.3-1,6.3,1.2,5.1-.2,5.4-.4,1h-.7s-2.1-1.3-2.1-1.3h-1.8s-2.7.8-2.7.8l-.9,1-.7,2.5v6.7c0,0,.4,8.8.4,8.8l-1.4,6.6-2.5,7,1.7,2.5,2.4.5,2.8-2.9,8.1-3.7,2.4.5,1.4-.5.5,1.2,1.7-.6h0l1.8-.3,2.8,1.5,4.3-1,.6-1.6.7-.4,2.6.5,2.4-.4,1.9,2.6h1.9c0,0,2.5,1.7,2.5,1.7l3.7-.5,2.6.3,2.5-.9,3.3.4,2.9,1.2.9,1.4v1.7s-1.4,5.2-1.4,5.2l3.6,1.8,1.3,2,1.1,8.8h0l-2.2-1-2.3,1.9-.9,1.5-2.6.3-8.1,3.4-7.2.5-1.1-.8-.3-7.1-3.1-2.5-.7-4.4-1.1-1.1-4.4-.5-6.6,1.1-5.3,1.2-6.2,2.8-.9,1.4.7,1.9,6.1,2.8,3.6.4.7,1.4,1.7.5.8,4.4-2.1,2.7.3,1,2.6,2v1.4s-.7,1-.7,1l-6.1,2.4-3.4-.3-1.6.8-.3,7.4,3.3,5.3.3,2.7-3,2.5-2.3.2-5,1.7-.7,4.3-2.9-.3-1-.7.9-6.4-2-1.8-.8-1.6v-4.3c.1,0,2.3-3.5,2.3-3.5l3.6-1.6,3.1-3,1.6-7.2-.2-3.2-3-.6-5.7-3.8-3.5-1.1-17.4.9-3.6-1.2-7.4-4.1h-2.5c0,.1-.9.1-.9.1l-8.2-6.9,2.9-13.7,1.4-3.2,3.3-2.8-.6-2.2-1.6-1.2-.4-3.3,2.1-2.6-1.6-5.9,1.1-6.4-.6-10.7,12.5-10.4,6.4-9.8,1.4-6.5v-2.7Z"/>
    <path id="NG-KN" d="M239.7,110.3l3.1,6.3,1.7-4.2,3.8-2.2,2.5-.2,5.2,1.4.3,4,3.3,2.4.7,2.1-.4,1.4.7.9,4.2.7,1.9.9.5,2v3.8c0,0-1.2,2.1-1.2,2.1l1.1.5v.7l1.3-.8,2.1-.2.4,2.7.9.2h1.2c0-.1,3.4-2.6,3.4-2.6l1.7,6.5-.8,2.6-2.3,3.2-.2,2.7h3.4c0-.1,2.1,3.8,2.1,3.8l3.9,2.9-4.8,4.6-.7,4h0l-3.7,1.5-1.5-.8-1.1.2-5.3,4.6-3.6,4.9-3.9.5-1.4,5.4.3,4.6.3,1.3,2.6,2.9.6,2.5-.9,2.6-2.4,3.1h0l-2.7-.2-2.4-2.6-4.7-.7-.7-.7-.4-1.4.4-.5,2.4-.6.5-.7-.7-5.2,1.4-4.9-.3-2.6-2.4-4.3-3.6-3-4.5-.7-2.4-2.8-4.9-2.1-1.1-2.5,1.4-2.7-.2-.8-1.6-.7-3.9.8-3.2,1.9-2.8,2.6-3.7.4h0l-2.4-1.8-.7-1.5-.5-2.4,1-1.8v-1.5s1.3-1.1,1.3-1.1l2.5-.7,1.6-1.1,2.5-.4-2.1-5.2.5-2.7-1.4-3.1.6-4.3-.3-10.2,1.5-1.5,2.9-1.6,7.6-2.9,2.7-6.6,4-.6Z"/>
    <path id="NG-KO" d="M153.4,272.3l3.3,1.4,2.4,2.2,1.9,2.9,1.7,5.6,4.3,3.4,5.5,6.6h1.3c0,0,1.3-3.7,1.3-3.7l1.1.4v-2s2.4-1.2,2.4-1.2l.8-2.2h0l6-.2h0l-1.4,4.1,2,2.9.4,4.2-.8,3.2v3.2s-1.7,2.6-1.7,2.6v2.5c-.1,0,.3.4.3.4l2.9-2,6.2-2.7,8.3-2.3,4.8-.5,7.6.8h0v5.9c.1,0,3.7,5.2,3.7,5.2l.4,9.2.8,3.7.9.7h3.2c0,.1-1.4,3-1.4,3l-1.6,6.6-2.2,2.1-4.3,2.1-.6,1-.2,3-2.6-.6-2.3-2.2h-.8c0,0-.7-1.1-.7-1.1l-1.6-.5-2.2.5-1.4,1.4-1.6.6-4.2,5-4,2.6-3.3,3.6h-1.3s-1.4-1.4-1.4-1.4v-1.5c-.1,0-.7-.2-.7-.2l-1.8,3.4h0l-3.4,3.4-.9,4.6-1.2,1.7-1,.6-2.4-.4-1.1.5h0l-.7-4.1-1.5-3.1.6-3.7-.9-1.4,2.7-5.6v-2.8s1.3-3.9,1.3-3.9l-.6-3.6-2.5-3.1-2.2.9-2.8.3-2.4-5.6-3.7.4-4-3.8-4,2-1.4-.4-.9-1.2.6-3.1-1.5.2-.2-1.5-2.2-.4h0l-4.7-5.1.5-2.8-1.7-.3-3.1.6h0l-4.6-1.6-3-1.8-.8-3.6,2.4-2.5.2-.9-1.9-.7-2.5.4-1.7,1-.3-3.2.7-.3h0l.5-1-.6-1.6-4.9-3.4-3-4.6,3.1-4.9,2.5-2.7,2.4-1.5,2.7,2.9,4.7,2,3.1.8,6.6.2,4.2,1,2-.3,1.1-2.5.4-4.4,1.6-5.2,1.7-2.3Z"/>
    <path id="NG-KT" d="M222.7,77.9l9.7,1.8,4.4,3,1.8.5,6.7,6.5,2.2-.6,2,.3,3.6,2.2,1.9,3.1,13.7,4.4h0v.6s-1.7,1.1-1.7,1.1l-.7,1.8-2.1,1.7-5.3,1.5-1-.5-.4-1-1.8,1-3.1-1.5-2.2-4.6-6.2.5-3.6-.7-7,.9-.8,6.9,2.3,1.1h3.3c0,0,1.4,2.3,1.4,2.3h0l-4,.6-2.7,6.6-7.6,2.9-2.9,1.6-1.5,1.5.3,10.2-.6,4.3,1.4,3.1-.5,2.7,2.1,5.2-2.5.4-1.6,1.1-2.5.7-1.2,1.1v1.5s-1.1,1.8-1.1,1.8l.5,2.4.7,1.5,2.4,1.8h0l-1.2,2.1-3.8,1.5-3.1-2.8-4.6-1.5-.9.2-2.1,1.7-1.2,3.3-4.1-.8-2.3.7v1.4c0,0,1.3,2.3,1.3,2.3l-.9,1.3-1.8,1-1.2-.2-2.9-2.9-4.3-1.3,2.2-2.7-.4-1.9-.9-.6-4.3-.5h0l.9-5.7-.6-2.5-1.4-2,1.8-8,1-.6h4.4c0,0,.9.5.9.5l3.3-2.7.4-2.2,2.2.5,1.3-1.1-1.1-2.3-4.4-3.1,1.2-2.4.7-3.5-1-4.8-1.7-3.5.3-2.4-.9-2.2-.9-6.7-.6-8.2,1-7.3h0l3.3-1.1,3.6-3.6,5.9.5,2.4-.5,15.7-9.5h2.9Z"/>
    <path id="NG-KW" d="M47.5,213.4l11.2-.9,2.4.6,14.5,17.1,1.5,1.1,1.8.2-.3,8.7.6,2.5,6-.3.6.5.4,4.3,2.6,2.3,2.8.6,1.1,5.1,1.3.9,9.1-2.5,5.2,2.8,4.3,4.9,1.5.5,2.7-.8,6,1.4,7.9,4.9,5.1,4,4.5.6,7.3-.8,5.6,1.2h0l-1.7,2.3-1.6,5.2-.4,4.4-1.1,2.5-2,.3-4.2-1-6.6-.2-3.1-.8-4.7-2-2.7-2.9-2.4,1.5-2.5,2.7-3.1,4.9,3,4.6,4.9,3.4.6,1.6-.5,1h-3.9c0,0-2.8,1-2.8,1l-1.1,3.4-5.3-.2-2.3-2-3,.8-1.4-1.3h0l-.3-.4-3.5.6-1-2.1-1.5-.4-3.2,1.1-1.8-.3v.6c0,0-.3-.5-.3-.5l-2.4,1.1h-7.3c0,0-1.8-1.1-1.8-1.1l-2.1-6.1-2.3-1.5-2-2.9-1.4-5.6-4.5-7.8-1.4-4.6.7-3,1.4-1,.6-1.5,2.1-1.4,1.6-2.1v-.9c-.1,0-1-.5-1-.5l-1.9,1.2h-1.5c0,0-3.3-.6-3.3-.6l-5.5-2.2-3.3-3-.4-1.7-2.7-1.7h-1.4c0,0-2.6,1.5-2.6,1.5l-1.1,2.5-.3,2.5-3,2.3-17.5,9.3h-.6c0,.1-1.7-1.2-1.7-1.2l-1.7.2-5.8,4.2-2.8,3-5.9,1-2.1,1.9h0l.4-1.2-.9-3.9.5-1.9-.9-3,1.5-1.6-.3-2.2.5-.2.9-4.3-.7-1.6.4-2.4h3.6c0,.1,1.2-.8,1.2-.8l2.4-.4,1.3.9h1c0,0,3.3-1.2,3.3-1.2l1.5-3.8v-2.5c.1,0,1.4-1.3,1.4-1.3l-.9-7.6.8-1.3,1.7-.9,2.3-3.7.6-2.1,2.1-.2,1.4-1.2-1-3.8,1-1.7,4.5-1.8h3s1.4-1.4,1.4-1.4v-.9c0,0,1.7-1.7,1.7-1.7l.6-5,2-1.3.3-1Z"/>
    <path id="NG-LA" d="M7.9,366.3h3.1s1.3.6,1.3.6l2.3-1.6.3-1.2,11.6.2.7-.7.5-2.7,1.4-1.1v-1.6c0,0,1-1.7,1-1.7l3.5,1.1,1.4,1.5,3.1-.3-.3-1,1.1-.7,25.3.3,1.1.7-1.8,1.9.4,2.4,1.5.7,2.2-1.5,2.3-.3.8,1.6-2.6,1.6-.2,1.2,2.5,1,.8.9h4.7c0,.1,0,2.6,0,2.6h0l-16-2.5-5.8-.3-16.8.7-.7,1.3-7.7-.5-20.9,1.2.2-4.1Z"/>
    <path id="NG-NA" d="M212.3,247.8l1.4-.6.9,1.8,1.6-.3,1.6,1.2,2.8.5,1.6-1.4,1.7-3.1h1.4s2,1.8,2,1.8l.2,2.2,2.8,1.6.7,1.1v6.5s1.1,1.5,1.1,1.5l2.4-1.2,4.3-5.1,1.9,1,2.6.2,3.6,4,.4,1.3,2.7-.2,4.6-7.9.7-.4h0l1.1,1.1,3,.6.4,3,1.3,2.3,5,1h2.5l1.9-.9,2.1,1.9-.5,2-1.8,2.7-3.4,2.2-2.1,2.8-.2,1.5,2.1,3.6-.2,3.6,1,1.4,5.9,2.7h5.5c0-.1,6.6-2,6.6-2l7,2.9,1.7,1.4,1,1.8h0l-1.7,2.5-1.8.6-4.3-.8-1.8-1.3-2.1.6-1.4,3.4,2.5,2.6.5,5-8.4,5.8h0l-7.9-6v.5s-6-.1-6-.1l-11.4-3.5-3.5-.2-3.6,1.7-1.5,2.9v1.7c0,0,3.2,7.8,3.2,7.8l-.8,1.7-3.6-1.5-2.2-1.9-4.3-.6-9.2-4.3-11.9-2.5h0l-7.6-.8-4.8.5-8.3,2.3-6.2,2.7-2.9,2-.5-.4v-2.5c.1,0,1.8-2.6,1.8-2.6v-3.2s.8-3.2.8-3.2l-.4-4.2-2-2.9,1.4-4.1h0l7.5-1.2,5.1-1.5,4.7-2.4,2.5-3.1,2-3.6,1-5.4,1.3-3.5v-10c0,0,1.5-4.4,1.5-4.4l1.3-.9v-1.6Z"/>
    <path id="NG-NI" d="M49.3,171.3h2.5c0-.1,7.4,4,7.4,4l3.6,1.2,17.4-.9,3.5,1.1,5.7,3.8,3,.6.2,3.2-1.6,7.2-3.1,3-3.6,1.6-2.2,3.5v4.3c-.1,0,.6,1.6.6,1.6l2,1.8-.9,6.4,1,.7,2.9.3.7-4.3,5-1.7,2.3-.2,3-2.5-.3-2.7-3.3-5.3.3-7.4,1.6-.8,3.4.3,6.1-2.4.7-1v-1.4s-2.6-2-2.6-2l-.3-1,2.1-2.7-.8-4.4-1.7-.5-.7-1.4-3.6-.4-6.1-2.8-.7-1.9.9-1.4,6.2-2.8,5.3-1.2,6.6-1.1,4.4.5,1.1,1.1.7,4.4,3.1,2.5.3,7.1,1.1.8,7.2-.5,8.1-3.4,2.6-.3.9-1.5,2.3-1.9,2.2,1h0l4.8,7.4,1,3.3h0l-2,3.6-.3,3.2,1.1,2.6-.5,1.3.2,2.6-1.2,1.2-.2,1.6v.9c.1,0,2.2,1.3,2.2,1.3l.8,2.4,1,.4.9-.6,3.6-4.7,3.8-3,3.1-1.4h2c0,0,1.4,2.4,1.4,2.4l5.1-1.9,2.7.4.4-.7-.5-1.6.8-.8,3.2.3.7,1.6.2,3h3.5c0,0,1.3,2.5,1.3,2.5l-.9,4.5,5.4,2.3-.9,2.5-2.9,1.7-3.7,3.9.7,1.3,1.2,1.1,4.5,1.7h8.7c0,0,1.1,1.1,1.1,1.1l.8,8.1-.4,1-2.2.3-.8.7.9,1.1,2.4.9-.6,2,2,1.1.4,1.3-2.1,2.1-.4,1.9-2.2,1.5-.4,2.2,2.3,1.9-.9,2.8h2.5c0-.1-5.8,8.2-5.8,8.2l-.6.2-6.2-5.5-1.2-.4-9.5.8v30.4s1.3,3.3,1.3,3.3l2.2.2h0l-.8,2.2-2.4,1.2v2s-1.1-.4-1.1-.4l-1.3,3.6h-1.3c0,0-5.5-6.5-5.5-6.5l-4.3-3.4-1.7-5.6-1.9-2.9-2.4-2.2-3.3-1.4h0l-5.6-1.2-7.3.8-4.5-.6-5.1-4-7.9-4.9-6-1.4-2.7.8-1.5-.5-4.3-4.9-5.2-2.8-9.1,2.5-1.3-.9-1.1-5.1-2.8-.6-2.6-2.3-.4-4.3-.6-.5-6,.3-.6-2.5.3-8.7-1.8-.2-1.5-1.1-14.5-17.1-2.4-.6-11.2.9h0l.3-2-2.7-1.8-1.2-2.4,2.1-4.7v-1.1c0,0,2.2-1.7,2.2-1.7l4.1,2.1.8-4.1,1.9-4.3-.4-4.2-1.8-1.3-2-3.8.9-4.5-.8-3.4-1.4-.6.4-3.9-.6-.4Z"/>
    <path id="NG-OG" d="M6.2,306.9l4-2.9h2.3c0-.1,1.3.5,1.3.5l1.1,2.2v4.4c.1,0,1.4,3,1.4,3h.6c0,0,1-4.5,1-4.5l1.2-.3.6.4.3,3.3-1.2,4-.6.2.3,2.5,3.5,3.4.7,2,2.2,3,3.6,2.3h3.9c0-.1,1.9-2.8,1.9-2.8l.8-2.9,1.1-1,1.7.2,1.2,2.9,1.1.8,3.1-1.3h4.2c0,.1.8,1.4.8,1.4l.2,3.8,2.7,2,.9,5.2-2.7,2.7v.9s8-.5,8-.5l3.2-1.8,4-.6h0l2.8-1.5,1,.8.4,2.9h1.3s2.6-1.3,2.6-1.3l2.3.4,2,4.8,2.1-1.3,1.5.5,4.2-.8v.8h0l-1.2,5.9-5.4,4.3-2,3.3v2.3s1.4,1.3,1.4,1.3l4.5.5,2.1-2.2,1.2-.3.4.5.6,5.4-.5,1.2-1.6.4-1.3,1.2h-1.6c0,0-.9,1-.9,1h2.5c0,.1,2.2,1.3,2.2,1.3v.7c.1,0-.4,1.2-.4,1.2l-2.7-.2h0l-6.3-2.1h0v-2.4s-4.7-.1-4.7-.1l-.8-.9-2.5-1,.2-1.2,2.6-1.6-.8-1.6-2.3.3-2.2,1.5-1.5-.7-.4-2.4,1.8-1.9-1.1-.7-25.3-.3-1.1.7.3,1-3.1.3-1.4-1.5-3.5-1.1-.9,1.7v1.6c0,0-1.5,1.1-1.5,1.1l-.5,2.7-.7.7-11.6-.2-.3,1.2-2.3,1.6-1.3-.6h-3.1s.3-2.2.3-2.2l1.2-1.8-.9-2.5,2.3-2.7v-1.8c.1,0,0-.6,0-.6l-1.4-.2-.8-.8.8-5.6v-.7c-.1,0-1.4-.5-1.4-.5v-1.9c.1,0,3.1-2.3,3.1-2.3l-2-2.1,1.7-2.8-.4-3.1-1-1.1v-6.5c0,0,1.5,0,1.5,0l.6-.8-.3-2.4-1.8-1.4-.8-2.2v-8.9s-2.6-4.1-2.6-4.1l.4-.3Z"/>
    <path id="NG-ON" d="M136.7,312.8l3.1-.6,1.7.3-.5,2.8,4.7,5.1h0l-1.6,2.3-1.6.3-.9,1.2v1.5c.1,0,1.5.6,1.5.6l-.6,1.9.8,1.9-1,2.4-2.6,1.9-2.4,7.4-1.9,1.6-.4,3.1.9,1.4-.6.3v1.1s-1-.2-1-.2l-1.7,5.6-1.8.7-1.3-1.2h-.9c0,0-3,2.1-3,2.1l-1.4-3.7,1.4-1.5-1.2-1.4-11.9-.3-1.5.7-1.5,3.8-2.6,2.3-.8,4.7,1.8,2v2.1c.1,0-1.6,2.5-1.6,2.5l-.6,2.5-2.4,1-1.2,2.9,2.1,1.7,1.1,2,1.9.8.8,1.5-.3.8h0l-4.6,11.3h0l-9.4-10.2-11.8-9.2h0l2.7.2.6-1.2v-.7c-.1,0-2.4-1.2-2.4-1.2h-2.5c0-.1.9-1,.9-1h1.6c0,0,1.3-1.3,1.3-1.3l1.6-.4.5-1.2-.6-5.4-.4-.5-1.2.3-2.1,2.2-4.5-.5-1.4-1.3v-2.3s2-3.3,2-3.3l5.4-4.3,1.2-5.9h0l1.8-1,1.4-3.3,2.9-2.3h1.6s3.6,2.3,3.6,2.3h1.2s.5-3.3.5-3.3l-.3-2.7,1-4.4,4.5-1.5-.4-1.6h0l3.1-1h9.9c0,0,1,.4,1,.4l1,1.5,1.3,4.5,1.5.4,3.7-2.4,2-3,3.1-9.5,3.1-2.6.6-1.4,1.3-.3,1,.8,1.6-1.8Z"/>
    <path id="NG-OS" d="M84.4,301.2h7.3c0,0,2.4-1.1,2.4-1.1l.4.5v-.6c0,0,1.7.3,1.7.3l3.2-1.1,1.5.4,1,2.1,3.5-.6.3.4h0l-1,3.6-3.9,2.7-1.3,2.9.5,2.8-.8,2.7.5,3.2,3,7.8h0l.4,1.6-4.5,1.5-1,4.4.3,2.7-.5,3.4h-1.2s-3.6-2.3-3.6-2.3h-1.6s-2.9,2.3-2.9,2.3l-1.4,3.3-1.8,1h0v-.8s-4.2.8-4.2.8l-1.5-.5-2.1,1.3-2-4.8-2.3-.4-2.6,1.3h-1.3s-.4-2.9-.4-2.9l-1-.8-2.8,1.5h0l3-16.1-4.9-5.8,1.2-2.5.6-6.2,3.3.7,1.6-.5.6-2.2,2.6-2.6,2,1.2,2.4,3.7,1.4-.6,2.5-2.7,3.1-1,.9-1.8-.4-2.2Z"/>
    <path id="NG-OY" d="M9.2,280.3l2.1-1.9,5.9-1,2.8-3,5.8-4.2,1.7-.2,1.7,1.3h.6c0-.1,17.5-9.4,17.5-9.4l3-2.3.3-2.5,1.1-2.5,2.6-1.4h1.4c0,0,2.7,1.6,2.7,1.6l.4,1.7,3.3,3,5.5,2.2,3.3.6h1.5c0,0,1.9-1.3,1.9-1.3l.9.5v.9c.1,0-1.5,2.1-1.5,2.1l-2.1,1.4-.6,1.5-1.4,1-.7,3,1.4,4.6,4.5,7.8,1.4,5.6,2,2.9,2.3,1.5,2.1,6.1,1.8,1.1h0l.4,2.2-.9,1.8-3.1,1-2.5,2.7-1.4.6-2.4-3.7-2-1.2-2.6,2.6-.6,2.2-1.6.5-3.3-.7-.6,6.2-1.2,2.5,4.9,5.8-3,16.1h0l-4,.6-3.2,1.8-8,.5v-.9s2.6-2.7,2.6-2.7l-.9-5.2-2.7-2-.2-3.8-.8-1.3h-4.2c0-.1-3.1,1.2-3.1,1.2l-1.1-.8-1.2-2.9-1.7-.2-1.1,1-.8,2.9-1.9,2.7h-3.9c0,.1-3.6-2.2-3.6-2.2l-2.2-3-.7-2-3.5-3.4-.3-2.5.6-.2,1.2-4-.3-3.3-.6-.4-1.2.3-1,4.6h-.6c0,0-1.3-3.1-1.3-3.1v-4.4c-.1,0-1.2-2.2-1.2-2.2l-1.3-.6h-2.3c0,.1-4,3-4,3h0l2.1-7.1v-2.6s1-3.5,1-3.5l-1.6-2.1-.8-2.7.8-2.6-.3-1.4,1.2-.7.9-1.9.2-1.7-.5-.4Z"/>
    <path id="NG-PL" d="M260.6,204.7l3.2-.3,1.9.6,1.8,2.8.5,3.2v8.3s7.4-1.5,7.4-1.5l1.9,1.4.8,6.1-1.8,4.9,3.6,2,1.7,3.5,1,.9,7.9,1.5,6.8-.4,3-.9,1.9-3.5,3.2-.9.2-2.3-2.1-2.7.2-1,2-1.2,20.5,9.5,8.4,5h0l1,2.7.3,8.2,1.5,2.6.7,4.1-.4.9.6,5.2-1.2,2.1-8.2,3.9-7.7,1.3-1.7,1-1.4,2.8-3.2,3.8-4.8,2.5-5.2,5.1-4.6,1.5-5.4.2h0l-1-1.8-1.7-1.4-7-2.9-6.6,1.9h-5.5c0,.1-5.9-2.6-5.9-2.6l-1-1.4.2-3.6-2.1-3.6.2-1.5,2.1-2.8,3.4-2.2,1.8-2.7.5-2-2.1-1.9-1.9.9h-2.5l-5-1-1.3-2.3-.4-3-3-.6-1.1-1.1h0l1.1-2.7v-2.3c0,0-.8-1.4-.8-1.4l-2.9-2.9-2.3-4.3.7-.9v-3.2c-.1,0,1-.9,1-.9l.3-2.1,1.6-1.8v-8s1.8-2.1,1.8-2.1l-1.4-4.3v-1.8c.1,0,1.6-3.3,1.6-3.3l3.6-2.5.8-3.1Z"/>
    <path id="NG-SO" d="M192.5,447.7l-1,1.5-.4-.2v-1c.1,0,1.4-.3,1.4-.3ZM191.1,447.9l-.5,2.6-1.2-.3-.3.7h-1.9s-1.5-9.7-1.5-9.7l.8-.3,1.2,2.1,1.1.6-.4,2.6,1.9.5.8,1.4ZM193.2,446h-.6c0-.1-.9-.9-.9-.9l-.3-2.2-1.4-1,.6-.4,2,1.1,1,1.9-.3,1.5ZM199.9,448.7l-1.3,1-3.5-1.8.9-1.1,1.4,1.8h2.5ZM185.3,444.5l.3,3.4-.7-1.5-1.6-.9.2-.8.6-.5,1.2.4ZM196.3,445.8l-1.6-1.1-1.4-2.9h-.6s-.2-.2-.2-.2l-1.9-.5-.6-.7-.6-2.1.3-.5-.7-.8-.8,1,.4,1-3.6,2v-1c0,0-.5.5-.5.5l.9,3.1-1.2.4-2.4-4-1-.3.4-1-.5-1.5.9-.9-.4-.5-2.4-.9-.8,1.5-2.8-1.4-.3,1.2,1.2,1.1.6,4.2,2.2,2.2v.8s-1.3,1.4-1.3,1.4l1.6,6.7,1.6,1.7-5.1.7-1.5-.5-.6-6.3,1.3-2.5v-1.8c-.1,0-.6.1-.6.1h0l-3.1-1.7-.8-2.9-.9-1.3-6.4,1.5v-2.3s-2.5-1.5-2.5-1.5v-2.9s1.8-3.2,1.8-3.2v-.9s-1.4-.4-1.4-.4l.9-3,3-5.3,2.2-.2.5-1.7,1-.5-.2-1.2,1.7-1.7v-1.3s-1-1.4-1-1.4l-1.3-.6h-2.7c0,.1-.2-.9-.2-.9l2.4-1.2v-3.6c.1,0,2.6-3.1,2.6-3.1l.6-2.1-.6-2.6h0l.7.9h1.6c0,.1-1.9,8.9-1.9,8.9l3.4-.2,1.4.5v4.2s-.8,1.9-.8,1.9l2.6,4.1,1.5,1.1,6,.2,3.2.8,2.8-.7,4.5.7,1.7-.6h0l.8,1.2v1.9s-3.9,5.7-3.9,5.7l-.9,2.5.3,1.5,1,.9,1.2.2,2.9-.8h1.9c0,0,2.2.7,2.2.7l1.2-.3,3.6,2.1h0l1.7,3.9-.6,2.9.4,4.5h0l-.8.5-.7-1.1-1.2-.4-1.1,1.1h-1.3c0-.1-1-1.7-1-1.7l-.9.6-3.1-1.7-1.1,1.1.4,1.4.7.8,1.5-.3v1.2c-.1,0-2.3.5-2.3.5l-1.3-2.6ZM210.5,450.4l-6.8.7-3.7-.5.5-1.6,1.5-.7h-1.6c0-.1-.4-1.5-.4-1.5l-.8-.8h-1.2v-.5s.5-.6.5-.6l2.3.9h.7c0,0,.8-.2.8-.2l1.1,1.3h1.2c0,0,1.9-.8,1.9-.8l.8,1.3.9-.4.4,1.4h.8s0,0,0,0h0l1.3.5-.2,1.6ZM178,436.6l1.2-.6v-.8c0,0,2,1,2,1l-.6.8.5,1.5-.4,1,1.7,1.5,1.4,2.9-.8,1.6,2.1,1.2,1.2,4.9,1,.8-.8.9-1.6.2-4.3-.9-.5-1.7.4-.4-1.9-3.9v-1.4c0,0,1.2-1,1.2-1v-.9c-.1,0-2.5-1.9-2.5-1.9l-.7-4.2-.5-.9.8-.5,1.2.8ZM5.8,54.1"/>
    <path id="NG-TA" d="M334.6,240l3.1-1.8,3.9.5,7.1-3.3,7,.8h0l2.4.5,16.6-.7h0l4.7,8.1,4.5,1.6,3.5,6.6v4c0,0,1.7,2,1.7,2l2.8,1,1.5,3.8-.7,2.4-4,7.7v5.3s-4.2,3.5-4.2,3.5l-5.8,7.8-6,5.9-3.3,4.3,1.7,4.5,2,3.2,1.8,1.6,1.8-1.3,1.9-2.7,1.1-.3,2,1,4.6,4.7,2.1,3.1-.4,3.7,2,7.7.8.6h0l-3.3,3.7-1.3,3.3.3,4,1.4,4.5-.7.5h-4.6c0,.1-.1,1.2-.1,1.2l-2.2,1.8-1.3.3-.7,2.8-1.4.4-.9,1.8,1,.6v1.2c0,0,.8.7.8.7l-1.1,1.1.6,1.7-1.3.7v2.2c-.1,0-1.5,2.3-1.5,2.3l-1.2.5-1.2-.6-1.2.5v2.2c-.1,0-3.2.9-3.2.9v.9c-.1,0-3.1-1.5-3.1-1.5l-1.5.7-3.4-1.7-1.2,1h-1.4c0,0,.2-5.9.2-5.9l-1.4-1.5h-1.5c0,0-1.6,1.4-1.6,1.4l-3.2-.9-1.8-3.7-1.6-.6-.9-1.4,1-3.7-1.8-1.2h-1c0-.1-.4.4-.4.4l-1.1-1.4-2.2-1.2-.2-1-2.1-.4-1.2-1.1v-2.7c0,0-1-.9-1-.9l-1.4,9.2-1.9,1.6-1.1-.6-10.6,1-1.8-2.1.4-1.2-.7-2.7-.6-.2-7.6,6.9-3.9,4.4-4-1.1-1.2,3.8v2.1c0,0-1.9,5.8-1.9,5.8l-1.7.3-.7-.9-.3.3h0l1.3-5.5.2-6.6-.4-.5,1.4-7.7,2.2-4.1,5-4.5-.2-4,1.6-4,.2-4.1-.7-1.4-5.6-5.1-6.4-7.1-5-1.2-5.5-.3-5,.6-4.1,1.8-1.3-.4,2.6-4h0l8.4-5.8-.5-5-2.5-2.6,1.4-3.4,2.1-.6,1.8,1.3,4.3.8,1.8-.6,1.7-2.5h0l5.4-.2,4.6-1.5,5.2-5.1,4.8-2.5,3.2-3.8,1.4-2.8,1.7-1,7.7-1.3,8.2-3.9,1.2-2.1-.6-5.2.4-.9-.7-4.1-1.5-2.6-.3-8.2-1-2.7Z"/>
    <path id="NG-YO" d="M359.8,76.1h8.4c0,.1,6.4.9,6.4.9l7.2,2.8,7.9,1.7,9.2,6.5h1.1c0,0,.9-.6.9-.6l1.1.4.4-.3-.4-.8,2.1.7,1.1-.3,1,1.2.7-.4,3.7.8h0l-1.1,8.2.8,2.6,4.2,3.8.3,2.5-2.8,4.9-4.8,4.2-.4,1.5,1.2,2.6v3.9s-1.8,13.3-1.8,13.3l1.1,5-3.2,6.2.5,1.5h3.3c0-.1,2.1,2.4,2.1,2.4l.6,2.2-7.9,10.6-.6,1.9.4,6.8-1.4,2.1-4.1,2.5-7.5,2-1.8,1.3-1.6,3.8.2,5.6-2.3,3-2,.5h0l-4.8-.3-.5-4.3.8-8-.5-3.3-2.5-2.3-1.1.7.7-1-5.5-6.7-5.7-4.2-3.5-1.5h-2.7c0-.1-3.4,1.5-3.4,1.5h0l-2-.2-1.1-1,1.5-9.7-5.6-14.1-1.1-10.8-2.1-3.1-.4-6-.8-2-5.2-4.2h0l-1.8-9.7-1.5-2.3-1.2-.6-1.4.4-3.4-1.5-4.7,1.7-2.9-7.8-1.5-.8-8.3,2.7-3.6,1.7-1.4,2.7-2.1,1.2-4-.5-1.2-.8h0l13.4-14.4,8.8-4.4,10.8-.6,8.4-3.2,20.7-.8Z"/>
    <path id="NG-ZA" d="M179.6,88.1l3.7,4.4,5.7-.5h0l-1,7.3.6,8.2.9,6.7.9,2.2-.3,2.4,1.7,3.5,1,4.8-.7,3.5-1.2,2.4,4.4,3.1,1.1,2.3-1.3,1.1-2.2-.5-.4,2.2-3.3,2.7-.9-.6h-4.4c0,0-1,.7-1,.7l-1.8,8,1.4,2,.6,2.5-.9,5.7h-.7s-4,3.5-4,3.5l-2.6,6.9-2,2.1-1.6,1-3.2.4-5.3-.4-3.8.6-3.5,3.2-1.9,2.8-2,.6h0l-1-3.3-4.8-7.4h0l-1.1-8.8-1.3-2-3.6-1.8,1.4-5.2v-1.7s-.9-1.4-.9-1.4l-2.9-1.2-3.3-.4-2.5.9-2.6-.3-3.7.5-2.5-1.6h-1.9c0,0-1.9-2.7-1.9-2.7l-2.4.4-2.6-.5-.7.4-.6,1.6-4.3,1-2.8-1.5-1.8.3h0l.4-21.5.6-3,.6-.4,6.3,1.1,13-.6,1.7-1.1.5-2-1.4-7.9,3.3-2.5,3.9-5.8,10.8-1.2,3.6-1.8-.6-9.1,1.5-1.7,3.3-1h1.9l2.2.8.9-5h3.3c0,.1,4,2.4,4,2.4l6.4.9,6.8-4.4h0l2.7,4.2Z"/>
  </g>
</svg>