<svg xmlns="http://www.w3.org/2000/svg" xmlns:amcharts="http://amcharts.com/ammap" id="Layer_1" viewBox="0 0 512 512"><g id="_x3C_defs"><amcharts:ammap bottomLatitude="-2.84" leftLongitude="28.862" projection="mercator" rightLongitude="30.899" topLatitude="-1.047"/></g><g><path id="RW-01" d="m347.7 230.6-27.5-15.7-37.7 31.9 9 39.9 46.9.6 9.3-56.8Z"/><path id="RW-03" d="m303.3 118.7-36.4 21.7-24.8-37.5-68.1 19.6-23 23.3 45.5 22.2 6.6 35.6 79.3 43.3 37.7-31.9 27.5 15.7 2.6-35.2-47-76.7Z"/><path id="RW-02" d="m369.9 40-66.6 78.7 47 76.7-2.6 35.2-9.3 56.8-46.9-.6-15 62.6 39.3 25.7 64.2-31.5 35.1 23.7 58.2-4.5 21.1-13.4 10.6-59.9-22.3-37.6 8.3-82.3-22.9-46-44.7-21.7-20.5-61.7h-33Z"/><path id="RW-04" d="m203.1 203.6-6.6-35.6-45.5-22.2-25.1 4.7-47.5 69.4-3.6 97.8-67.7 54.1 19 65.5 19.4 8.8 4.2-24.6 19.8-6.4 48.1 23.5 12.4-19-21.7-37.8 16.5-39.2 65.6-28.7 12.7-110.2Z"/><path id="RW-05" d="m125.1 472 118.7-15.5 32.7-107.2 15-62.6-9-39.9-79.3-43.3-12.7 110.2-65.6 28.7-16.5 39.2 21.7 37.8-12.4 19 7.4 33.5Z"/></g></svg>