<?xml version="1.0" encoding="UTF-8"?>
<svg id="Layer_1" xmlns="http://www.w3.org/2000/svg" xmlns:amcharts="http://amcharts.com/ammap" version="1.1" viewBox="0 0 512 512">
  <!-- Generator: Adobe Illustrator 29.1.0, SVG Export Plug-In . SVG Version: 2.1.0 Build 142)  -->
  <g id="_x3C_defs">
    <amcharts:ammap bottomLatitude="-2.839938" leftLongitude="28.861754" projection="mercator" rightLongitude="30.899118" topLatitude="-1.047375"/>
  </g>
  <g>
    <path id="RW-01" d="M347.7,230.6l-27.5-15.7-37.7,31.9,9,39.9,46.9.6,9.3-56.8Z"/>
    <path id="RW-03" d="M303.3,118.7l-36.4,21.7-24.8-37.5-68.1,19.6-23,23.3,45.5,22.2,6.6,35.6,79.3,43.3,37.7-31.9,27.5,15.7,2.6-35.2-47-76.7Z"/>
    <path id="RW-02" d="M369.9,40l-66.6,78.7,47,76.7-2.6,35.2-9.3,56.8-46.9-.6-15,62.6,39.3,25.7,64.2-31.5,35.1,23.7,58.2-4.5,21.1-13.4,10.6-59.9-22.3-37.6,8.3-82.3-22.9-46-44.7-21.7-20.5-61.7h-33Z"/>
    <path id="RW-04" d="M203.1,203.6l-6.6-35.6-45.5-22.2-25.1,4.7-47.5,69.4-3.6,97.8L7.1,371.8l19,65.5,19.4,8.8,4.2-24.6,19.8-6.4,48.1,23.5,12.4-19-21.7-37.8,16.5-39.2,65.6-28.7,12.7-110.2Z"/>
    <path id="RW-05" d="M125.1,472l118.7-15.5,32.7-107.2,15-62.6-9-39.9-79.3-43.3-12.7,110.2-65.6,28.7-16.5,39.2,21.7,37.8-12.4,19,7.4,33.5Z"/>
  </g>
</svg>