<?xml version="1.0" encoding="UTF-8"?>
<svg id="Layer_1" xmlns="http://www.w3.org/2000/svg" xmlns:amcharts="http://amcharts.com/ammap" version="1.1" viewBox="0 0 512 512">
  <!-- Generator: Adobe Illustrator 29.1.0, SVG Export Plug-In . SVG Version: 2.1.0 Build 142)  -->
  <g id="_x3C_defs">
    <amcharts:ammap bottomLatitude="12.307237" leftLongitude="-17.531313" projection="mercator" rightLongitude="-11.341837" topLatitude="16.691273"/>
  </g>
  <g>
    <path id="SN-DK" d="M39.9,206.8l.4.4.3,3.9,1.5,3.5.6,3.5,1,.5.2,1v1c-.1,0-2.1,1-2.1,1l.3.9-.4,2,.9.8-.6,3.7.5,1.5-1.5.9h0l-1.1-2.4-2.8-3.3-5.6-3.9h-1.3c0-.1-6.3-2.5-6.3-2.5l-4.3.5-1.2,1.2v.8c.1,0,1,.1,1,.1v.5c0,0-.6.5-.6.5l.3,1-.6-.6-.3.2v.5s.9.5.9.5l-.9.8-.2,1.5-1.1-2.1-.9-.2v-.4c-.1,0-.9.4-.9.4v-.8c0,0-.6-.7-.6-.7l.3-.4-1.1-.7-.2-.7-1-.3-1-1.6-1.2-.2.3-1,.5.3.9-.6h1s1.1-.9,1.1-.9l.8.4,2.2-.4,7.9-3.1,14.5-7.2Z"/>
    <path id="SN-DB" d="M91,231.5l-.5-1.2-3.9.4-1.8-.5-1.8-2.5-1.6-.9.2-.8h-.5c0-.1,0-1.4,0-1.4l2.1-2.8.9-.4.5-1.5-.4-.8.7-2-4.2-3.5.4-1,1.5-1.3-.3-1.6-4.6-5.4.4-.5,3.2-2.3,8.6-2.3.4-.2v-.6c0,0,2.4-.1,2.4-.1l2-1.3,2.3-.7,6,.6.6-.8v.9s1.6.5,1.6.5l.9-.5.5,1.1,5.8,1.9.6.4v1.6s.9-.3.9-.3l1,.4,3.3-.9h0l4.4.4,3.1-.2,3-1.1,3.8,1.5,1.1-1.7h3.1c0,.1,1.2-1.2,1.2-1.2l.9-.3,1.4.3-.2.6,5-.7,1.1,1.4,3.1,1.4,2.3,4.1,1,.8h1.5c0-.1,1.2-.8,1.2-.8l2-2.7,1.2-.3,2.9,4-.4,1.4,3.3,1.2-.3.4,4.8,3,4.4-1.3,4.1,1.3v1.9c0,0,1.1.7,1.1.7h0l-2.3,4.2-.7,2.6-4,.9-3.4,2.8h-.7s-.7-1.8-.7-1.8l-.8-.7-.4,1.1h-.4s-1.7-.6-1.7-.6v-1.4c.1,0-1.2.5-1.2.5l-1.2-1,.2-1.3-3.6.8-.4,2.2-7.6-4.1-.9.5-.6,3.2.5,5.8-.9,2.7-3.6,3-3.5,1.1-2.8,1.6-4.7.3-1.7-.5-1.5-.6-.5-.8v-1.3c0,0-2.4.2-2.4.2l-.5.8h-2.5s-4.3-.8-4.3-.8l-.4-.6-.7.3-.9-.3-.2-.7-1,.2-2.4-1.2-.6.6h-6.1c0-.1-1.9-.8-1.9-.8l-1.3-.8-.2-.8-1.1-.3-1.4.7-.5-.3-2,.7h-2.6s-1.2.6-1.2.6l-1.3-.5-2.3.2Z"/>
    <path id="SN-FK" d="M91,231.5l2.3-.2,1.3.5,1.2-.6h2.6s2-.7,2-.7l.5.3,1.4-.7,1.1.3.2.8,1.3.8,1.9.7h6.1c0,.1.6-.5.6-.5l2.4,1.2,1-.2.2.7.9.3.7-.3.4.6,4.3.9h2.5s.5-.8.5-.8l2.3-.2v1.3c0,0,.6.8.6.8l1.5.6,1.7.5,4.7-.3,2.8-1.6,3.5-1.1,3.6-3,.9-2.7-.5-5.8.6-3.2.9-.5,7.6,4.1.4-2.2,3.6-.8-.2,1.3,1.2,1,1.3-.5v1.4c-.1,0,1.6.6,1.6.6h.4s.4-1.1.4-1.1l.8.7.7,1.7h0l.2,4,1.9,1.5-1.5.9-.3-.4-5.4,4.4v2.1c0,0-.5.5-.5.5l-3-.6-.2.7.6.8-.5.2h0l-1.4-.9-2.6.4-1,3.3-.6.8-2.6.5-1.9,5.5h-.5c0,0-6.9,0-6.9,0v-5.3s-.3-.5-.3-.5h-1.1c0-.1-1,1.3-1,1.3l-1.7-1.5-1.1-.3-1.4,1.2-.8,1.6-1.3.2v1.4c0,0-1.2,1.2-1.2,1.2v.7c.1,0-.3.4-.3.4l-2.3.6-3.1-.9-2.8,1.4h-3.8s-1.4,1.3-1.4,1.3l-.4,1.7-4-.4-1.2,2.5-1.4-.4-3.4,2.7-1.7-.2-1.1,2.2.2.4-.8.3.7.4v.5c0,0-.6.3-.6.3l-.5-.4v2.3c.1,0,1.3.8,1.3.8l-1,.6.6.8-.8-.4-.7,1.2h-.6s.4.6.4.6l3.7-.6,2.4.2,3.1,1.7,2.5,2.1.3,4.3-2.6,2.1-1.1,2.5.9.8,2.3-.4,1.3.4-.3,1.3h1.2c0,.1,0,1.4,0,1.4l.6.8.4,4.4-2.3,4.5h-1.9c0,0,.7.9.7.9l-.5,2.8,1.6.9,3.8,3.8.4-.4.6.2.7,5.7,1.4,1.8v.7c0,0,1,.1,1,.1l-.2,1-1.1.6v.5c0,0,1,.5,1,.5l-.9,1.2h-28.3c0,.1-3.8,0-3.8,0l-.4-.7-.7.4-.6-1.3-1.4-1.1v-.5c.1,0-.6-.9-.6-.9l-1.6-.6-2.1-2.8.4-3.5-1.3-2.1-2.6-2.3h-.9c0,0-.6-1.1-.6-1.1l-1.2-.7-2.3-.6-.4-.5-.5,1-.3-5,.3-2.2.3-2.8-.7-.2-.2-.5-.8-9.4h0l.7-1h.9s0-1.8,0-1.8l-1.1-1.2v-.5c0,0-1.7-1.2-1.7-1.2l-.2-.8.5-.8h2.5c0-.1-.8-1.7-.8-1.7l3.1-2.7v-1.1s-1.7-1.3-1.7-1.3v-1.7c0,0,1.7-1.1,1.7-1.1l-.9-.5,2-3v-4.1c-.1,0,.9-5.6.9-5.6l.5-.6h4.4s1.4-1.6,1.4-1.6l1.8-.7,3.5-2.9,1.2-2.1,1.4-5.9Z"/>
    <path id="SN-KE" d="M360.9,390.2l-1.9-1.4-.5-.7v-.9s2.3-1.5,2.3-1.5l2.9-.7-1.2-1.5-.9-3.6v-1.1s1.2-1.3,1.2-1.3l-1-1.1,1-.7-.5-.8h-1.5s-2.1-.7-2.1-.7l-.2-.7.7-1-2-1,.2-1.5-1.1-.8h2.2s.9-1,.9-1l-.2-1.3-.9-.6-.7-1.8-1.1-1.1-.8.5-1.8-3.4-2-.6v-.5c.1,0,.7.1.7.1l2-1.4-.2-1.5h1.1s.7-.7.7-.7v.5s.4,0,.4,0l.9-1,.7.8-.4.3,1.3-.4.6.4.7-.5,3.9,2.2.6-.3,1.9-2.7.6.6h1.6c0,.1.2-.9.2-.9h1.5c0-.1,1-1,1-1l.5.5.9-.2.5.6,1.1-1,.8.7,1.1-.5-.4,1.1,1.6.7.2,1.2.9-.9,1.7,1.3.2,1,.6-.3.6.5-.2.6,1.3.6.9-.7.7,1.4,1.2.2.2-.5-.7-.6v-.6c0,0,1.2.1,1.2.1l-.6-1.1h1.1c0-.1,0-.7,0-.7h1.8c0,.1,0-1.2,0-1.2h1.3c0,0-.3-.9-.3-.9l.3-.9.7.3.5-.6,1.6.5.6-.4-.2-1.1h1.4c0-.1.4-1,.4-1l.9-.3v-1c-.1,0,1-.7,1-.7v-.8c0,0,.5,0,.5,0l-.7-.9.4-.6-.3-1.6,2.8-.6.8-1.2,2,.4.8-.5.2-1,.7.2.2.7,1-.3,1.1,1.3,1.4-.3.4.3.6-.4.6.3.5-.8h1.8c0-.1,1.1-3.1,1.1-3.1l1.1-.6v-.8c0,0,1.7-1.5,1.7-1.5l1.2-.3.6-1,1,.2,2.1-.8,2.1,1.4,1.2,1.4.9-.5v-1.1s1-1.2,1-1.2l.3-2,4.1.5,2-.9.7-1.6-3-4.3-.2-1.5.9-1v-2.5c0,0,.7-.4.7-.4l7.7,3.8.8,1.6.9.2,1.4,1.3,2.6.5,1.5,1,2.1-1.1-.3,1.6.3.8-.6,1.2.4,1.2,1.1.2.9-1.2,1.5-.4,2.4-2.9h1.3c0,.1,4.1-1.5,4.1-1.5h0l1.3.2.7,1.3,1.4,1,.6,1.5.8.4-.3,1.5h2.2s.9-2,.9-2l1.9-.6.5-2.1,1.3-1.6v-1.7c-.1,0,.6-.5.6-.5h2.8c0,.1.8,1,.8,1v1s2.1,0,2.1,0l1.6-.5,1.6.2v1.2c0,0-.9,1.1-.9,1.1l1.6.3,1.6-.4.2,2.5.6,1.1-.2.9,1.1.4.7,1,1.5.2.5.7-.2.6,1.6,1.2-1.5,2.4v1.5c-.1,0,.4.9.4.9h2.2c0,0,.7.6.7.6l-.3,1.6-1.2,1.1.2.8,1.1.3.5,1.9,1.1.6.4,1.1h2.6c0,.1,1.4,1.5,1.4,1.5l-.8,2,1.9,1.6-.3,1.3,1.5.8v.6s-1.5.3-1.5.3l.7,1.3-.2.6,1.7.5.2-2.1,1.5.2.8.9v1.7c0,0,.8,1.6.8,1.6l-.3.7-.8.3-2.4.6-.3-.6-.3.2v1.1c-.1,0,.9.3.9.3v.6s-1,1-1,1l-.2.9.7,1.5-1.2,1,.6.6v.9c0,0,1.6-.3,1.6-.3l-.5,1.4.6,1v1.7c-.1,0-1.3.5-1.3.5l1.6,1.6-.5.8,1.1.2.4.9-4.8.3v2.4s-.6.3-.6.3l-.4-.6v1.6s-.8.7-.8.7l.3.7h1.7c0,0,.8,1,.8,1l.5,2.1-1.2,1.3,1.5,1.6-.4,1.3-.9.8h-1.7c0-.1-.4,1.2-.4,1.2l1.3-.2.4,1.8.8.2.4-1.4,1.9.3-.3,1.1,1,.5-.3,2.1.5.6-.2-.8.6-1.3.9.3.2.6v1.2c.1,0-.2-.2-.2-.2l-.3.5.7.5v.9c.1,0-.5,0-.5,0l-.4.8h-.8s.7,1.5.7,1.5l-.3,1.3h-2.5c0,0-1.7-1.4-1.7-1.4l-3.6-.5-.7-.6h-1.9c0,.1-7.3.9-7.3.9l-2.2.9-1.1-.5-2.2.5-3.1,2.2h-1.3s-1.1.9-1.1.9l-3.1.4-.6-.8h-1.6c0-.1-.6-.8-.6-.8l-.7.5-1.6-.4-1.3.6-1.3-1.8-2.1-.7-.6-1.8-5,3.1-3.9.6-2.4-2-1.7-.5-4.1,1.4-1.5,2.3-1.4.3-2.3,1.9-3.6.2-1.2.7-.7-.3-8.7,3.7-.7-2.3-.7-.4-1.4-2.8-1.1-.8h-2c0,0-1.5-1.2-1.5-1.2l-3.5-.7-1.6.2-2.2,2.2-1.9.8-1.4-1.7v-1.6s-1.3.3-1.3.3l-2.2-2.5-1.5-.3-1.8.4-1.7-.5-6.1.3.8-2.6-.9-.6-.5.3-1.6-1-1.7.6-2.4-1.4.6-1.8-3.3-1.1-.5-.9.3-.7-.9-.3-4.2,1.4-.3.6.5.5.2,1.2-.5,2.6h-1.4c0,0-.6.7-.6.7l-1.7-.4-.6-.7-4.7-.3-.5-.7.2-2-.4-1.4,1.1-1v-1.3c0,0,.9-1.1.9-1.1v-2c-.1,0-.7-.9-.7-.9l.2-.9-1.2-.8v-.8c.1,0-.9,0-.9,0l-.2.6-1.2.8-1.2-.8h-.7s0-.5,0-.5l-.6.2Z"/>
    <path id="SN-KA" d="M178.1,215.1l1.3-.2,2.4,1.9,4.2,5.6,1.8,1.8,3.9,2.3,18.2,3.4.5-2,8.5-5.5,3.2,3.8h1.5s2.3,2.6,2.3,2.6l1.3.4,4.6,2.9h1.9s.8-.8.8-.8l1.4-.2h3.6c0,0,.5,1.1.5,1.1l1.7-.5,1.9.7v.3h0l-.5,1h-1.7c0,.1-.3,10.2-.3,10.2l-.4.6-.6,10.5,3.6,3.7.9,9.3-.6,3.7.8.6-.9,1.2.7,5.5-2.3,1.6,2,.2-1.4,3.8-7,4.4-2.2,5.4-6.5.7-2.7,3.4h0l-5-2.2-3.8-.4-2.4.4-6.8-2.5-4.7,1.6-7.4,4.6h-1.9s-2.6-2.2-2.6-2.2l-3.5-.7-4,1-3,2.1h0v-.5s-1.2-.1-1.2-.1l-.9-1.9v-.4c-.1,0,.5,0,.5,0v-1.2s-4.8-.2-4.8-.2l-.5-.6-.5.9h-1.4s-1.6-.8-1.6-.8v-.8c0,0-.9.2-.9.2l-2.8-1.2-.9.6-2.4,3.6-1.3.3-1.4-1.3-.7-1.6h-.6s-2.5-2-2.5-2l.8-1.3-1.2-1.1,1.3-1.1.9-1.9-2.1-4.3-1.1-.5-1.2.5-2.3-1.7-1.6-.4.4-2.2-.5-3.4-1.8-.4-2.6-1.9v-.5s-.9-.1-.9-.1l-.4-1.7.8-.8-.3-1,.3-3.7,2.4-5.5,4-.5.9-3.4,5.2.2.5-5.2-.9-5.9.7-4.1.7-.2.6-1.3h0l.5-.2-.6-.7.2-.7,3,.6.6-.5v-2.1c0,0,5.3-4.4,5.3-4.4l.3.4,1.5-.9-1.9-1.5-.2-4h.7s3.4-2.8,3.4-2.8l4-.9.7-2.6,2.3-4.2Z"/>
    <path id="SN-KL" d="M158.1,239.5l-.6,1.3-.7.2-.7,4.1.9,5.9-.5,5.2-5.2-.2-.9,3.4-4,.5-2.4,5.5-.3,3.7.3,1-.8.8.4,1.7h.9c0,.1,0,.6,0,.6l2.6,1.9,1.8.4.5,3.4-.4,2.2,1.6.4,2.3,1.7,1.2-.5,1.1.5,2.1,4.3-.9,1.9-1.3,1.1,1.2,1.1-.8,1.3,2.5,2h.6s.7,1.7.7,1.7l1.4,1.3,1.3-.3,2.4-3.6.9-.6,2.8,1.2.8-.2v.8c0,0,1.7.8,1.7.8h1.4s.5-.9.5-.9l.5.6,4.8.2v1.2s-.6,0-.6,0v.4c.1,0,1,1.9,1,1.9h1.2c0,.1,0,.6,0,.6h0v.6s-.8-.1-.8-.1l-1,1.1-1.7,2.9-2,8.3h-53.1c0,0,.9-1.3.9-1.3l-.9-.5v-.5c0,0,1.1-.6,1.1-.6l.2-1h-1c0-.1,0-.9,0-.9l-1.4-1.8-.7-5.7-.6-.2-.4.4-3.8-3.8-1.6-.9.5-2.8-.7-.8h1.9c0,0,2.3-4.6,2.3-4.6l-.4-4.4-.6-.8v-1.3c0,0-1.1-.1-1.1-.1l.3-1.3-1.3-.4-2.3.4-.9-.8,1.1-2.5,2.6-2.1-.3-4.3-2.5-2.1-3.1-1.7-2.4-.2-3.7.6-.4-.6h.6s.7-1.2.7-1.2l.8.4-.6-.8,1-.6-1.2-.8v-2.3c-.1,0,.4.4.4.4l.6-.3v-.5c0,0-.6-.4-.6-.4l.8-.3-.2-.4,1.1-2.2,1.7.2,3.4-2.7,1.4.4,1.2-2.5,4,.4.4-1.7,1.4-1.3h3.8s2.8-1.3,2.8-1.3l3.1.9,2.3-.6.4-.4v-.7c-.1,0,1-1.2,1-1.2v-1.4c0,0,1.4-.2,1.4-.2l.8-1.6,1.4-1.2,1.1.3,1.7,1.5,1-1.4h1.1c0,.1.3.7.3.7v5.3s6.9.2,6.9.2h.5c0,0,1.9-5.6,1.9-5.6l2.6-.5.6-.8,1-3.3,2.6-.4,1.4.9Z"/>
    <path id="SN-KD" d="M222.2,324.8h1.3s1.7,1.4,1.7,1.4l2.2,1h3.5c0-.1.9,1.7.9,1.7l1.5,1.7,5.6,2.7h3.3c0,.1,4.5-1.8,4.5-1.8l3,4,1.3.6,3.7.5,1.8,2.4,1.3,1,1.8,1.2,3.2,1.2,7.6-.8.6,1.1,1.6.9,1.9-.2,1.8-.7,2.7.8,1.8-.5,1-1.2.4-2.4-.6-.7.6-.5.9-.3.5.5,1.2-.2.6-.9h.8s0,.5,0,.5l2,.3v-.6s2.8-.2,2.8-.2l4.2-2.4,4.5.5,2.3-.4,3.3-2.1,1.9-3.1.6-4.4-1.9-1.7-1.6-3-1.9-1.2h0l2.2.5v-1.5s.8-1.9.8-1.9l2.7.2.2.6-.8,1.2v1.5c0,0-.9,1.9-.9,1.9l.3,1.1h.7c0,.1,1.8-1.5,1.8-1.5l2.5.6,1.9,1-.5,1-2.7,1.7v.8s.6.6.6.6v1.2c0,0-1.9,2-1.9,2l2.3.3,4-.9h1.6c0,.1,0,.9,0,.9l-2.4,2.4.3.7,2.9-.6-2,4.1.9,1,2.2-.3.8.7-.5,2.1,1.3.3.9-.5.7.8.3.9-.4-.2v.7c-.1,0,.6,0,.6,0l.4.7-.3,1-.2-.5-.9.4.9.4-1.1,1.9.9.5-.5.3.8.8-.3.3-.5-.4-.2.6.6.3-.7.2v.5c0,0,1.8.4,1.8.4h-.4c0,.1-.1,1.1-.1,1.1l.8.8.4-.3v1.9c0,0,.7-.8.7-.8h.6c0,.1-.5.2-.5.2l.3.5-.5.6.3,1.1h1c0,0-.1-.8-.1-.8l.5-.2.8.7-.8.7v.5c0,0,.8-.3.8-.3l.6.7-.4.6.8.6.3-.4v.5c0,0,1-.4,1-.4v.9c0,0-.8.3-.8.3l.4.3h-.5c0,0-.2,1.1-.2,1.1l.5.3,1-.9.9.8-.3.8-.8.4.7.8v.6c0,0,.8-.1.8-.1v.5s-1,.2-1,.2l-.6.8.5.8h.9s.1-.4.1-.4l.4.6-.5.9h-.6c0,0,.5,1.7.5,1.7h.8c0,.1,1.1,1.1,1.1,1.1h1.2s-.4,1.1-.4,1.1l.4.4-.9.3,1.6,1.3.2.7-.5.4-1.2-.6-.6.3.8.4.2.8-1.1.7.3,1.6h1.1c0,0,.2.5.2.5l-.8,1.4.8-.3.3,1.2-.3.6.4,1h-.6c0-.1-.3.4-.3.4l.9,1.4-.4.5-.8-.2.6.4.2.9-.6.9,1.4-1,.9.4-.4.6.8-.2-.4.6.9.2v.8c-.1,0,.5.4.5.4l1.1-.6,1.4.3.2-.6,1.3-.9,1.5.4h0l-.6,2.6-11.2-1.3-57.9-.3-.2.3-18.6-.5-21.2.3-30.8-.6h0l-1.4-.9-1.3-3.4,1.5-2.6v-1.1c0,0,.7-.5.7-.5v-1c.1,0,1-1,1-1l.3-6.8-3.4-3.7-.9-2.1.8-2.2-.3-1.6-5.2-2.8-1.6-2.5v-4.3c-.1,0-.6-1.5-.6-1.5h-1.3c0-.1-.2-2.6-.2-2.6l-1.7-.6h-2.5c0,0,0-.6,0-.6l-2.1-1.8-.3-3.7,1.3-2.2.2-5.2h0l3.2-.6,5.4-4.2,1-2.2,1.6-6.7,4.2-3.5.2-.8,4-1.4,1.8,3.6,4.3,4.3,6.8,3.6,2.2.8,2.4.2Z"/>
    <path id="SN-LG" d="M81.4,150.1l-6.8,10.3h0l2.3,1.4.6,1.7-2.4,3.5-1.9,6.4,2.3,1.1,1,1.4,5.2,3.9.3,1.5.9.3.5,1.1v2.6c0,0-.6.9-.6.9l1.6-1.1,2.4-2.9,3.1-6,1.4-.6v-1c-.1,0,1-1.8,1-1.8l4-4.2,3.4,2.9,4.7.3,1.2,2-.9,1.8,1,1.3,1.5.7.6-1.7.9-.3.8.3,1,1.3.4,4.3,2.4,3.8v2.4c0,0,3.2,2.6,3.2,2.6l.2,3.9,1.3,3.2v3.5h.1l4.4.4,3.1-.2,3-1.1,3.8,1.5,1.1-1.7h3.1c0,.1,1.2-1.2,1.2-1.2l.9-.3,1.4.3-.2.6,5-.7,1.1,1.4,3.1,1.4,2.3,4.1,1,.8h1.5c0-.1,1.2-.8,1.2-.8l2-2.7,1.2-.3,2.9,4-.4,1.4,3.3,1.2-.3.4,4.8,3,4.4-1.3,4.1,1.3v1.9c0,0,1.1.7,1.1.7h0l1.3-.2,2.4,1.9,4.2,5.6,1.8,1.8,3.9,2.3,18.2,3.4.5-2,8.5-5.5,3.2,3.8h1.5s2.1-2.6,2.1-2.6l1.5-5.9,2.7-1.9.3-5.7-1-10.3-2.2-5.8-.6-5.1.5-.6,5.4-1.2.4-.6,9.6-.3,3.9-5.2,1.6-.7,1.5-5.3v-3c0,0,3-4.4,3-4.4h-3.3c0,0-6.3,1.3-6.3,1.3l-10.1-5.3-2.6-.7-.8-.7-.2-1v-.7s1.3,0,1.3,0l2.8-3.4-.7-2v-2.6s-1.2-.4-1.2-.4l3.4-9.4,1.8-1.4,2.1-.8-.4-3.7,10.7-7.2h0l-4.9-8.3-1.2,1-3.2-.5.3-2.4-.7-1.5-2.3,2.5-4.7,2.5-1.5,1.6-4.1,1.9-2.1-3.6-1.9-1.1-5.6-5.9-2.9,1.9-10.3.9-2.4,1.7h-.9c0,0-4.2-1.4-4.2-1.4l-1.7-3.7-2-1.6-3.3-1.8-2.8,1.3-2.5.2-1.9-2-1,1.7v1.5c0,0,.5,1.5.5,1.5h-1.9s-2.1,1.2-2.1,1.2l1.3,3.6-.2,2.5-2.5-.8-4.2,1.7-3.4-.3,1.1-2.6-1.2-1.7-6-3.1-8.9-8.2-7-7.8-3.7,2.3-3.8,3.4-.7,1.2-14,6.6-2.9.9-2.2,3.7-6.8,4.9-1.5,2.7-.2-.3-1.3,1.4-2.2.8-.7,1.3h-.6c0,0-.5-.7-.5-.7l-2.7.7-7-.3-2.3.8-2.5,1.8-1,.2-.4.8h0l-.8,3.4-7.2,13.6Z"/>
    <path id="SN-MT" d="M332.4,105.6l-1.4.4-1.2,1.3v1.2c.1,0,1.2,1,1.2,1h1.1c0-.1.7-1.5.7-1.5l1.2-.8,1.2,2.1,5.5,2.5-.2,3.3,1,1.3.3,2.9,1.5,2.1,2.3,1-1.3,2.8,2.3,1.7.2,4.2,2.5,2.3-.2.6-.9-.5h-.6c0,.1-.3,1.9-.3,1.9l6.7,5.8-.9,1.7-2.1-.3-.5.5v1.3s1.9,3.5,1.9,3.5l1.1.2,1.1-1.2h1.1c0-.1,7.9,3.5,7.9,3.5l-.6.7.6,1.7-1.5,3.7.4.9,4.2,1.4,2.2-.2,1.6-1.2,2.9-.4.2,4.4,2.9.4-1.7,2v4.1c-.1,0,.3.9.3.9l1.6,1.4,2.7.3,2.8,1.5,1.5,2.4v1.3s-1.1,1.5-1.1,1.5l-2.1-1.2h-1.2s-.6.6-.6.6l.2,1.1,2.6,1.8,1.1,2.1h.9s1.3-1.1,1.3-1.1h1.2c0-.1.9.3.9.3l.8,1.4-.6,2.2.3,1.2,2.7,1.2,2.3,2.2,2.2.9.4,1h.5c0,0,2.9,4.1,2.9,4.1h.3s1.7,2.9,1.7,2.9l.3,1.4.6.4-.4.6.2.6,1.6,1.7-.7,1.1,1.2,2.9-5,15.5-5.4,7.4-6,2.7-12.4,1.8-6.8-1.8-16.5-2.5-8.5,6.2-12.1,9.8-.8.4-8.3.3-13.3-.3-7.8-12.4-6.2-1.1-9.3,1-3.2,3.9-6.1-2.1-2.1-.3.2-.4-4.7-2.7-7-1.3-1.9-1.9-7.7,3.2-1.1.6-.8,1.2-3,.2-1.9-1.1h-2.1s0-.3,0-.3l-1.9-.7-1.7.5-.5-1.1h-3.6c0,0-1.4.2-1.4.2l-.8.8h-1.9s-4.6-2.9-4.6-2.9l-1.3-.4-2.3-2.6h0l2.1-2.6,1.5-5.9,2.7-1.9.3-5.7-1-10.3-2.2-5.8-.6-5.1.5-.6,5.4-1.2.4-.6,9.6-.3,3.9-5.2,1.6-.7,1.5-5.3v-3c0,0,3-4.4,3-4.4h-3.3c0,0-6.3,1.3-6.3,1.3l-10.1-5.3-2.6-.7-.8-.7-.2-1v-.7s1.3,0,1.3,0l2.8-3.4-.7-2v-2.6s-1.2-.4-1.2-.4l3.4-9.4,1.8-1.4,2.1-.8-.4-3.7,10.7-7.2h0l3,4-.6,2.2.7,3.4-.3,1.5,2.4,1.2,1.1,1.6.2,1.1h3.6s.7.7.7.7l-1.4,5.2h-2.1s.3,6.2.3,6.2l-.3,4.5,3.5,4.2-.5,1.3.3.5,3.6-.9h8.1s4.5-2.5,4.5-2.5l1.3-3.2-.3-1h-1.3s0-1.1,0-1.1l-1.1-1.1v-1.3c.1,0,3.2-.6,3.2-.6l-.5-3.1,12.5.5,2.2-9.4,3.2-19.4,1.9-.7,3.7-3.8.9-.3,2-2.7.6-1.5,8.2-3.2,1.9-7.4h0l1.2,2,1.9,1.4,1.4-1.2h2.4c0,.1,5.1-2.1,5.1-2.1l3.5.8,2.7-1.9,1,1.1-.6.5Z"/>
    <path id="SN-SE" d="M173,329.1l3,1.4,5.5,1.7,3.5-.4h0l-.2,5.2-1.3,2.2.3,3.7,2.1,1.8v.7s2.4,0,2.4,0l1.7.6.2,2.5h1.3c0,.1.5,1.6.5,1.6v4.3c.1,0,1.8,2.5,1.8,2.5l5.2,2.8.3,1.6-.8,2.2.9,2.1,3.4,3.7-.3,6.8-.8,1v1c-.1,0-.9.5-.9.5v1.1c0,0-1.4,2.6-1.4,2.6l1.3,3.4,1.4.9h0l-.9.4-3.3-.3-4.9,2-2.7,1.7-5.2,2-2.5,2.8-5.3,3.6-19.7,8.8-16.5-2.1h0l-.4-1.3-1-.4-1.3.6-.3-.7v-.6c-.1,0,.5-.4.5-.4l-.2-2-.6-.9-1.8-1v-1.8c-.1,0-1.1-1.4-1.1-1.4l.6-1.7-.7-2.5-2.2-2.3h-1.8c0,0-.4-2.2-.4-2.2l.8-2.8-.6-.8-.3-1.6,2.1-1.4.5-2.1-.9-1.5v-1.2c0,0,1.8-1.5,1.8-1.5l.5-1.2-.5-1.5.5-1.2-.9-.2.3-.6-.4-.9-.9-.3.7-.8.4-1.8,1.2-.7.5-1.7,1.2-.5.9-1.3,1-3.5,1.7-2.3v-1.7c0,0-2.2-.3-2.2-.3l-.6-1.3,1.1-1.6,2-1.2.2-1.7h0v-1.1c0,0,7.2,0,7.2,0v-13.5s6-.3,6-.3l3.7-1.5,7.6,1.7,2.2-.8,2.9-2.7h2.6Z"/>
    <path id="SN-SL" d="M9.5-221"/>
    <path id="SN-TC" d="M224.8,298.6l2.7-3.4,6.5-.7,2.2-5.4,7-4.4,1.4-3.8-2-.2,2.3-1.6-.7-5.5.9-1.2-.8-.6.6-3.7-.9-9.3-3.6-3.7.6-10.5.4-.6.3-10.1h1.7c0-.1.5-1.2.5-1.2h2.1s1.9,1.1,1.9,1.1l3-.2.8-1.2,1.1-.6,7.7-3.2,1.9,1.9,7,1.3,4.7,2.7-.2.4,2.1.3,6.1,2.1,3.2-3.9,9.3-1,6.2,1.1,7.8,12.4,13.3.3,8.3-.3.8-.4,12.1-9.8,8.5-6.2,16.5,2.5,6.8,1.8,12.4-1.8,6-2.7,5.4-7.4,5-15.5-1.2-2.9.7-1.1-1.6-1.7-.2-.6.4-.6-.6-.4-.3-1.4-1.7-3h-.3s-2.9-4-2.9-4h0l.5-1.6,1.7-.2,4.2,2,4.5,4.3,4.7,1.4,2.4,2.6,1,5.6-.3,1.7,4.5,4,3.4,1.3,2.2.3,3.6,4.2,3.1.7.6,2.1,1.8.6.3,1-.5,1.1.5.5,3.9,1-1.4,1.8,2.5,1-.2,2.4-.4.5-1.4.2v2.3c0,0-1.2,1.6-1.2,1.6v1c0,0-1.8,0-1.8,0l-.7.7.3,1.8-.6,2.8,1.7,1.1-.6,1.8,1.3,1.3-1,1.5v1.4s1.6.8,1.6.8l.9-.3,1.2,1.3h2c0-.1.4-.8.4-.8l-.3,1.1.4.8.6.3,1.1-.7.7.7v1s-.7.5-.7.5l1.1,1-.4.4-.9-.4-.2.3,1.4.6-.9,1.2,1.7.4.6.7,1.1-.2,1.5.8h.9c0,0,0,.3,0,.3h.5c0-.1.5.4.5.4l1.9,5.4.8.7v1.1s1.1.8,1.1.8l-.2,3-.9,1.9.4,2.9-1.1.3.2,1.7-1.1,1.1v1.4c0,0-.5.4-.5.4l.8,1.7-.2,1,5.3-.2.7,6-1.2,5.6-.3,3.9-2,1.2-.5,1.2-2.2,2.4-4,2-.5.6-.6-.2,2.7,4.7.2,3.2,3,2.6.2,2,1.2.6,1.1,2.1,1.4,1,1.9.6.6,1.1,1.9,1,.5,1,1.7,1.1.3,1.9-1.1,1.4-.7,3.1h0l-4.1,1.6h-1.3c0-.1-2.4,2.7-2.4,2.7l-1.5.4-.9,1.2-1.1-.2-.4-1.2.6-1.2-.3-.8.3-1.6-2.1,1.1-1.5-1-2.6-.5-1.4-1.3-.9-.2-.8-1.6-7.7-3.8-.7.4v2.5c0,0-1,1-1,1l.2,1.5,3,4.3-.7,1.6-2,.9-4.1-.5-.3,2-1,1.2v1.1s-.9.5-.9.5l-1.2-1.4-2.1-1.4-2.1.8-1-.2-.6,1-1.2.3-1.8,1.5v.8c0,0-1,.6-1,.6l-1.1,2.9h-1.8c0,.1-.5,1-.5,1l-.6-.3-.6.4-.4-.3-1.4.3-1.1-1.3-1,.3-.2-.7-.7-.2-.2,1-.8.5-2-.4-.8,1.2-2.8.6.3,1.6-.4.6.7.9h-.6c0,0,0,.7,0,.7l-1.1.7v1c.1,0-.8.3-.8.3l-.4.8h-1.4c0,.1.2,1.2.2,1.2l-.6.4-1.6-.5-.5.6-.7-.3-.3.9.3.9h-1.3c0,0,0,1.4,0,1.4h-1.8c0-.1,0,.5,0,.5h-1.1c0,.1.6,1.2.6,1.2h-1.1c0-.1,0,.5,0,.5l.7.6-.2.5-1.2-.2-.7-1.4-.9.7-1.3-.6.2-.6-.6-.5-.6.3-.2-1-1.7-1.3-.9.9-.2-1.2-1.6-.7.4-1.1-1.1.5-.8-.7-1.1,1-.5-.6-.9.2-.5-.5-1,.9h-1.5c0,.1-.2,1.1-.2,1.1h-1.6c0-.1-.6-.8-.6-.8l-1.9,2.7-.6.3-3.9-2.2-.7.5-.6-.4-1.3.4.4-.3-.7-.8-.9,1h-.4c0,0,0-.5,0-.5l-.7.7h-1.1s.2,1.5.2,1.5l-2,1.4h-.6c0-.1-.1.3-.1.3l2,.6,1.8,3.4.8-.5,1.1,1.1.7,1.8.9.6.2,1.3-.9,1h-2.2s1.1.8,1.1.8l-.2,1.5,2,1-.7,1,.2.7,2.1.7h1.5s.5.8.5.8l-1,.7,1,1.1-1.2,1.3v1.1s1,3.6,1,3.6l1.2,1.5-2.9.7-2.3,1.5v.9s.5.7.5.7l1.9,1.4h0l-1-.4v.7c-.1,0-1.5-.7-1.5-.7l-.2.5-.9-.2-.6.8-2-1.1-.3-.9-.9.2-.8.8-.7-.8-.7.3-2.9-.8-.7.4v.5c.1,0-3.3.1-3.3.1l.2-.8-.4-.3-.5.5-.4-.4v-2.2s-.1-.5-.1-.5h-.5c0,0-1.5-.5-1.5-.5l-1.3.9-.2.6-1.4-.3-1.1.6-.6-.4v-.8c.1,0-.7-.2-.7-.2l.4-.6-.8.2.4-.6-.9-.4-1.4,1,.6-.9-.2-.9-.6-.4.8.2.4-.5-.9-1.4.3-.5h.6c0,.1-.4-.9-.4-.9l.3-.6-.3-1.2-.8.3.8-1.4-.2-.5h-1.1c0,0-.3-1.7-.3-1.7l1.1-.7-.2-.8-.8-.4.6-.3,1.2.6.5-.4-.2-.7-1.6-1.3.9-.3-.4-.4.4-1.1h-1.2s-1.1-1-1.1-1h-.8c0-.1-.5-1.9-.5-1.9h.6c0,0,.5-.8.5-.8l-.4-.6v.4c-.1,0-1,0-1,0l-.5-.8.6-.8,1.1-.2v-.5s-.8.1-.8.1v-.6c0,0-.6-.8-.6-.8l.8-.4.3-.8-.9-.8-1,.9-.5-.3.2-1h.5c0,0-.4-.4-.4-.4l.9-.3v-.9c0,0-1,.4-1,.4v-.5c0,0-.4.4-.4.4l-.8-.6.4-.6-.6-.7-.7.3v-.5c0,0,.7-.7.7-.7l-.8-.7-.5.2v.8c.1,0-.8,0-.8,0l-.3-1.1.5-.6-.3-.5h.5c0,0-.6-.2-.6-.2l-.6.8v-1.9c0,0-.5.3-.5.3l-.8-.8v-1c.1,0,.5-.2.5-.2l-1.9-.4v-.5c0,0,.8-.2.8-.2l-.6-.3.2-.6.5.4.3-.3-.8-.8.5-.3-.9-.5,1.1-1.9-.9-.4.9-.4.2.5.3-1-.4-.7h-.7c0,0,.1-.8.1-.8l.4.2-.3-.9-.7-.8-.9.5-1.3-.3.5-2.1-.8-.7-2.2.3-.9-1,2-4.1-2.9.6-.3-.7,2.4-2.4v-.8c0,0-1.6-.1-1.6-.1l-4,.9-2.3-.3,1.8-2v-1.2c0,0-.5-.6-.5-.6v-.8s2.7-1.7,2.7-1.7l.5-1-1.9-1-2.5-.6-1.8,1.6h-.7c0-.1-.3-1.2-.3-1.2l.8-1.9v-1.5c0,0,.9-1.2.9-1.2l-.2-.6-2.7-.2-.9,1.9v1.5s-2.1-.5-2.1-.5h0l-2.4-3.3-5.4-2.2h-1.2c0,0-1.7.4-1.7.4l-2.6,1.6h-4.9c0,0-3.7,1.4-3.7,1.4l-1.8.2-3.3,1.9-3,3-2.8.2-3.8,1.4-3.8-1.1-2-1.6-2.6-1-1.3-1.8-2-1.4-.6-3.6-1.6-2.6-4.1-2.6-6.2-.6-2.6,1-3.3,2.3h-.7c0,0-5.7-3-5.7-3l-.3-1.2h-.6c0,0,0-.6,0-.6l.5-.5v-1.2c-.1,0-.6-1.8-.6-1.8l-.8-.6.2-.9-2.7-2.6Z"/>
    <path id="SN-TH" d="M74.6,160.4l2.3,1.4.6,1.7-2.4,3.5-1.9,6.4,2.3,1.1,1,1.4,5.2,3.9.3,1.5.9.3.5,1.1v2.6c0,0-.6.9-.6.9l1.6-1.1,2.4-2.9,3.1-6,1.4-.6v-1c-.1,0,1-1.8,1-1.8l4-4.2,3.4,2.9,4.7.3,1.2,2-.9,1.8,1,1.3,1.5.7.6-1.7.9-.3.8.3,1,1.3.4,4.3,2.4,3.8v2.4c0,0,3.2,2.6,3.2,2.6l.2,3.9,1.3,3.2v3.5h.1l-3.3.9-1-.4-.9.3v-1.6s-.6-.4-.6-.4l-5.8-1.9-.5-1.1-.9.5-1.6-.5v-.9s-.6.8-.6.8l-6-.6-2.3.7-2,1.3h-2.5c0,.1,0,.7,0,.7l-.4.2-8.6,2.3-3.2,2.3-.4.5,4.6,5.4.3,1.6-1.5,1.3-.4,1,4.2,3.5-.7,2,.4.8-.5,1.5-.9.4-2.1,2.8v1.3c0,0,.5.1.5.1l-.2.8,1.6.9,1.8,2.5,1.8.5,3.9-.4.5,1.2h0l-1.4,5.9-1.2,2.1-3.5,2.9-1.8.7-1.4,1.5h-4.4s-.5.7-.5.7l-1,5.6v4.1c.1,0-1.9,3-1.9,3l.9.5-1.7,1.1v1.7c0,0,1.7,1.3,1.7,1.3v1.1s-3.1,2.7-3.1,2.7l.8,1.6h-2.5c0,.1-.5.9-.5.9l.2.8,1.8,1.2v.5c0,0,1,1.2,1,1.2v1.7c0,0-.9,0-.9,0l-.7,1h0l-.8-3.5-1.4-3.2-1.5-.3v-.6c0,0-.4,0-.4,0l-2.5-3-.8-.4-.9-4.3-2.8-3.6-1.3-.3-.2-4.7-1.4-3.1-1.6-2-3-2.5-4.1-1.6-.5-1.2-.6-.2-1.4-1.8-1.4-4.2-2.1-1.7-1-1.9h0l1.5-.9-.5-1.5.6-3.7-.9-.8.4-2-.3-.9,1.9-1v-1c.1,0,0-1,0-1l-1-.5-.6-3.5-1.5-3.5-.3-3.9-.4-.4h0l2.6-1.4,1.7-3.5,9.1-10.3,7.3-9.4,14-21.8Z"/>
    <path id="SN-ZG" d="M82.1,347.2l1.1.3,1.7-.4,2.4.5,29.6.2,23.9-.4h0l-.2,1.7-2,1.2-1.1,1.6.6,1.3,2.1.3v1.7c0,0-1.7,2.3-1.7,2.3l-1,3.5-.9,1.3-1.2.5-.5,1.7-1.2.7-.4,1.8-.7.8.9.3.4.9-.3.6.9.2-.5,1.2.5,1.5-.5,1.2-1.8,1.5v1.2c0,0,1,1.5,1,1.5l-.5,2.1-2.1,1.4.3,1.6.6.8-.8,2.8.4,2.2h1.8c0,0,2.2,2.4,2.2,2.4l.7,2.5-.6,1.7,1,1.4v1.8c.1,0,1.9,1,1.9,1l.6.9.2,2-.7.4v.6c.1,0,.4.7.4.7l1.3-.6,1,.4.4,1.3h0l-5.2.6-6.7-2.3h-2.4c0,0-7.4,1.9-7.4,1.9l-3.2-1-5.4,2.3-8.2,4.5-.5,1.2-3.2-.3-7.2,1.2-2.7-.8-4.8,1.1-2.8-.8-3.9-.2-2.4,1.6-.9-1.2-.5-2-2.9-2.1-1.4-4.3-.2-2.2,1.3-3.2.8-6.1-1.9-7.8,1-3.6-.5-.6h-.7s0-1.6,0-1.6l1-2.9,2.5-11.5.8-6.7v-1.3c-.1,0-1-1.6-1-1.6l.4-.7,1-.4-.2-1.2.6-.3-.8-1.1.6-.4.5.5-.2-1h1s.3-1,.3-1h.6s-.7-1.3-.7-1.3l.3-.5.5.2-.2-.7.8.2.3-.6h1.4s1-.5,1-.5l2.3.4Z"/>
  </g>
</svg>