<svg xmlns="http://www.w3.org/2000/svg" xmlns:amcharts="http://amcharts.com/ammap" id="Layer_1" viewBox="0 0 512 512"><g id="_x3C_defs"><amcharts:ammap bottomLatitude="-10.472" leftLongitude="45.983" projection="mercator" rightLongitude="56.303" topLatitude="-3.727"/></g><g><path id="SC-25" d="m467.9 149.2-.8-.6v.4l.7.5v-.4Z"/><path id="SC-24" d="m467.7 149.5-.7-.5v.9c.1 0 .4-.1.4-.1l.3-.2Z"/><path id="SC-23" d="m467.9 155.5.5 1 1.7.4-.6-1.7h-.8z"/><path id="SC-22" d="m465.6 147.7-.4-.3-.4.4.2.3.6-.5Z"/><path id="SC-21" d="m466.2 149.5-.7-.3-.5-1-.2-.3-1.1.9-1.4-.7-.7.8 1.7.5 1.8 1.2h.7l.5-.9Z"/><path id="SC-20" d="m469.7 150.6-.7-.7-.4.6h1.1Z"/><path id="SC-19" d="m467.1 148.6-.2-.3-.4.6-.3.5.9.4v-.9c-.1 0 0-.4 0-.4Z"/><path id="SC-18" d="m466.5 149 .4-.6-.6-.5z"/><path id="SC-17" d="m465.6 147.7-.3-.8v.5c-.1 0 .3.3.3.3"/><path id="SC-16" d="m466.3 146.5-1 .3.3.8h.6v-1.1Z"/><path id="SC-15" d="m456.3 141.6.4-1-.5-.9-1.7-.9-.2.9.3 1.2.7.8.9-.2Zm29.2-6.3.6-.5-.6-1.1-.6-.3-.3 1.7h.9Zm-9.3-29.2-.4.5.7.5z"/><path id="SC-14" d="m481.7 134.1-1.3-1.1-2.9-1.7h-.3c0 .1.7 1.6.7 1.6l1.3.2.8 1.1 1.3.3z"/><path id="SC-13" d="m467.1 149.9-.9-.4-.5 1 1 1.4h.5l.9-1.4-.6-.8h-.3Z"/><path id="SC-12" d="m466.5 145.2-1.5-.4v1.2h.3l.3-.6h.8Z"/><path id="SC-11" d="m469 149.9-1.1-.7v.4c-.1 0-.5.2-.5.2l.6.8h.2l.2.2v-.2c.1 0 .5-.6.5-.6Z"/><path id="SC-10" d="m464.9 147.8-.9-.6-1.7.7 1.4.7 1.1-.9Z"/><path id="SC-09" d="M466.3 147.9v-.4l-.7.1-.6.5.5 1 .7.3.3-.5-.2-1.1Z"/><path id="SC-08" d="M465.3 146h-.4l-.9 1.3.9.6.4-.4v-.5c.1 0 .1-.9.1-.9Z"/><path id="SC-07" d="M481.7 134.1v-1h1l-.5-.6h-1.1c0 .1-.4-.4-.4-.4l-1.4-.4-.7-.6-1.1.2 2.9 1.7zm-1.8-3 .5-.5H479z"/><path id="SC-06" d="M468.5 153.6h-.7c0-.1-1.2.1-1.2.1l-.2.9h1.2c0 .1.3.8.3.8l.8-.3-.2-1.6Z"/><path id="SC-05" d="m469.7 153.5-1-.9v1c-.1 0 0 1.6 0 1.6h.8l-.4-1z"/><path id="SC-04" d="M468.5 150.7h-.2l.4 2 1 .9-.3-1.5.2-.9-1.1-.4Z"/><path id="SC-03" d="m466.3 146.5.2-1.4h-.8c0 .1-.3.8-.3.8v.9l1-.3Z"/><path id="SC-02" d="M468.3 150.6h-.2l-.9 1.3.7 1.5h.7c0 .1.1-.8.1-.8z"/><path id="SC-01" d="M469.7 150.6h-1.1c0-.1-.1 0-.1 0l1.1.4v-.4Z"/><path id="SC" d="m18 405.9 1.1-.2.5-1.3-1.1.5-.4 1.1Zm2-18.5.3-.2-1.5-1.2-2.4-1 .3 1.3.8 1.2-1.7-.4-1.9 1-2.2.4-1.6.9H7.8c0 .1-2.2-.5-2.2-.5l-1.2-1.4 1.3 3.4 3.3-.2 4-1.2h3.7l3.3-2Zm-4.6-2.5-5.6-.6-1.7.6v.6H10l.6-.4 2.4.7 1.6-.2.8-.8Zm491.4-110.1.8-2.2-.9.5-.5 1-.6 2.6 1.3-2Z"/></g></svg>