<?xml version="1.0" encoding="UTF-8"?>
<svg id="Layer_1" xmlns="http://www.w3.org/2000/svg" xmlns:amcharts="http://amcharts.com/ammap" version="1.1" viewBox="0 0 512 512">
  <!-- Generator: Adobe Illustrator 29.1.0, SVG Export Plug-In . SVG Version: 2.1.0 Build 142)  -->
  <g id="_x3C_defs">
    <amcharts:ammap bottomLatitude="-10.4716073" leftLongitude="45.9832764" projection="mercator" rightLongitude="56.3028224" topLatitude="-3.7266037"/>
  </g>
  <g>
    <path id="SC-25" d="M467.9,149.2l-.8-.6v.4s.7.5.7.5v-.4Z"/>
    <path id="SC-24" d="M467.7,149.5l-.7-.5v.9c.1,0,.4-.1.4-.1l.3-.2Z"/>
    <path id="SC-23" d="M467.9,155.5l.5,1,1.7.4-.6-1.7h-.8c0,0-.8.3-.8.3Z"/>
    <path id="SC-22" d="M465.6,147.7l-.4-.3-.4.4.2.3.6-.5Z"/>
    <path id="SC-21" d="M466.2,149.5l-.7-.3-.5-1-.2-.3-1.1.9-1.4-.7-.7.8,1.7.5,1.8,1.2h.7c0,0,.5-.9.5-.9Z"/>
    <path id="SC-20" d="M469.7,150.6l-.7-.7-.4.6h1.1Z"/>
    <path id="SC-19" d="M467.1,148.6l-.2-.3-.4.6-.3.5.9.4v-.9c-.1,0,0-.4,0-.4Z"/>
    <path id="SC-18" d="M466.5,149l.4-.6-.6-.5.2,1.1Z"/>
    <path id="SC-17" d="M465.6,147.7l-.3-.8v.5c-.1,0,.3.3.3.3Z"/>
    <path id="SC-16" d="M466.3,146.5l-1,.3.3.8h.6c0-.1,0-1.1,0-1.1Z"/>
    <path id="SC-15" d="M456.3,141.6l.4-1-.5-.9-1.7-.9-.2.9.3,1.2.7.8.9-.2ZM485.5,135.3l.6-.5-.6-1.1-.6-.3-.3,1.7h.9ZM476.2,106.1l-.4.5.7.5-.3-1Z"/>
    <path id="SC-14" d="M481.7,134.1l-1.3-1.1-2.9-1.7h-.3c0,.1.7,1.6.7,1.6l1.3.2.8,1.1,1.3.3.4-.4Z"/>
    <path id="SC-13" d="M467.1,149.9l-.9-.4-.5,1,1,1.4h.5s.9-1.4.9-1.4l-.6-.8h-.3Z"/>
    <path id="SC-12" d="M466.5,145.2l-1.5-.4v1.2c0,0,.3,0,.3,0l.3-.6h.8Z"/>
    <path id="SC-11" d="M469,149.9l-1.1-.7v.4c-.1,0-.5.2-.5.2l.6.8h.2c0,0,.2.2.2.2v-.2c.1,0,.5-.6.5-.6Z"/>
    <path id="SC-10" d="M464.9,147.8l-.9-.6-1.7.7,1.4.7,1.1-.9Z"/>
    <path id="SC-09" d="M466.3,147.9v-.4c0,0-.7.1-.7.1l-.6.5.5,1,.7.3.3-.5-.2-1.1Z"/>
    <path id="SC-08" d="M465.3,146h-.4l-.9,1.3.9.6.4-.4v-.5c.1,0,.1-.9.1-.9Z"/>
    <path id="SC-07" d="M481.7,134.1v-1c.1,0,1,0,1,0l-.5-.6h-1.1c0,.1-.4-.4-.4-.4l-1.4-.4-.7-.6-1.1.2,2.9,1.7,1.3,1.1ZM479.9,131.1l.5-.5h-1.4c0,0,.9.5.9.5Z"/>
    <path id="SC-06" d="M468.5,153.6h-.7c0-.1-1.2.1-1.2.1l-.2.9h1.2c0,.1.3.8.3.8l.8-.3-.2-1.6Z"/>
    <path id="SC-05" d="M469.7,153.5l-1-.9v1c-.1,0,0,1.6,0,1.6h.8c0,0-.4-1-.4-1l.6-.7Z"/>
    <path id="SC-04" d="M468.5,150.7h-.2c0,0,.4,2,.4,2l1,.9-.3-1.5.2-.9-1.1-.4Z"/>
    <path id="SC-03" d="M466.3,146.5l.2-1.4h-.8c0,.1-.3.8-.3.8v.9l1-.3Z"/>
    <path id="SC-02" d="M468.3,150.6h-.2c0,0-.9,1.3-.9,1.3l.7,1.5h.7c0,.1.1-.8.1-.8l-.4-2Z"/>
    <path id="SC-01" d="M469.7,150.6h-1.1c0-.1-.1,0-.1,0l1.1.4v-.4Z"/>
    <path id="SC" d="M18,405.9l1.1-.2.5-1.3-1.1.5-.4,1.1ZM20,387.4l.3-.2-1.5-1.2-2.4-1,.3,1.3.8,1.2-1.7-.4-1.9,1-2.2.4-1.6.9h-2.3c0,.1-2.2-.5-2.2-.5l-1.2-1.4,1.3,3.4,3.3-.2,4-1.2h3.7c0,0,3.3-2,3.3-2ZM15.4,384.9l-5.6-.6-1.7.6v.6c.1,0,1.9,0,1.9,0l.6-.4,2.4.7,1.6-.2.8-.8ZM506.8,274.8l.8-2.2-.9.5-.5,1-.6,2.6,1.3-2Z"/>
  </g>
</svg>