<svg xmlns="http://www.w3.org/2000/svg" xmlns:amcharts="http://amcharts.com/ammap" id="Layer_1" viewBox="0 0 512 512"><g id="_x3C_defs"><amcharts:ammap bottomLatitude="6.899" leftLongitude="-13.302" projection="mercator" rightLongitude="-10.272" topLatitude="10"/></g><g><path id="SL-E" d="m448.4 161.4-33.5 15.8-45.8-19.2-40.6 45.7-2.3 40.8-36.3 3.5 39.2 69.8-17.4 33.4 4.2 25.4-16.5 5.5 5.2 19.5 21-8.7.2 31.5 34 12.1 84.9-68.6-.2-41.1 14-16.5 33.4-9.5 6.2-48.9-17.3-.7-26.4 28.7-29 4 40.7-62.5-18.9-23.2 1.2-36.7Z"/><path id="SL-N" d="m237 6.8-1.9 11.4-35.2 7.7-45.8-3.7-54.1 89.5-31.1 12.2-.2 15.4-25.1 21.8-29.7.4 5.5 14.5 30.8 2.1-8.9 12.2 23.2 1.1-40.8 5.1 12.5 50 8.8-10.3-8.1-14.6 21 3.2-5.6 11 29.8-16.6-8.9 16.6 9.9 2.2-39.5 15.6 11.8 15.8 22.8 16.4 15-16.1 56.8 17.7 39-13.2 27.4 16.3v-18.3l34.2 1.1 17.1-20.7 22.3-4.7 36.3-3.5 2.3-40.8 40.6-45.7 45.8 19.2 33.5-15.8-24.7-6.8 11.4-36.2-25.1-13.9-59-96-114-1.7Z"/><path id="SL-W" d="m55.3 269.6-39.2-20.2 19.7 53.3 30.1-12.2 12.2-4.6-22.8-16.4Z"/><path id="SL-S" d="m127 393.1-57.1 7.2 55.5 14.5 11.7 13.9 6.3-28.4-16.5-7.2Zm179.6 112.1 25.5-47.6 27.8-21.3-34-12.1-.2-31.5-21 8.7-5.2-19.5 16.5-5.5-4.2-25.4 17.4-33.4-39.2-69.8-22.3 4.7-17.1 20.7-34.2-1.1v18.3L189 274.1l-39 13.2-56.8-17.7-15 16.1-12.2 4.6 24.9 53.3-22.1 1L82.1 358l44 23.5 20.8-16.8-11.5 21.7 16.5 16.2 41.3-7.9-39.2 11.2-9.8 14.3 19.2 8.9h-22l107 38.9 58.3 37.1Z"/></g></svg>