<?xml version="1.0" encoding="UTF-8"?>
<svg id="Layer_1" xmlns="http://www.w3.org/2000/svg" xmlns:amcharts="http://amcharts.com/ammap" version="1.1" viewBox="0 0 512 512">
  <!-- Generator: Adobe Illustrator 29.1.0, SVG Export Plug-In . SVG Version: 2.1.0 Build 142)  -->
  <g id="_x3C_defs">
    <amcharts:ammap bottomLatitude="-1.649247" leftLongitude="40.977962" projection="mercator" rightLongitude="51.416779" topLatitude="11.990101"/>
  </g>
  <g>
    <path id="SO-AW" d="M149,26.5l1.2.5.2.3h.4s.1-.2.1-.2l.3,1,.4.5h.2s.2-.3.2-.3h.3v.9c0,0,1.6.9,1.6.9h.9l.3.2.3.5,1,.7h.4c0,0,0-.2,0-.2h.4c0-.1,0,.1,0,.1l.2-.4h-.6c0,.1.7-.2.7-.2h.6s-.4.1-.4.1l-.2.2-.3,1.1v.5c0,0,.5.9.5.9v1.8c.1,0,.4,1.1.4,1.1l.7.9.6.4h.5s.2.2.2.2l.2.7,1.1,2.3.7,1.2.7.8.7,1.4v.2s.9,1.2.9,1.2l4.3,5,3.7,3.6,2.9,2.3,1.5.9.9.8.9.5.6,1.1.6.5.7.5,1,.3,1.4,1.2.6.3.6.6h0l-6.6,12.4-10.8-5.1-16.6,21.9h0l-.4-.3v-.6c-.1,0,0-.9,0-.9l-.3-.4v-.6c0,0-.6-.8-.6-.8v-1.4c0,0-.4-.4-.4-.4l-.9-1.2-.5-.3-1.2-.3-.3-.5-.6-.2-.2-.3-1.4-.3-.2-.5h-.4c0-.1-.1-.7-.1-.7l-.5-.8v-.7c0,0-.5-.2-.5-.2l-1.7-2.4-.4-.4-.9-.3v-.3c-.1,0-3.2-3.2-3.2-3.2l-1-1.4-2.2-2.5-5.1-11.8,9.2-12.5,3.7-5.3,7.7-14.1h1.4Z"/>
    <path id="SO-BK" d="M183.3,265.8h6.6c0,0,6,.6,6,.6h1.6s3.3,18.6,3.3,18.6l2.5,12.3,1.8,7.6-1.1,5.8.4,15.6h0l-4.4.7h0l-1.8-.7-7.3.4-4.7-2.9,1.1-1.8v-6.5l-4.7-10.1-8.4-2.5h-2.5l-3.3,1.5-1.5,1.1-2.5,4.7-3.6,4-6.2,1.4-10.6-3.6h0l.7-6.5-1.5-2.9-7.9-13.6-1.2,1-.9.5h-1.9c0,0,1.1-.3,1.1-.3l.5-.3.5-.6,1.1-.8.5-.5.6-.3,1-1,1.2-.9.4-.9.6-.4.6-1.3.6-.7.2-1.1.5-.7.2-.6,1.2-.9,1.6-1.4,1.5-1,.4-.5,3.9-1.9.6-.6.8-.4h.6c0-.1,1-.7,1-.7v-.3c.1,0,1.1-.3,1.1-.3l.5-.4,1.1-.2,1-.4,2-.4,1.5-.8h.6s.4-.3.4-.3l6.4-1.6h1.2c0,0,.7-.5.7-.5l2.1-.4h1.1c0,0,4.9-1.1,4.9-1.1l1.8.2,2.6-.4,1.9.3Z"/>
    <path id="SO-BN" d="M228.5,369.2l-1.8,1.3h-.5c0,0-.8.6-.8.6h-.4s-.3.3-.3.3h0c0,.1-1.3.6-1.3.6l-1.3.8h0l4.5-5.8h0l2.5-.7,5.2-.5h0l-1.6.9-2.8,1.9h-.3s-1.1.7-1.1.7Z"/>
    <path id="SO-BR" d="M423.1,7.8l.6.2,1.7,1.3,1.7.3,2.8.8,3,1.8h.4c0,0,.2,0,.2,0h.6c0,.1,2,0,2,0l1.5.8,1,.2.9.4.7-.3h.5s.5.3.5.3v.9c0,0-1,1.5-1,1.5v1.2c0,0-.5.7-.5.7l.3.9v.5s-.5,1-.5,1l-.5.4v.4c-.1,0-.9.5-.9.5l-.3.3v.4c-.1,0-1.1,1-1.1,1l-1,1.9-.4.5v.4c-.1,0,.1.8.1.8v.9c0,0-.5,1.6-.5,1.6l-.7,1.3-.5,1.8-.2,2.9.3,1.6.5,1,.6.5v.2s-.4-.3-.4-.3h-.1c0,0,.6.6.6.6l.7.3h.3s.2-.3.2-.3h.4s.4-.3.4-.3l.3.4-1.2,2.4-.6,1.6-.4,2.4v2.7s.4,4.4.4,4.4v2.4c-.1,0,0,1,0,1v.5c.1,0,.6.4.6.4v1.4c.1,0,.5,1,.5,1l.3.5v.4s-.4.3-.4.3h-1.3c0,.1-.5.4-.5.4v.2c-.1,0-.1.2-.1.2h.2c0,0-.2.5-.2.5h-.6s-.5.5-.5.5l.2.8-.3.4-.5.3-.2.3h-.3s-.3.2-.3.2l-.5,1,.4.3-.3.3.5.4h.4c0,0,.3-.4.3-.4l2-.5,2.1-.2h2.5s0-.4,0-.4l-.4-.2-.5-.6-.4-.2v-.3c-.1,0-.1-.6-.1-.6h.2c0,0,.1-.6.1-.6h-.2v-.6l-.2-.2.6.3h.3s.7.7.7.7l.8.5h.4s.9.6.9.6l1.1.3.9-.4,1.5.2.3.8.5.6-.3,1-.3.3-.5,1h-.2c0-.1-.2,0-.2,0v.5c.1,0,0,.2,0,.2v-.2c-.1,0-.6,0-.6,0h-.2c0,.1-.2-.1-.2-.1h-.3c0-.1-1.7,0-1.7,0l-.4-.2h-.4c0,0-.3-.3-.3-.3l.2-.9-.3-.4-.8-.2h-2.2c0,.1-3.3.6-3.3.6l-2,.6-3.8,1.9-1.2,1-.2,2.1v.8c0,0,.3,1,.3,1v1s-.6,3-.6,3v1.4c.1,0,.5,1.2.5,1.2v.4c-.1,0,0,.3,0,.3l-.2.3.3.2-.2.2-.4,1v.6c0,0-.2.3-.2.3v.8c0,0-.4.8-.4.8v.5s-.3.5-.3.5l-.4.3v.4c0,0-.2.9-.2.9v1.7c-.1,0-.5.9-.5.9v.4c0,0,.2.1.2.1l-.3,1.1v.6c0,0,0,.4,0,.4l-.2.2v.3s.1.2.1.2v.4c0,0-.6,1.2-.6,1.2l-.3,1.9.2,1.3v.5c-.1,0,.6,1.2.6,1.2l.9.4v.8s-1.3,2.5-1.3,2.5l-.8,1.2-.3.2-.3.7-.7,1.1-1.5.9v.3c0,0-1.2,1.2-1.2,1.2l-.8,1.2-.2.6v.6s.3.8.3.8v.6s-.2,1.2-.2,1.2l-.4.8-.6.7-1.1.7-.4.7-.5.5-2,1.5-.5.6-.7.6-.4.6-.7.5v.4s-1,1.2-1,1.2l-.3.9v1.1s-.2.8-.2.8l-.7,1.5v1.2c-.1,0-.4.5-.4.5l-.5.3-.5.6-.7,1.4-.2,1.1.2.7v.8s-.4,1.2-.4,1.2l-.8,1.3-2.2,2.1-.4,1.1-.7.6-.6.9-.2,1.1-.3.2h-.2c0,0-4.5-4-4.5-4l-4.4-.7-3.3,4.8-2.2-7.3-3.6-1.8-8.4-.4-5.8-3.7-4-2.9-2.5-4.8-1.1-8.8h0l-.7-15.8h0l-1.1-44.5-4.2-16.9h0l2.4-.2,1.1-.4,1.9-.5,2.7-.4,1.3-.4h.3c0,0,1.2-.2,1.2-.2h0c0-.1,1.7-.4,1.7-.4l1.2-.7.4-.4,1,.2h2.1s1.8-.3,1.8-.3l.4-.2v-.4c.1,0,1-.2,1-.2v-.4h.6l.7-.2.7-.8,1-1.7.6-.2h1.1s.2-.2.2-.2h.4c0,.1.5,0,.5,0h.7s.8-.4.8-.4l.3-.3h.5s.9.4.9.4l1.2.3h2.7c0,0,1.9-.7,1.9-.7l1.4-1,.3.2v-.3l.7-.3,2.1.5h2c0,0,.2-.2.2-.2h.3c0,0,1.8-1,1.8-1v-.2c.1,0,.8-.1.8-.1l.3-.3,2.5-.5.5-.4,1.2-.3,1.2-1.1.9-.2,2.3-1.3,1.1-.4,1-.6,1.5-1.5.9-1.3.5-1.1h-.1s0-.2,0-.2l.3-.2.2-.5.2-.7v-.2c-.1,0,0-.6,0-.6l.2-.8.3-.6.7-.7,1.2-.8.8-.2v-.3s.1-.1.1-.1l1.8.3,1.6-.8,1-.2,1-.4.3-.2h-.5s-.3.3-.3.3l.4-.5h.5Z"/>
    <path id="SO-BY" d="M143.9,311.8l10.6,3.6,6.2-1.4,3.6-4,2.5-4.7,1.5-1.1,3.3-1.5h2.5l8.4,2.5,4.7,10.1v6.5l-1.1,1.8,4.7,2.9,7.3-.4,1.8.7h0l1.1,7.2-1.8,8.7.7,2.2-1.5,9.8,1.1,9.4-28,12.3-10.9,4.3-21.8,10.9h0l-2.9-2.2-13.8-13-4.4-2.5h0l7.3-40.6,12,1.1,6.2-.7v-6.2l.7-15.9Z"/>
    <path id="SO-GA" d="M315.7,287.3l-2.8,3.7-.4,1.4-2.5,1.9-1.7,1.8-4.4,4.3-.3,1.2-3.2,4-1.8.4-2.5,2.1v1.2c-.1,0-1.6.9-1.6.9v1.2l-2.2,1.7-1.9.6-.9,3-1.9.5-1.1,1.8h0l-23.5-15.2h0l.4-12.3-9.1-7.3-1.5-11.2,3.6-7.3.7-5.1-6.9,1.8-12-2.9h0l-6.4-13.5,9-8.9.3-1.4,16.1-15.2.5-1.6,10.8-10.6h0l38.6,8.6-9.1,19.3,4.4,6.5,5.1,13.8-4,25.4,12.3,5.2Z"/>
    <path id="SO-GE" d="M131.3,290.3h1.9c0,0,.9-.5.9-.5l1.2-1,7.9,13.6,1.5,2.9-.7,6.5h0l-.7,15.9v6.2l-6.2.7-12-1.1-7.3,40.6h0l-27.7.4-8,24.6h0l-15.5,1h-.1s0-19.4,0-19.4v-2.1c.1,0,0-.3,0-.3v-4.5s-.5-8.2-.5-8.2l.3-1.8v-20.1c0,0,0-1.2,0-1.2l.2-.2v-.2s12.2-11.9,12.2-11.9l12.1-17.4,7.2-9.9,1.4-2.3h.3c0,0,.2-.6.2-.6h.3c0-.1.6-1,.6-1l1.6-1.1.4-.9.7-.8,2.3-1.2h1.4c0,0,1.6-.4,1.6-.4l1.7-.6h3.7s1.4-.2,1.4-.2h1.9c0,0,1.4,0,1.4,0l3-.8h1c0,0,1-.4,1-.4h.8c0,0,.6-.3.6-.3h1c0,0,.5-.3.5-.3l1.5-.2.8-.3.6-.4.9-.3.6-.5Z"/>
    <path id="SO-HI" d="M238.3,259.6l12,2.9,6.9-1.8-.7,5.1-3.6,7.3,1.5,11.2,9.1,7.3-.4,12.3h0l-11.3,11.7-1.8,1.7-3.3,9.8-24.4,1.8-4.4-.4-2.9-1.4h0l-10.6-.7h0l-.4-15.6,1.1-5.8-1.8-7.6-2.5-12.3-3.3-18.6h1.3s1.9.3,1.9.3l1.9-.2,3.5.2h2.8s2.1-.2,2.1-.2l1.4-.5,19.4-20,6.4,13.5Z"/>
    <path id="SO-JD" d="M138.8,391.8l10.6,15.6,2.9,4,6.1,8.8h0l-5,5-7.3,8h0l-16.4.2-3.6-14.8-7.3-21.7-8.4.4-28.4,1.8h0l8-24.6,27.7-.4h0l4.4,2.5,13.8,13,2.9,2.2Z"/>
    <path id="SO-JH" d="M82,399.1l28.4-1.8,8.4-.4,7.3,21.7,3.6,14.8,16.4-.2h0l-11.1,12.1-7.8,7.7-1.8,1.5-1.2,1.6v.9c-.1,0-.4.2-.4.2v.4s-.2-.1-.2-.1l-.2.2v.3c0,0,.3-.1.3-.1v.3c-.1,0-.1-.1-.1-.1h-.2c0,0,.2.3.2.3v.3c-.1,0-.6.3-.6.3h-.1c0,0,.3-.2.3-.2l.2-.2v-.2s-.4-.2-.4-.2h-.4s-.5.4-.5.4l-1.1,1.5-.4.3-.2.3v.4c0,0,.4,0,.4,0l-.4.4h.1c0,0,0,.2,0,.2h-.3c0,.1,0-.4,0-.4h-.4s-.3.6-.3.6l-.6.4-.8.9-.9,1.2-.4.2-.5.5-1.8,2.3v.2s-.2,0-.2,0l-1.9,2.4v.6s-.5,0-.5,0l-.4.5-.5,1-1.3,1.3-.3.5-1.1.8h-.7c0,.1-.8.5-.8.5l-.3.7-.6.8v.6c-.1,0-1,.8-1,.8l-.4.7-.6.6v.4s.2.2.2.2l-.3.2-.2.4h-.2c0,0-1.1.8-1.1.8l-.9,1.8v.5s-.3.6-.3.6l-.6.6-.4.8v.3s.1,0,.1,0h0c0,.1,0,.3,0,.3l-1,.6-.2.6h-.2c0-.1-.7.9-.7.9l.5.2.5-.6h.2c0,0,0,0,0,0l-.4.6-.6.4-.3.3v-.3c.1,0,0-.1,0-.1h-.7s-.4.2-.4.2l-.2.7v.2c.1,0-.8,1.5-.8,1.5l-.5.5h0c0,.1,0,.2,0,.2l-.2.4-.2.2v.5c-.1,0-.3.1-.3.1l-.2.4-.8.8-.5.8v.2c0,0-.7,1.1-.7,1.1v.2c.1,0-.4.5-.4.5l-.8,1.2v.4c-.1,0-.7.8-.7.8l-.6,1.2-.6.5-.2.7h-.3s-.7.9-.7.9l-.3.6v.3s.2,0,.2,0l.2-.2v.3c-.1,0-.4.3-.4.3v-.3s-.4,0-.4,0v-2.1c0,0-3-3.7-3-3.7l-4.7-6.6-3.3-4.3-1.7-2-4.1-5.4-4-5.6v-1.4c-.1,0-.2-4.4-.2-4.4v-23.9c0,0-.4-.5-.4-.5v-8s.2,0,.2,0v-1.9c0,0,.2-4.3.2-4.3l-.4-1.5.2-8.1v-5.5c-.1,0-.1-14.7-.1-14.7h0l15.6-1.1Z"/>
    <path id="SO-MU" d="M305.5,170.4l34.3,5.5,19.3-10.9,5.8.4,9.1,4.4,2.2.4,5.3,6.1h0l-2.7,3.9-2.1,2.6-.7,1.1-.9,1-.3.7-1.3,1.9-.5,1-.9.9-.3.6-.7.9-1.1,2-.6.6v.2l-.3.5h-.2c0,.1,0,.4,0,.4l-.7,1-.8,1.7-.3.2-1.5,2.6-.6,1.7-2,4.4-.2.9-1,2.2-.8,2.2-.6,3.2.2,1.4v.5s-.7,2.4-.7,2.4l-2.9,6.4-2.5,4.8-2,3-2.1,3.5-2.5,3.6-3.7,6.1-3.2,4-.3.9-.5.6-.7.7v.2c0,0-2.4,2.8-2.4,2.8l-1.8,2.6-1,1.1-3.1,4-1.4,2.3-.7.9-1.4,2.3-1,2.3-1,1.5-1.6,3-1.8,2.6-1.6,3.1-1.7,2.3-3.7,3.7h0l-12.3-5.2,4-25.4-5.1-13.8-4.4-6.5,9.1-19.3-38.6-8.6h0l37-38Z"/>
    <path id="SO-NU" d="M361,112.6l1.1,8.8,2.5,4.8,4,2.9,5.8,3.7,8.4.4,3.6,1.8,2.2,7.3,3.3-4.8,4.4.7,4.5,4.1h.2c0,0-.5.4-.5.4l-.6,1.4v.2c0,0,0,1,0,1l-.3.7v.9c-.1,0-.4.4-.4.4l-2.2,2-1.3.5-2.2,1.6-.8.9-.4.2v.3c-.1,0-.6.4-.6.4l-.7,1-1.8,1.3-1.2,1.7-.4,1.4v2c-.1,0,0,.2,0,.2l.3.2.2.6h.6c0,0-.3.4-.3.4v.4l.2.2-.4.5v.3c0,0,.2.1.2.1v.3c0,0-2.1,2.6-2.1,2.6l-.3,1.8-.7,1.5-2.3,4.5-1.2,1.9h0l-5.3-6.1-2.2-.4-9.1-4.4-5.8-.4-19.3,10.9-34.3-5.5h0l15.6-15.6h-1.8s0-.9,0-.9l6.7-6.5-3.6-.7,19.3-20.1,5.1.4,14.2-14.3Z"/>
    <path id="SO-SA" d="M345.6,32.3l1.5.5,2.8.7,2,.9,1.2.4.6.4,1.3.3h0l4.2,16.9,1.1,44.5h0l-18.2,1.1-18.2,1.5-36.1,2.2h0l-5.8.4h0l-2.5.4-30.2-24.2h0l1-25.4h0l1.2.2h1.8s3.1-.6,3.1-.6h.7c0,0,.4,0,.4,0l.9.4.6.5,2.1,2.2.7.4,2.1.3,1.7-.2,2.6-1.1,2.2-.5h.9s2-.7,2-.7l.7-.5,4.5-2.3.3-.4.5-.2.4-.5.9-.3.6-.6.5-.6h.6c0,0,.4-.3.4-.3l.2-.5h1.2c0,0,.1-.3.1-.3l.8-.2.6-1.2h.5c0-.1.8-.1.8-.1l.6-.4h.6c0-.1.3-.3.3-.3l.5-.2.3-.5.2-.7.7-.4.4-.5.2-.7,1.9-.6,1-.5.8-.7,1.4-.7h.6c0,0,.6-.5.6-.5l1.8-.6.7-.4h.6c0-.1,0-.3,0-.3h1.2c0,.1,1.1-.1,1.1-.1h1.2c0,0,1.2,0,1.2,0l.8.5,2.5,2h.4c0,.1,1,.7,1,.7l1,.2,1.3-.4,1.2-.6,1-.2h.1c0-.1.3,0,.3,0l2.4.2h.7c0,0,1-.5,1-.5l1.1.4h.5s2.7-.1,2.7-.1l.6-.3h1c0,0,.6-.1.6-.1l1.6.2,1-.6.9-.8.7-.8.6-.4.4-.5,1.3-.2,1.2-.4.5-.4v-.2c0,0,.5-.3.5-.3l.8-.9,1.1-.2.6-.4h1.6c0,0,1.2,0,1.2,0l1.4-.8h.4c0-.1,2.6,0,2.6,0l2.2-.6Z"/>
    <path id="SO-SD" d="M263,303.8l23.5,15.2h0l-3.9,4-3.4,4.3-5.8,6.3-2.3,2-1.4,1.4-4.5,3.5-1.4,1.5-2.4,1.8-.4.5v.5c-.1,0-.5,0-.5,0l-.4.4-.2.9-.2.4-2.7,1.9-1,1.1-.5.9-.4.2v.5c0,0-.4,0-.4,0l-.4.3-.7.7-.4.6v.2c0,0-.5.6-.5.6l-2.1,1.7-1.3,1.4-.7.5h-.2c0,0-.3.2-.3.2l-1.5,1.3-1.3.9-2.1,1-.5.4h-.5c0,.1-.4.5-.4.5h-.4s-1.4,1.1-1.4,1.1l-.8.4v.2c-.1,0-2.1,1.1-2.1,1.1v.2c0,0-1.4.6-1.4.6l-1.2.7h0l-5.2.5-2.5.7h0l-2.2-1.1.4-19.6-8-11.6-1.8-7.6h0l2.9,1.4,4.4.4,24.4-1.8,3.3-9.8,1.8-1.7,11.3-11.7Z"/>
    <path id="SO-SH" d="M220.5,373.6h-.4s-.3.3-.3.3h-.2c0-.1-.6.3-.6.3h-.4s-.2.2-.2.2h-.2s-.2.3-.2.3h-.8c0,0-.2.4-.2.4l-1.3.5-.5.4h-.2s-1,.5-1,.5l-1.3,1.1h-.4s-2.3,1.5-2.3,1.5l-.9.3-.2.3h-.2c0,.1,0,0,0,0h-.2s-2.1,1.5-2.1,1.5l-2.3,1.3v.2c0,0-.6.1-.6.1l-.5.8h-.2s-.4.3-.4.3v.2s-.7.1-.7.1l-.6.7-1.8,1.1-.8.8h-.3c0,.1-.5,0-.5,0l-.5.7-1.6,1.2h-.2s-.1.2-.1.2v.2c0,0-.5.5-.5.5h-.5c0,.1-.3.3-.3.3l-.5.6-.9.5-.6.6-2.5,1.8-.5.5h-.3c0,.1-.9.8-.9.8l-.8.7-.3.5h-.2s-2.1,1.8-2.1,1.8l-.5.4-.4.8-1,.5-1.7,1.5-.4.5v.3c0,0,.1,0,.1,0v.3c-.1,0-.4-.1-.4-.1l-1,.6-1.8,1.4-.7.9-.2.8v-.2c-.1,0-.3,0-.3,0l-1.2.8-1.4,1.2v.4c0,0-1,.4-1,.4l-1,.9h-.2s-1.1.8-1.1.8l-1.6,1.4-1.1.7-.2.3-.4.3-.2.5-3.9,3-4.7,4.3h0l-6.1-8.8-2.9-4-10.6-15.6h0l21.8-10.9,10.9-4.3,28-12.3-1.1-9.4,1.5-9.8-.7-2.2,1.8-8.7-1.1-7.2h0l4.4-.7h0l10.6.7h0l1.8,7.6,8,11.6-.4,19.6,2.2,1.1h0l-4.5,5.8h0l-1.1.4-.2.3h-.3Z"/>
    <path id="SO-SO" d="M361,112.6l-14.2,14.3-5.1-.4-19.3,20.1,3.6.7-6.7,6.5v.9h0-33.7s3.3-21,3.3-21l-3.6-7-2.7-.3v-24.6h0l5.3-.3h0l36.1-2.2,18.2-1.5,18.2-1.1h0l.7,15.8Z"/>
    <path id="SO-TO" d="M285.6,154.8l-25.7-9.6-24.3-7.8-34.5-11.3h0v-19.7s5.1-20.2,5.1-20.2l1.5-1.8,8.4-9.6,29.1,2.6,4,.7h0l30.2,24.2,2.5-.4h.6s0,24.6,0,24.6l2.7.3,3.6,7-3.3,20.9Z"/>
    <path id="SO-WO" d="M170.6,112.2l-6.8-7.7h-2.6c0,0-.5-.6-.5-.6l-1-.4-.3-.4-.4-.2h-1.4c0,0-.2-.6-.2-.6l-.4-.5-1-.4-.3-.4-1.2-.7-.4-1.2-.6-.5-.7-1.2-.5-.3v-.5s-.4-.7-.4-.7l-1-1.3-.4-.3-.3-1.1-.3-.4v-.5h0l16.6-21.9,10.8,5.1,6.6-12.4h0l1.2,1.2,1.4,1,2.5,1.1,1.9.4,1.3-.4,2.8.5h.4c0,0,.9.3.9.3h1.1s1.9-.3,1.9-.3l.4-.3.6-.2,1.9-.3.9-.3,1.5.2h1.1c0-.1,2.4.3,2.4.3l2.2-.2,1.9-.9h0c0-.1-.2-.1-.2-.1h.2c0-.1.2,0,.2,0h-.1c0,0,0,.2,0,.2h.1s.2-.3.2-.3l-.2-.3-.8.3h0s2.7-1.2,2.7-1.2l1.2-1.1,2-.3,1-.6,1.2-.4,1.3-.7.6-.7.7-1.1.8-.6.7-1,.3-.2h.4c0,0,2.3.2,2.3.2l2.5-.3.5-.6.4-.2h.8c0,0,.4-.3.4-.3v-.3c0,0,.3-.2.3-.2l.8-.2.8-.4v-.2c.1,0,0-.2,0-.2l.4-.4.3-.6h.3c0-.1.9-.2.9-.2l1.7-.6,1-.9,1.9-.8.3-.3v-.5s.6-.3.6-.3h.9c0,0,.2-.3.2-.3l.8.7,1.1.7v.4c0,0,0,.2,0,.2h.2c0-.1.4,0,.4,0l-.3-.3h-.3v-.2c0,0,.4-.2.4-.2l1.8.8,1.9,1.3h.8l1.4.3h0l-1,25.4h0l-4-.7-29.1-2.6-8.4,9.6-1.5,1.8-5.1,20.2v19.7h0l-6.2-2.1-14.1-4.5-.4-.3-2-.8-2.2-.3-2.7-2v-1.6c-.1,0-1.7-1.2-1.7-1.2l-.6-.7-.6-.4Z"/>
  </g>
</svg>