<?xml version="1.0" encoding="UTF-8"?>
<svg id="Layer_1" xmlns="http://www.w3.org/2000/svg" xmlns:amcharts="http://amcharts.com/ammap" version="1.1" viewBox="0 0 512 512">
  <!-- Generator: Adobe Illustrator 29.1.0, SVG Export Plug-In . SVG Version: 2.1.0 Build 142)  -->
  <g id="_x3C_defs">
    <amcharts:ammap bottomLatitude="-46.984146" leftLongitude="16.455611" projection="mercator" rightLongitude="37.909195" topLatitude="-22.137828"/>
  </g>
  <g>
    <path id="LS" d="M258.9,153.7l-.4-1.8.7-1.3h-1.3s-5-10.3-5-10.3l.6.4.2-.7,1.4-.8,2.5-.6v-.6s1.9-1.6,1.9-1.6l-.3-.7h.5s.3-1.5.3-1.5l1.4-.7-.3-.7,2.2-2.1-.2-.6h.6c0,0-.5-.6-.5-.6l1.3-.8.5-1.9,2.2.3.9-1.2,1.6.5.4-1.2,2.2-2.3h2.9c0,.1.8-1.3.8-1.3l4-.9.8.5.3,1.5,2.5,1.5h0l3.5,4,2.3,1.1.7,1.1h1.2s2.2,4.9,2.2,4.9l-.6,1.6-2,1.1.4,1.7-.6.2v.7s-1.8.7-1.8.7l-.5,1-.3,2.3.7,1.6-2.3,1.4h0l-3,1.8-2.7.8-2.1-.4-1.2.7-1.4-.2-1.4,2-1.6.7,1,1.4-2.1,1.9.5.7-1.2,2v1.3s-3.1-.5-3.1-.5l-.5-.8h-2.4c0,0-4.6-5.5-4.6-5.5h-1.3Z"/>
    <path id="ZA-EC" d="M285.9,147.6l1.5,1.5v.7s-.7,1-.7,1l-1.5.5.2.6-.9,1-.8-.2-.4,1.2-1.4-.6-.6,1.4.4,2.5h.8c0,.1.7,1.2.7,1.2l1.5.3.9-1.4,1.3.6v1s4,1.3,4,1.3l2.4-.8,2.2,1.4,1-.2,1.5.8.8-.3,1.3,1.3h1s.5,1.2.5,1.2l1.4.3,2.3,4.4h0l-5.5,6.5-1.8.6-3.5,3.7-2,1-5.6,7.5-8.9,9.6-2,1.1-1,1.5-3.7,1.9-1.1,2.2-2.9,2.5-2.9,1.5-12,8.9-8.9,4-2.8-.2-3.7-1.1-3.9.4-2.3,1.4-1.1,1.5-.3,1.6,1.4,1.6-2,.4-2.8-.3-3.1-1.3h-3.1s-1.7.8-1.7.8l-.2,1.4-1.5,1.8.6.5-.6.4-3.2-.9-.6.4-1.7-.4-2-1.4-3.8-1-8.5-1.4h0l-.2-.9,1-1.3-2.4-.9v-.9c0,0-3,0-3,0l.8-1.3,2.1-1.3,1.8.2v-.8c0,0-1.1-1.1-1.1-1.1v-1.5c-.1,0-1.7-1.1-1.7-1.1h-2.6c0,0-.5-.9-.5-.9l-9,.2-.4-1.6h.6c0-.1,2.9-4.5,2.9-4.5v-2.9s1.1-1.3,1.1-1.3l1.5-.3-.5-1.8,1,1.4.9-1,3.1.7v-1.1c.1,0-1.9-2.2-1.9-2.2l.7-.5-1.4-4,1.9-1.4,1.1.5.7-1h3.5c0,.1.1-1.8.1-1.8l1.6-1.1,2,1.4,2.6-1.4v-.5c0,0,.7.1.7.1l.7-.6v-.6s-.5,0-.5,0v-.7c0,0,.6,0,.6,0l-.4-.7,1-.3.7-1.1-.9-1-.9.2,1.1-1.6-.3-.6h0v-1c0,0,1.8.6,1.8.6l.8-1.1h3.2c0-.1.3-4.4.3-4.4l.7-.3v-1.3s3.7-.1,3.7-.1l.6-.7.6.3v-.9c0,0,6-2.5,6-2.5l2.7.2v-1.1s1.4-1.3,1.4-1.3l-.4-.5,1.4-2.3-.8-1.5,1.2-1.4-1.2-.2-.2-3.3h0l2.3-.3.5,1.1,2,.5,2-1.3.4-1.4.9.5,1.9-1.1,1.3.5.4-.9,2.1,1.8,2.6-.3.7,1.3,2.6.6v.4c0,0,2.8-.8,2.8-.8l.8.7,1.3-.4.6-1.2h1s-.5-1.2-.5-1.2l1.8.2.3-.9,2.8-.2-.2-1h1.1s-.5-.9-.5-.9l1.2-.3-.8-1,.8-.2h1.3c0-.1,4.6,5.3,4.6,5.3h2.4c0,0,.5.9.5.9l3.2.5v-1.3s1.1-2,1.1-2l-.5-.7,2.1-1.9-1-1.4,1.6-.7,1.4-2,1.4.2,1.2-.7,2.1.4,2.7-.8,3-1.9Z"/>
    <path id="ZA-FS" d="M261.2,87.2l1.4-.8.2.6,2,.4.4-.7,1.6-.3,1.3-1.1,1,2.2,2,2,.5-.8.5.8,1-.2.6.4h0l1.8.3.5,1,1-.5,1.2,1.1-.4.7,1.9-.9-.6-.4.5-.5,3.9,1.7,1.8-.9,1,.5,1,2.4,1.6-.3,1.9,1.1v.7c.1,0,1.9.3,1.9.3l2.9,4.7,1.3-.2.3-.8h1s-1,.5-1,.5l1.1,2.1-1.6,1.2.7,2.9-1.6,4.2.8,1.3v1.1c0,0-1.2,1.5-1.2,1.5l-1.7.3-1.3,1.8-3.1,1.7-.6,1.8-3.7.7-1.7,3.5h0l-2.5-1.5-.3-1.5-.8-.5-4,.9-.8,1.5h-2.9c0-.1-2.2,2.2-2.2,2.2l-.4,1.2-1.6-.5-.9,1.2-2.2-.3-.5,1.9-1.3.8.5.6h-.6c0,0,.2.6.2.6l-2.2,2.1.3.7-1.4.7-.3,1.4h-.5s.3.8.3.8l-1.9,1.6v.6s-2.5.6-2.5.6l-1.4.8-.2.7-.6-.4,5,10.2h1.3s-.7,1.3-.7,1.3l.4,1.8h0l-.8.2.8,1-1.2.3.5.9h-1.1s.2,1,.2,1l-2.8.2-.3.9-1.8-.2.5,1.1h-1s-.6,1.2-.6,1.2l-1.3.4-.8-.7-2.9.8v-.4c0,0-2.5-.6-2.5-.6l-.7-1.3-2.6.3-2.1-1.8-.4.9-1.3-.5-1.9,1.1-.9-.5-.4,1.4-2,1.3-2-.5-.5-1.1-2.3.3h0l-1.3-1.1h-1.5c0-.1-2-1.9-2-1.9l-4.7-5.3-1.6-3.4-1.9-.5-.5-1.4-3.7-2.1-1.3-1.9v-.7c-.1,0,8.9-19.2,8.9-19.2l-.9-.3.2-2.5.8-.9.5-2.3-.6-.8,1.2-.6.9-2.3-.4-.8h0l1.4-.4,1-2.3,1.8-1.1.4-1.3,5.2-2.6,1.3.2,2.4-1.7,1,.7,2.2.3.4,1.5h.8s.3-2,.3-2l2.4-2,.6-1.5h1.1c0,0,.5-.5.5-.5h2.7c0,0-1.1-.6-1.1-.6l.7-1.7-1.3-1.8,1.4-.5.5-.8h.9c0,.1.7-1.6.7-1.6l1.2.2.8-1.1,1.9-.8.9.9.3-1.7,1.8,1.2,2.1-.2.3.8,2.3-2.2,1.6,1.3.9-.6,1.1-2Z"/>
    <path id="ZA-GT" d="M278.9,57.5l2.4-.3.5,1.3-2.1,1-.6,4.5.9,3.2,2.6.2,1.8-2.2,1.6-.4.4,1.4-1.6.6.3,1.2-.8,1.5v1c.1,0-.9-.2-.9-.2l-.6,3.1-3.7-.6-.9,1.6-1.8.2,1,2.7,1.6.5v1.2c0,0,1.2.7,1.2.7l2.2-.6.7,1.5-1.9.9v1.1s-3.3.6-3.3.6l-1.4,1.9-1.5.5-.3,1.2.4.6-1.4.7.3.8-.4.8h0l-.6-.4-1,.2-.5-.8-.5.8-2-2-1-2.2-1.3,1.1-1.6.3-.4.7-2-.4-.2-.6-1.4.8h0l.5-2.7-.6-.7,1.1-2.4h-1.6c0,0-.5-.7-.5-.7l-2.3.5.2.5-2.2.8-.7-2.2,2.3-1.8-.6-2.5h1.1c0,.1,0-.6,0-.6h1c0-.1.8-4.7.8-4.7l2.9-1.6.8,1.5.8-.5v.7c0,0,3.5-.9,3.5-.9l.2-1.6.5-.2-.7-1.9,1.3-.2,1.4-1.5-.6-2.5,1.3-.2-.3,1,2.9-.7v-1.8h0l3.3-.2v-.9c.1,0,2,.4,2,.4l1.1-1.1h-.6s-.6-1.2-.6-1.2Z"/>
    <path id="ZA-LP" d="M296.6,3.2l4.2.9,3.3,2.1,1.6-.3,1.1,1,8.9-1.1,7.2,1.2,5,14.6v5.2s2.2,2.7,2.2,2.7l1.2,4.7,1.9,1.3h0l-1.6.2-1.3,1.6-.9-.7-.9.7-2.4-.6-.7.8-2.4.6h3.7c0-.1,0,.9,0,.9l-.9.8.2,1.9-1.4,1.9.9.6-.4.7h1.5s-.7.7-.7.7l.4.6,2.4,1v1l-1.3.2-.9,1.1h-2.2l.3,2.1,2.1.2v2.7c-.1,0-2.5-.3-2.5-.3l-1.3.8h-2.5s-.9-.9-.9-.9l-.5-2.5-1.6-.8v-2.6c.1,0-1.4-1-1.4-1l.7-.9-1.4-1.2-2.2,1.3-.7-.3v1.1s-1,1-1,1l-.7-.9-2.4-.8-.3.8-1.9-.5v1.1c0,0-1-.7-1-.7h-1.5c0,0,.2,2,.2,2l.9.8-.2,1.2h-1c0,.1-4.1,3.5-4.1,3.5v.6s-1.2.1-1.2.1l1.1,1.7-.7.3-.5,1.2-2.9-.5-2.5-3.6-1.1.3.5-.9-.5-2.1-1.7-.4-1,.3-.2,2-1.8.7-.7-1.4-1.9-.5.3,1.4h-3.4c0,0-2.2,1-2.2,1v1.4s-2.4.6-2.4.6v.6s-1.6.5-1.6.5v1.1c0,0,4.2-1.3,4.2-1.3h0l.6,1.2h.6s-1.1,1.1-1.1,1.1l-1.8-.4v.9c-.1,0-3.4.2-3.4.2h0l-1.2-2-1.5.2v-.9c0,0-1-.2-1-.2l.2-.9h.6c0-.1,1.6.4,1.6.4l.3-1.2-2.4-1.2-2-.4-1.4.4.3-.9-1.2-.3v1c0,0-1.9.3-1.9.3l-1.5-.7-1.3,2.5-.9-1-2.1.2-1-1.3h-2.2c0-.1-.5-1.5-.5-1.5l-1.2-.5-.4-3.1h-.7s0,.9,0,.9l-3.7,1.8h-1c0,0-1.1-.9-1.1-.9l-3.5-.2-.6-1.2v-1.9h0l1.2-.9,1.4-2.5,1.8-1,.3-.9,3-1.4v-2.9c0,0,2.4-8.3,2.4-8.3l.4.7.5-.2v-1s1.6-.9,1.6-.9l-.2-.8,1.1.2-.2-.6,1.9-.9.4-.9.7.5.5-.6.2.6.5-.7h1.4c0-.1,1.2-3,1.2-3l1.4-.3.9.5.7-1-.3-.6,2.8-1.5v-1.7c0,0,1.8-1,1.8-1v-1.3s1.8-1.2,1.8-1.2l.8-1.8,2.4-1.7,2.8.2,5.3-1.8.6-.7.8.2,1.9-4.3h1.9c0,0,.8-.6.8-.6l2.2.4,5.6-1.2Z"/>
    <path id="ZA-MP" d="M333.1,36l.6,4,1.2,2.1.4,2.7.4,14.9-.9,3.9.5,2.8-1.2,3.5.7,2.2-1.9.9-7.4-5.1-1.7.4-3.1,3.2-2.5,5.7-2.5,3.4-.6,2.7.3,4.8.5.2,1-.9.2,1.3,1.1,1.1v1.8c0,0,2.8,3.3,2.8,3.3l2.3.9h0l-1.8,2.3-1.2-.7-2.5.4-.7-1-1.4.7-2.4-1.2-1.8.8h-2.3c0-.1-1-.9-1-.9l-3.9,2.2h0l-1.4-.5-.8.5h0l-1.4-.5-1.4.4-.8,1.5-.5-.2h-1s-.3.8-.3.8l-1.3.2-2.9-4.7-1.8-.3v-.7c-.1,0-2.1-1.1-2.1-1.1l-1.6.3-1-2.4-1-.5-1.8.9-3.9-1.7-.5.5.6.4-1.9.9.4-.7-1.2-1.1-1,.5-.5-1-1.8-.3h0l.4-.8-.3-.8,1.4-.7-.4-.6.3-1.2,1.5-.5,1.4-1.9,3.3-.6v-1.1s1.9-.9,1.9-.9l-.7-1.5-2.2.6-1.2-.7v-1.2c0,0-1.6-.5-1.6-.5l-1-2.7,1.8-.2.9-1.6,3.7.6.6-3.1,1.1.2v-1c-.1,0,.7-1.5.7-1.5l-.3-1.2,1.6-.6-.4-1.4-1.6.4-1.8,2.2-2.6-.2-.9-3.2.6-4.5,2.1-1-.5-1.3-2.4.3h0l-4.1,1.3v-1.1c0,0,1.5-.5,1.5-.5v-.6s2.5-.6,2.5-.6v-1.4s2.1-1.1,2.1-1.1h3.4c0,0-.3-1.3-.3-1.3l1.9.5.7,1.4,1.8-.7.2-2,1-.3,1.7.4.5,2.1-.5.9,1.1-.3,2.5,3.6,2.9.5.5-1.2.7-.3-1.1-1.7h1.1c0-.1,0-.7,0-.7l4.1-3.4h1c0-.1.2-1.3.2-1.3l-.9-.8-.2-1.9h1.5c0,0,.9.6.9.6v-1.1c0,0,2,.5,2,.5l.3-.8,2.4.8.7.9,1-1v-1.1s.7.3.7.3l2.2-1.3,1.4,1.2-.7.9,1.5,1v2.6c-.1,0,1.5.8,1.5.8l.5,2.5.9.9h2.5s1.3-.8,1.3-.8l2.3.3v-2.7c.1,0-1.9-.2-1.9-.2l-.3-2.1h2.2l.9-1.1,1.3-.2v-1l-2.4-1-.4-.6.7-.7h-1.5s.4-.7.4-.7l-.9-.6,1.4-1.9-.2-1.9.9-.8v-1h-3.7c0,.1,2.4-.5,2.4-.5l.7-.8,2.4.6.9-.7.9.7,1.3-1.6,1.6-.2h0v.3Z"/>
    <path id="ZA-NC" d="M137.9,52.1l2.7,1.1,1.9,1.9,1,2.2h.5s-.1,1.1-.1,1.1l1.4,1.4-.3.4.7,1.3.7.3.3,1.1h.8c0,0-.7,1.1-.7,1.1l1,1.3-.6.8h.5s-.1,1-.1,1l1.3,1.8-.2.8.7-.4.9,2.8-.2,2.8.5.7-4,6,.3,6.1,1,2,3.4-2.1,4,1.4,4.2-.9,2.1.7h2.9s1.4-1.2,1.4-1.2v-2c0,0,4.4-.9,4.4-.9l1.9-2.3.6-2,2.8-1.4,1-1.7h2.2c0-.1.3-1.5.3-1.5l.8-.6h1c0,0,0,8.3,0,8.3h2.4c0,.1.3.7.3.7h.9c0,0,.5.7.5.7l.4-.4,1.3.9-.7,1.5.6.8-.7,1.1,1.2,2.7-1.2.4-.2,1.7.7,1.8,1.1-.3,2,2.7,2.1.3,1.2,1.1.6-.2.6.6-.2.6h2.1s2.4,1.5,2.4,1.5l.9-1.2,1.3.3.6-.4-.7-.4.5-.9,1.5.3v-2c0,0,1.3.8,1.3.8l-.6,4.4,1,.4-.4,1.9.6.5,5.1-1.2.3,2.5-1.3,1.5,1.8,1.5-.5,1.1,1.4,1,1.7-1.7v-1.6c0,0,1.4-1.7,1.4-1.7v-3.4c-.1,0,1.1-.6,1.1-.6l.3,1.6h3.9s-3.1,3.9-3.1,3.9l1.8,3.6.8-.5h0l.4.8-.9,2.3-1.2.6.6.8-.5,2.3-.8.9-.2,2.5.9.3-9,19.2v.7c.1,0,1.4,1.9,1.4,1.9l3.7,2.1.5,1.4,1.9.5,1.6,3.4,4.7,5.3,2,1.8h1.5c0,.1,1.3,1.2,1.3,1.2h0l.2,3.3,1.2.2-1.2,1.4.8,1.5-1.4,2.3.4.5-1.4,1.3v1.1s-2.7-.2-2.7-.2l-5.9,2.5v.9c0,0-.6-.3-.6-.3l-.6.7h-3.7c0,.1,0,1.4,0,1.4l-.7.3-.3,4.2h-3.2c0,.1-.8,1.2-.8,1.2l-1.8-.6v1h-1.5c0,0-.7-1.2-.7-1.2l.3-.4h-1.4s-.3,1.3-.3,1.3l-1.4,1-1-1.1.5-.8-1.5-.6-.2-.6-2.1-.2-1.5,1-1.8-.4v.5c-.1,0-2.2.6-2.2.6l-.9,2.4-2.4,2.1-.6-1,.3-.8-1.5-.7-1.3.4-.7-.9-1.3.4-.6-.9h-2.6s.5-1.5.5-1.5l-.8-1-4.2-1.9-2,4v2c0,0-1.6-.6-1.6-.6v3.1s.8.8.8.8l-.7,1.4-.3-1-1,.5v1.8c0,0-1.2.4-1.2.4l-.2.8-1.1.2-2.1-1.2-.9.9-1-.8-1.3.4.2,1.6-1.4.3-.7.8h-2c0,0-.3,1.1-.3,1.1l-1.4.8-.8,2.2.3.8-2.5.8-.7-.4-2.9,1.2.4,2.2-.4,1.3-1.3,1-2,.2-.7-1-1.1.9h-1.2c0,.1-1.2-.5-1.2-.5v-.9c0,0-1.2-1.3-1.2-1.3l-1.6-.7v-1.8s-.9-.8-.9-.8l-1-4.6.7.4.6-1.3,1.1-1.1.4.2-1.1-2.4-1.4,1.5h-.7s-1.9,2.4-1.9,2.4l-2.1-.2-2.3,2-.5-.8-.4.3-.6,2.2.5,1.5-1.3.8-.8-1.6.3-2.2-1.5-3.5,1.6-.9-.2-3.2-2.7-1-.5-1.1-.8-.3.4-1.8-1.3,1.2-2.7-.8,1-2.7-.8-2,.6-1.4-.6-.5.4-.8-1.1-.4.3-2.3-.7-.7.6-.9-.9-.4-.3-3.1-.8-1.4.2-1,1.1-.9-1.7-1,1.5-.5-.3-2.5-1.5-.2-1.3-1.2.2-.7-.7-1-1.6-.4-1.5-2.2-1.2.3.4,2.5-2.1-2.4.3,1.2-.8,2.8-1.7,2.9-1.5.7-1.3-1.2h-1.6c0,0,0,2.5,0,2.5l-1.9.2.8,1.5-1.7,1.6.3,1.8-1.1-.5h0l-8-15.6-4-13.7-1.5-4.6-1.7-3-.4-2.3-1.1-.9-1-2.2-1.4-1.1-.5-2.6-1.8-1.7.2-1,1.5-.5,1.8-1.5.9.5,1.4-2.5-.9-1.8h1.1c0,0-.3-.9-.3-.9h.8c0-.1-.3-.9-.3-.9h.9c0,0,0-1.5,0-1.5l3.3-1,1.7,1.4.3,2.4,1.8-.3,1.1,1.3.4,2.2-1.2,1.1.8,1.9h.8s-.3,2.8-.3,2.8l2.6-.6,1.3,1.5,1.6-.5,2.8.4,2.4,2.1,2.1.7,1.4-.6,4,.2,3.8-1,3.6.4,1,1.4,1.7.7,1-.3,2-1-.9-1.7.4-1.2,3.2-.7,1.7-3.4,2.2-.2.7-.6,1.2.4,1.1-1.2,2.1-.2V50.1c0,0,1.7,2,1.7,2Z"/>
    <path id="ZA-NL" d="M337,87.9l1.2.9.7-.5,2.6.5h8.4c0,0-.2.7-.2.7l-.5,3.4-2.9,7.9-2,12-2.2,4.3-.4,2.6-6.5,6.7-4.1,1.6-7.1,8-4.6,7.4v1.9c0,0-2.8,3.4-2.8,3.4l-4.3,8.7-7.1,10.9h0l-2.3-4.4-1.4-.3-.5-1.2h-1s-1.3-1.3-1.3-1.3l-.8.3-1.5-.8-1,.2-2.2-1.4-2.4.8-4.1-1.3v-1s-1.2-.6-1.2-.6l-.9,1.4-1.5-.3-.7-1h-.8c0-.1-.4-2.6-.4-2.6l.6-1.4,1.4.6.4-1.2.8.2.9-1-.2-.6,1.5-.5.7-1v-.7s-1.5-1.5-1.5-1.5h0l2.3-1.4-.7-1.6.3-2.3.5-1,1.9-.7v-.7s.6-.2.6-.2l-.4-1.7,2-1.1.6-1.6-2.2-4.9h-1.2s-.7-1.1-.7-1.1l-2.3-1.1-3.5-4h0l1.7-3.5,3.7-.7.6-1.8,3.1-1.7,1.3-1.8,1.7-.3,1.1-1.5v-1.1c0,0-.7-1.3-.7-1.3l1.6-4.2-.7-2.9,1.6-1.2-1.1-2.1,1-.4h0l.5.2.8-1.5,1.4-.4,1.4.5h0l.7-.5,1.5.5h0l3.9-2.2,1,.8h2.3c0,.1,1.8-.7,1.8-.7l2.4,1.2,1.4-.7.7,1,2.5-.4,1.2.7,1.8-2.3h0l3.5,1.3h7.8s.6-9.3.6-9.3h1.6Z"/>
    <path id="ZA-NW" d="M242.4,48v1.9c0,0,.5,1.2.5,1.2l3.5.2,1.1.9h1c0,0,3.7-1.7,3.7-1.7v-.9c0,0,.8,0,.8,0l.4,3.1,1.2.5.5,1.4h2.2c0,.1,1,1.4,1,1.4l2.1-.2.9,1,1.3-2.5,1.5.7,1.8-.3v-1c0,0,1.3.3,1.3.3l-.3.9,1.4-.4,2,.4,2.4,1.2-.3,1.2-1.6-.6h-.6c0,.1-.2,1-.2,1l.9.2v.9c0,0,1.6-.2,1.6-.2l1.2,2h0v1.8l-2.9.7.3-1-1.3.2.6,2.5-1.4,1.5-1.3.2.7,1.9-.5.2-.2,1.6-3.5.9v-.7c0,0-.9.5-.9.5l-.8-1.5-2.9,1.6-.8,4.6h-1c0,.1,0,.8,0,.8h-1.1c0-.1.6,2.4.6,2.4l-2.3,1.8.7,2.2,2.2-.8-.2-.5,2.3-.5.5.8h1.6c0,0-1.1,2.4-1.1,2.4l.6.7-.5,2.7h0l-1.1,2-.9.6-1.6-1.3-2.3,2.2-.3-.8-2.1.2-1.8-1.2-.3,1.7-.9-.9-1.9.8-.8,1.1-1.2-.2-.7,1.7h-.9c0-.1-.5.7-.5.7l-1.4.5,1.3,1.8-.7,1.7,1.1.7h-2.7c0,0-.5.5-.5.5h-1.1c0,0-.6,1.4-.6,1.4l-2.4,2-.3,1.9h-.8s-.4-1.5-.4-1.5l-2.2-.3-1-.7-2.4,1.7-1.3-.2-5.2,2.6-.4,1.3-1.8,1.1-1,2.3-1.4.4h0l-.8.5-1.8-3.6,3.1-4h-3.9s-.3-1.6-.3-1.6l-1.3.6v3.4c.1,0-1.2,1.7-1.2,1.7v1.6c0,0-1.7,1.7-1.7,1.7l-1.4-1,.5-1.1-1.8-1.5,1.3-1.5-.3-2.5-5.1,1.2-.6-.5.4-1.9-1-.4.6-4.4-1.2-.8v2c0,0-1.5-.3-1.5-.3l-.5.9.7.4-.6.4-1.3-.3-.9,1.2-2.4-1.4h-2.1s.2-.6.2-.6l-.6-.6-.6.2-1.2-1.1-2.1-.3-2-2.7-1.1.3-.7-1.8.2-1.7,1.2-.4-1.2-2.7.7-1.1-.6-.8.7-1.5-1.3-1-.4.4-.5-.8h-.9c0,0-.3-.5-.3-.5h-2.4c0-.1,0-8.4,0-8.4h-1c0,0,.7-1.7.7-1.7h.9c0,0,.4-1.8.4-1.8l-.5-.4,1.1-1.4-.7-.5,1.3-1.9-.2-1.1.7-.4-.6-.5.5-1.7,2-2,.7-1.6h.8c0,0,.2.6.2.6l2-1,3.6.7.8-.6,2.9,2.9.4-.3,2.6,1.9v.5c-.1,0,1.4,1.5,1.4,1.5h1.7c0,0,0,.5,0,.5h.8c0,0,0-.4,0-.4h2.1c0-.1,3,2.5,3,2.5l1.2-.5,3.4,1.5h2.4c0,.1,1.8-.1,1.8-.1l2.4-1.7,1.3.7,3.6.2,4.1-2.7,1.9-6.2,2.9-6.7-.3-2.9,8.9-2.1Z"/>
    <path id="ZA-WC" d="M433.1,506.8l-1.3,2-1-.5-2.3.2-.8-.8,1.8-2.7,1.9.3,1.7,1.5ZM434.5,501.1l-1,.3-1-1.2.6-.4,1.2.3.2,1ZM195.4,225l-2.5.8-.7.5v1.2c-.1,0-6.1-.7-6.1-.7l-.7.3-6.2-1.8-2.4,1.3h-3.4c0,0-1.9,1.1-1.9,1.1l-.2.9.8.5-3.8,1.1-.3.7.6.4-.5.8-1.7.8-2,.3-2.6-.8-1.5.2-2.3,1.5-2.9-1.2-3.7-.2-.9.5v1.6c-.1,0-3.2-.5-3.2-.5l-3,.8-1.3,1.7-2.7,1.6-.2.7-2.5.9-.4,1.6-1.1.5-1.9-1.4h-3.1c0,0-.9.5-.9.5v-.7c0,0-3.8-3-3.8-3l-2,.5,1.5-1.8-1.2-2.4-.6-.3-.8.6-1.6-.4-.4-1-1-.5-3.5,1-.3-1.8.7-.9-.6-1.2.8-.6-1.6-1.5h-2.6c0-.1-2.9,1-2.9,1l-.2,1.1.9,1.1-.3,1.5.6.8h-.4s-1-.7-1-.7l-.8-2.5-.9-.9.7-1.9-.9-.3,1.5-2.8.7.4.8-.8-.8-3.7-1.3-2.2-.8-.3-.4-2.2-2.3-2,.2-.6-1-1.9-2.1-1.8-.3-.6.5-.8,1.8,2.7.6-.2-1.6-1.7v-1.5s-.9-.6-.9-.6l-.6.8h-.8c0,0-.6-2.5-.6-2.5l.4-1-.6-.8,1-.5v-1.1c-.1,0,1-.9,1-.9l1.5,1.7h1.2c0-.1,2.9-3.9,2.9-3.9l.5-2.5-.4-2.8.5-.7-1.1-7.5-2.7-6.1-6-8.4h0l1.1.5-.3-1.8,1.7-1.6-.8-1.5,1.9-.2v-2.4c0,0,1.6,0,1.6,0l1.3,1.2,1.5-.7,1.7-2.9.8-2.8-.3-1.2,2.1,2.4-.4-2.5,1.2-.3,1.5,2.2,1.6.4.7,1-.2.7,1.3,1.2,1.5.2.3,2.5-1.5.5,1.7,1-1.1.9-.2,1,.8,1.5.3,3.1.9.4-.6.9.7.7-.3,2.3,1.1.4-.4.8.6.5-.6,1.4.8,2-1,2.7,2.7.8,1.3-1.2-.4,1.8.8.3.5,1.1,2.7,1,.2,3.2-1.6.9,1.5,3.5-.3,2.2.8,1.6,1.3-.8-.5-1.5.6-2.2.4-.3.5.8,2.3-2,2.1.2,1.9-2.4h.7s1.4-1.4,1.4-1.4l1.1,2.4-.4-.2-1.1,1.1-.6,1.3-.7-.4,1,4.6.9.8v1.8s1.6.7,1.6.7l1.2,1.3v.9c0,0,1.3.7,1.3.7h1.2c0-.1,1.1-1,1.1-1l.7,1,2-.2,1.3-1,.4-1.3-.4-2.2,2.9-1.2.7.4,2.5-.8-.3-.8.8-2.2,1.4-.8.3-1h2c0,0,.7-.9.7-.9l1.4-.3-.2-1.6,1.3-.4,1,.8.9-.9,2.1,1.2,1.1-.2.2-.8,1.1-.4v-1.8c0,0,1.1-.5,1.1-.5l.3,1,.7-1.4-.8-.8v-3.1s1.5.6,1.5.6v-2c0,0,2.1-4,2.1-4l4.2,1.9.8,1-.5,1.5h2.6s.6.9.6.9l1.3-.4.7.9,1.3-.4,1.5.7-.3.8.6,1,2.4-2.1.9-2.4,2.1-.6v-.5c.1,0,1.9.4,1.9.4l1.5-1,2.1.2.2.6,1.5.6-.5.8,1,1.1,1.4-1,.3-1.2h1.4s-.3.4-.3.4l.7,1.3h1.4c0,0,.3.5.3.5l-1.1,1.6.9-.2.9,1-.7,1.1-1,.3.4.7h-.6c0,0,0,.8,0,.8h.5s0,.7,0,.7l-.7.6h-.8c0-.1,0,.4,0,.4l-2.6,1.4-2-1.4-1.6,1.1v1.9c-.1,0-3.7-.1-3.7-.1l-.7,1-1.1-.5-1.9,1.4,1.4,4-.7.5,2,2.2v1.1c-.1,0-3.2-.7-3.2-.7l-.9,1-1-1.4.5,1.8-1.5.3-1.1,1.3v2.9s-2.9,4.4-2.9,4.4h-.6c0,.1.4,1.7.4,1.7l9-.2.5.8h2.6c0,0,1.6,1.1,1.6,1.1v1.5c.1,0,1.3,1.1,1.3,1.1v.8c0,0-1.9-.2-1.9-.2l-2.1,1.3-.8,1.3h2.9s0,.9,0,.9l2.4.9-1,1.3.2.9h-1.2Z"/>
  </g>
</svg>