<?xml version="1.0" encoding="UTF-8"?>
<svg id="Layer_1" xmlns="http://www.w3.org/2000/svg" xmlns:amcharts="http://amcharts.com/ammap" version="1.1" viewBox="0 0 512 512">
  <!-- Generator: Adobe Illustrator 29.1.0, SVG Export Plug-In . SVG Version: 2.1.0 Build 142)  -->
  <g id="_x3C_defs">
    <amcharts:ammap bottomLatitude="3.479946" leftLongitude="24.152855" projection="mercator" rightLongitude="35.871799" topLatitude="12.219326"/>
  </g>
  <g>
    <path id="SS-BN" d="M113.4,187.3l3.3.2,13-4.6,4.1-.8,7-.4,15.4.4,5.8.7,4.7-.5,5.7,11.5h30.7c0-.1-.5-2.3-.5-2.3h1.4c0,0,4.9,2.1,4.9,2.1l1.7,2.3-2.4,3.3-1-.3-2.8,1.5-.7,1.9.9,1.4-.6.6-1.1.2-2.3,2v.4h.1l-1.3.7-2.1.2-2.4-.7-3.4,1.6h-1.7c0,.1-2.7-.7-2.7-.7l-1.3.5-3,1.9-1.3.4-.8-.3-.4-.8h-.4c0-.1-.5.6-.5.6h-.7c0,.1-.4-.1-.4-.1l-1.6.6h-.4c0,0-.5-.8-.5-.8h-.4c0,0-.8,1-.8,1h-.4s-.5-1.1-.5-1.1l-1.3-.5-.8,1.1h-.4s-1-.8-1-.8l-.9.8h-2.2c0-.1-.7.2-.7.2l-.6-.4-.3-.6-.7.3-.3-.6h0l-.4-.2-.4.2-.3.8h0l-1.5-.6-.8,1.2h-.2c0,0,.4-.9.4-.9h-1.5c0,0-.2.5-.2.5l-1.5-.3-.7.5h-1.5c0,0-1.3,1.1-1.3,1.1v.7c-.1,0-1.6.4-1.6.4l.5.5.2,2.1.6.9.4,1.6,1,1.2.3.8,1.2.9-1,1.2.4.6v.6s-.7,1.1-.7,1.1l-1.5,1.2-3.4-1.1h-1.5c0,0,1.1,2.2,1.1,2.2l1.1,5.3,3.1,2.6,1.4,2.2-2.3,1.2h0l-1.4-.5-2,.6-.3.4-24.6,12.4-5.9,3.9-21.4-13.6-2.6-8.7-1.3-9v-6.2c0,0-.6-.8-.6-.8v-2.7c.1,0-1.6-1.1-1.6-1.1l-.4-7.6,3.3-36.1h0l3.3,10.5,3.3,3.9,11.5,3.5Z"/>
    <path id="SS-BW" d="M82.5,148.6l.8.9v8.6c-.1,0,1.9.6,1.9.6l2.9,1.8,1.2,1.8.7,1.8,5.3,5.3h0l-3.3,36.1.4,7.6,1.7,1.1v2.7c-.1,0,.5.8.5.8v6.2c0,0,1.2,9,1.2,9l2.6,8.7,21.4,13.6,5.9-3.9,24.6-12.4.3-.4,2-.6,1.4.5h0l2.6,13-.4,1.2.5,2,2.5,2.6,2.9,1.7,1.8.7.9,1.4h1.3s1.5,1.4,1.5,1.4h1.1c0,0,5,2.5,5,2.5l2.4,2.8.4,1.3-.7,2.4v3.1c.1,0-.7,4.6-.7,4.6v.7c.1,0-.6,1.1-.6,1.1l-.3,1.5.7,2v1.6c.1,0,16.8.6,16.8.6v17.3h0l-18.9.2-4.6-2.3-64.5,6.4h0l-.9-.4-1.4-1.4h-1.1c0,0-.7-.6-.7-.6l-2.2-.2-.2-1.1-2.1-.6v-.7c0,0-1.3-1-1.3-1v-.6c.1,0-.4-.5-.4-.5h-2.2c0,0-.4-.5-.4-.5l-.8-1.3.2-2.1-.2-.2-.7.3-.3-.4v-.6c0,0-.8,0-.8,0l.6-.8-.4-.9.4-.8-.2-.6-.8-.3h-1.9s-.3-1.3-.3-1.3l-2.1-.2-.3-.7-1.2-.3.5-.7-.7-.6h-.6s-.5-.4-.5-.4l-1.9-.2-.2-.2.6-1.2-.3-.3-2.8-.4v-.6s-.9-.1-.9-.1l-.4.3-.8-1h-1.5s-.7-.8-.7-.8l-2.1-.3v-.7c0,0-.4-.2-.4-.2l-.4.5-.4-.2v-.7c0,0-.4-.4-.4-.4l-.4.3-1-1.1h-.7c0,0-.2.4-.2.4h-.3s-.3-.4-.3-.4l-.6.3-.6-.8-.5.2v-1s-.6.1-.6.1l-1.4-1.3-.6.4-.5-.7-.7-.2-1-3.3-.5-.2-.6.2v-.5c-.1,0-1.1-.7-1.1-.7l.2-.4-.5-.6-.2.3-1.3-.2-.5-.5-1.1-.2v-2c-.1,0-.6-1.1-.6-1.1l-.6-.4v-.4c0,0,1.6-.8,1.6-.8l.2-.5h.7s.2-.5.2-.5h.8s1.3-.8,1.3-.8v-1c0,0,.7-.1.7-.1v-.3s-1-1.1-1-1.1l.3-.7-.2-.5.5-.9-.2-2.3h-1s0-.5,0-.5l-1.6-1.9v-.5s-.7,0-.7,0l-1.4-1.5-3.7.8-1.5-1.9-3.7-2.4-.7-1.4-2.1-1.5-.7-3.7-1-1.8h-.5c0-.1-.3.1-.3.1l-.6-.6-3,.3-.9-1.1h-1.6c0,0-.9-.5-.9-.5l-1.5-.3-3.9.9-1.6-.8-.5-.7h-.4s-.8-1.5-.8-1.5l-2.6-.2-1.8,1.2-.9-.2-.5-.6-1.6.2-2.7-.9-1.4-.8-2.1-2.8.4-3.9.3-.8,2.6-3.2,1.5-1.4-1.1-.9-.5-.9,1.1-2,4.5-3.9,5.7-2.9,1.9-2.7,1.6-1.4.2-1.3-1.3-4.2,2.1-8.5,1.2-2.2-.7-2.8,5.4-4,.9-2.1v-2s-.5-1.6-.5-1.6v-3.8s-.5-1.5-.5-1.5l1.1-1.2,1.1-2.7,2.1-.7,3.4-2.5,2-2.7,1.1-2.9,1.2-2.3v-1l-.6-1.2v-1.5l2.4-4.8,2.5-1h1.1c0,.1,3.4-.6,3.4-.6l1.4.5,2.3-.2.8-.4h1.5c0-.1,2.2-.8,2.2-.8h2.2s6.1-1.8,6.1-1.8l3.3-.4h2.5s.6-.5.6-.5l3-.7,2,.6.7.6Z"/>
    <path id="SS-EC" d="M267.9,331.7l9.8-.2,3.8-6.8,17.3,14.6,8.2-.6,15.2,1.6,4.6,2.6.2-1.7h.8s17.1.2,17.1.2h0l-.7,27.3,3,10.7-.4,6.9,2.7,7.7-1.9,2.1-3.1,1.1-1.5,1.4v9.6c.1,0-2.9,4.3-2.9,4.3v2.1c.1,0-.3.3-.3.3l-.3,1.3-1.2-.5-4.3,2-3.9.2-1.8,1.9,3.4,7.1h0l-.3.3.2.7-2.4,1.9-.7.2-.8,1.1-5.6,1.8-2.5,1.9-.7-.2.3-1.4-6.6-3.2-2.6-1.8h-5.3s-.5.7-.5.7l-2,1.2-.2.6-1-.3h-.4c0,.1-.3.4-.3.4v.6c0,0-1.2,1-1.2,1h-.4c0,.1-.8-.5-.8-.5l-1,.5-.4,1-.5.2-.3.6v.9c0,0-.4.6-.4.6h-.5c0,.1-.2.8-.2.8l-.5.2-.9,1.7-1.1,3,.4.2h-.3c0,0-.4-.2-.4-.2l-.3-.9.7-2.3-2.7-1.2-.6-1.3v-1.5c0,0-.6-.8-.6-.8l-.7.3-.9,1.8-.7.2-2.2-.7-3.2,1.8h-1.4c0,0,0-.5,0-.5l.8-1.5.4-1.6-.7-3.9-.7-2.1v-1.6c0,0-.3-.4-.3-.4h-1.1s-1.2.5-1.2.5h-.9c0-.1-1.2-1.2-1.2-1.2h-1.4c0,0-1-1-1-1l-1.4-.3-1.1-.7h-1.2s-1.1-1.1-1.1-1.1l-2.2.8-.9-1.1v-1.8s-1.8-2-1.8-2v-1.8c-.1,0-1.4-.7-1.4-.7h-2s-1.3-1.4-1.3-1.4l-.5-1.8-2.2-1.6-1.7-.3-.2-.3.8-1.5-.9-1.6-2.1-1.3-2.3.4-1.7-1.3v-2.9c-.1,0,.3-2.3.3-2.3l-.5-.8,1.2-1.2.2-.6-.5-.4h0l2.7-1.9,2.9-1.6,5-.2,5.5-2.4h1.4s2.7.9,2.7.9l4.4,3.3,1.1-.2,3.5-2.4.5-1.5v-2.8c.1,0,.9-1.4.9-1.4l1.3-.7,5-1.5,4.7-3.5,2-.2,1.5-2.4.5-2.5-.5-1,.4-3.4-.8-2.5.9-7.6h4.1c0-.1.4-6.9.4-6.9l-14.4-7.8-15.4-14.4Z"/>
    <path id="SS-EE" d="M471.2,346.8l1.2,2-.2,2.6,7.6,5.2.2,1.6-.6,1.4-.2,1.8.6,2.1h1.5s1-.6,1-.6l2-.5,3.1-2.2,2.3-.3h1.9c0,.1,3.3,1.5,3.3,1.5l3.6.5.9.8,2.8.9,1.1.7.2.5-.3.8-1.1,1-.2.5v.9c0,0,.6,1.1.6,1.1l.7.6.2,1v.7c-.1,0-1.9,1.9-1.9,1.9l-.3.7v3.9c0,0-.9,11.1-.9,11.1l3.5,4.4h-3.3s-.4-1.9-.4-1.9l-.8-.4-1.3.6-1.3,1.9h-5.1s-3.3-5.9-3.3-5.9l-.8-.6.7-1.4.7-4.6h.2c0,0,.6-1.7.6-1.7l-5,.6.9-4.8h-1.4c0-.1-2.4,2-2.4,2l-2.2,1.1h-1.6c0,.1-14.1,5.2-14.1,5.2l-23.6,9.9-16.1,15.5,1.1.8-.7.6-.6-.6-20,20.2-14.2-1-6.4-4.8-5.4,3.3-7.7,2-12.9.9-9.2,6.1.5.4.4,1.2-.4.6-.3,1.8-4.9-1.1.2-.7h-.3s0-.4,0-.4l.2-.2-1-.7-.4-.6-4,.9-.3-2.4.4-.8v-.5c-.1,0-3.8-5.3-3.8-5.3l-1.9-1.5-.9-.2h0l-3.4-7.1,1.8-1.9,3.9-.2,4.3-2,1.2.5.3-1.3.4-.3v-2.1c-.1,0,2.8-4.3,2.8-4.3v-9.6c-.1,0,1.4-1.4,1.4-1.4l3.1-1.1,1.9-2.1-2.7-7.7.4-6.9-3-10.7.7-27.3h0l47.7.3,29.5,4.5,8.5.7,36.5-11.4h0l-.5,1.7.4,1.3-.3,1.2,2.3,3.3,2.1,3.7Z"/>
    <path id="SS-EW" d="M103.7,308l64.5-6.4,4.6,2.3,18.9-.2h0v10.8h.1-1.4c0,.1.1,2.6.1,2.6l1.5,2.2v.5s-1.2,1.2-1.2,1.2l-.2,1.6.2.7,2,1.5.8,1.7,1.3,5.5.6.6,2.6.4,1,1.1,1.5,3.6,4.7,5.1,4.8,1.6,2.1,1.6.5,1.1,24.6,2.2-.6-2.2.2-1.6,1.2-2.4,1.4-4.9v-.8c0,0,.4-1.1.4-1.1l.8-.2,2.2-1.7,3.1-2.7.3-.6-.2-1.5-.5-.8.6-2.2v-2.6s-1.1-3.3-1.1-3.3l.3-.7h15.1s1.1,4.9,1.1,4.9l2.3,4.6-.5,2.5h4.2s15.4,14.3,15.4,14.3l14.4,7.8-.4,6.8h-4.1c0,.1-.9,7.8-.9,7.8l.8,2.5-.4,3.4.5,1-.5,2.5-1.5,2.4-2,.2-4.7,3.5-5,1.5-1.3.7-.8,1.4v2.8c-.1,0-.6,1.5-.6,1.5l-3.5,2.4-1.1.2-4.4-3.3-2.7-.9h-1.4s-5.5,2.4-5.5,2.4l-5,.2-2.9,1.6-2.7,1.9h-1.2s-.7-.9-.7-.9l-1.2.5-1.3-1.9-3.9-1.9-.8.5-.9-.6h-.7c0,.1-.1-.2-.1-.2l-1.2.5-1.1-1.5-.6.8-1,.4.4,3-1.4,1.4v1.5c0,0-1.3,1.7-1.3,1.7l-2.1.9-.8,2.5-.7.7-1.1.2-1.4-.6-.7.3.3.9-.3.9-1.2.4h-.5c0,0-.6-1-.6-1l-2.4-2v-.8s-2.4-.2-2.4-.2v-1c.1,0-1.3-.2-1.3-.2l-.6-1.1-1.1-.4-1.4.7h-2.7c0,0-.4.2-.4.2l-1.4-.7-.5.5h-1.2c0,.1-1-.6-1-.6v-1.7s-.8-1.1-.8-1.1l-1.5.9-1.7.2.2.5-.3.4-.9.3.3.9-1.5,2.7-1.5.4h-1c0-.1-1.1,1.5-1.1,1.5l-1.1-.2-1.7.4-1,1.5v.9c0,0-.8.3-.8.3l-.4.7-1.9.6-.8-.3-.7.2-.3-.3v-1.7s-.7-1.1-.7-1.1l-.7.2-.7-.3h-2.1s-.7.5-.7.5l-2.2-.3-1.1-1.2-1.8-.8.5-1.1-.4-.6-.4.2-.6-.4-.3.3h-.6c0,0,0,.6,0,.6l-.4.3-.7-1.5-.8-.3-.4-1,.4-3h-.9c0,.1-1.9-.3-1.9-.3l-.3.2-1.3-.8-.4,1-2.6-.2-1-1.1h-.5c0,0,0-.5,0-.5h-.6c0-.1-.3-.6-.3-.6l-.7.3-.4-.2v-1.3c0,0-.5-2.4-.5-2.4v-.3s.7-.5.7-.5v-1.3s-.9-2.1-.9-2.1l-.4-.2-1.8.2-.5-.7.3-.4-.8-2.1-1.4-1.3h-2.4c0,0-.9.2-.9.2l-.9-1.1-.8-.4-.6-1-.3-1.4-.8-.3-1.7-1.6-.3-.7v-1.5s-2.1-2-2.1-2l-.4-1.4-1.6-1-.4-.7-1.1-.2-1-1.2-.3-1.5-.7-.6-1.1-2v-.9c-.1,0,.4-.6.4-.6l-.7-.8-.3-1.9,1.1-3.4.8-1-.2-1.5.5-.9-1-.6-.9.5-.3-.9.3-1.4-1-1.1.2-.7-1.2-1.7-1.8-.9.8-.5v-.2c-.1,0-1.9-.3-1.9-.3v-.7s-.5.3-.5.3l-.2-.6-1,.2-.3.5-.4-.3-.5.2v-.8c-.1,0-1.2-.5-1.2-.5v-.7c.1,0-.3-.5-.3-.5l-.8-.4-1.6.4-1.3-.9-.5-1h-1c0,0-.8.5-.8.5l-1.3-.4-.4-.5-.2-2.5-.8-1.1-.5.2-.3-.4-1-.2-.7-.6-1.4.3-.7-.5h-.9c0,0-1.2.5-1.2.5l-1.5-.5-.6-.6h-1.1c0,.1-.8-.1-.8-.1l-.3-1-.6-.3-.3-1.6-.5-.6-1.4.5-.9.9h-.4c0,0-.2-.9-.2-.9l.4-.9,2.1-1.4,1-1.6v-.9c0,0-.7-.5-.7-.5l-1.2.5-.7-1v-1.7c.1,0-1.5-.9-1.5-.9l-2.2-.5-1.7-1.9-1.9-1.3-.2-.6.9-1.2-.6-.5.3-.8-.2-.2h-.7c0,.1.5-1.2.5-1.2l1.3-.2-.3-.6.7-1.2.6-.4v-1.1c.1,0,1.4-.2,1.4-.2v-.7s1.2-1.2,1.2-1.2v-.9Z"/>
    <path id="SS-JG" d="M285.7,283.6l-.8-.7-.6-1.9-1.1-1.1v-2.1s-.3-1.1-.3-1.1l-1.5-1.4-.3-1.2-1.1-.3v-.9s-1.2-.7-1.2-.7l-.3-.8h1c0-.1.1-1.7.1-1.7l-.7-1.4-1.4-.9.2-1-1.4-1.2.7-.8v-3c0,0,1.2-1.1,1.2-1.1l-.3-.8.8-.6-1-.3.6-.8-1-.5-.2-1.7-.5-.4v-.9c-.1,0-2.1-2.7-2.1-2.7l-.8-.4v-.3s.5-.3.5-.3l-1.9-2.5-.4-2.2-.6-.3-.8.5-.2-.9-.8.6h-.3c0,0-.7-2-.7-2v-2l1.1-.7-.2-.4h-.6s0-.5,0-.5l.9-.5.2-.4-.9-1.1v-.4c0,0,.8-.2.8-.2v-.3s-.8-3.1-.8-3.1l1.1-.7.8-2.5-.3-.6-1.1-.2v-1.2c-.1,0-1.3-.3-1.3-.3l-.4-1.1-.8-.7.5-1.5h-.3c0-.1-.3.4-.3.4v-.6l.7-1.9.9-.9.2-.7-.4-.7-1.2-.2-1.7-2v-.8s.8-.9.8-.9v-.7c0,0-.8-.4-.8-.4v-2.4c0,0-1.1-1.6-1.1-1.6l.4-1.6-1.1-1.6v-.7c0,0,.4-.9.4-.9l1.4-.4.3-1.1.7-.2.5-1.3h.7c0,0,.3-.6.3-.6l.7-.2v-1.3s.5-1.7.5-1.7l1.3-.5v-1c0,0,.8-.6.8-.6v-.5c0,0-.6-1.4-.6-1.4l.3-.9-.3-.8-.9-.3-.6-1.6,1.4-.5.6-1.7,1.4-1,.5-1.6,1.7-.9.5-.6.4.5.9-.4v-.8c0,0,2.5.8,2.5.8l5.9.2,2.1,1.3v-1.8c.1,0,.6,0,.6,0h1.5s1.1.3,1.1.3l.9-.3,1.9.4,2-.8h.9s2.5,1.2,2.5,1.2h.8c0,0,.8,1.1.8,1.1h0l2.9,2,18.5,7,5.1-.5.3.6v2.6c0,0,1.9,2.9,1.9,2.9l.6.3.2.4.4,2.2,1,1.5-.4,1.5v1c.1,0,1,.7,1,.7l.8,2.1.8.9v1.1c0,0,1.1,1.4,1.1,1.4l2.6,2,2.3,2.3,4.6-5.2,7.1-4,1.7-2.5,9.5,3.6,5.1,19.3,11.9,6.8-4,12.7h8.5s.1.4.1.4l-.3.6-1.1.9v1l.5,1.2-.5.4,1.8,2.9.2,1,1.5-.2.2-.3.9.9,2.4-.7,2.2,1h.9c0,0,1.8,1.3,1.8,1.3l.6-.2,1.1,1.7.9-.2.4-.5.4.2.6-.4h.7c0,0,1.7-.9,1.7-.9l.7.5.7-.3,1.1.7h1c0,0,1.1,1.1,1.1,1.1l1.7.7.8-.8.6.2.4-.3.6.7h1.5s.9,1.3.9,1.3l1.1.4.7,1,1.7,1h.6s1.7,1.5,1.7,1.5l1.6,2.1.7.3.7-.3,1.9.7v1.5c-.1,0,.4.2.4.2v.7s1.2.5,1.2.5l2.1,3.5v3.3s-.3.4-.3.4l-.7-.2v.4c0,0,1.4,1.6,1.4,1.6l1.4.5.7.6.3.7,1.2.2.7.8h.9s1.1.8,1.1.8v3.5s1,.4,1,.4l.7,1.3,1-.3,2.8,2,2.6.4,4.3,2.5,2,2.6.2,3.8,1.1.6,2.2.3.7-.7,2.2,2,1.1.2.3,1.4,3.1,3.4.7-.7h1.6s.5-.3.5-.3l1.4.5-.2.8.9.2,1.4,1.1.7,1.8,1.2.6.9,1.1.3.8-.5,1.8-.7.7v3.7c0,0-1.5,1.3-1.5,1.3v.7c0,0,.6,2.2.6,2.2v2c.1,0-.3,1.5-.3,1.5l.3,1.3,1.1,1.5.3,2.5h0l-36.5,11.4-8.5-.7-29.5-4.5-47.7-.3h0l-17.1-.2h0l-1.1-1.7-.6-1.6-.3-.2-.7.2-.8-1-1.6-4.7-2.1-2.5-.7-3-1-1.6-.3-2.2-.6-1.4-1.1-1-1.9-3-.4-2.2-.6-.9-2-1.2-.7-3.9-.8-.8-.4-1.1-1-1-.5-1.5-2.2-1.7-.7-.8-.3-.9-2.5-1.8-.8-1-.9-.4-.6-1.6-1.7-.6-1-.7-1.2-.2-1.3-1.6-1.2-.5-.4-.5-2.5-.8-.5-1.2-.9-.8-.4-1.6-1.5-.6-.9-1.4-1.2-.8-.2-1.6Z"/>
    <path id="SS-LK" d="M242.7,257.9l9.7,1.2,2.2,6.3,10.9,23.5,12.9,1.2,3.4-5.6,3.9-1h0l.2,1.6,1.2.8.9,1.4,1.5.6.4,1.6.9.8.5,1.2,2.5.8.4.5,1.2.5,1.3,1.6,1.2.2,1,.7,1.7.6.6,1.6.9.4.8,1,2.5,1.8.3.9.7.8,2.2,1.7.5,1.5,1,1,.4,1.1.8.8.7,3.9,2,1.2.6.9.4,2.2,1.9,3,1.1,1,.6,1.4.3,2.2,1,1.6.7,3,2.1,2.5,1.6,4.7.8,1,.7-.2.3.2.6,1.6,1.1,1.7h-.8s-.2,1.7-.2,1.7l-4.6-2.6-15.2-1.6-8.2.6-17.3-14.6-3.8,6.8-9.8.2h-4.2s.5-2.5.5-2.5l-2.3-4.6-1.1-4.9h-15.1s-.3.8-.3.8l1.1,3.3v2.6s-.7,2.2-.7,2.2l.5.8.2,1.5-.3.6-3.1,2.7-2.2,1.7-.8.2-.5,1.1v.8c0,0-1.4,4.9-1.4,4.9l-1.2,2.4-.2,1.6.6,2.2-24.6-2.2-.5-1.1-2.1-1.6-4.8-1.6-4.7-5.1-1.5-3.6-1-1.1-2.6-.4-.6-.6-1.3-5.5-.8-1.7-2-1.5-.2-.7.2-1.6,1.2-1.2v-.5s-1.5-2.2-1.5-2.2v-2.5c-.1,0,1.2-.1,1.2-.1h0l12.2,4.4,4.5-.6,2.5-2.7,1.7-2.8v-4.5c.1,0-.4-4.9-.4-4.9l-4.8-12.3,7.3-13.1,18.4-21.4,9.5,1.2Z"/>
    <path id="SS-NU" d="M370.8,70.4l24.6.7-1.9,2.4-2.7,17.4-2.5,6.8,7.1,32.9-2.5,4.5,9.8,3.2,7.9,9.4,5.1,3.6,4,7.1h3s.7,1.8.7,1.8l-.2,1.4.9,3.2v2.4c-.1,0,.1,1.3.1,1.3l-1.5,5.9-1.5,2.2-1.4,4.2v2.2c-.1,0,.3,2.2.3,2.2v2.2s9-.1,9-.1l1.3,13.5.4,8.9-.2,8.1.2,4.3v2.5c-.1,0-1,1.5-1,1.5l-1,1.1-1.1.3-1.6,1.3-.5.9-3.1-.4-2,.7-.7.9-.2,1-1.6.2-1.1,1.3-1.7,1.3-1-.2-1,.5-1.1-.4-.7-1.4v-1.5c-.1,0-2.7-1.2-2.7-1.2l-1,.9h-.9s-.6-.9-.6-.9h-2.7c0-.1-2.1,1.3-2.1,1.3l-1-.4-1.2,1-1-.3-.2-.4-2-.3-.3-.4-.8,1-.9-.7-1.1.4-.6.9-.7-.4v1s-1,0-1,0v1.1c-.1,0,0,1.2,0,1.2l1-.2v.6c0,0-.3.3-.3.3h-.8c0,0,.4,1.2.4,1.2l-.3.3h-1.1c0,0,.2,1.8.2,1.8l.2.3h.8s.2.6.2.6l-.5,1-1,.7.8,1.5v1.6c0,0-.5-.2-.5-.2l-.6.7-1.6.2v1.9c0,0-.7-.5-.7-.5h-.8s-.3,2.2-.3,2.2l-1.3.4-.4.4-.2.9h-8.5s4-12.7,4-12.7l-11.9-6.8-5.1-19.3-9.5-3.6-1.7,2.5-7.1,4-4.6,5.2-2.3-2.3-2.6-2-1.1-1.4v-1.1c0,0-.8-.9-.8-.9l-.8-2.1-.9-.7v-1c-.1,0,.2-1.5.2-1.5l-1-1.5-.4-2.2-.2-.4-.6-.3-1.8-2.9v-2.6c0,0-.4-.6-.4-.6l-5.1.5-18.5-7-2.9-2h0l-.6-.9-1-.2h0l-2.5-1.1h-.9s-2,.7-2,.7l-1.9-.4-.9.3-1.1-.3h-1.5s.8-10.3.8-10.3h.4l1.8,1.6,3.1-1.4h15.4s3.4-1.3,3.4-1.3l8.4-10.7,10.8-12.1,1.8-2.5,6.4-11.3,6.9-4.3,13.2-12.7-2.4-4.1-.8-3.1v-21.3c-.1,0-9.4-9.1-9.4-9.1h23.3s0-1.8,0-1.8l1-2,.2-1.7-.9-3.2v-4c0,0-.2-.7-.2-.7Z"/>
    <path id="SS-UY" d="M251.9,152.9l1.2.3h2.3c0,0,18.6,11.5,18.6,11.5l7.1,4.1,7.9,7.5h-.4l-.8,10.3h-.5c0,0-.1,1.8-.1,1.8l-2.1-1.3-5.9-.2-2.4-.8v.8c0,0-.9.4-.9.4l-.4-.5-.5.6-1.7.9-.5,1.6-1.4,1-.6,1.7-1.4.5.6,1.6.9.3.3.8-.3.9.6,1.4v.5c0,0-.9.6-.9.6v1c0,0-1.2.5-1.2.5l-.6,1.7v1.3s-.6.2-.6.2l-.3.5h-.7c0,0-.5,1.4-.5,1.4l-.7.2-.3,1.1-1.4.4-.5.9v.7c0,0,1.1,1.6,1.1,1.6l-.4,1.6,1.1,1.6v2.4c0,0,.9.4.9.4v.7c0,0-1,.9-1,.9v.8s1.8,2,1.8,2l1.2.2.4.7-.2.7-.9.9-.7,1.9v.6l.3-.5h.3c0,.1-.5,1.7-.5,1.7l.8.7.4,1.1,1.2.3v1.2c.1,0,1.3.2,1.3.2l.3.6-.8,2.5-1.1.7.8,3.1v.3s-.8.2-.8.2v.4c0,0,.8,1.1.8,1.1l-.2.4-.9.5v.4s.6,0,.6,0l.2.4-1.1.7v2l.7,1.9h.3c0,0,.8-.6.8-.6l.2.9.8-.5.6.3.4,2.2,1.9,2.5-.6.3v.3s.8.4.8.4l1.9,2.7v.9c.1,0,.6.4.6.4l.2,1.7,1,.5-.6.8,1,.3-.8.6.3.8-1.3,1.1v3c0,0-.6.8-.6.8l1.4,1.2-.2,1,1.4.9.7,1.4v1.6c-.1,0-1.1.1-1.1.1l.3.8,1.1.7v.9s1.1.3,1.1.3l.3,1.2,1.5,1.4.4,1.1v2.1s1.1,1.1,1.1,1.1l.6,1.9.8.7h0l-3.9,1-3.4,5.6-12.9-1.2-10.9-23.5-2.2-6.3-9.7-1.2h0l-2-24.4-15.2-10.3-8.4-16.3h-16.5c0,0-.1-.3-.1-.3l2.3-2,1.1-.2.6-.6-.9-1.4.7-1.9,2.8-1.5,1,.3,2.4-3.3-1.7-2.3-4.9-2.1h-1.4c0,0,1.9-3.3,1.9-3.3l5.6-5,4-5.4,1.9-.7,19.2-.4v-14.2c0,0,15.1-7.9,15.1-7.9l1.5-1.7Z"/>
    <path id="SS-WR" d="M200.7,207h16.5c0,0,8.4,16.2,8.4,16.2l15.2,10.3,2,24.4h0l-9.5-1.2-18.4,21.4-7.3,13.1,4.8,12.3.6,4.9v4.5c-.1,0-1.8,2.8-1.8,2.8l-2.5,2.7-4.5.6-12.2-4.4h0v-10.8h-.1v-17.3c0,0-16.8-.6-16.8-.6v-1.6c-.1,0-.8-2-.8-2l.3-1.5.7-1.1v-.7c-.1,0,.7-4.6.7-4.6v-3.1c-.1,0,.6-2.4.6-2.4l-.4-1.3-2.4-2.8-5-2.5h-1.1c0,0-1.5-1.3-1.5-1.3h-1.3s-.9-1.4-.9-1.4l-1.8-.7-2.9-1.7-2.5-2.6-.5-2,.4-1.2-2.6-13h0l2.3-1.2-1.4-2.2-3.1-2.6-1.1-5.3-1.1-2.1h1.5c0,0,3.4,1,3.4,1l1.5-1.2.7-1.1v-.6s-.3-.6-.3-.6l1-1.2-1.2-.9-.3-.8-1-1.2-.4-1.6-.6-.9-.2-2.1-.5-.5,1.5-.4v-.7c.1,0,1.4-1,1.4-1h1.5c0,0,.7-.6.7-.6l1.5.3.2-.4h1.5c0,0-.4.7-.4.7h.2c0,0,.8-1.2.8-1.2l1.5.6h0l.5-1,.6.2h0l.3.6.7-.3.3.6.6.4.7-.3h2.2c0,.1.9-.6.9-.6l1,.9h.4s.8-1.1.8-1.1l1.3.5.5,1.1h.4s.8-.9.8-.9h.4c0,0,.5.6.5.6h.4c0,0,1.6-.6,1.6-.6l.4.3h.7c0-.1.5-.8.5-.8h.4c0,.1.4.9.4.9l.8.3,1.3-.4,3-1.9,1.3-.5,2.7.8h1.7c0-.1,3.4-1.7,3.4-1.7l2.4.7,2.1-.2,1.3-.7Z"/>
  </g>
</svg>