<svg xmlns="http://www.w3.org/2000/svg" xmlns:amcharts="http://amcharts.com/ammap" id="Layer_1" viewBox="0 0 512 512"><g id="_x3C_defs"><amcharts:ammap bottomLatitude="8.676" leftLongitude="21.839" projection="mercator" rightLongitude="38.584" topLatitude="23.147"/></g><g><path id="SD-DE" d="m106.6 349.9 2-.4 1 .6h2.4c0-.1 3 .2 3 .2l.6-.3h.8l.8.6h1.6l.2.1-.2 2 .4.9 4.1 2 1 .9h2.4l7 8.4v1.9l-.2.4-2.2-.2-.7.6-.5.2-1.3-.3-.8.7-.2.3 1.9 2.6.2 1.6 1.3.7h1v.9l1 2.2 2.9.9v.6c.1 0 1 .8 1 .8v.8l4.5 3.2 6.5.9 2.6.7 3.2 2.1.9.4h.9l2-.8 2.9-.7h3.3l1.6.5 2.2 1.7 1.1 15.6 1.7 6.7 17 41-3.3.3-4-.5-10.8-.3-4.9.3-2.9.6-9.1 3.2-2.3-.2-8.1-2.5-2.3-2.7-2.3-7.4-3.7-3.7-.5-1.2-.8-1.2-2-1.3-1.4-.4v-6l-.7-.9-1.7-.6-.9-8.3-1.5-5.8-3-9-2.9-4.1 3.4-1.4 1.1-2.2-6.9-3.4-9.3-7.1-6.5-5.9v-4.7c.1 0 11.2-1 11.2-1l1.5-.9 1-1.2v-1.6c-.1 0-7.5-19.5-7.5-19.5Z"/><path id="SD-DC" d="m50 335.3 2.2-.7 3.4-2.7h1.1c0-.1 1.1.7 1.1.7h.4l1.4.9.2-.4h1c0-.1 1.2.3 1.2.3v1l-.3.9.2.5-.4.9.6.2.7.2.6-.5v-2.5l1.3.8.5 1.3 1.2 1 2.5-.3 2.7.2 1-.3.6.5-1.2.7 1.5.6.2.6 2 2.1.8-.8 3.6.2.5-2.6 6.6-1.8h2c0 .1 3.6-.2 3.6-.2l.9 1.1-2.8 4.8-1.5.9-1 1-.8.3h-1.1l-1.3.5-1.1 1.4-.3 2.7-1 2.2-3 4.3-3.3 3.3 3.6 7.1 1.2 1.2.7 4-.3 2.6h-.9l-.7-.8-3.4.4-.6.6-2.4 1.1v.6l-.6 1-.5-.7-.6.2h-1.7l.3.7h-.8c0 .1-1.9 1.4-1.9 1.4H67c0 .1-.5 1-.5 1l-1.2.5-1.1 1.8v2.4l-1 5.5.9 6.5-4.7 6.2-1.9 1.2-14.4 14.5-.7-.5-.7-1.6-1.6-2v-.5l-1.1-1-.2-.7 3.2-8.5v-2.9c-.1 0-1-.5-1-.5l-.2-3.2-4.6.4v-1.1l-1-1.1-2.7-1.2-2.8-3.2-.3-2.2 2.5-10.6v-.3c-.1 0-.8.2-.8.2h-1.5l2-1.4.3-1 .9-.8.3-1.1.3-.3.4-1.1.8-.9-.9-2.5-.7-.8.2-3.3-.7-1.5v-1.1c-.1 0-.8-.8-.8-.8l-.6-1.7v-.5l6.1-5.5.7-1 .4-.2.5.2.4-.8-.3-.7v-.9l2.6-2.7-.8-1.2v-.3l2.4-2.4.5-1.5 2.9.2 1.1-1.4.9-2.3v-1l1.6-1.5Z"/><path id="SD-DN" d="M101.6 133.4h74.1v106.4H159l1.7 18.6 3.2 28.8 1.1 5.7 2.1 1.5 6.9 20.9 1.5 4.4-1.1 6.7 1 1.2 1.1 2v2.6l-.6 1.7v.3l-3.6 4.5v3.1c-.1 0-.7.9-.7.9v.8l.2.4-6.6 7.8-.6 3.6v4l.2 1.7-.3 1.8-2.3 3.9-.3 1.1.3 1.5.6 1 .3 1.8-.4 3.9.8 1.7.8 1.1 3.3 8.7-2.2-1.7-1.6-.4h-3.3l-2.9.6-2 .8h-.9l-.9-.3-3.2-2.1-2.6-.7-6.5-.9-4.5-3.2v-.8l-.8-.8v-.6c-.1 0-3-.9-3-.9l-1-2.2v-.8h-.9l-1.3-.7-.2-1.6-1.9-2.6.2-.3.8-.7 1.3.3.5-.2.7-.6 2.2.2.2-.4V365l-7-8.3h-2.4l-1-.9-4.1-2-.4-.9.2-2-.2-.2h-1.6l-.8-.5h-.8l-.6.3-3-.3h-2.4c0 .1-1-.5-1-.5l-2 .4-2.3.7h-1.8l-1-.2-1.7-1.4-2.5-.4-1.4-1.6-1.2-.8-1.3.2-2.3-.6-.6.2-3.1-1h-1.7l-.8-.4 1.3-.5h1.1l.8-.3 1-1 1.5-.9 2.8-4.8-.9-1.1-3.6.4h-2c0-.1-6.6 1.7-6.6 1.7l-.5 2.6-3.6-.2-.8.8-2-2.1-.2-.6-1.5-.6 1.2-.7-.6-.5-1 .3-2.7-.2-2.5.3-1.2-1-.5-1.3-1.3-.8v2.5l-.6.5-.7-.2-.6-.2.4-.9-.2-.5.4-.9v-1l-1.2-.4h-1c0 .1-.2.6-.2.6l-1.4-.9h-.4l-1.1-.8h-1.1c0 .1-3.4 2.8-3.4 2.8l-2.2.7.2-4.5 1.9-1.2-1.4-.9-.7-1.4-1-1.9v-1.1c.1 0-.3-1.1-.3-1.1V321l.4-1.7v-1.9l1-2.2-.6-.9-1.1-.3-.9.9-2.5-2.3 1.3-3.8-3.6-7L39 304l-2.2-2.3-.3-2.3.6.5 1.6-8-2-2.2-1.5-.4 1.8-1.9 1.1-.8.5-.9.7-.3h.8l.6-.4-.2-1.8 1.3-.9.6-1.1-.3-1 .5-1.4-.4-1 .2-1.8-.2-.5-1.8-1.5-.2-.7v-1.6c.1 0 1-1.2 1-1.2h1l.5-.3.9-.9.6-1.2.8-.3 1.1-1.3h.9l1.3.2h.5c0-.1.4 0 .4 0l1.4.2 2.3.2 1.9-.2 2.9-1.3 1.9-.5h2.5c0-.1 1.9.3 1.9.3h2.4l4.7 1.3h1.1V133.8h29.6Z"/><path id="SD-DS" d="m85 344.6.8.4h1.7l3.1 1 .6-.2 2.3.6 1.3-.2 1.2.8 1.4 1.6 2.5.4 1.7 1.4 1 .2h1.8l2.3-.7 7.4 19.5v1.6c.1 0-.8 1.2-.8 1.2l-1.5.9-11.1 1v4.7c-.1 0 6.4 5.9 6.4 5.9l9.3 7.1 6.9 3.4-1.1 2.2-3.4 1.4 2.9 4.1 3 9 1.5 5.8.9 8.3-2.1.5-.4.4h-1.7l-2.3.2-4.2 1.3h-1.6l-1.5.4h-1.1l-.5.4h-1.6c0 .1-1-.2-1-.2l-2.4.5h-.8l-1.8.6-1.7 3.4v1.1l.4.8v.7l-.9 1.6-.7 2-1.4 1.9-2.4 1.7-1.5.5-.8 1.9-.8.8.3 1v2.6l.3 1.1v1.4l-.6 1.5-3.8 2.8.5 2-.8 1.5-1.4 6 .9 3v.9c-.1 0-1.2 1-1.2 1l-1.3 1.9-4 2-3.1 2.7v-.7l-.4-.3-1.2.7-1.2-.6-1 .5-2.8-.5h-1.3l-.8-.4-.8-.2-2 .4-1.6-.6h-1c0 .1-1.3.6-1.3.6l-1.8-.3-1.4-.6h-.6l-.9.1-.6.7-1.1-.3v-.9l-.4-.4v-1.3l.2-.3 1-.6 1-1.7.2-.9v-1.9l-.6-.3-1.1 1.3h-.8l-1.1-.5v-.7l-.5-.4.5-.9v-.6l.3-.8v-1.4l.4-.2v-.7h.5v-.2c.1 0 .7.2.7.2h.5c0-.1 1.9-1.7 1.9-1.7l.3-.9.4-.4h.6l.1-.4-.5-1.1v-.6l.3-1.5.4-.4.4-1-.3-.5-.7.3-.3-.8.2-1.2.4-.6-.8-.2 2.1-3.7-.9-6.7-10.9-17.4-1.1-.6-.7-1-.9-.6-.5-.8-.9-.8-.9-1.3-3.2-2L58 402.8l1.9-1.2 4.7-6.2-.9-6.5.9-5.5V381l1.2-1.8 1.2-.5.5-.8h.9c0-.1 1.9-1.4 1.9-1.4h.8c0-.1-.3-.9-.3-.9h1.7l.6-.1.5.7.6-1v-.6l2.4-1.1.6-.6 3.4-.4.7.8h.9l.3-2.6-.7-4-1.2-1.2-3.6-7.1 3.3-3.3 3-4.3 1-2.2.3-2.7 1.1-1.4Z"/><path id="SD-DW" d="m35.1 289 1.5.4 2 2.2-1.6 8-.6-.5.3 2.3 2.2 2.3 3.6-2.2 3.6 7-1.3 3.8 2.5 2.3.9-.9 1.1.3.6.9-.9 2.2v1.9l-.5 1.7v2.5l.5 1.1v1.1c-.1 0 .8 1.9.8 1.9l.7 1.4 1.4.9-1.9 1.2-.2 4.5-1.5 1.5v1l-1 2.3-1.1 1.4-2.9-.2-.5 1.5-2.3 2.4v.3l.7 1.2-2.5 2.7v.9l.3.7-.4.8-.5-.2-.4.2-.7 1-6.1 5.5v.5l.6 1.7.6.8v1.1c.1 0 .8 1.5.8 1.5l-.2 3.3.7.8.9 2.5-.8.9-.4 1.1-.3.3-.3 1.1-.9.8-.3 1-2 1.3-.9.2-1.2.7h-.6l-.4-.2h.4c0-.1.5-1.6.5-1.6v-2c.1 0 0-1 0-1l-.3-1.1-.9-1.6-.7-2.7v-.8l-.7-1H24c0-.1-.2-.4-.2-.4l1.4-2.3 1.1-3.5-2.9-1.1-4.8-2.7v1.3l-1 .8-.8.4-3.1.9H11l-1.6-1.5-.2-.7-.4-.3-.8-2.7.4-2.2.7-1.3.6-1.7 1-1.1v-.5l-.2-.3.6-.6h.5c0-.1 1.1-1 1.1-1l.3-1 1.7-.2.3-.5 1.5-.2.4-.8.8-.7.4-.9 1.1-.9.3-.6 1.6-1.7-.2-1.2-.6-.5H20l-.3-.9-.5-.5v-1.7c-.1 0 0-1.2 0-1.2l-.2-.5-1.3-.9-.3-.6H17c0-.1-.9-2.1-.9-2.1l.4-.9-.2-.5-.7-.6-.3-.4v-.3l1.7-2.4 1.8-1.8.7-1 1.8-.8 1.1-1.1.9-.2 1-1h1.1l2.2-1.8 1-.3 1.2-1.7v-.3l-.7-.7v-.6c.1 0-1.1-.4-1.1-.4l-1.1.4-1.4-1.6v-.6l.1-.3.8-.5-.2-.8-.4-.3v-3.6c.1 0-1-.7-1-.7H24l.8-2.8h.6l.3-.3h.4l.8-.6 4-.8 3-1.1-.2-1.6-1.2-3.4.4-.8.6-.5 1.6-.4v-.4l-.2-.6v-.9Z"/><path id="SD-GD" d="m373.7 265.6.4.5 2 1.6 1.5.4 1.4 1.7 3.5.7 1.7.2h.5c0-.1 4.4 2.2 4.4 2.2v1.4l-.3 2.7-.3.4 3.8 2.4h1c0 .1 4.5 2.7 4.5 2.7l2 5.6 2.3 3 14.8-.9 1.8-4.2v-1.5c.1 0 1.7-.7 1.7-.7l.8-1.8v-.7c.1 0-.7-1.8-.7-1.8l-.7-.9v-.5l.4-.4.3.8 1.4 1.3 1 2.4.9.4.8 1.3.7.2 1.2 1.7.4 1.2 2 1.9h1.2l.7-1.5h.7l2.3-1.3 6.9-2.3.8 6.1v2.8c.1 0 1.7 16 1.7 16l.6 1.8h.4v.2l-.6.3v1.6l-2.4 6.9 1.1 3.8-1.6 2.5-1.3 3.7-.6 3-3 5.1-2.5 9.3-1.2 3.2v.9c-.1 0 .6 1.1.6 1.1v3.6l-.6 2.1v.6h-1.4l-.3-.7-1.3-.4h-1.3c0 .1-.2.4-.2.4l-6.8 1.4-.3-.3-.4.4-.8-.4h-.7c0 .1-1.3-.5-1.3-.5l-1.5-.4-1.2-1-1.7.5h-.7c0-.1-.7 0-.7 0l-4-.7-.8-.9-1.2-.7-.7-.2-.3-.5-1.1-.2-.8-1.1-1.1-1.1h-.6l-.9.1-2-1.6-.6.3-.7-.3-.2-.7h-.8c0-.1-1.5-1.2-1.5-1.2v-.4l-.2-.4-1.9-1.1.2-.7-.6-.6v-.6l-.2-.4h-.4l-.4-.5-.8-.2-.4.2-.2-.2-2 .2-.8-1.4.2-.4h-.8l-.4-.5h-.5l-6-6.8-2.3-5 2.1-.9-.5-1.7h-1.5c0 .1-.6 0-.6 0l-.7.2-1-.5-.2-.3-1.3.3-.7-.6-.5-1.2h-.5l-.7-1.4-.4-2-1.1-.5-.8-1.1-.4-.8v-.4l-.6-.3-.2-1.1-.6-.8v-.7c-.1 0-.5-.4-.5-.4l.3-.8-.2-.7 4.8-7.1v-.3c-.1 0 5.5-8.2 5.5-8.2l.7-1.9-2.3-4.2-6.1-9.5-9.3-3.2h-1.8l-.5-3.3-1-1.1-1.1-.4.2-1.3 1.2-1.7.6-2.5 1.9-1.7.6.5h.6c0-.1.2-.8.2-.8l4.6-1.2h1.2l2.1-1.2 5.6 1.1Z"/><path id="SD-GK" d="m174 315.2 10.3-.3 8.7 1.3 2 .6 11.7 4.8 1.5.3 1 1.3 6.9-.4v1.9l7.8 4.7 2.9 3.3 1.5.7-.6.6 3.5 1.7 4.2 1.1 1.1 8.9 6.4 10.5-4.2 8.5-2.4 1.8-1 1.3-.5 1.2v1.6c.1 0-.6 1.9-.6 1.9l-.8 1.2-1.9 1.7-2.5 3.7-1.8 1.5-.3 3.2-.9.8-.2.9v1.6l1.3 1.3h2.2l3.4 7.2.4 4 .4.7v1.6l-3.6 2.8-.6.9-.4 1.8 1.2 2.7 11.7 11.2 2.6 3.4 2.7 5.4-1.1 1.2-10.6 5.5v9.9l-13.4.3-1.4.5-2.8 3.8-4 3.5-1.3 2.4.3 1.6h-21.5l-4-7.9-17-41-1.7-6.7-1.1-15.6-3.3-8.7-.8-1.1-.8-1.7.4-3.9-.3-1.8-.6-1-.3-1.5.3-1.1 2.3-3.9.3-1.8-.3-1.7v-4l.7-3.6 6.6-7.8-.3-.4v-.8l.7-.9v-3.1c.1 0 3.8-4.5 3.8-4.5v-.3l.5-1.7v-2.6l-1.1-2-1-1.2 1.1-6.7-1.5-4.4Z"/><path id="SD-GZ" d="m355.1 274.3 1.1.4 1 1.1.5 3.2h1.8l9.3 3.2 6.1 9.5 2.3 4.2-.7 1.9-5.6 8.2v.3c.1 0-4.7 7.1-4.7 7.1l.2.7-.3.8.4.4v.7c.1 0 .7.8.7.8l.2 1.1.7.3v.4l.4.8-7.9-2.6-.3-1.2-1.8-.3v1.2l-.3.4-1.1.2v.3c-.1 0 .7 1.7.7 1.7l-.4.4h-.8l-.5.3 1 1.1v1.1l-3.2.2-1.3 1.3-.8.3-.6-.2-.2-.5 1.3-.6v-.4l-3-.2-.4-3.5-1.7-.6-.7-.5h-.6l-.4.3-.6-.3h-.6l-1.4.5h-.4v-.9h-1.4l-.3 1.8-.4.9.3 3.5 1.2 1.7-1.4.3-1 .5-1.2 1-.7 1.7.4 2.8-7 .2-.7-2.9.7-1.2v-.9l-1.4-2.8v-1.4c.1 0-1.5.1-1.5.1l-.5-1-.5.2-.9-.7.4-1.8-1-2.4v-.6l.8-.1-.5-.5.3-1.6-1.7-.5-.6.5-.6-.6 1.2-1.6h1.9l.3.7.4-.2-.6-1.8-.9-.3-.3-1.1 1.1.3.2-.3-.2-.5.4-1.6.9-.9-1.3-.7-1.2 1.2-1.2-.9.8-.8-.5-.4-.8.7-1.1-.8.2-.6-.2-.3 1.3-1.6 3 .7.5-1h2.2c0-.1.9-.7.9-.7h1.9c0-.1.4.3.4.3l.4-.2h.6c0 .1.4-.5.4-.5l-1.8-2.3-.3-1.4 1.1-.4 1-.8-.4-.7.8-.2.8.9.2.5h.4c0 .1.3-1.3.3-1.3l-.5-.6v-.5l-.7-.5-.4.3-.5-.3-.7.4-2-1.4-.5.2-1.4-.9.7-.7-2.3-1.8 1.2-1.4.2-.7 2.8 2.1.6-2.1-.2-.5-.8-.9-.3-1.2-1.5-.7-.4-.5h-1.1l-.1-.4-1.2-.3-.2-.2-.8.3-2.4-1.4 2.2.2 13.9-1.3h3.6l1.5.7 2.4-2.8 7-3.9 1.2.5Z"/><path id="SD-KA" d="m420.6 221.8 10.4 3.7 2.2.2 24.1-1.3v.2c-.1 0 .2.4.2.4v1.2c.1 0-.8.9-.8.9v.5l.6 1.1-.2.6.4 1.5-.3 1.1.8 1-.6.6-.6.3-.2.5.3.6-1.1 1.4-1.7.4v.5c-.1 0 .2.7.2.7l-.6 2.7.4 1.5 1.2 1.6.8.5-.5 1.9-.5.4.4 1.2v.6l.4.2-.9.7-1.2 1.5-2.3 7.4v.4l-.8 1.8-.6 2.1-2 3.6-1.8 5.8-.3 1.6-.5.8v.9l-2 5.3-.7.7h-.8l-.6.4-1.2 1.4v.3l-6.9 2.3-2.3 1.3h-.7l-.7 1.4h-1.2l-2-1.9-.4-1.2-1.2-1.7-.7-.2-.8-1.3-.9-.4-1-2.4-1.4-1.3-.3-.8-.4.4v.5l.7.9.8 1.8v.7c-.1 0-.9 1.8-.9 1.8l-1.6.7v1.5c-.1 0-1.9 4.2-1.9 4.2l-14.8.9-2.3-3-2-5.6-4.5-2.5h-1c0-.1-3.8-2.6-3.8-2.6l.3-.4.3-2.7v-1.4l-4.4-2.3h-.5c0 .1-1.7-.1-1.7-.1l-3.5-.7-1.4-1.7-1.5-.4-2-1.6-.4-.5 5.7 1.1-.5-1.9-4.6-8.2 4.1-8.6h.9l1.5-1.7 2.3-1.1 23.5 1.2 1.6-.6 1.6.2 8-5.7 2.7-18.4Z"/><path id="SD-KH" d="m303.9 238 10.4 7.8 15.7 2.1 3.1 2.6 8 1.4 10.8 3.1 2.2 1.8 3.2 1.3 4.4 1.1 7.3-1.2 5.4-1.4 4.6 8.2.5 1.9-5.7-1.1-5.6-1.1-2.1 1.2h-1.2l-4.6 1.2-.2.7h-.6c0 .1-.6-.4-.6-.4l-1.9 1.7-.6 2.5-1.2 1.7-.2 1.3-1.2-.5-7 3.9-2.4 2.8-1.5-.6h-3.6l-13.9 1.2-2.2-.2-.7.9-.3 1h-2.1l-7.4-16.3-6.9-8.6-2.1-3.1h-.6l.2-1.1-3.1-8.1-1.5-2.1-.8-2.3 6.1-3.2Z"/><path id="SD-KN" d="M175.7 239.8h33.8l39.7.4 30.2 1.6h14.5c0-.1 3.9-.6 3.9-.6l.8 2.3 1.5 2.1 3.1 8.1-.2 1.2h.6l2.1 3.1 6.9 8.6 7.4 16.2-9.2 4-.4.7v.6l.9 1.8-.6.2-.2.3H308l-1.6 5.8-8.4 7.5-2.2 5.7v4l1.5 4.6 5.6 4.1 2.6 7.9 5.3 4.7v.4l.5.3-.5.3-1.2 3.6v1.7l1.2.4.2.6-1.9 2.4-2.3.7-2.6 2.3-3 1.7-1.9 5.9.2.8-1 2.1 1.3 4.6-7.9-2.9-.6.4-.8-.2-.3.8-.4-.5v-.4l-1.2.1-1.6 1v.8l-.5-.7h-.7v.4h-.3v-.3h-.7v.4h-.2v-.4h-3.5c0-.1-.3.2-.3.2v.8c-.1 0-.1.8-.1.8l.4 1.1v2.4c.1 0 0 .8 0 .8l-.7.9h-.3l-2-.5-1.6 1.9-1.1-.8-1.8 2.3.2.4-7.3.5-1.9-2.6-1.3-3.8-1.7-1.1-.4-.6 1.9-2.2-1.9.7-6 1.2-1.6.6-1.7 1.3-1 .3v-4.8c.1 0 0-.7 0-.7l-.6-.3v-2l-1.9-.7-1.2-.9h-4.7l-6.4-10.4-1.1-8.9-4.2-1.1-3.5-1.7.6-.6-1.5-.7-2.9-3.3-7.9-4.7v-1.9l-6.9.4-1-1.3-1.5-.3-11.7-4.8-2-.6-8.7-1.3-10.3.3-6.9-20.9-2.1-1.5-1.1-5.7-3.2-28.8-1.7-18.5h16.7Z"/><path id="SD-KS" d="M242.9 356.1h4.7l1.2.9 1.9.7v2l.6.3v5.5l1-.3 1.7-1.3 1.6-.6 6-1.2 1.9-.7-1.9 2.2.4.6 1.7 1.1 1.3 3.8 1.9 2.6 7.3-.5-.2-.4 1.8-2.3 1.1.8 1.6-1.9 2 .6h.3l.7-1v-.8c.1 0 0-2.4 0-2.4l-.4-1.1v-.8l.1-.8.3-.3h3.5v.5h.2v-.3h.7v.3h.3v-.3h.7l.4.6v-.8l1.6-1h1.2v.3l.4.5.3-.8.8.2.6-.4 7.9 2.9 3.9 11.6h2.6l5.7 5.3 2.1 2.4 6.5 6.4v14.9l.7 2.2 1.7 2.9-9.2 8.9-4.9 3-4.5 7.9-1.3 1.7-7.5 8.5-5.9 7.5-2.4.9h-10.8l-2.2 1-6.8-6.4-4.9-2.8-13-8.1h-1.6l-.8-.2-2.7-5.4-2.6-3.4-11.7-11.2-1.2-2.7.4-1.8.6-.9 3.5-2.8v-1.6l-.3-.7-.4-4-3.4-7.3h-2.2l-1.2-1.2v-1.6l.2-.9.9-.8.3-3.2 1.8-1.5 2.5-3.7 1.9-1.7.8-1.2.7-1.9V369c-.1 0 .4-1.2.4-1.2l1-1.3 2.4-1.8 4.2-8.5Z"/><path id="SD-NB" d="m344.2 387.2 18.6-12.1 9.1-2.1 6.8-4.2v-1.3c-.1 0-1.2-.8-1.2-.8l4-4.2 1.3.7.5-.3 4.7 1.1.7.9 1.7.7 4.8 13.4-.5 1.2 4.5 6.7.2 1 .6 1.4v3.7l-1.5 4.1-1.8 3-.4.3-.3.7-.3.2v.2h1.1l1 1.1v.5c.1 0-1.2 6.7-1.2 6.7l.8 1.8-3.4 2.7v1l-.3.6-2.1 1.4h-.2l.4-1.4h-.7l-4.6-4.2h-.3c0-.1-.4.3-.4.3h-.9c0 .1-.7 1-.7 1l-2 .9-2.4 4.3-1.1 1.4-1.4 1.3-.5 1.6v.5l.8.2.6 1-1 2.1.9 3.4.8 2.2-.3.6v1c.1 0-.3.8-.3.8v.9l-1.1.8-1.1.5-.8.7-.4 2.6v1.7l-2.1 5.5-.4 2.3-.9 2.7v1.9h-6.2v-1.5l-.4-1.5v-1.6l1.1-3 1.1-1.5 1-4.1-.2-.9v-1.7l-.6-2.2v-1c.1 0-.3-1.3-.3-1.3h-2.1l-2.8-5-3.6-2.5-5.5-6.5-6.9-2.3 1.8-3.2-5-23 1.5-4.1Z"/><path id="SD-NO" d="m291.6 70.1 30.2.2-3.4 64.1v10l-1.7 25.3 11.1 11.4-2 11.4 3.5 10.7-6 8.2-18.5 26.6h-.8c0 .1-6.1 3.3-6.1 3.3l-3.9.5h-14.5c0 .1-30.2-1.5-30.2-1.5l-39.7-.4h-33.8V133.6h-74.1V70.5l4.1-.2h134.1l9.9.2v-.2h39.1l1.1-3.5 1.6-2.1 1.9-1.4 1.1 1.4-2.3 3.2z"/><path id="SD-NR" d="M355.2 79.1h.5l-.9.9-8.2 6.2 1.8 2.1.3.8.4 4-.3 1.3-1.5 2v3.7c.1 0-.7 3.2-.7 3.2l.5 1.4 2.4 1.5 2.3 3.1 2.9.9.8 2.1 2.2 3.6 1 2.5-.2 4.2-2.1 8.9v.7l1.4 2.3 1.3 9.2-.7 8.4v2.6c.1 0 3.6 5.7 3.6 5.7l9.5 25 9.8 3.3 4.9 2.6 7.1 7.1 9.3 15 1.7 1.6 4.8 2.3 11.6 4.7-2.7 18.4-8 5.7-1.6-.2-1.6.6-23.5-1.2-2.3 1.1-1.5 1.7h-.9l-4.1 8.6-5.4 1.4-7.3 1.2-4.4-1.1-3.2-1.3-2.2-1.8-10.8-3.1-8-1.4-3.1-2.6-15.7-2.1-10.4-7.8h.8c0-.1 18.5-26.7 18.5-26.7l6-8.2-3.5-10.7 2-11.4-11.1-11.4 1.8-25.3v-10l3.4-64.1h21.8l11.7 8.8Z"/><path id="SD-NW" d="m323.2 280.9 2.4 1.4.8-.3.2.2 1.2.3v.4h1.2l.4.5 1.5.7.3 1.2.8.9.2.5-.6 2.1-2.8-2.1-.2.7-1.2 1.4 2.3 1.8-.7.7 1.4.9.5-.2 2 1.4.7-.4.5.3.4-.3.6.5v.5l.6.6-.3 1.4h-.4c0-.1-.2-.7-.2-.7l-.8-.9-.8.2.4.7-1 .8-1.1.4.3 1.4 1.8 2.3-.4.6h-.6c0-.1-.4 0-.4 0l-.4-.4h-1.9c0 .1-.9.7-.9.7h-2.2c0 .1-.5 1.1-.5 1.1l-3-.7-1.3 1.6.2.3-.2.6 1.1.8.8-.7.5.4-.8.8 1.2.9 1.2-1.2 1.3.7-.9.9-.4 1.6.2.5-.2.3-1.1-.3.3 1.1.9.3.6 1.8-.4.2-.3-.8h-1.9l-1.2 1.6.6.6.6-.5 1.7.5-.3 1.6.5.5h-.7v.7l1 2.4-.4 1.8.9.7.5-.2.5 1h1.6c0-.1-.1 1.3-.1 1.3l1.3 2.8v.9l-.6 1.2.7 2.9 7-.2.3 1.9-.3.7.7 1.2-.4 2.5-.9 2.7-.3 1.6 5.1 7.2 2.6 3-3.7 7.1 3.1 7.1 2 7-15.7-.5.2.5v2.8l.6 2.2v1.2c-.1 0-.8 1.6-.8 1.6v1.1H314l-2.1-2.4-5.7-5.3h-2.6l-3.9-11.6-1.3-4.6 1-2.1-.2-.8 1.9-5.9 3-1.7 2.6-2.3 2.3-.7 1.9-2.4-.2-.6-1.2-.4v-1.7l1.1-3.6.5-.3-.4-.3v-.4l-5.4-4.7-2.6-7.9-5.6-4.1-1.4-4.6v-4l2.2-5.7 8.4-7.5 1.6-5.9h2.5l.2-.2.6-.2-.9-1.8v-.6l.5-.7 9.2-4h2.1l.3-.9.7-.9Z"/><path id="SD-RS" d="m500.3 189.5.3.5-.2.3-.3-.2v.2l.3.2.6.8v.4h-.3v-.3l-.4-.6h-.5c0-.1-.2.4-.2.4h-.3l.4-.6-.4-.5v-.2l.6.2.6-.5Zm-4.4-.8 1.1.2v.2l-.6.2-.6-.4v-.2Zm1-.7.9.5v.3h-.3l-.5-.3-.3-.4h.1Zm-2.1-1.3 1.3.9h-.7zm-8.1-15.6.7.3v.6c.1 0-.8-.1-.8-.1l-.2-.4zm4.9-1.4h.4c0 .1-.1.7-.1.7v-.3h-.8zm-26.5-63 .5.3v.2l-.3 2.1-.5.7-.2-.8v-1.5l.2-.5.5-.4Zm-18.6-45.2.7.6h-.7v.3h-.2l-.1-.5.4-.4Zm-26.1-20v.6c.1 0-.2.3-.2.3v-.7l-.3-.2v-.3l.5.2Zm-.7-.5v.6l-.6-.2v-.2l.6-.1Zm74.9 146.4v.2c-.1 0 .4.4.4.4l-.7 1.1.2.3.9.2.2.5 1.2.5.8-.2v-.3h-.2l-.4-.4.3-.2.7.2.6.8v.3l-.2.2-.2.3.4.9.9.5.7-.6v.3l.6.4-.3.2-.5-.3v.7h.5l.5.4v.4c-.1 0 .2.2.2.2h.4c0-.1.4-1.1.4-1.1l-.5-.4v-.4l1.2 1 .6 1.3-.2.3h.5l.2.4-3.9 3.7-1.8 4.4v.7l-1.2 2.4-1.5.5-.6.4v1c-.1 0-.6 1.1-.6 1.1h-.5c0 .1-.9-.1-.9-.1l-.5.6-.5-1.1-.3.3h-1.1l-.6.4-.2 1.1.2 1.3h-1.1V210l-.3-.4-.9.5-.6-.2-.9 1.3v.3c-.1 0 0 .5 0 .5l-1.7 1h-1.4c0 .1-.4-.9-.4-.9l-.6-.4h-1.5c0 .1-.4.6-.4.6l.2 1.2-.3.2-.2 1.5-4.5.3-2.9 1.1-.3.9h-.4l.2.7.7.4v.4c-.1 0-.8.3-.8.3v.9l.4.6-1 .6-.3 1-.9 1.3h-.7l-.6 1.7-2.5-1.5-1.7.6h-1l-.7.4-2 .2-.5-.8-1.6-.2-.5-.4h-.5c0 .1-.5.8-.5.8l-24.1 1.3-2.2-.2-10.4-3.7-11.6-4.7-4.8-2.3-1.7-1.6-9.3-15-7.1-7.1-4.9-2.6-9.8-3.3-9.5-25-3.4-5.7V152c-.1 0 .6-8.4.6-8.4l-1.3-9.2-1.4-2.3v-.7l2-8.9.2-4.2-1-2.5-2.2-3.6-.8-2.1-2.9-.9-2.3-3.1-2.4-1.5-.5-1.4.9-3.2v-3.7c-.1 0 1.4-2 1.4-2l.3-1.3-.4-4-.3-.8-1.8-2.1 8.2-6.2.9-.9 12.7-1.4 4.6-13.8 15.7-2.9 7.7-17.9 7.7 2.2 12.2-11.4v.7c.1 0 .4.2.4.2v1.1l.3.2h.1c0-.1.2.3.2.3v2.2c.1 0 .6 1 .6 1h-.5v.5l.4.3V40h.3l.2.6 2 2.8h.1c0-.1-.2-.8-.2-.8l.7-.2 1.4 2.9 1.3 1.3.6.3v.4l1.8.4h-.2c0 .1-.1.8-.1.8h.5c0-.1.3-.7.3-.7l.4.5 2.3.3 1.3.5h1.2c0-.1.3.2.3.2h.8l.5.7.9.2.4.6h.4l.2.8.5.3.5 2 .5.9 2 1.6.6.3h.3c0-.1.4.2.4.2v.8c-.1 0 .5 1.4.5 1.4l3.8 1.9 1.7 1.7.5.2v.6c.1 0 .7.3.7.3l.4.6h.5l.8 1 1.4.2v-.3l.8.5v.8c.1 0 1 .6 1 .6l.4.7 1.5.6v1.3l-.5 1.2-.4.3.7 1v.5l-.4.1v.6l.2.2V75c-.1 0 0 .2 0 .2v.5l.2.2-.2 1.2.6 2.3v1.1l.2.5v.6l-.4.2.3.2.2-.3.2.3v.7c-.1 0 0 .2 0 .2v.4l.5.4.2.8.5.6v.7l.3.4h-.3l-.3.3v.4h.1l.3-.5h.2l.8 1.7.5.6-1 .6v.2c-.1 0-.2.2-.2.2h.5l.6-.7 1.3 1.9h-1c0 .1-.3-.2-.3-.2l-.3.8.5-.2v.5l.4-.5h.9c0-.1.9.8.9.8l1 1.6 1 1.1 1 .5v.5c.1 0 1.2 1 1.2 1l.4.7.8.8.4 1.3.9.7-.7 1.4h-1.2v.8l-1.1-2.5h-.2v-.7h.3c0-.1.5 1 .5 1l1.2.7-.4-.8-.4-.2-.6-1v-.4h.2l-.2-.6h-.5l-.1-.2h-.2v.3h-.3c0-.1.1-.9.1-.9h-.4v.7l-.5-.3V97c-.1 0 .3-.9.3-.9l-.3-.6-.7-.3h-.5l-.2.2-.5.9v.5l.1.4.7.2v.5l.2.2-.3.6.2.2v.9l-.4.2-.4-.3-.3.2v1.1l.5.2v.6l.6.5 1 2.6v.5c-.1 0 .2.3.2.3v2.9l.5 2.3-.2 1.2.8 1.2v1.2l.5.6.5 1.6-.4 1.8.2.8h-1.1l-.3.2.6 1.8-.6.9v2.1c.1 0 .5.7.5.7v1.8l.2 1.4v3.1c.1 0 0 .8 0 .8l-.4.7v-.7c.1 0-.5.9-.5.9l.3.6.2 1.2.6 1v.8c.1 0 .2.4.2.4l.7.9v.6l.5.2-.2 4.2-.2.5.2.3-.5.8v-.8h-.1l-.2.8.2 2.6.2.7 1.3 2v.8l.8 3.2v1.1l.2.9v1.2c-.1 0 .3 1.7.3 1.7l-.2.5.3.9v.8l.3.4.3-.2v.6l.7 2.1.3.7v.8l.5.2-.4 1 .7 1.6v1.1c-.1 0 .2.4.2.4v.5l1.7 1.9.3.8.5.3.9 1h.7c0 .1.2.4.2.4l2.5-.5.6-.4.2.5.5.4h1.2l.4.6-.2.4.7.4v.5l.4.2.5.7 2.6.8 1.5.7.7.6 1.6 2.3 3.2 2.1v.2l-1 .4-.2 1.4.3.4v.4c-.1 0 .3.4.3.4v.3c-.1 0 .6 1.1.6 1.1l1.2.2v.5c-.1 0 .8.3.8.3h.7c0 .1.7 0 .7 0l.6-.4v-.4l-.3-.3.2-.4h.4v.2Z"/><path id="SD-SI" d="m368.3 319.4.8 1.1 1.1.5.4 2 .7 1.3h.5l.5 1.3.7.6 1.3-.3.2.3 1 .5.7-.2.6.2h1.5c0-.1.5 1.6.5 1.6l-2.1.9 2.3 5 6 6.9h.5l.4.4h.8l-.2.5.8 1.4 2-.2.2.2.4-.2.8.2.4.5h.4l.2.5v.6l.6.6-.2.7 1.9 1.1.3.4v.4l1.4 1.1h.8c0 .1.2.8.2.8l.7.3.6-.3 2 1.6.9-.2h.6l1.1 1.1.8 1.1 1.1.2.3.5.7.2 1.2.7.8.9 4 .7.7-.2h.7c0 .1 1.7-.4 1.7-.4l1.2 1 1.5.4 1.3.7-.4.5.2.5-.2.6-.5.3h-.6c0-.1-6.5 11-6.5 11l.3.5v.7c-.1 0-.5.4-.5.4h-.7l-2 3.6.3.6v.7c-.1 0-.6.3-.6.3h-.6l-.8 2.2-.5.2-4.7 3.6-1.5 2.4v.3l-4.5-6.7.5-1.2-4.8-13.4-1.7-.7-.7-.9-4.7-1.1-.5.3-1.3-.7-4 4.2 1.1.8v1.3c.1 0-6.7 4.2-6.7 4.2l-9.1 2.1-18.6 12.1 2.1-12.9 1.4-1.7h-1.5l-2-6.9-3.1-7.1 3.7-7.1-2.6-3-5.1-7.2.3-1.6.9-2.7.4-2.5-.7-1.2.3-.7-.3-1.9-.4-2.8.7-1.7 1.2-1 1-.5 1.4-.3-1.2-1.7-.3-3.5.4-.9.3-1.8h1.4v.8h.4l1.4-.4h.6l.6.3.4-.3h.6l.7.5 1.7.6.4 3.5 3.1.2v.4l-1.4.6.2.5.6.2.8-.3 1.3-1.3 3.1-.2v-1.1l-1-1.1.5-.3h.8l.4-.4-.8-1.7v-.3c.1 0 1.2-.2 1.2-.2l.3-.4v-1.2l1.8.3.3 1.2 7.9 2.6Z"/></g></svg>