<?xml version="1.0" encoding="UTF-8"?>
<svg id="Layer_1" xmlns="http://www.w3.org/2000/svg" xmlns:amcharts="http://amcharts.com/ammap" version="1.1" viewBox="0 0 512 512">
  <!-- Generator: Adobe Illustrator 29.1.0, SVG Export Plug-In . SVG Version: 2.1.0 Build 142)  -->
  <g id="_x3C_defs">
    <amcharts:ammap bottomLatitude="-11.761254" leftLongitude="29.3399999" projection="mercator" rightLongitude="40.4449653" topLatitude="-0.984397"/>
  </g>
  <g>
    <path id="TZ-29" d="M277.4,374.3l-7.5.8-3.7-11.1-17.1-8-11.5,10-27.8,4-.2,13.5,10.3,13.6,20,22.6,2.5,23.8,24.1-15.5,4.3-6.8-4.1-12.8,25.7-19.1-14.8-15Z"/>
    <path id="TZ-27" d="M149.6,112.5l3.9-10.6-10.6-11.2,2.4-4.5-20.7-9.8-3.4-10.8-10.9,9.3-20.9-3.4-13.1,18.1,4.8,6.9,19.5,68.1,11.9-6.5.4-7.8,6.5-13.2,13.4-3.2,2.1-18,14.8-3.3Z"/>
    <path id="TZ-30" d="M270.4,80.7l-24.6.2-27.9-16.1-30.3,1.6,19.2,24.2-12.3,5.7-4,19.7,32.9,12.4,11.4,18.4,15.6-7.1,5.9-9.2.4-32,9.9,1.6,3.8-19.4Z"/>
    <path id="TZ-28" d="M84.8,215.8l-4.7-10.7-10.2-3.1-32.3,6.4,17.3,47.7-19,18.5,14.6,15.6,27.3-11.2,7.8,14.3,16.1,3.9,2.4,18.2,23.2,3.7,11.8-26.1,12.5-4.8,7.3-31.8-22.9-13.2-7-15.2-34.6,1.6-9.5-13.6Z"/>
    <path id="TZ-25" d="M431.2,236.7l18.9-56-36.1-26.8-17.3,23.3.9,16.2-20.5-.9-23.8,40,4.8,10.9,10-14.5,10.6,8.6,7.8-3.9,44.7,3.1Z"/>
    <path id="TZ-13" d="M216.3,14.2h-57.2l-.8,20.9,33.7,2.4-7.8,18,13,2.9-15.9,2.5,6.2,5.6,30.3-1.6,27.9,16.1,24.6-.2,6-11.2-4.3-23.7-55.8-31.5Z"/>
    <path id="TZ-09" d="M369.6,100.2l-12.7-2.9-10.4,6.3,6.9,22.1,10.1.2,7.2,12.5,3.6,30,22.4,8.9,17.3-23.3-36.6-27.2,2.7-19.9-10.6-6.6Z"/>
    <path id="TZ-26" d="M396.7,177.2l-22.4-8.9-3.6-30-7.2-12.5-10.1-.2-21.7,7.8-2.1,18.7-8.4,1.9-18-21.5-8.6,8.3v-11.7c-.1,0-8.3,8.9-8.3,8.9l-8.2-6.4-21.8,12.8,5.6,8.9-6.6,12.3,21.1,21.3,7.6.3,5.8-17,29.5-13.4-2.5,57.2,27.6,24.5,8.9-6,23.8-40,20.5.9-.9-16.2Z"/>
    <path id="TZ-01" d="M369.6,100.2l-97.5-54.5,4.3,23.7-6,11.2-3.8,19.4-9.9-1.6-.4,32-5.9,9.2,5.9,4.8,21.8-12.8,8.2,6.4,8.2-8.9v11.7c.1,0,8.7-8.3,8.7-8.3l18,21.5,8.4-1.9,2.1-18.7,21.7-7.8-6.9-22.1,10.4-6.3,12.7,2.9Z"/>
    <path id="TZ-23" d="M256.2,144.5l-5.9-4.8-15.6,7.1-5.6,3.4-15.7,24.6-.4,25.5,13.5,10.8-7.8,9.2-1.9,28.2-22.2,18.1-1.5,14.5,20.3,25.1,35-15.4,8.9-12.1,7.2,1.4,11.5-55-12-24.8,12.1-13.2-21.1-21.3,6.6-12.3-5.6-8.9Z"/>
    <path id="TZ-21" d="M370.8,497.8l28.8-21.3-4.5-20-12.3-17.8-37.9-12.2,12.2-27.2-28.6,18.2-1-18.5-5.2,7.9-28.9,2.3,8.1-26.7-9.1,6.9-25.7,19.1,4.1,12.8-4.3,6.8-24.1,15.5,1.5,26,15.7,21.5,27.4,1.4,11.2-8.8,16.7,13.2,37.3-6.2,18.7,7.2Z"/>
    <path id="TZ-17" d="M399.6,476.5l17.9,7.2,67.9-27.5,19.8-21.2-21.2-7.6-12.1,6.9-3.3,12.1-10.5-11.8-62.9,21.9,4.5,20Z"/>
    <path id="TZ-12" d="M452.9,343l-33.5,8-11.1-14.4-21.8-10.5-19.4,25.1-.4,29.1-9.7,19-12.2,27.2,37.9,12.2,12.3,17.8,62.9-21.9,10.5,11.8,3.3-12.1,12.1-6.9-3.9-7.4-8.9,1.3,4.9-10-10.4-17.1,3.4-11.7-11.4-13.2,7.4,1.1-8.9-9.4-3.1-17.9Z"/>
    <path id="TZ-04" d="M264.7,279.9l-7.2-1.4-8.9,12.1-35,15.4-3.7,15,24.8-.6,29.2,9.9-15.8,16.1.9,9.6,17.1,8,3.7,11.1,7.5-.8-1.1-14.5,12.8,1.9,1.9,5.7,2.1-10,28.2-27.4,18.8-3.4,9.1-13.7-20.2-6.9-1.8-5.9-16.5-11-46.1-9.3Z"/>
    <path id="TZ-03" d="M344.4,238.5l-27.6-24.5,2.5-57.2-29.5,13.4-5.8,17-7.6-.3-12.1,13.2,12,24.8-11.5,55,46.1,9.3,16.5,11,17.2-61.7Z"/>
    <path id="TZ-15" d="M452.4,239.9h-3.4s4.9,9.5,4.9,9.5l-1.5-9.5Z"/>
    <path id="TZ-07" d="M457.6,238.4l-3.5-12.7-5.2,14.2h3.4s5.2-1.5,5.2-1.5Z"/>
    <path id="TZ-19" d="M480.2,317.5v-5.3c0,0-13.7,13.9-13.7,13.9l10.6-1.4,3.1-7.2ZM431.2,236.7l-44.7-3.1,11.4,16.1-1.5,17.5,12.6,2.3-.8,8.7,10.3,7.1-9.5,12.5,2.6,9.2-20.5,3.2-4.5,15.8,21.8,10.5,11.1,14.4,33.5-8,7.6-13.9-1.8-9.9-7.2,1.4,8.2-29-3.4-10-14.8,3.3,4.5-21.3-11.7-8.4-2.9-18.5Z"/>
    <path id="TZ-10" d="M478.5,201.6l-5.1-.9-4.1,1.3,5.9,2.2-5.8,4.5,3.5,5.2,5.7-12.2Z"/>
    <path id="TZ-06" d="M478.5,201.6v-12.8s-1.5,4.3-1.5,4.3l-6.2-4.7,2.6,12.2,5.1.9Z"/>
    <path id="TZ-16" d="M386.5,233.7l-7.8,3.9-10.6-8.6-10,14.5-4.8-10.9-8.9,6-17.2,61.7,1.8,5.9,20.2,6.9-9.1,13.7-18.8,3.4-28.2,27.4-2.1,10-1.9-5.7-12.8-1.9,1.1,14.5,14.8,15,9.1-6.9-8.1,26.7,28.9-2.3,5.2-7.9,1,18.5,28.6-18.2,9.7-19,.4-29.1,19.4-25.1,4.5-15.8,20.5-3.2-2.6-9.2,9.5-12.5-10.3-7.1.8-8.7-12.6-2.3,1.5-17.5-11.4-16.1Z"/>
    <path id="TZ-02" d="M459.6,291.7l5.2-8.5-19-19.6-4.5,21.3,14.8-3.3,3.4,10Z"/>
    <path id="TZ-08" d="M100.6,164.5l-19.5-68.1-7.3,6.8-.9,12.7-16.5,12.4-19.2,32.3-12.1,8.6-14.7-.6-3.6,21.1,12.9,35.3-3.9,25.6,19.9,23.9,19-18.5-17.3-47.7,32.3-6.4,10.2,3.1,4.7,10.7,7.5-3.2v-21c-.1,0,11.7-15.2,11.7-15.2l-3.3-11.9Z"/>
    <path id="TZ-05" d="M159.1,14.2l-100.7,2.8,16,23.7,2.5,21.9-2.4,11.8-14.6,5.3-4.1,17.4,18,6.2,7.3-6.8-4.8-6.9,13.1-18.1,20.9,3.4,10.9-9.3,37-30.4.8-20.9Z"/>
    <path id="TZ-24" d="M229.2,150.2l-31-7-32.8,1.4-6.7,3.1v12.3s-8.2-3.1-8.2-3.1l-5.5,8.7-19.5,2.4-.6-12.8-12-4.8-.4,7.8-11.9,6.5,3.3,11.9-11.8,15.2v21c.1,0-7.4,3.2-7.4,3.2l9.5,13.6,34.6-1.6,7,15.2,22.9,13.2-7.3,31.8,21.6-10.7,20.1,3.4,1.5-14.5,22.2-18.1,1.9-28.2,7.8-9.2-13.5-10.8.4-25.5,15.7-24.6Z"/>
    <path id="TZ-22" d="M190.5,116l-14,7.1-15-7.6-5.6,8.2-6.2-11.2-14.8,3.3-2.1,18-13.4,3.2-6.5,13.2,12,4.8.6,12.8,19.5-2.4,5.5-8.7,8.3,3.1v-12.3s6.7-3.1,6.7-3.1l32.8-1.4,31,7,5.6-3.4-11.4-18.4-32.9-12.4Z"/>
    <path id="TZ-18" d="M187.6,66.4l-6.2-5.6,15.9-2.5-13-2.9,7.8-18-33.7-2.4-37,30.4,3.4,10.8,20.7,9.8-2.4,4.5,10.6,11.2-3.9,10.6,6.2,11.2,5.6-8.2,15,7.6,14-7.1,4-19.7,12.3-5.7-19.2-24.2Z"/>
    <path id="TZ-11" d="M454,249.5l11.7,7.9-8-18.9-5.2,1.5,1.5,9.5Z"/>
    <path id="TZ-20" d="M127.2,319.1l-23.2-3.7-2.4-18.2-16.1-3.9-7.8-14.3-27.3,11.2,29.8,63.3,17.6,1.7,14.3,14.8,21.2,7.1-6.1-13,12.5-9.7,1.2-12.1,8.4-3.9,11.1,11.6-12.8-18.9-20.3-11.9Z"/>
    <path id="TZ-14" d="M193.2,280.9l-20.1-3.4-21.6,10.7-12.5,4.8-11.8,26.1,20.3,11.9,12.8,18.9-11.1-11.6-8.4,3.9-1.2,12.1-12.5,9.7,6.1,13,57.9,25,13.2-1.7,7.9,6.1,7.5-9.4-10.3-13.6.2-13.5,27.8-4,11.5-10-.9-9.6,15.8-16.1-29.2-9.9-24.8.6,3.7-15-20.3-25.1Z"/>
  </g>
</svg>