<?xml version="1.0" encoding="UTF-8"?>
<svg id="Layer_1" xmlns="http://www.w3.org/2000/svg" xmlns:amcharts="http://amcharts.com/ammap" version="1.1" viewBox="0 0 512 512">
  <!-- Generator: Adobe Illustrator 29.1.0, SVG Export Plug-In . SVG Version: 2.1.0 Build 142)  -->
  <g id="_x3C_defs">
    <amcharts:ammap bottomLatitude="6.112395" leftLongitude="-0.144042" projection="mercator" rightLongitude="1.8088217" topLatitude="11.1404963"/>
  </g>
  <g>
    <path id="TG-S" d="M160.6,6.6l17.9,7.2-10.2,42.8,47.5,34.9-.2,24.6,15.6,15.8,12.2-.2,5.7-29,25.5-4.6-23.1-16.5,2-31,11.8-29.9-40.5,5.9v-7c-.1,0-64-13.1-64-13.1Z"/>
    <path id="TG-C" d="M333.9,281.6l-.8-70.3-17.2-21.4-41.1,8.6-4.8,18.2-21.6-2.7-24.2,21.2-10.9,5.1.2,5.8,23.7,23.4,9.4,18.9-13.6,9.3,2.8,30.7,59.5-8.5,5.3-18.3-2.8-20.6,36,.4Z"/>
    <path id="TG-K" d="M315.9,189.9l-9.5-24.8.8-45.1-32.7-21.9-25.5,4.6-5.7,29-12.2.2-15.6-15.8-4.4.7-.3,36.3-8.4.6,11.4,6.7-14.5,1.4,7,6.8-7.4,7.5,18.1-5.9,11.7,9-9.8,37.1,5.1,19.1,24.2-21.2,21.6,2.7,4.8-18.2,41.1-8.6Z"/>
    <path id="TG-M" d="M292.9,505.4l58.5-17.4-21.2-39.5-.2-22.2-31.7,17.9-11.8-8.5-19.3-.2-4,16.3-16.6,10.9,5.3,11.3,21.2,9.3,19.8,22.1Z"/>
    <path id="TG-P" d="M333.9,281.6l-36-.4,2.8,20.6-5.3,18.3-59.5,8.5.9,19.1-11.4,19.3,14.6,20-4.5,26.7-10.1,5.7,21.4,43.3,16.6-10.9,4-16.3,19.3.2,11.8,8.5,31.7-17.9-3.2-8.8,9.2-.5-2.1-135.5Z"/>
  </g>
</svg>