<svg xmlns="http://www.w3.org/2000/svg" xmlns:amcharts="http://amcharts.com/ammap" id="Layer_1" viewBox="0 0 512 512"><g id="_x3C_defs"><amcharts:ammap bottomLatitude="30.236" leftLongitude="7.529" projection="mercator" rightLongitude="11.599" topLatitude="37.346"/></g><g><path id="TN-11" d="m295 35 2.4 2.1 2.7.8v.5c.1 0 0 .5 0 .5l.3.8 1.7 1.2.2.6-.8.4v.5l-.8.7v.7l-.4.1-.3.8-.6.7.4.4v.2c-.1 0-1.1-.6-1.1-.6h-.8l1.6-.9-.8-.4v-.5c-.1 0-.7-.3-.7-.3l-1.5-.3-1.5.3-.4.4-1.1-.2-.9.6-.6.8v.7l.6 1 .7-.2v.7l-.3.3.6.4v1.3l-.6.8-1.8.3-2.1-.4-1.3 1.9-1.3.4-2.6-.4-.2-1.6-.3-.5-1.2-.4-.8-2.4-.9-.7.2-.5 1.1-.4 2.2.2.9-.9 1.2-.4 1.2-1.3.7-1.2 1-.2 1.8 1 1.2-.4h1.2v-.4l1-.9.4.8h2.7c0 .1.5-.5.5-.5l-.8-.8.8-1.8-.4-.3v-.6l-1.5-1.1-1.1-1.7Z"/><path id="TN-12" d="m279.8 36.9 1.3-1-.4-.6.9-2.2v-1l1.8-1.3 1.6-3.2v-2.3l-.4-1.1.2-.5.6.2 1.1-1.1 1.4-.7 2.1.2 1.2.7h.7l.7.9h1.3v.3l-1.8 1.9-.7 1.8.4 1.4.8 1.3.2 1.8 1 1.6 1.1 1 1.1 1.7 1.4 1.1v.6l.4.3-.8 1.8.8.8-.5.6h-2.7c0-.1-.4-.9-.4-.9l-1 .9v.5H292l-1.2.4-1.8-1-1 .2-.7 1.2-1.2 1.3-1.5-1.1-1.6-3.5-1.5 1.1-1.7.2-.3.3v.9l-2.1-.4.5-.4V41c.1 0 1-.3 1-.3l.6-.7.7-2-.5-1Z"/><path id="TN-13" d="m298.6 46 .3.3-.9.7v.6l1.8 2.5 1.5 1.3 2.8 1.2-.4 1.8-.7.4-.8 3.4-1.4 1.9v.4c.1 0 1.4.1 1.4.1l.5.4v.6l-1.8 4.9 1.5.2.2.3-1.5.8-2.6 1.1-2.1 1.6-1.1.3.5-3.8-2-.2-1.4-1.1-1.2-.5-2.2-3.9-5.1-1.8-1.9.2-.6-.3-1.3-2.9 2.9-2.6 1.2-1.8 2.6.4 1.3-.4 1.3-1.9 2.1.4 1.8-.3.6-.8v-1.3h.5l.8-.5h-.5l.2-.4h.5c0 .1.8 1.3.8 1.3l.4.4h.5l.5-.7v-1.4c-.1 0-.6-.6-.6-.6l.5-.2.6.3v.4c.1 0 .4-.6.4-.6h.4Z"/><path id="TN-14" d="m255.6 42.7 1.3-1.7.9-.5h1.2l.4.8 1.6-1.8 1.7-.3.9-.8 1.3.3 1.4-.5.5-.5.7-1.8 1-1 .2-1.1.5-.5 1.4 1h2.8l2.8.7.4.3 1.1 2.1 2.1-.4.5 1-.7 2-.6.7-.9.3v.6c-.1 0-.6.4-.6.4l2 .4v-.9l.3-.3 1.7-.2 1.5-1.1 1.6 3.5 1.5 1.1-1.2.4-.9.9-2.2-.2-1.1.4-.2.5.9.7.8 2.4 1.2.4.3.5.2 1.6-1.2 1.8-2.9 2.6-.6-.6-1.3-.7h-.7c0 .1-1 1.5-1 1.5l-1.1 3.5-.4.6-.5.6-.7.3h-1.1l-2.7-4.7-1.1-1-.9-1.7-.4-1.8v-2.1c.1 0-.6.2-.6.2l-.6.5h-.9l-3.5-2.6-1.7-.4-1.1-.6-1-2.1-.7.3h-.3c0-.1.1-1.2.1-1.2l-1.4-1.7Z"/><path id="TN-21" d="m335.2 57.4-3.8 7.2-1.4 4-1 1.4v1.2c-.1 0-1.1.5-1.1.5l-1.6.2-1 .6h-1c0-.1-2 .7-2 .7l-1.3.7-1.1 1.2-2.3.9h-.3v-.3l-.6-.4-1.5.3-1.2 1-1.1 1.5-2.6-3.1h-.5c0-.1-.7.8-.7.8l-.2 1.1-.5.4h-.4l-1.9-1.9-3.7.4-.7-.4-.7-1.7.4-4.9-.3-1.1 1.5-.8-.2-.3-1.5-.2 1.9-4.9v-.6l-.5-.4H301c0-.1-.1-.5-.1-.5l1.4-1.9.8-3.4.7-.4.4-1.8 1.6.2 2.8-.9.7-.7 1.3 1 .8-.3.2-.5h-.8v.1h-.3c0 .1-.9-.5-.9-.5l2.8-1 1.3-1.2.3-1.7.4-.3.4-1.8v-1.2l.8-.9.3-1.1h.6l.8-.6-.2-.7.9.5 1.6-.3.4-.3.7.5h1.7l2.4-1.1 1.1-.6 1.7-2 1.9-1.1 2.5-2.2h.5v-.7l1.3-.8V32l.4-.4h.6v-1.2l-.6-.4v-.3l.1-.4v-.5l.2-.8.4.5 1.6-.5h1.2l.6.3 3.8-1.9v-.9l1.4 1.3v.6l.8.8.2.7h-.8l-.2.5v1.8l1.2 2.1.8 1 .3.7.7 4.4 1.5 1.7-1.1 2.9-1.1-.2-2.6 1.7-1.8 1.8-3 4.4-3.1 5.6Z"/><path id="TN-22" d="m279.8 56.4 1.3 2.9.6.3 1.9-.2 5.1 1.8 2.2 3.9 1.2.5 1.4 1.1 2 .2-.5 3.8 1.1-.3 2.1-1.6 2.6-1.1.3 1.1-.4 4.9.7 1.7.7.4-.3 1.9.8 1.4.2 2.8-1.5.9.2.3 1.1.3.3 1-1.1 1.2-2.1.4-2.1-.5-1.1.2-.4.6.3 1.9-1 3.3-2.3 1.1h-.7c0-.1-1.2.3-1.2.3l-2.5-.2-.3.8.5.6v.8l-.6 1.7-1.5 1.1h-1.5l-1-1.3-.6.4v.5l.5 1.2-.5.9v1.3l-.6 1.5-.7.3-1.4-.7-.8-1.3-1.7-.7-3.2.2-1.4-1-.7-1.3-2.4-.8-1.7.9-.8 1-2.9-.9h-.2l.2-.9 1.7-3.8.3-1.1v-.8c-.1 0-.7-.4-.7-.4l-2.6-.8-1-2.1-1.6-.8-1.5.6-.4-2.5-1.2-.4-1.1-1.6.6-.3 1.4.2 1.8-.4 3.1-2.5 1-1.9.6-2.1.4-3.5-.3-1.7-1.1-1.6.2-.7 2.6-1.3 1.8-3.5 2.4-2.2.6-.2h1.1l.7-.3.5-.6.4-.6 1.1-3.5 1-1.3h.7c0-.1 1.3.5 1.3.5z"/><path id="TN-23" d="m266.6 6.6.7.2.7.9 1.1.2h1.5l.3-.5h1.1c0-.1 1.8.1 1.8.1v2.2c.1 0 .8 2.2.8 2.2l-.8.5-.3.6-1 .3v.4h-.5c0 .1-.4.3-.4.3h-.4l-.6.1-.3.3H269c0 .1-.2.9-.2.9h.3l.9-.6h.6l-.6 1.2-.8.2-1.1-.7-.5.2 1 .7-.2.7h.4l.4-.5-.2 2 1.5 1.1.2.5-.2.9.5.5 2.9.4 1.2-1.1 1.6-.6.8-1.4.6-2.5-.4-1h-2.1l-1.9-.6-1.1.2-.5.5h-.8v-.6h.4c0 .1.6-.3.6-.3v-.4c-.1 0 1.4-.5 1.4-.5l.5-1.1.6-.5.7.2v.5l1 .4 3.9.6 2.2-.4 3.2-1.4v.8l1 1.4 2 .2 1.9.8.7.7 2.5 1.4v.5l.6.4h1.9l1.8.4v.2h-.5l-1.3.6h-1l-.1.4-.5.6v-1.1c-.1 0-4.1.3-4.1.3l-1 1.7.4.8-2.1-.2-1.4.7-1.1 1.1-.6-.2-.2.5.5 1.1v2.3l-1.6 3.2-1.7 1.3v1L281 35l.4.6-1.3 1-2.1.4-1.1-2.1-.4-.3-2.8-.7h-2.8l-1.4-.9-.5.5-.2 1.1-1 1-.7 1.8-.5.5-1.4.5-1.3-.3-.9.8-1.7.3-1.6 1.8-.4-.7h-1.2l-.9.5-1.3 1.7-4.3 4.5-2 1.4-2.1 1.9-1.2.2-.7-.2-.4-.5h-.6l-1-3.1 1.8-4.2-.2-.6-1.5-1.8h-2.5l-1.7-1.8-1.7-1.2-.3-2.5-1.9-2.2-.4-3.5-1.4-2.5-2.1.2-1.9 1h-1.4l-.7-3.3v-.6l1.1-1.9v-.7c.1 0-.4-1.3-.4-1.3l2.1-.3.2-.5 1.8-1.2 1.9-2.8 1.5-1.2.5.9v.7l1.9.2 2.3-1.2 2.5-.2 2.4-1.3.7-.8 1.4-.5 2.2.5 2-.6 2.5-1.9 1.8-.7.7.8 1.2-.2 1.8-1 2.5-1.9 1.1.2.4-.3.9.4 2.2-.8Z"/><path id="TN-31" d="m228.1 20.3.5 1.3v.7c-.1 0-1.2 1.9-1.2 1.9v.6l.7 3.3h1.4l1.9-1 2.1-.2 1.4 2.5.4 3.5 1.9 2.2.3 2.5 1.7 1.2 1.7 1.8h2.5l1.5 1.8.2.6-1.8 4.2 1 3.1h.6l.4.4.7.2 1.2-.2 2.1-1.9 2-1.4 4.3-4.5 1.4 1.7v1.1c-.1 0 .2.1.2.1l.7-.3 1 2.1 1.1.6 1.7.4 3.5 2.6h.9l.6-.5.8-.2v2.1c-.1 0 .3 1.8.3 1.8l.9 1.7 1.1 1 2.7 4.7-.6.2-2.4 2.2-1.8 3.5-2.6 1.3-.2.7 1.1 1.6-.4.6-1.1.2-2.5-.3-.6.9v.5l-.9.3-.6-.5h-2c0 .1-1.3-.1-1.3-.1l-1.2-1.5-1.8-1.4-1.6.6-2.8-.3-2.8.4-2.1.8-.6.7v3.4c-.1 0-.7.7-.7.7l-2.2 1-1.3-1-.6-.8-2.3-.6-2.8-.2-1.8 1.2-2 .7-.6-.2-.9-.8h-.6v-1.4l-1.3-1.2-.4-1.1-.5-.4h-1.9l-.8-1 3-.6v-3l1.5-2.6V61c.1 0-2.3-3.4-2.3-3.4l-.7-1.6.2-1.8 1-2.1-1.5-3.2-1.4-.7-3.9-.3-.2-.4.5-3.3 2.3-1.6.9-1.5.3-1.6-3.1-1.9-.6-1.4v-.6l1-1.7v-1.3l-2.6-1.9 2.8-2.8.5-1.2 1.3-1.6v-.3l-.4-.2 1.5-.8 1.4-1.8h.6l.7-.7 1.4-.6h.8Z"/><path id="TN-32" d="m217.4 30.2 2.7 1.9v1.3l-1.1 1.7v.6l.6 1.4 3.1 1.9-.3 1.6-.9 1.5-2.3 1.6-.5 3.3.2.4 3.9.3 1.4.7 1.5 3.2-1 2.1-.2 1.8.7 1.6 2.5 3.4v3.3c-.1 0-1.6 2.6-1.6 2.6v3l-3 .6-3.8.4-.7.5-1.4 1.6-1.4.6h-1.5l-1 .4-6.3 1-3.9-1.2-3.3 1.5-2.9-.2-1.9 1.6-2.1.4-2 1.5-3.4-.4.4-.6v-1.8c-.1 0 .6-.8.6-.8v-.8c-.1 0-2-.4-2-.4l-1.2-1.3-.6.8-.9.2-.2-.3-.9.2.2-.3-.2-.3-1.4-.3-1.3.5-.7-.6H177l-1-1.1h-1.4c0-.1-.5-1.2-.5-1.2v-.9l-.4-.3v-.3c.1 0 .9-.1.9-.1l.5-.9 1.1.4 1.5-.6 2.1-1.6.5.2 1.5-.3 1.7-1.3.4-1.2 1.4-.5.9-.8 1-.4.3.3.5-.3.6-1.4.8-.4 1.8.2.7-2.7-.5-.4 1.1-.4.8-1.1.2-1.1-.4-.2-.3-1.1-.6-.7v-.8l.2-.5-.6-.5-1.2.2-.5-.9 2.6-.9.6-.5h2.4c0-.1.4.4.4.4l1.2-.3 1.1.4 1.6-1.9.7.5.7-.8h.5l2.3-1.3.6-1.4-1.1-1-.5.2-1.3-.5h-.4c0 .1.5-3.5.5-3.5l.2-.3 1-.5-.7-1.3v-.7l2.8-1.4 2.5-.2.2-.3 1.5 1.3h.9l2.5-1.6h.6c0-.1 4.1-3.6 4.1-3.6Z"/><path id="TN-33" d="m218.5 71.1 1.1 2.7 1.5 1.6.8 2.5-.2.6-1.5 1.6v.8l2.5 4.7 2.2 1 .5.7-.2.9.2 1.6-.8 1.3.9 3.1 1.5.2.8 1.4h1.3c0-.1.3.8.3.8l2.1.7-.2 2.7.5 3.6-3.4 2.8-.3.7.2 1.6-.3 1.6-.9.6-1.6.5-.9 1-.4 1.6h.8c0 .1-.2.7-.2.7l-.8.7.5 2.7-.2 1.1-1.1 1.7 1.3 2.4v2.4c.1 0-1.8-.8-1.8-.8l-5.3-1.3-2.4-.9-4.9-3.5-2.5.8-2.3-1.1h-1.4c0 .1-1 1.8-1 1.8l-1.3.6-1.2 1 .4 3.3-.2 1-1.9 2h-.7l-.9.5-1.6-1.8-1-.6-5 .5-1.8 1.6-1.1 1.6h-1.2l-.3-2.8-1.1-.7h-1l-.4-.6h-.2l-1.6-2.2-.9-.5v-.6c.1 0-.3-1.7-.3-1.7l.8-4.1-.3-3.7.6-1.5h-1l.6-.9-.9-.4.4-.7v-1.4l.8-.8.8-.3.5-4.3-.3-1.5.2-.6.6-.7.9-2.5 1.2-1-.4-2.7-1.5-1.5-.2-1.1 1.4-1.4.5-1.6.8-1.3v-1.4l-.3-.6-.7-.3 1-1.6.7-.6h.8v-.5h.4c0-.1-.6-.7-.6-.7l-.3-1 .3-.9-.2-1.1 1-.9 3.4.4 2-1.5 2.1-.4 1.9-1.6 2.9.2 3.3-1.5 3.9 1.2 6.3-1 1-.4h1.5l1.4-.6 1.4-1.6Z"/><path id="TN-34" d="m223.1 70.2.8 1h1.9l.5.5.4 1.1L228 74v1.4h.6l.9.8.6.2 2-.7 1.8-1.2 2.8.2 2.3.6.6.8 1.3 1 2.2-1 .6-.7V72c.1 0 .7-.7.7-.7l2.1-.8 2.8-.4 2.8.3 1.6-.6 1.8 1.4 1.2 1.5 1.3.3h2c0-.1.6.3.6.3l.9-.3v-.5l.5-.9 2.5.3 1.1-.2.4-.6.3 1.7-.4 3.5-.6 2.1-1 1.9-3.1 2.5-1.8.4-1.4-.2-.6.3 1.1 1.6 1.2.4.4 2.5 1.5-.6 1.6.8 1 2.1 2.6.8.5.4v.8c.1 0-.2 1.1-.2 1.1l-1.7 3.8-.2.8h.2l-5 4.8-1.1.2-2.7 3.6-3.3 2.8-2 1.1v.6l1.5 2.5-.5 1.6.4 1-1.7 2.2v.8l.5.8 1.6 1.6 1.3.3-.5.5-.5.5-2.3.2-1.5 1-2.6.9-.9.7-.8-.4h-1.7c0 .1-3.4-1.5-3.4-1.5h-.7c0 .1-.9 1.4-.9 1.4v1c.1 0 1 1.4 1 1.4l1.6 1.7 1.8 1.1 1.5 1.8.9.2 1.4 2.6 1 1 .3 2.7.5 1.3.3.5-1 .5-2.3-.5-1.1.5-2.6.3-.7-.2.2-.6-.6-1.9-1.3-1.2h-.9c0-.1-.3-1.2-.3-1.2l-1.2.4h-1.4c0-.1-1.8-1.2-1.8-1.2l-.3-.7.3-1.6-1.4-1.2-.8-.3-.6.3-2.4-.2-1.3.6-.7-.4-1.2-2.1-1.4.6h-.9l-.7-.5-.9-2.3-1.5-.9 1.7-.6.7-.6 1.9.8v-2.4c-.1 0-1.4-2.4-1.4-2.4l1.1-1.7.2-1.1-.5-2.7.8-.7.2-.6h-.8c0-.1.4-1.7.4-1.7l.9-1 1.6-.5.9-.6.3-1.6-.2-1.6.3-.7 3.4-2.8-.5-3.6.2-2.7-2.1-.7-.3-.9h-1.3c0 .1-.8-1.3-.8-1.3l-1.5-.2-.9-3.1.8-1.3-.2-1.6.2-.9-.5-.7-2.2-1-2.5-4.7v-.8l1.5-1.6.2-.6-.8-2.5-1.5-1.6-1.1-2.7.7-.5 3.8-.4Z"/><path id="TN-41" d="m293.2 92.8-.7.9v2.7l-.7 1.4v.6l2.5.2.5.4 1.1 3.6v1.6l-2.9 7-1.3 2.5-1.5 1.9-.2.7 2.1 2.8.6 1.8 1.6 1.3 2.9 7.6 1 1v.6l.9 1.9-2.5.6-2.5 1.8 1.9 3.8-2.1 1.9-.3 1.4-2 1.4v1.9c-.1 0-1 2.7-1 2.7l.2 1.1 1.5 1.4-.4 2.9v3.6c-.1 0 2.4 2.1 2.4 2.1l-.5 2.7.4 1.6h-.3c0-.1-.8.4-.8.4h-1.5l-1.3.8-1.4 1.7-3 2.8-2.2 3.4-1.5-.2-.9-.5v-3.5c-.1 0-.8-3-.8-3v-2.7l-.5-.2-1.1.8-2.9 1.2-4.2-2.4h-1.3l-2.7-.6-1.3.2-1.3-.3-2.6-1.6.2-1-.5-.8-1.6-1.7-1.4-2.1-1-.8-.8-.2-2.4 1.7-1.7-3.2-2.9-1.6-1.2-1.4v-.9c-.1 0 1.7-2 1.7-2l.7-1v-.5l-.7-3.9-2.4-1.3-.5-.6-.5-1.3-.3-2.7-1-1-1.4-2.6-.9-.2-1.5-1.8-1.8-1.1-1.6-1.7-.9-1.4v-1c-.1 0 .8-1.3.8-1.3h.7c0-.1 3.4 1.5 3.4 1.5h1.7c0-.1.8.3.8.3l.9-.7 2.6-.9 1.5-1 2.3-.2.5-.5.5-.5-1.3-.3-1.6-1.6-.4-.8v-.8l1.6-2.2-.4-1 .5-1.6-1.5-2.5v-.6l2-1.1 3.3-2.8 2.7-3.6 1.1-.2 5-4.7 2.9.9.8-1 1.7-.9 2.4.8.7 1.3 1.4 1 3.2-.2 1.7.7.8 1.3 1.4.7.7-.3.7-1.5v-1.3l.4-.9-.6-1.2v-.5l.6-.4 1 1.2h1.5l1.5-1.1.6-1.7v-.8l-.4-.6.3-.8 2.5.2 1.2-.4h.7Z"/><path id="TN-42" d="M185.6 130.6h1.2l1.1-1.7 1.8-1.6 5-.5 1 .6 1.6 1.8.9-.6h.7l1.9-2 .2-1-.4-3.3 1.2-1 1.3-.6 1-1.7h1.4c0-.1 2.3.9 2.3.9l2.5-.8 4.9 3.5 2.4.9 5.3 1.3-.7.6-1.7.6 1.5.9.9 2.3.7.5h.9l1.4-.5 1.2 2.1.7.4 1.3-.6 2.4.2.6-.3.8.3 1.4 1.2-.3 1.6.3.7 1.8 1h1.4c0 .1 1.2-.2 1.2-.2l.3 1.1h.9c0 .1 1.3 1.4 1.3 1.4l.6 1.9-.2.6.7.2h.1c0 .1-1.8 1.5-1.8 1.5l-.4.6-2.4 1.4-5.1 7.2-1 2.5v.7l.5.5h.7l1.6 1 .8 1.5 3.9 2.5v.5l-1.3.7v.5c-.1 0 .2 1.4.2 1.4l-.2.6.2.9-.7 1 .9 2.3-.5 1.5.9 1.2.6.4v.9c-.1 0-.7 1.2-.7 1.2l-1 .4-4.6.5-2.6 1.5h-2.2c0 .1-.8 1.6-.8 1.6l-2.3 2.6-.5 1.6v.7c-.1 0 1.5 1.2 1.5 1.2v.8l-2.4 1.1-1.6 1.5-6.2 2.4-2.5 1.9-2 .9-4.1 2.6-2.5.7-4.8 2.7-2.2.9.5 1.7-.2.8h-1.3l-1.6-.4-1.1-.7-4.3-3.4h-1.3l-2-1.2-4.8-2-.7-1.7.3-2.2-.7-2.6v-1.5l-.7-.9v-1.3l-.8-1.9 3-2.1h1v-4.2l2.4-6.4 2.6-2.2.8-1.6.4-1.9 1.8-2.9 1.4-1.5-2 .2-1.1-.6h-1.1l-2.8-2.2-1.5-.3-1.2-2.4v-.9h.4v-1.3l-.2-2.4.9-2.1v-.4c-.1 0-.8-.1-.8-.1l.7-.5 1.3-2.8 2-.5v-1.2c.1 0-.6-.7-.6-.7l-.8-2.1.2-1.6-.7-4.6.5-1.6Z"/><path id="TN-43" d="m248.5 139.5.5.6 2.4 1.3.7 3.9v.5l-.7 1-1.8 2v.9c.1 0 1.4 1.4 1.4 1.4l2.9 1.6 1.7 3.2 2.4-1.7.8.2 1 .8 1.4 2.1 1.6 1.7.5.8-.2 1 2.6 1.6 1.3.3 1.3-.2 2.7.6h1.3l4.2 2.3 2.9-1.2 1.1-.8.4.2v2.7l.7 3v3.5c.1 0 1 .5 1 .5l1.5.2.8 1.5-1.6 4.8v.9l-1.1 1.9-2.3 2.9v.7l-.9.9-2.9 6.4-4.3 7.2.2.9 1.6 2.7 3.7-.5 2.1-.7.9.5 1 1.2 4.3 2.4-.2 1.7-1.3 2.4-3.2 1-1.9 2-1.5-.5-.7.4-2.2 3.9-1.4 1.8-2.1.8-1.8-.2-2.9 1.4-.4.7.7 2.3.7 1.1-.4.7h-1c0 .1-2-.8-2-.8l-.2-.5-2.7-1.2-4.1.9-.7-.9.6-1.7.5-3.2.8-1.7-.4-.7-1.7-.8-3.7-1.1-1.2-2-1.2-1.1-2.7-1.6-4.1-.2-.3-.4v-.8l-1-1.1-.9-.6-.7-.2-1.1.2-.6-.4-.4-1.1.2-2.6-.8-2 1.9-2.1v-.9l-.5-.5-1.4 1.6h-.7l-1.4-2.1h-1.4c0 .1-.8-.5-.8-.5h-1c0-.1-.7-.6-.7-.6l-1.4.3-1.4-.2-2.1-1.1-1.4.8-3.9 1.1-1.5-1-1.6-.5-1.2-.9-2.3-.4-2.2-1-1.2-1 2-.9 2.5-1.9 6.2-2.4 1.6-1.5 2.3-1.1v-.8l-1.6-1.2v-.7c.1 0 .6-1.6.6-1.6l2.3-2.6.8-1.5h2.2c0-.1 2.6-1.6 2.6-1.6l4.6-.5 1-.4.6-1.2v-.9c.1 0-.5-.4-.5-.4l-.9-1.2.5-1.5-.9-2.3.7-1-.2-.9.2-.6-.3-1.4v-.5c.1 0 1.5-.7 1.5-.7v-.5l-4-2.5-.8-1.5-1.6-.9h-.7l-.4-.6v-.7l.9-2.5 5.1-7.2 2.4-1.4.4-.6 1.8-1.3h-.1c0-.1 2.6-.5 2.6-.5l1.1-.5 2.3.5 1-.5-.3-.5Z"/><path id="TN-51" d="m302.3 75.9 3.7-.4 1.9 1.9h.4l.5-.4.2-1.1.7-.9h.5c0 .1 2.6 3.2 2.6 3.2l-1.6 3.2-1.8 5.9-.7 5.9.3 4.3 1 3.7.5.8h.6l.6.4.7 3.6.8 1.6 3.4 4.6v1.2c.1 0 .9 1 .9 1l.5 1.3 1.5 1.3h-.2v.8l.9.8-.8.9.2.7-.5 1.7h-1.2l.3.9-.3.6v2.8c-.1 0 .3.9.3.9v.6l-1.5 1.5-.8 2.1-.7.4-2.5.4-.5.6v.8l.7 1.3-.2.8-.5.6-2.6 1.7.6 1.9 1.5.9h.7c0 .1.6-1.5.6-1.5l1.7-.5 1.4 1.2v1.1c.1 0 0 .9 0 .9l-1.8 1.2-1.2 2.5-3.2-.9-2.1-2.3-.7-1.7h-.8l-1.4-1.1-.5.2-1.1-.3-.7.6v.6h-.5l-.5-1-1.1-1-1.8-2.4-.3-1.1.2-.6 1.1-1.1h-.5l-.9-1.9v-.6l-1-1-2.9-7.6-1.6-1.3-.6-1.8-2.1-2.8.2-.7 1.5-1.9 1.3-2.5 3-7v-1.6l-1.2-3.6-.5-.4-2.5-.2V98l.7-1.4v-2.7l.7-.9 2.3-1.1 1-3.3-.3-1.9.4-.6 1.1-.2 2.1.5 2.1-.4 1.1-1.2-.3-1-1.1-.3-.2-.3 1.5-.9-.2-2.8-.8-1.4.3-1.9Z"/><path id="TN-52" d="m320.3 118.5 1.3 1.3 2.3 1.4.8.2h.8l1.3-.6.4-.5h.8c0 .1.6-.3.6-.3l1.4.3.2.4.5.6-.2.8h-.6c0 .1-.5 1.5-.5 1.5l.2 1.1-.5.3.7 1.2 1.7 1.2h.9l.7.7 3.5 1 .9.3 1.3.2.2.5 1 .7h1.2l1.3.7.2.2-.3.2v1l-.8 2-3 .5.4.9-.5.2v.6c-.1 0-1.8.2-1.8.2l-.4.3v-.5c-.1 0-1-.5-1-.5l-1 .6-3.3 2.3-2.2 2.2v1.3l-.4.3-1.5.2-2-.4-.9-.8-.9-2-2.5.2-2.1-.4-2.7.2-1.4-1.2-1.7.5-.6 1.6h-.7c0-.1-1.5-1-1.5-1l-.6-1.9 2.6-1.7.5-.6.2-.8-.7-1.3v-.8l.6-.6 2.5-.4.7-.4.8-2.1 1.4-1.5v-.6l-.4-.9v-2.8c.1 0 .5-.6.5-.6l-.3-.9h1.2l.5-1.7-.2-.7.8-.9Z"/><path id="TN-53" d="M299.2 133.2h.5l-1.1 1.1-.2.6.3 1.1 1.8 2.4 1.1 1 .5 1h.5v-.6l.7-.6 1.1.3.5-.2 1.4 1.1h.8l.7 1.7 2.1 2.3 3.2.9 1.2-2.5 1.8-1.2.2-.9v-1.1h-.1l2.7-.2 2.1.4 2.5-.2.9 2 .9.8 2 .4 1.5-.2.4-.3V141l2.2-2.2 3.3-2.3 1-.6.8.5v.5c.1 0 .5-.3.5-.3l1.6-.2v-.6c.1 0 .6-.2.6-.2l-.4-.9 3-.5v2.4l.5 1.7 1.3 1.1 1.1-.2-.8 1h-.4l-1 3.7-.2 1.9.6 1.9-.8.3-.2 1.4.5 2.9.8 1.3 2.7 3 2.6 2 1.3.6-1 .6-.8-.5-1 .4-.6.7v1.4l-.6.2v.6h-.5l-.5.9.4.6h-1.6l-.6.4-1.7 3.5-3.2-.2-1.2-.6-1 .4-.5-.2-.5-2.4.2-1-.6-1.5-.8-1-.6-.2-.9 1.8-2.1 1.1-1.2-2.6-1.5-1.9.4-3-.3-.7-1.6-.9-4.2 2.8h-1.9l-3.4-1.6h-.9l.1 1-1.6 2.2 1.4 1.8-1.8.7-2.2 1.7-4 3.9-1 .5-2.5-1.3-2.2-1.8-1.5-.3-3.1.3-3-1.3-.4-1.6.5-2.7-2.5-2.1v-3.6c.1 0 .6-2.9.6-2.9l-1.5-1.4-.2-1.1.8-2.7v-1.9c.1 0 2.1-1.4 2.1-1.4l.3-1.4 2.1-1.9-1.9-3.8 2.5-1.8 2.5-.6Z"/><path id="TN-61" d="m345.2 199.1.3.4h1.3l.4.4v.3l-1 .2-1.4.9-1.4 1.5h-.5l-.2.3-4.6-2.7 1.7-1.3.5.2 1.9-.2.7.4.4-.3h1.3c0 .1.6 0 .6 0Zm9.6-11 .6.4.3 1 .5.4.2-.2-.5-.5v-.4c.1 0 1.5.5 1.5.5l1.1.8-.2.3-.9-.6-.8.3.4.5-.4.2.2.6.8 1.4-.5-.2-.2-.5h-.6l-.2-.5-.3.2.3.3v.7l.9.7.6 1.4-.5.4-.9-.2-1 .8h-.8v.5l-.4.3-2.6.5-4.3 2.7-.3-1.1.7-.4v-1l.8-.3.6-1.3 1-.4-.5-.9h.8l-.6-1.5h.6l.2.9.9.6h1.6c0 .1-.2-.6-.2-.6l.3-.2v-.8c-.1 0 .2-.3.2-.3l-.7-.6-.2-.7h.7c0 .1.4-.1.4-.1v-.3h.7l-.4-1.1h.6l-.4-1.1.6-.4Zm-60.4-24 3 1.3 3.1-.3 1.5.3 2.2 1.8 2.5 1.3 1-.5 4-3.9 2.2-1.7 1.8-.7-1.4-1.8 1.6-2.2v-1.1h.7l3.4 1.5h1.9l4.2-2.7 1.6.9.3.7-.4 3 1.5 1.9 1.2 2.6 2.1-1.1.9-1.8.6.2.8 1 .6 1.5-.2 1 .5 2.4.5.2 1-.4 1.2.6 3.2.2v1c-.1 0 .3 1 .3 1l-.4 1.4.2 1-1 1.5v.6l-2.8 1.5-1.9 1.9-.3 1.4v4.2l-2 2.6-.2 1.1-.8.9v1.7l-1.3.3-1.2.7-.7 1.1h-.6l-.2.5-1.2.6-.6.6-.2.7.6.4-.5 1.1-.5.2-.2-.6-.2.2v-.7h-.3l-.6 1.1v.4c.1 0 .8.3.8.3v.4l-.2.2-.2-.5h-.5l.2 2-1 1.4-.8-.6h-.4l-.4.3v.4c.1 0-.1.3-.1.3h-.8l-.8.9h-.6l-.6.3v.8c-.1 0-.8.4-.8.4l-.7 1.6-.7.4-.3 2.6-.5.8-2.5 1.1-1.3.2h-1.6l-.6.5h-1.2c0 .1-2.3 2.1-2.3 2.1l-3.3 4.6h-.6l-.2-.4-.7-.2-.4 1.1.8-.4v1.1c-.1 0-1.8.7-1.8.7l-1.7-.8-.6.6.3.3-.2.8-.4-.4-.6 1.3-1.7.3-1.4 1.2-1.4-.7-.7 1.9-1.2.2v1.5l-1-1-1.1.4-1.9 2.5-1.4 3.5-1.2 1.8-.5 2.3-.2.3-.6-.2v-.6l-2-1.1v-.7c-.1 0-1.4-.7-1.4-.7l-.4.3.5 1.2-.5.8-.5.4-1.3.2-.8-.3-2-1.8-1.2-2.3-2-.9-1.5.9-.9.2-1.4-.3-2.8-1.9-.8-2.2 2 .9h1c0-.1.4-.8.4-.8l-.7-1.1-.7-2.3.4-.7 2.9-1.4 1.8.2 2.1-.8 1.4-1.8 2.2-3.9.7-.4 1.5.5 1.9-2 3.2-1 1.3-2.4.2-1.7-4.3-2.4-1-1.2-.9-.5-2.1.7-3.7.5-1.6-2.7-.2-.9 4.3-7.2 2.9-6.4.9-.9v-.7l2.2-2.9 1.1-1.9v-.9l1.6-4.8-.8-1.5 2.2-3.4 3-2.8 1.4-1.7 1.3-.7h1.5l.8-.6h.3Z"/><path id="TN-71" d="m211.5 192 1.2 1 2.2 1 2.3.4 1.2.9 1.6.5 1.5 1 3.9-1.1 1.4-.8 2.1 1.1 1.4.2 1.4-.3.7.5h1c0 .1.8.7.8.7h1.4c0-.1 1.4 1.9 1.4 1.9h.7l1.4-1.5.5.5v.9l-1.9 2.1.8 2-.2 2.6.4 1.1.6.4 1.1-.2.7.2.9.6 1 1.1v.8l.3.4 4.1.2 2.7 1.6 1.2 1.1 1.2 2 3.7 1.1 1.7.8.4.7-.8 1.7-.5 3.2-.6 1.7.7.9-1 2.5-1.2 1.1-4.2 1.7-1.8.2-5.1-1-1.7.2-2.4 1-1.5 1.1-1.9.8-4 .3-1.5.7-2.1-.9-3 1.1-1 .5-.9 1.3.9 1.7v.7l-.3.8-.9.8h-1.6c0 .1-2.9-.4-2.9-.4l-1.9-1.3-3.1 1.3-3.8-.4-4.1.5-2.7 1v.4h-.1l-3.4-1.2-10.7.3-2.1.6h-2v-.5l.6-1.4v-.9l-1.3-1-.6-1.6-5.3-2.2-2.5-.3-.9-.9-1.2-2.4-6.3-5.1.4-1.1 2.1-2.9.3-1.1 3.1-.7 1-.7-.3-.7-2.7-1.6.2-2.1 1.2-1.7.4-1.1-.7-1 1.2-.4.2-.9.8-.4-.3-1h.6v-.6l.9.2 1.2-.4h.9l-1-.8.4-.2.2-.9 1-.3v-.3l.2-.1h1l-.5-1.1 1.9-1 .4-.7v-.4h-1.3l-1-.6-.3-.7.3-.8 1.4-.3 1.7-2.8.9.2.5-.2-1.5-1.2 4.8 2 2 1.2h1.3l4.3 3.4 1.1.7 1.6.5h1.3l.2-.8-.5-1.7 2.2-.9 4.8-2.7 2.5-.7 4.1-2.6Z"/><path id="TN-72" d="m172.1 209.5.7 1-.4 1.1-1.2 1.7-.2 2.1 2.7 1.6.3.7-1 .7-3.1.7-.3 1.1-2.1 2.9-.4 1.1 6.3 5.1 1.2 2.4.9.9 2.5.3 5.3 2.2.6 1.6 1.4 1v.9l-.7 1.4v.6h2.1l2.1-.6 10.7-.3 3.4 1.2-.5 2.3-1.1 2.5-1.5 1.5-3.4 4.9-8.7 6.7-9.4 8.1-8.5 6.2-3.7 3.5-7 5.6-3.6 2.6-5.5 1.8-7.4-11.7-1.5-4.1.4-2.8-.7-4.4-1.4-1.8-2.3-1.2 1.4-2.7-1.5-5 1.4-2.1-.3-2.7.9-2.9-1.5-1.7-.4-1.4.4-.5 2.6-.9.6-.7h-.5l-.1-.2 2-1 .3-1.8 2.5-4 4.5 2.1 4.6-3.2-.2-2.1 2.5-8.1v-3.5h1.4l.7-.6h1.6l.8-.3.3-.8.4-.5h.5v-.5h1.1l2.2-.8.5-1.1 1.4-1.4 1.7-.2v-.4l.7-.9 1.8.2.3-.8.5-.3Z"/><path id="TN-73" d="m237.9 231.8 4.4 4.4.7 1.2-1.5 2-2.6 1.9-1 1.3v2.3c.1 0-.5 6.1-.5 6.1l.4 3.4 2.2 3.9.9.8 1.1 2.2.7 1.5v1.6c.1 0 1 2.3 1 2.3l1.2.3.7.7.5-.3 1.8.2 1.5 1.6.2 2.1.8.5 2.6-.3.6.4 1.1 2 2.1 1-2.3 2.4v2.5l-1.3 1.5 1.6 1.9.4.9 3.9 2.7 1 3.2 1.4 1.8.9 1.8 1.9 1.7 3.2 3.2 1.4 1h.8c0 .1.9 1.1.9 1.1l1.8.7 2-.2 1.7.2 1 .7v7.9l-1.1.9-.4 1.7.8.6.7 1.6 1.6.5 2.4 1.4.6.9-.2.4-3 .2-.4.5.5 5.2.2.5 1.4.8.2.5-.5 1.2-1.4.7-.8 1.2-.8.3-.4.5.5 2.3-.8 1.6-1 .7.3.8 3.5 3.4.5.7-.2.7h-.7c0 .1-3.3-.8-3.3-.8l-.8-.8-.9-1.9-4.6-2.2-2-4.4-.7-.4-2.4.7-1.8-.3-1.4.8-3 .7-4.4 2.8-13 3.5-5.5 1.9-14.6.2-34.6 9.2-1.8-20.4-4.4-7-4.6-5.6-3.1-3.1v-3.5l-12.3-5.9-4.3-.3-2.6-6.9-2-10 5.5-1.8 3.6-2.6 7-5.6 3.7-3.5 8.5-6.2 9.4-8.1 8.7-6.7 3.4-4.9 1.5-1.5 1.1-2.5.5-2.3v-.4c.1 0 2.8-1 2.8-1l4.1-.5 3.8.4 3.1-1.3 1.9 1.3 2.9.5h1.6c0-.1.9-.9.9-.9l.4-.8v-.7l-.9-1.7.9-1.3 1-.5 3-1.1 2.1.9 1.5-.7 4-.3 1.9-.8Z"/><path id="TN-81" d="m256.9 225 4.1-.9 2.7 1.2.2.5.8 2.2 2.8 1.9 1.4.3.9-.2 1.5-.9 2 .9 1.2 2.3 2 1.8.8.3 1.3-.2.5-.4.5-.8-.5-1.2.4-.3 1.2.7v.7c.1 0 2.2 1.1 2.2 1.1v.6h-.3c0-.1-.1.2-.1.2l.5.6v.8l-.1 1.8.3 1.3-.2 1.3.6 3.3.9 3.1 3.6 7.1 4.3 5 5.2 4.1 3.4 3.9 3.7 2.3 3.6.9-2.3 1.4-.6.8-3 4.9-.2 1.1-2.3 3.5-1.4 1.5-.6 1.8-1.1.9-3.6-.2-3 1.6v.7l-.6 1-1.8.6-.6.5v1.8l-2 1.5-2.5.6-.7.7-2.1-.7-1.3 1.2-1 .3-1.9-.3-2.3.4-.6-.3-1.7.2-2.6.8-4.1-1.1-1.9-1.7-.9-1.8-1.4-1.8-1-3.2-3.9-2.7-.4-.9-1.6-1.9 1.4-1.5v-2.5l2.2-2.4-2.1-1-1.1-2-.6-.4-2.6.3-.8-.5-.2-2.1-1.5-1.6-1.8-.2-.5.3-.7-.7-1.2-.3-.9-2.3V263c-.1 0-.8-1.5-.8-1.5l-1.1-2.2-.9-.8-2.2-3.9-.4-3.4.6-6.1v-2.3c-.1 0 .9-1.3.9-1.3l2.6-1.9 1.5-2-.7-1.2-4.4-4.4 1.5-1.1 2.4-1 1.7-.2 5.1 1 1.8-.2 4.2-1.7 1.2-1.1 1-2.5Z"/><path id="TN-82" d="m335.2 269 1.7 3.5 1.4.6h.6l.7-.4v-.5l-.4.1v-.4h1l.5.6 1.2.4.8-.2 3.5 4.7.5 1.4v2.7l.5.6h-.7l.5.7-.8.5-.8 1.9v1.1l.7 1.3.3.3 1.6 1.4-1.4 1.6h-1l.1.5h1.1l1-1 1.9 1.7.4 1.3 3.8 1.5 1.5 1.1 2.5 1.1.7-.2-.7.4-8.8-3.3h-.8l-.4.4h-.6c0-.1-.3 1.3-.3 1.3h-.6l.3 1.2h.4c0-.1.8 1 .8 1l1.3.9.3 1v1l.6 1.1.8.2 1.3-.5 1.4.4 1.6-.2 5.8 1.8.8.7.8-1.3 1.3 1 1.4-.5-.2.6.6.6.5.2.9-.6v.5c.1 0 1.1.3 1.1.3v-.3l-.4-.1v-.3l-.2-.3-.8-.3-.6.3v-.9l-.6-.4-1.4-.8-3.8-3.3-1.9-.9v-.4l.3-.3v.5l1.9 1 3.1 2.5 3.9 2.3 2.8 1.1 2.4.3-.8 3.5-1.3 2.8-.4 4.7.4.3v.8l-.7.9-1.6 5.8 1.1 3.4-1.1 5.4.6 3.3-.6 3.5 1.2 3.7 2 1.5 2 2.4 1.2 2.3-4.1 8.3-3.7 2.9-2.2.5-3.4 2.2-9.5 3.1-3.4 1.6 1.1-2.7 4-7.9 10-6-.6-1.5-2.8.6-16.4-13.1V336c.1 0 .9-1.2.9-1.2V332l.2-1.2-.4-2.1.2-3.1.9-1.9 1-.9.4-.9-3-3.4-1.1-.5-1.5-1.3-1.4-2.3-.6-2.9-16-7.6-2.5-1-.4.5-4-2.5 1.5-1.1.6-1.5.7-.5v-.7c-.1 0-1.7.8-1.7.8l-1.8.5-3.6-1.5H311l-1 .5-5 3.1-2.7.5-1.8.6h-1.9l-.8.6-1.2 1.8-1.1 1-1.3.5-3.4-1-2.2.2-.7.4-.6.8-.5.9v.9c-.1 0-.6.6-.6.6l-1.4.5-5 1.1-2.7-.2v-7.9l-.9-.7-1.7-.2-2 .2-1.8-.7-.9-1h-.8c0-.1-1.4-1.2-1.4-1.2l-3.2-3.2 4.1 1.1 2.6-.8 1.7-.2.6.3 2.3-.4 1.9.3 1-.3 1.3-1.2 2.1.7.7-.7 2.5-.6 2.1-1.5v-1.8l.5-.5 1.8-.6.6-1v-.7l3.1-1.6 3.6.2 1.1-.9.6-1.8 1.4-1.5 2.3-3.5.2-1.1 3-4.9.6-.8 2.3-1.4 1.4.6v1.2l.2.4.2-1.1h.5l1.5-.5 4.4-.5.6-.7 2.2-.4 1.9-1.6 1.2-.6h1.2c0-.1.7.3.7.3l.7 1.7-.8 2.4.3 2.8-.6.7-.2 1.3h-.5l-1.6 1.4-.3 1.5.7.3.6.6-.3 2h1.8c0 .1.8 1.1.8 1.1l2.3.2.3-.5h.8c0-.1.4-.9.4-.9l2.1-.4.5-.6 4.7-1.1-.3-.4 1.1-1.5.3-1-1.3-2.3-.9-.6.5-.8 1.5-.6-1.8-3.7-.9.3-.5.7-.2 2.3-.8-.4-.3-1.2.6-1.5v-.9l-3-3.4-.9.2-1.4 1-.2 1.1-1.5.5-1.4-2-.5-1.5v-.9c-.1 0 .1-.8.1-.8l1-1.8v-2.8l-.4-1.1.2-.7-.3-.9.3-.8 3.6-.8 3.9 1.6.5-.2.6.4h1.1l1.3-.2v-.5l-.4-.6h.3l1.4 1.4 1.6 1 1.3 1.6 1.1.5.8-.3.9.6.3 2.3-.3.2.3.5-.2.4h-.6c0-.1-.9.5-.9.5l-1 1.1v-.3l-.7.3-.9 1.7v2.4c-.1 0-.6.7-.6.7h-.2l-.4-.6.3-1.1-.2-1.3h-.7c0 .1-.9 2.4-.9 2.4h-.4l-.8.9Z"/><path id="TN-83" d="m276.8 310.2 2.7.2 5-1.1 1.4-.5.5-.6v-.9c.1 0 .6-.9.6-.9l.6-.8.7-.4 2.2-.2 3.4 1 1.3-.5 1.1-1 1.2-1.8.8-.5h1.9l1.8-.7 2.7-.5 5-3.1 1-.5h1.3l3.6 1.5 1.8-.5 1.5-.8v.7c.1 0-.5.5-.5.5l-.6 1.5-1.5 1.1 4 2.5.4-.5 2.5 1 16 7.6.6 2.9 1.4 2.3 1.5 1.3 1.1.5 3 3.4-.4.9-1 .9-.9 1.9-.2 3.1.4 2.1-.3 1.2v2.8l-.7 1.2v1.1c-.1 0 16.3 13.1 16.3 13.1l2.8-.6.6 1.5-10 6-4 7.9-1.1 2.7-3.4 1.7h-.8l-2.3 1.9-3.1 1.1-7.3 5.2-.5 1.9-3.2 5.7-1.6.3-2.2 1.1h-.8l-2.8-.6-1.7 1v1.9c-.1 0-1 1.4-1 1.4l1.1 2.2v.7l-.5 1.3-3.1 2.8-.5.8-.7 2.6-1.2 1.3-.7.5-4.2 1.3h-1l-2.8-.8-1.2.2-4.8 3.3-4 7.1-5 6.9v1.6l.4.9v1.9l.6 2.3 5.2 13 1.2 4.5 1.3 2.5.2.9-.7 2.5v1.3l1.3 6.6.6 1.4-.7 1v1l-1 3.7-3.8 7.6-2.3 1.8-1.3 2.4-2.2 2.8-.8 1.6-4.7 5.4-.8 2-1.7 2.8-.9.7-.9 2-1.7 1.3-1.7 1.7-4.3.6-2.4 1.2-1.8.5-2.2 1.6-1.8.7-3.5 2.1-3.4.9L230 392.5l-3.2-12.6h-.3L211 369.7l-25.9-18.4-.2-1.8 34.6-9.2 14.6-.2 5.5-1.9 13-3.5 4.4-2.8 3-.7 1.4-.8 1.8.3 2.4-.7.7.4 2 4.4 4.6 2.2.9 1.9.8.8 3.3.9h.7c0-.1.2-.8.2-.8l-.5-.7-3.5-3.4-.3-.8 1-.7.8-1.6-.5-2.3.4-.5.8-.3.8-1.2 1.4-.7.5-1.2-.2-.5-1.4-.8-.2-.5-.5-5.2.4-.5 3-.2.2-.4-.6-.9-2.4-1.4-1.6-.5-.7-1.6-.8-.6.4-1.7 1.1-.9Z"/></g></svg>