<svg xmlns="http://www.w3.org/2000/svg" xmlns:amcharts="http://amcharts.com/ammap" id="Layer_1" viewBox="0 0 512 512"><g id="_x3C_defs"><amcharts:ammap bottomLatitude="-1.482" leftLongitude="29.573" projection="mercator" rightLongitude="35.033" topLatitude="4.219"/></g><g><path id="UG-223" d="m451.5 279.2-13.1 1.4-8.2 7.6h17.4l3.8-9Z"/><path id="UG-329" d="m250.4 137.3-39.5-5.9-28.2 15.7 9.1 11.1-15.9 27.1 17.5-8.6 18.3-1.8 10.8-6 33.2 9.6-1.6-17.8 10.5-.8-16.2-12.6 2.2-10.1Z"/><path id="UG-325" d="m102.5 397.6-15.7-3.9-15.5 8.4-.7 9.6 16.4 6.5 12.5-4 2.9-16.6Z"/><path id="UG-425" d="m82.3 441.1 13.3-10.9 3.9-16.1-12.5 4-1 10.9-13 1.4 1.9 8 7.4 2.6Z"/><path id="UG-422" d="m73 430.5-19.4-11.2-2.6 10.2 12.6 12.1 11.3-3.1z"/><path id="UG-424" d="M76.6 382.2 59 390.5l-28.2-3.2-3.3 19.2 23.6 3.8 19.5 1.4.7-9.6 15.5-8.4-6.4-8z"/><path id="UG-122" d="m214.9 370.9-12.6.3 6.3 27 22.1-2.8-3.4-9-7-10.4-5.4-5Z"/><path id="UG-118" d="m202.3 371.2-5-.2 1.3 27.2h9.9l-6.3-27Z"/><path id="UG-116" d="m170 398 .8-16.1-18.3-2.7 5 42.2 8.9-5.6 3.6-17.7Z"/><path id="UG-124" d="M198.7 398.1H170c0-.1-3.6 17.6-3.6 17.6l19.4 12.2 14.1-11.7 8.7-18.1z"/><path id="UG-324" d="m475.3 255.7 17.3-26.5-4.9-46.6-7 8.5-4.6 37.7-13.2 12.2 9.1 10.6 3.4 4.2Z"/><path id="UG-328" d="m473 158.7-9.6-13.7-34.3-16.7-2.2 9.4-22.9.2-1.1 9.2 4.8 10-30.9 4-1.2 8.4 7.5-4.6 15.9 9.5 25.9 16.8.8 13.7 34-10.9 2.9-34.8 10.4-.6Z"/><path id="UG-230" d="m403.8 357.9-5.9-24-18.1 13.3-2.6 21.7 7.5 9.9-9.5 5.5v78.4h23.7l4.3-73.9-5.5-21.3 6.1-9.5Z"/><path id="UG-225" d="M440.1 239.5h-12.9c0 .1-1.4 27.5-1.4 27.5l27 6.9L434 260l10.8-10.8-4.8-9.7Z"/><path id="UG-228" d="m462.8 240.9-22.6-1.4 4.8 9.7 11.6 6.3-1.6 15.1 16.9-19.1z"/><path id="UG-421" d="m164.4 321-24.2-6.6-4.7 24.7-2.7 19.9 12.9-1.4.7-.4 11.2-24.3 9.3-3.4-2.6-8.6Z"/><path id="UG-423" d="m106.3 281.6.5-22.8-27.4 17.4-4.8 15.8 6 8.9-7.1 12.1 31.1-23.6 1.8-7.7Z"/><path id="UG-420" d="m255.6 178.5-33.2-9.6-10.8 6-.4 20.8 10.9 8.4 2.5 23.9 17.2 2.2 20.9-17.6.5-17.9-7.6-16.1Z"/><path id="UG-322" d="m368 90.2-14-2.7-2.6 9-12.7.7-5.1 14.9-3.8 10.7 12 4.1-3.3 8.9-13.5 3.1 6.3 8.6 35.3 1.3 6.1-16.3-4.2-36-.4-6.4Z"/><path id="UG-330" d="m366.6 148.9-35.3-1.3-9.9 6.9-4.3 7 50.6 8.5 8-.4 1.2-8.4-10.2-12.2Z"/><path id="UG-323" d="m367.7 169.8-50.6-8.5-6.6 8.7 14.8 8.4 2.3 16.7 17.9 2.3 7 1.8z"/><path id="UG-326" d="m303.7 191.6-.2-32.1-20 9.7-2.8 16 22.9 6.4Z"/><path id="UG-302" d="m303.7 191.6-22.9-6.4-6.9 11.3-10.8-1.9-.5 17.9-20.9 17.6.2 1.6h17.3l25.4-.4 15.6-13.1 18.8 7.5 3.1-8.9-13.6-11.6 1.7-10.9-6.6-2.8Z"/><path id="UG-327" d="m343 47.8-23.2-11.5-54.5 13.5-17.1 17.8 15.8 21 13.7 13.2 23.3-3.9-1.2-18.5 33.6-12.5 11 9.2-1.5-28.3Z"/><path id="UG-123" d="m217.4 257-26.9-.4-19.5 12.9 20.1 16.2-7.3 14.5 20.6-.4 24.3-20.7-11.4-22.1Z"/><path id="UG-319" d="m248.2 67.6-10.6-2.8-10.7 45.7-32.8 14.6-13.3-7.5-.8 14.8 2.7 14.7 28.2-15.7 39.5 5.9-2-28.3L264 88.6z"/><path id="UG-121" d="m217.3 350.6-21.5-4.8-20.9 11.9 22.4 13.2 5 .2 12.6-.3 30.3-17.9-27.9-2.4Z"/><path id="UG-119" d="m220.3 375.9 35.6-23.9-10.8 1-30.3 17.9 5.4 5Z"/><path id="UG-120" d="m353.8 348.9-10-4.2-37.1 70.8v47.1h50.5l-3.4-113.8Z"/><path id="UG-117" d="m328.6 327.8-5.8-3.7-1 19.8-36.2 45.6h21.1v26.1l37.1-70.8-15.2-16.9Z"/><path id="UG-232" d="m382.4 236.5-18 .6-13.5-11.5-8.7 1.5-4.1 28.8 17.2 2.9 13.5.5z"/><path id="UG-227" d="m393.6 293.4 5.2-20-23.6 7 9.6 13.2z"/><path id="UG-217" d="m418.5 278.1-19.7-4.7-5.2 20 19.7-8.3 5.3-7Z"/><path id="UG-226" d="M316.9 246.8h-13.3c0-.1 13.1 25.5 13.1 25.5L346 293l3.6-11.8 9-18.2-3.3-4.2-17.2-2.9-21.3-9.1Z"/><path id="UG-229" d="m357.3 299.3-7.7-18.1L346 293l-6.6 23.7 25.8 10.8-7.8-28.2Z"/><path id="UG-224" d="m425.9 267 1.4-27.4-16.3 5.3-10.1 21.7 16.5 6 3.5 1.3 5-6.8Z"/><path id="UG-231" d="m398.1 232.4-7.4-2.6-8.3 6.7-13.6 22.8 20 1.4z"/><path id="UG-331" d="m149.9 149.5-7.2-12.9-17 5.4-5.3 20.1 14.1 9.9 8.4-6.4 7-16Z"/><path id="UG-414" d="M49.9 466.3 33.3 413l-7 .9-6.8 47.8 17.7 7.4z"/><path id="UG-408" d="m37.2 469-17.7-7.4 2.3 34.7 21.5-5.6-6.1-21.6Z"/><path id="UG-404" d="m53.2 503.7 30.7-27.9-9.9 3.6-9.5-9.3-14.7-3.7-12.7 2.8 6.1 21.6 9.9 13Z"/><path id="UG-410" d="m125.3 428 3.9-9.4-16.4-23.6-10.3 2.5-2.9 16.6-3.9 16.1-13.3 10.9 27.7 4.4 5-16.9 10.3-.6Z"/><path id="UG-412" d="m51.1 410.3-23.6-3.8-1.3 7.4 7-.9 16.6 53.3 14.7 3.7-.9-28.5L51 429.4l2.6-10.2-2.5-9Z"/><path id="UG-411" d="m74.9 438.4-11.3 3.1.9 28.5 9.5 9.3 9.9-3.6 14.8-7.8 11.3-22.5-27.7-4.4z"/><path id="UG-418" d="m152.5 379.1-6.7-21.5-12.9 1.4-18.2 1.9 7.9 3.8-11.3 16.8 1.5 13.5 16.4 23.6-3.9 9.4 8.7 7.9 18.3-3.7 5.2-10.8-5-42.2Z"/><path id="UG-417" d="m125.3 428-10.3.6-5 16.9L98.7 468l71.4-5.3-17.9-30.5-18.3 3.7-8.7-7.9Z"/><path id="UG-416" d="m112.7 395.1-1.5-13.5 11.3-16.8-7.9-3.8-21.2 16.7 5.5 11.1-18.7-3.1 6.4 8 15.7 3.9 10.3-2.5Z"/><path id="UG-413" d="m135.6 339.1-29.1 10.2-10.7-21.2-5.8 27.3-8.1-3.1-5.4 29.9 3.8 3.5 18.7 3.1-5.5-11.1 21.2-16.7 18.2-1.9 2.7-19.9Z"/><path id="UG-406" d="m82 352.3-18.3-9.1-19.8 2.7-13.2 41.4 28.2 3.2 17.6-8.3 5.4-29.9Z"/><path id="UG-402" d="m70.6 411.6-19.5-1.4 2.5 9L73 430.4l13-1.4 1-10.9z"/><path id="UG-105" d="M231.7 442.7v-31.4l7.1-5.5-8.1-10.4-22.1 2.8-8.7 18.1 11.4 22.8 20.4 3.7Z"/><path id="UG-110" d="m199.9 416.2-14.1 11.7-19.4-12.2-8.9 5.6-5.2 10.8 17.9 30.5h61.5v-19.9l-20.4-3.7z"/><path id="UG-311" d="m480.6 191-7.6-32.4-10.4.6-2.9 34.8-34 10.9v28.2l1.6 6.6h12.9c0-.1 22.6 1.3 22.6 1.3l13.2-12.2 4.6-37.7Z"/><path id="UG-308" d="m487.6 182.5-4.1-33.2-28.8-44.2-13.9 1.4-11.7 21.7 34.3 16.7 9.6 13.7 7.6 32.4z"/><path id="UG-317" d="m402.9 147.1-9-4.5-.4-23.1-15-10.6.7-10.9-10.8-1.5 4.2 36-6.1 16.3 10.2 12.2 30.9-4-4.8-10Z"/><path id="UG-315" d="M407.7 8.3 366 46.2l18.8 36.5 56 23.7 13.9-1.4-14.1-25.4 4.9-24.4-25-9.4 4.6-8.6-10.5-.2z"/><path id="UG-216" d="m399 174.4-15.9-9.5-7.5 4.6-8 .4-15.2 29.4 6.3 11.5 7.6-10.9 24.2 26.6 8.4-52Z"/><path id="UG-306" d="m440.9 106.5-56-23.7-5.4 8.9-11.4-1.5.4 6.4 10.8 1.5-.7 10.9 15 10.6.4 23.1 9 4.5 1.1-9.2 22.9-.2 2.2-9.4 11.7-21.7Z"/><path id="UG-207" d="m425.7 204.9-.8-13.7-25.9-16.8-8.4 52v3.5c.1 0 7.6 2.6 7.6 2.6l27.5.6z"/><path id="UG-212" d="m421.5 303.1-6.9-6.5-19.2 19 8 10.5 15.2-.5 14.4-15.5-11.6-7.1Z"/><path id="UG-214" d="m373.1 336.7-3.8-.7-15.6 12.9 3.4 113.8H375v-78.4l9.5-5.5-7.5-9.9 2.6-21.7-6.6-10.5Z"/><path id="UG-219" d="m414.6 296.6-1.4-11.5-19.7 8.3-8.8.2 8.2 21.5 2.4.4 19.2-19Z"/><path id="UG-202" d="m418.7 325.6-15.2.5-5.6 7.9 5.9 24 14.9-32.3Z"/><path id="UG-201" d="m393.1 315.1-18-3.8-1.9 25.3 6.6 10.5 18.1-13.3 5.6-7.9-8-10.5-2.4-.4Z"/><path id="UG-221" d="M447.6 288.1h-17.4l-8.7 15 11.6 7.1 14.6-22.1Z"/><path id="UG-209" d="m420.9 273.9-3.5-1.3 1.2 5.5-5.3 7 1.4 11.5 6.9 6.5 8.7-14.9 8.2-7.6-17.5-6.7Z"/><path id="UG-215" d="m452.9 273.9-27-6.9-5 6.8 17.5 6.7 13.1-1.4 1.5-5.2Z"/><path id="UG-218" d="m475.3 255.7-3.4-4.2-16.9 19.1 1 9.3 20.7-12.1-1.5-12.2Z"/><path id="UG-206" d="m455 270.6 1.6-15.1-11.6-6.3-10.8 10.8 18.8 13.9-1.5 5.2 4.6.8-1-9.3Z"/><path id="UG-407" d="m171.1 269.5-64.7 12.1-1.8 7.7 1.6 4.9 34.2 20.2 24.2 6.6 19.5-20.8 7.3-14.5-20.1-16.2Z"/><path id="UG-415" d="m140.3 314.4-34.2-20.2L95.9 328l10.7 21.2 29.1-10.2 4.7-24.7Z"/><path id="UG-405" d="m106.1 294.2-1.6-4.9-31.1 23.6-15 24.5-8.2-.4-6.2 8.8 19.8-2.7 18.3 9.1 8.1 3.1L96 328l10.2-33.8Z"/><path id="UG-403" d="m177.2 223.7-3-7.2-21.9-1.7-45.5 44-.5 22.8 64.7-12.1 19.5-12.9z"/><path id="UG-401" d="m73.4 313 7.1-12.1-6-8.9-20.6 11.3-3.8 33.7 8.2.4 15-24.5Z"/><path id="UG-321" d="m290.7 148.2-15.5-.4-10.8 12.1-10.5.8 1.6 17.8 7.6 16.1 10.8 1.9 6.9-11.3 2.8-16 20-9.7-3.1-9.1-9.7-2.2Z"/><path id="UG-409" d="m241.7 230.1-17.2-2.2L222 204l-10.9-8.4.4-20.8-18.3 1.8-.5 18.6 9.2 12.6-8.4 14.2-16.4 1.7 13.3 32.9 26.9.4 12-10.4 12.6-15-.2-1.6Z"/><path id="UG-312" d="m333.6 112.1-14.5-13.6-5.3 5.6-12.7-6.2-23.3 3.9 18.9 35.2-6 11.2 9.7 2.2 5.2-5.2 15.6 9.1 9.9-6.9-6.3-8.6 13.5-3.1 3.3-8.9-12-4.1 3.8-10.7Z"/><path id="UG-318" d="m345.4 197.5-17.9-2.3-17.2-.7-1.7 10.9 13.6 11.6-3.1 8.9h9.2c0-.1 17.1-28.3 17.1-28.3Z"/><path id="UG-307" d="m321.3 154.4-15.6-9.1-5.2 5.2 3.1 9.1.2 32.1 6.6 2.8 17.2.7-2.3-16.7-14.8-8.4 6.6-8.7 4.3-7Z"/><path id="UG-304" d="m277.8 101.8-13.7-13.2-15.6 20.4 2 28.3-2.2 10.1 16.2 12.6 10.8-12.1 15.5.4 6-11.2-18.9-35.2Z"/><path id="UG-305" d="m384.9 82.8-18.8-36.5-23 1.6 1.5 28.3-11-9.2L300 79.5l1.2 18.5 12.7 6.2 5.3-5.6 14.5 13.6 5.1-14.9 12.7-.7 2.6-9 14 2.7 11.4 1.5 5.4-8.9Z"/><path id="UG-115" d="m268.3 280.2-38.9-33.6-12 10.4 11.4 22.1 7.9 16.9 15.3 8.8-3.1 9.2 3.4 11.2 9.4 2.4 13.9-13.3-7.3-34.2Z"/><path id="UG-114" d="m252.3 325.2-3.4-11.2-20.1 4.7 1.1 27.1-12.6 4.8 27.9 2.4 10.8-1v-14.6c-.1 0-3.7-12.2-3.7-12.2"/><path id="UG-107" d="m228.8 318.7-24.3-19-20.6.4-19.5 20.8 2.6 8.6-9.3 3.4-11.2 24.3 28.4.5 20.9-11.9 21.5 4.8 12.6-4.8z"/><path id="UG-104" d="m300.9 281-12.2-4.8-1.4 14.6-19-10.7 7.3 34.2-13.9 13.3 29.6-.9 7.3-2.7 3.4-22.5-1.1-20.6Z"/><path id="UG-113" d="m261.7 327.7-9.4-2.4 3.5 12.2 15.4 6.5-18.5 27.1 1.9 18.1 21.4.4 11.2-14.4 3.7-24.9-12.3-1.4 2.2-15.7 9.6-1.8.9-4.6z"/><path id="UG-109" d="M259.3 231.5H242l-12.6 15.1 38.9 33.6 19 10.7 1.4-14.6 12.2 4.8-8-33.9-33.6-15.5Z"/><path id="UG-103" d="m248.9 314 3.1-9.2-15.3-8.8-7.9-16.9-24.3 20.7 24.3 19 20.1-4.7Z"/><path id="UG-102" d="m290.8 350.2-.4-18.8-9.6 1.8-2.2 15.7 12.3 1.4Z"/><path id="UG-320" d="m150.4 86.3-13-6.4-12.3 22.9 13.3.5 12-17.1Z"/><path id="UG-313" d="m199.2 52.8-9.5 3.2-25.3-11.6-12.7 5.3-1.3 36.6 13.2-1.9 26.8 18.9 1.1-2.3-5.3-27.4 13.1-20.9Z"/><path id="UG-309" d="m234.8 62.4-21-20-14.6 10.4-13.1 20.9 5.3 27.4 14.7-29.8 28.7-8.7Z"/><path id="UG-310" d="m182.6 147-2.7-14.7-12.3 13.1-17.8 4.1-7 16 27.2 22.2 5.7-2.5 15.9-27.1-9.1-11.1Z"/><path id="UG-419" d="m177.2 223.7 16.4-1.7 8.4-14.2-9.2-12.6.5-18.6-17.5 8.6-5.7 2.5-17.8 27.1 21.9 1.7z"/><path id="UG-316" d="m150.4 86.3 1.3-36.6-19.6 19.7 5.3 10.5z"/><path id="UG-303" d="m190.4 103.3-26.8-18.9-13.2 1.9-12 17.1-13.3-.5 8 20.1-7.3 19 17-5.4 7.2 12.9 17.8-4.1 12.3-13.1.8-14.8 9.6-14.2Z"/><path id="UG-301" d="m237.6 64.8-2.8-2.3-28.7 8.7-14.7 29.8-1.1 2.3-9.6 14.2L194 125l32.8-14.6 10.7-45.7Z"/><path id="UG-106" d="m254.5 389.1-1.9-18.1 18.5-27.1-15.4-6.5V352c.1 0-35.5 23.9-35.5 23.9l7 10.4 27.2 2.8Z"/><path id="UG-111" d="m174.9 357.8-28.4-.5-.7.4 6.7 21.5 18.3 2.7-.8 16.1h28.7c0 .1-1.3-27-1.3-27L175 357.8Z"/><path id="UG-210" d="m388.8 260.8-20-1.4-13.5-.5 3.3 4.2 16.6 17.4 23.6-7 19.7 4.7-1.2-5.5-16.5-6z"/><path id="UG-108" d="M322.8 324.1 302 301.6l-3.4 22.5-7.3 2.7-.9 4.6.4 18.8-3.7 24.9-11.2 14.4h9.8l36.2-45.6 1-19.8Z"/><path id="UG-211" d="m390.6 226.3-24.2-26.6-7.6 10.9-7.8 14.9 13.5 11.5 18-.6 8.3-6.7v-3.5Z"/><path id="UG-222" d="m384.8 293.7-9.6-13.2-8.8 18 8.6 12.9 18 3.8z"/><path id="UG-220" d="M375.2 280.4 358.6 263l-9 18.2 7.7 18.1 9.1-.8 8.8-18Z"/><path id="UG-314" d="m319.1 225.7-18.8-7.5-15.6 13.1-25.4.3 33.6 15.5 10.8-.4H317c0 .1 2.2-21 2.2-21Z"/><path id="UG-205" d="m346 293-29.3-20.7 7.6 45.2 15-.8 6.6-23.7Z"/><path id="UG-203" d="m375 311.4-8.6-12.9-9.1.8 7.8 28.2 4.2 8.4 3.8.7 1.9-25.3Z"/><path id="UG-112" d="m316.7 272.3-13.1-25.6-10.8.4 8 33.9 1.1 20.6 20.8 22.5 5.8 3.7-4.3-10.4-7.6-45.2Z"/><path id="UG-213" d="m352.4 199.2-7-1.8-17.1 28.1h-9.2c0 .1-2.2 21.2-2.2 21.2l21.3 9.1 4.1-28.8 8.7-1.5 7.8-14.9-6.3-11.5Z"/><path id="UG-208" d="m425.7 233.1-27.5-.6-9.3 28.3 12 5.9L411 245l16.3-5.3z"/><path id="UG-204" d="m339.3 316.7-15 .8 4.3 10.4 15.2 16.9 10 4.2 15.6-12.9-4.2-8.4-25.8-10.8Z"/><path id="UG-101" d="m254.5 389.1-27.2-2.8 3.4 9 8.1 10.4-7.1 5.5v51.4h75v-73.2h-30.9l-21.4-.4Z"/></g></svg>