<svg xmlns="http://www.w3.org/2000/svg" xmlns:amcharts="http://amcharts.com/ammap" id="Layer_1" viewBox="0 0 512 512"><g id="_x3C_defs"><amcharts:ammap bottomLatitude="-18.08" leftLongitude="21.999" projection="mercator" rightLongitude="33.706" topLatitude="-8.224"/></g><g><path id="ZM-01" d="m5.4 277.4.6.3 1.8 1.8 2.2.9 2.4-1 .5-.8 1.1-.8.7-1.1h.8l2 .9 1.8 1.7 1.2.7 2.8 2.7 3.2 1.8 1.3 1.7 1.1.5 1.6.2 1.4.9.9 1.3 1.1.3 1.4.8h.6c0-.1.7-.6.7-.6l.2-1.6.6-1.5 2.3-.3 1.4-1.3h1.4l4.1 2.5.6.6.7 1.6.5.5h1l1.5-.8h.7l1 .7.2 2 .7 1 2 .7 1.9.2v.7l-1.2 1.2v1c-.1 0 .4.5.4.5h.9l.2.7.4.2 1.8-.5 1.4-.8 2.3-.2 2.8-2.3 1.4-.5h1.9c0-.1 1.7-.7 1.7-.7l3-1.8 1.6-.2 1-1.1 2.4 1.1 2.1-1.2 1.3-.3.6-.8h.5c0 .1.3 1.1.3 1.1l.4.3h1.5l1 .5 1.8-.5 1.8.5 2.1-1.3 1.2-.2 1-1.1.8.6h.5l1.5-1.2 1.2-.3 1.6-.7 1.3.4.9.8h.6l.3-.3v-1l.7-.6.6.5v1.1c.1 0 .4.5.4.5l1.9.7h1.8l1.4-.5.7-.9.8-.4.5.3 1 1.3 1.6 1.1h1l.7-.8 1 .4 1.3-.4h.6l.7 1.2 1.5 1.5.2 2.7.5 1.1.7.7 4 1.2 1.4.2 2 1.3 1.5.7 1.1.9h1.5l1.5-.5h.4c0 .1.6.7.6.7l.5 1.4v.9l-.6 1.7-.8 1.1-.2 1.3-.4.9v1.8c-.1 0-.8.7-.8.7l-2.1.7-.6.8v4.1l2.1 2.2 1.3.6 1.3-.4h4.3l2.7-1.4 1.6-.2 2.3-.9h.9l1 .5 1.4-.3 1.1 1.1.6.2h1.4l1-.5.5.5v.5l-1.5 2.9v4.6c-.1 0-1.4 1-1.4 1l-.3 1.3-.8 1.5v1.3l1.4 2.6v2.8l-.6 1.2-1.3 1 .4 1.5-.2.8-.4.3h-1.6c0 .1-2.1 2.2-2.1 2.2v.5l.4 1.3v3.1h-.1l1 1.5v.7l-1.3 1.4-.2 2.4-.5 1.1-1.7.3-.6.5v.7l.8 1.1v1.2l-.6.9-1.2.7v.4c-.1 0 .4.8.4.8l1.3.7.6.6v1l-.9.9-.2.7.2 1 1 1.1.7.5h.9l1.7-1.7.8.3.6.7v1.7l-.4 1.5v2.4c-.1 0-.7 1.9-.7 1.9l-.8.6.3 1.8-.8 1v1.1c-.1 0 0 .6 0 .6l2.1 2.4 1.4-.2.6.8H151l-.2.9-1.8 1.4-.7 1.6-1.2 1.8-.4 2.3-2.5 1.1-1.4 1.3-1.2.3-1.9 1.4-3.8 5.3-1 1-1.1.2-.3.5.3.9 3.1 2.6.3 1.4.5.9 2.3.6h2.7c0 .1 1.2.7 1.2.7l.5.5v.8c.1 0-.4 1.2-.4 1.2v2l1.4 4.3v.9l-.5 1.6-.7.8-4.1 2v.6c-.1 0 .3 1.5.3 1.5l-.2 1-.9 1.1-1.8.8-.5.8v1.5c-.1 0 .3 1 .3 1v1.1c.1 0-1.6 2.9-1.6 2.9l-1.8 1.9v.8l.3.8-.2.9.3.8v1.1l-1.9 2.2-.3 3.5h-.9c0 .1-.9.6-.9.6l-.8-.4-.6-.8h-1.3l-.6-.3-1.2.5-.7-.2-.6-.7-.9.2-.4-.5-1.3-.5-2.5.9h-1l-1.3 1h-1.8l-.7-.3-1.2.5-.4-.7v-.9l-1-1.1-1-.4-3-.5-1.8.8.2.3-.5.4-2.2-.5h-1l-1.2-.4-34.6 7.2-.2-1.2-1.4-1.3h-1.2c0-.1-1.1-1.2-1.1-1.2l-1 .3-1.2-.7-1.9.2-.6-.5v-.5l-1.3-1.1-.6-1-1.8-.5.2-.3-.8-.7v-.8l-1.1-.2-.9-.6-1.1-2.9-.9-.3-1.3-1.4v-.8l-.5-.2-.6-.8-2.7-1.6-.8-1-4.1-1.6-.2-.4.3-.6-.8-1.3-2.3-1.8v-.5l-.5-.3-.2-.8-1.2-.3-.2-.3.2-.5-3.1-2.8-.2-.6-1.4-1.7-2.9-2.2-.8-.9v-.8l-1.3-.8-3.5-3.8-1.3-.6v-.7l-.7-.5-1-1.6-1.4-.5-.6-.7-.3-1-.5-.3H15c0-.1-.5-.9-.5-.9l-1-.5-.5-.6-1-1.5h-1.2c0-.1.6-.8.6-.8l-.5-1.4.2-.2v-1.5c-.1 0-1-3.1-1-3.1l-.5-.4-1.1-1.7.2-1.2-.8-.3-.5-.7-1.5-1.2-.5-.9V277.3Z"/><path id="ZM-02" d="m339.8 210.6 1-.9.6-1.2v-2.3c.1 0 .3-.5.3-.5l4.5-1.9h1.5l.7.3.9 1 .6 1.4.2 1.4 1.6 2.4 1 .7 1.3.3.7 1.2 6.6 2.5h1.3c0 .1.8.5.8.5h2.2c0 .1 1.2 1.5 1.2 1.5l2.6.2.5.8v2.2l-.9 2.8.8 1.4 2.5 1.4v1.1l-.4 1.4v.6l1.8 1.8.7.3h1.2l1.1-1.3h.9l1 2 1.6 1 .6.6v.6l-1.3 1.8-.5 1.4.8 2.7v.9l-.3.6.3.6 4.1 2.5h3.5c0 .1 2.8 1 2.8 1l1.9.2 1.1 1 .9 1.5 1.7 1.3h1.2l.7-.4.6-.9.2-1.9 1.1-.7 3.1-.3 2.1.9.9.9.2 2.9.4 1.2v6.7l1.5 2.6 1.4 1.5v4.3h.1l-1.2 1.2-3.1.7-1.9 1.7H402l-1.4 2.2-.7.7-2.4.5-2.2 2.4.2 1.8-.3 1.3-1.7 1.4-.3 1.2-1.6.3-.7.7-1.7 1-.2.4.3.8v.4c-.1 0-1.2.4-1.2.4l-.3.6-2 2.1h-30.9l-1.5.4v.6l1.1.5 1.2 3.9 3.8 1.3 1.3.9.7 1.1v1.7l-1.1 2-3.1 2.1-.5 1.1-1.6 1.5-1.4 2.1-.9.6-1.5.2-.4 1.7-1.6 1.1-.3 1.9-1.4 5 .2.6 1.1.8v1.2h-2.2l-5.2 2.4-4.4 1.2-2.1 1.3-4.9 2.2-2.1 1.3-1.1.5-1.8.2-2.2 1.3h-7.7l-4.5 1.2-2.6 1.5-1.5 1.2-3 1.5-1.3.2-1.2.6-2.1 3.4-.4.4-1.6.5h-2c0 .1-1.2.5-1.2.5h-2.8l-2.9 1h-1.9c0 .1-1 .5-1 .5l-3-.8h-2c0-.1-1.2-.6-1.2-.6h-1l-1 1-1 2.8v.9l.4 1.3v2.3l-1 .7-.6 1-.5.4h-.5l-1.7-1.3-3-1.5-2.5-.8-1.7-.8-3.6-1h-4.8l-3.9.9-.2.7.9 1.9 1.8.8 1.4.2 1.3.7 1.1 1.7.6 1.9v3.3l-.6 1.2-.9.5h-.7c0 .1-1.7 0-1.7 0l-1.2-.4h-.6l-.2.4v1.5c-.1 0-.8 1.2-.8 1.2l-1.6.8-1-.3-.9.4-.6-.2-1-1.7.4-1.7-.2-1-1.1-1-.5-.8-1.9-.7-.6-.8h-.8l-.4.2-1.7 2.6-1.7 1.3h-.5c0 .1-.6-.2-.6-.2h-.7l-.7.6-3.6 6.6-.7.3-1.1-1.3-.8-4.5-.8-2.2-.2-1.8-.6-1.5-.7-.2h-4.1l-1.8-.5h-3.9l-.3-.5.6-.9-.2-.5-1.6-.8-2.4-1.6-1.1-.4-2.2-1.3h-18.4l-1.6-.5h-3l-1.5-.5h-3l-1.5-.5h-3l-2.1-.5H170l-3.9.5h-18.4c0 .1.1-3 .1-3l-.4-1.3v-.5l2.1-2h1.6c0-.1.4-.4.4-.4l.2-.8-.4-1.5 1.3-1 .6-1.2v-2.8l-1.3-2.6v-1.3l.8-1.5.3-1.3 1.3-1v-4.6c.1 0 1.5-2.9 1.5-2.9v-.5l-.5-.5.5-.3h.7l1.1-.2 1.4-1.3h.9c0-.1 1.9.4 1.9.4h3.8l1.6.5h3.5l1.4.5h3.1l1.2.5 5.7.6 1.9.5.9 1.8 1.8.3 1 .8 1.3.3 1.2 1.2h1.1l1-1 .2-1.6 1.1-1.8 1.9-2.2 2.8-1.8.7-2.1.6-.7 1.3-.5 2 .4 1.5-.4h3.8l1.3-.9 1.6-.5h4.5l1.3-.6.3-.8v-5.7l1-1.9v-2.3l-2.1-3.1-2.6-1.8-.3-.5.2-.3 1.7-.8v-4.3c.1 0 1.9-3.2 1.9-3.2v-1.1l-2-1.4-.4-1-1.1-1.6h17.7l2.6.5.4.4v2.1l.9 1 .5 1.5.2 1.6.6 1.1.8.2 2.2-1.3.7-.9v-1l-.2-1.1.5-1.1h1l1.1.9.6-.2.7-2.1.8-1 .2-1.5.8-.5.2-1.2.6-.8.5-.2 2.6 1.3h3.9l.7.3 3.2 8.3 1 1.8 1.2.5h.5l1.2-.7 2.8-.6h4.3c0-.1 1.8-1.5 1.8-1.5l3 .9h1.9l1.1-.4h1.2l2.7.9h2.2l4.8-1.4h3.4l.6-.2.2-1.3-.5-1.5v-1.5l.2-.8.4-.5 6.2-4.7 1.4-2 .9-.7 3.1-1.4 3.8-4.8 2.4-1.4 1.5-.3.9.5.7.9 1 1.8 2.8-2.2 2.2-.8.4-.6.3-1.3 1.4.7.7-.9h.9l2.4-.6 1.5-1.7h.6c0-.1.5-1.2.5-1.2l1.1-.8h1.4l.7-.6h.5l2 1h.3l1.2-.5.3.4-.2.5.4.7-1.2 1 .4.9-.5 1.7-2 .6.4.8-.3.5v.7c.1 0 1.6 1.2 1.6 1.2l1.4-.3 1.4 1.1 2.8-.8 1.4.8v-56.5Z"/><path id="ZM-03" d="m487.8 208.1-.3.8.2.9.8.7 1.3.4v3.4l.8.5.2 1.1 1.1 1.2.3 1.6 1.2-.4h1.2l1.3-.7h.9l.3.4h.9c0 .1.3.4.3.4l.6-.4h.5l.5 1.1v.5l-1.7 1.1-.3.6-1.1.2-.3.8.3 1-1.9 1-.8 1.1v.6l-.9.5-1.3 1.3-.6-.5h-.5l-1-.9-1.9.5-.4.2v.5l-1.3 1.8-1.1.5-.3.3-.2.9-.5.4-.3-.3.2-1.1-.4-.4-.7-.3h-.7l-1.3.7-.9-.8-1.3.8-1.3 1.8-.5.3-.4 1.9-2 2.4-.2 3.4.2.6 2.3 1.8.4 1-.4 1.1-.2 2.3-1.1 1.7.4 1.2-.7.9v1l-.2.5.3 2 1.1 1.2.4 1.1-1.5.8-.5 1.3h-.6l-.4.7-1 3.5v1.4l-.3 1-1.4 2.1h-1.6l-.2 1.8.2.7-1.1 1h-.6l-1 .6h-.7l-.8 1.2h-1l-.8-.6-.8.2v.2c.1 0-.3.1-.3.1l.3.8-.7.9 2.4 1 1.2.2.3-.4 1.4.6.2.6-.2.5.9.4.8.8.4.7-.3.4-.9-.2-.9 1.1h-.6c0-.1-.4 1.4-.4 1.4h.9l.6.9.4-.9h.8l.6.6h.6v.5l.4-.2.8.6.6 1.6 1.4 1 1.2 2.8h.4c0-.1 1.1.5 1.1.5v.8c.1 0-.2.7-.2.7v1.2l.3.7h.6c0 .1.6 1 .6 1h.4c0 .1.9-1 .9-1v-1.3l.7-.9 1.1-.7h1.2l.5-1h.4l1.4.8.3 1.1.8 1.1-25.6 9.3-6.8 3-8.9 1.8-6.2 2.1-1.8.8-4.6 1.1-5.9 2.9-5.5 1.2-9 5-8.8 1.7-8.1 2.6-12 2.9-12.1 4.6-6.5 3.1-6.3 1.6-.5-.6v-.7c-.1 0-.1-5.3-.1-5.3l-.2-.9-1.4-1.8-1.6-1-1.4-2.1-1.5-.9-.6-1.4-1.2-.3v-1.2l-1.2-.8-.2-.6 1.4-5 .3-1.9 1.6-1.1.4-1.7 1.5-.2.9-.6 1.4-2.1 1.6-1.5.5-1.1 3.1-2.1 1.2-2v-1.7l-.7-1.1-1.3-.9-3.8-1.3-1.2-3.9-1.1-.5v-.6l1.5-.3h30.9l2-2.1.3-.6 1.1-.4v-.4c.1 0-.2-.8-.2-.8l.2-.4 1.7-1 .7-.7 1.6-.3.3-1.2 1.7-1.4.3-1.3-.2-1.8 2.2-2.4 2.4-.5.7-.7 1.4-2.2h1.1l1.9-1.8 3.1-.7 1.2-1.2 4.9-.2 1.3-1.3 2.7-1.7.5-.6.5-1.6.2-2.9 1.1-2 1-.4.6-.6 1.1-2.7 2.2-.8.9-1 3-1.4.6-.9v-1.8l.2-1.7 1-.8 2.7-1.2.9-.9.3-1.7.5-1.2 1.2-1 .6-1.7.2-1.4.4-.8v-1.7l1.5-4.6v-1.7c.1 0 .5-1.1.5-1.1v-1.9l.6-1.6.9-.7.7-1.7 1-1.3 1.7-1.3 1.8-2.6 2.6.8h1.4l2.1-.6 1.4-1.2.9-2.7.5-1 .5-.4 1.9-.5h4.8l2.8-1.4 4.1-1h1.8l1.2-.5 1.7-.2 7.7-2.8 1.6-2.9.8-2.5 2.2-4.4.7-2 2.8-1.7v2.9l.4 1.3-.2.5.5 1v.8c.1 0-1.2 2.6-1.2 2.6l.6.7.2 1.5-.5 1.3-.2 2.4-1.4 2.6-.3 1.7Z"/><path id="ZM-04" d="M329.7 47v.8l-.3.3v.7c-.1 0-1.1 2.1-1.1 2.1l-1.6 1.5-1.5.2-2 1-1.1 1.5-1.2 2.5-.8.9-1 1.8-1 3.5-.2 1.7-1.5 4-1 1.3-2.1.7-.6.5-.7 3.4-1.3.6-.6 2.2.3.4 2.6 1.2.9.8.7.3.6-.2.8.2 1.1 1.5 1.1.4.4.6h1.2l.4 1.4-.4.5v1.8l.9 2.3-1.3 1.7V93l1.2 3.8 1.3.8 1.1-.4h1.1c0 .1.6.7.6.7l.7 1.7.4.4 1.6.7 1 1.3 1.6.4.9-.2 1.7.5 1.3.8 1.5.2 1.6.8 2.7.2 1.1 1.6 1.2 1.1.4 1.4.5.5 1 .2.7.6 1 2.3-1.4 3.2v1.6l.5 1.8.6.7-.3.8-1.3 1.4-.5 1.4-.2 2-.5 1.1-.5.5-1.7.2-1.9-.5H335l-1.2.6-2.3 2.2-3.1 1.5-1.3.2-.7.4-1 1.1-1.6.9-.3 2.1-1.4 2.1.5 2.5-1.9 2.6-.3 1.6-.5.3h-1.6c0 .1-1.2 1.3-1.2 1.3l-4.1 2.3-.7.6-.3.9v5l-1.4 1.5-1.4 1-.6 1 .4.5 3.2 1.1.8.5 1.2 1.5.9.6.6.9.8.6 2.2.2 1.7.8h1v-1l.4-.9v-1l-1.4-2.1-.2-1.6-1.3-2v-.7l2.4-1 4.5-2.7 2-.7 3.5-2.2 1.3-.4 2.5 1.7 1.3.2 1.6 1 .5.5.9 2 2.1 1.9 1.1 1.7v1.8c.1 0 .5 1.7.5 1.7l-.5 1.6v2.9l-.5.9-.6 4.6-.9 3.7v1.5h.5l1.3-.6.9-1.7 1.7-1.2.9-2.2h6.9l2.9 2.2 1 .4 6.8 4.8.8 1.1 2.5 1.8.4.8-.7 1.7-.3 2.9-.9 1.2-1.5 1.3-3.9 5.5-1.7 1.5-3 .7h-1.9c0 .1-1.1.5-1.1.5h-2.3l-1.5.5h-2.5l-4.2.9h-1.9l-1.6.7-.7 2 .5 1.4v2.9l1.9 2.2-.6 2.7-.3-.2-1.7.2-1.7 1.3-2.4.7h-1.4l-1.6-.6h-.9l-1.5 1-1.1.3-1 .7-.9 1.5-.5 2.6 1.7 2.6 1.7.4v.9c.1 0-.3.9-.3.9l-1.2 1.1h-1.1l-4.7-2.5-1.4.2-1.3-.2-.3-.2v-.9l-1.2-1.1-1.5.5-1.8-.2-2.6 1.1h-.4l-.6-.7-1.8.4-.8-.2-.5-.4-1.3-2.3-.3-1.5-2.2-3.3-3.9-3.2-1-1.6-2.3-2-.8-2.8-.5-.3-1.2.3-.9-.3-2.6-1.4-1.1-1.7h-1.6l-.5-.5-1.2-.2-1.4-.7v-.9l-.9-1.4-1.8.2v-1l.4-1.6-.5-1.1-.9-.8.9-1.1-.7-1 .6-.9v-.5l-2.1-2.6.3-2.6.4-1-.2-1.3 1.1-1.2v-.6l.4-.9v-1.2c-.1 0 .8-.2.8-.2l.4-.4v-1.1l-.4-.9.3-1.4.6-.4.7-1.8-.2-1 .6-1.7v-1.4l-.9-2 .7-.8.2-1.4.5-1v-2.4l.4-.6.9-.8.3-3.3.4-1.5 2.1-2.8.3-1.8.9-.5 1.4.2.2-1.1.9-.6.3-.8-.4-1.1-.9-.8.2-2.5-1.5-1.4v-.4c-.1 0 .3-3.5.3-3.5l-.9-2.7.6-3-1-.9-1.6-2.3.2-.8 1.7-2.4v-3.6c.1 0 .4-1 .4-1l-.2-.5.3-.7-.5-2.8 1.2-2.6v-1c.1 0 .7-1.4.7-1.4v-.9l.1-.2h.8l.1-.4-.4-.8-.6-.5-.2-.9-1.1-.2-.8-1 .2-2.7-.7-1.4v-1.4c.1 0-.5-.7-.5-.7l-.7-.3 1.5-.5v-.5c.1 0-.1-.1-.1-.1l-1 .5-.7-.3-.3-2.9-.5-.4-.8-.2-.2-.6-.8-.8.3-1.5.5-1.1-.3-.9-.9-.3-1.8 2.1-1.2.6h-.9c0 .1-.8-.2-.8-.2l-.6-.3-1-1.3v-1.8l.3-1.7 1.1-2.2 2.2-2 4-2.8 4.6-2.7 2.1-1.6 2.2-2.2 6.4-8.1 2-3.3.4-1.1.5-2.5-.7-2.9-2.1-3.8v-.3c.1 0 28.9-4.1 28.9-4.1Z"/><path id="ZM-05" d="m381.6 41.6.9 2.5 3 4.2 5.7 7.2 1.7 1.3 2.2 1h2.1l1.3-.8.3-.6 1-.4 1.8.6 1 1.3h.8l1.1-1 .4.4.3-.2.6.2.6-.4v-.8l.5-.1 1 1.9.6.3h2l.7.7.7 1.2h1.6c0-.1 1.3.4 1.3.4l.6.7.5 1.5v1.8c-.1 0-.5 1-.5 1l.6 1.3 1.1.8 2.1 1 .9 1.3 1.2.3h.7c0-.1.4.3.4.3l.6-.4.7-.9 1.6-.3h1.1c0 .1 2.8 1 2.8 1l2.3 1-.7 2 .3 1v.5l1.5 2 1 .5.8-.3v-.2l2-.5h1.3l2.4.5h.6l.4.5 1.6 1.2 2 1.1v3.3l1.8 4.1 1.5 4.5v3.4l.5 1.1v1.9l.5 1.1v1.8c.1 0 1 4 1 4v1.9l.8 1.3h-2l-1.2.5-2 1.3-2.8 2.8-.7 1.8v2c-.1 0-.8 1.9-.8 1.9l-.8.7-2.2.9-2.6 2.7-.2 1.6-.4 1.3v4.1l-.5 1-1 .7-1.4.2-1.3.7-1 1-2.2 3.5-3.1 1.7-1 1.2-1.7.6h-2.2c0 .1-1.8 1.8-1.8 1.8l-3.2 1.1h-.7l-.6-.7h-.9l-.8.5-.9 1.2-1.4.5-1.8.2-1.6 1-1.2 2.2-4.1.6-1.3.6-.4.7v1.7l.4.3 1 .2.4.9-.5.6h-.8l-.3.3-.2 1.8-.5 1.1-1.4 1.5-.6 1-.6.2-1.2-1.1-1-.5h-1l-2.6 2.9-2.1 1.2-.5 1.6h-2.1c0 .1-.9.6-.9.6l-2.6 3.9-2.2 4.3-1.6 2.1-1.2.7-1.9.5-5.1 5.5-1.8 1.1-.4-.8-2.5-1.8-.8-1.1-6.8-4.8-1-.4-2.9-2.2h-6.9l-.9 2.3-1.7 1.2-.9 1.7-1.3.6h-.4l-.1-1.5.9-3.7.6-4.6.4-.9V163l.5-1.6-.4-1.7v-1.8c-.1 0-1.2-1.7-1.2-1.7l-2.1-1.9-.9-2-.5-.5-1.6-1-1.3-.2-2.5-1.7-1.3.4-3.5 2.2-2 .7-4.5 2.7-2.3 1v.7l1.2 2 .2 1.6 1.4 2.1v1l-.4.9v1.2l-1-.1-1.7-.8-2.2-.2-.8-.6-.6-.9-.9-.6-1.2-1.5-.8-.5-3.2-1.1-.4-.5.6-1 1.4-1 1.3-1.5v-5l.3-.9.7-.6 4.1-2.3 1.2-1.2h1.6c0-.1.5-.4.5-.4l.3-1.6 1.9-2.6-.5-2.5 1.4-2.1.3-2.1 1.6-.9 1-1.1.7-.4 1.3-.2 3.1-1.5 2.3-2.2 1.2-.6h3.4l1.9.5 1.7-.2.5-.5.5-1.1.2-2 .5-1.4 1.3-1.4.3-.8-.6-.7-.6-1.8v-1.6l1.5-3.2-1-2.3-.7-.6-1-.2-.5-.5-.4-1.4-1.2-1.1-1.1-1.6-2.7-.2-1.6-.8-1.5-.2-1.3-.8-1.7-.5-.9.2-1.6-.4-1-1.3-1.6-.7-.4-.4-.7-1.7-.6-.6h-1.1c0-.1-1.1.2-1.1.2l-1.3-.8-1.3-3.8v-1.9l1.4-1.7-.8-2.3v-1.8l.3-.5-.4-1.4h-1.2l-.4-.6-1.1-.4-1.1-1.5-.8-.2-.6.2-.7-.3-.9-.8-2.6-1.2-.3-.4.6-2.2 1.3-.6.7-3.4.6-.5 2.1-.7 1-1.3 1.5-4 .2-1.7 1-3.5 1-1.8.8-.9 1.2-2.5 1.1-1.5 2-1 1.5-.2 1.6-1.5 1-2.1v-.7c.1 0 .5-.3.5-.3v-.8l12.3-1.6 6-1.1 5.3-.2 27.9-3.8.5 1.2Z"/><path id="ZM-06" d="m94.2 155.5.8.5h1l.5.6-.4 1.1 1 1v1.1l-.6 1.3.4.5 1 .4 1-.7 2.9.7h1.2c0-.1 1.6.3 1.6.3l2.7 1.7.4.9-.2 2.7.6.8-.3 4-.7 1-.4 1.3-.7 1.2-2.3.3h-.2v.6l.6.5.7.3h1.1c0 .1 1.2 0 1.2 0l.4.2 2.3 1.6v.9l.4.4 1.1-.6h2.2l.7-.5h.5l1.4.4.4-.3.3-1.3 1.5-.6 1.4-2 .9-.5.5-.6.5-.2h.9v-.7l.2-.3 1.5-.3 1.1.2 2.4-.5.9-1.3 1.4.3 1-.6h1.3c0 .1 1.1-.3 1.1-.3h2.9l.7.2 1.6-.2 1.3-.5 3.8-.4 3.3-1.6 2.1.2v.4l-.8.9-.5 1.3.7 1.2-.6.6-1 .2v.3c-.1 0 .6.8.6.8v.9l-1.4.5v.4l1 2-.2.5.3.7v1.1l.9 1.3-1.4.5-.2.3.9.7-.2 1.4v.3c.1 0 .9.5.9.5l.5 1.8 1.2.7.8.2 1.9 1.2 2.1.5.7 1.1v1.4l-.4 1.2.6.6 1.5-.4 1.3-.7h.6l.7-1h1.8l.5-.3.4.2 1 2.1.9.4.9 1.1 4.5.5 1.7-1.1h.8l.4.5.3 1.5.9 1.2.6.3h1.1c0-.1 1.2.8 1.2.8l.2.5-.5 1 .5.3h3.4l4.3-.2.9.2.4-.4h.5l1.7.6 1.5.2 1.1.7h.8c0 .1 3.4-1.9 3.4-1.9l1.5-.2 1.8.6 1 .9 2.1 1.3h1.1l.8-.3 1.5.6 2.4.3.7.7h.5l1.6-1.5.9-.4 1 .2 1.3 1.2 1.2-.6 1.2.2.6-.4.5-.9 1.9-1.5.8-1.7 1.6-1.4v-.6l-.4-.7.4-2.1 1-1.9.5-.3.2-.7-.2-.8-.9-1.2.2-1.8.7-.4h1.9c0 .1 1.3-.3 1.3-.3l1.6.2 2.1-1.4.9 3.8v5.3l.2.4.6.6 1.9.4 2.6 1.9 2 1 .4.8 1.2.4 1.2 1 .4 1.4-.3 2.5v.8c.1 0 .4.8.4.8l1 .6.8 3.9 2.1 2.3 1.8.5-.8 1.2-3.4 1.9-1.9-.5-.8-1.2h-1.2l-.8.1-1.9 1.5-.5.7-1.5.7-1 .9H229l-1.7-.5-1.7.4h-2.1l-.5.5.4 2.7-.9 1.8.9 2v.7l-2.5.9-2.8 3.5-2.4.8-1.1 1.1-.2 2.1-.6.9v.4l.8 1.5 1.7 1.3.2.6v.7c-.1 0-1.4 2-1.4 2v.5l4.2 2.4 1.4.3 1.4 1.7h1.7c0 .1.3.3.3.3l.2.5-.9 2.7v1.8c-.1 0-.7 1.2-.7 1.2l-3.5 2.4-.7 1.2v.9l.9 2.2-.2 2.1-.9 1.1-1.1.5-.5 1.3-.9.7h-1.9v2.1l-.5 1.6-1.3 1-.6 1.5v4.7l1 1 2.1 1.1 1.1 1.6.4 1 2 1.4.2.4v.7l-1.9 3.2v4.3c-.1 0-1.9.8-1.9.8l-.2.3.3.5 2.6 1.8 2 3.1v2.3l-.9 1.9v5.7l-.3.8-1.3.6h-4.5l-1.6.6-1.3.9h-3.8l-1.5.5-2-.4-1.3.5-.6.7-.7 2.1-2.8 1.8-1.9 2.2-1.1 1.8-.2 1.6-1 1h-.4c0 .1-.7 0-.7 0l-1.2-1.2-1.3-.3-1-.8-1.8-.3-.9-1.8-1.9-.5-5.7-.6-1.2-.4h-3.1l-1.4-.5h-3.5l-1.6-.5h-3.8l-1.9-.5h-.9c0 .1-1.4 1.4-1.4 1.4l-1.1.3h-.7l-.5.2-1 .5H154l-.6-.2-1.1-1.1-1.4.3-1-.4h-.9l-2.3.9-1.6.2-2.7 1.4h-4.3l-1.3.5-1.3-.6-2.1-2.2v-4.1l.6-.8 2.1-.7.6-.7v-1.8c.1 0 .5-.9.5-.9l.2-1.3.8-1.1.6-1.7v-.9l-.5-1.4-.6-.6h-.4c0-.1-1.5.4-1.5.4h-1.5l-1.1-.9-1.5-.7-2-1.3-1.4-.2-4-1.2-.7-.7-.5-1.1-.2-2.7-1.5-1.5-.7-1.1h-.6l-1.3.4-1-.4-.7.8h-1l-1.6-1.1-1-1.3-.5-.3-.8.4-.7.9-1.4.5h-1.8l-1.9-.7-.3-.5v-1.1c-.1 0-.8-.5-.8-.5l-.7.6v1l-.3.3h-.6l-.9-.9-1.3-.4-1.6.7-1.2.3-1.5 1.3h-.5l-.8-.6-1 1.1-1.2.2-2.1 1.3-1.8-.5-1.8.5-1-.4h-1.5l-.4-.4-.3-1h-.5c0-.1-.6.7-.6.7l-1.3.3-2.1 1.2-2.4-1.1-1 1.1-1.6.2-3 1.8-1.7.6h-1.9c0 .1-1.4.6-1.4.6l-2.8 2.3-2.3.2-1.4.8-1.8.5-.4-.2-.2-.8h-.9l-.5-.4v-1c.1 0 1.3-1.2 1.3-1.2v-.7l-1.9-.2-2-.7-.7-1-.2-2-1-.6h-.7l-1.5.8h-1l-.5-.6-.7-1.6-.6-.6-4.1-2.5H42l-1.4 1.3-2.3.3-.6 1.5-.2 1.6-.7.5h-.6c0 .1-1.4-.7-1.4-.7l-1.1-.3-.9-1.3-1.4-.9-1.6-.2-1.1-.5-1.3-1.7-3.2-1.8-2.8-2.7-1.2-.7-1.8-1.7-2-1h-.8l-.7 1.2-1.1.8-.5.8-2.4 1-2.2-.9-1.8-1.8-.6-.3v-30.1l87.4-.6-.3-.5-.3-1.4-2.1-2.1-.8-.2-1.2-.8-.2-.6-.9-.7v-.5l.3-3.5.9-2.2v-1.9c-.1 0 1.2-2.3 1.2-2.3v-1.3l-.2-1.5.5-.6.2-.8.9-.3.2-.8.7-.4.6-1.4 1.9-1.3.3-.7v-2.7l-.9-.7.9-1-.4-1.2.2-.5-1.2-1.4-.8-.4-1.5-3.1.2-11 .5-2.4.8-.6.2-.5-.7-2.5-.5-.8v-1.6c-.1 0-1.2-2.4-1.2-2.4l.8-.8.5-2.3 1.4-2.6-.4-2.4.2-1.1.7-.7 1-.4.5-.9-.9-3.6-1-1.7v-5.5l-.2-.5-1.1-.7.6-1.1-.3-2 .6-3.5-.4-.4.2-.6-.2-.4-1.1-.8-.2-.7.6-.8 3.2.3Z"/><path id="ZM-07" d="M147.3 347.8h18.4c0-.1 3.9-.6 3.9-.6h7.2l2.1.5h3l1.5.5h3l1.5.5h3l1.6.5h18.4l2.2 1.3 1.1.4 2.4 1.6 1.6.8.2.5-.6.9.3.4h3.9l1.8.5h4.1l.7.2.6 1.5.2 1.8.8 2.2.8 4.5 1.1 1.3.7-.3 3.6-6.6.7-.6h.7l.6.3h.5c0-.1 1.7-1.5 1.7-1.5l1.7-2.6.4-.2h.8l.6.9 1.9.7.5.8 1.1 1 .2 1-.4 1.7 1 1.7.6.2.9-.4 1 .3 1.6-.8 2.1.5.8 1.2.4.2h1l2.6-1h1.2l2.3 1.5 1 1.9 2 .2 2.8 1.3 1.2.3.6 1.1 1.5 1.2h1c0-.1.8-1.4.8-1.4l.7-.6h.7l1 .4.8-.4h1.2l.8.3 1.6.2 1.5 1.7 1.5.2 3.7 2.4 4.1.2 1.1.6 2.1 1.8h1.6l4.4-1 .8.2.3.8-1.1 2.4-1.8 2.5.6.6-.5 1.1.7 1.2-.9 1.8-.3 2.6.2.6.8.3v.3l-1.2 1.8-.3 1.3.2.3.7.4v1c-.1 0 .2.8.2.8l-.4 1.6-.8 1.2v1.6l-.7 1.1-2.3 1.5-.5.7-4 .7-16 6.5-5.7 4.7-13.1 6.1-8.5 12.6-.6 4.2-.4.6-2.8 3.2-10 7.8-4 5.5-3 3.6v.5c-.1 0 .1 1.6.1 1.6l-2.7 2.3-2.1 2.9-1.1-.5-1.4.7h-.8c0-.1-2.9.9-2.9.9h-.7c0-.1-.6.2-.6.2l-1.3-.3-.3 1.1-1.2.6-.9-.2-1.2.3-2.4 2.3-1.7-.8h-1.3l-.8-.4-.2-1.1-.8-.4-.2-.8-.4-.5h-1.6l-1.7-.5-.3-.4h-.9l-.8-.7h-.6c0-.1-.8-.7-.8-.7h-1.1c0 .1-1.3-.3-1.3-.3l-1.6.3-.9-.8h-1.6c0 .1-1.2-.8-1.2-.8v-.6l-2.4 1.1h-1l-1.8.8-.4.6.5.5-.6 1.4-2-.4-.4.4-.9-.2-.8.4-.2.6-.7.3-1.5-.4-1 .2-.3-.5-1.2-.2-.3-.4h-.5l-.2-.5v-.5c.1 0-.5-.1-.5-.1v-.2l.5-.6-.8-1.6-1.8-.4v-.4c-.1 0-1.4-1.1-1.4-1.1h-.8l-1.3-.7h-.5l-.2-1h-1.3c0 .1-1.2 1.2-1.2 1.2l-1.5.2-.6.3-.4-.3H158c0-.1-1 1-1 1h-.6c0 .1-1.5-.8-1.5-.8l-.9-.2-.7.3-.6-.3-2.1.3-.6-.6h-1c0 .1-1.7-.7-1.7-.7l-1.4-1.2v-.4h-.4l-1.4-.9h-1.5c0 .1-.4-.2-.4-.2l-1-1.2v-1l-.6-.4h-.7c0 .1.2-.4.2-.4l-.2-.2-1.2.5.2-2.2-.2-.3-.6.3-1.1-1.8h-.6v-.9l-.4-.3h-.7l-.6.4-1.4-1.8-.5.5h-.4l-.6-.9h.9c0-.1.3-3.7.3-3.7l1.9-2.2v-1.1l-.3-.8.2-.9-.3-.8v-.8l1.8-1.9 1.7-2.9v-1.1c-.1 0-.5-1-.5-1V429c.1 0 .6-.8.6-.8l1.8-.8.9-1.1.2-1-.4-1.5v-.6c.1 0 4.2-2 4.2-2l.7-.8.5-1.6v-.9l-1.5-4.3v-2l.5-1.2v-.8c-.1 0-.6-.5-.6-.5l-1.2-.6h-2.7c0-.1-2.3-.7-2.3-.7l-.5-.9-.3-1.4-3.1-2.6-.3-.9.3-.5 1.1-.2 1-1 3.8-5.3 1.9-1.4 1.2-.3 1.4-1.3 2.5-1.1.4-2.3 1.2-1.8.7-1.6 1.8-1.4.2-.8h1.2l-.6-.9-1.4.2-2.1-2.4-.2-.6v-1.1c.1 0 .9-1 .9-1l-.3-1.8.8-.6.6-1.9v-2.4c.1 0 .6-1.5.6-1.5v-1.7l-.7-.7-.8-.3-1.7 1.7h-.9l-.7-.5-1-1.1-.2-1 .2-.7.8-.9v-1l-.6-.6-1.3-.7-.6-.8v-.4c.1 0 1.3-.7 1.3-.7l.6-.9v-1.2l-.9-1.1v-.7l.7-.5 1.7-.3.5-1.1.2-2.4 1.3-1.4v-.7l-1-1.5Z"/><path id="ZM-08" d="M247.2 216h2.1l.7-.1 2 .3.7-.7 1.8-.6-.2-1.1.2-.2 2 .6 2.2-.2 1.5 3.2-.2 1.1.3.6 1.5-.7 1 .5h2.7c0 .1.5.4.5.4l1.3 3.1.3.2.9-.3v-.9l1.2-1h.3l.3.8 1 .2.9.7 1-.4.9.3h1.5l.5.2 3.3 3.3 1.6.7.3.6-.2 1.4 1.9 1.3 1.4 1.5-.6 2.2-1.9.5-.4.7 1.1 2 2.1 2.1.4.9.2 1.5 1 .9.2.7h.3l.5-.7.5-1.5.9-1h1.4l.8.9.9.4 1.2 1.1 1.3 2.7 1.5.3v.8l1.6 2 .3.7v1.3l.6.7v.4c-.1 0-.8.1-.8.1l.7 1v1.7l.4.5.5-.3.2.5.9-.2.3.2 1.6 4.8.2 1.4 1 1.7v1l.3.4.7-.3h.3v.7l-.3.3.5 1h.7l.5-.3-3.8 4.8-3.1 1.4-.9.7-1.4 2-6.2 4.7-.4.5-.2.8v1.5l.5 1.5-.2 1.3-.6.2h-3.4l-4.8 1.4h-2.2l-2.7-1h-1.2l-1.1.5h-1.9l-3-.9-1.8 1.4h-4.3c0 .1-2.8.7-2.8.7l-1.2.7h-.5l-1.2-.5-1-1.8-3.2-8.3-.7-.2h-3.9l-2.6-1.4-.5.2-.6.8-.2 1.2-.8.5-.2 1.5-.8 1-.7 2.1-.6.2-1.1-1h-1l-.5 1.2.3 1.1v1l-.8.9-2.2 1.3-.8-.2-.6-1.1-.2-1.6-.5-1.5-.8-1v-2.1l-.4-.4-2.6-.5h-17.7l-2.1-1.1-1-1v-4.7l.5-1.5 1.3-1 .5-1.6v-2.2h1.9l.9-.7.5-1.3 1.1-.5.9-1.1.2-2.1-.9-2.2v-.9l.8-1.2 3.5-2.4.6-1.2v-1.8c.1 0 1.1-2.7 1.1-2.7l-.2-.5h-.3c0-.1-1.7-.3-1.7-.3l-1.4-1.7-1.4-.3-4.2-2.4v-.5l1.2-2v-.7c.1 0 0-.6 0-.6l-1.7-1.3-.8-1.5v-.4l.6-.9.2-2.1 1.1-1.1 2.4-.8 2.8-3.5 2.5-.9v-.7l-.9-2 .9-1.8-.4-2.7.5-.5h2.1l1.7-.5 1.7.5h3.6l1-.9 1.5-.7.5-.7 1.9-1.5.8-.2h1.2l.8 1.3 1.9.5 3.4-1.9.8-1.2.6.5.3 1.6.8.7Z"/><path id="ZM-09" d="m348.6 319.8 1.2.3.6 1.4 1.5.9 1.4 2.1 1.6 1 1.4 1.8.2.9v5.3l.1.7.5.6.7 1.8-.6 1.1v1.5l.5.7v1c-.1 0 .5.8.5.8l.5 1.1v1.5l1 1.6 1.7 1.2 2.5 2.8.4 1.7-.2 1.8.8 2.3-1.2 2.4-.3 1.2 1 1 1.2 1.9-.2.2-2.3 1.2-3.1-.2-1.1-.9-1.9 1.6h-.3l-1-1.4-.8-.4h-1.8l-6.8 1-1.4-.9h-1.4l-1.1-.5h-1.5c0-.1-2.8.1-2.8.1l-2.6 1.2-3.7.9h-.8l-1.4-.9h-.6l-.7.2-1.3 1.4-.6.3-2.8.2-.6.2-.9.8h-1.6l-4.1 2-1.7.2-.6.3-.8.9-5.6 3.9-1.3 2.1-.8.7h-3.4c0-.1-1 .2-1 .2l-.3-.8-.8-.2-4.4 1h-1.6l-2.1-1.8-1.1-.6-4.1-.2-3.7-2.4-1.5-.2-1.5-1.7-1.6-.2-.8-.4h-1.2l-.8.4-1-.4h-.7l-.7.6-.8 1.2h-1c0 .1-1.5-1.1-1.5-1.1l-.6-1.1-1.2-.3-2.8-1.3-2-.2-1-1.9-2.3-1.4h-1.2l-2.6.8h-1l-.4-.1-.8-1.2-2.1-.5.6-1.2v-1.5c.1 0 .4-.4.4-.4h.6l1.2.4h2.4l.9-.5.6-1.2v-3.3l-.5-1.9-1.1-1.7-1.3-.7-1.4-.2-1.8-.8-.9-1.9.2-.7 3.9-1h4.8l3.6 1 1.7.8 2.5.8 3 1.5 1.7 1.3h.5l.5-.5.6-1 1-.7v-2.3l-.4-1.3v-.9l1-2.8 1-.9h1l1.2.3h2c0 .1 3 .9 3 .9l1-.3h1.9c0-.1 2.9-1 2.9-1h2.8l1.2-.5h2c0-.1 1.6-.7 1.6-.7l.4-.4 2.1-3.4 1.2-.6 1.3-.2 3-1.5 1.5-1.2 2.6-1.5 4.5-1.1h7.7l2.2-1.4 1.8-.2 1.1-.5 2.1-1.3 4.9-2.2 2.1-1.3 4.4-1.2 5.2-2.3h2.2Z"/><path id="ZM-10" d="m452.1 78.9.7.6h.6l1.4.9-.3.8 2.1 2.9.2.6 1.9-.3 2.7 1.1h2.6l1.6.4.6.7.3.9 1 .2 1.6 1.4 1.7.8 1.1-.3.2 1h.3l.3-.5.6.8 1.2.2-.6.7.3 2.9.3.2.9-.4.8.6h.8c0-.1.6.2.6.2v1.1l-.7 1.4-.2 1.7.8 1.8h.5l.4-.6.7.2 1.3 2.5h.4l.4-1.7h.3l-.5-1.1.6-1.2 1.4.8.4-.2.2-.4h1l1.1.9v.7l.5 1-.2 1.1v1.4c.1 0 2 2 2 2l.8.3v.8l.7 1.2 1.9.6.8 1.6v.6l.5 1.3-1.1.8-1.1 4.5-.6 1 1.5 1.3v.7h.1l.2-.4.3.2.9-.2.9.5 2.1 2.5 1.9.3.6.3.4 1 .7.3v.9c.1 0 .4-.2.4-.2l.7.2-.5 1.4v1.2c-.1 0-.5.5-.5.5l.2.8-.2.4.5.7v.9l.9 2v.7h.5l.9.7v-.3l.6.3.5 1.3-.4.6.2.3h.4l.6.9.9.4.4 1v1c.1 0 1.1-.3 1.1-.3l-.2.7-.7.9-1.6 1-1 1.3h-.9c0-.1-.2 0-.2 0l-2 3.1h-.7v1.2h-.4l-.4.6h-.5l-.4.6-1.2.4-.4.9h-.7c0 .1-2.3-.2-2.3-.2l-1.1.7h-1.3l-1 1.7-1.1.3v-.4h-.5l-1.2 1 .2.8.5-.2h.4c0 .1.2-.2.2-.2l1.4 1.6v2.4l.4 2.3.4.4v.6l1.6 1.4.4.8-.2.4.3.7h.6l.6.3-1 3.4-1.3.9-.7 2.3-.4.3-.2.6-.6.3.4 1.3-.2.3-1.1.2v.6l.2.4v1.1c-.1 0 .2.5.2.5h-1l-1-.8-.3-.7-.4.2-.4 1 .9 1.5-.4 1.2.6.6v.4l-.1.7-1.1.8-.3 1.8 2-.6.4.3.6-.2 1.1 1.1.2 1.2-.2 1.1-2.8 1.7-.7 2-2.2 4.4-.8 2.5-1.6 2.9-7.7 2.8-1.7.2-1.2.4h-1.8l-4.1 1.1-2.8 1.3h-4.8l-1.9.6-.5.4-.5 1-.9 2.7-1.4 1.2-2.1.5h-1.4l-2.6-.7-1.8 2.6-1.7 1.3-1 1.3-.7 1.7-.9.7-.5 1.6v1.9l-.5 1.1v1.7c-.1 0-1.6 4.6-1.6 4.6v1.7l-.4.8-.2 1.4-.6 1.7-1.2 1-.5 1.2-.3 1.7-.9.9-2.7 1.2-1 .8-.2 1.7v1.8l-.5.9-3 1.4-.9 1-2.2.8-1.1 2.7-.6.6-1 .4-1.1 2-.2 2.9-.5 1.6-.5.6-2.7 1.7-1.3 1.3-4.9.2v-4.3c-.1 0-1.5-1.5-1.5-1.5l-1.5-2.6v-6.7l-.5-1.2-.2-2.9-.9-.9-2.1-.9-3.1.3-1.1.7-.2 1.9-.6.9-.7.4h-1.2l-1.7-1.3-.9-1.5-1.1-1-1.9-.2-2.8-.9h-3.5c0-.1-4.1-2.6-4.1-2.6l-.3-.6.3-.6v-.9l-.8-2.7.5-1.4 1.3-1.8v-.6l-.5-.6-1.6-1-1-2h-.9l-1.1 1.3H374l-.7-.2-1.7-1.8v-.6l.4-1.4v-1.1l-2.6-1.4-.8-1.4.9-2.8v-2.2l-.5-.8-2.6-.2-1.2-1.4H363c0-.1-.8-.5-.8-.5h-1.3c0-.1-6.6-2.7-6.6-2.7l-.7-1.2-1.3-.3-1-.7-1.6-2.4-.2-1.4-.6-1.4-.9-1-.7-.4h-1.5l-4.5 2-.2.5v2.3c-.1 0-.7 1.2-.7 1.2l-1 .9.6-2.7-1.9-2.2v-2.9l-.5-1.4.7-2 1.6-.6h1.9l4.2-1h2.5l1.5-.5h2.3l1.1-.5h1.9c0-.1 3-.8 3-.8l1.7-1.5 3.9-5.5 1.5-1.3.9-1.2.3-2.9.7-1.7 1.8-1.1 5.1-5.5 1.9-.5 1.2-.7 1.6-2.1 2.2-4.3 2.6-3.9.9-.5h2.1c0-.1.5-1.7.5-1.7l2.1-1.2 2.6-2.9h1l1 .6 1.2 1.1.6-.2.6-1 1.4-1.5.5-1.1.2-1.8.3-.2h.8l.5-.6-.4-.9-1-.2-.3-.3v-1.7l.3-.7 1.3-.6 4.1-.6 1.2-2.2 1.6-1 1.8-.2 1.4-.5.9-1.2.8-.5h.9l.6.6h.7l3.2-1 1.8-1.6h2.2c0-.1 1.7-.7 1.7-.7l1-1.2 3.1-1.7 2.2-3.5 1-1 1.3-.7 1.4-.2 1-.7.5-1v-4.1l.5-1.3.2-1.6 2.6-2.7 2.2-.9.8-.7.7-1.9v-2c.1 0 .8-1.8.8-1.8l2.8-2.8 2-1.3 1.2-.5h2l-.7-1.3v-1.9l-1-4v-1.8c-.1 0-.5-1.1-.5-1.1v-1.9l-.6-1.1v-3.4l-1.5-4.5-1.8-4.1V79l.6.2h2.6l4.5-.6Z"/></g></svg>