<svg xmlns="http://www.w3.org/2000/svg" xmlns:amcharts="http://amcharts.com/ammap" id="Layer_1" viewBox="0 0 512 512"><g id="_x3C_defs"><amcharts:ammap bottomLatitude="-22.421" leftLongitude="25.236" projection="mercator" rightLongitude="33.057" topLatitude="-15.61"/></g><g><path id="ZW-BU" d="m221.8 336.1-.6-.7-3.3-.3-.8 2.6-2.6-1.6 1.1-2.5-1.1-.8-.3-1.5-2.4.9-1.3-.5-2.3.2-.8-.4.2-1 1.5-.7.5-.7-.5-.7.7-2.5-.9-2.9.3-.9h.7l4.4 2.4 1.9-1.3 3.2-.7-.3 2.5.3.5h1.1c0 .1 1.9 1.3 1.9 1.3l1.8-1 .2 1.6 1.5.7-1 2.9 2.1 1.6v.6c.1 0-1 1.6-1 1.6l-4.6 1.3Z"/><path id="ZW-HA" d="m380.3 163.2 1.7.2.4 1.8 4.8.4.3 1.7-.5 2.3.8 1.3v2.4l1 2.3-.2.6-1.1.6-.4 2.4h-1.5l-1.6 1.2.3 2.5-.4 2-2 .3.3 1 1.1.7-1.8 1.4h-1.4l-1.7.9-4-3.7-6.1-3.7 2.4-.8.5-.7-1-1.5-2.1-1.2 1.2-2-1.2-1.3.3-2 2-.5.7-1.4 1.7-1.4.5-2.1 1.4 1.2h1.5l.7-.7.9.4 1.3-.2 1-1.2V163Z"/><path id="ZW-MA" d="m501.1 155.6.3.7 1.8.4 1.6 1.5.6.8v1.5l-1.6 3-.4 2.1.5 1.2h-1.1v.3l.3 1.4 1.3.8-.8.8-.2 2.1h-2.6l-.6 1.1-.4 6 1.2.4.3.6-.5 2-.4.6h-1l-.3 1.7 1.1 5.5.9 2.5v2.3c-.1 0 1.5 1.8 1.5 1.8v1.6l.7 3.2-.7 2.2.3 2.1 2.4 1.9v.6l1 1.2-.5 1.2-1.5.8-.5 2.7.4 1.8-.5 1.1-2.3 1.1-1.2-.8-2.6 1.6-1-.2-.8.5-.5 1 .7 2.4-.6 1.4.8.8.7 2 2.9 4.6-1.7 5.1-2.3 2h-.9l-2.7-1.3-1.4.3-6.5 3.5-.5 1.6 1.2 2.3.4 2.3-1.9 1 .6 4.1.8 1.5 2.2.3 2.8-.8h2.1l.8.5.4 2.7.4.8.8.4.4 1.1-1.8 9.1v4l-4.6 4.6v.6l.6 1.1-.6 4.3.4 1.1 1.3.7h2.7l-.3 2.8.7 1.5-.2 4.6.3 1-1.1 3.6 1 .5h2.5l5.1-2 .8 2-1.5 1.8v.8l2.3 1.6 3 1.3.9.9.2 1.3-2.9 14.9-2.7 1.3-3.1.7-.5 1 .4.7v2.8l-.6.3-1-.3-.4-.9-1.2.6-.8 3 1 2.3-1.6.7-.5 1.3 1.8 1.4-.2 3.2-3.6 3.5-.4 2.2-4.3 5.2-4.2 7.2-.7.4h-5.8l-4.8 3.9-.4 3.8.6 1.8.2 7.3 1.3 5.5v1.7c-.1 0-3.2 6.6-3.2 6.6l-5.2 5.9-1.4 2.6 2.5 2.3-.7 1.6.3.9 1.5 1.4.6 1.6 2.9 4.1.3 1.1-1.7-1.2-2 .2-4.2-4.3-2.8-1.2-1.5-3.3-.2-1.9-1.3-4-1.3-1.2-3.3-1.3v-2.7l-2.1-1.9v-1.7l-1-2.6.3-1.8 4.4-8.7 1-5.7 1.9-1.8.5-4.4 1.2-3.1v-5.5c-.1 0 .8-8.5.8-8.5l1.2-5 .5-6 1-4.5v-6.7c.1 0-.4-2.2-.4-2.2l-3.3-1.1-3.1-1.8-2.7-2.6h-4.4l-1.5-.5-2.4-2.1h-2.7l-1.1-.6-1.7-2-.8-2-2.6-2.2-1.7-3.6-1.5-.9-2.5-2.7-1.4-3.3-4.1-2.3-1.3-2.3-1.6-1.5-1.1-.4-1.2-3.6-4.2-1.1-1.7.2-1.4-2.1-3.1-2.7-2.9-.8-3.4-.2-2.2-2.4-10.1-6.4 4.4-.4.8-.4.2-3.1 1.5-2 .4-3.8h3l1.5 1.3h3.2l1.2 2.1 3.3 1.2h1.1l3.5-6.1-.2-3.2.4-.4 4.2 2.1 2.6-.5 1.7-1.1 1.2.3 2.6 1.5 2.5 2.5 2.8 1.5 2.7 1 2.1-.8 2.4.5-.9-3.1.5-2V250c.1 0-1.9-4.4-1.9-4.4l-1.9-1.6-.5-1.9v-4.4l-1.4-2.5-3.7-1 .2-1.4-.6-1.5-1.7-1.5-2.6-3.4.7-3.6-2.9-3.8 1.9-1.3 1.2-2.9 5-1.7-.5-2.3 1.3-2.5-.4-11.2.7-2.6.6-.7 1.3-.3 1.7.8h5l-1.5-4.2.8-1.3 2.3-1.3 2.5-2.3 5.2-5.6-.5-2.8 1.4-2.7 5.3-3.2 3.8-4.4 1.6-.6 3.3-2.7 4.1-.8 1.9-1.4 1.5-2.1h2.9l2.2-.8 1.9-2.6 2-.2.3-4.1 5.2-2.2.9-3.1 2.1-4.3 4.3-2.2 2.3-3 4.6-.8 3.2-1.2.2 4.2 3.1 2.6-2.4 3.6-.6 3.5-.9.2-1.4 1.7v2.3c-.1 0 .9 2.4.9 2.4Z"/><path id="ZW-MC" d="M337.8 29.2v23.3h31.8l1.8 1.1.5 1.5 1.6 1.3 2.4-1 .7-1.7 1.5-.4.7-.9.5 1.1 2-1.1v-.3l2.4-.9 2.4.5.7.9 1.6.2 1.9-.5v.6h1.5l2.5 1.2 1.7 1.4 1 2.1 3.6 3.8h1.4c0-.1.3 1.3.3 1.3h3.3l1.1.9 2.9.9 9.4 1.2 2.7 1.8 2.4.6 1 1.3h.8c0 .1.3.9.3.9l.8.5V72h.6l.3.9h1.1l.2.6 2.7 1.2 1.1 2.4-.2 1.6.4 1 7.9 2 15.9-.5 8.1 2.3 19 8.7-.4 5.3 3.3 1.6-4.1 2.4-2.7-1-3.5 1.1-4.5-2.2-4.6-.3-3.9 1.1-3.7 1.7h-2.9c0 .1-3.3 2.2-3.3 2.2l-2.9-.8-5.2 2-1.1.8h-2.8c0-.1-1.2 1.8-1.2 1.8l-1.5.5-.3.6.4 4-1.6 1.1H436l-1.2 2.9-2.5 2.3.4 2.1-3 2.6-1.5 3.4.8 1.8-7.7 3.3-.2.4 1.3 2.4v2.7c.1 0-.3 1-.3 1l-5.5 4.6-1 1.3v.9c-.1 0-1.3 1.1-1.3 1.1l-.6 1.7-5 2-1.4 1.9-.8 2.4-1.2 1-.8 2-.7-1.5h-.5l-3.9 3.2-1 .4-2.4-.3-1.9 1.5-1.4.2-.5-3.1 2.6-7.1-2.1-.6-4.7-.2-4-1.1-1 1-.9 2v2.1l-2.2.3.3 1.7.4.3 1.4-.3-1.1 5.9-.5.8v3.4l-1.1 1.2-1.3.2-.9-.4-.7.7h-1.5l-1.4-1.3-.5-2.5-.8-.9h-1.7l-1.5 1.7-4.6-2.8-4.5-1.7.9-4.7-11.3.2.4-7 .7-1.7-.7-4 3.4-9.1 2.9-5 1.1-5.9-2.7-.8-1.2.3-1-1.5-2.8 1.9-1.2-.9h-2.7l-.4-.5-.2-4.2-1.3-2.8.3-2.1-1.1-5.6.4-1.3h1.8l.5-1.2-.6-1-1.9-.6.8-1.9-.5-3.4-6.8-2.5-2.4-3.3.4-2.1 1.9-4.1.2-4 1.3-3-.5-3.4-1.6-.8-4 .3-1.7-1-.6-2.4-.9-.9-2.9-.7-1.7 1.2-.8 3.5-.8 1.2-2.4.3-1 .8-2 .4-1.9 1.5-1.7-.8.5-2.8 2.2-2.8v-4.9l2.7-2.7.4-1.2-.2-.5-1.5-.3-1.1-2.1-.8-2-.2-3.4-1.8-1.5-.6-1.3v-1.7l6.1-3.9 4.6-3.7.8-1.3 2.9-1.7.9-1.3 2.2-1.7.5-.8v-1.2l-.7-1-1.9-1.4-.2-3.9 5.1.5 3.8-2.1.5 2Z"/><path id="ZW-ME" d="m494.2 99.4 1.6.8 1.9-1.3 3.5.4-.8 4.3-3.5 8.1-4.9 1.8 6.6 9.8 3.1 7.4.5 4.4-3.2 1.2-4.6.8-2.3 3-4.3 2.2-2.1 4.3-.9 3.1-5.2 2.2-.3 4.1-2 .2-1.9 2.6-2.2.8h-2.9l-1.5 2.1-1.9 1.4-4.1.8-3.3 2.7-1.6.6-3.8 4.4-5.3 3.2-1.4 2.7.5 2.8-5.2 5.6-2.5 2.3-2.3 1.3-.8 1.3 1.5 4.3h-5l-1.7-.9-1.3.3-.6.7-.7 2.6.4 11.2-1.3 2.5.5 2.3-5 1.7-1.2 2.9-1.9 1.3 2.9 3.8-.7 3.6 2.6 3.4 1.7 1.5.6 1.5-.2 1.4 3.7 1 1.5 2.5v4.4l.4 1.9 1.9 1.6 2 4.4v4.8c-.1 0-.6 2-.6 2l.9 3.1-2.4-.5-2.1.8-2.7-1-2.8-1.5-2.5-2.5-2.6-1.5-1.2-.3-1.7 1.1-2.6.5-4.2-2.1-.4.4.2 3.2-3.5 6h-1.1l-3.3-1.2-1.2-2.2h-3.2l-1.5-1.1h-3l-.4 3.7-1.5 2-.2 3.1-.8.4-4.4.4-7.5.5-6.2.9-.5-.9.2-5.5-5.3-1.1-.3 3.2h-1v.4l.9 3.1-1.7.8-.9 1-5.5-3.9-1.7-2.6-2-.6v-2.7h1.1l-.2-1.2-3.8-6.2 1.8-2.8-1.1-.8v-2.7l-5.7.9-6.1-3.2 1.8-2.4 1.6.2.3-2.2 2.7-2.2.3-1.2-.3-4.9 1.4.9 1-.7.6 1.1 2.2-4 1.4-1.6.2-1 2.9-3.4.7-10.3 1.4-1.4v-.7c.1 0-5-6.4-5-6.4l-.7-2.5v-1.6l3.8-3.3v-.9c.1 0-.3-1.2-.3-1.2l.6-2.1 2.1-3-1.1-4 2-1.9v-2.5l.6-1.1 2.7-.3 2.8 1.4 6.1 3.7 4 3.7 1.7-.8h1.4l1.8-1.5-1.1-.7-.3-1 2-.3.4-2-.3-2.5 1.6-1.2h1.5l.4-2.3 1.1-.6.2-.6-1-2.3v-2.4l-.8-1.3.5-2.3-.3-1.7-4.8-.4-.4-1.8-1.7-.2.5-.8 1.1-5.9-1.4.3-.4-.3-.3-1.7 2.2-.3v-2.1l.9-2 1-1 4 1.1 4.7.2 2.1.6-2.6 7.1.5 3.1 1.4-.2 1.9-1.5 2.4.3 1-.4 3.9-3.1h.5l.7 1.4.8-2 1.2-1 .8-2.4 1.4-1.9 5-2 .6-1.7 1.2-1.1v-.9c.1 0 1.2-1.3 1.2-1.3l5.5-4.6.4-1v-2.7c-.1 0-1.4-2.4-1.4-2.4l.2-.4 7.7-3.3-.8-1.8 1.5-3.4 3-2.6-.4-2.1 2.5-2.3 1.2-2.9h1.6l1.6-1-.4-4 .3-.6 1.5-.5 1.2-1.9h2.8c0 .1 1.1-.7 1.1-.7l5.2-2 2.9.8 3.3-2.1h2.9c0-.1 3.7-1.9 3.7-1.9l3.9-1.1 4.6.3 4.5 2.2 3.5-1.1 2.7 1 4.1-2.4 1 .4h3.6l1.1-.7.7.6h1Z"/><path id="ZW-MI" d="m198.9 145.3 2.1-.3 2 .5 2.1-1.3 3.3-.2 3.8-.9 4.5 3.1h.5l1.1-2.9 1.2-.8 2.1-2.9 1.3-.4.6-2.5 2.5-4.1h2l2.7-2.7 2.7-1.1 5.6-.2 2.3-1.2h.9l.4.4 1.8 4 1.1 1.3 5.4 2.4.8 1.3 1.9.3 4.5 1.8 4 .2.2 1 1.4.9.5 3.3 2.8 1.7 2.5 3.2 2.9 1.3-.8 1.9-1.4 1.1-1.7 2.8-1.4 1.3v.7l1.4 1.9-.4 5.2-2 2v1.2l1.1 1v.5l-1.8 2.2-.3 1.9-1.5 1.8-.2 1.9-2.9 4.8-.8 4.2 1.5 4.7 1 1.1 2.7 5.4 4 1.9 2 3.2 2.6.6 5.9 3.9 2.1.7 2.1 1.9-.6 4.1-1.1 1.6.3 3.3-.7 2.6.5 1.8.9.6h2.5c0-.1 1.5 1.9 1.5 1.9l1 .5 5.2-.2 1.4 2.2 2-.8 2.4 2.8.9.4 1.2-.2 2.5 1.6 1.9.2 2.7-.8 3.1.3 1.3.9 1.6-.6 2.1 1.3 3.6-.2 3 .9 1.3.6.8 2.3 1.9.5 1.5 1.4 2.7-.4 3.3 3 3.8 1.6 2.2 1.4 2.5.4 6.1 3.2 5.6-.9v2.7l1.2.8-1.8 2.8 3.8 6.2.2 1.2h-1l-.1 2.7 2 .6 1.7 2.6 5.5 3.9-10.7 8.5 3.5.6 1.1 1.2-.7 1.1-2.6.7.2 3.8-1.5 5.8.8 4.5-1.8 10.2.6 3.4-4.3.2-6.7-1.6-3.8.5-.5 2.3.9 1.9-.5 1.3-1.8 1.2v1.5c-.1 0 .8 1.1.8 1.1l-.4.5-10 .4-4.3 1.8h-4.2c0 .1 2 2.3 2 2.3l.3 1.1v1.7c-.1 0-1.2 2.1-1.2 2.1v2.8l-.6 2.2 2.1-1.7h1l3.6 2.2 1.2 1.4-2.4 5.7v1.1l.7.9 3.8 1.4 1.4 3.5h1.4l3.2 3.8 1 2.3 2 2.5v4.4l1.3 3.6 2.8 1.7v.8c-.1 0-1.5.6-1.5.6l-.3.6-1.8 7-.5 9.2-2.9 3.9-2.9 2.1-5.1-1-2.6.8-1.6-.4-1.3.2-2.3-.6-1-1-2.8-.6-2.3-2.7-2.3-1.1-2.7-2.3h-1.2l-3 1.3-7.5 6.8-2.9.2-1.3-.7h-5.7l-3.1 1-4.4-.2-3.4-.8-.4-.8 4.2-3.7 6.2-4.6 1.4-8.6 2.2-8-2.9.7h-1.9l-.8-.7-.7-1.6v-1.7l2.5-1.4-.7-1.2 5.1-3.1 1.1-1.6 1.2-3.1.9-5.7 3-9v-1.9l2.1-4.8 3-5.2v-2.8l-.9-.8h-3.7l-.4-1 .2-2.5-.7-.4-5.1 1.7h-1l-1-4.6-4.7 2-1-.6-1.8-2.7-4.5-2.5h-1.7l-1.8 2.2-.9-.2-.7-1.7.3-5.1.8-2-.2-1.6-3.3-2.7-1.1-2.9-2.8-2.5-1.4-2.2-1.9-4.9-1-1.1-1.2-.3-2-1.4-.6-1.4-2.7-2.8-3.3-1.8 2.2-3.1-.4-.9-6.2-7-1.3-.8-.4-1.3.3-6.7-.9-1-.4-1.4h-.5V254h-1.6l-.8-.5-3.6-13.6-.4-3.5-.8-1.5.7-1.1 9.7-2.9 5.7-2.2.9-1.2-1.1-3.5-7.7.2-12.7-.4-6.9-1.3-4.6.6-3.7-.4-4.7.8-5.5-.4-4.7.6-2.6-.4-2.9.2-1.4-.7-1.2.2-.6-.6h-1.7l-3.4-.9-3.1.8-3.9-.6v-21.1l1.7-1.8 1-.4 3.3.4.8-.9-.5-.8h-2c0-.1-1-.9-1-.9l-.2-.9 1.1-2.7-.2-2.9-.6-.6-1.9.3-.9-2.7-.8-1 .8-1.6 2.1-1.7.3-.9 1-.9V178l1.3-3.1-1.1-3 .2-.9 2.5-3.1 2.7-.4 2.5-4 .2-3.7.9-2.1v-4c-.1 0 1-2.2 1-2.2l1.4-5.6.5-.5Z"/><path id="ZW-MN" d="m183.6 110.7.9 1.2.2 3.3-.7 2.5.4 1.3 1.1 1.2.8 2.3h-.6l.3 1.6-1.5 1.6h.8c0 .1 2.2-.6 2.2-.6l1 2.6 2.5.2v2.7l1.2 1.6-.3 1.4 1.2 3.3v2l1.3 1 .7 1.5 1.7.5 2.1 3.4-.5.5-1.4 5.6-1.1 2.2v4c.1 0-.8 2.1-.8 2.1l-.2 3.7-2.5 4-2.7.4-2.5 3.1-.2.9 1.1 3-1.4 3.1v2.6l-.9.9-.3.9-2.1 1.7-.8 1.6.8 1 .9 2.7 1.9-.3.6.6.2 2.9-1.1 2.7.2.9 1 .8h2c0 .1.5.9.5.9l-.8.9-3.3-.4-1 .4-1.7 1.8v21.1l3.9.6 3.1-.8 3.4 1h1.7l.6.5 1.2-.2 1.4.7 2.9-.2 2.6.4 4.7-.6 5.5.4 4.7-.8 3.7.4 4.6-.6 6.9 1.3 12.7.4 7.7-.2 1.1 3.5-.9 1.2-5.7 2.2-9.7 2.9-.7 1.1.8 1.5.4 3.5 3.6 13.6.8.5h1.6v1.2h.5l.4 1.5.9 1-.3 6.7.4 1.3 1.3.8 6.2 7 .4.9-2.2 3.1 3.3 1.8 2.7 2.8.6 1.4 2 1.4-.8 2.1-1 .6h-.9c0-.1-1.3-1.2-1.3-1.2l-3.1-.7-1.7.8v1.1l1.8 1.6.7 1.6-1.2 3.4-3.5 2.6.3.8 2.9 2.4v3.6l-1.2 3.1.6.9-3.3 2.6-5.8-2.1 2.3 8.3-6 6.5-5.1.4 2.8 2.1-5.1 4.6-1.9 4.9-2.4 2.5.6.8-3.5 2.4-3.6-4.4 4.6-1.3 1.1-1.6v-.6c-.1 0-2.2-1.6-2.2-1.6l1-2.9-1.5-.7-.2-1.6-1.8 1-1.9-1.2h-1.1c0-.1-.3-.6-.3-.6l.3-2.5-3.2.7-1.9 1.3-4.4-2.4h-.7l-.3.9.9 2.9-.7 2.5.5.7-.5.7-1.5.7-.2 1 .8.4 2.3-.2 1.3.5 2.4-.9.3 1.5 1.1.8-1.1 2.5-2 .2-2.2 3.5-.7.4-2.4-.2-2 3.2-2.1-4.9h-1.1l-3.9-4.7-1.4-1-1.2-3.2-1-1.2-3.8-2.1-1.6.6h-4.5c0 .1-2.5 1.3-2.5 1.3l-3.3-4-1.4 5.1-1.7 3.5-3.7-.8-1.5-1.5-2.1-1-3.9-4.6-2.7-1.6-1.6-2.1-1.1-.5-2.9-3.1-.9-3.7-2.9-3.8-3.6-.4-4.8-3.4-4.6-.3-3.7 1.4-7.5-1.3-2.2.6-3.9.2-3 .7-2-.7-3.3.3-9.9 3-2.4 2.1-2.4.8-3.4-.9-1.8.4-3-5.9-4.9-2.7-3.9-.7-1.3-1.5-1.7-3.6-2.4.3-1.7-1.2 1.7-2.9-2.7-2.5-3.8.6-2.5-1.6-1.4-.3-1.2-1.1-1.3-3.2-.5-3.7-1.4-1.2v-2.1l-3-7.1v-1.2c.1 0-1.9-2.3-1.9-2.3l.3-1.1-1.1-2-3.2-3.6-.9-2-.2-2.3 2.2-2.9-.4-2.1-1.6-3.7-1.4-2.3-1.4-.4-3.3-2.7-3-1.4v-1.8l-1.2-1.9-.7-2.1-.2-2.8.7-1.7-.8-1.8V228l-2.3-2-2.5-.4-1-1-3.3-5.6-2.2-.8-5.6-6.9-2.1-6-4.5-9.2-1.6-2.4-1.9-.7-.7-1.5-2.2-.8-1.9-3.2-1.5-4.9-2-2.6v-2.7l1.7-5.2 5 2.8h1.6c0-.1.9.8.9.8l3.1-.4.9.4 1-.4 1.4.2 2.3 1.3.9-.2 1.5-1.6 2.1.2.6.5.9-.5 2.2-.3 1.8-1.6 1.9-.2.4 1.6h.8c0-.1 3.1.9 3.1.9l2.1 2.2 2.7.5 1.2 2.4-.8.9 1 .6-.2.8.4.8 2.7.9.4.7 1.5-.3 2.2.6 2.6-1.9 1.4.3.6-.5 2.9.7.9-2-.7-.7.6-.9 4.1-1.1 3.7-1.7v.9c-.1 0 1.7 1.4 1.7 1.4l2.4-.2 1.4 1.2 2.4-.4 2 .7 1.7-.2 3.3 2h1.3c0 .1 2.3 1.3 2.3 1.3l3 .2 1 1.9 1.3.6.4 1.6 1.2.6h2l2.5 1.2 3.6-3.4 1.8-.5 1.4.4 1.8-.9.5-1.7 1.9.4.9-.5 1 .2 4.3-1.5 1.1.2 2.1-1 1.7.7 3.1-4.4 4-3.4-.2-3.1 4.5-5.3 5.9-8.2 14.9-11.7 4.1-4.8.6-.9.9-6.2 12.7-18.9 11.9-5.6Z"/><path id="ZW-MS" d="m261.1 284.9 1.2.3 1 1.1 1.9 4.9 1.4 2.2 2.8 2.5 1.1 2.9 3.3 2.7.2 1.6-.8 2-.3 5.1.7 1.7.9.2 1.8-2.1h1.7l4.5 2.4 1.8 2.7 1 .6 4.7-2 1 4.5h1l5.1-1.6.7.4-.2 2.5.4.9h3.7l.8.9v2.8l-3 5.2-2.2 4.8v1.9l-3 9-.9 5.7-1.2 3.1-1.1 1.6-5.1 3.1.7 1.2-2.4 1.4v1.7l.7 1.6.8.7h1.9l2.9-.7-2.2 8-1.4 8.6-6.2 4.6-4.2 3.7.4.8 3.4.8 4.4.2 3.1-.9h5.7l1.6 3.9 4.5 3.8.8 3.3 2.4 1v2.4l1.9 1.3.4 2.6 1.1 1 .6 2.5.5.6 2.9 1.3 3.3 4.8 3.1 2.5.5 1.2h3.1c0-.1 3.6 3 3.6 3h1.9c0 .1.4.8.4.8l-.5 2.1.7.5 6.7.4 4.3 1.7 2.7 1.7 2.5.5.5.6-.5 2.3 1.6.8 1 1.3 1.1-.9 2.7 1.9 2.1-1 .9.2-1 2 1.7 1.1.6 2.7 2.1 1.1.8 1.9.8.2.6 1.3 2.1 1.7-.8 1.4.2.8 2.7 1.2-.2 1.5 3.3 2.5.2 1.2 1 .7.7 2.6 2.9-.5v2.1l.8.5.7 2.9 2 .6.2.4-.8 1 1.5.2.5 2 1.6.7-1 1.4.5.8 4.4 2.9 1.2 2.5-1.8.6-1.2-.2-4.3-1.8-.6.7h-.8l-.6-.8h-1.4l-1.1-.9-1.9-.3-1.1.6-3-.9-8.1 1.7-2.9-.4-2 1.7-2.4-1.1h-1.8c0 .1-.9.8-.9.8l-4.1-1.1-6.9 2.4-4.2-.2-1.7.6-1.1-.6-1-1.8-1.7-1.7-4.7.3-2 .8-4.4-3.7-2.1-.2-.5-1.7-3.1-.3-2.8-2.4-2.6.3-1.6-1.3h-1.8l-1.7-.7-2-1.7-6.5-.2-1-.9-1.8.7-1.1 1.4-1.9-1-2.6.8-.7 1.7-4.1-.8-2.8.6-2.2 1.2-1.6.3-1.7-2.5-3-2.6-1.4-3.2-1-1-4 1.3-2.5-.2-2.6-1-3.3-2.7-1.6-2.9-.5-3.3 1.1-4.8 2.4-2.9-1.6-1.5-2.2-.6-1.1-.9h-3.7l-4.6-1.2-2-1.4-2.8-.2-1.6-1.4-6-2.3-1.3-1.8-3.4-.7-1.4-1h-.9l-.5.9h-.9l-1.2 1-1.9.6-3-1.7-2.9-.6-2.4-1.9-.7.5-1.7-.7-3.3-.4-4.9.9-5.8-1.7-5.5-.5-2-3.1.4-.6-.2-.4-1.2.3-.6-.7 1.2-1.6-1.6-.7v-.7l.9-.9-1.3-1.8.3-1.1-2.6-3.5-.2-2.9-3-3.4-.8-1.8-2.5-3v-1.2c-.1 0-1.5-.3-1.5-.3l-1.3-1.3-1.4-.4-1.7-2.3-1.1-.8-1.2-2.8 1.1-1.7-.8-2 1-.9-.3-.7.7-1.4-1.5-1.8.8-2-.8-2.2 1.5-2.1.6-3.2.6-.5-.3-.9.4-1.6-.5-2.1.4-1-1.6-3.3v-4.2l1-1.4.5-2.6-.5-1.7-2.4-2-2.4.8-1.4-1.2-3.3.8-6.1-1.5-2.9.9h-2.7c0-.1-1.8-.9-1.8-.9l-4 1.9-.7-.2.7-5.3v-8.1l-1-5-1.2-1-1.2-4.6-.6-.3-1.1-2.5-1.5-1.2-3.9.3-1.3-.3-1.5-3-1.9-1.2-5.7-.2-3.7-1.6h-1.3c0 .1-2.5-.7-2.5-.7l-2.7-.2-.4-.4.3-.7-.9-1.2-2.3-.6-2.6.3-1.3-3.2 2.4-.8 2.4-2.1 9.9-3 3.3-.3 2 .7 3-.7 3.9-.2 2.2-.6 7.5 1.3 3.7-1.4 4.6.3 4.8 3.4 3.6.4 2.9 3.8.9 3.7 2.9 3.1 1.1.5 1.6 2.1 2.7 1.6 3.9 4.6 2.1 1 1.5 1.5 3.7.8 1.7-3.5 1.4-5.1 3.3 4 2.5-1.2h4.5c0-.1 1.6-.7 1.6-.7l3.8 2.1 1 1.2 1.2 3.2 1.4 1 3.9 4.6h1.1l2.1 5 2-3.2 2.4.2.7-.4 2.2-3.5 2-.2 2.6 1.6.8-2.6 3.3.3.6.7 3.6 4.4 3.5-2.4-.6-.8 2.4-2.5 1.9-4.9 5.1-4.6-2.8-2.1 5.1-.4 6-6.5-2.3-8.3 5.8 2.1 3.3-2.6-.6-.9 1.1-3.1v-3.6l-2.8-2.4-.3-.8 3.5-2.6 1.2-3.4-.7-1.6-1.7-1.6v-1.1l1.6-.8 3.1.7 1.3 1.1h.9c0 .1 1-.5 1-.5l.8-2.1Z"/><path id="ZW-MV" d="m365.9 270.8.9-1 1.7-.8-.9-3.1v-.3h1l.3-3.2 5.3 1.1-.2 5.5.5.9 6.2-.9 7.5-.5 10.1 6.4 2.2 2.4 3.4.2 2.9.8 3.1 2.7 1.4 2.1 1.7-.2 4.2 1.1 1.2 3.6 1.1.4 1.6 1.5 1.3 2.3 4.1 2.3 1.4 3.3 2.5 2.7 1.5.9 1.7 3.6 2.6 2.2.8 2 1.7 2 1.1.6h2.7l2.4 2.1 1.5.6h4.4l2.7 2.5 3.1 1.8 3.3 1.1.5 2.2v6.7c-.1 0-1.1 4.5-1.1 4.5l-.5 6-1.2 5-.9 8.5v5.5c.1 0-1.1 3.1-1.1 3.1l-.5 4.4-1.9 1.8-1 5.7-4.4 8.7-.3 1.8.9 2.6v1.7l2.3 1.9v2.7l3.2 1.3 1.3 1.2 1.3 4 .2 1.9 1.5 3.3 2.8 1.2 4.2 4.3-1.4 1-65.2 71.6-4.8 3.3-1.3-1.1-1.2-2.5-1.2-.3-2.3.4-2.5-2.6-1.2-.2-4.2 1.4-1.5-.5 1.2.2 1.8-.6-1.2-2.5-4.4-2.9-.5-.8 1-1.4-1.6-.7-.5-2-1.5-.2.8-1-.2-.4-2-.6-.7-2.9-.8-.5v-2.1l-2.8.5-.7-2.6-1-.7-.2-1.2-3.3-2.5.2-1.5-2.7-1.2-.2-.8.8-1.4-2.1-1.7-.6-1.3-.8-.2-.8-1.9-2.1-1.1-.6-2.7-1.7-1.1 1-2-.9-.2-2.1 1-2.7-1.9-1.1.9-1-1.3-1.6-.8.5-2.3-.5-.6-2.5-.5-2.7-1.7-4.3-1.7-6.7-.4-.7-.5.5-2.1-.4-.7h-1.9c0-.1-3.6-3.2-3.6-3.2h-3.1c0 .1-.5-1.1-.5-1.1l-3.1-2.5-3.3-4.8-2.9-1.3-.5-.6-.6-2.5-1.1-1-.4-2.6-1.8-1.3v-2.4l-2.5-1-.8-3.3-4.5-3.8-1.6-3.9 1.3.7 2.9-.2 7.5-6.8 3-1.3h1.2l2.7 2.4 2.3 1.1 2.3 2.7 2.8.6 1 1 2.3.6 1.3-.2 1.6.4 2.6-.8 5.1 1 2.9-2.1 2.9-3.9.5-9.2 1.8-7 .3-.6 1.4-.6v-.8c.1 0-2.7-1.7-2.7-1.7l-1.3-3.6v-4.4l-2-2.5-1-2.3-3.2-3.9h-1.4l-1.4-3.4-3.8-1.4-.8-.9v-1.1l2.5-5.7-1.2-1.4-3.6-2.2h-1l-2.1 1.8.5-2.2v-2.8l1-2.1v-1.7c.1 0-.2-1.1-.2-1.1l-2-2.2h4.2c0-.1 4.3-1.9 4.3-1.9l10-.4.4-.5-1-1.1v-1.5c.1 0 2-1.2 2-1.2l.5-1.3-.9-1.9.5-2.3 3.8-.5 6.7 1.6 4.3-.2-.6-3.4 1.8-10.2-.8-4.5 1.5-5.8-.2-3.8 2.6-.7.7-1.1-1.1-1.2-3.5-.6 10.7-8.5Z"/><path id="ZW-MW" d="M304.3 27.5h2.1l2.1 1.3 10.1-1.5h2.7l3.2 2.8 2.8-2.4 1.3 1.1.2 3.9 1.9 1.4.6 1v1.2l-.4.8-2.2 1.7-.9 1.3-2.9 1.7-.8 1.3-4.6 3.7-6.1 3.9v1.7l.6 1.3 1.8 1.5.2 3.4.8 2 1.1 2.1 1.5.3.2.5-.4 1.2-2.8 2.7v4.9l-2.1 2.8-.5 2.8 1.7.8 1.9-1.5 2-.4 1-.8 2.4-.3.8-1.2.8-3.5 1.7-1.2 2.9.7.9.9.6 2.4 1.7 1 4-.3 1.6.8.5 3.4-1.3 3-.2 4-1.9 4.1-.4 2.1 2.4 3.3 6.8 2.5.5 3.4-.8 1.9 1.9.6.6 1-.5 1.3h-1.8l-.4 1.2 1.1 5.6-.3 2.1 1.3 2.8.2 4.2.4.5h2.7l1.2.9 2.8-1.9 1 1.5 1.2-.3 2.7.8-1.1 5.9-2.9 5-3.4 9.1.7 4-.7 1.7-.4 7 11.3-.2-.9 4.7 4.5 1.7 4.6 2.8 1.5-1.7h1.7l.8.9.5 2.5-.5 2.1-1.7 1.4-.7 1.4-2 .5-.3 2 1.2 1.3-1.2 2 2.1 1.2 1 1.5-.5.7-2.4.8-2.8-1.4-2.7.3-.5 1.1v2.5l-2 1.9 1.1 4-2.1 3-.6 2.1.5 1.2v.9c-.1 0-3.8 3.3-3.8 3.3v1.6l.6 2.5 5.1 6.4v.7c-.1 0-1.5 1.4-1.5 1.4l-.7 10.3-2.9 3.4-.2 1-1.4 1.6-2.2 4-.6-1.1-1 .7-1.4-.9.3 4.9-.3 1.2-2.7 2.2-.3 2.2-1.6-.2-1.8 2.4-2.5-.4-2.2-1.4-3.8-1.6-3.3-3-2.7.4-1.5-1.4-1.9-.5-.8-2.3-1.3-.6-3-.9-3.6.2-2.1-1.3-1.6.6-1.3-.9-3.1-.3-2.7.8-1.9-.2-2.5-1.6-1.2.2-.9-.4-2.4-2.8-2 .8-1.4-2.2-5.2.2-1-.5-1.5-2h-2.5c0 .1-.9-.5-.9-.5l-.5-1.8.7-2.6-.3-3.3 1.1-1.6.6-4.1-2.1-1.9-2.1-.7-5.9-3.9-2.6-.6-2-3.2-4-1.9-2.7-5.4-1-1.1-1.5-4.7.8-4.2 2.9-4.8.2-1.9 1.5-1.8.3-1.9 1.9-2.2v-.5l-1.3-1v-1.2l2.1-2 .4-5.2-1.4-1.9v-.7l1.4-1.3 1.7-2.8 1.4-1.1.8-1.9-2.9-1.3-2.5-3.2-2.8-1.7-.5-3.3-1.4-.9-.2-1-4-.2-4.5-1.8-1.9-.3-.8-1.3-5.4-2.4-1.1-1.3-1.8-4-.4-.5h-.9l-2.3 1.3-5.6.2-2.7 1.1-2.7 2.6h-2l-2.5 4.2-.6 2.5-1.3.4-2.1 2.9-1.2.8-1.1 2.8h-.5l-4.5-3-3.8.9-3.3.2-2.1 1.3-2-.5-2.1.3-2.1-3.4-1.7-.5-.7-1.5-1.2-1v-2l-1.3-3.3.3-1.4-1.1-1.6v-2.7l-2.6-.2-1-2.6-2.2.8h-.8c0-.1 1.5-1.7 1.5-1.7l-.3-1.5h.6l-.8-2.4-1.1-1.2-.4-1.3.7-2.5-.2-3.3-.9-1.2 7.7-3.6 8.6-7.1 23.8-9.7 6-1.1.8-1.1 3.5-2.3 1.1-1.6v-2.5l1.2-1.9.6-2.4-.6-1.2.2-1.5-1.4-1.1.5-2 1.9-2.6v-.5l-1.2-.5-.3-1 .4-3.9 1.4-2.7-1-1.9.7-1.6-.9-.9 2.6-3.8 1.7-3.5 1.5-.5 5.1.2.7-.3 2.5-3.8 8.4-5.9 1.1-1.3 3.4-.8 6.1-3.2h2.4c0 .1 2.2-1.4 2.2-1.4l4.2-.2 2.8-2.6 2.1-.3 2.1 1.3h1.2l5.5-1.3 5.2-2.1h5.2c0 .1 1.6.8 1.6.8Z"/></g></svg>