<?xml version="1.0" encoding="UTF-8"?>
<svg id="Layer_1" xmlns="http://www.w3.org/2000/svg" xmlns:amcharts="http://amcharts.com/ammap" version="1.1" viewBox="0 0 512 512">
  <!-- Generator: Adobe Illustrator 29.1.0, SVG Export Plug-In . SVG Version: 2.1.0 Build 142)  -->
  <g id="_x3C_defs">
    <amcharts:ammap bottomLatitude="-22.420971" leftLongitude="25.236468" projection="mercator" rightLongitude="33.056935" topLatitude="-15.610101"/>
  </g>
  <g>
    <path id="ZW-BU" d="M221.8,336.1l-.6-.7-3.3-.3-.8,2.6-2.6-1.6h0l1.1-2.5-1.1-.8-.3-1.5-2.4.9-1.3-.5-2.3.2-.8-.4.2-1,1.5-.7.5-.7-.5-.7.7-2.5-.9-2.9.3-.9h.7s4.4,2.4,4.4,2.4l1.9-1.3,3.2-.7-.3,2.5.3.5h1.1c0,.1,1.9,1.3,1.9,1.3l1.8-1,.2,1.6,1.5.7-1,2.9,2.1,1.6v.6c.1,0-1,1.6-1,1.6l-4.6,1.3Z"/>
    <path id="ZW-HA" d="M380.3,163.2l1.7.2.4,1.8,4.8.4.3,1.7-.5,2.3.8,1.3v2.4c0,0,1,2.3,1,2.3l-.2.6-1.1.6-.4,2.4h-1.5c0,0-1.6,1.2-1.6,1.2l.3,2.5-.4,2-2,.3.3,1,1.1.7-1.8,1.4h-1.4c0,0-1.7.9-1.7.9l-4-3.7-6.1-3.7h0l2.4-.8.5-.7-1-1.5-2.1-1.2,1.2-2-1.2-1.3.3-2,2-.5.7-1.4,1.7-1.4.5-2.1h0l1.4,1.2h1.5c0,0,.7-.7.7-.7l.9.4,1.3-.2,1-1.2v-3.4Z"/>
    <path id="ZW-MA" d="M501.1,155.6l.3.7,1.8.4,1.6,1.5.6.8v1.5c0,0-1.6,3-1.6,3l-.4,2.1.5,1.2h-1.1c0,0,0,.3,0,.3l.3,1.4,1.3.8-.8.8-.2,2.1h-2.6s-.6,1.1-.6,1.1l-.4,6,1.2.4.3.6-.5,2-.4.6h-1s-.3,1.7-.3,1.7l1.1,5.5.9,2.5v2.3c-.1,0,1.5,1.8,1.5,1.8v1.6c0,0,.7,3.2.7,3.2l-.7,2.2.3,2.1,2.4,1.9v.6c0,0,1,1.2,1,1.2l-.5,1.2-1.5.8-.5,2.7.4,1.8-.5,1.1-2.3,1.1-1.2-.8-2.6,1.6-1-.2-.8.5-.5,1,.7,2.4-.6,1.4.8.8.7,2,2.9,4.6-1.7,5.1-2.3,2h-.9c0,0-2.7-1.3-2.7-1.3l-1.4.3-6.5,3.5-.5,1.6,1.2,2.3.4,2.3-1.9,1,.6,4.1.8,1.5,2.2.3,2.8-.8h2.1s.8.5.8.5l.4,2.7.4.8.8.4.4,1.1-1.8,9.1v4c0,0-4.6,4.6-4.6,4.6v.6c0,0,.6,1.1.6,1.1l-.6,4.3.4,1.1,1.3.7h2.7c0,0-.3,2.8-.3,2.8l.7,1.5-.2,4.6.3,1-1.1,3.6,1,.5h2.5s5.1-2,5.1-2l.8,2-1.5,1.8v.8c0,0,2.3,1.6,2.3,1.6l3,1.3.9.9.2,1.3-2.9,14.9-2.7,1.3-3.1.7-.5,1,.4.7v2.8c0,0-.6.3-.6.3l-1-.3-.4-.9-1.2.6-.8,3,1,2.3-1.6.7-.5,1.3,1.8,1.4-.2,3.2-3.6,3.5-.4,2.2-4.3,5.2-4.2,7.2-.7.4h-5.8c0,0-4.8,3.9-4.8,3.9l-.4,3.8.6,1.8.2,7.3,1.3,5.5v1.7c-.1,0-3.2,6.6-3.2,6.6l-5.2,5.9-1.4,2.6,2.5,2.3-.7,1.6.3.9,1.5,1.4.6,1.6,2.9,4.1.3,1.1-1.7-1.2-2,.2h0l-4.2-4.3-2.8-1.2-1.5-3.3-.2-1.9-1.3-4-1.3-1.2-3.3-1.3v-2.7c0,0-2.1-1.9-2.1-1.9v-1.7c0,0-1-2.6-1-2.6l.3-1.8,4.4-8.7,1-5.7,1.9-1.8.5-4.4,1.2-3.1v-5.5c-.1,0,.8-8.5.8-8.5l1.2-5,.5-6,1-4.5v-6.7c.1,0-.4-2.2-.4-2.2l-3.3-1.1-3.1-1.8-2.7-2.6h-4.4c0,0-1.5-.5-1.5-.5l-2.4-2.1h-2.7s-1.1-.6-1.1-.6l-1.7-2-.8-2-2.6-2.2-1.7-3.6-1.5-.9-2.5-2.7-1.4-3.3-4.1-2.3-1.3-2.3-1.6-1.5-1.1-.4-1.2-3.6-4.2-1.1-1.7.2-1.4-2.1-3.1-2.7-2.9-.8-3.4-.2-2.2-2.4-10.1-6.4h0l4.4-.4.8-.4.2-3.1,1.5-2,.4-3.8h3c0,0,1.5,1.3,1.5,1.3h3.2c0,0,1.2,2.1,1.2,2.1l3.3,1.2h1.1c0,0,3.5-6.1,3.5-6.1l-.2-3.2.4-.4,4.2,2.1,2.6-.5,1.7-1.1,1.2.3,2.6,1.5,2.5,2.5,2.8,1.5,2.7,1,2.1-.8,2.4.5-.9-3.1.5-2v-4.8c.1,0-1.9-4.4-1.9-4.4l-1.9-1.6-.5-1.9v-4.4c0,0-1.4-2.5-1.4-2.5l-3.7-1,.2-1.4-.6-1.5-1.7-1.5-2.6-3.4.7-3.6-2.9-3.8,1.9-1.3,1.2-2.9,5-1.7-.5-2.3,1.3-2.5-.4-11.2.7-2.6.6-.7,1.3-.3,1.7.8h5c0,0-1.5-4.2-1.5-4.2l.8-1.3,2.3-1.3,2.5-2.3,5.2-5.6-.5-2.8,1.4-2.7,5.3-3.2,3.8-4.4,1.6-.6,3.3-2.7,4.1-.8,1.9-1.4,1.5-2.1h2.9s2.2-.8,2.2-.8l1.9-2.6,2-.2.3-4.1,5.2-2.2.9-3.1,2.1-4.3,4.3-2.2,2.3-3,4.6-.8,3.2-1.2h0l.2,4.2,3.1,2.6-2.4,3.6-.6,3.5-.9.2-1.4,1.7v2.3c-.1,0,.9,2.4.9,2.4Z"/>
    <path id="ZW-MC" d="M337.8,29.2v23.3c0,0,31.8,0,31.8,0l1.8,1.1.5,1.5,1.6,1.3,2.4-1,.7-1.7,1.5-.4.7-.9.5,1.1,2-1.1v-.3c0,0,2.4-.9,2.4-.9l2.4.5.7.9,1.6.2,1.9-.5v.6c.1,0,1.5,0,1.5,0l2.5,1.2,1.7,1.4,1,2.1,3.6,3.8h1.4c0-.1.3,1.3.3,1.3h3.3s1.1.9,1.1.9l2.9.9,9.4,1.2,2.7,1.8,2.4.6,1,1.3h.8c0,.1.3.9.3.9l.8.5v1.2c0,0,.6,0,.6,0l.3.9h1.1c0,0,.2.6.2.6l2.7,1.2,1.1,2.4-.2,1.6.4,1,7.9,2,15.9-.5,8.1,2.3,19,8.7-.4,5.3,3.3,1.6h0l-4.1,2.4-2.7-1-3.5,1.1-4.5-2.2-4.6-.3-3.9,1.1-3.7,1.7h-2.9c0,.1-3.3,2.2-3.3,2.2l-2.9-.8-5.2,2-1.1.8h-2.8c0-.1-1.2,1.8-1.2,1.8l-1.5.5-.3.6.4,4-1.6,1.1h-1.6s-1.2,2.9-1.2,2.9l-2.5,2.3.4,2.1-3,2.6-1.5,3.4.8,1.8-7.7,3.3-.2.4,1.3,2.4v2.7c.1,0-.3,1-.3,1l-5.5,4.6-1,1.3v.9c-.1,0-1.3,1.1-1.3,1.1l-.6,1.7-5,2-1.4,1.9-.8,2.4-1.2,1-.8,2-.7-1.5h-.5c0,0-3.9,3.2-3.9,3.2l-1,.4-2.4-.3-1.9,1.5-1.4.2-.5-3.1,2.6-7.1-2.1-.6-4.7-.2-4-1.1-1,1-.9,2v2.1s-2.2.3-2.2.3l.3,1.7.4.3,1.4-.3-1.1,5.9-.5.8h0v3.4c0,0-1.1,1.2-1.1,1.2l-1.3.2-.9-.4-.7.7h-1.5c0,0-1.4-1.3-1.4-1.3h0l-.5-2.5-.8-.9h-1.7s-1.5,1.7-1.5,1.7l-4.6-2.8-4.5-1.7.9-4.7-11.3.2.4-7,.7-1.7-.7-4,3.4-9.1,2.9-5,1.1-5.9-2.7-.8-1.2.3-1-1.5-2.8,1.9-1.2-.9h-2.7s-.4-.5-.4-.5l-.2-4.2-1.3-2.8.3-2.1-1.1-5.6.4-1.3h1.8c0,0,.5-1.2.5-1.2l-.6-1-1.9-.6.8-1.9-.5-3.4-6.8-2.5-2.4-3.3.4-2.1,1.9-4.1.2-4,1.3-3-.5-3.4-1.6-.8-4,.3-1.7-1-.6-2.4-.9-.9-2.9-.7-1.7,1.2-.8,3.5-.8,1.2-2.4.3-1,.8-2,.4-1.9,1.5-1.7-.8.5-2.8,2.2-2.8v-4.9c0,0,2.7-2.7,2.7-2.7l.4-1.2-.2-.5-1.5-.3-1.1-2.1-.8-2-.2-3.4-1.8-1.5-.6-1.3v-1.7s6.1-3.9,6.1-3.9l4.6-3.7.8-1.3,2.9-1.7.9-1.3,2.2-1.7.5-.8v-1.2c0,0-.7-1-.7-1l-1.9-1.4-.2-3.9h0l5.1.5,3.8-2.1.5,2Z"/>
    <path id="ZW-ME" d="M494.2,99.4l1.6.8,1.9-1.3,3.5.4-.8,4.3-3.5,8.1-4.9,1.8,6.6,9.8,3.1,7.4.5,4.4h0l-3.2,1.2-4.6.8-2.3,3-4.3,2.2-2.1,4.3-.9,3.1-5.2,2.2-.3,4.1-2,.2-1.9,2.6-2.2.8h-2.9s-1.5,2.1-1.5,2.1l-1.9,1.4-4.1.8-3.3,2.7-1.6.6-3.8,4.4-5.3,3.2-1.4,2.7.5,2.8-5.2,5.6-2.5,2.3-2.3,1.3-.8,1.3,1.5,4.3h-5c0,0-1.7-.9-1.7-.9l-1.3.3-.6.7-.7,2.6.4,11.2-1.3,2.5.5,2.3-5,1.7-1.2,2.9-1.9,1.3,2.9,3.8-.7,3.6,2.6,3.4,1.7,1.5.6,1.5-.2,1.4,3.7,1,1.5,2.5v4.4c0,0,.4,1.9.4,1.9l1.9,1.6,2,4.4v4.8c-.1,0-.6,2-.6,2l.9,3.1-2.4-.5-2.1.8-2.7-1-2.8-1.5-2.5-2.5-2.6-1.5-1.2-.3-1.7,1.1-2.6.5-4.2-2.1-.4.4.2,3.2-3.5,6h-1.1c0,0-3.3-1.2-3.3-1.2l-1.2-2.2h-3.2c0,0-1.5-1.1-1.5-1.1h-3c0,0-.4,3.7-.4,3.7l-1.5,2-.2,3.1-.8.4-4.4.4h0l-7.5.5-6.2.9-.5-.9.2-5.5-5.3-1.1-.3,3.2h-1c0,0,0,.4,0,.4l.9,3.1-1.7.8-.9,1h0l-5.5-3.9-1.7-2.6-2-.6v-2.7c.1,0,1.1,0,1.1,0l-.2-1.2-3.8-6.2,1.8-2.8-1.1-.8v-2.7s-5.7.9-5.7.9l-6.1-3.2h0l1.8-2.4,1.6.2.3-2.2,2.7-2.2.3-1.2-.3-4.9,1.4.9,1-.7.6,1.1,2.2-4,1.4-1.6.2-1,2.9-3.4.7-10.3,1.4-1.4v-.7c.1,0-5-6.4-5-6.4l-.7-2.5v-1.6c0,0,3.8-3.3,3.8-3.3v-.9c.1,0-.3-1.2-.3-1.2l.6-2.1,2.1-3-1.1-4,2-1.9v-2.5s.6-1.1.6-1.1l2.7-.3,2.8,1.4h0l6.1,3.7,4,3.7,1.7-.8h1.4c0,0,1.8-1.5,1.8-1.5l-1.1-.7-.3-1,2-.3.4-2-.3-2.5,1.6-1.2h1.5c0,0,.4-2.3.4-2.3l1.1-.6.2-.6-1-2.3v-2.4c0,0-.8-1.3-.8-1.3l.5-2.3-.3-1.7-4.8-.4-.4-1.8-1.7-.2h0l.5-.8,1.1-5.9-1.4.3-.4-.3-.3-1.7,2.2-.3v-2.1s.9-2,.9-2l1-1,4,1.1,4.7.2,2.1.6-2.6,7.1.5,3.1,1.4-.2,1.9-1.5,2.4.3,1-.4,3.9-3.1h.5c0,0,.7,1.4.7,1.4l.8-2,1.2-1,.8-2.4,1.4-1.9,5-2,.6-1.7,1.2-1.1v-.9c.1,0,1.2-1.3,1.2-1.3l5.5-4.6.4-1v-2.7c-.1,0-1.4-2.4-1.4-2.4l.2-.4,7.7-3.3-.8-1.8,1.5-3.4,3-2.6-.4-2.1,2.5-2.3,1.2-2.9h1.6s1.6-1,1.6-1l-.4-4,.3-.6,1.5-.5,1.2-1.9h2.8c0,.1,1.1-.7,1.1-.7l5.2-2,2.9.8,3.3-2.1h2.9c0-.1,3.7-1.9,3.7-1.9l3.9-1.1,4.6.3,4.5,2.2,3.5-1.1,2.7,1,4.1-2.4h0l1,.4h3.6s1.1-.7,1.1-.7l.7.6h1Z"/>
    <path id="ZW-MI" d="M198.9,145.3l2.1-.3,2,.5,2.1-1.3,3.3-.2,3.8-.9,4.5,3.1h.5c0,0,1.1-2.9,1.1-2.9l1.2-.8,2.1-2.9,1.3-.4.6-2.5,2.5-4.1h2c0,0,2.7-2.7,2.7-2.7l2.7-1.1,5.6-.2,2.3-1.2h.9c0,0,.4.4.4.4l1.8,4,1.1,1.3,5.4,2.4.8,1.3,1.9.3,4.5,1.8,4,.2.2,1,1.4.9.5,3.3,2.8,1.7,2.5,3.2,2.9,1.3-.8,1.9-1.4,1.1-1.7,2.8-1.4,1.3v.7s1.4,1.9,1.4,1.9l-.4,5.2-2,2v1.2c0,0,1.1,1,1.1,1v.5c0,0-1.8,2.2-1.8,2.2l-.3,1.9-1.5,1.8-.2,1.9-2.9,4.8-.8,4.2,1.5,4.7,1,1.1,2.7,5.4,4,1.9,2,3.2,2.6.6,5.9,3.9,2.1.7,2.1,1.9-.6,4.1-1.1,1.6.3,3.3-.7,2.6.5,1.8.9.6h2.5c0-.1,1.5,1.9,1.5,1.9l1,.5,5.2-.2,1.4,2.2,2-.8,2.4,2.8.9.4,1.2-.2,2.5,1.6,1.9.2,2.7-.8,3.1.3,1.3.9,1.6-.6,2.1,1.3,3.6-.2,3,.9,1.3.6.8,2.3,1.9.5,1.5,1.4,2.7-.4,3.3,3,3.8,1.6,2.2,1.4,2.5.4h0l6.1,3.2,5.6-.9v2.7s1.2.8,1.2.8l-1.8,2.8,3.8,6.2.2,1.2h-1s-.1,2.7-.1,2.7l2,.6,1.7,2.6,5.5,3.9h0l-10.7,8.5,3.5.6,1.1,1.2-.7,1.1-2.6.7.2,3.8-1.5,5.8.8,4.5-1.8,10.2.6,3.4-4.3.2-6.7-1.6-3.8.5-.5,2.3.9,1.9-.5,1.3-1.8,1.2v1.5c-.1,0,.8,1.1.8,1.1l-.4.5-10,.4-4.3,1.8h-4.2c0,.1,2,2.3,2,2.3l.3,1.1v1.7c-.1,0-1.2,2.1-1.2,2.1v2.8s-.6,2.2-.6,2.2l2.1-1.7h1s3.6,2.2,3.6,2.2l1.2,1.4-2.4,5.7v1.1c0,0,.7.9.7.9l3.8,1.4,1.4,3.5h1.4c0,0,3.2,3.8,3.2,3.8l1,2.3,2,2.5v4.4s1.3,3.6,1.3,3.6l2.8,1.7v.8c-.1,0-1.5.6-1.5.6l-.3.6-1.8,7-.5,9.2-2.9,3.9-2.9,2.1-5.1-1-2.6.8-1.6-.4-1.3.2-2.3-.6-1-1-2.8-.6-2.3-2.7-2.3-1.1-2.7-2.3h-1.2s-3,1.3-3,1.3l-7.5,6.8-2.9.2-1.3-.7h-5.7c0,0-3.1,1-3.1,1l-4.4-.2-3.4-.8-.4-.8,4.2-3.7,6.2-4.6,1.4-8.6,2.2-8-2.9.7h-1.9s-.8-.7-.8-.7l-.7-1.6v-1.7c0,0,2.5-1.4,2.5-1.4l-.7-1.2,5.1-3.1,1.1-1.6,1.2-3.1.9-5.7,3-9v-1.9c0,0,2.1-4.8,2.1-4.8l3-5.2v-2.8c0,0-.9-.8-.9-.8h-3.7c0,0-.4-1-.4-1l.2-2.5-.7-.4-5.1,1.7h-1c0,0-1-4.6-1-4.6l-4.7,2-1-.6-1.8-2.7-4.5-2.5h-1.7c0,0-1.8,2.2-1.8,2.2l-.9-.2-.7-1.7.3-5.1.8-2-.2-1.6-3.3-2.7-1.1-2.9-2.8-2.5-1.4-2.2-1.9-4.9-1-1.1-1.2-.3h0l-2-1.4-.6-1.4-2.7-2.8-3.3-1.8,2.2-3.1-.4-.9-6.2-7-1.3-.8-.4-1.3.3-6.7-.9-1-.4-1.4h-.5c0,0,0-1.3,0-1.3h-1.6s-.8-.5-.8-.5l-3.6-13.6-.4-3.5-.8-1.5.7-1.1,9.7-2.9,5.7-2.2.9-1.2-1.1-3.5-7.7.2-12.7-.4-6.9-1.3-4.6.6-3.7-.4-4.7.8-5.5-.4-4.7.6-2.6-.4-2.9.2-1.4-.7-1.2.2-.6-.6h-1.7s-3.4-.9-3.4-.9l-3.1.8-3.9-.6v-21.1s1.7-1.8,1.7-1.8l1-.4,3.3.4.8-.9-.5-.8h-2c0-.1-1-.9-1-.9l-.2-.9,1.1-2.7-.2-2.9-.6-.6-1.9.3-.9-2.7-.8-1,.8-1.6,2.1-1.7.3-.9,1-.9v-2.6c0,0,1.3-3.1,1.3-3.1l-1.1-3,.2-.9,2.5-3.1,2.7-.4,2.5-4,.2-3.7.9-2.1v-4c-.1,0,1-2.2,1-2.2l1.4-5.6.5-.5Z"/>
    <path id="ZW-MN" d="M183.6,110.7l.9,1.2.2,3.3-.7,2.5.4,1.3,1.1,1.2.8,2.3h-.6c0,0,.3,1.6.3,1.6l-1.5,1.6h.8c0,.1,2.2-.6,2.2-.6l1,2.6,2.5.2v2.7c0,0,1.2,1.6,1.2,1.6l-.3,1.4,1.2,3.3v2s1.3,1,1.3,1l.7,1.5,1.7.5,2.1,3.4h0l-.5.5-1.4,5.6-1.1,2.2v4c.1,0-.8,2.1-.8,2.1l-.2,3.7-2.5,4-2.7.4-2.5,3.1-.2.9,1.1,3-1.4,3.1v2.6c0,0-.9.9-.9.9l-.3.9-2.1,1.7-.8,1.6.8,1,.9,2.7,1.9-.3.6.6.2,2.9-1.1,2.7.2.9,1,.8h2c0,.1.5.9.5.9l-.8.9-3.3-.4-1,.4-1.7,1.8v21.1s3.9.6,3.9.6l3.1-.8,3.4,1h1.7s.6.5.6.5l1.2-.2,1.4.7,2.9-.2,2.6.4,4.7-.6,5.5.4,4.7-.8,3.7.4,4.6-.6,6.9,1.3,12.7.4,7.7-.2,1.1,3.5-.9,1.2-5.7,2.2-9.7,2.9-.7,1.1.8,1.5.4,3.5,3.6,13.6.8.5h1.6s0,1.2,0,1.2h.5c0,0,.4,1.5.4,1.5l.9,1-.3,6.7.4,1.3,1.3.8,6.2,7,.4.9-2.2,3.1,3.3,1.8,2.7,2.8.6,1.4,2,1.4h0l-.8,2.1-1,.6h-.9c0-.1-1.3-1.2-1.3-1.2l-3.1-.7-1.7.8v1.1c0,0,1.8,1.6,1.8,1.6l.7,1.6-1.2,3.4-3.5,2.6.3.8,2.9,2.4v3.6s-1.2,3.1-1.2,3.1l.6.9-3.3,2.6-5.8-2.1,2.3,8.3-6,6.5-5.1.4,2.8,2.1-5.1,4.6-1.9,4.9-2.4,2.5.6.8-3.5,2.4-3.6-4.4h0l4.6-1.3,1.1-1.6v-.6c-.1,0-2.2-1.6-2.2-1.6l1-2.9-1.5-.7-.2-1.6-1.8,1-1.9-1.2h-1.1c0-.1-.3-.6-.3-.6l.3-2.5-3.2.7-1.9,1.3-4.4-2.4h-.7s-.3.9-.3.9l.9,2.9-.7,2.5.5.7-.5.7-1.5.7-.2,1,.8.4,2.3-.2,1.3.5,2.4-.9.3,1.5,1.1.8-1.1,2.5h0l-2,.2-2.2,3.5-.7.4-2.4-.2-2,3.2-2.1-4.9h-1.1s-3.9-4.7-3.9-4.7l-1.4-1-1.2-3.2-1-1.2-3.8-2.1-1.6.6h-4.5c0,.1-2.5,1.3-2.5,1.3l-3.3-4-1.4,5.1-1.7,3.5-3.7-.8-1.5-1.5-2.1-1-3.9-4.6-2.7-1.6-1.6-2.1-1.1-.5-2.9-3.1-.9-3.7-2.9-3.8-3.6-.4-4.8-3.4-4.6-.3-3.7,1.4-7.5-1.3-2.2.6-3.9.2-3,.7-2-.7-3.3.3-9.9,3-2.4,2.1-2.4.8h0l-3.4-.9-1.8.4-3-5.9-4.9-2.7-3.9-.7-1.3-1.5-1.7-3.6-2.4.3-1.7-1.2,1.7-2.9-2.7-2.5-3.8.6-2.5-1.6-1.4-.3-1.2-1.1-1.3-3.2-.5-3.7-1.4-1.2v-2.1c0,0-3-7.1-3-7.1v-1.2c.1,0-1.9-2.3-1.9-2.3l.3-1.1-1.1-2-3.2-3.6-.9-2-.2-2.3,2.2-2.9-.4-2.1-1.6-3.7-1.4-2.3-1.4-.4-3.3-2.7-3-1.4v-1.8c0,0-1.2-1.9-1.2-1.9l-.7-2.1-.2-2.8.7-1.7-.8-1.8v-1.9c0,0-2.3-2-2.3-2l-2.5-.4-1-1-3.3-5.6-2.2-.8-5.6-6.9-2.1-6-4.5-9.2-1.6-2.4-1.9-.7-.7-1.5-2.2-.8-1.9-3.2-1.5-4.9-2-2.6v-2.7s1.7-5.2,1.7-5.2l5,2.8h1.6c0-.1.9.8.9.8l3.1-.4.9.4,1-.4,1.4.2,2.3,1.3.9-.2,1.5-1.6,2.1.2.6.5.9-.5,2.2-.3,1.8-1.6,1.9-.2.4,1.6h.8c0-.1,3.1.9,3.1.9l2.1,2.2,2.7.5,1.2,2.4-.8.9,1,.6-.2.8.4.8,2.7.9.4.7,1.5-.3,2.2.6,2.6-1.9,1.4.3.6-.5,2.9.7.9-2-.7-.7.6-.9,4.1-1.1,3.7-1.7v.9c-.1,0,1.7,1.4,1.7,1.4l2.4-.2,1.4,1.2,2.4-.4,2,.7,1.7-.2,3.3,2h1.3c0,.1,2.3,1.3,2.3,1.3l3,.2,1,1.9,1.3.6.4,1.6,1.2.6h2s2.5,1.2,2.5,1.2l3.6-3.4,1.8-.5,1.4.4,1.8-.9.5-1.7,1.9.4.9-.5,1,.2,4.3-1.5,1.1.2,2.1-1,1.7.7,3.1-4.4,4-3.4-.2-3.1,4.5-5.3,5.9-8.2,14.9-11.7,4.1-4.8.6-.9.9-6.2,12.7-18.9,11.9-5.6Z"/>
    <path id="ZW-MS" d="M261.1,284.9l1.2.3,1,1.1,1.9,4.9,1.4,2.2,2.8,2.5,1.1,2.9,3.3,2.7.2,1.6-.8,2-.3,5.1.7,1.7.9.2,1.8-2.1h1.7c0,0,4.5,2.4,4.5,2.4l1.8,2.7,1,.6,4.7-2,1,4.5h1c0,0,5.1-1.6,5.1-1.6l.7.4-.2,2.5.4.9h3.7c0,0,.8.9.8.9v2.8c0,0-3,5.2-3,5.2l-2.2,4.8v1.9c0,0-3,9-3,9l-.9,5.7-1.2,3.1-1.1,1.6-5.1,3.1.7,1.2-2.4,1.4v1.7c0,0,.7,1.6.7,1.6l.8.7h1.9s2.9-.7,2.9-.7l-2.2,8-1.4,8.6-6.2,4.6-4.2,3.7.4.8,3.4.8,4.4.2,3.1-.9h5.7c0,0,1.6,3.9,1.6,3.9l4.5,3.8.8,3.3,2.4,1v2.4c0,0,1.9,1.3,1.9,1.3l.4,2.6,1.1,1,.6,2.5.5.6,2.9,1.3,3.3,4.8,3.1,2.5.5,1.2h3.1c0-.1,3.6,3,3.6,3h1.9c0,.1.4.8.4.8l-.5,2.1.7.5,6.7.4,4.3,1.7,2.7,1.7,2.5.5.5.6-.5,2.3,1.6.8,1,1.3,1.1-.9,2.7,1.9,2.1-1,.9.2-1,2,1.7,1.1.6,2.7,2.1,1.1.8,1.9.8.2.6,1.3,2.1,1.7-.8,1.4.2.8,2.7,1.2-.2,1.5,3.3,2.5.2,1.2,1,.7.7,2.6,2.9-.5v2.1s.8.5.8.5l.7,2.9,2,.6.2.4-.8,1,1.5.2.5,2,1.6.7-1,1.4.5.8,4.4,2.9,1.2,2.5-1.8.6-1.2-.2h0l-4.3-1.8-.6.7h-.8s-.6-.8-.6-.8h-1.4s-1.1-.9-1.1-.9l-1.9-.3-1.1.6-3-.9-8.1,1.7-2.9-.4-2,1.7-2.4-1.1h-1.8c0,.1-.9.8-.9.8l-4.1-1.1-6.9,2.4-4.2-.2-1.7.6-1.1-.6-1-1.8-1.7-1.7-4.7.3-2,.8-4.4-3.7-2.1-.2-.5-1.7-3.1-.3-2.8-2.4-2.6.3-1.6-1.3h-1.8s-1.7-.7-1.7-.7l-2-1.7-6.5-.2-1-.9-1.8.7-1.1,1.4-1.9-1-2.6.8-.7,1.7-4.1-.8-2.8.6-2.2,1.2-1.6.3-1.7-2.5-3-2.6-1.4-3.2-1-1-4,1.3-2.5-.2-2.6-1-3.3-2.7-1.6-2.9-.5-3.3,1.1-4.8,2.4-2.9-1.6-1.5-2.2-.6-1.1-.9h-3.7s-4.6-1.2-4.6-1.2l-2-1.4-2.8-.2-1.6-1.4-6-2.3-1.3-1.8-3.4-.7-1.4-1h-.9c0,0-.5.9-.5.9h-.9s-1.2,1-1.2,1l-1.9.6-3-1.7-2.9-.6-2.4-1.9-.7.5-1.7-.7-3.3-.4-4.9.9-5.8-1.7-5.5-.5-2-3.1.4-.6-.2-.4-1.2.3-.6-.7,1.2-1.6-1.6-.7v-.7c0,0,.9-.9.9-.9l-1.3-1.8.3-1.1-2.6-3.5-.2-2.9-3-3.4-.8-1.8-2.5-3v-1.2c-.1,0-1.5-.3-1.5-.3l-1.3-1.3-1.4-.4-1.7-2.3-1.1-.8-1.2-2.8,1.1-1.7-.8-2,1-.9-.3-.7.7-1.4-1.5-1.8.8-2-.8-2.2,1.5-2.1.6-3.2.6-.5-.3-.9.4-1.6-.5-2.1.4-1-1.6-3.3v-4.2c0,0,1-1.4,1-1.4l.5-2.6-.5-1.7-2.4-2-2.4.8-1.4-1.2-3.3.8-6.1-1.5-2.9.9h-2.7c0-.1-1.8-.9-1.8-.9l-4,1.9-.7-.2.7-5.3v-8.1c0,0-1-5-1-5l-1.2-1-1.2-4.6-.6-.3-1.1-2.5-1.5-1.2-3.9.3-1.3-.3-1.5-3-1.9-1.2-5.7-.2-3.7-1.6h-1.3c0,.1-2.5-.7-2.5-.7l-2.7-.2-.4-.4.3-.7-.9-1.2-2.3-.6-2.6.3-1.3-3.2h0l2.4-.8,2.4-2.1,9.9-3,3.3-.3,2,.7,3-.7,3.9-.2,2.2-.6,7.5,1.3,3.7-1.4,4.6.3,4.8,3.4,3.6.4,2.9,3.8.9,3.7,2.9,3.1,1.1.5,1.6,2.1,2.7,1.6,3.9,4.6,2.1,1,1.5,1.5,3.7.8,1.7-3.5,1.4-5.1,3.3,4,2.5-1.2h4.5c0-.1,1.6-.7,1.6-.7l3.8,2.1,1,1.2,1.2,3.2,1.4,1,3.9,4.6h1.1s2.1,5,2.1,5l2-3.2,2.4.2.7-.4,2.2-3.5,2-.2h0l2.6,1.6.8-2.6,3.3.3.6.7h0l3.6,4.4,3.5-2.4-.6-.8,2.4-2.5,1.9-4.9,5.1-4.6-2.8-2.1,5.1-.4,6-6.5-2.3-8.3,5.8,2.1,3.3-2.6-.6-.9,1.1-3.1v-3.6s-2.8-2.4-2.8-2.4l-.3-.8,3.5-2.6,1.2-3.4-.7-1.6-1.7-1.6v-1.1c0,0,1.6-.8,1.6-.8l3.1.7,1.3,1.1h.9c0,.1,1-.5,1-.5l.8-2.1Z"/>
    <path id="ZW-MV" d="M365.9,270.8l.9-1,1.7-.8-.9-3.1v-.3c0,0,1,0,1,0l.3-3.2,5.3,1.1-.2,5.5.5.9,6.2-.9,7.5-.5h0l10.1,6.4,2.2,2.4,3.4.2,2.9.8,3.1,2.7,1.4,2.1,1.7-.2,4.2,1.1,1.2,3.6,1.1.4,1.6,1.5,1.3,2.3,4.1,2.3,1.4,3.3,2.5,2.7,1.5.9,1.7,3.6,2.6,2.2.8,2,1.7,2,1.1.6h2.7s2.4,2.1,2.4,2.1l1.5.6h4.4c0,0,2.7,2.5,2.7,2.5l3.1,1.8,3.3,1.1.5,2.2v6.7c-.1,0-1.1,4.5-1.1,4.5l-.5,6-1.2,5-.9,8.5v5.5c.1,0-1.1,3.1-1.1,3.1l-.5,4.4-1.9,1.8-1,5.7-4.4,8.7-.3,1.8.9,2.6v1.7c0,0,2.3,1.9,2.3,1.9v2.7c0,0,3.2,1.3,3.2,1.3l1.3,1.2,1.3,4,.2,1.9,1.5,3.3,2.8,1.2,4.2,4.3h0l-1.4,1-65.2,71.6-4.8,3.3-1.3-1.1-1.2-2.5-1.2-.3-2.3.4-2.5-2.6-1.2-.2-4.2,1.4-1.5-.5h0l1.2.2,1.8-.6-1.2-2.5-4.4-2.9-.5-.8,1-1.4-1.6-.7-.5-2-1.5-.2.8-1-.2-.4-2-.6-.7-2.9-.8-.5v-2.1s-2.8.5-2.8.5l-.7-2.6-1-.7-.2-1.2-3.3-2.5.2-1.5-2.7-1.2-.2-.8.8-1.4-2.1-1.7-.6-1.3-.8-.2-.8-1.9-2.1-1.1-.6-2.7-1.7-1.1,1-2-.9-.2-2.1,1-2.7-1.9-1.1.9-1-1.3-1.6-.8.5-2.3-.5-.6-2.5-.5-2.7-1.7-4.3-1.7-6.7-.4-.7-.5.5-2.1-.4-.7h-1.9c0-.1-3.6-3.2-3.6-3.2h-3.1c0,.1-.5-1.1-.5-1.1l-3.1-2.5-3.3-4.8-2.9-1.3-.5-.6-.6-2.5-1.1-1-.4-2.6-1.8-1.3v-2.4c0,0-2.5-1-2.5-1l-.8-3.3-4.5-3.8-1.6-3.9h0l1.3.7,2.9-.2,7.5-6.8,3-1.3h1.2s2.7,2.4,2.7,2.4l2.3,1.1,2.3,2.7,2.8.6,1,1,2.3.6,1.3-.2,1.6.4,2.6-.8,5.1,1,2.9-2.1,2.9-3.9.5-9.2,1.8-7,.3-.6,1.4-.6v-.8c.1,0-2.7-1.7-2.7-1.7l-1.3-3.6v-4.4s-2-2.5-2-2.5l-1-2.3-3.2-3.9h-1.4c0,0-1.4-3.4-1.4-3.4l-3.8-1.4-.8-.9v-1.1c0,0,2.5-5.7,2.5-5.7l-1.2-1.4-3.6-2.2h-1s-2.1,1.8-2.1,1.8l.5-2.2v-2.8s1-2.1,1-2.1v-1.7c.1,0-.2-1.1-.2-1.1l-2-2.2h4.2c0-.1,4.3-1.9,4.3-1.9l10-.4.4-.5-1-1.1v-1.5c.1,0,2-1.2,2-1.2l.5-1.3-.9-1.9.5-2.3,3.8-.5,6.7,1.6,4.3-.2-.6-3.4,1.8-10.2-.8-4.5,1.5-5.8-.2-3.8,2.6-.7.7-1.1-1.1-1.2-3.5-.6,10.7-8.5Z"/>
    <path id="ZW-MW" d="M304.3,27.5h2.1c0,0,2.1,1.3,2.1,1.3l10.1-1.5h2.7s3.2,2.8,3.2,2.8l2.8-2.4,1.3,1.1h0l.2,3.9,1.9,1.4.6,1v1.2c0,0-.4.8-.4.8l-2.2,1.7-.9,1.3-2.9,1.7-.8,1.3-4.6,3.7-6.1,3.9v1.7s.6,1.3.6,1.3l1.8,1.5.2,3.4.8,2,1.1,2.1,1.5.3.2.5-.4,1.2-2.8,2.7v4.9c0,0-2.1,2.8-2.1,2.8l-.5,2.8,1.7.8,1.9-1.5,2-.4,1-.8,2.4-.3.8-1.2.8-3.5,1.7-1.2,2.9.7.9.9.6,2.4,1.7,1,4-.3,1.6.8.5,3.4-1.3,3-.2,4-1.9,4.1-.4,2.1,2.4,3.3,6.8,2.5.5,3.4-.8,1.9,1.9.6.6,1-.5,1.3h-1.8c0,0-.4,1.2-.4,1.2l1.1,5.6-.3,2.1,1.3,2.8.2,4.2.4.5h2.7s1.2.9,1.2.9l2.8-1.9,1,1.5,1.2-.3,2.7.8-1.1,5.9-2.9,5-3.4,9.1.7,4-.7,1.7-.4,7,11.3-.2-.9,4.7,4.5,1.7,4.6,2.8,1.5-1.7h1.7s.8.9.8.9l.5,2.5h0l-.5,2.1-1.7,1.4-.7,1.4-2,.5-.3,2,1.2,1.3-1.2,2,2.1,1.2,1,1.5-.5.7-2.4.8h0l-2.8-1.4-2.7.3-.5,1.1v2.5s-2,1.9-2,1.9l1.1,4-2.1,3-.6,2.1.5,1.2v.9c-.1,0-3.8,3.3-3.8,3.3v1.6c0,0,.6,2.5.6,2.5l5.1,6.4v.7c-.1,0-1.5,1.4-1.5,1.4l-.7,10.3-2.9,3.4-.2,1-1.4,1.6-2.2,4-.6-1.1-1,.7-1.4-.9.3,4.9-.3,1.2-2.7,2.2-.3,2.2-1.6-.2-1.8,2.4h0l-2.5-.4-2.2-1.4-3.8-1.6-3.3-3-2.7.4-1.5-1.4-1.9-.5-.8-2.3-1.3-.6-3-.9-3.6.2-2.1-1.3-1.6.6-1.3-.9-3.1-.3-2.7.8-1.9-.2-2.5-1.6-1.2.2-.9-.4-2.4-2.8-2,.8-1.4-2.2-5.2.2-1-.5-1.5-2h-2.5c0,.1-.9-.5-.9-.5l-.5-1.8.7-2.6-.3-3.3,1.1-1.6.6-4.1-2.1-1.9-2.1-.7-5.9-3.9-2.6-.6-2-3.2-4-1.9-2.7-5.4-1-1.1-1.5-4.7.8-4.2,2.9-4.8.2-1.9,1.5-1.8.3-1.9,1.9-2.2v-.5c0,0-1.3-1-1.3-1v-1.2c0,0,2.1-2,2.1-2l.4-5.2-1.4-1.9v-.7s1.4-1.3,1.4-1.3l1.7-2.8,1.4-1.1.8-1.9-2.9-1.3-2.5-3.2-2.8-1.7-.5-3.3-1.4-.9-.2-1-4-.2-4.5-1.8-1.9-.3-.8-1.3-5.4-2.4-1.1-1.3-1.8-4-.4-.5h-.9c0,0-2.3,1.3-2.3,1.3l-5.6.2-2.7,1.1-2.7,2.6h-2c0,0-2.5,4.2-2.5,4.2l-.6,2.5-1.3.4-2.1,2.9-1.2.8-1.1,2.8h-.5c0,0-4.5-3-4.5-3l-3.8.9-3.3.2-2.1,1.3-2-.5-2.1.3h0l-2.1-3.4-1.7-.5-.7-1.5-1.2-1v-2s-1.3-3.3-1.3-3.3l.3-1.4-1.1-1.6v-2.7c0,0-2.6-.2-2.6-.2l-1-2.6-2.2.8h-.8c0-.1,1.5-1.7,1.5-1.7l-.3-1.5h.6c0,0-.8-2.4-.8-2.4l-1.1-1.2-.4-1.3.7-2.5-.2-3.3-.9-1.2h0l7.7-3.6,8.6-7.1,23.8-9.7,6-1.1.8-1.1,3.5-2.3,1.1-1.6v-2.5s1.2-1.9,1.2-1.9l.6-2.4-.6-1.2.2-1.5-1.4-1.1.5-2,1.9-2.6v-.5c0,0-1.2-.5-1.2-.5l-.3-1,.4-3.9,1.4-2.7-1-1.9.7-1.6-.9-.9,2.6-3.8,1.7-3.5,1.5-.5,5.1.2.7-.3,2.5-3.8,8.4-5.9,1.1-1.3,3.4-.8,6.1-3.2h2.4c0,.1,2.2-1.4,2.2-1.4l4.2-.2,2.8-2.6,2.1-.3,2.1,1.3h1.2s5.5-1.3,5.5-1.3l5.2-2.1h5.2c0,.1,1.6.8,1.6.8Z"/>
  </g>
</svg>