<svg xmlns="http://www.w3.org/2000/svg" xml:space="preserve" viewBox="0 0 512 512"><g><path id="AO" d="m253.3 302.2 1.5 4.6 1.8 3.7 1.4 2 2.4 3.3 4.1-.5 2.1-.9 3.4.9.9-1.6 1.6-3.6 3.9-.2.3-1.1h3.2l-.5 2.2h7.6l.1 3.9 1.3 2.4-.9 3.8.5 3.9 2.1 2.3-.3 7.5 1.5-.6 2.7.2 3.9-.9 2.8.4.7 2-.7 3.1 1.1 3-.9 2.4.5 2.2-13-.1-.3 20.4 4.2 5.3 4.1 4-11.5 2.6-15.1-.9-4.3-3.1-25.3.3-.9.5-3.7-2.9-4-.2-3.7 1.1-3 1.2-.6-4.1.9-5.7 2.2-5.9.3-2.8 2-5.8 1.5-2.6 3.6-4.2 2-2.8.6-4.7-.3-3.6-1.9-2.2-1.7-3.8-1.5-3.8.3-1.3 1.9-2.5-1.9-6.1-1.3-4.2-3.1-3.9.6-1.2 2.6-.8 1.8.1 2.2-.8zm-24.2-1.2-1.6.7-1.7-4.7 2.5-2.7 1.9-1 2.3 2.1-2.3 1.3-1 1.6z"/><path id="BF" d="m133.9 205.7-4.3-1.6-2.9.2-2.2 1.6-2.8-1.3-1.1-2.1-2.8-1.4-.4-3.6 1.7-2.7-.2-2.1 5-5.2.9-4.4 1.7-1.6 3 .8 2.6-1.3.8-1.6 4.8-2.8 1.2-2 5.8-2.7 3.4-.9 1.6 1.2h4l-.5 3.1.8 2.9 3.5 4.2.2 3.1 7.2 1.4-.2 4.3-1.4 1.9-3 .6-1.3 2.8-2.1.7-5.5-.1-2.9-.5-2 1-2.8-.5-10.8.3.1 3.6z"/><path id="BI" d="m334.5 293.6-.4-7.5-1.6-2.8 3.8.5 1.9-3.5 3.3.4.4 2.4 1.3 1.4.1 2-1.5 1.3-2.4 3.2-2.2 2.2z"/><path id="BJ" d="m168.3 226.9-5.2.7-1.5-4.3.3-14.4-1.3-1.3-.2-3.1-2.2-2.2-1.9-1.8.8-3.3 2.1-.7 1.3-2.8 3-.6 1.4-1.9 2.1-1.8h2.2l4.8 3.6-.2 2.1 1.4 3.7-1.2 2.5.6 1.7-3 3.9-1.9 1.9-1.2 3.9.2 4z"/><path id="BW" d="m311.5 382.7 1.2 1.2 2 3.8 7.1 7.2 2.7.7v2.3l1.8 4.2 4.8 1 4 3-8.8 4.9-5.6 5-2.1 4.5-1.9 2.6-3.4.6-1.1 3.3-.6 2.1-4 1.6-5.1-.3-3-1.9-2.6-.8-3 1.6-1.5 3.3-3 2.1-3.1 3.1-4.5.7-1.4-2.4.6-4.2-3.7-6.5-1.7-1v-19.7l6.1-.2.2-23.5 4.6-.2 9.6-2.3 2.4 2.7 4-2.6h1.9l3.5-1.5 1.1.5z"/><path id="CD" d="m343.8 244-.4 7.3 2.5.8-2 2.2-2.4 1.6-2.4 3.2-1.3 2.9-.4 5-1.4 2.4v4.7l-1.8 1.7-.2 3.7-.9.5-.6 3.4 1.6 2.8.4 7.5 1.1 5.7-.6 3.2 1.2 3.6 3.6 3.5 3.4 7.9-2.4-.6-8.4 1.1-1.7.7-1.8 4 1.4 2.8-1.1 7.5-.8 6.3 1.7 1.1 4.4 2.4 1.7-1.1.5 6.9-4.8-.1-2.6-3.5-2.3-2.7-4.8-.9-1.4-3.3-3.8 2-5-.9-2.1-2.9-4-.6-2.9.2-.4-2-2.2-.2-2.8-.4-3.8.9-2.7-.2-1.6.6.3-7.5-2.1-2.3-.5-3.8.9-3.8-1.2-2.4.1-3.9h-7.6l.6-2.2h-3.2l-.3 1.1-3.9.2-1.6 3.6-.9 1.6-3.4-.9-2 .9-4.1.5-2.4-3.3-1.4-2-1.8-3.7-1.5-4.6-18.4-.1-2.2.7-1.8-.1-2.6.8-.9-1.9 1.6-.7.2-2.7 1-1.6 2.3-1.3 1.6.6 2.1-2.4 3.4.1.4 1.8 2.3 1.1 3.7-3.9 3.6-3 1.6-2-.2-5.1 2.7-6 2.8-3.2 4.1-3 .7-2 .2-2.3 1-2.2-.3-3.5.8-5.5 1.2-3.9 1.9-3.3.4-3.7.6-4.3 2.4-3.2 3.3-2 5.1 2.1 4 2.3 4.6.6 4.6 1.2 1.9-3.7.9-.5 2.8.6 7-3.1 2.4 1.3 2-.2.9-1.5 2.3-.5 4.7.6 4 .1 2.1-.6 3.8 5.1 2.8.7 1.7-1 2.9.4 3.5-1.3 1.5 2.6z"/><path id="CF" d="m246.8 219.6 5.2-.5 1.2-1.6 1 .1 1.6 1.4 7.9-2.4 2.6-2.4 3.3-2.2-.6-2.2 1.8-.6 6 .4 5.9-2.9 4.5-6.9 3.2-2.5 3.9-1.1.7 2.7 3.6 3.9v2.6l-1 2.6.4 1.9 2.2 1.8 4.8 2.8 3.4 2.5.1 2 4.2 3.2 2.6 2.7 1.6 3.7 4.7 2.5 1 2-2.1.6-4-.1-4.7-.6-2.3.5-.9 1.5-2 .2-2.4-1.3-7 3.1-2.8-.6-.9.5-1.9 3.7-4.6-1.2-4.6-.6-4-2.3-5.1-2.1-3.3 2-2.4 3.2-.6 4.3-4-.4-4.2-1-3.7 3.3-3.3 5.8-.7-1.8-.3-2.8-2.8-2-2.3-3.2-.5-2.2-2.9-3.2.5-1.8-.6-2.6.5-4.8 1.5-1.1z"/><path id="CG" d="m232.6 295.4-2.3-2.1-1.9 1-2.5 2.7-5.1-6.6 4.7-3.4-2.3-4.1 2.1-1.6 4.2-.8.5-2.8 3.3 3 5.5.3 1.9-2.9.8-4.1-.7-4.8-2.9-3.6 2.7-7.2-1.6-1.2-4.6.5-1.8-3.2.5-2.7 7.9.2 5 1.6 5 1.5.4-3.3 3.3-5.8 3.7-3.3 4.2 1 4 .4-.4 3.7-1.9 3.3-1.2 3.9-.8 5.5.3 3.5-1 2.2-.2 2.3-.7 2-4.1 3-2.8 3.2-2.7 6 .2 5.1-1.6 2-3.6 3-3.7 3.9-2.3-1.1-.4-1.8-3.4-.1-2.1 2.4z"/><path id="CI" d="m133.7 234.8-2.8.1-4.4-1.2-4 .1-7.4 1.1-4.3 1.8-6.2 2.3-1.2-.2.5-5.1.6-.8-.2-2.5-2.6-2.6-2-.4-1.8-1.7 1.4-2.8-.6-3 .3-1.8h1l.4-2.7-.5-1.2.6-.9 2.3-.8-1.5-5-1.4-2.6.5-2.2 1.2-.5.8-.6 1.7.9 4.8.1 1.2-1.8 1.1.1 1.8-.7 1 2.7 1.4-.8 2.6-.9 2.8 1.4 1.1 2.1 2.8 1.3 2.2-1.6 2.9-.2 4.3 1.6 1.6 8.9-2.6 5.2-1.6 7.1 2.7 5.4z"/><path id="CM" d="m233.1 251.7-.8-.3-3.7.8-3.8-.8-3 .4-10.1-.2.9-4.9-2.4-4.1-2.8-1.1-1.3-2.8-1.6-.9.1-1.7 1.6-4.4 3-6 1.8-.1 3.7-3.6 2.4-.1 3.5 2.6 4.3-2.1.6-2.6 1.4-2.5 1-3.2 3.3-2.6 1.3-4.4 1.3-1.4.9-3.3 1.6-4 5.2-4.9.3-2.1.7-1.1-2.5-2.5.2-2 1.8-.4 2.5 4.1.4 4.2-.2 4.2 3.4 5.7-3.5-.1-1.8.4-2.8-.6-1.4 3 3.7 3.7 2.7 1.1.9 2.6 2 4.3-1 1.7-3.1 6.3-1.5 1.1-.5 4.8.6 2.6-.5 1.8 2.9 3.2.5 2.2 2.3 3.2 2.8 2 .3 2.8.7 1.8-.4 3.3-5-1.5-5-1.6z"/><path id="DJ" d="m420.2 186.4 1.5 2-.2 2.6-3.6 1.5 2.7 1.7-2.3 3.4-1.4-1.1-1.5.4-3.5-.1-.1-1.9-.5-1.8 2.1-3 2.2-2.8 2.7.6z"/><path id="DZ" d="M226.3 116 205 128.8l-18.1 13-8.8 2.9-6.9.6-.1-4.2-2.9-1.1-3.9-1.9-1.5-3.1-21-14.6-21-14.8-23.5-16.5.1-1.4v-.5l-.1-8.3 10.1-5.2 6.2-1.1 5.1-1.9 2.4-3.6 7.3-2.9.3-5.4 3.6-.6 2.8-2.7 8.2-1.2 1.1-2.8-1.6-1.6-2.2-7.9-.4-4.6-2.4-4.8 6-4.2 6.8-1.3 3.9-3.2 6-2.3 10.6-1.4 10.3-.6 3.1 1.2 5.9-3 6.7-.1 2.5 1.8 4.2-.5-1.3 4 1 7.3-1.5 6.3-3.8 4.2.6 5.6 5.1 4.4.1 1.8 3.8 3 2.7 13 2 6.3.3 3.3-1.1 5.8.4 3.2-.8 3.8.6 4.4-2.5 2.9 3.7 5 .2 2.9 2.2 3.8 2.9-1.2 4.9 3.2z"/><path id="EG" d="m369.3 74.2-1.8 2.9-1.3 5.3-1.7 3.6-1.5 1.2-2-2.2-2.8-3.2-4.4-10.2-.6.6 2.6 7.5 3.8 7.1 4.7 10.9 2.3 3.7 2 3.9 5.6 7.6-1.2 1.2.2 4.4 7.3 6 1.1 1.4h-74V76.1l-1.9-5.7 1.6-4.4-1-3.1 2.2-3.5 8.3-.1 6 1.9 6.2 2.2 2.9 1.1 4.8-2.3 2.6-2.1 5.5-.6 4.4.9 1.7 3.6 1.4-2.4 5 1.7 4.9.4 3.1-1.8z"/><path id="ER" d="m415.6 187.4-2.1-2.1-2.6-3.7-2.8-2-1.6-2.2-5.4-2.6-4.3-.1-1.5-1.4-3.6 1.5-3.8-2.9-2 4.8-7.3-1.3-.7-2.6 2.7-9.5.6-4.3 2-2 4.6-1.1 3.2-3.7 3.6 7.5 1.7 5.9 3.4 3.1 8.5 6.1 3.5 3.6 3.4 3.7 2 2.2 3.1 1.9-1.9 1.6z"/><path id="ET" d="m387.9 172 3.8 2.9 3.6-1.5 1.5 1.4 4.3.1 5.4 2.6 1.6 2.2 2.8 2 2.6 3.7 2.1 2.1-2.2 2.8-2.1 3 .5 1.8.1 1.9 3.5.1 1.5-.4 1.4 1.1-1.4 2.2 2.3 3.5 2.3 3 2.4 2.2 20.4 7.4h5.2l-17.6 18.7-8.1.3-5.6 4.4-4 .1-1.7 2h-4.3l-2.5-2.1-5.7 2.6-1.8 2.6-4.2-.5-1.4-.7-1.5.2h-2l-7.9-5.3H377l-2.1-2v-3.5l-3.2-1-3.7-6.8-2.8-1.4-1.1-2.5-3.2-3-3.8-.4 2.1-3.6 3.3-.2.9-1.9-.1-5.6 1.8-6.6 2.9-1.8.6-2.6 2.7-4.8 3.8-3.2 2.5-6.3 1-5.5 7.3 1.3z"/><path id="GA" d="m220.7 290.4-6.4-6.3-4.1-5.1-3.8-6.4.2-2 1.4-2 1.5-4.5 1.3-4.6 2.1-.4 9.1.1v-7.5l3-.4 3.8.8 3.7-.8.8.3-.5 2.7 1.8 3.2 4.6-.5 1.6 1.2-2.7 7.2 2.9 3.6.7 4.8-.8 4.1-1.9 2.9-5.5-.3-3.3-3-.5 2.8-4.2.8-2.1 1.6 2.3 4.1z"/><path id="GH" d="m158.1 228.9-9.8 3.6-3.5 2.1-5.6 1.8-5.6-1.8.3-2.5-2.7-5.4 1.6-7.1 2.6-5.2-1.6-8.9-.8-4.5.2-3.6 10.8-.3 2.8.5 2-1 2.9.5-.5 2 2.6 3.2v4.6l.6 4.9 1.6 2.3-1.4 5.6.5 3.1 1.7 4z"/><path id="GM" d="m46.5 183.5.8-2.8 6.8-.2 1.4-1.5 2-.1 2.4 1.6h1.9l2.1-1.1 1.2 1.8-2.7 1.4-2.7-.1-2.7-1.4-2.3 1.5-1.1.1-1.5.9z"/><path id="GN" d="m98.9 218-1.8-.2-1.3 2.5H94l-1.2-1.3.4-2.5-2.6-3.8-1.6.7-1.3.2-1.7.4.1-2.3-1-1.6.2-1.8-1.4-2.6-1.7-2.2h-5l-1.4 1.2-1.7.1-1.1 1.4-.7 1.8-3.3 2.8-2.7-3.7-2.4-2.5-1.6-.8-1.6-1.3-.7-2.8-1-1.7-1.8-1 2.8-3.1 1.9.1 1.6-1.1h1.4l1-.8-.5-2.1.7-.7.1-2.2 3 .1 4.5 1.6 1.4-.2.5-.7 3.4.5.9-.4.4 2.3h1l1.6-.8 1 .2 1.7 1.6 2.7.5 1.7-1.4 2-.8 1.5-.9 1.2.2 1.4 1.4.8 1.8 2.6 2.6-1.3 1.6-.2 2 1.3-.6.8.8-.3 1.9 1.9 1.8-1.2.5-.5 2.2 1.4 2.6 1.5 5-2.3.8-.6.9.5 1.2-.4 2.7h-1.2z"/><path id="GQ" d="m210.7 259.5-1.2-.9 2.2-7 10.1.2v7.5l-9.1-.1z"/><path id="GW" d="m57.1 196.9-3.3-2.6-2.6-.4-1.4-1.8v-1l-1.9-1.3-.4-1.4 3.3-1 2.1.2 1.7-.7 11.5.3-.1 2.2-.7.7.5 2.1-1 .8h-1.4l-1.6 1.1-1.9-.1z"/><path id="KE" d="m407.2 271.1 3.7 5.1-4.4 2.5-1.5 2.6-2.4.4-.9 4.4-2 2.5-1.2 4.1-2.5 2-8.9-6.2-.4-3.6-22.7-12.6-1.1-.7V265l1.8-2.5 3.1-4.1 2.3-4.5-2.7-7.1-.7-3.1-3-4.3 3.8-3.7 4.2-4.1 3.2 1v3.5l2.1 2h4.3l7.9 5.3h2l1.5-.2 1.4.7 4.2.5 1.8-2.6 5.7-2.6 2.5 2.1h4.3l-5.4 7.1z"/><path id="LR" d="M103.4 238.7h-1.6l-6.4-3-5.7-4.7-5.3-3.4-4.2-4 1.5-2 .3-1.8 2.8-3.4 2.9-2.9 1.3-.2 1.6-.7 2.6 3.8-.4 2.5 1.2 1.3h1.8l1.3-2.5 1.8.2-.3 1.8.6 3-1.4 2.8 1.8 1.7 2 .4 2.6 2.6.2 2.5-.6.8z"/><path id="LS" d="m332.2 453.4 2.2 2.1-1.9 3.5-1.1 2.3-3.5 1.1-1.2 2.3-2.2.7-4.7-5.5 3.3-4.5 3.4-2.8 2.9-1.4z"/><path id="LY" d="m244.1 120.1-4.4 2.5-3.5-3.7-9.9-2.9-2.7-4.2-4.9-3.2-2.9 1.2-2.2-3.8-.2-2.9-3.7-5 2.5-2.9-.6-4.4.8-3.8-.4-3.2 1.1-5.8-.3-3.3-2-6.3 3-1.7.5-3.1-.7-3 4.3-2.8 1.9-2.3 3-2.1.4-5.7 7.3 2.6 2.6-.6 5.2 1.2 8.3 3.3 2.9 6.5 5.6 1.4 8.8 3 6.7 3.6 3-1.9 3-3.3-1.4-5.6 2-3.6 4.5-3.4 4.3-1 8.4 1.5 2.1 3.3h2.3l2 1.2 6.2.9 1.5 2.4-2.2 3.5 1 3.1-1.6 4.4 1.9 5.7v63.2h-7.2l-.1 2.8-24.9-12.7-24.9-12.8z"/><path id="MA" d="m142.8 49.8-2.2-7.9-.4-4.6-2.4-4.8-2.7-.1-6.5-1.7-5.9.5-3.8-3.2h-4.6l-2 4.7-4.2 7.8-4.6 3.1-6 3.4-4 5-.8 3.9-2.4 6.3 1.6 9-5.2 6-3.2 1.8-4.9 4.8-5.8.8-3.1 2.7-.1.1-4 7.1-4.1 2.5-2.3 4.2-.1 3.7-1.7 4-2.1 1.1-3.5 4.3-2.1 4.8.4 2.3-2 3.5-2.4 1.8-.3 3.1-.3 2.8 1.4-2.2h24.4l-1.2-9.7 1.5-3.4 5.8-.6-.2-17.5 20.5.4V89.1l.1-1.4v-.5l-.1-8.3 10.1-5.2 6.2-1.1 5.1-1.9 2.4-3.6 7.3-2.9.3-5.4 3.6-.6 2.8-2.7 8.2-1.2 1.1-2.8z"/><path id="MG" d="m460.5 343.6 1.6 2.7 1.5 4.2 1 7.7 1.6 3-.6 3.1-1.1 1.9-2.1-3.8-1.2 1.9 1.2 4.8-.6 2.8-1.7 1.5-.4 5.5-2.4 7.6-3.1 9.1-3.9 12.6-2.4 9.4-2.8 7.9-5.1 1.6-5.4 2.9-3.6-1.8-5-2.4-1.7-3.6-.4-6-2.2-5.4-.6-4.8 1.1-4.8 2.9-1.2v-2.2l3-5 .6-4.2-1.4-3.1-1.2-4.1-.5-6 2.2-3.6.8-4.1 3.1-.2 3.5-1.3 2.3-1.2 2.8-.1 3.5-3.7 5.1-4 1.9-3.2-.8-2.7 2.6.8 3.4-4.4.1-3.8 2.1-2.8z"/><path id="ML" d="m75.6 174.2 2.1-1.2 1-3.8 2-.2 4.4 1.8 3.5-1.3 2.4.5 1-1.4 25-.1 1.4-4.5-1.1-.8-3-28.2-3-29.1 9.5-.1 21 14.8 21 14.6 1.5 3.1 3.9 1.9 2.9 1.1.1 4.2 6.9-.6v15l-3.4 4.3-.5 4-5.5 1-8.5.6-2.3 2.3-4 .2h-4l-1.6-1.2-3.4.9-5.8 2.7-1.2 2-4.8 2.8-.8 1.6-2.6 1.3-3-.8-1.7 1.6-.9 4.4-5 5.2.2 2.1-1.7 2.7.4 3.6-2.6.9-1.4.8-1-2.7-1.8.7-1.1-.1-1.2 1.8-4.8-.1-1.7-.9-.8.6-1.9-1.8.3-1.9-.8-.8-1.3.6.2-2 1.3-1.6-2.6-2.6-.8-1.8-1.4-1.4-1.2-.2-1.5.9-2 .8-1.7 1.4-2.7-.5-1.7-1.6-1-.2-1.6.8h-1l-.4-2.3.3-2-.5-2.4-2.3-1.8-1.2-3.6z"/><path id="MR" d="m75.6 174.2-4.1-4.4-3.8-4.7-4.1-1.7-3-1.9-3.5.1-3 1.4-3.1-.6-2.1 2.1-.5-3.5 1.7-3.2.8-6.1-.7-6.5-.8-3.3.6-3.3-1.6-3.2-3.3-2.8 1.4-2.2h24.4l-1.2-9.7 1.5-3.4 5.8-.6-.2-17.5 20.5.4V89.1l23.5 16.7-9.5.1 3 29.1 3 28.2 1.1.8-1.4 4.5-25 .1-1 1.4-2.4-.4-3.5 1.3-4.4-1.8-2 .2-1 3.8z"/><path id="MW" d="m367 337.6-1.7 4.8 1.7 8.3 2.2-.1 2.2 2 2.6 4.6.5 8.3-2.7 1.4-1.9 4.5-4.1-4-.4-4.5 1.3-3-.4-2.6-2.4-1.6-1.7.6-3.6-3.1-3.3-1.6 1.9-5.9 2-2.2-1.2-5.2 1.2-5.1 1.1-1.7-1.6-5.3-2.9-2.8 6.1 1.2 1.3 1.7 2.1 2.9z"/><path id="MZ" d="m367 337.6 4.7-.5 7.5 1.8 1.6-.8 4.3-.2 2.2-1.9 3.7.1 6.8-2.4 5-3.6 1 2.8-.3 6.3.8 5.6.2 10 1.1 3.1-1.8 4.6-2.4 4.5-4 4-5.7 2.5-7 3.1-7.1 7-2.4 1.2-4.4 4.6-2.6 1.5-.5 4.7 3 5 1.2 3.9.1 2 1.1-.3-.2 6.6-1 3.1 1.5 1.2-.9 2.8-2.6 2.4-5.1 2.3-7.5 3.7-2.7 2.6.5 2.9 1.6.5-.5 3.6h-4.7l-.5-3.1-.9-3.1-.5-2.5 1.1-7.6-1.6-4.8-3-9.5 6.6-7.6 1.6-4.8 1-.6.7-3.9-1-2 .3-4.9 1.2-4.5v-8.2l-3.2-2.1-3-.5-1.3-1.6-2.9-1.4-5.2.1-.4-2.4-.6-4.6 18.9-5.3 3.6 3.1 1.7-.6 2.4 1.6.4 2.6-1.3 3 .4 4.5 4.1 4 1.9-4.5 2.7-1.4-.5-8.3-2.6-4.6-2.2-2-2.2.1-1.7-8.3z"/><path id="NA" d="m253.4 450.7-4.6-5.3-2.4-5.1-1.4-6.7-1.5-5-2.1-10.5-.1-8.1-.8-3.6-2.4-2.8-3.2-5.5-3.3-7.9-1.4-4.1-5.1-6.4-.4-5 3-1.2 3.7-1.1 4 .2 3.7 2.9.9-.5 25.3-.3 4.3 3.1 15.1.9 11.5-2.6 5.1-1.5 4 .4 2.4 1.5.1.5-3.5 1.5h-1.9l-4 2.6-2.4-2.7-9.6 2.3-4.6.2-.2 23.5-6.1.2v45.3l-5.6 3.6-3.3.5-3.9-1.3-2.8-.5-1-3-2.5-1.9z"/><path id="NE" d="m164.9 191.2.2-4.3-7.2-1.4-.2-3.1-3.5-4.2-.8-2.9.5-3.1 4-.2 2.3-2.3 8.5-.6 5.5-1 .5-4 3.4-4.3v-15l8.8-2.9 18.1-13 21.4-12.8 9.9 2.9 3.5 3.7 4.4-2.5 1.5 10.4 2.3 1.7.1 2.1 2.6 2.3-1.4 2.8-2.4 13.3-.3 8.4-8 6.1-2.7 8.5 2.6 2.4v4.1l4 .2-.6 3-1.8.4-.2 2-1.2.2-4.2-7-1.5-.3-4.9 3.6-4.8-1.8-3.4-.4-1.8.9-3.7-.2-3.7 2.7-3.2.2-7.5-3.3-3 1.6-3.2-.1-2.3-2.4-6.3-2.4-6.7.8-1.6 1.4-.9 3.7-1.8 2.6-.2 5.3-4.8-3.6H167z"/><path id="NG" d="m204.5 236.1-6.5 2.2-2.4-.3-2.4 1.4-5-.1-3.3-3.9-2-4.5-4.4-4.1-4.7.1h-5.5l.4-10.1-.2-4 1.2-3.9 1.9-1.9 3-3.9-.6-1.7 1.2-2.5-1.4-3.7.2-2.1.4-5.7 1.8-2.6.9-3.7 1.6-1.4 6.7-.8 6.3 2.4 2.3 2.4 3.2.1 3-1.6 7.5 3.3 3.2-.2 3.7-2.7 3.7.2 1.8-.9 3.4.4 4.8 1.8 4.9-3.6 1.5.3 4.2 7 1.2-.2 2.5 2.5-.7 1.1-.3 2.1-5.2 4.9-1.6 4-.9 3.3-1.3 1.4-1.3 4.4-3.3 2.6-1 3.2-1.4 2.5-.6 2.6-4.3 2.1-3.5-2.6-2.4.1-3.7 3.6-1.8.1-3 6z"/><path id="RW" d="m341.2 272.8 2.5 3.5-.4 3.6-1.8.8-3.3-.4-1.9 3.5-3.8-.5.6-3.4.9-.5.2-3.7 1.8-1.7 1.5.6z"/><path id="SD" d="m363.3 206.8-.9-.1.1-3.1-.8-2.2-3.2-2.5-.8-4.6.8-4.7-2.9-.4-.4 1.4-3.8.3 1.5 1.8.5 3.8-3.4 3.5-3.1 4.5-3.2.6-5.2-3.7-2.4 1.3-.6 1.8-3.2 1.2-.2 1.3H326l-.9-1.3-4.5-.2-2.2 1.1-1.7-.6-3.2-3.7-1.1-1.7-4.5.9-1.7 2.9-1.6 5.6-2.1 1.2-1.9.7-.5-.3-2.2-1.8-.4-1.9 1-2.6v-2.6l-3.6-3.9-.7-2.7.1-1.5-2.3-1.8-.1-3.7-1.3-2.4-2.2.4.6-2.3 1.6-2.7-.7-2.6 2-2-1.3-1.5 1.6-4 2.8-4.7 5.4.4-.3-25.8.1-2.8h7.2v-13.3h74l2 6.5-1.4 1.2.9 6.8 2.3 7.8 2.4 1.6 3.4 2.4-3.2 3.7-4.6 1.1-2 2-.6 4.3-2.7 9.5.7 2.6-1 5.5-2.5 6.3-3.8 3.2-2.7 4.8-.6 2.6-2.9 1.8-1.8 6.6z"/><path id="SL" d="m80.2 223.6-1.7-.5-4.5-2.5-3.2-3.3-1.1-2.3-.8-4.6 3.3-2.8.7-1.8 1.1-1.4 1.7-.1 1.4-1.2h5l1.7 2.2 1.4 2.6-.2 1.8 1 1.6-.1 2.3 1.7-.4-2.9 2.9-2.8 3.4-.3 1.8z"/><path id="SN" d="m47.3 180.7-2.6-5-3.1-2.3 2.8-1.2 3-4.5 1.5-3.3 2.1-2.1 3.1.6 3-1.4 3.5-.1 3 1.9 4.1 1.7 3.8 4.7 4.1 4.4.3 4 1.2 3.6 2.3 1.8.5 2.4-.3 2-.9.4-3.4-.5-.5.7-1.4.2-4.5-1.6-3-.1-11.5-.3-1.7.7-2.1-.2-3.3 1-1-4.9 5.7.1 1.5-.9 1.1-.1 2.3-1.5 2.7 1.4 2.7.1L65 181l-1.2-1.8-2.1 1.1h-1.9l-2.4-1.6-2 .1-1.4 1.5z"/><path id="SO" d="m470.4 192.4-.2-1.8h-2.4l-3 2.2-3.3.6-2.9.9-2 .1-3.6.2-2 1.4-3.1.4-5.5 2-6.8.7-5.9 1.6h-3.1l-2.8-2.6-1.2-2.6-2-1.2-2.3 3.4-1.4 2.2 2.3 3.5 2.3 3 2.4 2.2 20.4 7.4h5.2l-17.6 18.7-8.1.3-5.6 4.4-4 .1-1.7 2-5.4 7.1.1 22.6 3.7 5.1 1.4-1.5 1.4-3.2 6.8-7.5 5.8-4.7 9.3-6.1 6.2-5 7.3-8.5 5.3-7 5.4-9.1 3.8-8 3-7 1.8-6.8 1.3-2.3v-3.3z"/><path id="SS" d="m363.3 206.8.1 4.9-.9 1.9-3.3.2-2.1 3.6 3.8.4 3.2 3 1.1 2.5 2.8 1.4 3.7 6.8-4.2 4.1-3.8 3.7-3.8 2.8h-4.4l-5 1.4-4-1.4-2.6 1.7-5.5-4.1-1.5-2.6-3.5 1.3-2.9-.4-1.7 1-2.8-.7-3.8-5.1-1-2-4.7-2.5-1.6-3.7-2.6-2.7-4.2-3.2-.1-2-3.4-2.5-4.2-2.4 1.9-.7 2.1-1.2 1.6-5.6 1.7-2.9 4.5-.9 1.1 1.7 3.2 3.7 1.7.6 2.2-1.1 4.5.2.9 1.3h6.2l.2-1.3 3.2-1.2.6-1.8 2.4-1.3 5.2 3.7 3.2-.6 3.1-4.5 3.4-3.5-.5-3.8-1.5-1.8 3.8-.3.4-1.4 2.9.4-.8 4.7.8 4.6 3.2 2.5.8 2.2-.1 3.1z"/><path id="SZ" d="m351.5 437.8-1.3 3.1-3.6.7-3.7-3.8v-2.4l1.7-2.6.6-2 1.8-.5 3.1 1.3.9 3.1z"/><path id="TD" d="m241.9 185.4.6-3-4-.2v-4.1l-2.6-2.4 2.7-8.5 8-6.1.3-8.4 2.4-13.3 1.4-2.8-2.6-2.3-.1-2.1-2.3-1.7-1.5-10.4 6.3-3.7 24.9 12.8 24.9 12.7.3 25.8-5.4-.4-2.8 4.7-1.6 4 1.3 1.5-2 2 .7 2.6-1.6 2.7-.6 2.3 2.2-.4 1.3 2.4.1 3.7 2.3 1.8-.1 1.5-3.9 1.1-3.2 2.5-4.5 6.9-5.9 2.9-6-.4-1.8.6.6 2.2-3.3 2.2-2.6 2.4-7.9 2.4-1.6-1.4-1-.1-1.2 1.6-5.2.5 1-1.7-2-4.3-.9-2.6-2.7-1.1-3.7-3.7 1.4-3 2.8.6 1.8-.4 3.5.1-3.4-5.7.2-4.2-.4-4.2z"/><path id="TG" d="m163.1 227.6-5 1.3-1.4-2.2-1.7-4-.5-3.1 1.4-5.6-1.6-2.3-.6-4.9v-4.6l-2.6-3.2.5-2 5.5.1-.8 3.3 1.9 1.8 2.2 2.2.2 3.1 1.3 1.3-.3 14.4z"/><path id="TN" d="m210.6 68.4-2.7-13-3.8-3-.1-1.8-5.1-4.4-.6-5.6 3.8-4.2 1.5-6.3-1-7.3 1.3-4 6.8-3.1 4.4.9-.2 3.9 5.3-2.9.4 1.5-3.1 3.8v3.6l2.2 1.9-.8 6.6-4.1 3.8L216 43l3.2.1 1.6 3.5 2.4 1.2-.4 5.7-3 2.1-1.9 2.3-4.3 2.8.7 3-.5 3.1z"/><path id="TZ" d="m363 271.6 1.1.7 22.6 12.6.4 3.6 8.9 6.2-2.9 7.7.4 3.5 4 2.3.2 1.6-1.7 3.8.4 1.9-.4 3 2.2 3.9 2.6 6.2 2.3 1.4-5 3.6-6.8 2.4-3.7-.1-2.2 1.9-4.3.2-1.6.8-7.5-1.8-4.7.5-1.7-8.6-2.1-2.9-1.3-1.7-6.1-1.2-3.6-1.9-4-1-2.5-1.1-2.6-1.6-3.4-7.9-3.6-3.5-1.2-3.6.6-3.2-1.1-5.7 2.6-.3 2.2-2.2 2.4-3.2 1.5-1.3-.1-2-1.3-1.4-.4-2.4 1.8-.8.4-3.6-2.5-3.5 2.2-.8 6.8.1z"/><path id="UG" d="m350.2 272.1-6.8-.1-2.2.8-3.7 1.9-1.5-.6v-4.7l1.4-2.4.4-5 1.3-2.9 2.4-3.2 2.4-1.6 2-2.2-2.5-.8.4-7.3 2.6-1.7 4 1.4 5-1.4h4.4l3.8-2.8 3 4.3.7 3.1 2.7 7.1-2.3 4.5-3.1 4.1-1.8 2.5v6.6z"/><path id="ZA" d="m348.1 455.5-1.2 1-2.6 3.6-1.7 3.7-3.5 5.2-7.1 7.5-4.4 4.4-4.7 3.4-6.5 2.9-3.2.4-.8 2.1-3.8-1.1-3.1 1.4-6.8-1.4-3.8.9-2.6-.4-6.4 3-5.3 1.2-3.8 2.8-2.8.2-2.6-2.7-2.1-.1-2.7-3.4-.3 1-.8-2v-4.4l-2-5 2-1.3-.2-5.6-4.3-6.8-3.1-6.1-4.5-9.2 3-3.5 2.5 1.9 1 3 2.8.5 3.9 1.3 3.4-.5 5.6-3.6v-25.6l1.7 1 3.7 6.5-.6 4.2 1.4 2.4 4.5-.7 3.1-3.1 3-2.1 1.5-3.3 3-1.6 2.6.8 3 1.9 5.1.3 4-1.6.6-2.1 1.1-3.3 3.4-.6 1.9-2.6 2.1-4.5 5.6-5 8.8-4.9 2.5.1 3 1.1 2.1-.8 3.3.7 3 9.5 1.6 4.8-1.1 7.6.5 2.5-3.2-1.3-1.8.5-.6 2-1.7 2.6.1 2.4 3.7 3.8 3.6-.8 1.3-3.1 4.7.1-1.6 5.1-.7 5.8-1.6 3.2zm-15.9-2.1-2.7-2.2-2.9 1.4-3.4 2.8-3.3 4.5 4.7 5.5 2.2-.7 1.2-2.3 3.5-1.1 1.1-2.3 1.9-3.5z"/><path id="ZM" d="m355.8 323.2 2.9 2.8 1.6 5.3-1.1 1.7-1.2 5.1 1.2 5.2-2 2.2-1.9 5.9 3.3 1.6-18.9 5.3.6 4.6-4.7.9-3.5 2.6-.8 2.2-2.2.5-5.4 5.3-3.4 4.2-2.1.2-2-.8-7-.7-1.2-.3-.1-.5-2.4-1.5-4-.4-5.1 1.5-4.1-4-4.2-5.3.3-20.4 13 .1-.5-2.2.9-2.4-1.1-3 .7-3.1-.7-2 2.2.2.4 2 2.9-.2 4 .6 2.1 2.9 5 .9 3.8-2 1.4 3.3 4.8.9 2.3 2.7 2.6 3.5 4.8.1-.5-6.9-1.7 1.1-4.4-2.4-1.7-1.1.8-6.3 1.1-7.5-1.4-2.8 1.8-4 1.7-.7 8.4-1.1 2.4.6 2.6 1.6 2.5 1.1 4 1z"/><path id="ZW" d="m346 407.3-3.3-.7-2.1.8-3-1.1-2.5-.1-4-3-4.8-1-1.8-4.2v-2.3l-2.7-.7-7.1-7.2-2-3.8-1.2-1.2-2.4-5.2 7 .7 2 .8 2.1-.2 3.4-4.2 5.4-5.3 2.2-.5.8-2.2 3.5-2.6 4.7-.9.4 2.4 5.2-.1 2.9 1.4 1.3 1.6 3 .5 3.2 2.1v8.2l-1.2 4.5-.3 4.9 1 2-.7 3.9-1 .6-1.6 4.8z"/></g></svg>