<?xml version="1.0" encoding="utf-8"?>
<!-- Generator: Adobe Illustrator 28.3.0, SVG Export Plug-In . SVG Version: 6.00 Build 0)  -->
<svg version="1.1" xmlns:amcharts="http://amcharts.com/ammap"
	xmlns="http://www.w3.org/2000/svg" xmlns:xlink="http://www.w3.org/1999/xlink" x="0px" y="0px"
	viewBox="0 0 512 512"
	style="enable-background:new 0 0 512 512;" xml:space="preserve">
<defs>

		<amcharts:ammap  bottomLatitude="-34.833364" leftLongitude="-17.660910" projection="mercator" rightLongitude="51.150663" topLatitude="37.362438">
		</amcharts:ammap>
</defs>
<g>
	<path id="AO" d="M253.3,302.2l1.5,4.6l1.8,3.7l1.4,2l2.4,3.3l4.1-0.5l2.1-0.9l3.4,0.9l0.9-1.6l1.6-3.6l3.9-0.2l0.3-1.1l3.2,0
		l-0.5,2.2l7.6,0l0.1,3.9l1.3,2.4l-0.9,3.8l0.5,3.9l2.1,2.3l-0.3,7.5l1.5-0.6l2.7,0.2l3.9-0.9l2.8,0.4l0.7,2l-0.7,3.1l1.1,3
		l-0.9,2.4l0.5,2.2l-13-0.1l-0.3,20.4l4.2,5.3l4.1,4l-11.5,2.6l-15.1-0.9l-4.3-3.1l-25.3,0.3l-0.9,0.5l-3.7-2.9l-4-0.2l-3.7,1.1
		l-3,1.2l-0.6-4.1l0.9-5.7l2.2-5.9l0.3-2.8l2-5.8l1.5-2.6l3.6-4.2l2-2.8l0.6-4.7l-0.3-3.6l-1.9-2.2l-1.7-3.8l-1.5-3.8l0.3-1.3
		l1.9-2.5l-1.9-6.1l-1.3-4.2l-3.1-3.9l0.6-1.2l2.6-0.8l1.8,0.1l2.2-0.8L253.3,302.2z M229.1,301l-1.6,0.7l-1.7-4.7l2.5-2.7l1.9-1
		l2.3,2.1l-2.3,1.3l-1,1.6L229.1,301z"/>
	<path id="BF" d="M133.9,205.7l-4.3-1.6l-2.9,0.2l-2.2,1.6l-2.8-1.3l-1.1-2.1l-2.8-1.4l-0.4-3.6l1.7-2.7l-0.2-2.1l5-5.2l0.9-4.4
		l1.7-1.6l3,0.8l2.6-1.3l0.8-1.6l4.8-2.8l1.2-2l5.8-2.7l3.4-0.9l1.6,1.2l4,0l-0.5,3.1l0.8,2.9l3.5,4.2l0.2,3.1l7.2,1.4l-0.2,4.3
		l-1.4,1.9l-3,0.6l-1.3,2.8l-2.1,0.7l-5.5-0.1l-2.9-0.5l-2,1l-2.8-0.5l-10.8,0.3L133,201L133.9,205.7z"/>
	<path id="BI" d="M334.5,293.6l-0.4-7.5l-1.6-2.8l3.8,0.5l1.9-3.5l3.3,0.4l0.4,2.4l1.3,1.4l0.1,2l-1.5,1.3l-2.4,3.2l-2.2,2.2
		L334.5,293.6z"/>
	<path id="BJ" d="M168.3,226.9l-5.2,0.7l-1.5-4.3l0.3-14.4l-1.3-1.3l-0.2-3.1l-2.2-2.2l-1.9-1.8l0.8-3.3l2.1-0.7l1.3-2.8l3-0.6
		l1.4-1.9l2.1-1.8l2.2,0l4.8,3.6l-0.2,2.1l1.4,3.7l-1.2,2.5l0.6,1.7l-3,3.9l-1.9,1.9l-1.2,3.9l0.2,4L168.3,226.9z"/>
	<path id="BW" d="M311.5,382.7l1.2,1.2l2,3.8l7.1,7.2l2.7,0.7l0,2.3l1.8,4.2l4.8,1l4,3l-8.8,4.9l-5.6,5l-2.1,4.5l-1.9,2.6l-3.4,0.6
		l-1.1,3.3l-0.6,2.1l-4,1.6l-5.1-0.3l-3-1.9l-2.6-0.8l-3,1.6l-1.5,3.3l-3,2.1l-3.1,3.1l-4.5,0.7l-1.4-2.4l0.6-4.2l-3.7-6.5l-1.7-1
		v-19.7l6.1-0.2l0.2-23.5l4.6-0.2l9.6-2.3l2.4,2.7l4-2.6l1.9,0l3.5-1.5l1.1,0.5L311.5,382.7z"/>
	<path id="CD" d="M343.8,244l-0.4,7.3l2.5,0.8l-2,2.2l-2.4,1.6l-2.4,3.2l-1.3,2.9l-0.4,5l-1.4,2.4l0,4.7l-1.8,1.7l-0.2,3.7l-0.9,0.5
		l-0.6,3.4l1.6,2.8l0.4,7.5l1.1,5.7l-0.6,3.2l1.2,3.6l3.6,3.5l3.4,7.9l-2.4-0.6l-8.4,1.1l-1.7,0.7l-1.8,4l1.4,2.8l-1.1,7.5l-0.8,6.3
		l1.7,1.1l4.4,2.4l1.7-1.1l0.5,6.9l-4.8-0.1l-2.6-3.5l-2.3-2.7l-4.8-0.9l-1.4-3.3l-3.8,2l-5-0.9l-2.1-2.9l-4-0.6l-2.9,0.2l-0.4-2
		l-2.2-0.2l-2.8-0.4l-3.8,0.9l-2.7-0.2l-1.6,0.6l0.3-7.5l-2.1-2.3l-0.5-3.8l0.9-3.8l-1.2-2.4L287,311l-7.6,0l0.6-2.2l-3.2,0
		l-0.3,1.1l-3.9,0.2l-1.6,3.6l-0.9,1.6l-3.4-0.9l-2,0.9l-4.1,0.5l-2.4-3.3l-1.4-2l-1.8-3.7l-1.5-4.6l-18.4-0.1l-2.2,0.7l-1.8-0.1
		l-2.6,0.8l-0.9-1.9l1.6-0.7l0.2-2.7l1-1.6l2.3-1.3l1.6,0.6l2.1-2.4l3.4,0.1l0.4,1.8l2.3,1.1l3.7-3.9l3.6-3l1.6-2l-0.2-5.1l2.7-6
		l2.8-3.2l4.1-3l0.7-2l0.2-2.3l1-2.2l-0.3-3.5l0.8-5.5l1.2-3.9l1.9-3.3l0.4-3.7l0.6-4.3l2.4-3.2l3.3-2l5.1,2.1l4,2.3l4.6,0.6
		l4.6,1.2l1.9-3.7l0.9-0.5l2.8,0.6l7-3.1l2.4,1.3l2-0.2l0.9-1.5l2.3-0.5l4.7,0.6l4,0.1l2.1-0.6l3.8,5.1l2.8,0.7l1.7-1l2.9,0.4
		l3.5-1.3l1.5,2.6L343.8,244z"/>
	<path id="CF" d="M246.8,219.6l5.2-0.5l1.2-1.6l1,0.1l1.6,1.4l7.9-2.4l2.6-2.4l3.3-2.2l-0.6-2.2l1.8-0.6l6,0.4l5.9-2.9l4.5-6.9
		l3.2-2.5l3.9-1.1l0.7,2.7l3.6,3.9v2.6l-1,2.6l0.4,1.9l2.2,1.8l4.8,2.8l3.4,2.5l0.1,2l4.2,3.2l2.6,2.7l1.6,3.7l4.7,2.5l1,2l-2.1,0.6
		l-4-0.1l-4.7-0.6l-2.3,0.5l-0.9,1.5l-2,0.2l-2.4-1.3l-7,3.1l-2.8-0.6l-0.9,0.5l-1.9,3.7l-4.6-1.2l-4.6-0.6l-4-2.3l-5.1-2.1l-3.3,2
		l-2.4,3.2l-0.6,4.3l-4-0.4l-4.2-1l-3.7,3.3l-3.3,5.8l-0.7-1.8l-0.3-2.8l-2.8-2l-2.3-3.2l-0.5-2.2l-2.9-3.2l0.5-1.8l-0.6-2.6
		l0.5-4.8l1.5-1.1L246.8,219.6z"/>
	<path id="CG" d="M232.6,295.4l-2.3-2.1l-1.9,1l-2.5,2.7l-5.1-6.6l4.7-3.4l-2.3-4.1l2.1-1.6l4.2-0.8l0.5-2.8l3.3,3l5.5,0.3l1.9-2.9
		l0.8-4.1l-0.7-4.8l-2.9-3.6l2.7-7.2l-1.6-1.2l-4.6,0.5l-1.8-3.2l0.5-2.7l7.9,0.2l5,1.6l5,1.5l0.4-3.3l3.3-5.8l3.7-3.3l4.2,1l4,0.4
		l-0.4,3.7l-1.9,3.3l-1.2,3.9l-0.8,5.5l0.3,3.5l-1,2.2l-0.2,2.3l-0.7,2l-4.1,3l-2.8,3.2l-2.7,6l0.2,5.1l-1.6,2l-3.6,3l-3.7,3.9
		l-2.3-1.1l-0.4-1.8l-3.4-0.1l-2.1,2.4L232.6,295.4z"/>
	<path id="CI" d="M133.7,234.8l-2.8,0.1l-4.4-1.2l-4,0.1l-7.4,1.1l-4.3,1.8l-6.2,2.3l-1.2-0.2l0.5-5.1l0.6-0.8l-0.2-2.5l-2.6-2.6
		l-2-0.4l-1.8-1.7l1.4-2.8l-0.6-3l0.3-1.8h1l0.4-2.7l-0.5-1.2l0.6-0.9l2.3-0.8l-1.5-5l-1.4-2.6l0.5-2.2l1.2-0.5l0.8-0.6l1.7,0.9
		l4.8,0.1l1.2-1.8l1.1,0.1l1.8-0.7l1,2.7l1.4-0.8l2.6-0.9l2.8,1.4l1.1,2.1l2.8,1.3l2.2-1.6l2.9-0.2l4.3,1.6l1.6,8.9l-2.6,5.2
		l-1.6,7.1l2.7,5.4L133.7,234.8z"/>
	<path id="CM" d="M233.1,251.7l-0.8-0.3l-3.7,0.8l-3.8-0.8l-3,0.4l-10.1-0.2l0.9-4.9l-2.4-4.1l-2.8-1.1l-1.3-2.8l-1.6-0.9l0.1-1.7
		l1.6-4.4l3-6l1.8-0.1l3.7-3.6l2.4-0.1l3.5,2.6l4.3-2.1l0.6-2.6l1.4-2.5l1-3.2l3.3-2.6l1.3-4.4l1.3-1.4l0.9-3.3l1.6-4l5.2-4.9
		l0.3-2.1l0.7-1.1l-2.5-2.5l0.2-2l1.8-0.4l2.5,4.1l0.4,4.2l-0.2,4.2l3.4,5.7l-3.5-0.1l-1.8,0.4l-2.8-0.6l-1.4,3l3.7,3.7l2.7,1.1
		l0.9,2.6l2,4.3l-1,1.7l-3.1,6.3l-1.5,1.1l-0.5,4.8l0.6,2.6l-0.5,1.8l2.9,3.2l0.5,2.2l2.3,3.2l2.8,2l0.3,2.8l0.7,1.8l-0.4,3.3
		l-5-1.5l-5-1.6L233.1,251.7z"/>
	<path id="DJ" d="M420.2,186.4l1.5,2l-0.2,2.6l-3.6,1.5l2.7,1.7l-2.3,3.4l-1.4-1.1l-1.5,0.4l-3.5-0.1l-0.1-1.9l-0.5-1.8l2.1-3
		l2.2-2.8l2.7,0.6L420.2,186.4z"/>
	<path id="DZ" d="M226.3,116L205,128.8l-18.1,13l-8.8,2.9l-6.9,0.6l-0.1-4.2l-2.9-1.1l-3.9-1.9l-1.5-3.1l-21-14.6l-21-14.8
		L97.3,89.1l0.1-1.4v-0.5l-0.1-8.3l10.1-5.2l6.2-1.1l5.1-1.9l2.4-3.6l7.3-2.9l0.3-5.4l3.6-0.6l2.8-2.7l8.2-1.2l1.1-2.8l-1.6-1.6
		l-2.2-7.9l-0.4-4.6l-2.4-4.8l6-4.2l6.8-1.3l3.9-3.2l6-2.3l10.6-1.4l10.3-0.6l3.1,1.2l5.9-3l6.7-0.1l2.5,1.8l4.2-0.5l-1.3,4l1,7.3
		l-1.5,6.3l-3.8,4.2l0.6,5.6l5.1,4.4l0.1,1.8l3.8,3l2.7,13l2,6.3l0.3,3.3l-1.1,5.8l0.4,3.2l-0.8,3.8l0.6,4.4l-2.5,2.9l3.7,5l0.2,2.9
		l2.2,3.8l2.9-1.2l4.9,3.2L226.3,116z"/>
	<path id="EG" d="M369.3,74.2l-1.8,2.9l-1.3,5.3l-1.7,3.6l-1.5,1.2L361,85l-2.8-3.2l-4.4-10.2l-0.6,0.6l2.6,7.5l3.8,7.1l4.7,10.9
		l2.3,3.7l2,3.9l5.6,7.6l-1.2,1.2l0.2,4.4l7.3,6l1.1,1.4h-24.7h-24.2h-25.1v-25V76.1l-1.9-5.7l1.6-4.4l-1-3.1l2.2-3.5l8.3-0.1l6,1.9
		l6.2,2.2l2.9,1.1l4.8-2.3l2.6-2.1l5.5-0.6l4.4,0.9l1.7,3.6l1.4-2.4l5,1.7l4.9,0.4l3.1-1.8L369.3,74.2z"/>
	<path id="ER" d="M415.6,187.4l-2.1-2.1l-2.6-3.7l-2.8-2l-1.6-2.2l-5.4-2.6l-4.3-0.1l-1.5-1.4l-3.6,1.5l-3.8-2.9l-2,4.8l-7.3-1.3
		l-0.7-2.6l2.7-9.5l0.6-4.3l2-2l4.6-1.1l3.2-3.7l3.6,7.5l1.7,5.9l3.4,3.1l8.5,6.1l3.5,3.6l3.4,3.7l2,2.2l3.1,1.9l-1.9,1.6
		L415.6,187.4z"/>
	<path id="ET" d="M387.9,172l3.8,2.9l3.6-1.5l1.5,1.4l4.3,0.1l5.4,2.6l1.6,2.2l2.8,2l2.6,3.7l2.1,2.1l-2.2,2.8l-2.1,3l0.5,1.8
		l0.1,1.9l3.5,0.1l1.5-0.4l1.4,1.1l-1.4,2.2l2.3,3.5l2.3,3l2.4,2.2l20.4,7.4l5.2,0l-17.6,18.7l-8.1,0.3l-5.6,4.4l-4,0.1l-1.7,2h-4.3
		l-2.5-2.1l-5.7,2.6l-1.8,2.6l-4.2-0.5l-1.4-0.7l-1.5,0.2l-2,0l-7.9-5.3H377l-2.1-2v-3.5l-3.2-1l-3.7-6.8l-2.8-1.4l-1.1-2.5l-3.2-3
		l-3.8-0.4l2.1-3.6l3.3-0.2l0.9-1.9l-0.1-5.6l1.8-6.6l2.9-1.8l0.6-2.6l2.7-4.8l3.8-3.2l2.5-6.3l1-5.5l7.3,1.3L387.9,172z"/>
	<path id="GA" d="M220.7,290.4l-6.4-6.3l-4.1-5.1l-3.8-6.4l0.2-2l1.4-2l1.5-4.5l1.3-4.6l2.1-0.4l9.1,0.1l0-7.5l3-0.4l3.8,0.8
		l3.7-0.8l0.8,0.3l-0.5,2.7l1.8,3.2l4.6-0.5l1.6,1.2l-2.7,7.2l2.9,3.6l0.7,4.8l-0.8,4.1l-1.9,2.9l-5.5-0.3l-3.3-3l-0.5,2.8l-4.2,0.8
		l-2.1,1.6l2.3,4.1L220.7,290.4z"/>
	<path id="GH" d="M158.1,228.9l-9.8,3.6l-3.5,2.1l-5.6,1.8l-5.6-1.8l0.3-2.5l-2.7-5.4l1.6-7.1l2.6-5.2l-1.6-8.9L133,201l0.2-3.6
		l10.8-0.3l2.8,0.5l2-1l2.9,0.5l-0.5,2l2.6,3.2v4.6l0.6,4.9l1.6,2.3l-1.4,5.6l0.5,3.1l1.7,4L158.1,228.9z"/>
	<path id="GM" d="M46.5,183.5l0.8-2.8l6.8-0.2l1.4-1.5l2-0.1l2.4,1.6l1.9,0l2.1-1.1l1.2,1.8l-2.7,1.4l-2.7-0.1l-2.7-1.4l-2.3,1.5
		l-1.1,0.1l-1.5,0.9L46.5,183.5z"/>
	<path id="GN" d="M98.9,218l-1.8-0.2l-1.3,2.5l-1.8,0l-1.2-1.3l0.4-2.5l-2.6-3.8l-1.6,0.7l-1.3,0.2l-1.7,0.4l0.1-2.3l-1-1.6l0.2-1.8
		l-1.4-2.6l-1.7-2.2h-5l-1.4,1.2l-1.7,0.1l-1.1,1.4l-0.7,1.8l-3.3,2.8l-2.7-3.7l-2.4-2.5l-1.6-0.8l-1.6-1.3l-0.7-2.8L59,198l-1.8-1
		l2.8-3.1l1.9,0.1l1.6-1.1h1.4l1-0.8l-0.5-2.1l0.7-0.7l0.1-2.2l3,0.1l4.5,1.6l1.4-0.2l0.5-0.7l3.4,0.5l0.9-0.4l0.4,2.3l1,0l1.6-0.8
		l1,0.2l1.7,1.6l2.7,0.5l1.7-1.4l2-0.8l1.5-0.9l1.2,0.2l1.4,1.4l0.8,1.8l2.6,2.6l-1.3,1.6l-0.2,2l1.3-0.6l0.8,0.8l-0.3,1.9l1.9,1.8
		l-1.2,0.5l-0.5,2.2l1.4,2.6l1.5,5l-2.3,0.8l-0.6,0.9l0.5,1.2l-0.4,2.7H98.9z"/>
	<path id="GQ" d="M210.7,259.5l-1.2-0.9l2.2-7l10.1,0.2l0,7.5l-9.1-0.1L210.7,259.5z"/>
	<path id="GW" d="M57.1,196.9l-3.3-2.6l-2.6-0.4l-1.4-1.8l0-1l-1.9-1.3l-0.4-1.4l3.3-1l2.1,0.2l1.7-0.7l11.5,0.3l-0.1,2.2l-0.7,0.7
		l0.5,2.1l-1,0.8h-1.4l-1.6,1.1l-1.9-0.1L57.1,196.9z"/>
	<path id="KE" d="M407.2,271.1l3.7,5.1l-4.4,2.5l-1.5,2.6l-2.4,0.4l-0.9,4.4l-2,2.5l-1.2,4.1l-2.5,2l-8.9-6.2l-0.4-3.6L364,272.3
		l-1.1-0.7l0-6.6l1.8-2.5l3.1-4.1l2.3-4.5l-2.7-7.1l-0.7-3.1l-3-4.3l3.8-3.7l4.2-4.1l3.2,1v3.5l2.1,2h4.3l7.9,5.3l2,0l1.5-0.2
		l1.4,0.7l4.2,0.5l1.8-2.6l5.7-2.6l2.5,2.1h4.3l-5.4,7.1L407.2,271.1z"/>
	<path id="LR" d="M103.4,238.7l-1.6,0l-6.4-3l-5.7-4.7l-5.3-3.4l-4.2-4l1.5-2l0.3-1.8l2.8-3.4l2.9-2.9l1.3-0.2l1.6-0.7l2.6,3.8
		l-0.4,2.5l1.2,1.3l1.8,0l1.3-2.5l1.8,0.2l-0.3,1.8l0.6,3l-1.4,2.8l1.8,1.7l2,0.4l2.6,2.6l0.2,2.5l-0.6,0.8L103.4,238.7z"/>
	<path id="LS" d="M332.2,453.4l2.2,2.1l-1.9,3.5l-1.1,2.3l-3.5,1.1l-1.2,2.3l-2.2,0.7l-4.7-5.5l3.3-4.5l3.4-2.8l2.9-1.4L332.2,453.4
		z"/>
	<path id="LY" d="M244.1,120.1l-4.4,2.5l-3.5-3.7l-9.9-2.9l-2.7-4.2l-4.9-3.2l-2.9,1.2l-2.2-3.8l-0.2-2.9l-3.7-5l2.5-2.9l-0.6-4.4
		l0.8-3.8l-0.4-3.2l1.1-5.8l-0.3-3.3l-2-6.3l3-1.7l0.5-3.1l-0.7-3l4.3-2.8l1.9-2.3l3-2.1l0.4-5.7l7.3,2.6l2.6-0.6l5.2,1.2l8.3,3.3
		l2.9,6.5l5.6,1.4l8.8,3l6.7,3.6l3-1.9l3-3.3l-1.4-5.6l2-3.6l4.5-3.4l4.3-1l8.4,1.5l2.1,3.3l2.3,0l2,1.2l6.2,0.9l1.5,2.4l-2.2,3.5
		l1,3.1l-1.6,4.4l1.9,5.7v24.9v25v13.3l-7.2,0l-0.1,2.8l-24.9-12.7l-24.9-12.8L244.1,120.1z"/>
	<path id="MA" d="M142.8,49.8l-2.2-7.9l-0.4-4.6l-2.4-4.8l-2.7-0.1l-6.5-1.7l-5.9,0.5l-3.8-3.2l-4.6,0l-2,4.7l-4.2,7.8l-4.6,3.1
		L97.5,47l-4,5l-0.8,3.9l-2.4,6.3l1.6,9l-5.2,6L83.5,79l-4.9,4.8l-5.8,0.8l-3.1,2.7l-0.1,0.1l-4,7.1L61.5,97l-2.3,4.2l-0.1,3.7
		l-1.7,4l-2.1,1.1l-3.5,4.3l-2.1,4.8l0.4,2.3l-2,3.5l-2.4,1.8l-0.3,3.1l-0.3,2.8l1.4-2.2l24.4,0l-1.2-9.7l1.5-3.4l5.8-0.6l-0.2-17.5
		l20.5,0.4V89.1l0.1-1.4v-0.5l-0.1-8.3l10.1-5.2l6.2-1.1l5.1-1.9l2.4-3.6l7.3-2.9l0.3-5.4l3.6-0.6l2.8-2.7l8.2-1.2l1.1-2.8
		L142.8,49.8z"/>
	<path id="MG" d="M460.5,343.6l1.6,2.7l1.5,4.2l1,7.7l1.6,3l-0.6,3.1l-1.1,1.9l-2.1-3.8l-1.2,1.9l1.2,4.8l-0.6,2.8l-1.7,1.5
		l-0.4,5.5l-2.4,7.6l-3.1,9.1l-3.9,12.6l-2.4,9.4l-2.8,7.9l-5.1,1.6l-5.4,2.9l-3.6-1.8l-5-2.4l-1.7-3.6l-0.4-6l-2.2-5.4l-0.6-4.8
		l1.1-4.8l2.9-1.2l0-2.2l3-5l0.6-4.2l-1.4-3.1l-1.2-4.1l-0.5-6l2.2-3.6l0.8-4.1l3.1-0.2l3.5-1.3l2.3-1.2l2.8-0.1l3.5-3.7l5.1-4
		l1.9-3.2l-0.8-2.7l2.6,0.8l3.4-4.4l0.1-3.8l2.1-2.8L460.5,343.6z"/>
	<path id="ML" d="M75.6,174.2l2.1-1.2l1-3.8l2-0.2l4.4,1.8l3.5-1.3L91,170l1-1.4l25-0.1l1.4-4.5l-1.1-0.8l-3-28.2l-3-29.1l9.5-0.1
		l21,14.8l21,14.6l1.5,3.1l3.9,1.9l2.9,1.1l0.1,4.2l6.9-0.6l0,15l-3.4,4.3l-0.5,4l-5.5,1l-8.5,0.6l-2.3,2.3l-4,0.2l-4,0l-1.6-1.2
		l-3.4,0.9l-5.8,2.7l-1.2,2l-4.8,2.8l-0.8,1.6l-2.6,1.3l-3-0.8l-1.7,1.6l-0.9,4.4l-5,5.2l0.2,2.1l-1.7,2.7l0.4,3.6l-2.6,0.9
		l-1.4,0.8l-1-2.7l-1.8,0.7l-1.1-0.1l-1.2,1.8l-4.8-0.1l-1.7-0.9l-0.8,0.6l-1.9-1.8l0.3-1.9l-0.8-0.8l-1.3,0.6l0.2-2l1.3-1.6
		l-2.6-2.6l-0.8-1.8l-1.4-1.4l-1.2-0.2l-1.5,0.9l-2,0.8l-1.7,1.4l-2.7-0.5l-1.7-1.6l-1-0.2l-1.6,0.8l-1,0l-0.4-2.3l0.3-2l-0.5-2.4
		l-2.3-1.8l-1.2-3.6L75.6,174.2z"/>
	<path id="MR" d="M75.6,174.2l-4.1-4.4l-3.8-4.7l-4.1-1.7l-3-1.9l-3.5,0.1l-3,1.4l-3.1-0.6l-2.1,2.1l-0.5-3.5l1.7-3.2l0.8-6.1
		l-0.7-6.5l-0.8-3.3l0.6-3.3l-1.6-3.2l-3.3-2.8l1.4-2.2l24.4,0l-1.2-9.7l1.5-3.4l5.8-0.6l-0.2-17.5l20.5,0.4V89.1l23.5,16.7
		l-9.5,0.1l3,29.1l3,28.2l1.1,0.8l-1.4,4.5l-25,0.1l-1,1.4l-2.4-0.4l-3.5,1.3l-4.4-1.8l-2,0.2l-1,3.8L75.6,174.2z"/>
	<path id="MW" d="M367,337.6l-1.7,4.8l1.7,8.3l2.2-0.1l2.2,2l2.6,4.6l0.5,8.3l-2.7,1.4l-1.9,4.5l-4.1-4l-0.4-4.5l1.3-3l-0.4-2.6
		l-2.4-1.6l-1.7,0.6l-3.6-3.1l-3.3-1.6l1.9-5.9l2-2.2l-1.2-5.2l1.2-5.1l1.1-1.7l-1.6-5.3l-2.9-2.8l6.1,1.2l1.3,1.7l2.1,2.9
		L367,337.6z"/>
	<path id="MZ" d="M367,337.6l4.7-0.5l7.5,1.8l1.6-0.8l4.3-0.2l2.2-1.9l3.7,0.1l6.8-2.4l5-3.6l1,2.8l-0.3,6.3l0.8,5.6l0.2,10l1.1,3.1
		l-1.8,4.6l-2.4,4.5l-4,4l-5.7,2.5l-7,3.1l-7.1,7l-2.4,1.2l-4.4,4.6l-2.6,1.5l-0.5,4.7l3,5l1.2,3.9l0.1,2l1.1-0.3l-0.2,6.6l-1,3.1
		l1.5,1.2l-0.9,2.8l-2.6,2.4l-5.1,2.3l-7.5,3.7l-2.7,2.6l0.5,2.9l1.6,0.5l-0.5,3.6l-4.7,0l-0.5-3.1l-0.9-3.1l-0.5-2.5l1.1-7.6
		l-1.6-4.8l-3-9.5l6.6-7.6l1.6-4.8l1-0.6l0.7-3.9l-1-2l0.3-4.9l1.2-4.5l0-8.2l-3.2-2.1l-3-0.5l-1.3-1.6l-2.9-1.4l-5.2,0.1l-0.4-2.4
		l-0.6-4.6l18.9-5.3l3.6,3.1l1.7-0.6l2.4,1.6l0.4,2.6l-1.3,3l0.4,4.5l4.1,4l1.9-4.5l2.7-1.4l-0.5-8.3l-2.6-4.6l-2.2-2l-2.2,0.1
		l-1.7-8.3L367,337.6z"/>
	<path id="NA" d="M253.4,450.7l-4.6-5.3l-2.4-5.1l-1.4-6.7l-1.5-5l-2.1-10.5l-0.1-8.1l-0.8-3.6l-2.4-2.8l-3.2-5.5l-3.3-7.9l-1.4-4.1
		l-5.1-6.4l-0.4-5l3-1.2l3.7-1.1l4,0.2l3.7,2.9l0.9-0.5l25.3-0.3l4.3,3.1l15.1,0.9l11.5-2.6l5.1-1.5l4,0.4l2.4,1.5l0.1,0.5l-3.5,1.5
		l-1.9,0l-4,2.6l-2.4-2.7l-9.6,2.3l-4.6,0.2l-0.2,23.5l-6.1,0.2v19.7l0,25.6l-5.6,3.6l-3.3,0.5l-3.9-1.3l-2.8-0.5l-1-3l-2.5-1.9
		L253.4,450.7z"/>
	<path id="NE" d="M164.9,191.2l0.2-4.3l-7.2-1.4l-0.2-3.1l-3.5-4.2l-0.8-2.9l0.5-3.1l4-0.2l2.3-2.3l8.5-0.6l5.5-1l0.5-4l3.4-4.3
		l0-15l8.8-2.9l18.1-13l21.4-12.8l9.9,2.9l3.5,3.7l4.4-2.5l1.5,10.4l2.3,1.7l0.1,2.1l2.6,2.3l-1.4,2.8l-2.4,13.3l-0.3,8.4l-8,6.1
		l-2.7,8.5l2.6,2.4l0,4.1l4,0.2l-0.6,3l-1.8,0.4l-0.2,2l-1.2,0.2l-4.2-7l-1.5-0.3l-4.9,3.6l-4.8-1.8l-3.4-0.4l-1.8,0.9l-3.7-0.2
		l-3.7,2.7l-3.2,0.2l-7.5-3.3l-3,1.6l-3.2-0.1l-2.3-2.4l-6.3-2.4l-6.7,0.8l-1.6,1.4l-0.9,3.7l-1.8,2.6L174,193l-4.8-3.6l-2.2,0
		L164.9,191.2z"/>
	<path id="NG" d="M204.5,236.1l-6.5,2.2l-2.4-0.3l-2.4,1.4l-5-0.1l-3.3-3.9l-2-4.5l-4.4-4.1l-4.7,0.1h-5.5l0.4-10.1l-0.2-4l1.2-3.9
		l1.9-1.9l3-3.9l-0.6-1.7l1.2-2.5l-1.4-3.7l0.2-2.1l0.4-5.7l1.8-2.6l0.9-3.7l1.6-1.4l6.7-0.8l6.3,2.4l2.3,2.4l3.2,0.1l3-1.6l7.5,3.3
		l3.2-0.2l3.7-2.7l3.7,0.2l1.8-0.9l3.4,0.4l4.8,1.8l4.9-3.6l1.5,0.3l4.2,7l1.2-0.2l2.5,2.5l-0.7,1.1l-0.3,2.1l-5.2,4.9l-1.6,4
		l-0.9,3.3l-1.3,1.4l-1.3,4.4l-3.3,2.6l-1,3.2l-1.4,2.5l-0.6,2.6l-4.3,2.1l-3.5-2.6l-2.4,0.1l-3.7,3.6l-1.8,0.1l-3,6L204.5,236.1z"
		/>
	<path id="RW" d="M341.2,272.8l2.5,3.5l-0.4,3.6l-1.8,0.8l-3.3-0.4l-1.9,3.5l-3.8-0.5l0.6-3.4l0.9-0.5l0.2-3.7l1.8-1.7l1.5,0.6
		L341.2,272.8z"/>
	<path id="SD" d="M363.3,206.8l-0.9-0.1l0.1-3.1l-0.8-2.2l-3.2-2.5l-0.8-4.6l0.8-4.7l-2.9-0.4l-0.4,1.4l-3.8,0.3l1.5,1.8l0.5,3.8
		l-3.4,3.5l-3.1,4.5l-3.2,0.6l-5.2-3.7l-2.4,1.3l-0.6,1.8l-3.2,1.2l-0.2,1.3H326l-0.9-1.3l-4.5-0.2l-2.2,1.1l-1.7-0.6l-3.2-3.7
		l-1.1-1.7l-4.5,0.9l-1.7,2.9l-1.6,5.6l-2.1,1.2l-1.9,0.7l-0.5-0.3l-2.2-1.8l-0.4-1.9l1-2.6v-2.6l-3.6-3.9l-0.7-2.7l0.1-1.5
		l-2.3-1.8l-0.1-3.7l-1.3-2.4l-2.2,0.4l0.6-2.3l1.6-2.7l-0.7-2.6l2-2l-1.3-1.5l1.6-4l2.8-4.7l5.4,0.4l-0.3-25.8l0.1-2.8l7.2,0v-13.3
		h25.1h24.2h24.7l2,6.5l-1.4,1.2l0.9,6.8l2.3,7.8l2.4,1.6l3.4,2.4l-3.2,3.7l-4.6,1.1l-2,2l-0.6,4.3l-2.7,9.5l0.7,2.6l-1,5.5
		l-2.5,6.3l-3.8,3.2l-2.7,4.8l-0.6,2.6l-2.9,1.8l-1.8,6.6V206.8z"/>
	<path id="SL" d="M80.2,223.6l-1.7-0.5l-4.5-2.5l-3.2-3.3l-1.1-2.3l-0.8-4.6l3.3-2.8l0.7-1.8l1.1-1.4l1.7-0.1l1.4-1.2h5l1.7,2.2
		l1.4,2.6l-0.2,1.8l1,1.6l-0.1,2.3l1.7-0.4l-2.9,2.9l-2.8,3.4l-0.3,1.8L80.2,223.6z"/>
	<path id="SN" d="M47.3,180.7l-2.6-5l-3.1-2.3l2.8-1.2l3-4.5l1.5-3.3l2.1-2.1l3.1,0.6l3-1.4l3.5-0.1l3,1.9l4.1,1.7l3.8,4.7l4.1,4.4
		l0.3,4l1.2,3.6l2.3,1.8l0.5,2.4l-0.3,2l-0.9,0.4l-3.4-0.5l-0.5,0.7l-1.4,0.2l-4.5-1.6l-3-0.1l-11.5-0.3l-1.7,0.7l-2.1-0.2l-3.3,1
		l-1-4.9l5.7,0.1l1.5-0.9l1.1-0.1l2.3-1.5l2.7,1.4l2.7,0.1l2.7-1.4l-1.2-1.8l-2.1,1.1l-1.9,0l-2.4-1.6l-2,0.1l-1.4,1.5L47.3,180.7z"
		/>
	<path id="SO" d="M470.4,192.4l-0.2-1.8l-2.4,0l-3,2.2l-3.3,0.6l-2.9,0.9l-2,0.1l-3.6,0.2L451,196l-3.1,0.4l-5.5,2l-6.8,0.7
		l-5.9,1.6l-3.1,0l-2.8-2.6l-1.2-2.6l-2-1.2l-2.3,3.4l-1.4,2.2l2.3,3.5l2.3,3l2.4,2.2l20.4,7.4l5.2,0l-17.6,18.7l-8.1,0.3l-5.6,4.4
		l-4,0.1l-1.7,2l-5.4,7.1l0.1,22.6l3.7,5.1l1.4-1.5l1.4-3.2l6.8-7.5l5.8-4.7l9.3-6.1l6.2-5l7.3-8.5l5.3-7l5.4-9.1l3.8-8l3-7l1.8-6.8
		l1.3-2.3l0-3.3L470.4,192.4z"/>
	<path id="SS" d="M363.3,206.8l0.1,4.9l-0.9,1.9l-3.3,0.2l-2.1,3.6l3.8,0.4l3.2,3l1.1,2.5l2.8,1.4l3.7,6.8l-4.2,4.1l-3.8,3.7
		l-3.8,2.8h-4.4l-5,1.4l-4-1.4l-2.6,1.7l-5.5-4.1l-1.5-2.6l-3.5,1.3l-2.9-0.4l-1.7,1l-2.8-0.7l-3.8-5.1l-1-2l-4.7-2.5l-1.6-3.7
		l-2.6-2.7l-4.2-3.2l-0.1-2l-3.4-2.5l-4.2-2.4l1.9-0.7l2.1-1.2l1.6-5.6l1.7-2.9l4.5-0.9l1.1,1.7l3.2,3.7l1.7,0.6l2.2-1.1l4.5,0.2
		l0.9,1.3h6.2l0.2-1.3l3.2-1.2l0.6-1.8l2.4-1.3l5.2,3.7l3.2-0.6l3.1-4.5l3.4-3.5l-0.5-3.8l-1.5-1.8l3.8-0.3l0.4-1.4l2.9,0.4
		l-0.8,4.7l0.8,4.6l3.2,2.5l0.8,2.2l-0.1,3.1L363.3,206.8z"/>
	<path id="SZ" d="M351.5,437.8l-1.3,3.1l-3.6,0.7l-3.7-3.8l0-2.4l1.7-2.6l0.6-2l1.8-0.5l3.1,1.3l0.9,3.1L351.5,437.8z"/>
	<path id="TD" d="M241.9,185.4l0.6-3l-4-0.2l0-4.1l-2.6-2.4l2.7-8.5l8-6.1l0.3-8.4l2.4-13.3l1.4-2.8l-2.6-2.3l-0.1-2.1l-2.3-1.7
		l-1.5-10.4l6.3-3.7l24.9,12.8l24.9,12.7l0.3,25.8l-5.4-0.4l-2.8,4.7l-1.6,4l1.3,1.5l-2,2l0.7,2.6l-1.6,2.7l-0.6,2.3l2.2-0.4
		l1.3,2.4l0.1,3.7l2.3,1.8l-0.1,1.5l-3.9,1.1l-3.2,2.5l-4.5,6.9l-5.9,2.9l-6-0.4l-1.8,0.6l0.6,2.2l-3.3,2.2l-2.6,2.4l-7.9,2.4
		l-1.6-1.4l-1-0.1l-1.2,1.6l-5.2,0.5l1-1.7l-2-4.3l-0.9-2.6l-2.7-1.1l-3.7-3.7l1.4-3l2.8,0.6l1.8-0.4l3.5,0.1l-3.4-5.7l0.2-4.2
		l-0.4-4.2L241.9,185.4z"/>
	<path id="TG" d="M163.1,227.6l-5,1.3l-1.4-2.2l-1.7-4l-0.5-3.1l1.4-5.6l-1.6-2.3l-0.6-4.9v-4.6l-2.6-3.2l0.5-2l5.5,0.1l-0.8,3.3
		l1.9,1.8l2.2,2.2l0.2,3.1l1.3,1.3l-0.3,14.4L163.1,227.6z"/>
	<path id="TN" d="M210.6,68.4l-2.7-13l-3.8-3l-0.1-1.8l-5.1-4.4l-0.6-5.6l3.8-4.2l1.5-6.3l-1-7.3l1.3-4l6.8-3.1l4.4,0.9l-0.2,3.9
		l5.3-2.9l0.4,1.5l-3.1,3.8l0,3.6l2.2,1.9l-0.8,6.6l-4.1,3.8L216,43l3.2,0.1l1.6,3.5l2.4,1.2l-0.4,5.7l-3,2.1l-1.9,2.3l-4.3,2.8
		l0.7,3l-0.5,3.1L210.6,68.4z"/>
	<path id="TZ" d="M363,271.6l1.1,0.7l22.6,12.6l0.4,3.6l8.9,6.2l-2.9,7.7l0.4,3.5l4,2.3l0.2,1.6l-1.7,3.8l0.4,1.9l-0.4,3l2.2,3.9
		l2.6,6.2l2.3,1.4l-5,3.6l-6.8,2.4l-3.7-0.1l-2.2,1.9l-4.3,0.2l-1.6,0.8l-7.5-1.8l-4.7,0.5l-1.7-8.6l-2.1-2.9l-1.3-1.7l-6.1-1.2
		l-3.6-1.9l-4-1l-2.5-1.1l-2.6-1.6l-3.4-7.9l-3.6-3.5l-1.2-3.6l0.6-3.2l-1.1-5.7l2.6-0.3l2.2-2.2l2.4-3.2l1.5-1.3l-0.1-2l-1.3-1.4
		l-0.4-2.4l1.8-0.8l0.4-3.6l-2.5-3.5l2.2-0.8l6.8,0.1L363,271.6z"/>
	<path id="UG" d="M350.2,272.1l-6.8-0.1l-2.2,0.8l-3.7,1.9l-1.5-0.6l0-4.7l1.4-2.4l0.4-5l1.3-2.9l2.4-3.2l2.4-1.6l2-2.2l-2.5-0.8
		l0.4-7.3l2.6-1.7l4,1.4l5-1.4h4.4l3.8-2.8l3,4.3l0.7,3.1l2.7,7.1l-2.3,4.5l-3.1,4.1l-1.8,2.5l0,6.6L350.2,272.1z"/>
	<path id="ZA" d="M348.1,455.5l-1.2,1l-2.6,3.6l-1.7,3.7l-3.5,5.2l-7.1,7.5l-4.4,4.4l-4.7,3.4l-6.5,2.9l-3.2,0.4l-0.8,2.1l-3.8-1.1
		l-3.1,1.4l-6.8-1.4l-3.8,0.9l-2.6-0.4l-6.4,3l-5.3,1.2l-3.8,2.8l-2.8,0.2l-2.6-2.7l-2.1-0.1l-2.7-3.4l-0.3,1l-0.8-2l0-4.4l-2-5
		l2-1.3l-0.2-5.6L261,466l-3.1-6.1v0l-4.5-9.2l3-3.5l2.5,1.9l1,3l2.8,0.5l3.9,1.3l3.4-0.5l5.6-3.6v-25.6l1.7,1l3.7,6.5l-0.6,4.2
		l1.4,2.4l4.5-0.7l3.1-3.1l3-2.1l1.5-3.3l3-1.6l2.6,0.8l3,1.9l5.1,0.3l4-1.6l0.6-2.1l1.1-3.3l3.4-0.6l1.9-2.6l2.1-4.5l5.6-5l8.8-4.9
		l2.5,0.1l3,1.1l2.1-0.8l3.3,0.7l3,9.5l1.6,4.8l-1.1,7.6l0.5,2.5l-3.2-1.3l-1.8,0.5l-0.6,2l-1.7,2.6l0.1,2.4l3.7,3.8l3.6-0.8
		l1.3-3.1l4.7,0.1l-1.6,5.1l-0.7,5.8l-1.6,3.2L348.1,455.5z M332.2,453.4l-2.7-2.2l-2.9,1.4l-3.4,2.8l-3.3,4.5l4.7,5.5l2.2-0.7
		l1.2-2.3l3.5-1.1l1.1-2.3l1.9-3.5L332.2,453.4z"/>
	<path id="ZM" d="M355.8,323.2l2.9,2.8l1.6,5.3l-1.1,1.7l-1.2,5.1l1.2,5.2l-2,2.2l-1.9,5.9l3.3,1.6l-18.9,5.3l0.6,4.6l-4.7,0.9
		l-3.5,2.6l-0.8,2.2l-2.2,0.5l-5.4,5.3l-3.4,4.2l-2.1,0.2l-2-0.8l-7-0.7L308,377l-0.1-0.5l-2.4-1.5l-4-0.4l-5.1,1.5l-4.1-4l-4.2-5.3
		l0.3-20.4l13,0.1l-0.5-2.2l0.9-2.4l-1.1-3l0.7-3.1l-0.7-2l2.2,0.2l0.4,2l2.9-0.2l4,0.6l2.1,2.9l5,0.9l3.8-2l1.4,3.3l4.8,0.9
		l2.3,2.7l2.6,3.5l4.8,0.1l-0.5-6.9l-1.7,1.1l-4.4-2.4l-1.7-1.1l0.8-6.3l1.1-7.5l-1.4-2.8l1.8-4l1.7-0.7l8.4-1.1l2.4,0.6l2.6,1.6
		l2.5,1.1l4,1L355.8,323.2z"/>
	<path id="ZW" d="M346,407.3l-3.3-0.7l-2.1,0.8l-3-1.1l-2.5-0.1l-4-3l-4.8-1l-1.8-4.2l0-2.3l-2.7-0.7l-7.1-7.2l-2-3.8l-1.2-1.2
		l-2.4-5.2l7,0.7l2,0.8l2.1-0.2l3.4-4.2l5.4-5.3l2.2-0.5l0.8-2.2l3.5-2.6l4.7-0.9l0.4,2.4l5.2-0.1l2.9,1.4l1.3,1.6l3,0.5l3.2,2.1
		l0,8.2l-1.2,4.5l-0.3,4.9l1,2l-0.7,3.9l-1,0.6l-1.6,4.8L346,407.3z"/>
</g>
</svg>