<?xml version="1.0" encoding="utf-8"?>
<!-- Generator: Adobe Illustrator 28.3.0, SVG Export Plug-In . SVG Version: 6.00 Build 0)  -->
<svg version="1.1" xmlns:amcharts="http://amcharts.com/ammap"
	xmlns="http://www.w3.org/2000/svg" xmlns:xlink="http://www.w3.org/1999/xlink" x="0px" y="0px"
	viewBox="0 0 512 512"
	style="enable-background:new 0 0 512 512;" xml:space="preserve">
<defs>

		<amcharts:ammap  bottomLatitude="-10.243122" leftLongitude="34.243122" projection="mercator" rightLongitude="190.116828" topLatitude="81.253768">
		</amcharts:ammap>
</defs>
<g>
	<path id="AE" d="M70.1,389.2l0.5-0.2l0.1,0.9l2.4-0.5l2.5,0.1l1.8,0.1l2.1-2.3l2.3-2.2l1.9-2.1l0.6,1.1l0.4,2.7l-1.6,0l-0.3,2.2
		l0.5,0.5l-1.4,0.7l0,1.4l-0.9,1.4l-0.1,1.3l-0.6,0.7l-9.2-1.7l-1.2-3.4L70.1,389.2z"/>
	<path id="AF" d="M99.7,348.9l3.1,1.4l2.3-0.5l0.6-1.7l2.4-0.6l1.7-1.1l0.6-3.1l2.6-0.7l0.5-1.4l1.5,1l0.9,0.1l1.7,0l2.3,0.8
		l0.9,0.5l2.2-1.2l1,0.7l1-1.7l1.8,0.1l0.5-0.6l0.3-1.6l1.3-1.3l1.7,0.9l-0.3,1.2l0.9,0.2l-0.3,3.2l1.2,1.3l1.1-0.8l1.4-0.4l1.9-1.7
		l2.1,0.3h3.2l0.5,1.1l-1.8,0.4l-1.6,0.7l-3.5,0.4l-3.3,0.8l-1.8,1.7l0.7,1.6l0.4,1.9l-1.5,1.6l0.1,1.4l-0.8,1.3l-2.9-0.1l1.2,2.4
		l-1.9,0.9l-1.3,2.2l0.2,2.2l-1.2,1l-1.1-0.3l-2.4,0.5l-0.3,1h-2.3l-1.7,2l-0.1,3l-4,1.5l-2.1-0.3l-0.6,0.8l-1.8-0.4l-3.1,0.5
		l-5.1-1.8l2.8-3.2l-0.3-2.3l-2.3-0.6l-0.2-2.3l-1-2.9l1.3-2l-1.3-0.5l0.8-2.7L99.7,348.9z"/>
	<path id="BD" d="M196.1,396.5l-0.1,2.4l-1.1-0.5l0.2,2.6l-0.9-1.7l-0.2-1.7l-0.6-1.6l-1.3-1.9l-2.8-0.1l0.3,1.4l-1,1.8l-1.3-0.7
		l-0.4,0.6l-0.9-0.4l-1.2-0.3l-0.5-2.7l-1.1-2.5l0.5-2l-1.9-0.9l0.7-1.2l1.9-1.3l-2.2-1.8l1.1-2.3l2.4,1.5l1.5,0.2l0.3,2.4l2.9,0.5
		l2.9-0.1l1.8,0.6l-1.4,2.8l-1.4,0.2l-0.9,1.9l1.7,1.7l0.5-2.1l0.9,0L196.1,396.5z"/>
	<path id="BN" d="M262.2,451.5l1.2-1.1l2.6-1.7l-0.1,1.5l-0.2,1.9l-1.5-0.1l-0.6,1L262.2,451.5z"/>
	<path id="BT" d="M193.2,377.2l1.2,1.1l-0.2,2.1l-2.5,0.1l-2.6-0.2l-1.9,0.5l-2.8-1.3l-0.1-0.7l2-2.6l1.7-0.9l2.2,0.8l1.6,0.1
		L193.2,377.2z"/>
	<path id="CN" d="M251.7,402.9l0.7,1.2l-1.3,1.4l-0.7,1.9l-2.6,1.5l-2.5-1l-0.1-2.8l1.5-1.5l3.3-0.9L251.7,402.9z M320.9,297.2
		l-2.7,1.8h-4.7l-1.2-4.3l-3.6-3.3l-5.3-1.5l-1.1-4.7l-1.1-3l-1.1-2.1l-1.9-5l-2.7-1.9l-4.6-1.5l-4.1,0.1l-3.8,0.9l-2.5,2.5l1.7,1.2
		l0,2.8l-1.7,1.6l-2.8,5.2l0,2.1l-4.3,3l-3.7-1.8l-1.5,3.6l-2.2,4.6l0.8,1.9l1.7-0.6l3,0.7l2.4-1.7l2.5,1.5l2.8,3.2l-0.3,1.6
		l-2.4-0.5l-4.5,0.6l-2.2,1.3l-2.2,2.9l-4.7,1.7l-3.1,2.3l-3.1-0.9l-1.7-0.4l-1.6,2.8l1,1.6l0.5,1.4l-2.1,1.4l-2.2,2.2l-3.6,1.5
		l-4.6,0.2l-5,1.4l-3.6,2.2l-1.4-1.3h-3.7l-4.5-2.5l-3-0.6l-4.1,0.6l-6.3-0.9l-3.4,0.1l-1.8-2.5l-1.4-3.9l-1.9-0.5l-3.7-2.7
		l-4.1-0.6l-3.6-0.7l-1.1-1.9l1.2-5.2l-2.1-3.6l-4.4-1.7l-2.6-2.4l-0.8-3.2l-1.2,0.4l-2.3,3.1l-2.5,0.4l-0.1,4.6l-1.7,2l-6.1-1.5
		l-2.2,7.9l-1.6,1l-6.1,1.7l2.8,7.4l-2.1,1.1l0.2,2.4l-0.4,0.9l-4.8,2.2l-1.1,1.6l-3.9,0.5l-1.2,2.6l-3.2-0.5l-2.1,0.8l-2.9,1.9
		l0.4,0.9l-0.9,0.9l0.8,3.6l1-0.4l1.9,0.9l-0.1,1.5l0.5,2.2l0.5,1.1l2.3,1.8l0.9,2.9l4.8,1.5l0.2,0l4.2-1.5l3.1,1.5l-1,3l-1.7,2.4
		l-1.4,0.1h-0.1l-0.2,1.9l1.2,1.9l-0.1,1.8l-2.2-0.5l0.9,4l3,2.3l4.3,2.5l1.3-0.8l2.5,1.1l3.1,2.3l1.7,0.5l1,1.7l2.4,0.7l2.5,1.5
		l3.5,0.8l3.6,0.3l1.9-0.7l0.3,2.7l2-2.6l1.7-0.9l2.2,0.8l1.6,0.1l1.3,0.9l2.5-0.4l2.8-2.6l3.5-2.2l2.6,0.9l2.2-1.5l1.4,2.2l-1,1.5
		l3.3,0.5l1.8-0.3l1,2l1.3,0.8l0.1,2.6l-0.1,2.8l-2.9,2.8l-0.4,4l3.2-0.6l0.7,3.1l1.9,0.6l-0.9,2.7l2.3,1.2l1.3,0.6l2.3-1l0.1,1.4
		l0.3,0.8l1.6,0.1l-0.5-3.8l1.6-0.5l1.6-0.8l2.4,0l3-0.4l2.6-1.8l1.5,1.2l2.8,0.6l-0.5,1.9l1.5,1.3l3.1,0.9l1.5-0.5l4.1,1l-0.7,1.3
		l0.8,2.4l1.7-0.2l1-3.4l3.2-0.5l4.3-1.6l1.7-1.6l1.1,1.1l1.9-1.5l3.5-0.4l4.3-2.8l4.2-3.1l2.8-4l2.5-4.5l2.2-3.7l1.7-0.3l0.8-2.8
		l0.5-2.9l-1.8-1.1l-0.7-1.9l1.9-1l0.1-2.7l-2.1-2.8l-1.9-3.3l-1.2-3.6l-3.3-2l1.6-2.6l3-1.9l1.4-2l4.3-1.1l-0.5-2l-2-0.1l-2.7-1.5
		l-3.4,2.7l-2.4-1.1l-0.1-1.7l-2.5-0.6l-1.6-2.6l1.6-1.8l3-0.2l1.9-2.6l3.5-2.8l2.7-1.4l1.6,2.1l-2.4,2.7l0.6,1.5l-1.6,1.8l3.3-1.1
		l2.3-1.8l4.3-1.2l2.5-2.6l3.4-2.2l2.1-2.9l1.5,1.3l2.6,0.2l-0.5-2.2l4.7-1.8l1.2-2.3l2,2.4l0-2.1l1.6-0.1l0.4-5l-0.8-3.7l2.6-1.5
		l3.7,0.8l2.1-4.3l1-4.9l1.2-1.7l1.6-4.1L320.9,297.2z"/>
	<path id="ID" d="M282.1,496.7l-1.3,0.1l-4.1-2.2l2.9-0.6l1.6,0.9l1.1,0.9L282.1,496.7z M293.5,496.4l-2.6,0.7l-0.4-0.4l0.3-1
		l1.3-1.9l3-1.2l0.3,0.6l0.1,0.9L293.5,496.4z M273.5,490.1l1.1,0.8l1.9-0.3l0.8,1.3l-3.5,0.6l-2.1,0.4l-1.7,0l1-1.8l1.7,0
		L273.5,490.1z M288.9,490.1l-0.4,1.7l-4.6,0.9l-4.1-0.4l0-1.1l2.4-0.6l1.9,0.9l2-0.2L288.9,490.1z M245.1,486l5.9,0.3l0.7-1.3
		l5.7,1.5l1.1,2l4.6,0.6l3.8,1.8l-3.5,1.2l-3.4-1.2l-2.8,0.1l-3.2-0.2l-2.9-0.6l-3.6-1.2l-2.3-0.3l-1.3,0.4l-5.6-1.3l-0.5-1.3
		l-2.8-0.2l2.1-2.9l3.7,0.2l2.5,1.2l1.3,0.2L245.1,486z M325.1,484.3l-1.6,2.1l-0.3-2.3l0.5-1.1l0.6-1l0.7,0.9L325.1,484.3z
		 M302.2,475.9l-1.1,1l-2.1-0.6l-0.6-1.3l3.1-0.1L302.2,475.9z M312.1,474.8l1.1,2.3l-2.6-1.3l-2.6-0.3l-1.7,0.2l-2.1-0.1l0.7-1.7
		l3.8-0.1L312.1,474.8z M323.3,468.8l0.9,4.9l3.2,1.8l2.6-3.2l3.5-1.8h2.7l2.6,1.1l2.3,1.1l3.3,0.6l0.1,10l0.1,10l-2.7-2.5l-3.1-0.6
		l-0.8,0.9l-3.9,0.1l1.3-2.5l1.9-0.9l-0.8-3.3l-1.5-2.6l-5.9-2.6l-2.5-0.3l-4.6-2.8l-0.9,1.5l-1.2,0.3l-0.7-1.1l0-1.3l-2.3-1.5
		l3.3-1.1l2.2,0.1l-0.3-0.8l-4.5,0l-1.2-1.8l-2.7-0.6l-1.3-1.5l4.1-0.7l1.6-1l4.9,1.2L323.3,468.8z M296,461l-2.5,3l-2.3,0.6l-3-0.6
		l-5.1,0.2l-2.7,0.4l-0.4,2.3l2.7,2.7l1.7-1.4l5.7-1l-0.3,1.4l-1.3-0.4l-1.3,1.8l-2.7,1.2l2.9,3.9l-0.6,1l2.8,3.5l0,2l-1.6,0.9
		l-1.2-1.1l1.5-2.5l-3,1.2l-0.8-0.8l0.4-1.2l-2.2-1.8l0.2-3l-2,0.9l0.3,3.6l0.1,4.4l-1.9,0.4l-1.3-0.9l0.9-2.8l-0.5-2.9l-1.3,0
		l-1-2.1l1.3-2l0.4-2.4l1.5-4.6l0.6-1.3l2.6-2.3l2.4,0.9l3.9,0.4l3.5-0.1l3-2.2L296,461z M306.6,461.9l-0.2,2.7l-1.6-0.3l-0.5,1.8
		l1.3,1.6l-0.9,0.4l-1.2-1.9l-0.9-3.9l0.6-2.4l1-1.1l0.2,1.7l1.8,0.3L306.6,461.9z M273.4,459.8l3.4,2.8l-3.6,0.4l-1,2.1l0.1,2.8
		l-3,2.1l-0.1,3l-1.2,4.7l-0.4-1.1l-3.5,1.4L263,476l-2.2-0.2l-1.5-1l-3.6,1.1l-1.1-1.5l-2,0.2l-2.5-0.3l-0.5-4.1l-1.5-0.8l-1.5-2.6
		l-0.4-2.7l0.4-2.8l1.8-2l0.5,2l2.1,1.7l2-0.6l2,0.2l1.8-1.5l1.5-0.3l2.9,0.9l2.5-0.6l1.6-4.2l1.2-1.1l1.1-3.5h3.5l2.7,0.5l-1.7,2.8
		l2.3,2.9L273.4,459.8z M236.5,483.2l-3.4,0.1l-2.6-2.6l-3.9-2.5l-1.3-1.8l-2.3-2.5l-1.5-2.3l-2.3-4.3l-2.7-2.5l-0.9-2.6l-1.1-2.4
		l-2.8-1.9l-1.6-2.6l-2.3-1.7l-3.2-3.4l-0.3-1.6l2,0.1l4.7,0.6l2.7,3l2.4,2.1l1.7,1.3l2.9,3.3l3.1,0l2.6,2.1l1.8,2.5l2.3,1.4
		l-1.2,2.5l1.8,1.1l1.1,0.1l0.5,2.1l1.1,1.7l2.3,0.3l1.5,1.9l-0.8,3.8L236.5,483.2z"/>
	<path id="IL" d="M21.5,359.7l-0.5,1.1l-1.1-0.5l-0.6,2.4l0.8,0.4l-0.8,0.5l-0.1,0.9l1.4-0.5l0.1,1.4l-1.5,5.7l-2-6.1l0.9-1.2
		l-0.2-0.2l0.8-1.7l0.6-2.7l0.4-0.9l0.1,0h1l0.3-0.6l0.8-0.1l0,1.5L21.5,359.7L21.5,359.7z"/>
	<path id="IN" d="M210.7,376.8l-0.2-1.3l-3.3-0.5l1-1.5l-1.4-2.2l-2.2,1.5L202,372l-3.5,2.2l-2.8,2.6l-2.5,0.4l1.2,1.1l-0.2,2.1
		l-2.5,0.1l-2.6-0.2l-1.9,0.5l-2.8-1.3l-0.1-0.7l-0.3-2.7l-1.9,0.7l-0.2,1.5l0.4,2.2l-0.3,1.4l-2.5,0.1l-3.7-0.8l-2.4-0.3l-1.8-1.7
		l-4.2-0.4l-4-1.9l-2.9-1.7l-3-1.3l1.2-3.3l1.9-1.6l-4.3-2.5l-3-2.3l-0.9-4l2.2,0.5l0.1-1.8l-1.2-1.9l0.2-1.9h0.1l1.4-0.1l1.7-2.4
		l1-3l-3.1-1.5l-4.2,1.5l-0.2,0l0.2,0.1l-5-1.5l-0.9-2.9l-2.3-1.8l-1.8,0.4l-1.6,0.7l-1.4,0.2l-0.1,0.1l-3.4,2.6l0.4,1.3l1,0
		l3.3,2.9l-2,1.8l0.6,5.2l2.6,1.1l0.1,0l0,0l2.5,1.8l-2.6,2.1l0,2.5l-3,3.5l-1.9,3.6l-3.2,3.6l-3.6-0.3l-3.4,3.6l2,1.5l0.3,2.6
		l1.7,1.7l0.6,2.9l-6.7,0l-2,2.2l3.6,2.8l0.9,1.3l-1.5,1.2l4,4l2.2,0.4l4.5-2l0.6,3.1l0,3.9l0.9,4.1l1.3,6.2l2.8,4.3l0.5,2l0.8,3.9
		l1.6,3l1.1,1.5l1.2,3.1l1.4,4.3l2.9,2.9l1.2-0.9l1-2.1l2.8-0.9l-0.9-1l1.4-2.4l1.6-0.2l0-5.3l1.3-3l-0.2-2.6l-0.6-4.1l0.9-2.4
		l1.4-0.2l2.8-1.1l1.5-0.8v-1.5l3.1-2.1l2.3-2l3.4-3.8l4.4-2.2l1.6-1.9l-0.2-2.5l3.8-0.7l2.1,0l0.4-1.2l-0.5-2.7l-1.1-2.5l0.5-2
		l-1.9-0.9l0.7-1.2l1.9-1.3l-2.2-1.8l1.1-2.3l2.4,1.5l1.5,0.2l0.3,2.4l2.9,0.5l2.9-0.1l1.8,0.6l-1.4,2.8l-1.4,0.2l-0.9,1.9l1.7,1.7
		l0.5-2.1l0.9,0l1.6,5.2l1.5-0.8l-0.3-1.4l0.7-1.1l0.1-3.4l2.4,0.8l1.4-2.8l0.2-1.6l1.7-2.8l-0.1-1.9l4-2.4l2.2,0.6l-0.3-2.1
		L210.7,376.8z"/>
	<path id="IQ" d="M51.3,347.7l2,1.1l0.2,2.2l-1.6,1.3l-0.7,2.9l2.1,3.5l3.8,2l1.6,2.7l-0.5,2.6h1l0,1.9l1.7,1.8l-1.8-0.2l-2.1-0.3
		l-2.3,3.4l-5.7-0.3l-8.6-7.1l-4.6-2.5l-3.7-1l-1.2-4.4l6.8-3.8l1.2-4.5l-0.3-2.8l1.7-0.9l1.6-2.4l1.3-0.6l3.6,0.5l1.1,1l1.5-0.6
		L51.3,347.7z"/>
	<path id="IR" d="M77.3,343l2.7-0.7l2.2-2.2l2,0.1l1.3-0.7l2.2,0.4l3.4,2l2.4,0.4l3.5,3.4l2.3,0.1l0.3,3.2l-1.2,4.6l-0.8,2.7
		l1.3,0.5l-1.3,2l1,2.9l0.2,2.3l2.3,0.6l0.3,2.3l-2.8,3.2l1.5,1.8l1.2,2.1l2.9,1.5l0.1,3l1.5,0.6l0.3,1.6l-4.4,1.8l-1.2,3.9l-5.8-1
		l-3.3-0.8l-3.5-0.4l-1.3-4.2l-1.5-0.6l-2.4,0.6l-3.1,1.7l-3.8-1.1l-3.1-2.6l-3-1l-2-3.3l-2.3-4.7l-1.7,0.6l-1.9-1.2l-1.1,1.4
		l-1.7-1.8l0-1.9h-1l0.5-2.6l-1.6-2.7l-3.8-2l-2.1-3.5l0.7-2.9l1.6-1.3l-0.2-2.2l-2-1.1l-2-4.5l-1.7-3.1l0.6-1.2l-1-4.5l2.1-1.1
		l0.5,1.5l1.6,1.8l2.1,0.5l1.1-0.1l3.6-2.9l1.1-0.3l0.9,1.2l-1,1.9l1.9,2l0.8-0.2l1,2.9l2.9,0.8l2.1,1.9l4.4,0.7l4.8-1L77.3,343z"/>
	<path id="JO" d="M21,360.9l0.5-1.1l3.4,1.4l6-3.9l1.2,4.4l-0.6,0.5l-6.1,1.8l3.1,3.6l-1,0.6l-0.5,1.2l-2.3,0.5l-0.7,1.3l-1.3,1.1
		l-3.4-0.6l-0.1-0.5l1.5-5.7l-0.1-1.4l0.5-1V360.9z"/>
	<path id="JP" d="M324.8,354.5l0.4,1.3l-1.7,2.2l-1.3-1.2l-1.6,0.9l-0.8,2.1l-2-1l0-1.7l1.7-2.2l1.7,0.4l1.3-1.6L324.8,354.5z
		 M344.3,343.2l-1.2,3l0.5,1.9l-1.6,2.6l-3.9,1.7l-5.4,0.2l-4.4,4.2l-2.1-1.4l-0.1-2.8l-5.3,0.8l-3.6,1.7l-3.6,0.1l3.1,2.7l-2,6.1
		l-2,1.5l-1.5-1.4l0.8-3.2l-1.9-1l-1.2-2.5l2.9-1.1l1.6-2.3l3.1-1.9l2.3-2.5l6.1-1.1l3.3,0.8l3.2-6.7l2,1.8l4.5-3.8l1.7-1.5l1.9-4.8
		l-0.5-4.5l1.3-2.5l3.3-0.7l1.7,5.6l-0.1,3.2l-2.8,3.9L344.3,343.2z M353.3,314.9l2.2,0.9l2.2-1.8l0.7,4.8l-4.5,1.1L351,324
		l-4.8-2.8l-1.7,4.5l-3.4,0.1l-0.4-4.1l1.5-3.2l3.3-0.2l0.9-5.9l0.9-3.4l3.6,4.5L353.3,314.9z"/>
	<path id="KG" d="M129.6,322.9l0.7-1.8l2-0.6l5.1,1.4l0.5-2.4l1.7-0.9l4.4,1.8l1.1-0.5l5.1,0.1l4.5,0.4l1.5,1.5l1.9,0.6l-0.4,0.9
		l-4.8,2.2l-1.1,1.6l-3.9,0.5l-1.2,2.6l-3.2-0.5l-2.1,0.8l-2.9,1.9l0.4,0.9l-0.9,0.9l-5.8,0.6l-3.8-1.3l-3.3,0.3l0.3-2.3l3.3,0.7
		l1.1-1.2l2.3,0.4l3.9-2.9l-3.6-2.1l-2.2,1l-2.3-1.5l2.6-2.7L129.6,322.9z"/>
	<path id="KH" d="M229.3,432.8l-1.2-1.6l-1.5-3.2l-0.7-3.8l2-2.6l4-0.6l2.9,0.4l2.5,1.2l1.4-2.2l2.7,1.2l0.7,2.1l-0.4,3.7l-5.2,2.4
		l1.3,1.9l-3.2,0.2l-2.7,1.2L229.3,432.8z"/>
	<path id="KP" d="M312.6,322.3l0.4,0.7l-1.2-0.3l-1.3,1.4l-0.9,1.4l0.1,2.9l-1.6,0.9l-0.5,0.7l-1.2,1.2l-2,0.7L303,333l-0.1,1.7
		l-0.4,0.4l1.2,0.6l1.7,1.7l-0.4,0.9l-1.3,0.3l-2.2,0.2l-1.2,1.7l-1.4-0.1l-0.2,0.3l-1.5-0.7l-0.4,0.7l-0.9,0.3l-0.1-0.7l-0.8-0.3
		l-0.8-0.6l0.8-1.7l0.7-0.5l-0.3-0.7l0.8-2.1l-0.2-0.6l-1.8-0.4l-1.4-1.1l2.5-2.6l3.4-2.2l2.1-2.9l1.5,1.3l2.6,0.2l-0.5-2.2l4.7-1.8
		l1.2-2.3L312.6,322.3z"/>
	<path id="KR" d="M305.5,337.5l2.6,4.6l0.8,2.5l0,4.4l-1.1,2.1l-2.8,0.7l-2.4,1.5l-2.8,0.3l-0.3-2l0.6-2.8l-1.4-3.9l2.3-0.6
		l-2.1-3.3l0.2-0.3l1.4,0.1l1.2-1.7l2.2-0.2l1.3-0.3L305.5,337.5z"/>
	<path id="KW" d="M59.1,369.5l0.6,1.5l-0.3,0.8l1,2.6l-2.2,0.1l-0.8-1.7l-2.7-0.3l2.3-3.4L59.1,369.5z"/>
	<path id="KZ" d="M129.6,322.9l-1.8,0.8l-4,2.9l-1.3,2.9l-1.1,0l-0.8-1.9l-3.9-0.1l-0.6-3.3l-1.5,0l0.2-4.2l-3.7-3.1l-5.3,0.3
		l-3.6,0.6l-2.9-3.8l-2.5-1.6l-4.8-3.1l-0.6-0.4l-7.9,2.6l0.1,15.5L82,327l-2.1-3.2l-2.1-1.2l-3.5,0.9l-1.4,1.4l-0.2-1l0.8-1.7
		l-0.6-1.4l-3.6-1.4l-1.4-3.8l-1.7-1.1l-0.1-1.4l3,0.4l0.1-3.1l2.6-0.7l2.7,0.6l0.6-4.3l-0.5-2.7l-3.1,0.2l-2.6-1.1l-3.6,2l-2.9,0.9
		l-1.6-0.7l0.3-2.3l-2-3l-2.3,0.1l-2.6-3.1l1.8-3.5l-0.9-1l2.4-5.2l3.2,2.8l0.4-3.5l6.3-5.3l4.8-0.1l6.8,3.4l3.6,2l3.3-2l4.9-0.1
		l3.9,2.5l0.9-1.4l4.3,0.2l0.8-2.3l-5-3.4l2.9-2.4l-0.6-1.4l2.9-1.3l-2.2-3.5l1.4-1.8l11.5-1.8l1.5-1.3l7.7-2l2.8-2.2l5.5,1.2l1,5.5
		l3.2-1.3l3.9,1.8l-0.3,2.8l2.9-0.3l7.7-4.9l-1.1,1.6l3.9,4l6.8,12.7l1.6-2.5l4.2,2.8l4.4-1.2l1.7,0.9l1.5,2.8l2.1,0.9l1.3,2
		l3.9-0.6l1.6,2.9l-2.3,3.1l-2.5,0.4l-0.1,4.6l-1.7,2L167,301l-2.2,7.9l-1.6,1l-6.1,1.7l2.8,7.4l-2.1,1.1l0.2,2.4l-1.9-0.6l-1.5-1.5
		l-4.5-0.4l-5.1-0.1l-1.1,0.5l-4.4-1.8l-1.7,0.9l-0.5,2.4l-5.1-1.4l-2,0.6L129.6,322.9z"/>
	<path id="LA" d="M234.6,421.4l1-1.4l0.1-2.7l-2.5-2.8l-0.2-3.1l-2.3-2.6l-2.3-0.2l-0.6,1.1l-1.8,0.1l-0.9-0.6l-3.2,1.9l-0.1-2.9
		l0.8-3.4l-2.1-0.1l-0.2-1.9l-1.3-1l0.7-1.2l2.6-2.1l0.3,0.8l1.6,0.1l-0.5-3.8l1.6-0.5l1.8,2.6l1.4,3l3.8,0l1.2,2.8l-2,0.8l-0.9,1.2
		l3.7,1.9l2.5,3.8l1.9,2.8l2.3,2.2l0.8,2.2l-0.6,3.1l-2.7-1.2l-1.4,2.2L234.6,421.4z"/>
	<path id="LB" d="M21.8,357.7l-0.8,0.1l-0.3,0.6h-1l1.1-3l1.5-2.6l0.1-0.1l1.4,0.2l0.5,1.4l-1.7,1.4L21.8,357.7z"/>
	<path id="LK" d="M162.8,442.4l-0.5,3.2l-1.3,0.9l-2.7,0.7l-1.5-2.4l-0.5-4.4l1.4-5l2.1,1.7l1.4,2.2L162.8,442.4z"/>
	<path id="MM" d="M217.2,402.5l-1.8,1.4l-2.2,0.2l-1.4,3.5l-1.3,0.6l1.5,2.8l1.9,2.3l1.2,2.1l-1.1,2.8l-1.1,0.6l0.7,1.6l2,2.5
		l0.3,1.7l-0.1,1.5l1.2,2.8l-1.7,2.9l-1.5,3.2l-0.3-2.3l0.9-2.4l-1-1.8l0.3-3.4l-1.2-1.6l-1-3.8l-0.6-4l-1.3-2.6l-2,1.6l-3.5,2.3
		l-1.7-0.3l-1.9-0.7l1.1-3.9l-0.6-3l-2.4-3.7l0.4-1.2l-1.8-0.4l-2.2-2.6l-0.2-2.6l1.1,0.5l0.1-2.4l1.5-0.8l-0.3-1.4l0.7-1.1l0.1-3.4
		l2.4,0.8l1.4-2.8l0.2-1.6l1.7-2.8l-0.1-1.9l4-2.4l2.2,0.6l-0.3-2.1l1.1-0.6l-0.2-1.3l1.8-0.3l1,2l1.3,0.8l0.1,2.6l-0.1,2.8
		l-2.9,2.8l-0.4,4l3.2-0.5l0.7,3.1l1.9,0.6l-0.9,2.7l2.3,1.2l1.3,0.6l2.2-1l0.1,1.4l-2.6,2.1l-0.7,1.2L217.2,402.5z"/>
	<path id="MN" d="M181.1,292l3.2-0.8l5.9-4.1l4.7-2.3l2.7,1.5l3.2,0.1l2,2.2l3.1,0.2l4.4,1.2l3-3.3l-1.2-2.8l3.2-5.1l3.4,2l2.8,0.6
		l3.6,1.3l0.6,3.6l4.4,2l2.9-0.9l3.9-0.6l3.1,0.6l3,2.3l1.9,2.4l2.8,0l3.9,0.8l2.8-1.2l4-0.8l4.5-3.3l1.8,0.5l1.6,1.6l3.7-0.4
		l-1.5,3.6l-2.2,4.6l0.8,1.9l1.7-0.6l3,0.7l2.4-1.7l2.5,1.5l2.8,3.2l-0.3,1.6l-2.4-0.5L272,304l-2.2,1.3l-2.2,2.9l-4.7,1.7l-3.1,2.3
		l-3.1-0.9l-1.7-0.4l-1.6,2.8l1,1.6l0.5,1.4l-2.2,1.4l-2.2,2.2l-3.6,1.5l-4.6,0.2l-5,1.4l-3.6,2.2l-1.4-1.3h-3.7l-4.5-2.5l-3-0.6
		l-4.1,0.6l-6.3-0.9l-3.4,0.1l-1.8-2.5l-1.4-3.9l-1.9-0.5l-3.7-2.7l-4.1-0.6l-3.6-0.7l-1.1-1.9l1.2-5.2l-2.1-3.6l-4.4-1.7l-2.6-2.4
		L181.1,292z"/>
	<path id="MY" d="M221.9,446.4l0.2,1.6l2-0.4l1-1.3l0.7,0.3l1.8,1.8l1.3,2l0.2,2.1l-0.3,1.4l0.3,1l0.2,1.8l1.1,0.8l1.2,2.7l-0.1,1
		l-2.2,0.2l-2.9-2.3l-3.6-2.4l-0.4-1.6l-1.8-2l-0.4-2.5l-1.1-1.7l0.3-2.2l-0.7-1.3l0.5-0.5L221.9,446.4z M275.7,451.7l-2.3,1
		l-2.7-0.5h-3.5l-1.1,3.5l-1.2,1.1l-1.6,4.2l-2.5,0.6l-2.9-0.9l-1.5,0.3l-1.8,1.5l-2-0.2l-2,0.6l-2.1-1.7l-0.5-2l2.2,1l2.4-0.6
		l0.6-2.6l1.3-0.6l3.7-0.7l2.2-2.4l1.5-1.9l1.4,1.6l0.6-1l1.5,0.1l0.2-1.9l0.1-1.5l2.4-2.1l1.5-2.4l1.2,0l1.6,1.6l0.1,1.3l2,0.9
		l2.6,0.9l-0.2,1.2l-2.1,0.2L275.7,451.7z"/>
	<path id="NP" d="M182.2,376.8l-0.2,1.5l0.4,2.2l-0.3,1.4l-2.5,0.1l-3.7-0.8l-2.4-0.3l-1.8-1.7l-4.2-0.4l-4-1.9l-2.9-1.7l-3-1.3
		l1.2-3.3l1.9-1.6l1.3-0.9l2.5,1.1l3.1,2.3l1.7,0.5l1,1.7l2.4,0.7l2.5,1.5l3.5,0.8L182.2,376.8z"/>
	<path id="OM" d="M92.5,399.5l-1.1,2.2l-1.4-0.2l-0.6,0.8l-0.5,1.6l0.4,2.2l-0.3,0.4l-1.4,0l-1.9,1.2l-0.3,1.6l-0.7,0.7l-1.9,0
		l-1.2,0.8l0,1.3l-1.5,0.9l-1.7-0.3l-2.1,1.1l-1.4,0.2l-1-2.2l-2.4-5.3l9.2-3.2l2-6.5l-1.4-2.3l0.1-1.3l0.9-1.4l0-1.4l1.4-0.7
		l-0.5-0.5l0.3-2.2l1.6,0l1.4,2.3l1.7,1.2l2.3,0.4l1.8,0.6l1.4,1.9l0.8,1.1l1.1,0.4l0,0.7l-1.1,2l-0.5,0.9L92.5,399.5z M84.9,383.6
		l-0.4,0.6l-0.6-1.2l0.9-1.2l0.4,0.3L84.9,383.6z"/>
	<path id="PH" d="M299.5,439.6l0.3,2l0.2,1.7l-1,2.8l-1.1-3.1l-1.4,1.6l1,2.3l-0.9,1.4l-3.6-1.8l-0.9-2.2l0.9-1.5l-1.9-1.5l-1,1.3
		l-1.4-0.1l-2.3,1.7l-0.5-0.9l1.2-2.6l1.9-0.9l1.7-1.2l1.1,1.4l2.3-0.8l0.5-1.4l2.2-0.1l-0.2-2.4l2.5,1.5l0.3,1.6L299.5,439.6z
		 M292.2,433.9l-1.1,1l-1,2l-1,0.9l-1.9-2.1l0.6-0.8l0.8-0.9l0.3-1.9l1.7-0.2l-0.5,2.1l2.3-3L292.2,433.9z M275.4,436.8l-4.1,2.9
		l1.5-2.2l2.2-1.9l1.8-2.1l1.6-3.1l0.5,2.5l-2,1.7L275.4,436.8z M285.7,428.8l1.8,1h1.9l-0.1,1.3l-1.4,1.3l-1.9,0.9l-0.1-1.4
		l0.2-1.6L285.7,428.8z M296.8,428l0.9,3.5l-2.4-0.8l0.1,1l0.8,1.9l-1.5,0.7l-0.1-2.2l-0.9-0.2l-0.5-1.9l1.8,0.3l0-1.2l-1.9-2.4
		l2.9,0.1L296.8,428z M284.6,425.2l-0.8,2.7l-1.3-1.6l-1.6-2.4l2.6,0.1L284.6,425.2z M284,408l1.9,0.9l0.9-0.8l0.3,0.8l-0.5,1.3
		l1,2.3l-0.8,2.6l-1.8,1l-0.5,2.5l0.7,2.5l1.6,0.3l1.4-0.4l3.8,1.7l-0.3,1.7l1,0.8l-0.3,1.4l-2.4-1.5l-1.1-1.6l-0.8,1.1l-2-1.9
		l-2.8,0.5l-1.5-0.7l0.2-1.3l1-0.8l-0.9-0.7l-0.4,1.1l-1.5-1.8l-0.5-1.4l-0.1-3l1.2,1l0.3-5l1-2.9L284,408z"/>
	<path id="PK" d="M137.6,358.4l-0.6-5.2l2-1.8l-3.3-2.9l-1,0l-0.4-1.3l3.4-2.6l0.1-0.1l-2.1,0.3l-3.3,0.8l-1.8,1.7l0.7,1.6l0.4,1.9
		l-1.5,1.6l0.1,1.4l-0.8,1.3l-2.9-0.1l1.2,2.4l-1.9,0.9l-1.3,2.2l0.2,2.2l-1.2,1l-1.1-0.3l-2.4,0.5l-0.3,1h-2.3l-1.7,2l-0.1,3
		l-4,1.5l-2.1-0.3l-0.6,0.8l-1.8-0.4l-3.1,0.5l-5.1-1.8l1.5,1.8l1.2,2.1l2.9,1.5l0.1,3l1.5,0.6l0.3,1.6l-4.4,1.8l-1.2,3.9l4.3-0.5
		l5-0.1l5.6-0.6l2.4,2.6l0.9,2.4l2.2,0.8l2-2.2l6.7,0l-0.6-2.9l-1.7-1.7l-0.3-2.6l-2-1.5l3.4-3.6l3.6,0.3l3.2-3.6l1.9-3.6l3-3.5
		l0-2.5l2.6-2.1l-2.5-1.8l0,0l-0.1,0L137.6,358.4z"/>
	<path id="PS" d="M21,360.9v2.2l-0.5,1l-1.4,0.5l0.1-0.9l0.8-0.5l-0.8-0.4l0.6-2.4L21,360.9z"/>
	<path id="QA" d="M67.8,387.4l-0.2-2.4l0.8-1.8l0.8-0.4l0.9,1.1l0.1,2l-0.7,2l-0.9,0.2L67.8,387.4z"/>
	<path id="RU-asia" d="M347.6,123.3l4.4,4.2l0.4,2.8l-4.6,0.1l-6.3-1.2l-0.5-0.6l2.9-4.3L347.6,123.3z M234.2,66.1l0.9-6.3l-7.8-9.1
		l-2.3-1.1l-2.5,1.9l-5.6,20.3L234.2,66.1z M370.6,113.9l3.5-4.6l-7.7-3.1l-5.7-1.8l-0.7,3.9l5.7,4.7L370.6,113.9z M463.9,154l4-0.6
		l3.2-2.3l0.3-1.3l-4.4-2.7l-2.6,0l-0.4,0.4l-3.9,4l0.5,3L463.9,154z M343.1,112.1l11.3,0.3l2.4-8.9l-11.1-6.6l-8.1-0.6l-4,2.4
		l-1.7,8.5l6.1,7.7L343.1,112.1z M198.1,48.3l5.1,6.3l8.5,4.6l6.7-2l0.8-14.9l-7.1-17.5l-6-9.9l-6.6,4.5l-8,12.9l4.2,3.6L198.1,48.3
		z M488.9,187.4l-8.3-1.2l0.7,5.6l-2.1-1.9l0.3-4.9l-8-8l-7.5-6.4l-4.3-3.8l-8.8-4.2l-6.4,0.5l-9.8-2.5l-1.4,4l2.5,5.5l-3.8,2.7
		l-5.3-7.6l-5.8,1l-5.8-1.7l-5.4,0.2l-4.1,1.8l-3.8-2.5l0.4-6.6l-2.5-3.8l-6.1-1.5l-12.4,1.8l-8-7.3l-2.6-5.9l-27.7-6.6l-4,4.5
		l2.2,9.2l-5-1.4l-2.3,2.7l-5.9-3l-5.2,2.6l-4.9-4.4l-3,10l-4.8-3.8l-3.8-7.6l1.8-4.2l-1.4-6.6l-5-5.6l-4.9,0.1l-6.5-1.9l-0.2,8.2
		l-12.8-1.6l-0.7-5l-9.8-1.8l-4.9,1.7l-1.3,2.8l-1.6-7l-2.8,2.1l-4.5-2.8l-3.8-1.6l2.3-3.4l8.1-6.5l3.4-3.5l0.8-6.4l-2.5-4.8
		l-6.9-6.4l-9-0.2l-2.8,3.2l-0.8-6.6l-6.9-2.1l4.2-3.4l-5.3-4.6l-7.2,5.8l-2.9,5.8l-0.8,5.7l-5.6-0.2l-6.9,6.8l-2.5-2.9l-8,1.2
		l-1,3.4l-8.1,1.7l-6,6l-3.5,0.3l-3.6,7.7l2.5,5.9l-6.6,1.4l-7.4-0.5l-5.3,2.2l0.3,11.2l2.7,8.3l-5.7-5.7l-6.4,0.5l-5.1,3.9l1.4,7
		l-3.3-1.7l1.2-9.5l-1.6-5.7l-1.5,0.2l0.7,7.2l-5.5,6.6l4,7.7l-2.4,9.1l0.7,4.8l3.4,0.7l-1.4,5.6l1.8,4.7l-2.7,3.8l-0.8,3.9l-3.4,2
		l-1.2,2.7l-3.5-1.1l6-11.2l1.3-5.5l-3.4-5.2l0.7-12.1l-1-6.5l-1.9-3l2.9-8l-0.6-5.7l-8.1-2.7l-2.3,2.1l-2,9.2l-5.7,8.7l0.1,3
		l1.6,7.1l-1,4.2l3.7,0.9l0.1,1.8l3.1,4.5l-2.1,4.3l-1.7-1.5l1,8l-2.2,4.4l-4.1,4.2l-4.3,3.4l-5.3,5.9l-5.7,4.5l-2.1,21.8l-1.5,9.7
		l-1.9,5.5l-1.9,3.9l-2.4,3l-0.6,2.6l2.3,1.9l0.3,2.4l-1.8,2.9l-2.8,0.7l-3.4,0.4l1.4,2.7l1.3,2l2,2.5l2.1-1.6l2-1.2l2.1,1.2
		l0.8,1.9l-1.5,1.5L93,273l0.1,2.9l2.1,0.7l0.9,2.1l0.3,0.1l2.5-2.1l-0.6-1.4l2.9-1.3l-2.2-3.5l1.4-1.8l11.5-1.8l1.5-1.3l7.7-2
		l2.8-2.2l5.5,1.2l1,5.5l3.2-1.3l3.9,1.8l-0.3,2.8l2.9-0.3l7.7-4.9l-1.1,1.6l3.9,4l6.9,12.7l1.6-2.5l4.2,2.8l4.4-1.2l1.7,0.9
		l1.5,2.8l2.1,0.9l1.3,2l3.9-0.6l1.6,2.9l1.2-0.4l3.2-0.8l5.9-4.1l4.7-2.3l2.7,1.5l3.2,0.1l2,2.2l3.1,0.2l4.4,1.2l3-3.3l-1.2-2.8
		l3.2-5.1l3.4,2l2.8,0.6l3.6,1.3l0.6,3.6l4.4,2l2.9-0.9l3.9-0.6l3.1,0.6l3,2.3l1.9,2.4l2.8,0l3.9,0.8l2.8-1.2l4-0.8l4.5-3.3l1.8,0.5
		l1.6,1.6l3.7-0.4l3.7,1.8l4.3-3l0-2.1l2.8-5.2l1.7-1.6l0-2.8l-1.7-1.2l2.5-2.5l3.8-0.9l4.1-0.1l4.6,1.5l2.7,1.9l1.9,5l1.1,2.1
		l1.1,3l1.1,4.7l5.3,1.5l3.6,3.3l1.2,4.3h4.7l2.7-1.8l5.1-1.4l-1.6,4.1l-1.2,1.7l-1,4.9l-2.1,4.3l-3.7-0.8l-2.6,1.5l0.8,3.7l-0.4,5
		l-1.6,0.1l0,2.1l0.4,0.7l0.5-1.4l4.1-3.1l1.9,2l1.9-0.1l4.1-2.5l2-2.5l4.1-5l4.2-5.1l1-3.1l4.6-6.6l1.4-7.5l0.3-5.8l2.4-4.9
		l-0.1-4.3l-4.4-5.7l-3.4-0.3l-2,2.6l-3-1.1l-1.5-3.3l-4.8-0.7l11.8-12.9l9.9-11.3l10.1-1.8l9.4,1l3.8-3l4.8,0.9l-0.2,4.3l4.7-0.6
		l6.8-1.6l-2.5-3.7l7.7-10.5l7.9-2.2l2.5,7.8l7.8-7l1.8-5.4l3.7-0.6l-2.5,9.2l-5.5,5l-5.3,6.3l-5.5,7.4l-4.8,1.3l-0.2,2.7l-2.6,3.4
		l-1.5,7.6l1.7,11.6l1.3,7.3l1.1,3.4l4.4-4.6l0.9-5.1l4.6-1.2l1.1-5.9l5.4-2.7l-1.3-2.3l1.3-4.5l2.8-0.2l0.4-8.2l-3.5-1.3l-0.1-2.3
		l3.7-5.7l1-4l4.1,0.8l3-2.6l1.4,2.3l8-4.8l4.4,4.3l1.1-2.8l4.5-3.8l4.7-4.5l2.7-0.8l8.6-4.9l5.7,1.4l0.8-1.7l-0.4-2.8l-1.4-1.8
		l-1.8-5.7l-2.8-3.8l4,0.5l3.9-3.2l0,0l1.7-3.1l-1.4-3.5l3.7-1.8l-0.7,2.8l1.7,2.6l3.5-1l3.1,1.2l0.7,3.2l4.1,2.1l2.3,2.5l2.9,0.2
		l1.2-1.5l0.1-7.1l5-0.8l3-3.2L488.9,187.4z M355.5,293.5l-3.1-8.4l-1.3-4.9l0.1-4.9l-1.1-4.9l-0.8-3.4l-1.4,0.7l1.2,2.4l-2.8,2.4
		l-0.3,6.9l1.8,4.8l-0.1,6.4l-0.7,3.5l0.3,5l-0.3,4.4l0.6,3.7l2-3.4l2.3,2.7l0.1-3.1l-3-4.6l1.9-6.7L355.5,293.5z"/>
	<path id="SA" d="M43.2,414.9l-0.4-1.4l-0.9-1l-0.2-1.3l-1.6-1.1l-1.6-2.7l-0.9-2.6l-2.1-2.2L34,402l-2-3.1l-0.3-2.3l0.1-2L30,391
		l-1.4-1.3l-1.7-0.7l-1-1.9l0.2-0.8l-0.9-1.7l-0.9-0.8l-1.2-2.5l-1.9-2.8l-1.6-2.4l-1.5,0l0.5-1.9l0.1-1.2l0.4-1.4l3.4,0.6l1.3-1.1
		l0.7-1.3l2.3-0.5l0.5-1.2l1-0.6l-3.1-3.6l6.1-1.8l0.6-0.5l3.7,1l4.6,2.5l8.6,7.1l5.7,0.3l2.7,0.3l0.8,1.7l2.2-0.1l1.2,3l1.5,0.8
		l0.5,1.2l2.1,1.4l0.2,1.4l-0.3,1.1l0.4,1.1l0.9,1l0.4,1.1l0.5,0.8l0.9,0.7l0.9-0.2l0.6,1.3l0.1,0.8l1.2,3.4l9.2,1.7l0.6-0.7
		l1.4,2.3l-2,6.5l-9.2,3.2l-8.8,1.2l-2.9,1.4l-2.2,3.4l-1.4,0.5l-0.8-1.1l-1.2,0.2l-3-0.3l-0.6-0.3l-3.5,0.1l-0.8,0.3l-1.3-0.8
		l-0.8,1.6l0.3,1.3L43.2,414.9z"/>
	<path id="SY" d="M30.9,357.3l-6,3.9l-3.4-1.4l-0.1,0l0.4-0.5l0-1.5l0.8-2l1.7-1.4l-0.5-1.4l-1.4-0.2l-0.3-2.9l0.7-1.5l0.8-0.8
		l0.8-0.8l0.2-2.1l1,0.7l3.4-1.1l1.6,0.7l2.5,0l3.5-1.4l1.7,0.1l3.5-0.6l-1.6,2.4l-1.7,0.9l0.3,2.8l-1.2,4.5L30.9,357.3z"/>
	<path id="TH" d="M226.6,427.9l-2.8-1.4l-2.6,0.1l0.4-2.5l-2.7,0l-0.2,3.4l-1.7,4.5l-1,2.7l0.2,2.2l2,0.1l1.2,2.8l0.6,2.7l1.7,1.8
		l1.9,0.4l1.6,1.6l-1,1.3l-2,0.4l-0.2-1.6l-2.5-1.3l-0.5,0.5l-1.2-1.2l-0.5-1.5l-1.6-1.7l-1.5-1.5l-0.5,1.8l-0.6-1.7l0.3-1.9l0.9-3
		l1.5-3.2l1.7-2.9l-1.2-2.8l0.1-1.5l-0.3-1.7l-2-2.5l-0.7-1.6l1.1-0.6l1.1-2.8l-1.2-2.1l-1.9-2.3l-1.5-2.8l1.3-0.6l1.4-3.5l2.2-0.2
		l1.8-1.4l1.7-0.8l1.3,1l0.2,1.9l2.1,0.1l-0.8,3.4l0.1,2.9l3.2-1.9l0.9,0.6l1.8-0.1l0.6-1.1l2.3,0.2l2.3,2.6l0.2,3.1l2.5,2.8
		l-0.1,2.7l-1,1.4l-2.9-0.4l-4,0.6l-2,2.6L226.6,427.9z"/>
	<path id="TJ" d="M129.7,331.1l-1.1,1.2l-3.3-0.7l-0.3,2.3l3.3-0.3l3.8,1.3l5.8-0.6l0.8,3.6l1-0.4l1.9,0.9l-0.1,1.5l0.5,2.2h-3.2
		l-2.1-0.3l-1.9,1.7l-1.4,0.4l-1.1,0.8l-1.2-1.3l0.3-3.2l-0.9-0.2l0.3-1.2l-1.7-0.9l-1.3,1.3l-0.3,1.6l-0.5,0.6l-1.8-0.1l-1,1.7
		l-1-0.7l-2.2,1.2l-0.9-0.5l1.7-3.9l-0.7-2.9l-2.3-0.9l0.8-1.7l2.6,0.2l1.5-2.2l1-2.6l4.1-0.9l-0.6,1.9l0.4,1.1L129.7,331.1z"/>
	<path id="TL" d="M295.2,492.5l0.4-0.7l2.6-0.7l2.1-0.1l1-0.4l1.2,0.4l-1.1,0.8l-3.2,1.3l-2.6,0.9l-0.1-0.9L295.2,492.5z"/>
	<path id="TM" d="M99.7,348.9l-0.3-3.2l-2.3-0.1l-3.5-3.4l-2.4-0.4l-3.4-2l-2.2-0.4l-1.3,0.7l-2-0.1l-2.2,2.2l-2.7,0.7l-0.6-2.7
		l0.4-4.1l-2.4-1.3l0.8-2.7l-2-0.2l0.7-3.4l2.9,1l2.7-1.3l-2.2-2.4l-0.9-2.3l-2.5,1l-0.3,3l-1-2.6l1.4-1.4l3.5-0.9l2.1,1.2L82,327
		l1.6-0.2l3.5-0.1l-0.5-2.1l2.6-1.4l2.6-2.4l4.1,2.2l0.3,3.3l1.2,0.8l3.3-0.2l1,0.7l1.5,4.1l3.5,2.7l2,1.8l3.2,1.9l4.1,1.7l-0.1,2.4
		l-0.9-0.1l-1.5-1l-0.5,1.4l-2.6,0.7l-0.6,3.1l-1.7,1.1l-2.4,0.6l-0.6,1.7l-2.3,0.5L99.7,348.9z"/>
	<path id="TW" d="M285.4,388.7l-1.8,5.3l-1.3,2.7l-1.6-2.8l-0.3-2.5l1.8-3.3l2.5-2.5l1.4,1L285.4,388.7z"/>
	<path id="UZ" d="M116,342.4l0.1-2.4l-4.1-1.7l-3.2-1.9l-2-1.8l-3.5-2.7l-1.5-4.1l-1-0.7l-3.3,0.2l-1.2-0.8l-0.3-3.3l-4.1-2.2
		l-2.6,2.4l-2.6,1.4l0.5,2.1l-3.5,0.1l-0.1-15.5l7.9-2.6l0.6,0.4l4.8,3.1l2.5,1.6l2.9,3.8l3.6-0.6l5.3-0.3l3.7,3.1l-0.2,4.2l1.5,0
		l0.6,3.3l3.9,0.1l0.8,1.9l1.1,0l1.3-2.9l4-2.9l1.8-0.8l0.9,0.4l-2.6,2.7l2.3,1.5l2.2-1l3.6,2.1l-3.9,2.9l-2.3-0.4l-1.3,0.1
		l-0.4-1.1l0.6-1.9l-4.1,0.9l-1,2.6l-1.5,2.2l-2.6-0.2l-0.8,1.7l2.3,0.9l0.7,2.9l-1.7,3.9l-2.3-0.8L116,342.4z"/>
	<path id="VN" d="M243.3,398.1l-4.1,2.8l-2.6,3.1l-0.7,2.2l2.4,3.4l2.9,4.2l2.8,2l1.9,2.5l1.4,5.8l-0.4,5.5l-2.5,2l-3.5,2l-2.5,2.6
		l-3.8,2.9l-1.1-2l0.9-2.1l-2.3-1.8l2.7-1.2l3.2-0.2l-1.3-1.9l5.2-2.4l0.4-3.7l-0.7-2.1l0.6-3.1l-0.8-2.2l-2.3-2.2l-1.9-2.8
		l-2.5-3.8l-3.7-1.9l0.9-1.2l2-0.8l-1.2-2.8l-3.8,0l-1.4-3l-1.8-2.6l1.7-0.8l2.4,0l3-0.4l2.6-1.8l1.5,1.2l2.8,0.6l-0.5,1.9l1.5,1.3
		L243.3,398.1z"/>
	<path id="YE" d="M74.8,413.9l-2.2,0.9l-0.6,1.4l-0.1,1.1l-3.1,1.3L64,420l-2.7,2.2l-1.3,0.2l-0.9-0.2l-1.8,1.3l-2,0.6l-2.6,0.2
		l-0.8,0.2l-0.7,0.8l-0.8,0.2l-0.5,0.8l-1.5-0.1l-1,0.4l-2.1-0.2l-0.8-1.8l0.1-1.7l-0.5-0.9l-0.6-2.3l-0.9-1.3l0.6-0.2l-0.3-1.4
		l0.4-0.6l-0.1-1.4l1.3-1l-0.3-1.3l0.8-1.6l1.3,0.8l0.8-0.3l3.5-0.1l0.6,0.3l3,0.3l1.2-0.2l0.8,1.1l1.4-0.5l2.2-3.4l2.9-1.4l8.8-1.2
		l2.4,5.3L74.8,413.9z"/>
</g>
</svg>