<svg xmlns="http://www.w3.org/2000/svg" xml:space="preserve" viewBox="0 0 512 512"><g><path id="RU" d="m219.5 335.7 5.6 1.5 1.1 1.4-.2 3.7-13.2-.7 1.5-3.3 2.3-.5 1.6-2.1.2.1-1.5 2.2 1.7.6.8-.2zm60.9-84.2-.2 2-1-1.7zm60.4-43.3-.2 1.6-.5-.9-2 3.1-3 1.3-2-.7-.5-5.4 2.2-2.7 1.6-.2zm41 150.6 1.7 2.2 4.6 2.2-1.4 3.6-3 .7-1.9-1.2-2.2 2.4-.3-.8-2.4-.5-2.2-2.4-2.2-.2-1.7 1.3-1.8-1.2-2.2.3-3.4 2.9-4.4-2.8-.4 3.1-1.7-3.3-3.3-2.9h-3.2l-1.5-1.5-3.7 1.6-2.3-1.7-2.3 2.9-3.1 1.4-.7 1.5-2.9 1.6.6 4.5-1.8.5-3.5-3.5-2.6 4.6-.4 2.1 1 1.4-1.4 2.2-.2 2.5 1.7 1.1 1 3.1 3.7.2 3.3 5.7-1.7.1-.1.9 2.9 1.6-2.3 1.5.2 1.1-1-.2-3.6 2.1-.7-.6-.5 2.7-2.7 4.2 2.5 2.3.6 3.2.8-1.9-.8 4.9 4.6 6.7-3.3 3.6-2-.5-2.4-3-1.3-.4-3.3-1.8.3-1.7-3.5-1.5-.4.8-1.1-.8-2.8 1-.2-1-4.3-2.4-4.9-.3-3.9-1.8-2.1-.2-.7.9-5.3-5-8.7-5.1 1.3-.8-.9-.5.6-.3 1.5.9 1.8-.6 1.2-3.7 2.3-.5-3-3.3 3.1-.2-.3-.9 3.6-1.8-1.1-1-3.4 1.1.6-3.2 2.2-1.5 3.7-.2.8-2.4-1.3-2 .6-1.4.9-.1-1.3-1.2 1.8-1.6-.1-2.1-7.6-3.1-.9.9-2.6-3.2-3.4 1.3-2.1-1.3-2.2.3-1.1-4.3-1.1-1.2-3.6-.3-.4-2.8 1.2-.7-2.8-3.8-5.4.3-1.3 1.7-1.5-.3-.8-4.5-1.3-1.8.7-1.2 3 .7 2.4-2.3-1.1-1.9-2.9-.8.3-1.6-1.8-1.2-1.4-2.1.3-1-1.5-1.1.7-1.9-.7-1.9.4-1.9-2.8-2-3.1 1.2-.4-1.9-1.4-.6-1 .6-2.7-1.5-.2-3-1.1-2.3-.9.1.8-3.4-2-1.8 1.8-2.7-1.2-2.8-.3-4.5 3-4.8-.6-.9.2-2.5 1.2.7.8-1.3 1.8.2.8-1.4 4.1 1.1.2-.7-1.9-2h-2.7l-1.8-1.6-.5-2.6-3 1.2 13.1-15.6 2.5-5.1-1.5-3-5-4.9 2.2-3.3-.2-1.5-2.1-2.8.5-2-2.1-2.3.9-1.7-.9-1 .4-3.8 1.6-.6v-1.1l-4.3-11.5 3.9-8.4-2.7-4.4-2.8-1.4-.5-1.8-.3-2.1 1.2-3.5-1.5-.7 2.3-1.4 1.8-3.2 2.9-1.6.4-2.4 2.8 1.2v-2.9l2.8 1 1-1.4.9.1-.1-1.7 4 2.4-.1 1.8-3.4-.4 1.2 1.8 2.6.1-.1 1.2 2-.7-1.3 4.2 2.3-2.8 5.5 1 1.2-.6 2.4 1 7.8 5.8 2.9 3.8 1.7.3 3.1 2.8 1.1.1-.1-1 2.4 3.6 2.4 1.3.7 4.9.9.6-.7 4.1-4.5 5.5-6.1 2.4-13.1-3.4-2.9-2.3-1.4.6-.1-1.1-5.4-2-1.3-1.9.3-.7-4.3-.8 2.5 1.7-.2.9 1.7 2.1 1.3.4.2 1.6 1.8.9-1.2 1.2 3.1 1.1 2.4 2.8.4 1.9-1.6 3.8 2.6 9.4 2.6.6 3 3.6 4.5 1.8 2.2-1.3.4-1.4-.5-2.2-3.2-.8-2.5-3.7-.2-1.5 1-.5.4-1.8 1.1-.2 3.6 3.1 7.3 3 1.3-1.9 1.6-.1-2.7-5.7.1-2.5 3.7-3.7 3.3-1.7 3.1-4.1 1.6 1 2.6.1 1.8 1.7-.5 1.3 1.3-.2 1.1 1.4v-2.3l1.6-4.6-.2-2.8-.6-1.7-2.1-1.7 1.9-8.1-.1-2.9-3.6-4.8 3 1.4 4.3-.3 3.4 1.1 3.3 5.7v1.4l-4.9 1-2.6 3.8 2.8 2.5 1.4 3.2 2.5 1 4.9-1.9.9-6.6 4-1.1-.3-2.4 1.7.3 6.5-5 5.4-2.5 1.2.9-.4 1 .9.3 1.4-1.5-1.6-1.4 6.1-4.5h2.9l-2.9 1 .7.7-.9 2.4.7 2.3-2.8 1.9 3 .5 2.1-.8 1.6 1 .3-1.9 2.1-2.2 2.6-.9 4.5 1.1 4.4-3.9.3.6.5-1 2.9-1 1.3 3.1-1.1 1.4-.1 2 2.6 1.1.8-1.4-.1-2.7 2.5-.3 1.9-3-3.2-7.1 3.1-3.1 10.2 2.1 3.5 1.7 3.1 2.5-.1.9 8.8 4.4 3.6 4.6 1.7 13.2-3 6-11.5 10.4-7.2 8.1-7.8 6.1-4.8 43-5.3 12.7-3.2 4.1-.8 3.6 3.1 2.6.5 3.2-2.5 4-8.4 1.5 6.4 9.8 5.6-3.9 2.8 1.6 1.1 2.6-3.7 5.4.1 4 2.8 1zm1.6-159.5v2.5l-3.4.1-.6-1.8-2.3-.3-1.8-5.2 2.2-1.8zm-31.6-18.1 1.2 2-.7 3.2-1.2-2.7-2-1.4 1.1-1.3zm10.1-26.8 4.6 1.6-1.3 5.6-1.7.6-1.3 3 .5 4.5-.9 3.9 4.8 10.9 4.9 4.8-2 1.8-3.2-1.8-.5.2 1 1.9-1.5-1.2-1.4.5-.5-1-2.7.3-1.7-.9-.2.8-5.1-2.5 1-.5.2-2.2 2-.5-3.1-2.8v-2.5l-4.1-.1-2 .8-1.8-2.3.3-5.7 1.3-1.1h1.9l2.2-5.5.2-1.7-1.3-.5-.1-1.2 1.4-1.5 1.9-.2-.5-3.8 2.1-1.6 1.9.2 2.5-1.6zm52-46.8-6.2 4.4-11 5.4-9.6 5.9-2.7 4-1.8 1 .9 1.7-1.8 2.4-1.4.2-.3 2.1-1.8-1.3-.8 3.3-2.1-.2.3 4.2-.7 1.5-2.8 1.8v3.7l-1.8-1 1 2.7-2.4 4.3-2.2 1-5.9-2.3-3 1.5-.4-2.8-1.8-3.3 3.7-2.9 2.9-7.1 3.3-1.2-2-.9-.3-1.1 3.8-5.2-.7-.9-1.4.2-.8-2 .9-1.1 2.2 1.6 1.3-2.4-.1-1.8 1-.5 2.2.7 1.9-5.4 3.4-3.3 4.8-2.2 1-1.9 2.8.4 1.1-3.7 7.4.8 6.2-2.5 5.4-3.6 1.3-3 3.2-3.3 3.4-1.6 3.5 1.4 1.9 4.1-.2 2.4-3.1 5.1z"/><path id="NL" d="M148.4 362.8 147 364l-2-.3-.3-.9zm-1.1-2.4.5.6-1.6-.4zm3.9-9.1-.7.2.7-1zm-2.8 11.5-3.2-1 3.4.5-1.4-2.3 2.2-3.4 1.2-4.3 5.4-3.2 3.2-.2 1.6 1.1-.7 4.4-1.3.2.2 1.1 1.2.6-1.3 2 .3.8-3.6 1.1 1 2.4-.3 2-1.1.8.9.8-.3 1.1-1.6-.6.5-1 .1-.5-3.1-2.7zm4.6-13.7h-.6l1.6-.3z"/><path id="CY" d="m274.8 454.4-2.2 1.5.5 1.6-1.5.1-2.9 2-2.3-.8-.6-1.1-.1-.7 2.4-.5.3-1.1 2.8.2z"/><path id="UA" d="m290.5 390.2-2.8.1-3.1 2.2-4 .5-3.4 3.1 1.1-1-.2-1-1.6 1.5.7 2.9 1.8 2.3 4.7-.5-.8 1.9-3.9-.2-5.8 4-2.6-.8.4-3.2-4.4-1.8 4.8-3.2-.3-.9-4.7.1-2.7-1.2.7-.9-1.9-.8 3.4.5.9-.9-2.2-.2-1.2-3.5.5 3.4-1.4-.1.1-.7-.7.9-2.5.5-2.4 4.1-2.5.9.3 2.7-1.3-.9-2.7 1.1-2.3-1.3 1.2-.4 1.9-3.2v-2.5l4.9.2-1.1-2.5-1.3-.8-.1-1.9-1.7-1.3v-2.9l-6.6-3.2-3.7 1.7-1.3.3-.6 1.3-5 1.7-1.7-1.3-5.8-1-1.4.9-3.1-2.9 1.7-4.2 1.3.1-.6-3.5 5.8-6v-2.3l-2-4.3 3.2-2.4 5.9-.4 5.7 1.2 2.3 1.8 2-.9 2.3 1.2 1.6-1.3 1 1.6 3.4-.6 1.6 1.4.9-4.2 1.4-1.2 2.9-.2 1.5.3 1.3-1.7 5.4-.3 2.8 3.8-1.2.7.4 2.8 3.6.3 1.1 1.2 1.1 4.3 2.2-.3 2.1 1.3 3.4-1.3 2.6 3.2.9-.9 7.6 3.1.1 2.1-1.8 1.6 1.3 1.2-.9.1-.6 1.4 1.3 2-.8 2.4-3.7.2-2.2 1.5zm-26 5.4.6.3-2.7-1.3z"/><path id="TR" d="m247.8 420.2.8 2.3 3.6 1.8-.4 1.2-6.1.2-5.4 4.9.2-1.3 2.3-1.7-2.9.1-.3-.6 2.5-3.7-1.3-1.8 1.2-1.4 2.6-.7 1.2 1zm56.4 2.6 4 .4 1.2-.8 2.9 2.6 1.2 2.1-.6 1.3.4 1.9 2.6.5 2 1.8.2.3-1-.6-.8 1.9-1.5.2 1.8 5.6-1 2.3 1.6 1 .7 3-2 .9-.7-1.7-5.6-.4-1.7 1.4-.7-1-2.9 1.1h-3.4l-5.6 2.2-4.9-1.1-3.2 1.3-3.3-.8-.1 2.9-2.1 2.1-1-.4-.3-2 1.6-1.8-.6-1.3-2.7 1.7-2.9-1.3-4.2 3.3-3.8.8-6.5-4.1-2.5-.2-.8 3.1-3.2.6-1.9-.9-1.1-2-2.8-.5-.8.9-2.4-.2 2.9-1.8-4.1.3 1.1-1-1.9-2.6.7-1.7-3.9-1.6.6-1.9 1 1.6 2-.6-1.6-1.4 1-.9-1.4-2.2.9-1.4-3.3.4.3-2.8 2.3-2.2 4.1.4.6-1 .4.8 4.4-.1-.9-.8.7-.5 3.7-.6-3.1-1.1.1-1.6 8.8.6 4.4-3.5 4.1-1.5 6.1.3 1.1-.6 1.2 1.9 3.2.3 1.5 2.3 1.6-.5 6.7 2.4 4.4-1 3.5.8zm-64.9 7.6H238l1-.6z"/><path id="SE" d="m231.7 245.2-1.9-.2-2.5.9-1.5-1.4-.9.8-.6-.7-.6 2.7-.7-.1-.9 1.9-1.3.2.2 1.5-.8-.6.7 1.9-1.8 3.1 1.6 3.4-3.2 5.7-4.3 3.8-1.5-.1-1.3 2.2-1.8.6-1.2 1.7.8.1-.2.9-1.2 1-1.1-.9.5 2.6-.8.9h-1.8l.9 2.5-1.1 3.3.4 1.6-1.1-.4-.3 1.3.5 7.6 1.7 1.4 1.2-.5 3.7 4.8.5 2.2-4.2 3.3-.8-.4-.1-1.7-.3.7-1.2-.4-.1.7-3.3-1-2.2 1.1 3.6.3 1.6 1.4 5-1.1.5.7-6.8 5.5-3.2.1 3 1.2-1.1.5v7.4l-1.3 6.1-2.2 4.4-4.4-.3-.1 1-1.5.4-1 4.3-5.4-.1.4-2.5-2.1-4.1 1.4.2-.6-1.3.8-.1.1-1.3-1.9-2.2-4.1-9.4-.1-1.8-.8-.2-.4-5 .2-.7.8.3.3 1 .7-.1.7-3-.5-2.5 1-2.2 2.3-2 .4-2.9-1.2-4.7 1.7-.5.7-2.5-3-3.2.6-5-1.3-9.2.7-2.8 2.6-3.8 1.7-.7 3.2.6.8-1.5-.3-2.8-1.8-1.1 3.5-7.1.3-8.4 3.9-1.8-.3-1.9 4.1-6-1.2-4 1.9-2.1.9-3 2.3-2.3 2.5 1.6 1.6-6.7 7 2.3 1.1-1.4-1.1-.7 1.6-3.5-1-2 2.1-.2 5.8 6 3.6 1.7 3.3 4.6-.8 5.4 1.2.4-.4 3.2 1.5 3.4-1.2 5.9zm-21.2 71-1.1 1 .4 2.4-3.2 3.7.6-1.2-.6-3.7 1.7-2.1 1.5-.7zM199.8 328l-.5-2.1 2.6-5.9z"/><path id="SI" d="m199.8 393.9-.8-.2-.4 1-2.5 1 .1 2-1.6.8.3 1.6-2.3-.1-.9-1.1-.8 1-3.3-.2.6-.4.6-.2-1.7-2.4.6-1-1.1-.5 1.3-1.6 3.6.7 1.4-1.2 4.4-.4.6-1.1h.8z"/><path id="SK" d="m224.9 377.9-1.7 4.2-1.7.4-1.1-1.3-4 .2-2.3 2.4-1.4-.5-3.5 1.4-.2 1.3-4 .1-2.6-1.5-1.2-2.4.4-1.3.8-1.5 2.6-.3 1.7-2.4 2.8-1.6 1.3.7 1.2-1.3 1.4 1.5-.1 1.1 1.3.1 1.3-1.3 5.3-.2z"/><path id="RS" d="m215.4 396.2 2.2 2.2.1 1.7 2.9 1.9-.6.8.8.6-.7.4 3.1 1.7 2.3-.6.4.5-1 .8.9 1.2-1.4 2.6 2.5 3.4-2.1 2 .2 2.3-.8.7-3.3.4.8-2.4-1.5-.5-2.5-2.9-1.9 2.5-4.8-4 1.3-.6-1-1.9 1.4-.5-1.9-1.8 1-3.1-1.4.1.2-1.6 1.4-.4-1.7-1.1-.4-3.2 3-1.4z"/><path id="RO" d="m248.7 400.2 2.3 1.3 2.7-1.1 1.3.9-.6 2.5-2.1.5.2-1.3-.8.3-1.3 6.9-6.3-2.5-3.6.9-3 1.9-10.8-.9.5-1.4-1.3-.9-.9-1.2 1-.8-.4-.5-2.3.6-3.1-1.7.7-.4-.8-.6.6-.8-2.9-1.9-.1-1.7-2.2-2.2 3.7-1 3.7-7.5 3.7-2.7 1.4-.9 5.8 1 1.7 1.3 5-1.7.6-1.3 1.3-.3 1.5.7 4.6 7.3.7 2.1-.7 6.3z"/><path id="PT" d="m58.9 468.1 2.1.5-1.4.5zm-35.3-25.4 1.9.4h-2.3l-.5-.7zm-6-4.3-1.3-.7 1.1-.1zm82.2 7.8-1.8.9-4.9-.1.8-2.1-.3-5.4.9.1-.5-.5-1.7.4-.2-1.1 1-.5 1-1.8-1.4 1.8-.9.2-.5-.5 3.3-10.6-.4-6.6 2.1-1.1.5 1.8 6.4-.7.3 1.5 1.4.8-3 2.9.5 3.7-.9 1 .2 2-2.3.7 2.2 3.3-1.4 3.2 1.6 1.4-2 2.4z"/><path id="PL" d="m212.7 341.5 13.2.7 2.5 1.1.5 1.9 1.8 8.2-3.1 3.3 2 1.7-.2 3.5 2 4.3v2.3l-5.8 6 .6 3.5-1.3-.1-3.8-2.2-5.3.2-1.3 1.3-1.3-.1.1-1.1-1.4-1.5-1.2 1.3-1.3-.7-1.1-2.4-3.9-1.5.3-1.2-1.2.3-2.2-1.1.5 1.2-1.5.9-1.8-2.1.9-1-.6-.5-1.1.3-4.2-2.7-.8 1 .9-2.6-1.7-3.9.6-1.7-.6-3-2.1-2.4 1.2-2.2-.6-3.7 1.4.6-.1-1.3-1.4-.3v-.6l8.3-2.4 1.6-1.9 5.4-1.9 2-.2 1.8 1.1-1.3-.4 1.7 2.7z"/><path id="SJ" d="m93.4 188-.6-.2 3.2-3.7 1.4-.5v1.8zm117.7-49.9-.5.6-.8-.9-.2-1.6 1.3-.1zm10-75.9 1.8.4 1.1 7.3 2.9-.5 1.9 2.1-1.3 1.2-.1 1.9 2.4 2.3 2.3-.5 2.8 2.8-3.2 1.9-1.6 3.8-1.5 1.6-1.2-.1-1.3 2.1-1 .2-.5-.9 1.1-4.6-1.2-.3-1.4 1.3-4.7.8-.2-2 1.4-1.1 1.9-6-2.6-2.7-2.1-5.4.1-1.9-.8.1-.6-1.4zm22-1.1-1.7-1.5v-1.9l2.3 2.4zm-65.3.8v1.5l.7-.1 1.7 2.4 1.2 4.2-.6.2-1.6-3.4-1.9-1.6-2.4-9.4 1.7 1.2zm74.4-6.5 2.7.2-1.6 1.1-3.4-.8-1.9 1.3-.6-.5 2.6-2.5 1.4-.1zm-51.3-22.6.8-1.3 1.1.4 2.6 3.3.5 2.3-1.2 7.3 3-5 1.7 4.1-.6 3.7 1.7 2.3 1.7-.4 1.1.6.6 2 .9-.5.2-1.5 1.9.9.7 1-1.1 1.7 3.7 5.2-1.2 1.4-5.9 1.4-2.6 6.1-.3 4.9-2.3 1.1-.6 8.8-2.8 3.5-2 6.6-.4 7.2-1.5 1.4-4.8-5.6L194 92l-3.2-2.8-1.6-5.2.3-1.1 1.3-.3 1.3 1.1.9-3.2 8.8-2.1-.5-2-3.6 1-2-.4-3.1 1.8-3.2.1-1.2-1.6-.5-3.5 1.1-1.2 1.5 1.6-.2-1.3 4.6-3 1.5-.1.4-2 5.1-.9.7-1-1.9.2-1.2-2 1.4-3.4-1.1.2-2.5 3.4-2.2.4-.7-2.4.5-3.9-1.5 3-1.4-1.9-.9 1-.1 3.9.9 1.6-2.2 3-4 .7-3.7-7.4-1.6-1.7v-3.4l-2.1-2.6.8-.7 3 1.7.5-1.1-1.8-1.6V47l-1.7.2-.2 3-.8.9-.5-.5-2-8.8-.2-5.5.8-.9 1.2 1.9.4-1.6 1.9-.8 2.4 2.5V35l2 .9 3.9-2 .9 1-.6 2.4-3.1.7-2 2.7 3.3-.1.2 2.2 2.4 3.2.3-5.6 2.3-5 1.9 2.9 3 11.4 2.4 4.4-2.2-15.9 1.8-8.7 1.2.7zm65.8-5.2-4 .9-.4-.6 6.8-3 2.2.3zm-57.6-4.4-.9 1.4-1.5-1.1.5-1.7zm9 1.2 2.7.2.6 2.1 2.5 2.7.7-8.7 2.3-1.8 1.3 1.2-.8 5.9 2.4-.5 1.1-2.4h1.2l.3-1.4 1.3 1.9.7-.4 4.4 3.1 4.3.4 1.2 2.5.2 3.7-5 6.8-1.5 4.9-2.1 1.5-1.7-.6-3.3 3.8-4.4-.8-.9-2.2.7-1.9-4 .7-4.4-.4-.4-1-2.6-1.1-1.9-2.3.6-1h2.8l1.2-2.7-2.8-.7-3 1.2-2.8-.8-2-4 2.5-2.6-2.1-.6-1.8-2 3.6-1.2 2.4 1.9.8-1.1-1.5-4.2 2.4 2.6-.1-6.3 2.6 1.9z"/><path id="NO" d="m237.7 184.1 1.5.5.8 1.4-2.3.4-1.1-1.2zm22.1 17v2.9l-2.8-1.2-.4 2.4-2.9 1.6-1.8 3.2-.5-1.8 2-3.5-.8-2.4-5.8-4.8-2.6 1.9-2.5-.1-1.9 2.7-1.4 8.3-3.4 4.6-4.5-2.4-2.2 1.8-3.8-.8-3.4-6.5-2.2.7v2l-1.9.1-2.1.2 1 2-1.6 3.5 1.1.7-1.1 1.4-7-2.3-1.6 6.7-2.5-1.6-2.3 2.3-.9 3-1.9 2.1 1.2 4-4.1 6 .3 1.9-3.9 1.8-.3 8.4-3.5 7.1 1.8 1.1.3 2.8-.8 1.5-3.2-.6-1.7.7-2.6 3.8-.7 2.8 1.3 9.2-.6 5 3 3.2-.7 2.5-1.7.5 1.2 4.7-.4 2.9-2.3 2-1 2.2.5 2.5-.7 3-.7.1-.3-1-2.3-1.2-1-4.8-1.7 6.2-1.4.4-1.2-1.3.4 1.1-6.2 6.6-2.9 1h-1.9l-.5-1-1.2.4.3-1.3-2.5-.9-2.2-2.8.4-2.3 2 1.2 1.1-1.1-1.1.4-.9-1.2.3-1.6 1.9-2.2-4.3 3.2-1-.5.7-3.4 2-.2 1.9-1.3-2-.4 1.7-3.1 1.6-1.5v2.1l2-3-3.5 1.4-4.2 5.9.2-3.7 2-.3-1.7-.7-.6-2 2.1-2.1-1.7 1-.5-.6-.5-3.4 7.4-.9 1.1 1.6v-1.2l2.4-1-.8-.1-.2-.7.4-1.2-.5.5-.2 1.7-1.4.2-1.4-1.1-.9 1.4-4.4.2-1.3-1.2-.1-1.6 1.4-.5-1.7-2v-1.5l2.2-.2 2.3 1 3-.7-6.1-.6-.5-2 .9.1 2.3-2.4.7.6 2.1-.5.5-.5-2.3.5.9-1.8 5.1.6.5-.3-.6-.8 2.3-.5-5.7.1.9-1.9 2.6-1.6 2.2.1 2.2 2.2-1.9-2.9.5-1.2 1.5-.5-1.1-1.5.9-1 2.3.1.1 1.3 2.3-1.6 1.4 2.2 3.1-.7-.1-1.5 2.7-1.7-.8-.9 1.2-1-.6-.4-1.6 1.2.1 1.4-3.7 2.4-2-1.8 4.2-6.8 4.5-3.9-1.4.6.8-2.2 2.8-2 .6.9 1.8-1.3.7-1.2-2.1 1.6-1.2-1.8 2.4-5.5 1.4-.6-1-1.5 3.7-.8 1.5-1.2-3.8.7.4-4.3 1.7-1.6h1.4l-1.3-1.2 1.9-2.3 5.5-.9-4.1-.7 2.2-3.3 2.6 2.5.4-1.9-1.8-.9.2-1.8-1.9 1.1-.2-1.6 1.4-1.8 2 .3-1.3-1.3 2.9-1.8 1.3 3.9.3-2.3-.8-2.5.8-.8 2.4.4 2.5-.8-.5-.6-3.5.2-.3-.8 3.7-3.1 1.3-3.5 1.7-.7.7-3.7 2.5 1.9-1-2.1 1.6-.8.9-2.2 2-.7-.2 4.6 1.3-4.8 1.5-1.5.1 4-1 3.3 1.6-2.4 1.1.3-.9-2.1.4-2.7 2.3.3 1.1-1.5 2.3 2.2-.7-2.8-1.9-2.1 3.6-.9.4.6 1.5-1.4 2.8 4.8.1-3.2 2.8-3 1.6-2.7-.7-1.6 2.1-2.3 2.1 2.1.7-.9 1.4.8-3.2 8 .2 1.3.7-.3 6.1-10.1-.3 6.7 1.7-1.3.8-2.9 1.5-.8-1.3-1.8 1.5-1.9 3.3 1.5-.3 1.9-1.8 1.9 1.6.1-.3 5.2 2.7-7.7h1.1l2.7 2.7 1.4-.7.6 2 1.6.2 1.4 1.5.1 1.6-2.8 1.8-6.2-.3 3.4 2.1.4 2.8 1.6.3.6-1.7.8 1.7.2-.9zm-31.1-12.8-2.6 3.5-2 .3-1.5-1.8 4.1-.7 1-1.3zm2.4 3.1-1.3.1.3-2.3 1.3 1.2zm-1.6.2-.3 1.8-1.6 1.6-.9-2 2.5-2.2zm-16.1 4.2 1.3 1.1-.3.6h-.9l-.8-2.3zm-2.2 1.8 1.5.6-1.1 2.4-1.4.7-.9 2.2-2.7.3.9-2.5 1.4-.2v-1.3l1.5-1.8.3-2.5zm6.4-.2-1.3.2.1-1.6 1.2-.2zm38.3 3.5-.8.4.3-1.7.9.8zm-52 2.4 2.1 1.1-.2 3.6h-1.9l-1.7 2.1-1.1-.7.8-3.4 1.5-.2-.5-1.1zm-7.3 12.2 2.4-3.6.8 2.8-2.3 2.6-2.2 1-.7-.7-2.7 2-1.6.1 1.4-2.4 2.1-.5 1.3-2 .3-5 2.4-3zm-2.3-4.4.8 1.8-.7 1.9-3.4-.5.6-1.8 1 .3.3-1.4.7.2v-1.2zm-5.6 7.7.9.5-3.6 2.5.3-1.8zm-3.7 4.4-.6.6 1-2.8zm-2.3 19.6.4-1.7.4.9zm.3 1.4-.1-.8 1.1-.4zm-2.2 2.8-.8.2.1-.8.7-.2zm-3.1 7.6h-2.1l1.2-1.1zm-11.5 11.5-.8-.2 2-1.1.1 1zm-1.6 3.1-1.2-.7 1.1-.5zm-13.1 20.2h-.7l.3-1zm.5 6.7v1l-.6-2.2z"/><path id="ME" d="m211 411.4 4.8 4-1.2.4v1.2l-1.1.4-.6-.9-1.6 2.6.3 1.7-3.4-3.2-.3-.7.1-2.5 1.6-2 .7.3-.3-1.3z"/><path id="MK" d="m224.1 418.3 2.8 3.2-.4 2.2-1.3 1.1h-2.5l-1.7 1.4-2.6.1-2-2.3.3-3.3.9-1.1 3.3-1z"/><path id="MD" d="m248.7 400.2-.6-.9.7-6.3-.7-2.1-4.6-7.3-1.5-.6 3.9-1.4 6.6 3.2v2.9l1.7 1.3.1 1.9 1.3.8 1.1 2.5-4.9-.2v2.5l-1.9 3.2z"/><path id="LV" d="m245.1 318.6 2 1.8-.8 3.4.9-.1 1.1 2.3.2 3-2.4 2.6-2.2-.2-1.9 1.2-3.9-3.3-2.5-.7-1-1.6-3 1.1-8.5-1.1-4.3 2.5.1-5.7 2.7-5.8 3.4-1.2 3.1 4.9 1.5.9 3.1-2.1-.3-4.8 4-1.4 3 1.7 2 2.3 2.1-.5z"/><path id="LU" d="m156.3 371.1 1.6 2.1-.6 2.2-2.3-.5-.2-2.5 1-1.6z"/><path id="LT" d="m241.9 332.7-.6 2.4 1.3.5-3.8 2.6-1.3 4.2.8 1.2h-1l-.2-.9-4.8 2.8-3.5-.3-.5-1.9-2.5-1.1.2-3.7-1.1-1.4-5.6-1.5-.8-6 4.3-2.5 8.5 1.1 3-1.1 1 1.6 2.5.7zm-23.6 2.8-.2-.1.9-2.4z"/><path id="LI" d="M170.8 390.5h-.4l.2-1.3z"/><path id="KV" d="m220.9 418.7-3.3 1-.9 1.1-.3-2-1.8-1.8v-1.2l1.2-.4 1.9-2.5 2.5 2.9 1.5.5z"/><path id="JE" d="m122.3 376.9-.9.3.1-.6z"/><path id="IS" d="m65.8 240.9 4-1.6-2.2 2.7 1.7 1.1-.5 2.6 1.8-.2-.3 2.2 1.3-.7 2.3 1.2-.8 1.7 1 2.9-1.2.7-.8 2.5h-1.4l-1 3.2-5 2.3-3.4 3-4.9 1.4-.5 1.7-3 1.2-6.5-1.4-1.2-1.2.3-1.1-1 .6-1.9-1.9-6.5 1.1-.2-2.4.8.9 1.3-.5 3-3.3-2.5.6.5-2.2 1.5-1.1-2.2.9-1.5-2.6-3.7-.3-2 .8-.9-1.2 5.2-1.8h3.7l.5-1.4-1.1.6-2-.7 2.8-2.5-4.4-1.3-4.2 1.7-2.4-1.2.9-.9 1.6.8-1-2.4 2 1 1.4-.7-2.3-1 1.3-.3-1.1-1.4 1.4-.1-.7-.9.6-.8 1.6 1 .2 1.1 1.5-.5.2 1.6.7-.4v-1.7l-2.1-1.5 1.9-.6-2.6-.8.7-.9h2.2l4.3 4.2.1 2.9-1.2.2 2.2 4.6 1.4-3.7 1.5.7 1-5.4 3 3.4.4-3.2 2.2-1.1 2.9 4.6-.6-4.3 1.6.1 1.5 1.8 1.7-2.5 1.3.8 1.5-.7-.2-2.6 1.2-.8 1.1.1z"/><path id="IE" d="m100.6 336.9-1.4 2.4-1.5.5.7.7-1.5 1.3 2.1 1.9 1.2.1 1.3-2 1.5 2.5 1.8-.2-.5 1 1.3 7.1-1.8 4 .6.7-2.4.6-.3-.6-4.6 2.9-1.5-.4v1.2l-3.7 1.4-2.3.1 1.1-1.4-2.3.6 2.2-1.8-3.1.5 1.8-2.2-1.9-.6 2.4-.3-.6-1.1 1.1-1 3.5-.9-.9-.5-.8.8-3.1.4 2.6-3.6 1.5-.8-4.9-1.4-.1-1 1.7-.4-.8-.9 1.4-.6-1.4-.4.2-1.6-1-.4.2-.7 6.3.1-.3-.8 2-2.1-2.6-.3 1.6-1.5.4-1.9 2.5-.8v2.1l1.5-2.9 1.5.9zm-11.4 8.5-1.3-.5 1.1-.2z"/><path id="IM" d="m112.3 343.5-1.6.8 1.5-2.4z"/><path id="HU" d="m223.3 382.1 3.1 2.9-3.7 2.7-3.7 7.5-3.7 1-2.6-.4-3 1.4-2.3 1.1-2.3-.2-5.4-4.3-1-2.2h-.8l1.5-.9v-2.4l1-.8-1.1-.9 2.7-.2.3-1.9 2.6 1.5 4-.1.3-1.3 3.5-1.4 1.4.5 2.3-2.4 4-.2 1.1 1.3z"/><path id="HR" d="m199.8 393.9 5.4 4.3 2.3.2 2.3-1.1.4 3.2 1.7 1.1-1.4.4-.2 1.6-1.4-1.2h-3.5l-3.7-1.2-2.6 1.6-2.1-1-.2 2.4 2.4 3.7 4.1 3.9 1.3 2.9-2.9-2.6-3.8-.7-3.3-3.8-.3-.5 1.5-.1-2-1.9-.5-2.8-1.3-1.3-1-.2-1.9 3-1.2-4 3.3.2.8-1 .9 1.1 2.3.1-.3-1.6 1.6-.8-.1-2 2.5-1 .4-1zm-7.1 9.1-1.5-.6.5-.9zm11.9 12 3.2 1.9.3.7-6.2-3.3zm-.3.7.6.4-1.7-.5z"/><path id="GR" d="m240.8 421.7 1.3 1.8-2.5 3.7-3.9-1.5-5.6 1.4.4 1.8 2 1.5-2.6-1 .9 2-2.2-1.6.8 1.9-3.1-2.6.1-1-1.2.5-.2 2.5 3.1 4.7-.7.4v-.8l-1-.3.6 1.4-2.1.9 2.9 1.1 3.2 2.8v2.4l-2.2-1.9-1.9.8 1.9 2.3-1.4.6-1.8-1.1 1.8 5.7-1.8-1.8-1.2 1.7-1.5-2.9-.8 1.5-1.3-1.8.4-1.6-2.3-2.6 1.2-1.6 1.8-.7 4.6 2 1-1.2-3-1.4-4 .6-.6-.9-.6.8-1.7-2.8 1.4-.1v-.7h-1.7l-3-3.6 1 .2.3-1.6 1.4-.8 1.6-2.8-.3-1.3 2.6-.1 1.7-1.4h2.5l1.3-1.1 6.6-1.2 3.2 1.7 2.8-.4.9-.4-.2-1.8zm-6.5 6-1.1-.2.5-.8zm2.8 3.5-.3.9-1.2-.2v-.8zm-22.4 3-1.8-1.8h1.2zm26.4.5.8 1.5-.5.4-1.5-.6.7-.6-.8.5-1-.6zm-12.5 2 3 1.7 1.7 3.5-2.1-2.2-4.9-2.6zm-11.4 1.9-.6.1.6-1.4zm22.6 2.1-.8-.1-.2-1.8 1.3.2zm-22.9-.9.6 1.7-1.7-.6zm1.2 3.1.4.5-.7.2-.8-1zm24.8-.1 1 .5-2-.1zm-5.4 4.5-.8-.5.7-.7zm9.6 5.3-.5-1.2 2.2-1.4zm-16.7 2.1 1.3-.3.8 1.2 5.8.1.3 1.1 2.2-1-.6 1.5-5.7.4-1.4-1.1-3.6-.5-.1-1.4.7-.6z"/><path id="GG" d="m120.3 375.2-.1.4-.4-.1z"/><path id="GE" d="m324.8 420.7-1 1.3 2 2.1-.6 1.1-5.2-2-1.2.9-6.5 1-2.9-2.6-1.2.8-4-.4 1.1-2.5-1.1-3.9-6.3-4.3.7-.9 2.1.2 3.9 1.8 4.9.3 4.3 2.4.2 1 2.8-1 1.1.8.4-.8 3.5 1.5-.3 1.7z"/><path id="FR" d="m155 374.9 2.3.5 1.6 1.9h3l2.9 1.1-2.2 5.1v3.5l-1.1 1-1.6-.1-4.2 7.5 1 .1 1-1.4 1.4.1 1.1 2.9-1 1.1 1.5 2.1-2.1 1.9 1.5 1.4-.4 2.9 1.7 1.1 1.3-.2-.6 2.3-5.8 4-4.4-2.1-1.5.4-3.3-1.1-3.6 3.7.7 2.7-4.9.4-1.4-.8-1.2-.5-3.1-1.4-.3.9-5.1-.6-3.7-1.4.2-1.1-1.6-1 1.3-.9 1.7-6.5-.7.1.7-5.1 2.2 3.2-1-2.8-1.7-1.5.7-.2-.3-3.1-2.7-1.2-1.1-1.8-.6-2.2.7-.7 1.2.4-1-.6h-2.2l.3-1-1.4-.3-.1-.7-6.4-1.2-1.5-1.3 1.5-.8-1-.8 1.4-.1-2-.4v-1.1l6.2-1.9 2.3 1.9 1-.7 1.8.4.4-.7 2.2.3-2-6.6h2.5l.5 1.9 4.1.6 2.4-1-1.2-.4.2-1.3 4.4-1.9 1.5-1.7.3-4.2 3.6-1.4 1 2.3 1.5-.2 2.4 3.1 2 .4-.1 1.8 1.7.1 1.1-1.3.2 2.4 2.7 1.8zm-29.2 22.5-.1.5-.7-1.4zm44.6 18.1.3 3.8-1.5 4.2-1.6-1.1-1-4.3 1-1.4 2.1-.6.2-1.7z"/><path id="FO" d="m104 279.1-.6.5v-1.4zm-.9.3-.1 1.2-.8-.2.5 1.5-1.9-3zm-2.4.8.3.8-1.1-.2-.2-.6z"/><path id="FI" d="m251.8 210.1-2.3 1.4 1.5.7-1.2 3.5.3 2.1.5 1.8 2.8 1.4 2.7 4.4-3.9 8.4 4.3 11.5v1.1l-1.6.6-.4 3.8.9 1-.9 1.7 2.1 2.3-.5 2 2.1 2.8.2 1.5-2.2 3.3 5 4.9 1.5 3-2.5 5.1-13.1 15.6-1.4.6-1.1-.7-2.8 1.1.1-1.8-.8 1.7-1.8-.4.3 1.1-1.2.6-.4-.6-5.1 2.6-4.1.3-1.8 1.4.7-1.7-1.2-1.6-.7 1.3-1.2.2.5-3-4.8-1.8-.3-3.2 1-5.4-1.5-3.5.4-2.6-1-3.1 1.5-3.8.7-.1-.4-1.5 3.2-1v-1.8l5.4-5.1 4-7.4 3.1-.6.4-1.5-.1-4.7-2.8-1.9-.2-1.9-2 .6-1.9-4.6 1.2-5.9-1.5-3.4.4-3.2-1.2-.4.8-5.4-3.3-4.6-3.6-1.7-5.8-6 1.9-.1v-2l2.2-.7 3.4 6.5 3.8.8 2.2-1.8 4.5 2.4 3.4-4.6 1.4-8.3 1.9-2.7 2.5.1 2.6-1.9 5.8 4.8.8 2.4-2 3.5zm-17.2 43.3-1.1.1v-.6l1.7-.1zm-15.2 16.7.8.4-.7.4-.7-1.2zm1 24.1-.6.4-.3-1.2zm3 1.3 1 .6-.2 1.2-1.2-1zm-1.4 2-.6.2.3-.7z"/><path id="EE" d="m247.8 302.9.6.9-3 4.8.3 4.5 1.2 2.8-1.8 2.7-1.6-.6-2.1.5-2-2.3-3-1.7-4 1.4.9-3.8-1.7.7-1.5-.8-1.1-2.4.7-1-1-1.1.3-2.2 2.5-.8 1.2-1.5 4.4-.4.3-1 6.1 1.6 3.8.3zm-21.2 5.4-1.6 1.1-.6-1.4-1.5-.7 2.5-1.2 1.1.8zm1.7 2.2-1-.9.9.1zm-3-.6 3 1.4-4 1.9-1.6 2.3.8-1.8-1.3-.9-.1-1.9z"/><path id="ES" d="m123.3 412.1 1.6 1-.2 1.1 3.7 1.4 5.1.6.3-.9 3.1 1.4.1.9 1.1-.4 1.4.8 4.9-.4.1 2.7-1 1-9.6 5.2.7.6-1.2.6-3.9 6 .5 2.5 1.7 1.6-3 2.4-1.2 2.9.4.7-3.8 1.3-2 3.2-9.4.3-3.4 1.5-1.9 2.1-1.7-.8-1.4-2.3.7-1.4-1 .3-2-2.3-2.3.5-.2-2.9 2-2.4-1.6-1.4 1.4-3.2-2.2-3.3 2.3-.7-.2-2 .9-1-.5-3.7 3-2.9-1.4-.8-.3-1.5-6.4.7-.5-1.8-2.1 1.1.2-2.6-.3-1.3-.9.3.4-1.2-1.3-1 .2-1.1 6.2-3.4 2.7 1.2 5.1-.5 5.5 1.3 3.8-.6 2.3.8zm25.4 19.9-1.8-1.2 1.6.2zm-4.8.3 1.3.5-1.6 2.1-2.9-1.5 3.3-2.2zm-7.1 4.6-.9.1 1.4-1.2zm-63.3 50.4-.6.2.1-.7 1.5-1.1-.1 1.1zm-17.3 2-.4-1.7.8.6zm15.2 1.5-1.2.3 2.7-3-.3 2.3zm-8.9-1-1.4 1.8-1-1.6 3.3-1.1zm3.9 1.1-.2 1.6-1.1.1.1-1.7zM56 492.5l-.4.8-.7-.5z"/><path id="GB" d="m126.3 367.4-.8.7-1.3-.5 1-.7zm-13.1-17.8.6.1-1.4 1.2-.8-1.8zm-8.4-5.5-1.8.2-1.5-2.5-1.3 2-1.2-.1-2.1-1.9 1.5-1.3-.7-.7 1.5-.5 1.4-2.4 3.1-1.1 1.8.7 1.3 2.4-.7 1.3 1.2-.2.5 1.2-.8-.4.3 2-1.7 1.6zm4.6-9.8-.9-.2.1-1.7zm-4.2-3.6.3 1.7-1 .7.1-1.2-.9.6.1-.8zm.6.9-.4-.6 1.5-1.7zm.8-4-2.2.4.7-1.5-.6-.9 2.2.9zm-6.1-5.8-.7-2 .6.1zm4.6-3v1.5l1.9.5-1.2 1.6-.4-1.2h-1.2l-1.8-1.9 1.7-1.7zm-4.4-1.4.1 1.2-1.4-.5zm4.2-5.4-1.5 2.1.5.6-2.3 2.1-.4-.5.9-.9-1-2 1.5-.1-.2-.9 2.3-1.6zm12.9-1.2-.4 1.6-3.2 2.9-.2.8.7.3-1.2 1.9 3.1-1h5.6l1.2 1.8-3.4 7-3 1.5 1.8-.3.9 1.1-2.9 1.7-1.8-.5 3.1 1.1 1.9-.6 3.9 3.4 1.8 6.3 4.8 4.2-.5.7 1.3 2.9-1.6-.9-1.6.1 1.5.2 2.4 2.5.4 1.2-1.3 1.8 1 .7 1.2-1.1 2.1.1 2.5 1.4-.3 4.3-1.5 1-.2 1.1-1.8.5.6 1.1-2 .7 4.1.7-.1 1.2-1.8 1.7-3.2 1.1-6.8-.9-.4 1-2.2.1v.8l-4-.8-1.7.6-1.1 2.6-2.2-1-2.3.6-1.6 1.6-2.1-.1 6-7.5 4.4-.1 2.9-3.6-3.6 2.4-2.5-1.3-1.4.1.6-.6-1.2-.5-2.2.8-1.1-.8-.1-1.4 4-2.2 1-1.8-.5-2.6-2.4.8 1.7-2.4 2.1-1.1 2.8.3.1-1.2 1.3.8-1.3-1.4.9-4.4h-1.3l-1.8-3.1.5-1.5 1.8-1.3h-2.1l-1.7 1.2-3.6-.5-.4 1.1-.5-.5-.6-1.6 2.1-3.8-.8-2.8 1.2-.5-1.1-.8.2-.8-1.8 2 .6-2.3-1.4 1.5-.6 4.5-.7.4.8-6.8 1.4-3.8-1.9 1.7-2-1.3 1.7-1.1-.5-.4 1.3-2.5-1-1.1.9-1.3-.7-.9.6-1.7h1.9l-1.1-1.5.3-1.3 1.4-.2v-2.4l2.4.4 4.9-1.1.9.1zm.2-4.2 1.1 1-2.3-.5.1-1.3zm7.3-12.5 1.1.8-1 4.8v-2.3l-1.6-1.1 1.2-.4-.8-1.4.9-1z"/><path id="DK" d="m171.5 338.9-4.5-.6-.2-3.8-2-1.3.1-7.5 2.1.8.9-1.8.7-.4.5.7.2-2.4h-1.1l-.9 2.2-1.3.5-.8-1.4 1.4-2 3.4-.5 2.2-3.2 2.7-1.2-1.4 8.6 2.7 1.3-.7 1.5-1.8.2-.6 2.6-1.2.2.5.6-1.8 2 .3 1.7-.9 1.7 1.2.5zm5.5-18.2-.8-.1 1.3-.5zm6.3 11.1-1.5 2.4.8 1.3-1.3.7-.2 2.7-.8.3-.9-3-1.5-.1-1.3-3.8 1.4-.2 1.3-1.5.8 1.9.2-2 1.5-1.1 1.5.4zm.4 1.4-.5.3.2-.9zm-8.5-.1.6 3.5-1.4.6-1.9-.8-.5-2.6zm18.6 4.3-1.7-.6.3-1.4 1.5 1.1zm-18.2 2-.5-.7 1.4-2.2zm-2.8-1-1.1-.1-.1-1.2zm10.4-.6-1.8.4.7-1.1zm-5 .6 1.6.6.1.9-1.3.4-1.8-1 .1-1.2z"/><path id="DE" d="M190.2 345.1v.6l-1.2-.1-.4-1.8zm-2.1-3.1v.7l-2.2-.3.6-2.7 1.3 1zm-16.6-3.1 1.2 1.1-.6 1.5 3.6 1.1 1.2-.5-.7 2.6 2.3.5 4.9-3.7 1.9.4 1.8 1.9 1.2-.1.6 2.1 1.6.9.6 3.7-1.2 2.2 2.1 2.4.6 3-.6 1.7 1.7 3.9-.9 2.6-2-1.2.2.9-6 3.2-1.6.1-1.1 1.4-.8-.8 1.8 2.6-.5 1 1.2 2.1 4.7 4.1-.4 1.4-1-.3-.5 1.4-2.6 1.6 1.1 3.9-3.4-1.5-4.9 2-2.5-1-1.1 1.7-.9-1.4-1.9-.1-4-1.6-.5 1.1h-3.5v-3.5l2.2-5.1-2.9-1.1h-3l-1.6-1.9.6-2.2-1.6-2.1 1-1.3-1.5-2.9.3-1.1-.9-.8 1.1-.8.3-2-1-2.4 3.6-1.1-.3-.8 1.3-2-1.2-.6-.2-1.1 1.3-.2.7-4.4-.5-1.4.9-1.4 3-.1.4 1.6.9-1 .7 1.5.5-3.4 2.5.1 2.4 2.1-2-2.1-1.4-.5-.3-2.4-1.1-.2 1.3-1.7-1.2-2.6zm-6 .2.6-1.9-.3 1.1 1 .1z"/><path id="CZ" d="m192.7 366.3.8-1 4.2 2.7 1.1-.3.6.5-.9 1 1.8 2.1 1.5-.9-.5-1.2 2.2 1.1 1.2-.3-.3 1.2 3.9 1.5 1.1 2.4-2.8 1.6-1.6 2.3-2.6.3-.8 1.5-1.7-1.2-2 .3-4.1-1.5-1.6 2.5h-2.7l-1-1-4.7-4.1-1.2-2.1.5-1-1.8-2.6.8.8 1.1-1.4 1.6-.1 6-3.2-.2-.9z"/><path id="CH" d="M170.6 387.6v1.6l-.2 1.3h.4l2.3 1.3.9-.8.4.7-.1 1.9-1.4-.3.2 2.2-3.6-1.4-1 3.8-2.4-2.4-.1-1.2-2.6 3.2h-3.2l-1.1-2.9-1.4-.1-1 1.4-1-.1 4.2-7.5 1.6.1 1.1-1h3.5l.5-1.1z"/><path id="BY" d="m248.4 329.1 2.7 1.5 1-.6 1.4.6.4 1.9 3.1-1.2 2.8 2-.4 1.9.7 1.9-.7 1.9 1.5 1.1-.3 1 1.4 2.1 1.8 1.2-.3 1.6 2.9.8 1.1 1.9-2.4 2.3-3-.7-.7 1.2 1.3 1.8.8 4.5-2.9.2-1.4 1.2-.9 4.2-1.6-1.4-3.4.6-1-1.6-1.6 1.3-2.3-1.2-2 .9-2.3-1.8-5.7-1.2-5.9.4-3.2 2.4.2-3.5-2-1.7 3.1-3.3-1.8-8.2 3.5.3 4.8-2.8.2.9h1l-.8-1.2 1.3-4.2 3.8-2.6-1.3-.5.6-2.4 1.9-1.2 2.2.2z"/><path id="BA" d="m210.2 403.6 1.4-.1-1 3.1 1.9 1.8-1.4.5 1 1.9-1.3.6h-1l.3 1.3-.7-.3-1.6 2-.1 2.5-3.2-1.9-.3-.2-1.3-2.9-4.1-3.9-2.4-3.7.2-2.4 2.1 1 2.6-1.6 3.7 1.2h3.5z"/><path id="BG" d="m250.2 410.2-.5 2h-1.4l-1 3.7-1.7 1.6 2.2 2.8-2 .3-1.2-1-2.6.7-1.2 1.4-1 .1.2 1.8-.9.4-2.8.4-3.2-1.7-6.6 1.2.4-2.2-2.8-3.2.8-.7-.2-2.3 2.1-2-2.5-3.4 1.4-2.6 1.3.9-.5 1.4 10.8.9 3-1.9 3.6-.9z"/><path id="BE" d="m154.9 365-.1.5-.5 1 1.6.6 1.5 2.9-1 1.3-.6-.3-1 1.6.2 2.5-1.2.2-2.7-1.8-.2-2.4-1.1 1.3-1.7-.1.1-1.8-2-.4-2.4-3.1-1.5.2-1-2.3 3.4-1.9.3.9 2 .3 1.4-1.2 3.4-.6z"/><path id="AZ" d="m333.7 420.9 3.7 5.8 3.8 2.9-3.4.5-.8 4.6-2.1 2.7.1 2.2-1.2.1-2.5-2.4 1.2-.9-.8-1.2.9-.8-1.4-1.5-6.2 4.1v-3.5l-3.8-2.3 1.3-.3.3-1.1-2.1-1.6.6-1.7-2.2-1.3.5-.4-.8-.8 1.2-.9 5.2 2 .6-1.1-2-2.1 1-1.3 1.3.4 2.4 3 2 .5zm-10.2 16.3-2.6-.7-2.9-3.5-.2-.3 1.1-.3.6 1.1 2.6.1z"/><path id="AT" d="m201.6 380.9-.4 1.3 1.2 2.4-.3 1.9-2.7.2 1.1.9-1 .8v2.4l-1.5.9-.6 1.1-4.4.4-1.4 1.2-3.6-.7-5.5-1.1-.9-2.3-3.9.7-1 1.2-2.3-.5-.4-.7-.9.8-2.3-1.3-.2-1.3v-1.6l1.9.1.9 1.4 1.1-1.7 2.5 1 4.9-2 3.4 1.5-1.1-3.9 2.6-1.6.5-1.4 1 .3.4-1.4 1 1h2.7l1.6-2.5 4.1 1.5 2-.3z"/><path id="AM" d="m325 437-1.6.1-1.4-3.6-2.6-.1-.6-1.1-1.1.3-2-1.8-2.6-.5-.4-1.9.6-1.3-1.2-2.1 6.5-1 .8.8-.5.4 2.2 1.3-.6 1.7 2.1 1.6-.3 1.1-1.3.3 3.8 2.3z"/><path id="AX" d="m214.3 295.7 1.1.8-1.9 1.5-.5-1.6.7.4-.1-1.4zm-1.4 1.4-.5.4.1-.8z"/><path id="AL" d="m214.6 417 1.8 1.8.3 2-.3 3.3 2 2.3.3 1.3-1.6 2.8-1.4.8-.3 1.6-1-.2-.6-1.8-2.2-2h.6l-.5-1.4 1-5.4-1-1.3-.3-1.7 1.6-2.6.6.9z"/><path id="IT" d="m195.9 440.7-2 4 .8 2.1-.8 1.9-2.5-.6-1-1.3-6.8-2.9-.8-1.2 1.2-1.9.7.8 1.6-.8 2.1 1.1zM171 426.3l.7 2.1-1 7.2-2.1-.4-.4 1.5-1.3.2-1-1.5.5-3.4-1.4-5.9 1.5.3 2.7-2.3zm3.2-11.1.1.8-1.2-.2zm13.8-21.5-1.3 1.6 1.1.5-.6 1 1.7 2.4-.6.2-.4-1.1h-1.8l-3.9 1.9-.2 1.2 1.2 1.6-1.2 1.4.6 2.9 4.9 3.8 1.9 5 2.2 2.5 2.6 1.7 4.2.2-1.1 2.1 8.6 4.7 2.1 2.4-.5 2.2-2-2.5-3.9-1-1.7 3.9 2.5 2 .2 2.1-2.3 1.1-.3 2.1-2 2.5-1.7-.5 2.4-4.8-2.2-5.7-3.1-1.4-.8-2.4-1.8.4.5-.7-1.7-.5-1.3-2.3h-2.7l-6.1-5.8-2.2-.7.3-.7-2.7-2.5-1.4-5.6-5.9-2.8-3.2 3.2-2.1.6.6-2.3-1.3.2-1.7-1.1.4-2.9-1.5-1.4 2.1-1.9-1.5-2.1 1-1.1h3.2l2.6-3.2.1 1.2 2.4 2.4 1-3.8 3.6 1.4-.2-2.2 1.4.3.1-1.9 2.3.5 1-1.2 3.9-.7.9 2.3z"/><path id="KZ" d="m340.5 403.7-.8-.5.5-.9zm-4-8.9-2.9-1.6.1-.9 1.7-.1-3.3-5.7-3.7-.2-1-3.1-1.7-1.1.2-2.5 1.4-2.2-1-1.4.4-2.1 2.6-4.6 3.5 3.5 1.8-.5-.6-4.5 2.9-1.6.7-1.5 3.1-1.4 2.3-2.9 2.3 1.7 3.7-1.6 1.5 1.5h3.2l3.3 2.9 1.7 3.3.4-3.1 4.4 2.8 3.4-2.9 2.2-.3 1.8 1.2 1.7-1.3 2.2.2 2.2 2.4 2.4.5.3.8 2.2-2.4 1.9 1.2 3-.7 1.4-3.6-4.6-2.2-1.7-2.2 3.9-2.5-.9-2.3 1.1-2 4.3-.2-1.8-1.6-1.9-.4.1-1.1 1.3-.5-2.3-.7 1-2.8 2.9.5 10.6-3.1 2.6.3 1.6-2 11.2-2.6.2-1.3 3.2-1.7 5 1.7 2.3-1 1.9 5.1-.4 2.8h3.8l.8-.9 1.1 2.7.7-1.4 2.5 1.3 1.8-.8-1.5 2.5.4 1.8 1.9-1.2 2.1.9 4.5-4.3 5.8-2.5-.8 2.1h-1l.3.9 5.7 5.3 8.9 16.9 1.8-1.1.1-1.6 1.2-.7 1.6.7-.2 1.5 1.3.1.3 1.4 4.3.1 3.6-1.8 2.5 1.5 1.6 3.5 2.8 1.2 1 2.9 4 .8 2.1-1.8-.2 1.4 2.9 3.1-2.2.2-1.1 3.3-3.3.9-.9 2.9.5 4.1-.7 1.2-2.9 1.4-.5-.9-6.8-1.3-3 9.6 1.2 1-.4 1.8-2.4-.2-1.1-1.1-7.6 2.7 2.5 1-.5 3.6 1.8 5.4-1.7.7.6 1-1.4.8v3.1l-1.2-1.3-2.1-.4-1.3-1.7-8.9-1.1-6.8.8-4.8-2.3-2.7 1.4-.3 3.4-5.1-2-4.3.1-1.3 2.7-7.9 4.9-2.4 4.2-1.9-1.1-.5-2.1-5.1.1-.9-4.5-2-.1.4-5.6-1.2.7-3.7-4.8-1.9.9-5.2-.4-5.1.8-4.1-5.2-10.2-6.8-10.8 3.3v21l-2.3.1-2.4-3.7-3.1-2.1-4.5 1.1-2.3 2.1.4-5.5-2.9-.6-1.2-1.7-1.3-.1v-1.8l-2-4.1-2.4-1.6.7-.9 4.7.5-2.2-2.3 1.7-2.6 7.5.1-1.8-1.4 1.5-3.7-.3-4-2.5-.8-1.4 1-4-1.7-7.6 3.6z"/><path id="AD" d="M138.3 416.7h-.1l-.4.2-.2.1h-.4l-.1-.1v-.5l.1-.3.1-.1.2-.1h.3l.6.2.1.2v.1l-.1.2z"/><path id="MT" d="m191 451.6-.2.1-.2-.2-.1-.1.3-.1.2.1zm1 .9-.1.2h-.4l-.4-.3v-.5l.4.1.4.4z"/><path id="MC" d="m162.3 409.6-.3.1v-.1l.1-.1h.1z"/><path id="SM" d="m183 408.5.2-.3h.3v.2l-.1.3h-.2z"/><path id="GI" d="M108.5 451.4v.3z"/><path id="VA" d="M183.1 420.1"/></g></svg>