<?xml version="1.0" encoding="utf-8"?>
<!-- Generator: Adobe Illustrator 28.3.0, SVG Export Plug-In . SVG Version: 6.00 Build 0)  -->
<svg version="1.1" id="Layer_1" xmlns:amcharts="http://amcharts.com/ammap"
	 xmlns="http://www.w3.org/2000/svg" xmlns:xlink="http://www.w3.org/1999/xlink" x="0px" y="0px" viewBox="0 0 512 512"
	 style="enable-background:new 0 0 512 512;" xml:space="preserve">
<defs>
	
		<amcharts:ammap  bottomLatitude="27.660797" leftLongitude="-27.209780" projection="mercator" rightLongitude="87.150806" topLatitude="80.486581">
		</amcharts:ammap>
</defs>
<g>
	<path id="RU" d="M219.5,335.7l5.6,1.5l1.1,1.4l-0.2,3.7l-13.2-0.7l1.5-3.3l2.3-0.5l1.6-2.1l0.2,0.1l-1.5,2.2l1.7,0.6l0.8-0.2
		L219.5,335.7z M280.4,251.5l-0.2,2l-1-1.7L280.4,251.5z M340.8,208.2l-0.2,1.6l-0.5-0.9l-2,3.1l-3,1.3l-2-0.7l-0.5-5.4l2.2-2.7
		l1.6-0.2L340.8,208.2z M381.8,358.8l1.7,2.2l4.6,2.2l-1.4,3.6l-3,0.7l-1.9-1.2l-2.2,2.4l-0.3-0.8l-2.4-0.5l-2.2-2.4l-2.2-0.2
		l-1.7,1.3l-1.8-1.2l-2.2,0.3l-3.4,2.9l-4.4-2.8l-0.4,3.1l-1.7-3.3l-3.3-2.9l-3.2,0l-1.5-1.5l-3.7,1.6l-2.3-1.7l-2.3,2.9l-3.1,1.4
		l-0.7,1.5l-2.9,1.6l0.6,4.5l-1.8,0.5l-3.5-3.5l-2.6,4.6l-0.4,2.1l1,1.4l-1.4,2.2l-0.2,2.5l1.7,1.1l1,3.1l3.7,0.2l3.3,5.7l-1.7,0.1
		l-0.1,0.9l2.9,1.6l-2.3,1.5l0.2,1.1l-1-0.2l-3.6,2.1l-0.7-0.6l-0.5,2.7l-2.7,4.2l2.5,2.3l0.6,3.2l0.8-1.9l-0.8,4.9l4.6,6.7
		l-3.3,3.6l-2-0.5l-2.4-3l-1.3-0.4l-3.3-1.8l0.3-1.7l-3.5-1.5l-0.4,0.8l-1.1-0.8l-2.8,1l-0.2-1l-4.3-2.4l-4.9-0.3l-3.9-1.8l-2.1-0.2
		l-0.7,0.9l-5.3-5l-8.7-5.1l1.3-0.8l-0.9-0.5l0.6-0.3l1.5,0.9l1.8-0.6l1.2-3.7l2.3-0.5l-3-3.3l3.1-0.2l-0.3-0.9l3.6-1.8l-1.1-1
		l-3.4,1.1l0.6-3.2l2.2-1.5l3.7-0.2l0.8-2.4l-1.3-2l0.6-1.4l0.9-0.1l-1.3-1.2l1.8-1.6l-0.1-2.1l-7.6-3.1l-0.9,0.9l-2.6-3.2l-3.4,1.3
		l-2.1-1.3l-2.2,0.3l-1.1-4.3l-1.1-1.2l-3.6-0.3l-0.4-2.8l1.2-0.7l-2.8-3.8l-5.4,0.3l-1.3,1.7l-1.5-0.3l-0.8-4.5l-1.3-1.8l0.7-1.2
		l3,0.7l2.4-2.3l-1.1-1.9l-2.9-0.8l0.3-1.6l-1.8-1.2l-1.4-2.1l0.3-1l-1.5-1.1l0.7-1.9l-0.7-1.9l0.4-1.9l-2.8-2l-3.1,1.2l-0.4-1.9
		l-1.4-0.6l-1,0.6l-2.7-1.5l-0.2-3l-1.1-2.3l-0.9,0.1l0.8-3.4l-2-1.8l1.8-2.7l-1.2-2.8l-0.3-4.5l3-4.8l-0.6-0.9l0.2-2.5l1.2,0.7
		l0.8-1.3l1.8,0.2l0.8-1.4l4.1,1.1l0.2-0.7l-1.9-2l-2.7,0l-1.8-1.6l-0.5-2.6l-3,1.2l13.1-15.6l2.5-5.1l-1.5-3l-5-4.9l2.2-3.3
		l-0.2-1.5l-2.1-2.8l0.5-2l-2.1-2.3l0.9-1.7l-0.9-1l0.4-3.8l1.6-0.6l0-1.1l-4.3-11.5l3.9-8.4l-2.7-4.4l-2.8-1.4l-0.5-1.8l-0.3-2.1
		l1.2-3.5l-1.5-0.7l2.3-1.4l1.8-3.2l2.9-1.6l0.4-2.4l2.8,1.2l0-2.9l2.8,1l1-1.4l0.9,0.1l-0.1-1.7l4,2.4l-0.1,1.8l-3.4-0.4l1.2,1.8
		l2.6,0.1l-0.1,1.2l2-0.7l-1.3,4.2l2.3-2.8l5.5,1l1.2-0.6l2.4,1l7.8,5.8l2.9,3.8l1.7,0.3l3.1,2.8l1.1,0.1l-0.1-1l2.4,3.6l2.4,1.3
		l0.7,4.9l0.9,0.6l-0.7,4.1l-4.5,5.5l-6.1,2.4l-13.1-3.4l-2.9-2.3l-1.4,0.6l-0.1-1.1l-5.4-2l-1.3-1.9l0.3-0.7l-4.3-0.8l2.5,1.7
		l-0.2,0.9l1.7,2.1l1.3,0.4l0.2,1.6l1.8,0.9l-1.2,1.2l3.1,1.1l2.4,2.8l0.4,1.9l-1.6,3.8l2.6,9.4l2.6,0.6l3,3.6l4.5,1.8l2.2-1.3
		l0.4-1.4l-0.5-2.2l-3.2-0.8l-2.5-3.7l-0.2-1.5l1-0.5l0.4-1.8l1.1-0.2l3.6,3.1l7.3,3l1.3-1.9l1.6-0.1l-2.7-5.7l0.1-2.5l3.7-3.7
		l3.3-1.7l3.1-4.1l1.6,1l2.6,0.1l1.8,1.7l-0.5,1.3l1.3-0.2l1.1,1.4l0-2.3l1.6-4.6l-0.2-2.8l-0.6-1.7l-2.1-1.7l1.9-8.1l-0.1-2.9
		l-3.6-4.8l3,1.4l4.3-0.3l3.4,1.1l3.3,5.7l0,1.4l-4.9,1l-2.6,3.8l2.8,2.5l1.4,3.2l2.5,1l4.9-1.9l0.9-6.6l4-1.1l-0.3-2.4l1.7,0.3
		l6.5-5l5.4-2.5l1.2,0.9l-0.4,1l0.9,0.3l1.4-1.5l-1.6-1.4l6.1-4.5l2.9,0l-2.9,1l0.7,0.7l-0.9,2.4l0.7,2.3l-2.8,1.9l3,0.5l2.1-0.8
		l1.6,1l0.3-1.9l2.1-2.2l2.6-0.9l4.5,1.1l4.4-3.9l0.3,0.6l0.5-1l2.9-1l1.3,3.1l-1.1,1.4l-0.1,2l2.6,1.1l0.8-1.4l-0.1-2.7l2.5-0.3
		l1.9-3l-3.2-7.1l3.1-3.1l10.2,2.1l3.5,1.7l3.1,2.5l-0.1,0.9l8.8,4.4l3.6,4.6l1.7,13.2l-3,6l-11.5,10.4l-7.2,8.1l-7.8,6.1l-4.8,43
		l-5.3,12.7l-3.2,4.1l-0.8,3.6l3.1,2.6l0.5,3.2l-2.5,4l-8.4,1.5l6.4,9.8l5.6-3.9l2.8,1.6l1.1,2.6l-3.7,5.4l0.1,4l2.8,1L381.8,358.8z
		 M383.4,199.3l0,2.5l-3.4,0.1l-0.6-1.8l-2.3-0.3l-1.8-5.2l2.2-1.8L383.4,199.3z M351.8,181.2l1.2,2l-0.7,3.2l-1.2-2.7l-2-1.4
		l1.1-1.3L351.8,181.2z M361.9,154.4l4.6,1.6l-1.3,5.6l-1.7,0.6l-1.3,3l0.5,4.5l-0.9,3.9l4.8,10.9l4.9,4.8l-2,1.8l-3.2-1.8l-0.5,0.2
		l1,1.9l-1.5-1.2l-1.4,0.5l-0.5-1l-2.7,0.3l-1.7-0.9l-0.2,0.8l-5.1-2.5l1-0.5l0.2-2.2l2-0.5l-3.1-2.8l0-2.5l-4.1-0.1l-2,0.8
		l-1.8-2.3l0.3-5.7l1.3-1.1l1.9,0l2.2-5.5l0.2-1.7l-1.3-0.5l-0.1-1.2l1.4-1.5l1.9-0.2l-0.5-3.8l2.1-1.6l1.9,0.2l2.5-1.6L361.9,154.4
		z M413.9,107.6l-6.2,4.4l-11,5.4l-9.6,5.9l-2.7,4l-1.8,1l0.9,1.7l-1.8,2.4l-1.4,0.2l-0.3,2.1l-1.8-1.3l-0.8,3.3l-2.1-0.2l0.3,4.2
		l-0.7,1.5l-2.8,1.8l0,3.7l-1.8-1l1,2.7l-2.4,4.3l-2.2,1l-5.9-2.3l-3,1.5l-0.4-2.8l-1.8-3.3l3.7-2.9l2.9-7.1l3.3-1.2l-2-0.9
		l-0.3-1.1l3.8-5.2l-0.7-0.9l-1.4,0.2l-0.8-2l0.9-1.1l2.2,1.6l1.3-2.4l-0.1-1.8l1-0.5l2.2,0.7l1.9-5.4l3.4-3.3l4.8-2.2l1-1.9
		l2.8,0.4l1.1-3.7l7.4,0.8l6.2-2.5l5.4-3.6l1.3-3l3.2-3.3l3.4-1.6l3.5,1.4l1.9,4.1l-0.2,2.4l-3.1,5.1L413.9,107.6z"/>
	<path id="NL" d="M148.4,362.8l-1.4,1.2l-2-0.3l-0.3-0.9L148.4,362.8z M147.3,360.4l0.5,0.6l-1.6-0.4L147.3,360.4z M151.2,351.3
		l-0.7,0.2l0.7-1V351.3z M148.4,362.8l-3.2-1l3.4,0.5l-1.4-2.3l2.2-3.4l1.2-4.3l5.4-3.2l3.2-0.2l1.6,1.1l-0.7,4.4l-1.3,0.2l0.2,1.1
		l1.2,0.6l-1.3,2l0.3,0.8l-3.6,1.1l1,2.4l-0.3,2l-1.1,0.8l0.9,0.8l-0.3,1.1l-1.6-0.6l0.5-1l0.1-0.5l-3.1-2.7L148.4,362.8z
		 M153,349.1l-0.6,0l1.6-0.3L153,349.1z"/>
	<path id="CY" d="M274.8,454.4l-2.2,1.5l0.5,1.6l-1.5,0.1l-2.9,2l-2.3-0.8l-0.6-1.1l-0.1-0.7l2.4-0.5l0.3-1.1l2.8,0.2L274.8,454.4z"
		/>
	<path id="UA" d="M290.5,390.2l-2.8,0.1l-3.1,2.2l-4,0.5l-3.4,3.1l1.1-1l-0.2-1l-1.6,1.5l0.7,2.9l1.8,2.3l4.7-0.5l-0.8,1.9l-3.9-0.2
		l-5.8,4l-2.6-0.8l0.4-3.2l-4.4-1.8l4.8-3.2l-0.3-0.9l-4.7,0.1l-2.7-1.2l0.7-0.9l-1.9-0.8l3.4,0.5l0.9-0.9l-2.2-0.2l-1.2-3.5
		l0.5,3.4l-1.4-0.1l0.1-0.7l-0.7,0.9l-2.5,0.5l-2.4,4.1l-2.5,0.9l0.3,2.7l-1.3-0.9l-2.7,1.1l-2.3-1.3l1.2-0.4l1.9-3.2l0-2.5l4.9,0.2
		l-1.1-2.5l-1.3-0.8l-0.1-1.9l-1.7-1.3l0-2.9l-6.6-3.2L242,383l-1.3,0.3l-0.6,1.3l-5,1.7l-1.7-1.3l-5.8-1l-1.4,0.9l-3.1-2.9l1.7-4.2
		l1.3,0.1l-0.6-3.5l5.8-6l0-2.3l-2-4.3l3.2-2.4l5.9-0.4l5.7,1.2l2.3,1.8l2-0.9l2.3,1.2l1.6-1.3l1,1.6l3.4-0.6l1.6,1.4l0.9-4.2
		l1.4-1.2l2.9-0.2l1.5,0.3l1.3-1.7l5.4-0.3l2.8,3.8l-1.2,0.7l0.4,2.8l3.6,0.3l1.1,1.2l1.1,4.3l2.2-0.3l2.1,1.3l3.4-1.3l2.6,3.2
		l0.9-0.9l7.6,3.1l0.1,2.1l-1.8,1.6l1.3,1.2l-0.9,0.1l-0.6,1.4l1.3,2l-0.8,2.4l-3.7,0.2l-2.2,1.5L290.5,390.2z M264.5,395.6l0.6,0.3
		l-2.7-1.3L264.5,395.6z"/>
	<path id="TR" d="M247.8,420.2l0.8,2.3l3.6,1.8l-0.4,1.2l-6.1,0.2l-5.4,4.9l0.2-1.3l2.3-1.7l-2.9,0.1l-0.3-0.6l2.5-3.7l-1.3-1.8
		l1.2-1.4l2.6-0.7l1.2,1L247.8,420.2z M304.2,422.8l4,0.4l1.2-0.8l2.9,2.6l1.2,2.1l-0.6,1.3l0.4,1.9l2.6,0.5l2,1.8l0.2,0.3l-1-0.6
		l-0.8,1.9l-1.5,0.2l1.8,5.6l-1,2.3l1.6,1l0.7,3l-2,0.9l-0.7-1.7l-5.6-0.4l-1.7,1.4l-0.7-1l-2.9,1.1l-3.4,0l-5.6,2.2l-4.9-1.1
		l-3.2,1.3l-3.3-0.8l-0.1,2.9l-2.1,2.1l-1-0.4l-0.3-2l1.6-1.8l-0.6-1.3l-2.7,1.7l-2.9-1.3l-4.2,3.3l-3.8,0.8l-6.5-4.1l-2.5-0.2
		l-0.8,3.1l-3.2,0.6l-1.9-0.9l-1.1-2l-2.8-0.5l-0.8,0.9l-2.4-0.2l2.9-1.8l-4.1,0.3l1.1-1l-1.9-2.6l0.7-1.7l-3.9-1.6l0.6-1.9l1,1.6
		l2-0.6l-1.6-1.4l1-0.9l-1.4-2.2l0.9-1.4l-3.3,0.4l0.3-2.8l2.3-2.2l4.1,0.4l0.6-1l0.4,0.8l4.4-0.1l-0.9-0.8l0.7-0.5l3.7-0.6
		l-3.1-1.1l0.1-1.6l8.8,0.6l4.4-3.5l4.1-1.5l6.1,0.3l1.1-0.6l1.2,1.9l3.2,0.3l1.5,2.3l1.6-0.5l6.7,2.4l4.4-1l3.5,0.8L304.2,422.8z
		 M239.3,430.4H238l1-0.6L239.3,430.4z"/>
	<path id="SE" d="M231.7,245.2l-1.9-0.2l-2.5,0.9l-1.5-1.4l-0.9,0.8l-0.6-0.7l-0.6,2.7l-0.7-0.1l-0.9,1.9l-1.3,0.2l0.2,1.5l-0.8-0.6
		l0.7,1.9l-1.8,3.1l1.6,3.4l-3.2,5.7l-4.3,3.8l-1.5-0.1l-1.3,2.2l-1.8,0.6l-1.2,1.7l0.8,0.1l-0.2,0.9l-1.2,1l-1.1-0.9l0.5,2.6
		l-0.8,0.9l-1.8,0l0.9,2.5l-1.1,3.3l0.4,1.6l-1.1-0.4l-0.3,1.3l0.5,7.6l1.7,1.4l1.2-0.5l3.7,4.8l0.5,2.2l-4.2,3.3l-0.8-0.4l-0.1-1.7
		l-0.3,0.7l-1.2-0.4l-0.1,0.7l-3.3-1l-2.2,1.1l3.6,0.3l1.6,1.4l5-1.1l0.5,0.7l-6.8,5.5l-3.2,0.1l3,1.2l-1.1,0.5v7.4l-1.3,6.1
		l-2.2,4.4l-4.4-0.3l-0.1,1l-1.5,0.4l-1,4.3l-5.4-0.1l0.4-2.5l-2.1-4.1l1.4,0.2l-0.6-1.3l0.8-0.1l0.1-1.3l-1.9-2.2l-4.1-9.4
		l-0.1-1.8l-0.8-0.2l-0.4-5l0.2-0.7l0.8,0.3l0.3,1l0.7-0.1l0.7-3l-0.5-2.5l1-2.2l2.3-2l0.4-2.9l-1.2-4.7l1.7-0.5l0.7-2.5l-3-3.2
		l0.6-5l-1.3-9.2l0.7-2.8l2.6-3.8l1.7-0.7l3.2,0.6l0.8-1.5l-0.3-2.8l-1.8-1.1l3.5-7.1l0.3-8.4l3.9-1.8l-0.3-1.9l4.1-6l-1.2-4
		l1.9-2.1l0.9-3l2.3-2.3l2.5,1.6l1.6-6.7l7,2.3l1.1-1.4l-1.1-0.7l1.6-3.5l-1-2l2.1-0.2l5.8,6l3.6,1.7l3.3,4.6l-0.8,5.4l1.2,0.4
		l-0.4,3.2l1.5,3.4l-1.2,5.9L231.7,245.2z M210.5,316.2l-1.1,1l0.4,2.4l-3.2,3.7l0.6-1.2l-0.6-3.7l1.7-2.1l1.5-0.7L210.5,316.2z
		 M199.8,328l-0.5-2.1l2.6-5.9L199.8,328z"/>
	<path id="SI" d="M199.8,393.9l-0.8-0.2l-0.4,1l-2.5,1l0.1,2l-1.6,0.8l0.3,1.6l-2.3-0.1l-0.9-1.1l-0.8,1l-3.3-0.2l0.6-0.4l0.6-0.2
		l-1.7-2.4l0.6-1l-1.1-0.5l1.3-1.6l3.6,0.7l1.4-1.2l4.4-0.4l0.6-1.1l0.8,0L199.8,393.9z"/>
	<path id="SK" d="M224.9,377.9l-1.7,4.2l-1.7,0.4l-1.1-1.3l-4,0.2l-2.3,2.4l-1.4-0.5l-3.5,1.4L209,386l-4,0.1l-2.6-1.5l-1.2-2.4
		l0.4-1.3l0.8-1.5l2.6-0.3l1.7-2.4l2.8-1.6l1.3,0.7l1.2-1.3l1.4,1.5l-0.1,1.1l1.3,0.1l1.3-1.3l5.3-0.2L224.9,377.9z"/>
	<path id="RS" d="M215.4,396.2l2.2,2.2l0.1,1.7l2.9,1.9l-0.6,0.8l0.8,0.6l-0.7,0.4l3.1,1.7l2.3-0.6l0.4,0.5l-1,0.8l0.9,1.2l-1.4,2.6
		l2.5,3.4l-2.1,2l0.2,2.3l-0.8,0.7l-3.3,0.4l0.8-2.4l-1.5-0.5l-2.5-2.9l-1.9,2.5l-4.8-4l1.3-0.6l-1-1.9l1.4-0.5l-1.9-1.8l1-3.1
		l-1.4,0.1l0.2-1.6l1.4-0.4l-1.7-1.1l-0.4-3.2l3-1.4L215.4,396.2z"/>
	<path id="RO" d="M248.7,400.2l2.3,1.3l2.7-1.1l1.3,0.9l-0.6,2.5l-2.1,0.5l0.2-1.3l-0.8,0.3l-1.3,6.9l-6.3-2.5l-3.6,0.9l-3,1.9
		l-10.8-0.9l0.5-1.4l-1.3-0.9l-0.9-1.2l1-0.8l-0.4-0.5l-2.3,0.6l-3.1-1.7l0.7-0.4l-0.8-0.6l0.6-0.8l-2.9-1.9l-0.1-1.7l-2.2-2.2
		l3.7-1l3.7-7.5l3.7-2.7l1.4-0.9l5.8,1l1.7,1.3l5-1.7l0.6-1.3l1.3-0.3l1.5,0.7l4.6,7.3l0.7,2.1l-0.7,6.3L248.7,400.2z"/>
	<path id="PT" d="M58.9,468.1l2.1,0.5l-1.4,0.5L58.9,468.1z M23.6,442.7l1.9,0.4l-2.3,0l-0.5-0.7L23.6,442.7z M17.6,438.4l-1.3-0.7
		l1.1-0.1L17.6,438.4z M99.8,446.2l-1.8,0.9l-4.9-0.1l0.8-2.1l-0.3-5.4l0.9,0.1l-0.5-0.5l-1.7,0.4l-0.2-1.1l1-0.5l1-1.8l-1.4,1.8
		l-0.9,0.2l-0.5-0.5l3.3-10.6l-0.4-6.6l2.1-1.1l0.5,1.8l6.4-0.7l0.3,1.5l1.4,0.8l-3,2.9l0.5,3.7l-0.9,1l0.2,2l-2.3,0.7l2.2,3.3
		l-1.4,3.2l1.6,1.4l-2,2.4L99.8,446.2z"/>
	<path id="PL" d="M212.7,341.5l13.2,0.7l2.5,1.1l0.5,1.9l1.8,8.2l-3.1,3.3l2,1.7l-0.2,3.5l2,4.3l0,2.3l-5.8,6l0.6,3.5l-1.3-0.1
		l-3.8-2.2l-5.3,0.2l-1.3,1.3l-1.3-0.1l0.1-1.1l-1.4-1.5l-1.2,1.3l-1.3-0.7l-1.1-2.4l-3.9-1.5l0.3-1.2l-1.2,0.3l-2.2-1.1l0.5,1.2
		l-1.5,0.9l-1.8-2.1l0.9-1l-0.6-0.5l-1.1,0.3l-4.2-2.7l-0.8,1l0.9-2.6l-1.7-3.9l0.6-1.7l-0.6-3l-2.1-2.4l1.2-2.2l-0.6-3.7l1.4,0.6
		l-0.1-1.3l-1.4-0.3l0-0.6l8.3-2.4l1.6-1.9l5.4-1.9l2-0.2l1.8,1.1l-1.3-0.4l1.7,2.7L212.7,341.5z"/>
	<path id="SJ" d="M93.4,188l-0.6-0.2l3.2-3.7l1.4-0.5v1.8L93.4,188z M211.1,138.1l-0.5,0.6l-0.8-0.9l-0.2-1.6l1.3-0.1L211.1,138.1z
		 M221.1,62.2l1.8,0.4l1.1,7.3l2.9-0.5l1.9,2.1l-1.3,1.2l-0.1,1.9l2.4,2.3l2.3-0.5l2.8,2.8l-3.2,1.9l-1.6,3.8l-1.5,1.6l-1.2-0.1
		l-1.3,2.1l-1,0.2l-0.5-0.9l1.1-4.6l-1.2-0.3l-1.4,1.3l-4.7,0.8l-0.2-2l1.4-1.1l1.9-6l-2.6-2.7l-2.1-5.4l0.1-1.9l-0.8,0.1l-0.6-1.4
		L221.1,62.2z M243.1,61.1l-1.7-1.5l0-1.9l2.3,2.4L243.1,61.1z M177.8,61.9l0,1.5l0.7-0.1l1.7,2.4l1.2,4.2l-0.6,0.2l-1.6-3.4
		l-1.9-1.6l-2.4-9.4l1.7,1.2L177.8,61.9z M252.2,55.4l2.7,0.2l-1.6,1.1l-3.4-0.8l-1.9,1.3l-0.6-0.5l2.6-2.5l1.4-0.1L252.2,55.4z
		 M200.9,32.8l0.8-1.3l1.1,0.4l2.6,3.3l0.5,2.3l-1.2,7.3l3-5l1.7,4.1l-0.6,3.7l1.7,2.3l1.7-0.4l1.1,0.6l0.6,2l0.9-0.5l0.2-1.5
		l1.9,0.9l0.7,1l-1.1,1.7l3.7,5.2l-1.2,1.4l-5.9,1.4l-2.6,6.1l-0.3,4.9l-2.3,1.1l-0.6,8.8l-2.8,3.5l-2,6.6l-0.4,7.2l-1.5,1.4
		l-4.8-5.6l-1.8-3.7l-3.2-2.8l-1.6-5.2l0.3-1.1l1.3-0.3l1.3,1.1l0.9-3.2l8.8-2.1l-0.5-2l-3.6,1l-2-0.4l-3.1,1.8l-3.2,0.1l-1.2-1.6
		l-0.5-3.5l1.1-1.2l1.5,1.6l-0.2-1.3l4.6-3l1.5-0.1l0.4-2l5.1-0.9l0.7-1l-1.9,0.2l-1.2-2l1.4-3.4l-1.1,0.2l-2.5,3.4l-2.2,0.4
		l-0.7-2.4l0.5-3.9l-1.5,3l-1.4-1.9l-0.9,1l-0.1,3.9l0.9,1.6l-2.2,3l-4,0.7l-3.7-7.4l-1.6-1.7l0-3.4l-2.1-2.6l0.8-0.7l3,1.7l0.5-1.1
		l-1.8-1.6l0-5.9l-1.7,0.2l-0.2,3l-0.8,0.9l-0.5-0.5l-2-8.8l-0.2-5.5l0.8-0.9l1.2,1.9l0.4-1.6l1.9-0.8l2.4,2.5l0-2.4l2,0.9l3.9-2
		l0.9,1l-0.6,2.4l-3.1,0.7l-2,2.7l3.3-0.1l0.2,2.2l2.4,3.2l0.3-5.6l2.3-5l1.9,2.9l3,11.4l2.4,4.4l-2.2-15.9l1.8-8.7l1.2,0.7
		L200.9,32.8z M266.7,27.6l-4,0.9l-0.4-0.6l6.8-3l2.2,0.3L266.7,27.6z M209.1,23.2l-0.9,1.4l-1.5-1.1l0.5-1.7L209.1,23.2z
		 M218.1,24.4l2.7,0.2l0.6,2.1l2.5,2.7l0.7-8.7l2.3-1.8l1.3,1.2l-0.8,5.9l2.4-0.5l1.1-2.4l1.2,0l0.3-1.4l1.3,1.9l0.7-0.4l4.4,3.1
		l4.3,0.4l1.2,2.5l0.2,3.7l-5,6.8l-1.5,4.9l-2.1,1.5l-1.7-0.6l-3.3,3.8l-4.4-0.8l-0.9-2.2l0.7-1.9l-4,0.7l-4.4-0.4l-0.4-1l-2.6-1.1
		l-1.9-2.3l0.6-1l2.8,0l1.2-2.7l-2.8-0.7l-3,1.2l-2.8-0.8l-2-4l2.5-2.6l-2.1-0.6l-1.8-2l3.6-1.2l2.4,1.9l0.8-1.1l-1.5-4.2l2.4,2.6
		l-0.1-6.3l2.6,1.9L218.1,24.4z"/>
	<path id="NO" d="M237.7,184.1l1.5,0.5l0.8,1.4l-2.3,0.4l-1.1-1.2L237.7,184.1z M259.8,201.1l0,2.9l-2.8-1.2l-0.4,2.4l-2.9,1.6
		l-1.8,3.2l-0.5-1.8l2-3.5l-0.8-2.4l-5.8-4.8l-2.6,1.9l-2.5-0.1l-1.9,2.7l-1.4,8.3l-3.4,4.6l-4.5-2.4l-2.2,1.8l-3.8-0.8l-3.4-6.5
		l-2.2,0.7v2l-1.9,0.1l-2.1,0.2l1,2l-1.6,3.5l1.1,0.7l-1.1,1.4l-7-2.3l-1.6,6.7l-2.5-1.6l-2.3,2.3l-0.9,3l-1.9,2.1l1.2,4l-4.1,6
		l0.3,1.9l-3.9,1.8l-0.3,8.4l-3.5,7.1l1.8,1.1l0.3,2.8l-0.8,1.5l-3.2-0.6l-1.7,0.7l-2.6,3.8l-0.7,2.8l1.3,9.2l-0.6,5l3,3.2l-0.7,2.5
		l-1.7,0.5l1.2,4.7l-0.4,2.9l-2.3,2l-1,2.2l0.5,2.5l-0.7,3l-0.7,0.1l-0.3-1l-2.3-1.2l-1-4.8l-1.7,6.2l-1.4,0.4l-1.2-1.3l0.4,1.1
		l-6.2,6.6l-2.9,1l-1.9,0l-0.5-1l-1.2,0.4l0.3-1.3l-2.5-0.9l-2.2-2.8l0.4-2.3l2,1.2l1.1-1.1l-1.1,0.4l-0.9-1.2l0.3-1.6l1.9-2.2
		l-4.3,3.2l-1-0.5l0.7-3.4l2-0.2l1.9-1.3l-2-0.4l1.7-3.1l1.6-1.5l0,2.1l2-3l-3.5,1.4l-4.2,5.9l0.2-3.7l2-0.3l-1.7-0.7l-0.6-2
		l2.1-2.1l-1.7,1l-0.5-0.6l-0.5-3.4l7.4-0.9l1.1,1.6l0-1.2l2.4-1l-0.8-0.1l-0.2-0.7l0.4-1.2l-0.5,0.5l-0.2,1.7l-1.4,0.2l-1.4-1.1
		l-0.9,1.4l-4.4,0.2l-1.3-1.2l-0.1-1.6l1.4-0.5l-1.7-2l0-1.5l2.2-0.2l2.3,1l3-0.7l-6.1-0.6l-0.5-2l0.9,0.1l2.3-2.4l0.7,0.6l2.1-0.5
		l0.5-0.5l-2.3,0.5l0.9-1.8l5.1,0.6l0.5-0.3l-0.6-0.8l2.3-0.5l-5.7,0.1l0.9-1.9l2.6-1.6l2.2,0.1l2.2,2.2l-1.9-2.9l0.5-1.2l1.5-0.5
		l-1.1-1.5l0.9-1l2.3,0.1l0.1,1.3l2.3-1.6l1.4,2.2l3.1-0.7l-0.1-1.5l2.7-1.7l-0.8-0.9l1.2-1l-0.6-0.4l-1.6,1.2l0.1,1.4l-3.7,2.4
		l-2-1.8l4.2-6.8l4.5-3.9l-1.4,0.6l0.8-2.2l2.8-2l0.6,0.9l1.8-1.3l0.7-1.2l-2.1,1.6l-1.2-1.8l2.4-5.5l1.4-0.6l-1-1.5l3.7-0.8
		l1.5-1.2l-3.8,0.7l0.4-4.3l1.7-1.6h1.4l-1.3-1.2l1.9-2.3l5.5-0.9l-4.1-0.7l2.2-3.3l2.6,2.5l0.4-1.9l-1.8-0.9l0.2-1.8l-1.9,1.1
		l-0.2-1.6l1.4-1.8l2,0.3l-1.3-1.3l2.9-1.8l1.3,3.9l0.3-2.3l-0.8-2.5l0.8-0.8l2.4,0.4l2.5-0.8l-0.5-0.6l-3.5,0.2l-0.3-0.8l3.7-3.1
		l1.3-3.5l1.7-0.7l0.7-3.7l2.5,1.9l-1-2.1l1.6-0.8l0.9-2.2l2-0.7l-0.2,4.6l1.3-4.8l1.5-1.5l0.1,4l-1,3.3l1.6-2.4l1.1,0.3l-0.9-2.1
		l0.4-2.7l2.3,0.3l1.1-1.5l2.3,2.2l-0.7-2.8l-1.9-2.1l3.6-0.9l0.4,0.6l1.5-1.4l2.8,4.8l0.1-3.2l2.8-3l1.6-2.7l-0.7-1.6l2.1-2.3
		l2.1,2.1l0.7-0.9l1.4,0.8l-3.2,8l0.2,1.3l0.7-0.3l6.1-10.1l-0.3,6.7l1.7-1.3l0.8-2.9l1.5-0.8l-1.3-1.8l1.5-1.9l3.3,1.5l-0.3,1.9
		l-1.8,1.9l1.6,0.1l-0.3,5.2l2.7-7.7l1.1,0l2.7,2.7l1.4-0.7l0.6,2l1.6,0.2l1.4,1.5l0.1,1.6l-2.8,1.8l-6.2-0.3l3.4,2.1l0.4,2.8
		l1.6,0.3l0.6-1.7l0.8,1.7l0.2-0.9L259.8,201.1z M228.7,188.3l-2.6,3.5l-2,0.3l-1.5-1.8l4.1-0.7l1-1.3H228.7z M231.1,191.4l-1.3,0.1
		l0.3-2.3l1.3,1.2L231.1,191.4z M229.5,191.6l-0.3,1.8l-1.6,1.6l-0.9-2l2.5-2.2L229.5,191.6z M213.4,195.8l1.3,1.1l-0.3,0.6l-0.9,0
		l-0.8-2.3L213.4,195.8z M211.2,197.6l1.5,0.6l-1.1,2.4l-1.4,0.7l-0.9,2.2l-2.7,0.3l0.9-2.5l1.4-0.2l0-1.3l1.5-1.8l0.3-2.5
		L211.2,197.6z M217.6,197.4l-1.3,0.2l0.1-1.6l1.2-0.2L217.6,197.4z M255.9,200.9l-0.8,0.4l0.3-1.7l0.9,0.8L255.9,200.9z
		 M203.9,203.3l2.1,1.1l-0.2,3.6l-1.9,0l-1.7,2.1l-1.1-0.7l0.8-3.4l1.5-0.2l-0.5-1.1L203.9,203.3z M196.6,215.5l2.4-3.6l0.8,2.8
		l-2.3,2.6l-2.2,1l-0.7-0.7l-2.7,2l-1.6,0.1l1.4-2.4l2.1-0.5l1.3-2l0.3-5l2.4-3L196.6,215.5z M194.3,211.1l0.8,1.8l-0.7,1.9
		l-3.4-0.5l0.6-1.8l1,0.3l0.3-1.4l0.7,0.2l0-1.2L194.3,211.1z M188.7,218.8l0.9,0.5l-3.6,2.5l0.3-1.8L188.7,218.8z M185,223.2
		l-0.6,0.6l1-2.8L185,223.2z M182.7,242.8l0.4-1.7l0.4,0.9L182.7,242.8z M183,244.2l-0.1-0.8l1.1-0.4L183,244.2z M180.8,247
		l-0.8,0.2l0.1-0.8l0.7-0.2L180.8,247z M177.7,254.6l-2.1,0l1.2-1.1L177.7,254.6z M166.2,266.1l-0.8-0.2l2-1.1l0.1,1L166.2,266.1z
		 M164.6,269.2l-1.2-0.7l1.1-0.5L164.6,269.2z M151.5,289.4l-0.7,0l0.3-1L151.5,289.4z M152,296.1l0,1l-0.6-2.2L152,296.1z"/>
	<path id="ME" d="M211,411.4l4.8,4l-1.2,0.4l0,1.2l-1.1,0.4l-0.6-0.9l-1.6,2.6l0.3,1.7l-3.4-3.2l-0.3-0.7l0.1-2.5l1.6-2l0.7,0.3
		l-0.3-1.3L211,411.4z"/>
	<path id="MK" d="M224.1,418.3l2.8,3.2l-0.4,2.2l-1.3,1.1l-2.5,0l-1.7,1.4l-2.6,0.1l-2-2.3l0.3-3.3l0.9-1.1l3.3-1L224.1,418.3z"/>
	<path id="MD" d="M248.7,400.2l-0.6-0.9l0.7-6.3l-0.7-2.1l-4.6-7.3L242,383l3.9-1.4l6.6,3.2l0,2.9l1.7,1.3l0.1,1.9l1.3,0.8l1.1,2.5
		l-4.9-0.2l0,2.5l-1.9,3.2L248.7,400.2z"/>
	<path id="LV" d="M245.1,318.6l2,1.8l-0.8,3.4l0.9-0.1l1.1,2.3l0.2,3l-2.4,2.6l-2.2-0.2l-1.9,1.2l-3.9-3.3l-2.5-0.7l-1-1.6l-3,1.1
		l-8.5-1.1l-4.3,2.5l0.1-5.7l2.7-5.8l3.4-1.2l3.1,4.9l1.5,0.9l3.1-2.1l-0.3-4.8l4-1.4l3,1.7l2,2.3l2.1-0.5L245.1,318.6z"/>
	<path id="LU" d="M156.3,371.1l1.6,2.1l-0.6,2.2l-2.3-0.5l-0.2-2.5l1-1.6L156.3,371.1z"/>
	<path id="LT" d="M241.9,332.7l-0.6,2.4l1.3,0.5l-3.8,2.6l-1.3,4.2l0.8,1.2l-1,0l-0.2-0.9l-4.8,2.8l-3.5-0.3l-0.5-1.9l-2.5-1.1
		l0.2-3.7l-1.1-1.4l-5.6-1.5l-0.8-6l4.3-2.5l8.5,1.1l3-1.1l1,1.6l2.5,0.7L241.9,332.7z M218.3,335.5l-0.2-0.1l0.9-2.4L218.3,335.5z"
		/>
	<path id="LI" d="M170.8,390.5l-0.4,0l0.2-1.3L170.8,390.5z"/>
	<path id="KV" d="M220.9,418.7l-3.3,1l-0.9,1.1l-0.3-2l-1.8-1.8l0-1.2l1.2-0.4l1.9-2.5l2.5,2.9l1.5,0.5L220.9,418.7z"/>
	<path id="JE" d="M122.3,376.9l-0.9,0.3l0.1-0.6L122.3,376.9z"/>
	<path id="IS" d="M65.8,240.9l4-1.6l-2.2,2.7l1.7,1.1l-0.5,2.6l1.8-0.2l-0.3,2.2l1.3-0.7l2.3,1.2l-0.8,1.7l1,2.9l-1.2,0.7l-0.8,2.5
		l-1.4,0l-1,3.2l-5,2.3l-3.4,3l-4.9,1.4l-0.5,1.7l-3,1.2l-6.5-1.4l-1.2-1.2l0.3-1.1l-1,0.6l-1.9-1.9l-6.5,1.1l-0.2-2.4l0.8,0.9
		l1.3-0.5l3-3.3l-2.5,0.6L39,258l1.5-1.1l-2.2,0.9l-1.5-2.6l-3.7-0.3l-2,0.8l-0.9-1.2l5.2-1.8l3.7,0l0.5-1.4l-1.1,0.6l-2-0.7
		l2.8-2.5l-4.4-1.3l-4.2,1.7l-2.4-1.2l0.9-0.9l1.6,0.8l-1-2.4l2,1l1.4-0.7l-2.3-1l1.3-0.3l-1.1-1.4l1.4-0.1l-0.7-0.9l0.6-0.8l1.6,1
		l0.2,1.1l1.5-0.5l0.2,1.6l0.7-0.4l0-1.7l-2.1-1.5l1.9-0.6l-2.6-0.8l0.7-0.9l2.2,0l4.3,4.2l0.1,2.9l-1.2,0.2l2.2,4.6l1.4-3.7
		l1.5,0.7l1-5.4l3,3.4l0.4-3.2l2.2-1.1l2.9,4.6l-0.6-4.3l1.6,0.1l1.5,1.8l1.7-2.5l1.3,0.8l1.5-0.7l-0.2-2.6l1.2-0.8l1.1,0.1
		L65.8,240.9z"/>
	<path id="IE" d="M100.6,336.9l-1.4,2.4l-1.5,0.5l0.7,0.7l-1.5,1.3l2.1,1.9l1.2,0.1l1.3-2l1.5,2.5l1.8-0.2l-0.5,1l1.3,7.1l-1.8,4
		l0.6,0.7l-2.4,0.6l-0.3-0.6l-4.6,2.9l-1.5-0.4l0,1.2l-3.7,1.4l-2.3,0.1l1.1-1.4l-2.3,0.6l2.2-1.8l-3.1,0.5l1.8-2.2l-1.9-0.6
		l2.4-0.3l-0.6-1.1l1.1-1l3.5-0.9l-0.9-0.5l-0.8,0.8l-3.1,0.4l2.6-3.6l1.5-0.8l-4.9-1.4l-0.1-1l1.7-0.4l-0.8-0.9l1.4-0.6l-1.4-0.4
		l0.2-1.6l-1-0.4l0.2-0.7l6.3,0.1l-0.3-0.8l2-2.1l-2.6-0.3l1.6-1.5l0.4-1.9l2.5-0.8l0,2.1l1.5-2.9l1.5,0.9L100.6,336.9z M89.2,345.4
		l-1.3-0.5l1.1-0.2L89.2,345.4z"/>
	<path id="IM" d="M112.3,343.5l-1.6,0.8l1.5-2.4L112.3,343.5z"/>
	<path id="HU" d="M223.3,382.1l3.1,2.9l-3.7,2.7l-3.7,7.5l-3.7,1l-2.6-0.4l-3,1.4l-2.3,1.1l-2.3-0.2l-5.4-4.3l-1-2.2l-0.8,0l1.5-0.9
		l0-2.4l1-0.8l-1.1-0.9l2.7-0.2l0.3-1.9l2.6,1.5l4-0.1l0.3-1.3l3.5-1.4l1.4,0.5l2.3-2.4l4-0.2l1.1,1.3L223.3,382.1z"/>
	<path id="HR" d="M199.8,393.9l5.4,4.3l2.3,0.2l2.3-1.1l0.4,3.2l1.7,1.1l-1.4,0.4l-0.2,1.6l-1.4-1.2h-3.5l-3.7-1.2l-2.6,1.6l-2.1-1
		l-0.2,2.4l2.4,3.7l4.1,3.9l1.3,2.9l-2.9-2.6l-3.8-0.7l-3.3-3.8l-0.3-0.5l1.5-0.1l-2-1.9l-0.5-2.8l-1.3-1.3l-1-0.2l-1.9,3l-1.2-4
		l3.3,0.2l0.8-1l0.9,1.1l2.3,0.1l-0.3-1.6l1.6-0.8l-0.1-2l2.5-1l0.4-1L199.8,393.9z M192.7,403l-1.5-0.6l0.5-0.9L192.7,403z
		 M204.6,415l3.2,1.9l0.3,0.7l-6.2-3.3L204.6,415z M204.3,415.7l0.6,0.4l-1.7-0.5L204.3,415.7z"/>
	<path id="GR" d="M240.8,421.7l1.3,1.8l-2.5,3.7l-3.9-1.5l-5.6,1.4l0.4,1.8l2,1.5l-2.6-1l0.9,2l-2.2-1.6l0.8,1.9l-3.1-2.6l0.1-1
		l-1.2,0.5l-0.2,2.5l3.1,4.7l-0.7,0.4l0-0.8l-1-0.3l0.6,1.4l-2.1,0.9l2.9,1.1l3.2,2.8l0,2.4l-2.2-1.9l-1.9,0.8l1.9,2.3l-1.4,0.6
		l-1.8-1.1l1.8,5.7l-1.8-1.8l-1.2,1.7l-1.5-2.9l-0.8,1.5l-1.3-1.8l0.4-1.6l-2.3-2.6l1.2-1.6l1.8-0.7l4.6,2l1-1.2l-3-1.4l-4,0.6
		l-0.6-0.9l-0.6,0.8l-1.7-2.8l1.4-0.1l0-0.7l-1.7,0l-3-3.6l1,0.2l0.3-1.6l1.4-0.8l1.6-2.8l-0.3-1.3l2.6-0.1l1.7-1.4l2.5,0l1.3-1.1
		l6.6-1.2l3.2,1.7l2.8-0.4l0.9-0.4l-0.2-1.8L240.8,421.7z M234.3,427.7l-1.1-0.2l0.5-0.8L234.3,427.7z M237.1,431.2l-0.3,0.9
		l-1.2-0.2l0-0.8L237.1,431.2z M214.7,434.2l-1.8-1.8l1.2,0L214.7,434.2z M241.1,434.7l0.8,1.5l-0.5,0.4l-1.5-0.6l0.7-0.6l-0.8,0.5
		l-1-0.6L241.1,434.7z M228.6,436.7l3,1.7l1.7,3.5l-2.1-2.2l-4.9-2.6L228.6,436.7z M217.2,438.6l-0.6,0.1l0.6-1.4L217.2,438.6z
		 M239.8,440.7l-0.8-0.1l-0.2-1.8l1.3,0.2L239.8,440.7z M216.9,439.8l0.6,1.7l-1.7-0.6L216.9,439.8z M218.1,442.9l0.4,0.5l-0.7,0.2
		l-0.8-1L218.1,442.9z M242.9,442.8l1,0.5l-2-0.1L242.9,442.8z M237.5,447.3l-0.8-0.5l0.7-0.7L237.5,447.3z M247.1,452.6l-0.5-1.2
		l2.2-1.4L247.1,452.6z M230.4,454.7l1.3-0.3l0.8,1.2l5.8,0.1l0.3,1.1l2.2-1l-0.6,1.5l-5.7,0.4l-1.4-1.1l-3.6-0.5l-0.1-1.4l0.7-0.6
		L230.4,454.7z"/>
	<path id="GG" d="M120.3,375.2l-0.1,0.4l-0.4-0.1L120.3,375.2z"/>
	<path id="GE" d="M324.8,420.7l-1,1.3l2,2.1l-0.6,1.1l-5.2-2l-1.2,0.9l-6.5,1l-2.9-2.6l-1.2,0.8l-4-0.4l1.1-2.5l-1.1-3.9l-6.3-4.3
		l0.7-0.9l2.1,0.2l3.9,1.8l4.9,0.3l4.3,2.4l0.2,1l2.8-1l1.1,0.8l0.4-0.8l3.5,1.5l-0.3,1.7L324.8,420.7z"/>
	<path id="FR" d="M155,374.9l2.3,0.5l1.6,1.9l3,0l2.9,1.1l-2.2,5.1v3.5l-1.1,1l-1.6-0.1l-4.2,7.5l1,0.1l1-1.4l1.4,0.1l1.1,2.9
		l-1,1.1l1.5,2.1l-2.1,1.9l1.5,1.4l-0.4,2.9l1.7,1.1l1.3-0.2l-0.6,2.3l-5.8,4l-4.4-2.1l-1.5,0.4l-3.3-1.1l-3.6,3.7l0.7,2.7l-4.9,0.4
		l-1.4-0.8l-1.2-0.5l-3.1-1.4l-0.3,0.9l-5.1-0.6l-3.7-1.4l0.2-1.1l-1.6-1l1.3-0.9l1.7-6.5l-0.7,0.1l0.7-5.1l2.2,3.2l-1-2.8l-1.7-1.5
		l0.7-0.2L126,395l-2.7-1.2l-1.1-1.8l-0.6-2.2l0.7-0.7l1.2,0.4l-1-0.6l-2.2,0l0.3-1l-1.4-0.3l-0.1-0.7l-6.4-1.2l-1.5-1.3l1.5-0.8
		l-1-0.8l1.4-0.1l-2-0.4l0-1.1l6.2-1.9l2.3,1.9l1-0.7l1.8,0.4l0.4-0.7l2.2,0.3l-2-6.6l2.5,0l0.5,1.9l4.1,0.6l2.4-1l-1.2-0.4l0.2-1.3
		l4.4-1.9l1.5-1.7l0.3-4.2l3.6-1.4l1,2.3l1.5-0.2l2.4,3.1l2,0.4l-0.1,1.8l1.7,0.1l1.1-1.3l0.2,2.4l2.7,1.8L155,374.9z M125.8,397.4
		l-0.1,0.5l-0.7-1.4L125.8,397.4z M170.4,415.5l0.3,3.8l-1.5,4.2l-1.6-1.1l-1-4.3l1-1.4l2.1-0.6l0.2-1.7L170.4,415.5z"/>
	<path id="FO" d="M104,279.1l-0.6,0.5l0-1.4L104,279.1z M103.1,279.4l-0.1,1.2l-0.8-0.2l0.5,1.5l-1.9-3L103.1,279.4z M100.7,280.2
		l0.3,0.8l-1.1-0.2l-0.2-0.6L100.7,280.2z"/>
	<path id="FI" d="M251.8,210.1l-2.3,1.4l1.5,0.7l-1.2,3.5l0.3,2.1l0.5,1.8l2.8,1.4l2.7,4.4l-3.9,8.4l4.3,11.5l0,1.1l-1.6,0.6
		l-0.4,3.8l0.9,1l-0.9,1.7l2.1,2.3l-0.5,2l2.1,2.8l0.2,1.5l-2.2,3.3l5,4.9l1.5,3l-2.5,5.1l-13.1,15.6l-1.4,0.6l-1.1-0.7l-2.8,1.1
		l0.1-1.8l-0.8,1.7l-1.8-0.4l0.3,1.1l-1.2,0.6l-0.4-0.6l-5.1,2.6l-4.1,0.3l-1.8,1.4l0.7-1.7l-1.2-1.6l-0.7,1.3l-1.2,0.2l0.5-3
		l-4.8-1.8l-0.3-3.2l1-5.4l-1.5-3.5l0.4-2.6l-1-3.1l1.5-3.8l0.7-0.1l-0.4-1.5l3.2-1l0-1.8l5.4-5.1l4-7.4l3.1-0.6l0.4-1.5l-0.1-4.7
		l-2.8-1.9l-0.2-1.9l-2,0.6l-1.9-4.6l1.2-5.9l-1.5-3.4l0.4-3.2l-1.2-0.4l0.8-5.4l-3.3-4.6l-3.6-1.7l-5.8-6l1.9-0.1v-2l2.2-0.7
		l3.4,6.5l3.8,0.8l2.2-1.8l4.5,2.4l3.4-4.6l1.4-8.3l1.9-2.7l2.5,0.1l2.6-1.9l5.8,4.8l0.8,2.4l-2,3.5L251.8,210.1z M234.6,253.4
		l-1.1,0.1l0-0.6l1.7-0.1L234.6,253.4z M219.4,270.1l0.8,0.4l-0.7,0.4l-0.7-1.2L219.4,270.1z M220.4,294.2l-0.6,0.4l-0.3-1.2
		L220.4,294.2z M223.4,295.5l1,0.6l-0.2,1.2l-1.2-1L223.4,295.5z M222,297.5l-0.6,0.2l0.3-0.7L222,297.5z"/>
	<path id="EE" d="M247.8,302.9l0.6,0.9l-3,4.8l0.3,4.5l1.2,2.8l-1.8,2.7l-1.6-0.6l-2.1,0.5l-2-2.3l-3-1.7l-4,1.4l0.9-3.8l-1.7,0.7
		l-1.5-0.8l-1.1-2.4l0.7-1l-1-1.1l0.3-2.2l2.5-0.8l1.2-1.5l4.4-0.4l0.3-1l6.1,1.6l3.8,0.3L247.8,302.9z M226.6,308.3l-1.6,1.1
		l-0.6-1.4l-1.5-0.7l2.5-1.2l1.1,0.8L226.6,308.3z M228.3,310.5l-1-0.9l0.9,0.1L228.3,310.5z M225.3,309.9l3,1.4l-4,1.9l-1.6,2.3
		l0.8-1.8l-1.3-0.9l-0.1-1.9L225.3,309.9z"/>
	<path id="ES" d="M123.3,412.1l1.6,1l-0.2,1.1l3.7,1.4l5.1,0.6l0.3-0.9l3.1,1.4l0.1,0.9l1.1-0.4l1.4,0.8l4.9-0.4l0.1,2.7l-1,1
		l-9.6,5.2l0.7,0.6l-1.2,0.6l-3.9,6l0.5,2.5l1.7,1.6l-3,2.4l-1.2,2.9l0.4,0.7l-3.8,1.3l-2,3.2l-9.4,0.3l-3.4,1.5l-1.9,2.1l-1.7-0.8
		l-1.4-2.3l0.7-1.4L104,448l-2-2.3l-2.3,0.5l-0.2-2.9l2-2.4l-1.6-1.4l1.4-3.2l-2.2-3.3l2.3-0.7l-0.2-2l0.9-1l-0.5-3.7l3-2.9
		l-1.4-0.8l-0.3-1.5l-6.4,0.7l-0.5-1.8l-2.1,1.1l0.2-2.6l-0.3-1.3l-0.9,0.3l0.4-1.2l-1.3-1l0.2-1.1l6.2-3.4l2.7,1.2l5.1-0.5l5.5,1.3
		l3.8-0.6l2.3,0.8L123.3,412.1z M148.7,432l-1.8-1.2l1.6,0.2L148.7,432z M143.9,432.3l1.3,0.5l-1.6,2.1l-2.9-1.5l3.3-2.2
		L143.9,432.3z M136.8,436.9l-0.9,0.1l1.4-1.2L136.8,436.9z M73.5,487.3l-0.6,0.2l0.1-0.7l1.5-1.1l-0.1,1.1L73.5,487.3z M56.2,489.3
		l-0.4-1.7l0.8,0.6L56.2,489.3z M71.4,490.8l-1.2,0.3l2.7-3l-0.3,2.3L71.4,490.8z M62.5,489.8l-1.4,1.8l-1-1.6l3.3-1.1L62.5,489.8z
		 M66.4,490.9l-0.2,1.6l-1.1,0.1l0.1-1.7L66.4,490.9z M56,492.5l-0.4,0.8l-0.7-0.5L56,492.5z"/>
	<path id="GB" d="M126.3,367.4l-0.8,0.7l-1.3-0.5l1-0.7L126.3,367.4z M113.2,349.6l0.6,0.1l-1.4,1.2l-0.8-1.8L113.2,349.6z
		 M104.8,344.1l-1.8,0.2l-1.5-2.5l-1.3,2l-1.2-0.1l-2.1-1.9l1.5-1.3l-0.7-0.7l1.5-0.5l1.4-2.4l3.1-1.1l1.8,0.7l1.3,2.4l-0.7,1.3
		l1.2-0.2l0.5,1.2l-0.8-0.4l0.3,2l-1.7,1.6L104.8,344.1z M109.4,334.3l-0.9-0.2l0.1-1.7L109.4,334.3z M105.2,330.7l0.3,1.7l-1,0.7
		l0.1-1.2l-0.9,0.6l0.1-0.8L105.2,330.7z M105.8,331.6l-0.4-0.6l1.5-1.7L105.8,331.6z M106.6,327.6l-2.2,0.4l0.7-1.5l-0.6-0.9
		l2.2,0.9L106.6,327.6z M100.5,321.8l-0.7-2l0.6,0.1L100.5,321.8z M105.1,318.8l0,1.5l1.9,0.5l-1.2,1.6l-0.4-1.2l-1.2,0l-1.8-1.9
		l1.7-1.7L105.1,318.8z M100.7,317.4l0.1,1.2l-1.4-0.5L100.7,317.4z M104.9,312l-1.5,2.1l0.5,0.6l-2.3,2.1l-0.4-0.5l0.9-0.9l-1-2
		l1.5-0.1l-0.2-0.9l2.3-1.6L104.9,312z M117.8,310.8l-0.4,1.6l-3.2,2.9l-0.2,0.8l0.7,0.3l-1.2,1.9l3.1-1l5.6,0l1.2,1.8l-3.4,7
		l-3,1.5l1.8-0.3l0.9,1.1l-2.9,1.7l-1.8-0.5l3.1,1.1l1.9-0.6l3.9,3.4l1.8,6.3l4.8,4.2l-0.5,0.7l1.3,2.9l-1.6-0.9l-1.6,0.1l1.5,0.2
		l2.4,2.5l0.4,1.2l-1.3,1.8l1,0.7l1.2-1.1l2.1,0.1l2.5,1.4l-0.3,4.3l-1.5,1l-0.2,1.1l-1.8,0.5l0.6,1.1l-2,0.7l4.1,0.7l-0.1,1.2
		l-1.8,1.7l-3.2,1.1l-6.8-0.9l-0.4,1l-2.2,0.1l0,0.8l-4-0.8l-1.7,0.6l-1.1,2.6l-2.2-1L111,370l-1.6,1.6l-2.1-0.1l6-7.5l4.4-0.1
		l2.9-3.6l-3.6,2.4l-2.5-1.3l-1.4,0.1l0.6-0.6l-1.2-0.5l-2.2,0.8l-1.1-0.8l-0.1-1.4l4-2.2l1-1.8l-0.5-2.6l-2.4,0.8l1.7-2.4l2.1-1.1
		l2.8,0.3l0.1-1.2l1.3,0.8l-1.3-1.4l0.9-4.4l-1.3,0l-1.8-3.1l0.5-1.5l1.8-1.3l-2.1,0l-1.7,1.2l-3.6-0.5l-0.4,1.1l-0.5-0.5l-0.6-1.6
		l2.1-3.8l-0.8-2.8l1.2-0.5l-1.1-0.8l0.2-0.8l-1.8,2l0.6-2.3l-1.4,1.5l-0.6,4.5l-0.7,0.4l0.8-6.8l1.4-3.8l-1.9,1.7l-2-1.3l1.7-1.1
		l-0.5-0.4l1.3-2.5l-1-1.1l0.9-1.3l-0.7-0.9l0.6-1.7h1.9l-1.1-1.5l0.3-1.3l1.4-0.2l0-2.4l2.4,0.4l4.9-1.1l0.9,0.1L117.8,310.8z
		 M118,306.6l1.1,1l-2.3-0.5l0.1-1.3L118,306.6z M125.3,294.1l1.1,0.8l-1,4.8l0-2.3l-1.6-1.1l1.2-0.4l-0.8-1.4l0.9-1L125.3,294.1z"
		/>
	<path id="DK" d="M171.5,338.9l-4.5-0.6l-0.2-3.8l-2-1.3l0.1-7.5l2.1,0.8l0.9-1.8l0.7-0.4l0.5,0.7l0.2-2.4l-1.1,0l-0.9,2.2l-1.3,0.5
		l-0.8-1.4l1.4-2l3.4-0.5l2.2-3.2l2.7-1.2l-1.4,8.6l2.7,1.3l-0.7,1.5l-1.8,0.2l-0.6,2.6l-1.2,0.2l0.5,0.6l-1.8,2l0.3,1.7l-0.9,1.7
		l1.2,0.5L171.5,338.9z M177,320.7l-0.8-0.1l1.3-0.5L177,320.7z M183.3,331.8l-1.5,2.4l0.8,1.3l-1.3,0.7l-0.2,2.7l-0.8,0.3l-0.9-3
		l-1.5-0.1l-1.3-3.8l1.4-0.2l1.3-1.5l0.8,1.9l0.2-2l1.5-1.1l1.5,0.4L183.3,331.8z M183.7,333.2l-0.5,0.3l0.2-0.9L183.7,333.2z
		 M175.2,333.1l0.6,3.5l-1.4,0.6l-1.9-0.8l-0.5-2.6L175.2,333.1z M193.8,337.4l-1.7-0.6l0.3-1.4l1.5,1.1L193.8,337.4z M175.6,339.4
		l-0.5-0.7l1.4-2.2L175.6,339.4z M172.8,338.4l-1.1-0.1l-0.1-1.2L172.8,338.4z M183.2,337.8l-1.8,0.4l0.7-1.1L183.2,337.8z
		 M178.2,338.4l1.6,0.6l0.1,0.9l-1.3,0.4l-1.8-1l0.1-1.2L178.2,338.4z"/>
	<path id="DE" d="M190.2,345.1l0,0.6l-1.2-0.1l-0.4-1.8L190.2,345.1z M188.1,342l0,0.7l-2.2-0.3l0.6-2.7l1.3,1L188.1,342z
		 M171.5,338.9l1.2,1.1l-0.6,1.5l3.6,1.1l1.2-0.5l-0.7,2.6l2.3,0.5l4.9-3.7l1.9,0.4l1.8,1.9l1.2-0.1l0.6,2.1l1.6,0.9l0.6,3.7
		l-1.2,2.2l2.1,2.4l0.6,3l-0.6,1.7l1.7,3.9l-0.9,2.6l-2-1.2l0.2,0.9l-6,3.2l-1.6,0.1l-1.1,1.4l-0.8-0.8l1.8,2.6l-0.5,1l1.2,2.1
		l4.7,4.1l-0.4,1.4l-1-0.3l-0.5,1.4l-2.6,1.6l1.1,3.9l-3.4-1.5l-4.9,2l-2.5-1l-1.1,1.7l-0.9-1.4l-1.9-0.1l-4-1.6l-0.5,1.1l-3.5,0
		v-3.5l2.2-5.1l-2.9-1.1l-3,0l-1.6-1.9l0.6-2.2l-1.6-2.1l1-1.3l-1.5-2.9l0.3-1.1l-0.9-0.8l1.1-0.8l0.3-2l-1-2.4l3.6-1.1l-0.3-0.8
		l1.3-2l-1.2-0.6l-0.2-1.1l1.3-0.2l0.7-4.4l-0.5-1.4l0.9-1.4l3-0.1l0.4,1.6l0.9-1l0.7,1.5l0.5-3.4l2.5,0.1l2.4,2.1l-2-2.1l-1.4-0.5
		l-0.3-2.4l-1.1-0.2l1.3-1.7l-1.2-2.6L171.5,338.9z M165.5,339.1l0.6-1.9l-0.3,1.1l1,0.1L165.5,339.1z"/>
	<path id="CZ" d="M192.7,366.3l0.8-1l4.2,2.7l1.1-0.3l0.6,0.5l-0.9,1l1.8,2.1l1.5-0.9l-0.5-1.2l2.2,1.1l1.2-0.3l-0.3,1.2l3.9,1.5
		l1.1,2.4l-2.8,1.6L205,379l-2.6,0.3l-0.8,1.5l-1.7-1.2l-2,0.3l-4.1-1.5l-1.6,2.5l-2.7,0l-1-1l-4.7-4.1l-1.2-2.1l0.5-1l-1.8-2.6
		l0.8,0.8l1.1-1.4l1.6-0.1l6-3.2l-0.2-0.9L192.7,366.3z"/>
	<path id="CH" d="M170.6,387.6l0,1.6l-0.2,1.3l0.4,0l2.3,1.3l0.9-0.8l0.4,0.7l-0.1,1.9l-1.4-0.3l0.2,2.2l-3.6-1.4l-1,3.8l-2.4-2.4
		l-0.1-1.2l-2.6,3.2l-3.2,0l-1.1-2.9l-1.4-0.1l-1,1.4l-1-0.1l4.2-7.5l1.6,0.1l1.1-1l3.5,0l0.5-1.1L170.6,387.6z"/>
	<path id="BY" d="M248.4,329.1l2.7,1.5l1-0.6l1.4,0.6l0.4,1.9l3.1-1.2l2.8,2l-0.4,1.9l0.7,1.9l-0.7,1.9l1.5,1.1l-0.3,1l1.4,2.1
		l1.8,1.2l-0.3,1.6l2.9,0.8l1.1,1.9l-2.4,2.3l-3-0.7l-0.7,1.2l1.3,1.8l0.8,4.5l-2.9,0.2l-1.4,1.2l-0.9,4.2l-1.6-1.4l-3.4,0.6l-1-1.6
		l-1.6,1.3l-2.3-1.2l-2,0.9l-2.3-1.8l-5.7-1.2l-5.9,0.4l-3.2,2.4l0.2-3.5l-2-1.7l3.1-3.3l-1.8-8.2l3.5,0.3l4.8-2.8l0.2,0.9l1,0
		l-0.8-1.2l1.3-4.2l3.8-2.6l-1.3-0.5l0.6-2.4l1.9-1.2l2.2,0.2L248.4,329.1z"/>
	<path id="BA" d="M210.2,403.6l1.4-0.1l-1,3.1l1.9,1.8l-1.4,0.5l1,1.9l-1.3,0.6l-1,0l0.3,1.3l-0.7-0.3l-1.6,2l-0.1,2.5l-3.2-1.9
		l-0.3-0.2l-1.3-2.9l-4.1-3.9l-2.4-3.7l0.2-2.4l2.1,1l2.6-1.6l3.7,1.2h3.5L210.2,403.6z"/>
	<path id="BG" d="M250.2,410.2l-0.5,2l-1.4,0l-1,3.7l-1.7,1.6l2.2,2.8l-2,0.3l-1.2-1l-2.6,0.7l-1.2,1.4l-1,0.1l0.2,1.8l-0.9,0.4
		l-2.8,0.4l-3.2-1.7l-6.6,1.2l0.4-2.2l-2.8-3.2l0.8-0.7l-0.2-2.3l2.1-2l-2.5-3.4l1.4-2.6l1.3,0.9l-0.5,1.4l10.8,0.9l3-1.9l3.6-0.9
		L250.2,410.2z"/>
	<path id="BE" d="M154.9,365l-0.1,0.5l-0.5,1l1.6,0.6l1.5,2.9l-1,1.3l-0.6-0.3l-1,1.6l0.2,2.5l-1.2,0.2l-2.7-1.8l-0.2-2.4l-1.1,1.3
		l-1.7-0.1l0.1-1.8l-2-0.4l-2.4-3.1l-1.5,0.2l-1-2.3l3.4-1.9l0.3,0.9l2,0.3l1.4-1.2l3.4-0.6L154.9,365z"/>
	<path id="AZ" d="M333.7,420.9l3.7,5.8l3.8,2.9l-3.4,0.5l-0.8,4.6l-2.1,2.7l0.1,2.2l-1.2,0.1l-2.5-2.4l1.2-0.9l-0.8-1.2l0.9-0.8
		l-1.4-1.5L325,437l0-3.5l-3.8-2.3l1.3-0.3l0.3-1.1l-2.1-1.6l0.6-1.7l-2.2-1.3l0.5-0.4l-0.8-0.8l1.2-0.9l5.2,2l0.6-1.1l-2-2.1l1-1.3
		l1.3,0.4l2.4,3l2,0.5L333.7,420.9z M323.5,437.2l-2.6-0.7L318,433l-0.2-0.3l1.1-0.3l0.6,1.1l2.6,0.1L323.5,437.2z"/>
	<path id="AT" d="M201.6,380.9l-0.4,1.3l1.2,2.4l-0.3,1.9l-2.7,0.2l1.1,0.9l-1,0.8l0,2.4l-1.5,0.9l-0.6,1.1l-4.4,0.4l-1.4,1.2
		l-3.6-0.7l-5.5-1.1l-0.9-2.3l-3.9,0.7l-1,1.2l-2.3-0.5l-0.4-0.7l-0.9,0.8l-2.3-1.3l-0.2-1.3l0-1.6l1.9,0.1l0.9,1.4l1.1-1.7l2.5,1
		l4.9-2l3.4,1.5l-1.1-3.9l2.6-1.6l0.5-1.4l1,0.3l0.4-1.4l1,1l2.7,0l1.6-2.5l4.1,1.5l2-0.3L201.6,380.9z"/>
	<path id="AM" d="M325,437l-1.6,0.1l-1.4-3.6l-2.6-0.1l-0.6-1.1l-1.1,0.3l-2-1.8l-2.6-0.5l-0.4-1.9l0.6-1.3l-1.2-2.1l6.5-1l0.8,0.8
		l-0.5,0.4l2.2,1.3l-0.6,1.7l2.1,1.6l-0.3,1.1l-1.3,0.3l3.8,2.3L325,437z"/>
	<path id="AX" d="M214.3,295.7l1.1,0.8l-1.9,1.5l-0.5-1.6l0.7,0.4l-0.1-1.4L214.3,295.7z M212.9,297.1l-0.5,0.4l0.1-0.8L212.9,297.1
		z"/>
	<path id="AL" d="M214.6,417l1.8,1.8l0.3,2l-0.3,3.3l2,2.3l0.3,1.3l-1.6,2.8l-1.4,0.8l-0.3,1.6l-1-0.2l-0.6-1.8l-2.2-2l0.6,0
		l-0.5-1.4l1-5.4l-1-1.3l-0.3-1.7l1.6-2.6l0.6,0.9L214.6,417z"/>
	<path id="IT" d="M195.9,440.7l-2,4l0.8,2.1l-0.8,1.9l-2.5-0.6l-1-1.3l-6.8-2.9l-0.8-1.2l1.2-1.9l0.7,0.8l1.6-0.8l2.1,1.1
		L195.9,440.7z M171,426.3l0.7,2.1l-1,7.2l-2.1-0.4l-0.4,1.5l-1.3,0.2l-1-1.5l0.5-3.4l-1.4-5.9l1.5,0.3l2.7-2.3L171,426.3z
		 M174.2,415.2l0.1,0.8l-1.2-0.2L174.2,415.2z M188,393.7l-1.3,1.6l1.1,0.5l-0.6,1l1.7,2.4l-0.6,0.2l-0.4-1.1l-1.8,0l-3.9,1.9
		l-0.2,1.2l1.2,1.6l-1.2,1.4l0.6,2.9l4.9,3.8l1.9,5l2.2,2.5l2.6,1.7l4.2,0.2l-1.1,2.1l8.6,4.7l2.1,2.4l-0.5,2.2l-2-2.5l-3.9-1
		l-1.7,3.9l2.5,2l0.2,2.1l-2.3,1.1l-0.3,2.1l-2,2.5l-1.7-0.5l2.4-4.8l-2.2-5.7l-3.1-1.4l-0.8-2.4l-1.8,0.4l0.5-0.7l-1.7-0.5
		l-1.3-2.3l-2.7,0l-6.1-5.8l-2.2-0.7l0.3-0.7l-2.7-2.5l-1.4-5.6l-5.9-2.8l-3.2,3.2l-2.1,0.6l0.6-2.3l-1.3,0.2l-1.7-1.1l0.4-2.9
		l-1.5-1.4l2.1-1.9l-1.5-2.1l1-1.1l3.2,0l2.6-3.2l0.1,1.2l2.4,2.4l1-3.8l3.6,1.4l-0.2-2.2l1.4,0.3l0.1-1.9l2.3,0.5l1-1.2l3.9-0.7
		l0.9,2.3L188,393.7z"/>
	<path id="KZ" d="M340.5,403.7l-0.8-0.5l0.5-0.9L340.5,403.7z M336.5,394.8l-2.9-1.6l0.1-0.9l1.7-0.1l-3.3-5.7l-3.7-0.2l-1-3.1
		l-1.7-1.1l0.2-2.5l1.4-2.2l-1-1.4l0.4-2.1l2.6-4.6l3.5,3.5l1.8-0.5l-0.6-4.5l2.9-1.6l0.7-1.5l3.1-1.4l2.3-2.9l2.3,1.7l3.7-1.6
		l1.5,1.5l3.2,0l3.3,2.9l1.7,3.3l0.4-3.1l4.4,2.8l3.4-2.9l2.2-0.3l1.8,1.2l1.7-1.3l2.2,0.2l2.2,2.4l2.4,0.5l0.3,0.8l2.2-2.4l1.9,1.2
		l3-0.7l1.4-3.6l-4.6-2.2l-1.7-2.2l3.9-2.5l-0.9-2.3l1.1-2l4.3-0.2l-1.8-1.6l-1.9-0.4l0.1-1.1l1.3-0.5l-2.3-0.7l1-2.8l2.9,0.5
		l10.6-3.1l2.6,0.3l1.6-2l11.2-2.6l0.2-1.3l3.2-1.7l5,1.7l2.3-1l1.9,5.1l-0.4,2.8l3.8,0l0.8-0.9l1.1,2.7l0.7-1.4l2.5,1.3l1.8-0.8
		l-1.5,2.5l0.4,1.8l1.9-1.2l2.1,0.9l4.5-4.3l5.8-2.5l-0.8,2.1l-1,0l0.3,0.9l5.7,5.3l8.9,16.9l1.8-1.1l0.1-1.6l1.2-0.7l1.6,0.7
		l-0.2,1.5l1.3,0.1l0.3,1.4l4.3,0.1l3.6-1.8l2.5,1.5l1.6,3.5l2.8,1.2l1,2.9l4,0.8l2.1-1.8l-0.2,1.4l2.9,3.1l-2.2,0.2l-1.1,3.3
		l-3.3,0.9l-0.9,2.9l0.5,4.1l-0.7,1.2l-2.9,1.4l-0.5-0.9l-6.8-1.3l-3,9.6l1.2,1l-0.4,1.8l-2.4-0.2l-1.1-1.1l-7.6,2.7l2.5,1l-0.5,3.6
		l1.8,5.4l-1.7,0.7l0.6,1l-1.4,0.8l0,3.1l-1.2-1.3l-2.1-0.4l-1.3-1.7l-8.9-1.1l-6.8,0.8l-4.8-2.3l-2.7,1.4l-0.3,3.4l-5.1-2l-4.3,0.1
		l-1.3,2.7l-7.9,4.9l-2.4,4.2l-1.9-1.1l-0.5-2.1l-5.1,0.1l-0.9-4.5l-2-0.1l0.4-5.6l-1.2,0.7l-3.7-4.8l-1.9,0.9l-5.2-0.4l-5.1,0.8
		l-4.1-5.2l-10.2-6.8l-10.8,3.3l0,21l-2.3,0.1l-2.4-3.7l-3.1-2.1l-4.5,1.1l-2.3,2.1l0.4-5.5l-2.9-0.6l-1.2-1.7l-1.3-0.1l0-1.8
		l-2-4.1l-2.4-1.6l0.7-0.9l4.7,0.5l-2.2-2.3l1.7-2.6l7.5,0.1l-1.8-1.4l1.5-3.7l-0.3-4l-2.5-0.8l-1.4,1l-4-1.7l-7.6,3.6L336.5,394.8z
		"/>
	<path id="AD" d="M138.3,416.7l-0.1,0l-0.4,0.2l-0.2,0.1l-0.2,0l-0.2,0l-0.1-0.1l0-0.2l0-0.2l0-0.1l0.1-0.3l0.1-0.1l0.2-0.1l0.3,0
		l0.6,0.2l0.1,0.2l0,0.1l-0.1,0.2L138.3,416.7z"/>
	<path id="MT" d="M191,451.6l-0.2,0.1l-0.2-0.2l-0.1-0.1l0.3-0.1l0.2,0.1L191,451.6L191,451.6z M192,452.5l-0.1,0.2l-0.4,0l-0.4-0.3
		v-0.5l0.4,0.1l0.4,0.4L192,452.5z"/>
	<path id="MC" d="M162.3,409.6l-0.3,0.1l0-0.1l0.1-0.1l0.1,0L162.3,409.6L162.3,409.6z"/>
	<path id="SM" d="M183,408.5l0.2-0.3l0.3,0l0,0.2l-0.1,0.3l-0.2,0L183,408.5z"/>
	<path id="GI" d="M108.5,451.4l0,0.3L108.5,451.4L108.5,451.4L108.5,451.4z"/>
	<path id="VA" d="M183.1,420.1L183.1,420.1L183.1,420.1L183.1,420.1L183.1,420.1L183.1,420.1z"/>
</g>
</svg>
