<?xml version="1.0" encoding="utf-8"?>
<!-- Generator: Adobe Illustrator 28.3.0, SVG Export Plug-In . SVG Version: 6.00 Build 0)  -->
<svg version="1.1" id="Layer_1" xmlns:amcharts="http://amcharts.com/ammap"
	 xmlns="http://www.w3.org/2000/svg" xmlns:xlink="http://www.w3.org/1999/xlink" x="0px" y="0px" viewBox="0 0 512 512"
	 style="enable-background:new 0 0 512 512;" xml:space="preserve">
<defs>
	
		<amcharts:ammap  bottomLatitude="7.119155" leftLongitude="-169.516707" projection="mercator" rightLongitude="-12.189574" topLatitude="83.646980">
		</amcharts:ammap>
</defs>
<g>
	<path id="BS" d="M297.5,448.9l-0.8,0.2l-0.8-2l-1.2-1l0.7-2.2l0.9,0.1l1.1,2.8L297.5,448.9z M296.6,439.2l-3.4,0.6l-0.2-1.3
		l1.5-0.3l2.1,0.1L296.6,439.2z M299.2,439.2l-0.5,2.5l-0.6-0.4l0.1-1.8l-1.4-1.4l0-0.4L299.2,439.2z"/>
	<path id="BZ" d="M261.3,468.6l0-0.5l0.4-0.2l0.6,0.4l1.1-2l0.6,0l0,0.5l0.6,0l0,0.9l-0.5,1.4l0.3,0.5l-0.3,1.2l0.2,0.3l-0.4,1.6
		l-0.6,0.9l-0.6,0.1l-0.6,1.1h-0.9l0.2-3.6L261.3,468.6z"/>
	<path id="CA" d="M232,116.7l-0.2-6.6l4,0.6l1.8,1.1l3.7,5.5l-0.8,5.5l-4.6,3.1l-2.5-3.5L232,116.7z M246.7,130.8l0.4-1.7l-2.2-2.7
		l-6.3-0.2l0.8,4.1l5.8,0.9L246.7,130.8z M287.1,182.9l3.4,5.7l0.9,0.6l3.4-1.4l3.4,0.2l3.3,0.3l-0.3-2.9l-5.4-6l-7.1-1.2l-1.5,0.7
		L287.1,182.9z M214.4,113.3l-3,4.7l6.9,0.6l5.1,4.9l5.1,1.7l-1.2-6.3l-2.4-7.5l-8.4-5.9l-6.1-2.3l0.2,6.3L214.4,113.3z
		 M243.2,101.9l5.7-0.1l-2.5,4.4l0,5.9l3.3,6.4l6.5,2l5.5-1.1l5.8-11.9l4.3-4.9l-3.8-5.5l-2.5-11.8l-5.1-3.5l-5.2-4.1l-4-10.6
		l-7.2,1l1.4,4.6l-3.2,1.4l-2.2,5.9l-2.2,8.3l2,8.1L243.2,101.9z M172.3,161.2l4.4,2.2l14.1-1.4l-6.5,5.3l0.4,3.8l4.7-0.3l7.9-5.1
		l10.6-1.9l1.9-5.8l-0.5-6.2l-3.3-0.6l-2.8,2.1l-1.2-4.6l-1.1-6.3l-3.2-1.6l-2.9,4.9l4.5,12.3l-5.4-0.9l-5.5-7.5l-8.8-4.4l-2.9,3.7
		L172.3,161.2z M197.4,114.5l-4.1-3.2l-1.7-0.7l-3.2,4.8l-0.1,2.2l5.2,0L197.4,114.5z M195.8,128.2l1-4.4l-4.4-2.4l-4.5,1.5
		l-2.5,4.7l4.6,4.7L195.8,128.2z M228.1,165.1l5.1-1.2l1.4-9.2l-0.1-6.6l-2.4-6.2l-0.2,1.8l-4.4-0.8l-4.7,4.5l-3.4-0.4l0.2,9.9
		l5.1-1l-0.1,7.2L228.1,165.1z M224.5,215.8l-5.6-4.4l-5.2-4.7l-1-6.9l-2-9.9l-3.5-4.3l-3.1-1.7l-2.7,1.6l2.2,10.7l-1.6,4.1l-2.5-10
		l-2.8-3.5l-3.5,5.3l-4.3-5.3l-6.9,3.2l1.6-5l-3.2-2.1l-8.3,6.5l-2.2,4.1l-2.6,7.5l5.4,2.6l4.8-0.1l-7.2,3.8l1.6,3.5l4.4,0.2
		l6.7-0.7l6,2.2l-4.1,1.6l-4.4-0.4l-4.8,1.6l-2.1,1l3.8,7.1l2.8-1l4.3,2.4l1.7,4.1l5.5-0.8l7.9-1.3l5.8-2.9l3.6-0.5l5.4,2.4l5.6,1.4
		l1-3.2l-2-3.4l5.1-0.7L224.5,215.8z M233.1,214.7l-2.2,3.9l-2.7,2.8l4.3,3.9l2.5-0.9l4.2,2.6l1.9-3l-1.9-3.4l-0.9-1.7l-1.9-1.6
		L233.1,214.7z M213.5,182l-2.4-2.4l-4.2,0.4l-1.1,1.5l4.9,7.5L213.5,182z M245.4,196.6l3.3-7.7l3.7-2.1l4.7-9.7l-6-2.7l-6.5-0.4
		l-3.1,3.1l-1.6,4.7l0,5.4l1.9,9.1L245.4,196.6z M264.4,171l6.4-0.2l8.9-1.8l4,1.4l4.6-2.5l1.9-3.2l-0.7-5l-3.3-4.7l-5.1-0.9
		l-6.3,1.1l-5,2.7l-4.5-1l-4.2-0.6l-2-3l-3.6-2.9l0.7-4.9l-2.7-4.4l-6.1,0l-3.5-4.4l-6.4-0.9l-1.2,5.7l3.6,4.2l6.4,1.6l3.1,5.7
		l0.4,6.2l1.1,6.7l8.3,3.8L264.4,171z M165.5,150.7l5.8-5.6l2.9-0.7l2.4-4.7l0.4-10.9l-4.3,2.1l-4.8-0.2l-6.4,9.1l-5.3,10l4.2,2.8
		L165.5,150.7z M245.7,168.7l1.7-4.6l-1.1-3.8l-2.7-4.4l-4.5,3.4l-1.7,5.5l3.8,3.1L245.7,168.7z M236.5,181.4l-0.8-3.2l-5.6,1.4
		l-3.7-2.3l-3.7,5.3l3.4,7l-6.4-1.3l-0.1,3.3l7.7,7.8l2.2,3.8l3,0.8l5.1-3.8l0.6-9.1l-4.7-4.5L236.5,181.4z M154.3,352.2l-1.3-2.6
		l-3.1-2l-1.5-2.3l-1.1-1.7l-2.9-0.5l-1.9-0.7l-3.3-1.1l-0.3,1.1l1.2,2.6l3.2,0.9l0.6,1.4l2.8,1.7l0.9,1.7l5.1,2.1L154.3,352.2z
		 M289.5,266l-2.2-2.3l-2.3,0.6l-0.3-3.4l-3.6-2.3l-3.4-2.5l-1.8-1.9l-1.6,1.1l-0.6-3.3l-2.3-0.6l-1.1,6.8l-0.4,5.7l-2.7,3.5
		l4.2-0.7l1.1,4.1l4.4-3.6l3.1-3.8l1.7,3.2l4.8,1.7L289.5,266z M155.6,207.6l8.2-4.6v-4.3l3.9-7.1l7.6-7.4l3.9-2.7l-3.3-4.7l-3-3.3
		l-8-0.6l-4.4-2.4l-10.5,1.8l3,6.9l-2.7,7.1l-2.2,7.6l-1.3,4.3l7.2,5.2L155.6,207.6z M304.7,237.9l0.4-1.1l0-3.5l-2.4-2.3l-2.9,1.2
		l-1.3,4.6l0.8,4l3.5-0.4L304.7,237.9z M331.2,246.3l4.9,7.3l3.8,3.2l5.5-8.7l1-5.5l-4.9-0.5l-4.5-7.4l-4.9-1.8l-7.3-5.5l5.7-4
		l-2.9-8.4l-2.7-3.7l-7.5-3.7l-3.2-6.2l-5.8,2.2l-0.4-4.3l-4.3-4.8l-6.9-5.2l-2.9,4.1l-6.2,3l0.5-6.7l-5.3-11.2l-7.9,4.5l-2.9,8.6
		l-2.5-6.6l2.3-7.1l-8,2.9l-3.2,4.4l-2.4,9.4l1,10.1l4.4,0l-3.3,4.4l2.6,3.3l5.1,1.4l6.6,2.7l11.3,2l5.6-1.2l1.7-2.7l2.5,3.1
		l2.7,0.5l3.3,5.5l-2,2.2l6.3,2.9l4.8,4.1l1.2,2.8l0.9,3.6l-4,7.7l-1.1,3.8l1,2.7l-6.4,1l-5.9,0.1l-2.1,5.4l2.6,2.5l9-1.1l0-2.1
		l4.5,3.5l4.6,3.6l-1.1,2l3.8,3.4l6.7,3.9l8.4,2.7l-0.5-2.3l-3.2-4.1l-4.4-6l7.8,5.6l3.9,1.8l1.1-4.9l-2-7l-1.3-1.9L330,256
		l-3.3-4.3l0.4-4.4L331.2,246.3z M258,66.8l2.6,8.1l5.5,6.5l10.9-1.2l7,2.2l-4.9,6.7l-2.5-2l-8.5-0.8l1.3,9.2l4.4,6.7l-0.9,5.8
		l-5.5,3.8L265,118l5.1,2.9l4.2,9.5l-8.3-6.3l-1.9,1l1.5,10.4l-5.8,3.1l0.4,6.5l5.9,0.7l4.6,1.6l9.2-2l8.1,3.6l8.3-8l-0.1-3.4
		l-5.3,0.5l-0.4-3.2l4.4-4.3l1.5-5.7l4.8-4.3l3-5.3l-2.6-7.9l2.2-2.9l-4.3-2.1l9.4-1.8l2-3.5l6.4-2.9l5.3-15l5.1-5.5l7.4-12.4
		l-6.8,0.1l2.8-4.8l7.5-4.4l7.6-9.9l0.1-6.4l-5.7-6.7l-6.7-3.3l-8.3-2l-6.7-1.7l-6.7-1.7l-9,4.4l-1.7-2.8l-9.5,1.1l-5.6,2.9
		l-4.1,4.1l-2.4,13l-3.4-6.7l-3.9-1.3l-4.6,8.9l-6.1,3.7l-3.6,0.7l-4.6,4.3l0.7,7.4L258,66.8z M340.7,361.3l-1.1-2.2l-1.2,1.4
		l0.8,1.5l4,1.9l1.2-0.3l1.5-1.8l-2.9,0.1L340.7,361.3z M277.4,274.7l0.7,1.8l2.2,0.2l3.6-3.7l0.1-1.3l-4.3-0.1L277.4,274.7z
		 M346.4,348.6l-3.2-2l-4.1-1.2l-1.1,0.4l2.9,2.3l4,1.5l1.5-0.1L346.4,348.6z M374.1,353.9l-0.4-2.5l-2.2,0.8l1-3.5l-3.1-1.5
		l-1.4,1.2l-2.8-1.3l1.1-1.7l-2.1-1l-2,1.6l2.1-4.2l1.7-3.1l0.6-1.4l-1.4-0.2l-2.7,1.7l-1.9,2.8l-3.2,7.7l-2.6,2.8l1.4,1.3l-1.9,1.6
		l0.5,1.4l6,0.1l3.3-0.3l3,1.1l-2.2,2.1l1.9,0.2l3.6-4l0.9,0.6l-0.7,3.7l2,0.9l1.4-0.2l1.3-4L374.1,353.9z M350.5,359.2l-3.1,5.1
		l-5.1,0.6l-4-2.2l-1-3.4l-1-5l2.9-3.1l-2.8-2.3l-4.7,0.5l-6.5,3.9l-5,6.1l-2.6,0.7l3.6-4.2l4.5-6.2l4-2.1l2.6-3.5l3.2-0.3l4.7,0
		l6.7,1l5.3-0.8l3.9-4l5.1-1.8l2.2-1.8l2.3-1.9l-0.2-5.8l-1.3-2l-2.4-0.7l-1.2-4.5l-2-1.7l-5-1.4l-2.8-3.1l-4.1-3.1l1.3-3.6l-3.4-7
		l-4.1-7.7l-2.4-5.5l-2.1,2.9l-3,6.7l-4.5,3.3l-2.3-3.5l-2.8-0.9l-1-7.8l0.1-5.3l-5.6-0.5l-0.9-2.5l-3.8-3.8l-2.9-2.3l-2.6,1.8
		l-3.2-0.6l-5.3-1.8l-2.2,1.6l1,10.2l1.4,5.7l-3.7,6.4l3.8,4.5l2.1,4.9l0.3,3.8l-1.7,3.9l-3.5,3.8l-5,2.5l2.2,2.8l1.6,8.2l-1.7,5.2
		l-2.4,1.6l-4.6-4.8l-2.3-5.7l-1-5.3l0.5-4.7l-3.4-0.5l-5.1-0.3l-3.3-2.3l-3.9-1.5l-2.2-2.6l-3.1-2.2l-5.8-2.5l-4.4,1.1l-1.5-4.4
		l-1.4-5.5l-4.6-1l0.2-7.1l1.2-5l3.4-7.3l3.8-5.4l3.6-0.9l0.2-4.5l2.5-3l4.5-0.5l3.6-4.9l0.9-3.2l3-6.4l0.9-3.9l3.2,2.3l4.3-1.2
		l6.1-5.5l0.4-3.9l-2.2-4.4l2.3-4.5l-0.2-4.3l-4.2-4.4l-4.6-1.3l-4.4-0.7l-0.2,9.7l-2.3,7.3l-3.3,5.9l-3-5.5l0.9-6.2l-3.7-5.6
		l-4.2,6.8l0-8.9l-5.8-1.8l2.8-4.5l-4.2-10.7l-3.2-4.3l-4.1-1.6l-3.7,7.1l-0.2,10.4l3.6,3.7l3.3,5.5l-1.4,8.6l-2.5-0.2l-2,6.5l0-7.8
		l-4.8-2.9l-2.8,1.5l0.4,5.2l-4.5-0.2l-4.8,1.3l-5.5-3.7l-3.5,0.7l-3.1-4.6l-2.5-2l-2.5,0.9l-3.8,0.4l-2,2.9l3.2,3.5l-3.4,4.1
		l-3.3-4.9l-2.7,1.4l-8.4,1l-5.6-1.8l4.4-4.2l-4.2-4.3l-3.1,0.6l-4.3-1.5l-7.3-3.2l-4.8-3.7l-3.8-0.5l-1.2,2.6l-3.8,1.5l-0.4-6.8
		l-4.1,6.1l-5.3-8.1l-2.2-1l-0.7,4.3l-2.3,2.1l-2.1-3.8l-5.1,2.3l-4.7,3.9l-4.6-1.1l-3.8,2.8l-2.7,3.6l-3.2-0.8l-4.9-4.2l-5.8-2.2
		l0,30.7l0,39.4l3.1,0.2l3,1.7l2.2,2.7l2.8,4l3-3.4l3.1-2l1.7,3.2l2.1,2.5l2.9,2.7l1.9,4.2l3.2,6.5l5.3,3.6l0.1,3.5l-1.7,2.6
		l0.1,2.8l3.8,3.8l0.5,4.2l4,2.2l-0.4,3.1l1.7,4.4l5.6,2l2.2,2.1l6,4.7l0.4,0h8.8h9.2h3.1h9.5h9.2h9.3h9.4h10.6h10.7h6.4l0-1.8
		l1.1,0l0.6,2.6l1,0.8l2.2,0.3l3.2,0.7l3,1.4l2.5-0.6l3.8,1.2l1.3-1.8l1.8-0.7l0.7-1.1l0.7-0.6l2.9,1l2.1,0.1l0.7,0.6l1,2.6l3.5,0.7
		l-0.5,1.3l1.2,1.3l-0.5,1.7l1.3,0.6l-0.7,1.5l0.8,0.1l0.6-0.7l0.6,1l2.3,0.6l2.4,0l2.5,0.5l2.8,0.9l1,1.4l2,3.4l-1,1.4l-2.5-0.6
		l-1.6-2.7l0.4,2.8l-1.5,2.4l0.2,2l-0.3,1.2l-2,1.4l-1.5,2.3l-0.7,1.5l1.7,0.3l2.3-1.3l1.4-1.2l0.9-0.2l1.7,0.4l0.8-0.7l1.5-0.5
		l2.7-0.5l0,0l0,0l-0.3-1.3l-0.1,0l-1,0.2l-1.2-0.4l0.9-1.5l0.9-0.5l2.2-0.6l2.6-0.6l1.4,0.8l0.9-0.9l1-0.6l0.7,0.3l0,0.1l3.2-3
		l1.4-0.8l4.7,0h5.7l0.3-1.1l1-0.2l1.3-0.7l1.1-2l1-3.5l2.4-3.4l1,1.2l2.1-0.8l1.4,1.3v6.1l2,2.5l3.5-0.5l5-0.1l-5.4,3.6l0.1,3.7
		l2.4,0.3l3.5-3.1l3.1-1.8l6.9-2.6l3.9-2.9l-2-1.6L350.5,359.2z M290.9,280.2l1.2-3.5l-0.8-1.4l-1.3-0.1l-1.2,2l-0.1,0.5l0.8,2
		L290.9,280.2z M132.4,320.7L132.4,320.7l1.7-2.6L132.4,320.7z"/>
	<path id="CR" d="M280.6,499.1l-1.7-0.7l-0.6-0.7l0.4-0.5l-0.1-0.7l-0.9-0.8l-1.2-0.6l-1.1-0.4l-0.2-0.9l-0.8-0.6l0.2,0.9l-0.6,0.7
		l-0.7-0.9l-1-0.3l-0.4-0.6l0-1l0.4-1l-0.9-0.4l0.7-0.6l0.5-0.4l2.1,0.8l0.7-0.4l1,0.3l0.5,0.6l0.9,0.2l0.7-0.7l0.8,1.7l1.2,1.3
		l1.5,1.3l-1.2,0.3l0,1.3l0.6,0.5l-0.5,0.4l0.1,0.6l-0.3,0.6L280.6,499.1z"/>
	<path id="CU" d="M282.7,450.8l2.7,0.2l2.4,0l2.9,1.1l1.2,1.2l2.9-0.4l1.1,0.8l2.6,2.1l1.9,1.5l1,0l1.9,0.7l-0.2,0.9l2.3,0.1
		l2.4,1.4l-0.4,0.8l-2.1,0.4l-2.1,0.2l-2.1-0.3l-4.5,0.3l2.1-1.8l-1.3-0.9l-2-0.2l-1.1-1l-0.7-1.9l-1.8,0.1l-2.9-0.9l-0.9-0.7
		l-4.1-0.5l-1.1-0.7l1.2-0.8l-3.1-0.2l-2.2,1.7l-1.3,0l-0.4,0.8l-1.5,0.4l-1.3-0.3l1.6-1l0.7-1.2l1.4-0.7l1.6-0.7l2.4-0.3
		L282.7,450.8z"/>
	<path id="DO" d="M315.6,462.4l0.4-0.6l2.4,0l1.8,0.8l0.8-0.1l0.6,1.2l1.7-0.1l-0.1,1l1.4,0.1l1.5,1.2l-1.2,1.3l-1.5-0.7l-1.4,0.1
		l-1-0.2l-0.6,0.6l-1.2,0.2l-0.5-0.8l-1,0.5l-1.2,2.2l-0.8-0.5l-0.2-0.9l0.1-0.9l-0.8-1l0.8-0.6l0.2-1.3L315.6,462.4z"/>
	<path id="GL" d="M393.3,36.3l10.5-15.1l10.9,1.2l4-9.9l11-2.7l24.9,3.5l19.5,20.7l-5.8,9.2l-11.9,1l-16.8,2.3l1.6,4l11-2.5l9.4,7.7
		l6.1-6.8l2.6,7.9L466.9,69l7.9-7.7l15.1-8.4l9.3,4.2l1.7,9l-12.7,14.1l-1.8,4.3l-10,3.2l7.2,0.9l-3.6,12.8l-2.5,10.7l0.1,17
		l3.7,9.3l-4.9,0.6l-5.1,4.3l5.7,7l0.7,10.7l-3.3,1.1l4,10.2l-6.9,0.8l3.6,4.6l-1,3.9l-4.4,1.7l-4.3,0l3.9,7.2l0,4.6l-6.2-4.3
		l-1.6,2.8l4.2,2.5l4.1,6.1l1.2,7.7l-5.6,1.8l-2.4-3.6l-3.9-5.5l1.1,6.5l-3.6,4.9l8.2,0.4l4.3,0.5l-8.4,7.8l-8.5,6.8l-9.1,2.9
		l-3.4,0l-3.2,3.2l-4.3,8.5l-6.7,5.4l-2.2,0.3l-4.2,1.9l-4.5,1.8l-2.7,4.6l0,5.1l-1.6,4.6l-5.1,5.5l1.3,5.2l-1.4,5.4l-1.6,6.2
		l-4.4,0.4l-4.6-5.1l-6.2,0l-3-3.5l-2.1-6.4l-5.4-8.5l-1.6-4.6l-0.4-6.5l-4.3-7l1.1-5.7l-2.1-2.8l3.1-9.6l4.7-3.2l1.2-3.6l0.7-7
		l-3.6,3.2l-1.7,1.3l-2.8,1.3l-3.8-2.9l-0.2-6.2l1.2-5l2.9-0.1l6.4,2.5l-5.4-6l-2.8-3.3l-3.1,1.4l-2.6-2.4l3.5-9.4l-1.9-3.9
		l-2.5-7.5l-3.7-12.1l-4-4.6l0-5.1l-8.4-7.4l-6.6-0.9l-8.3,0.5l-7.6,1l-3.6-4.2l-5.4-8.5l8.2-4.4l6.3-0.8l-13.3-3.7l-7-6l0.4-5.9
		l11.8-7.6l11.4-8l1.2-6.3l-8.4-6.4l2.7-7.4l10.8-13.7l4.5-2.2l-1.3-9.5l7.4-5.8l9.6-3.6l9.6-0.2l3.4,7l8.3-12.6l7.4,8.6l4.4,1.8
		l6.5,7.1l-7.4-12L393.3,36.3z"/>
	<path id="GT" d="M258.4,481.7l-1.6-0.6l-1.9-0.1l-1.4-0.6l-1.7-1.3l0.1-0.9l0.4-0.8l-0.4-0.6l1.5-2.6l4,0l0.1-1.1l-0.5-0.2
		l-0.3-0.7l-1.2-0.7l-1.2-1.1h1.4v-1.8h2.9l2.9,0l0,2.6l-0.2,3.6h0.9l1,0.6l0.3-0.5l0.9,0.4l-1.4,1.2l-1.5,0.9l-0.2,0.6l0.2,0.6
		l-0.6,0.8l-0.7,0.2l0.2,0.4l-0.6,0.4l-1.1,0.8L258.4,481.7z"/>
	<path id="HN" d="M267,484.1l-0.5-1l-1-0.3l0.2-1.3l-0.4-0.3l-0.6-0.2l-1.4,0.4l-0.1-0.4l-0.9-0.5l-0.7-0.6l-0.9-0.3l0.6-0.8
		l-0.2-0.6l0.2-0.6l1.5-0.9l1.4-1.2l0.3,0.1l0.7-0.6l0.9,0l0.3,0.3l0.5-0.2l1.4,0.3l1.4-0.1l1-0.4l0.4-0.4l1,0.2l0.7,0.2l0.8-0.1
		l0.6-0.3l1.4,0.4l0.5,0.1l0.9,0.6l0.9,0.7l1.1,0.5l0.8,0.9l-1.1-0.1l-0.4,0.4l-1.1,0.4h-0.8l-0.7,0.4l-0.6-0.1l-0.5-0.5l-0.3,0.1
		l-0.4,0.8l-0.3,0l-0.1,0.7l-1.1,0.9l-0.6,0.4l-0.3,0.4l-0.9-0.6l-0.7,0.8l-0.7,0l-0.7,0.1l0.1,1.6l-0.5,0L268,484L267,484.1z"/>
	<path id="HT" d="M311,461.7l1.9,0.1l2.7,0.5l0.3,1.8l-0.2,1.3l-0.8,0.6l0.8,1l-0.1,0.9l-2.1-0.6l-1.5,0.2l-1.9-0.2l-1.5,0.6l-1.7-1
		l0.3-1.1l2.9,0.5l2.4,0.3l1.1-0.7l-1.4-1.4l0-1.3l-2-0.5L311,461.7z"/>
	<path id="JM" d="M297.4,466.4l2.1,0.3l1.7,0.8l0.5,0.9l-2.2,0.1l-0.9,0.5l-1.7-0.5l-1.8-1.2l0.4-0.7l1.3-0.2L297.4,466.4z"/>
	<path id="MX" d="M236.4,441.7l-1.2,3l-0.5,2.5l-0.2,4.5l-0.3,1.6l0.5,1.8l1,1.6l0.6,2.6l2.1,2.5l0.7,1.9l1.2,1.6l3.3,0.9l1.3,1.4
		l2.7-0.9l2.4-0.3l2.3-0.6l2-0.6l2-1.3l0.7-1.9l0.3-2.8l0.5-1l2.1-0.9l3.3-0.8l2.8,0.1l1.9-0.3l0.7,0.7l-0.1,1.6l-1.7,2l-0.7,2
		l0.6,0.6l-0.5,1.4l-0.8,2.5l-0.8-0.8l-0.7,0.1l-0.6,0l-1.1,2l-0.6-0.4l-0.4,0.2l0,0.5l-2.9,0h-2.9v1.8h-1.4l1.2,1.1l1.2,0.7
		l0.3,0.7l0.5,0.2l-0.1,1.1l-4,0l-1.5,2.6l0.4,0.6l-0.4,0.8l-0.1,0.9l-3.5-3.5l-1.6-1l-2.5-0.8l-1.7,0.2l-2.5,1.2l-1.6,0.3l-2.2-0.8
		l-2.3-0.6l-2.9-1.5l-2.3-0.5l-3.5-1.5l-2.6-1.6l-0.8-0.9l-1.7-0.2l-3.2-1l-1.3-1.5l-3.3-1.9l-1.6-2.1l-0.7-1.6l1-0.3l-0.3-0.9
		l0.7-0.9l0-1.2l-1-1.5l-0.3-1.3l-1-1.7l-2.7-3.4l-3.1-2.7l-1.5-2.1l-2.7-1.4l-0.6-0.8l0.5-2.1l-1.6-0.8l-1.8-1.7l-0.8-2.4l-1.7-0.3
		l-1.8-1.8l-1.5-1.7l-0.1-1.1l-1.7-2.7l-1.1-2.8l0-1.4l-2.3-1.4l-1,0.2l-1.8-1l-0.5,1.5l0.5,1.7l0.3,2.7l1.1,1.5l2.3,2.5l0.5,0.8
		l0.5,0.2l0.4,1.2l0.6-0.1l0.6,2.3l0.9,0.9l0.7,1.2l2,1.8l1,3.2l0.9,1.5l0.9,1.6l0.2,1.8l1.5,0.1l1.3,1.5l1.1,1.5l-0.1,0.6l-1.3,1.2
		l-0.6,0l-0.8-2.1l-2-1.9l-2.2-1.6l-1.6-0.9l0.1-2.5l-0.5-1.9l-1.5-1.1l-2.1-1.5l-0.4,0.4l-0.8-0.9l-1.9-0.8l-1.8-2l0.2-0.3l1.3,0.2
		l1.2-1.3l0.1-1.6l-2.4-2.5l-1.8-1l-1.2-2.2l-1.2-2.4l-1.4-2.9l-1.3-3.3l3.5-0.3l4-0.4l-0.3,0.7l4.7,1.8l7.1,2.6l6.2,0h2.5v-1.5h5.4
		l1.1,1.3l1.6,1.1l1.8,1.6l1,1.9l0.8,2l1.6,1.1l2.6,1.1l2-2.8l2.6-0.1l2.2,1.4l1.6,2.4l1.1,2.1l1.8,2l0.7,2.4l0.9,1.6l2.4,1.1
		l2.2,0.8L236.4,441.7z"/>
	<path id="NI" d="M272,490.1l-1.1-1l-1.5-1.3l-0.7-1.1l-1.3-1l-1.6-1.4l0.3-0.5l0.5,0.5l0.2-0.2l1-0.1l0.4-0.7l0.5,0l-0.1-1.6
		l0.7-0.1l0.7,0l0.7-0.8l0.9,0.6l0.3-0.4l0.6-0.4l1.1-0.9l0.1-0.7l0.3,0l0.4-0.8l0.3-0.1l0.5,0.5l0.6,0.1l0.7-0.4h0.8l1.1-0.4
		l0.4-0.4l1.1,0.1l-0.3,0.3l-0.2,0.7l0.3,1.2l-0.7,1.1l-0.3,1.3l-0.1,1.4l0.2,0.8l0.1,1.4l-0.5,0.3l-0.3,1.4l0.2,0.8l-0.6,0.8
		l0.2,0.8l0.5,0.5l-0.7,0.7l-0.9-0.2l-0.5-0.6l-1-0.3l-0.7,0.4l-2.1-0.8L272,490.1z"/>
	<path id="PA" d="M296.4,502.2l-1-0.9l-0.7-1.7l0.8-0.8l-0.8-0.2l-0.6-1l-1.6-0.9l-1.4,0.2l-0.6,1.1l-1.3,0.8l-0.7,0.1l-0.3,0.7
		l1.5,1.7l-0.8,0.4l-0.5,0.5l-1.4,0.2l-0.5-1.9l-0.4,0.5l-1-0.2l-0.6-1.3l-1.3-0.2l-0.8-0.4H281l-0.1,0.7l-0.4-0.5l0.2-0.6l0.3-0.6
		l-0.1-0.6l0.5-0.4l-0.6-0.5l0-1.3l1.2-0.3l1.1,1.1l-0.1,0.7l1.2,0.1l0.3-0.3l0.9,0.8l1.5-0.2l1.3-0.8l1.9-0.6l1.1-0.9l1.7,0.2
		l-0.1,0.3l1.7,0.1l1.4,0.5l1,0.9l1.2,0.9l-0.4,0.5l0.7,1.8l-0.6,0.9l-1-0.2L296.4,502.2z"/>
	<path id="PR" d="M332.6,466.3l1.6,0.3l0.6,0.6l-0.8,0.8l-2.3,0l-1.8,0.1l-0.2-1.4l0.4-0.5L332.6,466.3z"/>
	<path id="SV" d="M265.5,482.8l-0.3,0.7l-1.8,0l-1.1-0.3l-1.3-0.6l-1.7-0.2l-0.9-0.7l0.1-0.5l1.1-0.8l0.6-0.4l-0.2-0.4l0.7-0.2
		l0.9,0.3l0.7,0.6l0.9,0.5l0.1,0.4l1.4-0.4l0.6,0.2l0.4,0.3L265.5,482.8z"/>
	<path id="US" d="M132.4,320.7L132.4,320.7l-1.7-2l-2.7-1.7l-0.9-4.8l-4-4.6l-1.7-5.5l-3-0.4l-5-0.1l-3.7-1.7l-6.4-6.3l-3-1.2
		l-5.4-2.2l-4.3,0.5l-6.1-2.9l-3.7-2.7l-3.5,1.3l0.6,4.4l-1.7,0.4l-3.6,1.3l-2.7,2.1l-3.5,1.3l-0.4-3.6l1.4-6.1l3.3-2l-0.9-1.6
		l-4,3.6l-2.1,4.2l-4.5,4.4l2.3,2.9l-2.9,4.3l-3.3,2.5l-3.1,1.8l-0.8,2.5l-4.9,2.9l-1,2.6l-3.6,2.4l-2.1-0.4l-2.9,1.5l-3.2,1.9
		l-2.6,1.8l-5.3,1.5l-0.5-0.9l3.4-2.5l3-1.7l3.3-3l3.9-0.6l1.5-2.3l4.3-3.4l0.7-1.1l2.3-2l0.5-4.4l1.6-3.5l-3.6,1.8l-1-1l-1.7,2.2
		l-2-3l-0.8,2.2l-1.2-3l-3.1,2.4h-1.9l-0.3-3.6l0.6-2.2l-2-2.2l-4.1,1.2l-2.6-2.9l-2.1-1.5l0-3.6l-2.4-2.8l1.2-3.8l2.5-3.7l1.1-3.5
		l2.5-0.5l2.1,1.1l2.5-3.3l2.3,0.6l2.4-2.2l-0.6-3.2l-1.7-1.3l2.3-2.8l-1.9,0.1l-3.3,1.6l-0.9,1.6l-2.5-1.6l-4.4,0.8l-4.6-1.7
		l-1.3-2.9l-3.9-4.3l4.4-3.2l6.9-3.8h2.6l-0.4,3.9l6.6-0.3l-2.5-4.8l-3.8-3l-2.2-4l-3-3.5l-4.3-2.6l1.7-4.5l5.5-0.3l3.9-4l0.7-4.4
		l3.2-4.3l3-1.1l5.9-4.2l2.9,0.6l4.8-5.1l4.7,2l2.3,4.3l1.4-1.8l5.3,0.6l-0.2,2.2l4.8,1.6l3.2-0.9l6.6,2.9l6,0.9l2.4,1.2l4.1-1.5
		l4.7,2.7l3.4,1.3l0,30.7l0,39.4l3.1,0.2l3,1.7l2.2,2.7l2.8,4l3-3.4l3.1-2l1.7,3.2l2.1,2.5l2.9,2.7l1.9,4.2l3.2,6.5l5.3,3.6l0.1,3.5
		L132.4,320.7z M327.9,358.9l-1.4-1.3l-2.1,0.8l-1-1.2l-2.4,3.4l-1,3.5l-1.1,2l-1.3,0.7l-1,0.2l-0.3,1.1h-5.7l-4.7,0l-1.4,0.8
		l-3.2,3l0.3,0.6l0.2,1.7l-2.3,1.4l-2.6-0.4l-2.4-0.2l-1.5,0.5l0.3,1.3l0,0l0.1,0.4l-2.7,2.5l-2.3,1.2l-1.6,0.6l-1.8,1.1l-2.3,0.6
		l-1.6-0.2l-1.9-0.9l1.1-1.6l0.7-1.5l1.5-2.3l-0.2-1.7l-0.6-2.5l-1.2-0.4l-1.9,1.9l-0.6,0l-0.2-1.1l1.7-1.7l0.3-2l-0.3-2l-2.3-1.7
		l-2.6-0.9l-0.4,1.7l-0.7,0.4l-0.6,2.2l-0.3-1.5l-1.2,1.1l-0.8,1.5l-0.8,2.1l-0.2,1.8l1,2.6l-0.1,2.8l-1.3,2l-0.6,0.6l-0.8,0.5
		l-1.1,0l-0.3-0.3l-0.8-2.2l0-1.1l0.1-1l-0.4-2.1l0.6-2.4l0.7-3l1.6-3.4l-0.5,0l-2.3,2.8l-0.4-0.5l1.2-1.6l1.9-2.9l2.1-0.4l2.4-0.9
		l2.5,0.5l0.1,0l2.7-0.4l-1.6-1.8l-0.8-0.1l-1-0.2l-0.7-1.3l-3.1,0.4l-2.8,1l-2.2-1.7l-1.8-0.6l1-2.4l-2.8,1.5l-2.5,1.5l-2.4,1.2
		l-1.9-1.6l-3.1,0.9l0-0.7l2.1-1.9l2.2-1.8l3.2-1.5l-3.8-1.2l-2.5,0.6l-3-1.4l-3.2-0.7l-2.2-0.3l-1-0.8l-0.6-2.6l-1.1,0l0,1.8h-6.4
		h-10.7h-10.6h-9.4h-9.3H187h-9.5h-3.1h-9.2h-8.8l1.1,3.9l0.5,3.8l-0.8,1.2l-1.7-4.3l-4.5-1.6l-0.4,0.9l0.9,2.2l1,3.9l0.6,6l-0.4,4
		l-0.4,3.9l-1.2,4l1,3.2l0.1,3.6l-0.7,3.4l1.7,2.2l0.4,3.3l2.4,3.3l1.4,1.3l-0.1,0.9l2.6,5.4l3,3.8l0.4,2.1l0.8,0.6l2.9,0.4l1.1,1
		l1.7,0.2l0.3,1.1l1.5,0.4l2,2.1l0.5,1.9l3.5-0.3l4-0.4l-0.3,0.7l4.7,1.8l7.1,2.6l6.2,0h2.5l0-1.5h5.4l1.1,1.3l1.6,1.1l1.9,1.6
		l1,1.9l0.8,2l1.6,1.1l2.6,1.1l2-2.8l2.5-0.1l2.2,1.4l1.6,2.4l1.1,2.1l1.8,2l0.7,2.4l0.9,1.6l2.4,1.1l2.2,0.8l1.2-0.1l-0.6-1.2
		l-0.2-1.7l0-2.4l0.7-1.6l1.7-1.7l3.1-1.5l2.8-2.6l2.6-0.8l1.9-0.3l2.3,0.8l2.7-0.4l2.3,1.9l2.3,0.1l1.2-0.7l1.2,0.5l0.6-0.5
		l-0.7-0.7l0.1-1.4l-0.6-1l1.3-0.6l2.4-0.2l2.8,0.4l3.5-0.5l2,0.9l1.5,1.7l0.6,0.2l3.1-1.6l1.2,0.5l2.4,3l0.9,1.9l-0.6,2.3l0.5,1.4
		l1.4,2.7l1.7,3l1.2,0.8l0.5,1.5l1.5,0.4l0.9-0.4l0.8-2.1l0.1-1.3l0.1-2.3l-1.5-4.1l0-1.5l-1.4-2.5l-1-3.1l-0.6-2.5l0.5-2.6l1.5-2.2
		l1.8-1.7l3.4-2.4l0.4-1.2l1.6-1.4l1.6-0.2l2-2.2l3.2-1.1l2-2.8l-0.4-3.8l-0.3-1.3l-0.9-0.3l-0.1-3.7l-2.1-1.3l2.1,0.6l-0.7-2.5
		l0.6-1.7l0.4,3.3l1.6,1.5l-1,2.7l0.3,0.2l1.8-3.1l1-1.5l0-1.5l-0.8-0.7l-0.6-2.2l1,1l0.7,0.2l0.2,1l2.3-3.1l0.7-2.9l-0.9-0.2
		l0.9-1.1l-0.1,0.5l2,0l4.4-1.2l-0.9-0.8l-4.6,0.8l2.6-1.2l1.8-0.2l1.4-0.2l2.3-0.7l1.5,0.1l2.1-0.7l0.2-1.2l-0.9-0.9l0.3,1.5
		l-1.3-0.1l-1-2.2l0-2.2l0.5-1l1.6-2.5l3.3-1.3l3.2-1.5l3.3-2.1l-0.5-1.4l-2-2.5L327.9,358.9z M61.7,302.9l-1.7,0.9l-2.8,2.1
		l0.5,2.7l1.6,1.5l3.1-2.2l2.7-2.7l-1.3-1.8L61.7,302.9z M11,271.1l2.3-1.4l0.3-0.8l-2.5-0.7V271.1z M20.4,288.2l-3.1,1.1l1.9,1.7
		l2,1.2l1.9-1l-0.3-2.4L20.4,288.2z M128.6,324.3l-3,0.4l-1.5-0.7l-0.2,1.7l0.6,2.3l1.6,1.6l1.2,2.4l1.9,2.3l1.2,0l-2.7-4.1
		L128.6,324.3z M52.3,458.4l-1.1-0.3l-0.3,0.3l0,0.2l0.4,0.3l0.5,0.7l1-0.2l0.3-0.4L52.3,458.4z M48.9,457.8l1.7,0.1l0.1-0.4
		l-1.5-0.1L48.9,457.8z M55.5,461.4l-0.6-0.3l-1.2-0.6l-0.2-0.1l-0.2,0.3l0.2,0.6L53,462l-0.2,0.4l0.5,1.2l-0.1,0.9L54,465l0.5-0.5
		l1-0.5l1.2-0.7l0.1-0.2l-0.8-1.2L55.5,461.4z M46.7,455.7l-0.8,0.5l0.1,0.1l0.4,0.8l1.1,0.1l0.2,0l0.2-0.2L47,456L46.7,455.7z
		 M41.9,454l-0.5,0.3l-0.2,0.2l1,0.6l0.4-0.3l-0.1-0.8L41.9,454z"/>
</g>
</svg>
