<svg xmlns="http://www.w3.org/2000/svg" xml:space="preserve" viewBox="0 0 512 512"><g><path id="BS" d="m297.5 448.9-.8.2-.8-2-1.2-1 .7-2.2.9.1 1.1 2.8zm-.9-9.7-3.4.6-.2-1.3 1.5-.3 2.1.1zm2.6 0-.5 2.5-.6-.4.1-1.8-1.4-1.4v-.4z"/><path id="BZ" d="M261.3 468.6v-.5l.4-.2.6.4 1.1-2h.6v.5h.6v.9l-.5 1.4.3.5-.3 1.2.2.3-.4 1.6-.6.9-.6.1-.6 1.1h-.9l.2-3.6z"/><path id="CA" d="m232 116.7-.2-6.6 4 .6 1.8 1.1 3.7 5.5-.8 5.5-4.6 3.1-2.5-3.5zm14.7 14.1.4-1.7-2.2-2.7-6.3-.2.8 4.1 5.8.9zm40.4 52.1 3.4 5.7.9.6 3.4-1.4 3.4.2 3.3.3-.3-2.9-5.4-6-7.1-1.2-1.5.7zm-72.7-69.6-3 4.7 6.9.6 5.1 4.9 5.1 1.7-1.2-6.3-2.4-7.5-8.4-5.9-6.1-2.3.2 6.3zm28.8-11.4 5.7-.1-2.5 4.4v5.9l3.3 6.4 6.5 2 5.5-1.1 5.8-11.9 4.3-4.9-3.8-5.5-2.5-11.8-5.1-3.5-5.2-4.1-4-10.6-7.2 1 1.4 4.6-3.2 1.4L240 80l-2.2 8.3 2 8.1zm-70.9 59.3 4.4 2.2 14.1-1.4-6.5 5.3.4 3.8 4.7-.3 7.9-5.1 10.6-1.9 1.9-5.8-.5-6.2-3.3-.6-2.8 2.1-1.2-4.6-1.1-6.3-3.2-1.6-2.9 4.9 4.5 12.3-5.4-.9-5.5-7.5-8.8-4.4-2.9 3.7zm25.1-46.7-4.1-3.2-1.7-.7-3.2 4.8-.1 2.2h5.2zm-1.6 13.7 1-4.4-4.4-2.4-4.5 1.5-2.5 4.7 4.6 4.7zm32.3 36.9 5.1-1.2 1.4-9.2-.1-6.6-2.4-6.2-.2 1.8-4.4-.8-4.7 4.5-3.4-.4.2 9.9 5.1-1-.1 7.2zm-3.6 50.7-5.6-4.4-5.2-4.7-1-6.9-2-9.9-3.5-4.3-3.1-1.7-2.7 1.6 2.2 10.7-1.6 4.1-2.5-10-2.8-3.5-3.5 5.3-4.3-5.3-6.9 3.2 1.6-5-3.2-2.1-8.3 6.5-2.2 4.1-2.6 7.5 5.4 2.6 4.8-.1-7.2 3.8 1.6 3.5 4.4.2 6.7-.7 6 2.2-4.1 1.6-4.4-.4-4.8 1.6-2.1 1 3.8 7.1 2.8-1 4.3 2.4 1.7 4.1 5.5-.8 7.9-1.3 5.8-2.9 3.6-.5 5.4 2.4 5.6 1.4 1-3.2-2-3.4 5.1-.7zm8.6-1.1-2.2 3.9-2.7 2.8 4.3 3.9 2.5-.9 4.2 2.6 1.9-3-1.9-3.4-.9-1.7-1.9-1.6zM213.5 182l-2.4-2.4-4.2.4-1.1 1.5 4.9 7.5zm31.9 14.6 3.3-7.7 3.7-2.1 4.7-9.7-6-2.7-6.5-.4-3.1 3.1-1.6 4.7v5.4l1.9 9.1zm19-25.6 6.4-.2 8.9-1.8 4 1.4 4.6-2.5 1.9-3.2-.7-5-3.3-4.7-5.1-.9-6.3 1.1-5 2.7-4.5-1-4.2-.6-2-3-3.6-2.9.7-4.9-2.7-4.4h-6.1l-3.5-4.4-6.4-.9-1.2 5.7 3.6 4.2 6.4 1.6 3.1 5.7.4 6.2 1.1 6.7 8.3 3.8zm-98.9-20.3 5.8-5.6 2.9-.7 2.4-4.7.4-10.9-4.3 2.1-4.8-.2-6.4 9.1-5.3 10 4.2 2.8zm80.2 18 1.7-4.6-1.1-3.8-2.7-4.4-4.5 3.4-1.7 5.5 3.8 3.1zm-9.2 12.7-.8-3.2-5.6 1.4-3.7-2.3-3.7 5.3 3.4 7-6.4-1.3-.1 3.3 7.7 7.8 2.2 3.8 3 .8 5.1-3.8.6-9.1-4.7-4.5zm-82.2 170.8-1.3-2.6-3.1-2-1.5-2.3-1.1-1.7-2.9-.5-1.9-.7-3.3-1.1-.3 1.1 1.2 2.6 3.2.9.6 1.4 2.8 1.7.9 1.7 5.1 2.1zM289.5 266l-2.2-2.3-2.3.6-.3-3.4-3.6-2.3-3.4-2.5-1.8-1.9-1.6 1.1-.6-3.3-2.3-.6-1.1 6.8-.4 5.7-2.7 3.5 4.2-.7 1.1 4.1 4.4-3.6 3.1-3.8 1.7 3.2 4.8 1.7zm-133.9-58.4 8.2-4.6v-4.3l3.9-7.1 7.6-7.4 3.9-2.7-3.3-4.7-3-3.3-8-.6-4.4-2.4-10.5 1.8 3 6.9-2.7 7.1-2.2 7.6-1.3 4.3 7.2 5.2zm149.1 30.3.4-1.1v-3.5l-2.4-2.3-2.9 1.2-1.3 4.6.8 4 3.5-.4zm26.5 8.4 4.9 7.3 3.8 3.2 5.5-8.7 1-5.5-4.9-.5-4.5-7.4-4.9-1.8-7.3-5.5 5.7-4-2.9-8.4-2.7-3.7-7.5-3.7-3.2-6.2-5.8 2.2-.4-4.3-4.3-4.8-6.9-5.2-2.9 4.1-6.2 3 .5-6.7-5.3-11.2-7.9 4.5-2.9 8.6-2.5-6.6 2.3-7.1-8 2.9-3.2 4.4-2.4 9.4 1 10.1h4.4l-3.3 4.4 2.6 3.3 5.1 1.4 6.6 2.7 11.3 2 5.6-1.2 1.7-2.7 2.5 3.1 2.7.5 3.3 5.5-2 2.2 6.3 2.9 4.8 4.1 1.2 2.8.9 3.6-4 7.7-1.1 3.8 1 2.7-6.4 1-5.9.1-2.1 5.4 2.6 2.5 9-1.1v-2.1l4.5 3.5 4.6 3.6-1.1 2 3.8 3.4 6.7 3.9 8.4 2.7-.5-2.3-3.2-4.1-4.4-6 7.8 5.6 3.9 1.8 1.1-4.9-2-7-1.3-1.9-4.4-3.6-3.3-4.3.4-4.4zM258 66.8l2.6 8.1 5.5 6.5 10.9-1.2 7 2.2-4.9 6.7-2.5-2-8.5-.8 1.3 9.2 4.4 6.7-.9 5.8-5.5 3.8-2.4 6.2 5.1 2.9 4.2 9.5-8.3-6.3-1.9 1 1.5 10.4-5.8 3.1.4 6.5 5.9.7 4.6 1.6 9.2-2 8.1 3.6 8.3-8-.1-3.4-5.3.5-.4-3.2 4.4-4.3 1.5-5.7 4.8-4.3 3-5.3-2.6-7.9 2.2-2.9-4.3-2.1 9.4-1.8 2-3.5 6.4-2.9 5.3-15 5.1-5.5 7.4-12.4-6.8.1 2.8-4.8 7.5-4.4 7.6-9.9.1-6.4-5.7-6.7-6.7-3.3-8.3-2-6.7-1.7-6.7-1.7-9 4.4-1.7-2.8-9.5 1.1-5.6 2.9-4.1 4.1-2.4 13-3.4-6.7-3.9-1.3-4.6 8.9-6.1 3.7-3.6.7-4.6 4.3.7 7.4zm82.7 294.5-1.1-2.2-1.2 1.4.8 1.5 4 1.9 1.2-.3 1.5-1.8-2.9.1zm-63.3-86.6.7 1.8 2.2.2 3.6-3.7.1-1.3-4.3-.1zm69 73.9-3.2-2-4.1-1.2-1.1.4 2.9 2.3 4 1.5 1.5-.1zm27.7 5.3-.4-2.5-2.2.8 1-3.5-3.1-1.5-1.4 1.2-2.8-1.3 1.1-1.7-2.1-1-2 1.6 2.1-4.2 1.7-3.1.6-1.4-1.4-.2-2.7 1.7-1.9 2.8-3.2 7.7-2.6 2.8 1.4 1.3-1.9 1.6.5 1.4 6 .1 3.3-.3 3 1.1-2.2 2.1 1.9.2 3.6-4 .9.6-.7 3.7 2 .9 1.4-.2 1.3-4zm-23.6 5.3-3.1 5.1-5.1.6-4-2.2-1-3.4-1-5 2.9-3.1-2.8-2.3-4.7.5-6.5 3.9-5 6.1-2.6.7 3.6-4.2 4.5-6.2 4-2.1 2.6-3.5 3.2-.3h4.7l6.7 1 5.3-.8 3.9-4 5.1-1.8 2.2-1.8 2.3-1.9-.2-5.8-1.3-2-2.4-.7-1.2-4.5-2-1.7-5-1.4-2.8-3.1-4.1-3.1 1.3-3.6-3.4-7-4.1-7.7-2.4-5.5-2.1 2.9-3 6.7-4.5 3.3-2.3-3.5-2.8-.9-1-7.8.1-5.3-5.6-.5-.9-2.5-3.8-3.8-2.9-2.3-2.6 1.8-3.2-.6-5.3-1.8-2.2 1.6 1 10.2 1.4 5.7-3.7 6.4 3.8 4.5 2.1 4.9.3 3.8-1.7 3.9-3.5 3.8-5 2.5 2.2 2.8 1.6 8.2-1.7 5.2-2.4 1.6-4.6-4.8-2.3-5.7-1-5.3.5-4.7-3.4-.5-5.1-.3-3.3-2.3-3.9-1.5-2.2-2.6-3.1-2.2-5.8-2.5-4.4 1.1-1.5-4.4-1.4-5.5-4.6-1 .2-7.1 1.2-5 3.4-7.3 3.8-5.4 3.6-.9.2-4.5 2.5-3 4.5-.5 3.6-4.9.9-3.2 3-6.4.9-3.9 3.2 2.3 4.3-1.2 6.1-5.5.4-3.9-2.2-4.4 2.3-4.5-.2-4.3-4.2-4.4-4.6-1.3-4.4-.7-.2 9.7-2.3 7.3-3.3 5.9-3-5.5.9-6.2-3.7-5.6-4.2 6.8v-8.9l-5.8-1.8 2.8-4.5-4.2-10.7-3.2-4.3-4.1-1.6-3.7 7.1-.2 10.4 3.6 3.7 3.3 5.5-1.4 8.6-2.5-.2-2 6.5v-7.8l-4.8-2.9-2.8 1.5.4 5.2-4.5-.2-4.8 1.3-5.5-3.7-3.5.7-3.1-4.6-2.5-2-2.5.9-3.8.4-2 2.9 3.2 3.5-3.4 4.1-3.3-4.9-2.7 1.4-8.4 1-5.6-1.8 4.4-4.2-4.2-4.3-3.1.6-4.3-1.5-7.3-3.2-4.8-3.7-3.8-.5-1.2 2.6-3.8 1.5-.4-6.8-4.1 6.1-5.3-8.1-2.2-1-.7 4.3-2.3 2.1-2.1-3.8-5.1 2.3-4.7 3.9-4.6-1.1-3.8 2.8-2.7 3.6-3.2-.8-4.9-4.2-5.8-2.2v70.1l3.1.2 3 1.7 2.2 2.7 2.8 4 3-3.4 3.1-2 1.7 3.2 2.1 2.5 2.9 2.7 1.9 4.2 3.2 6.5 5.3 3.6.1 3.5-1.7 2.6.1 2.8 3.8 3.8.5 4.2 4 2.2-.4 3.1 1.7 4.4 5.6 2 2.2 2.1 6 4.7h86.6v-1.8h1.1l.6 2.6 1 .8 2.2.3 3.2.7 3 1.4 2.5-.6 3.8 1.2 1.3-1.8 1.8-.7.7-1.1.7-.6 2.9 1 2.1.1.7.6 1 2.6 3.5.7-.5 1.3 1.2 1.3-.5 1.7 1.3.6-.7 1.5.8.1.6-.7.6 1 2.3.6h2.4l2.5.5 2.8.9 1 1.4 2 3.4-1 1.4-2.5-.6-1.6-2.7.4 2.8-1.5 2.4.2 2-.3 1.2-2 1.4-1.5 2.3-.7 1.5 1.7.3 2.3-1.3 1.4-1.2.9-.2 1.7.4.8-.7 1.5-.5 2.7-.5-.3-1.3h-.1l-1 .2-1.2-.4.9-1.5.9-.5 2.2-.6 2.6-.6 1.4.8.9-.9 1-.6.7.3v.1l3.2-3 1.4-.8h10.4l.3-1.1 1-.2 1.3-.7 1.1-2 1-3.5 2.4-3.4 1 1.2 2.1-.8 1.4 1.3v6.1l2 2.5 3.5-.5 5-.1-5.4 3.6.1 3.7 2.4.3 3.5-3.1 3.1-1.8 6.9-2.6 3.9-2.9-2-1.6zm-59.6-79 1.2-3.5-.8-1.4-1.3-.1-1.2 2-.1.5.8 2zm-158.5 40.5 1.7-2.6z"/><path id="CR" d="m280.6 499.1-1.7-.7-.6-.7.4-.5-.1-.7-.9-.8-1.2-.6-1.1-.4-.2-.9-.8-.6.2.9-.6.7-.7-.9-1-.3-.4-.6v-1l.4-1-.9-.4.7-.6.5-.4 2.1.8.7-.4 1 .3.5.6.9.2.7-.7.8 1.7 1.2 1.3 1.5 1.3-1.2.3v1.3l.6.5-.5.4.1.6-.3.6z"/><path id="CU" d="m282.7 450.8 2.7.2h2.4l2.9 1.1 1.2 1.2 2.9-.4 1.1.8 2.6 2.1 1.9 1.5h1l1.9.7-.2.9 2.3.1 2.4 1.4-.4.8-2.1.4-2.1.2-2.1-.3-4.5.3 2.1-1.8-1.3-.9-2-.2-1.1-1-.7-1.9-1.8.1-2.9-.9-.9-.7-4.1-.5-1.1-.7 1.2-.8-3.1-.2-2.2 1.7h-1.3l-.4.8-1.5.4-1.3-.3 1.6-1 .7-1.2 1.4-.7 1.6-.7 2.4-.3z"/><path id="DO" d="m315.6 462.4.4-.6h2.4l1.8.8.8-.1.6 1.2 1.7-.1-.1 1 1.4.1 1.5 1.2-1.2 1.3-1.5-.7-1.4.1-1-.2-.6.6-1.2.2-.5-.8-1 .5-1.2 2.2-.8-.5-.2-.9.1-.9-.8-1 .8-.6.2-1.3z"/><path id="GL" d="m393.3 36.3 10.5-15.1 10.9 1.2 4-9.9 11-2.7 24.9 3.5L474.1 34l-5.8 9.2-11.9 1-16.8 2.3 1.6 4 11-2.5 9.4 7.7 6.1-6.8 2.6 7.9-3.4 12.2 7.9-7.7 15.1-8.4 9.3 4.2 1.7 9-12.7 14.1-1.8 4.3-10 3.2 7.2.9-3.6 12.8-2.5 10.7.1 17 3.7 9.3-4.9.6-5.1 4.3 5.7 7 .7 10.7-3.3 1.1 4 10.2-6.9.8 3.6 4.6-1 3.9-4.4 1.7h-4.3l3.9 7.2v4.6l-6.2-4.3-1.6 2.8 4.2 2.5 4.1 6.1 1.2 7.7-5.6 1.8-2.4-3.6-3.9-5.5 1.1 6.5-3.6 4.9 8.2.4 4.3.5-8.4 7.8-8.5 6.8-9.1 2.9h-3.4l-3.2 3.2-4.3 8.5-6.7 5.4-2.2.3-4.2 1.9-4.5 1.8-2.7 4.6v5.1l-1.6 4.6-5.1 5.5 1.3 5.2-1.4 5.4-1.6 6.2-4.4.4-4.6-5.1h-6.2l-3-3.5-2.1-6.4-5.4-8.5-1.6-4.6-.4-6.5-4.3-7 1.1-5.7-2.1-2.8 3.1-9.6 4.7-3.2 1.2-3.6.7-7-3.6 3.2-1.7 1.3-2.8 1.3-3.8-2.9-.2-6.2 1.2-5 2.9-.1 6.4 2.5-5.4-6-2.8-3.3-3.1 1.4-2.6-2.4 3.5-9.4-1.9-3.9-2.5-7.5-3.7-12.1-4-4.6v-5.1l-8.4-7.4-6.6-.9-8.3.5-7.6 1-3.6-4.2-5.4-8.5 8.2-4.4 6.3-.8-13.3-3.7-7-6 .4-5.9 11.8-7.6 11.4-8 1.2-6.3-8.4-6.4 2.7-7.4 10.8-13.7 4.5-2.2-1.3-9.5 7.4-5.8 9.6-3.6 9.6-.2 3.4 7 8.3-12.6 7.4 8.6 4.4 1.8 6.5 7.1-7.4-12z"/><path id="GT" d="m258.4 481.7-1.6-.6-1.9-.1-1.4-.6-1.7-1.3.1-.9.4-.8-.4-.6 1.5-2.6h4l.1-1.1-.5-.2-.3-.7-1.2-.7-1.2-1.1h1.4v-1.8h5.8v2.6l-.2 3.6h.9l1 .6.3-.5.9.4-1.4 1.2-1.5.9-.2.6.2.6-.6.8-.7.2.2.4-.6.4-1.1.8z"/><path id="HN" d="m267 484.1-.5-1-1-.3.2-1.3-.4-.3-.6-.2-1.4.4-.1-.4-.9-.5-.7-.6-.9-.3.6-.8-.2-.6.2-.6 1.5-.9 1.4-1.2.3.1.7-.6h.9l.3.3.5-.2 1.4.3 1.4-.1 1-.4.4-.4 1 .2.7.2.8-.1.6-.3 1.4.4.5.1.9.6.9.7 1.1.5.8.9-1.1-.1-.4.4-1.1.4h-.8l-.7.4-.6-.1-.5-.5-.3.1-.4.8h-.3l-.1.7-1.1.9-.6.4-.3.4-.9-.6-.7.8h-.7l-.7.1.1 1.6h-.5l-.1.6z"/><path id="HT" d="m311 461.7 1.9.1 2.7.5.3 1.8-.2 1.3-.8.6.8 1-.1.9-2.1-.6-1.5.2-1.9-.2-1.5.6-1.7-1 .3-1.1 2.9.5 2.4.3 1.1-.7-1.4-1.4v-1.3l-2-.5z"/><path id="JM" d="m297.4 466.4 2.1.3 1.7.8.5.9-2.2.1-.9.5-1.7-.5-1.8-1.2.4-.7 1.3-.2z"/><path id="MX" d="m236.4 441.7-1.2 3-.5 2.5-.2 4.5-.3 1.6.5 1.8 1 1.6.6 2.6 2.1 2.5.7 1.9 1.2 1.6 3.3.9 1.3 1.4 2.7-.9 2.4-.3 2.3-.6 2-.6 2-1.3.7-1.9.3-2.8.5-1 2.1-.9 3.3-.8 2.8.1 1.9-.3.7.7-.1 1.6-1.7 2-.7 2 .6.6-.5 1.4-.8 2.5-.8-.8-.7.1h-.6l-1.1 2-.6-.4-.4.2v.5h-5.8v1.8H254l1.2 1.1 1.2.7.3.7.5.2-.1 1.1h-4l-1.5 2.6.4.6-.4.8-.1.9-3.5-3.5-1.6-1-2.5-.8-1.7.2-2.5 1.2-1.6.3-2.2-.8-2.3-.6-2.9-1.5-2.3-.5-3.5-1.5-2.6-1.6-.8-.9-1.7-.2-3.2-1-1.3-1.5-3.3-1.9-1.6-2.1-.7-1.6 1-.3-.3-.9.7-.9v-1.2l-1-1.5-.3-1.3-1-1.7-2.7-3.4-3.1-2.7-1.5-2.1-2.7-1.4-.6-.8.5-2.1-1.6-.8-1.8-1.7-.8-2.4-1.7-.3-1.8-1.8-1.5-1.7-.1-1.1-1.7-2.7-1.1-2.8v-1.4l-2.3-1.4-1 .2-1.8-1-.5 1.5.5 1.7.3 2.7 1.1 1.5 2.3 2.5.5.8.5.2.4 1.2.6-.1.6 2.3.9.9.7 1.2 2 1.8 1 3.2.9 1.5.9 1.6.2 1.8 1.5.1 1.3 1.5 1.1 1.5-.1.6-1.3 1.2h-.6l-.8-2.1-2-1.9-2.2-1.6-1.6-.9.1-2.5-.5-1.9-1.5-1.1-2.1-1.5-.4.4-.8-.9-1.9-.8-1.8-2 .2-.3 1.3.2 1.2-1.3.1-1.6-2.4-2.5-1.8-1-1.2-2.2-1.2-2.4-1.4-2.9-1.3-3.3 3.5-.3 4-.4-.3.7 4.7 1.8 7.1 2.6h8.7v-1.5h5.4l1.1 1.3 1.6 1.1 1.8 1.6 1 1.9.8 2 1.6 1.1 2.6 1.1 2-2.8 2.6-.1 2.2 1.4 1.6 2.4 1.1 2.1 1.8 2 .7 2.4.9 1.6 2.4 1.1 2.2.8z"/><path id="NI" d="m272 490.1-1.1-1-1.5-1.3-.7-1.1-1.3-1-1.6-1.4.3-.5.5.5.2-.2 1-.1.4-.7h.5l-.1-1.6.7-.1h.7l.7-.8.9.6.3-.4.6-.4 1.1-.9.1-.7h.3l.4-.8.3-.1.5.5.6.1.7-.4h.8l1.1-.4.4-.4 1.1.1-.3.3-.2.7.3 1.2-.7 1.1-.3 1.3-.1 1.4.2.8.1 1.4-.5.3-.3 1.4.2.8-.6.8.2.8.5.5-.7.7-.9-.2-.5-.6-1-.3-.7.4-2.1-.8z"/><path id="PA" d="m296.4 502.2-1-.9-.7-1.7.8-.8-.8-.2-.6-1-1.6-.9-1.4.2-.6 1.1-1.3.8-.7.1-.3.7 1.5 1.7-.8.4-.5.5-1.4.2-.5-1.9-.4.5-1-.2-.6-1.3-1.3-.2-.8-.4H281l-.1.7-.4-.5.2-.6.3-.6-.1-.6.5-.4-.6-.5v-1.3l1.2-.3 1.1 1.1-.1.7 1.2.1.3-.3.9.8 1.5-.2 1.3-.8 1.9-.6 1.1-.9 1.7.2-.1.3 1.7.1 1.4.5 1 .9 1.2.9-.4.5.7 1.8-.6.9-1-.2z"/><path id="PR" d="m332.6 466.3 1.6.3.6.6-.8.8h-2.3l-1.8.1-.2-1.4.4-.5z"/><path id="SV" d="m265.5 482.8-.3.7h-1.8l-1.1-.3-1.3-.6-1.7-.2-.9-.7.1-.5 1.1-.8.6-.4-.2-.4.7-.2.9.3.7.6.9.5.1.4 1.4-.4.6.2.4.3z"/><path id="US" d="m132.4 320.7-1.7-2-2.7-1.7-.9-4.8-4-4.6-1.7-5.5-3-.4-5-.1-3.7-1.7-6.4-6.3-3-1.2-5.4-2.2-4.3.5-6.1-2.9-3.7-2.7-3.5 1.3.6 4.4-1.7.4-3.6 1.3-2.7 2.1-3.5 1.3-.4-3.6 1.4-6.1 3.3-2-.9-1.6-4 3.6-2.1 4.2-4.5 4.4 2.3 2.9-2.9 4.3-3.3 2.5-3.1 1.8-.8 2.5-4.9 2.9-1 2.6-3.6 2.4-2.1-.4-2.9 1.5-3.2 1.9-2.6 1.8-5.3 1.5-.5-.9 3.4-2.5 3-1.7 3.3-3 3.9-.6 1.5-2.3 4.3-3.4.7-1.1 2.3-2 .5-4.4 1.6-3.5-3.6 1.8-1-1-1.7 2.2-2-3-.8 2.2-1.2-3-3.1 2.4h-1.9l-.3-3.6.6-2.2-2-2.2-4.1 1.2-2.6-2.9L24 288v-3.6l-2.4-2.8 1.2-3.8 2.5-3.7 1.1-3.5 2.5-.5 2.1 1.1 2.5-3.3 2.3.6 2.4-2.2-.6-3.2-1.7-1.3 2.3-2.8-1.9.1-3.3 1.6-.9 1.6-2.5-1.6-4.4.8-4.6-1.7-1.3-2.9-3.9-4.3 4.4-3.2 6.9-3.8h2.6l-.4 3.9 6.6-.3-2.5-4.8-3.8-3-2.2-4-3-3.5-4.3-2.6 1.7-4.5 5.5-.3 3.9-4 .7-4.4 3.2-4.3 3-1.1 5.9-4.2 2.9.6 4.8-5.1 4.7 2 2.3 4.3 1.4-1.8 5.3.6-.2 2.2 4.8 1.6 3.2-.9 6.6 2.9 6 .9 2.4 1.2 4.1-1.5 4.7 2.7 3.4 1.3v70.1l3.1.2 3 1.7 2.2 2.7 2.8 4 3-3.4 3.1-2 1.7 3.2 2.1 2.5 2.9 2.7 1.9 4.2 3.2 6.5 5.3 3.6.1 3.5zm195.5 38.2-1.4-1.3-2.1.8-1-1.2-2.4 3.4-1 3.5-1.1 2-1.3.7-1 .2-.3 1.1h-10.4l-1.4.8-3.2 3 .3.6.2 1.7-2.3 1.4-2.6-.4-2.4-.2-1.5.5.3 1.3.1.4-2.7 2.5-2.3 1.2-1.6.6-1.8 1.1-2.3.6-1.6-.2-1.9-.9 1.1-1.6.7-1.5 1.5-2.3-.2-1.7-.6-2.5-1.2-.4-1.9 1.9h-.6l-.2-1.1 1.7-1.7.3-2-.3-2-2.3-1.7-2.6-.9-.4 1.7-.7.4-.6 2.2-.3-1.5-1.2 1.1-.8 1.5-.8 2.1-.2 1.8 1 2.6-.1 2.8-1.3 2-.6.6-.8.5h-1.1l-.3-.3-.8-2.2v-1.1l.1-1-.4-2.1.6-2.4.7-3 1.6-3.4h-.5l-2.3 2.8-.4-.5 1.2-1.6 1.9-2.9 2.1-.4 2.4-.9 2.5.5h.1l2.7-.4-1.6-1.8-.8-.1-1-.2-.7-1.3-3.1.4-2.8 1-2.2-1.7-1.8-.6 1-2.4-2.8 1.5-2.5 1.5-2.4 1.2-1.9-1.6-3.1.9v-.7l2.1-1.9 2.2-1.8 3.2-1.5-3.8-1.2-2.5.6-3-1.4-3.2-.7-2.2-.3-1-.8-.6-2.6h-1.1v1.8h-85.9l1.1 3.9.5 3.8-.8 1.2-1.7-4.3-4.5-1.6-.4.9.9 2.2 1 3.9.6 6-.4 4-.4 3.9-1.2 4 1 3.2.1 3.6-.7 3.4 1.7 2.2.4 3.3 2.4 3.3 1.4 1.3-.1.9 2.6 5.4 3 3.8.4 2.1.8.6 2.9.4 1.1 1 1.7.2.3 1.1 1.5.4 2 2.1.5 1.9 3.5-.3 4-.4-.3.7 4.7 1.8 7.1 2.6h8.7v-1.5h5.4l1.1 1.3 1.6 1.1 1.9 1.6 1 1.9.8 2 1.6 1.1 2.6 1.1 2-2.8 2.5-.1 2.2 1.4 1.6 2.4 1.1 2.1 1.8 2 .7 2.4.9 1.6 2.4 1.1 2.2.8 1.2-.1-.6-1.2-.2-1.7v-2.4l.7-1.6 1.7-1.7 3.1-1.5 2.8-2.6 2.6-.8 1.9-.3 2.3.8 2.7-.4 2.3 1.9 2.3.1 1.2-.7 1.2.5.6-.5-.7-.7.1-1.4-.6-1 1.3-.6 2.4-.2 2.8.4 3.5-.5 2 .9 1.5 1.7.6.2 3.1-1.6 1.2.5 2.4 3 .9 1.9-.6 2.3.5 1.4 1.4 2.7 1.7 3 1.2.8.5 1.5 1.5.4.9-.4.8-2.1.1-1.3.1-2.3-1.5-4.1v-1.5l-1.4-2.5-1-3.1-.6-2.5.5-2.6 1.5-2.2 1.8-1.7 3.4-2.4.4-1.2 1.6-1.4 1.6-.2 2-2.2 3.2-1.1 2-2.8-.4-3.8-.3-1.3-.9-.3-.1-3.7-2.1-1.3 2.1.6-.7-2.5.6-1.7.4 3.3 1.6 1.5-1 2.7.3.2 1.8-3.1 1-1.5v-1.5l-.8-.7-.6-2.2 1 1 .7.2.2 1 2.3-3.1.7-2.9-.9-.2.9-1.1-.1.5h2l4.4-1.2-.9-.8-4.6.8 2.6-1.2 1.8-.2 1.4-.2 2.3-.7 1.5.1 2.1-.7.2-1.2-.9-.9.3 1.5-1.3-.1-1-2.2v-2.2l.5-1 1.6-2.5 3.3-1.3 3.2-1.5 3.3-2.1-.5-1.4-2-2.5zm-266.2-56-1.7.9-2.8 2.1.5 2.7 1.6 1.5 3.1-2.2 2.7-2.7-1.3-1.8zM11 271.1l2.3-1.4.3-.8-2.5-.7v2.9zm9.4 17.1-3.1 1.1 1.9 1.7 2 1.2 1.9-1-.3-2.4zm108.2 36.1-3 .4-1.5-.7-.2 1.7.6 2.3 1.6 1.6 1.2 2.4 1.9 2.3h1.2l-2.7-4.1zM52.3 458.4l-1.1-.3-.3.3v.2l.4.3.5.7 1-.2.3-.4zm-3.4-.6 1.7.1.1-.4-1.5-.1zm6.6 3.6-.6-.3-1.2-.6-.2-.1-.2.3.2.6-.5.7-.2.4.5 1.2-.1.9.8.5.5-.5 1-.5 1.2-.7.1-.2-.8-1.2zm-8.8-5.7-.8.5.1.1.4.8 1.1.1h.2l.2-.2-.9-1zm-4.8-1.7-.5.3-.2.2 1 .6.4-.3-.1-.8z"/></g></svg>