<?xml version="1.0" encoding="utf-8"?>
<!-- Generator: Adobe Illustrator 28.3.0, SVG Export Plug-In . SVG Version: 6.00 Build 0)  -->
<svg version="1.1" xmlns:amcharts="http://amcharts.com/ammap"
	xmlns="http://www.w3.org/2000/svg" xmlns:xlink="http://www.w3.org/1999/xlink" x="0px" y="0px"
	viewBox="0 0 512 512"
	style="enable-background:new 0 0 512 512;" xml:space="preserve">
<defs>

		<amcharts:ammap  bottomLatitude="-54.779082" leftLongitude="51.639444" projection="mercator" rightLongitude="190.480712" topLatitude="28.232061">
		</amcharts:ammap>
</defs>
<g>
	<path id="AS" d="M496.3,238.1l-0.2,0l-0.2-0.2l0.5-0.2l0.2-0.1l0.6,0l-0.4,0.1L496.3,238.1z"/>
	<path id="AU" d="M207.7,222.9l-0.2-0.5l0.1-0.1l0.1-0.1l0.1,0l0.5,0.5l0.2,0.1l0.3,0.3l0.7,0l0.8-0.4l0.4,0.2l0.2,0l0.6-0.3
		l0.4-0.1l0.2-0.3l0.3,0.3l0.6,0.3l0.2,0.3l0.2,0.2l0.1,0.1l-0.3,0.4l-0.1,0.4l-0.4,0l-0.4,0.6l-1.7,1.1l-1.5-0.9l-0.6-0.6l-0.4-0.9
		L207.7,222.9z M239.9,245l0.1,0.2l0.3,0.2l0.2-0.2l-0.1-0.2l0-0.4l-0.3-0.3l-0.1,0.3l-0.1,0.1l-0.1,0.2L239.9,245z M251,250.1h0.2
		l0.3-0.1l0.2-0.2l0.2,0.1l0.4-0.5l0.3-0.2l0.7-0.1l-0.5-0.6l-0.1,0l-0.6,0.2l-0.8,0.1l-0.3,0.3l-0.3,0.5l-0.1,0.5l0.1,0.1
		L251,250.1z M265.3,217.2l0.1-0.3l-0.2-0.2L265,217l0.2,0.3L265.3,217.2z M238,223.2l0.7-0.9l0.2-0.9l-0.2,0.1l0,0.4l-0.1,0.3
		l-0.1,0.1l-0.2,0.2l-0.4,0.7l-0.2,0.2l0,0.2L238,223.2z M217.9,222.2l0.4,0.8l0.1-0.1l0.2-0.7l-0.2-0.3l0-0.5l-0.1-0.1l-0.2,0.3
		l-0.3,0.1l0.2,0.4L217.9,222.2z M237,224.2l0.5-0.4l0.1-0.2l-0.1,0.1l-0.9,0.4l-0.4,0.5l0.8-0.4L237,224.2z M239.3,244.5
		L239.3,244.5l0.2-0.2l-0.1-0.4l-0.2,0.2L239.3,244.5z M265.2,219.6l0,0.1l0.1,0.3l0.3,0.2l0.4-0.3l-0.4-0.6L265.2,219.6z
		 M237.6,244.3l0.1,0.2l0.1,0l0.3,0l0.1-0.4L238,244l-0.3,0.1L237.6,244.3z M239.4,237.3l-0.5-0.2l-0.2-0.2l0-0.2l0.2-0.6l0.1-0.2
		l0.1-0.1l0.3-0.3l-0.1-0.2l-0.1-0.1l-0.1-0.1l-0.2,0.5l-0.2,0l-0.2-0.2l-0.1-0.4l0-0.2l-0.2,0l-0.3,0.2l-0.2,0.4l-0.5,0.3l-0.1,0.7
		l0.1,0.6l-0.2,0.2l-0.3,0.2l0.1,0.1l0.5,0l0.9,0.2l0.6,0l0.6,0.1l0.2-0.2l0.1-0.3l-0.1,0L239.4,237.3z M309.8,286.7l0.1-0.1
		l0.2-0.2l-0.1-0.3l-0.2-0.4l0.1-0.3l-0.1-0.1l-0.2,0l-0.2-0.1l-0.4-0.2l-0.1,0.4l0.7,1.1L309.8,286.7z M318.7,297.5l0.1-0.1l0-0.4
		l0.3-0.9l1-2.4l0.1-0.5l-0.3-0.3l-0.1-0.9l-0.1-0.1l-0.2,0.1l-0.2,0.1l-0.2,0.3l0.2,0.1l0.3,0.5l-0.1,0.5l-0.2,0.3l-0.7,0.7
		l0.1,0.6l-0.1,0.3l-0.3,0.5l-0.1,0.6l0.1,1L318.7,297.5z M320.5,306l0.1-0.1l-0.1-0.6l0.2-0.9l-0.2-0.1l-0.3,0.1l-0.1,0.5l0.1,0.5
		L320.5,306z M320.4,306.9l0,0.9l0.2,0.2l0.1,0l0.4-1.5l-0.1-0.1l-0.4-0.1L320.4,306.9z M306.3,279.1l0.2-0.1l-0.1-0.4l-0.2-0.1
		l0,0.3L306,279l0.1,0.1H306.3z M303.4,278.4v-0.2l-0.1-0.5l-0.2,0.1l0,0.4l0.1,0.4L303.4,278.4z M284.7,258.1l0.4,0.4l0.2,0.5
		l0.3,0.2l0.1-0.2l0.1-0.2l-0.2-0.4l-0.1-0.5l-0.1,0l-0.1,0.1l-0.2,0.1l-0.4,0L284.7,258.1z M265.9,217.6l0.3-0.3l-0.2-0.3l-0.4,0.1
		l-0.1,0.2l0.1,0.2L265.9,217.6z M298.5,267.7l0.1-0.1l0.1-0.5l-0.2,0.1l-0.1,0.2l-0.1,0.2l0.1,0.1H298.5z M298.8,268.5h0.2l0.1-0.1
		v-0.1l-0.2-0.3l-0.1-0.3l-0.2,0.7L298.8,268.5z M252.1,251.7l-0.2,0.2l0.1,0.2l0.2-0.1l0.5-0.1l-0.1-0.3l-0.3-0.3L252.1,251.7z
		 M281.6,370.2l-0.3-0.3l-0.6,0l-0.1,0.1l0,0.3l0.3,0.2L281.6,370.2z M295.4,380.4l-0.1-0.1l-0.5-0.2l-0.9-1.2l-0.3-0.2l-0.5,0.7
		l-0.3,0.2l0.2,0.3l0.3,0l0.1,0.4l-0.1,0.3l0.7,1l0.1,0.3l0.1,0.2l0.2,0.1l0.5-0.2l0.4-0.4h0.1l0.1-0.2l-0.3-0.3l0.2-0.2
		L295.4,380.4z M295.1,383.8L295.1,383.8l-0.2-0.1l-0.4,0.1l0.1,0.1l0.3,0.3L295.1,383.8z M279.8,371.3l0.7-0.1l0.4,0.2l0-0.1
		l-0.2-0.3l-0.1-0.1l-0.3-0.1L279.8,371.3z M278.2,383.8l0-0.4l0,0l-0.2,0.2l-0.2,0.1l0.2,0.7L278.2,383.8z M235.9,235l-0.1,0.1
		l-0.1,0.1v0.2l0.4,0.1l0.1-0.1l0.2-0.2l-0.1-0.4l-0.2-0.2L235.9,235z M347.3,485.9l-0.3,1.7l0.1,0.4l0.2-0.3l0.3-1.1l0.1-0.9
		L347.3,485.9z M295.5,382.5l-0.6,0.3h-0.7L294,383l0.1,0.2l0.4,0.3l0.5,0l0.5-0.1l0.2,0.4l0.2-0.1l0.3-0.3l-0.3-0.4L295.5,382.5z
		 M295.6,394.2l-0.1-0.2l-0.1-0.2v-0.2l0.1-0.5l-0.1-0.7l0.1-1.1l-0.1-0.6l0-0.6l0.1-0.8l0-0.8l-0.1-0.4l0-0.4l0-1.1L295,386
		l-0.9-0.5h-0.3l-0.5,0.6H293l-1-0.2l-0.2,0.2l-0.4,0.6l-0.2,0.2l-0.3-0.1l-0.3-0.2l-0.2,0l-0.2,0.2l-0.6,0.1l-0.6,0l-0.3,0.2
		l-0.3,0.3l-0.1,0.3l0.1,0.4l-0.3-0.3l-0.3-0.2l-0.4,0.2l-0.4,0.2l-1.3,0.1l-1-0.3l-1.4-0.6l-0.2-0.2l-0.2-0.2l-0.2-0.1l-0.5-0.2
		l-0.2-0.3l-0.2-0.1l-0.3,0l-0.4-0.2l-0.3-0.4l-0.3,0l-0.3,0.2l-0.6,0l-1.1-0.4l-0.5-0.3l-0.1,0.7l-0.3,1.3l0.1,0.6l0.2,0.7l0.3,1
		v0.3l0.1,0.2l0.7,1.5l0.7,1.2l0.9,1.3l0.1,0.6l-0.1,0.6l0.3,0l0.2-0.3l0,0.3l0.1,0.2l0.8,0.8l0.1,0.2l-0.3,0.7l-0.2-0.6l-0.3-0.5
		l-0.9-0.7l0.2,1.5l0.2,0.6l1.1,2.6l0.1,0.2l0.2,0.1l0.2,0.2l0.3,0.5l0.6,1.1l0.3,0.3l0.5-0.1l0.7,0.2l0.2-0.1l0.2,0.1l0.1,0.3h-0.6
		l-0.6,0.1l-0.1,0.2l0.2,0.2l0.1,0.7l0.7-0.2l1.1,0.1l0.7-0.1l0.7,0.6l0.7,0.1l0.2-0.1l0.4-0.7l0.2-0.9l0.2-0.3l0.2-0.3l-0.4-0.4
		l0-0.2l0.1-0.2l0.9,0.7l0.3-0.3l0.1-0.6v-0.4l0.1-0.3l0.2-0.1l0.1-0.3l0-0.3l-0.2-0.6l0-0.3l0.5,0.7l0.2,0.9l0.4-0.2l0.1-0.1
		l-0.1-0.6l0.2-0.2l0.6,0.2l0.5,0.4l0,0.2l0,0.2l-0.1,0.2l-0.4-0.2l-0.2,0.3l0.2,0.7l0.4,0.6l0.3-0.2l0.5-0.1l0.2-0.2l-0.1-1.3
		l-0.2-1l0-1l0.1-0.6l0.2-0.4l0.2-0.5l0-0.6l0.1-0.6l0.2-0.6l0.3-0.4l0.1-0.1l-0.1-0.1l0.1-0.4l0.2-0.3l0.1,0.3l-0.2,0.1l-0.1,0.2
		l0.3,0.2l0.1,0.2l0,0.2l0,0.3l0.1,0.2l0.2,0.1l0.1-0.3l-0.1-0.4L295.6,394.2z M321.3,311l-0.6-1.1l-0.1-0.8l-0.2-0.7l-0.9-2
		l-0.4-1.2l0.2-1.2l-0.4-3.7l0.4-1.9l-0.2-0.2l-0.5-0.3l-0.2-0.3l-0.3-0.7l0-1.4l-0.6-0.9l-0.7-0.4l-0.5-0.7l-0.3-0.6l0-0.3
		l-0.2-0.5l-0.5-0.4l-0.3-0.2l-0.8-0.5l-0.4-0.6l-0.8-1.6l-0.3-0.4l-0.7-0.5l-0.6,0l-0.4-0.1l-1.3-1l-0.4-0.2l-0.3-0.5l-0.5-0.5
		l-0.3-0.4l-0.4-0.4l-0.3-1.5v-1.4l-0.1-1.7l-0.5-0.8l-0.2-0.3l-0.3,0.1l0,0.5l0.1,0.4l-0.2,0l-0.7-0.5l-0.8-0.5l-0.5-0.6l-0.3-0.5
		l-0.3,0l-0.2,0.1l-0.2,0.6l0.3,1.1l-0.2,0.2l-0.3-0.3l-0.5-0.6l-0.2,0.2l-0.3,0.1l-0.3-0.6l-0.2-0.4l-0.3-1.2l-0.3-1.4l0-1
		l-0.6-0.5l-0.2-0.9l-0.2-0.3l-0.2-0.6l-0.7-0.9l-0.7-0.6l-0.6-0.6l-0.5-0.8l0.2-0.6l0.4,0.1l0.4-0.1l-0.3-0.6l-0.3-0.4l-0.8-0.8
		l-0.4-0.2l-0.8-0.1l-0.9-0.7l-0.5-0.3l-0.4-0.1l-0.4-0.1l-0.3-0.4l-0.5-0.1l-0.8-0.8l-0.4-0.8l-0.2-0.3l-0.3-0.2l-0.4,0.1l-0.3,0.1
		l-0.7-0.1l-0.2-0.3l-0.4-0.4l-0.9-0.1l-0.7-0.2l-0.5-0.2l-0.5-0.3l-0.5-0.5l-0.4-0.7l0.1-0.9l0.1-0.6l-0.5-0.2l-0.9-1.2l-0.1-0.5
		l0.2-1l0.3-1.7l-0.4-1.3l-0.7-1.6l0.1-0.8l-0.4,0l-0.4-0.2l-0.6-0.8l-0.4-0.5l-0.3-0.5l-0.3-0.6l0.1-0.5l0.1-0.3l0-0.9l-0.4-0.9
		l-0.1-0.9l-0.4-1.1l0.1-0.8l-0.1-0.6l-0.1-0.5l0.1-0.3l0.1-0.4l-0.5-0.4l-0.6-0.3l-0.7-0.6l-1.3-0.9l-0.3-0.7l-0.6-0.6l-0.7,0.2
		l-0.5,0.1l-0.5,0.5l-0.7,0.3l-0.7-0.3l-0.3-0.3l-0.2-0.9l-0.3-1l-0.3-0.5L272,235l0.2-1.5l-0.3-0.7l-0.1-1l-0.3-1.2l-0.3-0.6l0-0.5
		l-0.5-0.7l-0.2-0.5l-0.3-0.2l-0.4-0.3l-0.1-0.4l0-0.3l0.2-0.5l0.1-0.6l-0.6-0.2l-0.4,0l-0.3-0.2l-0.3-0.3l-0.1-0.9l0-1l-0.1-0.6
		l-0.2-0.5l-0.1-0.5l-0.3-0.5l-0.8-0.7l0.1-0.3l0.2-0.3l-0.3-0.2h-0.4l-0.2,0.5l-0.4,0.4l-0.8,0.3l-0.1,1.6l-0.5,1.8l-0.4,1.3
		l0.1,0.4l0,0.4l-0.2-0.2l-0.2-0.2l-0.3,0.5l-0.6,1.3l-0.1,0.7l0.3,0.2l0.2,0.2l0.3,0.1l0.1,0.2l0.1,0.3l0.2,0.3l-0.1,0.3l-0.2-0.1
		h-0.5l-0.2,0.3l-0.6,0.5l0.2,1.6l-0.3,0.8l-0.3,0.6l-0.3,1.2l0,0.6l0.3,0.5l0.3,0.7l-0.2,0.9l-0.2,0.7l0.4,1.9l0.1,1l-0.2,0.7
		l-0.6,2.1l-0.3,1.5l0.1,0.8l-0.3,0.8l-0.3,1.2l-0.3,0.9l-1.2,1.9l-0.2,0.9l-0.4,1.1l-0.9,0.7l-0.7,0.4l-1.5,0.4l-0.9,0l-0.4-0.2
		l-0.2-0.2l-1-0.4l-1.2-0.8l-0.9-0.3l-0.5-0.8l-0.1-0.3l-0.2-0.4l-0.5-0.6l-0.9-0.2l-1-0.4l-0.6,0.1L246,250l-0.9-0.5l-0.8-0.7
		l-1-1.2l-0.9-0.3l-1.1-0.5l-0.6-0.4l-0.4-0.2l-0.4-0.3l-0.4,0.1l-0.7,0l-0.4-0.3l-0.1-0.2l0.1-0.2l0-0.3l-0.1-0.1h-0.2l-0.1,0.1
		l-0.2,0.1l-0.6-0.3l-0.8-0.4l-0.2-0.4l-0.3-0.5l-1.2-0.7l-0.7-0.6l-1.5-0.8l-0.4-0.4l-0.1-0.3l-0.1-0.5l0.3-0.5l0.3-0.4l1-1.5
		l0.3-0.3l0.4-0.4l0.3-1.1l0.2-0.6l-0.3-0.9l0-1.6l1.2-0.6l0.3-0.1l0.3-0.1l0.3,0.2l0.2,0.3l0.2-0.1l0.6-1.1l-0.1-0.5l-0.3-0.4
		l0.1-0.2l2-2.2l-0.2-0.5l-0.3-0.1l-0.6,0l-0.5-0.5l-0.3-0.9l-0.5,0l-0.9,0.9l-0.1,0.2l0.2,0.1l0.2,0.5l-0.3,0.6h-0.3l-0.5-0.1
		l-0.2-0.5l-0.1-0.7l-0.3-0.2l-0.4,0.1l-0.3,0.2l-0.2,0.1l-0.2-0.2l0-0.3l0.5-0.5l0.4-0.3l0-0.1l-0.3-0.1l0.1-0.2l0.4-0.4l-0.2,0
		l-0.5,0.4l-0.5,0.2l-0.7,0.5l-1,0.3l-0.7,0.5l-0.9-0.1l-0.9-0.5l-0.2-0.2l-0.4-0.3l-0.9,0.4l-0.6,0l-0.3-0.1l-0.6-0.1l-0.5-0.3
		l-1.2-0.5l-1.2-0.1l-0.6,0l-0.4-0.3l-0.4-0.2l-0.8-0.1l-0.3-0.4l-0.4-0.8l-0.3-0.2l-0.5-0.1l-0.5,0.4l-0.3,0.2l-0.6-0.7l-1.1-0.7
		l-0.3-0.1l-0.2,0.2l-0.1,0.3l-0.2,0l-0.2-0.2l-0.4-0.4l-0.3-0.1l-0.7,0.5l0.1,0.2l0.6,0.2l0.6,0.6l0.3,0.1l0.7-0.2l1,0.1l1,0.8
		l-0.1,0.4l-0.1,0.5l0,0.6l0,0.4l0.4,0.4l-0.2,0l-0.5-0.1l-0.4,0.1l-0.3,0.2l-0.2,0.6l-0.2-0.3l-0.6-0.3l-0.3,0.2l-0.6,0.3l-0.5-0.1
		l-0.3-0.1l-0.8,0.2h-1.4l-0.5-0.3l-0.1-0.6l-0.1-0.1l-0.1,0.3l-0.2,0.3l-0.9,0.1l-0.1,0.1l0.1,0.3l0,0.4l-0.3,0l-0.4,0.1l0.1,0.4
		l0.1,0.3l-0.2,0.2l-0.4-0.3l-0.2-0.3l-0.3-0.1l-0.2,0.1l-0.1,0.3l0,0.8l-0.2,0.1l-0.6,0l-0.3,0.1l-0.4,1l-0.7,0.4l-0.1,0.5
		l-0.1,0.4l0.6,0.8l-0.3,0.4l-0.3,0.3l-0.3,0.1l-0.7,0.1l-0.5,0.3l-0.2,0.4l0,0.4l-0.1,0.5l-0.2,0.5l0,0.3l-0.4,0.3l-0.8,0.9
		l-0.4,0.9l0.5,0.5l0.6,0.3l0.4,0v0.1l-0.5,0.4l0.3,0.4l0.4,0.3l0.3,0.1l0.2,0.1l-0.4,0.1l-0.6,0l-0.1,0.4l0.1,0.4l0.1,0.4l-0.1,0.3
		l-0.2-0.2l-0.1-0.3l-0.5-0.6l-0.4-0.2l-0.6-0.1l-0.2,0.2l0,0.9l-0.1,0.4l-0.2-0.2l-0.1-0.6l-0.5-0.5l-2.1-0.5l-0.3,0l-0.5,0.1
		l-0.3,0.2l0,0.2l-0.2,0.2l-0.4,0.2l-0.3,0.3l-0.2,0.2l0,0.3l0.3,0.6l0.2,0.2l0,0.3l-0.3-0.3l-0.2-0.1l-0.2,0.4L196,243l0.1-1.2
		l0.2-0.8l0.2-0.5l0.2-0.4l-0.1-0.2l-1.4-1.1l-0.6-0.9l-0.4-0.5l-0.7-0.5l-0.4-0.3l-0.8-0.5l-0.9-0.3l-0.5-0.5l-0.5-0.2l-0.6,0.2
		l-0.1,0.4l0.1,0.4l-0.5,0.7l-0.5,0.4l-0.4-0.4l-0.4-0.3l-0.4,0.2l-0.1,0.4l-0.2,0.1l-0.1-0.2l-0.2-0.6l-0.3-0.2l-0.3,0.1l0.1,0.4
		l0.2,0.2l-0.1,0.3l-0.2,0.2l-0.1,0.3l-0.1,0.4l0,0.6l-0.4,0.1l-0.3,0.5l-0.2-0.1l-0.1-0.3l-0.1-0.3l-0.4-0.1l-0.1,0.3l-0.1,0.1
		l-0.1,0l0.1-0.2v-0.5l0.1-0.5l-0.4-0.2l-0.2,0.1v0.4l-0.1,0.6l-0.4,0.1l-0.3,0.3h-0.5l-0.2,0.1l-0.1,0.3l-0.4,0.3v0.4l0.3,0.4
		l0,0.3l0.7,0.4l0,0.4l-0.1,0.2l-0.3-0.1l-0.6-0.3l-0.6-0.1l-0.2-0.1l-0.1,0.1v0.2l-0.2,0.2l-0.3,0l-0.4,0.3l0.3,0.4l-0.1,0.2
		l0.1,0.2l0.6,0l0.2-0.1l0,0.3l-0.1,0.3l-0.2,0.1l-0.2-0.3l-1.1-0.6l-0.3-0.1l-0.1,0.2l0.1,0.2l-0.2,0.3l-0.4,0.4l-0.3-0.1l-0.3,0.1
		l-0.2,0.7l-0.1,0.7l0.4,0.5l0.2,0.6l0.5-0.8l0.2-0.1v0.3l-0.2,0.3l-0.1,0.4l0,0.5l-0.3,0l-0.4-0.1l-0.1,0.2l-0.1,0.3l0.1,0.5
		l0.2,0.2l0.6,0l0.5,0l0.4,0.2l0.1,0.2l-0.4-0.1l-0.8,0.1l-0.4-0.1l-0.8,0l-0.6-0.3l-0.3-0.3l-0.4-0.1l-0.4,0.1l-0.2,0.4l-0.3,0.1
		l-0.6-1l-0.4-0.1l-0.2,0.2l0.2,0.6l-0.1,0.4l-0.2,0.3l-0.3,0l-0.2,0.1l0.1,0.3l0.4,0.6l0.4,0.3l0.3,0.4l0.2,0.3l0.4,0l0.1,0.3
		l-0.2,0.4v0.6l-0.2,0l-0.2-0.1l-0.4-0.4l-0.2-0.1l-0.1,0.1l0,0.3l0.1,0.7l-0.2,1l0.1,0.3l0,0.2l-0.2-0.2l-0.2-0.4L173,253l-0.6-1.3
		l-0.6-0.9l-0.3-0.8l-0.5-1.4l-0.3,0l-0.3,0.6L170,250l-0.2,0.4l-0.6,0.4l-0.4,0.4l-0.4,0.1l-0.5,0.5l-0.3,0.4l-0.5,0.9l-0.1,0.6
		l0,0.6l0.2,0.9l0.2,1.3l0.3,0.1l0.3,0.2l-0.1,0.4l-0.4,0.2l-1.3,1.2l-0.8,0.4l-0.2,0.3l-0.3,0.6l-0.5,0.8l-0.2,0.5l-0.5,1l-0.8,1.1
		l-0.8,0.8l-0.9,0.6l-0.6,0.3l-2.2,0.9l-1.2,0.3l-2.1,0.3l-0.9,0.4l-1.1-0.1l-1.2-0.1l-1.7,1.4l-1.4,0.3l-1.3,0.2l-0.5,0.2l-1.3,0.8
		l-0.7,0.4l-1.4,0.4l-0.6,0l-0.8-0.4l-0.7,0.1l-0.8-0.1l-0.6,0l-0.5,0.3l-2.9,1.7l-0.6,0.5l-0.6,0.7l-0.9,0.6l-0.7,0.7l-1.4,0.7
		l-1.5,0.6l-0.7,0.5l-0.5,0.6l-0.9,1.7l-0.2,0.4l-0.4,0.4l-0.5,0.2l-0.3,0.1l0.1-0.8l-0.3-0.8l0.2-1.4l-0.1-0.4l-0.5,0.3l-0.3,0.3
		l-0.8,2.1l-0.5,1.6l0.4,0.9l0.1,0.5v0.6l-0.1,0.8l0,0.5l-0.1,0.7l-1,1.7l-0.3,0.7l-0.3,1.4l0,0.6l0,1l0.4,0.9l0.3,0.5l0.5,1.5
		l0.6,1l1,2l1.1,1.7l0.1,0.6l-0.1,0.9l0.1,0.9l-0.2,0.3l-0.4,0.3l-0.5-0.4l-0.2-0.3l-0.3-1.3l-0.1-0.1l-0.2,0.5l-0.2,0.2l-0.2-0.2
		l-0.2-0.2l0-0.2l0.1-0.3l0.1-0.9l-0.5-0.5l-0.4-0.6l-0.4-0.1l-0.3,0.3v0.3l0.6,1l0.4,1.1l0.6,0.7l0.3,0.2l0.4,0.4l-0.1,0.9
		l-0.3,0.3l-0.2,0.2l-0.8-0.2l-0.2-0.7l-0.6-1.3l-0.2-0.5l-0.2-0.1l-0.1,0.2l0,0.5l-0.1,0.2l-0.1,0l-0.2-0.2l-0.2-0.1l-0.1,0
		l0.2,0.3l0.5,1l1.9,2.3l1.6,2.7l0.3,1.1l0.2,2.4l0.2,0.6l0.9,1.2l0.9,1.4l0.3,0.7v0.6l0.2,0.6l1.1,1.5l0.5,1.6l0.1,0.6l-0.1,1
		l0.1,1.8l0.1,1l0.4,1.9l0.5,1.4l0.6,0.9l0.8,1.9l1.2,2.2l0.2,1.1l-0.1,3l-0.1,1l-0.3,0.2l-0.2,0.4l0.3,1.9l0.1,1.1l-0.4,1l-0.4,0.9
		l-0.8,0.6l-0.9,0l-0.4-0.4l-0.5-0.4l-0.1,1.7l0,1.4l0.2,0.6l0,0.6l0.6,0.5l0.3-0.2l0.4,0l1.4,0.7l0.8,0.6l1.3,1.6l1.1,0.4l1.5,0.7
		l1.7,0.2l1.4,0l2.1,0.4l0.5-0.1l0.9-0.1l0.7-0.2l0.6-0.2l1.9-1.5l1.8-1.5l0.9-0.1l0.8,0l1-0.5l0.9-1.6l0.5-0.3l0.6-0.4l1.7-0.2
		l1,0.2l0.5-0.3l1.4-0.3l2.9-0.3l1.6,0.2l1.1,0l0.6,0.1l0.4,0.7l3.1-0.6l0.9,0l0.5,0.1l0.7,0.5l0.8-0.5l0.7,0.1l0.7-0.5l1.1-1.4
		l0.5-0.9l0.8-1.9l0.6-0.7l0.6-0.3l0.8-0.1l1.2-0.3l2.5-1.6l1-0.3l0.5-0.3l1.7-1.2l1.1-0.2l3.1,0.3l1.5-0.1l1.2-0.2l1.7-0.6l1.9-0.5
		l2.3-1l2-1.1l1.2-0.2l1.9-0.2l2.7-0.3l3.2,0.1l0.8-0.2l0.4-0.2l0.6-0.2l0.7,0.1l0.5,0.2l1.6,0.8l2.4,1.8l0.5,0.1l1.6-0.4l0.5,0
		l2.2,1.3l0.9,0l0.7,0l0.6,0.1l0.6,0.3l0.7,0.8l1.5,0.8l0.1,0.6l-0.1,0.4l-0.3,0l-0.3,0.1l0.4,1.3l0.6,1.1l1.5,0.1l0.5,0.4l0.3,0.4
		l0.3,0.7l0.2,1.1l0.8,0.9l0.7,0.8l0.2,0.3l0.3,1.1l0.1,0.3l0.3,1.1l0.4,1.2l-0.1,0.1l-0.2,0l-0.4-0.3l-0.4-0.3l-0.2,0.1l-0.2,0.2
		l0,0.3l0.3-0.1l0.2,0l0.5,0.4l0.4,0.4l0.3,0.3l0.8,1.1l0.3-0.2l0.4-0.2l0.6,0.6l0.2,0.1l0.1-0.2l-0.2-1l-0.2-0.3l-0.1-0.4l0.3-0.3
		l0.1-0.3l0.7-0.8l1.5-2.4l0.5-0.3l0.5-0.5l0.7-0.4l0.8-0.5l0.5-0.2l0.5-0.1l0.5-0.4l0.6-1.2l0.4-1.4l0.5-0.6l0.7-0.6l0.5-0.9
		l-0.1-0.7v-0.7l0.4,0.6l0.2,0.6l0.4,1.9l-0.3,0.4l-0.3,0.2l0.1,0.7l0.2,0.9l0.1,0.7l-0.7,0.7l-0.6,0.9l-0.8,1.8l-0.1,0.5l-0.1,0.8
		l0.1,0.7l0.1,0.6l-0.2,1l-0.3,0.9l-0.4,0l-0.3,0l-0.6,0.1l-0.6-0.1l-0.6,1.9l0.4,0.1l0.3-0.1h0.6l0.6-0.3l0.9-0.3l0.5,0.1l0.6,0
		l0.9-2.5l0.2-1.6l0.5-0.7l0.1-0.5l0.2-0.5l0.5,0.8l0.4,0.8l0.8,1.3l0.3,0.6l0.1,1.6l-0.5,1.8l-0.3,0.5l-0.4,0.5l-0.3,0.8l1,0.2
		l0.6,0l1-0.5l0.2-0.1l0.5,0l0.2-0.3l0.5-0.3l0.4-0.3l0.5-0.3l0.4,0.2l0.1,0.1l0.1,0.2l-0.2,0.3l0,0.8l-0.3-0.1l-0.3-0.5L250,353
		l-0.2,0.3l-0.5-0.1l0.1,0.2l0.3,0.4l1,0.8l1.1,1.1l0.4,0.5l0.9,1.7l0.6,1.8l-0.1,0.5l0,1l-0.2,1l0,0.5l0.2,0.6l0.4,0.6l1.7,1.8
		l0.9,1.6l1.2,0.8l1.9,0.3l1,0.6l1,1.2l0.3,0.1l0.5,0.1l0.6-0.7l1,0.1l1.3,0.7l0.8-0.2l0.5,0.1l0.8,0.4l1.1,0.8l1.2,0.4l0.7,0.6
		l0.5,0.1l1,0.4l0.7-0.3l0.6-0.4l1.4-1.5l1.1-0.7l0.6-0.3l0.5-0.1l0.6-0.5l-0.4-0.3l-0.3,0.1l-0.6-0.2l0.3-0.2l0.4-0.2l1.7-1.1
		l0.5,0.3l0.3,0.4l0.3,0.5l-0.3,0.7l-0.2,0.3l-0.5,0.5l-0.6,0l-0.3,0l0.6,0.6l0.5,0.4l1.1-0.7l0.3-0.6l0.2-0.3l0.4-0.1l0.5,0.1
		l0.2,0.4l0.1,0.5l-0.4,0.1l-0.2,0.4l-0.1,0.4l0.7,0.5l0.3,0.3h0.4l0.5,0.1l0.4,0.7l0.3,0.8l0.4-0.2l0.2-0.2l0.4,0.2l0.5,0.6
		l0.4,0.7l0,0.3l0.3,0.1l0.3-0.2l0.1-0.3l0-0.5l-0.1-0.9l-0.2-0.1l-0.4,0.5l-0.2-0.3l-0.3-0.4v-0.3l0.4-0.2l0.3,0.1h0.4l2.1-0.3
		l2.6-2.8l1.2-1l1.2-0.8l1.2-0.5l0.6-0.2l3.3-0.3l1.7,0.1l0.9-0.2l0.4-0.3l0.7-0.7l0.5-0.4l0.6-0.1l0.1-0.5V364l0.1-0.6l-0.2-1.1
		l0.1-1.4l0.1-0.8l0.4-1l0.2-1.1l0.2-1.5l0.1-0.9l0.2-0.8l0.5-0.9l0.4-0.6l0.9-2.2l0.3-0.2h0.3l0.1-0.1l0-0.1l-0.1-0.1l-0.1-0.3
		l0.1-0.2l0.3-0.2l0.1,0.1l0.1-0.1l0-0.1l-0.1-0.6l0.2-0.9l0.2-1.5l0.3-0.7l0.2-0.5l0.6-0.8l0.7-0.8l-0.2-0.1l-0.3-0.1l0.2-0.2
		l0.2-0.1l0.2,0.1l0.2-0.3l0-0.5l0.2-0.8l-0.2-0.7l0.3-0.2l0.4-0.1l0.2-0.7l0.1-0.3l0.2-0.3l0.4-0.6l0.3-0.6l0.7-1.2l0.7-0.5l1-0.4
		l0.1-0.2l-0.3-0.1l0-0.1h0.4l0.2-0.4l0.4-0.3l0.7-0.7l0.2-0.6l0.1-0.5l0.1-1.1l1.1-1.5l0.8-2l0.2-1.3l0.2-0.7l0.1-1l-0.1-1.1l0-0.9
		l0.8-2.3l0.2-0.9l0.2-0.6l0.4-2.2v-1.2l0.6-1.3l0.7-1.1l0.1-1l-0.2-0.8L321.3,311z M206.3,225.4l0.9-0.3l0.9,0.3l0.5-0.1l0-0.2
		l-0.1-0.2l-0.2-0.2l-0.4-0.1l-0.1-0.4l-0.2-0.4l0-0.5l-0.2-0.4h-0.2l-0.2,0.1l-0.5,0.6l0.2,0.3l0.1,0.6l-0.3,0.2l-0.3-0.1l-0.1,0.5
		l0.2,0.2L206.3,225.4z M123,298.4v-0.4l-0.2-0.4l-0.6-1.6l-0.2,0.1l-0.2,0.2l0.3,1.2l0.9,1.7l0.1-0.2l-0.2-0.4L123,298.4z
		 M134.1,271.4l0.3-0.4l0.1-0.4l-0.1-0.2l-0.4,0.4l-0.2,0.3l0.1,0.2L134.1,271.4z M178.8,243.5l0.2,0l0.2-0.1l0-0.2l-0.2-0.2
		l-0.1-0.2l-0.2,0l-0.1,0.1l-0.1,0.2l0.2,0.2L178.8,243.5z M182.1,239.2l0-0.1l0-0.4l-0.2-0.1l-0.2,0.2l-0.1,0.5l0.2,0.2
		L182.1,239.2z M290.7,400.6l-0.1,0.2l0,0.2l-0.1,0.1l0.2,0.1l0.1,0.3l0.1,0.1h0.3l-0.2-0.8L290.7,400.6z M290.6,402l-0.1,0
		l-0.2,0.3l-0.1,0.3l-0.1,0.1l-0.1,0.2l-0.1,0.2l-0.3-0.1v0.1l0.2,0.5l0.4-0.1l0.4,0.1l0.2-0.7l-0.1-0.3L290.6,402z M294.6,397.5
		l-0.3-0.2l-0.2,0.3l0,0.2v0.3l0.1,0l0.3-0.1l0-0.2l0.3-0.2L294.6,397.5z M244.5,354.1l-0.5,0.2l-1.2-0.1v-0.1l0.2-0.4l-0.2-0.2
		l-0.3-0.1l-1-0.1l-1.2,0.4l-2.2,0.5l-0.3,0.4l-0.2,0.5l0.2,0.3l0.8,0.6l0.8,0.1l0.6-0.1l0.6,0.1l0.3-0.3l0.8,0.2l0.3,0.3l0.7-0.3
		l0.2-0.5l0.2-0.2l0.8-0.2l0.9,0.2l0.3,0l0.3-0.3l-0.4-0.6L244.5,354.1z M274.9,379.2l-0.1-0.9l-0.4-0.4l-0.3,0l-0.1,0.5l-0.3,0.3
		l-0.1,0.2l0,0.5l-0.1,0.5l0.2,0.5l-0.1,0.5l0.1,0.4l0.1,0l0.5-0.2l0.4-0.4l0.1-0.4l-0.2-0.5L274.9,379.2z M174.3,228.5L174.3,228.5
		l-0.1-0.1v0.1H174.3z"/>
	<path id="BN" d="M132.3,143.5l-0.4,0.2l-0.4,0.3l-0.4,0.2l-0.2,0.2l0.1,0.2l0.1,0.6l0.1,0.4l0.1,0.2l0.1,0.2l-0.1,0.2l-0.2,0.4
		l0.1,0.1l-0.2,0.5l-0.2,0.3l-0.3,0.3l-0.2,0.1l-0.2-0.1l-0.3-0.3l-0.3-0.4l-0.1-0.3l-0.5,0l-0.2-0.2l0-0.2l-0.1-0.3l-0.2-0.3
		l-0.3-0.2l-0.4-0.2l-0.2-0.1h0.6l0.6-0.1l0.6-0.3l0.6-0.3l0.5-0.4l0.5-0.4l0.5-0.3l0.8-0.4l0.3,0v0.3L132.3,143.5z M132.3,143.5
		h0.6l0.1,0.2l0.3,0.6l0.2,0.6l0.1,0.9l0.2,0.4l0,0.1l-0.1,0.1l-0.2,0l-0.4-0.1l-0.3-0.1l-0.3-0.9l-0.1-0.5l0-0.6L132.3,143.5z"/>
	<path id="CC" d="M43.1,227.2L43.1,227.2l0.1,0l0,0L43.1,227.2L43.1,227.2l-0.1-0.2v-0.1h0v0.1v0l0,0.1L43.1,227.2L43.1,227.2z
		 M43.5,227.3L43.5,227.3l-0.1,0l0,0v0L43.5,227.3L43.5,227.3L43.5,227.3l0-0.1L43.5,227.3L43.5,227.3L43.5,227.3z"/>
	<path id="CX" d="M86.7,218.8l-0.1,0.3l-0.3-0.2l-0.3-0.1l0.1-0.3l0.2,0h0.1l0.2-0.1L86.7,218.8z"/>
	<path id="FJ" d="M436.7,228.8l-0.2,0.1l-0.3,0l-0.1-0.1l0.1,0l0.2-0.1l0.2,0L436.7,228.8L436.7,228.8z M451,247.2l-0.2,0.1v-0.1v0
		l0.2-0.1h0.1L451,247.2z M451.2,249l-0.3,0.2v-0.3l0.3-0.2l0.2-0.1l-0.1,0.2L451.2,249z M455.9,252.9l-0.1,0.2l-0.1-0.1l0.1-0.3
		l0-0.1l-0.2-0.2l0-0.1l0.1-0.1l0.3,0.2l0.2,0.1l0,0.1l-0.1,0.1L455.9,252.9z M459.4,256.4l-0.3,0.1l-0.2-0.2l0.2-0.2l0.2,0.1
		l0.1,0.2L459.4,256.4z M455.8,256.5l-0.1,0.1l-0.1,0l-0.1-0.1l-0.1-0.1l0.2-0.1l0.2,0.1L455.8,256.5z M456.9,257.8L456.9,257.8
		l-0.3-0.1l-0.1-0.1l0.3-0.1l0.1,0L456.9,257.8z M451.8,261.4l0,0.2h-0.1l-0.1-0.1l-0.1,0l0,0.1l0,0.1l0,0.1l-0.1,0l0-0.1l0-0.1
		l0-0.1l0.1-0.1L451.8,261.4z M458,262.6L458,262.6h-0.2l-0.1-0.1l0-0.1l0.1-0.1l0.1-0.1l0.1,0l0,0l-0.1,0l0,0.1l0.1,0.1L458,262.6
		L458,262.6z M457.1,270.4L457.1,270.4L457.1,270.4L457.1,270.4L457.1,270.4L457.1,270.4l-0.1-0.1h0L457.1,270.4L457.1,270.4
		L457.1,270.4z M450.8,247.3l-0.7,0.7l-0.3,0.3l-0.2,0.4l-0.6,0.4l-0.3,0.6l0,0.6l0.6-0.6l0.7-0.5l0.2-0.1h0.2l0,0.2l-0.1,0.2
		l-0.1,0.4l0.2,0.4l-0.5,0l-0.5,0l-0.6,0.2l-0.6,0.1H448l-0.2-0.1l-0.1-0.1l-0.1-0.3l-0.1,0l-0.5,0l-0.7,0.5L446,251l-0.3,0
		l-0.3-0.1l-0.4,0.3l-0.5,0.1l-0.2-0.3l-0.1-0.3l-0.2-0.3l-0.5-0.1l0.1-0.3l0.1-0.1l0.1-0.2l0.1-0.2l0.2,0.1l0.3,0.1l0.3-0.2l0.3,0
		l0.3-0.5l0.5-0.3l0.6-0.2l0.6-0.2l0.3,0l0.3-0.1l0.6-0.4l0.4-0.2l0.4-0.1l0.4-0.1l0.4,0.1l0.3,0L450.8,247.3L450.8,247.3z
		 M450.8,249.1L450.8,249.1l-0.1-0.1l0.1-0.2L450.8,249.1L450.8,249.1z M451.5,249.9l-0.2,0.1l-0.5,0.4l0,0l-0.3,0.5l-0.2,0.5
		l0.1,0.2l0.4-0.2l0.1-0.2l0.5-0.4l0.2-0.4L451.5,249.9z M437.3,252.2l-0.2,0.1l0.1-0.4l0.1-0.1l0.1,0l0.1,0l-0.1,0.3L437.3,252.2z
		 M448,253.4l-0.2,0.1l-0.1-0.7h0.2l0.1,0.1l0.1,0.2L448,253.4z M442.4,253.4v0.2l0.1,0.1l0.1,0l0.3,0.4l0.6,0.4l0.3,0.3l0,0.2
		l-0.1,0.3l0.1,0.5l0.1,0.5l0.2,0.8l-0.3,0.1l-0.5,0l-0.1,0.1l-0.2-0.1l-0.5,0.1l-0.4,0.2l-0.4,0.3h-0.5l-0.5,0.1l-0.5-0.1l-0.4-0.2
		l-0.7-0.2l-0.9-0.2l-0.4-0.1l-0.3-0.2l-0.3-0.6l0-0.3l0.1-0.3l0.3-0.1l0.2-0.1l0-0.2l0.1-0.1l0.1,0l0.1-0.1l-0.1-0.3l0-0.3l0.5-0.5
		l0.6-0.4l1-0.4l0.6,0l0.9-0.3l0.3-0.1l0.3,0.1L442.4,253.4z M445.1,255.2l-0.2,0.1l-0.1-0.3l0.2-0.3l0.2,0l0.1,0.3L445.1,255.2z
		 M447.6,257.1L447.6,257.1l-0.5-0.4l0-0.2l0.1-0.1l0.2-0.1l0.2,0.2l0.1,0.4L447.6,257.1z M443.4,261.6v0.2l-0.6,0.1l-0.2-0.2
		l-0.1,0l-0.4,0.3l-0.1,0.1l0,0.1l-0.1,0.1l-0.7,0.2l-0.3-0.2l0.2-0.1l0.2-0.2l0.3,0l0.3-0.2l0.3-0.3l0.4-0.1l0.3-0.1l0.4,0.1
		L443.4,261.6z M424.5,275.7L424.5,275.7l-0.2,0l0-0.1l0.1-0.1l0.1,0.1L424.5,275.7z"/>
	<path id="FM" d="M245.6,121l-0.4,0.4l0-0.1l0.1-0.2l0.2-0.3l0.1-0.2l0.2-0.1l0.1,0.2l-0.2,0.2L245.6,121z M313,131.1L313,131.1
		h-0.1l0-0.1l0,0h0.1l0.1,0l0,0L313,131.1z M311.8,131.6L311.8,131.6l-0.3,0.1l0,0l0,0l0.1,0l0-0.1l-0.1,0l0.1-0.1h0.1l0.1,0.1
		V131.6L311.8,131.6z M344.5,134.2l-0.3,0.1l-0.4-0.1l-0.1-0.4l-0.2-0.1l0-0.2l0.2-0.2l0.5,0.1l0.2,0.3l-0.1,0.2L344.5,134.2z
		 M367.4,141.5l0.1,0.2l-0.3-0.1l0-0.1l0.2-0.1L367.4,141.5z"/>
	<path id="GU" d="M278,102.3h-0.2l-0.2-0.2l-0.1-0.1v-0.6l0.7-0.5l0.2-0.5l0.2,0l0.2,0.1l0.1,0.2l-0.8,0.8L278,102.3z"/>
	<path id="HM" d="M-70.3,474.6l-0.6,0.4h-0.6l-0.3-0.3l-0.4-0.9l-0.3-0.1l-0.1-0.3l0-0.1l0.3-0.1l0.4,0.3l1,0.2l0.7,0.5l0.5,0.2
		l-0.2,0.1L-70.3,474.6z"/>
	<path id="ID" d="M171.1,220.9h-0.5l-0.1-0.1l0-0.4l0.1-0.2l1.1-0.3l0.4-0.3l0.6-0.6l0.4-0.2l0.1-0.1l0.1,0l0.1,0.5l0.1,0.3l0,0.1
		l-0.5,0.2l-0.5,0.5l-1,0.3L171.1,220.9z M165.9,219.3l-0.2,0.1l-0.5-0.1l-0.1-0.1l0.5-0.2l0.3-0.3l0.4,0l0.2,0.1l-0.1,0.4
		L165.9,219.3z M173.4,217.9l-0.4,0.2v-0.4l0.3-0.5l0.3-0.2l0.2,0.2l0,0.1l-0.5,0.2L173.4,217.9z M156.7,213.3l0.2,0.2l0.8,0.4
		l0.1,0.2l0.1,0.3l0.2,0.2l0.4,0l0.4-0.1l0.3,0.1l0.3,0.2l0.4,0.4l0.3,0.5l0.4,0.3l0.2,0.4l-0.1,0.3l-0.5,0.5l-0.3,0.1l-0.4,0
		l-0.6,0.3l-0.2-0.2l-0.7-0.1l-0.5-0.2l-0.5-0.4l-0.3-0.4l-0.3-0.4l-0.6-0.2l-1-0.7l-0.6-0.1l-0.3,0.1h-0.3l-1.4-0.3l-0.2-0.2
		l-0.2-0.2l-0.2-0.2l-0.1-0.3l0.2-0.2l0.2-0.2l0.8-0.3l0.5-0.1l0.6,0l0.9-0.1l0.9,0.1l0.3-0.1l0.5-0.3l0.2,0.1L156.7,213.3z
		 M180.9,211.7l0.2,0.1l0.6-0.3l0.1,0.1l0.1,0.1v0.4l-0.2,0.3l-0.6,0l-0.1,0.1v0.2l0.1,0.2l0.1,0.2l0.2,0.3l0.2,0.6l-0.3,0.3
		l-0.2,0.5l-0.6,0.5l-0.6,0.8l-0.5,0.4l-0.5,0.5l-0.4,0.3l-0.5,0.1l-0.7,0.1l-1,0.6l-0.6,0.2l-0.5,0l-0.5-0.2l-0.2-0.2l0.1-0.3
		l0.2-0.2l0.2-0.2l0.1-0.2l-0.6-0.3l-0.1-0.2l0.2-0.6l0.1-0.7l0.2-0.5l0.8-0.8l0.5-0.4l0.3-0.2l0.1,0.2l0.2,0.2l0.1,0l0.1-0.1
		l0.7,0.1l0.2-0.1l0.3-0.3l0.2-0.2l0.1-0.4l0-0.2l0.6-0.2l0.3-0.2l0.3-0.3l0.9-0.5l0.2-0.1l0,0.4L180.9,211.7z M135.1,210.3
		l-0.1,0.2l-0.4-0.3l-0.1-0.1l0.3-0.2l0.1,0l0.3,0.2L135.1,210.3z M171.2,209.2l-0.2,0.3l-0.3-0.1l0.1-0.3l0.1-0.2l0.4-0.2l0.4,0
		l0.2,0.1l0.1,0.1l-0.6,0.1L171.2,209.2z M154,210.2l-0.2,0.1l-0.2-0.1l0.1-0.4l-0.1-0.3l0.2-0.2l0.1-0.4l0.1-0.1l0.1,0.1l0.1,0.1
		l0.1,0h0.2l0.1,0.2v0.2l-0.1,0.2l-0.3,0.2l-0.2,0.2L154,210.2z M172.9,208.3l-0.1,0.2l-1.3,0l0-0.3l0.4-0.3l0.1-0.1l0.4-0.1
		l0.6,0.2L172.9,208.3z M140.2,209.6l-0.6,1l0.2,0.2l0.1,0.2l-1,0.2l-0.4-0.1l-0.2,0l-1-0.2l-0.8-0.2l-0.1-0.2l0.1-0.2l0.2,0.1
		l0.6,0l0.2-0.1v-0.7l-0.1-0.9l0.8-0.7l0.4-0.3l0.5-0.2l1.2,0.4l0.2,0.1l0.2,0.2l0.1,0.2L140.2,209.6z M177.7,208.1l-0.3,0.3
		l-0.2,0.5l-0.2,0.2l-0.4,0.1l-0.2-0.5l-0.4,0l0.2-0.5l0.2-0.2h0.3l0.1,0.2l0.1,0l0.6-0.8h0.1l0.1,0l0.1,0.1L177.7,208.1z
		 M175.9,207.9l-0.7,0.1l-0.4,0.6l-0.3,0l-0.2,0.3l0,0.1l0,0.1l0,0.1l-0.1,0.1l-0.3-0.2l-0.3,0.2l-0.1,0.1l-0.4-0.2l-0.4,0l-0.1,0
		l0.5-0.5l0.6-0.4l0.1-0.2l-0.2,0l-0.1-0.1l0-0.1l0.4-0.1h0.3l0.2,0.1h0.1l0.9-0.5l0.3,0.1l0.2,0.1L175.9,207.9z M249.3,208.4
		l-0.2,0.1l-1.2-0.1l-0.1-0.2l0-0.1l0.3-0.2l0.3-0.3l0.4-0.1h0.2l0.5,0.8L249.3,208.4z M144.7,208.3h-0.1l-0.2-0.1l0.1-0.2l-0.1-0.3
		l0-0.3l0.3-0.2l0.6,0l0,0.2L144.7,208.3z M152.1,207.7h-0.2l-0.1-0.2l0.1-0.2l0.2-0.1h0.1l0.1,0.2l0,0.1l-0.1,0.1L152.1,207.7z
		 M179.1,207.2l0.1,0.3l0.4-0.2l0.4,0l0.8,0l0.6,0.1l0.4,0.1l0,0.6l-0.2,0.1l-3.2,0.5l-0.3-0.1l-0.1-0.1l0.3-0.4l-0.2-0.2l0.2-0.3
		l0.4-0.2L179.1,207.2z M195,207l0.9,0.2l0.5,0l0.1,0.2l-0.5,0.4l-1-0.3l-0.2-0.3L195,207z M170.3,209.5l-0.7,0.2l-0.4,0.2l-0.4,0.2
		l-0.3,0.1l-0.5,0l-0.7,0l-0.5,0.1l-1.3,0.6l-0.5,0.1l-0.4,0.1l-0.1-0.2l-0.2-0.2l-0.4,0l-0.4,0l-0.4,0.5l-0.7-0.1l-0.3,0.1
		l-0.2,0.1l-0.2,0.1l-0.3,0l-1-0.4l-1.1-0.2l-1.1,0.1l-1-0.2l-0.5,0.2l-0.5,0.2l-0.1-0.2l-0.2-0.2l-0.2-0.3v-0.4l0.1-0.3l0.1-0.2
		l0.1-0.2l0-0.3l0.2,0.1l0.2-0.1l0.7-0.3l0.6-0.4l0.6-0.2l0.3-0.1l0.3,0.1l0.3,0l0.3-0.1l0.5,0.3l0.2,0.1l0.7,0l0.6,0.2l0.5,0.3
		l0.8,0.3l0.5,0.4l0.3,0.1l0.3,0l0.2-0.1l0.3-0.2l0.4-0.1h0.3l0.6-0.1l0.2-0.1l0.3-0.1l0.3,0.1l0.2,0.1l1,0.6l0.3,0l0.5-0.1l0.2-0.2
		l0.1-0.3l0.1-0.2l0.2-0.2l0.2-0.1l0.7-0.2l0.5-0.2l0.3-0.4l-0.8-0.2l0.2-0.3l0.3-0.2l0.3,0.1l0.3,0.2l0.1,0.9l-0.2,0.1l-0.2,0.1
		l-0.1,0.2l-0.5,0.3l0.2,0.4l-0.1,0.2L170.3,209.5z M209.9,208.1l-0.4,0.2l0.3-0.4l0.9-0.9l0.3,0.2l0.4,0l-0.6,0.4l-0.7,0.2
		L209.9,208.1z M148,208.1l0.2,0.2l0.2,0l0.5-0.3l0.3-0.1h0.3l0.3,0.1l0.3,0.2l0.1,0.3l0.1,0.1l0.2-0.4l0.2-0.1l0.2-0.1l0.4,0
		l0.3,0.2l0.3,0.6v0.5l0.1,0.2l0.2,0.1l0.1,0.2l-0.1,0.2l-0.1,0.1l-0.3,0.1l-0.2,0l-0.2-0.1l-0.2-0.1l-0.4,0.1l-0.4,0.1l0.1,0.2
		l0.3,0.1l0.1,0.1l0,0.1l-0.1,0l-0.4-0.2l-0.3,0l-1,0.2H149l-0.1-0.2l0-0.5l-0.1-0.1l-0.7,0.7l-0.2,0.2l-0.3,0.1l-0.3,0l-1,0.4
		l-0.3-0.1h-0.3l-1.1,0.4l-0.6,0.1h-0.3l-0.3,0l-0.3,0l-0.2,0.2l-0.5,0.1l-0.5-0.1l-0.5-0.2l-0.4-0.2l-0.1-0.2l0-0.3l0.2-0.4
		l-0.1-0.7l0.1-0.3l0.2-0.3l0.2-0.1l0.3,0l0.5-0.3l0.5-0.4l0.3,0l0.6,0.3l0.4,0l0.6,0l0.3,0.2l0.1,0.4l0.1,0.1l0.2,0.1l0.5,0.6
		l0.4,0l0.4,0.1l0.7-0.4l0.5,0l0.1-0.3l-0.3-0.3l-0.4-0.3l-0.2-0.1l-0.2,0l-0.2,0l-0.8-0.6l-0.2-0.3l-0.1-0.4l0.1-0.3l0.6-0.2
		l0.3-0.1l1,0.2l0.2,0.1l0.3,0.6L148,208.1z M134.3,207.3l0.5,0.3l0.7,0.8l0.1,0.2l-0.2,0.2l-0.5,0.3l-1.1,0.5l-0.2,0.2l-0.2,0.5
		l-0.1,0.2l-0.1,0.1l-0.1,0.1l-0.2,0.1l-0.3-0.1l0.2-0.3V210l-0.2-0.3l-0.2-0.3L132,209l-0.5-0.3l-0.5-0.2l-0.6-0.1l-0.2-0.2
		l-0.3-0.4l-0.1-0.2l-0.1-0.2l0-0.2l0.1,0l0.6,0.1l1,0.3l0.5,0l0.3-0.1l0.8-0.5h0.2l0.7,0.2L134.3,207.3z M204.9,206.3l-0.3,0.5
		l-0.3,0l-0.6-0.6l0-0.4l0.1-0.1l0.2,0l0.8,0.1l0.2,0.3L204.9,206.3z M190,204.9l0.1,0.2v0.1l-0.6,0.1l-0.6,0.3l-0.3,0.3l-0.2,0.4
		l-0.8-0.2l-0.7,0l-0.3-0.1l-0.3,0l-0.4,0.1l-0.6,0.3l-0.1,0l0.1-0.5l0.2-0.3l0.6-0.8l0.5,0.2l0.6,0.1l0.7-0.1l0.5-0.3l0.7-0.2
		l0.6,0.4L190,204.9z M193,204.7l-0.3,0.1l0.1-0.4l0-0.3l0.5,0.1v0.2l-0.1,0.1L193,204.7z M247.5,207.9l-1.2,0.6l-1.5-0.1l-0.5,0
		l-0.9,0.2l-0.2-0.1l0.2-0.6l0.7-1.6l0.9-1.4l0.4-0.4l0.5-0.3l0.5-0.3l1.2-0.3l1.1,0.1l0.2,0.1l0.5,0.5l0.3,0.4l0.1,0.5l-0.5,0.9
		l-0.5,0.9l-0.9,0.7L247.5,207.9z M212.2,206.5L212.2,206.5l-0.7,0h-0.3l0.1-0.4l-0.2-0.3l0.2-0.4V205l0.3-0.1l0-0.3l0.3-0.7
		l0.2-0.2l0.3-0.1l0.3-0.4l0.2-0.1l0.2-0.3l0.3-0.1l0-0.3l0.1-0.1l0.4-0.1l0.3,0.1l0.2,0.3l-0.5,0.3l0.2,0.8l-0.3,0.9l-0.2,0.3
		l-0.4,0.2l-0.1,0.2l-0.5,0.5l-0.1,0.4L212.2,206.5L212.2,206.5z M215.4,202.6l-0.1,0.2l-0.2-0.1l-0.2-0.3l-0.3,0l-0.2-0.1l-0.1-0.1
		l0.8-0.1L215.4,202.6z M129.3,202.3l-0.1,0.2l-0.2-0.1l-0.2-0.3l0.1-0.1l0.1,0l0.2,0L129.3,202.3z M199.2,202.5l-0.2,0.1l-0.4-0.3
		l-0.1-0.1l0.2-0.2l0.2-0.1l0.2,0.1l0.1,0.1l0,0.1L199.2,202.5z M160.4,202.2l-0.5,0l-0.2,0l0-0.5l0.5,0.2l0.2,0L160.4,202.2z
		 M126.5,202.1L126.5,202.1l-0.9,0l-0.5,0.4l-0.4,0.1h-1.3l-0.2-0.1H123l-0.1,0.1l-0.4-0.1l-1.4-0.3L121,202l0.2-0.3l0.5-0.5l1-0.1
		l4.5,0l0.5,0.4l0.1,0.1l-1,0.3L126.5,202.1z M134,201.5l-0.4,0.1l-0.4-0.2l0-0.2l0.1-0.2l0.6-0.1h0.3l0.3,0.2l0.2,0.2l0.1,0.2
		l-0.6,0L134,201.5z M228.6,200.4L228.6,200.4l-0.2-0.1l0-0.1l0.2-0.3l0.2-0.2l0.2,0l-0.1,0.2L228.6,200.4z M84.4,199.8l-0.3,0.1
		l-0.2-0.1l-0.1-0.1l0.3-0.3l0.2-0.1l0.2,0l0.1,0.2L84.4,199.8z M228.8,199.4l-0.3,0.1l-0.1-0.4l0.2-0.1l0.2,0.2L228.8,199.4z
		 M229.3,198.8l-0.1,0v-0.2l0.1-0.2l0.1-0.1h0.2L229.3,198.8z M227.9,198.9l-0.1,0.3l-0.1,0.4l-0.5,0.4l-0.3,0.7l-0.2,0.2l-0.6,0.3
		l-0.5-0.4l-0.2-0.3l0.2-1.5l0.2,0.1l0.2,0l0.1-0.1l-0.3-0.2l-0.1-0.8l0-0.3l0.3-0.1l0.3,0.2l0.4,0.4l0.5,0.3L227.9,198.9z
		 M94.7,196.8l0.5,0.6l0.4,0.3l0.5,0.2l0.5,0l0.5,0.1l0.6,0.2l0.6,0.1l0.3,0l0.3-0.1h0.2l0.2,0.1l0.4,0.5l0.5,0.4l0.1,0.2l0.3,1
		l0.4,0.3l0.5,0.1h0.6l0.6,0l1.3,0.2l0.5,0l0.5-0.2l0.4,0.2l1.2,0.3l0.6,0.1l0.6-0.1l0.6,0l0.3,0.1l0.3,0.1l0.2,0.1h0.3l0.5-0.2
		l0.3-0.5l0.2-0.6l0.2-0.6l0.1-0.3l0.2-0.2l0.2-0.1l0.2-0.1l0.7,0.1l0.1,0.1l0.8,1l0.1,0.1l0.8,0.1l0.2,0l0.5-0.2l0.3,0l0.5,0.2
		l0.2,0.2l0.2,0.2l1.2,0.2l0.5,0.4l0.2,0.1l0.9-0.1l0.6,0l0.5,0.1l0.2,0.6l0.2,0.6l0.1,0.2l0.5,0.2l0.2,0.2l-0.1,0.6l0.1,0.6
		l1.1,0.5l1.2,0.3l1.2,0l1.2-0.1l0.6-0.1l0.8-0.2h0.2l1.5,0.7l0.1,0.1l0.2,0.5v0.5l-0.3,1.3l0,0.3l0,0.3l0.3,0.8l0.2,0.2l0.6,0.4
		l0,0.2l-0.1,0.2l-0.6-0.1l-0.4-0.2l-0.2-0.3l-0.3-0.2l-0.6,0.1l-1.1-0.3l-1.2-0.4l-2.1-0.9H123l-0.6,0.1l-0.6,0.2l-0.6,0.2
		l-0.5,0.1l-0.5-0.1l-1.2-0.2l-1.2-0.1l-3-0.1l-0.8-0.2l-1.4-0.1l-1.1-0.2l-1.1-0.3l-2.8-1.3l-0.9-0.3l-2.8-0.6l-0.4-0.1l-1,0.1
		L102,205h-0.6l-0.8,0.2l-0.3,0.1l-0.3,0.3l-0.6,0l-0.6-0.1l-1.5-0.3l-0.6-0.2l-0.5-0.3l-0.5-0.3l-0.2-0.1l-1.3-0.3l-1-0.1l-2.1-0.2
		l-0.5-0.1l-0.4-0.1l-0.2-0.3l0-0.3l0.2-0.3l0.2-0.3l0.1-0.3l-1.6-0.6l-1.2-0.3l-0.5-0.1h-0.5l-0.6,0.1l-0.6,0l-0.3-0.1l-0.3,0
		l-0.3,0.1l-0.2,0l-0.1-0.3l0.1-0.2l0.3-0.3L85,200l0.1,0.4l0.1,0.1l0.3,0.1l0.1,0L86,200l0.1-0.3l0.2-0.7l0.2,0.1l0.2-0.1L87,199
		l0.4-1.7l0.3-0.5l0.5-0.4l0.2-0.1l0.4,0.2l0.9,0.1l0.5,0.2l0.5,0l0.5,0.1l0.7,0.3l0.3,0l0.3-0.1l0.4-0.3l0.2-0.5l0.6,0.3l0.8,0.1
		L94.7,196.8z M176.5,196.6l-0.1,0.2l-0.2-0.3l-0.2-0.1l0-0.3l0.2,0.1L176.5,196.6z M159.2,198.2L159,199l-0.1-0.3l0-0.8l-0.1-0.4
		l0.1-0.4l0-1.1l0.2-0.5l0.3,0.6l0.1,0.3L159.2,198.2z M120.9,195.8l-0.1,0.2l-0.5,0l-0.1-0.2l0.3-0.3l0.2,0l0.2,0.1L120.9,195.8z
		 M219.4,196l-0.3,0.5l-0.2-0.2h-0.1l-0.1-0.3l0.1-0.6l-0.2-0.6l0.3,0l0.1,0.2l0.1,0.1l0.3,0.6L219.4,196z M229,195.3l0,0.2v0.3
		l0.1,0.3l-0.2,0.3l0.2,0.5l0,0.2l0,0.3l-0.1,0.2l-0.1,0.5l-0.1,0.2l-0.1,0.1l-0.1,0.1l-1-0.2l-0.4-0.3l-0.4-0.3l-0.1-0.1l-0.4-0.4
		l-0.1-0.1v-0.2l0.3-0.1h0.4l0-0.2l0.2-0.7l-0.6-0.4l-0.1-0.2l0.2-0.1l0.5,0.2l0.6-0.8l0.2-0.2l0.1-0.4l0.3-0.1l0.2,0.1l0.1,0.3
		l0.1,0.2l-0.1,0.2l0.3,0.1L229,195.3z M220,196.2l-0.4,0.4l0.4-1l0.1-0.5l0.3-0.3l0.5-1.5l0.1,0l0.2,0.1l-0.3,1.1l-0.7,0.8
		L220,196.2z M70.2,194.2l-0.4,0l-0.7-0.6l-0.1-0.2l0.2-0.2l0.2,0l0.9,0.4l0.2,0.2L70.2,194.2z M174.4,193.2l0,0.5l-0.2,0l-0.2-0.2
		l-0.1-0.2v-0.1l0.1-0.1L174.4,193.2z M166.7,194l-0.3,0.1l-0.6-0.6l-0.2-0.5l0.1-0.3l0.2-0.2l0.1-0.1l0-0.2l0.2-0.1l0.3,0l0.2,0.3
		l0.2,0.1l0.1,0.3L166.7,194z M169.6,193.1l-0.1,0.3l-0.3,0.2l-0.2,0l-0.2-0.1l-0.4-0.2l-0.1,0.2l-0.3,0l-0.1-0.3l0.2-0.9l0.3-0.3
		l0-0.3l-0.3-0.7l0.2-0.4l0.8-0.3l0.7-0.4l0.2-0.1l0.2,0.3l0.1,1.3l-0.7,1L169.6,193.1z M172.2,189.6l0.1,1l0,0.3l-0.3-0.4l-0.1-0.1
		l-0.1,0.1l-0.1,0.1h-0.1l-0.2,0.4l0,0.4l-0.1,0.3l-0.1,0.9l0.1,0.2l0.2-0.1l0.1,0l0.5,0.3l0.3,0.2l-0.1,0.3l-0.3,0.3l-0.4,0.1
		l-0.3-0.1l-0.1,0.1l-0.2,0.2l-0.1,0.2l0,0.2l-0.3,0.6l-0.2,0.2l-0.4-0.2l-0.2,0.2l-0.2,0l-0.3-0.6v-0.3l0.3-0.3v-0.2l0.1-0.2
		l0.3-0.3l0.2-0.3v-0.2l0.1-0.6l0.1-0.3l0.1-0.3l0.1-0.6l0-1l0.5-0.9l0.5-0.2l0.2,0l0,0.2L172.2,189.6z M223.2,188.1l0.2,0.3
		l-0.6-0.2l-0.8-0.4l-0.1-0.3l0.7,0.4L223.2,188.1z M172.6,187.5l-0.5,0.6l-0.3,0l-0.4-0.4l-0.1-0.4l0-0.2l0.3-0.2l0.9,0.1l0.2,0.2
		L172.6,187.5z M198.6,184.9l-0.8,0.3l0.2-0.5l0.1-0.1l0.4,0.1L198.6,184.9z M197.2,185.3l-0.1,0.2l-0.3,0.1l-0.2,0l0.1-0.2
		l-0.1-0.1l-0.2,0.1l-0.3,0.1l-0.4,0.3l-0.2-0.1l-0.1-0.2l0-0.1l0.4-0.4l0.5-0.1l0.7-0.4l0.3,0l-0.1,0.2l-0.1,0.2l-0.1,0.2
		L197.2,185.3z M199.4,184.7l0,0.2l0,0.1l-0.3-0.1h-0.2l-0.2-0.4l0.1-0.1l0.3,0.1l0.1,0L199.4,184.7z M139.1,184.3l-0.2,0.8
		l-0.3-0.5l0.3-0.6l0.2-0.1L139.1,184.3z M194,183.6l0.1,0.2l-0.5-0.1l-0.2-0.2l0.2-0.1l0.1,0L194,183.6z M138.5,186.3l-1,0.9
		l-0.2-0.2l0.1-0.9l-0.3-0.6l0-0.4l0.2-0.8l0.3-0.6l0.6-0.4l0.1-0.1l0,0.7l0.1,0.3l0,0.2l-0.1,0.2l0.1,0.9l0.1,0.2l-0.1,0.3
		L138.5,186.3z M190.3,182.5l0.8,0.4l0.2,0.2l0.1,0.3l0.2,0.2l0.2,0.1l0.3,0.3l0.1,0.4l-0.1,0.8l-0.4,0.1l-0.3,0.1l-0.7,0.5
		l-0.3,0.1l-0.4,0l-0.3,0.1l-0.3,0.1l-0.7-0.3l-0.7-0.3l-1-0.5l-0.2-0.1l-0.2-0.3l-0.4-0.5l-0.1-0.3l0-0.9l0.1-0.2l0.2-0.1l0.6,0.2
		l0.4-0.2l1.2-0.2l1.2,0L190.3,182.5z M195.8,181.7l-0.2,0.4l-0.4,0l-0.1-0.1l0.5-0.3L195.8,181.7z M92.4,182.1l-0.1,0.1l-0.3-0.1
		l-0.2-0.1l-0.1-0.1l0-0.1l0.3-0.2l0.6,0.2L92.4,182.1z M95.2,181.6l-0.2,0.1l-0.1-0.1l0-0.1l0.1-0.2l0.3,0l0.1,0.1L95.2,181.6z
		 M204.5,181.4l1.1,0.5l0.6,0.1l1-0.1l0.4,0.1l0.9,0.7l0.3,0.5l0.1,0.4l0.1,0.4l0.2,0.1l0.3,0l0.3,0.6l0.1,0.2l-0.3,1.4l-1.1-0.5
		l-1.1-0.6l-0.5-0.2l-1.2-0.5l-0.2-0.2l-0.1-0.2l-0.5-0.3l-1.1-0.1h-0.4l-0.2,0.1l0,0.2v0.3l-0.3,0.1l-0.7-0.2l-0.6-0.1l-0.5-0.2
		l-0.7-0.1l-0.1-0.1l0.1-0.2l0-0.2l-0.2-0.1l-0.3,0l-0.3,0.2l-0.2,0.2l-0.4,0.5l-0.2,0.2l-0.6,0.1l-0.2-0.1l-0.2-0.1l-0.7-0.9
		L197,183l-0.3-0.2l-0.2-0.1l-0.2,0.1l-0.1,0.3l-0.1,0.3l-0.1,0.2l-0.3,0.5l-0.2,0.3l-0.1-0.1l0.1-0.5v-0.3l-0.2-0.3l-0.1-0.3
		l1.2-1.4l0.4-0.3l1.8-0.1l1.1,0.1l0.6,0l0.4-0.1l0.3,0.1l0.1,0.3l0.2,0.2l0.3,0l0.5-0.2l0.5-0.3l0.3-0.1l0.3,0l0.3,0l0.3,0.1
		L204.5,181.4z M60.7,183l0.2,0.7l-0.6-0.5l0-0.3l-0.1-0.2l-0.3-0.3l-0.3-0.3l-0.1-0.8l0.1-0.2l0.2,0l1,1.1l0.1,0.2l0,0.4l-0.1,0.1
		L60.7,183z M98.8,182l-0.1,0.5l-0.1,0.2l-0.4,0.3l-0.1,0.2l-0.4,0l-0.1-0.3l-0.1-0.2l-0.4-0.2l-0.1,0.1l-0.1,0.3l-0.8,0.2l-0.2,0
		l0.1-0.4l-0.2-0.3l0-0.4l0-0.2l-0.1-0.1l0.2-0.3l0-0.3l0.2-0.3l0.1-0.8l0.8-0.2l0.2,0.1l1,0.2l0.7,0.5l0.4,0.6L98.8,182z
		 M59.6,180.8l-0.3,0.4h-0.6l-0.1-0.2l0-0.6l-0.1-0.2v-0.1l0.1-0.3l0.1-0.1l0.9,0.8L59.6,180.8z M227.1,177.8l-0.1,0.1l-0.1-0.2
		l0.1-0.3l0.1-0.1l0.1,0l0.1,0.1L227.1,177.8z M57.8,178.8l0,0.1l-0.8-0.4l-0.4-0.1l-0.3-0.5l0.1-0.2l0-0.3l0.1-0.1l0.2-0.1l0.3,0.2
		l0.2,0.6l0.4,0.5L57.8,178.8z M186.3,179.4L186.3,179.4l-0.4-0.2l-0.2-0.8l-0.2-0.2l-0.2-0.7l0.1-0.2l0.2-0.3h0.2l0.1,0.2l-0.1,0.8
		l0.4,1L186.3,179.4z M175.5,177l0.1,0.2h-0.3l-0.1-0.4l0-0.2L175.5,177z M186.2,176.2l1.5,0.2l-0.2,0.2l-1.6,0.3l-0.6-0.1l-1.8,0.2
		l-0.2,0l0-0.3l-0.2-0.2l0.3-0.2l0.4,0l1,0.1L186.2,176.2z M172.1,176.3l-0.4,0.4l0-0.2l0.1-0.2l0.1-0.1l0.2-0.1L172.1,176.3z
		 M207.4,175.7l0.1,0.3l0.3,0.3l-0.1,0.4l-0.1,0.1l0.1,0.2l0.1,0.1l-0.2,0.1l-0.2-0.1l-0.3,0.1l-0.2,0.2l-0.6,0.1l-0.2-0.2l-1-0.2
		l-0.6-0.5l-0.1-0.1l1.3-0.5l0.5-0.1h0.5l0.6-0.2H207.4z M181,175.8l0.5,0.2h0.2l0.2-0.2l0.1,0l0.2,0.1l0.1,0.3l0.3-0.1l0.2,0.1
		l0.1,0.1l0,0.3l-0.9,0.1l-0.6,0.3l-0.8-0.2l-1,0.4l-0.6,0.1h-0.5l-0.4-0.7l0.2-0.8l0.2-0.1l0.3-0.1l0.9,0L181,175.8z M232.5,175.2
		l1.9,0.2l0.5,0l1.1,0.1l0.9,0.3l1.6,0.1l0.5,0.1l0.4,0.2l-0.9,0.2l-0.4,0.2l-0.8,0.1l-0.7-0.1l-0.5,0.1l-0.2-0.2l-0.7-0.2l-0.9-0.3
		l-1.9-0.4l-0.1-0.3L232.5,175.2z M102.5,175.3l-0.6,0.2l-0.2-0.5l0.4-0.1l0.4,0.1L102.5,175.3z M88.2,175.6l0.2,0.3l0.2,0.3
		l0.2,0.3l0.2,1.6l0.8,1.3L92,180l-0.4,0.2l-0.2,0.2l-0.1,0.2l-0.3,0.9l0,0.2l0.2,0.3l0.1,0.3H91l-0.3-0.1l-0.2-0.1l-0.2-0.2
		l-0.2-0.1l-0.3-0.1l-0.5-0.3l-0.6-0.2l-0.6-0.1l-0.3-0.4l-0.1-0.5l0.2-0.7l-0.2-0.2l-0.2-0.2l-0.3-0.5L87,178l-0.4-0.2l-0.5-0.1
		l-0.2-0.1l-1,0.2l-0.2-0.1l-0.2-0.2l-0.6-0.2l0-0.3l0.3-0.3l0.6-0.3l0.3-0.2l0.1-0.3l-0.1-0.2l0-0.2l0.2-0.2l0.2-0.2l0.6-0.2
		l0.3,0.4l0.1,0.3l0.2,0.2l0.3-0.3l-0.2-0.6l0.5-0.1h0.5l0.3,0.2l0.2,0.3L88.2,175.6z M174.3,175.7l-0.3,0l-0.2-0.1l0-0.7l0.2-0.2
		l0.1,0l0.1,0.2l0.1,0.2l0.2,0.2L174.3,175.7z M196.6,175.5l-0.3,0.2l-0.2,0.1l-0.7-0.1l-0.8,0l-0.9,0.2l-0.5-0.2l-0.3-0.2l0-0.3
		l0.3-0.7l0.7-0.5l0.3-0.1l0.5,0.1l0.8,0.4l0.6,0.5l0.6,0.3L196.6,175.5z M172.4,173.2l0.1,0.3l-0.2,0.3l0.2,0.5l0.5-0.7l0.5-0.1
		l0.3,0.1l0.2,0.1l0.1,0.2l-0.2,0.5l-0.3,0.2l-0.4,0l-0.2-0.3l-0.3,0l-0.2,0.7l-0.1,0.1l-0.2,0.1l-0.2-0.2l0-0.1l0.3-0.3l-0.2-0.9
		l-0.2,0.2l-0.6,0.8l-0.5,0.4l-0.2-0.2l-0.2-0.6l0.1-0.7l0.4-0.5l0.3,0l0.9-0.2L172.4,173.2z M106.2,173.2l-1,0.5l-0.2,0l-0.2-0.2
		l0.1-1l0.1-0.3l0.7,0l0.4,0.1l0.2,0.2l0.1,0.3l-0.1,0.2L106.2,173.2z M230,172.9l-0.2,0.1l-0.3-0.1l-0.3-0.4l0.1-0.3l0.3-0.2
		l0.2,0.2l0.1,0.2l0.2,0L230,172.9z M54.5,176.1l-0.5,0l-1-0.6l-0.2-0.3l-0.1-0.3l-0.9-1.3l-0.1-0.3l0.4-1.1l0.9-0.3l0.3,0.2
		l0.1,0.5l0.5,0.9l0.2,0.5l0.1,0.2l0.1,0.2l-0.1,0.1l0.4,0.6l0.3,0.3l0,0.5L54.5,176.1z M210.6,173.9l-0.2,0.1l-0.6-0.1l-0.3-0.3
		l-0.2-0.4l-0.1-0.3l0-0.3l-0.2-0.3l0-0.1l1.1-0.3l0.2,0.1l0.5,0l0.2,0.2l-0.1,1.1L210.6,173.9z M210.1,171.2l-0.1,0.2l-0.2,0.2
		l-2.1,0.3l0.2-0.2l0.1-0.2l0.1-0.1l0.2,0l0.1-0.1l0.1,0l0.1,0l0.2-0.1l0.4,0.1l0.4,0l0-0.2L210.1,171.2z M232.1,170.6l1,0.2l0.4,0
		l0.4,0.2l0.5-0.1l0.3,0.1l0.9,0.7l0.4,0.5l0.6,0.4l0.5,0.1l-0.3,0.4l-0.7,0.2l-0.3,0l-0.5-0.2l-0.4,0l-0.4-0.3l-0.1-0.4l-0.4-1
		l-0.5,0.3l-0.6-0.5l-0.2,0l0,0.1l-0.2-0.2l-0.2-0.3L232.1,170.6z M192.5,171.2l-0.1,0.1l-0.5-0.1l-0.1-0.1l0.3-0.7l0.2,0l0.2,0.7
		L192.5,171.2z M208.7,170h-0.3l-0.5-0.2l0.3-0.2l0.2,0l0.2-0.1h0.1l0.2,0.1l0.1,0.2L208.7,170z M165.8,169.4l0.2,0.2l-0.1,0.2
		l-0.2-0.1h-0.4l-0.2,0l-0.2,0.1h-0.1l0.1-0.2l0.4-0.3l0.2,0.1L165.8,169.4z M222.7,171l1.2,0.1l0.6-0.1l0.6,0.1l0.2,0.1l0.4,0.4
		l-0.1,0.2l-0.1,0.5l0.2,0.5l0.3,0.5l0.3,0.5l0.1,0.3l-0.1,0.5l-0.1,0.3l-0.3,0.5l-0.2,0.5l0.1,0.6l0.1,0.6l0,0.6l0.1,0.5l0.2,0.6
		l0.8,1.5l0.5,1l0.2-0.6l0-0.6l0.2-0.2l0.2-0.1l0.3,0.1l0.1,0.3l0,0.6l0.3,1.1l0.3,0.1l0.4-0.2l0.1,0.3l0,0.6l0.2,0.5l0.1,0.2
		l0.6,0.4l0.3,0.1l0.8,0.1l0.6,0l0.6-0.1l0.4-0.4l0.3-0.4l1.1-0.9l0.3-0.4l0.3-0.7l0.1-0.1l1.1-0.7l0.1-0.3l0.2-0.5l0.2-0.5l0.2-0.3
		l1.1-0.2l1.1-0.1l1.1-0.5l0.5-0.4l0-0.3l-0.2-0.5l0-0.2l0.3-0.2l1-0.6l1.2-0.6l0.9-0.4h0.5l0.5,0.3l0.5,0.3l2.6,0.9l0.4,0.3
		l0.4,0.3l0.5,0.2l0.6,0.1l0.5,0.2l0.5,0.3l1.1,0.5l1.5,0.7l0.4,0l1.4,0l0.2,0.1l0.2,0.2l0.2,0l1.6,0.1l0.2,0.1l0.2,0.2l0.1,0.5
		l1.1,0v0.9v1v1v1v1v1v1v1v1v1v1v1v1v1v1v1v1v1v0.4l-0.2,0.5l-0.3,0.8l-0.1,0.6l0.3,0.5l0.3,0.3v0.8v1v1v1v1v1v1v1v1v1v1v0.1
		l-0.3-0.2l-0.7-0.5l-0.6-0.6l-0.4-0.6l-0.5-0.5l-1.9-1.6l-0.5-0.5l-0.1-0.1l0.1-0.1l0.2-0.3l0.4-0.8l-0.4,0.5l-0.5,0.4l-0.7,0
		l-0.7,0.1l-0.6,0.2l-0.6,0.1l-0.3-0.1l-0.2-0.3l-0.1-0.3l0.1-0.3l-0.3,0.5l-0.5,0.3l-0.7,0.6l-0.2-0.1l-0.1-0.2l0-0.2l0.1-0.2
		l0.1-0.3l0.1-0.6l0.3-0.4l0.2-0.7l0.1-0.3l0.1-0.3l-0.2-0.3l-0.3-0.1l-0.2-0.2l-0.3-0.5l-0.2-0.2l-0.3-0.2l-0.2-0.2l0.2-0.2
		l0.3-0.1l0.3,0l0.5,0.1h0.2l0.6-0.2l-0.3,0.1H250l-1-0.3l-0.6-0.3l-0.6-0.6v-0.1l0.4-0.1l0.9-0.1l-0.3-0.3l-0.4-0.3l-0.1-0.5
		l-0.3-0.3l-0.6-0.5l-0.4-0.5l-0.3-1.1l-0.3-0.8l0.1-0.3l0.3-0.2l-0.5,0l-0.4-0.2l0.2-0.4l0.5-0.2l-0.4,0.1l-0.4,0.1l-0.2,0l-0.2,0
		l-0.1-0.2l0-0.2l0.1-0.4l-0.1-0.4l-0.4-0.2l-0.3-0.3l-0.2-0.1h-0.2l-0.2-0.2l-0.2-0.3l-2.2-1.2l-0.1-0.3l-0.2,0.1l-0.2,0.1
		l-0.3-0.2l-0.3-0.1l-0.3,0l-0.3-0.1l-0.3-0.1l-0.3,0l-1.2-0.4l-1.1-0.6l-0.9-0.2l-0.6-0.3l-0.6-0.3l-1.3-0.3l-1.3-0.2h-0.5
		l-0.4,0.1l-0.4,0l-2.2-1.2l-0.4-0.6l0-0.3l0.1-0.3l0.9-0.1l-0.6-0.1l-0.3,0l-0.5,0.2l-0.3,0l-0.4-0.2l-0.4-0.2l-0.6,0.2l-0.3-0.3
		l-0.1-0.3l-0.2-0.1l-0.2,0l-0.3,0.1l-0.3,0l-0.2-0.2l-0.1-0.3l-0.2-0.2l-0.3-0.1l-0.4-0.3l-0.2-0.5l0-0.8l0.1-0.3l0.4-0.5l0.3-0.5
		l-0.4-0.1l-0.3,0.2l-0.1,0.2l-0.1,0.3l0,0.9l-0.3,0.2l-0.4,0l0.1,0.5l-0.2,0.5l-0.5,0.6l0,0.3l0.1,0.3l-0.1,0.3l-0.8,0.8l-0.2,0
		h-0.6l-0.6,0.1l-0.3-0.2l-0.2-0.2l-0.2-0.3l-0.2-0.6l-0.2-0.6l0.6-0.8l-0.2-0.7l-0.4-0.6l-1-0.8l-1-0.8l-0.5-0.2l-0.8-0.1l-0.2-0.1
		l-0.2-0.3l-0.2-0.3l0.5-0.1l0.8-0.4l0.5,0l1.2,0.2l0.4,0.2l0.3,0.1l0.8-0.6l0.7-0.8l0.4-0.2l0.3-0.1l0.4,0.1l0.7,0.3l0.6,0.1l0.4,0
		l0.2,0.3l0.2,0.1l0.1-0.4l0.2-0.5l0.4-0.1l0.2,0l0.1-0.1l0-0.4l-0.5-0.1l0.3-0.4l0.3-0.2l0.1-0.2v-0.2l-1,0.4l-1.1,0.2l-0.6-0.1
		h-0.6l-1.3,0.3l-0.5,0l-1.1-0.1l-0.6-0.1l-0.5,0.1l-0.5,0l-0.5-0.3l-0.4-0.4l-0.2-0.3l-0.3-0.2l-0.1-0.3l-0.3-1.1l0-0.8l-0.5,0
		l-0.5-0.1l-2.1-0.7l-0.3,0.2l-0.3,0.1l-0.3,0l-0.3,0l-0.3-0.1l0-0.2l0.2-0.5l0.2-0.2l0.3-0.1l0.2-0.3l0.3-0.8l0-0.3l0-0.3l0-0.2
		l0.2-0.1l0.8-0.2l1.7-0.4l0.4-0.2l0.3-0.4l0.4-0.2l0.2-0.2l0.2-0.2l1.3-0.5l0.6,0l0.6,0.1l1.1,0.3l1.1,0.5l0.9,0.6L222.7,171z
		 M80.5,169.1l0.5,0.5l0.1,0.2l-0.2,0.3l-0.2,0.4l-0.1,0.1l-0.3-0.1l-0.2,0.4l-0.2-0.6l-0.3-0.4l0.2-0.4l0.1,0l0.1,0l0.1,0.1
		L80.5,169.1z M193.7,169l0.6,0.7l-0.4,0.7l0.3,0.4l0.7,0l0.2,0.1l0.1,0.2l0.1,0.2l-0.2,0.2l-0.4,0.2l-0.5-0.2l-0.1-0.2l-0.1-0.1
		l-0.6,0.2l-0.2,0l-0.1-0.3l0.1-0.5l-0.4-0.2l-0.4-0.5l0-0.2l0.2-0.3l0-0.3l0.2,0l0.4,0.4l0.2-0.3l0.2-0.1L193.7,169z M192.2,169.9
		l-0.3,0.1h-0.3l-0.1-0.5l0.1-0.7l0.3-0.1l0.5,0.1l-0.2,0.2l0.1,0.3L192.2,169.9z M76.9,169.1l-0.6,0.2l-0.7-0.1l0.1-0.3l0.3-0.3
		l0.3,0l0.6,0.2L77,169L76.9,169.1z M209.7,167.5l0.9,0.2l0.2,0l1.2,0.5l0.2,0.3l-0.1,0.2l0.2,0.2l-0.4,0.4l-0.2,0l-0.2-0.1
		l-0.4-0.1l-0.5,0.2l-0.3-0.1l-0.2-0.3l-0.4-0.2l-0.6-0.7l-0.3,0l0.1,0.3l0.3,0.2l0.3,0.5l0.2,0.1l0.2,0l0.3,0.2l0,0.3l-0.7,0.1
		l-0.2-0.3l-0.1-0.5l-0.4,0.2l-0.2,0.2l-0.1,0l-0.3-0.5l-0.8,0l-0.5-0.3l0.2-0.3l0-0.3l0.3-0.1l0.3,0.1l0.3-0.2l0.2,0.1l0.2-0.1
		l0.7-0.1L209.7,167.5z M51,170l-0.3,0.2l-0.4-0.2l0.1-0.3l0.1-0.4l0.3-0.3l0.1-0.4l-0.5-1.1l0.2,0l0.2,0.1l0.3,0.7l0.3,0.4
		l-0.1,0.6L51,170z M82,168.3l0.1,0.1l0.2-0.2l0.3,0.3l0.2,0.2l0.3,0.2h-0.3l-0.1,0.2l-0.1,0l-1-0.6l-0.7,0.2l-0.5-0.2l-0.1-0.1
		l0.2-0.3l0.2-0.7l0.5,0.2l0.1,0.2l0,0.1l0.3,0.1L82,168.3z M203.5,168.3l-0.2,0l-0.2-0.3l-0.5-0.3l-0.3-0.5l1.1,0.9L203.5,168.3z
		 M193.2,167.5l0,0.2l-0.2-0.2l-0.1-0.1l0.1-0.5l0.1-0.1l0.1,0.4L193.2,167.5z M81.6,167.1l0,0.1l-0.2-0.1l-0.1-0.1l-0.1-0.1
		l-0.5-0.7l0.2,0l0.6,0.6L81.6,167.1z M74.7,164.8l-0.6,0l-0.2-0.1l0.1-0.5l0.2-0.3h0.2l0.3,0.4L74.7,164.8z M193,164.3l-0.2,0.1
		l-0.1,0l-0.1-0.2l0.1-0.3h0.2l0.1,0.1l0,0.2L193,164.3z M192.8,163.6l-0.2,0.2l-0.2-0.1l-0.1-0.2l0-0.2l0.1-0.1l0.2,0.1
		L192.8,163.6z M75.5,164.2l-0.1,0.1l-0.4-0.6l0.1-0.3l0.1-0.1l0.2,0.2l0.2,0.2l0.1,0.3L75.5,164.2z M77.4,163.5l0,0.1l-0.5-0.3
		l0-0.2l0.1-0.1l0.3,0.2L77.4,163.5z M79.4,163.4l-0.3,0.1l-0.4-0.4l0-0.1l0-0.1l0.1-0.1l0.2,0.2l0.3,0.1L79.4,163.4z M73.4,163.8
		l-0.1,0.2l-0.2-0.1l-1-0.2l-0.3,0l-0.8-0.2l-0.2-0.1l-0.2-0.2l0.1-0.3l0.1-0.2l0.1-0.5l0.2-0.2l0.4,0.4l0.5,0.3l0.3,0.1l0.8,0.3
		l0.3,0.2L73.4,163.8z M75.4,162.3l0,0.3l-0.3-0.1l-0.2-0.3l0.2-0.2l0.1-0.1l0.1,0.3L75.4,162.3z M74.1,163.2l-0.1,0.1l-0.2,0
		l-0.3-0.2l-0.3-0.3l-0.4-0.3l-0.5-0.2l-0.3-0.1l-0.1-0.1l0.1-0.5l0.3,0l1,0.5l0.3,0.3L74.1,163.2z M78.3,161.7l0.3,0.2l0.3-0.1
		l0,0.2l-0.1,0.2l-0.3,0.5l-0.5-0.1l-0.1-0.2l0-0.1l0.1-0.1l0-0.2h0.2L78.3,161.7z M81.1,161.5l0,0.4l0.3,0.2l0.1,0.3l-0.1,0.4
		l-0.3,0.5l-0.1,0.1l-0.3-0.1l-0.1-0.2l-0.1-0.1l0.1-0.1l-0.3-0.1l0.2-0.2l-0.1-0.3l-0.7,0.2h-0.2l0-0.3l0-0.1l0.5-0.4l0.3-0.1
		l0.3,0.1L81.1,161.5z M70.5,162.6l-0.2,0.1l-0.3-0.2l-0.2-0.3l-0.1-0.3l-0.1-0.6l0-0.4l0.1-0.2h0.1l0.4,0.2l0.3,0.4l0.1,0.1l0,0.4
		l-0.1,0.4L70.5,162.6z M46.3,160.3l1.1,1.4l0.4,0.2l0.6,0.6l0.1,0.2l-0.1,0.4l-0.1,1.2l-0.3,0.3l-0.7-0.2v-0.2l-0.4-0.9l-0.7-0.5
		l-0.3,0l-0.2-0.5l-0.3-0.6l-1.1-1.2h0.8l0.4-0.3l0.1-0.2l0.1-0.1L46.3,160.3z M70.8,160.3l0,0.6l-0.4-0.2l-0.3-0.2l-0.5-0.2
		l-0.6-0.1l-0.4-0.2l-0.3-0.3l0-0.1l0-0.1l0.1-0.1l2.1,0.6L70.8,160.3z M180.6,162.6l-0.9,0.8l-0.3,0.4l-0.2,0.4l-0.4,0.5l-0.4,0.4
		l-0.2,0.1l-0.5,0.2l-0.3,0.1l-0.6,0l-1.7,0.3l-0.6,0l-0.6,0l-1-0.1l-0.2-0.1l-0.4-0.4l-0.5-0.3l-0.4,0l-0.4,0l-3.1,0l-1.1,0.1
		l-1.1,0.2l-0.6-0.1l-0.6-0.2l-0.4-0.1l-0.4,0l-2,0.3l-0.5,0l-1-0.3l-0.6-0.1l-0.6,0.1l-0.5,0.3l-0.2,0.2l-0.6,0.7l-0.3,0.5
		l-0.2,0.6l-0.2,0.6l-0.1,0.5v0.5l0.1,0.6l0.2,0.6l0.2,0.5l0.7,1.1l0.1,0.2l0.8,0.3l0.5,0.4l0.4,1.1l0.3,0.5h0.3l0.3,0l0.6,0.1
		l0.6,0.1l0.6-0.3l0.3-0.6l0.3-0.5l0.8-0.9l0.4-0.4l0.3-0.1l0.3,0.1l0.2,0.2l0.3,0.2l0.6,0.1l0.6-0.1l0.6-0.3l0.2-0.2l0.2-0.2
		l0.5-0.2h1.2l0.6,0.1l1.1-0.1l0-0.2l-0.2-0.2l-0.1-0.1l0.2-0.1l0.7-0.2l0.7-0.1l0.5,0.1l0.5,0.3l0.2,0.3l0.1,0.3l-0.2,0.9l-0.1,0.2
		l-0.4,0.1l-0.4-0.1l-0.4-0.5l-0.5-0.2l-0.7,0.1l-0.2,0.1l-0.2,0.2l-0.4,0.5l-0.3,0.5L169,174l-0.8,0.7l-0.4,0.3l-0.5,0.2l-1.5,0.5
		l-0.4,0.4l-0.3,0.5l-0.3,0.2l-0.4,0.1l-0.3-0.1l-0.6-0.3l-0.2,0.2l0,0.3l0.3,0.1l0.5,0.4l0.4,0.5l0.2,0.1l0.5,0.2l0.2,0.2l0.4,0.4
		l0.6,1l0.2,0.6l0.3,0.5l1,0.8l0.1,0.2l-0.1,0.3l0.1,0.2l0.4,0.4l0.1,0.3l-0.4,0.4l0,0.5l-0.2,0.7l-0.1,0.2v0.2l0.2,0.2l0.2,0.2
		l0.3,0.1l0.2,0.1l0.5,0.5l0.2,0.1l0.2,0.2l0,0.3l0.2,0.2l0.2,0.3l0.3,0.1l0.1-0.1l0.1-0.1l0.2,0.1l0.1,0.2l0.1,0.3l0,0.3l0,0.6
		l-0.1,0.2l-0.3,0l-0.5-0.2l0,0.2l0,0.2l-0.2,0.1l-0.3,0l-0.7,0l-1.3,0.4l-0.5,0.2l-0.3,0.4l0,0.3l0.1,0.6l-0.2,0.2l-0.6,0.1
		l-0.8-0.2l-0.5-0.2l-0.3-0.1l-0.4-0.4l-0.1-0.5l0.3-1.4l0.1-0.2l0.1-0.2l0.1-0.3l0-0.3l-0.4-0.4l-0.6-0.2l-0.5-0.3l-2-1.8l-0.1-0.2
		v-0.3l0.1-0.3l0.6-1l0.1-0.2l0.1-0.8l0-0.6l-0.1-0.6l-0.3-0.4l-0.5-0.1l-0.6,0l-0.5,0.1l-0.5,0.3l-1,0.7l-0.4,0.4l0,0.5l0.2,0.5
		l0.3,0.5l0.2,0.5l0.2,1.7v0.2l-0.3,0.5l-0.1,1.1l0.1,1.6l0.2,1l-0.1,0.5l-0.5,1.2l-0.1,0.6l0,0.3l0.5,1.2l0.1,0.5l0.1,0.5l-0.6-0.2
		l-0.3,0l-0.3,0.1l-0.6,0.1l-0.6,0l-0.2,0.1l-0.4,0.3l-0.3,0.1l-0.2,0l-0.8-0.4l-0.5-0.4l-0.4-0.5l-0.1-0.5l0.1-0.6l0.2-0.6l0.4-1
		l0-0.7l0.1-0.5l0.2-0.5l0.1-0.5l0.1-1.9l-0.1-0.2l-0.6-1.1l-0.1-0.2v-0.3l0.1-0.3l0-0.3l-0.1-0.2l-0.2-0.2l-0.3-0.1l-0.6,0.1
		l-1.2,0.3l-0.3-0.3l-0.3-0.4l-0.2-0.6l-0.1-0.6l0.1-0.6l0.2-0.5l-0.1-0.4l-0.2-0.4v-0.2l0.1-0.2l0.2-0.2l0.3-0.1l0.2-0.2l0.7-0.6
		l0.2-0.5l0-0.6l0.2-0.6l0.3-0.5l0.4-0.5l0.1-0.5l-0.2-0.8l0.1-0.4l-0.1-0.4v-0.4l0.2-0.8l0.7-1.6l0.7-0.9l0.3-0.2l0.4,0.4l0.3,0.5
		V171l-0.1-0.4l-0.3-1l-0.2-1.9l0.1-0.2l0.2,0l0.3-0.2l0.1-0.3l-0.3-0.7l0-0.2l0.5-1l0.4-0.4l0.2-0.2l0.1-0.6l0.2-0.2l0.3-0.2
		l0.4-0.4l0.2-0.5l0.1,0l0.1,0l0.2,0.5l0.2,0.2l0.5,0.2l0.4-0.2l0.1-0.2l0.2-0.2l0.3-0.2l0.2-0.2l0.2-0.6l0.3-0.5l0.2-0.2l0.3-0.1
		l0.3-0.1h0.3l0.6,0.3l0.4,0.1l0.4,0l0.2,0.1l0.2,0.1l0.2,0.3l0.2,0.2l0.2,0.1l0.2,0.1l1.3-0.1l1.2,0.3l1.6,0.1l0.6,0.2l0.5,0.2
		l0.6,0.4l0.2,0.1l0.3,0l0.3-0.3l0.3-0.1l0.3,0l1,0.1l2.8,0.4l0.4-0.1l1.7-0.8l0.7-0.8l0.6-0.2l0.2-0.4l0.1-0.4l0.2-0.1l0.5-0.1
		l0.2-0.1l0.4-0.5l0.4-0.5l0.2-0.1l0.6,0.1l0.3,0.2l0.3,0.7l-0.1,0.1l-0.4,0.3l-0.1,0.1l-0.4,1l-0.3,0.5L180.6,162.6z M67,157.3
		l0.3,0.4l0.1,0.3l-0.2,0.3l-0.1,0.5l-0.6,0.3l-0.5-0.1l-0.2-0.1l-0.3-0.7l0-0.6l0.2-0.2l0.5,0l0.5-0.3L67,157.3z M194.6,163.3
		l0.3,0.1l0.4,0l0.2-0.2l0.1-0.3l0.2-0.5l0.4-0.3l0.3-0.1l0.2-0.2l0-0.4l0-0.4l0.3-0.4l1-0.6l0.6-0.2l0.7-0.1l0.1,0.2l-0.1,0.3
		l0.1,0.5l-0.1,1.3l-0.2,0.2l-0.8,0.4l-0.8,0.3l-0.2,0.1l-0.2,0.3l0,0.3l0.7,0.5l1,0.4l0.2,0.2l0.1,0.3l0,0.4l0.2,0.2l0.3,0.1
		l0.2,0.2l0.2,0.3l-1.8-0.6l-0.5-0.3l-0.6,0l-0.6-0.1l-0.6-0.2l-0.6-0.1l-0.3,0.2l-0.1,0.3l-0.1,0.4l0.1,0.5l0,0.3l-0.1,0.5l0.4,1.4
		l0.5,1.2l0.8,1.2l0.4,0.4l0.4,0.4l-0.7-0.1l-0.2-0.4l-0.9-0.4l-0.2-0.2l-0.6-1.1l-0.2-0.2l-0.6-0.4l-0.2-0.3l-0.1-0.4l0.1-0.4
		l0-0.6l0-0.6l0.1-0.7l-0.2-0.2l-0.3-0.2l-0.3-0.5l-0.1-0.6l0-0.3l0.1-0.3l0.2-0.3l0-0.3l-0.4-0.4l-0.5-1l0-0.5l0.6-1l0-0.5l0.1-0.3
		l0.1-0.3l0.3-0.7l0.5-0.6l0.8-0.8l0.3-0.2l0.3-0.1l0,0.2l-0.1,0.2l-0.6,0.9l-0.1,0.2l0,0.3l0.3,0.2l0.3,0.4l0.1,0.6l0,0.6l-0.1,0.6
		l-0.1,0.2l-0.5,0.6l-1.1,0.7l-0.1,0.2v0.2l0.2,0.2L194.6,163.3z M45.5,157.3l0,0.1l-0.5-0.5l-0.6-0.3l0.2-0.1l0.5,0.1l0.2,0.1
		l0.2,0.3L45.5,157.3z M198.1,157.4l-0.8,0.1l-0.2-0.2l-0.2-1l0.6-0.8l0.7-0.5l0.5-0.1h0.2l0.4,0.6l-0.3,1.2l-0.4,0.6L198.1,157.4z
		 M183.2,154.5l-0.1,0.1l-0.2-0.6l0.2-0.3l0.2,0.1l0.1,0.1l-0.2,0.3L183.2,154.5z M41.3,155.9l-0.3,0.1l-0.3-0.1l-0.2-0.3l-1.3-0.8
		l-0.4,0l-0.3-0.2l-0.3-0.1l-0.4-0.5l-0.1-0.3l0.3-0.1l0.2-0.3l0.4,0.1l0.5,0.5l0.5,0.2l0.1,0.1l0.2,0.3l1.2,0.7l0.1,0.2l0.1,0.2
		L41.3,155.9z M102.2,153.3l-0.2,0.3l-0.3-0.2l0.4-0.5l0.1,0L102.2,153.3z M86.8,153.5l-0.2,0l-0.1-0.1v-0.2l0-0.2l-0.1-0.1v-0.2
		l0.2,0.1l0.1,0.1l0.2,0.1l0.1,0.1l0.1,0l-0.1,0.3L86.8,153.5z M89.4,152v0.3l-0.3-0.2l-0.1-0.4l0.1-0.1l0.2,0.1L89.4,152z
		 M145.2,151.5l-0.1,0.2l-0.4-0.4l-0.1-0.3l0.1-0.2l0.4,0l0.2,0.1L145.2,151.5z M184.4,150.7l-0.1,0.2l-0.6-0.3l0-0.4l-0.1-0.2
		l-0.2-0.2l-0.1-0.2l0.1-0.2l0.4,0.3l0.2,0.5l0.3,0.5L184.4,150.7z M190.2,149.1L190.2,149.1L190,149l-0.1-0.1v-0.1l0.1-0.1l0.3,0.2
		L190.2,149.1L190.2,149.1z M189.6,148.6l0,0.2l-0.3-0.5l-0.1-0.6l0.2,0.2l0.3,0.4L189.6,148.6z M146.3,147l0.2,0.5l0,0.2l-0.9,0.2
		l-0.5-0.6l0.1-0.2l0.5,0L146.3,147z M99.4,149.5l-0.7,0.2l-0.4-0.2l0.4-0.3l0.1,0L99,149l0-0.1l-0.8-0.2l-0.2-0.2l-0.2-0.5v-0.3
		l1-0.8l0.2-0.1l0,0.3l0.7,0.8l0,0.5l0,0.2L99.4,149.5z M139.7,146.2l0.2,0.1h0.2l0.3-0.1l0.7,0.1l1.3,0l0.9,0.2l0.9,0.5l0.4,0.1
		h0.2l0,0l-0.3,0.1l-0.2,0.3l0.5,0.4l0,0.3l0.4,0.3l0.4,0.4l0,0.1l0.1,0.2l0.1,0.2l-0.3,0.2l-0.4,0l-0.3-0.2l-0.3-0.3l-0.1,0.3
		l-0.2,0.2l-0.8-0.1h-0.6l-0.6,0.1l0.3,0.1l0.3,0.1l0.9,0.8l0.2,0.3l-0.3,0.6l0.2,0.2l0.3,0.1l0.4,0.3l0.3,0l0.2,0.2v0.3l0.1,0.3
		l-0.3,0.1l0.3,0.1l0.3,0.1l-0.2,0.1l-0.1,0.2l0.1,0.1l0.4,0.2l0.2,0.1l0.1,0.4l0.4,0.6l0.7,0.8l0.2,0.3v0.3l-0.1,0.2l-0.4,0.3
		l-0.3,0.3l0,0.1l-0.5,0.2l0.2,0.1l0.2,0.2l0.3,0.5l0.8,0.8l0.4,0.3l1.5,1.1l0.8,0.5l1,1.1l0.5,0.2l0.1,0.3l-0.5,0.5l-0.7,0.2
		l-1.1,0.1l-1.1-0.2l-0.6-0.1l-0.5-0.3l-0.4-0.5l-0.5-0.3l0.2,0.3l0.1,0.3l-0.1,0.4l-0.2,0.3l-0.3,0.2l-0.4,0.2l-0.2,0.1l-0.9,1.9
		l-0.2,0.5l-0.3,2.1v0.6l0.4,1.1l0,0.6l0.1,0.3l-0.1,0.2l-0.2,0.1l-0.8,0.3l-0.6,0.3l-0.5,0.4l-0.4,0.5l-0.3,0.4l-0.4,0.2l-0.3,0
		l-0.3-0.2l-0.2-0.3l-0.1-0.3l-0.1,0.3l0,0.3l0.2,0.3l0.1,0.3l-0.1,0.3l-0.2,0.2l-0.5,0.3l-0.3,0.2l-0.1,0.4l-0.1,0.2l-0.2,0.2
		l-0.7,0.4l-0.2,0.2l-0.1,0.2l0.4,0l0.3,0l0,0.4l0.1,0.3l-0.1,0.6l-0.5,0.4l0.3,0.1l0.2,0.1l0.5,0.1l0.2,0.5l-0.1,0.5l-0.1,0.5
		l-0.4,0.1l-0.2-0.1h-0.2l-0.2,0.1l-0.1,0.2l0.3-0.1l0,0.6l-0.1,0.6l-0.1,0.3l-0.2,0.3l-0.3,0.1l-0.3-0.2l-0.1,0.2l0.1,0.2l0.4,0.5
		l-0.3,0.1l-0.2,0.2l-0.1,0.2l-0.5,0.6l-0.2,0.4l-0.1,0.4l-0.2,0.3l-3.4,1.5l-2.8,1.3l-0.2-0.1l-0.1-0.2l-0.1-2l-0.3-1l-0.1-0.6
		l-0.4,0.5l-0.2-0.1l-0.3-0.1l-0.2-0.2l0-0.2l0.2-0.6l-0.2,0.3l-0.3,0.3l-0.3,0l-0.2-0.1l-0.1-0.2l-0.1,0l-0.6,0.6l-0.8,0.3h-0.4
		l-0.3-0.2l0-0.4l0-0.4l-0.1-0.2l-0.2-0.1l-0.2,0l-0.6,0.2l-0.2,0l-0.1,0.1l-1.5-1.5l-0.3,1.2l-1,0.7l-0.8,0.4l-0.8-0.1l-0.8-0.2
		l-0.8,0.3l-0.8,0.7l-0.2,0.1h-0.2l-0.2-0.1l0.1-0.5v-0.5l-0.1-1.2l-0.1-0.2l-0.2-0.3l-0.3-0.2l-0.2,0.2l-0.2,0.2l-0.6,0l-0.6-0.2
		l-0.5,0.1l-1,0.5l-0.6,0.1l-0.3-0.1l-0.2-0.3l0.1-0.2l0.2-0.2l-0.4,0.1l-0.4,0.2l-0.2,0.2l-0.2-0.1l-0.5-0.6l-1,0.2l-0.1,0.1
		l-0.2,0.2l-0.2-0.1l-0.1-0.2l0-1.2l-0.5-2.2l-0.1-1.1l-0.1-0.3l-0.6-0.4l0-0.6l0.3-0.5l0.1-0.6l-0.1-0.6l-0.2-0.6l-0.2-0.5
		l-0.3-0.4l-0.4-0.4L106,172l-1.1-0.4l-0.6,0l-0.2-0.1l-0.1-0.2l0.1-0.4l0.2-0.2l0.3-0.1l0-0.1l-0.6-0.3l-0.5-0.4l-0.1-0.2l-0.1-0.3
		v-0.6l0.1-0.4l0.1-0.2l0.1-0.6l0.3-0.2l-0.1-0.1l-0.1-0.1l-0.2-0.2l-0.2-0.2l-0.4-0.4l-0.6-0.5l-0.1-0.9l-0.1-1.3l0.1-0.6l0.2-1.1
		l0.3-0.3l0.3-0.1l0.2-0.1l-0.2,0l-0.2,0.1l-0.3,0l0.2-1l0.1-0.3l0.4-0.5l0.5-0.5l0.2-0.6l0.3-0.5l1.2-0.5l-0.4,0.6l0.1,0.2l0.1,0.2
		l0.3,0.1l0.1,0.8l0.4,0.5l0.4,0.4l0.3,0.2l0.3,0.3l0.2,0.3l0.2,0.2l0.4,0.2l1,0.9l0.4,0.3l0.3,0.3l0.2,0.1l0.5-0.1l1.6-0.7l0.3,0
		l0.5-0.1l0.9,0l1,0.2h0.3l0.3-0.1l0.4,0l0.4,0.1l0.2-0.1l0.6-0.5l0.8-0.1l0.2-0.5l0.2-0.5l0.1-0.5l0.3-0.2l0.4-0.2l0.7-0.2l2.3,0
		l0.2,0.1l0.1,0.2l-0.1,0.2l0.1,0.1l0.3,0l0.3,0.1l1.1,0.4l0.5,0.1l0.3,0l0.5,0.3l0.3-0.1l0.4-0.2l0.4-0.3l0.3-0.3l0.5-0.1l0.6,0
		l0.7-0.1l0.6-0.1l0.6,0.2l0.2-0.1l0.1-0.2l0.3-0.5l0.1-0.3l0.1-0.6l0.1-0.2l0.2-0.1l0.2-0.1l0.1-0.2l0.1-0.2l-0.1-0.2l-0.1-0.2
		l-0.1-0.5l0.1-0.2l0.1-0.2l0.2-0.1l0.6-0.4l0.6-0.5l0.3-0.2l0.1-0.1V155l-0.2-0.2l-0.2-0.1l0-0.3v-0.2l0.1-0.2l0-0.2v-0.2l0.2-0.3
		l0.3-0.4l0.3-0.2l0.3,0.2l0.4-0.1l0.3-0.1l0.2-0.5l0-0.2l-0.1-0.2l0.1-0.6l0-0.1l0.2-0.4l0-0.3l-0.1-0.6l0.1-0.5l0-1l0.1-0.2
		l0.2-0.5l0.2-0.5l0.5-0.3l0.3-0.4l0.1-0.1h0.2l0.6,0.3l0.6-0.3l0.5,0l0.4,0l0.2,0.1l0.2,0.1l0.5-0.3L139.7,146.2z M190.1,147.8
		l-0.2,0.1l-0.3,0l0-0.2l0.3-0.4l0.2-0.5l-0.2-0.1l-0.2-0.3v-0.3l0.2-0.6l0.3,0.1l0.3,0.3l0.1,0.5l0.2,0.4l-0.4,0.5L190.1,147.8z
		 M41.4,141.9L42,142l1.1-0.3l0.6,0l0.6,0.2l0.5,0.1l1.3-0.1l0.2,0l0.2,0.1l0.2,0.2l0.6,0.6l1,0.8l0.3,0.5l0.2,0.6l0.1,0.1l1.1,1.1
		l0.1,0.5l-0.2,0.6l0.3,0.5l1.1,0.5l0.6,0.3l0.1,0.2l0.1,0.2l0.3,0.4l0.4,0.2l1.4,0.6l1.8,1.3l1,0.6l0.9,0.9l0.3,0.5l0.3,0.5
		l0.5,0.7l0.9,0.9l0.2,0.3l0.2,0.4l0.3,0.4l0.3,0.3l0.4,0.3l0.4,0.1l0.6,0.6l0.3,0.2l-0.1-0.5l-0.3-0.4v-0.3l0.1-0.2l0.2-0.2
		l0.3-0.1l0.5,0.2l0.9,0.8l0.4,0.4l0.3,0.6l0.2,0.6l0.3,0.3l0.5,0.1l0.5,0.1l0.5,0.2l1.2,0.9l0.4,0.4l0.3,0.5l0.2,0.6l0.1,0.6
		l0.1,0.1l0.7,0.7l0.4,0.3l0.5,0.1l1.4,0.2l0.5,0.2l0.4,0.4l0.2,0.4l-0.3,0.4l-1.1,0.6l-1.2,0.4l1.1-0.1l0.6-0.2l0.5-0.3l0.5-0.3
		l0.8-0.5l0.3-0.1l0.4,0l0.3,0.1l0.5,0.5l0.5,0.5l0.3,0.6l0.2,0.6l-0.4,0.3l-0.6,0.2l-0.8,0.6l-0.1,0.2l0.2,0.2l-0.2,0.4l0.4,0.3
		l0.1,0.2l-0.4,0.3l0,0.2l0.5,0.9l0.2,0.2l0.7,0.4l1.1,0.5l0.6,0.2l0.7,0.2h0.3l0.5-0.1l0.1,0.2l0.2,0.9l0.1,0.5l0.2,1.2l0.2,0.5
		l0,0.6l0.3,0.5l0.5,0.3l0.6,0.3l0.3,0.3v0.4l-0.1,0.3l-0.2,0.2l-0.6,0.5l-0.1,0.2l-0.1,0.6l0.1,0.3l0.2,0l0.2-0.1l0.7-0.7l0.2-0.1
		l0.3-0.1l0.3-0.1h1.3L85,179l0.5,0.2l0.4,0.3l1.6,1.9l0.7,1.1l0.1,0.3l0,0.3l-0.1,0.2l-0.6,0.7l-0.1,0.2l-0.2,0.8l0,0.6l0.2,0.2
		l0.2,0.3l0,0.2l-0.4,1.2l-0.1,0.2l0.3,1.9l0,0.5l-0.1,0.6l0,1l-0.3,3.3l-0.1,0.2l-0.3,0.5h-0.3l-0.3-0.1l-0.2-0.2l-0.1-0.2
		l-0.2-0.2l-0.9-0.6l-0.2,0.1l-0.9,0.8l-0.2,0.1l-0.3-0.1l-0.5-0.2l-1.4-0.8l-0.1,0.2l0,0.3l0.3,0.9l0,0.4l-0.3,0.1l-0.1,0l-0.6-0.5
		l-0.5-0.5l-0.6-0.8l-0.5-0.3l-0.4-0.4l-1.2-1.5l-0.3-0.2l-1.8-1.1l-0.4-0.2l-0.5-0.4l-0.5-0.4l-1.1-0.6l-1.9-1.6l-0.8-0.9l-0.9-1.4
		l-0.3-0.4l-1.5-1.1l-0.8-0.6l-0.3-0.4l-0.8-1.3l-0.2-0.4l-0.3-0.4l-0.5-0.3L64,180l-0.9-1.2l-0.3-0.5l-0.2-0.5l0-1l-1.8-3.1l-0.5-1
		l-0.4-1.3l-0.1-0.1l-1-1.2l-0.3-0.4l-0.4-0.4l-0.3-0.4l-0.7-1.4l-0.2-0.4l-0.3-0.3l-1.3-0.5l-0.5-0.3l-0.4-0.4l-0.2-0.5l-0.3-1.1
		l-0.6-1.7l-0.7-2.3l-0.5-1l-0.5-0.8l-0.2-0.2l-2.3-1.4l-0.4-0.2l-0.4-0.1l-0.6-0.1l-0.5-0.4l-0.2-0.7l-0.1-0.9l-0.1-0.5l-0.1-0.3
		l-1-0.6l-0.4-0.5l-0.3-0.5l-0.3-0.4l-1.1-1.5l-0.4-0.4l-0.5-0.3l-1.3-0.3l-0.4-0.2l-0.7-0.8l-0.4-0.4l-1.2-0.9l-2-1.9l-0.4-0.5
		l-0.3-0.5l-0.2-0.5l-0.9-1.5l0.1-0.3l0.1-0.3l0-0.3l-0.1-0.3l0-0.2l0.3-0.1l0.6-0.2l0.6,0l0.5,0.1l0.5,0.1l0.5,0.3l0.9,0.8l0.5,0.3
		l0.6,0.1L41.4,141.9z M35.9,139.1l-0.1,0.1l-0.3-0.1l-0.3-0.4l0.1-0.1l0.2,0.1l0.4,0.1l0,0.2L35.9,139.1z"/>
	<path id="IO" d="M-76.3,203.5l-0.1,0.2l-0.2,0.1l-0.1-0.5l-0.3-0.3h0.1l0.3,0.2l0.1,0.5l0.1-0.1l0-0.2l0.1-0.1l-0.1-0.1l-0.1-0.2
		l0.1-0.1l0.2,0.2l0,0.2L-76.3,203.5z"/>
	<path id="KI" d="M491.5,180.9l0.2,0.1l0.1,0.1l0.1,0.2v0h-0.1l-0.1-0.1l-0.1-0.1l0,0l0,0l0.1,0l0.1,0.1l0.1,0v-0.1l-0.1-0.2
		l-0.1-0.1L491.5,180.9L491.5,180.9L491.5,180.9l-0.1,0.1l0,0l0,0L491.5,180.9L491.5,180.9z M494.5,182.7L494.5,182.7L494.5,182.7
		L494.5,182.7l0-0.1L494.5,182.7L494.5,182.7z M493.8,189.2L493.8,189.2l-0.1,0l0,0v-0.1l0.1,0L493.8,189.2L493.8,189.2L493.8,189.2
		z M489,189.4L489,189.4l0.1,0h0.1l0,0L489,189.4L489,189.4L489,189.4l0.1-0.1L489,189.4L489,189.4L489,189.4L489,189.4L489,189.4
		L489,189.4z M477.7,190.2L477.7,190.2l0.1,0.1h0L477.7,190.2l-0.1,0.1L477.7,190.2L477.7,190.2L477.7,190.2l-0.1,0l0,0v0l0.1,0
		L477.7,190.2z M416.4,152.2l-0.3,0.2l-0.1,0l0.4-0.2L416.4,152.2L416.4,152.2z M415.7,152.6l-0.4,0.2l-0.1-0.1h0.1L415.7,152.6
		l0.2-0.1l0,0.1L415.7,152.6z M416.6,158.4l0,0.1l-0.3-0.3l-0.2-0.2l0-0.1l0.1,0.1l0.1,0.1l0.1,0.1L416.6,158.4z M416.6,159.1
		l-0.2,0L416.6,159.1l0-0.2l0-0.3l0.1,0l0,0.1l0,0.2L416.6,159.1z M416.7,160.9l-0.1,0L416.7,160.9l0.5-0.2l0.1,0l0.1,0.1v0.1l0,0
		H417l-0.2,0.1L416.7,160.9z M416.7,162.5l0.3,0.2l0,0.1l-0.1,0.2l-0.3,0.4l-0.1,0l0.3-0.3l0.1-0.2L416.7,162.5l-0.1,0.1h0l-0.1-0.2
		h0.1L416.7,162.5z M423.9,171.4l-0.2,0.1l-0.1-0.1l0.1-0.2l-0.1-0.6l-0.2-0.1l-0.1-0.2h0.1l0.2,0.2l0.2,0.1l0.1,0.4L423.9,171.4z
		 M399.6,171.7L399.6,171.7l-0.1,0l0-0.1l0.1,0L399.6,171.7L399.6,171.7z M425.2,173.3l0,0.2l-0.1,0l0-0.1l0-0.3l-0.1-0.2l0.1,0.1
		l0.1,0.2L425.2,173.3z"/>
	<path id="MH" d="M386.6,112.8l-0.1,0l-0.1,0l0.1-0.1L386.6,112.8L386.6,112.8L386.6,112.8z M396.1,131.8L396.1,131.8l-0.5,0
		l-0.2-0.1l0-0.1l0.4,0.1L396.1,131.8z M407.2,132.6l0.6,0.2l0.8-0.1l-0.1,0.1l-0.3,0.1l-0.2,0.1h-0.1l-0.2,0l-0.5-0.2l-0.3-0.2
		l0.1-0.1L407.2,132.6z M409.5,133l0.2,0.1h0.4l0.3,0.3l-0.1,0l-0.2-0.1l-0.2-0.1l-0.2,0l-0.1-0.1L409.5,133z M400,139l-0.1,0.1
		l-0.1,0l0.1-0.1l0.1-0.2l0.1-0.4l0.2-0.2l0.2-0.2l0,0.2l-0.3,0.2L400,139z"/>
	<path id="MO" d="M124.7,56.5v-0.1l0.1-0.1l0.2,0l0.1,0.1l0,0L124.7,56.5L124.7,56.5L124.7,56.5z"/>
	<path id="MP" d="M282.7,74.4l-0.2,0.2l-0.1-0.1l0-0.3l0.2,0l0.1,0.1L282.7,74.4z M283,77.9l-0.2,0.1l0.3-0.5l0.1-0.1l0.1,0.2
		L283,77.9z M282.7,86.7l-0.1,0l-0.2,0l-0.1-0.1l0-0.1h0.3l0.1,0.1L282.7,86.7z M282.9,92.9l0,0.1l-0.2,0l-0.1-0.1l0.1-0.5l0.4-0.2
		l0.2,0l-0.2,0.2l0,0.2L282.9,92.9z M282.5,93.7l-0.2,0.3l-0.1-0.4l0-0.2l0.2-0.1h0.1L282.5,93.7z M280.5,97.8l-0.2,0.2l-0.2-0.1
		l-0.1-0.1l0-0.1l0.4-0.1l0.2,0.1L280.5,97.8z"/>
	<path id="MU" d="M-149,269.4l-0.6,0.1l-0.7,0l-0.3-0.3l-0.1-0.1l0.2-0.1v-0.4l0.1-0.6l0.2-0.2l0.3-0.2l0.2-0.5l0.3-0.3l0.4,0
		l0.4,0.6l0.3,0.6l-0.1,0.6l-0.3,0.2l-0.1,0.3L-149,269.4z"/>
	<path id="NC" d="M352.5,263.3l-0.1,0.1l0-0.8l0.2-0.3l0.1,0.6L352.5,263.3z M373.4,268.2l0.6,0.3l0.6-0.1l0.8,0.5l1.9,1.6l0.7,0.3
		l0.4,0.1l0.3,0.3l0.3,0.4l0.4,0.3l0.2,0.2l0,0.3l0.1,0.2l0.7,0.5l0.4,0.5l0.5,0.2l0.2,0.3l0.3,0.1l0.3,0.3l0.5,0.2l1.2,0.8l0.9,0.8
		l0.5,0.5l0.5,0.4l0.6,0.3l0.6,0.4l0.3,0.9l-0.2,0.3l-0.3,0.2l-0.3,0l-0.3,0.1l-1-0.6l-0.2-0.1l-0.3,0l-0.1-0.1l-0.1-0.2l-0.6-0.2
		l-0.6-0.3l-0.2-0.2l-0.1-0.3l-0.1-0.2l-0.8-0.3l-0.5-0.3l-0.4-0.4l-0.6-0.3l-0.9-0.6l-0.5-0.2l-0.4-0.3l-1.1-1l-0.4-0.2l-0.3-0.5
		l-1-1.1l-0.5-0.5l-0.5-0.4l-0.4-0.5l-0.3-0.6l-0.7-0.8l-0.1-0.3l0-0.3l-0.2-0.2l-0.3-0.1l-0.1-0.2l0-0.3l0.1-0.2L373.4,268.2z
		 M384.9,270.5l-0.3,0.1l0.3-0.5l0-0.3l0.1-0.6l0-0.2l0.2,0l0.2,0.2l-0.3,0.1l-0.1,0.2l0,0.3l0.1,0.1l-0.2,0.3L384.9,270.5z
		 M389,273l-0.3,0l-0.4-0.4l-0.7-0.2l-0.3-0.3l-0.2-0.4l0.4-0.1l0.4-0.5l-0.3-0.2l-0.5,0l0.1-0.2l0.7-0.2l0.3,0.1l0.1,0.2l0,0.8
		l0.3,0.3l0.3,0.6v0.2L389,273z M392,274.4l0.2,0.1l0.4,0l-0.1,0.9l-0.6,0.1h-0.2l-0.1-0.2l-0.3-0.1l0-0.3l-0.3-0.7l0.5-0.1l0.3-0.2
		l0,0.2l0.1,0.2L392,274.4z M389.7,280.6l-0.2,0.2l-0.2,0l-0.1-0.1l-0.1-0.1l0.1-0.4l0.4,0.2L389.7,280.6z"/>
	<path id="NF" d="M391.7,315.3l0.1,0.1l0.1,0l0.1,0.1v0.1l-0.1,0.1l-0.1,0.1h0l0,0v0v0l0-0.1l-0.1-0.1h-0.1l0,0.1h0l0-0.1l0-0.1
		l0-0.1l0,0l0-0.1L391.7,315.3l-0.1,0l-0.1,0L391.7,315.3L391.7,315.3z"/>
	<path id="NR" d="M386.9,170l-0.1,0.2l-0.1,0l-0.1-0.1l0-0.1l0.1-0.1L386.9,170L386.9,170z"/>
	<path id="NU" d="M500.8,262.2l-0.5,0.3l-0.2-0.3l0.2-0.4l0.2-0.1l0.1,0l0.2,0.4L500.8,262.2z"/>
	<path id="NZ" d="M469.5,405.1l-0.2,0.2l-0.3,0l-0.5,0.7l0-0.5l-0.2-0.2l-0.5,0.1l-0.1,0.1l0.3,0.1l0.1,0.1l-0.3,0.3l0.3,0.6l0.3,0
		l0.3,0.5v0.2l-0.6,0.2l-0.3,0.3l-0.3,0l-0.1-0.1l-0.2-0.5l0-0.2l0.3-0.3l0.2-0.4l-0.2-0.3l-0.4-0.2l-0.9,0.1l-0.2-0.1l0.4-0.5
		l0.5,0.1l0.5-0.3L469.5,405.1z M469.6,409l-0.2,0.1l0-0.4l-0.1-0.2l0.4-0.1l0.2,0.3L469.6,409z M417.8,349.4l0.1,0.3l0.3-0.2
		l0.2-0.3l0.3-0.3l-0.1,0.5l0.2,0.1l1.1,0.3l0.2,0.3l0.2,0.1l0.1-0.2l0.2-0.1l0.4,0.2l0.9,0.5l0.1,0.2l-0.1,0.3l0.1,0.3l0.1,0.2
		l0.3,0.1l0.4-0.3l0.2,0l0.3,0.5l0.1,0.3l0,0l0.2,0.3l0.2,0.3l0.4,0.8l-0.1,0.3l-0.1,0.2l0.3,0.7l-0.2,0.1l-0.7-0.1l0,0.1l0.4,0.5
		l0.3,0.7l0.3,0.4l1,1.4l-0.1,0.5l0,0.3l-0.1,0.3l0.3,0.7l-0.2,0.2l-0.1,0.8l-0.2,0.1l0,0.3l0.4,0.1l0.2,0.1l0.2,0.2l0.1-0.3
		l0.2-0.1l0.5,0.4l1,0.4l0.3,0.1l0.1,0.3l0.1,0.7l0.2,0.3l0.4,0.1l0.4-0.1l0.1-0.3l-0.1-0.7l-0.3-1.1v-0.4l0-0.4l-0.1-0.3l-0.1-0.3
		l-0.2-0.3l-0.2-0.2l0.1-0.3l0.3-0.2l0.2,0.3l0.1,0.3l0.8,1l0.4-0.1l0,0.4l0.3,0.4l0.2,0.5l0.2,1.5l0.3,1.4l0.6,0.6l0.1,0.3
		l-0.4-0.2l-0.1,0.1l0,0.2l0.3,0.3l0.4,0.1l0.3,0l0.2,0.1l1.6,0.9l0.8,0.4l1.9,0.6l0.5,0.1l0.3,0l0.6-0.2l0.5-0.4l0.4-0.6l0.4-0.6
		l0.4-0.3l0.5-0.2l0.2-0.2l0.2-0.2l1.3,0.1l0.4,0.3l0.6,0.3l0.3,0.2l-0.1,0.4l-0.3,0.6l-0.3,0.7l-0.2,1.5l-0.2,1.5l-0.2,0.7
		l-0.4,0.5l-0.5,0.4l-0.5,0.2l-0.2,0.9l-0.1,1l0,0.3l0.2,0.2l0.1,0.3l-0.3,0.6l-0.2-0.1l-0.2-0.5l-0.2-0.2l-0.6-0.2l-0.6-0.1
		l-0.6,0.1l-0.5,0.2l-0.8,0.4l-0.3,0.2l-0.2,0.3l-0.4,0.6l-0.1,0.8l0,0.4l0.1,0.3l0.7,0.4L436,380l-0.6,1.6L435,382l-0.4,0.4
		l-0.4,0.9l-0.7,0.8l-0.5,0.6l-0.3,0.6l-0.3,0.7l-0.6,1l-0.3,0.6l-0.4,0.5l-0.7,0.7l-0.8,0.6l-1.2,0.8l-0.3,0.3l-0.3,0.2l-0.4-0.2
		l-0.1-0.3l-0.1-0.6l-0.1-0.2l-0.5-0.2l-0.7,0.3l-0.1-0.1l0-0.1v-0.8l0.1-0.2l-0.2-0.1l-0.2,0.1l-0.1,0.2l0.1,0.2l-0.4,0.2h-0.4
		l-0.1-0.1l0-0.2l0.1-0.2l0.1-0.2l0.8-1l0.8-1.4l0.7-1.4l0.2-0.8l0.3-1.4l-0.2-0.6l-0.3-0.5l-0.7-1l-1-0.6l-0.6-0.1l-0.6-0.2
		l-0.6-0.5l-0.5-0.6l-1-0.5l-1-0.4l-0.6-0.5l-0.1-0.3l-0.1-0.4l0-0.3l0.1-0.3l0.1-0.3l0.2-0.2l1.1-0.7l1.2-0.4h0.2l0.2-0.1l0.3-0.2
		l0.5-0.5l0.2-0.3l0.1-1.1l0.2-1.1l0.3-1.3l0.5-0.8l0.2-0.5l-0.2-0.8l0.2-0.3l0.2-0.2l0.2-0.1l-0.4-0.7l-0.5-1.1l-0.1-0.3l0.1-0.3
		l0.1-0.3l-0.3-0.1l-0.2-0.3l-0.4-1.1l0.1-0.2l0.2,0.1l0.4,0.8l0.1-0.4l0.3-0.2l0.3-0.1l0.3,0l-0.7-0.9l-0.2,0l-0.3,0.1l-0.3,0.1
		l-0.3-0.1l-0.3-0.2l-0.2-0.4l-0.2-0.7l-0.1-0.3l-0.9-1.4l0.3-0.1l0.8,0.7l0.1-0.2l0.1-0.3l0-0.4l-0.2-0.3l-0.3-0.2v-0.3l0.2-0.3
		l0-0.2l-0.4-0.4l-0.2-0.1l-0.1,0.2l0.1,0.3l-0.1,0l-1.1-0.8l-0.3-0.6l-0.3-0.7l0,0.3l0,0.4l0.4,0.8l0.7,0.9l0.1,0.2l-0.1,0.3
		l-0.2,0.1l-0.2-0.2l-0.3-0.8l-0.2-0.4l-2.6-3.8l0.3-0.5l0.5-0.4l0.1-0.2l0.1-0.2l-0.2,0l-0.2,0.1l-0.2,0.2l-0.2,0.2l-0.3,0.5
		l-0.1,0.1l-0.3-0.3l-0.1-0.2v-0.2l-0.1-0.2l-0.2-0.1l-0.3-0.5L417,351l0.3-0.5v-0.6l-0.4-0.7l-0.4-0.6l-0.8-1l-0.8-1l0.8-0.1l0.8,0
		l-0.4,0.6l0.2,0.4l0.3,0.3l0.6,0.9l0.1,0.3l0.3,0.3L417.8,349.4z M429,357.4l0,0.3l-0.4-0.1l-0.1-0.2l-0.4-0.3l-0.1-0.1l-0.1-0.5
		l0.2-0.2l0-0.1l0.1,0l0.2,0.3l0.3,0.4L429,357.4z M417.1,388.8l0.6,0l0.5-0.5l0.5-0.4l0.6-0.3l0.9-0.7l0.2-0.1l0.6-0.1l0.2-0.2
		l0.3,0l-0.2,0.4l-0.3,0.1l-0.1,0.2l0.2,0.2l-0.3,0.3l0,0.4l-0.3,0.5l0.5-0.2l0.2-0.3L421,388l0.2-0.4l0.3-0.2l-0.1-0.3v-0.2
		l0.4,0.1l0.2,0l0.2-0.1l0.3,0l0.1,0.2l0.4,0l-0.1,0.3l-0.3,0.4l-0.1,0.2l-0.5,0.4l-0.3,0.2l0.5,0l0.7-0.5l0.4-0.4l0,0.5l-0.3,0.5
		l-0.3,0.3l-0.3,0.1l-0.3,0.2l-0.2,0.4l0,0.3l0.1,0.2l0.3,0.4l-0.4,0.7l0.4-0.1l0.2,0.1l0.3,0.4l-0.2,0.5l-0.1,0.2l-0.8,1l-0.4,0.5
		l-0.4,0.3v0.5l-0.2,0.4l-1.2,1.3l-0.2,0.3l-1,2.1l-0.6,0.9l-0.3,0.3l-0.4,0.2L416,401l-0.4,0.5l-0.4,0.4l-0.5,0.1l0,0.2l0.3,0.1
		l0.2,0.3l-0.2,0.3l-0.3,0.2l-0.3,0.1l-0.2,0.2l0.8-0.1l0.2,0.2l0,0.3l0.1,0.3l0.2,0.4l0.7,0.3l0.6,0.1l0.1,0.2l0.1,0.6l-0.1,0.3
		l-0.1,0.2l-0.2,0.1l-0.5,0l-0.5-0.1l-0.3-0.4l-1,0.1l-0.3,0.1l-0.1-0.1l0.5-0.4l-0.3-0.2l-0.2-0.1l-0.2,0.1l-0.2,0.2l-0.1,0.3
		l-0.2,0.2L413,406l-0.4-0.3l-0.4-0.4l-0.5-0.4l0.1,0.3l0.4,0.6l0.2,0.4l-0.5,0.3l-0.5,0.3l-0.4,0.2l-0.4,0.2l-0.5,0.4l-0.3,0.1
		h-0.7l-0.4,0.1l-0.1,0.5l-0.3,0.3l-0.6,0.1l0.2,0.1l0.1,0.2l-0.4,1.5l-0.1,0.6l-0.1,1.1l-0.2,1h-0.7l0.1,0.2l0.5,0.3l-0.1,0.4
		l-0.6,0.8l-0.2,0.5l-0.2,1.1l-0.4,1l-0.6,1.2v0.2l0.2,0.3l0.2,0.3l0,0.4l-0.1,0.2l-0.3,0.1l-0.2,0.1l-1.3,0.3l-0.4,0.3l-0.3,0.6
		l-0.4,0.6l-1.3,1.2l-0.8,1l-0.2,0.3l-0.2,0.2l-1.7,0.5l-1.2,0.1l-0.6-0.1l-0.6-0.2l-0.3-0.1l-0.7,0.2l-0.3,0.2l-0.5-0.2l-0.4,0.1
		l-0.1-0.1l-0.2-0.3l0.1-0.4l-0.1-0.3l-0.3-0.2l-0.2-0.2l-0.2-0.2l-0.5-0.1l-0.9,0.1l-0.3,0l-0.6-1l-0.2-0.2l-0.7-0.3l-0.2,0
		l-0.4,0.5l-0.2,0.1l-1.3,0.1l-1.3-0.2l-0.5-0.2l-0.1-0.5l1-1.2l-0.3,0.2l-0.6,0.5l-0.4-0.1l0.4-0.6l0-0.2l-0.1-0.3l-0.5,0.5
		l-0.6,0.1l-0.1-0.4l0.1-0.5l0.1-0.1l1.6-0.3l0.6-0.2l0.2-0.3l-0.9-0.1l-0.1-0.4l0.1-0.3l0.8-0.5l-0.6,0.1l-0.7,0l0.1-0.5l0.2-0.4
		l0.7,0l-0.2-0.3l0-0.4l0.2,0l0.7,0.5l0.5,0.2l-0.2-0.4l0-0.2l0.1-0.1l0.4-0.1l-0.1-0.1l-0.4-0.1l-0.5-0.3l-0.1-0.3l0-0.4l0.5-0.5
		l0.3,0.3l0.3-0.1l-0.3-0.2l-0.2-0.3l0.1-0.2l1.1-0.9l0.3,0.9l0.1-0.3l0-0.3l-0.1-0.2l0-0.2l0.1-0.2l0.5-0.2l0.6-0.7l0.4-0.3
		l0.3,0.2l0.2,0.3l0-0.3l-0.2-0.2l-0.1-0.6l0.8-1l0.9-0.9l0.8-1l0.4-0.3l0.9-0.4l0.6,0.2l0.2,0l0.9-0.7l0.4-0.2l0.3,0.2l0.2,0.1
		l-0.2-0.6l0.2-0.3l0.8-0.5l0.9-0.5l0.7-0.2l0.5-0.3l0.3,0l-0.1-0.3l0.1-0.3l0.3,0l0.1-0.1l-0.2-0.1l0.8-0.5l0.4-0.6l0.2-0.1
		l0.2-0.2l0.2-0.4l0.3-0.1l0.3,0.1l0.2,0.2l-0.1-0.3l-0.3-0.2l0.4-0.3l0.4-0.2l0.4,0.1l0.4,0.2l-0.4-0.3l-0.1-0.2l0.5-0.2l0.2-0.1
		l0.3,0.5l-0.1-0.4l0.1-0.3l0.5-0.5l0.6-0.9l0.2,0.3l0,0.4l0,0.4l0.1-0.2l0.1-0.4l-0.1-0.7l0.8-1.3l0.2-0.1l0.2-0.1l0.3,0l-0.1-0.2
		l-0.2-0.2l0.2-0.7l0.1-0.8l0.2-0.7l0.3-0.7l0.3-1.2l0.2-0.2l0.7-0.1l0.3-0.2l0.5-0.4l0.6-0.8l0.3-0.6l0.4-1.6l0.2-1.6l0.6-1.2
		l1-0.9l0.8-0.7l0.3-0.1l0.6,0l0.6,0.2l-1,0.2l-0.1,0.4l0,0.4l0.1,0.4l0.2,0.3l0.5,0.3l0.6,0.2l0.3,0.7l0.1,0.8l0.1,0.7L417.1,388.8
		z M421,386.1l-0.7,0.4l0-0.3l0.1-0.6l0.3-0.3l0.1,0l0.3-0.2l0,0.5L421,386.1z M387,414.9l0.2,0.8l-0.5-0.2l-0.2-0.2L387,414.9
		L387,414.9z M385.8,418.2l0,0.3l-0.1,0.2h-0.2l-0.3,0l-0.2-0.2l-0.2,0.1l-0.1-0.1l0.2-0.4l0.6-0.2l0.2,0.2L385.8,418.2z
		 M392.7,426.8v0.3l-0.5-0.1l0,0.3l0.4,0.2l0.1,0.2l0.4-0.1l0.1,0.3l-0.1,0.3l-0.3,0.2l-0.8,0.1l-0.5,0.5L391,429l-0.1,0l-0.5,0.5
		l-0.6,0.2l-0.2,0l0.1-0.4l0.4-0.4v-0.4l0.1-0.3l0.4-0.2v-0.4l0.3-0.4l-0.2-0.8l0.1-0.7l0.8,0L392.7,426.8z M383.3,455.8l0.1,0.6
		h-0.3l-0.6-0.2l-0.2-0.3l-0.1-0.1l-0.2,0.3l-0.3,0l-0.1-0.1l0.1-0.3l0.8-0.6l0.1-0.8l0-0.3l0.6-0.1l0.1,0.1l0.1,0.1l0,0.1l-0.2,0.3
		v0.3l0.1,0.3l-0.2,0.2l0.1,0.3L383.3,455.8z M397.8,469.4l0.3,0.4l-0.5,0.2l-0.2-0.1l-0.2-0.2l-0.1-0.3l0.3,0l0.2-0.1L397.8,469.4z
		"/>
	<path id="PG" d="M321.1,223.7l0.8,0.3l0.3,0.3l-0.3,0.1l-0.7,0.1l-0.2-0.2l-0.7-0.2l-0.1-0.3l-0.3,0.1l0.2-0.2l-0.4-0.3l-0.1-0.3
		l0-0.1l0.5,0.2L321.1,223.7z M324.7,223.1l-0.1,0.3l-0.2-0.1l-0.5,0.1l-0.3,0l-0.2-0.2l0-0.1l0.5,0.1l-0.1-0.3l0.7,0.1L324.7,223.1
		z M308.1,219.2l-0.1,0.4l-0.4-0.1l-0.1-0.1l0.1-0.2l0.3,0L308.1,219.2z M309,216.5h0.2l0.3-0.4l0.3-0.1l0.2,0.2l-0.3,1.2l-0.3-0.2
		l-1.1-0.3l0-0.5l-0.3-0.2l-0.2-0.5l-0.3-0.5l-0.1-0.3l0.2,0.1l0.2,0.3l0.9,0.7l0,0.2L309,216.5z M306.3,213.2l0.7,0.4l0.4-0.1
		l0.2,0.1l0.4,0.5l0,0.3l0.1,0.3l0,0.1l-0.2,0.2l0-0.2l-0.2,0h-0.6l-0.5-0.1l-0.7,0l0.3-0.3l0.1-0.1l-0.4-0.5l0-0.2l0-0.1l0.3-0.1
		L306.3,213.2z M305.4,213.9l-0.1,0.1l-0.3-0.1l-0.8-0.7l0.1-0.5l0.4-0.3l0.5,0.3l0.2,0.4l0.1,0.2L305.4,213.9z M316.6,211.3
		l0.3,0.1l0.6,0l0.2,0.3l0.3,0.1l0.2,0.1l0.2,0.2v0.1l-0.1,0.1l-0.1,0.1l0,0.2l-0.2,0l-0.3,0.1l-0.5-0.2l-0.2-0.1l-0.1-0.2l-0.3-0.3
		l-0.6-0.2l0.3-0.2L316.6,211.3z M272.3,209.6l0.1,0.2l-0.7-0.3l-0.7-0.5l-0.3-0.1l-0.2-0.3l0.4,0.2l0.7,0.2L272.3,209.6z
		 M309.2,210.1l0.1,0.3l-0.4-0.4l0.2-0.4l0-0.2l0-0.1l-0.4-0.2l0.2-0.4l0.2-0.1l0.1,0v0.5l0.1,0.2L309.2,210.1z M272.3,208.9l-0.2,0
		l-0.9-0.3l-0.2-0.2l1,0.1l0.3,0.1l0.1,0.3L272.3,208.9z M294.1,195.9l-0.2,0l-0.1-0.2l-0.5-0.2l-0.5-0.6v-0.5l0.1-0.1h0.3l1,0.6
		l0.1,0.2l-0.1,0.6L294.1,195.9z M332.9,200.1l-0.1,0.5l-0.1,0.1l-0.1-0.2l-0.4,0.2l-0.2,0.2l-0.2,0.1l-0.5,0l-0.5-0.1l-0.5-0.2
		l-0.4-0.3l-0.4-0.5l-0.3-0.5l0.1-0.6l-0.2-0.5l-0.8-0.4l-0.2-0.1l-0.3-0.5l-0.3-0.2l-0.4-0.4l-0.1-0.2l-0.2-0.6l-0.1-0.3l0.2-1
		l-0.1-0.5l0.2,0.1l0.2,0.2l0.3,0.1l0.6,0.1l0.5,0.4l0.5,0.8l0.1,0.2l0.1,0.2l0.5,0.3l0.2,0.2l0.5,0.8l0.3,0.2l0.3,0.1l0.3,0.1
		l0.5,0.4l0.4,0.4l0.3,0.4l0.2,0.5L332.9,200.1z M289.9,193.9l-0.3,0l-0.5-0.5l-0.1-0.2l0.1-0.2l0.6-0.3l0.4,0.3l0.1,0.6
		L289.9,193.9z M326.5,193.9l-0.1,0l-0.2-0.6l0-0.5l-0.1-0.3l-0.1-0.2l0.3-0.4l0.1-0.1l0.2,0.2l0,0.4l0.2,0.4l-0.1,0.8L326.5,193.9z
		 M284.2,190.5l-0.3,0.1l-0.2-0.1l-0.1-0.3l0.1-0.3l0.3-0.2l0.2-0.1l0.2,0.2l0.1,0.3L284.2,190.5z M313.1,188.4l0.3,0.1l0.7-0.5
		l0.4,0.3l0.5,0.2l0.5,0.1l-0.2,0.7l0.1,0.3l0.1,0.3l0,0.5l-0.2,0.4l-0.5,0.6l-0.2,0.1l-0.2,0.1l-0.8,0.1l-0.1,0.3l0.1,0.4l0.4,0.5
		l0.3,0.5l-0.3,0.5l-0.5,0.3l-0.5,0.2l-0.8-0.1l-0.9,0l-0.2,0.2v0.3l-0.1,0.2l-0.2,0.2l-0.5,0.5l-0.5,0.4l-0.7,0.4l-0.2,0.1
		l-0.6,0.1l-0.5,0.2l-0.2,0.2l-0.3,0.2l-0.6,0.2l-0.6,0.4l-0.2,0.1l-1.2,0.1l-1.7,0l-0.5,0l-0.5-0.1l-0.3-0.1l-0.6-0.7l-0.5-0.2
		h-0.5l-0.7,0.2l-0.1-0.1l-1.4-1l-0.4-0.2l-0.5-0.2l-0.6-0.1l-0.5-0.2l-0.3-0.5l0-0.6l0.4-0.3l0.6,0.2h0.2l0.2-0.1l0.3,0l0.3,0.1
		l1.1-0.1l0.6,0.2l0.6,0.2l0.6,0.1l0.6-0.1l0.8-0.3l0.2,0h0.7l0.6-0.4l0.2-1.5l0.2-0.5l0.2-0.1l0.2,0l0.2,0.3l-0.3,0.3l-0.1,0.2
		l-0.1,0.6l0.2,0.6l0.4,0.5l0.6,0.1l0.5-0.3l0.6-0.1l0.5,0.3l0.5-0.1l0.2-0.2l0.3-0.1l0.3,0l0.3-0.1l0.3-0.5l0.2-0.6l0.3-0.5
		l0.9-0.8l0.3-0.1l0.3-0.1l0.6,0l0.5-0.3l0-0.6l-0.1-0.6l-0.6-1.4l0-0.2l0.1-0.3l0.2-0.2h0.5l0.6,0.1l0.2,0.2L313.1,188.4z
		 M321.7,187.4l-0.1,0.1l-0.3-0.1l0.2-0.2l0.1,0L321.7,187.4z M316.8,182.7l-0.1,0.4l-0.3-0.2l-0.2-0.4l0.1-0.2l0.3-0.1L316.8,182.7
		z M314,181.8L314,182l-0.2,0l-0.4-0.5l-0.1-0.1l0.1-0.1l0.5,0.3L314,181.8z M313.3,181.2h-0.1l0-0.4l0.1-0.2l0.3,0.1l0.1,0.3
		L313.3,181.2z M274.9,186l0.6,0l0.6-0.1l0.3,0l0.2,0.1l0.2,0.1l0.1,0.3l0.4,0.4l0.5,0.2l0.5,0.3l0.5,0.4l0.3,0.4l0.4,0.4l0.6,0.2
		l0.6,0l2.1,2.1l0.1,0.3l0,1.4l-0.2,1.1l0.5,0.3l0.7,0.1l1,0.2l1,0.3l3.1,1.5l0.4,0.1l0.6,0.1l0.6,0l0.2,0.1l0.5,0.3l0.2,0.2
		l0.4,0.5l0.4,0.5l0.2,0.2l0.2,0.1l0.1,0.3l0.1,0.9l-0.1,0.5l-0.2,0.2l-0.5,0.1l-1.7,0.1l-1.2-0.1l-0.8,0.6l0,0.2l0.1,0.2l0.7,1.2
		l0.4,1l0.3,0.4l0.5,0.3l0.5,0.4l0.4,0.5l0.9,0.8l0.5,0.3l0.6,0.2l0.9,0.6l0.1,0.3l0.3,0.9l0.1,0.6l0,0.2l0.1,0.2l0.8,0.5l0.2,0.2
		l0.4,1.2l0.3,0.6l0.5,0.2l0.6,0l1.5-0.3l0.2,0l0.3,0.1l0.2,0.2l0.1,0.5l-0.2,0.6l-0.1,0.5l0.3,0.5l0.8,0.3l0.3,0.1l1.4,0.1l0.5,0.1
		l0.5,0.2l0.2,0.1l-0.1,0.2l-0.3,0.1l-0.3,0.1l-0.5,0.2v0.3l0.3,0.3l0.3,0.4l0.2,0.1l0.2,0.1l0.6,0.1l0.6,0.2l0.4,0.2l0.4,0.1
		l0.9,0.1l0.6,0.2l0.9-0.1l-0.8,0.4l-0.3,0.1l-0.9-0.2l-0.2,0.2l0.4,0.4l0.6,0.3l0.2,0.2l-0.1,0.2l-0.7,0.4l-0.3,0.1l-0.5,0
		l-0.9-0.2l-0.6-0.2l-0.2-0.3l-0.2-0.2l-0.6-0.4l-0.4-0.2l-0.5-0.1h-0.5l-0.9-0.2l-2-0.2l-0.5-0.1l-0.6-0.3l-0.3-0.1l-0.3,0.1
		l-0.8,0.1l-0.2,0l-0.6-0.3l-0.6-0.1l-0.2,0.1l-0.2,0l-0.8-0.2l-0.6-0.1l-0.5-0.3l-0.3-0.3l-0.3-0.2l-0.3-0.6l-0.4-0.6l-0.5-0.5
		l-1.2-0.8l-0.2-0.2l-0.5-0.7l0-0.5l0.2-0.5l-0.2,0.2l-0.3,0l-0.8-0.3l-0.3-0.4l-0.5-1l-0.3-0.5l-0.8-0.9l-0.2-0.5l-0.3-0.5
		l-0.2-0.2l-0.2-0.2l-0.1-0.3l-0.2-0.2l-1.1-0.4l-0.2-0.1l-0.2-0.1l-0.8,0l-0.5-0.1l-0.9-0.3l-0.5-0.1l-0.5-0.1l-0.5-0.1l-0.3-0.1
		l-0.2-0.2l-0.1-0.5l-0.5,0.1l-0.4-0.1l-0.4-0.2l-0.4-0.1l-0.3,0.2l-0.1,0.4l-0.1,0l-0.2-0.1l-0.1,0.1l-0.3,0.2l-0.2,0.2l-0.4,0
		l-0.8-0.2l-0.4-0.2l-0.3-0.3l-0.3-0.3l-0.3-0.3l-0.3-0.2l0.4,0.4l1,1.9l-0.2,0l-0.2-0.1l0.2,0.4l-0.3,0.1h-0.3l-0.6-0.2l-0.6-0.1
		l-0.2,0.1l0.1,0.1l0.2,0.4l0.2,0.4l-0.8,0.2l-0.8,0.1l-0.9,0.2l-0.9,0l-0.5-0.1l-0.5-0.1l-0.5,0.1l-0.4,0.2l-0.4,0l-0.2-0.3
		l-0.1-0.2l-0.1-0.2l-0.3,0l-0.3,0.1l0.6,0l0.2,0.3l0.2,0.3l0.4,0.3l0.5-0.2l1.1,0.1l1.1,0.5l0.2,0.1l0.2,0.1l0.5,0.5l0.4,0.4
		l0.3,0.5l0.1,0.2l0,0.5l-0.1,0.3l-0.7,0.4l-0.7,0.3l-1.1,0.5l-1,0.6l-0.5-0.1l-0.5-0.3l-0.2-0.1l-0.5-0.2l-0.3-0.1l-1.2,0.1
		l-1.2,0.1h-0.5l-0.5-0.1l-0.6-0.2l-0.5,0.1l-0.4,0.2l-0.4,0l-0.8-0.5V212v-1v-1v-1v-1v-1v-1v-1v-1v-1v-1v-0.8l-0.3-0.3l-0.3-0.5
		l0.1-0.6l0.3-0.8l0.2-0.5v-0.4v-1v-1v-1v-1v-1v-1v-1v-1v-1v-1v-1v-1v-1v-1v-1v-1v-1v-0.6v-0.3v0h0.1h0.5l0.4,0.1l2.5,1.1l0.7,0.4
		l0.2,0.1h0.2l0.2,0.1l1.1,0.6l1.7,0.6l1.7,0.6l0.5,0.1l0.6,0.1l1.2,0.2l0.6,0.2l0.9,0.7l0.5,0.2l0.4,0.4l0.6,0.4l0.2,0.1L274.9,186
		z M318.3,190.6l-0.4,0.4l-0.2-0.3l-0.3-0.3l-0.2-0.3l-0.3-0.7l0-0.3l0.1-0.4l0-0.4l-0.1-0.7l-0.3-0.7l-1.2-1.6l-0.4-0.4l-0.4-0.4
		l-0.3-0.1l-0.6-0.1l-0.2-0.1l-0.5-0.3l-0.4-0.3l-1-0.9l-0.6-0.3l-0.3-0.3l-1.7-1l-0.5-0.2h-0.6l-0.5-0.2l0.4-0.1l0.1-0.3l-0.1-0.3
		l0.8,0.6l0.9,0.5l0.3,0.4l0.4,0l0.8,0.3l0.5,0.3l0.5,0.3l0.6,0.5l1.1,0.4l0.2,0.1l0.6,0.6l0.7,0.5l0.2,0.3l3.1,2.6l0.5,0.7l0,0.5
		l-0.1,0.2l-0.3,0.4v0.5l-0.1,0.4L318.3,190.6z M305.9,180.4l-1,0.1l-0.3-0.1l-0.3-0.3l-0.3-0.4l-0.3-0.1l-0.1-0.1l0.7-0.3l0.6-0.1
		l1,0.4l0.1,0.2v0.1l0,0.4L305.9,180.4z M293.3,178.6l-0.2,0.3l-0.4,0l-0.2-0.1l0.3-0.1l0.1-0.2l0.1-0.1L293.3,178.6z M289.4,177
		l1.6,0.3h0.1l0-0.1l0,0l0.1,0.1l0,0.2l-0.3,0.1l-0.2,0l-0.2,0.1l-0.5,0.4l-0.3-0.1l-0.4,0.1l-0.7,0l-0.9-0.2l-0.2,0.2l-0.3-0.1
		l-0.3,0.2h-0.1l-0.1-0.3v-0.1l0.4-0.1l-0.1-0.4l0.3-0.2l0.5,0l0.5-0.1L289.4,177z M302.6,175l0,0.2l-0.3-0.1l-0.1,0l-0.6-0.5l0-0.3
		l0.2-0.3l0.3,0l0.5,0.3L302.6,175z"/>
	<path id="PH" d="M165.9,63.9l-0.2,0.4h-0.2l0-0.2l0.2-0.5l0.1,0L165.9,63.9z M166.3,66.1L166.3,66.1l-0.2,0l0.1-0.5l0.2-0.1
		l0.2,0.1L166.3,66.1z M164.1,71.3l0.1,0.5l-0.3,0l-0.4-0.3l0-0.1v-0.1l0.1-0.1L164.1,71.3z M162.8,72.7l0,0.3l-0.2-0.2l-0.1-0.3
		l0-0.2l0.1-0.2l0.2,0.2L162.8,72.7z M166.1,73.7l-0.3,0.4l-0.2-0.1l0.2-0.4v-0.1l0.1-0.3l0.3-0.1l0.2,0.3L166.1,73.7z M162.1,75.1
		l0.8,0.3l1.7,1l0.6,0.2l0.6,0.2l0.5,0.1l0.5-0.2l0.2-0.2l0.3-0.6l0.4-0.1l0.2,0.2l0.2,0.3l0.1,0.4l-0.1,0.4l-0.3,0.4l-0.2,0.5
		l-0.1,1.6V80l0.1,0.5l0.3,0.7l0.2,0.2l0.5,0.3l0.1,0.2l0,0.3l0.1,0.3l0.3,0.1l0.2,0.2l-0.1,0.3l-0.2,0.3l-0.2,0.9l-1,2l-0.1,0.4
		l-0.4,0.8l-0.8,0.1l-0.9,0.4l-0.5,0.3l-0.4,0.4l-0.2,0.5l0.1,0.2l0.1,0.3l0,0.3l-0.1,0.2l-0.4,0.6l-0.2,0.5l-0.2,0.2l-0.1,0.3
		l0,0.3l0.2,0.3l0.5,1.1l0.6,1l0.1,0.1l0.1,0.1l-0.3,0.3v0.5l0.1,0.5l0.5,1.2l0.1,0.3l0.2,0.3l0.3,0.3l0.3,0.2l0.8,0.4l0.3,0.1
		l0.3,0l0.1-0.2l0.3-0.1l-0.1-0.2l-0.3-0.3l0-0.2l0.2-0.1l0.2-0.1l0.5-0.4l0.5-0.3l0.7,0l0.7,0.2l0.5,0.2l0.4,0.3l0.4,0.5l0.3,0.6
		V99l-0.1,0.3l0,0.3l0.2,0.2l0.6,0l0.3-0.5l0-0.5l-0.2-0.2l0.1-0.2l0.2-0.2l0.3,0.2l0.3,0.3l1,0.3h0.2l0.2,0.1l0.4,0.2l0.2,0.2
		l-0.2,0.4l-1,0.1l-0.3,0.3l0.3,0.6l0.5,0.5l0.3,0.4l0.3,0.4l0,0.4l-0.2,0.4l0.4,0l0.4,0.1l0.6,0.3l0.2,0l0.2-0.1l0,1.2l-0.4,1.1
		l-0.5-0.1l-0.4-0.5l0.1-0.6l0.3-0.6l-0.2-0.1l-0.3,0.1l-0.3,0.1l-0.3,0l-0.5-0.1l-1.1-0.6l-0.5-0.1l-0.1-0.3l0-0.6l-0.4-0.7
		l-0.1-0.2l-0.1-0.2l-1.3-0.8l-0.2-0.1l-0.4-0.6l-0.9-0.9l-0.3-0.1l-0.3,0l-0.1,0.2l0.1,0.3l0.1,0.3l0,0.3l0,0.2l0.4,0.5l0.1,0.2
		l0.3,0.6l0,0.7l-0.4,0.3l-0.4-0.3l0-0.3l-0.1-0.2l-0.4-0.6l-0.2-0.1l-0.8-0.6l-0.6-0.7l-1.4-0.8l-0.2,0l-0.2,0.1l-0.2,0.1l-0.7,0.4
		l-0.2,0.3l0,0.4l-0.5,0.3l-0.7,0.1l-0.5-0.2l-0.4-0.4l-0.4,0l-0.5-0.6l-0.5-0.1l-0.5,0.5l-0.1-1v-1l0.1-0.3l0.2-0.2l1.2-1l0.1-0.3
		l-0.1-0.4l-0.3-0.3l-0.4-0.2l-0.5-0.1l-0.3-0.2l-0.3-0.3l-0.2,0.6l0.2,0.9l0,0.6l-0.2,0.2h-0.3l-0.3-0.1l-0.2-0.2l-0.2-0.6
		l-0.4-0.4l-0.2-0.5l-0.2-0.1l-0.4,0l-0.3-0.3l-0.2-0.6l0-0.7l-0.2-0.6l-0.2-0.6l-0.1-0.5l-0.2-2.1l-0.1-0.2l-0.1-0.2l-0.2-0.2
		l-0.2-0.3l0-0.2l0.1-1l0.1-0.2l0.2-0.1l0.3,0.2l0.2,0.2l0.3,0.1l0.2,0.2l0.4,0.6l0.2,0.1l0.5,0l0.3-0.1l0.2-0.2l0.1-0.3v-0.3
		l-0.3-0.9l-0.1-0.6v-0.6l0.1-0.6l0.4-1l0.1-0.7l0-0.9l0.1-0.5l0-0.3l-0.3-0.5l-0.1-0.5l0.7-2.7l0.2-0.5l0.2-0.5l0.1-0.7l0.5-0.2
		l0.5-0.3l0.3,0l0.3,0.1l0.6-0.1L162.1,75.1z M166.6,93.5l0.1,0.2h-0.1l-0.1,0l-0.2,0.4l0.2,0.7l-0.2,0.5l-0.3,0l-0.1-0.1l0.1-0.2
		l0.1-0.1l-0.1-0.3l-0.2-0.2l-0.1-0.4l-0.2-0.2l0.1-0.4l0.6,0L166.6,93.5z M167.3,98.3l0,0.2l-1.1-0.8l-0.1-0.1v-0.1l0.1-0.1
		L167.3,98.3z M178,100.4l-0.1,0.3l-0.2-0.1l-0.2,0l-0.3,0.3l-0.6-0.4l-0.1-0.3l0.4-0.6v-0.9l0.2-0.2l0.2-0.2l0.2-0.1l0.4,0.7
		l0.1,0.1l0.4,0.3l-0.1,0.6l0,0.3L178,100.4z M158,99.8v0.3l-0.8-0.5l0-0.2l0-0.1l0.1-0.1l0.4,0.2L158,99.8z M166,100.9l0.3,0
		l0.1-0.1l0.6,0.4l0,0.2l0.1,0.3l-0.3,0.5l-0.1,0.2l-0.2,0.2l-0.6-0.4l-0.2-0.2l-0.1-0.5l0.2-0.7L166,100.9z M160.1,101.2l0.2,0
		l0.8-0.2l0.3,0.1l0.2,0.3l0.3,0.1l0.2,0.1l0.4-0.3l0.4,0.3l0.3,0.5l0.4,0.4l0.4,0.3l0.1,0.2l-0.2,0.3l-0.1,0.4l0,0.5l0.3,1
		l-0.1,0.3l-0.3,0.4l-0.2,0.4l0,0.2l-0.1,0.1l0,0.3l-0.2-0.1l-0.2,0.1l-0.2,0.1l-0.3,0.3l-0.4-0.1l-0.2-0.1L162,107l-0.1-0.2
		l-0.2-0.1l-0.4-0.4l-0.2-0.3v-0.3l-0.1-0.3l-0.2-0.3l-0.3-0.2l-0.1-0.2l0-0.2l0-0.6l-0.4-0.8l-0.1-0.2l-0.4-0.2l-0.3-0.3l-0.1-0.3
		l-0.1-0.4l-0.1-0.1l-0.2,0l-0.2-0.1l0.1-0.3l0.2-0.2l0.3,0l0.9,0.1L160.1,101.2z M172.7,104.3l0.4,0.8l-0.5-0.5l-0.5-0.3l-0.5-0.6
		l-0.4-0.2l-0.1-0.1l0-0.2l0.3-0.1l0.1,0l0.8,1L172.7,104.3z M175.2,106.3l0,0.4l-0.2-0.2l-0.6-0.9l-0.2-0.3l0.2-0.2l0.4,0.3
		L175.2,106.3z M166.9,106.8l-0.4,1.2l-0.3-0.4l0.1-0.3l-0.2-0.2l-0.1-0.2l0.1-0.3l0.2-0.2l0.1-0.8l0.5-0.3l0.2,0l-0.1,0.2v0.4
		L166.9,106.8z M168,105.9l-0.2,0.2l-0.1,0l-0.1-0.3l0.1-0.2l0.1,0L168,105.9z M174.9,107.1l0.9,0.6l0.6,1l0.1,0.8l-0.1,0.3
		l-0.3-0.3l-0.7-0.5l-0.5-0.1l-0.1-0.1l0.1-0.3l-0.3-0.2l0-0.1l-0.3-0.1l-0.4-0.5l-0.3-0.1l-0.3,0.1l-0.6,0.8l-0.7,0.6v-0.2l0.3-0.7
		l0.2-1.1l0.1-0.3l-0.1-0.5l0-0.4l0.5,0.2l0.6,0.2l0.5,0.3l0.1,0.2L174.9,107.1z M182.3,105.9l0.3,0.4l0.1,0.3l0,0.3l0.2,0.1l0.3,0
		l0.3,0.2l0.3,0.3l-0.2,0.3l0.1,0.4l-0.3,0.5l0,0.9l0.2,0.3l0,0.3l0,0.3l0.1,0.2l0.4,0.8l0.1,0.3l-0.1,0.2l0,0.2l0.3,0l0.4,0.3
		l0.2,0.5l-0.1,0.1l-0.3-0.3l-0.2-0.1l-1,0.1l-0.6-0.1l-0.4,0l-0.4-0.6l-0.3-0.1l-0.3-0.3l-0.4-0.7l-0.1-0.4l0.3-0.4l0.1-0.3l0-0.3
		l-0.3,0.1l-0.2-0.1l-0.3-0.4l-0.1-0.2l-0.2-0.2l-0.4-0.4l-0.5-0.2l-0.2-0.1l-0.4-0.4l-0.3-0.5l-0.3-0.8l-0.2-0.8l1.3,0.2l1.3,0
		l1.5-0.2L182.3,105.9z M169.7,107l-0.2,0.1l-0.5-0.5l-0.3-0.2l-0.1-0.1l0.2-0.2h0.6l0.3,0.3l0.1,0.2L169.7,107z M157.1,107.7
		l0.3,0.1l0.2-0.1l0.2-0.3l0.2,0.4l0.4,0.3l-0.1,0.3l-0.3,0l-0.3-0.1l-0.4,0.1l-0.4-0.1l-0.3-0.3l-0.3-0.5l-0.1-0.1l0-0.2l0.1-0.1
		l-0.1,0l0-0.1l0.1-0.1l0.1,0l0.2,0.2l0.6,0.4L157.1,107.7z M156.8,110l-0.4,0.2l-0.1-0.1l-0.1-0.2v-0.2l-0.3-0.9l0.3-0.1l0.2,0.1
		l0.2,0.1l0.2,0.1l0.2,0.3l0,0.2l0.1,0.2L156.8,110z M168.9,110.5l0.6,0.3l0.6-0.2l0.5,0.1l0.5,0.3l-0.1,0.2l0,0.2l1-0.5l0.3,0v0.5
		l-0.1,0.4l-0.1,0.4l-0.2,0.5l-0.3,0.4l-0.4,0.3l-0.5,0.2l-0.2,0.2l-0.1,0.2v0.3l-0.1,0.3l-0.5,0.1L169,115l-1.6,0.3l-0.4,0.2
		l-0.3,0.3l-0.3,0.3l-0.2,0.1l-0.1-0.1l0-0.1l0.2-0.7l0-0.3l-0.1-0.3l0.1-0.6l0.3-0.5l0.1-0.6l0.1-1.1l0.2-1.6l0-0.2l-0.2-0.2
		l-0.6-0.2l-0.2-0.2l0.1-0.3l0.2-0.2l0.3,0l0.3,0.2l1,0.4l0.5,0.3L168.9,110.5z M180.4,110.6l-0.1,0.3l-0.1-0.1l-0.1-0.1l-0.2-0.4
		l-0.1-0.3l0.3,0.2l0.2,0.3L180.4,110.6z M179.2,111.1l-0.6,0l-0.3-0.2l-0.3-0.7l0.4-0.1l0.4,0l0.3,0.2l0.3,0.5L179.2,111.1z
		 M179.1,111.8l0.3,0.2l0.4-0.1l0.5-0.4l0.5,0.1l0.3,0.6l0.2,0.2l0.1,0.4l0,0.9l-0.1,0.8l0.1,0.2l0.2,0.1l0.2,0.2l0.2,0.2l0.1,0.3
		l0.1,0.6l0.3,0.5l0,0.2l-0.1,0.2l-0.5,0l0,0.2l0,0.2l-0.2-0.1l-0.3-0.5l-0.3-0.2l0.1,0.8l0.1,0.4l0,0.4l-0.5-0.3l-0.6-0.2l-0.2-0.2
		l0.1-0.5l0-0.3l-0.3-0.6l0.3-1.2v-0.2l-0.1-0.2l-0.2-0.5l-0.4-0.4h-0.2l-0.6,0.3l-0.3-0.1l-0.2-1.1l-0.2-1.1l-0.2-0.3l-0.1-0.3
		l0.1-0.2l0.2,0.1l0.3,0.3l0.4,0.2l0.2,0.1L179.1,111.8z M156,110.9l0.1,0.3l-0.1,0.4l-0.1,0.1l-0.2-0.2l-0.3-0.1l0-0.2h0.2l0.3-0.2
		L156,110.9z M143.5,126.2l-0.5,0.3l0.1-0.4l0.1-0.4l0.5-0.9l0.3-0.3l0.5-0.7l0.3-0.3l0.8-0.6l0.7-0.7l0.2-0.1l0.2,0l0.2-0.1
		l0.5-0.4l1.1-1.3l0.9-0.9l0.9-1.2l0.5-0.3l0.1-0.1l0.9-1.1l0.3-0.2l0.3-0.1l0.2-0.2l0.2-0.2l0.3-0.5l0.1-0.6l-0.1-0.3l-0.2-0.5
		l0.2-0.6l0.2-0.3l0.6-1.3l0.2-0.3l0.3,0.2l0,0.2l-0.1,0.5l0,0.3l0.1,0.3l-0.2,0.5l0.4,1.2l0.3,0.8l0,0.3l-0.5,0.5l-0.3,0.1
		l-0.6,0.1l-0.3,0.1l-0.4,0.4l-0.3,0.5l-0.1,0.3l-0.1,0.2l-1.2,0.3l-0.6,0.2l-0.3,0.2l-0.1,0.3l0.1,0.5l-1,1.7l-0.3,0.4l-0.3,0.4
		l-0.4,0.3l-0.6,0.2l-0.5,0.3l-0.3,0.6l-0.4,0.5l-0.5,0.4l-0.5,0.3l-0.5,0.2l-0.5,0.2l-0.2,0.2l-0.1,0.3l-0.2,0.1l-0.3,0.1
		L143.5,126.2z M175.1,112.1l0.3,0.7H175l-0.1-0.5L175.1,112.1L175.1,112.1z M173.2,121.2l-0.2,0.1l-0.1-0.3l0.1-0.4l0.4-1.5
		l-0.1-0.4l0.6-0.9l0.4-0.8l0.6-0.8l0.1-0.4l0.5-0.8l0.5-1.2l0-0.4l0.1-0.2l0.1-0.3l0-0.2l0.3-0.4l0.1,0.3l-0.1,0.5l0,0.3l0.1,0.1
		v0.5l-0.1,0.8l0.1,0.9l-0.2,0.9l-0.3,0.4l-0.4,0.3l-0.4,0.2l-0.4,0.5l-0.3,0.5l-0.1,0.5l-0.7,1.6L173.2,121.2z M172,123.1l-0.3,0.1
		l-0.3,0l-0.2-0.2l-0.4-1l-0.5-0.3l-0.5-0.2l-0.3-0.2l-0.2-0.2l-0.8-1l-0.1-0.6l0.1-0.4l0.2-0.3l0.3-0.1l0.6,0l0.3,0l0.7-0.5
		l0.1-0.2V117l-0.1-0.5l-0.2-0.5l0.2-0.2l0.2-0.2l0.3-0.5l0.1-0.3v-0.3l0.1-0.2l0.2-0.1l1-0.4l0.2,0l1.2,0.3l0.3,0.5l0,0.2l-0.2,0.6
		l-0.2,0.4l-0.4,0.6l-0.3,0.7l-0.2,1l-0.1,0.3l-0.4,0.6l-0.1,0.3v0.7l-0.1,0.3v0.3l0.8,1.2l0.1,0.2v0.2l-0.1,0.3l-0.3,0.5l-0.2,0.2
		L172,123.1z M169.6,116.2l-0.1,0.1l-0.1,0l-0.3,0.2L169,116l0.1-0.6l0.4-0.4l0.1-0.1l0.1-0.1l0.1,0l0.1,0.2l0,0.3l-0.3,0.8
		L169.6,116.2z M177.8,115.5l-0.1,0l0.2-0.5l0.2,0.1l0.1,0.1v0.2L177.8,115.5z M156.2,116.1l-0.6,0.2l-0.1-0.5l0.4-0.4l0.5,0.2
		l0.3,0.2l-0.1,0.2L156.2,116.1z M184.6,118.9l-0.1,0.1l-0.1-0.3l-0.3-0.3l-0.3-0.5l-0.2-0.1l0.1-0.4l0-0.6l0.3-0.3l0.1-0.1l0.2-0.3
		l0.1,0l0.1,0.2l-0.2,0.7l0.3,0.9l-0.1,0.5L184.6,118.9L184.6,118.9z M179.2,119.5l-0.1,0.2l-0.4,0l-0.1,0l-0.4,0.5l-0.2,0.1
		l-1.2,0.2l-0.9-0.1l-0.3-0.3l-0.2-0.4l-0.1-0.3l0.2-0.3l0.2-0.2l0.7-0.4l0.2-0.3l0.4-0.4l0.8-0.1l0.1,0.1l0.1,0.1l0.2,0l0.4,0.3
		l0.4,0.2l-0.1,0.7l0.1,0.2L179.2,119.5z M182.5,118.6l0,0.2l-0.6-0.6l-0.1-0.5l0.2,0l0.3,0.2L182.5,118.6z M186.4,119.6
		L186.4,119.6l-0.3-0.3l0-0.4l0.4-0.6l0.3,0.6v0.3l0,0.1l0.3,0.3l-0.2,0.2L186.4,119.6z M186.1,121.8l0.4,0.3l0.5-0.1v0.8l0.1,0.2
		l0.5,0.6l0.1,0.5l-0.3,0.5l-0.2,0.2l-0.4,0.3v0.2l0.2,0.2l0.5,0.1l0.4,0.3l0.1,0.8l0.4,0.6l0,0.3l-0.2,1.1l0.1,0.5l0.3,0.4l0.2,0.2
		l0.1,0.2l0.1,0.6l0,1.1l0,0.4l-0.2,0.3l-0.5,0.8l-0.7,0.6l-0.4,0L187,134l0.2,0.6l-0.1,1.2l-0.2,0.9l-0.2-0.4l-0.2-0.5l-0.1-1.2
		l-0.2-0.5l-0.3-0.5l-0.1-0.4l-0.3-0.4l-0.4-1.1l-0.2,0.1l-0.4,0.3l-0.1,0.2l-0.1,0.3l-0.1,0.3l-0.5,0.4l-0.4,0.5l-0.3,0.6l-0.1,0.5
		l0.3,0.4l0.3,0.2l0.4,0.4l0.1,0.2l0.4,1.2l0,1.2l-0.3,0.5l-0.8,1l-0.5,0.3l-0.3-0.2l-0.2-0.6l0-0.2l0.2-0.6l0-0.5l-0.2-0.2l-0.2,0
		l-0.1,0.1l-0.5,0.7l-0.2,0.2l-0.3,0l-0.2-0.1l-1.4-0.6l-1.2-0.6l-0.9-0.6l-0.7-0.8l-0.1-0.6v-0.7l-0.3-1l0-0.3l0-0.3l0.3-0.6
		l0.3-0.3l0.2-0.2l0.2-0.2l0.1-0.3l0-0.3l-0.1-0.2l-0.6-0.7l-0.5-0.4l-1-0.4l-0.2-0.2l-0.3-0.2l-0.3-0.1h-0.3l-0.3,0.1l-0.1,0.2
		l0,0.2l0,0.2l-0.4,1.3l-0.5-0.3l-0.5-0.3l-0.1-0.2l-0.1-0.3l-0.1-0.2l-0.1-0.2l-0.2,0.4l-0.3,0.3l-0.3,0.1h-0.4l-0.1-0.1l-0.1-0.8
		l-0.4-0.3l-0.5,0.1l-0.6,0.4l-0.1,0.2l-0.1,0.4l-0.6,1.1l-0.3,0.8l-0.4,0.8l-0.2,0.3l-0.2,0.2l-0.3-0.1l-0.3-0.2l-0.3-0.5l0.1-0.6
		l0.3-0.4l0.3-0.4l0.3-1.4l0-0.5l0.1-0.2l0.5-0.7l0.5-0.4l0.2-0.1l1-0.2l0.4-0.2h0.6l0.5-0.1l0.4-0.3l0-0.3l0-0.3l0.1-0.2l0.2-0.2
		l0.2-0.2l0.2-0.2l0.7-0.1l0.2-0.1l0.2-0.2l0.3-0.4l0.3,0.1l0.3,0.2l0.6,0.1l0.5,0.4l0.3,0.6l0.1,0.3l0.1,0.9l-0.1,0.2l-0.5,0.4
		l0.2,0.1l0.6-0.4l0.3-0.2l0.8-0.2l0.2-0.1l0.1-0.2l0.3-0.6l0.2-0.6l0.2-0.2l0.2-0.2l0.2,0l0.8,0.4l0.5-0.2l0.2-0.6l0.1-0.9l0.1-0.2
		l0.3-0.2l0.4,0.1l0.5,0.3l0.5,0.1l0.2-0.3l0.2-0.5h0.2l0.6,0.2l0.6-0.1l0.2-0.6l-0.1-0.7l-0.5-1.9l0.3-0.4l0.2,0l0.6,0.5l1.2,0.7
		l0.4,0.4L186.1,121.8z M185.9,120.5l-0.1,0.1l-0.1-0.3l0.1-0.6l0.1-0.1l0.1,0.4L185.9,120.5z M174.8,122.3l0,0.5l-0.5,0.2l-0.4-0.1
		l-0.2-0.3v-0.1l0.2,0l0.4-0.3l0.1-0.1L174.8,122.3z M180.2,122.7l-0.1,0.3l-0.6-0.2l-0.1-0.2l0.1-0.2l0.3-0.1h0.1l0.3,0.3
		L180.2,122.7z M143.7,127.3l-0.3,0.1l-0.1-0.3l0-0.3l0.2,0l0.1,0.1L143.7,127.3z M142.3,128.9l-0.3,0.4l-0.3-0.4l0-0.6l0.1-0.2
		l0.4-0.1L142.3,128.9z M171.1,131.3l0.1,0.1l0,0.1l-0.5,0.2h-0.2l0-0.4l0.1-0.2l0.2,0.2l0.2-0.2L171.1,131.3z M185,133.4l-0.1,0.3
		l-0.3-0.7l-0.1-0.2l0.2-0.6l0.3,0.3L185,133.4z M166.9,136.1l-0.5,0.1h-0.2l-0.4-0.5l0-0.2l-0.3-0.2l0.1-0.2l0.4-0.1l0.7-0.3
		l1.1,0.5l0.2,0.2l-0.3,0.1l-0.2,0.5L166.9,136.1z M162.3,137.8l0.3,0.3l0.3-0.1l0.5,0.1l0.1,0.2l0,0.1l-0.6,0.3l-0.4-0.3l-0.7,0.2
		l-0.3-0.1l-0.4,0.1l-0.3-0.3l0.1-0.3l0.7-0.4L162.3,137.8z M157.9,141.8l-0.1,0.3l-0.2,0.1l-0.2-0.1l-0.2-0.2l-0.1,0.2l-0.4,0.1
		l-0.3,0.3l-0.4,0.1l-0.3-0.1l0-0.3l0.8-0.5l0.5-0.2l0.4-0.3l0.2,0l0.1,0.3L157.9,141.8z"/>
	<path id="PW" d="M228.2,131.4l-0.3,0.1l-0.1-0.4l0.1-0.4l0.2-0.3l0.2-0.1l0,0l0.2-0.4l0,0.2l-0.1,0.8l-0.2,0.3L228.2,131.4z
		 M211.4,152.7l-0.1,0l-0.1,0v-0.1l0.1-0.1l0.1,0l0.1,0L211.4,152.7L211.4,152.7z"/>
	<path id="RE" d="M-158.1,273.9l-0.7,0.2l-0.5-0.1l-1-0.5l-0.2-0.3l-0.4-0.8l0.1-0.3l0.3-0.5l0.7-0.2l0.7,0.1l0.3,0.1l0.4,0.6
		l0.5,0.6l-0.1,0.7L-158.1,273.9z"/>
	<path id="SB" d="M340.4,203.2l0.2,0.2l-0.4,0.3l-0.5-0.2l-0.1-0.2l0-0.1l-0.3,0.1l-0.7-0.1l-1-0.7l-1-1.3l-1-0.7l-0.2-0.2l0-0.4
		l0.1-0.1l0.6,0.2l0.8,0.6l1.3,0.6l0.3,0.3l0.2,0.8l0.2,0.2l0.7,0.6l0.4,0.1l0.2,0L340.4,203.2z M332.4,202.1l-0.5,0.1l-0.3-0.2
		l0.1-0.4l0.2-0.2l0.6,0.3L332.4,202.1z M352.2,209.2v0.1l-0.7-0.4l-0.5-0.5l-1.4-0.5l-0.3-0.3l-0.3,0l-0.7-0.5l-0.7-0.3l-0.4-0.4
		l-0.1-0.2l-0.3-0.1l-0.5-0.4l-0.4-0.3l-0.2-0.5l-0.4-0.4l-0.1-0.2l1.4,0.3l0.6,0.6l0.5,0.3l0.2,0.2l0.5,0.3l0.4,0l0.4,0.3l0.4,0.1
		l0.3,0.2l2,1.5l-0.2,0.4l0.3,0.3L352.2,209.2z M336.5,206.2L336.5,206.2l-0.2-0.2l-0.1-0.1v-0.3l-0.5-0.5l0-0.3l0.3-0.3l0.4,0.2
		l0.4,0.4l0.5,0.1l-0.1,0.3l-0.4,0.5L336.5,206.2z M338.9,207.1l-0.1,0.1l-0.5,0l-0.4-0.5v-0.4l0.3-0.3l0.4-0.1l0.2,0.1l0.2,0.3
		l0.1,0.4L339,207L338.9,207.1z M336.1,207.4l-0.1,0.1l-0.3-0.6l0-0.3l0.1-0.2l0.1-0.1l0.2,0.7L336.1,207.4z M341.8,207.7l0.3,0.4
		l0.3,0.9l-0.1,0.3l-0.2,0l-0.1,0.2l-0.3-0.4l-0.5-0.1l-0.3-0.3l-0.1-0.5l0-0.3l-0.3-0.1l-0.8,0.1l-0.2,0.3l-0.3-0.1l-0.1-0.3
		l0.1-0.2l0.5-0.2l0.1-0.3l0.5-0.5l0.3-0.1l0.5,0.2l0.1,0.8l0.2,0.3L341.8,207.7z M356.4,208.1l1.2,1.5l-0.1,0.3l-0.2,0.2l-0.1,0.5
		l0.2,0.2l0.3,0.1l0.6,0.5l0.2,0.6l0,0.2l0.2,0.3v0.6l0.5,0.9l0.1,0.4l-0.1,0.2l-0.2-0.1l-0.6-1l-0.7-0.4l-0.1-0.2l-0.7-0.6
		l-0.5-0.9l-0.5-1.7l0.2-0.4l-0.6-0.8l0-0.2l0.3,0.1l0.2,0l0.1-0.1L356.4,208.1z M351.2,209l-0.2,0.1l-0.3-0.2l-0.2-0.2l0.1-0.3
		l0.2-0.1l0.2,0.2l0,0.2L351.2,209z M340,210L340,210l-0.3-0.1l-0.6-0.7l0.1-0.2l0.5-0.4l0.2-0.1l0.2,0.3l-0.1,0.4l-0.2,0.1
		l-0.1,0.4L340,210z M343.5,209.9l-0.5,0.4l-0.3-0.1l-0.3-0.3l0.1-0.4l0.1-0.1l0.1,0l0.1-0.1l0.2-0.2l0.5,0.1l0.1,0.1l-0.3,0.2
		l0.1,0.1l0.1,0.1L343.5,209.9z M343.9,210.6l-0.1,0l-0.1-0.2l0.3-0.5l0.1,0.4l0.1,0.2L343.9,210.6z M341.2,210.3l0,0.2l-0.3-0.1
		l-0.6-0.3l0-0.1l0.3,0l0.3,0l0.2,0.2L341.2,210.3z M348.8,212.1L348.8,212.1l-0.3,0l-0.3,0l-0.2-0.2l0.2-0.2l0.3-0.2l0.1,0l0.1,0.1
		l0.3,0l0,0.3L348.8,212.1z M353.6,211.4l0.3,0.1l0.1,0l0.3,0.3l0.4,0.4l-0.2,0.2l-0.3-0.1l-0.1,0l0,0L354,212l-0.4-0.2l-0.3,0
		l-0.1-0.2L353.6,211.4z M351.5,212.8l1.1,0.8l0.5-0.1l1.4,0l0.8,0.6l0.5,0.3l0.3,0.5l0.3,0.1l0.2,0.3l0.1,0.5l-0.1,0.1l-0.4,0.2
		L356,216l-0.8-0.2l-0.8-0.4l-1.6-0.1l-0.7-0.1l-0.2-0.1l-0.2-0.2l-0.4-0.4l-0.3-0.5l-0.1-0.3l0-0.6l0.1-0.2l0.3-0.2L351.5,212.8z
		 M360.3,214.5l0.1,0.5l0,0.2l-0.4-0.4l-0.2,0.1l-0.2-0.2l0-0.4l0-0.4l-0.1-0.3l-0.2-0.5l0.2,0.1L360.3,214.5z M361.2,218.3l0.6,0.3
		l0.4-0.1l0.5,0.2l0.4-0.1l0.2,0.3l0.6,1v0.3l0.4,0.2l-0.3,0.1l-0.5-0.1l-0.4,0.1l-0.4-0.2l-0.7-0.1l-0.6-0.2l-1.2-0.8v-0.4
		l-0.2-0.2l-0.1-0.5l-0.4-0.1l-0.5,0l0-0.2l0.1-0.4h0.4l0.5,0.2l0.9,0.6L361.2,218.3L361.2,218.3z M382.8,220.1l-0.4,0.1l-0.1,0
		l-0.3,0.1l-0.3,0.3l-0.2-0.1l-0.2,0l-0.1-0.3v-0.1l0.2,0l0.1-0.3l0.2-0.1l0.6-0.1l0.5,0.1l0.2,0.1L382.8,220.1L382.8,220.1z
		 M355.6,225.3l-0.3,0.2l-0.3-0.1l-0.2-0.1l-0.2-0.4l-0.4-0.2l-0.6-0.1l-0.2-0.2l-0.1-0.1l-0.4-0.1l-0.1-0.2l0-0.2l0.1-0.1l0.4,0.1
		l1.8,1l0.4,0.3L355.6,225.3z M386.7,224.7l-0.4,0.1l-0.2,0l-0.3-0.4l0.2-0.1l0.3,0l0.1,0.3L386.7,224.7z"/>
	<path id="SC" d="M-159.4,190.3l0,0.5l-0.2-0.2l-0.1-0.3l-0.3-0.2l-0.2-0.2l0.4-0.2L-159.4,190.3z"/>
	<path id="SG" d="M78.1,161l-0.7,0.3l-0.8-0.3l0.3-0.5l0.5-0.1l0.5,0.1l0.2,0.1l0.2,0.1L78.1,161z"/>
	<path id="TF" d="M-177.5,423.8l-0.4,0.1l-0.3-0.1l-0.2-0.4l0.4-0.3l0.2,0.2l0.2,0.3L-177.5,423.8z M-92.5,443.2l0.4,0l0.2-0.1
		l1.1-1l0.3,0l0,0.8l0.3,0.3l-0.3,0.1l-0.7,0l-0.2,0.4l0.7,0.6l0.3,0.1h0.3l0.5-0.1l0.4-0.2l0.6-0.5l0.4-0.2h0.7l0.4-0.4l0.2-0.1
		l0.4,0l0.4,0.2l0.2,0.4l0.1,0.5l-0.1,0.5l-0.3,0.5l-0.5,0.3l0.1,0.3l-0.1,0.2l-0.2,0l-0.2-0.1l-0.3-0.4l-0.3-0.2l-0.8,0l-0.4,0
		l-0.1,0.3l-0.2,0.2l-0.2,0.1l-0.3-0.1l-0.1,0.1l0.2,0.3l0.4,0.4l0.6,0.3l0.4,0.1l0.1-0.5l0.5-0.1l0.4,0.2l0.3,0.4l-0.2,0.1
		l-0.2,0.2l-0.1,0.3l-0.4,0.3l-0.2,0l-0.8-0.1l-0.5-0.3l-0.1-0.2l-0.3-0.1l-0.3,0.3l-0.3,0.1l-0.7-0.3l-0.6-0.4l-0.4-0.2l-0.6-0.1
		l-0.3,0.9l-0.5,0.4l-0.6,0l-0.3-0.1l-0.2-0.4l0-0.4l0.1-0.4l0.2-0.4l0.1-0.4l-0.1-0.4l-0.2-0.3l0.1-0.5l-0.2-0.4l0.1-0.3l0.3-0.2
		l-0.1-0.2l-0.2-0.1l-0.1-0.2l-0.1-0.3l0.1-0.5l0.2-0.5l0-0.6l0.3-0.5l0.3-0.6l0.2-0.2l0.3,0l0.1,0.2l0.1,0.3l-0.1,0.2l0.2,0.1
		l0.1,0.7l-0.2,0.3l0,0.3l-0.3,0.6l0.1,0.5L-92.5,443.2z M-92,442.8l-0.3,0.1l-0.1-0.2l0-0.3l-0.2-0.3l-0.1-0.3l0.1-0.3l0.5,0
		l0.5,0.1l0.1,0.5l-0.4,0.6L-92,442.8z"/>
	<path id="TK" d="M487.7,209.4L487.7,209.4L487.7,209.4L487.7,209.4l-0.1-0.1l0,0L487.7,209.4L487.7,209.4L487.7,209.4z M494,213.2
		L494,213.2L494,213.2L494,213.2l-0.1-0.1h0L494,213.2L494,213.2L494,213.2z"/>
	<path id="TL" d="M184.3,207.2l-0.3,0.8l-0.3-0.2l0.4-0.5l0.2-0.1L184.3,207.2z M181.5,214l-0.2-0.6l-0.2-0.3l-0.1-0.2l-0.1-0.2
		v-0.2l0.1-0.1l0.6,0l0.2-0.3v-0.4l-0.1-0.1l-0.1-0.1l-0.6,0.3l-0.2-0.1l-0.1-0.1l0-0.4l0.5-0.4l0.4-0.8l0.3-0.3l0.7-0.3l0.3-0.1
		l2.1-0.4l0.5,0l1.3,0l1.8-0.1l0.4-0.1l0.6-0.2l0.5-0.2l0.3-0.2l0.3-0.1l0.5,0.2l0.8,0.1l0.2,0.1l0.2,0.1l-0.9,0.8l-1,0.6l-0.6,0.2
		l-0.6,0.1l-0.5,0.2l-0.4,0.4l-0.5,0.2l-0.6,0.1l-0.5,0.1l-0.5,0.2l-0.6,0.4l-0.2,0l-0.3,0l-0.5,0.2l-1.6,0.6l-1,0.6L181.5,214z
		 M176.4,213.1l0.8-0.4l1.2-0.3l0,0.2l-0.1,0.4l-0.2,0.2l-0.3,0.3l-0.2,0.1l-0.7-0.1l-0.1,0.1l-0.1,0l-0.2-0.2L176.4,213.1z"/>
	<path id="TO" d="M480.5,259.9l-0.2,0.3h-0.1L480,260l-0.1-0.1l0.3-0.4l0.2,0l0.2,0.1l0,0.1L480.5,259.9z M474.5,273L474.5,273
		l0.1-0.2l0.3-0.1l0,0.2l-0.3,0.5l-0.2-0.2l-0.6-0.3l-0.1-0.3l0.2-0.2l0,0.2l0.1,0.1l0.4,0l0.3,0.1l-0.2,0.1L474.5,273z
		 M475.7,273.7l0,0.8l-0.2-0.4l0-0.2L475.7,273.7L475.7,273.7z"/>
	<path id="TV" d="M437.6,197.3L437.6,197.3L437.6,197.3l-0.1-0.1l0-0.1L437.6,197.3L437.6,197.3z M432.7,198.1L432.7,198.1
		L432.7,198.1L432.7,198.1l0-0.1L432.7,198.1z M444.4,204L444.4,204L444.4,204L444.4,204L444.4,204z M447,209.3L447,209.3l-0.1-0.4
		l0.1,0.1l0,0.1l0,0.1v0.1L447,209.3L447,209.3L447,209.3z"/>
	<path id="UM-81" d="M468.2,166.4L468.2,166.4L468.2,166.4L468.2,166.4z"/>
	<path id="UM-84" d="M467.3,163.6L467.3,163.6L467.3,163.6L467.3,163.6L467.3,163.6L467.3,163.6z"/>
	<path id="UM-67" d="M502.2,84.8L502.2,84.8L502.2,84.8L502.2,84.8z"/>
	<path id="UM-71" d="M463.6,24.2L463.6,24.2L463.6,24.2v-0.2l0.1-0.1l0.1,0l0,0.1L463.6,24.2z"/>
	<path id="UM-79" d="M385.4,71.7L385.4,71.7l-0.2-0.1l0,0l0.1-0.1l0.1,0l0.1,0V71.7L385.4,71.7z"/>
	<path id="VU" d="M389.5,235.8L389.5,235.8l-0.2,0l-0.3-0.6l0.1-0.2l0.4-0.2l0.3,0.3l0,0.2v0.2l-0.1,0.1l-0.2,0.1L389.5,235.8z
		 M389.9,237.6l-0.2,0.3l-0.6-0.1l-0.1-0.1l0-0.4l0.1-0.1l0.3-0.1l0.5,0.2L389.9,237.6z M385.8,240.5l0.3,1.7h0.4l0.2-0.1l0.2-0.4
		l0.1-0.6l0.2-0.1l0.2,0.1l-0.1,0.2l0.1,0.5l0.2,0.3l0.1,0.1l0.2,1.3l0.1,0.3v0.2l-0.5,0.5l-0.8,0l-0.5,0.3l-0.3,0v-0.3l-0.3-0.3
		l-0.3-0.6l0.1-1l-0.6-1.8v-0.5l0.2-0.6l0.2,0l0.3,0.5L385.8,240.5z M392.9,243l-0.1,0.3l-0.2-0.4l-0.1-1.5l0.1-0.1l0.1,0l0.2,1.1
		L392.9,243z M391.5,243.6l-0.3,0.2l-0.6,0l-0.2-0.1l0.8-0.7l0.9-0.1L391.5,243.6z M393,246.3L393,246.3l-0.2-0.2l-0.3-1.2l0.2-1.1
		l0.1,0.2l0.4,1.9l-0.1,0.3L393,246.3z M388.2,245l-0.1,0.1l-0.5-0.3l0.1-0.3l0.6,0.1L388.2,245z M389.1,246.9l0.2,0.1h0.1l0.1,0.2
		l0.7,0.5l0.2,0l0.2,0.3l0.3,0.1l0.1,0.3l0.2,0.3l-0.4,0.3l-0.7-0.1l-0.4,0.4l-0.4-0.1l-0.1-0.2l0.1-0.1l-0.2-0.5l-0.1-0.8l-0.2-0.5
		l-0.2-0.2l-0.3,0.2l-0.1,0l-0.3-0.4l0.2-0.8l0.1-0.2l0.3,0l0.4,0.2L389.1,246.9z M393.4,248.1l-0.6,0.1l-0.8-0.2l-0.3-0.2l-0.1-0.2
		l0.3-0.2l0.4-0.1l0.5-0.5l0.2,0.2l0.2,0.6l0.2,0.2l0.1,0.2L393.4,248.1z M394.2,250.4l0.1,0.1l-0.1,0.2l-0.7-0.2l-0.5,0.1l-0.2,0
		l-0.2-0.2l-0.1-0.4l0.1-0.3l0.2-0.2l0.1,0l0.2,0.2l0.2,0.2l0.2,0.1l0.3,0.4L394.2,250.4z M394.2,254.3l0.5,0.7l0.2,0.1l-0.3,0.5
		l-0.6,0.1l-0.7-0.1l0.3-0.2l-0.1-0.2l-0.2,0l-0.2,0.1l-0.1,0l0.2-0.3l0.4-0.5l0.1,0h0.1l0.1,0L394.2,254.3z M398.5,261.4l-0.2,0.2
		l-0.2,0l-1.3-0.6l0.1-0.2l-0.1-0.6l0.1-0.3l0.3-0.1l0.3,0.1l0.2,0.5l0.4,0.2l-0.3,0.2l0.5,0.4L398.5,261.4z M399.3,264.5l-0.3,0.6
		l-0.5-0.1l-0.4-0.4l-0.2-0.3l0.1-0.7l0.2-0.1l0.2,0l0.1,0.7L399.3,264.5z M401.3,267.9l-0.2,0.3h-0.3l-0.3-0.2l0.1-0.2l0.4-0.1
		l0.1,0L401.3,267.9z"/>
	<path id="WF" d="M469.6,233L469.6,233l-0.2-0.2l0.1-0.3l0.1-0.1l0.1,0.2L469.6,233z M460.4,237.9l-0.3,0l-0.3-0.1l-0.2-0.3l0.1-0.1
		l0.2,0.1l0.2,0.2L460.4,237.9L460.4,237.9z"/>
	<path id="WS" d="M488.4,233.6l0.5,0.5l0.2,0.6l-0.2,0.6l-0.5-0.1l-0.8,0.1l-0.2,0l-0.6-0.7l-0.4-0.3l-0.2-0.3l0.5,0l0.8-0.2
		L488.4,233.6z M492.7,236.5h-1.3l-0.7-0.2h-0.2l-0.6-0.5l-0.1-0.2l0.3-0.2l0.6-0.1l1.2,0.4l0.2,0.3l0.3,0l0.2,0.1l0.1,0.2
		L492.7,236.5z"/>
</g>
</svg>