<svg xmlns="http://www.w3.org/2000/svg" xml:space="preserve" viewBox="0 0 512 512"><g><path id="AS" d="M496.3 238.1h-.2l-.2-.2.5-.2.2-.1h.6l-.4.1z"/><path id="AU" d="m207.7 222.9-.2-.5.1-.1.1-.1h.1l.5.5.2.1.3.3h.7l.8-.4.4.2h.2l.6-.3.4-.1.2-.3.3.3.6.3.2.3.2.2.1.1-.3.4-.1.4h-.4l-.4.6-1.7 1.1-1.5-.9-.6-.6-.4-.9zm32.2 22.1.1.2.3.2.2-.2-.1-.2v-.4l-.3-.3-.1.3-.1.1-.1.2zm11.1 5.1h.2l.3-.1.2-.2.2.1.4-.5.3-.2.7-.1-.5-.6h-.1l-.6.2-.8.1-.3.3-.3.5-.1.5.1.1zm14.3-32.9.1-.3-.2-.2-.2.3.2.3zm-27.3 6 .7-.9.2-.9-.2.1v.4l-.1.3-.1.1-.2.2-.4.7-.2.2v.2zm-20.1-1 .4.8.1-.1.2-.7-.2-.3v-.5l-.1-.1-.2.3-.3.1.2.4zm19.1 2 .5-.4.1-.2-.1.1-.9.4-.4.5zm2.3 20.3.2-.2-.1-.4-.2.2zm25.9-24.9v.1l.1.3.3.2.4-.3-.4-.6zm-27.6 24.7.1.2h.4l.1-.4-.2-.1-.3.1zm1.8-7-.5-.2-.2-.2v-.2l.2-.6.1-.2.1-.1.3-.3-.1-.2-.1-.1-.1-.1-.2.5h-.2l-.2-.2-.1-.4v-.2h-.2l-.3.2-.2.4-.5.3-.1.7.1.6-.2.2-.3.2.1.1h.5l.9.2h.6l.6.1.2-.2.1-.3h-.3m70.4 49.4.1-.1.2-.2-.1-.3-.2-.4.1-.3-.1-.1h-.2l-.2-.1-.4-.2-.1.4.7 1.1zm8.9 10.8.1-.1v-.4l.3-.9 1-2.4.1-.5-.3-.3-.1-.9-.1-.1-.2.1-.2.1-.2.3.2.1.3.5-.1.5-.2.3-.7.7.1.6-.1.3-.3.5-.1.6.1 1zm1.8 8.5.1-.1-.1-.6.2-.9-.2-.1-.3.1-.1.5.1.5zm-.1.9v.9l.2.2h.1l.4-1.5-.1-.1-.4-.1zm-14.1-27.8.2-.1-.1-.4-.2-.1v.3l-.2.2.1.1zm-2.9-.7v-.2l-.1-.5-.2.1v.4l.1.4zm-18.7-20.3.4.4.2.5.3.2.1-.2.1-.2-.2-.4-.1-.5h-.1l-.1.1-.2.1zm-18.8-40.5.3-.3-.2-.3-.4.1-.1.2.1.2zm32.6 50.1.1-.1.1-.5-.2.1-.1.2-.1.2.1.1zm.3.8h.2l.1-.1v-.1l-.2-.3-.1-.3-.2.7zm-46.7-16.8-.2.2.1.2.2-.1.5-.1-.1-.3-.3-.3zm29.5 118.5-.3-.3h-.6l-.1.1v.3l.3.2zm13.8 10.2-.1-.1-.5-.2-.9-1.2-.3-.2-.5.7-.3.2.2.3h.3l.1.4-.1.3.7 1 .1.3.1.2.2.1.5-.2.4-.4h.1l.1-.2-.3-.3.2-.2zm-.3 3.4-.2-.1-.4.1.1.1.3.3zm-15.3-12.5.7-.1.4.2v-.1l-.2-.3-.1-.1-.3-.1zm-1.6 12.5v-.4l-.2.2-.2.1.2.7zM235.9 235l-.1.1-.1.1v.2l.4.1.1-.1.2-.2-.1-.4-.2-.2zm111.4 250.9-.3 1.7.1.4.2-.3.3-1.1.1-.9zm-51.8-103.4-.6.3h-.7l-.2.2.1.2.4.3h.5l.5-.1.2.4.2-.1.3-.3-.3-.4zm.1 11.7-.1-.2-.1-.2v-.2l.1-.5-.1-.7.1-1.1-.1-.6v-.6l.1-.8v-.8l-.1-.4v-1.5l-.4-.6-.9-.5h-.3l-.5.6h-.3l-1-.2-.2.2-.4.6-.2.2-.3-.1-.3-.2h-.2l-.2.2-.6.1h-.6l-.3.2-.3.3-.1.3.1.4-.3-.3-.3-.2-.4.2-.4.2-1.3.1-1-.3-1.4-.6-.2-.2-.2-.2-.2-.1-.5-.2-.2-.3-.2-.1h-.3l-.4-.2-.3-.4h-.3l-.3.2h-.6l-1.1-.4-.5-.3-.1.7-.3 1.3.1.6.2.7.3 1v.3l.1.2.7 1.5.7 1.2.9 1.3.1.6-.1.6h.3l.2-.3v.3l.1.2.8.8.1.2-.3.7-.2-.6-.3-.5-.9-.7.2 1.5.2.6 1.1 2.6.1.2.2.1.2.2.3.5.6 1.1.3.3.5-.1.7.2.2-.1.2.1.1.3h-.6l-.6.1-.1.2.2.2.1.7.7-.2 1.1.1.7-.1.7.6.7.1.2-.1.4-.7.2-.9.2-.3.2-.3-.4-.4v-.2l.1-.2.9.7.3-.3.1-.6v-.4l.1-.3.2-.1.1-.3v-.3l-.2-.6v-.3l.5.7.2.9.4-.2.1-.1-.1-.6.2-.2.6.2.5.4v.4l-.1.2-.4-.2-.2.3.2.7.4.6.3-.2.5-.1.2-.2-.1-1.3-.2-1v-1l.1-.6.2-.4.2-.5v-.6l.1-.6.2-.6.3-.4.1-.1-.1-.1.1-.4.2-.3.1.3-.2.1-.1.2.3.2.1.2v.5l.1.2.2.1.1-.3-.1-.4zm25.7-83.2-.6-1.1-.1-.8-.2-.7-.9-2-.4-1.2.2-1.2-.4-3.7.4-1.9-.2-.2-.5-.3-.2-.3-.3-.7v-1.4l-.6-.9-.7-.4-.5-.7-.3-.6v-.3l-.2-.5-.5-.4-.3-.2-.8-.5-.4-.6-.8-1.6-.3-.4-.7-.5h-.6l-.4-.1-1.3-1-.4-.2-.3-.5-.5-.5-.3-.4-.4-.4-.3-1.5v-1.4l-.1-1.7-.5-.8-.2-.3-.3.1v.5l.1.4h-.2l-.7-.5-.8-.5-.5-.6-.3-.5h-.3l-.2.1-.2.6.3 1.1-.2.2-.3-.3-.5-.6-.2.2-.3.1-.3-.6-.2-.4-.3-1.2-.3-1.4v-1l-.6-.5-.2-.9-.2-.3-.2-.6-.7-.9-.7-.6-.6-.6-.5-.8.2-.6.4.1.4-.1-.3-.6-.3-.4-.8-.8-.4-.2-.8-.1-.9-.7-.5-.3-.4-.1-.4-.1-.3-.4-.5-.1-.8-.8-.4-.8-.2-.3-.3-.2-.4.1-.3.1-.7-.1-.2-.3-.4-.4-.9-.1-.7-.2-.5-.2-.5-.3-.5-.5-.4-.7.1-.9.1-.6-.5-.2-.9-1.2-.1-.5.2-1 .3-1.7-.4-1.3-.7-1.6.1-.8h-.4l-.4-.2-.6-.8-.4-.5-.3-.5-.3-.6.1-.5.1-.3v-.9l-.4-.9-.1-.9-.4-1.1.1-.8-.1-.6-.1-.5.1-.3.1-.4-.5-.4-.6-.3-.7-.6-1.3-.9-.3-.7-.6-.6-.7.2-.5.1-.5.5-.7.3-.7-.3-.3-.3-.2-.9-.3-1-.3-.5-.5-.5.2-1.5-.3-.7-.1-1-.3-1.2-.3-.6v-.5l-.5-.7-.2-.5-.3-.2-.4-.3-.1-.4v-.3l.2-.5.1-.6-.6-.2h-.4l-.3-.2-.3-.3-.1-.9v-1l-.1-.6-.2-.5-.1-.5-.3-.5-.8-.7.1-.3.2-.3-.3-.2h-.4l-.2.5-.4.4-.8.3-.1 1.6-.5 1.8-.4 1.3.1.4v.4l-.2-.2-.2-.2-.3.5-.6 1.3-.1.7.3.2.2.2.3.1.1.2.1.3.2.3-.1.3-.2-.1h-.5l-.2.3-.6.5.2 1.6-.3.8-.3.6-.3 1.2v.6l.3.5.3.7-.2.9-.2.7.4 1.9.1 1-.2.7-.6 2.1-.3 1.5.1.8-.3.8-.3 1.2-.3.9-1.2 1.9-.2.9-.4 1.1-.9.7-.7.4-1.5.4h-.9l-.4-.2-.2-.2-1-.4-1.2-.8-.9-.3-.5-.8-.1-.3-.2-.4-.5-.6-.9-.2-1-.4-.6.1-1.1-.3-.9-.5-.8-.7-1-1.2-.9-.3-1.1-.5-.6-.4-.4-.2-.4-.3-.4.1h-.7l-.4-.3-.1-.2.1-.2v-.3l-.1-.1h-.2l-.1.1-.2.1-.6-.3-.8-.4-.2-.4-.3-.5-1.2-.7-.7-.6-1.5-.8-.4-.4-.1-.3-.1-.5.3-.5.3-.4 1-1.5.3-.3.4-.4.3-1.1.2-.6-.3-.9v-1.6l1.2-.6.3-.1.3-.1.3.2.2.3.2-.1.6-1.1-.1-.5-.3-.4.1-.2 2-2.2-.2-.5-.3-.1h-.6l-.5-.5-.3-.9h-.5l-.9.9-.1.2.2.1.2.5-.3.6h-.3l-.5-.1-.2-.5-.1-.7-.3-.2-.4.1-.3.2-.2.1-.2-.2v-.3l.5-.5.4-.3v-.1l-.3-.1.1-.2.4-.4h-.2l-.5.4-.5.2-.7.5-1 .3-.7.5-.9-.1-.9-.5-.2-.2-.4-.3-.9.4h-.6l-.3-.1-.6-.1-.5-.3-1.2-.5-1.2-.1h-.6l-.4-.3-.4-.2-.8-.1-.3-.4-.4-.8-.3-.2-.5-.1-.5.4-.3.2-.6-.7-1.1-.7-.3-.1-.2.2-.1.3h-.2l-.2-.2-.4-.4-.3-.1-.7.5.1.2.6.2.6.6.3.1.7-.2 1 .1 1 .8-.1.4-.1.5v1l.4.4h-.2l-.5-.1-.4.1-.3.2-.2.6-.2-.3-.6-.3-.3.2-.6.3-.5-.1-.3-.1-.8.2h-1.4l-.5-.3-.1-.6-.1-.1-.1.3-.2.3-.9.1-.1.1.1.3v.4h-.3l-.4.1.1.4.1.3-.2.2-.4-.3-.2-.3-.3-.1-.2.1-.1.3v.8l-.2.1h-.6l-.3.1-.4 1-.7.4-.1.5-.1.4.6.8-.3.4-.3.3-.3.1-.7.1-.5.3-.2.4v.4l-.1.5-.2.5v.3l-.4.3-.8.9-.4.9.5.5.6.3h.4v.1l-.5.4.3.4.4.3.3.1.2.1-.4.1h-.6l-.1.4.1.4.1.4-.1.3-.2-.2-.1-.3-.5-.6-.4-.2-.6-.1-.2.2v.9l-.1.4-.2-.2-.1-.6-.5-.5-2.1-.5h-.3l-.5.1-.3.2v.2l-.2.2-.4.2-.3.3-.2.2v.3l.3.6.2.2v.3l-.3-.3-.2-.1-.2.4h-.8l.1-1.2.2-.8.2-.5.2-.4-.1-.2-1.4-1.1-.6-.9-.4-.5-.7-.5-.4-.3-.8-.5-.9-.3-.5-.5-.5-.2-.6.2-.1.4.1.4-.5.7-.5.4-.4-.4-.4-.3-.4.2-.1.4-.2.1-.1-.2-.2-.6-.3-.2-.3.1.1.4.2.2-.1.3-.2.2-.1.3-.1.4v.6l-.4.1-.3.5-.2-.1-.1-.3-.1-.3-.4-.1-.1.3-.1.1h-.1l.1-.2v-.5l.1-.5-.4-.2-.2.1v.4l-.1.6-.4.1-.3.3h-.5l-.2.1-.1.3-.4.3v.4l.3.4v.3l.7.4v.4l-.1.2-.3-.1-.6-.3-.6-.1-.2-.1-.1.1v.2l-.2.2h-.3l-.4.3.3.4-.1.2.1.2h.6l.2-.1v.3l-.1.3-.2.1-.2-.3-1.1-.6-.3-.1-.1.2.1.2-.2.3-.4.4-.3-.1-.3.1-.2.7-.1.7.4.5.2.6.5-.8.2-.1v.3l-.2.3-.1.4v.5h-.3l-.4-.1-.1.2-.1.3.1.5.2.2h1.1l.4.2.1.2-.4-.1-.8.1-.4-.1h-.8l-.6-.3-.3-.3-.4-.1-.4.1-.2.4-.3.1-.6-1-.4-.1-.2.2.2.6-.1.4-.2.3h-.3l-.2.1.1.3.4.6.4.3.3.4.2.3h.4l.1.3-.2.4v.6h-.2l-.2-.1-.4-.4-.2-.1-.1.1v.3l.1.7-.2 1 .1.3v.2l-.2-.2-.2-.4h-.7l-.6-1.3-.6-.9-.3-.8-.5-1.4h-.3l-.3.6-.4.8-.2.4-.6.4-.4.4-.4.1-.5.5-.3.4-.5.9-.1.6v.6l.2.9.2 1.3.3.1.3.2-.1.4-.4.2-1.3 1.2-.8.4-.2.3-.3.6-.5.8-.2.5-.5 1-.8 1.1-.8.8-.9.6-.6.3-2.2.9-1.2.3-2.1.3-.9.4-1.1-.1-1.2-.1-1.7 1.4-1.4.3-1.3.2-.5.2-1.3.8-.7.4-1.4.4h-.6l-.8-.4-.7.1-.8-.1h-.6l-.5.3-2.9 1.7-.6.5-.6.7-.9.6-.7.7-1.4.7-1.5.6-.7.5-.5.6-.9 1.7-.2.4-.4.4-.5.2-.3.1.1-.8-.3-.8.2-1.4-.1-.4-.5.3-.3.3-.8 2.1-.5 1.6.4.9.1.5v.6l-.1.8v.5l-.1.7-1 1.7-.3.7-.3 1.4v1.6l.4.9.3.5.5 1.5.6 1 1 2 1.1 1.7.1.6-.1.9.1.9-.2.3-.4.3-.5-.4-.2-.3-.3-1.3-.1-.1-.2.5-.2.2-.2-.2-.2-.2v-.2l.1-.3.1-.9-.5-.5-.4-.6-.4-.1-.3.3v.3l.6 1 .4 1.1.6.7.3.2.4.4-.1.9-.3.3-.2.2-.8-.2-.2-.7-.6-1.3-.2-.5-.2-.1-.1.2v.5l-.1.2h-.1l-.2-.2-.2-.1h-.1l.2.3.5 1 1.9 2.3 1.6 2.7.3 1.1.2 2.4.2.6.9 1.2.9 1.4.3.7v.6l.2.6 1.1 1.5.5 1.6.1.6-.1 1 .1 1.8.1 1 .4 1.9.5 1.4.6.9.8 1.9 1.2 2.2.2 1.1-.1 3-.1 1-.3.2-.2.4.3 1.9.1 1.1-.4 1-.4.9-.8.6h-.9l-.4-.4-.5-.4-.1 1.7v1.4l.2.6v.6l.6.5.3-.2h.4l1.4.7.8.6 1.3 1.6 1.1.4 1.5.7 1.7.2h1.4l2.1.4.5-.1.9-.1.7-.2.6-.2 1.9-1.5 1.8-1.5.9-.1h.8l1-.5.9-1.6.5-.3.6-.4 1.7-.2 1 .2.5-.3 1.4-.3 2.9-.3 1.6.2h1.1l.6.1.4.7 3.1-.6h.9l.5.1.7.5.8-.5.7.1.7-.5 1.1-1.4.5-.9.8-1.9.6-.7.6-.3.8-.1 1.2-.3 2.5-1.6 1-.3.5-.3 1.7-1.2 1.1-.2 3.1.3 1.5-.1 1.2-.2 1.7-.6 1.9-.5 2.3-1 2-1.1 1.2-.2 1.9-.2 2.7-.3 3.2.1.8-.2.4-.2.6-.2.7.1.5.2 1.6.8 2.4 1.8.5.1 1.6-.4h.5l2.2 1.3h1.6l.6.1.6.3.7.8 1.5.8.1.6-.1.4h-.3l-.3.1.4 1.3.6 1.1 1.5.1.5.4.3.4.3.7.2 1.1.8.9.7.8.2.3.3 1.1.1.3.3 1.1.4 1.2-.1.1h-.2l-.4-.3-.4-.3-.2.1-.2.2v.3l.3-.1h.2l.5.4.4.4.3.3.8 1.1.3-.2.4-.2.6.6.2.1.1-.2-.2-1-.2-.3-.1-.4.3-.3.1-.3.7-.8 1.5-2.4.5-.3.5-.5.7-.4.8-.5.5-.2.5-.1.5-.4.6-1.2.4-1.4.5-.6.7-.6.5-.9-.1-.7v-.7l.4.6.2.6.4 1.9-.3.4-.3.2.1.7.2.9.1.7-.7.7-.6.9-.8 1.8-.1.5-.1.8.1.7.1.6-.2 1-.3.9h-.7l-.6.1-.6-.1-.6 1.9.4.1.3-.1h.6l.6-.3.9-.3.5.1h.6l.9-2.5.2-1.6.5-.7.1-.5.2-.5.5.8.4.8.8 1.3.3.6.1 1.6-.5 1.8-.3.5-.4.5-.3.8 1 .2h.6l1-.5.2-.1h.5l.2-.3.5-.3.4-.3.5-.3.4.2.1.1.1.2-.2.3v.8l-.3-.1-.3-.5-.4.5-.2.3-.5-.1.1.2.3.4 1 .8 1.1 1.1.4.5.9 1.7.6 1.8-.1.5v1l-.2 1v.5l.2.6.4.6 1.7 1.8.9 1.6 1.2.8 1.9.3 1 .6 1 1.2.3.1.5.1.6-.7 1 .1 1.3.7.8-.2.5.1.8.4 1.1.8 1.2.4.7.6.5.1 1 .4.7-.3.6-.4 1.4-1.5 1.1-.7.6-.3.5-.1.6-.5-.4-.3-.3.1-.6-.2.3-.2.4-.2 1.7-1.1.5.3.3.4.3.5-.3.7-.2.3-.5.5h-.9l.6.6.5.4 1.1-.7.3-.6.2-.3.4-.1.5.1.2.4.1.5-.4.1-.2.4-.1.4.7.5.3.3h.4l.5.1.4.7.3.8.4-.2.2-.2.4.2.5.6.4.7v.3l.3.1.3-.2.1-.3v-.5l-.1-.9-.2-.1-.4.5-.2-.3-.3-.4v-.3l.4-.2.3.1h.4l2.1-.3 2.6-2.8 1.2-1 1.2-.8 1.2-.5.6-.2 3.3-.3 1.7.1.9-.2.4-.3.7-.7.5-.4.6-.1.1-.5v-.6l.1-.6-.2-1.1.1-1.4.1-.8.4-1 .2-1.1.2-1.5.1-.9.2-.8.5-.9.4-.6.9-2.2.3-.2h.3l.1-.1v-.1l-.1-.1-.1-.3.1-.2.3-.2.1.1.1-.1v-.1l-.1-.6.2-.9.2-1.5.3-.7.2-.5.6-.8.7-.8-.2-.1-.3-.1.2-.2.2-.1.2.1.2-.3v-.5l.2-.8-.2-.7.3-.2.4-.1.2-.7.1-.3.2-.3.4-.6.3-.6.7-1.2.7-.5 1-.4.1-.2-.3-.1v-.1h.4l.2-.4.4-.3.7-.7.2-.6.1-.5.1-1.1 1.1-1.5.8-2 .2-1.3.2-.7.1-1-.1-1.1v-.9l.8-2.3.2-.9.2-.6.4-2.2v-1.2l.6-1.3.7-1.1.1-1-.2-.8zm-115-85.6.9-.3.9.3.5-.1v-.2l-.1-.2-.2-.2-.4-.1-.1-.4-.2-.4v-.5l-.2-.4h-.2l-.2.1-.5.6.2.3.1.6-.3.2-.3-.1-.1.5.2.2zm-83.3 73v-.4l-.2-.4-.6-1.6-.2.1-.2.2.3 1.2.9 1.7.1-.2-.2-.4zm11.1-27 .3-.4.1-.4-.1-.2-.4.4-.2.3.1.2zm44.7-27.9h.2l.2-.1v-.2l-.2-.2-.1-.2h-.2l-.1.1-.1.2.2.2zm3.3-4.3v-.5l-.2-.1-.2.2-.1.5.2.2zm108.6 161.4-.1.2v.2l-.1.1.2.1.1.3.1.1h.3l-.2-.8zm-.1 1.4h-.1l-.2.3-.1.3-.1.1-.1.2-.1.2-.3-.1v.1l.2.5.4-.1.4.1.2-.7-.1-.3zm4-4.5-.3-.2-.2.3v.5h.1l.3-.1v-.2l.3-.2zm-50.1-43.4-.5.2-1.2-.1v-.1l.2-.4-.2-.2-.3-.1-1-.1-1.2.4-2.2.5-.3.4-.2.5.2.3.8.6.8.1.6-.1.6.1.3-.3.8.2.3.3.7-.3.2-.5.2-.2.8-.2.9.2h.3l.3-.3-.4-.6zm30.4 25.1-.1-.9-.4-.4h-.3l-.1.5-.3.3-.1.2v.5l-.1.5.2.5-.1.5.1.4h.1l.5-.2.4-.4.1-.4-.2-.5zM174.3 228.5l-.1-.1v.1z"/><path id="BN" d="m132.3 143.5-.4.2-.4.3-.4.2-.2.2.1.2.1.6.1.4.1.2.1.2-.1.2-.2.4.1.1-.2.5-.2.3-.3.3-.2.1-.2-.1-.3-.3-.3-.4-.1-.3h-.5l-.2-.2v-.2l-.1-.3-.2-.3-.3-.2-.4-.2-.2-.1h.6l.6-.1.6-.3.6-.3.5-.4.5-.4.5-.3.8-.4h.3v.3zm0 0h.6l.1.2.3.6.2.6.1.9.2.4v.1l-.1.1h-.2l-.4-.1-.3-.1-.3-.9-.1-.5v-.6z"/><path id="CC" d="M43.1 227.2h.1zl-.1-.2v-.1.2zm.4.1h-.1zv-.1z"/><path id="CX" d="m86.7 218.8-.1.3-.3-.2-.3-.1.1-.3h.3l.2-.1z"/><path id="FJ" d="m436.7 228.8-.2.1h-.3l-.1-.1h.1l.2-.1h.2zm14.3 18.4-.2.1v-.1l.2-.1h.1zm.2 1.8-.3.2v-.3l.3-.2.2-.1-.1.2zm4.7 3.9-.1.2-.1-.1.1-.3v-.1l-.2-.2v-.1l.1-.1.3.2.2.1v.1l-.1.1zm3.5 3.5-.3.1-.2-.2.2-.2.2.1zm-3.6.1-.1.1h-.1l-.1-.1-.1-.1.2-.1.2.1zm1.1 1.3-.3-.1-.1-.1.3-.1h.1zm-5.1 3.6v.2h-.1l-.1-.1h-.1v.3h-.1v-.3l.1-.1zm6.2 1.2h-.2l-.1-.1v-.1l.1-.1.1-.1h.1-.1v.1l.1.1zm-.9 7.8-.1-.1zm-6.3-23.1-.7.7-.3.3-.2.4-.6.4-.3.6v.6l.6-.6.7-.5.2-.1h.2v.2l-.1.2-.1.4.2.4h-1l-.6.2-.6.1h-.2l-.2-.1-.1-.1-.1-.3h-.6l-.7.5-.3.4h-.3l-.3-.1-.4.3-.5.1-.2-.3-.1-.3-.2-.3-.5-.1.1-.3.1-.1.1-.2.1-.2.2.1.3.1.3-.2h.3l.3-.5.5-.3.6-.2.6-.2h.3l.3-.1.6-.4.4-.2.4-.1.4-.1.4.1h.3zm0 1.8-.1-.1.1-.2zm.7.8-.2.1-.5.4-.3.5-.2.5.1.2.4-.2.1-.2.5-.4.2-.4zm-14.2 2.3-.2.1.1-.4.1-.1h.2l-.1.3zm10.7 1.2-.2.1-.1-.7h.2l.1.1.1.2zm-5.6 0v.2l.1.1h.1l.3.4.6.4.3.3v.2l-.1.3.1.5.1.5.2.8-.3.1h-.5l-.1.1-.2-.1-.5.1-.4.2-.4.3h-.5l-.5.1-.5-.1-.4-.2-.7-.2-.9-.2-.4-.1-.3-.2-.3-.6v-.3l.1-.3.3-.1.2-.1v-.2l.1-.1h.1l.1-.1-.1-.3v-.3l.5-.5.6-.4 1-.4h.6l.9-.3.3-.1.3.1zm2.7 1.8-.2.1-.1-.3.2-.3h.2l.1.3zm2.5 1.9-.5-.4v-.2l.1-.1.2-.1.2.2.1.4zm-4.2 4.5v.2l-.6.1-.2-.2h-.1l-.4.3-.1.1v.1l-.1.1-.7.2-.3-.2.2-.1.2-.2h.3l.3-.2.3-.3.4-.1.3-.1.4.1zm-18.9 14.1h-.2v-.1l.1-.1.1.1z"/><path id="FM" d="m245.6 121-.4.4v-.1l.1-.2.2-.3.1-.2.2-.1.1.2-.2.2zm67.4 10.1h-.1v-.1h.2zm-1.2.5-.3.1h.1v-.1h-.1l.1-.1h.1zm32.7 2.6-.3.1-.4-.1-.1-.4-.2-.1v-.2l.2-.2.5.1.2.3-.1.2zm22.9 7.3.1.2-.3-.1v-.1l.2-.1z"/><path id="GU" d="M278 102.3h-.2l-.2-.2-.1-.1v-.6l.7-.5.2-.5h.2l.2.1.1.2-.8.8z"/><path id="HM" d="m-70.3 474.6-.6.4h-.6l-.3-.3-.4-.9-.3-.1-.1-.3v-.1l.3-.1.4.3 1 .2.7.5.5.2-.2.1z"/><path id="ID" d="M171.1 220.9h-.5l-.1-.1v-.4l.1-.2 1.1-.3.4-.3.6-.6.4-.2.1-.1h.1l.1.5.1.3v.1l-.5.2-.5.5-1 .3zm-5.2-1.6-.2.1-.5-.1-.1-.1.5-.2.3-.3h.4l.2.1-.1.4zm7.5-1.4-.4.2v-.4l.3-.5.3-.2.2.2v.1l-.5.2zm-16.7-4.6.2.2.8.4.1.2.1.3.2.2h.4l.4-.1.3.1.3.2.4.4.3.5.4.3.2.4-.1.3-.5.5-.3.1h-.4l-.6.3-.2-.2-.7-.1-.5-.2-.5-.4-.3-.4-.3-.4-.6-.2-1-.7-.6-.1-.3.1h-.3l-1.4-.3-.2-.2-.2-.2-.2-.2-.1-.3.2-.2.2-.2.8-.3.5-.1h.6l.9-.1.9.1.3-.1.5-.3.2.1zm24.2-1.6.2.1.6-.3.1.1.1.1v.4l-.2.3h-.6l-.1.1v.2l.1.2.1.2.2.3.2.6-.3.3-.2.5-.6.5-.6.8-.5.4-.5.5-.4.3-.5.1-.7.1-1 .6-.6.2h-.5l-.5-.2-.2-.2.1-.3.2-.2.2-.2.1-.2-.6-.3-.1-.2.2-.6.1-.7.2-.5.8-.8.5-.4.3-.2.1.2.2.2h.1l.1-.1.7.1.2-.1.3-.3.2-.2.1-.4v-.2l.6-.2.3-.2.3-.3.9-.5.2-.1v.4zm-45.8-1.4-.1.2-.4-.3-.1-.1.3-.2h.1l.3.2zm36.1-1.1-.2.3-.3-.1.1-.3.1-.2.4-.2h.4l.2.1.1.1-.6.1zm-17.2 1-.2.1-.2-.1.1-.4-.1-.3.2-.2.1-.4.1-.1.1.1.1.1h.3l.1.2v.2l-.1.2-.3.2-.2.2zm18.9-1.9-.1.2h-1.3v-.3l.4-.3.1-.1.4-.1.6.2zm-32.7 1.3-.6 1 .2.2.1.2-1 .2-.4-.1h-.2l-1-.2-.8-.2-.1-.2.1-.2.2.1h.6l.2-.1v-.7l-.1-.9.8-.7.4-.3.5-.2 1.2.4.2.1.2.2.1.2zm37.5-1.5-.3.3-.2.5-.2.2-.4.1-.2-.5h-.4l.2-.5.2-.2h.3l.1.2h.1l.6-.8h.2l.1.1zm-1.8-.2-.7.1-.4.6h-.3l-.2.3v.3l-.1.1-.3-.2-.3.2-.1.1-.4-.2h-.5l.5-.5.6-.4.1-.2h-.2l-.1-.1v-.1l.4-.1h.3l.2.1h.1l.9-.5.3.1.2.1zm73.4.5-.2.1-1.2-.1-.1-.2v-.1l.3-.2.3-.3.4-.1h.2l.5.8zm-104.6-.1h-.1l-.2-.1.1-.2-.1-.3v-.3l.3-.2h.6v.2zm7.4-.6h-.2l-.1-.2.1-.2.2-.1h.1l.1.2v.1l-.1.1zm27-.5.1.3.4-.2h1.2l.6.1.4.1v.6l-.2.1-3.2.5-.3-.1-.1-.1.3-.4-.2-.2.2-.3.4-.2zm15.9-.2.9.2h.5l.1.2-.5.4-1-.3-.2-.3zm-24.7 2.5-.7.2-.4.2-.4.2-.3.1h-1.2l-.5.1-1.3.6-.5.1-.4.1-.1-.2-.2-.2h-.8l-.4.5-.7-.1-.3.1-.2.1-.2.1h-.3l-1-.4-1.1-.2-1.1.1-1-.2-.5.2-.5.2-.1-.2-.2-.2-.2-.3v-.4l.1-.3.1-.2.1-.2v-.3l.2.1.2-.1.7-.3.6-.4.6-.2.3-.1.3.1h.3l.3-.1.5.3.2.1h.7l.6.2.5.3.8.3.5.4.3.1h.3l.2-.1.3-.2.4-.1h.3l.6-.1.2-.1.3-.1.3.1.2.1 1 .6h.3l.5-.1.2-.2.1-.3.1-.2.2-.2.2-.1.7-.2.5-.2.3-.4-.8-.2.2-.3.3-.2.3.1.3.2.1.9-.2.1-.2.1-.1.2-.5.3.2.4-.1.2zm39.6-1.4-.4.2.3-.4.9-.9.3.2h.4l-.6.4-.7.2zm-61.9 0 .2.2h.2l.5-.3.3-.1h.3l.3.1.3.2.1.3.1.1.2-.4.2-.1.2-.1h.4l.3.2.3.6v.5l.1.2.2.1.1.2-.1.2-.1.1-.3.1h-.2l-.2-.1-.2-.1-.4.1-.4.1.1.2.3.1.1.1v.1h-.1l-.4-.2h-.3l-1 .2h-.1l-.1-.2v-.5l-.1-.1-.7.7-.2.2-.3.1h-.3l-1 .4-.3-.1h-.3l-1.1.4-.6.1h-.9l-.2.2-.5.1-.5-.1-.5-.2-.4-.2-.1-.2v-.3l.2-.4-.1-.7.1-.3.2-.3.2-.1h.3l.5-.3.5-.4h.3l.6.3h1l.3.2.1.4.1.1.2.1.5.6h.4l.4.1.7-.4h.5l.1-.3-.3-.3-.4-.3-.2-.1h-.4l-.8-.6-.2-.3-.1-.4.1-.3.6-.2.3-.1 1 .2.2.1.3.6zm-13.7-.8.5.3.7.8.1.2-.2.2-.5.3-1.1.5-.2.2-.2.5-.1.2-.1.1-.1.1-.2.1-.3-.1.2-.3v-.4l-.2-.3-.2-.3-.4-.4-.5-.3-.5-.2-.6-.1-.2-.2-.3-.4-.1-.2-.1-.2v-.2h.1l.6.1 1 .3h.5l.3-.1.8-.5h.2l.7.2zm70.6-1-.3.5h-.3l-.6-.6v-.4l.1-.1h.2l.8.1.2.3zm-14.9-1.4.1.2v.1l-.6.1-.6.3-.3.3-.2.4-.8-.2h-.7l-.3-.1h-.3l-.4.1-.6.3h-.1l.1-.5.2-.3.6-.8.5.2.6.1.7-.1.5-.3.7-.2.6.4zm3-.2-.3.1.1-.4v-.3l.5.1v.2l-.1.1zm54.5 3.2-1.2.6-1.5-.1h-.5l-.9.2-.2-.1.2-.6.7-1.6.9-1.4.4-.4.5-.3.5-.3 1.2-.3 1.1.1.2.1.5.5.3.4.1.5-.5.9-.5.9-.9.7zm-35.3-1.4h-1l.1-.4-.2-.3.2-.4v-.4l.3-.1v-.3l.3-.7.2-.2.3-.1.3-.4.2-.1.2-.3.3-.1v-.3l.1-.1.4-.1.3.1.2.3-.5.3.2.8-.3.9-.2.3-.4.2-.1.2-.5.5-.1.4zm3.2-3.9-.1.2-.2-.1-.2-.3h-.3l-.2-.1-.1-.1.8-.1zm-86.1-.3-.1.2-.2-.1-.2-.3.1-.1h.3zm69.9.2-.2.1-.4-.3-.1-.1.2-.2.2-.1.2.1.1.1v.4m-38.8-.3h-.7v-.5l.5.2h.2zm-33.9-.1h-.9l-.5.4-.4.1h-1.3l-.2-.1h-.2l-.1.1-.4-.1-1.4-.3-.1-.2.2-.3.5-.5 1-.1h4.5l.5.4.1.1-1 .3zm7.5-.6-.4.1-.4-.2v-.2l.1-.2.6-.1h.3l.3.2.2.2.1.2h-.8m94.6-1.1-.2-.1v-.1l.2-.3.2-.2h.2l-.1.2zm-144.2-.6-.3.1-.2-.1-.1-.1.3-.3.2-.1h.2l.1.2zm144.4-.4-.3.1-.1-.4.2-.1.2.2zm.5-.6h-.1v-.2l.1-.2.1-.1h.2zm-1.4.1-.1.3-.1.4-.5.4-.3.7-.2.2-.6.3-.5-.4-.2-.3.2-1.5.2.1h.2l.1-.1-.3-.2-.1-.8v-.3l.3-.1.3.2.4.4.5.3zm-133.2-2.1.5.6.4.3.5.2h.5l.5.1.6.2.6.1h.3l.3-.1h.2l.2.1.4.5.5.4.1.2.3 1 .4.3.5.1h1.2l1.3.2h.5l.5-.2.4.2 1.2.3.6.1.6-.1h.6l.3.1.3.1.2.1h.3l.5-.2.3-.5.2-.6.2-.6.1-.3.2-.2.2-.1.2-.1.7.1.1.1.8 1 .1.1.8.1h.2l.5-.2h.3l.5.2.2.2.2.2 1.2.2.5.4.2.1.9-.1h.6l.5.1.2.6.2.6.1.2.5.2.2.2-.1.6.1.6 1.1.5 1.2.3h1.2l1.2-.1.6-.1.8-.2h.2l1.5.7.1.1.2.5v.5l-.3 1.3v.6l.3.8.2.2.6.4v.2l-.1.2-.6-.1-.4-.2-.2-.3-.3-.2-.6.1-1.1-.3-1.2-.4-2.1-.9h-.2l-.6.1-.6.2-.6.2-.5.1-.5-.1-1.2-.2-1.2-.1-3-.1-.8-.2-1.4-.1-1.1-.2-1.1-.3-2.8-1.3-.9-.3-2.8-.6-.4-.1-1 .1-.5-.2h-.6l-.8.2-.3.1-.3.3h-.6l-.6-.1-1.5-.3-.6-.2-.5-.3-.5-.3-.2-.1-1.3-.3-1-.1-2.1-.2-.5-.1-.4-.1-.2-.3v-.3l.2-.3.2-.3.1-.3-1.6-.6-1.2-.3-.5-.1h-.5l-.6.1h-.6l-.3-.1h-.3l-.3.1h-.2l-.1-.3.1-.2.3-.3.3-.3.1.4.1.1.3.1h.1l.4-.6.1-.3.2-.7.2.1.2-.1h.3l.4-1.7.3-.5.5-.4.2-.1.4.2.9.1.5.2h.5l.5.1.7.3h.3l.3-.1.4-.3.2-.5.6.3.8.1zm81.8-.2-.1.2-.2-.3-.2-.1v-.3l.2.1zm-17.3 1.6-.2.8-.1-.3v-.8l-.1-.4.1-.4V196l.2-.5.3.6.1.3zm-38.3-2.4-.1.2h-.5l-.1-.2.3-.3h.2l.2.1zm98.5.2-.3.5-.2-.2h-.1l-.1-.3.1-.6-.2-.6h.3l.1.2.1.1.3.6zm9.6-.7v.5l.1.3-.2.3.2.5v.5l-.1.2-.1.5-.1.2-.1.1-.1.1-1-.2-.4-.3-.4-.3-.1-.1-.4-.4-.1-.1v-.2l.3-.1h.4v-.2l.2-.7-.6-.4-.1-.2.2-.1.5.2.6-.8.2-.2.1-.4.3-.1.2.1.1.3.1.2-.1.2.3.1zm-9 .9-.4.4.4-1 .1-.5.3-.3.5-1.5h.1l.2.1-.3 1.1-.7.8zm-149.8-2h-.4l-.7-.6-.1-.2.2-.2h.2l.9.4.2.2zm104.2-1v.5h-.2l-.2-.2-.1-.2v-.1l.1-.1zm-7.7.8-.3.1-.6-.6-.2-.5.1-.3.2-.2.1-.1v-.2l.2-.1h.3l.2.3.2.1.1.3zm2.9-.9-.1.3-.3.2h-.2l-.2-.1-.4-.2-.1.2h-.3l-.1-.3.2-.9.3-.3v-.3l-.3-.7.2-.4.8-.3.7-.4.2-.1.2.3.1 1.3-.7 1zm2.6-3.5.1 1v.3l-.3-.4-.1-.1-.1.1-.1.1h-.1l-.2.4v.4l-.1.3-.1.9.1.2.2-.1h.1l.5.3.3.2-.1.3-.3.3-.4.1-.3-.1-.1.1-.2.2-.1.2v.2l-.3.6-.2.2-.4-.2-.2.2h-.2l-.3-.6v-.3l.3-.3v-.2l.1-.2.3-.3.2-.3v-.2l.1-.6.1-.3.1-.3.1-.6v-1l.5-.9.5-.2h.2v.2zm51-1.5.2.3-.6-.2-.8-.4-.1-.3.7.4zm-50.6-.6-.5.6h-.3l-.4-.4-.1-.4v-.2l.3-.2.9.1.2.2zm26-2.6-.8.3.2-.5.1-.1.4.1zm-1.4.4-.1.2-.3.1h-.2l.1-.2-.1-.1-.2.1-.3.1-.4.3-.2-.1-.1-.2v-.1l.4-.4.5-.1.7-.4h.3l-.1.2-.1.2-.1.2zm2.2-.6v.3l-.3-.1h-.2l-.2-.4.1-.1.3.1h.1zm-60.3-.4-.2.8-.3-.5.3-.6.2-.1zm54.9-.7.1.2-.5-.1-.2-.2.2-.1h.1zm-55.5 2.7-1 .9-.2-.2.1-.9-.3-.6v-.4l.2-.8.3-.6.6-.4.1-.1v.7l.1.3v.2l-.1.2.1.9.1.2-.1.3zm51.8-3.8.8.4.2.2.1.3.2.2.2.1.3.3.1.4-.1.8-.4.1-.3.1-.7.5-.3.1h-.4l-.3.1-.3.1-.7-.3-.7-.3-1-.5-.2-.1-.2-.3-.4-.5-.1-.3v-.9l.1-.2.2-.1.6.2.4-.2 1.2-.2h1.7m5.5-.8-.2.4h-.4l-.1-.1.5-.3zm-103.4.4-.1.1-.3-.1-.2-.1-.1-.1v-.1l.3-.2.6.2zm2.8-.5-.2.1-.1-.1v-.1l.1-.2h.3l.1.1zm109.3-.2 1.1.5.6.1 1-.1.4.1.9.7.3.5.1.4.1.4.2.1h.3l.3.6.1.2-.3 1.4-1.1-.5-1.1-.6-.5-.2-1.2-.5-.2-.2-.1-.2-.5-.3-1.1-.1h-.4l-.2.1v.5l-.3.1-.7-.2-.6-.1-.5-.2-.7-.1-.1-.1.1-.2v-.2l-.2-.1h-.3l-.3.2-.2.2-.4.5-.2.2-.6.1-.2-.1-.2-.1-.7-.9-.1-.3-.3-.2-.2-.1-.2.1-.1.3-.1.3-.1.2-.3.5-.2.3-.1-.1.1-.5v-.3l-.2-.3-.1-.3 1.2-1.4.4-.3 1.8-.1 1.1.1h.6l.4-.1.3.1.1.3.2.2h.3l.5-.2.5-.3.3-.1h.6l.3.1zM60.7 183l.2.7-.6-.5v-.3l-.1-.2-.3-.3-.3-.3-.1-.8.1-.2h.2l1 1.1.1.2v.4l-.1.1zm38.1-1-.1.5-.1.2-.4.3-.1.2h-.4l-.1-.3-.1-.2-.4-.2-.1.1-.1.3-.8.2h-.2l.1-.4-.2-.3v-.6l-.1-.1.2-.3v-.3l.2-.3.1-.8.8-.2.2.1 1 .2.7.5.4.6zm-39.2-1.2-.3.4h-.6l-.1-.2v-.6l-.1-.2v-.1l.1-.3.1-.1.9.8zm167.5-3-.1.1-.1-.2.1-.3.1-.1h.1l.1.1zm-169.3 1v.1l-.8-.4-.4-.1-.3-.5.1-.2v-.3l.1-.1.2-.1.3.2.2.6.4.5zm128.5.6-.4-.2-.2-.8-.2-.2-.2-.7.1-.2.2-.3h.2l.1.2-.1.8.4 1zm-10.8-2.4.1.2h-.3l-.1-.4v-.2zm10.7-.8 1.5.2-.2.2-1.6.3-.6-.1-1.8.2h-.2v-.3l-.2-.2.3-.2h.4l1 .1zm-14.1.1-.4.4v-.2l.1-.2.1-.1.2-.1zm35.3-.6.1.3.3.3-.1.4-.1.1.1.2.1.1-.2.1-.2-.1-.3.1-.2.2-.6.1-.2-.2-1-.2-.6-.5-.1-.1 1.3-.5.5-.1h.5l.6-.2zm-26.4.1.5.2h.2l.2-.2h.1l.2.1.1.3.3-.1.2.1.1.1v.3l-.9.1-.6.3-.8-.2-1 .4-.6.1h-.5l-.4-.7.2-.8.2-.1.3-.1h.9zm51.5-.6 1.9.2h.5l1.1.1.9.3 1.6.1.5.1.4.2-.9.2-.4.2-.8.1-.7-.1-.5.1-.2-.2-.7-.2-.9-.3-1.9-.4-.1-.3zm-130 .1-.6.2-.2-.5.4-.1.4.1zm-14.3.3.2.3.2.3.2.3.2 1.6.8 1.3 2.2.6-.4.2-.2.2-.1.2-.3.9v.2l.2.3.1.3H91l-.3-.1-.2-.1-.2-.2-.2-.1-.3-.1-.5-.3-.6-.2-.6-.1-.3-.4-.1-.5.2-.7-.2-.2-.2-.2-.3-.5-.2-.6-.4-.2-.5-.1-.2-.1-1 .2-.2-.1-.2-.2-.6-.2v-.3l.3-.3.6-.3.3-.2.1-.3-.1-.2v-.2l.2-.2.2-.2.6-.2.3.4.1.3.2.2.3-.3-.2-.6.5-.1h.5l.3.2.2.3zm86.1.1h-.3l-.2-.1v-.7l.2-.2h.1l.1.2.1.2.2.2zm22.3-.2-.3.2-.2.1-.7-.1h-.8l-.9.2-.5-.2-.3-.2v-.3l.3-.7.7-.5.3-.1.5.1.8.4.6.5.6.3zm-24.2-2.3.1.3-.2.3.2.5.5-.7.5-.1.3.1.2.1.1.2-.2.5-.3.2h-.4l-.2-.3h-.3l-.2.7-.1.1-.2.1-.2-.2v-.1l.3-.3-.2-.9-.2.2-.6.8-.5.4-.2-.2-.2-.6.1-.7.4-.5h.3l.9-.2zm-66.2 0-1 .5h-.2l-.2-.2.1-1 .1-.3h.7l.4.1.2.2.1.3-.1.2zm123.8-.3-.2.1-.3-.1-.3-.4.1-.3.3-.2.2.2.1.2h.2zm-175.5 3.2H54l-1-.6-.2-.3-.1-.3-.9-1.3-.1-.3.4-1.1.9-.3.3.2.1.5.5.9.2.5.1.2.1.2-.1.1.4.6.3.3v.5zm156.1-2.2-.2.1-.6-.1-.3-.3-.2-.4-.1-.3v-.3l-.2-.3v-.1l1.1-.3.2.1h.5l.2.2-.1 1.1zm-.5-2.7-.1.2-.2.2-2.1.3.2-.2.1-.2.1-.1h.2l.1-.1h.2l.2-.1.4.1h.4v-.2zm22-.6 1 .2h.4l.4.2.5-.1.3.1.9.7.4.5.6.4.5.1-.3.4-.7.2h-.3l-.5-.2h-.4l-.4-.3-.1-.4-.4-1-.5.3-.6-.5h-.2v.1l-.2-.2-.2-.3zm-39.6.6-.1.1-.5-.1-.1-.1.3-.7h.2l.2.7zm16.2-1.2h-.3l-.5-.2.3-.2h.2l.2-.1h.1l.2.1.1.2zm-42.9-.6.2.2-.1.2-.2-.1h-.6l-.2.1h-.1l.1-.2.4-.3.2.1zm56.9 1.6 1.2.1.6-.1.6.1.2.1.4.4-.1.2-.1.5.2.5.3.5.3.5.1.3-.1.5-.1.3-.3.5-.2.5.1.6.1.6v.6l.1.5.2.6.8 1.5.5 1 .2-.6v-.6l.2-.2.2-.1.3.1.1.3v.6l.3 1.1.3.1.4-.2.1.3v.6l.2.5.1.2.6.4.3.1.8.1h.6l.6-.1.4-.4.3-.4 1.1-.9.3-.4.3-.7.1-.1 1.1-.7.1-.3.2-.5.2-.5.2-.3 1.1-.2 1.1-.1 1.1-.5.5-.4v-.3l-.2-.5v-.2l.3-.2 1-.6 1.2-.6.9-.4h.5l.5.3.5.3 2.6.9.4.3.4.3.5.2.6.1.5.2.5.3 1.1.5 1.5.7h1.8l.2.1.2.2h.2l1.6.1.2.1.2.2.1.5h1.1v18.3l-.2.5-.3.8-.1.6.3.5.3.3v10.9l-.3-.2-.7-.5-.6-.6-.4-.6-.5-.5-1.9-1.6-.5-.5-.1-.1.1-.1.2-.3.4-.8-.4.5-.5.4h-.7l-.7.1-.6.2-.6.1-.3-.1-.2-.3-.1-.3.1-.3-.3.5-.5.3-.7.6-.2-.1-.1-.2v-.2l.1-.2.1-.3.1-.6.3-.4.2-.7.1-.3.1-.3-.2-.3-.3-.1-.2-.2-.3-.5-.2-.2-.3-.2-.2-.2.2-.2.3-.1h.3l.5.1h.2l.6-.2-.3.1h-.3l-1-.3-.6-.3-.6-.6v-.1l.4-.1.9-.1-.3-.3-.4-.3-.1-.5-.3-.3-.6-.5-.4-.5-.3-1.1-.3-.8.1-.3.3-.2h-.5l-.4-.2.2-.4.5-.2-.4.1-.4.1h-.4l-.1-.2v-.2l.1-.4-.1-.4-.4-.2-.3-.3-.2-.1h-.2l-.2-.2-.2-.3-2.2-1.2-.1-.3-.2.1-.2.1-.3-.2-.3-.1h-.3l-.3-.1-.3-.1h-.3l-1.2-.4-1.1-.6-.9-.2-.6-.3-.6-.3-1.3-.3-1.3-.2h-.5l-.4.1h-.4l-2.2-1.2-.4-.6v-.3l.1-.3.9-.1-.6-.1h-.3l-.5.2h-.3l-.4-.2-.4-.2-.6.2-.3-.3-.1-.3-.2-.1h-.2l-.3.1h-.3l-.2-.2-.1-.3-.2-.2-.3-.1-.4-.3-.2-.5v-.8l.1-.3.4-.5.3-.5-.4-.1-.3.2-.1.2-.1.3v.9l-.3.2h-.4l.1.5-.2.5-.5.6v.3l.1.3-.1.3-.8.8h-.8l-.6.1-.3-.2-.2-.2-.2-.3-.2-.6-.2-.6.6-.8-.2-.7-.4-.6-1-.8-1-.8-.5-.2-.8-.1-.2-.1-.2-.3-.2-.3.5-.1.8-.4h.5l1.2.2.4.2.3.1.8-.6.7-.8.4-.2.3-.1.4.1.7.3.6.1h.4l.2.3.2.1.1-.4.2-.5.4-.1h.2l.1-.1v-.4l-.5-.1.3-.4.3-.2.1-.2v-.2l-1 .4-1.1.2-.6-.1h-.6l-1.3.3h-.5l-1.1-.1-.6-.1-.5.1h-.5l-.5-.3-.4-.4-.2-.3-.3-.2-.1-.3-.3-1.1v-.8h-.5l-.5-.1-2.1-.7-.3.2-.3.1h-.6l-.3-.1v-.2l.2-.5.2-.2.3-.1.2-.3.3-.8v-.8l.2-.1.8-.2 1.7-.4.4-.2.3-.4.4-.2.2-.2.2-.2 1.3-.5h.6l.6.1 1.1.3 1.1.5.9.6zm-142.2-1.9.5.5.1.2-.2.3-.2.4-.1.1-.3-.1-.2.4-.2-.6-.3-.4.2-.4h.2l.1.1zm113.2-.1.6.7-.4.7.3.4h.7l.2.1.1.2.1.2-.2.2-.4.2-.5-.2-.1-.2-.1-.1-.6.2h-.2l-.1-.3.1-.5-.4-.2-.4-.5v-.2l.2-.3v-.3h.2l.4.4.2-.3.2-.1zm-1.5.9-.3.1h-.3l-.1-.5.1-.7.3-.1.5.1-.2.2.1.3zm-115.3-.8-.6.2-.7-.1.1-.3.3-.3h.3l.6.2.1.2zm132.8-1.6.9.2h.2l1.2.5.2.3-.1.2.2.2-.4.4h-.2l-.2-.1-.4-.1-.5.2-.3-.1-.2-.3-.4-.2-.6-.7h-.3l.1.3.3.2.3.5.2.1h.2l.3.2v.3l-.7.1-.2-.3-.1-.5-.4.2-.2.2h-.1l-.3-.5h-.8l-.5-.3.2-.3v-.3l.3-.1.3.1.3-.2.2.1.2-.1.7-.1zM51 170l-.3.2-.4-.2.1-.3.1-.4.3-.3.1-.4-.5-1.1h.2l.2.1.3.7.3.4-.1.6zm31-1.7.1.1.2-.2.3.3.2.2.3.2h-.3l-.1.2h-.1l-1-.6-.7.2-.5-.2-.1-.1.2-.3.2-.7.5.2.1.2v.1l.3.1zm121.5 0h-.2l-.2-.3-.5-.3-.3-.5 1.1.9zm-10.3-.8v.2l-.2-.2-.1-.1.1-.5.1-.1.1.4zm-111.6-.4v.1l-.2-.1-.1-.1-.1-.1-.5-.7h.2l.6.6zm-6.9-2.3h-.6l-.2-.1.1-.5.2-.3h.2l.3.4zm118.3-.5-.2.1h-.1l-.1-.2.1-.3h.2l.1.1v.3m-.2-.7-.2.2-.2-.1-.1-.2v-.2l.1-.1.2.1zm-117.3.6-.1.1-.4-.6.1-.3.1-.1.2.2.2.2.1.3zm1.9-.7v.1l-.5-.3v-.2l.1-.1.3.2zm2-.1-.3.1-.4-.4v-.2l.1-.1.2.2.3.1zm-6 .4-.1.2-.2-.1-1-.2h-.3l-.8-.2-.2-.1-.2-.2.1-.3.1-.2.1-.5.2-.2.4.4.5.3.3.1.8.3.3.2zm2-1.5v.3l-.3-.1-.2-.3.2-.2.1-.1.1.3zm-1.3.9-.1.1h-.2l-.3-.2-.3-.3-.4-.3-.5-.2-.3-.1-.1-.1.1-.5h.3l1 .5.3.3zm4.2-1.5.3.2.3-.1v.2l-.1.2-.3.5-.5-.1-.1-.2v-.1l.1-.1v-.2h.2zm2.8-.2v.4l.3.2.1.3-.1.4-.3.5-.1.1-.3-.1-.1-.2-.1-.1.1-.1-.3-.1.2-.2-.1-.3-.7.2h-.2v-.4l.5-.4.3-.1.3.1zm-10.6 1.1-.2.1-.3-.2-.2-.3-.1-.3-.1-.6v-.4l.1-.2h.1l.4.2.3.4.1.1v.4l-.1.4zm-24.2-2.3 1.1 1.4.4.2.6.6.1.2-.1.4-.1 1.2-.3.3-.7-.2v-.2l-.4-.9-.7-.5h-.3l-.2-.5-.3-.6-1.1-1.2h.8l.4-.3.1-.2.1-.1zm24.5 0v.6l-.4-.2-.3-.2-.5-.2-.6-.1-.4-.2-.3-.3v-.2l.1-.1 2.1.6zm109.8 2.3-.9.8-.3.4-.2.4-.4.5-.4.4-.2.1-.5.2-.3.1h-.6l-1.7.3h-1.2l-1-.1-.2-.1-.4-.4-.5-.3h-3.9l-1.1.1-1.1.2-.6-.1-.6-.2-.4-.1h-.4l-2 .3h-.5l-1-.3-.6-.1-.6.1-.5.3-.2.2-.6.7-.3.5-.2.6-.2.6-.1.5v.5l.1.6.2.6.2.5.7 1.1.1.2.8.3.5.4.4 1.1.3.5h.6l.6.1.6.1.6-.3.3-.6.3-.5.8-.9.4-.4.3-.1.3.1.2.2.3.2.6.1.6-.1.6-.3.2-.2.2-.2.5-.2h1.2l.6.1 1.1-.1v-.2l-.2-.2-.1-.1.2-.1.7-.2.7-.1.5.1.5.3.2.3.1.3-.2.9-.1.2-.4.1-.4-.1-.4-.5-.5-.2-.7.1-.2.1-.2.2-.4.5-.3.5-.9 1.1-.8.7-.4.3-.5.2-1.5.5-.4.4-.3.5-.3.2-.4.1-.3-.1-.6-.3-.2.2v.3l.3.1.5.4.4.5.2.1.5.2.2.2.4.4.6 1 .2.6.3.5 1 .8.1.2-.1.3.1.2.4.4.1.3-.4.4v.5l-.2.7-.1.2v.2l.2.2.2.2.3.1.2.1.5.5.2.1.2.2v.3l.2.2.2.3.3.1.1-.1.1-.1.2.1.1.2.1.3v.9l-.1.2h-.3l-.5-.2v.4l-.2.1h-1l-1.3.4-.5.2-.3.4v.3l.1.6-.2.2-.6.1-.8-.2-.5-.2-.3-.1-.4-.4-.1-.5.3-1.4.1-.2.1-.2.1-.3v-.3l-.4-.4-.6-.2-.5-.3-2-1.8-.1-.2v-.3l.1-.3.6-1 .1-.2.1-.8v-.6l-.1-.6-.3-.4-.5-.1h-.6l-.5.1-.5.3-1 .7-.4.4v.5l.2.5.3.5.2.5.2 1.7v.2l-.3.5-.1 1.1.1 1.6.2 1-.1.5-.5 1.2-.1.6v.3l.5 1.2.1.5.1.5-.6-.2h-.3l-.3.1-.6.1h-.6l-.2.1-.4.3-.3.1h-.2l-.8-.4-.5-.4-.4-.5-.1-.5.1-.6.2-.6.4-1v-.7l.1-.5.2-.5.1-.5.1-1.9-.1-.2-.6-1.1-.1-.2v-.3l.1-.3v-.3l-.1-.2-.2-.2-.3-.1-.6.1-1.2.3-.3-.3-.3-.4-.2-.6-.1-.6.1-.6.2-.5-.1-.4-.2-.4v-.2l.1-.2.2-.2.3-.1.2-.2.7-.6.2-.5v-.6l.2-.6.3-.5.4-.5.1-.5-.2-.8.1-.4-.1-.4v-.4l.2-.8.7-1.6.7-.9.3-.2.4.4.3.5v-.7l-.1-.4-.3-1-.2-1.9.1-.2h.2l.3-.2.1-.3-.3-.7v-.2l.5-1 .4-.4.2-.2.1-.6.2-.2.3-.2.4-.4.2-.5h.2l.2.5.2.2.5.2.4-.2.1-.2.2-.2.3-.2.2-.2.2-.6.3-.5.2-.2.3-.1.3-.1h.3l.6.3.4.1h.4l.2.1.2.1.2.3.2.2.2.1.2.1 1.3-.1 1.2.3 1.6.1.6.2.5.2.6.4.2.1h.3l.3-.3.3-.1h.3l1 .1 2.8.4.4-.1 1.7-.8.7-.8.6-.2.2-.4.1-.4.2-.1.5-.1.2-.1.4-.5.4-.5.2-.1.6.1.3.2.3.7-.1.1-.4.3-.1.1-.4 1-.3.5zM67 157.3l.3.4.1.3-.2.3-.1.5-.6.3-.5-.1-.2-.1-.3-.7v-.6l.2-.2h.5l.5-.3zm127.6 6 .3.1h.4l.2-.2.1-.3.2-.5.4-.3.3-.1.2-.2v-.8l.3-.4 1-.6.6-.2.7-.1.1.2-.1.3.1.5-.1 1.3-.2.2-.8.4-.8.3-.2.1-.2.3v.3l.7.5 1 .4.2.2.1.3v.4l.2.2.3.1.2.2.2.3-1.8-.6-.5-.3h-.6l-.6-.1-.6-.2-.6-.1-.3.2-.1.3-.1.4.1.5v.3l-.1.5.4 1.4.5 1.2.8 1.2.4.4.4.4-.7-.1-.2-.4-.9-.4-.2-.2-.6-1.1-.2-.2-.6-.4-.2-.3-.1-.4.1-.4v-1.2l.1-.7-.2-.2-.3-.2-.3-.5-.1-.6v-.3l.1-.3.2-.3v-.3l-.4-.4-.5-1v-.5l.6-1v-.5l.1-.3.1-.3.3-.7.5-.6.8-.8.3-.2.3-.1v.2l-.1.2-.6.9-.1.2v.3l.3.2.3.4.1.6v.6l-.1.6-.1.2-.5.6-1.1.7-.1.2v.2l.2.2zm-149.1-6v.1l-.5-.5-.6-.3.2-.1.5.1.2.1.2.3zm152.6.1-.8.1-.2-.2-.2-1 .6-.8.7-.5.5-.1h.2l.4.6-.3 1.2-.4.6zm-14.9-2.9-.1.1-.2-.6.2-.3.2.1.1.1-.2.3zm-141.9 1.4-.3.1-.3-.1-.2-.3-1.3-.8h-.4l-.3-.2-.3-.1-.4-.5-.1-.3.3-.1.2-.3.4.1.5.5.5.2.1.1.2.3 1.2.7.1.2.1.2zm60.9-2.6-.2.3-.3-.2.4-.5h.1zm-15.4.2h-.2l-.1-.1v-.4l-.1-.1v-.2l.2.1.1.1.2.1.1.1h.1l-.1.3zm2.6-1.5v.3l-.3-.2-.1-.4.1-.1.2.1zm55.8-.5-.1.2-.4-.4-.1-.3.1-.2h.4l.2.1zm39.2-.8-.1.2-.6-.3v-.4l-.1-.2-.2-.2-.1-.2.1-.2.4.3.2.5.3.5zm5.8-1.6-.2-.1-.1-.1v-.1l.1-.1.3.2zm-.6-.5v.2l-.3-.5-.1-.6.2.2.3.4zm-43.3-1.6.2.5v.2l-.9.2-.5-.6.1-.2h.5zm-46.9 2.5-.7.2-.4-.2.4-.3h.1l.2-.2v-.1l-.8-.2-.2-.2-.2-.5v-.3l1-.8.2-.1v.3l.7.8v.7zm40.3-3.3.2.1h.2l.3-.1.7.1h1.3l.9.2.9.5.4.1h.2l-.3.1-.2.3.5.4v.3l.4.3.4.4v.1l.1.2.1.2-.3.2h-.4l-.3-.2-.3-.3-.1.3-.2.2-.8-.1h-.6l-.6.1.3.1.3.1.9.8.2.3-.3.6.2.2.3.1.4.3h.3l.2.2v.3l.1.3-.3.1.3.1.3.1-.2.1-.1.2.1.1.4.2.2.1.1.4.4.6.7.8.2.3v.3l-.1.2-.4.3-.3.3v.1l-.5.2.2.1.2.2.3.5.8.8.4.3 1.5 1.1.8.5 1 1.1.5.2.1.3-.5.5-.7.2-1.1.1-1.1-.2-.6-.1-.5-.3-.4-.5-.5-.3.2.3.1.3-.1.4-.2.3-.3.2-.4.2-.2.1-.9 1.9-.2.5-.3 2.1v.6l.4 1.1v.6l.1.3-.1.2-.2.1-.8.3-.6.3-.5.4-.4.5-.3.4-.4.2h-.3l-.3-.2-.2-.3-.1-.3-.1.3v.3l.2.3.1.3-.1.3-.2.2-.5.3-.3.2-.1.4-.1.2-.2.2-.7.4-.2.2-.1.2h.7v.4l.1.3-.1.6-.5.4.3.1.2.1.5.1.2.5-.1.5-.1.5-.4.1-.2-.1h-.2l-.2.1-.1.2.3-.1v.6l-.1.6-.1.3-.2.3-.3.1-.3-.2-.1.2.1.2.4.5-.3.1-.2.2-.1.2-.5.6-.2.4-.1.4-.2.3-3.4 1.5-2.8 1.3-.2-.1-.1-.2-.1-2-.3-1-.1-.6-.4.5-.2-.1-.3-.1-.2-.2v-.2l.2-.6-.2.3-.3.3h-.3l-.2-.1-.1-.2h-.1l-.6.6-.8.3h-.4l-.3-.2v-.8l-.1-.2-.2-.1h-.2l-.6.2h-.2l-.1.1-1.5-1.5-.3 1.2-1 .7-.8.4-.8-.1-.8-.2-.8.3-.8.7-.2.1h-.2l-.2-.1.1-.5v-.5l-.1-1.2-.1-.2-.2-.3-.3-.2-.2.2-.2.2h-.6l-.6-.2-.5.1-1 .5-.6.1-.3-.1-.2-.3.1-.2.2-.2-.4.1-.4.2-.2.2-.2-.1-.5-.6-1 .2-.1.1-.2.2-.2-.1-.1-.2v-1.2l-.5-2.2-.1-1.1-.1-.3-.6-.4v-.6l.3-.5.1-.6-.1-.6-.2-.6-.2-.5-.3-.4-.4-.4-.3-.4-1.1-.4h-.6l-.2-.1-.1-.2.1-.4.2-.2.3-.1v-.1l-.6-.3-.5-.4-.1-.2-.1-.3v-.6l.1-.4.1-.2.1-.6.3-.2-.1-.1-.1-.1-.2-.2-.2-.2-.4-.4-.6-.5-.1-.9-.1-1.3.1-.6.2-1.1.3-.3.3-.1.2-.1h-.2l-.2.1h-.3l.2-1 .1-.3.4-.5.5-.5.2-.6.3-.5 1.2-.5-.4.6.1.2.1.2.3.1.1.8.4.5.4.4.3.2.3.3.2.3.2.2.4.2 1 .9.4.3.3.3.2.1.5-.1 1.6-.7h.3l.5-.1h.9l1 .2h.3l.3-.1h.4l.4.1.2-.1.6-.5.8-.1.2-.5.2-.5.1-.5.3-.2.4-.2.7-.2h2.3l.2.1.1.2-.1.2.1.1h.3l.3.1 1.1.4.5.1h.3l.5.3.3-.1.4-.2.4-.3.3-.3.5-.1h.6l.7-.1.6-.1.6.2.2-.1.1-.2.3-.5.1-.3.1-.6.1-.2.2-.1.2-.1.1-.2.1-.2-.1-.2-.1-.2-.1-.5.1-.2.1-.2.2-.1.6-.4.6-.5.3-.2.1-.1v-.1l-.2-.2-.2-.1v-.5l.1-.2v-.4l.2-.3.3-.4.3-.2.3.2.4-.1.3-.1.2-.5v-.2l-.1-.2.1-.6v-.1l.2-.4v-.3l-.1-.6.1-.5v-1l.1-.2.2-.5.2-.5.5-.3.3-.4.1-.1h.2l.6.3.6-.3h.9l.2.1.2.1.5-.3zm50.4 1.6-.2.1h-.3v-.2l.3-.4.2-.5-.2-.1-.2-.3v-.3l.2-.6.3.1.3.3.1.5.2.4-.4.5zm-148.7-5.9.6.1 1.1-.3h.6l.6.2.5.1 1.3-.1h.2l.2.1.2.2.6.6 1 .8.3.5.2.6.1.1 1.1 1.1.1.5-.2.6.3.5 1.1.5.6.3.1.2.1.2.3.4.4.2 1.4.6 1.8 1.3 1 .6.9.9.3.5.3.5.5.7.9.9.2.3.2.4.3.4.3.3.4.3.4.1.6.6.3.2-.1-.5-.3-.4v-.3l.1-.2.2-.2.3-.1.5.2.9.8.4.4.3.6.2.6.3.3.5.1.5.1.5.2 1.2.9.4.4.3.5.2.6.1.6.1.1.7.7.4.3.5.1 1.4.2.5.2.4.4.2.4-.3.4-1.1.6-1.2.4 1.1-.1.6-.2.5-.3.5-.3.8-.5.3-.1h.4l.3.1.5.5.5.5.3.6.2.6-.4.3-.6.2-.8.6-.1.2.2.2-.2.4.4.3.1.2-.4.3v.2l.5.9.2.2.7.4 1.1.5.6.2.7.2h.3l.5-.1.1.2.2.9.1.5.2 1.2.2.5v.6l.3.5.5.3.6.3.3.3v.4l-.1.3-.2.2-.6.5-.1.2-.1.6.1.3h.2l.2-.1.7-.7.2-.1.3-.1.3-.1H85l.5.2.4.3 1.6 1.9.7 1.1.1.3v.3l-.1.2-.6.7-.1.2-.2.8v.6l.2.2.2.3v.2l-.4 1.2-.1.2.3 1.9v.5l-.1.6v1l-.3 3.3-.1.2-.3.5h-.3l-.3-.1-.2-.2-.1-.2-.2-.2-.9-.6-.2.1-.9.8-.2.1-.3-.1-.5-.2-1.4-.8-.1.2v.3l.3.9v.4l-.3.1H81l-.6-.5-.5-.5-.6-.8-.5-.3-.4-.4-1.2-1.5-.3-.2-1.8-1.1-.4-.2-.5-.4-.5-.4-1.1-.6-1.9-1.6-.8-.9-.9-1.4-.3-.4-1.5-1.1-.8-.6-.3-.4-.8-1.3-.2-.4-.3-.4-.5-.3-.3-.5-.9-1.2-.3-.5-.2-.5v-1l-1.8-3.1-.5-1-.4-1.3-.1-.1-1-1.2-.3-.4-.4-.4-.3-.4-.7-1.4-.2-.4-.3-.3-1.3-.5-.5-.3-.4-.4-.2-.5-.3-1.1-.6-1.7-.7-2.3-.5-1-.5-.8-.2-.2-2.3-1.4-.4-.2-.4-.1-.6-.1-.5-.4-.2-.7-.1-.9-.1-.5-.1-.3-1-.6-.4-.5-.3-.5-.3-.4-1.1-1.5-.4-.4-.5-.3-1.3-.3-.4-.2-.7-.8-.4-.4-1.2-.9-2-1.9-.4-.5-.3-.5-.2-.5-.9-1.5.1-.3.1-.3v-.3l-.1-.3v-.2l.3-.1.6-.2h.6l.5.1.5.1.5.3.9.8.5.3.6.1zm-5.5-2.8-.1.1-.3-.1-.3-.4.1-.1.2.1.4.1v.3"/><path id="IO" d="m-76.3 203.5-.1.2-.2.1-.1-.5-.3-.3h.1l.3.2.1.5.1-.1v-.2l.1-.1-.1-.1-.1-.2.1-.1.2.2v.2z"/><path id="KI" d="m491.5 180.9.2.1.1.1.1.2h-.1l-.1-.1-.1-.1h.1l.1.1h.1v-.1l-.1-.2-.1-.1zl-.1.1zm3 1.8v-.1zm-.7 6.5h-.1v-.1h.1zm-4.8.2h.2zl.1-.1zm-11.3.8.1.1zl-.1.1zh-.1zm-61.3-38-.3.2h-.1zm-.7.4-.4.2-.1-.1h.1zl.2-.1v.1zm.9 5.8v.1l-.3-.3-.2-.2v-.1l.1.1.1.1.1.1zm0 .7h-.2zv-.5h.1v.3zm.1 1.8h-.1zl.5-.2h.1l.1.1v.1h-.4l-.2.1zm0 1.6.3.2v.1l-.1.2-.3.4h-.1l.3-.3.1-.2zl-.1.1-.1-.2h.1zm7.2 8.9-.2.1-.1-.1.1-.2-.1-.6-.2-.1-.1-.2h.1l.2.2.2.1.1.4zm-24.3.3h-.1v-.1h.1zm25.6 1.6v.2h-.1v-.4l-.1-.2.1.1.1.2z"/><path id="MH" d="M386.6 112.8h-.2l.1-.1zm9.5 19h-.5l-.2-.1v-.1l.4.1zm11.1.8.6.2.8-.1-.1.1-.3.1-.2.1h-.3l-.5-.2-.3-.2.1-.1zm2.3.4.2.1h.4l.3.3h-.1l-.2-.1-.2-.1h-.2l-.1-.1zm-9.5 6-.1.1h-.1l.1-.1.1-.2.1-.4.2-.2.2-.2v.2l-.3.2z"/><path id="MO" d="M124.7 56.5v-.1l.1-.1h.2l.1.1z"/><path id="MP" d="m282.7 74.4-.2.2-.1-.1v-.3h.2l.1.1zm.3 3.5-.2.1.3-.5.1-.1.1.2zm-.3 8.8h-.3l-.1-.1v-.1h.3l.1.1zm.2 6.2v.1h-.2l-.1-.1.1-.5.4-.2h.2l-.2.2v.2zm-.4.8-.2.3-.1-.4v-.2l.2-.1h.1zm-2 4.1-.2.2-.2-.1-.1-.1v-.1l.4-.1.2.1z"/><path id="MU" d="m-149 269.4-.6.1h-.7l-.3-.3-.1-.1.2-.1v-.4l.1-.6.2-.2.3-.2.2-.5.3-.3h.4l.4.6.3.6-.1.6-.3.2-.1.3z"/><path id="NC" d="m352.5 263.3-.1.1v-.8l.2-.3.1.6zm20.9 4.9.6.3.6-.1.8.5 1.9 1.6.7.3.4.1.3.3.3.4.4.3.2.2v.3l.1.2.7.5.4.5.5.2.2.3.3.1.3.3.5.2 1.2.8.9.8.5.5.5.4.6.3.6.4.3.9-.2.3-.3.2h-.3l-.3.1-1-.6-.2-.1h-.3l-.1-.1-.1-.2-.6-.2-.6-.3-.2-.2-.1-.3-.1-.2-.8-.3-.5-.3-.4-.4-.6-.3-.9-.6-.5-.2-.4-.3-1.1-1-.4-.2-.3-.5-1-1.1-.5-.5-.5-.4-.4-.5-.3-.6-.7-.8-.1-.3v-.3l-.2-.2-.3-.1-.1-.2v-.3l.1-.2zm11.5 2.3-.3.1.3-.5v-.3l.1-.6v-.2h.2l.2.2-.3.1-.1.2v.3l.1.1-.2.3zm4.1 2.5h-.3l-.4-.4-.7-.2-.3-.3-.2-.4.4-.1.4-.5-.3-.2h-.5l.1-.2.7-.2.3.1.1.2v.8l.3.3.3.6v.2zm3 1.4.2.1h.4l-.1.9-.6.1h-.2l-.1-.2-.3-.1v-.3l-.3-.7.5-.1.3-.2v.2l.1.2zm-2.3 6.2-.2.2h-.2l-.1-.1-.1-.1.1-.4.4.2z"/><path id="NF" d="m391.7 315.3.1.1h.1l.1.1v.1l-.1.1-.1.1v-.1l-.1-.1h-.1v.1-.4zh-.2z"/><path id="NR" d="m386.9 170-.1.2h-.1l-.1-.1v-.1l.1-.1z"/><path id="NU" d="m500.8 262.2-.5.3-.2-.3.2-.4.2-.1h.1l.2.4z"/><path id="NZ" d="m469.5 405.1-.2.2h-.3l-.5.7v-.5l-.2-.2-.5.1-.1.1.3.1.1.1-.3.3.3.6h.3l.3.5v.2l-.6.2-.3.3h-.3l-.1-.1-.2-.5v-.2l.3-.3.2-.4-.2-.3-.4-.2-.9.1-.2-.1.4-.5.5.1.5-.3zm.1 3.9-.2.1v-.4l-.1-.2.4-.1.2.3zm-51.8-59.6.1.3.3-.2.2-.3.3-.3-.1.5.2.1 1.1.3.2.3.2.1.1-.2.2-.1.4.2.9.5.1.2-.1.3.1.3.1.2.3.1.4-.3h.2l.3.5.1.3.2.3.2.3.4.8-.1.3-.1.2.3.7-.2.1-.7-.1v.1l.4.5.3.7.3.4 1 1.4-.1.5v.3l-.1.3.3.7-.2.2-.1.8-.2.1v.3l.4.1.2.1.2.2.1-.3.2-.1.5.4 1 .4.3.1.1.3.1.7.2.3.4.1.4-.1.1-.3-.1-.7-.3-1.1v-.8l-.1-.3-.1-.3-.2-.3-.2-.2.1-.3.3-.2.2.3.1.3.8 1 .4-.1v.4l.3.4.2.5.2 1.5.3 1.4.6.6.1.3-.4-.2-.1.1v.2l.3.3.4.1h.3l.2.1 1.6.9.8.4 1.9.6.5.1h.3l.6-.2.5-.4.4-.6.4-.6.4-.3.5-.2.2-.2.2-.2 1.3.1.4.3.6.3.3.2-.1.4-.3.6-.3.7-.2 1.5-.2 1.5-.2.7-.4.5-.5.4-.5.2-.2.9-.1 1v.3l.2.2.1.3-.3.6-.2-.1-.2-.5-.2-.2-.6-.2-.6-.1-.6.1-.5.2-.8.4-.3.2-.2.3-.4.6-.1.8v.4l.1.3.7.4-.5 1.4-.6 1.6-.4.4-.4.4-.4.9-.7.8-.5.6-.3.6-.3.7-.6 1-.3.6-.4.5-.7.7-.8.6-1.2.8-.3.3-.3.2-.4-.2-.1-.3-.1-.6-.1-.2-.5-.2-.7.3-.1-.1v-.9l.1-.2-.2-.1-.2.1-.1.2.1.2-.4.2h-.4l-.1-.1v-.2l.1-.2.1-.2.8-1 .8-1.4.7-1.4.2-.8.3-1.4-.2-.6-.3-.5-.7-1-1-.6-.6-.1-.6-.2-.6-.5-.5-.6-1-.5-1-.4-.6-.5-.1-.3-.1-.4v-.3l.1-.3.1-.3.2-.2 1.1-.7 1.2-.4h.2l.2-.1.3-.2.5-.5.2-.3.1-1.1.2-1.1.3-1.3.5-.8.2-.5-.2-.8.2-.3.2-.2.2-.1-.4-.7-.5-1.1-.1-.3.1-.3.1-.3-.3-.1-.2-.3-.4-1.1.1-.2.2.1.4.8.1-.4.3-.2.3-.1h.3l-.7-.9h-.2l-.3.1-.3.1-.3-.1-.3-.2-.2-.4-.2-.7-.1-.3-.9-1.4.3-.1.8.7.1-.2.1-.3v-.4l-.2-.3-.3-.2v-.3l.2-.3v-.2l-.4-.4-.2-.1-.1.2.1.3h-.1l-1.1-.8-.3-.6-.3-.7v.7l.4.8.7.9.1.2-.1.3-.2.1-.2-.2-.3-.8-.2-.4-2.6-3.8.3-.5.5-.4.1-.2.1-.2h-.2l-.2.1-.2.2-.2.2-.3.5-.1.1-.3-.3-.1-.2v-.2l-.1-.2-.2-.1-.3-.5-.6.1.3-.5v-.6l-.4-.7-.4-.6-.8-1-.8-1 .8-.1h.8l-.4.6.2.4.3.3.6.9.1.3.3.3zm11.2 8v.3l-.4-.1-.1-.2-.4-.3-.1-.1-.1-.5.2-.2v-.1h.1l.2.3.3.4zm-11.9 31.4h.6l.5-.5.5-.4.6-.3.9-.7.2-.1.6-.1.2-.2h.3l-.2.4-.3.1-.1.2.2.2-.3.3v.4l-.3.5.5-.2.2-.3-.2-.1.2-.4.3-.2-.1-.3v-.2l.4.1h.2l.2-.1h.3l.1.2h.4l-.1.3-.3.4-.1.2-.5.4-.3.2h.5l.7-.5.4-.4v.5l-.3.5-.3.3-.3.1-.3.2-.2.4v.3l.1.2.3.4-.4.7.4-.1.2.1.3.4-.2.5-.1.2-.8 1-.4.5-.4.3v.5l-.2.4-1.2 1.3-.2.3-1 2.1-.6.9-.3.3-.4.2-1 .8-.4.5-.4.4-.5.1v.2l.3.1.2.3-.2.3-.3.2-.3.1-.2.2.8-.1.2.2v.3l.1.3.2.4.7.3.6.1.1.2.1.6-.1.3-.1.2-.2.1h-.5l-.5-.1-.3-.4-1 .1-.3.1-.1-.1.5-.4-.3-.2-.2-.1-.2.1-.2.2-.1.3-.2.2h-.2l-.4-.3-.4-.4-.5-.4.1.3.4.6.2.4-.5.3-.5.3-.4.2-.4.2-.5.4-.3.1h-.7l-.4.1-.1.5-.3.3-.6.1.2.1.1.2-.4 1.5-.1.6-.1 1.1-.2 1h-.7l.1.2.5.3-.1.4-.6.8-.2.5-.2 1.1-.4 1-.6 1.2v.2l.2.3.2.3v.4l-.1.2-.3.1-.2.1-1.3.3-.4.3-.3.6-.4.6-1.3 1.2-.8 1-.2.3-.2.2-1.7.5-1.2.1-.6-.1-.6-.2-.3-.1-.7.2-.3.2-.5-.2-.4.1-.1-.1-.2-.3.1-.4-.1-.3-.3-.2-.2-.2-.2-.2-.5-.1-.9.1h-.3l-.6-1-.2-.2-.7-.3h-.2l-.4.5-.2.1-1.3.1-1.3-.2-.5-.2-.1-.5 1-1.2-.3.2-.6.5-.4-.1.4-.6v-.2l-.1-.3-.5.5-.6.1-.1-.4.1-.5.1-.1 1.6-.3.6-.2.2-.3-.9-.1-.1-.4.1-.3.8-.5-.6.1h-.7l.1-.5.2-.4h.7l-.2-.3v-.4h.2l.7.5.5.2-.2-.4v-.2l.1-.1.4-.1-.1-.1-.4-.1-.5-.3-.1-.3v-.4l.5-.5.3.3.3-.1-.3-.2-.2-.3.1-.2 1.1-.9.3.9.1-.3v-.3l-.1-.2v-.2l.1-.2.5-.2.6-.7.4-.3.3.2.2.3v-.3l-.2-.2-.1-.6.8-1 .9-.9.8-1 .4-.3.9-.4.6.2h.2l.9-.7.4-.2.3.2.2.1-.2-.6.2-.3.8-.5.9-.5.7-.2.5-.3h.3l-.1-.3.1-.3h.3l.1-.1-.2-.1.8-.5.4-.6.2-.1.2-.2.2-.4.3-.1.3.1.2.2-.1-.3-.3-.2.4-.3.4-.2.4.1.4.2-.4-.3-.1-.2.5-.2.2-.1.3.5-.1-.4.1-.3.5-.5.6-.9.2.3v.8l.1-.2.1-.4-.1-.7.8-1.3.2-.1.2-.1h.3l-.1-.2-.2-.2.2-.7.1-.8.2-.7.3-.7.3-1.2.2-.2.7-.1.3-.2.5-.4.6-.8.3-.6.4-1.6.2-1.6.6-1.2 1-.9.8-.7.3-.1h.6l.6.2-1 .2-.1.4v.4l.1.4.2.3.5.3.6.2.3.7.1.8.1.7zm3.9-2.7-.7.4v-.3l.1-.6.3-.3h.1l.3-.2v.5zm-34 28.8.2.8-.5-.2-.2-.2zm-1.2 3.3v.3l-.1.2h-.5l-.2-.2-.2.1-.1-.1.2-.4.6-.2.2.2zm6.9 8.6v.3l-.5-.1v.3l.4.2.1.2.4-.1.1.3-.1.3-.3.2-.8.1-.5.5h-.6l-.5.5-.6.2h-.2l.1-.4.4-.4v-.4l.1-.3.4-.2v-.4l.3-.4-.2-.8.1-.7h.8zm-9.4 29 .1.6h-.3l-.6-.2-.2-.3-.1-.1-.2.3h-.3l-.1-.1.1-.3.8-.6.1-.8v-.3l.6-.1.1.1.1.1v.1l-.2.3v.3l.1.3-.2.2.1.3zm14.5 13.6.3.4-.5.2-.2-.1-.2-.2-.1-.3h.3l.2-.1z"/><path id="PG" d="m321.1 223.7.8.3.3.3-.3.1-.7.1-.2-.2-.7-.2-.1-.3-.3.1.2-.2-.4-.3-.1-.3v-.1l.5.2zm3.6-.6-.1.3-.2-.1-.5.1h-.3l-.2-.2v-.1l.5.1-.1-.3.7.1zm-16.6-3.9-.1.4-.4-.1-.1-.1.1-.2h.5m.9-2.7h.2l.3-.4.3-.1.2.2-.3 1.2-.3-.2-1.1-.3v-.5l-.3-.2-.2-.5-.3-.5-.1-.3.2.1.2.3.9.7v.2zm-2.7-3.3.7.4.4-.1.2.1.4.5v.3l.1.3v.1l-.2.2v-.2h-.8l-.5-.1h-.7l.3-.3.1-.1-.4-.5v-.3l.3-.1zm-.9.7-.1.1-.3-.1-.8-.7.1-.5.4-.3.5.3.2.4.1.2zm11.2-2.6.3.1h.6l.2.3.3.1.2.1.2.2v.1l-.1.1-.1.1v.2h-.2l-.3.1-.5-.2-.2-.1-.1-.2-.3-.3-.6-.2.3-.2zm-44.3-1.7.1.2-.7-.3-.7-.5-.3-.1-.2-.3.4.2.7.2zm36.9.5.1.3-.4-.4.2-.4v-.3l-.4-.2.2-.4.2-.1h.1v.5l.1.2zm-36.9-1.2h-.2l-.9-.3-.2-.2 1 .1.3.1.1.3zm21.8-13h-.2l-.1-.2-.5-.2-.5-.6v-.5l.1-.1h.3l1 .6.1.2-.1.6zm38.8 4.2-.1.5-.1.1-.1-.2-.4.2-.2.2-.2.1h-.5l-.5-.1-.5-.2-.4-.3-.4-.5-.3-.5.1-.6-.2-.5-.8-.4-.2-.1-.3-.5-.3-.2-.4-.4-.1-.2-.2-.6-.1-.3.2-1-.1-.5.2.1.2.2.3.1.6.1.5.4.5.8.1.2.1.2.5.3.2.2.5.8.3.2.3.1.3.1.5.4.4.4.3.4.2.5zm-43-6.2h-.3l-.5-.5-.1-.2.1-.2.6-.3.4.3.1.6zm36.6 0h-.1l-.2-.6v-.5l-.1-.3-.1-.2.3-.4.1-.1.2.2v.4l.2.4-.1.8zm-42.3-3.4-.3.1-.2-.1-.1-.3.1-.3.3-.2.2-.1.2.2.1.3zm28.9-2.1.3.1.7-.5.4.3.5.2.5.1-.2.7.1.3.1.3v.5l-.2.4-.5.6-.2.1-.2.1-.8.1-.1.3.1.4.4.5.3.5-.3.5-.5.3-.5.2-.8-.1h-.9l-.2.2v.3l-.1.2-.2.2-.5.5-.5.4-.7.4-.2.1-.6.1-.5.2-.2.2-.3.2-.6.2-.6.4-.2.1-1.2.1h-2.2l-.5-.1-.3-.1-.6-.7-.5-.2h-.5l-.7.2-.1-.1-1.4-1-.4-.2-.5-.2-.6-.1-.5-.2-.3-.5v-.6l.4-.3.6.2h.2l.2-.1h.3l.3.1 1.1-.1.6.2.6.2.6.1.6-.1.8-.3h.9l.6-.4.2-1.5.2-.5.2-.1h.2l.2.3-.3.3-.1.2-.1.6.2.6.4.5.6.1.5-.3.6-.1.5.3.5-.1.2-.2.3-.1h.3l.3-.1.3-.5.2-.6.3-.5.9-.8.3-.1.3-.1h.6l.5-.3v-.6l-.1-.6-.6-1.4v-.2l.1-.3.2-.2h.5l.6.1.2.2zm8.6-1-.1.1-.3-.1.2-.2h.1zm-4.9-4.7-.1.4-.3-.2-.2-.4.1-.2.3-.1zm-2.8-.9v.2h-.2l-.4-.5-.1-.1.1-.1.5.3zm-.7-.6h-.1v-.4l.1-.2.3.1.1.3zm-38.4 4.8h.6l.6-.1h.3l.2.1.2.1.1.3.4.4.5.2.5.3.5.4.3.4.4.4.6.2h.6l2.1 2.1.1.3v1.4l-.2 1.1.5.3.7.1 1 .2 1 .3 3.1 1.5.4.1.6.1h.6l.2.1.5.3.2.2.4.5.4.5.2.2.2.1.1.3.1.9-.1.5-.2.2-.5.1-1.7.1-1.2-.1-.8.6v.2l.1.2.7 1.2.4 1 .3.4.5.3.5.4.4.5.9.8.5.3.6.2.9.6.1.3.3.9.1.6v.2l.1.2.8.5.2.2.4 1.2.3.6.5.2h.6l1.5-.3h.2l.3.1.2.2.1.5-.2.6-.1.5.3.5.8.3.3.1 1.4.1.5.1.5.2.2.1-.1.2-.3.1-.3.1-.5.2v.3l.3.3.3.4.2.1.2.1.6.1.6.2.4.2.4.1.9.1.6.2.9-.1-.8.4-.3.1-.9-.2-.2.2.4.4.6.3.2.2-.1.2-.7.4-.3.1h-.5l-.9-.2-.6-.2-.2-.3-.2-.2-.6-.4-.4-.2-.5-.1h-.5l-.9-.2-2-.2-.5-.1-.6-.3-.3-.1-.3.1-.8.1h-.2l-.6-.3-.6-.1-.2.1h-.2l-.8-.2-.6-.1-.5-.3-.3-.3-.3-.2-.3-.6-.4-.6-.5-.5-1.2-.8-.2-.2-.5-.7v-.5l.2-.5-.2.2h-.3l-.8-.3-.3-.4-.5-1-.3-.5-.8-.9-.2-.5-.3-.5-.2-.2-.2-.2-.1-.3-.2-.2-1.1-.4-.2-.1-.2-.1h-.8l-.5-.1-.9-.3-.5-.1-.5-.1-.5-.1-.3-.1-.2-.2-.1-.5-.5.1-.4-.1-.4-.2-.4-.1-.3.2-.1.4h-.1l-.2-.1-.1.1-.3.2-.2.2h-.4l-.8-.2-.4-.2-.3-.3-.3-.3-.3-.3-.3-.2.4.4 1 1.9h-.2l-.2-.1.2.4-.3.1h-.3l-.6-.2-.6-.1-.2.1.1.1.2.4.2.4-.8.2-.8.1-.9.2h-.9l-.5-.1-.5-.1-.5.1-.4.2h-.4l-.2-.3-.1-.2-.1-.2h-.3l-.3.1h.6l.2.3.2.3.4.3.5-.2 1.1.1 1.1.5.2.1.2.1.5.5.4.4.3.5.1.2v.5l-.1.3-.7.4-.7.3-1.1.5-1 .6-.5-.1-.5-.3-.2-.1-.5-.2-.3-.1-1.2.1-1.2.1h-.5l-.5-.1-.6-.2-.5.1-.4.2h-.4l-.8-.5v.4-10.8l-.3-.3-.3-.5.1-.6.3-.8.2-.5v-18.3h.6l.4.1 2.5 1.1.7.4.2.1h.2l.2.1 1.1.6 1.7.6 1.7.6.5.1.6.1 1.2.2.6.2.9.7.5.2.4.4.6.4.2.1zm43.4 4.6-.4.4-.2-.3-.3-.3-.2-.3-.3-.7v-.3l.1-.4v-.4l-.1-.7-.3-.7-1.2-1.6-.4-.4-.4-.4-.3-.1-.6-.1-.2-.1-.5-.3-.4-.3-1-.9-.6-.3-.3-.3-1.7-1-.5-.2h-.6l-.5-.2.4-.1.1-.3-.1-.3.8.6.9.5.3.4h.4l.8.3.5.3.5.3.6.5 1.1.4.2.1.6.6.7.5.2.3 3.1 2.6.5.7v.5l-.1.2-.3.4v.5l-.1.4zm-12.4-10.2-1 .1-.3-.1-.3-.3-.3-.4-.3-.1-.1-.1.7-.3.6-.1 1 .4.1.2v.5zm-12.6-1.8-.2.3h-.4l-.2-.1.3-.1.1-.2.1-.1zm-3.9-1.6 1.6.3h.1v-.1l.1.1v.2l-.3.1h-.2l-.2.1-.5.4-.3-.1-.4.1h-.7l-.9-.2-.2.2-.3-.1-.3.2h-.1l-.1-.3v-.1l.4-.1-.1-.4.3-.2h.5l.5-.1zm13.2-2v.2l-.3-.1h-.1l-.6-.5v-.3l.2-.3h.3l.5.3z"/><path id="PH" d="m165.9 63.9-.2.4h-.2v-.2l.2-.5h.1zm.4 2.2h-.2l.1-.5.2-.1.2.1zm-2.2 5.2.1.5h-.3l-.4-.3v-.2l.1-.1zm-1.3 1.4v.3l-.2-.2-.1-.3v-.2l.1-.2.2.2zm3.3 1-.3.4-.2-.1.2-.4v-.1l.1-.3.3-.1.2.3zm-4 1.4.8.3 1.7 1 .6.2.6.2.5.1.5-.2.2-.2.3-.6.4-.1.2.2.2.3.1.4-.1.4-.3.4-.2.5-.1 1.6v.4l.1.5.3.7.2.2.5.3.1.2v.3l.1.3.3.1.2.2-.1.3-.2.3-.2.9-1 2-.1.4-.4.8-.8.1-.9.4-.5.3-.4.4-.2.5.1.2.1.3v.3l-.1.2-.4.6-.2.5-.2.2-.1.3v.3l.2.3.5 1.1.6 1 .1.1.1.1-.3.3v.5l.1.5.5 1.2.1.3.2.3.3.3.3.2.8.4.3.1h.3l.1-.2.3-.1-.1-.2-.3-.3v-.2l.2-.1.2-.1.5-.4.5-.3h.7l.7.2.5.2.4.3.4.5.3.6v.3l-.1.3v.3l.2.2h.6l.3-.5v-.5l-.2-.2.1-.2.2-.2.3.2.3.3 1 .3h.2l.2.1.4.2.2.2-.2.4-1 .1-.3.3.3.6.5.5.3.4.3.4v.4l-.2.4h.4l.4.1.6.3h.2l.2-.1v1.2l-.4 1.1-.5-.1-.4-.5.1-.6.3-.6-.2-.1-.3.1-.3.1h-.3l-.5-.1-1.1-.6-.5-.1-.1-.3v-.6l-.4-.7-.1-.2-.1-.2-1.3-.8-.2-.1-.4-.6-.9-.9-.3-.1h-.3l-.1.2.1.3.1.3v.5l.4.5.1.2.3.6v.7l-.4.3-.4-.3v-.3l-.1-.2-.4-.6-.2-.1-.8-.6-.6-.7-1.4-.8h-.2l-.2.1-.2.1-.7.4-.2.3v.4l-.5.3-.7.1-.5-.2-.4-.4h-.4l-.5-.6-.5-.1-.5.5-.1-1v-1l.1-.3.2-.2 1.2-1 .1-.3-.1-.4-.3-.3-.4-.2-.5-.1-.3-.2-.3-.3-.2.6.2.9v.6l-.2.2h-.3l-.3-.1-.2-.2-.2-.6-.4-.4-.2-.5-.2-.1h-.4l-.3-.3-.2-.6V93l-.2-.6-.2-.6-.1-.5-.2-2.1-.1-.2-.1-.2-.2-.2-.2-.3v-.2l.1-1 .1-.2.2-.1.3.2.2.2.3.1.2.2.4.6.2.1h.5l.3-.1.2-.2.1-.3v-.3l-.3-.9-.1-.6v-.6l.1-.6.4-1 .1-.7V82l.1-.5v-.3l-.3-.5-.1-.5.7-2.7.2-.5.2-.5.1-.7.5-.2.5-.3h.3l.3.1.6-.1zm4.5 18.4.1.2h-.2l-.2.4.2.7-.2.5h-.3l-.1-.1.1-.2.1-.1-.1-.3-.2-.2-.1-.4-.2-.2.1-.4h.6zm.7 4.8v.2l-1.1-.8-.1-.1v-.1l.1-.1zm10.7 2.1-.1.3-.2-.1h-.2l-.3.3-.6-.4-.1-.3.4-.6v-.9l.2-.2.2-.2.2-.1.4.7.1.1.4.3-.1.6v.3zm-20-.6v.3l-.8-.5v-.3l.1-.1.4.2zm8 1.1h.3l.1-.1.6.4v.2l.1.3-.3.5-.1.2-.2.2-.6-.4-.2-.2-.1-.5.2-.7zm-5.9.3h.2l.8-.2.3.1.2.3.3.1.2.1.4-.3.4.3.3.5.4.4.4.3.1.2-.2.3-.1.4v.5l.3 1-.1.3-.3.4-.2.4v.2l-.1.1v.3l-.2-.1-.2.1-.2.1-.3.3-.4-.1-.2-.1.1-.1-.1-.2-.2-.1-.4-.4-.2-.3v-.3l-.1-.3-.2-.3-.3-.2-.1-.2v-.8l-.4-.8-.1-.2-.4-.2-.3-.3-.1-.3-.1-.4-.1-.1h-.2l-.2-.1.1-.3.2-.2h.3l.9.1zm12.6 3.1.4.8-.5-.5-.5-.3-.5-.6-.4-.2-.1-.1v-.2l.3-.1h.1l.8 1zm2.5 2v.4l-.2-.2-.6-.9-.2-.3.2-.2.4.3zm-8.3.5-.4 1.2-.3-.4.1-.3-.2-.2-.1-.2.1-.3.2-.2.1-.8.5-.3h.2l-.1.2v.4zm1.1-.9-.2.2h-.1l-.1-.3.1-.2h.1zm6.9 1.2.9.6.6 1 .1.8-.1.3-.3-.3-.7-.5-.5-.1-.1-.1.1-.3-.3-.2v-.1l-.3-.1-.4-.5-.3-.1-.3.1-.6.8-.7.6v-.2l.3-.7.2-1.1.1-.3-.1-.5v-.4l.5.2.6.2.5.3.1.2zm7.4-1.2.3.4.1.3v.3l.2.1h.3l.3.2.3.3-.2.3.1.4-.3.5v.9l.2.3v.6l.1.2.4.8.1.3-.1.2v.2h.3l.4.3.2.5-.1.1-.3-.3-.2-.1-1 .1-.6-.1h-.4l-.4-.6-.3-.1-.3-.3-.4-.7-.1-.4.3-.4.1-.3v-.3l-.3.1-.2-.1-.3-.4-.1-.2-.2-.2-.4-.4-.5-.2-.2-.1-.4-.4-.3-.5-.3-.8-.2-.8 1.3.2h1.3l1.5-.2zm-12.6 1.1-.2.1-.5-.5-.3-.2-.1-.1.2-.2h.6l.3.3.1.2zm-12.6.7.3.1.2-.1.2-.3.2.4.4.3-.1.3h-.3l-.3-.1-.4.1-.4-.1-.3-.3-.3-.5-.1-.1v-.2l.1-.1h-.1v-.1l.1-.1h.1l.2.2.6.4zm-.3 2.3-.4.2-.1-.1-.1-.2v-.2l-.3-.9.3-.1.2.1.2.1.2.1.2.3v.2l.1.2zm12.1.5.6.3.6-.2.5.1.5.3-.1.2v.2l1-.5h.3v.5l-.1.4-.1.4-.2.5-.3.4-.4.3-.5.2-.2.2-.1.2v.3l-.1.3-.5.1-.8.3-1.6.3-.4.2-.3.3-.3.3-.2.1-.1-.1v-.1l.2-.7v-.3l-.1-.3.1-.6.3-.5.1-.6.1-1.1.2-1.6v-.2l-.2-.2-.6-.2-.2-.2.1-.3.2-.2h.3l.3.2 1 .4.5.3zm11.5.1-.1.3-.1-.1-.1-.1-.2-.4-.1-.3.3.2.2.3zm-1.2.5h-.6l-.3-.2-.3-.7.4-.1h.4l.3.2.3.5zm-.1.7.3.2.4-.1.5-.4.5.1.3.6.2.2.1.4v.9l-.1.8.1.2.2.1.2.2.2.2.1.3.1.6.3.5v.2l-.1.2h-.5v.4l-.2-.1-.3-.5-.3-.2.1.8.1.4v.4l-.5-.3-.6-.2-.2-.2.1-.5v-.3l-.3-.6.3-1.2v-.2l-.1-.2-.2-.5-.4-.4h-.2l-.6.3-.3-.1-.2-1.1-.2-1.1-.2-.3-.1-.3.1-.2.2.1.3.3.4.2.2.1zm-23.1-.9.1.3-.1.4-.1.1-.2-.2-.3-.1v-.2h.2l.3-.2zm-12.5 15.3-.5.3.1-.4.1-.4.5-.9.3-.3.5-.7.3-.3.8-.6.7-.7.2-.1h.2l.2-.1.5-.4 1.1-1.3.9-.9.9-1.2.5-.3.1-.1.9-1.1.3-.2.3-.1.2-.2.2-.2.3-.5.1-.6-.1-.3-.2-.5.2-.6.2-.3.6-1.3.2-.3.3.2v.2l-.1.5v.3l.1.3-.2.5.4 1.2.3.8v.3l-.5.5-.3.1-.6.1-.3.1-.4.4-.3.5-.1.3-.1.2-1.2.3-.6.2-.3.2-.1.3.1.5-1 1.7-.3.4-.3.4-.4.3-.6.2-.5.3-.3.6-.4.5-.5.4-.5.3-.5.2-.5.2-.2.2-.1.3-.2.1-.3.1zm31.6-14.1.3.7h-.4l-.1-.5zm-1.9 9.1-.2.1-.1-.3.1-.4.4-1.5-.1-.4.6-.9.4-.8.6-.8.1-.4.5-.8.5-1.2v-.4l.1-.2.1-.3v-.2l.3-.4.1.3-.1.5v.3l.1.1v.5l-.1.8.1.9-.2.9-.3.4-.4.3-.4.2-.4.5-.3.5-.1.5-.7 1.6zm-1.2 1.9-.3.1h-.3l-.2-.2-.4-1-.5-.3-.5-.2-.3-.2-.2-.2-.8-1-.1-.6.1-.4.2-.3.3-.1h.9l.7-.5.1-.2v-1l-.1-.5-.2-.5.2-.2.2-.2.3-.5.1-.3v-.3l.1-.2.2-.1 1-.4h.2l1.2.3.3.5v.2l-.2.6-.2.4-.4.6-.3.7-.2 1-.1.3-.4.6-.1.3v.7l-.1.3v.3l.8 1.2.1.2v.2l-.1.3-.3.5-.2.2zm-2.4-6.9-.1.1h-.1l-.3.2-.1-.5.1-.6.4-.4.1-.1.1-.1h.1l.1.2v.3l-.3.8zm8.2-.7h-.1l.2-.5.2.1.1.1v.2zm-21.6.6-.6.2-.1-.5.4-.4.5.2.3.2-.1.2zm28.4 2.8-.1.1-.1-.3-.3-.3-.3-.5-.2-.1.1-.4v-.6l.3-.3.1-.1.2-.3h.1l.1.2-.2.7.3.9-.1.5zm-5.4.6-.1.2h-.5l-.4.5-.2.1-1.2.2-.9-.1-.3-.3-.2-.4-.1-.3.2-.3.2-.2.7-.4.2-.3.4-.4.8-.1.1.1.1.1h.2l.4.3.4.2-.1.7.1.2zm3.3-.9v.2l-.6-.6-.1-.5h.2l.3.2zm3.9 1-.3-.3v-.4l.4-.6.3.6v.4l.3.3-.2.2zm-.3 2.2.4.3.5-.1v.8l.1.2.5.6.1.5-.3.5-.2.2-.4.3v.2l.2.2.5.1.4.3.1.8.4.6v.3l-.2 1.1.1.5.3.4.2.2.1.2.1.6v1.5l-.2.3-.5.8-.7.6h-.4l-.2.2.2.6-.1 1.2-.2.9-.2-.4-.2-.5-.1-1.2-.2-.5-.3-.5-.1-.4-.3-.4-.4-1.1-.2.1-.4.3-.1.2-.1.3-.1.3-.5.4-.4.5-.3.6-.1.5.3.4.3.2.4.4.1.2.4 1.2v1.2l-.3.5-.8 1-.5.3-.3-.2-.2-.6v-.2l.2-.6v-.5l-.2-.2h-.2l-.1.1-.5.7-.2.2h-.3l-.2-.1-1.4-.6-1.2-.6-.9-.6-.7-.8-.1-.6v-.7l-.3-1v-.6l.3-.6.3-.3.2-.2.2-.2.1-.3v-.3l-.1-.2-.6-.7-.5-.4-1-.4-.2-.2-.3-.2-.3-.1h-.3l-.3.1-.1.2v.4l-.4 1.3-.5-.3-.5-.3-.1-.2-.1-.3-.1-.2-.1-.2-.2.4-.3.3-.3.1h-.4l-.1-.1-.1-.8-.4-.3-.5.1-.6.4-.1.2-.1.4-.6 1.1-.3.8-.4.8-.2.3-.2.2-.3-.1-.3-.2-.3-.5.1-.6.3-.4.3-.4.3-1.4v-.5l.1-.2.5-.7.5-.4.2-.1 1-.2.4-.2h.6l.5-.1.4-.3v-.6l.1-.2.2-.2.2-.2.2-.2.7-.1.2-.1.2-.2.3-.4.3.1.3.2.6.1.5.4.3.6.1.3.1.9-.1.2-.5.4.2.1.6-.4.3-.2.8-.2.2-.1.1-.2.3-.6.2-.6.2-.2.2-.2h.2l.8.4.5-.2.2-.6.1-.9.1-.2.3-.2.4.1.5.3.5.1.2-.3.2-.5h.2l.6.2.6-.1.2-.6-.1-.7-.5-1.9.3-.4h.2l.6.5 1.2.7.4.4zm-.2-1.3-.1.1-.1-.3.1-.6.1-.1.1.4zm-11.1 1.8v.5l-.5.2-.4-.1-.2-.3v-.1h.2l.4-.3.1-.1zm5.4.4-.1.3-.6-.2-.1-.2.1-.2.3-.1h.1l.3.3zm-36.5 4.6-.3.1-.1-.3v-.3h.2l.1.1zm-1.4 1.6-.3.4-.3-.4v-.6l.1-.2.4-.1zm28.8 2.4.1.1v.1l-.5.2h-.2v-.4l.1-.2.2.2.2-.2zm13.9 2.1-.1.3-.3-.7-.1-.2.2-.6.3.3zm-18.1 2.7-.5.1h-.2l-.4-.5v-.2l-.3-.2.1-.2.4-.1.7-.3 1.1.5.2.2-.3.1-.2.5zm-4.6 1.7.3.3.3-.1.5.1.1.2v.1l-.6.3-.4-.3-.7.2-.3-.1-.4.1-.3-.3.1-.3.7-.4zm-4.4 4-.1.3-.2.1-.2-.1-.2-.2-.1.2-.4.1-.3.3-.4.1-.3-.1v-.3l.8-.5.5-.2.4-.3h.2l.1.3z"/><path id="PW" d="m228.2 131.4-.3.1-.1-.4.1-.4.2-.3.2-.1.2-.4v.2l-.1.8-.2.3zm-16.8 21.3h-.2v-.1l.1-.1h.2z"/><path id="RE" d="m-158.1 273.9-.7.2-.5-.1-1-.5-.2-.3-.4-.8.1-.3.3-.5.7-.2.7.1.3.1.4.6.5.6-.1.7z"/><path id="SB" d="m340.4 203.2.2.2-.4.3-.5-.2-.1-.2v-.1l-.3.1-.7-.1-1-.7-1-1.3-1-.7-.2-.2v-.4l.1-.1.6.2.8.6 1.3.6.3.3.2.8.2.2.7.6.4.1h.4m-8-1.1-.5.1-.3-.2.1-.4.2-.2.6.3zm19.8 7.1v.1l-.7-.4-.5-.5-1.4-.5-.3-.3h-.3l-.7-.5-.7-.3-.4-.4-.1-.2-.3-.1-.5-.4-.4-.3-.2-.5-.4-.4-.1-.2 1.4.3.6.6.5.3.2.2.5.3h.4l.4.3.4.1.3.2 2 1.5-.2.4.3.3zm-15.7-3-.2-.2-.1-.1v-.3l-.5-.5v-.3l.3-.3.4.2.4.4.5.1-.1.3-.4.5zm2.4.9-.1.1h-.5l-.4-.5v-.4l.3-.3.4-.1.2.1.2.3.1.4-.1.3zm-2.8.3-.1.1-.3-.6v-.3l.1-.2.1-.1.2.7zm5.7.3.3.4.3.9-.1.3h-.2l-.1.2-.3-.4-.5-.1-.3-.3-.1-.5v-.3l-.3-.1-.8.1-.2.3-.3-.1-.1-.3.1-.2.5-.2.1-.3.5-.5.3-.1.5.2.1.8.2.3zm14.6.4 1.2 1.5-.1.3-.2.2-.1.5.2.2.3.1.6.5.2.6v.2l.2.3v.6l.5.9.1.4-.1.2-.2-.1-.6-1-.7-.4-.1-.2-.7-.6-.5-.9-.5-1.7.2-.4-.6-.8v-.2l.3.1h.2l.1-.1zm-5.2.9-.2.1-.3-.2-.2-.2.1-.3.2-.1.2.2v.2zm-11.2 1-.3-.1-.6-.7.1-.2.5-.4.2-.1.2.3-.1.4-.2.1-.1.4zm3.5-.1-.5.4-.3-.1-.3-.3.1-.4.1-.1h.1l.1-.1.2-.2.5.1.1.1-.3.2.1.1.1.1zm.4.7h-.1l-.1-.2.3-.5.1.4.1.2zm-2.7-.3v.2l-.3-.1-.6-.3v-.1h.6l.2.2zm7.6 1.8h-.6l-.2-.2.2-.2.3-.2h.1l.1.1h.3v.3zm4.8-.7.3.1h.1l.3.3.4.4-.2.2-.3-.1h-.1l-.1-.3-.4-.2h-.3l-.1-.2zm-2.1 1.4 1.1.8.5-.1h1.4l.8.6.5.3.3.5.3.1.2.3.1.5-.1.1-.4.2-.2-.1-.8-.2-.8-.4-1.6-.1-.7-.1-.2-.1-.2-.2-.4-.4-.3-.5-.1-.3v-.6l.1-.2.3-.2zm8.8 1.7.1.5v.2l-.4-.4-.2.1-.2-.2v-.8l-.1-.3-.2-.5.2.1zm.9 3.8.6.3.4-.1.5.2.4-.1.2.3.6 1v.3l.4.2-.3.1-.5-.1-.4.1-.4-.2-.7-.1-.6-.2-1.2-.8v-.4l-.2-.2-.1-.5-.4-.1h-.5v-.2l.1-.4h.4l.5.2.9.6zm21.6 1.8-.4.1h-.1l-.3.1-.3.3-.2-.1h-.2l-.1-.3v-.1h.2l.1-.3.2-.1.6-.1.5.1.2.1zm-27.2 5.2-.3.2-.3-.1-.2-.1-.2-.4-.4-.2-.6-.1-.2-.2-.1-.1-.4-.1-.1-.2v-.2l.1-.1.4.1 1.8 1 .4.3zm31.1-.6-.4.1h-.2l-.3-.4.2-.1h.3l.1.3z"/><path id="SC" d="M-159.4 190.3v.5l-.2-.2-.1-.3-.3-.2-.2-.2.4-.2z"/><path id="SG" d="m78.1 161-.7.3-.8-.3.3-.5.5-.1.5.1.2.1.2.1z"/><path id="TF" d="m-177.5 423.8-.4.1-.3-.1-.2-.4.4-.3.2.2.2.3zm85 19.4h.4l.2-.1 1.1-1h.3v.8l.3.3-.3.1h-.7l-.2.4.7.6.3.1h.3l.5-.1.4-.2.6-.5.4-.2h.7l.4-.4.2-.1h.4l.4.2.2.4.1.5-.1.5-.3.5-.5.3.1.3-.1.2h-.2l-.2-.1-.3-.4-.3-.2h-1.2l-.1.3-.2.2-.2.1-.3-.1-.1.1.2.3.4.4.6.3.4.1.1-.5.5-.1.4.2.3.4-.2.1-.2.2-.1.3-.4.3h-.2l-.8-.1-.5-.3-.1-.2-.3-.1-.3.3-.3.1-.7-.3-.6-.4-.4-.2-.6-.1-.3.9-.5.4h-.6l-.3-.1-.2-.4v-.4l.1-.4.2-.4.1-.4-.1-.4-.2-.3.1-.5-.2-.4.1-.3.3-.2-.1-.2-.2-.1-.1-.2-.1-.3.1-.5.2-.5v-.6l.3-.5.3-.6.2-.2h.3l.1.2.1.3-.1.2.2.1.1.7-.2.3v.3l-.3.6.1.5zm.5-.4-.3.1-.1-.2v-.3l-.2-.3-.1-.3.1-.3h.5l.5.1.1.5-.4.6z"/><path id="TK" d="m487.7 209.4-.1-.1zm6.3 3.8-.1-.1z"/><path id="TL" d="m184.3 207.2-.3.8-.3-.2.4-.5zm-2.8 6.8-.2-.6-.2-.3-.1-.2-.1-.2v-.2l.1-.1h.6l.2-.3v-.4l-.1-.1-.1-.1-.6.3-.2-.1-.1-.1v-.4l.5-.4.4-.8.3-.3.7-.3.3-.1 2.1-.4h1.8l1.8-.1.4-.1.6-.2.5-.2.3-.2.3-.1.5.2.8.1.2.1.2.1-.9.8-1 .6-.6.2-.6.1-.5.2-.4.4-.5.2-.6.1-.5.1-.5.2-.6.4h-.5l-.5.2-1.6.6-1 .6zm-5.1-.9.8-.4 1.2-.3v.2l-.1.4-.2.2-.3.3-.2.1-.7-.1-.1.1h-.1l-.2-.2z"/><path id="TO" d="m480.5 259.9-.2.3h-.1l-.2-.2-.1-.1.3-.4h.2l.2.1v.1zm-6 13.1.1-.2.3-.1v.2l-.3.5-.2-.2-.6-.3-.1-.3.2-.2v.2l.1.1h.4l.3.1-.2.1zm1.2.7v.8l-.2-.4v-.2z"/><path id="TV" d="m437.6 197.3-.1-.1v-.1zm-4.9.8v-.1zm14.3 11.2-.1-.4.1.1v.3"/><path id="UM-81" d="M468.2 166.4"/><path id="UM-84" d="M467.3 163.6"/><path id="UM-67" d="M502.2 84.8"/><path id="UM-71" d="M463.6 24.2V24l.1-.1h.1v.1z"/><path id="UM-79" d="m385.4 71.7-.2-.1.1-.1h.2v.2z"/><path id="VU" d="M389.5 235.8h-.2l-.3-.6.1-.2.4-.2.3.3v.4l-.1.1-.2.1zm.4 1.8-.2.3-.6-.1-.1-.1v-.4l.1-.1.3-.1.5.2zm-4.1 2.9.3 1.7h.4l.2-.1.2-.4.1-.6.2-.1.2.1-.1.2.1.5.2.3.1.1.2 1.3.1.3v.2l-.5.5h-.8l-.5.3h-.3v-.3l-.3-.3-.3-.6.1-1-.6-1.8v-.5l.2-.6h.2l.3.5zm7.1 2.5-.1.3-.2-.4-.1-1.5.1-.1h.1l.2 1.1zm-1.4.6-.3.2h-.6l-.2-.1.8-.7.9-.1zm1.5 2.7-.2-.2-.3-1.2.2-1.1.1.2.4 1.9-.1.3zm-4.8-1.3-.1.1-.5-.3.1-.3.6.1zm.9 1.9.2.1h.1l.1.2.7.5h.2l.2.3.3.1.1.3.2.3-.4.3-.7-.1-.4.4-.4-.1-.1-.2.1-.1-.2-.5-.1-.8-.2-.5-.2-.2-.3.2h-.1l-.3-.4.2-.8.1-.2h.3l.4.2zm4.3 1.2-.6.1-.8-.2-.3-.2-.1-.2.3-.2.4-.1.5-.5.2.2.2.6.2.2.1.2zm.8 2.3.1.1-.1.2-.7-.2-.5.1h-.2l-.2-.2-.1-.4.1-.3.2-.2h.1l.2.2.2.2.2.1.3.4zm0 3.9.5.7.2.1-.3.5-.6.1-.7-.1.3-.2-.1-.2h-.2l-.2.1h-.1l.2-.3.4-.5h.3zm4.3 7.1-.2.2h-.2l-1.3-.6.1-.2-.1-.6.1-.3.3-.1.3.1.2.5.4.2-.3.2.5.4zm.8 3.1-.3.6-.5-.1-.4-.4-.2-.3.1-.7.2-.1h.2l.1.7zm2 3.4-.2.3h-.3l-.3-.2.1-.2.4-.1h.1z"/><path id="WF" d="m469.6 233-.2-.2.1-.3.1-.1.1.2zm-9.2 4.9h-.3l-.3-.1-.2-.3.1-.1.2.1.2.2z"/><path id="WS" d="m488.4 233.6.5.5.2.6-.2.6-.5-.1-.8.1h-.2l-.6-.7-.4-.3-.2-.3h.5l.8-.2zm4.3 2.9h-1.3l-.7-.2h-.2l-.6-.5-.1-.2.3-.2.6-.1 1.2.4.2.3h.3l.2.1.1.2z"/></g></svg>