<?xml version="1.0" encoding="utf-8"?>
<!-- Generator: Adobe Illustrator 28.3.0, SVG Export Plug-In . SVG Version: 6.00 Build 0)  -->
<svg version="1.1" xmlns:amcharts="http://amcharts.com/ammap"
	xmlns="http://www.w3.org/2000/svg" xmlns:xlink="http://www.w3.org/1999/xlink" x="0px" y="0px"
	viewBox="0 0 512 512"
	style="enable-background:new 0 0 512 512;" xml:space="preserve">
<defs>

		<amcharts:ammap  bottomLatitude="-55.621433" leftLongitude="-81.429199" projection="mercator" rightLongitude="-34.713341" topLatitude="12.447751">
		</amcharts:ammap>
</defs>
<g>
	<path id="AR" d="M210.5,494.6l-5.8,0.5l-3.1-3.8l-3.7-0.3h-6.6V468l2.4,4.7l3.1,7.7l8,6.3l8.6,2.6L210.5,494.6z M213.8,227.1
		l3.6,4.8l2.4-5.3l7,0.3l1,1.4L239,239l5,1l7.5,4.9l6.3,2.6l0.9,3l-6,10.3l6.2,1.9l6.9,1l4.8-1.1l5.5-5.2l1-6l3-1.3l3.1,3.9
		l-0.1,5.4l-5.2,3.8l-4.1,2.8l-6.9,6.7l-8.2,9.5l-1.5,5.7l-1.6,7.4l0.1,7.2l-1.3,1.6l-0.5,4.7l-0.4,3.8l7.8,6.4l-0.8,5.2l3.8,3.3
		l-0.3,3.7l-5.9,9.9l-9.1,4.2l-12.3,1.6l-6.7-0.8l1.3,4.7l-1.2,5.9l1.1,4l-3.7,2.8l-6.3,1.1l-5.9-2.9l-2.4,2.1l0.9,8.1l4.1,2.5
		l3.4-2.6l1.8,4.3l-5.6,2.6l-4.9,5.2l-0.9,8.5l-1.4,4.6l-5.8,0l-4.8,4.5l-1.7,6.6l6,6.5l5.9,1.8l-2.1,8.1l-7.2,5.2l-4,11l-5.6,3.8
		l-2.5,4.5l2,10.1l4.1,5.7l-2.6-0.5l-5.7-1.6l-14.8-1.3l-2.5-5.7l0.1-7.3l-4.1,0.6l-2.2-3.5l-0.5-10l4.7-4.1l1.9-5.9l-0.7-4.6
		l3.3-7.7l2.2-11.7l-0.7-5.1l2.7-1.6l-0.7-3.2l-2.8-1.7l2-3.6l-2.8-3.2l-1.4-9.6l2.5-1.7l-1-9.9l1.4-8.2l1.6-7l3.7-2.8l-1.9-7.6l0-7
		l4.6-4.9l-0.1-6.3l3.5-7.2l0-6.8l-1.6-1.3l-2.8-12.4l3.8-7.3l-0.6-6.8l2.2-6.3l4-6.5l4.3-4.3l-1.8-2.7l1.3-2.2l-0.2-11.2l6.7-3.3
		l2.1-6.9l-0.7-1.7l5.1-5.9L213.8,227.1z"/>
	<path id="BO" d="M226.7,226.8l-7-0.3l-2.4,5.3l-3.6-4.8l-8-1.6l-5.1,5.9l-4.4,0.9l-2.4-9.1l-3.3-7.3l1.9-6.3l-3.2-2.7l-0.8-4.6
		l-3-4.4l3.9-6.9l-2.6-5.3l1.4-2.1l-1.1-2.3l2.4-3.1l0.1-5.3l0.3-4.4l1.3-2.1l-5.3-10l4.6,0.5l3.1-0.2l1.4-1.9l5.4-2.5l3.2-2.3l8-1
		l-0.6,4.6l0.7,2.4l-0.5,4.2l6.7,5.6l6.9,1l2.4,2.3l4.2,1.2l2.5,1.8l3.8-0.1l3.6,1.9l0.3,3.6l1.2,1.8l0.1,2.7l-1.8,0.1l2.4,7.4
		l11.7,0.3l-0.9,3.7l0.7,2.5l3.3,1.8l1.5,4l-1.1,5.1l-1.7,2.8l0.6,3.7l-1.9,1.3l-0.1-2l-5.7-3.3l-5.7-0.1l-10.7,1.9l-2.9,5.7
		l-0.2,3.5l-2.4,7.8L226.7,226.8z"/>
	<path id="BR" d="M258.7,282.4l8.2-9.5l6.9-6.7l4.1-2.8l5.2-3.8l0.1-5.4l-3.1-3.9l-3,1.3l1.2-3.9l0.8-4V240l-2.2-1.2l-2.3,1.1
		l-2.3-0.3l-0.7-2.6l-0.6-6.1l-1.2-2l-4.1-1.8l-2.5,1.3l-6.5-1.3l0.4-8.9l-1.8-3.6l1.9-1.3l-0.6-3.7l1.7-2.8l1.1-5.1l-1.5-4
		l-3.3-1.8l-0.7-2.5l0.9-3.7l-11.7-0.3l-2.4-7.4l1.8-0.1l-0.1-2.7l-1.2-1.8l-0.3-3.6l-3.6-1.9l-3.8,0.1l-2.5-1.8l-4.2-1.2l-2.4-2.3
		l-6.9-1l-6.7-5.6l0.5-4.2l-0.7-2.4l0.6-4.6l-8,1l-3.2,2.3l-5.4,2.5l-1.4,1.9l-3.1,0.2l-4.6-0.5l-3.5,1.1l-2.8-0.7l0.4-9.4l-5,3.6
		l-5.4-0.2l-2.3-3.3l-4.1-0.3l1.3-2.6l-3.4-3.8l-2.6-5.5l1.6-1.1v-2.6l3.7-1.8l-0.6-3.3l1.6-2.1l0.5-2.8l7-4.2l5-1.2l0.8-0.9
		l5.5,0.3l2.8-16.7l0.2-2.6l-1-3.5l-2.7-2.2l0-4.4l3.5-1l1.2,0.6l0.2-2.3l-3.6-0.6l-0.1-3.8L196,79l2-2.1l1.7,1.9l1.2,3.6l1.2-0.8
		l3.4,3.2l4.8-0.4l1.2-1.9l4.5-1.4l2.5-1l0.7-2.6l4.4-1.7l-0.3-1.3l-5.2-0.5l-0.9-3.8l0.2-4.1l-2.7-1.6l1.1-0.6l4.5,0.8l4.9,1.5
		l1.8-1.4l4.4-1l6.9-2.3l2.3-2.3l-0.8-1.7l3.2-0.3l1.4,1.4l-0.8,2.7l2.1,0.9l1.4,2.8l-1.7,2.1l-1,5.2l1.6,3.1l0.4,2.8l3.8,2.8l3,0.3
		l0.7-1.2l1.9-0.3l2.8-1.1l2-1.6l3.4,0.5l1.5-0.2l3.3,0.5l0.5-1.2l-1-1.2l0.6-1.8l2.5,0.5l2.9-0.6l3.5,1.3l2.7,1.3l1.9-1.7l1.4,0.3
		l0.9,1.7l2.9-0.4l2.3-2.3l1.9-4.5l3.6-5.6l2.1-0.3l1.5,3.4l3.4,10.7l3.3,1l0.2,4.2l-4.6,5l1.9,1.8l10.8,1l0.2,6.1l4.7-4l7.7,2.2
		l10.2,3.7l3,3.6l-1,3.4l7.1-1.9l11.9,3.2l9.2-0.2l9,5l7.8,6.8l4.7,1.7l5.2,0.3l2.2,1.9l2.1,7.8l1,3.7l-2.4,10.2l-3.1,4l-8.6,8.6
		l-3.9,7l-4.5,5.4l-1.5,0.1l-1.7,4.6l0.4,11.8l-1.7,9.8l-0.7,4.2l-1.9,2.5l-1.1,8.6l-6.2,8.5l-1,6.8l-5,2.9l-1.4,4l-6.6,0l-9.6,2.6
		l-4.3,2.9l-6.9,1.9l-7.2,5.3l-5.2,6.7l-0.9,5.1l1,3.8l-1.2,6.9l-1.4,3.4l-4.3,3.8l-6.8,12.4l-5.4,5.7l-4.2,3.4l-2.8,6.9l-4.1,4.2
		l-1.7-4.2l2.7-3.4l-3.5-4.9l-4.8-4l-6.3-4.5l-2.3,0.2l-6.1-5.5L258.7,282.4z"/>
	<path id="CL" d="M191.3,468V491h6.6l3.7,0.3l-2,4.3l-5.2,3.3l-3-0.3l-3.6-0.9l-4.5-3.2l-6.4-1.6l-7.7-5.9l-6.2-5.6l-8.4-11.5l5,2.1
		l8.6,6.8l8.1,3.7l3.2-4.7l2-7l5.6-4.2L191.3,468z M193.8,223.3l2.4,9.1l4.4-0.9l0.7,1.7l-2.1,6.9l-6.7,3.3l0.2,11.2l-1.3,2.2
		l1.8,2.7l-4.3,4.3l-4,6.5l-2.2,6.3l0.6,6.8l-3.8,7.3l2.8,12.4l1.6,1.3l0,6.8l-3.5,7.2l0.1,6.3l-4.6,4.9l0,7l1.9,7.6l-3.7,2.8
		l-1.6,7l-1.4,8.2l1,9.9l-2.5,1.7l1.4,9.6l2.8,3.2l-2,3.6l2.8,1.7l0.7,3.2l-2.7,1.6l0.7,5.1l-2.2,11.7l-3.3,7.7l0.7,4.6l-1.9,5.9
		l-4.7,4.1l0.5,10l2.2,3.5l4.1-0.6l-0.1,7.3l2.5,5.7L186,463l5.7,1.6l-5.4-0.1l-2.9,2.5l-5.5,3.6l-1,9.6l-2.6,0.2l-6.9-3.4l-7-7.1
		l0,0l-7.6-5.7l-1.9-6.3l1.7-5.7l-3.1-6.4l-0.8-16l2.6-8.8l6.5-7l-9.3-2.6l5.8-7.8l2.1-14.3l6.8,3l3.2-17.4l-4.1-2.2l-1.9,10.4
		l-3.9-1.2l1.9-11.8l2.1-14.9l2.8-5.4l-1.8-7.6l-0.5-8.7l2.6-0.2l3.8-12.2l4.2-11.9l2.6-10.9l-1.4-10.7l1.8-5.8l-0.7-8.7l3.6-8.5
		l1.1-13.2l2-13.9l1.9-14.7l-0.5-10.6l-1.3-9.1l3.1-1.6l1.6-3.3l3,4.3l0.8,4.6l3.2,2.7l-1.9,6.3L193.8,223.3z"/>
	<path id="CO" d="M150,90.2l-2.6-1.4l-3-2l-1.7,1l-5.2-0.9l-1.5-2.6l-1.1,0.1l-6.1-3.5l-0.8-1.9l2.3-0.5l-0.3-3l1.4-2.2l3-0.4
		l2.6-3.8l2.3-3.2l-2.3-1.5l1.2-3.5l-1.4-5.6l1.3-1.6l-1-5.2l-2.5-3.3l0.8-3l2,0.4l1.2-1.8l-1.4-3.6l0.7-0.9l3.1,0.2l4.6-4.3
		l2.5-0.7l0.1-2l1.1-5.2l3.5-2.9l3.8-0.1l0.5-1.3l4.8,0.5l4.8-3.1l2.4-1.4l2.9-3l2.2,0.4l1.6,1.6l-1.2,2.1l-3.9,1l-1.6,3.1l-2.4,1.8
		l-1.8,2.3l-0.8,4.4l-1.7,3.6l3.1,0.4l0.8,2.8l1.4,1.4l0.5,2.5l-0.7,2.3L168,44l1.5,0.5l1.5,2.1l7.9-0.6l3.6,0.8l4.3,5.3l2.5-0.7
		l4.4,0.3l3.5-0.7l2.2,1.1l-1.1,3.3l-1.4,2.1l-0.5,4.4l1.2,4l1.7,1.8l0.2,1.4l-3.1,3l2.2,1.3l1.6,2.1l1.9,6.1l-1.2,0.8l-1.2-3.6
		l-1.7-1.9l-2,2.1l-11.9-0.1l0.1,3.8l3.6,0.6l-0.2,2.3l-1.2-0.6l-3.5,1l0,4.4l2.7,2.2l1,3.5l-0.2,2.6l-2.8,16.7l-3.1-3.3l-1.8-0.1
		l4-6.2l-4.7-2.9l-3.7,0.5l-2.2-1l-3.4,1.6l-4.6-0.8l-3.6-6.4l-2.8-1.6l-1.9-2.9l-4.1-2.9L150,90.2z"/>
	<path id="EC" d="M119.8,110l3.3-4.5l-1.3-2.7l-2.3,2.8l-3.7-2.7l1.2-1.7l-1-5.5l2.1-0.9l1.1-3.8l2.3-3.9l-0.4-2.5l3.4-1.3l4.2-2.4
		l6.1,3.5l1.1-0.1l1.5,2.6l5.2,0.9l1.7-1l3,2l2.6,1.4l0.9,4.6l-1.9,4l-6.7,6.4l-7.4,2.4l-3.8,5.3L130,117l-3.5,2.5l-2.6-3.1
		l-2.5-0.7l-2.5,0.5l-0.2-2.2l1.7-1.4L119.8,110z"/>
	<path id="FK" d="M236.8,460.1l7.3-5.9l5.2,2.4l3.7-3.9l4.9,4.4l-1.8,3.5l-8.3,3l-2.8-3.5l-5.2,4.5L236.8,460.1z"/>
	<path id="GF" d="M289.8,74l-2.3,2.3l-2.9,0.4l-0.8-1.7l-1.4-0.3l-1.9,1.7l-2.7-1.2l1.6-2.6l0.5-2.8l1-2.6l-2.4-3.6l-0.5-4.2
		l3.2-5.3l2.1,0.7l4.5,1.4l6.5,5.2l1,2.5l-3.6,5.6L289.8,74z"/>
	<path id="GY" d="M245.7,38.2l4,2.3l3.8,4l0.2,3.2l2.3,0.2l3.3,3l2.4,2.1l-1,5.5L257,60l0.3,1.4l-1.1,3.2l2.7,4.4l1.9,0l0.8,3.4
		l3.7,5.3l-1.5,0.2l-3.4-0.5l-2,1.6l-2.8,1.1l-1.9,0.3l-0.7,1.2l-3-0.3l-3.8-2.8l-0.4-2.8l-1.6-3.1l1-5.2l1.7-2.1l-1.4-2.8l-2.1-0.9
		l0.8-2.7l-1.4-1.4l-3.2,0.3l-4.1-4.6l1.7-1.7l-0.1-2.8l3.8-1l1.5-1.1l-2.1-2.3l0.5-2.3L245.7,38.2z"/>
	<path id="PE" d="M185.4,198l-1.6,3.3l-3.1,1.6l-6.1-3.7l-0.5-2.6l-12.1-6.4l-11-6.9l-4.7-3.9l-2.5-5.2l1-1.8l-5.2-8.2l-6.1-11.4
		l-5.8-12.3l-2.5-2.8l-1.9-4.5l-4.8-4l-4.4-2.5l2-2.7l-3-5.8l1.9-4.3l4.9-3.9l0.7,2.6l-1.7,1.4l0.2,2.2l2.5-0.5l2.5,0.7l2.6,3.1
		l3.5-2.5l1.2-4.1l3.8-5.3l7.4-2.4l6.7-6.4l1.9-4l-0.9-4.6l1.6-0.6l4.1,2.9l1.9,2.9l2.8,1.6l3.6,6.4l4.6,0.8l3.4-1.6l2.2,1l3.7-0.5
		l4.7,2.9l-4,6.2l1.8,0.1l3.1,3.3l-5.5-0.3l-0.8,0.9l-5,1.2l-7,4.2l-0.5,2.8l-1.6,2.1l0.6,3.3l-3.7,1.8v2.6l-1.6,1.1l2.6,5.5
		l3.4,3.8l-1.3,2.6l4.1,0.3l2.3,3.3l5.4,0.2l5-3.6l-0.4,9.4l2.8,0.7l3.5-1.1l5.3,10l-1.3,2.1l-0.3,4.4l-0.1,5.3l-2.4,3.1l1.1,2.3
		l-1.4,2.1l2.6,5.3L185.4,198z"/>
	<path id="PY" d="M227.7,228.2l2.4-7.8l0.2-3.5l2.9-5.7l10.7-1.9l5.7,0.1l5.7,3.3l0.1,2l1.8,3.6l-0.4,8.9l6.5,1.3l2.5-1.3l4.1,1.8
		l1.2,2l0.6,6.1l0.7,2.6l2.3,0.3l2.3-1.1l2.2,1.2v3.7l-0.8,4l-1.2,3.9l-1,6l-5.5,5.2l-4.8,1.1l-6.9-1l-6.2-1.9l6-10.3l-0.9-3
		l-6.3-2.6L244,240l-5-1L227.7,228.2z"/>
	<path id="SR" d="M261.6,52.9l7.3,1.2l0.7-1.1l5-0.4l6.6,1.7l-3.2,5.2l0.5,4.2l2.4,3.6l-1.1,2.6l-0.5,2.8l-1.6,2.6l-3.5-1.3
		l-2.9,0.6l-2.5-0.5l-0.6,1.8l1,1.2l-0.5,1.2l-3.3-0.5l-3.7-5.3l-0.8-3.4l-1.9,0l-2.7-4.4l1.1-3.2L257,60l3.7-1.6L261.6,52.9z"/>
	<path id="UY" d="M258.7,282.4l4-0.7l6.1,5.5l2.3-0.2l6.3,4.5l4.8,4l3.5,4.9l-2.7,3.4l1.7,4.2l-2.6,4.6l-6.9,4.1l-4.5-1.5l-3.3,0.8
		l-5.7-3.2l-4.2,0.2l-3.7-4.1l0.5-4.7l1.3-1.6l-0.1-7.2l1.6-7.4L258.7,282.4z"/>
	<path id="VE" d="M174.8,17.1l-0.2,1.5l-3.6,0.7l2,2.8l-0.1,3.3l-2.7,3.6l2.3,4.9l2.6-0.4l1.4-4.5l-1.9-2.2l-0.3-4.7l7.6-2.5
		l-0.9-2.9l2.1-2l2.2,4.4l4.3,0.1l4,3.5l0.2,2.1l5.5,0l6.6-0.6l3.5,2.8l4.7,0.8l3.4-1.9l0.1-1.6l7.6-0.4l7.3-0.1l-5.2,1.8l2.1,2.9
		l4.9,0.5l4.6,3l1,4.9l3.2-0.2l2.4,1.5l-4.8,3.6l-0.5,2.3l2.1,2.3l-1.5,1.1l-3.8,1l0.1,2.8l-1.7,1.7l4.1,4.6l0.8,1.7l-2.3,2.3
		l-6.9,2.3l-4.4,1l-1.8,1.4l-4.9-1.5l-4.5-0.8l-1.1,0.6l2.7,1.6l-0.2,4.1l0.9,3.8l5.2,0.5l0.3,1.3l-4.4,1.7l-0.7,2.6l-2.5,1
		l-4.5,1.4l-1.2,1.9l-4.8,0.4l-3.4-3.2l-1.9-6.1l-1.6-2.1l-2.2-1.3l3.1-3l-0.2-1.4l-1.7-1.8l-1.2-4l0.5-4.4l1.4-2.1l1.1-3.3
		l-2.2-1.1l-3.5,0.7l-4.4-0.3l-2.5,0.7l-4.3-5.3l-3.6-0.8l-7.9,0.6l-1.5-2.1L168,44l-0.2-1.3l0.7-2.3l-0.5-2.5l-1.4-1.4l-0.8-2.8
		l-3.1-0.4l1.7-3.6l0.8-4.4l1.8-2.3l2.4-1.8l1.6-3.1L174.8,17.1z"/>
</g>
</svg>