<?xml version="1.0" encoding="UTF-8"?>
<svg id="Layer_1" xmlns="http://www.w3.org/2000/svg" xmlns:amcharts="http://amcharts.com/ammap" version="1.1" viewBox="0 0 512 512">
  <!-- Generator: Adobe Illustrator 29.1.0, SVG Export Plug-In . SVG Version: 2.1.0 Build 142)  -->
  <g id="_x3C_defs">
    <amcharts:ammap bottomLatitude="-14.558" leftLongitude="-171.151" projection="mercator" rightLongitude="-167.9323" topLatitude="-10.845"/>
  </g>
  <g>
    <path id="AS-WT" d="M106.1,474.7h-3c0,0-1.1-3.7-1.1-3.7l-15.4,4.4,11.6,8,7.8-8.7Z"/>
    <path id="AS-UU2" d="M51,5.8l.6,2.1,1.2-1.9-1.8-.2Z"/>
    <path id="AS-UU1" d="M460.8,506.2l.2-1.7-1.8.4,1.6,1.3Z"/>
    <path id="AS-MA" d="M281.6,464.6l-3.3-3.2-11,2,2.8,4.9,11.6-3.7ZM254.2,454.7l-5.7-.3,2.3,2.1,3.4-1.8Z"/>
    <path id="AS-ET" d="M106.1,474.7l17.6-8.1-13.2-.9-8.4,5.3,1.1,3.6h3Z"/>
  </g>
</svg>