<?xml version="1.0" encoding="UTF-8"?>
<svg id="Layer_1" xmlns="http://www.w3.org/2000/svg" xmlns:amcharts="http://amcharts.com/ammap" version="1.1" viewBox="0 0 512 512">
  <!-- Generator: Adobe Illustrator 29.1.0, SVG Export Plug-In . SVG Version: 2.1.0 Build 142)  -->
  <g id="_x3C_defs">
    <amcharts:ammap bottomLatitude="-54.757221" leftLongitude="112.902891" projection="mercator" rightLongitude="158.966830" topLatitude="-10.132839"/>
  </g>
  <g>
    <path id="AU-NT" d="M216.3,79.6l.6-1.1-1.5-1,.8-1h1.5s0-2.2,0-2.2l5.1,1.6,4.8-.3,1.4.5,1.8-1.2h1.5s.6,1.2.6,1.2l-.4.8.7-.9v-1.7l1.4-.5,1.9.4-1.2-.6v-.5c-.1,0,0-3.2,0-3.2l.6-1-2.2-2-1.3-.4-3.1,1-1.3-1.8-1.1-.6h-1c0,0,1.1-1.4,1.1-1.4l1.2-.6,1.1,1.1.8,1.9.8-.6-1-2.4,1.4.3.7-.4,1.8,1.5,1.8,2.7h.6c0,.1,1.6-1.9,1.6-1.9h.5s2.9,4.2,2.9,4.2l1.9-.2.6.8,1.5.6h1.3c0-.1,1.5-1.3,1.5-1.3l1.2.2-.8,1.3,1.1.6,1.2-.8,1.5,1.1.2,1.3,1.8-.3,1.6.3,2.8-.8,1.1,1.5,2.3,1.5,1.6.3,1.1-2h2.8c0-.1.8-.8.8-.8l-.9.2v-1.1c.1,0,1.9-.2,1.9-.2l1.4-1.1v-.8s.4,0,.4,0l.4.4-2.2,2.1.5.5-1.3,1.6.7,1,1.6-1.4,1.5-.4-.9,1.2.4.6.8-.4.2.3-.9,1.3.6,1,2.2-.2.6-.5.8-1.9-2-.8,3-2.4,1.2-.2-.2.8,1.5,3,.9-.3-.7-.7.9-.2,1.1.6,1.1,1.5-2.5,2-1.1,1.8-.2,1.3-1.4-.5.5,3-.9,2.2v-.3c-.1,0-1,.3-1,.3v-2.1c-.1,0-1.8,2-1.8,2l-1.1-.6-1.8,1-.4.7.5.7-.8,1-.2,1.2.9,1.6,1.1-.7-1.4,5.1-3,3.3-.9,2.3-1.8.9,1.1,2.6,8,4.8,1.2,2.3,2.7,1.3,2.1,2h2.9c0,.1,3.7,2.5,3.7,2.5l4,1.4,1.3,2.1,1.5,1.3h0v109.6h-97.6c0,0,0-128.4,0-128.4h0l2,1.2v2.3c0,0,.8-.9.8-.9l-.3-3,2.5,1,2.3,3,.6-.2-1.1-1.8.2-2,1.7.3,1.6-1.1-1.9.6-1-.6-1-1.5,1.3-.3.8-.7-1.2.4-1.3-.2-2-1.5v-.9c.1,0,1.5-2.1,1.5-2.1l2.6-1.6,1-5.3.8-.8.5.9,1.1-.2,2.4-2-1.6-2,.3-2.5.4-.2.5.4,1.1-.6.3-2.5,1.7-.8,1,1.1h1c0,0-.9-.3-.9-.3l-.3-1.2.4-1.6-.3-.2,2.1.3,1.4,2.3ZM217,71.8l-5.1-3.3-1.4-4.3.3-1,2,2.1,1.4.4,2.1-.9,1.1.5,1.6-1,.8,1.6-.3-1.2.9-1.1,1.6.6,1.2,1.6v.8c0,0-2.7,2.9-2.7,2.9l-3.5,2.3ZM281.6,96.6l.6-.3-.3,1.4-.6.2-5.6-.9.6-3.7.3-.5,1.8-.5-.3-.7.9-.8h.5s-.5.8-.5.8l.4,1.2,1,.2.8-1.1.4.6-1.6,1.5-.6,2.5,1.8.5.4-.4ZM211.9,70.7l-1.8-.7-2.5.6-.8-.4.5-1.4.9.3.4-.4-.2-2,.9-1.6,1-.2,1.6,4,1.6.9-.2.5-1.3.2ZM277.2,66.5l2.9-4.8-.5,2-1.8,2.5-.6.3ZM234.8,65.3l-1-3.2.8-.3.5,1.7-.3,1.8ZM283.2,115.1l-1.3-1.5.8-1.2.9,1.9-.4.7ZM273.9,93.1l-.3-1v.7c-.1,0-.7-.2-.7-.2v-.9c.1,0,1.1-.8,1.1-.8l.9.7-1,1.4ZM273.7,69.1v-.5l1-.8h.8s1.4-1.2,1.4-1.2l-1.2,1.4-2.1,1.1ZM277.4,113v-1.1c0,0,.9-.3.9-.3l-.2,1.2h-.7Z"/>
    <path id="AU-WA" d="M35.5,232.8l.2-1.8-2.4-2.6-2.5-5.4-1.1-.7-1-2.8v-1.6s-2.4-3.9-2.4-3.9v-2.4c0,0,1.6-5.6,1.6-5.6l.8-1.5,1.5-1.2.3-1v-2.9c0,0,.5-1.9.5-1.9v-1.1c-.1,0-1.8-3.9-1.8-3.9l3-7.3,1.1-1.6,1.4-.5v.3c.1,0-.9,4.1-.9,4.1l.7,1.5-.3,2.2.5.5,2.4-1,3-7,3.2-1.8h1.2c0,0,4.3-2,4.3-2l1.8-2.2,2-1.1,1.3-1.9,2.5-1.2,1-1.1,2.5-.7,2.5-1.8,1.8.8,2.1-1.1,3,1.3,3.7-.6,1.8-.8,3.6-3,.6.3,6.2-1,1.9-2.8,1.1-.8h1.2c0-.1,4.3,1.2,4.3,1.2l2.2-1.1,6-1.1,7.5-3.3,2.7-2.3,2.3-3.1,1.6-3.5,1.5-2,.2-1.8,1.5-.4,4.3-3.6.3-1.4-1.2-.5-.4-.7v-2.1c-.1,0-.8-1.7-.8-1.7l.4-3.6,2.2-2.8.7-.5h1.4s-.6-1.2-.6-1.2l.5-.6,2-.3v-1.8c0,0,1.5-1.1,1.5-1.1l.3-1,.8-.3.7.7-.8.2-.4,1.2,1.5,1.5,5.2,9.9v-2.6c-.1,0,.5-1.8.5-1.8l-.5-1.5.2-.9h.7s2.2,2.4,2.2,2.4h.7s-.9-.8-.9-.8l-.4-1.6,1-1.2h-1.4c0,0-1.7-2.5-1.7-2.5v-1.2c0,0-1.2,0-1.2,0l-.8-.8,2.3.3.7-1.1v-1s-1.6-.6-1.6-.6v-1.3c.1,0,1.8-.4,1.8-.4l.9.7-.8.7,1.7,1.3.8-1.5,1.9.4,1,1.3h1.1c0,0,.6-.6.6-.6l1,.5h4.5c0,.1-3-.8-3-.8h-2.3s-.3-1.2-.3-1.2l.6-1.3h.4c0,0,.5.7.5.7l.8-.6.2-2.2,1.2-1.2h-1.2c0,0-.9,1.4-.9,1.4l-1.5-.8-.3-2.2.9-2.1,1.3.4.8-.4v-2.4c0,0,.5-.1.5-.1l5.2,3-1.1-1,.2-1.4-2,.4.3-1.2h.7l.4-.7-1.8.8-.6-.9.8-.7h.9c0,.1,1.1-1.1,1.1-1.1l.9,1.8v-1.4s1.7,1.4,1.7,1.4l1.2-.3-2.7-2.1.6-.5-1.2-1.7,2.2-2.5,2.7.3v-2.7c-.1,0,.3-1,.3-1l1.2.6-.9,4,.9-2.5,1.3.7-.2,1.2.8.8,1.5-1.4,1.2-4.3-.7-1.8-.7-.4,2.2.4v.8c0,0-.6.2-.6.2l.4,1.2,1,.7.5-2,1.8-1-.5,1.2,1.6,1.7,2.1-2.9-.5-2,1.2-.5,1.1-.2.7.5,1.2,2.2.3-.8,2.9.6,1,1.5,1.5,1,3.2,4.5.5-.2,1.8,1.6.2,1.1-1.3,3.4v3.3s-.5,1.1-.5,1.1l.8-.7.4-2.5,1.4,1,.3,1.1v-1.1c0,0-1-2.7-1-2.7l1.2-1.7.5,1.5h1s-.7-2.7-.7-2.7l1.6-.5,5,1.3h0v128.5h0v70.1h0l-8.9,4.3-9.2,3-7,.6-5.5-1-1.2.6-1.1-.2-5,3.6-2.3.7-6,3.8-5,1.1-1.9,2-1.6,5.4-2,1.8-.4,1.1-2.1,1.6h-1.9c0-.1-2.2,1.5-2.2,1.5l-.7-1.7-.9-.4-1.9.6h-5.3c0,0-1,.8-1,.8v.7c-.1,0-1.6.1-1.6.1h-.4c0-.1,0-1.8,0-1.8l-.8-.9-2.3,1-3.5-1.1-6.5.5-3.5.8-1.3.7-4.5-.6-2.1.6-2.1,1.6-1.6,3-1.5,1.5-1.3.8-3.2-.7-1.9,1.3.2.8-.4.4-2.6,1.1-2.1,2.4-2.2,1.2-2.7.5.2.5,1.5.3-.7.4-2.2-1-1,.3-.2.9-3-1.6h-4.2s-.8.5-.8.5l-4.5-.8-2.6-1.8-2.6-.6-1.7-2.8-3.5-2.9-2.8-1.1-1.3.9-1.2-1.3-.6-7.4.5-2.2,2.4,1.7,1.9-.4,3.4-4.6-1.3-7.6,1.1-1.9-.7,1.6.9,1.6.5-2.5-.6-10.9-7.1-15.3-.3-2.9-.9-2.7.4-7.1-1-3.5-.6-1.4-2.3-2.8-.4-2.9-.9-1.8-3.8-4.9-.6-2.9.5-1.8-.2-1.3-2-4.9-3.8-6.1-3.3-3.5-.6-1.9.7-2.5.5,3,.3-1.9,1.6,2,.3,2.7,1.1,1.8,1.5-.6.8-1.2v-2.1c0,0-3.3-3.1-3.3-3.1l-.6-2.6-1.1-1.8.8-2,2.5,3.1.4,1.1-.6,1.8.4,1.9.9-.3.9-1.7.9,3.6,1.2,1.6,1.4-1.1.3-1-.5-1.3.4-2.3h.3ZM24.3,234.5l-2.8-4.3-.5-1.9.5-1.7h.5c0,.1-.2,1-.2,1l2.4,5.7v1.2ZM147.1,110.8l-.6-1.3,1-.7.9,1.6-1.3.5ZM47.7,172.5h-.7c0-.1,0-.8,0-.8l1.5-1.7.2,1.2-1,1.2ZM153.8,101.8l-.6-.3v-.8c0,0,.8-1.2.8-1.2l.5.6-.8,1.8Z"/>
    <path id="AU-ACT" d="M413.3,358l-1.3-.6h0l-1.7-2.9v-1.8s.5-2.6.5-2.6l2.9-2.1,3.5,2.2-2.3.7-.5.7-.6,2.5.2,3.1h0l-.6.9Z"/>
    <path id="AU-NSW" d="M423.5,379.5l-19.2-9.7h-1c0,0,1-2.6,1-2.6l-1.7-2.9-.6-4.4-1.2-.8-1.8-.8-.9.4-1.5-.3-1,.2-1,1.3-2.8.7h-1.5c0-.1-4.5-1.8-4.5-1.8l-2.2,1-5.4-.8-3.1-2.2-1.8.7-1.3-.4-2.7.4-.6,1.6.2,1.4-2.3.4-1.3-.8-2.3-2.7-.6-1.3-2.8-2.6-3.5-2.3-1.9-.7-.4-1.7-1.7-.7-.5-1.1-.2-4-2.3-1.3-2.9-.6-.8-.8-.8.5-.8,2.2-.9-.2-.9-2.2-.9-.9v-1.9s-1.6-2.5-1.6-2.5l-2.1-1.2-1.7.4-1.6-.4-2.1,1.5-3.2-1.8h-1.9c0-.1-.8-.7-.8-.7h0v-63.7h86.4l5.6-4.9,1.2-.3,1.4.7,6.4-1.1,1.9,1.4,3.5-.3,2.7,1.2,2.8,2.4v1.9c.1,0,.8,1.1.8,1.1l1.1-.7,1-2,1.9-.8,1.1,1.1,2.1-1,.4-2-1-2.2,2.3-1.4,2.2-.7,1.3-1.4,1.2.8,1.8.4h3.8c0,0,.8-1.2.8-1.2l2.6-.7.8-.7h0l.8.7v.8c.1,0-.2,2.7-.2,2.7l.7,2.1-.2,2.5-1.7,2.2-1.2,3.5.3.9-1.2,6.9-2.5,7.7v3.4c-.1,0,.6,1.4.6,1.4l-2.5,8.9-3.7,6,.2,3.5-4.4,3.6.2,1.1-3.6,1.5-2.6,4.9-1.3.6v.6c-.1,0,.4.4.4.4l-.4,1.4-1.2,1.7-.7,4.4-1.9.6,1,.6-2.8,3.6-1,3,.4.5-.5,2.5-.9,1.2,1.1,1.9-.2.9-.3.2-.4-.4v-.9s-1,.4-1,.4l.2,1.1-1.8,1.3-4.1,9.5-.3,5.2-.6.8-1.9,7.2v2s1.1,1.2,1.1,1.2v.9c.1,0,.1.5.1.5l-.8.2.3,3.1ZM413.8,354l.6-2.5.5-.7,2.3-.7-3.5-2.2-2.9,2.1-.5,2.6v1.9s1.7,2.9,1.7,2.9h0l1.4.6.5-.8-.2-3.2Z"/>
    <path id="AU-SA" d="M275,335.3l-1.1,1.7-.9.4-.9,1.6-1.1.7-.7,1.3-.8,2.3h.8c0,0,1.4-1,1.4-1v.7c.1,0,0,2.6,0,2.6l-.5.2-1.8-2h-.7c0,.1-.5,1.2-.5,1.2h-.4s-3.4-4.3-3.4-4.3l-1.2-.8-1.1.4,1-2.1v.8c0,0,1.5,1.5,1.5,1.5l.6.4,1.1-.4-1.2-.9-1.3-7.1-2.5-3.1-2.1-1.7.2-2.1-1.6-3.8-1.2-.5-2.9.8-.7-.7-2.1-5.5h.9c0,0,.6,1.1.6,1.1l1-1.7-.2-1.1-1.8-1.7-2.8,1.1.3-1.8h.7c0,0-1.4-2-1.4-2l-1.8-1.3v-.5c.1,0-.6-.2-.6-.2l-1.3,1.4-3.5-.2-4.1-3-2.2-.3-2.8,1.3h-1.4c0-.1-4.6-4-4.6-4l-6.7-3.1-3.9,1.7-7-.4-12.5,1.4h0v-70.2h97.7c0,0,32.6,0,32.6,0v36.6h0v63.7h0l-.3-.4v54.4h-3c0,.1-1.8-.9-1.8-.9l-1.9-1.9-2.5-4.5-1.4-.5-2.6-4,.3-.7-.5-1.8.2-1.2,1.2-1.7-.4-3.2-1.9-4.6-3-4-3.1-3.1,3.5,2.8,2.8,4.4-1-3-5.1-5.1v-1.2s.7-.3.7-.3l.8.7v1.9c0,0,1.1-.1,1.1-.1l.2-4.2-1.6-.8-.8.8-1.8.4v.9c-.1,0,.7.5.7.5l-.5.6-2.9-.2-2,1.5-3.9.2-.9-.7.6-1.1,1.4-.7,1.7-1.8.3-3,.5-1.2-.2-3.9-2.4-3.3-.6-2.2-1.4-2.4-.9,1.6v1.1c.1,0-.9,1.1-.9,1.1l-.4,1.3v2.4c-.1,0-1.5,5.6-1.5,5.6l-.8.6-2.8-.8-2,.8-.7.9-1.5-.2-1.5,1-.7-.7,1.1-1.4,1-3.2.9.4,1.9-.3,1.1.7.5-.3.7-3.7v-4.9c0,0-.5-1.6-.5-1.6l1-.9.6-2.8,3.8-4.2-1.5-3.6.3-1,2.2-.9v-.7c0,0-1-.9-1-.9l-1.5-5.7-.6-.4v2.1c0,0,.4.6.4.6v1.4c0,0-.3,1.9-.3,1.9l-2,.5-1.2,1.3-3,7-.7.6h-1.3s-.8-.4-.8-.4l-.9,1.6-4.9,3-1.1,2ZM292.5,355.5l1.6.5.5,1.4-.8.7-1.3-.6h-1.7c0-.1-1.5.6-1.5.6v1.2c0,0-1.8,1-1.8,1l-1.1-1.1-1.4-.3-.8.8-4.8.2-1.9-1.9.5-2,5.9-1.4,2.1-1,2.3.2.6.6v1.3c.1,0,2.2.8,2.2.8h.6s.7-1,.7-1Z"/>
    <path id="AU-VIC" d="M419.1,382.5l-2.9.8-10.9.4-6,2.2-4.2,3.5-5.4,5.7-4.8.9h-2.3s-.4.6-.4.6l1.2,2.2,1.2-.9.2-.8.4.2.2,3.8-1,1-.8-.7-.8-2.1-1.1-1.4-.8-.4-.7.6h-1.1c0,0-1-2.9-1-2.9h-1c0-.1-1.3.4-1.3.4l-2.1-1.9.2-1.3,1.3-1.1-1.2-2h-2c0,.1-.5,1.7-.5,1.7l-2,2h-1.4c0,.1-1.5-1.6-1.5-1.6l2.4-.5,1.6-2.8-.4-1.3-2-2.4-4.2,3.2-1.7.4v.5c0,0,1.6.3,1.6.3l1.4-.6.8.2v1s-.5.9-.5.9l-3.2.5-3.3,2.2-2.4,2.9-1.2.3-2,1.9-5.4-3.1-2.7-.9-2.9-2.2-1.7-.7-2.4.5-2.1-1.5-2.3-.3-1.4.8.3,1.1-.9.2-1.3-.6-2.8-2.9-2.4-1.3h0v-54.4s.3.4.3.4h0l.8.6h1.9c0,.1,3.2,2,3.2,2l2.1-1.5,1.6.4,1.7-.4,2.1,1.2,1.5,2.5v1.9s1,.9,1,.9l.9,2.2.9.2.8-2.2.8-.5.8.8,2.9.6,2.3,1.3.2,4,.5,1.1,1.7.7.4,1.7,1.9.7,3.5,2.3,2.8,2.6.6,1.3,2.3,2.7,1.3.8,2.3-.4-.2-1.4.6-1.6,2.7-.4,1.3.4,1.8-.7,3.1,2.2,5.4.8,2.2-1,4.5,1.7h1.5c0,.1,2.8-.6,2.8-.6l1-1.3,1-.2,1.5.3.9-.4,1.8.8,1.2.8.6,4.4,1.7,2.9-1,2.5h1c0,0,19.2,9.8,19.2,9.8h0l-2.1.6-1.2,1.9-1,.5ZM373.3,392.1l-.8-.3v-1.5c.1,0,1.9.4,1.9.4l.4.5-1.5.9ZM373.3,394l-.9-.7h-1.6l.8-.7,1-.2.8,1.6Z"/>
    <path id="AU-QLD" d="M423.5,192.1l.7.8-1.3-3.4.9-2.2h.9s1.3,2.7,1.3,2.7l4.3,2.3-.6-2.4.3-.6h.8c0,.1.8,1.3.8,1.3l-.2,1.3,1.5,2.1-.7,4.7.6,1.3v1.7c-.1,0,.6,1.5.6,1.5l1.7.6,1.6,2.8,1.1.4,1.7,1.8,1.3.7v.6c0,0,.7-.4.7-.4l.3-.9h.5c0,.1,2.7,2.9,2.7,2.9l2.1,4.6,3.6,2.4.4,2.2,1.8,2.9,2.6.5.4,1.8-.6,1.5.3,2.1.7.4.6,1.4,1.6,1-1.2,4,.9,9.4-1.3,1.1.3,1.7,2.1,2,.7,2.3.9,1.3.3.9-.2,1.6,1,2.1h0l-.8.7-2.6.7-.8,1.1h-3.8c0,0-1.8-.3-1.8-.3l-1.2-.8-1.3,1.4-2.2.7-2.3,1.4,1,2.2-.4,2-2.1,1-1.1-1.1-1.9.8-1,2-1.1.7-.7-1.1v-1.9c-.1,0-2.9-2.4-2.9-2.4l-2.7-1.2-3.5.3-1.9-1.4-6.4,1.1-1.4-.7-1.2.3-5.6,4.9h-86.3v-36.5h-32.6v-109.6h0l3.1,2.1,3.8.4,2.2,1.1,1.8.3,1.4,2,.2,1.5,1.1,1.6,1.9.4,2,1.6,2.1.6,2.2,1.6,4.1-.4,4.7-2.5,1.3-5.1,2.6-3.3,1-2.3,1.5-4.8-.3-1.9.6-4.1,2.2-5.7-1.1-2.9-.5-3.2.9-3.8-1.3-2.2v-1.3c0,0,.7-3.3.7-3.3l1.6-3.1-1-3.3,1.7-1.5.5-1.5.6.2.8,2.2v-.5c0,0-.5-1.8-.5-1.8l-1.8-2.3.3-.3-.9-.2.2,1.1-.6.2-.4-.4,2-3.5.8-2.5.5-.2.3,1.3,1.2-.2-.8-1.6,1.9-6.1.3-4.7,2.1-.6,1.1-2,1.8.4-1,1.2v1c0,0,1-.9,1-.9l1.5,1.2.5,1,.8,3.4v4.9c0,0,1.1,1,1.1,1l1.5-.3,1,.9-1,1.7-.3,2.1,2.1.9v1.2s1.7,1.1,1.7,1.1l-.7,2.6,1.6.3v4.7c0,0,.9,1.4.9,1.4l-.7,3.6.8,2,.9,1,1,4.3,1.1.8h1.4s4.6-2.6,4.6-2.6l.5-1h.4c0,0,.7,1.1.7,1.1l.4,2.5.7.8,2.4.7.7,1.5,3.9,2.1-.9,2.1.6,2.2-.4,1.3,1.2,3.2v2l1.1,1.9-.6,4,4.4,5.3,1.4-.5.3.3-.8,1.9,1.6,3.3.8,3.7v3c-.1,0-1.1,2.1-1.1,2.1v1.1c0,0,2.3,2.9,2.3,2.9l1.3.5-.6,4,3.1,2.9,2.1.5,1.3,1.3,2,.4.7.7h3.2c0,.1-.3-1.1-.3-1.1l1.7,2.6.4,2.2.8,1.1h1.1s0-1.3,0-1.3h.7s1,2.1,1,2.1l3.3.6.9,1-.3.4,1.5,1.5.6-.2v-1.4c-.1,0,2.2,1.8,2.2,1.8l1,.2,1.8,3.5-1.6-.9-.5.2-.8,1,.7,1.8,5.3,4.2.3,2.3,2.2,3.5v2.2c-.1,0,.8,3.5.8,3.5l1.9,3.2-.3,1.7,1.6-1.3,1.7,2.1ZM457.2,230.3l-.9-.7-.6-2.1,1.3-2.6-.2-1.3,2.1-2.8v-.9s-.9-1.2-.9-1.2l1.3-1.4v2.4c0,0,1,1.3,1,1.3l-2.6,6.2-.5,3.1ZM305.9,125.5l.2-1.8,1.5-1.6,2.5-.6,2.1.3v.7c0,0-.4.2-.4.2l-1.2-.2-1,.4-.5,1.5-3.2,1.1ZM437,206.4l-1.8-2.1-.5-1.8h.5c0-.1,1.7,1.2,1.7,1.2l.8,2.3-.8.4ZM383.4,145.2l-.8-.3-.2-1-1.2-1.4,2,.6.9,1.3-.7.8ZM460.7,253.7l.3-3.8h1.2s-.9,3.8-.9,3.8h-.5ZM460.9,249.2l-.7-2v-1.6l.9-.5-.2,4.2ZM338.8,59l-.7-.6v-.7s1.1-.5,1.1-.5l.5,1.2-.8.6ZM339.9,53.4l-1-.7.4-.6h.6c0-.1.6.5.6.5l-.6.8ZM308.9,129.9l-.3-.7,1.1-1,.6.4.2.8h-1.3s-.3.5-.3.5Z"/>
    <path id="AU-TAS" d="M390.2,466.5l-.9.5-.2-.5-1.4-.2-.9-.7-3.3-.3-.7-.7-1.3.4-.8-.3-1.1-1.8.6-.5,2.6.7v-1s-.8-.6-.8-.6l-.4.8-3.1-.5-2.6-4.7-.9-.2-.6-.9-1.1-3.6-1-.7-.6-5.2.2-.3,2.2,2,.5,2.2.9-2.5-1-.4-1.9-2.1-.4-2.1-3.2-4.7-2.9-7.2-.7-4.1.9-.8v-1.7s.7-.4.7-.4l2.4.3,1.4,1,1.7-.3,10,5.1h3.3c0-.1.9.4.9.4v-.5s1.6-1.2,1.6-1.2l.6.2.2,1,1.5.3-1.3-.8v-.7s2.1-1.2,2.1-1.2l1.4.5,2.3-.5.7.6.8-.5,1.3-2,.7-.2,1.8.9.7-.4.8-1.7,1.2.3,2.1,1.9.6,1.4-.7,2.5.6,2.4-.5,1.7.4,2.3-.5,2.9,1.1,5.9-.6.8-.4-.3.4-1.7-1.2-2.8-1.3,2.5-.8,5.9-.6,1.3v1.5c.1,0-.7.8-.7.8l-.4,1.5.6.2v-.7c.1,0,1.1,1,1.1,1l-.5,2.6.5,2.1-1-.7-1.2.9-1.7-2.7v-.7c-.1,0,.8-1.2.8-1.2l.8,1.7,1.3-.4-.8-1.4-2.9-1.5-.6.5.5,1.8-.3.6-1.1.4-.2-2.2-1-.6.3.9-1.2,3.4v2c0,0-.7.2-.7.2l-.9-.6-.9-1.9-.5.3v1s1.4,1.2,1.4,1.2l-2,4.9ZM403.4,417.9l-1-.5-.2-1.4-1.2-2.3-1.5-1.4,1.3-1.7.9-.4,2.1,2.9,1.3.9.5,3.2-2.2.8ZM357.7,415.9l-.4-.3v-1.9c0,0-.6-.8-.6-.8v-.8s.2-2.3.2-2.3l.9-.6v-1.2s.5-.1.5-.1l1.4,1.2.4,3.8-.4,1.5-2,1.4ZM405.7,421.1l-.2-1-2.5.3-1-.4v-.5s.7-.6.7-.6l1.5.2,1.5-.8,1.5,1.8-1.5,1ZM394.4,464.9l-1.4-.2-.6-1.2,1.9-2.4.7,1.8-.7,1.9ZM520.1,652h-.5s0-1.6,0-1.6l.6-2.8.8-.8-.9,5.2ZM395.1,461.2l-.8-1.6.7-1.2.8,2.5-.8.3ZM402.1,453.7v-2s1.2-.4,1.2-.4l.4,1.1h-.8s-.9,1.3-.9,1.3ZM368.2,424.3l-.2-.8.6-.8,1,1.1-1.4.5Z"/>
  </g>
</svg>