<svg xmlns="http://www.w3.org/2000/svg" xmlns:amcharts="http://amcharts.com/ammap" id="Layer_1" viewBox="0 0 512 512"><g id="_x3C_defs"><amcharts:ammap bottomLatitude="-54.757" leftLongitude="112.903" projection="mercator" rightLongitude="158.967" topLatitude="-10.133"/></g><g><path id="AU-NT" d="m216.3 79.6.6-1.1-1.5-1 .8-1h1.5v-2.2l5.1 1.6 4.8-.3 1.4.5 1.8-1.2h1.5l.6 1.2-.4.8.7-.9v-1.7l1.4-.5 1.9.4-1.2-.6v-.5c-.1 0 0-3.2 0-3.2l.6-1-2.2-2-1.3-.4-3.1 1-1.3-1.8-1.1-.6h-1l1.1-1.4 1.2-.6 1.1 1.1.8 1.9.8-.6-1-2.4 1.4.3.7-.4 1.8 1.5 1.8 2.7h.6c0 .1 1.6-1.9 1.6-1.9h.5l2.9 4.2 1.9-.2.6.8 1.5.6h1.3c0-.1 1.5-1.3 1.5-1.3l1.2.2-.8 1.3 1.1.6 1.2-.8 1.5 1.1.2 1.3 1.8-.3 1.6.3 2.8-.8 1.1 1.5 2.3 1.5 1.6.3 1.1-2h2.8c0-.1.8-.8.8-.8l-.9.2v-1.1c.1 0 1.9-.2 1.9-.2l1.4-1.1v-.8h.4l.4.4-2.2 2.1.5.5-1.3 1.6.7 1 1.6-1.4 1.5-.4-.9 1.2.4.6.8-.4.2.3-.9 1.3.6 1 2.2-.2.6-.5.8-1.9-2-.8 3-2.4 1.2-.2-.2.8 1.5 3 .9-.3-.7-.7.9-.2 1.1.6 1.1 1.5-2.5 2-1.1 1.8-.2 1.3-1.4-.5.5 3-.9 2.2v-.3c-.1 0-1 .3-1 .3V84c-.1 0-1.8 2-1.8 2l-1.1-.6-1.8 1-.4.7.5.7-.8 1-.2 1.2.9 1.6 1.1-.7-1.4 5.1-3 3.3-.9 2.3-1.8.9 1.1 2.6 8 4.8 1.2 2.3 2.7 1.3 2.1 2h2.9c0 .1 3.7 2.5 3.7 2.5l4 1.4 1.3 2.1 1.5 1.3v109.6h-97.6V104l2 1.2v2.3l.8-.9-.3-3 2.5 1 2.3 3 .6-.2-1.1-1.8.2-2 1.7.3 1.6-1.1-1.9.6-1-.6-1-1.5 1.3-.3.8-.7-1.2.4-1.3-.2-2-1.5v-.9c.1 0 1.5-2.1 1.5-2.1l2.6-1.6 1-5.3.8-.8.5.9 1.1-.2 2.4-2-1.6-2 .3-2.5.4-.2.5.4 1.1-.6.3-2.5 1.7-.8 1 1.1h1l-.9-.3-.3-1.2.4-1.6-.3-.2 2.1.3 1.4 2.3Zm.7-7.8-5.1-3.3-1.4-4.3.3-1 2 2.1 1.4.4 2.1-.9 1.1.5 1.6-1 .8 1.6-.3-1.2.9-1.1 1.6.6 1.2 1.6v.8l-2.7 2.9zm64.6 24.8.6-.3-.3 1.4-.6.2-5.6-.9.6-3.7.3-.5 1.8-.5-.3-.7.9-.8h.5l-.5.8.4 1.2 1 .2.8-1.1.4.6L280 94l-.6 2.5 1.8.5zm-69.7-25.9-1.8-.7-2.5.6-.8-.4.5-1.4.9.3.4-.4-.2-2 .9-1.6 1-.2 1.6 4 1.6.9-.2.5-1.3.2Zm65.3-4.2 2.9-4.8-.5 2-1.8 2.5zm-42.4-1.2-1-3.2.8-.3.5 1.7zm48.4 49.8-1.3-1.5.8-1.2.9 1.9-.4.7Zm-9.3-22-.3-1v.7c-.1 0-.7-.2-.7-.2v-.9c.1 0 1.1-.8 1.1-.8l.9.7-1 1.4Zm-.2-24v-.5l1-.8h.8l1.4-1.2-1.2 1.4-2.1 1.1Zm3.7 43.9v-1.1l.9-.3-.2 1.2h-.7Z"/><path id="AU-WA" d="m35.5 232.8.2-1.8-2.4-2.6-2.5-5.4-1.1-.7-1-2.8v-1.6l-2.4-3.9v-2.4l1.6-5.6.8-1.5 1.5-1.2.3-1v-2.9l.5-1.9v-1.1c-.1 0-1.8-3.9-1.8-3.9l3-7.3 1.1-1.6 1.4-.5v.3c.1 0-.9 4.1-.9 4.1l.7 1.5-.3 2.2.5.5 2.4-1 3-7 3.2-1.8h1.2l4.3-2 1.8-2.2 2-1.1 1.3-1.9 2.5-1.2 1-1.1 2.5-.7 2.5-1.8 1.8.8 2.1-1.1 3 1.3 3.7-.6 1.8-.8 3.6-3 .6.3 6.2-1 1.9-2.8 1.1-.8h1.2c0-.1 4.3 1.2 4.3 1.2l2.2-1.1 6-1.1 7.5-3.3 2.7-2.3 2.3-3.1 1.6-3.5 1.5-2 .2-1.8 1.5-.4 4.3-3.6.3-1.4-1.2-.5-.4-.7v-2.1c-.1 0-.8-1.7-.8-1.7l.4-3.6 2.2-2.8.7-.5h1.4l-.6-1.2.5-.6 2-.3V124l1.5-1.1.3-1 .8-.3.7.7-.8.2-.4 1.2 1.5 1.5 5.2 9.9v-2.6c-.1 0 .5-1.8.5-1.8l-.5-1.5.2-.9h.7l2.2 2.4h.7l-.9-.8-.4-1.6 1-1.2h-1.4l-1.7-2.5v-1.2H136l-.8-.8 2.3.3.7-1.1v-1l-1.6-.6v-1.3c.1 0 1.8-.4 1.8-.4l.9.7-.8.7 1.7 1.3.8-1.5 1.9.4 1 1.3h1.1l.6-.6 1 .5h4.5c0 .1-3-.8-3-.8h-2.3l-.3-1.2.6-1.3h.4l.5.7.8-.6.2-2.2 1.2-1.2H148l-.9 1.4-1.5-.8-.3-2.2.9-2.1 1.3.4.8-.4v-2.4l.5-.1 5.2 3-1.1-1 .2-1.4-2 .4.3-1.2h.7l.4-.7-1.8.8-.6-.9.8-.7h.9c0 .1 1.1-1.1 1.1-1.1l.9 1.8v-1.4l1.7 1.4 1.2-.3-2.7-2.1.6-.5-1.2-1.7 2.2-2.5 2.7.3V98c-.1 0 .3-1 .3-1l1.2.6-.9 4 .9-2.5 1.3.7-.2 1.2.8.8 1.5-1.4 1.2-4.3-.7-1.8-.7-.4 2.2.4v.8l-.6.2.4 1.2 1 .7.5-2 1.8-1-.5 1.2 1.6 1.7 2.1-2.9-.5-2 1.2-.5 1.1-.2.7.5 1.2 2.2.3-.8 2.9.6 1 1.5 1.5 1 3.2 4.5.5-.2 1.8 1.6.2 1.1-1.3 3.4v3.3l-.5 1.1.8-.7.4-2.5 1.4 1 .3 1.1v-1.1l-1-2.7 1.2-1.7.5 1.5h1l-.7-2.7 1.6-.5 5 1.3v198.6l-8.9 4.3-9.2 3-7 .6-5.5-1-1.2.6-1.1-.2-5 3.6-2.3.7-6 3.8-5 1.1-1.9 2-1.6 5.4-2 1.8-.4 1.1-2.1 1.6h-1.9c0-.1-2.2 1.5-2.2 1.5l-.7-1.7-.9-.4-1.9.6h-5.3l-1 .8v.7c-.1 0-1.6.1-1.6.1h-.4v-1.8l-.8-.9-2.3 1-3.5-1.1-6.5.5-3.5.8-1.3.7-4.5-.6-2.1.6-2.1 1.6-1.6 3-1.5 1.5-1.3.8-3.2-.7-1.9 1.3.2.8-.4.4-2.6 1.1-2.1 2.4-2.2 1.2-2.7.5.2.5 1.5.3-.7.4-2.2-1-1 .3-.2.9-3-1.6h-4.2l-.8.5-4.5-.8-2.6-1.8-2.6-.6-1.7-2.8-3.5-2.9-2.8-1.1-1.3.9-1.2-1.3-.6-7.4.5-2.2L46 328l1.9-.4 3.4-4.6-1.3-7.6 1.1-1.9-.7 1.6.9 1.6.5-2.5-.6-10.9-7.1-15.3-.3-2.9-.9-2.7.4-7.1-1-3.5-.6-1.4-2.3-2.8-.4-2.9-.9-1.8-3.8-4.9-.6-2.9.5-1.8-.2-1.3-2-4.9-3.8-6.1-3.3-3.5-.6-1.9.7-2.5.5 3 .3-1.9 1.6 2 .3 2.7 1.1 1.8 1.5-.6.8-1.2v-2.1l-3.3-3.1-.6-2.6-1.1-1.8.8-2 2.5 3.1.4 1.1-.6 1.8.4 1.9.9-.3.9-1.7.9 3.6 1.2 1.6 1.4-1.1.3-1-.5-1.3.4-2.3h.3Zm-11.2 1.7-2.8-4.3-.5-1.9.5-1.7h.5c0 .1-.2 1-.2 1l2.4 5.7v1.2Zm122.8-123.7-.6-1.3 1-.7.9 1.6-1.3.5Zm-99.4 61.7H47v-.8l1.5-1.7.2 1.2-1 1.2Zm106.1-70.7-.6-.3v-.8l.8-1.2.5.6-.8 1.8Z"/><path id="AU-ACT" d="m413.3 358-1.3-.6-1.7-2.9v-1.8l.5-2.6 2.9-2.1 3.5 2.2-2.3.7-.5.7-.6 2.5.2 3.1-.6.9Z"/><path id="AU-NSW" d="m423.5 379.5-19.2-9.7h-1l1-2.6-1.7-2.9-.6-4.4-1.2-.8-1.8-.8-.9.4-1.5-.3-1 .2-1 1.3-2.8.7h-1.5c0-.1-4.5-1.8-4.5-1.8l-2.2 1-5.4-.8-3.1-2.2-1.8.7-1.3-.4-2.7.4-.6 1.6.2 1.4-2.3.4-1.3-.8-2.3-2.7-.6-1.3-2.8-2.6-3.5-2.3-1.9-.7-.4-1.7-1.7-.7-.5-1.1-.2-4-2.3-1.3-2.9-.6-.8-.8-.8.5-.8 2.2-.9-.2-.9-2.2-.9-.9v-1.9l-1.6-2.5-2.1-1.2-1.7.4-1.6-.4-2.1 1.5-3.2-1.8h-1.9c0-.1-.8-.7-.8-.7v-63.7h86.4l5.6-4.9 1.2-.3 1.4.7 6.4-1.1 1.9 1.4 3.5-.3 2.7 1.2 2.8 2.4v1.9c.1 0 .8 1.1.8 1.1l1.1-.7 1-2 1.9-.8 1.1 1.1 2.1-1 .4-2-1-2.2 2.3-1.4 2.2-.7 1.3-1.4 1.2.8 1.8.4h3.8l.8-1.2 2.6-.7.8-.7.8.7v.8c.1 0-.2 2.7-.2 2.7l.7 2.1-.2 2.5-1.7 2.2-1.2 3.5.3.9-1.2 6.9-2.5 7.7v3.4c-.1 0 .6 1.4.6 1.4l-2.5 8.9-3.7 6 .2 3.5-4.4 3.6.2 1.1-3.6 1.5-2.6 4.9-1.3.6v.6c-.1 0 .4.4.4.4l-.4 1.4-1.2 1.7-.7 4.4-1.9.6 1 .6-2.8 3.6-1 3 .4.5-.5 2.5-.9 1.2 1.1 1.9-.2.9-.3.2-.4-.4v-.9l-1 .4.2 1.1-1.8 1.3-4.1 9.5-.3 5.2-.6.8-1.9 7.2v2l1.1 1.2v.9c.1 0 .1.5.1.5l-.8.2.3 3.1Zm-9.7-25.5.6-2.5.5-.7 2.3-.7-3.5-2.2-2.9 2.1-.5 2.6v1.9l1.7 2.9 1.4.6.5-.8-.2-3.2Z"/><path id="AU-SA" d="m275 335.3-1.1 1.7-.9.4-.9 1.6-1.1.7-.7 1.3-.8 2.3h.8l1.4-1v.7c.1 0 0 2.6 0 2.6l-.5.2-1.8-2h-.7c0 .1-.5 1.2-.5 1.2h-.4l-3.4-4.3-1.2-.8-1.1.4 1-2.1v.8l1.5 1.5.6.4 1.1-.4-1.2-.9-1.3-7.1-2.5-3.1-2.1-1.7.2-2.1-1.6-3.8-1.2-.5-2.9.8-.7-.7-2.1-5.5h.9l.6 1.1 1-1.7-.2-1.1-1.8-1.7-2.8 1.1.3-1.8h.7l-1.4-2-1.8-1.3v-.5c.1 0-.6-.2-.6-.2l-1.3 1.4-3.5-.2-4.1-3-2.2-.3-2.8 1.3h-1.4c0-.1-4.6-4-4.6-4l-6.7-3.1-3.9 1.7-7-.4-12.5 1.4v-70.2h130.3v100.3l-.3-.4v54.4h-3c0 .1-1.8-.9-1.8-.9l-1.9-1.9-2.5-4.5-1.4-.5-2.6-4 .3-.7-.5-1.8.2-1.2 1.2-1.7-.4-3.2-1.9-4.6-3-4-3.1-3.1 3.5 2.8 2.8 4.4-1-3-5.1-5.1v-1.2l.7-.3.8.7v1.9l1.1-.1.2-4.2-1.6-.8-.8.8-1.8.4v.9c-.1 0 .7.5.7.5l-.5.6-2.9-.2-2 1.5-3.9.2-.9-.7.6-1.1 1.4-.7 1.7-1.8.3-3 .5-1.2-.2-3.9-2.4-3.3-.6-2.2-1.4-2.4-.9 1.6v1.1c.1 0-.9 1.1-.9 1.1l-.4 1.3v2.4c-.1 0-1.5 5.6-1.5 5.6l-.8.6-2.8-.8-2 .8-.7.9-1.5-.2-1.5 1-.7-.7 1.1-1.4 1-3.2.9.4 1.9-.3 1.1.7.5-.3.7-3.7v-4.9l-.5-1.6 1-.9.6-2.8 3.8-4.2-1.5-3.6.3-1 2.2-.9v-.7l-1-.9-1.5-5.7-.6-.4v2.1l.4.6v1.4l-.3 1.9-2 .5-1.2 1.3-3 7-.7.6h-1.3l-.8-.4-.9 1.6-4.9 3-1.1 2Zm17.5 20.2 1.6.5.5 1.4-.8.7-1.3-.6h-1.7c0-.1-1.5.6-1.5.6v1.2l-1.8 1-1.1-1.1-1.4-.3-.8.8-4.8.2-1.9-1.9.5-2 5.9-1.4 2.1-1 2.3.2.6.6v1.3c.1 0 2.2.8 2.2.8h.6l.7-1Z"/><path id="AU-VIC" d="m419.1 382.5-2.9.8-10.9.4-6 2.2-4.2 3.5-5.4 5.7-4.8.9h-2.3l-.4.6 1.2 2.2 1.2-.9.2-.8.4.2.2 3.8-1 1-.8-.7-.8-2.1-1.1-1.4-.8-.4-.7.6h-1.1l-1-2.9h-1c0-.1-1.3.4-1.3.4l-2.1-1.9.2-1.3 1.3-1.1-1.2-2h-2c0 .1-.5 1.7-.5 1.7l-2 2h-1.4c0 .1-1.5-1.6-1.5-1.6l2.4-.5 1.6-2.8-.4-1.3-2-2.4-4.2 3.2-1.7.4v.5l1.6.3 1.4-.6.8.2v1l-.5.9-3.2.5-3.3 2.2-2.4 2.9-1.2.3-2 1.9-5.4-3.1-2.7-.9-2.9-2.2-1.7-.7-2.4.5-2.1-1.5-2.3-.3-1.4.8.3 1.1-.9.2-1.3-.6-2.8-2.9-2.4-1.3v-54.4l.3.4.8.6h1.9c0 .1 3.2 2 3.2 2l2.1-1.5 1.6.4 1.7-.4 2.1 1.2 1.5 2.5v1.9l1 .9.9 2.2.9.2.8-2.2.8-.5.8.8 2.9.6 2.3 1.3.2 4 .5 1.1 1.7.7.4 1.7 1.9.7 3.5 2.3 2.8 2.6.6 1.3 2.3 2.7 1.3.8 2.3-.4-.2-1.4.6-1.6 2.7-.4 1.3.4 1.8-.7 3.1 2.2 5.4.8 2.2-1 4.5 1.7h1.5c0 .1 2.8-.6 2.8-.6l1-1.3 1-.2 1.5.3.9-.4 1.8.8 1.2.8.6 4.4 1.7 2.9-1 2.5h1l19.2 9.8-2.1.6-1.2 1.9-1 .5Zm-45.8 9.6-.8-.3v-1.5c.1 0 1.9.4 1.9.4l.4.5zm0 1.9-.9-.7h-1.6l.8-.7 1-.2.8 1.6Z"/><path id="AU-QLD" d="m423.5 192.1.7.8-1.3-3.4.9-2.2h.9l1.3 2.7 4.3 2.3-.6-2.4.3-.6h.8c0 .1.8 1.3.8 1.3l-.2 1.3 1.5 2.1-.7 4.7.6 1.3v1.7c-.1 0 .6 1.5.6 1.5l1.7.6 1.6 2.8 1.1.4 1.7 1.8 1.3.7v.6l.7-.4.3-.9h.5c0 .1 2.7 2.9 2.7 2.9l2.1 4.6 3.6 2.4.4 2.2 1.8 2.9 2.6.5.4 1.8-.6 1.5.3 2.1.7.4.6 1.4 1.6 1-1.2 4 .9 9.4-1.3 1.1.3 1.7 2.1 2 .7 2.3.9 1.3.3.9-.2 1.6 1 2.1-.8.7-2.6.7-.8 1.1H454l-1.8-.3-1.2-.8-1.3 1.4-2.2.7-2.3 1.4 1 2.2-.4 2-2.1 1-1.1-1.1-1.9.8-1 2-1.1.7-.7-1.1v-1.9c-.1 0-2.9-2.4-2.9-2.4l-2.7-1.2-3.5.3-1.9-1.4-6.4 1.1-1.4-.7-1.2.3-5.6 4.9H326v-36.5h-32.6V123.2l3.1 2.1 3.8.4 2.2 1.1 1.8.3 1.4 2 .2 1.5 1.1 1.6 1.9.4 2 1.6 2.1.6 2.2 1.6 4.1-.4 4.7-2.5 1.3-5.1 2.6-3.3 1-2.3 1.5-4.8-.3-1.9.6-4.1 2.2-5.7-1.1-2.9-.5-3.2.9-3.8-1.3-2.2v-1.3l.7-3.3 1.6-3.1-1-3.3 1.7-1.5.5-1.5.6.2.8 2.2v-.5l-.5-1.8-1.8-2.3.3-.3-.9-.2.2 1.1-.6.2-.4-.4 2-3.5.8-2.5.5-.2.3 1.3 1.2-.2-.8-1.6 1.9-6.1.3-4.7 2.1-.6 1.1-2 1.8.4-1 1.2v1l1-.9 1.5 1.2.5 1 .8 3.4v4.9l1.1 1 1.5-.3 1 .9-1 1.7-.3 2.1 2.1.9V78l1.7 1.1-.7 2.6 1.6.3v4.7l.9 1.4-.7 3.6.8 2 .9 1 1 4.3 1.1.8h1.4l4.6-2.6.5-1h.4l.7 1.1.4 2.5.7.8 2.4.7.7 1.5 3.9 2.1-.9 2.1.6 2.2-.4 1.3 1.2 3.2v2l1.1 1.9-.6 4 4.4 5.3 1.4-.5.3.3-.8 1.9 1.6 3.3.8 3.7v3c-.1 0-1.1 2.1-1.1 2.1v1.1l2.3 2.9 1.3.5-.6 4 3.1 2.9 2.1.5 1.3 1.3 2 .4.7.7h3.2c0 .1-.3-1.1-.3-1.1l1.7 2.6.4 2.2.8 1.1h1.1v-1.3h.7l1 2.1 3.3.6.9 1-.3.4 1.5 1.5.6-.2v-1.4c-.1 0 2.2 1.8 2.2 1.8l1 .2 1.8 3.5-1.6-.9-.5.2-.8 1 .7 1.8 5.3 4.2.3 2.3 2.2 3.5v2.2c-.1 0 .8 3.5.8 3.5l1.9 3.2-.3 1.7 1.6-1.3 1.7 2.1Zm33.7 38.2-.9-.7-.6-2.1 1.3-2.6-.2-1.3 2.1-2.8v-.9l-.9-1.2 1.3-1.4v2.4l1 1.3-2.6 6.2zM305.9 125.5l.2-1.8 1.5-1.6 2.5-.6 2.1.3v.7l-.4.2-1.2-.2-1 .4-.5 1.5zM437 206.4l-1.8-2.1-.5-1.8h.5c0-.1 1.7 1.2 1.7 1.2l.8 2.3-.8.4Zm-53.6-61.2-.8-.3-.2-1-1.2-1.4 2 .6.9 1.3zm77.3 108.5.3-3.8h1.2l-.9 3.8h-.5Zm.2-4.5-.7-2v-1.6l.9-.5-.2 4.2ZM338.8 59l-.7-.6v-.7l1.1-.5.5 1.2-.8.6Zm1.1-5.6-1-.7.4-.6h.6c0-.1.6.5.6.5zm-31 76.5-.3-.7 1.1-1 .6.4.2.8h-1.3z"/><path id="AU-TAS" d="m390.2 466.5-.9.5-.2-.5-1.4-.2-.9-.7-3.3-.3-.7-.7-1.3.4-.8-.3-1.1-1.8.6-.5 2.6.7v-1l-.8-.6-.4.8-3.1-.5-2.6-4.7-.9-.2-.6-.9-1.1-3.6-1-.7-.6-5.2.2-.3 2.2 2 .5 2.2.9-2.5-1-.4-1.9-2.1-.4-2.1-3.2-4.7-2.9-7.2-.7-4.1.9-.8v-1.7l.7-.4 2.4.3 1.4 1 1.7-.3 10 5.1h3.3c0-.1.9.4.9.4v-.5l1.6-1.2.6.2.2 1 1.5.3-1.3-.8v-.7l2.1-1.2 1.4.5 2.3-.5.7.6.8-.5 1.3-2 .7-.2 1.8.9.7-.4.8-1.7 1.2.3 2.1 1.9.6 1.4-.7 2.5.6 2.4-.5 1.7.4 2.3-.5 2.9 1.1 5.9-.6.8-.4-.3.4-1.7-1.2-2.8-1.3 2.5-.8 5.9-.6 1.3v1.5c.1 0-.7.8-.7.8l-.4 1.5.6.2v-.7c.1 0 1.1 1 1.1 1l-.5 2.6.5 2.1-1-.7-1.2.9-1.7-2.7v-.7c-.1 0 .8-1.2.8-1.2l.8 1.7 1.3-.4-.8-1.4-2.9-1.5-.6.5.5 1.8-.3.6-1.1.4-.2-2.2-1-.6.3.9-1.2 3.4v2l-.7.2-.9-.6-.9-1.9-.5.3v1l1.4 1.2-2 4.9Zm13.2-48.6-1-.5-.2-1.4-1.2-2.3-1.5-1.4 1.3-1.7.9-.4 2.1 2.9 1.3.9.5 3.2-2.2.8Zm-45.7-2-.4-.3v-1.9l-.6-.8v-.8l.2-2.3.9-.6V408l.5-.1 1.4 1.2.4 3.8-.4 1.5-2 1.4Zm48 5.2-.2-1-2.5.3-1-.4v-.5l.7-.6 1.5.2 1.5-.8 1.5 1.8zm-11.3 43.8-1.4-.2-.6-1.2 1.9-2.4.7 1.8-.7 1.9ZM520.1 652h-.5v-1.6l.6-2.8.8-.8zm-125-190.8-.8-1.6.7-1.2.8 2.5-.8.3Zm7-7.5v-2l1.2-.4.4 1.1h-.8l-.9 1.3Zm-33.9-29.4-.2-.8.6-.8 1 1.1z"/></g></svg>