<?xml version="1.0" encoding="UTF-8"?>
<svg id="Layer_1" xmlns="http://www.w3.org/2000/svg" xmlns:amcharts="http://amcharts.com/ammap" version="1.1" viewBox="0 0 512 512">
  <!-- Generator: Adobe Illustrator 29.1.0, SVG Export Plug-In . SVG Version: 2.1.0 Build 142)  -->
  <g id="_x3C_defs">
    <amcharts:ammap bottomLatitude="-11.428" leftLongitude="-174.546" projection="mercator" rightLongitude="176.852" topLatitude="4.732"/>
  </g>
  <g>
    <path id="KI-G" d="M504.9,254.9h0s0,0,0,0h0s0,0,0,0h0s0,0,0,0h0s0,0,0,0h0s0,0,0,0h0s0,0,0,0h0s0,0,0,0h0s0,0,0,0h0s0,0,0,0h0ZM503.6,254.7h0s0,0,0,0h0s0,0,0,0h0s0,0,0,0h0s0,0,0,0h0s0,0,0,0h0ZM503.1,253.9h0s0,0,0,0h0s0,0,0,0h0s0,0,0,0h0s0,0,0,0h0s0,0,0,0h0s0,0,0,0h0s0,0,0,0h0,0s0,0,0,0h0ZM503.1,253.8h0,0ZM503,253.8h0s0,0,0,0h0s0,0,0,0h0ZM503,253.7h0s0,0,0,0h0s0,0,0,0h0s0,0,0,0h0s0,0,0,0h0,0s0,0,0,0h0s0,0,0,0h0s0,0,0,0h0s0,0,0,0h0s0,0,0,0h0s0,0,0,0h0s0,0,0,0h0s0,0,0,0h0s0,0,0,0h0s0,0,0,0h0s0,0,0,0h0s0,0,0,0h0s0,0,0,0h0s0,0,0,0h0s0,0,0,0h0s0,0,0,0h0s0,0,0,0h0s0,0,0,0h0s0,0,0,0h0s0,0,0,0h0s0,0,0,0h0s0,0,0,0h0s0,0,0,0h0s0,0,0,0h0s0,0,0,0ZM503,253.7h0,0ZM503,253.7h0ZM503,253.7h0ZM502.4,253.3h0s0,0,0,0h0,0s0,0,0,0h0s0,0,0,0h0s0,0,0,0h0s0,0,0,0h0ZM502.4,253.3h0s0,0,0,0h0s0,0,0,0h0s0,0,0,0h0s0,0,0,0h0s0,0,0,0h0s0,0,0,0h0s0,0,0,0h0s0,0,0,0h0s0,0,0,0h0s0,0,0,0h0s0,0,0,0h0s0,0,0,0h0s0,0,0,0h0s0,0,0,0h0ZM502.3,253.3h0ZM502.3,253.2h0s0,0,0,0h0s0,0,0,0h0s0,0,0,0h0s0,0,0,0h0ZM502.3,253.2h0ZM502.3,253.2h0s0,0,0,0h0s0,0,0,0h0s0,0,0,0h0s0,0,0,0h0s0,0,0,0h0s0,0,0,0h0ZM502.3,253.2h0,0,0s0,0,0,0h0s0,0,0,0h0s0,0,0,0h0s0,0,0,0h0,0s0,0,0,0h0s0,0,0,0h0s0,0,0,0h0s0,0,0,0ZM502.3,253.2h0s0,0,0,0h0s0,0,0,0h0s0,0,0,0h0ZM502.3,253.2h0s0,0,0,0h0,0s0,0,0,0h0s0,0,0,0ZM502.2,253.2h0s0,0,0,0h0ZM502.3,253.2h0s0,0,0,0h0ZM502.2,253.2h0,0ZM502.3,253.2h0s0,0,0,0h0s0,0,0,0h0ZM502.2,253.2h0s0,0,0,0h0ZM502.2,253.2h0s0,0,0,0h0s0,0,0,0h0s0,0,0,0h0ZM502.2,253.2h0ZM502.2,253.2h0s0,0,0,0h0s0,0,0,0h0s0,0,0,0h0s0,0,0,0ZM502.2,253.2h0s0,0,0,0ZM502.2,253.2h0,0ZM502.2,253.2h0,0ZM502.2,253.2h0s0,0,0,0h0ZM502.2,253.2h0,0s0,0,0,0ZM502.2,253.2h0s0,0,0,0ZM502.2,253.2h0s0,0,0,0h0s0,0,0,0h0ZM502.2,253.2h0s0,0,0,0h0s0,0,0,0h0ZM502.2,253.2h0s0,0,0,0h0ZM502.2,253.2h0s0,0,0,0h0ZM502.2,253.2h0s0,0,0,0h0ZM502.2,253.2h0s0,0,0,0h0ZM502.1,253.2h0s0,0,0,0h0s0,0,0,0ZM502.1,253.2h0,0s0,0,0,0h0s0,0,0,0ZM502.1,253.1h0s0,0,0,0h0ZM502.1,253.1h0s0,0,0,0h0s0,0,0,0h0s0,0,0,0h0,0,0s0,0,0,0h0s0,0,0,0h0s0,0,0,0h0ZM502.1,253.1h0s0,0,0,0h0s0,0,0,0h0s0,0,0,0h0ZM502.1,253.1h0s0,0,0,0h0ZM502.1,253.1h0s0,0,0,0h0s0,0,0,0h0ZM502.1,253.1h0s0,0,0,0h0ZM502.1,253.1h0s0,0,0,0h0s0,0,0,0h0s0,0,0,0h0ZM503.7,253.1h0ZM503.7,253.1h0s0,0,0,0ZM502.1,253.1h0s0,0,0,0h0ZM503.7,253.1h0ZM503.6,253.1h0s0,0,0,0h0ZM502.1,253.1h0,0s0,0,0,0h0s0,0,0,0h0ZM502.1,253.1h0s0,0,0,0h0s0,0,0,0h0s0,0,0,0ZM504.3,253.1h0s0,0,0,0h0s0,0,0,0h0s0,0,0,0h0s0,0,0,0h0s0,0,0,0h0s0,0,0,0h0s0,0,0,0h0s0,0,0,0h0s0,0,0,0h0s0,0,0,0h0s0,0,0,0h0s0,0,0,0h0ZM502,253.1h0ZM502,253.1h0s0,0,0,0ZM502,253.1h0s0,0,0,0ZM502,253.1h0s0,0,0,0h0s0,0,0,0h0ZM502,253.1h0s0,0,0,0h0s0,0,0,0h0ZM502,253.1h0s0,0,0,0h0s0,0,0,0ZM502,253.1h0s0,0,0,0h0s0,0,0,0h0s0,0,0,0ZM503.7,253.1h0s0,0,0,0h0s0,0,0,0h0s0,0,0,0h0s0,0,0,0h0s0,0,0,0h0s0,0,0,0h0s0,0,0,0h0s0,0,0,0h0s0,0,0,0h0s0,0,0,0h0s0,0,0,0h0s0,0,0,0h0s0,0,0,0h0s0,0,0,0h0s0,0,0,0h0s0,0,0,0h0s0,0,0,0h0s0,0,0,0h0s0,0,0,0h0s0,0,0,0h0s0,0,0,0h0s0,0,0,0h0s0,0,0,0h0s0,0,0,0h0s0,0,0,0h0s0,0,0,0h0ZM503.6,253.1h0s0,0,0,0ZM502,253h0,0s0,0,0,0ZM502,253h0,0s0,0,0,0h0s0,0,0,0h0s0,0,0,0h0s0,0,0,0h0s0,0,0,0ZM503.7,253h0s0,0,0,0ZM502,253h0s0,0,0,0h0s0,0,0,0h0ZM503.6,253h0,0ZM502,253h0,0s0,0,0,0ZM503.7,253h0s0,0,0,0ZM502,253h0,0,0ZM502,253h0ZM502,253h0s0,0,0,0h0ZM502,253h0s0,0,0,0h0s0,0,0,0h0s0,0,0,0h0s0,0,0,0h0c0,0,0,0,0,0h0ZM503.6,253h0s0,0,0,0ZM503.6,253h0s0,0,0,0ZM502,253h0ZM503.6,253h0ZM503.6,253h0ZM502,253h0ZM502,252.9h0ZM501.9,252.9h0s0,0,0,0h0s0,0,0,0h0s0,0,0,0h0s0,0,0,0h0s0,0,0,0h0s0,0,0,0h0s0,0,0,0h0,0s0,0,0,0h0s0,0,0,0h0s0,0,0,0h0s0,0,0,0h0s0,0,0,0h0s0,0,0,0h0s0,0,0,0h0s0,0,0,0h0s0,0,0,0h0s0,0,0,0h0s0,0,0,0h0s0,0,0,0h0s0,0,0,0h0s0,0,0,0h0s0,0,0,0h0,0,0s0,0,0,0h0s0,0,0,0h0s0,0,0,0h0s.1.1.1.1ZM501.9,252.8h0s0,0,0,0h0s0,0,0,0h0s0,0,0,0ZM501.8,252.8h0s0,0,0,0h0s0,0,0,0h0s0,0,0,0h0,0ZM501.8,252.8h0ZM501.8,252.8h0s0,0,0,0h0ZM501.8,252.8h0s0,0,0,0h0ZM501.8,252.8h0s0,0,0,0h0s0,0,0,0h0,0s0,0,0,0h0s0,0,0,0h0s0,0,0,0h0,0ZM501.8,252.8h0,0ZM494.5,252.4h0s0,0,0,0h0s0,0,0,0h0s0,0,0,0h0s0,0,0,0h0s0,0,0,0h0ZM501.5,252.3h0s0,0,0,0h0s0,0,0,0h0s0,0,0,0h0s0,0,0,0h0s0,0,0,0h0s0,0,0,0h0s0,0,0,0h0s0,0,0,0h0s0,0,0,0h0s0,0,0,0h0s0,0,0,0h0s0,0,0,0h0ZM501.5,252.3h0s0,0,0,0h0ZM501.5,252.3h0s0,0,0,0ZM501.5,252.3h0s0,0,0,0h0s0,0,0,0h0s0,0,0,0h0s0,0,0,0h0s0,0,0,0h0c0,0,0,0,0,0h0s0,0,0,0h0s0,0,0,0h0s0,0,0,0h0s0,0,0,0h0s0,0,0,0h0s0,0,0,0h0s0,0,0,0h0s0,0,0,0h0s0,0,0,0h0s0,0,0,0h0,0s0,0,0,0h0s0,0,0,0h0s0,0,0,0h0s0,0,0,0h0s0,0,0,0h0s0,0,0,0h0v.2ZM501.5,252.3h0s0,0,0,0h0ZM501.3,252.3h0,0ZM501.3,252.3h0s0,0,0,0h0ZM501.3,252.1h0ZM501.5,252.1h0s0,0,0,0h0s0,0,0,0h0s0,0,0,0h0s0,0,0,0h0s0,0,0,0h0ZM501.3,252.1h0ZM501.4,252.1h0s0,0,0,0h0s0,0,0,0h0s0,0,0,0h0ZM501.2,252.1h0s0,0,0,0h0ZM501.1,252h0s0,0,0,0h0ZM501.1,252h0,0ZM501.4,252h0s0,0,0,0h0ZM501.3,252h0,0ZM501.3,252h0s0,0,0,0h0s0,0,0,0h0s0,0,0,0h0,0,0s0,0,0,0h0s0,0,0,0h0s0,0,0,0h0ZM501.3,252h0s0,0,0,0h0s0,0,0,0h0ZM501.3,252h0s0,0,0,0h0s0,0,0,0h0s0,0,0,0h0s0,0,0,0ZM501.2,252h0,0ZM501.3,252h0s0,0,0,0h0,0s0,0,0,0h0,0s0,0,0,0h0,0s0,0,0,0h0s0,0,0,0h0ZM501.3,252h0s0,0,0,0ZM501.2,252h0s0,0,0,0h0s0,0,0,0h0,0ZM501.2,252h0s0,0,0,0h0s0,0,0,0ZM501.2,251.9h0s0,0,0,0h0,0ZM501.2,251.9h0s0,0,0,0ZM501.2,251.9h0s0,0,0,0h0,0s0,0,0,0h0ZM501.2,251.9h0s0,0,0,0h0s0,0,0,0h0,0ZM501.2,251.9h0,0s0,0,0,0h0s0,0,0,0h0s0,0,0,0h0s0,0,0,0h0s0,0,0,0h0s0,0,0,0h0s0,0,0,0h0s0,0,0,0h0s0,0,0,0h0s0,0,0,0h0ZM501.2,251.9h0s0,0,0,0h0ZM501.2,251.9h0s0,0,0,0h0ZM501.2,251.9h0,0s0,0,0,0ZM500.3,251h0s0,0,0,0h0s0,0,0,0h0s0,0,0,0h0s0,0,0,0h0s0,0,0,0h0s0,0,0,0h0s0,0,0,0h0s0,0,0,0h0s0,0,0,0h0s0,0,0,0h0s0,0,0,0h0s0,0,0,0h0s0,0,0,0h0ZM500.2,250.9h0ZM500.3,250.9h0s0,0,0,0h0,0ZM500.2,250.9h0s0,0,0,0h0,0s0,0,0,0h0,0s0,0,0,0h0,0s0,0,0,0h0s0,0,0,0h0s0,0,0,0h0ZM500.2,250.9h0,0ZM500.3,250.9h0s0,0,0,0h0ZM500.3,250.9h0s0,0,0,0h0ZM500.3,250.9h0s0,0,0,0h0s0,0,0,0ZM500.3,250.9h0s0,0,0,0h0s0,0,0,0h0s0,0,0,0h0s0,0,0,0h0ZM500.3,250.9h0s0,0,0,0h0ZM500,250.8h0s0,0,0,0h0s0,0,0,0h0s0,0,0,0h0s0,0,0,0h0s0,0,0,0h0s0,0,0,0h0ZM500,250.8h0s0,0,0,0h0s0,0,0,0h0s0,0,0,0h0s0,0,0,0h0s0,0,0,0h0ZM500.7,250.7h0,0s0,0,0,0h0s0,0,0,0h0s0,0,0,0h0ZM500.7,250.7h0s0,0,0,0h0s0,0,0,0h0,0s0,0,0,0h0s0,0,0,0h0s0,0,0,0h0s0,0,0,0h0s0,0,0,0h0s0,0,0,0ZM500.7,250.7h0s0,0,0,0h0,0s0,0,0,0h0s0,0,0,0h0s0,0,0,0h0s0,0,0,0ZM500.8,250.7h0s0,0,0,0h0ZM500.8,250.7h0ZM500.7,250.7h0c0,0,0,0,0,0h0s0,0,0,0h0s0,0,0,0h0s0,0,0,0h0s0,0,0,0h0s0,0,0,0h0s0,0,0,0h0ZM500.8,250.7h0,0ZM500.8,250.7h0ZM500.6,250.7h0s0,0,0,0h0s0,0,0,0h0s0,0,0,0h0,0ZM500.8,250.7h0ZM500.5,250.6h0s0,0,0,0h0,0s0,0,0,0h0s0,0,0,0h0s0,0,0,0h0ZM500.7,250.6h0s0,0,0,0h0s0,0,0,0h0s0,0,0,0h0s0,0,0,0h0s0,0,0,0h0s0,0,0,0h0s0,0,0,0h0s0,0,0,0h0s0,0,0,0h0s0,0,0,0h0s0,0,0,0h0s0,0,0,0h0s0,0,0,0h0s0,0,0,0h0s0,0,0,0h0s0,0,0,0h0s0,0,0,0h0,0,0ZM500.7,250.6h0s0,0,0,0h0s0,0,0,0h0s0,0,0,0h0s0,0,0,0ZM499.4,250h0,0ZM499.4,250h0,0s0,0,0,0ZM499.4,250h0ZM499.4,250h0,0ZM499.4,250h0ZM499.4,250h0s0,0,0,0ZM499.4,250h0ZM499.4,250h0,0ZM499.4,250h0s0,0,0,0h0ZM499.4,250h0ZM499.4,249.9h0s0,0,0,0h0ZM499.4,249.9h0s0,0,0,0h0ZM499.4,249.9h0,0ZM499.4,249.9h0s0,0,0,0h0,0s0,0,0,0h0s0,0,0,0h0s0,0,0,0ZM499.4,249.9h0ZM499.4,249.9h0s0,0,0,0h0s0,0,0,0ZM499.4,249.9h0s0,0,0,0h0s0,0,0,0ZM499.5,249.9h0s0,0,0,0h0s0,0,0,0h0s0,0,0,0h0s0,0,0,0h0s0,0,0,0h0s0,0,0,0h0,0s0,0,0,0h0s0,0,0,0h0s0,0,0,0h0s0,0,0,0h0s0,0,0,0h0s0,0,0,0h0s0,0,0,0h0s0,0,0,0h0,0s0,0,0,0h0s0,0,0,0h0s0,0,0,0h0s0,0,0,0h0s0,0,0,0h0s0,0,0,0h0s0,0,0,0h0s0,0,0,0h0s0,0,0,0h0s0,0,0,0h0s0,0,0,0h0s0,0,0,0h0ZM499.5,249.9h0ZM499.5,249.8h0s0,0,0,0ZM499.5,249.8h0s0,0,0,0h0s0,0,0,0h0s0,0,0,0h0s0,0,0,0h0s0,0,0,0ZM499.5,249.8h0s0,0,0,0h0s0,0,0,0h0s0,0,0,0h0s0,0,0,0h0s0,0,0,0h0s0,0,0,0h0s0,0,0,0h0s0,0,0,0h0,0,0,0s0,0,0,0h0s0,0,0,0h0s0,0,0,0h0s0,0,0,0h0s0,0,0,0h0s0,0,0,0h0s0,0,0,0h0s0,0,0,0h0s0,0,0,0h0s0,0,0,0h0s0,0,0,0h0s0,0,0,0h0ZM499.5,249.7h0s0,0,0,0h0s0,0,0,0h0s0,0,0,0h0ZM499.4,249.7h0s0,0,0,0h0s0,0,0,0h0s0,0,0,0ZM499.5,249.7h0ZM499.5,249.7h0s0,0,0,0h0ZM499.5,249.7h0s0,0,0,0h0s0,0,0,0h0,0s0,0,0,0h0s0,0,0,0h0s0,0,0,0h0ZM499.4,249.7h0,0s0,0,0,0ZM499.4,249.3h0,0ZM499.4,249.3h0s0,0,0,0h0s0,0,0,0h0ZM499.4,249.3h0ZM499.4,249.3h0ZM499.4,249.3h0s0,0,0,0ZM499.4,249.3h0s0,0,0,0h0,0ZM499.4,249.3h0s0,0,0,0h0s0,0,0,0h0s0,0,0,0ZM499.4,249.3h0ZM499.4,249.3h0s0,0,0,0h0s0,0,0,0ZM499.4,249.3h0ZM499.5,249.3h0,0ZM499.5,249.3h0s0,0,0,0ZM499.5,249.3h0,0ZM499.5,249.3h0s0,0,0,0ZM499.3,249.3h0s0,0,0,0h0s0,0,0,0h0s0,0,0,0h0ZM499.5,249.3h0s0,0,0,0h0,0ZM499.5,249.3h0,0s0,0,0,0ZM499.5,249.3h0ZM499.3,249.3h0s0,0,0,0ZM499.3,249.3h0ZM499.5,249.3h0ZM499.5,249.3h0s0,0,0,0h0s0,0,0,0h0s0,0,0,0h0s0,0,0,0h0,0s0,0,0,0h0s0,0,0,0h0s0,0,0,0h0s0,0,0,0h0s0,0,0,0h0s0,0,0,0h0,0s0,0,0,0h0,0s0,0,0,0h0,0,0,0s0,0,0,0h-.1ZM499.5,249.3h0,0ZM499.5,249.3h0ZM499.5,249.3h0ZM499.5,249.3h0ZM499.5,249.3h0ZM499.5,249.2h0s0,0,0,0ZM499.5,249.2h0ZM499.3,249.2h0s0,0,0,0ZM499.5,249.2h0,0ZM499.5,249.2h0ZM499.5,249.2h0,0ZM499.5,249.2h0ZM499.5,249.2h0ZM499.5,249.2h0ZM499.3,249.2h0ZM499.5,249.2h0,0ZM499.3,249.2h0,0ZM499.5,249.2h0ZM499.3,249.2h0ZM499.5,249.2h0ZM499.3,249.2h0ZM499.5,249.2h0s0,0,0,0ZM499.5,249.2h0ZM499.5,249.2h0ZM499.5,249.2h0,0ZM499.6,249.2h0ZM499.6,249.2h0ZM499.6,249.2h0ZM499.6,249.2h0ZM499.6,249.2h0ZM499.6,249.2h0ZM499.6,249.2h0,0ZM499.6,249.2h0ZM499.6,249.2h0ZM499.6,249.2h0ZM499.6,249.2h0,0ZM499.6,249.2h0ZM499.6,249.2h0,0ZM499.6,249.2h0,0ZM499.6,249.2h0,0ZM499.6,249.2h0ZM499.6,249.2h0,0ZM499.6,249.2h0,0ZM499.6,249.2h0ZM499.6,249.2h0ZM499.6,249.2h0ZM499.6,249.2h0ZM499.6,249.2h0ZM499.6,249.2h0ZM499.6,249.2h0,0ZM499.6,249.2h0s0,0,0,0h0s0,0,0,0h0,0s0,0,0,0ZM499.6,249.2h0s0,0,0,0h0ZM499.4,249.2h0ZM499.6,249.2h0ZM499.6,249.2h0s0,0,0,0h0s0,0,0,0h0ZM499.6,249.2h0s0,0,0,0ZM499.6,249.2h0,0ZM499.6,249.2h0s0,0,0,0h0s0,0,0,0ZM499.6,249.2h0ZM499.6,249.2h0,0ZM499.6,249.2h0s0,0,0,0h0s0,0,0,0h0s0,0,0,0h0s0,0,0,0h0s0,0,0,0h0s0,0,0,0h0s0,0,0,0h0,0s0,0,0,0h0ZM499.6,249.1h0s0,0,0,0h0s0,0,0,0h0s0,0,0,0h0s0,0,0,0ZM499.6,249.1h0s0,0,0,0h0s0,0,0,0h0s0,0,0,0h0s0,0,0,0h0s0,0,0,0h0ZM499.6,249.1h0ZM499.5,249.1h0ZM499.5,249.1h0ZM499.5,249.1h0,0ZM499.5,249.1h0s0,0,0,0h0s0,0,0,0h0s0,0,0,0ZM499.5,249.1h0,0ZM499.5,249.1h0ZM499.5,249.1h0s0,0,0,0h0s0,0,0,0h0ZM499.5,249.1h0,0ZM499.5,249.1h0s0,0,0,0h0ZM499.5,249.1h0s0,0,0,0ZM499.5,249.1h0ZM499.5,249.1h0ZM499.5,249.1h0s0,0,0,0h0ZM499.5,249.1h0s0,0,0,0h0,0,0s0,0,0,0h0s0,0,0,0ZM499.5,249.1h0s0,0,0,0ZM499.5,249.1h0,0ZM499.5,249.1h0,0s0,0,0,0h0,0s0,0,0,0ZM499.5,249.1h0s0,0,0,0h0s0,0,0,0h0,0s0,0,0,0h0s0,0,0,0h0ZM499.5,249.1h0s0,0,0,0h0ZM499.5,249.1h0s0,0,0,0h0s0,0,0,0h0,0ZM499.5,249.1h0ZM499.5,249.1h0ZM499.5,249.1h0,0,0s0,0,0,0h0s0,0,0,0h0s0,0,0,0h0ZM499.5,249.1h0s0,0,0,0h0s0,0,0,0h0,0,0s0,0,0,0h0s0,0,0,0h0s0,0,0,0h0,0s0,0,0,0h0,0,0s0,0,0,0h0s0,0,0,0h0s0,0,0,0h0s0,0,0,0h0s0,0,0,0h0s0,0,0,0h0s0,0,0,0h0s0,0,0,0h0s0,0,0,0h0s0,0,0,0h0s0,0,0,0h0s0,0,0,0h0s0,0,0,0h0s0,0,0,0h0s0,0,0,0h0s0,0,0,0h0s0,0,0,0h0s0,0,0,0h0s0,0,0,0h0s0,0,0,0h0s0,0,0,0h0s0,0,0,0h0s0,0,0,0h0s0,0,0,0h0s0,0,0,0h0,0s0,0,0,0h0s0,0,0,0h0s0,0,0,0h0s0,0,0,0h0s0,0,0,0h0s0,0,0,0h0s0,0,0,0h0s0,0,0,0h0s0,0,0,0h0s0,0,0,0h0ZM499.3,248.9h0s0,0,0,0h0ZM499.3,248.6h0,0s0,0,0,0h0ZM499.4,248.5h0s0,0,0,0h0s0,0,0,0h0s0,0,0,0h0s0,0,0,0h0s0,0,0,0h0s0,0,0,0h0s0,0,0,0h0s0,0,0,0h0s0,0,0,0h0s0,0,0,0h0s0,0,0,0h0s0,0,0,0h0s0,0,0,0h0s0,0,0,0h0s0,0,0,0h0s0,0,0,0h0s0,0,0,0h0s0,0,0,0h0,0s0,0,0,0h0s0,0,0,0h0s0,0,0,0h0s0,0,0,0h0s0,0,0,0h0s0,0,0,0h0s0,0,0,0h0s0,0,0,0h0s0,0,0,0h0s0,0,0,0h0s0,0,0,0h0s0,0,0,0ZM499.4,248.5h0s0,0,0,0ZM499.3,248.5h0,0ZM499.3,248.5h0s0,0,0,0h0ZM499.3,248.5h0ZM499.3,248.5h0,0ZM499.2,248.5h0,0s0,0,0,0h0,0s0,0,0,0ZM499.4,248.5h0s0,0,0,0h0s0,0,0,0h0s0,0,0,0h0s0,0,0,0ZM499.2,248.5h0,0ZM499.2,248.5h0s0,0,0,0ZM499.2,248.5h0,0ZM499.2,248.5h0,0ZM499.2,248.5h0ZM499.1,248.5h0s0,0,0,0h0s0,0,0,0h0s0,0,0,0h0ZM499.1,248.5h0,0ZM499.1,248.5h0ZM499.1,248.5h0,0,0ZM499.1,248.5h0,0ZM499.2,248.5h0s0,0,0,0ZM499.2,248.4h0ZM499.2,248.4h0s0,0,0,0h0ZM499.2,248.4h0ZM499.3,248.4h0s0,0,0,0h0ZM499.3,248.4h0s0,0,0,0h0s0,0,0,0ZM499.3,248.4h0,0ZM499.3,248.4h0s0,0,0,0h0ZM499.3,248.4h0,0ZM499.2,248.4h0s0,0,0,0h0s0,0,0,0h0s0,0,0,0h0ZM499.9,248.4h0s0,0,0,0h0s0,0,0,0h0s0,0,0,0h0s0,0,0,0h0s0,0,0,0h0s0,0,0,0h0s0,0,0,0h0s0,0,0,0h0s0,0,0,0h0s0,0,0,0h0s0,0,0,0h0s0,0,0,0h0ZM499.8,248.4h0s0,0,0,0h0ZM499.8,248.3h0s0,0,0,0h0s0,0,0,0h0s0,0,0,0h0s0,0,0,0h0s0,0,0,0h0s0,0,0,0h0s0,0,0,0h0s0,0,0,0h0s0,0,0,0h0s0,0,0,0h0s0,0,0,0h0s0,0,0,0h0s0,0,0,0h0s0,0,0,0h0s0,0,0,0h0s0,0,0,0h0s0,0,0,0h0s0,0,0,0h0s0,0,0,0h0s0,0,0,0h0ZM499.8,248.3h0,0,0,0ZM499.8,248.3h0,0ZM499.8,248.3h0s0,0,0,0h0,0ZM499.1,246.8h0s0,0,0,0ZM499.1,246.8h0ZM499.1,246.8h0s0,0,0,0ZM499.1,246.8h0ZM499.1,246.8h0s0,0,0,0h0s0,0,0,0h0s0,0,0,0h0s0,0,0,0h0s0,0,0,0h0s0,0,0,0h0s0,0,0,0h0s0,0,0,0h0s0,0,0,0h0s0,0,0,0h0s0,0,0,0h0s0,0,0,0h0s0,0,0,0h0s0,0,0,0h0s0,0,0,0h0s0,0,0,0h0s0,0,0,0h0s0,0,0,0h0s0,0,0,0h0s0,0,0,0h0s0,0,0,0h0s0,0,0,0h0s0,0,0,0h0s0,0,0,0h0s0,0,0,0h0s0,0,0,0h0s0,0,0,0h0s0,0,0,0h0s0,0,0,0h0s0,0,0,0h0s0,0,0,0h0s0,0,0,0h0ZM499.3,246.8h0,0ZM499.3,246.8h0ZM499.3,246.8h0s0,0,0,0h0ZM499.3,246.8h0ZM499.3,246.8h0s0,0,0,0h0ZM499.3,246.8h0,0ZM499.3,246.8h0,0ZM499.3,246.8h0ZM499.1,246.8h0ZM499.3,246.8h0ZM499.3,246.8h0s0,0,0,0h0s0,0,0,0h0s0,0,0,0h0s0,0,0,0h0s0,0,0,0h0s0,0,0,0h0s0,0,0,0h0s0,0,0,0h0s0,0,0,0h0,0,0s0,0,0,0h0s0,0,0,0h0s0,0,0,0h0s0,0,0,0h0s0,0,0,0ZM499.3,246.8h0s0,0,0,0ZM499.3,246.7h0,0ZM499,246.7h0ZM499,246.7h0ZM499,246.7h0s0,0,0,0h0s0,0,0,0h0s0,0,0,0ZM499.4,246.7h0ZM499.4,246.7h0,0ZM499.4,246.6h0,0s0,0,0,0h0ZM499.4,246.6h0,0ZM499.4,246.6h0s0,0,0,0h0ZM499.4,246.6h0ZM499.4,246.6h0s0,0,0,0h0ZM499.4,246.6h0,0ZM499.4,246.6h0,0ZM499,246.6h0s0,0,0,0h0s0,0,0,0ZM499.4,246.6h0ZM499.4,246.6h0ZM499.4,246.6h0,0s0,0,0,0h0ZM499.3,246.6h0s0,0,0,0h0ZM499.3,246.6h0ZM499.4,246.6h0s0,0,0,0h0ZM499.3,246.6h0ZM499.4,246.6h0ZM499.3,246.6h0,0s0,0,0,0ZM499.3,246.6h0,0s0,0,0,0ZM499.4,246.6h0,0,0,0,0,0ZM499.3,246.6h0ZM499.3,246.6h0s0,0,0,0h0ZM499.3,246.6h0s0,0,0,0h0ZM499.3,246.6h0ZM499,246.6h0s0,0,0,0h0,0s0,0,0,0h0s0,0,0,0h0ZM499,246.5h0s0,0,0,0h0ZM499.4,246.5h0s0,0,0,0h0s0,0,0,0h0s0,0,0,0ZM499.4,246.4h0s0,0,0,0h0s0,0,0,0h0s0,0,0,0h0s0,0,0,0h0ZM499.4,246.4h0s0,0,0,0h0ZM499.4,246.4h0s0,0,0,0h0s0,0,0,0h0ZM499.4,246.4h0s0,0,0,0h0s0,0,0,0h0s0,0,0,0h0s0,0,0,0h0s0,0,0,0h0s0,0,0,0h0s0,0,0,0Z"/>
    <path id="KI-L" d="M39.3,267.5h0s0,0,0,0h0s0,0,0,0h0s0,0,0,0ZM39.3,267.5h0s0,0,0,0h0s0,0,0,0h0s0,0,0,0ZM38.6,265.5h0s0,0,0,0h0ZM41.6,265.4h0,0,0s0,0,0,0h0s0,0,0,0h0s0,0,0,0h0s0,0,0,0h0ZM41.6,265.4h0s0,0,0,0h0,0s0,0,0,0ZM41.6,265.4h0,0ZM41.6,265.4h0s0,0,0,0h0ZM41.6,265.4h0s0,0,0,0h0ZM41.6,265.4h0s0,0,0,0h0ZM41.6,265.4h0s0,0,0,0ZM41.6,265.4h0s0,0,0,0h0ZM41.6,265.4h0ZM41.6,265.4h0s0,0,0,0h0ZM41.6,265.4h0s0,0,0,0h0ZM41.6,265.4h0,0ZM41.6,265.4h0ZM41.6,265.4h0s0,0,0,0h0s0,0,0,0h0s0,0,0,0ZM41.6,265.4h0s0,0,0,0h0ZM41.6,265.4h0s0,0,0,0h0ZM41.6,265.4h0,0s0,0,0,0ZM41.6,265.4h0s0,0,0,0ZM41.6,265.3h0ZM41.6,265.3h0s0,0,0,0h0s0,0,0,0ZM41.6,265.3h0ZM41.6,265.3h0s0,0,0,0ZM41.6,265.3h0ZM41.6,265.3h0,0ZM41.6,265.3h0s0,0,0,0h0s0,0,0,0h0s0,0,0,0h0ZM41.6,265.3h0ZM41.6,265.3h0s0,0,0,0h0ZM41.6,265.3h0s0,0,0,0h0s0,0,0,0h0s0,0,0,0h0s0,0,0,0h0,0,0s0,0,0,0h0,0s0,0,0,0h0s0,0,0,0h0ZM33.6,259.2h0s0,0,0,0h0s0,0,0,0h0s0,0,0,0h0s0,0,0,0h0s0,0,0,0h0s0,0,0,0h0s0,0,0,0h0s0,0,0,0h0s0,0,0,0h0s0,0,0,0h0s0,0,0,0h0ZM34.9,256.8h0s0,0,0,0h0s0,0,0,0h0s0,0,0,0h0s0,0,0,0h0s0,0,0,0h0s0,0,0,0h0s0,0,0,0h0s0,0,0,0h0s0,0,0,0ZM31.3,248.6h0,0ZM31.4,248.6h0ZM31.4,248.6h0ZM31.4,248.6h0s0,0,0,0ZM31.4,248.6h0ZM31.3,248.6h0,0ZM31.4,248.6h0,0,0,0ZM31.4,248.5h0s0,0,0,0ZM31.3,248.5h0ZM31.3,248.5h0s0,0,0,0h0ZM31.4,248.5h0ZM31.4,248.5h0,0ZM31.3,248.5h0ZM31.4,248.5h0,0s0,0,0,0h0ZM31.3,248.5h0s0,0,0,0h0ZM31.3,248.5h0ZM31.4,248.5h0ZM31.3,248.5h0s0,0,0,0h0ZM31.4,248.5h0s0,0,0,0ZM31.4,248.5h0ZM31.4,248.5h0ZM31.3,248.5h0,0s0,0,0,0h0,0ZM31.3,248.5h0s0,0,0,0ZM31.3,248.5h0,0ZM31.4,248.5h0,0ZM31.4,248.5h0ZM31.3,248.5h0s0,0,0,0ZM31.3,248.5h0s0,0,0,0h0ZM31.4,248.5h0s0,0,0,0ZM31.4,248.5h0,0ZM31.4,248.5h0s0,0,0,0ZM31.2,248.5h0,0ZM31.4,248.5h0s0,0,0,0h0ZM31.4,248.5h0ZM31.4,248.5h0s0,0,0,0ZM31.4,248.5h0,0ZM31.4,248.5h0ZM31.4,248.5h0s0,0,0,0h0s0,0,0,0h0s0,0,0,0h0s0,0,0,0h0s0,0,0,0h0s0,0,0,0h0s0,0,0,0h0s0,0,0,0h0,0ZM31.4,248.5h0ZM31.4,248.5h0s0,0,0,0ZM31.4,248.5h0s0,0,0,0h0s0,0,0,0h0s0,0,0,0h0ZM31.4,248.5h0s0,0,0,0ZM31.4,248.5h0s0,0,0,0h0ZM31.4,248.5h0,0ZM31.4,248.5h0ZM31.4,248.5h0,0ZM31.4,248.5h0ZM31.4,248.5h0s0,0,0,0h0s0,0,0,0h0s0,0,0,0h0s0,0,0,0h0s0,0,0,0h0s0,0,0,0h0s0,0,0,0h0s0,0,0,0h0s0,0,0,0h0s0,0,0,0h0s0,0,0,0h0s0,0,0,0h0s0,0,0,0h0s0,0,0,0h0s0,0,0,0h0s0,0,0,0h0s0,0,0,0h0s0,0,0,0h0s0,0,0,0h0s0,0,0,0h0s0,0,0,0h0s0,0,0,0h0s0,0,0,0h0s0,0,0,0h0s0,0,0,0h0s0,0,0,0h0s0,0,0,0h0s0,0,0,0h0s0,0,0,0h0s0,0,0,0h0s0,0,0,0h0,0s0,0,0,0h0ZM31.4,248.5h0s0,0,0,0h0s0,0,0,0h0s0,0,0,0h0s0,0,0,0h0s0,0,0,0h0s0,0,0,0h0s0,0,0,0h0s0,0,0,0h0s0,0,0,0h0s0,0,0,0h0s0,0,0,0h0s0,0,0,0h0s0,0,0,0h0s0,0,0,0h0s0,0,0,0h0s0,0,0,0h0s0,0,0,0h0s0,0,0,0h0s0,0,0,0h0s0,0,0,0h0s0,0,0,0h0s0,0,0,0h0s0,0,0,0h0s0,0,0,0h0s0,0,0,0h0s0,0,0,0h0s0,0,0,0h0s0,0,0,0h0s0,0,0,0h0s0,0,0,0h0s0,0,0,0h0s0,0,0,0h0s0,0,0,0h0s0,0,0,0h0s0,0,0,0h0s0,0,0,0h0s0,0,0,0h0s0,0,0,0h0s0,0,0,0h0s0,0,0,0h0s0,0,0,0h0s0,0,0,0h0s0,0,0,0h0s0,0,0,0h0s0,0,0,0h0s0,0,0,0h0s0,0,0,0h0s0,0,0,0h0s0,0,0,0h0s0,0,0,0h0,0s0,0,0,0h0s0,0,0,0h0s0,0,0,0h0,0s0,0,0,0h0s0,0,0,0h0s0,0,0,0h0,0s0,0,0,0h0s0,0,0,0h0s0,0,0,0h0s0,0,0,0h0s0,0,0,0h0s0,0,0,0h0s0,0,0,0h0s0,0,0,0h0s0,0,0,0h0s0,0,0,0h0,0,0s0,0,0,0h0s0,0,0,0h0s0,0,0,0h0s0,0,0,0h0s0,0,0,0h0s0,0,0,0h0s0,0,0,0h0s0,0,0,0h0s0,0,0,0h0s0,0,0,0h0s0,0,0,0h0s0,0,0,0h0s0,0,0,0h0s0,0,0,0h0s0,0,0,0h0s0,0,0,0h0s0,0,0,0h0s0,0,0,0h0s0,0,0,0h0s0,0,0,0h0s0,0,0,0h0s0,0,0,0h0s0,0,0,0h0s0,0,0,0h0s0,0,0,0h0s0,0,0,0h0s0,0,0,0h0s0,0,0,0h0s0,0,0,0h0s0,0,0,0h0s0,0,0,0h0s0,0,0,0h0s0,0,0,0h0s0,0,0,0h0s0,0,0,0h0s0,0,0,0h0s0,0,0,0h0s0,0,0,0h0s0,0,0,0h0s0,0,0,0h0c0,0,0,0,0,0h0s0,0,0,0h0s0,0,0,0h0s0,0,0,0h0s0,0,0,0h0s0,0,0,0h0s0,0,0,0h0s0,0,0,0h0s0,0,0,0h0s0,0,0,0h0s0,0,0,0h0s0,0,0,0h0s0,0,0,0h0s0,0,0,0h0s0,0,0,0h0s0,0,0,0h0s0,0,0,0h0s0,0,0,0h0s0,0,0,0h0s0,0,0,0h0s0,0,0,0h0s0,0,0,0h0s0,0,0,0h0s0,0,0,0h0s0,0,0,0h0s0,0,0,0v.2ZM31.4,248.5h0s0,0,0,0h0ZM31.4,248.5h0s0,0,0,0h0,0ZM31.4,248.5h0ZM31.4,248.5h0ZM31.4,248.5h0,0ZM31.4,248.5h0s0,0,0,0h0s0,0,0,0h0,0s0,0,0,0h0,0s0,0,0,0h0,0s0,0,0,0h0ZM31.4,248.5h0s0,0,0,0h0ZM31.4,248.5h0s0,0,0,0h0ZM31.4,248.5h0s0,0,0,0h0s0,0,0,0h0s0,0,0,0h0ZM31.4,248.4h0,0ZM31.4,248.4h0,0ZM31.4,248.4h0s0,0,0,0h0ZM31.4,248.4h0s0,0,0,0h0ZM31.4,248.4h0s0,0,0,0h0ZM31.4,248.4h0s0,0,0,0h0s0,0,0,0h0s0,0,0,0h0s0,0,0,0h0s0,0,0,0h0s0,0,0,0h0s0,0,0,0h0s0,0,0,0h0ZM31.4,248.4h0ZM31.4,248.4h0s0,0,0,0h0ZM31.3,248.4h0s0,0,0,0h0ZM31.4,248.4h0ZM31.4,248.4h0,0ZM31.4,248.4h0ZM31.4,248.4h0ZM31.4,248.4h0ZM31.3,248.4h0ZM31.4,248.4h0ZM31.4,248.4h0ZM31.4,248.4h0,0ZM31.3,248.4h0,0s0,0,0,0h0ZM31.4,248.4h0s0,0,0,0h0s0,0,0,0h0s0,0,0,0h0s0,0,0,0h0s0,0,0,0h0s0,0,0,0h0s0,0,0,0h0s0,0,0,0h0s0,0,0,0h0s0,0,0,0h0s0,0,0,0h0s0,0,0,0h0s0,0,0,0h0s0,0,0,0h0s0,0,0,0h0,0s0,0,0,0h0s0,0,0,0h0,0s0,0,0,0h0s0,0,0,0h0s0,0,0,0h0s0,0,0,0h0s0,0,0,0h0s0,0,0,0h0s0,0,0,0h0s0,0,0,0h0s0,0,0,0h0,0s0,0,0,0h0s.1,0,.1,0ZM31.4,248.4h0ZM31.4,248.4h0s0,0,0,0h0ZM31.4,248.4h0s0,0,0,0h0s0,0,0,0h0s0,0,0,0h0s0,0,0,0h0s0,0,0,0h0s0,0,0,0ZM31.3,248.4h0,0s0,0,0,0h0ZM31.4,248.3h0s0,0,0,0h0s0,0,0,0h0s0,0,0,0ZM31.3,248.3h0s0,0,0,0h0s0,0,0,0h0s0,0,0,0ZM28.7,245.8h0s0,0,0,0h0s0,0,0,0h0s0,0,0,0h0s0,0,0,0h0s0,0,0,0h0s0,0,0,0h0s0,0,0,0h0,0s0,0,0,0h0s0,0,0,0h0s0,0,0,0h0s0,0,0,0h0s0,0,0,0h0s0,0,0,0h0s0,0,0,0h0s0,0,0,0h0s0,0,0,0h0s0,0,0,0h0s0,0,0,0h0s0,0,0,0h0s0,0,0,0h0s0,0,0,0h0s0,0,0,0h0s0,0,0,0h0s0,0,0,0h0s0,0,0,0h0s0,0,0,0h0s0,0,0,0h0s0,0,0,0ZM28.8,245.7h0,0ZM28.8,245.7h0ZM28.6,245.7h0s0,0,0,0h0s0,0,0,0h0s0,0,0,0h0s0,0,0,0h0s0,0,0,0h0s0,0,0,0h0s0,0,0,0h0s0,0,0,0h0s0,0,0,0h0s0,0,0,0h0s0,0,0,0h0s0,0,0,0h0s0,0,0,0h0s0,0,0,0h0ZM28.8,245.7h0s0,0,0,0h0s0,0,0,0h0s0,0,0,0h0s0,0,0,0h0s0,0,0,0h0s0,0,0,0h0,0s0,0,0,0h0,0s0,0,0,0h0,0s0,0,0,0h0s0,0,0,0h0s0,0,0,0h0,0s0,0,0,0h0s0,0,0,0h0s0,0,0,0h0s0,0,0,0h0s0,0,0,0h0s0,0,0,0h0s0,0,0,0h0s0,0,0,0h0s0,0,0,0h0s0,0,0,0h0s0,0,0,0h0s0,0,0,0ZM28.8,245.7h0s0,0,0,0ZM28.8,245.7h0ZM28.8,245.7h0,0ZM27.2,244.5h0s0,0,0,0h0s0,0,0,0h0s0,0,0,0h0s0,0,0,0h0s0,0,0,0h0s0,0,0,0h0s0,0,0,0h0s0,0,0,0h0s0,0,0,0h0Z"/>
    <path id="KI-B" d="M7.2,257.8h0s0,0,0,0h0s0,0,0,0h0s0,0,0,0h0s0,0,0,0h0s0,0,0,0h0s0,0,0,0h0s0,0,0,0h0s0,0,0,0h0s0,0,0,0h0s0,0,0,0h0s0,0,0,0h0s0,0,0,0h0s0,0,0,0h0s0,0,0,0h0,0s0,0,0,0h0s0,0,0,0h0s0,0,0,0h0s0,0,0,0h0s0,0,0,0ZM10.5,257.6h0s0,0,0,0h0s0,0,0,0h0s0,0,0,0h0,0s0,0,0,0h0s0,0,0,0h0s0,0,0,0h0s0,0,0,0h0s0,0,0,0h0s0,0,0,0h0s0,0,0,0h0s0,0,0,0h0ZM10.5,257.6h0s0,0,0,0h0ZM10.5,257.6h0,0s0,0,0,0h0s0,0,0,0h0ZM10.5,257.6h0s0,0,0,0h0s0,0,0,0h0s0,0,0,0h0s0,0,0,0h0s0,0,0,0h0s0,0,0,0h0s0,0,0,0h0,0s0,0,0,0h0s0,0,0,0h0ZM10.5,257.6h0s0,0,0,0h0ZM10.5,257.6h0ZM10.4,257.6h0s0,0,0,0ZM10.4,257.6h0,0ZM10.4,257.6h0s0,0,0,0h0s0,0,0,0h0s0,0,0,0h0,0ZM10.4,257.6h0s0,0,0,0ZM10.4,257.6h0s0,0,0,0ZM10.4,257.6h0s0,0,0,0h0ZM10.4,257.6h0s0,0,0,0h0ZM10.4,257.6h0s0,0,0,0h0s0,0,0,0h0ZM10.5,257.6h0s0,0,0,0h0,0s0,0,0,0ZM10.5,257.6h0s0,0,0,0h0,0ZM10.5,257.5h0s0,0,0,0ZM10.5,257.5h0,0s0,0,0,0h0ZM10.5,257.5h0s0,0,0,0h0ZM10.5,257.5h0s0,0,0,0h0s0,0,0,0h0s0,0,0,0ZM10.5,257.5h0s0,0,0,0h0ZM11.8,257.5h0s0,0,0,0h0s0,0,0,0h0s0,0,0,0h0s0,0,0,0h0s0,0,0,0h0ZM12.5,256.4h0s0,0,0,0h0s0,0,0,0h0s0,0,0,0ZM7.7,256.3h0s0,0,0,0h0s0,0,0,0h0s0,0,0,0ZM11.4,256.2h0s0,0,0,0h0ZM12,255.6h0s0,0,0,0h0s0,0,0,0h0s0,0,0,0h0s0,0,0,0h0c0,0,0,0,0,0ZM11.1,255.2h0s0,0,0,0h0s0,0,0,0h0s0,0,0,0h0s0,0,0,0h0s0,0,0,0h0s0,0,0,0h0s0,0,0,0h0s0,0,0,0h0s0,0,0,0h0s0,0,0,0h0s0,0,0,0h0s0,0,0,0h0s0,0,0,0h0s0,0,0,0h0s0,0,0,0h0s0,0,0,0h0s0,0,0,0h0s0,0,0,0h0s0,0,0,0h0s0,0,0,0h0s0,0,0,0h0s0,0,0,0h0s0,0,0,0h0s0,0,0,0h0s0,0,0,0h0s0,0,0,0h0s0,0,0,0h0s0,0,0,0h0s0,0,0,0h0s0,0,0,0h0s0,0,0,0h0s0,0,0,0h0s0,0,0,0h0s0,0,0,0h0s0,0,0,0h0s0,0,0,0h0s0,0,0,0h0s0,0,0,0ZM11.1,255.2h0s0,0,0,0Z"/>
  </g>
</svg>