<svg xmlns="http://www.w3.org/2000/svg" xmlns:amcharts="http://amcharts.com/ammap" id="Layer_1" viewBox="0 0 512 512"><g id="_x3C_defs"><amcharts:ammap bottomLatitude="4.21" leftLongitude="159.884" projection="mercator" rightLongitude="172.133" topLatitude="15.019"/></g><path id="MH" d="m352.4 485.4.9-.2.6-.4.6-.6.5-.2.4-.4v-.3h-.1v.2l-.1.4h-.4v.2l-.3.2-.5.3v.2h-.4l-.2.2-.6.2h-.2l-.4-.2-.3-.4v-.2h-.2v.4l.2.2.5.2Zm-2.2-2.4h.2c0-.1-.1-.1-.1-.1v-.2c-.1 0-.2-.3-.2-.3v-.2h-.2l-.2.2.5.7Zm-23.7-45.1-.2.3v.4l-.2.7h-.2l-.4-.2v-.2c-.1 0-.2-.4-.2-.4v.3c-.1 0-.2.4-.2.4v.2h1.1l.3-1.2.3-.8h-.7v.2h.4l.1.1Zm-1.9-.6.4.5h.1v-.2h.2v-.1l-.6-.2Zm66.5-7.8v-.2l-.9-.6v-.3c-.1 0-.2-.1-.2-.1l.1.4.2.2.4.3h.2v.1zh.1Zm3.3-5.1.2.2v.2l-.4.4v.2h-.1v.6c-.1 0-.1.6-.1.6l-.5 1.5v.6c-.1 0 0 .3 0 .3v.2c-.1 0 0 0 0 0h-.1v.6l-.2.3c0 .1-.1.2-.1.2h-.4l-.7-.4-.4-.5c0 .1.1 0 .1 0 0 .1.4.6.4.6l.6.4h.6c0 .1.2-.4.2-.4l.2-.3v-1.1l.4-1.1v-.4l.2-.5v-1l.2-.3.4-.5v-.2l-.2-.1Zm112.5.8h-.2v-.2h-.1l.1.4.3.3h.3c0 .1.3.6.3.6l.3.4h.1v-.2h-.2l-.1-.1h.1c0-.1.1 0 .1 0v-.2h-.3l-.2-.3-.3-.3h-.2v-.2Zm-.3-.3h.1v-.1c0-.1-.1 0-.1 0v-.5h.1c0-.1.1-.4.1-.4h-.1v.2h-.2v.5l.4.6Zm-1.2-2.8-.2-.2c0-.1 0 0 0 0 0-.1 0 0 0 0v-.2h-.1v-.3c-.1 0-.3-.1-.3-.1h-.1l-.2-.3h-.3c0-.1-.3-.5-.3-.5h-.2l-.2-.3v.2l.5.2 1 .8.2.3h.2c0 .1.4.5.4.5h.3c0 .1 0 0 0 0h-.1v-.2l-.3-1.2v-.3h-.2c0 .1.3.9.3.9v.4h.2v.1Zm-107.6-2-1.1-.6-.4-.3-.5-.7-.4-.3h-.2v.1h.1l.3.3.5.6.6.5.2.2h.3c0 .1 0 0 0 0l.4.3Zm91.8-2.4-.4-.2h-.4l-.3-.3-.3-.6v-.7l-.2 1-.2.5v.2h1.2l.5.2Zm6.8.4.5.3.6.8.3.3h.7l.5-.2h.3l.8-.1 1 .3 1.3.7h.4c0 .1 0 0 0 0v.1l-.8-.4c0-.1-.2-.1-.2-.1l-.3-.2h-.6v-.2h-.4l-.2-.2h-1c0 .1-.5.4-.5.4h-.5l-.3-.2-.9-1h-.3c0-.1-.1-.3-.1-.3l-.6-.2h-.7c0-.1-.9 0-.9 0l-1 .4-.2.2h-.2l-.3.4-.3.2h-.7l-.3-.3-.5-.2-.5-.4v-.2h-.3l-.4-.2.3.2h.4c0 .1.6.7.6.7h.3c0 .1.5.6.5.6h.6l.8-.7.6-.3.7-.3h.5c0-.1.7-.1.7-.1l.8.3Zm-110.6 5.6-.2-.2-.5-.2v-.3h-.6v.1l.4.2.3.2h.2Zm11.8-1.6h-.3c0 .1-.4.2-.4.2l-.7.4-.4.3-.2.4-.4.2-.3.4h-.4v.2l.4-.2.4-.4.4-.2.2-.4.4-.3 1.3-.4.4-.7v-.3h-.2v.4l-.2.5Zm-6.7-6.6h.1l-.2-.2-.3-.6v-.5l-.6-1.1v-.2l.1-.7c0-.1 0 0 0 0h-.1v.4l-.2.4v.2c.1 0 0 .1 0 .1l.2.2c0 .1.1.3.1.3v.2l.2.3v.9l.4.3Zm97.1-1.7v.5c.1 0-.1-1.8-.1-1.8l-.2-.5v-.3l.2-.3h-.3v.3l.3.7v1.2l.2.2Zm-99.6-3.4h.2l-.3-.4-.3-.8.1.2v.4c0 .1 0 0 0 0l.3.7Zm105.7-38.2-.2.2-.6.2h-.2.2l.7-.2.5-.4h.6c0 .1.3 0 .3 0l.2-.2h.3l.3.3.3-.4.4-.3.2-.4.3-.2v-.3l-.5-.4h-.2c0 .1.1.3.1.3h.2c0-.1.3 0 .3 0v.4l-.4.6-.3.3-.2.2h-.7l-.3.3h-.2l-.2-.1h-.2l-.4.4Zm-13.4 1.2-.2-.3-.2-.5v-.3l.1-.2-.2.4-.3.4v.2l.3.3.6.3.2.3.4.7.2.5.2.3.3.3.6.3h.5l.5-.1h.5l.3-.3h.8l.3.2.2.4h.6l.1.2v.3l.8.4.5.4.6.3h.8v-.3.2h-.8l-.4-.2-1.1-.7-.5-.5h-.5c0-.1-.4-.5-.4-.5l-.3-.2h-.6l-.3.1-.2.2h-.5l-.4.2h-.6l-.7-.5-.7-1.3-.2-.3-.4-.4Zm9.4 1-.5.4-.4.6v1.2c-.1 0 0-1.2 0-1.2l.2-.3.5-.5.6-.5.5-1 .4-.3h.7l.8-.3-.8.3h-.4l-.6.1-.3.4-.3.8zm-18.8-2.3h.9l.4-.3-.2-.3c0-.1-.1-.4-.1-.4l-.2-.3h-.1l-.2-.6h-.2c0-.1-.2-.1-.2-.1 0 .1.2.1.2.1h.2c0 .1.2.5.2.5l.5.5v.6h-1c0 .1-.1.2-.1.2Zm-11.2-.8 1.9.6 1.9.9 1.9.6h.6c0-.1.5-.3.5-.3l1.3-.3 1.3-.2.9-.3.9-.2h-.1l-.9.2c0 .1-.4.2-.4.2l-.9.3h-.9l-1.2.4-.7.3h-.7l-1.7-.6-1.8-.8-2.4-.7-1.5-.6-.5-.4-.5-.7-.2-.5v-.6l-.5.7v.3l.5.3.4.6.6.4 1 .4.9.3Zm24.7-7.1-.5.4h-.4v.7-.4l.3-.4.4-.3Zm-130.4-1.3v-.4c-.1 0-.2.5-.2.5v.2h1.8l.3.2h.6l.6.2h.1l.1-.5h-.1v.2h-3.1c0-.1-.2-.3-.2-.3Zm-3.6-1.2v.1l.9.5v.2h.3l.7-.2h.6l.6.4h.2v-.2h-.1c0 .1-.1.1-.1.1l-.6-.2h-.7l-.3.2-.2-.3-.2-.1-.6-.4v-.1c0 .1 0 0 0 0Zm-2.1-1.2h.6c0 .1.6.4.6.4v-.2h-.3l-.3-.3h-.2l-1-.2h-.2.2c0 .1.5.3.5.3Zm-3.1-3.1v.6c.1 0 .3.4.3.4l.4.4-.4-.6-.4-2v-.5l.3-.4v-.1h-.2l-.2.3v.6l.4 1.3Zm18-6.7.6-1v-.7h-.1c0-.1-.6-.3-.6-.3h-.7c0-.1-.2 0-.2 0v.3l.4-.2h.6c0 .1.4.3.4.3l.2.3v.2l-.6 1Zm-32.7-9.4h-.2c0-.1.3.2.3.2l.5.3h.3l.4-.1.6-.5-.9.5h-.3l-.5-.1-.3-.2Zm-2.2-18 .2.2v.4c.1 0 .2-.3.2-.3l-.3-.5h-.4c0-.1-.1 0-.1 0h.4Zm-9.1-1.8h-.1l.1.5.3.3v-.3l-.4-.4Zm-26.7-4.8h.2v-.5h-.6v.2zM466 298.6v-.2l-.2-.1h-.4v.9c-.1 0 0-.3 0-.3l.5-.3Zm-157.1-1.8h-.1v.5h-.1.1c0 .1-.2.4-.2.4h-.4l-.3-.2.2.4h.7l.3-.2v-.3l-.1-.7Zm-.1-2.3v-1.6l.2-.6.3-.7-.3.4-.2.7-.2 1v.5l.2.8v.4h.1l-.2-.9Zm153.7 22.2v.2l.4-.4v-.2l-.4-.1h-.4l.3.2v.2Zm-13.8-27h.1l-.1-.2h-.5l-.3.6v.2h.4l.2-.5.2-.2Zm-228.3-1.4c0-.1-.2-.2-.2-.2h-.4v.2l.2.2h.2l.1-.2Zm47.9-17.8v-.2l-.3-.3h-.5l.1.2.6.3Zm28.4-3.7.1.2v.3l.2-.1.3.1c0 .1.1 0 .1 0 0-.1-.2-.4-.2-.4h-.2c0 .1-.1 0-.1 0v-.2h-.4Zm124.2-2.8h-.1l.2.2h.1v.6l-.3.4h.2l.2-.3.2-.7v-.3c-.1 0-.5-.1-.5-.1h-.1ZM5.7 250.3l.2-.2h-.2l-.1.1h-.4l-1.2-.3v.2l1.7.3Zm373.1-2.4 1.1-.3-.5-.2v.2l-.4.2h-.2l-.2-.2v.3zm-146.7-9v-.5h-.2l-.2.1h-.3v.2h.3l.2.2Zm134.3-.8v-.2h-.1v.1-.2h-.1c0 .1 0 0 0 0l-.2.2v-.2l-.1.2h-.1v.1l.3.3.3-.2Zm-.8-.6-.5-.3v.2l.3.5h.1l.2-.3c0-.1-.1-.2-.1-.2Zm-134.1-4.9h.1v-1h-.2v.2h-.3v-.3h-.2l-.2.3.5.3.2.3v.2Zm218.2-5.3v-.7l.2-.4v-.2l-.2-.1-.4.3v1.1zm-180.4-40.5h-.4c0 .1-.3 0-.3 0h-.2l.3.3.9-.3h1.3l.2-.6v-.3l-.1-.1v.5l-.3.2h-.3l-.7.1h-.4Zm134-2.9h.3c0-.1.4-.2.4-.2l.2-.3h-.6v.3c-.1 0-1.1.3-1.1.3h.8Zm-337.5-5.4.7-.5.4-.5v-.2l-.5.6-.7.2v.3h.1Zm145.4-8.1.3-.3v-.3c.1 0-.1-.5-.1-.5v.7l-.2.2zm-.5-4.5h.2v-.6l-.2-.3h-.2c0-.1-.8-.3-.8-.3l.9.6.2.3v.2Zm-148.5-2.1v-.5H62c0 .1-.3.1-.3.1l.5.5v-.2Zm304-137.2h-.1zh-.2v.3l-.4.6-.7.4-.9.7h.3l.3-.3.9-.4.3-.2.5-.7v-.4Z"/></svg>