<?xml version="1.0" encoding="UTF-8"?>
<svg id="Layer_1" xmlns="http://www.w3.org/2000/svg" xmlns:amcharts="http://amcharts.com/ammap" version="1.1" viewBox="0 0 512 512">
  <!-- Generator: Adobe Illustrator 29.1.0, SVG Export Plug-In . SVG Version: 2.1.0 Build 142)  -->
  <g id="_x3C_defs">
    <amcharts:ammap bottomLatitude="4.2101583" leftLongitude="159.8840332" projection="mercator" rightLongitude="172.1332421" topLatitude="15.0190749"/>
  </g>
  <path id="MH" d="M352.4,485.4l.9-.2.6-.4.6-.6.5-.2.4-.4v-.3s-.1,0-.1,0v.2c0,0-.1.4-.1.4h-.4c0,.1,0,.2,0,.2l-.3.2-.5.3v.2c0,0-.2,0-.2,0h-.2s-.2.2-.2.2l-.6.2h-.2s-.4-.2-.4-.2l-.3-.4v-.2c0,0-.2,0-.2,0v.2s0,.2,0,.2l.2.2.5.2ZM350.2,483h.2c0-.1-.1-.1-.1-.1v-.2c-.1,0-.2-.3-.2-.3v-.2s-.2,0-.2,0h0c0,0-.2.2-.2.2h0c0,0,.5.7.5.7ZM326.5,437.9l-.2.3v.4s-.2.7-.2.7h-.2c0,0-.4-.2-.4-.2v-.2c-.1,0-.2-.4-.2-.4v.3c-.1,0-.2.4-.2.4v.2c.1,0,.9,0,.9,0h.2c0,0,.3-1.2.3-1.2l.3-.8h-.7c0,0,0,.2,0,.2h.4s.1.1.1.1h0ZM324.6,437.3l.4.5h.1s0-.2,0-.2h.2s0-.1,0-.1l-.6-.2h0ZM391.1,429.5h0c0,0,0-.2,0-.2l-.9-.6v-.3c-.1,0-.2-.1-.2-.1h0c0,0,.1.4.1.4l.2.2.4.3h.2s0,.1,0,.1l.2.2h.1c0,0,0,0,0,0ZM394.4,424.4h0s.2.2.2.2v.2s-.4.4-.4.4v.2c0,0-.1,0-.1,0v.6c-.1,0-.1.6-.1.6l-.5,1.5v.6c-.1,0,0,.3,0,.3v.2c-.1,0,0,0,0,0h-.1c0,0,0,.4,0,.4h0c0,0,0,.2,0,.2l-.2.3h0c0,.1-.1.2-.1.2h-.4s-.7-.4-.7-.4l-.4-.5h0c0,.1.1,0,.1,0h0c0,.1.4.6.4.6l.6.4h.6c0,.1.2-.4.2-.4l.2-.3v-1.1c0,0,.4-1.1.4-1.1v-.4s.2-.5.2-.5v-1c0,0,.2-.3.2-.3l.4-.5v-.2s-.2-.1-.2-.1ZM506.9,425.2h-.2v-.2h-.1c0,0,.1.4.1.4l.3.3h.3c0,.1.3.6.3.6l.3.4h.1s0-.2,0-.2h-.2s-.1-.1-.1-.1h.1c0-.1.1,0,.1,0v-.2h-.3s-.2-.3-.2-.3h0s-.3-.3-.3-.3h-.2c0,0,0-.2,0-.2ZM506.6,424.9h.1c0-.1,0-.1,0-.1h0c0-.1-.1,0-.1,0h0c0,0,0-.3,0-.3h0c0,0,0-.2,0-.2h0s.1,0,.1,0h0c0-.1.1-.4.1-.4h-.1s0,.2,0,.2h-.2s0,.1,0,.1v.4c0,0,.4.6.4.6ZM505.4,422.1l-.2-.2h0c0-.1,0,0,0,0h0c0-.1,0,0,0,0v-.2s-.1,0-.1,0v-.3c-.1,0-.3-.1-.3-.1h0c0,0,0,0,0,0h-.1c0,0,0,0,0,0l-.2-.3h-.3c0-.1-.3-.5-.3-.5h-.2c0,0-.2-.3-.2-.3h0v.2l.5.2,1,.8.2.3h.2c0,.1.4.5.4.5h.3c0,.1,0,0,0,0h-.1c0,0,0-.2,0-.2l-.3-1.2v-.3s-.2,0-.2,0h0c0,.1.3.9.3.9v.4s0,0,0,0h0,.2c0,0,0,.1,0,.1ZM397.8,420.1l-1.1-.6-.4-.3-.5-.7-.4-.3h-.2s0,.1,0,.1h.1s.3.3.3.3l.5.6.6.5.2.2h.3c0,.1,0,0,0,0l.4.3h0ZM489.6,417.7l-.4-.2h-.4c0,0-.3-.3-.3-.3l-.3-.6v-.7s-.2,1-.2,1l-.2.5v.2s1.2,0,1.2,0l.5.2ZM496.4,418.1l.5.3.6.8.3.3h.7c0,0,.5-.2.5-.2h.3c0,0,.8-.1.8-.1l1,.3,1.3.7h.4c0,.1,0,0,0,0h0c0,.1,0,.1,0,.1l-.8-.4h0c0-.1-.2-.1-.2-.1l-.3-.2h-.2s0,0,0,0h-.4c0,0,0-.2,0-.2h-.4s-.2-.2-.2-.2h-1c0,.1-.5.4-.5.4h-.5s-.3-.2-.3-.2l-.9-1h-.3c0-.1-.1-.3-.1-.3l-.6-.2h0c0,0-.2,0-.2,0h-.5c0-.1-.9,0-.9,0l-1,.4-.2.2h-.2s-.3.4-.3.4l-.3.2h-.4c0,0-.3,0-.3,0l-.3-.3-.5-.2-.5-.4v-.2c0,0-.1,0-.1,0h0c0,0-.2,0-.2,0l-.4-.2.3.2h.4c0,.1.6.7.6.7h.3c0,.1.5.6.5.6h.6s.8-.7.8-.7l.6-.3.7-.3h.5c0-.1.7-.1.7-.1l.8.3ZM385.8,423.7h0c0,0-.2-.2-.2-.2l-.5-.2v-.3c-.1,0-.4,0-.4,0h-.2c0,0,0,.1,0,.1h0c0,0,.4.2.4.2l.3.2h0c0,0,0,0,0,0h0s0,0,0,0h.2ZM397.6,422.1h-.3c0,.1-.4.2-.4.2h0c0,0-.7.4-.7.4l-.4.3-.2.4-.4.2-.3.4h-.2c0,0-.1,0-.1,0h-.1s0,.2,0,.2h0s.4-.2.4-.2l.4-.4.4-.2.2-.4.4-.3,1.3-.4.4-.7v-.3c0,0-.2,0-.2,0v.4c0,0-.2.5-.2.5ZM390.9,415.5h.1s-.2-.2-.2-.2l-.3-.6v-.5s-.6-1.1-.6-1.1v-.2s.1-.7.1-.7h0c0-.1,0,0,0,0h-.1v.4l-.2.4v.2c.1,0,0,.1,0,.1h0c0,0,0,0,0,0l.2.2h0c0,.1.1.3.1.3v.2s0,0,0,0h0c0,0,.2.3.2.3v.2c0,0,0,.5,0,.5h0s0,0,0,0v.2s.4.3.4.3ZM488,413.8v.5c.1,0-.1-1.8-.1-1.8l-.2-.5v-.3s.2-.3.2-.3h-.1c0,0-.2,0-.2,0v.3c0,0,.3.7.3.7v1.2c0,0,.2.2.2.2ZM388.4,410.4h.2c0,0-.3-.4-.3-.4l-.3-.8h0s.1.2.1.2v.2s0,.2,0,.2h0c0,0,0,0,0,0h0c0,0,0,0,0,0h0c0,.1,0,0,0,0l.3.7ZM494.1,372.2h0c0,0-.2.2-.2.2l-.6.2h-.2s.2,0,.2,0l.7-.2.5-.4h.6c0,.1.3,0,.3,0l.2-.2h.3s.3.3.3.3l.3-.4.4-.3.2-.4.3-.2v-.3c0,0-.5-.4-.5-.4h-.2c0,.1.1.3.1.3h.2c0-.1.3,0,.3,0v.4c0,0-.4.6-.4.6l-.3.3-.2.2h-.1c0,0-.4,0-.4,0h-.2s-.3.3-.3.3h-.2c0,0-.2-.1-.2-.1h-.2s0,0,0,0l-.4.4ZM480.7,373.4l-.2-.3-.2-.5v-.3s.1-.2.1-.2h0s-.2.4-.2.4l-.3.4v.2s.3.3.3.3l.6.3.2.3.4.7.2.5.2.3.3.3.6.3h.5c0,0,.5-.1.5-.1h.5s.3-.3.3-.3h.8s.3.2.3.2l.2.4h.6s.1.2.1.2v.3c0,0,.8.4.8.4l.5.4.6.3h.4c0,0,.4,0,.4,0v-.3s0,.2,0,.2h-.3s-.5,0-.5,0l-.4-.2-1.1-.7-.5-.5h-.5c0-.1-.4-.5-.4-.5l-.3-.2h-.6s-.3.1-.3.1l-.2.2h-.5c0,0-.4.2-.4.2h-.6c0,0-.7-.5-.7-.5l-.7-1.3-.2-.3-.4-.4ZM490.1,374.4l-.5.4-.4.6v1.2c-.1,0,0-1.2,0-1.2l.2-.3.5-.5.6-.5.5-1,.4-.3h.7s.8-.3.8-.3l-.8.3h-.4s-.6.1-.6.1l-.3.4-.3.8-.4.3ZM471.3,372.1h.9c0,0,.4-.3.4-.3l-.2-.3h0c0-.1-.1-.4-.1-.4l-.2-.3h-.1c0,0-.2-.6-.2-.6h-.2c0-.1-.2-.1-.2-.1h0c0,.1.2.1.2.1h.2c0,.1.2.5.2.5l.5.5v.2c0,0,0,.2,0,.2v.2c0,0-.2,0-.2,0h-.8c0,.1-.1.2-.1.2ZM460.1,371.3l1.9.6,1.9.9,1.9.6h.6c0-.1.5-.3.5-.3l1.3-.3,1.3-.2.9-.3.9-.2h-.1c0,0,0,0,0,0l-.9.2h0c0,.1-.4.2-.4.2l-.9.3h-.9s-1.2.4-1.2.4l-.7.3h-.4c0,0-.3,0-.3,0l-1.7-.6-1.8-.8-2.4-.7-1.5-.6-.5-.4-.5-.7-.2-.5v-.6c0,0,0,0,0,0l-.5.7v.2c0,0,0,.1,0,.1l.5.3.4.6.6.4,1,.4.9.3ZM484.8,364.2l-.5.4h-.4c0,0,0,.1,0,.1v.6c0,0,0,0,0,0v-.4c0,0,.3-.4.3-.4l.4-.3ZM354.4,362.9v-.4c-.1,0-.2.5-.2.5v.2c.1,0,.4,0,.4,0h.9s.5,0,.5,0l.3.2h.6s.6.2.6.2h.1c0,0,.1-.5.1-.5h-.1s0,.2,0,.2h0c0,0-.6,0-.6,0h-.3c0,0-.2,0-.2,0h-.2s-.4,0-.4,0h-.6c0,0-.4,0-.4,0h-.4c0-.1-.2-.3-.2-.3ZM350.8,361.7h0s0,.1,0,.1l.9.5v.2c.1,0,.3,0,.3,0l.7-.2h.6c0,0,.6.4.6.4h.2v-.2h-.1c0,.1-.1.1-.1.1l-.6-.2h0c0,0,0,0,0,0h0c0,0-.3,0-.3,0h-.4c0,0-.3.2-.3.2l-.2-.3h0s-.2-.1-.2-.1h0c0,0-.6-.4-.6-.4h0c0-.1,0-.1,0-.1h0c0,.1,0,0,0,0ZM348.7,360.5h.6c0,.1.6.4.6.4v-.2c0,0-.3,0-.3,0l-.3-.3h-.2s-1-.2-1-.2h0c0,0-.2,0-.2,0h.2c0,.1.5.3.5.3ZM345.6,357.4v.6c.1,0,.3.4.3.4l.4.4-.4-.6-.4-2v-.5c0,0,.3-.4.3-.4h0s0-.1,0-.1h-.2c0,0-.2.3-.2.3h0v.6l.4,1.3ZM363.6,350.7l.6-1v-.4c0,0,0-.3,0-.3h-.1c0-.1-.6-.3-.6-.3h-.7c0-.1-.2,0-.2,0h0c0,0,0,.3,0,.3l.4-.2h.6c0,.1.4.3.4.3l.2.3v.2s-.6,1-.6,1ZM330.9,341.3h-.2c0-.1.3.2.3.2l.5.3h.3s.4-.1.4-.1l.6-.5-.9.5h-.3s-.5-.1-.5-.1l-.3-.2ZM328.7,323.3l.2.2v.4c.1,0,.2-.3.2-.3l-.3-.5h-.4c0-.1-.1,0-.1,0h.4ZM319.6,321.5h-.1c0,0,.1.5.1.5h0s.3.3.3.3v-.3c0,0-.4-.4-.4-.4ZM292.9,316.7h.2c0,0,0-.5,0-.5h-.5c0,0-.1,0-.1,0v.2s.4.3.4.3ZM466,298.6v-.2s-.2-.1-.2-.1h-.4c0,.1,0,.5,0,.5v.4c-.1,0,0-.3,0-.3l.5-.3ZM308.9,296.8h-.1s0,.5,0,.5h-.1c0,0,.1,0,.1,0h0c0,.1-.2.4-.2.4h-.4c0,0-.3-.2-.3-.2h0s.2.4.2.4h.7s.3-.2.3-.2v-.3c0,0-.1-.7-.1-.7ZM308.8,294.5v-.4c0,0,0-1.2,0-1.2l.2-.6.3-.7-.3.4-.2.7-.2,1v.5s.2.8.2.8h0c0,0,0,.1,0,.1v.3c0,0,.1,0,.1,0l-.2-.9ZM462.5,316.7v.2s.4-.4.4-.4v-.2c0,0-.4-.1-.4-.1h-.4s.3.2.3.2v.2ZM448.7,289.7h.1s-.1-.2-.1-.2h-.5s-.3.6-.3.6v.2s.3,0,.3,0h.1c0,0,.2-.5.2-.5l.2-.2ZM220.4,288.3h0c0-.1-.2-.2-.2-.2h-.1c0,0-.3,0-.3,0v.2s.2.2.2.2h.2s.1-.2.1-.2ZM268.3,270.5v-.2s-.3-.3-.3-.3h-.5s.1.2.1.2l.6.3h0s0,0,0,0ZM296.7,266.8h0s.1.2.1.2v.3c0,0,.2-.1.2-.1h0c0,0,.3.1.3.1h0c0,.1.1,0,.1,0h0c0-.1-.2-.4-.2-.4h-.2c0,.1-.1,0-.1,0v-.2s-.4,0-.4,0ZM420.9,264h-.1s.2.2.2.2h0c0,0,0,0,0,0h.1c0,.1,0,.6,0,.6l-.3.4h.2s.2-.3.2-.3l.2-.7v-.3c-.1,0-.5-.1-.5-.1h-.1ZM5.7,250.3l.2-.2h0c0,0-.2,0-.2,0h0c0,0-.1.1-.1.1h-.4s-1.2-.3-1.2-.3v.2s1.7.3,1.7.3ZM378.8,247.9l1.1-.3-.5-.2v.2s-.4.2-.4.2h-.2s-.2-.2-.2-.2h0v.3h.2ZM232.1,238.9h0c0,0,0-.5,0-.5h-.2s-.2.1-.2.1h-.3s0,.2,0,.2h.3c0,0,.2.2.2.2ZM366.4,238.1h0c0-.1,0-.2,0-.2h-.1s0,.1,0,.1h0s0-.2,0-.2h-.1c0,.1,0,0,0,0l-.2.2v-.2c0,0-.1.2-.1.2h-.1s0,.1,0,.1l.3.3.3-.2ZM365.6,237.5l-.5-.3h0s0,.2,0,.2l.3.5h.1s.2-.3.2-.3h0c0-.1-.1-.2-.1-.2ZM231.5,232.6h.1s0-.2,0-.2v-.8c0,0-.2,0-.2,0v.2s-.2,0-.2,0h-.1c0-.1,0-.3,0-.3h-.2s-.2.3-.2.3l.5.3.2.3v.2ZM449.7,227.3h0c0-.1,0-.7,0-.7l.2-.4v-.2s-.2-.1-.2-.1l-.4.3v.4c0,0,0,.1,0,.1v.5c0,0,0,.1,0,.1h.4ZM269.3,186.8h-.4c0,.1-.3,0-.3,0h-.2c0,0,.3.3.3.3l.9-.3h.8c0,0,.5,0,.5,0l.2-.6v-.3s-.1-.1-.1-.1v.5c0,0-.3.2-.3.2h-.3c0,0-.7.1-.7.1h-.4ZM403.3,183.9h.3c0-.1.4-.2.4-.2l.2-.3h-.1c0,0-.1,0-.1,0h-.4c0-.1,0,.1,0,.1v.2c-.1,0-1.1.3-1.1.3h.8ZM65.8,178.5l.7-.5.4-.5v-.2s-.5.6-.5.6l-.7.2v.3c0,0,.1,0,.1,0ZM211.2,170.4l.3-.3v-.3c.1,0-.1-.5-.1-.5h0s0,.4,0,.4v.3c0,0-.2.2-.2.2v.2ZM210.7,165.9h.2c0-.1,0-.3,0-.3h0s0-.3,0-.3l-.2-.3h-.2c0-.1-.8-.3-.8-.3l.9.6.2.3v.2ZM62.2,163.8v-.5s-.1,0-.1,0h-.1c0,.1-.3.1-.3.1l.5.5v-.2ZM366.2,26.6h-.1s.1,0,.1,0h-.2v.3l-.4.6-.7.4-.9.7h.3c0,0,.3-.3.3-.3l.9-.4.3-.2.5-.7v-.4Z"/>
</svg>