<svg xmlns="http://www.w3.org/2000/svg" xmlns:amcharts="http://amcharts.com/ammap" id="Layer_1" viewBox="0 0 512 512"><g id="_x3C_defs"><amcharts:ammap bottomLatitude="4.522" leftLongitude="138.055" projection="mercator" rightLongitude="163.036" topLatitude="11.09"/></g><path id="FM" d="m506.9 303.8.7-1.1-.4-.3v-.6c.1 0 0 .4 0 .4h.3l-.3-.7-1.1.2-1.3 1.3.3.4.6.2h-.3c0-.1.8-.3.8-.3l.7.4ZM321.7 299l.3-.3-.5.3h.3Zm89.6-30.4v-.3l-.2.4.2-.2Zm1.3 2.9v.3h.3zm-2.4-2.7c0 .1.3.4.3.4h-.1l-.2.3v-.5h-.4v.9l-.6-.4v.3l-.6.3v.5h.3l-.2.3h.7v.4c.1 0-.2.2-.2.2l.4 1.1h.8c0 .1.1-.1.1-.1l.3.5v-.3c.1 0 .8.2.8.2v-.3l.7.4.6-1.1h-.1l-.4-.4v-.2h.1l.2-.2-.3-.3.5.3v.3l.4-.2-.3-1.3-.4.4-.3-.3.4-.6-.3.3-.2.5v-.8c-.1 0-.5-.2-.5-.2l-.4.4-.3-.6-.2.3.3.3v.3c-.1 0 0-.2 0-.2h-.2v-.3l-.3-.3.3-.2h-.4Zm-127.4-6.6v.6l.3-.4zm-6.3-.5.6.3.4-.6-.9.3Zm-155.4-.8-.4.2h.7zm1.2-.1-.3.2h.3zm160.5-1.5h-.8l.1.9 1.1-.7-.5-.3Zm71.2-.4v-.3c-.1 0-.3-.2-.3-.2v-.3l.3-1.6-.3-.4h-.6l-.4.4.6-.5h.3l.4.6-.4 1.3v.5l.3.3.2.4-.3.3.2-.2zm-2.5-2.2h1.1c0 .1-3.7-.8-3.7-.8l2.7.8Zm-345-41.3v-.6c-.1 0-.3.3-.3.3zm29-7.2-.5 1.1.3.6-.2-.5.4-1.1ZM4.4 218.6l.3.2.8-1.4.3.2v-.6c-.1 0 .4-.6.4-.6h-.4v-.6c.1 0-1 1.4-1 1.4zm2.8-2v-.3c-.1 0-.6.3-.6.3v-.6c-.1 0-.6.8-.6.8v.5h.5l.3-.4.2.2.3-.5Zm-.8-.3v-.4c.1 0 .3.2.3.2v-.3c.1 0 0-.5 0-.5l-.6.6.2.3Zm275.7 45.6.3.2v-.8l-.6-.3.4.8Zm-4.4-.6.4.2v-.4l-.9-.5.4.6v.9c-.1 0 .5-.3.5-.3l-.4-.6Zm5.1-.6-.3.6.8-.3-.6-.3Zm-6 .2v.3l.5-.2h-.5Zm3.2 0-.5-.4-.3.4z"/></svg>