<?xml version="1.0" encoding="UTF-8"?>
<svg id="Layer_1" xmlns="http://www.w3.org/2000/svg" xmlns:amcharts="http://amcharts.com/ammap" version="1.1" viewBox="0 0 512 512">
  <!-- Generator: Adobe Illustrator 29.1.0, SVG Export Plug-In . SVG Version: 2.1.0 Build 142)  -->
  <g id="_x3C_defs">
    <amcharts:ammap bottomLatitude="4.5224419" leftLongitude="138.0549824" projection="mercator" rightLongitude="163.0355912" topLatitude="11.0903783"/>
  </g>
  <path id="FM" d="M506.9,303.8l.7-1.1-.4-.3v-.6c.1,0,0,.4,0,.4h.3l-.3-.7-1.1.2-1.3,1.3.3.4.6.2h-.3c0-.1.8-.3.8-.3l.7.4ZM321.7,299l.3-.3-.5.3h.3ZM411.3,268.6v-.3l-.2.4.2-.2ZM412.6,271.5v.3c-.1,0,.3,0,.3,0l-.3-.3ZM410.2,268.8h0c0,.1.3.4.3.4h-.1c0,0-.2.3-.2.3v-.5h-.4c0,0,0,.9,0,.9l-.6-.4v.3c0,0-.6.3-.6.3v.5h.3l-.2.3h.7v.4c.1,0-.2.2-.2.2l.4,1.1h.8c0,.1.1-.1.1-.1l.3.5v-.3c.1,0,.8.2.8.2v-.3c0,0,.7.4.7.4l.6-1.1h-.1c0,0-.4-.4-.4-.4v-.2c0,0,.1,0,.1,0l.2-.2-.3-.3.5.3v.3c0,0,.4-.2.4-.2l-.3-1.3-.4.4-.3-.3.4-.6-.3.3-.2.5v-.8c-.1,0-.5-.2-.5-.2l-.4.4-.3-.6-.2.3.3.3v.3c-.1,0,0-.2,0-.2h-.2v-.3l-.3-.3.3-.2h-.4ZM282.8,262.2v.6c0,0,.3-.4.3-.4l-.3-.2ZM276.5,261.7l.6.3.4-.6-.9.3ZM121.1,260.9l-.4.2h.7c0,0-.3-.2-.3-.2ZM122.3,260.8l-.3.2h.3c0,.1,0-.2,0-.2ZM282.8,259.3h-.8c0,0,.1.9.1.9l1.1-.7-.5-.3ZM354,258.9v-.3c-.1,0-.3-.2-.3-.2v-.3c0,0,.3-1.6.3-1.6l-.3-.4h-.3c0,0-.3,0-.3,0l-.4.4.6-.5h.3c0,0,.4.6.4.6l-.4,1.3v.4c0,0,0,.1,0,.1l.3.3.2.4-.3.3.2-.2h0c0-.1,0-.3,0-.3ZM351.5,256.7h1.1c0,.1-3.7-.8-3.7-.8l2.7.8ZM6.5,215.4v-.6c-.1,0-.3.3-.3.3l.3.3ZM35.5,208.2l-.5,1.1.3.6-.2-.5.4-1.1ZM4.4,218.6l.3.2.8-1.4.3.2v-.6c-.1,0,.4-.6.4-.6h-.4v-.6c.1,0-1,1.4-1,1.4l-.4,1.4ZM7.2,216.6v-.3c-.1,0-.6.3-.6.3v-.6c-.1,0-.6.8-.6.8v.5h.5l.3-.4.2.2.3-.5ZM6.4,216.3v-.4c.1,0,.3.2.3.2v-.3c.1,0,0-.5,0-.5l-.6.6.2.3ZM282.1,261.9l.3.2v-.8l-.6-.3.4.8ZM277.7,261.3l.4.2v-.4l-.9-.5.4.6v.9c-.1,0,.5-.3.5-.3l-.4-.6ZM282.8,260.7l-.3.6.8-.3-.6-.3ZM276.8,260.9v.3c0,0,.5-.2.5-.2h-.5ZM280,260.9l-.5-.4-.3.4h.8Z"/>
</svg>