<svg xmlns="http://www.w3.org/2000/svg" xmlns:amcharts="http://amcharts.com/ammap" id="Layer_1" viewBox="0 0 512 512"><g id="_x3C_defs"><amcharts:ammap bottomLatitude="-52.61" leftLongitude="165.876" projection="mercator" rightLongitude="183.848" topLatitude="-34.392"/></g><g><path id="NZ-AUK" d="M262.4 65.1h.5l-.4 1.6-.8-1zm-.3-2.2.7.4-1 .6-.2 1.5-1.4-.3-1.1-1.2-.5.5v-1l.6.3.9-.5.8.5v-.5c.1 0 1.4-.3 1.4-.3Zm-5-.5.3 1.4-1.8.5v-.9h1l.5-.9Zm-1.5-8.2.7.6v1l-1.3-.6.5-1Zm5-5.4.4.3-.3 1.2-1-.3v-.9l.9-.4Zm-9.1-.6 1.7 2.4 2 .7-.8 1.1.2.7 1.6.4-2.7.5v.9l.9.5-1 1.2-.3-1.2-.5.9.6.3v1.2l-.4-.1-.2.9.8 1.1 2.1-.7v.7l-2.2.6 1.7 4.5h-.7l-.3-.8-1.3.6-.7-1.3h-.4l.2 2 .7.7 1-1.2 1.3.7.2-.4h1.1l.3.6h.5l.9 1h.6l-.2-.8 1.1-.2 1.3 1.8.7-.5.3.6.6-.5 1.8 1.8-1.5.9-1.1-.4v1l-1.7-.6-1.3 2.5-1.1-.4-.2.4 1.3 1.8-.4.7h-1.2v1.3l-1.3-.3v.7l-.9.5-1.1.3-.4.9-.9-.5-2.9-7.4 2.4-.2v2.4l.6.2.4 2.1h.5c0 .1-.6-1.9-.6-1.9v-.6c.1 0 1.4-1.1 1.4-1.1l.3.5 1.3-1.5-.8-1-1 .2-.5-.7.7-.6-.4-.7.3-.4-1.8.2-1.2.9-.2 1.2-.9-.5-1.6 1.2-1.4-5.9-5-8v-.9c.1 0 1.4-.5 1.4-.5l1.3 2.4 1.5.9-.2.9.7.6.6-.4-.5-.6.7-.7-.7-1.9.4-1.4-.7-.7-.7.5-.6-.7-1.5-.2.3-1.6 1.5.3 1.1-.9 1.4-.7.2-.7 1-.4v-.7l1.1-.4.7-1.2.3.6Zm15.1-2.3v1c.1 0 .9.3.9.3l-.3.8 1.5.8-.7 1.4 1.5 1.5-.4 1.4-1-.4.3-.7-1.1.2V51c.1 0-.6.2-.6.2l-1.8-1.4v-.6l1 .5v-1.4l-1-.3 1.3-.5-.7-1.2z"/><path id="NZ-BOP" d="m278.2 80.8 3.2 4.2-1.3-1.2-.2.6-.8-.5v-.8l.8.2-1.7-2v-.6Zm4.9 40.7 1-.5-.5-3.8-1.4.3-1.8-3.1.4-1.1 2 .6.8-.7-1.7-1.9.9-2-2-.6-.2-.6h-1.1v-1.2h.5l1.2-1.3.8 1.6 2.5-.8.4.5-.5 1 1.2.5.6-1.5 1.8.7.5-3.3-.8-.9-3.2-1.3-1.7-5.3-1-.7h-1.3l-3.1-2.6-.2-.9.7-.4-.7-.8v-.9l-.7-.3.4-1.4-2.3-5.5.5-.5-.5-1 .5-.7.5.8h.8l-.8-1 1.1-.8-.2-.6.7-.8 1 2.2h-.9c0-.1-.3.7-.3.7l.4-.3.6.7-1.1.5.7.5-.2.4.3.8.6.3v.7l1.2-.3-.3.8h1.1v.7l.8-.6.6.2-.2 1.5 1.5-.8-1.1-.8v-1.1c-.1 0 5 3.4 5 3.4l.7-.6 3.8 2.9 9.5 3.3h-1.5c0-.1 1.4.9 1.4.9l.4-.8h4.6l1.9-1 3.9-4.8-.3-.5 1.2-1.5 2.4-.5 1-1.4 1 .3.8-1 .3-.6 1.4-.2.5 1.3-2.6.7.5 1.7-.5 1.2.5.6.8-.7.7.8-2 2.1-2.1 6.6-2.7-2.1h-1.1l.6 1-.8 2.4-3.3 1.6.2 1-.7 1.8-4.5 2.3.4 2.2-1.1.3-.6 1.3-.9.2-.4.9h-1.2l-1.1 2h-1.2l-.7-.9-1.3.7-.9-.2-.5 1h-.7l-.2 3.2-2.1 2.2.4 1.5h-3.3l-.6 1.5.6 1.6-1.5.2.5.8-1.1.3-2.2-1.9Z"/><path id="NZ-CAN" d="m213.9 199.3.3 1.8 1-.2.3.7h.7l-.3 1.3.8.7-.4.9.5.5.8-.3.6 1.8 1.4.5-.8 1.3h1l.7 1.1.5-.8 1.6-.3 1.3-2.4h.5l-1.2-.6 2.3-1.8v-.4c-.1 0 3.3-1.4 3.3-1.4l.3-2.8 1.2-.5 1.1-1.8h.8c0 .1 1.5-1.2 1.5-1.2l.3-1.3 1.1 1.2.6-.7 2.7-.5.4.6h1.6c0-.1-.2.9-.2.9l-2.2 3.2v2.2l-3.4 3-1.4 2.1-.2 1.2.8.5h-2.1l-1.8 1.4-.6 1.8.4.2-4.1 8v.9c.1 0-1.4 1.9-1.4 1.9l-2 1-1.1 1.7h-.8c0-.1-4.4 2.2-4.4 2.2l-1.8 3.5-.3 3.5.3 3.6-.5.8 2.1.9-2.6.6-.5.4.2.9 3.3-1.4h.7l1 .5h.4l1.2.5 1 .3.2 1.1.6-.2.5.5-.2.5.6.7-.5 2.3-2.6 1.5-.6-.9.5-2.4-.6-.4-.6 2 .8 2.1-2.3-.3-2.4-1.7-7.8 1.1-6.1 2.8-11.1 7-3.8 4.3.2 1.9-1.8 4.2.2 6.4-.5 3-5.6-1.2-5.2-2.3-1.2 2.2-2 1.4-1 .2-.5-1.2h-.6l-2 .8-2.5.2-.5-1.5-1.5-1.8-1-4.8-1-.2-1.1.7-1.5-.7-.6-2.3-.3 1.1-1.5-.2.2-3.5h-1.4l-.7-.6.3-.3.2-1 .2-3.9-.8-1.2 1.3-1.4.2-1h.5l.8-2.2h.6l-.3-2.1 3.1-3.6h.7v-.6l1.5-.6v-1.2l1.2-.6V242l1.1-.6v-1.8l1-.2 1.7-2 1.9-.9.5.7 1-.4 2.5-2.3 1.6.6.9-1.2-.3-.5 1.4-.7-.3-.6 2.4-.5 2.1-2.6.4.6h.8c0-.1 1.4-1.7 1.4-1.7l-.3-.5.8-1.2.5.3.2-.7 2.2-.5.2-1.7 1.5-1v-.4c-.1 0 1.1-.3 1.1-.3l.8.4.7-1.2 1-.4.5.4 3-.7.9.4.7-.7-.4-.3.7-.6v-1.3l2.5-1.1.7-2.2 1.1-.4v-.4c-.1 0 2.4-.5 2.4-.5l.4-1.5 1.1-.6 1.1-2.2 1-.2 1.2-1.5 2-.6.6-2.6 2.6-1.7V201c.1 0 .7-.5.7-.5l-.2-.8h1.6Z"/><path id="NZ-CIT" d="m432 256.6 1.4 1.4-1.8 2.3-.5-1.9.6-.6-.7-.7 1.1-.5Zm-8-14.6 3.7 1.5 1.8-.4.9.4 1-.6 1.1.3h-.7c0 .1-.3 1-.3 1l-.9-.3-1.1.8-1.7 2.9-.2-1.7 1.3-1-1.3-.8-1.4-.2-1-.6.3 1.4 1.9.4-1.6 1.3 1 1.7-.2 1 .9.4.3-1.2.6 2.5 1.3.5v.5l-3 .7-2 1.6-1.1-.2-1-3.1 3-2-1.2-3.1-1.4-.7-1 .9-1.6-.3.2.4-.7.3h-1.3c0-.1-.3-.6-.3-.6l.5-.9h1.1v-1.2l1.3.6 1.8-.5.7-1.5Z"/><path id="NZ-GIS" d="m321.3 82.3 2.9.6-.5.6.9 1 2.7.5 1.4 1.3-2.8 4.3-.3 2.4-1.1 1.2.7 2-1.1 1.2.8.9-.9 1.4.5.6.2 3.9-1.3 1.4.2 1.4-2.9 3.1-1.3.7-.2.8-1.1-1-1.4 1v1c-.1 0 .6.2.6.2l-1.2 1.8-.3 3.6-1.1-.3v-.8l-.8-.7-.5.5-.5-.5-.4.6-.2-.5H311c0 .1.2-1.3.2-1.3l-.4.4-.9-.3-.2-1.2-1 .3-1.5-1.6v-1.1l-1.1-.2.8-1.5-2.8-.9v1.5l-3.6-1.8.9-.2.6-1.3 1.1-.3-.4-2.2 4.5-2.3.7-1.8-.2-1 3.3-1.6.8-2.4-.6-1.1h1.1l2.7 2.2 2.1-6.6 2-2.1-.7-.8-.8.7-.5-.6.5-1.2-.5-1.7 2.6-.7-.5-1.3 1.7.2.2-.5Z"/><path id="NZ-HKB" d="m290.8 155.5-3.6-.6-1-.7-.4-.6.8-.6-1-3.6.4-.9-1.3-1.2.3-.8-1.2-.5-.5-.9-1.7-.5-.4.4-.8-.9.6-1.1-.3-.9 1.2-5.1.7-1.1-.8-.7.3-1-.8-.7.9-.2 1.3-1.5 1.5-.3-.4-1.8.6-1.5-1.4-.8.9-1.2-.2-1-1.7-.6-.6-2.3 1-1.2 2.1 1.9 1.1-.3-.5-.8 1.5-.2-.6-1.6.6-1.5h3.3l-.4-1.5 2.1-2.2.2-3.2h.7l.5-1 .9.2 1.3-.7.7.8h1.2l1.1-1.9h1.3l.4-.9 3.6 1.8v-1.5l2.8.9-.8 1.5 1.2.2v1.1l1.4 1.6 1-.3.2 1.2.9.3.4-.4-.2 1.4h1.3c0-.1.2.4.2.4l.4-.6.5.5.5-.5.9.7v.8l1 .3v2.5l2.1.9-1.5 1.5-1.2 2.5-.9-2.7 1-1.9-.6-.6-.4.5-3.1-.7-5 .3-4.2 1.5-3.1 1.9-.4 1.6-2.1 2.1-.8 2.6.3.7.7-.2v2l.9 1.9 1.2.6h1.3c0-.1-1.6 2.1-1.6 2.1l-.2 2.8-2.3 4.7-.3 2.7-1.7 2.4-2.2 1.1-1.1 4.1Z"/><path id="NZ-MBH" d="m246.5 172.6-.3 3-.5-.3-1.8 1.2-.5-.4-1.3.5 2.5-2 1 .2v-.8l-1.1-.1 1.9-1.4Zm-7.6-4.6h.6l-.2.7-.3.3-.5-.9-.3 1.4-1.1.3h.6c0 .1-.2.5-.2.5l-2 .6.2-.8-1.1.8.7.3-.8.5.3 1.5.9-1.5 2.4.2-1.6.4.3 1.1-.7-.2-.2.8-1.2.2.2.5h.8l.6-.2v.6c.1 0-.2 1.3-.2 1.3l-1.1-.2.2.5-.9.2.2.5.7-.5 2.3-1.1.8-.2 1-.8 1.1.2 1-.6-1.4.2v-.5c-.1 0-3.5 1.3-3.5 1.3l.5-1.1-.6-.7 1-.4h-.4l.6-.3v-.8l.9-.2-.5 1 .3.9.6-1.3h1c0 .1-.5-.9-.5-.9l.6-1.2-2.3.5.4-.2-.3-.3h1l-.5-.7h.6l.4-.7.2 1.3.9-.5.8 1.5-.2-1.5.9.6.4-.9.4.7h.3v.8h-.6l1 .8.4-.8h1.1c0-.1-1.3 1.4-1.3 1.4l.2.8-.4-.3-.8.7v-1.3c-.1 0-.4.7-.4.7l-.3-.2.3 1.1h.8v.9l-.7.5-.3.3-.6-.6-1 1v-.6c-.1 0-1.5.3-1.5.3l-.5.9h1.3l2.2-.6-.2.7.8-.2.4-.2h1.5l.7-.8-.5 1.4-1.2.6.2.7-.7-.2-.2.7-1.2.4 1.1-1.6h-.6c0-.1-.2-.2-.2-.2l-.6.4-1.7 3.7v1l1.2 1.3-.6.6 1.8.2.6 4 1.9.5-2.3 3.8-2.2 2.5.2-1h-1.6c0 .1-.4-.5-.4-.5l-2.7.5-.6.7-1.1-1.2-.3 1.3-1.4 1.3h-.8c0-.1-1.1 1.6-1.1 1.6l-1.2.5-.3 2.8-3.4 1.4v.4c.1 0-2.2 1.8-2.2 1.8l1.2.6h-.5l-1.2 2.4-1.6.3-.5.8-.7-1.2h-1l.8-1.3-1.4-.5-.6-1.8-.8.3-.5-.5.4-.9-.8-.7.3-1.3h-.7l-.3-.8-1 .2-.3-1.8.3-1.7 1-.5-.2-.5 1.7-2-.4-.9 2-2.8-.4-.9 1.6-.6 1.1-1.6v-1l1.7-.9.5-1.8h2.6c0-.1-1.1-1.5-1.1-1.5l.9-.9-.2-.8 2.6-2.1v-.8l1.2-1.8 1.8-.9.5-3.4.6.5h.5l2-.9-.3-.3-1.1.6-.4-.5 1.5-.8.3-.8.4-.2h.5l.5-1.1.4.2-.4 1.4h.5c0 .1 1.1-1 1.1-1l-.2-.4 1.4-1 .3.5Zm-.7-3.8-1.1 2.5-2.6 2.1.4-1.3-.5.2.2-1.7.2.6.3-.2-.2-1 .5-1.5.9-.7v2.1l.4-.7.6.2v-.4h-.8l1.3-1 .2.9Z"/><path id="NZ-MWT" d="M290.8 155.5v1.6l-1.1.1-1.6 1.1-4.2 6.3v-.8c.1 0-.7-1.1-.7-1.1l-1.6-.8h-1.2l-.1 1-1.4-.3-1.6 1.6-.5-.4-2.1.7-.8-.2.5-1.2-.5-.7h-1.5l-.1.8-1.2.6-3-1.5-.6 1.3-1.3-.5-.5.8-1.6.4-1.5-.3.3-.7-1.4-.6 1.6-5.9.2-4.5-.6-3.5-3.3-5.1-2.6-2.2-2.3-.6-.3-.2.9-1.2 2.5-1.5v-1.5l1.3-.5-.5-1.8.6-1.4-.8-1.6-1.4-1.1-.4-1.1.5-.7-1.5-1.2 1-2h1.1l.5-1.7.9-.2-.3-.4.9-.9h1.1c0 .1-.5-.9-.5-.9h-1.7l-.2-1.8-.6.4-1-.7.2-2-.4-.4-.6.5-.5-.8-.3-1.5 1.5-1.1 1.6-.6.2-2.1 3.2-1.1 2.4.2.9-1 .5.2.3-1.2.2.9 1.6-.8 1.6.2.8.9 1.9-.9-2.3 4.9 1.2 1.6-.7 1.1.8 1.2-.4 1.8h2.4c0-.1-1.4 1.7-1.4 1.7l.8 1.4-1.9 4.3 4.9.7 1.2-.9-.3-.4.8-.6-.2-.5 1.6-.6.2-.7 4.1-.3.6 2.3 1.7.6.2 1-.9 1.2 1.4.8-.6 1.5.4 1.8-1.5.3-1.3 1.5-.9.2.8.7-.3 1 .8.7-.7 1.1-1.2 5.1.3.9-.6 1.1.8.9.4-.4 1.7.5.5.9 1.2.5-.3.8 1.3 1.2-.4.9 1 3.6-.8.6.4.6 1 .7 3.6.6Z"/><path id="NZ-NSN" d="m225.6 176.2.4.7-1 .7.3 1-1.5.9-.5-.5v-.8l2.2-1.3.2-.7Z"/><path id="NZ-NTL" d="m219.5 6 .8.5-.9.3v1.9l-.8.3v-.7h-.9v.6h-.9l.4.3h1l-.2.6h.6l.3 1.1.2-.7-.6-.9h.6c0-.1 1 3.3 1 3.3l2.7 3.1-.4.5.8 1.1 1.7.5-.8 1.1v1.4h1.4c0 .1-.3-.7-.3-.7l.9-.3-1-2.2 2-.6h.5l.7-.3.4.6-2 1.1.9 1.9 2 .4.8-1.9 1.7 1.3.9-.5 1.2 1.6-.9.9.3.5h.5v-.9h.6l-.3-.7 1.1-.5.9.8.7-.2 1.4 2.7 2.1-.2 1 1.1-1.2.9-1.2-1.3-.5.4.6.8-.8.4h1.9l.2 1.6 1.2 1.1h1.5c0 .1-.6-.5-.6-.5l-.9-.4-.6-1.1 1.8 1v-.7l.9-.8.6.2.2-1 .8-.4-.8 1.5.6.5-.5.4 1.1 1.5.6.6-.2.5-.8-1.1-.2.5 1 1.3-.2.6 1.4-.2v.6l1 1.4-.5.2.3.9 1.2.6v1.5l-.5-.3-.2 1 .4 1h.9l-.4 1.8.9 1.6h-1.3l-.9-2h-2.3l-.2-.6-.4 1.6.8-.6.2.7 2.5.5-.6.8-.2 2 .8 1.9.7.5h.9c0-.1.7 1.8.7 1.8l-.7 1.2-1 .4v.7l-1.1.4-.2.7-1.4.7-.5-.3-.7 1-1.4-.7.7-1 .3-.2 1.1-.8h-.3l-1 .5v-.5l-1-.5-.6-.3.3-1.2-1.1.2v.9l.2.5.5.4.7-.3.6 1.1-1.3.6-2.1-2.3h-1.2l-1.5-1.2 2.2 3 1.2.8.5 1.4-.7 1.3h-1.9c0 .1-.9-2.8-.9-2.8l-1.9-3.3-10.7-14.4 1.2-3.1 1.9-.3 1.4-1.5-.9-.3-.3 1.2-2.2.3-1.2 3-5.9-7.9.2-.7 1.3.3.7-1-.5-3.6-5.8-8.6-3.8-3.6.5-1.3 2.6.8.9-.9 2.2.3.8-.8Z"/><path id="NZ-OTA" d="m333.7 413.4-.2 1.6h-.6c0 .1-.6-.8-.6-.8zM127.4 264.1l2.6-.2.7-.7 1.5-.3 2-1.7 1.1.7 1.8-2.2.2-2.6.5-.6 1.9-.5.2-1.6.8-.3v-.4c-.1 0 2.4-1.1 2.4-1.1l.3.8h1.9l1.2-1.3.4 1.2.8.5 1.6-1.7 2.4-.7.2-2.1 2.2.2.3 2h-.6l-.8 2.2h-.5l-.2 1-1.3 1.4.8 1.2-.2 3.9-.2 1-.3.3.7.5h1.4l-.2 3.6 1.5.2.3-1.1.6 2.3 1.5.7 1.1-.7 1 .2 1 4.8 1.5 1.8.5 1.5 2.5-.2 2-.9h.6l.5 1.3 1-.2 2-1.4 1.2-2.2 5.2 2.3 5.6 1.2-1.2 2.2-2.1 2.1v.9l-1.1.9-1.2 2.4-.7 2.3v.8c.1 0 .9.5.9.5l-1.2 1.9.4 1-1.5 1.7-.6 1.7-1.1.6-.3 1.6-1.6 1.5v.6l1.4-.2 1.4 1.1-1.6.5v.7l.8.4 1.6-.9v1.2l-.1.8-1.2.5-.5.3-1.1-.2-.5.2-1.8.2-3.9 1.4-1.9 2.7-.6 2.8-5.5 4.6-1.9.9-.3 1.5.4 1.4-.5.7-.5.4-.6.2-.5.8-1.7.6-.5 1.1-.6-.6h-1.5l-.6 1.3-1.4.2-.5.9-1.4-.5-1.8.9.6-1.8-.5-.8h.6c0-.1.6-1.2.6-1.2l-1.8-1.4.8-1.8-1.3-.9 1.1-1.3.3-3.7-1.5-1.5.8-1-.6-.9.4-.5-1.7-1.9.6-3.3-.8-1-1 .4.5-1.1-.7-2.5.6-2.3 1.5-2 .8-3.6 1.4-1-2.8-4.1-1.1.9-2.5 4.5-.7-.8-.4.5-1-.2v-2l-1.8-.8-.3-2.7-2.6 1.9-4.3.5-.4-2.9-1.7-2.2 1-1.8h.5l.4-1.6-.2-.4-1.1.4-2.2-2.5.2-.7-.6-1.2.3-1.2h.9l.7-2.1-.8-1 1.4-3.8v-1c-.1 0 1-1.2 1-1.2h1Z"/><path id="NZ-STL" d="M144.2 501.5h.5v2.4l.7.2-.6.4v.4c.1 0-.6.9-.6.9h-.4l-.7-.2-.3.4-1-1.4h-.9c0 .1-.5-.7-.5-.7l.5-.4 1.2.6 1.1-2.1-.4-.3 1.3-.3Zm-64.7-51.7 1.1.7h1.5l.4-.5 2.6 1.1-2.7 1.5-.9-.7h-1.4v-.8l-.7.2-.4-1 .5-.4Zm5.1-10.2.4.5.7-.2.6.3.4.3-.6.4.5 1h-1.5l.5 1.1-.4.3v.9l-.5.6.2.5v.5h-1.3l.6.5-.5.3 1 .2.5 1v.6c.1 0 .4 1 .4 1v.8l-1.4.4-1.8-1.7h-.2l-.2-1.4-.8-.6-.2.8h-.3l-.2.5.6.7-.4.3.5 1.1-1.6-.3-.3-.9-.7.9v-2.2l2.9-1.7 1.1-1.3-.3-.9.6-2-.8-.5.6-.3-.5-.5-.7.2 1.9-1h1Zm33.4-114 2.1 1.1.6 2.1 1.7 1.1-.2.7 1.2.2.4 1-.5.5-1.5-.5-.4.7-.8-.7-.8.4.2.6.7-.2.2.8 2.1.2-1.1.8 1 .2.4-.7.5-.4v-.5l.5-.5-.3 1.6 1 1.2-1.3 1.3v.5l-.8 1.3-1-.6-.6.7h-1.9l-1 1.2-1.5.6-1.2-.6-.7.3-.5-.9-.6.5v.8c.1 0-.3.8-.3.8l-.2 1.2-.6.2v-.7c.1 0-1.4 1.3-1.4 1.3l-1-.6-.7.2.3-1.8 2.1-1.4v-.5l.3-1-.6-.7 1.2-1.4h1.8l-.9-2.8.3-.2v.7l.9-.1.8-1.3-.3-1.9-1-1.5.3-2.3 1.4-.8.9.5.7-.6Zm-26.3-26.8.5.3-.9.6-.7-.2v-.5c.1 0 1.2-.2 1.2-.2Zm2.8-4.1.7.8.2 2.1-.7 1.4-1.9.2v-.9l-.9-.3.8-.4-.5-.8L90 299l1.9-3.5 2.7-.7Zm5.6-12.5-.3 1.5 1.1 2.6-.5.2-2.2-1.7 1.9-2.5Zm22.3-24.2 1.1.3 1.7-.8 2.2.7v1.1l1.4 1.2-1.3 1.1.5.5-.6 2.1h-1l-1.1 1.3v1c.1 0-1.3 3.8-1.3 3.8l.8 1-.7 2.1h-.9l-.3 1.2.6 1.2-.2.7 2.2 2.5 1.1-.4.2.4-.4 1.6h-.5l-1 1.8 1.7 2.2.4 2.9 4.3-.5 2.6-1.9.3 2.7 1.7.8v2l1.1.2.4-.5.7.8 2.5-4.5 1.1-.9 2.8 4.1-1.4 1-.8 3.6-1.5 2-.6 2.3.7 2.5-.5 1.2 1-.4.8 1-.6 3.3 1.7 1.9-.4.5.6.9-.8 1 1.5 1.5-.3 3.7-1.1 1.3 1.3.9-.8 1.8 1.8 1.4-.6 1.1h-.6c0 .1.5.9.5.9l-.6 1.8-1.1-.2.6-.7-.8-.6-.4 1.7-.7.2-4.4-.3-.3-1.5-.8-.8-1.5-.4-2.4.5v-.5h.9l-.9-.5-.9.2.7.7-1.3.6h-3c0-.1.2-.9.2-.9l-.5-1.1-1 .4 1.2 1.8-.6.4-1.2-2h-.7c0-.1-.1-1.1-.1-1.1l3-.9-.6-.4-.3-.6-.9.3.5 1-.6.2-1.4-2.9-1.5-1.5h-1.5c0-.1-.6.5-.6.5l.3.6-2.5-.8-.7.4h-1l-.9.6-1-.7v-2l-.3-1-2-1.9-2.2-1.1h-2l-1 1.1-.2 1.6-2.5.3-6.8-1.5-1.8.7-.3-.5h-1.9c0-.1-1.2-1.7-1.2-1.7l2.1-1.2.2-1.2-.5-.5-1 .8-.6-.7-.9.9 1-3 3-.5v-.6h-2.5l-1 .6-2.5 1.2-.5-.4-.4-2.7.5-2.5 7.7-1.5 1.8-1-2.2-.6-1.8.6.5-1.7 3.7-1 .6-.7-4.6 1.7v-2l2.7-1.2h.2l1.7-1.5-4.6 2.2h-1.3c0-.1 1.6-5 1.6-5l1-.2-.6-.4.4-1.5 1-1.4 2.1 1.2h.4l1.2 1 .8.3.9 2.4h.4c0-.1-1-2.5-1-2.5l-1.5-1.2.5-.7h2.2v-.8l-2.7.4-.7-1.7.4-1.5-.4-.7.8-1 1.8 2.3v-.2l-1.5-2 1-1.5.6.5-.3-1.2.9-.6v-.5l3.8-3.9 1 1.8-.2.9.7.5-.4 1 .6-.7.6.3-1.1-1.3.4-.2-1-2.9 1.8-1.4h.8l.1-.6.7-.6.6-.3v-.9c.1 0 1.1-.7 1.1-.7l.4-.5 2.1-1 .2-.7.6-.2.8.9-.2-3 2.3-2.9 1.7-.5-.5-1.2h1.9l.5-1-.4-.4Z"/><path id="NZ-TAS" d="m231.2 171.9-.5 3.4-1.8.9-1.3 1.8v.8l-2.6 2.1.2.8-.9.9 1.1 1.3h-2.6c0 .1-.5 1.9-.5 1.9l-1.7.9v1l-1.1 1.6-1.6.6.4.9-2 2.8.4.9-1.7 2 .2.5-1 .5-.3 1.7h-1.7l.2.8-.6.5v1.4c-.1 0-2.7 1.7-2.7 1.7l-.9.9-1.4-.6-.5-3.5h-1.7l-.9-1.4h-1.3l-.7-1.3.4-.9-.9-.3-.7-1.5.6-.8-.3-.6.9-.6v-2.2l-.4-.4.4-1.2 2-1 .7.5-.3-1.6 1.8-.8.2-2.4 1.6-1.2v-1.6l.8-.5 1 .5 1.5-1 .3-2.1-.6-.9 1.8-.5.7-1H212c0-.1-.3-1.1-.3-1.1l-2.6-2.8.2-.8h-2.2L206 172l-.3-1.3 1.5-1.7-1.7-.5-.9-1.8-.6.4.2-1.7-.6-.9 6.2-5-.4 1.2 2.4-1.2v-.8c-.1 0-1.6.8-1.6.8l1.7-1.9 3.2-.2 3.9.9.4.3-5.2-.9-1.5 1.8v1.6l-.5.2 1.6 3 2.4 1.8 1.3-1.1.5.6v-.9c.1 0 1-.2 1-.2l.5 1.9h.7l-.3 2.4.5.4-.9 1.5-.4 1.2.7.9-.6 1.2 1.6 1.7.5 1.1-.7.3.3.6h1.3l1 1.1.5.5 1.5-.9-.3-1 1-.7-.4-.7v-.6l1.6-1.2.6.5 1-.5.6-1.3 1.6-1.4.2.2Z"/><path id="NZ-TKI" d="m251.1 111.6.9.7h2.9l1.2 1-1.5 1.1.3 1.5.5.8.6-.5.4.4-.2 2 1 .7.6-.4.2 1.7h1.7l.5 1.1h-1.1c0-.1-.9.8-.9.8l.3.4-.9.2-.5 1.7H256l-1 2.1 1.5 1.2-.5.7.4 1.1 1.4 1.1.8 1.7-.6 1.3.5 1.8-1.3.5v1.5l-2.5 1.5-.9 1.2.3.2-1.2.2-3.1-1.3-2.8-2.2-1.6-2.1-2.4-1.4-2.8-.4-3.3-1.5-2.4-2.7-.8-3.3.8-2.2 4.7-3.5h1.2c0-.1 2.2-1.7 2.2-1.7h3.2c0 .1 1.5-.6 1.5-.6l2.4-2.8 1-3.8Z"/><path id="NZ-WKO" d="M266 56h.9l.6.8.3.6.6-.4.9.8-.4 1.3 1.3.7v1.1h-.5v.6l1-.1.4.9-.4.9 3.4-1.6.8.6v.6l-1.3.5v.8c-.1 0-1.1.4-1.1.4L272 66l.4.3.6-1.2.9-.3 1.1.8.9 3.7.4 1.6v3.3l-.6-.7v.6l1.5 4.5-.7.8.2.6-1.1.8.8.9h-.8l-.5-.7-.5.7.5 1-.5.5 2.3 5.5-.4 1.4.7.3v1l.7.8-.7.4.2.9 3.1 2.6h1.3l1 .7 1.7 5.3 3.2 1.3.8.9-.5 3.3-1.8-.7-.6 1.5-1.2-.5.5-1-.4-.5-2.5.8-.8-1.6-1.2 1.4h-.5v1.3h1.1c0-.1.2.5.2.5l2 .6-.9 2 1.7 1.9-.8.7-2-.6-.4 1.1 1.8 3.1 1.4-.3.5 3.8-1 .5-1 1.2-4.1.3-.2.7-1.6.6.2.5-.8.6.3.4-1.2.9-4.9-.7 1.9-4.3-.8-1.4 1.4-1.8h-2.4c0 .1.4-1.7.4-1.7l-.8-1.2.7-1.1-1.2-1.6 2.3-4.9-1.9.9-.8-.9-1.6-.2-1.6.8-.2-.9-.3 1.2-.5-.2-.9 1-2.4-.2-3.2 1.1-.2 2.1-1.6.6-1.2-1.1H252l-.9-.7.3-8.1 1.6-2v-2.6l-.7-2.2 1.1.3.8-.9-.2.8.6.4.4.3.7-.4h-.7l.2-.5 1.7-.8-.6-.7-.8.3V95c-.1 0-1.3 1-1.3 1l.3-1.6.5-.3.5.4.8-1.6h-1.2c0-.1.1.8.1.8l-.7.4-.8-3.6.4-.8 1.3-.7h2.1c0 .1.4-.4.4-.4h-1.3l-.7-.3-.5.6L254 83l-1.3-3.1v-1.6l.8.3 1.3-1.6.8-.5v-.7l1.4.3v-1.4l1.3.1.4-.7-1.3-1.8.2-.4 1.1.4 1.3-2.5 1.7.6v-.9l1.1.4 1.5-.9.3 3.3.7 1.5 1.3.3 2.7-1-.8-4.8-1.8-3 .6-.2v-.9c.1 0 1.4-.5 1.4-.5l-1.5-1.8v-2.6c.1 0-2-2.2-2-2.2v-1l.8-.3Z"/><path id="NZ-WGN" d="m257.7 165.7-.2.8-1.3.9 1-1.7zm3.7-3 1.4.6-.3.7 1.5.3 1.6-.4.5-.8 1.3.5.6-1.3 3 1.5 1.2-.6v-.8h1.6l.5.7-.5 1.2.8.2 2.1-.7.5.4 1.6-1.6 1.4.3v-1h1.3l1.6.8.8 1.1v.8h-.1l-.8 3.2-1.7 1.5-1.5 4.2-1.4 1.5-.7 1.7-1.6.8-1.4 2.2-2.7 1.4-4.8 4.2h-1.3l-1.5 1.1-1.1-.2-.8-2.1.5-2.5-1.4-.9v-.8l-2 .1-2.4 1.7-1-.8-.4-1.3 1.3-2.6-.5-.7-.6-.2-1.4 1.1.3 1.3.7-.5-.3 1.3-.4-.5-1.7.9-1.1-.6-.9-1.5.6-1.3 1.4-.5 1.8-2.8.9-.6v-1l1.8-1.3.9-3.1 1.5-1.5 1.4-3.2Z"/><path id="NZ-WTC" d="m203.8 164.5.6.9-.2 1.7.6-.4.9 1.8 1.7.5-1.5 1.7.3 1.3 1.1-1.1h2.2l-.2.8 2.6 2.8.3 1h1.2c0 .1-.7 1.1-.7 1.1l-1.8.5.6.9-.3 2.1-1.5 1-1-.5-.9.5v1.6l-1.5 1.2-.2 2.4-1.8.8.3 1.6-.7-.5-2 1-.4 1.2.4.4v2.2l-1 .6.3.6-.6.8.7 1.5.9.3-.4.9.7 1.3h1.3l.9 1.4h1.7l.5 3.5 1.4.6.9-.9-.6 2.6-2 .6-1.2 1.5-1 .2-1.1 2.2-1.1.6-.4 1.5-2.5.5v.4c.1 0-1 .4-1 .4l-.7 2.2-2.5 1.1v1.3l-.6.6.4.3-.7.7-.9-.4-3 .7-.5-.4-1 .4-.7 1.2-.8-.4-1.2.3v.4c.1 0-1.4 1-1.4 1l-.2 1.7-2.2.5-.2.7-.5-.3-.8 1.2.3.5-1.4 1.6h-.8c0 .1-.4-.5-.4-.5l-2.1 2.6-2.4.5.3.7-1.4.7.3.5-.9 1.2-1.6-.6-2.5 2.3-.9.4-.5-.7-1.9.9-1.7 2-1 .2v1.8l-1.1.6v1.1l-1.1.6v1.2l-1.5.6v.6h-.7l-3.1 3.6-2.2-.2-.2 2.1-2.4.7-1.6 1.7-.8-.5-.4-1.2-1.2 1.3H144l-.3-.9-2.5 1.1v.4c.1 0-.7.3-.7.3l-.2 1.6-1.9.5-.5.6-.2 2.6-1.8 2.2-1.1-.7-2 1.7-1.5.3-.7.7-2.6.2.6-2.1-.5-.4 1.3-1.1-1.4-1.2v-1.1l-2.2-.7-1.7.8-1.1-.3-.9-.5 4-2.9 2.2-4h2.9c0-.1 2.2-1.4 2.2-1.4l.4 1h1.2l2.6-1.1 6.2-5.6 3.8-2.2.6-.8 2.5-.4 1-1.1.7.4 2-1.4 2.1-3.5 3.7-1.7 1.4-2 2.5-2 1.7-2.8h2.5v-.5h-.5l.9-1.2 3.2-1 5.9-4.9 5.3-7.3 1.6-4.5 1.7-3 .6-4.2 2.6-6.6v-2.9c-.1 0 5-.8 5-.8l3.1-3 2.1-4.3 1.6-1.6.8-5.7-.2-7 2.3-3.3Z"/></g></svg>