<?xml version="1.0" encoding="UTF-8"?>
<svg id="Layer_1" xmlns="http://www.w3.org/2000/svg" xmlns:amcharts="http://amcharts.com/ammap" version="1.1" viewBox="0 0 512 512">
  <!-- Generator: Adobe Illustrator 29.1.0, SVG Export Plug-In . SVG Version: 2.1.0 Build 142)  -->
  <g id="_x3C_defs">
    <amcharts:ammap bottomLatitude="-52.609857" leftLongitude="165.876210" projection="mercator" rightLongitude="183.847768" topLatitude="-34.392108"/>
  </g>
  <g>
    <path id="NZ-AUK" d="M262.4,65.1h.5s-.4,1.6-.4,1.6l-.8-1,.7-.6ZM262.1,62.9l.7.4-1,.6-.2,1.5-1.4-.3-1.1-1.2-.5.5v-1s.6.3.6.3l.9-.5.8.5v-.5c.1,0,1.4-.3,1.4-.3ZM257.1,62.4l.3,1.4-1.8.5v-.9s1,0,1,0l.5-.9ZM255.6,54.2l.7.6v1c0,0-1.3-.6-1.3-.6l.5-1ZM260.6,48.8l.4.3-.3,1.2-1-.3v-.9s.9-.4.9-.4ZM251.5,48.2l1.7,2.4,2,.7-.8,1.1.2.7,1.6.4-2.7.5v.9s.9.5.9.5l-1,1.2-.3-1.2-.5.9.6.3v1.2c0,0-.4-.1-.4-.1l-.2.9.8,1.1,2.1-.7v.7c0,0-2.2.6-2.2.6l1.7,4.5h-.7c0,0-.3-.8-.3-.8l-1.3.6-.7-1.3h-.4c0,0,.2,2,.2,2l.7.7,1-1.2,1.3.7.2-.4h1.1s.3.6.3.6h.5c0,0,.9,1,.9,1h.6c0,0-.2-.8-.2-.8l1.1-.2,1.3,1.8.7-.5.3.6.6-.5,1.8,1.8h0l-1.5.9-1.1-.4v1s-1.7-.6-1.7-.6l-1.3,2.5-1.1-.4-.2.4,1.3,1.8-.4.7h-1.2c0-.1,0,1.3,0,1.3l-1.3-.3v.7s-.9.5-.9.5h0l-1.1.3-.4.9-.9-.5-2.9-7.4,2.4-.2v2.4c0,0,.6.2.6.2l.4,2.1h.5c0,.1-.6-1.9-.6-1.9v-.6c.1,0,1.4-1.1,1.4-1.1l.3.5,1.3-1.5-.8-1-1,.2-.5-.7.7-.6-.4-.7.3-.4-1.8.2-1.2.9-.2,1.2-.9-.5-1.6,1.2-1.4-5.9-5-8v-.9c.1,0,1.4-.5,1.4-.5l1.3,2.4,1.5.9-.2.9.7.6.6-.4-.5-.6.7-.7-.7-1.9.4-1.4-.7-.7-.7.5-.6-.7-1.5-.2.3-1.6,1.5.3,1.1-.9h0l1.4-.7h0l.2-.7h0l1-.4v-.7c0,0,1.1-.4,1.1-.4l.7-1.2h0l.3.6ZM266.6,45.9v1c.1,0,.9.3.9.3l-.3.8,1.5.8-.7,1.4,1.5,1.5-.4,1.4-1-.4.3-.7-1.1.2v-1.2c.1,0-.6.2-.6.2l-1.8-1.4v-.6s1,.5,1,.5v-1.4c0,0-1-.3-1-.3l1.3-.5-.7-1.2,1.1-.4Z"/>
    <path id="NZ-BOP" d="M278.2,80.8l3.2,4.2-1.3-1.2-.2.6-.8-.5v-.8s.8.2.8.2l-1.7-2v-.6ZM283.1,121.5l1-.5-.5-3.8-1.4.3-1.8-3.1.4-1.1,2,.6.8-.7-1.7-1.9.9-2-2-.6-.2-.6h-1.1c0,.1,0-1.2,0-1.2h.5c0,0,1.2-1.3,1.2-1.3l.8,1.6,2.5-.8.4.5-.5,1,1.2.5.6-1.5,1.8.7.5-3.3-.8-.9-3.2-1.3-1.7-5.3-1-.7h-1.3s-3.1-2.6-3.1-2.6l-.2-.9.7-.4-.7-.8v-.9s-.7-.3-.7-.3l.4-1.4-2.3-5.5.5-.5-.5-1,.5-.7.5.8h.8s-.8-1-.8-1l1.1-.8-.2-.6.7-.8h0l1,2.2h-.9c0-.1-.3.7-.3.7l.4-.3.6.7-1.1.5.7.5-.2.4.3.8.6.3v.7s1.2-.3,1.2-.3l-.3.8h1.1c0,.1,0,.7,0,.7l.8-.6.6.2-.2,1.5,1.5-.8-1.1-.8v-1.1c-.1,0,5,3.4,5,3.4l.7-.6,3.8,2.9,9.5,3.3h-1.5c0-.1,1.4.9,1.4.9l.4-.8h4.6c0,0,1.9-1,1.9-1l3.9-4.8-.3-.5,1.2-1.5,2.4-.5,1-1.4,1,.3.8-1,.3-.6,1.4-.2h0l.5,1.3-2.6.7.5,1.7-.5,1.2.5.6.8-.7.7.8-2,2.1-2.1,6.6-2.7-2.1h-1.1c0,0,.6,1,.6,1l-.8,2.4-3.3,1.6.2,1-.7,1.8-4.5,2.3.4,2.2-1.1.3-.6,1.3-.9.2h0l-.4.9h-1.2c0,0-1.1,2-1.1,2h-1.2c0,0-.7-.9-.7-.9l-1.3.7-.9-.2-.5,1h-.7s-.2,3.2-.2,3.2l-2.1,2.2.4,1.5h-3.3s-.6,1.5-.6,1.5l.6,1.6-1.5.2.5.8-1.1.3-2.2-1.9Z"/>
    <path id="NZ-CAN" d="M213.9,199.3l.3,1.8,1-.2.3.7h.7s-.3,1.3-.3,1.3l.8.7-.4.9.5.5.8-.3.6,1.8,1.4.5-.8,1.3h1c0,0,.7,1.1.7,1.1l.5-.8,1.6-.3,1.3-2.4h.5s-1.2-.6-1.2-.6l2.3-1.8v-.4c-.1,0,3.3-1.4,3.3-1.4l.3-2.8,1.2-.5,1.1-1.8h.8c0,.1,1.5-1.2,1.5-1.2l.3-1.3,1.1,1.2.6-.7,2.7-.5.4.6h1.6c0-.1-.2.9-.2.9h0l-2.2,3.2v2.2c0,0-3.4,3-3.4,3l-1.4,2.1-.2,1.2.8.5h-2.1c0,0-1.8,1.4-1.8,1.4l-.6,1.8.4.2-4.1,8v.9c.1,0-1.4,1.9-1.4,1.9l-2,1-1.1,1.7h-.8c0-.1-4.4,2.2-4.4,2.2l-1.8,3.5-.3,3.5.3,3.6-.5.8,2.1.9-2.6.6-.5.4.2.9,3.3-1.4h.7s1,.5,1,.5h.4s1.2.5,1.2.5l1,.3.2,1.1.6-.2.5.5-.2.5.6.7-.5,2.3-2.6,1.5-.6-.9.5-2.4-.6-.4-.6,2,.8,2.1-2.3-.3-2.4-1.7-7.8,1.1-6.1,2.8-11.1,7-3.8,4.3.2,1.9-1.8,4.2.2,6.4-.5,3h0l-5.6-1.2-5.2-2.3-1.2,2.2-2,1.4-1,.2-.5-1.2h-.6c0,0-2,.8-2,.8l-2.5.2-.5-1.5-1.5-1.8-1-4.8-1-.2-1.1.7-1.5-.7-.6-2.3-.3,1.1-1.5-.2.2-3.5h-1.4c0,0-.7-.6-.7-.6l.3-.3h0l.2-1h0l.2-3.9-.8-1.2,1.3-1.4.2-1h.5s.8-2.2.8-2.2h.6c0,0-.3-2.1-.3-2.1h0l3.1-3.6h.7s0-.6,0-.6l1.5-.6v-1.2s1.2-.6,1.2-.6v-1.1s1.1-.6,1.1-.6v-1.8s1-.2,1-.2l1.7-2,1.9-.9.5.7,1-.4,2.5-2.3,1.6.6.9-1.2-.3-.5,1.4-.7-.3-.6,2.4-.5,2.1-2.6.4.6h.8c0-.1,1.4-1.7,1.4-1.7l-.3-.5.8-1.2.5.3.2-.7,2.2-.5.2-1.7,1.5-1v-.4c-.1,0,1.1-.3,1.1-.3l.8.4.7-1.2,1-.4.5.4,3-.7.9.4.7-.7-.4-.3.7-.6v-1.3s2.5-1.1,2.5-1.1l.7-2.2,1.1-.4v-.4c-.1,0,2.4-.5,2.4-.5l.4-1.5,1.1-.6,1.1-2.2,1-.2,1.2-1.5,2-.6.6-2.6h0l2.6-1.7v-1.4c.1,0,.7-.5.7-.5l-.2-.8h1.6Z"/>
    <path id="NZ-CIT" d="M432,256.6l1.4,1.4-1.8,2.3-.5-1.9.6-.6-.7-.7,1.1-.5ZM424,242l3.7,1.5,1.8-.4.9.4,1-.6,1.1.3h-.7c0,.1-.3,1-.3,1l-.9-.3-1.1.8-1.7,2.9-.2-1.7,1.3-1-1.3-.8-1.4-.2-1-.6.3,1.4,1.9.4-1.6,1.3,1,1.7-.2,1,.9.4.3-1.2.6,2.5,1.3.5v.5s-3,.7-3,.7l-2,1.6-1.1-.2-1-3.1,3-2-1.2-3.1-1.4-.7-1,.9-1.6-.3.2.4-.7.3h-1.3c0-.1-.3-.6-.3-.6l.5-.9h1.1c0-.1,0-1.2,0-1.2l1.3.6,1.8-.5.7-1.5Z"/>
    <path id="NZ-GIS" d="M321.3,82.3l2.9.6-.5.6.9,1,2.7.5,1.4,1.3-2.8,4.3-.3,2.4-1.1,1.2.7,2-1.1,1.2.8.9-.9,1.4.5.6.2,3.9-1.3,1.4.2,1.4-2.9,3.1-1.3.7-.2.8-1.1-1-1.4,1v1c-.1,0,.6.2.6.2l-1.2,1.8-.3,3.6h0l-1.1-.3v-.8c0,0-.8-.7-.8-.7l-.5.5-.5-.5-.4.6-.2-.5h-1.3c0,.1.2-1.3.2-1.3l-.4.4-.9-.3-.2-1.2-1,.3-1.5-1.6v-1.1c0,0-1.1-.2-1.1-.2l.8-1.5-2.8-.9v1.5s-3.6-1.8-3.6-1.8h0l.9-.2.6-1.3,1.1-.3-.4-2.2,4.5-2.3.7-1.8-.2-1,3.3-1.6.8-2.4-.6-1.1h1.1c0,0,2.7,2.2,2.7,2.2l2.1-6.6,2-2.1-.7-.8-.8.7-.5-.6.5-1.2-.5-1.7,2.6-.7-.5-1.3h0l1.7.2.2-.5Z"/>
    <path id="NZ-HKB" d="M290.8,155.5l-3.6-.6-1-.7-.4-.6.8-.6-1-3.6h0l.4-.9h0l-1.3-1.2.3-.8-1.2-.5-.5-.9-1.7-.5-.4.4-.8-.9.6-1.1-.3-.9,1.2-5.1.7-1.1-.8-.7.3-1-.8-.7.9-.2,1.3-1.5,1.5-.3-.4-1.8.6-1.5-1.4-.8.9-1.2-.2-1-1.7-.6-.6-2.3h0l1-1.2h0l2.1,1.9,1.1-.3-.5-.8,1.5-.2-.6-1.6.6-1.5h3.3s-.4-1.5-.4-1.5l2.1-2.2.2-3.2h.7s.5-1,.5-1l.9.2,1.3-.7.7.8h1.2c0,0,1.1-1.9,1.1-1.9h1.3c0,0,.4-.9.4-.9h0l3.6,1.8v-1.5s2.8.9,2.8.9l-.8,1.5,1.2.2v1.1c0,0,1.4,1.6,1.4,1.6l1-.3.2,1.2.9.3.4-.4-.2,1.4h1.3c0-.1.2.4.2.4l.4-.6.5.5.5-.5.9.7v.8c0,0,1,.3,1,.3h0v2.5s2.1.9,2.1.9l-1.5,1.5-1.2,2.5-.9-2.7,1-1.9-.6-.6-.4.5-3.1-.7-5,.3-4.2,1.5-3.1,1.9-.4,1.6-2.1,2.1-.8,2.6.3.7.7-.2v2s.9,1.9.9,1.9l1.2.6h1.3c0-.1-1.6,2.1-1.6,2.1l-.2,2.8-2.3,4.7-.3,2.7-1.7,2.4-2.2,1.1-1.1,4.1Z"/>
    <path id="NZ-MBH" d="M246.5,172.6l-.3,3-.5-.3-1.8,1.2-.5-.4-1.3.5,2.5-2,1,.2v-.8c0,0-1.1-.1-1.1-.1l1.9-1.4ZM238.9,168h.6s-.2.7-.2.7l-.3.3-.5-.9-.3,1.4-1.1.3h.6c0,.1-.2.5-.2.5l-2,.6.2-.8-1.1.8.7.3-.8.5.3,1.5.9-1.5,2.4.2-1.6.4.3,1.1-.7-.2-.2.8-1.2.2.2.5h.8s.6-.2.6-.2v.6c.1,0-.2,1.3-.2,1.3l-1.1-.2.2.5-.9.2.2.5.7-.5,2.3-1.1.8-.2,1-.8,1.1.2,1-.6-1.4.2v-.5c-.1,0-3.5,1.3-3.5,1.3l.5-1.1-.6-.7,1-.4h-.4c0,0,.6-.3.6-.3v-.8c0,0,.9-.2.9-.2l-.5,1,.3.9.6-1.3h1c0,.1-.5-.9-.5-.9l.6-1.2-2.3.5.4-.2-.3-.3h1c0,0-.5-.7-.5-.7h.6c0,0,.4-.7.4-.7l.2,1.3.9-.5.8,1.5-.2-1.5.9.6.4-.9.4.7h.3s0,.8,0,.8h-.6c0,0,1,.8,1,.8l.4-.8h1.1c0-.1-1.3,1.4-1.3,1.4l.2.8-.4-.3-.8.7v-1.3c-.1,0-.4.7-.4.7l-.3-.2.3,1.1h.8c0,.1,0,.9,0,.9l-.7.5-.3.3-.6-.6-1,1v-.6c-.1,0-1.5.3-1.5.3l-.5.9h1.3s2.2-.6,2.2-.6l-.2.7.8-.2.4-.2h1.5s.7-.8.7-.8l-.5,1.4-1.2.6.2.7-.7-.2-.2.7-1.2.4,1.1-1.6h-.6c0-.1-.2-.2-.2-.2l-.6.4-1.7,3.7v1c0,0,1.2,1.3,1.2,1.3l-.6.6,1.8.2.6,4,1.9.5-2.3,3.8-2.2,2.5h0l.2-1h-1.6c0,.1-.4-.5-.4-.5l-2.7.5-.6.7-1.1-1.2-.3,1.3-1.4,1.3h-.8c0-.1-1.1,1.6-1.1,1.6l-1.2.5-.3,2.8-3.4,1.4v.4c.1,0-2.2,1.8-2.2,1.8l1.2.6h-.5s-1.2,2.4-1.2,2.4l-1.6.3-.5.8-.7-1.2h-1c0,0,.8-1.3.8-1.3l-1.4-.5-.6-1.8-.8.3-.5-.5.4-.9-.8-.7.3-1.3h-.7s-.3-.8-.3-.8l-1,.2-.3-1.8h0l.3-1.7,1-.5-.2-.5,1.7-2-.4-.9,2-2.8-.4-.9,1.6-.6,1.1-1.6v-1s1.7-.9,1.7-.9l.5-1.8h2.6c0-.1-1.1-1.5-1.1-1.5l.9-.9-.2-.8,2.6-2.1v-.8c0,0,1.2-1.8,1.2-1.8l1.8-.9.5-3.4h0l.6.5h.5s2-.9,2-.9l-.3-.3-1.1.6-.4-.5,1.5-.8.3-.8.4-.2h.5c0,0,.5-1.1.5-1.1l.4.2-.4,1.4h.5c0,.1,1.1-1,1.1-1l-.2-.4,1.4-1,.3.5ZM238.2,164.2l-1.1,2.5-2.6,2.1.4-1.3-.5.2.2-1.7.2.6.3-.2-.2-1,.5-1.5.9-.7v2.1c0,0,.4-.7.4-.7l.6.2v-.4c.1,0-.8,0-.8,0l1.3-1,.2.9Z"/>
    <path id="NZ-MWT" d="M290.8,155.5h0v1.6s-1.1.1-1.1.1l-1.6,1.1-4.2,6.3h0v-.8c.1,0-.7-1.1-.7-1.1l-1.6-.8h-1.2c0,0-.1,1-.1,1l-1.4-.3-1.6,1.6-.5-.4-2.1.7-.8-.2.5-1.2-.5-.7h-1.5s-.1.8-.1.8l-1.2.6-3-1.5-.6,1.3-1.3-.5-.5.8-1.6.4-1.5-.3.3-.7-1.4-.6h0l1.6-5.9.2-4.5-.6-3.5-3.3-5.1-2.6-2.2-2.3-.6h0l-.3-.2.9-1.2,2.5-1.5v-1.5s1.3-.5,1.3-.5l-.5-1.8.6-1.4-.8-1.6-1.4-1.1-.4-1.1.5-.7-1.5-1.2,1-2h1.1s.5-1.7.5-1.7l.9-.2-.3-.4.9-.9h1.1c0,.1-.5-.9-.5-.9h-1.7s-.2-1.8-.2-1.8l-.6.4-1-.7.2-2-.4-.4-.6.5-.5-.8-.3-1.5,1.5-1.1h0l1.6-.6.2-2.1,3.2-1.1,2.4.2.9-1,.5.2.3-1.2.2.9,1.6-.8,1.6.2.8.9,1.9-.9-2.3,4.9,1.2,1.6-.7,1.1.8,1.2-.4,1.8h2.4c0-.1-1.4,1.7-1.4,1.7l.8,1.4-1.9,4.3,4.9.7,1.2-.9-.3-.4.8-.6-.2-.5,1.6-.6.2-.7,4.1-.3h0l.6,2.3,1.7.6.2,1-.9,1.2,1.4.8-.6,1.5.4,1.8-1.5.3-1.3,1.5-.9.2.8.7-.3,1,.8.7-.7,1.1-1.2,5.1.3.9-.6,1.1.8.9.4-.4,1.7.5.5.9,1.2.5-.3.8,1.3,1.2h0l-.4.9h0l1,3.6-.8.6.4.6,1,.7,3.6.6Z"/>
    <path id="NZ-NSN" d="M225.6,176.2h0l.4.7-1,.7.3,1-1.5.9-.5-.5h0v-.8c0,0,2.2-1.3,2.2-1.3l.2-.7Z"/>
    <path id="NZ-NTL" d="M219.5,6l.8.5-.9.3v1.9s-.8.3-.8.3v-.7c0,0-.9,0-.9,0v.6s-.9,0-.9,0l.4.3h1s-.2.6-.2.6h.6c0,0,.3,1.1.3,1.1l.2-.7-.6-.9h.6c0-.1,1,3.3,1,3.3l2.7,3.1-.4.5.8,1.1,1.7.5-.8,1.1v1.4c0,0,.6,0,.6,0h.8c0,.1-.3-.7-.3-.7l.9-.3-1-2.2,2-.6h.5c0,0,.7-.3.7-.3l.4.6-2,1.1.9,1.9,2,.4.8-1.9,1.7,1.3.9-.5,1.2,1.6-.9.9.3.5h.5s0-.9,0-.9h.6l-.3-.7,1.1-.5.9.8.7-.2,1.4,2.7,2.1-.2,1,1.1-1.2.9-1.2-1.3-.5.4.6.8-.8.4h1.9c0,0,.2,1.6.2,1.6l1.2,1.1h1.5c0,.1-.6-.5-.6-.5l-.9-.4-.6-1.1,1.8,1v-.7c0,0,.9-.8.9-.8l.6.2.2-1,.8-.4-.8,1.5.6.5-.5.4,1.1,1.5.6.6-.2.5-.8-1.1-.2.5,1,1.3-.2.6,1.4-.2v.6c0,0,1,1.4,1,1.4l-.5.2.3.9,1.2.6v1.5s-.5-.3-.5-.3l-.2,1,.4,1h.9c0,0-.4,1.8-.4,1.8l.9,1.6h-1.3c0,0-.9-2-.9-2h-2.3c0,0-.2-.6-.2-.6l-.4,1.6.8-.6.2.7,2.5.5-.6.8-.2,2,.8,1.9.7.5h.9c0-.1.7,1.8.7,1.8h0l-.7,1.2-1,.4v.7c0,0-1.1.4-1.1.4h0l-.2.7h0l-1.4.7h0l-.5-.3-.7,1-1.4-.7.7-1,.3-.2,1.1-.8h-.3c0,0-1,.5-1,.5v-.5s-1-.5-1-.5l-.6-.3.3-1.2-1.1.2v.9s.2.5.2.5l.5.4.7-.3.6,1.1-1.3.6-2.1-2.3h-1.2c0,0-1.5-1.2-1.5-1.2l2.2,3,1.2.8.5,1.4-.7,1.3h-1.9c0,.1-.9-2.8-.9-2.8l-1.9-3.3-10.7-14.4,1.2-3.1,1.9-.3,1.4-1.5-.9-.3-.3,1.2-2.2.3-1.2,3-5.9-7.9.2-.7,1.3.3.7-1-.5-3.6-5.8-8.6-3.8-3.6.5-1.3,2.6.8.9-.9,2.2.3.8-.8Z"/>
    <path id="NZ-OTA" d="M333.7,413.4l-.2,1.6h-.6c0,.1-.6-.8-.6-.8l1.4-.8ZM127.4,264.1l2.6-.2.7-.7,1.5-.3,2-1.7,1.1.7,1.8-2.2.2-2.6.5-.6,1.9-.5.2-1.6.8-.3v-.4c-.1,0,2.4-1.1,2.4-1.1l.3.8h1.9c0,0,1.2-1.3,1.2-1.3l.4,1.2.8.5,1.6-1.7,2.4-.7.2-2.1,2.2.2h0l.3,2h-.6c0,0-.8,2.2-.8,2.2h-.5s-.2,1-.2,1l-1.3,1.4.8,1.2-.2,3.9h0l-.2,1h0l-.3.3.7.5h1.4c0,0-.2,3.6-.2,3.6l1.5.2.3-1.1.6,2.3,1.5.7,1.1-.7,1,.2,1,4.8,1.5,1.8.5,1.5,2.5-.2,2-.9h.6c0,0,.5,1.3.5,1.3l1-.2,2-1.4,1.2-2.2,5.2,2.3,5.6,1.2h0l-1.2,2.2-2.1,2.1v.9s-1.1.9-1.1.9l-1.2,2.4-.7,2.3v.8c.1,0,.9.5.9.5l-1.2,1.9.4,1-1.5,1.7-.6,1.7-1.1.6-.3,1.6-1.6,1.5v.6s1.4-.2,1.4-.2l1.4,1.1-1.6.5v.7s.8.4.8.4l1.6-.9v1.2c0,0-.1.8-.1.8l-1.2.5-.5.3-1.1-.2-.5.2-1.8.2-3.9,1.4-1.9,2.7-.6,2.8-5.5,4.6-1.9.9-.3,1.5.4,1.4-.5.7-.5.4-.6.2-.5.8-1.7.6-.5,1.1-.6-.6h-1.5s-.6,1.3-.6,1.3l-1.4.2-.5.9-1.4-.5-1.8.9h0l.6-1.8-.5-.8h.6c0-.1.6-1.2.6-1.2l-1.8-1.4.8-1.8-1.3-.9,1.1-1.3.3-3.7-1.5-1.5.8-1-.6-.9.4-.5-1.7-1.9.6-3.3-.8-1-1,.4.5-1.1-.7-2.5.6-2.3,1.5-2,.8-3.6,1.4-1-2.8-4.1-1.1.9-2.5,4.5-.7-.8-.4.5-1-.2v-2c0,0-1.8-.8-1.8-.8l-.3-2.7-2.6,1.9-4.3.5-.4-2.9-1.7-2.2,1-1.8h.5s.4-1.6.4-1.6l-.2-.4-1.1.4-2.2-2.5.2-.7-.6-1.2.3-1.2h.9s.7-2.1.7-2.1l-.8-1,1.4-3.8v-1c-.1,0,1-1.2,1-1.2h1Z"/>
    <path id="NZ-STL" d="M144.2,501.5h.5c0,.1,0,2.4,0,2.4l.7.2-.6.4v.4c.1,0-.6.9-.6.9h-.4c0,0-.7-.2-.7-.2l-.3.4-1-1.4h-.9c0,.1-.5-.7-.5-.7l.5-.4,1.2.6,1.1-2.1-.4-.3,1.3-.3ZM79.5,449.8l1.1.7h1.5s.4-.5.4-.5l2.6,1.1-2.7,1.5-.9-.7h-1.4c0-.1,0-.8,0-.8l-.7.2-.4-1,.5-.4ZM84.6,439.6l.4.5.7-.2.6.3.4.3-.6.4.5,1h-1.5s.5,1.1.5,1.1l-.4.3v.9c0,0-.5.6-.5.6l.2.5v.5c0,0-1.3,0-1.3,0l.6.5-.5.3,1,.2.5,1v.6c.1,0,.4,1,.4,1v.8s-1.4.4-1.4.4l-1.8-1.7h-.2s-.2-1.4-.2-1.4l-.8-.6-.2.8h-.3c0,0-.2.5-.2.5l.6.7-.4.3.5,1.1-1.6-.3-.3-.9-.7.9v-2.2c0,0,2.9-1.7,2.9-1.7l1.1-1.3-.3-.9.6-2-.8-.5.6-.3-.5-.5-.7.2,1.9-1h1ZM118,325.6l2.1,1.1.6,2.1,1.7,1.1-.2.7,1.2.2.4,1-.5.5-1.5-.5-.4.7-.8-.7-.8.4.2.6.7-.2.2.8,2.1.2-1.1.8,1,.2.4-.7.5-.4v-.5c0,0,.5-.5.5-.5l-.3,1.6,1,1.2-1.3,1.3v.5c0,0-.8,1.3-.8,1.3l-1-.6-.6.7h-1.9s-1,1.2-1,1.2l-1.5.6-1.2-.6-.7.3-.5-.9-.6.5v.8c.1,0-.3.8-.3.8l-.2,1.2-.6.2v-.7c.1,0-1.4,1.3-1.4,1.3l-1-.6-.7.2.3-1.8,2.1-1.4v-.5c0,0,.3-1,.3-1l-.6-.7,1.2-1.4h1.8c0,0-.9-2.8-.9-2.8l.3-.2v.7s.9-.1.9-.1l.8-1.3-.3-1.9-1-1.5.3-2.3,1.4-.8.9.5.7-.6ZM91.7,298.8l.5.3-.9.6-.7-.2v-.5c.1,0,1.2-.2,1.2-.2ZM94.5,294.7l.7.8.2,2.1-.7,1.4-1.9.2v-.9s-.9-.3-.9-.3l.8-.4-.5-.8-2.2,2.2,1.9-3.5,2.7-.7ZM100.1,282.2l-.3,1.5,1.1,2.6-.5.2-2.2-1.7,1.9-2.5ZM122.4,258l1.1.3,1.7-.8,2.2.7v1.1l1.4,1.2-1.3,1.1.5.5-.6,2.1h-1c0,0-1.1,1.3-1.1,1.3v1c.1,0-1.3,3.8-1.3,3.8l.8,1-.7,2.1h-.9s-.3,1.2-.3,1.2l.6,1.2-.2.7,2.2,2.5,1.1-.4.2.4-.4,1.6h-.5s-1,1.8-1,1.8l1.7,2.2.4,2.9,4.3-.5,2.6-1.9.3,2.7,1.7.8v2c0,0,1.1.2,1.1.2l.4-.5.7.8,2.5-4.5,1.1-.9,2.8,4.1-1.4,1-.8,3.6-1.5,2-.6,2.3.7,2.5-.5,1.2,1-.4.8,1-.6,3.3,1.7,1.9-.4.5.6.9-.8,1,1.5,1.5-.3,3.7-1.1,1.3,1.3.9-.8,1.8,1.8,1.4-.6,1.1h-.6c0,.1.5.9.5.9l-.6,1.8h0l-1.1-.2.6-.7-.8-.6-.4,1.7-.7.2-4.4-.3-.3-1.5-.8-.8-1.5-.4-2.4.5v-.5c.1,0,.9,0,.9,0l-.9-.5-.9.2.7.7-1.3.6h-3c0-.1.2-.9.2-.9l-.5-1.1-1,.4,1.2,1.8-.6.4-1.2-2h-.7c0-.1-.1-1.1-.1-1.1l3-.9-.6-.4-.3-.6-.9.3.5,1-.6.2-1.4-2.9-1.5-1.5h-1.5c0-.1-.6.5-.6.5l.3.6-2.5-.8-.7.4h-1s-.9.6-.9.6l-1-.7v-.9c0,0,0-1.1,0-1.1l-.3-1-2-1.9-2.2-1.1h-2c0,0-1,1.1-1,1.1l-.2,1.6-2.5.3-6.8-1.5-1.8.7-.3-.5h-1.9c0-.1-1.2-1.7-1.2-1.7l2.1-1.2.2-1.2-.5-.5-1,.8-.6-.7-.9.9,1-3,3-.5v-.6c-.1,0-2.5,0-2.5,0l-1,.6-2.5,1.2-.5-.4-.4-2.7.5-2.5,7.7-1.5,1.8-1-2.2-.6-1.8.6.5-1.7,3.7-1,.6-.7-4.6,1.7v-2c0,0,2.7-1.2,2.7-1.2h.2s1.7-1.5,1.7-1.5l-4.6,2.2h-1.3c0-.1,1.6-5,1.6-5l1-.2-.6-.4.4-1.5,1-1.4,2.1,1.2h.4c0,0,1.2,1,1.2,1l.8.3.9,2.4h.4c0-.1-1-2.5-1-2.5l-1.5-1.2.5-.7h2.2c0-.1,0-.8,0-.8l-2.7.4-.7-1.7.4-1.5-.4-.7.8-1,1.8,2.3v-.2c0,0-1.5-2-1.5-2l1-1.5.6.5-.3-1.2.9-.6v-.5s3.8-3.9,3.8-3.9l1,1.8-.2.9.7.5-.4,1,.6-.7.6.3-1.1-1.3.4-.2-1-2.9,1.8-1.4h.8c0,0,.1-.6.1-.6l.7-.6.6-.3v-.9c.1,0,1.1-.7,1.1-.7l.4-.5,2.1-1,.2-.7.6-.2.8.9-.2-3,2.3-2.9,1.7-.5-.5-1.2h1.9c0,0,.5-1,.5-1l-.4-.4Z"/>
    <path id="NZ-TAS" d="M231.2,171.9h0l-.5,3.4-1.8.9-1.3,1.8v.8c0,0-2.6,2.1-2.6,2.1l.2.8-.9.9,1.1,1.3h-2.6c0,.1-.5,1.9-.5,1.9l-1.7.9v1s-1.1,1.6-1.1,1.6l-1.6.6.4.9-2,2.8.4.9-1.7,2,.2.5-1,.5-.3,1.7h-1.7s.2.8.2.8l-.6.5v1.4c-.1,0-2.7,1.7-2.7,1.7h0l-.9.9-1.4-.6-.5-3.5h-1.7s-.9-1.4-.9-1.4h-1.3c0,0-.7-1.3-.7-1.3l.4-.9-.9-.3-.7-1.5.6-.8-.3-.6.9-.6v-2.2s-.4-.4-.4-.4l.4-1.2,2-1,.7.5-.3-1.6,1.8-.8.2-2.4,1.6-1.2v-1.6s.8-.5.8-.5l1,.5,1.5-1,.3-2.1-.6-.9,1.8-.5.7-1h-1.2c0-.1-.3-1.1-.3-1.1l-2.6-2.8.2-.8h-2.2s-1.1,1.1-1.1,1.1l-.3-1.3,1.5-1.7-1.7-.5-.9-1.8-.6.4.2-1.7-.6-.9h0l6.2-5-.4,1.2,2.4-1.2v-.8c-.1,0-1.6.8-1.6.8l1.7-1.9,3.2-.2,3.9.9.4.3-5.2-.9-1.5,1.8v1.6s-.5.2-.5.2l1.6,3,2.4,1.8,1.3-1.1.5.6v-.9c.1,0,1-.2,1-.2l.5,1.9h.7s-.3,2.4-.3,2.4l.5.4-.9,1.5-.4,1.2.7.9-.6,1.2,1.6,1.7.5,1.1-.7.3.3.6h1.3c0,0,1,1.1,1,1.1h0l.5.5,1.5-.9-.3-1,1-.7-.4-.7h0v-.6s1.6-1.2,1.6-1.2l.6.5,1-.5.6-1.3,1.6-1.4.2.2Z"/>
    <path id="NZ-TKI" d="M251.1,111.6h0s.9.7.9.7h2.9s1.2,1,1.2,1h0l-1.5,1.1.3,1.5.5.8.6-.5.4.4-.2,2,1,.7.6-.4.2,1.7h1.7s.5,1.1.5,1.1h-1.1c0-.1-.9.8-.9.8l.3.4-.9.2-.5,1.7h-1.1s-1,2.1-1,2.1l1.5,1.2-.5.7.4,1.1,1.4,1.1.8,1.7-.6,1.3.5,1.8-1.3.5v1.5s-2.5,1.5-2.5,1.5l-.9,1.2.3.2h0l-1.2.2-3.1-1.3-2.8-2.2-1.6-2.1-2.4-1.4-2.8-.4-3.3-1.5-2.4-2.7-.8-3.3.8-2.2,4.7-3.5h1.2c0-.1,2.2-1.7,2.2-1.7h3.2c0,.1,1.5-.6,1.5-.6l2.4-2.8,1-3.8Z"/>
    <path id="NZ-WKO" d="M266,56h.9s.6.8.6.8l.3.6.6-.4.9.8-.4,1.3,1.3.7v1.1c0,0-.5,0-.5,0v.6c0,0,1-.1,1-.1l.4.9-.4.9,3.4-1.6.8.6v.6c0,0-1.3.5-1.3.5v.8c-.1,0-1.1.4-1.1.4l-.5,1.5.4.3.6-1.2.9-.3,1.1.8.9,3.7.4,1.6v3.3s-.6-.7-.6-.7v.6c0,0,1.5,4.5,1.5,4.5h0l-.7.8.2.6-1.1.8.8.9h-.8s-.5-.7-.5-.7l-.5.7.5,1-.5.5,2.3,5.5-.4,1.4.7.3v1s.7.8.7.8l-.7.4.2.9,3.1,2.6h1.3s1,.7,1,.7l1.7,5.3,3.2,1.3.8.9-.5,3.3-1.8-.7-.6,1.5-1.2-.5.5-1-.4-.5-2.5.8-.8-1.6-1.2,1.4h-.5c0,0,0,1.3,0,1.3h1.1c0-.1.2.5.2.5l2,.6-.9,2,1.7,1.9-.8.7-2-.6-.4,1.1,1.8,3.1,1.4-.3.5,3.8-1,.5h0l-1,1.2h0l-4.1.3-.2.7-1.6.6.2.5-.8.6.3.4-1.2.9-4.9-.7,1.9-4.3-.8-1.4,1.4-1.8h-2.4c0,.1.4-1.7.4-1.7l-.8-1.2.7-1.1-1.2-1.6,2.3-4.9-1.9.9-.8-.9-1.6-.2-1.6.8-.2-.9-.3,1.2-.5-.2-.9,1-2.4-.2-3.2,1.1-.2,2.1-1.6.6h0l-1.2-1.1h-2.9s-.9-.7-.9-.7h0l.3-8.1,1.6-2v-2.6s-.7-2.2-.7-2.2l1.1.3.8-.9-.2.8.6.4.4.3.7-.4h-.7s.2-.5.2-.5l1.7-.8-.6-.7-.8.3v-.5c-.1,0-1.3,1-1.3,1l.3-1.6.5-.3.5.4.8-1.6h-1.2c0-.1.1.8.1.8l-.7.4-.8-3.6.4-.8,1.3-.7h2.1c0,.1.4-.4.4-.4h-1.3c0,0-.7-.3-.7-.3l-.5.6-1.4-5.9-1.3-3.1v-1.6s.8.3.8.3l1.3-1.6h0l.8-.5v-.7s1.4.3,1.4.3v-1.4c0,0,1.3.1,1.3.1l.4-.7-1.3-1.8.2-.4,1.1.4,1.3-2.5,1.7.6v-.9s1.1.4,1.1.4l1.5-.9h0l.3,3.3.7,1.5,1.3.3,2.7-1-.8-4.8-1.8-3,.6-.2v-.9c.1,0,1.4-.5,1.4-.5l-1.5-1.8v-2.6c.1,0-2-2.2-2-2.2v-1s.8-.3.8-.3Z"/>
    <path id="NZ-WGN" d="M257.7,165.7l-.2.8-1.3.9,1-1.7h.5ZM261.4,162.7l1.4.6-.3.7,1.5.3,1.6-.4.5-.8,1.3.5.6-1.3,3,1.5,1.2-.6v-.8c.1,0,1.6,0,1.6,0l.5.7-.5,1.2.8.2,2.1-.7.5.4,1.6-1.6,1.4.3v-1c.1,0,1.3,0,1.3,0l1.6.8.8,1.1v.8h-.1l-.8,3.2-1.7,1.5-1.5,4.2-1.4,1.5-.7,1.7-1.6.8-1.4,2.2-2.7,1.4-4.8,4.2h-1.3s-1.5,1.1-1.5,1.1l-1.1-.2-.8-2.1.5-2.5-1.4-.9v-.8s-2,.1-2,.1l-2.4,1.7-1-.8-.4-1.3,1.3-2.6-.5-.7-.6-.2-1.4,1.1.3,1.3.7-.5-.3,1.3-.4-.5-1.7.9-1.1-.6-.9-1.5.6-1.3,1.4-.5,1.8-2.8.9-.6v-1c0,0,1.8-1.3,1.8-1.3l.9-3.1,1.5-1.5,1.4-3.2Z"/>
    <path id="NZ-WTC" d="M203.8,164.5l.6.9-.2,1.7.6-.4.9,1.8,1.7.5-1.5,1.7.3,1.3,1.1-1.1h2.2s-.2.8-.2.8l2.6,2.8.3,1h1.2c0,.1-.7,1.1-.7,1.1l-1.8.5.6.9-.3,2.1-1.5,1-1-.5-.9.5v1.6s-1.5,1.2-1.5,1.2l-.2,2.4-1.8.8.3,1.6-.7-.5-2,1-.4,1.2.4.4v2.2s-1,.6-1,.6l.3.6-.6.8.7,1.5.9.3-.4.9.7,1.3h1.3c0,0,.9,1.4.9,1.4h1.7s.5,3.5.5,3.5l1.4.6.9-.9h0l-.6,2.6-2,.6-1.2,1.5-1,.2-1.1,2.2-1.1.6-.4,1.5-2.5.5v.4c.1,0-1,.4-1,.4l-.7,2.2-2.5,1.1v1.3s-.6.6-.6.6l.4.3-.7.7-.9-.4-3,.7-.5-.4-1,.4-.7,1.2-.8-.4-1.2.3v.4c.1,0-1.4,1-1.4,1l-.2,1.7-2.2.5-.2.7-.5-.3-.8,1.2.3.5-1.4,1.6h-.8c0,.1-.4-.5-.4-.5l-2.1,2.6-2.4.5.3.7-1.4.7.3.5-.9,1.2-1.6-.6-2.5,2.3-.9.4-.5-.7-1.9.9-1.7,2-1,.2v1.8s-1.1.6-1.1.6v1.1s-1.1.6-1.1.6v1.2s-1.5.6-1.5.6v.6s-.7,0-.7,0l-3.1,3.6h0l-2.2-.2-.2,2.1-2.4.7-1.6,1.7-.8-.5-.4-1.2-1.2,1.3h-1.9c0,0-.3-.9-.3-.9l-2.5,1.1v.4c.1,0-.7.3-.7.3l-.2,1.6-1.9.5-.5.6-.2,2.6-1.8,2.2-1.1-.7-2,1.7-1.5.3-.7.7-2.6.2h0l.6-2.1-.5-.4,1.3-1.1-1.4-1.2v-1.1l-2.2-.7-1.7.8-1.1-.3h0l-.9-.5,4-2.9,2.2-4h2.9c0-.1,2.2-1.4,2.2-1.4l.4,1h1.2s2.6-1.1,2.6-1.1l6.2-5.6,3.8-2.2.6-.8,2.5-.4,1-1.1.7.4,2-1.4,2.1-3.5,3.7-1.7,1.4-2,2.5-2,1.7-2.8h2.5s0-.5,0-.5h-.5s.9-1.2.9-1.2l3.2-1,5.9-4.9,5.3-7.3,1.6-4.5,1.7-3,.6-4.2,2.6-6.6v-2.9c-.1,0,5-.8,5-.8l3.1-3,2.1-4.3,1.6-1.6.8-5.7-.2-7,2.3-3.3Z"/>
  </g>
</svg>