<svg xmlns="http://www.w3.org/2000/svg" xmlns:amcharts="http://amcharts.com/ammap" id="Layer_1" viewBox="0 0 512 512"><g id="_x3C_defs"><amcharts:ammap bottomLatitude="2.813" leftLongitude="131.12" projection="mercator" rightLongitude="134.721" topLatitude="8.094"/></g><g><path id="PW-SO" d="m186.9 279.7.6-1.2-1.3-.3.6 1.5Z"/><path id="PW-PE" d="m386.9 104.9-3.5 6.5v2.4c-.1 0 4.8-6.9 4.8-6.9z"/><path id="PW-NW" d="m424.6 54.1-3.4-.9-.4 2.7-1.2 3 1.8 1.2z"/><path id="PW-NL" d="m420.9 55.8-7.1-.7-3.5 5.2 1.6 1.1 1.6-.7 3.5 4.9 1.4-3.8 1.3-2.9 1.2-3Z"/><path id="PW-NS" d="m421.7 64.1-3.3-2.3-1.4 3.8-1.5 4.1 2.8 1.1 3.3-6.7Z"/><path id="PW-NP" d="m417.1 65.6-3.5-4.9-1.6.7 1 1.6-5 2.9 5.3.9 2.3 2.8 1.5-4.1Z"/><path id="PW-NM" d="M421.2 53.2v-2.5l-5.3 1.2-2.1 3.3 7.1.7.4-2.7Z"/><path id="PW-NC" d="m424.8 44.7-1.6-4-1.8-.8 1 4.9 2.4-.2Z"/><path id="PW-ND" d="m424.6 54.1.2-9.3-2.4.2.6 3.7-1.8 2v2.5z"/><path id="PW-ME" d="m421.4 60-1.8-1.2-1.3 2.9 3.3 2.3-.2-4.1Z"/><path id="PW-KO" d="m401 87.8 4.6-1.5-1.4-2.6-6.5 5.1-3.1-3.3-.2 3.3 4.3 1.3zm9.3-9.8-5.4-1.5-.7 3.4 4.1-1.4 2 3.4 1.5-2.3-1.5-1.5Z"/><path id="PW-KA" d="M429.6 4.3 428 6.4l.8 2.5 2.5-3.2z"/><path id="PW-HA" d="M147.1 507.7 145 506l-1.6 1.3zm-63.6-6.1 3.1-2.5-3-1-2.9 2.9 2.9.7Z"/><path id="PW-AN" d="m376 123.5 1.3-4-3.3-.9z"/><path id="PW-AR" d="m418.4 70.8-2.8-1.1-3.5 3.4-1.9-.7 1.3 4.2 4.1-1.4 2.5.8.3-5.3Z"/><path id="PW-AM" d="m415.6 69.7-2.3-2.8-5.3-.9 2.2 6.5 1.9.7 3.5-3.4Z"/></g></svg>