<?xml version="1.0" encoding="UTF-8"?>
<svg id="Layer_1" xmlns="http://www.w3.org/2000/svg" xmlns:amcharts="http://amcharts.com/ammap" version="1.1" viewBox="0 0 512 512">
  <!-- Generator: Adobe Illustrator 29.1.0, SVG Export Plug-In . SVG Version: 2.1.0 Build 142)  -->
  <g id="_x3C_defs">
    <amcharts:ammap bottomLatitude="2.8127428" leftLongitude="131.1201097" projection="mercator" rightLongitude="134.7210771" topLatitude="8.0940234"/>
  </g>
  <g>
    <path id="PW-SO" d="M186.9,279.7l.6-1.2-1.3-.3.6,1.5Z"/>
    <path id="PW-PE" d="M386.9,104.9l-3.5,6.5v2.4c-.1,0,4.8-6.9,4.8-6.9l-1.3-2Z"/>
    <path id="PW-NW" d="M424.6,54.1l-3.4-.9-.4,2.7-1.2,3,1.8,1.2,3.2-6Z"/>
    <path id="PW-NL" d="M420.9,55.8l-7.1-.7-3.5,5.2,1.6,1.1,1.6-.7,3.5,4.9,1.4-3.8,1.3-2.9,1.2-3Z"/>
    <path id="PW-NS" d="M421.7,64.1l-3.3-2.3-1.4,3.8-1.5,4.1,2.8,1.1,3.3-6.7Z"/>
    <path id="PW-NP" d="M417.1,65.6l-3.5-4.9-1.6.7,1,1.6-5,2.9,5.3.9,2.3,2.8,1.5-4.1Z"/>
    <path id="PW-NM" d="M421.2,53.2v-2.5c0,0-5.3,1.2-5.3,1.2l-2.1,3.3,7.1.7.4-2.7Z"/>
    <path id="PW-NC" d="M424.8,44.7l-1.6-4-1.8-.8,1,4.9,2.4-.2Z"/>
    <path id="PW-ND" d="M424.6,54.1l.2-9.3-2.4.2.6,3.7-1.8,2v2.5c0,0,3.4.9,3.4.9Z"/>
    <path id="PW-ME" d="M421.4,60l-1.8-1.2-1.3,2.9,3.3,2.3-.2-4.1Z"/>
    <path id="PW-KO" d="M401,87.8l4.6-1.5-1.4-2.6-6.5,5.1-3.1-3.3-.2,3.3,4.3,1.3,2.3-2.3ZM410.3,78l-5.4-1.5-.7,3.4,4.1-1.4,2,3.4,1.5-2.3-1.5-1.5Z"/>
    <path id="PW-KA" d="M429.6,4.3l-1.6,2.1.8,2.5,2.5-3.2-1.7-1.4Z"/>
    <path id="PW-HA" d="M147.1,507.7l-2.1-1.7-1.6,1.3,3.7.4ZM83.5,501.6l3.1-2.5-3-1-2.9,2.9,2.9.7Z"/>
    <path id="PW-AN" d="M376,123.5l1.3-4-3.3-.9,2,4.9Z"/>
    <path id="PW-AR" d="M418.4,70.8l-2.8-1.1-3.5,3.4-1.9-.7,1.3,4.2,4.1-1.4,2.5.8.3-5.3Z"/>
    <path id="PW-AM" d="M415.6,69.7l-2.3-2.8-5.3-.9,2.2,6.5,1.9.7,3.5-3.4Z"/>
  </g>
</svg>