<?xml version="1.0" encoding="UTF-8"?>
<svg id="Layer_1" xmlns="http://www.w3.org/2000/svg" xmlns:amcharts="http://amcharts.com/ammap" version="1.1" viewBox="0 0 512 512">
  <!-- Generator: Adobe Illustrator 29.1.0, SVG Export Plug-In . SVG Version: 2.1.0 Build 142)  -->
  <g id="_x3C_defs">
    <amcharts:ammap bottomLatitude="-11.6578607" leftLongitude="140.8419695" projection="mercator" rightLongitude="155.549804687" topLatitude="-0.8713195"/>
  </g>
  <g>
    <path id="PG-WBK" d="M363.8,203.5l-9.3-1.5-9.5,8.7-2.8,8.7-12.2,4.4-4.7-3.7-6.8,4-4.9-1.1-3.7-8,5.7-7.8-3-1.8-8,17.4-5.4,1.3-1.3-3-5.7,3.7-9.1.4-8.2-4.5-14,2.5-4.2-3.2-2.9,3,1.5,8.1,22.2,7.7v5.2s8.9-3.6,8.9-3.6l4.8,1.6,5.7,6.9,26.1-.7,11.6-5.2-5.7-10.8,12.4-3.5.6-3.3,7.3-2.9-1.5-3.1,6-11.5,10.9-2.3-.9-2Z"/>
    <path id="PG-NPP" d="M241.7,305.8h-32.8c0-.1,20.1,16.9,20.1,16.9l-2.8,12.1,14.5,14.9,3.6,9.3,25.1,12.7,5.5-1.1-.6-4.8,1.2-3.1,15.6-3.3-9.1-6.9,4.4-12.4-24.4,1.4-4.7-13.1-7.2-4-2.8-17.1-5.6-1.4Z"/>
    <path id="PG-NIK" d="M431.1,174.8l-.9-2.3-1.8,2.4,2.7-.2ZM397.3,145.6v-5.6c0,0-2.6-.2-2.6-.2l-1.3,2.6,3.9,3.2ZM341.7,136.9l-3.4-1.7-3.7,2.5,7.1-.9ZM375.3,131.9l-2.7-3.2v4.6c0,0,2.7-1.4,2.7-1.4ZM343.7,128.8l-7.7-5.2,2.7,4.7-5.1,1.6,11.7,2.9,23.9,17.6,16,7,13.3,19.8v12.8c0,0,7,10,7,10l8-15.8-6.4-13-12.3-5.5-17.4-19.1-33.6-17.9ZM316.7,117.9l-9.1,3.1,7.3,6.6,9.3-.8-.4-5.6-7.2-3.4ZM295.3,83.6l-.9,4.8,7.7,2.8-6.9-7.6Z"/>
    <path id="PG-NCD" d="M218.8,356.8l-3.4-4.7-4,1.6,1.2,1.8,6.2,1.3Z"/>
    <path id="PG-MPL" d="M241.7,305.8l-8.3-2.4-8-10.6-9.9-5.2-3.9-15-4.3-4.4.6-4.6,4-1.1,25.7-.7-.9-11.9-12-12.2h-11.6s-10.7-5.1-10.7-5.1l-10.4,6.1h-20.4c0,0,8.7,8.4,8.7,8.4l-3.8,21.3-5.6,11.8,8.3,10,17.6,7.9,3.9,6.3,8.3,1.4h32.8ZM236.8,221.5l-2,4.1,8.5,7.7,1.6-7-8.1-4.8Z"/>
    <path id="PG-MBA" d="M427.3,428.4l7.4-.9-17.3-8.7-2.2.3,3.2,5.5,3.2-.9,5.7,4.8ZM449.6,417.5l-7.2,2.4,8.7,1.2-1.4-3.6ZM343.5,393.4h-3.5c0-.1-.3,2.6-.3,2.6l3.8-2.6ZM336.2,391.3l1.6,2.7-3.3-.6,3.8,1.6.6-3.5-2.7-.3ZM343.9,370.8l-9.5-7.8,4.8,9.9h2.8c0-.1-1.1,3.6-1.1,3.6l9.1,3.2,1.7-9.2-5.2,3.9-2.6-3.6ZM298.3,384.4l8.2,5.1,5.3-.9-7.5,3,11.9,5.1,7.3-.5,8.7-4.4-11-5.3.2-2.5,9.5.4,7.3-3.8-8.2,1.8-.8-2.4-22-4.9-7.3-7.8,11.1-3.8-1.4-2.6-18.3-1.6-15.6,3.3-1.2,3.1,8.5.8,14.7,9.5.8,8.3ZM330.8,353.8l-7.4-2.2,2.7,6.1-2.7,2.8,16.3,1.1-4.2-8-4.7.2ZM321.2,351.5l-5-5.3-3.4,3.2,6.6,7.4,1.8-5.2ZM391.2,337.6l-2.8,1.4,1.1,3.1,1-4,9.5,9.9.3-2.7,7.7,2.2-1.1-5.5-15.6-4.5ZM346.6,319.9l-4.4,3.2,4.1,2.2-2.6,4.8,3.3,3.5-.4-13.7Z"/>
    <path id="PG-MRL" d="M238.5,114.7l-2.3-1.6-2.7,3,5-1.3ZM205.6,103.6l-10.4,1.4-1.4,6.9,6.3-.9-.8-2.1,16.7,2.4,7.9-5-1.6-2.6.9,3-17.6-3.1Z"/>
    <path id="PG-EBR" d="M334.7,242.9l1.7-3.9,8,.5,9.8-6.5,5.9-5.7-2.3-4.4,12.3,2,8.8-4.6,1.6-3.7-5.7-6.6v-5.5c-.1,0,8.5,0,8.5,0l3-3.1,3-18.7-7.5-.7v-5.5s-5.9,1.6-5.9,1.6l-1.5,4.7-14.1-5.2,5.2,21.6-1.7,4.1.9,2-10.9,2.3-6,11.5,1.5,3.1-7.3,2.9-.6,3.3-12.4,3.5,5.7,10.8Z"/>
    <path id="PG-CPM" d="M208.9,305.6l-8.3-1.4-3.9-6.3-7.2,5.6-.6,21.7,7.2,7.3-.2,6.9,9,3.4,3.4-2.5-2.7,7.9,6.8,7.2-1.2-1.8,4-1.6,3.4,4.7,14.3,19.5,5-1.8,3.7,4.1,5.9-3.2,8.2,4.4,7.9-.4,1.7-2.8,1.9,4.4,31,3.4-.8-8.3-14.7-9.5-8.5-.8.6,4.8-5.5,1.1-25.1-12.7-3.6-9.3-14.5-14.9,2.8-12.1-20.1-17Z"/>
    <path id="PG-WPD" d="M97.5,330l-5.6-6.8-9.8-3.6,15.4,10.3ZM88.3,318l8.2,3.6-1.2-3.4-6.9-.2ZM76.1,266.6l-10.6-.9-1.4-29.1-14.6-13.6.3-4.2-41-14v45s-4.2,12.3-4.2,12.3l4.3,6.5v74.2s5.8,4.2,5.8,4.2l6.4-3.1,9.2,3.1,19.6-2.5,14.7,5.8,23.9-11.1.8-7.8-9.8-10.1-12.4-5.1-9.2,1.9-3.3-6.2-6.9,1,5.7-2,2.2,1.2,1.6,4.4,9-2.1,9.3,2.5,21.6-3.5-2.3-6.2-6.5-5,13.4,4.8,4.9-1.1-3.7-2.5,4.6,2-31.3-32v-6.7Z"/>
    <path id="PG-WHM" d="M143.9,231.5l-17.7-16.3-8.6-1.2-6.6,5.6,1.6,8.9-10.8,5.7,1.1,2.3,24.5,14.4,5.2-3.9,3.4-15.6h8Z"/>
    <path id="PG-SHM" d="M68.3,205.8l-14.6-1.7.9,7.6-4.7,7.1-.3,4.2,14.6,13.6,1.4,29.1,10.6.9,57.1-3.3-8.6-5.6,2.8-6.8-24.5-14.4-10.4.7-19.9-10.6-3.5-4.5-.8-16.2Z"/>
    <path id="PG-NSB" d="M469,221.3l-3.7-1.8,1.6,16.6,15.6,13-.9,7.9,11.2,9.5,6.5,1.1,6.6-4.9v2.7c-.1,0,1.6-3.6,1.6-3.6l-5-11.3-5.8-6.2-6.2-1.4-12.9-19.7-8.5-2.1ZM465.1,208.8l-2.3-3.2-2.8,3,3,11.9,2-11.7Z"/>
    <path id="PG-GPK" d="M152.7,267.9l-19.5-4.6-57.1,3.3v6.7c.1,0,31.4,32,31.4,32l-9.9-18.6,6.8,7.2,12.1,4.8,3.2-6.2,6.5,6.3-3.3-9.5,3.5,5.3.3-5.9,2.7,5.4,1.6-3.2,5.7,4.1.9-3.8.9,7.1,10.1.8,8.6,4.7,11.6-1.1.2,3.2,10,2.6,9.6,16.8.6-21.7,7.2-5.6-17.6-7.9-8.3-10-18.1-12.1Z"/>
    <path id="PG-EHG" d="M171.6,238.5l-23.3-4.1,3.1,14.3-9.1,5.9,11,7.3-.5,6.1,18.1,12.1,5.6-11.8,3.8-21.3-8.7-8.5Z"/>
    <path id="PG-CPK" d="M143.9,231.5h-8c0,0-3.4,15.5-3.4,15.5l-5.2,3.9-2.8,6.8,8.6,5.6,19.5,4.6.5-6.1-11-7.3,9.1-5.9-3.1-14.3-4.3-2.9Z"/>
    <path id="PG-SAN" d="M79,150.2l-34-9.8-1.7-3.3-24.4-10.6-10-1.4v79.6c0,0,41.1,14,41.1,14l4.7-7.1-.9-7.6-.8-9.7-3.4-2-27.6-1-.8-10,13.2-9.1,1.9,2.6,23.8-1.1,4-6.6.6-13.8,13.5,2.4,1-5.6Z"/>
    <path id="PG-MPM" d="M216.6,219.3l-.6-5.8-6.2-.2,2.7,6h4.1ZM174.8,197l3-3.2-2.7-4.4-3.3,4.7,2.9,2.9ZM202.3,232.4l-11.1-7.2-23.3-4.1.9-21.8-14.7-14.5-8.9-1.1-7-8.6-9.5-3.5-.6,16.2-3.9,6.3-15.9,10.4,9.3,9.4,8.6,1.2,17.7,16.3,4.3,2.9,23.3,4.1h20.4c0,0,10.4-6,10.4-6Z"/>
    <path id="PG-ESW" d="M128.8,171.7l-2.3-5.9-16.4-.5-16.6-12.2-14.6-2.8-1,5.6-13.5-2.4-.6,13.8-4,6.6-23.8,1.1-1.9-2.6-13.2,9.1.8,10,27.6,1,3.4,2,.8,9.7,14.6,1.7,7.9,1.8,32.2-3.1,15.9-10.4,3.9-6.3.6-16.2Z"/>
    <path id="PG-EPW" d="M117.6,213.9l-9.3-9.4-32.2,3.1-7.9-1.8.8,16.2,3.5,4.5,19.9,10.6,10.4-.7-1.1-2.3,10.8-5.7-1.6-8.9,6.6-5.6Z"/>
  </g>
</svg>