<?xml version="1.0" encoding="UTF-8"?>
<svg id="Layer_1" xmlns="http://www.w3.org/2000/svg" xmlns:amcharts="http://amcharts.com/ammap" version="1.1" viewBox="0 0 512 512">
  <!-- Generator: Adobe Illustrator 29.1.0, SVG Export Plug-In . SVG Version: 2.1.0 Build 142)  -->
  <g id="_x3C_defs">
    <amcharts:ammap bottomLatitude="-13.7524297333" leftLongitude="154.8090460205" projection="mercator" rightLongitude="170.3964691162" topLatitude="-4.8108496666"/>
  </g>
  <g>
    <path id="SB-CT" d="M171.8,255.1l3.1,1.3.2-1.7-3.3.4Z"/>
    <path id="SB-MK" d="M241.1,287.6l-1.5-2.8.2,3,1.3-.2ZM224.6,284.9l-1.7.7-.3,3.8,8.6,1.6-.8,4h1.4c0-.1.6,1.3.6,1.3l-.8,2.4,1.8-.3,2,2.6,4.7,2.2,1.6,2,1.8.5.2-.8,1.7,1.6h4.5l3.8,2.1,3.6-.6,7,1.2-.2-.8-4.3-.2.6-4.7-2.2-1.8-4.4-7.2-3.9.8-1.7-1.5-4.8.2-12.6-7.6-4-1.8-2.3.2Z"/>
    <path id="SB-CH" d="M79.8,177l-1.3.8,3.6.8-.8.8,1.6-.8,1,.8-.3-1.8-3.9-.5ZM90.4,179.6l-.5-2-2.1-.9-1.6,2.5,1.5,1,2.7-.5ZM41.1,146.9l-1.5,1.6.5,3.4,8.5,6.2,9.1,11.9,3.2,1.6v1.2s1.6-.5,1.6-.5l2.3,2.8,3.1-.2,2.9,1.3,1.5-1.3.3,2.1,4.6,1.5,1-1.8,2-.5-.6-2.7-4.7.9-3.2-2.2-.9-2.1-2.7-1.8-.8.5-1.9-3.5-.6-4-2.9-3.2-9.9-4.6-5.2-4.6-2.3-.2-1.3-1.5-2.3-.3Z"/>
    <path id="SB-WE" d="M82.8,227.5l-1.5-.7-3.7,1.1,7.4,2.5-2.2-2.9ZM106,232.1l2-1.7-1.1-.4-.5-3.7-2.3,4,1.9,1.8ZM98.8,221.1v-1.7c-.1,0-2,.8-2,.8l-.2,2.1-2.1-.5-.8,2.6.2,2.2,4.3,3,4-2.9-.5-1.8,1-1-2-.3,2.7-1.7-1.2-1.7-3.4.8ZM74.8,222l1.3-2.7-1.8-3.3-1.8.7-4.4,5.1,2.9,2,1.3,3,3.3,1.3.6-.4-3.2-2.7.3-2.8,1.5-.3ZM66.3,212.9l-2-4.8-3-.4,4.9,5.2ZM64.2,206.3l4.2,5-.8-3.9-3.4-1ZM53.3,202.4l-.9,1.2,2.1,1-1.2-2.2ZM84.6,207.5l-1-1.3-.2-5.7-3.9-1.8-1.7.5-3.2,2.7-2.1,5.4-3.5,1.2v3.8c.1,0,2.7.8,2.7.8l1.8-2.4,7.8-.5,3.1,4.9-.7.9-1.2-1-.7-2.4.5,4.3,1.1,1.2,5.7,2.3,2.1,3.4-.5-2.4,3.4,1,.8-3.9-2.6-5.5-3.5-4.2-4,.5v-2ZM45.5,207.6v-5.7c0,0-2.1-3.9-2.1-3.9l-.4,5.8,1.5,3.7,1,.2ZM67.5,204.3l.6-4-1.2-3.5-3-2.3-3.4.9-2.1,4,2.1,4.1,2,1.6,2.7-.2.8.9,1.4-1.6ZM43.7,193.3l-.7-1-.7,1h1.5ZM45.8,183.8l-3,.9-1.3,3.2,4.5,5v2.5c-.1,0,1.7.5,1.7.5v2.1s1.6.2,1.6.2l.8-.5-.6-1.8,4.2-5.7-3.5-1.3-4.2-5ZM6.4,174.4h-1.1l-1.3,2,3.4.3.8-.7-1.8-1.6ZM15.7,162.9l-3.1-2.1-2.4,4.7,2.4,1.3,4.4-1,.6-1.9-1.9-1.1ZM26.5,157.4l-1.5-.7,1.3-1.7-1.8.6.3,1.5,1.1,1.1-1.7,3,1.3-.5.3.8,1.1-2.1h1.5l-1.9-2Z"/>
    <path id="SB-TE" d="M507.8,365.1l.2-.7-.9.6h.8ZM437.6,340.5l.8-1.4-1.5.4.7,1ZM434.1,338.1h-2.4c0,.1-1.4,1.7-1.4,1.7l2.9,3.1h5.3c0-.1-.2-1.7-.2-1.7h-2.1c0,.1.4-2.4.4-2.4l-2.5-.8ZM422.5,325.4l-1.5-2-1.8,2.4,1.2-.4.3,1.9,1.8-2ZM403.5,302.1h-6.9c0,.1-2.1,4.2-2.1,4.2l-1.1-2-1.5,1.6.7,3.2,2.7-.8.8,2.1,2.7-3.6,4.6-.3,3-1.6.4-2.1-3.1-.6ZM410.3,285.4l-.2,3.5,1.6-1.5-1.4-.2v-1.9Z"/>
    <path id="SB-IS" d="M161.1,218.7l-.9-3.8-2.9.2-.3,3.1,4.9,2.7.8-.8-1.6-1.4ZM114.3,184.2h-4s1.7,2.2,1.7,2.2l2.2.2-.5-1.3,4.4,1.8-.9-1.6-3-1.4ZM120.9,184.4l-5.7-1.6,5.3,4.8v3.3l4.5,2.6,2.5,3.2,2.4.5.5,2.1,3.5,1.5.4,1.3,1.1-.5,1.3,1.8,2.9.2.2,1.1,4.6,2.6,2.4.3,2.6,2.6,10.7,3.7,7.5,7.1,2.8.3-3.1-5-1.4.2-.9-1.1,1.8-.4,1.4-2.3-15.5-11.2-1.1-1.9-3.8.2-3.5-2v-.9s-4.7-.3-4.7-.3l-1.1-1.7-2.6-.8v-1.4c.1,0-4.3-2.6-4.3-2.6l-4.6-5.4-1.4.6-2.3-1.9-2.2.9ZM109.9,180.5l-1.6-.2,5.9,3.2-.2-1.8-4.2-1.2ZM108.5,177l-2.8,1.8,2.1,1.3.3-1.3.8.5-.3-2.4Z"/>
    <path id="SB-GU" d="M171.8,255.1l-8.7-7.1-3.5,1.8-.9,2.5,1.3,4.9-1,1.3,4.6,7.1,4.2,3.3,2-.4,5.5,1.6,10.9-.3,4.3,2.8,8,1.8,6.8-2.7-1.5-5.4-4.3-1.1-1.7-4.4-4.7-1.8-5.2-4.7-12.8.4-.2,1.7-3.1-1.3Z"/>
    <path id="SB-CE" d="M167.7,242.5l-1.1,1,.9,1.6v-2.6ZM189.2,244l-3.3-3.2-1.1,3-2.6,1.3,1.3.7,2-1.2,2.3,1,1.3-1.6ZM144.4,241.4l.7-2-1.5,1.3-.8,3.1,2.2-1.4-.6-1ZM179.9,238.3l-.5,1.1-2.3.6,1,1.7h3.1c0,0,2.9,1.8,2.9,1.8l1.2-3.5-1.4-1.2-1.3.5-2.6-1.1ZM141.2,238.1l-1.6.2.8,1.3-2.7,1.1.9,1.8,1.3.5,2.3-1.1,1.3-2.6-1.5.2-.8-1.6ZM178.3,237.5l-1.4-1.2-.4,2.7,1.8-1.5Z"/>
    <path id="SB-RB" d="M176,334.5l-1.9-1.3-1.5,2.3,2.3,3.1,2.2-.3,3.3,2.4,3.9-.8.6,2.1,2.8,1.2,1,2.6,3.7,2.4,3.7-1.9-7.1-5.3-12.9-6.3Z"/>
    <path id="SB-ML" d="M248.9,264.9l-1.9,1.3,1.9,5v-6.3ZM228,254.3l-3-2.6,2.4,4.7-.3,7.8,1.8,2.5,1.5-1.6,2.3,3.9.9-1.7-.8-4.8-4.8-8.1ZM204.3,214l-3.2-2.2-.7.7,1.2.8-.5.8-2.8-1.3-2.2.4,5.3,8.2-2.5,1.9,5.3,15.9,3.6,6,3,1.7,2.7,3.6,5.3,2.6,4.5,7.6,3.3,1.6-.2-4.3-5.4-8.3h1.6c0-.1-1.3-3.3-1.3-3.3l1.5-.7-3.1-1.8,1-1.3-1.4-.8-.6-2.8-1.2-.9,1-.5-.7-1-3.5-1.9-1.4-2.2-1.8.4-1.1-1.4-.2-4.7,2.3-1.1v-1.5c.1,0-7.7-10.1-7.7-10.1Z"/>
  </g>
</svg>