<svg xmlns="http://www.w3.org/2000/svg" xmlns:amcharts="http://amcharts.com/ammap" id="Layer_1" viewBox="0 0 512 512"><g id="_x3C_defs"><amcharts:ammap bottomLatitude="-13.752" leftLongitude="154.809" projection="mercator" rightLongitude="170.396" topLatitude="-4.811"/></g><g><path id="SB-CT" d="m171.8 255.1 3.1 1.3.2-1.7z"/><path id="SB-MK" d="m241.1 287.6-1.5-2.8.2 3zm-16.5-2.7-1.7.7-.3 3.8 8.6 1.6-.8 4h1.4c0-.1.6 1.3.6 1.3l-.8 2.4 1.8-.3 2 2.6 4.7 2.2 1.6 2 1.8.5.2-.8 1.7 1.6h4.5l3.8 2.1 3.6-.6 7 1.2-.2-.8-4.3-.2.6-4.7-2.2-1.8-4.4-7.2-3.9.8-1.7-1.5-4.8.2-12.6-7.6-4-1.8-2.3.2Z"/><path id="SB-CH" d="m79.8 177-1.3.8 3.6.8-.8.8 1.6-.8 1 .8-.3-1.8-3.9-.5Zm10.6 2.6-.5-2-2.1-.9-1.6 2.5 1.5 1 2.7-.5Zm-49.3-32.7-1.5 1.6.5 3.4 8.5 6.2 9.1 11.9 3.2 1.6v1.2l1.6-.5 2.3 2.8 3.1-.2 2.9 1.3 1.5-1.3.3 2.1 4.6 1.5 1-1.8 2-.5-.6-2.7-4.7.9-3.2-2.2-.9-2.1-2.7-1.8-.8.5-1.9-3.5-.6-4-2.9-3.2-9.9-4.6-5.2-4.6-2.3-.2-1.3-1.5-2.3-.3Z"/><path id="SB-WE" d="m82.8 227.5-1.5-.7-3.7 1.1 7.4 2.5zm23.2 4.6 2-1.7-1.1-.4-.5-3.7-2.3 4zm-7.2-11v-1.7c-.1 0-2 .8-2 .8l-.2 2.1-2.1-.5-.8 2.6.2 2.2 4.3 3 4-2.9-.5-1.8 1-1-2-.3 2.7-1.7-1.2-1.7-3.4.8Zm-24 .9 1.3-2.7-1.8-3.3-1.8.7-4.4 5.1 2.9 2 1.3 3 3.3 1.3.6-.4L73 225l.3-2.8 1.5-.3Zm-8.5-9.1-2-4.8-3-.4 4.9 5.2Zm-2.1-6.6 4.2 5-.8-3.9-3.4-1Zm-10.9-3.9-.9 1.2 2.1 1zm31.3 5.1-1-1.3-.2-5.7-3.9-1.8-1.7.5-3.2 2.7-2.1 5.4-3.5 1.2v3.8c.1 0 2.7.8 2.7.8l1.8-2.4 7.8-.5 3.1 4.9-.7.9-1.2-1-.7-2.4.5 4.3 1.1 1.2 5.7 2.3 2.1 3.4-.5-2.4 3.4 1 .8-3.9-2.6-5.5-3.5-4.2-4 .5v-2Zm-39.1.1v-5.7l-2.1-3.9-.4 5.8 1.5 3.7 1 .2Zm22-3.3.6-4-1.2-3.5-3-2.3-3.4.9-2.1 4 2.1 4.1 2 1.6 2.7-.2.8.9 1.4-1.6Zm-23.8-11-.7-1-.7 1h1.5Zm2.1-9.5-3 .9-1.3 3.2 4.5 5v2.5c-.1 0 1.7.5 1.7.5v2.1l1.6.2.8-.5-.6-1.8 4.2-5.7-3.5-1.3-4.2-5Zm-39.4-9.4H5.3l-1.3 2 3.4.3.8-.7zm9.3-11.5-3.1-2.1-2.4 4.7 2.4 1.3 4.4-1 .6-1.9-1.9-1.1Zm10.8-5.5-1.5-.7 1.3-1.7-1.8.6.3 1.5 1.1 1.1-1.7 3 1.3-.5.3.8 1.1-2.1h1.5z"/><path id="SB-TE" d="m507.8 365.1.2-.7-.9.6h.8Zm-70.2-24.6.8-1.4-1.5.4zm-3.5-2.4h-2.4c0 .1-1.4 1.7-1.4 1.7l2.9 3.1h5.3c0-.1-.2-1.7-.2-1.7h-2.1c0 .1.4-2.4.4-2.4l-2.5-.8Zm-11.6-12.7-1.5-2-1.8 2.4 1.2-.4.3 1.9 1.8-2Zm-19-23.3h-6.9c0 .1-2.1 4.2-2.1 4.2l-1.1-2-1.5 1.6.7 3.2 2.7-.8.8 2.1 2.7-3.6 4.6-.3 3-1.6.4-2.1-3.1-.6Zm6.8-16.7-.2 3.5 1.6-1.5-1.4-.2v-1.9Z"/><path id="SB-IS" d="m161.1 218.7-.9-3.8-2.9.2-.3 3.1 4.9 2.7.8-.8zm-46.8-34.5h-4l1.7 2.2 2.2.2-.5-1.3 4.4 1.8-.9-1.6-3-1.4Zm6.6.2-5.7-1.6 5.3 4.8v3.3l4.5 2.6 2.5 3.2 2.4.5.5 2.1 3.5 1.5.4 1.3 1.1-.5 1.3 1.8 2.9.2.2 1.1 4.6 2.6 2.4.3 2.6 2.6 10.7 3.7 7.5 7.1 2.8.3-3.1-5-1.4.2-.9-1.1 1.8-.4 1.4-2.3-15.5-11.2-1.1-1.9-3.8.2-3.5-2v-.9l-4.7-.3-1.1-1.7-2.6-.8v-1.4c.1 0-4.3-2.6-4.3-2.6l-4.6-5.4-1.4.6-2.3-1.9-2.2.9Zm-11-3.9-1.6-.2 5.9 3.2-.2-1.8-4.2-1.2Zm-1.4-3.5-2.8 1.8 2.1 1.3.3-1.3.8.5-.3-2.4Z"/><path id="SB-GU" d="m171.8 255.1-8.7-7.1-3.5 1.8-.9 2.5 1.3 4.9-1 1.3 4.6 7.1 4.2 3.3 2-.4 5.5 1.6 10.9-.3 4.3 2.8 8 1.8 6.8-2.7-1.5-5.4-4.3-1.1-1.7-4.4-4.7-1.8-5.2-4.7-12.8.4-.2 1.7z"/><path id="SB-CE" d="m167.7 242.5-1.1 1 .9 1.6v-2.6Zm21.5 1.5-3.3-3.2-1.1 3-2.6 1.3 1.3.7 2-1.2 2.3 1 1.3-1.6Zm-44.8-2.6.7-2-1.5 1.3-.8 3.1 2.2-1.4zm35.5-3.1-.5 1.1-2.3.6 1 1.7h3.1l2.9 1.8 1.2-3.5-1.4-1.2-1.3.5-2.6-1.1Zm-38.7-.2-1.6.2.8 1.3-2.7 1.1.9 1.8 1.3.5 2.3-1.1 1.3-2.6-1.5.2-.8-1.6Zm37.1-.6-1.4-1.2-.4 2.7z"/><path id="SB-RB" d="m176 334.5-1.9-1.3-1.5 2.3 2.3 3.1 2.2-.3 3.3 2.4 3.9-.8.6 2.1 2.8 1.2 1 2.6 3.7 2.4 3.7-1.9-7.1-5.3-12.9-6.3Z"/><path id="SB-ML" d="m248.9 264.9-1.9 1.3 1.9 5zM228 254.3l-3-2.6 2.4 4.7-.3 7.8 1.8 2.5 1.5-1.6 2.3 3.9.9-1.7-.8-4.8-4.8-8.1ZM204.3 214l-3.2-2.2-.7.7 1.2.8-.5.8-2.8-1.3-2.2.4 5.3 8.2-2.5 1.9 5.3 15.9 3.6 6 3 1.7 2.7 3.6 5.3 2.6 4.5 7.6 3.3 1.6-.2-4.3-5.4-8.3h1.6c0-.1-1.3-3.3-1.3-3.3l1.5-.7-3.1-1.8 1-1.3-1.4-.8-.6-2.8-1.2-.9 1-.5-.7-1-3.5-1.9-1.4-2.2-1.8.4-1.1-1.4-.2-4.7 2.3-1.1v-1.5c.1 0-7.7-10.1-7.7-10.1Z"/></g></svg>