<svg xmlns="http://www.w3.org/2000/svg" xmlns:amcharts="http://amcharts.com/ammap" id="Layer_1" viewBox="0 0 512 512"><g id="_x3C_defs"><amcharts:ammap bottomLatitude="-22.453" leftLongitude="-176.305" projection="mercator" rightLongitude="-173.53" topLatitude="-15.366"/></g><g><path id="TO-01" d="m259.7 427.8-.3-.6-2.3 4.1-1.7 1.5.5 1.8-1 1 2.9 2.4 1.5 1.8.4-.8v-4.7l.4-3.9-.4-2.8Z"/><path id="TO-02" d="M268.8 350.6v-1.5c.1 0-1.5.4-1.5.4l-.5.8 1.7.9zm32.4-32.7 1-3.9-1.4-.6-.8 2.1-1.7 1 1.5 1.5 1.3-.2Zm-50.8-2.8v-2.2c.1 0-.4-2-.4-2l-1.1-.9h-1.5l-.6 2.8.9 2.8 2 1 .8-1.5Zm54.2-2.4 1.4-3.7-.4-1.1-2.1 2.9-1.2.7.3.8 2.1.4Zm-52.3-4.8.4-1.6-1.5-.2v2l1.1-.3Zm54.2-2.8-1.7-1.5-.7-2.2-1.1-.2.3 1.4 1.7 2.9 1.4-.3Z"/><path id="TO-03" d="m342.7 34.7.8-1.3-.3-1-3.1 1.9.5 1.3h1.1l1-1ZM209.6 5.4l-2.3.5-1.4 1.2-.2 1.5 1.2 1.4 2.1.2 1.5-1.7.4-2-1.3-1Z"/><path id="TO-05" d="m278.8 243.7 1-1.4-1.6-1.3-1 1.6.7 1.2h.9Zm50.8-15.6v-.8l-1.9-1.7-1.1-.4-3.3.3-1.5 2.5-3.3 2.1.9 2.2h2l.5-1.8.8-.7.7 2.1-1.1.5 1 2.6.9.5.3-2.5 1.6-.6 1-1.5-.7-1.2 1.2-.8 1.3 1.6.6-2.3Z"/><path id="TO-04" d="m169.4 506.6.6-.5-1.4-.5.8 1.1Zm62.3-91.6-1.8-1.4 2.4-3-1.8.6-1.6 1.4-.7 1.8 1 2 1.7 2.4 4.3 2 .5-.6 3.3 1.7 2 3 2.2 1 1.6-.4.9-1.4-.2-3.1 4-2.9.7-1.8-1-1.2h-1.8l-2.6 1.5-.8 1.8-1 .3-2.7-1-2.1 1.1-1-1.1 1.5-1.3-.2-.8-2.2-1.4z"/></g></svg>