<?xml version="1.0" encoding="UTF-8"?>
<svg id="Layer_1" xmlns="http://www.w3.org/2000/svg" xmlns:amcharts="http://amcharts.com/ammap" version="1.1" viewBox="0 0 512 512">
  <!-- Generator: Adobe Illustrator 29.1.0, SVG Export Plug-In . SVG Version: 2.1.0 Build 142)  -->
  <g id="_x3C_defs">
    <amcharts:ammap bottomLatitude="-22.4525709534" leftLongitude="-176.3052026367" projection="mercator" rightLongitude="-173.5295410156" topLatitude="-15.3655719757"/>
  </g>
  <g>
    <path id="TO-01" d="M259.7,427.8l-.3-.6-2.3,4.1-1.7,1.5.5,1.8-1,1,2.9,2.4,1.5,1.8.4-.8v-4.7c0,0,.4-3.9.4-3.9l-.4-2.8Z"/>
    <path id="TO-02" d="M268.8,350.6v-1.5c.1,0-1.5.4-1.5.4l-.5.8,1.7.9.3-.6ZM301.2,317.9l1-3.9-1.4-.6-.8,2.1-1.7,1,1.5,1.5,1.3-.2ZM250.4,315.1v-2.2c.1,0-.4-2-.4-2l-1.1-.9h-1.5c0,0-.6,2.8-.6,2.8l.9,2.8,2,1,.8-1.5ZM304.6,312.7l1.4-3.7-.4-1.1-2.1,2.9-1.2.7.3.8,2.1.4ZM252.3,307.9l.4-1.6-1.5-.2v2s1.1-.3,1.1-.3ZM306.5,305.1l-1.7-1.5-.7-2.2-1.1-.2.3,1.4,1.7,2.9,1.4-.3Z"/>
    <path id="TO-03" d="M342.7,34.7l.8-1.3-.3-1-3.1,1.9.5,1.3h1.1s1-1,1-1ZM209.6,5.4l-2.3.5-1.4,1.2-.2,1.5,1.2,1.4,2.1.2,1.5-1.7.4-2-1.3-1Z"/>
    <path id="TO-05" d="M278.8,243.7l1-1.4-1.6-1.3-1,1.6.7,1.2h.9ZM329.6,228.1v-.8c0,0-1.9-1.7-1.9-1.7l-1.1-.4-3.3.3-1.5,2.5-3.3,2.1.9,2.2h2s.5-1.8.5-1.8l.8-.7.7,2.1-1.1.5,1,2.6.9.5.3-2.5,1.6-.6,1-1.5-.7-1.2,1.2-.8,1.3,1.6.6-2.3Z"/>
    <path id="TO-04" d="M169.4,506.6l.6-.5-1.4-.5.8,1.1ZM231.7,415l-1.8-1.4,2.4-3-1.8.6-1.6,1.4-.7,1.8,1,2,1.7,2.4,4.3,2,.5-.6,3.3,1.7,2,3,2.2,1,1.6-.4.9-1.4-.2-3.1,4-2.9.7-1.8-1-1.2h-1.8c0,0-2.6,1.5-2.6,1.5l-.8,1.8-1,.3-2.7-1-2.1,1.1-1-1.1,1.5-1.3-.2-.8-2.2-1.4-4.6.8Z"/>
  </g>
</svg>