<?xml version="1.0" encoding="UTF-8"?>
<svg id="Layer_1" xmlns="http://www.w3.org/2000/svg" xmlns:amcharts="http://amcharts.com/ammap" version="1.1" viewBox="0 0 512 512">
  <!-- Generator: Adobe Illustrator 29.1.0, SVG Export Plug-In . SVG Version: 2.1.0 Build 142)  -->
  <g id="_x3C_defs">
    <amcharts:ammap bottomLatitude="-10.7916584" leftLongitude="176.0588907" projection="mercator" rightLongitude="179.8710608" topLatitude="-5.64223"/>
  </g>
  <path id="TV" d="M512.2,511.7v-2.6c0,0-.7-1.6-.7-1.6l-.4-.2.7,1.9.2,2.8v-.3ZM508.5,503.8l-.7-1.9-.7-.5,1.2,2.7.2-.3ZM417.8,389.7l1.1-1.3-.3-1.3-1.1-1.8v-3.3c-.1,0-1.1-1.8-1.1-1.8l-.3,2.9v2.2c0,0,.6,1.6.6,1.6l.2,1.3-.6,1.4-1.2,1.7,2.5-1.7ZM306.8,320.8l-1,1.7-1,2.3-.3,1.8h1c0,.1,1.4-5.8,1.4-5.8ZM347.9,247.9l-.4-2.5h-.4c0-.1-3.1-2.9-3.1-2.9l.4,1.3,2,3.8,1.2,1,.4-.7ZM26.4,84.2v-.9c0,0-.4,0-.4,0l-.7,1.8,1.1-1ZM166.6,60.1v-.6s-1-.5-1-.5l-1.6-.3.9,1.8,1.7-.3ZM.3,0L-.3.2l1.4,1.9,1.8,1.9L1.7,1.3.3,0Z"/>
</svg>