<svg xmlns="http://www.w3.org/2000/svg" xmlns:amcharts="http://amcharts.com/ammap" id="Layer_1" viewBox="0 0 512 512"><g id="_x3C_defs"><amcharts:ammap bottomLatitude="-10.792" leftLongitude="176.059" projection="mercator" rightLongitude="179.871" topLatitude="-5.642"/></g><path id="TV" d="M512.2 511.7v-2.6l-.7-1.6-.4-.2.7 1.9.2 2.8v-.3Zm-3.7-7.9-.7-1.9-.7-.5 1.2 2.7zm-90.7-114.1 1.1-1.3-.3-1.3-1.1-1.8V382c-.1 0-1.1-1.8-1.1-1.8l-.3 2.9v2.2l.6 1.6.2 1.3-.6 1.4-1.2 1.7 2.5-1.7Zm-111-68.9-1 1.7-1 2.3-.3 1.8h1c0 .1 1.4-5.8 1.4-5.8Zm41.1-72.9-.4-2.5h-.4c0-.1-3.1-2.9-3.1-2.9l.4 1.3 2 3.8 1.2 1 .4-.7ZM26.4 84.2v-.9H26l-.7 1.8 1.1-1Zm140.2-24.1v-.6l-1-.5-1.6-.3.9 1.8 1.7-.3ZM.3 0l-.6.2 1.4 1.9L2.9 4 1.7 1.3z"/></svg>