<svg xmlns="http://www.w3.org/2000/svg" xmlns:amcharts="http://amcharts.com/ammap" id="Layer_1" viewBox="0 0 512 512"><g id="_x3C_defs"><amcharts:ammap bottomLatitude="-20.252" leftLongitude="166.042" projection="mercator" rightLongitude="170.238" topLatitude="-13.072"/></g><g><path id="VU-SEE" d="m264.6 316.5-4.4.7-7.8 11.3 1.6 1.6 3.5-3.1 3.8.8 1.5 3.1-3.9 2.4 4.6-1.9-.4 2.5 2.3-1 3 3.1 10.2-1.9 2.9-8h-2.7l-7-10.4-7.2.9Zm-8 1.5 5.5-3.1-3.8-.3zm10.7-6.4-3-4.2.5 3.6 2.6.6Zm-2-27.2 5.5-3.3-5.1.9-1.8 2.1zm15.3-11 1.8-3-1.3-1.3-3 1.2v3.1h2.4Zm-25.9-25.5-2.7-.2-1.2 5.5 1.6 8.9 5.6 3.1 7.8-2.4 8.5 4.2-.7-4.9-6.3-.8-5.4-6.2-2.9.8-4.2-8.1Z"/><path id="VU-PAM" d="m257.5 206.9 2.8-2.9v-5.2l-4.6-17.3.3-6.5-3.3-5-2.2 16.7 4.7 19.8zm-24.6-36 4.5-3.7 5-9.9-13.3 2.7-8.9 9.1 4.1 2.4 8.6-.5Zm21.8-7.8.5-11.1-5.5-20.3-1.4 1.9 2.7 14.9v16.6h3.3l.4-2.1Z"/><path id="VU-MAP" d="M265.8 245.4v-2.9h-3.7zm-7.2-3.2 1.2-4.6-2.6.8-1.3 3.8zm5.3-12.3v-2.5l-6.2-3.9-4-10.3-6.9 7-10.5 3.7 7.3 6.6 7.9 2.5 12.3-3.1Zm-60.5-14.5-6-14.2-7.4-2.9-2.8 1.6-2.5 13.5 5.8 6.1 6-3.8 3.5 5.5.7 12.3 5 14 4.2.9 6.8-6.1 10.1 3.2 4.8-5.8-1.4-2.7-3.3 2.8 1.4-3.6-1.5-5.1-14.6-9.2-1.4-2.9h-3.2l-1.1-4.2v2.3l-3.1-1.6Z"/><path id="VU-TAE" d="m366 508.7 2.9-1.4.5-4-4.6-2.8-4.4.6-1.2 4.7 6.7 2.9Zm-26.4-43 3.8-8.6-9.1-4.1-.9-10.1h-6.2l-2.9 11.6 9.4 10.4zm-17.5-65.1-1.6-5.9-3-2.3-7.4 2.2-1.4 16.1 19.4 8.7 3.6-2.8.3-3.9-9.4-8.4 5.1-1.2-1.4-2.5h-4.1Z"/><path id="VU-SAM" d="M190.6 189.4v-7l-7.2-1.4-3.5 2 1.7 4.3 5.7 2.8 3.2-.7Zm-1.6-10.1-1.3-4.5-5.4 3.9zm-26.7-30.5-4.5-23.8-4.1-2.8-5.9-10.8-2.8 1.4-2.3 13 5.9 13.9 2.6 13-2.2 11.6 6.1 10.3 3.3 2.1-.2 4.6 4.2 2.1 6.2-5 11.3.5 5.5-4.9 5.6-.4-4.6-10.6 1.4-4.2-3.4-3.9.2-8.5-3.7.9-3.2-8.1 2.8-6.7-5.1-.5-2.9 2v10.7l-3 3.6-7.2.3Z"/><path id="VU-TOB" d="m210.2 78-7.9 3.6-.4 7.7 10.8-.4 2.8-7.6-5.3-3.2Zm3.4-20.6-5.8-9.6-6.1 3.3-.2 4.8 4.6 8.3 2.3-1.3-.8-2.6 6-2.8Zm7.6-11.7 2-1.5-.9-2.5-4.6 5.1zM197.5 35v-2.8c-.1 0-2.7 1.4-2.7 1.4l1.3 3.3 3.6-.6v-1.8c.1 0-2.1.4-2.1.4Zm-43.6-6.9-2-.6 1 2.7L154 28ZM150 16.9v-3.1l-3.7 1.4L150 17Zm-7.4-13.6.6 7.3 2 1.1.4-6.7-3.1-1.7Z"/></g></svg>