<?xml version="1.0" encoding="UTF-8"?>
<svg id="Layer_1" xmlns="http://www.w3.org/2000/svg" xmlns:amcharts="http://amcharts.com/ammap" version="1.1" viewBox="0 0 512 512">
  <!-- Generator: Adobe Illustrator 29.1.0, SVG Export Plug-In . SVG Version: 2.1.0 Build 142)  -->
  <g id="_x3C_defs">
    <amcharts:ammap bottomLatitude="-20.2522929" leftLongitude="166.0417588" projection="mercator" rightLongitude="170.2384597" topLatitude="-13.0724554"/>
  </g>
  <g>
    <path id="VU-SEE" d="M264.6,316.5l-4.4.7-7.8,11.3,1.6,1.6,3.5-3.1,3.8.8,1.5,3.1-3.9,2.4,4.6-1.9-.4,2.5,2.3-1,3,3.1,10.2-1.9,2.9-8h-2.7c0,0-7-10.4-7-10.4l-7.2.9ZM256.6,318l5.5-3.1-3.8-.3-1.7,3.4ZM267.3,311.6l-3-4.2.5,3.6,2.6.6ZM265.3,284.4l5.5-3.3-5.1.9-1.8,2.1,1.4.3ZM280.6,273.4l1.8-3-1.3-1.3-3,1.2v3.1c0,0,2.4,0,2.4,0ZM254.7,247.9l-2.7-.2-1.2,5.5,1.6,8.9,5.6,3.1,7.8-2.4,8.5,4.2-.7-4.9-6.3-.8-5.4-6.2-2.9.8-4.2-8.1Z"/>
    <path id="VU-PAM" d="M257.5,206.9l2.8-2.9v-5.2s-4.6-17.3-4.6-17.3l.3-6.5-3.3-5-2.2,16.7,4.7,19.8,2.3.4ZM232.9,170.9l4.5-3.7,5-9.9-13.3,2.7-8.9,9.1,4.1,2.4,8.6-.5ZM254.7,163.1l.5-11.1-5.5-20.3-1.4,1.9,2.7,14.9v16.6h3.3l.4-2.1Z"/>
    <path id="VU-MAP" d="M265.8,245.4v-2.9h-3.7l3.7,2.9ZM258.6,242.2l1.2-4.6-2.6.8-1.3,3.8h2.7ZM263.9,229.9v-2.5c0,0-6.2-3.9-6.2-3.9l-4-10.3-6.9,7-10.5,3.7,7.3,6.6,7.9,2.5,12.3-3.1ZM203.4,215.4l-6-14.2-7.4-2.9-2.8,1.6-2.5,13.5,5.8,6.1,6-3.8,3.5,5.5.7,12.3,5,14,4.2.9,6.8-6.1,10.1,3.2,4.8-5.8-1.4-2.7-3.3,2.8,1.4-3.6-1.5-5.1-14.6-9.2-1.4-2.9h-3.2l-1.1-4.2v2.3c0,0-3.1-1.6-3.1-1.6Z"/>
    <path id="VU-TAE" d="M366,508.7l2.9-1.4.5-4-4.6-2.8-4.4.6-1.2,4.7,6.7,2.9ZM339.6,465.7l3.8-8.6-9.1-4.1-.9-10.1h-6.2s-2.9,11.6-2.9,11.6l9.4,10.4,5.9.8ZM322.1,400.6l-1.6-5.9-3-2.3-7.4,2.2-1.4,16.1,19.4,8.7,3.6-2.8.3-3.9-9.4-8.4,5.1-1.2-1.4-2.5h-4.1Z"/>
    <path id="VU-SAM" d="M190.6,189.4v-7s-7.2-1.4-7.2-1.4l-3.5,2,1.7,4.3,5.7,2.8,3.2-.7ZM189,179.3l-1.3-4.5-5.4,3.9,6.7.6ZM162.3,148.8l-4.5-23.8-4.1-2.8-5.9-10.8-2.8,1.4-2.3,13,5.9,13.9,2.6,13-2.2,11.6,6.1,10.3,3.3,2.1-.2,4.6,4.2,2.1,6.2-5,11.3.5,5.5-4.9,5.6-.4-4.6-10.6,1.4-4.2-3.4-3.9.2-8.5-3.7.9-3.2-8.1,2.8-6.7-5.1-.5-2.9,2v10.7c0,0-3,3.6-3,3.6l-7.2.3Z"/>
    <path id="VU-TOB" d="M210.2,78l-7.9,3.6-.4,7.7,10.8-.4,2.8-7.6-5.3-3.2ZM213.6,57.4l-5.8-9.6-6.1,3.3-.2,4.8,4.6,8.3,2.3-1.3-.8-2.6,6-2.8ZM221.2,45.7l2-1.5-.9-2.5-4.6,5.1,3.5-1.1ZM197.5,35v-2.8c-.1,0-2.7,1.4-2.7,1.4l1.3,3.3,3.6-.6v-1.8c.1,0-2.1.4-2.1.4ZM153.9,28.1l-2-.6,1,2.7,1.1-2.2ZM150,16.9v-3.1c0,0-3.7,1.4-3.7,1.4l3.7,1.8ZM142.6,3.3l.6,7.3,2,1.1.4-6.7-3.1-1.7Z"/>
  </g>
</svg>