<?xml version="1.0" encoding="utf-8"?>
<!-- (c) ammap.com | SVG map of Caribbean - low -->
<svg xmlns="http://www.w3.org/2000/svg" xmlns:amcharts="http://amcharts.com/ammap" xmlns:xlink="http://www.w3.org/1999/xlink" version="1.1">
	<defs>
		<style type="text/css">
			.land
			{
				fill: #CCCCCC;
				fill-opacity: 1;
				stroke:white;
				stroke-opacity: 1;
				stroke-width:0.5;
			}
		</style>

		<amcharts:ammap projection="mercator" leftLongitude="-84.952363" topLatitude="27.237538" rightLongitude="-59.419059" bottomLatitude="10.044333"></amcharts:ammap>

		<!-- All areas are listed in the line below. You can use this list in your script. -->
		<!--{id:"AG"},{id:"AI"},{id:"AW"},{id:"BS"},{id:"BB"},{id:"CU"},{id:"GP"},{id:"KN"},{id:"BL"},{id:"MF"},{id:"BQ"},{id:"CW"},{id:"SX"},{id:"KY"},{id:"DM"},{id:"DO"},{id:"GD"},{id:"HT"},{id:"JM"},{id:"LC"},{id:"MS"},{id:"MQ"},{id:"PR"},{id:"TC"},{id:"TT"},{id:"VC"},{id:"VG"},{id:"VI"}-->

	</defs>
	<g>
		<path id="AG" title="Antigua and Barbuda" class="land" d="M760.05,534.83l0.56,0.74l0.78,0.68l0.27,0.47l0.32,1.36l-0.26,0.56l0.07,0.43l-0.11,0.23l0.23,0.67l-0.36,-0.29l-0.61,-0.18l0.09,0.15l-0.25,0.33l-0.02,-0.42l-0.23,-0.35l-0.37,-0.24l-0.31,-0.01l-0.88,-0.65l-0.43,-0.05l-0.72,0.44l-0.14,-0.14l0.3,-1.03l0.18,0.19l0.45,-0.21l-0.07,-0.57l0.31,-0.55l-0.36,-0.51l0.18,-0.22l0.03,-0.4l-0.43,-0.44l-0.09,0.11l-0.35,-0.11l0.02,-0.11l-0.21,0.07l-0.01,-0.75h0.42l0.05,-0.08l-0.12,-0.1l-0.08,0.1l-0.04,-0.16l0.36,-0.18l0.77,0.96l0.34,-0.09l0.17,0.22l0.32,-0.12L760.05,534.83zM757.84,536.08l-0.25,-0.29l-0.15,-0.52l-0.57,-0.54l0.57,-0.67l0.16,0.05l0.12,0.56l-0.17,0.31l0.19,0.3l-0.18,-0.05l-0.2,-0.59h-0.21l0.03,0.19l0.64,0.72l-0.03,0.23l0.26,0.27l-0.04,0.43L757.84,536.08zM757.13,554.96l-0.58,0.08l-0.17,0.15l-0.14,-0.08l0.26,-0.46l-0.01,-0.24l0.41,-0.14l-0.21,-0.11l0.08,-0.05l0.6,0.11l0.2,0.24l0.29,-0.08l0.36,0.15l-0.14,-0.22l-0.3,-0.06l0.2,-0.15h-0.41l0.32,-0.65l-0.04,-0.19l0.3,-0.2l-0.02,-0.2l0.48,-0.24l0.35,0.18l0.66,-0.08l0.17,0.33l0.24,0.08l0.06,0.38l0.48,0.26l-0.09,0.19l-0.15,-0.1l-0.01,0.24l-0.26,0.13l0.02,0.14l0.13,-0.05l-0.08,0.12l0.31,-0.14l0.02,0.45l0.21,-0.14l0.12,0.03l-0.12,0.13l0.31,-0.05l0.01,-0.26l-0.15,-0.1l0.56,-0.51l0.07,0.27l-0.27,0.22l0.12,0.32l0.14,-0.25l0.6,-0.17l0.03,-0.17l0.29,0.08l-0.36,0.31l-0.57,0.15l0.11,0.19l0.44,-0.04l0.12,0.12l-0.17,0.13l-0.06,0.46l0.13,-0.22l0.45,-0.12l-0.12,0.21l0.26,-0.13l0.01,0.17l0.03,-0.15l0.12,0.06l-0.06,-0.11l0.19,-0.02l-0.18,-0.05l0.03,-0.11l0.33,0.01l0.08,0.17l0.47,-0.11l-0.24,0.18l0.34,-0.18l-0.11,0.26l-0.16,0.04l0.12,0.02l-0.05,0.36l-0.23,-0.01l-0.06,-0.23v0.23l-0.39,0.08l0.05,0.14l-0.32,0.23l0.36,-0.2l0.32,0.3l0.43,-0.2l0.09,0.21l-0.11,0.04l0.23,0.11l-0.18,0.08l0.15,0.2l-0.14,0.21l0.16,0.04l-0.16,0.15l-0.15,-0.12l-0.04,0.19l-0.19,0.03l0.15,0.17l-0.24,0.02l0.01,0.12l-0.64,-0.04l-0.71,-0.39l-0.37,-0.04l0.16,0.58l0.3,0.29l-0.13,0.25l-0.03,-0.18l-0.15,0.08l0.16,0.41l-0.3,-0.13l0.14,0.08l-0.24,0.19l-0.46,-0.04v-0.24l-0.29,0.19l-0.31,-0.17l0.29,-0.31v-0.25l-0.36,0.01l-0.22,0.33l0.08,0.19l-0.49,-0.29h-0.29l-0.08,0.22l-0.71,0.16l0.01,-0.41l-0.36,0.12l-0.07,-0.18l-0.44,0.02l-0.06,-0.19l-0.72,0.03l-0.26,-0.17l-0.13,-0.56l0.07,0.1l0.08,-0.17l-0.15,0.04l-0.13,-0.28l0.22,-0.09l0.12,-0.35l-0.25,-0.27l0.39,0.24l-0.02,-0.27l-0.06,0.11l-0.18,-0.29l-0.45,0.03l-0.04,-0.09l0.51,-0.26l0.31,0.06l0.23,-0.44L757.13,554.96zM741.81,560.4l0.14,0.23l-0.12,0.24l-0.12,-0.03l-0.03,-0.23L741.81,560.4z"/>
		<path id="AI" title="Anguilla" class="land" d="M722.14,514.15l0.12,0.1l0.43,-0.06l-0.06,0.09l0.18,0.1l-0.33,0.18l-0.41,0.01l-0.19,0.3l-0.25,0.01l0.15,-0.16l-0.06,-0.33L722.14,514.15zM711.83,514.7l0.1,-0.13l0.3,0.04l0.02,0.12l0.4,-0.1l-0.58,0.34l-0.3,-0.08l-0.06,-0.17L711.83,514.7zM717.31,517.57l0.02,-0.2l-0.15,-0.05l0.9,-0.49l-0.01,-0.33l-0.17,-0.14l0.65,-0.5l0.85,-0.38l0.19,0.11l0.63,-0.23l0.08,0.19l0.38,-0.26l0.28,0.02l0.36,-0.47h0.14l-0.05,0.39l-0.64,0.5l0.22,0.33l-0.03,0.13l-0.16,-0.05l0.03,0.35l-0.2,-0.02l0.01,0.2l-0.25,0.08l-0.34,-0.1l-0.14,0.49l-0.71,0.19l-0.05,0.2l-0.36,0.01l-0.11,0.2l-0.47,0.11l-0.08,0.16l-0.08,-0.18l-0.28,0.51l-0.35,0.13l-0.54,0.1v-0.27l-0.29,-0.09l-0.45,0.34l-0.2,-0.21l-0.15,0.03l-0.11,0.4l-0.05,-0.13l-0.22,0.15l-0.29,-0.13l-0.48,0.17l0.36,-0.43l0.19,0.03l0.3,-0.3l0.35,-0.11l0.12,-0.27L717.31,517.57z"/>
		<path id="AW" title="Aruba" class="land" d="M492.17,709.05L492.38,708.95L492.46,709.09L492.58,709.15L492.8,709.39L492.97,709.46L492.96,709.59L493.03,709.81L493.12,709.87L493.29,709.97L493.34,710.11L493.61,710.22L493.97,710.64L494.04,710.79L494.24,710.8L494.42,711.03L494.52,711.52L494.79,712.06L494.84,712.39L494.93,712.87L495.05,713.03L495,713.16L494.79,713.24L494.73,713.19L494.56,713.18L494.44,713.22L494.43,713.07L494.33,712.97L494.24,712.91L494.06,712.96L493.86,712.78L493.72,712.76L493.65,712.62L493.25,712.61L493.03,712.57L492.99,712.52L493.02,712.44L492.85,712.31L492.59,712.26L492.44,712.18L492.3,712.03L492.14,711.97L492.03,711.84L491.92,711.75L491.77,711.6L491.66,711.55L491.6,711.44L491.42,711.36L491.32,711.29L491.08,711.09L491.05,711.05L490.96,710.95L490.81,710.94L490.77,711.03L490.7,711.03L490.57,710.82L490.28,710.69L490.24,710.63L490.28,710.53L490.05,710.34L489.96,710.34L489.66,710.17L489.65,709.98L489.58,709.86L489.44,709.83L489.3,709.74L489.22,709.63L488.95,709.45L488.9,709.31L488.78,709.29L488.72,709.09L488.55,709L488.56,708.9L488.82,708.49L488.8,708.31L489.06,708.02L489.16,707.59L488.99,707.13L488.87,706.62L488.71,706.43L488.75,706.22L488.95,706.17L489,706.24L489.13,706.3L489.26,706.5L489.54,706.64L489.61,706.76L489.85,706.86L490.06,707.12L490.19,707.41L490.34,707.52L490.63,707.88L490.86,708.05L491.04,708.32L491.16,708.38L491.32,708.42L491.6,708.57L491.85,708.77L492.01,708.76L492.06,708.85L492.07,709.07z"/>
		<path id="BS" title="Bahamas" class="land" d="M217.16,197.35l0.42,0.29l-0.36,0.37l-0.53,-0.22L217.16,197.35zM217.68,197.74l0.58,0.51l-0.98,-0.29L217.68,197.74zM218.99,198.78l0.73,0.21l-1.11,-0.06L218.99,198.78zM227.12,202.7l0.84,0.16l-0.51,0.43L227.12,202.7zM222.44,204.85l0.09,0.82l-1.08,0.39l-0.51,2.17l0.21,-1.66l-0.52,-0.09L222.44,204.85zM238.35,206.28l1.72,0.81l-1.29,-0.22L238.35,206.28zM255.07,226.78l-0.74,0.36l0.14,-0.37l-0.87,-0.23l1.01,-0.22l0.52,-1.87l-0.75,-0.5v0.59l-0.88,-0.42l0.58,-0.7l-0.59,-0.12l0.46,-0.38l1.35,0.47l0.27,-0.27l-0.15,0.51l0.82,0.09l-0.71,0.33l0.19,0.51l0.81,-0.58l0.2,-0.81l-0.42,-1.32l-0.22,0.4l-0.94,-0.11l0.03,-0.62l-1.43,0.14l-0.33,-0.36l-0.08,0.38l-0.54,0.06l-0.02,-0.43l-0.7,0.45l-0.13,-0.43l-0.84,-0.12l-0.03,-0.37l-0.64,0.13l-0.77,-0.61l-0.15,-0.93l0.82,-1.17l-0.09,-0.39l-0.67,0.11l-0.42,-1.23l-0.62,0.85l-1.5,-0.11l-1.03,-1.45l0.02,-2.48l-0.59,-0.61l-0.52,0.11l0.6,-0.13l-0.15,-0.45l-1.81,-2.06l-3.04,0.73l-2.99,-1.57l-0.68,0.76l-0.51,-0.67l-1.73,-0.01l-0.78,-0.49l1.81,-0.11l4.68,0.8l1.46,-0.37l0.05,-0.53l4.82,3.88l1.94,2.51l2.46,1.61l0.05,0.56l1.18,0.18l-0.99,0.8l-0.67,-1.17l0.34,1.12l1.22,1.34l1.55,0.92l1.64,-0.2l3.28,2.28l1.03,-0.35l-0.46,1.48l0.51,0.64l-0.6,0.67l-0.1,1.38l0.14,0.65l0.51,0.16v0.95l0.67,0.61l0.66,-0.26l0.05,0.7l-1.02,0.05l-0.24,0.83l0.65,0.7l0.78,-0.52l-0.6,1.5l-0.59,-0.13l-0.76,1l-0.35,-0.72l0.81,-0.16l-0.26,-0.58l-2.19,0.8l-2.18,2.9l0.01,3.64l-0.66,2.23l0.58,6.79l-1.05,0.44l-1.43,-2.2l-0.91,-0.58l0.26,-1.43l-0.39,-0.76l-2.47,-0.17l-1.39,-0.73l0.16,-0.9l0.41,0.24l-0.18,0.47l0.99,-0.31l0.28,-0.31l-0.31,-0.36l1.31,-1.21l1.98,-0.9l1.97,-1.96l-1.04,-0.34l0.59,-0.7l-0.25,-0.94l-0.58,-0.17l-0.16,0.51l-0.36,-0.35l1.82,-1.85l-0.39,-0.34l0.39,-0.39l-0.32,-0.66l-1.33,-0.81l1.24,-0.53l0.23,-0.85l0.35,0.38l1.15,-0.14l-0.09,-0.49l-1.59,-0.16l-0.01,-1.02l-0.72,-0.35l0.12,-0.37l0.69,0.34l0.88,-0.91l0.46,0.15l-0.02,-0.74L255.07,226.78zM232.13,210.58l0.3,0.2l-0.36,0.15L232.13,210.58zM231.23,210.62l0.34,0.26l-0.36,0.22L231.23,210.62zM244.13,212.02l-0.98,-0.58v-0.61l0.74,0.33l-0.33,0.3L244.13,212.02zM248.33,211.73l1.08,1.05l-0.69,-0.21L248.33,211.73zM230.24,212.18l0.33,0.69l-0.53,0.1L230.24,212.18zM229.71,212.62l0.26,0.38l-0.36,0.02L229.71,212.62zM249.18,212.68l0.4,0.36l-0.59,0.01L249.18,212.68zM244.68,213.16l0.48,0.36l-0.93,-0.45L244.68,213.16zM230.27,219.12l-2.83,-0.5l-3.66,0.48l-2.69,0.89l-5.89,0.58l-6.15,2.29l-2.57,1.66l-0.98,0.17l-2.45,-0.56l-7.72,-6.79l0.29,-0.49l2.74,1.8l-0.48,-0.99l-0.5,-0.09l0.46,-0.1l1.01,1.56l0.75,0.04l0.35,1.21l0.67,0.55l0.11,-0.47l0.51,0.01l-0.06,1.42l2.48,1.34l0.09,-1.02l0.76,0.03l0.03,-0.51l0.36,0.36l0.9,-0.18l0.17,-0.94l1.25,-0.12l0.04,-0.66l1.65,-1.84l-0.33,-0.29l0.65,-0.78l-0.15,-0.77l-0.67,0.37l-0.23,-0.55l-0.61,0.44l-0.19,-0.38l0.63,-0.2l-0.17,-0.33l0.84,-0.02l-0.1,-1.38l1.03,-0.91l0.47,1.36l0.35,-0.25l-0.27,1.3l0.71,0.58l1.43,-0.76l1.77,1.32l0.4,-0.81l0.24,0.66l0.64,0.34l-0.01,-0.56l0.57,0.78l1.75,-0.25l0.36,0.34l0.48,-0.39l0.26,0.44l1,-1.56l0.14,0.68l0.98,0.41l1.9,-0.48l0.13,-0.69l1.32,1.26l0.86,-1.03l1.4,-0.31l2.22,0.44l0.79,-0.64l0.35,0.47l-0.02,-0.65l0.42,0.35l0.46,-0.42l0.19,-1.15l0.59,1l-0.25,1.41l0.35,1.1l0.97,0.41l0.57,0.92l-1.91,0.96L230.27,219.12zM249.88,214.32l-0.13,-0.88l1.03,1.76l-0.68,-0.22L249.88,214.32zM211.57,214.11l0.34,1.03l-0.52,0.06L211.57,214.11zM212.62,214.16l0.09,0.79l-0.73,-0.04l-0.16,-0.64l0.62,0.55L212.62,214.16zM210.89,215.16l0.57,0.16l-0.66,0.48L210.89,215.16zM218.48,215.19l0.88,0.67l-0.1,0.61l-0.96,-0.52l-0.19,-0.64L218.48,215.19zM258.08,218.7l-2.05,-0.89l-0.67,-0.76l0.39,-0.16L258.08,218.7zM246.62,219.88l-0.25,-0.83l0.47,-0.35l-0.17,1.11l0.33,0.3l0.08,-0.29l0.14,0.82l-0.54,-0.15L246.62,219.88zM233.31,218.96l0.05,0.54l-0.6,0.01L233.31,218.96zM233.27,219.54l0.23,0.24l-0.56,0.47l-1.66,-0.09L233.27,219.54zM232.59,220.41l0.99,-0.56l0.26,0.27l-0.96,2.03l-1.34,-1.71L232.59,220.41zM206.38,219.88l0.36,0.78l-0.33,-0.47l-0.36,0.2L206.38,219.88zM201.71,220.39l0.54,0.34l-0.58,0.06L201.71,220.39zM249.53,220.59l0.88,0.75l-0.07,0.5L249.53,220.59zM233.77,221.04l0.11,0.77l-0.66,1.31l-0.56,-0.92l0.56,-0.51l0.05,0.68L233.77,221.04zM201.87,221.96l0.71,-0.93l-0.33,1.13L201.87,221.96zM203.72,221.09l-0.52,0.71l0.33,1.04l-0.63,-0.37l0.02,-0.68L203.72,221.09zM202.98,221.4l-0.31,0.99l-0.16,-0.73L202.98,221.4zM254.59,221.94l0.2,0.43l-0.29,-0.15l-0.22,0.6l-0.19,-0.49L254.59,221.94zM261.55,224.36l0.71,-2.17l0.15,0.82L261.55,224.36zM250.41,222.9l1.12,0.31l-1.01,0.31L250.41,222.9zM253,223.98l-0.02,0.36l-0.57,-0.47l0.33,-0.84l0.64,-0.11L253,223.98zM252.09,226.25l0.22,-0.52l-0.38,0.22l-0.29,-0.57l0.63,0.14l-0.26,-0.66l-0.84,-0.22l0.05,-0.71l1.06,0.48l0.21,-0.42l0.98,0.95l-0.57,1.43L252.09,226.25zM261.58,224.43l-0.15,2.54l-0.38,-1.88L261.58,224.43zM253.73,224.85l0.1,1.13l-0.41,-0.38L253.73,224.85zM251.7,227.59l-0.34,0.68l0.82,-1.81l1.07,-0.2l-0.29,0.68l-0.62,0.08l0.13,0.36L251.7,227.59zM253.15,227.53l-0.55,-0.11l0.87,-0.71l0.36,0.5L253.15,227.53zM253.37,228.74l0.4,0.21l0.03,0.88l-0.67,0.34l-0.16,-1.19l-0.47,0.3l-0.46,-1.11l0.53,0.52l0.08,-0.58l0.32,0.32l0.36,-0.43L253.37,228.74zM251.39,228.48l-0.01,0.59l0.61,-0.02l-0.26,0.24l-0.48,-0.05L251.39,228.48zM251.7,230.98l0.02,0.4l-0.42,-0.14l0.37,-0.67l-0.31,-0.67l-0.51,-0.02l0.04,0.39l-0.5,-0.37l1.18,-0.3L251.7,230.98zM242.47,231.76l-0.44,-1.32l1.39,1.15l-0.88,0.86l-0.1,0.81l-0.56,0.04L242.47,231.76zM242.87,234.02l-0.09,0.42l-0.25,-0.25L242.87,234.02zM231.06,248.78l0.45,0.36l-0.97,-0.13L231.06,248.78zM233.97,251.95l0.4,1.74l-1.35,-0.94l-0.94,-1.9l-0.31,0.28l-0.05,-1.93l1.54,2.63L233.97,251.95zM186.81,250.59l0.59,1.64l-0.26,-0.4l-0.77,0.57l0.33,-1.62L186.81,250.59zM185.52,252.66l1.74,0.99l-1.62,-0.22l-0.4,0.48l0.21,-1.35L185.52,252.66zM288.76,278.83l0.38,-3.38l-0.97,-1.87l-1.68,-0.79l-3.07,-3.12l-1.52,-2.61l-4.69,-0.99l-2.87,-2.13l-0.53,-1.09l-1.59,0.15l-1.51,-0.45l-1.5,0.49l-1.02,0.77l-0.63,1.62l-1.88,2.09l2.97,-4.77l1.3,-3.27l-0.46,-0.92l2.17,0.3l-1.12,0.2l-0.02,0.86l1.31,0.44l0.61,1.61l0.75,0.24v-0.65l0.58,1.18l2.93,2.35l2.95,1.41l2.01,-0.41l3.49,4.57l3.72,2.15l1.13,1.18l-0.01,3.39l-0.87,2.35l-0.67,0.61l0.76,2.15v1.89l-1.87,3.39l1.65,4.85l-1,-0.68l-1.82,-3.71l-1.83,-1.37l-1.36,-0.38l-0.61,-1.68l0.08,-0.37l2.91,2.05l1.7,-0.46l0.3,-0.54l-0.42,-0.48l0.74,0.36l0.94,-1.1l-0.51,-1.56l-0.68,0.13l0.06,1.36l-0.78,-0.95l0.36,-2.6L288.76,278.83zM268.65,258.79l0.77,0.44l-2.27,-0.15L268.65,258.79zM265.64,260.26l1.64,-0.69l-2.34,0.94L265.64,260.26zM237.5,259.8l-0.16,1.33l-0.65,0.68L237.5,259.8zM234.7,264.37l0.05,-0.44l1,-0.33l0.36,-0.94l-0.06,1.07L234.7,264.37zM233.7,262.84l-0.59,1.24l-2.05,-0.03l0.54,-0.57l1.56,0.18L233.7,262.84zM234.27,263.88l0.17,0.4l-0.89,0.35L234.27,263.88zM223.59,266.76l0.38,1l-0.31,0.19L223.59,266.76zM224.03,267.86l0.4,0.68l-0.41,0.29l-0.36,-0.35l0.31,-0.22l-0.6,-0.19L224.03,267.86zM223.88,269.02l0.45,0.37l-0.51,-0.04L223.88,269.02zM229.29,276.66l-0.38,0.24l-0.31,2.11l0.57,0.37l0.17,-0.52l0.84,0.49l-0.28,1.36l0.47,1.62l6.03,7.98l0.28,1.05l-0.63,1.81l1.41,3.95l-0.6,1.02l-2.79,0.53l-1.7,1.16l-0.68,-0.51l0.16,0.51l-0.55,0.39l1.27,0.3l-0.85,0.98l0.19,0.31l-1.94,1.25l-0.94,-0.89l-0.21,0.6l-1.94,0.96l0.95,0.8l-0.11,0.41h-1.13l-1.88,-3.4l-0.98,-0.24l-1.55,-1.34l0.28,-1.08l1.46,-1.48l0.15,-0.93l-2.79,2.57l-1.37,-0.47l-4.11,-2.8l-2.84,-2.75l2.41,-1.65l-0.25,-0.67l0.98,-0.02l-0.83,-0.61l0.63,-0.98l0.67,1.35l-0.17,-0.95l0.83,-0.03l0.11,-0.94l0.77,-0.53l-0.32,-0.76l0.89,-0.48l-0.22,-0.53l0.57,-0.05l0.74,-1.5l1.17,-0.61l1.13,-1.98l-0.41,-1.48l0.87,-1.09l0.19,-2.5l-1.75,-3.95l-0.15,-1.67l2.49,0.47l-0.42,0.27l0.99,0.52l0.06,0.53l1.16,-0.2l0.89,0.37l0.32,-0.37l-0.91,-0.37l0.88,-0.52l0.3,0.4l0.77,-0.29l1.12,1.93l-0.63,1.36l0.77,0.34l-0.06,-0.57l0.46,0.34L229.29,276.66zM244.66,276.48l2.78,-0.61l0.78,0.29l0.73,-0.68l1.92,0.53l1.71,1.27l-0.46,0.7l-2.41,0.51l-1.42,0.87l-0.61,-0.37l-1.7,0.48l-3.24,-1.22L244.66,276.48zM266.83,285.03l-0.33,0.88l0.66,-1.72L266.83,285.03zM267.06,288.29l-0.18,1.05l-0.39,-0.64L267.06,288.29zM309.18,298.84l1.54,2.37l3.32,2.56l2.12,3.66l0.67,2.32l-1.26,-0.78l-1.9,0.62l-1.02,-0.25l-1.29,1.15l-2.25,-1.26l4.19,-2.12l0.26,-1.65l-0.77,-1.36l-1.6,-0.41l-4.19,-7.93l-1.72,-0.14l0.33,-1.24l-0.48,-1.39l-1.91,-1.55l-0.8,0.21l-0.79,-1.44l2.37,-0.44l2.11,1.93l0.14,2.17l1.65,1.98L309.18,298.84zM213.33,290.19l0.2,0.5l0.51,-0.11l0.08,0.68l-1.28,0.63l-0.57,-0.61L213.33,290.19zM267.06,291.31l0.46,0.85l-0.59,1.34L267.06,291.31zM294.73,293.41l2.63,0.74l-1.47,0.27L294.73,293.41zM267.95,294.5l0.52,0.54l-0.12,1.24l-0.91,-0.99L267.95,294.5zM268.67,296.37l0.33,1.58l-0.36,0.11l-0.27,-1.52L268.67,296.37zM236.8,302.69l-1.6,0.9l-0.71,-0.39l0.57,-0.89l-0.94,0.21l1.3,-1.17l-0.39,-0.21l0.31,-0.4l0.98,-0.12l0.15,-0.69l1.08,-0.6l1.04,3.08L236.8,302.69zM231.96,302.83l-0.17,-0.51l2.02,-0.41l-0.42,0.89l-0.88,0.48L231.96,302.83zM231.61,302.66l-0.11,0.51l-0.47,-0.09L231.61,302.66zM230.58,302.9l0.43,0.25l-0.27,0.29l-0.69,-0.28L230.58,302.9zM275.67,303.43l-0.08,0.4l-0.36,-0.15L275.67,303.43zM231.71,303.4l0.36,0.22l-1.82,0.5L231.71,303.4zM240.27,306.44l-0.12,0.51l-1.08,0.12l-1.11,1.29l-0.62,0.03l-0.26,1.05l-1.12,0.47l0.67,0.49l1.46,-0.13l-0.86,2.91l-1.25,-0.54l-0.37,0.37l-0.9,-0.21l-0.32,0.33l1.06,0.56l-1.46,0.9l-1.42,-1.17l0.05,-1.1l-0.79,0.15l-1.26,-0.63l-0.02,-0.5l1.29,0.19l-1.02,-2.05l1.68,0.15l1.49,-3.23l1.83,-1.41l3,-1.19l0.51,1.72l1.21,0.56L240.27,306.44zM235.71,304.29l-0.9,0.71l-1.19,-0.32l0.92,0.13l0.25,-0.53l1.62,-0.38L235.71,304.29zM276.62,304.39l0.57,1.04l-0.67,-0.27L276.62,304.39zM228.27,306.26l1.6,-1.44l0.98,0.41l-1.15,0.97l0.5,0.75l-0.95,-0.1l-0.66,0.62l-2.04,-1.99l0.06,-0.5l0.58,0.96l0.46,-0.88l1.89,-0.58l-2.05,1.39L228.27,306.26zM232.05,304.92l0.45,0.51l1.36,-0.31l0.76,0.34l-0.69,0.78l-0.69,-0.55l-0.88,0.26l-0.02,0.38l0.91,0.29l-0.61,0.57l0.01,1.03l-3.29,1.14l-1.06,-1.01l0.19,-0.52l0.95,0.26l0.94,-0.88l1.28,0.21l0.04,-1.18l0.58,-0.66l-0.89,0.17L232.05,304.92zM276.82,305.36l0.3,0.88l-0.48,-0.37L276.82,305.36zM278.24,307.08l-0.46,-0.32l0.53,-0.13l0.17,0.67L278.24,307.08zM238.36,308.18l0.6,-0.97l1.25,-0.14l-0.93,1.21l-1.43,0.25L238.36,308.18zM235.09,320.29l-0.54,-0.08l-0.08,-1.19l0.71,-1l0.43,-0.32l-1.63,-0.33l0.67,-0.51l-0.68,-0.23l0.45,-0.78l-1.05,-0.8l1.32,-0.24l0.47,-0.91l1.04,-0.57l1.39,0.1l1.13,-2.91l1,-0.75l0.79,-2.25l0.79,-0.56l1.7,3.86l1.4,7.36l-0.88,3.65l-1.52,-1.67l-2.2,1.46l-0.31,-0.57l-1.18,-0.46l-0.19,-0.81L235.09,320.29zM278.77,307.6l0.36,0.48l-0.33,0.16L278.77,307.6zM239.69,308.24l-0.38,0.93l-0.59,-0.53L239.69,308.24zM238.35,308.66l0.5,0.2l-0.15,0.42l-1.14,0.14l-0.09,-0.53L238.35,308.66zM238.17,310.32l-0.61,-0.27l0.11,-0.6l1.19,-0.05l0.25,0.45L238.17,310.32zM341.63,314.87l0.54,-0.95l-0.48,-1.76l0.61,-1.43l2.1,-0.85l0.95,2.37l-1.91,4.13l-2.7,0.21L341.63,314.87zM283.5,315.92l-1.98,-2.76l-0.35,-1.49l-0.86,-0.28l0.18,-1.05L283.5,315.92zM284.28,317.13l-0.58,-0.35l-0.17,-0.85L284.28,317.13zM286.41,319.47l0.53,0.54l-0.5,0.34l-0.43,-0.47L286.41,319.47zM322.31,320.5l0.2,-0.83l0.97,0.6l-0.58,1.19L322.31,320.5zM242.76,323.81l-0.79,0.79l-1.46,0.36l-0.22,-1.21l-0.84,-0.25l-0.3,-0.97l2.81,-2.2l0.29,0.74l1.32,0.86L242.76,323.81zM235.56,320.71l0.48,0.4l-0.25,0.38l-1.03,-0.06L235.56,320.71zM238.94,321.08l0.57,0.06v0.79l-1.5,0.22l0.88,0.3l-0.03,0.52l-1.8,-0.65l0.29,-0.5l-1.46,-0.28l1.2,-0.32l-0.25,-0.37L238.94,321.08zM288.41,321.04l0.16,0.5l-0.41,0.1L288.41,321.04zM234.44,321.4l0.41,0.69l-0.79,-0.31L234.44,321.4zM234.3,321.98l0.27,0.23l-0.54,0.29L234.3,321.98zM235.43,322.71l-0.42,-0.04l0.51,-0.16l-0.45,-0.34l0.61,-0.19l0.77,1.07L235.43,322.71zM290.15,322.67l-0.04,-0.39l1.89,1.58L290.15,322.67zM236.69,323.97l-1.05,-0.09l-0.73,-1.06l1.42,0.56l0.84,-0.97l0.17,0.47l1.94,0.16l0.15,0.7l0.71,0.14l0.11,1.26l-0.33,0.24l-1.31,-1.3L236.69,323.97zM233.75,322.92l0.53,0.33l-0.56,0.04L233.75,322.92zM292.22,323.85l0.39,0.39l-0.44,0.01L292.22,323.85zM288.02,324.13l0.38,0.82l-0.51,-0.31L288.02,324.13zM237.86,325.39v0.55l-1.04,0.23l0.45,-1.7L237.86,325.39zM292.42,327.15l-0.88,-0.93l-0.01,-1.67l0.68,0.7l0.71,0.04l-0.85,1.01l0.51,0.45L292.42,327.15zM332.15,324.85l1.15,0.26l-0.42,2.2l-0.83,0.28l-1.22,-0.92l-2.5,0.25l-0.12,-0.64l0.85,-0.61L332.15,324.85zM303.03,333.41l0.77,0.62l0.98,-0.61l4.18,1.75l0.77,0.71l-1.7,-0.18l-0.76,-0.56l-0.83,0.3l-0.56,-0.39l-0.19,0.34l-0.69,-0.8l-1.56,0.22l-0.08,-0.44l0.39,0.07l-0.9,-0.59l-2.65,-0.25l-0.89,-1.9l-0.52,0.15l-0.44,-0.67l-0.23,0.32l-1.04,-1.3l-1.8,-0.86l-2.38,-0.59l-0.36,0.83l-0.3,-0.73l0.85,-0.35l-0.91,-1.08l0.67,-1.08l-0.1,-0.84l0.6,0.5l0.43,-0.46l2.06,2.03l0.54,-0.09l0.16,0.72l2.31,2.3l1.15,0.81l0.27,-0.42l2.16,2.67L303.03,333.41zM322,336.44l1.58,2.99l0.12,3.06l0.82,2.54l1.35,1.27l2.77,0.38l2.77,3.51l0.86,4.25l-1.08,1.02l-3.24,-7.22l-1.76,-0.94l-3.12,-0.61l-0.82,-0.92l-3.19,-1.8l0.87,-1.07l0.24,0.86l1.01,-0.12l0.56,0.59l-0.14,0.75l1.22,1.14l1.6,-0.04l0.06,-0.49l-2.32,-1.75l-0.36,-0.77l0.01,-1.42l1.39,-1.29l-0.23,-0.6l-0.43,0.07l0.05,-1.67l-0.47,-0.95l-0.86,0.34l0.67,-0.57l-0.17,-0.38l-2.05,-0.83l0.21,-0.61l-0.81,-0.5l0.15,-0.97l-1.13,-1.04l0.22,-1.2l-1.03,-1.45l0.12,-0.71l-0.56,-0.07l-0.83,0.81l0.67,-1.99l-0.39,-0.39l-0.7,0.67l-0.41,-0.43l0.5,-1.01l-0.53,-0.73l0.57,-0.41l1.7,1.75l0.3,1.37l2.03,2.3l0.53,2.69L322,336.44zM302.88,332.11l-1.29,-0.44l-0.67,-0.89L302.88,332.11zM299.35,332.54l0.39,0.32l0.06,0.5l0.36,0.26l-0.96,0.09l-0.37,-0.57L299.35,332.54zM298.01,333.26l-0.06,0.58l-0.26,-0.52L298.01,333.26zM297.31,333.41l0.36,0.12l-0.49,0.45l-0.25,-0.35L297.31,333.41zM295.59,333.63l0.33,0.26l-0.44,0.19L295.59,333.63zM301,333.91l-0.68,0.39l0.07,-0.39H301zM321.79,343.28l0.16,0.81l-0.84,-0.58L321.79,343.28zM317.77,343.36l0.35,0.4l-0.59,-0.22L317.77,343.36zM318.83,343.41l0.18,0.41l-0.82,0.05L318.83,343.41zM367.13,347.55l-0.41,0.23l-1.51,-0.88l3.55,-0.44l1.67,0.55l-2.29,0.72L367.13,347.55zM357.88,360.95l-1.68,1.23l-0.47,-1.09l-2.01,0.98l0.05,-0.61l-0.61,0.13l-0.8,-0.89l-0.25,0.62l-0.22,-0.85l-0.57,0.41l0.06,-0.58l-1.37,0.95l-0.05,-1.79l-1.44,-1.64l-0.62,-1.7l1.46,-0.2l2.46,1.04l1.24,1.89l1.19,0.14l0.52,0.79l0.27,-0.43l0.71,0.39l0.51,-0.54l2.98,0.87L357.88,360.95zM363.83,359.78l0.22,-0.36l0.31,0.34l-0.37,1.11l-0.53,-0.4L363.83,359.78zM362.78,368.37l0.67,-1.85l-0.19,-0.82l-1.38,-1.38h-0.94l-0.13,0.63l-0.28,-0.59l-0.62,0.55l0.03,-0.32l-0.95,-0.02l0.66,-0.56l-0.2,-0.3l-0.57,0.43l-0.47,-0.64l-0.36,0.46l-0.18,-0.25l0.14,-0.66l1.49,-1.05l-1.03,-0.83l0.67,-0.04l2.31,-0.29l-0.82,-0.24l0.17,-0.75l0.94,0.73l1.29,-0.53l-0.03,1.14l0.54,-0.42l-0.45,1.28l-0.42,-1.26l-0.44,0.35l0.04,0.28l0.36,0.99l1,-0.39l0.86,4.4l-0.9,1.85l-1.37,1.52l-0.57,0.08l-2.18,4.01l-3.76,1.57l-0.75,-0.22l-1.62,2.55l-0.76,0.57l-1.45,0.08l-1.34,1.26l0.44,-1.08l-0.32,-0.82l1.04,-0.52l1.64,0.33l0.68,-1.07l-0.39,0.12l0.02,-0.36l0.73,-0.76l-0.56,-0.32l0.36,-0.71l3.03,-1.11l0.26,-1l-0.6,-0.73l3,-0.49l0.17,-1.54l2.61,-0.53L362.78,368.37zM349.69,362.99l-2.8,3.35l0.26,-1.35l1.83,-1.4l1.07,-1.66L349.69,362.99zM298.95,368.47l0.26,0.83l-0.41,-0.18L298.95,368.47zM391.93,372.49l-1.67,1.27l-1.79,-1.2l-1.9,0.09l0.96,-1.23l0.41,-2.07l1.29,0.94l0.6,-0.64l3.77,1.73l0.77,-0.26l-0.71,-0.47l4.5,1.31l1.28,1.08l0.79,-0.04l0.89,0.66l-1.79,1.84l-2.99,-2.64l-1.89,-0.25l-1.22,0.39l-0.29,-0.55L391.93,372.49zM299.7,371.54l0.52,1.91l-0.66,-1.06L299.7,371.54zM301.32,374.69l-0.03,0.39l-0.58,-0.14L301.32,374.69zM301.87,375.87l0.43,1.15l-0.56,0.23L301.87,375.87zM302.56,377.73l0.86,1.47l-0.94,0.31l-0.64,-1.44l0.46,0.08l-0.1,-0.84L302.56,377.73zM303.46,379.21l0.48,0.92l-0.88,-0.35L303.46,379.21zM394.29,403.96l-0.9,0.01l-2.94,1.72l-0.77,-2.96l2.81,-1.82l2.53,1.77L394.29,403.96zM369.73,420.82l-0.51,-1.17l1.25,-0.26l0.58,-1.14l-0.77,-1.68l1.31,0.49l1.79,-0.63l0.93,-0.68l0.9,-1.75l2.83,-0.16l1.34,-1.58l1.31,2.35l1.41,0.85l1.48,0.33l2.96,-0.98l1.12,-0.85l2.34,-4.68l1.88,-0.47l-0.27,4.85l-0.76,1.77l-1.47,1.37l-2.52,4.96l-2.91,0.43l-1.1,-0.54l-1.09,0.79l0.22,-0.66l0.64,-0.14l-0.3,-0.2l-1.68,0.4l-1.27,1.01l-1.53,-0.13l-1.77,0.51l-1.49,-0.77l-2.14,-0.11l-0.78,0.19l-0.71,1.04l-0.95,-0.84L369.73,420.82z"/>
		<path id="BB" title="Barbados" class="land" d="M836.59,687.52L836.78,687.76L836.85,687.73L836.89,687.96L837.19,688.11L837.43,688.04L837.62,688.36L837.82,688.38L837.73,688.48L837.8,688.57L837.73,688.9L837.4,689.56L837.15,689.81L836.95,690.19L836.8,690.23L836.7,690.54L835.61,691.35L835.32,691.37L835.05,691.86L834.99,691.82L834.55,692.08L834.25,692.11L834.06,692.02L833.92,691.62L833.77,691.49L833.42,691.4L833.04,691.46L832.24,691.14L831.96,691.15L831.48,690.99L831.58,690.82L831.56,690.56L830.8,690.18L830.81,690.07L830.91,690.18L830.88,690.03L831.04,690.01L831.03,689.9L830.88,689.92L830.99,689.74L830.77,689.39L830.62,688.79L830.67,688L830.59,687.67L830.65,687.29L830.54,687.21L830.49,686.97L830.57,686.56L830.42,685.57L830.47,684.91L830.4,684.75L830.46,684.7L830.24,684.08L830.23,683.33L830.67,682.66L831.41,682.38L831.66,682.46L831.84,682.66L831.92,682.62L832.67,683.31L832.63,683.41L832.76,683.56L832.64,683.63L832.96,684.07L832.95,684.38L833.09,684.67L833.18,684.69L833.21,685L833.35,685.14L833.28,685.23L833.41,685.23L833.59,685.4L834.17,686.25L834.43,686.43L834.91,686.57L835.36,686.99L835.57,686.97L835.64,687.2L835.9,687.25L836.23,687.58L836.52,687.46z"/>
		<path id="CU" title="Cuba" class="land" d="M132.65,341.84l-1.12,0.21l-0.17,-1.3l1.53,-0.46l0.42,1.18l0.77,-0.33v0.62l0.69,0.37l-0.92,0.35L132.65,341.84zM145.85,344.46l-0.53,0.01l-0.38,-0.75l-3.53,-0.78l-0.15,-0.45l1.72,-0.23l0.1,0.71l1.53,0.1l1.18,0.79l0.86,-0.38l-0.29,-0.57l0.41,-0.14l0.36,1.34l-1.03,0.59L145.85,344.46zM233.83,377.12l-1.57,-2.85l0.89,0.41l1.8,3.51l1.59,1.35l-1.49,-0.42L233.83,377.12zM134.44,343.96l0.85,-0.54l0.24,1.13l0.89,0.83l-3.51,0.08l-2.27,1.46l-0.48,-0.57l3.28,-1.37l0.44,-0.6l-0.35,-0.1L134.44,343.96zM142.78,343.74l-1.06,0.81l0.37,-0.66L142.78,343.74zM155.28,346.1l0.65,-0.19l0.82,0.93l1.49,0.59l-0.1,0.54l-0.95,0.31l-0.03,0.82l-0.98,0.01l0.1,-1.42l-0.35,-0.19l-0.07,0.36l-0.9,-0.84L155.28,346.1zM159.42,348.32l0.88,-0.76l0.84,1.64l-0.32,0.26L159.42,348.32zM161.47,349.09l0.56,-0.68l0.35,0.24l0.15,1.19l-0.9,0.21L161.47,349.09zM164.79,353.1l-0.66,-1.17l0.88,-0.49l1.64,-0.05l-0.02,1.78l-1.11,-0.54l-0.28,-0.62L164.79,353.1zM117.05,384.46l0.99,-0.41l-0.42,-0.82l0.39,-0.8l-1.01,-1.12l-0.14,-1.6l-0.77,-0.65l-1.95,0.05l-0.36,-0.5l-1.24,-0.16l-1.97,0.99l0.17,-0.68l-1.41,0.08l-0.12,-0.5l-0.78,0.92l-0.85,-0.82l-0.24,0.5l-2.3,-0.42l0.07,0.82l-0.64,0.27l-0.36,-0.55l-1.35,-0.08l-0.96,-0.61l-0.57,-1.95l-2.93,-0.68l-2.64,-1.73l-1.94,-0.52l-0.16,-1.18l-1.23,0.31l-0.67,-1.14l0.38,-0.79l1.04,-0.44l9.89,0.02l2.1,-0.94l1.68,0.08l0.86,-0.47l0.78,-0.71l-0.02,-3.05l-1.01,-0.26l-2.5,-2.06l-3.75,-1.35l-7.51,0.82l-3.3,-1.07l-4.68,0.28l-5.92,-0.33l-1.08,0.66l-0.43,-0.75l-2.11,0.35l-4.1,-0.84l-0.68,0.59l-0.24,2l-1.06,1.04l-1.61,0.54l-1.48,1.32l-1.26,0.07l-0.86,0.91l-2.93,1.02l-1.22,1.49L59,373.32l-1.37,0.59l-2.19,-0.69L54.61,374l0.08,1.03l-1.25,1.08l0.36,0.62l-1.78,1.6l-3.71,1.16l-1.39,-0.57l-1.7,-1.72l-2.73,2.43l-0.63,-0.91l-0.35,0.68l-0.87,-0.21l-2.07,0.52l-0.86,-0.56l-1.06,0.49l-1.52,-0.35l-1.33,0.39l-1.61,1.57l0.05,1.87l-0.7,0.04l-0.15,0.9l0.89,0.99l-1.08,1.27l0.08,1.23l-1.16,1.26l-2.16,-0.89l-5.25,1.24l-5.68,4.4l-2.45,0.56l-0.18,-1.66l1.91,-2.72l-0.47,-1.18l-0.91,-0.55l-1.94,-0.18l-4.08,1.32l-1.64,0.76l-2.21,2.18l-3.9,-0.57L0,390.22l0.95,-1.89l0.74,0.96l1.09,0.19l1.51,-0.59l-0.87,-0.75l-0.05,-0.21l0.73,-0.11l0.51,0.23l-0.06,0.75l0.53,0.07l2.53,-1.61l4.45,-1.59l2.21,-1.61l1.03,-0.18l-0.02,0.95l1.11,0.43l2.14,-1.13l0.95,0.36l0.27,0.87l0.74,0.46l0.67,-0.9l0.95,0.22l0.38,-2.17l-0.49,0.12l-0.61,1.49l-0.51,-0.02l-0.16,-1.91l-1.03,-0.23l0.45,-1.45l-1.49,-0.27l-0.14,-0.51l-0.46,0.43l-0.42,-2.1l-0.46,-0.37l1.83,-5.98l1.41,-0.75l1.26,-1.85l-0.27,-0.81l3.08,-1.27l-0.5,-2.03l1.9,-0.41l0.93,0.46l0.05,-1.95l1.05,-0.03l-0.17,0.58l0.56,0.01l0.39,-0.65l-0.35,-0.74l0.97,-0.4l0.75,0.41l0.33,-1.93l-0.44,-0.13l-0.62,0.75l0.07,-0.5l1.08,-0.71l0.51,1.18l0.86,0.46l1.67,-1.86l0.94,-0.22l0.47,0.61l0.26,-1.11l2.51,-0.07l2.86,-1.26l0.27,-1.04l1.66,0.92l1,-0.68l-0.49,-0.47l0.35,-0.32l2.3,0.21l0.49,-1.35l0.85,-0.39l0.12,0.51l0.88,0.11l0.86,-0.8l-0.1,-1.13l0.84,-0.31l0.56,0.13l-0.71,0.36l2,1.22l1.28,-2.28l4.14,-2.34l1.68,0.57l-0.85,1.36l0.19,0.52l0.81,0.15l0.67,-1.03l-0.52,-0.83l1.12,-0.74l7.76,-0.94l5.07,0.08l4.23,-0.7l2.11,-0.67l1.3,-1.12l1.53,-0.2l1.92,-1.77l1.06,0.13l1.22,-0.85l3.24,-0.52l4.23,0.3l2.42,-0.53l2.74,1.02l5.1,0.4l5.92,-0.22l1.77,0.59l0.77,1.19l-0.07,1.1l-1.36,0.83l0.57,0.48l1.84,-0.41l0.89,-1.73l1.08,0.23l4.82,-1.61l4.87,-2.5l0.69,0.6l-1.38,-0.02l-0.45,0.73l-0.88,-0.18l-1.85,0.97l-0.64,0.87l0.93,0.5l2.13,2.52l1.81,0.63l0.62,-0.2l1.23,-2.11l1.7,-0.65l0.38,0.43l1.19,-0.07l-0.28,0.82l1.01,0.68l6.37,-1.34l3.32,0.31l0.59,-0.34l0.49,-2.02l0.56,-0.11l0.72,0.37l-0.59,0.01l-0.66,2l1.02,0.67l0.16,0.63l1.02,0.39l0.65,1.51l1.69,0.13l2.41,1.59l1.43,0.18l0.12,-1.68l0.45,0.33l1.54,-0.41l0.89,-0.81l0.37,0.16l0.63,-0.91l0.34,1.26l-0.51,0.49l0.39,0.49l0.69,-0.53l0.15,1.01l-3.54,-0.43l-0.67,0.34l0.32,0.74l2.32,1.22l3.63,-1.16l-0.62,-0.75l0.9,-0.33l1.11,0.95l1.6,0.26l1.76,-0.56l-0.05,1.24l1.14,1.48l1.44,0.09l0.87,0.93l0.52,-0.11l0.1,-1.17l0.88,0.04l0.56,-0.78l-0.83,-1.02l0.62,-1l0.32,0.59l-0.33,0.51l0.77,-0.04l0.18,0.52l-0.36,0.82l1.15,-0.47l0.41,0.28l-0.7,1h-1.91l-0.2,1.1l0.46,1.33l1.82,-0.19l3.04,1.97l1.06,-0.83l0.78,0.27l1.21,3.63l0.83,0.3l1.08,1.47l1.04,2.26l0.69,0.69l0.56,-0.96l0.4,0.14l0.06,0.7l1.63,1.38l0.4,0.96l0.88,0.39l0.46,0.96l2.83,0.98l1.1,0.83l0.9,-0.58l2.05,0.54l0.62,-0.88l1.71,0.72l1.85,-0.79l2.57,0.48l2.28,-0.48l1.76,0.75l1.5,-0.37l0.46,0.46l0.21,1.91l1.46,0.77l0.42,-1.65l-0.92,-1.12l1.13,-0.16l0.8,1.01l0.54,-0.13l0.53,0.97l0.72,-0.1l1.07,0.82l1.36,0.25l1.38,1.51l1.48,0.24l0.8,-0.33l0.25,0.74l1.33,0.18l1.23,0.92l0.36,1.31l0.57,-0.18l0.52,0.98l1.4,-0.06l1.01,1l1.89,0.09l0.89,0.73l1.67,0.2l1.29,0.76l2.26,3.9l0.71,0.01l1.63,1.88l0.69,1.69l0.67,0.09l0.69,-1.62l-0.44,-0.9l0.27,-1.21l1.59,0.36l0.3,-0.36l-0.7,-0.48l0.36,-1.33l-0.67,-0.58l-0.03,1.15l-0.57,-0.78l-0.45,0.92l-0.96,-0.29l-1.49,-1.18l-0.35,-2.65l-1.1,-0.79l-0.13,0.48l-0.78,-0.04l-1.39,-1.92l-0.47,0.46l-0.71,-0.49l-0.14,-0.55l0.95,0.62l0.54,-1.15l0.86,-0.17l-2.33,-2.92l-0.72,-0.14l-0.77,0.53l-2.55,-1.12l-0.28,0.37l-1.69,-2.57l-1.84,-0.59l0.98,-0.75l-0.09,-0.79l-1.28,0.74l-2.08,-0.11l-0.66,0.58l-0.18,-1.47l-1.29,0.59l-2.43,-0.18l-0.48,-1l-3.06,-0.72l0.24,-1.17l0.88,0.22l-0.5,-0.93l-0.39,0.31l-0.6,-0.31l-0.5,1.59l-0.67,-0.1l0.53,-1.03l-0.98,-1.61l1.87,0.43l0.18,0.51l0.91,-0.4l0.2,0.43l0.81,-0.12l1.33,0.77l2.76,0.03l1.58,-1.05l1.39,0.08l1.17,0.65l0.29,0.35l-0.73,-0.06l0.26,0.63l0.59,0.1l2.17,2.63l0.99,0.31l1.07,-0.63l0.83,0.72l-0.07,-0.38l0.62,-0.12l1.65,0.67l0.97,1.18l0.78,3.16l1.46,0.76l0.03,-1.34h0.32l1.02,0.75l0.3,0.62l-1.05,0.38l0.12,0.77l1.54,0.19l0.59,1.22l0.67,-0.34l-0.33,-0.74l0.77,-0.2l-0.04,0.58l1.2,0.25l-0.29,0.81l-0.94,-0.12l-0.13,0.41l2.31,1.1l-0.31,1.07l0.37,0.68l1.57,0.43l1.03,1.12l0.53,-0.6l1.45,0.67l0.53,-0.51l0.68,0.17l0.88,1.9l-0.87,0.61l0.17,1.48l0.52,0.03l-1.3,0.58l0.55,1.17l0.71,-0.12l-0.17,-1.02l0.66,-0.84l0.08,0.81l0.62,0.2l-0.79,1.44l-0.61,0.19l-1.12,-0.96l-0.53,0.48l-2.01,-2.33l-1.46,-0.09l-0.7,0.67l-1.44,0.33l1.15,2l0.98,0.31l0.6,-0.4l0.91,2.7l2.05,0.45l0.47,0.51l2.93,-0.05l1.47,0.98l0.64,-0.68h1.1l1.97,4.11l1.86,0.39l0.62,-1l-0.51,-0.71l-0.77,-0.11l-0.62,-1.12l0.44,-1.08l-1.07,0.12l-0.7,-0.74l0.26,-1.31l1.25,1.18l2.03,0.53l0.97,1.02l3.23,1.61l1.22,1.18l0.77,-0.05l0.11,0.73l1.25,0.9l-0.36,1.1l-0.65,0.08l-0.51,0.96l-1.02,-1.06l-2.76,-1.36l-0.76,0.66l-0.74,-0.69l-1.72,0.01l0.22,0.64l1.79,1l1.41,0.31l0.61,-0.4l1.21,0.86l-1.28,0.44l-0.42,-0.37l-0.71,0.92l0.59,1.56l1.79,0.36l1.88,-0.72l0.54,-2.44l1.44,-1.91l0.77,0.38l3.85,4.69l3.26,1.43l1.21,1.02l-0.54,1.48l-0.8,-0.25l-1.34,0.38l0.21,0.52l-0.48,0.74l0.32,0.35l2.35,-1.7l0.56,-1.55l0.85,0.68l3.97,0.57l0.67,0.74l0.21,0.6l-1.38,0.93l-1.8,-0.6l-0.35,0.93l0.96,0.04l0.93,0.86l1,0.3l0.25,-0.87l-0.57,-0.67l0.44,-0.35l2.31,0.78l0.94,-0.38l0.4,0.55l-0.28,1.26l-2.09,0.97l2.35,1.06l0.41,0.07l1.6,-1.58l-1.61,-0.48l-0.01,-1.04l0.28,-0.45l1.6,-0.15l3.75,0.53l6.7,3.45l0.67,0.82l-0.19,1.65l0.51,0.43l0.49,-0.28l-0.25,-0.61l2.64,0.89l7.2,-1.62l3.1,0.25l1.29,0.85l0.11,1.19l1.8,-0.16l1.5,2.41l-1.32,3.03l-1.34,1.21l-1.31,-1.36l-0.81,-0.21l-0.86,0.3l-0.21,1.46l0.81,-0.17l0.11,0.88l0.15,-0.48l0.7,0.07l0.47,-0.53l2.35,0.35l1.08,0.69l0.19,0.77l0.71,0.11l0.01,1.21l-0.97,0.08l-1.3,-1.96l-1.33,0.04l-0.16,0.65l-0.67,-0.22l-0.54,0.62l-0.39,-0.68l-0.63,0.29l-1.26,-0.36l0.38,1.05l-0.71,1.13l-0.02,1l0.79,1.5l1.7,0.53l1.9,-2.47l0.89,0.17l0.21,-0.77l0.6,0.49l0.16,1.22l-0.9,0.42l1.07,0.07l0.83,-1.35l-0.19,-0.62l1.08,-0.06l0.46,-0.71l0.41,0.29l-0.06,1.62l-1.28,-0.05l-1.05,1.68l1.17,-0.38l1.19,0.61l1.49,-0.48l0.57,0.44l0.18,-0.79l-1.03,-0.87l1.42,-0.43l2.6,0.62l0.03,0.91l-0.78,-0.1l1.69,1.73l1.07,-0.46l0.15,-0.54l-0.64,-0.01l-0.52,-1.26l1,0.29l1.9,-0.32l4.16,1.24l4.21,-0.16l1.46,1.07l1.8,0.04l0.36,0.75l0.94,0.47l3.15,-0.03l0.38,0.35l0.06,1.94l5.16,3.43l2.64,4.12l1.29,-0.19l2.28,1.76l2.42,0.08l0.52,-0.53l2.06,-0.35l2.71,2.18l0.49,1.58l-0.56,1.21l-2.42,1.34l-0.41,1.55l-1.17,0.83l-2.92,-0.45l-7.03,1.16l-1.39,-0.25l-1.29,0.46l-2.1,-0.4l-3.03,0.42l-4.71,3.01l-0.96,1.18l-5.72,1.09l-0.21,-0.98l0.88,-0.3l0.5,-0.76l-0.2,-1.11l0.98,-0.4l0.1,-0.76l0.45,-0.13l-0.35,-1.38l-0.49,-0.09l-0.53,0.84l-1.71,0.67l-0.04,0.59l1.18,0.64l-0.92,0.45l0.32,0.86l-1.05,0.51l-0.05,0.82l-3.69,0.85l-3.66,-0.13l-0.83,-0.67l-1.79,0.74l-3.63,-0.47l-2.87,-1.55l-0.36,-0.62l-1.38,0.32l-6.43,-0.54l-2.02,0.34l-7.23,-1.39l-1.63,0.18l-2.39,1.11l-1.24,-0.32l-6.23,0.8l-3.12,-0.62l-3.92,1.01l-2.46,-0.22l-1.85,1.3l-2.28,0.56l-8.88,-0.57l-0.88,-0.38l-0.87,0.13l-0.31,0.37l0.56,0.59l-1.46,0.97l-2.22,0.23l-0.74,-0.62l-2.06,0.73h-3.35l-2.19,0.62l-2.12,-0.54l-0.05,-1.31l1.08,-1.61l0.78,-0.11l2.64,-4.22l1.08,-0.49l-0.57,-0.5l0.16,-0.41l1.42,0.28l1.09,-0.67l1.13,-1.62l1.43,-0.63l1.47,-1.43l3.55,-1.19l0.64,-0.71l0.02,-1l0.8,-0.02l0.31,0.66l1.3,-0.47l0.78,-1.49l1.59,-1.42l0.14,-1.58l0.46,-0.15l0.34,-1.43l-0.95,-1.66l-2.04,-0.88l-0.56,-0.71l-0.32,0.61l-1.46,-0.33l0.09,-1.58l0.86,-0.46l0.46,-1.07l-1.4,-0.9l-0.58,0.11l-0.09,0.54l-1.79,-2.2l-0.77,-0.32l-2.84,0.67l-1.42,0.9l-3.03,-0.92l-6.03,0.39l-3.33,-1.39l-1.72,0.01l-0.67,1.1l-3.84,-0.27l-3.27,-2.02l-0.68,-1.46l-1.25,-1.17l-1.44,0.17l-0.68,-2.48l-1.42,-0.36l-1.33,-1.32l-1.19,0.01l-0.65,-0.45l-0.03,-0.79l-2.73,-1.59l-0.42,-4.66l-0.77,-1.29l-0.22,-2.1l0.55,0.15l0.4,-0.65l-1.25,-0.41l-0.56,-3.28l-1.49,-3.49l-2.43,-2.62l-2.49,-0.22l-0.97,0.96l0.4,-1.34l0.84,-0.82l1.67,0.34l-1.08,-1.4l-0.8,-0.46l-3.27,0.51l-1.19,0.54l-0.18,0.58l-1.88,-0.29l-3.64,0.3l-2.3,1.22l-2.72,0.48l-2.89,-0.76l-1.99,-1.3l-1.7,0.41l-1.3,-0.26l-1.8,-1.52l-1.17,0.86l-0.69,-0.84l-1.1,0.03l0.08,-0.52l-0.72,-0.69l-1.53,-0.57l-1.78,0.48l-1.51,-1.4l-1.66,0.11l-0.37,1.62l-2,-2.48l-0.15,-0.44l-0.43,-0.1l-0.19,0.8l-3.77,-0.88l-0.49,-1.81l-3.48,-0.56l-4.74,-2.61l-1.68,-2.29l-2.26,-1.83l0.11,-0.62l-1.39,-0.23l-0.25,-1.23l1.14,0.16l0.59,-0.85l-0.71,-1.14l-0.72,-0.06l-0.03,-1.02l-1.36,-0.85l-1.59,-0.12l-0.36,0.87l2.83,2.72l-0.01,1.45l-2.09,-0.77l-2.57,0.63l-5.04,-0.48l-3.88,0.71l-3.09,-0.23l-2.62,-0.81l-2.02,-1.29l-0.95,-2.48l0.02,-1.64l-1.45,-2.08l-0.85,-0.05l-0.26,0.54l0.77,2.08l-0.42,2.37l0.35,1.92l-0.52,1.24l-0.41,-0.2l0.56,-0.54l0.1,-1.01l-1.39,-1.4l-0.88,0.67l-0.12,0.9l-1.28,-0.16l-0.87,0.49l-0.02,1.62l1.08,0.4l-0.93,0.3L117.05,384.46zM188.98,365.2l-0.39,-0.14l0.14,-0.64l-0.87,0.27l0.14,-0.79l1.88,0.54l0.25,-0.66l-1.19,-0.19l1.88,-0.67l0.8,0.29l0.81,-0.56v-0.77l4.14,0.27l-0.13,0.72l-1.02,0.44l0.01,-0.93l-2.15,0.06l-1.41,1.05l0.36,0.72l-0.78,-0.65l-0.3,0.82l-0.56,0.04l1.11,1.79l1.23,0.47h-1.15l-1.55,-1.59L188.98,365.2zM172.68,354.57l-0.05,0.41l-0.91,0.15l0.34,-0.71L172.68,354.57zM172.7,355.05l1.17,0.3l-0.22,0.53l-1.17,0.23L172.7,355.05zM182.05,361.79l-0.79,-0.69l-1.29,0.32l-0.9,-0.93l-1.12,-0.29l-1.33,-2.81l-1.59,0.58l-0.46,-0.28l0.15,-0.45l1.74,-0.27l1.55,1.83l5.12,2.88l1.85,2.34l-0.74,-0.17l-0.5,-0.99L182.05,361.79zM181.38,363.22l0.08,-0.48l-0.52,-0.03l0.29,-1.2l0.14,0.85l1.56,2.08l-0.26,0.25l-0.92,-0.57l0.44,-0.66L181.38,363.22zM195.39,364.94l-0.36,0.7l0.68,1.29l1.22,-0.35l0.21,0.52l0.88,0.27l0.97,-0.38l-0.21,0.45l0.79,0.45l0.92,-0.36l0.94,0.46l0.53,-0.08l0.18,-0.77l0.18,0.98l-1.36,0.56l-4.17,-1.57l-1,0.46l-0.92,-1.79l0.75,-2.46l0.36,0.13L195.39,364.94zM58.85,400.99l-0.5,-0.67l0.33,-0.61l-0.97,-1.29l3.34,2.9l1.25,-0.14l0.83,0.46l1.08,-0.55l-0.22,-0.68l1.13,0.13l0.36,-0.99l-0.66,-0.32l-1.03,-2.44l-0.77,-0.4l-2,-3.2l1.18,-2.4l3.61,-2.75l-0.76,-0.37l-1.06,0.32l0.81,-0.54l1.92,0.65l2.48,-0.16l2.97,1.34l0.45,-0.27l1.59,0.61l0.48,0.85l-0.61,0.63l0.41,1.36l2.48,1v0.5l0.99,0.63l-0.95,2.79l1.39,0.77l-0.15,0.96l0.8,0.58l0.05,0.77l-2.83,2.06l-8.46,2.68l-6.32,-1.09l-1.17,-1.85l-0.87,-0.09L58.85,400.99zM245.14,392.93l-0.72,-0.03l-0.73,-0.83l-2.61,-0.29l0.24,-0.48l0.55,0.26l0.93,-0.36l-1,-0.66l-0.76,-1.75l1.15,-0.69l1.33,0.95l1.63,2.44l1.35,0.58l-0.29,0.55L245.14,392.93z"/>
		<path id="GP" title="Guadeloupe" class="land" d="M766.57,597.87l0.24,0.25l-0.07,0.13l-0.43,-0.15L766.57,597.87zM765.12,596.92l0.01,0.11l0.39,0.07l-0.05,0.23l0.34,0.11l-0.13,0.15l-0.12,-0.11l-0.17,0.38l-0.22,0.13l-0.56,-0.25l0.12,-0.49l0.19,-0.04L765.12,596.92zM766.3,596.64l0.28,0.04l-0.1,0.23l-0.26,-0.14L766.3,596.64zM767.14,596.48l0.16,0.15l-0.1,0.24l0.18,-0.04l-0.39,0.29l-0.02,0.35l-0.32,-0.13l-0.16,0.22l-0.46,-0.13l0.25,-0.32l0.47,-0.04v-0.35l0.15,-0.13l0.09,0.24L767.14,596.48zM776.92,592.27l0.77,0.53l0.34,0.05l-0.03,0.14l0.35,0.07l0.09,0.48l0.96,0.87l0.17,0.54l-0.31,0.98l-0.43,0.18l-0.84,0.73l-1.2,0.25l-1.18,-0.43l-0.26,-0.28l-0.26,-0.41l0.09,-0.22l-0.27,-1.21l0.58,-0.38l0.04,-0.78l0.34,-0.07l0.06,-0.32l0.16,-0.04l0.35,-0.52l0.3,0.01L776.92,592.27zM782.33,586.62l0.13,0.1l-0.12,0.11l-0.38,0.05l-0.29,-0.15L782.33,586.62zM785.72,580.65l0.2,0.61l-0.88,0.3l-0.65,0.55l-0.91,0.17l-0.74,0.42l-0.03,-0.43l0.26,-0.34h0.42l0.12,-0.26l0.46,-0.05l0.36,-0.35l0.45,-0.24l0.15,0.08v-0.12l0.36,-0.09l0.08,-0.18L785.72,580.65zM770.72,575.06l-0.06,0.27l0.16,0.05l-0.05,0.18h0.63l0.05,0.37l0.29,0.06l0.28,0.39l0.47,0.29l0.4,1.55l-0.25,0.55l-0.02,0.72l0.25,0.56l0.63,0.82l0.37,0.17l-0.01,0.14l0.07,-0.09l0.43,0.15l0.22,-0.08l0.15,0.23l0.1,-0.14l0.3,-0.01l0.6,0.06l0.26,0.24l0.19,-0.1l0.13,0.19l0.88,0.39l0.02,0.23l0.24,0.02l0.68,1.16l1.02,0.51l0.21,0.03l0.09,-0.12l0.88,0.39l-0.18,0.17l-0.48,-0.29l-2.09,-0.23l-1.28,0.45l-0.75,0.11l-0.22,-0.14l-0.05,0.12l-0.45,-0.06l-1.06,0.34l-0.31,0.35l-0.32,-0.08l-0.14,0.24l-0.15,-0.09l-0.33,0.28l-0.52,0.14l-0.46,-0.06l-0.15,0.22l-0.46,0.03l-0.26,0.19l-0.67,-0.28l-0.7,-0.06l-0.13,-0.34l-0.34,0.13l-0.29,-0.11l-0.14,-0.63l-0.12,0.01l-0.42,-0.61l0.04,0.62l0.25,0.06l-0.11,0.29l-0.17,-0.01l0.13,0.1l-0.24,-0.03l-0.19,-0.47l-0.1,0.15l-0.15,-0.16l-0.47,-0.03l-0.24,0.59l0.04,0.38l0.15,0.13l-0.24,0.4l0.14,0.42l0.2,0.06l0.03,0.18l-0.18,0.22l0.11,0.41l0.23,0.13l-0.1,0.27l0.57,0.41l-0.33,0.51l0.27,0.3l0.11,0.43l-0.06,0.87l0.14,0.6l-0.24,0.27l-0.16,0.58l-1.47,1.22l-0.18,0.65l-0.25,-0.04l-0.23,0.23l-0.52,-0.14l-0.29,0.33l-0.13,-0.17l-0.25,0.1l-0.35,0.39l-0.89,0.08l-0.15,-1.05l-1.1,-1.05l-0.1,-0.7l-0.72,-1.08l0.13,-0.96l-0.21,-0.04l0.07,-0.16l-0.13,-0.27l0.03,-0.77l0.14,-0.11l-0.06,-0.2l-0.28,-0.13l0.16,-0.27l-0.02,-0.83l-0.23,-0.05l0.02,-0.5l-0.17,-0.21l0.18,-0.66l-0.15,-0.49l-0.5,-0.5l-0.14,-0.86l-0.13,-0.13l0.24,-0.19l0.03,-0.86l0.25,-0.08l-0.23,-0.31l0.43,-0.26l-0.04,-0.34l0.39,-0.33l0.06,-0.27l0.52,-0.19l0.31,0.07l0.24,-0.27l0.63,0.25l0.08,0.24l0.22,0.08l-0.03,0.2l0.73,0.15l0.29,0.33l0.16,-0.17l0.5,0.41l0.48,-0.11l0.3,0.19l-0.09,0.23l0.18,-0.02l0.45,0.29l0.74,-0.08l-0.43,0.72l-0.2,-0.02l0.12,-0.12l-0.1,-0.19l0.04,0.2l-0.23,0.14l0.05,0.21l0.44,-0.1l-0.12,0.29l0.08,0.11l0.33,-0.2l0.09,-0.31l0.09,0.27l-0.1,0.21l0.23,0.07l0.3,-0.18l0.12,-0.43l0.33,0.09l0.38,-0.19l0.15,0.12l-0.09,-0.15l0.38,-0.18l-0.06,-0.32l0.19,-0.02l0.2,-0.33l-0.02,-0.63l0.18,-0.28l0.12,0.01l0.11,-0.23l0.49,0.14l0.09,-0.13l-0.16,-0.15l0.54,-0.11l-0.2,-0.05l0.11,-0.11l-0.17,-0.2l0.19,-0.21l-0.05,-0.35l-0.28,-0.29l-0.09,0.14l-0.57,-0.33l-0.37,-1.43l-0.15,-0.06l0.34,-0.73l0.28,-0.14l0.13,-0.25l0.39,-0.09l0.11,-0.36l0.56,-0.25l0.43,-0.64h0.22L770.72,575.06z"/>
		<path id="KN" title="Saint Kitts and Nevis" class="land" d="M728.65,548.55l-0.71,-0.04l-0.23,-0.06l-0.16,-0.2l-0.3,-0.05l-0.25,-0.5l-0.96,-0.45l-0.46,-0.47l-0.26,-0.14v-0.21l-0.17,-0.28l-0.36,-0.27v-0.59l0.15,-0.31l0.23,-0.12l0.28,-0.38l0.24,-0.08l0.21,0.06l0.31,-0.2l0.36,-0.01l0.25,0.36l0.27,-0.08l0.09,0.1l0.36,0.08l0.78,0.73l0.34,0.09l0.09,0.14l0.13,-0.04l0.01,0.15l0.2,0.09l0.32,0.46l0.06,-0.02l0.06,0.23l0.55,0.53l0.13,0.46l0.28,0.27l-0.04,0.27l0.26,0.11l0.03,0.58l0.17,0.02l0.15,0.25l0.49,0.27l0.06,0.22l0.16,0.01l0.21,0.17l0.09,0.28l0.11,0.02l0.09,-0.22l0.37,0.19l-0.04,0.08l0.16,0.28l-0.26,0.21l0.11,0.22l-0.13,0.07l-0.16,-0.15l-0.19,0.13l-0.05,0.16l-0.23,-0.18l-0.13,0.1l0.02,0.31l-0.2,0.06l-0.09,-0.11l0.02,-0.3l-0.16,-0.09l-0.02,-0.12l0.25,-0.28l-0.09,-0.25l0.1,-0.13l-0.11,-0.35l-0.2,-0.27l-0.38,-0.23h-0.16l-0.16,-0.2l-0.45,-0.03l-0.18,-0.2l-0.1,0.08l0.06,-0.11l-0.08,-0.17l-0.3,-0.02l-0.06,0.11l-0.22,-0.09l-0.19,0.2l-0.05,-0.09l-0.18,0.05L728.65,548.55zM735.43,553.7l-0.07,0.13l0.06,0.28l-0.07,-0.02l-0.09,0.14l-0.07,0.4l-0.22,0.32l-0.38,-0.07l-0.6,0.19l-0.19,0.18l-0.44,0.08l-0.27,-0.13l-0.29,-0.35l-0.17,-0.01l0.09,-0.19l-0.36,-0.67l0.11,-0.05l0.07,-0.46l-0.01,-0.8l0.29,-0.46l0.04,-0.27l0.22,-0.23l-0.04,-0.13l0.15,-0.08l0.27,0.05l0.3,-0.11l0.36,0.01l0.18,0.1l0.21,0.3l0.42,0.04l-0.01,0.12l0.36,0.42L735.43,553.7z"/>
		<path id="BL" title="Saint-Barthélemy" class="land" d="M724.63,526.73l0.18,0.33l0.09,-0.06l0.15,0.09l0.16,-0.11l0.13,0.21l0.1,-0.04l-0.01,0.17l0.16,0.05l-0.04,0.18l0.07,0.09h0.16l-0.03,-0.09l0.15,-0.14l0.15,0.13l0.13,-0.04l0.22,-0.43l0.1,0.16l0.15,-0.1l-0.03,0.29l0.22,-0.15l-0.05,0.14l0.1,0.05l0.09,-0.19l0.08,0.3l0.18,-0.18l0.06,0.24l-0.13,0.11v0.25l-0.22,-0.11l-0.36,0.25l-0.11,0.3l-0.26,-0.23l-0.23,0.29l-0.18,-0.18l-0.09,0.24h-0.09l-0.32,-0.48l-0.2,-0.13l-0.04,-0.18l0.08,0.01l0.01,-0.12l-0.13,-0.12l-0.15,0.01l-0.29,-0.28l-0.02,-0.13l-0.21,-0.01l0.01,-0.07l0.26,-0.02l-0.01,-0.11l-0.13,-0.05L724.63,526.73zM723.46,525.66l0.3,0.14l-0.17,0.11l-0.04,0.13l-0.11,-0.06l0.05,-0.17h-0.29l0.09,-0.12L723.46,525.66z"/>
		<path id="MF" title="Saint Martin" class="land" d="M719.49,520.05l0.23,0.1l-0.05,0.3l0.13,0.13l-0.26,0.09l0.09,0.18l-0.06,0.29l0.36,0.39l0.12,-0.05l-0.17,0.27l-0.06,-0.1l-0.1,0.13l0.26,0.3l-0.07,0.15l0.13,0.29l-0.13,-0.01l0,0l-0.84,-0.08l-0.44,-0.28l-0.32,0.03l-0.53,0.48l-0.43,0.11l-0.8,-0.26l-0.77,0.02l0,0l-0.07,-0.18l-0.4,-0.13l0.19,-0.37l0.34,-0.06l0.38,0.21l0.46,-0.32l-0.08,0.44l0.54,0.15l0.35,-0.21l0.2,-0.38l-0.15,-0.32l0.27,-0.24l0.19,0.09l0.11,-0.1l-0.2,0.01l-0.04,-0.18l0.12,0.01l0.05,-0.15l0.18,0.14l0.25,-0.09l0.19,-0.6l0.32,0.21l0.11,-0.37l0.22,0.07L719.49,520.05zM721.32,520.01l-0.12,0.35l-0.56,0.12l0.05,-0.24l0.22,-0.06l0.01,-0.13L721.32,520.01z"/>
		<path id="BQ" title="Bonaire, Saint Eustachius and Saba" class="land" d="M720.52,540.52l0.17,0.35l0.25,-0.05l0.11,0.1l-0.04,0.25l0.16,0.24h0.3l0.67,0.46l0.09,0.18l-0.36,0.53l-0.44,0.11l-0.36,-0.06l-0.25,-0.23l-0.16,-0.42l-0.39,-0.14l0.04,-0.29l-0.29,0.08l0.26,-0.17l-0.08,-0.28l0.13,-0.07l0.02,-0.6L720.52,540.52zM712.02,536.47l-0.2,0.86l0.26,0.19l0.46,0.07l0.48,-0.18l0.27,-0.53l-0.23,-0.15l0.08,-0.32l-0.78,-0.1L712.02,536.47zM545.67,721.52l-0.21,0.52l0.4,-0.07l0.46,0.17l0.19,-0.1l0.13,-0.41l-0.19,-0.19l-0.46,-0.07L545.67,721.52zM542.88,717.09l-0.22,0.37l0.02,0.7l-0.22,0.26l0.23,0.4l0.06,0.61l0.5,0.24l1.72,0.07l0.72,0.22l0.7,0.52l0.8,1.72l-0.04,0.24l-0.59,0.74l0.35,0.56l0.15,0.69l-0.06,0.58l0.48,0.44l0.22,0.44l0.38,0.29l0.33,-0.06l0.48,-0.66v-0.51l-0.21,-0.94l-0.35,-0.12l-0.02,-0.25l0.46,-0.45l0.22,0.07l-0.03,0.31l0.31,-0.1l0.56,-0.71l-0.02,-0.57l-0.44,-1.24l0.17,-0.69l0.28,-0.35l-0.03,-0.28l-0.45,-0.2l-0.52,0.06l-1.28,-0.34l-0.44,0.02l-0.18,-0.29l-0.97,-0.43l-1.11,-0.82l-0.48,-0.78l-0.95,-0.25L542.88,717.09z"/>
		<path id="CW" title="Curaçao" class="land" d="M518.43,713.89l0.53,0.29l0.25,0.24l0.56,0.33l0.56,0.27l0.57,0.09l0.31,0.32l0.25,0.49l0.2,0.23l0.05,0.13l0.02,0.28l0.03,0.83l0.11,0.37l0.17,0.29l0.07,0.16l0.05,0.25l0.21,0.23l0.19,0.37l0.57,0.4l0.26,0.31l0.44,0.28l0.22,0.29l0.33,0.18l0.25,0.04l0.29,0.13l0.34,0.07l0.36,-0.06l0.24,0.03l0.36,0.22l0.36,0.1h0.6l0.36,0.08l0.67,0.01l0.6,0.38l0.23,0.2l0.36,0.21l0.15,0.17l0.25,0.52l0.05,0.11l0.11,0.31l0.21,0.27l0.29,0.51l0.43,0.41l0.4,0.59l0.74,0.57l0.06,0.07l-0.01,0.07l-0.11,0.07l-0.31,0.04l-0.46,-0.12l-0.17,0.02l-0.21,-0.06l-0.27,0.12l-0.14,0.18l-0.1,0.06l-0.49,-0.12l-0.12,-0.09l-0.26,-0.09l-0.27,-0.11l-0.22,-0.09l-0.22,-0.12l-0.15,-0.2l-0.17,-0.07l-0.15,-0.08l-0.13,0.05l-0.17,-0.16l-0.38,-0.14l-0.15,-0.07l-0.12,-0.1l-0.2,-0.1l-0.17,-0.17l-0.27,-0.1l-0.18,-0.17l-0.19,-0.11l-0.48,-0.2l-0.26,-0.05l-0.11,-0.04l-0.34,-0.13l-0.14,-0.01l-0.5,-0.33l-0.11,-0.23l-0.38,-0.16l-0.03,-0.16l-0.27,-0.03l-0.16,-0.1l-0.1,-0.14l0.03,-0.21l-0.13,-0.13l-0.05,-0.25l-0.26,-0.2l-0.15,-0.38l-0.05,-0.17l-0.04,-0.02l-0.03,-0.17l-0.2,-0.19l-0.37,-0.13l-0.08,-0.07H522l-0.2,0.07l-0.1,0.22l-0.17,0.17l-0.32,-0.07l-0.1,-0.1l-0.2,-0.07l-0.06,-0.19l-0.22,-0.16l-0.03,-0.28v-0.08l-0.19,-0.22l0.02,-0.18l-0.11,-0.09l-0.04,-0.15l-0.27,-0.06v-0.29l-0.1,-0.07l0.02,-0.08l-0.16,-0.07l-0.19,-0.18l-0.19,-0.09l-0.1,-0.25l-0.08,-0.04l-0.27,-0.02l-0.07,-0.06l-0.04,-0.15l-0.13,-0.19l-0.18,-0.07l-0.02,-0.13l-0.18,-0.27l0.09,-0.19l0.17,-0.08l0.01,-0.16l-0.13,-0.32v-0.26l0.05,-0.14l-0.09,-0.09l-0.04,-0.13l-0.01,-0.1l-0.01,-0.29l0.1,-0.15l-0.16,-0.28l0.1,-0.27l-0.12,-0.21l-0.16,-0.17l0.2,-0.33L518.43,713.89z"/>
		<path id="SX" title="Sint Maarten" class="land" d="M715.75,522.54l0.77,-0.02l0.8,0.26l0.43,-0.11l0.53,-0.48l0.32,-0.03l0.44,0.28l0.84,0.08l0,0l-0.11,0.1l0.06,0.19l-0.27,0.39l0.13,0.05l-0.04,0.14l-0.24,0.16l0.1,0.16l-0.6,0.49l-0.06,-0.28l-0.13,0.12l0.17,-0.41l-0.13,-0.11l-0.26,-0.03l-0.12,0.43l-0.16,-0.25l-0.19,0.12l-0.19,-0.18l-0.12,0.12l-0.12,-0.24l-0.29,0.07l-0.16,-0.17l0.12,-0.2l-0.15,-0.17l-0.46,-0.04l-0.14,0.26l-0.31,-0.32l-0.03,-0.19L715.75,522.54z"/>
		<path id="KY" title="Cayman Islands" class="land" d="M171.54,464.13l-0.98,0.91l-4.59,1.28l4.59,-2.48L171.54,464.13zM163.65,465.87l-1.54,0.27l-1.91,1.1l-1.32,-0.08l2.02,-1.39l2.44,-0.51L163.65,465.87zM123.96,479.53l-1.81,0.34l-1.29,0.97l-2.49,-0.56l-1.22,0.51l-0.36,-0.55l0.33,-2.33l-1.2,-0.97l1.03,-0.7l0.79,0.33l-0.56,0.33l0.66,1.15l-0.26,0.73l0.74,1.08l1.7,-0.4v-1l1.12,0.32l0.08,-0.77l-0.62,-0.35l0.18,-0.58l1.27,0.83l4.41,-0.18l0.4,0.39l-0.56,1.53L123.96,479.53z"/>
		<path id="DM" title="Dominica" class="land" d="M777.85,614.79L778.05,615.15L777.8,616.28L777.93,616.58L777.59,616.83L777.68,616.93L777.44,617.91L777.08,618.15L776.44,618.28L776.15,618.1L775.78,618.17L775.59,618.73L775.1,618.95L775.14,619.23L774.29,619.42L773.68,619.18L773.96,619.13L774.14,618.58L773.7,618.25L773.55,617.65L773.68,617.18L773.62,616.67L773.11,616.26L773.2,615.74L772.91,615.27L773.09,615.01L773.04,614.43L772.38,613.32L771.93,612.96L771.96,612.4L771.64,611.74L771.18,611.41L771.3,611.09L771.01,610.75L770.87,610.19L770.51,609.6L770.62,609.19L770.2,608.25L770.31,607.99L770.72,607.77L770.97,607.18L770.76,606.63L770.25,606.64L770.29,606.44L770.63,606.43L770.78,606.28L770.62,605.52L770.91,604.8L772.09,604.74L772.53,605.19L772.6,605.52L772.75,605.58L773.14,606.3L773.35,606.21L773.64,606.32L774.01,606.08L774.29,606.34L774.93,606.18L775.1,606.52L775.46,606.58L775.57,606.45L776.03,606.61L775.93,607L776.19,607.22L776.29,607.81L776.53,608.09L776.96,608.07L777.07,608.2L776.97,608.84L777.56,608.88L777.46,609.35L777.83,609.75L777.84,610.29L778.04,610.6L777.87,610.7L777.83,611.19L777.51,611.62L777.61,611.8L777.88,611.7L777.74,611.99L777.85,612.48L777.6,612.7L778.02,612.74L778.07,613.02L777.68,613.2L777.69,613.45L777.95,613.6L777.74,613.66L777.69,613.86z"/>
		<path id="DO" title="Dominican Republic" class="land" d="M513.3,509.24l-0.36,-0.17l-0.35,0.68l-3.36,0.02l-2.94,0.72l-2.24,-1.47l-0.97,-0.06l-0.51,1.64l-1.08,-0.34l-0.43,-1.24l-0.56,-0.28l-6.18,-0.47l-1.84,1.19l-2.48,0.46l-2.07,3.59l-0.9,0.64l-1.49,2.3l-1.78,-0.2l-0.92,0.47l-1.08,-0.52l-2.04,0.39l-1.98,-0.39l-3.69,1.49l-1.96,-0.49l0.14,-0.13l1.91,-0.3l-2.94,-1.93l0.65,-1.18l0.06,-2.04l-0.36,-1.23l-1,-0.53l-2.51,-0.26l-0.72,0.69l0.25,0.91l-0.75,0.96l-1.91,0.36l-0.67,-0.33l-0.82,0.85l-0.16,-0.13l0.19,-0.32l-0.46,-0.17l-2,2.61l-1.77,0.85l-1.35,-1.78l-2.07,-0.54l-1.59,1.91l1.79,3.57l-0.56,1.61l-4.38,6.39l-2.31,2.57l-0.32,-0.23l-0.05,0.9l-1.35,1.01l-1.47,4.24l-1.62,2.42l-1.64,-2.02l-0.82,-2.19l-1.18,-1.06l-2.28,-0.36l-1.96,0.4l-0.88,-0.43l0.86,-0.44l0.32,-1.01l0.57,0.08l0.26,-0.91l-1.52,-2.32l0.67,-0.95l-0.57,-1.42l-2.68,-1.97l0,0l0.81,-2.21l-0.49,-0.61l0.13,-1.24l-0.37,0.07l-0.25,-0.77l-0.59,0l-0.13,-0.57l3.03,-5.39l-3.19,-1.25l-1.26,-0.73l-0.47,-1.05l-2.01,-0.96l-0.31,-0.96l1.11,-0.2l-0.03,-0.44l-2.85,-3.5l-1.35,-0.67l1.39,-1.1l1.26,0.73l0.77,-0.48l0.8,0.73l0.37,-0.35l1.76,0.22l0.37,-1.9l2.19,-1.29l0.45,-5.47l-0.46,0.09l-1.02,-0.99l-0.44,-1.63l-1.91,-0.52l0,0.39l-0.72,-0.16l0,0.55l-0.62,0.19l-0.18,-0.6l1.7,-1.61l0.18,0.42l0.97,-0.39l0.33,0.42l0.59,-1.36l0.31,0.16l0.37,-0.7l0.31,0.16l1.29,-1.1l-0.36,-0.29l0.49,-0.16l-0.25,-0.58l1.66,-0.39l0.28,-0.7l-0.37,-0.27l0.51,-0.06l-0.16,-0.8l0.42,-0.04l-0.46,-0.25l0.66,-0.19l-0.35,-0.68l0.53,-0.16l-0.59,-0.8l-1.88,-0.35l-0.93,-1.29l-0.18,0.55l-0.28,-0.59l-0.31,0.16l-1.24,-1.96l1.14,-0.32l1.2,-1.1l0.44,0.43l0,0l0.09,-1.26l0,0l0.65,-1.71l-0.5,-1.01l0.15,-1.35l-0.37,0.04l-0.65,-1.69l-0.8,-0.77l-0.07,-1.72l0.42,-0.46l-0.89,-1.7l0,0l0.51,-0.37l0.33,0.27l0.21,-0.92l-0.9,-1.35l0.22,-0.92l-0.88,1.26l-0.16,-0.7l1.1,-1.19l2.76,-1.47l0.21,-1.5l0.8,0.67l0.47,-0.71l1.13,-0.33l3.03,0.04l3.62,1.78l4.25,0.99l1.15,-0.38l0.07,-1.05l1.17,0.58l0.26,-0.25l2.07,-0.15l1.44,-1.84l1.6,-0.49l2.23,0.91l-0.36,0.41l0.78,0.03l-0.3,-0.39l0.29,-0.41l1.68,0.58l1.38,-0.2l0.11,0.55l1.58,1.21l0.19,0.9l1.17,-0.31l1.43,1.36l0.34,-0.18l2,1.42l0.38,-0.24l1.06,0.52l1,-0.34l0.99,0.41l0.52,-0.94l2.06,-0.1l1.7,1.19l1.34,1.93l2.83,1.76l4.03,0.73l1.7,-0.33l1.61,-1.68l2.77,-0.09l1.98,1.2l0.48,0.97l-0.61,2.47l1.19,1.31l-0.26,1.94l1.12,2.82l1.89,2.25l1.38,0.84l1.07,0.21l3.81,-0.74l1.55,-1.05l3.44,0.03l0.52,0.44l0.46,-0.31l2.78,1.34l0.2,-0.83l2.31,-1.18l0.4,-0.76l0.81,0.32l-1.17,2.26l3.25,-0.38l-0.39,1.23l-1.51,1.1l-0.77,1.85l-3.29,-0.81l-0.29,0.35l-2.01,-0.08l-0.15,0.38l-2.12,-0.82l-4.92,-0.58l-0.6,3.08l0.64,1.98l1.8,-0.5l1.1,0.49l1.01,-0.42l1.56,0.68l0.48,-0.92l0.84,-0.21l1,0.64l0.14,0.91l1.2,0.51l1.05,-0.18l1.6,1.13l1.27,-0.4l0.64,0.69l1.62,-0.18l0.33,0.56l0.25,-1.22l-0.6,-0.18l0.42,-0.22l0.88,1.11l1.71,0.94l1.7,-0.13l0.29,-0.41l-0.4,-0.48l1.01,-0.01l0.48,-0.58l1.68,0.13l1.69,1.2l1.03,-0.09l1.98,0.72l2.49,1.55l2.42,2.89l2.52,2.21l0.73,0.07l2.01,1.55l2.42,2.5l1.57,0.67l0.69,1.16l-1.68,3.61l-2.31,2.67l-0.59,2.73l-0.9,0.33l-3.45,-1.51l-0.56,0.27l0.33,1.4l-1.32,2.63l-0.03,1.58l-2.52,-0.13l-0.29,0.05l-0.54,-0.36l-0.33,0.7l-0.01,-1.04l-1.94,-3.55l-0.94,-1.28l-1.91,-0.94l-1.9,-0.49l-0.67,0.49l-3.48,0.27l-3.24,-0.95l-0.8,-1.12L513.3,509.24zM523.07,511.36l0.58,1.33l-1.05,-0.49L523.07,511.36zM537.24,520.55l-2.13,-0.68l-1.47,0.55l-2.21,-0.77l-0.89,-1.75l0.53,-0.38l3.85,1.37l1.65,-0.09l0.91,0.92L537.24,520.55zM442,539.15l-1.51,0.85l-0.84,-0.24l1.06,-2.37l1.71,1.15L442,539.15z"/>
		<path id="GD" title="Grenada" class="land" d="M773.31,708.97l0.14,0.05l0.05,0.19l-0.25,-0.1l-0.03,-0.1L773.31,708.97zM771.33,709.58l0.27,-0.17l0.29,0.09l-0.04,0.49l0.32,0.29l-0.17,0.28l0.02,0.15l-0.14,0.07l-0.13,0.25l0.1,0.67l-0.3,0.11l-0.12,-0.1l-0.17,0.1l-0.3,-0.05l-0.24,0.08l-0.2,0.29l-0.6,-0.09l-0.24,0.2l0.02,0.19l-0.14,0.04l0.05,-0.39l0.22,-0.21h0.2l0.05,-0.11l-0.1,-0.25l-0.18,0.07l-0.22,-0.19l-0.02,-0.23l0.11,-0.12l-0.01,0.15l0.45,0.07l0.14,-0.08l0.03,-0.17l0.32,0.02l0.25,-0.1l0.17,-0.18l0.01,-0.34l0.16,-0.14l-0.01,-0.51L771.33,709.58zM773.38,709.42l0.13,0.13l0.04,0.26l-0.19,0.15l-0.16,-0.04l-0.2,-0.25L773.38,709.42zM770.23,713.08l0.15,-0.01l0.02,0.2h-0.25L770.23,713.08zM769.91,713.28l0.14,0.16L770,713.6l-0.25,-0.18L769.91,713.28zM767.8,716.27l0.14,0.21l-0.05,0.11l-0.2,-0.06L767.8,716.27zM766.73,716.34l0.09,0.16l0.15,-0.01l-0.01,-0.11l0.11,0.07L767,716.6l-0.14,0.01l0.02,0.11l0.16,0.06l-0.01,0.2l-0.24,0.27l-0.38,-0.22l0.27,-0.34l-0.04,-0.29L766.73,716.34zM767.12,717.26l0.08,0.1l-0.04,0.16l-0.2,0.13l-0.25,-0.12l0.01,-0.2L767.12,717.26zM765.21,725.37l-0.23,0.3l-0.32,-0.04l0.08,0.28l-0.18,0.07l-0.04,0.15l-0.19,-0.02l-0.13,0.19l-0.44,0.17l-0.16,-0.11l-0.53,0.18l-0.07,0.26l-0.25,-0.11l0.07,0.34l-0.13,0.2l-0.09,-0.03l-0.05,-0.21l-0.23,0.03l-0.38,-0.27l-0.2,-0.04l-0.44,0.6l-0.32,0.11l-0.42,-0.3l-0.1,-0.22l-0.26,-0.01l-0.01,0.17l-0.22,-0.14l-0.36,-0.02l0.13,-0.15l0.43,-0.13l0.3,-0.26l0.69,-0.35v-1.24l0.08,-0.25l-0.35,-0.32l0.04,-0.17l0.2,-0.09l0.1,-0.45l0.17,-0.16l-0.12,-0.55l0.23,-0.34l0.04,-0.27l0.26,-0.22l0.09,-0.5l0.22,-0.24l0.03,-0.32l0.33,-0.32l0.35,-0.14l0.21,-0.4l0.2,-0.07l0.1,-0.22l0.26,-0.07l0.64,-0.51h0.21l0.34,0.32l0.95,-0.16l0.36,0.23l-0.18,0.46l0.15,0.23v0.26l0.13,0.08l-0.08,0.22l0.07,0.56l-0.1,0.07l-0.15,1.06l0.06,0.3l0.16,0.05l-0.04,0.11l-0.51,-0.09l-0.24,0.41l0.04,0.58l0.29,0.6l-0.09,0.08l-0.23,-0.04l0.03,0.4L765.21,725.37z"/>
		<path id="HT" title="Haiti" class="land" d="M403.09,453.96l1.58,1.5l-2.49,-0.02l-4.05,-1.15l-1.88,-0.07l-3.12,-1.14l5.44,-0.87L403.09,453.96zM410.08,505.59l0.77,0.1l0.49,-0.45l1.34,0.78l0.82,-0.33l-0.09,-0.79l0.59,-0.63l-0.79,-1.55l0.41,0.07l0.9,-1.07l-0.08,-0.74l-2.37,-1.2l-1.85,-0.18l-0.53,-1.33l-2.44,-0.59l-3.55,-4.96l-2.54,-1.16l-0.41,-1.34l-2.71,-1.82l0.4,-1.19l1.24,-0.5l1.39,0.17l0.95,-0.92l-0.11,-0.57l-1.91,-1.13l-1.24,-1.98l1.52,-0.35l-0.33,-0.34l-0.41,0.27l-0.32,0.03l0.63,-1.42l-0.24,-0.34l0.88,0.2l0.38,-0.56l0.29,0.37l0.34,-0.33l-0.3,-0.38l-0.14,0.14l-0.13,-0.26l0.04,-0.13l0.15,-0.51l-0.87,0.03l-0.19,-0.66l-0.23,0.47l-0.16,-0.91l0.46,-0.68l1.14,0.28l0.41,-0.63l-0.63,-0.59l0.36,-0.94l0.55,1.27l0.63,-0.36l-0.56,-0.86l0.11,-0.96l-1.53,0.42l-0.89,-0.3l-1.12,-1.66l-1.44,-1.04l-3.73,-1.52l-1.14,-0.88l0.11,-0.43l-0.69,0.28l-1.57,-0.96l-1.38,-0.3l-0.88,0.69l-2.47,-1.39l-0.92,1.16l-4.25,0.19l-0.88,-0.39l-2.04,-1.82l-0.1,-1.92l0.99,-1.9l1.36,-0.1l0.06,-0.63l-1.28,-0.4l0.44,-0.49l2.13,0.21l2.34,-0.95l3.52,-2.28l4.3,0.75l0.1,-0.45l1.92,-0.08l0.46,0.51l0.42,-0.59l5.41,-0.88l3.93,1.19l1.31,0.83l1.32,-0.14l1.66,1.72l0.76,0.03l0.43,0.93l0.08,-0.49l1.55,0.6l0.45,-0.47l0.95,0.96l0.71,-0.48l0.15,0.66l1.23,0.94l0.42,0.85l-0.54,-0.11l0.16,0.9l0.61,0.57l0.32,-1.1l-0.35,-1.09l1.98,0.33l-0.01,-0.54l0.52,0.07l-0.14,-0.51l1.64,0.01l0.09,1.6l1.6,-0.02l-0.18,-0.48l0.73,0.15l0.58,0.82l1.82,-0.12l-0.38,0.52l-0.39,0.16l0.29,0.33l0.96,-1.1l0.16,1.02l-0.92,0.26l0.37,0.27l1.52,-0.58l0.46,0.28l0.19,-1.22l0.84,-0.03l0.48,0.53l0.29,-0.38l2.73,0.43l0.13,0.9l-1.19,0.34l-0.31,0.42l0.58,0.31l1.23,-0.5l0.61,0.94l0.41,-0.92l-1.02,-0.45l-0.08,-0.86l2.81,0.43l0,0l0.89,1.7l-0.42,0.46l0.07,1.72l0.8,0.77l0.65,1.69l0.37,-0.04l-0.15,1.35l0.5,1.01l-0.65,1.71l0,0l-0.09,1.26l0,0l-0.44,-0.43l-1.2,1.1l-1.14,0.32l1.24,1.96l0.31,-0.16l0.28,0.59l0.18,-0.55l0.93,1.29l1.88,0.35l0.59,0.8l-0.53,0.16l0.35,0.68l-0.66,0.19l0.46,0.25l-0.42,0.04l0.16,0.8l-0.51,0.06l0.37,0.27l-0.28,0.7l-1.66,0.39l0.25,0.58l-0.49,0.16l0.36,0.29l-1.29,1.1l-0.31,-0.16l-0.37,0.7l-0.31,-0.16l-0.59,1.36l-0.33,-0.42l-0.97,0.39l-0.18,-0.42l-1.7,1.61l0.18,0.6l0.62,-0.19l0,-0.55l0.72,0.16l0,-0.39l1.91,0.52l0.44,1.63l1.02,0.99l0.46,-0.09l-0.45,5.47l-2.19,1.29l-0.37,1.9l-1.76,-0.22l-0.37,0.35l-0.8,-0.73l-0.77,0.48l-1.26,-0.73l-1.39,1.1l1.35,0.67l2.85,3.5l0.03,0.44l-1.11,0.2l0.31,0.96l2.01,0.96l0.47,1.05l1.26,0.73l3.19,1.25l-3.03,5.39l0.13,0.57l0.59,0l0.25,0.77l0.37,-0.07l-0.13,1.24l0.49,0.61l-0.81,2.21l0,0l-5.64,-5.44l-2.45,-0.85l-0.34,0.29l-1.4,-1.1l-5.3,0.59l-5.4,-0.49l-4.57,0.71l-0.91,-0.68l-0.38,0.44l0.55,1.29l-0.39,0.4l-2.85,-0.69l-2.4,0.57l-1.27,-0.31l-0.29,0.41l0.4,0.6l-1.08,-0.19l-0.16,0.45l-0.99,0.18l-2.48,-0.29l-3.84,-1.27l-2.53,0.06l-2.8,-0.89l-3.09,-0.14l-0.41,-0.59l-3,0.53l0.67,-1.37l-1.21,-0.44l0.4,-0.09l-0.15,-0.34l-0.46,0.1l-0.03,0.32l-0.54,0.29l0.41,0.3l-1.83,-0.49l0.05,0.39l-1.32,-0.03l-0.51,0.82h-0.79l-0.47,-0.97l-0.67,0.08l-0.04,1.48l-0.56,-0.69l-0.33,0.69l-0.8,-0.06l0.6,-0.92l-0.25,-0.4l-0.77,0.19l-0.02,0.91l-0.84,0.46l0.39,-1.48l-0.87,1.04l-0.11,-0.5h-0.59l-0.22,0.86l-3.93,2.09l-0.72,0.97l0.08,0.71l1.92,1.87l-0.26,0.69l-2.87,0.22l-0.89,-0.37l-0.56,-1.78l-1.9,-2.7l-0.72,-0.08l-0.14,-0.54l-2.81,-2.26l-2.48,-0.88l-2.01,-1.34l-1,-0.01l-1.77,0.92l-1.9,-0.4l-1.04,-0.75v-0.52l-1.5,-0.51l-0.09,-1.68l-1.01,-0.63l0.89,-1.91l-0.24,-0.73l0.61,-0.83l-0.13,-0.55l0.98,-1.6l-0.27,-1.31l0.96,-0.33l0.28,-0.58l0.67,0.27l2.26,-0.9l0.59,0.49l0.54,-0.75l1.72,-0.22l2.45,0.48l2.35,1.83l4.5,0.52l0.75,0.95l2,-0.17l1.72,1.2l2.25,-0.54l-0.42,-0.19l0.87,-0.63l4.66,-0.33l-0.84,1.16l-2.43,-0.03l-0.74,-0.43l0.16,0.42l-1.35,0.25l2.01,0.17l-0.31,1.12l0.31,0.3l2.47,-0.07l1.9,-0.9l2.4,-0.03l5.71,1.61l4.01,-0.13l1.14,0.4l0.94,1.04l1.87,-0.73l2.56,0.01l2.18,0.57l0.13,0.79l1.39,-0.66l3.63,0.62l1.36,-0.39l0.69,-0.62l0.79,-2.36l1.58,-1.22l1.7,-0.03l0.43,0.57L410.08,505.59zM398.15,500.35l-0.56,-0.18l-0.1,-0.69l-5.31,-0.78l-4.12,-2.52l-2.99,-0.55l-2.63,-2.46l-0.07,-0.96l1.52,-1.11l1.81,-0.13l2.18,1.14l2.44,0.4l3.91,2.33l2.99,0.73l-0.26,0.15l1.48,1.56l0.55,1.67l-0.79,0.37l0.36,0.73L398.15,500.35zM367.11,502.25l2.02,0.53l0.06,0.67l-1.39,0.92l-1.59,-0.55l-0.12,-0.89L367.11,502.25zM369.28,520.7l1.84,0.81l1.43,-0.57l0.9,1.1l-0.51,0.4l-2.89,-0.15l-1,-1.11L369.28,520.7z"/>
		<path id="JM" title="Jamaica" class="land" d="M270.04,526.06l-0.57,-0.62l-2.08,0.12l-1.37,-1.14l-1.91,4.16l-0.77,0.96l-0.98,0.37l-0.56,-0.52l-0.79,0.4l-0.41,-0.42l-0.98,0.28l0.42,-1.07l-1.01,-1.08l-2.21,0.44l-1.24,1.96l0.75,0.85l-0.98,-0.14l-0.09,0.5l1.58,2.38l-0.67,0.79l-1.08,0.12l-3.66,-2.47l-1.24,-1.47l-2.7,-1.46l-3.3,0.75l-1.87,-0.9l-5.71,0.5l0.04,-0.4l-1.72,-1.11l-0.24,-0.91l-1.29,-0.71l0.27,-1.87l-0.31,-0.59l-1.33,-0.61l-1.67,0.16l-1.66,-2.68l-1.44,-0.66l-0.07,-1.42l-0.73,-1.19l-3.64,-0.44l-2.53,0.75l-0.75,-0.86l-3.13,-0.74l-0.39,-1.08l0.94,-0.65l0.05,-2.6l0.85,0.18l0.62,-1.19l0.88,0.2l-0.07,-0.7l1.84,-1.57l1.53,0.1l0.09,0.57l0.77,-0.9l1.5,0.49l2.89,-0.47l2.31,0.66l0.4,-2l2.49,-0.81l4.04,0.5l1.42,0.81l0.66,-0.36l0.86,0.52l2.68,-0.33l2.98,0.39l0.27,0.4l0.56,-0.38l0.97,0.71l0.25,-0.39l1.58,0.37l1.38,-0.46l2.9,0.64l0.67,0.55l0.84,-0.13l2.04,1.06l2.26,-0.43l2.92,0.77l0.59,-0.45l1.4,0.06l0.14,1.34l2.77,1.42l-0.09,0.65l1.03,1.48l0.97,-0.31l0.93,0.56l1.18,-0.12l1.36,1.36l1.54,-0.28l0.89,1.08l1.68,0.27l1.26,-0.39l1.08,1.05l0.28,-0.42l3.34,1.15l2.13,3.69l0.02,1.14l1.18,1.52l0.07,0.94l1.05,0.23l0.65,0.84l-4.17,1.48l-0.37,-0.05l0.05,-0.74l-0.76,1.03l-1.97,-0.67l-4.21,1.08l-1.18,-0.8l-1.33,0.08l-1.6,-2.07L270.04,526.06z"/>
		<path id="LC" title="Saint Lucia" class="land" d="M784.67,668.07l-0.96,-0.92l0.01,-0.34l-0.35,-0.23l0.48,-0.57l-0.16,-0.45l0.29,-0.57l-0.67,-0.31l0.03,-0.66l0.45,-0.88l-0.06,-0.21l0.21,-0.1l0.14,-0.31l-0.03,-0.27l0.25,0.03l0.21,-0.17l-0.07,-0.11l0.24,-0.46l0.28,-0.35l0.16,0.05l-0.15,-0.15l0.09,-0.56l0.5,0.1l-0.15,-0.26l0.04,-0.57l0.22,-0.05l0.05,-0.25l0.33,0.22l0.2,-0.08l-0.36,-0.13l-0.1,-0.25l0.48,0.08l0.57,-0.46l-0.07,-1.1l0.59,-0.1l0.12,-0.21l-0.05,-0.34l-0.2,-0.15l-0.18,0.07l0.01,-0.17l0.4,0.08l0.31,-0.6l0.53,0.2l0.14,-0.08l0.21,0.11l0.06,0.35l-0.35,0.06l-0.03,0.15l0.17,0.02l0.15,0.31l0.25,-0.1l-0.08,0.12l0.16,0.09l-0.14,0.01l-0.01,0.42l0.38,-0.21l0.57,0.51l-0.15,0.42l-0.29,-0.01l0.19,0.13l-0.18,0.17l0.3,0.07l-0.07,0.35l0.18,0.14l-0.11,0.28l0.17,0.46l0.21,0.12l0.07,0.43l-0.15,0.46l0.17,0.08l-0.17,0.18l0.25,0.04l-0.15,0.05l0.04,0.19l-0.17,0.13l0.13,0.04l-0.12,0.45l-0.38,0.08l0.26,0.42l-0.27,0.24l0.38,0.33l-0.05,0.3l-0.14,0.04l0.05,0.15h-0.11l0.1,0.13l-0.34,-0.08l0.04,0.17l-0.18,0.06l0.07,0.13l0.47,-0.07l-0.18,0.18l0.04,0.15l0.3,-0.1l-0.1,0.21l-0.26,0.01l0.05,0.13l0.17,-0.02l-0.17,0.26l0.11,0.18l-0.13,0.09l0.14,0.14l-0.38,0.12l0.25,0.17h-0.44l0.17,0.09v0.18l0.32,0.04l-0.32,0.06l-0.21,0.89l0.23,0.01l-0.01,0.2l-0.15,-0.03l0.11,0.14l-0.12,0.04l-0.15,-0.06l0.13,0.31l-0.19,-0.08l0.06,0.24l-0.21,-0.01l-0.04,0.23l-0.39,-0.3l-0.3,0.21l0.23,0.18l-0.48,0.62l0.06,0.25l-0.28,0.2l0.27,0.49l-0.26,0.14l-0.2,-0.14l-0.23,0.04l0.22,-0.34l-0.24,-0.27h-0.5l-0.2,-0.24l-0.28,0.01l-0.25,-0.53l-0.62,0.04l-0.68,-0.23L784.67,668.07z"/>
		<path id="MS" title="Montserrat" class="land" d="M747.26,569.54L747.15,569.52L747.11,569.59L746.93,569.61L746.73,569.45L746.73,569.38L746.61,569.37L746.37,569.14L746.29,569.14L746.23,568.95L746.07,568.84L746.03,568.7L745.83,568.64L745.72,568.24L745.21,567.97L745.22,567.93L745.39,567.87L745.51,567.46L745.53,567.29L745.42,567.18L745.42,567.07L745.53,567L745.81,566.61L745.85,566.39L745.92,566.27L745.95,565.99L746.03,565.91L746.23,565.49L746.32,565.45L746.39,565.31L746.4,565.25L746.33,565.21L746.32,565.15L746.41,565.08L746.37,564.91L746.43,564.83L746.42,564.66L746.61,564.52L746.67,564.61L746.78,564.59L747.2,564.78L747.3,565.01L747.3,565.1L747.22,565.16L747.2,565.37L747.31,565.5L747.38,565.85L747.57,566.02L747.59,566.3L747.71,566.48L747.79,566.52L747.79,566.61L747.89,566.68L748.04,566.66L748.12,566.75L748.18,566.87L748.15,566.96L748.22,566.98L748.18,567.12L748.26,567.23L748.26,567.32L748.17,567.41L748.11,567.58L748.11,567.75L748.14,567.89L748.26,567.97L748.31,568.11L748.32,568.2L748.23,568.3L748.19,568.46L748.39,568.78L748.38,568.93L748.26,569.11L748.17,569.17L748.05,569.4L747.92,569.47L747.85,569.6L747.38,569.6z"/>
		<path id="MQ" title="Martinique" class="land" d="M784.25,644.72l-0.3,0.06l-0.29,-0.46l-0.39,-0.06l0.06,-0.67l-0.34,-0.09l0.19,-0.35l-0.21,-0.17l-0.32,0.02l0.19,-0.58l0.23,-0.09l-0.02,-0.22l0.39,-0.28l0.34,0.07l0.16,-0.36l0.27,-0.09l-0.14,-0.05l0.14,-0.25l0.15,0.09l-0.08,0.28l0.44,-0.19l0.03,0.22l-0.23,0.1l0.04,0.2l0.28,-0.06l0.22,0.24l0.16,-0.15l0.27,0.17l0.16,-0.24l0.16,0.07l0.32,-0.23l-0.17,-0.17l0.26,-0.04l-0.16,-0.06l-0.04,-0.2l-0.45,0.01l-0.11,-0.37l0.13,-0.23l-0.15,0.1l-0.02,-0.23l-0.27,-0.05v-0.29l0.22,-0.11l-0.25,-0.12l0.15,-0.08l-0.07,-0.35l-0.56,0.21l0.09,0.43l-0.25,-0.08l-0.15,0.19l-0.01,-0.23l-0.17,-0.03l-0.14,0.17l-0.16,-0.29l-0.08,0.13l-0.32,-0.17l-0.53,0.11l-0.64,-0.89l-0.62,-0.28l-0.19,0.04l-0.15,-0.36l-0.41,-0.2l-0.34,-0.74l-0.56,-0.72l-0.19,-0.61l0.3,-0.85l-0.01,-0.36l-0.7,-0.7l-0.23,-0.44l-0.31,-0.07l-0.42,-0.72l-0.05,-0.38l0.09,-0.59l0.59,-0.97l0.85,-0.31l0.06,-0.18l1.08,-0.12l0.68,0.13l0.95,0.39l0.25,0.33l0.85,0.35l0.25,0.32l0.24,0.04l0.22,-0.15l0.19,0.24l0.25,-0.02l-0.07,0.24l0.37,0.15l0.05,0.32l0.22,0.09l0.19,-0.17l-0.05,0.09h0.2l-0.08,0.39l0.52,0.66l0.27,0.01l-0.09,0.18l0.47,0.42v0.25l0.2,0.19l-0.04,0.26l0.16,0.1l0.42,-0.71l0.32,-0.14l0.34,-0.06l0.15,0.17l0.26,-0.13l0.09,-0.25l0.25,0.09l0.48,-0.46l0.06,0.14l0.36,-0.03l-0.04,0.14l0.11,0.02l-0.11,0.21l0.11,0.26l-0.15,-0.02l-0.03,0.17l-0.18,-0.47l-0.43,0.2l0.26,0.29l-0.33,0.3l0.25,0.08v0.23l-0.62,0.02l-0.09,-0.32l-0.43,-0.21l-0.36,-0.01l-0.2,0.22l-0.05,0.2l0.25,0.2l-0.22,-0.04l-0.06,0.3l0.35,0.28l0.12,-0.22l0.19,0.02l-0.27,0.41l0.3,0.02l0.35,-0.23l-0.02,0.43l0.14,0.11l0.31,-0.11l-0.08,0.1l0.09,0.01l-0.37,0.41l-0.05,-0.13l-0.46,0.12l-0.05,0.16l0.15,0.18l-0.38,-0.18l-0.21,0.5l0.56,0.48l0.45,-0.41l0.09,0.11l0.1,-0.14l0.12,0.12l0.18,-0.07l-0.05,0.13l0.15,0.07l0.13,-0.22l0.26,0.06l-0.12,0.41l-0.13,-0.1l-0.03,0.2l-0.22,0.06l-0.18,-0.13l-0.09,0.11l0.31,0.23l0.25,-0.01l-0.17,0.06l0.09,0.3l-0.23,0.09l-0.04,0.27l0.37,-0.06l0.02,0.21l0.32,-0.19l0.25,0.07l-0.27,0.19l0.3,0.27l-0.11,0.3l0.14,0.19l0.28,0.05l0.26,-0.18l0.17,0.41l-0.19,0.08l0.32,0.05l-0.37,0.14l0.05,0.2l0.31,-0.1l-0.21,0.18l0.27,-0.01l-0.14,0.25l0.6,-0.3l-0.39,0.63l0.39,0.32l-0.03,0.21l-0.29,0.04l0.37,-0.02l0.05,0.16l-0.06,0.26l-0.28,-0.05l-0.07,0.34l0.4,-0.06l0.04,0.64l0.09,0.09l0.09,-0.08l0.23,0.49l-0.1,0.21l-0.18,0.08l-0.05,-0.15l-0.06,0.16l0.46,0.41l-0.23,-0.05l-0.2,0.17l-0.1,0.58l-0.27,0.18l-0.05,0.33l-0.2,0.05l-0.05,-0.16l-0.19,-0.02l-0.04,0.17l0.2,0.03l-0.04,0.18l0.24,0.04l-0.02,0.12l-0.3,-0.06l-0.28,0.54l-0.28,-0.08l-0.13,0.13l-0.34,-0.06l0.07,-0.16l-0.31,-0.12l-0.01,-0.29l-0.26,-0.19l0.45,-0.65l-0.13,-0.45l0.21,0.16l0.14,-0.05l-0.08,-0.11l0.13,-0.22l0.24,0.11l-0.1,-0.11l0.16,-0.11l-0.06,-0.15l-0.22,0.11l0.09,-0.17l-0.09,-0.05l-0.19,0.14l0.08,-0.21l-0.8,0.79l-0.43,-0.41l0.02,-0.31l-0.77,0.23l-0.37,-0.16l-0.34,0.06l-0.27,-0.25l-0.33,0.17l-0.21,-0.47l-0.13,0.31l-0.2,-0.17l0.07,0.32l-0.11,0.07l-0.26,-0.14l-0.1,-0.3l-0.16,0.26l-0.45,-0.31l-0.64,0.24L784.25,644.72z"/>
		<path id="PR" title="Puerto Rico" class="land" d="M619.58,525.49l-2.78,1.27l-0.94,-0.29l0.25,-0.4l-1.11,-0.43l-0.96,1.14l-1.19,-0.7l-0.45,0.24l-0.07,-0.68l-1.09,-0.59l-1.27,0.36l-0.77,1.06l-2.56,-1.83l-5.07,0.98l-0.26,-0.71l-1.49,0.57l-1.73,-0.89l-1.08,0.53l-0.39,-1.02l-1.19,0.77l0.74,-0.09l-0.09,0.46l-1.61,0.79l-2.19,0.04l-0.11,-0.56l-0.67,-0.26l-0.15,0.35l0.72,0.4l-0.75,0.29l0.26,0.54l-1.1,-0.14l-1.02,-1.38l-0.5,-0.01l0.02,0.37l-0.3,-0.45l-1.6,-0.06l-1.41,1.01l-2.48,-0.66l-0.41,0.42l0.3,0.71l-0.38,-0.01l-0.68,-1.85l1.42,-1.23l-1.24,-0.51l0.83,-1.12l-0.57,-0.41l0.67,-1.01l-0.13,-1.89l1.07,-1.33l-0.67,-0.74l-0.57,-2.01l-1.44,-0.51l-1.2,-2.21l3.65,-1.74l-0.15,-2.54l0.88,-0.69l1.51,-0.28l5.92,1.11l4.06,-0.32l2.61,0.74l1.04,-0.64l1.65,-0.14l5.54,0.89l1.85,-0.86l2.81,0.65l4.27,0.16l0.47,0.65l1.06,-0.48l0.23,0.68l0.73,0.03l0.02,0.54l0.85,-0.41l-1.34,-1.12l3.28,1l0.76,-0.05l0.32,-0.52l2.18,0.54l0.8,-0.28l2.1,0.71l0.72,0.78l0.81,-0.43l-0.19,0.57l0.81,-0.29l0.93,1.14l0.72,-0.32l0.36,0.59l1.2,0.34l1.97,-0.75l-0.75,1.32l0.37,1.43l-0.35,0.51l0.34,1.13l0.68,-0.14l0.49,1.11l-0.52,0.05l0.22,0.58l-1.06,-0.79l-0.01,1.14l-1.09,-0.23l-0.84,0.38l-0.05,0.6l-1.22,-0.28l-1.27,1.28l-0.97,2.91l-1.31,0.39l0.08,1.42l-1.18,0.16l-1.57,1.1l-2.07,0.25L621.6,525l-1.29,0.98L619.58,525.49zM643.59,512.29l0.66,0.78l0.25,-0.34l1.25,0.24l0.93,0.95l-0.46,-0.18l-0.16,0.67l-1.27,-0.71l0.69,0.71l-0.24,0.42l-1.45,-1.51L643.59,512.29zM636.71,520.24l4.91,-1.5l4.31,0.94l-0.92,0.3l-0.38,-0.3l-1.29,0.86l-0.32,-0.11l0.51,-0.24l-0.76,-0.33l-0.35,0.8l-1.12,-0.24l-0.48,0.61l-0.49,0.15l-0.06,-0.18l-0.36,0.37l-0.97,-0.35l-1.67,0.56l-1.52,-0.76l0.02,-0.6L636.71,520.24zM558.33,521.63l-0.3,-0.17l0.38,-1l0.65,-0.23l1.76,-0.1l0.54,0.71l-0.02,0.71l-1.19,0.93L558.33,521.63z"/>
		<path id="TC" title="Turks and Caicos Islands" class="land" d="M425.36,386.76l2.52,0.69l-0.32,-0.09l0.31,2.51l0.78,1.01l0.91,0.21l-0.15,0.9l-1.89,0.82l-1.27,-0.41l-0.03,-0.53l-1.6,-1.05l-1.05,-0.03l-0.15,-0.28l1.08,-0.53l-0.71,-0.22l0.28,-0.63l-0.52,-0.47l-0.13,-1.07l0.36,-0.54L425.36,386.76zM428.58,389.97l0.09,-0.44l-0.61,-0.11l-0.12,-1.95l1.27,0.9l-0.36,0.21l0.56,1.6l-0.26,0.44L428.58,389.97zM423.37,387.6l0.05,1l-0.76,0.09l0.15,-0.87L423.37,387.6zM415.33,391.34l1.01,1.29l0.92,0.36l1.97,-0.43l0.73,-1.03l0.82,0.6l-1.7,1.89l-0.98,-0.28l-0.9,0.38l-0.48,-0.46l-0.46,1l-1.4,-0.68l-1.34,0.33l-0.14,-1.84l0.66,-2.27L415.33,391.34zM429.32,393.96l-0.65,-0.72l-0.87,-0.09l0.93,-0.93l0.9,-0.2l0.16,-1.38l0.52,-0.24l1.19,0.96l2.91,0.15l0.42,-0.39l1.39,0.68l0.77,3.41l-0.77,0.58l-2.01,0.35l-0.48,-0.28l-0.39,0.05l0.1,-0.66l-0.82,-0.05l-0.31,-0.65l-0.59,0.42l-1.02,-0.39l-0.4,0.88l-0.04,-0.61l-1.23,-0.29L429.32,393.96zM440.01,394.95l2.35,0.38l0.35,0.61l-0.84,3.37l-0.36,-0.27l0.2,-1l-0.92,1.51l-0.97,0.4l-1.16,-0.61l0.11,-0.62l0.46,-0.03l-0.05,-1.31l-0.92,-0.03l-0.48,-0.96l-1.1,0.86l-0.48,-0.62l1.33,-1.04l-0.37,-1.58l0.54,-0.47l0.45,0.75l0.59,-0.45L440.01,394.95zM411.07,395.66l-0.73,2.26l-1.18,0.83l0.61,-2.65L411.07,395.66zM440,402.89l0.26,-0.92l1.06,0.51l-0.24,-1.18l0.52,-0.89l-0.13,2.94l-0.91,0.17L440,402.89zM452.99,404.12l-0.12,-0.93l0.62,-0.65l0.19,2.69l-0.54,0.53l-0.37,-0.78L452.99,404.12z"/>
		<path id="TT" title="Trinidad and Tobago" class="land" d="M797.21,754.03l-1.16,-0.16l-0.77,0.8l-0.86,-0.42l-1.41,1.53l-2,-0.42l0.21,-0.88h0.91l0.98,-1.63l2.73,-1.78l0.05,-0.42l2.83,-1.19l0.91,-0.17l0.77,0.41l0.34,-0.18l-0.27,-0.53l0.96,-0.26l0.37,1.01l-0.54,0.5l0.36,0.42l-0.39,1.13l-0.53,-0.38l-0.12,0.79l-0.93,-0.13l-0.36,0.81L797.21,754.03zM770.63,782.82l0.04,-1.3l-0.81,-0.71l-0.3,-1.32l1.23,-4.08l-0.87,-2.42l-1.75,-1.88l-1.99,-0.58l-0.94,0.83l-0.17,-0.48l-0.94,-0.06l-0.19,-0.96l2.04,-1.24l3.81,-0.48l0.29,0.3l0.32,-0.73l0.38,0.3l0.67,-0.32l0.41,0.57l0.39,-0.77l1.35,-0.29l0.41,-0.72l4.68,0.61l6.53,-1.64l3.73,0.29l-2.93,4.35l-0.93,0.03l-0.37,0.59l0.86,5.19l-0.94,0.46v1.66l1.29,3.81l0.35,0.42l0.77,-0.13l-1.01,1.47l-0.2,2.8l0.45,2.53l-1.01,-0.58l-1.35,1.29l-3.24,1.31l-3.98,-0.4l-2.63,0.53l-6.9,-0.1l-1.8,0.61l-2.22,-1.06l-2.81,0.41l-0.88,-0.41l-2.93,1.43l-1.05,-0.15l0.67,-1.27l2.43,-0.62l0.26,-0.95l4.21,-1.05l0.07,-0.73l1.28,-0.27l0.83,-0.76l-0.06,-0.93l2.8,0.6l1.99,-0.81l1.04,-1.54L770.63,782.82z"/>
		<path id="VC" title="Saint Vincent and the Grenadines" class="land" d="M778.18,688.35l-0.15,0.1l-0.17,-0.06l0.03,-0.13l-0.11,-0.09l0.14,-0.04l-0.05,-0.12l-0.15,-0.15l-0.16,0.04l0.06,-0.1l-0.15,-0.06l0.03,-0.1l-0.22,-0.03l-0.07,-0.16l-0.11,0.03l0.08,-0.27l-0.08,-0.12l-0.12,0.02l0.07,-0.22l-0.05,-0.08l-0.21,0.03v-0.32l0.12,-0.16l-0.09,-0.23l0.12,-0.2l-0.06,-0.57l0.16,-0.07l-0.07,-0.26l0.19,-0.05l0.08,-0.21l0.17,-0.07l-0.16,-0.18l0.17,-0.27l-0.1,-0.14l0.04,-0.14l0.36,-0.02l0.15,-0.08l0.03,-0.15l0.12,0.11l0.21,-0.14l0.01,-0.58l0.26,-0.16l0.15,-0.52l0.25,-0.28l-0.02,-0.22l0.19,-0.14l-0.09,-0.07l0.22,-0.46l0.13,-0.03l-0.02,-0.11l0.24,0.04l0.29,-0.32l0.23,0.04l0.26,-0.16l0.48,0.07l0.24,0.24l0.26,-0.17l-0.01,0.26l0.13,0.08l0.2,-0.07l0.06,0.11l-0.17,0.11l0.16,0.18l-0.06,0.11l0.09,0.29l0.2,0.2l0.16,0.36l0.1,1.28l-0.02,0.41l-0.09,0.1l0.14,0.51l-0.12,0.04l-0.01,0.14l0.12,0.57l-0.28,0.25l-0.11,0.6l-0.16,0.28l0.05,0.13l-0.16,0.05l-0.09,0.42l-0.13,0.12l-0.09,1.05l-0.16,0.21l-0.27,0.01l-0.16,0.4l-0.13,0.09l-0.02,0.13l0.16,0.11l-0.18,-0.04l0.02,0.07l-0.12,0.04l-0.19,-0.03l-0.05,-0.09l-0.07,0.1l-0.14,-0.1l0.01,0.12l-0.05,-0.08l-0.25,0.08l0.04,-0.2l-0.58,-0.29l-0.08,-0.15l-0.31,0.05l-0.09,0.1l-0.13,-0.07l0.14,-0.35l-0.23,-0.23L778.18,688.35zM778.3,693.99l0.02,-0.1l-0.13,-0.05l-0.22,0.29h-0.14l-0.75,-0.23l-0.54,0.03l0.43,-0.18l0.11,0.06l0.17,-0.09l0.61,0.01l0.34,-0.45l-0.13,-0.1l-0.22,0.06l-0.08,-0.23l0.52,-0.32l0.35,-0.33l0.35,-0.08l0.09,-0.27l0.18,-0.03l0.08,0.19l-0.13,0.25l0.02,0.17l-0.62,0.35l0.27,0.12l-0.04,0.26l-0.15,0.04l0.15,0.14l-0.03,0.11l-0.34,0.18l-0.06,0.24l-0.13,0.03L778.3,693.99zM778.11,694.39l0.04,0.15l-0.29,0.03l0.05,-0.16L778.11,694.39zM781.78,694.68l0.07,0.12l-0.12,0.16l-0.13,0.06l-0.13,-0.06l0.14,-0.22L781.78,694.68zM777.85,694.73l0.11,0.07l-0.21,0.37l0.05,0.11l-0.62,0.02l0.02,-0.12l0.38,-0.1l0.16,-0.33L777.85,694.73zM781.16,694.96l0.15,0.04l-0.07,0.17l0.25,0.34l-0.03,0.09l-0.28,0.02l-0.13,-0.47L781.16,694.96zM780.36,697.07l0.08,0.18l-0.05,0.09l0.12,0.08l-0.35,0.18l-0.01,0.2l-0.09,0.07l0.05,0.2l-0.18,0.36l-0.03,-0.16l-0.11,0.02l-0.19,-0.33l0.17,-0.38l-0.06,-0.09l0.21,-0.38l0.06,0.1l0.19,0.03l0.06,-0.17L780.36,697.07zM776.93,700.45l0.08,0.15l-0.24,0.07l-0.04,-0.21H776.93zM775.17,703.47l0.09,-0.18l-0.09,-0.08l-0.04,-0.34l-0.15,-0.11l0.04,-0.38l0.11,-0.05l0.28,0.27l0.19,-0.28l0.34,-0.01l0.07,0.12l-0.14,0.27l0.1,0.1l-0.15,0.24l-0.3,-0.09l-0.06,0.08l-0.12,0.38l0.06,0.18l-0.2,0.27l-0.11,-0.13l-0.14,-0.01l-0.28,0.18l-0.14,-0.24l-0.24,-0.09l0.06,-0.1l0.34,0.21l0.18,-0.2l0.16,0.09L775.17,703.47zM773.02,705.37l0.22,0.05l0.18,0.23l-0.25,0.06l-0.14,0.32h-0.18L773.02,705.37zM772.4,706.86l0.05,0.12l-0.16,0.11l-0.05,0.16l-0.34,-0.02l-0.14,0.11l-0.06,-0.17l-0.45,0.32l-0.44,-0.17l0.05,-0.13l0.38,-0.17l0.03,-0.23l-0.21,-0.04l0.01,-0.13l0.35,-0.04l0.08,-0.16l0.13,0.07l-0.03,0.18l0.1,0.08L772.4,706.86zM772.87,707.3l0.36,0.12l-0.09,0.12l-0.19,0.01l-0.16,-0.17L772.87,707.3z"/>
		<path id="VG" title="British Virgin Islands" class="land" d="M677.35,498.95l1.05,0.93l0.15,0.8l-1.56,-0.96l-2.58,-0.22l-0.56,-0.66l2.71,-0.27L677.35,498.95zM674,507.37l-0.15,-0.37l1.51,0.54l0.46,-0.46l1.19,-0.04l-2.19,0.64l0.03,0.61l-1.3,0.28l0.09,0.94l-0.74,0.25l0.04,-1.17l0.94,-0.28L674,507.37zM670.2,508.45l-0.36,0.22l0.16,-1.36L670.2,508.45zM668.53,507.49l0.66,0.39l-0.31,0.52l-0.5,-0.37L668.53,507.49zM670.43,509.64l-1.06,-0.54l-0.85,1.05l-1.09,-0.51l-0.14,0.78l-0.57,-0.14l0.03,0.44l-1.07,0.5l-1.7,-0.23l1.27,-0.4l0.69,-0.84l-0.08,-0.68l0.4,0.13l0.17,-0.47l1.7,0.3l1.02,-0.47l0.16,0.5l1.23,0.07L670.43,509.64zM662.76,508.58l0.85,0.14l0.26,0.6l-1.94,-0.14L662.76,508.58zM670.71,510.93l0.42,0.85l-0.56,-0.48L670.71,510.93zM668.38,511.86l0.55,0.18l0.11,0.98l-0.46,-0.76h-1.16L668.38,511.86zM667.68,513.2l0.47,0.28l-1.28,0.3l0.46,-0.31l-0.25,-0.26L667.68,513.2z"/>
		<path id="VI" title="US Virgin Islands" class="land" d="M659.23,513.84l-1.45,-0.15l-0.67,-1.02l-1.18,0.56l-0.83,-0.91l-1.19,0.33l-0.57,-0.52l2.9,-0.76l0.87,0.65l-0.43,-0.84l2.54,1.16l0.55,0.91l0.47,-0.08l-0.46,0.5l-0.78,-0.24L659.23,513.84zM663.18,511.55l1.74,0.42l0.88,0.93l-0.55,0.08l-0.18,-0.55l-0.26,0.29l0.01,-0.59l-0.4,0.54l-0.34,-0.19l0.57,0.82l-0.17,0.83L663,513.2l-0.61,0.06v0.42l-0.2,-0.34l-0.63,0.24l-0.3,-0.47l0.4,-0.89l1.37,-0.1l-0.2,-0.55L663.18,511.55zM663.23,535.06l-0.99,-0.63l0.17,0.58l-3.89,0.1l-0.56,0.44l0.55,-1.09l-0.17,-1.91l0.51,-0.35l1.32,0.29l1.81,-0.76l0.62,0.48l0.38,-0.45l1.56,1.3l1.44,-0.61l3,0.27l-4.17,1.74l-1.49,0.05L663.23,535.06z"/>
	</g>
</svg>