<?xml version="1.0" encoding="utf-8"?>
<!-- (c) ammap.com | SVG map of Central America - low -->
<svg xmlns="http://www.w3.org/2000/svg" xmlns:amcharts="http://amcharts.com/ammap" xmlns:xlink="http://www.w3.org/1999/xlink" version="1.1">
	<defs>
		<style type="text/css">
			.land
			{
				fill: #CCCCCC;
				fill-opacity: 1;
				stroke:white;
				stroke-opacity: 1;
				stroke-width:0.5;
			}
		</style>

		<amcharts:ammap projection="mercator" leftLongitude="-117.150141" topLatitude="32.781686" rightLongitude="-77.227391" bottomLatitude="7.199155"></amcharts:ammap>

		<!-- All areas are listed in the line below. You can use this list in your script. -->
		<!--{id:"BZ"},{id:"CR"},{id:"GT"},{id:"HN"},{id:"MX"},{id:"NI"},{id:"PA"},{id:"SV"}-->

	</defs>
	<g>
		<path id="BZ" title="Belize" class="land" d="M225.31,412.96L225.29,412.53L225.63,412.39L226.14,412.74L227.14,410.97L227.67,410.93L227.68,411.36L228.21,411.37L228.17,412.17L227.71,413.44L227.96,413.89L227.67,414.94L227.84,415.21L227.52,416.68L226.97,417.46L226.46,417.55L225.9,418.55L225.07,418.55L225.29,415.27z"/>
		<path id="CR" title="Costa Rica" class="land" d="M242.63,440.4L241.11,439.77L240.54,439.18L240.86,438.69L240.76,438.07L239.98,437.39L238.88,436.84L237.91,436.48L237.73,435.65L236.99,435.14L237.17,435.97L236.61,436.64L235.97,435.86L235.07,435.58L234.69,435.01L234.71,434.15L235.08,433.25L234.29,432.85L234.93,432.31L235.35,431.94L237.2,432.69L237.84,432.32L238.73,432.56L239.2,433.14L240.02,433.33L240.69,432.73L241.41,434.27L242.49,435.41L243.81,436.62L242.72,436.87L242.74,438L243.32,438.42L242.9,438.76L243.01,439.27L242.78,439.84z"/>
		<path id="GT" title="Guatemala" class="land" d="M222.64,424.75L221.2,424.25L219.45,424.2L218.17,423.63L216.66,422.45L216.73,421.61L217.05,420.93L216.66,420.39L218.01,418.03L221.6,418.02L221.68,417.04L221.22,416.86L220.91,416.23L219.87,415.56L218.83,414.58L220.1,414.58L220.1,412.93L222.72,412.93L225.31,412.96L225.29,415.27L225.07,418.55L225.9,418.55L226.82,419.08L227.06,418.64L227.88,419.01L226.61,420.12L225.28,420.93L225.08,421.48L225.3,422.04L224.72,422.78L224.06,422.95L224.21,423.29L223.69,423.61L222.73,424.33z"/>
		<path id="HN" title="Honduras" class="land" d="M230.43,426.9L229.95,426.01L229.09,425.76L229.29,424.61L228.91,424.3L228.33,424.1L227.1,424.44L227,424.05L226.15,423.59L225.55,423.02L224.72,422.78L225.3,422.04L225.08,421.48L225.28,420.93L226.61,420.12L227.88,419.01L228.17,419.13L228.79,418.62L229.59,418.58L229.85,418.81L230.29,418.67L231.59,418.93L232.89,418.85L233.79,418.53L234.12,418.21L235.01,418.36L235.68,418.56L236.41,418.49L236.97,418.24L238.25,418.64L238.7,418.7L239.55,419.24L240.36,419.89L241.38,420.33L242.12,421.13L241.16,421.07L240.77,421.46L239.8,421.84L239.09,421.84L238.47,422.21L237.91,422.08L237.43,421.64L237.14,421.72L236.78,422.41L236.51,422.38L236.46,422.98L235.48,423.77L234.97,424.11L234.68,424.47L233.85,423.89L233.25,424.65L232.66,424.63L232,424.7L232.06,426.11L231.65,426.13L231.3,426.79z"/>
		<path id="MX" title="Mexico" class="land" d="M202.89,388.72L201.8,391.43L201.31,393.64L201.1,397.72L200.83,399.19L201.32,400.83L202.19,402.3L202.75,404.61L204.61,406.82L205.26,408.51L206.36,409.96L209.34,410.75L210.5,411.97L212.96,411.15L215.09,410.86L217.19,410.33L218.96,409.82L220.74,408.62L221.41,406.89L221.64,404.4L222.13,403.53L224.02,402.74L226.99,402.05L229.47,402.15L231.17,401.9L231.84,402.53L231.75,403.97L230.24,405.74L229.58,407.55L230.09,408.06L229.67,409.34L228.97,411.63L228.26,410.88L227.67,410.93L227.14,410.97L226.14,412.74L225.63,412.39L225.29,412.53L225.31,412.96L222.72,412.93L220.1,412.93L220.1,414.58L218.83,414.58L219.87,415.56L220.91,416.23L221.22,416.86L221.68,417.04L221.6,418.02L218.01,418.03L216.66,420.39L217.05,420.93L216.73,421.61L216.66,422.45L213.49,419.34L212.04,418.4L209.75,417.64L208.19,417.85L205.93,418.94L204.52,419.23L202.54,418.47L200.44,417.91L197.82,416.58L195.72,416.17L192.54,414.82L190.2,413.42L189.49,412.64L187.92,412.47L185.05,411.54L183.88,410.2L180.87,408.53L179.47,406.66L178.8,405.21L179.73,404.92L179.44,404.07L180.09,403.3L180.1,402.26L179.16,400.92L178.9,399.72L177.96,398.2L175.49,395.18L172.67,392.79L171.31,390.88L168.9,389.62L168.39,388.86L168.82,386.94L167.39,386.21L165.73,384.69L165.03,382.5L163.52,382.24L161.9,380.58L160.58,379.03L160.46,378.03L158.95,375.61L157.96,373.13L158,371.88L155.97,370.59L155.04,370.73L153.44,369.83L152.99,371.16L153.45,372.72L153.72,375.15L154.69,376.48L156.77,378.69L157.23,379.44L157.66,379.66L158.02,380.76L158.52,380.71L159.09,382.75L159.94,383.55L160.53,384.66L162.3,386.26L163.23,389.15L164.06,390.5L164.84,391.94L164.99,393.56L166.34,393.66L167.47,395.05L168.49,396.41L168.42,396.95L167.24,398.06L166.74,398.05L166,396.2L164.17,394.47L162.15,392.99L160.71,392.21L160.8,389.96L160.38,388.28L159.04,387.32L157.11,385.93L156.74,386.33L156.04,385.51L154.31,384.76L152.66,382.93L152.86,382.69L154.01,382.87L155.05,381.69L155.16,380.26L153,377.99L151.36,377.1L150.32,375.09L149.28,372.97L147.98,370.36L146.84,367.4L150.03,367.15L153.59,366.79L153.33,367.43L157.56,369.04L163.96,371.35L169.54,371.32L171.76,371.32L171.76,369.97L176.62,369.97L177.64,371.14L179.08,372.17L180.74,373.6L181.67,375.29L182.37,377.05L183.82,378.02L186.15,378.98L187.91,376.45L190.21,376.39L192.18,377.67L193.59,379.85L194.56,381.71L196.21,383.51L196.83,385.7L197.62,387.17L199.8,388.13L201.79,388.81z"/>
		<path id="NI" title="Nicaragua" class="land" d="M234.93,432.31L233.96,431.41L232.65,430.26L232.03,429.3L230.85,428.41L229.44,427.12L229.75,426.68L230.22,427.11L230.43,426.9L231.3,426.79L231.65,426.13L232.06,426.11L232,424.7L232.66,424.63L233.25,424.65L233.85,423.89L234.68,424.47L234.97,424.11L235.48,423.77L236.46,422.98L236.51,422.38L236.78,422.41L237.14,421.72L237.43,421.64L237.91,422.08L238.47,422.21L239.09,421.84L239.8,421.84L240.77,421.46L241.16,421.07L242.12,421.13L241.88,421.41L241.74,422.05L242.02,423.1L241.38,424.08L241.08,425.23L240.98,426.5L241.14,427.23L241.21,428.52L240.78,428.8L240.52,430.02L240.71,430.77L240.13,431.5L240.27,432.26L240.69,432.73L240.02,433.33L239.2,433.14L238.73,432.56L237.84,432.32L237.2,432.69L235.35,431.94z"/>
		<path id="PA" title="Panama" class="land" d="M256.88,443.21L255.95,442.4L255.35,440.88L256.04,440.13L255.33,439.94L254.81,439.01L253.41,438.23L252.18,438.41L251.62,439.39L250.48,440.09L249.87,440.19L249.6,440.78L250.93,442.3L250.17,442.66L249.76,443.08L248.46,443.22L247.97,441.54L247.61,442.02L246.68,441.86L246.12,440.72L244.97,440.54L244.24,440.21L243.04,440.21L242.95,440.82L242.63,440.4L242.78,439.84L243.01,439.27L242.9,438.76L243.32,438.42L242.74,438L242.72,436.87L243.81,436.62L244.81,437.63L244.75,438.23L245.87,438.35L246.14,438.12L246.91,438.82L248.29,438.61L249.48,437.9L251.18,437.33L252.14,436.49L253.69,436.65L253.58,436.93L255.15,437.03L256.4,437.52L257.31,438.36L258.37,439.14L258.03,439.56L258.68,441.21L258.15,442.05L257.24,441.85z"/>
		<path id="SV" title="El Salvador" class="land" d="M229.09,425.76L228.78,426.43L227.16,426.39L226.15,426.12L224.99,425.55L223.43,425.37L222.64,424.75L222.73,424.33L223.69,423.61L224.21,423.29L224.06,422.95L224.72,422.78L225.55,423.02L226.15,423.59L227,424.05L227.1,424.44L228.33,424.1L228.91,424.3L229.29,424.61z"/>
	</g>
</svg>