<?xml version="1.0" encoding="utf-8"?>
<!-- (c) ammap.com | SVG map of Middle East - low -->
<svg xmlns="http://www.w3.org/2000/svg" xmlns:amcharts="http://amcharts.com/ammap" xmlns:xlink="http://www.w3.org/1999/xlink" version="1.1">
	<defs>
		<style type="text/css">
			.land
			{
				fill: #CCCCCC;
				fill-opacity: 1;
				stroke:white;
				stroke-opacity: 1;
				stroke-width:0.5;
			}
		</style>

		<amcharts:ammap projection="mercator" leftLongitude="34.248695" topLatitude="39.725388" rightLongitude="63.338136" bottomLatitude="12.568210"></amcharts:ammap>

		<!-- All areas are listed in the line below. You can use this list in your script. -->
		<!--{id:"AE"},{id:"IL"},{id:"IQ"},{id:"IR"},{id:"JO"},{id:"KW"},{id:"LB"},{id:"OM"},{id:"PS"},{id:"QA"},{id:"SA"},{id:"SY"},{id:"YE"}-->

	</defs>
	<g>
		<path id="AE" title="United Arab Emirates" class="land" d="M619.87,393.72L620.37,393.57L620.48,394.41L622.67,393.93L624.99,394.01L626.68,394.1L628.6,392.03L630.7,390.05L632.47,388.15L633,389.2L633.38,391.64L631.95,391.65L631.72,393.65L632.22,394.07L630.95,394.67L630.94,395.92L630.12,397.18L630.05,398.39L629.48,399.03L621.06,397.51L619.98,394.43z"/>
		<path id="IL" title="Israel" class="land" d="M575.41,366.82L574.92,367.87L573.9,367.41L573.32,369.61L574.02,369.97L573.31,370.43L573.18,371.29L574.5,370.84L574.57,372.11L573.17,377.28L571.33,371.73L572.14,370.65L571.95,370.46L572.69,368.93L573.26,366.43L573.66,365.59L573.74,365.56L574.68,365.56L574.94,364.98L575.69,364.93L575.73,366.3L575.35,366.8z"/>
		<path id="IQ" title="Iraq" class="land" d="M602.61,355.77L604.44,356.81L604.66,358.81L603.24,359.98L602.59,362.62L604.54,365.8L607.97,367.62L609.42,370.12L608.96,372.49L609.85,372.49L609.88,374.22L611.43,375.91L609.77,375.76L607.88,375.49L605.82,378.57L600.61,378.31L592.71,371.82L588.53,369.53L585.15,368.64L584.02,364.6L590.23,361.1L591.29,356.98L591.02,354.46L592.56,353.6L594,351.42L595.2,350.87L598.46,351.33L599.45,352.22L600.79,351.63z"/>
		<path id="IR" title="Iran" class="land" d="M626.44,351.53L628.91,350.85L630.9,348.83L632.77,348.93L634,348.27L636,348.6L639.1,350.39L641.34,350.78L644.54,353.87L646.63,353.99L646.88,356.9L645.74,361.15L644.97,363.6L646.19,364.09L644.99,365.92L645.91,368.56L646.13,370.65L648.25,371.2L648.48,373.3L645.94,376.23L647.32,377.91L648.45,379.84L651.13,381.24L651.21,384.01L652.55,384.52L652.78,385.96L648.74,387.57L647.68,391.17L642.41,390.24L639.35,389.53L636.19,389.12L634.99,385.31L633.65,384.75L631.49,385.31L628.67,386.82L625.24,385.79L622.41,383.38L619.71,382.48L617.84,379.47L615.77,375.2L614.26,375.72L612.48,374.65L611.43,375.91L609.88,374.22L609.85,372.49L608.96,372.49L609.42,370.12L607.97,367.62L604.54,365.8L602.59,362.62L603.24,359.98L604.66,358.81L604.44,356.81L602.61,355.77L600.79,351.63L599.26,348.8L599.8,347.71L598.93,343.59L600.85,342.56L601.29,343.93L602.71,345.59L604.63,346.06L605.65,345.96L608.96,343.3L610.01,343.03L610.83,344.1L609.87,345.88L611.62,347.74L612.31,347.57L613.2,350.18L615.86,350.91L617.81,352.67L621.79,353.27L626.17,352.35z"/>
		<path id="JO" title="Jordan" class="land" d="M574.92,367.87L575.41,366.82L578.53,368.14L584.02,364.6L585.15,368.64L584.62,369.13L579,370.78L581.8,374.04L580.87,374.58L580.41,375.67L578.27,376.11L577.6,377.27L576.38,378.25L573.26,377.74L573.17,377.28L574.57,372.11L574.5,370.84L574.92,369.88z"/>
		<path id="KW" title="Kuwait" class="land" d="M609.77,375.76L610.35,377.17L610.1,377.9L611,380.31L609.02,380.39L608.32,378.88L605.82,378.57L607.88,375.49z"/>
		<path id="LB" title="Lebanon" class="land" d="M575.69,364.93L574.94,364.98L574.68,365.56L573.74,365.56L574.74,362.83L576.13,360.45L576.19,360.33L577.45,360.51L577.91,361.83L576.38,363.1z"/>
		<path id="OM" title="Oman" class="land" d="M640.29,403.18l-1.05,2.04l-1.27,-0.16l-0.58,0.71l-0.45,1.5l0.34,1.98l-0.26,0.36l-1.29,-0.01l-1.75,1.1l-0.27,1.43l-0.64,0.62l-1.74,-0.02l-1.1,0.74l0.01,1.18l-1.36,0.81l-1.55,-0.27l-1.88,0.98l-1.3,0.16l-0.92,-2.04l-2.19,-4.84l8.41,-2.96l1.87,-5.97l-1.29,-2.14l0.07,-1.22l0.82,-1.26l0.01,-1.25l1.27,-0.6l-0.5,-0.42l0.23,-2l1.43,-0.01l1.26,2.09l1.57,1.11l2.06,0.4l1.66,0.55l1.27,1.74l0.76,1l1,0.38l-0.01,0.67l-1.02,1.79l-0.45,0.84L640.29,403.18zM633.37,388.64L633,389.2l-0.53,-1.06l0.82,-1.06l0.35,0.27L633.37,388.64z"/>
		<path id="PS" title="Palestinian Territories" class="land" d="M574.92,367.87L574.92,369.88L574.5,370.84L573.18,371.29L573.31,370.43L574.02,369.97L573.32,369.61L573.9,367.41z"/>
		<path id="QA" title="Qatar" class="land" d="M617.72,392.16L617.53,389.92L618.29,388.3L619.05,387.96L619.9,388.93L619.95,390.74L619.34,392.55L618.56,392.77z"/>
		<path id="SA" title="Saudi Arabia" class="land" d="M595.2,417.22L594.84,415.98L593.99,415.1L593.77,413.93L592.33,412.89L590.83,410.43L590.04,408.02L588.1,405.98L586.85,405.5L584.99,402.65L584.67,400.57L584.79,398.78L583.18,395.42L581.87,394.23L580.35,393.6L579.43,391.84L579.58,391.15L578.8,389.55L577.98,388.86L576.89,386.54L575.18,384.02L573.75,381.86L572.36,381.87L572.79,380.13L572.92,379.02L573.26,377.74L576.38,378.25L577.6,377.27L578.27,376.11L580.41,375.67L580.87,374.58L581.8,374.04L579,370.78L584.62,369.13L585.15,368.64L588.53,369.53L592.71,371.82L600.61,378.31L605.82,378.57L608.32,378.88L609.02,380.39L611,380.31L612.1,383.04L613.48,383.75L613.96,384.86L615.87,386.17L616.04,387.46L615.76,388.49L616.12,389.53L616.92,390.4L617.3,391.41L617.72,392.16L618.56,392.77L619.34,392.55L619.87,393.72L619.98,394.43L621.06,397.51L629.48,399.03L630.05,398.39L631.33,400.53L629.46,406.5L621.05,409.46L612.97,410.59L610.35,411.91L608.34,414.98L607.03,415.46L606.33,414.49L605.26,414.64L602.55,414.35L602.03,414.05L598.8,414.12L598.04,414.39L596.89,413.63L596.14,415.06L596.43,416.29z"/>
		<path id="SY" title="Syria" class="land" d="M584.02,364.6L578.53,368.14L575.41,366.82L575.35,366.8L575.73,366.3L575.69,364.93L576.38,363.1L577.91,361.83L577.45,360.51L576.19,360.33L575.93,357.72L576.61,356.31L577.36,355.56L578.11,354.8L578.27,352.86L579.18,353.54L582.27,352.57L583.76,353.22L586.07,353.21L589.29,351.9L590.81,351.96L594,351.42L592.56,353.6L591.02,354.46L591.29,356.98L590.23,361.1z"/>
		<path id="YE" title="Yemen" class="land" d="M624.16,416.33L622.13,417.12L621.59,418.4L621.52,419.39L618.73,420.61L614.25,421.96L611.74,423.99L610.51,424.14L609.67,423.97L608.03,425.17L606.24,425.72L603.89,425.87L603.18,426.03L602.57,426.78L601.83,426.99L601.4,427.72L600.01,427.66L599.11,428.04L597.17,427.9L596.44,426.23L596.52,424.66L596.07,423.81L595.52,421.69L594.71,420.5L595.27,420.36L594.98,419.04L595.32,418.48L595.2,417.22L596.43,416.29L596.14,415.06L596.89,413.63L598.04,414.39L598.8,414.12L602.03,414.05L602.55,414.35L605.26,414.64L606.33,414.49L607.03,415.46L608.34,414.98L610.35,411.91L612.97,410.59L621.05,409.46L623.25,414.3z"/>
	</g>
</svg>