<?xml version="1.0" encoding="UTF-8"?>
<svg xmlns="http://www.w3.org/2000/svg" version="1.1" viewBox="0 0 512 512">
  <path id="blitta-3" d="M236.8,93.5h-9.4l-2.1-.2-2.1-.5-2.1-.5-2.1-.5-2.1-.5-2.1-.5-2.1-.5-2.1-.5-2.1-.5-2.1-.5-2.1-.5-2.1-.6-2-.7-2-.7-2-.7-2-.7-1.7-.6-.5-.2-1.2-.4-1.8-.6-2.3-.8-2.6-.9-2.8-.9-2.9-1-2.9-.9-2.8-.9-2.5-.8-2.1-.6-1.6-.4-.9-.2h-6.1c0,0-2,.8-2,.8l-2,.7-2,.7-2,.7-2,.7-2,.7-.9,1.8-.6,2-.6,2-.6,2-1,1.8-1.9,1-1.9,1-1.9,1-2.1.2h-36.2l-.4-1.7v15.3l1,1.9.9,1.9.9,1.9.9,1.9.9,1.9,1.6.9h4.3l1.7.4v23.4l.4,2.1.5,2.1.5,2.1.5,2.1.5,2.1.5,2.1.5,2.1v1.2l-.9,1.9-1.8,2-1.9.8h-1.7c0,.1-2.3.2-2.3.2h-11.4c0-.1-2.3-.1-2.3-.1h-1.7c0-.1-.8-.1-.8-.1v.2l-.3.8-1,1.4-2,2-3.4,2.4-3.2,2.1-2.3,1.7-1.7,1.4-1.3,1.1-1.2.7-1.2.3h-25.4l-1.1,1v14c0,0-1,1.1-1,1.1l-1.3,2-1.1,2.8-.5,2.5-.6,2.6-.7,2.7-.7,2.6-.7,2.2-.5,1.5-.4.5-2.1.4-2.1.4-2.1.4-2.1.4-2.1.4-2.1.4-2.1.4-2.1.4-2.1.4-2.1.4-2.1.4-.6,1.4.5,2.1.5,2.1.5,2.1.5,2.1.5,2.1.5,2.1.5,2.1,2,.8,2,.8,2,.8,2,.8,2,.8.3.6.3,1.7.4,2.4.4,2.8.2,2.8v13.7l-.8,2.5-2,2.1-2.2.7-2.7.2-2.8-.2-2.4-.3-1.6-.3-.4.4v38.6c-.1,0-.2,2.6-.2,2.6v5.5l.2,2.3.4,1.9.6,2.1.8,2.1.9,2.1.9,2.1.8,1.9.7,1.7v2.1l-1.2,2.3-1.6,2.3-1.6,1.8-1.1,1.1v.3l1.4.7,2.3,1.2,2.4,1.5,1.8,1.7.4,1.7v2.2l.2,2.8.2,2.8.2,2.3v1.3l.4.3,1.2,1.1,1.6,1.9,1.1,2.5v2.7l-1.5,2-2.3,1.3-2.4.8-1.8.3h-.4v1l.2,1.8.2,2.5.2,2.8.2,2.9.2,2.8.2,2.3v1.6l.3,1.3.8,1.8,1.2,2.1,1.4,2.3,1.5,2.3,1.4,2.2,1.1,1.9.6,1.4v9.5l.4,2.1.4,2.6.5,2.8.6,2.9.6,2.7.5,2.3.4,1.7.2.9h14.1l2,.5,2,.8,2,.8,2,.8,2,.8,2,.8,2,.8,2,.8,2,.5h6.4l1.9-.6,1.5-1.5,1.6-1.5,1.6-1.5,1.5-1.5,1.6-1.5,1.6-1.5,1.6-1.5.7-.6c0-.1.2-.3.2-.3l.3-.3.4-.4.4-.5.5-.6.6-.6.7-.7.8-.8.9-.8,1-.9,1-1,1.1-1,1.2-1,1.3-1.1,1.4-1.1,1.5-1.1,1.5-1.2,1.6-1.2,1.7-1.2,1.8-1.2,1.9-1.2,1.9-1.2,2-1.2,2.1-1.2,2.2-1.2,2.3-1.1,2.3-1.1,2.4-1.1,2.5-1.1,2.6-1,2.7-1,2.7-.9,2.8-.9,2.9-.8,3-.7,3-.7,3.1-.6,3.2-.5,3.3-.4,3.3-.3,3.4-.2h3.5c0-.1,3.6-.2,3.6-.2h3.6l3.9.9,3.5.9h2.9l2.2-.8,1.7-1.1,1.1-1.1.7-.9.2-.5,1.8.2,2.1.3,2.1.3,2.1.3,2.1.3,2,.6,2,.6,2,.6,2,.6,2,.6,2,.6,2,.6,2.1.4,2.1.3,2.1.3,2.1.3,1.6-1.2,1.5-1.5,1.5-1.6,1.5-1.5,1.5-1.6,1.5-1.6,1.5-1.5,1.5-1.5h34l1.6-.2,1.7-1.3,2.6-1.6,1.8-1.1,1.4-.6,2-.9,2-.9,1.4-.5,1.5,1.2,2.3,1.8,2,1.5,1.6,1.1,1.8.7h2.1l1.6.2,2.6.6,2.5.5,1.3.2,2.3.5,2.6.6,1.4.2,2,.6,2.7.9,2,.6h4l1.9.7,1.5,1.5,1.5,1.5,1.5,1.5,1.5,1.5,1.5,1.5,1.5,1.5,2,.3h2.6v-12.9l-.5-.5-.6-.4-.6-.4-.4-.2-.3-.2-.5-.4-.6-.6-.7-.7-.7-.7-.6-.7-.5-.7-.3-.6v-.5l-.3-.6-.4-.6-.4-.6-.3-.6-.2-.6v-.6c.1,0,.7-.6.7-.6l1-.5.9-.4.8-.5.8-.6.7-.7.7-.7.6-.7.5-.7.5-.6.4-.5.3-.4.2-.3c0-.1-.2-.7-.2-.7l-.3-.7-.3-.7-.3-.7-.3-.7-.3-.7-.3-.7-.3-.7-.5-.4-.7-.2-.7-.2-.7-.2-.7-.2-.7-.2-.7-.2-.7-.2-.7-.2-.7-.2-.7-.2-.7-.2h-.4c0-.1-.4-.3-.4-.3l-.7-.3-.7-.5-.6-.7-.3-.9v-1.8c.1,0,.1-.7.1-.7.1,0,.2-.6.2-.6v-.6l-.3-.7-.3-.7-.4-.9-.4-.9-.4-.9-.3-.8-.2-.6v-.3c-.1,0-.1-.5-.1-.5v-4.5l.4-.6.5-.6.5-.6.5-.6.5-.6.5-.6.5-.6v-.6c.1,0-.3-.6-.3-.6l-.4-.6-.4-.6-.4-.6-.4-.6-.4-.6-.4-.6-.4-.6-.2-.7-.2-.7-.2-.7-.2-.7-.2-.7-.2-.7-.4-.6-.4-.6-.4-.6-.4-.6-.4-.6-.4-.6-.4-.6-.3-.5-.2-.2-.5-.3-.7-.4-1-.3h-1.2c0-.1-1-.2-1-.2l-1-.2-.9-.3-.8-.3-.7-.3-.5-.2h-.2c0,.1-.1.3-.1.3l-.3.2-.5.3-.7.3-1,.3-1.3.3-1.7.3-1.6.2h-1.3c0,.1-1.2.2-1.2.2h-1.1l-1,.2h-1.9c0,.1-3.7.1-3.7.1l-.7-.2-.7-.2-.7-.2-.7-.2-.7-.2-.7-.2-.6-.2h-1.2l-.8-.2h-.9c0-.1-1-.3-1-.3l-1-.2-1-.2h-1c0-.1-.9-.3-.9-.3h-.8c0-.1-.7-.2-.7-.2h-2.1c0-.1-.2-.6-.2-.6l-.3-.7-.4-.9-.4-1-.4-.9-.3-.8-.2-.6v-2c-.1,0-.1-.8-.1-.8l-.2-1v-1c-.1,0-.2-1.1-.2-1.1v-1.1c-.1,0-.3-1.1-.3-1.1v-1c-.1,0-.2-.9-.2-.9v-.8c-.1,0-.2-.7-.2-.7v-.8c-.1,0-.1-.2-.1-.2l-.4-.7-.3-.7-.3-.7-.3-.7-.3-.7-.3-.7-.3-.7-.3-.7-.3-.7v-.7l.2-.7.2-.7.2-.7.2-.7.2-.7.2-.7.2-.7v-.2l.2-.4.2-.6.2-.8.2-1,.3-1,.3-1,.2-1,.2-.9.2-.8v-.6c.1,0,.1-.3.1-.3v-.3l.2-.5.2-.6.2-.7.3-.8.3-.9.2-.9.2-.9v-.9c.1,0,.2-.9.2-.9v-.8l-.2-.7-.3-.6-.5-.7-.6-.8-.6-.8-.6-.7-.6-.6-.5-.5-.4-.4-.2-.2v-.7c.1,0,.3-.6.3-.6v-.8c.1,0,.2-.9.2-.9v-2.9c-.1,0-.4-.9-.4-.9l-.3-.7-.3-.5-.3-.6-.3-.6-.4-.7-.4-.7-.4-.7-.4-.8-.4-.8-.4-.8-.4-.8-.4-.8-.3-.7-.3-.7-.3-.7-.3-.6-.2-.6-.2-.5v-.5c-.1,0-.3-.6-.3-.6l-.2-.6-.2-.7-.2-.8-.3-.8-.3-.9-.3-.9-.3-.9-.3-.9-.2-.9-.2-.9-.2-.8v-.8c-.1,0-.2-.7-.2-.7v-1.5l.3-.3.5-.5.5-.8.4-.9.3-.9.2-.8.2-.7v-.4h.1v-.6c.1,0,.2-.3.2-.3l.2-.4.2-.5.2-.6.2-.6.2-.7.2-.7.3-.8.3-.8.2-.9.2-.9.2-.9.2-.9.2-.9.2-1,.2-1v-1c.1,0,.2-1,.2-1v-3.6c-.1,0-.1-.8-.1-.8-.1,0-.3-.8-.3-.8l-.2-.7-.3-.7-.5-1-.6-1.1-.6-1.1-.5-1-.5-1-.4-.9-.4-.8-.3-.8-.3-.7-.3-.6-.2-.5-.2-.4v-.4c-.1,0-.2-.3-.2-.3v-.2l-.2-.5-.3-.7-.3-.7-.3-.7-.3-.7-.3-.7-.3-.7-.3-.7-.3-.7-.3-.7-.3-.7-.3-.7-.2-.5v-.2l-.3-.5-.3-.7-.3-.8-.3-.9-.3-.9-.3-.9-.2-.9v-.8c-.1,0-.2-.7-.2-.7v-20.2c-.1,0-.4-.4-.4-.4l-.3-.5-.3-.6-.3-.7-.4-.8-.4-.8-.4-.9-.4-.9-.4-.9-.4-.9-.4-.9-.4-.9-.4-.8-.3-.8-.3-.7-.3-.7-.2-.7v-.7c-.1,0-.2-.7-.2-.7v-2.1c.1,0,.3-.7.3-.7l.2-.7.2-.7.3-.7.3-.7.3-.7.3-.8.3-.7.2-.7v-.8c.1,0,.2-.9.2-.9v-5.8c-.1,0-.1-.9-.1-.9l-.2-.8v-.7l-.2-.6v-.9c-.1,0-.1-.2-.1-.2h-.1c0,0-.3-.4-.3-.4l-.5-.4-.6-.5-.7-.6-.7-.6-.8-.7-.8-.7-.8-.7-.7-.7-.6-.6-.5-.5-.4-.5-.2-.4-.3-.6-.3-.7-.4-.9-.4-.9-.4-.9-.4-.8-.3-.7-.2-.5v-.3c-.1,0,0-.5,0-.5l.2-.7.2-.7.2-.7.2-.7.2-.7.2-.7.2-.7.2-.7v-11.4h-.2Z" fill="#ececec" stroke="#231f20" stroke-miterlimit="10"/>
  <path id="blitta-1" d="M478.3,93.7l-1.8-1.1-1.8-1.1-1.9-1-2.1-.3-2.1-.3-2.1-.3-2.1-.3-2.1-.3-2.1-.3-2.1-.3-2.1-.3-2.1-.3-2.1-.3-2.1-.3-2.1-.3-2.1-.3-2.1-.3h-1.9l-1.4,1.7-1.4,1.6-1.4,1.6-1.4,1.6-1.4,1.6-1.4,1.6-1.4,1.6-1.4,1.6-1.4,1.6-1.4,1.6-1.4,1.6-1.6.9-2.1-.3-2.1-.3-2.1-.3-2.1-.4-2.1-.4-2.1-.5-2.1-.4-2.1-.4-2.1-.5-2.1-.4-2.1-.4-2.1-.5-2.1-.4-2.1-.4-2.1-.4-2.1-.4-2.1-.4-2.1-.4-2.1-.4-2.1-.4-2.1-.4-2.1-.4-2.1-.4-2.1-.4-2.1-.4h-19.1l-2-.7-2-.8-2-.8-2-.8-2-.8-2-.8-2-.8-2-.7-2.1-.2-2.1-.2-2.1-.2-2.1-.2-2.1-.2-2.1-.2-2.1-.2-2.1-.2-2.1-.2-2.1-.2-2.1-.2-2.1-.2-2.1-.2h-21.3l-.3.5.4,1.7.3,2.5-.2,2.8-.7,2.5v6.4l-.5,2-.8,2-.8,2-.8,2-.8,2-.6.8-1-1.2-1.6-2-1.7-2.3-1.3-2.1-.9-1-1.7-1-2.2-1.1-2.6-1.1-2.8-1.1-2.7-1-2.5-.9-2-.7-1.4-.4-.5-.2-2-.9-2-.9-2-.9-2.1-.2h-14v11.5l-.2.7-.2.7-.2.7-.2.7-.2.7-.2.7-.2.7-.2.7v.8l.2.5.3.7.4.8.4.9.4.9.4.9.3.7.3.6.2.4.4.5.5.5.6.6.7.7.8.7.8.7.8.7.7.6.7.6.6.5.5.4.3.3h.1v1.9c.1,0,.1.7.1.7l.2.8v1.8c.1,0,.1,4.9.1,4.9v.9c-.1,0-.1.8-.1.8-.1,0-.3.7-.3.7l-.3.7-.3.8-.3.7-.3.7-.3.7-.2.7-.2.7-.2.7v.7c-.1,0-.2.7-.2.7v2.1c.1,0,.4.7.4.7l.3.7.3.7.3.8.4.8.4.9.4.9.4.9.4.9.4.9.4.9.4.8.4.8.3.7.3.6.3.5.2.4v.3c.1,0,.2.2.2.2v20.4l.2.8.2.9.3.9.3.9.3.9.3.8.3.7.2.5v.2l.3.5.3.7.3.7.3.7.3.7.3.7.3.7.3.7.3.7.3.7.3.7.3.7.2.5v.6l.2.4.2.4.2.5.3.6.3.7.3.8.4.8.4.9.5,1,.5,1,.6,1.1.6,1.1.5,1,.3.7.2.7.2.8v.8c.1,0,.2.9.2.9v3.7c-.1,0-.1,1-.1,1-.1,0-.3,1-.3,1l-.2,1-.2.9-.2.9-.2.9-.2.9-.2.9-.3.8-.3.8-.2.7-.2.7-.2.6-.2.6-.2.5-.2.4v.3c-.1,0-.2.3-.2.3v.2h-.1v.5l-.2.7-.2.8-.3.9-.4.9-.5.8-.5.5-.2.3v.9c-.1,0-.1.6-.1.6v.7c.1,0,.1.8.1.8.1,0,.3.8.3.8l.2.9.2.9.3.9.3.9.3.9.3.9.3.8.2.8.2.7.2.6.2.6v.5c.1,0,.3.5.3.5l.2.6.3.6.3.7.3.7.3.7.4.8.4.8.4.8.4.8.4.8.4.7.4.7.4.7.3.6.3.6.3.5.3.7.3.9v1c.1,0,.2,1,.2,1v.9l-.2.9v.8c-.1,0-.3.6-.3.6v.4c-.1,0-.2.2-.2.2l.2.3.4.4.5.5.6.6.6.7.6.8.6.8.5.7.3.6v.7c.1,0,.2.8.2.8v.9l-.2.9-.2.9-.2.9-.3.9-.3.8-.2.7-.2.6v.5c-.1,0-.2.3-.2.3v.9c-.1,0-.3.8-.3.8l-.2.9-.2,1-.3,1-.3,1-.2,1-.2.8-.2.6v.4c-.1,0-.2.2-.2.2l-.2.7-.2.7-.2.7-.2.7-.2.7-.2.7-.2.7v.7l.2.7.3.7.3.7.3.7.3.7.3.7.3.7.3.7.3.7v1.7c.1,0,.1.8.1.8.1,0,.2.9.2.9v1c.1,0,.2,1.1.2,1.1v1.1c.1,0,.3,1.1.3,1.1v1c.1,0,.2,1,.2,1v.8l.2.7v1.3l.2.6.3.8.4.9.4,1,.4.9.3.7.2.5h.2c0,.1.7.1.7.1h1.8l.8.2h.9c0,.1,1,.3,1,.3l1,.2,1,.2,1,.2h.9c0,.1.8.3.8.3h.6l.4.2h.2l.6.2.7.2.7.2.7.2.7.2.7.2.7.2h5.6c0-.1,1-.1,1-.1l1.1-.2h1.2c0-.1.9-.2.9-.2l6.4-2.7h.1l.2-.2.2-.2.2-.3.2-.4.2-.5.2-.6.2-.8.2-.9v-1.1c.1,0,.2-1.2.2-1.2v-4.8c.1,0,.1-1,.1-1l.2-.9v-.9c.1,0,.3-.9.3-.9l.2-.8.2-.8.2-.7.2-.7.2-.6.2-.6.2-.5.2-.4.2-.4v-.3c.1,0,.3-.3.3-.3v-.2c.1,0,.2-.1.2-.1v-.2l.4-.5.4-.5.4-.5.4-.5.4-.5.4-.5.4-.5.4-.5.4-.5.4-.5.4-.5.4-.5.4-.5.3-.5v-.6c.1,0,.3-.6.3-.6v-.6c.1,0,.3-.6.3-.6v-.6c.1,0,.3-.6.3-.6v-.6c.1,0,.3-.6.3-.6v-.6c.1,0,.2-.2.2-.2v-2c.1,0,.1-.7.1-.7.1,0,.3-.8.3-.8l.2-.8.3-.7.4-.6.5-.5.5-.4.5-.4.6-.4.6-.5.6-.5.6-.5.6-.5.6-.5.6-.5.5-.5.5-.4.4-.3.3-.3.2-.2.2-.6.2-.6.2-.6.2-.6.2-.6.2-.6.5-.2h2.5l.6-.2.6-.2.6-.2.6-.2.6-.2.6-.2.6-.2.6-.2.6-.2.6-.2.6-.2.6-.2.6-.2.6-.2.6-.2.6-.2h.6c0-.1.6-.3.6-.3h.6c0-.1.6-.3.6-.3h.6c0-.1.6-.3.6-.3h.6c0-.1.6-.3.6-.3h.6c0-.1.6-.3.6-.3h.6c0-.1.6-.3.6-.3h.6c0-.1.6-.3.6-.3v-5.5l.2-.6.3-.5.3-.5.3-.5.3-.5.3-.5.3-.5.3-.5.3-.5v-.6c.1,0,.1-.6.1-.6v-7.4l-.2-.6-.2-.6-.2-.6-.2-.6-.2-.6-.2-.6-.2-.6-.2-.6-.2-.6-.2-.6-.2-.6-.2-.6-.2-.6-.2-.6-.2-.6-.2-.6-.2-.6-.2-.6v-.6c-.1,0,0-.6,0-.6l.2-.6.2-.6.2-.6.2-.6.2-.6.2-.6.2-.6.2-.6.2-.6v-.4c.1,0,.2-.3.2-.3v-.5l.2-.6.2-.7.2-.7.2-.8.2-.8.2-.7.2-.7.2-.6.2-.5.2-.5.2-.6v-2.8c-.1,0-.1-.6-.1-.6v-.5c-.1,0-.1-10.8-.1-10.8l-.2-.2-.2-.2-.3-.4-.3-.5-.4-.6-.4-.7-.4-.8-.4-.8-.4-.8-.4-.7-.4-.7-.3-.6-.2-.5-.2-.3v-.2l.2-.2.6-.3.6-.3.6-.3.6-.3.6-.3.6-.3.6-.3.6-.3.6-.3.6-.3.6-.3.6-.3.6-.3.6-.3.6-.3.6-.3.6-.3.6-.3.6-.3.6-.3.6-.3.6-.3.6-.3.6-.3.6-.3.6-.3.6-.3.6-.3.6-.3.6-.3.6.2.5.3.5.3.5.3.5.3.5.3.5.3.5.3.5.3.5.3.5.3.5.3.5.3.5.3.5.3.5.3.5.3.5.3.5.3.5.3.5.3.5.3h.2v.2h.3c0,.1.3.3.3.3l.4.2.5.2.6.2.6.3.7.3.7.3.7.3.8.3.8.3.8.3.8.2.8.2.8.2.9.2.9.2.9.2h.8c0,.1.8.3.8.3h.7c0,.1.7.2.7.2h.6c0,.1.6.2.6.2h.9c0,.1,1.4.1,1.4.1l.4.3.5.2.6.3.7.3.7.3.8.4.8.4.8.4.8.4.8.4.7.4.7.3.6.3.5.3.4.2h.3c0,.1.1.2.1.2h.4l.6.2h.6c0,.1.6.2.6.2h.6c0,.1.6.2.6.2h.6c0,.1.6.2.6.2h.6c0,.1.6.2.6.2h.6c0,.1.6.2.6.2h.6c0,.1.6,0,.6,0l.6-.2.6-.2.6-.2.6-.2.6-.2.6-.2.6-.2.6-.2.6-.2.6-.2.6-.2.6-.2.6-.2h.6c0-.1.6-.1.6-.1h16.7c0-.1.6-.2.6-.2h.6c0-.1.6-.2.6-.2h.6c0-.1.6-.2.6-.2h.6c0-.1.6-.2.6-.2h.6c0-.1.6-.2.6-.2h.6c0-.1.6-.3.6-.3l.4-.4.4-.4.4-.4.4-.4.4-.4.4-.4.4-.4.4-.4.4-.4.5-.4.5-.4.5-.4.5-.4.5-.4.5-.4.5-.4.4-.3h7.2c0,.1.7.1.7.1l.6.2h.5c0,.1.4.2.4.2h.5c0,.1.6.1.6.1h.7c0-.1.7-.3.7-.3l.7-.3.7-.3.6-.3.5-.3.4-.3.2-.3v-7.8h.4c0-.1.3-.1.3-.1l.4-.2h.5c0-.1.5-.3.5-.3h.6c0-.1.6-.3.6-.3l.7-.2.7-.2.7-.2.8-.2.8-.2.8-.2.8-.2h.8c0-.1.8-.3.8-.3h.8c0-.1.8-.2.8-.2h1.6c0-.1,3.4-.1,3.4-.1l.5.2h.5c0,.1.4.3.4.3h5.6l-1.1-1.2-.6-.5-.9-1.2-1.6-1.9-1.7-1.7-.3-1.1v-2.7l.9-2.5.6-2.1-.7-.3-.4-.9-.8-1.5-1.2-2.1-1.4-2.5-1.5-2.7-1.6-2.7-1.5-2.6-1.4-2.4-1.1-1.9-.8-1.3-.4-.6.4-1.2.9-2.6-.3-2.2-.2-1.3,1.2-2.2.8-2.1.7-.6.3-1.2.2-2.3-.4-3.4-.3-3,1-2.3,1.7-1.8,1.6-1.3.8-.8-.6-.9-1.7-1.8-1.9-2.2-1.4-2v-1.3l1.6-1.3,2.3-1.5,2.1-1.3,1.2-.9,1.6-2.1,1-1.4-4.8-5.2-1.8-1.1,1.7-1.1Z" fill="#ececec" stroke="#231f20" stroke-miterlimit="10"/>
  <path id="blitta-2" d="M294.3,320.7h.3l1.6-.2,1.7-.3,1.3-.3,1-.3.7-.3.5-.3.3-.2v-.2c.1,0,.2-.1.2-.1h.2l.5.2.7.3.8.3.9.3,1,.2h1l1.2.2,1,.3.7.4.5.3.2.2.3.5.4.6.4.6.4.6.4.6.4.6.4.6.4.6.2.7.2.7.2.7.2.7.2.7.2.7.4.6.4.6.4.6.4.6.4.6.4.6.4.6.4.6v.6c-.1,0-.6.6-.6.6l-.5.6-.5.6-.5.6-.5.6-.5.6-.4.6v5.3c.1,0,.3.6.3.6l.3.8.4.9.4.9.4.9.3.7.2.7v1.9c-.1,0-.2.8-.2.8v1l.3.9.6.7.7.5.7.3h.4c0,.1.4.3.4.3l.7.2.7.2.7.2.7.2.7.2.7.2.7.2.7.2.7.2.7.2.7.2.5.4.3.7.3.7.3.7.3.7.3.7.3.7.3.7.2.5c0,.1-.2.4-.2.4l-.3.4-.4.5-.5.6-.5.7-.6.7-.7.7-.7.7-.8.6-.8.5-.9.4-1,.5-.6.6v.6c-.1,0,0,.6,0,.6l.3.6.4.6.4.6.2.6v.5l.4.6.5.7.6.7.7.7.7.7.6.6.5.4.3.2.4.2.6.4.6.4.5.5v12.9h10.2c0-.1,2-.9,2-.9l2-.8,2-.8,2-.8,2-.8,1.3.2,2.4.8,1.9-1.1,1.4-2.6,1.7-1.5.6-.3,1,.7,2.7,1.1,2.5.5h2.5c0,.1,2.8.1,2.8.1h2.8l2.4-.2h2.4c0-.1,1.5-.8,1.5-.8l2.6-1.1,1.8-.2h4.1c0,.1,2.6,1,2.6,1l1.5.2,2-.6,2-.6,2-.6,2-.6,2-.6,2-.6,2-.6,2-.6,2-.6,2-.6,2-.6,2-.6,2-.6,2.1-.2h4.3l1.7-.7,2.3-1.3,1.3-1.1,1.2-2.2,1.1-2.5.9-1,2-.8,2-.8,2-.6,2.1-.6,2-.7,1.9-1,1.9-1,1.9-1,1.9-1,1.9-1,1.9-1,1.9-1,1.9-1,1.9-1,1.9-1,1.8-1.1,1.7-1.1v-1.2c.1,0,.4-2.6.4-2.6l.2-2.8v-2c.1,0,.8-1.9.8-1.9h5.8l1.4-.7,1.9-1.6.9-2.7.4-1.6,1.1-2.1,1.5-2.3,1.7-2.4,1.7-2.2,1.5-1.8,1.1-1.3.4-.5v-6.3l.4-2,1.2-1.7,1.2-1.7.8-1.2.2-1.6.3-2.7v-2.9c.1,0,0-2.4,0-2.4l-.9-1.5-1.9-1.9-1.6-1.6-.3-1.3,1.2-1.7,1.4-1.6,1.4-1.6,1.4-1.6,1.4-1.6v-.5c.1,0-.7-1-.7-1l-2.3-1.3-3.2-1.3.5-1.3,1.3-1.5,1.5-1.8,1.2-2.2.4-2.6v-5.5l-.8-.9-1.1-1.6-1-2.1-.6-2.3.3-2.4,1.5-2.2,2.3-2.2,1-2.7.4-2.3v-5l.3-1.8,1.5-2.1v-1.3l-1.2-1.8-1.8-2.2-1.4-1.6-.5-1.2.2-2.2v-2.5c.1,0,.1-2.1.1-2.1v-4.3c.1,0,.9-1.9.9-1.9l2.1-1.7.5-.8v-1.2c.1,0-1.1-1.9-1.1-1.9l-3-1.4v-2.5l.4-1.5-1.5-.2-2.4-.9-1.3-2.5v-2.8l.2-1.3-.6-1-1.6-2.3-1.4-1.7-1.6-1.8-1.2-1.7h3.6l2.1-.4,2.1-.7,1.8-1.2,1.2-1.6.2-2-1.3-3.1-1.6-2.6-.2-.2h-5.6l-.4-.2h-.5c0-.1-.5-.3-.5-.3h-1.2c0-.1-2.2-.1-2.2-.1h-.8c0,.1-.8.1-.8.1l-.8.2h-.8c0,.1-.8.3-.8.3h-.8c0,.1-.8.3-.8.3l-.8.2-.8.2-.8.2-.7.2-.7.2-.7.2-.6.2h-.6c0,.1-.5.3-.5.3h-.5c0,.1-.4.2-.4.2h-.3l-.2.2h-.2v7.8l-.2.3-.4.3-.5.3-.6.3-.7.3-.7.3-.7.2h-.7c0,.1-.6.1-.6.1h-.5c0-.1-.4-.3-.4-.3h-.5c0-.1-.6-.2-.6-.2h-.7l-.8-.2h-1.7c0-.1-4.7-.1-4.7-.1l-.4.3-.5.4-.5.4-.5.4-.5.4-.5.4-.5.4-.5.4-.4.4-.4.4-.4.4-.4.4-.4.4-.4.4-.4.4-.4.4-.4.4-.6.2h-.6c0,.1-.6.2-.6.2h-.6c0,.1-.6.2-.6.2h-.6c0,.1-.6.2-.6.2h-.6c0,.1-.6.2-.6.2h-.6c0,.1-.6.2-.6.2h-.6c0,.1-.6.1-.6.1h-16.7c0,.1-.6.3-.6.3l-.6.2-.6.2-.6.2-.6.2-.6.2-.6.2-.6.2-.6.2-.6.2-.6.2-.6.2-.6.2-.6.2h-.6c0-.1-.6-.2-.6-.2h-.6c0-.1-.6-.2-.6-.2h-.6c0-.1-.6-.2-.6-.2h-.6c0-.1-.6-.2-.6-.2h-.6c0-.1-.6-.2-.6-.2h-.6c0-.1-.6-.2-.6-.2h-.5c0-.1-.3-.1-.3-.1,0-.1-.4-.3-.4-.3l-.5-.3-.6-.3-.7-.3-.7-.4-.8-.4-.8-.4-.8-.4-.8-.4-.8-.4-.7-.3-.7-.3-.6-.3-.5-.2-.4-.2h-.5c0-.1-.9-.1-.9-.1h-.4c0-.1-.5-.1-.5-.1l-.6-.2h-.6c0-.1-.7-.2-.7-.2h-.7c0-.1-.8-.3-.8-.3h-.8c0-.1-.9-.3-.9-.3l-.9-.2-.9-.2-.8-.2-.8-.2-.8-.2-.8-.3-.8-.3-.8-.3-.7-.3-.7-.3-.7-.3-.6-.3-.6-.2-.5-.2-.4-.2-.3-.2h-.2c0-.1-.1-.2-.1-.2h-.2l-.5-.4-.5-.3-.5-.3-.5-.3-.5-.3-.5-.3-.5-.3-.5-.3-.5-.3-.5-.3-.5-.3-.5-.3-.5-.3-.5-.3-.5-.3-.5-.3-.5-.3-.5-.3-.5-.3-.5-.3-.5-.3-.6-.2-.6.3-.6.3-.6.3-.6.3-.6.3-.6.3-.6.3-.6.3-.6.3-.6.3-.6.3-.6.3-.6.3-.6.3-.6.3-.6.3-.6.3-.6.3-.6.3-.6.3-.6.3-.6.3-.6.3-.6.3-.6.3-.6.3-.6.3-.6.3-.6.3-.6.3-.3.2v.2l.3.3.2.5.3.6.4.7.4.7.4.8.4.8.4.8.4.7.4.6.3.5.3.4.2.2v.2c.1,0,.2.4.2.4v11.5c.1,0,.1.7.1.7v.7c.1,0,.1,1.4.1,1.4l-.2.6-.2.5-.2.5-.2.6-.2.7-.2.7-.2.8-.2.8-.2.7-.2.7v.6c-.1,0-.2.5-.2.5v.3l-.2.4-.2.6-.2.6-.2.6-.2.6-.2.6-.2.6-.2.6-.2.6-.2.6-.2.6v.6c.1,0,.4.6.4.6l.2.6.2.6.2.6.2.6.2.6.2.6.2.6.2.6.2.6.2.6.2.6.2.6.2.6.2.6.2.6.2.6.2.6v8.6c-.1,0-.4.5-.4.5l-.3.5-.3.5-.3.5-.3.5-.3.5-.3.5-.3.5-.2.6v5.6h-.6c0,.1-.6.1-.6.1,0,.1-.6.3-.6.3h-.6c0,.1-.6.3-.6.3h-.6c0,.1-.6.3-.6.3h-.6c0,.1-.6.3-.6.3h-.6c0,.1-.6.3-.6.3h-.6c0,.1-.6.3-.6.3h-.6c0,.1-.6.4-.6.4l-.6.2-.6.2-.6.2-.6.2-.6.2-.6.2-.6.2-.6.2-.6.2-.6.2-.6.2-.6.2-.6.2-.6.2-.6.2h-2.4l-.5.2-.2.6-.2.6-.2.6-.2.6-.2.6-.2.5-.2.3-.3.3-.4.3-.5.4-.5.5-.6.5-.6.5-.6.5-.6.5-.6.5-.6.5-.6.4-.5.4-.5.4-.5.5-.4.6-.3.7-.2.8-.2.8v.7c-.1,0-.2.7-.2.7v2.1c-.1,0-.3.6-.3.6v.6c-.1,0-.3.6-.3.6v.6c-.1,0-.3.6-.3.6v.6c-.1,0-.3.6-.3.6v.6c-.1,0-.5.5-.5.5l-.4.5-.4.5-.4.5-.4.5-.4.5-.4.5-.4.5-.4.5-.4.5-.4.5-.4.5-.4.5-.4.5v.2c0,.1-.1.4-.1.4v.3c-.1,0-.3.3-.3.3l-.2.4-.2.4-.2.5-.2.6-.2.6-.2.7-.2.7-.2.8-.2.8-.2.9v.9c-.1,0-.3.9-.3.9v1l-.2,1v3.8l-.2,1.2v1.1c-.1,0-.3.9-.3.9l-.2.8-.2.6-.2.5-.2.4-.2.3-.2.2h-.2c0,.1-.1.2-.1.2l-6.4,2.7h0Z" fill="#ececec" stroke="#231f20" stroke-miterlimit="10"/>
</svg>